<?xml version="1.0" encoding="utf-8"?>
<!-- Generator: Adobe Illustrator 19.2.1, SVG Export Plug-In . SVG Version: 6.00 Build 0)  -->
<svg version="1.1" id="Calque_1" xmlns="http://www.w3.org/2000/svg" xmlns:xlink="http://www.w3.org/1999/xlink" x="0px" y="0px"
	 viewBox="0 0 841.9 595.3" style="enable-background:new 0 0 841.9 595.3;" xml:space="preserve">
<style type="text/css">
	.st0{fill:#DADADA;}
	.st1{fill:#1D1D1B;}
</style>
<ellipse class="st0" cx="435.5" cy="403.3" rx="216.7" ry="21"/>
<g>
	<g>
		<path class="st1" d="M664.6,207.4c-1-1-5.6-0.8-7.7,0.2c-5.6,2.5-13.5,6.2-19.8,8.8c-2.1,0-4,0-6.2,0c-7.5,1.7-16.7,2.9-24,5.8
			c-3.3,1.3-5.6,3.8-8.5,5.4c-1.5,0.6-3.1,1.2-4.8,1.7c-7.5,6.7-14.8,13.3-22.3,20c-0.2-0.2-0.6-0.6-0.8-0.8c0-1.5,0.2-1.9,0.6-2.9
			c-2.1-3.7-1.9-3.3-1.9-8.5c-0.8,0-1.3,0-2.1,0c0-1.3,0.2-2.7,0.2-4c-0.6-0.2-1-0.6-1.5-0.8c-1.3,1.3-1.3,2.7-2.9,3.8h-0.2
			l-0.2-0.2c0-0.4,0.2-0.8,0.2-1c0.6-0.8,1.2-0.8,1.5-1.9c-1-0.4-1.9-5.4-2.1-7.1c-1.3-1.2-3.5-1-4.6-2.9c0-0.8,0.2-1.3,0.2-2.1
			c-1.9-1.5-3.8-3.1-5.8-4.6c0.2-2.1,1.2-2.9,0.8-4.8c0-0.2-0.2-0.2-0.2-0.4c-0.4,0-0.8,0.2-1.2,0.2c-0.2,0.8-0.6,1.3-0.8,2.1
			c-0.4,0.2-0.8,0.2-1,0.4c-0.6-0.4-1-0.8-1.5-1c-1.2-1.9-0.4-3.7-1-6c-0.2,0-0.4-0.2-0.6-0.2c-1,0.6-1.2,1.5-1.9,2.3
			c0.2-1,0.2-2.1,0.4-3.1c0-0.2-0.2-0.2-0.2-0.4c-1.2,0.4-1.3,1.5-1.9,2.7c-0.2,0-0.4,0.2-0.6,0.2c-1-1-2.3-1-2.9-2.3
			c-0.8-3.3,1-4.2-1-7.5c-0.2,0-0.4,0-0.6,0c-1.3,2.5-0.6,6.9-2.3,9.6c-0.2,0-0.4,0.2-0.6,0.2c-0.6-2.7-1-5.6-0.8-8.8
			c-0.2-0.2-0.2-0.4-0.4-0.6c-2.7,0.8-1.7,7.9-1.5,8.8c-0.2,0-0.2,0.2-0.4,0.2c-0.2-1-0.6-1.9-0.2-2.9c-0.2-0.4-0.4-0.8-0.6-1
			c-0.6,0.6-1,1.2-1.5,1.9h-0.2c-0.2-1.2-0.2-2.3-0.4-3.5c0.4,0,0.8,0,1,0c-0.6-1.9-1.9-2.5-2.3-5.4c-1,0-0.8-0.2-1.2,0.2
			c-0.8,1.2,0.2,2.1-0.6,3.1c-1.2,0.4-2.1,0.8-3.3,1c-0.2-1.3-0.4-2.7-0.6-4c-0.4-0.2-0.8-0.4-1-0.6H521c0.2,1.7,0.2,3.5,0.4,5.2
			c-0.6,0.2-1.2,0.4-1.7,0.6c-0.4-1-0.8-1.7-1-2.7c-0.2,0-0.6,0-0.8,0c-0.2,0.6-0.4,1.2-0.6,1.5c0,0.2-0.2,0.2-0.2,0.4
			c-0.4-0.8-0.8-1.5-1.2-2.3c-0.4-0.2-0.8-0.2-1.2-0.4c-0.4,1.9,0.8,3.5,1.5,4.8c-0.8,0.6-1.3,1.2-2.5,1.5c-1-1-0.6-1-2.3-1
			c0,1,0.2,1.2,0.6,2.1c-0.4,0.4-0.8,0.8-1.2,1.2c-1-1-1.3-2.1-2.9-2.7c-0.2,0.2-0.2,0.2-0.4,0.4c0.2,1.7,1.2,2.5,2.1,3.5
			c-0.2,1-0.4,1.7-0.6,2.7c-0.2,0.2-0.4,0.2-0.6,0.4c-1-1-1.9-2.1-2.9-3.1c-0.4,0-0.8,0-1.2,0c0,0.2-0.2,0.2-0.2,0.4
			c0.4,2.3,3.8,6,5.6,7.1v0.2c-0.6,0.8-1.2,1.7-1.7,2.5c-0.2,0.2-0.4,0.2-0.6,0.4c-1-1.3-2.5-2.9-4.4-3.3c-0.2-0.8-0.2-1.3-0.4-2.1
			c-1.3-0.2-2.3,0.4-3.5,0.8c0.4-1.5,1.5-3.5,1-5c0-0.2-0.2-0.4-0.2-0.6c-2.5,0.2-3.1,4-3.5,6.2c-0.8,0.6-1.5,1.2-2.7,0.6
			c-3.3-2.3,4.8-9,6.2-10c0-0.4,0-0.8,0-1.2c-0.6,0-1.2-0.2-1.7-0.2c-1,0.8-1.7,1.3-2.7,2.1c-0.2,0.2-0.4,0.4-0.6,0.6
			c-0.2-1,0-1.7-0.8-2.5c-1.2,0.6-1.7,1.5-2.1,3.1c-0.2,0-0.2,0.2-0.4,0.2c0-2.7,3.7-5.8,4.6-8.5c-0.6-0.2-1.2-0.6-1.7-0.8
			c-1.3,1-2.7,1.7-4,2.7c-0.2,0.2-0.4,0.4-0.6,0.6c-0.4-1.2-0.8-2.3-1-3.5c1.3-1.5,2.7-3.1,4-4.8c0-0.2,0-0.6,0-0.8
			c-0.2-0.2-0.6-0.4-0.8-0.6c-0.2,0-0.6,0-0.8,0c-1.9,1.9-4,4-6,6c-0.2,0.2-0.2,0.2-0.4,0.4c-1.5-3.8,2.1-6.3,3.1-8.8
			c-1.2-1-1.9-0.4-2.9,0.2c-0.2-1.2-0.2-2.1-0.4-3.3c-0.2,0-0.4-0.2-0.6-0.2c-1.5,0.4-1.7,2.3-1.9,3.8c-1.7,1.2-3.3,0.8-5.2,1.7
			h-0.2c1.2-2.5,2.3-5,3.5-7.5v-0.2c-0.6-0.2-1.2-0.4-1.9-0.6c-0.8,1.5-1.7,3.1-2.5,4.8c-0.2,0.2-0.6,0.4-0.8,0.6
			c-0.2,0-0.4,0-0.6,0c0.2-0.8,0.2-1.5,0.4-2.3c-0.6-0.6-1.2-1-2.3-0.6c0.2-1.3,1-3.1,0.4-4.4c-1.2-1.5-2.5,0.6-3.5,1.2
			c-0.8,3.5-1.2,5-1.9,8.3c-1,0.4-1.7,0.8-2.7,1c-0.6-4,1.2-8.8,0.2-11.9c-0.6,0-1,0-1.5,0c-0.2,0.8-0.4,1.5-0.6,2.3
			c0,0.2,0,0.2,0,0.4h-0.2c-0.4-1.5-0.6-2.7-2.1-2.7c0-0.6,0-1,0-1.5c-0.2-0.2-0.2-0.4-0.4-0.6c-0.4,0-0.8,0-1,0
			c-1.9,3.3-1.3,8.7-2.3,12.5c-0.2,0.2-0.4,0.2-0.6,0.4c-2.1-3.8,0.4-6.3,0.4-10c-1.2-0.8-2.5-1-4-0.4c-0.6-1.3-1-2.7-1.5-4
			c-0.4,0-0.8-0.2-1.2-0.2c-0.2,0.2-0.4,0.6-0.6,0.8c1,2.7,2.9,8.5,1.9,10.8c0,0.2,0,0.2,0,0.4c-1.3-0.6-5.6-11.5-5.6-13.6l-0.2-0.2
			c-0.2,0-0.6,0.2-0.8,0.2s-0.2,0-0.4,0c-0.4,1.9,1,3.3,0.8,4.8c-0.2,2.1-2.1,2.7-2.7,4.4c-0.2,0-0.2,0.2-0.4,0.2
			c-1-1.3-1-3.7-2.1-4.8c-0.4,0-0.8,0-1.2,0c0,1.3,0.2,2.7,0.2,3.8c-1-0.4-1.7-0.8-2.7-1c-2.1-6.9-22.1-19-28.5-23.5
			c-1-0.6-2.1-1-3.1-1.5c-3.1-2.7-6.9-4.2-10.4-6.7c-7.5-5.6-15.2-10.2-23.3-15.2c-15.8-9.8-31.9-19.6-50.8-26.9
			c-10.4-4-22.7-6.3-34.4-8.7c-5.8-1.2-13.5,0.2-16,4c-7.1,11.2,9.4,24,16.3,28.6c2.7,2.1,5.4,4,8.1,6.2
			c13.8,8.7,28.5,15.6,43.3,23.3c12.3,6.5,24.8,13.8,38.6,18.8v0.2c-1.5,1.3-2.9,2.7-4.4,3.8c0,0.4,0,0.8,0,1c0.4,0.2,0.8,0.4,1,0.6
			c1.3-0.2,1.5-0.6,2.5-1c-1.5,5.8-5.4,9.2-6.2,16.3c-1.2,0.6-18.8-4.6-21.5-5.8c-1.5-8.1,9-14.6,12.1-19.8c-0.4-1-0.6-1.2-1.7-1.5
			c-2.1,1.2-2.5,3.7-4.4,5c-0.4,0.4-0.8,0.8-1.2,1.2c-0.2-1-0.6-2.1-0.8-3.1c0.6-0.8,1.2-1.3,1.9-2.1c-0.2-0.6-0.2-1.2-0.4-1.7
			c-0.4,0-0.8-0.2-1-0.2c-0.8,0.6-1.7,1.2-2.5,1.9c-1.5-1.3-2.7-0.6-4.4-1.5c-3.1,2.3-6.2,6-7.3,10.2c-0.2,0.2-0.4,0.2-0.6,0.4
			c0.6-3.7,4.8-7.7,2.9-10.8c-0.4,0-0.8,0-1,0c-1.3,1.3-1.9,3.1-3.8,3.8h-0.2c0-1,0.2-2.1,0.2-3.1c-0.2,0-0.2,0-0.4,0
			c-0.4-0.2-0.8-0.2-1-0.4c-0.2,0-0.4,0.2-0.6,0.2c-0.8,1.2-1,2.9-1.5,4.4c-0.6,0-1.2,0.2-1.9,0.2c-1.2,2.1-2.1,4.4-3.3,6.5
			c-0.4,0.6-0.2,0.2,0.2,1c-0.8,1.7-2.1,1.9-2.1,4c-2.7,1.2-18.3-3.8-23.3-4.6c-0.2-0.6-0.4-1.2-0.6-1.7c-0.2-0.2-0.2-0.4-0.4-0.6
			c-2.1,0.2-1.9,1.2-4,1.2c0-0.2-0.2-0.2-0.2-0.4c0.8-1.2,0.8-2.7-0.6-3.3c-1,0.6-1.5,1-1.7,2.5c-2.9,1.7-13.1-2.7-17.7-2.5
			c-2.1,0-3.8-0.6-5.8-1c-3.3-0.2-6.5-0.4-10-0.6c-8.7-1.5-21.3-2.9-30.4-0.2c-15.4,4.4-11.9,20.2,1.9,23.3c0,0.8-0.2,1.3-0.2,2.1
			c0.6,0.6,1.2,1,1.9,1.5c-0.6,0.4-1.2,0.8-1.9,1c0-0.6-0.2-1.2-0.2-1.7c-0.6-0.2-1-0.6-1.5-0.8c-0.2,0-0.6,0-0.8,0
			c-1.5,3.3-4.8,2.7-5.4,5.8c-2.5,0.6-3.3-1.2-5.4-1.5c-0.4,0.2-0.8,0.6-1,0.8c0.2,0.8,0.4,1.5,0.6,2.3c-0.8,0.6-1.5,0.8-2.3,1.5
			c0.2,1.2,0.2,2.3,0.4,3.5c-0.2,0.2-0.4,0.4-0.6,0.6c-2.5-0.2-2.9-1.3-4.4-2.5c-2.3,0.2-5.4,2.3-6.3,3.8c0,0.4-0.2,0.8-0.2,1.2
			c0.8,0.6,1.7,1,2.9,1.2c0.4,0,0.8-0.2,1.2-0.2c0-1-0.2-1.9-0.2-2.9c0.4,0,0.8-0.2,1.2-0.2c1.2,0.8,2.5,1.3,3.3,2.5
			c-1,1-1.5,1-1.9,2.5c0.4,0.2,0.8,0.6,1,0.8c1.3,0.6,1.9-0.6,2.1-1.9c0.4,0.2,0.8,0.2,1,0.4c0.8,0.6,0.6,1.3,0.6,2.3
			c0.6,0.4,0.8,0.6,1.9,0.6c0.2-0.2,0.4-0.4,0.6-0.6c0-0.8-0.2-1.3-0.2-2.1c0-0.4,0-0.8,0-1.2c0.2,0,0.6,0.2,0.8,0.2
			c0.4,2.3,0.8,4.4,2.9,5.2c0.2,0,0.4,0,0.6,0c1-0.6,1-1.9,0-2.7c0.4-0.8,0.4-0.8,1.2-1c0,1.9,0.2,3.8,0.2,5.8
			c0.4,0.2,0.8,0.6,1.2,0.8c1.2,0,1.7-0.2,2.3-0.8c-0.4-0.8-0.6-0.8-0.6-2.1c0.4,0.6,0.8,1.2,1,1.7c0,1.3,3.3,1.5,4,3.7
			c1.2,0.8,1.7,0.6,2.9,0c0,0.8-0.2,1.5-0.2,2.3c0.4,0.2,0.8,0.2,1,0.4c0,0,4.4-1.2,5-1.5c0.2,0.2,0.6,0.6,0.8,0.8
			c-0.6,1.2-0.8,1.5-0.6,2.9c1.9,0.6,2.5-0.6,3.5-1.5c1.3,1,2.1,1.3,3.5,0.2c1.7,0.4,2.7,1.5,4.4,1.7c0.4,1.9,0.6,3.3,1.2,5.2
			c0.2,0,0.6,0.2,0.8,0.2c0,0,6.3-1.3,7.7-1.7c0-0.6,0-1.2,0-1.9c-0.8-0.8-1.7-1.3-2.5-2.1c-0.8,0.4-1.7,0.8-2.5,1.2
			c0.6-3.3,0.8-4.8-0.8-7.5c-0.8,0-1.3,0-2.1,0c-1,0.6-1,1.3-0.8,2.9c-1.5,0-3.1-0.8-4.6-1.2c-0.4,0.6-0.8,1.2-1.2,1.7
			c-0.2,0-0.2,0.2-0.4,0.2c-1.5-2.3-4.6-6.3-2.5-10.8c0.2-0.2,0.6-0.6,0.8-0.8c1.7,0.6,2.5,0.8,3.5-0.4c0-0.2-0.2-0.4-0.2-0.6
			c-1.2-1-3.1-1.5-4.6-0.6c-0.2,0-0.2-0.2-0.4-0.2c-0.2-0.2-0.2-0.6-0.4-0.8c0.6-0.6,1.2-1.2,1.7-1.7c0-1-0.2-2.1-0.2-3.1
			c0.4-0.6,0.8-0.8,1.5-1c0.4-2.3,0.8-3.7,1.7-5.2c1.5-0.2,22.1,6.9,23.3,8.1c0.6,0.8-0.8,5.2-0.8,7.5c-0.4-0.2-0.8-0.6-1-0.8
			c-0.6,0-1,0.2-1.5,0.2c-0.2,0.2-0.2,0.6-0.4,0.8c-0.6,1.3,0.6,2.1,0.6,3.8c0.2,0.2,0.6,0.4,0.8,0.6c1.7,0,2.3-0.4,3.3-1l0.2,0.2
			c-0.4,1.5-1.7,4.6-2.7,5.8c0.8,4.4,2.3,3.8,0.2,8.3c-0.6-0.2-1.2-1.2-2.1-1.7c-2.7,1-4.4,2.1-6.2,4c-0.6-0.8-0.8-1.7-1-2.9
			c-0.4,0-0.8,0-1.2,0c-0.2,0-0.2,0-0.4,0c-1.3,2.1,0,3.3,0.8,5.2c1,0.2,1.2,0.2,1.9-0.2c0-0.6,0.2-1,0.2-1.5
			c1.3,0.2,2.7,0.2,3.8,0.4c0.8,1.2,1.7,2.3,2.5,3.5c0.6-0.2,1-0.2,1.5-0.4c0.2-0.2,0.4-0.4,0.6-0.6c-0.4-1.5-0.8-2.9-1.2-4.4
			c0.4-0.2,0.8-0.2,1-0.4c0,0.6,0.2,1.2,0.2,1.9c1,0.2,1.5,0.4,2.5,0.2c0.8,1-0.2,2.1,0.6,3.1c0.6,0.8,1.9,1.7,2.7,2.5
			c1.2-0.4,1-1,1.7-1.2c1.5,0,3.1,0.2,4.8,0.2c0.4,0.8,0.8,1.3,1.2,2.1c0.2,0,0.6,0,0.8,0c0.6-0.8,1.2-1.5,1.7-2.3
			c2.5,2.9,4.2,4.4,8.7,2.9c1,0.8,1.7,1.3,2.7,2.1c1.2-0.6,1.3-1.2,2.1-2.1c2.1,0.4,3.8,1.2,5,2.7c1.2-0.2,2.3-0.6,3.5-0.8
			c0.2-0.2,0.2-0.2,0.4-0.4c-0.2-0.8-0.4-1.5-0.6-2.3c1.3,0,1.5,0,2.5-0.2c0.2-1-0.4-1.5-0.8-2.5c0.4-0.4,0.8-0.8,1.2-1.2
			c-0.6-0.4-1-0.8-1.5-1.2c-1.3,0.2-1.5,1-2.3,1.9c0.6,0.4,0,0.2,0.6,0.2c-0.2,1-0.6,1.9-0.8,2.9c-0.6,0.2-1.2,0.2-1.7,0.4h-0.2
			c0.2-0.6,0.2-1.2,0.4-1.9c-0.2-0.2-0.6-0.4-0.8-0.6c-1.2,0.2-2.7,1.2-3.5,0.2c-0.2-0.2-0.4-0.2-0.6-0.4c0.2-1.3,0.4-1.3,1.5-1.9
			c-0.2-1.3-0.6-1.3-1-2.3c0.8-0.8,1.2-1.2,1.7-2.5c-0.4-1-0.8-1.2-1.2-1.9c-1.7,0.2-2.5,0.8-2.7,2.3c0.4,0.8,0.8,1.3,1.7,1.7
			c-0.8,0.6-1.5,1-2.3,1.5c-0.6-0.6-1-1.2-1.5-1.7c-0.4-2.9,0.2-18.6-3.1-19.6c0-0.2,0.2-0.6,0.2-0.8c0-0.2,0-0.2,0-0.4
			c2.5-0.4,7.1,1.5,9.6,2.3c1.9,0.2,3.8,0.4,5.8,0.6c2.9,0.8,6,1.5,8.8,2.3c0.6,2.1-1.3,3.8-0.8,6.2c0.6,2.1,1.2,4.2,1.7,6.3
			c0.6,0.6,1.2,1.2,1.7,1.7c-0.2,0.2-1,3.8-1,4.4c0.8,0.6,1.3,1,2.5,1.2c0.2,1.5,0.6,3.1,0.8,4.6c-1.2,0.4-1.7-0.6-3.5-0.2
			c-1-1.2-0.8-2.3-2.3-2.3c0.6-1,1.3-1.3,1.9-2.3c0-0.4,0-0.8,0-1c-0.8-0.6-0.8-0.8-2.1-0.8c-1,1-2.5,1.5-3.1,2.7
			c-0.2,0-0.2,0-0.4,0c0.2,0.6,0.6,1.2,0.8,1.9c0.8,0,1.3,0,2.1,0v0.2c0,0.4-0.2,0.8-0.2,1.2c-0.6,0-1.2,0.2-1.7,0.2
			c-0.2,0-0.2,0-0.4,0c-0.2,0.8-0.2,1-0.6,1.5c-0.6-1.7-0.8-2.5-2.5-3.1c-0.2,1.3-0.6,1.5-1,2.5c0.4,1.7,1.5,2.5,2.1,4.4
			c0.2,0,0.6,0.2,0.8,0.2s0.4-0.2,0.6-0.2c1.9-3.7,0-1.2,3.7-3.5c0,1,0.8,1.3,1.2,2.3c0.2,0,0.2,0.2,0.4,0.2
			c-7.5,2.7-26,11.3-30.6,16.7c0.2,1.5,0.8,1.7,1.7,2.5c-1.9,1.9-6.3,1.9-9.2,2.9c-6.7,2.1-24.2,7.3-27.3,12.5
			c-5.8,1-11.3-5.6-14.8,0.2c-2.3,0.2-6-1.3-7.5-2.7c-1.9,0.6-2.3,1.7-3.5,2.3c-0.2,0-0.2-0.2-0.4-0.2c-3.1-1-8.5-3.1-11.9-3.7
			c-1,1-1.7,1.3-1.7,3.5c1.2,1.3,2.3,2.9,3.8,3.5v0.2c-1.3,1-3.8,0.4-5.4,1.2c-0.8,0.8-1.5,1.7-2.3,2.5c0,0.6,0,1,0,1.5
			c5,5,11.3,0,16.9,1.7c0.8,0.8,1.7,1.3,2.5,2.1c2.9,1.9,7.1,1,10-0.4c1.9,0.2,2.7,1.9,4.8,2.3c7.1,1.5,9.6-6.2,14-7.5
			c4.8-0.2,9.6-0.2,14.4-0.4c3.7-0.8,7.5-1.9,11.3-3.3c4.4-2.1,8.8-4,13.3-6.2c1.9-1.3,3.8-2.7,5.8-3.8c1.3,0.8,3.1,2.7,6,1.9
			c9.4-2.7,17.7-15.6,25.2-21.5c1.7-1.5,2.5-3.8,5.2-4.6c0.8-1.2,0.6-1.7,0.2-3.3c0.2,0,0.2-0.2,0.4-0.2c1,0.4,1.3,0.6,1.9,1.2
			c4-1.5,9.8,1,12.1-2.7c1.3,0.4,1.9,1.3,3.1,2.1c0.6-0.4,1.2-0.8,1.7-1c0.4,0.4,0.8,0.8,1,1.2c0.6-0.2,1-0.2,1.5-0.4
			c0.4-0.8,0.4-1.3,0.6-2.1c0-0.2,0-0.2,0-0.4c1.3,0.6,1.5,1.3,3.3,0.8c0,0.4,0.2,0.8,0.2,1c1.5,0.2,2.1-0.4,3.7-0.6v0.2
			c-2.3,3.8-9,6.9-12.1,10.8c-3.7,4.8-7.1,9.4-10.8,14.2c-4.4,4.6-8.7,9-13.1,13.6c-2.5,3.5-11,12.1-6.3,16.7
			c-2.9,6.5-6.5,13.1-8.8,20c-1.7,5.2-4,25.4-3.3,29c0.6,1.5,1,3.1,1.5,4.6c-2.7,5.2-8.5,11-13.3,14.2c-2.5,1.7-6.2,0.2-7.7,3.1
			c0.8,1.3,1.7,1.7,2.1,3.3c-3.8,0.8-7.9-0.2-11.5,0.8c-1,0.4-1.2,1-1.7,1.9c0.2,1,0.2,1.7,0.4,2.7c2.3,1.5,4.2,2.7,6.5,3.7
			c3.1-0.6-1.2,6.2-0.6,8.3c0,1.2,0.8,1.3,1.9,1.7c4.4-0.2,11.7-9.8,13.1-13.1c6.3-0.2,7.3-2.1,10.4-7.3c0.6-1,0.6-2.1,1.5-2.5
			c1.3-0.6,2.7,0,3.7-0.6c5.2-3.1,3.7-11.3,6.3-16.9c1.3-1.3,2.7-2.7,3.8-3.8c2.7-5.8,3.7-12.7,5.4-19.2c1.7-6.9,5.4-15.2,6-22.9
			c0.2,0,0.2-0.2,0.4-0.2c0.6,0.6,1,1,1.5,1.5c0.2,0.2,0.6,0.2,0.8,0.4c4.6-3.7,8.8-17.3,11.3-24c2.1-3.8,4.2-7.5,6.3-11.3
			c7.3-12.1,25.8-20.2,31.1-32.9c0.2-0.2,0.4-0.2,0.6-0.4c2.7,14,4.6,25.4,9,37.1c1.2,3.3,1.5,6.2,3.3,8.7c1.9,1.9,3.8,3.7,5.8,5.6
			c-0.6,3.8-3.3,6.5-5,9.4c-3.3,5.8-5.4,12.9-7.3,19.8c-0.8,2.9-2.9,13.3-2.1,16.9c0.4,1.9,1.2,5,0.8,7.7c-0.6,5.8-2.7,10.8-4.6,16
			c-1.3,3.7-3.7,7.3-5.8,10.4c-1.7,2.1-3.8,3.3-4.8,6.3c0,0.2,0.2,0.4,0.2,0.6c4.8,3.1,10.6-6.9,14,1.5c1,0.8,1.5,1.3,2.9,0.6
			c0.2-0.2,0.2-0.2,0.4-0.4c1.7-4.2-4.6-7.9-2.7-13.3c1.9-5.4,5.2-9.8,7.5-14.8c1-2.3,2.5-5.2,3.1-7.3c0.2-1.7,0.4-3.5,0.6-5.2
			c1.7-2.9,3.3-5.6,5-8.5c2.5-5.6,4-12.3,6-18.1c1.5-4.8,2.5-21.9-1.5-23.6c1.9-11.5,2.7-17.7-1.2-28.5c0.6-0.8,1.2-1.3,1.9-2.1
			c0.4,0,0.8,0.2,1,0.2s0.2,0,0.4,0c-0.4,1.5-1.3,1.9-1.7,3.7c0,0.2,0.2,0.4,0.2,0.6c0.8,0.4,0.8,0.6,2.1,0.6
			c1.9-2.1,2.3-4.4,5.4-5.6c0.6,1,1.2,1.7,1.9,2.7c-0.4,0.4-0.8,0.8-1,1.2c-1,0-1.9-0.2-2.9-0.2c-0.2,0.2-0.2,0.4-0.4,0.6
			c0.8,1.9,0.2,2.5,0.6,4.8c0.6,0.2,0.8,0.4,1.7,0.4c0.8-0.6,1-0.8,1.2-1.9c2.3-1.2,4.2,0.2,5.4,1.7c0.8-0.2,1.3-0.6,2.1-0.8
			c-0.2,1-0.4,2.1-0.6,3.1c0.6,0,1,0.2,1.5,0.2c0.4-0.6,0.8-1.2,1.2-1.9c1-0.6,1-0.8,2.3-0.8c1.2,1.2,1.7,1.5,4,1.5
			c-0.2,0.6-0.4,1.2-0.6,1.9c0,0.2,0,0.2,0,0.4c-0.4-0.6-0.8-1-1.2-1.5c-1.2-0.2-1-0.2-1.7,0.4c-0.2,4.2,9.2,11.5,13.6,12.3
			c0.8,1.2,0.6,3.7,1.2,5.4c2.5,6.2,5.6,12.9,9,17.5c2.5,2.9,4.8,6,7.3,8.8c2.9,2.3,6.2,3.3,8.1,6.3c2.1,3.5,2.3,7.5,3.7,11.3
			c1,2.5,1.7,5,2.7,7.5c-0.6,0.6-0.8,0.6-1,1.7c0.6,0,1.2,0.2,1.9,0.2c0.6,1.5,1,4.8,2.3,6c0.2,0.2,0.6,0.2,0.8,0.4c0.4,0,0.8,0,1,0
			c1-1.7,0.2-5.2,0.8-7.5c2.1-0.2,4.4-0.6,6.5-0.8c0.4-0.8,0.6-1,0.6-2.1c-1.7-1.7-5.6-1.5-6.7-3.7c-2.3-3.8-2.7-8.7-4.8-12.9
			c-1.5-3.3-4.4-6.9-5.8-10c-1.3-3.3-1.2-8.3-2.5-11.5c-1.7-4.6-5.6-8.1-8.3-11.7c-1-1.7-1.7-3.3-2.7-5c-1.7-1.3-3.5-2.7-5.2-4
			c-0.2-0.4,0.6-9.6,0.4-10.8c2.3-0.6,3.7,0.8,5.4,1.2c0.2-0.4,0.6-0.8,0.8-1c0-1.5-0.4-1.5-1-2.3c0-0.2,0.2-0.6,0.2-0.8
			c0.2,0,0.4-0.2,0.6-0.2c0.8,0.6,1.3,1.2,2.1,1.7c-0.4,1.5-1.9,3.1-1.5,4.6c0.4,0.6,0.6,0.6,1.2,0.8c1.3-1,2.1-3.3,2.7-5
			c1,0,1.7,0,2.7,0c0.2-0.2,0.4-0.4,0.6-0.6c0-0.2,0-0.6,0-0.8c-0.8-0.4-1.5-0.8-2.3-1.2c0.2-0.6,0.2-1.2,0.4-1.7
			c0.6-0.4,1.2-0.8,1.9-1.2c1.9,0.4,1.5,1.7,3.8,2.1c1.3-1.2,2.1-1.3,2.5-3.5c0.8,0.2,1.5,0.6,2.3,0.8c0.2,0,0.6,0,0.8,0
			c0-0.2,0.2-0.2,0.2-0.4c-0.2-1.5-1-2.9-2.3-3.3c0.2-0.2,0.2-0.6,0.4-0.8c1.5,2.7,4.8,1.3,7.1,2.7c0.4,0,0.8-0.2,1.2-0.2
			c0-0.4,0.2-0.8,0.2-1.2c-1.7-1.2-3.8-2.5-5-4c0.2-0.6,0.2-1.2,0.4-1.9c0.8-0.2,1.3-0.2,2.1-0.4c1.5,2.9,2.3,3.1,5,4.6
			c1.2-0.6,1.7-1.5,2.9-2.3c1.5,1.9-0.2,5.6,0.2,8.3c0.4,7.1,0.8,14.2,1.2,21.5c1.7,6.7,3.1,12.9,6.2,18.8c1,1.3,1.9,2.7,2.9,4
			c-1,3.5-1.7,7.1-2.7,10.6c-0.6,6.7-1.2,13.6-1.9,20.4c0.4,4.6,3.1,15,1.7,20c-1.2,4.2-3.5,8.1-5.2,11.7c0,1-0.2,1.7-0.2,2.7
			c-1.5,2.9-5.8,3.3-6.3,7.3c0.2,0.4,0.6,0.8,0.8,1c3.3,0.8,6-0.8,8.5-2.1c1.9,1.9,3.5,4.2,6.7,4.8c0.2-0.2,0.4-0.2,0.6-0.4
			c0.6-0.4,0.8-1,1-1.7c-1.3-2.7-2.7-5.2-3.8-7.9c0.8-2.1,1.3-4.2,2.1-6.3c0.6-2.9,1-6,1.5-8.8c1-3.8,3.3-6.2,2.3-10.8
			c5.8-7.9,6.9-19.8,5.4-30.8c-0.8-4.8,0.2-8.7-2.7-12.1c3.7-7.1,3.3-16.1,2.1-24c0-2.5-0.2-5-0.2-7.7c-0.8-2.9-3.3-7.7-2.3-10.8
			c0-0.2,0-0.2,0-0.4c1,0.8,1.9,1.7,2.9,2.5c-0.4,1.2-0.8,1.7-0.8,3.3c2.7,1,3.3,3.1,5.8,3.8c0,0.2,0.2,0.2,0.2,0.4
			c-1.2,0.8-1.7,1.2-1.5,2.9c0.6,0,1,0.2,1.5,0.2c0.4-0.8,0.6-1,0.6-2.1c1.3-0.4,3.3,0.8,4.8,1c0,1.5-0.2,2.9-0.2,4.4
			c0.8,0.6,0.8,0.8,1.9,1c0.8-1.2,0.6-2.7,0.6-3.8c0-0.2,0.2-0.2,0.2-0.4c2.7,0,5.2,0.2,7.9,0.2c0.4,0.4,0.4,0.6,0.4,1.7
			c0.6,0,1.2,0.2,1.7,0.2c0.2-0.6,0.6-1.2,0.8-1.9c0.8-0.2,1.5-0.2,2.3-0.4c0.2,1.3,0.2,2.7,0.4,3.8c0.8,0.2,1.3,0.2,2.1,0.4
			c0.6-1.3,0.2-2.1,0-3.8c1-0.6,1.3-0.6,2.5-0.8c1.2,2.7,8.3,11.7,12.1,11.9c5.8,13.3,16.9,21.7,25.6,32.3c2.1,2.5,5,4,6.7,6.7
			c2.9,4.4,4,11.3,5.8,16.9c0.8,0.2,1.3,0.2,2.1,0.4c1.2-1.9-0.4-5.8,1-8.1c1.2-1.7,4.4-1,5.6-2.9c0.2-0.8,0-1.2-0.2-1.9
			c-2.1-1.2-5.2-1.3-7.5-2.9c-1-0.6-3.1-7.5-3.8-8.8c-2.1-3.1-5.8-5-8.1-7.9c-0.8-2.3-1.7-4.6-2.5-7.1c-1.3-2.9-3.8-5.2-5.8-7.7
			c0-0.6-0.2-1.2-0.2-1.7c-4.2-1-8.3-12.3-13.6-11.2c-0.2-3.8-2.5-17.1-4.4-18.1c0.2-0.2,0.2-0.6,0.4-0.8c1.9,0.4,2.5,2.1,3.8,2.9
			c3.5,1.5,6.9,3.1,10.4,4.6c1.3,1.2,2.7,2.1,3.8,3.3c4.2,2.9,10.6,3.1,14.6,5.8c0.8,1.2,1.7,2.1,2.5,3.3c2.9,3.8,7.3,7.3,10.2,11.3
			c1.7,3.1,3.7,6,5.4,9c1.3,1.5,2.7,3.1,3.8,4.6c0.6,3.3,1,6.5,1.5,9.6c1.7,7.1,5.2,22.1,10.2,25.6c0.6,0,1,0,1.5,0
			c4.6-6.5-1-19.8-2.9-26c-4.2-13.5-10-30.8-20.4-38.5c-2.7-1.9-5.4-2.9-8.5-4.6c-2.5-1.3-4.2-3.1-8.3-3.1
			c-3.3-6.7-14.6-9.6-21.7-11.9c0.6-3.7,3.8-6.3,4-10.2c-0.6-0.4-0.8-0.4-1.5-0.2c-1.5,0.8-2.7,3.1-3.1,4.8
			c-0.2,0.2-0.4,0.2-0.6,0.4c-2.5-2.5,5-7.7,6.5-8.8c5.6-4.4,23.8-17.9,25.4-24.4c3.7-1.7,10.4,0,15-1.9c5.6-2.3,11-4.8,16.1-7.7
			c2.5-1.3,4.2-3.7,7.3-4.6c9-2.7,20.4-3.5,25.4-10C665.6,208.7,665.6,207.9,664.6,207.4z M222.4,222.9c-0.2,0-0.4,0-0.6,0
			c-0.6-1.3-1.2-2.7-1.7-3.8c-0.6,0-1.2-0.2-1.7-0.2c-0.6-0.6-0.6-0.8-0.6-2.1c0.2-0.2,0.6-0.6,0.8-0.8c1,0.8,2.3,1.9,3.3,2.9
			c-0.2,0.6-0.6,1.2-0.8,1.7c0.6,0.8,1,1.3,1.5,2.1C222.4,222.5,222.4,222.7,222.4,222.9z M227.1,227.7c-0.2-0.2-0.2-0.2-0.4-0.4
			c0.2-0.2,0.2-0.4,0.4-0.6l0.2,0.2C227.2,227.2,227.2,227.4,227.1,227.7z M226.5,220.8c-0.6,0-1.2,0-1.9,0c-1.2-0.8-1-1.3,0-2.3
			c-0.6-1-1-2.1-1.5-3.1c0.6-1,1.2-2.1,2.3-2.5c-0.4,1.5-0.2,2.5,0,4c1,0.8,1.2,0.8,2.7,0.8c0.2,2.1,1,3.5,1.7,5v0.2
			c-0.2,0-0.6,0.2-0.8,0.2C227.4,222.9,227.2,222.7,226.5,220.8z M230.5,228.5h-0.2c-0.8-0.6-1-1-1.5-2.1c0.4-0.6,0.6-0.6,1.2-1
			c0.4,0.6,0.4,1.9,0.6,2.7C230.5,228.1,230.5,228.3,230.5,228.5z M229.2,216.2c-1.9,0.2-1.2-3.1-2.3-4c0.8-1.2,2.1-1.3,3.1-2.3
			c0.2,0,0.2,0,0.4,0c-1,3.5-0.4,2.9,0.2,6.3C229.9,216.6,230.1,216.6,229.2,216.2z M231.9,222.2c0-0.2,0-0.4,0-0.6
			c0.4,0.4,0.2,0,0.4,0.6C232.2,222.2,232,222.2,231.9,222.2z M270.9,227.9c-0.2,0.2-0.2,0.2-0.4,0.4l-0.2-0.2
			c0-0.2,0.2-0.2,0.2-0.4c0.2,0,0.2,0,0.4,0C270.9,227.7,270.9,227.7,270.9,227.9z M231.7,297.7c-0.4,0-0.8,0-1,0
			c0.2-0.6,0.4-1,0.6-1.5c0.6,0.2,1.2,0.2,1.9,0.4c0,0.2,0.2,0.2,0.2,0.4C232.8,297.1,232.2,297.3,231.7,297.7z M241.9,296.8
			c0-0.2,0-0.4,0-0.6c0.4-0.4,0.8-0.8,1.2-1.2c1,0.2,1.7,0.2,2.7,0.4c0,0.2,0.2,0.2,0.2,0.4C244.9,296.8,243.4,297.1,241.9,296.8z
			 M297,397.9c0,0.2-0.2,0.4-0.2,0.6c-0.2,0.2-0.4,0.2-0.6,0.4c-1.7-4.6-2.3-5.2-7.3-6.3c-0.2-0.2-0.4-0.6-0.6-0.8
			c3.1-0.6,6.3,0.4,9-1c0.2,0,0.2,0,0.4,0c-0.8,0.8-1.7,1.3-2.5,2.1c0,0.8,0,1.3,0,2.1C296.1,395.8,296.5,396.7,297,397.9z
			 M302.8,387.3c-0.6-0.2-1.2-0.6-1.7-0.8c0-0.2-0.2-0.6-0.2-0.8c2.3-0.8,4.6-1.7,6.7-2.5c0.2,0,0.6,0,0.8,0
			C307.4,384.8,305.3,386.7,302.8,387.3z M310.9,379.2h-0.2c-0.2,0-0.6-0.2-0.8-0.2v-0.2c2.3-2.9,6.3-7.9,9-10.6l0.2,0.2
			c0.2,0,0.2,0.2,0.4,0.2C316.4,373.5,315.7,375.8,310.9,379.2z M320.9,349c-0.6,2.7-2.5,6.7-1.7,10.2c0.6,1.9,1,3.7,1.5,5.6
			c0,0.2-0.2,0.2-0.2,0.4c-3.8-0.8-3.5-8.8-2.5-13.6c1.3-6.5,1-13.8,3.1-19.4c2.1-5.6,7.1-11.3,7.1-18.5c0.6-0.4,1.2-0.8,1.7-1.2
			c0.4,0,0.8,0,1.2,0C326.4,323.5,323.2,336.6,320.9,349z M583.9,320.6c0,0.2-0.2,0.4-0.2,0.6c-0.2,0-0.2,0-0.4,0c0-0.2,0-0.2,0-0.4
			c-0.8-0.8-0.4-0.2-0.2-1.2C583.5,319.8,583.5,319.8,583.9,320.6z M582.7,319.4c-0.2,0-0.2,0-0.4,0s-11.3-11.9-11.9-14.6
			C575.4,306.2,580.6,315.4,582.7,319.4z M563.1,246c0.2,0.6,0.2,1.2,0.4,1.9v0.2c-0.2,0-0.2,0.2-0.4,0.2s-0.4,0-0.6,0
			c0-1,0-1.7,0-2.7C563.1,245.8,562.9,245.6,563.1,246z M562.5,242.2c-0.2,1-0.2,1-1.2,1.2c0.2-0.4,0.2-0.8,0.4-1.2
			C562,242.2,562.3,242.2,562.5,242.2z M562.3,232.2c-0.2,0.2-0.4,0.2-0.6,0.4c0-0.2,0.2-0.2,0.2-0.4
			C562.1,232.2,562.1,232.2,562.3,232.2z M559.8,229.5c1.5,0.2,1.5,1,1.9,2.3c-0.2,0.2-0.6,0.2-0.8,0.4c-0.4-0.6-0.8-1.2-1.2-1.7
			C559.6,229.7,559.6,230.2,559.8,229.5z M560.2,236.4c-0.4,1.3-0.8,2.7-1,4c-0.2,0.2-0.4,0.2-0.6,0.4c-0.4-0.2-0.8-0.4-1-0.6
			c0.4-1.2,1.3-3.1,2.1-3.8C559.8,236.4,560,236.4,560.2,236.4z M549.1,231.6c0-0.2-0.2-0.4-0.2-0.6c0.4-0.4,0.8-0.8,1-1.2
			c0.2,0,0.4,0,0.6,0C550.2,230.6,549.8,231,549.1,231.6z M549.1,268.7c-0.2,0-0.4,0.2-0.6,0.2c0.2-0.6,0.2-1,0.4-1.5
			C549.3,267.9,549.1,267.7,549.1,268.7z M551.2,238.5c0.4,0,0.8,0,1,0c-0.6,0.6-1.2,1-1.9,1.5H550
			C550.6,239.5,550.8,239.1,551.2,238.5z M558.7,259.7c1.5,1.2-0.6,2.7-1.5,3.3H557C557.5,261.8,558.1,260.8,558.7,259.7z
			 M557.1,245v-0.2c0.4-0.4,0.8-0.8,1.2-1c0.2,0,0.2,0,0.4,0C558.3,244.7,558.3,244.7,557.1,245z M556.6,253.7c-0.2,0-0.6,0-0.8,0
			v-0.2c0-0.2,0.2-0.2,0.2-0.4c0.4,0,0.8,0,1,0C557,253.3,556.8,253.5,556.6,253.7z M556.4,258.9c0,0.8-0.2,1.5-0.2,2.3
			c-0.2,0-0.6,0.2-0.8,0.2c-0.4-1-0.2-1.7,0.4-2.7C556,258.7,556.2,258.7,556.4,258.9z M555.8,250.6c-0.4,0-0.8,0.2-1.2,0.2
			c-0.2-0.8-0.4-1.5-0.6-2.3c0.2-0.2,0.2-0.4,0.4-0.6c0.4,0,0.8,0.2,1,0.2c0.6,0.4,0.8,1.3,0.8,2.1C556,250.2,556,250.4,555.8,250.6
			z M553.3,246.2c0.2-0.8,0.2-0.6,0.6-1c0.2,0,0.4,0,0.6,0c0,0.2,0,0.2,0,0.4c-0.2,0.2-0.4,0.4-0.6,0.6
			C553.7,246.2,553.5,246.2,553.3,246.2z M555.2,235.6c0.2-0.6,0.4-1.2,0.6-1.7C556.6,234.8,556.2,235.4,555.2,235.6z M552.5,234.1
			c-1.7-1.5,1-3.7,1.9-5c0.6,0.4,0.4,0.4,1.5,0.6C555.4,231.6,553.7,233.1,552.5,234.1z M554.1,240.2c1,0.2,1,0.4,1.5,1
			c-1,0.6-1.9,1.3-3.3,2.1c-0.4-0.6-0.6-0.6-0.6-1.5C552.5,241.4,553.3,240.8,554.1,240.2z M553.9,263.5c0.6,0.2,1,0.2,1.5,0.4
			c-0.2,1.2-0.6,1.7-1.9,1.9c-0.2-0.2-0.2-0.6-0.4-0.8c-0.2,0-0.2,0-0.4,0C553.1,264.5,553.5,264.1,553.9,263.5z M554.5,272.5
			c0.2-0.2,0.4-0.6,0.6-0.8c0.2,0,0.6,0,0.8,0c0.4,0.8,0.2,0.8,1,1c-0.6,0.8-1.2,1.3-1.7,2.1h-0.2
			C554.8,274.1,554.1,273.1,554.5,272.5z M556.6,268.5c-0.2,0-0.4,0-0.6,0c0-0.2,0-0.4,0-0.6c0.6-0.6,1.2-1.2,1.7-1.7
			c0.2,0,0.6,0,0.8,0c0.2,0.2,0.2,0.4,0.4,0.6C558.1,267.3,557.3,267.9,556.6,268.5z M558.9,270c0.2,0.6,0,0.6-0.6,0.8
			C558.5,270.6,558.7,270.2,558.9,270z M559.3,279.8h0.2c-0.2,0.4-0.6,0.8-0.8,1.2l-0.2-0.2C558.7,280.6,559.1,280.2,559.3,279.8z
			 M558.9,234.1c-0.4,0.2-0.8,0.6-1,0.8h-0.2c0.2-0.4,0.4-0.8,0.6-1c0.2,0,0.4,0,0.6,0C558.9,233.9,558.9,233.9,558.9,234.1z
			 M556.8,225.6c0.2,0,0.2,0,0.4,0c0.4,0.6,0.8,1.2,1.2,1.7c-0.4,0.4-0.8,0.8-1,1.2c-0.6-0.2-1.2-0.2-1.9-0.4
			C555.8,226.8,556.2,226.4,556.8,225.6z M554.1,223.1c0.4,0.2,0.8,0.6,1.2,0.8c-1.2,1.3-2.1,2.7-3.3,3.8h-0.2
			c-0.2-0.2-0.2-0.4-0.4-0.6C552.3,225.8,553.3,224.5,554.1,223.1z M551.4,221.8c0.6,0.6-1,3.1-2.1,3.3
			C549.6,223.5,550.6,222.9,551.4,221.8z M547.5,214.9c0.6,0.6,1.2,1,1.9,1.5c-0.2,0.4-0.2,0.8-0.4,1.2c-0.2,0-0.4,0.2-0.6,0.2
			c-0.4-0.8-0.8-1.5-1.2-2.3C547.1,215.2,547.3,215,547.5,214.9z M543.5,214.1c1,1.5,0.8,4.6-0.2,6.2c-0.2,0.2-0.4,0.4-0.6,0.6
			c-0.2-0.2-0.2-0.2-0.4-0.4C542.9,218.5,542.9,215.6,543.5,214.1z M542.5,222.9v0.2c-1.2,1.2-1.9,0.4-3.3,0.4
			c0-0.2,0.2-0.4,0.2-0.6c0.6,0,1-0.2,1.5-0.2c0.6,0,1,0,1.5,0C542.3,222.7,542.5,222.7,542.5,222.9z M540,268.1
			c-0.4,0-0.8-0.2-1.2-0.2c-0.4-0.8-0.4-0.6-0.2-1.5c0.4,0.2,0.8,0.2,1.2,0.4C540.2,267.5,540,267.3,540,268.1z M539.7,227.4
			c0.2-0.2,0.2-0.6,0.4-0.8C540.2,227.2,540,227,539.7,227.4z M540,278.5c0.2,0,0.2,0,0.4,0c0,0.4,0,0.8,0,1.2
			c-0.2,0-0.2,0.2-0.4,0.2h-0.2C539.8,279.5,540,278.9,540,278.5z M541.2,216.8c-0.2,0.2-0.6,0.4-0.8,0.6c-0.2,0-0.4-0.2-0.6-0.2
			c0.2-0.8,0.4-1.7,0.6-2.5c0.2,0,0.6,0,0.8,0C541.2,215.2,541.2,216,541.2,216.8z M539.8,209.7c0.8,0.4,1.5,0.8,2.3,1
			c-0.2,0.8-0.2,1.3-0.4,2.1c-0.2,0-0.2,0.2-0.4,0.2c-1.2-0.6-1.3-0.8-1.9-2.1C539.7,210.4,539.7,210,539.8,209.7z M539.7,218.7
			c0.6,0,1,0.2,1.5,0.2v0.2c-0.4,1-0.6,1.2-1.7,1.5h-0.2c0-0.4-0.2-0.8-0.2-1C539.3,219.3,539.5,219.1,539.7,218.7z M539.1,231.8
			c-0.2,0.8-0.2,0.6-0.6,1c-0.8-0.4-1.7-0.8-2.5-1.2c0.4-1,0.4-0.8,1-1.2C538.1,230.8,537.7,231.4,539.1,231.8z M537.2,227.7
			c0,0.2,0,0.2,0,0.4c-0.4,0-0.8,0-1.2,0c-0.2-1,0-1.9,0.4-2.7C537,225.6,538.1,226.8,537.2,227.7z M535.6,213.1
			c0.4,0,0.8,0.2,1,0.2c0,0.8,0,1.5,0,2.3c-0.2,0.2-0.2,0.4-0.4,0.6c-0.2,0-0.6-0.2-0.8-0.2C535.2,215,535,214.1,535.6,213.1z
			 M535.8,218.3c1,0.4,1.2,1.2,1.2,2.5c-0.2,0-0.2,0-0.4,0c0,0.2,0,0.2,0,0.4c-0.8-0.6-0.8-0.8-2.1-1
			C534.8,219.1,535,219.1,535.8,218.3z M534.1,239.1c0.2-0.2,0.4-0.6,0.6-0.8c2.5,1,4.6,4.6,5.4,7.5c-0.2,1.2-0.4,2.3-0.6,3.5
			c-0.2,0.2-0.6,0.4-0.8,0.6C536.8,248.1,532.2,242.7,534.1,239.1z M535.2,267.5c0.6,1.3-0.4,4-1,5c0,0.2-0.2,0.2-0.2,0.4
			c-0.2-1-0.4-1.9-0.6-2.9C534.1,269.1,534.7,268.3,535.2,267.5z M532.3,226.4c0.6,0.6,0.4,1.3,0.4,2.3c-0.2,0-0.2,0.2-0.4,0.2
			C532.3,228.1,532.3,227.2,532.3,226.4z M530.6,219.7c0.4,0,0.8,0,1,0c0.2,0.8,0.2,1.5,0.4,2.3v0.2c-0.6,0.2-1.2,0.6-1.7,0.8
			c-0.2-1-0.4-1.7-0.6-2.7C530,220,530.2,219.9,530.6,219.7z M529.5,217.2c-0.2,0.2-0.2,0.2-0.4,0.4c-1.2-0.2-1.3-1.3-1.7-2.3V215
			c0.4-0.2,0.8-0.4,1-0.6C529.5,215,529.7,215.6,529.5,217.2z M523.9,238.5c0.6-3.1,2.1-4.4,4.6-5.8
			C528.7,234.3,525.8,238.1,523.9,238.5z M526,242.2c0,0.4,0,0.8,0,1c-0.6,0.2-1.2,0.4-1.7,0.6v-0.2c0.4-0.6,0.8-1,1-1.5
			C525.6,242.2,525.8,242.2,526,242.2z M522.7,228.1c-0.2,0-0.2,0-0.4,0c-0.4-0.6-0.8-1-1.2-1.5c0.2-1,0.2-0.8,0.6-1.2
			c0.8,0.4,1.3,1.2,1.7,1.9C523.1,227.5,522.9,227.7,522.7,228.1z M522.9,244.5c-0.8,0.4-1.5,0.8-2.3,1.2c0.2-1.3,0.4-1.5,1-2.3
			c0.6,0.2,0.2,0,0.6,0.4C522.5,243.9,522.7,244.1,522.9,244.5z M522.5,219.5c0.2-1.5,0.8-2.1,1.5-3.1c0.2,0,0.6,0,0.8,0
			c0.6,1.9,1,3.1-1,4.4C523.3,220.2,522.9,219.9,522.5,219.5z M526,224.1c0.2,0,0.6,0,0.8,0v0.2c-0.2,0.2-0.2,0.2-0.4,0.4
			c0,0.2-0.2,0.2-0.2,0.4C526.2,224.9,526.2,224.5,526,224.1z M528.3,211.6c-0.2,0.6-0.2,0.6-1.2,0.8v-0.2
			C527.5,212,527.9,211.8,528.3,211.6z M527.9,208.9c-0.2,0.2-0.2,0.4-0.4,0.6c-0.4,0-0.8-0.2-1-0.2s-0.2,0-0.4,0
			c0.2-0.2,0.4-0.4,0.6-0.6c0.4,0,0.8,0,1.2,0C527.9,208.7,527.9,208.7,527.9,208.9z M523.7,204.3c0.6-1,1.9-1,2.9-1.5
			c0.6,0.6,0.6,1.3,1,2.5c-0.2,0.4-0.2,0.8-0.4,1c-1,0.2-2.1,0.6-3.1,0.8C523.7,206.6,523.3,205.2,523.7,204.3z M523.3,213.7
			c-0.2,0.2-0.6,0.6-0.8,0.8c-0.2,0-0.6,0-0.8,0c0-1.3,0-1.7,0.2-2.5C522.5,212.4,522.9,212.9,523.3,213.7z M521.6,205.6
			c0-0.2,0-0.6,0-0.8c0.2,0,0.4,0,0.6,0c0,0.6,0,1.2,0,1.7c0,0.2,0,0.2,0,0.4C521.4,206.2,521.4,206.4,521.6,205.6z M521.2,214.9
			h0.2c0,0.4-0.2,0.8-0.2,1c-0.2,0-0.2,0.2-0.4,0.2C521,215.6,521.2,215.2,521.2,214.9z M519.7,219.3c0.8,0.4,0.8,0.6,1.2,1.2
			c-0.6,0.2-1.2,0.6-1.7,0.8C519.3,220.6,519.5,219.9,519.7,219.3z M519.3,233.9c0.4,0,0.8,0.2,1,0.2s0.2,0,0.4,0v0.2
			c-0.6,0.6-1.2,1.2-1.7,1.9c-0.4,0-0.8,0-1,0C518.3,235,518.7,234.7,519.3,233.9z M520.4,239.1c-0.4,0.2-0.8,0.6-1,0.8
			c0.2-0.4,0.4-0.8,0.6-1C520.2,238.9,520.2,238.9,520.4,239.1z M518.7,217c-0.4,0.2-0.8,0.4-1,0.6c-0.2-0.2-0.4-0.6-0.6-0.8v-0.2
			c0.2-0.4,0.6-0.8,0.8-1c0.2,0.4,0.6,0.8,0.8,1.2C518.7,216.8,518.7,216.8,518.7,217z M517.4,228.7c0-0.2,0.2-0.2,0.2-0.4
			C517.5,228.5,517.7,228.5,517.4,228.7z M517.5,245c0.2,0,0.2,0,0.4,0c0,0.6,0,1.2,0,1.7c-0.2,0-0.2,0.2-0.4,0.2h-0.2
			C517.4,246.2,517.5,245.6,517.5,245z M516.6,207.2c0.2,0,0.4,0,0.6,0c0.2,0.8,0.6,1.7,0.8,2.5c-0.4,0.2-0.8,0.4-1,0.6
			c-0.6-0.6-1-1.2-1.5-1.7C515.8,207.7,516,207.7,516.6,207.2z M506.8,239.7c0.4-1.7,1.3-1.9,2.3-2.9c0.6,0.6,0.4,1.7,0,2.5
			c0,0.2,0,0.2,0,0.4C508.3,239.7,507.5,239.7,506.8,239.7z M508.7,255c0,0.4-0.2,0.8-0.2,1c-0.2-0.2-0.2-0.2-0.4-0.4
			c0.2-0.2,0.2-0.4,0.4-0.6H508.7z M507.7,245.6v0.2c0,0.4-0.2,0.8-0.2,1.2c-0.4,0.2-0.8,0.2-1,0.4c-0.2-0.4-0.4-0.8-0.6-1
			c-0.6,0.2-1,0.4-1.5,0.6c0-0.6,0-1,0-1.5C505.4,245.6,506.6,245.6,507.7,245.6z M508.9,250.4c0.6-0.6,0.6-0.8,1.7-1
			c-0.2,0.8-0.2,1.5-0.4,2.3c-0.4,0-0.8,0.2-1.2,0.2C508.9,251.4,508.9,250.8,508.9,250.4z M509.7,258.7c0.4,0.8,0.8,1.5,1,2.3
			c-0.2,0.4-0.4,0.8-0.6,1c-0.2,0-0.4,0.2-0.6,0.2C509.3,261,509.3,259.5,509.7,258.7z M509.9,247.3c0.2-0.6,0.2-1.2,0.4-1.7
			c0.4-0.2,0.8-0.4,1.2-0.6c0.2,0.4,0.6,0.6,0,1.2C511.2,247,510.8,247,509.9,247.3z M512.2,242c0.2,0,0.2,0.2,0.4,0.2
			c-0.2,0.4-0.6,0.8-0.8,1c-0.2,0-0.6,0-0.8,0c0-0.2,0.2-0.6,0.2-0.8C511.6,242.2,511.8,242,512.2,242z M511.6,239.8
			c0.2-1,0.6-1.9,0.8-2.9c0.6,0.2,1.2,0.6,1.9,0.8c0,0.8-0.2,1.3-0.2,2.1C512.9,240.4,513.1,240,511.6,239.8z M511.6,255.2
			c1-0.2,1.9-0.4,2.9-0.6c-0.6,0.8-1.2,1.7-1.7,2.5c-0.2,0-0.6,0.2-0.8,0.2s-0.2-0.2-0.4-0.2C511.6,256.6,511.6,256,511.6,255.2z
			 M513.7,233.9c-0.4,0-0.8,0-1.2,0c0.2-1.3,0.8-1.9,1.7-2.7c0.6,0.6,1.2,1.2,1.7,1.7C515,233.1,514.3,233.5,513.7,233.9z
			 M514.9,225.4c-0.6-0.6-1.2-1.2-1.9-1.9c0.4-0.4,0.8-0.8,1.2-1c0.6,0.2,1.2,0.6,1.7,0.8c0,0.6,0,1,0,1.5
			C515.6,225,515.2,225.2,514.9,225.4z M513.7,217.7c0-0.4,0.2-0.8,0.2-1.2c0.2,0,0.4,0.2,0.6,0.2c0,0.4,0,0.8,0,1.2
			c-0.2,0-0.2,0.2-0.4,0.2C513.9,217.9,513.7,217.9,513.7,217.7z M513.3,209.5c0.4,0.4,0.8,0.8,1.2,1.2c0.2,0.2,0.4,0.4,0.6,0.6
			c-0.6,0.2-1,0.6-1.5,0.8c-0.2-0.6-0.6-1.2-0.8-1.7C512.9,210.2,513.1,209.9,513.3,209.5z M511.4,212.7c0.2,0,0.4,0,0.6,0
			c0,0.4-0.2,0.8-0.2,1c-0.2,0.2-0.2,0.4-0.4,0.6h-0.2C511,213.5,511,213.5,511.4,212.7z M511.6,219.3c0.2,0.2,0.6,0.2,0.8,0.4
			c0.2,0.2,0.2,0.4,0.4,0.6c-0.8,0.6-1.5,1-2.3,1.5h-0.2c0-0.2-0.2-0.6-0.2-0.8C510.6,220.2,511,219.7,511.6,219.3z M506.4,228.5
			c0.4-0.2,0.8-0.2,1-0.4c1.2,0,1.7,0.2,2.5,0.4c0,0.2,0.2,0.2,0.2,0.4c-0.2,0.2-0.2,0.6-0.4,0.8c-1.2,0.8-2.1,1-3.3-0.2
			C506.4,229.1,506.4,228.9,506.4,228.5z M504.3,221c0.2-0.2,0.4-0.6,0.6-0.8c0.6,0.2,0.2,0,0.6,0.4c0.2,0.2,0.2,0.6,0.4,0.8
			c-0.2,0.2-0.2,0.4-0.4,0.6c-0.2,0-0.4,0.2-0.6,0.2c-0.2,0-0.4-0.2-0.6-0.2C504.3,221.8,504.3,221.4,504.3,221z M504.5,231.8
			c0.4,0.2,0.8,0.6,1,0.8c-0.6,0.6-1,0.6-2.1,0.6C503.9,232.5,504.1,232.4,504.5,231.8z M503.7,235.6c0.6,0,1.2,0.2,1.7,0.2
			c0,0.2,0.2,0.2,0.2,0.4c-0.6,0.6-1.2,1.2-1.7,1.7c-1-0.2-1.9-0.6-2.9-0.8c0-0.2,0-0.6,0-0.8C502,236.2,502.9,235.8,503.7,235.6z
			 M498.1,217.7c1-0.6,1.9-1,2.9-1.5c0.2,1.2,0.4,2.1,0.6,3.3c-1.2,1.7-1.5,2.3-3.5,3.1c0.6-0.6,1.2-1.2,1.9-1.9
			c0.6-1.9-1.3-1.2-2.1-1C497.9,219.1,498.1,218.5,498.1,217.7z M502,226.6c-0.6,0.2-1.2,0.6-1.9,0.8c0.2-0.6,0.6-1.2,0.8-1.7
			c0.2,0,0.6,0,0.8,0C501.8,226,501.8,226.4,502,226.6z M498.3,230.8c1-0.8,2.3-1,3.5-1.5c0.2,0,0.4,0,0.6,0v0.2
			c-1,1.5-1.9,2.9-2.9,4.4c-0.8,0-0.6,0-1.2-0.2c-0.2,0-0.4,0.2-0.6,0.2C498.1,232.9,498.5,232.4,498.3,230.8z M499.3,238.5
			c0.6,0.2,1.2,0.2,1.9,0.4c0.2,0,0.2,0.2,0.4,0.2c-0.4,1.5,0,2.5-1.2,3.5c-1.3,0.2-2.7,0.2-3.7-0.2c0-0.2-0.2-0.6-0.2-0.8
			C497.2,240.2,498.1,239.7,499.3,238.5z M501.6,247.5c-0.4,0-0.8,0.2-1,0.2c0-0.2,0-0.2,0-0.4c0.2-0.2,0.6-0.2,0.8-0.4
			C501.6,247,501.6,247.3,501.6,247.5z M495,218.3c0.2,0,0.4,0,0.6,0c-0.2,1-0.2,1.9-0.4,2.9c-0.8,0.4-1.3,0.8-2.1,1
			c-0.4,0-0.8-0.2-1.2-0.2c-0.2-0.6-0.2-1.2-0.4-1.9C492.9,219.5,493.9,219.7,495,218.3z M494.9,226.4c0.2,0,0.6,0.2,0.8,0.2v0.2
			c-1.9,1.2-3.7,2.3-6.3,2.7h-0.2c0-0.2-0.2-0.2-0.2-0.4C490.8,228.1,492.9,227.4,494.9,226.4z M490.8,237.2c0-0.2,0.2-0.4,0.2-0.6
			c1.2,0,2.5,0.2,3.7,0.2C493.5,238.3,492,238.5,490.8,237.2z M492.7,244.8v0.2c-0.4,0.2-0.8,0.2-1,0.4c0-0.2,0.2-0.6,0.2-0.8
			C492.2,244.7,492.6,244.7,492.7,244.8z M491.6,232.7c0.2-0.2,0.2-0.6,0.4-0.8c1.2-0.4,2.1-0.8,3.3-1c0,1,0.2,2.1,0.2,3.1
			C493.9,234.1,492.7,233.7,491.6,232.7z M483.1,247.9c0.6-3.3,3.3-3.5,5.4-5.2C489.1,243.1,484.9,247,483.1,247.9z M487.6,250.4
			c-0.2,0.2-0.4,0.2-0.6,0.4c0-0.2,0.2-0.4,0.2-0.6C487.4,250.2,487.6,250.2,487.6,250.4z M483.9,235.6c-0.4-0.6-0.8-1-1-1.5
			c-0.4-2.1,0.4-3.5,1.5-4.8c0.2,0,0.2,0,0.4,0s0.2,0.2,0.4,0.2c-0.2,1.5-0.6,3.1-0.8,4.6C484.5,234.8,484.3,235.2,483.9,235.6z
			 M486.8,225.4c-0.4,0-0.8,0.2-1,0.2c0.2-0.8,0.6-1.5,0.8-2.3c0.4,0,0.8,0.2,1,0.2C487.4,224.1,487.2,224.9,486.8,225.4z
			 M488.7,234.5c0.2,0,0.4,0,0.6,0c-0.2,0.6-0.6,1.2-0.8,1.7c-0.4,0-0.8,0-1.2,0C487.7,235.6,488.1,235,488.7,234.5z M488.5,246.2
			c0.2,0,0.4,0,0.6,0c-0.4,0.6-0.4,0.6-1.2,0.8C488.1,246.8,488.3,246.6,488.5,246.2z M487.4,240.4c0-1.2,0-1.2,0.2-1.9
			c0.6,0,1,0.2,1.5,0.2c0,0.2,0,0.2,0,0.4c0.2,0,0.2,0.2,0.4,0.2C488.9,240,488.5,240.2,487.4,240.4z M488.1,220.4
			c0.2,0,0.6,0,0.8,0c0,0.2-0.2,0.4-0.2,0.6c-0.2,0-0.2,0.2-0.4,0.2h-0.2C488.1,221,488.1,220.6,488.1,220.4z M485.4,201.6
			c0.2,0.2,0.4,0.6,0.6,0.8c0,0.2-0.2,0.4-0.2,0.6s-0.2,0.2-0.2,0.4h-0.2c-0.2-0.2-0.2-0.2-0.4-0.4
			C485.1,202.6,485.2,202.2,485.4,201.6z M486.2,204.5c-0.4-0.4-0.2,0-0.4-0.6h0.2C486,204.1,486.2,204.3,486.2,204.5z M487,210.2
			c0.2,0,0.4,0,0.6,0c0,1.2,0,2.1,0,3.3c-0.4,1.2-1.2,1.3-1.9,2.3c-0.2,0-0.6,0-0.8,0C485.1,213.3,486,212,487,210.2z M484.7,221.2
			v0.2c-0.2,0.8-0.6,1.7-0.8,2.5c-1,0.4-3.3,1.2-4.4,1c-0.6,0.2-1,0.2-1.5,0.4c0.6-2.1,3.8-3.3,5.8-4
			C484.3,221.2,484.5,221.2,484.7,221.2z M482,227c0,0.2-0.2,0.2-0.2,0.4c-0.2,0-0.2,0.2-0.4,0.2c0-0.2-0.2-0.6-0.2-0.8
			c0.2,0,0.2-0.2,0.4-0.2C481.8,226.8,482,227,482,227z M472.7,215.2c0.6-1,1.2-1.7,1.7-2.7c1.3,1,2.1,1.7,4.6,1.2
			c-1,1-2.1,1.7-3.5,2.3c-0.4-0.6-0.8-1.2-1-1.9C473.9,214.7,473.3,214.9,472.7,215.2z M473.1,227.9c-0.6,0-1.2,0-1.7,0
			c-0.6-0.4-0.4,0-0.6-0.8c0.6-0.4,1-0.8,1.5-1C472.6,226.6,472.9,227.2,473.1,227.9z M477.2,211c0.6,0.2,0.8,0,1.5-0.4h0.2
			c-0.4,1.2-0.6,1-1.5,1.5c-0.6-0.2-1.2-0.4-1.7-0.6c0-0.4,0.2-0.8,0.2-1C476.2,210.4,476.8,210.6,477.2,211z M476.8,205.6
			c0.2,0,0.6,0,0.8,0c0,0.6,0,1,0,1.5c-0.2,0-0.2,0.2-0.4,0.2c0-0.2-0.2-0.2-0.2-0.4C476.4,206.2,476.6,206.4,476.8,205.6z
			 M480.6,216.6c0.2,0,0.4,0,0.6,0c-0.2,2.7-2.7,5.8-5.2,6.3c-0.2-0.8-0.2-1.3-0.4-2.1C477.4,219.5,478.9,217.9,480.6,216.6z
			 M482.7,204.5c0.2,0,0.4,0,0.6,0c0.2,0.6,0.4,1.2,0.6,1.9c-0.8,1.5-1.2,2.9-2.5,3.7C480.1,207.7,481.4,206.2,482.7,204.5z
			 M480.8,202.9c0-0.2,0.2-0.6,0.2-0.8c0.2,0,0.2,0.2,0.4,0.2C481.2,202.6,481,202.7,480.8,202.9z M481,192.6
			c0.2,0.2,0.6,0.2,0.8,0.4c0,0.6,0,1,0,1.5c-1,1.3-2.5,2.9-3.8,3.7c-0.2,0.2-0.2,0.2-0.4,0.4c-0.6-1.2-0.8-2.5-2.1-3.1
			c0-0.2-0.2-0.2-0.2-0.4C477.2,194.3,479.1,193.3,481,192.6z M472.6,198.9c0.2-0.4,0.6-0.8,0.8-1c0.8,0.8,1.3,1.5,2.1,2.3
			c0,0.2,0,0.6,0,0.8c-0.8,1-1.5,1.9-2.9,2.3C472.6,201.8,472.6,200.4,472.6,198.9z M471.6,188.7c0,0.6,0,1,0,1.5
			c-0.2,0-0.2,0.2-0.4,0.2C471.2,189.7,471.4,189.1,471.6,188.7z M471.4,192.2c0.6,0.4,0.6,0.8,0.6,1.9c-0.4,0.2-0.8,0.6-1.2,0.8
			h-0.2C470.4,193.3,470.8,192.9,471.4,192.2z M472.6,206.6c0.4,1.5-1.7,2.7-2.5,4c-1,0.4-0.8,0.2-1.7-0.4c0-0.2,0.2-0.4,0.2-0.6
			C469.9,208.7,471.2,207.6,472.6,206.6z M467.2,222.9c0-0.2,0.2-0.6,0.2-0.8c1.2,0.4,1.5,0.4,2.9,0.2c-0.4,0.8-0.8,1.3-1.2,2.1
			c-0.2,0-0.4,0.2-0.6,0.2C468.3,223.3,467.9,222.9,467.2,222.9z M467.7,225.6c-0.2,0.2-0.4,0.4-0.6,0.6c0-0.2,0.2-0.4,0.2-0.6
			C467.6,225.6,467.7,225.6,467.7,225.6z M469.9,220.2c-0.4,0-0.8,0.2-1.2,0.2v-0.2c0.6-0.8,1-1.3,1.5-2.1c0.2,0,0.4,0,0.6,0
			c0,0.8,0,1.3,0,2.1C470.4,220.2,470.2,220.2,469.9,220.2z M467.6,202c0.4,1.2,0.8,1.5,0.8,3.3c0,0.2-0.2,0.2-0.2,0.4
			c-0.2,0.2-0.6,0.4-0.8,0.6c-0.6-1.2-1.2-3.3-1-4.4C466.8,202,467.2,202,467.6,202z M466.8,194.1h0.2c-0.2,0.8-0.2,0.6-0.6,1h-0.2
			C466.4,194.3,466.4,194.5,466.8,194.1z M467.2,213.9v0.2c-1.3,1.2-2.5,2.5-4.4,2.9c-0.6-0.4-0.6-0.4-0.8-1c1.2-1,2.3-2.1,3.5-3.1
			C466,213.1,466.6,213.5,467.2,213.9z M462.9,218.9c1.2,0,2.1,0,3.3,0v0.2c-0.2,0.2-0.4,0.6-0.6,0.8
			C464.3,219.9,463.5,219.7,462.9,218.9z M464.5,222.2c-0.2,1-0.6,1.9-0.8,2.9h-0.2c-0.8-0.8-1.2-2.1-0.8-3.3c0.6,0,1.2,0,1.7,0
			C464.3,221.8,464.5,222,464.5,222.2z M461.8,212.5c-0.2,0-0.4-0.2-0.6-0.2c0.2-0.8,0.6-1.5,0.8-2.3c0.8,0.2,0.8,0.4,1.2,0.8
			c0,0.2,0,0.2,0,0.4c-0.2,0.4-0.6,0.8-0.8,1C462.2,212.4,462,212.5,461.8,212.5z M463.3,195.4c0.4,0.4,0.8,0.8,1,1s0.6,0.6,0.8,0.8
			c-0.2,0.2-0.6,0.4-0.8,0.6s-0.6,0.2-0.8,0.4C462.9,197.6,463.1,196.6,463.3,195.4z M463.5,207.6v0.2c-0.2,0-0.2,0.2-0.4,0.2
			c-0.6-0.6-1.2-1.2-1.9-1.7c0.4-1,0.8-1.9,1-2.9C462.8,204.9,463.1,206.2,463.5,207.6z M460.1,183.1c0.6,0.6,0.8,1.9,0.8,3.1
			c-0.2,0.4-0.2,0.8-0.4,1c-0.2,0-0.2,0.2-0.4,0.2C460.1,186,460.1,184.5,460.1,183.1z M461,189.9c0.2,0,0.6,0.2,0.8,0.2
			c0.2,2.7-0.4,4.4-2.7,4.8C459.5,192.4,460.1,191.4,461,189.9z M458.9,198.9c0.6-0.6,1-1.2,1.5-1.7h0.2c0.4,1.2,0,1.9-0.4,2.9
			c-0.2,0-0.4,0.2-0.6,0.2c-0.2,0-0.4,0-0.6,0C458.9,199.9,458.9,199.5,458.9,198.9z M458.9,203.3c0.2,0,0.2,0,0.4,0
			c-0.2,0.8-0.2,0.6-0.6,1c0-0.2-0.2-0.2-0.2-0.4C458.7,203.7,458.7,203.5,458.9,203.3z M459.3,208.7c0.2,0,0.2,0,0.4,0
			c-0.2,0.6-0.2,1-0.4,1.5c-0.2,0.2-0.4,0.2-0.6,0.4h-0.2C458.7,209.9,459.1,209.3,459.3,208.7z M458.3,223.3
			c0.2-0.4,0.6-0.8,0.8-1.2c0.8,0.6,0.4,0.6,0.4,1.5c0,0.2,0,0.2,0,0.4c-0.4,0-0.8,0-1.2,0C458.3,223.7,458.3,223.5,458.3,223.3z
			 M456,198.5c0.2,0.2,0.2,0.2,0.4,0.4c0.2,0.4,0.4,1.3,0.4,2.3v0.2c-0.2,0-0.2,0.2-0.4,0.2C456,200.6,456,200.1,456,198.5z
			 M456,204.9c1,0.4,1.2,0.8,1.9,1.2c-0.2,0.8-0.6,1.3-0.8,2.1C455.8,207.7,455.8,206.2,456,204.9z M470.2,238.9
			c-1.3,1.3-4.2-0.4-6.3-0.2c-1.9,0.2-19.6-10.4-21.1-12.1C453.7,227.4,459.5,238.3,470.2,238.9z M462,252c-0.8-0.6-1-1-1.5-1.9
			v-0.2c1.7,0,2.7,0.2,3.7-0.4c0.6,0.8,0.2,1.2-0.4,1.7C463.5,251.6,462.8,251.8,462,252z M463.7,270.8c-0.4,0.8,0,0.6-0.8,0.8v-0.2
			c0-0.2,0.2-0.4,0.2-0.6C463.3,270.8,463.5,270.8,463.7,270.8z M461.6,255c-0.2,0.6,0,0.2-0.4,0.6c0-0.2,0.2-0.4,0.2-0.6H461.6z
			 M392,189.7c-2.5,0.4-3.3,1.3-5.2,2.7c-0.4-1-0.4-1.2-1.5-1.5c0-0.2-0.2-0.2-0.2-0.4c0.8-0.6,1.2-1,1.2-2.3
			c-0.2-0.2-0.4-0.4-0.6-0.6c-0.4-0.4,0-0.2-0.6-0.4c-1,0.6-1.9,1.2-2.9,1.9c-0.6-0.8,0-2.1-0.2-3.3c-0.4-0.2-0.8-0.2-1.2-0.4
			c-1,0.4-1.7,0.8-2.7,1.2c0.8-0.8,1.7-1.7,2.5-2.5c6.5,1,11.2,6.5,17.1,7.9c0.2,0.2,0.2,0.4,0.4,0.6c-4.4,1.3-7.3,3.3-10.4,5.8
			c1-3.1,1.5-5,4.4-6.7C392.2,190.8,392.2,190.2,392,189.7z M386.8,200.1c0,0.8-0.2,1.5-0.2,2.3h-0.2h-0.2
			C386.4,201.6,386.6,200.8,386.8,200.1z M385.3,197.2h-0.2c0-1.3,0.2-1.9,0.6-2.7c0.2,0,0.2,0,0.4,0c0.2,0.2,0.4,0.6,0.6,0.8
			C386.2,195.8,385.7,196.4,385.3,197.2z M382.8,192.9c0-0.2,0.2-0.6,0.2-0.8c0.6-0.4,1-0.8,1.5-1.2
			C384.5,191.6,383.9,192.7,382.8,192.9z M383.4,203.5c-0.2,0.2-0.6,0.4-0.8,0.6c-0.2-0.2-0.2-0.2-0.4-0.4c0-1.7,0.4-3.5,1-4.6
			C384.5,199.9,383.5,201.6,383.4,203.5z M378.7,195.1c0.4-0.2,0.8-0.4,1.2-0.6c0.4,1.9-1.7,4.4-2.5,6.2c-0.2,0-0.4,0.2-0.6,0.2
			c0-0.2,0-0.2,0-0.4C376,199.1,378,196.4,378.7,195.1z M377.2,183.3c0-0.2,0-0.6,0-0.8c0.2,0,0.4,0,0.6,0c0,0.2,0.2,0.2,0.2,0.4
			c-0.2,0.2-0.4,0.2-0.6,0.4C377.4,183.3,377.2,183.3,377.2,183.3z M391.2,198.3h0.2c-0.2,1.2-0.8,1.9-1.7,2.5
			C390.1,199.7,390.7,199.1,391.2,198.3z M392.8,201c1.2-0.6,1,0,3.1,0.2c1.7-1.5,3.5-3.3,6.2-3.7c0.2-0.2,0.2-0.4,0.4-0.6
			c-2.1-1.7-5.8,0.2-7.5,1.5c-0.4-0.2-0.8-0.6-1.2-0.8c0.6-1,4.6-2.3,6.2-4.4c1.7,1.2,3.7,2.3,6.2,2.9c0,0.2,0,0.6,0,0.8
			c-0.8,0.2-1.7,0.2-2.5,0.4c0,0.8-0.2,1.5-0.2,2.3c-0.4,0.4-8.7,2.7-9.4,2.7l-0.2,0.2c0,0.8,0.2,1.3,0.2,2.1c0.4,0,0.8,0.2,1,0.2
			c1,0.2,2.9-1.2,4.4-1.5c0.4,1,1,1.3,0.8,2.3c-1.7,0.2-2.5,0-4,0.8c-0.2,0.6-0.2,1.2-0.4,1.7c0.8,0.4,0.8,0.2,1.5,0.2
			c0.4,0.4,0.2,0.2,0.4,1c-0.2,0-0.2,0.2-0.4,0.2c-2.3-0.6-4.6-1.2-6.7-1.7C390.5,204.5,391.8,203.3,392.8,201z M403.9,204.3
			c0,0.2-0.2,0.2-0.2,0.4c0-0.2-0.2-0.2-0.2-0.4C403.5,204.3,403.7,204.3,403.9,204.3z M408.3,214.7c2.9,1.7,7.1,1.3,10.4,2.7
			c5.2,2.1,11.7,5,18.1,5.4c-1.5,4-7.1,1.9-11.2,2.1c-11,0.4-21.7-1.9-33.1-1.2c-18.8,1.2-32.1-7.9-47.9-11
			c-6-1.2-12.5,1.9-17.3,3.5c-4.6,1.5-15.2,2.3-20.2,1c-9-2.1-19-4.8-26.9-8.3c-2.3-1-10-0.8-13.6-1.7c-7.3-1.9-14.4-6.3-22.9-6.3
			c-1.5-2.1-1.7-7.3-1-10.4c1.2-0.8,3.1-0.4,4.8-1c6.5,0,14.4-0.8,20.4,1.9c2.7,1.5,5.2,2.9,7.9,4.4c8.1,2.7,16.3,4.2,24.2,6.5
			c4.6,0.4,9.2,0.8,13.8,1.2c2.3,0.4,4.6,0.8,7.1,1.2c3.7,0,7.5-0.2,11.2-0.2c3.1,0.8,6.3,1.5,9.4,2.3c3.8,0.2,7.5,0.6,11.3,0.8
			c13.1,2.7,26.1,7.5,39.6,6.3C397.2,213.7,403.7,216,408.3,214.7z M407,206.6c0.2,0.2,0.6,0.2,0.8,0.4c-0.2,0.2-0.2,0.4-0.4,0.6
			C407,207.2,407,207.4,407,206.6z M408.2,203.5c0-0.4,0-0.8,0-1c0.2,0,0.4,0,0.6,0c0.2,0.2,0.2,0.4,0.4,0.6
			c-0.2,0.2-0.2,0.2-0.4,0.4C408.5,203.5,408.3,203.5,408.2,203.5z M422.2,207.6c0.8,0.4,1.5,0.8,2.3,1c0.2,0.6,0.6,1.2,0.8,1.9
			c-1.3,1.3-4.6-0.2-5.6-1.2c0-0.2,0.2-0.4,0.2-0.6C420.6,208.3,421.4,207.9,422.2,207.6z M420.1,205.4c0-0.6,0-1,0-1.5
			c0.2,0,0.6,0,0.8,0c0,0.2,0.2,0.6,0.2,0.8c-0.2,0.2-0.4,0.6-0.6,0.8C420.5,205.4,420.3,205.4,420.1,205.4z M424.3,196.2h-0.2
			c-1-0.8-1.3-1.7-1-3.1c0.2,0,0.6,0,0.8,0c0.2,0.6,0.2,1.2,0.4,1.9C424.3,195.4,424.3,195.8,424.3,196.2z M423.9,190.2
			c-0.2,0-0.4,0.2-0.6,0.2c-1.5-1.2-2.5-3.8-2.9-6c-0.6,0-1.2,0.2-1.7,0.2c-0.2,1.3,0.2,2.7-0.2,4c-0.2,0.2-0.4,0.2-0.6,0.4
			c-0.6-0.8-1.2-1.5-1.7-2.3c-1,0.2-1.5,0.4-2.1,0.8c-1.9-1.3-7.5-6.5-9.4-6.7c0-0.4,0.2-0.8,0.2-1c2.7,0,16.3,1.9,17.5,2.9
			C423.5,183.7,423.9,187.9,423.9,190.2z M416.2,191.6c0.8,1.2,1.5,2.3,2.3,3.5C417,195.1,415.8,193.1,416.2,191.6z M416.8,206.2
			c0,0.4-0.2,0.8-0.2,1c-0.4,0-0.8,0.2-1,0.2c-0.4-0.6-0.6-0.6-0.8-1.2C415.5,206.2,416.2,206.2,416.8,206.2z M414.1,205.4
			c-0.2,0.2-0.4,0.4-0.6,0.6c-0.6-0.4-1-0.8-1.5-1.2l0.2-0.2c0.6,0.2,1,0.6,1.5,0.8C413.9,205.4,413.9,205.4,414.1,205.4z
			 M427.4,213.7c0.2,0,0.2-0.2,0.4-0.2c0.8,0.2,1.2,0.4,1.7,1c0.2,0.2,0.2,0.2,0.4,0.4c-0.6,0-1,0.2-1.5,0.2c-0.4-0.2-0.8-0.4-1-0.6
			C427.4,214.1,427.4,213.9,427.4,213.7z M425.6,205.8c0-0.2,0.2-0.2,0.2-0.4c0.4,0,0.8,0,1,0c0.8,0.8,1.5,1.5,2.3,2.3
			c0,0.2-0.2,0.2-0.2,0.4C427.2,207.9,427.2,206.6,425.6,205.8z M427.2,202.2c-0.4-0.4-0.4-0.4-1-0.6c0-0.6,0-1,0-1.5
			c1.3,0.4,3.7,0,3.5,1.7C428.7,202,428,202.2,427.2,202.2z M427.4,187.6c-0.6-1-1.2-1.7-1.9-2.7c0.2-0.2,0.2-0.4,0.4-0.6
			c0.8,0.6,0.8,1.7,1.5,2.3C427.4,187,427.4,187.2,427.4,187.6z M430.3,193.5c0.6,1,1.2,1.7,1.9,2.7c-0.2,1-0.4,1.7-0.6,2.7
			c-0.2,0-0.6,0-0.8,0C430.1,196.8,430.1,195.8,430.3,193.5z M438.7,205.6c-0.4-0.4-0.8-0.8-1.2-1.2c0-0.2,0.2-0.6,0.2-0.8
			C438,204.1,438.3,204.9,438.7,205.6z M438.5,198.1c0.2-0.2,0.2-0.4,0.4-0.6c0.2,0,0.2,0,0.4,0
			C438.9,197.9,439.1,197.9,438.5,198.1z M435.5,217.9c2.1,0,3.7,0.6,4.8,1.7v0.2C438.7,219.7,436.2,218.9,435.5,217.9z M385.1,226
			c11.5,1.3,22.9-0.4,34,1.5c6.9,1.2,12.3-1.2,18.6,0.4c6,1.3,9.8,6.7,14.6,8.3c0,0.2,0.2,0.2,0.2,0.4c-1.7,1.9-14.8-0.6-18.5-2.1
			c-2.7-1.2-19.8-4-21.9-3.5c-1.7,0.4-11,1.3-13.1,0.8c-1.9-0.8-4-1.5-6-2.3c-3.1-0.8-6.2-0.6-8.5-0.8c0-0.8-0.2-1.7-0.2-2.5
			C384.7,226.2,384.9,226,385.1,226z M441.4,216.6c1.2,0.2,2.1,0.8,2.7,1.7c0.4,0.4,0.4,0.8,0.6,1.2c0,0.2,0,0.6,0,0.8
			c-0.2,0-0.4,0.2-0.6,0.2C442.9,219.1,441.6,218.7,441.4,216.6z M449.3,219.9c0,0.8,0,1.3,0,2.1c0,0.2-0.2,0.2-0.2,0.4
			c-0.2,0-0.2,0.2-0.4,0.2c-0.2-1-0.4-1.3-1-1.9c0.2-0.4,0.2-0.8,0.4-1C448.3,219.7,448.9,219.7,449.3,219.9z M448.7,215.8
			c0.2-0.2,0.6-0.6,0.8-0.8h0.2c-0.2,0.8-0.2,1-0.6,1.5h-0.2C448.7,216.2,448.7,216,448.7,215.8z M455.1,220c0,0.2-0.2,0.6-0.2,0.8
			c-0.6,0.8-1.7,1.3-2.9,1.5c0-0.2,0-0.2,0-0.4c-0.4-0.6-0.4-0.8-0.4-1.7c0.2-0.2,0.4-0.6,0.6-0.8
			C453.1,219.7,454.1,219.9,455.1,220z M453.5,216.6c-0.4,0-0.8,0-1,0c0.2-0.2,0.2-0.2,0.4-0.4C453.1,216.2,453.3,216.4,453.5,216.6
			z M452.4,203.3c-0.2,0.2-0.4,0.2-0.6,0.4c-0.2-1.9-1.2-2.3-0.8-3.7c0.4-0.2,0.8-0.2,1-0.4c0.2,0,0.4,0,0.6,0
			C452.6,201.2,452.6,202,452.4,203.3z M451.6,195.8c0.6,0.6,0.6,1,0.4,1.7c-0.4,0.2-0.8,0.2-1.2,0.4h-0.2
			C450.8,197.2,451.2,196.6,451.6,195.8z M448.9,192.2c0.2,0,0.4,0,0.6,0c0.2,1.2,0.2,1.9-0.6,2.7c0,0.2,0,0.2,0,0.4h-0.2
			C448.7,194.3,448.7,193.1,448.9,192.2z M448.9,202.7c1,0.8,1.2,3.5,1.7,4.6c0,0.2-0.2,0.6-0.2,0.8c-0.6-0.2-0.2,0-0.6-0.4
			C448.5,206.8,448.1,204.1,448.9,202.7z M448.9,209.5c0.2,0,0.6,0,0.8,0c-0.6,0.6-1.2,1.2-1.7,1.9c-0.4-0.2-0.8-0.6-1.2-0.8
			C447.4,209.9,448.1,209.9,448.9,209.5z M445.3,183.9c0.6,0.8,0.6,1.2-0.2,1.7c-0.2,0.2-0.6,0.2-0.8,0.4
			C444.7,185.2,445.1,184.5,445.3,183.9z M444.1,192.4c1.2,0.8,0.8,2.9,0.8,4.4c-0.2,0-0.2,0.2-0.4,0.2h-0.2
			C443.9,195.6,443.7,193.7,444.1,192.4z M445.1,202.9c0.6,0.8,0.2,1.3-0.4,1.9c-0.2-0.2-0.6-0.4-0.8-0.6
			C444.3,203.1,444.5,203.3,445.1,202.9z M443.5,211.6h0.2c0,0.6-0.2,1.2-0.2,1.7c0,0.2,0,0.2,0,0.4c-1.9-0.2-3.8-0.8-4.8-2.3
			c0.4-0.2,0.8-0.2,1-0.4C441,211.2,441.8,212,443.5,211.6z M441,203.3c0.4,0.4,0.6,1.2,0.6,1.9h-0.2
			C440.8,204.7,440.6,204.3,441,203.3z M441.8,200.6c-0.6,0.2-0.6,0.4-1.2,0.2c-0.8,0.2-1.2,0-1.5-1c-0.6-0.6-0.2-0.6,0-1.5
			c1,0.2,1.9,0.2,2.5,0.8C441.6,199.7,441.8,200.1,441.8,200.6z M440.8,195.2c0,0.6,0.2,0.2-0.2,0.6
			C440.6,195.6,440.6,195.4,440.8,195.2z M438.7,185.1c1.7,1,1.2,3.8,0.6,5.4c-0.2,0.2-0.6,0.4-0.8,0.6c-0.6-1.5-1.2-3.1-1.7-4.8
			C437.4,185.8,438.3,185.8,438.7,185.1z M437,194.3c0,0.2-0.2,0.2-0.2,0.4c-0.2,0.2-0.4,0.2-0.6,0.4c0-1.2-0.2-2.5-0.2-3.7
			C436.8,192,437.2,192.7,437,194.3z M436.4,214.7c0,0.2,0.2,0.6,0.2,0.8c-1.7-0.4-3.5-1.2-4.6-2.3c0-0.2,0.2-0.6,0.2-0.8
			c0.6,0,1.2,0,1.9,0C435.1,213.3,435.5,213.5,436.4,214.7z M432.6,191.8c-1.3-1.3,0-2.5,0.8-3.5
			C434.1,189.1,433.3,191.2,432.6,191.8z M416,167.8c5.6,4,11.3,8.1,16.9,12.1c1,3.8-0.4,5.2-2.3,7.9c-0.2,0-0.4,0.2-0.6,0.2
			c-0.2-0.8-0.2-1.5-0.4-2.3c1.3-1.2,1.9,0.2,2.7-1.7c-6.5-4.4-15.4-4.6-23.3-6.5c-2.1,0-4-0.2-6.2-0.2c-5-1.3-11.3-3.1-16-4.8
			c-5.4-2.1-11.2-8.1-17.7-7.3c-2.1-1.3-4-4.6-5.8-6.5v-0.2c2.3-1.2,5.8,0.2,7.7-0.6c7.5,1,13.6,4.2,20.8,6.3
			c5.8,1.7,13.6,1.9,20.2,3.3C413.3,167.6,414.7,167.8,416,167.8z M356.4,154.1c-9.2-3.5-18.1-8.5-26.3-13.5
			c-3.5-2.1-9.2-1.9-11.5-5.2c3.7,0.6,7.1,1.2,10.8,1.9c3.1,1.2,6.2,2.3,9.2,3.5c5.4,2.1,10.8,2.3,15.6,5c1.5,1.5,2.9,2.9,4.4,4.4
			c3.7,1.9,8.5,2.1,11.3,4.8C367.2,157.2,359.5,155.3,356.4,154.1z M382.8,145.5c2.9,0.8,4.8,3.1,6.7,4.8c4.2,3.5,9.4,5.4,13.8,8.7
			c1.9,1.3,3.8,3.7,6.2,4.6c0.2,0.2,0.4,0.6,0.6,0.8c-3.7,1.2-21.9-3.7-26-5.2c-2.1-0.8-5.8-1-6.2-3.5c-1.3-0.2-2.7-0.2-4-0.4
			c-2.3-1.5-5-3.8-7.9-5c-2.3-1-4.8-1-6.3-2.3C362,145.8,379.9,151,382.8,145.5z M291.1,104.7c16.5,1.5,30,6.9,43.1,12.9
			c4.8,2.1,10,3.7,13.6,7.1v0.2c-0.2,0.2-0.4,0.4-0.6,0.6c-5.8-0.6-11.5-1-17.3-1.5c-4,0-8.3,0-12.3,0c0,0.2,0,0.6,0,0.8
			c2.9,1.3,9-0.2,13.6,0.6c7.3,1.3,16.3,1.2,21.9,2.1c0.8,0.6,1.5,1.2,2.3,1.7c6.5,2.9,12.7,6.3,18.5,10.4c1.7,1.2,4,3.3,6.3,3.7
			c0.2,0.2,0.4,0.6,0.6,0.8c-8.3,6.2-35.6-2.5-44.4-5.8c-0.8-3.8-4.8-6.7-9.2-7.7c-0.8,0.2-1.7,0.4-2.5,0.6c-3.1-0.6-4-4.4-8.1-4.8
			c0-0.4-0.2-0.8-0.2-1.2c0.8-0.4,0.8-0.2,1-1c-8.5,0.4-21-3.5-28.8-6.2C287,112.8,286.3,107.2,291.1,104.7z M280.9,102.2
			c2.5,0.2,4.8,0.4,7.3,0.6c0.2,0.2,0.4,0.4,0.6,0.6c-1.9,3.7-5,8.7-2.5,13.1c-0.2,0.2-0.4,0.6-0.6,0.8c-5.2-1-8.7-2.5-13.8-3.5
			C266.5,105.3,274.9,104.3,280.9,102.2z M362.8,172.4c-6-1-15.6-7.3-20.8-10c-11.5-5.8-23.1-11.3-34.2-17.7c-2.7-1.5-5.6-4-8.3-5.4
			c-4.8-2.5-10.6-5.6-13.6-10c2.7,1.3,5.2,0.8,8.5,0.8c-1-1.9-10.8-3.3-13.5-4.4c-2.9-1.2-5.6-5.4-7.3-7.9c0-0.4,0.2-0.8,0.2-1
			c7.3,0.4,11.2,2.5,16.9,3.8c6.7,1.2,13.3,2.1,20,3.3c3.1,1,12.9,7.5,14.4,10.2c-0.2,0-0.2,0-0.4,0c-0.6,1.2-5.4-1-7.9-0.6
			l-19.2-3.8c-1,0-2.1,0-3.1,0c0,0.2,0,0.6,0,0.8c17.5,1.9,33.5,11.5,47.9,19.6c3.5,1.5,6.9,3.1,10.4,4.8c1.2,0.2,2.1,0.6,3.3,0.8
			c0.4,0.8,0.8,1.3,1.2,2.1c1,0.6,2.1,1.2,3.1,1.7c1.9,1.2,2.7,3.7,4.8,4.8C366.2,167,362.8,168.9,362.8,172.4z M373.7,177.9
			c-1.2-0.6-3.1-1.3-4.4-2.3c-1-0.8-0.8-1.7-2.1-2.3c-0.2-0.2-0.2-0.4-0.4-0.6c0.6-0.6,0.4-0.4,1.5-0.6c0.6-1.5-0.4-1.7-0.8-3.3
			c0.4-0.4,0.8-0.8,1-1c6.9,0.2,11.2,3.5,15.8,6c3.1,1.5,6.3,1.2,9.4,3.1c1.2,0.8,1.9,2.3,3.3,2.9c2.5,1.2,4.8,1.5,7.1,3.1
			c3.1,2.1,5.4,5,9,6.7c0,1.5,0,2.9,0,4.4c-1-0.8-1.7-1.5-2.7-2.3c-1.7,0.2-1.3,1-2.3,1.9c-5-0.2-9-4.2-12.9-6.2
			C388.7,184.1,379.7,181.4,373.7,177.9z M374.9,195.1c0,0.6,0,1,0,1.5c-0.2,0.2-0.4,0.2-0.6,0.4
			C374.5,196.2,374.7,195.6,374.9,195.1z M348,178.3c0.8,0.4,1,1,1.2,1.9c-0.8,0.8-1.3,1.3-2.1,2.1C347.4,181,347.6,179.7,348,178.3
			z M343.4,187.2h-0.2c0.2-0.6,0.2-1.2,0.4-1.7c0.4,0.4,0.4,0.4,0.4,1.2C343.7,187,343.6,187,343.4,187.2z M343.7,194.1
			c0,0.6-0.2,1-0.2,1.5c0,0.2,0,0.2,0,0.4c-0.6,0-1.2-0.2-1.7-0.2c-0.2,0-0.2-0.2-0.4-0.2c0.2-0.8,0.6-1.7,0.8-2.5
			C342.8,193.3,343.4,193.7,343.7,194.1z M343.4,180.3c0.2,0.2,0.2,0.6,0.4,0.8c-2.7,2.9-2.7,6.7-3.8,10.6c-0.8-0.2-0.4,0-0.8-0.4
			C338,189.1,341.8,181.6,343.4,180.3z M335.7,182.2c0.4,0.6,0.4,0.6-0.2,1.2c0,0.2,0,0.2,0,0.4h-0.2
			C335.5,183.3,335.5,182.7,335.7,182.2z M333.9,186.4c0.6,0.8-0.2,2.3,1,3.5c0,0.2-0.2,0.6-0.2,0.8c-0.4,0-0.8,0.2-1,0.2
			c-0.4-0.2-0.8-0.4-1-0.6C333,188.9,333.4,187.7,333.9,186.4z M332.2,183.7h0.2c-0.2,0.2-0.2,0.2-0.4,0.4
			C332,183.9,332.2,183.9,332.2,183.7z M298,189.1c8.1,0.2,15.8,3.5,22.9,5.2c11.3,2.7,24,3.3,34.2,7.7c1.5,0.2,2.9,0.4,4.4,0.6
			c7.3,2.9,15.2,3.5,23.6,5.8c2.9,0.8,6,2.5,9.2,2.5c0,0.2,0.2,0.2,0.2,0.4c-9.2,2.3-29.2-3.5-39.8-6c-4-0.2-8.1-0.6-12.1-0.8
			c-4-0.6-7.9-2.5-11.7-2.3c-2.7,0.2-5.4,0.2-8.1,0.4c-7.5-1-15.2-1.9-22.7-2.9c-5.4-1.5-10.8-3.7-16.1-5.4c0-0.2-0.2-0.2-0.2-0.4
			C287.4,193.7,295.7,192.9,298,189.1z M294,188.1c-2.9,3.1-9.8,2.3-14.4,3.1c-5.6,1-8.8-1.7-13.3-2.9c-6.3-1.5-11.2-1.7-18.1-1.7
			c0.8-2.3,7.1-2.7,9-3.8C269.2,182.9,281.1,186.8,294,188.1z M233.8,218.7h-0.2c0.2-0.2,0.2-0.6,0.4-0.8l0.2,0.2
			C234,218.3,233.8,218.5,233.8,218.7z M235.1,233.3c0.2-0.2,0.2-0.4,0.4-0.6c0.2,0,0.2,0,0.4,0
			C235.7,232.7,235.5,232.9,235.1,233.3z M237.2,227.4c-0.8,0.2-1.5,0.4-2.3,0.6h-0.2c-0.8-2.5,0.4-3.5,1-5.8
			c0.2,0.2,0.6,0.6,0.8,0.8c0.6,0.8,0.4,3.1,0.6,4C237.2,227.4,237.2,227.4,237.2,227.4z M236.7,216.2c-0.8-0.4-1.3-0.8-2.1-1
			c-0.4-1.3-1-4-0.4-5.4c0.8,0.2,1.5,0.2,2.3,0.4c-0.4,2.3-0.4,4,0.8,5.6C237,216,236.9,216.2,236.7,216.2z M239.7,221.2
			c-0.4-0.2-0.8-0.2-1-0.4c-0.2-1.9,0-3.3-0.4-4.8c0.4-0.2,0.8-0.4,1-0.6c0.2,0,0.4,0,0.6,0c0.2,1.7,0.2,3.3,0.4,5
			C240.1,220.6,239.9,221,239.7,221.2z M244,212.2c-0.4,0.4-0.8,0.8-1.2,1h-0.2c0.4-2.1,0.6-1.9,0-3.7c-2.3,0-2.9,2.1-2.7,4.6
			c-0.2,0.2-0.4,0.2-0.6,0.4c-0.2-0.2-0.4-0.2-0.6-0.4c-0.4-2.1-0.2-3.3,1-4.4c-0.8-0.6-1.7-1.2-2.5-1.7c0-0.4,0.2-0.8,0.2-1
			c2.5,1,5,1.9,7.7,2.9C244.7,210.6,244.4,211.4,244,212.2z M275.3,219.9c0.8,0.6,1.5,1,2.3,1.5c-0.2,0.8-0.2,1.5-0.4,2.3
			c-0.6,0.4-1.2,0.8-1.7,1.2C275.5,223.1,274.9,220.8,275.3,219.9z M275.5,228.9c0-1.2,0-2.1,0-3.3c0.2,1,0.6,1.9,0.8,2.9
			C276.1,228.7,275.7,228.7,275.5,228.9z M277.6,242.7c-1.3-0.6-1.2-1.3-0.8-2.9c0.2,0,0.2,0,0.4,0c0.2,0.8,0.4,1.7,0.6,2.5
			C277.8,242.3,277.8,242.5,277.6,242.7z M279.3,236.6c0.2-1,0.2-0.8,0.8-1.2c0.2,0,0.2,0,0.4,0c0,0.2-0.2,0.4-0.2,0.6
			c-0.2,0.2-0.6,0.4-0.8,0.6H279.3z M279.9,232c0-0.4,0-0.8,0-1c0.2,0,0.6,0,0.8,0c0,0.4-0.2,0.8-0.2,1
			C280.3,232,280.1,232,279.9,232z M279.7,237c0.2,0,0.6,0.2,0.8,0.2v0.2c-0.2,0-0.6,0.2-0.8,0.2C279.7,237.3,279.7,237.2,279.7,237
			z M280.9,241.2h-0.2c0.2-0.2,0.2-0.6,0.4-0.8h0.2C281.1,240.8,280.9,241,280.9,241.2z M282.2,222.4c-1.3,1.3-1.7,2.1-1.9,4.4
			c-0.2,0-0.2,0.2-0.4,0.2c-0.4-1.7-1-4.4-0.6-5.6c1,0.4,1.3,0.6,2.7,0.6l0.2,0.2C282.2,222.2,282.2,222.2,282.2,222.4z
			 M282.4,222.4c0.6,0,1.2,0.2,1.7,0.2c0.2,0.2,0.2,0.2,0.4,0.4c-0.4,1.9-0.8,3.8-1,5.8h-0.2C282.2,226.8,283.2,224.5,282.4,222.4z
			 M284.7,248.7c-1-2.7-1.9-6-1.2-8.7c0.4,0,0.8,0,1,0c0.4,2.9,0.8,5.6,1,8.5C285.3,248.5,284.9,248.7,284.7,248.7z M286.8,237.2
			c-0.6-0.2-1-0.2-1.5-0.4c-0.2-0.2-0.2-0.2-0.4-0.4c0.4-1.3,0.8-2.7,1-3.8c0.4,0,0.8,0,1,0c0.2,1.9-0.4,2.5,0.2,4.6
			C287,237,286.8,237.2,286.8,237.2z M288.2,246H288c-0.6-0.8-0.6-3.7-0.2-4.6C288.6,242.3,288.4,244.5,288.2,246z M291.1,238.3
			c-1.3-0.6-1-2.9-0.6-4c0.6,0.6,0.6,1.7,0.8,2.5C291.3,237.3,291.3,237.9,291.1,238.3z M290.5,230c-0.2,0.2-0.4,0.2-0.6,0.4
			c0-0.2,0-0.2,0-0.4c-0.8-0.8-1.2-4.8-1-6c1,0.2,1.7,0.6,2.7,0.8C291.3,226.8,290.9,228.3,290.5,230z M294.3,242.3
			c-0.2,0.2-0.2,0.6-0.4,0.8c-0.2-0.6-0.2-1.2-0.4-1.7C294,241.8,294.1,242,294.3,242.3z M292.8,218.9c-3.7,3.3-14.6-1-19.2-2.3
			c-12.7-3.5-25.6-8.8-37.1-13.6c-4.6-1.9-11.7-4.4-13.8-8.7c-1-2.1,0.2-4,0.8-5.6c2.3-5,6.3-5.8,12.5-6.7c1.9-0.2,3.8-0.2,5.8-0.4
			c2.3,0,4.6,0.2,7.1,0.2c0.2,0,0.4,0.2,0.6,0.2c-6.5,6-9,2.9-9,14c0,1.7-0.6,4.2,0.6,5.8c2.1,2.9,10.4,2.5,14.4,3.8
			c4.6,1.5,9.8,3.5,15,4.4c2.7,0.4,5.4,0,8.1,0.8c8.8,2.7,16.3,6,25.6,7.9C301.5,221.2,295.7,219.7,292.8,218.9z M317.4,226.2
			c-0.4,0.4-0.8,0.8-1.2,1c-1,0.8-19-3.3-19.8-4.4c4.2,1.2,11.2-1.3,15-2.1c3.8-0.6,9,0,13.3-1c3.1-1,6-1.9,9-2.9
			c2.1-0.6,4-1,6.2-1.5c12.9,0,22.5,6.7,33.8,10c0,0.4-0.2,0.8-0.2,1c-5.2,2.1-14.4-3.5-19-3.1c-4.8,0.4-9.4,0.8-14,1.7
			c-4.8,1-9.6,3.3-14.4,3.1C323.2,227.4,320.3,226.8,317.4,226.2z M268.2,289.8c1.5-2.3,6.5-2.3,8.7-3.7c0.2,0,0.2,0,0.4,0
			C275.3,288.1,271.1,289.1,268.2,289.8z M278.4,286c-0.2,0-0.6,0-0.8,0v-0.2c2.3-0.8,4.6-1.5,7.1-2.3c0.4,0,0.8,0,1.2,0
			C283.2,284.5,280.9,285.2,278.4,286z M286.5,283.7v-0.2c0.6-0.2,1-0.4,1.5-0.6c0.2,0,0.6,0.2,0.8,0.2
			C287.8,283.1,287,283.3,286.5,283.7z M297.8,280.2c-1.7,1.5-6.2,2.1-8.8,2.7c2.3-1,4.6-1.9,6.7-2.9c0.8,0,1.3,0,2.1,0
			C297.8,280.2,297.8,280.2,297.8,280.2z M326.6,259.3c-9.6,6-20,11-30,16.7c-1.2,0.4-2.1-0.4-3.3-0.6v-0.2c1.3-1.5,4-2.1,5.8-3.1
			c5-2.9,10.8-6,15.8-8.8c1.9-1.2,4.2-1.5,5.4-3.3c-0.2,0-0.6-0.2-0.8-0.2c0.4-1.9,1.7-1.5,2.7-2.7c1.2,0.6,3.3,1,4.6,1.7
			C326.6,258.9,326.6,259.1,326.6,259.3z M323.9,246c0.6-0.4,1.2-0.8,1.9-1.2c0.4,0.6-0.8,2.7-0.8,4.4c-0.2,0-0.2,0.2-0.4,0.2
			C324.3,248.3,324.1,247.2,323.9,246z M326.1,237.2c0.2-0.4,0.2-0.8,0.4-1.2c0,0.4-0.2,0.8-0.2,1.2
			C326.1,237.2,326.1,237.2,326.1,237.2z M327.4,233.5v0.2c-0.2,0.2-0.4,0.2-0.6,0.4c-0.6-0.4-0.4-0.2-0.6-0.8c-0.4,0-0.8,0-1,0
			c-1.2,1-1.2,2.3-1.7,3.8h-0.2c-0.6-1.5-0.2-3.5,0.6-4.8c1.2,0.2,2.3,0.2,3.5,0.4C327.4,232.9,327.4,233.3,327.4,233.5z
			 M329.9,233.5c0.6,0.2,1.2,0.2,1.7,0.4c0.2,0,0.2,0.2,0.4,0.2c-2.1,2.5-2.7,5.4-2.5,9.6C327,242.2,329.1,236.2,329.9,233.5z
			 M329.7,257.9c-0.2-0.2-0.4-0.2-0.6-0.4c0.2-0.4,0.2-0.8,0.4-1c0.6,0,1.2,0.2,1.9,0.2c0,0.2,0.2,0.2,0.2,0.4
			C330.9,257.5,330.3,257.7,329.7,257.9z M332.4,246.4c-0.2,0.2-0.2,0.4-0.4,0.6c-0.8-0.4-0.8-0.6-1-1.5c-0.2,0-0.6-0.2-0.8-0.2
			c-0.6,0.4-0.6,0.4-0.8,1.2c-0.2,0-0.2,0.2-0.4,0.2c0-1.3,0.2-1.5,0.8-2.7c0.8,0.6,1.3,1.2,2.7,1.2
			C332.4,245.8,332.4,246,332.4,246.4z M334.3,234.5c-0.6,0.4-1.2,0.8-1.7,1.2c0-0.4-0.2-0.8-0.2-1c0.2-0.2,0.2-0.4,0.4-0.6
			c0.6,0,1,0,1.5,0C334.3,234.3,334.3,234.3,334.3,234.5z M336.3,246c0,0.2,0,0.2,0,0.4c-2.5-1.3-1.2-7.9-0.8-11.7
			c0.8,0.2,1.3,0.2,2.1,0.4C337.6,235.2,336.6,245.6,336.3,246z M338.6,253.7c-0.2,0-0.6,0-0.8,0c0-0.2,0.2-0.2,0.2-0.4
			c0.2,0,0.2,0,0.4,0l0.2,0.2C338.6,253.5,338.6,253.5,338.6,253.7z M340.5,255.8c-1.3-0.2-1.3-0.6-1.5-1.9c0.6,0.6,1,1.2,1.5,1.7
			C340.5,255.6,340.5,255.6,340.5,255.8z M331.3,230.8c0-0.2-0.2-0.2-0.2-0.4c6.3-1.5,12.9-2.9,19.2-4.4c2.1,0.2,4.2,0.2,6.3,0.4
			c4.6,1,10.2,2.1,15,3.1v0.2C360.3,234.5,344.1,232.5,331.3,230.8z M351.6,255.4c-0.2-0.2-0.4-0.4-0.6-0.6c0.2,0,0.2-0.2,0.4-0.2
			s0.6,0.2,0.8,0.2C352,255,351.8,255.2,351.6,255.4z M358.4,257.7c-0.2,0-0.2,0.2-0.4,0.2h-0.2c0-0.6,0-1,0-1.5c0.2,0,0.6,0,0.8,0
			C358.6,257,358.6,257.3,358.4,257.7z M360.9,256.8c-0.2,0-0.4-0.2-0.6-0.2c0-0.2,0.2-0.2,0.2-0.4c0.2,0,0.2,0,0.4,0
			C360.9,256.4,360.9,256.6,360.9,256.8z M358,251.2c-0.2,0.2-0.4,0.6-0.6,0.8c0.4,0.6,0.8,1.2,1,1.7c-1,0.6-1.9,0.8-3.5,0.6
			c-0.2,0-0.2-0.2-0.4-0.2c-0.4-1.2,1-3.3,1.5-5c-1-1.5-2.3-2.5-3.1-4c-0.4,0-0.8,0.2-1,0.2c-0.8,0.4-1,0.8-1,1.9
			c0.6,0.2,1.2,0.6,1.7,0.8c-0.2,0.4-0.4,0.8-0.6,1c-0.2,0-0.6,0-0.8,0c-1.5-1.2-2.9-2.7-4.8-3.7c-0.6,0.4-0.8,0.4-1.2,1
			c-0.2,0.2-0.2,0.2-0.4,0.4c0.6,1.2,0.8,1.5,2.5,1.7c-0.4,1-0.2,1.2,0.2,2.3c1.7,0.2,2.5-0.2,3.7-1c0.2,0.2,0.2,0.6,0.4,0.8
			c0,0.4,0.2,0.8,0.2,1c-1.7,0.8-3.8,0.4-6,2.1c-1-3.1-5.6-11.5-2.7-17.1c6.3,1,12.7,1.9,19,2.9c0,0.2,0.2,0.2,0.2,0.4
			c-1,0.2-1,0.4-1.5,0.8c-0.4,3.1,1.9,6,2.3,9C361.6,251,360.3,251.6,358,251.2z M362.6,240.2c0-0.8,0-0.2,0.2-0.8h0.2
			c0,0.2,0.2,0.6,0.2,0.8C363,240.2,362.8,240.2,362.6,240.2z M363.5,253.3c0-0.2,0.2-0.4,0.2-0.6h0.2
			C363.7,253.3,363.9,252.9,363.5,253.3z M363.7,235.6l-0.2-0.2v-0.2c4.8-1.7,12.7-2.1,16.7-4.6c6.2,0,11.3,1.9,16.5,2.7
			c-1.3,1.3-14.2,4-16.7,3.5c-1.9-0.6-3.8-1.2-5.8-1.9c-1.9-0.2-2.3,0.8-3.7,1C368.4,236,366,235.8,363.7,235.6z M372.6,248.3
			c1,1,1.3,1.5,3.1,1.9c-0.6,0.6-1.7,0.6-2.7,0.8c-0.8-0.8-0.4-1.2-1-1.5C372.2,249.1,372.4,248.7,372.6,248.3z M371.6,242
			c0-0.2,0-0.6,0-0.8c0.2,0,0.6,0,0.8,0c0,0.2,0.2,0.2,0.2,0.4C372.4,241.6,372,241.8,371.6,242z M371.2,240.4v0.2
			c-0.6,1-1,1.3-2.1,1.7h-0.2c-0.4-0.8-0.4-1,0-1.9C369.7,240.4,370.5,240.4,371.2,240.4z M368.2,245c0.2,0,0.6,0,0.8,0
			c0.2,0.4,0.2,0.8,0.4,1l-0.2,0.2c-0.4,0.4,0,0.2-0.8,0.4c-0.2,0.2-0.4,0.4-0.6,0.6h-0.2C367.8,246.6,368,245.8,368.2,245z
			 M368.4,252.9c-0.2,0-0.4-0.2-0.6-0.2c0.2-0.8,0.4-1.5,0.6-2.3c0.2,0,0.4,0.2,0.6,0.2c0.2,0.2,0.4,0.2,0.6,0.4
			c-0.2,0.6-0.2,1.2-0.4,1.9C368.4,253.1,368.9,253.1,368.4,252.9z M370.1,254.5c-0.2,0-0.6-0.2-0.8-0.2c0-0.2,0-0.4,0-0.6h0.2
			C369.7,253.9,369.9,254.3,370.1,254.5z M370.9,265.4c-7.1,7.1-14.2,14-21.5,21.1c-3.7,3.8-6,9.6-10.6,12.3
			c3.1-6.5,10.8-14.6,16-19.6c1.7-1.5,3.7-3.1,5.4-4.8c2.1-2.9,4.2-6.3,7.1-8.7c3.8-3.3,9.4-6.5,11.7-11.3c0.4,0,0.8-0.2,1.2-0.2
			c1,0,1.7,0,2.7,0C381.4,257.7,373.5,262.5,370.9,265.4z M381.2,251.4c-0.4-1-0.6-1.3-1.9-1.7c0-0.2,0-0.4,0-0.6c0.2,0,0.2,0,0.4,0
			c0.4-0.4,1.2-0.4,1.7-0.6c0.4,0,0.8,0,1,0c-0.2,1.2-0.8,2.1,0.2,2.7C382.2,251.2,381.8,251.4,381.2,251.4z M386.6,248.3
			c-0.2,0-0.6,0.2-0.8,0.2c-0.2-0.4-0.2-0.8-0.4-1c0.2,0,0.4,0.2,0.6,0.2c0.2,0.2,0.4,0.2,0.6,0.4
			C386.6,248.1,386.6,248.3,386.6,248.3z M386,243.1c0.2,0,0.6,0.2,0.8,0.2C386.2,243.5,386.6,243.5,386,243.1z M385.9,239.8
			c1.7-1.5,11.7-3.7,14.4-3.8c1.5,0,2.9,0.2,4.4,0.2c2.1-0.6,5.2-1.7,7.5-2.7c11.3,1.2,21.9,2.9,32.5,5.6c4,1,7.9-0.4,11-0.8
			c1.7,0.6,3.3,1.2,5,1.7c0,0.2,0.2,0.4,0.2,0.6v0.2c-2.3,0.2-4.6,0.6-7.1,0.8c-9.2,2.9-20.4,1.5-30.4,0.8c-6.3,0-12.7-0.2-19-0.2
			C398.2,241.4,392,240.6,385.9,239.8z M457.6,254.1c0.4,0.4,0.8,0.8,1.2,1c0,1.5-0.2,2.9-0.2,4.4c-0.8,0.4-0.8,0.2-2.1,0
			c-0.2-1.3-0.2-2.7-0.4-3.8C456.6,255,457,254.5,457.6,254.1z M455.8,252.9c-0.2-0.2-0.2-0.2-0.4-0.4v-0.2c0.6-0.8,1.3-1,2.1-1.7
			c0.4,0.4,0.4,0.2,0.4,1C457.2,252,456.6,252.3,455.8,252.9z M454.3,266c-0.2,0-0.4,0.2-0.6,0.2c-0.2-1.2-0.4-2.5-0.6-3.7
			c0.2-0.4,0.6-0.8,0.8-1c0.8,0.4,1,1.9,1.2,2.7C454.7,264.8,454.5,265.4,454.3,266z M454.9,280c1,0.6,1.2,1.5,1.5,2.7
			c-0.6,0.6-1,1.2-1.5,1.9c-0.2,0-0.2,0.2-0.4,0.2c-0.2-0.2-0.4-0.4-0.6-0.6C453.3,282.7,454.7,282.1,454.9,280z M452.9,275.8
			c0.2,0,0.4,0.2,0.6,0.2c0,0.4-0.2,0.8-0.2,1.2c-0.2,0.2-0.4,0.2-0.6,0.4c0-0.2,0-0.6,0-0.8C452.6,276.2,452.8,276.4,452.9,275.8z
			 M453.3,254.3c0,0.2-0.2,0.2-0.2,0.4c-0.6,0.4-1,0.8-1.5,1.2c-0.2-1.2-0.2-2.3-0.4-3.5c0.2-0.4,0.4-0.8,0.6-1c0.4,0,0.8,0,1.2,0
			C452.9,252.7,453.1,253.1,453.3,254.3z M447.8,256.6c-1,1-1.5,2.5-2.9,3.1c1-2.5,1-6,2.7-8.3c0.4,0,0.8,0,1,0s0.2,0.2,0.4,0.2v0.2
			c-0.6,0.8-1,1.2-1.9,1.7C447.2,254.8,447.4,255.6,447.8,256.6z M447.2,264.8c0,0.4,0,0.8,0,1.2c0,0.2,0,0.2,0,0.4
			c-0.4,0-0.8,0-1.2,0C446.4,266,446.8,265.4,447.2,264.8z M449.9,262c0,0.6,0,1,0,1.5c-0.2,0.2-0.4,0.2-0.6,0.4c-0.2,0-0.6,0-0.8,0
			C448.9,263.1,449.3,262.5,449.9,262z M448.1,260c0.2-0.2,0.2-0.6,0.4-0.8l0.2,0.2C448.7,259.7,448.3,259.8,448.1,260z
			 M450.1,271.6c1,1.3,0.2,6.9-0.4,8.1c0,0.2-0.2,0.4-0.2,0.6c-0.4,0-0.8-0.2-1-0.2s-0.2,0-0.4,0
			C448.1,277.3,448.9,273.5,450.1,271.6z M443.7,252.5c-0.2,0.8-0.2,1.5-0.4,2.3c-0.2,0-0.4,0-0.6,0c0-1.3,0.2-1.5,0.6-2.3
			C443.3,252.5,443.5,252.5,443.7,252.5z M436.4,262c0.6,1.5,1,2.9,1.5,4.4c-0.2,0.2-0.2,0.4-0.4,0.6c-0.4,0-0.8,0.2-1.2,0.2
			C435.8,265.4,436,263.3,436.4,262z M435.8,256.6h-0.2c0-0.6-0.2-1.2-0.2-1.7c0.2,0,0.4,0,0.6,0c0.2,0.2,0.2,0.4,0.4,0.6
			C436.2,255.8,436,256.2,435.8,256.6z M435.8,250.6c-0.2,0-0.4,0.2-0.6,0.2c0-0.8-0.2-1.7-0.2-2.5c0.4,0.2,0.8,0.2,1,0.4
			c0.6,0.4,0.4,0,0.6,0.8C436.4,249.8,436,250.2,435.8,250.6z M433.1,264.1c0.2,0.4,0.2,0.8,0.4,1.2c-0.2,0.2-0.6,0.2-0.8,0.4
			C433,265,433,264.5,433.1,264.1z M432.6,260c0,0.2-0.2,0.2-0.2,0.4h-0.2c-0.2-1.5-0.2-3.1,0.2-4c0.2,0,0.6,0,0.8,0
			C433,257.5,433.3,259.1,432.6,260z M432,245.8c-0.2,0.2-0.2,0.6-0.4,0.8c-1.3-0.6-4.6,0.4-6.3,1c-0.2-0.4-0.2-0.8-0.4-1.2
			c1.3-0.2,2.7-0.4,3.8-0.6C429.7,245.8,430.8,245.8,432,245.8z M411.6,249.7v0.2c-0.2,0.4-0.6,0.8-0.8,1c-1.3,0-1.9-0.4-2.3-1.5
			C409.7,249.7,410.1,249.8,411.6,249.7z M394.3,249.1c-0.4,0.2-0.8,0.4-1,0.6c0-0.2,0.2-0.6,0.2-0.8c0.2,0,0.6,0,0.8,0
			C394.3,248.9,394.3,249.1,394.3,249.1z M397.6,248.3c0.8,0,1.7,0.2,2.5,0.2c0.2,0.6,0.2,1,0.4,1.5v0.2c-1.9,0.2-2.1-0.8-3.7-1.2
			C397,248.7,397.4,248.5,397.6,248.3z M412,299.8c-0.2,0-0.4,0-0.6,0c-3.3-2.7-3.8-6.2-5.6-10.6c-3.1-8.1-5.2-16-7.3-25
			c-0.6-3.7-1.2-7.1-1.7-10.8c0.6-0.2,1.2-0.4,1.9-0.6c0.4,0,0.8,0,1.2,0c1.3,4.4,1.5,10,2.7,14.2c2.9,10.6,5.4,23.1,9.2,32.5
			C412,299.8,412,299.8,412,299.8z M411.6,255c-0.2-0.2-0.4-0.4-0.6-0.6c0-1,0-0.6,0.2-1.2c0.4,0,0.8,0,1,0c0.2,0.2,0.2,0.4,0.4,0.6
			C412.4,254.3,412,254.7,411.6,255z M410.8,320.2c-0.8,3.5-1.5,6.7-2.3,10.2c-2.1,6.7-6.5,13.6-6.3,22.1c-2.5-2.7-0.2-7.5,0-10.6
			c0.6-12.1,7.1-23.3,11.9-32.5C414.5,312.1,411.8,317.3,410.8,320.2z M414.1,245.2c1.3,0,2.7,0.2,3.8,0.2v0.2
			C417.2,246,414.9,245.8,414.1,245.2z M417.2,271.2c-0.2-0.8-0.2-1.7-0.4-2.5c0.8,0.4,1.2,0.8,1.5,1.7
			C418,270.6,417.6,271,417.2,271.2z M418.1,264.8c-0.4-0.6-0.8-1.2-1-1.7c0-0.2,0-0.4,0-0.6c0.2-0.2,0.4-0.6,0.6-0.8
			c0.6,0,1,0,1.5,0c1,0.8,0.8,1.7,0.2,2.9C418.9,264.6,418.5,264.6,418.1,264.8z M420.8,268.9c-0.4-0.4-0.8-0.8-1-1
			c0-0.2-0.2-0.6-0.2-0.8c0.6-0.2,1.2-0.6,1.7-0.8c0.2,0.6,0.6,1.2,0.8,1.7C421.6,268.3,421.2,268.5,420.8,268.9z M421.8,254.7
			c0.2-0.4,0.6-0.8,0.8-1c0.2,0,0.4,0,0.6,0C422.8,254.5,422.8,254.5,421.8,254.7z M423,258.9c0.2,0,0.4-0.2,0.6-0.2
			c0.2,0,0.6,0,0.8,0v0.2c-0.2,0.2-0.2,0.2-0.4,0.4c-0.2,0-0.6,0-0.8,0C423.1,259.1,423.1,258.9,423,258.9z M423.5,271
			c0-0.2,0.2-0.4,0.2-0.6c0.2,0,0.2,0,0.4,0C423.9,270.6,423.7,270.8,423.5,271z M425.6,270c0.2-0.4,0.6-0.8,0.8-1.2
			c0.2,0,0.2,0,0.4,0C426.6,269.1,426,269.6,425.6,270z M424.7,267.1h-0.2c-0.2-0.4-0.2-0.8-0.4-1.2v-0.2c0.8-0.4,1.3-0.8,2.1-1
			c0.2,0,0.4,0,0.6,0h0.2c0.2,0.2,0.4,0.6,0.6,0.8C426.6,266,425.6,266.6,424.7,267.1z M428.1,254.7c1.2-0.8,2.5-1.5,3.7-2.3
			c0.2,0,0.4,0,0.6,0c-0.4,1.5-1.5,1.7-2.9,2.3C429.1,254.7,428.7,254.7,428.1,254.7z M431.2,276.6c0.8,0,0.8,0,1.2,0.4
			C432.2,276.8,431.6,276.8,431.2,276.6z M431.2,271.6c-0.2,0.2-0.4,0.2-0.6,0.4c-0.2-0.4-0.6-0.8-0.8-1v-0.2
			c1.5-0.8,2.1-1.2,3.7-2.3l0.2,0.2c0.2,0,0.2,0.2,0.4,0.2C433.1,269.8,432.2,270.8,431.2,271.6z M435.3,276
			c-0.2-0.2-0.2-0.4-0.4-0.6c-1-0.4-0.8-0.2-1-1c1.2-1.2,2.5-2.3,3.7-3.5C439.1,272.3,436.4,275.4,435.3,276z M438,277.7h-0.2
			c0.2-0.2,0.2-0.6,0.4-0.8l0.2,0.2C438.1,277.3,438,277.5,438,277.7z M439.7,252.3c-0.4,0.4-0.8,0.8-1.2,1.2
			c-0.6-0.2-1.2-0.4-1.7-0.6v-0.2c0.2-0.2,0.4-0.6,0.6-0.8c0.8,0,1.5,0.2,2.3,0.2C439.7,252.3,439.7,252.3,439.7,252.3z
			 M439.9,255.8h0.2c0.8,1.2,0.2,1.9,1.2,2.7c0,0.6,0,1.2,0,1.9C440.5,259.8,439.5,257,439.9,255.8z M442,279.1
			c-0.2-0.2-0.4-0.6-0.6-0.8c0.2-1.2,0.4-1.5,0.8-2.3c0.6,1,1.2,1.7,1.7,2.7C443.3,279.3,443.3,279.1,442,279.1z M444.1,268.9
			l-0.2-0.2c0.2-0.6,0.2-1.2,0.4-1.9c0.4,0,0.8,0,1,0v0.2c-0.2,0.6-0.6,1.2-0.8,1.7C444.3,268.9,444.3,268.9,444.1,268.9z
			 M444.7,273.9c0.8-1,1.7-1.9,2.5-2.9c-0.4,1.7-0.8,3.7-1,5.4c-0.2,0-0.2,0.2-0.4,0.2C445.4,275.6,445.1,274.8,444.7,273.9z
			 M456.4,293.7c-4.6-0.8-7.9-3.8-10.6-6.5c0.2-0.8,0.6-1.3,0.8-2.1c1.9,1.2,3.3,4.2,4.6,5.2c1.9,1,3.8,2.1,5.8,3.1
			C456.8,293.5,456.6,293.5,456.4,293.7z M459.3,280c-0.4,0.4-0.2,0.4-1,0.6c0-0.2-0.2-0.2-0.2-0.4c0.2-0.2,0.2-0.6,0.4-0.8
			c0.2,0,0.6,0.2,0.8,0.2C459.3,279.8,459.3,280,459.3,280z M458.5,277.1c0-0.2,0-0.6,0-0.8c0.6,0.4,0.4,0,0.6,0.8
			C458.9,277.1,458.7,277.1,458.5,277.1z M458.7,270.4c-1.2,0.2-1.2,0.6-1.7,1.5c0.4,0.6,0.4,0.8,0.4,1.7c-1-0.8-1.3-2.1-2.5-2.7
			c0.2-0.8,0.4-1.7,0.6-2.5c1.2-0.2,0.8,0.4,2.3,0.8c1.2-2.3,0-3.8,1-6c1.2,1.2,1.9,4,1.9,6.3c0,0.2-0.2,0.2-0.2,0.4
			C459.9,270.4,459.5,271.2,458.7,270.4z M464.1,310.2c4.6,4.4,10,9.8,12.5,16c-0.4,0-0.8,0.2-1,0.2c-7.5-5.2-11.7-15-16.1-22.7
			c0.2-0.2,0.2-0.2,0.4-0.4C462.2,304.6,462.4,308.5,464.1,310.2z M466,278.5c0,0.2,0,0.2,0,0.4c-0.6-0.2-1.2-0.2-1.7-0.4
			c-1.3-1.9-1.3-3.8-0.2-6c0.2,0,0.2,0,0.4,0C465.3,273.7,466.4,277.1,466,278.5z M468.3,265.6c-0.2,0.2-0.4,0.2-0.6,0.4
			c0-0.2-0.2-0.2-0.2-0.4c-0.6-1-1.2-3.1-0.8-4c0.8,0.2,1.3,0.6,2.1,0.8C468.5,263.5,468.3,264.5,468.3,265.6z M468.9,259.7
			c-0.2,0.2-0.4,0.2-0.6,0.4c0-0.4,0.2-0.8,0.2-1.2c0.4,0.4,0.2,0,0.4,0.6C468.9,259.5,468.9,259.7,468.9,259.7z M468.9,256
			c-0.4-0.4,0-0.2-0.8-0.4c-0.6-1.9-1.5-3.7-2.5-5.4c0.4-0.2,0.8-0.6,1.2-0.8c0.4,0,0.8,0,1.2,0v0.2c-0.2,0.6-0.6,1.2-0.8,1.9
			c0.8,1.2,1.3,2.5,2.7,3.1C469.7,255.6,469.9,255.6,468.9,256z M468.7,249.5c2.9,0,6,0,8.8,0v0.2c-1.2,1.5-2.3,2.5-2.9,4.6
			c-0.2,0.2-0.6,0.4-0.8,0.6c-0.2-0.2-0.2-0.2-0.4-0.4c0.4-1,0.8-2.1,1-3.1c-0.2-0.2-0.2-0.4-0.4-0.6c-0.6,0-1,0.2-1.5,0.2
			c-0.6,0.6-1.2,1.2-1.7,1.7C470.2,251.6,469.5,250.6,468.7,249.5z M474.1,257.5c0.2,0.2,0.4,0.2,0.6,0.4c-0.2,2.5-1.7,4-2.9,5.6
			c-0.2,0-0.4,0.2-0.6,0.2C471,259.8,472.6,259.7,474.1,257.5z M474.3,273.7c-0.4,0-0.8,0.2-1.2,0.2c-0.6-1.3-1.2-2.7-1.7-4
			c0.6-1,1-1.7,1.5-2.7c1.2,0.8,1.9,1.9,2.3,3.5C475.2,271.4,474.7,272.7,474.3,273.7z M477.2,267.1c-0.2,0.2-0.6,0.4-0.8,0.6
			c-0.4-0.8-0.8-1.3-1.7-1.9c0-0.4,0-0.8,0-1.2c0.8-0.6,1.3-1.2,2.1-1.7c0.4,0.6,0.8,1.2,1,1.9C477.6,265.6,477.4,266.4,477.2,267.1
			z M477.4,230.6c-0.2-0.8,0-1.3,0.2-2.1c1.7,0.4,1.3,1.2,3.5,1.2c0,0.6-0.2,1-0.2,1.5c-0.2,0.2-0.2,0.4-0.4,0.6
			C479.3,231.4,478.5,230.4,477.4,230.6z M478.5,252.9c0.2-1.2,0.6-1.5,0.6-3.1c0.6-0.2,1.2-0.4,1.9-0.6c0.2,0.2,0.6,0.2,0.8,0.4
			c0.8,0.2-0.2,0.8-0.6,1.2c0.2,1.5,2.1,2.7,1.5,3.8C482.2,255.8,479.5,253.5,478.5,252.9z M483.1,267.7c-1-0.4-0.6-2.9-0.4-3.3
			c0.6,0.6,1.2,1,1.9,1.5C484.5,266.6,484.1,267.9,483.1,267.7z M488.1,262.3c-0.6,0.6-1.2,1.2-1.9,1.9c-1-0.6-2.3-2.1-2.7-3.3
			c0.2-0.6,0.6-1,0.8-1.5c1.2,1,2.5,1.7,3.7,2.7C488.1,262.1,488.1,262.3,488.1,262.3z M493.7,254.1c-1.2,0.2-2.5,0.2-3.7-0.4
			c-0.8-0.4-1.3-1.2-1.7-2.1v-0.2c0.4-0.2,0.8-0.2,1.2-0.4c1.5,0,3.1,0,4.6,0c0,0.2,0.2,0.2,0.2,0.4
			C494.1,252.3,493.9,253.1,493.7,254.1z M497.4,261.8c-0.2,0-0.2,0.2-0.4,0.2c0-2.1-0.2-3.1,0.2-4.8h0.2
			C498.3,258.3,497.4,260.4,497.4,261.8z M496.6,248.3c-0.6,0-1.2,0-1.9,0c0-0.2-0.2-0.6-0.2-0.8c0-0.2,0.2-0.2,0.2-0.4
			c1-0.2,1.7-0.6,2.7-0.8c0.2,0,0.4,0,0.6,0C497.7,247.3,497.4,247.7,496.6,248.3z M500.8,255c-0.2-1.2-0.4-1.3-1.9-1.2
			c1.2-1,2.1-1.9,3.3-2.9C502.5,251.8,502.2,254.7,500.8,255z M502.2,273.5c0-3.5,0-7.1,0-10.6c0.8-0.4,1.3-0.8,2.1-1
			c0.4-4,0-8.1,1.5-12.1c0.4,0,0.8,0,1.2,0v0.2c-0.6,1.5-0.2,5.8-0.4,6.2c-3.5,9-2.5,23.6-0.6,32.3c0.6,2.5,1.2,5,1.7,7.7
			c-0.4,7.5,2.1,15,4.8,20.2c-0.2,0.2-0.2,0.2-0.4,0.4C503.3,306.2,503.9,290.8,502.2,273.5z M512.4,327.7c0,3.8-1.3,9.6-2.1,13.5
			c-1,4,0.8,8.1-0.8,11.2c0,0.2-0.2,0.2-0.2,0.4c-1.7-10.6,1.5-21.3,3.3-29.8C513.3,324.1,512.4,326.2,512.4,327.7z M516.2,264.1
			c0.2,0,0.6,0,0.8,0c0,0.6-0.2,1.2-0.2,1.7c-0.2,0-0.6-0.2-0.8-0.2C515.8,264.6,515.8,264.6,516.2,264.1z M516.2,270.6
			c0-0.6,0-1,0-1.5c0.6,0.6,1,1,1.2,1.9C517,270.8,516.6,270.8,516.2,270.6z M518.9,260c-1.5,1-2.7,1.9-5,1.9
			c-0.2-0.6-0.6-1-0.8-1.5c0-0.2,0-0.6,0-0.8c2.3-0.6,4.2-0.2,5.6-1.7C519.3,258.7,518.9,259.3,518.9,260z M519.7,252.5
			c-0.4-0.2-0.8-0.2-1.2-0.4c1-2.5,5.8-4,7.5-6.2c0.6,0.6,0.6,1.9,0.8,2.9C524.3,250.2,522,251.4,519.7,252.5z M524.8,252.9
			c-0.2,0.2-0.4,0.4-0.6,0.6c-0.2-0.2-0.2-0.2-0.4-0.4c0.2,0,0.2-0.2,0.4-0.2C524.5,252.9,524.7,252.9,524.8,252.9z M523.7,256
			c0.2,0,0.2,0,0.4,0c-0.6,0.4-1.2,0.8-1.7,1.2C522.9,256.8,523.3,256.4,523.7,256z M526.4,257.3c0.2,0,0.4,0,0.6,0
			c-0.8,1.2-2.7,2.3-3.8,2.9C524.3,259.3,525.4,258.3,526.4,257.3z M526,263.1c-0.2,0.2-0.4,0.6-0.6,0.8c-0.2-0.4-0.6-0.8-0.8-1.2
			c0.6-0.6,1.2-1.2,1.7-1.9C526.8,261.6,526,262.1,526,263.1z M523.3,279.8c0-0.4,0-0.8,0-1c1.7,0.8,3.5,1.5,5.2,2.3
			C529.1,285.6,524.7,280.8,523.3,279.8z M529.3,264.5c0.2-0.2,0.4-0.6,0.6-0.8c0.2,0.8-0.6,1.7-0.8,2.7c-0.2,0-0.2,0.2-0.4,0.2
			C528.9,265.8,529.1,265,529.3,264.5z M529.7,278.9c-0.2-0.4-0.6-0.8-0.8-1.2c0.4-0.6,0.8-1,1.2-1.5c0.2,0.2,0.6,0.2,0.8,0.4
			C530.8,277.9,530.6,278.3,529.7,278.9z M532.7,277.5c-0.2,0.2-0.2,0.4-0.4,0.6h-0.2c0.2-0.6,0.2-1.2,0.4-1.9c0.2,0,0.4,0,0.6,0
			C532.9,276.8,532.7,277.1,532.7,277.5z M531.2,273.5c0.4-0.6,0.8-1,1.2-1.5c0,0.8,0,1.5,0,2.3c0,0.2,0,0.2,0,0.4
			C532,274.3,531.6,273.9,531.2,273.5z M531,269.6c-0.4,0.2-0.8,0.6-1,0.8h-0.2c0.2-2.1,1.7-4.2,2.7-5.8c0.2,0,0.6,0.2,0.8,0.2
			C533.5,267,531.8,267.7,531,269.6z M533.5,285.2c0.2-1,0.2-0.8,0.6-1.2c0.6,0.4,1.2,0.8,1.7,1.2
			C535,285.2,534.3,285.2,533.5,285.2z M537.9,278.1c-0.2,1.5-0.2,3.1-0.4,4.8c-0.8,0.4-1.9,0-2.5-1.2c-0.4-1.5,1.5-5.6,2.5-7.1
			c0.4,0,0.8,0.2,1,0.2c-0.4,1.3-0.8,1.7-1.9,2.3c0,0.2,0,0.4,0,0.6C537.2,277.7,537.5,277.9,537.9,278.1z M538.5,272.5
			c0-0.4,0.2-0.8,0.2-1c0.2,0,0.2,0,0.4,0C538.9,272.1,538.9,272,538.5,272.5z M540.6,284.1c-0.2,0-0.6,0-0.8,0c0-0.6,0-1,0-1.5
			c0.4-0.2,0.8-0.6,1.2-0.8c0.6,0.6,0.4,1,0.4,1.7C541.2,283.7,541,283.9,540.6,284.1z M542.7,229.5c0.6-0.2,1.2-0.2,1.7-0.4
			c0.2,0.2,0.6,0.2,0.8,0.4c-0.2,0.6-0.4,1.2-0.6,1.7c-1,0.4-1.7,0.8-2.7,1C541,231.2,541.8,229.9,542.7,229.5z M542.7,269.1
			c0-0.6,0.2-1,0.2-1.5c1.2,0,1.9,0,2.5,0.6c0.2,0.2,0.2,0.2,0.4,0.4c-0.6,0.2-1,0.4-1.5,0.6C543.9,269.3,543.3,269.3,542.7,269.1z
			 M545.6,275.4c-0.4,0.2-0.8,0.6-1,0.8c0.2-0.2,0.2-0.6,0.4-0.8C545.2,275.4,545.4,275.4,545.6,275.4z M545.8,282.3
			c-0.8,0.2-1.3,0.4-2.1,0.6h-0.2c0-0.8,0.2-1.5,0.2-2.3c0.8-0.6,1.3-1.2,2.1-1.7C546.2,279.6,546,281.2,545.8,282.3z M546,221.8
			l-0.2,0.2c-0.4-1,0-1.9,0.6-2.9c0.4,0.2,0.8,0.6,1,0.8c0,0.6-0.2,1-0.2,1.5C546.6,222,546.8,222,546,221.8z M547.3,264.5v-0.2
			c0-0.2,0.2-0.2,0.2-0.4c0.2,0,0.4,0,0.6,0v0.2c-0.2,0.2-0.4,0.2-0.6,0.4C547.3,264.5,547.3,264.5,547.3,264.5z M548.5,278.3
			c0.6,0.8,0.4,1,0.6,1.9c0,0.2-0.2,0.4-0.2,0.6c-0.4,0-0.8,0.2-1,0.2C548.1,280,548.3,279.1,548.5,278.3z M548.3,284.6
			c0.4-0.6,0.8-1.2,1.2-1.7c0.6,0.4,0.6,0.4,0.8,1.2C549.6,285,549.1,285,548.3,284.6z M551,268.1c-0.2-0.2-0.6-0.6-0.8-0.8
			c0.2-0.2,0.4-0.6,0.6-0.8c0.2,0,0.4,0.2,0.6,0.2c0.2,0,0.2,0,0.4,0c0,0.4,0,0.8,0,1C551.6,267.9,551.4,267.9,551,268.1z
			 M552.9,277.5c-0.6,0.6-1,1-1.5,1.5h-0.2c0-1.3,0.2-1.2,1-1.7c0.2,0,0.4,0,0.6,0C552.9,277.5,552.9,277.5,552.9,277.5z
			 M561.8,294.8c-0.2,0-0.4,0.2-0.6,0.2c-3.3-1.9-6.2-6.2-8.1-9.2c0.4-0.8,0.8-1.7,1-2.5c1.5,0.6,1.7,2.1,1.5,3.7
			c2.3,1,5,5.6,6.2,7.7C561.8,294.6,561.8,294.6,561.8,294.8z M561,272.5h-0.2c0.8-0.8,1.3-1.7,2.1-2.5c0.2,0,0.2,0,0.4,0
			C562.5,270.8,561.8,271.6,561,272.5z M561.6,257.9c0.2-0.6,0.4-1,0.6-1.5c0.4,0.4,0.2,0,0.4,0.6c-0.2,0.2-0.6,0.6-0.8,0.8
			C561.8,257.9,561.6,257.9,561.6,257.9z M562.5,254.1c-1.5-1.9,1-3.1,2.3-3.7c0.2,0,0.6,0,0.8,0c-0.6,1.5-1,2.5-1.7,3.7
			C563.5,254.1,563.1,254.1,562.5,254.1z M564.6,268.7c-0.2,0-0.4,0-0.6,0c0.2-1.2,0.2-1,0.8-1.7c0.4,0,0.8,0,1.2,0
			C565.8,268.1,565.4,268.3,564.6,268.7z M567,258.9c-0.4,0-0.8,0-1,0s-0.2,0-0.4,0c0-0.4,0.2-0.8,0.2-1c0.4-0.6,0.8-1,1.2-1.5
			c0.4,0,0.8,0,1.2,0C567.7,257.2,567.3,257.9,567,258.9z M626,329.2c1.5,0.8,5,12.5,4.4,15c-0.2,0-0.4,0.2-0.6,0.2
			C628.5,342.5,624.8,332.3,626,329.2z M602.9,291.4c5,1.5,8.3,6.2,11.3,10.2c0.8,1.2,1,2.5,2.1,3.3c-0.4,0.8,0.2,0.2-0.6,0.6
			c-4.4-4.6-8.7-9-13.1-13.6C602.7,291.8,602.7,291.6,602.9,291.4z M586.9,282.1c0,0.2,0.2,0.4,0.2,0.6c-2.7-0.2-13.5-5-15-6.5
			C577.5,277.5,582.5,279.5,586.9,282.1z M571.4,275.8h0.2c0,0.2,0.2,0.2,0.2,0.4c-0.2,0-0.4,0.2-0.6,0.2
			C571.4,276.2,571.4,276,571.4,275.8z M571,275.6c-0.4,0.2-0.8,0.4-1.2,0.6c0-0.4-0.2-0.8-0.2-1C570,275.2,570.6,275.4,571,275.6z
			 M590.8,237.3c-4.4,6.5-11.5,10-16.1,16.1c-1.2-0.4-1.2-0.6-2.7-0.4c1.3-4.8,18.5-16.5,22.7-21.1
			C595.4,232.9,591.8,236.2,590.8,237.3z M628.9,219.9c-3.3,3.3-11.3,3.5-16,4.8c-3.8,1.7-7.7,3.5-11.5,5.2c-0.2,0-0.2-0.2-0.4-0.2
			c1.7-6.3,21-6.9,27.3-10c0.2,0,0.4,0,0.6,0C628.9,219.7,628.9,219.7,628.9,219.9z M653.5,212.9c0.6-1.7,2.9-1.5,4.6-2.3
			C658.8,211.2,654.4,212.9,653.5,212.9z M328.4,180.4c0.6-0.6,0.8-1.7,0.8-3.1c-0.6-0.2-1.2-0.4-1.9-0.6c-0.6,0.8-1.2,1.3-1.7,2.1
			c0,0.6,0.2,1.2,0.2,1.7C326.6,180.6,327.4,180.8,328.4,180.4z M323.9,177.9c-0.6-0.2-0.8-0.4-1.7-0.4c-0.6,0.8-1.2,1.7-1.7,2.5
			c0.4,0.4,0.8,0.8,1,1.2c0.4,0,0.8,0.2,1.2,0.2C323.8,180.4,324.3,179.7,323.9,177.9z M363.9,177.9c-1.7,1.3-2.7,2.7-5,3.5
			c-0.2,0.4-0.2,0.8-0.4,1c0.6,0.2,1.2,0.4,1.9,0.6c1.9,0.6,4.2-1.9,5-3.3c0-0.4-0.2-0.8-0.2-1.2
			C364.9,178.3,364.3,178.1,363.9,177.9z M317.2,179.1c-0.6,0.4-1.2,0.8-1.9,1c-0.4,0.6-0.8,1.2-1,1.9c0,0.2,0,0.4,0,0.6
			c2.1,0,2.5-0.6,4.4-0.8c0.2-0.8,0.4-1.3,0.6-2.1C318.6,179.5,317.8,179.3,317.2,179.1z M366.2,184.9c1.7-0.2,4.2-1.7,4.8-3.1
			c0.4-1,0-1.9-0.6-2.5c-1.7,1.3-3.5,2.3-5,3.8c0,0.4-0.2,0.8-0.2,1C365.7,184.5,365.9,184.7,366.2,184.9z M313.9,182.4
			c-0.6-1.3-0.8-2.1-2.1-2.7c-0.6,0.8-1.3,1.3-2.5,1.7c-0.2,0.6-0.4,1.2-0.6,1.7c0.4,0.2,0.8,0.2,1,0.4c1.2-0.2,2.3-0.4,3.5-0.6
			C313.6,182.7,313.8,182.6,313.9,182.4z M305.7,182.2c-0.6-0.4-1.2-0.8-1.7-1c-1.3,0.8-2.7,1-2.3,2.9c1.3,0,2.7,0,3.8,0
			C305.7,183.5,305.7,182.9,305.7,182.2z M517.4,197.7c0-0.2,0.2-0.4,0.2-0.6c-0.2,0-0.2,0-0.4,0l-0.2,0.2v0.2l0.2,0.2
			C517.2,197.7,517.4,197.7,517.4,197.7z M260.5,225.6c0.2-0.2,0.2-0.4,0.4-0.6c-0.6-1.2-1.2-1.7-2.3-2.3c-0.2,0-0.4,0-0.6,0
			c-1,0.8-1.2,1-1,2.5c0.2,0,0.2,0,0.4,0C258,225.6,259.3,225.6,260.5,225.6z M254.2,225c-0.2,0.2-0.2,0.6-0.4,0.8
			c0,0.6,0,1.2,0,1.7c1.9,0.4,2.3-0.2,3.5-1c0-0.2,0-0.6,0-0.8c-0.8-0.4-1.5-0.8-2.3-1C254.7,224.7,254.4,224.9,254.2,225z
			 M249.5,227.9c-0.4,0.8-0.8,1.5-1,2.3c0.6,0.2,1,0.6,1.5,0.8c-0.6,0.2-1,0.2-1.5,0.4c-0.2,0.6-0.4,0.8-0.4,1.7
			c1.7,0.8,2.7-0.2,2.1-2.1c0.4-0.2,0.8-0.6,1.2-0.8C251.9,228.7,251.3,227.9,249.5,227.9z M259.9,231.2c0.2-0.2,0.6-0.6,0.8-0.8
			c-0.4-1-0.2-1.5-1.9-1.9c-0.4,0.6-0.8,1.2-1.2,1.7c0.4,0.4,0.8,0.8,1,1C259.2,231.2,259.5,231.2,259.9,231.2z M265.5,232.2
			c-0.4,0-0.8-0.2-1.2-0.2c-0.2,0.4-0.6,0.8-0.8,1c0,0.4-0.2,0.8-0.2,1.2c2.1,1.3,1.7,0.4,2.7,3.1c0.6,0,1.2,0.2,1.7,0.2
			c0.2,0,0.2-0.2,0.4-0.2c0.6-0.8,0.8-0.8,0.8-2.1C267.2,234.3,266.5,234.5,265.5,232.2z M303.4,234.3c0-0.2-0.2-0.2-0.2-0.4
			c-1-0.2-2.1-0.4-3.1-0.6c-0.2,0.2-0.6,0.2-0.8,0.4c0,0.6-0.2,1.2-0.2,1.7c1.2,0.8,2.1,1.2,4,1
			C303.2,235.6,303.2,234.8,303.4,234.3z M261.3,237c0.2-0.2,0.2-0.4,0.4-0.6c0-0.2,0.2-0.2,0.2-0.4c-0.6-0.6-1-1.2-1.5-1.7
			c-0.2,0-0.4,0-0.6,0c-0.2,0.4-0.6,0.8-0.8,1C259,236.8,259.5,237,261.3,237z M316.3,239.1c0-0.8,0-1.3,0-2.1
			c-1-0.4-1.7-0.8-2.7-1.2c-1,0.8-1.2,0.6-1.2,2.3c0.8,0.4,1.5,0.8,2.3,1C315.3,239.1,315.7,239.1,316.3,239.1z M309,237.2
			c-0.2,0.2-0.4,0.2-0.6,0.4c-0.4,0.6-0.6,0.8-0.6,1.9c0.6,0.2,1.2,0.2,1.9,0.4c0.2,0,0.2-0.2,0.4-0.2c0.2-0.4,0.4-0.8,0.6-1.2
			C310.1,237.5,310.1,237.3,309,237.2z M264.7,240.8c0.2-0.4,0.4-0.8,0.6-1c0-0.6-0.2-1-0.2-1.5c-0.6-0.2-1.2-0.6-1.7-0.8
			c-0.4,0.6-0.8,1.2-1.2,1.9C262.8,240.4,263.2,240.8,264.7,240.8z M249.2,242.3c0.8-0.4,1.2-1.2,1.2-2.3c-0.2-0.2-0.4-0.6-0.6-0.8
			c-0.4-0.4-0.4-0.4-1-0.6c-0.4,0.4-0.8,0.8-1,1.2c0,0.6,0,1.2,0,1.9C248.2,242.5,248.4,242.3,249.2,242.3z M266.5,239.3
			c-0.2,0.2-0.6,0.6-0.8,0.8c0,0.4-0.2,0.8-0.2,1c0.2,0.2,0.6,0.4,0.8,0.6c0.8,0.8,1.3,0.8,2.7,0.6c0.2-0.2,0.2-0.4,0.4-0.6
			c-0.8-0.8-1.5-1.7-2.3-2.5C267,239.3,266.8,239.3,266.5,239.3z M299.3,240.6c0.2,0.6,0.2,1.2,0.4,1.7c0.6,0,1.2,0,1.7,0
			c0.2,0,0.4-0.2,0.6-0.2c0-0.2,0.2-0.4,0.2-0.6c0-1.5-0.4-1.7-1.7-1.9C300.1,240,299.7,240.2,299.3,240.6z M307.4,244.7
			c0-0.6-0.2-1.2-0.2-1.7c-1-0.8-1-1.3-2.5-1.5c-0.2,0.4-0.6,0.8-0.8,1c0,0.2-0.2,0.4-0.2,0.6c0.2,0.4,0.6,0.8,0.8,1.2
			c0.8,0,1.7,0.2,2.5,0.2C307.2,244.7,307.2,244.7,307.4,244.7z M360.3,244.8c-0.4-1-0.8-2.3-1.7-2.9c-0.4,0-0.8-0.2-1.2-0.2
			c-0.2,0.6-0.4,1.2-0.6,1.7c0.2,0.2,0.2,0.4,0.4,0.6c0.6,0.8,1.5,0.8,2.7,1C360.1,244.8,360.1,244.8,360.3,244.8z M311.6,244.7
			c1.2,1.3,2.9,1.2,4.8,0.8c0.2-0.2,0.2-0.2,0.4-0.4c0-0.4-0.2-0.8-0.2-1c-0.8-1-2.1-1.3-3.5-1.7c-0.6,0.6-1,1.2-1.5,1.7
			C311.6,244.1,311.6,244.5,311.6,244.7z M313.4,248.7c0.2-0.2,0.4-0.4,0.6-0.6c0-0.2,0-0.6,0-0.8c-0.8-0.6-1-1.2-2.5-1.2
			c-0.2,0.2-0.6,0.2-0.8,0.4c-0.4,0.8-0.6,0.6-0.2,1.2C311.1,248.7,311.8,248.9,313.4,248.7z M358.7,246.8c-0.2,0.2-0.6,0.2-0.8,0.4
			c0,0.2-0.2,0.4-0.2,0.6c0,1,0,1,0.4,1.5c1,0.8,1.7,0.2,2.3-0.8C360.1,247.5,359.9,247.2,358.7,246.8z M304.3,249.7
			c1.2,0.6,1.3,0.6,2.5,0c0-0.4,0.2-0.8,0.2-1.2c-0.8-0.6-0.8-0.8-2.1-1c-0.2,0.4-0.4,0.8-0.6,1
			C304.3,248.9,304.3,249.3,304.3,249.7z"/>
	</g>
</g>
</svg>
