<?xml version="1.0" encoding="utf-8"?>
<!-- Generator: Adobe Illustrator 21.0.0, SVG Export Plug-In . SVG Version: 6.00 Build 0)  -->
<svg version="1.1" id="Calque_1" xmlns="http://www.w3.org/2000/svg" xmlns:xlink="http://www.w3.org/1999/xlink" x="0px" y="0px"
	 viewBox="0 0 841 595" style="enable-background:new 0 0 841 595;" xml:space="preserve">
<style type="text/css">
	.st0{fill:#DADADA;}
	.st1{fill:#FFFFFF;}
	.st2{fill:#1D1D1B;}
</style>
<g>
	<ellipse class="st0" cx="417.2" cy="391.1" rx="195.1" ry="23.9"/>
	<path class="st1" d="M368.4,365.3c0,0,12.9,15.5,35.7,23.4c22.8,7.9,33.7,10,43.5,6.3c9.8-3.8,20-1.2,22.1-3.9
		c2.1-2.7,13.6-1.3,18.9,0c5.3,1.3,15.2-2.4,17.1-4.2s3.7-10,3.7-10s20.2,0.9,25.9,0.7c5.7-0.2,16.6-5.7,6-19.1
		C530.7,345.1,368.4,365.3,368.4,365.3z"/>
	<g>
		<g>
			<path class="st2" d="M615.9,337.6c-0.1-0.5-0.5-0.8-0.6-1.3c-1.3-1.1-3.2-0.6-4.5-0.8c-2.3-0.4-4.6-0.9-6.9-1.2
				c-0.5-0.1-0.9-0.5-1.4-0.5c-0.9,0-1.8,0.3-2.7,0.1c-0.1-0.1-0.2-0.2-0.3-0.3c-1.6-0.4-3.4-0.4-5-0.8c-0.1-0.1-0.2-0.2-0.3-0.3
				c-0.4-0.1-0.9,0.2-1.3,0.1c-0.4-0.2-0.8-0.4-1.3-0.6c-0.2,0.1-0.5,0.2-0.7,0.2l-0.5-0.5c-0.3,0-0.7,0.1-1,0.1
				c-0.6-0.1-0.8-0.5-1.4-0.7c-0.8-0.2-1.9-0.2-2.6-0.3c-0.6-0.1-0.9-0.6-1.7-0.8c0,0.1-0.1,0.2-0.1,0.3c-0.7-0.2-1-0.6-1.6-0.7
				c-0.3-0.1-0.9,0.2-1.3,0.1c-1.7-0.4-3-1.2-4.6-1.4c-0.4,0-0.8,0.3-1.2,0.2c-2.7-0.4-5.6-0.3-8.3-0.9c-0.8-0.2-1.4-0.7-2.2-0.8
				c-0.2,0.1-0.3,0.2-0.5,0.2c-0.3,0-0.5-0.3-0.8-0.3c-0.6,0-1.7,0.3-2.3,0.2c-0.5-0.1-0.9-0.6-1.4-0.7c-0.7-0.2-1.5,0-2.2-0.1
				c-0.8-0.1-1.4-0.7-2.3-0.9c-0.3-0.1-3.3-0.2-3.6-0.1c-0.1-0.1-0.2-0.2-0.3-0.3c-0.1,0.1-0.2,0.2-0.3,0.3c-1.4-0.5-2.7-0.4-4-0.8
				c-0.2,0.2-0.3,0.3-0.5,0.5c-1.3-1-2.9-0.3-4.2-0.5c-3.3-0.5-8.2-1.2-10.7-2c-1.2-0.4-2.7-1.1-3.9-0.7c-0.2-0.2-0.3-0.3-0.5-0.5
				c-0.1,0.1-0.2,0.2-0.3,0.3c-1.4-1-3.1-0.9-4.5-1.3c-0.6-0.3-1.2-0.6-1.8-0.9c-1.2-0.5-2.7-0.7-4-1c-1.4-0.3-3.1,0-4.4-0.5
				c-0.5-0.3-1-0.7-1.5-1c-1.2-0.4-2.8-0.2-4-0.6c-1.5-0.4-2.8-1.6-4.3-2c-1.2-0.3-2.8-0.1-3.9-0.5c-1.1-0.3-1.2-0.9-2.3-1.2
				c-2.3-0.6-4.4-1.1-6.7-1.8c-1.1-0.3-1.1-0.8-2.1-1.2c-0.5-0.2-1.2,0-1.7-0.1c-0.9-0.3-1.9-0.8-2.7-1c-1.6-0.6-2.2-1.3-3.8-2
				c-1.6-0.7-3.8-0.9-5.4-1.5c-0.2-0.1-0.6-0.8-1.2-0.9c-3.8-0.9-6.2-1.9-10-3.8c-0.7-0.3-1.3-0.1-2-0.6c-0.1,0.1-0.2,0.2-0.3,0.3
				c-0.9-0.7-1.8-0.4-2.7-0.8c-2.7-1.3-5.8-2.8-8.2-2.9c0-0.4-1.3-0.9-1.7-1c-0.3,0-0.5,0.1-0.8,0.1c-1-0.3-1.6-1-2.5-1.4
				c-1.4-0.5-3.2-0.7-4.7-1.3c-1-0.4-1.5-1.1-2.5-1.4l-0.5,0.2c0-0.7-2.4-0.9-2.9-1.5c-0.3-0.4-1.7-1-2.4-1.3
				c-0.2-0.3-5.7-2.9-6.8-3.3c-2.3-1-5-2.1-7.8-3c-0.2-0.3-4.2-2.5-4.5-2.7c-1.9-0.7-3.6-1.2-5.6-1.7c-0.3-0.6-1.1-0.3-1.4-0.7
				c-0.7-1.2-5.8-2.6-7.3-3.3c-1-0.5-1.6-1.4-2.2-1.7c-2.8-1.4-6.5-3.5-9.2-4.4c-0.4-0.3-0.8-0.7-1.3-1c-0.7-0.3-1.8-0.9-2.5-1.2
				c-0.3-0.6-2.7-1.7-3.5-2.1c-0.7-0.3-1.1-1.2-1.4-1.4c-1.8-1.1-3.6-2.2-5.4-2.9c-0.5-0.9-3.5-1.6-4.1-2.5
				c-0.5-0.6-3.1-1.8-4.7-2.6c-0.7-1-2.2-1.4-3.3-2c-0.6-0.3-0.9-1-1.2-1.2c-0.9-0.4-2.2-0.9-3.1-1.5c-0.3-0.2-0.2-0.5-0.3-0.6
				c-1.6-0.7-6.3-2.4-7.5-4c-0.7-0.9-2.5-1.5-3.8-1.7c-0.2-0.7-6.3-4-7.6-4.4c-0.6-1.2-5.3-3.5-6.8-4.3c-0.9-1.5-4.4-3.1-6-3.9
				c-1-0.5-1.6-1.6-2.3-2.1c-1.1-0.7-2.6-1.5-3.9-2.3c-0.5-0.3-1-1.4-1.3-1.5c-0.6-0.4-1.8-0.8-2.4-1c-0.3-0.7-0.5-0.7-1-0.8
				c-0.3-1.2-1.9-1.8-2.8-2.1c-0.7-1.5-3.8-2.5-5.1-4.4c-1.2-1.8-3.7-3.3-5.3-4.6c-0.8-0.7-2.5-2.7-2.9-2.9c-1.1-0.5-2.5-1.1-3.3-2
				c-2-2-4.6-4.8-6.8-6.1c-0.8-0.8-1.6-1.6-2.4-2.4c-0.4-0.2-1.2-0.4-1.8-0.9c-0.7-0.5-2-2.5-2.5-2.8c-0.4-0.2-1.1-0.4-1.6-0.7
				c-0.2-0.2-0.3-0.5-0.5-0.7c-0.5-0.4-1.3-1.1-1.8-1.6c-0.5-0.4-1.4-1.7-1.7-2.2c-0.4-0.6-1.1-0.6-1.3-1c-0.1-0.1-0.4-1-0.6-1.3
				c-0.4-0.4-0.8-0.8-1.3-1.3l0.2-0.2c-0.5-1.2-1.8-1.6-2.2-2.9c-0.1-0.4-0.1-1.3-0.3-1.7c-0.9-1.9-3.9-5-5.6-6.3
				c-0.4,0.1-0.6,0.2-1,0.1c-0.2,0.5-0.2,0.8-0.1,1.3c0.1,0.5,1.7,2.3,2.2,3.1c0.2,0.4,0.9,0.6,1,0.8c0.3,0.4,0.8,1.8,1.2,2.3
				c0.2,0.1,0.3,0.2,0.5,0.2c2.8,8.3,11.7,14.9,19.1,20.7c0.3,0.8,1.7,1.2,2.5,2.3c0.3,0.5,1,0.7,1.5,1c1,0.7,1.9,2.7,3.2,3.2
				c0.4,0.2,2,1,2.7,1.7c1.9,2.2,4.6,4.4,8,6.8c0.6,0.4,1.2,2.1,2.6,2.9c0.9,0.5,2.1,1.7,3.2,2.3c0.1,0.1,0.8,0.1,0.8,0.1
				c0.4,0.2,1.6,1.7,2,2c1.8,1.4,3.2,2.1,5,3.1c0.3,0.2-0.2,0.5,0.2,0.7c5.2,2.7,10.8,6.9,16.5,10.5c2,1.3,5.3,3.3,8,4.5
				c0.6,0.3,0.9,0.9,1.6,1.2c0.8,0.3,1.7,0.3,2.4,0.8c0.2,0.1,0.4,0.8,0.8,1c2.6,1.2,4.7,2.7,7,3.6c1.4,0.6,2,1.6,3.1,2.2
				c0.8,0.4,1.9,0.8,2.8,1.2c0.9,0.7,1.8,1.4,2.8,2.1c1.1,0.6,2.3,1.1,3.2,1.6c0.9,0.4,1.2,1.1,2.1,1.6c1,0.6,2.2,1,3,1.4
				c0.9,0.4,1,1,2.1,1.4c0.8,0.3,2.1,0.7,2.9,1.3c0.9,0.6,2,2,2.7,2.4c0.1-0.1,0.2-0.2,0.2-0.2c0.2,0.1,0.7,0.8,1.3,1
				c2.5,1,4.7,2.6,7.1,3.5c0.3,0.1,0.4,0.7,0.9,0.9c1,0.4,2.4,0.8,3.5,1.4c0.2,0.1,0.8,1,1.4,1.2c0.1-0.1,0.2-0.2,0.2-0.2
				c0.5,0.2,1,0.7,1.4,0.9c0,0,0.1-0.1,0.1-0.1c0.4,0.2,0.6,1,1.3,1.3c3.3,1.4,6.5,3.2,9.7,4.1c0.2,0.2,0.4,0.4,0.6,0.6
				c0.4,0.2,1.1,0.3,1.5,0.3c0.1,0.2,0.2,0.3,0.2,0.5c0.7,0.2,1.8,0.2,2.5,0.5c1,0.4,1.5,1.1,2.5,1.6c0.3,0.1,0.9,0.2,1.3,0.3
				c0.5,0.4,1.1,0.8,1.6,1.2c1.5,0.5,3.8,1.2,5,1.5c0.7,0.2,2.6,1.5,2.9,1.7c1.1,0.3,2.8,0.9,3.9,1.4c0.5,0.2,0.2,0.6,0.8,0.8
				c2.4,0.9,6.4,2.5,8.1,3.9c0.2-0.1,0.3-0.2,0.5-0.2c0.8,0.2,1.8,1.2,2.6,1.5c0.7,0.3,2,0.3,2.8,0.5c1.1,0.2,3.4,1.7,4.2,2.1
				c0.5,0.2,1.2,0.2,1.7,0.3c2.1,0.7,3.5,1.3,5.6,1.7c0.1,0.2,0.2,0.3,0.2,0.5c0.6,0.2,1.7,0.4,2.3,0.7c0.2,0.2,0.3,0.3,0.5,0.5
				c1.3,0.5,3.1,0.3,4.1,0.7c0.1,0.2,0.2,0.3,0.2,0.5c0.5,0.3,1.7,0.4,2.2,0.6c0.7,0.3,0.9,0.8,1.5,1c0.5,0.2,1.3,0.1,1.8,0.2
				c0.7,0.1,1.2,0.7,2,0.8c0.1,0,0.9-0.1,1-0.1c1.1,0.3,1.7,1.1,2.8,1.6c1,0.4,2.4,0.4,3.3,0.8c0.4,0.3,0.8,0.5,1.3,0.8
				c0.5,0.2,1.4,0.1,2,0.3c0.1,0.2,0.2,0.3,0.2,0.5c0.8,0.4,2.1,0.7,3,0.9c0.7,0.2,1,0.8,1.7,1c1.2,0.4,2.7,0.5,3.9,0.9
				c3,1,5.5,2.4,8.4,2.9c0.1,0,0.7,0.6,1.2,0.7c0.6,0.1,1.5,0,2.2,0.1c1.7,0.3,3.1,1.4,4.7,2c1,0.3,2.3,0.2,3.3,0.3
				c1.2,0.2,2.1,1.1,3.2,1.4c1.6,0.4,3.8,0.5,5.1,0.7c0.7,0.1,0.9,0.7,1.6,0.9c0.4,0.1,0.9-0.1,1.3-0.1c0.1,0.2,0.2,0.3,0.2,0.5
				c0.7,0.3,2,0.8,2.9,1h2.1c0.9,0.2,1.5,0.7,2.3,0.9c1,0.2,2.4,0.2,3.5,0.5c1,0.3,1.6,0.8,2.5,0.9c0.2-0.1,0.3-0.2,0.5-0.2
				c0.3,0.2,0.5,0.4,0.8,0.6c0.6,0.1,1.6-0.2,2.2-0.1c1.1,0.2,2.1,0.7,3.2,0.9c0.5,0.1,1.2-0.1,1.7-0.1c0.6,0,1.1,0.5,1.7,0.6
				c0.7,0.1,1.5-0.1,2.2-0.1c1.8,0,3.7,0.6,5.5,0.9c1.6,0.3,3.4,0.2,5,0.3c2,0.2,3.9,1.5,5.9,1.5c1,0,2.5-0.4,3.3-0.1
				c0.2,0.2,0.3,0.3,0.5,0.5c0.4,0.2,2,0.4,2.5,0.5c0.5,0.1,1.2-0.2,1.7-0.1c2.4,0.6,4.9,1.2,7.3,0.8c0.6,1,0,0.6-0.3,1.5
				c0,0.4,0,0.8,0,1.2c0.3,0.1,0.1,0.1,0.3,0.1c0.7,0.6,1.1,0.5,1.8,0c0-0.7,0.2-1.4,0-2.1c1.2-0.3,3.3,0.7,4.7,1
				c0.8,0.2,1.8-0.1,2.7,0.1c0.7,0.3,1.5,0.7,2.2,1c4,0.9,8.4,1.9,12.4,2.1c0.9,0,1.7,0.6,2.5,0.7c0.1,0.1,0.2,0.2,0.2,0.2
				c-0.4,0.3-1,0.6-1,0.8c-0.3,0.5-0.1,0.5-0.2,0.9c0.6,0.6,0.8,0.5,1.4,0.7c0.2-0.3,0.3-0.3,0.3-0.6c0.6-0.8,0-0.9,0.3-1.7
				c0,0-0.1-0.1-0.1-0.1c0.9-0.3,2.8-0.1,3.7,0.5h0.2c0,0-0.1,0.1-0.1,0.1c0,0.3-0.4,0.2-0.6,0.6c-1,1.2,0,1.5,0.3,2.7
				c-0.1,0.5-0.4,0.9-0.5,1.4c-0.5,0-1-0.4-1.5-0.3c0-0.5,0.2-0.5-0.1-1c-0.1-0.3-0.3-0.4-0.7-0.5c-0.4-0.1-0.6,0.1-1,0.1
				c-0.5,0.6-0.4,1-0.5,1.6c0.5,0.6,0.7,0.8,1.3,0.6c0.5,1,0.7,1.9,1.7,2c0.8-0.2,0.5-0.8,0.9-1.6c0.5,0.3,0.9,0.6,1.4,0.9
				c0.3-0.4,0.4-0.4,0.5-0.7c1.3-1.4-0.2-1.5-0.2-2.8c0.1-0.2,0.2-0.4,0.3-0.6c0.1-0.8-0.5-1.4-1.2-2.1c0.4-0.2,0.6-0.2,0.9-0.2
				c3.7,0.5,1.7,3.1,1.8,5.1c-1,1-0.9,1.2-2,1.3c0,0.2-0.6,0.7-1,0.8c-0.3,0-0.9-0.2-1.2,0c-0.4,0.3-0.2,1-0.9,1.4
				c-0.9,0.5-1.9,0.7-2.8,1.2c-0.1-0.1-0.2-0.2-0.3-0.3c-0.2,0.2-0.3,0.3-0.5,0.5c-0.2-0.1-0.3-0.2-0.5-0.2c0-0.3,0.1-0.7,0.1-1
				c-0.7-0.7-0.8-0.6-1.5-0.3c-0.5,0.1-0.9,0.8-0.8,1.5c-1.1,0.9-2.8,0.2-3.5,0.7c-0.2-0.3-0.2-0.3-0.2-0.5c-0.8-0.9-1-0.7-1.7-0.8
				c-0.3,0.2-0.3,0.3-0.6,0.3c-1.6,1.6-1.9,0.8-3.3,0.8c-1.2,0-2.3,0.7-3.5,0.7c-1.7,0-3.4-0.5-5.1-0.5c-0.6,0-1.1,0.5-1.7,0.6
				c-0.5,0.1-1.1-0.4-1.6-0.5c-0.9-0.1-2.1,0.3-3,0.2c-0.3,0-0.6-0.4-0.9-0.5c-1.1-0.1-2.4,0.4-3.5,0.2c-0.4,0-0.7-0.3-1-0.3
				c-0.3,0-0.8,0.3-1.2,0.2c-0.6-0.1-1-0.6-1.6-0.7c-0.4-0.1-0.9,0.4-1.3,0.3c-0.1-0.1-0.2-0.2-0.3-0.3c-0.4-0.1-1,0.3-1.4,0.2
				c-0.4-0.2-0.8-0.4-1.3-0.6c-1.2-0.3-2.6-0.1-3.8-0.3c-0.6-0.1-0.9-0.6-1.5-0.8c-0.4-0.1-0.8,0.2-1.2,0.2c-0.5,0-1-0.5-1.5-0.6
				c-0.2,0-0.5,0.3-0.7,0.2c-0.5-0.3-1-0.5-1.5-0.8c-0.8-0.2-1.9,0-2.8-0.2l-1.4-0.7c-0.6-0.1-2-0.1-2.5-0.2c-0.4-0.1-0.6-0.5-1-0.6
				c-0.3-0.1-0.9,0.2-1.3,0.1c-1.1-0.2-2-0.8-3.1-0.8c-0.4,0-1.3,0.7-1.3,1.5c0,0.2,0.1,0.4,0.1,0.6c1.8,1.5,4.1,0.8,6.3,1.3
				c0.9,0.2,1.5,0.5,2.4,0.8c1.1,0.3,2.6,0.2,3.7,0.5c0.5,0.1,0.7,0.6,1.2,0.7c1.4,0.2,2.9,0.2,4.3,0.6c1.6,0.5,6,2,7.5,1.5
				c0.1,0.1,0.2,0.2,0.3,0.3c1.2-0.7,4.1,0.5,5.6,0.1c0.1,0.1,0.2,0.2,0.3,0.3c0.1-0.1,0.2-0.2,0.3-0.3c1.2,0.6,1.8,0.6,3,1.6
				c1-0.4,1.8-0.1,2.8-0.2c0.5,0.6,0.7,1.5,1,1.7c0.9,0.8,1.8,0.1,2.7-0.1c0.6,0.6,0.9,0.9,1.3,1c0.3,0.3,0.3,0.4,0.5,0.7
				c-0.8,0.7-1.5,1.3-1.6,1.8l-0.2,0.2c-0.8-0.8-1.6-1.6-1.7-2.4c-0.6-0.4-0.5-0.3-1-0.3c-0.4,0.4-0.6,0.4-0.7,0.7
				c-0.8,0.9-0.3,1-0.2,1.8c-0.2,0.2-1.4,0.1-1.6,0.9c-0.4,0.5-0.4,0.6-0.3,1c0.1,0.4,0.5,0.8,0.7,0.9c-0.1,0.4-0.1,0,0,0.5
				c-0.5,0.6-0.7,1.1-1.4,1.2c0,0-0.1,0.1-0.1,0.1c-0.1-0.4-0.1-1.4,0-1.8c-0.5-0.4-0.7-0.3-1.3-0.6c-0.7,0.6-0.7,0.7-1.5,1.5
				c-0.5-0.5-0.6-0.7-0.7-1.2c-0.7,0.1-1.8-0.6-2.1,0.5c-0.2,0.5,0.1,0.6,0.1,1c1.3,0.9,3.2-0.4,3.6,0.8c0.1,0.1,0.2,0.2,0.2,0.2
				c-1.4,1-3.6,0.7-5.1,0.9c-0.9,0.2-1.7,0.8-2.6,0.3c-0.1,0.1-0.2,0.2-0.3,0.3c-1-0.6-2.1,0.2-3.1,0.1c-1.5-0.2-3-0.3-4.5-0.3
				c-0.5,0-1.2,0.2-1.7,0.1c-0.1-0.1-0.2-0.2-0.3-0.3c-0.8-0.1-2.7,0.2-3-1.2c-0.7-0.7-1.1-0.8-1.7-1c-0.7,0.8-0.8,1.2-1,1.7
				c-1.7-0.5-3.6-0.2-5.5-0.5c-1.2-0.2-2.3-0.9-3.6-1c-0.2-0.4-0.1-0.6-0.3-1c0-0.2,0-0.1-0.1-0.3h-0.9c-0.3,0.5-0.5,1-0.6,1.5
				c-1,0-1.8-0.7-2.9-0.8c-0.2,0-0.5,0.3-0.7,0.2c-0.4-0.1-0.5-0.4-0.9-0.5c-0.5,0-1.2,0.4-1.7,0.3c-0.9-0.1-1.5-0.8-2.4-1
				c-0.4,0-0.8,0-1.2,0c-1.2-0.5-0.9-1.4-1.8-1.6c-0.7-0.1-1.6,0.9-2.3,0.7c-3.8-0.9-8-2.1-11.4-3.8c-0.3-0.2-0.9,0.2-1.3,0.1
				c-1.6-0.5-2.6-1.8-4.3-1c0,0-0.1-0.1-0.1-0.1c-0.7,2.2,2.3,3.1,4.3,3.8c0.7,0.3,1.6,0.1,2.3,0.2c0.2,0.2,0.3,0.3,0.5,0.5
				c0.2-0.1,0.3-0.2,0.5-0.2c1,0.2,1.5,0.9,2.5,1.2c0.2,0.1,0.5-0.2,0.7-0.2c0.9,0.1,1.1,0.9,2,1c0.3,0,0.7-0.1,1-0.1
				c0.3,0.2,0.5,0.4,0.8,0.6c1.1,0.3,2.5,0.2,3.6,0.6c0.9,0.3,1.4,0.8,2.3,0.7c0.2,0.3,0.3,0.3,0.3,0.6c0.1,0.3,0.4,0.2,0,0.5
				c0,0-0.1-0.1-0.1-0.1c-0.6,0.6-0.7,0.9-0.3,1.5c0,0.2,0,0.1,0.1,0.3c0.3,0,0.5,0,0.8,0.1c0.3-0.3,0.4-0.4,0.5-0.7
				c0.3-0.7-0.1-0.9-0.1-1.5c0,0-0.1-0.1-0.1-0.1c2.4,0.1,4.8,1.2,7.1,1.2c0.3,0.3,0.4,0.4,0.5,0.7c0.2,0.5,0.1,0.7,0,1.2
				c-0.5-0.1-0.9-0.2-1.4-0.2c-0.4,0.4-0.5,0.6-0.6,1v0.7c0.6,0.5,0.8,0.5,1,0.8c1-0.4,1.1-0.3,2-1.3c0.6,0.4,0.8,0.2,1.4,0.5v0.5
				c-0.1,0.9-0.9,1.8-1.3,2.7c0.4,0.4,1,0.8,1.2,1.4c0.6,0.5,0.7,0.5,1.2,0.7c0.5-0.4,0.7-0.7,1-0.8c0.4-0.9,0-1.4-0.6-2.2
				c0.5-0.3,0.7-0.2,1.3-0.6c0,0,0.1,0.1,0.1,0.1c-0.1,0.5-0.1,1.3,0.1,1.7c-0.1,0.1-0.2,0.2-0.3,0.3c0.1,0.1,0.2,0.2,0.3,0.3
				c-0.1,0.4-0.2,0.7-0.1,1c-0.5,0.5-0.9,0.8-1,1c-0.5-0.1-1,0.2-1.5,0.1c-0.2-0.1-0.5-0.8-0.3-1.3c-0.6-0.2-0.9,0-1.5-0.1
				c-0.8,0.7-0.9,1.1-0.9,2.1c-0.7,0.6-3.2,0.6-3.8,0.1c-0.2,0-0.1,0-0.3-0.1c0.1-0.4,0.1-0.3,0-0.7c0.1-0.1,0.2-0.2,0.3-0.3
				c-0.4-0.5-0.6-0.5-0.5-0.9c-0.6-0.4-0.5,0-1.3,0.1c-0.8,0.8-1,1.3-0.2,2.1c-0.4,0.3-0.3,0.2-0.5,0.7c-0.9-0.1-1.6,0.4-2.5,0.5
				c-0.6,0.1-1.3-0.5-2-0.6c-0.9-0.1-2,0.5-3,0.5c-0.3-0.1-0.6-0.6-0.6-1c-0.6-0.6-0.8-0.7-1.3-0.8c-0.5,0.6-1,1.4-1.5,1.5
				c-1.2,0.8-4.8-0.9-5.8-1.2c-0.5-0.2-0.7,0.2-1.4-0.2c-0.2-0.1-0.2,0.1-0.2-0.2c-0.3-0.5-0.2-1.2-0.1-1.7
				c-0.6-0.4-0.8-0.3-1.4-0.5c-0.5,0.6-0.6,1-0.5,1.6c-0.5,0.4-0.5,0.2-1,0.6c-0.5-0.7-1.4-0.6-2.2-1c0.4-0.7,0.9-1,1.2-1.8
				c-0.4-0.3-0.5-0.4-0.7-0.5c-0.2-0.1-0.3-0.2-0.5-0.2c-0.5,0.5-0.6,0.5-0.9,0.7c0,0.3,0,0.5-0.1,0.8c0.4,0.4,0.3,0.4,0.8,0.6
				c-0.9,0.4-1.8,0.2-2.1,0.5c-0.5-0.4-0.3-0.3-0.7-0.7c-0.2,0.1-0.3,0.1-0.6,0.3c-0.8-0.6-1.3-0.3-2.1-0.5
				c-0.6-0.1-1.2-0.7-2.1-0.9c-2.2-0.6-5.3-0.4-7.5-2.4c-0.1,0.1-0.2,0.2-0.3,0.3c-0.6-0.5-3.1-1-3.2-0.9c-0.5-0.6-7-3.7-8.1-3.9
				c-0.5-0.1-1,0.2-1.5,0.1c-0.3,0.4-0.3,0.6-0.5,0.9c0.6,1.4,2.3,2.1,3.3,2.2c0.1,0.6,3.4,1.5,4.3,2c2.2,1.1,4.5,1.4,6.6,2.2
				c1.3,0.5,2.2,1.1,3.5,1.6c1.1,0.4,2.3,0.1,3.5,1.2c-0.4,0.4-0.8,0.8-1.3,1.3c0.3,0.5,0.2,0.1,0.1,0.6c0.6,0.6,0.9,0.8,1.4,0.9
				c0.5-0.4,0.6-0.6,1.2-1.2c-0.1-0.1-0.2-0.2-0.3-0.3c0.1-0.4,0.1-0.7-0.1-1c0.1-0.1,0.2-0.2,0.2-0.2c1.5,0.4,3.7,1.3,5.2,1
				c0.2,0.4,0.4,0.4,0.7,0.7c0.1,0.8-0.2,1.7,0.2,2.5c-0.4,0.5-1.2,0.7-1.4,0.9c-0.5,0.5-0.4,0.6-0.6,1c0.5,0.5,1.5,0.6,1.7,1
				c0.2,0.3,0,0.7,0.1,1c-0.8,0.9-3.1,2-3.5,0.5c-0.8-0.9-1.3-0.8-2.1-0.2c0,0.3,0,0.4-0.2,0.7c0.6,0.5,1.1,0.7,1.3,1
				c0.5,0.8-0.1,1.4,0.5,2.3c0.1,0.4,0.6,0.7,1,0.8c-0.1,0.2-0.1,0.4-0.1,0.6c-1.1,0.9-2.5,0.7-3.5,0.9c-0.2-0.2-0.3-0.3-0.5-0.5
				c0.5-0.5,1.2-0.6,1.3-1.3c0.2-0.7-0.8-3.1-1.7-3.3c-0.2-0.1-0.3-0.2-0.5-0.2c-1.4,1.3-0.5,1.6-1,2.4c-0.4,0.5-1.1,0.3-1.3,1.3
				c-0.2,0.6,0.2,1.2,0.8,1.7c-2.1,1.3-3.9,0-6-0.5c0.2-0.6,0-0.8,0.2-1.4c-0.6-0.7-0.8-0.8-1.7-1.7c0.1-0.1,0.2-0.2,0.3-0.3
				c0-0.1,0-0.2,0-0.2c-0.1-0.3-0.1-0.1-0.1-0.3c-0.9-0.9-1.2-0.6-2.1-0.7c-0.3,0.4-0.4,0.6-0.5,0.9c-0.1,0.5,0,0.7,0.6,1.3
				c0.1-0.1,0.2-0.2,0.3-0.3c0.5,0.4,0.4,0.3,0.8,0.8c-0.3,0.5-0.3,0.6-0.1,1c-1.3,1.2-2.8,0.1-4.1,0c-1.7-0.2-3.8-0.7-4.7-1.3
				c-0.6-0.3-1.5-0.2-2-1c-0.1-0.2,0-1-0.2-1.4c-0.3-0.5-0.9-0.6-1.4-0.9c-0.4,0.4-0.8,0.9-1.2,0.9c-1.6,0.7-3.2-0.9-4.8-1.6
				c-0.5-0.2-1.1-0.2-1.7-0.3c-0.6-0.2-1.3-0.6-1.7-0.8c-0.1-0.2-0.2-0.3-0.2-0.5c-0.5-0.1-2.4-0.8-3.2-1.2c-1-0.4-1.9-1.4-3.3-2
				c-1.1-0.4-2.8-0.7-3.8-1.3c-0.5-0.3-1.3-1.4-2.2-1.7c-0.6-0.2-1.3-0.1-1.7-0.6c-0.4,0.2-0.5,0.1-0.9,0.5
				c-0.3,0.1-0.2,0.2-0.6,0.6c0.1,0.3,0.2,0.6,0.2,0.9c2.4,2.3,6.7,3.4,9.6,4.5c0.2,0.1,0,0.5,0.3,0.6c2,0.7,5.5,3.4,8.6,3.8
				c1.3,1.2,0.7,1.7,0.5,2.5c-1.1-0.4-2.4-1.4-3.1-2.4c-0.3,0.1-0.5,0.2-0.8,0.1c-1.1,1.2-0.2,1.8,0,3c0,0.1-0.4,1.5-0.6,2
				c0.7,0.6,1.1,0.5,1.7,0.8c0.8-0.9,1.3-2,1.8-1.6c0.2,0.8-0.3,0.5-0.6,1.3c-0.4,1.3-0.8,1.2-2.1,2.1c-0.1-0.1-0.2-0.2-0.3-0.3
				c-0.5,0.3-0.7,0.2-1.3,0.3c-0.7-0.9,0.3-1.1,0.1-2l-0.5-0.5c0.1,0,0.2-0.1,0.3-0.1c-1.5-1-2.8,0.2-4.3,1.3
				c-0.3-0.1-0.1-0.1-0.3-0.1c0-0.4,0.1-0.9,0.1-1.3c-0.8-0.9-1.9-1-2.2-0.1c-0.4,0.6-0.3,1.4-0.1,2c-0.6,0.6-0.8,0.5-1.4,0.7
				c-0.4-0.4-0.6-0.6-0.9-0.7c0.7-1.6-0.2-2.9-0.3-4.5c-0.5-0.2-0.9-0.1-1.4-0.2c-0.3,0.4-1.4,1.3-1.6,1.6c-0.3,0.6,0.1,1.7-0.6,2
				c-0.7,0.2-2.7-0.3-3.5-0.7c-0.3-0.1-0.5-0.4-0.6-0.6c-0.2-0.8,1.1-1.7,1.7-2.4c-0.3-0.9-1.1-1.1-1.5-1.5c-0.7,0.5-2.5,1-2.9,2.2
				c-1.4,0.1-3.3-0.5-4.6-1.2c-0.5-0.4-1-0.8-1.5-1.3c-4.6-1.3-9.9-4.8-14.2-7c-2.6-1.4-5-4.7-8-4.7c-0.2,0.1-0.6,0.5-0.9,0.7
				c0.2,0.5,0.2,0.7,0,1.2c1.2,1.1,2.5,1.5,3.5,2.3c0.2,0.7,3.1,2.1,4.3,2.7c2.1,1,3.7,2.4,5.4,3.6c0.3,0.2,1.4,0.5,1.8,0.7
				c0.7,0.3,1.3,0.8,1.6,1.2c0.9,0.2,1.6,0.4,2.7,0.8c2.3,1,4.3,2.4,6.6,3.3c0.7,0.3,1.4,1,1.5,1.5v0.2l-0.1-0.1
				c-0.6,0.1-1.3-0.4-1.8-0.7c-1.2,1.2-0.3,2,0.1,3.1c-0.4,0.6-0.5,1.1-1.2,1.4c0,0.1-0.7,0.3-1,0.3c-0.3,0-0.5-0.1-0.8-0.1
				c-0.9-1.3,0.4-1.9,1.2-3.2c-0.3-0.5-0.4-1.1-1-1.3c-0.5-0.2-0.6-0.2-1,0.1c-0.7,0.3-0.3,1.4-0.5,2.1c-0.1,0.5-0.8,0.9-1.3,1.3
				l0.3,0.3c-0.7,0.9-0.5,0.9-1.5,1.3c-0.3-0.2-0.5-0.3-0.8-0.3c-0.2-0.6,0.3-1.2,0.2-1.8c-0.2-0.6-0.7-0.6-1.4-1.2
				c-0.8,0.6-1.3,1.1-1.8,1.6l0.1,0.1c0,0.1,0,0.2,0,0.2c0,0,0.1-0.1,0.1-0.1l0.1,0.1c-0.9,0.5-2.1,1.1-3.3,0.6
				c-0.2,0-0.7-0.4-0.9-0.5c0.1-0.1,0.8-0.8,0.8-0.8c0.1-0.4-0.3-0.3,0.1-0.8l-0.9-0.9c-0.7,0.5-0.6,0.4-1.3,0.8
				c0.1,0.4,0.2,0.8,0.3,1.3c-0.9,0.9-2,0.4-2.9-0.3c-1,0.8-1.5-0.2-2.5-0.5c-1.8-0.5-5-1.2-6.6-2.4c0-0.2,0-0.4-0.1-0.6
				c0.7-0.6,1.5-1.2,2.2-1.7c-0.1-0.5-0.3-0.1-0.1-0.6c-0.6-0.5-0.8-0.5-1.3-0.8c-0.7,0.7-2.6,2.2-2.8,2.5c-1.1,1-1.5,0-2-0.1
				l-0.1-0.1c0.3-0.3,0.7-0.5,1-0.8c-0.1-0.1-0.2-0.2-0.3-0.3c0.3-0.5,0.3-0.4,0-0.9c-0.2-0.4-0.7-0.4-1.2-0.5
				c-0.7,0.8-0.4,1.1-0.7,1.8c0.4,0.1,0,0.1,0.5,0c0.1,0.2,0.2,0.3,0.2,0.5c-0.9,0.6-1.4-0.2-2.3-0.5c-0.9-0.2-6.4-3.4-7-4
				c-0.5-0.5-0.4-1.3-0.8-2c-1,0-1.4,0.6-2.3,0.7c-1.1,0.1-3-1.4-3.3-2.2c-0.3-0.6-0.1-1.4-1.3-2c-1.2-0.6-2.3-0.1-3.5-0.2
				c-1.1-0.2-2.8-1.6-3.7-2.8c0.5-0.8,0.4-1.4-0.1-2.2c-0.5,0-1-0.4-1.5-0.3c-1.4,0.1-2,0.7-3.5,0c-1.5-0.8-2.7-2.5-3.9-2.8
				c-0.4-0.4-0.9-0.8-0.9-1.2c0,0-0.1-0.1-0.1-0.1c0.9-0.4,1.4,0.2,2.3-0.5c0.3-0.1,0.4-0.3,0.5-0.7c0.1-0.1,0.2-0.2,0.2-0.2
				c-1.7-1.8-2.6-1.1-4.3-2c-0.5-0.2-1-1-1.7-1c-0.4,0-2.1,0.5-2.5,0.7c-0.3-0.3-0.4-0.4-0.7-0.5c-0.3-0.4-0.2-0.3-0.2-0.7
				c0.7-0.5,1.6-0.6,2.3-0.5c0.4-0.5,0.3-0.3,0.7-0.7c0-0.4,0.1-0.4-0.1-0.8c-0.4-0.8-1.3-0.4-2.2-0.6c-0.8-0.1-1.4-0.7-2.2-0.8
				c-1.1-0.1-2.5,0.5-3.6,0.1c-0.6-0.2-1.2-1.2-1.8-1.4c-0.5-0.6-0.7-0.8-0.8-1.3c0.6-0.4,1.7-0.2,2-1c0.1-0.4,0-0.3,0-0.7
				c-1.9-1.7-4-0.8-5.8-1.2c-1-0.2-1.8-1.1-2.5-1.6c-0.3-0.2-0.6-0.3-0.7-0.7c-0.2-0.4-0.1-0.4-0.2-0.7c1-0.7,1.8-0.2,2.8-0.7
				c0.2,0,0.2-0.1,0.6-0.3c-0.2-0.6-0.2-0.8-0.7-1.2c0.1-0.3-4.3-0.6-5.2-0.6c0,0-0.1-0.1-0.1-0.1c0,0.1-0.1,0.2-0.1,0.3
				c-0.5-0.2-0.9,0-1.4-0.2c-1.2-0.3-2.3-1.7-3.3-2.9c0.2-0.3,0.2-0.3,0.3-0.6h1.6c0.3-0.3,0.4-0.4,0.5-0.7c0.2-0.4,0.1-0.4,0.2-0.7
				c-1-0.7-2.4-1.8-3.7-1.8c-0.8-0.1-1.8,0.6-2.7,0.3c-1.5-0.4-2.1-1.7-3.2-2.5c0-0.1,0-0.2,0-0.2c0.8-0.5,1.8,0.1,2.2-0.8
				c0.3-0.5,0.4-0.6,0-1.2c-0.5-1.3-4.4-1.1-5.3-0.5c-0.2-0.5-1.3-1.4-1.7-1.5c-0.7-0.6-0.9-0.9-0.8-1.5c0,0,2.4-1,2.4-1
				c0-0.3-0.1-0.2,0.1-0.6c-0.2-0.3-0.2-0.3-0.2-0.5c-2-1.7-4.1-0.3-6-0.9c-0.9-0.3-1.3-1.5-2.4-2.2c-0.5-0.3-1.5-1-1.6-1.4
				c-0.4-0.4-0.4-0.4-0.3-0.8c0-0.1,0-0.2,0-0.2c0.7,0.1,0.7-0.1,1.4,0c0.9-0.9,0.7-1,0.7-1.8c-0.9-0.6-3-1.5-3.9-1.4
				c-0.6,0.1-1.2,0.5-1.8,0.5c-1,0-1.7-1.1-2.8-1.4c-0.1-0.1-0.2-0.2-0.2-0.2c0.1-0.3,0.1-0.1,0.1-0.3c0.8-0.8,1.9-0.6,2.7-0.3
				c0.3-0.3,0.2-0.1,0.3-0.3c1.8-2-2-2.3-2.9-2.9c-0.9,0.5-2.2,0.7-3.1,1c-1-0.9-2.1-2.1-3.1-2.7c0,0,0.1-0.1,0.1-0.1
				c0.1-0.6,1.1-0.7,1.8-0.5c0.3-0.3,0.6-0.6,0.7-0.9l0.2-0.2c-1-1-2.7-2-3.9-2.1c-0.8-0.1-1.7,0.3-2.5,0c-1.1-0.4-2.4-2.5-3.2-3.2
				c0.1-0.1,0.2-0.2,0.2-0.2c0.2-0.5,1.1-0.7,1.7-1c0-0.2,0-0.4,0.1-0.6c-1.1-1.3-4.3-2.2-5.8-1.8c-1.3-1.2-2-1.6-2.5-3
				c0.1-0.3,0.1-0.1,0.1-0.3c0.7,0,1.4,0,2.1,0c0.6-0.6,0.5-0.8,0.7-1.4c-1.6-1.7-4.7-1.8-6.7-1.6c-1.3-1.3-1.6-2.3-2.8-3
				c0-0.3,0.1-0.2-0.1-0.6c0.7-0.5,1.5-0.4,2-0.8c0.3-0.2,0.2-0.5,0.5-0.9c-0.4-0.4-0.6-1.1-1.3-1.3c-1.2-0.4-6.1,0.4-6.5-2.5
				c0-0.2,0-0.1,0.1-0.3c0.2,0,0.1,0,0.3-0.1c0.1,0.1,0.2,0.2,0.3,0.3c0.6-0.4,1.2-0.5,1.3-0.8c0.4-0.6,0.2-0.6,0.5-1.2
				c-1.3-0.8-2.5-1-3.9-1.4c-0.8-0.2-2.1,0.1-2.9-0.3c-1-0.5-1.3-2.1-2.5-2.8c0-0.3,0.1-0.2-0.1-0.6c0.7-0.7,1.2-0.6,2.1-1.6
				c0-0.1,0-0.2,0-0.2c-1.9-1.7-4.2-1.2-6-2.3c-0.7-0.3-0.7-1.4-1.4-1.8c0.7-0.2,1.3-0.1,2.1-0.5c0.2,0,0.3-0.3,0.3-0.6
				c0.1-0.4,0-0.4-0.1-0.8c0-0.1-1.7-1.5-2.1-1.6c-0.7-0.1-4-0.2-4.6-1.4c-0.6-0.6-0.7-0.7-0.6-1.3c0.1-0.5,0.7-0.5,1.4-0.9
				c0-0.3,0-0.5,0.1-0.8c-1.1-1-1.8-0.8-2.8-1.6c-0.1,0.1-0.2,0.2-0.3,0.3c-1.2-0.9-3.3-0.7-3.7-2.3c-0.1-0.1-0.2-0.2-0.3-0.3
				c1.4-2.1,1.8-3.5-1.2-4.1c-0.7-0.2-1.3,0.4-2.1,0c-1-0.2-1.4-1.3-2.1-2.1c0.7-0.9,1.6-1.2,2.3-1.6c-0.1-0.6-0.4-0.4-0.1-1
				c-0.8-0.3-6.1-2.1-6.6-2c-0.6-0.8-1-1.7-1.5-2.4c0.5-0.3,1.3-0.6,1.4-1.2c0.1-0.4,0-0.5,0-0.9c-0.9-0.8-1.9-1.5-2.9-1.7
				c-0.9-0.2-1.7,0.2-2.6-0.3c-0.3,0-1.4-1.6-1.7-2.2c0.6-0.4,1.7-0.6,1.8-1.2c0.2-0.3,0.2-0.3,0.3-0.6c-0.1-0.5-0.3-0.1-0.1-0.6
				c-1.6-1-3.2-0.7-4.3-1.5c-0.1,0.1-0.2,0.2-0.3,0.3c-0.8-0.5-1.1-0.5-1.6-0.9c-0.4-0.4-0.8-1.3-1.5-1.5c0-0.2,0-0.2,0.2-0.5
				c-0.1-0.1-0.2-0.2-0.3-0.3c0.6-0.5,1.4-0.9,1.5-1.5c0.2-0.4,0.1-0.3,0.2-0.7c-1.2-1.2-4.1-2.3-5.3-1.8c-0.3-0.7-1.3-2.1-2-2.4
				c0.1-0.2,0.2-0.4,0.3-0.6c0.1-0.2,0.5-0.4,0.9-0.5c0.8-0.8,0.7-1.1,0.2-1.8c-0.2-0.8-3.7-1.5-4.4-1.2c-1.4-1.4-1.8-1.8-2.4-3.3
				c0-0.1,0-0.2,0-0.2c0.2,0,0.2,0,0.5,0.2c0.1-0.1,0.2-0.2,0.3-0.3c0.1,0.1,0.2,0.2,0.3,0.3c0.1-0.1,0.2-0.2,0.3-0.3
				c0.1,0.1,0.2,0.2,0.3,0.3c0.7-0.6,0.8-0.7,1-1.5c-0.3-0.7-0.7-1.1-1.2-1.2c-0.4-0.2,0,0-0.5,0c-0.4,0-4.9-1.3-5.6-1.7
				c-1.2-0.6-1.1-1.8-2.3-2.1c-0.7-0.3-1.6,0.3-1.6,1.2c-0.2,1.9,3.2,3.5,4.6,5.5c0.4,0.6,2,1.8,2.4,2.4c0.6,0.9,1.4,2.6,2.1,3.2
				c0.5,0.5,2.1,1.7,2.7,2.7c2.3,3.9,5.4,7.8,8,10c1.7,1.5,2.5,3.1,3.5,4.4c0.4,0.3,0.8,0.7,1.3,1c1.2,1.2,1.8,2,3,3
				c2,1.7,3.1,4.8,5.4,6.3c1.6,1.1,2.9,3.2,4,5c1.1,1.6,2.3,1.9,3.8,4c0.8,1.1,2.8,2.8,3.8,4.3c1.7,2.7,4.3,5.5,6.1,7
				c1.5,1.3,3.5,3.7,3.9,4.4c0.2,0.3,1.3,1.6,1.4,1.6c0.2,0.1,0.3-0.2,0.6,0.1c0.4,0.6,0.9,1.6,1.2,1.8c1.5,1.3,2.4,2.6,3.8,4.3
				c0.4,0.3,0.8,0.5,1.3,0.8c0.8,1.1,2,2.1,3,3.5c0.6,0.8,2.5,1.7,3,2.5v0.5c0.4,0.5,1,0.5,1.5,1.3c0,0.1,0.2,0.7,0.3,0.8
				c0.1-0.1,0.2-0.4,0.3-0.1c0.5,1.2,2.6,3.6,3.5,4.1c0.8,0.5,2,1.5,2.4,2c0.8,0.9,1.9,2.7,3,3.5c1.6,1.1,2.6,2.1,3.5,3.2
				c0.7,0.9,1.8,1.3,2.4,2c0.8,0.8,1.6,2.7,3.3,3.8c0.4,0.2,0.6,0.8,1,1c0.2,0,0.2-0.4,0.5,0c-0.1,0.1-0.2,0.2-0.2,0.2
				c0.6,1.3,4,3.6,5,4.3c0.5,0.3,3.4,2.9,3.6,3.1c0.2,0.2,0.5,0.8,0.7,0.9c0.7,0.5,2.6,1.4,3.2,2.1c2.2,2.2,4.5,4.5,7,6.3
				c1,0.7,1.6,2,2.5,2.8c1.3,1.1,3,2.6,4.4,3.5c1.3,0.9,2.3,2.1,3,3c1.2,1.3,2.6,2.3,3.6,2.9c1.1,0.7,1.2,1.6,2.2,2.2
				c0.7,0.4,1.8,1.2,2.5,1.6c0.3,0.4,0.7,0.8,1,1.3c1.6,1,2.7,1.9,4.2,3c0.3,0.3,0.6,0.9,0.8,1c2.5,1.4,6.3,4.4,8.5,6
				c0.7,0.7,1.5,1.5,2.2,2.2c3.4,2,6.1,4.4,8.8,6c0.5,0.3,1.7,1.6,2.2,2c0.7,0.4,1.4,0.6,2.1,0.9c0.8,0.4,1.2,1.1,1.6,1.4
				c1.3,0.8,3.4,1.9,4.4,2.3c0.5,0.5,1.1,0.9,1.6,1.4c1.1,0.6,2.5,1.2,3.6,1.7c0.6,0.5,1.2,0.9,1.8,1.4c2.9,1.4,5.3,2.4,8.3,3.7
				c0.7,1.3,3.4,2,4.6,2.5c0.4,0.3,0.8,0.7,1.3,1c0.5,0.2,3.3,1.3,4.2,1.4c0.2-0.1,0.5-0.2,0.7-0.2c0.9,0.2,1.6,1,2.5,1.2
				c1.6,0.3,3.6,0.6,5.1,1.2c1,0.4,1.6,1,2.5,1.2c0.7,0.2,1.8,0.1,2.5,0.5c0.6,0.3,1.4,1.3,1.6,1.4c0.6,0.1,1.6-0.1,2.2,0.1
				c2.5,0.8,4.8,1.6,7.3,2c0.6,0.1,1.8,0.2,2.4,0.1c0.3-0.1,0.7-0.4,1-0.3c0.8,0.1,1.8,0.4,2.5,0.2c0.2-0.1,0.7-0.3,0.8-0.3
				c0.3-0.2,0-0.6,0.1-0.6c1.2-0.2,2.1-0.8,3.1-1.7l1.2-1.2c0.8-0.4,1.2-0.5,2.2-1.5c3.4,1,6.7,0.5,10,0.8c0.6,0.1,1.2,0.5,1.8,0.5
				c0.2,0,1.2-0.4,1.4-0.5c2.1-0.2,4.4,0,6.5-0.7c1.4-0.5,2.9-1.7,3.7-2.5c0.6-0.7,0.3-1.5,1.3-1.7c1.2-0.4,5.8,1,7.4,1.2
				c0.3,0,0.7-0.3,0.9-0.2c0.3,0,0.5,0.3,0.8,0.3c0-0.1,0.1-0.2,0.1-0.3c0.3,0.2,0.5,0.4,0.8,0.6c0.6,0.2,1.2-0.1,1.7-0.1
				c0.6,0,1,0.6,1.6,0.7l0.2-0.2c0.4,0,0.7,0.3,1,0.3c0.2,0,0.5-0.2,0.7-0.2c0.7,0,1.3,0.5,2,0.6c0.8,0.1,1.7-0.4,2.4-0.3
				c0.9,0.1,1.8,0.7,2.8,0.7c1.6-0.1,3.6-1.5,5.3-2.1c1.2-0.4,3.7-0.5,4.7-2.2c0.7-1.2,1.6-1.9,2.2-3.1c0.5-1.2,0.1-2.2,1.3-3.6
				c-0.1-0.1-0.2-0.2-0.3-0.3c0.5-0.8,0.1-1.3,0.5-2.1c0.2-0.8,2.4-0.8,3.1-0.6c0.1-0.1,0.2-0.2,0.3-0.3c0.8,0.5,1.2,0,2,0.1
				c0.6,0.1,1.4,0.7,2.1,0.7c0.4,0,0.8-0.4,1.2-0.5c0.9-0.1,2.5,0.2,3.3,0.1c0.6-0.1,1.1-0.5,1.7-0.6c1.5-0.2,3.1,0.4,4.6,0.2
				c4-0.6,11.9-1.2,15-4.1c0.4-0.3,1-0.3,1.4-0.5c0.5-0.3,2.8-2.4,2.9-2.9c0.2-0.9,0-2.3,0.2-3.2c0.1-0.4,0.5-0.7,0.6-1
				c1.3-0.6,2.5,0.1,3.7,0.5c0.1-0.1,0.2-0.2,0.3-0.3c1.8,1.1,6.4,0.5,8.3,0.5c0.6,0,1.3,0.6,2,0.6c1.2,0,2.4-0.6,3.7-0.7
				c1.4-0.1,2.6-0.1,4-0.3c0.4-0.1,0.9,0.3,1.4,0.2c0.1-0.1,0.2-0.2,0.3-0.3c0.7,0,1.5,0.3,2.2,0.1c0.4-0.3,0.8-0.5,1.3-0.8
				c0.1,0.1,0.2,0.2,0.2,0.2c0.7-0.1,1.3-0.3,2-0.3c0-0.1,0.7-0.8,1.2-0.9c1-0.2,2.4-0.1,3.3-0.6c0.6-0.4,0.6-1.1,1.2-1.4
				c0.2-0.1,1.2-0.4,1.4-0.7c0-0.1-0.1-0.2-0.1-0.3c0.4-0.6,1.2-0.2,1.7-1c1.4-2.3,2.8-4.9,2.4-7.5c1.4-1.1,1.4,0,2.4-0.1
				c0.1-0.1,0.2-0.2,0.3-0.3c1.1-0.2,2.4,0.4,3.5,0.2c0.6-0.1,1.7-0.5,2.2-0.6c0.4,0,0.9,0.5,1.4,0.5c0.9,0,2-0.7,2.9-0.3
				c0.1-0.1,0.2-0.2,0.3-0.3c0.1,0.1,0.2,0.2,0.3,0.3c4.2-1.2,9.5-2,12.3-7.3c0.6-1.1,1.4-1.7,1.6-2.8c0.1-0.5-0.1-1.2-0.1-1.7
				c0-0.4,0.3-0.6,0.3-1C616.7,340.5,616.1,338.5,615.9,337.6z M540.6,366.7c-0.5-0.4-0.6-0.6-1-0.6c-0.5-0.6-0.4-0.7-0.6-1.3
				c0.1-0.3,0.1-0.1,0.1-0.3c0.6-0.3,0.8-0.1,1.4-0.2c0.5,0.7,0.4,1.1,0.8,1.7C541.1,366.2,540.8,366.5,540.6,366.7z M583.7,357.3
				c-0.1,0.3-0.4,0.3-0.5,0.5c0.1,0.2,0.2,0.3,0.2,0.5c-0.1,0-0.5,0.1-0.6,0.3c-0.7,2.6-2.9,1.8-5,2.9c-2.3-2.2-0.2-1.8-0.7-3.5
				c0.1-0.1,0.2-0.2,0.3-0.3c0.7,0.5,1.3,1.1,1.7,1.3c1.5,1.3,3.5-0.7,4.2-1.8c0.1,0,0.2,0,0.2,0
				C583.7,357.1,583.7,357.2,583.7,357.3z M332,322.7c-0.1-0.3-0.1-0.5-0.1-0.8c-0.3-0.1,0,0-0.3-0.3c-0.3,0-0.7,0-1-0.1l-0.7,0.7
				c0,0.3,0,0.6,0,0.9c0.7,0.5,0.7,0.4,1.3,0.6C331.7,323.1,331.6,323.2,332,322.7z M351.5,340.1c-0.3-0.3-0.7-0.5-1-0.8
				c-0.6,0.4-1.2,0.5-1.3,1.3c-0.1,0.2-0.2,0.3-0.2,0.5c0.3,0.1,0.1,0.1,0.3,0.1C350.6,342.3,351.1,341,351.5,340.1z M376.2,359.4
				c0.4-0.3,0.2-0.1,0.5-0.5c0.3-0.3,0.2-1-0.2-1.6c-0.1-0.5-0.6-0.7-1.3-1c-0.4,0.3-0.7,0.5-1.2,0.9c0.1,0.8,0.1,1.7,1.2,1.8
				C375.6,359.4,375.7,359.3,376.2,359.4z M384.2,367.1c-0.2-0.2-0.3-0.5-0.5-0.7c-0.7,0-2.1-0.6-2.4,0.3c-0.5,0.6-0.3,0.7-0.3,1.3
				C382.2,369.1,383.4,368.1,384.2,367.1z M403.8,356c0.2-0.1,0.4-0.1,0.6-0.1c0.3-0.3,0.4-0.4,0.5-0.7c0.1-0.5-0.1-0.8-0.1-1.3
				c-1-1.1-1.6-1.5-2.5-0.9c0.1,0.4-0.1,0.8-0.3,1.3C402.7,355.1,403,355.4,403.8,356z M389.8,371.2c0.4-0.4,0.8-0.8,0.9-1.2
				c-0.3-0.3-0.4-0.4-0.5-0.7c-0.8-0.7-0.9-0.4-1.6,0c0,0.4,0,0.8,0,1.2C389,371,389.2,371,389.8,371.2z M403,377.5
				c-0.3,0.2-0.5,0.4-0.8,0.6c0,0.4,0,0.8,0,1.2c0.4,0.3,0.3,0.2,0.6,0.6h0.7c0.7-0.7,0.4-1,0.7-1.6c-0.4-0.3-0.3-0.1-0.5-0.5
				C403.1,377.6,403.4,377.9,403,377.5z M418.7,365.6c-0.3,0.2-0.6,0.5-0.9,0.7c0.1,0.3,0.2,0.6,0.2,0.9c0.7,0.5,1,0.3,1.7,0.3
				c0.6-0.7,0.4-0.7,0.5-1.4C419.4,365.5,419.4,365.9,418.7,365.6z M412.5,377.5c-0.3-0.6-0.6-1.1-0.9-1.2c-0.4-0.2-0.7-0.2-1.2,0
				c-0.1,0.4-0.4,1-0.5,1.4c0.7,0.6,0.9,0.6,1.5,0.8C412,378.1,412,378.1,412.5,377.5z M437.5,356.2c-0.4-0.2-0.8-0.4-1.3-0.6
				c-0.3,0.2-0.5,0.4-0.8,0.6c0.1,0.3,0.2,0.5,0.1,0.8c0.6,0.5,0.8,0.4,1.3,0.6C437.5,356.9,437.4,356.8,437.5,356.2z M433.8,372.6
				c0.1,0.5,0,0.7,0.2,1.2c0.2,0.6,1.2,0.8,1.7,0.6c0.1,0,0.2,0,0.2,0c0,0-0.1-0.1-0.1-0.1c0.7-0.8,0.5-0.8,0.6-1.5
				c-0.6-0.6-1-0.7-1.6-0.7C434.4,372,434.2,372.2,433.8,372.6z M420.4,392.2c0.3-0.4,0.6-0.8,0.9-1.2c-0.1-0.3-0.2-0.5-0.1-0.8
				c-0.6-0.4-0.6-0.3-1.2-0.7c-0.2,0.3-0.6,0.5-1.2,0.9c0.2,0.4,0.2,0.6,0.1,1C419.6,391.9,419.9,391.8,420.4,392.2z M426.6,388.7
				c1-1.1,0.6-1.8,0.9-2.8c-0.4-0.4-0.7-0.7-1-0.8c-0.4-0.1-0.4-0.1-0.8-0.1c-0.2,0.2-0.3,0.3-0.5,0.5c0,0.6-0.2,1.4-0.3,2
				c0.2,0.3,0.4,0.6,0.5,0.9C425.9,388.8,426.1,388.6,426.6,388.7z M434.9,379c0.3-0.3,0.5-0.5,0.8-0.8c-0.4-0.7-0.4-0.8-1.2-1.4
				c-0.2,0.1-0.5,0.2-0.7,0.2c-0.5,0.7-0.3,0.7-0.3,1.3C434.2,379,434.4,378.9,434.9,379z M435.3,389.3c0-0.1-0.6-0.6-0.9-0.7
				c-0.5-0.3-0.6-0.2-1-0.1c0,0.2-0.4,0.7-0.5,0.9c0.1,0.3,0.1,0.1,0.1,0.3c0.6,0.6,0.8,0.6,1.3,0.8
				C434.7,390.2,435.2,389.7,435.3,389.3z M444,378.9c0,0.4,0.2,0.9,0.1,1.3c0.3,0.3,0.4,0.3,0.7,0.5c0.4-0.3,0.7-0.3,1.2-0.7
				c-0.3-0.5-0.2-0.4-0.1-0.8C445.1,378.3,444.8,378.4,444,378.9z M476.1,358.4c0.4-0.1,0.5-0.6,0.6-1c-0.9-0.9-1.5-1-2.2-1.7
				c-0.3,0.3-0.4,0.4-0.7,0.5c-0.6,0.7-0.6,0.8-0.7,1.4c0.2,0.3,0.3,0.3,0.3,0.6C474.3,358.5,475.2,358.4,476.1,358.4z M490.3,343.3
				c0.4-0.4,0.7-0.7,0.8-1c-0.6-0.7-0.7-0.8-1.4-0.5c0,0.2-0.1,0.3-0.3,0.6c0.1,0.3,0.1,0.1,0.1,0.3
				C489.8,343.1,490,343.2,490.3,343.3z M462.8,372.6c-0.3-0.4-0.2-0.5-0.6-0.6c-0.7-0.3-0.8,0-1.3,0.3c0.2,0.3,0.3,0.3,0.3,0.6
				c0.4,0.3,0.4,0.2,0.8,0.3C462.4,373,462.6,372.8,462.8,372.6z M453.6,383.6c0.4-0.5,0.7-0.9,0.7-1.4c-0.1-0.3-0.4-0.5-0.8-0.6
				c-0.8-0.3-0.9,0.1-1.4,0.5c0.1,0.4,0.2,0.9,0.2,1.4C452.8,383.7,453.2,383.6,453.6,383.6z M460.1,385c0.2-0.2,0.5-0.3,0.7-0.5
				c0-0.3,0-0.5,0.1-0.8c-0.9-0.9-1-0.6-1.8-0.2c0.1,0.4,0.1,0.6,0.3,1c0,0-0.1,0.1-0.1,0.1C459.6,384.9,459.7,384.8,460.1,385z
				 M477.9,372.7c0,0.2,0,0.2-0.2,0.5c0.1,0.2,0.1,0.4,0.1,0.6c1,1.1,1.5,0.6,2.2-0.3c-0.1-0.2-0.3-0.6-0.3-0.8
				C478.9,372,478.4,372.5,477.9,372.7z M490.1,365.8c0.4,0.1,0.3,0.1,0.7,0c0.3-0.1,0.4-0.3,0.7-0.5c-0.1-0.4-0.1-0.3,0-0.7
				c-0.4-0.4-0.5-0.7-0.8-0.8c-0.6-0.6-0.7-0.6-1.3-0.3c-0.3,0.1-0.5,0.3-0.8,0.6C489.1,364.8,489.3,365.7,490.1,365.8z
				 M506.7,353.3c-0.7-1-0.6-0.9-1.6-1.2c-0.5,0.8-0.4,1.1-0.5,1.8c0.6,0.4,0.7,0.3,1.3,0.1C506.1,354.1,506.4,353.7,506.7,353.3z
				 M498.8,361.8c0.4-0.6,0.1-0.5,0.3-1c-0.4-0.3-0.8-0.6-1.2-0.9c-0.5,0.4-0.6,0.5-1,1c0.2,0.3,0.2,0.3,0.2,0.5
				C498,362,498.1,361.8,498.8,361.8z M479.5,383.3c-0.2,0.1-0.1,0.1-0.5,0.5c0.1,0.4,0.1,0.3,0,0.7c0.7,0.7,0.7,0.6,1.4,1.2
				c0.4-0.4,0.9-0.8,0.9-1.2c0.2-0.4,0.1-0.4,0.1-0.8C480.8,383.2,480.2,383.1,479.5,383.3z M521.1,346.1c0.7-0.8,0.5-0.8,0.6-1.5
				c-0.6-0.5-0.8-0.5-1.4-0.9c-1.1,1.1-0.2,1.7,0,2.3c0.2,0.1,0.3,0.2,0.5,0.2C521.1,346.1,520.9,346.1,521.1,346.1z M489.1,381.1
				c0.2-0.3,0.5-0.6,0.7-0.9c-0.1-0.2-0.1-0.4-0.1-0.6c-0.5-0.4-0.7-0.3-1.2-0.5c-0.2,0.2-0.5,0.3-0.7,0.5c0,0.2,0,0.3,0,0.5
				c0,0.3,0.2,0.5,0.3,0.8C488.5,380.9,488.8,381,489.1,381.1z M519.3,353c-0.4-0.5-0.5-0.6-1-1c-0.3,0.3-0.6,0.6-0.7,0.9
				c-0.1,0.4,0.1,0.4,0.1,0.8c0.5,0.2,0.7,0.1,1.2,0.2C519.1,353.5,519.2,353.4,519.3,353z M494.4,382.3c0.3-0.2,0.6-0.5,0.9-0.7
				c0-0.3,0-0.6,0-0.9c0-0.1-0.3-0.6-0.7-0.7l-0.2-0.2c-0.3,0.3-0.7,0.5-1,0.8c0.1,0.5-0.1,1.3,0.8,1.5L494.4,382.3z M519.1,366.4
				c0,0.3,0,0.4-0.2,0.7c0.1,0.3,0.1,0.1,0.1,0.3c0.3,0.3,0.5,0.5,0.8,0.6c0.2,0,0.4-0.1,0.6-0.1c0.1-0.4,0.2-0.8,0.3-1.3
				C519.9,365.9,519.8,366,519.1,366.4z M523.2,365.4c-0.7-0.6-1.1-0.6-1.8-0.5c0,0.2-0.2,0.5-0.2,0.7c-0.1,0.2-0.2,0.3-0.2,0.5
				c0.3,0.2,0.3,0.2,0.5,0.2c0.6,0.6,0.8,0.6,1.4,0.5h0.2c0,0-0.1-0.1-0.1-0.1c0.4-0.5,0.3-0.5,0.5-0.9
				C523.2,365.5,523.2,365.6,523.2,365.4z M520.4,370.3c0.3,0.3,0.4,0.4,0.5,0.7l0.5,0.2c0.3-0.3,0.4-0.4,0.7-0.5
				c0.2-0.4,0.1-0.5,0.2-0.9c-0.5-0.5-0.7-0.6-1.3-0.6C520.7,369.3,520.8,369.8,520.4,370.3z M535.2,358.5c0-0.4,0-0.9,0.1-1.3
				c-0.7-0.6-1-0.5-1.6-0.5c-0.1,0.5-0.2,0.5-0.5,0.7v0.9c0.6,0.4,0.8,0.3,1.3,0.6C534.8,358.7,535,358.6,535.2,358.5z M525.6,369
				c0.8-0.8,0.9-1,0.6-1.7c-0.3,0-0.5-0.1-0.8-0.1c-0.4,0-0.6,0.2-1,0.6c0.1,0.4,0.2,0.4,0.1,0.8C525,368.9,525.1,368.7,525.6,369z
				 M547.6,353.5c-0.3-0.7-0.8-1.4-1.6-1.4c-0.1-0.1-0.2-0.2-0.2-0.2c-0.1,0.1-0.2,0.2-0.3,0.3c0,0.2-0.1,0.4-0.1,0.6
				c-0.1,0.7,0.4,1.1,0.7,1.6c0.3,0,0.4,0,0.7,0.2C547.3,354.2,547.4,354,547.6,353.5z M531.3,371c0.6,0.6,0.7,0.5,1.3,0.3
				c0.1,0,0.2,0,0.2,0c0,0-0.1-0.1-0.1-0.1c0.4-0.5,0.3-0.5,0.5-0.9c-0.2-0.3-0.5-0.6-0.7-0.9c-0.3,0-0.2,0.1-0.6-0.1
				c-0.5,0.5-0.7,0.7-0.9,0.9c0.1,0.4,0.1,0.3,0,0.7C531.2,371,531.1,370.9,531.3,371z M569.2,341.4c0.3,0,0.5,0,0.8,0.1
				c0.9-0.9,0.6-1,0.7-1.8c-0.6-0.5-0.8-0.2-1.2-0.7c-0.3,0.3-0.6,0.6-0.9,0.9c0,0.3,0.1,0.2-0.1,0.6
				C568.9,340.9,569,341,569.2,341.4z M552.6,358.9c0-0.3,0-0.5,0.1-0.8c-0.7-0.6-0.8-0.6-1.4-0.7c-0.3,0.3-0.6,0.6-0.9,0.9
				c0.1,0.3,0.2,0.6,0.2,0.9c0.4,0.3,0.4,0.2,0.8,0.3C551.9,359.2,552,359.1,552.6,358.9z M556.9,356c0.2,0.1,0.3,0.2,0.5,0.2
				c0.2-0.3,0.3-0.3,0.3-0.6c0.3-0.5,0.1-0.5,0.2-0.9c-0.2-0.3-0.2-0.3-0.3-0.6c-0.3,0-0.5,0-0.8-0.1c-0.2,0.2-0.5,0.3-0.7,0.5
				c0.1,0.4,0.1,0.8,0,1.2C556.3,355.7,556.7,356,556.9,356z M568.3,353.8c0.3-0.3,0.6-0.6,0.7-0.9c0.1-0.1,0.2-0.2,0.2-0.2
				c-0.3-0.5-0.7-0.9-1.3-1.3c-0.3,0.3-0.7,0.5-1,0.8c0,0.3,0.1,0.2-0.1,0.6C567.4,353.5,567.5,353.6,568.3,353.8z M562,362.3
				c0.2,0,0.4-0.3,0.5-0.7c0.3-0.5,0.2-0.5,0.2-0.9c-0.9-0.9-1.3-0.8-2.1-0.9c-0.4,0.5-0.5,0.6-0.8,0.8c0.2,0.6,0.8,1.4,1,1.5
				C561.5,362.6,561.5,362.6,562,362.3z M564.8,357.7c0.8,0.7,1.8,0.6,2.5,0.2c0.6-0.2,0.9-1.5,1-2.2c-0.1-0.2-0.2-0.5-0.2-0.7
				c-0.5-0.4-0.6-0.3-1-0.6c-0.4,0.3-0.7,0.5-1.2,0.9c-0.1,0.7-0.7,1.1-1.2,1.4c0,0.3,0.1,0.2-0.1,0.6
				C564.8,357.6,564.8,357.5,564.8,357.7z M579.6,346c-0.6-0.5-0.8-0.5-1.3-0.8c-0.8,0.8-0.6,1-0.8,1.7c0.4,0.3,0.8,0.5,1.3,0.8
				C579.4,347,579.4,346.6,579.6,346z M574.7,354.7c0-0.3,0.1-0.6,0.2-0.9c-0.2-0.4-0.3-0.9-0.8-1c-0.6-0.4-1-0.2-1.6,0.2
				c0,0.2,0,0.2-0.2,0.5c0.1,0.4,0.4,0.9,0.5,1.4c0.3,0.3,0.4,0.4,0.7,0.5C573.9,355.3,574.3,355,574.7,354.7z M588.9,341.7
				c0.1,0,0.2,0,0.2,0c0.8-0.8,0.8-1,0.8-1.7c-1-1-1.4-0.5-2.1,0C588,340.9,588,341,588.9,341.7z M572.1,357.4
				c0.6,0.5,0.7,0.3,1.3,0.3c0.2-0.3,0.4-0.5,0.6-0.8c-0.3-0.5-0.5-1-0.8-1.5c-0.3,0.2-0.7,0.5-1.2,0.9
				C572,356.7,572.1,357,572.1,357.4z M591.3,337.9c0.2,0.6,1,0.6,1.6,0.9c0.3-0.2,0.3-0.2,0.5-0.2c0.3-0.4,0.2-0.4,0.3-0.8
				c-0.7-1.1-1.2-0.8-2.1-1.2c-0.2,0.2-0.3,0.3-0.5,0.5C591.2,337.5,591.1,337.5,591.3,337.9z M587.1,344.7c0.2,0.3,0.3,0.3,0.3,0.6
				c0.7,0.5,0.6,0.2,1.3,0.3c0.4-0.9,1.3-2.5-0.3-2.7c-0.5-0.1-0.7,0-1.3,0.6C587.1,343.9,587.1,344.3,587.1,344.7z M596.2,340
				c0,0.2-0.1,0.3-0.3,0.6c0,0.3,0,0.5-0.1,0.8c0.5,0.6,0.5,0.6,1,1c0.6-0.2,1.2-0.5,1.3-1.3v-0.7
				C597.3,339.8,596.9,339.7,596.2,340z M597.9,344c0.1,0.2,0.2,0.3,0.2,0.5c0.4,0,0.6,0,0.9,0.2c0.5-0.4,0.5-0.4,0.9-0.9
				c-0.1-0.2-0.2-0.3-0.2-0.5c-0.1-0.4-0.4-0.3-0.8-0.6c-0.3,0.2-0.6,0.5-0.9,0.7C598,343.6,598,343.8,597.9,344z"/>
		</g>
	</g>
</g>
</svg>
