<?xml version="1.0" encoding="utf-8"?>
<!-- Generator: Adobe Illustrator 21.0.0, SVG Export Plug-In . SVG Version: 6.00 Build 0)  -->
<svg version="1.1" id="Calque_1" xmlns="http://www.w3.org/2000/svg" xmlns:xlink="http://www.w3.org/1999/xlink" x="0px" y="0px"
	 viewBox="0 0 841 595" style="enable-background:new 0 0 841 595;" xml:space="preserve">
<style type="text/css">
	.st0{fill:#DADADA;}
	.st1{fill:#1D1D1B;}
	.st2{fill:none;stroke:#1D1D1B;stroke-width:0.5;stroke-miterlimit:10;}
</style>
<ellipse class="st0" cx="490.6" cy="396.5" rx="50" ry="10.7"/>
<ellipse class="st0" cx="369.6" cy="385.5" rx="50" ry="10.7"/>
<g>
	<g>
		<path class="st1" d="M361.6,360.4c0.2,0.7,0.2,1.2,0.4,1.9v0.8c0.4,1.3,0.9,2.7,1.6,4c0.1,0.3,0.3,1,0.4,1.3
			c0.4,0.6,1.4,0.2,1.7,0.8c0.3,0.5,0.1,1.4,0.4,1.9c0.6,1.1,0.9,2.2,1.5,3.2c0.2,0.3,0.1,0.6,0.3,0.9c1.2,2.1,2.9,4.5,5,6.3
			c0.2,0.3,0.3,0.5,0.4,0.8c0.3,0.2,0.6,0.2,0.9,0.4c0.5,0.3,0.9,0.9,1.4,1.2c1.7,1,4.2,1.6,5.5,2c1.1,0.3,3.8,1.5,4.7,1.3
			c0.5,0.2,1,0.4,1.3,0.4c0,0,2.6,0.7,2.8,0.8c0.2,0.1,0.7,0,1-0.1c1.6,0.6,5.9-0.3,6.2-2.1c0.3-0.1,0.1,0,0.3-0.2
			c-0.2-0.3-0.1-1.1-0.2-1.7c-0.3-0.1-0.2-0.1-0.5-0.2c0-0.2,0-0.2-0.1-0.4c-0.2,0-2.1-1.2-2.2-1.2c0,0.1-0.1,0.1-0.1,0.2
			c-0.2-0.1-0.6-0.3-0.8-0.4c-0.2-0.1-0.3,0.1-0.4,0.1c0,0-0.1-0.2-0.2-0.3c-0.2-0.1-0.5,0-0.5,0c-0.3-0.1-0.8-0.5-1.2-0.5
			c-0.4,0.2-1.9-0.5-2.5-0.5c-0.3,0.2-2-0.6-2.5-0.7c-0.1,0-0.2,0.1-0.3,0.1c-0.1-0.1-0.2-0.2-0.4-0.4H385c-0.1,0-1.5-0.8-1.6-0.9
			c-0.3-0.3-0.4-0.7-0.7-1c-0.7-0.5-1.6-1-1.6-2.1h-0.3c-0.1-0.4-0.2-0.3-0.4-0.5c-0.2-0.4-0.2-1-0.3-1.3c0.3-0.1,0.5-0.4,0.8-0.5
			c0.7-0.3,1.5,0.1,2.1-0.2c1.9-0.8,3.4-1,5.3-1.8c0.4-0.2,0.4,0.1,0.7,0c0.1-0.1,0.5-0.3,0.7-0.4h0.5c0.3-0.1,0.7-0.5,1-0.6
			c0.2-0.1,0.7,0.1,1.1-0.1c0.8-0.4,1.7-0.8,2.5-1.2c0.4-0.2,1.8-0.4,2.1-0.4c0.4-0.1,0.7-0.4,1.1-0.5h0.6c1.5-0.6,3.3-1.2,4.5-1.7
			c0.5-0.2,1-0.1,1.6-0.4c0.2-0.1,0.6-0.5,0.8-0.6c0.4-0.2,1.6-0.5,1.7-0.4v-0.3c0,0,0.2,0.1,0.4,0.1c2.5-0.9,4.3-1.8,6.9-2.7
			c0.7-0.2,1.9-1.2,2.6-1c0.4,0.1,1.3-1.8,1.5-2.1c0.3-0.5,1.4-1.3,1.2-1.9c0.2-0.3,0.7-0.7,0.4-1c0.8-0.8,1.5-1.9,2.1-2.9
			c0.2-0.4,1.2-2.2,1.2-2.2c0.6-0.7,0.8-1.6,1.3-2.4c0.1-0.2,0.5-0.5,0.6-0.6c0.1-0.2,0.1-0.5,0.1-0.5c0.9-1,1.5-2.2,2.1-3.5
			c0.3-0.6,1.5-1.8,1.3-2.5c0.6,0,0.6-0.7,0.9-1.3c0.2-0.3,1.5-1.9,1.5-1.9c0.3-0.5,0.4-1.1,1-1.3c0.3,0.2,0.8,0.2,1.1,0.4
			c0,0.1,0.1,0.2,0.1,0.3c0.4,0.3,0.9,0.5,1.3,0.8c0.2,0.1,0.3,0.4,0.4,0.5c0.4,0.3,0.8,0.4,1.2,0.6c0.4,0.3,0.7,0.8,1.1,1
			c1,0.6,2.1,0.9,3,1.5c1.1,0.7,2.1,1.6,3.1,2.4c0.2,0.2,0.5,0.1,0.8,0.3c0.1,0.1,0.2,0.4,0.3,0.4c0.1,0.1,0.3,0.1,0.4,0
			c0.5,0.4,1.2,0.8,1.7,1.2c0.5,0.3,1.2,0.3,1.3,1.1c0.1,0.1,0.4,1.5,0.4,1.6c-0.1,0.3-0.4,1-0.3,1.6c0.4,1.7,0.1,4.4-0.4,6.4
			c-0.1,0.3,0,0.7,0,0.9c-0.2,0.6-0.7,2.1-0.4,2.7c-0.4,0.8-0.9,4.1-0.8,4.7c0.1,0.8-0.5,1.3-0.3,1.9c-0.1,0.1-0.3,0.2-0.4,0.3
			c0,0.1-0.8,3.8-0.8,3.9c0,0.4-0.5,0.9-0.6,1.2v0.4c-0.2,0.4-1,1.6-0.5,2.2c-0.3,0.4-0.5,0.6-0.4,1.1c-0.3,0-0.1-0.2-0.3,0.1
			c0.3,0.7-2.4,4.1-2,5.2c0.4,1.2,2.7,1.9,4.4,1.9c0.2,0.3,0.3,0.7,0.3,1.3c-0.5,0.7-0.9,4.1-0.9,4.6c0,0.3-0.1,0.3-0.2,0.4
			c-0.1,0.3,0.1,0.7,0.1,0.8c0.2,1.1,0.1,1.7,0.8,2.1c0.6,0.4,2.5,0.3,3.4,0.4c0.9,0.2,3.3,0.5,4.4,0.4c0.5-0.1,1.1,0.2,1.4,0.2
			c1-0.2,1.8,0.3,2.7,0c1.1-0.5,1.5-1.5,2.2-2.1c0.3,0.1,1.1-0.1,1.7,0.2c1.5,0.6,2.6,0.7,4.5,1.1c1.5,0.3,3.2,0.4,4.8,0.6
			c0.7,0.1,2.1-0.1,2.8,0.1c1.6,0.4,5.3,0.7,6.8,0.4h2.2v-0.2c0.6,0,1.4,0.1,1.9,0h1.3c1.6-0.3,6.6,1.4,6.6-1.6
			c-0.1-0.3-0.1-1-0.4-1.4c-0.4-0.7-1.9-2.1-2.8-2.2V389c-0.2,0-0.3,0-0.4,0.1V389h0.1c0,0-0.1-0.1-0.1-0.1
			c-0.4-0.4-1.5-0.7-1.7-1.1c0,0,0.1-0.1,0.1-0.1c-0.9,0-1.4-0.5-2.1-0.8c-0.4-0.2-0.8,0-1.3-0.3c-1-0.4-2.4-0.9-3.4-1.3
			c-0.4-0.1-0.8-0.1-1.3-0.2c-1.8-0.7-4.2-0.6-5.6-1.1c0-0.1-0.1-0.1-0.1-0.2c1.1-0.8,4.2-2,4.6-3.3c0.2-0.9,0-1.9,0-2.8
			c0-0.7,0.2-1.5,0.3-2c0.1-0.6-0.1-1.6-0.2-2c-0.1-0.5,0.3-1.4,0.4-2.1c0.1-0.4-0.1-0.9-0.1-1.2c0-0.3-0.2-1-0.2-1.3
			c0-0.7,0.2-2.7,0.1-3.7c0-0.1-0.2-0.5-0.2-0.6h0.2v-0.8c0-0.5,0-1.7,0.1-2.2c0-0.2-0.1-0.4-0.1-0.6c0.1,0,0.1-0.1,0.2-0.1
			c0-0.1-0.1-0.3-0.1-0.4c-0.1-0.5,0-1.1,0.1-1.6c0.1-0.4-0.2-0.7-0.1-1.2c0.2-1.1,0.2-2.2,0-3.2c-0.3-1.8,0.1-3.1-0.2-4.6
			c-0.1-0.3,0.1-1.4,0.1-1.6c0-0.3-0.2-1.7-0.3-2.1c-0.3-1.5,0-3.2-0.6-4.5c-0.3,0-0.7-0.1-1-0.1c-0.7-1.1-1.6-2-2.5-2.9
			c-0.4-0.5-0.6-1.1-1-1.6c-0.3-0.4-0.8-0.6-1.1-1c-0.2-0.2-0.2-0.5-0.4-0.7c-1-1-2-1.8-2.9-2.9c-0.1-0.2-0.4-0.2-0.5-0.4v-0.4
			c-0.8-1.2-2-2.3-3-3.2c-0.4-0.4-0.4-1-1.1-1.2v-0.3c-0.5-0.2-0.4-0.9-1-1.1v-0.3c-0.3-0.3-0.4-0.7-0.7-1c-0.3-0.3-0.7-0.6-1-0.9
			c-0.1-0.2-0.1-0.4-0.2-0.5c-0.1-0.2-0.4-0.2-0.5-0.4c-0.2-0.2-0.3-0.7-0.5-0.9c-2.5-2.2-4.5-5.1-7-7.4V315c1-0.2,2-0.8,2.9-1.1
			c0.3-0.1,0.7,0.1,0.8,0.1c0.4,0.1,0.6-0.1,0.9-0.2c0.2-0.3,0.5-0.8,0.6-1.2c0-0.2,0.1-0.4,0.1-0.5c0.1,0,0.2-0.1,0.3-0.1
			c0.2-0.2,0-0.5,0.2-0.8c0.1-0.1,0.2-0.2,0.4-0.4c0.1-0.3,0.1-0.5,0.2-0.8c0.6-1.1,1.5-2.1,2.1-3.1c0.3-0.5,0.3-1.2,0.6-1.7
			c0.1-0.2,0.5-0.4,0.6-0.6c0.9-1.5,1.6-2.8,2.3-4.6c0.2-0.5,0.5-0.6,0.5-1.3c0.2,0,0.2,0,0.3-0.1c-0.1-0.1-0.1-0.1-0.2-0.2h0.1
			c0.4-0.9,1-1.8,1.3-2.5c0.4-1.1,0.3-1.9,0.8-3c0.3-0.7,1-1.8,0.6-2.6c0.4-0.1,0.7-0.5,0.7-0.9c0-0.1-0.1-0.2-0.1-0.4
			c0.1-0.5,0.6-1.2,0.8-1.6c0-0.3,0.1-0.6,0.1-0.9c0.1-0.3,0.4-0.7,0.5-1.1v-0.6c0.2-0.4,0.6-0.9,0.7-1.3c0.1-0.2-0.1-0.4-0.1-0.7
			c0-0.2,0.3-0.7,0.4-0.9c0-0.3,0.1-0.6,0.1-0.9c0.8-1.9,1.2-3.8,1.8-5.8c0.2-0.6-0.1-0.8,0-1.3c0.1-0.4,0.4-1.1,0.5-1.4
			c0.2-0.6,0-1.1,0.1-1.5c0.1-0.6,0.4-1.2,0.4-1.9h0.3v0.4c0.8,0,1.1,0.2,1.6,0.6c0,0.1,0.1,0.2,0.1,0.3c0.3,0,0.5,0.1,0.8,0.1
			c0.8,0.4,1.4,1.3,2.5,1.2c0,0.3-0.1,0.1,0.1,0.3c0.5,0.3,1.4,0.4,1.8,0.7c0.9,0.7,2.1,1.4,3.4,1.8c0.5,0.1,0.8,0,1.1,0.1
			c0.2,0.1,0.6,0.4,0.8,0.5c0.2,0,0.4,0.1,0.5,0.1c0.1,0.1,0.1,0.3,0.3,0.4c0.4,0.2,0.7,0.1,1.2,0.3c0.4,0.2,0.9,0.6,1.3,0.7
			c0.5,0.2,0.8,0.1,1.3,0.3c0.2,0.1,0.4,0.4,0.5,0.4c0.5,0.2,1,0.1,1.4,0.3c0.6,0.2,1.3,0.8,2,1c0.3,0,0.7,0.1,1,0.1
			c3.6,1.7,8.2,5,12.8,4.9c0.4,0,1.2,0.3,1.6,0.4c1.3,0.3,3.2-0.1,4.4-0.4c0.1,0,0.2,0.2,0.4,0.1c0.4-0.1,0.9-0.6,1.3-0.8
			c0.5-0.3,1-0.4,1.4-0.7c0.1-0.1,0.1-0.3,0.2-0.4c0.2,0,0.4-0.1,0.5-0.1c0-0.1,0.1-0.2,0.1-0.3c0.2-0.1,0.4-0.1,0.5-0.2
			c0.1-0.1,0.1-0.3,0.2-0.4c0.2-0.1,0.4-0.2,0.6-0.4c0.1-0.1,0.1-0.3,0.3-0.4c0.1-0.1,0.4-0.1,0.5-0.3c0.3-0.3,0.3-0.9,0.5-1.3
			c0.3-0.6,0.8-1.2,1.2-1.8c0.2-0.4,0.1-1.3,0.2-1.5c0-0.1,0.4-0.8,0.4-0.9c0-0.1-0.1-0.3-0.1-0.4c0.1-0.5,0.3-1.6,0.4-2.1l-0.3-2.4
			c0.1-0.1,0.2-0.1,0.3-0.2c0.1-0.1-0.6-2.2-0.7-2.3v-0.8c-0.1-0.2-0.3-0.4-0.4-0.7c-0.1-0.4,0.1-0.9,0-1.1h-0.2
			c-0.2-0.4-0.4-1.5-0.5-1.9c0-0.4-0.1-0.7-0.1-1.1c-0.1-0.4-0.4-1.1-0.5-1.4c0-0.1,0.1-0.3,0.1-0.4c-0.2-0.7-0.3-1.3-0.5-2.1v-0.5
			c-0.1-0.2-0.5-0.6-0.5-0.8c0-0.1,0.1-0.5,0-0.8c-0.2-0.5-0.5-1.1-0.7-1.5c-0.2-0.5-0.2-1.3-0.3-1.7c-0.1-0.3-0.4-0.6-0.4-0.9
			c0-0.3-0.1-0.7-0.1-1c-0.5-1.4-1.4-2.9-1.7-4.8c-0.4,0-0.8,0.1-1.2,0.1c-0.3,0.1-1.2,0.9-1.5,0.7c-0.9-0.5-0.7-1.3-1.1-2.2
			c-0.1-0.3-0.5-0.9-0.6-1.2c-0.2-0.4,0-0.7-0.1-1l-0.3-0.3c-0.2-0.6-0.2-1.2-0.4-1.8c3.1-2.1,1.3-8.3-0.4-11.1
			c-0.5-0.9-1.1-2.6-2.4-2.7c-0.3,0.2-0.6,0-0.9-0.1c-0.1,0-1.3,0.2-1.4,0.3c-0.7,0.3-1,1.2-1.4,1.7c-1.4-0.4-2.4-1.1-3.8-0.1
			c-0.6,0.4-0.2,1.3-1.2,1.4c0-0.1,0.1-0.1,0.1-0.2h-0.5c-0.4-0.2-0.7-0.7-1-1c-0.6,0.4-1.3-0.3-1.8-0.2c-0.3,0.1-1,0.3-1.3,0.5
			c-0.4,0.3-0.5,0.8-1,1c-0.7-0.5-2.8,0.7-3.1,1.2c-0.2,0.2-0.1,0.3-0.2,0.6c-0.6,1.5,0.5,4,1.3,5.5c0.3,0.5,0.8,1,0.9,1.7
			c-0.8,0.1-1,0.3-1.9,0.3c-1.3-0.1-4.9-0.3-4.9,2.1c-0.1,0.1-0.1,1,0.1,1.3c0.2,0.5,0.4,0.5,0.8,0.8c0.1,0.2,0.3,0.4,0.4,0.6
			c0.5,0.3,1.5,0.6,2.1,0.7c0.1,0,0.5-0.1,0.7-0.1c1.2,0.3,2.2,0.1,3.3,0.6c0.2,0.1,0.4,0.5,0.5,0.6c0.7,0.5,1.7,0.9,2.1,1.6
			c0,0.1,0.7,1.1,0.4,1.2h0.2c0.1,0.1,0.3,0.1,0.4,0.2c-0.2,0.6,0,0.8,0.2,1.4c1.3,0.3,1.4,1.9,1.8,3.1c0.1,0.3,0.4,0.6,0.5,0.9
			c0.1,0.4-0.1,0.7,0,0.9c0.4,1.3,1,2.9,1.3,4.1c0.1,0.3-0.1,0.9,0,1.2c0.3,1.4,0.6,3,0.4,4.3c0,0-0.1-0.1-0.1-0.1
			c-1,0.2-2.9-0.9-3.9-1.1v-0.3c-1.1,0-2.2-1-2.9-1.5c-0.3-0.2-1.3-0.6-1.5-0.7h-0.4c-0.4-0.2-0.7-0.7-1.1-1
			c-0.6-0.4-1.6-0.6-2.1-1.1c-0.2-0.2-0.4-0.5-0.6-0.7c-0.5-0.4-1.1-0.4-1.6-0.8c-0.4-0.3-0.8-0.8-1.2-1.1c-0.4-0.3-0.8-0.3-1.2-0.5
			c-0.4-0.3-0.7-0.9-1.2-1.2c-0.9-0.5-1.7-0.9-2.5-1.4c-0.4-0.3-0.7-1-1-1.4c-0.5-0.7-1.3-1.3-1.8-2c0-0.1-0.1-0.7-0.1-0.7
			c-0.2-0.2-0.6-0.4-0.8-0.6c-0.5-0.6-0.8-1.4-1.3-2.1h-0.2c-0.2-0.2-0.5-0.7-0.6-0.9c0.1-0.4,0.1-0.8,0.2-1.3
			c-0.1-0.3-0.4-0.3-0.5-0.4c0,0,0-1.1-0.1-1.3c-0.1-0.1-0.6-0.4-0.7-0.5c-0.2-0.3-0.2-1.6-0.5-2.1c-0.2-0.3-0.5-0.2-0.6-0.6
			c1-0.8,1.6-2.1,2.4-3.2c0.1-0.1,0.2-0.2,0.4-0.3c0.2-0.3,0.1-0.5,0.3-0.8c0.2-0.2,0.5-0.4,0.7-0.6c0.2-0.3,0.1-0.7,0.4-1
			c0.3-0.4,0.8-1,1.1-1.4c0.1-0.3,0.2-0.6,0.3-0.9c0.1-0.1,0.4-0.3,0.4-0.4c0.5-0.9,0.5-2,0.9-2.9c0.1-0.3,0.5-0.6,0.6-0.9
			c0.3-0.4,0.2-0.9,0.4-1.3c0.2-0.4,0.6-0.9,0.8-1.3c0.3-0.6,0.2-1.3,0.5-1.9c0-0.1,0.4-0.3,0.4-0.4c0.3-0.5,0.2-1.6,0.4-2.4
			c0.5-1.7,1.1-3.2,1.1-5.2c-0.3-0.2-0.2-0.3-0.6-0.4c-1-0.6-3,0.7-4,1.1c-0.7,0.2-1.4,0.2-2.1,0.4c-0.2-0.8-1.1-1.7-0.7-2.4
			c0.4-0.7,3.6-1.3,4.6-1.7c1-0.4,1.7-1.2,2.6-1.7c1.9-1,3.9-2.2,3.8-5.1c-0.5-0.2-1.6-1.9-1.7-2.2c-0.6,0-0.4-0.3-1-0.3v-0.3h-0.4
			v-0.3c-0.7-0.1-0.5-0.3-0.8-0.4c-0.1-0.1-0.7,0.1-1.1-0.1c-0.1-0.1-0.2-0.3-0.4-0.4c-0.7-0.2-2,0.2-2.8,0.1
			c-1.2-0.2-2.4-0.1-4,0.4c-0.5,0.2-0.8-0.1-1.3,0c-0.7,0.2-1.7,0.4-2.6,0.6c-0.1-0.2-0.3-0.3-0.4-0.4c-0.2-0.3-0.2-0.7-0.4-1
			c-0.3-0.4-0.9-0.7-1.2-1.2c0-0.1,0.1-0.2,0.1-0.4c0,0-0.6-0.3-0.6-0.3c0-0.1-0.1-0.2-0.1-0.4c-0.2-0.3-0.7-0.5-0.9-0.8
			c-0.5-0.7-0.8-1.3-1.3-1.9c-0.2-0.2-0.6-0.3-0.7-0.5c-0.1-0.1-0.1-0.5-0.4-0.6h-0.3c-0.1-0.1-0.1-0.4-0.3-0.5
			c-0.2-0.2-0.5-0.3-0.7-0.4c-0.2-0.2-0.2-0.5-0.4-0.7c-0.2-0.2-0.4-0.3-0.7-0.5c-0.1-0.1-0.1-0.3-0.2-0.4c-0.2-0.2-0.5-0.3-0.7-0.5
			c-0.2-0.2-0.1-0.4-0.3-0.6c-0.2-0.2-0.4,0-0.5-0.1v-0.3c-0.2-0.2-1.4-1-1.6-1v-0.3c-0.7-0.1-0.7-0.4-1.2-0.6
			c-0.1,0.2,0,0.1-0.1,0.2c-0.2-0.6-0.6-0.2-1.1-0.5c-1.5-0.9-3.6-0.9-5-1.2c0,0.2,0,0.2-0.1,0.3c-0.1-0.2-0.1-0.2-0.4-0.3
			c-0.2,0.2-0.7,0.2-1.2,0.3c0,0.2,0.1,0.1-0.1,0.2c0-0.3,0.2-0.1-0.1-0.3c-0.3,0.3-0.5-0.1-1,0.1c-0.1,0,0,0.2-0.3,0.2
			c0,0-0.3-0.1-0.5-0.1c-0.9,0.3-2,0-2.9,0.4v-0.3c-0.3,0-0.2,0.1-0.4,0c-0.9-0.7-2-2.3-3.3-2.3c-0.2,0.2-0.5,0.2-0.6,0.4
			c-0.2,0.2-0.2,0.6-0.3,0.9c0.2,0.2,0.3,0.7,0.5,0.8c0.2,0,0.5,0.1,0.7,0.1c0.4,0.2,0.3,0.8,0.9,0.9v0.3h-0.2
			c-0.4,0.3-0.9,0.2-1.4,0.1c0-0.3,0.1-0.2,0-0.4c-1-0.1-1.7-0.8-2.5-1.3c-0.3-0.2-0.3-0.5-0.7-0.6c-0.4,0.5-0.9,0.6-1.2,1.3
			c0.4,0.2,0.3,0.8,0.6,1c0.7,0.4,2.2,0.4,2.3,1.6c-0.7,0.4-1.2,1.2-2,1.4c-0.5,0.2-1.7-0.2-2.1-0.3c-0.3-0.1-0.6,0.1-0.7,0.1
			c-1.2,0.2-1.6,0-2.6,0.1c-0.2,0.5-0.3,0.7-0.4,1.3c0.4,0.3,0.5,0.7,1.3,0.8c0.6-0.6,2.3-0.4,3-0.3v0.4c-0.7,0.3-1,1.3-1.4,2
			c-0.6,1-1.3,2.3-1.8,3.5c-0.4,1.1-0.4,2.5-0.6,3.6v1.7c-0.1,0.5-0.3,1.1-0.3,1.7c0,0.3,0.2,0.9,0.1,1.3c-0.2,0.9,0,1.5,0.3,2.3
			c0,0.3-0.1,0.5-0.1,0.8c0,0.2,0.2,0.5,0.2,0.7c0,0.2-0.1,0.3-0.1,0.4c0.1,0.4,0.1,1.2,0.2,1.5c0.1,0.3,0.4,0.7,0.4,1.1
			c0.4,1.4,0.2,2.9,0.9,3.9c-0.3,1.6,1.3,3.6,2.1,5.1c0.5,1,0.7,2.2,1.1,3.2c0.3,0.7,0.9,1.7,1.2,2.2c0.2,0.4,0.1,1,0.3,1.4
			c0,0.1,0.2,0.3,0.3,0.4c0,0.1-0.1,0.3-0.1,0.4c0.5,1.6,1.4,3.5,2.2,4.8c0.3,0.5,0.2,1.1,0.4,1.6l0.7,0.7c0.8,1.2,1.3,2.6,1.9,4
			c0.2,0.4,0.5,0.8,0.5,1.3c0,0-0.1,0.1-0.1,0.1c-1.5,0-2.9,0.3-4.1,0.7c-0.5,0.2-1.1,0.8-1.6,0.7v0.3c-0.7,0.1-1,0.5-1.4,0.8
			c-1.2,0.7-2.3,1.2-3.4,1.9c-1.6,1-3.3,1.7-5,2.6c-0.2,0.1-0.4,0-0.4,0c-1.9,1-3.8,2.1-5.5,3.2c-0.7,0.5-1.7,0.6-2.5,1.1
			c-0.9,0.5-1.9,1.3-2.9,1.8c-0.8,0.4-1.5,0.6-2.2,1.1c-0.2,0.1-0.4,0.4-0.6,0.5c-0.3,0.2-0.5,0.1-0.8,0.3c-0.2,0.1-0.6,0.5-0.8,0.6
			c-0.4,0.2-0.7,0.1-1,0.3c-0.4,0.2-0.8,0.7-1.2,0.9c-0.4,0.2-0.8,0.3-1.2,0.5c0,0.1-0.1,0.2-0.1,0.3c-0.5,0.4-1.2,0.5-1.8,0.9
			c-0.6,0.4-1.2,1.1-1.9,1.5c-0.6,0.4-1.3,0.6-1.8,1.1c-0.6,0.5-1.2,1.3-1.9,1.8c-1,0.7-2,1.5-2.6,2.6c-1.1,1.8-1.6,4.5-2.1,6.9
			c0,0.1,0.1,0.3,0.1,0.4c-0.1,0.5-0.2,1.3-0.3,1.8v3c0.1,0.3,0.3,0.9,0.3,1.2c-0.1,1.6,0.4,3,0.5,4.4c0.1,0.6-0.1,2.1,0.1,2.7
			c0.2,0.6,0.5,1.7,0.5,2.1c0,0.7,0.1,1.4,0.1,2.1c0.2,0.6,0.4,0.9,0.5,1.5v1.3c0.8,2.5,1.3,4.9,1.9,7.7c0.6,0.3,1.4,0.8,2,1
			c1.1,0.3,2.4-0.5,3.4-0.4c0,1.2,0.9,2.6,1.3,3.7c0.1,0.4-0.2,1.1,0.1,1.5c0.7,1.3,2,2.7,2.1,4.3c-1,1.3-1.5,2.7-2.2,4.3
			c-0.5,1-1.3,2.1-1.8,3.1v0.4c-2.3,3.9-4.2,8.2-6.3,12.2c-0.1,0.2-0.3,0.3-0.4,0.4c-0.1,0.3-0.2,0.7-0.3,1
			c-1.5,2.4-2.8,5.1-4.7,7.1c-0.2,0.2-0.6,0.2-0.8,0.4c-0.1,0.1-0.3,0.5-0.4,0.5c-0.2,0.1-0.6-0.1-0.7-0.1c-0.2,0.1-0.4,0.4-0.6,0.4
			c-0.3,0.1-0.4-0.1-0.6,0c-0.2,0.1-1.5,0.6-1.8,0.4l-0.3,0.3c-0.1-0.1-0.3-0.1-0.4-0.2c-0.2,0.1-0.7,0.3-1,0.4
			c-0.6,0.2-1.1,0-1.6,0.3c-0.1,0-0.2,0.3-0.3,0.4c0,0-1.3,0.1-1.5,0.2c0,0.1,0.1,0.1,0.1,0.2h-0.1c-0.2-0.1-1.1,0.1-1.5,0.1
			c0,0.2,0,0.2-0.1,0.4c-0.2-0.1-0.2-0.1-0.4-0.2c-0.2,0.5-0.8,0.2-0.9,1c0,0,0.4,0,0.2,0.1h-0.1c-0.1,0.1-0.2,0.1-0.4,0.1
			c-0.1-0.2,0-0.1-0.3-0.2v0.3c-0.3-0.1-0.4-0.1-0.5-0.3c0.2-0.1,0.1,0,0.2-0.2h-0.5c-0.2,0.3-1.5,0.3-1.7,0.4
			c0-0.3,0.2-0.1-0.1-0.3c-0.3,0.5-1,0.5-1.3,0.6c0,0.1,0.1,0.1,0.1,0.2h-0.4v0.2c-0.1,0.1-0.1-0.2-0.1-0.2c-0.1,0-0.8,0-0.9,0
			c-0.4,0-1.5,0.4-2.1,0.2c0,0.1-0.1,0.1-0.1,0.2h-0.4v0.2h-0.1c-0.2,0-0.4-0.1-0.5-0.1c0,0.1-0.1,0.1-0.1,0.2
			c-0.1,0-0.3-0.1-0.4-0.1c-0.5,0.1-0.8,0.3-1.2,0.3c0-0.2,0.1-0.1-0.2-0.2c0,0.2,0,0.2-0.1,0.3c-0.3-0.2-3.8,0.5-4.1,0.9
			c-0.8,0.4-0.5,1.1-0.4,2c0,0.4-0.1,0.7-0.1,1.1c0.2,0.9,0.8,1.7,0.9,2.8c-0.2,0.2-0.4,0.3-0.7,0.4c-0.7-0.4-2-0.1-3.2-0.2
			c-0.3,0-2.2,0.2-2.8,0.5c-0.1,0.1-0.5,0.6-0.6,0.7v0.3h-0.2c-0.2,0.2-0.3,0.5-0.4,0.9C360.8,357.8,361.4,359.8,361.6,360.4z
			 M383.2,346.8L383.2,346.8l-0.1-0.2h0.1V346.8z M410.8,303.5c0.2-0.1,0.2-0.1,0.5-0.2c0.3-0.2,0.3,0.1,0.8,0
			c0.3-0.1,0.7-0.3,1.1-0.4c0.3,0,0.7,0.2,1.2,0c0.4-0.2,1.1-0.7,1.4-0.8c0.1,0,0.2,0.1,0.4,0.1c0.1-0.1,0.2-0.2,0.4-0.4
			c0.6-0.3,1.5-0.5,2.2-0.9c0.1,0.1,0.1,0.1,0.3,0.1c0.4,1.1,1.4,1.9,2.3,2.5c0.1,0.1,0.2,0.4,0.3,0.4c0.3,0.3,1.8,0.4,2.2,0.4
			c0.3,0,0.1-0.2,0.4-0.2c0.4,0,0.8,0.1,1.1,0.2c0.6,0.1,1.7-0.2,2-0.1c2.2-0.9,5.8-1.6,7.1,0.5c0,0.1,0.1,0.2,0.1,0.5
			c-0.8,0.6-1,1.6-2.4,1.6c-0.5,0.3-1,0.1-1.7,0.3c-0.1,0-2.2,0.3-2.5,0.2c-0.2-0.1-0.4-0.4-0.5-0.4c-0.3-0.1-1,0.1-1.4,0
			c-0.9-0.2-0.9-1.2-2.1-1.3c-0.2,0.1-0.2,0.1-0.4,0.3c-0.4,0.7,0.3,1.9,0.5,2.3c0,0.2,0.1,0.4,0.1,0.6c0.7,0.9,2.1,2.1,2.9,2.5h0.7
			c1,0.3,4,1,4.3,1.9c0.1,0.2,0.1,0.7,0.1,1.1c-0.3,0.1-0.5,0.4-0.7,0.5c-1.8,0.9-5.2-0.4-6.7-1.3c-0.3-0.2-0.6-0.7-0.8-0.8h-0.4
			c-1.3-0.8-1.6-3.1-3.6-3.1c-0.2,0.3-0.4,0.4-0.4,1.1c0.5,0.4,0.7,0.9,1.1,1.4c0.1,0.2,0.5,0.3,0.6,0.4c0.5,0.5,0.8,1.1,1.3,1.5
			c0.2,0.2,0.4,0.1,0.6,0.3c0.9,0.6,2,1.3,3,1.7c0.9,0.4,2.6,0.2,2.7,1.3c-0.1,0.1-0.1,0.3-0.2,0.4c-2.5,1.6-7.4-1.1-8.9-3
			c-0.4-0.5-0.6-1.9-1.3-2.1c-0.2-0.2-0.4-0.2-0.7-0.2c-0.2,0.2-0.4,0.4-0.5,0.6c0.7,3.7,4.1,4.6,6.8,6.3c-0.1,0.2-0.1,0.3-0.1,0.5
			c-0.2,0.1-0.1,0.2-0.4,0.3c-1.3,0.9-4.2-1.2-4.9-1.9c-0.7-0.6-1.6-1.2-2.1-2c-0.2-0.3-0.3-0.7-0.5-1.1c-0.2-0.3-0.6-0.6-0.8-0.9
			c-0.3-0.4-0.3-0.8-0.5-1.3c-0.4-0.8-1.1-1.8-1.5-2.7c-0.1-0.3,0.1-0.3,0-0.5c-0.1-0.1-0.4-0.5-0.4-0.6v-0.4
			C412,307.2,410.9,305.8,410.8,303.5z M421.6,302.8c0.1-0.2,0-0.1,0.1-0.2c0,0,0.1,0.1,0.1,0.1C422,302.8,421.6,302.8,421.6,302.8z
			 M419.7,276.6c-0.2-0.2-0.1-0.1-0.1-0.5c0.8-0.5,1.7-1.3,2.3-2c0-0.1,0.1-0.2,0.1-0.4h0.3c0.6-0.5,1.3-1.3,2-1.7
			c0.2-0.1,0.4,0,0.6-0.2c0.2-0.1,0.4-0.6,0.4-0.6c0.5,0.4,1.2-0.6,1.9-0.7c0,0.5-0.3,0.9-0.4,1.3c-0.3,0.7-0.3,1.2-0.5,1.9
			c-0.3,0.7-0.9,1.6-1.3,2.3c-0.2,0.4-0.1,0.7-0.3,1.1c-0.2,0.4-0.6,0.8-0.8,1.2c-0.4,0.8-0.5,1.4-0.8,2.2c-0.2,0.6-0.7,1.2-1,1.8
			c-0.4,0.9-0.8,1.8-1.1,2.7c0,0.3-0.1,0.5-0.1,0.8c-0.7,1.5-2,3.3-2.2,5.1c-0.2,0-0.2,0-0.3-0.1c0.5-0.7-0.2-3.5-0.2-4.8
			c0.1-1.8-0.3-4.2,0.3-6.3c0.1-0.3-0.1-0.6,0-1.1c0.1-0.4,0.8-1.2,0.6-1.5C419.4,276.8,419.6,276.8,419.7,276.6z M405.4,294.5
			L405.4,294.5l0.1,0.2h-0.1V294.5z M472.3,236.8c-0.5,0.7-0.8,1.7-1.3,2.3c-0.2,0.2-0.5,0.3-0.6,0.4c-0.4,0.5-0.6,1.1-1,1.6
			c-0.3,0.4-1,0.8-1.3,1.2c0,0.1-0.1,0.2-0.1,0.4c-0.2,0.2-0.5,0.5-0.7,0.6v0.1c-0.3,0.2-0.6,0-0.8,0.3c0.4,0.3,0,0.5-0.1,1
			c-0.1,0-0.3,0.1-0.4,0.1c0.2,0.2,0.3,0.4,0.4,0.8c-1,0-1.9,0.3-2.8,0.4c-0.2,0-2.9,0.2-3.2,0.1c-0.2-0.1-0.8-0.3-1.1-0.4
			c-2.4-0.1-4.5-0.1-6.7-1c-0.4-1.1-1.5-0.9-1.8-2.5c0,0,0.1-0.1,0.1-0.1c0.9,0.1,2.3,0.2,2.7-0.9c-0.1-0.1-0.1-0.2-0.2-0.3
			c-0.4-0.3-0.9-0.3-1.4-0.5c-0.4-0.2-0.5-0.7-1.1-0.9c-0.3,0.2-0.8,0.2-1,0.2c-0.1-0.4-0.3-0.6-0.4-0.9h0.4v-0.3h-0.3
			c0.2-0.7,1.8-0.4,1.8-2c-0.5-0.3-0.5-0.5-1.4-0.5V236c0,0-0.1,0.1-0.1,0.1c-0.2,0.2-0.4,0.3-0.7,0.4c-0.1-0.1-0.2-0.1-0.4-0.1
			c-0.5-0.7-1.2-1.4-1.4-2.4c0.8-0.2,2.1-0.4,2.3-1.3c0.1-0.1,0.1-0.3,0.1-0.5c-0.2-0.1-0.2-0.2-0.4-0.3c-0.7-0.6-1.9,0.3-2.3,0.2
			c-0.9-0.2-1.4-1.6-1.4-2.6c0.7,0,1.3-0.2,2.1-0.4c0.5-1.4,0.6-0.6-0.3-1.8c-0.8,0.3-1.8,0.3-2.5,0.4c0-0.6-0.4-1.1-0.6-1.6
			c0.2-0.1,0.2-0.1,0.4-0.2c0.4-0.2,1.9-0.5,2.3-0.6c0.1-0.6,0.1-1.2-0.4-1.4c-0.1,0-0.2,0.1-0.4,0.1c-0.2-0.1-0.1-0.5-0.4-0.4
			c0,0-0.2,0.3-0.2,0.4l-0.9,0.1c-0.3-0.1-0.4-0.3-0.8-0.4c0,0.3,0.1,0.1,0,0.3c-0.2-0.1-0.2,0-0.3-0.1c-0.2-0.2-0.7-2.1-0.7-2.6
			c0.4-0.1,0.8-0.3,1.1-0.4c0.2,0,0.4,0.1,0.5,0.1l0.8-0.8c0-0.3,0-0.3,0-0.6c-0.5-0.2-0.5-0.5-1.3-0.5c-0.3,0.2-1.2,0.5-1.8,0.5
			c-0.3-1.2-0.7-2.4-1-3.7c0.1-0.1,0.2-0.1,0.3-0.2c0.6,0.1,1.1,0,1.8-0.2c0.1-0.3,0.2-0.3,0.3-0.7c0.1-0.2-0.1-0.7-0.3-1
			c-0.3,0-0.4-0.1-0.6-0.2c-0.3-0.1-1.4,0.1-1.9,0.1c-0.3-0.9-0.8-1.8-0.8-3c0.1,0,0.2-0.1,0.4-0.1c0.5,0.4,1,0,1.8,0
			c0.1-0.2,0.3-0.3,0.5-0.4c0-0.4,0.1-0.5,0-0.9c-0.4-0.1-0.8-0.3-1.2-0.4c-0.7-0.2-0.9,0-1.7,0c-0.2-0.3-0.2-0.3-0.3-0.7
			c-0.3-0.5-0.3-2.1-0.4-2.7c0.3-0.1,0.3-0.2,0.7-0.3c0.4,0.2,0.7-0.1,0.9-0.2c0.3-0.1,0.5,0.1,0.7,0.1c0.5-0.1,0.8-0.6,1.1-0.9
			c0-0.3,0-0.4-0.1-0.5c-0.5-0.9-2-0.7-2.8-0.4v-0.1c0,0,0,0-0.2-0.1c-0.1,0.2,0,0.1-0.2,0.2c-0.1-0.2,0-0.1-0.1-0.2
			c0.2-1.3,0.3-3,0.4-4.3c1.3-0.1,2.3,0.7,3.5,0.2c0.1-0.5,0-0.7-0.1-1.2c-0.9-0.2-2.2-1-2.2-2.1c0.7-0.6,0.6-1.5,2-1.5
			c0.3,0.3,0.7,0.5,1.3,0.4c0.1-0.1,0.2-0.2,0.4-0.3c0.1-0.4,0.2-0.4,0.2-0.9c-0.2-0.2-0.6-0.6-0.7-0.8c0.4-0.2,0.8-0.6,1.1-1
			c0.1,0.1,0.2,0.1,0.4,0.1c0.2,0.4,0.6,0.8,1.1,1c0.1,0,0.4-0.1,0.6-0.2c0.1-0.3,0.2-0.4,0.3-0.8c-0.9-1-0.6-1.1-0.6-2.3h0.4
			c0.5,0.8,1.3,1.3,1.8,2.1c0.2,0.3,0.2,0.7,0.4,1c0.2,0.2,0.5,0.3,0.7,0.4c0.5-0.4,0.9-0.3,0.9-1.3c-0.4-0.5-1-1.4-1.2-2.1h-0.3
			c-0.1-0.3-0.1-0.2-0.4-0.4c0.2-0.2,0.2-0.2,0.3-0.5c1.7,0.1,3.6-0.4,5.5,0c0.5,0,1-0.1,1.4-0.1c0.7,0.2,1.7,0.5,2.6,0.8v0.3
			c0.5,0.1,2.9,1.9,3,2.3h0.3c0.3,0.9,1.5,1.8,2.1,2.3c0.3,0.3,0.5,0.7,0.8,1c0.4,0.5,1.1,0.8,1.5,1.3c0.3,0.2,0.3,0.6,0.5,0.9
			c0.2,0.2,0.4,0.3,0.6,0.5c0.5,0.5,0.8,1.2,1.3,1.8c0.6,0.7,1.4,1.3,1.6,2.3c-0.4,0.4-0.3,0.9-0.3,1.5c0.3,0.1,0.4,0.2,0.8,0.2
			c0.2-0.1,0.4,0,0.8-0.2c0.5-0.2,0.8-0.8,1.4-0.9c0.5-0.1,1.2,0.2,1.8,0c2-0.6,4-1,6.2-0.7c0.4,0,1.2-0.2,1.4-0.1v0.2
			c0.3,0.2,0.6,0,0.9,0.2c0.1,0.1,0.1,0.2,0.2,0.4c0.2,0,0.4,0.1,0.6,0.1c0.6,0.3,1.6,1.2,1.7,2.1c-0.1,0.1-0.4,0.9-0.6,0.6v0.3
			h-0.3c-0.2,0.4-1,1.2-1.5,1.3l-0.2-0.2v0.4c-0.6,0.1-1.2,0.8-1.6,1.1c-0.3,0.2-0.5,0-0.7,0.1c-0.1,0.1-0.1,0.2-0.2,0.3
			c-0.2,0-0.5,0.1-0.7,0.1c-0.2,0.1-0.3,0.4-0.4,0.4c-0.2,0-0.4,0.1-0.6,0.1v0.2c-0.3,0.2-1.3,0.1-2,0.4c-0.4,0.1-1,0.5-1.4,0.6
			c-0.5,0-1,0.1-1.4,0.1c-0.4,0.1-1.3,0.3-1.7,0.5c-0.2,0.1-0.3,0.5-0.5,0.7v0.7c0.4,0.3,0.5,0.6,1.1,0.6c0.4,0.3,1.3-0.1,1.7,0
			c0.2,0.6,0.8,1.1,1,1.7c0.1,0.2,0,0.6,0.1,0.7h-0.2c-0.5,0.4-1.4,0.2-2,0.5c-0.5,0.3-1.3,0.5-2.1,0.7h-0.8
			c-0.7,0.3-1.5,0.6-2.1,0.7c-0.4,0.1-0.7-0.2-1.2-0.1c-0.5,0.1-0.8,0.3-1.3,0.5c-0.1,0.6-0.3,0.9-0.1,1.5c1.6,0.7,3.6-0.2,5-0.6
			c2.1-0.6,3.6-0.6,5.6-1.3c0.4-0.2,0.9-0.6,1.3-0.7c0.8-0.2,1.9-0.2,2.9-0.5c0.5-0.2,0.9-0.5,1.6-0.5c0,1-0.4,1.9-0.7,2.7
			c0.1,0.6-0.5,1.9-0.8,2.5c-0.2,0.4-0.1,0.9-0.4,1.3c-0.4,0.8-1,1.7-1.4,2.5c-1.1,2.2-1.6,4.6-2.9,6.6c-0.3,0.5-1,1-1.3,1.5
			c0,0.2-0.1,0.4-0.1,0.5c-0.3,0.5-0.7,1.1-1.1,1.5C473.6,235.5,472.7,236.1,472.3,236.8z M470,243.7c0-0.1-0.1-0.2-0.1-0.3
			c0.3-0.4,1.7-1.3,1.9-1.8c0.2-0.3,0.6-1.4,1.1-1.7v0.1c0.5,0.6,0.1,2-0.3,2.7c-0.2,0.4-0.2,0.8-0.4,1.2c-0.3,0.4-3.2,1.4-3.7,1.3
			V245c0.6-0.2,0.6-0.7,1-1.1C469.5,243.8,469.9,243.9,470,243.7z M496.9,237.9c-0.4-0.1-0.5-0.2-0.7-0.3c-0.3-0.6-1-1.2-1.4-1.9
			c-0.2-0.3-0.1-1-0.4-1.3c-0.1-0.2-0.3,0-0.4-0.3c-0.3-0.4-0.4-1.6-0.4-2.2c0.2-0.1,0.3-0.1,0.6-0.1c0.1-0.1,0.1,0,0.4-0.1
			c0.1,0.8,0.6,1,0.9,1.6c0.1,0.2,0,0.7,0.2,1.3c0.1,0.3,0.4,0.7,0.4,1v0.5c0.1,0,0.2,0.1,0.3,0.1
			C496.6,236.7,496.8,237.3,496.9,237.9z M501.4,238.4l-0.3,0.3c-0.4-0.2-0.8-0.6-1.3-0.7v-0.3h-0.3v-0.3h-0.3c0-0.2,0-0.2-0.1-0.3
			c-0.2-0.5-0.5-0.4-0.7-0.7c-0.1-0.1,0-0.6-0.1-0.9c-0.2-0.6-0.7-1.2-0.7-2.1h-0.3c-0.1-0.7-0.5-3-0.3-3.5c0.1-0.2,0.4-0.2,0.7-0.2
			c0.6,0.5,1.5,0.8,1.8,1.4c-0.1,0.1-0.1,0.2-0.1,0.4c0.3,0,0.3,0.1,0.5,0.2c0,0.2-0.1,0.4-0.1,0.7h0.3c0,0.1,0.1,0.1,0.1,0.2
			C501.1,233.7,501.5,237.4,501.4,238.4z M506.6,236.7c0.1,0.4-0.2,0.6-0.1,1c-0.2,0.1-0.2,0.1-0.4,0.3H506c-0.3-0.7-1.3-1-1.7-1.6
			c-1-1.5-1.7-4.9-1.3-7.1h0.3c0.1,0.1,0.2,0.1,0.4,0.1c0.1,0.2,0.4,0.6,0.4,0.6c0.2,0.1,0.5,0.2,0.6,0.4c0.1,0.2,0.5,1.3,0.6,1.5
			c0.1,0.2-0.1,0.3-0.1,0.4c0.1,0.2,0.4,0.6,0.5,0.9c0.2,0.5,0,0.7,0.1,1.1C506.2,234.9,506.5,235.9,506.6,236.7z M511.4,237h-0.2
			v-0.3c-0.3,0-1.2-0.1-1.3-0.1c-1.2-0.8-1.5-1.8-1.9-3.4c-0.1-0.4,0.1-1,0-1.3c-0.4-1.4-0.8-2.3-0.4-4c0.1,0,0.2-0.1,0.4-0.1
			c0.1,0.1,0,0,0.2,0.1c0,0.3,0,0.5,0.1,0.7c0.5-0.1,1,0.2,1.4,0.4C510.6,231,512.6,234.1,511.4,237z M512.2,246.9
			c-2,1.1-5.3,1.1-7.8,1.2c-1.2,0-3.6,0.3-4.2-0.2c-0.1-0.1,0,0-0.1-0.2c-0.1-0.2,0-0.5,0-0.8h-0.4c-0.3-0.7-1.2-1.4-1.8-1.9
			c-0.3-0.3-0.5-0.6-0.8-0.9c-2-1.3-4-2.2-7.3-2.2c-0.3-0.4-0.7-0.5-0.8-1.2h0.2c0.5-0.5,1.6-0.4,2.6-0.4c0.7,0,1.1-0.1,1.6-0.3
			c0.9-0.3,1.7,0.2,2.5,0.2c0.5,0,1.5,0.3,2.2,0.1c0.3-0.1,0.6-0.7,1-0.5c0.3,0.1,0.7,0.6,0.8,0.7c0.1,0,2,0.3,2.5,0
			c0.6-0.3,0.7-1.4,1.2-1.7c0.8,0.8,2.6,1.6,4,0.8c0.6-0.3,0.6-1,1.3-1.1c0.3,0.4,0.8,0.4,1.2,0.7c0.5,0.6,0.6,2.2,0.9,3.1
			c0.2,0.6,0.5,1.1,0.7,1.5c-0.1,0.8,0.2,1.1,0.4,1.7v0.6C512.1,246.5,512.2,246.4,512.2,246.9z M474.8,267c0.2-2.2,0.6-4.5,1.1-6.3
			c0.2-0.6-0.1-0.8,0-1.3c0.1-0.5,0.2-1.3,0.3-1.8c0-0.1-0.1-0.4-0.1-0.6c0.5-2.3,0-3.8,0.4-6c0.1-0.6-0.2-1.2,0-1.9
			c0.1,0,0.1,0.1,0.2,0.1c0.3,0.6,0.6,0.8,0.4,1.5c1.8,0.1,2.2,2.1,3.2,2.9c0.5,0.4,1,0.9,1.5,1.3c0.3,0.2,0.9,0.2,1.3,0.4v0.2
			c0.3,0.2,0.6,0.2,0.9,0.4c0.2,0.2,0.4,0.4,0.5,0.6c0.2,0.1,0.3-0.1,0.5,0.1c0.2,0.2,0.4,0.6,0.6,0.8c0.3,0.2,0.5,0.2,0.8,0.4
			c0.7,0.5,1.2,1.1,2.2,1.3v0.3h0.4c0.3,0.5,0.7,0.8,1.2,1.1c0.2,0,0.4,0.1,0.5,0.1c0,0.1,0.1,0.2,0.1,0.3c0.2,0.2,0.7,0.6,1,0.7
			c0.5,0.2,1.1,0.3,1.5,0.5c0.1,0.1,0.3,0.4,0.4,0.4c0.7,0.4,1.4,0.6,2.1,1c0.1,0.1,0.1,0.3,0.2,0.4c0.2,0,0.5,0.1,0.7,0.1
			c0,0.1,0.1,0.2,0.1,0.3c0.4,0.3,1.1,0.6,1.5,0.8c1,0.5,3.1,0.4,3.8,1c0.1,0.1,0.1,0.2,0.1,0.4c-0.4,0.4-0.2,0.8,0,1.5
			c0.2,0.1,0.3,0.3,0.5,0.4c0.1,0,0.3,0,0.5,0c0.2-0.3,0.6-0.2,0.7-0.6c0.2-0.3,0-0.7,0.1-0.9c0-0.1,0-4.2-0.2-4.8
			c-0.4-1.6-0.5-3.7-0.9-4.9c0-0.1,0.3-0.2,0.2-0.4c0,0-0.3-0.1-0.3-0.2c0-0.1,0.1-0.3,0-0.5c-0.1,0-0.1-0.1-0.2-0.1v-0.4
			c0-0.1-0.3-0.5-0.4-0.6c-0.2-0.6,0-1.2-0.4-1.9c-0.3-0.7-1-2.3-1-2.9c0,0,0.1-0.1,0.1-0.1c0.8,0.2,2.4,0.2,3-0.1
			c1.4,0.3,5.3,0.1,6.6-0.4c0.5-0.2,1.3-0.6,1.8-0.8c0.6-0.2,1,0.4,1.7,0.1v-0.2c0.2,0,0.4-0.1,0.5-0.1c0.1-0.4,0.2-0.8,0.7-0.9
			c0.9,1.9,1.6,4.4,2.5,6.6c0,0.1-0.1,0.2-0.1,0.3c0.1,0.4,0.3,0.9,0.4,1.3v0.5c0.4,0.8,0.7,2.3,1.1,2.9c0,0.1-0.1,0.2-0.1,0.3
			c0.2,0.5,0.3,1.3,0.4,1.9c0,0.1-0.1,0.4,0,0.7c0.3,0.7,0.7,2,1,2.9c0,0.3,0.1,0.7,0.1,1c0.1,0,0.2,0.1,0.3,0.1
			c0.1,0.2-0.1,0.2-0.1,0.4c0,0.1,0.2,1,0.3,1.2h0.2c0,0-0.2,0.8-0.2,1.2c0,0.2,0.2,1.4,0.3,1.5c0.2,0.8-0.1,2.5-0.3,3
			c0,0.4-0.1,0.7-0.1,1.1c-0.1,0.5-0.4,1.7-0.6,2.1c-0.2,0.4-0.7,1-0.9,1.4v0.4c-0.3,0.3-1,0.7-1.3,1c-0.2,0.1-0.3,0.5-0.4,0.6
			c-0.2,0.2-0.5,0.2-0.8,0.4c0,0.1-0.1,0.2-0.1,0.3c-0.2,0-0.4,0.1-0.5,0.1c-0.7,0.5-1.4,1-2.3,1.3c-1,0.3-3,0.2-3.7,0h-1.1
			c-1.2-0.3-2.7-0.2-3.7-0.6c-1.4-0.6-2.6-1.1-4-1.8c-0.3-0.1-0.5-0.5-0.7-0.6c-0.1,0-0.2,0.1-0.4,0.1c-0.1,0-0.9-0.3-1.1-0.4
			c-0.7-0.3-1.4-0.9-2.1-1.3c-0.7-0.3-1.4-0.5-2.1-0.7h-0.5c-0.1-0.1-0.3-0.3-0.4-0.4c-0.5-0.2-0.9-0.2-1.3-0.4
			c-0.6-0.3-1.3-0.7-2-1c-0.6-0.2-1.1-0.1-1.7-0.4c-1-0.4-2-1.2-3-1.6c-0.6-0.3-0.9-0.1-1.5-0.3c-0.5-0.1-0.9-0.5-1.3-0.7
			c-0.2,0-0.4-0.1-0.6-0.1c-0.2-0.1-0.4-0.5-0.7-0.6c-0.9-0.4-1.9-0.6-2.7-1.2c-0.3-0.2-0.9-0.8-1.2-0.6
			C477.3,268.5,476.2,267.2,474.8,267z M452.2,313.5c-0.7,0.2-1.6,0.4-2.4,0.6h-1.1c-0.8,0.2-2.1,0.4-2.8,0.5
			c-0.2,0.1-0.6-0.3-1-0.2c-1.9,0.4-4.2,0.6-6.5,0.2c-0.4-0.1-1.8,0.1-1.9,0.2c-0.1,0.1-0.1-0.2-0.1-0.2c-0.4-0.2-1.3,0.1-1.6,0.1
			c-0.2,0-0.6-0.1-0.7-0.2h-0.3c-0.3-3.1-2.6-3-4.7-4c-1-0.5-2.7-0.3-2.9-1.6c0.1-0.1,0.2-0.1,0.4-0.1c0.6,0.4,2.2,0.1,3.3,0.2
			c1.3,0.1,3.5-0.4,4.6-1.3c0.1-0.2,0.2-0.4,0.4-0.6c0.3-0.3,0.6-0.4,0.7-0.9c1.1-1.7-1.2-3.1-2.1-3.7c-0.3-0.2-0.7-0.1-1.1-0.2
			c-0.5-0.2-1.2-0.5-2-0.4c-0.4,0.1-0.8,0.4-1.2,0.4c-0.1-0.1-0.3-0.1-0.4-0.2c0,0.1-0.1,0.1-0.1,0.2c-0.3,0-0.5,0.1-0.8,0.1
			c0,0.1-0.1,0.1-0.1,0.2c-0.1,0-0.2-0.1-0.3-0.1c-0.7,0.2-1.7,0.6-2.6,0.4c-1.4-0.3-3.1,0.4-3.7-1.1c0.2-0.1,0.3-0.1,0.6-0.1
			c0.4,0.3,1.4-0.1,1.5-0.2c0.2-0.3,0.4-0.6,0.5-1c0,0-0.1-0.1-0.1-0.1c-0.2,0.1-0.1,0.1-0.2,0c-0.2-0.1-0.4-0.2-0.8-0.2
			c-0.2,0.2-1,0.1-1.3,0.1c-0.2-0.9-0.1-3,0.3-4c1.3,0.4,1.7,1.1,2.9,0.8c0-0.3,0.1-0.3,0.2-0.4c0-0.1,0-0.3-0.2-0.5
			c-0.5-0.5-2-0.7-2.3-1.4c0.1-0.2,0-0.8,0.3-1.2c0.1-0.1,0,0,0.2-0.1c0.3-0.2,0.9-0.1,1.3-0.1v0.4h0.2c0.1-0.1,0.1-0.2,0.2-0.4
			c0.5,0.2,0.6,0.2,1.2,0.2c0.1-0.4,0.4-0.5,0.5-1c-0.5-0.1-0.5-0.4-0.8-0.5H425c-0.2-0.1-0.3-0.3-0.5-0.4c-0.1,0.3-0.9,0.5-1.2,0.4
			h-0.1c0-0.2-0.1-1,0-1.4c0.3-0.8,0.7-2,0.8-2.9c0.5,0.1,0.5,0.3,0.8,0.4c0.7,0.4,1.3,0.4,2.2,0.4c0.1-0.5,0.2-0.5,0.2-1.2
			c-0.1,0-0.2-0.1-0.3-0.1c-0.5-0.2-2.2-0.2-2.2-1.5c0.5-0.6,0.4-1.9,1.3-2c0.3,0.4,0.8,0.8,1.4,0.9c0.1-0.1,0.6-0.1,0.9-0.1
			c0.1-0.3,0.3-0.5,0.4-0.7c-0.1-0.1-0.2-0.3-0.3-0.4c-0.4-0.4-1.2-0.3-1.6-0.6c-0.2-0.2-0.2-0.3-0.6-0.5c0.1-0.5,0.9-2.9,1.6-2.9
			c0.3,0.4,1.3,1,1.8,1.2c0.5,0.1,0.9-0.1,1.3-0.2c0.1-0.2,0.1-0.3,0.3-0.4c0-0.2,0-0.3-0.1-0.4c-0.6-0.8-1.2-0.6-2-1.1
			c-0.5-0.3-0.8,0.1-0.9-0.6c0.9-0.8,0.7-2.7,1.7-3.2c0.1-0.1,0.2-0.1,0.4-0.1c0.2,0.2,0.3,0.3,0.4,0.6c0.9-0.1,1.1,0.5,2.2,0.5
			c0.2-0.2,0.5-0.3,0.6-0.5c-0.1-0.1-0.1-0.3-0.1-0.5c-0.3-0.2-0.7-0.6-1-0.8c-0.1,0-0.2,0.1-0.3,0.1c-0.1,0-0.1-0.3-0.2-0.4
			c-0.1,0-0.3,0.1-0.4,0.1c-0.5,0-1.2-0.3-1.3-0.8c0.3-0.4,0.6-1.3,0.6-1.9c1.2,0,2.9,0.6,3.6,0.1c0.2-0.2,0.3-0.5,0.4-0.8
			c-0.3-0.2-1-0.6-1.3-0.9c-0.5,0.2-1.2,0.3-1.9,0.2v-0.4h-0.1c0,0,0.1-0.1,0.1-0.1c0-0.1,0.8-1.3,0.9-1.4c1-0.7,3.5-0.9,4.9-1.3
			c0.2-0.1,0.5,0.1,0.6,0.1c1.4-0.3,2.6-0.8,4.4-0.8c0.3-0.4,0.7-0.4,0.9-1c-0.6-0.6-0.1-0.9-1.4-0.9c-0.6,0.5-1.6,0.3-2.7,0.5
			c-0.3,0.1-0.7,0.1-1,0.2l-0.3,0.3c-0.7,0.3-1.4,0-2,0.2l-0.3,0.3c-0.3,0.1-1.2-0.1-1.7,0.1c-1.7,0.6-3.3,1.3-4.8,2
			c-0.5,0.2-1,0.2-1.5,0.4c-2.1,1.2-4.2,2.6-6.3,3.8c-0.8,0.5-1.4,1.5-2.1,2.1c-0.4,0.3-1.6,1-1.8,1.4v0.6c-0.2,0.5-1.1,0.9-1.3,1.5
			c-0.5,1-0.1,2.4-0.4,3.7c-0.3,1.4,0.1,4.8,0.4,6c0.1,0.3-0.1,0.6-0.1,0.8c0.2,1.6,0,2.4,0.4,3.7c0.1,0.2-0.1,0.3-0.1,0.4
			c0.4,2.3,1.1,3.8,0.1,6c-0.6,0.1-1,0.4-1.5,0.5c-0.3,0-0.5,0.1-0.8,0.1c-1.3,0.5-2.9,0.9-4.4,1.3c-0.1,0-0.3-0.1-0.4-0.1
			c-1,0.1-1.7,0-2.8-0.1c-0.2-0.8-0.5-1.6-0.6-2.6c0.5,0.1,0.7,0.5,1.1,0.5c0.8,0.2,2.1-0.1,2.4-0.7c0.1-0.1,0.1-0.3,0.1-0.5
			c-0.3-0.3-0.3-0.4-0.9-0.4c-0.3-0.1-0.6,0.3-0.9,0.4c-0.5,0.2-1.4,0-2,0c-0.1-1.1-0.4-1.9-0.4-3c1,0,1.7-0.1,2.7-0.3
			c0.1-0.3,0.2-0.4,0.2-0.9c-0.2-0.1-0.4-0.2-0.5-0.4c-0.8,0-1.6,0.1-2.6,0.1c-0.1-1.2-0.5-2-0.5-3.3l0.1-0.1c1.1-0.1,1.9-0.3,2.6-1
			c-0.1-0.1-0.1-0.4-0.2-0.6c-0.9-0.3-1.6-0.1-2.8,0c0,0-0.1-0.1-0.1-0.1c0-1.5-0.3-2.5-0.4-3.9l0.1-0.1c0.7,0,1.7,0,2.3-0.1
			c0.2-0.5,0.5-0.5,0.5-1.3c-0.3-0.1-0.3-0.2-0.7-0.3c-0.2-0.1-1.8,0-2.2,0.1c-0.2-1-0.3-2.1-0.2-2.9c0.1-0.6-0.3-0.9,0-1.3
			c0.3-0.2,0.9-0.1,1.3-0.1c0.3,0.2,0.7,0.1,1.3,0.1c0.3-0.4,0.6-0.4,0.6-1.2c-0.2-0.1-0.7-0.4-1-0.4c-1.2-0.4-2.1,0.5-2.1-1.3
			c0.5-0.8,0.6-3,1.4-3.2c0.8,0.8,2.2,1.7,3.4,1.6c0.1-0.2,0.1-0.3,0.1-0.6c-0.6-0.6-0.9-1.2-1.6-1.7c-0.4-0.3-1.1-0.4-1.3-0.9
			c0.6-0.6,1.1-1.9,2.2-2c0.4,0.8,1.7,1.7,2.3,2.3c0.3,0,0.5,0,0.6-0.1c0.3-0.2,0.3-0.5,0.3-1c-0.2-0.1-2-2-2.1-2.2
			c1-0.7,2.3-1.4,3.1-2.2c0.2,0.1,0.1,0,0.2,0.1c0.6,0.5,0.7,1.6,1.4,2.1c0.3,0.3,1.1,0.3,1.3,0.1c0.2-0.2,0.3-0.4,0.3-0.8
			c-0.6-0.6-1.4-1.5-1.6-2.4c0.1-0.1,0,0,0.1-0.2c1-0.3,1.5-1.2,2.6-1.3c0.5,0.9,1,2.4,2.1,2.8c0.2-0.2,0.5-0.3,0.7-0.4h-0.1
			c-0.1-0.1-0.1-0.1-0.2-0.2c0.4-0.4-0.8-2.6-1.2-2.9c0.8-0.5,1.7-1.3,2.9-1.5c0.1,0.4,1.7,2.5,2.1,2.6c0.1,0.1,0.2,0.1,0.4,0.1
			c0.2-0.2,0.5-0.3,0.7-0.4c0.1-0.9-0.5-1.2-0.5-1.9c-0.1,0-0.1,0.1-0.2,0.1c-0.2-0.2,0.1-0.2,0-0.4c-0.2-0.1-0.4-0.1-0.5-0.2
			c-0.1-0.2,0.1-0.3,0.1-0.4c-0.1-0.2-0.4-0.2-0.5-0.4c0.7-0.4,1.5-1,2.2-1.4c0.6-0.3,1.4-0.5,1.9-1c0.1,0,0.2,0.1,0.3,0.1
			c0.5,0.9,1.3,2.9,2.1,3.3c0.1,0.1,0.2,0.1,0.4,0.1c0.2-0.2,0.7-0.3,0.7-0.7c0.1-0.5-0.6-0.8-0.9-1.3c-0.2-0.3,0.1-0.9-0.1-1.3
			c-0.1-0.3-0.7-0.6-0.9-0.8V255c0.9-0.4,1.8-1.2,2.9-1.4c0.6,1.1,1.4,2,2.2,2.9c0.2,0,0.4-0.1,0.5-0.1c0.2-0.3,0.5-0.3,0.5-0.8
			c-0.6-0.8-1-1.8-1.7-2.5c0.1-0.2,0-0.1,0.1-0.2c0.2-0.4,2-1.3,2.6-1.3c0.5,1,1,2.7,2.4,2.8c0.1-0.2,0.3-0.3,0.4-0.5
			c0.4-0.7-1.3-2.5-1.5-3.1c0.5-0.1,0.6-0.5,1-0.7c0.2-0.1,0.5-0.1,0.7-0.2c0.7-0.4,1.4-1.1,2.2-1.3c0.3,0.7,0.6,1.5,1.1,2
			c0.3,0.3,0.8,0.5,1,0.8c0.3,0.4,0.3,0.8,0.5,1.2c0.4-0.2,0.8-0.1,1.1-0.4c0.1-0.2,0.2-0.3,0.2-0.6c-0.4-0.4-1-2.2-1.3-2.3
			c-0.5-0.4-0.9-0.5-1.2-0.9c0.2-0.1,0.2-0.1,0.2-0.2l-0.2-0.2c0.9-0.2,2-1,3.2-1.1c0,0.5,0,0.5,0,1c0.2,0,0.2,0,0.3,0.1
			c0.9,0.9,1.8,1.6,3.1,2.1c0.1-0.1,0.2-0.1,0.4-0.2c0.1-0.3,0.2-0.3,0.3-0.7c-0.1-0.1,0,0,0-0.3c-0.1-0.1-0.4-0.2-0.5-0.4
			c-0.1-0.1-0.1-0.4-0.2-0.4h-0.7c-0.5-0.2-1.3-0.9-1.3-1.5c0.1-0.1,0.1-0.3,0.2-0.4c0.1,0,0.2-0.1,0.4-0.1c0.4,0.2,0.7-0.1,1.1,0
			c0.7,0.2,1.7,0.7,2.3,0.8c0.3,0,0.6-0.1,0.9-0.1l0.3,0.3c0.6,0.2,1.1,0,1.6,0.1c0.5,0.1,1.3,0.4,1.9,0.5c0.2,0,0.4-0.1,0.5-0.1
			c1.1,0.2,2.5,0.5,3.7,0.4c0.1,0,0.4,0.2,0.4,0.2c0.3,0,0.6-0.1,0.9-0.1c0.3,0.1,1,0.2,1.4,0.2c1.7-0.2,4.1-0.8,5.2-0.6
			c0.6,0.1,1.5-0.3,1.8-0.3c0.4,0.1,3.4-0.9,3.7-1.1c0.2-0.1,1.5-1.9,1.5-1.9h0.3c-0.1-0.3,0-0.4,0.1-0.7h0.2v0.1
			c-0.5,0.6,0.5,5.1,0.3,6.8c-0.2,1.2,0.1,2.8-0.2,4.2c-0.2,0.9,0,2.7-0.2,3.7c-0.3,2.1-0.6,4.2-1,5.8c-0.1,0.5,0,1.7-0.3,2.3
			c-0.6,1.5-0.8,4-1.2,5.4c-0.1,0.3,0,1.4-0.1,1.7c-0.8,2.6-1.4,5.5-2.2,7.9v0.6l-0.3,0.3v0.9c-0.3,0.7-0.8,1.7-1.1,2.4
			c0,0.1,0.1,0.5,0,0.8c-0.2,0.7-0.7,1.6-1,2.3c-0.3,0.7,0,1-0.4,1.7c-0.1,0.1-0.2,0.1-0.3,0.2c0,0.1,0.1,0.2,0.1,0.3
			c-0.1,0.2-0.3,0.5-0.4,0.6c0,0.1,0.1,0.2,0.1,0.4c-0.1,0.5-0.5,0.9-0.6,1.3l-0.3,1.3c-0.1,0-0.2,0.1-0.3,0.1v0.5
			c-0.1,0.5-0.5,0.9-0.7,1.3v0.4c-0.3,0.7-0.8,1.4-1.2,2.1c0,0.2-0.1,0.4-0.1,0.6c-0.1,0.2-0.4,0.6-0.5,0.8c-0.3,0.6-0.3,1-0.6,1.5
			c-0.4,0.7-1.1,1.4-1.5,2.1c0,0.1,0.1,0.3,0,0.4c-0.2,0.4-0.6,0.7-0.8,1.1c0,0.2-0.1,0.4-0.1,0.6c-0.2,0.3-0.7,0.6-0.9,0.9
			c-1,1.8-1.9,3.7-2.9,5.4c-0.3-0.1-0.7-0.1-1-0.2c-0.1,0.2-0.3,0.4-0.4,0.5c-0.3,0.2-0.7,0.1-1.1,0.3c-0.3,0.1-0.7,0.4-0.9,0.4
			L452.2,313.5L452.2,313.5z M406.1,269.5c0,0.2,0.1,0.1-0.2,0.2v-0.2H406.1z M430.6,330.5c0-0.4-1.7-1.4-2.2-1.7
			c0.1-0.2,0-0.5,0.1-0.6c0.4-0.7,1.7-0.4,2.1-1.3c0.3-0.4,0-0.9-0.4-1c-0.1,0-0.4,0.1-0.5,0c-1.2,0.7-1.3,1-2.7,0.5
			c-0.3-0.1-0.6-0.1-0.8-0.3c-0.4-0.3-0.8-0.9-1-1.5c1-0.5,2.9-1.2,2.9-2.6c-0.5-0.2-0.4-0.5-1.2-0.5c-0.2,0.9-2,2.2-3,1.5
			c-0.4-0.1-0.5-0.4-0.7-0.6V322c1.1,0,1.4-0.7,2-1.3c0.1,0,0.1,0.1,0.2,0.1c0.2-0.4,0.1-0.6,0.4-0.9c0.6-0.4,1.4,0.2,2.4-0.1
			c1.2-0.3,1.6-1.1,2.3-1.9v-1.1c1.1-0.1,1.5-0.5,2.4-0.7c1.3,0,2.5,0.1,3.7,0.1c0.6-0.1,0.9,0.1,1.3,0.1c1.2-0.1,3-0.1,4,0
			c0.3,0,0.5-0.1,0.6-0.2c1-0.2,2.9-0.2,3.6-0.2c0.3,0,0.7-0.2,0.9-0.3c0.8-0.2,2.3-0.2,2.9-0.2c0.4,0,0.8-0.3,1.2-0.2
			c0.9,0.2,1,1.1,1.5,1.6c1.1,1.1,2.1,2.1,3.1,3.3c0.1,0.1,0.2,0.1,0.4,0.2c0.5,0.6,0.9,1.6,1.7,1.8v0.3c0.8,0.5,1.3,1.4,1.8,2.1
			c0.3,0.3,0.8,0.6,1.1,0.9c0.1,0.2,0.2,0.5,0.3,0.7c0.3,0.3,0.6,0.6,0.9,0.9c0.3,0.5,0.5,1,0.9,1.4c0.1,0.2,0.4,0.2,0.5,0.4v0.3
			c0.3,0.5,0.8,1.1,1.3,1.5c0.2,0.2,0.5,0.3,0.7,0.4c0.3,0.2,2.3,2.9,2.4,3.3h0.3c0.3,0.5,0.7,1.1,1.3,1.3v0.3
			c0.8,0.5,1.9,1.8,2.4,2.5c0.2,0.3,0.3,0.8,0.5,1.2c0.1,0.1,0.2,0.1,0.4,0.2c0.3,0.4,0.6,0.7,1,1.1c0.7,0.7,0.9,1.8,1.5,2.6
			c0.3,0.4,0.8,0.6,1,1.1c0.2,0.5,0,1,0.1,1.3c0.1,0.7,0.3,1.4,0.4,1.9c0.1,0.7-0.1,1.8,0.1,2.7c0.3,1.3,0.4,4.5,0.2,5.8
			c-0.1,0.5,0.2,1.6,0.3,1.7l-0.2,0.4c-0.1,0.4,0.1,0.7,0.1,1.1c-0.1,1.2,0.1,2.2-0.2,3.2c-0.1,0.3,0.1,0.8,0.1,1
			c0,0.2-0.1,1.1-0.2,1.3c0,0.4,0.1,0.8,0.1,1.3c-0.1,0.6-0.2,3.6,0.1,4.1c0,0-0.1,1.2-0.2,1.3c0.2,0.3,0,0.5,0.1,1.1
			c0.1,0.9,0.1,1.9-0.1,3.2c0,0.1,0.2,0.6,0.2,0.7c0,0-0.2,0.4-0.2,0.6c0,0.5,0.1,2.2-0.2,2.9c-0.1,0.3-1.1,1.4-1.3,1.5
			c-0.2,0.2-0.4,0-0.5,0.3c0,0,0.1,0.1,0.1,0.1c-0.7,0-1.5,0.7-2.1,1c-1.6,0.6-3.1,0.9-4.7,1.5c-0.5,0.2-0.9-0.1-1.4,0.2
			c-0.8,0.4-1.8,0.5-2.9,0.7c-0.7,0.2-1.2-0.4-2.2-0.1c-1.3,0.3-3.2,0.2-4.4,0c-0.3-0.1-0.1,0.2-0.4,0.2c-0.4,0-0.9-0.2-1.3-0.3
			c-0.2,0-0.5,0.1-0.7,0.1c-0.4,0-0.9-0.1-1.3-0.2c-0.5-0.1-1.5,0.2-2-0.1c0-0.1-0.1-0.2-0.1-0.3c-0.7-0.4-1.9-0.1-2.5-0.5
			c-0.1,0-0.2-0.3-0.3-0.4c-0.3-0.2-0.7-0.1-1-0.3v-0.2c-0.2-0.1-0.3,0.1-0.4,0.1c-0.5-0.2-1.4-0.4-1.4-1.2c0.2-0.2,0.2-0.3,0.5-0.4
			c0.7,0.6,1.9,0.6,2.6,0.4c0.1-0.2,0.2-0.2,0.3-0.5c-0.1-0.2-0.3-0.4-0.4-0.5c-0.2-0.1-0.4,0.1-0.5,0.1c-0.5,0-1.6-0.6-1.7-1.3
			c0.3-0.5,0.1-1,0.9-1.1c0.4,0.5,2.3,0.4,2.8,0.3c0.1-0.1,0.1-0.1,0.2-0.2v-0.5c-0.9-0.1-3.2-0.5-3.3-1.6c0.2-0.2,0.5-1.8,0.4-2
			c0.3,0,0.3-0.4,0.7-0.5c0.6,0.5,2.9,0.7,3.2,0c0-0.1-0.1-0.3-0.1-0.5c-0.3-0.1-0.4-0.2-0.9-0.2c-0.1,0.1-2-0.2-2.1-1
			c-0.1-0.2,0.4-2.6,1.1-2.7c0.7,0.6,3.2,1,3.5-0.2c-0.1-0.1-0.2-0.2-0.3-0.4c-0.9,0-2.2-0.4-3.2-0.6c0-0.8,0.3-1.7,0.4-2.5
			c0.6,0,0.6,0.1,1,0.3c0.3,0,0.6-0.1,0.9-0.1c0.3,0.1,1,0.5,1.4,0.4c0.2-0.1,0.3-0.3,0.6-0.4c0-0.4-0.1-0.5-0.4-0.7
			c-1.2-0.8-3.4,0.3-3.4-1.7c0.4-0.5,0.4-1.9,0.5-2.5c0.2-0.1,0.3-0.1,0.6-0.1c1,0.7,2.6,0.1,3.5-0.1c0-0.2,0.1-0.3,0.1-0.4
			c-0.2-0.2-0.1-0.2-0.5-0.3c-0.8-0.7-2.7,0.3-3.3-0.7c-0.1-0.2,0.2-2.7,0.6-3.3c0.1-0.1,0.2-0.1,0.4-0.1c0.7,0.6,3.6,1.2,3.7-0.4
			c-1.1,0-3.9-0.3-3.9-1.7c0.3-0.5,0.2-1.7,0.2-2.1c0.3-0.2,0.3-0.3,0.7-0.4c0.6,0.6,1.9,0.5,3.1,0.5c0.2-0.3,0.3-0.4,0.4-0.8
			c-0.2-0.1-0.1-0.2-0.4-0.3c-0.4-0.3-0.7,0-1.3-0.2c-0.8-0.2-1.5-0.5-2.1-0.8c0.1-0.5,0.3-1,0.4-1.3c0.2-0.7-0.3-1,0.4-1.3
			c0.2-0.1,0.6,0.1,1.1-0.1c0.8-0.3,1.6-0.8,1.9-1.6c-0.2-0.1-0.2-0.3-0.3-0.2c-1.6-0.5-2.2,1.5-4.2,0.4c-0.4-0.2-0.6-0.2-0.7-0.6
			h0.1c0.4-0.7,1.7-0.5,2-1.3c0.1-0.2,0.1-0.5,0.1-0.8c0,0-0.1-0.1-0.1-0.1c-0.9-0.1-1.2,0.4-1.9,0.7c-0.1,0-0.4,0-0.6,0.1
			c-0.3,0.1-1,0.7-1.6,0.3c-0.5-0.2-1.2-0.7-1.3-1.2c1.2-0.5,1.4-0.8,2.2-1.7c0-0.3-0.1-0.4-0.3-0.5c-0.2-0.1-0.7-0.1-0.9,0.1
			c-1,0.9-1.6,1-3.1,1v-0.3h-0.3c-0.5-0.6-1.4-0.9-1.7-1.7c0-0.1,0-0.2,0.1-0.4c0.5-0.5,1.1-0.6,1.3-1.4c-0.1-0.1-0.1-0.2-0.2-0.3
			c-0.1-0.1-0.1-0.1-0.3-0.1c-0.6,0.4-1.9,1-2.8,1.1c-0.9-1-3.7-2.1-4.1-3.4c0,0-0.1-0.1-0.1-0.1c0.8-0.3,2-1.1,2.1-2.1
			c-0.1-0.1,0,0-0.1-0.2h-0.7c-0.2-0.1-1.6,0.8-2.2,1c-1.2,0.3-1.5-0.9-2.3-0.7c-0.1-0.8-0.8-0.9-1.2-1.4c0.8-0.4,1.8-0.9,2-2
			c-0.4-0.1-0.5-0.3-1-0.4C433.3,330.7,432.1,330.9,430.6,330.5z M371.3,354.3c0.3-0.6-0.2-1.7,0.6-2.1c0.2-0.1,2.7-0.1,2.8,0
			c0.6,0.7,0.2,2.5,1.3,2.7c0.1-0.1,0,0,0.2-0.1c0-0.1,0.1-0.2,0.1-0.4c0,0-0.2-2.3-0.2-2.5c0.1-0.1,0.2-0.2,0.4-0.4
			c0.2-0.2,0.9-0.4,1.1-0.3c0.8,0.4,1,2.1,1.3,3.1c0.5,0.2,0.5,0.3,1.2,0.3c0-0.2,0.2-0.5,0.1-0.7c-0.3-0.8-0.8-1.5-1.1-2.6
			c0.5-0.1,0.3-0.5,0.9-0.5c0.4-0.3,1.7-0.3,2.3-0.2c0.1,0.6,0.6,1.6,1.1,1.8c0.1,0.1,0.2,0.1,0.4,0.1c0.1-0.2,0.1-0.4,0.1-0.6
			c-0.4-0.6-0.3-1.5-0.4-2c1-0.3,1.4-0.8,2.5-0.7c0.3,0.8,1,1.3,1.2,2.2c0.4,0,0.5,0.1,0.8-0.1c0.1-0.2,0.2-0.3,0.2-0.7
			c-0.2-0.2-0.9-1.7-0.8-1.8c0.2-0.4,0.5-0.4,0.9-0.6c0.2-0.1,0.6-0.4,0.9-0.4c1.3-0.3,1.4,2.3,2.7,2.5c0.1-0.1,0,0,0.2-0.1v-0.4
			c0.5-0.8-1-1.8-0.6-2.3c0.2-0.4,1.4-0.9,1.9-0.6c1.2,0.5,1.6,2.4,2.9,2.7c0.2-0.2,0.4-0.5,0.2-0.6c-0.1-0.3-0.2-0.6-0.4-0.8h-0.2
			c0,0,0-0.6-0.1-0.8c-0.2-0.4-0.6-0.4-0.7-1.1c1-0.4,2.4-1,3.7-1.1c0.5,0.9,1.6,1.5,1.8,2.7c0.3,0.1,0.3,0.1,0.5,0.3
			c0.2-0.1,0.1-0.1,0.4-0.2c0-0.9-0.4-0.9-0.5-1.5h-0.3c0.1-0.7-0.6-1-0.6-2c0.5-0.3,0.5-1.1,0.9-1.5c0.2-0.2,0.4-0.2,0.5-0.4
			c0,0,0.1,0.1,0.1,0.1c0.8,0.6,1.4,1.4,2.1,2.1c0.4-0.1,0.2-0.1,0.6-0.1v-0.2c0,0-0.1-0.1-0.1-0.1c0.2,0,0.1,0.1,0.2-0.2
			c-0.1-0.2-0.2-0.2-0.2-0.5h-0.3v-0.3c-0.2-0.1-1.4-1.6-1.5-1.8c-0.1-0.1,0-0.3,0-0.6c0.5-0.6,1-2.4,1.9-2.5c0.2,0.4,1,1.4,1.5,1.5
			v0.3c0.2,0.1,0.5,0.2,0.7,0.3c0.1-0.2,0.3-0.2,0.4-0.3c0-0.3,0.2-0.7,0.1-0.8c-0.7-0.8-1.8-1.4-2.4-2.3c0.3-0.3,0.9-1.5,1.3-2.1
			c0,0,0.1,0.1,0.1,0.1c1,0.5,1.2,1.6,2.7,1.7c0.1-0.1,0.2-0.2,0.4-0.4c-0.2-0.1-0.1,0-0.2-0.1c0.2-0.1,0.1,0,0.2-0.1h-0.2
			c-0.1-0.6-0.5-0.5-0.8-0.8c-0.1-0.1-0.1-0.4-0.2-0.5c-0.4-0.7-1.1-0.5-1.1-1.5c0.1-0.5,0.9-1.8,1.3-2.4c1.3,0.2,1.3,2.3,3,2.3
			c0.1-0.2,0.2-0.3,0.3-0.5c-0.8-0.3-0.8-1.3-1.3-1.8c-0.5-0.5-1.2-0.5-1.3-1.5c0.6-0.7,1.4-3.2,2.3-3.5c0.2,0.7,1.2,1.9,1.6,2.5
			c0.3,0.4,0.2,0.8,0.6,1c0.2,0.1,0.4,0.1,0.7,0.1c0.1-0.2,0.1-0.2,0.3-0.3c-0.1-0.3,0-0.5-0.2-0.9c-0.1-0.2-0.4-0.5-0.5-0.7V327
			c-0.1-0.1-0.6-0.5-0.7-0.6c-0.3-0.5-0.3-1.1-0.4-1.6c-0.3,0-1-0.3-0.8-0.6c0.2-0.1,0.3-0.2,0.4-0.3c0.4-0.5,0.3-1.2,1-1.4v-0.1
			c0,0,0.1,0.1,0.1,0.1c0.7,0.7,0.9,2.5,2.1,2.6c0.1-0.1,0.2-0.1,0.3-0.3c0.1-0.2,0.2-0.2,0.2-0.5c-0.7-0.8-1.6-2.5-1.7-3.7
			c0.3-0.3,0.4-0.8,0.9-0.9c0.7,1.4,1.9,2.5,2.9,3.7c0.6,0.8,1,1.7,1.6,2.5c0.2,0.3,0.7,0.6,1,0.9c0.8,1.1,1.7,2.3,2.6,3.3
			c0.2,0.3,0.7,0.4,0.9,0.6c0,0.1-0.1,0.1-0.1,0.2c0.3,0.3,0.7,0.4,0.9,0.7c0.1,0.1,0.1,0.3,0.3,0.4h0.3c0.3,0.2,0.4,0.6,0.7,0.8
			c0.2,0.1,0.4,0,0.6,0.2c0.2,0.2,0.3,0.6,0.5,0.7c0.2,0,0.3,0.1,0.4,0.1c0.2,0.1,0.3,0.4,0.4,0.6c0.3,0.3,0.7,0.4,1.1,0.6
			c0.2,0.2,0.3,0.5,0.5,0.7c0.5,0.4,1.4,0.5,1.4,1.4c-0.5,0.4-0.5,0.9-0.9,1.5c-0.1,0.1-0.3,0.2-0.4,0.3c-0.3,0.3-0.3,0.8-0.5,1.2
			c-0.1,0.2-0.4,0.3-0.5,0.4c0.1,0.7-1.1,2.3-1.5,2.9v0.4h-0.1c-0.2,0.3-0.4,0.6-0.5,0.9c0,0.1,0.1,0.1,0.1,0.2
			c0,0.1-0.4,0.3-0.4,0.4c-0.1,0.2,0,0.4-0.2,0.6h-0.2v0.4c-0.2,0.3-0.6,0.5-0.8,0.7c0,0.2-0.1,0.4-0.1,0.5
			c-0.1,0.1-0.2,0.1-0.4,0.2c-0.1,0.2-0.3,0.5-0.4,0.6c-0.2,0.3,0,0.5-0.3,0.9c0,0-0.3,0.2-0.4,0.4c0,0.1,0.1,0.2,0.1,0.3
			c-0.1,0.1-0.4,0.2-0.4,0.4v0.4c-0.1,0.2-0.4,0.4-0.4,0.5c-0.2,0.3-0.2,0.7-0.4,1.1c-0.3,0.6-1,1.1-1.3,1.6c0,0.1,0.1,0.2,0.1,0.3
			c-0.1,0.1-0.4,0.2-0.5,0.4c-0.1,0.2,0.2,0.5-0.4,0.7c0,0.2,0,0.2,0.1,0.4h-0.3c-0.2,1.1-1.4,2.5-2.1,3.3c-0.4,0.5-0.7,1.2-1.3,1.6
			c-0.3,0.2-2,1-2.2,0.9c-2.4,1.8-6.1,2.2-8.4,3.6c-0.2,0-0.4,0.1-0.6,0.1c-0.4,0.2-0.9,0.5-1.3,0.8c0,0-1.1,0-1.4,0.2
			c-0.2,0.1-0.6,0.4-0.8,0.5c-0.3,0.1-1.1,0.1-1.3,0.4h0.1c0,0-0.1,0.1-0.1,0.1c-0.4-0.2-1.5,0.5-1.9,0.6c-0.6,0.3-1.1,0.3-1.6,0.4
			c-0.3,0.1-0.7,0-0.8,0c-0.1,0-0.4,0.3-0.4,0.4c-0.3,0.1-0.9,0.1-1.2,0.2c-0.2,0.1,0,0.1-0.4,0.2c-0.4,0.5-1.7,0.7-1.8,0.8
			c0.2,0.1,0.1,0,0.2,0.1c-0.7,0-0.8,0.3-1.2,0.4c-0.1,0.1-0.5-0.2-0.6-0.1c-0.1,0-0.4,0.3-0.5,0.4c-0.2,0.1-0.7,0-1,0.2
			c0,0.1-0.1,0.2-0.1,0.3c0,0-0.1-0.2-0.4-0.2c-0.3,0.1-0.7,0.4-1,0.5c-0.4,0-0.8,0.1-1.2,0.1c-0.5,0.2-2.3,0.9-2.7,0.7
			c-0.6,0.4-3.1,0.9-4,0.7c-0.7-0.1-0.9-0.7-1.5-0.9v-0.3c-0.8-0.6-1-1.3-1.7-2.1c-0.4-0.5-1.1-1.1-1.4-1.8c0-0.1-0.1-0.7-0.3-1
			c-0.2-0.2-0.5-0.5-0.6-0.8c0-0.3-0.1-0.5-0.1-0.8c-0.4-0.8-1.3-1.7-1.3-2.7c0-0.3-0.2-0.3-0.3-0.4c-0.1-0.3,0.1-0.8,0-1.3
			c-0.1-0.4-0.3-0.5-0.4-0.8c0.1-0.2,0.1-0.4,0.2-0.6c-0.1-0.1-0.2-0.1-0.3-0.2l-0.1-1.6c-0.4-0.6-0.6-2.1-0.5-3L371.3,354.3
			C371.3,354.3,371.3,354.3,371.3,354.3z M461.5,193.2c0.1-0.1,0,0,0.1-0.2h-0.3c0-0.2,0-0.2-0.1-0.3c-0.1-0.1-0.5-0.5-0.6-0.5
			c-0.2-0.1-0.6,0.1-0.9-0.1c0-0.1-0.1-0.2-0.1-0.4h-0.2c-0.1,0.3-0.4,0-0.6-0.1c-0.1,0.3,0,0.1-0.2,0.3c-0.1-0.1-0.7-0.2-1-0.3
			c0,0-0.1,0.1-0.1,0.1c0,0.8-0.2,0.8-0.2,1.3h-0.3c-0.1,0.3-0.1,0.3-0.2,0.6c-0.2,0-0.2,0-0.4,0.1c0,0.1,0.1,0.2,0.1,0.3
			c-0.2,0-0.5,0.2-0.4,0.3c-0.2,0.7,0.6,1.6,1.4,1.6c0.2-0.2,1-1.2,1.3-1.3c0.5-0.4,1.2,0.2,1.9-0.3
			C461.4,194.3,461.5,193.9,461.5,193.2z M459.6,192c-0.1,0.1,0,0-0.2,0.1C459.6,192.1,459.5,192.1,459.6,192z M464.5,200.8
			c0.4-1.1-0.9-3.2-1.6-3.5c0.2-0.2,0.1-0.1,0.1-0.4c-0.2,0.1-0.2,0.1-0.4,0.3c-0.3-0.1-0.4-0.2-0.6-0.1c-0.6,0.4-1.1,0.5-1.3,1.3
			c0.1,0.2-0.1,0.7,0.1,1c0.4,0.7,1.2,2,2.1,2.1c0.4,0.4,0.8,0.1,1.3,0C464.2,201.1,464.4,201,464.5,200.8z M455.6,219.4
			c0.2-0.2,0.2-0.8,0.1-0.9c-0.8-1.1-2.8,0-4.1-0.3c-2.2-0.5-3-2.3-2.9-5.6c0.5-0.4,0.9-1.2,1.6-1.5c0.8-0.4,1.7-0.4,2.2-1.1
			c0.2-0.2,0.3-0.6,0.2-0.8c-0.2-0.5-0.5-0.6-1.3-0.5c-0.5,0.5-1.4,0.4-2.1,0.7c-0.4,0.2-1,0.7-1.4,1c-1.2,1-1.4,2.8-1.2,4.6
			c0,0.3-0.2,0.8-0.1,1.1c0.1,0.3,0.5,0.5,0.6,0.7c0.3,0.5,0.5,1,0.5,1.6h0.3c0.8,1.3,3.4,2.2,5.3,1.8c0.6-0.1,1.2,0.1,1.6-0.2
			C455.3,219.9,455.5,219.7,455.6,219.4z M507.8,230.7c0.2-0.1,0.1,0,0.2-0.1L507.8,230.7L507.8,230.7z M450,239.3v-0.4
			c-0.2,0-0.2,0-0.4,0.1c0.1,0.2,0,0.1,0.1,0.2C449.9,239.3,449.7,239.2,450,239.3z M450.3,239.5c0.1-0.1,0,0,0.1-0.2
			c-0.2,0-0.2,0-0.3,0.1C450.2,239.5,450.1,239.5,450.3,239.5C450.2,239.6,450.2,239.6,450.3,239.5z"/>
	</g>
</g>
<path class="st2" d="M391.4,313.5c0,0-25.7,4.7-47.5-19.8"/>
<path class="st2" d="M361.1,317c0,0-30.6,2.3-50.7-12.8"/>
<path class="st2" d="M341.8,305.9c-0.9-0.3-31.8-13.4-44-42.9"/>
</svg>
