<?xml version="1.0" encoding="utf-8"?>
<!-- Generator: Adobe Illustrator 21.0.0, SVG Export Plug-In . SVG Version: 6.00 Build 0)  -->
<svg version="1.1" id="Calque_1" xmlns="http://www.w3.org/2000/svg" xmlns:xlink="http://www.w3.org/1999/xlink" x="0px" y="0px"
	 viewBox="0 0 841 595" style="enable-background:new 0 0 841 595;" xml:space="preserve">
<style type="text/css">
	.st0{fill:#DADADA;}
	.st1{fill:#FFFFFF;}
	.st2{fill:#1D1D1B;}
</style>
<path class="st0" d="M429.4,310.7c0,0-79.2-19.8-89.1-88.6c-9.9-68.8,63.9-56.9,79.7-18.8c6.9-27.2,48.3-73.3,85.6-43.1
	C581.9,222.1,429.4,310.7,429.4,310.7z"/>
<path class="st0" d="M347.9,291.1c0,0-16.6,11.9-31.3,2.7c-14.7-9.2-0.5-21.4,9.3-18.2c-4.1-5.7-6.2-21.1,5.6-23.3
	C355.7,247.7,347.9,291.1,347.9,291.1z"/>
<path class="st0" d="M495.9,287.7c0,0-5.3-8.7-0.2-15.7c5.2-7,10.7,0.5,8.7,5.3c3-1.8,10.7-2.3,11.4,3.7
	C517.2,293.2,495.9,287.7,495.9,287.7z"/>
<path class="st1" d="M425.3,238.5c0,0-10.2,0.6-13.9-7.3c-3.7-7.9,5.5-9.2,8.8-5.2c-0.2-3.5,3.1-10.5,8.6-8.3
	C440.2,222.2,425.3,238.5,425.3,238.5z"/>
<g>
	<g>
		<path class="st2" d="M496.6,327.5c-0.6-0.9,0-1.8-0.3-2.9c-0.4-1.5-0.4-2.8-0.7-4.3c0-1-0.1-2-0.1-3c-0.5-2.1,0.4-4.4-0.1-6.8
			c-0.3-1.3-0.5-3.7-0.7-5.1c0-0.1,0.2-0.4,0.1-0.7c-0.4-1.7-1.1-3.9-1.6-5.6c-0.2-1.5-0.5-3-0.7-4.5c-1.4-4.4-5.4-7.1-7.9-10.5
			c-0.7-1-1.1-2.1-1.9-3c-0.1,0-0.3-0.1-0.4-0.1c-0.2-0.2-0.1-0.5-0.3-0.7c-0.4-0.3-0.8-0.7-1.2-1c-0.3-0.5-0.5-1-0.9-1.4
			c-0.2-0.2-0.7-0.3-0.9-0.6c-0.9-1.2-1.5-2.5-2.3-3.8c-0.5-0.7-1.2-1.1-1.7-1.7c0-0.2-0.1-0.5-0.1-0.7c-0.2-0.4-0.8-0.9-1-1.3v-0.4
			h-0.3c-0.5-0.5-1.3-1.3-1.7-1.9c-0.6-0.8-0.8-1.8-1.4-2.6l-0.6-0.3c-0.1-0.3-0.2-0.6-0.3-0.9c-0.3-0.3-0.8-0.3-1-0.6
			c-0.2-0.3-0.2-0.7-0.4-0.9c-0.6-0.5-1.6-0.8-2-1.4c-1.2-2-2.3-6.2-2-8.5c-0.5-0.3-0.7-1-1.2-1.3c-0.9-0.6-1.5,0-1.6-1.4
			c2.1-1.1,3.7-1.8,3.6-4.8c-0.1-0.1-0.1,0-0.1-0.3c-0.9-0.3-1.2-0.4-2.2-0.1c-0.1,0.7-0.3,0.5-0.4,1.2c-0.7,0-1.4,0.1-2.2,0.1
			c-0.5-0.9-1.9-2.4-2.2-3.3c0.8-0.4,1.8-0.8,1.9-2c-0.5-0.8,0-2.1-0.3-3c-0.2-0.6-0.4-1.7-0.6-2.3v-1.2c-1.3-3.2-3.3-8.6-6.5-9.7
			v-0.4c1-0.1,2.3-0.6,2.7-1.3c0.2-0.2,0.2-0.4,0.3-0.7c-0.8-0.4-1.8-0.7-2-1.7c0.5-0.7,0.8-1.6,0.6-2.6c-0.6,0-0.7,0-1.4,0
			c0-0.9-0.1-1.6-0.3-2.3c-0.2-0.1-0.2-0.1-0.6-0.1c-0.5,0.5-1.3,0.9-2.2,1c-0.3-0.8-0.3-2-1.4-2c-0.3,0.7-0.5,1.3-1.2,1.6
			c-0.8,0.5-3.4-0.2-4.8-0.3c0,1,0.4,1.1,0.4,2c-0.5,0.3-0.7,0.5-0.7,1.3c0.2,0.2,0.2,0.5,0.3,0.9c-0.4,0.3-1.2,1.2-1.3,1.9
			c0.3,0.2,1.7,1,1.9,1.4c-0.5,0.5-0.6,1-0.4,1.9h0.4c-0.1,1.3-1.6,3-2.2,4c-0.3,0.7-0.1,1.3-0.3,2.2c-0.9,3.1-1.5,6-0.7,9.7
			c0.2,0.1,0.5,0.1,0.9,0.1c0.3-0.8,0.5-0.9,1.7-0.9c0.9,0.7,1.8,0.4,3.2,0.7c2.1,0.5,5.1,0.5,7.2,0c0.9,0,1.8-0.1,2.7-0.1
			c1-0.3,1.9-0.8,3.3-0.9v0.3c-0.6,0.6-1.2,1.2-1.7,1.7c-1.9,1.2-7.9,2.3-10.8,1.4c-0.8-0.2-2.9-0.8-3.6-1.2
			c-0.5-0.3-0.6-0.7-1.4-0.9c-0.2,0.2-0.5,0.3-0.7,0.6c-0.2,0.5,0.3,1.2,0,2c-0.3,1-1.3,2.3-2,3c-0.9,0.9-3.3,1.4-3.6,2.7h0.3
			c0.7,0.4,1.5-0.3,2-0.6c2.1-1.2,2.6-2.1,4-3.8c0.1,0.6,0,0.7,0,1.4c-0.5,0.4-0.5,0.8-0.9,1.3c-0.4,0.6-1.4,0.7-1.7,1.4
			c0.3,0.1,0.5,0.2,0.3,0.4c-0.2,0.5-0.6,0.7-0.7,1.3c-0.1,0.5,0,1.6,0,1.7c-0.4,1-0.6,2.5-1.2,3.5c-0.4,0.7-1.3,1.3-1.7,2
			c-1.2,1.9-2.3,4.1-2.9,6.5c-0.6,2.5,0.7,6.3,1.3,7.9c0,0.6,0.1,1.2,0.1,1.7c0.3,0.9,0.6,2.1,0.3,3.5c-0.5,2.3-0.3,4.2-0.7,6.6
			c-0.7,3.9-0.8,9.5-1.4,13.9c0.1,1.5,0.3,3,0.4,4.5c0,0.2-0.3,0.9-0.3,1.2c-0.2,2.3,0,4.1,0.3,5.8c0.1,0.8-0.2,1.8,0,2.6v2.2
			c0,1.6,0,2.7,0.3,3.9c0.2,0.6-0.2,1.4-0.3,1.9c-0.3,1.1,0,3.7,0.1,4.9c-0.9,0.5-1.4,1.5-2.6,1.6c-0.2-0.5-0.5-0.4-0.7-0.7
			c-0.3-0.4-0.9-2.5-1-3c-0.3-2.2-0.6-4.4-0.9-6.6v-3.3c-0.7-3.1-0.4-7-0.9-9.7c-0.1-0.6,0.3-1.1,0-2.2c-0.5-1.8-0.6-4.2-1-5.6
			c-0.2-0.8,0.3-1.1,0-1.9c-0.3-0.7-0.8-1.9-1-2.7c-0.1-1.1-0.3-2.1-0.4-3.2c-0.2-0.7-0.7-1.3-0.7-2.3c0.7-0.3,1.6-1.1,1.9-1.9
			c-0.4-0.5,0.8-2.5,1-3.3c0-0.8,0.1-1.5,0.1-2.3c0.6-2.6,1.3-9-0.9-10.5c-1.1-0.8-1.6,0-2.9-0.4c-1-0.3-2.8-0.8-4-0.9
			c0.2-3.6,1.9-5.6,2.9-8.1c1.3-3.5,0.6-8.4-1.6-10.4c-0.7-0.7-4.6-2.2-5.8-2.6c-0.5,0-1-0.1-1.4-0.1c-1.5-0.5-2.5,0.7-4,0.9
			c-0.4-1.2-1.5-2.7-2.9-2.9c-0.2,0.4-0.3,0.8-0.3,1.6c0.7,0.2,1.9,0.7,2,1.6c0.3,0.4,0.1,1.1,0,1.6c0,0,0.1,0.1,0.1,0.1h0.4v1.4
			c0.3,0.1,0.5,0.3,0.9,0.4v-0.1c0.4-0.2,0.3-0.1,0.4-0.6c-0.2-0.3-0.3-1.3-0.3-1.3c0.5-1,2.5-1.5,4-1.4c1,1.1,2.6,2.7,3.2,4
			c0.7,1.7-0.1,4.6-0.4,5.3v0.9c-0.3,0.9-1.3,3.1-1.9,3.8c-1.3,1.3-6.2,3.4-9,3c-1.5-0.2-3.3-0.9-4.6-1.4c-2.1-4.2,0.1-10,3-12.1
			c1-0.7,2.5-0.7,3.5-1.3c0.1-0.1,0.1,0,0.1-0.3c-0.3-0.5-0.5-1-0.9-1.4c-4.2,0.9-7.1,5-7.9,9.2c0,0.3,0.1,0.7,0.1,1
			c-0.1,0.6-0.5,1.3-0.3,2.2c0.1,0.3,0.3,1.2,0.1,1.7c-0.2,0.6-0.5,1.4-0.7,2c-0.1,0.4-0.2,0.9-0.3,1.3c-0.7,1-2.1,0.1-3.2,0.4
			c-1.2,0.4-1.4,1.1-2.2,1.9c-0.2,0.2-0.6,0.1-0.7,0.3c-0.3,0.4-0.1,0.9-0.3,1.4c-0.7,1.8-1.5,3.6-2,5.8c-0.3,1.1,0.1,2.2-0.4,3
			c-1.9,3-4.7,5.6-6.4,8.7c-2,3.6-2.9,7.8-5.1,11.3c-1.5,2.5-3.4,4.9-5.2,7.2c-0.7,0.9-1.8,1.4-2.6,2.2c-1.9,1.9-3.9,3.8-6.1,5.3
			c-0.6,0.4-1.4,0.6-2,1c-1.5,1-2.7,2.5-5.2,2c-0.4-0.6-0.9-1.4-1.2-2.2c-0.1-0.9-0.3-1.7-0.4-2.6c-0.2-0.4-0.7-1-0.9-1.4
			c-0.4-1.2,0.1-2.3-1.3-2.6c-1.3,1.1-1.7,1.5-2.2,3.5c-0.3,1.4,1,1.8,0,3c-1.5-1.4-4.1-3-6.9-3c-0.9,0.8-2.2,1.4-2.7,2.5
			c-1.8,3.5-1.4,8.4,0.4,11.6c0.5,0.9,1.9,1.4,2.6,2.2c3.5,0.1,6.2-0.5,9.4-1.4c1.1-0.3,1.8-1.1,3-1.3c0.2,0.7,0.9,1.3,1.7,1.4
			c0.4-0.3,1-0.4,1.4-0.7c1.5-1.1,2.9-2.4,4.5-3.5c0.4-0.3,1.8-1.3,2-1.2c0.1,0.2,0.1,0.2,0.1,0.6c-1.1,1.5-1.1,3.4-2,5.1
			c-0.1,0.1-0.3,0.2-0.4,0.3c-0.1,0.4-0.3,0.9-0.4,1.3c-0.3,0.3-0.7,0.6-1,0.9c-1,1.7-1.8,3.3-2.7,5.1c-0.4,0.8-1.3,1.6-1.9,2.3
			c-0.7,0.9-0.9,1.9-1.6,2.9c-0.5,0.7-1.4,1.2-2,1.7c-0.7,0.5-1.1,1.4-1.7,2c-1,1.1-2.3,1.9-3.5,2.7c-0.9,0.7-1.5,1.9-2.5,2.6
			c-2.5,1.9-5,4.3-7.7,5.9c-1.7,1-4,1.8-5.9,2.5c-0.9,0.3-1.5-0.3-2.3,0c-0.3,0.1-0.5,0.3-0.9,0.4l-0.9,1.3c-0.4,1.1,0.3,3.6-0.7,4
			c-2.1,1.8-4.9-1.2-5.8-0.9c-2.5,0.7-1.5,5.9-1.4,8.1c0.3,0.2,0.2,0.3,0.7,0.4c0.5,3.2,2.2,7.9,5.2,8.4c0.2,2.8,0.9,4.8,2.9,6.2
			c0.7,0.5,1.8,0.5,2.3,1.2c0.4,0.5,0.2,1.3,0.6,1.9c0.1,0,0.3,0.1,0.4,0.1c0,0.2,0.1,0.5,0.1,0.7c0.2,0.3,0.7,0.3,1,0.6
			c0.2,0.2,0.3,0.7,0.6,0.9c1.1,0.7,2.3,0.6,3.9,0.6c0.4,2.1,2.1,4.3,4.2,4.8c1.5,0.4,4-1,4.2-0.9c0.9,1.3,0.2,3.1,2,3.8
			c1.3,1,2.9,0.4,4.5,0.3c0.8,1.4,2.9,3.6,5.6,2.9c0.8-0.2,1.4-0.7,2.3-0.9c0.4,0.7,1.1,0.8,1.2,1.9c-0.7,1-0.6,2.6-1.2,3.8
			c-0.4,0.9-1.3,1.9-1.7,2.7c-0.4,0.7-0.3,1.4-0.7,2c-0.6,0.9-1.9,1.1-2.7,1.7c-0.6,0.5-0.2,1.1-0.6,1.6c-0.2,0.2-3.1,1.6-3.6,1.9
			c-3.3,2.2-6.8,7.8-3.6,12.3c0.5,0.6,1.4,0.7,2,1.2c4.1,2.9,9.3-0.1,12.3-2.2c0.5-0.4,1.3-0.6,1.7-1.2c0.7-0.9,1.9-3.2,2.2-4.3
			c0.2-0.6-0.3-0.7,0-1.3c0.1-0.1,0.3-0.2,0.4-0.3c0.6-1.5-1.9-5.1-2.5-5.6c-0.6-0.6-1.4-0.3-1.6-1.3c0.6-0.8,0.5-1.9,1-2.7
			c0.7-1.2,1.7-2.6,2.2-3.9c0.4-1,0.3-2.4,0.7-3.3l1.6-1.6c0.8,0.4,1,1.4,1.7,1.9c0.5,0.3,1,0.5,1.4,0.9c1.2,0,2.3,0.2,3.2-0.4
			c0.6-0.4,0.5-0.9,1.4-1c0.6,0.9,1.5,1.8,2.9,1.9c0.2-0.2,0.7-0.1,1-0.3c1-0.5,1.5-1.6,2.9-1.7c1.1,1.3,2.8,1.2,4.8,0.9
			c0.4-0.7,1-1.7,2.2-1.7c0.3,1.1,1.6,1.5,2.6,1.9c0.2,2.3-0.1,3.2-0.1,5.8c-0.4,0.2-1.1,0.3-1.3,0.7c-0.6,0.9-1,3.4-0.9,4.9
			c0.1,0.3,0.2,0.7,0.3,1c-0.1,0.6-0.7,1.4-0.9,2.2c-0.3,1.3,0.8,3.4,0.7,4c0,0.2-0.4,0.7-0.4,0.9c-0.2,0.7,0.3,1.3,0.1,2
			c-0.3,1.3-0.7,4.7-0.3,6.4c0.2,0.9,3,5,3.5,5.2c0.4,0.2,0.8-0.1,1-0.1c0.1,0,0.5,0.4,0.6,0.4c0.6,0.2,4.1-0.9,4.5-1.2
			c0.1-0.2,0.3-0.4,0.4-0.6c0.5-0.4,1.2-0.4,1.7-0.7c2.9-2,5.3-5.3,6.5-9c0.2-0.7,0-1.4,0.1-1.9c0,0,0-2.9,0-2.9
			c-0.2-0.7-1.7-3.4-2.3-3.8c-0.7-0.5-1.5-0.6-2.6-0.6H401c-1.1,0.4-1.7,1.4-2.9,1.7v-0.3c0.5-0.7,0.9-2.4,0.9-3.5l-0.6-0.6h0.1
			c0-0.1-0.1-0.2-0.1-0.3h0.1c0.4-0.3,0.8-0.4,1.2-0.7c-0.2-0.7-0.3-1.2-0.9-1.6c-1.5-0.9-2.4,0.5-2.3-2.3c0.6-0.8,0.5-4.7,0.4-6.5
			h0.3c0.7-0.5,2,0,2.9-0.6c0.5-0.6,1.1-1.3,1.6-1.9v-0.9c0.1-0.2,0.3-0.1,0.6-0.1c0.7,0.7,1.2,1.4,2.6,1.4c0.4,0.3,1.2,0.1,1.7,0
			c0.6-0.8,1.5-1.5,1.9-2.6c0.4-1.3-0.3-2.9,0.1-4.3c0.7-2.2,0.6-4.5,1-6.6c0.4-0.2,3.3-2.2,3.5-2.5c0.2-0.3,0-0.7,0.1-1.2
			c0.6-1.5,1.2-3.7,1.7-5.3c0-0.8,0.1-1.5,0.1-2.3c1.4-5.2,1.9-9.7,3.2-14.9c0.7-2.7,0.8-5.8,1.3-7.7c0.6-2.2,0.1-5.4,1.3-7.1
			c0.2,0.8,1.1,1,1.4,1.6c0.3,0.4,0.2,0.8,0.4,1.2c0.4,0.6,2.2,2.2,2.9,2.5c1.1,0.4,2.3-0.1,3.3,0.3c-0.9,2-1.2,4.8-1.9,7.1
			c-0.3,0.9,0.2,2.6,0,3.8c-0.1,0.7-0.2,2.2-0.3,2.9c0,0.3,0.3,0.6,0.1,1.2c-0.1,0.3-0.4,1.2-0.3,1.6c0.4,1.1,1.9,1.4,1.4,3.5
			c-0.7,3.3-1.2,9.3-0.6,13.4c0.1,0.7-0.5,1.6-0.3,2.5c0.4,2.2-0.4,7.1,0.1,9.4c0.1,0.4,0.3,0.8,0.3,1.3c-1,0.6-2.3,1.1-2.9,2
			c-0.1,0.4-0.3,0.8-0.4,1.2l-0.9,0.9c0,0.2,0.1,0.4,0.1,0.6c-0.1,0.5-0.6,1.2-0.7,1.7v1.3c-0.2,0.6-0.5,2.5-0.3,3.3
			c0.2,1.1,1.4,2.1,1.2,3.3c-0.3,1.4,1.6,3.2,2.3,4.6c0.6,1.2,1,2.4,1.7,3.5c0.3,0.4,1.1,0.7,1.4,1c0.4,0.3,0.3,0.8,0.6,1.2
			c0.3,0.3,0.8,0.4,1.2,0.7c0.3,0.3,0.5,0.9,0.9,1.2c0.6,0.5,2.3,0.8,3,1.2c0.2,0.1,0.6,0.5,0.9,0.6c0.5,0,1-0.1,1.4-0.1
			c0.9,0,1.3,0.3,1.7,0.4c0.4,0.1,1-0.3,1.6-0.3c1.1-1.4,2.7-2.2,3.5-3.9c0.8-1.7,1.9-7.1,1.3-10c-0.3-1.3-0.6-2.6-0.4-3.9
			c3.1-2.1,3.9-6,5.3-9.7c0.9,0.8,0.9,1.8,0.9,3.5c0.4,0.7,0,2.5,0.3,3.9c0.1,0.5-0.3,0.9-0.1,1.6c0.3,1,1.4,5.9,1,7.2
			c-0.7,2.1-3.2,2.6-3.9,4.8c-0.6,1.8-0.2,4.9,0.3,6.2c0.4,1.1,0,2.6,0.4,3.6c0.2,0.4,0.7,0.8,1,1.2c0.1,1.5,1.6,2.6,2.6,3.8
			c0.2,0.3,0.2,0.7,0.4,1c0.2,0.3,0.8,0.3,1,0.6c1.2,1.2,2.5,2.7,4,3.5c0.7,0.4,2.3,0.3,2.7,0.4c0.4,0.1,1.5,0.6,2.2,0.4
			c0.7-0.1,1.6-0.5,2.2-0.7h1.2c1.6-0.5,3.9-1.4,4.8-2.6c2.3-3.3,2.7-8.8,1.9-13.9c-0.1-0.8,0.6-1,0.4-1.7c-0.2-1-0.4-2.3-0.6-3.3
			c3.9-2.6,3.4-4.4,4.5-9.1v-5.1c0.5-1.6,0.4-5.3,0.1-7.4c0.4-0.9,0.7-6,0.3-7.7c-0.1-0.4-0.3-1.3-0.1-1.9c0.6-3-0.3-6.3-0.9-9.2
			c-0.4-2.3-0.5-5-0.9-7.8c0-0.3,0.3-0.8,0.1-1.3c-0.6-2.6-1.3-5.7-1.4-8.7c1.6-1.1,4.6-1.9,4.6-4.5c-0.6-1-0.2-1.7-0.6-3
			c-1-3.7-1.3-9.3-2.3-13.3c0-0.7-0.1-1.4-0.1-2.2c-1.4-4.7-1.1-9.9-2.3-15.3c0-0.7,0.1-1.3,0.1-2c-0.7-3.2-0.2-6.3-0.9-9v-7.4
			c-0.6-2.1-0.3-5.1-0.7-8.5c0.1-0.3,0.2-0.7,0.3-1c-0.1-1.2-0.4-2.6-0.6-3.6c-0.2-1.2,0.4-1.9,0-3.6c-0.4-1.6-0.6-3-0.7-4.6
			c0.2-0.1,0.2-0.1,0.6-0.1c0.2,0.1,0.4,0.1,0.7,0.1c0.6,0.9,1.5,1.5,2.2,2.3c0.3,0.4,0.3,0.8,0.6,1.2c0.2,0.2,0.6,0.2,0.7,0.4
			c0.7,1,1.2,1.9,2,2.7c0.2,0.3,0.2,0.7,0.4,1c0.3,0.3,0.9,0.5,1.2,0.9c0.5,0.7,0.7,1.4,1.3,2c0.9,1,1.9,2.1,2.7,3.2
			c0.3,0.4,0.3,0.9,0.6,1.3c0.2,0.3,0.6,0.5,0.7,0.9c0.3,0.9-0.9,6.4-1.2,7.4c-0.1,0.6,0.1,1.8-0.3,2.7c-1.3,3.2-1.8,7.6-3,10.8
			c-0.1,0.3,0.1,1.6-0.1,2.3c-0.7,2.1-1.9,4.5-2,7.1c0.5,0.3,0.8,0.5,1.7,0.4c0.3,0.1,1.1,0,1.6-0.1v-0.4h-0.1
			c-0.3-0.1,0-0.2-0.1-0.4c-0.3-0.3-0.8-0.3-1.2-0.6h-0.3v-0.9c0.4-0.5,0.6-1.1,0.9-1.7c2.7,0.9,4.1,2.4,7.7,2.5
			c0.2,0.7,0.5,1,0.7,1.7c-3.1,2-4.5,0.3-7.8,0.1c-0.1,0.5,0.1,0.7-0.1,1.3c-0.6,1.6-2.2,2.8-3,4.2c-0.4,0.7-0.1,2.2-0.1,3.2
			c0.4,0.3,0.9,1,1.2,1.4c1.3,0.1,2.3-0.5,3.5-0.3c0,1.7,0.1,2.7,0.7,4c0.4,0.8-0.1,1.8,0.3,2.5c0.9,1.5,2,2.4,3.6,3.3
			c1.4,0.8,3,1.8,4.8,0.7c5.8-3.6,2.4-12,1.2-17.5C494.1,329.4,496.4,328.1,496.6,327.5z M463.1,245.4c-0.2,0.1-0.2,0.1-0.4,0H463.1
			z M444.2,219.2c0.1-0.6,0.3-1.3,0.4-1.9c0.7-0.1,3.3-0.5,4-0.3l0.4,0.4c0.6,0.2,1.2-0.3,1.9-0.3c0,0,0.1,0.1,0.1,0.1
			c-0.1,0.4-0.3,0.7-0.1,1c0.2,0.2,0.6,0.4,0.9,0.6c-0.2,0.6-0.3,0.9-0.1,1.6c0.6,0.1,0.8,0.3,1.3,0.6c-0.2,0.3-0.2,0.4-0.6,0.6
			c-0.7,0.4-1.4-0.5-2.5-0.1c-0.1,0.1-1.1,0.3-1.3,0.4c-0.3,0.3-0.6,0.7-0.9,1c-0.2,0.1-1.3-0.1-1.7-0.1c0-0.4-0.1-0.8-0.1-1.2
			c-0.4-0.3-0.4-0.5-1.2-0.6c-0.2,0.1-0.2,0.1-0.6,0.1c0.1-0.5,0.4-0.8,0.4-1.2C444.7,219.7,444.2,219.4,444.2,219.2z M443.6,224
			c0.1,0,0.2-0.1,0.3-0.1c0.3-0.2,0.6-0.3,1.2-0.3c0.3,0.9,0.5,1.9,1.6,2c0.4-0.4,0.8-0.4,1.6-0.4c0.3,0.5,0.7,0.8,1,1.2
			c0.2,0,0.5-0.1,0.7-0.1c0.1-0.9,0.1-1.2,1.2-1.2c0.3-0.2,0.7-0.1,1,0.1c0.6,0.2,0.9,0.7,1.4,1v0.3c-0.3,0.1-0.2,0.2-0.6,0.3
			c-1.7,1.4-9.4,1.4-9.7-1C443.9,225.1,443.8,224.7,443.6,224z M441.4,229.5c1.4,0.2,1.2,0.5,2.3,1c1,0.5,2.1,0.4,3.5,0.6
			c2-0.2,4-0.5,6.1-0.7c0.9-0.3,1.5-0.8,2.7-0.9c0.1,0.5,0.3,0.7,0.1,1c-0.5,0.7-1,0.5-1.9,0.9c-2.1,0.8-5.5,1.7-7.9,1.6
			c-2.2-0.1-5.3,0.1-5.5-2C441.1,230.5,441.2,229.9,441.4,229.5z M457.8,236c-2.5,1.6-7.5,2.3-11.1,2.2c-2.7-0.1-6.1-0.2-6.5-2.5
			c0.1-0.1,0.1,0,0.1-0.3c1.9,0.2,5,0.8,7.8,0.9c0,0,0.9-0.3,1-0.3c1.1-0.1,2.2-0.2,3.3-0.3c1.8-0.5,3.6-1.1,5.3-1.4
			C457.9,234.8,457.9,235.5,457.8,236z M461.2,247.4c0.2-0.1,0.2-0.1,0.6-0.1l-0.4,0.4c-0.1,0-0.3-0.1-0.4-0.1
			C461.1,247.4,461,247.5,461.2,247.4z M453.7,245c0.2,0.6,0.7,1.1,0.9,1.7c0.2,0.2-0.1,0.6-0.4,0.7c-0.1,0-0.1,0.1-0.1,0
			C453.5,246.9,453.2,245.6,453.7,245z M440,249.7c0.8-0.5,1.6-0.4,2.3-0.9c1.1-0.8,1-2.3,1.7-3.5c0,0.7-0.1,2.5-0.1,2.5
			c-0.1,1-1,1.5-1.7,1.9l0.1,0.1c0.3,0.3,0.6,0.5,1,0.6c0.3-0.2,0.6-0.3,1-0.4c0.7-1.5,1.4-3.3,1.6-5.3h0.4v0.4h0.6
			c0.1,1,0.1,2.9-0.1,3.6c-0.3,0.7-0.8,0.9-0.9,1.9c0.4,0.3,0.2,0.3,0.9,0.4c0.3-0.5,0.6-0.8,0.9-1.3h0.1c0,0.7,0.2,0.7,0.6,1.4
			c0.7-0.2,0.9-0.5,1.3-0.9c0.1,0.6,0.3,0.3,0.4,0.6c0.5,0.8-0.5,1.3,0.7,1.4c0.1-0.3,0.2-0.2,0.3-0.6c-0.1-0.2,0-1.6,0.1-2
			c1.1,0.6,2,2.4,3.2,2.6c0.1-0.1,0-0.1,0.3-0.1v-0.6c-0.5-0.3-0.8-0.5-1-1h0.4c0.3,0.2,0.8,0.1,1.2,0.3c0.2,0.3,0.5,0.6,0.7,0.9
			c0.8,0.6,2,0.8,3,0.7c0.1-0.2,0.1-0.2,0.1-0.6c-0.3-0.1-0.5-0.1-0.7-0.3c0.7-0.4,1.1-0.6,2.3-0.6c0.4,0.5,1.1,0.5,1.4,1.2h-0.1
			c-0.9,1.2-3.3,1.3-5.1,1.7c-5.2,1.3-11.2,0.8-16.6-0.4c-0.4-1-1.4-1.3-1.6-2.6C439.8,250.6,439.7,249.9,440,249.7z M434.5,313.6
			c0.3-1.8-0.1-4.4,0.1-6.6c0.4-4.1,0.7-8.3,1.7-11.6c0.5-1.5,1.2-5.9,2.3-6.5c0.2,0.1,0.2,0.1,0.6,0.1c0.4,1.6,1.4,3.3,2,4.6
			c0.5,1.1,0.2,2.8,0.7,3.9c0.2,0.3,0.9,1.3,1.2,1.9c0.4,1.1-0.1,2.2,0.3,3.5c0,0.1,0.4,0.6,0.4,0.7c0,0.2-0.1,0.5-0.1,0.7
			c0.2,0.7,1.3,2.3,1.2,3.3c-0.2,1.3-1,1.9-1.6,2.7c-0.8,1-1.2,2.1-1.9,3.2c-0.3,0.3-0.7,0.6-1,0.9c0,0.3-0.1,0.6-0.1,0.9
			c-0.1,0.2-0.6,0.3-0.7,0.4c-1,1.4-3,5.2-4.9,5.5V321c0.5-0.8-0.3-2.6,0.1-3.9c0,0,0.1-0.1,0.1-0.1
			C434.8,316.3,434.3,314.5,434.5,313.6z M445.2,310.7c0.7-1.2,0.6-2.9,2-3.3c0.2,0.3,0.3,0.4,0.3,1c-0.8,0.8-1,4.2-1.4,5.6
			c-0.5,1.8-1.2,3.1-2.3,4.8c-0.6,0.9-1.8,3-3,2.2c-0.5-0.4-1.3-1.4-1.4-2.2c1.3-1.1,2-2.8,2.9-4.3
			C442.9,313.3,444.5,311.9,445.2,310.7z M433.3,326.2c0.8-0.6,0.6-1.2,2-1.3c0.6,1.1,2.9,3.6,1.6,5.6c-0.1,0.5-0.3,0.6-0.7,0.7
			c-0.4,0.3-1,0.3-1.7,0.3c-0.9-1.5-2.5-2.4-2.6-4.6C432.3,326.7,432.9,326.5,433.3,326.2z M429.3,327.5c0.3-0.2,0.3-0.3,0.7-0.4
			c0.2,0.2,0.2,0.1,0.3,0.4c0.2,0.3,0.1,0.6,0,1h-0.7c-0.1,0.1,0,0.2-0.3,0.1v-0.1c-0.1-0.2-0.1-0.4-0.1-0.7
			C429.3,327.6,429.2,327.7,429.3,327.5z M413.5,265.5c0.4-0.5,2.8-1.8,3.6-1.9c-0.1,2-1.3,3.1-2.2,4.3c-2.1,3.2-3.5,7-7.1,8.7v-0.4
			c1.1-1.2,1.5-3.3,2.5-4.6l0.6-0.3c0.1-0.4,0.3-0.8,0.4-1.2c0.3-0.6,0.8-1.3,1.2-1.9C412.9,267.3,413.2,266.4,413.5,265.5z
			 M409.8,265.9c0.4-0.4,1.3-0.4,2.2-0.4c-0.3,3.4-3.2,6.4-4.5,8.8c-0.6,1.2-1.2,2.6-2.5,3v-0.1c0.4-0.4,0.3-0.9,0.6-1.4
			c1-1.8,2-4.1,2.7-6.2C408.7,268.6,409,266.3,409.8,265.9z M405.4,268.7c0.4-1.2-0.1-2.3,1-2.7c0.4-0.3,0.9-0.3,1.6-0.3
			c0.3,1-0.7,2.5-1,3.5c-1.1,3.3-2.3,6-4,8.5c0,0-0.1-0.1-0.1-0.1c-0.1-0.2-0.1-0.1-0.1-0.4C404.2,274.9,404.6,271.3,405.4,268.7z
			 M404.6,265.6c0,2-1.2,7.3-2,8.7c-0.3,0.5-0.8,0.9-1,1.4h-0.1v-2.5c0.5-0.8,0.1-1.5,0.4-2.7c0.4-1.4,1-3.2,1.6-4.6
			C403.8,265.7,404,265.7,404.6,265.6z M400.4,265.2c0.3-0.1,0.2-0.2,0.6-0.3c0.2-0.1,0.4-0.1,0.7-0.1c0.3,0.3,0.3,0.2,0.4,0.7
			c-1.2,1.6-1.1,6.8-2.3,7.8v0.1c0,0-0.1-0.1-0.1-0.1C398.7,272,400.1,266.6,400.4,265.2z M397.9,266.6c0.5-0.9,0.4-2.3,1.3-2.7
			c-0.2,1-0.2,1.2-0.1,2.5c-0.5,0.3-0.6,0.8-1.2,1V266.6z M398.4,267.5c0,0.5-0.3,0.8-0.3,1.2c0.1,0.6,0.5,3.2,0.3,4.3
			c-0.3,1.5,0.7,2.3-0.3,3.6v-0.3c-1-0.6-0.6-2.1-0.9-3.5C396.9,271.5,397.2,268.7,398.4,267.5z M398.4,277.3
			c-0.1,0.5,0.1,0.2-0.3,0.4v-0.3C398.2,277.4,398.3,277.4,398.4,277.3z M396.9,283.5c0.6-0.4,1-0.7,1.9-0.9c0.5,0.2,1,0.4,1.4,0.6
			c0.1,0.2,0.3,0.4,0.4,0.6c-0.2,1.5-0.7,2.8-2.3,2.9c-0.4-0.5-1.2-0.7-1.4-1.3C396.7,285,396.9,284.1,396.9,283.5z M396.5,294.5
			c0.1,7.1-1.2,13.7-3.5,19.2c-0.7,1.6-1.5,5.1-3,5.6v-0.9c1.3-1.2,1.4-4.7,2-6.8c0.5-1.9,1.3-3.9,1.9-5.8c0.5-1.7,0.5-3.6,0.7-4.8
			c0.3-2,0.4-3.8,0.6-5.1c0.1-0.9,0.1-1.8,0.7-2.2c0,0.2,0.1,0.4,0.1,0.6L396.5,294.5L396.5,294.5z M388.7,302.8
			c0,0.2,0.1,0.5,0.1,0.7c-0.3,0.4-0.8,2.1-0.9,2.6c0.2,0.1,0.3,0.2,0.4,0.3c-0.6,0.8-0.8,3.6-1.6,4.3c0.1-0.5-0.1-1.1,0-1.7
			c0.4-1.9,0.9-4.2,1.4-6.1C388.4,302.9,388.5,302.8,388.7,302.8z M388.5,302v-0.3h0.1v0.3H388.5z M388.7,301.6v-0.4h0.1
			C388.8,301.5,388.8,301.5,388.7,301.6z M386.8,311.6v0.3h-0.1v-0.3H386.8z M386.8,320.8c1-1.5,0.9-5.1,1.4-7.2
			c1.6-6.1,2-13,4.5-18.1c0.7-1.4,0.6-2.6,1.6-3.6c0.1,1.4-0.3,2.8-0.7,4.5v2.2c-0.6,2.3-0.3,5.1-1,7.4c-0.4,1.5-1.5,3.2-1.7,4.8
			c-0.3,2.1-0.8,4.3-1.6,5.8v1c-0.5,1.4-1.5,2.5-2.2,3.9h-0.3V320.8z M389.4,299.2c0.1-0.1,0-0.1,0.3-0.1
			C389.5,299.1,389.7,299.1,389.4,299.2z M388.4,322.6c0.6-0.8,0.9-2,1.4-2.7h0.6c-0.4,0.8-1.1,2.5-1.9,2.9c0,0-0.1,0.1-0.1,0.1
			L388.4,322.6L388.4,322.6z M359.9,408.1h0.9l0.6,0.6c-0.1,0.3,0,0.1-0.1,0.3c-0.2,0.7-0.5,1.2-1.3,1.3c-0.2-0.2-0.2-0.1-0.3-0.4
			C359.2,409.2,359.7,408.5,359.9,408.1z M362.7,415.2c0.5,0.5,0.9,3.2,1.2,4c-0.6,1.7-1.8,3.8-3.5,4.8c-0.9,0.6-1.8,0.7-2.7,1.3
			c-1.3,0.8-3.7,2-5.9,1c-0.9-0.4-1.3-1.6-2-2.3c0.2-0.6,0.7-0.7,0.9-1.3v-2c0.4-1.5,1.4-3.2,3.2-3.3l1.6,1.6
			c0.4,0.2,1.3,0.2,1.4,0.6v1c-0.1,0.2-0.1,0.5-0.1,0.9c0.2,0.1,0.2,0.1,0.6,0.1c0.2-0.2,0.3-0.2,0.6-0.3c0.4-0.8,0.7-1.6,0.7-2.9
			c1.8-0.6,2-2.1,3.2-3.2c0-0.4,0-0.5,0.1-0.7C362.1,414.9,362.4,414.9,362.7,415.2z M362.2,406.4c-0.2,0.1-0.1,0.1-0.4,0.1
			c-0.3-0.5-0.6-0.4-0.7-1.2c0.2-0.2,0.3-0.5,0.4-0.7h1.4C363.1,405.3,362.9,406.1,362.2,406.4z M364.4,402.2
			c-0.4,0.3-0.5,0.4-1.3,0.4c-0.2-0.1-0.4-0.1-0.7-0.1c0.1-0.5,0.2-0.7,0.3-1.2c0.4-0.1,0.9-0.1,1.4-0.1c0.1,0.1,0,0.1,0.3,0.1
			L364.4,402.2L364.4,402.2z M397.6,418.2c0.5,0.9,1.1,1.7,1.4,2.7c0.2,0.7,0,1.8,0.6,2.2c0.6,0.4,0.9-0.2,0.9-1
			c-0.6-0.8-0.7-2.1-0.7-3.5c0.6-0.5,1.6-1.4,2.2-2h1.9c0.2,0.2,0.2,0.1,0.3,0.4c0.5,0.7-0.1,2.3,0,3c0.4,2.5-3.2,9.2-5.1,10.4
			c-0.6,0.4-2.7,1-4,0.6c-3.2-1.1-3.9-5.1-3.9-8.5c0-1.1,0.2-2.8,1.3-3.2c0.9-0.7,1.8,0,3-0.3C396.4,418.9,396.5,418.3,397.6,418.2z
			 M393.2,404.1c0.6-0.4,1.9-0.8,2.6-0.9c0,0.3,0.1,0.7,0.1,1c-0.4,0.3-2.8,1.7-3.2,1.3c-0.1-0.2-0.1-0.5-0.1-0.9
			C392.8,404.4,392.8,404.3,393.2,404.1z M392.9,401.9v-0.3c1-0.6,1.5-1.9,2.2-2.9h0.9c0.1,0.7,0.1,1,0.1,1.7
			C395.1,401.1,394.3,401.6,392.9,401.9z M392.7,407.8h0.3c0.5-0.4,1.5-0.6,2.3-0.6c0.1,0.3,0.1,0.7,0.1,1.2
			c-0.3,0.3-0.2,0.5-0.7,0.7c-0.5,0.4-1.6,0.6-2.3,0.7l-0.1-0.1C392.5,409.2,392.6,408.4,392.7,407.8z M405.7,397h-1.4
			c-0.4-0.7-0.5-1.7-1.2-2.2c-0.5-0.4-1.4-0.2-2.2-0.1c0,1.4-0.6,3.4-1.6,3.8c-0.7,0.6-1.6,0.1-2.3-0.1c-0.3-0.6-1-1.7-1.7-1.9
			c-0.3,0.3-0.9,0.4-1.2,0.7c-1.1,1.4-0.9,3.6-3.8,2.5c-0.1-0.3-0.5-0.5-0.6-0.7c-0.2-0.4,0.2-1.2,0-1.6c-0.2-0.5-0.4-0.7-0.7-1
			c-0.3,0.1-0.1,0-0.3,0.1c-1.6,0.6-1.4,3-3,3.6c-0.6,0.5-1.6,0.2-2.3,0c-0.2-0.4-0.3-0.6-0.4-1.2c0.4-0.2,0.4-0.2,0.4-0.9
			c-0.5-0.5-0.3-0.9-1.4-0.9c-0.3,0.3-0.8,0.4-1,0.7c-1.1,1.6-1.4,3.1-3.8,3c-0.9-1.4-0.8-1.9-1.2-3.8c-0.2-0.1-0.2-0.1-0.6-0.1
			c-0.4,0.3-0.9,0.7-1.3,1c-0.4,0.5-0.5,1.2-0.9,1.7c-0.4,0.3-0.9,0.7-1.3,1c-1.7,0-1.9-0.6-2.7-1.4c0.1-0.8,0-1.3,0-2.2
			c-0.5-0.3-0.9-0.5-1.9-0.4c-0.1,0.1,0,0.1-0.3,0.1c-0.6,0.9-1.3,1.8-2,2.6c-1.4,0.1-3.5-0.7-3.6-2.2c0.4-0.3,0.7-0.6,0.7-1.3
			c-0.2-0.2-0.2-0.4-0.6-0.6c-0.3-0.2-1.3-0.5-1.7-0.1c-0.4,0.4-0.8,1.4-1.4,1.9c-1.6,1-4.5-0.1-4.6-1.9c0.3-0.3,0.4-1,0.4-1.6
			c-0.4-0.2-0.5-0.3-1.2-0.3c-0.7-0.4-2,1-2.5,1.4c-1,0.1-1.6,0.1-2.3-0.4c-1-1-0.6-2.6-0.9-4c-0.6-0.3-1-0.7-1.9-0.7
			c-1.7,1.9-3.5,2.7-5.5,0.6c-0.6-0.6-1-0.8-1.2-1.9c0.6-0.5,0.4-1.4,0.1-2c-0.7-0.3-0.9-0.6-1.7-0.7c-0.6,0.6-1.1,1.2-2.2,1.3
			c-0.9-0.7-2.4-1.3-2.6-2.7c-0.7-1.1,0.2-2.6,0.1-3.8c-0.3-0.1-0.1,0-0.3-0.1c-1.1,0.3-1.1,1.1-2.3,1.2c-1.7-1.4-1.9-0.8-2.7-3.2
			c-0.1-0.4-0.5-1-0.4-1.6c0.2-1.1,0.8-1.6,0.6-2.7c-0.3-0.1-0.4-0.1-0.6-0.3c-0.6,0.2-0.9,0.5-1.6,0.6c-1.3-1.1-2.8-2-2.9-4.2
			c0.5-0.5,0.9-1.1,0.9-1.7c-3-0.8-2.9-4.6-1.4-6.8c1.7,0.6,3.1,0.6,5.3,0.6c0,0.1,0.1,0.3,0.1,0.4c0.8,1.1,0.2,3.3,0.7,4.6l0.4,0.4
			v0.9c0.1,0.2,0.6,0.3,0.7,0.6c0.3,0.6-0.2,0.8,0,1.6c0.3,1.1,1.5,2.5,2.2,3.3c0.3,0.2,0.7,0.4,1,0.6c0.5,0.5,0.8,1.3,1.4,1.7
			c0.6,0.4,1.3,0.7,1.9,1.2v0.3c0.5,0.4,1.1,0.4,1.7,0.7c0.5,0.3,1,0.9,1.4,1.2c0.6,0.3,1,0.3,1.6,0.6c1.6,0.9,3.2,2.4,4.8,3.3
			c1,0.6,2.2,0.6,3.2,1.2c1.2,0.6,2.6,1.8,3.9,2.2c1.6,0.5,2.6,0,4,0.7c0.5,0.2,1.1,0.9,1.6,1.2h1.2c0.7,0.2,1.1,0.3,1.7,0.4h1.9
			c3.1,0.8,6.9,1,9.8,1.9h3c1.4,0.3,3.5,0.8,5.2,0.6c0.7-0.1,2.4-0.2,3.5,0c1.8,0.4,4.6,1.3,6.9,0.7c2.9-0.7,6.4-0.6,8.8-1.9
			c2-1,4.2-1.9,6.4-2.9c0.7-0.3,0.8-1,1.9-1.2l0.1,0.1C407.8,390.4,408.2,394.4,405.7,397z M420.8,329.2v2.2
			c-0.2,0.7-0.7,2.4-0.6,3.2c0.1,0.4-0.1,1.8-0.3,2.5c-0.1,0.4,0.3,0.7,0.3,1l-0.3,0.3c-0.2,0.7,0.3,2,0.1,2.6l-0.3,0.3v2
			c-0.9,3.9-1.8,9.5-2.2,12.7c-0.3,2.2-0.8,4.3-1.3,6.1c-0.4,1.3-0.1,2.3-0.4,3.8c-0.2,0.7-0.7,1.6-0.9,2.2c-0.4,1-0.2,2.2-0.3,3
			c-0.2,2-1.1,4.7-1.7,6.6c-0.4,1.3,0,2.2-0.6,3.2c-0.5,1-3.7,3.3-4.8,4.2c-1.2,1.1-3,1.5-4.6,2.2c-1.8,0.8-3.7,1.9-5.8,2.6
			c-1.6,0.2-3.3,0.4-4.9,0.6c-0.6,0.1-2,0.5-2.6,0.4c-3.3-0.3-6-0.9-9.7-1c-0.6,0-1.3-0.1-1.9-0.1c-0.6,0.1-2-0.3-2.7-0.4h-2.5
			c-2.1-0.5-4.9-0.9-6.9-1.4c-1.2-0.2-2.4-0.4-3.6-0.6c-4.7-1.7-9.6-3.9-13.9-6.1c-1.6-0.8-3.1-1.2-4.6-2c-0.8-0.5-1.5-1.5-2.3-2
			c-0.3-0.2-0.6-0.1-0.9-0.3c-1.1-0.8-2-2-3-2.7c-0.4-0.3-1-0.4-1.3-0.7c-0.2-0.2-0.1-0.6-0.3-0.7c-0.3-0.2-0.6-0.1-0.9-0.3
			c0-0.1-0.1-0.3-0.1-0.4c-0.4-0.4-1.1-0.7-1.4-1.2c-0.8-0.9-0.6-3-1-4.3c-0.1-0.2-0.5-0.5-0.6-0.7c-0.2-0.7,0.2-1.7,0-2.2
			c-1-2.2-0.6-4.3-0.4-6.9c2.6-1.6,5.7-2.4,8.2-4c2-1.2,3.6-3.1,5.5-4.5c0.5-0.4,0.8-1.2,1.3-1.6c0.5-0.4,1-0.5,1.4-0.9
			c0.2-0.3,0.4-0.7,0.6-1c0.9-0.9,2.1-1.6,3.2-2.5c0.8-0.6,1.3-1.6,2-2.3c0.4-0.3,0.8-0.6,1.2-0.9c1.9-2.7,3.3-5.3,5.1-8.2
			c0.9-1.5,2.2-2.9,3-4.3c1-1.7,1.4-3.6,2.3-5.5c0.1-0.2,0.5-0.5,0.6-0.7c0.5-1.1,0.6-2.1,1.2-3c1-1.6,3.1-3,4.6-4.2
			c1.1-0.8,1.9-2.3,2.7-3.5c0.5-0.7,1.4-1.2,1.9-1.9c0.7-1,1.3-2,1.9-3c0.2,0,0.5,0.1,0.7,0.1v0.6h1c0.2-0.6,0.2-0.7,0.1-1.3
			c-0.2-0.1-0.5-0.1-0.9-0.1c-0.2,0.2-0.4,0.2-0.7,0.3v-0.1c0.9-1,0.9-2.5,1.6-3.8c0.1,0,0.3-0.1,0.4-0.1c0.1-0.4,0.3-0.9,0.4-1.3
			c0.6-1,1.8-2.1,2.2-3.2c0.5-1.2,0.5-2.2,1-3.3c0.3-0.7,0.8-0.9,0.9-2c-0.2-0.1-0.3-0.1-0.7-0.1c-0.5,0.8-1.4,1.7-1.7,2.5v0.9
			l-0.4,0.4c-0.5,1.2-0.6,2.3-1.3,3.3c-0.5,0.8-1.5,1.7-1.9,2.6c-0.8,1.6-1.1,3.2-2,4.6c-0.8,1.2-1.9,2.2-2.7,3.3
			c-1.2,1.6-2.8,4.5-5.1,4.9c-0.2-0.3-0.4-0.6-0.7-0.7c-0.6,0.4-1,0.2-1,1.3c0.3,0.1,0.8,0.2,1,0.6h-0.1c-0.7,0.8-2.6,2.5-3.8,2.6
			c-0.1,0.1,0,0.1-0.3,0.1c-0.2-0.5-0.3-0.6-1-0.6c-0.3,0.4-0.5,0.4-0.6,1c0.4,0.2,0.5,0.2,0.6,0.7c-1.9,0.6-3.1,2.3-4.8,3.2
			c-0.4,0.2-1.4,0.9-1.7,0.7c-0.9-0.3-1.4-1.3-1.4-2.5c0.6-0.2,1.1-0.2,1.3-0.9c0.1-0.2,0.1-0.1,0.1-0.4c-0.1-0.1-0.3-0.2-0.4-0.3
			c-0.1,0-0.7,0-1-0.1c-0.1-0.1-0.1,0-0.1-0.3c0.3-0.2,0.6-0.6,1-0.7c0.2-0.1,0.8,0.2,1.3,0c1.3-0.5,2.6-1.9,3.8-2.6
			c0.5-0.4,1.2-0.4,1.7-0.7l0.9-0.9c0.3-0.2,0.7,0,1-0.3c1.1-1,1.9-2.3,3-3.2c1-0.7,2.4-1.5,3.2-2.5c0.9-1.2,2-3.2,3.3-3.9
			c0.2,0.5,0.6,0.6,1.3,0.6c0.2-0.4,0.3-0.3,0.4-0.9c-0.1-0.2-0.1-0.1-0.1-0.4c-0.3,0-0.7-0.1-1-0.1V301c0.8-0.7,1.1-2.6,2.2-3
			c0.6-0.4,1-0.1,1.9,0c0.2-0.3,0.2-0.3,0.3-0.9l-0.4-0.4c-0.2-0.2-0.3-0.1-0.9,0c0.1-1.6,1.3-2.9,2-4.3c0.3-0.6,0.2-1.1,0.4-1.7
			c0.3-0.7,1-1.5,1.3-2.2c0.4-0.8,0.4-1.6,0.9-2.3c1.8-2.8,3.7-5.3,5.9-7.7c3,0,2.2,1.5,3.6,2.2c0.3,0.1,0.6-0.2,1.2,0l0.6,0.6
			c0.5,0.3,0.9,0,1.2,0.1c0.3,0.2,0.4,0.5,0.9,0.7c-0.2,0.5-0.6,1.3-0.7,1.7c-0.2,0.6,0.2,1.2-0.1,1.9c-0.6,1.2-2,2.2-2.7,3.3
			c-1.3,1.8-2.2,4-3.3,6.1c-0.5,0.9-0.3,1.9-0.7,2.9c-2.2,5.4-2.5,12.2-3.8,18.2c0,0.5,0.1,1,0.1,1.4c-0.1,0.8-0.2,1.5-0.3,2.2
			c0,0.9-0.1,1.7-0.1,2.6c-0.7,2.7-1.6,8.8-4.8,9.2c-0.2-0.1-0.6,0-0.9-0.1c-0.4-0.2-0.4-1.1-0.7-1.4c0.2-1,0.3-1.9,1.7-1.9
			c0.3,0.3,0.5,0.3,1.2,0.3c0.3-0.4,0.3-0.2,0.4-0.9c-0.2-0.2-0.2-0.8-0.3-1.2c-0.6-0.3-1.1-0.4-2.2-0.4c-0.5,0.4-1.1,0.5-1.3,1.2
			c-1.2,1.4-1,4.7,0.4,5.6c0.6,0.5,2.1,0.9,2.7,0.4c1.1-0.4,1.3-1.4,2.2-2c0.5-0.1,1-0.3,1.4-0.4c0.2-0.1,2-2.3,2.2-2.6
			c0.2-0.3,0.2-0.8,0.4-1c0.4-0.4,1.1-0.5,1.4-1c4.3-6.2,7.1-13.8,9.1-22.3c0.1-1.9,0.2-3.8,0.3-5.6c0.1-0.4,0.7-0.8,0.6-1.3
			c0-0.1-0.5-0.5-0.6-0.7c0-0.3,0.1-0.6,0.1-0.9c0.1-2.1-0.1-3.5,0.6-5.2c0.6-1.4,1.8-1.7,2.7-2.7c0.6-0.6,0.5-2.2,1.4-2.5
			c0.3,0.2,0.3,0.1,0.6,0c0.3,0.7,0.7,1.3,1.7,1.3c1,0.7,2.4,0.4,3.8,0.7c1.4,0.3,3.8,0.4,5.5,0.1c1.2,0.1,2.4,0.2,3.6,0.3
			c1.5-0.1,3.3-1.8,3.9-1.6c0.7,0.4,0.4,1.2,0.7,2c0.2,0.5,0.6,1.4,0.7,2v1.2c0.3,1.2,0.8,2.1,0.9,3.8c-0.4,0.2-0.2,0.4-0.4,0.6
			c-0.8,0.6-1.3-0.5-1.3,1.2c0.4,0.3,0.4,0.4,1.2,0.4c0.3-0.2,0.5-0.2,0.7,0c0.4,0.4,0.5,0.8,0.4,1.6c0.2,0.4,0,1,0.1,1.6
			c0.4,1.6,0.7,4.3,0.7,6.5c-0.4,0.1-0.3,0.4-0.6,0.6c-0.8,0.4-1.1-0.4-1.2,0.9c0.1,0.2,0,0.2,0.1,0.4c0.4,0.3,0.9,0.1,1.4,0
			c0.2,0.5,0.4,0.7,0.4,1.4c-0.5,0.9,0.6,4.8,0,5.9c-0.4,0.6-1.2,0.7-1.9,1c0.1,0.4,0.2,0.8,0.3,1.2h0.7c0.3-0.2,0.5-0.3,0.7-0.1
			c0.1,0,0.3,0.1,0.4,0.1c0.2,2.5,0.7,5.2,1.4,6.9c0.2,0.4,0.5,1.6,0.4,1.7c-0.9,1.6-3.3,2.2-5.3,2.7c-0.2-1.7-0.2-3-0.3-4.5
			c0.6-0.1,1.1-0.3,1.3-0.9c0.1-0.2,0.1-0.4,0.1-0.7c-0.4-0.2-1.4-0.4-1.6-0.9c0.4-0.7,0-2,0-2.7c0-1.9-0.1-3.8-0.1-5.6
			c0.6-0.2,1-0.3,1-1.2c-0.1-0.1-0.1,0-0.1-0.3c-0.9-0.3-0.9-0.6-0.9-1.9c0.4-0.6,0-2.2-0.1-2.9c0-0.2,0.2-0.2,0.1-0.6
			c-0.4-1.9-0.7-3.2-0.6-4.6c0.4,0,0.9,0,1.2-0.1c0.6-0.2,0.6-0.4,0.6-1.2c-0.1,0-0.3-0.1-0.4-0.1c-0.5-0.3-1.3,0.3-1.4,0.1
			c-0.9-1.5-0.2-6.8-2.2-6.9c0,2.1,0.5,3.9,0.9,5.6c0.1,0.4-0.2,1.1-0.1,1.3c0.4,2.1,0.7,4.2,1.2,6.4c0.2,1,0,2.1-0.1,2.9
			c-0.4,1.6,0,3.9,0.1,4.9c0,0.3-0.3,0.7-0.3,0.9c-0.1,0.4,0.2,0.9,0.3,1.2c0.1,0.5-0.3,1.3-0.1,2
			C421,321.4,421.4,326.6,420.8,329.2z M424.2,336.4c-0.8,0.8-1.7,1.9-2.2,3c-0.6,0.1-0.6,0.2-1.2,0.3v-0.3c0.3-0.7,0-3.9,0.4-5.5
			c0.2-0.9-0.2-1.8,0.3-2.6c0.1-0.1,0-0.1,0.3-0.1c0.2,0.1,0.2,0.1,0.6,0.1C423.3,332.8,424.3,334.5,424.2,336.4z M426.1,344.4
			c-0.6-0.5-0.6-1.7-1-2.5c-0.3-0.6-0.7-0.7-0.7-1.7c1.5-1.1,2.5-5.1,4.6-5.2c0.8,1.2,2.2,2.3,4.2,2.3c0.3-0.2,0.6-0.3,1-0.4
			c0.6-0.9,1.2-1.4,1-2.5h1.7c0.4,0.3,1.1,0.5,1.6,0.7c-0.2,0.9-0.6,2.6-1,3.3l-0.7,0.6c0,0.5-0.1,1.1-0.1,1.6
			c-0.9,1.9-3.5,5.7-6.2,5.6C429.3,345.4,427.2,345.3,426.1,344.4z M436.8,421.1c-0.4,0.3-0.9,0.3-1.6,0.3c-2.4,0-2.4-1.1-3.5-2.3
			c-0.6-0.7-1.5-1.4-2-2.2c-0.2-0.3-0.1-0.7-0.3-1c-0.2-0.3-0.7-0.3-0.9-0.6c-0.3-0.4-0.2-1-0.4-1.4c-0.2-0.5-0.9-1-1.2-1.4
			c0-0.3-0.1-0.6-0.1-0.9c-0.2-0.2-0.5-0.5-0.7-0.7c-0.4-0.9-0.5-2-0.7-2.9c-0.1-0.5,0.3-1.6,0.3-1.6c-0.3-0.6-0.4-0.6-0.3-1.3
			c0.4-2-0.3-4.8,1.3-5.5c0.2-0.1,0.1-0.1,0.4-0.1c0,1.3,0.1,1.9-0.3,2.9l-0.4,0.4c-0.1,0.5,0.6,0.5,0.4,0.9c-0.1,0-0.2,0.1-0.3,0.1
			c-0.2,0.7,0.7,3.2,0.9,3.8c1.3,4.2,2.7,7.1,5.1,10.3c0.7,0.9,1.9,1.9,2.9,2.5c0.6,0.4,1.4,0.2,1.7,0.9H436.8z M440.4,412
			c-0.2,1.8-0.2,6.1-1.7,6.8c-1.5,1.2-3.6-0.5-4.2-1.3c-0.7-0.9-1.7-1.6-2.3-2.5c-1.3-1.8-3.5-6.1-3.5-8.5c1.5,0.2,1.9,1.2,3,1.7
			c2.3,1.1,5.6,0.5,8.5,0.4v0.3C440.6,409.5,440.5,411.2,440.4,412z M447.1,376.8c-0.9,9.7-2.2,18.2-6.9,24.6v0.4
			c-1.2,1.9-3.7,2.9-6.2,3.6c-0.6,0.2-2.8,0.3-3.2,0.1c-1.2-1.3-1.3-3.3-1.6-5.2c0-0.1-0.4-1.4-0.3-1.9c0-0.2,0.3-0.4,0.3-0.7
			c-0.5-3.8-1-7.2-0.4-10.8c0.1-0.8-0.2-2.8-0.3-3.6c-0.1-0.5,0.2-0.9,0.1-1.3c-0.2-1.5-0.2-3.4,0-4.6c0.4-2.4-0.1-6.2,0.9-7.5v-0.1
			h0.6c0.5,0.4,1.3,0.3,1.9,0.6c0.5,0.2,1.2,1,1.7,1.2c1.5,0.5,2.8,0.2,4.5,0.6c3.1,0.7,5.6,0.6,9,0.4c0,0,0.1,0.1,0.1,0.1
			C447.1,373.2,447,376.7,447.1,376.8z M442.9,370.8c-1,0-1.9,0.1-2.9,0.1c-0.3-0.1-0.6-0.6-0.9-0.7h-2.7c-0.9-0.2-2.1-0.3-3-0.7
			c-0.6-0.2-1-0.9-1.6-1.2c-0.3,0-0.7-0.1-1-0.1c-0.2-0.1-0.3-0.5-0.4-0.7c-0.3-0.4-0.9-0.4-1.3-0.7c-0.3-0.2-0.4-0.7-0.7-1
			c0-3.5,0-7.7,0.9-11.3c0.3-1.4,0.5-4,1.7-4.3c0.2-0.1,0.4-0.1,0.7-0.1c0,1.9-0.4,3.4,0,5.1c0.2,0.1,0.3,0.1,0.7,0.1
			c0.1-0.1,0.3-0.2,0.4-0.3c0.1-1.1,0.1-2.7,0.6-3.9c4.1-0.3,4.9-3,7.1-5.1c0-0.7,0.4-3.2,0.3-3.6c-0.3-1.3-1.8-2.1-2-3.5
			c0.9-1.2,0.4-2.9,2.6-2.9c0.5,0.4,1.6,0,2-0.1c0.3-0.7,0.9-0.9,1.2-1.4c0.1-0.1,0.9-2.6,0.9-2.6c0-0.1-0.1-0.3-0.1-0.4
			c0.7-2.3,1.5-5.1,2.2-7.4v-1.2c0.3-1.3,0.8-3.1,1.2-4.3v-1.2c0.1-0.3,0.5-0.6,0.6-0.9v-1.3c0.5-1.4,2.2-6,1.9-7.7
			c-0.2-1.1-0.7-3.1-1.2-4.5c-0.3-1,0-1.8-0.3-2.7c-0.3-0.8-0.9-2-1.2-2.7c-0.2-0.8-0.1-1.5-0.1-2c0-0.1-0.4-0.6-0.4-0.7V294
			c-0.3-0.8-1-2.3-1.2-3.2c0-0.3,0.1-0.7,0.1-1c-0.1-0.3-0.4-1-0.4-1.3c-1.2-4.5-1.8-9.4-3-13.3c-0.4-1.3-0.2-3.1-1.7-3.3
			c-0.2,0.4-0.3,0.5-0.3,1.2c-0.6,0.8-0.3,3.7,0,4.9c0.4,1.6,1.2,4.1,1.7,5.9c0.3,0.9-0.3,1.9,0,2.7c0.1,0.2,0.5,0.3,0.6,0.4
			c0,0.2-0.1,0.5-0.1,0.7l0.4,0.4v1.6c0,0.1,0.4,0.3,0.4,0.3c0.2,0.4-0.4,1.2-0.4,1.7c1.1,0.6,0.8,1.8,1.2,3.2
			c0.7,2.5,1.1,5.6,1.9,8.1c0.3,1.2,0.6,2.8-0.3,3.3c-0.2-0.1-0.5-0.1-0.9-0.1c-0.2-0.9-0.7-2.1-1-3c-0.1-1.2-0.3-2.3-0.4-3.5
			c-0.3-1-1-1.9-1.3-2.7c-0.5-1.4-0.4-2.5-0.9-3.9c-0.2-0.5-0.7-0.9-0.9-1.3c0-0.4-0.1-0.9-0.1-1.3c-0.6-1.1-1-2.3-1.4-3.5
			c-0.1-0.6-0.2-1.2-0.3-1.7c-0.2-0.3-0.7-0.8-0.9-1.2c-0.2-0.5,0-1.3-0.1-1.4c-0.1,0-0.3-0.1-0.4-0.1c-0.2-0.4-0.3-0.9-0.4-1.2
			c-0.1-0.7-0.3-1.3-0.4-2c-0.7-1.5-1.7-3.5-2.2-5.2c-0.3-1,0.1-2.3,0.3-2.9v-1.9c0.4-1.8,1.2-5.2,2.7-5.8c0.6-0.5,1-0.1,1.9,0v-0.3
			c0.7-1.3-1.1-1.7-1.3-2.5c-0.4-1.3,2.8-5.1,3.8-5.2c0.5-0.3,3.2,0,3.9,0.1c2.4,0.6,5.7,0.7,8.2,0.1h1.7c1.2-0.3,2.8-1.1,4-0.9
			c0.2,2.1,1,4.4,1.6,6.2c0.4,1.5,0.3,2.5,0.7,4c0.3,1,1.3,2.7,1.4,3.8c0.2,1.8,0.8,4.1,1.3,5.9c0.5,1.7,0.6,3.4,1.2,4.9
			c0,1,0.1,2,0.1,3c0.6,2.5,0.6,5.7,1.2,8.1c0.4,1.8-0.4,3.6-0.3,5.1c0.2,1.7-0.1,3.9,0,5.1c0.1,1.1,0.2,3,0,4.2
			c-0.1,0.4,0.3,2.2,0.1,2.5c-0.2,0.1-0.4,0.3-0.6,0.4c-0.1,0.2,0.5,0.7,0.6,1c0,0.1,0.2,2.1,0.1,2.2c-0.1,0.2-0.4,0.4-0.3,0.9
			c0.1,0.6,0.5,1.2,0.4,1.9c0,0.3,0,1.9,0.1,2.5c0.2,0.9-0.3,1.5-0.1,2.3c0.3,1.8,0.6,4.3,0.9,5.9c0.1,0.4-0.3,0.3-0.3,0.7
			c0.2,2.1,0.5,4.9,1,6.9c0.3,1.3-0.3,2.1,0,3.3c1.1,4.9,0.5,12.6-0.9,16.6c-0.2,0.7-0.8,1.8-1,2.5c-0.3,0.8-0.1,1.5-0.4,2.2
			c-0.2,0.4-1,1.1-0.7,1.4c-0.2,1-1.1,3.1-1.6,3.9c-0.5,0.4-1.1,0.9-1.6,1.3c-0.3,0.5-0.3,1.1-0.7,1.6c-0.3,0.2-0.7,0.4-1,0.6
			c-1.8,1.3-3.9,2.4-6.4,3.2c-0.7,0.1-1.4,0.2-2,0.3C450.5,370.2,446.1,371.6,442.9,370.8z M450.7,421.9c0.3,0.5,0.5,1,0.6,1.7h-0.1
			c0,0-0.1-0.1-0.1-0.1C450.8,423,450.3,422.4,450.7,421.9z M461.2,436.3c-0.3,0.2-0.9,0.2-1.4,0.1c-0.7-0.6-1.9-0.7-2.6-1.3
			c-1.8-1.4-2.7-3.6-3.8-5.8c-0.7-1.5-2.2-2.9-2.3-5.1c0.1,0,0.2-0.1,0.3-0.1c2.4,2.7,3.8,6.2,6.1,9c0.9,1.2,3.1,1.7,3.8,3h0.1
			C461.3,436.2,461.3,436.3,461.2,436.3z M468,424.2c0.1,0.8,0,6.7-0.4,7.5c-0.5,1-1.8,2.6-3.2,2.7c-1.1-1.1-2.7-1.5-4-2.5
			c-1.8-1.3-3.1-3.4-4.3-5.3c-0.3-0.4-0.8-0.8-1-1.2c-0.6-0.9-0.6-1.9-1.2-2.9c-0.1-0.3-0.6-0.5-0.7-0.9c-0.4-1.2-0.2-2.6-0.1-3.6
			c2,0,1.7,0.3,3.2,0.7h2.6c0.1,0,0.6,0.4,0.7,0.4c0.9,0.2,2.6,0,3.3-0.1c1.3-0.2,3.6-0.1,5.1-0.1c0.2,0.4,0.3,0.6,0.3,1.3
			C468.7,421.2,467.8,422.6,468,424.2z M473.4,360.3c0.1,1.1,0.6,2.6,0.3,3.9c-0.1,0.5-0.3,1.8-0.1,2.6c0.1,0.3,0.4,1.2,0.4,1.4
			c0.1,1.2-0.4,2.9,0,4.6c0.5,2.1,0.6,6.5,0.3,7.9c-0.2,1,0.4,1.9,0.3,2.6c-0.2,2.2,0.2,5.8-0.1,7.8v3.9c-0.1,0.7,0.1,1,0,1.9
			c-0.4,2.8-0.6,5.4-1.4,7.8c-0.3,0.9-0.2,2.4-0.7,3.5c-1.8,3.6-5.5,6.8-9.7,7.9c-1,0-2-0.1-3-0.1c-3.2,0.4-2.7,0.2-4.6-1.3
			c-0.6-0.4-1-0.3-1.2-1.3c-1-1.7-0.9-7.8-0.9-9.8c0-1.4-0.4-3.9-0.6-5.1c0-1.9-0.1-3.9-0.1-5.8c-0.2-0.9-0.4-2.9-0.3-3.6
			c0.8-4.3,0.6-8.8,1.2-12.6c0.2-1.6,0.9-3.9,0.7-5.3c5.3-1.2,9.7-3.7,13.6-6.4C469,363.7,471.1,360.6,473.4,360.3z M489.7,342.8
			c-0.3,0.2-0.7,0.5-1,0.7c-0.5,0.8-0.4,1.3-1.6,1.4l-1.7-1.7c-0.9-1.4-1.3-4.5-1-5.8c0.2-1.2,0.5-3.9-0.3-4.3c-1-0.6-1.5,1.2-2,1.6
			c-0.6,0.4-1.2,0.6-2.2,0.6c-0.1-0.1-0.2-0.2-0.3-0.3c0.1-0.4,0.1-1.3,0.1-2c1.2-0.9,1.9-3.9,3.5-4c0.2-0.1,0.2-0.1,0.6-0.1
			c0.6,0.4,2.1,0.6,2.7,0.4v0.1c0.3,0.1,1.6,0.8,1.9,1C490.1,331.9,491.3,340.1,489.7,342.8z M490.4,311.3c-0.9,3-0.1,7.1-4.5,7.2
			c-1-0.7-3.1-0.6-3.8-1.7c0.8-1.2,0.5-3.4,1-5.1c0.7-2.1,1.2-4.5,1.7-6.6c0.3-1.2,0-2.1,0.3-3.3c0.5-2.2,1.1-3.9,1-6.2
			c-0.5-0.4-0.5-0.9-0.9-1.4c-0.2-0.3-0.8-0.6-1-0.9c-0.3-0.4-0.3-1-0.6-1.4c-0.2-0.2-0.7-0.3-0.9-0.6c-0.2-0.3-0.2-0.7-0.4-1
			c-1-1.4-2.6-2.6-3.8-3.9c-0.8-0.8-1.1-1.9-1.7-2.9l-2-2c-0.3-0.4-0.3-0.8-0.6-1.2c-0.2-0.3-0.7-0.4-1-0.7c-0.5-0.5-0.7-1.4-1.2-2
			c-0.4-0.5-1.1-1.1-1.4-1.7c-0.3-0.7-0.1-1.4-0.4-2.2c-0.5-1.2-1.4-2.3-1.4-4h0.1c0.6,0.8,1.1,0.6,1.6,1c0.8,0.7,0.8,2.1,1.4,3
			c0.7,1.1,2.1,1.9,2.7,3c0.3,0.5,0.2,1.3,0.6,1.7c0.3,0.4,0.8,0.6,1.2,0.9c0.9,0.8,1.4,2.1,2.5,2.7v0.4h0.4c0.4,0.9,1.6,1.3,2,2.2
			c0.2,0.5-0.1,0.7,0.3,1c0.3,0.1,0.7,0.2,1,0.3c0.5,0.5,0.7,1.3,1.2,1.9c0.4,0.5,1.2,0.7,1.6,1.3c0,0.2,0.1,0.5,0.1,0.7
			c0.3,0.1,0.6,0.2,0.9,0.3c0.3,0.3,0.4,0.7,0.7,1h0.3c1.4,1.9,1.7,5.2,2.2,8.1c0.1,0.5-0.2,1.1-0.1,1.6c0.2,0.8,0.5,2.1,0.4,2.7
			c0,0.5,0.4,0.8,0.4,1.2c0.1,0.3,0,1.5,0,1.7C490.1,308.1,490.8,309.8,490.4,311.3z M389.5,281.8c0.1-0.1,0-0.1,0.3-0.1
			c0.1-0.2,0.2-0.3,0.3-0.4v-0.3c-0.2-0.2-0.3-0.3-0.4-0.6c-0.6,0-0.7,0.2-1.2,0.3c-0.1,0.3,0,0.1-0.1,0.3c0.1,0.3,0,0.1,0.1,0.3
			C388.7,281.8,388.8,281.8,389.5,281.8z M392.9,285.1c0.2-0.3,0.3-0.4,0.3-1c-0.3-0.2-0.2-0.3-0.6-0.4c-0.4-0.2-0.8-0.1-1.2,0
			c-0.1,0.2-0.1,0.5-0.1,0.9c0.1,0.2,0.1,0.1,0.1,0.4C391.9,285,392.4,285.1,392.9,285.1z M386.2,287.2c0.4-0.1,0.4-0.2,0.7-0.4
			c-0.1-0.3-0.3-0.6-0.4-0.9c-0.3,0-0.6,0.1-0.9,0.1c-0.2,0.3-0.2,0.3-0.3,0.9c0.1,0.1,0.1,0,0.1,0.3
			C385.9,287.2,386.1,287.2,386.2,287.2z M388.7,287.5c0.2,0.2,0.2,0.2,0.4,0.1c0.5-0.1,0.5-0.3,0.9-0.6v-0.3
			c-0.2-0.2-0.3-0.3-0.4-0.6h-0.7c-0.2,0.3-0.4,0.4-0.6,0.9C388.5,287.2,388.4,287.3,388.7,287.5z M402.4,289.9
			c0.5-0.5,0.7-0.3,0.7-1.3c-0.4-0.2-0.1,0.1-0.3-0.3h-0.7c-0.2,0.4-0.4,0.4-0.4,1C402.1,289.5,402.1,289.6,402.4,289.9z
			 M419.8,290.9c0.4,0.1,0.5,0.3,0.7,0.1c0.3-0.2,0.3-0.1,0.4-0.4c0.3-0.5-0.1-0.8-0.3-1.2c-0.8,0.1-1,0.2-1,1.2
			C419.7,290.8,419.7,290.7,419.8,290.9z M409.9,291.8c0.1-0.1,0-0.1,0.3-0.1c0.1-0.3,0-0.1,0.1-0.3c-0.1-0.3-0.3-0.7-0.4-1
			c-0.6,0-0.8,0.1-1.2,0.3c0.1,0.3,0,0.1,0.1,0.3C409.1,291.6,409.2,291.7,409.9,291.8z M387.7,293.2c0.4-0.1,0.6,0,1-0.3
			c0.2-0.3,0.3-0.7,0.1-0.9c-0.2-0.3-0.2-0.2-0.4-0.4c-0.5,0.1-0.7,0.2-1.2,0.3c-0.1,0.2-0.1,0.3-0.1,0.7c0.1,0.1,0.1,0,0.1,0.3
			C387.4,293,387.5,293.1,387.7,293.2z M380.7,292.1c-0.1,0.2-0.1,0.5-0.1,0.9c0.1,0.1,0.1,0,0.1,0.3h0.7c0.1,0.1,0,0.1,0.3,0.1
			c0.2-0.4,0.3-0.3,0.4-0.9c-0.2-0.2-0.2-0.3-0.3-0.6C381.4,291.9,381.1,292,380.7,292.1z M402.3,293.7c0.4-0.6,0.4-0.9,0.6-1.6
			h-1.2c0,0-0.1,0.1-0.1,0.1c0,0.4-0.1,0.8-0.1,1.2c0.1,0,0.3,0.1,0.4,0.1C402,293.6,402,293.6,402.3,293.7z M415.1,294
			c0-0.3,0.1-0.7,0.1-1c-0.3,0-0.6,0.1-0.9,0.1v0.7c0.1,0.1,0.2,0.2,0.3,0.3C414.8,294.1,415,294,415.1,294z M412.8,296
			c0.1-0.3,0.1-0.7,0.1-1.2c-0.4-0.2-0.2,0-0.3-0.4h-0.4c-0.2,0.3-0.4,0.5-0.6,0.7v0.3C412.2,295.7,411.9,295.9,412.8,296z
			 M385.1,296c0.1-0.2,0.2-0.3,0.3-0.4c-0.1-0.5-0.1-0.6-0.3-1c-0.8,0-1.2,0.1-1.4,0.6c-0.1,0.2-0.1,0.4-0.1,0.7
			c0.4,0.2,0.5,0.3,1,0.4C384.6,296.2,384.9,296.1,385.1,296z M406.9,296c0.8-0.2,0.6-0.8,0.3-1.3h-0.7c-0.1,0.3-0.1,0.8-0.1,1.3
			c0.3,0.1,0.1,0,0.3,0.1C406.9,296,406.7,296.1,406.9,296z M403.9,300.9c0.2-0.3,0.3-0.3,0.4-0.7c-0.2-0.2-0.3-0.5-0.4-0.9
			c-0.4,0-0.6,0.1-0.9,0.3c-0.1,0.2-0.1,0.1-0.1,0.4c0.1,0.2,0.1,0.2,0.1,0.6C403.4,300.7,403.4,300.8,403.9,300.9z M383.9,301.2
			c0.3,0.2,0.6,0.1,0.9-0.1c0.3-0.4,0.2-0.6,0.1-1c-0.2-0.1-0.3-0.2-0.4-0.3c-0.7,0.1-1,0.3-1.2,1C383.6,301,383.5,301,383.9,301.2z
			 M414.5,301.6c0.5-0.5,0.7-0.8,0.3-1.6h-0.7c-0.2,0.3-0.2,0.3-0.3,0.7C414.1,301,414.2,301.4,414.5,301.6z M408.8,301.5
			c0.2-0.4,0.3-0.3,0.4-0.9c-0.2-0.2-0.2-0.3-0.3-0.6c-0.6,0-0.8,0.1-1.2,0.3c0.1,0.3,0,0.1,0.1,0.3
			C408,301.2,408.1,301.4,408.8,301.5z M398.7,304.6c0.9,0.6,1.1-0.4,0.7-1c-0.3,0-0.7,0.1-1,0.1c-0.2,0.3-0.3,0.2-0.1,0.6
			C398.4,304.7,398.2,304.5,398.7,304.6z M404.1,305.7c-0.7,0.2-0.8,0.4-0.7,1.3c0.3,0.2,0.3,0.2,0.7,0.3c0.2-0.2,0.4-0.2,0.7-0.3
			c0-0.1,0.1-0.3,0.1-0.4C404.6,306.3,404.4,306.1,404.1,305.7z M414.4,307.2c0.3,0.2,0.2,0.3,0.6,0.4c0.2,0.1,0.1,0,0.6,0
			c0.1-0.3,0.2-0.2,0.3-0.6c-0.2-0.3-0.2-0.6-0.3-1C414.9,306.2,414.5,306.4,414.4,307.2z M372.5,306.2c-0.8,0.2-0.9,0.3-0.9,1.3
			c0.1,0,0.3,0.1,0.4,0.1c0.2,0.1,0.4,0.1,0.7,0.1c0.2-0.3,0.2-0.3,0.3-0.7c-0.2-0.2-0.2-0.4-0.3-0.7
			C372.5,306.3,372.6,306.4,372.5,306.2z M408.3,307.7c0.1,0.1,0,0.2,0.3,0.1v-0.1c0.1,0,0.3-0.1,0.4-0.1c0-0.6,0.1-0.6-0.1-1.2H408
			l-0.4,0.4c0,0.4,0.1,0.2,0,0.4C407.9,307.5,407.9,307.6,408.3,307.7z M381.5,310.9c0.2-0.2,0.5-0.3,0.7-0.4c0.1-0.6,0.1-0.5,0-1.2
			c-0.3-0.1-0.1,0-0.3-0.1h-0.6c-0.4,0.5-0.7,0.6-0.7,1.4c0.1,0,0.3,0.1,0.4,0.1C381.2,310.8,381.2,310.8,381.5,310.9z M406.2,313
			c0-0.1,0.1-0.3,0.1-0.4c0.3-0.5-0.2-0.8-0.4-1.2c-0.8,0.2-0.9,0.5-0.9,1.4h0.3C405.5,313,405.8,313,406.2,313z M414.4,312.2
			c-0.2-0.2-0.2-0.1-0.3-0.4h-0.9c-0.1,0.3-0.2,0.2-0.3,0.6c0.2,0.2,0.2,0.4,0.3,0.7h0.7c0.1-0.1,0-0.1,0.3-0.1
			C414.3,312.7,414.4,312.5,414.4,312.2z M398.2,313.6c0.4,0.2,0.3,0.3,0.9,0.4c0.8-0.7,0.7-0.7,0.1-1.6
			C398.6,312.7,398.3,312.8,398.2,313.6z M377,313.6c-0.1-0.4-0.3-0.9-0.4-1.2c-0.3,0-0.6,0.1-0.9,0.1v1.2h0.3
			c0.2,0.1,0.4,0.1,0.7,0.1C376.8,313.8,376.9,313.7,377,313.6z M418.5,314c-0.2,0.3-0.4,0.4-0.6,0.7c0.1,0.2,0.1,0.4,0.1,0.7h0.3
			c1,0.4,1.1-0.7,0.7-1.4L418.5,314L418.5,314z M381.6,314.3c-0.3,0-0.6,0.1-0.9,0.1v0.4c0.3,0.4,0.1,0.6,0.6,0.9
			c0.2,0.1,0.2,0.1,0.6,0.1c0.2-0.4,0.4-0.4,0.4-1C381.8,314.8,381.8,314.8,381.6,314.3z M406.2,316.1h-0.6
			c-0.2,0.3-0.2,0.3-0.3,0.9c0.2,0.2,0.2,0.4,0.3,0.7h0.6c0.3-0.3,0.5-0.3,0.6-0.9C406.5,316.6,406.3,316.3,406.2,316.1z
			 M414.1,317.7c0.1,0.4-0.1,0.7,0.4,1c0.2,0.1,0.5-0.1,0.9-0.1v-0.6c-0.2-0.2-0.2-0.3-0.3-0.6C414.6,317.4,414.5,317.5,414.1,317.7
			z M358.5,318.2l-0.4,0.4c0,0.2,0.1,0.5,0.1,0.7c0.4,0,0.8,0.1,1.2,0.1c0.2-0.4,0.3-0.5,0.3-1.2c0,0-0.1-0.1-0.1-0.1
			C358.9,318.2,359.1,318.2,358.5,318.2z M380.3,320.1c0.2-0.3,0.3-0.2,0.4-0.7c0-0.1,0.1-0.3-0.1-0.6c-0.2-0.1-0.1-0.1-0.4-0.1
			c-0.1,0.1-0.4,0.2-0.6,0.3c-0.1,0.6-0.1,0.5,0,1.2L380.3,320.1L380.3,320.1z M373.6,319.7c-0.1-0.1-0.1,0-0.1-0.3
			c-0.6,0-0.9,0.1-1.2,0.6c-0.1,0.2-0.1,0.2-0.1,0.6c0.3,0.1,0.5,0.3,0.7,0.4C373.4,320.6,373.6,320.7,373.6,319.7z M402.3,321.3
			c-0.2-0.2-0.3-0.5-0.4-0.9h-0.4c-0.3,0.5-0.6,0.4-0.6,1.3c0.3,0.2,0.3,0.2,0.9,0.3C401.9,321.7,402.1,321.7,402.3,321.3z
			 M368.6,322.7c0.1-0.1,0-0.1,0.3-0.1c0.1-0.2,0.2-0.3,0.3-0.4v-0.3c-0.2-0.2-0.3-0.3-0.4-0.6c-0.2,0-0.5,0.1-0.7,0.1
			c-0.1,0.2-0.3,0.4-0.4,0.6c0.1,0.3,0,0.1,0.1,0.3C368,322.6,368,322.7,368.6,322.7z M408.9,322c-0.2,0.3-0.1,0.4,0,0.9h1
			c0.1-0.2,0.2-0.3,0.3-0.4c0-0.1-0.1-0.3-0.1-0.4c-0.4-0.2-0.3-0.3-0.9-0.4C409,321.8,409,321.7,408.9,322z M379,322.9
			c-0.1-0.2-0.1-0.4-0.1-0.7c-0.6,0-1,0-1.3,0.3c-0.2,0.2-0.2,0.3-0.3,0.7c0.5,0.2,0.5,0.4,1.3,0.4
			C378.7,323.3,378.9,323.2,379,322.9z M417.7,324c-0.1,0.1,0,0.1-0.3,0.1c-0.1,0.3,0,0.1-0.1,0.3c0,0.3,0.1,0.6,0.1,0.9
			c0.3,0,0.7-0.1,1-0.1c0.1-0.3,0.2-0.2,0.3-0.6h-0.1C418.4,324.1,418.4,324.1,417.7,324z M401.7,326.9c0.2,0.1,0.5,0.1,0.9,0.1
			c0.5-0.7,0.4-0.8,0-1.4C401.8,325.8,401.6,325.9,401.7,326.9z M425.8,328.1c0.1-0.1,0.4-0.2,0.6-0.3c0.2-0.4,0.2-0.5,0.3-1
			c-0.3-0.1-0.2-0.1-0.4-0.3c-0.3,0-0.7,0.1-1,0.1c-0.1,0.2-0.1,0.2-0.1,0.6c0.1,0.2,0.1,0.2,0.1,0.6
			C425.5,327.9,425.5,328,425.8,328.1z M394.9,328.1c0.1,0,0.3-0.1,0.4-0.1c0-0.5,0.1-0.5,0-0.7c0-0.1-0.1-0.3-0.1-0.4
			c-0.3,0-0.6,0.1-0.9,0.1c-0.1,0.3-0.2,0.7-0.1,0.9C394.4,328.1,394.6,328.2,394.9,328.1z M372.3,328.6c0.1-0.2,0.1-0.5,0.1-0.9
			c-0.1-0.1-0.1,0-0.1-0.3c-0.2-0.1-0.3-0.2-0.4-0.3c-0.6,0.3-0.7,0.3-0.7,1.2c0.1,0.1,0.1,0,0.1,0.3H372.3z M366.1,329.2
			c0-0.3,0.1-0.7,0.1-1c-0.4-0.2-0.3-0.3-0.9-0.4c-0.2,0.1-0.1,0.1-0.4,0.1c0,0.4-0.1,0.8-0.1,1.2c0.1,0,0.3,0.1,0.4,0.1
			C365.6,329.4,365.7,329.3,366.1,329.2z M413,330.1c0.1,0.1,0.1,0,0.1,0.3h0.4l0.4-0.4c-0.1-0.2-0.3-0.5-0.4-0.7
			C413,329.4,413,329.4,413,330.1z M403.9,333.1c0.3-0.2,0.4-0.3,0.4-0.9c-0.2-0.2-0.3-0.3-0.4-0.6h-0.4c-0.2,0.4-0.4,0.4-0.4,1
			C403.3,332.9,403.6,333.3,403.9,333.1z M368.9,332.7c-0.2,0.4-0.3,0.6-0.4,1.2h0.3c0.4,0.2,0.8,0.1,1.2,0c0.1-0.2,0.1-0.2,0.1-0.6
			c-0.2-0.2-0.2-0.4-0.3-0.7C369.5,332.6,369.2,332.6,368.9,332.7z M394.9,336c0.1,0.1,0.1,0,0.1,0.3c0.5,0,0.5,0.1,0.7,0
			c0.5-0.2,0.5-0.2,0.6-0.7c-0.2-0.2-0.3-0.3-0.4-0.6h-0.7C395,335.3,394.9,335.4,394.9,336z M417.3,335.6c-0.2,0.4-0.3,0.3-0.4,0.9
			c0.1,0.2,0.1,0.2,0.1,0.6c0.6,0,0.9-0.1,1.2-0.3c0.1-0.2,0.1-0.4,0.1-0.7c-0.1-0.1-0.1,0-0.1-0.3
			C417.9,335.6,417.7,335.6,417.3,335.6z M387.5,336c-0.6,0.2-0.6,0.4-0.6,1.2c0.2,0.1,0.2,0.1,0.6,0.1c0.2-0.3,0.2-0.3,0.3-0.9
			C387.6,336.2,387.7,336.4,387.5,336z M380,338.8c0.3-0.1,0.1,0,0.3-0.1c0.4-0.2,0.3,0,0.4-0.4c0.2-0.3,0-0.6-0.1-1h-0.9
			c-0.2,0.3-0.2,0.3-0.3,0.7c0.1,0.2,0,0,0,0.4C379.7,338.4,379.8,338.5,380,338.8z M410.2,337.5c-0.3-0.1-0.3,0-0.4-0.1
			c-0.4,0.2-0.1-0.1-0.3,0.3c-0.2,0.2-0.1,0.6-0.1,1c0.3,0.1,0.1,0,0.3,0.1c0.6-0.2,0.6-0.5,0.7-1.2L410.2,337.5z M360.2,337.5
			c-0.3,0-0.6,0.1-0.9,0.1c-0.1,0.3-0.1,0.7-0.1,1.2c0.3,0.1,0.6,0.1,1,0.1c0.1-0.4,0.2-0.4,0.3-1
			C360.3,337.7,360.3,337.8,360.2,337.5z M365.6,337.7H365c-0.2,0.4-0.3,0.6-0.3,1.3c0.4,0.1,0.2,0.2,0.7,0.3
			C366,338.7,366,338.5,365.6,337.7z M373.1,342.7c-0.3,0.4-0.1,1,0,1.4h0.7c0.2-0.4,0.3-0.8,0.3-1.6c-0.3-0.1-0.1,0-0.3-0.1h-0.7
			V342.7z M392.9,342.5c-0.1,0.4-0.2,0.9-0.1,1.4c0.2,0,0.5-0.1,0.7-0.1c0.2-0.3,0.3-0.4,0.3-1c-0.1-0.1-0.1,0-0.1-0.3H392.9z
			 M400.5,343.4c-0.1,0.2-0.1,0.3-0.1,0.7c0.1,0.2,0.1,0.1,0.1,0.4c0.3,0.1,0.1,0,0.3,0.1c0.3-0.1,0.1,0,0.3-0.1
			c0.5-0.2,0.5-0.2,0.6-0.7c-0.2-0.2-0.3-0.4-0.4-0.6C401,343.3,400.8,343.3,400.5,343.4z M416.3,343.5c-0.2-0.1-0.1,0-0.6,0
			c0,0.3-0.1,0.6-0.1,0.9c0.4,0.2,0.3,0.3,0.9,0.4c0.2-0.4,0.3-0.3,0.4-0.9C416.6,343.7,416.7,343.7,416.3,343.5z M383.3,345
			c0.6,0.2,0.6,0.4,1.2,0.6c0.3-0.4,0.3-0.2,0.4-0.9c-0.2-0.2-0.3-0.5-0.4-0.7C383.9,344.1,383.5,344.3,383.3,345z M408.5,345.4
			c-0.1,0.3-0.1,0.6-0.1,1c0.3,0.2,0.4,0.3,1,0.3c0.2-0.3,0.2-0.3,0.3-0.7c-0.1-0.2-0.2-0.5-0.3-0.7
			C409.1,345.3,408.8,345.4,408.5,345.4z M356.3,346.3c-0.2,0.3-0.3,0.2-0.4,0.6c-0.1,0.2-0.1,0.4-0.1,0.7l0.1,0.1
			c0.5,0,0.5,0.1,0.7,0c0.5-0.1,0.6-0.1,0.7-0.7c-0.2-0.2-0.3-0.4-0.4-0.7H356.3z M366.1,348.9c-0.4,0.4-0.5,0.3-0.6,1.2
			c0.3,0.2,0.2,0.1,0.3,0.6h0.9c0.3-0.4,0.4-0.4,0.4-1.2C366.8,349.1,366.9,348.9,366.1,348.9z M374.7,349c-0.8,0.1-1.2,0.3-1.2,1.3
			c0.4,0.2,0.6,0.3,1.3,0.3c0.2-0.4,0.4-0.5,0.4-1.2C374.8,349.3,374.9,349.3,374.7,349z M395,349.9h-0.6c-0.1,0.4-0.2,0.9-0.1,1.4
			c0.2,0.1,0.2,0.1,0.6,0.1c0.4-0.3,0.5-0.2,0.7-0.7C395.4,350.5,395.2,350.2,395,349.9z M403.9,350.9h-0.3v0.3
			c-0.2,0.2-0.2,0.7-0.1,1.2c0.3,0,0.6-0.1,0.9-0.1c0.1-0.3,0-0.1,0.1-0.3c-0.1-0.2-0.1-0.3-0.1-0.7
			C404.1,351.1,404,351,403.9,350.9z M412.5,352.5v0.3c-0.3,0.6,0.1,1,0.9,1c0.1-0.1,0-0.1,0.3-0.1c0-0.7-0.1-0.9-0.3-1.3
			C413.1,352.4,412.8,352.4,412.5,352.5z M348.2,353.6c0.1,0,0.3,0.1,0.4,0.1c0.3,0.2,0.6,0.1,0.9-0.1l0.3-0.3
			c-0.2-0.4-0.4-0.7-0.6-1C348.5,352.5,348.2,352.7,348.2,353.6z M389.1,352.5h-0.6c-0.2,0.4-0.3,0.5-0.4,1c0.5,0.4,0.5,0.6,1.4,0.6
			c0.1-0.2,0.1-0.2,0.1-0.6C389.4,353.3,389.3,352.8,389.1,352.5z M382.3,353.2h-0.7c-0.2,0.4-0.3,0.5-0.3,1.2
			c0.1,0.1,0.1,0,0.1,0.3h0.3c0.6,0.4,0.9-0.2,0.9-1C382.4,353.4,382.4,353.5,382.3,353.2z M361.4,354.7c-0.2,0.4-0.2,0.4-0.3,1
			c0.3,0.2,0.3,0.2,0.7,0.3c0.2,0,0.3,0,0.7-0.1c0.1-0.8,0.1-0.7-0.3-1.3C361.9,354.6,361.7,354.6,361.4,354.7z M355.7,357
			c-0.2,0-0.5,0.1-0.7,0.1c-0.2,0.4-0.3,0.3-0.4,0.9c0.3,0.3,0.3,0.5,0.9,0.6c0.4-0.4,0.6-0.4,0.7-1.2c-0.1-0.1-0.1,0-0.1-0.3
			C355.8,357,355.9,357.1,355.7,357z M403.4,357.4c-0.2,0.3-0.3,0.4-0.3,1c0.1,0.2,0.1,0.1,0.1,0.4h0.7c0.2-0.4,0.5-0.7,0.3-1
			C404.1,357.3,404.1,357.4,403.4,357.4z M400.2,358c-0.4,0.2-0.3,0.1-0.4,0.6c-0.1,0.2-0.1,0.4-0.1,0.7c0.1,0.1,0.2,0.3,0.3,0.4
			c0.3-0.1,0.1,0,0.3-0.1c0.6-0.2,0.6-0.3,0.6-1c-0.1-0.1-0.1,0-0.1-0.3C400.5,358.2,400.4,358.1,400.2,358z M344,359
			c-0.5,0.1-0.8,0.2-1,0.6c-0.3,0.7,0.3,1,1.2,1C344.7,359.8,344.5,359.7,344,359z M335.3,359.3c-0.2,0.4-0.3,0.6-0.4,1.2
			c0.4,0.2,0.6,0.3,1.3,0.3c0.2-0.3,0.3-0.4,0.3-1c-0.1-0.1-0.2-0.3-0.3-0.4L335.3,359.3L335.3,359.3z M411.4,360.7
			c0.1-0.2,0.1-0.3,0.1-0.7c-0.2-0.2-0.3-0.4-0.4-0.6h-0.7l-0.1,0.1c0.1,0.4,0.1,0.6,0.1,1.2c0.2,0.1,0.3,0.1,0.7,0.1
			C411.2,360.8,411.1,360.8,411.4,360.7z M372.8,360.4c-0.2-0.1-0.4-0.3-0.6-0.4c-0.3,0.1-0.5,0.2-0.7,0.3c-0.1,0.5-0.2,0.5-0.3,1
			c0.4,0.2,0.5,0.3,1.2,0.3c0.1-0.1,0-0.1,0.3-0.1C372.7,361.2,372.8,360.9,372.8,360.4z M391.7,362.7v1.2c0.2,0.2,0.1,0.2,0.4,0.3
			v0.1l0.1-0.1c0.6-0.2,0.7-0.2,0.7-1c-0.2-0.2-0.3-0.4-0.4-0.6C392.3,362.6,392,362.7,391.7,362.7z M381.2,364.2
			c0.4-0.9,0-0.9-0.4-1.6c-0.5,0.1-0.7,0.2-0.9,0.7c-0.2,0.2-0.2,0.3-0.3,0.7c0.3,0.1,0.5,0.2,0.7,0.4
			C380.6,364.4,380.9,364.3,381.2,364.2z M332.7,364c0.5,0.2,0.8,0.3,1.6,0.3c0.3-0.4,0.3-0.2,0.4-0.9c-0.2-0.2-0.3-0.6-0.4-0.9
			C333.5,362.8,332.9,363.2,332.7,364z M323.4,364c-0.8,0.3-1.2,0.4-1.2,1.6c0.2,0.2,0.1,0.3,0.4,0.4c0.8-0.5,1.3-0.1,1.3-1.4
			c-0.1-0.1-0.1,0-0.1-0.3C323.4,364.2,323.6,364.3,323.4,364z M403.9,365.5c-0.4,0-0.5,0.1-0.7,0.1c0.1,0.4,0,0.8,0,1.3
			c0.2,0.1,0.3,0.1,0.7,0.1c0.2-0.4,0.4-0.4,0.4-1C404.1,365.9,404,365.8,403.9,365.5z M411.4,366.4l-0.3,0.3c0.1,0.3,0,0.3,0.1,0.6
			c0.2,0.6,0.2,0.6,0.9,0.6c0.2-0.4,0.3-0.5,0.3-1.2c-0.1-0.1-0.1,0-0.1-0.3H411.4z M362.7,367.9c0.3,0.2,0.2,0.3,0.7,0.4
			c0.2-0.2,0.4-0.2,0.7-0.3c0-0.3,0.1-0.6,0.1-0.9c-0.3-0.2-0.6-0.4-0.9-0.6C362.9,366.9,362.7,367.2,362.7,367.9z M352.3,366.8
			c-0.7,0.1-1,0.4-1.2,1c0.2,0.2,0.1,0.3,0.4,0.4c0.6,0.4,1.2,0,1.3-0.7c-0.1-0.1-0.2-0.3-0.3-0.4L352.3,366.8z M396.5,368.4h-0.7
			c-0.2,0.4-0.3,0.6-0.3,1.3c0.2,0.1,0.5,0.1,0.9,0.1c0.1-0.1,0.3-0.2,0.4-0.3c0.1-0.2,0.1-0.1,0.1-0.4c-0.1-0.2-0.1-0.2-0.1-0.6
			C396.5,368.4,396.6,368.5,396.5,368.4z M344,368.5c-0.1,0.3-0.2,0.4-0.4,0.6c0.1,0.3,0.1,0.5,0.3,0.7c0.2,0.1,0.5,0.1,0.9,0.1
			c0.2-0.3,0.3-0.2,0.4-0.7c-0.2-0.2-0.3-0.5-0.4-0.7H344z M387.2,371.1c0.3-0.5,0.3-0.6,0.3-1.2c-0.2-0.2-0.3-0.3-0.4-0.6h-0.6
			c-0.2,0.4-0.3,0.7-0.3,1.4C386.6,371,386.6,371.1,387.2,371.1z M408.6,370.3c-0.2,0.1-0.4,0.2-0.6,0.3c0.1,0.6-0.1,0.5-0.1,1.3
			h0.3c0.5,0.3,1-0.1,1.2-0.6c-0.1-0.2-0.1-0.2-0.1-0.6C409,370.6,408.8,370.4,408.6,370.3z M324.7,370.3c-0.3,0.4-0.5,0.3-0.6,1
			c0.4,0.3,0.5,0.5,1.2,0.6c0.4-0.4,0.5-0.3,0.6-1c-0.1-0.1-0.2-0.4-0.3-0.6H324.7z M339,371c-0.3,0.4-0.4,0.4-0.4,1.2
			c0.1,0.1,0.1,0,0.1,0.3h1c0.2-0.2,0.3-0.2,0.6-0.3c0.1-0.2,0.1-0.2,0.1-0.6l-0.6-0.6H339z M373.1,371.1c-0.2,0.5-0.5,0.6-0.6,1.3
			l0.1,0.1c0.6,0,0.6,0,1.3,0c0.1-0.2,0.1-0.3,0.1-0.7c-0.2-0.2-0.2-0.4-0.3-0.7H373.1z M358.8,373.4c-0.3,0.4-0.8,0.8-0.6,1.3
			c0.2,0.6,0.4,0.6,1.2,0.6c0.2-0.4,0.3-0.5,0.3-1.2c0-0.2-0.1-0.4-0.3-0.7H358.8z M381.5,374.5c-0.4,0-0.6,0.1-0.9,0.3
			c-0.3,0.3-0.3,0.7-0.3,1.3h0.3c0.1,0.1,0.3,0,0.7,0c0.3-0.4,0.4-0.5,0.4-1.3C381.4,374.6,381.6,374.8,381.5,374.5z M347.9,376.9
			c-0.2,0.3-0.2,0.8-0.1,0.9c0.2,0.2,0.7,0.2,1.2,0.1c0.2-0.3,0.2-0.3,0.3-0.9c-0.2-0.2-0.3-0.5-0.4-0.7
			C348.3,376.5,348.1,376.4,347.9,376.9z M330.7,377.2c-0.7,0.3-1,0.4-1.4,0.9c0.1,0.3,0,0.1,0.1,0.3c0.3,0.4,0.5,0.5,1.2,0.6
			c0.4-0.4,0.7-0.5,1-1C331.1,377.8,331,377.6,330.7,377.2z M407.9,378.1c-0.4,0.1-0.7,0.1-0.9,0.4c-0.1,0.2-0.1,0.1-0.1,0.4
			c0.4,0.5,0.3,0.8,1.3,0.9c0.1-0.1,0-0.1,0.3-0.1c0.2-0.5,0.2-0.7,0.1-1.2C408.4,378.4,408.1,378.3,407.9,378.1z M399.1,378.1v0.3
			c-0.2,0.3-0.3,0.5-0.3,1c0.3,0.2,0.3,0.2,0.7,0.3c0.1-0.1,0.3-0.2,0.4-0.3c0.1-0.2,0.1-0.5,0.1-0.9c-0.1-0.1-0.2-0.3-0.3-0.4
			H399.1z M390.8,378.9v1.4h0.9c0.2-0.4,0.3-0.5,0.3-1.2c-0.4-0.3-0.2-0.3-0.9-0.4C391,378.9,391.1,378.8,390.8,378.9z M368,380.4
			c-0.3,0.4-0.4,0.5-0.4,1.3c0.5,0.1,0.5,0.2,1.2,0.3c0.2-0.4,0.3-0.6,0.3-1.3c-0.1-0.1-0.1,0-0.1-0.3H368z M387.1,381.2h-0.7
			c-0.1,0.3-0.1,0.8-0.1,1.3c0.1,0.1,0.1,0,0.1,0.3c0.3,0,0.6,0.1,0.9,0.1c0.3-0.4,0.5-0.6,0.6-1.3
			C387.4,381.6,387.3,381.5,387.1,381.2z M358.5,381.8c-0.7,0.1-1,0.2-1,1.2c0.4,0.3,0.4,0.5,1.2,0.6c0.4-0.4,0.5-0.3,0.6-1.2
			c-0.1-0.1-0.2-0.3-0.3-0.4C358.6,381.9,358.6,381.9,358.5,381.8z M335.5,382.8c-0.2,0.3-0.3,0.2-0.4,0.6c-0.1,0.2-0.1,0.5-0.1,0.9
			h0.3c0.4,0.2,0.8,0.1,1.2,0V384c0.1-0.2,0.1-0.1,0.1-0.4c-0.2-0.2-0.3-0.5-0.4-0.7H335.5z M398.4,383.6l-0.1,0.1
			c0,0.4-0.1,0.9-0.1,1.3c0.2,0.1,0.5,0.1,0.9,0.1c0.1-0.1,0.3-0.2,0.4-0.3c0-0.3,0.1-0.7,0.1-1c-0.2-0.1-0.3-0.2-0.4-0.3
			L398.4,383.6L398.4,383.6z M378,384.3c-0.2,0-0.5,0.1-0.7,0.1c-0.1,0.4-0.2,0.4-0.3,1c0.4,0.2,0.4,0.4,1,0.4
			c0.2-0.2,0.2-0.1,0.3-0.4c0.2-0.3,0.1-0.6,0-1C378,384.3,378.1,384.4,378,384.3z M341.1,388c-0.1,0.3-0.1,0.4-0.3,0.6
			c0.1,0.3,0,0.1,0.1,0.3c0.2,0.5,0.3,0.6,0.9,0.7c0.7-0.8,0.8-0.7,0.1-1.7C341.7,387.9,341.4,388,341.1,388z M349.2,391.5
			c-0.3,0.5-0.5,0.5-0.6,1.3c0.4,0.1,0.5,0.2,1,0.3c0.4-0.4,0.5-0.3,0.6-1c-0.2-0.2-0.3-0.4-0.4-0.6L349.2,391.5L349.2,391.5z
			 M405.6,393.2c-0.1-0.1-0.3-0.2-0.4-0.3c-0.7,0-0.9,0.2-1.4,0.3v0.4c0.1,0.1,0.1,0,0.1,0.3c0.6,0.3,0.8,0.5,1.7,0.6
			c0.1-0.1,0-0.1,0.3-0.1c0.1-0.1,0.2-0.3,0.3-0.4C405.9,393.6,406,393.4,405.6,393.2z M356.7,394.3h-0.9c-0.2,0.4-0.3,0.5-0.4,1
			c0.4,0.3,0.4,0.4,1.2,0.4c0.2-0.4,0.3-0.5,0.4-1C356.8,394.5,356.9,394.6,356.7,394.3z M397.6,394.8l-0.1,0.1
			c0,0.4-0.1,0.8-0.1,1.2c0.3,0.2,0.4,0.3,1,0.3c0.3-0.3,0.4-0.3,0.6-0.7c-0.1-0.2-0.2-0.8-0.3-1C398.3,394.7,398,394.8,397.6,394.8
			z M365.1,395.4c-0.3,0-0.7,0.1-1,0.1c-0.1,0.3-0.1,0.6-0.1,1c0.4,0.2,0.6,0.3,1.3,0.3c0.1-0.2,0.1-0.5,0.1-0.9c0.1-0.2,0,0,0-0.4
			C365.2,395.5,365.3,395.5,365.1,395.4z M391.9,396.3v0.3c-0.1,0.2-0.1,0.5-0.1,0.9c0.3,0.2,0.3,0.2,0.9,0.3
			c0.4-0.4,0.6-0.4,0.6-1.3c-0.2-0.1-0.3-0.2-0.4-0.3C392.4,396.2,392.1,396.2,391.9,396.3z M384.9,396.3c-0.3,0.5-0.4,0.7-0.4,1.6
			c0.3,0,0.7-0.1,1-0.1c0.2-0.4,0.3-0.5,0.3-1.2c-0.1-0.1-0.1,0-0.1-0.3L384.9,396.3L384.9,396.3z M370.3,396.9
			c-0.1,0.4-0.2,0.4-0.3,1c0.2,0.1,0.4,0.3,0.6,0.4c0.5-0.2,0.8-0.1,1-0.6c0.1-0.2,0.1-0.1,0.1-0.4c-0.2-0.2-0.3-0.4-0.4-0.6
			C371,396.8,370.7,396.8,370.3,396.9z M378.1,397.1c-0.1,0.3-0.2,0.6-0.3,1c0.4,0.2,0.5,0.3,1.2,0.3c0.1-0.1,0-0.1,0.3-0.1
			c0.1-0.2,0.1-0.2,0.1-0.6c-0.2-0.2-0.4-0.5-0.6-0.7C378.6,397,378.4,397.1,378.1,397.1z"/>
	</g>
</g>
</svg>
