<?xml version="1.0" encoding="utf-8"?>
<!-- Generator: Adobe Illustrator 21.0.0, SVG Export Plug-In . SVG Version: 6.00 Build 0)  -->
<svg version="1.1" id="Calque_1" xmlns="http://www.w3.org/2000/svg" xmlns:xlink="http://www.w3.org/1999/xlink" x="0px" y="0px"
	 viewBox="0 0 841 595" style="enable-background:new 0 0 841 595;" xml:space="preserve">
<style type="text/css">
	.st0{fill:#DADADA;}
	.st1{fill:#1D1D1B;}
</style>
<path class="st0" d="M348,297.1l111,53.1c0,0-23.3,10.7-6.1,32.9c15.4,19.8,34.2-1.6,34.2-1.6s-9.9,32.3,17.9,32.6
	s29.1-28.8,25.9-33.9c8.3,8,30.4,14.1,44.5-9.9s-3.8-44.5-20.8-32.9c6.7-13.8,0-32-21.7-28.5c0,0-13.1-36.8-48.9-4.8
	c-28.1-8-87.1-23.5-87.1-23.5S386.7,267,348,297.1z"/>
<g>
	<g>
		<path class="st1" d="M471.6,374.7c-0.4-0.3-0.8-0.1-1.3-0.3c-0.1,0-0.5-0.4-0.6-0.4c-0.6-0.2-1.1-0.1-1.6-0.4
			c-0.2-0.1-0.6-0.5-0.9-0.6c-0.3-0.1-0.4,0.1-0.8-0.1c-0.2-0.2-0.3-0.4-0.5-0.6c-0.3-0.1-0.7-0.1-1-0.2c-0.2-0.1-0.5-0.4-0.8-0.5
			c-0.7-0.2-1.2-0.1-1.9-0.4c-0.2-0.1-0.5-0.4-0.7-0.5c-0.5-0.2-0.9-0.1-1.4-0.3c-4.2-1.9-9.4-3.1-14.1-4.4h-0.7
			c-0.6-0.2-1.5-0.5-2.2-0.7c-0.4,0-0.7-0.1-1.1-0.1c-0.2-0.1-0.4-0.3-0.5-0.4h-1c-0.3-0.1-0.6-0.5-0.8-0.6c-0.4,0-0.9-0.1-1.3-0.1
			v-0.2h-0.9c-0.1,0-0.3-0.3-0.4-0.3c-2-0.6-4-0.6-5.3-1.8c-0.4,0-0.4,0-0.5,0.4c-0.7-0.1-1.4-0.4-2-0.6h-0.7
			c-0.2-0.1-0.5-0.4-0.6-0.5c-0.2,0-0.4,0.1-0.6,0.1c-0.1,0-0.5-0.3-0.6-0.3h-1c-0.2-0.1-0.5-0.4-0.7-0.5c-0.5-0.2-0.9-0.1-1.4-0.3
			c-0.3-0.1-0.8-0.4-1.1-0.5c-0.1,0-0.2,0.2-0.4,0.1v-0.2c0,0-0.4-0.1-0.4-0.1h-0.8c-3.1-1.4-6.3-2.2-9.5-3.4
			c-0.7-0.2-1.1-0.1-1.9-0.3c-0.9-0.3-2.4-0.7-3.1-1h-0.7c-0.6-0.2-1.7-0.3-2.4-0.5c-0.7-0.2-1.4-0.2-2-0.3h-1.5
			c-2-0.8-4.3-0.9-6.8-1.5c-1-0.2-2.4,0.5-3.4,0.3c-0.6-0.1-1.2-0.5-2.1-0.5c0-2.1,0.2-3.4-0.1-4.7c-0.1-0.7,0.4-2,0.1-2.7
			c-0.1-0.1-0.2-0.1-0.3-0.2c0.3-0.6-0.2-0.2-0.1-0.7c0-0.2,0.3-0.9,0.3-1c0.1-0.7-0.7-1.7-0.2-2.5c0.1-1.4,2.8-1.5,4.1-1.4v-0.3
			c2.5-0.1,4.4-1.2,6.1-2.1c0.3,0,0.5-0.1,0.8-0.1l0.4-0.4c0.5-0.1,0.9-0.1,1.4-0.2c0.4-0.2,1.1-0.6,1.5-0.8c0.2,0,0.5-0.1,0.7-0.1
			c0.7-0.3,0.9-1.1,1.3-1.3c0.5-0.3,1-0.1,1.5-0.3c0.8-0.4,1.6-1.2,2.4-1.7c0.5-0.3,1.3-0.8,1.9-1h0.7c0.1-0.2,0.2-0.3,0.3-0.5
			c0.2-0.1,0.4-0.1,0.6-0.2l1.3-1.3h0.3c0.1-0.1,0.1-0.3,0.2-0.4c0.8-0.5,1.8-0.6,2.6-1.1c0.4-0.3,0.8-1,1.3-1.2
			c0.1,0,0.3,0.1,0.4,0.1c0.1,0,0.1-0.3,0.2-0.4c0.4-0.3,0.7-0.6,1.1-0.9c0.4-0.3,0.7-0.3,1.1-0.5c0.4-0.2,0.8-0.8,1.1-1.2
			c0.2-0.3,0.7-0.5,1-0.7c0.2-0.1,1.5-1.4,1.6-1.5c0.1-0.1,0-0.3,0.1-0.4h0.5c0.1-0.2,0.3-0.4,0.4-0.6c0.2,0,0.3-0.1,0.5-0.1
			c0.3-0.2,0.6-0.8,0.9-1c0.4-0.3,0.9-0.4,1.3-0.7c0.4-0.3,0.5-0.7,0.8-1.1c0.2-0.3,0.9-0.5,1.1-0.8c0-0.2,0.1-0.4,0.1-0.6
			c0.3-0.2,0.5-0.5,0.8-0.7c0.3-0.4,0.4-0.9,0.7-1.3c0.8-0.9,2.3-1.6,3-2.6c0.2-0.3,0.3-0.6,0.5-0.9c0.2-0.3,0.6-0.4,0.8-0.7
			c0.1-0.2,0.1-0.5,0.2-0.7c0.1-0.2,0.6-0.1,0.7-0.3c0.2-0.3,0.2-0.7,0.4-1c0.3-0.4,0.7-0.9,1.1-1.3c0.1,0,0.2-0.1,0.3-0.1
			c0.2-0.3,0.2-0.7,0.4-1c0.1-0.2,0.3-0.5,0.5-0.8c0.1,0,0.2-0.1,0.3-0.1v-0.5c0.1-0.3,0.5-0.5,0.7-0.8c0.2-0.3,0.1-0.7,0.3-1
			c0.1-0.1,0.1-0.1,0.3-0.1c0.1-0.7,0.7-1.5,1.1-2.1c0.1-0.2,0.1-0.4,0.2-0.7c0.2-0.3,0.6-0.5,0.7-0.8c0.2-0.5,0.1-0.8,0.4-1.3
			l0.5-0.5c0.1-0.3,0.1-0.6,0.2-0.9l0.6-0.6c0.2-0.7,0.4-1.3,0.6-2c0.1-0.2,0.5-0.4,0.6-0.6c0.1-0.3,0-0.5,0-0.6
			c0.1-0.3,0.6-0.7,0.7-1v-0.5c0.4-0.8,1.1-1.7,1.5-2.5v-0.6c0.7-1.6,0.8-3.5,1.3-5.4c0.2-0.8-0.3-0.8,0.2-1.6
			c0-0.7,0.1-1.4,0.2-1.9c1.9,0,2.4-0.4,3.6-1.1c0.3,0,0.7-0.1,1-0.1c0.5-0.2,1.3-0.6,1.7-0.9c0.3-0.3,0.5-0.8,0.8-1.2
			c0.6-0.8,1.8-1.3,2.3-2.1c0.5-0.8,1-4,0.7-5.2c0-0.1-0.3-0.5-0.3-0.6c-0.1-0.5,0.1-0.9-0.1-1.5c-0.2-0.4-0.7-0.8-0.9-1.2
			c-0.9-1.5-1.9-3.4-3.7-4.1h-0.7c-1.7-0.7-3.6-0.8-5.5-1.1c0,0-0.1-0.1-0.1-0.1c0-0.6,0-0.4,0.1-0.9h-0.3c-0.2-0.6-0.5-1.3-0.7-1.9
			c-0.2-0.8,0.2-1.3,0-2c-0.2-0.5-0.5-1.3-0.6-1.6c0-0.1,0.2-0.4,0.1-0.6l-0.3-0.3c0-0.2,0.1-0.4,0.1-0.6c-0.3-1-0.2-1.9-0.9-2.6
			c0.1-0.1,0.1-0.1,0.2-0.2c0.1-0.8-0.9-1.7-0.7-2.4c-0.1-0.2,0-0.1-0.3-0.2c-0.2-0.9-0.8-1.2-0.6-2.3c-0.1-0.1-0.2-0.1-0.4-0.1
			c-0.1-0.5-0.4-0.5-0.1-0.9c-0.2-0.3-0.5-0.5-0.7-0.8c-0.1-0.3,0-0.5-0.2-0.8c-0.1,0-0.2-0.1-0.3-0.1v-0.6
			c-0.1-0.2-0.4-0.4-0.5-0.6c0-0.2-0.1-0.4-0.1-0.6c-0.5-1.1-1.4-2.3-2.1-3.3c-0.5-0.7-0.6-1.6-1.1-2.4c-0.1-0.2-0.5-0.2-0.6-0.4
			c-0.1-0.3-0.1-0.5-0.2-0.8c-0.9-1.4-1.5-3.1-1.3-4.8h0.3c0-0.1,0.1-0.2,0.1-0.3h0.1v-0.2c-0.2,0-0.4-0.1-0.6-0.1
			c-0.1-1.3,0-2.3-0.6-3.1c0.3-0.2,0.4-0.2,0.5-0.6c1,0.4,1.8,1.2,2.8,1.5c0.3,0.1,0.4-0.2,0.8,0c0.6,0.3,1.3,0.7,2,1
			c0.7,0.3,1.8,0.4,2.4-0.1c0.6-0.2,0.6-0.8,0.9-1.2c0-1.2-0.5-1.2-1.3-1.7c-0.4-0.3-0.2-0.6-0.9-0.7c0.3-1.2-0.8-1.3-1.2-2
			c0-0.2-0.1-0.3-0.1-0.5c-0.3-0.3-0.5-0.5-0.8-0.8v-0.3c-0.2-0.3-0.7-0.3-0.9-0.6c-0.3-0.3-0.4-0.7-0.7-1.1
			c-0.2-0.3-0.7-0.4-0.9-0.7c-0.3-0.4-0.1-0.7-0.1-0.7c-0.1-0.1-0.7,0-0.9-0.3c-0.8-1-1.4-2.1-2.3-3.1c-0.2-0.3-0.7-0.4-0.9-0.7
			c-0.1-0.2-0.1-0.4-0.2-0.5c-0.2-0.2-0.5-0.2-0.7-0.4c-0.2-0.1-0.2-0.4-0.3-0.5c-0.2-0.2-0.5-0.1-0.7-0.3c-0.1-0.1-0.1-0.3-0.2-0.4
			c-0.5-0.5-1-0.9-1.6-1.3c-0.3-0.2-0.3-0.5-0.7-0.7v-0.3c-1.2-0.2-1.4-1.5-2.2-2.2c-1.4-1.2-3.1-2.2-4.6-3.3
			c-0.3-0.2-0.4-0.6-0.6-0.9c-0.3-0.5-1.3-0.9-1.8-1.3c-0.8-0.6-1.3-1.6-2.7-1.7v-0.3c-1-0.5-2.3-0.9-3.5-1.3
			c-0.9-0.3-1.6-0.3-2.3-0.6c0.2-0.7,1.7-0.7,2.5-0.9c2.1-0.6,4.9-1.1,7.1-0.6h1.3c0.9,0.2,3.8,0.9,4.4,0.5c0.4-0.1,0.4-0.3,0.6-0.6
			c0-1.7-1.4-1.4-2.6-1.9c-1.1-0.4-2.2-0.7-3.3-1.2c-0.3-0.1-0.6-0.5-1-0.6c-0.6-0.2-1.3-0.3-1.9-0.5h-0.7l-0.4-0.4
			c-1.1-0.5-2.5-0.7-3.7-1h-0.8l-0.4-0.4h-1.1c-0.9-0.3-2-0.2-3.3-0.5c-0.5-0.1-1.1,0.1-1.5,0.1c-3-0.3-6.8-0.6-9.8,0.2h-1.2
			c-0.3,0.1-0.8,0.3-1.1,0.4c-0.5,0.1-1.2-0.2-1.9,0c-1.4,0.5-3.5,0.6-4.9,1.2c-0.3-0.3-0.7-0.7-1-1.1c-0.3-0.4,1.1-1.8,1.3-2.2
			c0.2-0.3,0-0.6,0.1-0.9c-0.1-0.4-0.1-0.3-0.3-0.6c-0.4-0.1-0.8-0.4-1.4-0.3c-1.8,0.5-3.2,1.6-4.7,2.4c-1.3,0.6-3.1,0.8-4.1,1.8
			h-0.2c-0.1-0.3-0.3-0.6-0.2-1.1c0-0.1,0.1-0.3,0.1-0.5c-0.1-0.7-0.5-1.4-0.7-2.1c-0.2-0.8-0.1-1.4-0.4-2.1
			c-0.2-0.2-0.4-0.5-0.6-0.7c-0.6,0-1-0.2-1.5,0.1c-0.5,0.3-0.5,1.7-0.8,2.3c-0.2,0.2-0.5,0.3-0.7,0.5c-0.3,0.4-0.6,1.1-1,1.4
			c-0.6,0.4-1.5,0.7-2,1.2c-1.4-0.1-2.7-1-3.8-1.6c-0.2-0.1-1-0.1-1.2-0.2c-0.1-0.1-0.1-0.5-0.3-0.6c-0.2-0.1-0.4-0.1-0.6-0.2
			c-0.7-0.5-1.3-1.6-2.3-1.7c0.1-0.1,0.1-0.2,0.1-0.4c-0.9-0.1-0.5-0.8-1-1.1c-0.3-0.2-0.3,0-0.5-0.2c-0.4,0-0.3-0.1-0.4,0.2
			c-0.5,0-0.5,0.1-0.8,0.3c0.1,0.6,0.2,1.3,0.6,1.7c0.1,0.1,0.4,0.1,0.5,0.3c0,0.3,0.1,0.6,0.1,0.9c0.5,1.1,0.9,2.7,1.6,3.7v0.1
			c-1.9-0.1-4.6-0.5-6.5-1.1c-0.5-0.1-1.3,0.1-1.6,0.1c-0.5,0-1-0.3-1.7-0.2c-0.1,0.1-0.2,0.1-0.3,0.2c0-0.1-0.1-0.1-0.1-0.2
			c-0.3,0-0.7,0.1-1,0.1c-2.2,0.1-3.8,0.3-5.5,0.7c-4.6,1.2-10.2,1.9-13.7,4.1c-0.4,0.2-0.9,0-1.3,0.2c-0.1,0.1-0.1,0.3-0.2,0.4
			c-0.5,0.3-1.5,0.3-2.1,0.6c-0.4,0.2-1.1,0.5-1.5,0.8c0,0.1-0.1,0.2-0.1,0.3h-0.5c-0.6,0.2-1.5,0.6-2.2,0.9c-1.1,0.5-2,1.3-3.1,1.9
			c-0.1,0.1-0.2,0.3-0.3,0.4c-0.6,0.4-1.2,0.7-1.8,1.1c-0.1,0.2-0.3,0.3-0.4,0.5c-0.4,0.3-0.9,0.2-1.4,0.5c-0.4,0.2-0.4,0.6-1,0.7
			c-0.3,1.5-3.1,3-4.3,3.9c-0.4,0.3-1.9,0.8-1.4,1.8c0.1,0.4,0.3,0.4,0.6,0.6c1.1-0.1,1.9-0.8,2.9-0.9v-0.3c0.7-0.3,2.9-0.3,3.6-0.9
			c0.3,0,0.4,0,0.6,0.1c-1,1.1-2.9,2-4.2,2.9c-0.3,0.3-0.5,0.6-0.8,0.9c-0.7,0.5-1.6,0.8-2.1,1.5c-0.2,0.3-0.4,0.8-0.7,1
			c-0.2,0.1-0.5,0.1-0.7,0.2l-1.3,1.3c-0.6,0.4-1.1,0.6-1.6,1c-1,0.8-1.5,2.1-2.3,3.1c-0.3,0.4-0.9,0.7-1.2,1.1
			c-0.5,0.6-0.7,1.4-1.2,2c-0.4,0.5-1,1-1.4,1.5c-0.1,0.4-0.2,0.7-0.3,1.1c-0.1,0.1-0.8,0.6-1,0.8c-0.9,0.9-1.2,2.1-1.9,3.2
			c-0.2,0.2-0.4,0.3-0.6,0.5c-0.1,0.3-0.1,0.6-0.2,0.9c-0.1,0.1-0.3,0.2-0.4,0.3c-0.4,0.7-0.5,1.5-0.8,2.2c-0.5,1.1-1.4,2.4-1.8,3.6
			v0.7c-0.2,0.5-0.8,1.1-1,1.6c-0.1,0.2,0.1,0.3,0.1,0.4c-0.1,0-0.1,0.1-0.2,0.1c0,0.2-0.1,0.5-0.1,0.7c-0.2,0.5-0.6,1.1-0.8,1.5
			v0.7c-0.1,0.2-0.4,0.8-0.5,1.1v0.8c-0.3,0.9-0.7,2.2-1,3.2c-0.2,0.8,0.2,1-0.2,1.4c0,0.2,0,0.2,0.1,0.3c0.2,0.1,0.4,0,0.7,0
			c-0.1,0.2-0.2,0.1-0.2,0.5c0.8,0.1,0.7-0.1,1.4-0.2c0-0.7,0.4-1.1,0.8-1.2c0-0.3,0-0.5-0.1-0.7c0.1-0.1,0.4,0,0.5-0.1
			c0.3-0.2,0.1-0.6,0.3-1l0.8-0.8c0-0.2,0.1-0.3,0.1-0.5c0.3-0.4,0.9-0.8,1.2-1.3c0.3-0.5,0.4-1,0.8-1.4h0.2
			c0.1-0.3,0.1-0.5,0.2-0.8c0.1-0.1,0.4-0.1,0.5-0.2c0.3-0.3,0.4-0.9,0.7-1.2c0.2-0.2,0.5-0.2,0.7-0.4c0.2-0.2,0.2-0.5,0.4-0.7
			c0.5-0.4,2.4-1.8,2.2-2.4c0.2-0.1,0.6-0.1,0.8-0.2c0.2-0.1,0.2-0.5,0.4-0.6c0.1,0,0.3-0.1,0.4-0.1c0.5-0.3,0.7-1,1.2-1.4
			c0.1,0,0.3-0.1,0.4-0.1c0.4-0.3,0.7-1.2,1.2-1.4h0.5c0.7-0.3,1.7-1.3,2.1-1.9h0.2c-0.3,0.7-1.1,1.3-1.6,1.9
			c-0.6,0.8-1.2,1.6-1.9,2.4c0,0.2-0.1,0.5-0.1,0.7c-0.1,0-0.2,0.1-0.3,0.1c-0.3,0.3-0.3,0.6-0.5,0.9c-0.1,0.1-0.4,0.1-0.5,0.3
			c-0.1,0.2-0.8,1.3-0.9,1.5v0.6c-0.3,0.5-1.5,1.6-1.1,2.6c-0.1,0.1-0.5,0.2-0.6,0.3v0.5c-0.3,0.8-0.8,1.8-1.2,2.6
			c-0.1,0.7-0.3,1.4-0.4,2.1c-0.5,1.3-1,2.8-1.6,4c0,0.3-0.1,0.6-0.1,0.9c-0.1,0.1-0.3,0.2-0.4,0.3c0,0.7-0.1,1.4-0.1,2.2
			c-0.7,1.7-1.7,4.9-1.3,6.8c0.1,0.2-0.3,0.5-0.3,0.7c-0.1,0.3,0.1,0.9,0.1,1.3c-0.1,0.2-0.3,0.7-0.4,0.9c-0.3,1.2-0.2,2.9-0.2,4.3
			c0,0.8-0.3,2.6-0.1,3c-0.1,0.3-0.1,0.2-0.2,0.5c-0.7-0.1-1.7-0.7-2.8-0.4c-0.9,0.2-1.9,1-2.7,1.3c-0.2,0-0.5,0.1-0.7,0.1l-1.1,0.9
			v0.6c-0.1,0.2-0.4,0.5-0.5,0.7c-0.1,0.3,0,0.5-0.2,0.8c-0.1,0.1-0.3,0.2-0.4,0.3c0,0.6-0.1,1.3-0.1,1.9c-0.5,1.7-0.2,2.3,0.4,3.7
			v0.7c0,0.1,0.5,0.5,0.6,0.6v0.5c0.1,0,0.3,0.1,0.4,0.1v0.7c0.1,0.3,0.6,0.5,0.8,0.8c0.1,0.2,0.3,0.7,0.4,0.9
			c0.9,1.2,5.6,2.6,7.6,2.6c0.2,0.9,0.7,1.4,1,2.2c0.4,0.9,0.3,2.2,0.7,3.1c0.2,0.2,0.3,0.3,0.5,0.5c0.4,0.8,0.2,1.6,0.5,2.4
			c0.2,0.8,0.9,1.6,1.2,2.3v0.7c0.1,0.2,0.4,0.5,0.5,0.7c0.2,0.6,0.2,1.2,0.5,1.7c0.2,0.3,0.7,0.7,0.9,1.1c0.3,0.7,0.4,1.4,0.8,2
			l0.7,0.7c0.3,0.4,0.2,1,0.5,1.5c0.2,0.1,0.3,0.1,0.5,0.2c0.3,0.4,0.2,0.8,0.4,1.2c0.2,0.3,0.7,0.5,0.9,0.8c0.4,0.5,0.6,1.1,1,1.6
			c0.3,0.3,0.8,0.4,1,0.8c0.3,0.5,0.7,1.2,1.2,1.5h0.4c0.2,0.2,0.3,0.7,0.5,1c0.2,0.4,0.9,0.5,1.1,0.8c0.2,0.3,0.2,0.6,0.5,0.8
			c1.5,1,2.8,2.3,4.3,3.5c0.6,0.5,1.4,0.7,1.9,1.3c0.1,0.2,0.1,0.4,0.2,0.6c0.2,0,0.4,0.1,0.6,0.1c0.1,0.1,0.1,0.3,0.2,0.4
			c0.3,0.3,0.8,0.4,1.1,0.6c0.3,0.2,0.4,0.6,0.7,0.9c0.3,0.3,1.5,0.7,1.9,0.9c1.7,0.9,3.4,2.4,4.9,3.5c0.8,0.5,1.7,0.6,2.4,1.3
			c0.1,0.1,0.1,0.1,0.1,0.3c1.2,0.1,1.9,1,2.7,1.5c0.3,0.2,0.8,0.1,1.1,0.3c0.1,0.1,0.2,0.4,0.4,0.5c0.5,0.3,1.1,0.5,1.7,0.8
			c0.1,0,0.1,0.4,0.2,0.4c0.2,0,0.3-0.1,0.5-0.1c0.4,0.2,0.7,0.7,1.1,0.9h0.6c0.2,0.1,0.4,0.5,0.6,0.6c0.2,0.1,0.4-0.1,0.5-0.1
			c0.5,0.2,1.2,0.8,1.7,1c0.5,0.2,0.9,0.1,1.5,0.3c0.3,0.1,0.9,0.5,1.2,0.6c0.2,0,0.4-0.1,0.6-0.1c1.4,0.7,3.1,1.5,4.7,2
			c1.7,0.5,3.6,0.6,5,1.3c0.1,0,1.5,0,1.9,0.1c0.2,0.1,0.3,0.3,0.5,0.4h2.1c2,0.7,4.2,1.2,6.2,1.9c0.6,0.1,1.1,0.1,1.7,0.2v0.2h1.5
			c0.6,0.1,3.4,0.1,3.9,0.4c1.2,0.4,0.7,2,1,3.4c0.3,1.4,0.4,3.4,0.6,4.6c0.1,0.5,0.2,2.3,0.2,2.3c-0.1,1.2,0.4,2.5-0.2,3
			c-0.1,0.2-1,0.3-1.5,0.5c-1.1,0.4-3.2,0.6-4.6,0.9c-0.4,0-0.9,0.1-1.3,0.1c-0.8,0.3-2,0.6-2.9,0.9c-0.6-0.1-1.7,0-2.4,0.2
			c-3.3,1-7.5,1.8-11.2,2.8c-1,0.3-1.8,0-2.9,0.3c-2.3,0.6-5.3,0.9-7.5,1.9c-0.4,0-0.7,0.1-1.1,0.1c-0.6,0.2-1.2,0.5-1.8,0.7
			c-0.3,0.1-0.8-0.1-0.9,0c-2.6,1.2-5.6,2.2-8,3.6c-0.8,0.4-1.8,0.4-2.6,0.8c-0.9,0.5-2.2,1.1-3.1,1.7c-0.3,0.1-0.5,0.1-0.8,0.2
			c-0.7,0.4-1.6,1-2.4,1.4c-0.2,0-0.5,0.1-0.7,0.1c-0.6,0.3-1.1,0.9-1.6,1.2c-0.4,0.2-0.7,0.1-1.1,0.3c-1.3,0.7-2.7,1.7-4,2.5
			c-0.4,0.2-0.8,0.2-1.3,0.4c-0.3,0.1-0.5,0.5-0.7,0.6c-0.5,0.3-1.1,0.3-1.7,0.6c-1.5,0.6-2.8,1.7-4.2,2.5c-0.1,0.7,0,0.8,0.3,1.4
			c0.4,0.1,0.7,0.4,1.1,0.2c0.8-0.1,2-1.3,2.6-1.8c0.2-0.1,0.4-0.1,0.6-0.2c0.9-0.6,2.1-1.4,3.2-1.8c0.5-0.2,0.8-0.1,1.1-0.4h0.2
			c-0.5,0.9-0.4,2.6-1,3.4c0,1.1,0.2,1.1,0.6,1.7c0.3,0,0.4,0,0.5,0.1c1.5,0,2-3.5,2.5-4.4c0.2-0.4,1.1-1,0.6-1.7v-0.4
			c-0.2,0-0.3-0.1-0.5-0.1c0.1-0.6,0.6-0.6,1.1-0.9c0.9-0.6,2.9-2.1,4.2-2.3c-0.2,1.5-1,2.6-1,4.2c0,0.2-0.1,0.4-0.1,0.6
			c0.1,0.4,0.5,0.8,0.7,1.2c0.2,0.1,0.3,0.1,0.4,0.2c0.4,0,0.8,0,1.1-0.1c0.3-1.3,0-2.2,0.6-3.4c0.3-0.6,1.2-1.7,1.5-2.3
			c0.2-0.4-0.1-0.7,0-1c0,0,0.3-0.3,0.3-0.4c0.1-0.3,0-0.6,0-0.7c0.6-1.1,4-1.2,4.8-2.2h0.2c-0.1,0.4-0.3,0.7-0.5,1
			c-0.3,0.1-0.6,0.2-0.9,0.3v0.4h0.4c-0.2,0.3-0.6,2-0.4,2.3c0.1,0.5,0.3,0.6,0.5,1h0.8c0.2-0.2,0.6-0.4,0.8-0.6
			c0.7-0.9,0.8-2.3,2-2.7v-0.3h-0.3c0.3-1.1,0.9-1.4,0.6-2.7c1.7-0.7,3.7-1.7,5.7-2c-0.1,0.8-0.6,1.3-0.8,2c0.2,0.6-0.1,1-0.3,1.5
			c0.4,0.3,0.7,0.5,1,0.9c0.5,0,0.8,0,1.1-0.3c0.6-0.2,0.4-0.7,0.7-1.2c0.4-0.8,1.4-1.4,1.5-2.5h0.3c0,0,0.1-0.1,0.1-0.1v-0.4
			c-0.6,0-0.6-0.1-0.8-0.5c-0.2-0.1-0.1,0-0.2-0.1c0.4-0.1,0.7-0.1,1.2-0.3c0.1-0.1,0.4-0.4,0.5-0.4c0.2,0,0.3,0.1,0.5,0.1
			c0.7-0.2,2.8-0.4,3.2-0.7h0.2v0.1c-0.5,0.2-1,1.1-1.2,1.6c-0.3,0.5,0.4,2,0.6,2.5c0.4,0,0.7,0.2,1,0c0.7-0.2,0.5-0.6,0.8-1.3
			c0.2-0.4,0.7-0.8,1-1.2c0.5-0.7,0.9-1.4,1.2-2.3c0.9-0.4,2.5-0.5,3.6-0.4c-0.3,0.5-0.5,1.3-0.8,1.9c0.1,0.2,0.1,0.6,0,1
			c-0.1,0.4-0.5,0.7-0.7,1.1c0.3,0.2,0.8,0.4,1,0.7c0.2,0.2,0.3,0.6,0.5,0.8c0.1,0.1,0.3,0,0.4,0.1c0.2,0.3,0.1,0.5,0.3,0.7
			c0.5,0.4,1.2,0.5,1.7,0.9c0.6,0.5,1.4,1.1,2.2,1.5c0.5-0.2,3.5,0.7,4.3,0.9c0.3,0.1,0.8,0,1,0.1c0.2,0.1,0.1,0.1,0.3,0.3
			c0.4,0.2,1.5-0.2,1.9-0.1c1.6,0.3,3.4,0.2,4.7,0.6h1.3c4,1,10.3,0.4,14.6-0.6c0.5-0.1,0.9,0.5,1.7,0.3c0.9-0.2,1.9-0.3,2.8-0.5
			c0.5,0,1,0.1,1.5,0.1c0.4-0.1,0.9-0.6,1.3-0.7h1c0.3-0.1,0.6-0.3,0.8-0.4c0.2,0.1,0.6,0.1,0.9,0c0.3-0.1,0.8-0.5,1.1-0.6
			c0.2,0,0.5,0.2,0.8,0.1c1.2-0.4,2.5-1.1,3.7-1.6c1.2-0.5,2.2-0.6,3.2-1.3c0.1,0,1.6-2.1,1.7-2.3c0.1-0.4,0.3-0.7,0.4-1.1
			c0.1,0,0.2-0.1,0.3-0.1c0.2-0.4,0.1-1.3,0.4-1.8c0.1-0.2,0-0.1,0.1-0.2c0.1,0.4,0.7,1.3,1.3,1.4c-0.1,0.1-0.1,0.1-0.2,0.2v0.1
			c0.4,0.1,0.7,0.2,1.1,0.3c0.9,0.5,3.3,2.4,4.6,1.4c0.3-0.4,0.1-1,0.1-1.6c-1.1-0.1-1.5-0.6-2.3-0.9v-0.4c-1.2,0-2.5-1.9-3.3-2.7
			v-0.1c0.6,0.2,1.3,0.4,2.1,0.6c0.5,0,1,0.1,1.5,0.1c0.2,0.1,0.4,0.4,0.6,0.5c0.4,0.2,1.4,0.3,1.7,0.3c0.2,2.4,2.1,3.4,3.3,5.1
			c0.2,0,0.2,0,0.3-0.1h0.3c-0.1,0.1-0.1,0.1-0.2,0.2v0.5c0.6,0.1,0.9,0,1.5,0.2c0.5-0.4,1.2-0.9,0.6-1.8c-0.2-0.2-0.6-0.3-0.8-0.5
			c-0.4-0.5-0.3-1-0.3-1.6c-0.8,0-0.7-0.2-1.1-0.5v-0.1c0.2,0,0.4-0.1,0.6-0.1c0.3,0.1,0.8,0.5,1.1,0.6c0.4,0,0.8,0.1,1.2,0.1v0.2
			c0.6,0.3,1.3,0.2,1.8,0.5c0.3,0.3,0.4,1.7,0.1,1.9c0,0.2,0,0.2,0.1,0.3c0.2,0.1,0.4-0.1,0.6,0c0.2,0.1-0.1,0.2,0.4,0.3
			c0,0.2,0,0.2,0.1,0.3c0.3,0.6,1.1,0.9,1.3,1.7c0.6,0.1,1.1,0.3,1.7,0.4c0.2,0,0.3,0,0.4-0.1c0.6-0.9-0.4-1.6-0.3-2.3
			c0-0.8-0.1-0.8-0.7-1c0-0.1-0.1-0.1-0.1-0.2h0.1c0.5-0.3,2.2,0.6,2.7,0.8c0.6,0.2,1.3,0,1.8,0.4c0.6,0.4,0.1,1.7,0.9,2
			c-0.1,0.3-0.2,0.6-0.4,0.8c0,0,0.3,0.4,0.3,0.4c0.2,0,0.5-0.1,0.7-0.1c0.5,0.2,1.2,1.4,2.1,0.8c0.6-0.1,0.6-0.3,0.9-0.5v-0.9
			c-0.5-0.1-0.4-0.3-0.8-0.5v-0.4h-0.5c0.1-0.3,0.2-0.4,0.2-0.8c1.2,0.1,2.5,0.9,3.4,0.7c0,0.3-0.2,0.6-0.3,0.8
			c-0.1,0.4,0.9,2.1,1.1,2.3c0.2,0.2,0.4,0.1,0.6,0.3h0.4v0.4c0.9,0,1.4,0.1,2-0.3c0-0.8-0.1-1.5-0.7-1.9c0-0.4,0-0.4,0.3-0.5
			c0,0,0.7,0.1,1,0.2c0.5,0.1,2.7,0.6,3.1,0.9h0.2c-0.2,0.2-0.7,1.3-0.7,1.6c0.3,0,0.4,0,0.5,0.1c0.5,0.2,0.6,0.9,1,1.2
			c0.3,0.2,0.6,0.2,0.8,0.4c0.1,0.1,0,0.1,0,0.4c0.5,0,0.5,0.2,1,0.2c0.3-0.3,1-0.5,1.2-0.9c0.1-0.2-0.1-0.5,0.1-0.6
			c0.5-0.4,1.3-0.4,1.8-0.9c0.4,0.1,1.2,0.3,1.5,0.5c0.1,0,0.2,0.1,0.3,0.1c-0.1,0.4-0.3,0.2-0.4,0.7c0.9,0.1,0.9,2,1.6,2.6
			c0.2,0.3,0.5,0.3,0.7,0.5c0.4,0,0.6-0.1,0.8-0.3c0.5-0.4,0.5-1.3,0.5-2.1h-0.4c0-0.3,0-0.3,0.1-0.5c0.9,0.1,3.4,1,4.1,1.4h0.2v1.4
			c0.1,0.4,0.5,0.4,0.5,1.1l0.1,0.1h0.4c0,0.2,0,0.2,0.1,0.3c0.3,0.6,0.9,0.4,1.3,0.6c0.6,0,0.6-0.2,1-0.5c0-0.9,0.1-1.3-0.4-1.7
			v-0.1c1.9,0.3,3.3,1.3,4.7,2c1.1,0.6,2.4,0.7,3.3,1.6c0.3,0,1.4-0.3,1.6-0.5c0.2-0.1,0.2-0.2,0.4-0.3
			C472.1,375.4,472,375.1,471.6,374.7z M447.2,262.8c1.3-0.1,2.7,0.2,4.3,0.2v0.5c0.3,0,0.6-0.1,0.9,0.1c1,0.1,1.4,0.9,1.9,1.6
			c0.6,0.9,1.4,1.9,1.8,3.2c0.3,1.2-0.1,2.2,0.1,3.3c-0.1,0.1-0.1,0.2-0.2,0.3c-0.2,0-0.2,0-0.3-0.1c-0.4-0.2-1.3-2.1-0.9-2.5v-0.2
			H454v-0.3c-0.4,0-0.2,0-0.5,0.1c-0.6-1-2.6-1.5-3.9-2c-0.4-0.1-1-0.6-1.4-0.4c-0.4,0-0.9,0-1.2-0.1
			C447.1,265.1,447,264,447.2,262.8z M390.8,205.5L390.8,205.5l0.1,0.2h-0.1V205.5z M298.7,249.3L298.7,249.3l0.1,0.2h-0.1V249.3z
			 M289.1,277.8h-0.3c-0.1-1-0.3-2.1,0.1-3.1l0.6-0.6c0.2-0.3,0.1-0.5,0.3-0.9c0.3-0.5,1.5-1.2,2.1-1.3c0.2,0,0.4,0.1,0.6,0.1
			c0.2-0.1,0.8-0.3,1.1-0.2c0.5,0.1,1,0.5,1.6,0.7c0,0.8,0.1,1.6-0.3,2.3c-0.2,0.1-0.9-0.1-1.4,0.1c-0.2,0.1-0.3,0.4-0.5,0.4
			c-0.2,0.1-0.3-0.1-0.4-0.1c-0.8,0.1-0.5,0.7-1,1h-0.7C290.4,276.4,289.4,277.3,289.1,277.8z M374.4,362.2c-2.1,0.4-3.3,0-5.9,0h-2
			c-1.2,0.3-2.6,0.3-3.6,0c-0.5-0.1-0.9,0.3-1.3,0c-0.5,0-0.5-0.1-0.8-0.3v-0.2c1.7-1.6,3.5-3,5.8-4c0.3-0.1,0.6-0.5,0.9-0.6h1.4
			c0.8-0.3,2.8-0.9,3.5-0.5c0.4,0,1.1-0.1,1.4,0.1c0.1,0.2,0,0.6,0.1,1c0,0.1,0.3,0.5,0.3,0.6c0.1,0.4-0.2,0.7-0.2,0.9
			c-0.1,0.5,0.2,0.3,0.3,0.5c0.1,0.2-0.1,0.4,0,0.7v0.1c-0.2,0-0.4-0.1-0.6-0.1c0,0.4,0.2,0.7,0.1,0.9c0.1,0.3,0.1,0.2,0.5,0.3
			c-0.1,0.3-0.1,0.2,0.1,0.4L374.4,362.2L374.4,362.2z M386.3,336.9c-0.2,0.2-0.5,0.4-0.8,0.6c-0.1,0.6,0,0.9,0.1,1.4
			c0.1,0.4-0.2,1.6-0.1,2.1c0.1,0.4,0.3,1.5,0.2,1.9c0,0-0.2,0.3-0.2,0.4c0.1,0.2,0.4,0.7,0.4,0.9c0,1.6-0.1,4.2,0.3,6.1
			c0.1,0.4-0.2,1.3-0.2,1.7c0,0.4,0.2,1.7,0.1,2c-0.1,0.3-0.6,0.9-0.7,1.2c-0.1,0.3,0.2,0.8,0.2,0.9c0,0.9-0.3,3.6,0.3,4.2v0.1
			c-1.7,0.4-3.7,0.3-5.2,0.7c-1.2,0.3-2.6,1-3.8,0.8c0-1,0-0.5-0.3-1.1v-0.8c-0.1-0.6,0-1.5-0.3-2.1h-0.2c-0.2-0.4,0.1-0.9,0.1-1.2
			c0-0.1-0.3-0.7-0.3-0.9c-0.1-0.4,0.2-0.6,0-1h-0.2c-0.1-0.3,0.5-1,0.4-1.4c0,0-0.3-0.5-0.3-0.6c0-0.3,0.3-0.5,0.1-1.1
			c-0.4-1.4-0.2-3-0.5-4.2V346c-0.4-1.9-0.1-5.1-1-6.6c-0.1-0.2-1.4-1.4-1.6-1.5c-0.7-0.4-1.5-0.1-1.9-0.8c-3.1,1-7.1-0.8-9.5-1.6
			c-0.7-0.2-1.8-0.1-2.3-0.2c-1.2-0.3-2.9-0.5-4-0.9c-0.3,0-0.6,0.1-0.9,0.1c-0.5-0.2-1.2-0.6-1.8-0.8h-0.9
			c-0.9-0.3-1.9-0.4-2.9-0.7c-1.2-0.4-2-1-3.2-1.4c-0.8-0.3-1.5-0.3-2.3-0.6c-0.4-0.2-0.7-0.5-1.1-0.7c-0.5-0.2-1.1-0.1-1.7-0.4
			c-0.1-0.2-0.3-0.3-0.4-0.5c-0.9-0.5-2-0.6-2.9-1.1c-0.4-0.2-0.8-0.8-1.2-1c-0.4-0.1-0.7-0.2-1.1-0.3c-0.3-0.2-0.3-0.4-0.9-0.5
			v-0.3c-0.8-0.2-1.6-0.9-2.3-1.3c-0.3-0.2-0.6-0.1-0.9-0.3c-0.5-0.3-0.6-0.8-1.4-0.9v-0.4c-1.8-0.1-2.5-2-4.2-2.4v-0.3h-0.5
			c-1.1-1.2-2.8-1.9-4.2-2.8l-0.2-0.4c-1-0.8-1.9-1.4-2.9-2.2c-0.1-0.1-0.1-0.4-0.2-0.5c-0.3-0.3-0.6-0.2-1-0.4
			c-0.2-0.1-0.2-0.5-0.4-0.7c-0.4-0.4-1.1-0.6-1.6-1c-0.8-0.5-1.3-1.5-2-2.1c-0.6-0.5-1.4-1-1.9-1.6c-0.2-0.2-0.2-0.6-0.4-0.8
			c-0.4-0.5-1.2-0.9-1.6-1.5c-0.3-0.4-0.3-0.7-0.5-1.1c-0.3-0.3-0.7-0.6-1-0.9c-0.2-0.4-0.2-0.8-0.4-1.2c-0.3-0.5-0.9-0.9-1.1-1.5
			v-0.5c-0.2-0.2-0.5-0.4-0.7-0.6c-0.2-0.3-0.2-0.7-0.4-1c-0.1-0.1-0.3-0.1-0.4-0.2c-0.1-0.2,0-0.5-0.1-0.8
			c-0.1-0.1-0.2-0.1-0.3-0.2c-0.2-0.5-0.1-0.9-0.4-1.3c-0.1-0.1-0.3-0.1-0.4-0.2v-0.8c-0.1-0.3-0.5-0.9-0.6-1.2
			c0-0.1,0.2-0.2,0.1-0.4c-0.2-0.3-0.6-0.8-0.8-1.2c-0.2-0.5-0.1-1.3-0.3-1.8c-0.6-1.4-1.1-2.9-1.6-4.2v-0.7
			c-0.1-0.2-0.5-1.3-0.7-1.5c-0.1-0.1-0.3-0.2-0.4-0.3v-0.9c-0.1-0.2-0.3-0.4-0.4-0.7c-0.8-0.2-1.7-0.8-2.4-1c-1.3-0.4-2,1-3,0.4
			c-0.3-0.1-0.5-0.6-0.8-0.7c-0.3-0.1-0.7-0.1-1-0.2c-0.2-0.2-0.2-0.6-0.4-0.8c-0.3-0.3-0.6-0.5-0.9-0.8c0.1-0.4,0.5-0.5,0.7-0.9
			c0-0.3,0.1-0.6,0.1-0.9c0.6-1.1,3.9-2.5,5.2-1.3c2.4-0.1,1.2-4,1.3-5.2c0-0.4,0.3-0.6,0.2-1.2c-0.1-0.5-0.1-2.2-0.4-2.4
			c0.1-0.3,0.3-0.2,0.4-0.5c0,0,0.1-0.1,0.1-0.1c0-0.1-0.2-0.2-0.2-0.3c-0.1-0.6,0.3-1.4,0.1-2.1c0-0.1-0.2,0-0.2-0.3
			c0-0.2,0.3-0.6,0.3-0.8c0.1-0.5-0.3-1.6-0.2-2.1c0.1-0.5,0.5-2,0.5-2.3c0-0.7,0.2-1.2-0.2-1.6V259h0.4c0-0.6,0.1-0.9-0.1-1.2
			c0.1,0,0.2-0.1,0.3-0.1c0-0.4-0.1-0.5-0.2-0.7c-0.1,0,0.3-0.5,0.3-0.9c0,0,0.2-0.4,0.1-0.8c0,0-0.3,0.1-0.2-0.1
			c0.3-0.4,0.2-0.7,0.2-0.7c0.1-0.2,0.5-0.2,0.1-0.5c0.1-0.1,0.1-0.1,0.3-0.1c0-0.7,0.2-0.9,0.3-1.4c0-0.3-0.1-0.5-0.1-0.8
			c0-0.1,0.4-0.2,0.4-0.3c0.2-0.4,0.3-1.2,0-1.4V250h0.4c0-0.7,0.3-2.4,0.9-2.6c0.1-0.5,0.2-1,0.1-1.5c0.1-0.1,0.2-0.1,0.4-0.1
			c0.1-0.3,0.2-0.5,0.3-0.8c0.1-0.3-0.1-0.7-0.1-0.9c0,0,0.4-0.7,0.5-1h-0.4c0.1-0.2,0.3-0.2,0.6-0.3c0-0.3-0.1-0.6-0.1-0.9
			c0.7-0.1,0.7-0.7,0.7-1.5h0.3c0-0.3,0.1-0.5,0.1-0.8h0.4c0-0.5,0.2-1.6,0.5-2c0.2-0.2,0.4-0.1,0.6-0.5c0.1-0.1,0.1-0.3,0.1-0.6
			h0.3c0.1-0.3,0.2-0.7,0.3-0.9h0.3v-0.4h0.5c0.2-0.1,0-0.5,0.1-0.8c0.1-0.2,0.5-0.3,0.6-0.5c0.2-0.3,0.3-0.7,0.6-1
			c0.1-0.1,0.1-0.1,0.3-0.1c0-0.2,0-0.3,0.1-0.4c0.2-0.8,1.2-1.3,1.6-1.9c0.6-0.9,1.4-2.2,2.6-2.4c0.1-0.4,0.2-0.4,0.2-0.9
			c0.3,0,0.2,0.1,0.4,0c0.4-0.2,0.4-0.8,0.8-1c0.3-0.2,0.7-0.1,0.9-0.3c0-0.2,0.1-0.4,0.1-0.6c0.3-0.4,0.6,0,0.8-0.6h0.2
			c-0.3,0.7-0.6,0.5-1,1c-0.2,0.2,0,0.5-0.1,0.8l-0.4,0.4c-0.2,0.4-0.1,0.7-0.3,1.1c-0.2,0.4-0.9,1.4-0.6,1.9c0,1.4,0.9,1.3,2,1.2
			c0.1-0.9,2.1-2.5,2.8-3c0.4-0.3,0.6-0.8,1-1.2c0.8-0.8,1.7-1.3,2.6-2c0.4-0.3,0.6-0.8,1-1.1c1-0.8,2.2-1.4,3.3-2.3
			c0.1-0.1,0.1-0.1,0.1-0.3c0.5-0.1,0.4-0.2,0.7-0.4c0.5-0.2,0.9-0.2,1.3-0.5c0.3-0.3,0.6-0.7,0.9-1c0.2,0,0.5-0.1,0.7-0.1
			c0.3-0.1,0.5-0.5,0.7-0.7c0.1-0.1,2-0.9,2.2-0.9v-0.3c0.5-0.1,0.9-0.2,1.4-0.3c0.1-0.8,0.7-0.5,1.2-0.8c1.3-0.7,2.9-1.4,4.3-2
			c0.1,0.4,0.2,1.2,0.4,1.6c-0.3,0.9-1.3,1.6-2.1,2c-0.3,0.1-0.6,0.1-0.9,0.2c-0.6,0.3-0.7,1.2-1.4,1.6c0.4,0.7,0.5,1.4,1.3,1.6
			c1.3,0.8,2.8-1,4.2-1.1v0.4h0.3c0.2-0.6,0.2-0.6,0.5-1.1h0.3c0-0.2,0-0.3-0.1-0.4c0.4-0.3,1-0.4,1.5-0.7c0.8-0.6,2.2-1.5,3.2-1.9
			c0.6-0.3,1.1-0.2,1.7-0.5c0.3-0.1,0.6-0.6,0.9-0.7h0.5c0.4-0.1,0.8-0.4,1.2-0.5c0.4-0.1,0.8,0.1,1.2-0.1h0.2c0-0.2,0-0.2-0.1-0.3
			c0.1-0.7,1.2-0.8,1.8-1.1c1.1-0.5,2.5-1.3,3.6-1.8c0.5-0.2,0.9-0.1,1.3-0.4c0.9,0.2,0.5,1.6,0.9,2.7c0.5,1.4,0.9,2,2,2.9
			c0.4,0.4,1.7,1.2,2.5,0.5c0.4-0.2,0.2-0.4,0.5-0.7c0.3-0.3,0.8-0.4,1.1-0.7c0.5-0.6,0.7-1.3,1.4-1.8v-0.4c1.4-0.3,2.1-2,3.7-2.1
			v-0.3c0.9-0.4,2.5-0.4,2.7,0.7c0.9,0.1,1.1,0.7,1.7,1.1c0.8,0.6,2,0.9,2.6,1.7c0.5,0,1.1,0.1,1.4-0.1c0.6-0.3,2.1-2.9,2.5-3.7
			c1.4-0.2,2.5,1,3.8,0.8c0.5-0.1,2.3,0.8,3.1,1.1h0.7c0.2,0.1,0.4,0.4,0.6,0.5c0.2,0.1,0.5,0,0.8,0.1c0.4,0.1,0.7,0.6,1.1,0.7
			c0.2,0,0.5,0.1,0.7,0.1c0.1,0.1,0.1,0.4,0.2,0.4h0.8c0.6,0.3,1.3,0.9,2,1.2c0.5,0.2,1.1,0.2,1.5,0.5c0.4-0.1,0.3-0.3,0.8-0.4v0.3
			c0.3,0,0.5,0,0.7-0.2c0.2-0.1,0.2-0.1,0.4-0.2c0.5-1.2-0.4-3-0.7-4.2c0.1-0.1,0,0,0.1-0.2c1.6,0.3,2.9,0.7,4.4,1.1
			c0.3,0.1,1.2,0,1.4-0.2c0.2,0.1,0.1,0,0.2,0.3c1.1,0.1,2.3,0.4,3.6,0.4c0.6,0.7,1.3,1.2,2,1.9c0.4,0.4,0.5,0.9,0.9,1.3
			c0.2,0.2,0.5,0.1,0.7,0.3c1,1.3,2.2,2.6,3.1,3.8c0.6,0.9,1.5,1.3,2.1,2.4h0.3c0.1,0.7,0.5,0.9,0.7,1.4c0.5,1.2,0.8,2.3,1.3,3.5
			c0.2,0.4,0.6,0.8,0.8,1.1c0,0.1-0.2,0.3-0.1,0.5c0.2,0.6,0.3,2.3,0.4,2.5c0.1,0.1,0.1,0.1,0.3,0.1c0,0.3-0.2,1.2,0,1.5
			c0.2,0.4,0.3,0.5,0.7,0.4c0.2,0.4,0.5,0.9,0.7,1.3c2.1,0,2.4-0.3,3.7-1.3c0-1.8,0.6-2,1.1-3.2c0.3-0.7,0.4-4.2,0.2-4.6
			c0.3-0.1,0.3-0.1,0.4-0.4h0.2c0.7,1.4,1.6,3,2.2,4.3c0.3,0.6,0.9,1.2,0.9,1.9c0.2,0,0.2,0,0.3,0.1c0.8,0.3,0.9,1.5,1.9,1.7
			c-0.1,0.1-0.1,0.3-0.2,0.4c1.1,0.7,1.3,2.3,2.6,3c0.7,0.4,1.9-0.7,2.6-0.9c0.1,0.2,0.4,0.3,0.5,0.5c0.4,0.7,0.4,1.4,0.8,2
			c0.2,0.2,0.3,0.3,0.5,0.5c0,0.1-0.2,0.2-0.1,0.4c0.1,0.2,0.5,0.4,0.6,0.8h0.3c0.1,1.4,1.1,2.4,1.7,3.4c0.2,0.4,0.1,1.1,0.3,1.5
			c0.1,0.4,0.6,0.8,0.8,1.1v0.7c0.2,0.5,0.6,1.3,0.8,1.8c0.1,0.2,0,0.5,0,0.6c0.1,0,0.2,0.1,0.3,0.1v0.7c0.1,0.2,0.3,0.5,0.4,0.7
			c0.1,0.6,0.2,1.1,0.3,1.7l0.3,0.3c0.1,0.4-0.2,0.8-0.1,1.2c0.1,0.3,0.2,1.4,0.4,1.8c0.1,0.1,0.2,0.1,0.3,0.2
			c0,0.3-0.1,0.5-0.1,0.8c0.2,0.9,0.3,2.7,0.7,3.2v0.7c-0.1,0-0.2-0.1-0.3-0.1c0,0-0.1,0.1-0.1,0.1c0,0.7,0.4,0.8,0.5,1.2
			c0.1,0.5-0.2,1.2-0.1,1.5c0,0.1,0.3,0.2,0.2,0.5c-0.2,1-0.6,4.2,0,5c0.9,1.1,1.7,0.2,2.9,0.4c0.4,0.1,0.9,0.4,1.2,0.5
			c0.1,0,0.3-0.1,0.4-0.1c2.1,0.7,2.8,2.8,4.3,4.2c0,1.9-2.3,2.3-3.8,2.7c-1.2,0.3-2.2-0.6-3.1,0c-0.8,0.3-0.6,1.1-0.8,2.1
			c-0.2,1,0.1,2.1-0.5,3.3c-0.3,0.6,0.2,2,0,2.7c-0.9,3.5-2.5,7-4.2,10.2c-0.3,0.6-0.3,1.2-0.7,1.8c-0.1,0.2-0.4,0.4-0.5,0.6
			c-0.2,0.6-0.2,1-0.5,1.5c-0.1,0.2-0.3,0.5-0.5,0.8c-0.1,0.1-0.3,0.1-0.4,0.2c-0.2,0.2-0.1,0.6-0.2,0.8c-0.1,0.2-0.4,0.4-0.5,0.6
			c-0.4,0.8-0.5,1.5-1,2.2c-0.2,0.3-0.5,0.4-0.6,0.9c-0.1,0.2-0.1,0.2,0.1,0.4c-0.4,0.3-1,0.6-1.2,1c-0.2,0.4-0.1,0.6-0.3,0.9
			l-1.2,1.2c-0.4,0.6-0.7,1.2-1.2,1.8c-0.2,0.3-0.7,0.5-1,0.8c0,0.1-0.1,0.6-0.3,0.8c-0.2,0.3-0.5,0.4-0.8,0.6l-1.7,1.7
			c-0.2,0-0.3,0.1-0.5,0.1c0,0,0.2,0.2,0.1,0.4c0,0.1-0.2,0.4-0.3,0.5c-0.1,0.1-1.1,1.4-1.2,1.5c-0.2,0.1-0.4,0-0.5,0.2
			c-0.2,0.3-0.2,0.7-0.4,1c-0.3,0.4-1,0.6-1.4,0.9c-0.8,0.5-1.4,1.2-2.2,1.8c-0.3,0.2-0.5,0.9-0.5,0.9c-0.4,0.3-0.8,0.2-1.2,0.5
			c-0.2,0.2-0.3,0.5-0.5,0.7c-0.5,0.4-1,0.7-1.5,1.1c-0.1,0.2-0.3,0.4-0.4,0.6c-0.5,0.4-1.2,0.5-1.8,0.9c0,0.1-0.1,0.2-0.1,0.3
			l-0.9,0.6h-0.6c-0.1,0.2-0.1,0.4-0.2,0.6c-0.6,0.5-1.6,0.7-2.3,1.1c-0.7,0.5-1.5,1.3-2.3,1.8c-0.2,0-0.3,0.1-0.5,0.1
			c-0.1,0.2-0.2,0.3-0.3,0.5c-0.2,0.1-0.4,0.1-0.6,0.2v0.2c-0.3,0-0.5,0.1-0.8,0.1c-0.3,0.1-0.5,0.6-0.8,0.8c-0.3,0.2-0.6,0-0.8,0.2
			c-0.6,0.4-1.3,1.1-2,1.4c-1.3,0.6-2.4,0.6-3.1,1.7c-0.3-0.1-0.2,0-0.4-0.2c-0.4,0.1-0.2,0.1-0.2,0.5c-0.9,0.2-2,0.7-2.9,1
			c-0.3,0.1-0.8-0.1-0.9,0c-0.1,0.1-0.1,0.5-0.3,0.6c-0.5,0.3-1,0.2-1.7,0.5c-0.5,0.2-1.3,0.6-1.8,0.8h-1.1
			c-0.9,0.2-2.1,0.4-3.1,0.5c-0.4,0.1-0.9,0.2-1.3,0.3c-0.1-0.1-0.1-0.2-0.2-0.3C387.4,336.7,387,336.9,386.3,336.9z M393.2,357
			c-0.5,0.7-3.3,2.1-4.3,2.5c-0.4,0.2-0.8,0.1-1.1,0.3h-0.2c0-0.7,0.1-2.7,0.1-2.7v-1.2c1-0.2,5-0.4,5.7-1l0.1,0.1
			C393.9,355.6,393.5,356.6,393.2,357z M448.6,369.9c-0.6-0.1-0.5-0.5-1.1-0.6c-0.1-0.4-0.2-0.5-0.2-1c0.2,0.1,0.2,0.1,0.3,0.4
			c0.9,0,1.2,0.3,2.2,0.3l0.1,0.1C449.5,369.4,448.9,369.5,448.6,369.9z M377.6,235.5c0.3,0.3,0.6,0.6,0.9,0.9
			c0.2,0.3,0.2,0.6,0.5,0.8c2.1,1.4,5.6-1.2,7.5-1.6c1-0.2,2.1,0.4,2.7,0.6c0.4,0,0.8,0.1,1.2,0.1c0.5,0.2,1.3,0.6,1.8,0.8
			c0.3,0,0.6,0.1,0.9,0.1c0.2,0.1,0.3,0.5,0.6,0.6c0.8,0.4,1.9,0.5,2.6,0.9v0.3h0.6c0.5,0.5,1.2,0.7,1.8,1.2c1.4,1,2.5,3,4.6,3
			c0.3-0.2,0.6-0.5,0.9-0.7c0-0.5,0.2-0.9-0.1-1.4c-0.2-0.3-0.5-0.3-0.6-0.8c-0.6-0.1-1.2-1.1-1.5-1.6h-0.3
			c-0.2-0.8-0.9-0.9-1.3-1.4c-0.1-0.2-0.1-0.4-0.2-0.6c-0.6-0.7-2.1-1.8-2.2-3c-0.1,0-0.2,0.1-0.3,0.1c-0.2-0.4-0.4-0.3-0.7-0.6
			c-0.8-0.8-1.3-2-2.2-2.7c-0.3-0.3-0.9-0.3-1.2-0.6c-0.2-0.2-0.3-0.6-0.4-0.8c-0.1-0.2-0.4-0.2-0.6-0.3c-0.2-0.2-0.3-0.5-0.5-0.7
			c-0.4-0.3-0.9-0.4-1.3-0.7c-0.1-0.1-0.2-0.3-0.3-0.4c-0.8-0.4-1.6-0.2-2.2-0.8c-0.8,0-0.5,0-0.8-0.4c-0.3-0.2-0.9-0.2-1.3-0.4
			c-0.1-0.1,0,0,0-0.1v-0.3c-0.2,0.1-0.2,0.2-0.3,0.4c-1.6-0.1-3.9-1.9-5.3-1.2c-0.3,0.2-0.9,0.7-1.1,1c-0.1,0.2,0.1,0.3,0.1,0.4
			c-0.1,0.1-0.4,0.1-0.5,0.2c-0.5,0.5-1.5,1.8-1.9,2.5c-0.3,0.6-0.4,1.4-0.4,1.9c0,0.2,0.1,0.4,0.1,0.6
			C376.5,232.1,376.8,234.2,377.6,235.5z M333.6,247.9c2.1-1.3,4.1-2.7,6.1-4.2c0.2-0.1,0.2-0.5,0.4-0.7c0,0,0.3,0.2,0.5,0.1
			c0.3-0.1,1.7-0.8,2-1c0.8,0,1.3,0,1.7,0.4c0,0.1,0.1,0.2,0.1,0.3h0.6c0,0.1,0.1,0.2,0.1,0.3c0.8,0.4,3.6,0.4,4.1,0.1
			c0.3-0.2,0.5-0.7,0.8-1c0.2-0.2,0.5-0.2,0.6-0.4c0.4-0.6,0.3-1.1,0.4-1.7c0-0.1,0.3-0.6,0.3-0.7c-0.1-0.2-0.1-0.4-0.2-0.6
			c0-0.3,0.4-1,0.5-1.3c0.2-0.6-0.4-3-0.5-3.3c-0.4-0.8-2.4-2.4-3.3-2.9c-0.5-0.3-1.7-0.4-2.3-0.5c-0.5-0.1-1.8,0.3-2.6,0.3
			c-0.9,0.9-3.6,2.6-4,3.6c-0.2,0-0.2,0-0.3-0.1c-0.3,0.2-0.3,0.5-0.5,0.7c-1.2,0.9-2.1,2-3.2,3.1c-0.4,0.3-0.9,0.6-1.2,1
			c-0.1,0.1-0.1,0.4-0.2,0.5c-0.2,0.2-0.6,0.2-0.8,0.4c0,0.1-0.1,0.3-0.1,0.4c-0.3,0.4-0.8,0.5-1.1,0.8c-0.3,0.3-0.6,0.9-1,1.2h-0.4
			c-0.1,0.1,0,0.3-0.1,0.4c-0.1,0-0.3,0.1-0.4,0.1c-0.3,0.3-0.6,1.1-1,1.5c-0.2,0.2-0.5,0.3-0.7,0.5c-0.1,0.2-0.1,0.4-0.3,0.5
			c-0.1,0-0.3,0.1-0.4,0.1c-1.1,1.3-2,2.7-3.1,4.1c-0.2,0.2-0.5,0.2-0.7,0.4c-0.2,0.1-0.2,0.4-0.4,0.6v0.7c0.2,0.3,0.5,0.5,0.7,0.8
			c0.6,0,1.8,0,2.4-0.1c0.6-0.1,0.8-0.9,1.2-1.2c0.2,0,0.4-0.1,0.6-0.1c0.7-0.3,1.2-0.9,2.3-1C330.6,249.2,332.8,248.5,333.6,247.9z
			 M339.2,237.7L339.2,237.7l0.1,0.2h-0.1V237.7z M384.6,253.1c0.1-0.3,0.2-0.5,0.3-0.8c1.3-1.9,5.5-3.5,8.1-2.9
			c0.6,0.1,1.3-0.2,1.7-0.1c0.8,0.1,3.5,1,4,1.4h0.6c0.1,0.1,0.4,0.9,0.5,1.1c0.4,0.6,1.1,1.1,1.5,1.7c0.5,0,0.9,0.1,1.4,0.1
			c0.4-0.4,1.4-1,1.2-1.7c0-1.4-1.1-2-1.8-2.9c-0.9-1.2-2.4-2.3-3.9-3c-0.4-0.2-0.7,0-0.9-0.1c-0.2-0.1-0.5-0.5-0.8-0.6
			c-1.5-0.5-3.1-0.4-4.4-0.4c-0.6,0.3-1.5,0.1-2,0.2c-0.6,0.1-1,0.5-1.5,0.7c-0.3,0-0.6,0.1-0.9,0.1c-2.9,1-6.2,4.1-7.4,6.8
			c-0.3,0.6-0.1,1.3-0.3,2c-0.2,0.7-0.8,1.4-0.2,2.4c0.2,0.4,0.8,0.6,1.1,0.9c0.7,0,1.1,0,1.5-0.3c0.3-0.2,0.7-1,0.7-1.4
			c0-0.1-0.2-0.3-0.2-0.5C382.9,255.3,384.2,253.6,384.6,253.1z M427.6,249.4c0.1-0.1,0.1-0.3,0.2-0.4c-0.1-0.9-0.6-0.9-0.7-1.7
			c-0.2,0-0.3,0-0.4-0.1c-1.9,0-1.4,0.8-2,1.6C425.2,251,426.5,250.2,427.6,249.4z M418.8,254.7l0.9-0.6c0.1-0.3,0.2-0.5,0.3-0.8
			c-0.1-0.8-0.5-1-0.8-1.5c-0.4-0.1-0.7-0.1-1.1-0.2c-0.5,0.3-0.8,0.3-1,1C416.7,253.2,417.6,255,418.8,254.7z M416.6,252.9h-0.3
			v0.3h0.3V252.9z M348.7,259.1c0,0.1,0.1,0.2,0.1,0.3c0.3,0.2,0.5,0.4,0.8,0.6v0.5c0.2,0.4,0.8,0.9,1.1,1.3
			c0.4,0.7,0.8,1.4,1.2,2.1c0.5,0.1,1.3,0.5,1.8,0.2c0.5-0.1,0.5-0.6,0.8-1c-0.1-1.6-1.5-2.9-2.2-4c-0.2-0.3-0.3-0.7-0.5-1.1
			c-0.6-0.8-1.5-1.1-2.4-1.7c-2.6-1.6-5.2-2.3-9.3-2.3c-0.4,0.4-0.9,0.4-1.5,0.7c-0.7,0.3-1.4,1.1-2,1.5c-0.6,0.4-1.2,0.4-1.8,0.7
			c-0.3,0.2-0.7,0.6-1,0.8c-0.2,0-0.3,0.1-0.5,0.1c-0.5,0.4-1.2,1.1-1.5,1.6c-0.1,0.3-0.2,0.6-0.3,0.9c-0.2,0.2-0.4,0.3-0.6,0.5
			c-0.6,0.9-0.8,1.8-1.3,2.9c-0.1,0.3-0.6,0.7-0.7,1c-0.3,0.8,0.3,1-0.5,1.3v0.3c0.3,0,0.3-0.1,0.5,0c0.1,0.1,0.4,0.7,0.8,0.9
			c0.4,0.2,0.7,0.1,1,0.4c1.2-0.1,1.1-1.4,2-1.6c0-1.3,0.9-2,0.4-3.1c0.5-0.5,0.9-1,1.4-1.5c0.2-0.2,0.5-0.2,0.6-0.4
			c0.4-0.6,0.9-1.3,1.6-1.7c0.8-0.4,1.8-0.2,2.8-0.6c0.9-0.3,2.1-0.9,3.1-1.2C344.2,257,347.6,258.3,348.7,259.1z M437.8,257.7
			c0.5-0.1,0.3-0.1,0.9-0.1v-0.3c0.2,0.1,0.2,0.2,0.6,0.2c0.1-1.6,0.2-2-1-2.7c-0.3-0.2-0.4-0.4-0.7-0.4c-0.6,0-0.6,0.1-0.9,0.4
			c-0.2,0.1-0.2,0-0.5,0c0,0.3,0.1,1.1,0.3,1.4C436.6,257.3,437.3,257.2,437.8,257.7z M439,257.6v0.3c0.1,0,0.2-0.1,0.3-0.1
			C439.1,257.6,439.3,257.7,439,257.6z M316.9,263c-0.8,0.1-1.1,0.5-1.9,0.6c0.1,0.9,0.2,1.7,0.7,2.4c0.4,0.1,0.9,0.1,1.5,0.1
			c0.2-0.2,0.5-0.4,0.8-0.6c0-0.4,0-0.5,0.2-0.7C318.1,263.8,317.4,263.6,316.9,263z M428.6,265.3c-0.1,0.1-0.1,0.2-0.1,0.4
			c0.4,0,0.4-0.1,0.7-0.2c0.2,0.4,0.3,0.6,0.5,0.9c0.4,0.2,0.9,0.2,1.6,0.2c0.3-0.3,0.7-0.6,1-0.9c0-0.5-0.2-1.3-0.5-1.7
			c-0.3-0.3-0.8-0.2-1.1-0.6h-0.1c0.1-0.1,0.1-0.1,0.3-0.1V263c-0.4,0-0.5,0.3-0.6,0.2c-0.5,0.3,0,0.3-0.1,0.6h-0.1
			c-0.2,0.3-0.5,0.7-0.8,1.1v0.2c-0.3-0.2-0.1-0.1-0.1-0.4c-0.1,0-0.2-0.1-0.3-0.1c-0.2,0.3-0.2,0.4-0.7,0.4
			C428.3,265.3,428.2,265.2,428.6,265.3z M419.1,263.5c-0.2,0.2-0.9,0.9-1.1,1c0.2,1.3,0.4,1.1,1.1,2.1c0.3-0.1,0.8-0.2,1-0.4
			c0.5-0.2,0.5-0.6,0.8-0.9c0-0.5,0-0.8-0.2-1.1C420.5,263.7,419.8,263.4,419.1,263.5z M363.2,273.2c0.1,0.1,0.1,0.1,0.1,0.3
			c0.4,0,0.7,0.1,1.1,0.1c0.3-0.3,0.8-0.5,1.1-0.9c0.1-0.3,0.1-0.5,0.2-0.8c0.3-0.5,1-0.9,1.5-1.4c0.1-0.1,0.1-0.3,0.2-0.4
			c1-0.7,5.1-1.1,6.2-0.6c0.5,0.2,1.1,0.9,1.5,1.3c0.1,0.1,0.1,0.1,0.1,0.3c0.5,0.1,1,0.7,1.5,0.4c0.9,0,1-0.5,1.5-1
			c0-0.9-0.2-1.8-0.5-2.5c-0.6-0.2-0.9-0.3-1.5-0.1c-0.3-0.3-0.5-0.9-1.1-1c0.1-0.1,0.1-0.2,0.1-0.4c0,0-0.1-0.1-0.1-0.1h-0.4
			c0.1,0.2,0,0.1,0.1,0.2v0.2c-1.2,0-2.4-0.5-3.5-0.3c-0.2,0-0.7,0.3-0.9,0.3c-0.9,0.1-2.2-0.5-3.1,0.1c-0.2,0.1-0.2,0.5-0.4,0.6
			c-0.8,0.6-1.4,1.2-2.2,1.8c-0.6,0.4-2.6,1.8-2.2,2.8C362.6,272.9,362.8,272.8,363.2,273.2z M309.5,269.1c-0.8-0.8-0.9-1.5-2.6-1.5
			c-1,1.6,0,2.3,0.9,3.2c0.7,0,1-0.2,1.5-0.5C309.5,270,309.5,269.6,309.5,269.1z M321.1,270.7c-0.2-0.2-0.5-0.3-0.9-0.3
			c-0.3,0.2-0.5,0.1-0.7,0.5c-0.2,0.3-0.3,1.2-0.1,1.5c0.1,0.7,0.4,0.7,0.8,1c0.6,0,1-0.1,1.5-0.2v-0.1c0.1-0.2,0.2-0.5,0.3-0.7
			C322,271.5,321.6,271,321.1,270.7z M389,317.1c2.4-1.4,4.4-3.4,6-5.5c0.2-0.2,0.5-0.3,0.7-0.5c-0.1-0.1,0.8-1.7,1-2.1
			c0.5-0.8,1.6-1.4,1.9-2.3h0.3c0.1-0.8,0.6-1,0.9-1.5v-0.5l0.4-0.4c0.2-0.3,0.1-0.6,0.3-1c0.1-0.2,0.5-0.5,0.6-0.7V302
			c0.4-1.1,1.2-2.5,1.7-3.6c0.4-0.8,0.4-2.1,0.6-2.8c0.1-0.3,0.4-0.8,0.5-1.2c0-0.2-0.1-0.3-0.1-0.5c0.1-0.3,0.5-0.9,0.6-1.2
			c0.1-0.8,0.1-1.5,0.2-2.3c0-0.1,0-0.6,0.1-0.9l0.3-0.3c0-0.3-0.1-0.5-0.1-0.8c0.2-0.8,0.2-1.5,0.2-2.2c0-1.1,0.4-1.9,0.2-3.1V280
			h0.2v-0.2c0-0.2-0.4-0.4-0.5-0.6c-0.1-0.2,0.1-0.5,0.1-0.6l-0.2-0.3c0-0.4-0.1-0.8-0.1-1.2c-0.1-0.2-0.4-0.8-0.5-1.1v-0.6
			c-1.2-2.2-2.5-4.2-5.1-5c-0.8,0-1.6,0.1-2.4,0.1c-0.6-0.1-1.3,0.3-1.8,0.5c-0.8,0.3-1.6,0.1-2.1,0.6c-0.2-0.1-0.5-0.5-0.6-0.7
			c-1.4,0-2,0.7-3.1,1c-0.1,0-0.5-0.1-0.8,0c-0.4,0.1-1.2,0.4-1.8,0.6c-0.5,0-1.1,0.1-1.6,0.1c-1.5,0.5-3,1.4-4.4,2
			c-0.5,0.1-1,0.1-1.5,0.2c-0.3,0.1-0.8,0.4-1.2,0.5c-0.3,0-0.5-0.1-0.9,0.1c-0.1,0.1-0.1,0.2-0.2,0.3h-1.4
			c-2.2,0.6-4.5,1.6-6.5,2.4c-0.7,0.3-1.4,0-2.2,0.3c-0.3,0.1-0.6,0.4-0.9,0.5c-0.3,0-0.5,0.1-0.8,0.1c-1.2,0.5-2.4,1.3-3.5,1.9
			c-1.7,0.9-3.5,1.3-5,2.4c-0.8,0.6-1.7,1.3-2.5,1.9c-0.2,0.1-0.5,0.1-0.7,0.3c-0.1,0.1-0.1,0.3-0.2,0.4c-1.6,1-3.1,1.9-4.6,2.9
			c-0.3,0.2-0.7,0.2-1,0.4c-0.1,0.2-0.3,0.3-0.4,0.5c-0.4,0.3-0.7,0.3-1.1,0.6c-0.2,0.2-0.3,0.5-0.5,0.7c-1.1,0.8-2.1,1.2-3,2.4
			c-0.3,0.3-0.9,1-1,1.3c-0.2,0.4,0.1,0.6,0,0.9c-0.1,0.1-0.3,0.1-0.4,0.2c0.2,1,0.7,2.8,1.3,3.8c0.4,0.7,1.2,1.2,1.6,1.9
			c0.1,0.2,0.1,0.5,0.2,0.7c0.3,0.4,1.1,0.9,1.4,1.2v0.4c0.3,0.5,2.3,1.4,2.1,2c0.3,0.2,1,0.4,1.3,0.6c0.7,0.6,1.3,1.3,2.1,1.8v0.3
			h0.5v0.3c1.1,0.2,3.3,2.4,4.3,3.1c0.2,0.1,0.4,0.1,0.6,0.2c0.8,0.6,1.7,1.5,2.7,1.9c0.6,0.3,1.1,0.2,1.6,0.5l0.6,0.6
			c0.5,0.3,1.1,0.3,1.7,0.6c0.2,0.1,0.4,0.4,0.6,0.5c4.8,1.8,10.7,3.5,15.6,3.5c1.3,0,3.1-0.2,4.3-0.5c0.2-0.1,0.3,0.1,0.4,0.1
			c0.9-0.2,2.2-0.4,3.1-0.8c0.2-0.1,0.3-0.4,0.4-0.5c0.2,0,0.3,0.1,0.5,0.1c0.1,0,0.4-0.3,0.5-0.4
			C388.6,317.1,388.8,317.1,389,317.1z M387,307.2c-0.4,0.2-0.8,0.2-1.2,0.4l-0.6,0.6c-0.4,0.2-0.7,0-1.1,0.2
			c-0.1,0.1-0.1,0.2-0.2,0.3c-0.2,0-0.3-0.1-0.5-0.1c-0.5,0.1-0.9,0.5-1.4,0.7c-1.6,0.5-3,0-4.4-0.3c-0.5-0.1-0.9,0.1-1.2,0
			c-2-0.5-3.7-1.2-5.1-2.1c-0.3,0-0.7-0.1-1-0.1c-0.8-0.4-2.9-1.5-3.8-1.4c-0.2-0.1-0.4-0.5-0.7-0.6c-0.4-0.1-0.7-0.1-1.1-0.2
			c-0.3-0.1-0.6-0.6-0.9-0.7h-0.5c-0.5-0.2-1.2-0.8-1.8-1h-0.6c0-0.1-0.1-0.2-0.1-0.3c-0.5-0.4-2.4-1.6-2.7-2.1
			c0-0.2-0.1-0.4-0.1-0.6c-0.1-0.2-0.4-0.1-0.6-0.2c-0.6-0.3-0.6-1-1.4-1.2c-0.1-0.6-0.5-1.2-0.4-1.8c0.3-1.4,1.5-2.6,2.6-3.3
			c0.3,0.2,0.9-0.1,1.2-0.3c0.7-0.4,1.4-1.1,2.2-1.5c1.7-0.7,3.3-1,5.1-1.7c1.7-0.6,3.1-1.8,4.7-2.5c0.4-0.1,0.6,0,1-0.2
			c0.1,0,0.5-0.4,0.6-0.4c0.2,0,0.5,0.1,0.7,0.1c0.4-0.1,0.9-0.5,1.3-0.7c0.5-0.2,1-0.1,1.5-0.3c0.3-0.1,0.6-0.5,0.9-0.6
			c0.4-0.2,0.8,0,1.3-0.2c0.7-0.3,1.4-0.9,2-1.3c0.7-0.4,1.3-0.4,2-0.8c0.5-0.2,1.1-0.7,1.6-0.9c0.5-0.2,0.9,0,1.5-0.2
			c2-0.8,5.2-1.2,6.8-2.4c0.8,0,3.5,0.6,4,0.9c0.5,0.4,0.3,0.9,0.8,1.2c0.2,4.7-0.7,8.9-2.6,12c-0.3,0.4-0.5,1.1-0.6,1.5v0.5
			c-0.1,0.1-0.3,0.1-0.4,0.2c-0.3,0.4-0.2,0.9-0.5,1.4c-0.1,0.1-0.3,0.1-0.4,0.2l-0.3,0.9c-0.1,0.2-0.5,0.5-0.6,0.7
			c-0.1,0.3-0.1,0.6-0.2,0.9c-0.2,0.3-0.7,0.6-0.8,1c-0.1,0.3,0.2,0.6,0,1c-0.2,0.1-0.3,0.2-0.5,0.3c-0.2,0.3-0.3,0.6-0.5,1
			c-0.1,0.1-0.3,0.1-0.4,0.2v0.5C389.7,304.3,387.3,307,387,307.2z M388.1,314.9L388.1,314.9L388.1,314.9
			C388.2,314.9,388.1,314.8,388.1,314.9L388.1,314.9L388.1,314.9z M451.1,279.7L451.1,279.7c0-0.3-0.1-0.4-0.3-0.6h-0.3
			C450.7,279.4,450.9,279.5,451.1,279.7z M314.8,279.6c-0.5,0.2-0.5,0.7-0.9,1.1c0,0.6,0.2,0.6,0.3,1c1,0.2,1.1,0.4,2.2,0.3
			c0.1-0.4,0.2-0.7,0.5-0.9c-0.1-0.6-0.3-0.7-0.4-1.2C316,279.8,315.3,279.2,314.8,279.6z M331.5,283.3c-0.5,0-1-0.1-1.5-0.1
			c-0.2,0.3-0.4,0.6-0.6,0.9c0,0.8,0.3,0.9,0.5,1.4c0.2,0.1,0.3,0.1,0.4,0.2c1.8,0,1.1-1,2.1-1.4
			C332.2,283.7,331.7,283.9,331.5,283.3z M309.7,288c-0.2,0.2-0.3,0.7-0.1,1c0,0.6,0.2,0.7,0.4,1.1c0.4,0.1,0.6,0.2,1,0.1
			c0.1,0.1,0.1,0.2,0.1,0.4h0.3c0.2-0.5,0.4-0.8,0.6-1.2c0.2-0.1,0.2,0,0.4-0.1h0.1c-0.2-0.6-0.5-0.9-0.9-1.5
			C311.1,287.7,310.2,287.7,309.7,288z M382.9,325.3c-1.2,1.3-4.7,2.3-6.9,1.9c-1.3-0.2-2.6,0-3.4-0.8c-0.7,0.1-0.8,0.3-1.2,0.6
			c0.1,1.6,2.2,1.9,3.8,2.1c2.4,0.3,6.8-0.3,8.5-1.4c0.3-0.2,0.4-0.6,0.6-0.9c0-0.3,0-0.5-0.1-0.7
			C384,325.6,383.4,325.3,382.9,325.3z"/>
	</g>
</g>
</svg>
