<?xml version="1.0" encoding="utf-8"?>
<!-- Generator: Adobe Illustrator 21.0.0, SVG Export Plug-In . SVG Version: 6.00 Build 0)  -->
<svg version="1.1" id="Calque_1" xmlns="http://www.w3.org/2000/svg" xmlns:xlink="http://www.w3.org/1999/xlink" x="0px" y="0px"
	 viewBox="0 0 841 595" style="enable-background:new 0 0 841 595;" xml:space="preserve">
<style type="text/css">
	.st0{fill:#DADADA;}
	.st1{fill:#1D1D1B;}
	.st2{fill:none;stroke:#FFFFFF;stroke-miterlimit:10;}
	.st3{fill:#FFFFFF;}
</style>
<circle class="st0" cx="425.4" cy="243" r="60.2"/>
<g>
	<g>
		<path class="st1" d="M516,410.6c-0.1-0.1-0.1,0-0.2-0.2c-0.6-0.1-1.2-0.5-1.7-0.6c-0.4-0.1-0.7-0.1-1-0.3
			c-0.2-0.1-0.5-0.3-0.8-0.4c-0.5-0.2-1.1-0.2-1.6-0.5v-0.1c-0.2-0.1-0.5,0-0.6-0.1c-0.3-0.2-0.8-0.5-1.2-0.7
			c-0.3-0.2-0.6-0.1-0.9-0.3c-0.1,0-0.3-0.2-0.4-0.3c-0.2,0-0.3-0.1-0.5-0.1c-0.5-0.3-1.1-0.7-1.6-0.9c-0.2-0.1-0.3,0-0.5-0.1
			c-0.1-0.1-0.3-0.3-0.4-0.3c-0.3-0.1-0.6-0.1-0.9-0.2c-1.2-0.5-2-1-3.2-1.5c-0.2,0-0.4-0.1-0.6-0.1c-0.7-0.4-1.5-0.7-2.3-1
			c-0.4-0.2-0.8-0.3-1.2-0.5c-0.2,0-0.4-0.1-0.5-0.1c0,0-0.3-0.3-0.3-0.3c-0.1-0.1-0.2,0.1-0.2,0.1c-0.1,0-0.2-0.2-0.3-0.2
			c-0.1,0-0.2,0.1-0.3,0.1c-0.3-0.1-0.6-0.4-0.9-0.5c-0.1,0-0.3,0-0.4-0.1c-0.6-0.4-1.4-0.6-2.1-0.9c-0.2-0.1-0.5,0-0.7-0.1
			c-0.6-0.3-1.3-0.4-2.1-0.7c-0.5-0.2-1-0.5-1.5-0.6h-0.4c-0.2-0.1-0.3-0.2-0.4-0.2c-0.2,0-0.4,0-0.6-0.1c-2.9-1-5.9-2.2-8.6-3.4
			c-0.4-0.2-0.5,0-0.9-0.2c0,0-0.1-0.1-0.1-0.2c-0.4-0.3-0.9-0.1-1.5-0.4c-0.2-0.1-0.6-0.3-0.9-0.4c-0.3-0.1-0.6,0-0.9-0.2
			c-0.8-0.4-1.9-0.8-2.7-1.2c-0.1,0-0.2,0-0.3-0.1l-0.2-0.2h-0.3c0-0.1,0-0.1-0.1-0.2c-0.1,0-0.3-0.1-0.3-0.2
			c-0.3-0.1-0.6-0.1-1-0.2c-0.4-0.2-0.9-0.5-1.3-0.6c-0.1-0.1-0.3,0-0.3,0c-0.2-0.1-0.6-0.3-0.9-0.4h-0.3c-0.6-0.2-1.2-0.4-1.8-0.8
			c0-0.2-0.1-0.4-0.1-0.6c-0.1-0.2-0.5-0.4-0.5-0.6c0-0.2,0.2-1.1,0.2-1.4v-1.8c0.2-0.9,0.4-3.3,0.2-4.2c-0.2-1.1,0.3-2.1,0.1-3.2
			c-0.1-0.5,0.1-0.9,0-1.4c-0.1-0.5-0.1-1.4,0-1.8c0-0.2,0-0.4-0.1-0.5c-0.1-0.5,0.1-0.8,0.1-1.2c0-0.1-0.1-0.3-0.1-0.4
			c0.1-0.5,0.1-1,0.1-1.4c0-0.2,0-0.3,0.1-0.4c0-0.3-0.1-0.8-0.1-1.1c0-0.2,0.1-0.5,0.1-0.8c-0.1-0.5,0-1.2-0.1-1.7
			c-0.3-1.9-0.2-4.6-0.2-6.4c0-0.3,0-0.7-0.1-1c0-0.2,0.1-0.3,0.1-0.4c0-0.1-0.1-0.5-0.1-0.6c0.1-0.4,0.4-0.7,0.6-1
			c0-0.2,0.1-0.4,0.1-0.5c0.1,0,0.1-0.1,0.2-0.1c0.1-0.2,0-0.4,0.2-0.6c0.1-0.2,0.4-0.4,0.5-0.6c0-0.1,0-0.2,0.1-0.3
			c0.1-0.1,0.3-0.2,0.4-0.4c0.2-0.3,0.2-0.6,0.3-1c0.1-0.3,0.4-0.6,0.5-0.9c0.1-0.2,0.2-0.6,0.3-0.8c0-0.1-0.1-0.2-0.1-0.2
			c0.2-0.5,0.4-1.1,0.6-1.6c0.2-0.4,0-0.9,0.2-1.3c1.1-2.9,0.3-6.1-1.1-8.7v-0.3c-0.4-0.9-1.3-1.6-1.8-2.4h-0.2
			c-0.1-0.2-0.2-0.3-0.3-0.5h-0.2c-0.1-0.3-0.4-0.4-0.6-0.5h-0.1c0,0,0-0.1,0.1-0.1c-0.8-0.3-1.3-1-2-1.4c-0.2-0.1-0.6-0.1-0.8-0.3
			c-0.1-0.1-0.2-0.3-0.3-0.3h-0.3c-0.1-0.1-0.1-0.3-0.3-0.3c-1-0.4-2-0.9-2.8-1.2c-0.2,0-0.4,0-0.6-0.1c-1.1-0.4-2.7-0.7-3.6-1
			c-0.3-0.1-0.8,0-1-0.1c-0.5-0.1-1.1-0.4-1.6-0.5c-0.4-0.2-1.1,0-1.5-0.2c-0.5-0.2-1.2-0.4-1.7-0.5c-0.3,0-0.6,0-0.9-0.1
			c-0.7-0.2-1.3-0.3-2-0.5H443c-0.6-0.2-0.8-0.3-1.5-0.3c0-0.9-0.5-1.6-0.8-2.3v-0.4c-0.1-0.4-0.3-0.9-0.4-1.3
			c-0.2-0.4,0.1-1.2,0-1.6c-0.1-0.4,0.1-0.7-0.1-1.1c-0.1-0.3-0.2-0.9-0.3-1.4c-0.1-0.3,0-1,0.2-1.3c-0.1-0.2,0.1-0.7,0.1-1
			c-0.1-0.3-0.1-0.9,0.1-1.3c0-0.1-0.1-0.2-0.1-0.4c0-0.1,0.2-0.2,0.3-0.3c0.1-0.7-0.1-1.8,0.1-2.6c0-0.2-0.1-0.5-0.1-0.6
			c0.2-1.2,0.3-2.4,0.4-3.4c0-0.2-0.1-0.5-0.1-0.8c0.1-0.1,0.1-0.1,0.2-0.2c0,0,0,0,0.1-0.1c-0.1,0-0.1,0-0.2-0.1
			c0-0.4,0.1-0.7-0.2-0.9c0.2-0.1,0.1-0.5,0.2-0.7c0.1-0.4,0-1.1,0.1-1.5c0.2-1-0.3-2,0.3-2.4c0-0.1,0-0.1-0.1-0.2
			c-0.1,0,0,0-0.2-0.1c0.2-1.3,0.5-2.4,0.3-3.8c-0.1-0.6,0-0.9-0.1-1.4v-0.5c-0.1-0.2-0.3-0.5-0.4-0.7c-0.1-0.3-0.1-0.6-0.2-0.9
			c-0.1-0.1-0.2-0.1-0.3-0.2c-0.2-0.4-0.6-1.3-1.2-1.5v-0.2H439v-0.2c-0.2-0.1-0.5-0.4-0.6-0.6c-0.5,0-0.8-0.2-1.2-0.2
			c-0.1-0.2,0-0.9-0.1-1.1c-0.2-0.5-0.8-0.8-1.1-1.2c-0.1-0.1-0.1-0.3-0.3-0.4c-0.2-0.1-0.6-0.3-0.7-0.4c-0.2,0-0.4,0-0.5,0.1
			c-0.3-0.1-0.6-0.4-0.8-0.5c-0.1,0-0.3,0-0.4-0.1c0,0-0.1-0.2-0.1-0.2h-0.3c-0.3-0.1-0.7-0.3-1-0.2c-0.4-0.4-0.6-0.2-1.1-0.3
			c-1-0.3-2.2-0.5-3.1-0.5c-0.2,0-0.3-0.1-0.4-0.2c-0.4-0.1-1.4-0.1-1.9,0c-0.4,0.1-1,0-1.3-0.1c-0.4,0-0.9,0.1-1.3,0.1
			c-0.6-0.1-1.4,0-2,0.2h-0.5c-0.1,0-0.3,0.2-0.4,0.2c-0.2,0-0.5-0.1-0.8-0.1c-0.3,0.1-0.6,0.3-1.1,0.2c-0.1,0.1-0.1,0.2-0.2,0.3
			h-0.3v0.1c-0.1,0.1-0.3,0.1-0.4,0.1c-0.2,0-0.4,0-0.5,0.1l-0.2,0.2c-0.4,0.2-0.8,0.2-1.2,0.4c-0.1,0-0.3,0.2-0.4,0.3
			c-0.1,0-0.3-0.1-0.5,0c-0.3,0.1-0.7,0.4-1,0.6c-0.2,0.1-0.3,0-0.5,0.2c-0.1,0.1-0.3,0.3-0.4,0.4c-0.2,0.1-0.4,0.1-0.6,0.2
			c-0.4,0.2-0.7,0.7-1.1,0.9c-0.1,0.1-0.2,0-0.4,0.1c-0.2,0.1-0.5,0.4-0.7,0.5c0,0.1,0,0.1-0.1,0.2h-0.2c-0.2,0.1-0.5,0.6-0.6,0.8
			c0,0.1-0.1,0.2-0.1,0.3c-0.6,0.7-1.4,1.9-1.6,2.9c0,0.3,0.1,0.8,0.1,1.2v1.1c0.1,0.6,0.4,1.4,0.6,2c0,0.2,0,0.4,0.1,0.5
			c0,0.1,0.3,0.1,0.3,0.2c0,0.1,0,0.2,0.1,0.3c0.1,0.1,0.2,0.2,0.3,0.3v0.3c0.1,0.2,0.4,0.3,0.5,0.5c0.2,0.5-0.2,1.9-0.4,2.4
			c-0.3,1.2,0.4,2.7,1.2,3.2c0,0,0.2,0.1,0.3,0c0.1,0,0.1,0,0.2-0.1c0-0.1,0.1-0.2,0-0.3c-0.1-0.7-0.7-1.1-0.9-1.8
			c0-0.1,0.1-0.3,0.1-0.4c0-0.2,0-0.5,0-0.7c0.1-0.4,0.2-0.8,0.2-1.3c0.5,0,0.5,0.3,1,0.3c0.1,0.4,0.7,0.4,1.1,0.5
			c0.1,0,0,0.1,0.2,0.1c0.1,0,0.1-0.1,0.3-0.1c0.1,0,0.3,0.2,0.4,0.2c0.1,0,0.2,0,0.3-0.1c0.9,0.3,1.9,0.7,2.8,0.1v-0.2h-0.2
			c0.3-0.2,1.2,0,1.8,0c0.7,0,1.3-0.1,1.9-0.3c0.2,0,0.3,0.1,0.6,0c0.6-0.2,1.3-0.5,1.9-0.6c0.1,0,0.4,0.1,0.5,0.1
			c0.1-0.1,0.1-0.1,0.2-0.2c0.2,0,0.4,0,0.6-0.1c0.3-0.1,0.8-0.3,1.1-0.4c0.1,0,0.3,0.1,0.5,0c0.2-0.1,0.6-0.2,0.8-0.3h0.3
			c0.2-0.1,0.3-0.3,0.4-0.3c0.1,0,0.1,0.2,0.2,0.1c0-0.1,0.1-0.1,0.1-0.2h0.8c0.4-0.1,1-0.5,1.5-0.6c0.4,1,0.3,2.2,0.5,3.3
			c0.4,1.6,0.4,3.4,0.8,4.9c0.1,0.7,0,1.6,0.1,2.3v0.9c0.3,1.3,0,2.2,0.8,3.4c0.2,0,0.3,0.1,0.5,0.1c0.1-0.2,0.3-0.2,0.4-0.3
			c0.7,0,1.2,0.5,1.5,0.2c0.1-0.1,0.2-0.1,0.2-0.3c0.2-0.3-0.1-0.5-0.1-0.7c0.3-0.6,0-1.4-0.1-1.9c-0.1-0.3,0-0.6-0.1-0.8v-0.1
			l0.2,0.2c0.8-0.1,0.8-0.8,1.2-1.3c0.1-0.1,0.2,0,0.2-0.3c0.5,0,0.3-0.4,0.5-0.7c0,0,0.2,0,0.2-0.1c0.6-0.9,0.7-2.3,0.7-3.4
			c0.3,0.4,0.6,1,0.9,1.5c-0.1,0.2,0.1,1.1,0.2,1.5c0,0.2,0.2,0.6,0.2,0.8c0,0.4-0.1,1,0,1.5c0.1,0.5,0,1.6,0.1,2.1
			c0.1,0.2,0.3,0.4,0.3,0.6c0.1,0.3-0.1,0.8-0.1,1.1c0.1,0.8,0.1,1.8,0.1,2.4c0,0.6,0.2,1.3,0.2,1.9c0,0.1-0.2,0.2-0.2,0.2v0.6
			c-0.1,0.6-0.1,1.8,0,2.4v1c0.2,0.5,0.4,1.2,0.5,1.7v0.4c0.1,0.2,0.3,0.4,0.4,0.5c0.2,0.3,0.2,0.5,0.3,0.8c0.1,0.2,0.3,1.2,0.1,1.4
			c0,0.3,0.2,0.5,0.4,0.6c0,0.3-0.2,0.9-0.4,1.2c-0.1,0.1-0.3,0.1-0.4,0.3c-0.1,0.2-0.1,0.4-0.3,0.6c-0.2,0.2-0.6,0.3-0.7,0.5v0.2
			c-0.2,0.3-0.6,0.5-0.9,0.8c-0.1,0.2-0.3,0.3-0.4,0.5c-0.6,0.4-1.2,0.7-1.9,1.1c-0.1,0.1-0.3,0.3-0.4,0.3c-0.5,0.2-1,0.3-1.5,0.5
			c-0.5,0.2-1.1,0.6-1.6,0.8c-0.2,0-0.5,0-0.7,0.1c-0.2,0.1-0.5,0.3-0.8,0.3c-0.1,0-0.3-0.1-0.4-0.1c-0.2,0-0.6,0.2-0.8,0.3
			c-0.1,0-0.1,0-0.2-0.1c-0.5,0.1-1.2,0.4-1.7,0.6c-0.3,0-0.7,0.1-1,0.1c-0.3,0.1-0.8,0.3-1,0.2c-0.2,0.1-0.5,0.3-0.7,0.3
			c-0.1,0-0.2,0-0.3-0.1c-0.7,0.1-2,0.5-2.5,0.3c-0.2,0-0.4,0-0.5,0.1c-0.6,0-1-0.1-1.2-0.2c-0.1,0-0.3,0-0.4,0.1
			c-1-0.3-2.1-1.4-2.6-2.3c-0.1-0.1-0.2-0.2-0.3-0.3c0-0.3-0.1-0.6-0.1-0.9c0.2-0.7,0.9-1.3,1.6-1.6c0-0.2,0-0.4-0.1-0.5
			c-0.1-0.2-0.1-0.2-0.3-0.3c-0.6,0.1-0.7,0.5-1.1,0.7c-0.4,0.2-0.7,0.4-0.9,0.8c0,0.1,0,0.1,0.1,0.2c-0.1,0-0.1,0.1-0.2,0.1
			c-0.1,0.2-0.2,1.1-0.1,1.2h0.1c0.1,0.2-0.2,0.3,0,0.6c0.1,0.2,0.4,0.4,0.5,0.6v0.2c0.1,0.1,0.3,0.1,0.4,0.2
			c0.5,0.6,0.8,1.2,1.5,1.6c0.1,0,0.3,0,0.4,0.1c0.1,0.1,0.2,0.3,0.3,0.4h0.3c0,0.1,0,0.1,0.1,0.2h0.6c0.7,0.2,1.5,0.2,2.1,0.1
			c0.2,0,0.6,0.2,0.8,0.1l0.2-0.2c0.1,0,0.2,0,0.3,0.1c0,0,0.2-0.1,0.2-0.1c0.4,0.1,1.4-0.2,1.9-0.4c0.6,0.1,2.4-0.5,3-0.6
			c0.6-0.2,1.2-0.2,1.7-0.4c0.3-0.1,0.4,0.1,0.6,0c0.7-0.2,1.5-0.4,2.1-0.6c0.3-0.1,0.5-0.3,0.7-0.4c0.2-0.1,0.5,0,0.7-0.2
			c0.8-0.4,1.7-0.8,2.5-1.3c0.4-0.2,0.7-0.6,1.2-0.9v-0.2c0.6-0.1,0.8-0.6,1.2-0.9c0.7-0.6,1.4-1.3,1.9-2.1c0-0.1,0-0.3,0.1-0.4
			c0.1-0.2,0.5-0.4,0.6-0.6c0,0,0-0.3,0.1-0.4c0.8,0.2,1.4,0.4,2,0.5h0.6c0.6,0.2,1.1,0.3,1.6,0.4c0.2,0,0.4,0.1,0.6,0.1
			c0.1,0.1,0.2,0.2,0.3,0.3c0.1,0,0.1,0,0.2-0.1c0.2,0,0.5,0.2,0.8,0.3h0.4c0.7,0.2,1.3,0.5,1.9,0.9c0.1,0,0.5,0.2,0.5,0.2
			c0.1,0,0.2,0,0.3-0.1c0.8,0.2,1.6,0.7,2.2,1c0.3,0.2,0.7,0.4,1.1,0.5c0.1,0,0.3-0.1,0.5,0c0.7,0.3,1.4,0.7,2.1,1
			c0.2,0,0.4,0,0.5,0.1c0.2,0.1,0.6,0.3,0.8,0.4c0.1,0,0.3,0,0.4,0.1c0.3,0.1,0.5,0.4,0.8,0.6c0.1,0,0.2,0,0.3,0.1
			c0.1,0.1,0.1,0.1,0.2,0.2c0.3,0.2,0.5,0.2,0.8,0.4c0.1,0.1,0.2,0.2,0.3,0.3c0.2,0.1,0.4,0.1,0.5,0.2c0.2,0.2,0.3,0.5,0.6,0.7
			c0.4,0.3,1,0.6,1.2,1.1c0.2,0.3,0.2,0.5,0.3,0.9c0.1,0.2,0.4,0.4,0.5,0.6c0.1,0.2,0.1,0.5,0.3,0.7c0.2,0.3,0.5,0.7,0.6,1
			c0.1,0.2,0,0.3,0,0.4c0.1,1.1,0.1,1.9-0.2,3.1c-0.1,0.3-0.1,0.9-0.2,1.4c-0.2,0.5-0.4,1.1-0.5,1.6c-0.1,0.4,0,0.6-0.1,0.9
			c-0.1,0.2-0.3,0.4-0.4,0.6c-0.1,0.4-0.1,0.8-0.3,1.1c-0.1,0.1-0.3,0.1-0.3,0.2c-0.1,0.2,0,0.6-0.2,0.8c-0.1,0.1-0.3,0.3-0.3,0.4
			c-0.1,0.3-0.1,0.6-0.2,0.9c-0.1,0.1-0.1,0.1-0.2,0.2c-0.1,0.2,0,0.3-0.1,0.4c-0.2,0.3-0.5,0.7-0.7,1c-0.2,0.3-0.2,0.5-0.3,0.8
			c-0.3,0.5-0.8,1-1.1,1.6c-0.2,0.3-0.2,0.7-0.4,1c-0.4,0.7-1.1,1.3-1.5,1.9c-0.8,1.3-1.5,2.7-2.4,3.9c-0.1,0.2-0.1,0.3-0.2,0.5
			c-0.1,0.2-0.4,0.5-0.6,0.8l-0.2,0.5c-0.1,0.1-0.3,0.3-0.4,0.4c-0.2,0.2-0.2,0.5-0.4,0.8c-0.1,0.2-0.4,0.4-0.5,0.6
			c-0.6,1.1-1.2,2.1-1.9,3.1c-0.5,0.7-1.1,1.4-1.7,2.1c-0.1,0.1,0,0.3-0.1,0.4c-0.2,0.3-0.5,0.6-0.7,0.9c0,0.1,0,0.2-0.1,0.3
			c0,0.1-0.2,0.3-0.3,0.4h-0.1c0,0.1,0,0.2-0.1,0.3c-0.4,0.5-1.2,1.3-1.4,1.9c0,0.1,0,0.1-0.1,0.2c-0.5,0.1-0.7,0.8-1,1.1
			c-0.2,0.2-0.6,0.4-0.8,0.6c-0.1,0.1-0.1,0.3-0.2,0.4h-0.2c-0.1,0-0.5,0.6-0.6,0.6c-0.2,0.2-0.4,0.8-0.6,1
			c-0.1,0.1-1.2,0.4-1.3,0.5c-1,0.3-2.1,0.4-3.1,0.8h-0.8l-0.2,0.2c-0.1,0-2.1,0.1-2.4,0.2c-0.5,0.2-1.2,0.4-1.8,0.5h-0.6
			c-1.3,0.3-3,0.5-4.2,0.8c-0.7,0-1.3,0.1-2,0.1c-0.8,0.3-2.4,0.5-3.4,0.5c-0.2,0-0.5,0.2-0.7,0.2c-0.6,0-1.7-0.1-2.3,0.1
			c-0.6,0.2-1.2,0.3-1.8,0.2c-0.1,0-0.5-0.1-0.7-0.1c-0.1,0-0.3,0.2-0.3,0.2c-0.4,0-0.7-0.2-1.2-0.1c-0.5,0-0.9,0-1.4-0.1
			c-0.1,0-0.7,0.2-0.8,0.2c0,0,0-0.1-0.1-0.1c-0.2-0.1-1.1,0-1.2,0c-0.8,0.1-1.9,0.1-2.6,0.2c-0.2,0-0.7-0.2-0.9-0.2
			c-0.8,0.1-2.2,0.2-3.3-0.1c-0.5-0.1-1.1,0.2-1.6,0.1c0,0,0-0.1-0.1-0.1h-0.4c0,0,0-0.1-0.1-0.1c-0.3-0.1-0.9,0.1-1.1,0.1
			c-0.1,0-0.1-0.1-0.4-0.2v-0.2c0.3,0,0.3-0.2,0.6-0.2c0-0.6,0.4-0.7,0.5-1.1c0.2-0.4,0.5-1.1,0.6-1.6c0-0.2,0-0.5,0.1-0.8
			c0.3-0.8,0.1-1.8,0-2.7c-0.1-0.4,0-1.1-0.1-1.6c-0.1-0.4-0.3-0.9-0.4-1.2h-0.2c0-0.3-0.2-0.5-0.2-0.7c0-0.2,0.1-0.4,0.3-0.4
			c0.1-0.1,1.7-0.4,1.8-0.4c0.3,0.1,1.2-0.5,1.6-0.6c0.2-0.1,0.2,0,0.3,0c0.1,0,0.2-0.2,0.3-0.3c0.2,0,0.3,0,0.5-0.1
			c0.4-0.2,0.9-0.5,1.4-0.6h0.4c0.3-0.1,0.5-0.2,0.8-0.3c0.3,0,0.6,0,1,0.1c0,0,0.1-0.2,0.1-0.2c0.3-0.1,0.5,0,0.9-0.1
			c0.4-0.1,0.9-0.2,1.3-0.3h0.6c0.9-0.2,1.8-0.3,2.6-0.5c0.4-0.1,0.8,0,1-0.1c0.1,0,0.4-0.2,0.5-0.3c0.3-0.1,0.7,0.1,1.1,0
			c1.6-0.4,3.4-0.2,4.8-0.6c0.4,0,0.9,0,1.3,0.1c0.3-0.1,1.1-0.1,1.5-0.2c0.2,0,0.3,0.1,0.5,0.1c0.6-0.1,1.5-0.3,2.3-0.4
			c0.6-0.1,1.4,0.1,1.9-0.2c0,0,0,0,0.1,0.1c-0.3,0.4-0.8,0.6-1,1h-0.2v0.2c-0.3,0.2-1,0.9-1.2,1.2h-0.2c-0.1,0.4-0.4,0.9-0.6,1.1
			c0,0.4,0.1,0.4,0.2,0.6c0.4,0,0.8,0,1-0.2c0.1-0.1,0.2-0.3,0.3-0.4c0.3-0.2,0.5-0.2,0.8-0.4c0.3-0.2,0.5-0.6,0.9-0.9
			c0,0,0-0.1-0.1-0.1c0.1-0.1,0.3-0.2,0.4-0.3c0.2-0.3,0.4-0.8,0.7-1v-0.1c0.4,0.2,0.6,0.7,0.8,1.1c0.5,0.6,1.1,1.1,1.6,1.7
			c0.2,0,0.5,0,0.6-0.1c0.1,0,0.2-0.1,0.3-0.2c0-1.2-0.7-2.2-1.3-2.9v-0.1c0.3,0,1.5,0.6,1.8,0.8c0.2,0.1,0.5,0.5,0.8,0.3
			c0.4,0,0.5-0.5,0.3-0.9c-0.2-0.3-0.8-0.6-0.9-0.9c-0.2-0.3-0.3-0.7-0.6-1c0-0.1,0-0.1,0.1-0.2c0.3-0.1,0.8-0.1,1.1-0.3
			c0.4-0.3,0.6-0.7,1-1c0.5-0.4,0.9-0.3,0.9-1.3h-0.2v-0.2c-0.1,0-0.1-0.1-0.3-0.1c-0.3-0.1-0.6,0.2-0.8,0.3c0,0,0,0-0.1-0.1
			c0.1-0.3,0.3-0.6,0.5-0.8c0.1-0.2,0.1-0.5,0.3-0.6c0.1-0.1,0.2-0.1,0.3-0.2c0.1-0.2,0.1-0.4,0.2-0.6c0.1-0.1,0.3-0.3,0.3-0.4
			c0-0.2,0.1-0.4,0.1-0.5c0.2-0.5,0.6-1.1,0.8-1.6c0.2-0.7,0.3-1.3,0.5-1.9c0.4-1,0.8-2,1.2-3c0-0.2,0.1-0.5,0.1-0.8l0.2-0.2
			c0.1-0.2-0.1-0.6,0.1-0.9c0.1-0.2,0.3-0.6,0.4-0.8v-0.3c0.3-0.7,0.8-1.4,1.2-2c0.1-0.2-0.1-0.5-0.2-0.7c-0.1,0-0.3-0.1-0.5-0.1
			v-0.2c-0.2,0-0.2,0-0.4,0c0,0.3-0.1,0.3-0.2,0.5c0,0.2,0,0.4,0.1,0.5c0,0.1-0.3,0.3-0.3,0.5v0.3c-0.1,0-0.1,0-0.2,0.1v0.2
			c-0.1,0.3-0.4,0.6-0.5,1c-0.2,0.5-0.1,0.8-0.2,1.1c-0.1,0.2-0.2,0.4-0.3,0.6v0.6c-0.1,0.3-0.4,0.8-0.5,1.1c0,0,0.1,0.1,0.1,0.2
			c0,0.1-0.2,0.6-0.3,0.8c-0.1,0.1-0.2,0.1-0.3,0.1c0,0.5-0.5,1.7-0.8,1.9v0.1c0,0-0.1,0-0.1-0.1c-0.1,0.9-0.6,2.2-1.1,3
			c-0.1,0.1,0,0.2,0,0.3c0,0-0.3,0.3-0.3,0.3v0.2c-0.1,0-0.1,0-0.2,0.1c0,0.1,0,0.2-0.1,0.3c-0.1,0.1-0.2,0.3-0.3,0.4h-0.1
			c0,0.1,0,0.2-0.1,0.3c-0.2,0.2-0.8,0.9-1.1,1c-0.2,0.1-0.6,0.1-0.6,0.1c-0.4,0.1-0.5,0.4-0.5,0.9c-0.6-0.3-0.7,0.1-1.1,0.2
			c-0.2,0-0.5,0-0.7-0.1c-0.1,0-0.3,0.2-0.4,0.2c-0.4,0-0.7,0-1.1,0.1c0,0-0.2,0.1-0.3,0.2c-0.4,0.1-1.4-0.1-1.8-0.1
			c0,0-0.2,0.1-0.2,0.2h-0.6l-0.2,0.2c-0.2,0-0.3,0-0.5-0.1c-0.4,0-0.7,0.1-1.1,0.2h-0.5c-0.5,0.1-1,0.1-1.5,0.3
			c-0.6,0.2-1.3,0.5-1.9,0.5c-0.4,0-1.3,0.3-1.7,0.4c-0.2,0-0.5-0.1-0.6-0.2c-0.4,0-1,0.2-1.2-0.1c-0.2,0.1-0.2,0.1-0.3,0.3
			c-0.5,0.4-1.4,0.2-2.1,0.4c-0.4,0.1-1.4,0.5-1.9,0.3c-0.1,0-0.3-0.1-0.4-0.2c0-0.1-0.1-0.1-0.1-0.2c0,0-0.9-0.3-1-0.3h-0.4
			c-0.7-0.3-1.5-0.7-2.2-1c-0.5-0.2-0.9-0.2-1.3-0.5c0-0.1,0-0.1-0.1-0.2c-0.2-0.1-0.6,0-0.8-0.1c-0.5-0.2-1.2-0.6-1.8-0.7
			c0-0.1,0-0.2-0.1-0.2v-0.1c-0.1,0.1-0.1,0-0.1,0.2c-0.4-0.1-1.7-0.4-1.9-0.5c-0.7-0.2-0.5-1.9-0.7-2.5c0-0.1-0.2-0.2-0.2-0.3v-0.5
			c0-0.1-0.2-0.3-0.3-0.4c0-0.2,0.1-0.7,0.2-0.9c0-0.4-0.1-0.4-0.3-0.5c0-0.1,0.1-0.3,0.1-0.4c-0.1,0-0.1,0-0.2-0.1
			c0-0.2-0.1-0.4-0.1-0.6c-0.3-0.7-0.4-1.4-0.7-2.5c-0.1-0.2,0.1-0.5,0.1-0.6c-0.1-0.4-0.1-1.3-0.3-1.7c-0.1-0.1-0.2-0.2-0.3-0.3
			c-0.3,0-0.4,0.1-0.6,0.2c0.1,0.3,0.1,0.7,0.1,1c0,0.3,0,0.6-0.1,1c0.1,0.5,0.4,1.8,0.3,2.3h0.2c0,0.3,0.1,0.5,0.2,0.6
			c-0.3,0.2-0.9,0-1.3,0.2c-0.2,0.1-0.4,0.3-0.6,0.4c-0.4,0.2-0.6,0.2-1,0.3c-0.1,0.1-0.1,0.1-0.2,0.2c-0.1,0-0.3,0-0.4,0.1
			c-0.3,0.1-0.6,0.4-0.9,0.5c-0.2,0.1-0.4,0-0.7,0.1c-0.5,0.1-1,0.3-1.5,0.5c-0.2-0.4-0.4-0.7-0.6-1c-0.2-0.3-0.2-0.6-0.4-0.9
			c0,0-0.2-0.1-0.2-0.1v-0.2c-0.1-0.2-0.2-0.6-0.4-0.8c-0.4-0.5-0.8-1-1.1-1.6c-0.1-0.2-0.1-0.3-0.2-0.5c-0.2-0.3-1-1.6-1.4-1.7
			c-0.2-0.2-1.2-0.2-1.6-0.3c-0.1,0.1-0.1,0.1-0.2,0.2c0,0.2,0,0.3-0.1,0.5c0,0.3,0.4,1,0.6,1.1c0.1,0.1,0.3,0.1,0.3,0.2
			c0.2,0.3,0.2,0.7,0.4,1c0.3,0.6,1.2,1.9,1.2,2.5c0.2,0.3,0.7,1.2,0.8,1.6h0.2c-0.1,0.7,0.4,1.4,0.6,1.8c0.1,0.5,0.1,1,0.2,1.5h0.1
			c0,0.1,0,0.1-0.1,0.2c0,0.2,0.1,0.3,0.1,0.4c0.1,0.3-0.2,0.5,0,0.9v0.1c-0.4-0.2-0.7-0.8-1.1-1c-0.1,0-0.3,0-0.4-0.1
			c-0.5-0.2-0.9-0.6-1.6-0.8h-0.7c-0.8-0.2-1.9,0-2.8,0c-0.5,0-1-0.2-1.5-0.1c-1.3,0.4-2.6,1-3.8,1.6c-0.2,0-0.4,0-0.5,0.1
			c-0.4,0.1-0.8,0.3-1.1,0.5c-0.1,0.1-0.3,0.3-0.4,0.3c-0.3,0.2-0.5,0.2-0.8,0.3c-0.2,0.1-0.3,0.3-0.5,0.4c-0.2,0-0.3,0.1-0.5,0.1
			c-1,0.6-2.5,1.7-2.8,2.8h-0.2c0-0.6-0.4-0.9-0.6-1.3c-0.1-0.2-0.1-0.3-0.2-0.5c0-0.1-0.2-0.1-0.3-0.2c-0.2-0.2-0.1-0.5-0.2-0.8
			h-0.1v-0.2c0-0.1-0.2-0.1-0.2-0.2c0,0,0.1-0.5,0-0.7c0-0.1-0.2-0.2-0.3-0.3c0-0.2,0-0.3-0.1-0.5c-0.1-0.3-0.2-0.6-0.3-0.9v-0.4
			c-0.1-0.2-0.3-0.5-0.3-0.7c0-0.2,0-0.4,0.1-0.6c-0.1-0.6-0.1-1.1,0-1.7c0-0.3,0-0.7-0.1-0.9c0-0.4,0-1.7,0.2-2
			c0.1-0.3,0.2-0.7,0.3-1c0-0.1,0.2-0.2,0.3-0.3c0,0-0.1-0.1-0.1-0.2c0-0.1,0.2-0.3,0.3-0.4v-0.2c0,0,0.2-0.1,0.2-0.1v-0.4
			c0.1-0.3,0.3-0.6,0.4-1c0.2-0.4,0.7-1,1-1.5c0.1-0.1,0.2-0.1,0.3-0.2v-0.2c0.1-0.2,0.3-0.4,0.5-0.6c0.1,0,0,0,0.2-0.1
			c0.1-0.5,0.6-0.6,0.8-1c0.1-0.1,0.2-0.3,0.3-0.4v-0.2c0.1-0.2,0.4-0.3,0.5-0.4c0.2-0.2,0.3-0.6,0.5-0.8c0.5-0.4,1-0.6,1.6-1
			c0.1,0,0.1-0.2,0.1-0.2c0.1-0.1,0.3-0.1,0.4-0.2c0.1-0.1,0.2-0.3,0.4-0.4c0.3-0.2,0.6-0.3,0.9-0.5c0.2-0.2,0.3-0.5,0.5-0.6
			c0.1,0,0.2,0,0.3-0.1c0.1-0.1,0-0.2,0.1-0.3c0.1-0.1,0.9-0.9,1-1c0.5-0.3,1.1-0.4,1.6-0.8c0.6-0.4,1.1-1.2,1.7-1.6
			c0.4-0.3,0.8-0.4,1.1-0.7c0.3-0.3,0.5-0.7,0.8-0.9c0.5-0.4,1-0.8,1.6-1.2c0.3-0.2,0.6-0.7,1.1-0.8v-0.2c0.3,0,1.4-1,1.6-1.2
			c0.1-0.1,0-0.2,0.1-0.2c0.1,0,0.2,0,0.3-0.1c0-0.1,0-0.1,0.1-0.2c0.1-0.1,0.3-0.1,0.4-0.2c0.2-0.2,0.4-0.5,0.6-0.6h0.2
			c0.1-0.1,0.1-0.1,0.2-0.2c0.2-0.2,0.5-0.2,0.7-0.4c0.1-0.1,0.2-0.3,0.3-0.4c0.1,0,0.2,0,0.3-0.1c0.2-0.1,0.4-0.4,0.6-0.5
			c0.1-0.1,0.3-0.1,0.4-0.2c0.2-0.2,0.2-0.5,0.4-0.6h0.2c0.1,0,0-0.2,0.1-0.3c0.1-0.1,0.2,0,0.2,0c0.1-0.1,0.1-0.2,0.2-0.3
			c0.2-0.1,0.3-0.1,0.5-0.2c0.1-0.1,0.1-0.2,0.2-0.3c0.2-0.1,0.4-0.1,0.6-0.3c0.3-0.2,0.4-0.6,0.8-0.7v-0.2c0.5-0.1,0.9-0.6,1.2-0.8
			c0.6-0.4,1.2-0.7,1.9-1.1c0.2-0.1,0.5-0.4,0.7-0.5c0.4-0.2,0.8-0.2,1.1-0.4c0.5-0.3,1.2-0.7,1.8-1c0.4-0.2,0.8-0.2,1.2-0.4
			c0.3,0,0.5-0.1,0.8-0.1c0.5-0.2,1.1-0.4,1.6-0.6c0.3-0.1,0.6,0,0.8,0.1c0.8,0,1.5-0.1,2,0.3c0.3,0.2,0.2,0.5,0.5,0.7
			c0.2,0.2,0.5,0.1,0.8,0.3c0.2,0.1,0.4,0.4,0.7,0.5c0.3,0.1,1.7,0.4,1.9,0.3c0.1,0,0.3-0.2,0.4-0.2c0.2,0,0.4,0,0.5,0
			c0.1,0,0.4-0.2,0.5-0.2c0.2,0,0.2,0,0.3,0c0.2,0,0.1,0.1,0.3,0.2c0.1,0.8,0.2,1.3,0.2,2.2c-0.1,0-0.2,0-0.3,0.1
			c0.1,0.2,0.2,0.2,0.3,0.3c0,0.1,0,0.1-0.1,0.2c0.1,0.2,0.2,0.7,0.3,0.9c0.3,0,0.5-0.3,0.4-0.6c0.1,0,0.1,0,0.2,0.1
			c0.2-0.5,0.1-1.5-0.1-2c0.2-0.4,0-0.8,0-1.4c0.2,0,0.2-0.1,0.3-0.2c0.1,0,0.2,0.1,0.3,0.1c0-0.1,0-0.1,0.1-0.2
			c0.2-0.1,0.4,0.1,0.7,0.1c0.4-0.1,0.7-0.3,1-0.4c0.3-0.1,0.7,0,0.9-0.2c0.1-0.1,0.1-0.3,0.2-0.4c0.1-0.1,0.3-0.2,0.4-0.3
			c0.3-0.5,0.6-0.9,0.9-1.3c0.1-0.1,0.3-0.2,0.4-0.3c0-0.2,0.1-0.3,0.1-0.5c0,0,0.2-0.1,0.2-0.2c0.1-0.2,0.1-0.4,0.2-0.5
			c0.2-0.2,0.5-0.3,0.6-0.5c0.2-0.2,0.4-0.6,0.6-0.8c0.1-0.1,0.3-0.1,0.3-0.2V326c0.1-0.2,0.4-0.3,0.6-0.5c0.1-0.1,0-0.2,0.1-0.3
			c0.1-0.1,0.2,0,0.3-0.1c0.1-0.1,0.1-0.3,0.2-0.4c0.1,0,0.3-0.1,0.4-0.1c0-0.1,0-0.1-0.1-0.2c0.1-0.5,0.6-0.5,0.8-0.8
			c0.1-0.1-0.1-0.2-0.1-0.2c0.1-0.1,0.3-0.1,0.4-0.2c0.1-0.1,0.1-0.2,0.2-0.4c0.1-0.1,0.2-0.1,0.3-0.2c0.1-0.1,0.2-0.3,0.3-0.4
			c-0.2-0.7-0.9,0-1.2-0.3c-0.3,0.1-0.5,0.7-0.7,0.9c-0.2,0.2-0.5,0.4-0.6,0.5c0,0.1,0,0.2-0.1,0.3c-0.2,0.2-0.5,0.3-0.6,0.5
			c0,0.1,0,0.1-0.1,0.2c-0.1,0.1-0.3,0.1-0.3,0.2c-0.1,0.1-0.1,0.3-0.2,0.4c-0.1,0.1-0.1,0-0.2,0.1c-0.2,0.1-0.4,0.4-0.5,0.6h-0.2
			v0.2c-0.3,0.1-0.7,0.6-0.9,0.9v0.3c-0.1,0-0.1,0-0.2,0.1c-0.1,0.1-0.1,0.3-0.2,0.4c-0.1,0.1-0.3,0.2-0.4,0.3c0,0.1,0,0.2-0.1,0.3
			c0,0.1-0.2,0.1-0.2,0.1c-0.1,0.1,0,0.2-0.1,0.3l-0.5,0.5v0.2c-0.1,0.1-0.2,0.1-0.3,0.2c0,0.1,0,0.2-0.1,0.3
			c-0.1,0.1-0.3,0.1-0.3,0.2c-0.1,0.1-0.1,0.2-0.2,0.3c-0.4,0.3-1,0.5-1.7,0.5c-0.1,0-0.6,0-0.6,0c-0.3,0.1-0.7,0.3-0.9,0.4
			c-0.3,0-0.5,0-0.8,0.1c-0.1,0-0.3,0.2-0.4,0.3c0,0.1,0,0.1-0.1,0.2c-0.1,0.1-0.4,0-0.5,0c-0.1,0-0.1,0.1-0.2,0.1
			c-0.4,0.2-0.9-0.2-1.2,0c-0.1-0.1-0.1-0.2-0.2-0.3c-0.1,0.1-0.4,0-0.4,0c-0.4-0.2-0.7-0.6-1.1-0.8c0-0.2,0-0.3,0-0.4v-0.2
			c-0.2,0-0.4-0.1-0.6-0.1c-0.2-0.4-0.4-0.9-0.5-1.2c-0.1-0.2,0-0.4-0.2-0.6c-0.1-0.1-0.3-0.3-0.3-0.4c-0.1-0.2,0-0.4-0.2-0.6
			c-0.1-0.2-0.3-0.3-0.4-0.5c0-0.2-0.2-0.7-0.3-0.9c0-0.1-0.2-0.1-0.2-0.2c0-0.2,0-0.5-0.1-0.8c-0.1-0.2-0.2-0.4-0.3-0.6
			c-0.1-0.3-0.1-0.6-0.3-0.8c-0.1-0.1-0.3-0.1-0.5-0.2c0,0.3,0,0.6-0.1,0.9c0,0.1,0.2,0.2,0.2,0.3c0,0.4,0.1,0.7,0.1,1.1
			c0.1,0.1,0.2,0.4,0.3,0.5v0.4c0,0.1,0.2,0.4,0.3,0.5v0.3c0.1,0.1,0.3,0.2,0.4,0.3c0.1,0.2,0,0.3,0.1,0.5c0.2,0.5,0.7,0.9,0.7,1.6
			c-0.6,0-1,0-1.5-0.1c-0.2,0-0.4,0.1-0.5,0.1c-0.1,0-0.5-0.1-0.6-0.1c-0.6,0.1-1.2,0.5-1.7,0.6c-0.7,0.2-1.4,0.2-2.1,0.5
			c-2.1,1-4,2.1-5.6,3.4c-0.3,0.2-0.7,0.3-1,0.5c-0.3,0.2-0.5,0.5-0.8,0.8c-0.1,0.1-0.3,0.1-0.5,0.2c-0.3,0.2-0.6,0.5-0.9,0.7
			c-0.1,0.1-0.1,0.3-0.3,0.4c-0.1,0.1-0.2,0-0.3,0.1c0,0.1-0.1,0.1-0.1,0.2c-0.3,0.2-0.6,0.4-1,0.6c-0.1,0.1-0.1,0.1-0.2,0.2
			c-0.2,0.1-0.3,0-0.5,0.2c-0.1,0-0.1,0.2-0.2,0.3c-0.2,0.1-0.3,0.1-0.5,0.3c0,0.1-0.1,0.1-0.1,0.2c-0.2,0.1-0.4,0-0.5,0.2
			c-0.1,0.1-0.1,0.2-0.2,0.3c-0.1,0-0.2,0.1-0.3,0.1c-0.1,0.1-0.2,0.3-0.3,0.4c-0.2,0.1-0.4,0.1-0.6,0.3c-0.2,0.1-0.2,0.4-0.4,0.5
			c-0.3,0.2-0.5,0.3-0.8,0.5l-0.5,0.5c-0.3,0.2-0.7,0.3-0.9,0.5c0,0.1-0.1,0.2-0.1,0.3c-0.7,0.6-1.4,1.2-2.2,1.8
			c-0.1,0.1-0.2,0.4-0.4,0.5c-0.2,0.2-0.6,0.2-0.8,0.3c-0.1,0.1-0.3,0.5-0.4,0.6c-0.2,0.2-0.4,0.3-0.6,0.4c-0.3,0.2-0.5,0.6-0.8,0.9
			c-0.2,0.2-0.7,0.2-1,0.4c-0.3,0.1-0.7,0.4-0.9,0.6c-0.2,0.1-0.3,0.4-0.5,0.6c-0.3,0.3-0.8,0.5-1.1,0.9c-0.3,0.4-0.6,0.7-1,0.9
			c-0.1,0-0.1,0-0.2,0.1c0,0.5-0.9,0.9-1.2,1.1c-0.2,0.1-0.3,0.5-0.5,0.6c-0.3,0.1-0.5,0-0.6,0.2c-0.2,0.2-0.4,0.6-0.6,0.9
			c-0.4,0.5-1.1,0.9-1.5,1.5v0.2c-0.2,0.3-0.5,0.4-0.7,0.6c-0.1,0.2-0.2,0.5-0.3,0.6c-0.4,0.5-0.8,0.9-1.1,1.5c-0.7,0-1.5-0.6-2-0.8
			c-0.6-0.2-1.2-0.3-1.8-0.5c-0.4-0.2-0.9-0.5-1.3-0.7c-0.4-0.2-1-0.2-1.3-0.4c-0.2-0.1-0.4-0.4-0.5-0.4c-0.2,0-0.4,0-0.5-0.1
			c-0.1-0.1-0.1-0.1-0.2-0.2c-0.2-0.1-0.5-0.3-0.7-0.4c-0.1,0-0.3,0-0.4-0.1c-0.3-0.1-0.6-0.4-0.9-0.5c-0.5-0.2-1.1-0.4-1.6-0.5
			h-0.3c-4.7-2-9.7-3.3-14.2-5.3c-0.2,0-0.3,0-0.5-0.1c-0.3-0.1-0.8-0.3-1.1-0.4h-0.4c-0.7-0.4-1.8-0.7-2.6-1
			c-0.2-0.1-0.4,0-0.6-0.1c-1.3-0.6-2.6-1-3.8-1.5c-0.7-0.3-1.5-0.8-2.1-1.1c-0.1,0-1.9-0.5-2-0.6c-0.2-0.1-0.4-0.3-0.6-0.4
			c-0.3-0.2-0.6-0.1-1-0.3c-0.1,0-0.2-0.2-0.3-0.3c-0.3,0-0.5-0.1-0.8-0.1c0-0.1,0-0.1-0.1-0.2c-0.1,0-0.8-0.3-0.9-0.4h-0.4
			c0,0-0.1-0.2-0.1-0.2c-0.1,0-0.1,0-0.2,0.1c-0.7-0.2-2-1.4-2.7-1.4c-0.2,0.1-0.4,0.1-0.6,0.2c-0.1,0.3-0.1,0.6,0.1,0.8
			c0.2,0.5,0.7,0.2,1.3,0.4c0.4,0.1,1,0.3,1.3,0.5c0.7,0.4,1.7,0.8,2.5,1.1c0.3,0.1,0.6,0.1,0.9,0.3c0.9,0.5,1.9,1,2.8,1.5
			c0.2,0.1,0.4,0.1,0.7,0.2c0.3,0.1,0.5,0.3,0.8,0.4c0.3,0.1,0.5,0.1,0.9,0.2c3.7,1.5,7.5,2.8,11.1,4.2c0.5,0.2,0.9,0.2,1.4,0.4
			c0.5,0.2,0.9,0.5,1.4,0.6c0.4,0.2,0.8,0.1,1.2,0.3c0.2,0.1,0.5,0.3,0.8,0.4c0.6,0.2,1,0.2,1.6,0.4c0.2,0.1,0.6,0.3,0.9,0.4
			c0.1,0,0.2,0,0.3-0.1c0.2,0.1,0.3,0.3,0.5,0.4c0.5,0.2,1,0.2,1.5,0.4c0.5,0.2,1.2,0.6,1.8,0.8c0.9,0.4,2,0.7,2.8,0.9
			c0.2,0.1,0.4,0.3,0.6,0.4h0.3c0.3,0.1,0.7,0.4,1,0.5c0.1,0,0.3,0,0.4,0.1c0,0,0.1,0.2,0.1,0.2c0.5,0.3,1.1,0.4,1.6,0.6
			c0.1,0.1,0.3,0.3,0.4,0.3c0.1,0,0.3,0,0.4,0.1c0.3,0.1,0.8,0.4,1.1,0.5c0.2,0,0.4,0.1,0.6,0.1c0.9,0.3,1.9,0.8,2.7,1.2
			c0,0.1,0,0.1,0.1,0.1c0,0.3-0.2,0.2-0.3,0.4v0.5c-0.2,0.7-0.8,1.5-0.9,2.4c0,0.2,0.1,0.4,0.1,0.5c0,0.3-0.1,0.8-0.2,1.1
			c-0.1,0.3,0.1,0.9,0,1.2c-0.1,0.5-0.1,1.9-0.1,2.3c0.2,1.2,0.7,2.4,1.2,3.4c0.2,0.4,0,0.5,0.2,0.9c0.1,0.3,0.4,0.8,0.5,1.1
			c0.1,0,0.1,0,0.2,0.1c0.1,0.2,0.1,0.7,0.3,0.9h0.1c0.1,0.2-0.2,0.4-0.1,0.6c0,0.6,0.5,0.6,0.8,0.9c0.1,0.1,0.2,0.4,0.3,0.6
			c0.1,0.1,0.7,0.4,0.9,0.6c0.4,0.4,0.8,1,1.4,1.2c0,0.1,0,0.1,0.1,0.1c-0.1,0.5-0.6,1-0.8,1.4c-0.1,0.3,0,0.5,0,0.7
			c-0.1,0.4-0.3,1-0.2,1.5c0.1,0.2,0.3,0.3,0.4,0.4c0.2,0.3,0.3,0.6,0.5,0.8c0.1,0,0,0,0.2,0.1c0.1,0.6,1.3,1.2,1.8,1.4
			c0,0.5-0.1,1-0.1,1.6c0.2,0.2,0.3,0.5,0.5,0.6c0.3,0.2,0.8,0.3,1.1,0.5c0.7,0.6,1.3,1.5,2.1,2.1c0.2,0.2,0.6,0.3,0.9,0.4h0.2
			c0.2,0.2,0.3,0.5,0.6,0.6c0.2,0.1,0.7,0,1-0.1c0.3-0.1,0.5,0.1,0.7,0.1c0.6,0,1.1-0.1,1.6-0.2c0.1,0.1,0.3,0.2,0.4,0.3
			c0,0.1,0,0.1-0.1,0.2v0.2c0.1,0,0.1-0.1,0.2-0.2c0.6,0.1,1,0.4,1.5,0.5c0.8,0.3,1.7-0.3,2.2-0.5c0.1,0,0.3,0.1,0.5,0.1
			c0.5-0.2,0.9-0.7,1.2-1.1c0.1-0.2,0.4-0.2,0.5-0.3c0.1-0.1,0.1-0.3,0.2-0.4c0.3-0.5,0.7-0.8,0.9-1.5c0.2,0,1.8-0.1,2,0.1
			c0.4,0.2,0.4,1.1,0.6,1.5c0.1,0.1,0.3,0.5,0.5,0.6c0.1,0,0.3,0,0.4,0.1c0.1,0.1,0.3,0.6,0.4,0.7c0.3,0.2,0.8,0.3,1.1,0.4
			c0.3-0.1,1.7,0.1,2.1,0.2c0.2,0,0.5-0.1,0.6-0.1c0,0.1,0,0.1,0.1,0.2c0.1,0.1,0.3-0.1,0.4-0.1c0.5,0.1,1.3,0.1,1.8,0.3h2.4
			c0.1,0,0.2-0.1,0.3-0.1c0.2,0,1.3,0.2,1.5,0.2c0.5-0.1,0.9-0.1,1.3,0c0.2,0,0.8,0,1.1-0.1c0.5,0.1,1.9,0,2.4-0.1
			c0.5-0.1,1.2,0.2,1.7,0.1c1.2-0.3,2.5,0,3.9-0.3c0.1,0,0.5,0.1,0.8,0c0.9-0.2,2-0.1,2.8-0.3h0.8c0.8-0.2,2.1-0.2,2.8-0.5
			c0.4-0.1,0.6,0.1,1,0c2.4-0.6,5.1-0.8,7.1-1.5c0.2-0.1,0.6,0,0.6,0c0.1,0,0.4-0.2,0.5-0.2h0.7c0,0,0-0.1,0.1-0.1h0.6
			c0.2,0,0.4-0.2,0.5-0.2c0.1,0,0.3,0.1,0.3,0.1c0.2,0,0.5-0.1,0.6-0.2c0.1,0,0.3-0.2,0.3-0.2c0.1,0,0.3,0,0.4,0.1
			c0.1,0,0.1-0.1,0.2-0.2h0.4c0-0.1,0.1-0.1,0.1-0.2c0.1,0,0.7-0.1,0.9-0.2c0.1,0,0.2-0.2,0.3-0.2c0.8-0.3,1.7-0.7,2.3-1.3
			c1.1,0,1.9,0.4,2.7,0.8c0.4,0.1,1,0.1,1.3,0.2c0.2,0.1,0.4,0.3,0.6,0.4c0.3-0.1,1.7,0.4,2,0.5c1.9,0.6,3.8,1.4,5.6,2.1h0.4
			c0,0.1,0.1,0.1,0.1,0.2c0.1-0.1,1.5,0.4,1.8,0.5c0.6,0.3,1.3,0.7,1.9,1c0.7,0.3,1.4,0.4,2.1,0.7c0.7,0.2,1.4,0.6,2,0.9
			c0.3,0.1,0.6,0.1,0.9,0.2c0.1,0.1,0.1,0.1,0.2,0.2c0.1,0.1,0.3,0,0.5,0.1c0.5,0.2,1,0.5,1.5,0.6c0.2,0,0.4,0,0.5,0.1
			c0.3,0.1,0.6,0.4,0.9,0.5c0.3,0.1,0.6,0.1,1,0.3c0.8,0.3,1.6,0.7,2.3,1c0.3,0.1,0.8,0,1.1,0.2v0.1c0.3,0.2,0.6,0.2,0.9,0.4
			c0.2,0,0.4,0,0.5,0.1c0.2,0.1,0.5,0.3,0.8,0.3h0.5c0.6,0.2,1.3,0.8,1.9,1c0.1,0,0.3,0,0.4-0.1c0.1,0,0.2,0.2,0.3,0.3
			c0.2,0.1,0.4,0,0.6,0.1c0.6,0.3,1.3,0.6,1.8,0.9c0.3,0.2,1,0.2,1.4,0.4c0.9,0.4,2,0.8,3,1.2c0.3,0.1,0.7-0.1,1,0.1v0.1
			c0.2,0.1,0.8,0.4,1,0.4c0.1,0,0.2-0.1,0.3-0.1c0.4,0.1,0.9,0.4,1.3,0.6c0.2,0,0.4,0,0.5,0.1c0.4,0.1,1.1,0.3,1.5,0.5
			c0,0,0.1,0.2,0.1,0.2c0.1,0.1,0.2-0.1,0.2-0.1c0.1,0,0.3,0.2,0.4,0.2c0.1,0,0.3-0.1,0.3-0.1c0.1,0,0.3,0.3,0.4,0.3
			c0.3,0.1,0.5,0.1,0.8,0.2c0.6,0.4,1.4,0.8,2.1,1.1c0.3,0.1,0.5,0,0.8,0.2c0.1,0,0.2,0.2,0.3,0.3c0.1,0.1,0.5,0.1,0.6,0.2
			c0.2,0.1,0.5,0.3,0.7,0.4h0.4c0.2,0.1,1.2,0.6,1.2,0.8c0.2,0,0.1,0,0.2-0.1c0.2,0.4,0.9,0.4,1.3,0.5c0.4,0.1,0.8,0.5,1.1,0.6h0.3
			c0.1,0.1,0.3,0.2,0.4,0.3c0.2,0,0.3,0.1,0.5,0.1c1.2,0.6,2.5,1.3,3.7,1.9c0.2,0.1,0.5,0.1,0.7,0.2c0.2,0.1,1.1,0.6,1.3,0.6
			c0,0,0-0.2,0.1-0.1v0.1c0.2,0.1,0.4,0.1,0.5,0.2v0.1c0.2,0,0.3,0,0.5,0.1c0.4,0.2,1,0.6,1.5,0.8h0.3c0.2,0.1,0.5,0.4,0.7,0.5
			c0.4,0.2,0.7,0.1,1.1,0.3c0.2,0.1,0.5,0.4,0.6,0.4c0.1,0,0.7,0,0.8,0c0.1-0.1,0.3-0.2,0.4-0.3C516.1,411.2,516.1,410.8,516,410.6z
			 M415.5,306.7h-0.1v-0.1h0.1V306.7z M435,311c-0.1,0-0.1,0.1-0.2,0.1c0,0.1,0.1,0.4,0.1,0.5c-0.2,0.5-0.7,0.9-0.8,1.5
			c-0.5,0.1-0.8,1.2-0.8,1.7h-0.1c-0.1-0.9-0.1-1.6-0.4-2.5c0-0.1,0-0.2,0.1-0.3c-0.1-0.3-0.3-0.7-0.4-1v-0.8c0-0.2-0.1-0.4-0.2-0.6
			c0.5-0.3,1.1-0.4,1.7-0.6c0.4-0.1,0.9,0.4,1.1,0.6C435,309.7,435.1,310.6,435,311z M435.9,308.7L435.9,308.7
			c-0.2-0.4-0.5-0.5-0.9-0.6c-0.1-0.1-0.3-0.3-0.4-0.3c0,0-0.4,0.1-0.4,0.1c-0.5,0-1,0-1.5,0.2c-0.2,0.1-0.4,0.3-0.6,0.4
			c-0.2-0.4-0.1-0.8-0.2-1.2c0.4-0.3,1.1-0.3,1.4-0.5c0.4,0,1.6,0.3,1.8,0.5c0.4,0.2,0.4,1,0.8,1.3L435.9,308.7L435.9,308.7z
			 M435.2,369.3c0.4,0.2,1.1,0.2,1.4-0.1c0.2,0,0.3,0,0.4,0.1c0,0,0,0,0.1,0.1H437c-0.2,0.4-0.9,0.3-1.2,0.4c-0.2,0-0.3,0-0.4-0.2
			c0-0.1,0-0.1-0.1-0.2V369.3z M434.9,371.2c0.1,0,0.2,0,0.2,0.1c0.2,0.1,0.2,0.2,0.4,0.3v0.1c-0.1,0-0.2,0-0.3-0.1v-0.2H435
			c0,0-0.1-0.1-0.1-0.1V371.2z M398.4,365.9c0.9-0.4,1.7-0.7,2.5-1c0.3,0,0.6,0,0.9-0.1c0-0.1,0.1-0.1,0.1-0.2
			c0.2-0.1,0.5-0.1,0.7-0.2h0.3c0.1,0.5,0.4,1.4,0.6,2c0.1,0.4,0,0.8,0.3,1.1c0,0.1,0,0.1-0.1,0.2c-0.3,0.1-0.9-0.4-1.4-0.4
			c-0.3,0-0.4-0.2-0.7-0.3c-0.2,0-0.4,0-0.6-0.1c-0.6-0.2-1.3-0.5-1.8-0.7c-0.2-0.1-0.5-0.1-0.6-0.2c0,0-0.1,0-0.1-0.1L398.4,365.9
			L398.4,365.9z M395.8,374.6h0.2c0.2-0.7,0.5-1.5,0.8-2.2v-0.1c0.1-0.4,0-0.6,0.1-1c0,0,0,0,0.1-0.1c0,0-0.1-0.1-0.1-0.1
			c0.1-0.4,0.3-1.7,0.2-2c-0.1-0.2-0.3-0.5-0.3-0.7c-0.2-0.5,0-1.3-0.2-1.7v-0.2c1.1-0.2,2.8,0.8,3.8,1.1c0.2,0.1,0.4,0,0.5-0.1
			c0.4,0.3,1,0.5,1.5,0.7h0.5c0.2,0.1,0.4,0.3,0.5,0.4c0.7,0.3,1.5,0.5,2.1,0.8c0.3,0.1,0.4,0,0.7,0.1c0.7,0.3,1.5,0.6,2.2,0.9
			c0.4,0.2,0.7,0.1,1,0.2c0.2,0.1,0.5,0.3,0.8,0.4c0.4,0.2,0.7,0.1,1,0.3c0,0.1,0,0.1,0.1,0.2c0.1,0.1,0.3,0,0.3-0.1
			c0.1,0,0.1,0.2,0.2,0.2c0.2,0,0.4,0,0.6,0.1c0.4,0.2,0.7,0.5,1.2,0.5c-0.2,0.3-1,0.3-1.4,0.4c-0.6,0.1-1.2,0.3-1.6,0.4h-0.4
			c-0.2,0.1-0.7,0.3-0.9,0.4c-0.1,0-0.3-0.1-0.3-0.1c-0.1,0-0.2,0.2-0.3,0.2h-0.4c-0.1,0-0.4,0.2-0.5,0.3h-0.5
			c-0.3,0.1-0.9,0.4-1.3,0.5c-0.3,0.1-0.6,0-0.9,0.1c-0.8,0.3-1.6,0.8-2.4,1c-0.3,0-0.6,0.1-0.9,0.1c-0.1,0.1-0.1,0.3-0.2,0.3
			c-0.2,0-0.3,0.1-0.5,0.1c-0.1,0.1-0.2,0.3-0.3,0.3c-0.5,0-1,0.1-1.5,0.1c-0.3-0.1-0.4-0.4-0.6-0.6c-0.1,0-0.2,0-0.3-0.1
			c-0.3-0.1-0.6-0.4-0.9-0.5h-0.3c-0.3-0.1-0.5-0.5-0.7-0.6c-0.2-0.1-0.4-0.1-0.5-0.2L395.8,374.6L395.8,374.6z M389.3,368.3
			c0.3,0.1,1.4,0,1.6,0.1c0,0.1,0,0.1,0.1,0.2c0.2,0.1,0.4,0.1,0.6,0.2c0,0.1,0,0.1,0.1,0.2c0.2,0.1,0.7,0.1,0.9,0.3
			c0.3,0.3,0.4,0.7,0.8,0.9c0,0.2-0.1,0.3-0.1,0.4c0.1,0.3,0.3,0.7,0.4,1.2c0.1,0.3-0.1,0.7,0.1,1c0,0.1,0,0.1-0.1,0.1v0.1
			c-0.5-0.2-0.9-0.6-1.3-0.9c-0.5-0.2-1.2-0.2-1.6-0.6c-0.1-0.2-0.1-0.4-0.2-0.5c0-0.1-0.2-0.1-0.3-0.2c-0.1-0.1,0-0.3-0.1-0.4
			c0,0-0.3-0.2-0.3-0.2v-0.4c-0.1-0.2-0.5-0.3-0.6-0.4c-0.2-0.3-0.2-0.6-0.5-0.8C388.9,368.4,389.2,368.5,389.3,368.3z M377.6,375.7
			c-0.9-0.9-1-1.8-0.3-3c0.2-0.3,1.2-0.7,1.6-1c1.4-1,2.9-1.5,4.6-2.3c0.2,0,0.4,0,0.5-0.1c0.1-0.1,0.1-0.1,0.2-0.2
			c0.3-0.2,0.7-0.1,1-0.3c0.1-0.1,0.2-0.3,0.4-0.3c0.3-0.1,0.3,0,0.5-0.2c0.3,0,0.3,0.1,0.3,0.3c0.1,0,0.1,0,0.1-0.1
			c0.1-0.1,0-0.1,0-0.3c0.2,0,0.6,0,0.7,0.1c0.1,0.1,0.2,0.2,0.3,0.4c0.1,0,0.2,0,0.2,0.1c0.6,0.1,1.3,1.9,1.9,2.2v0.3
			c-0.7,0-1.5,0.2-2,0.4c-0.1,0-0.3,0.2-0.4,0.3c-0.5,0.2-1,0-1.4,0.2c-1.2,0.5-2.4,1.1-3.5,1.7c-0.5,0.3-0.9,0.4-1.4,0.6
			c-0.7,0.4-1.3,1.6-2.3,1.8C378.1,376.7,377.8,376,377.6,375.7z M387.9,388.3c-0.4,0-0.5,0.1-0.9,0c0-1.3-0.3-1.9,0.2-3
			c0,0,0,0,0.1-0.1h0.1C387.4,386,387.5,387.7,387.9,388.3L387.9,388.3L387.9,388.3z M399.9,387.2c0,0-0.2,0.1-0.2,0.1h-0.1
			c0-0.1-0.1-0.3-0.1-0.4c0-0.2,0.1-0.2,0.2-0.3c0-0.2-0.1-0.2-0.2-0.3c0.3-0.1,0.6-0.3,0.8-0.5h0.1
			C400.4,386.4,400.3,386.8,399.9,387.2z M401.2,384.1c-0.4,0-0.5,0.4-0.8,0.5c-0.4,0.2-0.9,0.6-1.4,0.7h-1
			c-0.5,0.1-1.4,0.2-1.8-0.1c-0.2-0.2-0.2-0.4-0.4-0.6c-0.3-0.4-0.8-0.7-1.1-1c-1.2,0-1.4,0.7-2.1,1.1c-0.5,0.3-1,0.4-1.4,0.8
			c-0.2,0.2-0.7,0.8-0.5,1.1c0,0.3,0.1,0.4,0.4,0.4c0.7,0.4,1.7-0.8,2.2-1c0.4-0.1,0.8,0.1,1-0.1c0.3,0,0.4,0.1,0.5,0.3
			c0.1,0.3-0.2,0.7-0.4,0.9c-0.4,0.5-1.1,1-1.4,1.5c-0.3,0-0.6-0.1-1,0.1c-0.3,0.1-0.4,0.5-0.9,0.4c-0.1,0-0.3-0.1-0.3-0.2
			c-0.4-0.1-0.4,0.2-0.8-0.1c-0.2-0.1-0.1-0.2-0.4-0.3c0-0.1,0-0.1-0.1-0.2c0-0.6-0.5-0.6-0.7-1c-0.1-0.2-0.2-0.6-0.2-0.8v-0.4h-0.1
			c0-0.1,0.3-1.5,0.3-1.7c0.5-1.4,1.2-2.8,2.4-3.4c0-0.1,0-0.2,0.1-0.3c-0.1-0.3-0.3-0.4-0.4-0.5c-1,0.1-1.3,0.8-1.8,1.3
			c-0.4,0.4-0.8,0.7-1.2,1c-0.3,0.2-0.4,0.6-0.6,0.8c-0.1,0-0.1,0-0.2,0.1c-0.2,0.3-0.4,0.5-0.6,0.8c-0.1,0-0.1,0-0.2,0.1
			c-0.1,0.1-0.1,0.7-0.1,0.7c-0.1,0.1-0.3,0.3-0.3,0.4h-0.1c0,0.1,0.1,0.5,0.1,0.6c0.1,0.4,0,0.7,0,1c0,0.2,0.2,0.3,0.1,0.6
			c-0.1,0.1-0.2,0.4-0.3,0.5c-0.1,0.1-0.6-0.5-0.8-0.5c-0.2-0.1-0.5,0-0.7-0.2c-0.4-0.3-0.4-1.8-0.4-2.6c0-0.2-0.2-0.7-0.1-0.9
			c0.1,0,0.1-0.1,0.2-0.1c0.3-0.7,0.6-1.3,1.2-1.7c0.3-0.2,0.8-0.3,1.1-0.5c0.5-0.3,1-0.8,1.5-1.2c0.3-0.2,0.7-0.3,0.9-0.5
			c0.2-0.2,0.3-0.5,0.5-0.7c-0.1-0.8-1.7,0-2,0.2c-0.3,0.2-0.5,0.5-0.8,0.7c-0.3,0.2-0.5,0.2-0.9,0.4l-0.3,0.3
			c-0.3,0.2-0.7,0.3-1,0.5c-0.5,0.4-0.9,1-1.2,1.5l-0.3,0.3v0.5c-0.1,0.3-0.2,1.4-0.1,1.6v0.3c-0.5-0.2-0.8-0.6-1.3-0.8
			c0-0.4,0.1-1,0-1.5c-0.2-0.7-0.1-1.3,0.2-2v-0.3c0.2-0.5,0.7-0.8,1.1-1.1c0.2-0.1,0.3-0.4,0.4-0.5c0.2-0.2,0.5-0.2,0.7-0.3
			c0.4-0.3,0.6-0.7,1-1c0.1-0.1,0.3,0,0.4-0.1c0.1,0,0.1-0.2,0.1-0.2c0.2-0.2,0.7-0.3,1-0.4c0.3-0.2,0.7-0.5,1.1-0.7
			c0.2-0.1,0.4,0,0.6-0.2c0.2-0.1,0.4-0.4,0.6-0.5c0-0.1,0-0.1,0.1-0.2c0-0.5-0.2-0.4-0.4-0.6c-0.6,0-1.3,0.7-1.7,0.9
			c-0.1,0-0.2,0-0.3,0.1c-0.1,0.1-0.1,0.2-0.2,0.3c-0.3,0.1-0.6,0.2-0.9,0.3c-0.3,0.2-0.6,0.5-0.9,0.7c-0.2,0.1-0.4,0.2-0.6,0.3
			c-0.1,0.1-0.1,0.3-0.3,0.4c-0.5,0.4-1.2,0.6-1.7,1c-0.3,0.2-0.4,0.6-0.6,0.8c-0.5,0.6-1,1.1-1.1,2.2c-0.5-0.2-1.7-1.2-1.8-1.8
			c-0.3-0.4,0.2-2,0.4-2.3c0.5-0.7,1.5-1.3,2.3-1.9c0.2-0.2,0.3-0.5,0.6-0.7c0.1,0,0.3-0.1,0.4-0.1c0.1-0.1,0.2-0.3,0.3-0.3
			c0.1-0.1,0.3,0,0.5-0.1c0.2-0.1,0.4-0.3,0.5-0.4c0.1,0,0.3,0,0.4-0.1c0.7-0.2,1.3-0.7,1.9-1c0.3-0.1,0.7-0.1,0.9-0.2
			c0.2-0.1,0.4-0.3,0.6-0.3h0.6c0.5-0.2,1-0.5,1.5-0.6c0.4-0.1,0.8,0.1,1.1,0.2c0.2,0,0.5-0.2,0.7-0.1c0.4,0.1,0.3,0.3,0.5,0.4h0.4
			c0.2,0.1,0.6,0.2,0.8,0.3c0.1,0,0.9,0.8,0.9,0.8c0.1,0.2,0,0.4,0.2,0.5c0.2,0.2,0.5,0.1,0.7,0.2c0.1,0.1,0.1,0.3,0.2,0.3h0.2
			c0.3,0.2,0.5,0.3,0.8,0.4c0.1,0.1,0.2,0.2,0.3,0.3c0.2,0.1,0.4,0.1,0.6,0.2c0,0.1,0.1,0.1,0.1,0.2c0.2,0.1,0.4,0.1,0.6,0.2
			c0.1,0.1,0.2,0.2,0.3,0.3c0.1,0.1,0.3,0,0.4,0.1c0.3,0.3,0.6,0.7,1,0.9c0.3,0.1,1.2-0.1,1.6,0.1v0.1c0.1,0,0.2,0,0.2,0.1
			c0,0.1,0,0.1-0.1,0.2c0.1,0.1,0.3,0.2,0.5,0.3c0,0.1,0,0.1,0.1,0.2c0,0.3,0.3,0.5,0.5,0.7c0.4,0.5,0.5,1.3,1.1,1.7
			c0,0.1,0,1.3,0,1.3c0,0-0.2,0.3-0.2,0.3v0.5c-0.1,0.2-0.5,0.7-0.7,1C401.4,384.1,401.3,384.1,401.2,384.1z M460.2,367.7
			c0,0.1,0,0.7,0,0.8c0,0.3-0.2,0.5-0.2,0.8c0.1,0.8,0.1,2-0.1,2.7c-0.1,0.3,0,0.5,0.1,0.8c0,0.7,0,1.5-0.1,1.9c-0.1,0.3,0,0.8,0,1
			c0,0.4-0.2,0.8-0.2,1.1c-0.1,0.5,0.2,1.5,0,1.9c-0.1,0-0.1,0.1-0.2,0.1c-0.1,0.3,0.1,1.1,0.1,1.5c0,0.4-0.2,1.2-0.2,1.6
			c0.1,0.5,0.1,1.5-0.1,2.2c-0.1,0.3,0.1,0.7,0,0.9c0,0.2-0.3,0.5-0.3,0.6c0,0.3,0,0.5,0.1,0.8c-0.1,0.2-0.2,0.7-0.3,1.1
			c-0.1,0.3-0.4,0.5-0.4,0.9c-0.2-0.1-0.4-0.3-0.6-0.4h-0.4c-0.4-0.1-0.9-0.4-1.2-0.5c-0.3-0.1-0.8-0.1-1.1-0.2
			c-1.3-0.7-3-1.2-4.5-1.7c-0.4-0.1-0.7-0.1-1.1-0.2c-1.2-0.5-2.5-0.6-3.6-1.2c0.2-0.4,1.3-1.5,1.7-1.8c0.1-0.1,0.2-0.3,0.3-0.5
			c0.2-0.2,0.5-0.3,0.6-0.6c0.1-0.1,0.1-0.4,0.1-0.5c0.3-0.4,0.7-0.7,1-1.1c0.2-0.3,0.2-0.6,0.4-0.9c0.2-0.3,0.5-0.6,0.6-0.8
			c0-0.1,0.1-0.2,0.1-0.3c0.6-0.7,1.1-1.3,1.6-2.1c0.1-0.1,0.3-0.3,0.4-0.4c0.7-1.2,1.6-2.6,2.4-3.6c0.2-0.2,0.2-0.5,0.3-0.8
			c0.1-0.1,0.3-0.2,0.4-0.3c0.3-0.5,0.6-1.3,0.9-1.7c0.7-0.9,1.2-2,1.8-2.9c0.1-0.2,0.3-0.5,0.4-0.8c0.1-0.1,0-0.3,0.1-0.4
			c0.2-0.2,0.4-0.2,0.5-0.4c0-0.1,0-0.3,0.1-0.4c0.1,0,0.1,0,0.2-0.1c0.1-0.1,0.2-0.3,0.2-0.4c0.1,0,0.1,0,0.1,0.1
			c0.3,0.4,0,1,0,1.4C460.3,365.7,460.2,367.1,460.2,367.7z M413.2,311.5c-0.3,0-0.3,0.1-0.3,0.4c-0.5,0-2.1-1-2.7-0.5
			c-0.3,0-0.3,0.1-0.5,0.2c0,0.2-0.1,0.4,0,0.5c0.2,0.4,1.4,0.3,1.8,0.4c0.3,0.1,0.8,0.2,0.9,0.1c0.1,0,0.2,0,0.3,0.1
			c0.1,0.4,0.2,1.1,0.1,1.6c0,0.1-0.1,0.2-0.1,0.4c0.1,0.3,0.2,0.8,0.1,1.1c0,0.1-0.1,0.5-0.1,0.6c0,0.1,0.1,0,0.1,0.2
			c0,0.1-0.1,0.4-0.1,0.7c0.1,0.2,0.2,0.7,0.3,0.9c0.1,0.3-0.1,1.3,0,1.7c0.1,0,0.1,0.1,0.2,0.1c0.1,0.3-0.1,0.6,0,0.9
			c0.1,0.3,0.2,0.8,0.3,1c0,0.1-0.1,0.2-0.1,0.4c0,0.1,0.1,0.4,0.2,0.5c0.1,0.2,0.4,0.3,0.5,0.5h0.2v0.2c0.2,0,0.4,0,0.6-0.1
			c0.2,0.1,0.4,0.1,0.5,0.2v-0.1c0.4-0.1,0.7-0.1,1.1-0.2c0.1-0.3,0.2-0.2,0.3-0.5c0-0.1,0-0.5-0.1-0.6c-0.1-0.2-0.1-0.2-0.3-0.3
			c-0.1-0.1-1.4,0.2-1.6,0.3c-0.1-0.2-0.2-0.3-0.3-0.4c0-0.1,0.1-0.2,0.1-0.3c0-0.1-0.3-0.4-0.3-0.5c-0.1-0.2,0.2-0.7,0.1-0.9
			c-0.4-0.7-0.4-1.8-0.6-2.7c-0.1-0.9,0.1-2.1-0.2-3.1c-0.1-0.5,0-1.1,0-1.4c0-0.1-0.1-0.5-0.1-0.5c0-0.2,0.3-0.4,0.2-0.6
			c0-0.1,0-0.2-0.1-0.3c-0.1-0.1-0.2-0.1-0.2-0.1c-0.2,0.1-0.1,0.1-0.1,0.3C413.2,311.6,413.3,311.6,413.2,311.5z M420.1,312.3
			c0.4-0.1,1-0.2,1.6-0.3c0-0.1,0.1-0.2,0.1-0.3c0,0-0.1-0.1-0.1-0.2c-0.4-0.2-1.1-0.1-1.6-0.2c-0.4,0.3-1.2,0-1.5,0.1
			c-0.1,0-0.3,0.2-0.5,0.3c-0.3,0.1-0.7,0-0.9,0c-0.2,0-0.5,0.1-0.7,0.2h-0.4c-0.5,0.2-0.8,0.5-1.2,0.6c0,0.2-0.1,0.2,0,0.3
			c0.2,0.3,1.3,0.1,1.8,0c0.7-0.2,1.7-0.3,2.6-0.5C419.5,312.3,419.8,312.4,420.1,312.3z M412.5,315.6c-0.1-0.3-0.3-0.3-0.5-0.4
			c0-0.1,0,0-0.1-0.2c-0.4,0-0.9-0.1-1.2-0.3c-0.2,0-0.2,0.1-0.3,0.2c0,0.1,0,0.2-0.1,0.3c0.2,0.2,0.4,0.7,0.7,0.6v0.2
			c0.5,0,1,0,1.3-0.2C412.4,315.7,412.5,315.6,412.5,315.6z M419.6,315.6c0-0.3-0.1-0.4-0.2-0.5h-0.2c-0.7,0.5-1.5,0.4-2.3,0.6
			c-0.4,0.1-0.7-0.3-1-0.2c-0.3,0-0.5,0.1-0.5,0.3c0,0.1-0.1,0.3,0,0.4c0.1,0.3,0.4,0.4,0.6,0.3
			C417.4,317.2,418.8,315.9,419.6,315.6C419.6,315.6,419.6,315.6,419.6,315.6z M411.4,319.5c-0.3-0.7-0.6-1.5-0.6-2.4
			c-0.2,0-0.3-0.1-0.5-0.1c-0.1,0,0,0-0.2,0.1c0,0.1-0.1,0.2-0.2,0.3c-0.2,0.6,0.7,2.2,0.8,2.8c0.2,0,0.5,0.1,0.6,0.2
			c0.3-0.1,0.3-0.2,0.5-0.3C411.7,319.8,411.5,319.8,411.4,319.5z M411.4,322.7h0.2c0-0.1,0-0.2,0.1-0.3c-0.1,0-0.1-0.1-0.2-0.1
			c0,0-0.1,0.1-0.1,0.1C411.3,322.5,411.3,322.6,411.4,322.7z M415.2,326c-0.1,0.3-0.2,0.6-0.4,0.8c0,0.7,0.5,0.5,0.9,0.6
			c0.6,0.1,1.4-0.1,2-0.4c0.2-0.1,0.3-0.2,0.5-0.2c-0.1-0.3-0.3-0.4-0.4-0.6c-0.8,0-1.4-0.4-2.1-0.4
			C415.6,325.9,415.4,326,415.2,326z"/>
	</g>
</g>
<line class="st2" x1="425.3" y1="186.9" x2="425.3" y2="193.8"/>
<line class="st2" x1="369.3" y1="243.1" x2="376.2" y2="243.1"/>
<line class="st2" x1="481.5" y1="242.9" x2="474.6" y2="242.9"/>
<circle class="st3" cx="425.4" cy="243" r="3.4"/>
<polygon class="st3" points="425.3,242.7 452.4,216.6 449.2,216.4 458,212.1 454,220.5 453.7,217.7 425.2,242.7 406.7,233.1 
	407.4,235.4 401.9,229.8 409.7,232.1 407.3,232.4 "/>
</svg>
