<?xml version="1.0" encoding="utf-8"?>
<!-- Generator: Adobe Illustrator 21.0.0, SVG Export Plug-In . SVG Version: 6.00 Build 0)  -->
<svg version="1.1" id="Calque_1" xmlns="http://www.w3.org/2000/svg" xmlns:xlink="http://www.w3.org/1999/xlink" x="0px" y="0px"
	 viewBox="0 0 841.9 595.3" style="enable-background:new 0 0 841.9 595.3;" xml:space="preserve">
<style type="text/css">
	.st0{fill:none;stroke:#FFFFFF;stroke-miterlimit:10;}
	.st1{fill:#DADADA;}
</style>
<line class="st0" x1="424.3" y1="187.9" x2="424.3" y2="194.8"/>
<ellipse class="st1" cx="413.1" cy="392.1" rx="104.4" ry="6"/>
<g>
	<g>
		<path d="M507.5,360.1c-0.4-0.7-1-1.7-1.3-2.5c0-0.5-0.1-0.9-0.1-1.4c-0.1-0.1-0.4-0.4-0.4-0.6c-0.2-0.6,0-1.1-0.3-1.8
			c-0.3-0.7-0.9-1.3-1.4-1.7c-0.1-1.8-0.4-3-1.2-4.2c-0.2-0.3-0.7-0.7-0.9-1.1c-0.1-0.4-0.2-0.9-0.3-1.3c-0.3-0.6-1-1.4-1.2-2
			c0-0.2-0.1-0.5-0.1-0.7c-0.2-0.1-0.3-0.3-0.5-0.4c0-0.2,0-0.4,0-0.6c-0.5-0.9-1.5-1.6-2-2.5c-0.3-0.5-0.3-1.1-0.6-1.6
			c-0.2-0.4-0.8-0.7-1-1.1c-0.4-0.7-1.1-2.1-1.4-2.9c-0.2-0.4-0.1-0.6-0.3-1c-0.6-1.1-1.1-2-1.6-3.2c-0.2-0.4-0.7-0.8-0.8-1.2
			c0-0.2,0-0.4,0-0.6c-0.2-0.4-0.9-1.1-1-1.5c-0.4-1-0.6-1.7-1.1-2.6c-0.2-0.1-0.3-0.3-0.5-0.4c-0.1-0.4-0.3-0.7-0.4-1.1
			c-0.1-0.2-0.5-0.1-0.6-0.3c0-0.1,0-0.3,0-0.4c-0.3-0.7-0.9-1.5-1.3-2.2c-0.1-0.3-0.2-0.7-0.3-1c-0.3-0.7-1-1.5-1.4-2.3
			c0-0.2,0-0.4,0-0.6c-0.3-0.7-1-1.3-1.3-1.9c-0.2-0.3-0.1-0.6-0.3-1l-0.6-0.6c-0.5-0.8-0.6-1.8-1.1-2.6c-0.2-0.2-0.4-0.4-0.6-0.6
			c0.1-0.2-0.8-1.8-1-2.2c-0.2-0.3-0.8-0.5-1-0.8c-0.1-0.3-0.2-0.6-0.3-0.9c-0.2-0.3-0.6-0.7-0.8-1c0-0.2-0.1-0.5-0.1-0.7
			c-0.2-0.2-0.4-0.3-0.6-0.5c-0.3-0.5-0.2-1.1-0.4-1.7c-0.1-0.3-0.5-0.5-0.6-0.7c-0.2-0.4-0.1-0.7-0.4-1.1c-0.2-0.2-0.4-0.4-0.6-0.6
			c-0.1-0.3-0.1-0.7-0.2-1c-0.2-0.1-0.5-0.3-0.7-0.4c-0.2-0.3-0.2-0.7-0.4-1c-0.7-1.1-1.2-2.2-1.8-3.4c-0.2-0.2-0.3-0.3-0.5-0.5
			c-0.6-1-1.1-2.4-1.8-3.2c-0.1-0.1-0.3-0.1-0.4-0.2c-0.1-0.3-0.2-0.6-0.3-0.9c-0.4-0.6-1-1.3-1.3-2c-0.1-0.3-0.1-0.5-0.2-0.8
			c-0.2-0.3-0.6-0.6-0.8-0.9c-0.4-0.7-0.5-1.4-1-2.1c-0.2-0.1-0.3-0.3-0.5-0.4c-0.2-0.3-0.1-0.5-0.2-0.8c-0.2-0.1-0.3-0.3-0.5-0.4
			c-0.3-0.5-0.5-0.9-0.8-1.4c-0.1-0.1-0.3-0.1-0.4-0.2c-0.5-0.7-0.6-1.5-1.3-2.1c0-0.4,0.1-0.3,0.3-0.5c-0.2-0.3-0.5-0.1-0.8-0.5
			c-0.3-0.4-0.5-1-0.8-1.4c-0.3-0.2-0.5-0.5-0.8-0.7c-0.1-0.3-0.2-0.6-0.3-0.9c-0.2-0.2-0.6-0.4-0.7-0.6c-0.1-0.2-0.1-0.5-0.2-0.7
			c-0.1-0.1-0.3-0.1-0.4-0.2c0-0.1,0-0.3,0-0.4c-0.2-0.3-0.6-0.9-0.8-1.1c-0.1,0-0.1,0-0.2,0c-0.1-0.4-0.3-0.7-0.4-1.1
			c-0.5-0.5-0.9-0.9-1.4-1.4c-0.1-0.3-0.2-0.6-0.2-0.9c-0.2-0.5-0.6-1-0.8-1.5c-0.4-0.8-0.4-1.5-0.9-2.3c-0.5-0.8-1.4-1.3-1.9-2
			c-0.6-0.8-1-1.7-1.6-2.5c-0.2-0.3-0.6-0.6-0.8-0.9c-0.1-0.4-0.3-0.8-0.5-1.2c-0.2-0.2-0.4-0.3-0.6-0.5c-0.3-0.4-0.4-0.9-0.7-1.4
			c-0.1-0.1-0.2-0.1-0.3-0.2c-0.3-0.5-0.4-1.1-0.8-1.6c-0.2-0.3-0.6-0.6-0.8-0.9c-0.4-0.6-0.4-1.2-0.8-1.8c-0.2-0.3-0.6-0.4-0.8-0.6
			c0-0.2,0-0.5,0-0.7c-0.2-0.2-0.5-0.4-0.7-0.6c0-0.2-0.1-0.4-0.1-0.6c-0.3-0.7-0.9-1.4-1.3-2.1c0-0.1,0-0.3,0-0.4
			c-0.4-0.7-1.1-1.4-1.4-2.2c0-0.2,0-0.3,0-0.5c-0.2-0.3-1.4-1-1.6-1.4c-0.1-0.3-0.1-0.6-0.2-0.9c-0.2-0.3-0.7-0.6-0.9-0.9
			c0-0.2,0-0.5,0-0.7c-0.2-0.5-0.8-0.9-1-1.4c-0.3-0.5-0.3-1.1-0.7-1.6c-0.2-0.1-0.3-0.2-0.5-0.3c0,0-0.4-0.8-0.4-0.8
			c0-0.1,0-0.2,0.1-0.3c-0.1-0.3-0.5-0.6-0.6-0.8c0.1-0.3-0.2-1.2-0.5-1.8c-0.2-0.3-0.6-0.6-0.7-1c-0.3-0.6-0.3-1.2-0.6-1.8
			c-0.2-0.2-0.5-0.5-0.7-0.7c-1-1.4-1.4-3.5-2.4-5c-0.9-1.4-1.8-3-2.7-4.4c-0.4-0.6-0.5-1.3-0.9-1.9c-0.2-0.2-0.5-0.5-0.7-0.7
			c-0.4-0.6-0.4-1.6-0.8-2.2c-0.2-0.4-0.7-0.9-0.9-1.3c-0.2-0.4-0.1-0.7-0.4-1.1c-0.2-0.2-0.3-0.3-0.5-0.5c0-0.3-0.1-0.5-0.1-0.8
			c-0.4-0.9-1.1-2-1.6-2.9c-0.3-0.5-0.3-0.9-0.6-1.5c-0.6-1.4-1.8-2.8-2.3-4.2c-0.3-0.7-0.3-1.1-0.7-1.7c-0.2-0.2-0.4-0.4-0.6-0.6
			c-0.5-0.7-0.6-1.7-1.1-2.4c-0.2-0.3-0.5-0.8-0.7-1.1c-0.3-0.2-0.5-0.5-0.8-0.7c-1.4-2.3-2.9-4.1-5-5.7c-0.2-0.3-0.5-0.5-0.7-0.8
			c-0.7-0.5-1.6-0.7-2.4-1.2c-0.6-0.4-1.2-1.1-1.8-1.4c-0.6-0.2-1.5-0.2-1.9-0.4c-0.9-0.4-2-0.8-3-1.1c-0.7,0-1.5,0-2.2,0
			c-0.3-0.1-0.9-0.3-1.3-0.2c-0.4,0.1-0.5,0.4-0.8,0.6c-0.4,0.2-0.6,0-0.9,0.1c-0.3,0.1-0.5,0.5-0.7,0.7c0.1,0.6,0.5,0.8,0.7,1.3
			c0,0-0.1,0.1-0.1,0.1c-1.2,0-1.6-0.3-2.9-0.4c-0.3,0.4-0.8,0.5-1.2,0.8c-0.8,0.6-3.4,2.9-3.5,4c-0.7,0.1-0.4,0.5-0.9,0.8
			c0,0.3-3,4.4-2.9,4.6c0.2,0,0.3,0,0.4-0.1c0.1,0,0.1,0,0.2,0c0,0.2,0,0.3,0,0.5c0.3-0.1,3.4-4,3.5-4.3c0.5,0.2,1.2,0.9,1.4,1.4
			c0,0.2,0,0.5,0,0.7c0.1,0,0.2,0.1,0.3,0.1c0,0-0.1,0.1-0.1,0.1c0,0.1,0.1,1.6,0.1,1.9c0.1,0.5,0.3,0.9,0.4,1.5
			c0.3-0.1,0.1,0.1,0.3-0.2c0.4,0.1,0.3,0.2,0.7,0.3c0,0.1,0,0.2,0,0.3c0.2,0,0.3,0,0.4-0.1c0.1,0,0.1,0,0.2,0
			c-0.1-1.1-0.3-2.5-1.1-2.8c-0.1-0.1-0.2-0.1-0.4-0.1c0-0.3-0.1-0.3,0-0.4c0.1-0.2,0.1-0.2,0.2-0.4c0.1,0,0.2,0,0.4,0
			c-0.1-1-1.2-3.4-0.9-4.1c0-0.2,0-0.5,0-0.7c0.1,0.1,0.2,0.1,0.4,0.1c0-0.7,0.4-0.9,0.8-1.2c0-0.1,0-0.2,0-0.3
			c0.5-0.1,0.4-0.3,0.7-0.1c0.4,0,0.5-0.1,0.6-0.5c0.5,0,1.3,0,1.7,0.2c0.6,0.1,0.5,0.6,1,0.8c0.5,0.2,0.8-0.1,1.2,0.2
			c0.1,0,0.1,0,0.2,0c0.1,1.7-0.7,2.5-0.9,4c0.2,0.2,0.3,0.2,0.4,0.5c0.2,0,0.4,0.1,0.6,0.1c0-0.1,0-0.2,0-0.3
			c0.7-0.2,1.3-1.3,1.1-2.2c0.4-0.2,0.8-0.3,1.1-0.7c1.3,0,3,0.6,3.5,1.6c0.3,0.4-0.5,0.6-0.7,0.9c-0.4,0.9,0.2,2.6-0.5,3.3
			c0.1,0.3,0.1,0.4,0.2,0.6c0.4,0.1,1.1,0.2,1.5-0.1c0.4-0.3,0.9-2.7,0.5-3.3c0-0.2,0-0.3,0-0.5c0.2,0,0.3-0.1,0.5-0.1
			c1.2,1.3,3.8,2.7,4,5c-1.7,0.1-2.3,2-3.4,2.8c0,0.3,0,0.5,0.1,0.6c0,0.1,0,0.1,0,0.2c0.6,0,1.4-0.1,1.7-0.5
			c0.1-0.1,0.1-0.1,0.1-0.3c1.6,0,1.3-1.8,2.3-1.9c0.6,0.2,2.3,3,2.8,3.7c0.2,0.3,0.5,0.9,0.4,1.2c-0.2,0.4-0.5,0.2-0.8,0.5
			c-0.3,0.2-0.4,0.7-0.6,1c-0.2,0.2-0.5,0.1-0.7,0.3c-0.2,0.3-0.5,0.5-0.7,0.8c0.1,0.2,0,0.2,0.1,0.3c0,0.1,0,0.1,0,0.2
			c1.6,0.2,2.8-0.2,3.2-1.6c0.1,0,0.1,0,0.2,0c1,1.1,1.6,2.7,2.6,4c0,1.1-0.6,0.7-1.2,1.1c-0.3,0.2-0.5,0.6-0.8,0.8
			c0,0.2,0,0.1-0.1,0.2c0.1,1.2,0.7,0.8,1.4,1.2c0.7-0.1,0.6-0.4,0.9-0.9c0.1-0.1,0.2,0,0.5,0c0-0.3,0-0.4,0.1-0.5
			c0-0.1,0-0.1,0-0.2c0.4,0.2,1.8,2.5,1.6,2.9c-0.1,0.7-1.2,1.2-1.9,1.4c0,0.2,0,0.1-0.1,0.2c0.1,0.6,0.4,0.7,0.8,0.9
			c0.9,0.6,1.7-0.4,2.2-0.6c0,0,0.1-0.1,0.1-0.1c0.4,0.7,1,1.5,1.4,2.2c0.3,0.5,0.3,1.1,0.6,1.5c-0.1,0.8-1.3,1.4-2,1.7
			c0,0.3,0,0.5,0.1,0.7c0.1,0.4,0.1,0.4,0.2,0.6c0.5,0.1,1.2,0.3,1.6-0.1c0.2-0.1,0.3-0.7,0.4-0.9c0.3,0.1,0.4,0.1,0.6,0
			c0.2,0.2,0.2,0.5,0.3,0.7c0.2,0.2,0.5,0.5,0.7,0.7c0.4,0.6,0.5,1.3,1,1.8c0,0.2,0,0.2-0.1,0.3c-0.1,0.2-2,2-2.2,2.1
			c0.1,0.4,0.2,0.5,0.3,0.8c0.6,0,0.8-0.2,1,0.2c0.3,0,0.7,0,1,0c0.1-0.1-0.2-0.4,0-0.6c0.2-0.3,0.6-0.3,0.8-0.8
			c0.7,0.2,0.6,0.9,0.8,1.6c0.3,0.7,0.9,1.8,1.5,2.4c0.1,1.1-0.8,1.9-1.6,1.8c-0.2,0.6-0.5,0.9-0.4,1.9c0.7,0.1,1.5,0.4,2-0.1
			c0.2-0.1,0.2-0.6,0.4-0.7c0.3-0.2,0.4,0,0.6-0.2c0.7,0.5,0.8,1.5,1.2,2.4c0.5,1.1,1.5,2.2,1.5,3.7c-0.8,0.2-1.1,1-2,1.2
			c0,0.2,0,0.1-0.1,0.2c0.1,0.5,0.2,0.5,0.3,0.8c0.5,0,1.2,0,1.4,0.1c0.4-0.1,1.1-0.6,1.3-1c0.7,0.5,0.7,1.2,1.2,2
			c0.2,0.4,0.7,0.8,1,1.2c0.2,0.2,0.2,0.6,0.3,0.8c0,0.2,0,0.3-0.1,0.4c-0.1,0.1,0,0-0.3,0c-0.4,1.2-1.4,1.5-2.4,2.2
			c0,0.2,0,0.1-0.1,0.2c0.1,0.5,0.1,0.5,0.3,0.8c0.3,0,0.2,0.1,0.4-0.2c0.3,0.1,0.2,0,0.4,0.3c1-0.2,2.4-0.7,3-1.7
			c0.4,0.5,0.5,1.5,0.9,2c0.1,0.1,0.3,0.1,0.4,0.2c0.2,0.3,0.5,0.6,0.6,0.9c0.3,0.5,0.5,1.2,0.7,1.5c-0.1,0.3-2.4,2.5-2.8,2.8
			c0.1,0.3,0.1,0.6,0.2,0.9c0.4,0,0.4-0.1,0.7,0.2c0.8-0.1,2.7-1.7,2.9-2.3c0.7,0.3,1.6,2.8,2.2,3.5c-0.1,0.6-0.6,0.5-0.9,0.2
			c-1.2,0-1.3,1.1-1.4,2.2c0.1,0.1,0.1,0.2,0.2,0.3c0.3,0.1,0.6,0.2,0.9,0.3c0.3-0.1,1.9-0.9,2.1-1.1c0.2,0.1,0.8,0.3,0.9,0.4
			c0.1,0.2,0,0.5-0.1,0.6c0.1,0,0.2,0.1,0.3,0.1c0.2,0.5,0.5,0.9,0.7,1.4c0.2,0.2,0.5,0.3,0.7,0.5c0.2,0.3,0.3,0.9,0.5,1.2
			c-0.1,1-0.7,0.6-1.3,1.1c-0.2,0.2-0.3,0.7-0.6,0.8c-0.4,0.2-0.6,0-0.8,0.2c-0.2,0.1-0.4,0.6-0.2,0.9c0.1,0.4,0.2,0.3,0.4,0.6
			c0.3,0,0.8,0.1,1.1,0c0.4-0.1,0.6-0.8,1.1-0.4c0.5-0.2,0.4-0.5,0.8-0.9c0.1-0.1,0.2-0.1,0.3-0.2c1.1,0.1,1.8,2.3,2.3,3.1
			c-0.2,0.9-0.8,1.4-1.5,1.8c-0.3,0.1-0.6,0.1-0.9,0.2c-0.1,0.1-0.1,0.3-0.2,0.4c-0.3,0.2-0.5,0.2-0.7,0.3c0.1,0.4,0.1,0.7,0.3,0.9
			c0.2,0.3,0.4,0.3,0.6,0.5c1.2,0,1.1-0.6,1.8-1.1c0.4-0.2,0.6-0.1,0.9-0.4c1.5,0.2,1.9,2.3,2.6,3.3c0,0.7-0.8,1-1.2,1.1
			c0,0.1,0,0.2,0,0.3c-0.9,0.1-1.3,1.5-1.1,2.3c1.2,0,2.1,0,2.4-1c0.5,0,0.6,0,0.8,0.3h0.2c-0.1-0.3-0.1-0.3-0.3-0.5
			c0-0.3,0.1-0.3,0.2-0.5c0.6,0.1,0.6,0.7,0.8,1.2c0.4,0.7,0.9,1.4,1.3,2.1c0.2,0.3,0.2,0.7,0.3,1c0,0.1,0,0.2-0.1,0.3
			c-0.3,0.1-0.7,0.1-1.1,0.3c-0.2,0.1-0.2,0.5-0.3,0.6c-0.2,0-0.4,0.1-0.6,0.1c-0.4,0.3,0,0.5-0.8,0.8c0,0.4,0.1,0.5,0,0.7
			c0.3,1.5,2-0.1,2.9-0.2c-0.1-0.2-0.1-0.1,0-0.3c0.2-0.4,0.6-0.3,0.7-0.7c1.1,0.2,2.4,3.4,3.3,4.1c0,0.3,0.1,0.6,0,0.7
			c-0.2,0.2-1.2,0.4-1.5,0.6c-0.2,0.2-0.3,0.5-0.5,0.7c-0.2,0.1-0.5,0-0.6,0.2c-0.2,0.2-0.2,0.4-0.5,0.6c0,0.2,0,0.3-0.1,0.4
			c0,0.5,0.1,0.6,0.2,0.9c0.6,0.1,1.3,0.3,1.8-0.1c0.2-0.1,0.1-0.5,0.2-0.6c0.3-0.3,0.8-0.4,1.2-0.7c0.3-0.3,0.1-0.6,0.6-0.8
			c0,0,0-0.1,0-0.1c0.6,0.3,1.5,3.1,2.1,3.9c0,0.9-0.4,0.6-0.9,1c-0.1,0.1-0.1,0.1-0.1,0.3c-0.3,0-0.6,0-0.7,0.1
			c-0.1,0.1,0,0.1,0.1,0.3c-0.4,0.2-0.6,0.6-1,0.8c0.1,0.6,0.4,0.8,0.5,1.3c1.6,0.3,2.1-1.2,3.3-1.4c0.2,0.8,0.9,1.5,1.4,2.2
			c0.2,0.3,0.1,0.6,0.2,0.9c0.1,0.1,0.3,0.2,0.4,0.3c0.2,0.3,0.4,0.8,0.5,1.1c0.1,0,0.2,0,0.3,0c0.1,0.4,0.1,0.7,0.3,0.9
			c0,0.2,0,0.4,0,0.6c-0.4,0-1-0.1-1.4,0.2c-0.4,0.3-0.5,0.6-1.2,0.7c-0.1,0.5-0.6,0.9-0.9,1.1c0.1,0.6,0.4,0.7,0.6,1.1
			c0.4,0,1,0.2,1.3,0c0.3,0.2,0.2,0.1,0.2,0.4c0.1,0,0.2,0,0.3,0c0.1-0.1,0-0.5,0.1-0.7c0.3-0.6,1.1-0.8,1.4-1.3
			c0.9,0.3,1.6,2.6,2,3.6c-0.2,0.2,0,0.2-0.2,0.4c-0.2,0.4-0.4,0.1-0.8,0.9c-0.1,0-0.2,0-0.4,0c0,0.2,0,0.5,0,0.7
			c-0.3,0.1-0.6,0.2-0.8,0.1c-0.1,0-0.1,0-0.2,0c0.2,1.1-0.4,0.9,0.4,2c0.4,0,0.9,0,1.1,0.1c0.4-0.3,0-0.2,0.2-0.5
			c0.2,0,0.4-0.1,0.6-0.1c0.1-0.1,1-1.3,1.1-1.5c0.7,0.2,0.5,0.7,0.8,1.2c0.4,0.7,1.1,1.3,1.5,2c0.2,0.4,0.2,0.9,0.5,1.3
			c0.2,0.3,0.8,1.1,0.6,1.6c-0.3,0.7-1.1,0.6-1.6,1c-0.4,0.3-0.5,1-0.9,1.2c-0.2,0.1-0.5,0.1-0.6,0.2c0,0.2,0,0.3-0.1,0.4
			c0,0.2,0,0.3,0.1,0.4c0.1,0.1,0.1,0.1,0.3,0.1c0,0.1,0,0.2,0,0.3c0.4,0,0.6,0.3,0.9,0.2c0.5-0.1,2.4-1.2,2.5-1.7
			c0.1,0,0.1,0,0.2,0c0.8,0.9,1.6,2.1,2.2,3.3c-0.9,0.5-1.5,1.7-2.3,2.4c0,0.9,0.3,0.8,0.6,1.3c0.4,0,0.8,0.2,1,0
			c0.1-0.1,0.9-0.9,1-1c0-0.2,0-0.3,0.1-0.5c0.1-0.2,0.6-0.3,0.7-0.5c1.3,0.5,1.2,2.9,2.2,3.8c0,0.5,0.1,0.4-0.3,0.4
			c0,0.3,0.1,0.3,0.1,0.5c-0.7,0.4-1.5,1-2,1.6c-0.2,0.2-0.1,0.4-0.3,0.6c0,0.1,0,0.1,0,0.2c0.4,0.2,0.7,0.4,1,0.7
			c1.5-0.1,1.6-1,2.6-1.5c0,0,0-0.1,0-0.1c0.7,0.3,0.9,1.3,1.3,2c0.5,0.8,1.3,1.4,1.6,2.4c0.1,0.1,0,0,0.1,0.2
			c-1.2,0.7-2.1,1.7-3.2,2.5c0.1,0.5,0.4,1,0.5,1.2c0.5,0.8,2.1-0.2,2.2-0.3c0.1-0.2,0-0.2,0-0.5c0.4-0.1,0.3-0.3,0.5-0.5
			c0.2-0.1,0.4,0,0.5-0.1c0.2-0.2,0.1-0.5,0.2-0.8c1,0.3,1.6,2.6,2.5,3.3c0,0.4,0.1,0.5,0.1,0.8c-0.3,0.1-0.5,0.2-0.8,0.3
			c-0.3,0.3-0.5,1.4-1.3,0.9c-0.1,0-0.1,0-0.2,0c0,0.2,0,0.3,0,0.5c-0.3,0-0.5,0-0.6,0.2c-0.2,0.1-0.3,0.2-0.4,0.3
			c0.1,3.3,3.8,0.4,4.2-0.5c0.3,0.1,1.6,2.3,2,2.8c0,0,0,0.1,0,0.1c-0.1-0.1-0.1-0.1-0.2-0.2c-0.1,0-0.2,0-0.3,0
			c0,0.1,0.1,0.3,0.1,0.4c-0.2,0.5-0.9,0.6-1.1,1.1c-0.2,0-0.4,0-0.6,0c-0.1,0.7-0.6,1.2-0.9,1.6c0,0.3,0,0.5,0.1,0.6
			c0.1,0.2,0.3,0.3,0.4,0.5c1.8,0,2.5-2.1,3.6-2.3c0.3,0.1,1.2,1.5,1.4,1.8c-0.1,0.2-0.1,0.4,0,0.7c0.3,0.5,0.7,0.6,0.8,1.4
			c-0.5,0.1-2.3,1.8-2.4,2.3c-0.1,0.2-0.1,0.6,0.1,0.8c0.1,0.2,0.2,0.2,0.3,0.4c1.5,0,2-0.7,2.6-1.5c0.2-0.2,0.4-0.2,0.6-0.1
			c0.9,0.1,2.2,2.5,2.3,3.6c-2.6-0.2-2.3,1.3-3.6,2.5c0,0.5,0.1,0.6,0.1,0.9c0.1,0.1,0.3,0.1,0.4,0.2c1.6-0.2,2.9-1.4,3.5-2.7
			c0.2,0.2,0.4,0.7,0.5,0.9c0,0.1,0,0.2-0.1,0.3c0.4,0.8,1,1.8,1.4,2.7c-0.4,0.2-1,0.3-1.5,0.4c0-0.8,0-1.3,0-1.9
			c-0.3,0.2-0.2,0.6-0.3,0.9c0.2,1.5-0.6,1.7-1.7,1.7c0.1,0.3,0.3,0.6,0.1,1c0.2,0.5,0.6,0.6,0.9,1c0.2,0,0.5,0,0.8,0.1
			c0.4,0,0.4-0.1,0.6-0.2c0-0.1,0-0.2,0-0.3c0.4,0,0.9-0.2,1.2-0.4c0.4,0,0.6,0.1,0.8,0.2c0.1,1,0.3,2.2,0.7,2.8c0,0.1,0,0.1,0,0.2
			c0.3,0,0.3,0,0.5-0.2c0.1,0,0.1,0,0.2,0c0,0.3,0,0.5,0,0.8c-0.8,0-1,0.1-1.6,0.4c-0.1-0.2-0.2-0.2-0.3-0.4
			c-0.6,0.1-1.3,0.6-1.7,0.9c0,0.8,0.2,1,0.5,1.5c0.6,0.2,2.3,0.4,2.9-0.2c0.2,0,0.2,0,0.4,0.1c0,0.3,0.1,0.5,0.1,0.8
			c0.1,0,0.2,0,0.4,0c0,0,0,0.1,0,0.1c0.5,0.7,0.3,2.5,0.4,3.5c-0.8-0.2-1.2-0.9-1.9-1.1c-0.2-0.1-1.4,0.2-1.6,0.4
			c-0.3,0.2-0.3,0.5-0.5,0.8c0,0.2,0.1,0.3,0.1,0.5c0.8,0.4,1.9,0.8,2.7,1.3c0,0.8-0.4,0.7-0.7,1.2c-0.1,0.3-0.1,0.6-0.2,0.9
			c-0.1,0-0.1,0-0.3-0.2l-0.3,0c0.6,0.9,0.1,0.9-0.3,1.8c-0.8-0.1-2.6-2-2.9-2.8c-0.5,0.2-0.6,0.6-1.4,0.6c-0.1,0.2-0.1,0.3-0.3,0.4
			c0.5,1.2,1.4,1.9,2.3,2.6c0.2,0.2,0.3,0.6,0.5,0.8c-0.4,0.7-1.2,0.3-2,0.6c-0.6,0.2-1.6,0.7-2.3,0.9c-0.2,0-0.4-0.1-0.7-0.1
			c-0.6,0.1-1.5,0.3-1.9,0.7c-2.4,0.1-1.1-1.1-1.7-2.2c0-0.5-0.1-0.7-0.3-1c-0.4,0-0.7-0.2-0.9,0c-0.5,0-0.5,0.1-0.7,0.3
			c-0.1,0.4-0.4,1-0.2,1.6c0,0.1,0.3,0.3,0.3,0.4c0.1,0.4-0.1,0.8,0.2,1.2c0,0.3,0,0.4-0.1,0.6c-1.8-0.1-3.5,0.1-5.1,0
			c0-0.5-0.1-0.8-0.3-1.2c0,0,0.1-0.1,0.1-0.1c0.1,0.1,0.3,0.3,0.4,0.4c0,0,0.1-0.1,0.1-0.1c0,0,0-1.3-0.2-1.5
			c-0.1-1.1-0.8-1.2-1.7-1.1c-0.5,1.2-0.8,1.6-0.6,3.7c-0.8,0-1.4,0.3-2,0.3c-0.1,0-0.5-0.3-0.7-0.3c-0.4-0.1-1.9,0-2.1,0.1
			c-0.1-0.1-0.1-0.2-0.2-0.3c-0.1-0.1,0-2.3-0.5-2.9c-0.4-0.5-0.7-0.3-1.1-0.6c-0.4,0.1-0.4,0.2-0.6,0.4c0,0.7,0,2.5,0.4,3.1
			c0,0.2,0,0.2-0.1,0.3c-0.4,0.3-0.7-0.1-1.3,0.1c-0.8,0.3-2.2,0.1-3.2,0.3c-0.1-0.1-0.2-0.2-0.3-0.3c-0.1-0.5-0.2-2-0.4-2.4
			c-0.1-0.9-0.9-1.2-1.5-1.6c-0.2,0.4-0.4,0.8-0.7,1.1c0.1,0.9,0.6,2.7,1,3.2c0,0.1,0,0.1,0,0.2c-1.2-0.1-1.8,0-2.7,0.2
			c-0.5,0.1-1.1-0.1-1.3,0c-0.4,0-0.9,0-1.3,0c-0.2-0.6-0.3-1.8-0.1-2.3c-0.1-1-0.8-1.4-1.3-1.9c-1.1,0.1-0.7,1.6-0.9,2.5
			c0.7,0.6,0.1,0.7,0.3,1.3c0.1,0.2,0.3,0.2,0.1,0.5c0,0.1,0,0.1,0,0.2c-1.2,0.3-2.4,0.2-3.5,0.1c-0.8-0.1-1.5,0.4-2.1,0.1
			c-0.9-0.5,0.2-3-0.5-4c-0.2-0.4-0.5-0.4-0.7-0.7c-0.9,0-0.8,0.6-1.4,0.6c0.1,0.3,0.4,0.6,0.3,1.1c0,0.1-0.2,0-0.2,0.3
			c0.1,0.1,0.1,0.1,0.2,0.2c0,0.2-0.3,0.1-0.2,0.5c0.1,0.8,0.4,1.4,0.5,2.3c-1.2,0.1-2.3,0.2-3.1,0.3c-0.6,0.1-1.3-0.5-2,0.1
			c-0.1-0.2-0.3-0.7-0.4-0.9c0-0.3,0-0.4,0.1-0.5c0.1-0.1,0.2,0,0.5,0c-0.1-0.4-0.3-0.6-0.6-0.8c0.1-0.4,0.2-1,0.2-1.2
			c-0.2-0.9-0.7-0.9-1.1-1.4c-0.6,0.1-0.7,0.4-1.1,0.7c0.1,1.3-0.6,2.9,0.8,3.7c0,0.1,0,0.1,0,0.2c-1.7,0.3-3.2,0.2-4.7,0.1
			c-0.2,0-1,0.3-1,0.3c-0.4-0.1-0.5-0.4-1.1-0.4c0-0.7,0.3-1.7,0-2.2c0-0.3,0.5-0.9,0.7-1.1c-0.1-0.3-0.1-0.3-0.3-0.5
			c0-0.1,0-0.3,0-0.4c0.2,0.1,0.3,0.1,0.5,0.2c0.1,0,0.1,0,0.2,0c-0.2-0.7-1.2-0.8-1.7-1.1c-1.1,0.4-0.8,2.3-1.4,3.3
			c-0.1,0.1,0,0-0.3,0c0.2,0.6,0.4,0.9,0.5,1.9c-1.1,0.1-2.9-0.1-3.8,0.3c-0.1-0.2-0.1-0.4-0.3-0.6c0.1-0.2,0.1-0.1,0.3-0.3
			c0.3-0.5,0.2-1.7,0.3-2c-0.2-0.5-0.6-1.1-0.8-1.5c-0.4,0.1-0.4,0.2-0.9,0.2c-0.1,1-1.2,3.1-0.6,3.9c-0.1,0.3-0.3,0.3-0.6,0.3
			c-0.1-0.3-0.1-0.4-0.2-0.6c0-0.1,0-0.1,0-0.2c-0.1,0-0.1,0-0.2,0c0.1,0.2,0,0.2,0.1,0.3c0,0.2,0,0.4,0,0.6c-0.4-0.2-1.9-0.4-2.4,0
			c-0.5,0-0.9,0-1.4,0c0.2-0.5,0.3-1.1-0.1-1.5c0.1-0.3,0.2-0.4,0.4-0.5c-0.2-0.7-0.6-1-0.9-1.5c-0.3,0-0.8,0.1-1,0.3
			c-0.6,1-0.2,2.2,0,3.6c-0.5,0-0.7,0.2-0.9,0.3c-0.2,0-3.3-0.1-3.4-0.1c-0.4,0-0.9,0-1.3,0c0-0.5-0.4-1.2-0.1-1.9
			c0.2-0.6,0.9-0.8,1-1.6c0.2-0.4-0.3-0.9-0.4-1.4c-0.5,0-0.8-0.2-1.1,0.1c-0.1,0-0.2,0.1-0.3,0.1c0,0.1,0,0.3,0,0.4
			c-0.1,0-0.2,0-0.3,0c-0.2,0.6-0.6,1.4-1.1,1.7c-0.1,0.1-0.5,0-0.8,0c0.1,0.2,0.3,0.2,0.6,0.3c-0.1,0.8-0.3,1.5,0.3,2
			c0,0.1,0,0.1,0,0.2c-0.6,0-2.9,0.2-3.4-0.1c-0.1,0-0.1,0-0.2,0c0.2-2.4,1.1-1.9-0.6-3.7c-0.3,0-0.4,0-0.6,0.1
			c-0.6,0.2-0.6,1.8-0.9,2.4c0.1,0.3,0.2,1.2,0.2,1.3c0,0.1,0,0.2-0.1,0.3c-1.7,0-2.8,0-4.6,0c-0.1-0.8,0.1-1.4,0.1-2.2
			c0.1,0,0.2,0,0.4,0c0-0.1,0-0.1,0-0.2c-0.3-0.1-0.6-0.3-0.9-0.5c-0.1-0.1,0,0,0-0.1c-0.1-0.4,0-0.3-0.2-0.5c-0.1,0-0.4,0-0.5,0
			c-0.6,0-0.6,0.1-0.9,0.3c-0.1,0.5-0.2,0.7-0.1,1.2c-0.1,0-0.2,0-0.3,0c0.1,0.7,0.2,1.4,0.4,1.8c-0.2,0.5-1.9,0.5-2.3,0.2
			c-0.5,0-0.4-0.1-0.5,0.2c-0.6,0-1.2,0-1.8,0c0-1.1,0.5-2.2-0.1-2.9c-0.2-0.3-0.6-0.3-0.8-0.5c-0.3,0.1-0.5,0.1-0.6,0.3
			c-0.4,0.5-0.8,2.3-0.7,3.2c-2,0.2-3.2,0.3-5,0.4c0.1-0.8,0.2-1.3,0.3-2.2c0.1-0.6-0.2-0.9-0.2-1.4c0,0-0.1-0.1-0.1-0.1
			c-0.4,0-1,0-1.3,0.2c-0.5,0.3-0.8,2.8-0.5,3.5c-1.8,0.7-3.7,0-5.4,0.5c-0.1-0.2-0.1-0.3-0.3-0.4c0.1-0.2,0.3-0.2,0.3-0.4
			c0.3-0.7-0.1-1.5,0.4-2.1c-0.2-0.3-0.5-0.6-0.7-1c-0.2-0.1-0.1,0-0.2-0.1c-1.5,0-1.5,2.6-2,3.7c-0.9,0-4.1,0.5-4.5,0.3
			c-1.8,0.1-1.2-0.7-1-1.8c0.1-0.5-0.1-1.1,0.2-1.5c-0.4-0.3-1.1-0.5-1.9-0.6c-0.4,1.3-0.8,2.5-0.6,4.2c-0.6,0.1-3.4,0.1-3.7,0.4
			c-0.4,0-0.6-0.1-0.9-0.2c0-0.5,0.2-1,0-1.3c0-0.5,0.1-0.5,0.4-0.7c-0.1-0.7-0.5-1.1-0.8-1.7c-0.2,0-0.3,0-0.4,0.1
			c-0.9,0.1-1.9,2.9-1.4,3.6c-0.1,0.2-0.1,0.2-0.2,0.4c-0.5-0.1-3.2-0.1-3.7,0.2c-0.3,0-0.3-0.2-0.7-0.1c0,0,0-0.1,0-0.1
			c-0.2-0.5,0.4-1.2,0.5-1.7c0.2-0.7,0-1.1,0.1-1.7c-0.3-0.2-0.3-0.4-0.5-0.6c0,0-0.7,0.1-1.1,0.1c-0.2,0.5-0.6,1.1-0.8,1.6
			c0,0.2,0,0.5,0,0.7c0,0.1-0.3,0.1-0.4,0.2c-0.3,0.6,0.1,1.1-0.3,1.6c-0.4,0.2-1.9-0.2-2.4,0.2c-0.4,0-1,0.1-1.2-0.1
			c-0.5-0.6,0.1-2.2,0.5-2.6c-0.2-0.8-0.6-0.7-0.8-1.5c-0.3,0.1-0.4,0.2-0.7,0c-0.8,0.1-1.2,2.1-1.2,3.2c-0.1,0-0.2,0-0.3,0
			c0.2,0.5,0.2,0.7,0.2,1.4c-1,0-2.4-0.5-3.2,0c-0.4-0.1-2-0.2-2.5,0.1c-0.1,0-0.1,0-0.2,0c0-0.5,0.2-1.5,0.5-1.8
			c0.3-0.2,0.6-0.1,0.7-0.5c0.2-0.5-0.4-1.3-0.7-1.7c-0.4,0-0.9-0.1-1.1,0.1c-0.4,0.2-1.7,2.9-1.6,3.7c-0.9,0.2-1.4,0.1-2.2,0.3
			c-0.8,0.2-1.2-0.4-1.9,0.1c-0.3,0-0.6,0-0.8-0.1c0.1-0.6,0.4-1.3,0.7-1.7c-0.1-1.2-0.6-1.2-1.1-1.8c-1,0.2-1,1.5-1.3,2.1
			c-0.3,0.5-0.7,0.7-0.6,1.5c-0.5,0-0.9,0.1-1.4,0.1c-0.1,0,0-0.3-0.3-0.2c-0.1,0.1-0.2,0.2-0.3,0.3c-0.8,0.3-2-0.4-2.6,0
			c-0.2,0-0.2,0-0.4-0.1c-0.1-1,0.4-2.1,1.1-2.6c-0.3-1-0.9-1-1.5-1.6c-1.3,0.2-1.4,3.2-1.9,4c-0.1,0.1,0,0-0.2,0.1
			c-0.1-0.2-0.1-0.2-0.1-0.4c-0.2,0.1-0.2,0.2-0.3,0.4c-1.7,0-3.4-0.1-4.7-0.2c0,0-0.1-0.1-0.1-0.1c0.1-0.6,0.8-1.7,1.2-2.1
			c-0.1-0.4,0-0.3,0-0.6c-0.4-0.2-0.7-0.4-0.9-0.9c-0.3,0-0.6,0-0.9,0c-0.3,0.3-0.6,1.2-1,1.4c0,0.1,0,0.3,0,0.4c-0.1,0-0.2,0-0.3,0
			c0.3,0.9,0,0.7-0.2,1.6c-1.1,0.1-2.8,0.1-3.9-0.1c0-0.4,0.1-0.8,0-1c0.3-0.6,1.1-1.1,0.6-2c-0.2-0.3-0.4-0.2-0.6-0.6
			c-0.5,0.1-0.6,0.1-1.2,0.2c-0.5,1.1-1,1.8-1.1,3.1c0,0-0.1,0.1-0.1,0.1c-0.5,0-1-0.2-1.3-0.1c-0.3,0.1-0.4,0.4-0.8,0.3
			c0-0.1-0.1-0.1-0.1-0.2c-0.3,0.1-0.6,0.1-0.9,0.2c-0.6-0.2-1.2-0.3-2-0.3c0-0.5,0.1-0.4,0.1-0.9c0.2-0.1,0,0,0.3,0
			c0.1-0.7,0.3-1,0.5-1.6c0.1-0.1,0-0.1-0.1-0.3c0.1-0.1,0.2,0.2,0.4,0c0.2-0.1,0.2-0.5,0.4-0.7c-0.1-0.5-0.3-0.9-0.5-1.2
			c-0.3-0.3-1-0.4-1.3-0.2c-0.7,0.4-0.9,1.6-1.5,2.2c0.2,0.7,0.2,1.5,0.6,2c0,0.1,0,0.2,0,0.3c-1.7-0.7-3.5-0.3-4.8-1
			c-0.2-0.2-0.1-0.1-0.2-0.4c-0.1,0-0.1,0-0.2,0c0,0.2-0.1,0.2-0.1,0.4c-0.4-0.1-0.5-0.2-1-0.2c0.1-0.3-0.1-0.5,0-0.8
			c0.2-0.2,0.4-0.3,0.6-0.5c0.1-0.2-0.1-0.5,0-0.6c0-0.1,0.3-0.1,0.4-0.2c0-0.3,0.1-0.7,0.1-1c0.4-0.6,0.9-1.3,1.1-2.2
			c-0.3-0.3-0.4-0.6-0.8-0.7c-0.2-0.1-0.6-0.1-0.8-0.1c-1.1,1.3-2.4,2.5-2.2,5.1c-0.3-0.1-0.4-0.4-0.6-0.5c-0.2,0-0.4-0.1-0.6-0.1
			c-0.6-0.3-1.3-0.7-1.9-1.1c-0.5-0.3-0.8-1.1-1.3-1.5c0.3-0.6,1-0.8,1.5-1.3c0.3-0.2,0.3-0.8,0.6-1.1c-0.1-0.3,0-0.2-0.2-0.3
			c0.1-0.2,1.1-0.8,1.2-0.9c0-0.1,0-0.2,0.1-0.3c-0.2-0.2-0.3-0.4-0.4-0.8c-1.3,0.3-1.8,1.3-3,1.7c-0.1,0.1,0,0-0.2,0.1
			c-0.1-0.2-0.2-0.4-0.3-0.5c0,0,0-0.1,0-0.1c-0.3,0.2-0.3,0.4-0.5,0.7c0,0,0,0.1,0,0.1c-1-0.6-0.3-2.1-0.9-3.1
			c-0.1-2,2.1-1.1,3.3-1.8c0.2-0.3,0.4-0.6,0.6-0.9c0.2,0.1,0.4,0.3,0.7,0.1c0.2-0.1,0.3-0.2,0.4-0.3c0-0.3,0-0.4,0.1-0.5
			c0-0.1,0-0.1,0-0.2c-0.2,0-0.4,0-0.7,0c0-0.2,0-0.3,0.1-0.4c0-0.1,0-0.1,0-0.2c-0.5,0-0.7,0.3-1,0.4c-0.4,0.1-0.2-0.2-0.4-0.3
			c-0.3-0.1-1.1,0.3-1.4,0.4c-0.4,0-0.6-0.3-1-0.3c0,0.1,0,0.3,0,0.4c-0.2-0.1-0.2-0.1-0.4-0.2c-0.1-0.9,0.3-0.9,0.5-1.5
			c0-0.4,0-0.8,0-1.2c0.3-1.1,0.4-1.9,0.6-2.9c0.9,0.3,3.1,1.1,3.9,0.3c0.4,0.2,1,1,1.1,1.4c0.1,0,0.1,0,0.2,0
			c-0.1-0.5-0.5-0.9-0.8-1.2c0.1-0.5,0.5-0.4,0.6-0.9c0,0,0.1-0.1,0.1-0.1c0,0-0.1,0-0.1,0c-0.1-0.4-0.2-0.4-0.3-0.6
			c-1.1-0.3-2.8-0.3-3.6-1c0-0.4,0-0.4,0.1-0.6c0.1,0,0.2,0,0.3,0c0-0.8,0.1-1.4,0-2.3c0.2,0,0.2,0,0.3,0.1c0.1,0,0.2,0,0.4,0
			l0.8-2.2c0.1,0,0.2,0,0.3,0c0-0.1,0-0.2,0-0.3c0,0,0.1-0.1,0.1-0.1c0.1,0.1,0.3,0.3,0.4,0.4c0,0.1,0,0.2,0,0.3
			c0.7,0.1,1,0.5,1.4,0.8c0,0.1,0,0.2,0,0.3c1.1-0.1,1.4,0.4,2.3,0.6c0.5,0.1,0.7-0.4,1-0.3c0.2-0.1,0.3-0.2,0.3-0.5
			c0,0,0.1,0,0.1,0c-0.8-1.7-3.2-1.8-4.3-3.2c-0.1,0-0.2,0-0.4,0c-0.1-1.5,0.4-2.6,1-3.7c0.1-0.1,0.3-0.2,0.4-0.3
			c0.1-0.3-0.3-0.4,0-0.7c0.1,0,0.2,0,0.3,0c0.4-0.3,0.4-0.6,0.6-1.1c0.7,0,0.7,0.3,1.1,0.5c0.2,0,0.5,0.1,0.7,0.1
			c0.2,0.1,0.1,0.4,0.2,0.5c0.2,0.2,0.6,0.2,0.9,0.4c0.3,0.3,1.1,0.8,1.4,0.6c0.3,0,0.3,0,0.5-0.2c0,0,0.1,0,0.1,0
			c-0.6-1.5-2.4-3.6-4-3.9c0.1-0.5,0.8-1.1,0.3-1.6c0.1-0.5,0.1-0.2,0.3-0.4c0.3-0.1,0.3-0.2,0.3-0.7c0.1,0.1,0.2,0.2,0.3,0.3
			c0.1,0,0.1,0,0.2,0c-0.1-0.3-0.1-0.3-0.3-0.4c0.1-0.3,0.2-0.1,0.4-0.3c0,0,0-0.1,0-0.1c0,0,0-0.7,0.1-0.9c0-0.1,0.3-0.2,0.4-0.3
			c0.2-0.4,0-0.8,0.2-1.2c0.1-0.2,0.5-0.5,0.6-0.7c0.1-0.3-0.2-0.5,0-0.8c0,0,0.1-0.1,0.1-0.1c0,0,0,0.1,0,0.1
			c0.3,0.2,0.1,0.3,0.3,0.6c0.2,0.3,0.6,0.3,0.9,0.5c0.1,0.2,0.3,0.5,0.4,0.7c0.5,0.4,1.4,0.3,1.8,0.7c0,0,0.1,0,0.1,0
			c0.2-0.6,0.4-0.9,0.7-1.3c-0.6-1.2-1.5-0.9-2.4-1.7c-0.4-0.3-0.4-0.9-0.9-1.2c0.1-0.4,0.4-0.4,0.5-0.8c0.1-0.4-0.2-0.8-0.1-1.1
			c0-0.1,0.3-0.1,0.4-0.2c0.2-0.3,0.5-0.9,0.6-1.2c0.1-0.4,0-0.7,0.1-1.1c0.1-0.3,0.6-0.7,0.8-1c0-0.2,0-0.3,0-0.5
			c0.1-0.3,0.4-0.6,0.5-1c0,0,0.1,0,0.1,0c0.4,1.2,1.6,1.4,2.2,2.3c0.1,0,0.2,0,0.3,0c-0.1-0.2,0-0.2-0.2-0.3c0-0.1,0-0.1,0-0.2
			c0.2,0.1,0.4,0.3,0.6,0.3c0.5,0.1,1.2-0.3,1.7-0.4c0,0,0.1-0.1,0.1-0.1c-0.3-1.6-1.2-1.1-2.3-1.7c-0.5-0.3-0.9-1.1-1.5-1.3
			c-0.3-0.1-0.4,0.1-0.7,0c0,0-0.1,0-0.1,0c0.1-0.4,0.5-0.6,0.6-0.9c0-0.3,0-0.5,0-0.8c0.1-0.2,0.4-0.2,0.4-0.4c0-0.2,0-0.3,0-0.5
			c0,0,0.7-0.6,0.8-0.7c0.2-0.4,0-0.9,0.3-1.2c0,0,0.1-0.1,0.1-0.1c0,0,0,0.1,0,0.1c0.6,0.2,0.6,0.6,1.2,0.8c0,0.6-0.1,0.6-0.2,1.2
			c0.2,0,0.2,0,0.3-0.1c0.4-0.1,0.4-0.5,0.5-0.8c0.3,0.1,0.6,0.2,0.9,0.3c0,0.1,0.1,0.2,0.1,0.3c0,0,0.5-0.1,0.7-0.1
			c0-0.2,0-0.3,0.1-0.4c0.1-0.1,0.1-0.1,0.3-0.1c-0.1-1.4-0.9-1.4-1.8-1.9c-0.2-0.1-0.8-1.5-0.9-1.7c0.4-0.5,0.8-1.4,0.8-2.5
			c0.2,0.1,0.1,0,0.2,0.1c0.3-0.1,1.1-1.8,1.3-2.4c0.8,0,0.9,0.4,1.5,0.6c0.2,0,0.5,0,0.7,0c1.2,0.3,1.1,0.4,2.3,0.1
			c-0.1-0.5-0.5-0.6-0.1-0.9c-0.1-0.3-0.3-0.5-0.6-0.6c-0.2-0.1-0.3,0-0.5,0.1c-0.7,0-1.3-0.7-1.6-1.2l-0.6,0
			c-0.1-0.3-0.1-0.2-0.2-0.4c-0.2-0.2,0.2-0.9,0.3-1.3c0.1-0.2,0.3-0.6,0.4-0.8c0-0.2,0-0.5,0-0.7c0.1-0.1,0.4-0.3,0.4-0.4
			c0-0.2,0-0.5,0-0.7c0.1-0.1,0.4-0.1,0.5-0.2c0.1-0.2-0.1-0.5,0-0.8c0.1-0.4,0.8-0.7,1-1.1c0.1,0,0.2,0,0.3,0
			c0.2,0.7,0.2,0.8,0.7,1.3c0.1,0.1,0.4,0,0.7,0.1c0.8,0.3,1.9,1.4,2.7,0.9c0.1,0,0.1,0,0.2,0c-0.5-0.8-0.9-1.3-1.4-1.9
			c-0.1-0.1-0.4-0.1-0.5-0.2c-0.2-0.2-0.2-0.6-0.1-0.7c0,0-1.5-1.3-1.8-1.4c0.1-0.6,0.6-1.1,0.7-1.6c0.1-0.2-0.1-0.4-0.1-0.5
			c0.1-0.1,0.3-0.3,0.4-0.4c0-0.2,0-0.4,0.1-0.6c0.2-0.5,0.4-0.7,0.6-1.3c0.6,0.1,1.3,0.7,1.8,1c0,0.2,0,0.4-0.1,0.5
			c0,0.1,0,0.1,0,0.2c0.2-0.1,0.2-0.1,0.4-0.3c0.6,0.4,1.3,1.1,1.7,1.7c0.2,0,0.3-0.1,0.5-0.1c0.1-0.3,0.4-0.5,0.4-0.8
			c0.1-0.7-0.8-1.9-1.3-2.1c0-0.1,0-0.3,0-0.4c-0.9-0.1-1.1-0.9-1.8-1.3c0-0.5,0-1.1,0-1.6c0-0.2,0.3-0.2,0.4-0.3
			c0.3-0.5,1.1-1.9,1.1-2.6c0.7-0.2,1.3-1.9,1.6-2.6c0.2,0,0.3,0,0.5,0c0.1,0.6,0.5,0.6,0.7,1c0,0.1,0,0.3,0,0.4
			c0.3,0.3,0.7,0.2,0.9,0.7c0.5,0,0.5,0,0.9-0.1c0.4,0.2,1.1,0.6,1.6,0.2c0.2-0.1,0.1,0,0.2-0.2c0-0.1-0.1-0.8-0.3-1
			c-0.3-0.6-0.4-0.2-1.1-0.5c-0.2-0.1-1.6-1.1-1.8-1.3c-0.3-0.5-0.1-0.6-0.6-0.9c0.1-0.6,0.4-0.5,0.6-0.9c0-0.1-0.2-0.2-0.1-0.4
			c0.1-0.2,0.2-0.3,0.2-0.7c1.1,0,0.5-0.7,0.7-1.1c0.1-0.1,0.2-0.1,0.4-0.2c0-0.1,0-0.3,0-0.4c0.2-0.4,0.4-0.3,0.4-1
			c0.3-0.1,1-1.3,1.2-1.8c0.5,0.3,2,2.1,2.2,2.7c0.2,0,0.9,0.2,1.1,0.1c0-0.1,0-0.2,0.1-0.3c0.2,0,0.5,0.1,0.8,0.1
			c0-0.2,0-0.2,0.1-0.3c-0.1-0.9-0.3-0.4-0.6-0.8c0-0.1,0-0.3,0-0.4c-0.3-0.5-1-0.7-1.3-1.2c-0.4-0.6-0.9-1.5-1.1-2.2
			c0.5-0.6,1.3-1.8,1.3-2.9c0.3-0.2,0.6-0.3,0.8-0.6c0.2,0.1,0.2,0.1,0.4,0.2c0,0.2,0.1,0.3,0.1,0.5c0.5,0.1,0.4,0.4,0.7,0.7
			c0.4,0.4,1,0.4,1.4,0.8c0.3,0,0.8,0,1-0.1c0.3-0.6-0.5-1-0.1-1.6c-0.2-0.1-0.2,0.1-0.5,0c-0.2-0.1-0.3-0.6-0.5-0.7
			c-0.2-0.1-0.5-0.1-0.7-0.2c-0.4-0.3,0-0.2-0.2-0.6c-0.1-0.2-0.6-0.6-0.8-0.7c0-0.6,0.4-1.1,0.7-1.4c-0.1-0.3-0.1-0.2-0.2-0.4
			c0.6-0.5,0.6-1.4,1.3-1.9c0-0.1,0-0.2,0-0.3c0.5-0.1,0.5-1.1,0.7-1.4c0.6,0.2,0.2,0.4,0.5,0.7c0.5,0.5,1.3,0.6,1.8,1.2
			c0.6,0,0.9,0,1.4-0.3c0-0.4-0.1-0.7-0.2-0.9c-0.2-0.3-0.3-0.1-0.7-0.3c-0.5-0.3-0.4-0.9-1.4-1.2c0-0.4,0-0.4-0.2-0.6
			c0-1.3,0.9-1.7,1.3-2.5c0.3-0.5,0.1-0.9,0.5-1.3c0.1-0.1,0.4-0.1,0.5-0.2c0.3-0.4,0-0.8,0.2-1.2c0,0,0.8-0.8,1-0.9
			c0.5-0.3,1.2,0.9,1.4,1.4c0.6-0.2,1.4-0.1,1.9-0.4c-0.1-0.6-0.4-0.6-0.5-1c0-0.2,0-0.3,0.1-0.5c-0.2-0.6-1.1-1.2-1.5-1.7
			c-0.1,0-0.2,0-0.3,0c0-0.3,0.1-0.6,0.2-0.8c-0.1-0.1-0.1-0.1-0.3-0.1c0,0,0-0.1,0-0.1c0.3-0.1,0.7-0.2,1-0.3
			c0.1-0.4,0.3-0.6,0.2-0.9c0-0.2,0.3-0.4,0.7-0.5c0-0.2,0-0.3-0.1-0.4c0.1-0.7,1.4-0.9,1.4-2.4c0.2-0.1,0.1,0,0.2-0.1
			c0.8,0.1,0.8,0.9,1.3,1.3c0.5,0.3,2.3,1.8,3.1,1.2c0.1,0,0.1,0,0.2,0c0-0.1,0-0.3,0-0.4c-0.4-0.4-0.9-1.2-1.4-1.2
			c-0.4-0.2-0.5-0.8-0.6-1c-0.1-1.1-0.4-0.5-1-0.9c-0.2-0.1-0.2-0.5-0.4-0.6c0-0.6,0.3-0.7,0.4-1.3c0.2,0,0.2,0,0.3-0.1
			c0.1-0.2-0.1-0.3,0-0.4c0.1-0.1,0.3,0,0.4-0.1c0-0.2,0-0.4,0-0.6c0.3-0.5,0.9-0.7,0.8-1.6c0.2,0,0.4,0,0.7,0c0.6,0.7,2,1.1,2.7,2
			c0.5-0.1,0.5-0.3,0.8-0.5c-0.2-1-1.9-2.9-2.7-3.5c0-0.4,0-0.4,0.1-0.6c0.1,0,0.2,0,0.4,0c0-0.3,0.2-0.7,0.3-0.9c0.1,0,0.2,0,0.3,0
			c0.2-0.3-0.1-0.7,0.1-1.1c0.2-0.4,0.7-0.6,0.9-1c0.2,0,1,0.3,1.1,0.5c0,0.2,0,0.3,0,0.5c0.1,0.2,1.1,0.7,1.4,1
			c0.6,0,0.7-0.1,1-0.4c0.1-0.1,0,0,0.1-0.2c-0.9-0.9-1.3-2.2-2.4-2.9c0-0.3,0.1-1.1,0.2-1.3c0.1-0.2,0.4-0.1,0.5-0.2
			c0.2-0.2,0.6-1.4,0.6-1.5c0.1-0.2,0.3-0.2,0.5-0.3c-0.1-0.3,0-0.2-0.2-0.4c0.3-0.3,0.5-0.5,0.7-0.9c0.4,0.2,0.4,0.5,0.7,0.7
			c0.4,0.3,0.9,0.3,1.3,0.7c1,0,0.9-0.4,1.4-0.8c-0.3-0.6-1.1-1.4-1.8-1.5c-0.1-0.3,0-0.2,0-0.6c-0.3-0.1-0.2,0-0.4-0.2
			c-0.1-0.1-0.1-0.5-0.1-0.7c0.7-0.5,1.2-2.7,1.5-3.7c0.2,0,0.4-0.1,0.6-0.1c0-0.3,0-0.3,0.1-0.5c0.1,0,0.1,0,0.2,0
			c0.6,0.7,1.6,0.8,2.1,1.5c0.3,0,0.4,0,0.6-0.1c0.2-0.1,0.2-0.2,0.3-0.4c-0.2-1-1.4-2-2.3-2.3c0-0.5,0.3-1.4,0.7-1.6
			c-0.1-0.4-0.2-0.5-0.5-0.6c0-0.1,0-0.2,0-0.3c0.3,0.1,0.3,0.1,0.4,0.4c0.6-0.1,0.7-0.8,0.7-1.4c0.3,0,0.3,0.1,0.5,0
			c0.6-0.3,0.8-1.8,1.5-2.1c0.1-0.1,0,0,0.2-0.1c0.5,0.5,1.2,1,1.5,1.7c0.3,0,0.6,0.1,0.7,0.1c0.1,0,0.2,0,0.4,0
			c-0.1-0.3-0.1-0.5,0-0.8c-0.2-0.7-1.1-2.4-1.7-2.8c0-0.3-0.1-0.9,0.1-1.1c0.1-0.1,0.4-0.1,0.5-0.2c0-0.4,0-0.8,0-1.2
			c0.1-0.4,0.4-0.1,0.4-0.8c-0.2,0-0.2,0-0.3-0.1c0,0-0.1-0.1-0.1-0.1c0.4-0.2,0.9-0.2,1.2-0.5c0.1-0.1,0.1-0.2,0.1-0.5
			c0,0,0.1,0,0.1,0c0.3,0.4,0.8,0.6,1.1,1c0.5,0.7,0.7,1.4,1.2,2c0,0,0,0.1,0,0.1c0.3-0.2,0.1-0.1,0.1-0.4c0.3,0,0.6,0,0.9-0.1
			c0.1-1.1-1.2-3.3-1.9-3.7c-0.1-1.1,0.6-1.4,0.9-2.4c0.1,0,0.2,0,0.4,0c0-0.4,0.2-0.8,0.3-1c0-0.1,0-0.1,0-0.2c0.1,0,0.2,0,0.4,0
			c0-0.4,0.3-0.7,0-1.1c0,0,0-0.1,0-0.1c0.2,0,0.3,0,0.5-0.1c0.9,0,0.7,0.4,1.3,0.7c0,0.1,0,0.2,0,0.3c0.1,0,0.2,0,0.3,0
			c0.3,0.8,0.7,1.1,1,1.7c0.2,0,0.4,0,0.6,0c0-0.4-0.2-0.7-0.2-1.1c0-0.5,0.2-0.9-0.1-1.5c-0.5-1.1-1.5-1.5-1.6-2.8
			c0.2,0,0.3,0,0.5,0c0-0.4,0-0.4-0.2-0.6c0,0,0-0.1,0-0.1c0.1,0.1,0.1,0.1,0.2,0.2c0.4-0.1,0.4-0.3,0.3-0.7c0.5-0.2,0.8-0.3,0.9-1
			c0.1,0,0.2,0,0.3,0c0-0.5,0.1-0.4,0.3-0.7c0.4,0.1,0.3,0.2,0.8,0.3c-0.2,0.7,0.8,2.4,1.2,2.7c0.3,0.2,0.4,0,0.6,0.3
			c0.5,0,0.5-0.2,0.8-0.3c-0.2-0.7-0.8-1.5-1.1-2.2c0-0.3,0-0.6-0.1-0.9c0,0-0.4-0.4-0.4-0.4c-0.5-0.8-0.7-1.2-0.7-2.3
			c0.6-0.1,0.7-0.9,1.1-1.3c0-0.2,0-0.3-0.1-0.4c-0.2-0.3-0.1-0.1-0.4-0.1c0-0.1,0-0.2,0-0.3c0.3-0.2,0.6-0.3,0.8-0.6
			c0.1,0,0.2,0,0.4,0c-0.1-0.5-0.2-0.7-0.4-1c0,0,0-0.1,0-0.1c0.3,0.1,0.4,0.3,0.6,0.5c0.5,0.4,0.6,0,1.2,0.6c0.1,0.2,0,0.5,0.1,0.8
			c0.2,0.5,0.6,1.3,0.9,1.9c0.4-0.1,0.9-0.1,1.4-0.1c-0.1-0.9-0.3-2.4-0.7-3c-0.2-0.2-0.4-0.3-0.6-0.5c-0.3-0.4-0.3-0.8-0.6-1.1
			c0-1.2,1.1-1.6,0.8-2.6c0.2,0,0.3,0,0.5,0c0-0.2,1.1-3.3,1.1-3.5c-0.2,0-0.4,0-0.6,0c-0.2-0.2-1.3,2.5-1.4,2.2c-0.1,0-0.2,0-0.3,0
			c-0.1,0.8-0.8,1-1,2.1c-0.3,0.1-0.2,0.1-0.5,0.2c-0.1,0.6-1.4,2.9-1.8,3.2c0,0.1,0,0.3,0,0.4c-0.5,0.1-0.8,0.9-0.7,1.5
			c-1,0.2-1.1,1.3-1.5,2.2c-0.1,0.2-0.3,0.2-0.4,0.4c-0.5,0.8-0.6,1.7-1.1,2.4c-0.1,0.1-0.2,0.1-0.4,0.2c-0.1,0.2,0,0.5-0.1,0.7
			c-0.1,0.1-0.3,0-0.4,0.1c0,0.2,0,0.3-0.1,0.5c-0.2,0.3-0.5,0.5-0.7,0.8c-0.2,0.3-0.1,0.5-0.2,0.9c-0.1,0.2-0.4,0.3-0.5,0.5
			c-0.1,0.2,0.1,0.6,0,0.8c-0.1,0-0.2,0-0.4,0c0,0.1,0,0.3-0.1,0.4c-0.1,0.2-0.4,0.2-0.5,0.4c-0.3,0.4-0.6,0.9-0.8,1.3
			c0,0.1,0,0.2,0,0.3c-0.1,0.1-0.4,0.1-0.4,0.3c0,0.2,0,0.3,0,0.5c-0.1,0.1-0.4,0.1-0.5,0.2c-0.3,0.3-0.3,0.7-0.5,1.1
			c-0.3,0.5-1,0.9-1.3,1.5c0,0.2,0,0.4-0.1,0.6c-0.1,0.1-0.4,0.2-0.4,0.3c-0.2,0.3-0.2,0.6-0.4,1c-0.3,0.5-0.8,0.8-1,1.4
			c-0.2,0.4,0,0.8-0.2,1.1c-0.9,1.4-1.8,2.8-2.6,4.3c-0.2,0.4-1.1,1-0.8,1.5c0,0.1,0,0.1,0,0.2c-0.3-0.1-0.2-0.1-0.4-0.3
			c-0.1,0-0.1,0-0.2,0c0,0.2-0.2,0.3-0.2,0.4c0,0.2,0.3,0.2,0.1,0.6c-0.1,0.1-0.4,0.2-0.4,0.3c0,0.2,0,0.5,0,0.7
			c-0.1,0-0.2,0.1-0.3,0.1c-0.2,0.4-0.2,0.8-0.4,1.2c-0.1,0-0.2,0.1-0.3,0.1c-0.1,0.4-0.2,0.8-0.3,1.2c-0.1,0.2-0.8,0.7-0.8,0.8
			c0,0.2,0.1,0.3,0.1,0.5c-0.1,0.1-0.2,0.1-0.3,0.2c0,0.2,0,0.4-0.1,0.6c-0.3,0.3-0.5,0.6-0.8,0.9c-0.1,0.3,0,0.5-0.1,0.9
			c-0.2,0.5-0.7,0.9-0.9,1.3c-0.3,0.5-0.4,1.4-0.7,1.8c-0.1,0.1-0.4,0.2-0.4,0.3c-0.1,0.2-0.1,0.4-0.2,0.7c-0.2,0.3-0.6,0.5-0.8,0.8
			c-0.1,0.2,0,0.2,0,0.5c-0.1,0-0.2,0-0.3,0c-0.3,0.8-0.9,1.4-1.3,2.1c-0.2,0.4,0,0.8-0.2,1.2c-0.1,0.2-0.8,0.5-1,0.8
			c-0.2,0.3,0,0.5-0.2,0.7c-0.1,0.1-0.1,0.1-0.3,0.1c-0.1,0.4-0.4,0.7-0.5,1c0,0.2,0,0.5,0,0.7c-0.1,0.1-0.3,0.2-0.4,0.3
			c-0.2,0.3,0,0.5-0.2,0.8c-0.2,0.2-0.4,0.3-0.6,0.5c-0.2,0.4-0.6,1.1-0.7,1.5c0,0.3,0,0.5,0,0.8c-0.1,0.2-0.4,0.2-0.5,0.3
			c0,0-0.8,1.7-0.8,1.8c-0.1,0.1,0,0.1,0.1,0.3c-0.1,0.1-0.3,0-0.5,0.1c0,0-1.7,2.7-1.8,2.9c-0.1,0.2,0.2,0.3,0.1,0.4
			c-0.1,0.2-0.5,0.2-0.6,0.4c0,0.2,0,0.4-0.1,0.6c-0.2,0.2-0.4,0.5-0.6,0.7c-0.3,0.6-0.4,1.2-0.7,1.8c-0.2,0.4-0.7,0.7-0.9,1.1
			c0,0.2,0,0.4-0.1,0.6c-0.2,0.2-0.6,0.3-0.8,0.6c-0.3,0.5-0.3,1.1-0.7,1.5c0,0.1,0,0.3,0,0.4c-0.1,0-0.2,0-0.3,0
			c-0.1,0.2-0.1,0.4-0.1,0.6c-0.1,0.1-0.2,0.1-0.4,0.2c0,0.2,0,0.3,0,0.5c-0.3,0.6-1.2,0.6-1.4,1.4c-0.1,0.2,0,0.2,0.2,0.4
			c0,0.3-0.6,1.6-0.8,1.9c-0.1,0.1-0.4,0.2-0.4,0.3c0,0.2,0,0.3-0.1,0.5c-0.2,0.5-0.8,1.1-1.1,1.6c0,0.1,0,0.3-0.1,0.4
			c-0.1,0.1-0.3,0-0.4,0.1c0,0.1,0.2,0.2,0.1,0.4c-0.2,0.5-0.5,0.6-0.5,1.1c-0.2,0.4-0.7,0.7-0.9,1.1c0,0,0.2,0.4,0,0.6
			c-0.1,0.2-0.6,0.3-0.7,0.6c-0.2,0.4-0.1,0.8-0.3,1.2c-0.2,0.1-0.4,0.1-0.5,0.2c-0.1,0.3-0.2,0.5-0.2,0.8c-0.4,0.5-1,1.2-1.2,1.8
			c-0.1,0.2,0.1,0.6,0.1,0.7c-0.1,0.1-0.4,0.1-0.4,0.3c-0.1,0.3-0.1,0.6-0.2,0.9c-0.2,0.4-0.6,0.5-0.8,0.8c-0.3,0.5-0.3,1-0.6,1.5
			c-0.2,0.4-0.6,0.7-0.8,1.1c-0.2,0.4-0.2,0.9-0.5,1.3c-0.1,0-0.2,0.1-0.3,0.1c-0.1,0.3-0.3,0.6-0.4,0.9c-0.1,0.1-0.3,0.1-0.4,0.2
			c-0.2,0.3-0.1,0.7-0.3,1c-0.2,0.3-0.6,0.4-0.7,0.7c-0.3,0.5-0.2,1.2-0.4,1.8c-0.1,0.1-0.3,0.2-0.4,0.3c-0.1,0.3-0.2,0.5-0.2,0.8
			c-0.4,0.8-2,2.5-2,3.5c-0.2,0-0.3,0-0.4,0.1c-0.4,0.2-0.3,1.2-0.8,1.6c0,0.4,0.1,0.5,0.2,0.8c-0.2,0.1-0.4,0-0.6,0.1
			c-0.1,0.2-0.2,0.5-0.1,1c-0.1,0-0.2,0-0.3,0c-0.1,0.2-0.3,0.3-0.3,0.5c-0.1,0.2,0.1,0.4,0.1,0.4c-0.1,0-0.2,0-0.4,0
			c-0.1,0.1-0.3,0.6-0.3,0.7c-0.2,0.4-0.1,1-0.4,1.4c-0.3,0.4-0.7,0.6-0.6,1.5c0,0-0.1-0.1-0.1-0.1c-0.2,0.1-0.4,1.2-0.5,1.6
			c-0.3,0.6-0.9,1.4-1.3,2.1c-0.3,0.5-0.1,1-0.3,1.4c-0.1,0.1-0.6,0.6-0.6,0.7c0,0.2,0.1,0.4,0.1,0.6c0,0.1-0.7,1-0.8,1.3
			c-0.2,0.4-0.2,0.9-0.4,1.3c-0.1,0.1-0.2,0.3-0.3,0.4c0,0.1,0.2,0.2,0.1,0.4c-0.1,0-0.2,0.1-0.3,0.1c-0.1,0.2-0.4,0.6-0.5,0.8
			c0,0.1,0.1,0.2,0.1,0.3c0,0.1-0.3,0.1-0.4,0.2c-0.4,0.8-0.5,2.1-0.9,2.9c-0.3,0.3-0.5,0.6-0.8,0.9c-0.3,0.6-0.5,1.2-0.8,1.9
			c-0.1,0-0.1,0-0.2,0c0,0.2,0,0.4,0,0.6c-0.1,0.4-0.4,1.1-0.6,1.5c-0.2,0.2-0.4,0.4-0.6,0.6c-0.2,0.4-0.1,0.6-0.2,1.1
			c-0.1,0.4-0.6,0.7-0.7,1c0,0.2,0,0.3,0,0.5c-0.1,0.3-0.5,0.7-0.6,1c0,0.2,0,0.3,0,0.5c-0.1,0.2-0.4,0.5-0.5,0.7
			c-0.4,1-0.5,1.9-0.9,2.9c-0.1,0.2-0.4,0.6-0.5,0.8c0,0.1,0.1,0.3,0.1,0.4c-0.1,0.3-0.8,0.7-1,1c-0.3,0.5-0.1,1.2-0.4,1.7
			c-0.1,0-0.2,0.1-0.3,0.1c-0.3,0.4-0.2,0.9-0.4,1.4c-0.2,0.6-0.7,1.2-0.9,1.8c-0.1,0.3,0,0.8-0.2,1.1c-0.2,0.4-0.6,0.9-0.8,1.4
			c0,0.3-0.1,0.6-0.1,0.9c-0.2,0.5-0.7,0.9-0.9,1.4c-0.2,0.4-0.4,1.4-0.7,2.1c-0.4,0.8-0.9,1.6-1.3,2.4c-0.3,0.5-0.2,1.1-0.5,1.6
			c-0.2,0.4-0.6,0.8-0.8,1.2c0,0.2,0,0.4-0.1,0.6c-0.2,0.5-0.6,0.9-0.7,1.4c0,0.2,0,0.3,0,0.5c-0.1,0.1-0.2,0.2-0.4,0.3
			c-0.3,0.7-0.4,1.3-0.8,2c-0.4,0.7-1.1,1.4-1.3,2.3c-0.3,1.1-0.1,3.9-1.1,4.1c0.2,0.9-0.2,2.2-0.4,3.2c-0.1,0.4,0.2,0.9,0.2,1.2
			c-0.1,1-0.4,2.3-0.3,3.3c0.3,0.5,0.2,1.2,0.5,1.8c1.3,2.3,2.8,5.4,4.8,6.8c0.9,0.6,1.7,1.7,3.2,1.7c0.2,0.6,1.2,0.9,1.8,1.1
			c0.4,0,0.7,0,1.1,0c0.3,0.1,0.6,0.4,0.8,0.5c0.7,0,1.3,0,2,0c0.4,0.1,1,0.5,1.3,0.7c0.7,0.3,1.3-0.2,1.8,0.1c0,0,0.1,0,0.1,0
			c0,0.1-0.1,0.1-0.1,0.2c0.3,0.1,0.8,0.3,1,0.5c0.4-0.1,0.4-0.2,0.6-0.3c0.4-0.2,0.9,0.4,1.1,0.5c0.3,0.1,1.2-0.5,1.6-0.4
			c0,0,0.9,0.4,1,0.4c0.1,0,0.6-0.3,0.7-0.4c0.6-0.2,0.7,0.5,1.1,0.3c0.6-0.2,2.3-0.2,3.3,0.2c1.4-0.3,2.6-0.3,3.5,0.4
			c0.2-0.1,0.1,0,0.2-0.4c0.2,0.1,1.6,0.1,1.7,0c0.4-0.1,0.2-0.2,0.4-0.4c0.2-0.2,0.8,0.4,1,0.4c0.3,0,0.2-0.3,0.5-0.3
			c0.2,0,0.9,0.3,0.9,0.3c0.4-0.1,1.3-0.2,2,0l0.5,0.2c0.3,0,1-0.2,1.3-0.2c1-0.2,2.1,0.2,3.1,0c0.9-0.2,1,0.4,1.8-0.2
			c0.3,0.1,0.3,0.2,0.5,0.4c0.5-0.1,0.7-0.3,0.9-0.4c0.5,0,1,0.1,1.5,0.1c0.1-0.1,0.2-0.2,0.3-0.3c0.3,0.1,0.5,0.1,0.8,0.2
			c0.2,0,0.6-0.3,1-0.2c0.1,0,0.4,0.3,0.5,0.3c0.3,0,1.1-0.2,1.3-0.2c1,0.2,1.4,0.2,2.5,0c0.4,0,0.8,0.1,1.2,0.1
			c0.6-0.1,1.6,0.1,2.3-0.1c0.1,0,0.4-0.3,0.5-0.3c0.2,0,0.5,0.2,0.6,0.2c0.8,0.2,1.7-0.2,2-0.3c0.3-0.1,0.4,0.2,0.5,0.2
			c0.4,0.1,0.8-0.3,1.1-0.4c0.4-0.1,2.4,0.1,2.4,0.1c0.3,0.1,0.3-0.2,0.4-0.2c0.3,0,0.7,0.1,1,0.1c0.2-0.1,0.5-0.3,0.7-0.3
			c0.2,0,1.9,0.4,1.9,0.4c0.4,0,0.7-0.2,0.9-0.5c0.2,0.1,0.1,0.1,0.2,0.3c0.9-0.2,2.1-0.2,3.2-0.5c0.6-0.2,1.2,0.1,1.7-0.2
			c0.1,0,0.1,0,0.2,0c0-0.1,0-0.2,0-0.3c0.4,0.1,0.7,0.2,1,0.3c0.5,0.1,0.4-0.3,0.8-0.2c0,0.1,0.1,0.1,0.1,0.2
			c0.3,0.1,0.2-0.3,0.5-0.2c0.1,0.1,0.1,0.2,0.2,0.3c0.7,0.2,1.8-0.5,2.3-0.4c0.3,0.1,0.7,0.4,0.9,0.4c0.5,0,0.6-0.3,0.8-0.7
			c0.7,0,1.4,0.4,2.2,0.2c0.4-0.1,1-0.3,1.4-0.4c0.3,0,0.7,0.1,1,0.1c0.1,0,0.2-0.3,0.4-0.3c0.1,0.1,2.5,0.8,2.6,0.7
			c0.2-0.1,0.4-0.4,0.6-0.5c0.5-0.1,1.2,0.3,1.8,0.1c0.1-0.1,0.1-0.1,0.2-0.2c0.4-0.1,1.3,0.3,2,0c0.1,0,0.6-0.4,0.7-0.4
			c0.4-0.1,1.5,0.4,1.9,0.3c0.1,0,0.4-0.4,0.4-0.4c0.2,0.1,0.4,0.1,0.6,0.2c0.2,0,0.4-0.2,0.5-0.2c0.4-0.1,1.1,0,1.4-0.1
			c0.6,0,1.1,0.1,1.7,0.1c0.1,0,0.4-0.3,0.4-0.3c0.2,0,0.3,0.2,0.5,0.3c0.5,0.2,1.1-0.2,1.4-0.2c0.1,0,0.5,0.3,0.8,0.2
			c0.2-0.1,0.4-0.4,0.7-0.4c0.3,0,0.2,0.1,0.3,0.2c0.5,0.2,1.5-0.2,1.7-0.3c0.3,0,0.6,0.1,0.9,0.1c0.3-0.1,0.9-0.4,1.2-0.3
			c0.4,0.1,1.2,0.6,1.9,0.4c0.3-0.1,0.7-0.3,1.2-0.3c0.1,0,0.4,0.3,0.5,0.3c0.3,0.1,0.5-0.2,0.7-0.2c0.3,0,0.6,0.1,0.9,0.1
			c0,0,0.1,0,0.1,0c0-0.1,0-0.1,0-0.2c0.3-0.1,0.5,0.2,0.7,0.2c0.4,0.1,0.7-0.3,1-0.4c0.1,0.1,0.3,0.1,0.4,0.2
			c0.1-0.1,0.2-0.2,0.3-0.4c0.1,0.1,0.2,0.2,0.3,0.3c0.4-0.1,0.4-0.1,0.5-0.4c0.3,0.1,0.4,0.2,0.6,0.4c0.8-0.3,2.6-0.2,3.7,0.1
			c0.2,0,2.4,0.1,2.6,0c0.1,0,0.5-0.3,0.5-0.3c0.5-0.1,0.9,0.6,1.6,0.4c1.7-0.4,3.4-0.5,5.2-0.9c0.4-0.1,0.6,0.1,0.8,0.2
			c0.6,0.1,1.8-0.2,2.3-0.2c0.5,0,0.9,0.3,1.2,0.2c0.1-0.1,0.1-0.2,0.2-0.3c0.8-0.4,1.6,0.1,2.2,0c0.5-0.1,1-0.2,1.5-0.1
			c1.9,0.4,3.6-0.3,5,0c0.9,0.2,1.6-0.5,2.1,0.1c0.1-0.1,0.2-0.3,0.3-0.4c0.4-0.1,0.4,0.4,0.8-0.2c0.3,0.1,0.9,0.4,1.1,0.5
			c0.4,0.1,0.5-0.4,0.8-0.4l0.4,0.2c0.2,0.1,1.7,0.1,1.9,0c0.1,0,0.2-0.2,0.3-0.2c0.3,0,0.7,0.1,1,0.1c0.1-0.1,0.2-0.2,0.3-0.3
			c0.2,0,0.8,0.4,1.1,0.3c0.1-0.1,0.2-0.2,0.3-0.3c0.4-0.1,0.7,0.2,1,0.2c0.9,0,2-0.2,2.8-0.5c0.4-0.1,1.1,0.1,1.4,0.2
			c0.7,0.2,2.8-0.2,3-0.6c0.7,0.4,1.7,0.4,2.5,0.1c0.3-0.1,0.8,0.2,1,0.1c0.7-0.2,2.1-0.6,3-0.5c0.7,0.1,1.5-0.2,2.2-0.1
			c0.3,0,1,0.2,1.4,0.1c0.1,0,0.3-0.3,0.4-0.3c1.1,0.3,3.2,0.5,4.8-0.1c0.6,0.2,1.3-0.1,1.8,0c2,0.5,3.5-0.1,5.4,0.3
			c0.4,0.1,1.3-0.2,1.6-0.4c0.1,0.1,0.2,0.2,0.3,0.3c0.6-0.3,2.6-0.4,3.1-0.3c0.8,0.2,0.8-0.7,1.7,0.3c0.1,0,0.1,0,0.2,0
			c-0.1-0.3-0.2-0.3-0.2-0.6c1.3-0.2,2.6-0.5,3.6-0.9c0.3,0,0.6,0,0.8,0c0.6-0.2,1.7-0.6,2.3-0.8c0.3,0,0.6-0.1,0.9-0.1
			c0.1-0.1,0.1-0.3,0.3-0.4c0.4-0.2,1.2-0.2,1.6-0.4c0-0.1,0-0.2,0.1-0.3c0.3-0.3,0.6-0.4,1.3-0.4c0.1-0.9,1.6-1.6,2-2.4
			c0.1-0.3-0.1-0.7,0-0.9c0.1-0.1,0.4-0.1,0.5-0.2c0.2-0.3,0.2-0.7,0.4-1c0.8-1.3,1.9-2.4,1.9-4.3c0,0,0.1-0.1,0.1-0.1
			c0,0,0.1,0,0.1,0c0.1,0.3,0.3,0.9,0.5,1.2c0,0,0,0.1,0,0.1c0.1,0,0.1-0.1,0.2-0.1c0-0.1,0-0.3,0-0.4c0.2,0,1.8-0.8,1.8-0.8
			c0.7-0.3,0.4-1.5,0.3-2.2c-0.1,0-0.2,0-0.3,0c-0.1-2.1,0.9-4.8,1.7-6c0.1-0.1,0.3-0.2,0.4-0.3
			C507.5,360.9,507.1,360.5,507.5,360.1z M457,287.2c0-0.2,0-0.1,0.1-0.2c0.1,0.1,0.1,0.1,0.2,0.2c0,0.1,0,0.1,0,0.2
			C457.1,287.3,457.2,287.3,457,287.2z M381.6,201.5C381.6,201.5,381.6,201.6,381.6,201.5c0,0.1,0.1,0.2,0.1,0.2c-0.1,0-0.1,0-0.2,0
			C381.6,201.5,381.5,201.6,381.6,201.5z M374.5,213.4C374.6,213.5,374.6,213.5,374.5,213.4c0.1,0.2,0.1,0.2,0.1,0.3
			c-0.1,0-0.1,0-0.2,0C374.4,213.6,374.4,213.5,374.5,213.4L374.5,213.4z M373.8,214c0.1,0,0.1,0,0.2,0c0,0.1,0,0.2,0,0.3
			c-0.1,0-0.2-0.1-0.3-0.1C373.8,214.2,373.8,214.1,373.8,214z M367.2,225.8c-0.1,0.1-0.1,0.2-0.2,0.3c-0.1,0-0.1-0.1-0.2-0.1
			c0-0.1,0-0.1,0-0.2C366.9,225.8,367.1,225.8,367.2,225.8z M361.8,236.4c-0.1,0.1-0.1,0.1-0.3,0.1c0,0,0-0.1,0-0.1
			C361.6,236.4,361.7,236.4,361.8,236.4z M359.9,237.7C359.9,237.7,359.9,237.7,359.9,237.7c-0.1,0.1-0.1,0.1-0.2,0.1
			c0,0,0-0.1,0-0.1C359.8,237.7,359.8,237.7,359.9,237.7z M359.7,238.6c0.1,0,0.1,0,0.2,0c0,0,0,0.1,0,0.1c-0.1,0-0.2,0.1-0.3,0.1
			C359.6,238.7,359.7,238.6,359.7,238.6z M356.2,248.3L356.2,248.3C356.3,248.4,356.3,248.4,356.2,248.3c0,0.1-0.1,0-0.2,0
			C356.1,248.3,356,248.2,356.2,248.3z M348.2,260.8C348.2,260.8,348.2,260.8,348.2,260.8c0,0.1,0,0.1-0.2,0.1c0-0.1,0-0.1,0-0.2
			C348.1,260.8,348.1,260.8,348.2,260.8z M347.8,260C347.8,260,347.8,260,347.8,260c0,0.1,0.1,0.2,0.1,0.2c-0.1,0-0.1,0-0.2,0
			C347.8,260,347.8,260.1,347.8,260z M345.7,264C345.7,264,345.8,264,345.7,264c0,0.2-0.1,0.2-0.4,0.3c0-0.1,0-0.1,0-0.2
			C345.5,264.1,345.6,264.1,345.7,264z M342.7,268.9c0,0.2,0,0.1-0.1,0.2C342.7,268.9,342.6,269,342.7,268.9z M318.9,316.5
			c-0.1,0.2,0,0.1-0.3,0.2c0-0.1,0-0.1,0-0.2C318.7,316.5,318.8,316.5,318.9,316.5z M309.2,337.1c0,0.1,0,0.1,0,0.2
			c-0.1,0-0.1,0-0.2,0c0-0.1,0-0.1,0-0.2C309.1,337,309.1,337,309.2,337.1z M437,383.7C437,383.7,437,383.6,437,383.7
			c0.1-0.1,0.1-0.1,0.2-0.1c0,0,0,0.1,0,0.1C437.1,383.7,437,383.7,437,383.7z M386.4,242.3c0,0.2,0,0.1-0.1,0.2
			c-0.4-1.5-1.9-2.2-2.7-3.3c-0.2,0-0.5,0.1-0.7,0.1c-0.1,0.2-0.3,0.5-0.2,0.8c0.1,0.3,0.5,0.4,0.6,0.7c0.2,0.4,0,0.7,0.3,1
			c0.1,0.2,0.5,0.2,0.6,0.4c0.5,0.8,0.5,1.4,1.2,1.9c-0.1,0.5-0.4,1-0.6,1.4c0,0.2,0,0.4-0.1,0.6c-0.1,0.1-0.3,0.1-0.4,0.2
			c-0.1,0.3-0.1,0.6-0.2,0.9c-0.4,0.5-0.9,0.8-1,1.6c-0.2,0-0.3,0-0.4-0.1c-0.4-0.2-0.5-0.7-0.8-1c-0.5-0.5-1.1-0.6-1.6-1.2
			c0-0.1-0.1-0.3-0.1-0.4c-0.4-0.3-0.8,0-1.1-0.4c-0.6,0.3-0.4,0.8-0.1,1.3c0,0-0.1,0.4-0.1,0.6c0.2,0.5,1.1,0.8,1.5,1.2
			c0,0.2,0.1,0.3,0.1,0.5c0.1,0.1,0.3,0.1,0.4,0.2c0,0.2,0,0.4,0,0.6c0.2,0.3,0.4,0.2,0.6,0.6c0.1,0.2,0,0.6-0.1,0.8
			c0,0.1,0,0.1,0,0.2c-0.1,0-0.2,0-0.3,0c0,0.4-0.1,0.4-0.1,0.8c-0.1,0-0.2,0-0.3,0c-0.3,0.9-0.7,1.7-1.2,2.4
			c-0.1,0.1-0.1,0.1-0.3,0.1c0,0.6-0.1,1-0.4,1.3c0,0,0,0.1,0,0.1c-0.3-0.1-1.2-1.7-1.1-2c-0.1-0.4-0.9-0.3-1.3-0.6
			c-0.7,0.1-0.6,0.3-1,0.7c-0.2,0.2-0.6,0.1-0.7,0.3c0,0-0.1,0-0.1,0c0.3,0.5,0.9,0,1.2,0.2c0,0.1,0.1,0.2,0.1,0.3
			c0.7,0.5,0,0,0.3,0.8c0.2,0.3,1.3,1.6,1.6,1.8c0,0.7-0.3,0.8-0.5,1.2c-0.4,0.8-0.5,1.9-0.9,2.7c-0.1,0.1-0.2,0.1-0.4,0.2
			c-0.2,0.2-0.4,0.6-0.5,0.9c-0.7-0.4-0.9-2.5-2.2-3c-0.2-0.1-0.5-0.1-0.6-0.1c-0.6,0.1-0.4,0.3-0.7,0.5c0.1,1.8,1.5,3.9,2.5,4.6
			c0,0.7-0.2,0.3-0.1,1c-0.2,0-0.2,0-0.3,0.1c-0.8,0.5-1.1,2.8-1.9,3.2c0,0,0,0.1,0,0.1c0,0-1-1.1-1-1.1c0-0.2,0-0.4,0-0.6
			c-0.3-0.6-1-0.8-1.5-1.2c-0.5,0.1-0.8,0.4-1.2,0.6c0.1,0.4,0.9,2.5,1.1,2.9c0.3,0.5,1,0.8,1.2,1.4c0.3,0.6-1.1,2.9-1.5,3.3
			c0,0.2,0,0.3,0,0.5c-0.4,0-0.3,0-0.4,0.3c-0.4-0.2-1.5-1.8-1.6-2.3c-0.8-0.2-1.3-0.6-1.9,0c0,0,0.1,0.4,0,0.7
			c0.1,0.3,0.2,0.1,0.4,0.3c0.1,0.3,0.2,0.7,0.3,1c0.2,0.3,0.7,0.4,0.9,0.7c0,0.2,0.1,0.5,0.1,0.7c0.2,0.4,0.6,0.5,0.7,1
			c0.3,0.7-0.5,1.1-0.7,1.6c-0.2,0.6-0.2,1-0.5,1.5c-0.3,0.5-0.8,0.9-0.9,1.7c-0.3,0.1-0.2,0-0.4,0.2c-0.7-0.2-1-1.1-1.5-1.6
			c-0.2-0.1,0,0,0.1-0.2c-0.4-0.1-1.2-1.1-1.4-1.4c-0.4,0-1,0.1-1.2,0.2c-0.4,0.5,0,1.5,0.4,2c0.2,0.1,0.5,0.1,0.7,0.2
			c0.4,0.2,0.4,0.7,0.6,1.1c0.1,0.2,0.5,0.2,0.6,0.4c0.1,0.2-0.1,0.3-0.1,0.4c0.1,0.2,0.4,0.2,0.5,0.4c0.2,0.2-0.2,0.6-0.1,0.9
			c0.1,0.3-0.1,0-0.3,0.2c0,0.2,0,0.3-0.1,0.5c-0.1,0.1-0.3,0.1-0.4,0.2c-0.2,0.3-0.5,0.9-0.7,1.3c0.1,0.2,0.2,0.3,0,0.5
			c-0.1,0-0.2,0.1-0.3,0.1c-0.2,0.3-0.4,0.7-0.6,1c-0.2,0-0.4-0.1-0.7-0.1c-0.1-0.4-0.3-0.3-0.4-0.7c-0.1-0.2,0-0.2,0.3-0.4
			c0-0.1,0-0.1,0-0.2c-0.3,0-0.3,0-0.5,0.2c-0.5-0.2-1-0.5-1.3-0.9c-0.3,0-0.6,0-0.9,0c0.1,0.6-0.1,0.7-0.1,1.5
			c0.4,0,0.5,0.1,0.7,0.3c0,0.1,0,0-0.1,0.1c0.1,0.5,1.9,2.1,2.3,2.4c-0.2,0.5-0.7,0.8-0.9,1.3c-0.4,0.7-0.5,1.4-0.9,2.2
			c-0.1,0.1-0.4,0.2-0.4,0.4c-0.2,0.4-0.2,0.7-0.4,1.1c-0.1,0.1-0.4,0.1-0.5,0.2c-0.1,0.1-0.2,0.9-0.3,1.1c-0.1,0-0.2,0.1-0.3,0.1
			c-0.3-0.5-0.8-1-1-1.6c-0.2-0.4,0-0.7-0.3-1c-0.4-0.6-1-0.4-1.3-1.2c-0.3,0.1-0.3,0.2-0.6,0.3c-0.3,1.5,0.1,2.3,0.9,3.3
			c0.2,0.1,0.3,0.3,0.5,0.4c0,0.3,0,0.6,0.1,0.9c0.1,0.4,0.6,1.1,0.9,1.3c-0.2,0.8-0.6,1.4-1,2.1c-0.3,0.6-0.3,1.3-0.7,1.9
			c0,0,0,0.1,0,0.1c-1-0.3-1.5-1.6-2.3-2.3c-0.3-0.2-0.6-0.2-0.9-0.5c-1.2,0.1-0.8,0.9-0.5,1.7c0.1,0.4,0,0.5,0.2,0.7
			c0.2,0.5,0.5,0.2,0.8,0.5c0,0.1,0.1,0.3,0.1,0.4c0.3,0.4,0.9,0.8,1.5,0.9c0.2,1.8-1.5,2.2-1.4,3.8c-0.8-0.2-1.1-1.2-1.7-1.6
			c-0.3-0.1-0.7-0.3-1-0.4c-0.1-0.1-0.1-0.5-0.1-0.5c-0.7,0-0.7,0.2-1.1,0.4c0.1,1.7,1.5,3.4,2.8,3.7c0,2.1-2.2,3.3-2.3,5.1
			c-0.9,0-1.5-0.8-2-1.4c-0.5,0-1.1,0.1-1.4,0.4c-0.2,0.1-0.2,0.2-0.4,0.3c0,0.3,0,0.5,0.1,0.8c0.1,0.2,0.6,0.1,0.8,0.3
			c0.2,0.1,0.2,0.5,0.3,0.7c0.1,0.1,1.1,0.7,1.2,0.7c0.1,2-1.4,3-2,4.5c-0.6-0.1-1.4-1.3-1.8-1.8c-0.4,0-0.7,0-0.9-0.2
			c-0.9,0-0.4,0.6-1.1,0.8c0.1,0.2,0.5,0.3,0.6,0.4c0,0.2,0,0.4-0.1,0.6c0.1,0.2,0.3,0.5,0.4,0.7c0.3-0.1,0.3-0.1,0.4-0.3
			c0.2,0.2,0.4,0.5,0.4,0.8c0.2,0,0.2,0,0.3-0.1c0.4,0.1,0.4,0.4,0.7,0.6c-0.2,0.8-0.9,1.4-1.2,2.2c0,0.1,0,0.3,0,0.4
			c-0.1,0.2-0.5,0.3-0.5,0.5c-0.2,0.5,0.2,1-0.3,1.2c-0.3,0.1-1.5-0.7-1.6-0.9c-0.3-0.2-0.1-0.2-0.2-0.4c-0.2-0.7-1.1-0.7-1.6-1.1
			c-0.3,0.2-0.3,0.5-0.5,0.7c0,0.5,0.1,1,0.4,1.4c0.3,0.3,0.5,0.2,0.7,0.7c0.1,0.1,0,1.1-0.2,1.4c0,0.2,0,0.3,0,0.5
			c0.3-0.2,0.4-0.8,0.5-1.1c0.4,0.1,0.7,0.1,1,0.4c0.2-0.1,0.2-0.1,0.3-0.3c0,0,0.1,0,0.1,0c0,0.8-0.1,1.7-0.7,2.1
			c0.1,0.2,0.1,0.3,0.2,0.4c-0.2,0.7-1.4,1.3-1.6,2.3c-0.9-0.1-1.6-0.9-2.1-1.6c-0.3,0-0.4,0-0.6-0.1c-0.7,0-1,0.3-1.1,0.9
			c-0.2,0.1,0.6,1.2,0.4,1.5c0.3,0.5,0.5,0.1,0.9,0.3c0.5,0.3,0.6,0.7,1.4,1c0,1.7-1,2.3-1.5,3.4c-0.3,0.5-0.3,1.2-0.7,1.6
			c-0.1,0.1,0,0-0.2,0.1c-0.8-0.8-2-1.2-2.9-1.9c-0.4,0.1-0.8,0.4-0.9,0.9c-0.2,0.5,0.4,1.2,0.6,1.7c0.2,0,0.4,0,0.7,0
			c0,0.1,0,0.2,0,0.3c0.2,0,0.2,0,0.3,0.1c0.1,0,0.1,0,0.2,0c0,0.1,0,0.2,0,0.3c0.6,0.1,0.8,0.4,1.3,0.6c-0.1,0.6-0.5,0.8-0.7,1.3
			c-0.2,0.5,0,1.1-0.2,1.6c-0.2,0.7-1.1,1.3-1.3,2.1c-0.7-0.1-0.7-0.5-1.1-0.8c-0.2,0-0.4-0.1-0.7-0.1c-0.1-0.1-0.1-0.5-0.3-0.6
			c-0.3-0.2-0.4,0-0.6-0.3c-0.3,0-0.4,0-0.6,0.1c-0.4,0.2-0.5,0.7-0.6,1.1c0.5,0.5,0.7,1.4,1.3,1.7c0.1,0,0.2-0.2,0.4-0.1
			c0.3,0.2,0.9,0.8,1.1,1.1c0.1,0.1,0,0,0.1,0.2c-0.2,0.2-0.5,0.7-0.6,0.9c0,0.3-0.1,0.6-0.1,0.9c-0.1,0.2-0.5,0.5-0.7,0.8
			c-0.9-0.1-1.6-0.9-2.4-1.2c-0.2,0.2-0.4,0.3-0.6,0.4c0,0.4-0.1,0.7,0.1,1.2c0.2,0.5,0.7,0.9,0.7,1.3c0.7,0,1,0.4,1.6,0.6
			c-0.3,0.9-0.4,2.4-1.1,2.7c0.1,0.2,0,0.2,0.1,0.3c0,0.1,0,0.2,0,0.3c-1.4-0.3-2.4-0.6-3.9-0.6c-0.1,0.1-0.3,0.3-0.4,0.4
			c0,0.3,0,0.5,0.1,0.6c0.1,0.9,0.4,1,0.8,1.5c0.6,0,2,0.1,2.2-0.1c0.1,0,0.1,0,0.2,0c0,0.8,0,1.2,0.2,1.8c-1.2,1.3-3.2,2-4.7,3
			c0,0.5-0.1,0.9,0.2,1.3c0.2,0.2,0.4,0.4,0.7,0.5c0.2,0.1,0.5,0.2,0.8,0.2c0-0.2,0-0.3,0-0.5c0.9-0.1,1.1-0.6,1.7-1
			c0.2,0,0.4-0.1,0.6-0.1c0.4-0.2,0.8-0.7,1.1-1c0.2-0.1,0.4-0.1,0.6-0.2c0.1-0.1,0.1-0.2,0.2-0.3c0.1,0,0.3,0.1,0.4,0.1
			c0.5,0,0.8-0.2,1.1-0.1c0.4,0.1,0.9,0.6,1.3,0.4c0.6,0,0.7,0.3,0.9,0.8c-0.6,0.6-1.3,1.3-1.9,1.9c0.2,0.3,0.4,0.6,0.6,1
			c0.7,0.3,1.9,0,2,0c0.2-0.1,0.4-0.8,0.5-1.1c0.2,0,0.4,0.1,0.7,0.1c0.2-1.2,1-1.2,1.4-2.2c0.4,0,0.6,0,0.9,0.3c0.1,0,0.1,0,0.2,0
			c-0.1-0.4-0.4-0.6-0.7-0.8c0-0.1,0-0.1,0-0.2c0.1-0.1,0.1-0.1,0.2-0.2c0.9,0.5,2.8,0.1,4.2,0.1c0,0.5,0,0.4,0.1,0.9
			c-0.8,0.4-0.8,1.7-1.9,2c0.3,0.8,0.8,1.3,1.2,2c0.6,0,0.9-0.2,1.1-0.6c0.6,0.1,1.7,0.3,2.2,0.7c0.1,0,0.2,0,0.3,0
			c0-0.1,0-0.1,0-0.2c-0.6-0.2-1.5-0.4-2-0.8c-0.1-0.1,0.6-1.7,0.8-2c0.2-0.3,0.2-1,0.5-1.3c0.1,0,0.2,0,0.4,0
			c0.5-0.3,0.8-1.1,1.4-1.3c0.4-0.1,0.5,0.3,0.8,0.2c0.4-0.1,0.8-0.2,1.1,0h0.2c0,0.9-0.3,1.3-0.6,1.9c-0.1,0-0.2,0-0.3,0
			c-0.1,1.3-1.4,1.5-1.3,3.4c0.2,0.2,0.4,0.4,0.5,0.7c1.5,0.4,1.2-0.1,1.5-1.2c0.2-0.1,0.2-0.1,0.5,0c0.2-0.7,0.4-1.4,0.8-1.9
			c0.2-0.2,0.4-0.2,0.5-0.4c0.2-0.5,0.2-1.1,0.6-1.4c-0.1-0.3-0.2-0.3-0.1-0.6c-0.2-0.2,0-0.1-0.3-0.2c0-0.1,0-0.2,0-0.3
			c0.5-0.1,2.1-0.5,2.8,0c0.4-0.1,0.4-0.2,0.5-0.5c0.4,0.1,0.8,0.4,1.2,0.5c-0.3,1.5-1.9,2-2.2,3.6c-0.1,0-0.2,0-0.4,0
			c0,0.1,0,0.2,0,0.3c0.1,0,0.2,0,0.3,0c0.3,0.5,0.6,0.9,0.9,1.3c0.4-0.1,0.4-0.2,0.5-0.5c0.1,0.1,0.1,0.1,0.2,0.2
			c0.5-0.4,1-2,1.4-2.7c0.4-0.6,1.4-0.7,1.8-1.4c0.1-0.1-0.3-0.6-0.2-0.9c0.1-0.4,0.7-0.1,1.3-0.1c0,0,0.1,0.1,0.1,0.1
			c0,1.1-1.5,3-0.8,3.9c0.1,1.1,0.6,0.9,1.1,1.4c0.4-0.1,0.6-0.5,0.7-0.9c0.1,0.1,0.1,0.1,0.2,0.2c0.1,0,0.1,0,0.2,0
			c-0.2-0.8,0-1.4-0.1-2.2c0.2,0,0.3,0,0.5,0c-0.1-0.2,0-0.2-0.1-0.3c0.1-0.6,0.5-0.9,0.8-1.2c-0.1-0.5-0.3-0.9-0.3-1.1
			c0-0.1,0-0.2,0-0.3c0.3,0,0.3,0.1,0.5-0.2c0.7,0.1,1.2,0.5,1.8,0.7c0.2-0.2,0.3-0.2,0.4-0.4c0.2,0.1,0.1,0.1,0.3,0.2
			c0,0.6-0.3,1-0.5,1.5c0,0.2,0,0.3,0,0.5c-0.1,0.2-0.5,0.3-0.6,0.5c-0.1,0.2,0.1,0.5,0.1,0.6c0,0.1-0.6,1.5-0.6,1.6
			c0.1,0.5,0.5,1.1,0.9,1.3c-0.1,0.2,0,0.2-0.2,0.3c0,0.1,0,0.1,0,0.2c0.3-0.1,0.5,0,0.8,0.1c0.1-0.1,0.4-0.3,0.5-0.4
			c-0.1-0.6-0.2-1.3,0.1-1.8c0.1-0.2,0-0.2,0.4-0.2c-0.1-0.5-0.2-0.9,0.2-1.3c0.1,0,0.2,0,0.4,0c0.2-0.2,0.3-1.2,0.5-1.6
			c0.2-0.5,0.6-0.8,0.8-1.3c0.7,0,2.5-0.3,3,0c0.1,0,0.2,0,0.4,0c0,0.3-0.1,0.7,0,0.9c0,0.2,0,0.2-0.1,0.4c-0.4,0-0.7,0.2-1-0.1
			c-0.1,0-0.1,0-0.2,0c0,0.1,0,0.1,0,0.2c0.3,0.2,0.7,0.3,1,0.4c-0.1,0.3-0.5,1.2-0.7,1.4c0.1,1.7,0.8,2.5,0.9,4.1
			c0.1,0,0.2,0,0.3,0c0-0.7,0-1.6-0.2-1.9c0-0.1,0-0.2,0-0.3c0.2,0.1,0.4,0.1,0.6,0.2c0.5-0.6,0.9-1.5,1-2.5c0.2,0,0.3,0,0.5,0
			c0-0.8,0.3-1.9,0.1-2.3c0-0.4,0.1-0.5,0.1-0.8c0.4,0,0.5,0.2,0.8,0.1c0.3-0.1,0.7-0.5,1-0.4c1.5,0.4,1.9,0.7,3.5,0.5
			c-0.1,0.4-0.3,0.5-0.1,0.8c0,0.1,0,0.1,0,0.2c-0.1,0-0.2,0-0.4,0c0,0.8-0.5,1.5-0.2,2.4c0.2,0.4,0.5,0.6,0.6,1.2
			c0.5,0,0.9,0.4,1.3,0.1c0.6-0.2,0.3-1.2-0.1-1.5c0.1-0.8,1.4-1.6,0.8-2.6c0.8-1.8,2.9,0.2,3.7-0.7c0.3,0.1,0.3,0.2,0.4,0.5
			c0.2-0.1,0.1,0,0.2-0.4c0,0,0.1,0,0.1,0c0.1,0.2,0.1,0.2,0.2,0.4c-0.2,0.3-0.4,0.9-0.5,1.3c-0.1,0-0.2,0-0.3,0
			c0.1,0.8-0.2,1.7,0.2,2.3c-0.1,0.1-0.2,0.2-0.4,0.3c0,0.2,0,0.3,0.1,0.4c0.1,0.9,0.7,0.9,1.2,1.4c0.4,0,0.4-0.1,0.6-0.3
			c0-0.8-0.1-1.6-0.3-2.4c0.4-0.2,0.7-0.4,1.2-0.5c-0.1-0.2-0.2-0.2-0.4-0.3c0.1-0.9,0.7-1.6,0.8-2.4c1.3-0.2,3.3-0.2,4,0.2
			c0,0,0.1,0,0.1,0c-0.2,0.8-0.8,1.8-1.1,2.6c-0.2,0.6,0.1,0.8-0.3,1.4c0,0.6,0.9,1.4,1,1.9c0.2,0,0.4,0.1,0.6,0.1
			c0.3-0.3,0.3-0.2,0.2-0.7c0.2-0.1,0,0,0.3,0c0.2-1,0.2-2.1,0.5-3c0.2-0.4,0.8-1,0.8-1.5c0-0.3-0.2-0.5-0.2-0.7
			c0.1-0.1,0.1-0.1,0.2-0.2c0.9,0,1.1,0,1.8-0.2c0.2,0.1,0.4,0.1,0.7,0.2c0.3-0.1,0.8-0.5,0.8-0.5c0.3,0.2,0.7,1.5,0.6,2.1
			c-0.3,1.3-1.3,2.7-0.3,4.2c0.1,0.3,0.5,0.5,0.8,0.6c0.1-0.1,0.3-0.2,0.4-0.3c0.1-0.2,0-0.6,0.1-0.9c0.1,0,0.2-0.1,0.3-0.1
			c0-0.2,0-0.5,0-0.7c0.1-0.4,0.3-1,0.6-1.4c0.1-0.2,0.5-0.4,0.6-0.7c0-0.2-0.1-0.5-0.1-0.7c-0.2,0-0.2,0-0.3-0.1
			c-0.1,0-0.1,0-0.2,0c0-0.4,0.1-0.4,0.3-0.6c-0.2-0.1-0.4-0.1-0.6-0.3c-0.1-0.2,0-0.3,0-0.7c0.6,0,1.2,0.1,1.9,0.1
			c0-0.1,0-0.1,0-0.2c0.2,0,0.4,0,0.7,0c0.3,0.1,0.7,0.2,1,0.3c0.3-0.1,0.4-0.5,0.7-0.6c0,0,0.1-0.1,0.1-0.1c0,0,0,0.1,0,0.1
			c0.3,0.6-0.3,1.8-0.3,2.7c0,0.5,0.2,0.9,0.2,1.6c0.2,0.2,0.5,0.5,0.7,0.7c0.3-0.1,0.6-0.1,1-0.1c0.1-0.2,0.1-0.1,0.2-0.4
			c0.5,0.1,0.8,0.5,1.1,0.9c0.1,0,0.1,0,0.2,0c-0.2-0.5-0.7-1-1.1-1.3c0-0.9,0.3-1.6,0.3-2.5c0.2,0,0.2,0,0.4,0.1c0,0,0-0.1,0-0.1
			c0,0,0.1,0,0.1,0c-0.1-0.3-0.3-0.5-0.5-0.7c0-0.1,0-0.3,0-0.4c0.5,0.1,0.7,0,1.1,0c0.1-0.2,0.1-0.3,0.2-0.5c0.4,0,0.4,0,0.6,0.3
			c0.4,0,0.8-0.4,0.9-0.3c0.2,0.1,0.1,0,0.2,0.1c0.3,0.4,0.1,2.6,0,3.2c0,0.2,0.2,1,0.2,1c-0.1,0-0.2,0.1-0.3,0.1
			c0.1,0.4,0.2,0.5,0.6,0.6c-0.1,0.2-0.2,0.2-0.5,0.2c0.2,0.3,1.8,0.4,2.2,0.7c0.1,0,0.1,0,0.2,0c-0.5-1.6,0.2-3.9-0.1-4.9
			c0-0.2,0-0.3,0-0.5c1.6,0.3,4.6-0.3,5.2,0.3c0,0,0.1,0,0.1,0c-0.1,0.3-0.3,0.6-0.6,0.7c0.1,0.2,0.3,0.3,0.3,0.4
			c0.1,0.4-0.3,0.9-0.3,1c-0.1,0.3,0.4,1.7,0.7,2c0.2,0.3,0.6,0.3,0.9,0.6c0.2,0,0.3,0,0.4-0.1l0.5-1.8c0.1-0.5-0.4-0.8-0.2-1.3
			c0-0.8,0.3-0.8,0.8-1.1c-0.2-0.2-0.2-0.2-0.4-0.1c-0.1,0-0.1,0-0.2,0c0.2-1.1,0.6-0.4,1-0.6c0.1-0.1,0.1-0.3,0.2-0.4
			c0.5-0.2,1.5,0.5,2,0.4c0.3-0.1,0.7-0.5,1.2-0.4c0.1,0.1,0.1,0.1,0.2,0.2c0.3,0.1,0.3-0.2,0.6,0c0.1-0.1,0.1-0.2,0.2-0.4
			c0.2,0.4-0.1,0.6-0.1,0.9c-0.1,0.5,0.2,0.6,0.3,0.9c0,0.3-0.1,0.7-0.1,1c0.1,0.2,0.5,0.4,0.5,0.6c0,0.2,0,0.3-0.1,0.5
			c0,0.7,0.2,1.3,0.5,1.7c0.3,0.4,0.8,0.6,1.1,1c0.2,0,0.4,0,0.7,0c0-0.4,0-0.8,0-1.2c-0.1-0.4-0.6-1.2-0.7-1.6
			c-0.1-0.3,0.2-0.4,0.1-0.8c0-0.3-0.3-0.5-0.3-0.7c0-0.2,0.1-0.5,0.1-0.7c-0.1-0.1-0.4-0.4-0.2-0.8c0.1-0.2,0.2-0.2,0.2-0.7
			c0.6-0.1,1.2-0.1,1.8-0.2c0.1,0,0.2,0.4,0.5,0.3c0.2-0.1,0.8-0.6,1.1-0.6c0.2,0,0.4,0.2,0.5,0.3c0.6-0.1,1-0.3,1.5,0.1
			c0.4,0.4,0.2,1.3,0.5,1.8c0.1,0.1,0.3,0.1,0.4,0.2c0,0.2,0,0.3,0,0.5c0.4,0.8,0.7,1.9,1.2,2.7c0.2,0.2,0.5,0.4,0.7,0.6
			c0.2-0.1,0.5-0.2,0.7-0.3c0.1-1.3-0.8-2.7-1.2-4.1c0.1-0.1,0.1-0.2,0.2-0.4c0.1,0.1,0.2,0.1,0.3,0.2c0,0,0.1,0,0.1,0
			c-0.1-0.4-0.3-0.5-0.4-0.9c0.1-0.1,0,0,0.1-0.2c0.6-0.1,1.3-0.2,1.8-0.2c0.2,0,0.4,0.1,0.6,0.1c0.1-0.1,0.2-0.2,0.3-0.3
			c0.7-0.2,1.7,0.3,2.4-0.2c0.2,0.1,0.2,0.1,0.4,0.2c0.1,1,0.3,2,0.7,2.9c0.2,0.5,0.5,0.8,0.6,1.6c0.2,0.1,1.1,0.6,1.3,0.8
			c0.5-0.1,0.5-0.7,0.8-1c-0.1-0.4,0-0.2-0.4-0.2c-0.2-0.4-0.2-1.3-0.4-1.7c0-0.1,0-0.1,0-0.2c0.7,0,1.3,0,1.7,0.3
			c0.1,0,0.1,0,0.2,0c0-0.1,0-0.1,0-0.2c-0.5-0.1-1.5-0.3-1.9-0.6c-0.1-0.1-0.4-1.5-0.4-2.1c1,0,1.6,0.4,2.5,0.2
			c0.2,0,0.6-0.3,0.9-0.2c0.1,0,0.6,0.2,0.8,0.2c0.6-0.1,0.6-0.3,1.4-0.3c0.1,1.5,0.8,2.8,0.6,3.9c0.4,0.3,1.5,1.4,1.9,1.5
			c0.2,0.1,0.5,0,0.8-0.1c0,0,0.1-0.1,0.1-0.1c-0.2-1-0.7-1.8-0.9-2.8c-0.2-0.9,0.4-1.3,0.1-1.9c0-0.2,0-0.3,0-0.5
			c0.2,0.1,0.2,0.1,0.3,0.3c0.3-0.1,0.7-0.3,1.2-0.2c0.2,0,0.6,0.2,0.9,0.1c0.2-0.1,0.6-0.3,0.9-0.4c0.2,0,0.4,0.1,0.7,0.1l0.4-0.2
			c0.2,0,0.7,0.2,1,0.1c0.3-0.1,0.1-0.3,0.6-0.4c0,0.6,0.1,1.7,0,1.9c0,0.2-0.3,0.7-0.2,1c0.1,0.1,0.2,0.1,0.3,0.2
			c-0.2,0.5-0.3,1.2,0,1.8c0.2,0.4,0.7,1.1,1,1.4c0.1,0.1,0.3,0,0.4,0.1c0.1,0.2,0,0.5,0.1,0.6c0,0.1,0,0.1,0,0.2
			c0.1-0.2,0.1-0.8,0-0.9c0.1-0.4,0-0.2,0.4-0.2c-0.1-0.4-0.4-3.3-0.3-3.5c0.1-0.2,0-0.1,0.3-0.2c0-0.2-0.2-0.7-0.1-1.1
			c0.1-0.3,0.3-0.4,0.2-1c1.3,0.1,2.5-0.5,4.3-0.5c0.1,0.5,0.2,1,0.4,1.3c-0.1,0.4-0.3,1.3-0.1,2c0.1,0.1,0.2,0.2,0.3,0.3
			c0.1,0.4-0.3,0.7-0.1,1.3c0.2,0.6,0.5,0.8,0.7,1.4c0.2,0,0.5,0.1,0.7,0.2c0.6-0.1,0.5-0.3,0.9-0.5c-0.1-0.5-0.4-1.1-0.7-1.4
			c0-0.2,0.1-1.9,0.1-2.1c0.1-0.1,0.2-0.2,0.4-0.3c0-0.1-0.4-0.8-0.4-1c0-0.3,0.1-0.1,0.2-0.2c0-0.3-0.1-0.5-0.1-0.8
			c0.9,0,2.5,0.5,3-0.1c0.2,0.1,0.2,0.2,0.3,0.4c0.1,0,0.1,0,0.2,0c0-0.1,0-0.3,0-0.4c0.4,0,1.1,0.1,1.4-0.1c0.2,0,0.3,0,0.4,0.1
			c0.4,0.5,0.3,2.3,0.3,2.8c0,0.3,0.4,0.3,0.2,0.7c-0.1,0-0.1,0.1-0.2,0.1c0.1,0.5,0.4,1.3,0.8,1.5c0.1,0.1,0.3,0.2,0.4,0.3
			c0.3,0,0.6,0,0.8-0.1c0-0.2-0.3-0.7-0.3-0.7c0.3-0.4,0.4-1.8,0.4-2.5c-0.2,0-0.2,0-0.3,0.1c0,0-0.1,0-0.1,0c0-0.5,0-0.6,0-1.1
			c0,0,0.1-0.1,0.1-0.1c0.2,0.1,0.2,0.1,0.4,0.2c0.1,0,0.1,0,0.2,0c-0.1-0.4-0.1-0.8-0.4-1.1c0,0,0-0.1,0-0.1c0.5,0,1.3,0.5,1.6,0.4
			c0.1-0.1,0.1-0.2,0.2-0.3c0.2-0.1,1.5,0.1,1.7,0.2c0.3,0,0.6,0,0.9,0c0.1,0.3,0.5,1.7,0.3,2.2c-0.1,0.4-0.3,0.5-0.3,1.2
			c0.2,0,0.2,0,0.3-0.1c0.2,0.1,0.1,0,0.2,0.1c0.3,0.4,0.2,1,0.6,1.3c0.1,0.8,0.8,0.7,1.2,1.2c0.9,0,1.8-1.7,1-2.7
			c0-0.5,0-0.6,0.5-0.6c-0.6-0.5-1.5-1.1-1.8-1.9c-0.1-0.1,0,0-0.1-0.2c0.4-0.3,1.1-0.5,1.2-0.8c0.2-0.3,0.2-0.7,0.4-1
			c0,0,0-0.1,0-0.1c0.1,0.1,0.1,0.1,0.2,0.2c0.3-0.1,0.2,0,0.2-0.3c1,0.1,2.5,0.7,2.8,1.6c0.4-0.1,0.6-0.2,0.9,0.2
			c0.8,0,0.6-0.3,1.2-0.4c-0.1-0.2-0.2-0.2-0.2-0.3c-0.1-0.2,0.2-0.6,0-0.9c-0.2-0.4-1-0.7-0.7-1.3c0-0.1,0-0.2,0-0.3
			c-0.2,0.1-0.4,0.4-0.5,0.3c-0.5,0-0.6-0.1-0.8-0.5c-0.2,0.1-0.1,0-0.2,0.3c-0.9-0.2-1.4-0.8-2.4-0.9c0-0.3,0-0.5-0.1-0.8
			c0.2,0,0.2,0,0.3,0.1c0.2,0,0.4,0,0.6,0c0,0,0-0.1,0-0.1c-0.3-0.1-0.6-0.3-0.9-0.4c-0.1-0.1,0,0-0.1-0.2c0.6-0.3,1.2-0.4,2-0.6
			c0.2,0,0.3,0.1,0.5,0.1c0.2-0.1,0.2-0.3,0.5-0.4c0-0.4,0.3-1.2,0.6-1.6c0-0.3-0.1-0.4-0.1-0.6c-1.2-0.1-1.1,0.3-1.9,0.5
			c-0.3,0.1-0.6-0.2-0.8-0.2c-0.6-0.1-1.6,0.4-1.9,0.8c-0.2,0-0.4,0-0.6,0c-0.2-0.7-0.3-1-0.3-1.9c-0.4,0-0.6,0-0.8-0.2
			c-0.3-0.2-0.4-0.6-0.7-0.8c0-0.4,0-0.7,0-0.9c0.2,0,0.2,0,0.3,0.1c0.8,0,1.2-0.2,1.3-0.8c0.5,0,0.9,0,1.1,0.3c0.1,0,0.2,0,0.4,0
			c-0.1-0.1-0.1-0.3-0.2-0.4c0.2-0.3,0.5-0.5,0.7-0.8c0.3,0.1,0.8,0.3,1.1,0.5c0.1,0,0.2,0,0.3,0c-0.1-0.3-0.3-0.4-0.6-0.6
			c0-0.3,0-0.3,0.2-0.5c-0.2-0.3-0.3-0.2-0.4-0.5c0,0-0.1-0.1-0.1-0.1c0,0,0.1,0,0.1,0c0.1-0.4,0.7-0.5,0.9-0.8
			c0.2-0.5-0.4-0.7-0.7-0.9c-0.7,0.2-2,1.3-2.7,1.7c-0.2,0-0.5,0.1-0.7,0.1c-0.1,0.1-0.3,0.3-0.4,0.4c-0.5,0.2-0.9,0.2-1.3,0.6
			c-0.6-0.2-0.9-0.9-1.4-1.3c0-0.3,0-0.4-0.1-0.5c0.1-0.6,1.5-1.7,2-1.9c0.5-0.2,1.2,0.1,1.5-0.4c0.2-0.5-0.1-1-0.2-1.5
			c-0.5-0.2-0.7-0.3-0.9-0.9c-0.4,0.1-0.8,0.1-1.3,0.3c-0.5,0.2-0.9,0.7-1.2,1c0,0.1,0,0.2,0,0.3c-0.6,0.1-0.7,0.4-1.1,0.7
			c-0.6-1.1-2.1-2.6-2.2-3.9c1.2-0.1,1.4-1,2.1-1.6c0.6-0.4,1.1-0.8,1.8-1.1c-0.1-0.7-0.5-1.1-1-1.3c-0.4-0.3-0.9-0.1-1.4-0.1
			c-0.6,0.7-1.7,2.1-2.6,2.4c-0.3-0.6-0.8-0.8-0.9-1.7c-0.1,0-0.2,0-0.3,0c-0.3-0.5-0.5-1.2-0.9-1.6c0.1-0.5,0.6-0.5,0.8-1
			c0.5,0,1,0,1.2,0.4c0.3-0.2,0.1-0.4,0.2-0.6c0,0,0.1,0,0.1,0c0.2,0,0.3,0,0.5,0c0.2-0.2,0-0.4,0.3-0.5c0-0.2,0-0.4,0-0.6
			c0.3,0,0.5,0,0.6-0.1c0.1-0.1,0.4-1.1,0.1-1.5c-0.3-0.8-0.9-0.6-1.6-1c-0.7,0.3-0.9,1-1.4,1.5c-0.4,0.4-1.5,0.9-2.1,1.3
			c-0.9-1.7-1.9-2.8-2.6-4.6c0.4-0.3,0.7-0.9,1.1-1.2c0.1,0,0.2,0,0.4,0c0.7-0.3,1.3-0.7,1.8-1.3c0.1-0.1,0.1-0.2,0.2-0.3
			c-0.2-0.6-0.5-0.7-0.7-1.3c-0.6,0-1.2,0-1.7-0.1c-0.2,0.4-1.5,1.5-2,1.7c-0.1,0.1,0,0-0.2,0.1c-0.5-0.8-0.9-1.8-1.5-2.6
			c-0.2-0.1-0.4-0.3-0.6-0.4c0-0.1,0-0.3,0.1-0.4c-0.1-0.3-0.5-0.6-0.7-0.9c-0.1-0.3-0.2-0.6-0.3-0.9c-0.1-0.1-0.4-0.1-0.5-0.2
			c-0.1-0.1,0.1-0.5-0.1-0.8c-0.1-0.2-0.4-0.4-0.5-0.6c0-0.2,0-0.5,0-0.7l-0.4-0.4c0-0.3-0.1-0.5-0.1-0.8c-0.1-0.1-0.3-0.2-0.4-0.3
			c-0.2-0.4-0.1-0.7-0.3-1c-0.1-0.8,1.6-2.4,2.2-2c0.1-0.1,0.4-1.1,0.7-1.4c-0.1-1-0.5-1-0.8-1.6c-0.7,0.1-0.9,0.4-1.4,0.7
			c-0.2-0.3-0.4-0.6-0.6-0.9c-0.1,0-0.1,0-0.2,0c0.1,0.4,0.2,0.6,0.4,0.8c0,1-1.1,1-1.5,1.8c-0.2,0-0.2,0-0.3-0.1
			c-0.4-0.2-0.8-1.8-1.3-2.3c0-1.2,1.1-0.7,1.4-1.6c0.2,0.1,0.3,0.1,0.5,0.2c0.5-0.1,0.6-0.4,0.9-0.7c0-0.5-0.1-0.5-0.1-0.9
			c-0.1-0.1-0.3-0.3-0.4-0.4c-0.8,0-0.9-0.3-1.7-0.3c-0.3,0.4-0.8,0.6-1.1,1.1c-1.2,0-1.2-0.9-1.7-1.8c-0.3-0.2-0.5-0.5-0.8-0.7
			c-0.2-0.3-0.2-0.5-0.4-0.8c0-1.1,0.6-0.4,1.3-0.8c0.2-0.1,0.4-0.6,0.5-0.8c0.4-0.6,1.3-1.4,1.9-1.9c0-0.2,0-0.3-0.1-0.4
			c-0.1-0.9-0.4-0.9-0.7-1.4c-1.3,0.2-1.9,1.4-2.7,2.1c0,0.1,0,0.2,0,0.3c-0.4,0.1-0.7,0.5-0.9,0.8c-0.5-0.1-0.6-0.8-1-1.1
			c0-0.2,0-0.4,0-0.6c-0.1,0-0.2,0-0.3,0c-0.1-0.6-0.5-1.1-0.8-1.4c0.1-0.8,0.5-0.5,0.9-1c0-0.1,0-0.2,0-0.3
			c0.7-1.1,2.1-1.8,2.5-3.3c-0.4-0.3-0.8-0.7-1.1-1.2c-0.3,0-0.5,0.2-0.6,0.1c-0.9,0.1-1.4,1.4-2,1.8c-0.3,0.2-0.6,0.2-0.9,0.4
			c-0.2,0-0.3,0-0.5,0c-0.1-0.3-0.2-0.3-0.2-0.7c-0.2,0-0.2,0-0.3,0.1c-0.5-0.5-1.1-1.6-1.5-2.2c0.1-0.1,0.1-0.1,0.2-0.3
			c0.4,0.1,0.5,0,0.9,0c0.3-0.8,2.2-2.5,2-3.4c-0.1-0.4-0.4-0.7-0.5-1.1c-0.8,0.1-0.8,0.6-1.2,0.9c-0.2,0-0.4,0.1-0.6,0.1
			c-0.2,0.2-0.4,0.3-0.6,0.5c0,0.4-0.1,0.5-0.1,1c-0.2,0-0.2,0-0.3,0.1c-0.3,0.1-0.2,0.3-0.4,0.6c0,0,0,0.1,0,0.1
			c-0.7-0.8-1.4-2.6-2.2-3.2c0-0.5,0.1-0.9,0.3-1.1c0.2,0,0.3,0,0.5,0c0.1-0.1,0.1-0.4,0.2-0.5c0.2-0.3,0.7-0.5,1-0.7
			c0,0,0-0.1,0-0.1c0.3-0.2,0.7,0.1,0.8,0c0.2-0.1,0.4-0.6,0.5-0.8c0.5,0,1.1,0,1.4,0.2c0.2-0.1,0.1,0,0.2-0.1c0,0,0.1,0,0.1,0
			c0-0.1,0-0.1,0-0.2c-0.3-0.1-1.2-0.1-1.5-0.3c0-0.1-0.1-0.2-0.1-0.3c-0.2-0.2-0.8-0.6-1.1-0.7c-0.4-0.1-0.4,0.2-0.8-0.2
			c-0.7,0-2.4,1.7-2.6,2.3c-1.3-0.1-1.8-1.9-2.4-2.6c0.1-0.9,0.7-1.1,1.1-1.8c0.2,0,0.4,0.1,0.6,0.2c0.6-0.2,1.6-1.3,1.8-1.9
			c0.5-0.1,0.7-0.3,1.4-0.3c0-0.1,0-0.2,0-0.3c-0.2,0.1-0.1,0-0.2,0.1c-0.4,0-1.3-0.8-1.4-1.1c-0.5,0-3.1,0.8-3.4,1.1
			c-0.1,0.1,0,0.3-0.1,0.5c0,0-1.2,0.9-1.2,0.9c0,0,0,0.1,0,0.1c-0.6-0.2-1-1-1.1-1.8c-0.2,0-0.6-0.1-0.8-0.2
			c-0.1-0.2,0.1-0.3-0.2-0.5c0-0.8,0.5-1.5,0.9-2c0.1-0.1,0.1-0.1,0.1-0.3c0.8-0.1,1.1-0.6,1.6-1.1c0-0.2-0.1-0.4-0.1-0.6
			c0.3,0,0.4,0,0.6,0.1c0.4,0,0.4,0,0.5-0.2c-0.1-0.2-0.3-0.2-0.5-0.3c0,0-0.1-0.1-0.1-0.1c0.3-0.2,0.4-0.3,0.8-0.4
			c0-0.4,0.1-0.4,0.3-0.6c0-0.1,0-0.2,0-0.3c-0.6,0.1-0.9,0.4-1.4,0.5c0-0.1,0-0.2,0-0.3c-0.8,0.1-3,1.2-3.2,1.6
			c-0.3,0.5-0.5,1.2-1,1.5c0,0-0.1,0.1-0.1,0.1c0,0,0-0.1,0-0.1c-1.1-0.4-2.4-4.2-3.2-5.4c-0.2-0.1-0.1,0-0.4,0c0,0,0.1-0.1,0.1-0.1
			c0-0.1,0-0.1,0-0.2c0.3,0.1,0.3,0,0.4,0.3c1.1-0.1,1.4-1.1,2-1.7c0.4-0.4,0.9-0.6,1.3-0.9c0.1-0.4,0.3-1.2,0-1.6
			c-0.1-0.2-0.4-0.2-0.7-0.5c-1.6,0-1.7,1.5-2.6,2.2c-0.3,0.3-0.6,0.2-0.8,0.6c-0.1,0-0.1,0-0.2,0c-0.3-0.5-2-3.6-2.1-3.7
			c0.1-0.9,0.9-0.9,1.1-1.9c0.6,0,1.1-0.1,1.7-0.1c0.3-0.9,0.1-0.6,0.7-1.1c0,0,0.1-0.1,0.1-0.1c-0.2-0.1-0.5,0.1-0.9-0.1
			c-0.2-0.1-0.3-0.5-0.4-0.6c-0.4-0.3-0.9-0.4-1.3-0.7c-0.1-0.1,0.1-1,0.2-1.2c0-0.3,0-0.5-0.1-0.8c-0.1,0-0.2-0.1-0.3-0.1
			c-0.1,0.1-0.2,0.2-0.3,0.3c0.1,2.1-0.7,2.6-1.2,3.8c-0.2,0-0.3,0-0.4,0.1c-0.6-0.2-0.8-0.9-1.2-1.4c-0.2-0.1,0-0.1,0.1-0.3
			c-0.6-0.6-0.8-1.6-1.4-2.2c0-0.3,0.7-1.5,0.9-1.6c0.2-0.1,0.6,0,0.7-0.2c0.1-0.2,0-0.5,0.1-0.7c0.3-0.6,0.9-0.9,1.2-1.5
			c0.2-0.4,0.3-0.8,0.6-1.1c0-0.3,0-0.5-0.1-0.7c-0.2-0.5-1-0.4-1.4-0.4c-0.2,0.3-0.5,0.3-0.8,0.5c-0.3,0.2-0.2,0.5-0.4,0.8
			c-0.1,0.2-0.3,0.1-0.5,0.3c-0.2,0.2-1.1,1.5-1.2,1.9c-0.3,0-0.3-0.1-0.4,0c-1-0.2-1.3-1.8-1.8-2.6c-0.1-0.2-0.5-0.2-0.6-0.4
			c-0.4-0.7-0.2-1.3-0.9-1.6c0,0,0-0.1,0-0.1c0.4-0.4,0.5-0.9,1-1.3c0-0.2,0-0.4,0-0.6c0.4,0,0.8-0.1,1.1-0.3c0.1,0,0.1,0,0.2,0
			c0-0.3,0-0.6-0.1-0.9c0.1-0.2,0.5-1.1,0.7-1.3c-0.1-0.4-0.5-0.8-0.7-1c-0.2-0.2-0.6-0.1-0.9-0.3c-0.5,0.2-2.1,2.8-2.4,3.3
			c-0.1,0-0.2,0-0.3,0c-0.2-0.9-1-1.3-1.3-2c0-0.3-0.1-0.5-0.1-0.8c-0.4-0.8-1.2-1.7-1.9-2.2c0.1-0.7,0.7-0.5,1.2-0.8
			c0.2-0.2,1.1-1.5,1.3-1.8c0.1,0,0.2,0,0.3,0c0-0.3,0.1-0.7,0.3-0.9c-0.1-1.3-0.7-1-1.4-1.6c-0.9,0.1-0.7,0.8-1,1.4
			c-0.2,0.3-0.8,0.2-0.9,0.5c0,0.1,0.1,0.2,0.1,0.3c-0.1,0.3-0.4,0.7-0.5,1.1c-0.4-0.1-0.3-0.2-0.7-0.3c0-0.4-0.1-0.8,0.1-1
			c-0.2-0.4-0.5-0.3-0.7-0.6c-0.2-0.3-1.5-3.1-1.4-3.5c0.2-0.7,0.9-0.8,1-2.2c0.3,0,0.5,0,0.6-0.2c0.4-0.2,0.7-0.5,0.7-1.2
			c0.2,0,0.3,0,0.5,0c-0.3-0.7-1.1-0.9-1.5-1.5c-0.3,0.1-0.6,0.1-0.9,0.2c-0.1,0.4-0.2,0.4-0.1,0.9c-0.1,0.1-0.3,0-0.4,0.1
			c-0.1,0.2,0,0.5-0.1,0.7c-0.2,0.4-0.7,0.6-1,1c-0.1,0-0.1,0-0.2,0c-0.5-1-1.6-2.4-2.3-3.2c0.1-0.5,0.6-0.4,0.9-0.7
			c0.1-0.2-0.1-0.5,0-0.6c0.2-0.4,0.7-0.5,0.9-1c0.1-0.1,0.1-0.2,0.1-0.4c0.2,0,0.2,0,0.3-0.1c0.2-0.1,0.2-0.1,0.4-0.2
			c-0.1-0.9-0.3-1.4-0.5-2c-0.4,0.1-0.3,0.2-0.6,0c-0.2,0-0.4,0-0.7,0c-0.2,0.1,0,0.5-0.1,0.7c-0.5,0.8-1.1,1.8-1.4,2.8
			c-0.6-0.2-0.4-0.6-0.7-1c-0.9-1.2-1.2-2.6-0.8-4.3c0-0.2,0-0.3,0-0.5c0.1,0,0.2-0.1,0.4-0.1c0-0.3,0-0.5-0.1-0.8h0.2
			c0.2-0.3,0.1-0.8,0.3-1.1c0-0.7-1-1.6-1.6-1.2c-0.5,0.3-1.2,3.3-1.2,4.1c-0.3,0-0.2-0.1-0.4,0c-0.5-0.5-0.8-1.4-1.5-1.6
			c0,0,0-0.1,0-0.1c-0.3,0-0.1,0.1-0.2,0.2c-0.2,0-0.2,0-0.4-0.1c-0.1-1.4,0.2-1.8,0.5-2.8c0.1-0.5,0-1.2,0-1.6
			c-0.4-0.4-0.7-0.9-1.2-1.3c-1.2,0.1-0.5,1.5-0.9,2.5c0,0.1-0.3,0.3-0.3,0.5c-0.1,0.5,0.3,0.8,0.2,1.4c-0.1,0.5-0.2,1.8-0.1,2.5
			c0,0.2,0.2,0.7,0.2,1c-0.2,0.7-1.1,1.9-1.2,2.8c-0.1,0-0.2,0-0.3,0c-0.1-0.6-0.8-2-0.6-2.4c-0.1-1.1-0.3-1.1-0.7-1.7
			c-0.6,0-0.7,0.1-1,0.3c0.2,1.9,0.1,4.4,1.7,5.3c0,1.4-1.5,2.3-1.7,3.5c-0.1,0-0.1,0-0.2,0c-0.3-0.5-0.8-1.1-1-1.6
			c0-0.2,0-0.4,0-0.6c-0.1-0.3-0.6-0.9-0.8-1.1c-0.5-0.5-1.2-0.6-1.6-1.2c-0.2,0.1-0.4,0.4-0.6,0.6c0.1,1.1,0.8,1.6,1.3,2.4
			c0.1,0.3,0.2,0.6,0.2,0.9c0.3,0.3,0.5,0.5,0.8,0.8c0.2,0.4,0.2,0.8,0.4,1.1c0.2,0.2,0.4,0.2,0.5,0.5c-0.6,0.6-0.6,1.6-1,2.4
			C387.9,240.2,387,241.7,386.4,242.3z M372.2,269.5c-0.1,0-0.1,0-0.2,0c0-0.1,0-0.3,0-0.4C372.2,269.2,372.1,269.1,372.2,269.5z
			 M369.2,278.5c0-0.1,0-0.1,0-0.2C369.4,278.3,369.3,278.3,369.2,278.5z M365.4,284.9C365.4,284.9,365.4,284.9,365.4,284.9
			c-0.1,0.1-0.1,0.1-0.2,0.1c0,0,0-0.1,0-0.1C365.3,284.9,365.3,284.9,365.4,284.9z M365,284.3c0,0.1,0,0.1,0,0.2
			c-0.1,0-0.1,0-0.2,0c0-0.1,0-0.1,0-0.2C364.9,284.3,364.9,284.3,365,284.3z M363.2,290.6c-0.1,0.1-0.1,0.1-0.3,0.1
			c0,0,0-0.1,0-0.1C363,290.6,363.1,290.6,363.2,290.6z M331.5,351.6c-0.1,0.1-0.1,0.2-0.2,0.3C331.4,351.7,331.4,351.7,331.5,351.6
			z M333.9,363.6c-0.3-0.1-0.3-0.1-0.5-0.2c0,0,0.1-0.1,0.1-0.1c0.1-0.1,0.3,0,0.5-0.2c0.2,0,0.2,0,0.3,0.1c0,0,0.1,0,0.1,0
			c0,0.1,0,0.1,0,0.2C334.2,363.4,334,363.5,333.9,363.6z M430.5,277.7C430.5,277.7,430.5,277.8,430.5,277.7c0,0.1,0.1,0.2,0.1,0.2
			c-0.1,0-0.1,0-0.2,0C430.4,277.7,430.4,277.8,430.5,277.7z M389.2,242c0-0.4,0-0.7,0-1.1c0.7-0.2,1.2-1.5,1.4-2.2
			c0-0.2,0-0.3,0-0.5c0.2-0.4,0.9-0.7,1.1-1.1c0.3-0.5,0.2-1.1,0.5-1.6c0.4-0.5,1-1.2,1.1-1.9c0.1,0,0.2,0,0.3,0
			c0.3-0.8,0.8-1.4,1.1-2.1c0.3-0.6,0.3-1.1,0.6-1.7c0.1-0.3,0.7-0.2,0.8-0.4c0.1-0.4,0.1-0.7,0.2-1.1c0,0,0.1-0.1,0.1-0.1
			c0,0,0,0.1,0,0.1c1,0.3,1.2,1.2,1.7,2.1c0.3,0.3,0.6,0.6,0.9,0.9c0.4,0.6,0.7,1.1,1.1,1.8c0.2,0.1,0.3,0.3,0.5,0.4
			c0,0.2,0.1,0.5,0.1,0.7c0.1,0.1,0.3,0.1,0.4,0.2c0.2,0.3,0.4,0.6,0.5,0.9c0.1,0.2,0.5,0.2,0.6,0.4c0.3,0.3,0.1,0.6,0.3,1
			c0.1,0.1,0.5,0.4,0.6,0.5c0.3,0.4,0.2,0.9,0.5,1.3c0.3,0.4,0.8,1,1.1,1.4c0.4,1.1,0.8,2.2,1.2,3.3c0.2,0.2,0.5,0.4,0.7,0.6
			c0.3,0.5,0.4,1,0.8,1.5c0.1,0.1,0.2,0.1,0.3,0.2c0.1,0.2-0.1,0.4,0,0.7c0.1,0.2,0.5,0.3,0.6,0.5c0.2,0.3,0.1,0.7,0.3,1
			c0.4,0.4,0.8,0.8,1.2,1.2c0.2,0.3,0.1,1.1,0.2,1.2c0.1,0.2,0.9,0.6,1.1,0.9c0.5,0.7,0.6,1.7,1.2,2.4c0.9,1.1,1.5,2.4,2.4,3.6
			c0.2,0.2,0.5,0.3,0.7,0.6c0.2,0.3-0.1,0.4,0,0.6c0.1,0.1,0.3,0.1,0.4,0.2c0.3,0.4,0.2,0.9,0.5,1.4c0.1,0.2,0.5,0.7,0.6,0.9
			c0.1,0,0.2,0.1,0.3,0.1c0.2,0.3,0.1,0.5,0.2,0.8c0.3,0.5,0.8,1,1.1,1.5c0,0.2,0.1,0.4,0.1,0.6c0.4,0.7,1.1,1.5,1.4,2.2
			c0.2,0.4,0.1,0.7,0.3,1c0.2,0.2,0.5,0.5,0.7,0.7c0.3,0.4,0.3,0.9,0.6,1.3c0.1,0.2,0.5,0.3,0.6,0.5c0.6,0.8,0.7,1.9,1.2,2.8
			c0.2,0.4,0.9,0.9,1,1.3c0.1,0.2-0.2,0.4,0,0.7c0.1,0.1,0.3,0.1,0.4,0.2c0.3,0.6,0.4,0.9,0.7,1.6c0.1,0.2,0.4,0.4,0.5,0.6
			c0.1,0.2,0,0.6,0.3,1c0.3,0.4,0.8,0.7,1.1,1.1c0.2,0.2,0.3,0.5,0.4,0.7h0.1c0,0.2,0,0.3,0,0.5c0.1,0.2,0.3,0.2,0.5,0.3
			c0.4,0.3,0.7,0.8,1,1.2c0.1,0.1,0.3,0.1,0.4,0.2c0.2,0.3,0.1,0.6,0.3,1c0.1,0,0.2,0.1,0.3,0.1c0.3,0.3,0.3,0.7,0.5,1.1
			c0.2,0.2,0.4,0.3,0.6,0.5c0,0.2,0,0.4,0,0.6c0.1,0.1,0.3,0.1,0.4,0.2c0,0.1,0,0.3,0,0.4c0.1,0.1,0.3,0.1,0.4,0.2
			c0.3,0.4,0.1,1,0.4,1.4c0.4,0.6,1.1,1,1.5,1.6c0.9,1.5,1.9,2.8,2.8,4.3c0.2,0.3,0.7,0.5,0.9,0.8c0,0.1-0.2,0.2-0.1,0.4
			c0.1,0.2,0.5,0.2,0.6,0.4c0.3,0.5,0.2,0.8,0.5,1.3c0.1,0.1,0.8,1.3,0.8,1.4c0.1,0,0.3,0.1,0.4,0.1c0.2,0.3,0.1,0.6,0.2,0.9
			c0.1,0.3,0.6,0.6,0.7,0.9c0.3,0.6,0.4,1.1,0.8,1.7c0.1,0.1,0.3,0.1,0.4,0.2c0.3,0.3,0.3,0.9,0.6,1.3c0.4,0.6,1.2,1.2,1.5,1.8
			c0,0.3,0.1,0.5,0.1,0.8c0.1,0.3,0.6,0.6,0.7,0.9c0,0.1-0.2,0.3-0.1,0.5c0.2,0.4,0.7,1,0.9,1.4c0.3,0.6,0.2,1.2,0.6,1.7
			c0.5,0.7,1.3,1.2,1.8,2c0.3,0.5,0.2,1,0.5,1.5c0.1,0.3,0.5,0.5,0.6,0.8c0,0.2,0,0.5,0,0.7c0.1,0.1,0.4,0.2,0.5,0.3
			c0.1,0.3,0.2,0.7,0.3,1c0.1,0,0.2,0.1,0.3,0.1c0.2,0.3-0.1,0.5,0.1,0.9c0.1,0.2,0.3,0.1,0.4,0.2c0,0.1-0.1,0.1-0.1,0.2
			c0.2,0.7,1,1.3,1.3,1.9c0.2,0.4,0.1,0.8,0.3,1.2c0.2,0.3,0.6,0.7,0.8,1c0.5,0.7,0.6,1.7,1,2.5c0.5,0.8,1.2,1.6,1.7,2.4
			c0.3,0.4,0.2,0.9,0.5,1.4c0.2,0.3,0.7,0.8,0.8,1.2c0,0.1,0,0.2-0.1,0.3c0.1,0.1,0.3,0.2,0.4,0.3c0,0.2,0.1,0.5,0.1,0.7
			c0.2,0.2,0.3,0.3,0.5,0.5c0,0.2,0,0.3,0,0.5c0.1,0.1,0.3,0.2,0.4,0.3l0,0.5c0.1,0.2,0.5,0.3,0.6,0.6c0,0.3,0.1,0.6,0.2,0.9
			c0.3,0.6,1,1.2,1.2,2c0.1,0,0.2,0,0.3,0c0.1,0.2,0.1,0.5,0.2,0.8c0.2,0.3,0.6,0.5,0.8,0.8c0.1,0.4,0.3,0.7,0.4,1.1
			c0.1,0.2,0.5,0.2,0.6,0.4c0,0.2,0.1,0.4,0.1,0.6c0.1,0.1,0.3,0.2,0.4,0.3c0.2,0.4,0,0.9,0.3,1.4c0.1,0.1,0.3,0.2,0.4,0.3
			c0.4,0.5,0.5,1.1,0.9,1.6c0.1,0.2,0.4,0.2,0.6,0.4c-0.3,0.4,0.9,1.5,1.1,1.9c0.3,0.5,0.2,1,0.5,1.5c0.3,0.5,0.5,1.1,0.9,1.7
			c0.4,0.8,1.4,1.7,1.7,2.6c0,0.1-0.1,0.7,0,1c-0.1,0-0.2,0-0.3,0c-0.1,0.2,0,0.4-0.2,0.5c0.1,0.4,0.3,0.8,0.5,1.1
			c0.3,0.2,0.6,0.1,0.9,0.2c0.2,0.1,0.4,0.3,0.6,0.4c0,0.1,0,0.5,0,0.5c0.1,0.2,0.7,0.4,0.9,0.6c0.6,0.8,0.8,1.8,1.7,2.3
			c0,0.3,0,0.5,0.1,0.6c0,0.7-0.5,1.1-0.7,1.6c-0.5,0-1,0.1-1.2,0.1c-0.5-0.1-1.8-0.4-2.2-0.3c-0.5,0.2-2.8,0.4-3.5,0.3
			c-0.3-0.1-1.3-0.3-1.7-0.2c-0.2,0-0.6,0.2-0.9,0.1c-0.5-0.2-1.6-0.1-2.5-0.1c-1.9,0-4.3,0-6.2,0.5c-0.4,0-0.9-0.1-1.3-0.1
			c-0.1,0-0.6,0.2-0.7,0.2c-0.1,0-0.2-0.3-0.5-0.2c-2.2,0.5-4.4,0.1-6.6,0.7c-0.5,0.1-0.7-0.2-0.9-0.3c-0.2,0.1-0.2,0.2-0.4,0.3
			c-0.1,0-2.4-0.2-2.5-0.2c-0.1,0-0.3,0.2-0.6,0.1c-0.2,0-0.2-0.3-0.6-0.2c-0.2,0-0.6,0.2-0.7,0.3c-0.8-0.3-1.1-0.3-2-0.1
			c-0.2,0-0.3-0.1-0.5-0.1c-0.1,0-0.6,0.4-0.7,0.4c-0.2,0-0.2-0.2-0.3-0.2c0,0-2-0.1-2.2,0c-0.5,0.1-1.6,0.3-2,0.4
			c-0.2,0-0.3-0.3-0.4-0.2c-0.2,0.1-0.3,0.4-0.5,0.5c-0.3,0.1-0.4-0.2-0.5-0.2c-0.2,0-0.6,0.2-0.7,0.2c-0.3,0.1-0.6-0.1-0.8-0.2
			c-0.3-0.1-2.9,0-2.9,0c0,0-0.1,0-0.1,0c0.1-0.3,0.1-0.3,0.3-0.5c0-0.1,0-0.1,0-0.2c-0.4,0.2-0.6,0.7-1,0.8c-0.4,0.1-1.6-0.1-2,0
			c-0.1,0.1-0.1,0.1-0.2,0.2c-0.7,0.2-1.3-0.2-2-0.1c-0.1,0-0.8,0.2-0.9,0.2c-0.3,0-0.8-0.3-1.3-0.2c-0.4,0.1-1,0.2-1.5,0.2
			c-0.2,0-0.4-0.1-0.6-0.1c-2.1,0.6-4.5,0-6.7,0.5c-0.7,0.1-1.5-0.1-2.1-0.3c-0.4-0.1-0.3,0.3-0.5,0.2c-0.2-0.2-0.9-0.3-1.4-0.2
			c-0.2,0.1-1.5,0.3-1.7,0.2c0-0.1,0-0.1,0-0.2c-0.1,0-0.1,0-0.2,0c-3.2,0.5-7-0.2-9.7,0.1c-0.3-0.1-0.6-0.1-0.8-0.2
			c-0.1,0.1-0.2,0.1-0.3,0.2c-0.2-0.1-0.5-0.4-0.9-0.3c-0.2,0-0.7,0.3-1,0.4c-0.2,0-0.3-0.2-0.4-0.2c-0.3-0.1-0.8,0.1-1.3,0
			l-0.3-0.2c-0.1,0-0.5,0.2-0.5,0.2c-0.7,0.2-1.7-0.2-2.1-0.2c-0.3,0-0.4,0.2-0.5,0.2c-0.6,0.1-1.7-0.1-1.9-0.2
			c-0.3,0-0.6,0.1-0.9,0.1c0-0.1,0-0.1,0-0.2c-0.4-0.2-0.9,0.3-1.4,0.3c-0.6,0-1.5-0.2-2-0.3c-1.2,0.2-2.4,0.3-3.5,0
			c-0.6-0.2-1.3,0.1-1.7,0.2c-0.4,0.1-1.6-0.1-1.9-0.1c-0.2,0-0.4,0.1-0.6,0.1c-1.6-0.3-2.8-0.4-4.5,0c-0.5,0.1-1.4,0-1.8-0.1
			c-0.5-0.1-1.1,0-1.6,0.1c-0.3,0.1-0.8-0.2-1-0.2c-0.4-0.1-1.1,0.1-1.5,0.2c-0.6,0.1-2.5,0.2-2.8-0.1c-0.4,0.2-0.5,0.3-1.2,0.2
			c-0.6-0.1-1.1,0.1-1.4-0.3c-0.2,0.2-0.1,0-0.1,0.3c-0.4,0-0.6-0.1-0.8-0.2c-0.2-0.1-0.3,0.1-0.5,0.1c-0.6,0-2.2,0-2.5,0
			c-0.6-0.1-1.2-0.1-1.4,0.3c-0.2-0.1-0.3-0.3-0.5-0.4c-0.1-0.3-0.1,0.2-0.2,0.2c-0.2,0.1-1.7-0.1-2,0c0,0,0,0.1-0.2,0.1
			c-1.1-0.3-2-0.2-3.3,0c-0.5,0.1-0.9-0.2-1.4-0.1c-0.1,0-0.4,0.3-0.5,0.3c-0.4,0-1.1-0.3-1.5-0.2c-0.7,0.2-1.3,0.3-2,0.3
			c-0.5,0-2.5,0.4-2.9-0.1c-0.1,0-0.2,0-0.3,0c0.1,0.1,0.1,0.3,0.2,0.4c-0.3,0.1-2,0.3-2.3,0.1c-0.4,0-0.4-0.1-0.7-0.2
			c0-0.1,0-0.2,0-0.3c-0.1,0-0.2,0-0.3,0c0.1,0.2,0,0.1,0.1,0.2c0,0.1,0,0.3,0,0.4c-0.6-0.2-2.1-0.2-2.4-0.4
			c-0.1-0.1-0.1-0.4-0.2-0.5c-0.2-0.2-0.7,0-0.9-0.1c0,0-0.1-0.1-0.1-0.1c0.2-0.1,0.2,0,0.3-0.1c0.1-0.3-0.4-0.3-0.2-0.8
			c0.1-0.1,0.2-0.1,0.3-0.2c0.1-0.4,0-0.6-0.1-1c0.8-0.1,0.4-0.5,0.7-1.2c0.1-0.4,0.5-0.8,0.7-1.2c0-0.1,0-0.3,0-0.4
			c0.2-0.4,0.6-0.9,0.7-1.3c0.3-0.9,0.3-1.8,0.7-2.7c0.1-0.3,0.6-0.6,0.7-0.9c0-0.3,0.1-0.6,0.1-0.9c0.4-0.8,1.1-1.8,1.1-3
			c0.1,0,0.2,0,0.3,0c0.3-0.7,0.9-1.7,1.1-2.4c0.1-0.4-0.1-0.8,0-1.1c0.1-0.1,0.3-0.3,0.4-0.4c0-0.2,0-0.4,0-0.6
			c0-0.1,0.3-0.7,0.3-0.8c0.1,0,0.2-0.1,0.3-0.1c0.3-0.7-0.4-0.8,0.6-1c0-0.9,1.2-1.3,0.7-2.1c0.2,0,0.3-0.1,0.5-0.1
			c0-0.5,0.1-0.7,0.3-0.9c-0.1-0.1-0.3-0.1-0.4-0.2c0.1-0.6,0.5-0.3,0.8-0.7c0.3-0.4,0-0.9,0.1-1.2c0.2-0.2,0.5-0.5,0.7-0.7
			c0-0.2,0-0.3,0-0.5c0.1-0.3,0.3-0.2,0.3-0.8c0.1,0,0.2,0,0.3,0c0-0.3,0.1-0.2,0-0.4c0.2-0.4,0.1,0.1,0.4-0.2
			c0.3-0.3,0.4-0.9,0.6-1.3c0.2-0.4,0.5-0.7,0.8-1c0.1-0.2,0-0.2-0.1-0.5c0.1-0.1,0.6-0.4,0.7-0.6c0.1-0.3-0.2-0.4,0-0.7
			c0.2-0.2,0.5-0.4,0.6-0.7c0.1-0.3,0-0.5,0.1-0.8c0.2-0.4,0.6-0.8,0.7-1.3c0-0.2-0.1-0.3-0.1-0.5c0.1-0.3,0.8-0.5,1-0.9
			c0.1-0.2-0.1-0.4-0.1-0.4c0.1-0.1,0.3,0,0.4-0.1c0.1-0.3,0-1,0.2-1.2c0.1-0.2,0.6-0.2,0.7-0.4c0,0,0-0.1,0-0.1c0-0.1,0-0.2,0-0.3
			c0-0.1,0.2-0.1,0.3-0.2c0-0.1-0.1-0.2-0.1-0.3c0.3-0.3,0.6-0.3,0.8-0.7c0.1-0.3,0.1-0.6,0.2-0.9c0.1-0.2,0.5-0.3,0.6-0.5
			c0.2-0.3,0.7-2.1,0.6-2.3c0.1-0.2,0.1-0.2,0.5-0.2c0.1-0.4,0.1-0.5-0.2-0.7c0.1-0.2,0-0.1,0.3-0.2c0-0.3,0-0.4-0.1-0.5
			c0-0.2,0-0.2,0.1-0.3c0.2-0.1,0.2-0.1,0.4,0c0.2-0.1,0.3-0.2,0.4-0.3c0-0.3,0-0.5,0-0.6c0-0.1,0-0.3,0-0.4
			c0.1,0.1,0.2,0.1,0.3,0.2c0.6,0,1-1.3,0.6-1.7c0.1-0.5,0.3-0.6,0.8-0.8c0-0.3,0.1-0.3,0-0.5c0.1-0.2,0.3-0.3,0.4-0.4
			c0-0.2,0-0.2-0.1-0.3c0.1-0.5,0.7-0.5,1-1c0.3-0.4,0.3-1.1,0.5-1.6c0.1,0,0.2-0.1,0.3-0.1c0-0.3,0.1-0.6,0.1-0.9
			c0.1-0.2,0.6-0.5,0.7-0.7c0.3-0.6-0.1-1.6,0.1-2c0-0.4,0-0.4,0.1-0.6c0.2,0.1,0.2,0.1,0.4,0.2c0.7-0.1,0.8-1.2,0.7-1.9
			c0.2,0,0.2,0,0.3-0.1c0.3-0.2,0.3-0.9,0.4-1.3c0.1,0.1,0.1,0.2,0.2,0.3c0.7-0.3,0.6-1.2,0.9-1.9c0.2-0.5,0.6-1.1,0.8-1.6
			c0-0.2,0-0.3,0-0.5c0.1,0,0.2-0.1,0.4-0.1c0-0.2,0-0.5,0-0.7c0.1-0.2,0.3-0.3,0.4-0.5c0-0.2,0-0.3,0.1-0.5
			c0.3-0.5,0.7-0.7,0.7-1.6c0.9-0.2,0.8-1.3,1.5-1.8c0-0.1,0-0.2,0-0.3c-0.1,0-0.2,0-0.3,0c0.4-0.3,0.6-0.3,0.6-1
			c0.1,0,0.2,0.1,0.3,0.1c0.2-0.5,0.2-0.7,0.4-1.2c0-0.2,0-0.5,0-0.7c0.1-0.1,0.4-0.2,0.4-0.3c0.4-0.6,0.7-1.8,0.7-2.4
			c0.2-0.1,0.5-0.2,0.7-0.3c0-0.2,0.1-0.5,0.1-0.7c0-0.7,0.3-0.5,0.5-0.7c0.1-0.2,0-0.1,0-0.3c0.1,0,0.2,0,0.4,0
			c0.1-0.6,0.4-0.8,0.5-1.4c1.1-0.1,0.2-0.4,0.6-1c0.2,0,0.3-0.1,0.5-0.1c0.2-0.2,0-0.6,0.1-0.8c0.1-0.1,0.2-0.2,0.4-0.3
			c0.1-0.2,0-0.5,0.1-0.7c0.1-0.1,0.3-0.2,0.4-0.3c0.1-0.2,0-0.5,0.1-0.7c0.1-0.2,0.5-0.2,0.6-0.3c0.2-0.3,0.4-1.2,0.2-1.5
			c0-0.4,1-1.5,1.1-1.6c-0.2-0.2,0-0.1-0.3-0.2c0.1-0.1,0.1-0.1,0.4-0.1c0.1-1.3,0.6-1.7,1-2.5c0.1,0,0.2,0,0.3,0
			c0.1-0.5,0.2-0.5,0.2-1c0.1,0,0.2,0,0.3,0c0-0.3,0-0.5,0.1-0.6c0-0.1,0-0.1,0-0.2c0.1,0,0.2,0,0.3,0c0-0.2,0-0.5,0-0.7
			c0.5-0.1,1.6-1,1-1.8c0,0,0-0.1,0-0.1c0.1,0,0.2,0.1,0.3,0.1c0.2-0.1,0.1-0.4,0.2-0.6c0.1-0.1,0.4-0.2,0.5-0.3
			c0-0.3-0.1-0.7,0-0.9c0-0.1,0-0.1,0-0.2c0.3,0,0.5,0.1,0.7,0.3c0.3-0.3,0.4-0.7,0.8-0.9c-0.1-0.4-0.2-1-0.4-1.3
			c0.2-0.8,0.8-0.8,0.9-1.2c0.1-0.2-0.1-0.3-0.1-0.4c0.1-0.1,0.2-0.2,0.3-0.3c0-0.2,0-0.3,0-0.5c0.2-0.4,0.6-1,0.8-1.4
			c-0.1-0.2-0.1-0.4,0-0.6c0.2,0,0.4,0.1,0.6,0.1c0-1.5,1.8-2.9,1.9-4.6c0.6-0.1,0.2-0.2,0.4-0.6c0.1-0.1,0.3,0,0.4-0.1
			c0.5-0.5-0.2-0.8,0.8-1.4c-0.1-0.4-0.1-0.3-0.2-0.6c0.4-0.2,0.9-0.8,0.9-1.4c0.3,0,0.3,0,0.7,0c-0.1-0.3-0.2-0.3-0.5-0.4
			c0.2-0.4,0.7-0.6,1-1c0.4-0.7,0.3-1.4,1.1-1.8c0-0.3,0-0.5-0.1-0.6c0.1-0.5,0.1,0,0.4-0.3c0.1-0.2,0.1-0.6,0.2-0.8
			c0.2-0.2,0.6-0.3,0.8-0.6c0-0.2,0-0.5,0-0.7c0.1-0.3,0.4-0.3,0.5-0.5c0.1-0.4-0.1-0.7,0.1-1.1c0.1-0.2,0.4-0.1,0.5-0.3
			c0.3-0.3,0.4-1.1,0.6-1.5C389,242,389,242,389.2,242z M389.8,274.9c0,0.6,0,1.3,0,1.9c0.1,0.1,0.2,0.2,0.3,0.3
			c0,0.4-0.1,0.7-0.1,1.1c0.1,0.7,0.3,2.1,0.1,2.5c0.2,0.2,0,0.1,0.3,0.2c0,0.7,0,2,0.1,2.3c0.1,0.4,0.4,0.9,0.4,1.4
			c0,0.1-0.2,0.3-0.3,0.4c-0.1,0.2,0.2,0.6,0.1,0.7c-0.1,0-0.1,0.1-0.2,0.1c-0.1,0.7,0.4,1.6,0.3,2.4c0,0.1-0.2,0.4-0.2,0.5
			c-0.1,0.3,0.3,0.8,0.3,1c-0.4,2.1,0.5,3.9,0.8,5.9c0,0.3-0.1,0.2-0.2,0.3c0,0,0.1,2.8,0.1,2.9c0.4,1.2,0.5,2.4,0.8,3.5
			c0,0.6,0,1.2,0,1.8c0.2,0.6,0.5,1.3,0.6,2c0.2,0.7-0.1,1.4,0.1,2.2c0.1,0.4,0.4,1,0.3,1.5c0,0.3-0.3,0.9-0.1,1.4
			c0,0.1,0.3,0.4,0.3,0.6c0.1,0.4-0.1,0.4-0.2,0.5c-0.1,0.5,0.2,1,0.3,1.3c0.2,0.6-0.2,0.6-0.2,0.8l0.1,1.5c0,0,0.1,0,0.1,0
			c0.1,0.3,0.3,0.4,0.4,0.6c0.1,0.3,0.2,0.7,0.3,1c0.1,0.1,0.4,0.2,0.5,0.3c0.2,0.3,0.3,1,0.5,1.4c0.9,1.5,2,3.7,3.6,4.5
			c0.4,0.2,2.8,0.6,3.1,0.5c0.1-0.1,0.2-0.2,0.3-0.3c0.3-0.1,0.8-0.2,1-0.2c0.6-0.1,1.2,0.3,1.7,0c0.5-0.3,0.9-1.2,1.2-1.7
			c0.3-0.5,0.9-0.9,0.9-1.7h0.1c0.3,0.5,0.6,1.1,0.8,1.6c0.1,0,0.1,0,0.2,0c-0.3-0.6-0.6-1.3-0.9-1.9c1.1-1.1,1.1-3.5,1.9-4.8
			c0-0.3,0-0.7-0.1-1c0,0,0.1,0,0.1,0c0.1,0.2,0.1,0.2,0.2,0.4h0.2c-0.1-0.3-0.2-0.4-0.3-0.6c-0.3-0.9,0.1-2.2,0.2-2.9
			c0.1-0.5-0.2-0.8-0.3-1.1c0-0.1,0.1-0.5,0-0.7c0-0.4,0.3-1,0.4-1.3c0.1-0.3-0.1-0.8-0.2-1c0-0.4,0.3-0.9,0.2-1.5
			c0.2,0,0.3-0.1,0.5-0.1c-0.1-0.3-0.3-0.3-0.5-0.6c-0.2-0.2,0.3-0.8,0.2-1.2c-0.1-0.7,0-1.8,0.2-2.8c0-0.6,0-1.3,0-1.9
			c0.1-0.6,0.2-1.6,0.3-2.4c0-0.2-0.1-0.5-0.1-0.7c0.2-0.8,0.1-1.8,0.3-2.7c0-0.2-0.3-0.3-0.2-0.5c0-0.1,0.3-0.7,0.2-1
			c-0.1-0.4-0.3-1.4-0.2-2c0.1-0.6,0.2-1.8,0.2-2.5c0.2,0,0.3,0,0.5,0c0-0.1,0-0.2,0-0.3c-0.2,0-0.3,0-0.5,0
			c-0.1-1.4-0.3-1.8,0.1-2.7c0.1-0.2-0.4-0.3-0.3-0.6c0.1,0,0.2-0.1,0.3-0.1c0.3-0.6-0.5-1.8-0.4-2.6c0.1-0.7-0.1-3.1,0.1-3.6
			c0-0.3-0.4-0.6-0.3-1c0.1-0.1,0.2-0.1,0.3-0.2c0-0.2-0.3-2.1-0.4-2.4c-0.1-0.1-0.2-0.1-0.3-0.2c-0.1-0.3,0.2-1.2,0.3-1.5
			c0-0.2-0.1-0.3-0.1-0.5c0-0.4,0-2.1,0.1-2.3c-0.1-0.5-0.2-0.5-0.6-0.6c0-1.8,0.4-3.8-0.8-4.9c-0.1-1.2-0.2-1.7-0.9-2.2
			c-0.1-0.1-0.4-0.1-0.5-0.2c0-0.2,0-0.3,0-0.5c-0.2-0.3-0.5-0.5-0.7-0.7c-0.3-0.3-0.1-0.6-0.3-1l-1.7-1.4c-0.2,0-0.4,0.1-0.6,0.1
			c0-0.1,0-0.1,0-0.2c-0.2-0.1-1-0.2-1.1-0.3c-0.5-0.2-0.6,0.2-1.1,0c-0.5-0.2-2.4-1.4-3-0.9c-0.9,0-1-0.1-1.3-0.7
			c-1.4,0.2-1.5,0.7-2.4,1.5c0,0-1.1,0.1-1.3,0.2c-0.5,0.3-0.3,1-1.1,1.1c0.1,0.9-0.7,1.6-1,2.4c0,0.3,0,0.6,0,0.9
			c-0.1,0.2-0.4,0.7-0.4,0.9c0,0.2,0.1,0.4,0.1,0.6c0,0.3-0.3,0.6-0.4,0.9c0,0.6,0,1.1-0.1,1.7c-0.1,0.3-0.4,0.8-0.5,1.1
			c-0.1,0.3,0.3,1.2,0.1,1.7c-0.1,0-0.1,0-0.2,0c-0.1,0.4,0.4,1.1,0.2,1.8C389.8,271.3,390,273.7,389.8,274.9z M393.6,268.7
			c0,0,0,0.4-0.1,0.2c0,0-0.1-0.1-0.1-0.1C393.5,268.7,393.4,268.8,393.6,268.7z M409.4,332.3c-0.4-0.1-0.8-0.1-1.1-0.2
			c-0.6-0.3-1.4-1-2.2-1.1c0,0,0.1-0.1,0.1-0.1c0-0.1,0-0.1,0-0.2c-0.5,0-0.8,0.2-1.2,0c-0.2-0.1-0.2-0.3-0.6-0.4c0,0.1,0,0.2,0,0.3
			c-3.6,0-5.7,0.7-7.4,3.1c-0.3,0.4-0.8,0.6-1,1c-0.3,0.5-0.3,1.1-0.5,1.6c-0.1,0.2-0.5,0.3-0.6,0.6c-0.2,0.9,0.1,1.8,0,2.8
			c-0.1,0.7,0.1,2.2,0.1,2.5c-0.1,0.3-0.2,0.3-0.2,0.8c0.1,0,0.2,0,0.3,0c0.2,1.5,0.8,3,1.5,4c0.6,0.8,2.4,1.8,2.6,2.9
			c0.7,0.2,2,0.5,2.2,1.3c1-0.3,1.7,0.5,2.7,0.8c1.5,0.4,2.2-0.7,3.4-0.8c0-0.1,0-0.2,0-0.3c0.2-0.1,0.6-0.2,0.7-0.4
			c0.1,0.1,0.1,0.1,0.2,0.2c0.2-0.1,0.1,0,0.2-0.1c0.1-0.2,0-0.2,0.1-0.3c0.3-0.6,0.4-0.1,0.9-0.4c0.1-0.1,0.1-0.3,0.2-0.4
			c0.4-0.3,1-0.3,1.4-0.6c0.3-0.2,0.5-0.8,0.8-1c0.1-0.1,0.3,0,0.4-0.1c0.1-0.1,0-0.1-0.1-0.3c0.3-0.7,1.1-1.2,1.4-2
			c0.2-0.6,0-0.9,0.2-1.5c0.1-0.4,0.2-1,0.4-1.5c0.1-0.2,0.5-0.6,0.5-0.8c0-0.3-0.2-0.1-0.2-0.5c0-0.3,0.2-1.1-0.1-1.6
			c-0.1,0-0.2-0.1-0.3-0.1c0-0.1,0.1-0.7,0-1c-0.1-0.4-0.3-1.2-0.6-1.7c-0.1-0.2-0.4-0.4-0.5-0.6c0-0.1,0.2-0.3,0.1-0.5
			c0,0-0.4-0.3-0.4-0.4c0-0.1,0-0.3,0-0.4c-0.1,0-0.2-0.1-0.3-0.1c-0.4-0.7-0.2-1.3-1-1.4c0.1-0.1,0.1-0.2,0.2-0.3
			c-0.2-0.1-0.2-0.1-0.4,0C409.3,333.2,410,332.8,409.4,332.3z M401.2,335C401.2,334.9,401.2,334.9,401.2,335
			c0.1-0.1,0.2-0.1,0.3-0.1C401.4,334.9,401.4,334.9,401.2,335z"/>
	</g>
</g>
</svg>
