<?xml version="1.0" encoding="utf-8"?>
<!-- Generator: Adobe Illustrator 21.0.0, SVG Export Plug-In . SVG Version: 6.00 Build 0)  -->
<svg version="1.1" xmlns="http://www.w3.org/2000/svg" xmlns:xlink="http://www.w3.org/1999/xlink" x="0px" y="0px"
	 viewBox="0 0 841 595" style="enable-background:new 0 0 841 595;" xml:space="preserve">
<style type="text/css">
	.st0{fill:#1D1D1B;}
	.st1{fill:#DADADA;}
</style>
<g id="Calque_1">
	<g>
		<g>
			<path class="st0" d="M593.5,225.7c-2-2.7-4.7-4.8-6.8-7.3c-7.6-9-16.6-16.7-25-24.8c-1.7-1.6-7.3-7.9-10-7.4
				c-0.8,1.4-0.6,3.4-0.3,4.9c-1.1,2-1.1,7.9-1.4,10.3c-0.1,0-0.1,0.1-0.2,0.1c-1-1.4-3.3-1-5.1-1.2c-6.5-0.8-14.1,0.2-20.6-0.8
				c-2.3-0.1-4.7-0.2-7-0.3c-5.7-0.9-11.1-0.9-16.9-0.6c-4.8,0.2-11.5-0.2-15.4,0.4c-7.1,0.2-14.2,0.3-21.3,0.5
				c-4.2,0.4-8.5,0.9-12.7,1.3c-1.7,2.3-0.6,5.3-0.1,8.4c0.1,3.4,0.3,6.7,0.4,10.1c-2.8,1-13.7,1.5-16.2,0.6c-0.7,0-1.4,0-2.1,0
				c-2.4,0-4.9,0.6-7.1-0.3c-0.9-1.1,0.2-8.6-0.2-10.6c-0.4-1.9-1.6-8-2.8-8.7c-2-1.2-9.6-0.5-11.2-0.2c0,0,0-0.1,0-0.1
				c0.2,0,0.3-0.1,0.5-0.1c0-0.1,0-0.3,0-0.4c-2.2,0.4-4.6,0.2-7.5-0.2c0,0-0.1,0.1-0.1,0.1c0.3,0.2,0.1,0.1,0.4,0.1
				c0,0.1-0.1,0.2-0.1,0.3c-0.2,0-0.3,0-0.5,0c0-0.1,0.1-0.3,0.1-0.4c-2.1-0.1-4.2-0.2-6.3-0.3c-1.1,0.1-2.2,0.1-3.3,0.2
				c0,0,0,0.1,0,0.1c-0.9-0.3-7-0.3-10.2-0.1c0,0.1,0.1,0.1-0.1,0.2c0-0.1,0.1-0.1,0.1-0.2c-0.2,0-0.3,0-0.5,0
				c0,0.1-0.1,0.1-0.1,0.2c0-0.1-0.1-0.1-0.1-0.2c-0.7,0-1.2,0.1-1.2,0.2c-0.3-0.2-0.1,0-0.1-0.3c-0.1,0-0.3-0.1-0.4-0.1
				c-0.4,0.1-0.7-0.1-1,0.3c0.1,0,0.1,0,0.2,0c0.3,0.2,0,0.1,0.4-0.1c0,0.4-0.1,0.3,0.1,0.6c-0.6,0.2-1.3-0.2-1.8-0.5
				c0,0.1-0.1,0.3-0.1,0.4c0.1,0,0.2,0,0.3,0c0,0,0,0.1,0,0.1c-0.2,0-0.3,0.1-0.5,0.1c0-0.2,0.1-0.3,0.1-0.5c-0.2,0-0.3-0.1-0.5-0.1
				c-0.1,0.1-0.2,0.3-0.3,0.4c-0.1,0.1-0.5,0.1-0.9,0.2c-0.8-0.9-2.1-0.7-3.8-0.6c0,0.1,0.1,0.3,0.1,0.4c0.2,0,0.4-0.1,0.6-0.1
				c-0.5,0.5-1.5,0.1-2.1,0.3c0.4-0.4,0.7-0.4,1.2-0.4c0-0.1,0.1-0.1,0.1-0.2c-1.2,0-2.3,0.1-3.5,0.1c0,0,0,0.1,0,0.1s0,0.1,0,0.1
				c0.1,0,0.2,0,0.3,0c-0.3,0.1-6-0.1-6.8-0.1c0,0,0,0.1,0,0.1c0.2,0.1,0.3,0.1,0.5,0.2c-0.3,0-0.7,0.1-1,0.1c0.1,0,0.3-0.1,0.4-0.1
				c0-0.1,0-0.2,0-0.3c-2.5,0.6-7.3,0.4-11.7,0.4c-7.8,0-15.6,0-23.4,0c0-4.2-0.2-15.8-2.6-17.1c-0.4,0-0.7-0.1-1.1-0.1
				c-1.3,1.6-3.2,2.7-4.9,4c-1.3,1.2-2.5,2.5-3.8,3.7c-2.2,1.4-4.5,2.9-6.7,4.3c-1.7,1.2-3.1,2.9-4.8,4.1c-4.4,3.2-8.9,6-13,9.4
				c-1,1.1-2,2.3-3,3.4c-4.3,3.5-7.6,7.6-12.3,10.9c-1.7,1.2-2.7,3.4-4.6,4.3c0,0.4,0.1,0.7,0.1,1.1c0.3,0.7,0.9,1,1.4,1.2
				c-0.1,0.6,0.1,0.5,0.7,0.4c-0.1,0.3-0.1,0.2-0.3,0.4c0.3,0.4,1,1.1,1.6,1.3c0-0.1,0.1-0.3,0.1-0.4c0.3,0.4,1,0.8,1.5,0.8
				c0.2,0.5,0.4,1.3,0.8,1.6c0.1-0.2,0.2-0.4,0.3-0.6c0.5,0.6,0.9,1.1,1.4,1.7c-0.1,0.1-0.3,0.1-0.4,0.2c0.1,0.1,0.2,0.1,0.3,0.2
				c0.7-0.1,0.6,0.9,1.1,1.3c0.5,0.2,0.9,0.4,1.4,0.6c0.2,0.2,0,0.1,0,0.6c1.1,0.9,2,1.2,2.8,1.8c-0.2,0-0.4-0.1-0.6-0.1
				c0.1,0.7,1,1.5,1.6,1.4c-0.1,0.1-0.2,0.3-0.3,0.4c1.3,1.3,3,2.6,4,3.8c0.5,0.2,1,0.4,1.5,0.6c0.1,0.4,0.3,0.7,0.4,1.1
				c0.7,0.9,3.1,2.2,4,3.2c2,2.2,4.2,4.6,6.6,6.4c0.5,0.2,1,0.4,1.5,0.6c2.1,2.2,4.6,4.9,7.2,6.6c1.2,0.8,2.8,1.6,3.8,2.6
				c1.3,1.2,2.8,2.2,4.1,3.5c0.3,0.3,0.3,0.9,0.5,1.1c1.4,1.1,2.6,0.1,3.5,0.4c6.3,2.3,5-6.9,4.4-10.4c-0.3-1.9,0-3.2-0.4-4.4
				c0.5-0.3,11.6-0.6,11.9-0.5c0.9,0.4,2.6,0.6,3.5,0.4c3.1-0.6,7.4-0.1,11.2-0.3c2-0.1,4.1-0.2,5.6,0.1c0.4-0.1,0.7-0.1,1.1-0.2
				c2.7,0.6,6.5,0,8.8,0.4c2.8,0.5,6.3,0,8.7,0.2c0.3-0.1,0.7-0.2,1-0.3c1.2,0.6,2.7,0,4.3,0.4c3.3,0.8,11.4,1.2,15.1,0.7
				c1.1,0.1,2.3,0.1,3.4,0.2c5.1-0.9,10.7,0.7,15.1,0.4c1.6-0.1,6-0.1,6.6-0.7c1.2-1,0.8-5.6,0.5-7.9c0.1-1,0.1-2.1,0.2-3.1
				c-0.3-3.7,0.3-6.6-0.2-9.9c0.9-0.9,2.9,0.2,3.8,0.4c1.1,2,0.3,5.4,0.7,7.8c0.3,2.2,0.2,5.5-0.2,8c-0.6,3.6,0.3,8.2,0.5,12.1
				c-0.1,2.5-0.1,4.9-0.2,7.4c0.1,3.5,0.3,7,0.4,10.5c-0.1,0.6-0.1,1.2-0.2,1.8c0.5,2.4,0.6,6.1,0.5,8.4c-0.1,2.2-0.1,4.3-0.2,6.5
				c0.2,7,0.3,14,0.5,21c-0.3,2.8,0.3,5.6-0.2,7.9c-0.1,0.4-0.3,0.8-0.4,1.2c0.2,3.2,0.4,5.9,0,8.5c-0.1,0.5-0.4,2.4-0.3,2.9
				c0.7,2.3,0.5,7.7,0.4,10.2c-0.1,4.1,0.1,7.8,0,10.6c-0.1,3.1-1.2,8.1-0.3,10.5c0,0,0,0.1,0,0.1c-0.2,0-0.4-0.1-0.6-0.1
				c0.1-0.5,0.1-1.1-0.2-1.6c0.1,0,0.2,0.1,0.3,0.1c-0.9-3.5-0.2-7.1,0.2-10.1c0.2-1.2-0.3-3-0.2-4c0.8-5.9,0.7-13.1-0.8-18.7
				c-0.5-0.4-0.8-0.4-1.5-0.2c-1.4,5.8-1.6,11.8-2.1,17.1c-0.4,4.4,0.4,8.8-0.6,12.8c0,0-0.1,0-0.1,0c-1.3-0.7-1.5-2-2.2-3.2
				c-0.5-0.8-1.2-1.8-1.6-2.6c-1.7-3.4-2.4-11.7-5.4-13.8c-0.2,0.1-0.3,0.1-0.5,0.2c-1.7,2.6-1.2,9.4-0.2,12.1
				c0.4,1.1,1.6,2.9,1.5,4c0.3,0,0.1,0,0.4-0.1c-0.2,0.9,1.2,1.8,1.1,2.9c0.1-0.1,0.3-0.1,0.4-0.2c-0.3,2,4.8,5.5,4.5,7.7
				c0.3,0.1,0.3,0.2,0.7,0.1c0.3,0.5,2.4,4,1.5,4.8c0,0-1.9-0.8-2.6-0.8c-2.1,0-4.5-1.2-7.1-1.8c-1.8-0.4-4.5-1.2-6.8-2.2
				c-1,0.5-3-1-4.5-0.9c-1.2,0.1-3.9-0.4-5-0.7c-2.2-0.1-4.5-0.1-6.7-0.2c-2.6,0-9.1,0.2-10,2.3c-0.4-0.2-0.2,0.5-0.1,0.8
				c0,0.7,0.6,0.8,0.9,1.4c0.3,0,1-0.4,1.1-0.3c0.1,0,4.2,0.9,4.2,0.9c0,0,0-0.5,0.3-0.3c0.8,0.5,3.4,0.9,4.4,0.6c0,0.2,0,0.3,0,0.5
				c0.6-0.1,8.1,1,8.4,1.4c1,0.2,3-0.2,3.3,0.6c0.4-0.2,0.2,0,0.2-0.4c1.8,1.3,4.3,0.4,7.2,1.5c-1.6,0.7-2.6-0.5-3.9-0.3
				c-0.7,0.7-2.9-0.3-4.1-0.3c-0.9,0-6.5,0.1-7.3-0.2c-0.8-0.3-2.9-0.6-4.1-0.3c-0.9,0.2-1.7-0.3-2.2-0.4c-1.8-0.4-3.8,0-4.8,0.4
				c0,0.3,0,0.6,0,0.9c-1.1,0.2-5.8-0.4-6.6-0.8c-0.9,0.8-3.2-0.6-4.4-0.4c-1.3-0.1-2.7-0.2-4-0.3c-2.1-0.2-7.6-0.1-10.4,0.7
				c0,0.4-0.1,0.7-0.1,1.1c0.4,0.9,1.8,0.9,2.6,1.1c0.3,0.2,0.1,0,0.2,0.3c0.5,0.4,9.7,0.9,10.6,0.9c0.5,0,0.2-0.1,0.3-0.4
				c0.6,0.5,2.1,0.4,2.8,0.2c-1.3,1.4-5.9,1.4-7.8,1.9c-5.1,1.3-11.7,0.6-17.6,0c-1.8-0.2-5.3-0.2-7.2-1c-0.7,0.3-1.3,0.5-1.5,1.3
				c0,0,2.3,2.5,2.3,2.6c1.7-0.2,2.5,0.5,4.1,0.5c0.8-1.6,1-1.3,2.9-1.4c0,0.2,0,0.3,0,0.5c0.1,0,0.1,0.1,0.2,0.1c0-0.1,0-0.3,0-0.4
				c4.1,1.1,18.6,0.6,22.3-1.3c0.8-0.4,0.9,0.1,1.8-0.1c1.7-0.4,4.8-1.7,4.5-3.9c0.6,0.2,2.2-0.1,3.3,0.2c2.4,0.6,3.5,0.5,5.2,0.8
				c0.9,0.1,2.5,1.5,3.1,1.3c0.8-0.2,1-1.4,1-2.3c-0.6,0.1-0.5,0-1.3-0.1c1.5-0.7,9.5,0.8,12.1,0.7c1,0,3.1,0.9,3.9,0.3
				c0.4,0.4,4.8,0.5,5.1,0.4c0.3,0.4,0.5,1.6,0.6,2.1c0.6,0.3,1.1,0.5,1.4,0.2c0.8,0.1,0.9-1.1,0.5-1.8c0.2-0.2,0.2-0.1,0.3-0.5
				c0.5,0.2,1,0.4,1.4,0.4c0,0.3,0.1,0.7,0.1,1c1.1,0.1,1.6,0,2.6-0.1c0.1-0.4,0.2-0.7,0.3-1.1c2.6-0.4,5.6,1.2,8,0.5
				c0.1-0.5,0.2-1,0.3-1.5c-1.7-0.6-3.8-1.1-6-1.6c0,0,0,0.1,0,0.1c0,0-0.1,0-0.1,0c0,0-0.1-0.1-0.1-0.1c-2.8-0.6-5.7-1-8.2-1.3
				c0-0.2,0-0.3,0-0.5c-0.1,0-0.2,0-0.3,0c0,0-7.2-0.3-8.5-1c-1.7-0.9-4.6-0.4-6.4-0.9c-4.1-1.1-9.3-2.1-14-2.5
				c1.1-0.5,3.7-1.1,4.7-1c0.6,0.1,2.6,0.3,3.4,0.2c3.7-0.7,15.5,1.4,18.2,3.1c1.1,0.7,4.7,0.7,5.5,2c0.7,0,0.5-0.1,0.6,0.5
				c1-0.2,2.2-0.3,3.2,0.2c0.1,0.2,0.3,0.4,0.4,0.6c0.4-0.1,0.7-0.2,1.1-0.3c0.9,1,3.3,0.7,5,0.5c0-0.8,0.8-2.2,0.5-2.9
				c-1.5-3.6-4.7-8.3-7.5-10.9c0.4-0.2-0.2-0.5-0.3-0.6c-0.6-0.9-1.5-2.6-2.4-4c-0.4-0.7-0.2-1.7-0.6-2.3c-1.5-2.3-1-5.8-1.3-8.8
				c0.7-0.1,1.1,3.4,1.6,4.4c1.7,3.3,2.3,8.2,4.3,10.8c0.7,0.9,1.7,3.1,2.8,2.9c0,0.1,0,0.3,0,0.4c0.5-0.2,1.6-0.5,2-0.4
				c0.2-0.2,0.5-0.6,0.7-1c-0.1-0.1-0.3-0.1-0.4-0.2c0,0,0-0.1,0-0.1c0.3-0.3,0-0.1,0.5-0.2c0-5.7,0.4-12.2,0.2-17.6
				c-0.1-2.4,1-6.1,0.7-7.5c0.1-0.1,0.1-0.1,0.2-0.2c0.4,2.9-0.1,7.9,0.1,10.8c0.2,2.4,0.4,6.1-0.1,8.6c-0.2,1.2-0.4,2.3-0.6,3.2
				c0.1,1,0.1,1.9,0.2,2.9c-0.1,0.6-0.1,1.2-0.2,1.8c0.6,2.8,0.3,5.6,1.6,8c-0.1,0.3-0.1,0.7-0.2,1c0.5,0.9,1,0.8,1.3,2
				c0.7,0,1.1,0.2,1.1,0.5c1.2-0.2,1.6-0.8,2.2-1.5c0.1,0.4,0.2,0.6,0.4,1.3c3.2,2,7.8-4,11-4.4c-0.3-1.3,1.9-2.3,2.6-3.4
				c0.1,0.1,0.1,0.1,0.2,0.2c0.1,0,0.2,0,0.3,0c-1.7,2.7-5.2,4.7-5.6,8.1c0.1,0.2,0.2,0.4,0.3,0.6c2.7,0.3,5.8-1.9,7.7-1.5
				c0.1,0,0.2,0.1,0.3,0.1c-0.1,0-0.2,0.1-0.3,0.1c0.5,2.1,3,2.3,4.9,2c0.3,0,0.6,0.1,0.9,0.1c1.1-0.7,3.4-0.2,5.3-1.1
				c1.4-0.7,8.9-2.6,11.1-2.6c2.1,0,6.7-1.6,7.6-0.9c-1.3,0.2-2.3,1-3.2,0.6c0,0.1-0.1,0.3-0.1,0.4c-1.2-0.2-2.8,0.6-3.6,0.7
				c-0.4,0.3-0.5,0.9-0.9,1.2c0.2,0.6,0.5,0.6,0.5,1.2c0.2,0,5.9,0.6,5.9,0.6c2.9-2,11.4-2.5,16.4-3.8c2.5-0.7,4.3-0.1,6.5-0.6
				c1.4-0.4,1.6,0.4,2.8,0c0,0.1-0.1,0.2-0.1,0.3c1.3-0.5,2.1,0.4,3.1,0.8c1.5,0.7,3-0.3,4.7,0.1c1.7,0.4,2.5,0.8,4.3,0.4
				c0.1-0.3,0.3-0.5,0.4-0.8c0-2.2-5.6-2.1-7.4-2.5c-7.4-1.7-15.9,1.1-23,1.7c0-0.4,0.6-1.5,0.1-2.2c-0.6-0.9-6-0.8-7.6-0.4
				c-5.6,1.2-14.3,2.2-18.7,3.8c-1.3,0.5-2.8,0.4-4.1,0.5c0,0-0.1,0.1-0.1,0.1c0,0-0.1,0-0.1,0c0,0,0-0.1,0-0.1
				c-0.8,0-1.5,0.1-2.1,0.4c0-0.1-0.1-0.2-0.1-0.3c1.8-0.3,3.1-1.1,4-1.9c0,0.1-0.1,0.3-0.1,0.4c1-0.3,2.4-1.7,2.9-0.9
				c0.5-0.2,4.8-2.7,4.8-2.8c1.2,0.6,7-2.6,8.6-3.2c0.2-0.7,0.3-0.8,0.3-1.6c-2.1-0.5-6.9,0.9-8.9,1.9c-1.9,0.9-4.5,1.1-6.1,1.9
				c-4.3,2.2-9,3.8-13.2,5.3c-0.1,0-0.1-0.1-0.2-0.1c5-4.9,8.3-11,13-16.7c1.9-2.3,5.2-4.3,6.1-7.2c-0.1-0.2-0.3-0.5-0.4-0.7
				c-0.1,0-0.2-0.1-0.3-0.1c-2.2,0.1-4.1,3-5.4,4.3c-4.1,4.1-8.3,8.2-12.4,12.4c0,0-0.1,0-0.1,0c-0.5-1.4,0-3-0.2-3.9
				c-0.4-1.6-1.4-5.9-0.9-8c0.3-1.3,1.5-2.3,2-3.4c0.5-0.9,0.4-1.9,0.8-2.7c-0.1-0.3-0.3-0.7-0.4-1c-0.8-0.1-1.1,0.1-1.9,0.6
				c-0.7-13.3-0.7-30.8-1.7-46.2c-0.1-4.6-0.2-9.1-0.3-13.7c-0.3-1.9,0.3-5.1-0.5-6.6c0.6-0.3,0.4-10.2,0.7-11.9
				c0.1-0.6,0.4-5.4,0-6c1-1,0.6-7.4,0.8-9.6c0.6-6.9-0.1-17.1-0.8-24.5c0.9-0.3,7.5-0.3,8.5,0.1c0.6,0.5,0.1,4.5,0.3,5.9
				c0.1,3.9,0.1,7.7,0.2,11.6c-0.2,0.5-0.5,0.9-0.7,1.4c-0.3,1,0.5,1.5,0.7,2.1c0.3,1-0.2,1.5-0.3,2.4c0.4,0.2,0.4,0.3,0.6,0.7
				c1.1,0.2,2.6-0.7,4.3-0.6c2.9,0.2,6.3-0.8,9.1-0.8c3.5,0.1,8.2-0.1,11.6-0.4c2.3-0.1,4.5-0.3,6.8-0.4c4.3,0.5,8-0.5,11.9-0.4
				c2.9,0.1,7.3,0.2,10.2,0.3c5.2,0.1,10.4,0.2,15.6,0.3c1.7-0.1,3.5-0.2,5.2-0.3c7.2,0.6,13.2,0.3,19.8,0c1.4,2.1,0.2,8-0.2,11.1
				c0.1,0.7,0.2,1.5,0.3,2.2c-0.2,1.4-1.4,2.3-0.6,3.8c0.2,0.4,0.6,0.5,0.9,0.8c2-0.2,2.7-2.1,3.9-3c0.7-0.2,1.5-0.3,2.2-0.5
				c1-1,2-2.1,3-3.1c1.1-1,2.5-2,3.7-2.9c9.7-7.7,19-16,26.6-25.7c2.7-3.5,7.5-5.9,9.5-10C595.7,227.9,594.1,226.5,593.5,225.7z
				 M412.4,200.1c0.1,0,0.1,0,0.2,0c-0.2,0.2,0,0.1-0.3,0.2C412.3,200.2,412.4,200.2,412.4,200.1z M397.9,199.5
				C397.9,199.5,397.9,199.5,397.9,199.5c0.1,0.1,0,0.2,0,0.3C397.9,199.7,397.9,199.6,397.9,199.5z M396.8,199.5c0.1,0,0.3,0,0.4,0
				c0,0.1,0,0.2,0,0.3c-0.3,0-0.5,0-0.8,0c-0.1,0-0.1,0-0.2,0C396.4,199.7,396.6,199.6,396.8,199.5z M392.2,199.6
				C392.2,199.6,392.2,199.6,392.2,199.6c0.1,0.1,0,0.2,0,0.3C392.2,199.8,392.2,199.7,392.2,199.6z M372,199.7
				c-0.2,0.1-0.1,0.2-0.3,0C371.8,199.7,371.9,199.7,372,199.7z M419.5,218.8c-0.1,2.4-0.1,4.7-0.2,7.1c-1,5.2-0.8,10.3-0.9,15
				c-0.1,4.2-0.8,9.7,0.3,13c-0.2,0.2-0.5,0.4-0.7,0.6c0.3,0.3,0.1,0.2,0.6,0.2c0,0,0,0.1,0,0.1c0,0.1-0.1,0.2-0.1,0.3
				c-11.3,0-20.8,0.5-32.7-0.2c-12.5-0.8-29.1-1.9-41.7-0.7c-1.3-0.1-2.5-0.2-3.8-0.3c-2.4,0-4.8,0-7.2,0c-3.2-0.5-5.6-0.5-9.1,0.1
				c-1.8,0.3-3.3-0.4-4.8,0c-0.5,1,0.8,2.6,1.2,4.1c0.7,2.8,0.6,7,0.2,9.6c-0.1,0-0.1,0.1-0.2,0.1c-2.2-0.2-10.2-7.8-12.3-9.4
				c-8.9-7-17-14.6-25-22.4c-2.1-2.1-7.4-5.7-8.6-8.1c1.9-2.5,4.4-3.8,6.9-5.7c0.8-0.8,1.5-1.7,2.3-2.5c2.4-2.3,4.7-4.6,7.1-6.9
				c0.8-0.9,1.6-2.1,2.5-2.8c5.3-4.3,11.2-8,16.4-12.4c3.6-3.1,8.4-4.8,11.3-8.5c0.6,1.5,0.4,4.9,0.2,6.2c0.2,0.1,0.3,0.2,0.5,0.3
				c0,0.2-0.1,0.5-0.1,0.7c-0.1-0.1-0.1-0.1-0.2-0.2l-0.5,7c0,0.1,0,0.2,0,0.3c0.1-0.1,0.3-0.1,0.4-0.2c-0.3,1.6,1.4,1.8,2,2.7
				c0.6-0.2,1.2-0.5,1.8-0.7c0.2,0.2,7.4-0.2,7.4-0.2c0.5,0,0.1-0.3,0.3-0.4c0.5,0.1,1.1,0.3,1.6,0.4c2.5-0.4,4.7,0,7.2-0.4
				c0.5,0.1,0.9,0.3,1.4,0.4c3.6-0.7,7.2,0,10-0.6c0,0.1,0,0.3,0,0.4c0.8-0.5,1.3,0.1,2.3-0.1c0.8-0.1,1.2-0.4,1.5-0.7
				c0,0,3.6,0.4,4.2,0.3c0.5-0.1,1-0.2,1.5-0.3c0,0,0,0.1,0,0.1c0.1-0.1,0.1-0.1,0.2-0.2c0.4,0.4,2.6,0.5,3.5,0.3
				c2.1-0.5,4.8,0.2,6.1-0.1c2-0.4,4.6,0.1,7.1,0.1c0.9,0,2.5-0.6,3.2-0.3c1,0.4,1.8,0.5,2.9,0.6c0.5,0.1,0.4-0.5,0.7-0.4
				c0.1,0.2,2.8,0.6,3.2,0.4c0.4-0.2,0.3-0.4,0.9-0.5c0.2,0.3,0.1,0,0.1,0.4c1.9,0.1,7.9-0.6,9.6,0.3c0.1-0.2,0.1-0.3,0.2-0.5
				c0,0.1,0,0.3,0,0.4c0.9-0.4,3.8,0,5.1,0.3c0.4-0.1,0.9-0.2,1.3-0.3c0.7,0.1,1.3,0.1,2,0.2c1.3,0,2.3-0.3,3.2-0.2
				c1.4,0.2,5-0.4,5.3,0.2c0.4-0.2,0.3-0.1,0.5-0.4C420,205.4,420.2,214.1,419.5,218.8z M367.7,381.5c0.1,0,0.3,0.1,0.4,0.1
				C367.8,381.6,368,381.7,367.7,381.5z M428.1,373.5c-0.3-0.2-0.5-1.1-0.4-1.6c0,0.1,0.1,0.1,0.1,0.2c0.3,0.1,0.2,0.7,0.4,1.2
				C428.2,373.3,428.2,373.4,428.1,373.5z M447.3,372.2c-0.1-0.1-0.2-0.1-0.3-0.2C447.3,372.1,447.2,372,447.3,372.2z M446.6,372.4
				c0.1,0,0.3,0,0.4,0c-0.3,0.4-0.5,0.8-0.8,1.2c-0.1,0-0.3,0.1-0.4,0.1c0-0.1-0.1-0.2-0.1-0.3C446.1,373.1,446.5,372.8,446.6,372.4
				z M436.5,377c-0.6,1.1-1.4,1.5-2.3,2.2c-0.1,0-0.3,0-0.4,0c-0.1-1.3,0.3-1.5,0.5-2.8c0,0.1,0.1,0.1,0.1,0.2
				c0.3-0.1,0.2-0.1,0-0.3c0.2-1.7,1.2-3.2,1.8-4.8c0.1,0.1,0.2,0.1,0.3,0.2C436.4,373.1,436.1,375.2,436.5,377z M435.5,367.9
				c0-0.1,0-0.2,0-0.3c0.1,0,0.1,0.1,0.2,0.1C435.7,367.7,435.6,367.8,435.5,367.9z M435.7,367.5c0-0.1,0.1-0.2,0.1-0.3
				c0,0,0.1,0.1,0.1,0.1C435.9,367.3,435.8,367.4,435.7,367.5z M450.8,232.5c-0.6,0.1-1.1-0.4-1.5-0.3c-2.4,0.8-4.7,0.2-7.6,0.5
				c-1.6,0.2-3.1,0.3-4.7,0.5c-0.2,0.2-0.3,0.5-0.5,0.7c-0.2,2,0.1,4.8,0.5,7.1c0,2-0.1,4.1-0.1,6.1c0.3,3.8,0.2,8.3-0.2,13.1
				c0.1,2.2,0.2,4.3,0.3,6.5c-0.1,1.5-0.2,2.9-0.3,4.4c0.5,3.8-0.8,8.7-0.2,13.1c0.2,1.8-0.2,4.4-0.1,6.7c0.2,4.6-0.3,9.7-0.6,14.5
				c0,4.1,0.1,8.3,0.1,12.4c0.1,1.5,0.2,3.1,0.3,4.6c-0.3,2.7,0.1,6.3,0.1,8.8c0,5.3-0.2,11.2,0.4,16c-0.1,0.8-0.1,1.6-0.2,2.4
				c0.5,3.3,0.1,6.3,0.3,9c0.1,1.2,0.4,3.2-0.3,4.3c-1,1.6-5.4,8.3-5.1,10.1c-0.1,0-0.2,0.1-0.3,0.1c-0.1-2.6-0.4-6.3-0.5-9.8
				c-0.1-1.2,0.7-4.9,0.4-5.5c-0.7-1.4-0.2-10.2-0.1-11.6c-0.1-1-0.2-2.1-0.3-3.1c0.8-5.9-0.6-10.9,0.4-16.9
				c-0.1-1.4-0.1-2.8-0.2-4.2c0-0.5,0.1-9.7,0.1-9.7c-0.2-0.3-0.6-6.8-0.5-7.4c0.5-4.8-0.6-12.4-0.2-17.6c0.2-2.8,0.1-5.6-0.2-7.4
				c0-4.7,0-9.3,0-14c-1.1-8.2,0.7-19.4-0.5-27.2c0-1.4-0.1-2.9-0.1-4.3c-0.3-0.8-1.1-0.9-1.4-2c0,0-0.1,0-0.1,0
				c-0.1,0-0.1,0.1-0.2,0.1c0,0.1-0.1,0.3-0.1,0.4c0.2,0.2,0,0.1,0.3,0c-0.4,0.9-2.7,0.8-4.2,0.7c-0.8-1.7,0.5-7.3,0.9-8.8
				c0.6-0.1,7.4-0.1,7.8,0.1c0-0.1,0-0.2,0-0.3c0.4,0.2,5.8,0.2,5.8,0.2c3.6,0.2,7.9,0.2,12.8-0.1
				C450.9,227.3,450.8,229.9,450.8,232.5z M577.7,241.5c-2.2,2.4-4.8,4.4-6.9,6.8c-3.8,4.4-8.1,8.8-12.7,12.4
				c-2.5,2-8.9,6.3-9.9,9.3c-1.1-1.4,0.4-12.8,1-14.7c-0.2-0.2-0.3-0.4-0.5-0.6c-0.7-0.6-6.4-0.2-7.7,0.1c-3.5,0.7-8.1,0.1-12.2-0.1
				c-2.1,0.1-4.1,0.1-6.2,0.2c-1.4,0-4.1,0.4-5.9,0.2c-3-0.1-6-0.2-9-0.3c-1.4,0.1-2.9,0.1-4.3,0.2c-3.9-0.3-8.4-0.5-12.4-0.2
				c-5.1,0.4-12.1,1-17.3,0.5c-1.4,0.1-2.8,0.3-4.2,0.4c-1.7,0.1-3.3,0.1-5,0.2c-3.8,0.6-7.5,0.9-11.6,0.4
				c0.4-7.9-0.1-15.7-0.1-24.7c0-5.5,0.4-11-0.2-15.4c0.1-0.7,0.1-1.5,0.2-2.2c-0.4-1.5-0.1-3.6-0.3-4.2c-0.3-0.8-0.6-2.6-0.7-4.4
				c1.6-0.9,3.8-0.5,5.5-0.8c1.3-0.3,4.3,0.5,6.2-0.5c0.2-0.1,0.4-0.2,0.6-0.3c0.5,0,2.2,0.7,2.6,0.6c0.9-0.1,1.8-0.3,2.7-0.4
				c0.1,0,1.1,0.4,1.1,0.4c0.4-0.1,1.5-0.6,2.2-0.4c0.2,0.1,0.1,0.4,0.5,0.3c2.4-0.5,5.3-0.4,7.5-0.8c0.6,0.2,1.1,0.3,1.7,0.5
				c5-0.6,9.6-0.8,15-0.4c4.6,0,9.2,0,13.8,0c1.4,0.3,4.3,0.8,6,0.7c1.3,0,2.6-0.1,3.9-0.1c2,0.4,4.5,0.5,6.8,0.3
				c1.3-0.1,3.3,0.2,4,0.5c3.8,0,7.6,0,11.4,0c3,0.3,5.9,1.2,8.3,0.3c0-2.2,0-4.4,0-6.6c0.3-2.5,0.7-5,1-7.5c2.8,0,8.1,7,9.8,8.9
				c4.1,4.7,8.7,10.2,12.2,15.6c1.5,2.3,2.8,4.9,4.6,7.2c2.3,2.9,5.4,5.7,7.2,8.7C586.2,233.6,579.2,239.7,577.7,241.5z
				 M378.1,199.3c0,0.1,0,0.2,0,0.3c0.2,0,0.3,0,0.5,0C378.4,199.2,378.5,199.4,378.1,199.3z M380.1,199.3c0,0.1,0,0.2,0,0.3
				c0.1,0,0.3,0,0.4,0C380.4,199.3,380.5,199.4,380.1,199.3z M383.6,199.3c-0.1,0-0.1,0-0.2,0c0,0,0,0,0,0
				C383.5,199.3,383.6,199.3,383.6,199.3C383.6,199.3,383.6,199.3,383.6,199.3z M384.2,199.3C384.2,199.3,384.1,199.3,384.2,199.3
				C384.1,199.3,384.2,199.3,384.2,199.3L384.2,199.3z M381.8,204.3c-0.1-0.3,0-0.1-0.2-0.3c0,0.1-0.1,0.1-0.1,0.2
				C381.6,204.2,381.7,204.3,381.8,204.3C381.8,204.3,381.8,204.3,381.8,204.3z M321.5,204.6c-0.2-0.4,0.1-0.1-0.3-0.3
				c0.1,0.1,0.1,0.2,0.2,0.3C321.4,204.6,321.4,204.6,321.5,204.6z M322.9,205.7c-0.1,0-0.2,0-0.3,0c0,0.1,0,0.1,0,0.2
				C322.7,205.9,322.8,205.8,322.9,205.7C322.9,205.8,322.9,205.7,322.9,205.7z M521.4,215.3c-0.2-0.7-0.4-1.3-0.6-2
				c-0.3-0.7-0.9-1.8-1-2.6c-0.3-0.2-0.6-0.4-1.2-0.4c-0.7,0.6-1.5,0.3-1.8,1.2c-0.1,0-0.1,0-0.2,0c0.7,1,1.9,3,1.8,4.8
				c-1.9,0.5-3.2-0.1-4.7,0.3c-1.7,3.5,0.9,7.6-1.4,11.7c1.5,2.2-0.4,5.3,0.3,7.5c-2,0.7,3.9,1,4.1,1c0.6,0.1,9.2-0.3,9.9-0.9
				c0.4-0.3,0.2,0,0.2-0.4c0.5-0.9-1-2.2-1.6-2.7c-3,0.5-6.9,0.3-9.8,0.5c-0.3-1.2,0-3.1,0.2-4c2.9-1.5,6.4-0.2,10-0.6
				c0.1-0.2,0.2-0.3,0.3-0.5c-0.1-0.6-0.2-0.7-0.7-0.8c-0.2-0.4-0.2-1.1-0.2-1.6c-2.4-0.7-5.6,0.3-8.8-0.5c0-1.9,0-3.7,0-5.6
				c4-1.4,11.2,1.5,11.8-3.4c-0.2-0.3-0.4-0.5-0.6-0.8C525.9,215.2,522.4,216.8,521.4,215.3z M336.3,225c-0.9-3.6-1.2-7-1.7-10.1
				c-0.4-0.1-0.9-0.1-1.3-0.2c-0.3,0.1-0.7,0.1-0.9,0.3c-1.2,0.6-2.4,4-3.1,5.3c-2.2,4.2-5,8.2-7.1,12.5c-0.5,1.1-3.2,4.5-2.6,5.5
				c0.1,0.1,0.1,0.1,0.2,0.2c1,0.4,1.2-0.3,1.7-0.6c0.3,0,0.7,0,1,0c0.7-0.3,0.9-0.7,1.5-1c0,0,0.1-0.1,0.1-0.1
				c0-0.1,0.1-0.1,0.1-0.2c0.4-0.5,1.4-4.5,1.4-4.7c0.3-0.4,0.5-0.2,0.6-0.7c3-0.2,5.3,0,7-0.4c1,0.9,0.5,4.2,0.9,5.8
				c0.9,0.6,2.5,0.9,3.4,1.2c0.9-0.5,1.3-1.2,1.3-2.2c-1.8-2.4-2-6.1-2.6-9C336.1,226.2,336.5,225.7,336.3,225z M333.9,227.8
				c-1.9,0.1-3.7,0.1-5.6,0.2c0-0.2-0.1-0.4-0.1-0.6c-0.3-0.8,4-6.4,4.7-7.5c0.1,0,0.1,0,0.2,0C333.5,220.9,334.1,226.9,333.9,227.8
				z M336.1,225.9C336.1,225.9,336.1,225.9,336.1,225.9c0,0.1,0,0.1-0.1,0.2C336,226.1,336,226,336.1,225.9z M477.6,229.6
				c-0.5-1.6-1.2-3.8-1-5.8c-0.7-2.9-1.3-5.7-2-8.6c-0.4-0.3-0.5-0.4-1.1-0.5c-2.7,2.3-4.3,7.5-6.1,10.7c-1.1,2-2.5,3.8-3.3,6.1
				c-0.7,1.8-2.4,5.9-1.1,6.9c1.5-0.5,2.4-0.6,3.9-0.9c0.9-1.5,1.4-4.1,2-5.8c1.5-0.6,4.4-1.2,5.9-0.5c0.5,2.2,0,4,0.4,6.2
				c1.3,0.9,3.2,0.6,4.3-0.3c-0.1-0.6-0.4-0.9,0-1.5C477.9,234.4,478.2,231.7,477.6,229.6z M470.8,228.7c-0.1,0-0.3-0.1-0.4-0.1
				c0.9-2.5,1.9-5.1,2.8-7.6c1.1,0.9,1.2,6.1,1.4,7.2C473.9,228.9,471.8,228.5,470.8,228.7z M506.5,231.7c-1.4-1.8-3-4-4.3-6
				c2.1-1.3,9.3-6.1,5-9.3c-1.7-1.3-5.1-1.3-7.4-1.5c-0.7,0.7-2.4,0.8-2.8,1.6c-0.1,1.8-0.1,3.7-0.2,5.5c0.1,1.1-0.4,3.7-0.7,4.9
				c0.1,1,0.1,1.9,0.2,2.9c-0.2,1.6-0.5,3.1-0.7,4.7c0.3,0.3,0.5,0.6,0.8,0.9c1.2,0,2.1-0.2,2.9-0.5c0.4-1.3-0.3-3.5,0.3-5
				c0-0.1,0-0.1,0-0.2c3.4,0.4,6.4,4.4,8.2,6.8c0.2,0,0.4,0,0.6,0c0.4-0.4,0.7-0.8,1-1.4C509.4,233.1,507.5,232.9,506.5,231.7z
				 M499.5,223.7c-0.1-2-0.2-4-0.3-6c0.6-0.3,1.5-0.2,2.2-0.5c1.9,0,3.2,0.3,4.8,0.8c0.3,2.3-4.7,5-6.5,5.8
				C499.7,223.8,499.6,223.8,499.5,223.7z M382.7,215.9c-0.5-0.1-0.9-0.2-1.4-0.3c-1.3,1.2-0.5,3.4-0.9,5.6c-0.2,0.8,0.2,2,0,3.1
				c-0.6,2.8-0.7,5.8-0.8,8.3c0,0-0.1,0-0.1,0c-1-0.8-1.1-1.9-1.8-3c-1.3-1.9-3.2-4.8-4.2-6.7c-0.8-1.5-1.4-3.2-2.5-4.3
				c-1.1,0.4-3.7,1.4-3.7,3.5c0.6-0.1,0.7,0.2,1.4,0.4c0.8,4.4-0.8,10.1,0.7,13.7c0.2,0.1,0.4,0.2,0.6,0.3c0.4-0.3,0.7-0.3,1.2-0.5
				c0.1-0.5-0.1-1.3,0.5-1.6c-0.2-0.4,0-0.3-0.4-0.2c-0.1-1.3,0.4-6.6-0.3-7.2c0.3-0.3,0.5-0.4,0.9-0.1c1,0.7,1.6,3,2.2,4.1
				c1.2,2.2,3.2,3.8,4.5,5.8c1,0,1.1-0.2,2.1-0.3c1.7-2.7,1.8-10.8,1.5-13.4C382,220.4,383.6,218.3,382.7,215.9z M370.9,225
				C370.9,225,370.9,225,370.9,225c-0.2-0.1-0.2-0.1-0.3-0.2c0,0,0.1-0.1,0.1-0.1c0.1,0,0.1,0,0.2,0
				C370.9,224.8,370.9,224.9,370.9,225z M372.3,226.6c0-0.1-0.1-0.1-0.1-0.2c0.1,0,0.1,0,0.2,0C372.4,226.5,372.4,226.6,372.3,226.6
				z M483.5,215.7c-1.3,0.1-2.6,0.3-3.9,0.4c-0.5,0.8-0.6,1.5-0.4,2.5c1.3,0.1,2.1-0.5,3.7-0.5c0,0.1,0.1,0.1,0.1,0.2
				c-0.4,1.7-0.1,3.8,0,4.7c0.3,3-0.3,6.4,0.2,9.3c0.2,1.4-0.5,2.8,0.1,3.9c0.2,0.2,0.3,0.3,0.5,0.5c0.8-0.1,1.7-0.4,2.1-0.9
				c0.4-2.5-0.9-4.9-0.2-7.2c2.5-0.8,5-1.1,6.6-2.7c0.8-0.9,1.3-2.6,1.3-4C493.4,216.2,487.9,216.2,483.5,215.7z M487.7,224.1
				c-0.5,0.2-1.1,0.6-1.6,0.4c-0.1-0.1-0.4-6-0.1-6.5c2-0.1,4.2,0.4,5,1.8C492.6,222.8,489.7,223.5,487.7,224.1z M536.4,227.3
				c-1.9-0.7-3.7,0.3-4.6-1.5c-1.3-3.1,3.3-7.7,5.8-7c0.1,0.1,0.1,0.3,0.2,0.4c0.6,0.8-1.4,3.7-1.5,5c1.7,0.7,4-2.7,3.5-5
				c-0.5-1-1.1-2.1-1.6-3.1c-0.4-0.1-0.9-0.2-1.3-0.3c-0.6,0.2-1.2,0.3-1.8,0.5c-2.1,1.4-8.2,8.5-4.8,11.6c1.2,1.1,5.7,1,6.8,2.5
				c2.7,3.4-4.2,8-6.1,1.9c-0.4-0.1-0.7-0.2-1.1-0.3c0,0-0.1,0-0.1,0c-2.5,4.7,6.8,8.4,10,3.7C542.2,232.3,539.1,228.3,536.4,227.3z
				 M398.5,216c-3.8,1.9-10.4,0-13.8,1.7c-0.3,0.6-0.2,1.7-0.1,2.6c1.5,1.1,3,0.1,5,0c0.6,1.3,0.1,2.7,0,4.1
				c-0.2,2.9-1.2,10.8-0.3,13.1c1,0.4,1.8,0.2,2.8-0.2c0.6,0.3,0.2-3.6,0.3-4.7c0.2-4.2,0.3-8.3,0.5-12.5c1.7-0.4,2.9-0.8,4.8-0.3
				c0.2-0.3,0.1-0.2,0.1-0.5c0.3-0.1,0.6-0.2,0.9-0.3c-0.2,0.4-0.4,0.4-0.7,0.4c1.6,1.8,2.6-1.9,1.9-2.9
				C399.6,216.1,399.2,216,398.5,216z M397.4,219.1c0-0.1,0.1-0.1,0.1-0.2C397.4,219,397.6,219,397.4,219.1z M353.2,217.1
				c-0.9-0.4-2.2,0.2-3,0.4c-0.7,1.1-4.7,12-4.5,13.3c-0.1,0-0.1,0.1-0.2,0.1c-0.8-1.3-1.3-3.8-1.1-4.8c-0.3-0.4-1.8-8.7-1.8-8.7
				c-0.3-0.4-0.8-0.7-1.4-0.8c-0.5,0.4-0.4,0.3-1,0.5c-1.1,1.7,0.1,3.1,0.1,4.8c0.4,1.7,0.8,3.5,1.2,5.2c0.9,3.5,0.8,7.5,2.5,10.5
				c0.6-0.1,1.1-0.3,1.7-0.4c0.4-1.3,1.4-2.5,1.9-3.7c1.4-3.2,0.6-5.5,2.4-8.3C351.3,223.2,353.7,220,353.2,217.1z M359.4,217.1
				c-0.2,0-0.3-0.1-0.5-0.1c-2.4,2.3-2.5,6.2-3.9,9.6c-0.9,2.2-4.5,7.9-4.5,10.6c0.3,0.4,0.5,0.8,0.8,1.4c0.2,0.4,0.8,0.3,1.4,0.1
				c0.8-1.3,1.2-3.4,1.8-5.3c1.7-1.1,3.7-0.2,6.4-0.9c0.7,0.6,0.5,2.6,0.8,3.7c1.1,0.2,1.8,0.4,3.1,0.1c0-0.1,0.1-0.2,0.1-0.3
				c0.6-0.9-1.2-2.5-1.1-3.7C363.9,229.6,361.2,218.1,359.4,217.1z M360.8,229.6c-1.6,0.5-2.9,0.6-4.7,0.8c-0.1-2.1,2.4-6.7,3.2-7.9
				c0.7,0.8,1.6,5.5,1.6,6.9C360.9,229.5,360.8,229.6,360.8,229.6z M276.1,231.6c-0.1,0-0.2,0-0.3,0c0.2,0.5,0.6,0.9,1.1,1
				C276.7,232.2,276.4,231.9,276.1,231.6z M447.7,378.2c0.1-0.1,0.1-0.1,0.2-0.2c0,0,0-0.1,0-0.1c-0.1,0-0.1,0-0.2,0
				C447.7,378,447.7,378.1,447.7,378.2C447.7,378.2,447.7,378.2,447.7,378.2z M397.6,380.3c0,0.1,0,0.2,0,0.3
				c0.1-0.1,0.3-0.1,0.4-0.2c0,0,0-0.1,0-0.1C397.8,380.3,397.7,380.3,397.6,380.3z M454.2,380.5c-0.1,0-0.2,0-0.3,0
				c0,0.1,0,0.1,0,0.2c0.1,0,0.1,0,0.2,0C454.1,380.6,454.1,380.5,454.2,380.5z M402.6,380.6c0,0.1,0,0.2,0,0.3c0.1,0,0.2,0,0.3,0
				C402.7,380.5,402.9,380.8,402.6,380.6z M400.8,380.8c0.2,0.1,0.1,0,0.2-0.1C400.9,380.7,400.8,380.7,400.8,380.8z M420.4,381.4
				c-0.1-0.1-0.2-0.1-0.3-0.2c0,0.1,0.1,0.1,0.1,0.2C420.3,381.4,420.3,381.4,420.4,381.4C420.4,381.4,420.4,381.4,420.4,381.4z
				 M423.3,381.7c0.1,0,0.2,0,0.3,0c-0.2-0.4,0.1-0.1-0.3-0.3C423.3,381.5,423.3,381.6,423.3,381.7z M434.9,382.1
				c0,0.1-0.1,0.2-0.1,0.3c0.4-0.2,0.1,0.1,0.3-0.3C435.1,382.1,435,382.1,434.9,382.1z M432.7,382.9c0,0.6,0,1.2,0,1.8
				c0.6,0.2,1.1,0.3,1.7,0.5c0-0.1,0-0.1,0-0.2c0.3-0.1,0.6-0.1,0.9-0.2c0-0.5,0-1,0-1.5c-0.4-0.5-1-0.9-1.8-1.1
				C433.3,382.8,433.3,382.8,432.7,382.9z M482.5,383.2c0.1,0.1,0.1,0.2,0.2,0.3c0,0,0.1,0,0.1,0
				C482.6,383.1,482.9,383.4,482.5,383.2z M482.5,383.9C482.5,383.9,482.6,383.9,482.5,383.9C482.6,383.8,482.6,383.8,482.5,383.9
				c0-0.2-0.1-0.2-0.2-0.3C482.4,383.7,482.4,383.8,482.5,383.9z M400.5,383.7c-0.1,0.3-0.8,0.6-1.1,0.6c0.2,0.7,0.1,0.7,0,1.5
				c0.4,0.2,0.6,0.3,0.6,0.4c0.5,0.4,1.4-0.2,1.8-0.4c0.3-0.2,0.2-0.4,0.6-0.6C402.1,384.4,401.1,383.8,400.5,383.7z M413.9,384.4
				c0.1,0.1,0.1,0.2,0.2,0.3c0,0,0.1,0,0.1,0C414,384.3,414.3,384.6,413.9,384.4z M392.7,385c0.2,0,0.3,0,0.5,0c0-0.1,0-0.3,0-0.4
				c-0.2,0-0.3,0-0.5,0C392.7,384.7,392.7,384.9,392.7,385z M459.8,385.1c-0.2-0.2-0.1,0-0.1-0.3c-0.3,0-0.2-0.1-0.4,0.2
				c-0.4-0.1-0.2,0.1-0.3-0.3c-0.6,0.3-1.1,0.6-1.7,0.9c0.1,1,0.5,1.3,0.9,1.9c0.2,0,0.3,0,0.5,0c0,0.2,0,0.3,0,0.5
				c0.5-0.1,0.6-0.3,0.9-0.1c1.3-0.5,0.8-1.9,0.8-3C460.2,385,460,385,459.8,385.1z M394.3,385.3c0,0.1,0,0.2,0,0.3
				c0.1,0,0.2,0,0.3,0C394.4,385.2,394.6,385.5,394.3,385.3z M435.6,385.9c-0.8,0.6-1.3,0.9-1.8,1.7c0.2,0.4,0.4,0.7,0.6,1.1
				c0.5,0.1,1,0.1,1.5,0.2c0.2-0.3,0.4-0.5,0.6-1C436.9,387,436.1,386.1,435.6,385.9z M456.9,385.9c0.1,0.1,0.1,0.2,0.2,0.3
				c0,0,0.1,0,0.1,0C457,385.8,457.2,386.1,456.9,385.9z M469.2,387.1c-0.4,0.3-1.5,0.7-1.7,0.7c0,0.7,0,1.3,0,2
				c0.9,0.1,1.3,0.2,2,0.2c0.2-0.5,0.4-0.9,0.6-1.4C470,388,469.7,387.3,469.2,387.1z M426.5,387.6c0,0.1-0.1,0.1-0.1,0.2
				c0.1,0,0.1,0.1,0.2,0.1c0,0,0.1,0,0.1,0C426.6,387.6,426.7,387.8,426.5,387.6z M424.9,387.8c-0.3,0.6-0.6,1-0.5,1.8
				c0.5,0.4,0.1,0.6,0.7,0.9c0.1-0.3,0-0.1,0.2-0.3c-0.1,0.1-0.1,0.3-0.2,0.4c0.3,0.1,0.6,0.2,0.9,0.3c0.6-0.3,0.4-0.3,1-0.3
				C426.9,388.3,427.3,388.6,424.9,387.8z M470.1,389.1c0.1,0,0.2,0,0.3,0c0-0.1,0-0.3,0-0.4c-0.1,0-0.2,0-0.3,0
				C470.1,388.8,470.1,389,470.1,389.1z M405.2,389.2c-1,0.7-1.7,0.3-2.7,1.5c0.2,0.4,0.4,0.9,0.6,1.3c1,0,1.1,0.1,1.8,0
				c0-0.4,0.1-0.1-0.2-0.4c0.2,0,0.5,0,0.7,0c-0.1-0.4,0.4-0.9,0.9-1.6c-0.2-0.3-0.2-0.3-0.3-0.7
				C405.7,389.3,405.4,389.2,405.2,389.2z M435.2,389.8c0.1,0,0.2-0.1,0.3-0.1c0,0,0-0.1,0-0.1c-0.1,0-0.2,0-0.3,0
				C435.2,389.7,435.2,389.7,435.2,389.8z M417.9,390.4C417.9,390.4,418,390.4,417.9,390.4c0.1-0.3,0.3-0.1,0-0.3
				C417.9,390.2,417.9,390.3,417.9,390.4z M444.4,390.3c-0.8,0.4-1.1,0.5-1.2,1.6c0.3,0.2,0.3,0.5,0.5,0.9c0.4,0.1,0.7,0.1,1.1,0.2
				c0.4-0.3,0.7-0.7,1.1-1c-0.1-0.5-0.3-1.1-0.4-1.6C445.2,390.4,444.8,390.3,444.4,390.3z M389.1,392.6c0.2-0.6,0-0.8-0.1-1.2
				c-0.6-0.1-1.1-0.2-1.7-0.3c-0.3,0.3-0.5,0.7-0.8,1c0,0.6-0.1,0.6,0.1,0.9c0.5,1,1.5,0.6,2.2,0.5c0.1-0.5,0.2-0.7,0.7-0.8
				C389.2,392.4,389.5,392.5,389.1,392.6z M419.8,391.9c0.1-0.1,0.3-0.1,0.4-0.2c0,0,0-0.1,0-0.1c-0.1,0-0.3,0-0.4,0
				C419.8,391.7,419.8,391.8,419.8,391.9z M469.2,392.1c0,0.1,0,0.1,0,0.2c0.1,0.1,0.1,0.1,0.2,0.2c0,0,0.1,0,0.1,0
				C469.3,392.1,469.5,392.3,469.2,392.1z M466.4,392.6c0.1,0,0.2,0,0.3,0c-0.1-0.1-0.1-0.1-0.2-0.2
				C466.4,392.5,466.4,392.5,466.4,392.6z M392.1,392.6c0,0.1-0.1,0.1-0.1,0.2c0.1,0,0.1,0.1,0.2,0.1c0,0,0.1,0,0.1,0
				C392.1,392.6,392.3,392.8,392.1,392.6z M439.3,394.9c0.1,0,0.3,0,0.4,0c0-0.1,0-0.3,0-0.4c-0.1,0-0.2,0-0.3,0
				C439.4,394.6,439.4,394.8,439.3,394.9z"/>
		</g>
	</g>
	<g>
		<g>
			<path class="st1" d="M593.5,225.7c-2-2.7-4.7-4.8-6.8-7.3c-7.6-9-16.6-16.7-25-24.8c-1.7-1.6-7.3-7.9-10-7.4
				c-0.8,1.4-0.6,3.4-0.3,4.9c-1.1,2-1.1,7.9-1.4,10.3c-0.1,0-0.1,0.1-0.2,0.1c-1-1.4-3.3-1-5.1-1.2c-6.5-0.8-14.1,0.2-20.6-0.8
				c-2.3-0.1-4.7-0.2-7-0.3c-5.7-0.9-11.1-0.9-16.9-0.6c-4.8,0.2-11.5-0.2-15.4,0.4c-7.1,0.2-14.2,0.3-21.3,0.5
				c-4.2,0.4-8.5,0.9-12.7,1.3c-1.7,2.3-0.6,5.3-0.1,8.4c0.1,3.4,0.3,6.7,0.4,10.1l-0.2,6.8l0.3-1.4c-0.1,2.6-0.1,5.2-0.2,7.8
				c-0.1,0-0.2,0-0.3,0l-0.1,2.3c0.6,0.5,0.1,4.5,0.3,5.9c0.1,3.9,0.1,7.7,0.2,11.6c-0.2,0.5-0.5,0.9-0.7,1.4
				c-0.3,1,0.5,1.5,0.7,2.1c0.3,1-0.2,1.5-0.3,2.4c0.4,0.2,0.4,0.3,0.6,0.7c1.1,0.2,2.6-0.7,4.3-0.6c2.9,0.2,6.3-0.8,9.1-0.8
				c3.5,0.1,8.2-0.1,11.6-0.4c2.3-0.1,4.5-0.3,6.8-0.4c4.3,0.5,8-0.5,11.9-0.4c2.9,0.1,7.3,0.2,10.2,0.3c5.2,0.1,10.4,0.2,15.6,0.3
				c1.7-0.1,3.5-0.2,5.2-0.3c7.2,0.6,13.2,0.3,19.8,0c1.4,2.1,0.2,8-0.2,11.1c0.1,0.7,0.2,1.5,0.3,2.2c-0.2,1.4-1.4,2.3-0.6,3.8
				c0.2,0.4,0.6,0.5,0.9,0.8c2-0.2,2.7-2.1,3.9-3c0.7-0.2,1.5-0.3,2.2-0.5c1-1,2-2.1,3-3.1c1.1-1,2.5-2,3.7-2.9
				c9.7-7.7,19-16,26.6-25.7c2.7-3.5,7.5-5.9,9.5-10C595.7,227.9,594.1,226.5,593.5,225.7z M577.7,241.5c-2.2,2.4-4.8,4.4-6.9,6.8
				c-3.8,4.4-8.1,8.8-12.7,12.4c-2.5,2-8.9,6.3-9.9,9.3c-1.1-1.4,0.4-12.8,1-14.7c-0.2-0.2-0.3-0.4-0.5-0.6
				c-0.7-0.6-6.4-0.2-7.7,0.1c-3.5,0.7-8.1,0.1-12.2-0.1c-2.1,0.1-4.1,0.1-6.2,0.2c-1.4,0-4.1,0.4-5.9,0.2c-3-0.1-6-0.2-9-0.3
				c-1.4,0.1-2.9,0.1-4.3,0.2c-3.9-0.3-8.4-0.5-12.4-0.2c-5.1,0.4-12.1,1-17.3,0.5c-1.4,0.1-2.8,0.3-4.2,0.4c-1.7,0.1-3.3,0.1-5,0.2
				c-3.8,0.6-7.5,0.9-11.6,0.4c0.4-7.9-0.1-15.7-0.1-24.7c0-5.5,0.4-11-0.2-15.4c0.1-0.7,0.1-1.5,0.2-2.2c-0.4-1.5-0.1-3.6-0.3-4.2
				c-0.3-0.8-0.6-2.6-0.7-4.4c1.6-0.9,3.8-0.5,5.5-0.8c1.3-0.3,4.3,0.5,6.2-0.5c0.2-0.1,0.4-0.2,0.6-0.3c0.5,0,2.2,0.7,2.6,0.6
				c0.9-0.1,1.8-0.3,2.7-0.4c0.1,0,1.1,0.4,1.1,0.4c0.4-0.1,1.5-0.6,2.2-0.4c0.2,0.1,0.1,0.4,0.5,0.3c2.4-0.5,5.3-0.4,7.5-0.8
				c0.6,0.2,1.1,0.3,1.7,0.5c5-0.6,9.6-0.8,15-0.4c4.6,0,9.2,0,13.8,0c1.4,0.3,4.3,0.8,6,0.7c1.3,0,2.6-0.1,3.9-0.1
				c2,0.4,4.5,0.5,6.8,0.3c1.3-0.1,3.3,0.2,4,0.5c3.8,0,7.6,0,11.4,0c3,0.3,5.9,1.2,8.3,0.3c0-2.2,0-4.4,0-6.6c0.3-2.5,0.7-5,1-7.5
				c2.8,0,8.1,7,9.8,8.9c4.1,4.7,8.7,10.2,12.2,15.6c1.5,2.3,2.8,4.9,4.6,7.2c2.3,2.9,5.4,5.7,7.2,8.7
				C586.2,233.6,579.2,239.7,577.7,241.5z M521.4,215.3c-0.2-0.7-0.4-1.3-0.6-2c-0.3-0.7-0.9-1.8-1-2.6c-0.3-0.2-0.6-0.4-1.2-0.4
				c-0.7,0.6-1.5,0.3-1.8,1.2c-0.1,0-0.1,0-0.2,0c0.7,1,1.9,3,1.8,4.8c-1.9,0.5-3.2-0.1-4.7,0.3c-1.7,3.5,0.9,7.6-1.4,11.7
				c1.5,2.2-0.4,5.3,0.3,7.5c-2,0.7,3.9,1,4.1,1c0.6,0.1,9.2-0.3,9.9-0.9c0.3-0.3,0.2,0,0.2-0.4c0.5-0.9-1-2.2-1.6-2.7
				c-3,0.5-6.9,0.3-9.8,0.5c-0.3-1.2,0-3.1,0.2-4c2.9-1.5,6.4-0.2,10-0.6c0.1-0.2,0.2-0.3,0.3-0.5c-0.1-0.6-0.2-0.7-0.7-0.8
				c-0.2-0.4-0.2-1.1-0.2-1.6c-2.4-0.7-5.6,0.3-8.8-0.5c0-1.9,0-3.7,0-5.6c4-1.4,11.2,1.5,11.8-3.4c-0.2-0.3-0.4-0.5-0.6-0.8
				C525.9,215.2,522.4,216.8,521.4,215.3z M477.6,229.6c-0.5-1.6-1.2-3.8-1-5.8c-0.7-2.9-1.3-5.7-2-8.6c-0.4-0.3-0.5-0.4-1.1-0.5
				c-2.7,2.3-4.3,7.5-6.1,10.7c-1.1,2-2.5,3.8-3.3,6.1c-0.7,1.8-2.4,5.9-1.1,6.9c1.5-0.5,2.4-0.6,3.9-0.9c0.9-1.5,1.4-4.1,2-5.8
				c1.5-0.6,4.4-1.2,5.9-0.5c0.5,2.2,0,4,0.4,6.2c1.3,0.9,3.2,0.6,4.3-0.3c-0.1-0.6-0.4-0.9,0-1.5
				C477.9,234.4,478.2,231.7,477.6,229.6z M470.8,228.7c-0.1,0-0.3-0.1-0.4-0.1c0.9-2.5,1.9-5.1,2.8-7.6c1.1,0.9,1.2,6.1,1.4,7.2
				C473.9,228.9,471.8,228.5,470.8,228.7z M506.5,231.7c-1.4-1.8-3-4-4.3-6c2.1-1.3,9.3-6.1,5-9.3c-1.7-1.3-5.1-1.3-7.4-1.5
				c-0.7,0.7-2.4,0.8-2.8,1.6c-0.1,1.8-0.1,3.7-0.2,5.5c0.1,1.1-0.4,3.7-0.7,4.9c0.1,1,0.1,1.9,0.2,2.9c-0.2,1.6-0.5,3.1-0.7,4.7
				c0.3,0.3,0.5,0.6,0.8,0.9c1.2,0,2.1-0.2,2.9-0.5c0.4-1.3-0.3-3.5,0.3-5c0-0.1,0-0.1,0-0.2c3.4,0.4,6.4,4.4,8.2,6.8
				c0.2,0,0.4,0,0.6,0c0.4-0.4,0.7-0.8,1-1.4C509.4,233.1,507.5,232.9,506.5,231.7z M499.5,223.7c-0.1-2-0.2-4-0.3-6
				c0.6-0.3,1.5-0.2,2.2-0.5c1.9,0,3.2,0.3,4.8,0.8c0.3,2.3-4.7,5-6.5,5.8C499.7,223.8,499.6,223.8,499.5,223.7z M483.5,215.7
				c-1.3,0.1-2.6,0.3-3.9,0.4c-0.5,0.8-0.6,1.5-0.4,2.5c1.3,0.1,2.1-0.5,3.7-0.5c0,0.1,0.1,0.1,0.1,0.2c-0.4,1.7-0.1,3.8,0,4.7
				c0.3,3-0.3,6.4,0.2,9.3c0.2,1.4-0.5,2.8,0.1,3.9c0.2,0.2,0.3,0.3,0.5,0.5c0.8-0.1,1.7-0.4,2.1-0.9c0.4-2.5-0.9-4.9-0.2-7.2
				c2.5-0.8,5-1.1,6.6-2.7c0.8-0.9,1.3-2.6,1.3-4C493.4,216.2,487.9,216.2,483.5,215.7z M487.7,224.1c-0.5,0.2-1.1,0.6-1.6,0.4
				c-0.1-0.1-0.4-6-0.1-6.5c2-0.1,4.2,0.4,5,1.8C492.6,222.8,489.7,223.5,487.7,224.1z M536.4,227.3c-1.9-0.7-3.7,0.3-4.6-1.5
				c-1.3-3.1,3.3-7.7,5.8-7c0.1,0.1,0.1,0.3,0.2,0.4c0.6,0.8-1.4,3.7-1.5,5c1.7,0.7,4-2.7,3.5-5c-0.5-1-1.1-2.1-1.6-3.1
				c-0.4-0.1-0.9-0.2-1.3-0.3c-0.6,0.2-1.2,0.3-1.8,0.5c-2.1,1.4-8.2,8.5-4.8,11.6c1.2,1.1,5.7,1,6.8,2.5c2.7,3.4-4.2,8-6.1,1.9
				c-0.4-0.1-0.7-0.2-1.1-0.3c0,0-0.1,0-0.1,0c-2.5,4.7,6.8,8.4,10,3.7C542.2,232.3,539.1,228.3,536.4,227.3z M449.3,232.2
				c0.3-0.1,0.7,0.2,1.2,0.3l0.2-6.4L449.3,232.2z"/>
		</g>
	</g>
</g>
<g id="Calque_2">
</g>
</svg>
