<?xml version="1.0" encoding="utf-8"?>
<!-- Generator: Adobe Illustrator 21.0.0, SVG Export Plug-In . SVG Version: 6.00 Build 0)  -->
<svg version="1.1" xmlns="http://www.w3.org/2000/svg" xmlns:xlink="http://www.w3.org/1999/xlink" x="0px" y="0px"
	 viewBox="0 0 841.9 595.3" style="enable-background:new 0 0 841.9 595.3;" xml:space="preserve">
<style type="text/css">
	.st0{fill:#DADADA;}
</style>
<g id="Calque_1">
	<path class="st0" d="M295.9,387c15.6,14.4,67.1,25,128.3,25c73.5,0,133.1-15.3,133.1-34.1c0-17-48.3-31.1-111.6-33.7
		c0,0-21.2,26.3-24,28.8c-2.9,2.5-24.8,17.6-26.6,19c-1.8,1.4-7.5,3.6-7.5,3.6l-2.9-2.9c0,0-19.8,2.9-32,3.6
		c-12.2,0.7-27.7,1.4-48.8-6.5"/>
	<g>
		<g>
			<path d="M467.7,274.5c0-0.2,0-3.4-0.1-3.7c-0.1-0.3-0.5-0.5-0.4-1c0.1-0.5,0.3-1,0.4-1.6c0.1-0.6-0.8-4.5-0.9-4.6
				c0-0.7-0.1-1.3-0.1-2c-0.1-0.2-0.5-0.6-0.6-0.9c0.1-0.6,0.1-1.1,0.1-1.7c-0.5-1.7-1-3.7-1.6-5.5c0-0.4-0.1-0.9-0.1-1.3
				c-0.2-0.2-0.5-0.5-0.7-0.7v-1.7c-0.3-0.2-0.6-0.4-0.9-0.6c-0.9-1.4-1-2.9-1.6-4.6c-0.3-0.9-1-1.9-1.3-2.7
				c-0.3-0.7-0.5-3.1-0.1-3.4c-0.2-0.4-0.7-0.6-0.9-1c-0.2-0.5,0-0.9-0.3-1.4c-0.2-0.2-0.5-0.5-0.7-0.7c0-0.4-0.1-0.9-0.1-1.3
				c0-0.1-0.7-0.5-0.7-0.6c0-0.3-0.1-0.7-0.1-1c-0.5-1.1-1.5-2.1-2-3.2c0-0.4-0.1-0.9-0.1-1.3c-0.2-0.3-0.7-0.2-1-0.4
				c-0.2-0.2-0.5-0.9-0.7-1.1c-0.2-0.2,0-0.2,0.1-0.4c-0.8-0.6-1.6-1.6-1.9-2.6c-0.2-0.3-0.2-0.7,0.3-0.9c-0.1-0.2-1.6-1.4-1.9-1.4
				c0.2-0.5,0-0.9,0.1-1.1c-0.3-0.5-0.3,0-0.7-0.3c-0.6-0.4-0.2-1-1.4-1.1c-0.2-1.5-1.6-1.8-2.3-2.9c-0.1-0.5-0.2-1-0.3-1.4h-0.3
				l-0.4-0.9c-0.3-0.2-0.7-0.1-0.9-0.4v-0.6c-0.6-1.1-2.3-2-3.2-2.9c-1-1-0.6-1.7-2.3-2.3c0.1-0.3,0-0.3,0.1-0.4
				c-0.3-0.5-0.2,0-0.7-0.3c-1.5-0.8-1.2-2.2-4.2-2.2c-0.1-0.1-0.4-0.4-0.4-0.4v-1.7l-0.9-0.9c-0.1-0.3,0-0.7-0.1-0.9
				c0.2-0.7,0.3-0.4,0.7-0.7l0.1-0.1c-0.4-0.1-1-0.1-1.4-0.3c-0.4-0.5-0.9-1-1.3-1.4c-0.4-0.1-0.8-0.3-1.1-0.4
				c-0.3-0.3-0.2-0.9-0.6-1.1c-0.7-0.5-1.5-0.5-2.2-1c-1.1-0.8-2-2.1-3.3-2.7c-0.4-0.1-0.9-0.2-1.3-0.3c-0.5-0.3-0.5-1.3-1-1.6
				c-0.5-0.3-1-0.3-1.4-0.6c-0.7-0.5-1.3-1.3-2.3-1.6c-0.8-0.3-1.4,0.1-1.9-0.1c-0.4-0.1-0.8-0.7-1.1-0.9c-0.5-0.1-1-0.2-1.4-0.3
				c-0.5-0.2-1-0.8-1.6-1c-0.8-0.3-1.4-0.1-2.2-0.4c-0.8-0.3-1.8-1.2-2.6-1.4h-1.3c-0.2-0.1-0.6-0.6-0.9-0.7h-1
				c-0.6-0.2-1.4-1-2-1.1H399c-0.4-0.1-1-0.7-1.4-0.9c-0.4,0-0.9-0.1-1.3-0.1c-0.6-0.2-1.8-0.9-2.4-1.1c-1.5-0.6-4.2-0.6-5.7-1
				c-0.5,0-1,0.1-1.4,0.1l-0.4-0.4c-0.4,0-0.8,0.1-1.1,0.1v-0.3c-0.4-0.2-3.2-0.6-3.6-0.6c-0.4,0.1-1.3,0.3-1.9,0.1
				c-1.9-0.4-3.6-0.6-5.3-1c-0.8,0-1.5,0.1-2.3,0.1c-0.2,0-0.4-0.3-0.7-0.3c-0.1,0-0.6,0.3-0.7,0.3c-0.5-0.1-1-0.3-1.4-0.4
				c0,0.1-0.1,0.2-0.1,0.3c-1.6,0.5-2.9-0.3-3.7,0.9c-1-0.1-0.9-0.7-1.6-0.9c-1.7-0.5-2.7,1.2-4.2-0.6h-0.3v0.6h-0.7
				c-0.2-0.3-0.2-0.1-0.3-0.6c-0.8,0.2-1.7-0.1-2.4,0.1c-1,0.3-2.6,1.3-4.2,0.9c-1-0.3-2.3-0.9-3.3-1.1c-0.9-0.2-1.2,0.4-1.9,0.3
				c-0.4-0.1-2.4-0.6-2.6-0.6c-0.3,0-0.9,0.6-1.3,0.6c-0.7,0-1.5-0.2-2.3,0c-1.4,0.4-2.8,1.2-4,1.6h-1.6c-0.8,0.2-2,0.8-2.7,1
				c-0.9,0.2-2.6,0.2-3.4,0.6c-2,0.9-4.2,2.1-6.2,2.9c-1.2,0.5-2.4,0.2-3.6,0.7c-0.8,0.3-1.4,1.1-2,1.6c-0.7,0.4-1.4,0.5-2,1
				c-0.3,0.2-0.3,0.7-0.7,0.9c-0.4,0-0.8,0.1-1.1,0.1c-1.3,0.5-2.6,1-4,1.6c-1.2,0.5-2.5,1.4-3.7,1.9c-0.2,0-0.7-0.3-1-0.1
				c-0.4,0.2-0.9,0.9-1.3,1.1c-1,0.6-1.8,0.9-2.9,1.4c-0.6,0.3-1.7,1.5-2.4,1.9c-0.4,0.2-0.7,0.1-1,0.3c-1,0.6-1.9,1.6-2.9,2.2
				c-1.6,0.9-3.2,1.8-4.7,2.7c-0.8,0.5-1.7,0.6-2.4,1.1c-0.7,0.5-1.4,1.4-2.2,1.9c-0.6,0.4-1.2,0.5-1.7,0.9
				c-0.5,0.4-0.9,1.1-1.4,1.4c-0.4,0.2-0.8,0.1-1.1,0.3c-0.3,0.4-0.7,0.9-1,1.3c-0.4,0.3-0.8,0.3-1.1,0.6c-0.6,0.5-1.1,1.4-1.7,1.9
				c-0.5,0.4-1.1,0.5-1.6,0.9c-0.4,0.3-0.5,1-0.9,1.3c-0.2,0-0.5,0.1-0.7,0.1c-0.1,0.1-1.3,1.2-1.4,1.3c-1,1.4-1.7,2.7-2.9,3.9
				c-0.5,0.5-1.3,0.7-1.9,1.1c-1,0.8-1.4,2.3-2.3,3.3c-0.4,0.4-1.5,1.7-1.9,2c-0.3,0.2-0.7,0.4-1,0.6c-0.2,0.3-0.2,0.7-0.4,1
				c-0.3,0.2-0.7,0.4-1,0.6c-0.4,0.5-0.4,1.1-0.7,1.6c-0.4,0.7-1.3,1.1-1.7,1.7c-0.3,0.4-0.2,0.9-0.4,1.3c-0.4,0.7-1.2,1.5-1.4,2.3
				v0.9c-0.2,0.4-0.9,0.7-1.1,1c-0.2,0.4-0.1,0.8-0.3,1.1c-0.2,0.4-0.8,0.5-1,0.9c-0.5,0.7-0.7,1.8-1.1,2.6l-1.7,1.7
				c-0.4,0.8-0.6,2.5-0.9,3c-0.4,0.3-0.8,0.7-1.1,1c-0.7,1.1-0.7,2.7-1.3,3.9c-0.2,0.5-0.9,1-1.1,1.4c0,0.3-0.1,0.7-0.1,1
				c-0.3,0.2-0.7,0.5-1,0.7c0,0.3-0.1,0.7-0.1,1c-0.2,0.4-0.7,0.8-0.9,1.3v0.6c-0.2,0.3-0.7,0.2-0.9,0.4c0,0.6-0.1,1.1-0.1,1.7
				c-0.2,0.9-0.3,3.6-1.1,4.7c-0.1,0.1-0.4,0.2-0.7,0.3c-0.1,0.5-0.4,1.1-0.6,1.6c0,0.1,0.1,0.3,0.1,0.4c-0.2,0.3-0.7,0.7-0.9,1
				c0,0.8-0.1,1.5-0.1,2.3c-0.3,0.9-0.9,2.1-1.1,3.2c0,0.5,0.1,1.1,0.1,1.6c-0.1,0.6-0.6,2-0.6,2.7c0,0.2,0.2,0.9,0,1.4
				c0,0.1-0.4,0.6-0.4,0.7c-0.1,0.4,0.2,0.3,0.3,0.6c0.2,0.8-0.3,2-0.4,2.7v1.9c-0.1,0.4-0.5,0.9-0.6,1.3c0,0.6,0.1,1.1,0.1,1.7
				l-0.3,0.4c0,0.5,0.4,1.2,0.3,1.9c-0.4,1.5-0.5,3.4-0.9,5v3c-0.1,0.4-0.6,1.1-0.6,1.6c0,1.4,0.5,2.6,0.7,3.9
				c0.2,1.3-0.3,3.7-0.1,4.6c0.3,1.4,1,4,0.9,4.9c-0.1,0.5-0.4,1.9-0.3,2.4c0.1,0.5,0.6,1,0.7,1.4c0,0.6-0.1,1.2-0.1,1.9
				c0.1,1,0.3,2.4,0.6,3.7c0.2,0.7-0.1,1.4,0,1.7c0,0.1,0.5,0.6,0.6,0.7c0,0.4,0.1,0.9,0.1,1.3c0.3,0.7,1.1,1.3,1.4,2
				c0.1,0.5,0.2,1,0.3,1.4c0.2,0.4,0.7,0.7,0.9,1c0.3,0.6,0,1,0.3,1.4c0.4,0.5,1,1.1,1.3,1.7c0.5,1.2,0.2,2.5,0.9,3.4
				c0.3,0.3,0.7,0.6,1,0.9c0.4,0.6,0.4,1.3,0.7,2c0.2,0.5,0.8,0.9,1,1.4c0.5,1.1,0.8,2.4,1.1,3.4v1.3c0.2,0.7,0.8,0.9,1,1.4
				c0.3,0.6-0.1,0.8,0.3,1.3c0.2,0.3,0.7,0.5,0.9,0.9c0,0.4,0.1,0.9,0.1,1.3c0.4,1.1,1.3,2.3,1.7,3.3c0,0.4,0.1,0.9,0.1,1.3
				c0.2,0.4,0.7,1.2,1,1.6c0.2,0.1,0.4,0.2,0.6,0.3c0.4,0.5,0.5,1.2,1,1.6c0.6,0.5,1.4,0.6,1.9,1.1c0.2,0.3,0.7,1.6,0.9,1.7
				c0.3,0.2,1.7,0.4,1.7,0.4c0.4,0.2,0.6,0.7,0.9,1c0.4,0.1,0.8,0.3,1.1,0.4c0.4,0.3,0.8,0.8,1.3,1.1v1.9c0.4,0.9,3.2,2.1,4,3.2
				c1,1.3,2.3,2.9,3.7,3.9c1.3,0.8,2.6,1.5,3.7,2.4c0.2,0.2,0.3,0.6,0.4,0.7c0.5,0.4,1.2,0.5,1.7,0.9v0.3c0.5,0.3,1,0.1,1.4,0.4
				c0.5,0.3,0.8,1.1,1.3,1.4c1.5,1,2.9,1.9,4.5,2.9c0.6,0.4,1.1,1.3,1.7,1.6c0.7,0.3,1.2,0.2,1.7,0.6c0.5,0.5,0.9,1.3,1.4,1.7
				c1.2,0.9,2.6,1.4,3.9,2.3c0.5,0.3,0.9,1,1.4,1.3c0.7,0.4,1.4,0.6,2,1c0.3-0.1,1.8,0.2,2.3,0.4c0.4,0.2,0.9,0.8,1.3,1h0.9
				c0.2,0.2,0.5,0.5,0.7,0.7h0.4c0.1,0.1,0.3,0.5,0.4,0.6c0.9,0.4,1.1,0.2,2.2,0.6c0.6,0.3,1.5,0.9,2.2,1.1c0.5,0,1.1,0.1,1.6,0.1
				c0.3,0.2,0.7,0.8,1.1,0.9c0.3,0,0.7-0.1,1-0.1c0.4,0.2,0.9,0.9,1.3,1.1c1,0.6,2.8,0.9,3.9,1.3c1.8-0.4,7,1.2,10.1,1.6
				c0.3,0,0.7-0.1,1-0.1c0.2,0.1,1.3,0.6,1.6,0.4c0.5-0.2,1.3-0.7,2.3-0.4c0.2,0.1,0.6,0.4,0.7,0.4h1c0,0.1,0.1,0.3,0.1,0.4
				c0.7,0.3,3-0.2,3.4-0.3c0.7-0.1,1.1,0.2,1.6,0.3c1.3,0.3,2.3,0.1,3.4,0.3c1.1,0.1,3.2-0.7,4-0.6c2.7,0.5,8,0.8,9.6,0
				c1,0,2,0.1,3,0.1c1.7-0.3,4-0.5,5.9-1c1.2-0.3,2,0.2,2.9,0.3c0.4,0,1.3-0.1,1.9-0.1h1.1c0-0.1,0.1-0.3,0.1-0.4
				c1.2-0.8,2.5,0.3,3.7,0c0.6-0.1,1-0.6,1.6-0.7c0.8-0.2,1,0.3,1.6,0.1c0.7-0.1,1.3-0.6,1.9-0.9c2.1,0.5,3.9-0.3,5.6-1.7
				c0.8,0.2,0.5,0.6,1,1c0.5,0.1,1.1,0.3,1.6,0.4c0.5,0.4,0.7,0.9,1.3,1.3c0.7,0.7,2.3,0,3.2-0.3c2.2-0.6,4.2-1.1,6-2.2
				c0.7-0.4,1.3-1.2,2-1.4v-0.4c2.5-0.4,4.8-3.2,6.9-4.3c0.4-0.2,0.7,0,1,0c0.4-0.3,0.3-0.7,0.6-1c0.2-0.3,0.7-0.2,1-0.4
				c0.5-0.6,1.1-1.2,1.6-1.7c0.6-0.5,1.4-0.8,2-1.3c0-0.1,0.1-0.3,0.1-0.4c0.8-0.7,2.1-0.9,2.7-1.3c0.3-0.2,0.4-0.7,0.7-1
				c0.4-0.4,1-0.4,1.4-0.7c0.9-0.6,1.2-1.4,2-2.2c0.3-0.3,0.7-0.2,1-0.4c0.7-0.5,1.4-1.5,2.2-2c0.5-0.4,1.2-0.4,1.7-0.7
				c0.7-0.4,0.9-1.4,1.6-2c0.5-0.4,1.2-0.6,1.6-1.1c1.2-1.6,3.2-3.1,4.2-4.6c1-1.7,2.6-4.6,4.5-5.3c0.1-0.2,0.1-0.5,0.1-0.7
				c0.7-0.2,0.6-0.6,1-1c1-0.8,1.8-1.7,2.6-2.7c-0.1-0.1,1.6-3.5,2-3.9c0.2,0,0.4-0.1,0.6-0.1c0.3-0.3,0.2-0.8,0.4-1.1
				c0.5-0.8,1.6-1.3,2.2-2c0.3-0.3,0.1-0.6,0.3-1c0.4-0.3,0.9-0.7,1.3-1c0.2-0.4,0-0.9,0.3-1.3c0.5-0.8,1.4-1.5,1.9-2.3
				c0.4-0.7,0.3-1.2,0.7-1.7c0.3-0.2,0.7-0.5,1-0.7c1.3-2.2,2.4-4.6,3.7-6.8h0.4c0.2-2.1,1.2-2.5,2-3.7c0.6-0.9,0.7-1.9,1.3-2.9
				c0.4-0.7,1.1-1.4,1.4-2.2c0.2-0.4,0.2-1.5,0.6-2.2c0.2-0.3,0.7-0.9,0.9-1.3v-0.7c0.2-0.4,0.8-0.8,1-1.3c0.1-0.2,0.1-1.2,0.3-1.7
				c0.3-0.8,1.1-1.6,1.4-2.4c0.1-0.2-0.2-0.4-0.1-0.6c0.1-0.3,0.6-0.7,0.7-1c0.1-0.3,0.1-0.7,0.1-1c0.2-0.4,0.8-1,1-1.4
				c0.4-1-0.1-3.3,0.3-4.3c0.2-0.5,1-1,1.2-1.6c0.1-0.2,0.3-2.9,0.3-2.9c-0.1-0.2-0.4-0.3-0.3-0.9c0.3-1.5,1-3.5,0.7-5
				c-0.2-0.9,0.5-2.3,0.3-2.6c0.3-3.5,1.6-11.7-0.6-14.4c0.1-0.7,1.1-3,1.6-3.3c-0.1-0.4-0.1-0.5-0.3-0.7c0.1-0.6,0.4-0.4,0.6-0.7
				c0.2-0.4-0.2-1.1-0.1-1.3C467.2,275.3,467.6,274.7,467.7,274.5z M432.5,205.2c0.1-0.2,0-0.1,0.1-0.3c0.1,0.3,0.1,1.2,0.3,1.4
				c-0.1,0.2,0,0.1-0.1,0.3c-0.3,0.1-0.2,0-0.7-0.1c-0.1,0.3,0,0.3-0.1,0.4v0.1h-0.1C431.9,206.4,431.9,205.7,432.5,205.2z
				 M369.9,183c0.3-0.2,0.3-1.8,0.3-1.9c0-0.1,0.1-0.2,0.1-0.3c0.7,0,1.8-0.2,2.2,0c0.7,0.3,0.5,1.1,0.7,1.7
				c0.3,0.1,0.6,0.2,0.9,0.4c1.5-0.1,1.2-1,2.3-1.4c0.2-0.1,1-0.1,1.3,0.1c1.5,0,2.7,0.7,3.2,1.6c1.2-0.1,1.2-0.8,2.2-1
				c0.8-0.3,5.1,1,6.6,1v0.4c1.3-0.6,6.4,1,7.9,1.6c0.3,0.1,1.1,0.9,1.4,0.9c1.8-0.3,3.5,1.1,5.5,1.7c1.1,0.4,2.2,0.2,3.2,0.7
				c0.4,0.2,0.9,0.8,1.3,1c0.7,0.4,1.4,0.4,2.2,0.7c0.2,0.1,0.5,0.6,0.7,0.7c0.3,0,0.7-0.1,1-0.1l0.4,0.4h1l0.9,0.9
				c0.7,0.4,2.2,0.3,2.7,0.7c0.3,0.2,0.7,1.1,1,1.4c0.3,0.2,0.7,0.5,1,0.7c0,0.1,0.1,0.3,0.1,0.4c0.4,0,0.8,0.1,1.1,0.1
				c0.7,0.4,1,1.5,1.6,2c0.2,0,0.5,0.1,0.7,0.1c0.6,0.4,1.1,1.1,1.7,1.4c1.3,0.8,2.8,0.9,3.9,1.9c0.6,1.2,0.8,3.2,0.1,5
				c-0.1,0.3-0.6,0.8-0.7,1.1v0.9c-0.3,0.6-1.1,1.1-1.4,1.6c-0.2,0.8-0.5,1.5-0.7,2.3c-0.5,0.6-1.3,1-1.7,1.6
				c-0.4,0.6-0.9,1.1-1.3,1.7c-0.2,0.3-0.1,0.6-0.3,0.9c-1,1-2.2,1.9-3,3c-1,1.4-1.5,2.9-2.9,3.9c-1.2,0.9-2.5,1.5-3.9,2.3
				c-0.3,0.2-0.4,0.7-0.7,0.9c-0.8,0.4-1.4,0.2-2.2,0.6c-0.5,0.2-1.2,0.9-1.7,1.1c-0.4,0.1-0.9,0.2-1.3,0.3
				c-0.6,0.3-1.1,1.2-1.7,1.6c-1.2,0.8-2.5,1.1-3.9,1.7c-2.3,1-7.2,2.9-9.5,2.7c-1.1-0.1-2.8,0.5-3.6,0c-0.4-0.1-0.4-0.1-0.6-0.4
				c-0.1-0.2,0.2-0.6,0.4-0.9c0-1-0.9-2.2-1.6-2.6l-1.1-0.3c-0.3-0.4-0.7-0.8-1-1.1c-0.9-0.7-1.9-1.5-2.9-2
				c-0.5-0.3-1.5-0.6-2.2-0.6c-0.2,0-0.5,0.3-0.9,0.1c-0.3-0.1-0.7-0.4-1.1-0.7c0-1.6,0.6-1.9,0.9-2.9c0.1-0.5-0.2-0.8-0.1-1.1
				c0.2-0.9,0.8-2.2,1-3c0.1-0.3,0.3-2.3,0.1-3c-0.1-0.3-0.6-0.9-0.4-1.4h0.3v-4.5l-0.3-0.4c0.2-0.6,0.4-1.1,0.6-1.7
				c-0.1-0.9-0.5-1.8-0.7-2.4c0-1.1-0.1-2.1-0.1-3.2c-0.4-1.6-1.4-2.7-1.4-4.6h-0.4c-0.4-1.2-0.3-1.7-0.7-3
				c-0.2-0.6-0.9-1.1-1.1-1.6c-0.5-0.8-0.9-2.7-1.4-3.3c-0.2-0.2-0.7-0.2-0.9-0.4c-0.7-0.7-1.1-1.8-1.9-2.4h-0.4
				c-1-0.7-1.8-1.9-2.7-2.6C368.1,183,369.1,183.6,369.9,183z M370.3,233.4c0.1-0.2,0.4-0.7,0.6-1c0.4-0.6,1.2-0.6,1.4-1.3
				c0.9,0.1,1.3,0.2,2,0.7c0.7-0.1,0.7-0.2,1-0.6c0.2-0.3,0.1-0.7-0.3-1c0.2-1.3,1.5-0.5,2.3-1.3c4.1,0,4.8,1.9,7.2,3.4
				c-0.1,0.6-0.5,0.7-1,0.9c0.1,2,1.4,1.9,2,3.2v1.1l0.4,0.4c0.1,0.3-0.1,0.9,0.1,1.4c0.2,0.5,0.9,0.9,0.6,1.9
				c-0.2,0.7-1.5,3.5-2,3.9c-0.6,0.5-1.5,0.9-2,1.4c-0.5,0.5-0.8,1.3-1.4,1.6c-0.5,0-1.1,0.1-1.6,0.1c-0.5,0.2-0.9,0.7-1.4,0.9
				c-0.6,0.2-2.5-0.1-3.2-0.3c-1.1-0.2-1.9,0.4-3,0c-0.2-0.2-0.5-0.5-0.7-0.7c-0.7-0.4-1.6-0.5-2-1.1c-0.5-0.9-0.3-1.7-0.7-2.6
				c-1.2-2.7-1.4-5.4-0.1-8.2c0.2-0.5,0.8-0.8,1-1.1c0-0.3,0.1-0.6,0.1-0.9c0.2-0.2,0.7-0.2,0.9-0.4
				C370.4,233.7,370.3,233.5,370.3,233.4z M366.1,180.7h0.4c0.1,0.4,0,1,0.3,1.4c0,0.4,0,0.7-0.1,0.9c-0.1,0.1,0,0.1-0.3,0.1
				c-0.2-0.5-0.6-0.8-1-1.1C365.5,181.3,365.8,181.1,366.1,180.7z M348.5,180.4c0.3,0,0.6,0.1,0.9,0.1v0.1c-0.6,0.2-1,0.6-1.1,1.1
				h-0.3C348,181.2,348.3,181,348.5,180.4z M255.8,238.6c0.8-1.3,1.2-2.8,2.2-4c0.1,0,0.3-0.1,0.4-0.1c0.4-0.5,0.3-1.2,0.7-1.7
				c0.4-0.5,1.4-1.5,1.7-2c0.3-0.6,0.3-1.2,0.7-1.7c0.2,0,0.4-0.1,0.6-0.1c0.6-0.5,0.9-1.4,1.4-2l0.6-0.3c1-1.4,1.8-2.8,2.9-4.2
				c0.9-1.1,2.5-1.6,3.3-2.7c0.7,0.4,0.6,3,2.2,2c0.3-0.1,0.3-0.2,0.6-0.4c-0.1-0.6-0.3-0.8-0.1-1.1c-0.2-0.5-0.9-1-1.3-1.3
				c0.2-1.4,0.9-1.8,1.7-2.6c0.9-0.9,1.4-2,2.3-2.9c0.9-0.8,2.2-1.3,3.2-2c0.3-0.2,0.6-0.8,0.9-1c0.4-0.2,0.8-0.1,1.1-0.4
				c0.4-0.4,0.6-1.1,1-1.4c0.5-0.4,1.4-0.4,1.9-0.9c0.6-0.5,0.9-1.4,1.6-1.9c0.7-0.5,1.3-0.6,2-1c0.3-0.2,0.5-0.7,0.7-0.9
				c1.5-1.2,3.8-1.6,5.3-2.9c0.2,0.2,1-0.1,1.3-0.3c0.3-0.2,0.3-0.7,0.6-0.9c0.3-0.2,0.5-0.1,0.9-0.3c0.8-0.5,1.6-1.3,2.4-1.7
				c0.3-0.1,0.7-0.2,1-0.3c1.1-0.8,2.3-1.8,3.4-2.4c0.6-0.3,1.2-0.2,1.7-0.6c0.2-0.2,0.5-0.5,0.7-0.7c0.4,0,0.9-0.1,1.3-0.1
				c0.2-0.1,0.4-0.6,0.7-0.7c0.7-0.3,1.6-0.2,2-0.4c0.6-0.3,1.3-0.9,2-1.1c0.4,0,0.9-0.1,1.3-0.1c0.2-0.2,0.5-0.5,0.7-0.7
				c0.8-0.6,2.6-1.4,3.3-1.6c1.4-0.3,2.8-1.5,4-2.2c0.6,0.2,4-0.9,4.6-1.3c1.1-0.7,3.5-2.1,4.3-1.4c1-0.3,2.1-1.1,3-1.4
				c0.5-0.2,1.9-0.2,2.6-0.4c0.4,0,0.8,0.1,1.1,0.1c0.5-0.1,1.5-0.9,2-0.6c0.4-0.1,2-1.5,2.6-0.7c0.9-0.2,2.3-1.4,3.3-0.6
				c0.7,0.2,0.9,0.7,1.3,1.1c0,0.8,0,1.1-0.7,1.3c1.1,2,4.1,0.4,6.2,0.6c0.2-1.6,1.4-0.9,2.4-0.7c0.3,0.7,0.6,1,0.6,1.7
				c1.1,0,1.8-0.4,2.6-0.6c0-0.3,0.1-0.6,0.1-0.9c1,0,4.1,0.5,3.3,1c-0.1,0.3-0.1,0.3-0.3,0.6c-0.7,0-0.8,0-1.6,0v0.4h1.9
				c0.5-0.2,0.9-1,1.7-0.7c0.3,0.1,1,0.6,1.3,0.7h0.9c0.2,0.1,0.2,0.6,0.3,0.7c0.1,0.2,0.4,0.1,0.6,0.3c0.4,0.3,0.7,1.1,1.1,1.4
				c3.5,2.4,5.6,5.8,7.6,9.8c0,0.5,0.1,1,0.1,1.4c0.4,1.2,1.3,2.1,1.3,3.3c0,1.9,1.8,4.5,0.7,6.2c0.1,1,0.7,2.4-0.3,2.9
				c0.1,0.7,0.7,1.1,0.9,1.7c0.2,1-0.2,4.2-0.4,5.2c-0.3,1.2,0.6,1.8,0.4,2.6c-0.1,0.5-0.7,0.9-0.9,1.3c-0.4,0.8-0.3,1.8-0.7,2.7
				c-0.1,0.3-0.6,0.8-0.7,1.1c-0.1,0.5,0.1,0.9,0.3,1.1c0,0-3.1,1.8-3.2,1.9c-1.1,0.6-1.4-0.6-2.3-1c-0.9-0.4-1.7-0.1-2.4-0.4
				c-0.2-0.2-0.4-0.5-0.6-0.7c-1.1-0.8-3.9-2.8-5.9-2.4c-0.3,0-2.5-0.4-3.2-0.7c0-0.1-0.1-0.3-0.1-0.4c-0.6,0-1.1,0.1-1.7,0.1
				c-0.3-0.1-0.6-0.5-0.9-0.6c-2,0.4-4.8-0.2-7-0.7c-0.3,0-0.6,0.1-0.9,0.1l-0.9-0.9c-0.9,0.1-1.7,0.2-2.6,0.3
				c-0.8-0.1-1.9-0.4-2.6-0.6c-1.2-0.2-4.4,0.3-5.7,0.4c-0.6,0.1-1-0.5-1.4-0.6c-1.2-0.3-3.5,0-4.7,0.1c-0.2,0-3.9,0-3.9,0
				c-0.2-0.1-0.1-0.4-0.6-0.3c-1,0.1-2.1,0.4-3,0.6c-1.1,0.2-2.4-0.5-2.7-0.4c-0.8,0.1-1.9,0.4-2.9,0.6c-0.8,0.1-2.7-0.2-3.4,0
				c-0.2,0-0.7,0.5-0.9,0.6c0,0-2.4,0.2-2.7,0.3c-0.6,0.1-1.4-0.3-2.2-0.1c-0.5,0.1-1.9,0.8-2.6,0.7c-1-0.1-2.3-0.2-3.4,0.1
				c-0.4,0.1-0.9,0.5-1.3,0.6h-2c-1,0.3-2.6,0.6-3.6,1l-0.6,0.6h-1.3c-1,0.3-2.3,0.4-3.4,0.7c-0.1,0-0.5,0.4-0.6,0.4
				c-0.6,0.1-1.1,0.2-1.7,0.3c-0.3,0.1-0.6,0.6-1,0.7c-0.8,0.2-1.6,0.1-2.6,0.4c-1.5,0.6-3.1,1.7-4.5,2.4c-1.7,1-3.4,1.3-5,2.3
				c-0.4,0.3-0.9,0.9-1.3,1.1h-0.7c-0.8,0.4-1.6,1.1-2.3,1.6c-0.5,0.3-1.1,0.3-1.6,0.7c-1.2,1-2.4,1.8-3.7,2.7
				c-0.2,0.3-0.5,0.6-0.7,0.9c-0.8,0.5-1.7,0.7-2.4,1.3c-0.2,0.2-0.2,0.5-0.4,0.7c-0.6,0.6-1.2,0.7-2,1.1c-0.3,0.1-0.5,0.7-0.7,0.9
				c-0.5,0.3-1,0.1-1.3,0.3c-0.7,0.3-0.2,0.8-0.6,1.3c-0.7,0.9-2.3,1.3-2.9,1.9h-0.3C251.6,243.2,254.4,241,255.8,238.6z M265,354.8
				c-0.6-0.1-1.4-0.7-1.7-1.1c-0.6,0-0.8,0.1-1.1,0.4c0.1,0.2-0.2,0.3,0,0.7c0.2,0.5,0.7,0.7,0.9,1.1c0.4-0.1,0.8-0.2,1.1-0.3
				c0,0,0.1,0.1,0.1,0.1c-0.1,0.6-0.2,0.8-0.6,1.1c-0.2,0.2-0.2-0.2-0.4,0.3c-0.1-0.2-0.1-0.1-0.1-0.4c-0.7,0-1,0.2-1.4,0.6
				c-1.9,0-3.3-2.5-4.2-3.6c-0.2-0.3-0.6-0.2-0.9-0.4c-0.8-0.6-2.6-2.9-3-3.9c-0.4-0.9-0.6-1.7-0.9-2.6V346l-0.9-0.9
				c-0.3-0.6-0.3-2-0.4-2.3c-0.1,0-0.3-0.1-0.4-0.1c-0.1-0.2,0.1-1.1-0.3-1.6c-0.1-0.2-0.6-0.3-0.7-0.6c-0.7-1.2-0.8-2.8-1.4-4
				c-0.4-0.7-1.2-1.3-1.6-2c-0.4-0.6-0.4-1.4-0.9-1.9h-0.4c0-0.1,0.1-0.2,0.1-0.3c-0.1-0.9-0.9-1.6-0.9-2.4c0-0.2,0.2-0.6,0-1
				c-0.1-0.3-0.5-0.2-0.7-0.4c0.5-0.5-0.7-1.3-0.9-1.7c-0.1-0.4-0.2-0.9-0.3-1.3c-0.1-0.2-0.6-0.4-0.7-0.6c-0.3-0.6-0.1-1.3-0.4-1.9
				c-0.1,0-0.3-0.1-0.4-0.1c-0.2-0.3-0.4-0.8-0.4-1c-0.8-1.8-0.3-4.5-0.9-6.5c-0.9-3.2-0.9-8.1-1-11.2c0-0.5-0.3-1.1-0.4-1.4
				c-0.1-0.7,0.2-2.2,0.3-2.9c0.1-0.9-0.5-1.4-0.3-2.4c0.3-1.4-0.4-2.9-0.1-3.9c0.6-2.3,0.9-4.8,1.3-6.5c0.1-0.3-0.2-1.1-0.1-1.6
				c0.1-1.1,0.2-2.1,0.4-2.9c0.4-1.2,0.1-2.4,0.1-3.2c0.1-0.8,0.1-1.7,0-2.2c0,0-0.5,0.1-0.3-0.1c0.5-0.5,0.8-2.4,0.9-3.3h0.4
				c0.2-1.8,0.6-4.4,0.6-5.7c0.4-0.7,0.9-1.9,0.9-2.9c0.7-1,1.2-2.5,1.7-3.7v-0.9c0.1-0.2,0.6-0.5,0.7-0.7c0.4-0.6,0.2-1.3,0.6-2
				c0.6-1.2,2-2.9,2.2-4.6c1.4-0.4,2.4-2.2,3.6-3c0.5-0.4,1.5-0.3,2-0.7c1.4-0.2,1.1-2.2,2.4-2.7c0.6-0.3,1.9,0.4,2.2,0.9
				c0.7-0.1,0.7-0.2,1-0.6c0.1-0.2,0.1-0.9,0.1-1.3c-0.2-0.2-0.3-0.3-0.6-0.4c0.1-1.5,2.9-3,3.9-3.7c1.5-1.1,2.9-2.4,4.5-3.3
				c0.8-0.5,1.8-0.7,2.4-1.3c0.3-0.2,0.7-0.9,1-1.1c0.3,0,0.6-0.1,0.9-0.1c0.5-0.3,1.4-0.6,1.9-1c0.1-0.1,0.3-0.5,0.4-0.6
				c1.2-0.6,2.3-0.6,3.3-1.3c0.7-0.5,1.5-1.2,2.3-1.6c0.4-0.2,0.8-0.1,1.1-0.3l0.7-0.7c0.5,0,1.1-0.1,1.6-0.1
				c0.3-0.1,0.9-0.6,1.3-0.7c1.2-0.4,2-0.3,3.2-0.7c0.3-0.1,0.6-0.6,0.9-0.7c0.9-0.4,2.3,0.2,3-0.1c0.2-0.1,0.4-0.6,0.6-0.7l0.1,0.1
				c0.5-0.1,1.1-0.5,1.7-0.7c0.4,0,0.8,0.1,1.1,0.1c1.5-0.4,3.4-0.5,5-0.9h1.1c2.3-0.8,6.1-1.4,8.5-1.7c0.6-0.1,1.2,0.3,1.9,0.1
				c0.3-0.1,0.8-0.5,1-0.6c0.8-0.2,1.9,0.5,2.9,0.3c1.8-0.3,4.7,0.2,6.8,0c3.4-0.3,6.6-0.6,10.6-0.1c0.5,0.1,2-0.2,2.2-0.3h0.3v0.3
				c1.1,0,2.3-0.1,3.4-0.1c0.5,0.1,1.3,0.6,1.7,0.7c0.9,0.3,1.7-0.6,3.2-0.1c0.2,0.1,0.6,0.5,0.9,0.6c1.1,0.4,1.9,0,2.9,0.4l0.4,0.4
				c0.6,0.1,1.3-0.3,2-0.1c0.1,0,0.3,0.3,0.4,0.3c0.4-0.2,1-0.5,1.3-0.4c1,0.1,2.2,0.7,2.9,1h1c0.6,0.2,1.3,0.6,1.9,0.7h1.4
				c0.6,0.2,1.6,0.8,2.3,1c0.4,0,0.9,0.1,1.3,0.1c0.4,0.2,0.9,0.7,1.3,0.9c0.6,0.1,1.2,0.3,1.9,0.4c0.3,0.2,0.3,0.9,0.6,1.1
				c0.4,0.3,1.1,0.2,1.3,0.3h0.3c-0.1,1.5-0.9,1.2-1.3,2.2c0,0.5-0.1,1-0.1,1.4c-0.2,0.8-0.7,1.4-1,2c-0.3,0.7,0,1.5-0.6,2.2
				c-0.6,0.9-1.5,0.5-2.3,1.1c-1.2,1-2.6,2.3-4.2,2.9c-0.8,0.3-1.4,0.2-2,0.6c-0.2,0.1-0.4,0.6-0.6,0.7h-0.7
				c-0.3,0.2-0.6,0.6-0.9,0.9c-0.8,0.6-1.7,0.8-2.6,1.3c-0.2,0.2-0.5,0.5-0.7,0.7c-0.5,0.3-0.7,0-1.1,0.3c-1.1,0.7-2.3,1.4-3.4,2.2
				c-0.7,0.5-1.4,1.3-2.2,1.7H343c-0.6,0.3-1,0.9-1.4,1.3c-0.6,0.4-1.3,0.5-1.9,0.9c-0.4,0.4-0.8,0.8-1.1,1.1
				c-0.7,0.4-1.4,0.4-2,0.9c-0.1,0.1-0.1,0.5-0.3,0.6c-1.3,0.9-2.7,1.7-4,2.6c-0.5,0.4-0.9,0.9-1.6,1.1v0.4h-0.6
				c-0.6,0.6-1.3,0.8-2,1.3c-0.4,0.4-0.9,0.9-1.3,1.3c-2.4,1.7-5.4,3.1-7.2,5.3c0,0-0.4-0.2-0.6,0c-0.2,0.4-0.5,0.9-0.7,1.3
				c-1.3,1.1-3,2-4,3.4c-0.4,0.6-0.6,1.3-1.1,1.7c-0.3,0.1-0.7,0.2-1,0.3c-0.2,0.2-1.6,2.6-1.6,2.6c-0.5,0.3-1.1,0.4-1.4,0.9v0.4
				c-0.5,0.7-1.4,1.2-1.9,1.9c-0.3,0.4-0.3,0.9-0.6,1.3c-0.3,0.2-0.7,0.4-1,0.6c-0.3,0.4-0.4,1-0.7,1.4c-0.2,0.2-1.2,1.1-1.4,1.3
				h-0.4c-0.5,0.4-0.9,1.8-1.3,2.4c-0.2,0.3-0.7,0.6-1,0.9c-0.4,0.5-0.4,1-0.7,1.6l-1.4,1.4c-0.3,0.5-0.3,1-0.6,1.4
				c-0.4,0.6-1.2,1-1.7,1.6c-0.5,0.6-0.6,1.3-1,2c-0.3,0.2-0.7,0.5-1,0.7c-0.3,0.4-0.2,1.1-0.6,1.4c-0.5,0.5-1.2,1-1.6,1.6
				c-0.2,0.4-0.2,0.7-0.4,1c-0.2,0.3-0.7,0.4-0.9,0.7c-0.6,0.8-0.7,1.8-1.3,2.6c-0.8,1.2-2.7,3.4-2.9,4.6c-0.2,0.3-0.7,0.5-0.9,0.7
				c-0.4,0.5-0.4,1.1-0.7,1.6c-0.2,0.1-0.5,0.3-0.7,0.4c-0.7,1-1,2-1.7,3c-0.3,0.5-1,0.8-1.3,1.3c0,0.6-0.1,1.1-0.1,1.7
				c-0.4,1.1-1.9,2.7-2.4,3.9c-0.3,0.7-0.3,1.2-0.6,1.9c-0.3,0.6-0.9,1.2-1.1,1.7c-0.3,0.5-0.1,1.3-0.4,1.7
				c-0.1,0.2-0.6,0.3-0.7,0.6c-0.3,0.5-0.2,1.2-0.6,1.7c-0.1,0.2-0.6,0.3-0.7,0.4c-0.3,0.5,0,0.9-0.1,1.3c-0.3,0.7-0.8,1.5-1.1,2.3
				c-0.3,0.7-1.1,1.4-1.4,2v0.9c-0.8,1.7-2,3.8-2.7,5.6c-0.3,0.6-0.1,2-0.1,2.2c-0.3,1.1-1.4,2.4-1.6,3.3c-1.7,0.1-1.8-0.8-3.3,0.1
				c0,0.4-0.1,0.6-0.1,0.9c1,1,0.9,1.1,2.4,1.6C266.4,351,265.4,354.2,265,354.8z M377.5,389.5c-0.4,0.4,0,0.5-0.4,0.9
				c0,0.4-0.1,1,0.4,1.3c-0.3,1.2-3.5,0.9-4.7,1.1c-0.5,0.1-2.1-0.3-2.6-0.1c-1.1,0.3-2.5,1-3.7,1.3c-1.9,0.4-3.6-0.2-5.9,0.3
				c-0.1,0-0.4-0.3-1-0.1c-0.8,0.2-2.2,0.5-3,0.7c-0.5,0.1-1.1-0.1-1.6-0.1c-1.4,0.1-2.9,0.3-4.3,0.4c-1.7,0.4-3.5-0.9-4.5-0.6
				c0,0.1-0.1,0.3-0.1,0.4c-0.4,0.1-1-0.4-1.7-0.3c-0.2,0-4.4,0.9-5,0.7c-0.9-0.3-1.4-0.9-2.9-0.6c-2.4,0.5-6.1,0-8.3-0.6
				c-1.2-0.3-2.1,0.3-2.9,0.1c-2.2-0.4-4.5-0.5-6.3-0.9c-1.2-0.2-3.7-0.3-4.6-0.7c-1-0.6-1.9-0.9-2.7-1.4c-0.1,0-1.4-0.1-1.4-0.1
				c-0.8-0.4-1.9-1.2-2.7-1.6h-0.7c-0.9-0.5-1.9-0.9-2.7-1.1c-0.6,0-1.2-0.1-1.9-0.1c-0.2-0.1-0.5-0.5-0.7-0.6
				c-0.2,0-0.4,0.1-0.6,0.1c-0.4-0.2-0.8-0.9-1.1-1.1c-0.6-0.5-1.4-0.8-1.7-1c-1.5-0.9-3.2-1.3-4-2.9c0-0.2-0.1-0.1,0.1-0.3
				c0-1.5-0.6-1.1-1.6-1.6c-0.5-0.2-1.1-0.9-1.6-1.3c-0.8,0.1-1.1,0.5-1.6,0.6c-1.4,0.1-2.2-1.2-3-1.7c-0.5-0.1-1-0.3-1.4-0.4
				c-1.1-0.6-2-1.9-3-2.6v-0.4c-0.4-0.1-0.9-0.9-1-1.6c-1.2-0.2-2.9-0.2-3.9-1c-0.5-0.4-0.7-1.1-1.1-1.4c-0.5-0.4-0.8-0.3-1.1-0.9
				h-0.4v-0.4c-2.7-1.2-4.2-2.7-6.3-4.5c-0.8-0.7-1-1.9-1.7-2.3c0-0.8,0.1-1.6,0.6-2.3c0-0.1,0.1-0.2,0.1-0.3c0.9,0.1,1.5,0.5,2,0
				c0.1-0.1,0.2-1,0.3-1.1c-0.3-0.6-1.4-1.5-1.9-2c0-1.4,1-1.8,1.3-2.7c0-0.4-0.1-0.9-0.1-1.3c0.1-0.6,0.8-1.2,1-1.7
				c0.1-0.1,0-0.8,0.1-1.3c0.5-1.4,0.9-2.2,1.3-3.3v-1c0.1-0.3,0.6-0.5,0.7-0.9c0.4-1.2,0.2-2.3,0.7-3.4c0.3-0.6,0.8-1.5,1.1-2.2
				c0-0.1-0.1-0.3-0.1-0.4c0,0,0.7-0.6,0.7-0.6c0.7-1.2,0.7-2.5,1.3-3.6c0.2-0.4,0.8-0.8,1-1.1c0.3-0.7,0.1-1.3,0.4-1.9
				c0.4-0.4,0.8-0.8,1.1-1.1c0.7-1.4,0.9-2.8,1.6-4.3c1-2.1,2.5-4.3,3.4-6.3c0.3-0.6,0.1-1.2,0.4-1.7c0.5-0.8,1.3-1.6,1.7-2.4
				c0.3-0.6,0.3-1.2,0.7-1.7c0.2-0.3,0.7-0.5,0.9-0.7v-0.4c0.7-1.1,1.3-2.4,2-3.6c0.5-0.8,1.4-1.5,1.9-2.3c0.4-0.6,0.2-1.1,0.6-1.7
				c0.4-0.8,1.4-1.4,1.9-2.2c0-0.2,0.1-0.5,0.1-0.7c0.1-0.1,0.5-0.1,0.6-0.3c0.3-0.4,0.4-0.9,0.7-1.3c0.2-0.1,0.4-0.2,0.6-0.3
				c0.3-0.4,0.1-0.9,0.4-1.3c0.2-0.3,0.8-0.5,1-0.9c0.8-1.1,1.2-2.4,2-3.4c0.1,0,0.3-0.1,0.4-0.1c0.4-0.5,0.5-1.1,0.9-1.6h0.3
				c0.4-0.5,0.3-1.2,0.7-1.7c0.2-0.3,1-0.6,1-0.6c0.6-0.7,0.7-1.7,1.3-2.4c0.1-0.2,0.6-0.3,0.7-0.4c0.3-0.4,0.7-1.1,0.9-1.4
				c0-0.2,0.1-0.5,0.1-0.7c0.5-0.3,1-0.6,1.4-0.9c0.2-0.3,0.3-0.9,0.3-0.9h0.4c0.2-0.2,0.1-0.5,0.3-0.7c0.3-0.3,0.9-0.5,1.1-0.9
				c0.4-0.5,0.6-1.1,1-1.6c0.3-0.4,1.2-0.9,1.4-1.1c4.3-5.2,8.8-10,14.5-13.8c1.6-1.1,4.4-3.8,6.5-4.2v-0.4c1.9-0.9,4.7-3.3,6.2-4.7
				c0,0,2.3-0.8,2.7-1.1c1.3-1,2.7-2.2,4-3.2c0.6-0.2,1.1-0.4,1.7-0.6c0.9-0.5,1.8-1.4,2.7-2c0.6-0.4,1.6-0.4,2.2-0.9
				c0.1-0.1,0.1-0.5,0.3-0.6c0.5-0.3,1.1-0.2,1.6-0.4c0.3-0.2,0.5-0.6,0.9-0.7h0.9c0.3-0.1,0.3-0.7,0.6-0.9c0.7-0.5,1.4-0.3,2.2-0.7
				c0.3-0.2,0.6-0.8,1-1c1.2-0.5,3.3-1.3,4.3-2.3c0.4,0,0.5,0,0.7,0.1c0.1,0.1,1.5,2.7,1.6,2.9c0.3,0.8,0,1.2,0.3,1.9
				c1.2,2.4,3.3,3.9,6.2,4.7c0.5,0.1,1-0.2,1.3-0.1c0.7,0.1,0.9,0.5,1.9,0.6c0.1,0.3,0.2,0.4,0.3,0.7c0.2,0.3-0.6,1.7-0.9,2
				c-0.8,1-1,2.1-1.7,3.3c-0.3,0.5-1,1-1.3,1.4c-0.4,0.7-0.3,1.9-0.7,2.6l-1,1c0,0.5,0.1,1,0.1,1.4c-0.1,0.4-0.5,1.1-0.6,1.6
				c0,0.2,0.1,0.4,0.1,0.6c-0.1,0.1-0.3,0.2-0.4,0.3c-0.3,0.7-0.7,1.7-0.9,2.3c-0.7,2.2-0.6,4.5-1.1,6.3c-0.1,0.5-0.7,1.3-0.9,1.7
				c0,1.1-0.1,2.1-0.1,3.2c-0.4,1.5-1.9,5.4-1.3,7.2c-0.3,1-1.4,3.3-1.1,5c0.3,1.8-0.6,4.2-1.1,5.9c0.2,0.8-0.5,2.4-0.1,3.6
				c0.4,1.3,0.4,4.6,0.3,7.2c0,0.8-0.7,2.1-0.4,3c0.1,0,0.2,0.1,0.3,0.1c0.2,0.6,0.2,3.5,0.1,4c-0.1,0.8-0.5,2.7-0.3,3.3
				c0.3,1.1,0.3,3.1,0.6,4.5c0.1,0.3-0.2,0.5-0.1,0.6l0.4,0.4c0,0.1,0.1,2.7,0.1,2.7c0,0.1-0.3,0.5-0.1,0.9c0.7,1.9,0.7,4.5,1,6.2
				c0,1.3,0.1,2.6,0.1,3.9c0.2,0.6,0.9,1.5,1,2.2c0.1,0.4-0.2,0.7-0.1,1.1c0.3,1.4,0.5,2.3,1,3.6l0.1,3.6c2.1,6.4,3.2,13,5.6,18.8
				c0.5,1.2,0.4,2.5,0.9,3.6c0.8,1.9,1.8,4,2.6,5.9c0.4,0.9,0.2,1.8,0.7,2.4c0.1,0.1,0.5,0.1,0.6,0.3c0.2,0.3,0,0.8,0,0.9
				c0.2,0.2,0.9,0.7,1,0.9c0,0.2,0.1,0.5,0.1,0.7c0.7,1.3,1.2,3.8,2,4.6C379.4,389.3,378.1,388.8,377.5,389.5z M380.8,391.4h-0.6
				c0.1-0.5,0.2-0.4,0.3-0.9c0.3,0.1,0.3,0.1,0.6,0.3C381,391.2,380.9,391.2,380.8,391.4z M463.2,288.6c-0.2,1.6-0.7,3.4-0.9,4.7
				c-0.3,2.8,0.8,2.9-0.6,5.3c-0.6-0.2-0.6-0.7-1-1V297c-1.2,0-1.5,0.2-2.2,0.6c0,0.5,0.1,0.9,0,1.1c0.2,0.5,0.6,0.6,0.9,1
				c0.9,0.1,1.2-0.1,2-0.3c0.2,0.7,0.6,2.2,0.4,3c-0.1,0.2-0.5,1.2-0.4,1.3c0.1,0.8-0.6,1.8-0.4,3c0.1,0.8-0.8,2.5-1,3.4v1.1
				c0,0.1-0.4,0.5-0.4,0.6v1.4l-0.4,0.4c0,0.5-0.1,1.1-0.1,1.6c-0.3,0.7-1.1,1.3-1.4,2c-0.3,0.6-0.2,1.2-0.6,1.9
				c-0.6,1.2-1.5,2.8-2.2,4c0.2,0.5,0,1.2-0.3,1.7c-0.6,1.4-1.8,2.6-2.4,3.9v0.9c-0.3,0.6-1.2,1.1-1.6,1.7c-0.2,0.4-0.1,0.8-0.3,1.1
				c-0.2,0.1-0.4,0.3-0.6,0.4c-0.2,0.4,0.1,1-0.1,1.3c-0.4,0.2-0.9,0.5-1.3,0.7c0,0-0.1,1.1-0.3,1.4l-0.7,0.7
				c-0.5,0.8-0.5,1.8-1.1,2.4c-0.4,0.5-1.1,0.9-1.4,1.4c-0.2,0.6-0.4,1.2-0.6,1.9c-0.5,0.9-1.5,1.8-2.2,2.6c-0.5,0.6-0.5,1.4-1,2
				c-0.2,0.3-0.6,0.4-0.9,0.6c-0.7,0.6-1.4,1.7-1.9,2.4h-0.4c-0.2,0.7-0.7,1.1-1,1.6c-0.4,0.6-0.2,1.3-0.6,1.9
				c-0.2,0.1-0.5,0.3-0.7,0.4c-0.5,0.7-0.7,1.5-1.3,2.2c-0.8,1-1.7,1.8-2.4,2.9c-0.6,0.8-1.6,1.1-2,2.2h-0.4c-0.2,0.8-3.1,4.5-3.9,5
				v0.4c-0.8,0.2-3.7,3.6-4.5,4.3c-0.4,0.4-1.1,0.7-1.6,0.6c-0.3,0.2-0.3,0.7-0.6,1c-0.7,0.7-1.5,1-2.3,1.6
				c-0.7,0.5-1.1,1.4-1.7,1.9c-0.5,0.4-1.1,0.6-1.6,1c-0.2,0.2-0.3,0.6-0.6,0.9c0,0-1.1,0.3-1.3,0.4c-0.7,0.5-1.4,1.5-2.2,2
				c-0.6,0.4-1.3,0.7-1.7,0.7c-0.5,0.5-1,0.8-1.6,1.3c-0.1,0.2-0.3,0.5-0.4,0.7c-0.3,0.3-0.5,0.2-0.7,0.6c-1.1,0.1-1.7,0.4-2.3-0.4
				c-1.1,0-1.2,0.3-2,0.4c0,0.6-0.2,1.3,0.3,1.9c0,0.7-0.1,0.9-0.4,1.3c-0.2-0.2-0.7,0.4-1,0.6c-0.4,0.2-0.8,0.1-1.1,0.3
				c-0.9,0.5-1.5,1.3-2.6,1.7c-0.3,0.3-1.8-1-2.3-1.2c-0.3,0-0.7,0.1-1,0.1c-0.2,0.2-0.4,0.3-0.6,0.4c0,1.2,0.4,1.5,0.6,2.3
				c-0.4,0.4-3.9,2.3-4.3,2.2h-0.9c0.1-0.4,0.1-0.3,0-0.6c0.2-0.4,0.5-0.5,0.9-0.7c0.1-0.1,1.8-0.2,2.3-0.3c0-0.6,0-0.7-0.3-1
				c-0.3-0.5-1.3-0.4-1.7-0.9c-0.9-0.9-1.3-2.7-2.4-3.3c-0.3-0.2-0.8,0.2-0.9,0.1c-0.7-0.3-1.9-0.8-2.4-1.3
				c-0.3-0.3-0.2-0.7-0.4-1.1c-0.3-0.7-1-1.4-1.3-2c-0.3-0.6-0.2-1-0.4-1.6c-0.4-0.9-1.2-1.6-1.4-2.9h-0.4c-0.1-0.6-1.4-3.4-1.7-3.9
				v-0.7c0.1,0,0.3-0.1,0.4-0.1l0.6,0.6c0.4,0,0.7,0,0.9-0.1c0.6-0.1,0.9-0.6,1-1.1c0.2-0.1,0-0.4-0.1-0.6c-0.2-0.5-0.4-0.4-0.7-0.7
				c-0.6,0-1.1,0.1-1.4,0.4h-1.1c0-0.1,0.1-0.3,0.1-0.4c-0.2-0.1-0.4-0.2-0.6-0.3c-0.2-0.2,0.2-0.2,0-0.6l-0.6-0.6
				c-0.2-0.5,0-0.7,0-1c-0.3-0.5-0.8-1.1-1-1.7c0-0.4-0.1-0.8-0.1-1.1c-1.2-2.5-2-5.8-3-8.5v-1.4c-0.1-0.2-0.5-0.6-0.6-0.9
				c0-0.2,0.2-0.2,0.1-0.6c-0.2-0.6-0.6-1.5-0.7-2c-0.1-0.2,0.1-0.7,0-1.1c-0.2-0.6-0.7-1.5-0.9-2.2c0-0.7-0.1-1.4-0.1-2.2
				c-0.3-1-0.5-1.8-0.7-2.9c-0.2-0.9,0.3-1.2,0-2.2c-0.2-0.6-0.8-1.5-1-2c-0.3-1,0.1-3.2-0.3-4.6c-0.4-1.5-0.5-2.8-0.9-4.3
				c-0.2-0.8,0.2-2.3,0.1-2.9c-0.1-0.6-0.5-2-0.6-2.9c-0.1-0.7,0.3-1.5,0.4-2c-0.7-1.1,0.1-2.2-0.4-3.4c-1-2.6-0.4-7.7-0.6-11.6
				c0-0.8,0.3-1.7,0.4-2.6c0-0.4-0.5-0.7-0.6-1.1c-0.1-0.6,0.4-1.4,0.3-2c-0.1-0.6-0.6-1.6-0.4-2.3c1.3-5.5,1.8-11.9,3.4-17.7
				c0-0.8,0.1-1.5,0.1-2.3c0.3-1.1,0.7-2.8,1-3.9c0-0.3-0.1-0.7-0.1-1c0.2-1,0.9-2.2,1.1-3c0.5-1.3,0.3-2.3,0.7-3.6
				c0.8-2.7,2-6.8,3.4-8.9c0.1,0,0.3-0.1,0.4-0.1c0.3-0.4,0.2-1.3,0.4-1.9c0.2-0.6,1-1,1.1-1.6c0.1-0.4-0.2-0.6,0.1-1
				c0.3-0.5,1.1-0.6,1.4-1c0.2-0.3,0.2-0.7,0.4-1c0.7-0.7,1.3-0.1,2.2-0.6c0.4-0.2,0.7-1,1-1.1c0.4-0.2,0.8-0.1,1.1-0.3
				c1.3-0.7,2.2-2.4,3.7-2.9c0.2-0.1,0.4-0.1,0.7,0.1c0.7,0.6,0.9,1.7,1.4,2.4c0.3,0.4,0.9,0.7,1.1,1.1c0,0.3,0.1,0.6,0.1,0.9
				c0.8,1.2,2.3,2,3.3,3c0.4,0.4,0.5,1.1,0.9,1.6c0.6,0.8,1.8,1.2,2.6,1.9c0.4,0.3,0.6,1,1,1.3c0.6,0.4,1.4,0.5,2,1
				c0.5,0.4,0.8,1.1,1.3,1.4c0.4,0.1,0.8,0.3,1.1,0.4c0.3,0.2,0.6,0.7,0.9,0.9c0.5,0.3,1.1,0.2,1.6,0.6c1.5,1.1,2.5,3,4,4
				c0.5,0.3,1,0.3,1.4,0.6c0.8,0.6,1.7,1.4,2.6,1.9c1.4,0.7,2.7,0.7,4,1.4c1.2,0.6,2.4,1.8,3.6,2.4c0.9,0.2,1.7,0.5,2.6,0.7
				c0.5,0.2,0.9,0.9,1.4,1.1c0.8,0.3,1.4,0.1,2.2,0.4l0.6,0.6h0.9c0.6,0.2,1.4,0.7,1.9,0.9c0.7,0.2,1.8,0.3,2.4,0.4
				c0.4,0.1,1-0.2,1.2-0.1l0.6,0.6c0.5,0.2,0.9,0,1.3,0.3c0.1,0.1,0.1,0.3,0.1,0.4c0.5-0.4,5.3,1.2,6.8,1c0.2,0,2.3-0.1,3,0.1
				c0.8,0.3,2.2,1.1,3.4,0.9c1.3-0.3,3.6-0.5,4.7-0.4c0.4,0,1.4,0.2,1.9,0.1c0.9-0.1,2.6-1.1,3.9-0.7c0.8,0.2,1.6,0.6,2.9,0.6
				c0.4,0.9,0.6,1.5,1.4,2c0,1.3-0.2,1.3-0.4,2.2C462.8,287.3,463.3,287.9,463.2,288.6z M463.8,273.8c-0.2,0.2-0.3,0.5-0.6,0.7
				c-0.2,0.1-0.2,0-0.4,0.1h-0.3c-0.2-0.6-0.4-1-0.4-1.7h-0.9c-0.7,0.7-1.9,1.7-0.4,2.7c0.3,0,0.7,0.1,1,0.1
				c0.1,0.1,0.1,0.3,0.1,0.4c0.4,0.5,1,0.6,1.7,0.9c-0.1,0.9-0.5,1.4-0.9,2c-0.5-0.2-0.6-0.7-1-0.9c-0.7,0-1.3,0.1-2,0.1
				c-0.4-0.1-0.9-0.3-1.4-0.3c-0.2-0.4-0.1-0.4-0.6-0.6c0.1-0.4,0.5-0.6,0.3-0.7c-0.1-0.6,0-0.6-0.6-0.7c-0.2-0.1-0.1-0.2-0.3,0
				c-1.3,0-2,0.8-2.2,1.9c-0.1,0.3-0.1,0.3,0.1,0.6c-0.1,0.2,0,0.1-0.1,0.3c-0.5,0.3-1-0.2-1.9,0.1l-0.4,0.4c-0.7-0.1-1.3-0.2-2-0.3
				c-0.7,0.1-3.9,0.5-4.9,0.3c-0.8-0.2-1.8-0.6-2.7-0.9c-1-0.3-2.1,0.2-2.9,0c-0.8-0.2-2-0.9-3-0.9c-0.8,0.1-1.6-0.6-2.3-0.9
				c-1.1-0.4-3.4,0-4.7-0.6c-0.5-0.2-1.6-0.6-2.2-0.9c-0.1-0.1-0.2-0.3-0.3-0.4c-0.7-0.3-1.2-0.1-1.9-0.4c-0.3-0.1-0.5-0.6-0.9-0.7
				c-0.5,0.6-1.2-0.6-1.6-0.7c-0.3,0-0.6-0.1-0.9-0.1c-1.5-0.7-2.9-2-4.3-2.7c-1-0.5-2.2-0.6-3.3-1.3c-1.2-0.8-2.5-1.2-3.7-2
				c-0.6-0.4-1.6-1.2-2-1.7v-0.4c-0.5-0.6-1.6-0.9-2.3-1.3c-0.3-0.4-0.7-0.8-1-1.1c-0.6-0.4-1.4-0.4-2-0.9c0-0.1-0.1-0.3-0.1-0.4
				c-0.4-0.3-1-0.7-1.3-0.9c-0.3,0-0.6-0.1-0.9-0.1c-0.4-0.2-0.5-0.9-0.9-1.1c-0.5-0.4-1-1-1.4-1.3l-1.1-0.3
				c-0.2-0.2-0.1-0.5-0.3-0.7c-0.5-0.6-1.3-0.9-1.9-1.4c-0.2-0.2-0.2-0.6-0.4-0.9c-0.2-0.2-0.5-0.2-0.7-0.4
				c-0.4-0.5-0.7-1.1-1.1-1.6c-0.2-0.2-0.7-0.2-0.9-0.4c-0.6-0.8-1.1-2.5-1.7-3.4c-0.6-0.9-1.4-1.3-1.7-2.6
				c-0.3-0.5,0.6-2.1,0.9-2.7c-0.5-2,0.2-3.2-0.1-5c1.2-0.5,2.6-0.8,3.9-1c0.6,0,1.2,0.1,1.9,0.1c0.2-0.1,0.7-0.5,0.9-0.6
				c1-0.3,1.4,0.1,2.3-0.3c0.2-0.1,0.6-0.5,0.7-0.6c0.4,0,0.9-0.1,1.3-0.1c1.3-0.5,2.4-1.6,3.4-2.4c0.4-0.1,0.9-0.2,1.3-0.3l0.9-0.9
				c0.5-0.3,1,0,1.4-0.3c0.1-0.2,0.3-0.4,0.4-0.6c0.7-0.4,1.5-0.4,2.2-0.9c0.4-0.2,0.8-0.8,1.1-1c0.7-0.4,1.5-0.3,2.2-0.7
				c0.2-0.2,0.4-0.5,0.6-0.7c0.6-0.3,1.2-0.1,1.7-0.4c0-0.1,0.1-0.3,0.1-0.4l1.1-0.9c0.6-0.4,1.1,0,1.7-0.6c1.7-1.6,2.7-3.8,4.3-5.6
				c0.6-0.7,1.5-1.1,2-1.9c0.3-0.5,0.2-1.1,0.7-1.4c0.8-0.6,2.1-1.4,2.6-2.3c0.4-0.6,0.3-1.6,0.7-2.2c0.3-0.4,1-0.4,1.3-0.9
				c0.1-0.6,0.3-1.1,0.4-1.7c0.1-0.1,0.3-0.1,0.4-0.3c0.6,0.1,0.6,0.3,0.9,0.7c0.8-0.2,1.1-0.3,1.7-0.6v-0.9
				c1.7,0.1,1.9,1.2,2.9,1.9h0.4c0.5,0.3,0.5,0.9,0.9,1.4c0.4,0.3,0.8,0.7,1.1,1c0.2,0.3,0.2,0.7,0.4,1c0.1,0.1,0.5,0.3,0.6,0.4
				c0,0.2,0.1,0.5,0.1,0.7c0.3,0.2,0.7,0.5,1,0.7c0.5,0.7,0.6,1.6,1.1,2.3c0.2,0.3,0.8,0.4,1,0.7c0.6,0.9,0.8,2.1,1.4,2.9
				c0.7,0.9,1.8,1.7,2.4,2.7c0.3,0.4,1,2.3,1.3,2.6c0.4,0.4,1.3,0.3,1.6,0.7c0.2,0.4,0.1,0.9,0.3,1.3c0.8,1.5,1.8,3.1,2.4,4.7v1.3
				c0.2,0.3,0.9,0.5,1.1,0.9c0.1,0.3,0.1,0.6,0.1,0.9c0.5,1.1,1.1,2.4,1.6,3.6c0.4,1-0.2,2.7,0.3,3.6c0.1,0,0.3,0.1,0.4,0.1
				c0.2,0.2,0.6,0.9,0.7,1.1c0.2,0.6,0,1.2,0.1,1.6c0.1,0.5,0.7,0.7,0.9,1v1c0.1,0.3,0.6,0.8,0.7,1.1c0.2,0.5-0.2,0.6,0,1.1
				c0.7,1.8,2.1,3.5,2,5.7c-0.3,0.1-0.6-0.1-0.9,0c-0.4,0.1-0.6,0.9-1,1.1c0,2.2,1.4,2.2,2.6,3.2c0.4,0.4,0.9,3.6,0.4,4.2
				c-0.2,0.3-0.8,0.6-1.1,0.7c0,0.3,0,0.4,0.1,0.6c0,1.4,0.9,1.5,1.7,2c0.2,0.8-0.1,1.2,0,1.9C463.6,271.7,463.9,272.4,463.8,273.8z
				 M339.7,185.1c0.3-0.5,0.6-1.7,1-2.2c-0.1-0.3,0-0.3-0.1-0.4c-0.4-0.4-1.2-0.6-2-0.6c-0.2,0.2-0.5,0.3-0.7,0.4
				c0,0.8,0.2,1.1,0.3,2C338.7,184.6,339.2,184.9,339.7,185.1z M374,187c0.1-0.1,0.3-1.3,0.1-1.6c-0.2-0.5-1.3-0.9-1.9-1
				c-0.3,0.3-0.8,0.4-1.1,0.6c0.1,0.9,0,1.6,0.3,2.3C372.2,187.6,373.4,187.5,374,187z M356.5,187.4c0.1,0.2,0,0.7,0.1,0.9
				c0.8,0.4,2-0.8,2.6-1.1c-0.1-0.9-0.9-1.1-1.3-1.7h-1.1c-0.1,0.1-0.3,0.2-0.4,0.3c-0.5,0.2-0.5,0.4-0.9,0.7
				C355.7,187,356.2,187,356.5,187.4z M394.3,188.3c-0.1-0.5,0-0.2,0-0.7c-0.8-0.5-1.3-1.2-2.2-1.6c-0.3,0.4-0.6,1-1,1.3
				c0.1,0.9,0.5,1,0.9,1.6C393.2,188.9,393.6,188.7,394.3,188.3z M384.9,190.3c0.3-0.2,0.6-0.5,0.9-0.7c-0.1-0.8-0.3-1.3-0.6-2
				c-0.5-0.2-1-0.6-2-0.6c-0.3,0.3-0.7,0.7-1,1c0.1,0.7,0.6,1.4,1,1.9C383.6,190.2,384.2,190.3,384.9,190.3z M341.3,190.9
				c0.5,0.1,1.7,0.1,2.2-0.3c0.3-0.3,0.6-1,0.3-1.4c0-0.6-0.1-0.7-0.6-0.9c-0.4-0.3-0.9-0.3-1.6-0.3c-0.3,0.4-0.7,0.5-0.9,1
				C340.4,189.5,341.1,190.5,341.3,190.9z M379.5,191.4c0-0.7,0.6-1.4,0-2.2c-0.4-0.9-1.3-0.4-1.9,0c0,0.9,0,1.3,0.4,1.7
				C378.4,191.3,379,191.4,379.5,191.4z M363,191.2c-0.5-0.9-1.8-1.5-3.2-1.4c-0.2,0.2-0.1,0.2-0.4,0.3c0.1,0.6,0.3,1.5,0.6,2
				C361.6,192,361.7,191.2,363,191.2z M365.7,193.5c0.3-0.3,0.3-0.8,0.3-1.4c-0.1-0.1-0.2-0.2-0.3-0.4c-0.5-0.2-1.1-0.4-1.7-0.4
				c-0.2,0.1-0.1,0.1-0.4,0.1l-0.1,0.1c0.3,1.2,0.8,1.5,1.4,2.3C365.2,193.7,365.5,193.6,365.7,193.5z M323.5,195.6
				c0.6,0,0.6-0.1,1-0.3c0-0.3,0.1-1.4-0.1-1.9c-0.2-0.6-0.9-0.9-1.6-1c-1,1.4-1.3,1.2-0.4,3.2C322.9,195.6,323.2,195.8,323.5,195.6
				z M351.2,196c0.4-0.2,0.7-1,0.9-1.4c-0.4-0.4-0.9-0.8-1.3-1.1c-1.5,0-1.3,0.4-2,1c0.2,1,0.8,1,1,2
				C350.5,196.5,350.8,196.4,351.2,196z M390.3,197.5c0-1.2-1.4-1.8-2.6-1.9c-0.2,0.3-0.3,0.4-0.7,0.6c0,1.8,0.7,2.1,1.4,3.2
				C389.5,199.1,389.6,198.1,390.3,197.5z M399.5,200.5c0.2,0.2,0.6,0.1,1.1,0c0.1-0.4,0.2-0.8,0-1.1v-1c-0.7-0.2-1.3-0.2-1.9-0.3
				c-0.2,0.2-0.4,0.3-0.6,0.4c-0.1,0.2,0,0.1-0.1,0.3C398,199.9,398.7,200.1,399.5,200.5z M382.5,202.6c0.7,0,1-0.1,1.4-0.3
				c0-0.6,0.2-1,0-1.4c-0.2-0.5-0.6-0.4-0.9-0.9h-0.9c-0.2,0.2-0.5,0.5-0.7,0.7c0,1.1,0.3,1,0.6,1.7
				C382.4,202.6,382.4,202.5,382.5,202.6z M363.8,201.4c0.2,0.8,0.6,1.2,1,1.7c0.2,0.1,0.1,0,0.3,0.1c0.9,0,1.5-0.2,1.9-0.7
				c0.1-0.1,0.1,0,0.1-0.3c-0.4-0.3-0.7-0.8-1-1.3c-0.6-0.2-0.9-0.4-1.7-0.4C364.2,200.8,364,201.1,363.8,201.4z M413.7,205.1
				c0.1,0.1,0,0.1,0.3,0.1c0.2-0.3,0.3-0.5,0.6-0.7c0-0.8-0.3-1.1-0.4-1.7c-0.6-0.1-0.8-0.3-1.6-0.3c-0.1,0.5-0.5,0.5-0.6,0.9
				C411.7,204.3,413,205,413.7,205.1z M438.8,214.3c-1-0.7-2.7,0.6-3.9,0.4c-0.1,0.1-0.2,0.2-0.3,0.3v0.4c0.5,0,1.3-0.1,1.6,0.1
				c0.2,0.1,1.1,1.3,1.3,1.6c1.1-0.1,1-0.6,1.7-1c0.1-0.2,0-0.1,0.1-0.3C439.4,215,439.5,214.5,438.8,214.3z M443.4,222.9
				c0,1.4-0.6,0.7-1.3,1.3c-0.2,0.2-0.3,0.5-0.6,0.7c0.1,0.9,0.5,1.3,0.9,2c0.3,0.1,0.4,0.1,0.6,0.3c1,0,1.5-0.3,1.7-1.1
				c0.4,0.1,0.7,0.2,1,0.3l0.1-0.1c-0.1-1.2-1.3-2.4-2-3.2C443.7,222.9,443.7,223,443.4,222.9z M271,226.2c0-0.4,0-0.7-0.1-0.9
				c-0.2-0.5-0.7-0.5-1-0.9c-0.4,0-0.5,0-0.7,0.1c-0.5,0.2-0.5,0.6-0.9,0.9c0,0.8,0.3,0.6,0.4,1.4
				C269.7,226.8,270.2,226.4,271,226.2z M455.2,227.5c-0.2-0.3,0.1-0.1-0.3-0.3c0,0.1-0.1,0.3-0.1,0.4l0.1-0.1H455.2z M433.4,230.7
				c0.7-0.1,0.9-0.3,1.4-0.6c0-1.1-0.2-1.3-0.6-2c-0.4-0.1-0.7-0.1-1.3-0.1c-0.3,0.4-0.8,0.6-0.4,1.1
				C432.5,230.3,432.8,230.1,433.4,230.7z M266.6,234.4c0.3-0.1,0.3,0,0.4-0.1c0.4-0.2,0.4-0.3,0.7-0.6c0-0.5,0-1-0.1-1.3
				c-0.3-0.5-0.9-0.6-1.7-0.6c-0.2,0.3-0.3,0.3-0.4,0.7c-0.1,0.2-0.2,0.1,0,0.3C265.4,234.2,266.1,233.8,266.6,234.4z M261.3,237.3
				c1.1-0.1,1-0.8,1.3-1.6c-1.2-0.9-1.2-0.8-3-0.6c0.1,0.4,0.1,0.6,0.3,0.9C260.1,236.7,260.7,236.8,261.3,237.3z M450,239.4
				c-0.4,0.5-0.9,1-1.6,1.3c0.1,0.6,0.5,1,0.7,1.4c0.9,0,1.4,0.1,2.3,0c0.4-0.4,0.8-1,1.1-1.3c0-0.8-0.2-0.8-0.4-1.3
				C451.5,239.5,450.7,239.5,450,239.4z M271.5,243c0,0,0.1-0.1,0.1-0.1c0.9-0.1,1-0.5,1.6-0.9c0.1-0.2,0-0.1,0.1-0.3
				c0.1-1.6-0.5-1.6-1.6-2c-0.4,0.5-0.9,1.1-1.3,1.6c0,0.4,0,0.5,0.1,0.7C270.8,242.6,271.2,242.4,271.5,243z M447.7,246.6
				c0.8-0.1,1.3-0.9,1.4-1.6c0.3-0.7-0.7-1.3-1.2-1.7c-1.3,0-1.3,0.6-2,1.1c0.1,0.5,0.1,1,0.1,1.4
				C446.9,246,447.3,246.2,447.7,246.6z M265.1,248.5c0-1.4-1.1-1.2-2-1.3c-0.4,0.3-1,0.6-1.4,0.9c-0.1,0.2,0,0.1-0.1,0.3
				c0,1.4,1.2,1.5,2,1.7C263.9,249.4,264.3,248.7,265.1,248.5z M457.5,249.5c0-0.5,0.1-0.8,0.1-1.1c-0.4-0.3-0.5-0.6-1-0.7
				c-0.2-0.1-0.6-0.2-1-0.1c-0.4,0.6-0.9,1.2-1.4,1.6c0,0.7,0.2,0.6-0.1,1c0.1,0.2,0,0.1,0.1,0.3c0.6,0.4,1.4,0.2,2,0.4
				C456.6,250.3,457.1,249.9,457.5,249.5z M437.1,249c-0.2-0.1-0.5-0.1-0.9-0.1c-0.3,0.3-0.6,0.5-1,0.6c0.1,1,0.4,1.6,0.7,2.3
				c1.4,0,1.4-0.4,2.2-1c0-0.3,0-0.4,0.1-0.6C438.1,249.5,437.7,249.2,437.1,249z M251.3,251.6c-0.6,1.4-0.8,1.3,0.1,2.6
				c1.4,0.1,2-0.4,3.2-0.7C254.6,252.1,252.8,251.6,251.3,251.6z M257.2,256.5c-0.3-0.2-0.8-0.5-1-0.9h-1c-0.6,0.9-1.8,1.2-2.9,1.4
				v1c0.3,0.3,0.6,0.6,0.9,1c1.5,0,1.5-0.8,2.4-1.1c0.1,0,0.3,0.1,0.4,0.1c0.4-0.1,0.7-0.4,1-0.6
				C257.1,257.2,257.2,256.9,257.2,256.5z M450.9,255.9c-0.3,0.3-0.5,0.1-0.9,0.3c-0.4,0.2-0.6,0.9-1,1.1c0,0.4,0.1,0.5,0.1,0.7
				c0.2,0.1,0.4,0.2,0.6,0.3c1.9,0.1,2,0.1,2.9-0.9C452.5,256.3,451.8,256,450.9,255.9z M249.8,259.7c0-0.9-0.1-1-0.4-1.4
				c-0.4,0-0.9-0.1-1.3-0.1c-0.1,0.1-0.6,0.2-0.7,0.3c-0.1,0-0.3,0.1-0.4,0.1c0.1,1,0.7,1.1,1,1.9
				C249.1,260.4,249.2,260.2,249.8,259.7z M457.8,259.8c-0.1-1.1-0.8-1-1.3-1.6h-0.6c-0.1,0.8-0.5,1.1-0.7,1.7
				c0.3,0.3,0.4,0.6,0.6,1c1.2,0,1.4-0.2,2-0.6C457.8,260,457.7,260,457.8,259.8z M440.4,264c0,0.7,0.2,0.7,0.3,1.3
				c0.7,0.1,0.8,0.2,1,0.7c0.9-0.1,1.2-0.2,1.9-0.1c0.2-1,0.1-2.3,0.7-2.9c-0.1-0.5-0.2-0.5-0.4-0.9
				C442.2,262.2,441.5,263.4,440.4,264z M248.2,265.9c0.3-0.1,0.3,0,0.4-0.1c0.8,0,1.4-0.7,0.9-1.4c0-0.1-0.1-0.3-0.1-0.4
				c-0.8-0.2-0.9-0.3-1.7-0.3c-0.3,0.4-0.5,0.6-0.7,1.1C247.3,265,247.9,265.5,248.2,265.9z M459.6,264.4c-0.4,0.4-1.2,0.6-1.4,1
				c-0.6,0.9-0.5,1.4-1.3,2.2c0,1.2,0.6,2.5,1.7,1.7c1.1-0.1,1.8-2,2.6-2.7C461.3,265,460.6,264.9,459.6,264.4z M449.5,267.3
				c-0.6,0.2-1.2,0.3-2.2,0.3c-0.2,1.2-0.7,2.2,0.3,2.7c0.4,0.2,0.6,0.1,0.9,0.3c0.9-0.1,0.7-0.7,1.3-1.1c-0.1-0.5,0-1.5-0.3-1.9
				V267.3z M434.1,268.9c-0.3,0.4-1.1,0.7-1.6,0.9c0.2,0.4,0.3,1.2,0.6,1.6c0.3,0.4,1.4,1.1,1.7,0.9c0.9,0,0.8-0.3,1.3-0.7
				c0-0.9-0.1-1.5-0.4-2C435.4,269.1,434.6,268.9,434.1,268.9z M253.4,269.4c-0.2,0.4-0.7,1-0.3,1.6c0.1,0.5,0.2,0.4,0.4,0.7
				c0.3,0,0.4,0,0.6,0.1c1-0.2,1.1-0.7,1.7-1.1c0-0.3-0.1-0.6-0.1-0.9C255,269.7,254,269.5,253.4,269.4z M451.6,269.6H451
				c-0.2,0.3-0.3,0.6-0.4,1c0.1,0.1,0.2,0.2,0.3,0.3v0.1c0.5-0.2,0.4-0.4,0.9-0.6c0-0.3,0-0.4-0.1-0.6V269.6z M458.8,271.6
				c-0.6-0.1-1.2-0.2-1.9-0.3c-0.2,0.3-0.4,0.6-0.6,0.9c0,1.2,0.6,1.5,1,2.3c0.2,0.1,0.1,0,0.3,0.1c1.2-0.1,1.2-0.8,2-1.3
				C459.6,272.4,459.2,272.2,458.8,271.6z M448.4,273.3c-0.3-0.2-0.8-0.2-1.3-0.1c-0.3,0.5-0.5,1.3-0.9,1.9c0.1,0.5,0.4,0.8,0.9,1
				c0.3,0.1,0.9,0,1.3,0.3c0.6-0.1,0.6-0.3,1-0.6c0.1-0.8,0.3-1.1-0.1-1.6C449.1,273.7,448.9,273.5,448.4,273.3z M244.4,273.5
				c-0.3,0.2-0.6,0.3-1.1,0.3c-0.1,0.3-0.2,0.5-0.4,0.7c0,0.6,0.1,1,0.3,1.4c0.4,0.1,0.5,0.2,0.7,0.1c1,0,1.2-0.2,1.9-0.4
				c0-0.7,0-1.1,0.1-1.3c-0.1-0.5-0.2-0.5-0.4-0.9H244.4z M459.2,277.2c0.1,0.5,0.2,0.6,0.3,0.7v0.1c0.4-0.2,0.4-0.4,0.7-0.6
				c-0.1-0.6,0-0.5-0.4-0.7C459.6,276.9,459.4,277.1,459.2,277.2z M459.6,286.7c-0.3,0.4-0.7,0.8-1,1.1v0.1
				c-0.4-0.1-0.5-0.3-0.9-0.4c-0.6-0.3-1.9,0.7-2,1.4c-0.4,0.9,1.2,2,2,2.2c0.6-0.6,1.1-1.2,1.4-2c0.8,0.1,1.3,0.4,1.9,0l0.7-0.7
				c0-0.9-0.2-1.1-0.4-1.6C460.8,286.8,460.2,286.7,459.6,286.7z M432.8,289.6c0.2,0.1,0.2,0,0.4,0.1c1,0,1.2-0.1,1.6-0.6
				c0.3-0.4,0-1.1-0.3-1.6c-0.4-0.1-1-0.2-1.6-0.1c-0.1,0.3-0.2,1-0.4,1.3C432.5,289.3,432.5,289.3,432.8,289.6z M248.9,289.4h-1
				c-0.3,0.2-0.8,0.4-1.1,0.6c0,0.8,0.3,1.4,1,1.6c0.3,0.2,0.7,0.2,0.9,0.1c0.6-0.1,0.6-0.4,1.1-0.6c0-0.4,0.1-0.6,0-0.7
				C249.6,289.8,249.2,289.8,248.9,289.4z M452.5,292l0.1-0.1c0.1-0.2,0-0.1,0.1-0.3v-1.3c-1-0.2-1.5-0.7-2.7-0.7
				c-0.3,0.5-0.5,1.4-1,1.7c0.1,0.2,0,0.1,0.1,0.3C450.1,292.3,451.2,292.2,452.5,292z M453.3,300c0.1-0.3,0.1-0.5,0.3-0.7
				c0-1.2-0.2-1-0.7-1.6c-0.2-0.3,0.1-1.2,0.1-1.9c-0.3-0.3-0.7-0.6-0.9-1h-0.7c-0.3,0.3-0.7,0.5-1,0.7c0,0.8,0.6,1.6,0.4,2.2
				c-0.1,0.5-0.4,0.7-0.4,1.7l1.3,1.3C452.6,300.7,452.8,300.4,453.3,300z M446.1,296.7h-0.4v0.4h0.4V296.7z M440.1,300.2
				c0.1,0.5,0,0.9-0.4,1.3c0.3,0.7,1,0.9,1.4,1.4c1.1-0.2,1.2-0.8,1.9-1.3c0-0.5,0-0.6-0.3-0.9C442.5,300.3,441.2,300.1,440.1,300.2
				z M272.7,309.4c0.2-0.3,0.3-0.9,0.4-1.3c-0.3-0.1-0.4-0.2-0.6-0.4h-0.9c-0.1,0.1-0.2,0.2-0.3,0.3c-0.2,0.2-0.2,0.4-0.3,0.7
				l0.9,0.9C272.4,309.5,272.6,309.5,272.7,309.4z M436.5,312.4c0.1,0.4,0.1,0.9,0.1,1.3l0.1,0.1c0.6,0,1.6,0.1,2-0.1
				c0.3-0.2,0.2-0.2,0.4-0.4v-1.1c-0.8-0.1-1.1-0.4-2-0.6C437,311.8,436.8,312.2,436.5,312.4z M452.6,312.8
				c-0.5,0.6-1.1,1.4-1.7,1.9c0.4,0.5,1,0.7,1.3,1.3c0.6,0,1.3,0.3,1.7,0c0.7-0.2,0.9-0.7,1.2-1.3c0.2-0.3-0.2-1-0.4-1.4
				C454,313,453.5,312.8,452.6,312.8z M446.9,316.7c-0.4,0.4-0.7,1.1-1.3,1.3c0.1,0.9,0.7,1.5,1.3,1.9c0.2,0.1,0.1,0.2,0.3,0
				c1.2,0,1.2-0.4,2-0.7c0-1.5-0.6-1.5-1-2.4L446.9,316.7L446.9,316.7z M254.5,320.3h-1.4c-0.2,0.2-0.6,0.4-0.9,0.6
				c0.1,1,0.7,1.1,1.3,1.6c0.8,0,1.1-0.2,1.4-0.7h0.1c0-0.1-0.1-0.2-0.1-0.3h0.1C255,320.9,254.7,320.8,254.5,320.3z M268.4,326.3
				c1.2,0.8,1,0.6,2-0.3c0-1.2-0.5-1.7-1.4-2c-0.3,0.4-0.8,0.3-1.3,0.6c-0.2,0.3-0.4,0.7-0.1,1C267.8,326.2,268,326,268.4,326.3z
				 M271.5,326.8c0,0.3,0,0.4-0.1,0.6c0,1.1,0.4,1.4,0.9,2c0.3,0,0.7-0.1,1-0.1c0-0.9,0.6-1.5,0.7-2.4c0.1-0.5-0.3-0.6-0.4-1.1
				c-0.3,0.1-0.3,0-0.4,0.1C272.2,325.9,272.1,326.5,271.5,326.8z M391.3,328.1c0.1-0.1,0.1,0,0.1-0.3c-0.1-0.1-0.2-0.2-0.3-0.3
				c-0.4,0-0.8,0-1,0.1c-0.4,0.2-0.5,0.6-0.9,0.9c0,0.2,0.1,0.5,0.1,0.7C390.4,329.2,391,328.8,391.3,328.1z M254.2,332.8h-1.1
				c-0.3,0.5-0.6,0.9-1,1.3c0.2,0.6,0.5,0.6,0.9,1c1.1,0,1.1-0.3,1.7-0.7c0-0.5,0.1-0.6,0-0.9C254.5,333,254.4,333.1,254.2,332.8z
				 M268,339.1c0,0,0.1,0.1,0.1,0.1v-0.1c0.8,0,1.1-0.3,1.4-0.7c0,0,0.1-0.1,0.1-0.1h-0.1c0-0.7-0.2-0.7-0.4-1.1
				c-0.5,0-1-0.1-1.4-0.1C267.1,337.8,266.8,338.6,268,339.1z M265.3,338.8c-0.1-0.5-0.2-0.4-0.3-0.9c-0.6-0.1-0.9-0.3-1.7-0.3
				c-0.2,0.2-0.4,0.3-0.7,0.4c0,0.9,0.2,1.1,0.4,1.7c0.4,0.1,0.8,0.2,1.1,0.3C264.5,339.7,264.9,339.3,265.3,338.8z M395.3,340.7
				c0.1-0.5,0.2-0.9,0-1.3c-0.1-0.3-0.1-0.3-0.3-0.6c-0.6,0.1-1.3,0.3-1.9,0.4c0,1.1,0.4,1,0.7,1.7
				C394.6,341,394.6,340.9,395.3,340.7z M260.1,341.1c0.1-0.2,0-1.2-0.3-1.6c-0.2-0.3-0.4-0.3-0.9-0.4c-0.4,0.4-1.3,0.9-1.9,1.1
				c0,1.1,0.4,1,0.7,1.7h1.3C259.4,341.7,259.8,341.5,260.1,341.1z M369.7,340.3c-0.2,0.2-0.4,0.3-0.7,0.4c-0.1,0.3-0.1,0.4-0.3,0.6
				c0.1,0.9,0.3,0.9,0.6,1.4h1.3c0.2-0.3,0.5-0.5,0.9-0.7c0-1.2-0.2-1.1-0.7-1.7L369.7,340.3L369.7,340.3z M434.5,340.8h-0.7
				c-0.8,0.7-1.2,1.3-1.6,2.4c0,0,0,0.5,0.1,0.7v0.3c0.8-0.2,1.4-0.1,2-0.6c0.7-0.3,0.8-0.8,1.3-1.3
				C435.6,341.4,435,341.5,434.5,340.8z M291,343.3c-0.2,0.3-0.3,0.4-0.4,0.7c-0.5,0.8,0.5,1.7,0.7,2.3c0.2,0.1,0.1,0,0.3,0.1
				c0.8,0,0.9-0.2,1.3-0.4c0-1.2-0.2-1.9-0.4-2.6C292,343.4,291.5,343.3,291,343.3z M273.6,350.5c0.6-0.9-0.4-1.8-1.1-1.9
				c-0.2,0.2-0.5,0.2-0.9,0.3c-0.2,0.4-0.5,0.7-0.6,1.3c0.4,0.4,1.2,0.9,1.7,1.4C273.2,351.4,273.5,350.9,273.6,350.5z M389.1,348.9
				h-1.3c-0.2,0.3-0.5,0.7-0.7,1L387,350h0.1c-0.1,1.1,0.7,2.1,1.6,1.4c0.5-0.3,0.5-0.7,1-1C389.7,349.5,389.5,349.4,389.1,348.9z
				 M259.2,349c-0.2,0.2-0.1,0.2-0.4,0.3c0,1,0.1,1.3,0.4,1.9c0.7,0,1.2,0,1.6-0.3c0.5-0.1,0.2,0.1,0.4-0.3c0.1-0.3-0.1-1-0.3-1.4
				C260.5,349.1,259.9,349,259.2,349z M416.8,353.5c-0.1,0.1-0.3,0.2-0.4,0.3c-0.6,0.4-0.2,1-0.4,1.4c0.5,0.6,0.9,0.9,1.4,1.4
				c0.7,0,0.8-0.2,1.3-0.4c0.1-0.2,0-0.1,0.1-0.3C418.9,354.2,418.1,353.9,416.8,353.5z M285.7,353.8h-0.9c-0.3,0.3-0.8,0.3-1.1,0.6
				c-0.2,0.2-0.2,0.4-0.4,0.6c0,1,0.2,1,0.6,1.6c0.5-0.1,1-0.2,1.3-0.4c0.3-0.2,0.4-0.6,0.7-0.9
				C285.8,354.7,285.8,354.1,285.7,353.8z M374.3,358.4c-0.2,0.3-0.3,0.7-0.6,0.9c0.1,0.5,0,0.2,0,0.7c0.4,0.4,0.9,0.7,1.3,1.2
				c0.3,0,0.4,0,0.6-0.1c0.6-0.1,0.6-0.2,1-0.3c-0.1-0.5-0.1-1,0-1.3C376.4,358.4,375.1,358.4,374.3,358.4z M274.9,360.4v-0.3
				c-0.2,0-0.5-0.1-0.7-0.1c-0.3,0.2-1.3,0.4-1.6,0.4c0,1.1,0.2,1.3,0.6,1.9C274.3,362.3,275.7,361.5,274.9,360.4z M361.1,363.3
				h-0.9c-0.2,0.3-0.5,0.5-0.9,0.6c0,0.6-0.1,1.2-0.1,1.9c1.2,0,1.2-0.4,1.9-0.9C361.1,364,361.1,363.9,361.1,363.3z M401.6,364.7
				c-0.5,0.1-0.6,0.2-0.9,0.4c-0.1,0.1-0.2,0.3-0.3,0.4c0,0.4,0.1,0.6,0.1,0.9c0.6,0.1,0.9,0.3,1.7,0.3c0-0.6,0-1.1-0.3-1.4
				C401.9,364.9,401.8,365,401.6,364.7z M393.6,365.4c-0.1,0.4-0.2,0.5-0.4,0.7c0.1,0.6,0.2,0.5,0.3,1.1c0.4,0.1,0.7,0.2,1,0.4
				c1.5-0.2,1.6-1.4,3-1.6c0-0.3,0.1-0.4,0.1-0.6c-0.4-0.2-0.9-0.4-1.3-0.7C394.9,364.9,394.6,365.3,393.6,365.4z M274.5,366.4
				c-0.1,0.1-0.3,0.2-0.4,0.3c-0.3,0.1-0.3,0.2-0.6,0.4c0,0.6,0.1,1.6,0,1.9c0.4,0.2,0.9,0.1,1.1,0.4c0.8-0.3,0.8-0.9,1.3-1.4
				C275.9,366.6,275.3,366.5,274.5,366.4z M387.4,367.3c-0.5-0.1-0.8-0.3-1.6-0.3c-0.2,0.1-0.1,0.1-0.4,0.1l-0.1,0.1
				c-0.1,0.6-0.3,0.8-0.3,1.6c0.2,0.2,0.3,0.4,0.4,0.7c0.6,0.1,1.1,0.2,1.7,0.3c0.3-0.4,0.9-1.2,0.4-1.9
				C387.5,367.6,387.5,367.5,387.4,367.3z M287.5,367.9c-0.4,0-0.9-0.1-1.3-0.1c-0.2,0.2-0.1,0.2-0.4,0.3c0,0.3,0,0.4-0.1,0.6
				c0,0.9,0.1,1.1,0.4,1.6c0.7-0.1,1.2-0.4,1.6-0.9c0.2-0.2,0.2-0.6,0.3-0.9C287.8,368.2,287.7,368.2,287.5,367.9z M414.5,368.9
				c-0.6,0-1.6,0-2,0.3c-0.8,0.1-0.7,0.4-1.3,0.6c-0.1,0.3,0,0.3-0.1,0.4c0.1,1,0.7,1,1.1,1.6c2.3,0,1.4-0.8,2.6-1.6
				c0.2-0.1,0.1,0,0.6,0C415.3,369.1,414.9,369.6,414.5,368.9z M300.5,370.3c-0.1,0.9,0.1,1.3,0.6,2c0.4,0.1,0.9,0.2,1.3,0.3
				c0.2-0.3,0.6-0.7,1-0.9c0-0.8-0.1-0.8-0.1-1.3C301.8,369.7,302,370,300.5,370.3z M339,373.3h-0.9c-0.2,0.1-0.4,0-0.7,0.1
				l-0.9,0.9c0.1,0.8,0.2,0.7,0.4,1.3c1,0.1,1.6,0.2,2.3-0.6c0.2-0.3,0.4-0.8,0.1-1.1C339.3,373.6,339.2,373.6,339,373.3z
				 M384.4,375.9c-0.3-0.2-0.7-0.4-1-0.6c-0.3,0.3-0.6,0.2-1,0.4c-0.2,0.2-0.3,0.5-0.6,0.7c0,1.1,0.5,1.2,0.7,2c0.5,0,1.1,0,1.3,0.1
				c0.4-0.2,0.3-0.3,0.7-0.4C384.4,377.5,384.4,377,384.4,375.9z M391.4,377.8c0.4,0,0.5-0.1,0.7-0.1c0-0.5,0-0.6-0.1-0.7v-0.3
				c-0.5,0.1-0.4,0-0.6,0.4C391.3,377.3,391.4,377.3,391.4,377.8z M395.6,376.8c-0.2,0.2-0.5,0.3-0.7,0.6c-0.1,0.1-0.2,0.4-0.3,0.7
				c0.2,0.2,0.1,0.4,0.3,0.7c0.2,0.2,0.5,0.3,0.7,0.6c1.2,0,1.1-0.5,1.7-1c-0.1-0.2,0-0.1-0.1-0.3
				C397.1,376.7,396.3,376.9,395.6,376.8z M405.5,376.8c-0.2,0.2-0.3,0.2-0.6,0.3c0,1.1-0.4,2-1,2.6c0,0.5,0.1,0.6,0.3,0.9
				c0.2,0.6,0.7,0.6,1,1c1.2-0.1,1.3-0.7,2-1.3c0-1.2,0.2-2.5-0.3-3.2C406.6,376.6,405.9,376.8,405.5,376.8z M386.5,379.2
				c-0.1-0.2-1-0.4-1.7-0.4c0,0.9,0,2.3,0,2.7c0.2,0.1,0.1,0,0.3,0.1c1.2,0,1.4-0.4,2-0.9c0-0.4-0.1-0.6,0-0.7
				C387,379.5,386.9,379.5,386.5,379.2z M342.9,381.8c-0.3,0.3-0.5,0.5-0.7,0.9l-0.1,0.1h0.1c0,1.1,1.6,2.2,2.6,1.4h0.3
				c0-0.8,0-1.5-0.3-1.9C344.3,381.8,343.8,381.8,342.9,381.8z M361.5,382.8c-0.7-0.5-0.8-0.7-1.6-0.9c-0.6,0.7-1,0.5-1,2
				c0.3,0.2,0.5,0.5,0.7,0.9c1,0,1.2-0.3,1.9-0.6C361.5,383.4,361.4,383.5,361.5,382.8z M324.6,385.5c-1,0-1.1,0.3-1.7,0.6
				c0,0.5,0,0.8-0.1,1c0.2,0.8,0.8,1.8,1.6,2c0.4,0.3,1.3,0.3,2,0.3c0-1.4-0.6-2.3-1-3.7C325,385.7,324.8,385.7,324.6,385.5z
				 M390.8,385.7c-0.3,0.3-0.8,0.6-1.1,0.9c0,0.4,0,0.8,0,0.9c0.2,0.4,0.3,0.3,0.4,0.7c0.7,0.2,1.2,0.3,2,0.1
				c0.1-0.3,0.2-0.6,0.4-0.9c0-0.7-0.2-0.9-0.3-1.4C391.8,385.8,391.6,385.7,390.8,385.7z M313.7,386.7c-0.4,0.2-1.3,0.4-1.7,0.4
				l-0.1,0.1c0,1,0.3,1.4,0.9,1.9c0.1,0.1,0.5,0.2,0.9,0.3c0.3-0.5,0.6-1.1,1-1.4c-0.1-0.6-0.3-0.8-0.4-1.3L313.7,386.7L313.7,386.7
				z M356.9,388.3c-0.2,0.2-0.5,0.5-0.9,0.6c0,0.5,0,1.1,0,1.1c0.2,0.4,0.6,0.5,0.9,0.9c0.4,0,0.7,0,0.9-0.1
				c0.6-0.2,0.5-0.5,0.9-0.9c-0.1-0.9-0.4-0.8-0.6-1.4C357.7,388.3,357.4,388.3,356.9,388.3z M370.9,388.8c-0.2-0.1-0.2-0.1-0.6-0.1
				c-0.2,0.2-0.5,0.3-0.9,0.4c-0.2,0.9-0.5,1.6,0.1,2.3c0.1,0.1,0.3,0.2,0.4,0.3c1,0,1.3-0.2,1.9-0.6c0-0.5-0.1-1.1-0.3-1.4
				C371.5,389,371.4,389,370.9,388.8z M328.8,389.3c-0.2,0.3-0.5,0.7-0.7,1c0.1,0.6,0.2,1.1,0.3,1.7c0.7,0,1.6,0.2,2.3-0.4
				c0.2-0.3,0.3-0.6,0.1-0.9C330.6,389.9,329.7,389.3,328.8,389.3z M361.7,389.7c-0.1,0.1-0.2,0.2-0.4,0.3c0,1.2,0.4,1.5,0.9,2.2
				c1.1,0,0.9-0.4,1.3-1C363.4,389.6,362.7,389.8,361.7,389.7z M333.2,389.8c-0.3,0.5-0.5,0.9-0.7,1.1c0.2,1,0.7,1.1,1,1.9
				c1,0.1,2,0.2,2.7-0.6c0.1-0.1,0.1,0,0.1-0.3c-0.4-0.4-0.8-1.2-1-1.7C334.5,390,334.3,389.8,333.2,389.8z M346,391.6
				c-0.2,0.2-0.5,0.3-0.7,0.4c0,0.5,0,1.1,0,1.1c0.1,0.7,1,1.4,1.7,0.9c0.7-0.3,0.6-1,1.1-1.4c-0.1-0.5-0.2-0.5-0.4-0.9
				C347.2,391.7,346.6,391.6,346,391.6z"/>
		</g>
	</g>
</g>
<g id="Calque_2">
</g>
</svg>
