<?xml version="1.0" encoding="utf-8"?>
<!-- Generator: Adobe Illustrator 19.2.1, SVG Export Plug-In . SVG Version: 6.00 Build 0)  -->
<svg version="1.1" id="Calque_1" xmlns="http://www.w3.org/2000/svg" xmlns:xlink="http://www.w3.org/1999/xlink" x="0px" y="0px"
	 viewBox="0 0 841.9 595.3" style="enable-background:new 0 0 841.9 595.3;" xml:space="preserve">
<style type="text/css">
	.st0{fill:#DADADA;}
	.st1{fill:#1D1D1B;}
</style>
<g>
	<g>
		<path class="st0" d="M558.3,268.7c-1-0.1-2-0.2-3-0.4c-2.5-0.9-3.5-4.5-5.5-6c-1.1-0.5-2.2-1-3.2-1.5c-2.1-1.1-4.3-3.3-5.6-5.2
			c0.1-0.6,0.2-1.3,0.2-1.9c2-1,3.1-2.5,4.9-3.9c4.3-3.2,12.6-2.6,14.4-7.8c-1.9-3.2-7.4-2.8-10.8-4.5c-2.1-1.7-4.3-3.5-6.4-5.2
			c-0.8-1.1-1.6-2.2-2.4-3.2c-2-1.6-4.7-1.8-7.4-2.8c-2.2,0.6-5.9,0.7-9,1.5c-1.9,0.5-3.4,1.7-4.9,2.2c-2.1,0.8-4.6,1.3-6.5,1.9
			c-3,0.9-6.4-0.9-8.6-1.4c-1.8,0-3.6,0-5.4,0c-4.2,0.2-8.3-1.2-12-1.9c-1.9,0-3.8,0.1-5.6,0.1c-4,0-9.2-0.4-13.1,0.2
			c-1.7,0.3-4.2,1.1-6,0.8c-1.5-0.5-2.9-1-4.4-1.5c-2.5-0.4-5-0.8-7.5-1.1c-1.7-0.5-3.1-1.7-5.1-2.1c-3.9-0.8-8.8-0.5-12.2-0.6
			c-5.6-0.2-11.3,1.9-15.8,3.1c-4.4,1.2-8.4,1.7-13,2.6c-2.9,0.6-12.2,0.7-14.1-0.8c-0.4-0.3-0.4-1-0.8-1.4
			c-4.1-2.1-12.9-3.8-18.5-3.9c-0.9,0.2-1.8,0.5-2.8,0.8c-3.3,1.2-9.5,4.6-14.4,3.8c-4.5-0.8-9.8-3.2-14.8-2.4
			c-1.7,0.3-4.1,0.5-5,1.6c-0.1,0.5-0.2,1.1-0.2,1.6c-0.4,1.4-1.8,1.8-3.1,2.1c-2.8,0.6-5.6-0.5-8.2,0.1c-5.8,1.4-15.5,0.8-20.1,3.4
			c0,0.1,0.1,0.2,0.1,0.2c4.3,1.3,10.3,6.7,12.8,10c0.7,12.2-10.8,9.3-20.5,11.1c-5.6,1.1-13.5-1.1-19.2-2.4
			c-2.2-0.1-4.4-0.2-6.6-0.4c-4.3-0.7-9.4-1-13.9-0.1c-1.6,0.3-4.6-0.1-5.9-0.4c-1.7-0.4-4.4,1-5.2,1.2c-3.5,1.2-7.3,0.5-9.5,2.9
			c0,1-0.1,3.8,0.6,4.5c0.8,1.7,4.4,1.5,6.4,2c3.2,0.9,6.1,2.6,9,3.5c2.9,0.4,5.8,0.8,8.8,1.2c1.7,0.3,3.4,0.7,5.1,1
			c1.2,0.6,2.4,1.3,3.6,1.9c1.5,0.2,3.1,0.5,4.6,0.8c3.4,0.9,6.5,1.6,10.8,2.2c2.8,0.4,7.4-0.2,10-0.8c3.8-0.9,8.2,0,12.2-0.5
			c7-0.9,15.7-0.5,20.9,2.6c0.7,0.7,1.3,1.5,2,2.2c1,0.7,2.1,0.9,2.9,1.9c-0.7,2-2.5,2.2-4,3.4v0.1c0.1,0,0.2,0.1,0.2,0.1
			c1.8-0.2,4.8,1.3,6.6,1.8c2.1,0.5,4.8,0.6,6.6,0.8c3-0.4,6.1-0.8,9.1-1.2c1.4,0,2.8,0.1,4.1,0.1c5.6-0.6,10-1.7,16.1-0.9
			c1.5,0,2.9-0.1,4.4-0.1c2.6,0.5,4.8,1.9,6.9,2.8c2.7,0.7,5.3,1.4,8,2.1c1,0.5,2,1.1,3,1.6c2.1,0.5,4.2,1.1,6.2,1.6
			c8.4,2.2,19,0.7,25.6-1.1c4-1.1,8.2-0.7,12-1.4c1.9-0.4,4.3,0.6,6.1-0.1c2.3-1,4.8-2,7.4-2.8c-0.3-1.5-7-2.9-9-3.4
			c-5.5-1.2-13.1-0.6-18.4-2.9c-1.6-1-3.3-2-4.9-3c0-0.3,0.1-0.7,0.1-1c0.1-0.1,0.2-0.2,0.2-0.2c3.3-0.8,9.9-2,12.8-1.5
			s5.4,1.5,9.4,1.2c3.3-0.2,8.8-0.3,12.5-1.5c0.8-0.3,1.5-0.7,2.5-0.9c3.4-0.5,7.6,1,10.6,1.5c4.2,0.6,8.3,1.3,12.5,1.9
			c0.2,0.2,0.4,0.4,0.6,0.6c-0.1,0.4-0.2,0.8-0.2,1.2c-2.1,0.9-3.9,2.6-4.2,4.9c5.5,3.5,11.7-1,18-0.9c1.8,0,4.2,1.3,5.9,1.9
			c1.9,0.6,10.8,2.2,12.8,1.9c1.8-0.3,7.4-2.3,9.1-3.4c1.8-1.1,3.1-2.4,5.2-3.1c2.8-1,9-0.4,10.1-1.5c1.3-0.3,3.3,0.5,4.5,0.8
			c2.8,0.7,11.1,1.6,13,1.2c1.2-0.2,7.2-1.9,7.5-1.8c0.8-0.5,1.6-0.9,2.4-1.4c0.8-0.2,1.6-0.3,2.4-0.5c1-0.9,2.1-1.8,3.1-2.6
			c0-0.3,0.1-0.6,0.1-0.9C565.6,271.5,561.7,269.9,558.3,268.7z M530.7,265.4c-1.1,0.7-2.3,1.3-3.4,2c-1.7,0.7-3.4,0.2-5,0.6
			c-4.1,1-13.1,0.8-18.8-0.4c-1-0.4-2.1-0.8-3.1-1.2c-1.1,0-2.3,0-3.4,0c-0.7-0.3-1.3-0.6-2-0.9c-1.8-0.4-3.1,0.6-4.5,0.1
			c0-0.1,0-0.2,0-0.4c0.2-0.1,0.5-0.2,0.8-0.4c-0.4-1.4-1.9-2.1-2.1-3.6c-0.9-5.1,5-9.7,8.6-11.6c1.7-0.5,3.5-0.9,5.2-1.4
			c4.7,0.1,7.8,2.7,12.1,3.5c2.8,0.3,5.7,0.6,8.5,0.9c0.6,0.5,1.2,0.9,1.8,1.4c0.8,0.4,1.7,0.8,2.5,1.1
			C530.8,257.4,531.4,261.5,530.7,265.4z"/>
	</g>
</g>
<g>
	<g>
		<path class="st1" d="M626.5,297.9c-2.5,0.6-5.7,0.2-8,0.6c-0.7,0.2-1.5,0.3-2.2,0.5c-4-0.5-10.8,0.6-16.1-0.9
			c-1.3-0.4-8.2-2-9.9-1.6c-6.6,1.4-13.6,3.4-20.9,3.1c-0.1-0.2-0.2-0.3-0.4-0.5c0.5-2.5,1.1-5,1.6-7.5c-0.2-3.6,0.3-6-0.1-9.2
			c-0.2-1.5-0.5-2.9-0.8-4.4c0.1-1.8,0.2-3.6,0.2-5.4c0.2-1.4-5.9-3.9-7.4-4.5c0.1-0.7,0.2-1.5,0.4-2.2c5.2-0.8,12.8-1.2,18.2-0.6
			c0.6,0.1,5.6,0.8,5.6,0.8c0.8-0.7,2.8-0.4,4-0.6c4.4-1,9.1-1.6,13.4-1.9c7.6-0.5,16.8,1.7,23-0.2c0.2-0.5,0.1-0.2,0-0.8
			c-0.9-0.3-1.4,0.3-2.2,0.6c-2.4,0-4.8-0.1-7.1-0.1c-6.5-0.8-21.1-1.3-26.2,1.4c-0.2-0.2-5.4,0.3-5.5,0.4c-3-0.4-6.1-0.8-9.1-1.1
			c-2.5-0.3-12.5,1.5-14.2,0.5c-0.5-0.3-0.6-0.7-0.6-1.4c1.7-1,0.8-8.1,0.8-10.2c2.5-0.6,5.4,0.3,7.8-0.2c4.3-0.9,11.5-1.4,16-0.6
			c1.7,0.3,2.9-1.1,5-0.6c1.5,0.7,3.1,1.3,4.6,2c2.3,0.6,11.2,0,12.4-0.4c0.1-0.5,0-0.6-0.1-1c-3.1,0.2-6.2,0.4-9.2,0.6
			c-3.2-0.5-5.3-2-8.8-2.4c-1.7,0.2-3.3,0.5-5,0.8c-1.9,0.4-7.1-0.6-8.9,0c-2.9,1-6.7-0.3-10,0.2c-1.4,0.2-2.5,0.6-4,0.4
			c-1.6-2.9-0.5-8-0.2-11.2c-1.4-1-2.8-1.9-4.1-2.9c-2.8-1-5.3-0.6-7.9-2c-6.6-3.5-7-9.8-16.4-11.2c-1.6-0.3-2.9,0.2-3.9,0.6
			c-1.9-1-10.4,3.1-12.2,3.8c-1.1,0.2-2.3,0.4-3.4,0.6c-0.8,0.3-1.8,1.1-3,0.9c-3-0.6-6-1.2-9-1.8c-2.3-0.3-4.9,0.4-7.5-0.1
			c-2.7-0.5-5.3-1.1-8-1.6c-0.7,0.1-1.4,0.3-2.1,0.4c-3.3-0.6-7.3-0.1-10.2-0.5c-1.1,0.2-2.2,0.4-3.2,0.6c-2.8,0.2-5.7,0.4-8.5,0.6
			c-1.7-0.5-3.5-0.9-5.2-1.4c-2.2-0.4-4.3-0.8-6.5-1.1c-4.2-1.5-8.3-3.2-14-2.6c-1.5,0-3.1-0.1-4.6-0.1c-6.2,1.1-10,1.8-15.4,3.2
			c-1.1,0.2-2.2,0.3-3.2,0.5c-3.2,1.1-7.4,2-10.9,2.2c-2.3,0.2-7.8,0.6-9.5-0.4c-1.1-0.6-1.9-1.6-3.4-2c-5.8-1.6-12.2-4-19.1-4
			c-1.3,0.3-2.7,0.6-4,0.9c-3.8,1.5-6.9,2.6-11.9,3.5c-2.6,0.5-4.9-0.8-6.9-1.2c-4.7-1.1-13.3-1.9-15.5,1.2c-0.2,0.7-0.4,1.3-0.6,2
			c-1.5,2.2-5.9,0.9-8.8,1.1c-3.4,0.3-7.4,0.7-10.4,1.6c-2.5,0.2-4.9,0.3-7.4,0.5c-2.6,0.7-5.5,2.1-8,2.1c-0.7,1.3,0.4,2.3,0,4.1
			c-0.5,2-1.6,3.9-1.1,6.1c0.4,2,0.8,3.9,1.1,5.9c0.1,1.6-0.4,2.1,0.1,4c-4.2,2.1-15-0.4-19.5-1.5c-3.1-0.8-6-0.5-8.8-0.8
			c-1.4-0.2-2.6-0.7-3.8-0.9c-1.1,0.1-2.2,0.3-3.2,0.4c-3.3,0.3-6.8,0-10.1,0.4c-1-0.2-2.1-0.3-3.1-0.5c-2.2-0.4-4,0.7-5.5,1.1
			c-3.8,1.1-9.8,1-11.4,4.2c-0.5,0.6,0,2.9,0,3.5c-1.7,0.9-2-0.6-3.9-0.1c-3.2,0.9-6.2,0-10.1,0.4c-2.6,0.1-5.3,0.3-7.9,0.4
			c-0.3,0.5-0.4,0.7-0.2,1.4c2.6,0.3,5.3,0.1,7.5-0.2c3.5-0.6,7.6,0.5,10.6,0c1.8-0.3,2,1.7,4.2,0.5c1,3.6,1.3,11.7,0.1,15.8
			c-3.7,0.7-6.7-0.4-9.5-1c-1.8-0.4-4.5,0.2-6,0.5c-1.2,0.3-1.6-0.6-2.6-0.8c0.1-0.1,0.3-0.2,0.4-0.2c0-0.1-0.1-0.2-0.1-0.4
			c-1.3,0.6-3.4,0-5,0.6c-0.2-0.3-0.1,0-0.1-0.4c-1.3,0.1-5.9-0.3-7,0.2c-2.6,1.2-5.8,2-8.5,3c-1.6,0.6-3.6-1-5.9-0.8
			c-3.1,0.5-6.3,1.1-9.4,1.6c-0.3,0.4-0.4,0.7-0.4,1.5c0,0.1,0.1,0.2,0.1,0.2c1.5,0.2,2.2-0.6,3.6-0.9c0.1,0.2,0.2,0.3,0.2,0.5
			c1.7-0.4,4.7-2.1,6.9-1.5c1,0.3,3.5,1.9,5.2,0.9c3.3-2,13.7-4,18-3.4c1,0.1,1.5,1,2.2,1.2c1.7,0.5,4.6-0.5,5.4-0.6
			c0.1,0,0.2,0,0.2,0c2-0.2,3.4,0.9,5,1.1c2.3,0,4.6,0,6.9,0c1.8,0.5,4.6,2.7,5.9,3.8c0.5,0.1,0.9,0.3,1.4,0.4
			c0.4,0.3,0.2,1,0.8,1.2c0.7,0.4,0.9-0.2,1.5,0.1c3.3,1.7,7.4,3.2,10.9,4.8c0.8-0.5,5.4,1.3,6.2,1.1c0.6-0.6,6.6,0.7,7.8,1
			c5.4,1.5,10,1.9,14.5,4.1c1.3,0.7,3.3,0.5,4.5,1c0.6-0.1,1.3-0.2,1.9-0.4c1.4,1.5,10.3-1.3,13-1.5c6.8-0.6,15.1,0.8,22.9,0.8
			c0.8,2.3,0.1,5.4-0.1,7.2c-2.2-0.4-8-1.6-9.8-1c-3.1,1-4.7,4.1-8.2,4.8c-2.4-0.3-4.8-0.7-7.2-1c-3.5-0.1-7.1-0.2-10.6-0.4
			c-3.4-0.4-5.8-1-9.8-0.9c-0.1,0.2-0.2,0.3-0.2,0.5c0,0.3-0.1,0.6-0.1,0.9v0.1c1.3,0.9,3.4-0.1,5.1,0.1c5,0.8,11.2,0.7,16.1,1.4
			c2.5,0.3,5.8,1.9,8,1c4.3-1.7,6.7-6.3,13.5-4.4c2,0.5,6.1,1.8,8.2,2.1c0.2,0,3.6-0.5,4-0.6c2.3,0.9,6.3-0.7,8.6-0.6
			c4.8,0.2,9.1-0.7,14,0.4c1.9,0.7,3.8,1.5,5.6,2.2c2.9,0.9,5.5,1,8,1.6c3,0.8,5.9,1.7,8.9,2.5c4,0.4,8.1,0.8,12.1,1.2
			c2.6,0,5.2,0,7.8,0c4.7,0.8,8.7,0.1,13.1,0.8c2,0.1,4.1,0.3,6.1,0.4c1.6-0.3,3.3-0.7,4.9-1c5.3-0.5,10.3,2.1,16.2,1.1
			c4.8-0.8,9.1-2.5,13.2-3.2c1.1-1.7-0.4-5.3,0-7.6c0.4-2.1,0.5-4,0.5-6.2c3.4-1.1,9.8-1.2,13.6,0.5c1.6,0.7,2,2,4.5,2
			c1.2,2.3-0.2,6.7,0.2,9c0.3,0.1,0.7,0.3,1,0.4c3.1-2.4,9.7-2.7,13.6-2.8c1.4-0.2,2.8-0.3,4.2-0.5c5,1.4,11,7,17.2,5.8
			c7.8-1.6,13.8-4.9,20.9-6.2c1.2,0.1,2.5,0.2,3.8,0.2c5.7-0.6,14.4,1.4,21.4,1.4c1.5-0.3,2.9-0.6,4.4-0.9c0.8-0.2,1.7,0.2,2.6-0.1
			c2.8-1,6-3.7,9.1-2c0.6-0.6,1-0.9,1-2.1c2.3-1.5,6.5-0.8,10.1-1.8c2.8-0.7,6-1.2,9.6-2c2.1,0.2,4.3,0.4,6.4,0.6
			c5.3,1.3,11.3,2.1,16,1.6c6.1-0.6,16.3,0,19.8-2.6C630.4,296.8,627.8,297.6,626.5,297.9z M561.4,257.3v0.1
			c-0.2-0.1-0.4-0.2-0.6-0.2c-0.7,0.9-1.7,2.6-1.6,4c-1.2-0.7-1.5-0.9-2.9-1.1h-0.1c-0.3,0.9-0.1,1.7,0.1,2.6
			c-1.6-0.7-2.2-2.1-3.6-2.9c-0.3,0.5-0.4,0.8-0.4,1.2c-1.7-0.7-0.6-1.4-1.4-2.6c-0.5-0.4-0.9-0.8-1.4-1.2c-0.1,0-0.2-0.1-0.4-0.1
			c-0.2,0.9-0.4,1.2,0,2c-2.2-0.6-5.1-2.6-6-4.5c-0.3-0.4-0.2-0.5-0.1-1.1c1.5-0.5,2-2.2,3.4-3.1c1.1-0.7,6.6-2.9,7.9-3.4
			c1.8-0.6,4.5-0.5,5.4-2c0.1,0,0.2,0,0.4,0c1.2,1.8,0.7,6.2,1.6,9.4c-0.4,0.2-0.2-0.1-0.5,0.2C560.4,255.4,560.9,256.6,561.4,257.3
			z M299.4,235.3c4.3,0.9,12.2,6.4,13.8,9.6c0.6,0.8,0,2.8-0.2,3.8c-1,4.5-8.4,3.8-12.8,5c-0.2,0-0.5,0-0.8,0
			c0.4-2.2,0.4-4.8-0.2-7.2c-0.3-1.2-0.7-2.3-1-3.5C298.2,240.2,299.7,238,299.4,235.3z M234.4,256.5c2.2-2.4,6-1.7,9.5-2.9
			c0.9-0.3,3.6-1.7,5.2-1.2c1.3,0.3,4.3,0.7,5.9,0.4c4.4-0.9,9.6-0.6,13.9,0.1c2.2,0.1,4.4,0.3,6.6,0.4c5.8,1.3,13.7,3.4,19.2,2.4
			c9.7-1.9,21.2,1.1,20.5-11.1c-2.4-3.3-8.5-8.7-12.8-10c0-0.1-0.1-0.2-0.1-0.2c4.6-2.6,14.3-1.9,20.1-3.4c2.6-0.6,5.4,0.5,8.2-0.1
			c1.4-0.3,2.7-0.7,3.1-2.1c0.1-0.5,0.2-1.1,0.2-1.6c0.9-1.1,3.3-1.3,5-1.6c5-0.8,10.3,1.6,14.8,2.4c4.9,0.9,11.1-2.6,14.4-3.8
			c0.9-0.2,1.8-0.5,2.8-0.8c5.6,0.1,14.4,1.8,18.5,3.9c0.4,0.4,0.3,1.1,0.8,1.4c2,1.4,11.2,1.3,14.1,0.8c4.6-0.9,8.6-1.4,13-2.6
			c4.4-1.2,10.2-3.3,15.8-3.1c3.5,0.1,8.3-0.2,12.2,0.6c2,0.4,3.4,1.6,5.1,2.1c2.5,0.4,5,0.8,7.5,1.1c1.5,0.5,2.9,1,4.4,1.5
			c1.8,0.4,4.3-0.5,6-0.8c3.9-0.7,9.1-0.3,13.1-0.2c1.9,0,3.8-0.1,5.6-0.1c3.7,0.7,7.8,2,12,1.9c1.8,0,3.6,0,5.4,0
			c2.2,0.5,5.6,2.3,8.6,1.4c1.9-0.6,4.4-1.1,6.5-1.9c1.5-0.6,3-1.8,4.9-2.2c3.1-0.8,6.8-0.9,9-1.5c2.7,1,5.4,1.2,7.4,2.8
			c0.8,1.1,1.6,2.2,2.4,3.2c2.1,1.7,4.3,3.5,6.4,5.2c3.4,1.7,8.8,1.3,10.8,4.5c-1.8,5.1-10,4.5-14.4,7.8c-1.8,1.3-2.8,2.9-4.9,3.9
			c-0.1,0.6-0.2,1.3-0.2,1.9c1.3,2,3.5,4.1,5.6,5.2c1.1,0.5,2.2,1,3.2,1.5c2,1.5,3,5.1,5.5,6c1,0.1,2,0.3,3,0.4
			c3.4,1.2,7.3,2.8,10.1,4.9c0,0.3-0.1,0.6-0.1,0.9c-1,0.9-2.1,1.8-3.1,2.6c-0.8,0.2-1.6,0.3-2.4,0.5c-0.8,0.5-1.6,0.9-2.4,1.4
			c-0.3-0.2-6.3,1.5-7.5,1.8c-1.9,0.4-10.2-0.6-13-1.2c-1.2-0.3-3.2-1-4.5-0.8c-1.1,1.1-7.4,0.5-10.1,1.5c-2.1,0.7-3.5,2-5.2,3.1
			s-7.3,3.1-9.1,3.4c-1.9,0.3-10.8-1.3-12.8-1.9c-1.7-0.5-4.1-1.8-5.9-1.9c-6.3-0.1-12.5,4.4-18,0.9c0.4-2.2,2.2-4,4.2-4.9
			c0.1-0.4,0.2-0.8,0.2-1.2c-0.2-0.2-0.4-0.4-0.6-0.6c-4.2-0.6-8.3-1.3-12.5-1.9c-3-0.5-7.2-2-10.6-1.5c-1,0.1-1.7,0.6-2.5,0.9
			c-3.7,1.2-9.2,1.3-12.5,1.5c-3.9,0.2-6.5-0.8-9.4-1.2c-2.9-0.5-9.5,0.7-12.8,1.5c-0.1,0.1-0.2,0.2-0.2,0.2c0,0.3-0.1,0.7-0.1,1
			c1.6,1,3.3,2,4.9,3c5.3,2.3,12.9,1.7,18.4,2.9c2,0.4,8.7,1.9,9,3.4c-2.6,0.8-5,1.8-7.4,2.8c-1.8,0.8-4.2-0.2-6.1,0.1
			c-3.8,0.7-8,0.3-12,1.4c-6.6,1.8-17.2,3.4-25.6,1.1c-2.1-0.5-4.2-1.1-6.2-1.6c-1-0.5-2-1.1-3-1.6c-2.7-0.7-5.3-1.4-8-2.1
			c-2.1-0.9-4.3-2.3-6.9-2.8c-1.5,0-2.9,0.1-4.4,0.1c-6.1-0.9-10.6,0.3-16.1,0.9c-1.4,0-2.8-0.1-4.1-0.1c-3,0.4-6.1,0.8-9.1,1.2
			c-1.8-0.2-4.5-0.2-6.6-0.8c-1.8-0.5-4.8-2-6.6-1.8c-0.1,0-0.2-0.1-0.2-0.1V283c1.5-1.1,3.3-1.4,4-3.4c-0.7-0.9-1.9-1.2-2.9-1.9
			c-0.7-0.7-1.3-1.5-2-2.2c-5.1-3.1-13.9-3.5-20.9-2.6c-4,0.5-8.4-0.4-12.2,0.5c-2.6,0.6-7.2,1.2-10,0.8c-4.2-0.6-7.4-1.3-10.8-2.2
			c-1.5-0.2-3.1-0.5-4.6-0.8c-1.2-0.6-2.4-1.3-3.6-1.9c-1.7-0.3-3.4-0.7-5.1-1c-2.9-0.4-5.8-0.8-8.8-1.2c-2.9-0.9-5.8-2.6-9-3.5
			c-2-0.5-5.5-0.3-6.4-2C234.2,260.4,234.4,257.5,234.4,256.5z M237.7,279.9h-0.1c-0.1,0-0.2-0.1-0.2-0.1c0-0.2,0.1-0.5,0.1-0.8
			C238,279.4,237.8,279.2,237.7,279.9z M251.9,286.9c0-0.2,0.1-0.3,0.1-0.5h0.1c0,0.1,0.1,0.2,0.1,0.2
			C252.1,286.7,252,286.8,251.9,286.9z M283.1,294c0-0.2,0.1-0.3,0.1-0.5h0.1C283.3,293.7,283.2,293.9,283.1,294z M306,292.6
			c-0.1-0.2-0.2-0.3-0.2-0.5c0.3,0.1,0.6,0.3,0.9,0.4c0,0.1,0.1,0.2,0.1,0.2C306.5,292.7,306.2,292.7,306,292.6z M307,292.6
			c0-0.1,0.1-0.2,0.1-0.2C307.1,292.5,307.2,292.5,307,292.6z M320.7,292c0,0.3,0.1,0.7,0.1,1C320.6,292.7,320.7,292.5,320.7,292z
			 M323.6,279.6c-0.2,0-0.3,0-0.5,0c-0.6,1.4-1.5,3.5-1,5.5c0.5,0.3,0.6,0.4,1.2,0.2c0.2,2.1-1.3,2.8-1.4,4.8h-0.1
			c-0.2-0.5-0.3-0.9-0.5-1.4c1.4-0.3,0.8-1.7,0.6-2.9c-0.7-0.2-0.9-0.2-1.6,0c-0.2-0.6-0.3-0.7-0.6-1.1c-0.9,0.1-1,0.3-1.4,0.9
			c0.1,0.6,0.2,1.2,0.2,1.8c0.5,0.3,0.7,0.4,1.5,0.2c0.1,0.2,0.2,0.5,0.2,0.8c-0.5,0.8-0.9,0.9-0.9,2.2c-0.5-0.6-1-1.3-1.5-1.9
			c-0.1,0-0.2,0-0.4,0c-0.3,0.3-0.7,0.6-1,0.9c0,1.8,0.6,2.2,0.5,3.8c-0.3,0-0.7,0-1,0c-0.3-1.3-1.3-2.4-1.1-4
			c-0.5,0.1-0.8-0.2-1.4-0.4h-0.1c-0.7,0.9-0.9,1.8-0.8,3.1c0.6,0.2,0.6,0.1,0.6,0.9c-0.4,0-0.8,0.1-1.2,0.1c-0.5-1-0.6-1.9-1.9-2.1
			c-0.2,0.2-0.4,0.4-0.6,0.6c0,0.1-0.1,0.3-0.1,0.4c-0.2-0.6-0.1-0.6-0.8-0.9c-0.5-0.3-0.6-0.2-1,0.1c0-1.1-0.4-1.8-1.1-2.1
			c-0.2,0-0.3-0.1-0.5-0.1c-0.6,0.5-0.8,1.1-0.9,2.1c-0.3-0.2-0.6-0.3-0.9-0.5c-0.7,0.5-1.2,1.1-1.1,2c-0.4,0.4-1.2,0.4-1.9,0.5
			c-0.5-0.8-0.5-1.7-1.2-2.6c-1.5,0.2-1.1,1.4-1.4,2.8c-2.5,0.5-4.9,1.1-7.4,1.6c-0.4-0.7-0.8-1.3-1.2-2c-0.2,0-0.3,0-0.5,0
			c-0.6,0.5-0.8,1.2-1.5,1.6c-0.1,0.1-0.2,0.2-0.2,0.2c-0.5-1.3-1-1.9-2.4-1c-0.1-0.8-0.3-1-0.6-1.5c-0.3,0-0.6-0.1-0.9-0.1
			c-0.2,0.3-0.4,0.6-0.6,0.9c-0.3-0.5-0.7-1.1-1-1.6c-1-0.2-2.7-0.6-3.6-0.1c-0.9-0.8-1.3-1.4-1.8-2.8c-1.2-0.2-1.7,0.2-1.6,1.6
			c-0.1,0-0.2,0.1-0.2,0.1c-0.1-0.6-0.2-1.2-0.2-1.8c-0.5-0.4-0.6-0.7-1.2-0.9c-0.5,0.4-0.8,0.8-0.9,1.6c-0.3-0.3-0.4-0.3-0.5-0.9
			c-0.3,0-0.6,0-0.9,0c-0.4,0.2-0.4,0.2-0.6,0.6c-0.4-0.3-0.8-0.6-1.2-0.9c-0.8,0.1-0.7,0.3-1.1,0.6c0-0.3-1.8-4.3-2.1-4.5
			c-0.3-0.2-0.2-0.2-0.8-0.2c-0.6,0.7-0.7,1.7-0.8,2.6c0.4,0.5,0.9,0.8,1.5,0.6c-0.3,0.6-0.3,1-0.4,2.1c-0.2,0-0.4,0-0.6,0
			c-0.7-0.4-0.5-1.9-1.9-3c-0.9,0.2-2.3,1.2-2.4,2c-0.5,0-1,0-1.5,0c-0.2-0.3-0.1-1.3-0.1-1.9c0.5,0.1,1,0.3,1.5,0.4
			c0.3-0.2,0.2-0.2,0.6-0.4c0-1,0-1.8-0.4-2.4c-0.2-0.2-0.3-0.4-0.5-0.6c-0.2,0-0.3,0-0.5,0c-0.3,0.4-0.6,0.8-0.9,1.1
			c-0.2,0.5,0,1.2,0.1,1.6c-0.4-0.3-0.5-0.4-0.6-1.1c-0.6-0.3-0.9-0.1-1.8-0.1c-0.1,0.2-0.3,0.4-0.4,0.6c-0.2,0.2-0.4,1.6-0.5,2.2
			c-0.1,0-0.3,0-0.4,0c0.2-0.2,0.3-0.5,0.5-0.8c-0.5-0.6-0.8-1.3-1.1-2.1c0.5,0.1,0.6-0.1,1.4-0.1c0-0.6,0-1.2,0-1.8
			c0.2-0.4-0.8-1-1.2-1.2H255c-0.2,0.3-0.5,0.7-0.8,1c0,0.3,0.1,0.7,0.1,1c-0.1,0.6,0.1,0.7,0.5,1.1c-0.8-0.2-0.9-0.1-2-0.1
			c-0.2,0.4-0.5,0.8-0.8,1.1c-0.1,0-0.2,0.1-0.2,0.1c0.3-1.4,1-2.9-1-3.9c-1.1,0.6-0.7,1.4-1.4,2.4c0,0.1,0,0.2,0,0.2
			c-0.9-1.2-0.7-2.9-2.4-4c-0.5,0.4-1.7,1.1-2.1,2c0.1,0.6,0.1,0.8-0.6,1c0.6-1.3,0-2.3-0.8-3.2c0.7,0.3,0.9,0.3,1.8,0.1
			c0.6-1,0.1-1.2,0.5-2.1c-0.4-0.2-0.8-0.5-1.1-0.8c-0.3,0-0.6,0.1-0.9,0.1c-0.3,0.5-0.8,1.4-0.2,2c0,0.1-0.1,0.3-0.1,0.4
			c-0.6-0.8-0.9-1.6-1.5-2.2c-1.2,0.1-1.4,0.7-1.4,1.9c-0.1,0-0.2,0.1-0.2,0.1c-0.1-0.7-0.3-1.3-0.4-2c-0.3-0.3-0.6-0.6-0.9-0.9
			c-0.9,0-1,0.1-1.1,0.8c-0.1,0-0.2,0.1-0.2,0.1c-0.1-0.9-0.3-1.4-1-1.9c-0.4-0.4-1.2-0.2-1.6,0c-0.4-0.3-0.2-0.4-0.4-0.9
			c0.5,0.2,1,0.3,1.5,0.5c0.3-0.1,0.7-0.2,1-0.2c0.9-1.5-0.3-2.6-1.5-3.1c-0.2,0.1-0.3,0.3-0.5,0.4c-0.2-3.2-0.4-6.4-0.6-9.6
			c5,0.8,9.7,2.9,13.8,4.5c4.5,0.7,8.9,1.4,13.4,2.1c1.9,0.5,3.3,1.6,4.9,2.2c1.5,0.2,3.1,0.5,4.6,0.8c2.2,0.7,4.5,1.3,6.8,2
			c3.4,0.8,6.9-0.2,10.1,0c4.3,0.3,8.3-0.3,12.8-1c3.2,0,6.5-0.1,9.8-0.1c1.2-0.2,2.9-0.4,4-0.2c2.9,0.4,8.4,1.6,10.5,3
			c1.3,0.9,1.8,2.2,3.5,2.8v0.1c-0.7,0.9-3.1,1.9-4.2,2.2C324.4,280.7,324.1,280.4,323.6,279.6z M326.5,302.1
			c-0.1-0.2-0.2-0.4-0.2-0.6c0.3,0.3,0.2,0.2,0.4,0.6C326.6,302.1,326.5,302.1,326.5,302.1z M325.9,298.8c0-0.2,0-0.3,0-0.5
			c0.2,0,0.3,0.1,0.5,0.1v0.1C326.2,298.6,326,298.7,325.9,298.8z M331.9,303.6c-0.5,0.3-0.9,0.2-1.8,0.1c0.4-0.8,0.2-2.3,0.5-3.4
			c0.3,0.4,0.2,1.6,0.1,2.5c0.4,0.2,0.8,0.4,1.1,0.6C331.9,303.6,331.9,303.6,331.9,303.6z M341.2,302.8h-0.1
			c-0.1-0.5-0.2-0.9-0.2-1.4c0.2,0,0.3,0,0.5,0C341.3,301.9,341.3,302.3,341.2,302.8z M422.6,311.4c0-0.3,0-0.6,0-0.9
			c0.1,0.1,0.2,0.3,0.4,0.4c0.2,0.2,0.3,0.4,0.5,0.6C423.2,311.5,422.9,311.4,422.6,311.4z M447.9,303.1c-0.3,0.2-0.6,0.4-0.9,0.6
			c-0.2-0.3-0.4-0.7-0.6-1c0.3-0.2,0.7-0.3,1-0.5c0.2,0.1,0.3,0.2,0.5,0.2C447.9,302.7,447.9,302.9,447.9,303.1z M447.9,302h-0.1
			c-0.2-0.4-0.1-0.1-0.1-0.6c0.1,0,0.2,0,0.2,0C447.9,301.6,447.9,301.8,447.9,302z M449.9,299.1c-0.9-0.5-1.7-0.2-2.6,0.1
			c0,0.3,0,0.7,0,1c-0.7-0.4-1-1.3-1.9-1c-1.2,0.8,0,2,0.2,3c-0.9-0.1-1.2,1-1.5,1.9c0.5,1.4,1,2,1.5,3.4c-0.9-0.4-1.7-2-2.2-2.8
			c-0.6,0.1-0.8,0.2-1,0.8c-0.6,1.6,1.2,3.9,2,4.8c0,0.1,0.1,0.3,0.1,0.4c-0.2,0.1-0.3,0.3-0.5,0.4c-0.9-1.1-1.5-2.4-3-2.5
			c-0.2-0.4-0.3-0.8-0.5-1.1c0.2-0.4,0.5-0.8,0.8-1.2c0.2-0.9-1.2-4.2-1.6-4.8c-0.2,0-0.4,0-0.6,0c-0.7,0.9-0.1,4.2,0.4,5.1
			c-1.3,1.4-0.5,3.8-0.1,5.6c-0.5,0-0.9,0-1.4,0c-0.5,0.1-1.4-1.2-1.6-1.9c0.5-0.5,0.6-0.6,0.9-1.4c-1.2-1.1-1.1-2.8-2.2-3.9
			c-0.2,0.1-0.4,0.2-0.6,0.2c-0.1,0-0.2,0.1-0.2,0.1c0,1.2,0,1.4,0.5,2.1c-0.7,0.6-1,0.8-1,2.2c0.4,0.4,0.8,0.8,1.1,1.1
			c0.4,0.6,0.4,0.5,0.4,1.5l-3-3.4c-0.3-1,0.5-2.1-0.6-2.8c-0.3,0-0.7-0.1-1-0.1c-0.5-0.5-0.1-0.8-1-1.1c-0.2,0.1-0.3,0.2-0.5,0.2
			c-0.2,0.6-0.4,1.5-0.1,2.1c0.3,0.9,1.1,1,1.4,1.4c0,0.4,0.1,0.8,0.1,1.2c-0.7,0.3-0.9,0.1-1,1c-0.1,0-0.2,0.1-0.2,0.1
			c-0.8-1.3-1.2-1.9-2.6-2.5c-0.2,0.2-0.4,0.5-0.6,0.8c-0.2,0-0.5,0-0.8,0c0,0.2,0,0.4,0,0.6h-0.1c-0.2-0.7-0.5-0.9-1-1.2
			c-0.5,0.2-0.7,0.2-0.9,0.9c-0.3-0.5-0.6-1.1-0.9-1.6c-0.2,0-0.5-0.1-0.8-0.1c-0.4,0.3-0.5,0.3-0.6,0.9c-0.1,0-0.2,0.1-0.2,0.1
			c-0.2-0.4-0.4-0.8-0.6-1.1c-0.2,0-0.4,0.1-0.6,0.1c-0.6,0.4-0.6,1-0.6,1.9c0.5,0.5,0.7,0.8,1.4,1.1c0,0.2,0,0.5,0,0.8
			c-0.6,0-1.2,0.1-1.8,0.1c-0.2-1.7-1.1-2.7-1.8-4.4c-0.3-0.2-0.7-0.3-1-0.5c-0.1,0.1-0.3,0.3-0.4,0.4c-0.2,0.4-0.2,4.2,0,4.8v0.1
			c-0.2,0-0.3,0-0.5,0h-0.1c-0.2-0.8-0.2-1.6-0.5-2.4c-0.4-0.3-0.6-0.4-1.4-0.4c-0.4,0.6-0.8,1.6-0.6,2.5v0.1
			c-0.8,0-1.7-0.1-2.5-0.1c-0.3-0.3-0.6-1.3-0.8-1.8c-0.6-0.4-1.2-0.4-1.9-0.6c-0.4,0.3-0.5,0.2-0.8,0.8c-0.3,0.3-0.1,0.9,0,1.5
			c-0.7-0.8-1.2-2.6-1.4-3.9c-0.3-0.2-0.7-0.3-1-0.5c-0.2,0.2-0.4,0.4-0.6,0.6c-0.4,1.1,0.6,2.4,0.9,3.6c-0.1,0.1-0.2,0.2-0.2,0.2
			c-0.4-0.2-0.6-0.3-1.1-0.1c-0.7-0.6-0.6-4-2.4-3.4c-1,0.6-0.5,1.9-0.2,3c-0.1,0-0.2,0.1-0.2,0.1h-0.1c-0.9-1.2-1-2.6-2.9-2.5
			c0,0.1,0,0.2,0,0.2c-0.4,0.6-0.2,1.4,0,2c-0.3,0-0.7-0.1-1-0.1c-0.4-0.6-0.7-1.2-1.1-1.8c-0.7,0.1-0.7,0.2-1.1,0.5
			c-0.5-0.5-0.9-0.9-1.4-1.4c-0.9,0.7-0.8,1.4-0.4,2.5c-0.8-0.3-0.8-1-1.4-1.4c-0.5,0-0.9,0-1.4,0c-0.6-0.6-1.3-1.3-1.9-1.9
			c-0.2,0.1-0.3,0.3-0.5,0.4c-0.4,0.3-0.4,0.7-0.4,1.5c0.3,0.3,0.6,0.7,0.9,1v0.1c-1-0.1-1.9-0.2-2.9-0.2c-0.1-0.2-0.2-0.5-0.2-0.8
			c0.5-1.2,0.4-1.4-0.1-2.6c-0.4-0.2-0.4-0.3-1.1-0.4c-0.8,1-0.5,2.1-0.5,3.4c-0.3,0-0.7,0.1-1,0.1c-1-1.2,0.3-3.9-2.1-4.1h-0.1
			c-0.7,1-0.9,2.4-0.6,3.8c-0.3,0-0.7-0.1-1-0.1c0.1-0.3,0.2-0.3,0.6-0.5c-0.2-0.8-0.4-1.5-0.6-2.1c-0.3-0.2-0.7-0.4-1-0.6
			c-0.2,0.2-0.5,0.3-0.8,0.5c-0.2,1.1,0,1.7,0.5,2.4v0.1c-0.5-0.1-0.9-0.2-1.4-0.4c0.1-1.3-0.1-2.5-1.6-2.8
			c-0.2,0.1-0.3,0.3-0.5,0.4c0,0.6,0,1.2,0,1.8c-0.5-0.2-1-0.3-1.5-0.5c-0.5-0.6-0.3-1.8-1.2-2.4c-0.3,0-0.7,0-1,0
			c-0.1,0.5-0.2,1-0.4,1.5c0,0.1,0,0.2,0,0.2c-0.5-0.1-0.9-0.2-1.4-0.2c0.1-1-0.1-2-1-2.4c-0.3,0-0.6,0-0.9,0
			c-0.1,0.5-0.2,1.1-0.4,1.6c0,0.1,0.1,0.2,0.1,0.2c-0.7-0.2-1.4-0.3-2.1-0.5c-0.3-1.3-0.2-2.2-1.4-2.6c-0.1,0-0.2,0-0.4,0
			c-0.5,0.3-0.6,1-0.6,1.8c-0.5-0.2-1.1-0.4-1.6-0.6c-0.1-0.6-0.2-1.2-0.4-1.8c-0.5-0.3-0.9-0.5-1.8-0.5c-0.2,0.3-0.2,0.4-0.2,1
			c-2,0.9-2-1.3-3.4-1.8c-0.2-1.4-0.1-2.2-0.9-3.4c-0.3,0-0.6,0.1-0.9,0.1c-0.7,1-1,2.2-0.5,3.5c0.2,0.2,0.4,0.4,0.6,0.6v0.1
			c-0.2,0-0.3,0-0.5,0c-0.5-0.5-0.9-1.1-1.4-1.6c-0.8-0.5-0.8,0.2-1.5-0.8c0.3-0.1,0.6-0.2,0.9-0.4c0.1-0.6,0.1-1.1-0.1-1.6
			c0.5,0.2,0.5,0.2,1,0.1c0.7-1.2,0.1-2.1-0.6-2.9c-0.3,0-0.6,0.1-0.9,0.1c0,0.6-0.1,1.2-0.1,1.8c-0.6-0.1-0.6-0.1-1.1,0.1
			c-0.1,1.3-0.1,1.7,0.6,2.5c-0.3,0.3-0.6,0.6-0.9,0.9c-0.2-0.5-0.3-1.1-0.5-1.6c-0.5-0.3-2.1-0.6-2.8-0.4c-0.8,0.5-0.6,1.7-0.2,2.5
			c-0.1,0.1-0.2,0.2-0.2,0.2c-0.7-0.8-0.2-1.3-0.8-2.2c-0.5-0.4-1.1-0.8-1.6-1.1c-0.2,0.1-0.5,0.2-0.8,0.2c-0.3,1.6-1.6,3.5-1.2,4.6
			c-0.1,0.1-0.2,0.3-0.4,0.4c-0.5-0.4-0.5-1.7-1-2.5c0.3,0.1,0.7,0.3,1,0.4c0.7-0.9,0.7-0.9,0.6-2.4c-0.5-0.4-0.9-0.8-1.4-1.2
			c-0.9,0.7-0.5,1.8-1,2.6c0,0.1-0.1,0.2-0.1,0.2c-0.1-1.1-1.4-2.7-1.9-3.9c-1-0.1-1.1,0.5-1.5,1.2c0.4,1,2.8,5.1,2.8,5.1
			c0.1,0.7-0.4,0.4-1.1,0.6c-0.3-1.6-1.9-1.9-2.1-3.1c-0.3-1.5-0.1-1.9-0.9-3c-0.2,0-0.5,0.1-0.8,0.1c-0.4,0.7-0.5,0.9-0.5,1.8
			c-0.6-0.7-0.6-1.2-1.9-1.4c-0.2,0.3-0.3,0.6-0.5,0.9c-0.3-0.1-0.6-0.2-0.9-0.2c0.2-0.5,0.5-1,0.8-1.5c0.1-0.3,0.7-0.1,1.2-0.1
			c0.5-0.7,0.4-1.3,0.4-2c-0.5-0.5-0.9-0.9-1.4-1.4c-0.7,0.4-0.9,1.1-0.8,2c-0.3-0.2-0.7-0.5-1-0.8c-0.5,0.1-0.4,0.1-0.8,0.4h-0.1
			c0.2-0.8,0.6-1,1-1.6c-0.3-0.8-1.5-2.3-1.6-2.9c-0.2-0.9,0.6-1.5,0.8-2.1c0.1-0.5-0.5-3.4-0.6-4.2c0.1,0,0.2,0,0.2,0
			c1.4-0.9,4.3,0.6,6,1c4.1,1.1,8.3,2,13.1,1.1c2.5-0.4,4.9-0.8,7.4-1.1c0.9,0.1,1.8,0.2,2.8,0.2c4.9-0.7,8.4-1.4,13.5-0.9
			c2.1,0,4.3,0,6.4,0c2.3,0.9,4.6,1.8,6.9,2.6c6.7,2.3,12.9,4.4,19.9,5.9c7.3,1.6,16.8-0.5,24-1.9c3.3-0.4,6.7-0.8,10-1.2
			c2.2,0.1,4.6,0.7,6.9,0c1.1-0.3,2.4-1.2,3.4-1.6c1.1-0.5,2.7-0.1,3.5-1.1c0.1,0,0.2,0,0.4,0C451,289,449.9,296.7,449.9,299.1z
			 M454.4,294.5c-0.2,0-0.3,0.1-0.5,0.1h-0.1c-0.2-0.6-0.5-1.3-0.8-1.9c0.6,0.3,1.1,1,1.4,1.6C454.4,294.4,454.4,294.5,454.4,294.5z
			 M469,293.6h0.1c0.2,0.5,0.3,0.9,0.5,1.4C469.1,294.6,469.1,294.2,469,293.6z M471.6,290.6h-0.1c-0.3-0.5-0.7-1-1-1.5
			c-0.2,0-0.5,0-0.8,0c-1.2,0.7-0.3,2.3,0.1,3.2c0,0.2,0,0.3,0,0.5c-0.6-0.2-1-1.4-1.6-2c0.5-0.7,0.3-2-0.6-2.4
			c-0.5-0.3-0.3-0.1-0.9,0.1c-0.1,0.6-0.2,1.3-0.2,1.9c0.3,0.2,0.7,0.4,1,0.6c0,1.9-0.4,3.9,0.2,5.9c-1.6-0.9-0.6-3.8-2.2-4.9
			c-0.2,0-0.4,0.1-0.6,0.1c-0.4,0.9-0.4,1.8,0,2.6c0,0.2,0,0.3,0,0.5h-0.1c-0.6-0.8-1.3-1.7-1.9-2.5c-0.7-0.2-0.8-0.2-1.4,0.1h-0.1
			c0.3-0.7,0.7-1.2,0.2-2c-0.2-0.6-0.7-0.8-1.1-0.9c-0.1,0-0.3,0-0.4,0c-0.4,1.3-0.7,3.6-0.2,4.5v0.1h-0.1c-1.6-1.7-0.1-3.3-1.9-5.4
			c0.2-0.1,0.3-0.2,0.5-0.2c0.2-1.3-0.3-1.9-1-2.6c-0.1,0-0.2,0-0.2,0c-0.5,0.3-0.5,0.4-0.8,1c0,1.2,0.2,1.6,1,1.9
			c-0.4,2-0.3,3.1-0.2,5c-0.1,0-0.2,0.1-0.2,0.1c-0.5-0.7-0.7-1.8-1.1-2.5c0.2-0.2,0.4-0.5,0.6-0.8c0-1.2-0.4-1.9-1.4-2.2
			c-0.1,0-0.3,0-0.4,0c-0.6,0.4-0.7,1.4-0.5,2.2c-1.4-0.7-1.2-2.7-2.8-3.4c0.1-1.4,0.7-1.6,0.8-3c-8.1-6-22.6-3.7-31.8-8
			c0-0.2-0.1-0.4-0.1-0.6c2.9-0.3,5.8-0.6,8.8-0.9c3.6,0.5,7.1,1.8,10.5,1.4c5.6-0.6,10.9-1.7,15.4-2.4c3-0.4,6,0.3,8.2,0.9
			c4.1,0.7,8.3,1.3,12.4,2c0,0.2,0.1,0.4,0.1,0.6c-1.3,0.6-2.8,2.3-2.9,4.1c-0.3,0-0.7,0.1-1,0.1C471.7,285,471.7,287.8,471.6,290.6
			z M482.4,302.8c0.1,0.3,0.2,0.6,0.4,0.9C482.3,303.3,482.3,303.3,482.4,302.8z M555.6,302.9c0.5,0.4,0.8,0.7,1,1.4
			C556,304,555.8,303.6,555.6,302.9z M559.9,303.6c-0.3,0-0.7,0-1,0c-0.2-0.6-0.5-1.2-0.8-1.8c0.2-0.2,0.4-0.5,0.6-0.8
			c0.4,0.7,0.8,1.4,1.2,2.1C560,303.4,559.9,303.5,559.9,303.6z M566.1,293.9c0,0.1-0.1,0.3-0.1,0.4h-0.1c-1-0.7-0.5-1.8,0.1-2.2
			C566.4,292.6,566.1,293.4,566.1,293.9z M566.4,300.6c-0.6-0.4-0.8-1.1-0.9-2c0.5,0.4,0.6,0.7,0.9,1.4
			C566.4,300.2,566.4,300.4,566.4,300.6z M568.7,289.6c-0.8-0.6-1.2-1.9-2.1-2.4c-0.4-0.3-0.4-0.2-0.9,0c-0.3,1.8,0.6,2.5,1,4
			c-0.1,0-0.2-0.1-0.2-0.1c-0.1,0-0.9-1.3-1.4-1.5c-0.6-0.4-2.1,2.9-1.8,4c-0.4-0.1-0.8-0.2-1.2-0.4H562c-0.4,0.7-0.5,1.2-0.4,2.1
			c-1,0.1-0.9,0.5-1.2,1.1c0.1,1.1,0.5,1.3,0.8,2.1v0.1c-0.1,0-0.2,0.1-0.2,0.1c-0.3-0.3-0.7-0.6-1-0.9c-0.2,0.1-0.3,0.2-0.5,0.2
			c-0.3,1.1-0.4,1.8-0.2,2.6c-1-0.8-0.6-2-2.2-2.2c-0.3,0.7-0.5,1.2-0.4,2c-0.4-0.3-0.8-0.6-1.1-0.9c-0.2,0.1-0.5,0.3-0.8,0.4
			c0,0.7,0,1.3,0,2c-0.2,0-0.3,0-0.5,0c-0.5,1-0.2,1.5,0,2.6c-1,0-2,0-3,0c-0.1,0-0.2-0.1-0.2-0.1c0-0.3,0.1-0.7,0.1-1
			c0.6,0.2,0.6,0.4,1.2,0.4c0.6-0.2,0.4-0.3,0.8-0.4c-0.2-0.5-0.3-1.1-0.5-1.6c-0.3-0.2-0.7-0.4-1-0.6c-0.2,0-0.3,0-0.5,0
			c-0.1,0.3-0.2,0.7-0.2,1c-0.2-0.2-0.5-0.5-0.8-0.8c-0.6,0.1-1,0.1-1.2,0.5c-1.1-0.1-1.3,1.6-0.8,2.5v0.1c-0.9-0.2-1.8-0.3-2.8-0.5
			c-1-0.7-0.9-1.6-2.2-2.1c0.1-0.4,0.3-0.7,0.2-1.8c-0.7-0.6-1.1-0.9-2.1-1.2c-1.3,1-0.6,2.8,0.8,3.4c0,0.5,0.1,1,0.1,1.5
			c-0.1,0.1-0.2,0.2-0.4,0.2c-0.3-0.1-0.6-0.2-0.9-0.4c-0.3-1.3-0.4-2.3-1.8-2.9c-0.4,0.3-0.4,0.2-0.5,0.9c-0.4-0.2-0.8-0.3-1.1-0.5
			c-0.3,0.4-0.6,0.8-0.9,1.1c0.1,0.4,0.2,0.8,0.4,1.1c-0.2,0-0.4,0-0.6,0c-0.6-0.9-0.9-2-1.6-2.8c-1.5-0.1-1.3,1.5-1,2.5h-0.1
			c-0.1,0-0.2,0-0.4,0c-0.9-0.5-2.6-2.8-3.4-3.6c-0.2,0-0.3,0-0.5,0c-0.2,0.2-0.5,0.4-0.8,0.6c0.2,1.3,0.7,1.6,0.8,3.1
			c-1.4,0-4.1-3.1-4.9-4c-0.2,0.1-0.5,0.2-0.8,0.2c-0.2,0.7-0.2,1-0.1,1.9c0.7,0.7,0.9,1,1.6,0.8c0.2,0.4,0.3,0.8,0.5,1.2
			c-0.4,0.1-0.8,0.2-1.2,0.2c-0.5-0.6-1.1-1.3-1.6-1.9c-0.1,0-0.2-0.1-0.4-0.1c-0.4,0.5-0.6,0.6-0.6,1.5h-0.1
			c-0.4-0.3-0.8-0.7-1.1-1c-0.8,0.2-0.8,0.6-1.5,0.5c-1.2,0.9-0.3,2,0,3.1c-0.7,0-0.7-0.1-1.1,0.1c-1-1.6-0.7-3.5-2.8-4
			c0,0.1,0,0.2,0,0.2c-0.9,1.1-0.1,2,0.1,3.2c-0.3,0-0.6,0-0.9,0c-0.8,0.6-0.6,1.1-0.5,2.2c-1,0-0.5,0-1.2-0.2c0,0.1,0,0.3,0,0.4
			c-0.1,0-0.2,0.1-0.2,0.1c-0.1,0-0.2-0.1-0.4-0.1c-0.1-0.1-0.2-0.2-0.2-0.4c0.7-0.2,1,0,1.4-0.8c0.8-1.2-1.6-3.7-2.2-4.5
			c-0.3,0-0.7,0.1-1,0.1c0,0.7-0.1,1.3-0.1,2c-0.1,0-0.2,0-0.2,0c-0.2-0.9-0.5-1.4-1.2-1.8c-0.1-0.1-0.3-0.2-0.4-0.2h-0.1
			c-0.3,0.5-0.4,1.1-0.4,2c0.3,0.3,0.6,0.7,0.9,1c0.7-0.1,0.9-0.2,1.1-0.9h0.1c0.5,0.7,0.2,2.2,0.1,3.5c-0.8-0.7-1.9-2-2.2-3.1
			c-0.4-0.3-0.5-0.5-1.2-0.5c-0.1,0-0.2,0.1-0.2,0.1c0,1-0.4,2.4-0.6,3.4c-0.7-0.3-1-0.9-1.5-1.4c-0.1,0-0.2,0.1-0.2,0.1
			c-0.4,0-0.2-0.1-0.2,0.4c-0.4,0.2-0.4,0.1-1.1,0.1c-0.4-0.7-3.1-3.1-3.9-3.4c-0.6,0.5-0.8,1.3-1,2.1h-0.1
			c-0.2-0.4-0.5-0.8-0.8-1.1c0.5-0.2,0.6-0.3,0.9-0.8c-0.2-2.6-1.3-1.5-2.1-2.1c-0.4-0.3-0.7-1.3-1.1-1.6c-0.3,0-0.6,0.1-0.9,0.1
			c0,1.1-0.4,2.7-0.2,3.9c0.3,0.5,0.6,1.1,0.9,1.6c-1.2-0.3-1.6-2.2-2-3.2c-0.2-0.1-0.4-0.2-0.6-0.4c-0.6,0.1-0.6,0.1-0.8,0.8H491
			c-0.2-0.2-0.4-0.5-0.6-0.8c0.1-0.2,0.2-0.3,0.2-0.5c-0.5-1.1-0.2-1.2,0.6-1.8c0-0.4,0-0.8,0-1.2c-0.3-0.3-0.7-0.7-1-1
			c-0.1-0.1-0.3-0.2-0.4-0.2h-0.1c-1.7,2.4-0.9,3.7-0.8,6.5c-1.5-0.2-1.2-1.6-2.4-2.1c0.5-2.1,1.5-4.2-0.1-6.1
			c-0.5,0.1-0.3,0-0.5,0.2c-0.6,0.5-0.7,2.6-0.8,3.4c-0.9-0.3-1.4-1.4-1.9-2.1c-0.5,0.1-0.3,0-0.5,0.2c-0.4,0.2-0.4,0.3-0.5,0.9
			c-0.5,1.5,1.6,1.8,0.9,3.5c0,0.1,0,0.2,0,0.2c-0.1,0-0.2,0.1-0.2,0.1c-0.6-1.5-1.9-2.2-3.4-2.8c-0.2,0.3-0.9,4.7-0.6,5.4
			c-0.1,0-0.2,0.1-0.2,0.1c-1.5-1-1.9-3.7-3.9-3.9c-0.2-0.5-0.7,1.8-0.8,2c0,0.1,0,0.2,0,0.2c-0.1,0-0.3-0.1-0.4-0.1
			c-0.1-0.7,0.5-1,0.4-1.6c-0.3-1.7-2-2.1-1.5-4.8c0.8-4.2,1.3-8.3,1.2-12.8c2-0.4,4.4,1.6,6.9,1.1c3.6-0.7,9.4-2.6,12.4-1.9
			c2.1,0.5,3.9,1.4,5.9,2c2,0.2,4.1,0.5,6.1,0.8c1.4,0.4,4.3,1.1,5.9,0.9c5.3-0.9,10.3-3.7,14-6.4c1-0.2,2-0.4,3-0.6
			c3.2-0.2,6.4-0.4,9.6-0.6c3.3-0.1,5.5,1.8,8.4,1.5c6-0.5,12.4,0.3,17.2-3c0.8,0.7,4.6-1.6,5.1-2.4c0.2,0,0.3,0.1,0.5,0.1
			c0.9,3.2,0.6,6.8,0.9,9.8c-0.3-0.2-0.7-0.4-1-0.6c-0.2,0-0.3,0.1-0.5,0.1c-0.2,0.5-0.3,1.1-0.5,1.6c0.3,0.6,0.6,1,1.4,1.2
			C568.8,288.5,568.8,288.5,568.7,289.6z M491.2,264c-0.2,0.1-0.5,0.3-0.8,0.4c0,0.1,0,0.3,0,0.4c1.4,0.5,2.7-0.5,4.5-0.1
			c0.7,0.3,1.3,0.6,2,0.9c1.1,0,2.3,0,3.4,0c1,0.4,2.1,0.8,3.1,1.2c5.6,1.2,14.6,1.4,18.8,0.4c1.6-0.4,3.3,0.1,5-0.6
			c1.1-0.7,2.3-1.3,3.4-2c0.7-3.9,0.1-8-2.8-10.2c-0.8-0.4-1.7-0.8-2.5-1.1c-0.6-0.5-1.2-0.9-1.8-1.4c-2.8-0.3-5.7-0.6-8.5-0.9
			c-4.3-0.8-7.4-3.4-12.1-3.5c-1.7,0.5-3.5,0.9-5.2,1.4c-3.7,1.9-9.5,6.5-8.6,11.6C489.4,262,490.8,262.6,491.2,264z M496.7,262
			c-0.1,0-0.2,0.1-0.2,0.1c-0.2-0.3-0.5-0.7-0.8-1c0.3,0.2,0.7,0.5,1,0.8V262z M518.2,266.5c-1.8,0.3-4.3-0.3-6-0.5
			c-4.7-0.6-9.5-0.8-14.2-2.4c1.1-1.8,9.5-0.3,11.9-1.1c3.9,0,6.5,1.3,9.8,1.9c1.5,0.3,4,0.1,4.6,0.9
			C522.8,265.2,520.1,266.2,518.2,266.5z M514.4,261.3c-0.5,0.3-1.1-0.1-1.8-0.4c0-0.5,0.1-1.1,0.1-1.6c0.2,0,0.4,0.1,0.6,0.1
			c0.1-0.4,0.2-0.8,0.2-1.2c0.5,0.2,0.3,0,0.5,0.4C514.4,259,513.9,260.2,514.4,261.3z M498.9,249.8c1.3-0.3,2.7-0.7,4-1
			c2,0.4,3.9,0.8,5.9,1.1c1.7,0.6,3.5,1.8,5.5,2.2c8.6,2,12.1,0.5,15,8.6c0,0.3,0,0.7,0,1c-0.5-0.2-0.9-0.4-1.4-0.6
			c0,0.2-0.1,0.3-0.1,0.5c-0.7-0.6-1.3-1.2-2-1.8c-0.1-0.1-0.2-0.2-0.2-0.2c0,0.1-0.1,0.2-0.1,0.2c-0.7,0.5-0.7,1.1-0.5,1.9
			c-1.4-0.4-1.6-1.9-3.1-2.2c-0.2,0.4-0.4,0.8-0.6,1.1c0.1,1.5,0.8,1.4,1.4,2.4c-1-0.5-1.4-1.3-2.4-1.8c-0.7-0.9-0.4-1-0.2-2.2
			c-0.3-0.3-0.7-0.6-1-0.9c-0.2-0.1-0.3-0.2-0.5-0.2c-0.3,0.8-0.5,1.3-1.1,1.8c-1.3-1.2-2-3.8-3.9-4.2c-0.2,0.5-0.3,1-0.5,1.5
			c-0.3,0-0.7-0.1-1-0.1c-0.1,0.7-0.2,1.1-0.1,1.8c-0.2,0-0.3-0.1-0.5-0.1c-0.4,0.4-0.6,0.6-0.8,1.2c-0.7-0.3-2.2-2.2-2.8-0.6
			c-0.4-0.2-0.8-0.3-1.2-0.5c-0.2,0.4-0.4,0.8-0.6,1.2c-1.1-0.5-2.3-1.4-3-2.2c-0.2,0-0.4,0-0.6,0c-0.2,0.5-0.3,0.9-0.5,1.4
			c-0.9-0.5-1.8-1.1-2.6-1.6c-0.3-0.1-0.2-0.3-0.4,0c-0.8,0.4-0.5,1.4-0.5,2c0.6,1,1.7,1.4,2.8,1.6c0,0.1,0.1,0.3,0.1,0.4
			s-0.1,0.2-0.1,0.2c-3.7-0.2-3.6-4.8-6.8-5.4c-0.1,0-0.2,0.1-0.2,0.1c-0.7,1.7,0.1,2.2,0.1,3.9c-1.4-0.2-1.6-0.3-2.8-0.9
			c-0.1,0.2-0.3,0.4-0.4,0.6c-0.2,0-0.3,0-0.5,0C491.1,254.2,494.7,252.2,498.9,249.8z M553.1,254.8c0.2-0.4-0.9-1.2-1.4-1.4
			c-0.1,0.1-0.2,0.3-0.4,0.4c0.1,0.6,0.2,1.2,0.2,1.8c0.3,0.2,0.7,0.3,1,0.5c0.1-0.2,0.2-0.3,0.4-0.5
			C553.2,255.2,553.2,255.2,553.1,254.8z M504,257c0.2-0.2,0.5-0.5,0.8-0.8c-0.4-0.9-0.9-1.5-2-1.8c-0.3,1.2-0.7,1.5,0,2.5
			C503.2,257,503.6,257,504,257z M557.9,254.9c0,0.7-0.1,1.4-0.1,2.1c0.2,0.2,0.5,0.4,0.8,0.6c0.1,0.1,0.2,0.2,0.2,0.2
			c0.5-0.5,1-0.6,0.8-1.6C559.2,255.5,558.7,255.1,557.9,254.9z M509.6,258.5h0.1c0.7-1.2,0.5-2.2-0.5-2.9c-0.1,0-0.3,0-0.4,0
			c-0.4,0.9-0.5,1-0.4,2.2C508.9,258.1,509.2,258.3,509.6,258.5z M523,259.3c0.4,0,0.8-0.1,1.1-0.1c0.1-0.8,0.1-1.2-0.1-1.9
			c-0.5-0.3-0.7-0.6-1.4-0.8c-0.3,0.7-0.6,1.2-0.2,2C522.6,258.8,522.8,259,523,259.3z M526.2,259.8c0.1,0,0.2,0,0.4,0
			c0.3-0.3,0.7-0.6,1-0.9c0-0.4-0.1-0.8-0.1-1.1c-0.5-0.3-0.9-0.7-1.4-1c-0.3,0.4-0.6,0.8-0.9,1.1c0,0.4,0.1,0.8,0.1,1.2
			C525.7,259.4,526,259.6,526.2,259.8z M553.1,259.3c0.2,0.2,0.4,0.4,0.6,0.6c0.5-0.3,0.7-0.5,1.1-0.9c0-0.2,0-0.4,0-0.6
			c-0.6-0.5-1.2-0.9-1.8-1.4C552.8,257.8,552.7,258.5,553.1,259.3z M582.2,257.8c0,0.5,0,1,0,1.5c0.3,0.2,0.6,0.5,0.9,0.8
			c0.4-0.2,0.8-0.5,1.2-0.8c-0.4-1-0.5-1.9-1.6-2.2C582.6,257.3,582.4,257.5,582.2,257.8z M239.1,270.1c0.3,0.2,0.7,0.5,1,0.8
			c0.4-0.2,0.8-0.5,1.1-0.8c0-0.5,0-1,0-1.5c-0.5-0.4-1-0.8-1.5-1.1c-0.2,0.2-0.3,0.4-0.5,0.6C238.8,268.8,239.3,269.3,239.1,270.1z
			 M231.5,273c0.2-0.2,0.5-0.5,0.8-0.8c0.3-0.4,0.2-0.7,0.1-1.4c-0.4-0.4-0.8-0.8-1.1-1.1c-0.3,0-0.6-0.1-0.9-0.1
			c-1.1,0.8-0.5,1.9-0.1,2.9C230.7,272.7,231.1,272.9,231.5,273z M223.4,273.1c-0.5-1.7-0.7-2.1-2-2.9c-0.4,0.4-0.6,0.4-0.9,1
			c-0.4,0.6-0.1,1.4,0.1,2.1c0.3,0.2,0.6,0.4,0.9,0.6C222.5,273.6,222.6,273.8,223.4,273.1z M239.1,270.5c-0.2,0-0.4-0.1-0.6-0.1
			c-0.5,0.9-0.7,1-0.6,2.4c0.7,0.8,1.3,0.9,2.6,0.5C240.8,272.3,240.1,271,239.1,270.5z M592.5,271.1c-0.2,0.7-0.4,1.4-0.6,2.1
			c0.3,0.3,0.7,0.6,1,0.9c0.4-0.2,0.8-0.4,1.2-0.6C594,272.4,593.6,271.4,592.5,271.1z M576.6,274.8c0.4-0.3,0.4-0.4,0.6-0.9
			c-0.3-1-0.5-1.7-1.8-1.9c-0.1,0.7-0.2,1.3-0.4,2c0.4,0.4,0.6,0.7,1.1,1C576.4,274.9,576.5,274.9,576.6,274.8z M616.1,275.1
			c0.2,0,0.3-0.1,0.5-0.1c0.1,0,0.2-0.1,0.4-0.1c0.1-0.6,0.2-1.3,0.2-1.9c-0.4-0.2-0.8-0.5-1.1-0.8c-0.2,0.8-0.5,1.3-0.5,2.5
			C615.8,274.9,616,275,616.1,275.1z M240.9,273.6c-0.2,0-0.5,0-0.8,0c-0.1,0.2-0.3,0.3-0.4,0.5c-0.1,0.7-0.2,1.3-0.2,2
			c0.4,0.3,0.8,0.6,1.2,0.9c0.2,0,0.4-0.1,0.6-0.1c0.4-0.6,0.4-1.6,0.9-1.9C242,274.4,241.3,274.2,240.9,273.6z M249.2,276.9
			c0.7-0.1,0.9-0.1,1.1-0.6c0.2-0.3,0.1-0.6,0.2-1.1c-0.4-0.6-0.6-1.1-1.1-1.5c-0.1,0-0.3,0-0.4,0c-0.9,0.6-1.1,1.7-0.5,2.6
			C248.8,276.5,249,276.7,249.2,276.9z M207.1,273.8c0,0.1,0,0.3,0,0.4c0.1,0,0.3,0,0.4,0C207.3,273.7,207.6,274,207.1,273.8z
			 M205,274.1c-0.1,0-0.2,0-0.4,0c0,0.2-0.1,0.3-0.1,0.5c0.2,0,0.3,0,0.5,0C205,274.5,205,274.3,205,274.1z M208.5,274.1
			c-0.2,0-0.3,0-0.5,0c0,0.1,0,0.3,0,0.4c0.2,0,0.3,0,0.5,0C208.5,274.4,208.5,274.3,208.5,274.1z M211.1,274.4c0,0.1,0,0.3,0,0.4
			c0.1,0,0.3,0,0.4,0C211.3,274.3,211.6,274.6,211.1,274.4z M190,274.8c0,0.2-0.1,0.3-0.1,0.5c0.3,0,0.7,0,1,0
			C190.7,274.7,190.7,274.8,190,274.8z M191.4,274.8c-0.1,0-0.2,0-0.4,0c0,0.2,0,0.3,0,0.5c0.1,0,0.3,0,0.4,0
			C191.4,275.1,191.4,274.9,191.4,274.8z M212.2,274.8c0,0.1,0,0.3,0,0.4c0.1,0,0.3,0,0.4,0v-0.1
			C212.5,274.9,212.4,274.9,212.2,274.8z M189.1,274.9c-0.1,0-0.2,0-0.4,0c-0.1,0.2-1.4,0.9-2.1,1c0,0.5,0.3,0.2-0.1,0.5
			c0,0.1,0,0.3,0,0.4c1-0.3,1.2-1,2.4-1.1C189,275.4,189,275.1,189.1,274.9z M194,275.1c0,0.1,0,0.3,0,0.4c0.1,0,0.3,0,0.4,0
			C194.1,275.1,194.4,275.4,194,275.1z M196.6,275.1c0,0.1,0,0.3,0,0.4c0.1,0,0.3,0,0.4,0C196.8,275.1,197.1,275.4,196.6,275.1z
			 M212.9,275.4c0,0.1,0,0.3,0,0.4c0.1,0,0.3,0,0.4,0C213,275.3,213.3,275.6,212.9,275.4z M254.4,276.6c-0.7,0.6-0.9,1.1-0.9,2.5
			c0,0.1,0.1,0.2,0.1,0.2c0.6,0.4,0.8,0.5,1.4,0.8c0.3-0.2,0.6-0.5,0.9-0.8c0-0.5-0.1-1-0.1-1.5C255.3,277.4,255.1,277,254.4,276.6z
			 M186,277.4c-0.1,0-0.2,0-0.4,0c0,0.2-0.1,0.3-0.1,0.5c0.2,0,0.3,0,0.5,0C186,277.7,186,277.6,186,277.4z M220.4,278.6
			c-0.1-0.1-0.3-0.2-0.4-0.2c0.1,0.1,0.2,0.3,0.2,0.4h0.1C220.4,278.7,220.4,278.7,220.4,278.6z M307.6,278.5
			c-0.4,0.5-0.8,1-1.2,1.5c0,0.4,0,0.8,0,1.2c0,0.1,0.1,0.3,0.1,0.4c0.9,0.2,1.3-0.1,2-0.2c0.5-1,0.2-1.7-0.1-2.6
			C308.1,278.7,307.9,278.6,307.6,278.5z M658.4,278.6c-0.4,0-0.8-0.1-1.1-0.1c-4.3,2.1-11,0.2-15,0.1c-2.1-0.1-4.9,0.5-6.8,1
			c0.7,1,3.7-0.3,4.8-0.2c3.9,0.4,7.8,0.8,11.8,1.1c2.5-0.3,4.9-0.6,7.4-0.9c0.1-0.1,0.2-0.2,0.2-0.2
			C659.4,278.7,659,278.5,658.4,278.6z M613.5,282.3c0.2-0.5,0-0.3,0.4-0.5v-0.1c-0.2-0.2-0.4-0.5-0.6-0.8c-7,0.6-12.7-1.9-19.4-2.1
			c-3,1.2-7.3,0.5-8.8,2.8c-0.2,0.3-0.1,0.1-0.1,0.5c0.1,0,0.2,0.1,0.4,0.1C594.4,276.8,604,283.6,613.5,282.3z M249.6,279
			c-0.1,0-0.3,0-0.4,0c-0.3,0.4-0.6,0.8-0.9,1.1c0.1,0.6,0.2,1.2,0.2,1.8c0.2,0.1,0.5,0.3,0.8,0.4c0.1,0,0.2-0.1,0.2-0.1
			c0.5,0.1,0.7,0,1-0.5c0.3-0.4,0.2-0.9,0.1-1.6C250.4,279.7,250,279.4,249.6,279z M181.1,279.3c0,0.1-0.1,0.3-0.1,0.4
			c0.1,0,0.3-0.1,0.4-0.1C181.3,279.4,181.2,279.4,181.1,279.3z M261.6,279.3c-0.7,1-0.5,1.4-0.4,2.8c0.1,0.1,0.2,0.3,0.4,0.4
			c0.4,0,0.8,0.1,1.1,0.1c0.2-0.2,0.4-0.4,0.6-0.6c0-0.4,0-0.8,0-1.1c-0.1-0.2-0.3-0.5-0.4-0.8C262.5,279.7,262.3,279.5,261.6,279.3
			z M228,279.5c0,0.1,0,0.2,0,0.2c0.1,0,0.3-0.1,0.4-0.1v-0.1C228.2,279.5,228.1,279.5,228,279.5z M315.1,283.5
			c0.7-0.9,0-1.8-0.5-2.5c-0.2,0-0.4-0.1-0.6-0.1c-0.2,0.2-0.3,0.3-0.5,0.5c-0.2,0.8-0.2,1.4,0,2.2C314,284,314.7,284.2,315.1,283.5
			z M195.4,281.8c0,0.1,0,0.3,0,0.4c0.1,0,0.3,0,0.4,0C195.5,281.7,195.8,282,195.4,281.8z M230.7,285.4c0.5,0,1-0.1,1.5-0.1
			c0.2-0.8,0.2-1.2,0.1-2.1c-0.7-0.3-1.1-0.6-2-0.9c-0.2,0.2-0.3,0.4-0.5,0.6c0.2,0.3,0.2,0.8,0,1.4
			C230.2,284.6,230.5,285,230.7,285.4z M218.4,283c0.1,1.6,0,1.7,0.6,3c0.8,0.2,1.4-0.2,2.1-0.4c0.1-1.7,0.2-2.9-2-2.9
			C218.9,282.9,218.6,282.9,218.4,283z M270.7,282.8c-1,0.7-0.8,1.2-1.1,2.6c0.5,0.4,0.8,0.5,1.5,0.8c0.5-0.2,0.5-0.3,0.8-0.8
			C272.4,284.3,271.5,283.3,270.7,282.8z M565,283c-0.3,0.8-0.7,1.8,0.2,2.2c0.2,0,0.4,0.1,0.6,0.1c0.6-0.9,0.4-1.5-0.2-2.2
			C565.4,283.1,565.2,283.1,565,283z M200.5,287.1c0.5,0.1,1.2,0.1,1.5,0.4c0.8-0.4,0.5-1.2,0.9-1.6c-0.1-1-0.6-1.5-1.2-1.9
			c-0.2-0.2-0.6-0.1-1-0.2c-0.2,0.1-0.4,0.2-0.6,0.4c-0.1,0-0.2,0-0.4,0c0.1,0.9,0,0.7,0,1.8C200,286.3,200.2,286.6,200.5,287.1z
			 M198,284.3c0,0.2,0,0.3,0,0.5c0.1,0,0.3,0,0.4,0c0-0.2,0-0.3,0-0.5C198.2,284.3,198.1,284.3,198,284.3z M280.2,284.3
			c-0.9,0.7-1,1.5-0.6,2.9c0.3,0.2,0.6,0.4,0.9,0.6c0.1-0.1,0.2-0.2,0.4-0.4c0.8-0.5,0.9-1.6,0.2-2.5
			C280.9,284.5,280.7,284.4,280.2,284.3z M465.4,284.8c-0.1,0-0.3,0-0.4,0c-0.3,0.4-0.5,0.5-0.6,1.2c-0.2,0.4,0,0.8,0.2,1.1
			c0.2,0.2,0.5,0.4,0.8,0.6c0.2-0.1,0.5-0.2,0.8-0.2c0.1-0.2,0.2-0.4,0.4-0.6C466.5,285.8,466,285.3,465.4,284.8z M469.1,284.8
			c-0.2,0.6-0.4,1.3-0.6,1.9c0.4,0.5,0.5,0.9,1.1,1.2c0.2,0,0.3,0.1,0.5,0.1h0.1c0.6-0.9,0.5-1.6,0.1-2.6
			C470,285.2,469.5,285,469.1,284.8z M293.4,288.1c0.3-0.5,0.4-0.9,0.1-1.6s-0.7-1.1-1.4-1.4c-0.3,0.3-0.6,0.7-0.9,1
			c0,0.5,0,1.1,0,1.6c0.5,0.3,0.7,0.5,1.4,0.8C292.9,288.4,293.1,288.3,293.4,288.1z M302.1,287.9c0.3,0.6,0.6,0.7,1.5,0.6
			c0.1,0,0.2-0.1,0.2-0.1c0.2-0.7,0.4-1.5,0.6-2.2c-0.8-0.3-0.8-0.7-1.8-0.9C302.4,285.9,301.6,286.8,302.1,287.9z M576.7,288.1
			c0.2,0,0.4,0,0.6,0c0.1-0.1,0.2-0.2,0.2-0.4c0-0.3,0-0.6,0-0.9c0.1-0.8-0.5-1.5-1.4-1.6c-0.4,0.6-0.5,0.9-0.5,2
			C576.1,287.6,576.4,287.9,576.7,288.1z M315.1,285.5c-0.4,0.5-0.8,1.1-1.1,1.6c0.3,1.6,0.5,1.6,2,1.8c0.1-0.2,0.2-0.3,0.4-0.5
			C316.5,286.9,316.3,286,315.1,285.5z M283.6,287.4c-0.2,0.2-0.4,0.3-0.6,0.5c-0.3,1-0.4,1.8-0.1,2.6c0.1,0.1,0.2,0.2,0.2,0.2
			c0.4,0,0.8,0.1,1.2,0.1c0.2-0.3,0.5-0.7,0.8-1c-0.1-0.5-0.3-1-0.4-1.5C284.5,287.8,284.2,287.6,283.6,287.4z M562.4,287.5
			c-0.2,0-0.4-0.1-0.6-0.1c-0.1,1-0.2,1.1-0.1,2.2c0.3,0.2,0.7,0.3,1,0.5c0.3-0.2,0.6-0.4,0.9-0.6
			C563.5,288.4,563.1,287.9,562.4,287.5z M631.2,287.6c-0.1,0.2-0.2,0.3-0.4,0.5c0,0.4-0.1,0.8-0.1,1.1c0.5,0.5,1,1.1,1.5,1.6
			c0.1,0,0.2,0.1,0.4,0.1c0.3-0.7,0.5-1.4,0.8-2.2c-0.5-0.4-1-0.8-1.5-1.2C631.7,287.6,631.5,287.6,631.2,287.6z M462.7,288
			c-0.4,0.5-0.7,0.9-0.6,2c0.3,0.2,0.6,0.5,0.9,0.8c0.7,0.3,1.1-0.1,1.5-0.5C464.4,289.1,463.9,288.2,462.7,288z M599,291
			c0.2,0,0.3-0.1,0.5-0.1c0.2-0.2,0.4-0.5,0.6-0.8c0-1.2-0.4-1.8-1.4-2.1c-0.1,0.2-0.2,0.4-0.4,0.6c-0.3,0.4-0.2,0.7-0.1,1.2
			C598.1,290.4,598.6,290.7,599,291z M242,289.8c-0.5-0.7-1.3-0.9-2-1.1c-1.3,0.9-12.5,2.2-14,1.9c-0.5-0.3-1.1-0.7-1.6-1
			c-1.3-0.4-4.6-0.1-5.5,0.2c0.1-0.2,0.2-0.3,0.2-0.5c-0.8,0.3-3.6,1.5-5.8,0.6c0-0.1-0.1-0.1,0-0.1c0-0.1,0-0.2,0-0.4
			c-3.4,1.2-7,0.4-9.6,0.1c-1.9-0.2-4.9,1.1-6.6,0.9c-0.1,0.3-0.2,0.7-0.2,1c-0.2,0.4-0.1,0.2,0,0.9c1.5-0.2,2.7-0.8,4-1
			c1.2-0.2,2.6,0.1,3.8-0.1c2.1,0.7,4.5,0.8,6.8,0.2c-0.1,0.1-0.2,0.3-0.2,0.4c0.2,0,0.3,0.1,0.5,0.1c0-0.2-0.1-0.3-0.1-0.5
			c2.8,0.6,4.1-0.6,7.2-0.1c0.1,0-0.1,0.6,0.4,0.4c0.5-0.3,1.2-0.9,2.4-0.6c3.3,0.9,8.1,1.3,12.8,0.2
			C236.7,290.7,241.3,291.8,242,289.8z M358.5,292c0.1-0.4,0.2-0.8,0.2-1.1c0.2-0.8-0.4-1.7-1.1-2c-0.2,0-0.4-0.1-0.6-0.1
			c-0.7,1.3-0.4,2.5,0.5,3.4C357.8,292.1,358.2,292.1,358.5,292z M203.2,289.4v-0.1c-0.1-0.1-0.2-0.2-0.4-0.2
			c0.1,0.1,0.2,0.3,0.2,0.4C203.2,289.4,203.2,289.4,203.2,289.4z M219.9,289.4v-0.1c-0.1-0.1-0.3-0.2-0.4-0.2c0,0.1,0,0.3,0,0.4
			C219.6,289.4,219.7,289.4,219.9,289.4z M206.7,289.1c0.1,0.1,0.2,0.3,0.2,0.4h0.1C206.9,289.1,207.2,289.4,206.7,289.1z
			 M211.9,289.3c0,0.1,0,0.3,0,0.4c0.2,0,0.3,0,0.5,0c0-0.1,0-0.2,0-0.4C212.2,289.3,212,289.3,211.9,289.3z M287.1,289.6
			c-0.9,1-1.6,2.8,0.2,3.2c0.5,0.2,0.7-0.1,1.1-0.4c0-0.8,0-1.5-0.2-2C288,290.1,287.7,289.9,287.1,289.6z M614.6,293.1L614.6,293.1
			c0.6-0.7,0.8-0.8,0.7-2.1c-0.4-0.3-0.8-0.7-1.1-1c-0.3,0.7-0.5,1.2-0.8,2c0.3,0.4,0.6,0.8,0.9,1.1
			C614.5,293.1,614.5,293.1,614.6,293.1z M292.6,290.5c-0.6,0.8-0.9,1.4-0.9,3c0.4,0.2,0.8,0.3,1.2,0.5c0.9-0.5,1-0.9,1.1-2.1
			C293.7,291.3,293.3,290.9,292.6,290.5z M200.6,291.9h0.1c-0.1-0.1-0.2-0.2-0.4-0.4C200.5,291.6,200.5,291.8,200.6,291.9z
			 M214.7,292c0.4-0.2,0.2,0.1,0.4-0.4c-0.1,0-0.2,0-0.2,0C214.8,291.8,214.8,291.9,214.7,292z M224.2,292.1h0.1V292
			c-0.1-0.1-0.3-0.2-0.4-0.2C224.1,291.9,224.2,292,224.2,292.1z M555.1,291.8c-0.1,0.2-0.2,0.5-0.4,0.8c-0.3,0.6,0,1.5,0.1,2
			c0.5,0.4,0.9,0.5,1.5,0.6c0.2-0.6,0.5-0.7,0.4-1.2C556.9,293,556,292.1,555.1,291.8z M558.2,291.8c-0.2,0.5-0.4,1.1-0.6,1.6
			c0.3,0.7,0.6,1,1.2,1.4c0.7-0.3,0.9-0.4,1.1-1.1C559.6,292.7,559.4,291.9,558.2,291.8z M331.2,292.5c-0.4,0.6-0.5,1.2-0.8,2.1
			c0.2,0.3,0.5,0.6,0.8,0.9c0.1,0,0.2,0.1,0.4,0.1c0.4-0.2,0.4-0.1,0.6-0.5c1.1-0.5,0-2-0.4-2.5
			C331.7,292.6,331.5,292.6,331.2,292.5z M240.7,295.4c0.5-0.6,0-1.6-0.6-2c-0.5-0.2-0.9-0.3-1.4-0.5c-0.1,1.4,0,1.9,0.5,3
			c0.7,0,0.8,0.1,1.1-0.1C240.5,295.6,240.6,295.5,240.7,295.4z M356.7,293.6c-0.5-0.3-0.8-0.6-1.6-0.8c-0.2,0.1-0.3,0.2-0.5,0.2
			c-0.1,0.8-0.1,1.7,0.1,2.4c0.3,0.2,0.7,0.3,1,0.5c0.5-0.5,1.1-0.4,1.5-1C357.1,294.6,356.9,294.1,356.7,293.6z M478.6,292.9
			c-1.2,1.5,0,3.8,1.4,2.1C479.7,293.9,479.5,293.4,478.6,292.9z M486.4,293.1c-0.2,0.3-0.3,0.6-0.5,0.9c0.1,1.2,0.5,1.7,1.2,2.1
			c0.4-0.2,0.8-0.3,1.2-0.5c-0.4-1-0.5-1.5-1.2-2.5C486.9,293.1,486.6,293.1,486.4,293.1z M336,293.4c-0.7,1.3-0.7,2.8,0.6,3.5
			c0.2,0,0.5,0,0.8,0c0.2-0.6,0.3-1.2,0.5-1.8C337.3,294.4,337.2,293.6,336,293.4z M447.9,293.4c-0.3,0.2-0.6,0.5-0.9,0.8
			c0,0.8,0.1,1.2,0.4,1.6c0.2,0.2,0.3,0.3,0.5,0.5c0.2,0,0.5,0,0.8,0c0.2-0.3,0.5-0.6,0.8-0.9C449,294.5,448.7,293.8,447.9,293.4z
			 M345.6,293.8c-0.2,0.2-0.4,0.5-0.6,0.8c-0.1,1.6,0.5,2.8,1.9,2c0.1-0.1,0.2-0.2,0.4-0.4c0.2-0.3,0.1-0.3,0.1-1
			C346.8,294.5,346.6,294,345.6,293.8z M552.4,293.9c0,0.1,0,0.2,0,0.2c-0.7,0.8-0.3,1.9,0.5,2.2c0.2,0,0.5,0.1,0.8,0.1
			c0-0.8,0.2-0.8,0.4-1.4c-0.4-0.3-0.8-0.7-1.1-1C552.7,294.1,552.5,294,552.4,293.9z M538.5,294.1c-0.4,0.7-0.6,1.1-0.6,2
			c0.3,0.4,0.7,0.8,1,1.1c0.5,0,1-0.2,1.4-0.8C539.9,295.3,539.7,294.5,538.5,294.1z M531.2,294.5c-0.2,0-0.4-0.1-0.6-0.1
			c-0.2,0.5-0.3,1.1-0.8,1.4c0.4,0.7,0.7,1.2,1.4,1.6c0.4-0.1,0.8-0.2,1.1-0.4C532.4,295.9,532.4,295,531.2,294.5z M494.1,294.9
			c-0.2,0.6-0.4,1.2-0.6,1.8c0.2,0.4,0.5,0.8,0.8,1.1c0.4-0.1,0.8-0.2,1.1-0.2c0.1-0.2,0.2-0.4,0.2-0.6
			C495.5,295.8,495,295.2,494.1,294.9z M555.5,295.4c-0.1,0-0.2,0-0.4,0c-0.1,0-0.2,0.1-0.4,0.1c-0.3,1.4-0.1,2,0.6,2.9
			c0.4-0.1,0.8-0.2,1.1-0.2C556.8,296.9,556.4,296.1,555.5,295.4z M217.5,296.1c-0.4-0.4-0.6-0.4-1.2-0.5c-0.3,0.2-0.2,0.2-0.8,0.2
			c0,0.7-0.1,0.5-0.2,1.2c0.6,0.3,0.5,1,1,1.4c0.2,0.1,0.4,0.3,0.6,0.4c0.9-0.1,1-0.3,1.6-0.5C218.3,297.6,218.3,296.7,217.5,296.1z
			 M544.4,295.6c-0.2,0-0.3,0.1-0.5,0.1c0,0.7-0.1,1.3-0.1,2c0,0.1,0.1,0.2,0.1,0.2c1.2,1,0.5,3.7,2.6,3.6c0.2-0.5,0-0.4,0.6-0.5
			C546.7,299.6,545.7,296.2,544.4,295.6z M549,295.6c-0.4,0.9-0.7,1.9,0,2.6c0.2,0.2,0.5,0.5,0.8,0.8c0.6-0.4,0.9-0.8,1.1-1.6
			C550.2,296.7,550,296.1,549,295.6z M251,295.8c-3.3,0.4-6.6,0.8-9.9,1.2c-0.3,0.2-0.3,0.1-0.5,0.4c-0.2,0.2-0.3,0.3-0.5,0.5
			c1.5,1.3,2.5,0.3,4.5,0.4c4.3,0.1,6.2-1.7,10.6,0.4c0.3-0.3,0.2-0.2,0.4-0.6c0.5-0.4-0.1-0.2,0.2-0.6
			C255.1,295.8,252.8,295.8,251,295.8z M368.4,296.1c-0.2,0.5-0.4,0.9-0.6,1.4c0.2,0.5,0.3,1,0.5,1.5c0.3,0.1,0.7,0.2,1,0.2
			c0.2-0.1,0.3-0.2,0.5-0.2c0.2-0.6,0.3-0.8,0.1-1.5C369.6,296.8,369.2,296.4,368.4,296.1z M282.6,299c0.3-1.2,0.1-2.2-1-2.4
			c-0.7,0.2-1.5,0.3-2.2,0.5c-0.1,0.5-0.3,0.9-0.4,1.4c0.3,0.7,0.4,1.4,1.2,1.6C281,300.4,282.2,299.5,282.6,299z M520,296.6
			c-0.1,0.1-0.2,0.3-0.4,0.4c-0.2,0.8-0.2,1.3,0,2c0.2,0.2,0.4,0.3,0.6,0.5c0.6-0.1,1-0.4,1.4-0.8c-0.1-1.1-0.5-1.4-1-2
			C520.4,296.7,520.2,296.7,520,296.6z M477.6,296.8c-0.4,0.6-0.5,0.8-0.5,2c0.2,0.2,0.5,0.5,0.8,0.8c0.4,0.2,0.1,0.1,0.6,0.1
			c0.2-0.3,0.2-0.3,0.6-0.5C479.1,297.8,478.5,297.2,477.6,296.8z M534.9,296.9c-0.1,0.2-0.2,0.3-0.2,0.5c-0.4,0.5-0.1,1.2,0.1,1.9
			c0.7,0.5,1,0.5,1.6,0.5c0.1-0.5,0.2-0.9,0.2-1.4c-0.1-0.2-0.2-0.5-0.4-0.8C535.8,297.3,535.7,297,534.9,296.9z M302.2,299.6
			c0-1.6-0.4-1.9-1.1-2.6c-0.2,0-0.5,0-0.8,0c-0.2,0.7-0.3,1.5-0.5,2.2c0.2,0.2,0.3,0.3,0.5,0.5c0.4,0.2,0.8,0.3,1.1,0.5
			C301.7,300.1,302,299.9,302.2,299.6z M475.4,299c0.2-0.8-0.5-1.7-1.4-1.9c-0.4,0.5-0.5,1.1-0.6,1.9c0.2,0.3,0.4,0.7,0.6,1
			c0.7,0.1,0.6,0,1.2-0.1C475.3,299.6,475.3,299.3,475.4,299z M360.7,297.4c-0.1,0-0.2,0.1-0.2,0.1c-0.3,1.2-0.2,1.9,0.4,2.8
			c0.5,0,0.9-0.1,1.4-0.1c0.1-0.2,0.2-0.4,0.2-0.6c-0.1-1-0.4-1.2-0.6-1.9C361.5,297.6,361.1,297.5,360.7,297.4z M503.1,300
			c0-1.4-0.4-2-1.1-2.5c-0.1,0-0.3,0-0.4,0c-0.2,0.4-0.5,0.8-0.8,1.1c0.1,1.1,0.3,1.8,1.4,2C502.5,300.4,502.8,300.2,503.1,300z
			 M386.7,300.5c0.9-1,0.1-2-0.5-2.8c-0.2,0-0.5,0-0.8,0c-0.4,0.6-0.5,1.1-0.5,2.1c0.1,0.1,0.2,0.3,0.2,0.4
			C385.7,300.6,386.2,301,386.7,300.5z M374.2,298.5c-0.1,0-0.2,0.1-0.2,0.1c-0.9,1.6,0,3.4,1.8,2.4c0.1-0.7-0.2-1.1-0.4-1.9
			C375,298.9,374.6,298.7,374.2,298.5z M412.2,298.8c-0.4,0-0.8-0.1-1.1-0.1c-0.1,0.2-0.2,0.3-0.2,0.5c-0.1,0.8,0.5,3,1.8,2.2
			c0.2-0.2,0.4-0.5,0.6-0.8C413.2,299.7,412.8,299.2,412.2,298.8z M266.1,298.8c-0.2,0-0.5,0-0.8,0c-0.3,0.2-0.6,0.5-0.9,0.8
			c0.2,1.4,0.4,2.2,1.4,2.8c1.2-0.4,1.4-1,1.2-2.4C266.8,299.5,266.5,299.1,266.1,298.8z M357.9,299.1c-0.2,0.3-0.5,0.7-0.8,1
			c0.3,1.2,0.4,1.6,1.4,2.1c0.6-0.3,0.9-0.5,1-1.4c-0.3-0.5-0.7-1.1-1-1.6C358.3,299.2,358.1,299.2,357.9,299.1z M512.6,299.4
			c-0.2,0.2-0.4,0.3-0.6,0.5c-0.2,0.7-0.1,1.4,0.1,2c0.4,0.2,0.8,0.4,1.2,0.6c0.4-0.4,0.7-0.6,0.9-1.2
			C513.9,300.5,513.5,299.7,512.6,299.4z M476.2,299.5c-0.6,0.5-0.4,1.1-1.1,1.4c0.4,0.7,0.8,1.3,1.6,1.6
			C478.4,303.1,477.8,299.8,476.2,299.5z M433.2,300.3c-0.3,0.6-0.5,1-0.5,2.1c0.5,0.5,0.7,0.7,1.5,1c1-1.2,0.6-2-0.2-3.1
			C433.7,300.3,433.5,300.3,433.2,300.3z M504.9,301.1c-0.3,0.8-0.6,1.1-0.6,2.2c0.2,0.2,0.4,0.4,0.6,0.6c0.8-0.1,1.1-0.2,1.4-0.9
			c0.2-0.5-0.2-1-0.4-1.5C505.5,301.5,505.2,301.3,504.9,301.1z M387.6,304.4c-0.7-1-0.3-1.8-1.4-2.6c-0.1,0-0.3,0-0.4,0
			c-0.9,1-0.7,1.4-0.2,2.8c0.5,0.3,0.6,0.4,1.2,0.2c0,0.6,0,1.3,0,1.9c0.2,0.2,0.5,0.5,0.8,0.8c0.8-0.1,0.9-0.2,1.4-0.5
			C389.3,305.7,388.6,304.3,387.6,304.4z M396.1,301.9c-1,0.7-1.1,2.2-0.6,3.6c0,0.1,0,0.2,0,0.2c0.4,0.2,0.8,0.5,1.2,0.8
			c0.2-0.3,0.5-0.6,0.8-0.9C397.4,304,397.3,302.7,396.1,301.9z M380.5,302.3c-0.3,0.3-0.6,0.6-0.9,0.9c0.2,0.5,0.3,0.8,0.1,1.5
			c0.5,0.2,0.9,0.5,1.4,0.8c0.3-0.2,0.6-0.4,0.9-0.6C382,303.4,381.5,302.5,380.5,302.3z M371.5,302.5c-0.4,0.4-0.5,0.7-0.8,1.4
			c0.1,1.8,1.3,1.7,2.5,1.8c-0.2-1.3-0.5-2.2-1.1-3C371.9,302.6,371.7,302.6,371.5,302.5z M643.1,302.9c-0.4,0.6-0.5,1.1-0.6,1.9
			c0.2,0.3,0.4,0.6,0.6,0.9c0.7,0,0.8,0,1-0.5c0.4-0.2,0.3-0.8,0.5-1.4c-0.4-0.4-0.8-0.8-1.1-1.1
			C643.4,302.7,643.2,302.8,643.1,302.9z M436.1,303c-0.2,0.6-0.4,1.1-0.4,2c0.3,0.3,0.7,0.7,1,1c0.2,0,0.5-0.1,0.8-0.1
			c0.2-0.4,0.3-0.8,0.5-1.2c-0.2-0.3-0.3-0.7-0.5-1C437.1,303.3,436.8,303.2,436.1,303z M503.1,303.3c-0.1,0-0.3,0-0.4,0
			c-0.2,0-0.3,0.1-0.5,0.1c-0.3,0.9-0.2,1.8,0,2.5c0.2,0.1,0.5,0.3,0.8,0.4c0.2-0.2,0.5-0.3,0.9-0.4
			C504.4,305,504,303.9,503.1,303.3z M422,303.5c-0.6,0.9-0.7,1.6-0.2,2.6c0.3,0.1,0.6,0.3,0.9,0.4c0.2-0.1,0.3-0.2,0.5-0.2
			c0.4-0.8,0.3-1.3,0-2.2C422.7,303.9,422.4,303.7,422,303.5z M458.2,306.5c0.5,0.3,0.4,0,1.2-0.1c0.6-0.8-0.1-2.5-1.1-2.9
			c-0.8,0.6-1.1,1.8-0.4,2.8C458.1,306.4,458.2,306.4,458.2,306.5z M246,303.6c-0.4,0.6-0.5,1.7-0.9,1.9c0.2,0.6,0.7,1,1.1,1.4
			c0.4,0,0.8,0.1,1.1,0.1c0.2-0.3,0-0.1,0.4-0.2C248,305.9,248.2,303.6,246,303.6z M408.4,305.4c-0.1,0-0.3,0-0.4,0
			c-0.1,0.1-0.3,0.3-0.4,0.4c-0.2,0.2-0.3,0.5-0.4,0.9c0,1,0.4,1.3,1,1.8c0.3,0,0.6,0,0.9,0c0.1,0,0.2-0.1,0.2-0.1
			c0.1-0.7,0.1-0.8,0.1-1.6C409.1,306.2,408.7,305.8,408.4,305.4z M343.7,309c-0.2-0.7-0.3-1.3-0.5-2c-0.5-0.2-0.9-0.4-1.4-0.6
			c-0.2,0.3-0.4,0.6-0.6,0.9C341.3,309.1,342.4,309.9,343.7,309z M616.4,306.4c-0.3,0.9-0.2,1.8,0,2.8c0.3,0.2,0.6,0.3,0.9,0.5
			c0.1,0,0.2-0.1,0.4-0.1c0.4-0.6,0.7-1,0.4-1.8C617.7,307.1,617.2,306.6,616.4,306.4z M535.4,311.1c0.3-0.1,0.6-0.2,0.9-0.4
			c0.1-0.4,0.2-0.8,0.2-1.2c-0.4-0.7-0.7-1.4-1.5-1.8c-0.2,0-0.4-0.1-0.6-0.1c-0.2,0.6-0.3,1.2-0.4,1.9c0.3,0.6,0.4,1,1,1.2
			C535.1,310.9,535.2,311,535.4,311.1z M597.1,308.4c-0.3,0.7-0.5,1-0.5,2.1c0,0.1,0.1,0.2,0.1,0.2c0.5,0.4,0.6,0.6,1.2,0.6
			c0.4-0.6,0.5-0.9,0.5-1.9C598,309,597.9,308.6,597.1,308.4z M581.5,309.5c-0.2,0-0.4-0.1-0.6-0.1c-0.7,1.1-0.1,2.3,0.6,3.4
			c0.2,0,0.3,0,0.5,0c0.3-0.2,0.6-0.3,0.9-0.5C582.6,311,582.8,310.1,581.5,309.5z M362.2,313.9c-0.4-0.8-0.9-1.1-1.5-1.8
			c-1.8,0.1-2.5,1-4.4,0.6c-1.9-0.6-3.8-1.3-5.6-1.9c-2.3,0.1-4.7,0.3-7,0.4c-5.5-0.9-13.4-0.6-18.6-1.5c-2.9,1.4-6.3,0.2-8.9,2
			c0,0.3,0.1,0.6,0.1,0.9c3.4,0.4,7.3-2,12-1.2c7.2,1.2,14.7,2.3,21.1,1.1c1.7-0.3,2.9,1,4.1,1.4c2.4,0.7,6.1,0.9,8.5,0.4
			C362.2,314.1,362.2,314,362.2,313.9z M456.5,310.6c0.2,0.9,0.2,1.5,0.8,2.2c0.2,0,0.3,0,0.5,0c0.3-0.2,0.6-0.3,0.9-0.5
			c0-1.3-0.5-2.1-1.4-2.5C457,310.1,456.7,310.4,456.5,310.6z M567.2,310.8c-2,0.1-4,0.3-6,0.4c-6.1,1.3-13.1-0.5-20.6,0.1
			c-7,0.6-12.8,2.7-18.9,2.2c-0.1,0.1-0.2,0.3-0.2,0.4c-0.1,0.1-0.2,0.2-0.2,0.2c2.4,3.2,9.9-1.4,13.9-0.8c3,0.5,7.8-1.2,11.6-0.4
			c0.9-0.1,1.8-0.2,2.8-0.2c2.2,0.7,13.1,0.4,14.1-0.4c0,0,7.3,0.4,8,0.2c0.1-0.2,0.2-0.5,0.2-0.8c-0.2-0.3-0.4-0.7-0.6-1
			C569.9,310.8,568.5,311,567.2,310.8z M268.4,310.9c-0.1,0-0.2,0.1-0.2,0.1c-0.9,1.2-0.3,3.3,1.6,3c0.1-0.1,0.2-0.2,0.2-0.2
			c0-0.5,0.1-1,0.1-1.5c-0.3-0.4-0.7-0.8-1-1.2C268.9,311,268.6,310.9,268.4,310.9z M302.6,311.6c-0.2,0-0.3,0.1-0.5,0.1
			c-0.5,0.8-0.4,1.2-0.4,2.2c0.4,0.4,0.6,0.6,1.2,0.9c0.1,0,0.2,0,0.4,0c0.2-0.1,0.3-0.2,0.5-0.2c0-0.6,0.1-1.2,0.1-1.8
			c-0.3-0.4-0.6-0.8-0.9-1.2C303,311.6,302.8,311.6,302.6,311.6z M479.1,314.4c0-1.5-0.4-1.7-1-2.5c-0.2,0-0.4-0.1-0.6-0.1
			c-0.5,1.2-0.3,1.9,0.2,2.9c0.2,0,0.3,0.1,0.5,0.1C478.5,314.6,478.8,314.5,479.1,314.4z M504.9,312.5c-0.2,0.2-0.3,0.3-0.5,0.5
			c-0.1,1.2,0.1,3,1.5,2.2C507.1,314.5,505.9,312.7,504.9,312.5z M372.1,313.6c-0.1,0-0.2,0.1-0.2,0.1c-0.1,0.3-0.3,0.7-0.4,1
			c0.3,0.7,0.6,1.1,1.2,1.5c0.6-0.2,0.6-0.3,0.9-0.8c-0.1-0.8-0.4-1.1-0.8-1.6C372.6,313.8,372.4,313.7,372.1,313.6z M561.6,315.4
			c-0.2,0-0.4-0.1-0.6-0.1c-0.7,1.2-0.3,2.3,0.5,3.4c0.3-0.1,0.7-0.2,1-0.4c0.4-0.3,0.6-0.7,0.4-1.2
			C563.2,316.6,562.1,315.6,561.6,315.4z M401.5,315.4c-0.1,0-0.3,0-0.4,0c-0.3,1.4-0.1,2.6,1.4,3h0.1c0.1-0.2,0.2-0.4,0.4-0.6
			C402.9,316.4,402.4,315.9,401.5,315.4z M481.6,315.5c-2.1,1.4-9.8,2-12.1,1.6c-1.3-0.2-2.7-0.5-4-0.8c-7.8,0.7-15.6,1.4-23.4,2.1
			c-3.2,0.5-8.9,1.8-12.2,1.2c-2.2-0.4-3-1.2-5-1.5h-0.1c-0.2,0.5-0.3,0.8,0,1.2c1.7,2.9,9,1.1,11.9,1.1c8.6-1,17.3-1.9,25.9-2.9
			c2.4-0.2,4.6,0.3,6.9,0.8c3.5,0.7,8.3-0.3,11.4-1.2c0.4,0.6,0.6,1.1,1.5,1.2c0-0.5,0.3-1.4,0.2-2.2
			C482.2,316,481.9,315.8,481.6,315.5z M315.7,316.5c-0.3,1-0.3,1.4-0.1,2.5c0.5,0.2,0.9,0.5,1.4,0.8
			C319,318.7,316.8,316.7,315.7,316.5z M490.7,317.3c-0.1,0.1-0.2,0.2-0.2,0.2c-0.1,0.8-0.1,1.4,0.1,2.1c0.6,0.4,0.6,0.5,1.5,0.4
			c0.1-0.2,0.2-0.4,0.4-0.6c-0.1-0.5-0.3-0.9-0.4-1.4C491.6,317.6,491.6,317.4,490.7,317.3z M539.5,318.3c-0.1,0.1-0.2,0.2-0.4,0.2
			c-0.1,0.6-0.2,1.3-0.2,1.9c0.4,0.6,0.9,1,1.5,1.4c0.2-0.1,0.5-0.2,0.8-0.2c0-0.6,0-1.2,0-1.8C541.4,318.9,540.3,318.5,539.5,318.3
			z M339.2,318.5c-0.1,0.2-0.2,0.3-0.4,0.5c-0.1,1.1,0.2,2,1.1,2.4c0.2,0,0.3,0.1,0.5,0.1C341.7,320.5,340.9,318.6,339.2,318.5z
			 M362.4,318.5c-0.3,0.2-0.7,0.5-1,0.8c0.1,1.1,0.4,1.9,1.2,2.2c0.3,0,0.7,0.1,1,0.1C364.5,320.1,363.6,319,362.4,318.5z
			 M385.5,321c-0.3,0.7-0.1,1.4,0,2.2c0.5,0.2,1,0.4,1.5,0.6c0.1,0,0.2-0.1,0.2-0.1c0.1-0.5,0.2-1,0.2-1.5c-0.4-0.4-0.8-0.8-1.2-1.1
			C386,321.1,385.7,321.1,385.5,321z M508,323.1c-0.3,0.6-0.5,1.4-0.2,2.2c0,0.1,0,0.2,0,0.2c0.4,0.3,0.8,0.7,1.5,0.4
			C510.6,325.1,508.9,323.3,508,323.1z M422.4,325.5c-0.3,0-0.6-0.1-0.9-0.1c0.2,0.9,0.2,1.8,0.6,2.6c0.3,0.1,0.7,0.2,1,0.2
			c0.1,0,0.2-0.1,0.2-0.1c0-0.6-0.1-1.2-0.1-1.8C423,326.1,422.7,325.8,422.4,325.5z M405.2,325.5c-0.4,1.4,0.4,2.4,1.4,2.9
			c0.1-0.2,0.2-0.3,0.4-0.5c0-0.4,0.1-0.8,0.1-1.2c-0.3-0.3-0.7-0.7-1-1C405.8,325.6,405.5,325.6,405.2,325.5z"/>
	</g>
</g>
</svg>
