<?xml version="1.0" encoding="utf-8"?>
<!-- Generator: Adobe Illustrator 21.0.0, SVG Export Plug-In . SVG Version: 6.00 Build 0)  -->
<svg version="1.1" id="Calque_1" xmlns="http://www.w3.org/2000/svg" xmlns:xlink="http://www.w3.org/1999/xlink" x="0px" y="0px"
	 viewBox="0 0 841.9 595.3" style="enable-background:new 0 0 841.9 595.3;" xml:space="preserve">
<style type="text/css">
	.st0{fill:#1D1D1B;}
	.st1{fill:#DADADA;}
</style>
<g>
	<g>
		<path class="st0" d="M605.6,384.6c-0.7-0.1-1.6,0.1-2.1,0.1c-1.7,0-3.4,0-4.8,0c-0.6,0-0.9,0.2-1.2,0.1l-0.5-0.2
			c-0.5,0-1.6,0.2-2.4,0c-1.4-0.3-3.1-0.6-4.6-1c-0.5,0-1-0.1-1.5-0.1c-1.5-0.5-3.5-1.2-4.9-2c-0.6-0.4-1.8-0.3-2.8-0.8
			c-1.7-0.8-3.4-1.4-4.9-2.4c-1.2-0.7-2.7-3.7-3.4-5v-0.6c-0.6-1.1-1.8-2.3-2-3.6c-0.6-0.2-0.2-0.4-0.6-0.8c-0.5-0.4-1.4-0.9-2-1.1
			c-2-0.8-4.6,0.5-5.6,1.9c0.1,0.1,0.1,0.5,0,0.8c0.4,0.3,0.5,0.8,0.9,1c0.3,0.2,0.5,0.2,0.8,0.4c1.3,0,1.8-0.7,2.4-1.4
			c0.6,0.1,0.9,0.3,1.2,0.5c0.4,2.2-0.9,3.5-1.6,4.9c-2.1,4.1-7.6,5.7-12.6,4.1c-3.5-1.1-4.3-0.4-5.6-3.9c0.3-0.3,0.3-0.8,0.5-1.1
			c0.5-0.7,1.6-1.3,1.8-2.4h0.4c0.2-1.8,1.9-2.7,2.6-4c0.2-0.4,0.2-0.9,0.2-1c0.1-0.3,0.8-0.6,0.9-0.9c0-0.2-0.1-0.3-0.1-0.5
			c0.2-0.5,0.7-1.2,1-1.6v-0.5c0.1,0,0.2-0.1,0.4-0.1c0.9-1.2,1.1-2.2,1.9-3.4c0.3-0.4,0.8-0.7,1.1-1.1c0.3-0.4,0.5-1.1,0.8-1.5
			c0.1-0.2,0.7-0.5,0.9-0.8c0.7-0.8,1-1.9,1.6-2.8c0.1,0,0.2-0.1,0.4-0.1v-0.5c0.1-0.3,0.5-0.6,0.6-0.9c0-0.3,0.1-0.7,0.1-1h0.2
			c0.3-0.4,0.2-0.8,0.5-1.2c0.1,0,0.2-0.1,0.4-0.1c0.3-0.3,0.4-1.1,0.6-1.5c0.3-0.4,0.9-0.6,1.1-1c0.2-0.3,0.2-0.6,0.4-0.9v-0.1
			c0.3-0.2,0.7-0.2,0.9-0.5c0.5-0.7,0.7-1.5,1.2-2.1c0.3-0.3,0.8-0.5,1-0.8c0.3-0.4,0.2-1,0.5-1.4c-0.1-0.8-0.5-0.9-0.9-1.4
			c-4.4-0.2-8.5-1.4-12.6-2.4c-1.1-0.3-2,0.3-3,0.1c-1.6-0.3-3.5-0.4-5.5-0.9c-1.4,0-2.8-0.1-4.2-0.1c-2.6-0.5-5.7-0.4-8-0.8
			c-0.8-0.1-1.3,0.3-2.1,0.1c-1.1-0.2-2.1-0.1-3.6-0.5c-0.8,0.1-1.5,0.2-2.2,0.2c-0.3-0.1-1-0.5-1.2-0.5c-0.3,0-0.4,0.4-0.6,0.5
			h-2.1c-2.1-0.3-4.4-0.3-6.8-0.5c-0.3,0-1.2,0.1-1.8,0.1c-2.5,0-5.2,0.1-7.2-0.4c-0.3-0.1-0.7,0.1-0.9,0.1c-1.2-0.1-2.6,0-4.1-0.4
			H500c-1.2-0.2-3.2-0.1-4.4-0.4c-1.1-0.2-2.4,0.1-3.2,0c-1.7-0.3-4.1-0.1-5.8-0.5c-0.9-0.2-1.6,0-2.4,0.1c-0.1,0-0.3-0.2-0.4-0.2
			c-1-0.2-3,0-4.2-0.2c-0.8,0-1.6,0.1-2.4,0.1c-2.5-0.6-4.4-0.3-7.4-0.8c-1.8-0.2-5.5,0-6.9-0.2h-3.2c-1.3-0.1-2.6-0.2-3.9-0.4h-3.6
			c-0.3-0.1-2.9-0.5-3.4-0.4c-0.7,0.1-2,0.3-2.9,0.1c-0.9-0.2-3.2-0.2-4.2-0.2c-0.4,0-0.8,0.1-1.2,0.1c-1.2-0.3-2.8-0.3-3.9,0
			s-2.2-0.4-3-0.2c-1.4,0.2-4.2,0.1-5.5,0.2c-0.5,0-0.9-0.1-1.4-0.1c-1.5,0-3.4,0.3-4.4,0.1c-0.2,0-0.5-0.3-0.9-0.2
			c-7.2,0.6-17.8-0.3-27.4,0.4c-0.4,0-1.3-0.1-1.9-0.1c-3.3,0-7-0.3-9.9,0.4c-2,0.5-4.4-0.4-5.8,0.5c-0.8,0-1-0.1-1.4-0.4
			c0-0.6,0-2.7,0-2.8c0.1-0.4,0.2-0.4,0.4-0.8c2.3-0.5,5.5-0.7,7.9-1.2h2.1c0.9-0.2,2.2-0.2,3-0.4h3.8c2.7-0.6,6-0.5,8.6-1.1
			c1.5,0,3-0.1,4.5-0.1c0.7-0.2,1.6-0.3,2.2-0.5c1-0.2,1.3,0.3,2,0.1c6.4-1.2,13.2-2.5,19.4-4c1.4-0.4,3.1-0.1,4.2-0.4
			c1.7-0.4,3.8-0.7,5.5-1.1c0.8,0,1.6-0.1,2.4-0.1c4.9-1.3,10.9-2.7,15.8-4c3-0.8,5.7-1.3,8.6-2.2c1.2-0.4,2.4-1.1,3.5-1.5
			c1.2-0.4,2.8-0.4,3.9-0.9c0.4-0.2,4.6-1.1,4.6-1c2.1-0.1,3.7-1,5.4-1.6c4.9-1.8,9.4-4,13.8-5.9c1.7-0.7,5.6-3.7,7.2-2.6
			c0.4-0.4,1-0.6,1.4-1c0.1-0.2-0.1-0.7,0-0.9c0.6-1.8,0.7-1.7-0.5-3c0.5-0.6-1-1.9-1.2-2.2c-0.9-1.2-1.6-2.6-2.5-3.9
			c-0.2-0.2-0.6-0.3-0.8-0.5c-0.3-0.3-0.2-0.9-0.5-1.2c-0.1,0-0.2-0.1-0.4-0.1c0-0.2-0.1-0.3-0.1-0.5c-0.1-0.2-0.5-0.3-0.6-0.5v-0.4
			c-0.6-0.9-1.8-1.6-2.5-2.5c-0.7-0.8-1-1.8-1.6-2.6c-0.1-0.1-0.4-0.1-0.5-0.2v-0.5c-0.2-0.1-0.3-0.2-0.5-0.4
			c-0.3-0.5-0.3-0.9-0.6-1.4c-0.1-0.2-0.5-0.3-0.6-0.5c-0.4-0.6-0.6-1.3-1-1.9c-0.1-0.1-0.2-0.2-0.4-0.2c-0.3-0.5-0.4-1.1-0.8-1.5
			c-1.5-1.7-2.8-3.5-4-5.5c-0.2-0.3-0.5-0.3-0.8-0.5c-0.8-0.8-1.2-2-2.2-2.6c0-0.1,0.1-0.2,0.1-0.2c-0.4-0.4-0.9-0.7-1.2-1.1
			c-0.5-0.6-0.8-1.3-1.2-2c-1-1.5-2.1-3-3.2-4.4c-0.3-0.4-0.9-0.7-1.2-1.1c-0.2-0.3-0.1-0.7-0.4-1c-0.3-0.3-1.1-0.8-1.4-1.1
			c-0.3-0.4-0.3-0.8-0.6-1.2c-0.4-0.5-0.9-0.8-1.2-1.4h-0.4c0-0.3,0-0.2-0.1-0.4c-0.2-0.5-0.5-0.3-0.9-0.6c-0.1-0.1-0.1-0.5-0.2-0.6
			c-0.5-0.5-1.3-1-1.8-1.6c-0.7-0.9-1.1-1.9-1.9-2.8c-0.3-0.4-0.9-0.6-1.2-1c0-0.1,0.1-0.2,0.1-0.2c-0.2-0.1-0.3-0.2-0.5-0.2
			c-0.4-0.4-0.7-1-1.1-1.4c-0.2-0.1-0.5-0.1-0.6-0.2c-1-0.9-1.6-2.3-3.1-2.6c-0.3-1.2-3.9-3.9-4.9-4.8c-0.8-0.7-1.4-1.7-2-2.5
			c-0.3-0.4-1-0.7-1.4-1.1c-1-1-1.8-2.1-2.8-3.2c-0.2-0.2-0.2,0-0.4,0c-1.2-1.4-2.6-3.5-4-4.5c-0.4-0.3-1-0.6-1.4-1
			c-1.2-1.5-2.5-2.8-4-4c-0.1-0.1-0.1-0.4-0.2-0.5c-0.6-0.4-1.2-0.6-1.8-1c0-0.1-0.1-0.2-0.1-0.4c-0.3-0.3-0.7-0.4-1-0.6
			c-0.2-0.2-0.4-0.7-0.6-0.9c-0.5-0.4-0.9-0.8-1.4-1.1l-0.5-0.1c-1.3-1.4-2.5-2.8-4-4c-0.4-0.3-0.6-0.9-1-1.2
			c-0.5-0.3-0.9-0.5-1.4-0.9c-0.4-0.3-0.6-0.9-1-1.1c-0.7-0.4-1.4-0.7-2-1.2c-0.6-0.5-1.2-1.5-1.9-2c-0.6-0.5-1.3-0.7-2-1.1
			c-0.5-0.4-1.1-1-1.6-1.4c-0.3-0.2-1.3-0.5-1.6-0.8c-1.5-1.3-3-2.8-4.8-3.8c-0.8-0.4-1.6-0.6-2.2-1.1c-0.1-0.1-0.6-0.8-0.8-0.9
			c-0.6-0.5-1.3-0.6-2-1c-0.3-0.1-0.5-0.6-0.8-0.8c-0.4-0.1-0.8-0.2-1.1-0.2c-0.9-0.4-2.3-0.8-3.1-1.4c-2.9-1.8-6-3.8-9.1-5.1
			c-1.6-0.7-3.6-0.9-5-1.4c0-0.1-0.1-0.2-0.1-0.2c-0.7-0.3-1.5-0.5-2.1-0.8c-0.6-0.1-1.2-0.2-1.8-0.2c-1.9-0.6-4.7-1-6.2-1.9
			c-0.8,0-1.7-0.1-2.5-0.1c-1.1-0.3-2.3-0.9-3.4-0.9c-0.2-0.4-0.7-0.9-0.9-1.4c-0.3-0.8,0.1-1.3,0-2c-0.5-2.8,0.1-4.3-0.2-6.4
			c-0.1-0.8,0.2-1.8,0.1-2.4l-0.2-0.2c0.2-0.7,1.1-1.9,0.4-2.8c-0.4-0.9-1.2-0.8-2.1-1.1c-0.5-0.2-2.4-0.8-2.9-0.6
			c0,0.1-0.1,0.2-0.1,0.4c-0.4,0-0.8,0.1-1.1,0.1c-0.6,0.3-1.4,0.8-1.6,1.5c-0.6,0.9-0.1,2.7,0.2,4c0.2,0.8-0.1,2.7-0.2,3.4
			c-0.2,1.2,0.3,3.3,0.1,4.5c-0.2,0.9,0.1,1.9-0.2,2.6c-0.2,0.4-0.9,0.5-1.1,0.9c-0.5,0.6-0.7,1.4-1.2,2c-0.1,0-0.2,0.1-0.4,0.1
			c-0.1,0.1,0,0.3-0.1,0.5l-0.9,0.9c-2.9,5.3-6.1,11.3-9.2,16.8c-0.8,1.5-1.1,3-1.9,4.5c-0.1,0.3-0.5,0.9-0.8,1.1h-0.2
			c0,0.1,0.1,0.2,0.1,0.4c-0.6,1-2.3,3.2-2,4.2c-1.1,1.2-1.2,2.8-2,4.4c-0.6,1.2-1.4,2.8-2,4c-0.1,0.4-0.2,0.8-0.2,1.1
			c-0.2,0.3-0.7,0.9-0.9,1.2c-0.9,2.2-1.3,4.5-2.2,6.6c-0.3,0.6-0.9,1.2-1.1,1.8c0,0.1,0.1,0.2,0.1,0.4c-0.8,1.2-1.6,2.8-2.2,4.1
			c-0.2,0.4-0.1,0.6-0.2,1c-0.2,0.5-0.8,1-1,1.5c-1.5,3.1-2.9,5.4-4.6,8.1c-0.3,0.5-0.2,1-0.5,1.5h-0.2c-0.2,0.2-0.1,0.6-0.2,0.9
			c-0.1,0.2-0.5,0.2-0.6,0.4c-0.2,0.3-0.1,0.7-0.2,1c-0.2,0.4-0.7,0.7-0.9,1.1c-0.1,0.4-0.2,0.8-0.2,1.1c-0.3,0.7-1,1.4-1.4,2.1
			c-0.2,0.3-0.5,1.2-0.5,1.2c-0.1,1.2-2.4,3.6-1.9,4.5c-0.9,0.4-1.3,2.5-1.8,3.4l-0.6,0.6c0,0.3-0.1,0.7-0.1,1
			c-0.2,0.4-0.7,0.9-1,1.2c-0.3,0.4-0.4,0.7-0.4,1.1c-0.5,0.7-1.2,1.5-1.6,2.2l-0.4,1.1c-0.1,0.1-0.2,0.2-0.4,0.2
			c-0.2,0.3,0,0.7-0.2,1c-0.2,0.2-0.6,0.4-0.8,0.6c-0.8,1.1-1.3,2.5-2,3.8c-0.3,0.5-0.9,1-1.2,1.5c-0.1,0.3-0.2,0.7-0.4,1
			c-0.4,0.6-1.1,1.3-1.6,1.9c-0.4,0.5-0.4,1.3-0.8,1.9c-0.3,0.5-0.8,0.8-1.1,1.2c-0.3,0.5-0.2,1-0.5,1.5c-0.4,0.7-1.1,1.5-1.5,2.2
			c-0.2,0.3-0.1,0.7-0.2,1c-0.2,0.3-0.7,0.5-0.9,0.8c-1.1,1.8-1.8,3.7-3,5.4c-3.3,4.9-6.7,9.6-10.1,14.4c-0.2,0.3,0.1,0.4,0,0.6
			c-0.3,0.6-0.9,1.1-1.2,1.6c-0.4,0.6-0.5,1.3-0.9,2c-0.2,0.3-0.6,0.5-0.9,0.8c-0.4,0.5-1.3,2.3-1.6,2.9c-1.5,2.9-1.1,5-4.2,5.9
			c-0.1,0.4-0.5,1-0.2,1.4c0.3,0.6,1.3,0.7,1.8,1.1c0.4-0.2,0.6-0.6,1.1-0.8h2.8c1.7-0.4,4.1,0.1,6,0.4c0.4,0.1,1.1-0.2,1.4-0.2
			c0.6-0.1,1.8,0.2,2.4,0.1c0.4-0.1,1.4-0.3,1.8-0.2c0.8,0.1,1.8,0.3,2.9,0.5c1,0.2,2,0,2.6,0.1c0.7,0.2,2.4,0.6,3.1,0.6
			c1.3,0,4.1,0.1,5.2,0.4c3,0,6-0.1,9-0.1c0.4-0.1,1.4-0.3,2-0.1c2.1,0.5,4.5,0.2,7.1,0.2c0.6,0.1,1.2,0.2,1.8,0.2
			c1.1-0.1,3.2-0.4,4.5-0.1c4,0.8,9.5,1.3,13.5,2c0.9,0,1.8-0.1,2.8-0.1c1,0.1,4.2,0.5,5.4,0.2c1.5-0.3,3.6-0.4,4.8-0.2
			c0.7,0.1,2.3-0.2,3,0.2c0.4,0.1,0.2,0,0.4,0.4c0.1,0.1,0.3,3.3-0.1,3.9v0.2c-1.5-0.3-2.7-0.1-3.9,0.1c-0.7,0.2-2,0-2.5-0.1
			c-0.9-0.2-4.1,0.2-5,0.4c-0.9,0.1-2.9-0.5-4.6,0c-0.7,0.2-1.5,0-2.5,0.2c-0.9,0.2-2.3,0.3-3.2,0.5h-2.2c-2.3,0.6-4.4,0.5-6.6,1
			c-1.2,0-2.4,0.1-3.6,0.1c-2.1,0.5-4.1,0.1-6.2,0.6c-1.9,0.4-5.2,0.6-7.4,1.1H319c-0.9,0.2-2,0.3-2.9,0.5h-1.4
			c-1.8,0.5-4.9,0.9-7,1.4h-1.6c-6.3,1.7-12.8,1.7-19,3.6h-1.4c-1.3,0.4-3,0.7-4.4,1c-0.4,0.1-1.2-0.1-1.9,0.1
			c-1.2,0.3-2.8,0.9-4,1.2c-1.3,0.4-2.1,0.3-3.5,0.8c-0.4,0.1-1,0.5-1.4,0.6c-0.3-0.1-0.4-0.1-0.8,0c-0.3,0.1-0.9,0.6-1.2,0.6
			c-0.4,0.1-0.1-0.3-0.5-0.2c-0.5,0.1-1.1,0.8-1.6,1c-0.6,0-1.2,0.1-1.8,0.1c-1.5,0.4-3.2,0.6-4.4,1.5c-0.6,0.5-0.9,1.7-1.4,2.4
			c0.2,0.5,2.6,2.1,3.1,2.4c0.1,0,0.2-0.1,0.4-0.1l-0.1,0.2h0.2c0.7,0.5,1.3,1.3,1.9,1.9c0.2,0.2,0.6,0.2,0.9,0.4
			c0.6,0.5,1.1,1.7,1.8,2.2c0.6,0.5,1.2,1.2,1.8,1.6c0.2,0.1,0.4,0,0.5,0.1c0.3,0.3,0.3,0.8,0.5,1.1c0.3,0.4,2.6,2.5,3,2.8v0.4h0.4
			c0.3,0.5,0.8,0.5,1.1,0.9c0.7,0.8,2.1,2.2,3,2.8c0.4,0.3,0.8,0.2,1.2,0.5c0.2,0.2,0.3,0.4,0.5,0.6c0.2,0,0.4,0.1,0.6,0.1
			c1.2,1,1.8,2.7,3,3.6c2.9,2.2,5.4,4.8,8.1,7.2h0.1c-1.2,1-3.3,1-5,1.5c-2.7,0.8-8.4,1.2-11,0.6c-1.3-0.3-2.7,0-3.9-0.5
			c-0.3-0.1-0.7-0.5-1-0.6c-1.1-0.4-1.9-0.3-3-0.8c-1-0.4-1.8-1.2-3.1-1.4c-0.1-0.7-1-0.8-1.5-1.4c-0.4-0.5-0.2-1.1-0.5-1.6
			c-0.6-1.3-0.9-2.4-1.2-3.9c-0.5-2.3,3.2-5.8,6.2-4.9c0.8,0.2,1.5,0.7,2.1,1.1c-0.2,0.8-0.7,0.6-1.2,1c-0.3,0.3-0.6,0.7-0.9,1
			c0,1.4,0.5,1.9,1,2.8c1.8,0.8,4.2,0.1,5-1.5c0.2-0.4,0.1-0.8,0.4-1.2c0.3-0.5,1.2-2,0.9-3c-0.1-0.4-0.5-0.9-0.6-1.4h-0.4
			c-0.5-2.5-4.5-3.5-6.4-4.1c-1.3-0.4-4.4,0.2-5,0.6c-0.7,0.4-2.2,0.9-3.1,1.5c-0.3,0.2-0.5,0.6-0.8,0.9c-0.5,0.5-1.3,0.6-1.9,1
			c-0.6,0.4-1.1,1.1-1.6,1.5c-0.6,0.4-1.1,0.5-1.8,0.9c-1,0.6-1.9,1.7-3,2.2c-1.3,0.7-2.4,1.1-3.6,1.8c-0.1,0-0.2-0.1-0.2-0.1
			c-0.5,0.2-1.2,0.8-1.6,1c-0.5,0-0.9,0.1-1.4,0.1c-0.3,0.1-1,0.5-1.2,0.6h-0.9c-1.2,0.5-2.6,0.9-4,1.2c-0.7,0-1.3,0.1-2,0.1
			c-1.2,0.4-3.3,0.9-4.5,0.8c-0.9-0.1-2.4,0.1-3.2,0.2c-0.3,0.1-0.5-0.1-0.6-0.1c-1.9,0.3-5.4,0.4-6.8,0.1c-1.7-0.3-3.1,0.3-3.9-1.2
			c-0.6,0-0.6,0-1.1,0c-0.1,0.3-0.1,0.3-0.2,0.5c0,1.7,1.2,2.2,2.6,2.5c2.3,0.6,8.6,0.5,11.2,0c1.2,0,2.5-0.1,3.8-0.1
			c0.7-0.2,2-0.5,2.8-0.6c0.7-0.1,1.2,0.1,2-0.1c1.1-0.3,2.3-0.8,3.2-1.1c1.4-0.4,2.7-0.4,4-0.9c6.1-2.3,10.9-5.9,15.8-9.4
			c0.5-0.3,0.9-0.2,1.5-0.5c2.3-1.1,3.5-1.7,5.9-0.8c0.9,0.4,1.1,0.1,1.8,0.8h0.2v0.2c-3.4-0.3-5.7-0.1-8.2,1.6
			c-0.6,0.4-0.7,1.1-1.1,1.6c-0.3,0.3-0.8,0.7-1,1.1c-0.2,0.5,0.3,1.2,0.1,2c-0.1,0.6-0.4,1.4-0.1,2.2c0.2,0.7,0.4,1.6,0.8,2.4
			c0.4,0.9,1.1,2.6,1.8,3.4c0.9,1.2,2.9,1.6,4.5,2.2c1.7,0.6,3,1.4,4.9,1.9c1.5,0.4,2.5,0.2,4,0.5c1.1,0.2,2.2,0.1,3.5,0
			c0.5,0,1,0.1,1.5,0.1c0.3-0.1,1.6-0.3,1.9-0.2c2.7,0.4,6.6-1.2,9.1-2.1c0.8-0.2,1.6-0.3,2.4-0.5c2.3-0.9,4.5-2.3,6.5-3.5
			c0.7-0.4,1.6-0.5,2.2-1c1.1-0.9,2-2.2,3.1-3c1-0.8,2.2-1.7,2.9-2.8c0.3,0.1,0.2,0,0.5,0c3.1,7.3,10.1,11.9,17.8,14.4
			c1.2,0.4,2.8,0.2,3.9,0.4c0.7,0.1,1.7,0.5,2.4,0.6c2.3,0.5,4.6-0.6,6.5-0.5c0.5,0,1.4-0.3,2.1-0.4c2-0.2,4.2-0.6,6.1-1.4
			c0.5-0.2,0.9-0.7,1.4-0.9c1-0.4,1.9-0.5,2.9-1c1.6-0.8,2.6-2.5,4-3.5c0.9-0.7,1.5-1.5,2.4-2.1c0.2-0.1,0.4,0,0.5-0.1
			c0.3-0.4,0.3-1,0.5-1.5c0.4-0.9,1-1.9,1.2-2.9c0.2-0.7-0.4-1.4-0.5-1.9c-0.1-0.5,0.1-1.8,0.1-2.2c-1-0.7-1.5-2.1-2.5-2.8
			c-1.9-1.3-5.7-0.9-7.6,0.4l-0.8,0.8c-0.2,1.3-0.3,2.2-0.2,3.8c-0.8-0.1-1.2-0.5-1.6-0.9c-0.9-1.1,0.1-2.5,0.2-3.8
			c0.8-0.4,1.4-1.3,2.1-1.8c2.6-1.4,7.2-2.5,10-0.8c0.6,0.4,0.8,1,1.2,1.5c0.2,0.2,0.6,0.1,0.6,0.1c0.3,0.3,0.5,0.8,0.8,1.1
			c0.3,0.3,0.7,0.8,1,1.1h0.2c0.3,0.3,0.1,0.9,0.4,1.2c0.2,0.1,0.4,0.2,0.6,0.4c0.6,0.8,0.8,1.7,1.2,2.5c0.3,0.5,1.1,1.1,1.4,1.6
			c0.9,1.5,1.7,3.5,2.9,5.1c1,1.4,2.4,2.6,3.8,3.6c0.5,0.4,1.3,0.3,1.8,0.8c3.2,2.9,8.2,5.6,13.8,4.4c0.7-0.1,1.2,0.2,1.6,0.1
			c1.3-0.3,2.8-0.6,3.9-1c2.5-1,4.7-1.8,6.5-3.5c0.3,0,0.2,0,0.4,0.1c0.5,0.3,0.3,0.8,0.6,1.2c0.6,0.9,1.6,1.7,2.2,2.6
			c1,1.3,4.1,2.4,5.8,3c0.5,0,1.1,0.1,1.6,0.1c2.1,0.5,4.5,0.5,6.8,0h2c2.3-0.6,5.2-0.3,7.5-1c1.1-0.3,2.2-1,3.1-1.5
			c0.8-0.4,1.8-0.6,2.6-1.1c2.6-1.7,5-4.2,6.6-6.9c0.3-0.5,1.1-2.4,1.2-3c0.1-0.4-0.4-0.9-0.5-1.1c-0.2-0.6-0.1-2.9,0.1-3.2
			c-0.1-0.9-1.1-1-1.5-1.6c-0.5-0.7-0.9-1.5-1.6-1.9c-0.8-0.4-1.3-0.3-2.2-0.5c-3.3-0.8-4.9,0.5-7,2.1c0,0.3-0.1,0.6-0.1,0.9h-0.8
			c-0.4-1.7-0.1-2.1,0.8-3.4c0.3-0.5,0.6-1.2,1.1-1.5c0.5-0.3,1.2-0.1,1.6-0.2c2.3-0.5,3.3-0.4,5.2,0.1c1.2,0.3,2.1,0.3,3.1,0.8
			c2,0.9,3.5,3.2,4.9,5.1c0.3,0.3,0.7,0.6,1,0.9c0.3,0.4,0.2,0.8,0.5,1.2l0.6,0.6c0,0.1-0.1,0.5,0.1,0.8c0.7,1,1.9,1.8,2.6,2.8
			c0.6,0.8,1.5,2.3,2.2,2.9c1.1,0.9,4.2,1.5,5.8,1.1c0.8,0,1.7,0.1,2.5,0.1c1.3-0.3,3.4-0.4,4.4-0.8c1.1-0.4,2.1-1.1,3-1.6
			c0.8-0.5,1.7-0.6,2.5-1.1c1.5-0.9,3.1-1.9,4.5-2.9c0.2-0.3,0.5-0.6,0.8-0.9c0.9-0.7,1.7-1.4,2.5-2.1c0.5-0.5,0.8-1.2,1.2-1.6
			c0.6-0.5,1.3-0.7,1.9-1.2c0.5-0.5,0.9-1.1,1.5-1.5c0.2,0,0.4-0.1,0.6-0.1l0.5-0.5c1.4-0.7,5.8-0.8,6.6-0.6c1,0.2,2.3-0.3,3,0.2
			c0.3,0.1,0.2,0.1,0.5,0.2c0,0.8-0.1,1.1-0.4,1.5c-1-0.1-1.7-0.5-2.4-0.8c-3.8,0.9-6.1,2.1-8.2,4.6c-0.5,0.5-2.3,3.1-2,3.8
			c-1,4.3-0.7,7.1,2.4,9.2c0.7,0.5,1.5,0.5,2.4,0.9c0.5,0.2,0.9,0.7,1.4,0.9c1.9,0.9,6.7,0.8,9.1-0.1c2.6-1,5-2.7,7.2-4.1
			c0.7-0.5,1.5-0.6,2.2-1c0.3-0.2,0.8-0.8,1-1c0.3-0.2,0.7-0.2,1-0.4c0.7-0.4,1.4-1,2-1.5c1.6-1.3,2.7-3.5,4.4-4.8
			c1.5-1.1,3.4-2.1,5.2-2.9c0.6-0.3,1.4-0.3,1.9-0.8c0.5,0,1,0,1.4,0.1c0,1.8-0.6,3.2-1,4.8c-0.2,0.6-0.1,2.4,0.1,2.8
			c1.8,2.8,5.3,4.1,9.2,4.8c0.5,0.1,2.1-0.2,2.8-0.1c0.3,0,1,0.4,1.2,0.4c0.2,0,3.4-0.5,3.8-0.8c2.4-1.3,4.2-2.9,6-4.8
			c0.4-0.4,0.9-0.5,1.2-1c1.4,0.1,1.3,0.8,2,1.4h0.4c1,0.6,2,1.3,3.2,1.6c1,0.3,1.8,0.1,2.9,0.4c4,1.1,6.7,0.3,10.1-1.5
			c0.8-0.4,1.5-0.6,2.1-1.1c0.6-0.6,1.6-1.8,2-2.5c0.3-0.5,0.2-1.1,0.5-1.6c0.3-0.5,0.7-0.9,0.9-1.6h0.2c0.7,0.8,0.8,1.6,1.2,2.2
			c1,1.6,2.4,3.7,3.9,4.8c1.9,1.4,3.8,2,6.2,2.9c0.6,0.2,1.1,0.1,1.8,0.4c0.4,0.2,1,0.7,1.4,0.9c1.1,0.5,2.2,0.5,3.5,0.9
			c1.5,0.5,2.6,0.8,4.1,1.2c0.7,0.2,2.5,0.4,3.1,0.4c0.2,0,0.6-0.2,1-0.1c0.7,0.2,1.6,0.2,2.4,0.1c0.3,0,3.8,0,3.9,0
			c0.2,0,0.7,0.3,0.9,0.2c1.1-0.2,2-0.7,2.9-1c0-0.3,0-0.2,0.1-0.4C605.9,385.1,605.8,385,605.6,384.6z M548.9,369.3
			c-0.5,0-0.5-0.1-0.8-0.2c0.2-0.1,0.4-0.1,0.6,0h0.1V369.3z M551.4,366.5c-0.3,0.1-0.6,0.3-0.9,0.5c-0.4-0.4-0.7-0.8-1-1.2h-0.1
			c0.6-0.6,1.2-0.8,2.2-0.6C551.6,365.9,551.4,365.7,551.4,366.5z M375.4,335.2c3.9-0.8,8.4-0.7,12.9-1.2c0.8-0.1,1.7,0.5,2.8,0.2
			c1.3-0.3,2.5,0,4.2-0.1c0.4,0,1.2,0.2,1.4,0.1c0.4-0.1,0.9-0.4,1.2-0.5c0.5,0,0.9,0.1,1.4,0.1c2.8,0,5.7,0.1,8.5,0.1
			c1.7-0.4,3.1,0,5,0c0.3,0,0.8,0.1,0.9,0.1c0.2,0,1.6-0.5,2.5-0.2c1,0.2,2.6,0.4,3.5,0.2c0.2,0,1.2-0.3,1.4-0.2
			c3.3,0.1,8.7,0.5,12.1,0.1c1.4-0.1,3.3,0.4,4.6,0.2c1.5-0.2,3.3,0.1,4.4,0c0.3,0,1-0.2,1.5-0.1c0.4,0.1,1.8,0.3,2.1,0.2
			c0.8-0.1,4.3-0.4,5.4-0.1c0.7,0.2,2.2,0.5,3,0.5c1.4,0,3.1,0,4.4,0.2c1.1,0.2,1.8-0.3,2.6-0.1c5.1,0.8,10.8-0.1,15.6,1h2.4
			c2.4,0.6,4.3,0,6.8,0.5c0.8,0,1.6-0.1,2.4-0.1c1.1,0.3,2.6,0.1,4,0.4c3.4,0.6,7.4,0.2,11.8,0.9c0.5,0,1.1-0.1,1.6-0.1
			c0.5,0.1,1.5,0.3,2,0.4c0.4,0.1,0.9-0.1,1.1-0.1c0.8,0,2.6,0.1,3.4,0.2c0.7,0,1.4-0.1,2.1-0.1c1.7,0,3.4,0.1,5.1,0.1
			c0.5,0,1.1-0.1,1.6-0.1c1.7,0.4,4.3,0.6,5.8,0.5c0.6-0.1,0.8,0.6,1.2,0.5c0.1,0,0.5-0.3,0.6-0.4c0.9-0.3,2,0.2,2.5-0.1
			c0.4,0.3,4,0.6,4.4,0.5c0.2-0.1,0.5-0.4,1-0.2c2.8,0.5,9.1,0.5,12.6,1.2c0.7,0.1,2-0.1,2.6,0c2.1,0.4,5.9,0.6,8.5,1.4
			c1,0.3,2.2,0.2,2.9,0.9h0.2c-0.5,0.9-5,0.7-6.5,1.2c-4.8,1.9-9.6,2.8-14.4,4.6c-1.5,0.6-4.8,1.7-5.9,0.8
			c-1.5,2.3-7.8,2.6-11.2,3.5c-2.1,0.5-3.2,0.4-5.6,1c-1,0-1.9,0.1-2.9,0.1c-0.9,0.2-2,0.6-2.9,0.8c-0.4,0-0.8-0.1-1.1-0.1
			c-0.9,0.3-2.6,0.7-3.8,0.6c-2.5-0.1-5,0.3-7.1,0.2c-1.2,0-3.1-0.2-4.4,0.1c-1.6,0.4-4.2,0.2-5.9,0.6h-3c-0.6,0.1-2.2,0.2-3.1,0.2
			h-2.2c0,0-0.7,0.2-0.8,0.2c-1.3,0-3.6-0.1-4.5,0.1c-1.8,0.4-3.9-0.1-5.4,0.2c-0.7,0.2-1.8-0.1-2.4-0.1c-1.5,0-3.2,0-5.1,0.2
			c-0.6,0.1-1.4-0.3-2.1-0.1c-2.9,0.6-7.1-0.2-10.6,0.6c-0.5,0.1-1-0.1-1.4-0.1c-0.8,0-3.1,0.1-3.9,0.2c-2.3,0.5-3.9-0.3-5.8,0.1h-9
			c-0.6,0-1.2-0.1-1.9-0.1c-1.1,0.2-2.8,0.1-4.4-0.1c-1-0.2-2.3,0.4-3.4,0.2c-1.7-0.3-5.1-0.5-6.4-0.2c-1,0-2.1-0.1-3.1-0.1
			c-0.2,0-0.6,0.2-1,0.1c-0.1,0-0.5-0.2-0.9-0.1c-1.6,0.4-3-0.2-4.4-0.1c-1,0-2.5,0.4-3.2,0.2c-0.4-0.1-2.2-0.2-2.8-0.1
			c-0.4,0.1-1.1,0.3-1.9,0.1c-0.2-0.1-0.8-0.2-1.2-0.1c-1.1,0.3-2.8,0.5-3.5,0.4c-0.7-0.1-2.4-0.3-3.1-0.2
			c-4.8,0.1-10.6,0.1-14.6-0.1c0.6-1.6-0.1-3.2-0.2-5c-0.3-3.3-0.1-7.2-0.9-10.2c-0.1-0.4,0.1-0.7,0.1-1c0.1-1.2,0-3.8-0.6-4.6
			C375.2,335.7,375.3,335.6,375.4,335.2z M376.2,184.8c2-0.4,3.1,0.2,5,0.8h0.9c0.9,0.3,2,0.6,2.9,0.9h0.8v0.2
			c0.2,0,0.4-0.1,0.6-0.1c0.4,0.1,0.8,0.2,1.4,0.4c1.3,0.4,2.7,1.2,4,1.6c1.1,0.4,1.9,0.2,2.9,0.8c3,1.7,6,3.5,9,5.1
			c0.9,0.5,2,0.5,2.9,1l0.5,0.6h0.5c0.3,0.2,0.7,0.6,1,0.8c0.3,0.2,0.6,0.1,0.9,0.2c0.4,0.2,0.7,0.9,1.1,1.1c1,0.7,2.2,1,3.1,1.8
			c1.3,1.1,2.7,2.3,4.1,3.2c0.4,0.3,0.9,0.3,1.4,0.6c0.8,0.5,1.6,1.4,2.4,2c0.6,0.5,1.3,0.6,1.9,1.1c0.5,0.5,0.9,1.2,1.5,1.6
			c0.2,0.1,0.5,0.1,0.6,0.2c0.2,0.3,0.4,0.7,0.6,0.9c0.5,0.4,1.2,0.5,1.6,0.9c0.7,0.6,1.2,1.5,1.9,2.1c0.6,0.5,1.3,0.8,1.9,1.4
			c0.5,0.5,0.7,1.2,1.2,1.6c2.8,2.2,5.4,4.6,8.2,6.8c0,0-0.2,0.2,0,0.4c0.9,0.8,1.7,1.8,2.6,2.6c2.1,1.9,3.9,4,5.8,6.1
			c1,1.1,2.3,2,3.4,3.1c0.9,0.9,1.2,1.8,2.1,2.6c0.8,0.7,2.1,1.6,2.8,2.4c0.3,0.4,0.6,1,1,1.4c0.9,0.8,1.9,1.4,2.9,2.1
			c0.5,0.3,0.7,1.1,1.1,1.5c0.7,0.6,1.8,1.1,2.4,1.9c0.2,0.2,0.2,0.6,0.4,0.9c0.3,0.4,1,0.7,1.4,1.1c0.8,1,1.3,2.3,2.1,3.2
			c0.7,0.8,1.8,1.3,2.5,2.1c0.7,0.8,1.2,2.1,2.2,2.5v0.4h0.4c0,1.2,1.9,2.2,2.6,3.4c0.3,0.4,0.3,0.8,0.6,1.1c0.3,0.3,0.8,0.5,1,0.9
			c0.4,0.6,0.3,1.3,0.8,1.9c0.2,0.2,0.7,0.4,0.9,0.6c0.5,0.6,0.7,1.3,1.2,1.9c0.3,0.3,0.8,0.4,1,0.8c2.5,3.2,4.9,6.5,7.2,9.5
			c0.2,0.3,0.4,1.2,0.8,1.8c0.3,0.5,0.9,0.9,1.2,1.4c0.7,1.1,1.1,2.1,1.8,3.1c0.3,0.5,0.9,0.9,1.2,1.4c0.1,0.2,0.2,0.5,0.2,0.8
			c0.3,0.3,0.8,0.5,1.1,0.9c0.5,0.5,0.7,1.1,1.1,1.8c0.4,0.6,1.2,1.1,1.6,1.8c0.4,0.6,0.5,1.4,1,1.9c0.3,0.3,0.9,0.6,1.1,1
			c0.5,0.8,0.7,1.7,1.2,2.5c0.2,0.2,0.3,0.3,0.5,0.5c0.4,1.1-0.2,2.2-0.4,3.1c-0.7-0.2-3.2,1.5-4,2c-0.8-0.3-4.1,1.9-4.9,2.4
			c-1.5,0.8-3.1,1.1-4.8,1.9c-0.8,0.4-1.7,1.2-2.6,1.5c-1,0.4-1.9,0.4-2.9,0.9c-0.7,0.3-1.8,0.9-2.4,1.1c-0.9,0.3-1.6,0.1-2.5,0.4
			c-0.2,0.1,0,0.3-0.4,0.2c-0.8-0.1-1.6,0.3-2.2,0.5c-0.8,0.1-1.6,0.2-2.4,0.4c-1.7,0.6-4.1,1.2-5.6,1.9c-1,0.4-2.2,0.6-3.1,0.9
			c-0.5,0-1,0.1-1.5,0.1c-3.4,1.3-7.7,2.3-11.2,3.4c-1.6,0.5-2.7,0.3-4.2,0.8c-4.3,1.4-8.9,1.7-13.4,2.9c-0.9,0-1.8,0.1-2.8,0.1
			c-1.9,0.5-4,0.5-5.9,1c-3.8,1-7.5,1.5-11.2,2.5c-2.8,0.7-5.6,0.6-8,1.2c-1.1,0.3-2.7-0.3-3.6-0.1c-2,0.4-4.9,0.5-7,1h-2.2
			c-0.3,0.1-0.9,0.3-1.1,0.4c-0.6,0.2-1.7-0.1-2.1-0.1c-1,0-1.9,0.3-2.5,0.4c-0.9,0-1.8-0.1-2.8-0.1c-0.9,0.2-2.5,0.5-3.5,0.8
			c-1.2,0.3-2.3-0.5-3.2,0.1c-0.3,0-0.2,0-0.4-0.1c-0.4-0.5,0.7-1.3,0.6-1.8c-0.1-0.5,0.5-1.1,0.8-1.6c0.4-0.9,0.7-1.8,1.2-2.6
			c0.4-0.6,1.1-1.1,1.5-1.8c0.7-1.2,1.3-2.6,1.6-4.1c0.1-0.6,0-2.1,0.1-2.6c0.2-0.6,0.6-1.4,0.9-2c-0.2-0.9,0.7-4,1-5
			c0.2-0.9-0.1-1.7,0.2-2.8c0.3-0.9,0.7-2.2,1-3.1l0.4-3c0.1-0.5,0.7-1.4,0.6-2c-0.1-0.6,0.6-1.9,0.4-3.1c-0.1-0.5,0.4-1.4,0.5-2.1
			c0.2-0.9-0.2-1.8,0.1-3c0.2-0.8,0.4-2,0.6-3c0.2-0.7-0.2-1.8,0.1-3c0.4-1.5,1.5-7.4,1.1-8.5c0.2-0.8,0.8-2.7,0.8-3.1
			c0-1.4,0-3.1,0.4-4.5v-3c0.2-0.7,0.2-1.1,0.2-2c0-0.3-0.1-1-0.1-1.1c0.1-0.6,0.2-1.7,0.4-2.2c0.1-0.6-0.2-1.6-0.1-2
			c0.2-1.1,0.4-2.6,0.2-3.2c-0.1-0.3,0.1-0.7,0.1-0.9c0.3-1.2,0.2-3.6,0-4.4c-0.4-1.6,0.5-3,0.2-4.1c-0.4-2-0.4-3.7-0.6-5.9
			c0-0.4,0.2-1,0.1-1.2c-0.5-1.8-0.4-3.9-0.6-5.8c-0.1-0.5,0.2-0.9,0.1-1.4c-0.5-2.1-0.9-5.5-1.5-7.8c-0.2-0.7,0.1-1.6,0-2
			c-0.2-1-0.4-2.3-0.6-3.4V212c-0.7-2.7-1.4-4.5-2.2-6.5c-0.4-0.9-0.4-1.9-0.9-2.6c0.1-0.1,0.1-0.8,0-1.1c-0.1-0.2-0.5-0.5-0.6-0.8
			c-0.3-0.8-0.1-1.7-0.6-2.4h-0.2c-0.3-0.3-0.5-0.8-0.5-1.2h-0.4c-0.1-0.7-0.5-1.3-0.9-1.8c0.1-0.2-0.6-1.7-0.9-2.4
			c-0.1-0.3-0.4-0.8-0.6-1h-0.2v-0.5c-0.1-0.1-0.4-0.1-0.5-0.2c-0.4-0.5-0.3-1-0.6-1.5c-0.5-0.8-1.1-1.6-1.8-2.2
			c-0.7-0.7-1.2-2.1-2.1-2.6V184.8z M372.2,185.6c0.1-0.3,0.2-0.2,0.4-0.4c2.3,0.1,3.6,3.1,4.6,4.6c0.4,0.6,0.8,1.3,1.2,2
			c0.3,0.5,1,0.8,1.4,1.2c0.4,0.5,0.3,1.3,0.6,1.9c0.4,0.7,1.2,1.7,1.5,2.5c0.5,1.1,0.7,2,1.4,2.9h0.2c0.6,1,0.6,2.2,1,3.4
			c0.2,0.5,0.6,1.1,0.8,1.6c0.2,0.8,0.1,1.9,0.6,2.5c1.3,1.7,0.8,3.6,1.5,6.1c0.3,1.1,0.5,3,0.9,4.4v1.4l0.2,0.4c0,0.7,0,2,0.1,2.6
			c0.2,1,1,3.2,1,4c0,0.5-0.2,1.9,0,2.8c0.3,1.7,0.3,4,0.6,5.9c0.2,1-0.3,2.2-0.1,3c0.6,2.7,0.5,9,0,11.4c-0.1,0.4,0.3,1.6,0.2,2
			c-0.3,1.7-0.3,3.2-0.5,4.4c0,1.3,0.1,2.7,0.1,4c-0.2,0.7-0.3,1.9-0.5,2.9c0,0.5,0.1,0.9,0.1,1.4c-1.1,5-0.9,10.8-2.4,15.8
			c-0.2,0.7,0.2,1.2,0,2.1c-0.4,1.4-0.6,3.1-0.9,4.8c-0.1,0.6,0.2,0.9,0.1,1.4c-0.2,1.1-0.5,2.9-0.8,4.1v1.2c-0.6,2.2-1,3.9-1.6,5.8
			v1.6c-1,3.6-1.7,8-2.8,11.5c-0.4,1.3,0,2.7-0.6,3.8c-0.6,1.2-1.8,2.2-2.4,3.4c-0.7,1.4-1.4,3.5-2.6,4.4v0.1
			c-0.9-0.4-0.2-5.1-0.4-6.2c-0.1-0.9,0.3-1.8,0.1-2.9c-0.8-4.9,1.2-11,0.8-16.5c-0.1-1.6,0.7-3.1,0.4-4.9c-0.2-1-0.4-2.4-0.5-3.9
			c-0.1-0.8,0.4-1,0.2-1.9c-0.2-1-0.3-2-0.2-2.6c0-0.3-0.1-1.5,0-1.8c0-0.2,0.4-0.6,0.4-1c0-0.3-0.4-0.7-0.5-0.9
			c-0.2-0.9,0.2-2.3,0-3.4c-0.1-0.3-0.3-1.7-0.2-2c0.2-1.5,0.2-3.5,0.2-4.5c0-0.6,0.4-1.4,0.2-2.2c-0.4-1.9-0.2-4.1-0.4-6.1
			c0.1-0.5,0.2-1,0.2-1.5c-0.5-2.9-0.5-6.7-0.8-9.8c0-0.5,0.3-2.1,0.2-2.4c-0.2-0.9,0-2.2-0.2-3.6c-0.4-1.9-0.7-5.4-0.5-8.1
			c0-0.5,0.7-1.5,0.4-2.5c-0.9-2.9-0.7-6.5-1.5-9.8c-0.2-0.8,0.3-1.1,0.2-1.4c0-0.1-0.2-0.7-0.2-0.8c0-0.8,0.1-1.6,0.1-2.4
			c-0.9-3.6,0.1-8-0.8-10.9c-0.3-1.2,0.3-2.8,0.1-4c-0.1-0.5-0.4-1.3-0.2-2c0.1-0.7,0.3-1.6,0.1-2.1c0.1-0.1,0.2-0.2,0.2-0.4
			c-0.4-3.3-0.3-6.9-1-9.6c-0.4-1.5,0.2-3.3-0.4-4.2c0-0.7,0.1-1.2-0.2-1.2C371.9,186.3,372.1,185.9,372.2,185.6z M367.6,167.1
			c0.4,0,0.6,0,0.9-0.1c0.2,0.2,0.2,0.3,0.5,0.4v0.2c-0.8,0.1-1,0-1.6-0.1C367.4,167.3,367.5,167.2,367.6,167.1z M364.1,191.5
			c0.3-0.1,0.2,0,0.4-0.1c1.6,2.3-0.3,8.8,0.4,12.6c0.1,0.7-0.1,2.3,0,3.1c0.2,2.2,0.4,4.2,0.8,5.9c0.1,0.5-0.2,1-0.1,1.4
			c0.2,1.1,0.6,2.8,0.8,4.2c0.1,1-0.3,2.4,0,3.6c0.4,1.6,0.1,3.1,0.2,4.4c0,0.4,0.2,0.7,0.1,1.1c-0.2,0.9,0.2,2.3,0.2,3.1
			c0.1,0.9-0.1,3.1-0.1,3.2c-0.3,1.8,0.3,4.4,0,5.9c-0.1,0.7,0.1,1.3-0.1,1.8c0,0.6,0,1.1,0.1,1.1h0.1c-0.4,0.7-0.4,1.6,0,2
			c-0.8,0.8,0,2.5-0.1,3.5c-0.2,1.2,0.5,3.2,0.2,4.4c-0.1,0.5-0.4,1-0.2,1.6c0,0.1,0.3,0.2,0.2,0.4c-0.1,0.7-0.2,2.2-0.1,2.8
			c0.1,0.7,0.4,2.3,0.2,3c-0.3,1.2-0.2,3.8,0.1,5.5v4.5c0.1,0.3,0.4,2.5,0.2,3.1c-0.4,1.7,0,5.2-0.2,6.6c0,0.5,0.1,1,0.1,1.5
			c-0.1,0.3-0.5,1.8-0.4,2.4c0,0.3,0.3,1.4,0.2,1.8c-0.6,4.4,0.4,11.3,0.5,15.6c0.1,2.7,0.4,4.3,0.2,7c-0.1,1.3-0.2,3.2,0,4.8
			c0.1,0.8-0.1,3.6-0.6,3.9v0.2c-0.6-0.7-0.4-1.3-0.8-2.1c-0.4-0.9-0.8-1.9-1.1-3c-0.1-1-0.2-1.9-0.2-2.9c-0.5-1.9-1.2-3.7-1.8-5.8
			c-0.2-0.8-0.2-1.8-0.4-2.5v-1.5c-0.3-0.9-0.5-2.4-0.9-3.8c0-1-0.1-1.9-0.1-2.9l-0.4-0.4c0-0.5-0.1-1-0.1-1.5
			c-0.3-0.9-0.6-2.8-0.8-4c-0.1-0.8,0.2-2,0-3c-1.5-6.4-2-14.5-2.6-21.5c-0.1-0.7,0.2-1.8,0.1-2.5c-0.2-1.5-0.3-2.7,0-4.1
			c0.3-1.3-0.2-2.7-0.1-3.4c0.1-1.6,0.2-3.8-0.1-5.4c-0.4-1.7,0.4-3.9-0.2-4.9c0.4-5.2,0.7-11.1,1.6-15.8c0-0.4-0.1-0.8-0.1-1.1
			c0.5-2,0.4-5,0.8-6.4c0.5-2.2,0-5.4,0.9-6.8c-0.8-1.1,0.7-3.9,0.5-5.4c-0.1-1.1,0.3-3.5,0.5-4.6c0.2-0.8-0.2-1.6,0-2.4
			C362.6,197,363.3,194.4,364.1,191.5z M365.2,326.8c-2.2,0.4-6.1,0.8-8.5,0.2H353c-1.8-0.3-3.6-0.3-5.8-0.8
			c-0.5-0.1-1.2,0.2-1.5,0.1c-1-0.2-1.8-0.8-2.9-1c-1-0.2-2.3,0-3.2-0.2c-1-0.2-2.4,0.2-3.2,0.1c-3.2-0.5-7.6,0.1-10.4-0.5
			c-2.6-0.6-5.3,0.6-7.4,0.2c-1.2-0.2-3,0.1-4.4-0.1c-3.7-0.6-7.2-0.6-10.6-1.2c-3.1-0.6-7.1,0.2-10-0.4c-1.8-0.4-4.3,0.6-5.4-0.4
			c-0.2-0.5,0.6-2.4,0.9-3c0.6-1.3,0.9-2.7,1.6-3.9c0.6-1,2.2-2.1,2.2-3.2h0.4c0.2-1.1,1-1.6,1.5-2.4c0-0.2,0.1-0.5,0.1-0.8
			c0.3-0.5,0.9-0.9,1.1-1.4c0.8-1.5,1.7-3.2,2.9-4.4v-0.1c0-0.1,0.4-0.7,0.6-1.1l1-1c0.7-0.9,1-2.1,1.8-3c1.8-2.3,3.1-4.9,4.6-7.6
			c0.4-0.6,1.2-1.1,1.5-1.8c0.2-0.3,0-0.6,0.2-0.9c0.1,0,0.2-0.1,0.4-0.1c0.2-0.4,0-0.7,0.2-1.1c0.4-0.7,1-1.5,1.5-2.1
			c0.7-1,0.9-2.1,1.5-3.1c0.2-0.4,0.6-0.9,0.9-1.2c0.1,0,0.2-0.1,0.4-0.1v-0.5c0.3-0.4,0.8-0.8,1.1-1.2c0.6-0.9,0.7-2,1.4-2.9
			c4.8-6.1,8-14.3,11.6-21.9c0.9-1.8,2.2-3.7,3.2-5.4c0.2-0.4,0.1-0.8,0.4-1.2c0.6-1.3,1.6-2.8,2.5-4c0.2-0.3,0.1-0.6,0.2-0.9
			c0.6-1.1,1.7-2.4,2.2-3.5c0.1-0.3,0-0.8,0-0.9c0.1-0.2,0.5-0.3,0.6-0.5c0.5-0.7,0.6-1.6,1-2.4c0.1-0.2,0.5-0.5,0.6-0.6
			c0-0.3,0.1-0.6,0.1-0.9c0.2-0.5,0.7-1.2,1-1.8c0.3-0.7,0.2-1.2,0.6-1.9c1-1.7,1.5-3.5,2.5-5.6c0.4-0.8,0.3-1.5,0.6-2.2
			c0.5-1,1.2-2,1.6-3c0.6-1.4,0.8-2.9,1.5-4.2c0.8-1.6,2-4,2.9-5.2c0.5-0.7,0.5-1.9,0.9-2.6c0.4-0.7,1.1-1.5,1.6-2.2
			c0.5-0.7,0.8-2.4,1.2-3.2c1-1.7,2.1-3.6,3-5.1l0.4-1.1c0.5-1,1.4-2.2,2-3.1c0.3-0.4,0.1-0.8,0.4-1.2c0.6-1,1.6-1.9,2.2-2.9
			c0.4-0.6,0.6-1.1,1.1-1.5c0.1-0.1,0.2,0,0.6,0c-0.2,1.1-0.5,2.1-0.8,3.2v1.4c-0.1,0.2-0.3,0.7-0.4,0.9v1.1h-0.2
			c0,0,0.2,1.1,0.1,1.2c-0.6,0.6-1.1,5.1-1.5,6.6c0,0.2,0.1,0.5,0.1,0.8c-0.2,0.7-0.4,2.2-0.4,2.9c0,0.2,0.2,1.4,0,2
			c-0.3,1-0.4,2.7-0.6,4c0,0.2,0.1,0.5,0.1,0.8c-1.5,5.5-1.6,13.7-2,18.8c-0.1,0.9-0.6,2-0.6,2.8c0.1,4.4-1.4,9.2-0.4,13.4
			c0.1,0.3-0.2,1-0.1,1.5c0.2,0.8,0.2,2,0.4,2.8c0.3,1.1-0.1,2.6-0.2,3.4c-0.1,0.7,0.3,1.8,0.1,2.6c-0.3,1.5-0.1,4,0.1,5.9
			c0.1,0.5-0.3,0.9-0.1,1.8c0.5,2.2,0.1,4.1,0.5,6.4c0.4,2.1,0.2,5.7,1.1,7.9c-0.1,0.3-0.2,1.6-0.1,2c0.3,1.1,0.7,1.7,0.9,2.9
			c0.2,1.2,0.1,2.8,0.5,4.1v2.4c0.1,0.6,0.6,1.6,0.6,2.1c0,0.2-0.2,0.6-0.1,1c0.6,2.1,1,4.5,1.4,6.8c0.1,0.5-0.2,1.1,0,1.9
			c1.4,4.9,2.1,11.9,4.2,17.2v1.1c0.1,0.2,0.4,0.5,0.5,0.8c0.1,0.6-0.4,1,0,1.9c0.5,1.2,1.4,2.8,2.1,3.9
			C367.6,327.6,366.3,326.7,365.2,326.8z M368.7,263.7c-0.1-1.2,0.3-2.1,0-3.6c-0.3-1.7,0-4.9-0.2-7.1c-0.1-0.7,0.4-2,0.2-2.5
			c0-0.1-0.3-0.4-0.4-0.5c0.3-0.9,0.3-2.8,0.1-3.8c-0.2-0.8-0.3-5,0-6.5c0.1-0.6,0-1.6-0.1-2c0-0.8,0.1-1.6,0.1-2.4
			c0-0.1-0.3-1-0.2-1.1c0-0.9,0.4-2.8,0.2-3.8c-0.2-1.1,0.1-2.1,0-2.9c0-0.2-0.2-0.9-0.1-1.2c0.1-0.5,0.3-1.8,0.1-2.5
			c0-0.1-0.3-0.6-0.4-0.6c-0.3-0.7,0.3-1.3,0.1-2c-0.1-0.4-0.4-1.1-0.4-1.5c0.1-0.4,0.1-3.1,0-3.8c-0.1-0.6-0.9-3.1-0.9-4.1
			c0-1.7-0.1-3.8-0.4-5.2v-2.5c0-1.7-0.1-4.1,0.2-5.8c0.2-1-0.4-1.8-0.2-2.6c0.3-1.7,0.2-3.9-0.1-5.1c-0.4-1.7,0.1-2.5-0.2-3.9
			c-0.2-1,0.1-2.2,0.2-2.9c0.1-0.5-0.1-1.2-0.2-1.5c0.3-1,0.1-1.7,0-2.8c-0.1-0.8,0.4-2.8-0.1-3.6c0.3-0.9,0.3-4.9,0.1-5.2
			c0.1-0.6,0.3-0.5,0.6-0.9c0.3,0,0.4,0.1,0.6,0.1c0.4,2.2-0.4,4.1,0.2,5.8c-0.4,1.4,0.1,3.2,0,4.4c0,0.3-0.2,0.9-0.1,1.4
			c0.1,0.4,0.4,1,0.5,1.4c0.1,0.4-0.1,1.1-0.1,1.4c0,0.3,0.2,2.1,0.2,2.2c0.4,1.7,0.5,3.5,0.9,5.1v1.2c0.2,0.7,0.4,1.6,0.2,2.4
			c-0.2,0.9-0.7,2.4-0.5,3.2c0.1,0.3,0.4,0.9,0.4,1.5c-0.3,2.1-0.3,3.2,0.1,5c0.4,1.8-0.1,2.2,0.4,3.6c-0.2,0.8-0.6,2-0.4,3.1
			c0.4,1.7,0.4,4,0.8,5.5c0.2,1-0.3,2.5-0.1,3.2c0,0.1,0.4,0.4,0.4,0.5c0.2,0.6-0.2,1.7-0.1,2.1c0.5,2.4,0.5,5.6,1.1,8.4
			c0.3,1.2-0.1,1.8,0,2.6c0.1,0.8-0.1,2.9-0.2,3.4c-0.2,1,0.3,1.6,0.1,2.5c0,0.3-0.2,1-0.1,1.5c0.3,1.2,0.3,2.7,0.8,3.9
			c-0.2,0.7-0.6,1.5-0.5,2c0.7,2.7,0.5,7,0.1,9.6c-0.1,0.3,0.3,1,0.2,1.2c0,0.8-0.1,1.4,0.1,2.1c-0.5,2.6-0.1,4.9-0.5,7.8
			c-0.1,0.5,0.3,0.9,0.4,1.2c0.1,0.4-0.1,1-0.1,1.2c-0.2,0.7,0.1,1.4,0.2,1.9c0.3,1.1-0.4,2.7-0.1,3.6c0,0.2,0.4,0.8,0.4,1.1
			c0,0.1-0.3,0.5-0.4,0.6c-0.1,0.3,0.1,0.7,0.1,0.9c0,1.2,0.1,2.5,0.1,3.8c-0.7,2.8,0.1,5.3,0,7.9c0,1.3-0.1,2.6,0.1,4.1
			c0.1,0.6-0.4,1-0.4,1.5c0.2,1.6-0.1,3.8-0.2,4.9c0.1,0.7,0.2,1.3,0.2,2c-0.3,1.2-0.8,2.4-0.9,3.2c0,0,0.5,1.3,0.5,1.8
			c0,0.2-0.6,2.7-0.5,2.9c0.2,0.7,0.2,3.4-0.2,4.2l-0.5,0.5H370c-0.7-3.8,0.3-8.9-0.5-13.2c0,0,0.3-1,0.2-1.2
			c-0.2-1.2-0.5-3.2-0.5-5c0-0.4,0.2-0.6,0.1-1c-0.6-2.6-0.6-6.4-0.4-9c0.1-0.6,0.2-3.5,0.1-4.1c0-0.2-0.3-1-0.2-1.2
			c0.1-0.8,0.2-2.9,0.2-4.1c0-0.5-0.2-1.4-0.1-1.6c0.1-0.9,0.2-2.6,0-3.5c0-0.5,0.1-0.9,0.1-1.4
			C368.9,268.3,368.9,265.6,368.7,263.7z M371.9,356.8h-0.1c-0.2,0.1-0.1,0.2-0.2,0h-0.9c0.2-0.8-0.4-1.7-0.2-2.5
			c0.1,0,0.2-0.1,0.2-0.1c0-0.1-0.3-0.9-0.2-1c0.2-0.5,0.6-1.4,0.5-2c-0.2-1.3-0.6-3.1-0.8-3.9c-0.2-1,0.4-2-0.1-2.8v-0.1
			c0.6-1.1-0.2-5.3,0.6-6.4c0.1-0.3,0.1-0.2,0.2-0.5c0.6,0,0.4,0,0.9,0.1c0,0.8-0.3,1.4-0.1,2c0.1,0.3,0.4,0.5,0.2,1
			c-0.1,0.5-0.5,1.1-0.4,1.5c0.1,0.2,0.4,1.2,0.2,1.6c-0.4,1.5-0.4,5.7,0,7.6c0.2,0.8-0.1,2-0.2,2.8c-0.1,0.7,0.4,1.4,0.5,1.9
			C371.9,356.5,371.8,356.3,371.9,356.8z M369.7,317.6c0-0.7,0.1-0.9,0.2-1.4c0.3,0,0.2,0,0.4,0.1c0.6,0.3,0.4,1.6,0.6,2.2
			c0.1,0.2,0.2,0.4,0.4,0.6c-0.6,1.6,0,3.4-0.5,4.8c0.1,0.2,0.4,0.2,0.4,0.2c0,0-0.2,3.1-0.1,3.6l0.1,0.1c0,0.8-0.3,1.4,0,2
			c-0.1,0.1-0.2,0.2-0.2,0.2c-0.1,0.1,0,0-0.2,0.1c-0.3-1-0.1-2.5-0.4-3.8c-0.1-0.4,0.2-1,0.1-1.1c-0.1,0-0.2-0.1-0.2-0.1
			c0-0.2,0.1-0.3,0.1-0.5c-0.2-0.7-0.3-0.9-0.5-1.6c-0.2-0.9,0-2.6-0.4-3.2C369.6,319.5,369.3,318.2,369.7,317.6z M370.9,334.8h0.1
			c0.3,0.9,0.4,1.3,0.4,2.1c-0.1,0-0.2,0.1-0.4,0.1v0.1c-0.3-0.1-0.2-0.1-0.4-0.2C370.7,336.2,370.8,335.5,370.9,334.8z
			 M370.5,331.8c0.2-0.2,0.2-0.2,0.2-0.6h0.4c0,0.2,0.1,0.3,0.1,0.5c0,0-0.2,0.6-0.2,1.1h-0.1C370.7,332.5,370.6,332.2,370.5,331.8z
			 M268.2,349.7c1.4-0.7,3-1.3,4.5-1.9c0.1,0,0.7,0.1,1.1,0c1.5-0.4,3-0.9,4.4-1.4c2.3-0.7,4.7-0.9,6.6-1.5c1-0.3,1.9,0,3-0.2
			c0.8-0.2,1.9-0.5,2.8-0.8c0.6,0,1.2-0.1,1.9-0.1c2.6-0.7,4.7-0.7,7.4-1.4c1-0.2,1.8,0,2.8-0.2c1-0.3,2.2-0.8,3.2-1.1
			c0.8-0.2,1.6,0.2,2,0.1c1.7-0.4,3.6-0.7,5.2-1.1c1.2-0.1,2.5-0.2,3.8-0.2c3.9-1,7.9-0.7,11.5-1.6c1.7-0.5,3.3,0.2,5-0.2
			c2-0.5,3.6-0.2,5.4-0.6c2.5-0.6,5.4-0.7,7.9-1.1c0.8-0.1,2.6,0.1,3.4,0c2-0.4,5.4-0.9,7.5-0.5c1,0,2-0.1,3-0.1
			c1.7,0,3.6-0.2,4.5-0.1c0.5,0,1.1,0.2,1.6,0.1c0.4-0.1,1.3-0.2,2-0.1c0,3.4,0,5.5-0.4,7.5c-0.2,0.9,0.2,1.9,0.1,2.4
			c-0.1,0.6-0.2,1.2-0.2,1.8c0,0.1,0.3,0.4,0.2,0.6c0,0.4-0.4,1.1-0.2,1.6c0.2,0.6,0.5,1.2,0.8,1.9c0.2,0.6-0.2,1.1-0.2,1.5
			c-0.1,0.6,0.3,1.5,0.2,1.9c0,0.1-0.5,0.5-0.5,0.6c0,0.5-0.1,1-0.1,1.5c-0.1,0-0.2,0.1-0.4,0.1c0,0-5.4,0.2-6,0.1
			c-0.5-0.1-1.2-0.4-1.9-0.2c-2.5,0.6-4.8-0.5-7.6,0c-0.5,0.1-1.3,0-2-0.1c-0.6-0.1-1.5,0.1-2,0.1c-1,0.1-3.3-0.3-4.2-0.5h-2.9
			c-2.8-0.7-6,0.1-9.4-0.6c-0.6,0-1.2,0.1-1.8,0.1c-1.3-0.3-3.2-0.5-4.4-0.4c-0.2,0-1.4,0.1-2,0c-3-0.7-7.3-1-11.4-0.6
			c-0.7,0.1-1.6-0.2-2.1-0.1c-1.4,0.2-3.9,0.1-5.5-0.2h-2.6c-1.6-0.4-3.5-0.4-4.9-0.6c-0.5,0-1,0.1-1.5,0.1c-1.7-0.4-3.8,0-5-0.2
			c-1.2,0-2.5,0.1-3.8,0.1c-0.1,0-1-0.2-1.4-0.2h-2.4c-2.8-0.7-6.3-0.8-8.8-1.1h-1.9c-0.6-0.2-1.5-0.6-2.1-0.8
			c-0.7-0.2-1.5,0-2.1-0.4c-0.1,0-0.1-0.3-0.2-0.4c-0.5-0.2-0.9,0-1.2-0.2h-0.2C266.9,350,267.7,350,268.2,349.7z M289.1,375.7
			c-0.3,0-0.6,0-0.8-0.1c0,0-0.1-0.1-0.1-0.1c0.3-0.1,0.2,0,0.4-0.2h0.4c0.1,0.3,0,0.2,0.1,0.4V375.7z M291,376.8
			c-0.5,0.1-0.9,0.1-1.2-0.2c-0.3-0.1-0.3-0.2-0.5-0.4V376c0.5,0,1,0,1.2-0.2c0.2,0.3,0.2,0.6,0.5,0.9V376.8z M294.4,375.2
			c-0.2,0.3-0.4,0.4-0.8,0.5c-0.1-0.1,0,0-0.2-0.1c-0.1-1-0.2-1,0-2c0.3-0.1,0.2,0,0.4-0.1c0.5,0.1,0.3,0.2,0.8,0.4
			C294.6,374.3,294.7,374.8,294.4,375.2z M296.6,378.7c-0.3,0.1-0.2,0-0.4,0.2c-0.5-0.1-0.4-0.1-0.6-0.2c0.1-0.2,0.2-0.3,0.4-0.5
			c0.3,0.2,0.2,0.3,0.6,0.4V378.7z M302.4,374.5c0.3-0.4,0.2-0.2,0.6-0.6C303.4,374.1,302.6,374.5,302.4,374.5z M303.4,373.3h-0.5
			l0.1-0.5c0.4,0.1-0.1,0.1,0.4,0.2V373.3z M335.2,385.5c-0.3,0.1-0.7,0.1-0.9,0.2c-0.7-0.1-0.7-0.2-1.1-0.5c0.1-0.3,0.1-0.3,0-0.6
			c0.9-0.4,1.5-0.5,2.1,0.1C335.3,385.1,335.3,385.2,335.2,385.5z M356.1,376.7c-0.2,0.3-0.3,0.3-0.8,0.4c0-0.4,0-0.2,0-0.5
			c0.2-0.1,0.4-0.1,0.5-0.2h0.2C356.1,376.7,356,376.5,356.1,376.7z M357.4,371.2c0,0.4,0.1,0.8,0.1,1.1c-0.6,0-0.6-0.1-1.4-0.2
			c0-0.2-0.1-0.4-0.1-0.6C356.5,371.4,356.7,371.2,357.4,371.2z M354,370.3c0,0,0.1-0.1,0.1-0.1c0.6,0.1,0.4,0.3,0.9,0.5v0.5
			c-0.3,0-0.7-0.1-1-0.1V370.3z M353,367.8h0.6c-0.2,0.4-2.6,0.9-3.1,1.1C351.2,368,352,368.4,353,367.8z M350.5,369.7
			c0.3,0.2,0.6,0.4,0.8,0.6h0.2v0.1c-0.4,0-0.7-0.1-1-0.1V369.7z M371.1,376.8v-0.5c0.9-0.1,1.3-0.6,1.9,0c0,0,0.1,0.1,0.1,0.1H373
			C372.7,377,371.7,376.9,371.1,376.8z M376.5,381.1c-0.2,0.3-0.3,0.3-0.6,0.4c0.1-0.3,0.2-0.3,0.4-0.6c0.2,0.1,0.1,0,0.2,0.1
			c0,0,0.1,0.1,0.1,0.1H376.5z M391.2,385.6c0.3-0.1,0.4,0,0.6-0.1h0.1C391.7,385.9,391.6,385.7,391.2,385.6z M395.2,384.6
			c-0.6,0.2-1,0.3-1.4,0.5c0.1-0.3,0.1-0.3,0.1-0.8c0,0,0.1-0.1,0.1-0.1c0.6,0.2,0.5,0.3,1.1,0.2V384.6z M406.7,386.3
			c-0.1,0.1-0.2,0.2-0.4,0.2c0,0-0.1,0.1-0.1,0.1v-0.1c-0.3-0.2-0.4-0.4-0.6-0.6v-0.2c0.3,0,0.6-0.1,0.9-0.1c0.1,0.1,0,0,0.2,0.1
			C406.7,386.1,406.7,386,406.7,386.3z M437.1,374v0.4c0,0-0.1,0.1-0.1,0.1h-0.8c0-0.2-0.1-0.4-0.1-0.6
			C436.4,373.9,436.8,373.9,437.1,374z M436,376.3c1.4-0.1,1.4-1.6,2.4-2.1c0.1-0.2,0.3,0.1,0.5,0.2c0,0.4,0,0.9,0,1
			c-0.4,0.7-1.8,0.9-2.6,1.1c0.1,0.4,0.1,0.7,0.4,1c0.3,0.6,1.1,0.6,1.8,0.9c-0.1,0.7-2,1.7-2.8,1.8c-0.1-0.8-1.1-2.5-1.8-2.6
			c0-0.4,0.1-0.2,0-0.4C434.4,376.7,435.3,376.8,436,376.3z M433.4,370.6c0.1-0.2,1-0.4,1.4-0.1c0.5,0.1,0.4,0.1,0.8,0.4v0.6
			c-0.8-0.1-1-0.5-2.1-0.5C433.4,370.7,433.5,370.8,433.4,370.6z M450.5,376.5c0-0.3,0.1-0.6,0.1-0.9c0,0,0.1-0.1,0.1-0.1
			c0.8-0.1,1.4,0,2.6,0c0.1,0.4,0.1,0.5,0.2,0.8c-0.1,0.1-0.2,0.2-0.2,0.2C453,376.8,450.9,376.5,450.5,376.5z M453.1,379
			c-0.2,0.1-0.5,0.2-0.8,0.2c0.1-0.3,0.1-0.3,0.2-0.5h0.5V379z M453.6,378.6h-0.4c0.2-0.3,0.2-0.4,0.2-0.9c0.2-0.1,0.1,0,0.2-0.1
			h0.1c0,0.3,0.1,0.4,0.1,0.6L453.6,378.6z M455.9,380.5v0.2c-0.4-0.1-0.5-0.1-0.8-0.2v-0.4c0,0,0.1-0.1,0.1-0.1
			c0.2,0,0.4,0.1,0.6,0.1C455.9,380.4,455.9,380.3,455.9,380.5z M489.5,385.7c0,0.7-0.1,1-0.2,1.4c-1.1-0.1-3-0.4-3.2-1.2
			c-0.2-0.5,0.2-0.9-0.1-1.4c0.1-0.5,0.1-0.7,0.5-1.1c0.3-0.2,1-0.2,1.4-0.4h0.4c-0.1,0.2-0.1,0.2-0.1,0.5l-1.1,0.4
			c-0.1,0.3-0.2,0.7,0,1c0.2,0.7,0.9,0.9,1.6,1c0.3-0.3,0.6-0.4,0.9-0.8h0.1C489.5,385.5,489.6,385.6,489.5,385.7z M498.6,382.8
			c0.2-0.1,0.4-0.1,0.8-0.1C499.2,382.8,498.9,382.8,498.6,382.8z M530.6,381.1c-0.4,0.1-0.8,0.7-1.1,1c-0.7,0-0.8-0.2-1.2-0.4V381
			c0.8-0.2,1.9-1,2.6-0.9c0.4,0.1,0.7,0.4,0.9,0.8h0.1C531.3,381.3,531.4,380.8,530.6,381.1z M532.1,378.7c-0.8,0.2-0.8,1.1-1.9,1.1
			c0-0.4,0-0.9-0.1-1.1l0.4-0.4h0.4V378c0.7-0.2,1.6-0.2,2.2,0.4c0.1,0,0.2,0.1,0.2,0.1C533.1,378.9,532.7,378.5,532.1,378.7z
			 M536.2,382.2c0-0.2,0.1-0.3,0.1-0.5c0.2,0.1,0.1,0,0.2,0.1c0.1,0.1,0.1,0.1,0.1,0.4H536.2z M536.4,379.1
			c-0.3,0.1-0.9,0.1-1.1,0.2c-0.7,0-0.6-0.2-1-0.5c0.4-0.7,1-0.9,1.6-1.4c0.7,0,0.8,0.3,1.4,0.4C537,378.3,536.6,378.6,536.4,379.1z
			 M538.6,374.5h-0.2v-0.1h0.2V374.5z M540.4,379.6c0.1-0.6,0.2-0.8,0.4-1.2c0.4,0,0.7-0.1,0.9-0.1h0.2
			C541.8,379.1,541,379.3,540.4,379.6z M540.2,375.6c-0.9-0.1-0.8-0.6-1.4-1c0.4-0.2,2.8-0.2,3.1,0h0.1
			C541.8,375.1,540.7,375.2,540.2,375.6z M545.9,373.8c-0.5-0.1-0.8-1-1-1.6c0.7-0.3,0.9-0.3,1.9-0.2c0,0.3,0,0.2,0.1,0.4
			C546.7,373.1,546.2,373.2,545.9,373.8z M545.6,368.2v-0.4c0.3-0.1,0.2,0,0.4-0.1c0.5,0.1,0.4,0.3,0.9,0.4
			C546.6,368.2,546,368.2,545.6,368.2z M547.2,368.1H547V368h0.2V368.1z M546.1,366c-0.4,0.1-0.3,0.3-0.6,0.5v0.4
			c-0.5,0-1.2-0.3-1.6,0c-0.5,0.2-0.4,0.6-0.1,1c0.1,0.6,0.6,0.8,1.2,0.9c0.1,0.2,0,0.1,0.1,0.2c-1.2,1.4-2.8,1-3.8,2.9
			c-0.7-0.1-1.3-0.4-1.6-0.9h-0.2c0.2-0.2,0.6-0.4,0.9-0.5c0.1-1,0-1.8-0.6-2.4c-0.4-0.7-2.1-0.6-2.6-0.1c-1,0-1.2,0.1-1.6,0.5
			c0.1,0.5,0.2,0.3,0.4,0.8c0.4,0,1,0,1.1,0c1.1,0.2,0.9,1.3,2,1.5v0.2c-0.5-0.1-1.3,0.1-1.9,0c-0.2-0.8-1.2-1-1.6-1.6
			c-0.7-0.1-1.3-0.3-1.8,0.1c-0.2,0.3-0.3,0.6-0.2,1.1c0.5,0.4,1.2,1.3,1.5,1.9c0.1,0.1,0,0,0.1,0.2c0,0-0.1,0.1-0.1,0.1
			c-0.7,0.1-1.2,0.3-1.6-0.1c-0.7-0.5,0-1.4-1.5-1.6c-0.2-0.1-0.5-0.1-0.8,0.1c-0.9,0.2-0.7,1.1-1.5,1.4c0,0.4-0.1,0.7,0.1,1
			c0.1,0.7,1.2,1.5,1.9,1.6c-0.3,0.9-2,1.5-2.9,1.9c0,0.6-0.1,0.5,0.1,0.6h0.1c-0.1,0.4-0.1,0.3,0.2,0.5c-0.1,0.1-0.3,0.2-0.4,0.2
			c-1-0.1-0.9-0.6-1.4-0.8c-0.6-0.2-0.7,0.3-1.1-0.1h-0.1c0.2-0.7,0.6-0.5,1.1-0.9c0.5-0.3,0.3-0.9,0.6-1.2c-0.1-1.6-1.8-3.7-3.1-3
			c0,0-0.1-0.1-0.1-0.1c0.2-0.5,0.5-1.4,0.9-1.9c-0.1-0.5-0.4-1-0.6-1.4c0.1-0.5,0.3-0.3,0.4-0.9c0.4,0.5,0.5,1,1.1,1.2
			c0.3,0.1,0.5,0,0.6,0.1c0.4-0.1,0.8-0.3,1.1-0.5c0-0.5,0-0.9-0.2-1.1c-0.2-0.4-0.5-0.5-0.9-0.8c-0.6,0-1.4,0.2-1.6,0.6
			c-0.3-0.4-0.2-0.6-0.9-0.8c-0.2-0.2-0.7-0.1-1,0.1c-0.1,0-0.2,0.1-0.4,0.1c-0.1,0.6,0,1.2-0.2,1.6c-0.4,0.9-1.6,0.8-2.6,1.1
			c-0.7,0.2-2.2,1-3.1,1.4h-0.9c-0.3,0.1-0.6,0.6-0.9,0.8c-0.8,0.5-2,0.6-2.6,1.2c-0.3,0.3-0.4,0.8-0.8,1.1
			c-0.7,0.6-1.6,1.1-2.1,1.9c-0.8,1-1.7,2.4-2.8,3.1c-0.5,0.4-1.2,0.4-1.8,0.8c-0.6,0.4-1,1.1-1.6,1.5c-0.5,0.3-1.1,0.4-1.6,0.8
			c-0.3,0-0.3-0.1-0.5-0.1c0.3-1.4,0.8-1.5-0.8-2.1c-0.2-0.1-1-0.3-1.4-0.1c-0.3,0.1-0.6,0.5-0.9,0.6c-1,0.3-2.4-0.6-3.4-0.5
			c0,0-0.1,0.1-0.1,0.1c-0.1,2.1,1.4,2.7,2.9,2.6c0.1,0.3,0.1,0.7,0.2,0.9c0,0.4,0,0.6-0.1,0.9c-0.6,0.1-0.6,0.2-1.2,0.1
			c-0.1-0.4-0.1-0.5-0.4-0.8c-0.1-0.1-0.4-0.2-0.5-0.2c-0.9,0-1.5,0-1.9,0.5c-0.4,0.4,0.4,1.2,0.8,1.5c-0.1,0.4-0.1,0.4-0.2,0.6
			c-0.4,0.3-1.1,0.4-1.9,0.4c0-0.5-0.3-1.3,0-1.8c0.1,0,0.2-0.1,0.4-0.1c0.3-0.3,0.4-0.7,0.5-1.1c-0.7-0.6-0.8-0.8-2-0.8
			c-0.2-0.4-0.6-1.7-0.9-2c-0.3-0.5-1-0.5-1.2-1c-1.1,0-1.4,0.6-1.6,1.4c-0.7,0-1.3-0.1-2-0.1l-0.6,0.6c-0.2,0.1-1.2,0-1.5,0
			c-0.2,0.1,0,0.2-0.4,0.2c0,0-0.1-0.1-0.1-0.1c-0.4,0-1,0-1.2-0.1c-0.1-0.1,0,0-0.1-0.2c0.7-0.3,1.1-0.1,2,0.1
			c0.3-0.3,0.7-0.3,1-0.8c0.1-0.2,0-0.7,0.1-1c1-0.2,2,0.1,2.6-0.6c0.1-0.1,0.2-0.3,0.2-0.4c-0.2-0.4-0.5-0.6-0.8-1
			c-0.4,0-2.3,0.2-2.4,0.2c-0.7,0-0.7,0.2-1.1,0.5c0,0.3,0,0.2,0.1,0.4v0.4c-0.2,0-0.4,0.1-0.6,0.1c-0.3-0.3-0.7-0.6-1-0.9
			c0-1.2,0.1-1.6,0.6-2.4c0.5,0.2,0.9,0.7,1.5,0.8c0.2,0,0.8-0.2,0.9-0.1h0.4c0.1-0.2,0-0.1,0.1-0.2c-0.1-0.6-0.2-0.7-0.4-1.2
			c-0.7-0.2-1.1-0.3-1.6,0c-0.1-0.1-0.2-0.2-0.2-0.2c0.7-2.1,3.3-2.3,4.8-3.6c0.3,0,0.4,0,0.5,0.1c0.5,0.7,0,0.8,0.2,1.5l1,1
			c0.8,0.1,1.5,0.4,2.2,0c0.5-0.3,0.7-0.9,1.1-1.2c0.2-0.2,0.6-0.2,0.8-0.4c1.5-1.5,1.6-4.4,0.5-6.2c-2.9-0.7-9.8-1-12.4,0.4
			c-1.4,0.8-2.5,2.3-4.1,2.9c-0.2,0.2-0.8,0.1-1.1-0.2c-1,0-1.2,0.2-1.8,0.6c0.1,0.7,0.4,1,0.9,1.2c-0.1,1.9-2.3,2.5-3.2,3.6h-0.1
			c0.1-0.7,0.6-1.6,0.2-1.9c0.3-0.2,0.9-0.5,1.2-0.6c0.1-0.4,0.2-0.8,0.2-1.1c-0.2-0.2-0.3-0.3-0.4-0.6c-0.7-0.1-1.2-0.2-1.6,0.1
			c-0.6,0.3-0.5,0.8-1.4,1c0.4,0.6,0.4,0,0.9,0.2l0.8,0.8h0.1c-0.5,0.3-1.2-0.1-1.4,0c-0.7,0.2-1.1,1-1.6,1.4c0,0.3-0.1,0.7,0.1,1
			c0.2,0.5,0.6,0.5,1,0.9c0,0,0.1,0.1,0.1,0.1H471c-0.2,0.4-0.4,0.4-0.6,0.6c-1.4-0.1-0.9-0.7-1.4-1.4c-0.2-0.3-0.7-0.4-1-0.8
			c-0.5,0-1,0-1.4,0.1c0.1,1.3,0.1,2.3,0.6,3.5l-0.6,0.6c-0.7-0.1-0.9-0.4-1.4-0.8c0.1-0.7,0.7-1,1.1-1.2c0-0.3,0.1-0.7,0.1-1
			c-0.5-0.1-1-0.2-1.4-0.5c-0.5-0.2-0.9-1.2-1-1.8c-0.3,0-0.3-0.1-0.5-0.1l-0.5,0.5c-0.3,0.2-0.6,1-0.1,1.5c0.2,0.3,0.5,0.5,1,0.5
			c-0.3,0.4-0.2,0.8-0.4,1.2c-0.5,0.1-0.5,0-0.8,0.2h-0.2c0.2-0.6,0.2-0.8,0-1.4c-0.8-0.3-1.8-0.6-2.2-0.4c-0.8-0.1-1.1-0.7-1.1-1.4
			c-0.9-0.2-1.4-0.5-2.5-0.5c-0.2,0.2-0.3,0.3-0.6,0.4c0,0.7,0.1,1,0.4,1.4c0.3,0.6,0.5,0.2,1,0.5c0.9,0.5,1.8,1.3,2.4,2.1
			c0.5,0.1,1.6,0.1,1.9-0.2c0.3,0,0.5,0,0.6,0.1c0.1,0.2,0.2,0.4,0.2,0.6c-0.3,0.1-0.7,0-0.9,0c-0.4,0.1-0.8,0.4-1.1,0.6v-0.1h-0.1
			c0.1-0.1,0.1-0.1,0.4-0.1c-0.1-0.2,0-0.1-0.1-0.2c-0.2-0.2-3,0.4-3.5,0H457c0-0.5,0-0.5,0.2-0.8c0-1.4-0.7-1.1-1.4-1.8
			c-0.2-0.3-0.1-1.1,0-1.4c-0.3-0.2-0.6-0.6-0.8-0.9c-1.3,0-1.7-0.1-2.4-0.9c-0.8,0-1.1,0.4-1.6,0.5c-0.5,0.1-1-0.3-1.5,0h-0.9
			c0.4-0.6,0.5-0.8,0.5-1.8c-0.6,0-2.1-0.2-2.6-0.6c-0.5-0.4-0.5-0.9-0.9-1.4c-0.8-1.1-2.5-3.2-3.6-4c-0.8-0.6-1.9-0.5-3-0.9
			c-1.1-0.3-2.4-0.8-3.5-1.1c-2-0.5-6.7,0.4-7.9,1.4c-0.3,0.2-0.2,0.6-0.4,0.9c-0.2,0.3-0.7,0.5-0.9,0.8c-0.6,0.8-1,1.9-1.2,3
			c-0.4,1.8,1.7,3.9,2.8,4.4c1,0.5,2.6,0.2,3.6-0.1c1-0.3,0.9-0.8,1.5-1.4c0.1-0.1,0.6-0.1,0.8-0.2c0.5,0.1,0.4,0.2,0.8,0.5
			c0,0.3,0,0.5-0.1,0.6c-0.4,0.8-1.8,0.7-2.5,1.2c-0.3,0.2-0.2,0.7-0.6,0.9c0.2,0.5,1.6,1.6,2.1,1.2h0.1c-0.3,0.4-0.8,0.7-1.1,1.1
			c-0.9-0.2-0.9-0.7-2-0.8c0.2-0.3,0.4-0.7,0.6-1c-0.1-0.9-1-0.9-1.6-1.4c-0.4,0.1-0.4,0.1-0.6,0.2c-0.2,0.3-0.3,1-0.4,1.5
			c0.1,0.1,0.3,0.3,0.4,0.5c0.3,0.1,0.6,0.1,1,0.1c-0.1,0.7-0.4,1.3,0,2.1c0.6,0.2,1,0.2,1.8,0.1c0.2-0.3,0.5-0.6,0.8-0.9
			c0.3,0,0.2,0,0.4,0.1c0.3,0.2,0.3,0.3,0.6,0.5c0,0.7-0.3,2.2-0.8,2.9c0.1,0.7,0.9,1.1,1.6,1.1c-0.1,0.2-0.1,0.3-0.2,0.4
			c-0.3,0.7-4.1,2.6-5.1,2.6c-0.3-0.4-0.7-0.8-1-1.1c-0.7,0.1-0.9,0.4-1.4,0.6c-0.1,0.4-0.2,1-0.1,1.2c-1.5,0.5-3.4,0.7-4.9,0.6
			c0.1-0.5,0.4-1,0.1-1.5c0-0.1-0.1-0.2-0.1-0.4c-1,0-1.7,0.3-2.1,0.9c-0.2,0.4,0.1,0.7,0.4,1.1c-1.6,0.7-3.6,0.6-4.8-0.4
			c-1,0-1.3,0.4-1.6,1c-1.1-0.2-2.4-0.5-3.4-0.8c0.1-0.5,0.4-0.7,0.8-0.9c-0.2-0.5-0.9-0.9-1.1-1.4c0-0.1,0.1-0.2,0.1-0.4
			c-0.3-0.9-0.5-1.9-1.1-2.5c0.3-0.5,0.8-1,1.1-1.5c0.5,0.1,1.8,1.7,2.1,2.1c0.6,0,1.1,0,1.4-0.2c0.2-0.2,0.3-0.4,0.5-0.6
			c0-0.2-0.1-0.5-0.1-0.8c-0.4-0.2-1.9-0.7-2.1-0.9c-0.2-0.1,0.3-0.5,0.4-0.8c0.1-0.1,0-0.3-0.1-0.5c-0.2-0.2-0.7-0.2-1-0.4H409
			v-0.1l0.8-0.4c-0.1-0.6-0.3-0.9-0.6-1.2c-0.2-0.1-0.9-0.1-1.1-0.2c-0.5-0.1-0.4-0.1-0.5-0.6c-0.4-0.1-1.1-0.5-1.6-0.1
			c-0.6,0-0.6,0.1-1,0.2c-0.1,0.4-0.1,0.7,0.1,1c0.1,0.3,0.2,0.4,0.4,0.6c0.6,0,1.1,0,1.5-0.1c0.5,0.6,1.1,1.4,2.1,1.5v0.5
			c-0.8,0-1.7,0.1-2.5,0.1c-0.7-0.2-1.7-0.9-2.5-0.1c-0.3,0.2-0.3,0.4-0.5,0.6c0.1,0.7,0.6,1,0.9,1.5c2.1-0.3,0.8,1.1,0.6,2
			c-0.1,0-0.2,0.1-0.4,0.1c-0.3-0.5-1.2-1.6-1.4-2.2c0-0.1,0.1-0.2,0.1-0.4c0-0.6-0.1-0.9-0.4-1.4c-0.1-0.2,0.4-1.1,0.6-1.4
			c-0.2-0.3-0.3-0.3-0.5-0.6c-0.9,0-1.1-0.2-1.9-0.1c0.1-0.2,0.2-0.5,0.2-0.8c-0.2-0.2-0.4-0.5-0.6-0.8c-0.4-0.1-0.7-0.3-1-0.1
			c-0.7,0-1,0.2-1.1,0.8c-0.8-0.1-1-0.6-1.4-1c-0.6,0-1.1,0-1.4,0.2c-0.1,0.1-0.2,0.2-0.4,0.2c0,0.3-0.1,0.6-0.1,0.9l0.6,0.6
			c0.8,0,1.4-0.1,1.9-0.2c0.2,0.4,0.5,0.5,0.6,1.1c0.1,0.2,0.2,0.1,0,0.2c-0.1,0.1-1.2,0.4-1.6,0.6v0.9c-1.2-0.1-1.8-0.6-3-0.6
			c-0.5,0.5-1,1-1.5,1.5c0,0.6,0,0.6,0.4,0.8c-1.2,0.9-4.7,0.7-5.8-0.1c-0.7,0-0.8,0.2-1.2,0.5c0.1,0.8,0.3,2.2,1,2.4v0.2
			c-2.7,0-1.9-1.4-4.1-1.4c-0.2,0.2-0.4,0.4-0.5,0.6c-0.8,0-1.1-0.3-1.8-0.5c0.1-0.7,0.3-1,0.6-1.5c-0.4-0.4-0.4-0.7-1-0.9
			c0.1-0.1,0.2-0.2,0.2-0.2v-0.2c-0.7,0.2-1,0.7-1.9,0.8v-0.4c0.4-0.2,1-0.3,1.4-0.5c0,0,0.1-0.1,0.1-0.1c0.1-0.2-0.1-0.6,0-0.9
			c0.1-0.4,0.9-0.6,0.5-1.1c0-0.8-0.1-0.8-0.5-1.1c-1.1,0.1-1.5,0.6-2.2,0.9c-0.5,0.2-1,0-1.4,0.2c-0.6,0-0.8-0.1-1-0.5
			c-0.7,0.2-1.4,0.8-1.9,0.8c-0.4-0.1-0.3,0-0.5-0.2c0-0.4,1.1-1.4,0.4-2.5c0.2-0.3,0.3-0.3,0.8-0.4c0,0.5,0,0.3,0,0.8
			c0.2,0.3,0.5,0.6,0.8,0.9c0.9-0.1,1.2-0.4,1.9-0.8c0-0.4,0-0.8-0.1-1c-0.3-0.8-1.5-0.8-2.5-0.9c0.1-0.2,0-0.1,0.1-0.2
			c-0.1-0.5-0.1-0.4-0.5-0.5c0.2-0.4,0.5-0.8,0.9-1c0-0.3-0.1-0.7-0.1-1c-0.2-0.1-0.3-0.2-0.5-0.4c-1.7,0-3.3,1.6-3.9,2.6h-0.4
			c-0.4-1.9-2.2-3-2.6-4.9c0,0,0.1-0.1,0.1-0.1c0.5,0.3,0.8,0.4,1.6,0.4c0.3-0.3,0.6-0.4,0.9-0.8c0.2-0.3-0.2-0.9-0.4-1.2
			c-0.5-0.2-1.1-0.4-1.6,0c-0.4,0.3-0.6,0.8-0.8,1.2h-0.2c-0.4-0.7-1.1-1.1-1.5-1.8c-2.3-3.8-5.2-8.1-11.8-6.5
			c-0.7,0.2-1.9,0.4-2.9,0.8c-1.3,0.5-2.9,0.6-3.8,1.5c-1.5,1.5-3.8,5.7-2,8.1c0.2,0.3,0.7,0.4,1,0.6c0.1,0.1,0.2,0.5,0.4,0.6
			c0.4,0.3,1,0.1,1.5,0.4c0.7,0.3,1.9,1.4,3.4,0.9c0.5-0.2,0.9-0.8,1.4-1c0.2-0.2,1.1,0.5,1.5,0.5c0.3-0.1,0.7-0.2,1-0.4
			c0.9-0.2,1,0.7,1.9,0.1h0.2c0-0.2,0.1-0.4,0.1-0.6c0.3,0,0.2,0,0.4,0.1c0.2,0.4-0.2,1.3-0.6,1.5c-0.4,0.2-0.7-0.3-1.2,0
			c-1.2,0.1-0.7,0.6-1.2,1c-0.7,0.5-2,0.5-2.8,0.9c-0.1,0.3-0.2,0.7,0,1c0,0.1,0.1,0.2,0.1,0.4c0.6,0,1.7-0.1,1.9,0h0.8v0.1
			c-0.5,0.3-1.1,0.8-1.5,1.2c-0.6-0.1-1.1-0.5-1.8,0c-0.1,0-0.2,0.1-0.4,0.1c0,0.7,0,1.2,0.4,1.6c-1.2,1.3-1.3,0.3-2-0.1
			c-0.4,0.1-0.4,0.1-0.9,0c-0.1-0.3,0-0.8-0.1-1.1c-0.3-0.8-0.6-0.7-0.6-1.5c-0.3-0.1-0.2,0-0.4-0.2c-0.3,0-0.6,0-0.8,0.1
			c-0.6,0-0.6,0.1-0.9,0.5c-0.3,0.6,0.8,1.4,1.1,2.1c0.2,0.4-0.1,0.7,0,1.1c0,0-0.1,0.1-0.1,0.1c-0.6,0-1-0.1-1.4-0.4
			c-1.3,0-1.2,0.6-1.1,1.6c1.2,0.1,2.3,0.2,2.9-0.8h0.8c-0.2,0.2-0.2,0.1-0.2,0.5c-1.2,0.2-2.2,1-3.6,0.9c-0.1-0.8-1-1.6-1.6-1.8
			c-0.5-0.3-1.6-0.3-2,0c-0.4,0.1-0.4,0.1-0.5,0.5c0.5,0.5,1.1,1.1,1.8,1.4c-0.4,1.2-4,1.6-4.5,0.2c-0.1-0.2,0-0.4,0.2-0.6
			c-0.4-0.7-2.1-0.9-2.6-0.2h-0.2c0-0.4,0-0.8,0-0.9c0-0.3,0-0.2,0.1-0.4c0.6-0.3,1.7,0.2,2.2-0.6c0.1-0.2,0-0.2-0.1-0.4
			c-0.6-1.2-1.8-0.1-2.2-1.1c-0.6,0-0.8,0.1-1.4,0.4c0,0.4,0.1,0.6,0.2,0.9c0.2,0.4,0.4,0.4,1,0.4c-0.1,0.2-1.4,0.8-1.8,1
			c0,0.6,0,1.3,0.1,1.8c-0.6,0.2-3.4,0.7-4.2,0.5c-0.4-0.1-0.7-0.4-1.2-0.5c0.7-0.5,1.8-0.1,2.9-0.1c0.1-0.1,0.5-0.2,0.6-0.4
			c0.4-0.4,0.2-1.1,0.6-1.5c-0.1-0.7-0.4-0.8-0.8-1.2c-0.5,0-0.6,0-0.9,0.2c-0.7,0.3-0.7,1.1-1,1.6c-0.8,0-0.6-0.3-1-0.5
			c-0.6-0.3-1.4,0.4-1.9,0.5c0.1,0.4,0.2,0.5,0.5,0.8v0.2c-0.6-0.2-1.3-0.5-2-0.5c0.2-0.3,1-0.6,1.4-0.8c0-0.7,0-1-0.4-1.4
			c0.3-0.2,0.7,0,1.1-0.1c0.3-0.1,0.7-0.4,1-0.5c0.1-0.2,0-0.1,0.1-0.2v-0.5c-0.7-0.1-1.5-0.4-1.8-0.6c-0.8,0.1-0.8,0.5-1.2,1
			c0,0.6,0,0.5,0.4,0.8v0.1h-0.4c0-0.2-0.1-0.4-0.1-0.6c-0.3-0.4-0.7-0.1-0.9-0.6c-1.2,0-1.8,0.6-1.2,1.6c0.4,0.2,0.8,0.3,1.4,0.2
			c0,0,0.1,0.1,0.1,0.1c0,0.4,0,0.7,0.1,0.9v0.1c-2.2-0.1-3.1-1.4-4.8-2V381c0.4-0.2,0.8-0.5,1.2-0.8c0-0.5,0-0.5,0-1.1
			c-0.6-0.1-3.4,0.3-3.5,0.2c-0.9-0.1-1.3-1.1-1.9-1.5c0.2-0.4,1.6-0.6,2-0.8c-0.2-0.9-1-1.2-1.6-1.6c-0.5,0-0.7,0.1-1,0.4h-0.1
			l0.1,0.2h-0.1c0,0.8,0,0.6-0.4,0.8c-0.2-0.2-0.1-0.1-0.4-0.2c-0.1-0.6-0.1-0.6,0.2-1c-0.2-1.8-1.2-0.8-2-1.6
			c-0.2-0.2-0.1-0.5-0.2-0.9c-0.1-0.3-0.6-0.4-0.8-0.6c-0.5-0.7-0.6-1.6-1-2.4c-0.2-0.3-0.8-0.5-1-0.9h-0.6c0-0.3,0-0.2-0.1-0.4
			c-0.1-1.1-1-0.5-1.5-1.1c-0.1-0.2,0-0.5,0-1c-1.3,0-1.6-0.1-2.6,0.4c-0.1,0.6,0,1,0.1,1.5c-0.7,0.2-1.3,0.2-1.5,1
			c-0.1,0.2,0,0.2,0.1,0.4c0.8,0.8,1.8-0.2,2.8,1.1c0.3,0,0.5,0,0.6-0.1h0.2c0,0-0.1,0.1-0.1,0.1c-0.3,0.3-0.9,0.3-1.2,0.5
			c-0.9,0-1.3-0.2-1.5-0.8c-0.7,0-1.1,0.2-1.5,0.5h-1.1c0.1-0.3,0-0.2,0.2-0.4c0-0.9-0.2-0.9-0.5-1.4c-0.6,0-1.1,0.1-1.4,0.4
			c-0.4,0.2-0.5,0.5-0.8,0.8c0,0.7,0.9,1.4,1.4,1.1h0.1c-0.8,1.9-1.1,1.7-2.4,2.9c-0.8-0.2-1.3-1.6-2.2-2c0-0.3,0-0.5,0.1-0.6
			c0.5-0.2,1.4,0.3,2-0.2c0.3-0.1,0.3-0.2,0.5-0.4c0-0.9-0.5-0.8-0.9-1.2c0,0,0.2-1.3,0.2-1.4c-0.1-0.4-0.1-0.4-0.2-0.6
			c-0.8,0-0.9,0.3-1.4,0.5c-0.2,0.9,0,1.8-0.4,2.4c-0.4,0.5-0.8-0.1-1.4,0.2c-0.2,0.3-0.5,0.6-0.8,0.9c-0.5,0.1-1.3-0.1-2,0.1
			c-0.5,0.2-0.5,0.4-0.8,0.9c-0.3,0.5-1.2,0.9-1.6,1.1v0.1c-0.1-0.1,0,0-0.1-0.2c-0.1-0.3,0.2-0.6,0.5-0.8c0-0.3,0-0.4-0.1-0.5
			c-0.3-0.6-1.2-0.9-1.6-1.5c-0.4,0-0.8,0.1-1.1,0.1c0,0-0.1,0.1-0.1,0.1c0,0.3,0,0.5,0.1,0.6c0.3,0.7,1,0.5,1.2,1.2h0.1v0.2
			c-0.2,0.1-0.1,0-0.2,0.1c-1.9-0.2-2.8-2.4-4.1-3c0-0.6,0.4-1.3,0.5-1.5c-0.1-0.4-0.1-0.4-0.2-0.6c-0.6,0-1.2,0.1-1.9,0.1
			c-0.6-0.2-0.6-0.7-1-1c-0.2,0-0.4-0.1-0.6-0.1c-1.1-0.6-2.2-1.3-3.2-2c-0.4-0.3-0.6-0.9-0.9-1.2c-0.4-0.4-1-0.6-1.4-1
			c-0.8-0.8-1.5-1.9-2.4-2.6c-0.2-0.1-0.5-0.2-0.8-0.2c-0.4-0.3-0.6-1-0.9-1.4c-0.5-0.6-1.4-1.1-2-1.6c-0.8-0.8-1.3-1.8-2.1-2.6
			c-0.9-1-2.3-1.5-3.1-2.6c0,0-0.1-0.1-0.1-0.1h0.1v-0.2c2.7,0,4.6,1,7,1.6c2.8,0.7,5.9,0.5,8.9,1.2c0.6,0.1,1.1-0.1,1.4-0.1
			c0.6-0.1,1.7,0.2,2.5,0.4c0.8,0.2,1.2-0.3,1.9-0.1c0.6,0.1,1.8,0.4,2.6,0.5c0.2,0,1.5-0.2,1.9-0.1c0.8,0,1.7-0.1,2.5-0.1
			c1.1,0.3,2.7,0.2,4.2,0.2h2c2.3,0.6,4.8,0.2,7.6,0.9c0.7,0.2,1.6-0.1,2.1-0.1c0.3,0.2,1-0.1,1.5,0c1,0.2,3.6-0.4,5.2,0
			c1.1,0.3,2.7,0.3,3.6,0.4c0.4,0,1.4-0.3,2-0.1c0.3,0.1,1.2,0,1.6,0.1c0.3,0.1,0.9,0.4,1.2,0.5c2,0.3,4.3-0.4,6.2,0.2h3.9
			c0.7,0.1,1.9-0.3,3.1,0c0.1,0,0.5,0.3,0.6,0.4c1,0.3,2.7-0.2,4,0.1c1,0.2,2-0.1,3,0.1c1.4,0.3,3.7,0.3,4.8,0.1
			c0.6-0.1,1.7,0.2,2.6,0.4c1.1,0.2,2.7,0,3.4,0.1c0.7,0.1,4.3-0.1,4.5-0.2c0.9,0.1,2.4,0.3,3.5,0.1c0.3-0.1,1-0.3,1.6-0.1
			c1.3,0.3,3.9,0.3,5.8,0.2c0.6,0,1.2-0.1,1.9-0.1c1.5,0.3,3.2-0.2,4.9,0.1c0.3,0.1,1.6,0.2,2,0.1c0.4,0,0.9-0.4,1.5-0.2
			c0.5,0.1,1.6-0.1,2.4,0c2,0.4,5.4,0,8.1,0.1c1.2,0,2.9,0.3,4.1,0.1c0.5-0.1,1.3-0.4,1.8-0.4c1.8,0.1,6.3,0.3,7.6,0
			c1.3-0.3,3.3,0,4.2,0.2c0.5,0.1,1.4-0.1,1.8-0.1c1.3-0.2,2.8,0.1,3.8-0.1c0.9,0,1.8,0.1,2.6,0.1c2.4-0.3,6.3,0.6,8.5,0.1
			c1.3,0,2.7,0.1,4,0.1c3.6,0,9,0.5,11.6-0.1c0.9-0.2,2.4,0,3.1,0.1c0.8-0.4,3.5,0.1,4.8-0.1c2.7-0.4,5,0.1,7.6-0.5
			c1,0,1.9,0.1,2.9,0.1c1.9-0.4,3.4-0.4,6-0.4c1.2,0,2.7,0.1,3.8-0.1c1.2,0,2.3,0.1,3.5,0.1c2.1-0.5,4.2,0.2,6.8-0.2
			c1.9-0.4,5.7-0.5,7.6-0.4c0.5-0.1,1-0.2,1.5-0.2c3.8-0.1,7-0.4,10.4-0.8c2.8-0.3,7.2,0.1,10.2-0.2c2.4-0.3,5.3-0.6,7.5-1.1
			c0.8-0.2,1.6,0.1,2.2,0c0.9-0.1,2.4-0.5,3.2-0.8c0.8-0.2,1.2,0.2,1.9,0c0.9-0.2,2.4-0.3,3.8-0.6c5.6-1.5,11.5-3,16.9-4.8
			c5-1.6,9.7-2.8,14.8-4.2c0.9-0.3,4.2-0.5,4.2-0.5c0.6,0,1.1-0.5,1.5-0.2c0.3,0.2,0.1-0.1,0.2,0.2c0.1,0.1,0,0,0.1,0.2
			c-0.9,0.8-2,2.1-2.6,3c-0.2,0.4-0.2,1.1-0.5,1.4c-0.3,0.3-0.8,0.4-1,0.9c-1.3,0-2.9-0.3-3.8,0.5c-0.4,0.2-0.3,0.4-0.6,0.6
			c0.3,0.7,0.8,0.9,1.1,1.5c1.2-0.1,1.4-0.7,2.4-0.8c-0.1,0.8-0.3,1-0.6,1.5c-0.2,0.1-0.4,0.1-0.5,0.2c-0.4-0.1-0.5-0.2-0.6-0.5
			c-1,0.1-1.5,0.6-2.2,0.9c-0.1,0.6-0.3,1.2-0.6,1.5c0,0.9,0.2,1.3,0.6,1.8c0.1,0.2-0.1,0.5-0.2,0.8c-0.6,0-0.9-0.3-1.2-0.1
			c-0.9,0-0.9,0.1-1.4,0.5c0,0.9,0.4,1.6,1,1.9c-0.1,0.9-0.8,1.6-1,2.6c-0.4,0.1-0.5,0.4-0.6,0.2h-1c-0.1-0.6-0.1-0.9,0.4-1.2
			c0-1.4-0.5-1.2-1.2-1.8c-2.2-0.1-2.1,1.5-1.5,3c-0.7,0.3-0.8,0.8-1.2,1.2c0,0.8,0.3,0.9,0.5,1.5
			C547.8,365.8,546.8,365.3,546.1,366z M430.2,377.7v0.1H430v-0.1H430.2z M284.2,366.3c-0.5-0.1-0.8-0.2-1.1,0.1
			c-0.3,0.1-0.3,0.2-0.5,0.4v0.6c0.4,0.3,0.6,0.5,1.1,0.6c0.2-0.2,0.3-0.2,0.6-0.2c0.1-0.3,0.2-0.6,0.1-0.8
			C284.4,366.6,284.4,366.7,284.2,366.3z M289.2,368.6c-0.8,0-1,0.3-1.5,0.6v1c0.7,0.4,1.4,0.5,2-0.1c0.2-0.2,0.3-0.6,0.1-0.9
			C289.7,368.9,289.5,368.8,289.2,368.6z M289.7,361.2c0.4,0,0.4,0,0.6-0.2c0.1-0.1,0,0,0.1-0.2c-0.2-0.2-0.5-0.4-0.8-0.6
			c-0.8,0.1-1.1,0.4-1.2,1.1C288.9,361.2,289.6,361.2,289.7,361.2z M290.5,365.2c-0.7,0-0.8,0.2-1.2,0.4c0,0.2-0.1,0.4-0.1,0.6
			c0.3,0.3,0.7,0.8,1,1.1c0.4,0,0.8-0.1,1.2-0.1c0-0.2,0.1-0.5,0.1-0.8C291.1,366.1,290.7,365.7,290.5,365.2z M293.5,366.8
			c-0.7,0.3-1.3,1.4-1.2,2.5c0.1,0.1,0.2,0.4,0.4,0.5c0.3,0.2,0.8,0.4,1.1,0.1c0.6-0.4,0.1-1.6,0.9-2.1c-0.1-0.5-0.3-0.8-0.5-1.1
			C293.8,366.7,293.6,366.7,293.5,366.8z M301.1,367.1c-0.3,0.1-0.3,0.1-0.5,0.2c0.1,0.3,0,0.2,0.1,0.4c0.5,1.2,1.8,0.4,1.8-0.6
			C301.9,367,301.6,366.7,301.1,367.1z M302.9,364.1c-0.6,0-0.8,0.1-1.1,0.2v0.4c0.1,0.1,0.2,0.2,0.2,0.4c0.6-0.1,0.6-0.2,1-0.4
			c0-0.3,0-0.2-0.1-0.4V364.1z M311.7,366.7c-0.8,0-1.1,0.2-1.6,0.4c0,0.2-0.1,0.5-0.1,0.8c1,0.8,1.2,0.4,2.2,0
			C312.1,367.2,311.8,367.1,311.7,366.7z M313.1,369.3c-0.6,0-0.8,0.1-1.2,0.2c-0.1,0.5-0.1,0.7,0,1.2c0.5,0.1,0.7,0.2,1.2,0.2
			c0,0.7,0.1,0.6,0.4,1c0.5,0,0.7,0,1-0.2c0.4-0.1,0.4-0.3,0.6-0.5c0-0.4-0.1-0.9-0.2-1.1C314.4,369.8,313.6,369.8,313.1,369.3z
			 M316.2,374.5h0.6c0-0.3,0.1-0.6,0.1-0.9h-0.9C316.2,373.9,316.2,374.2,316.2,374.5z M317.7,363.5c0-0.6-0.5-1-1-0.6
			c-0.4,0.1-0.4,0.2-0.5,0.6c0.2,0.2,0.3,0.5,0.4,0.8c0.3-0.1,0.5-0.1,0.6-0.2C317.5,363.8,317.4,363.6,317.7,363.5z M317.7,369.3
			c-0.3,0.2-0.3,0.3-0.4,0.6c0.1,0.2,0.1,0.3,0.1,0.6c0.5,0.1,0.8,0.2,1.1-0.1c0.4-0.3,0.3-0.5,0.4-1c-0.1-0.1-0.2-0.2-0.2-0.4
			C318.2,369.1,318,369.1,317.7,369.3z M319.7,373.8c-0.4,0.1-0.4,0.3-0.6,0.5v0.5c0.2,0.1,0.5,0.3,0.6,0.5c0.6-0.1,1.1-0.2,1.4-0.6
			c0.1-0.1,0,0,0.1-0.2c-0.3-0.3-0.6-0.5-0.9-0.8C320,373.7,319.9,373.7,319.7,373.8z M319.7,371.7v0.5c0.4,0.3,0.8,0.7,1.1,1
			c0.6,0,0.8-0.2,1.1-0.4c-0.1-0.5-0.1-0.5-0.2-0.9C320.9,371.8,320.6,371.6,319.7,371.7z M323.2,367.3c-0.1-0.1,0,0-0.1-0.2
			c-0.9,0-1.7,0.1-2.4,0.1c0,0-0.1,0.1-0.1,0.1v0.5c0.1,0.1,0.3,0.3,0.4,0.5c0.7,0,1.3,0,1.6-0.2C323,367.9,323.1,367.7,323.2,367.3
			z M325.2,377.8c-0.1-0.4-0.1-0.4-0.2-0.6c-0.4,0-0.8-0.1-1-0.2c-0.7,0.1-0.8,0.2-1.2,0.5c0.2,1.6,1.6,0.8,2.4,1.9
			c1,0,1.2-0.4,1.5-1.1c-0.2-0.1-0.2-0.2-0.5-0.2C325.9,377.8,325.6,377.8,325.2,377.8z M329.1,370c-0.2-0.5-1.8-1-2.4-0.6
			c-0.3,0.1-0.4,0.2-0.6,0.4v0.6c0.6,0.4,1.4,0.3,1.9,0.8c0.6-0.1,0.7-0.2,1.1-0.4C329.2,370.4,329.3,370.2,329.1,370z M330.5,378.3
			c-0.5,0-0.7,0-1,0.2c-0.4,0.2-0.5,0.4-0.6,0.9c0.2,0.1,0.3,0.1,0.4,0.2c0.7,0,0.9,0,1.1-0.4c0.3-0.2,0.2-0.3,0.4-0.6
			C330.5,378.5,330.6,378.6,330.5,378.3z M332,373.7c0,0-0.1-0.1-0.1-0.1c-1.5,0-1,0.7-1.6,1.4c-0.2,0.3-0.4,0.1-0.5,0.5
			c-0.1,0.1-0.1,0.2-0.1,0.5c0.1,0.1,0,0,0.1,0.2c0.3,0.1,0.6,0.2,0.9,0c0.7-0.2,0.8-1.1,1.5-1.5C332.1,374.4,332,374,332,373.7z
			 M331,366.2c0.6,0,0.6-0.1,1-0.2c0.1-0.2,0-0.1,0.1-0.2c-0.1-0.8-0.4-0.7-0.8-1.1c-0.3,0-0.4,0-0.5,0.1h-0.2c0,0.3-0.1,0.7-0.1,1
			c0.1,0.1,0.2,0.2,0.2,0.4C330.9,366.2,330.9,366.1,331,366.2z M333.9,375.3c-0.1-0.4-0.2-0.3-0.4-0.6c-0.2,0-0.5-0.1-0.8-0.1
			c-0.2,0.2-0.2,0.2-0.5,0.2c0,0.2-0.1,0.5-0.1,0.8c0.2,0.2,0.4,0.5,0.5,0.8c0.8,0,0.9-0.2,1.4-0.4C334,375.6,334,375.5,333.9,375.3
			z M334.1,377.1c-0.4,0-0.5,0.1-0.8,0.2c-0.4,0.2-0.4,0.3-0.5,0.8l0.6,0.6c0.3-0.1,0.7-0.1,0.9-0.2c0.1,0,0.2-0.1,0.4-0.1
			C334.7,377.5,334.5,377.5,334.1,377.1z M335.6,378.8c-0.6,0-0.7,0.1-0.9,0.6c-0.1,0.4,0.1,0.4,0.2,0.9c0.4,0,0.7,0,0.8,0
			c0.4-0.1,0.5-0.3,0.8-0.5c-0.1-0.4-0.2-0.8-0.2-1.1C335.9,378.7,335.8,378.7,335.6,378.8z M335.7,364.2c-0.5,0.1-0.7,0.2-0.9,0.6
			c-0.1,0.1,0,0-0.1,0.2c0.2,0.1,0.3,0.2,0.5,0.4c0.7,0,1-0.1,1.5-0.2c0-0.5,0-0.5,0-1C336.3,364.2,335.8,364.2,335.7,364.2z
			 M342.9,376.3c0-0.3-0.1-0.4-0.1-0.6c-2.2,0-1.3,1.1-2.2,1.8c-0.5,0.3-1.1,0.3-1.4,0.9l-0.4-0.4c-1.4-0.1-1.7,0.3-1.9,1.5
			c0.2,0.1,0.1,0,0.2,0.1c1.2,0,1.6-0.3,2.2-0.9c0.4,0.3,0.7,0.4,1.5,0.4c0.3-0.2,0.6-0.4,0.9-0.6c0.5-0.9,0-0.7,1-1.2
			C342.7,376.8,342.7,376.5,342.9,376.3z M338.5,369.7c0.3-0.1,0.3-0.1,0.5-0.2c0-0.4-0.1-0.8-0.1-1.2c0,0-0.1-0.1-0.1-0.1
			c-0.8,0-0.8,0-1.4,0.2c0,0.2-0.1,0.4-0.1,0.6l0.6,0.6C338.2,369.6,338.3,369.6,338.5,369.7z M339.6,379.6
			c-0.4,0.1-0.6,0.2-0.9,0.4c-0.3,0.2-0.1,0.2-0.2,0.6c0.2,0.2,0.3,0.3,0.5,0.5c0,0,0.1,0.1,0.1,0.1v-0.1c0.6,0,1.1-0.5,0.8-1
			C339.8,379.8,339.7,379.8,339.6,379.6z M341.2,375.6c0.1-0.2,0.2-0.4,0.2-0.6c-0.2-0.2-0.3-0.4-0.4-0.6c-0.6,0-1,0-1.2,0.2
			c-0.1,0-0.2,0.1-0.2,0.1v0.6c0.2,0.1,0.5,0.3,0.6,0.5C340.6,375.9,340.9,375.9,341.2,375.6z M343.4,378c-0.4,0.2-0.5,0.6-0.6,1.1
			c0.3,0.1,0.3,0.1,0.5,0.2c0.7,0,0.8-0.1,1.2-0.4C344.5,378.2,344,377.5,343.4,378z M347.2,377.2h1.1c0.1-0.6,0.2-0.9-0.1-1.4
			c-0.3-0.6-1.1-0.8-1.5-1.4c-0.9,0.1-1.2,0.3-1.4,1.1C345.9,376.1,346.8,376.6,347.2,377.2z M348.2,378.2c0.3,0.1,0.3,0.3,0.6,0.4
			c0.2,0.1,0.2,0.1,0.4,0c0.6,0,0.8-0.2,1-0.5c0.1-0.1,0-0.3-0.1-0.5l-0.4-0.4c-0.8,0-1.1,0.1-1.5,0.4V378.2z M351.7,376.2
			c0.6,0,0.7-0.2,1.1-0.4c0.1-0.2,0-0.1,0.1-0.2c-0.1-0.6-0.5-0.9-1-1c-0.1-0.1-0.5,0-0.8,0.1c-0.1,0-0.2,0.1-0.4,0.1
			c0,0.3-0.1,0.6-0.1,0.9c0.1,0.1,0.2,0.2,0.2,0.4C351.3,376.2,351.5,376.3,351.7,376.2z M375.7,369.6l-0.8,0.8
			c0,0.4-0.1,0.8-0.1,1.2c0.3,0.1,0.9,0,1.2,0.2c1.1-0.2,1.3-0.9,1.9-1.6c-0.2-0.2-0.3-0.3-0.5-0.5
			C376.6,369.7,376.5,369.5,375.7,369.6z M384.1,378.8c0.4-0.1,0.5-0.2,0.6-0.6c0.3-0.7-0.5-1.3-0.8-1.8c-0.9,0-1.3,0.2-2,0.4
			c-0.3-0.3-0.6-0.7-0.8-1.1c-1,0-1.3,0.4-1.9,0.8v0.9c0.2,0.2,0.3,0.4,0.4,0.6c0.8,0,1.6-0.4,2-0.2c0.4,0.2,0.9,0.9,1.1,1.2
			C383.4,379,383.7,379.1,384.1,378.8z M382.6,381c-0.1,0-0.2,0.1-0.4,0.1c-0.1,0.4-0.1,0.9-0.1,1.5c0.1,0.1,0.2,0.3,0.2,0.4
			c0,0.1,0.1,0.2,0.1,0.4c1.3,0,1.4-0.2,2.2-0.8c0-0.3,0-0.5,0.1-0.6C384.7,381.1,383.4,380.3,382.6,381z M389.2,378.2
			c-0.6,0.1-1.6,0.6-1.9,1c-0.2-0.2-0.4-0.4-0.5-0.6c-0.5,0-1.2-0.1-1.5,0.1c-0.4,0.1-0.5,0.3-0.6,0.8c0.2,0.3,0.6,0.7,0.8,1
			c1,0.1,1.5-0.5,2-0.5c0.3,0.2,0.4,0.3,0.5,0.6c0.4,0,0.8,0,1-0.1c0.9,0,1.2,0.2,1.5,0.8c0.9,0,1.2-0.1,1.8-0.4
			c0.1-0.7,0.1-1.1-0.1-1.6C390.9,378.8,389.9,379.2,389.2,378.2z M389.6,373.1c1.2,0,1.1-0.5,1.8-1c-0.1-0.4-0.2-0.9-0.5-1.2
			c-0.5-0.4-1.5,0-1.9,0.4c-0.4,0.1-0.4,0.2-0.5,0.6C388.8,372.1,389.4,372.7,389.6,373.1z M392.1,369.1c0.1-0.1,0-0.1,0.1-0.4
			c-0.3-0.3-0.2-0.6-0.5-0.9c-0.3-0.3-0.8-0.4-1.1-0.6c-0.4,0-0.8,0.1-1.2,0.1c0,0-0.1,0.1-0.1,0.1v0.8c0.4,0.3,0.6,1.1,0.9,1.5
			C390.8,369.7,391.7,369.4,392.1,369.1z M392.4,377.8c-0.1-0.1,0,0-0.1-0.2c-0.1-0.2-0.2-0.1,0-0.2c0-0.7-0.1-0.9-0.2-1.4
			c-0.9-0.2-1.2-0.1-2,0.1c0,0.4-0.1,0.8-0.1,1.2c0.3,0.2,0.5,0.6,0.8,0.8c0.1,0.1,0.7-0.1,1.1,0c0.6,0.2,1.6,1.7,2.4,1.2
			c0.6,0,0.8-0.2,1-0.8c0.1-0.2,0-0.6-0.2-0.9C394.3,377.3,392.9,377.4,392.4,377.8z M396,373.5c-0.6,0.1-0.6,0.2-1,0.4
			c-0.3,0.7-0.1,0.8,0,1.6c0.8,0,1.3,0.2,1.8-0.2c0.4-0.2,0.5-0.5,0.9-0.8v-0.2l-0.8-0.8C396.4,373.4,396.2,373.3,396,373.5z
			 M401.6,370.1c0.7-0.1,0.5-1,1-1.4v-0.2c-0.8-0.1-1.7-0.2-2.5-0.2c-0.3,0.2-0.5,0.3-0.8,0.6c0.1,0.2,0,0.6,0.1,0.9
			c0.1,0.2,0.5,0.4,0.6,0.6C400.8,370.4,401.2,370.5,401.6,370.1z M402.5,374c-0.1-0.4-0.3-0.5-0.5-0.8c-0.4-0.1-1.1-0.3-1.5,0
			c-0.3,0.2-0.4,0.6-0.5,0.9c0.2,0.3,0.4,0.7,0.6,1c1.1,0,1.2-0.2,1.8-0.6C402.4,374.2,402.4,374.1,402.5,374z M404.7,375.6
			c-0.7-0.2-2.1-0.7-2.8-0.1c-0.3,0.4-0.1,0.7-0.2,1.2c0.5,0.5,1.3,1.4,2.2,0.8c0.5-0.2,0.5-0.5,0.9-0.8c0-0.4,0.1-0.3,0-0.5
			C404.8,375.9,404.8,375.8,404.7,375.6z M408.9,374c-0.3,0-0.7,0.1-0.9,0.2h-0.2c-0.1,0.4-0.2,0.6-0.2,1.2c0.2,0.1,0.2,0.3,0.4,0.5
			c0.3,0.2,1,0.4,1.4,0.1c0.4-0.2,0.4-0.4,0.8-0.6C409.9,374.5,409.4,374.4,408.9,374z M414,384.5h-1.2c-1,1-1.2,1-1.8,2.5
			c0.7,0.3,0.9,0.6,2,0.6c0.7-0.6,1.4-0.8,1.8-1.8C415.1,385.2,414.3,384.8,414,384.5z M415.7,383.7l0.4,1.1
			c0.5,0.1,1.3,0.5,1.8,0.1c0.8-0.1,0.6-0.4,1-0.9c0-0.5-0.1-0.6-0.2-0.9C417.6,383.1,416.1,382.6,415.7,383.7z M419.9,377
			c-0.4-0.1-0.9,0.4-1.2,0.6c0,0.2-0.1,0.5-0.1,0.8c0.2,0.2,0.4,0.5,0.2,0.8c0,0.6,0.1,0.7,0.2,1c0.8-0.3,1.6-0.8,2.5-1
			c0.1-0.5,0.2-0.6-0.1-1C421.2,377.7,420.3,377.1,419.9,377z M423.6,374.1c-0.2-0.5-0.4-0.6-0.9-0.8c-0.1-0.1-0.5-0.1-0.6,0
			c-0.3,0.1-0.4,0.2-0.6,0.4v0.6c0.9,0.9,1,1.2,2.2,0.4C423.7,374.4,423.7,374.2,423.6,374.1z M424.2,384c-0.5,0-0.7,0.1-1,0.4
			c-0.2,0.3-0.3,0.8-0.4,1.2c0.1,0.1,0.1,0.1,0.1,0.4c0.3,0.1,0.6,0.1,0.8,0.2c0.8,0,0.9-0.2,1.4-0.5c0-0.9-0.1-0.7-0.1-1.2
			C424.7,384.3,424.4,384.1,424.2,384z M424.2,379.3c0.2,0.5,0.5,0.7,1.1,0.8c0.2,0.1,0.2,0,0.6,0c0.1-0.3,0.2-0.7,0.2-1
			c-0.3-0.3-0.3-0.5-0.8-0.6v-0.4C424.4,378.1,424.7,378.7,424.2,379.3z M425.4,381.8c0.1,0.4,0.4,0.7,0.6,1
			c0.2,0.2,0.6,0.3,0.9,0.1c0.9-0.1,0.9-0.7,0.9-1.6c0.9-0.2,1.1-0.2,1.8-0.5c0.1-0.4,0.2-0.6,0.2-1c-0.6-0.2-1.8-1.1-2.4-0.2
			c-0.3,0.4,0,0.7-0.1,1c-0.3,0.7-1.2,0.8-1.8,1.2H425.4z M428.9,383.1c0,0.4-0.1,0.8-0.1,1.1c0.4,0.3,0.7,0.7,1.2,0.9
			c0.4,0.2,1.8-0.1,2.4-0.1c0.1-0.2,0.2-0.3,0.4-0.5c0-0.6,0.2-0.8-0.1-1.2c-0.8-0.5-2.9-0.7-3.5-0.1H428.9z M447.6,368.5
			c-0.2,0.2-0.5,0.4-0.8,0.5v0.9c0.3,0.3,0.7,0.5,1,0.8c0.7-0.2,0.7-0.5,1.1-1C448.8,368.8,448.2,368.7,447.6,368.5z M453.9,369.2
			c-0.8,0.1-1.4,0.6-2,1c-0.1,0.3-0.2,0.5-0.2,1c0.3,0.2,0.6,0.5,0.8,0.9c2,0,2.1-0.7,3.1-1.6C455.4,369.2,454.4,369.5,453.9,369.2z
			 M454.1,368.1c1,0,0.8-0.4,1.2-0.9c0.1-1.2-0.7-1.5-1.5-1.4c-0.7,0.1-0.8,0.5-0.8,1.4C453.4,367.3,453.8,367.8,454.1,368.1z
			 M459.7,371.1c-0.5,0.1-0.5,0.1-0.9,0.2v1.1c0.1,0.1,0.2,0.4,0.4,0.5c0.3,0.2,0.7,0.3,1.2,0.2l0.6-0.6c0.1-0.2,0.1-0.3,0.1-0.6
			C460.8,371.5,460.4,370.9,459.7,371.1z M463.6,368.2c-0.1-1.2-0.9-1.1-2-1c-0.2,0.2-0.4,0.4-0.6,0.5c0,0.3,0,0.2,0.1,0.4
			c0,0.5-0.1,0.5-0.2,0.8c0.5,0.1,1.4,0.6,1.8,0.4C463.5,369.1,463.2,368.8,463.6,368.2z M466.4,371.7c-0.3-0.3-0.6-0.7-1-0.9
			c-0.2-0.1-0.6-0.1-1-0.1c-0.2,0.2-0.3,0.3-0.6,0.4c-0.2,0.9-0.4,1.6-0.8,2.2c1.4,0.4,3.6-1.6,5.1-0.1c0.9,0,1.7-0.4,2-1
			c0.1-0.3-0.5-1.1-0.8-1.6C468,370.7,467.3,371.2,466.4,371.7z M471.4,367.7c-0.2-0.1-0.9-0.1-1.2,0.1c-0.4,0.2-0.6,0.8-0.6,1.5
			c0.3,0.2,0.6,0.6,0.8,0.9c0.6,0,0.6,0,1.2,0c0.2-0.3,0.6-0.6,0.9-0.8C472.2,368.6,472.1,368,471.4,367.7z M473.7,366.1
			c0,0-0.1-0.1-0.1-0.1v0.1c-0.5,0-0.5,0.1-0.8,0.2v0.8c0.1,0.1,0.1,0.1,0.1,0.4c0.2,0.1,0.3,0.2,0.5,0.4c1,0,0.9-0.4,1.4-0.9
			C474.7,366.4,474.2,366.3,473.7,366.1z M488,373.3c-0.6-0.1-1.1-0.3-1.9-0.2c-0.1,0.5-0.4,0.9-0.1,1.4c0.2,0.6,0.7,0.9,1.4,1
			c0.2-0.2,0.2-0.2,0.5-0.2c0.1-0.3,0.2-0.6,0.4-0.9C488.2,373.8,488.2,373.6,488,373.3z M490.6,377.1c-0.7-0.1-1.6-0.4-2-0.1
			c-0.4,0.1-0.4,0.1-0.5,0.5c-0.1,0.2-0.1,0.5-0.1,0.9c0.3,0.3,0.1,0.1,0.1,0.5c0,0,0.1,0.1,0.1,0.1c1.2,0,1.8-0.4,2.5-0.9
			c0-0.4-0.1-0.6-0.1-0.8V377.1z M492.9,378.7c-0.2-0.2-0.9-0.1-1.5,0c-0.1,0.5-0.1,0.7,0,1.2c0.8,0.4,1,0.4,2,0.2
			c0-0.3,0-0.2,0.1-0.4C493.5,379,493.4,378.9,492.9,378.7z M497,374.1c-0.5,0-1.1-0.1-1.6,0.2h-0.2c-0.2,0.9-0.4,1.2,0,2
			c-0.4,0.2-0.9,0.4-1.1,0.9c-0.1,0.2,0,0.7,0.2,1l0.4,0.4c0.9,0,0.8-0.3,1.5-0.5c-0.2-0.4-0.3-0.9-0.4-1.4c1-0.2,1.3-0.8,1.9-1.2
			C497.6,374.6,497.3,374.6,497,374.1z M499.1,375.6c0,0.2-0.1,0.5-0.1,0.8c0.2,0.2,0.5,0.6,0.6,0.9c0.6,0,1.1,0,1.4-0.2
			c0.1-0.1,0.1-0.4,0.4-0.6c0-0.8-0.2-0.8-0.5-1.2C499.9,375.1,499.6,375.3,499.1,375.6z M505,374.2c-0.5-0.2-1.1-0.5-1.6-0.1
			c-0.4,0.2-0.6,0.7-0.8,1.2c0.2,0.1,0.5,0.3,0.6,0.5c0.9,0.1,1.1,0.1,1.8-0.2C505.1,374.8,505.1,375,505,374.2z M505.7,376.5
			c-0.8,0.1-1.3,0.4-1.5,1.1c-0.1,0.1-0.1,0.2-0.1,0.5c0.1,0.2,0.1,0.8,0.2,1c0.3,0.2,1.1,0.4,1.5,0.1c0.4-0.2,0.4-0.4,0.8-0.6
			c0-0.5-0.1-1-0.1-1.5C506.1,376.9,505.9,376.8,505.7,376.5z M507.1,362.5c-0.1,0.1-0.2,0.2-0.4,0.2c-0.2,0.4-0.3,0.8-0.2,1.5
			c0.3,0.2,0.7,0.5,0.9,0.8c1.2,0,1.2-0.6,1.8-1.2C509.1,362.5,508.4,362.4,507.1,362.5z M515.9,368.2c-0.7,0.8,0.2,1.4,0.6,2.1h1.9
			c0.3-0.2-0.1-0.3,0.6-0.4c0-1,0-1.6-0.5-2C517.8,367.4,516.4,367.6,515.9,368.2z M527.6,369.8c-0.6,0.1-0.9,0.3-1.4,0.2
			c-0.1,0.2-0.1,0.2-0.1,0.5c1,0.7,0.3,1.8,2.2,1.6c0.3-0.6,0.6-1.2,0.2-1.8C528.4,370.1,527.9,370.1,527.6,369.8z M534,364.7
			c-1.5,0.4-0.9,0.7-1.1,1.9c0.2,0.2,0.1,0.1,0.2,0.4c0.8-0.1,1.1-0.5,1.9-0.8c0.1-0.2,0-0.1,0.1-0.2c0-0.6-0.1-0.8-0.4-1.1
			C534.5,364.6,534.3,364.6,534,364.7z M540.9,359h-0.1c0-0.9-0.4-0.9-0.9-1.2c-0.5,0-0.8,0-1.1,0.2c-0.4,0.2-0.6,0.6-0.8,1.1
			c0.3,0.2,0.6,0.8,0.8,1.1c0.7,0,1.1-0.1,1.4-0.1c0.2-0.5,0.5-0.5,0.6-1C540.8,359,540.8,359,540.9,359z M542.5,365.7
			c-1,0-1.7,0.3-2,1c0.1,0.1,0,0.4,0.1,0.6c0.3,0.5,1.3,0.4,1.6,0.5c0.4-0.2,0.8-0.5,1.2-0.8C543.4,366.2,542.9,366.2,542.5,365.7z
			 M544.9,361.2V361c-0.4-0.1-1.4-0.3-1.8,0c-0.1,0-0.2,0.1-0.4,0.1c0,0.2-0.1,0.5-0.1,0.8c0.2,0.3,0.3,0.6,0.5,0.9
			c0.7,0.1,0.9,0,1.5-0.1c0.2-0.3,0.1-0.2,0.4-0.4C544.9,361.9,545.1,361.5,544.9,361.2z M548.4,356.1c-0.1-0.4-0.1-0.4-0.4-0.6
			c-0.1-0.1-0.6,0.1-0.9,0.2c-0.1,0-0.2,0.1-0.2,0.1v0.4c0.2,0.2,0.3,0.2,0.4,0.5c0.4-0.1,0.3-0.1,0.8,0c0.1-0.1,0,0,0.2-0.1
			C548.3,356.3,548.3,356.2,548.4,356.1z"/>
	</g>
</g>
<ellipse class="st1" cx="417.5" cy="401.6" rx="121.9" ry="4.5"/>
</svg>
