<?xml version="1.0" encoding="utf-8"?>
<!-- Generator: Adobe Illustrator 21.0.0, SVG Export Plug-In . SVG Version: 6.00 Build 0)  -->
<svg version="1.1" id="Calque_1" xmlns="http://www.w3.org/2000/svg" xmlns:xlink="http://www.w3.org/1999/xlink" x="0px" y="0px"
	 viewBox="0 0 841 595" style="enable-background:new 0 0 841 595;" xml:space="preserve">
<style type="text/css">
	.st0{fill:#DADADA;}
	.st1{fill:#FFFFFF;}
	.st2{fill:#1D1D1B;}
</style>
<ellipse class="st0" cx="462.6" cy="393.1" rx="68.1" ry="8.6"/>
<g>
	<g>
		<path class="st0" d="M330.9,198.4c-0.6-0.2-1.5,0.2-2.3-0.1c-0.1,0.1-0.1,0.2-0.2,0.4c-2.3,0.1-3.8,0.5-5.7,1
			c0,0.6-0.2,0.6-0.5,0.9c-0.2-0.1-0.4-0.1-0.5-0.2c0.1,0.5-0.7,3.1-0.4,3.3c0.4,1,0.6,2.5,1.9,2.8c-0.2-3.5,2.7-6.7,5.9-5.7
			c4.8,1.5,6.7,10.8,1.6,13c0.1,0,0.2,0,0.3,0c-0.4,0.9-1.3,0.9-2,1.5c-0.8,0.7-1.2,1.8-2,2.5c-0.5,0.5-1.1,0.2-1.6,0.8
			c-0.3,0.1-0.5-0.5-1-0.3c-1.3,0.7-4,1-5.1,2.1c-0.2,0.1,0,0.2-0.3,0.5c-0.3,0.1-0.5,0-0.7,0.2c0.3,0.4,0.1,0.4,0.3,0.8
			c-0.5,0-0.7,0.1-0.9,0.5c0.4,0.4,0.6,3.7,1.6,4.9c0.9,1,2.9,2.6,4.2,3.1c4,1.3,12.4,0.4,12.9-4.1c-0.1-0.4-0.5-0.7-0.5-1
			c-0.2-0.7,0.3-2.5-0.3-3.6c-0.8-1.5-2.6-2.2-2.9-4.4c-0.3-2.5,3.6-5.2,4.2-7.3C338.8,204.6,334.8,200,330.9,198.4z M326.4,218.6
			c-0.1,0-0.2,0.1-0.3,0.1c0-0.1,0-0.1,0-0.2C326.2,218.5,326.3,218.5,326.4,218.6C326.4,218.5,326.4,218.5,326.4,218.6z M326,209.3
			c0,0.1,0,0.2,0,0.3c0,0,0.1,0,0.1,0c0.1-0.1,0.1-0.2,0.2-0.3C326.2,209.3,326.1,209.3,326,209.3z M331.2,213.1c0,0.1,0,0.2,0,0.3
			c0.1,0,0.2-0.1,0.3-0.1c0-0.1,0-0.1,0-0.2C331.4,213.1,331.3,213.1,331.2,213.1z M323.9,232.5c0.3,0.2,0.1,0.1,0.5,0
			c0,0,0-0.1,0-0.1c-0.1-0.1-0.2-0.1-0.3-0.2C324.1,232.4,324,232.5,323.9,232.5z M328.3,233C328.3,233,328.3,232.9,328.3,233
			c-0.1-0.2-0.2-0.2-0.4-0.3C328,232.8,328.2,232.9,328.3,233z M491,302.5c-0.6,0-1.2-0.1-1.8-0.1c-1.8-0.9-3.5-8-2.9-10.4
			c0.4-1.5,1.6-2.2,1.8-3.8c-0.6-1.6-1.8-2.5-2.8-3.7c-1.5-2-3.2-4.2-5.3-5.8c-2.6-2-8.2-3.1-11.5-4.4c-0.3,1.2-2.3,0.6-3.6,0.9
			c-0.7,0.2-1.4,0.4-2.1,0.6c-4.2,0.9-3.5-3-5.2-5c-1.7,0.2-4.2,0.4-5.4-0.1c-1.6,0.8-3.4,0.6-5,1.2c-3,1-5.8,3.5-8.1,5.3
			c0.6,0.9,2.9,4.5,2.3,5.9c-0.3,0.6-0.7,0.6-1.3,0.9c-0.5-0.2-1-0.4-1.4-0.6c-0.8-0.2-5.1,1.8-5.7,2.1c-0.8-0.4-1.2-0.8-1.4-1.7
			c-0.1,0-0.2,0-0.4,0c-1.4,1.9-2.7,3.7-4.3,5.4c-1.4,1.5-3.3,2.7-4.3,4.5c1.1,4.3,2.2,8.5,3.2,12.8c0,0.8,0.1,1.6,0.1,2.4
			c0.4,2.5,0.7,5,1.1,7.6c0.1,3.6,0.2,7.2,0.4,10.8c-0.4,2.3-0.4,6.1,0.1,8.1c2.1-0.1,6-1.9,7.7-0.5c0.3,0.4,0.5,0.8,0.8,1.2
			c1.9-0.6,4-3.5,5.8-4.7c4-2.5,8.8-3.9,13.5-5.9c1.6-0.7,3.7-0.6,5.3-0.8c0.9-0.3,1.8-0.5,2.7-0.8c1.8-0.1,3.5-0.2,5.3-0.4
			c1.6-0.3,3.2-0.6,4.9-0.9c2.3,0.1,4.6,0.2,6.8,0.3c0.1-0.1,0.2-0.1,0.3-0.2c0.1-2.6-1.9-4.4-2.5-7c-0.2-1.1-0.2-2.7,0.7-3
			c0.2-0.2,0.1-0.1,0.5-0.2c1.2,0.7,2.5,1.3,3.7,2c1.6-0.3,2.4-1.7,4.1-2c1.2-0.2,2,0.7,2.9,0.4C490.5,311.5,492.3,304.4,491,302.5z
			 M464.7,283.3c0.4-2,0.2-3.8,1.3-5c0.5-0.4,1.1-0.8,1.6-1.2c3.5,0.2,2.8,2.4,4.6,3.1c0.9,0.2,2.1,0,3,0.4c2.3,1,3.7,4.1,2,6.2
			c-1.8,2.2-6,2.8-8.8,3.9c-1.5,0.5-2.9,2.1-4.6,2C461.6,289.3,463.9,287,464.7,283.3z M431.1,288.6c0.5-0.1,1-0.2,1.5-0.3
			c2.2,0,2.7,1,3.7,2.1c2.3-1.4,5.9-1.5,7.2,1.1c0.2,0.3,0.6,0.9,0.4,1.5c-0.4,1.2-2.3,2.2-3.2,3c-1.3,1.1-2.6,2.2-4,3.3
			c-0.9,0.7-2,1.1-2.9,1.9c-0.7,0.6-1,1.6-1.8,2.2c-0.8,0-0.9,0.1-1.4-0.3C428.8,299.5,429.2,291.9,431.1,288.6z M444.1,316.4
			c-0.3,0.4-0.6,0.8-0.9,1.3c-2.1,4.4-3.7,5.3-7.5,7.9c-0.3-0.1-0.7-0.2-1-0.3c-0.4-0.7-0.7-1.4-1.1-2.1c-0.1-1.1-0.2-2.2-0.4-3.2
			c-1.1-3.7-3.6-5.3-1.3-9.6c0.2-0.1,0.4-0.1,0.6-0.2c2.4,0,3.7,2.3,4.4,4c1.3-0.3,1.8-1.4,3-1.8
			C442.1,311.7,444.7,314.6,444.1,316.4z M444.5,279.9c0,0-0.2-0.5-0.3-0.6c-0.4-1.1-0.8-2.3,0.4-3.2c2.3,0.2,3.3,1,4.9,1.9
			c0,0,0.1,0,0.1,0c0.6-2.4,1.3-3.3,3-4.7c3.2,0.6,4.1,4.9,3.2,8.4c-0.4,1.4,0.2,2.3-0.3,3.5c-0.4,1.1-1.6,1.6-2.1,2.5
			c-3,0.5-5.6-2.5-7.2-4.5C445.8,282.9,444,280.2,444.5,279.9z M448.6,308c-0.4-1.4,0.8-2.6,0.4-4.6c-0.4-1.6-1.2-5.7-0.5-7.9
			c0.4-0.7,0.8-1.4,1.2-2.1c0.3-0.1,0.7-0.2,1-0.4c3.3,0.1,3.5,3.6,5,3.9c2.4-1.2,3.5-1.3,5.3,0.7c0.7,0.7,1.4,1.2,1.4,2.5
			c-0.7,0.9-1.4,2.6-2.4,3.4c-2,1.4-4.3,2.2-6.2,3.6c-1.1,0.8-2.2,2.5-3.7,2.8C449.5,309.5,448.9,309.1,448.6,308z M468.8,319.7
			c-1.8,2.7-9.3,2.1-12.4,3.4c-0.9,0.4-2.9,2.1-4,1.5c-1.5-0.8-0.7-3.4-0.1-4.6c0.5-1,1.3-2.1,1.8-3.1c0.8-1.6,1.2-3.6,2.3-5
			c0.7-0.9,2-0.9,2.9-1.6c3.5,0.3,3,1.4,3.5,4.6c3.4-0.1,5-0.2,6.2,2.3C469.3,317.9,469.3,319,468.8,319.7z M481.3,302.4
			c-0.4,2.1,0.4,3.6-0.6,5.1c-0.9,0.3-1.5,0.1-2.3,0c-3.6-0.3-3.6-1-5.5-2.4c-0.3-0.4-0.5-0.7-0.8-1.1c-0.5-0.3-0.9-0.2-1.4-0.5
			c-0.9-0.7-2.1-3.9-1.5-4.7c0.3-0.8,0.7-1.1,1.2-1.6c1.6-0.1,3.2,1.3,4.2,0.9c0.9-2.4,1.2-4,3.5-5.3
			C483.8,292.6,482,298.4,481.3,302.4z M308.9,285.7c-1.8-0.5-4.1-0.5-5.8-0.8c-0.6,0.2-1.5,0.1-2.1,0.1c-1.7,0.3-3.4,0.5-5,0.8
			c-0.4,0-0.7-0.1-1.1-0.1c-1.7,0.6-4.4,1.4-6,2.7c-2.8,2.3-5.5,9.3-4.6,13.2c0.9,0,5-0.4,5.9-0.7c1.6-0.6,3.9-2.7,6.7-1.7
			c1.4,0.5,2.5,2.2,3.8,2.8c0.6,0,1.1,0,1.7,0c1.2,0.4,1.9,1,2.8,1.6c0.3,0,0.7,0,1,0c4.3,2.1,9,8.6,9.1,13.6
			c0.2,0.2,0.5,0.4,0.7,0.5c2.3-1.1,3.8-2.9,4.9-5.2c0.7-1.6,1.8-3.7,2.5-5.4c1.2-2.9-2-10.7-3.3-13
			C318.2,291.1,312.9,286.8,308.9,285.7z M420.3,295.3c0-0.1,0-0.2,0-0.4c-0.3-0.6-0.6-1-0.8-1.7c-0.2,0-0.4,0-0.5,0
			c-1.1,1.2-4.7,2.3-6.4,3.1c-0.9,0.6-1.9,1.2-2.8,1.8c-0.9,0.4-1.8,0.6-2.4,1.3c0,0.1,0.1,0.2,0.1,0.4c0.1,0,0.2,0,0.4,0
			c1.2-0.8,2.4-0.8,4-1.4C414.6,297.2,416.9,296.3,420.3,295.3z M419.7,297.9C419.7,297.8,419.7,297.8,419.7,297.9
			c-0.5-0.1-0.9-0.1-1.4-0.1c-1.4,0.4-2.8,0.8-4.2,1.3c-2,0.8-3.5,1.6-5.8,2.3c0.1,0.7,0.8,3,1.6,3.2c1.1-0.8,2.3-1.6,3.4-2.3
			C415.6,300.9,418.5,300,419.7,297.9z M412.9,305.6c1.4-0.4,2.9-0.7,4.3-1.1c0.6-0.3,1.1-0.6,1.7-0.9c1.2-0.1,2.3-0.2,3.5-0.4
			c0-0.1,0.1-0.1,0.1-0.2c-0.3-1-0.4-2.7-1.2-3.2c-2.3,2.3-6,3.7-8.6,5.6C412.8,305.5,412.8,305.6,412.9,305.6z M298.4,310.1
			c3-1.2,0.6-7-1.3-8.3c-0.8-0.5-1.6-0.7-2.6-1c-1.3,0.6-2.9,0.5-3.5,2.1C289.5,307.1,294.1,311.8,298.4,310.1z M307.4,307.2
			c-1.5-1.2-3.2-2.5-5.6-2.9c0,0.1-0.1,0.1-0.1,0.2c0.2,0.8,0.1,2.3,0.5,2.6c1.3,0.6,2.5,0.7,3.6,1.4c1.2,1.2,2.3,2.5,3.5,3.7
			c-0.1,0.1-0.1,0.2-0.2,0.4c1.5,1,1.2,2.4,1.6,4.1c1.2,4.6-0.8,8.9-3.7,12.3c-0.5,0.2-1,0.5-1.4,0.7c-0.8,0.5-1.6,0.9-2.3,1.4
			c-1.4,0.2-2.7,0.4-4.1,0.6c-1,0.4-6.7-1.3-7.6-1.7c-0.6-0.3-1.4-1-2.1-1.4c-4.4-2.6-9.2-7.3-7.5-13.6c0-0.5-0.1-1-0.1-1.4
			c0.7-1.2,0.7-2.9,1.5-4.1c1.1-1.8,3.9-2.8,5.5-4.1c0-0.8,0-1.7,0-2.5c-0.5-0.1-0.9-0.1-1.4-0.2c-0.8,0.6-2.8,0.8-3.6,0.7
			c0.1,0.1,0.1,0.2,0.2,0.3c-4.7,0.8-6.2,6.7-7.1,10.4c-0.3,1,0,2.2-0.3,3.2c-0.7,2.9,0.9,5.6,2.5,8.4c2.7,4.5,6.3,6.8,11.4,8.8
			c1.5,0.3,3,0.7,4.5,1c0.6,0,1.1-0.1,1.7-0.1c1.2,0.4,2.7,0.6,4.2,0.3c3.9-0.8,8.1-2.4,9.8-5.4C316,321.4,314.3,312.6,307.4,307.2z
			 M420.7,305.7C420.7,305.7,420.7,305.7,420.7,305.7c-2.9,1.3-6.4,1.8-9.7,2.3c0,0.1,0,0.3,0,0.5c0.3,1,0.6,1.9,0.9,2.9
			c0.1,0,0.1,0.1,0.2,0.1C412.7,311.4,420.6,306.1,420.7,305.7z M415.6,312.2c0.1,0,0.2,0.1,0.3,0.1c1.7-0.3,3.6-0.5,5.4-0.6
			c0.9,0.1,1.7,0.1,2.6,0.2c0-0.1,0-0.1,0-0.2c0.4-0.6,0.1-4.2-0.5-4.6C421.6,308.5,416.3,310.2,415.6,312.2z M288.9,307.7
			c-0.9,0.9-2.5,1-3.2,2.2c0.1,1.4,1.5,3,2.3,3.8c0.2,0.1,0.5,0.2,0.7,0.4c2.8,4.3,8.7,7.3,15,7.9c1.7-0.1,3.3-0.2,5-0.4
			c0.2-2.5,0.6-5.8-1-8c-0.5-0.7-1.3-1-2-1.6c-1.2-1.1-1.9-2.4-4.1-2.2c-1,2.1-5.7,3.4-8.6,1.9c-1.4-0.7-2.8-2.6-3.2-4
			C289.4,307.7,289.1,307.7,288.9,307.7z M419.4,314.2c-0.2,0-0.5-0.1-0.7-0.1c-1.8,0.9-3.9,0-5.6,0.5c0.1,0.9,0.2,2.1,0.7,2.9
			c0,0,0.1,0,0.1,0c1-0.2,5.2-2.6,5.7-3.2C419.5,314.2,419.4,314.2,419.4,314.2z M423.8,315c-1.3,0.7-8.9,3.8-8.6,5c2.3,0,4.7,0,7,0
			c1,0.2,1.8,0.8,2.6,1.2c0.1-0.1,0.1-0.1,0.2-0.2c-0.4-1.4-0.3-4.3-0.7-5.9C424.1,315,424,315,423.8,315z M422.6,322.6
			c0-0.1,0-0.2,0-0.3c-0.1,0-0.2-0.1-0.3-0.1c-0.5-0.4-1.6-0.5-2.4-0.5c-1.4,0.6-4.7-0.5-5.8,0.6c0.1,1.3,0.3,2.5,0.5,3.8
			c0.1,0,0.2,0.1,0.4,0.1C417.2,325.3,421.2,324.6,422.6,322.6z M424.7,323.9c-2.3,1.9-7.7,2.7-9.2,5c0.1,0.1,0.2,0.2,0.3,0.4
			c2.3,0.1,4.7,0.1,7,0.2c0.9,0.2,1.3,1,2,1.3c0.4,0.2,0.5-0.7,0.5-0.8C425.5,328.9,425.5,324.2,424.7,323.9z M423.3,332.4
			c-0.1-0.2-0.2-0.4-0.4-0.5c-1.6-0.4-3.1-0.6-4.8-0.7c-1,0.1-2,0.2-3,0.4c-0.4,1.2-0.1,4.6,0.1,5.6c0.1,0,0.3,0.1,0.5,0.1
			C417.4,335.9,423,334.3,423.3,332.4z M424.7,334.1c-1,2-3.3,1.9-5.1,3c-1,0.7-2,1.4-3.1,2.1c0.1,0.1,0.2,0.2,0.3,0.4
			c2.5,0.8,5.4-0.2,7.6,1.1c0.3,0.2,0.4,0.3,0.6,0.1c0.6-0.6,0.5-5.3,0.3-6.5C425,334.1,424.9,334.1,424.7,334.1z M415.8,348.1
			c1.1-0.3,7.3-4.3,7.4-5.6c-0.1-0.1-0.2-0.3-0.4-0.5c-2-0.5-4.9-0.4-7.1-0.5C415.2,342.6,415.2,346.7,415.8,348.1
			C415.7,348.1,415.7,348.1,415.8,348.1z M424.5,344.7c-1.7,2.5-7.1,2.7-7.6,6.2c1.7,0.2,3.4-1.1,4.9-1.5c1.7-0.5,2,0.9,2.9,0.9
			c0.6-1.7,0.6-4.1,0.4-5.6C424.9,344.7,424.7,344.7,424.5,344.7z M421.3,352.1c-0.3-0.1-5.5,1.3-5.6,1.4c-0.6,1.1,0.3,2.6,0,4.1
			c0.1,0.1,0.2,0.1,0.4,0.2c2.6-1.3,6.7-1.9,8-4.4c0.1-0.5,0.1-1,0.2-1.4c-0.4,0.3-0.8,0.6-1.2,0.9
			C422.3,352.6,421.9,352.2,421.3,352.1z"/>
	</g>
</g>
<path class="st1" d="M442.7,376.2c0,0,7.6,9.4,14.4,10.2c6.8,0.8,22,1.6,26.4-7.8c4.4-9.4,9.6,1.2,9.6,1.2l1,3c0,0-6.2,2.2-5,5.6
	c1.2,3.4,11,8.4,22-3.6"/>
<g>
	<g>
		<path class="st2" d="M513.1,376.6c-0.8-2.8-3.2-4.5-2.9-8.2c0.6-6.3,3.6-14.4,0.4-19.1c-1.2-1.8-3.5-3.1-5.9-3.5
			c-1.8-0.3-3.7,0.1-5.2-0.4c0.1-0.7,0.1-1.5,0.2-2.3c-0.2-1-0.4-2-0.6-3c-1-1.9-3.3-3.2-5.3-4.1c-1.2-0.5-4.2-0.1-5-1.3
			c0.9-2.8,1.8-5.2,2.9-7.6c0.8-1.9,0.8-3.5,1.7-5.2c1.8-3.4,4.7-9.7,5.2-13.8c1.7-12.5,0.2-22.4-7.8-28.8c-1.9-1.5-4.2-2.1-6.5-3.4
			c-3-1.7-6.7-3.4-10.7-4.4c-1.4-0.7-2.8-1.4-4.2-2.1c-5.4-1.5-11.6-1.7-16.7-0.5c-1.5,0.4-4.6,0.1-5.8,0.9
			c-2.8,1.9-5.8,3.3-8.3,5.5c-0.7,0.3-1.4,0.5-2.1,0.8c-0.1,0.3-0.2,0.5-0.4,0.8c-1.1,1.2-3,2-4.3,3c-0.1,0.2-0.1,0.4-0.2,0.6
			c-0.8,1.4-2.4,2.5-3.3,4c-1.7,2.5-4.3,4.8-6.6,6.8c-0.6-0.2-0.9-0.7-1.4-1c-1.5,0.1-2.3,1.2-3.3,1.7c-1.2,0.5-2.5,1-3.7,1.5
			c-2.2,1.3-4.9,3.7-8.2,3.5c-0.7,0.7-1.3,1.2-1.4,2.6c-1.6,0.3-3.5,0.5-4.8,0.9c-2-0.1-3.9-0.1-5.9-0.2c-1.8,0.4-5.1,0.4-6.9-0.1
			c-1.6-0.4-4.6-0.5-5-1.9c-0.1,0-0.1,0-0.2,0c0-0.1,0.1-0.1,0.1-0.2c0.8-1.5,1.7-2.7,1.8-4.7c-0.2,0-0.4,0-0.5,0
			c0.2-0.3,0.5-0.3,0.6-0.6c0.4-1-0.2-1.8,0-2.8c3-1.8,5.5-4.5,6.6-8.3c0.5-1.6-0.1-4.3-0.4-5.7c-0.1-1.4-0.3-2.8-0.5-4.2
			c-1.5-3.7-4-7.8-7.7-9.3c-0.1-1.3-0.2-3.8-0.5-5.6c-0.3-2.4-1.7-4.8-2.5-6.7c-3.6-8.4-9-16.2-16.6-20.9c-0.9-0.8-1.9-1.6-2.8-2.3
			c-2.4-1.2-4.9-2.5-7.3-3.7c-2.1-0.8-4.5-1.2-6.2-2.4c-2.4-1.7-4.3-5.4-4.7-8.6c-0.2-1.5,2.3-4.7,1.8-5.2c0.2,0,0.4-0.1,0.5-0.1
			c0-0.9,0.1-1.9,0.1-2.8c-0.3-1.2-1.2-2.4-1.9-3.4c-2.9-4.1-4.5-4.9-9.7-6.1c-0.2-0.1-3.2,0-3.5,0.2c-0.4,0.2-0.7,1-1.3,1.2
			c-3.7,1.3-9,4.1-6.7,9.7c0.4,1,1.2,2.5,2.4,2.9c1.1,0.4,1.4-0.4,2.2,0.5c-0.1,0-0.2-0.1-0.3-0.1c0.2,0.3,0.3,0.3,0.5,0.5
			c0.1,0,0.3,0,0.5,0c0-0.2,0-0.3-0.2-0.5c0.4-0.1,0.8-0.2,1.3-0.3c0.1,0.2,0.2,0.5,0.3,0.7c0.1,0,0.2,0,0.4,0
			c0-0.4,0.3-0.8,0.7-1.1c-0.3-1-1.2-0.8-1.6-1.5c-0.5-0.8-0.5-1.9-0.6-2.5c0.7-1,0.9-1.7,2.1-2.3c0.3,0.1,0.5,0.3,0.8,0.5
			c-0.1-0.1-0.1-0.3-0.2-0.5c2.3,1.3,5.8,5.6,3.2,9.5c-0.9,1.3-2.8,2.2-4.1,3.2c-0.7,0.9-1.3,1.7-2,2.6c-2.3,0.8-4.6,1.6-6.8,2.3
			c-1.4,0.9-2.4,2.5-2.1,4.4c-0.9,0.4-2,0.1-3.2,0.5c-0.9,0.3-0.7,1.3-1.4,1.7c-0.6,0.1-1.1,0.2-1.7,0.3c-1.3,0.4-2.9,0.9-4.1,1.6
			c-1.4,0.8-3.1,1.9-4.4,3c-0.7,0.6-1.2,1.6-2.2,1.9c0,0.1,0,0.3,0,0.5c-1.3,0.2-5.9,5.9-6.9,7.5c-0.4,0.9-0.8,1.7-1.3,2.6
			c-1.5,1.8-2.6,5.1-3.8,7.2c-0.2,0.3-0.2,1.8-0.2,1.8c-1.2,1.7-2,4.9-2.6,7.1c-0.7,2.6-0.2,5.8-1.4,8.3c0.6,0.7,0.6,5.3,0.6,6.4
			c0.3,4.7,0.8,9.5,3.6,13c-3,2.2-6.4,10.3-5,15c-0.6,0.9-1.9,1.4-2.7,2.2c-0.6,0.5-1.7,2-2.2,2.9c-1.8,3-2.1,7.4-2.6,11.6
			c-0.3,2.8,2.9,7.5,4.2,9c2,2.3,3.7,4.7,6.4,6.4c3.7,2.3,13.5,4,18.3,2.6c3.4-1,7-3.4,8.8-6c1-1.5,1.7-5.6,2.6-6.3
			c0.4-0.1,4.6,1.9,5.4,2.3c2.1,1,7.7,2.2,11.1,2.3c0.5,2.1-0.3,5.1-0.2,7.2c0.3,4.7-0.4,9.1-0.8,13.8c-0.2,2.7,0.5,5.5-0.5,8.4
			c-0.4,1.2-3.6,4.8-4.7,5.3c-3.5,1.7-10.8,0.1-14.9,0.4c-1.8,0.1-5,0.2-7.3,1.1c-0.7,0.3-0.7,1-1.4,1.3c-2.1,0.7-4.6,0.5-6.4,1.6
			c0,0.4,0,0.8,0,1.3c-2.4,0.9-4.5,0.8-5.1,3.4c0.7,1.2,1.8,1.4,2.3,2.3c0,0.4,0.1,0.7,0.1,1.1c0.8,1.2,1.9,2.2,3.6,2.8
			c2.6,1,5.1-0.1,8.6,0.5c1.2,0.2,2.4,0.5,3.6,0.7c1.3,0,4.1,0,5.3,0.9c1.8,1.3,1.2,3.8,2,6.1c0.8,2.2,2.2,2.3,4.6,3.1
			c0.5,0.2,2,0.8,2.8,0.5c4.8-1.8,1.8-9.6,6.4-11.9c2.6-1.3,5.8-1.7,8.6-2.3c1-0.1,1.9-0.2,2.9-0.3c2.1-0.6,4-1.9,5.6-3.1
			c1.2-0.9,2.6-1.7,3.2-3.1c0.1,0,0.2,0,0.4,0c0.2,3.3,2.1,6.6,1.8,10.2c-5.7,2.4-15.1,0.5-16.8,7.3c-0.3,1.2,0.8,2,0.9,3.2
			c-1.5,1-3.5,2.4-5.6,2.7c-0.6,1.1-1,2.3-0.5,3.8c-0.1,0.7,0.4,0.8,0.8,1.3c-2.9,4.3,3.1,5.5,6.8,4.3c3.4,3.2,7.7,1.7,12.3,0.5
			c1.1-0.3,3.8-1.6,5.1-0.8c0.1,0.1,0.2,0.2,0.4,0.4c-0.1,2.2-1.2,3.1-1.2,5.8c4.3,3.8,10.2-4.5,12.4-7.4c2.1-2.7,6.1-5.5,7.4-8.8
			c2.3-5.8,0.4-12.2-1.1-17.7c-0.5-2.7-1.1-5.4-1.6-8.1c-1.3-3.2-3.7-8.1-3.5-12.1c0.1,0,0.1-0.1,0.2-0.1c1.2,0.2,2.1,1.2,3.1,1.7
			c1.3,0.7,3.6,1.5,5,2.1c1.4,0.6,2.9,0.6,4.3,0.9c1.1,0.3,2.2,0.7,3.2,1c3.4,0.8,9.5,0.6,12.3,0.3c2.6,0,5.2-0.1,7.7-0.1
			c0.1,0,0.2,0.1,0.4,0.1c0.1,3.8-1.2,7.3-0.2,11.4c1.7,6.9,9.3,10.2,17.3,9.9c1-0.2,2-0.4,3-0.5c1.4-0.3,2.5,0.2,3.8-0.2
			c1-0.3,3.1-1.5,3.9-1.3c1.8,0.5,3.8,2.2,5.5,3c2.1,0.7,4.1,1.3,6.2,2c2.1,0.4,4.3,0.7,6.4,1.1c1.2,0.2,3,0.9,4.3,1.2
			c1.5,0.2,2.9,0.4,4.4,0.5c1.9,0.3,4,0.3,6.1-0.1c0.7-0.2,1.3-0.4,2-0.5c5.8,0.3,11.4-1.4,16.5-3.3c1-0.2,2-0.4,3-0.5
			c1.9-0.7,3.1-2.2,4.9-3c0.8,0.4,1.1,0.9,1.4,1.7c-1.2,1.7-3.7,1.6-4.4,3.8c-1.4,4.2,1.8,5.8,4.7,6.9c0.8,0.3,2,0.9,3.2,0.8
			c4-0.5,11.4-2.8,13.8-5.6c1.3-1.6,2.5-3.6,2.8-5.9c0-0.8-0.1-1.7-0.1-2.5C512.9,378.4,513,377.5,513.1,376.6z M493.8,347.6
			c-0.2,1.1-0.4,2.2-0.5,3.2c-0.8,0.8-1.6,1.6-2.4,2.3c-1,1.5-1.6,4.6-3.5,5c-0.9,0.2-4.8-1-6.4-0.8c-1.1,0-2.3,0-3.4,0
			c-2.2,0.4-4.9,0.7-7.4,0.7c-0.1-0.1-0.2-0.1-0.3-0.2c0.8-2.3,3.9-3.4,5.4-5.1c1.7-2,3.5-4.1,5.2-6.1c1.1-1.5,1.4-3.6,2.9-4.8
			c1-0.5,2-1,3-1.5C491.4,340.4,495.7,342,493.8,347.6z M426.8,289.3c1.6-1.7,3-3.5,4.3-5.4c0.1,0,0.2,0,0.4,0
			c0.3,1,0.7,1.3,1.4,1.7c0.5-0.2,4.9-2.3,5.7-2.1c0.5,0.2,1,0.4,1.4,0.6c0.6-0.3,1-0.3,1.3-0.9c0.5-1.5-1.7-5-2.3-5.9
			c2.3-1.8,5.1-4.3,8.1-5.3c1.7-0.6,3.4-0.3,5-1.2c1.2,0.5,3.7,0.3,5.4,0.1c1.8,2,1,5.9,5.2,5c0.7-0.2,1.4-0.4,2.1-0.6
			c1.3-0.3,3.3,0.3,3.6-0.9c3.3,1.3,8.9,2.4,11.5,4.4c2.1,1.6,3.8,3.8,5.3,5.8c0.9,1.2,2.2,2.1,2.8,3.7c-0.2,1.6-1.4,2.3-1.8,3.8
			c-0.6,2.4,1.1,9.4,2.9,10.4c0.6,0,1.2,0.1,1.8,0.1c1.3,1.8-0.5,8.9-1.1,10.4c-0.9,0.4-1.7-0.6-2.9-0.4c-1.7,0.3-2.6,1.6-4.1,2
			c-1.2-0.7-2.5-1.3-3.7-2c-0.4,0.1-0.3,0-0.5,0.2c-0.9,0.3-1,1.9-0.7,3c0.6,2.6,2.6,4.4,2.5,7c-0.1,0.1-0.2,0.1-0.3,0.2
			c-2.3-0.1-4.6-0.2-6.8-0.3c-1.6,0.3-3.2,0.6-4.9,0.9c-1.8,0.1-3.5,0.2-5.3,0.4c-0.9,0.3-1.8,0.5-2.7,0.8c-1.6,0.2-3.8,0.2-5.3,0.8
			c-4.8,2-9.5,3.4-13.5,5.9c-1.8,1.1-3.9,4-5.8,4.7c-0.3-0.4-0.5-0.8-0.8-1.2c-1.7-1.3-5.6,0.5-7.7,0.5c-0.5-2-0.4-5.8-0.1-8.1
			c-0.1-3.6-0.2-7.2-0.4-10.8c-0.4-2.5-0.7-5-1.1-7.6c0-0.8-0.1-1.6-0.1-2.4c-1.1-4.3-2.2-8.5-3.2-12.8
			C423.5,292,425.5,290.8,426.8,289.3z M415.8,353.5c0-0.1,5.3-1.4,5.6-1.4c0.6,0.1,1,0.5,1.8,0.6c0.4-0.3,0.8-0.6,1.2-0.9
			c-0.1,0.5-0.1,1-0.2,1.4c-1.4,2.5-5.5,3.1-8,4.4c-0.1-0.1-0.2-0.1-0.4-0.2C416,356.1,415.1,354.6,415.8,353.5z M411,308
			c3.3-0.5,6.8-1,9.6-2.3c0,0,0.1,0,0.1,0c-0.1,0.4-8,5.7-8.6,5.8c-0.1,0-0.1-0.1-0.2-0.1c-0.3-1-0.6-1.9-0.9-2.9
			C411,308.3,411,308.2,411,308z M410,304.5c-0.8-0.2-1.5-2.5-1.6-3.2c2.2-0.6,3.7-1.5,5.8-2.3c1.4-0.4,2.8-0.8,4.2-1.3
			c0.5,0,0.9,0,1.4,0c0,0,0,0.1,0,0.1c-1.2,2.2-4.1,3.1-6.3,4.3C412.3,303,411.1,303.7,410,304.5z M424.8,330.7
			c-0.6-0.2-1.1-1.1-2-1.3c-2.3-0.1-4.7-0.1-7-0.2c-0.1-0.1-0.2-0.2-0.3-0.4c1.5-2.3,6.9-3.1,9.2-5c0.8,0.3,0.9,5,0.5,6
			C425.2,330.1,425.2,330.9,424.8,330.7z M424.9,321.1c-0.8-0.4-1.6-0.9-2.6-1.2c-2.3,0-4.7,0-7,0c-0.4-1.2,7.2-4.3,8.6-5
			c0.2,0,0.4,0,0.5,0c0.5,1.6,0.4,4.5,0.7,5.9C425,321,424.9,321,424.9,321.1z M423.9,311.6c0,0.1,0,0.1,0,0.2
			c-0.9-0.1-1.7-0.1-2.6-0.2c-1.8,0.1-3.7,0.4-5.4,0.6c-0.1,0-0.2-0.1-0.3-0.1c0.8-2,6-3.7,7.7-5.1
			C423.9,307.5,424.2,311,423.9,311.6z M418.6,314.1c0.2,0,0.5,0.1,0.7,0.1c0.1,0,0.1,0,0.2,0c-0.5,0.7-4.7,3.1-5.7,3.2
			c0,0-0.1,0-0.1,0c-0.5-0.8-0.7-1.9-0.7-2.9C414.7,314.1,416.8,315,418.6,314.1z M419.9,321.8c0.8,0,1.9,0.1,2.4,0.5
			c0.1,0,0.2,0.1,0.3,0.1c0,0.1,0,0.2,0,0.3c-1.4,1.9-5.4,2.6-7.7,3.7c-0.1,0-0.2-0.1-0.4-0.1c-0.1-1.3-0.3-2.5-0.5-3.8
			C415.2,321.4,418.5,322.4,419.9,321.8z M415.2,331.5c1-0.1,2-0.2,3-0.4c1.7,0.1,3.2,0.3,4.8,0.7c0.1,0.2,0.2,0.4,0.4,0.5
			c-0.3,2-5.9,3.5-7.6,4.8c-0.1,0-0.3-0.1-0.5-0.1C415.1,336.1,414.8,332.6,415.2,331.5z M415.7,341.7c2.2,0,5.1-0.1,7.1,0.5
			c0.1,0.1,0.2,0.3,0.4,0.5c-0.1,1.3-6.3,5.2-7.4,5.6c0,0-0.1,0-0.1,0C415.2,346.7,415.2,342.6,415.7,341.7z M421.8,349.4
			c-1.5,0.4-3.2,1.7-4.9,1.5c0.5-3.5,5.9-3.7,7.6-6.2c0.2,0,0.4,0,0.5,0c0.2,1.5,0.2,3.9-0.4,5.6
			C423.8,350.3,423.5,348.9,421.8,349.4z M424.9,340.7c-0.3,0.2-0.3,0.1-0.6-0.1c-2.2-1.3-5-0.3-7.6-1.1c-0.1-0.1-0.2-0.2-0.3-0.4
			c1-0.7,2-1.4,3.1-2.1c1.8-1.1,4.2-1,5.1-3c0.2,0,0.4,0.1,0.5,0.1C425.5,335.3,425.6,340,424.9,340.7z M421.3,299.8
			c0.7,0.6,0.9,2.2,1.2,3.2c0,0.1-0.1,0.1-0.1,0.2c-1.2,0.1-2.3,0.2-3.5,0.4c-0.6,0.3-1.1,0.6-1.7,0.9c-1.4,0.4-2.9,0.7-4.3,1.1
			c-0.1-0.1-0.1-0.1-0.2-0.2C415.3,303.5,419.1,302.2,421.3,299.8z M409.7,298.1c0.9-0.6,1.9-1.2,2.8-1.8c1.6-0.8,5.3-1.9,6.4-3.1
			c0.2,0,0.4,0,0.5,0c0.2,0.8,0.5,1.1,0.8,1.7c0,0.1,0,0.2,0,0.4c-3.3,1-5.7,1.8-8.6,3c-1.5,0.6-2.7,0.6-4,1.4c-0.1,0-0.2,0-0.4,0
			c0-0.1-0.1-0.2-0.1-0.4C407.9,298.7,408.9,298.6,409.7,298.1z M331.2,213.1c0.1,0,0.2,0,0.3,0c0,0.1,0,0.1,0,0.2
			c-0.1,0-0.2,0.1-0.3,0.1C331.2,213.3,331.2,213.2,331.2,213.1z M318.6,221.9c-0.2-0.4,0-0.4-0.3-0.8c0.2-0.2,0.4-0.1,0.7-0.2
			c0.2-0.2,0.1-0.3,0.3-0.5c1.2-1,3.8-1.4,5.1-2.1c0.5-0.2,0.7,0.4,1,0.3c0.5-0.7,1.1-0.3,1.6-0.8c0.7-0.7,1.2-1.8,2-2.5
			c0.7-0.6,1.6-0.6,2-1.5c-0.1,0-0.2,0-0.3,0c5.1-2.1,3.2-11.5-1.6-13c-3.2-1-6,2.2-5.9,5.7c-1.3-0.3-1.5-1.8-1.9-2.8
			c-0.4-0.2,0.5-2.8,0.4-3.3c0.2,0.1,0.4,0.1,0.5,0.2c0.3-0.3,0.4-0.3,0.5-0.9c1.9-0.5,3.4-0.9,5.7-1c0.1-0.1,0.1-0.2,0.2-0.4
			c0.7,0.3,1.6-0.2,2.3,0.1c4,1.6,7.9,6.2,6.1,11.6c-0.7,2.1-4.5,4.8-4.2,7.3c0.2,2.2,2.1,2.9,2.9,4.4c0.6,1.1,0,3,0.3,3.6
			c0.1,0.2,0.4,0.6,0.5,1c-0.5,4.5-8.9,5.4-12.9,4.1c-1.3-0.4-3.4-2.1-4.2-3.1c-1.1-1.2-1.2-4.5-1.6-4.9
			C317.9,222,318.1,222,318.6,221.9z M328.3,232.9C328.3,232.9,328.3,233,328.3,232.9c-0.1,0-0.2-0.1-0.4-0.2
			C328,232.8,328.2,232.8,328.3,232.9z M311.1,330.1c-1.7,3-5.9,4.6-9.8,5.4c-1.5,0.3-3.1,0.2-4.2-0.3c-0.6,0-1.1,0.1-1.7,0.1
			c-1.5-0.3-3-0.7-4.5-1c-5-2.1-8.7-4.3-11.4-8.8c-1.6-2.8-3.2-5.5-2.5-8.4c0.2-0.9,0-2.1,0.3-3.2c0.9-3.7,2.5-9.6,7.1-10.4
			c-0.1-0.1-0.1-0.2-0.2-0.3c0.8,0.1,2.8-0.1,3.6-0.7c0.5,0.1,0.9,0.1,1.4,0.2c0,0.8,0,1.7,0,2.5c-1.6,1.3-4.4,2.3-5.5,4.1
			c-0.8,1.3-0.8,2.9-1.5,4.1c0,0.5,0.1,1,0.1,1.4c-1.7,6.3,3.1,11,7.5,13.6c0.7,0.4,1.4,1.1,2.1,1.4c0.9,0.4,6.6,2.1,7.6,1.7
			c1.4-0.2,2.7-0.4,4.1-0.6c0.8-0.4,1.6-0.9,2.3-1.4c0.5-0.2,1-0.5,1.4-0.7c2.9-3.5,4.9-7.7,3.7-12.3c-0.4-1.7-0.1-3-1.6-4.1
			c0.1-0.1,0.1-0.2,0.2-0.4c-1.2-1.2-2.3-2.5-3.5-3.7c-1.1-0.7-2.3-0.8-3.6-1.4c-0.5-0.4-0.4-1.8-0.5-2.6c0-0.1,0.1-0.1,0.1-0.2
			c2.4,0.4,4,1.7,5.6,2.9C314.3,312.6,316,321.4,311.1,330.1z M292.9,311.6c2.9,1.5,7.7,0.3,8.6-1.9c2.2-0.2,2.9,1,4.1,2.2
			c0.6,0.6,1.5,0.9,2,1.6c1.5,2.2,1.2,5.6,1,8c-1.7,0.1-3.3,0.2-5,0.4c-6.3-0.7-12.1-3.7-15-7.9c-0.2-0.1-0.5-0.2-0.7-0.4
			c-0.8-0.8-2.2-2.4-2.3-3.8c0.8-1.1,2.3-1.2,3.2-2.2c0.2,0,0.5,0,0.7,0C290.1,309,291.5,310.9,292.9,311.6z M291.1,302.9
			c0.6-1.5,2.2-1.5,3.5-2.1c1,0.3,1.9,0.5,2.6,1c1.8,1.3,4.3,7.1,1.3,8.3C294.1,311.8,289.5,307.1,291.1,302.9z M307.7,324.4
			c-1.3,2.9-2.8,3.6-6,4.7c-0.8,0.2-1.9,0.8-2.8,0.6c-1-0.3-2-0.5-3.1-0.8c-0.8-0.1-2.5-0.1-3.4-0.7c-1.8-1.2-3.5-2.4-5-3.8
			c-0.7-0.7-2-1.6-2.3-2.4c-0.2-0.9-0.8-1.5-1.2-2.3c-0.7-1.5-0.3-5.6,0.8-6.8c1.5,1.7,2.9,3.5,4.4,5.2c3.2,2.5,6.9,3.7,10.9,5.5
			c1.9,0.9,5.8-0.3,7.4,0.6C307.6,324.2,307.6,324.3,307.7,324.4z M306.2,303.6c-0.3,0-0.7,0-1,0c-0.9-0.6-1.6-1.2-2.8-1.6
			c-0.6,0-1.1,0-1.7,0c-1.3-0.6-2.4-2.3-3.8-2.8c-2.7-1-5.1,1.1-6.7,1.7c-1,0.4-5.1,0.8-5.9,0.7c-0.9-4,1.8-11,4.6-13.2
			c1.6-1.3,4.4-2.1,6-2.7c0.4,0,0.7,0.1,1.1,0.1c1.7-0.3,3.4-0.5,5-0.8c0.5,0,1.5,0.1,2.1-0.1c1.6,0.3,3.9,0.3,5.8,0.8
			c4,1.1,9.3,5.4,11.2,8.5c1.4,2.3,4.6,10.1,3.3,13c-0.7,1.7-1.8,3.8-2.5,5.4c-1,2.3-2.6,4.1-4.9,5.2c-0.2-0.2-0.5-0.4-0.7-0.5
			C315.2,312.2,310.5,305.8,306.2,303.6z M322,325c-1.5-0.5-6-1.5-6.5-2.7c0-0.5,0.1-1,0.1-1.4c1.3-1.2,3-2.2,4.5-3.2
			c1.8-1.3,5.5-9.3,5.8-11.4c-0.2-0.8-0.4-1.7-0.5-2.5c0-0.6,0.1-1.3,0.1-1.9c-0.2-0.4-0.4-0.8-0.6-1.2c0.1-1.6-0.8-4.1-2-5.6
			c0.3-0.3-0.9-1.6-1.1-1.9c-1.5-2.3-3.1-4-5.2-5.7c-4-3.2-10.6-5.3-17.4-4c-1.1,0-2.1,0.1-3.2,0.1c-2.3,0.6-4.9,1.2-6.7,2.4
			c-0.1-0.1-0.1-0.1-0.2-0.2c-0.6-0.4-2.4-4.9-2.9-5.8c0.1-0.1,0.2-2.6-0.1-3.2c-0.5-1-0.3-3-0.5-4.1c-0.9-5.2,0.2-12.2,2.2-16.8
			c-0.1-0.1-0.2-0.1-0.4-0.2c0.1,0,0.2,0,0.4,0c0.3-1.1,1.8-5.4,1.6-5.8c0.1,0,0.3,0,0.5,0c0.3-0.6,0.2-0.7,0.2-1.3
			c0.2-0.1,0.4-0.1,0.6-0.2c0.6-0.6,0-1.2,0.4-1.9c0.3-0.6,0.9-0.7,1.2-1.4c-0.1-0.2-0.1-0.4-0.2-0.6c0.5-0.7,2-1.5,1.4-2.5
			c0.2-0.1,0.5-0.1,0.7-0.2c0-0.2-0.1-0.4-0.1-0.5c0.2-0.1,0.4-0.2,0.8-0.2c0.7-1.7,2.1-2.7,3.2-3.8c0.8-0.8,1.1-1.8,1.8-2.6
			c0.8-0.8,2.8-1.7,2.4-2.5c0.6-0.2,0.4-0.3,1.2-0.2c0-0.2,0-0.4,0-0.5c0.2,0,0.4,0.1,0.6,0.1c0-0.1,0.1-0.1,0.1-0.2
			c-0.1-0.1-0.2-0.2-0.4-0.3c0.5,0,0.6,0.1,0.8-0.2c0.2-0.3,0.2-0.2-0.1-0.4c0.4-0.1,2.7-1.5,2.7-1.9c0.3,0.2,0.3,0.1,0.8,0.1
			c0-0.1,0-0.3,0-0.5c0,0,3.5-0.9,4.1-1.1c0,0.2,0,0.4,0,0.5c0.5,0.1,0.9,0.3,1.4,0.5c0.7-0.2,0.4-2.8,2.7-1.8
			c1.1,0.5,1.4,2.2,2.3,2.9c1.3,1,3.2,2.7,4.5,3.1c0.4-0.1,0.9-0.2,1.4-0.4c0.5,0.1,0.6,0.6,1.2,0.7c0.3,0.1,0.4-0.1,0.9-0.3
			c0,1,2.3,0.8,3.1,0.8c0-0.1-0.1-0.2-0.1-0.4c1.8,0.7,7.2-2.2,7.9-3.8c0.3-0.7,0.8-1.3,0.9-1.9c-0.1-0.3-0.2-0.5-0.3-0.8
			c0.3-0.6,0.9-0.5,0.5-1.6c1.7-0.9,3,0.4,4.1,0.7c1.3,0.4,2.9,1.3,4.2,1.8c0.4,0,0.7-0.1,1.1-0.1c1.3,0.6,2.8,2,4.1,2.5
			c6.7,2.6,12.5,8.9,16.8,14.9c1.2,2,2.5,4,3.7,5.9c0.5,0.8,0.6,1.7,1.3,2.3c-0.2,0.1,0.5,2,0.6,2.3c0.6,1.8,1.1,3.5,1.7,5.3
			c0.2,1,0.4,1.9,0.6,2.9c0,0,0,0.1,0,0.1c-3.8,1-7.7,1.7-9.8,4.2c0.1,0.4,0.1,0.7,0.2,1.1c1.8,0,4.3-1.9,6.2-2.7
			c5-2,8.5,3.4,10.2,6.8c2,4.2-1.5,11.6-3.4,13.3c-0.8,0.4-1.6,0.8-2.4,1.3c-0.8,0.5-2.4,2-3.9,1.6c-2-0.5-4.4-0.9-5.9-1.7
			c-0.8-0.9-1.7-1.7-2.5-2.6c0.2-0.8,0.5-0.9,0.5-1.9c-0.6-0.5-1.1-1.1-1.9-1.4c-0.5,0.2-0.8,0.2-1,0.7c-0.2,0.4,0,1.9-0.5,2.3
			c1.8,3.1,6,5.6,9.4,6.3c1.7,0.4,3.4-0.3,4.7-0.4c0,0,0.1,0.1,0.1,0.1c-0.3,1.6,0.1,3.3-0.4,5c-4.2,15.1-14.1,25.6-30.5,30.3
			c-1.1,0.3-2.3,0-3.3,0.3C335.9,327.7,327.8,326.9,322,325z M396.5,358.6c-3.1,0-6.1,0-9.2,0c-4.8-0.6-9.3-1.8-13-3.5
			c-1.4-0.7-6.2-2.6-6.8-3.6c-0.7-1.2,0.1-2.6-0.2-3.9c-0.2-1-0.5-2.5-0.8-3.4c-0.3-0.1-0.6-0.2-0.9-0.3c-0.2,0.1-0.5,0.2-0.7,0.3
			c-0.5,1.7,0.9,8.8,1.4,11c0.2,1.4,0.4,2.9,0.6,4.3c0.8,2.6,2.5,5.6,3.2,8.2c1.1,4.1,1.2,7.9,2.2,11.8c0.8,3.2,1.7,7,0.6,10.8
			c-0.6,2.2-2.3,4-3.8,5.3c-0.5,0.3-1,0.7-1.4,1c-1.3,1.7-2.1,3.8-3.4,5.5c-1,0.9-2,1.8-3.1,2.7c-0.6,0.6-1.3,2.2-2.8,1.4
			c-3.2-1.5,2.4-7.6,3.1-8.8c-2.2,0.3-4.4,1.6-6.3,2.3c-2.4,0.9-4.6,1.2-7.3,1.9c-1.4,0.4-4.3,1.6-5.7,0.9c-0.1-0.1-0.3-0.3-0.5-0.5
			c-0.1-0.3,0-0.5,0.1-0.8c3.6-2.3,9.5-3.1,13.7-4.9c1.3-0.6,2.9-0.5,3.5-1.7c0.2-0.2,0.2-0.4,0.3-0.8c-0.1-0.1-0.1-0.2-0.2-0.4
			c-2.7-0.7-5,1.3-6.9,2.2c-2,0.5-3.9,1.1-5.9,1.6c-1.9,0.7-3.9,1.7-6.1,2.4c-1.6,0.5-5.2,2.4-6.8,1.4c-0.1-0.1-0.3-0.3-0.5-0.5
			c0.2-2,3.3-3.6,5-4.1c0.7,0,1.5-0.1,2.3-0.1c1-0.2,1.8-1,2.6-1.3c1.2-0.2,2.3-0.5,3.5-0.7c2-0.7,3.9-1.4,5.9-2.2
			c2.2-0.6,3.3-0.3,4.2-2.2c-0.7-1.3-4.3-0.2-5.5,0.4c-5.5,2.4-12.1,3.4-17.3,5.9c-0.3-0.1-0.2,0-0.4-0.2c-0.1-0.3-0.1-0.5-0.2-0.8
			c1-1.2,2.1-1.3,3.6-2c2-0.9,4.1-2.4,6.2-3.1c1.3-0.4,3.5-0.7,4.9-1.2c2.1-0.6,5.7,0.2,6.8-1.9c0.5-0.6,0.1-0.9-0.3-1.3
			c-1.2,0.4-2.3,0.7-3.5,1.1c-1.7,0.2-3.4,0.4-5,0.5c-2.1,0.5-4.5,1.9-6.8,1.7c-1.6-2-0.1-3.7,1.9-4.6c3.5-1.6,12-0.2,13.8-3.3
			c0.8-1.3-0.9-8.1-1.4-9.8c-1.8-6.6-3.7-14.5-4.8-21.5c-0.4-2.7-0.3-6.6-2-8.1c-0.2,0-0.5-0.1-0.7-0.1c-0.6,1,0,3.3,0.2,4.1
			c0,0.1-0.1,0.1-0.1,0.2c-2.4-0.4-4.4-3.4-6.6-3.2c-0.1,0.1-0.2,0.1-0.3,0.2c-0.1,1.5,5.7,5.4,7.1,5.4c0.9,1.5,0.9,5.4,1.4,7.7
			c0.5,2.3,0.9,5.2,1.5,7.7c0.2,0.6,0.4,1.1,0.5,1.7c0,0.7-0.6,0.8-0.8,1.4c-0.1,0.6-0.1,1.1-0.2,1.7c-1.1,3.1-5.7,5.3-9.2,6
			c-2.6,0.5-4.8,0.4-7.2,1.2c-2.4,0.8-4.3,2.7-6.6,3.2c-0.8,1.6,0.2,2.1-0.1,3.7c-0.4,1.9-0.9,3.4-1.5,4.9c-1.1,0.8-1.6,0.9-3.2,0.5
			c-3.9-1-2.2-3.9-3.8-6.8c-0.5-0.9-1.6-1.9-2.6-2.3c-1.3-0.6-2.4-0.2-3.8-0.5c-1.8-0.4-4.5-0.6-6.1-1.1c-0.7,0.1-1.4,0.2-2.2,0.4
			c-2.1-0.2-4.7-0.8-6.5-1.4c-0.1-0.3-0.2-0.6-0.4-0.9c0.1-0.1,0.1-0.2,0.2-0.4c1.6-0.5,4.4-0.5,5.8-0.1c1.1-0.4,4.6-0.1,5.8,0.1
			c1.8,0.3,3.4,0.2,3.4-1.6c-1.2-0.6-2,0-3.5-0.3c-1.6-0.3-3.4-0.1-5-0.2c-1.1-0.2-2.1-0.4-3.2-0.5c-1.6,0.3-3.6,0.4-5.4,0.2
			c0.4-0.9,2.2-0.9,3.2-1.2c4.6-1,10.4-0.2,15.1,0.2c0.2-0.2,0.5-0.5,0.7-0.7c0-0.3-0.1-0.6-0.1-0.9c-4.4-0.6-8.9-1.1-13-1
			c0,0,0-0.1,0-0.1c1.6-0.4,3.7-1.1,5.9-0.7c0.7,0.1,1.5,0.2,2.3,0.3c0.9-0.1,2.3-0.5,3.5-0.3c1.1,0.2,2.7,0.5,3.9,0.3
			c0.1-0.4,0.2-0.7,0.4-1.1c-2-1-5-0.2-7.2-0.8c-0.1-0.3-0.1-0.5-0.2-0.8c0.1-0.1,0.2-0.3,0.4-0.5c2.7-0.5,6.5-0.3,9.2,0.1
			c1.4,0,2.8,0.1,4.1,0.1c2,0.3,4.9,0.4,6.6-0.5c0.8-0.4,0.8-1.1,1.2-2c0.6-0.9,2-1,2.4-2.2c0.3-1.3,0.7-2.5,1-3.8
			c-0.3-1.8-0.2-3.9,0.2-6c0.5-3.1,0.2-6.9,0.5-9.6c0.5-3.5-0.3-7.2,0.3-9.8c0-0.8,0-1.7,0-2.5c0.3-0.6,5.1-0.6,5.9-0.5
			c1,0.1,2.8-0.4,3.9-0.6c3.9-0.8,6.8-1.4,10.1-2.7c5.2-2.1,13.3-8,16.1-12.6c0.4-0.7,1.9-1.7,2.5-2.7c1.7-2.8,2.6-6.4,4.4-8.8
			c2.6,0.5,5.5,2.3,8,2.7c3.1,0.5,8.3-0.2,11.1-0.7c2.5-0.4,5,0.2,7-0.4c1-0.3,2.3-1,3.3-1.3c1.6,1.3,2.7,6.6,3.4,9
			c0.4,1.3,1.7,3.2,1.7,4.7c0,0.9,0.5,2.4,0.6,3.3c0.5,2.4,0.4,5,1,7.3c0.4,1.6-0.6,2.9-0.3,4c1.1,3.1,0.9,9.6,0.8,13.1
			c-0.1,2.4,0.9,11.8-0.3,12.9c-1.9,1.8-5.4,1.7-8.5,2.3C402.6,358.8,399.2,358.8,396.5,358.6z M424.4,379.2
			c-2.7,0.6-6.9,0.3-9.8-0.5c-8.7-2.3-9.9-9.5-7.8-18.5c2-0.5,3.9-1.1,5.9-1.6c-0.2,0.7-0.4,1.4-0.5,2c0.2,0.2,0.5,0.4,0.7,0.6
			c1.5,0,9.3-3.8,10.6-4.8c0,0,0.1,0,0.1,0c0.8,1.4-0.4,5.1-0.3,7.1c0.4,4.8,0.5,9.4,3.9,12.3c0.6,0.6,1.2,1.2,1.8,1.8
			c0,0.1,0.1,0.2,0.1,0.4C428.1,379.4,426.3,378.8,424.4,379.2z M509.6,385.6c-2.4,3.2-8.6,5.4-12.5,6c-3.3,0.5-8.8-2.9-6.3-6.2
			c1.1-1.4,3.1-0.9,4.7-1.1c0.6-1-2.2-6.2-3.1-6.8c-2.8,0-3.4,2.6-5.4,3.5c-1.5,0.4-2.9,0.7-4.4,1.1c-1.3,0.6-2.8,1.2-4.2,1.7
			c-0.5-0.2-4,0.8-5,1.1c-2.1,0.1-4.2,0.1-6.3,0.2c-1.7,0.4-4.2,1.1-6.4,0.7c-10.2-1.8-19.9-3.1-27.7-8.1c-2.6-1.7-5.3-3.1-6.7-5.9
			c-1.6-3.3-1.8-12.3-0.6-16.2c0.4-0.6,0.7-1.2,1.1-1.8c0-0.6,0.1-1.2,0.1-1.8c0.5-0.9,1.1-1.7,1.6-2.6
			c4.3-10.5,16.5-19.8,28.2-22.4c3.1-0.5,6.2-1,9.3-1.5c2.3-0.4,6.9-0.3,8-1.1c1.2,0,2.3,0.1,3.5,0.1c2.8,0.4,5.4,0.8,7.7,2
			c1.1,3.3-1.4,8.2-2.7,11c-0.8,1.9-1.8,4.4-2.6,5.9c-0.2,0.7-0.5,1.4-0.7,2.2c-2.1,3.1-4.9,5.5-7.6,8c-1.5,1.4-2.8,3.1-4.6,4.1
			c-2.4,1.5-4.8,3-7.2,4.3c-1,0.6-2.7,0.8-3.3,1.8c-0.2,0.2-0.2,0.4-0.3,0.7c0.1,0.1,0.2,0.3,0.4,0.5c2.6,0,5.1-1.5,7.1-2.4
			c2.7-1.3,5.4-2.1,8.6-2.8c1,0,1.9-0.1,2.9-0.1c2.8-0.5,5.5-1,8.6-0.3c1.9,0.4,3.5,1.9,5.4,2c0.6-0.9,0.1-1.4,0.5-2.7
			c0.4-0.8,0.7-1.7,1.1-2.5c2.2-4.1,6.4-7.8,11.8-5.6c1.1,0.5,2.5,1.1,3,2.2c2.7,5.8-1.2,11.8-1,17.8c0.1,2.6,1.8,3.5,2.9,5.1
			c1.2,1.9,1.7,4,1.9,6.1C509.4,382.7,510.1,385,509.6,385.6z M326,209.3c0,0.1,0,0.2,0,0.3c0,0,0.1,0,0.1,0
			c0.1-0.1,0.1-0.2,0.2-0.3C326.2,209.3,326.1,209.3,326,209.3z M326.4,218.5c-0.1,0-0.2,0-0.3,0c0,0.1,0,0.1,0,0.2
			C326.2,218.6,326.3,218.6,326.4,218.5C326.4,218.5,326.4,218.5,326.4,218.5z M324.5,232.5C324.5,232.5,324.5,232.5,324.5,232.5
			c-0.1-0.2-0.2-0.2-0.3-0.3c-0.1,0.1-0.2,0.2-0.3,0.3C324.2,232.7,324,232.6,324.5,232.5z M294.5,250.1c0.4,0.3,0.9,0,1.4,0
			c0.8-0.8,3.8-2.5,3.7-2.8c0.8,0,1.3-0.8,2.2-0.5c0-0.1-0.1-0.2-0.1-0.4c0.1,0,0.2-0.1,0.3-0.1c0.3,0.8,0.9,1.4,1.3,2.1
			c0.3,0.6-0.1,1.3-0.1,1.7c0.2,0.6,0.5,1.1,0.7,1.7c0.5,0.1,0.9,0.2,1.3-0.2c0.6-0.3,0.2-0.8,0.4-1.1c1.9-2.7-1.4-5.6-3.9-6.2
			c-2.6,1.3-6.3,1.9-7.5,4.5C293.8,249.5,294.1,249.9,294.5,250.1z M317.5,253.3c0.4-0.4,0.8-0.2,1.2-0.5c1.1-0.6,1.5-1.8,2.5-2.5
			c0.5-0.4,1-0.1,1.4-0.5c0.8,0.6,1.7,1.2,2.5,1.8c0.5,1.1,0.5,2.2,1.7,2.9c0.4,0,0.5,0,0.7-0.3c0.5-0.1,0.5-0.3,0.7-0.7
			c0-2.6-3-5.7-6.3-5.7c-0.3,0.2-0.6,0.2-1,0.1c-0.9,1.6-3.5,2.2-4.2,4.2C316.7,252.8,316.9,253.1,317.5,253.3z M301.6,262.5
			c-0.2-0.8-0.3-2.3-1-2.9c-1.2-1.1-2.3-1.2-4.2-1.6c-0.4,0.7-3.8,0.8-4.7,1.3c-4.5,2.3-5.5,13.7,0.6,15.5
			C299.9,276.9,302.8,267.5,301.6,262.5z M299.8,263.9c-0.7-0.2-1.3-0.9-2.2-0.8c-0.8,0.3-1.7,0.5-2.5,0.8c-1,0.9-2.1,4.3-1.2,5.8
			c0.7,1.1,1.8,1.1,3.1,1.7c0.1,0.1,0.2,0.1,0.3,0.2c0,0.1,0,0.2,0,0.3c-4.4,2-6.2,0.4-7.1-4c-0.2-1-0.4-2.1,0-3.1
			c0.4-1.1,1.6-3.2,2.2-3.8c0.7-0.3,1.3-0.6,2-0.9C297.6,260.1,298.9,260.8,299.8,263.9C299.8,263.8,299.8,263.9,299.8,263.9z
			 M325.9,259.8c-1.2-0.1-2.5-0.2-3.7-0.4c-1,0.7-2,0.2-3.1,0.8c-1,0.5-3.3,3-3.9,4c-4,5.9-1.9,14.7,6.2,15.3c1.7,0.1,3-1.7,4-2.6
			c1.4-1.4,2.6-2.5,3.5-4.4C330.5,269.1,329.9,261.5,325.9,259.8z M327,270.2C327,270.2,327,270.2,327,270.2c0-0.3,0-0.5,0.1-0.8
			c0.2,0.2,0.1,0.1,0,0.5C327.2,270.1,327.1,270,327,270.2z M328.3,262.8C328.3,262.8,328.3,262.8,328.3,262.8c0,0.1,0,0.1-0.1,0.2
			C328.2,262.9,328.2,262.9,328.3,262.8z M327.3,269c-4.5-6.2-10.3,2.4-4.8,5.9c1-0.1,1.8-0.3,2.5-0.6c-0.3,0.7-0.9,0.9-1.4,1.4
			c-0.6,0.5-1.1,1.3-2.1,1.5c-1.5,0.3-4.1-1.4-4.7-2.3c-1.6-2.6-1.6-6.5,0.1-9.6c0.4-0.7,1.2-1,1.6-1.6c0.4-0.6,0.7-1.4,1.4-1.7
			c0.9-0.1,1.7-0.2,2.6-0.4C326.4,262.1,327.9,265,327.3,269z M376.3,281.1c0,0.1,0.1,0.2,0.1,0.3c0.4,0.3,0.7,0.5,1.4,0.5
			c0.9-0.5,0.9-1.6,2-1.9c0-1.6,0.7-2.2,0.9-3.3c0.3-1.8-1.3-5.1-3.6-5.1c-0.1,0-0.2,0.1-0.4,0.1c-0.2,0.2-0.4,0.4-0.5,0.6
			c0,0.1,0,0.2,0,0.3C380.3,276.1,377.2,277.3,376.3,281.1z M444.5,279.9c-0.5,0.3,1.3,3,1.6,3.3c1.6,2,4.2,5,7.2,4.5
			c0.5-1,1.6-1.4,2.1-2.5c0.5-1.2-0.1-2.2,0.3-3.5c1-3.4,0.1-7.7-3.2-8.4c-1.7,1.4-2.4,2.3-3,4.7c0,0-0.1,0-0.1,0
			c-1.6-0.9-2.6-1.7-4.9-1.9c-1.2,0.9-0.8,2-0.4,3.2C444.3,279.4,444.5,279.9,444.5,279.9z M468.3,290.6c2.9-1,7-1.7,8.8-3.9
			c1.7-2.1,0.3-5.2-2-6.2c-0.9-0.4-2.1-0.1-3-0.4c-1.8-0.7-1.1-2.8-4.6-3.1c-0.5,0.4-1.1,0.8-1.6,1.2c-1.1,1.2-0.9,3.1-1.3,5
			c-0.8,3.8-3.1,6.1-1,9.3C465.4,292.6,466.8,291.1,468.3,290.6z M301.8,277.6c-0.2,0-0.4,0-0.6,0c-0.1,0.1-0.3,0.1-0.5,0.2
			c-0.4,3.2,4.7,3.8,7.4,3.1c0.3-0.5,0.4-1,0.5-1.5C306.9,277.5,304.1,280.6,301.8,277.6z M432,303.4c0.8-0.6,1.1-1.5,1.8-2.2
			c0.9-0.8,2-1.2,2.9-1.9c1.3-1.1,2.6-2.2,4-3.3c1-0.7,2.8-1.8,3.2-3c0.2-0.7-0.2-1.2-0.4-1.5c-1.3-2.5-4.9-2.4-7.2-1.1
			c-1-1.1-1.5-2.1-3.7-2.1c-0.5,0.1-1,0.2-1.5,0.3c-1.9,3.4-2.3,10.9-0.5,14.5C431.1,303.4,431.2,303.4,432,303.4z M474.5,298
			c-1,0.4-2.6-1-4.2-0.9c-0.5,0.5-0.9,0.9-1.2,1.6c-0.5,0.8,0.6,4,1.5,4.7c0.4,0.3,0.8,0.2,1.4,0.5c0.3,0.4,0.5,0.7,0.8,1.1
			c1.9,1.5,1.9,2.1,5.5,2.4c0.9,0.1,1.5,0.3,2.3,0c1-1.5,0.3-3,0.6-5.1c0.7-4,2.5-9.8-3.2-9.6C475.7,294.1,475.4,295.7,474.5,298z
			 M450.6,293.1c-0.3,0.1-0.7,0.2-1,0.4c-0.4,0.7-0.8,1.4-1.2,2.1c-0.6,2.2,0.2,6.3,0.5,7.9c0.4,2-0.8,3.2-0.4,4.6
			c0.3,1,0.9,1.4,1.4,2c1.5-0.3,2.6-2,3.7-2.8c1.9-1.4,4.3-2.2,6.2-3.6c1.1-0.8,1.8-2.5,2.4-3.4c-0.1-1.3-0.8-1.8-1.4-2.5
			c-1.8-2-2.9-2-5.3-0.7C454.1,296.7,453.9,293.2,450.6,293.1z M440.1,312.4c-1.2,0.4-1.7,1.5-3,1.8c-0.7-1.7-2-4-4.4-4
			c-0.2,0.1-0.4,0.1-0.6,0.2c-2.3,4.4,0.2,6,1.3,9.6c0.1,1.1,0.2,2.2,0.4,3.2c0.4,0.7,0.7,1.4,1.1,2.1c0.3,0.1,0.7,0.2,1,0.3
			c3.8-2.6,5.3-3.5,7.5-7.9c0.3-0.4,0.6-0.8,0.9-1.3C444.7,314.6,442.1,311.7,440.1,312.4z M459.3,310.4c-0.9,0.7-2.1,0.7-2.9,1.6
			c-1.1,1.3-1.5,3.3-2.3,5c-0.5,1-1.3,2.1-1.8,3.1c-0.6,1.2-1.4,3.8,0.1,4.6c1.1,0.6,3-1.1,4-1.5c3.2-1.3,10.6-0.8,12.4-3.4
			c0.4-0.6,0.5-1.7,0.2-2.3c-1.2-2.6-2.8-2.4-6.2-2.3C462.3,311.8,462.7,310.7,459.3,310.4z"/>
	</g>
</g>
</svg>
