<?xml version="1.0" encoding="utf-8"?>
<!-- Generator: Adobe Illustrator 21.0.0, SVG Export Plug-In . SVG Version: 6.00 Build 0)  -->
<svg version="1.1" xmlns="http://www.w3.org/2000/svg" xmlns:xlink="http://www.w3.org/1999/xlink" x="0px" y="0px"
	 viewBox="0 0 841 595" style="enable-background:new 0 0 841 595;" xml:space="preserve">
<style type="text/css">
	.st0{fill:#DADADA;}
	.st1{fill:#1D1D1B;}
</style>
<g id="Calque_1">
	<g>
		<g>
			<path class="st0" d="M506.8,292.9c-0.3-0.5-0.1-1-0.8-1.1c-0.1,0.1-0.3,0.1-0.6,0.1v-0.1h0.1c0.3-0.2,0.4-0.1,0.7-0.1v-0.4
				c-0.6-0.5-0.7-1.2-1-2c-0.5-1-1.2-2.2-1.9-3.2c-0.2-0.4,0-0.7-0.3-0.9l-0.1,0.1c0-1.7-1.1-2.6-1.6-3.8v-0.5
				c-0.4-1-1.2-2.2-1.5-3.3c-0.1-0.4,0-0.7-0.2-1c-0.3-0.4-0.8-0.9-1-1.3c0-0.1,0.1-0.1,0.1-0.2c-0.4-0.5-0.7-0.1-0.8-0.8l0.1,0.1
				c0.1,0.2,0.1-0.2,0.1-0.2l0.1-0.1c-0.3,0-0.1,0.1-0.3,0c-0.6-0.7-1.6-5.1-1.7-6c-0.3-0.1-0.2,0-0.3-0.2c0-0.1,0.1,0,0.1-0.2
				c0-0.4-0.2-0.1-0.3-0.3c-0.1-0.1,0-1.2-0.1-1.5v-0.1c-0.1,0-0.2-0.1-0.3-0.1c0,0,0.2-0.8,0.2-0.8c-0.7-0.3-0.5-1.1-0.8-1.9
				c-0.3-0.7-0.7-1.5-0.9-2.2c-0.3-0.9-0.2-1.6-0.5-2.5c-1.3-3.7-2-7.2-3.3-10.9c0-0.3-0.1-0.6-0.1-0.9c-0.3-1-0.7-2.2-1-3.2
				c-0.1-0.4,0-0.7-0.2-1c-0.1-0.1-0.3-0.1-0.5-0.1c-0.7,0.5-1.4,0.6-2.3,1c-1.1,0.5-2.3,1.4-3.4,2c-0.5,0.3-1.1,0.3-1.5,0.6
				c-0.3,0.2-0.3,0.8-0.5,1.1c-0.7,1-4.9,3.8-6.2,4.1c-0.3,0.1-0.7-0.1-1.2,0c-0.6,0.1-1.5,0.4-1.9,0.4c-0.6,0-1.2-0.1-1.9-0.1
				c-0.5,0.1-1.1,0.5-1.5,0.7c-1,0.4-1.9,0.4-2.9,0.8c-1.1,0.4-2.5,1-3.8,1.3c-1,0.2-1.6-1-3.1-0.4v-0.3c0.2-0.1,0.6-0.2,0.7-0.4
				c-1-0.5-1.3-1.2-2-2.1c-0.6-0.9-1.3-1.8-2-2.7c-0.9-1.3-1.2-3-1.9-4.3c-0.3-0.6-1.5-2.9-1.3-3.5c-0.8-1.7-1.4-3.9-2.3-5.7
				l-0.3-1.9c-0.2-0.7-0.8-1.6-1-2.2c-0.2-0.5-0.1-1.2-0.1-1.2c-0.1-0.7,0-1.2-0.1-1.6c-0.5-2.3-0.9-5.9-0.5-8.1
				c0-0.6-0.1-1.2-0.1-1.7c0.3-1.4,0.2-3,0.6-4.4c0.2-0.8,0.7-1.7,0.9-2.4v-0.5c3.4-6,8.1-10.9,12.8-15.5c0.4-0.4,0.5-1,0.8-1.3
				c0.4-0.4,0.9-0.7,1.3-1.1c0.1-0.1,0.1-0.4,0.2-0.5c0.4-0.5,0.9-0.8,1.2-1.3c0.1-0.2,0.6-0.2,0.7-0.4v-0.4
				c0.1-0.1,0.3-0.2,0.4-0.3v-0.4c0.5-0.8,1.3-1.6,1.7-2.4c0.5-0.8,0.7-2.2,1-3.1c0.1-0.4,0-0.7,0-1c0-0.2,0.2-1,0.2-1.2
				c-0.3-2.7-1.4-4.2-3.3-5.3c-0.7-0.4-1-1.1-2-1.2c0-0.2,0-0.2-0.1-0.3c-0.4,0.2-1-0.3-1.4-0.5c-1-0.4-2-0.7-3.3-0.9
				c-0.9-0.2-4.1,0.3-5,0.8c0,0.1-0.1,0.2-0.1,0.3c-0.4,0.4-0.9,0.5-1.3,0.8c-0.4,0.3-0.6,0.9-0.9,1.2c-1,0.9-1.4,4.9,0,5.6
				c0.7,0.6,1.9,0.2,2.9,0.2c0-1.5-0.6-1.3-0.3-3c0.7-0.3,1.2-1,2-1.2c1.2-0.4,2.6,0.1,3.6,0.2c0.8,1.3,2,1.7,2,3.9
				c-0.3,0.3-0.3,1-0.6,1.3c-0.8,1.1-1.9,1.6-3,2.4c-0.3,0.2-0.4,0.7-0.7,0.8c-0.5,0.3-1.1,0.2-1.6,0.4c-2.1,1-5.5,1.5-8,0.9
				c-0.3-0.1-0.8-0.4-1.2-0.5c-0.3-0.1-0.6,0.1-0.7,0.1c-0.5-0.1-1.5-0.4-2.1-0.6c-0.1,0-0.3,0.1-0.4,0.1c-1-0.2-2.4-0.7-3.5-0.9
				c-0.3,0-0.5,0.1-0.8,0.1c-0.5-0.1-1.2-0.3-1.9-0.2c-1.1,0.2-2.7,0.2-4.2,0.6c-1.2,0.3-2,0-3,0.4c-1.2,0.4-2.4,1.3-3.5,1.9
				c-0.9,0.5-2,0.6-2.9,1.1c-0.1,0.1-0.1,0.3-0.2,0.4c-0.3,0.2-0.7,0.2-1,0.4c-0.5,0.3-1,0.8-1.4,1.1c-0.6,0.4-1.3,0.6-1.9,1
				c-0.2,0.1-0.2,0.5-0.4,0.6c-0.6,0.4-1,0.6-1.5,1c-0.3,0.2-0.4,0.7-0.7,0.9c-1,0.8-2,1-2.6,2.3c-0.1,0-0.2-0.1-0.3-0.1
				c0.1,0.5-0.7,0.7-1,1.1c-1,1.2-2.2,2.1-3.3,3.2c-0.7,0.7-1,1.5-1.6,2.3c-0.2,0.3-0.7,0.4-0.9,0.7c-1.4,1.8-2.5,3.6-3.8,5.4
				c-0.3,0.4-0.8,0.8-1.1,1.2c-0.4,0.6-0.6,1.2-1,1.9c-0.2,0.3-0.7,0.5-0.8,0.7c-0.3,0.4,0,0.6-0.5,1c-0.3,0.2-0.5,0.1-1,0.1
				c-1.3-1.7-2.5-3.5-3.6-5.3c-0.6-1-0.8-2.1-1.4-3c-0.7-1-1.6-1.9-2.3-2.9c-0.4-0.6-0.6-1.3-1-1.9c-0.7-1-1.9-1.8-2.5-2.9v-0.4
				c-0.1,0-0.2-0.1-0.3-0.1c-0.2-0.2-0.2-0.4-0.3-0.6c-0.3-0.2-0.6-0.5-0.9-0.7c-0.7-0.9-1.2-1.9-1.9-2.9c-0.1,0-0.2-0.1-0.3-0.1
				c-0.2-0.2-0.1-0.5-0.3-0.7c-0.1-0.1-0.4-0.1-0.4-0.2v-0.4c-0.1-0.2-0.4-0.3-0.5-0.4c-0.1-0.2-0.1-0.5-0.2-0.7
				c-0.9-1.3-1.9-2.6-2.7-3.9c-0.6-1-1-2.4-2.2-2.8c-0.4,0.6-1.3,0.7-1.4,1.2h-0.3c-0.4,0.5-0.7,0.6-1.2,1c-0.7,0.5-1.3,1.4-2,2
				c-0.3,0.3-0.8,0.3-1.1,0.5c-0.8,0.5-1.5,1.3-2.4,1.9c-0.8,0.5-1.8,2.3-2.7,2.5v0.3c-0.5,0.3-1.5,1-1.7,1.5
				c1.8,2.5,3.4,4.9,4.6,7.9c0.5,1.2,1.1,1.5,1.1,3.1c-0.3,0.1-0.3,0.2-0.6,0.3c-0.1,0.1-0.2,0.1-0.4,0.1c-0.4-0.4-1.1-0.7-1.5-1
				c-0.3-0.3-0.6-0.7-0.9-1c-0.5-0.4-1.2-0.7-1.5-1.2c-0.1-0.2-0.1-0.4-0.2-0.5c-0.8-0.7-1.7-1.3-2.5-2c-0.4-0.3-2.1-1.7-2.5-1.5
				c-1.1,0.3-1.8,1.3-2.4,2.1c-0.3,0.4-1,0.9-1.2,1.1c-0.6,0.8-1.2,1.6-2,2.3c-0.5,0.5-0.8,1.4-1.5,1.5v0.3
				c-0.8,0.3-1.2,1.2-1.7,1.7c-0.4,0.4-0.9,0.6-1.3,0.9c-0.5,0.5-0.9,1.2-1.4,1.7c-0.2,0.2-0.6,0.2-0.7,0.4
				c-0.2,0.3-0.2,0.7-0.5,0.9c-0.6,0.6-1.7,1.1-2,2.1c-0.2,0-0.3,0.1-0.5,0.1c-0.4,0.9-2,1.9-2.2,2.7c0.9,0.6,1.6,2.3,2.3,3.2
				c0.8,1.1,1.9,2,2.7,3.1c0.2,0.2,0.1,0.5,0.2,0.7c0.3,0.5,1.1,0.8,1.4,1.2c0.9,1.2,1.8,2.2,2.7,3.4c0.3,0.4,1,0.7,1.3,1.1
				c0.4,0.6,0.8,1.1,1.2,1.6c0.4,0.6,0.5,1.3,0.9,1.9c0.5,0.7,1.4,1.3,2,2c0.2,0.3,0.3,0.6,0.5,0.9c0.3,0.3,0.7,0.5,1,0.8
				c0.2,0.3,0.3,0.7,0.6,0.9c0.9,0.7,1.9,1.3,2.7,2.1c0,0.3,0,0.6-0.1,1c-0.5,0.1-0.6,0.3-1.2,0.3c-1-1-4.6-1.7-6.4-1
				c-0.8,0.3-1.7,1-2.6,1.3c-0.6,0.2-1.3,0.1-1.9,0.4c-1.6,1-2.5,1.7-3.4,3c-0.2,0.3-0.6,0.3-0.8,0.5c-0.5,0.6-1.7,2.6-1.7,3.2h-0.3
				c0,1.3-0.8,2.1-1.2,3.3c0,0.1,0.1,0.3,0.1,0.4l-0.3,0.3c-0.2,0.4,0.1,0.8,0,1c-0.5,1.7-0.9,3.7-0.7,5.9c-0.2,0,0-0.1-0.2,0
				c0.3,0.4-0.1,1.1,0,1.7c0.1,1.2,0.4,3.5,0.8,5c0.2,0.6,0.3,1.4,0.6,2.1c0.1,0.2,0.4,0.5,0.5,0.7c0,0.3,0.1,0.6,0.1,0.9
				c0.1,0.4,0.6,0.6,0.7,0.9c0.5,1,0.5,1.9,1.1,2.7c0.3,0.4,1.1,0.6,1.5,0.9c0.4,0.3,0.8,0.8,1.2,1c0.9,0.6,2,0.8,3.2,1.2
				c0.2-2.2,1.8-4.6,2.9-6.1c0.5-0.6,0.8-1.1,1.3-1.5v-0.2c2.2-1.4,5.6-0.9,6.7,1c0.3,0.5,0.2,1,0.3,1.3c0.7,1.8,0.5,2.2-0.3,3.6
				c-0.2,0.3-0.1,0.6-0.3,0.8c-0.2,0.2-0.6,0.3-0.7,0.5c-0.3,0.3-0.3,0.8-0.6,1.1c-1.5,1.6-4.8,1.9-7.4,1.7
				c-0.1,0.2-0.2,0.2-0.2,0.6c-0.1,0.3,0.2,1.3,0,1.7c0.1,0.1,0.4,0.6,0.4,0.7c0.1,0.3-0.1,1,0.1,1.4c0.2,0.4,0.6,0.9,0.8,1.5
				c1.9,5.3,6.5,9.3,9.8,14.1c0.4,0.6,0.6,1.3,1,2c0.5,0.8,1.4,1.5,1.9,2.4c0.4,0.7,0.7,2,1.4,2.3c0.6,0.4,1.8-0.7,2.4-0.9
				c0.5-0.2,1-0.1,1.4-0.3c2.7-1.4,8-3,11.9-2.2h1.5c1,0.2,4,0.8,4.2,1.6c2.5,0,4.1,2.2,5.4,3.5c1,1,2.4,1.7,3.2,2.8
				c2.7,3.7,4.6,6.8,6.5,11.2c0.7,1.6,1.9,3.8,2.1,5.4h0.3c0,1.3,1,3.3,1.5,4.5c0,0.2,0.1,0.5,0.1,0.7c0.2,0.6,0.5,1.5,0.7,2.1
				c0.7,2.2,0.4,4.3,1,6.1c0,0.8,0.1,1.6,0.1,2.5c0.1,0.3,0.3,1.6,0.4,1.7c0.1,0.1,0.4,0.2,0.5,0.3c0.3,0.5,0,0.7,0.3,1
				c0.8,0.5,2.4,0.9,3.3,1.1c0.4,0.1,0.8-0.1,0.9,0c0.1-0.2,0.1-0.7,0.1-1c-0.4-0.6,0.1-1.3-0.1-2.2c-0.3-1.1,0.3-2.4,0-4.2
				c-0.5-2.6-0.1-4.9-0.6-7.6c0-0.2,0.1-0.4,0.1-0.6c0-0.8,0.1-1.9,0-2.6c-0.2-1.4-0.4-2.1-0.5-3.1c0.5-0.4,0.5-1,1.6-1
				c1.8,1.2,3.6,2.4,5.4,3.5c0.6,0.3,1.2,0.4,1.7,0.7c0.2,0.2,0.3,0.5,0.5,0.7c1.1,0.8,2.8,1.5,4.1,2c1.7,0.6,2.7-0.9,3.4-1.4
				c2.8-2.1,5.1-4.5,7.1-7.4c0.5-0.7,1.2-1.3,1.6-2c0.1-0.4,0.2-0.8,0.3-1.1c0.1,0,0.2-0.1,0.3-0.1c0.2-0.2,0.1-0.5,0.3-0.7
				c0.1,0,0.2-0.1,0.3-0.1c0.3-0.5,0.4-0.9,0.7-1.3c0.5-0.7,1.2-1.2,1.6-1.9c1.1-1.6,1.6-3.6,2.7-5.1c0.6-1,1.6-1.8,2.3-2.8
				c0.5-0.7,0.8-1.4,1.3-2.1c0.1,0,0.2-0.1,0.3-0.1c0.3-0.5,0.4-1,0.7-1.5c0.5-0.9,1.3-1.6,2-2.3c0.5-0.5,0.8-1.3,1.2-1.9
				c0.2-0.3,0.7-0.4,1-0.7c0.3-0.3,0.4-0.7,0.7-0.9c1.3-0.9,2.5-1.6,4-2.3c0.8-0.4,1.7-1.1,2.6-1.3c1.2-0.4,2.9-0.1,3.7,0.2
				c0.6,0,1.2-0.1,1.9-0.1c0.7,0.2,1.5,0.2,2.4,0.4c0.8,0.2,1.5,0.7,2.2,0.9c0.9,0.4,1.7,0.3,2.6,0.7c0.3,0.1,0.6,0.5,0.8,0.6
				c0.2,0.1,0.4,0,0.4-0.1c0.7,0.7,1.9,0.5,3,0.8c3.7,1,9.3,0.8,12.7-0.1c1-0.1,2.1-0.1,3.1-0.2c1-0.3,3.1-0.8,4.3-1.2
				c2.6-1,5-0.6,6.8-2.6c0.5,0,0.6,0.2,1.1,0.2C508.2,294.7,507.2,293.7,506.8,292.9z M435.4,272.1c-1.2,0.2-3.6,0.2-5,0.2
				c-0.7,0-2.1,0.5-3.1,0.2c-1.6-0.4-3.6-0.5-5.6-0.8c-1.2-0.2-3,0.2-4,0.1c-1.5-0.2-3.9,0.1-5.2-0.2c-0.4,0-0.8,0.1-1.2,0.1
				c-1.5-0.3-3.3-0.2-4.9-0.4c-0.1-0.6-0.2-1.7-0.3-2.2c-0.1-0.3,0.1-0.9,0.1-1c-0.3-2-0.3-4.3,0-6.1c0.2-0.9-0.4-1.7-0.2-2.6
				c0.2-1.3,0.1-3.9-0.1-4.9c0-0.2,0.2-0.6,0.1-0.9c-0.3-1.3-0.1-3-0.1-4.1c0-0.7,0.1-2.2,0.2-2.9c0-0.8-0.1-1.6-0.1-2.4
				c0-0.5,0.1-0.8,0-1.1c0-0.5-0.1-1.5,0.1-1.9c0.2-0.1,0.6,0,0.9-0.1c1.2-0.3,2.7-0.6,3.9-0.9h1.2c4.7-1.6,11.3-0.8,15.9-1.7
				c1.5-0.3,3.9,0.3,5.1-0.5c0.1,0,0.1,0.1,0.2,0.1c0,4.4,0.3,7.2-0.1,10.4c0,0.4,0.3,1.1,0.3,1.4c0.1,0.5-0.1,1.2-0.1,1.6
				c0,0.4,0.4,1.4,0.5,1.7v2.4c0.3,1.7,0.7,3.7,0.9,5.3c0,0.3-0.2,0.7-0.1,1.1c0.6,2.4,0.2,4,0.8,6.5
				C435.8,269.4,435.1,271,435.4,272.1z M366,307.4l-0.5-0.5c0-0.2-0.1-0.4-0.1-0.6c-0.2-0.1-0.3-0.2-0.5-0.3
				c-0.3-0.5-0.3-1-0.6-1.4c-0.2-0.3-0.7-0.6-0.7-0.8c-0.1-0.1-0.1-0.2-0.1-0.4c-0.2,0-0.2,0-0.3-0.1c-0.1-0.2-0.1-0.2,0-0.4
				c-0.2-0.1-0.3-0.2-0.5-0.3c-0.1-0.2-0.1-0.3,0-0.4c-0.3-0.4-0.5-0.7-0.7-1.1c-0.4-0.6-1.1-1.1-1.5-1.6c-0.3-0.3-0.3-0.8-0.6-1.1
				c-0.2-0.2-0.7-0.4-0.8-0.6c-0.2-0.3-0.2-0.6-0.4-0.9c-0.3-0.5-1-0.8-1.3-1.3c-0.2-0.3-0.1-0.5-0.3-0.8c-0.1-0.2-0.3-0.1-0.5-0.2
				c-0.2-0.2-0.2-0.5-0.4-0.8c-0.2-0.1-0.4-0.3-0.6-0.4c-0.8-1.1-1.4-2.8-1.9-3.6c-0.2-0.1-0.3-0.3-0.5-0.4
				c-0.3-0.6-0.2-1.1-0.5-1.7c-0.7-1.5-0.8-2.7-1.3-4.4c-0.1-0.3,0.1-0.7,0.1-0.9c0-0.4-0.2-1.1-0.3-1.6c-1-0.1-1.5-0.7-2.3-1
				c-1.3-0.5-2.2-1-3.2-1.7c0-0.1-0.1-0.2-0.1-0.3H345c-0.2-0.1-0.8-0.6-0.9-0.8c-0.4-0.6-0.5-1.2-0.8-1.9c-0.1-0.2-0.5-0.5-0.6-0.7
				v-0.4c-0.2-0.6-0.7-1.2-0.9-1.7v-0.5c-0.1-0.1-0.2-0.1-0.3-0.2c-0.2-0.4,0-0.8-0.2-1.2c-0.7-1.8-1-4.4-1.3-6.4
				c-0.1-0.8,0.2-2.6,0.4-3.2c-0.1-0.2-0.1-0.4-0.2-0.6c0-0.3,0.3-0.6,0.4-0.7c0.1-0.1-0.3-0.5-0.2-0.8c0.1-0.1,0.4-1.8,0.4-1.9
				c-0.2-0.7,0.4-1.9,0.6-2.4c0.1-0.3,0.1-1,0.3-1.5c0.5-1.4,1.2-3.1,2.1-4.3c1.5-2.1,3.5-3.9,5.7-5.3c0.2,0,0.5-0.1,0.7-0.1
				c0.9-0.3,3.5-1.2,3.7-1.6c-3.4-1-7.7-1.9-11.9-1.3c-0.7,0.1-1.4-0.2-2.1,0.1c-0.2,0.1-0.6,0.5-0.9,0.6c-1.2,0.4-2,0.4-2.9,1
				c-0.6,0.4-1,1.2-1.7,1.3v0.3c-2.2,1.5-4.9,5.8-4.3,9.4c0.1,0.7-0.1,1.9,0.1,2.2h0.2c0.4,0.6,0.4,1.4,0.7,2.1
				c0.1,0.2,0.4,0.5,0.5,0.6v0.5c0.2,0.4,0.8,0.6,0.9,1c0.2,0.5-0.1,1.1-0.4,1.3c-0.7,0.6-1.1-0.3-2.1-0.1c-1,0.2-2.1,0.1-3,0.6
				c-0.9,0.5-1.9,2.6-2.5,3.5l-0.7,0.7c0,0.2-0.1,0.4-0.1,0.6c-0.1,0.2-0.5,0.5-0.6,0.7c0,0.1,0.1,0.4,0,0.7
				c-0.2,0.4-0.6,0.9-0.7,1.3c0,0.3-0.1,0.7-0.1,1c-1,3-0.7,5.5-0.6,9c2,1.2,4.9,1.4,7.4,2.2c0.6,0.1,1.2,0.1,1.7,0.2
				c2.2,0.6,4,1.9,5.7,3c0.4,0.3,0.9,0.3,1.3,0.5c1.2,0.6,2.5,1.3,3.6,2.1c-0.2,0.5,0,1-0.1,1.4c-0.2,1.3-0.8,3.3-0.6,4.6
				c0.1,0.8,0.4,1.8,0.2,2.8c-0.2,1,0.1,2.5,0.5,3.2c0.1,0.2-0.2,0.5-0.1,0.9c0.2,0.8,0.6,2,0.9,2.9c0.2,0.4,0,1,0.1,1.2
				c2,4,3.6,7.5,8.7,8.7c0.3,0,0.5-0.1,0.8-0.1c1.7,0.3,4.2,0.3,5.9-0.3c0.6-0.2,1.2,0,1.7-0.2c2.1-0.7,3.5-2,6.6-2
				c0.2-0.3,0.5-0.4,0.7-0.6v-0.2C366.2,308.2,366.3,307.8,366,307.4z"/>
		</g>
	</g>
	<g>
		<g>
			<path class="st1" d="M509.9,290.9c-0.4-0.8-0.5-1.5-0.9-2.3c-0.3-0.7-1-1.4-1.3-2c0-0.3-0.1-0.5-0.1-0.8
				c-0.2-0.6-0.9-1.3-1.1-1.9c-0.2-0.5-0.2-1-0.4-1.5c-0.2-0.5-0.6-1.1-0.8-1.5c-0.6-1.5-1.2-3.5-1.9-5.2c-0.2-0.6-0.8-1.4-0.7-2.1
				c-0.7-1-1-2.4-1.4-3.7c-0.5-1.2-1.2-2.6-1.7-4c-1-3-1.7-5.8-2.9-8.6c-0.6-1.4-0.5-2.7-0.9-4.2c-0.8-2.6-1.3-5.7-2.1-8.3
				c-0.6-2.1-0.3-5.7-0.5-7.7c-0.7-0.4-1.9-1.2-3.2-0.7c-0.2,0.1-0.6,0.5-0.8,0.6c-0.4,0-0.8,0.1-1.1,0.1c-1.2,0.5-1.8,1.2-2.8,1.7
				c-0.8,0.5-1.7,0.7-2.4,1.3h-0.2c0-1,0.2-2.6,0.1-3.2c-0.7-2.6-3.4-4.8-6-5.6c-1.2-0.4-2.4-0.2-3.7-0.5c-1.6-0.4-5.4-0.2-6.9,0.5
				c-0.7,0.4-1,1.2-1.6,1.6c-0.6,0.4-1.1,0.6-1.5,1.1c-0.2,0.2-0.3,0.6-0.5,0.8c-0.2,0.1-0.5,0.1-0.6,0.3c-1.6,1.9-2.3,6.5-1.3,9.1
				c0.3,0.8,0.7,1.7,1.1,2.4c0.4,0.7,1.6,1.2,2,2.1h0.1c-0.5,1.1-2.1,1-3,1.6c-1,0-1-0.5-1.3-1.1c-0.2-0.4-0.7-0.8-0.9-1.1
				c-0.7-1-1.1-2.2-1.6-3.3c-1-1.9-2.1-4.7-2.8-7.1v-1c-0.2-0.9-0.3-1.6-0.6-2.6v-0.7c-0.1-0.3-0.4-0.8-0.5-1.1
				c-0.3-1,0-1.9-0.2-2.9c-0.5-2-0.8-4-0.5-6.1c0-0.2-0.1-1-0.1-1.4c0-1.3,0.1-2.3,0.3-3.3v-1.3c0.3-1.2,0.6-2.6,0.9-3.7
				c0.1-0.4,0.1-0.8,0.2-1.1c1.3-2.4,2.8-4.6,4.2-6.8c0.3-0.4,0.8-0.7,1.1-1c0.3-0.3,0.4-0.9,0.7-1.1c0.3-0.3,0.8-0.4,1-0.7
				c0.2-0.3,0.1-0.5,0.3-0.8c0.1-0.2,0.7-0.4,0.9-0.5c0.4-0.3,0.5-0.7,0.8-1.1c0.5-0.6,1.3-1,1.9-1.6c0.7-0.9,1.3-1.8,2-2.7
				c0.3-0.4,0.9-0.6,1.1-1c0.4-0.5,0.5-1.1,0.9-1.5c0.4-0.5,1.1-0.8,1.4-1.3c0.3-0.4,0.5-0.9,0.8-1.3c0.1-0.2,0.5-0.2,0.6-0.4
				c0.2-0.2,0.1-0.6,0.3-0.8c0.7-1,1.4-2.3,2-3.5c0.7-1.5,0.4-3.5,0.1-4.7c0-0.3-0.1-0.7-0.1-1c-0.2-0.4-0.6-0.9-0.7-1.3v-0.4
				c-1.2-2.2-6.2-4.4-8.2-5.7c-0.4-0.3-0.8-0.1-1.2-0.3c-1.4-0.5-2.8-0.9-4.2-0.7c0,0.2,0,0.2-0.1,0.3c-0.5,0.4-1.7,0-2.6,0.2
				c-0.7,0.2-1.7,0.5-2.4,0.7c-0.3,0-0.5,0.1-0.8,0.1c-0.3,0.2-0.6,0.6-0.9,0.8h-0.4c-0.4,0.2-1.6,1.4-1.9,1.7
				c-0.7,1.1-1.3,4.5-0.8,5.9c0.2,0.6,0.7,0.9,0.9,1.4c1.9,0.5,3.9,0.7,5.7,0.1c0.4,0,0.8-0.1,1.1-0.1c0.3-0.1,0.3-0.5,0.6-0.6
				c0-0.3,0-0.5-0.1-0.6c-0.2-0.6-0.9-0.6-1.5-0.5c-0.3-0.5-0.5-0.8-0.5-1.4c0.3-0.3,0.5-0.6,0.9-0.8c0.2-0.1,0.6,0,0.9,0
				c1.8,0.1,2.5,1.4,2.4,3.4c-1,1-1.6,1.9-2.8,2.7c-2,1.2-4.7,1.4-6.8,1.7c-1,0.2-3.1-0.6-4-0.8c-0.5,0-1.1-0.1-1.6-0.1
				c-1.7-0.5-6.9-1.9-8.5-1.3c-0.4,0.1-1.5,0.4-2,0.5l-4,0.3c-0.9,0.4-1.9,1.1-2.8,1.5c-3.5,1.5-6.5,3.2-9.5,5.2
				c-0.3,0.2-0.5,0.7-0.8,0.9c-0.6,0.4-1.2,0.7-1.6,1.1c-0.2,0.2-0.3,0.6-0.5,0.7c-0.2,0.2-0.5,0.1-0.7,0.3c-0.5,0.4-0.5,0.9-1.2,1
				v0.3c-0.9,0.7-1.6,1.7-2.5,2.4c-0.2,0.2-0.5,0.3-0.7,0.5c-0.2,0.2-0.4,0.6-0.6,0.8c-0.5,0.5-1.2,0.9-1.6,1.4
				c-0.4,0.5-0.7,1.2-1.1,1.6c-0.4,0.4-0.8,1-1.2,1.3h-0.2c-0.2,0.2-0.1,0.4-0.2,0.6c-0.4,0.6-1.2,1-1.6,1.6c-0.4,0.7-0.6,1.4-1.1,2
				c-0.1,0.1-0.3,0.2-0.4,0.3c-0.2,0.3-0.1,0.6-0.3,0.8c-0.2,0.2-0.5,0.3-0.7,0.5c-0.5,0.7-1.1,1.4-1.4,2.1c-1.2,0-1.2-0.7-1.6-1.3
				c-0.6-0.9-1.3-1.9-1.9-2.8c0-0.2-0.1-0.4-0.1-0.6c-0.2-0.6-0.8-1.4-1.1-2c-1.1-1.6-2.6-3.1-3.7-4.7c-0.8-1.1-1.4-2.1-2.2-3.2
				c-0.2-0.3-0.9-1-1.1-1.2c-0.1,0-0.2-0.1-0.3-0.1c-0.7-1-1.2-2-2-3.1c-0.2-0.3-0.7-0.7-0.9-1v-0.4c-0.1-0.1-0.3-0.1-0.4-0.2
				l-0.3-0.9c-0.1-0.1-0.4-0.3-0.5-0.4c-0.7-1.1-1.2-2.2-2-3.3c-0.1,0-0.2-0.1-0.3-0.1V187c-0.4-0.7-1.3-1.2-1.4-2.2h-0.3
				c-0.2-0.8-0.8-1.1-1.2-1.6c-0.6-0.8-1-1.7-1.6-2.5c-0.5-0.7-1.4-1-1.9-1.7c-2.1-0.3-3.6,0.9-4.9,2.2c-0.2,0.1-0.2,0.5-0.4,0.6
				c-0.1,0-0.2-0.1-0.3-0.1c0,0.1-0.1,0.2-0.1,0.3c-0.1,0.1-0.4,0.2-0.5,0.3c-0.1,0.1-0.1,0.1-0.1,0.3c-1,0.2-3.4,2.4-4,3.1
				c-0.1,0-0.2-0.1-0.3-0.1c-0.2,0.1-0.5,0.7-0.7,0.8c-0.3,0.2-0.8,0.3-1.1,0.6c-0.9,0.8-1.8,1.5-2.9,2.2c-0.4,0.2-0.7,0.7-1.1,0.9
				c0,0.4,0.1,0.4,0,0.7c1.3,0.9,2.1,2.4,2.9,3.7c0.4,0.6,1.3,0.9,1.7,1.4c1.5,1.8,2.7,3.8,3.9,6c0.4,0.7,1.2,1.3,1.3,2.4
				c-0.8-0.2-2.4-2.1-3.1-2.7c-1.3-1-3-1.7-4.1-2.8c-0.1-0.1-0.1-0.4-0.3-0.5c-0.6-0.4-1.2-0.8-1.7-1.3c-0.4-0.4-0.5-0.9-0.9-1.2
				c-0.2-0.1-0.4-0.1-0.6-0.2c-1.1-0.7-2.9-2.2-4.3-1.9c-0.7,0.2-1.2,1.3-1.7,1.7c-0.6,0.6-1.4,1-2,1.5c-0.9,0.9-1.6,2.1-2.7,2.8
				v0.3c-1.1,0.2-1.2,1.3-1.9,2c-0.3,0.3-0.8,0.6-1.1,0.9c-0.4,0.5-0.5,1.1-1.2,1.3c0.1,0.2,0,0.1,0.1,0.2c-1,0.9-3.8,3.9-4.1,4.9
				h-0.3c-0.2,0.7-0.9,1.3-1.4,1.6c0,1.4,1.1,2,1.7,2.8c0.3,0.4,0.4,0.8,0.7,1.2c0.3,0.4,0.8,0.7,1,1.1c0,0.1-0.1,0.2-0.1,0.3
				c0.2,0.3,1,0.8,1.2,1.1c1,1.5,1.9,2.9,2.9,4.4c0.3,0.5,0.9,0.9,1.2,1.3c0,0.2,0.1,0.3,0.1,0.5c0.3,0.3,0.8,0.5,1,0.8
				c0.7,0.9,1.2,1.8,1.9,2.7c0.4,0.5,1,0.8,1.4,1.2c0.3,0.3,0.3,0.8,0.6,1.1c0.2,0.3,0.7,0.4,0.9,0.7c0.2,0.3,0.1,0.6,0.3,0.8
				c0.2,0.3,0.7,0.4,0.9,0.7c1.6,2.1,3,5.5,5,7v0.6c-2.2,0-3.9-0.8-5.7-1.4c-1.6-0.6-3.3-0.5-4.9-0.9c-3-0.8-8.2-1.7-10.8-1.3
				c-0.5,0.1-0.8-0.2-1-0.2c-1.4,0-3.3,0.1-4.5,0.4c-0.4,0.1-1-0.1-1.2,0c0,0-0.3,0.4-0.4,0.4c-0.6,0.3-1.6,0.4-2.1,0.7
				c-0.6,0.5-1.2,1-1.9,1.4c-0.2,0.2-0.2,0.5-0.4,0.7c-1,1.1-1.8,2.4-2.6,3.7c0,0.2-0.1,0.3-0.1,0.5c-0.1,0.1-0.2,0.1-0.3,0.2
				c0,0.1,0.1,0.2,0.1,0.3c-0.2,0.1-0.4,0-0.5,0.2c-0.3,0.4-0.3,0.9-0.5,1.3c-0.4,0.7-1.2,1.5-1.6,2.3c-0.2,0.4-0.4,1.2-0.6,1.6
				c-0.1,0.1-0.3,0.2-0.4,0.3c-0.1,0.2-0.1,0.4-0.2,0.6c-0.1,0.1-0.3,0.1-0.4,0.2c-0.2,0.3,0,0.5-0.2,0.8c-0.2,0.1-0.3,0.3-0.5,0.4
				v0.5c-0.1,0.2-0.5,0.4-0.6,0.6c-0.1,0.3,0,0.5-0.2,0.7c-0.1,0-0.2,0.1-0.3,0.1c-0.1,0.2-0.1,0.7-0.1,0.7h-0.2v0.4
				c-0.1,0.1-0.4,0.2-0.4,0.3c-0.2,0.3-0.1,0.7-0.1,0.8c-0.2,0.3-0.6,0.7-0.7,0.9c-0.2,0.4-0.1,0.8-0.3,1.3
				c-0.2,0.4-0.6,0.9-0.7,1.3c-0.2,0.7,0,1.1-0.2,1.4c-0.3,0.7-1,1.9-0.9,2.7c0,0.5-0.3,0.7-0.4,0.9c-0.3,0.5,0,2.1-0.3,3
				c-0.5,1.5-1,2.9-0.4,4.4c-0.1,0.5-0.1,1.7,0.2,2.2c0.4,0.6,1.5,1,2.1,1.4c0.2,0.2,0.3,0.4,0.5,0.6c0.4,0.2,0.9,0.2,1.2,0.5
				c0.1,0.1,0.1,0.4,0.3,0.5c0.8,0.5,2.2,0.6,3,0.8c0.3,0.1,0.6,0.4,0.9,0.5c0.3,0,0.7,0.1,1,0.1c0.3,0.1,0.8,0.5,1.1,0.6
				c0.6,0.3,1.8,0.1,2.4,0.4c0.2,0.1,0.4,0.4,0.6,0.5h0.7c0.1,0,0.6,0.4,0.7,0.4c0.3,0.1,0.7-0.1,1.1,0c1.1,0.3,2.5,0.6,3.6,0.9
				c0.3,0,0.6,0.1,0.9,0.1c2.2,0.9,4.3,2.2,6.3,3.5c0.5,0.3,1.1,1,1.4,1.1c0,1.4,0.3,2.1,0.4,3.1c0,0.1-0.2,0.3-0.2,0.3
				c-0.1,0.4,0.1,0.9,0.1,1.2c0,0.4-0.2,1.2-0.3,1.5c0,0.5,0.1,1,0.1,1.5c0,0.2-0.2,2.4-0.1,2.9c0.1,0.1,0.1,0.1,0.2,0.2
				c-0.3,0.3-0.5,4.5-0.4,4.8c0.2,1.1-0.3,3.7,0.2,4c-0.1,0.2,0,0.1-0.2,0.1c0.1,2.3-0.1,5.1,0.2,7.2c0.1,0.7-0.1,1.6-0.2,2.1
				l0.3,2.1h0.2c0.1,0.3-0.3,2.3-0.3,2.8c0.1,1.3,0.3,3,0.4,4.6h0.3c0.3,0.6,0.5,0.9,0.7,1.3c1,0,1.5,0.1,2.2-0.3
				c0.1-0.1,0.1-0.2,0.2-0.3c0.2-0.1,0.5,0,0.7-0.1c0.3-0.2,0.1,0,0.1-0.3c0.6,0,0.7-0.4,1.3-0.4v-0.3h0.3c0.2-0.6,0.9-0.8,1.4-1.1
				c1-0.7,1.9-1.5,2.9-2.2c0.4-0.3,0.9-0.2,1.3-0.5c0.5-0.3,1.3-1.1,2-1.4c0.6-0.4,1.3-0.4,2-0.8c2.5-1.6,5-3.2,7.3-5
				c0.6-0.5,1.4-0.6,2.1-1c0.5-0.3,1.2-0.9,1.7-1.1c0.7-0.3,1.4-0.5,1.9-1c1,0.1,1.1,1.4,1.4,2c0.5,0.9,1.1,1.5,1.5,2.4
				c0.4,0.8,0.3,1.5,0.7,2.4c0.4,0.8,1.4,3.2,1.3,3.8c0,0.6,0.3,1.6,0.4,2.1v2.7h-0.2c-0.1,0.5,0.2,1.6,0.1,2.1
				c0,0.1-0.2,0.8-0.3,0.9H372c-0.1,0.3,0.3,0.5,0.1,1.1c-0.2,0.8-0.4,1.6-0.7,2.5c-0.4,1-1.3,1.6-1.9,2.4v0.3
				c-0.2,0.3-0.7,0.5-0.9,0.8c0.1,0.2,0,0.4-0.2,0.6c-0.2,0.3-2.2,1.8-2.7,2.1h-0.3c-0.1,0.1-0.1,0.3-0.2,0.4
				c-0.3,0.2-1.5,0.5-1.5,0.5c-1.7,0-3.8,0.3-5.2-0.3c-0.4-0.2-0.6-0.6-0.9-0.8c-2.3-1.3-2.5-2.3-3.7-4.6c0-0.1,0-0.6,0-0.7
				c-0.3-0.9-0.9-2.9-0.6-3.9c0.7-2.2,3.4-4.2,6.2-3.2c0.3,0.1,0.9,0.3,1.1,0.4c0,0.1,0.1,0.3,0.1,0.4c0.3,0.3,0.7,0.3,0.9,0.6
				c0.4,0.6,0.3,1.4,0.7,2.1v0.9H362c-1-1.2-2.6-2.6-4.6-2c-0.4,0.1-0.4,0.5-0.9,0.6c-0.1,0.9-1.1,1.2-1,2c0,0.1,0.2,0.8,0.2,0.9
				c0,0.4-0.1,0.8,0.2,1.2v0.2c-0.2,0-0.2,0-0.3-0.1h-0.2c0.1,0.6,0.7,0.7,0.9,1.1h0.3c0.1,0.4,0.2,0.3,0.5,0.5
				c1.6,1.4,5.1,1,6.1-0.7c0.1-0.1,0-0.2-0.1-0.4c0.2-0.1,0.4-0.1,0.6-0.2c0.3-0.8,0.8-1.9,0.8-2.6c0.1-0.5-0.5-0.6-0.1-1.1
				c0.1-0.6,0.2-0.5,0.5-0.7h0.1c-0.2-0.2-0.4-0.2-0.7-0.2c-0.1-1.9-2.3-4.1-4-4.7c-0.3,0-0.6-0.1-0.9-0.1c-0.4-0.1-1.5-0.5-2.2-0.3
				c-0.4,0.1-0.9,0.4-1.2,0.5c-0.4,0.1-0.9-0.1-1.3,0.2c-0.2,0.1-0.4,0.4-0.3,0.5c-0.5,0.2-1,0.3-1.2,0.7c0,0-0.1,0.5-0.2,0.7
				c-0.4,0.5-1,0.9-1.3,1.4c-0.2,0.5-0.3,2.3-0.2,2.6c0,0.1,0.2,0.2,0.2,0.4c-0.3,3.2,2.3,7,4.8,9c1.1,0.9,5.7,1.2,7.2,0.9
				c0.5,0,1-0.1,1.5-0.1c1.3-0.4,2.2-1.5,3.2-2.3c0,0,0.3,0,0.5-0.1c0.7-0.5,1.3-1.4,1.9-2.2c1-1.3,2.2-2.4,2.8-4.1
				c0.1-0.2-0.1-0.3-0.1-0.4c0.5-0.9,0.6-2.3,0.9-3.3c0.1-0.3-0.2-1.4-0.1-1.7c0.3-1.2,0.3-2.4,0-3.7c-0.1-0.6,0.2-1.4,0.1-1.7
				c-0.1-0.8-0.6-1.4-0.7-2.1c0-0.2,0.1-0.4,0.1-0.6c-0.1,0-0.2-0.1-0.3-0.1c-0.3-0.5-0.4-1.1-0.6-1.5c-0.3-0.5-0.1-1.1-0.4-1.6
				c0-0.1-0.5-0.4-0.5-0.4c0-0.1,0.1-0.2,0.1-0.3c0-0.2-0.4-1-0.5-1.2c-0.7-1.2-1.8-2.3-2.1-3.7c0.6-0.3,1.2-0.7,1.7-0.9
				c0.6-0.2,1-0.2,1.5-0.4c0.4-0.2,1.3-0.8,1.6-0.9c0.2,0,0.4,0.1,0.6,0.1l0.3-0.3c0.3,0,0.6-0.1,0.9-0.1c0.3-0.1,0.8-0.5,1.1-0.6
				c0.5-0.2,0.9,0,1.2-0.2v-0.2c0.7-0.3,1.5,0.1,2.2,0c1.9-0.4,6.2,0.1,7.7,1.1c0.3,0.1,0.6,0.1,0.9,0.2c0.9,0.4,2,0.9,2.8,1.4
				c1,0.7,1.7,1.7,2.6,2.6c0.5,0.5,1.2,0.8,1.6,1.2c1.3,1.4,2.3,2.9,3.5,4.4c0.4,0.5,0.5,1.1,0.8,1.6c0.1,0.1,0.3,0.1,0.4,0.2
				c0.1,0.3,0.1,0.6,0.2,0.9c1.2,1.6,1.8,3.6,2.9,5.4c0.2,0.4,0.1,1.1,0.2,1.2c0.2,0.4,0.4,0.9,0.6,1.3c0.1,0.2,0,0.5,0,0.5
				c0.3,0.4,0.3,1.1,0.6,1.5c0.2,0.1,0.3,0.3,0.5,0.4c0.3,0.6-0.1,1,0.2,1.5c0,0.1,0.3,0.1,0.3,0.2c0.2,0.5,0,0.8,0.2,1.3
				c0.9,2.6,1.8,5,1.7,8c-0.8,0-1.3-0.3-1.9-0.4h-1c-0.9-0.2-1.1-0.1-2.3-0.1c-0.6,0-1.2,0.1-1.7,0.1c-0.3,0.1-0.6,0.5-0.8,0.6
				c-0.4,0.2-0.4,0-0.6,0.3c-1.2,0.7,0,4.5-0.8,5.9c0.2,0.4,0.4,0.8,0.1,1.1c0,0,0,0.4,0.1,0.2c0,0,0.1-0.1,0.1-0.1
				c-0.4,1.3,0.2,2.6,0.2,3.6c0,0.3,0.1,0.8,0,1.1c-0.1,0.1-0.1,0.1-0.2,0.2c-0.1,0.5,0.5,0.8-0.1,1.1c0,0.6,0.2,1,0.5,1
				c-0.4,1.6-0.2,4.1,0.2,5.3c-0.3,1.1,0.3,2.1,0.4,3.3c0,0.2-0.2,0.5-0.1,0.8c0.3,1.4,0.6,4,0.7,5.1c0.1,0.8,0,1.7,0.2,2.3
				c-0.1,0.5-0.4,1.3,0.1,1.6v0.1c-0.2-0.1-0.1,0-0.2-0.1h-0.1c0.1,0.5-0.2,1.1-0.1,1.4c0,0.1,0.3,0.4,0.3,0.5
				c0,0.1-0.2,0.2-0.1,0.4c0.4,1.7,0.3,3.6,0.5,4.6c0.1,0.4-0.1,1-0.1,1.1c-0.1,0.8,0.1,2.4,0.2,3c0.2,1.1-0.4,2.8,0.1,3.4
				c0,0.2-0.2,0.4-0.2,0.5c-0.1,0.5,0.1,1.3,0.1,1.5c0.2,2-0.3,3.5-0.1,4.7c0,0.2-0.3,0.4-0.3,0.5c-0.1,0.5,0.6,1.1,0.1,1.5
				c0,0.2,0.1,0.1,0.1,0.2c0,0.6,0.2,0.6,0.4,0.9c0.2,0,0.3,0,0.4-0.1c0.5,0,0.6-0.1,0.9-0.2c0.1-0.3,0.1-1.2,0.3-1.5v-0.2
				c0.9,0,1.1,0.4,1.6,0.6c0.5,0.2,1.4,0,1.6,0.2c0,0.1,0.1,0.2,0.1,0.3h0.7c0.5,0.2,1.2,0.6,1.6,0.7c0.2,0,0.3-0.1,0.5-0.1
				c0.2,0.1,0.7,0.5,1,0.6c0.2,0.1,0.4-0.1,0.5-0.1c0.3,0.1,1.1,0.4,1.4,0.4c0.1,0,0.2-0.1,0.3-0.1c1.5,0.4,3.3,0.9,4.7,0.8
				c1,0,1.9,0.4,2.8,0.2c0.1,0,2.9,0,2.9,0c0.1,0,0,0.2,0.3,0.2c0.2,0,2.9,0.1,3.4-0.1c0,0,0.3-0.3,0.4-0.3c0.2,0,1.1,0.6,1.7,0.4
				c0.5-0.2,1-0.6,1.5-0.8c0-1,0.8-1.5,0.5-2.7c-0.7-2.9-0.4-5.1-0.9-8.6c-0.1-0.9,0.1-2.3-0.1-3.4c-0.3-1.6-0.1-3.6-0.2-5.6
				c0-0.1-0.3-0.5-0.3-0.6c-0.1-0.6,0.2-1.5,0-2.4c-0.3-1.5-0.4-3.8-0.6-5c0-0.3,0.1-0.5,0.1-0.8c-0.8-4.3-0.6-9-1.2-12.3
				c-0.1-1-0.1-1.9-0.2-2.9c-0.1-0.5-0.1-1.6-0.3-2.5c-0.7-3-0.9-5.5-2.7-7.9c-0.9-1.2-2.7-2-4.2-2.7c-0.3-1.3-0.4-3.6-0.4-4.6
				c-0.1-1.7-0.7-3.4-0.5-5.1c0.7,0.3,1.2,0.8,1.7,1.2c0.6,0.4,1.1,0.5,1.7,0.8c1.1,0.6,2.3,1.4,3.6,1.9c0.4,0,0.8,0.1,1.1,0.1
				c3.6,1.1,5.9-0.7,7.9-2.1c0.8-0.5,1.5-0.9,2.2-1.5c0.1-0.2,0.3-0.5,0.4-0.7c0.2-0.1,0.4-0.1,0.6-0.2l2.3-2.3v-0.4
				c0.4-0.7,1.4-1.1,1.7-1.7c0-0.1-0.1-0.2-0.1-0.3c0.2-0.1,0.3-0.2,0.5-0.3c0.3-0.5,0.5-1,0.9-1.4c0.1-0.1,0.4-0.1,0.5-0.3
				c0-0.2,0.1-0.3,0.1-0.5c0.1,0,0.2-0.1,0.3-0.1c0.6-0.6,1-1.4,1.6-2v-0.3c0.8-0.2,1.2-1.2,1.5-1.9c0.8-1.3,2.1-2.4,3-3.7
				c0.4-0.5,0.4-1,0.7-1.5c0.4-0.8,1.5-1.4,2.1-2.2c0.7-1,1.2-2.1,2-3.1c0.3-0.4,0.7-0.9,1-1.2c0.1-0.1,0.3-0.1,0.4-0.2
				c0.2-0.3,0.2-0.8,0.4-1.1c0.2-0.3,0.6-0.4,0.8-0.6c0.2-0.3,0.1-0.7,0.3-0.9c0.2-0.2,0.5-0.2,0.6-0.4c1-1.1,1.9-2,3.2-2.9
				c0.2-0.2,0.4-0.5,0.6-0.7c0.4-0.2,0.8-0.3,1.1-0.5c0.1-0.1,0.1-0.3,0.2-0.4c1.1-0.9,6.2-1.3,7.5-1.1c1,0.1,2.9,1.5,3.5,1
				c0.3,0.1,0.2,0,0.2,0.2c0.2,0.3,0,0.1,0.4,0.1c-0.1,0.1-0.1,0.1-0.2,0.2c0.2,0.1,0.5,0.2,0.7,0.3c0.1-0.3-0.1-0.3,0.2-0.4
				c0.5-0.2,2.7,0.5,3.3,0.6h1c1.7,0.4,4,0.3,5.9,0.5c0.2,0,0.5-0.2,0.6-0.2c0.3,0,0.5,0.1,0.8,0.1c1.3-0.4,3.2-0.8,4.5-0.9
				c0.3,0,0.7,0.2,1.1,0.1c3.4-0.8,6.8-1.4,9.9-2.5c1.4-0.5,4.5-1.3,5.2-2.3c0.3,0.1,0.4,0.6,0.5,1h0.2c0-0.3-0.2-0.5-0.1-0.7
				c-0.1-0.5-0.1-0.2-0.2-0.5c-0.1-0.2-0.1-0.3-0.1-0.6c0.3-0.3,0.8-0.7,0.9-1.2C511.7,293.6,510.3,291.6,509.9,290.9z M497.9,273.6
				c-0.1,0.2,0,0.1-0.2,0H497.9z M463.1,243c0-0.6-0.1-1.2-0.1-1.7c-0.1-0.5-0.3-1.4-0.1-2.2c0.5-1.7,1.8-3.7,3-4.7
				c0.7-0.6,1.7-0.8,2.5-1.4c2.2,0,3.8,0.4,5.6,0.9c0.3,0,0.6,0.1,0.9,0.1c0.2,0.2,0.3,0.4,0.5,0.6c2.4,1.8,4.1,5.4,2.4,8.7
				c-0.3,0.6-1,0.8-1.3,1.3c-0.1,0.2-0.1,0.5-0.2,0.7c-0.2,0.3-0.7,0.6-1,0.8c0,0.1,0.1,0.1,0.1,0.2c-0.3,0.2-0.6,0-0.9,0.2
				c-0.3,0.3-0.5,0.5-0.8,0.8c-0.4,0.3-0.9,0.2-1.3,0.4c-0.5,0.2-1,0.6-1.5,0.7c-1.2,0.3-2.1-0.4-2.8-0.7c-0.4-0.1-0.8-0.1-1.1-0.2
				C464.9,246.9,463.6,244.9,463.1,243z M366.6,308.6c-0.2,0.2-0.5,0.4-0.7,0.6c-3.1,0-4.4,1.2-6.6,2c-0.6,0.2-1.1,0-1.7,0.2
				c-1.7,0.6-4.1,0.6-5.9,0.3c-0.3,0-0.5,0.1-0.8,0.1c-5.2-1.2-6.7-4.7-8.7-8.7c-0.1-0.2,0.1-0.8-0.1-1.2c-0.3-0.9-0.7-2.1-0.9-2.9
				c-0.1-0.4,0.2-0.7,0.1-0.9c-0.4-0.7-0.7-2.2-0.5-3.2c0.2-0.9-0.1-2-0.2-2.8c-0.2-1.4,0.5-3.3,0.6-4.6c0.1-0.5-0.1-1,0.1-1.4
				c-1.1-0.7-2.4-1.4-3.6-2.1c-0.4-0.2-0.9-0.2-1.3-0.5c-1.7-1.1-3.5-2.4-5.7-3c-0.6-0.1-1.2-0.1-1.7-0.2c-2.5-0.8-5.4-1-7.4-2.2
				c0-3.5-0.4-6,0.6-9c0-0.3,0.1-0.7,0.1-1c0.2-0.4,0.5-0.9,0.7-1.3c0.1-0.3,0-0.6,0-0.7c0.1-0.3,0.5-0.5,0.6-0.7
				c0-0.2,0.1-0.4,0.1-0.6l0.7-0.7c0.6-0.9,1.6-3,2.5-3.5c0.9-0.5,2-0.4,3-0.6c1-0.2,1.4,0.7,2.1,0.1c0.4-0.2,0.7-0.8,0.4-1.3
				c-0.2-0.4-0.8-0.6-0.9-1V257c-0.1-0.2-0.4-0.4-0.5-0.6c-0.3-0.7-0.3-1.4-0.7-2.1h-0.2c-0.2-0.3,0-1.5-0.1-2.2
				c-0.6-3.5,2.1-7.9,4.3-9.4v-0.3c0.7-0.2,1.2-1,1.7-1.3c0.9-0.6,1.7-0.6,2.9-1c0.3-0.1,0.7-0.5,0.9-0.6c0.6-0.3,1.4,0,2.1-0.1
				c4.3-0.6,8.5,0.3,11.9,1.3c-0.2,0.5-2.8,1.3-3.7,1.6c-0.2,0-0.5,0.1-0.7,0.1c-2.2,1.4-4.1,3.3-5.7,5.3c-0.9,1.2-1.5,2.9-2.1,4.3
				c-0.2,0.5-0.2,1.3-0.3,1.5c-0.2,0.5-0.8,1.6-0.6,2.4c0,0.1-0.4,1.7-0.4,1.9c-0.1,0.3,0.3,0.7,0.2,0.8c-0.1,0.2-0.4,0.4-0.4,0.7
				c0.1,0.2,0.1,0.4,0.2,0.6c-0.2,0.6-0.5,2.4-0.4,3.2c0.3,2,0.6,4.5,1.3,6.4c0.2,0.5,0,0.8,0.2,1.2c0.1,0.1,0.2,0.1,0.3,0.2v0.5
				c0.2,0.5,0.7,1.2,0.9,1.7v0.4c0.1,0.2,0.5,0.5,0.6,0.7c0.3,0.7,0.4,1.3,0.8,1.9c0.1,0.2,0.7,0.7,0.9,0.8h0.4
				c0,0.1,0.1,0.2,0.1,0.3c1,0.8,1.9,1.2,3.2,1.7c0.8,0.3,1.3,0.9,2.3,1c0.1,0.5,0.3,1.3,0.3,1.6c0,0.2-0.2,0.6-0.1,0.9
				c0.5,1.8,0.7,2.9,1.3,4.4c0.3,0.6,0.2,1.2,0.5,1.7c0.2,0.1,0.3,0.3,0.5,0.4c0.4,0.8,1.1,2.5,1.9,3.6c0.2,0.1,0.4,0.3,0.6,0.4
				c0.2,0.3,0.2,0.6,0.4,0.8c0.2,0.1,0.4,0,0.5,0.2c0.2,0.3,0.1,0.5,0.3,0.8c0.3,0.5,1,0.9,1.3,1.3c0.2,0.3,0.2,0.6,0.4,0.9
				c0.2,0.2,0.6,0.4,0.8,0.6c0.3,0.3,0.3,0.8,0.6,1.1c0.5,0.5,1.2,1,1.5,1.6c0.3,0.4,0.5,0.8,0.7,1.1c-0.1,0.1-0.1,0.2,0,0.4
				c0.2,0.1,0.3,0.2,0.5,0.3c-0.1,0.2-0.1,0.3,0,0.4c0.1,0.1,0.1,0.1,0.3,0.1c0,0.2,0,0.3,0.1,0.4c0.1,0.2,0.5,0.5,0.7,0.8
				c0.3,0.4,0.3,0.9,0.6,1.4c0.2,0.1,0.3,0.2,0.5,0.3c0,0.2,0.1,0.4,0.1,0.6c0.2,0.2,0.3,0.3,0.5,0.5c0.3,0.4,0.1,0.8,0.6,1
				L366.6,308.6L366.6,308.6z M402.4,341.7c0.3,0,0.6,0,0.8-0.1c2.2,0,4.3,0.4,5.8,1.4c-0.1,0.6,0.1,1.3-0.2,1.5
				c0.1,0.2,0.1,0.2,0.3,0.3c-0.1,0.1-0.2,0.1-0.3,0.2c0.1,0.3,0.3,0.5,0.4,0.7c-0.2,0.5-0.3,0.7,0.2,0.9v0.3
				c-1.5-0.5-3.4-0.9-4.8-1.3c-0.4-0.1-0.7,0-1-0.2c-0.2-0.1-1.2-0.7-1.3-0.8c-0.4-0.3-0.4-1-0.8-1.3
				C401.4,342.2,402.1,342.5,402.4,341.7z M427.5,395.5c-0.5,0.8,0.5,1.8,0.2,2.6c-0.2,0.7-1.9,0.9-3,0.7c-0.6-0.1-1.4-0.2-2.5-0.2
				h-2.1c-1-0.2-1.9,0-2.8-0.2c-1.3-0.3-2.9-0.6-4-0.9c-0.4,0-0.9-0.1-1.3-0.1c-1.9-0.7-4.3-1.2-6.2-2.1c-0.6-0.3-1.3-0.8-2.1-0.9
				c0-0.4-0.2-1.3,0.1-1.7c0,0,1.1,0.3,1.4,0.4c1.5,0.5,2.7,0.7,4.4,1c3.4,0.6,8.6,2.1,12.3,1.4c0.5-0.1,1.2,0.2,1.6,0.2
				c1,0,2.4,0.1,3.6-0.3L427.5,395.5z M427.2,393.3c0,0.3,0,0.3-0.1,0.5c-0.7,0.1-1.8,0.6-2.8,0.3c-0.3-0.1-0.8-0.3-1.3-0.2
				c-1.8,0.4-5,0.1-6.9-0.4c-0.4,0-0.9-0.1-1.3-0.1c-0.9-0.3-2.1-0.3-3.1-0.6c-0.4-0.1-1.3-0.6-1.7-0.6c-1.4,0-2.7-0.5-3.8-1
				c-0.4,0.1-1.9-0.4-2.3-0.6h-0.2c0-0.7,0.1-1.1,0.2-1.5c0.2,0.1,0.3,0.1,0.4,0.3c1.8,0.1,3.4,0.4,5.2,1c0.4-0.1,0.9,0.1,1.3,0.2
				c0.2,0,0.9-0.2,1.2-0.1c0.1,0,0.4,0.4,0.5,0.4c0.6,0.2,1.3,0,1.6,0.1c1.3,0.3,4.4,0.9,5.2,0.5c1.4,0.4,3.5,0.5,4.7,0.3
				c0.6-0.1,0.9,0.4,1.5,0.2l1-0.5h0.3C427,391.8,427.1,393.1,427.2,393.3z M426.9,389.8c-0.8,0.1-1.7,0.3-2.6,0.5
				c-1,0.2-2.3-0.3-3.3-0.3c-2.3,0.1-5-0.6-7.2-0.9c-0.2,0-0.4,0.1-0.6,0.1c-0.3-0.1-0.9-0.4-1.3-0.4c-0.2,0-0.4,0.1-0.6,0.1
				c-0.6-0.2-1.9-0.7-2.6-0.7c-0.2,0-0.8,0.2-1.2,0l-0.6-0.6c-0.3,0-0.7,0.1-1,0.1c-0.8-0.1-1.3-0.5-2.3-0.5
				c0.1-0.3,0.2-1.3,0.1-1.4v-0.3c1-0.2,1.4,0.3,2.5,0.4c2.2,0.3,4.6,0.7,6.7,1c0.4,0.1,1-0.1,1.2,0v0.2c0.2,0.1,1.6,0.2,1.6,0.2
				V387c0.1,0.1,0.1,0.1,0.1,0.3c2.3,0.2,5.2,1,7.6,0.7c0.9-0.1,2.4,0.2,3-0.2h0.4C426.9,388.5,426.9,389.1,426.9,389.8z
				 M426.5,385.6c-0.2,0.4-0.2-0.1-0.5,0.2v0.3c-0.5,0.5-3.5,0.7-4.5,0.4c-0.2,0-0.4-0.3-0.7-0.2c-0.7,0.1-3.3-0.3-4-0.6
				c-0.7,0.3-2.4-0.4-3.1-0.6c-0.9-0.3-1.8,0.1-2.8-0.2c-1-0.4-2.4-0.6-3.5-0.8h-0.8c-1-0.3-1.6-0.8-2.8-0.9c-0.2-0.7-0.2-1.1,0-1.6
				c0.5,0,1.8,0,2.1,0.2c0,0.1,0.1,0.3,0.1,0.4c0.3,0.2,1.1-0.3,1.5-0.2c0.4,0.1,0.8,0.4,1.1,0.5c0.6,0.1,2-0.2,2.6,0.1v0.2
				c0.4,0.2,0.8,0,1.1,0.1c0.1,0,0.4,0.3,0.5,0.3c0.2,0,0.5-0.1,0.7-0.1c0.1,0,0.3,0.3,0.4,0.3c0.2,0,0.5-0.1,0.7-0.1
				c2.1,0.6,5.2,1,7.1,0.7c0.7-0.1,3.7,0.3,4.5-0.2C426.8,384,426.3,385.1,426.5,385.6z M426.2,382c-1.2,0.5-2.3,0.2-3.7,0.3
				c-4.9,0.3-11.3-1.3-15.1-2.1c-1.6-0.3-2.7-0.5-3.9-1.1c0-0.8-0.3-1.5-0.1-2.2c1.7,1.1,3.1,0.9,5.4,1.5c0.6,0.2,0.7-0.1,1.2,0
				c0.7,0.2,2.5,0.8,3.2,1.1c0,0,2.8,0.3,3,0.4c0.2,0.1,0.9,0.5,1.3,0.4c0.5-0.1,0.3,0,0.7,0.2c0.2,0.1,2.1-0.1,2.4,0
				c0.2,0.1,0.8,0.2,1,0.2c0.5-0.1,1.5,0.1,2.5-0.1c0.7-0.2,1.3-0.3,1.9-0.4c0,0.1,0.1,0.2,0.1,0.3
				C426.2,380.9,426.1,381.7,426.2,382z M422.2,379.2c-0.2,0-0.1-0.2-0.4-0.2c-1.1,0.1-2.5,0.2-3.6-0.1c-2.5-0.6-5.3-1.1-7.7-2.1
				c-0.7,0.2-1.7-0.1-2.5-0.5c-0.7,0.3-2.3-0.5-3.1-0.8H404c-0.4-0.2-0.5-0.6-0.9-0.7c0-0.5,0.1-1,0.1-1.5c0.4,0,0.7,0.1,0.8,0
				c0.1,0.1,0.1,0.1,0.1,0.3c1.5,0.1,2,0.5,3.1,0.8c0.4,0.1,1.2-0.2,1.7,0.1c0.1,0.1,0.4,0.3,0.5,0.4l2.5,0.3c0.6,0.2,1.4,0.5,2,0.7
				c0.9,0.3,1.8,0.1,2.8,0.3c0.2,0.1,0.8-0.1,0.8-0.1c0.6,0.2,2,0.6,2.6,0.5c1.4-0.1,4.1,0.6,5-0.2c0.4,0,0.6-0.1,0.7,0.2
				c0.1,0.2,0,1.2,0.2,1.5C425.3,379,423.5,379.4,422.2,379.2z M425.8,373.1v1.2c-0.6,1.3-5,1.2-6.8,0.7c-1.7-0.4-3.4-0.3-4.9-0.7
				c-0.4-0.1-0.9-0.5-1.3-0.6c-0.7-0.1-1.3-0.1-2-0.2l-0.3-0.3c-0.7-0.3-1.2-0.1-2.1-0.3c-0.4-0.1-0.9-0.5-1.3-0.6
				c-1.3-0.4-3.1-0.4-4.1-1c-0.1-0.2,0.2-1.1-0.1-1.6v-0.1c1.2,0,1.4,0.3,2.4,0.6c0.9,0.3,1.5,0,2.2,0.4c0.1,0,0.6-0.1,0.9,0
				c0.9,0.2,1.4,0.2,2.5,0.5c0.9,0.3,1.8,0.3,2.6,0.7h0.8c0.9,0.3,1.6,0.7,2.6,1c0.3,0.1,0.9-0.1,1.4,0c1.2,0.3,2.3,0.6,3.8,0.3
				c0.9-0.2,1.4,0.3,2.3,0c0.5-0.2,0.8-0.5,1.5-0.5C425.7,372.9,425.7,372.9,425.8,373.1z M425.4,370c-0.1,0.8-0.3,0.6-0.8,0.9
				c-0.8,0.5-1.7,1-2.9,0.7c-0.4-0.1-1.2-0.3-1.7-0.2c-1.5,0.2-3.7-0.6-5.2-1.1c-1.2-0.4-2.5-0.7-3.6-0.9c-0.3-0.1-1.1,0.1-1.6-0.1
				c-0.3-0.1-0.7-0.4-1.1-0.5c-0.5,0-1-0.1-1.4-0.1c-1.1-0.3-2.3-0.8-3.1-1c-0.3-0.1-0.8,0.1-1.2-0.3c-0.2-0.4-0.2-1.2-0.2-2
				c0.9,0.3,2.1,0.4,3.1,0.6h1c0,0.1,0.1,0.2,0.1,0.3c0.5,0.2,1.2,0,1.5,0.1c0.4,0.1,1,0.3,1.3,0.4c0.2,0,0.5-0.1,0.7-0.1
				c0.5,0.1,1.3,0.5,1.5,0.6c0.1,0,0.4-0.2,0.6-0.1c0.1,0.1,0.1,0.2,0.2,0.3c0.5-0.2,2.1,0.3,2.5,0.4c1.2,0.4,2.3,0,3.3,0.5
				c1.2-0.4,3,0.2,4.4-0.2c0.7-0.2,1.8-0.7,2.4-0.5l0.1-0.1C425.3,368.1,425.6,369.7,425.4,370z M425.1,365.2
				c-0.1,0.4-0.5,0.9-0.8,1c-0.9,0.5-4.7,0.8-6.1,0.5c-2.7-0.6-5.5-1.1-8-1.7c-1.1-0.1-2.1-0.3-3.2-0.4c-0.9-0.3-3.9-1.1-4.8-1
				c-0.2-0.7-0.2-1.1-0.1-1.9c1.6,0.1,3,0.5,4.2,1h1.6c0.3,0.1,0.7,0.3,0.9,0.4c0.1,0,0.3-0.2,0.5-0.1c0.2,0.1,0.6,0.4,0.9,0.4
				c0.7,0,1.3,0.1,2,0.3h1.7c1,0.4,3,0.6,3.9,0.4c0.6-0.1,1.3,0.1,1.7,0.1c1.7,0.1,4-0.1,4.9-0.7c0.2,0,0.2,0,0.3,0.1
				C425.2,364,424.9,364.7,425.1,365.2z M424.4,359.5c0.1,0.5,0.2,1.6,0.4,2c-1,1.2-3.1,1.3-5.1,1.2c-0.5,0-1-0.1-1.4-0.1
				c-1.9,0.4-4.5-0.3-6.1-0.7c-0.3-0.1-0.8,0.2-1.3,0c-1.9-0.6-4.6-1-6.2-1.4c-0.9-0.2-2.3-0.2-2.8-0.5c-0.6-0.3-0.2-1-0.4-1.6
				c0,0,0.1-0.1,0.1-0.1c1,0,2.2,0.2,2.8,0.4c0.7,0.1,1.4,0.1,2.1,0.2c0,0.1,0.1,0.2,0.1,0.3c0.4,0,0.8-0.1,1.2-0.1
				c0.3,0.1,0.5,0.2,0.8,0.3c0.9,0,1.7,0.1,2.6,0.1c0.3,0.1,0.8,0.4,1.1,0.5c0.3,0,0.7-0.1,1-0.1c0.9,0.2,2,0.3,2.7,0.4
				c1.1,0.1,4.1,0.6,5.2,0.3c0.4-0.1,1.7-0.1,2.1-0.3C423.7,359.9,423.7,359.6,424.4,359.5z M418.2,358.7h-1.1
				c-2.1-0.5-5-0.5-7.2-1.1c-1.3-0.4-2.7-0.1-3.8-0.6c-0.1,0-0.2,0.2-0.4,0.1c-0.3-0.1-1,0-1.3-0.2v-0.2h-1
				c-0.6-0.2-0.8-0.6-1.7-0.6c-0.1-0.5,0-1.7-0.1-2v-0.2c0.3,0.1,0.1,0.2,0.3,0.3c0.4-0.3,1.1,0.1,1.3,0h0.1c0.1,0,0.2,0.4,0.3,0.4
				h1c0.4,0.1,0.9,0.4,1.3,0.5c0.3,0.1,1.2-0.1,1.5,0.1c0.2,0.2,0.3,0.4,0.3,0.7h0.3v-0.4c0.8,0.4,2.3,0.2,3.4,0.6
				c1.6,0.6,7.3,1.6,9.4,0.8c1.2-0.4,2.5-0.1,3.4-0.7h0.1C424.2,358.7,421,359.3,418.2,358.7z M424,352.8c0,0.5,0,1,0.2,1.2
				c-1.1,1.3-5,1.9-7.4,1.4c-2.3-0.5-4.9-0.6-7.4-1.3c-0.4-0.1-1.1-0.3-1.4-0.5l-0.3-0.3c-0.4-0.1-1.2,0.1-1.5,0
				c-1.5-0.4-2.9-1.2-4.7-1.2c0.1-0.6,0-1,0-2c0.7,0.1,1,0.4,1.5,0.5c0.6,0.1,0.9-0.3,1.4,0c0,0.1,0.1,0.2,0.1,0.3
				c0.4,0.2,2.8,0.8,3.1,0.8v0.3c1-0.3,2.2,0.5,3.1,0.7c0.8,0.2,1.3,0,2.1,0.2c2.6,0.8,8.9,1.8,11.2-0.2L424,352.8L424,352.8z
				 M421.2,345.7v-0.4c0.2-0.1,0.1,0,0.2-0.1c0.2,0.2,0.3,0.2,0.4,0.5h0.4c0.1,0.7,0.6,1,0.7,1.9l0.1-0.1h0.2
				c-0.3,0.7-0.9,1.6-1.5,2c-0.3,0.2-0.5,0.1-0.7,0.3h-0.1C421.1,349.3,421.8,346.6,421.2,345.7z M422.6,351.2
				c0.1-0.1,0.6-0.5,0.7-0.6c0.5,0.1,0,0.1,0.4,0.2c-1.4,2.5-4.7,1.1-7.6,1.4c-1,0.1-2.3-0.6-3.4-0.9c-1-0.3-1.9,0-2.8-0.3l-0.3-0.3
				c-0.3-0.1-0.7-0.1-1-0.2c0-0.1-0.1-0.2-0.1-0.3c-0.4-0.2-0.9-0.1-1.2-0.3v-0.2c-0.1,0-0.2,0.1-0.3,0.1c-0.5-0.1-0.9-0.4-1.3-0.5
				c-0.4,0-0.8-0.1-1.1-0.1c-1.1-0.4-2.2-0.8-3.2-1.2c0-0.7,0-1.2,0.2-1.6c0.4,0.1,0.5,0.3,0.7,0.2c0.3,0.1,0,0,0.2,0.2
				c1,0.8,2.9,1.1,4.1,1.5c0.2-0.1,1-0.1,1.4,0.1c0.6,0.2,1.5,0.5,2.1,0.7c0.7,0.2,1.2,0,1.9,0.3c0.4,0.2,0.9,0.5,1.3,0.6
				c0.7,0.2,1.4,0.1,2.2,0.4c0.6,0.2,1.3,0.8,2,0.9C418.1,351.5,422.3,351.3,422.6,351.2z M507.1,295.6c-1.8,2-4.2,1.6-6.8,2.6
				c-1.3,0.5-3.3,0.9-4.3,1.2c-1,0.1-2.1,0.1-3.1,0.2c-3.5,0.9-9,1.1-12.7,0.1c-1.1-0.3-2.3-0.2-3-0.8c0,0.1-0.3,0.2-0.4,0.1
				c-0.2-0.1-0.5-0.5-0.8-0.6c-0.9-0.4-1.7-0.4-2.6-0.7c-0.7-0.3-1.4-0.7-2.2-0.9c-0.8-0.2-1.6-0.2-2.4-0.4c-0.6,0-1.2,0.1-1.9,0.1
				c-0.8-0.3-2.5-0.6-3.7-0.2c-0.9,0.3-1.7,1-2.6,1.3c-1.5,0.7-2.7,1.3-4,2.3c-0.3,0.2-0.5,0.7-0.7,0.9c-0.3,0.3-0.8,0.4-1,0.7
				c-0.4,0.6-0.7,1.3-1.2,1.9c-0.7,0.7-1.4,1.4-2,2.3c-0.3,0.5-0.4,1-0.7,1.5c-0.1,0-0.2,0.1-0.3,0.1c-0.5,0.6-0.9,1.4-1.3,2.1
				c-0.7,0.9-1.6,1.8-2.3,2.8c-1.1,1.6-1.6,3.5-2.7,5.1c-0.4,0.7-1.2,1.2-1.6,1.9c-0.3,0.4-0.4,0.9-0.7,1.3c-0.1,0-0.2,0.1-0.3,0.1
				c-0.2,0.2-0.1,0.5-0.3,0.7c-0.1,0-0.2,0.1-0.3,0.1c-0.1,0.4-0.2,0.8-0.3,1.1c-0.4,0.7-1.2,1.3-1.6,2c-2,2.9-4.3,5.3-7.1,7.4
				c-0.7,0.5-1.7,2-3.4,1.4c-1.3-0.4-3.1-1.2-4.1-2c-0.2-0.2-0.3-0.5-0.5-0.7c-0.6-0.4-1.2-0.4-1.7-0.7c-1.8-1.1-3.7-2.3-5.4-3.5
				c-1.1,0-1.2,0.7-1.6,1c0.1,1,0.4,1.7,0.5,3.1c0.1,0.7,0,1.7,0,2.6c0,0.2-0.1,0.4-0.1,0.6c0.5,2.7,0.1,5,0.6,7.6
				c0.3,1.8-0.3,3.1,0,4.2c0.2,0.9-0.3,1.6,0.1,2.2c0,0.4,0,0.8-0.1,1c-0.1-0.1-0.6,0.1-0.9,0c-0.9-0.3-2.5-0.6-3.3-1.1
				c-0.4-0.3-0.1-0.6-0.3-1c-0.1-0.1-0.4-0.2-0.5-0.3c-0.1-0.2-0.3-1.5-0.4-1.7c0-0.8-0.1-1.6-0.1-2.5c-0.6-1.8-0.3-3.9-1-6.1
				c-0.2-0.6-0.5-1.4-0.7-2.1c0-0.2-0.1-0.5-0.1-0.7c-0.6-1.2-1.6-3.2-1.5-4.5H407c-0.1-1.6-1.4-3.8-2.1-5.4
				c-1.9-4.4-3.8-7.5-6.5-11.2c-0.8-1.1-2.2-1.8-3.2-2.8c-1.3-1.3-3-3.5-5.4-3.5c-0.2-0.8-3.2-1.4-4.2-1.6h-1.5
				c-4-0.9-9.3,0.8-11.9,2.2c-0.5,0.2-0.9,0.1-1.4,0.3c-0.5,0.2-1.7,1.3-2.4,0.9c-0.7-0.3-1-1.6-1.4-2.3c-0.5-0.8-1.4-1.6-1.9-2.4
				c-0.4-0.7-0.6-1.3-1-2c-3.3-4.8-7.8-8.8-9.8-14.1c-0.2-0.6-0.6-1.1-0.8-1.5c-0.2-0.5,0-1.1-0.1-1.4c0-0.1-0.4-0.6-0.4-0.7
				c0.2-0.5-0.1-1.4,0-1.7c0-0.4,0.1-0.4,0.2-0.6c2.6,0.1,5.9-0.2,7.4-1.7c0.3-0.3,0.3-0.8,0.6-1.1c0.2-0.2,0.6-0.3,0.7-0.5
				c0.2-0.3,0.1-0.5,0.3-0.8c0.8-1.4,1-1.8,0.3-3.6c-0.1-0.3,0-0.8-0.3-1.3c-1.1-1.9-4.5-2.5-6.7-1v0.2c-0.6,0.5-0.9,0.9-1.3,1.5
				c-1,1.4-2.6,3.8-2.9,6.1c-1.2-0.4-2.2-0.6-3.2-1.2c-0.4-0.3-0.8-0.8-1.2-1c-0.4-0.3-1.2-0.5-1.5-0.9c-0.6-0.8-0.7-1.7-1.1-2.7
				c-0.1-0.3-0.6-0.6-0.7-0.9c0-0.3-0.1-0.6-0.1-0.9c-0.1-0.2-0.4-0.5-0.5-0.7c-0.3-0.6-0.4-1.5-0.6-2.1c-0.5-1.6-0.7-3.8-0.8-5
				c-0.1-0.7,0.3-1.4,0-1.7c0.2-0.1,0,0,0.2,0c-0.2-2.1,0.2-4.2,0.7-5.9c0.1-0.3-0.2-0.6,0-1l0.3-0.3c0-0.1-0.1-0.3-0.1-0.4
				c0.4-1.2,1.2-2,1.2-3.3h0.3c0.1-0.6,1.3-2.6,1.7-3.2c0.2-0.2,0.6-0.2,0.8-0.5c0.9-1.3,1.8-2,3.4-3c0.6-0.3,1.2-0.2,1.9-0.4
				c0.8-0.3,1.7-1,2.6-1.3c1.7-0.7,5.4,0,6.4,1c0.6,0,0.7-0.2,1.2-0.3c0.1-0.4,0.1-0.7,0.1-1c-0.8-0.8-1.8-1.4-2.7-2.1
				c-0.3-0.2-0.4-0.7-0.6-0.9c-0.3-0.3-0.8-0.5-1-0.8c-0.2-0.3-0.3-0.6-0.5-0.9c-0.5-0.7-1.5-1.2-2-2c-0.4-0.6-0.5-1.3-0.9-1.9
				c-0.4-0.6-0.8-1-1.2-1.6c-0.3-0.5-1-0.7-1.3-1.1c-0.9-1.1-1.8-2.2-2.7-3.4c-0.4-0.5-1.1-0.7-1.4-1.2c-0.1-0.2-0.1-0.5-0.2-0.7
				c-0.7-1.1-1.9-2-2.7-3.1c-0.6-0.9-1.4-2.6-2.3-3.2c0.2-0.7,1.7-1.7,2.2-2.7c0.2,0,0.3-0.1,0.5-0.1c0.2-0.9,1.4-1.5,2-2.1
				c0.3-0.3,0.3-0.6,0.5-0.9c0.2-0.2,0.5-0.2,0.7-0.4c0.5-0.5,0.9-1.3,1.4-1.7c0.4-0.4,1-0.5,1.3-0.9c0.6-0.6,0.9-1.5,1.7-1.7v-0.3
				c0.7-0.2,1.1-1.1,1.5-1.5c0.7-0.7,1.3-1.5,2-2.3c0.2-0.2,0.9-0.7,1.2-1.1c0.6-0.8,1.3-1.8,2.4-2.1c0.4-0.2,2.1,1.2,2.5,1.5
				c0.8,0.7,1.6,1.3,2.5,2c0.1,0.1,0.1,0.4,0.2,0.5c0.4,0.5,1,0.8,1.5,1.2c0.3,0.3,0.6,0.7,0.9,1c0.5,0.4,1.1,0.6,1.5,1
				c0.2,0,0.3,0,0.4-0.1c0.3-0.1,0.4-0.2,0.6-0.3c0-1.6-0.7-1.9-1.1-3.1c-1.2-3-2.8-5.5-4.6-7.9c0.2-0.6,1.3-1.2,1.7-1.5v-0.3
				c0.9-0.2,1.9-1.9,2.7-2.5c0.8-0.6,1.6-1.3,2.4-1.9c0.4-0.2,0.8-0.2,1.1-0.5c0.7-0.6,1.2-1.4,2-2c0.5-0.4,0.9-0.5,1.2-1h0.3
				c0.1-0.5,1.1-0.7,1.4-1.2c1.1,0.4,1.6,1.8,2.2,2.8c0.8,1.3,1.8,2.6,2.7,3.9c0.1,0.2,0.1,0.5,0.2,0.7c0.1,0.1,0.4,0.3,0.5,0.4v0.4
				c0.1,0.1,0.3,0.1,0.4,0.2c0.2,0.2,0.1,0.5,0.3,0.7c0.1,0,0.2,0.1,0.3,0.1c0.7,1,1.1,1.9,1.9,2.9c0.3,0.2,0.6,0.5,0.9,0.7
				c0.2,0.2,0.1,0.4,0.3,0.6c0.1,0,0.2,0.1,0.3,0.1v0.4c0.6,1,1.8,1.9,2.5,2.9c0.4,0.6,0.6,1.3,1,1.9c0.7,1,1.6,1.9,2.3,2.9
				c0.6,0.9,0.9,2,1.4,3c1.1,1.8,2.3,3.7,3.6,5.3c0.5,0,0.7,0.1,1-0.1c0.5-0.4,0.2-0.6,0.5-1c0.2-0.3,0.6-0.5,0.8-0.7
				c0.4-0.6,0.6-1.2,1-1.9c0.3-0.4,0.8-0.8,1.1-1.2c1.3-1.9,2.4-3.7,3.8-5.4c0.2-0.3,0.7-0.4,0.9-0.7c0.6-0.8,1-1.6,1.6-2.3
				c1.1-1.1,2.3-2,3.3-3.2c0.4-0.4,1.1-0.6,1-1.1c0.1,0,0.2,0.1,0.3,0.1c0.6-1.3,1.5-1.5,2.6-2.3c0.3-0.2,0.4-0.7,0.7-0.9
				c0.5-0.4,1-0.6,1.5-1c0.2-0.1,0.2-0.5,0.4-0.6c0.6-0.5,1.3-0.6,1.9-1c0.4-0.3,0.9-0.8,1.4-1.1c0.3-0.2,0.7-0.2,1-0.4
				c0.1-0.1,0.1-0.3,0.2-0.4c0.9-0.5,2-0.6,2.9-1.1c1.1-0.6,2.3-1.4,3.5-1.9c1-0.4,1.8-0.1,3-0.4c1.6-0.4,3.1-0.4,4.2-0.6
				c0.7-0.1,1.4,0.1,1.9,0.2c0.3,0,0.5-0.1,0.8-0.1c1.1,0.3,2.5,0.7,3.5,0.9c0.1,0,0.3-0.1,0.4-0.1c0.6,0.2,1.5,0.5,2.1,0.6
				c0.1,0,0.4-0.2,0.7-0.1c0.4,0.1,0.9,0.4,1.2,0.5c2.5,0.6,5.9,0.1,8-0.9c0.5-0.3,1.2-0.1,1.6-0.4c0.3-0.2,0.5-0.6,0.7-0.8
				c1.1-0.8,2.2-1.3,3-2.4c0.3-0.4,0.3-1,0.6-1.3c0-2.2-1.1-2.6-2-3.9c-1-0.1-2.4-0.6-3.6-0.2c-0.8,0.2-1.2,1-2,1.2
				c-0.3,1.6,0.3,1.5,0.3,3c-1,0-2.2,0.4-2.9-0.2c-1.4-0.7-1-4.6,0-5.6c0.4-0.3,0.5-0.9,0.9-1.2c0.4-0.3,0.9-0.5,1.3-0.8
				c0-0.1,0.1-0.2,0.1-0.3c0.9-0.6,4.1-1,5-0.8c1.2,0.2,2.3,0.5,3.3,0.9c0.4,0.2,1,0.7,1.4,0.5c0.1,0.1,0.1,0.1,0.1,0.3
				c1,0.1,1.3,0.8,2,1.2c1.9,1.1,3,2.6,3.3,5.3c0,0.2-0.2,1-0.2,1.2c0,0.3,0.1,0.6,0,1c-0.3,0.9-0.5,2.2-1,3.1
				c-0.5,0.8-1.3,1.6-1.7,2.4v0.4c-0.1,0.1-0.3,0.2-0.4,0.3v0.4c-0.1,0.2-0.6,0.2-0.7,0.4c-0.4,0.5-0.9,0.9-1.2,1.3
				c-0.1,0.2-0.1,0.4-0.2,0.5c-0.4,0.4-0.9,0.7-1.3,1.1c-0.4,0.4-0.5,1-0.8,1.3c-4.8,4.6-9.5,9.5-12.8,15.5v0.5
				c-0.3,0.7-0.7,1.6-0.9,2.4c-0.4,1.4-0.3,3-0.6,4.4c0,0.6,0.1,1.2,0.1,1.7c-0.4,2.2,0,5.8,0.5,8.1c0.1,0.4,0,1,0.1,1.6
				c0,0.1-0.1,0.7,0.1,1.2c0.3,0.6,0.8,1.5,1,2.2l0.3,1.9c0.8,1.8,1.4,3.9,2.3,5.7c-0.2,0.6,1,2.9,1.3,3.5c0.7,1.4,1,3.1,1.9,4.3
				c0.6,0.9,1.3,1.8,2,2.7c0.6,0.8,0.9,1.6,2,2.1c-0.2,0.2-0.5,0.3-0.7,0.4v0.3c1.5-0.6,2.1,0.6,3.1,0.4c1.3-0.3,2.7-0.9,3.8-1.3
				c1-0.4,1.9-0.4,2.9-0.8c0.5-0.2,1-0.6,1.5-0.7c0.6,0,1.2,0.1,1.9,0.1c0.4-0.1,1.3-0.3,1.9-0.4c0.5-0.1,0.9,0.1,1.2,0
				c1.3-0.3,5.5-3.1,6.2-4.1c0.2-0.3,0.2-0.9,0.5-1.1c0.4-0.4,1-0.4,1.5-0.6c1.1-0.6,2.3-1.4,3.4-2c0.8-0.4,1.6-0.5,2.3-1
				c0.3,0,0.4,0,0.5,0.1c0.2,0.3,0.1,0.6,0.2,1c0.3,1,0.7,2.2,1,3.2c0,0.3,0.1,0.6,0.1,0.9c1.3,3.7,2,7.2,3.3,10.9
				c0.3,0.9,0.2,1.6,0.5,2.5c0.2,0.7,0.7,1.4,0.9,2.2c0.3,0.8,0.1,1.5,0.8,1.9c0,0-0.2,0.8-0.2,0.8c0.1,0,0.2,0.1,0.3,0.1v0.1
				c0.1,0.4,0.1,1.4,0.1,1.5c0.1,0.2,0.3-0.1,0.3,0.3c0,0.2-0.1,0.1-0.1,0.2c0.2,0.3,0,0.1,0.3,0.2c0.2,0.9,1.2,5.3,1.7,6
				c0.2,0.1,0,0,0.3,0l-0.1,0.1c0,0,0,0.4-0.1,0.2l-0.1-0.1c0.1,0.7,0.4,0.3,0.8,0.8c0,0.1-0.1,0.1-0.1,0.2c0.2,0.5,0.8,0.9,1,1.3
				c0.2,0.3,0.1,0.6,0.2,1c0.4,1.1,1.1,2.3,1.5,3.3v0.5c0.5,1.2,1.6,2.1,1.6,3.8l0.1-0.1c0.3,0.2,0.1,0.6,0.3,0.9
				c0.6,0.9,1.3,2.2,1.9,3.2c0.4,0.7,0.5,1.5,1,2v0.4c-0.3,0-0.4-0.1-0.7,0.1h-0.1v0.1c0.3,0,0.5,0,0.6-0.1c0.7,0.1,0.6,0.6,0.8,1.1
				c0.5,0.8,1.4,1.8,1.4,3C507.7,295.8,507.6,295.7,507.1,295.6z M354.4,274.7c0.1-0.1,0.5-0.1,0.6-0.2c0,0,0.3-1.1,0.5-1.3
				c0.5-0.8,1.4-1.1,2.1-1.7c0.7,0,1.3,0.1,2,0.1c0.5,0.5,1,0.8,1.2,1.5v0.5c0.1,0.2,0.3,0.4,0.3,0.7h-0.2c0,0.2,0.1,0.3,0.1,0.5
				h-0.2c0,0.3-0.1,0.5-0.1,0.8c-0.2,0.3-0.6,0.5-0.8,0.8c-0.2,0.4-0.5,1.1-0.8,1.3c-0.5,0.3-1.1,0.3-1.6,0.6
				c-0.8,0.4-3.3,1-4.2,0.5H353c0.2-0.5,0.4-0.9,0.6-1.4c0-0.3,0.1-0.7,0.1-1c0.1-0.4,0.7-1,0.8-1.3
				C354.5,275,354.4,274.8,354.4,274.7z M422.1,224c1.5,0,2.7-0.4,3-1.5c0.1-0.2,0.1-1,0.1-1.4c-1.1-0.8-1.1-1.4-2.8-1.7
				c-0.7,0.7-2.2,2.8-1.2,3.9C421.3,223.6,421.8,223.7,422.1,224z M415,225.1c1.2,0,2.4-0.6,2.7-1.4h0.3c0.1-0.4,0.3-0.5,0.4-0.8
				c0.2-1.1-0.9-3.3-2.5-2.9c-0.9,0.2-1.5,0.8-2.1,1.3c0,0.7-0.4,1.5-0.1,2C413.7,224.6,414.3,224.5,415,225.1z M405.7,226
				c2.5,0.3,2.4-0.4,3.8-1.5c0-0.8-0.1-1.3-0.2-2c-0.8-0.4-1.2-0.9-2.5-0.9l-0.9,0.3c-1,0.5-1.2,1.2-1.5,2.4
				c0.3,0.3,0.4,0.8,0.6,1.1C405.2,225.6,405.5,225.7,405.7,226z M404,238.4c0.4,1.5,0.6,3.2,0.3,4.6c-0.2,0.9,0.3,1.8,0.2,2.5
				c-0.3,1.7-0.4,4.1-0.2,5.2c0,1-0.1,1.9-0.1,2.9c0,0.1,0.2,0.8,0.2,0.9c-0.1,2.6-0.3,5,0.1,7v3c0,0.1-0.4,0.4-0.4,0.5
				c0.1,0.5,0.1,1,0.2,1.4c0,0.2,0.1,1.2,0.1,1.5c0,1-0.4,1.9,0.2,3c-0.1,0.3-0.5,1.4-0.2,1.9c0.1,0.3,0.3,0.3,0.5,0.5
				c0.6,0,0.6-0.2,0.9-0.3c0.6-0.2,1.2,0.1,1.6,0.2c1.1,0.3,3.1,0,4.3,0.1c1.7,0.2,2.9-0.3,4.4,0c1.5,0.3,4.2-0.1,5.1,0.1
				c0.9,0.2,2.3,0,3.3,0.2c1.7,0.5,3.4,0.8,5.3,0.4c0.3-0.1,0.8,0.1,1,0.1c1.3,0.3,2.5,0,3.1-0.1c0.8-0.2,2.1,0.3,2.7-0.1
				c0.7-0.1,0.6-0.4,0.9-0.8c0-0.6-0.3-0.9-0.4-1.3c-0.2-0.7,0-1.9-0.1-2.5L437,269c0-4.2-0.3-9.6-1.3-13.3v-1.9
				c-0.2-0.9-0.3-1.9-0.5-2.9v-1.9c-0.3-1.1,0-3,0-4.3c0-1.4,0-4.2-0.2-5.2c-0.1-0.4,0-1.1,0.1-1.3v-1.7c0.2-0.8,0.1-1.5,0.3-2.5
				c0.1-0.5-0.1-1.1-0.2-1.4v-1.9c-0.2-0.8-0.3-1.8-0.6-2.7c0-0.1,0-1.1,0-1.1c-0.2-0.3-0.6-0.5-0.8-0.8h-0.5
				c-1.1,0.7-5.3,0.5-7,0.9c-0.3,0.1-0.6-0.2-0.8-0.1c-1.6,0.3-3.2,0.8-4.6,1.2c-0.8,0.2-2.1,0.3-2.8,0.2c-0.8,0.4-2.2,0.5-3.1,0.7
				c-1.3,0.1-2.6,0.1-3.9,0.2c-0.2,0-0.6,0.3-0.7,0.3c-0.5,0.1-1.8-0.1-2.7,0.2c-1.2,0.4-2.4,0.9-3.5,1.5c-0.1,1.3,0,2.8,0,4.1
				C404,236.2,403.7,237.5,404,238.4z M429.8,230.9c-0.1-0.4,0.4-1.2,0.2-1.5c0-0.5,0-0.8,0.2-1.1c0.4,0,1,0.1,1.2-0.1
				c0.8,0,1.1,0.1,1.5,0.3c0,0.8,0.3,1.5,0.4,2.2c0.2,1.8,0.1,3.6,0.1,5.7c-1,0-2.6,0-3.3,0.4C429.3,235.4,429.9,232.1,429.8,230.9z
				 M419.3,233.5c0.1-0.3,0.3-1.1,0.3-1.3c0.1-0.6-0.3-1.1,0.1-1.6v-0.6c1-0.2,2.2-0.1,2.9-0.6h0.3c0.1,0.1,0.1,0.1,0.2,0.2
				c0,0.9-0.2,1.4-0.1,2.2c0.1,0.5,0.3,1.8,0.1,2.5c-0.1,0.5-0.2,0.6-0.1,1.1c0.2,0.8-0.2,1.6,0.3,2c0,0.1-0.1,0.1-0.1,0.2
				c-0.6,0-1.4,0-1.7,0.2h-1.2c-0.3-0.2-0.2-0.8-0.3-1.1C419.8,236.1,419.2,234,419.3,233.5z M410.7,231c0.8,0,1.5-0.1,2.3-0.1
				c0.1,0.4,0.2,0.5,0.3,0.7c0.1,0.5-0.1,2.1-0.2,2.4c0,0.1-0.2,2.7-0.1,3c0.1,0.3,0.3,0.6,0.4,0.9c0.1,0.1,0,0.2,0,0.4
				c-0.6,0.1-1.8,0.1-2.3,0.4h-0.5C411.1,236.8,410.7,233.1,410.7,231z M406,246.6c0-0.8-0.1-1.6-0.1-2.4c0-0.5,0.1-0.8,0-1.1
				c0-0.5-0.1-1.5,0.1-1.9c0.2-0.1,0.6,0,0.9-0.1c1.2-0.3,2.7-0.6,3.9-0.9h1.2c4.7-1.6,11.3-0.8,15.9-1.7c1.5-0.3,3.9,0.3,5.1-0.5
				c0.1,0,0.1,0.1,0.2,0.1c0,4.4,0.3,7.2-0.1,10.4c0,0.4,0.3,1.1,0.3,1.4c0.1,0.5-0.1,1.2-0.1,1.6c0,0.4,0.4,1.4,0.5,1.7v2.4
				c0.3,1.7,0.7,3.7,0.9,5.3c0,0.3-0.2,0.7-0.1,1.1c0.6,2.4,0.2,4,0.8,6.5c0.2,0.7-0.6,2.4-0.2,3.5c-1.2,0.2-3.6,0.2-5,0.2
				c-0.7,0-2.1,0.5-3.1,0.2c-1.6-0.4-3.6-0.5-5.6-0.8c-1.2-0.2-3,0.2-4,0.1c-1.5-0.2-3.9,0.1-5.2-0.2c-0.4,0-0.8,0.1-1.2,0.1
				c-1.5-0.3-3.3-0.2-4.9-0.4c-0.1-0.6-0.2-1.7-0.3-2.2c-0.1-0.3,0.1-0.9,0.1-1c-0.3-2-0.3-4.3,0-6.1c0.2-0.9-0.4-1.7-0.2-2.6
				c0.2-1.3,0.1-3.9-0.1-4.9c0-0.2,0.2-0.6,0.1-0.9c-0.3-1.3-0.1-3-0.1-4.1C405.8,248.8,405.9,247.3,406,246.6z M468.2,245.7
				c0.6,0.1,1.6-0.3,2.1-0.4c0.6-0.2,1.6,0,2.1-0.3c1.8-1,3.5-3.5,3-5.7c-0.1-0.4,0.1-1.1,0-1.2c-0.1-0.1-0.3-0.1-0.4-0.2
				c-0.2-0.6-0.1-1.1-0.4-1.5c-0.2-0.3-0.7-0.5-1-0.7c-0.3-0.3-0.6-0.7-1-0.9c-1.2-0.5-2.8,0.1-3.9-0.1c-0.9,0.6-2,0.3-2.8,1.1
				c-0.6,0.6-0.7,1.5-1,2.4c-1.1,3-0.1,4.5,1.5,6.3C466.8,244.9,467.3,245.5,468.2,245.7z M411.5,260.1c0.3,0.3,0.8,0.6,1,1l0.3,0.9
				c0.3,0.6,1.2,1.5,1.9,1.7c0.3,0,0.7,0.1,1,0.1c0.8,0.3,1.9,0.8,2.9,0.6c4.6-0.7,7.8-5.2,7-10c-0.2-1,0.2-2.4-0.3-3.5
				c-1.2-2.7-3.9-4.4-7.6-4.3c-0.6,0.3-1.4,0.1-2.1,0.3c-0.4,0.1-0.8,0.6-1.1,0.8c-1.7,1.1-2.9,2-3.8,3.9c-0.7,1.3-0.8,3.5-0.3,5.1
				C410.5,257.6,410.7,259.2,411.5,260.1z M411.9,252.8c0.5-1.4,1.5-2.8,2.7-3.7c0.6-0.4,1.4-0.5,2-0.9c0.8,0.3,1.5-0.1,2.5,0.1
				c1.7,0.4,3.2,1.3,4.1,2.6c0.7,1.1,0.5,1.8,0.8,3.1c0.1,0.4-0.1,0.9-0.1,1.2c0.6,3.7-1.9,6.7-5.4,7.6c-0.6,0.2-2.6-0.2-3.1-0.5
				c-0.6-0.4-0.8-1.1-1.2-1.6c-0.4-0.6-1.1-1.1-1.4-1.7C411.9,257.7,411.3,254.2,411.9,252.8z M394.1,261.1c1.2,0.8,4.2-0.7,4.6-1.2
				c0.4-0.5,0.9-1.1,1.1-1.7c0.5-1.2,0.4-4.3-0.4-5.2c-1-1.1-3-1.5-5-1.5c-1.9,1.9-3.8,4.8-2.1,7.9
				C392.8,260.1,393.1,260.9,394.1,261.1z M393.2,255.6V255c0.1-0.2,0.5-0.2,0.6-0.3c0.5-0.5,0.9-1.3,1.3-1.9
				c0.5,0.1,1.6,0.3,2.1,0.5c0.5,0.3,0.8,1.1,1.1,1.2c-0.1,0.7,0.5,1.3,0.2,2.3c-0.1,0.3-1,1.9-1.2,2.1c-0.6,0.4-2.2,1.1-2.9,0.4
				C393.6,259,392.8,256.2,393.2,255.6z M419.7,259.3c1.5-0.5,2.3-3.5,1.4-5.2c-0.5-1-2-2-3.2-2.4c-0.4-0.1-1,0-1.2-0.1
				c-0.4,0.4-1,0.5-1.3,0.9c-1,1.4-0.8,3.2-0.6,4.8C414.9,258.5,418.2,260.4,419.7,259.3z M394.7,257.9c0.6,0.2,0.8,0.3,1.5,0.2
				c0.6-0.6,1.4-1,1.6-2h0.1c0-0.2,0-0.1-0.1-0.2c-0.1-1-1.4-1.9-2.5-1.9c-0.4,0.4-1.7,2-1.1,2.9
				C394.4,257.5,394.5,257.6,394.7,257.9z M448.2,286.9c-0.4,0.2-0.6,1.3-1,1.5c-0.2,0.2-0.6,0.1-0.8,0.2c-1,0.7-1.9,2.2-2.8,3.1
				c-0.2,0.2-0.5,0.3-0.8,0.5c-0.6,0.4-1,1.2-1.5,1.6c-0.4,0.3-0.9,0.4-1.2,0.7c-0.2,0.2-0.2,0.5-0.4,0.6c-0.5,0.5-1.1,0.9-1.5,1.4
				c-0.2,0.3-0.4,0.8-0.7,1c-0.2,0.2-0.7,0.2-0.9,0.4c-0.2,0.2-0.3,0.6-0.6,0.8c-0.9,0.7-1.7,1.4-2.6,2.1c-0.3,0.4-0.6,0.8-0.9,1.1
				c-0.6,0.5-1,1.1-1.5,1.5c-0.2,0.1-0.4,0.1-0.5,0.3c-0.2,0.2-0.3,0.7-0.6,0.8h-0.7c-0.3,0.1-0.7,0.4-0.9,0.5c-1.4,0.4-3-1-3.6-1.4
				c-0.4-0.3-0.8-0.4-1.2-0.6c-0.9-0.5-1.6-1.3-2.5-2c-0.8-0.6-1.4-1.7-2.4-2.3c-0.2,0-0.3-0.1-0.5-0.1c-0.4-0.4-0.8-0.8-1.1-1.2
				c-0.8-0.6-1.4-1.1-2.2-1.7c-0.2-0.2-0.3-0.5-0.5-0.7c-0.2-0.2-0.5-0.1-0.7-0.3c-0.8-0.8-1.5-1.6-2.5-2.3
				c-0.2-0.1-0.2-0.5-0.4-0.6c-0.9-0.7-1.9-1.3-2.8-2c-0.3-0.4-0.6-0.8-0.9-1.1c-1-0.8-1.8-1.7-2.8-2.6c-0.4-0.3-0.9-0.5-1.2-0.8
				c0-0.1-0.1-0.2-0.1-0.3c-0.9-0.9-2-1.6-3.1-2.4c-0.4-0.5-0.9-1-1.3-1.4c-0.8-0.8-1.7-1.6-2.6-2.4c-1.2-1.2-2.9-1.9-4.1-3.1
				c-0.1-0.1,0-0.1-0.1-0.3c-0.4-0.3-1.4-0.8-2.1-1.2c-0.8-0.6-2-2.2-2.8-3c-1.9-1.9-4-3.7-6.2-5.4c-1.2-1-3.3-3.8-5.1-3.9
				c-0.3,0.4-0.7,0.8-0.9,1.2c-0.1,0.3-0.1,0.6-0.2,0.8c-0.1,0.1-0.2,0.1-0.3,0.2c0,0.1,0.1,0.3,0,0.5c-0.2,0.7-0.7,1.5-0.9,2.2
				c0,0.2-0.1,0.5-0.1,0.7c-0.1,0.3-0.5,0.7-0.6,1c0,0.1,0.1,0.4,0,0.7c-0.3,0.7-0.6,1.9-0.8,2.5c0,0.2,0.1,0.3,0.1,0.5
				c-0.1,0.1-0.2,0.1-0.3,0.2v0.6c-0.1,0.3-0.4,0.9-0.5,1.2c0,0.1,0.1,0.3,0.1,0.4c0,0-0.3,0.6-0.4,0.8c0,0.1,0.1,0.3,0.1,0.4
				c-0.1,0.2-0.5,0.3-0.5,0.4c-0.1,0.3,0.1,0.3-0.1,0.6c0,1.7,1.3,2.4,2.2,3.4c1.8,2.1,4.3,4.3,6.8,6c0.7,0.5,1.3,1.3,2,1.9
				c0.3,0.3,0.9,0.4,1.2,0.6c0.4,0.3,0.6,0.9,1,1.2c0.3,0.1,0.5,0.2,0.8,0.3c0.2,0.2,0.3,0.7,0.6,0.8c6.6,3.9,13.1,8.6,19.1,12.7
				c0.5,0.3,0.9,0.9,1.4,1.1c0.2,0,0.3,0.1,0.5,0.1c0.2,0.2,0.4,0.6,0.6,0.7c0.2,0,0.4,0.1,0.6,0.1c0.7,0.4,1.3,1.1,2,1.5
				c0.4,0.3,0.9,0.3,1.3,0.6c0.1,0.2,0.3,0.3,0.4,0.5c0.3,0.2,0.6,0.1,0.8,0.3v0.4c0.2,0.2,0.4-0.1,0.6,0c0.7,0.3,1.1,1.1,2,1.2
				c-0.1,0.2,0,0.1-0.1,0.2c0.9,0.7,2,1.1,3,1.7c0.4,0.2,0.9,0.7,1.2,1c0,0.1,0.1,0.2,0.1,0.3h0.4v0.2c0.3,0.3,0.7,0.4,1,0.6
				c0,0.1,0.1,0.2,0.1,0.3c0.2,0.2,0.6,0.2,0.8,0.4c0.7,0.5,1.2,1.3,1.9,1.7c0.1,0,0.3,0.1,0.4,0.1c0.4,0.4,0.7,1.1,1.1,1.4
				c0.3,0.2,0.6,0,1,0.2c0.2,0.1,0.7,0.4,0.9,0.6c0.4,0.3,1.3,1.5,1.9,1.6c0.9,0.2,1.5-1,1.9-1.4c0.3-0.4,0.9-0.7,1.2-1.1
				c1.1-1.6,2-3.3,3.1-4.9c0.7-1,1.6-2.1,2.2-3.1c0.2-0.3,0.1-0.5,0.2-0.8c0.2-0.4,0.7-0.9,0.9-1.2c0.7-1,1-2.1,1.6-3.1
				c0.5-0.7,1.2-1.5,1.6-2.3c0.6-0.9,0.9-1.9,1.4-2.9c0.6-1,1.6-2,2.2-3.1c1.6-2.9,3.1-5.9,5.2-8.2c0.3-0.4,0.4-1.1,0.7-1.4
				c-0.1-0.5-0.3-0.7-0.5-1.1C448.9,286.7,448.4,286.7,448.2,286.9z M379.8,273c-0.1,0.4-0.3,1.4-0.3,1.4c-0.1,0.6-0.6,0.9-0.3,1.5
				c-0.5,0.6-0.3,1-0.6,1.9c-0.4,1-0.9,2.2-1.1,3.2c-0.1,0.6-0.8,1.1-0.9,1.6c-0.9-0.2-1.1-0.8-1.7-1.2c0-1.2,0.3-1,0.5-2
				c0-0.2-0.2-0.8-0.1-1c0.1-0.4,0.4-1.5,0.6-2c0.1-0.1,0.2-0.1,0.3-0.2c0.1-0.2-0.2-0.6,0-1c0.1-0.3,0.4-0.7,0.5-1
				c0-0.3-0.1-0.5-0.1-0.8c0.2-0.6,0.7-1.5,0.9-2.1c0.4-0.9,0.3-2.3,0.4-2.9c0.1-0.6,0.7-1.1,0.7-2c0.9,0.4,1.6,1.4,2.4,2
				C380.4,270.1,380.2,271.7,379.8,273z M386.9,279.6c-0.2,0.6-0.2,1.2-0.3,1.6c-0.2,0.8-0.8,1.2-0.6,2c-0.2,0.3-0.5,0.7-0.7,1
				c-0.1,0.2-0.3,1.1-0.5,1.5l-0.7,0.7c0,0.5,0.1,1,0.1,1.4c-0.1,0.2-0.3,0.3-0.3,0.7c-0.7-0.5-1.3-1.1-2-1.5c0-0.7,0.3-0.7,0.4-1.1
				c0-0.1-0.1-0.2-0.1-0.3c0.3-0.7,0.7-1.6,0.9-2.3c0.2-0.5,0-1,0.1-1.3c0.1-0.1,0.2-0.1,0.3-0.2c-0.2-0.5,0-0.4,0.1-0.9v-0.6
				c0.1-0.2,0.4-0.5,0.5-0.6c-0.3-0.5,0.5-1.3,0.6-1.7c0-0.2-0.1-0.3-0.1-0.5c0.4-1.2,1.2-2.4,1.4-3.8h0.4c0.3,0.7,1.2,1,1.5,1.7
				C388.4,276,387.2,278.8,386.9,279.6z M395.3,286.3c-0.2,0.2-0.5,0.3-0.6,0.7c-0.2,0.5,0,1-0.1,1.2c-0.3,0.7-0.7,1.7-0.9,2.5
				c-0.1,0.2,0.1,0.8,0,0.9c-0.4,0.9-1.1,1.9-1,3c-1.2-0.2-1.8-1.3-2.9-1.6c0-1,0.3-1.5,0.5-2.4c0.2-0.6,0-1.3,0.1-1.6
				c0.2-0.6,0.8-1.4,1-2.1c0.2-0.6,0.4-1.3,0.5-1.9c0-0.2-0.1-0.3-0.1-0.5c0,0,0.4-0.3,0.4-0.4c0.1-0.3,0-0.6,0.2-0.8h0.2
				c0-0.1-0.1-0.3-0.1-0.4c0.2-0.5,0.5-0.9,0.6-1.5c0.2-0.7-0.1-1,0.2-1.7c1.1,0.4,1.9,1.7,2.9,2.3c0,1.6-0.6,2.4-1,3.6
				C395.1,285.7,395.4,286.2,395.3,286.3z M404.2,289.5c-0.1,0.1-0.2,0.1-0.3,0.2c-0.2,0.3-0.3,1.7-0.6,2.3c-0.1,0.3-0.5,0.7-0.6,1
				c-0.3,0.6-0.2,1.2-0.4,1.7c-0.1,0.3-0.5,0.7-0.6,1c0,0.1,0.1,0.2,0.1,0.3c-0.1,0.3-0.4,0.8-0.5,1c0,0.1,0.1,0.2,0.1,0.3
				c-0.1,0.4-0.4,0.5-0.4,1.1c-0.2,0-0.2,0-0.3,0.1h-0.2c0.1,0.2,0.2,0.3,0.3,0.4c-0.2,0.1-0.2,0.1-0.4,0.1c0.1,0.3,0.2,0.4,0.3,0.6
				c0,0-0.1,0.1-0.1,0.1c-1-0.2-1.5-1-2.5-1.2c0.1-0.3,0.4-0.5,0.7-0.6c-0.4-1.3,0.6-3,1-4.1v-0.6c0.2-0.6,0.3-1.3,0.4-1.7
				c0-0.2,0.4-0.7,0.5-0.9c0.4-0.8,0.9-2.4,1-3.3c0,0,0.1-0.1,0.1-0.1c0.2,0,0.5,0.1,0.7,0.1v0.3c0.6,0.3,1.3,0.9,1.6,1.4
				C404,289.4,403.9,289.3,404.2,289.5z M410,300.7c-0.1,0.5-0.8,1.2-0.5,1.7c0.1,0.3-0.1,0.2,0.2,0.2c-0.1,0.2-0.4,0.2-0.5,0.4
				c0,0.1,0.1,0.3,0.1,0.4c-0.1,0.3-0.8,1-0.4,1.6c0,0.3,0,0.4-0.1,0.6c-0.4,0-2.1-1-2.6-1.4c-0.1-0.2,0.4-2.1,0.5-2.4
				c0.3-1-0.1-1.9,0.3-2.8c0.7-1.7,1.8-3.7,2.3-5.6h0.3c0.3,0.9,1.5,1.1,1.9,2.1C411.6,296.1,410.4,299.6,410,300.7z M415.8,310.2
				c-0.6-0.1-1.1-0.5-1.6-0.8c0.1-0.8,0.5-1.4,0.8-2.3c-0.3-1,1.4-5.7,2-6.8c0.8,0.2,1.3,0.9,1.9,1.3
				C418.8,304.8,416.8,307.6,415.8,310.2z M424.4,310.9c-0.2,0.6,0,1.6-0.1,2c-0.3,0.9-0.6,2.5-0.7,3.5c-0.6-0.2-1.3-0.9-1.7-1.3
				c-0.1-0.1-0.1-0.1-0.1-0.3c-0.3-0.1-0.3-0.1-0.5-0.2c0.1-0.5,0.5-1.2,0.6-1.7v-1.1c0.2-0.6,0.2-1.1,0.5-1.9h0.2
				c0-0.1-0.2-0.3-0.1-0.5c0.4-1,0.9-2.2,1-3.5c0.8,0.1,1.1,0.6,1.9,0.8C425.3,307.9,424.8,309.5,424.4,310.9z M431.9,313.9h-0.3
				c-0.1,1.2-0.9,1.3-1.1,2.2c-0.2-0.1-0.2-0.2-0.4-0.3c0.2-1.8-0.2-2.7-0.2-3.9c0-0.9,0.1-2.6,0.2-3.6c0.1-0.6-0.5-1.3-0.1-1.9
				c0.2-0.4,0.8-0.6,1.1-0.9c0.5,0.4,0.1,1.2,0.2,1.7c0.1,0.4,0.4,1.5,0.3,1.7c0.1,0.1,0.4,0.4,0.4,0.5c0.1,0.3-0.2,1.2-0.1,1.3
				c0,0.9,0.1,1.3,0.8,1.4C432.6,313.2,432.2,313.2,431.9,313.9z M437.5,304.6c0.2,0.1,0.1,0,0.2,0.1
				C437.5,304.6,437.6,304.7,437.5,304.6z M437.7,304.4h-0.1c0-0.4,0-0.4,0.3-0.6c-0.2-0.3-0.4-0.2-0.6-0.4
				c-0.5-0.7-0.5-2.2-0.8-3.1c0.5-0.2,0.9-0.7,1.2-1c0.8,0.7,0.6,2,1.5,2.6C438.9,302.9,438.4,303.7,437.7,304.4z M498.2,276
				c0.2-0.1,0.1,0,0-0.2V276z M409.6,293.9c-0.1-0.1-0.1-0.1-0.3-0.1C409.4,293.9,409.4,293.9,409.6,293.9z M510.9,298.1v0.1
				c0.2-0.1,0.1-0.1,0.3-0.2v-0.2h-0.4C510.8,298,510.8,298,510.9,298.1z M399.6,298.6c-0.1-0.1-0.1-0.1-0.3-0.1
				C399.4,298.6,399.4,298.6,399.6,298.6z M400,298.6c-0.1,0.1,0,0-0.2,0.1c0,0.1,0.1,0.1,0.1,0.2c0.2,0,0.2,0,0.3-0.1h0.1
				C400.1,298.6,400.3,298.7,400,298.6z M479,301.8c-0.1,0.1-0.1,0.1-0.3,0.1c0.1,0.2,0,0.1,0.1,0.2c0.1,0.1,0.4-0.1,0.7-0.1v-0.2
				c-0.2-0.1-0.3-0.2-0.6-0.2C479,301.8,478.9,301.7,479,301.8z M478.4,301.7c0.1,0.2,0.1,0.1,0.3,0.2
				C478.5,301.7,478.7,301.8,478.4,301.7z M501.3,302.1v-0.2h-0.2C501.1,302.2,501,302,501.3,302.1z M493.1,302.4v0.1h0.4v-0.2h-0.2
				C493.2,302.4,493.3,302.4,493.1,302.4z M421.4,317.1c0.1,0.2,0.1,0.1,0.3,0.2C421.6,317.1,421.8,317.2,421.4,317.1z M407.5,352.2
				v0.3h0.2C407.6,352.2,407.7,352.3,407.5,352.2z"/>
		</g>
	</g>
	<g>
		<g>
			<path class="st0" d="M361.1,274.3c0-0.3-0.2-0.5-0.3-0.7V273c-0.3-0.7-0.8-1.1-1.2-1.5c-0.7,0-1.3-0.1-2-0.1
				c-0.6,0.6-1.6,1-2.1,1.7c-0.2,0.3-0.5,1.3-0.5,1.3c-0.1,0.1-0.5,0.1-0.6,0.2c0,0.1,0.1,0.3,0.1,0.4c-0.2,0.4-0.7,0.9-0.8,1.3
				c0,0.3-0.1,0.7-0.1,1c-0.2,0.5-0.4,1-0.6,1.4h0.2c0.9,0.5,3.5-0.2,4.2-0.5c0.6-0.3,1.1-0.3,1.6-0.6c0.4-0.2,0.6-1,0.8-1.3
				c0.2-0.3,0.7-0.5,0.8-0.8c0-0.3,0.1-0.5,0.1-0.8h0.2c0-0.2-0.1-0.3-0.1-0.5H361.1z"/>
		</g>
	</g>
</g>
<g id="Calque_2">
</g>
</svg>
