<?xml version="1.0" encoding="utf-8"?>
<!-- Generator: Adobe Illustrator 23.0.1, SVG Export Plug-In . SVG Version: 6.00 Build 0)  -->
<svg version="1.1" id="Calque_1" xmlns="http://www.w3.org/2000/svg" xmlns:xlink="http://www.w3.org/1999/xlink" x="0px" y="0px"
	 viewBox="0 0 595.276 841.89" enable-background="new 0 0 595.276 841.89" xml:space="preserve">
<ellipse fill-rule="evenodd" clip-rule="evenodd" fill="#DDDDDD" cx="208" cy="617.111" rx="73.889" ry="23.333"/>
<g>
	<g>
		<path fill-rule="evenodd" clip-rule="evenodd" d="M298.1,542.7c1.33-5.648,1.244-21.12,0-26.8v-23.2
			c-1.305-5.857-0.349-14.313-1.6-19.2c-1.776-6.936-12.194-22.072-18-24.8c-0.411-0.323-0.098-0.148-0.8-0.4
			c-1.521,1.664-1.208,1.975-2.4,4c-3.466,3.2-6.934,6.4-10.4,9.6c-3.501,3.573-6.614,7.519-9.6,11.6
			c-2.558,3.496-6.724,6.301-9.6,9.6c-1.488,1.707-1.932,4.098-3.2,6c-3.207,4.81-6.508,10.099-9.6,15.2
			c-1.038,1.713-1.041,3.75-2,5.6c-5.1,9.835-9.5,21.572-14,32c-1.725,3.998-2.148,9.744-4.4,13.2v0.4h-0.4
			c0.124-7.375,0.524-15.751,2-22.4v-6c1.169-5.185,1.227-11.54,2.4-16.8c1.648-7.39-0.11-15.115,1.6-22.4
			c1.06-4.516,1.012-10.356,2.4-15.2c0.836-2.917,2.663-5.274,2.8-8.8c4.823-0.243,9.297-3.39,12.4-5.6
			c1.815-1.293,3.798-1.891,5.6-3.2c4.616-3.354,10.532-12.714,12.8-18.4c0.533-2.266,1.067-4.534,1.6-6.8
			c0.572-1.261,2.15-2.69,2.8-4c2.827-5.694,3.87-11.801,6.8-17.2c1.253-2.31,3.349-4.845,4.4-7.2c3.437-7.697,7.908-16.709,14-21.6
			v-0.8c-2.963,0.383-2.293,1.89-4,3.2c-1.318,1.011-2.222,0.35-4,1.2c-2.725,1.302-4.081,4.982-6,7.2
			c-1.142,1.32-3.309,1.759-4.4,3.2c-3.486,4.602-9.328,10.643-14,14c-2.906,2.089-7.029,3.143-9.6,5.6h-0.8
			c1.134-3.793,4.567-6.665,6-10.4c2.664-6.947,2.919-17.139,1.2-25.2c-0.725-3.399,0.023-6.44-1.6-8.8
			c0.984-3.845,5.466-7.044,8-9.6c5.021-5.066,8.715-11.172,12.8-17.2c1.351-1.993,3.466-3.453,4-6.4
			c-3.422,0.719-4.658,5.448-6.4,8c-2.099,3.077-5.766,5.423-8,8.4c-1.923,2.562-3.896,6.077-6.4,8c-3.042,2.337-6.7,4.375-8.8,7.6
			h-0.8c1.015-5.893,7.713-14.824,10.4-20c1.95-3.756,2.329-8.367,4.8-11.6v-1.2c-1.253,0.451-1.188,0.841-2,1.6v0.4h-0.4
			c0.533-2,1.067-4,1.6-6h-0.4c-0.411-0.323-0.098-0.148-0.8-0.4c-3.089,7.892-6.848,20.709-11.6,26.8v0.8h-0.4
			c0.232-6.545,2.392-16.827-1.6-21.2c0.335-3.898,3.164-5.736,4.8-8.4c3.673-5.98,7.292-13.149,10-19.6
			c1.316-3.136,2.261-6.518,3.2-9.6c0.769-2.526,0.44-5.904,1.2-7.2c-0.091-0.927-0.079-1.128-0.4-1.6
			c-0.411-0.323-0.098-0.148-0.8-0.4c-1.085,3.062-1.005,6.04-2,9.2c-1.182,3.754-2.862,7.026-4.4,10.8
			c-2.119,5.199-7.998,11.541-9.6,16.8h-0.8c0.583-5.93,2.959-9.655,4.8-14c1.923-4.54,2.82-9.494,4-14.4
			c0.612-2.542,0.804-11.048-0.4-12.4v-0.8h-0.8c-0.062,8.122-2.839,24.503-6.4,28.4v0.8c-1.449-0.97-2.307-7.968-3.2-10
			c-1.53-3.482-4.601-7.404-6-10.8c-0.791-1.921,2.721-14.524,3.2-16.4c2.669-10.442,3.984-26.469,3.2-38.4l-0.4-0.4h-1.2
			c1.558,8.394-1.005,21.839-2.8,29.2c-0.856,3.511-0.227,8.012-2,10.8v0.4h-0.4c0.414-5.809,0.743-11.233,2-16.8
			c0.694-3.072-0.263-6.8,1.2-9.2c-0.159-0.822-0.099-0.771-0.4-1.2c-0.411-0.323-0.098-0.148-0.8-0.4
			c-0.757,2.206-1.505,5.01-2,6.8c-0.832,3.009,0.211,6.103-1.2,8.4v0.8c-2.81-1.636-3.963-10.356-7.2-12.8
			c0.178-3.452,3.046-13.804,2-15.6v-0.8h-0.8c-1.258,2.327-2.392,6.93-2.4,10h-0.8c1.669-8.483,2.328-18.191,0.4-26.8
			c-1.216-5.433-0.075-11.37-2.8-15.2v-0.8h-0.8c0.162,5.885,1.189,12.823,2.4,18.4v6c0.001,5.36,0.374,10.55-0.8,15.2
			c-0.552,2.188-1.464,4.506-1.6,7.2h-0.8c0.57-8.685-0.313-18.231-2.4-25.2c-0.818-2.731-0.466-6.343-2-8.4v-0.4h-0.8
			c0.669,12.563,4.484,23.594,2.8,37.6h-0.4c-2.69-5.608-6.434-10.318-10-15.2c-1.38-1.889-4.047-3.061-4.8-5.6
			c0.133-2.933,0.267-5.867,0.4-8.8c-0.757-5.171-0.112-19.63-2.8-23.6v-0.4h-0.8c0.232,6.663,1.319,12.828,1.2,19.2
			c-0.051,2.741,0.812,8.09-0.4,10v0.8h-1.2c-1.531-11.349-5.292-20.531-8-30.4h-1.2c0.695,4.584,2.732,10.284,4,14.8
			c0.799,2.844,0.302,6.918,1.6,9.2c0.4,0.133,0.8,0.267,1.2,0.4c0.691,1.761-1.226,2.365-0.8,4.4c1.449,6.924,2.437,16.54-1.6,22
			l-0.4,0.4c-0.839-3.792-1.827-9.92-4-12.8v-0.8h-0.8c0.076,2.567,2.63,15.002,3.6,16.4v2.8h-0.4c-2.163-4.394-5.57-8.494-6.8-13.6
			h-1.2c1.1,6.482,5.516,11.759,6.8,18c0.402,1.952-1.435,2.393-0.8,4.8c0.318,1.204,1.59,2.543,2,3.6
			c1.573,4.052,1.358,10.149,0.4,14.8c-0.779,3.782,1.016,9.153-0.8,12l-0.4,0.4c-0.542-2.619-0.985-6.759-2.4-8.8v-0.4h-0.8
			c-0.354,2.385,0.587,3.662,1.2,5.6c0.845,2.674,0.112,4.605,0.8,7.2c1.101,4.155,2.388,8.531,2.4,13.6
			c-0.956-1.443-0.626-3.835-1.2-5.6c-1.773-5.456-4.204-16.616-7.6-20.4v-0.8h-0.8c0.471,8.205,4.524,15.273,6.4,22.8
			c1.01,4.054-0.352,8.32,1.6,11.2v0.4c0.783,0.177,0.515-0.174,0.8-0.4h0.8c-1.633,8.85-3.138,26.775,2.4,31.6v0.8l-0.4-0.4
			c-3.513-1.619-3.407-6.163-4.8-10c-1.866-5.141-4.177-10.982-6-16c-1.218-3.352-1.295-6.588-3.2-9.2v-0.4
			c-1.522,1.207,0.487,6.528,1.2,8.4c1.65,4.337,3.49,9.129,4.8,13.6c0.267,1.866,0.533,3.733,0.8,5.6
			c0.511,1.512,2.324,4.139,1.2,6v0.8h-0.8c-1.612-6.595-4.91-15.665-8-21.2c-2.205-3.949-5.983-8.49-7.2-13.2h-1.2
			c1.01,5.996,6.823,14.417,9.2,20c2.669,6.268,3.266,13.378,6,20c0.873,2.115-0.571,6.214,0,9.2c1.31,6.848,0.934,18.343,4.8,24
			v0.4h-0.8c-1.289-3.809-4.39-7.187-6-10.8c-2.892-6.49-4.735-13.062-7.2-19.6h-1.6c1.039,2.447,2.507,5.556,3.2,8v4
			c1.057,3.843,3.612,8.461,5.2,12c0.762,1.699,0.256,3.494,1.2,4.8v1.6h-0.4c-2.72-9.816-6.815-19.267-10.8-28.4
			c-1.519-3.481-4.3-7.242-4.8-11.6h-1.2c1.203,5.793,3.366,8.428,5.2,12.8v2.4c0.451,1.452,2.639,6.721,3.6,8v0.8h-0.8
			c-1.453-3.903-2.804-7.21-4.4-10.8h-1.2c3.466,8.005,6.487,16.818,9.2,25.6v3.2c0.847,3.083,1.981,7.207,2.8,10.4
			c0.133,1.6,0.267,3.2,0.4,4.8c0.34,0.758,1.712,1.909,2,2.8c0.997,3.083-0.785,5.735-0.8,8.8c-0.032,6.469,0.628,11.661,2.4,16.8
			c1.346,3.902,11.558,16.161,14.8,18.4c2.834,1.957,9.061,5.383,10.4,8.4c2.878,6.483-0.77,23.64-0.8,32
			c-0.033,9.141-0.341,24.119-2.4,32.4c-0.287,1.154,0.336,2.188,0.4,2.8c0.122,1.173-0.416,8.373-0.8,10
			c-1.216,5.15-0.235,11.897-1.6,17.6c-0.52,2.171-1.448,5.389-2,7.6c-0.133,2.4-0.267,4.8-0.4,7.2
			c-2.843,10.432-3.32,21.389-6,31.2c-1.237,4.527-0.076,15.079-2.8,17.6c-0.064,3.503,0.774,3.237,2.4,4.8h1.2
			c1.3-26.787,9.357-56.029,11.2-83.2c0.435,0.688,0,12.4,0,12.4c-0.195,1.215-1.391,3.981-0.8,5.6
			c1.791,4.905,0.882,19.854,0.4,26.4c0.267,4,0.533,8,0.8,12c-0.699,3.168-0.603,9.565,0,11.6c1.112,3.755,0.688,10.47,1.2,12.8
			c0.355,1.615,0.537,3.886,0,4.8v2.8c0.893-0.254,1.057-0.295,1.6-0.8c0.203-0.218-0.006-11.562,0-11.6
			c0.226-1.539-0.101-2.683-0.4-3.2v-3.6h0.8c-0.067,5.388-0.509,15.545,0.8,17.6c0.411,0.323,0.098,0.148,0.8,0.4
			c0.652-0.64,1.326-0.95,2.4-1.2c-0.525-3.409-1.237-7.543-1.2-12.4c0.133-2.533,0.267-5.067,0.4-7.6
			c-2.542-11.406-2.265-29.132,0.8-39.6c2.131-7.278,7.493-14.005,11.2-20c2.205-3.565,3.29-7.327,5.6-10.8
			c4.295-6.456,9.455-12.678,14-18.8c6.503-8.76,13.205-16.782,20.8-24.4c1.67-1.676,2.382-3.825,4.4-5.2
			c0.133-0.133,0.267-0.267,0.4-0.4c1.312,1.948,3.378,3.766,4.4,6c9.079,19.848,8.556,50.121,13.2,72v8
			c0.206,6.345,0.198,12.615-1.2,18.4c-0.732,3.027,0.953,6.149-0.8,8.8c0.08,1.039,0.177,1.359,0.4,2h2
			c0.703-2.792,1.667-4.953,1.6-8.8c0.133-0.133,0.267-0.267,0.4-0.4h1.6c-0.006-8.377,0.747-14.698,2.4-22
			c0.133-3.6,0.267-7.2,0.4-10.8c1.038-4.379,0.801-8.864,0.8-15.6V542.7z M252.1,340.3l0.4-0.4c0.323,0.411,0.148,0.098,0.4,0.8
			C252.9,340.7,251.331,340.61,252.1,340.3z M179.3,386.3h-0.4c-0.228-0.642-0.336-0.955-0.4-2c0.267,0.133,0.533,0.267,0.8,0.4
			V386.3z M182.5,397.9h-0.4c-0.267-1.2-0.533-2.4-0.8-3.6c0.267,0.133,0.533,0.267,0.8,0.4c0.091,0.927,0.079,1.128,0.4,1.6V397.9z
			 M184.5,403.9h-0.8c-0.473-1.21-0.775-2.274-0.8-4c0.943,0.807,0.894,2.161,1.6,3.2V403.9z M259.7,416.3
			c-0.4,0.133-0.8,0.267-1.2,0.4l-0.4-0.4c0.213-5.605,3.662-7.825,5.6-11.6h0.8C263.769,409.209,260.081,411.569,259.7,416.3z
			 M267.3,400.7c-0.133,0.133-0.267,0.267-0.4,0.4v-0.8c0.69,0.258,0.392,0.078,0.8,0.4H267.3z M259.7,403.9
			c2.48-2.474,4.598-5.241,6.8-8c2.64-3.308,6.373-5.575,8.4-9.6h0.8c-0.854,2.393-2.794,3.575-4.4,5.2
			c-2.613,2.643-4.185,6.145-6.4,9.2c-2.077,2.864-6.931,5.887-9.2,8.8h-1.6C255.447,406.929,257.762,405.834,259.7,403.9z
			 M247.3,417.1c1.943-0.605,2.544,1.546,4.8,0.8c1.26-0.416,1.186-1.581,2.8-2c-2.172,18.517-7.396,30.8-20,38.8
			c-0.376-0.96-0.785-2.011-1.2-2.8c-0.667-0.267-1.333-0.533-2-0.8l-2,2v0.8c1.029,0.832,1.435,1.379,3.2,1.6v0.8
			c-2.226,0.933-4.744,2.039-6.4,3.6c-2.625,0.065-2.842-0.276-3.6-2c-1.33,0.003-2.38,0.115-3.2,0.4c0.267-0.8,0.533-1.6,0.8-2.4
			c0.926,0.447,0.727,0.373,1.2,1.2c1.241,0.026,2.524,0.057,3.2-0.4c0.442-0.541,0.619-1.152,0.8-2
			c-0.475-0.453-0.859-1.016-1.2-1.6c-1.633-0.001-2.077-0.042-2.8,0.8c-1.45-0.295-1.111,0.04-1.6-1.2h-0.4
			c-0.177-0.783,0.174-0.515,0.4-0.8c0.046-0.032,2.645-0.071,4-0.8c-0.087-2.399-0.921-3.1-2.4-4c0.55-6.967,9.028-19.19,13.6-22.4
			c1.065-0.748,2.249-0.775,3.2-1.6C240.821,421.088,244.143,418.083,247.3,417.1z M220.1,434.7h0.4v1.2
			C220.197,435.47,220.249,435.53,220.1,434.7z M222.1,431.1h0.8v1.2h-0.4C222.367,431.9,222.233,431.5,222.1,431.1z M243.7,371.9
			c0.411-0.323,0.098-0.148,0.8-0.4c4.538,11.263,2.45,27.749-2.8,35.6c-2.044,3.057-10.221,9.752-9.6,13.2
			c-1.181-0.453-1.439-1.008-2-2c-2.871,0.054-2.527,0.818-4,2c0.431,1.23,0.978,1.444,1.6,2.4h1.6v1.6
			c-0.902,0.486-1.359,1.668-2,2h-3.2c-1.47,0.56-2.457,1.948-3.6,2.8c-0.222-0.503-0.481-1.208-0.8-1.6
			c0.551-1.112,1.253-1.169,2.4-1.6c0.258-0.69,0.078-0.392,0.4-0.8c-0.216-2.03-0.777-1.964-1.6-3.2
			c-0.927,0.091-1.128,0.079-1.6,0.4h-0.8v-1.6c1.801-0.186,1.71-0.517,2.8-1.2c-0.102-1.395-0.14-1.684-0.8-2.4
			c-0.896-0.654-1.679-0.506-2.4-0.4c-0.553-1.528-0.985-6.947,0-8.4c0.005-3.092,1.254-2.711,3.2-3.6
			c-0.671-13.658,3.681-18.17,12-24C236.778,378.263,239.336,373.446,243.7,371.9z M217.7,461.5c0.133-0.4,0.267-0.8,0.4-1.2
			c0.972,0.528,0.282-0.187,0.8,0.8l0.4,0.4h-0.4l-0.4,0.4v-0.4H217.7z M217.3,389.1h0.4v1.2
			C217.397,389.87,217.449,389.93,217.3,389.1z M219.7,381.9h1.2c0.053,1.542-0.009,1.705,0.8,2.4c-0.091,0.927-0.079,1.128-0.4,1.6
			l-0.4,0.4C220.5,384.833,220.1,383.366,219.7,381.9z M230.5,372.7c0.833,1.338-3.124,5.529-4.4,6.4v0.4
			c-1.397-0.492-1.492-1.129-2.4-2v-1.2c0.34,1.435,2.567-0.667,2.8-0.8c-0.26-1.152-0.532-2.083-1.2-2.8
			c-0.328-0.577,0.303-0.995-0.8-0.8v0.4c-0.951-0.581-1.028-2.386-1.2-3.6c-1.764,0.105-1.777,0.2-3.2,0c-0.4,0.4-0.8,0.8-1.2,1.2
			c-0.015,2.501,1.052,3.325,2.4,3.2h0.8c-0.12,1.276-0.355,1.281,0,2c-0.585,1.464-2.333,2.088-4,2.4
			c-0.133-0.133-0.267-0.267-0.4-0.4c0.177-1.99,1.027-9.317,0.4-10.4v-1.2c0.69,0.258,0.392,0.078,0.8,0.4
			c1.648-0.147,1.491,0.096,2-1.2c0.858-2.102-1.665-2.499-2.4-4c0.544-1.41-0.265-4.491,0-5.6c0.275-1.153,1.59-2.266,2-3.6h2
			c0.091-0.927,0.079-1.128,0.4-1.6c2.219-5.61,11.652-7.104,14.8-11.2h0.8C244.197,351.966,237.003,365.348,230.5,372.7z
			 M222.1,345.1v-1.6c0.267,0.133,0.533,0.267,0.8,0.4c-0.258,0.69-0.078,0.392-0.4,0.8v0.4H222.1z M237.7,315.9v8.8
			c-1.436,4.579-5.116,8.721-8,12c-1.305,1.483-1.536,3.645-3.6,4.4c-0.545,0.039-0.562,0.1-1.2-0.8c-2.954,0.304-2.047,1.549-3.2,2
			c-0.911,0.356-1.362-0.331-2.8,0.4c-0.477,2.67,0.381,2.543,2,4l-0.4,0.4c-1.681-0.515-2.481-1.323-3.2-2.8
			c-0.128-0.113,0.886-3.031,0.8-4.4c-0.498-0.268-0.827-0.435-1.2-0.8c-1.416,0.259-1.354,0.274-2,1.2h-0.4
			c-0.836-3.478-1.664-10.951,0.4-14l0.4-0.4v0.4c1.801-0.186,1.71-0.517,2.8-1.2c-0.064-2.071-0.352-2.409-1.6-3.2
			c0.933-2.533,1.867-5.067,2.8-7.6c0.8-0.667,1.6-1.333,2.4-2c0.133-1.067,0.267-2.133,0.4-3.2c0.931-1.749,2.402-4.1,3.6-6
			c1.376-2.182,3.562-4.087,4-7.2C233.326,298.96,236.393,310.277,237.7,315.9z M215.3,425.9c0.889,0.465,0.602,0.579,1.2,1.2v1.6
			c-0.533-0.4-1.067-0.8-1.6-1.2C215.03,426.577,215.086,426.506,215.3,425.9z M212.5,413.5l-0.4-0.4v-0.4h2.8
			c0.16,0.822,0.099,0.771,0.4,1.2v0.8C213.837,414.433,213.591,414.038,212.5,413.5z M211.7,366.3c0.322,1.616,0.837,1.752,2,2.4
			v3.2c-2.508-0.896-1.781-3.753-3.6-4.8h-2.4c-6.005-2.922-13.765-17.127-13.6-26.8c1.542,0.053,1.705-0.009,2.4,0.8h0.8
			c-0.034-1.848-0.287-2.467-0.8-3.6c1.004-0.535,1.157-0.419,1.6-1.6c0.323-0.411,0.148-0.098,0.4-0.8
			c-0.609-0.219-0.668-0.282-1.6-0.4c0.525-1.826,0.517-1.954,0.4-4.4c0.896,0.517,0.848,1.041,1.2,2c1.899-0.225,1.5-0.626,2.8-1.2
			c3.593,5.955,10.453,9.964,12.8,17.2c1.141,3.518,0.875,10.262-0.4,13.2C213.157,362.75,210.956,364.961,211.7,366.3z
			 M210.5,331.1c0.267,0.133,0.533,0.267,0.8,0.4v1.2h-0.4C210.681,332.091,210.617,332.032,210.5,331.1z M211.7,323.5
			c0.384,0.561,0.403,1.312,0.4,2.4C211.716,325.339,211.697,324.588,211.7,323.5z M215.3,311.1v-2c0.267,0.133,0.533,0.267,0.8,0.4
			c-0.159,0.822-0.099,0.771-0.4,1.2v0.4H215.3z M229.7,279.1c-0.323-0.47-0.322-0.669-0.4-1.6
			C229.623,277.97,229.622,278.169,229.7,279.1z M214.1,291.5c2.047,0.721,4.031,1.487,5.6,0.4l1.2-1.2
			c-0.129-1.992-0.424-1.702-1.2-2.8c-1.091,0.009-1.833,0.016-2.4,0.4c-1.235-0.019-2.05-0.139-2.8-0.4
			c1.075-10.819,7.236-17.044,9.2-26.4c0.4,0.133,0.8,0.267,1.2,0.4c3.575,9.447,2.377,22.902-0.4,31.6
			c-0.851,2.664-0.523,5.256-2.4,6.8v0.8c-1.008-0.561-1.507-2.211-2-3.2h-2.4c-0.632,2.724-1.631,4.243-1.6,7.6h-0.8
			c-0.683-2.076-0.097-5.847-1.2-7.6V291.5z M198.1,249.1c0.581-1.367,1.434-1.171,2.8-1.6v-1.6h-2c0.255-1.242,0.542-3.081,1.2-4
			v-0.8h0.4c2.455,3.807,4.113,7.305,6.4,11.6c1.645,3.09,4.768,6.017,6,9.6c0.267,2.8,0.533,5.6,0.8,8.4
			c-1.147,4.421-3.366,9.682-3.2,14.8h-0.4c-0.233-0.692-0.41-2.594-0.8-3.2c-1.492-1.481-3.008-0.034-4-2.8
			c-0.039-0.545-0.1-0.562,0.8-1.2c-0.009-1.091-0.016-1.833-0.4-2.4c-1.32-1.054-2.253-0.637-3.6,0
			c-1.25-2.144-2.642-4.392-2.8-7.6c0.667,0.133,1.333,0.267,2,0.4c0.623-1.556,0.556-1.787,0.4-3.6
			c-0.133-0.133-0.267-0.267-0.4-0.4c-1.799,0.033-2.183,0.251-3.2,0.8C196.138,260.777,194.596,253.32,198.1,249.1z M196.5,267.1
			c0.091,0.927,0.079,1.128,0.4,1.6v0.8c-1.089-0.589-1.153-1.194-1.2-2.8C195.967,266.833,196.233,266.967,196.5,267.1z
			 M196.1,297.5c0.974-4.508-1.008-11.72,0.4-14.4v-2.4c1.28,0.847,1.672,2.339,2.8,3.2c1.604,1.224,5.325,1.944,6.4,3.6
			c0.133,0.667,0.267,1.333,0.4,2c0.966,1.616,2.593,3.664,3.2,5.6c0.501,1.597,0.05,3.203,0.8,4.4v2
			c-1.102-0.423-1.714-1.199-2.4-2c-0.371-0.369,0.783-2.343,0-3.6v-0.8h-1.6c-0.057-2.566-0.648-2.581-1.6-4
			c-1.67,0.326-1.684,0.864-2.8,1.6c0.221,1.948,2.506,6.038,4.4,6.4c-0.179,1.191-0.202,1.35-0.8,2c0.106,3.101,3.203,5.13,5.6,4.8
			c0.045,1.477,0.175,3.54-0.4,4.4c-0.545,0.039-0.562,0.1-1.2-0.8c-2.526-0.022-3.043,0.344-4.4,1.2
			c0.276,1.663,0.776,1.829,1.2,3.2c0.69,0.258,0.392,0.078,0.8,0.4c2.03-0.216,1.964-0.777,3.2-1.6
			c0.133,0.133,0.267,0.267,0.4,0.4c-0.01,2.245-0.038,6.684-1.2,8c-0.766,0.367-0.294,0.16-1.2,0c-0.133,0.133-0.267,0.267-0.4,0.4
			c-0.055,2.08-0.224,2.463,1.6,2.8c-0.495,1.243-1.909,2.598-2.8,3.6c0.19,1.261,0.401,1.509,0.8,2.4
			C201.129,327.044,193.861,307.862,196.1,297.5z M193.7,335.1l0.8,0.8v2.4h-0.8V335.1z M191.7,363.5v-3.2
			c3.189,1.128,5.44,4.897,8,6.8c4.527,3.365,9.339,7.707,12,12.8c1.344,2.573,1.194,6.356,2.8,8.8c0.026,1.241,0.057,2.524-0.4,3.2
			c-1.047,0.586-2.004-0.06-3.2,0.8c-0.939,0.738-1.118,1.133-1.2,2.8c1.191,0.179,1.35,0.202,2,0.8
			c2.302-0.102,2.077-0.528,3.2-1.6c1.062,3.149,0.062,7.312,0,10.8c-0.822-0.159-0.771-0.099-1.2-0.4
			c-0.788-1.427-0.513-3.698,0-5.6c-0.475-0.453-0.859-1.016-1.2-1.6c-2.387,0.005-2.703,0.382-4,1.2c0.055,0.838,0.649,5.777,0.8,6
			c0.377,0.558,1.545,0.329,2,0.8c0,0-0.077,1.876,0.4,2.4c-0.883,1.161-1.391,0.748-1.6,2.8c-9.576-4.837-16.837-18.466-19.6-30.4
			C189.855,377.914,190.797,364.904,191.7,363.5z M190.1,399.9v0.8h-0.8c-0.591-1.244-1.261-2.538-1.6-4
			C188.888,397.542,189.144,398.861,190.1,399.9z M210.9,459.1c-1.93-1.835-4.62-2.817-6.8-4.4
			c-7.649-5.557-20.649-21.899-16.8-37.2c1.166-4.634,3.352-8.529,5.2-12.4c5.887,0.941,15.316,9.264,18.8,13.2
			c0.934,1.055,1.276,2.33,2.4,3.2c-0.241,1.242-0.4,1.2-0.4,1.2c-2.055,0.273-1.735,0.918-2.8,2c0.319,1.947,1.188,2.581,3.2,2.8
			c-0.491,1.608-1.33,3.005-2,4.4c-0.971,0.247-1.568,0.279-2.8,0.8c0.183,2.348,0.845,2.397,2,3.6c1.816-0.295,2.525-0.966,2.8-2.8
			c1.451,0.323,2.264,0.698,3.2-0.4h0.8c0.133,0.933,0.267,1.867,0.4,2.8c-1.658-0.213-2.404-0.549-3.6,0.4
			c-0.267,0.133-0.533,0.267-0.8,0.4c0.528,2.5,1.763,4.112,4.4,3.2c-0.133,1.466-0.267,2.934-0.4,4.4c-1.036-0.5-1.482-1.448-2-2.4
			c-3.621-0.126-4.041,0.465-6.4,2c-1.244-0.617-2.318-0.379-3.2,0.4c-0.276,0.307-0.527,0.891-0.8,1.2
			c0.374,1.913,0.844,1.448,2,2.4c2.057-0.212,2.741-0.56,3.2-2.4c1.78,1.006,4.15,1.562,6,0h0.8c-0.164,2.216-1.173,2.941-3.2,3.2
			c-0.555,3.382,0.104,4.091-2,6c-0.938-0.576-1.534-3.054-2-4c-1.2,0.133-2.4,0.267-3.6,0.4l-0.4,0.4c-0.084,2.522,0.133,3.421,2,4
			c0.668,0.456,1.964,0.438,3.2,0.4c0.053,1.542-0.009,1.705,0.8,2.4c-0.133,0.133-0.267,0.267-0.4,0.4
			C211.289,459.023,211.602,458.848,210.9,459.1z M211.7,594.3h-0.4c-0.372-1.058-0.439-2.778-0.4-4.4c0.86,0.982,0.534,3,0.8,3.6
			V594.3z M210.9,581.9h0.4v1.2C210.997,582.67,211.049,582.73,210.9,581.9z M211.7,535.1h-0.8v-0.8l0.8,0.4V535.1z M211.3,531.1
			h-0.4c0.084-14.229,1.283-28.897,4-41.2c1.789-8.098-1.472-17.64,0.8-24.8c1.232,0.361,2.113,0.069,4,0
			c-1.449,7.16-2.313,15.67-4,22.8v7.6c-0.76,3.235-0.771,6.676-1.6,10.4c-1.299,5.835,0.809,13.624-2,18
			c0.03,2.263,0.162,5.158-0.4,6.8C211.567,530.833,211.433,530.967,211.3,531.1z M213.3,567.9h-0.4
			c0.133-0.933,0.267-1.867,0.4-2.8C213.894,566.068,213.443,566.585,213.3,567.9z M230.5,540.3v0.4h-0.8
			c0.88-3.135,3.169-5.107,4.4-8h0.8C234.186,535.342,232.237,538.509,230.5,540.3z M236.9,530.3h-0.4
			c0.491-1.787,3.237-7.888,4.4-9.2c-0.159-0.822-0.099-0.771-0.4-1.2v-0.4c-2.908,1.028-3.391,4.602-4.8,7.2
			c-2.071,3.819-5.327,6.964-7.2,11.2l-0.4,0.4h-0.4c0.634-3.244,2.73-5.204,4-7.6c5.48-10.336,10.237-19.701,16.8-28.8
			c2.747-3.808,7.999-7.324,8.4-13.2h-2c-0.574,1.495-1.654,1.65-2.4,2.8c-3.022,4.657-5.207,9.445-8.4,14l-2.8,2.8
			c-2.778,4.042-5.507,8.32-8,12.4c-0.943,1.544-1.014,3.286-2,4.8c-0.813,1.248-2.493,2.667-3.2,4c-0.8,2.4-1.6,4.8-2.4,7.2
			c-1.192,2.147-3.432,4.777-4.4,7.2c-1.092,2.734-1.234,4.918-2.4,7.6c-1.656,3.811-4.262,8.359-4.8,13.2h-0.8
			c0.36-3.846,2.013-7.066,3.2-10c1.084-2.68,0.979-4.837,2-7.6c1.918-5.191,4.626-10.99,6.8-16c1.518-3.497,1.832-6.466,3.2-10
			c1.185-3.061,3.532-6.315,4.8-9.2c0.267-1.2,0.533-2.4,0.8-3.6c0.533-0.4,1.067-0.8,1.6-1.2c1.331-2.39,1.477-5.181,2.8-7.6
			c1.806-3.303,5.104-5.979,6.8-9.2c0.133-0.8,0.267-1.6,0.4-2.4c0.722-1.255,2.612-1.78,3.6-2.8c2.573-2.658,5.026-6.522,7.2-9.6
			c1.757-2.488,5.332-3.929,7.2-6.4c3.979-5.264,9.48-10.528,15.2-14c1.289-0.883,3.583,2.031,4.4,3.2
			c2.195,3.141,4.622,8.522,7.2,11.2c-0.117,4.955-12.259,12.265-15.6,15.6C261.249,498.726,247.426,513.699,236.9,530.3z
			 M295.3,538.3c-1.486,7.891,0.57,16.025-0.8,22c-1.32,5.759,0.983,13.267-1.2,16.8v0.4h-0.4c-0.054-7.817-0.847-15.173-2.4-22
			c-0.267-4.133-0.533-8.267-0.8-12.4c-0.901-3.857-1.117-9.303-2-13.2v-4.4c-0.942-3.498-2.244-7.83-3.2-11.2
			c-2.355-8.299-2.521-18.414-7.6-24c0.138-2.917,1.242-2.382,2-4.4h0.8c1.949,5.579,2.569,10.146,4.4,16
			c0.285,0.912,1.393,2.274,1.6,3.2c0.774,3.465-0.567,8.819,1.6,12.4v0.4h0.8c-0.419-9.248-1.37-26.604-6-32.8
			c0.208-2.186,1.237-2.508,2.8-3.2c0.133-0.133,0.267-0.267,0.4-0.4c6.931,11.051,3.539,29.082,6.4,42.4
			c0.754,3.512,0.782,15.145,0,16.4c0.019,1.235,0.139,2.05,0.4,2.8c1.267-0.226,1.164-0.351,2-0.8c0.391-9.196,0.897-18.136-0.8-26
			c-0.292-1.352,0.275-3.277,0.4-4c0.292-1.686-0.321-6.617-0.8-8.8v-6.4c-1.063-4.311-1.678-12.202-4.4-15.2
			c-0.08-4.097,1.206-3.448,3.2-5.2c0.69,0.258,0.392,0.078,0.8,0.4c1.535,2.011,0.887,5.52,1.6,8.4
			c1.747,7.052,1.031,13.881,1.2,22.4c0.106,5.328,0.165,14.475,0,20.4C295.206,531.692,295.727,536.031,295.3,538.3z M206.9,267.1
			c-0.528-0.972,0.187-0.282-0.8-0.8c-0.258,0.69-0.078,0.392-0.4,0.8v0.4c0.69-0.258,0.392-0.078,0.8-0.4H206.9z M207.7,316.7
			c-0.737-0.602-1.447-0.745-2.8-0.8c-0.583,0.839-1.042,1.132-2,1.6c0.325,1.651,0.95,1.932,1.6,3.2
			c1.928-0.329,2.039-1.072,3.6-1.6C208.091,318.009,208.084,317.267,207.7,316.7z M222.1,322.7v0.8h1.2
			C222.711,322.504,223.398,323.031,222.1,322.7z M221.7,327.1c-0.673,1.115-1.381,3.16-2.4,4c0.214,1.389,0.505,1.59,0.8,2.8
			c1.013-0.042,1.482-0.049,2-0.4c0.457-0.699,0.474-1.298,0-2c0.527-1.101,1.103-1.308,2.4-1.6c-0.145-1.5-0.31-1.487-0.8-2.4
			C223.033,327.367,222.367,327.233,221.7,327.1z M211.3,345.1c-1.078-0.636-2.762,1.035-4.8,1.2c0.069,1.498-0.208,1.415,0.8,2
			c1.389,0.658,0.889-0.898,2,0.8c1.242,0.026,2.524,0.057,3.2-0.4c0.366-0.665,0.082-1.033,0-2.4L211.3,345.1z M224.1,355.9
			c-0.613-0.419-1.639-0.424-2.8-0.4c-0.039,2.651,0.307,3.383,1.2,4.8h2.4c0.102-1.395,0.14-1.684,0.8-2.4
			C225.425,356.353,225.446,356.348,224.1,355.9z M227.7,390.7v2.4c0.594,0.553,1.167,1.297,1.6,2c1.644-0.149,1.893-0.478,3.2-0.8
			c0.133-0.4,0.267-0.8,0.4-1.2c-0.667-0.8-1.333-1.6-2-2.4C229.041,390.773,229.37,390.789,227.7,390.7z M226.5,405.5
			c-0.453,0.475-1.016,0.858-1.6,1.2c-0.133,0.4-0.267,0.8-0.4,1.2c0.667,0.667,1.333,1.333,2,2c1.013-0.042,1.482-0.049,2-0.4
			c0.4-0.133,0.8-0.267,1.2-0.4C229.646,406.487,228.594,405.935,226.5,405.5z M205.7,435.9c-0.034-1.848-0.288-2.467-0.8-3.6
			c-2.533-0.931-3.778-1.336-6.4-1.2c-0.191,4.887,3.747,4.891,6.8,5.2L205.7,435.9z M228.1,437.5c-0.416,0.314-1.48,0.611-2,0.8
			c-0.258,0.69-0.078,0.392-0.4,0.8c0.079,1.667,0.279,1.833,0.8,2.8c2.387-0.005,2.703-0.382,4-1.2
			c-0.194-1.391-0.449-2.03-1.2-2.8C228.87,437.597,228.93,437.649,228.1,437.5z M234.9,445.5c-0.43,0.303-0.37,0.251-1.2,0.4
			c-0.856,1.919-0.633,2.313,0.4,4c1.981-0.026,2.387-0.348,3.6-0.8c-0.045-2.228-0.421-2.366-1.2-3.6H234.9z"/>
	</g>
</g>
</svg>
