<?xml version="1.0" encoding="utf-8"?>
<!-- Generator: Adobe Illustrator 21.0.0, SVG Export Plug-In . SVG Version: 6.00 Build 0)  -->
<svg version="1.1" id="Calque_1" xmlns="http://www.w3.org/2000/svg" xmlns:xlink="http://www.w3.org/1999/xlink" x="0px" y="0px"
	 viewBox="0 0 841.9 595.3" style="enable-background:new 0 0 841.9 595.3;" xml:space="preserve">
<style type="text/css">
	.st0{fill:#DADADA;}
</style>
<g>
	<g>
		<path d="M544,312.2c-0.1-0.4-0.5-0.6-0.8-0.9c-0.3-0.3-0.4-0.8-0.6-1.2c-0.2-0.3-0.8-0.4-1-0.6c0-0.1,0.1-0.2,0.1-0.2
			c-0.2-0.1-0.4-0.1-0.5-0.3c-0.1-0.1,0-0.2-0.1-0.3c-0.7-0.5-1.7-0.8-2.5-1.2c-0.2-0.1-0.3-0.4-0.5-0.5c-0.1,0-0.1,0.1-0.2,0.1
			c-0.2-0.1-0.5-0.3-0.7-0.4c-0.4-0.1-0.8-0.1-1.2-0.2c0-0.1-0.1-0.2-0.1-0.2h-0.3c0,0-0.1-0.2-0.2-0.2c-0.2,0-0.3,0.1-0.5,0.1
			c-0.2-0.1-0.6-0.4-0.9-0.5c-0.4-0.2-0.7,0-1.1-0.2v-0.2c-0.3,0-0.5-0.1-0.8-0.1c-0.2-0.1-0.5-0.3-0.6-0.4c-0.3,0-0.5-0.1-0.8-0.1
			c-0.2-0.1-0.4-0.2-0.5-0.3c-0.3-0.1-0.7-0.2-1-0.2c-0.7-0.3-1.6-0.8-2.3-1.2c-0.3-0.2-0.6-0.1-0.9-0.2c0-0.1-0.1-0.2-0.1-0.2
			c-0.2-0.1-0.4-0.1-0.6-0.2c0-0.1-0.1-0.2-0.1-0.2c-0.3-0.3-0.8-0.3-1.2-0.5c-0.3-0.2-0.7-0.6-1-0.8c-0.6-0.4-1.6-0.5-2.2-0.9
			c-0.2-0.1-0.5-0.4-0.7-0.5h-0.3c-0.1-0.1-0.2-0.4-0.4-0.5c-0.5-0.3-1.1-0.6-1.6-0.8h-0.3c-0.1,0-0.3-0.4-0.4-0.5h-0.3
			c-0.3-0.2-0.6-0.6-0.9-0.8H516c-0.3-0.3-0.6-0.8-1-1c-0.6-0.3-1.6-0.6-1.9-1.3h-0.3c-0.2-0.8-2.2-1.4-2.7-1.9
			c-0.1-0.1-0.1-0.3-0.2-0.4c-0.3-0.3-0.7-0.4-0.9-0.7c-0.1-0.1-0.1-0.3-0.2-0.4c-0.1-0.1-0.4,0-0.5-0.2c-0.1-0.1-0.1-0.3-0.2-0.4
			h-0.2c-0.2-0.1-0.3-0.3-0.4-0.5h-0.2c-0.1-0.1-0.1-0.3-0.2-0.4h-0.2c-0.2-0.2-0.4-0.5-0.5-0.8c-0.1-0.2-0.5-0.2-0.6-0.3
			c-0.2-0.2-0.3-0.5-0.5-0.7c-0.3-0.3-0.7-0.4-1-0.7c-0.2-0.1-0.2-0.4-0.4-0.5c-0.9-0.7-2-1.1-2.6-2h-0.2c-0.1-0.4-0.5-0.4-0.7-0.8
			h-0.2c-0.2-0.7-1.7-1.5-2.3-1.9c-0.3-0.2-0.4-0.6-0.7-0.9h-0.2c-0.4-0.3-0.8-1-1.2-1.3c-0.7-0.6-1.5-1-2.2-1.5
			c-0.3-0.2-0.4-0.6-0.6-0.8c-0.2-0.2-0.4-0.2-0.6-0.3c-0.5-0.4-1-0.9-1.6-1.2v-0.2c-0.3-0.1-0.5-0.3-0.7-0.5h-0.2v-0.2
			c-0.6-0.1-1.5-1.4-1.9-1.9c0,0-1.3-0.9-1.3-0.9h-0.3c-0.6-0.3-1.4-1.1-2.1-1.5c-0.6-0.3-1.3-0.4-1.9-0.9c-0.3-0.2-0.6-0.7-0.9-0.9
			c-0.7-0.4-1.3-0.4-2-0.8l-0.5-0.5h-0.2c0-0.1-0.1-0.2-0.1-0.3h-0.3c-0.2-0.1-0.3-0.4-0.5-0.5c-0.2-0.2-0.5-0.2-0.8-0.3
			c-0.3-0.2-0.7-0.6-1-0.8c-0.5-0.3-1-0.3-1.6-0.5c-0.4-0.2-1-0.6-1.4-0.8c-0.3-0.1-0.5-0.1-0.8-0.2c-2-1.2-4.8-1.9-7-2.8
			c-0.5-0.1-1-0.1-1.6-0.2c-0.2-0.1-0.6-0.3-0.8-0.4H462c-0.1-0.1-0.1-0.2-0.2-0.2c-0.1,0-0.3,0.1-0.4,0.1c-0.4-0.1-0.6-0.2-0.9-0.3
			c-0.6-0.2-1.2,0.1-1.8,0c-1.2-0.3-2.6-0.1-4-0.4c-1.1-0.3-2.5,0.1-3.3,0.2c-0.2,0-0.3-0.2-0.5-0.2c-0.9,0.2-1.5,0.3-2.5,0.5
			c-0.6,0.1-1.3-0.2-2.2,0c-0.8,0.2-1.5,0.4-2.3,0.5c-0.4-0.1-0.8-0.1-1.2-0.2c-0.7,0.2-1.4,0.5-2.1,0.7c-0.7,0.2-1.1,0-1.6,0.2
			c-0.9,0.3-1.7,0.7-2.5,1c-0.3,0.1-0.7,0.1-1,0.3c-0.3,0.2-0.8,0.4-1.2,0.6c-0.2,0.1-0.3,0.4-0.5,0.5c-0.2,0-0.5,0.1-0.7,0.1
			c-0.2,0.1-0.4,0.4-0.7,0.5c-0.6,0.2-0.7,0-1.3,0.2c-0.9,0.3-1.7,0.7-2.5,1.2c-0.8,0.4-1.5,0.9-2.3,1.4c-0.2,0.1-0.5,0.5-0.7,0.6
			c-0.4,0.2-0.8,0.1-1.2,0.3l-0.5,0.5c-0.3,0.1-0.7,0-0.9,0.2c-0.2,0.1-0.3,0.4-0.5,0.5c-0.4,0.2-0.9,0.1-1.2,0.2
			c-0.6,0.2-1.7,0.3-2.1,0.4c-0.3,0.1-1,0.1-1.1,0.1c-0.4,0-1.2-0.1-1.3,0.2c-0.1,0.1,0,0.2-0.1,0.3c0,0-0.6-0.6-0.9-0.7
			c-0.7-0.3-1.5,0-2.2-0.3c-0.5-0.2-1-0.7-1.6-1.1c-0.2-0.1-0.2-0.4-0.4-0.5c-0.3-0.2-0.7-0.2-1.1-0.3c-0.5-0.2-1-0.7-1.5-0.9
			c-0.2,0-0.4-0.1-0.5-0.1c-0.2-0.1-0.2-0.5-0.4-0.6c-0.3-0.2-0.6-0.1-0.9-0.2c-0.3-0.1-0.3-0.5-0.5-0.7c-0.2-0.2-0.8-0.4-1.2-0.5
			c0.1-0.2,0.1-0.2-0.1-0.4c-0.3-0.2-0.8-0.1-1.1-0.3c-0.1-0.1-0.2-0.4-0.3-0.5c-0.4-0.3-0.8-0.5-1.2-0.8c-0.2-0.2-0.3-0.4-0.5-0.5
			c-0.5-0.3-1.2-0.3-1.6-0.5c-0.4-0.3-0.8-0.7-1.3-0.9c-0.4-0.2-0.8,0-1.2-0.2c-0.5-0.2-1.3-0.6-1.9-0.8c-0.4-0.1-1,0.1-1.4-0.1
			c-0.2-0.1-0.5-0.4-0.7-0.5c-0.3-0.1-0.7-0.1-1-0.2c-0.1-0.1-0.3-0.3-0.4-0.4c-0.3-0.1-0.6,0.1-1,0c-0.4-0.1-1.2-0.5-1.8-0.7
			c-1.5-0.4-3.1,0-3.9-1.2c-0.3,0.1-0.2,0.2-0.3,0.2c-0.4,0.1-1.1-0.2-1.5-0.2c-0.6-0.2-1.3,0-1.7-0.1c0-0.1-0.1-0.1-0.1-0.2
			c-0.3,0-0.6-0.1-0.9-0.1c-0.1,0-0.3-0.2-0.3-0.2c-0.2-0.1-0.3,0.1-0.4,0.1c-0.5,0-1-0.1-1.6-0.1c-0.1,0-0.4,0.1-0.6,0.1
			c-0.4-0.1-0.7,0.1-1.1,0.2c-0.7,0.2-1.6-0.2-2.5,0c-0.3,0.1-0.8,0.2-1,0.2c-0.1,0-0.3-0.1-0.4-0.1c-0.1,0-0.4,0.3-0.5,0.3
			c-0.3-0.1-0.7-0.2-1-0.2l-0.2,0.2c-0.9,0.3-1.9,0.1-2.8,0.3c-1,0.3-2.3,0.7-3.4,1c-0.7,0.2-1-0.1-1.6,0.1
			c-0.7,0.2-1.5,0.8-2.2,1.1c-0.2,0-0.5,0.1-0.7,0.1c-0.3,0.1-0.6,0.5-0.9,0.6c-0.3,0-0.6,0.1-0.9,0.1c-0.2,0.1-0.5,0.4-0.6,0.5
			c-0.3,0.1-0.7,0.1-1,0.2c-0.6,0.2-1.2,0.6-1.7,0.9c-0.3,0-0.5,0.1-0.8,0.1c-0.3,0.2-0.5,0.3-0.8,0.5c0,0.1-0.1,0.2-0.1,0.2
			c-0.3,0.2-0.7,0.1-0.9,0.2c-0.2,0.1-0.4,0.4-0.5,0.6c-0.1,0-0.2,0.1-0.3,0.1c-0.3,0.2-0.6,0.5-0.9,0.8c-0.2,0.2-0.4,0.1-0.7,0.2
			c-0.2,0.1-0.5,0.4-0.7,0.5h-0.4c-0.2,0.1-0.3,0.5-0.5,0.6c-0.4,0.4-1.1,0.3-1.6,0.6l-0.2,0.3h-0.5c-0.2,0.1-0.3,0.3-0.5,0.4
			c-0.3,0.1-0.5,0.2-0.8,0.2c-0.2,0.1-0.7,0.4-0.8,0.5c-0.1,0.1-0.1,0.2-0.2,0.3c-0.5,0.2-0.9,0.3-1.4,0.5c-0.4,0.3-0.7,0.6-1.1,0.9
			c-0.3,0.3-0.8,0.3-1.2,0.5c-0.3,0.2-0.5,0.5-0.7,0.7c-0.5,0.4-1.4,0.4-2,0.8c-0.1,0.1-0.2,0.2-0.2,0.3c-0.2,0.1-0.5,0.2-0.7,0.2
			c-0.4,0.2-0.8,0.6-1.2,0.9c-0.2,0.1-0.4,0-0.5,0.2l-0.8,0.8c-0.2,0.1-0.4,0-0.5,0.2c-0.1,0.1-0.1,0.3-0.2,0.4
			c-0.2,0.1-0.4,0-0.5,0.2c-0.1,0.2-0.3,0.3-0.4,0.5c-0.2,0.1-0.3,0.1-0.5,0.2c-0.2,0.2-0.3,0.5-0.5,0.7c-0.2,0.2-0.7,0.4-0.9,0.6
			c-0.1,0.2,0,0.3-0.2,0.4c-0.2,0.1-0.4,0.2-0.6,0.2c-0.2,0.2-0.4,0.5-0.7,0.6c-0.2,0-0.3,0.1-0.5,0.1c-0.1,0.1-0.1,0.4-0.2,0.5
			c-0.1,0.1-0.8,0.4-0.9,0.5c-0.1,0.1,0,0.2-0.1,0.3c-0.1,0-0.3,0.1-0.4,0.1c-0.1,0.1-0.1,0.2-0.2,0.3c-0.1,0-0.3,0.1-0.4,0.1
			c-0.2,0.1-0.5,0.5-0.7,0.6c-0.2,0-0.4,0.1-0.5,0.1c-0.6,0.4-0.7,1-1.6,1.2c0,0.2,0.1,0.4,0.1,0.5c-0.3,0-1.1,0.4-1.3,0.5
			c-0.1,0.1-0.2,0.5-0.3,0.5c-0.3,0-0.7,0.1-1,0.1c-0.1,0.1-0.3,0.4-0.5,0.5c-0.2,0.1-0.4,0.1-0.6,0.2h-0.2c0-0.3,0-0.1,0-0.4
			c-0.7,0.2-0.8,0.9-1.4,1.2c-0.2,0.1-0.6,0-0.7,0.2v0.4c-0.2,0.2-1.3,0.3-1.6,0.6c-0.4,0.3-0.7,1-1.3,1.1c-0.1,0.5-1.9,1.4-2.4,1.7
			c-0.1,0.1-0.2,0.3-0.3,0.4c-0.4,0.2-0.8,0.3-1.2,0.5c0,0.1-0.1,0.2-0.1,0.2c-0.2,0-0.4,0.1-0.5,0.1c-0.4,0.2-1,0.6-1.4,0.8
			c-0.2,0.1-0.4,0-0.6,0.2c-0.1,0.2-0.3,0.4-0.4,0.5c-0.3,0.3-0.7,0.4-1.1,0.6c-0.1,0.1-0.1,0.2-0.2,0.2c-0.3,0.1-0.7,0.2-0.9,0.2
			c-0.2,0.2-0.4,0.5-0.6,0.7c-0.2,0.1-0.7,0.2-0.9,0.3c-0.1,0.1-0.1,0.3-0.2,0.3c-0.2,0.1-0.4,0.2-0.5,0.3c-0.1,0.1-0.1,0.2-0.2,0.3
			c-0.2,0.1-0.4,0.1-0.5,0.2c-0.3,0.2-0.3,0.6-0.6,0.8c-0.3,0.2-0.6,0.1-0.9,0.3c-0.5,0.3-1,0.8-1.5,1c-0.4,0.2-0.9,0.1-1.2,0.4
			c-0.1,0.1-0.2,0.4-0.3,0.5c-0.3,0.2-1.3,0.3-1.6,0.5c0,0.1-0.1,0.2-0.1,0.2c-0.3,0.2-0.7,0.3-1,0.5c-0.2,0.1-0.3,0.4-0.5,0.5
			c-0.4,0.2-0.7,0.1-1,0.3c-0.2,0.1-0.4,0.4-0.5,0.5c-0.5,0.3-0.9,0.4-1.5,0.6c-0.2,0.1-0.4,0.4-0.5,0.5c-0.5,0.2-0.8,0.1-1.4,0.3
			c-0.4,0.1-1,0.4-1.4,0.6c-0.4,0.1-0.8,0.2-1.2,0.2c-0.3,0.1-0.8,0.4-1,0.6c0,0.1-0.1,0.2-0.1,0.3c-0.2,0.2-0.8,0.2-1.1,0.3
			c-0.9,0.6-1.7,1.3-2.6,1.9c-0.6,0.4-1.5,0.5-2.2,0.8c-0.2,0-0.4,0.1-0.5,0.1c-0.2,0.1-0.5,0.4-0.8,0.5c-0.4,0.1-0.8,0.1-1.1,0.3
			c-0.2,0.1-0.3,0.4-0.5,0.5c-0.2,0-0.3,0.1-0.5,0.1c-0.5,0.3-1.1,0.6-1.6,0.9c-0.1,0.1-0.2,0.4-0.3,0.5c-0.3,0.2-0.6,0.3-0.9,0.5
			c-0.1,0.1-0.2,0.4-0.3,0.5h-0.3c-0.1,0.1,0,0.2-0.1,0.3c-0.1,0-0.3,0.1-0.4,0.1c-0.2,0.1-0.2,0.4-0.4,0.5
			c-0.2,0.1-0.4,0.2-0.6,0.3c-0.1,0.2-0.4,0.4-0.5,0.6v0.3c-0.1,0.2-0.4,0.2-0.5,0.4c0,0.2-0.1,0.3-0.1,0.5
			c-0.1,0.2-0.4,0.2-0.5,0.4c-0.1,0.2,0,0.4-0.2,0.6c-0.1,0.2-0.7,0.4-0.9,0.7c0.3,0.5,0,0.8-0.3,1c0,0.4,0.3,0.6,0.5,0.8
			c-0.1,0.4-0.3,0.5-0.4,0.9h0.2c0,0.2-0.2,0.5-0.2,0.5c0.1,0.1,0.4,0.3,0.5,0.4c-0.1,0.1,0,0.5,0.1,0.7c0.2,0.5,1.8,1.4,2.1,0.9
			c0.2,0.1,0.1,0,0.2,0.2c0.2,0,0.3,0,0.4-0.1c0.2,0,0.4,0,0.5,0.1c0.1,0.1,0,0.1,0.1,0.2c1,0,1.6,0.3,2.3,0.5h2.3
			c0.8,0.2,1.4,0.7,2.2,0.9c0.4,0.1,2.3,0.2,2.4,0.2h0.4c-0.1,0.2-0.1,0.1-0.2,0.4c-0.5,0.1-0.5,0.3-0.9,0.5
			c-0.2,2.4,0.4,3.6,2.3,4.9c0.2,0.1,0.8,0.9,0.9,0.9h0.5c0.3,0.1,0.8,0.5,1.2,0.6c0.8,0.3,1.4,0.1,2.1,0.5c0.3,0.2,0.7,0.5,0.9,0.7
			c0.2,0.1,0.5,0.2,0.7,0.2c0.2,0.2,0.4,0.5,0.7,0.6c0.3,0.1,0.6,0.1,0.9,0.2c0.1,0.1,0.2,0.2,0.2,0.3c1.2,0.7,2.3,0.9,3.4,1.7
			c0.2-0.1,0.2-0.1,0.3-0.2c0.2,0,0.8,0.3,1.1,0.5c0.7,0.3,1.3,0.3,2,0.6c0.5,0.2,0.8,0.9,1.4,1c0.3,0.1,0.9,0,1.2,0.1
			c0.4,0.1,0.8,0.4,1.2,0.5h0.8c0.1,0,0.3,0.3,0.4,0.3c0.3,0.2,0.7,0.1,1.1,0.2c0.3,0.1,0.8,0.5,1.2,0.6c0.3,0,0.5,0.1,0.8,0.1
			c0.1,0,0.2,0.3,0.2,0.3c0.2,0.1,0.8,0.1,1.1,0.2c0.3,0.1,0.5,0.4,0.9,0.5c0.7,0.3,1.4,0.3,2.1,0.6c0.1,0.1,0.2,0.3,0.3,0.4
			c0.3,0.2,0.6-0.1,0.9,0c0.3,0.1,0.4,0.4,0.7,0.5c0.4,0.2,0.7,0.1,1.2,0.2c0.4,0.1,1.1,0.5,1.5,0.7h0.5l0.5,0.5
			c0.3,0.2,0.9,0.1,1.2,0.3c0.3,0.1,0.6,0.6,0.9,0.8c0.3,0.2,0.8,0.3,1.2,0.5c-0.1,0.2-0.1,0.2-0.2,0.3v0.1c0.4,0,0.5,0,0.8,0
			c0.1,0.1,0.1,0.3,0.2,0.4c0.2,0,0.3,0.1,0.5,0.1c0.2,0.1,0.4,0.4,0.6,0.5h0.3c0.1,0.1,0.1,0.3,0.2,0.4c0.4,0.3,0.9,0.3,1.4,0.5
			c0.1,0.1,0.2,0.3,0.3,0.4c0.4,0.3,1.3,0.3,1.7,0.7v0.2c0.4,0.4,2.2,1.3,3,1.4c0.1,0.5,1.5,1.4,2.2,1.4c0.1,0.7,0.3,0.3,0.7,0.5
			c0,0.1,0.1,0.2,0.1,0.2c0.2,0,0.4,0.1,0.5,0.1c0.1,0.1,0.1,0.3,0.2,0.5c0.2,0.3,1,0.5,1.5,0.5c0.1,0.3,0.3,0.8,0.1,1.1v0.1h0.3
			v-0.6c0.7,0.1,1.5,0.8,1.9,1.2c0.2,0,0.4,0.1,0.6,0.1c0.1,0.5,0.5,0.4,0.8,0.8h0.6v0.2c0.8,0.4,1.7,1,2.4,1.5
			c0.2,0.1,0.3,0.1,0.5,0.2c0.1,0.2-0.1,0.3,0,0.4c0.2,0.3,0.5,0.2,0.9,0.4c0.2,0.1,0.4,0.4,0.6,0.5c0.3,0.2,0.7,0.2,1,0.4
			c0.5,0.3,0.5,0.9,0.9,1.1c0.3,0.2,0.7,0.2,0.9,0.4c0,0.1,0.1,0.2,0.1,0.3h0.3c0.2,0.1,0.4,0.3,0.5,0.4c0.3,0.1,0.4,0.1,0.7,0.2
			c0.2,0.1,0.4,0.5,0.6,0.6c0,0,0.4-0.1,0.5-0.1c0.1,0,0.1,0.1,0.4,0.2c0.1,0.7,0.8,0.5,1.3,0.8c1.2,0.7,2.7,1.3,4.1,1.7
			c0.3,0,0.7,0.1,1,0.1c0.4,0.1,1,0.4,1.2,0.5c0.1,0,0.2-0.1,0.2-0.1c0.3,0.2,0.6,0.6,1.1,0.7c1.1,0.3,3,0.7,4,1
			c0.8-0.2,1.6,0.4,2.3,0.4c0.2,0,1.1-0.3,1.3-0.2c0,0.1,0.1,0.2,0.1,0.2c0.3,0.2,0.7,0.2,0.9,0.3v0.1c0.3,0.1,0.4-0.3,0.6-0.2
			c0.3,0.1,0.8,0.3,1.1,0.4c0.4,0,0.8-0.1,1.2-0.1c0.4,0.1,0.7,0.2,1.6,0.2v0.2c0.2,0.1,0.9,0.3,1.1,0.2c0.2,0,0.8-0.4,1.2-0.2
			c0.1,0.1,0.1,0.2,0.2,0.2c0.5,0.2,2.9,0.1,3-0.1c0.3,0,0.4,0.1,0.5,0.4c0.4,0,0.5-0.2,0.8-0.2c0.9-0.3,1.5,0.3,2.1,0.2
			c0.1,0,0.4-0.2,0.5-0.2c0.4,0.2,2.7,0.1,3.1,0c0.4-0.1,0.4,0.3,0.9,0.2c0.8-0.2,1.7-0.3,2.6-0.5c0.2,0.2,0.4,0.4,0.6,0.5
			c0-0.1,0.1-0.2,0.1-0.4c0.8-0.1,1.9-0.2,2.6-0.5c0.5,0.1,1.7,0,2.1-0.1c0.8-0.2,1.9-0.5,2.6-0.2c0.7-0.1,1.3-0.2,2-0.2
			c2.3,0.4,5,0,7.8-0.2v0.2h0.4v-0.3c0.5-0.1,1.3-0.5,1.6,0c0.2,0,0.1,0,0.2-0.1h0.1c0-0.1-0.1-0.1-0.1-0.2c0.5-0.2,1.2,0.1,1.7-0.2
			h0.3v0.1c-0.1,0-0.1,0.1-0.2,0.1v-0.1c-0.2,0.1-0.1,0-0.2,0.2c0.3,0,1.1,0.1,1.4-0.1l0.4-0.4c0.5-0.2,0.6,0.2,0.9,0.1
			c0,0,0.1-0.2,0.3-0.2c0.3-0.1,0.2,0.1,0.4,0.2c0.3,0,0.5-0.1,0.8-0.1c0-0.2,0-0.1-0.1-0.2c0.2-0.2,0.3-0.1,0.5-0.2
			c0,0.1,0.1,0.1,0.1,0.3c0.2,0,0.8,0,0.9-0.2c0.1-0.1,0-0.1,0-0.2c0.4,0,1.1-0.1,1.2,0.2c0.3-0.1,0.3-0.3,0.5-0.3
			c0.2,0,0.1,0.1,0.2,0.2c0.1,0,1.2-0.1,1.2-0.1c0.5-0.2,1.1-0.7,1.8-0.2c0,0,0.3,0,0.2-0.1l-0.1-0.1c0.2,0.1,0.1,0.1,0.1,0.3
			c0.3-0.1,0.4-0.3,0.8-0.4c0.2,0,0.5,0.1,0.7,0.1c0.6-0.1,1.3,0,2-0.2c0.3,0,0.5,0.1,0.8,0.1c0.1,0,0.4-0.2,0.5-0.2
			c0.4-0.1,0.7,0.2,1.1,0.2c0.2-0.1,0.7-0.3,0.9-0.4c0.3-0.1,0.5,0.3,0.8,0.2c0.1,0,0.1-0.3,0.2-0.3c0.5-0.4,1.1,0.5,1.8-0.1
			c0.3,0.1,0.3,0.1,0.4,0.2c0.8-0.2,1.4-0.3,2.2-0.4c0.2,0,0.3,0.1,0.5,0.2c0.5,0.1,0.8-0.1,1.2-0.1c0.1,0,0.4,0.2,0.5,0.2
			c0.1,0,0.6-0.4,0.7-0.5c0.3,0.4,2.1-0.1,3,0.1c0.4,0.1,0.8-0.1,1.2,0c0.3,0.1,0.8,0.2,1.2,0.3h2.4c0.7,0.1,1.5,0.1,2.2,0.2
			c0.6,0,1.3,0.2,1.7,0.3c0.6,0.1,1-0.3,1.7-0.2c0.3,0.1,1,0.4,1.5,0.2c0.1,0,0.3-0.3,0.4-0.3c0.5-0.1,1.3,0.3,1.8,0.1
			c0.1,0,0.5,0.2,0.7,0.2c0.3,0.1,1-0.2,1.2-0.1v0.2c0.4,0.2,1.3,0.2,1.6,0.3c0.6,0.1,1.2-0.2,1.9,0c0.3,0.1,0.7,0.2,0.9,0.2
			c0.6-0.1,1.1,0.1,1.5,0c0,0,0.2-0.2,0.3-0.2c0.2,0,0.3,0.1,0.5,0.1c0.6-0.1,1.5-0.1,1.9-0.2c0.3,0.1,1.1,0.2,1.5,0.2
			c0.1,0,0.3-0.2,0.5-0.2c1.1,0.3,2.2,0.2,3.3,0.1c0.1,0,0.5,0.1,0.6,0.2c0.8,0.2,2.1,0.1,2.6,0c0.4-0.1,1,0.2,1.4,0.1
			c0.1,0,0.1-0.2,0.3-0.2c0.2,0,0.6,0.4,1.1,0.2c0.1-0.1,0.1-0.2,0.2-0.2c0.4-0.2,0.8-0.2,1.2-0.5l0.5-0.5c0.3,0,0.5-0.1,0.8-0.1
			c0.1-0.1,0.2-0.2,0.2-0.3c0.6-0.3,1.3,0.1,2-0.2c0.2-0.1,0.5-0.3,0.7-0.4h0.7c0.5-0.1,1.3-0.3,1.8-0.5h0.7
			c0.2-0.1,0.6-0.3,0.8-0.4c0.7-0.3,1.6-0.4,2.1-0.6c0.5-0.2,1.2-0.2,1.6-0.3h0.8c0.3-0.1,0.7-0.5,0.9-0.6c0.3-0.2,0.9,0,1.2-0.2
			c0.9-0.6,2.1-1,3.1-1.5c0.2,0,0.4-0.1,0.5-0.1c0.3-0.1,0.8-0.4,1.2-0.5h0.4c0.3-0.1,0.6-0.5,0.9-0.7c0.7-0.4,1.5-0.6,2.2-1.1
			c0.5-0.3,1-0.9,1.6-1.2c0.6-0.4,1.2-0.4,1.8-0.8c0.2-0.1,0.2-0.4,0.4-0.5h0.2v-0.2c0.1,0,0.3-0.1,0.4-0.1v-0.2h0.2
			c0.2-0.1,0.2-0.4,0.4-0.5c0.4-0.3,1.2-0.5,1.5-0.8c0.2-0.2,0.3-0.6,0.5-0.8h0.2c0.2-0.1,0.3-0.4,0.5-0.5c0.2-0.1,0.4-0.2,0.6-0.3
			c0.1-0.1,0.1-0.3,0.2-0.3c0.4-0.2,0.9-0.2,1.3-0.4c0.6-0.3,1-1.1,1.6-1.6c0.5-0.4,1.2-0.6,1.6-0.9c0.4-0.3,0.5-1,0.9-1.4
			c0.1-0.1,0.3-0.1,0.4-0.2c0.3-0.3,0.5-0.7,0.8-1c0.3-0.3,0.6-0.3,0.9-0.5c0.5-0.4,0.4-0.8,1.2-1v-0.2c0.7-0.1,1-0.7,1.8-0.9v-0.2
			c0.7-0.1,1-0.8,1.5-1.2c0.7-0.6,2.5-1.5,2.9-2.3h0.2v-0.3c0.3-0.1,2.3-1.6,2.4-1.9h0.4v-0.2c0.7-0.1,0.9-0.6,1.3-1
			c0.2-0.2,0.5-0.2,0.7-0.4c0.1-0.1,0-0.2,0.1-0.3c0.5-0.4,1.1-0.6,1.6-1c0.2-0.1,0.2-0.4,0.3-0.5c0.1-0.1,0.3-0.1,0.4-0.2
			c0-0.1,0.1-0.3,0.1-0.4c0.2-0.2,0.4-0.3,0.6-0.5c0.1-0.1,0.1-0.3,0.2-0.3c0.1-0.1,0.3,0,0.5-0.2c0.4-0.4,0.6-0.8,1.1-1.1v-0.2
			c0.3-0.1,0.2-0.1,0.5-0.2v-0.2h0.2v-0.2c0.5-0.1,0.4-0.3,0.9-0.4c0.1-0.4,1.1-1.3,1.4-1.6c0.3-0.3,1.5-3,1.2-3.8
			c-0.1-0.2-0.3-0.7-0.4-0.9c-0.2-0.7-0.3-1.4-0.9-1.7c0-0.3-0.1-0.3,0.1-0.5c0.2-0.4,1.9-0.6,2.6-0.9c0.9-0.3,1.5-0.8,2.3-1.2
			l0.7-0.2c0.6-0.5,1.1-0.9,1.9-1c0.1-0.5,0.3-0.5,0.5-0.8C543.6,315.1,544.2,312.9,544,312.2z M526.6,328.1
			c-0.3,0.2-0.8,0.5-1.2,0.6c-0.3,0.1-0.6,0-0.8,0.2h-0.1c0.1-0.5,0.1-0.7,0.2-1.1c0.5-0.2,0.8-0.3,1-0.7h0.2
			c0.1,0.3,0.3,0.5,0.5,0.7h0.2V328.1z M530.3,326.2c-0.3,0.3-1.2,0.4-1.6,0.7c-0.7,0-0.6-0.1-0.9-0.5c-0.1-0.1-0.3-0.2-0.4-0.3
			c-0.6,0-1.2-0.1-1.4,0.3c-0.2-0.1-0.6-0.7-0.7-0.9c-0.4-0.1-0.7-0.3-1,0c-0.5,0.3-0.3,1-0.5,1.4c-0.2,0.3-0.5,0-0.9,0.2
			c-0.2,0.1-0.1,0.1-0.3,0.2c-0.1,0.5-0.2,1.1,0.2,1.6c0.1,0.3,0.4,0.3,0.9,0.3v0.1c-1,0.7-2.5,1.2-3.4,2c0,0-0.8,0.1-1,0.2
			c-0.4,0.2-0.5,0.8-0.9,1.1c-0.4,0.3-1,0.3-1.4,0.5c-0.4,0.2-0.9,0.6-1.2,0.9c-0.3,0.1-0.6,0.2-0.9,0.3c-0.2,0.2-0.4,0.5-0.7,0.6
			c-0.6,0.3-1.3,0-1.8,0.3c-0.3,0.2-0.3,0.7-0.6,0.9c-0.1,0.1-0.6-0.2-0.9-0.2c-0.4,0-0.7,0.1-1.1,0.1c0,0.4-0.2,0.7,0.2,1
			c-0.1,0.6-0.8,0.4-1.2,0.7c-0.4,0.2-0.7,0.8-1.1,1c-0.2,0-0.4,0.1-0.6,0.1c-0.4,0.2-0.6,0.7-0.9,1c-0.2,0.2-0.5,0.1-0.8,0.2
			c-0.4,0.2-1.2,0.7-1.6,1c0,0.1-0.1,0.2-0.1,0.2c-0.2,0-0.3,0.1-0.5,0.1c-0.3,0.1-0.7,0.5-1,0.6c-0.2,0-0.3,0.1-0.5,0.1
			c-0.3,0.2-0.5,0.6-0.8,0.8c-0.5,0.3-1.1,0.4-1.6,0.7c-0.4,0.2-0.7,0.6-1.1,0.9c-0.4,0.3-0.9,0.3-1.3,0.5c-0.2,0.1-0.3,0.5-0.5,0.6
			c-0.3,0.2-0.6,0.2-1,0.4c-0.4,0.2-0.8,0.5-1.1,0.8c-0.3,0.2-1.3,0.2-1.6,0.4c-0.2,0.1-0.2,0.5-0.4,0.6c-0.2,0.1-0.3,0.1-0.5,0.2
			c-0.5,0.3-1,0.9-1.6,1.1c-0.3,0-0.5,0.1-0.8,0.1c-0.3,0.1-0.7,0.5-1,0.6c-0.3,0.1-1.2,0.1-1.4,0.2v0.2c-0.4,0.2-0.7,0.1-1.2,0.2
			l-0.2,0.2c-0.3,0-0.7,0.1-1,0.1c-0.2,0.1-0.6,0.4-0.9,0.5c-0.3,0-0.6,0.1-0.9,0.1c-0.3,0.1-0.8,0.5-1.1,0.5
			c-0.2,0-0.4-0.1-0.5-0.1c-0.2,0.1-1,0.5-1.2,0.7c0,0.1-0.1,0.2-0.1,0.2c-0.3,0.2-0.6,0-0.8,0.1c-0.6,0.1-1,0.4-1.6,0.5h-0.8
			c-0.3,0.1-0.7,0.2-0.9,0.3c-0.1,0-0.6-0.1-0.9,0c-2.5,0.7-4.8,1-7.1,1.6c-0.4,0-0.8-0.1-1.2-0.1c-0.4,0.1-1.3,0.3-1.9,0.1
			c-0.2-0.1-0.4-0.3-0.7-0.2c-0.4,0.1-0.9,0.4-1.5,0.2c-0.4-0.1-1.1-0.4-1.7-0.2c-2.3,0.5-4.4-0.2-6.8-0.2c-0.8,0-1.4,0.2-2.1,0.3
			c-0.3,0-0.7-0.1-0.9-0.1c-1,0.2-1.9,0-2.8,0.2c-0.3,0-0.4-0.2-0.8-0.2c-1.1,0.1-2.1,0-3,0.2c-0.4-0.1-0.7-0.1-1.1-0.2
			c-1.4,0.3-2.8,0.3-4.7-0.1c-0.1,0-0.5,0.2-0.5,0.2c-0.3,0-0.8-0.3-1.2-0.2l-0.2,0.2c-0.7,0.2-1.1-0.2-1.7,0
			c-0.5,0.1-0.3,0.3-0.4,0.3c0,0-0.5-0.2-0.5-0.2c-0.3,0.1-0.3,0.3-0.5,0.4c-0.4,0.1-0.9-0.3-1.4-0.2c-0.9,0.3-1.8-0.1-2.5,0.2
			l-0.2,0.2c-0.5,0.1-1.1-0.2-1.4,0.1c-0.2-0.1-0.1-0.1-0.2-0.2c-0.4,0.1-1.4,0.3-1.9,0.2c-1-0.2-2.2-0.3-3.2-0.1
			c-0.3-0.1-0.5-0.1-0.8-0.2c-0.5,0.1-1.3,0.4-1.7,0.5c-0.2,0.1-0.6-0.3-0.9-0.2c-0.1,0-0.4,0.3-0.5,0.3c-0.2,0-0.3-0.1-0.5-0.1
			c-0.3,0.1-0.8,0.3-1.1,0.3c-0.3,0-0.2-0.1-0.3-0.2c-0.4-0.1-1.2,0.1-1.4,0.1c-0.3-0.1-0.6-0.1-0.9-0.2c-0.6,0.1-2.2,0.4-3,0.6
			c-0.3,0.1-0.7-0.2-0.9-0.1c0,0-0.1,0.2-0.2,0.2c-0.2,0.1-0.9-0.1-1.2-0.1l-0.2,0.2c-0.2,0-0.3-0.2-0.5-0.2c-0.1,0-0.1,0.2-0.4,0.2
			h-0.1c-0.1,0-0.3-0.2-0.5-0.2c-0.1,0-0.5,0.2-0.6,0.2c-0.5,0.1-1.5-0.1-1.8,0v0.2c-0.2,0-0.4-0.1-0.5-0.1
			c-0.2,0.1-0.5,0.3-0.7,0.4c-0.3,0.1-1.3-0.1-1.6,0v0.2c-0.2,0-0.9,0-1.2,0c-0.3,0-0.2-0.2-0.5-0.2c-0.9,0.2-2.1,0.5-2.9,0.6
			c-0.3,0-0.8-0.1-1.1-0.1c-0.4,0.1-0.7,0.3-1.1,0.4c-0.4,0.1-0.7-0.2-1-0.2l-0.2,0.2h-1.3c-0.1,0.1-0.1,0.2-0.2,0.2
			c-0.7,0.3-1.2-0.1-1.9,0.1c-0.2,0-0.4,0.3-0.5,0.3c-0.1-0.1-0.1-0.1-0.2-0.2c-0.4-0.1-0.7,0.3-0.9,0.3c-0.2,0-0.4-0.2-0.6-0.1
			c-0.3,0.1-1.6,0.5-1.9,0.4c-0.3-0.1-0.8-0.2-1.2-0.2c-0.4-0.1-0.8,0.1-1,0.1c-0.1,0-0.4-0.3-0.6-0.3c-0.2,0-0.7,0.2-1,0.2
			c-0.2,0-0.8-0.3-1.2-0.3c-0.2,0-0.1,0.2-0.3,0.2c-0.4,0-0.7-0.3-1-0.5c-0.4-0.1-0.7,0.1-1,0c-0.1,0-0.2-0.3-0.4-0.3
			c-0.2,0-0.3,0.3-0.6,0.2c-1.1-0.2-2.7-0.3-3.7-0.5c-0.2-0.1-0.7,0.1-0.9,0.1c-0.7-0.2-2-0.2-2.7-0.5c-0.2,0-0.4,0.1-0.6,0.1
			c-0.3-0.1-0.6-0.4-0.9-0.5c-0.3-0.1-0.6-0.1-0.9-0.2c-0.2-0.1-0.3-0.4-0.5-0.5h-0.8c-0.8-0.3-1.9-0.7-2.7-0.9h-0.8
			c-0.3-0.1-0.6-0.5-0.9-0.6c-0.2-0.1-0.6-0.3-0.7-0.3c-0.1,0-0.2,0.1-0.3,0.1c-0.2-0.1-0.5-0.5-0.9-0.6c-0.5-0.3-1.5-0.3-2-0.5
			c-0.1-0.1-0.3-0.3-0.5-0.4c-0.2-0.1-0.2,0.2-0.4,0c0-0.1-0.1-0.2-0.1-0.3c-0.4-0.3-1.8-0.4-2.3-0.8c-0.1-0.1-0.1-0.3-0.2-0.4
			c-0.4-0.2-0.9-0.1-1.3-0.2c-0.2-0.1-0.3-0.3-0.5-0.4c-0.4-0.2-0.8-0.1-1.2-0.3c-0.4-0.2-0.6-0.8-1.2-0.5c-0.2-0.1-0.4-0.5-0.6-0.5
			h-0.5c-0.2-0.1-0.4-0.3-0.5-0.4c-0.2-0.1-0.5-0.1-0.7-0.2l-0.2-0.3c-0.6-0.4-1.3-0.6-1.9-1c-0.1-0.1-0.2-0.3-0.3-0.4h-0.5
			c-0.1-0.2-0.3-0.3-0.4-0.5c-0.3-0.2-0.5-0.1-0.9-0.3c-0.1-0.1-0.3-0.3-0.4-0.4c-0.3-0.2-0.8,0-0.9-0.1V346
			c-0.2-0.1-0.4-0.3-0.6-0.4h-0.5c-0.1-0.2-0.2-0.4-0.3-0.5c-0.2,0-0.4-0.1-0.5-0.1c-1.3-0.7-2.8-1.4-4-2.2
			c-0.4-0.2-0.9-0.2-1.2-0.4c-0.4-0.2-0.8-0.6-1.2-0.8c-0.2-0.1-0.8-0.1-1-0.2c-0.1,0-0.1-0.3-0.2-0.3c-0.2-0.2-0.7-0.1-0.9-0.3
			c-0.2-0.2-0.6-0.6-0.9-0.7c-0.3-0.1-0.5,0-0.7-0.2c-0.1-0.2-0.3-0.4-0.4-0.6c-0.2-0.1-1-0.4-1.2-0.5h-0.5v-0.2
			c-0.1,0-0.4-0.2-0.4-0.2c-0.2,0-0.4,0.2-0.7,0.2c-0.4-0.1-0.7-0.7-1.1-0.9c-0.8-0.3-1.5-0.3-2.3-0.6c-0.5-0.2-1.1-0.7-1.6-0.9
			h-0.9c-0.3-0.1-0.8-0.4-1.1-0.5H321c-0.9-0.4-2.2-0.8-3.1-1.1h-1.2c-1.8-0.5-3.7-1.2-5.6-1.6c-0.8-0.2-1.6-0.1-2.4-0.2
			c-0.2,0-0.5,0.1-0.6,0.1l-0.3-0.3h-0.9c-0.4-0.1-1-0.4-1.5-0.5c-0.2,0-1-0.1-1.2-0.2c-0.2,0-0.3,0.1-0.5,0.1
			c-0.2,0-0.5-0.3-0.6-0.3c-0.2,0-0.3,0.1-0.5,0.1c-0.2-0.1-0.5-0.3-0.7-0.4c-0.4-0.1-0.8,0-1.2-0.2l-0.3-0.3
			c-0.6-0.2-1.2,0-1.6-0.2c-0.1-0.1-0.3-0.3-0.5-0.4c-0.3,0-0.6-0.1-0.9-0.1c-0.6-0.2-1.5-0.2-2.1-0.6h-0.2c0.1-0.2,0.1-0.2,0.3-0.3
			v-0.2c-0.4-0.1-1,0.2-1.6,0.1c-0.5-0.1-1.4-0.3-1.8-0.6c-0.2-0.2,0-0.2-0.2-0.5c-0.1-0.1-0.1,0-0.2-0.1v-0.3h-0.2v-0.2
			c0,0-0.1-0.1-0.1-0.1c-0.5,0-0.5,0-0.5,0.3c-1.3,0-2.3-0.7-3.4-1c-0.1-0.1,0-0.1-0.1-0.2v-0.2h0.5c0.1,0,0-0.2,0.3-0.2
			c-0.1-0.2-0.2-0.2-0.1-0.4c-0.1-0.2-0.3-0.4-0.5-0.6c-0.5,0.1-1,0.1-1.6,0.2c-0.4-0.1-0.7-0.6-1-0.8c0-0.5,0.3-1.2,0.8-1.2
			c0-0.2-0.1-0.3-0.2-0.5c0.3-0.2,0.5-0.5,0.8-0.6c0.7-0.4,3,0.2,3.8,0.1c0.3,0,1.1-0.2,1.6-0.1c0.2,0.1,0.4,0.2,0.6,0.2
			c0.3,0,0.4-0.4,0.6-0.5h0.8c0.4-0.1,1-0.2,1.4-0.3c0.7-0.2,1.5,0,1.8-0.2h0.2c-0.3,0.4-0.4,0.5-0.4,1c-0.2,0-0.2,0-0.3,0.1
			c-0.2,0.1-0.2,0.1-0.4,0.2c0.1,0.3,0,0.2,0.2,0.3c-0.1,0.2,0,0.1-0.3,0.2c0,0.2,0.1,0.1,0,0.2c0.3,0.6,1.1,0.1,1.3-0.2h0.1
			c-0.1-0.2,0-0.1-0.2-0.2c0.2-0.1,0.5,0,0.8-0.1c0.1-0.1,0.3-0.3,0.5-0.4c0.1-0.2,0.2-0.4,0.2-0.6c-0.2-0.5-0.6-0.4-0.9-0.6h-0.2
			c0.1-0.1,1.8-0.5,1.9-0.5c0.3,0,0.8,0.2,1.2,0.1c0.3-0.1,0.7-0.3,0.9-0.4c0.4-0.2,1.1-0.1,1.6-0.2c0.6-0.2,1.3-0.7,2.1-0.8v0.2
			c2,0,3.6-0.5,5.2-0.9h1c0.5-0.1,1-0.3,1.4-0.5c0.4,0,0.8-0.1,1.2-0.1c0.5-0.2,0.8-0.7,1.3-0.9c0.9-0.3,1.6,0.1,2.5-0.2
			c0.4-0.1,0.8-0.3,1.2-0.4c0.3,0,0.6-0.1,0.9-0.1c0.3-0.1,0.7-0.5,1-0.5c0.3,0,0.6,0.1,0.9,0.1c0.3-0.1,0.9-0.3,1.2-0.5
			c0.6-0.2,1.6-0.2,2.1-0.3c0.2-0.1,0.5,0.1,0.6,0.1c0.2-0.1,0.5-0.3,0.8-0.4c0.4-0.1,0.8,0.2,1.2,0c0.1-0.1,0.1-0.2,0.2-0.2
			c0.5-0.2,1.1,0,1.6-0.2l0.2-0.2c0.4-0.1,0.8,0,1,0l0.4-0.2c0.2,0,0.9,0,1.3-0.1h1.7l0.2-0.2c0.4-0.1,0.8,0.2,1.2,0.2
			c0.2-0.1,0.6-0.4,0.9-0.5c0.3,0,0.5,0.1,0.8,0.1c0.3-0.1,0.7-0.5,1-0.5c0.6-0.1,1.6,0.1,2.5-0.1c0.9-0.2,2.1-0.3,3-0.5
			c0.2,0,0.3,0.1,0.5,0.1c0.1,0,0.5-0.2,0.7-0.2h0.5l0.3-0.3c0.2-0.1,1.6,0.1,1.8,0.1c1-0.2,2.1-0.5,2.9-0.5c0.4,0,1.1,0.2,1.6,0.1
			c2.8-0.7,5.9-0.3,8.3-0.9c0.6-0.2,1.4,0,1.8,0.1c0.2-0.1,0.7-0.3,1.1-0.2c0.1,0,0.5,0.2,0.6,0.2c0,0,0.2-0.2,0.3-0.2
			c0.4-0.1,0.8,0.1,1.4,0.1c1.3-0.1,2.3,0,3.3-0.2h3.3c0.2,0.1,0.4,0.2,0.8,0.2c1.3-0.1,3.5,0.2,4.8,0.5h1.1
			c0.6,0.1,1.5,0.2,1.9,0.3c0.3,0,0.5-0.1,0.8-0.1c0.3,0.1,0.5,0.3,0.8,0.4c0.3,0,0.6-0.1,0.9-0.1c1.9,0.4,4.1,1.2,5.7,0.9
			c0.1,0,0.6,0.3,0.8,0.4h0.9c0.5,0.1,1.3,0.4,1.8,0.5c0.4,0,0.9-0.1,1.3,0.1c0.4,0.2,1.2,1,1.7,0.7c0.4,0,0.3-0.1,0.5-0.2l0.1-0.1
			c0.2,0.3,0.2,0.4,0.4,0.7c0.3-0.1,0.3-0.1,0.4-0.3c0.8,0.1,1.1,0.5,1.8,0.8c1,0.3,1.5,0.1,2.3,0.5c0.8,0.3,1.7,0.9,2.6,1.2
			c2,0.7,3.9,0.9,5.9,1.6c0.4,0.1,1,0,1.2,0.1c0.4,0.1,1.5,0.5,1.9,0.5c0.3,0,1.4-0.2,1.6-0.1c1.3,0.6,4.7,0.6,6,0.7
			c0.5-0.1,0.9-0.2,1.4-0.2c1,0.1,2.3,0.2,3-0.2c0.7,0.2,1.6-0.1,2.1-0.2c0.3,0,0.6,0.1,0.9,0.1c0.1,0,0.1-0.3,0.2-0.3
			c0.1,0,0.3,0.1,0.4,0.1c0.1,0,0.4-0.2,0.5-0.2h0.7c0.1,0,0.3-0.2,0.4-0.2c0.2,0,0.3,0.3,0.6,0.2c0.8-0.3,1.9-0.7,2.6-0.9
			c0.2-0.1,0.5,0.1,0.9,0c0.9-0.3,2.2-0.4,3.2-0.8c0.2-0.1,0.5-0.3,0.6-0.4c0.4-0.2,0.8-0.1,1.2-0.3c0.1-0.1,0.1-0.2,0.2-0.2
			c0.2,0,0.3,0.1,0.5,0.1c1.1-0.5,2.7-1,4-1.4c0.6,0,1.2-0.1,1.8-0.1c0.4-0.1,1.1-0.3,1.6-0.4c0.8-0.2,2.3,0,2.6-0.7
			c0.8,0.1,2,0.1,2.6-0.1c0.3-0.1,2.1,0.1,2.2,0.1c0,0,0.2-0.3,0.3-0.3c0.3,0,0.5,0.1,0.8,0.1c0.4,0,1.1-0.2,1.7-0.3
			c0.4-0.1,0.4,0.3,0.7,0.2c0.1-0.1,2-0.4,2.2-0.4c1.2,0.4,3.8,0.2,5.3,0.2c0.8,0,2.1-0.3,3-0.2c0.1,0,1.3,0.2,1.8,0.2
			c0.4-0.1,0.6-0.3,1.2-0.2c2,0.4,3.7,0.3,5.7,0.8c0.9,0.2,1.9-0.2,2.4-0.1c0.4,0.1,1.1,0.3,1.4,0.4c0.3,0.1,1.1-0.2,1.5-0.1
			c0,0,0.4,0.2,0.5,0.2h1.7c0.4,0.1,0.9,0.2,1.4,0.2c0.3,0,0.5-0.1,0.8-0.1c1.1,0.3,2.4,0.5,3.7,0.8h2c1.7,0.4,3.8,0.6,5.5,1
			c0.6,0,1.2,0.1,1.9,0.1c0.4,0.1,0.8,0.3,1.2,0.4c1.6,0.4,2.9,0.2,4.4,0.5c2.4,0.5,5,0.8,7.4,1.4c1.5,0.4,3.7-0.2,4.6,0.7
			c-0.2-0.1-0.4,0-0.7,0c-0.1,0.3-0.2,0.8-0.4,0.9c0,0.1,0.1,0.2,0.1,0.2c0.5,0.1,0.8,0.1,1.3,0c0.2-0.7,0.3-0.4,0-1.1
			c0.1-0.1,0.1-0.1,0.2-0.2c0.9,0,0.9,0.5,1.5,0.7c0.9,0.2,1.8-0.9,2.8-0.2h0.2c-0.1,0.5-0.7,1-0.5,1.5c0,0.4,0.1,0.5,0.4,0.6
			c0.1,0.1,0.5,0.1,0.6,0.2c0.7-0.2,0.8-0.8,1.2-1.2c-0.1-0.4-0.3-0.6-0.5-0.8c0.1-0.1,0.1-0.1,0.2-0.2c0.2-0.1,0.7,0,0.9-0.2
			c0.3,0,0.4,0,0.6,0.2c0,0.7-0.3,0.4-0.5,0.8c-0.4,0.6,0.3,1.4-0.1,1.9c-0.1,0.2-0.4-0.3-0.5-0.3c-0.3,0-0.5,0.1-0.8,0.1
			c-0.2,0.2-0.4,0.2-0.5,0.3c-0.1,0.1-0.2,0.4-0.3,0.5c0,0.2,0,0.2,0.1,0.2v0.4c0.1,0.3,0.3,0.1,0.6,0.2c0.6,0.2,1.7,1,2-0.2
			c0.2,0.1,0.8,0.3,1.1,0.1c0.3-0.1,0.3-0.1,0.5-0.2c0.1-0.7,0-2.5-0.3-3c0.1-0.1,0.1,0,0.2-0.1c0-0.2,0-0.1,0.1-0.2
			c0.2-0.9,1.5-0.5,2.3-0.6v0.1c-0.6,0.1-0.8,0.4-1.2,0.7c0,0.4,0,1.6,0,1.6v0.5c0.3,0.1,0.5,0.2,0.9,0.2c0,0.2,0,0.2,0.1,0.2
			c0.1,0.2,0.4,0.3,0.7,0.4c-0.1,0.4-0.3,0.5-0.3,1h-0.2c0-0.1,0.1-0.1,0.1-0.3c-0.4-0.1-0.9-0.5-1.3-0.2c-0.3,0.1-0.3,0.5-0.5,0.7
			c0.1,0.5,0.3,0.9,0.6,1.2c0.1,0.1,0.1,0,0.2,0.1v0.2c0.3-0.1,0.6-0.2,0.9-0.2c0.1-0.2,0.2-0.2,0.2-0.5c0.4,0.2,1.1,0.7,1.6,0.3
			h0.1C530.7,325.8,530.6,326,530.3,326.2z M287.4,326.2h0.3C287.5,326.2,287.5,326.2,287.4,326.2z M393.6,313.4L393.6,313.4
			c0.1,0,0.1-0.1,0.2,0.1C393.8,313.5,393.5,313.5,393.6,313.4z M541.3,314.2c-0.2,0.5-1.8,1.3-2.3,1.6c-0.6,0.4-1.3,0.8-2,1
			c-0.6,0.2-1,0-1.6,0.2c-0.3,0.1-1,0.2-1.3,0.2c-0.8-0.1-1.5,0-2.3,0c-0.3,0-0.6-0.1-0.9-0.1c-1.5,0.3-4.6,0.3-5.8,0.1
			c-0.6-0.1-1.7,0.1-2.2,0c-0.4,0-0.9,0.1-1.3,0.1c-1.3-0.3-2.6-0.1-4-0.5c-0.6-0.1-1,0.2-1.6,0c-0.3-0.1-1.2-0.3-1.6-0.2
			c-0.1,0-0.4,0.1-0.6,0.1c-1.2-0.3-2.7-0.6-4-0.9c-1.1-0.3-2.4-0.3-3.3-0.5c-1-0.3-2.1,0.1-3-0.2c-0.9-0.3-2-0.6-2.7-0.9h-0.9
			c-0.6-0.1-1.2-0.1-1.9-0.2c-2.3-0.6-5.4-1.3-8-1c-0.8-0.4-2.5-0.4-3.4-0.7c-0.6-0.2-1.5,0.1-2,0.1c-0.6-0.1-1.6-0.3-2.5-0.4
			c-0.5-0.1-1.2,0.2-1.8,0c-0.5-0.1-1.2-0.4-1.9-0.2c-0.4,0.1-0.7,0-1.2,0.2c-0.1,0-0.2,0.2-0.4,0.2c-0.6-0.4-0.6,0.1-1.2-0.2
			c-0.5-0.2-1-0.4-1.6-0.5c-0.2,0-0.5,0.1-0.5,0.1c-0.5-0.1-1.1-0.5-1.8-0.5c-0.3,0-1.6,0.3-2.4,0.2c-0.3-0.1-1.9,0.1-2.2,0
			c-0.2-0.1-0.7-0.4-1.4-0.2c-0.3,0.1-0.6,0.2-0.9,0.2c-0.7-0.4-1.3,0.1-2.1,0c-0.8-0.2-1.8-0.2-2.6,0h-1.6c-0.1,0-0.4,0.2-0.5,0.2
			c-0.6,0.1-1.2-0.4-1.9-0.2c-0.4,0.1-1,0-1.5,0.1c-0.9,0.1-2,0.4-3,0.7c-0.4,0.1-0.6-0.2-0.8-0.2c-0.2,0-0.3,0.1-0.5,0.2
			c-0.3,0.1-0.8-0.2-1.2-0.1c-0.6,0.2-1.5,0.4-2,0.6c-0.2,0.1-0.6-0.1-0.9,0c-0.2,0.1-0.5,0.3-0.7,0.4c-0.3,0-0.5-0.1-0.8-0.1
			c-0.1,0-0.3,0.3-0.5,0.3c-0.3,0.1-0.7,0-0.9,0.1c-0.2,0-0.6,0.3-0.8,0.4c-0.3,0.1-0.4-0.1-0.7,0l-0.3,0.3c-0.5,0.2-0.8,0-1.1,0.1
			c-0.2,0-0.7,0.3-0.9,0.4c-0.4,0.2-0.8,0.1-1.2,0.3c-0.2,0.1-0.4,0.4-0.5,0.5c-0.3,0-0.5-0.1-0.8-0.1c-0.3,0.1-0.7,0.4-1,0.5
			c-0.2,0.1-0.5,0-0.6,0.1c-0.4,0-0.4,0-0.5-0.2h-0.1c0.3-0.2,0.5,0,0.7-0.2c0.4-0.2,0.3-0.6,0.5-0.9v-0.2c-0.2,0-0.5,0-0.8,0.1
			c-0.1-0.1-0.2-0.3-0.2-0.4c-0.3,0.1-0.3,0.1-0.5,0.2c0.1,0.4,0.3,0.9,0.1,1.2c0.1,0.2,0,0.1,0.2,0.2c-0.1,0.1-0.7,0.7-0.9,0.7
			c-0.3,0.1-0.5-0.1-0.8,0c-0.3,0.1-0.5,0.3-0.7,0.4c-0.1,0-0.7-0.2-1.1-0.1c-0.2,0.1-0.6,0.5-0.9,0.6c-0.4,0.1-0.5-0.1-0.8,0
			c-0.9,0-0.4-0.2-0.8-0.5c-0.4-0.2-0.8-0.4-1.2-0.5c-0.1,0.1-0.3,0.2-0.4,0.3c0,0.4-0.2,0.7,0.2,0.9c-0.1,0.1,0,0.1-0.1,0.2v0.1
			c-0.2-0.1-0.3-0.1-0.4-0.3c-0.9,0-1.1,0.1-1.5,0.5c-0.2,0.1-0.7-0.1-0.9,0c-0.1,0-0.6,0.1-0.7,0.2v0.2c-0.2,0-0.3-0.1-0.5-0.1
			c-1,0-1.6-0.2-2.4,0.1c-0.1-0.1,0-0.1-0.2-0.2v-0.1c0.5-0.3,0.5-0.5,0.6-1.1c-0.2-0.2-0.5-0.3-0.7-0.5c-0.4,0-0.5,0.1-0.7,0.2v0.3
			c-0.3-0.1-0.5-0.2-0.8-0.1c-0.2,0.1-0.2,0.1-0.3,0.2c0,0.3,0.1,0.6,0,0.7v0.2c0.5,0.1,1.1,0.1,1.7,0.1l0.1,0.1
			c-0.1,0.2-0.2,0.2-0.3,0.3c0,0-2.4-0.1-2.9-0.2c-0.3-0.1-0.3-0.2-0.7-0.2c-0.2-0.4-0.5-0.3-0.5-0.9c-0.1,0-0.2-0.1-0.2-0.1
			l-0.5,0.5c0.1,0.1,0.1,0.1,0.2,0.2l-0.3,0.3c-0.7,0-1.4-0.1-2-0.2c-0.4-0.1-0.9,0.2-1.1,0.2c-0.1,0-0.3-0.4-0.4-0.4
			c-0.2-0.1-0.4,0.1-0.5,0.1c-0.1,0-0.5-0.3-0.6-0.3c-0.3-0.1-0.3,0.2-0.6,0c0,0-0.2-0.2-0.2-0.2c-0.3-0.1-0.6,0.2-0.8,0.2l-0.3-0.3
			h-0.7c-0.3-0.1-0.7-0.2-1.2-0.2c-0.1-0.2-0.2-0.3-0.2-0.5h-0.2c0,0.2,0,0.2-0.1,0.2c-0.1,0.1-1.7-0.4-2-0.5
			c-0.2,0-0.6-0.1-0.9-0.3c-0.1-0.1-0.1-0.2-0.2-0.3c-0.2-0.1-0.6,0.1-0.9,0l-0.3-0.3c-0.4-0.1-1,0-1.2-0.1
			c-0.3-0.1-0.7-0.3-1.1-0.3v-0.2c-0.1,0.1-0.1,0-0.2,0.1c-0.3,0-0.3,0-0.5-0.2c0,0,0.3-0.9,0.4-1c-0.1-0.3-0.1-0.3-0.2-0.4
			c0,0-0.6,0-0.8-0.1c-0.2,0.3-0.4,0.6-0.6,0.9c-0.9-0.1-1.7-0.6-2.6-0.8c-0.3,0-0.7,0.1-1,0.1c-0.6-0.1-1.4-0.3-1.9-0.4
			c-0.3-0.1-0.7,0.1-0.9,0.1c-0.2-0.1-0.8-0.4-1.1-0.5h-0.8c-0.2-0.1-0.9-0.3-1.1-0.3c-0.2,0-0.4,0.1-0.5,0.1
			c-1.1-0.2-2.4-0.5-3.7-0.9c-0.5-0.2-0.6,0.2-1,0.1c0-0.1-0.1-0.1-0.1-0.2c-0.3-0.1-0.5,0.1-0.7,0.1c-0.4-0.1-1-0.4-1.4-0.5
			c-0.2,0-0.3,0.1-0.5,0.1c-0.8,0-1.7,0-1.9-0.5c-0.3,0.1-0.2,0.1-0.4,0.2c-0.2,0-0.1-0.2-0.3-0.2c-0.6-0.3-1.5,0.1-1.9,0
			c-0.1,0-0.4-0.2-0.5-0.2c-0.3,0-0.3,0.3-0.7,0.2c-0.1,0-0.4-0.3-0.5-0.4c-0.6-0.2-1.5,0.5-2.1,0.2c-0.2-0.1-0.8-0.4-1.3-0.2
			c-0.1,0-0.1,0.3-0.3,0.2c0,0-0.1-0.2-0.2-0.2c-0.5,0-1,0.1-1.5,0.1c-0.6-0.1-1.8-0.1-2.6-0.2c-0.7-0.1-2.1,0.3-3,0.4
			c-0.4,0.1-1.3,0.1-1.9,0.2c-0.3,0-0.6-0.1-0.9-0.1c-0.7,0.2-1.3,0.3-1.9,0.5c-0.4,0.1-0.7-0.3-1-0.2c-0.4,0-1,0.2-1.5,0.3
			c-0.5,0.1-1.2-0.2-1.7-0.1c-0.3,0.1-0.8,0.2-1,0.3c-0.7,0.2-1.7-0.2-2.3-0.1c-0.6,0.1-1.2,0.3-1.9,0.5c-0.6,0.2-1.1,0-1.5-0.1
			c-0.3,0-0.7,0.2-0.9,0.2c-0.9,0.1-1.9,0.2-2.8,0.2c-0.3,0.1-0.8,0.3-1.1,0.4c-0.5,0-0.9-0.1-1.4-0.1c-0.3,0.1-0.6,0.3-0.9,0.4
			c-0.7,0.2-1.3-0.2-1.9,0c-0.4,0.1-1,0.2-1.4,0.3l-0.2,0.2c-0.2-0.1-0.5-0.1-0.7-0.2c-0.1,0.1-0.3,0.3-0.5,0.4
			c-0.3,0.1-0.8-0.1-1.2,0c-0.2,0.1-0.6,0.3-0.8,0.4c-0.4,0.2-2.2,0.1-2.3,0.1c-0.4,0-0.9-0.1-1.3-0.1c-0.2,0.1-0.8,0.2-1.1,0.3
			c-0.1,0.1-0.1,0.2-0.2,0.2c-0.1,0-0.2-0.2-0.5-0.2c-0.2,0-0.4,0.3-0.5,0.3c-0.7,0.1-1.5,0.2-2.2,0.2l-0.3,0.3
			c-0.3,0-0.5,0.1-0.8,0.1c-0.1,0.1-0.2,0.2-0.2,0.3c-0.3,0.1-0.8-0.3-1.3-0.2c-0.3,0.1-0.7,0.3-1,0.3c-0.4,0.1-1-0.1-1.4,0.1v0.2
			c-0.3,0.2-1,0-1.4,0.2c-0.2,0.1-0.4,0.4-0.6,0.5c-0.2,0.1-0.6-0.1-0.8-0.1c-0.4,0.1-0.7,0.4-1.1,0.5c-0.4,0.1-0.8-0.1-1.2,0
			c-0.6,0.2-1.5,0.6-2.2,0.8c-0.7,0.2-1.3,0-2,0.2c-1.2,0.3-2.7,0.7-3.9,1.1c-0.3,0.1-0.8-0.1-1.2,0c-0.5,0.1-1.2,0.2-1.6,0.3h-1
			c-0.2,0.1-0.5,0.3-0.7,0.4c-0.3,0.1-0.7,0.1-1,0.2l-0.3,0.3c-0.5,0.2-0.8-0.2-1.2,0c-0.6,0.2-1.2,0.2-1.9,0.4h-1.6
			c-0.4,0.1-0.8,0.4-1.2,0.5H294c-0.5,0.1-1.2,0.3-1.7,0.4c-0.6,0.1-1.5-0.1-1.9,0c-0.1,0-0.3,0.3-0.4,0.3c-0.3,0.1-1-0.2-1.3-0.3
			c-0.2,0-0.5,0.1-0.7,0.1c-0.7,0-1-0.1-1.7-0.1v-0.2c-1.4,0.3-4.1-0.2-5.3-0.6c-0.6-0.2-1.1-0.1-1.6-0.5c-0.2-0.2-0.2-0.5-0.2-0.5
			c-0.1-0.1-0.5-0.1-0.6-0.2c-0.3-0.2-0.8-0.4-1-0.7c-0.1-0.1,0-0.1-0.1-0.2c-0.3,0-0.3-0.1-0.6-0.2c-0.1-0.2-0.2-0.4-0.5-0.5
			c0.1-0.4,0.4-1.1-0.1-1.4c0.1-0.1,0.3-0.2,0.4-0.2v-1.2c0.1,0,0.2-0.1,0.2-0.1c0.1-0.2,0.1-0.7,0.1-0.8c0.1-0.6,0.9-0.7,1.2-1.2
			c0.1-0.3,0-0.5,0.3-0.7h0.3c0.3-0.1,0.3-0.3,0.7-0.4c0.1-0.6,0.6-0.3,0.9-0.6c0.3-0.3,0.6-0.8,1-0.9c0.4-0.1,0.5,0.2,0.8,0.2
			c0.8-0.2,1.6-0.8,2.3-1.2c0.2-0.1,0.4,0,0.6-0.2c2.4-1.4,4.9-3,7.4-4.4c0.8-0.4,1.7-0.6,2.5-1.1l0.5-0.5c0.2,0,0.4-0.1,0.6-0.1
			c0.6-0.3,1.4-0.8,1.9-1.2c0.4-0.3,0.9-0.3,1.4-0.5c0.2-0.1,0.3-0.3,0.5-0.4c0.3-0.1,0.6-0.1,0.9-0.2c0.2-0.1,0.5-0.3,0.7-0.5
			c0-0.2,0-0.4-0.1-0.5v-0.1c0.4,0,0.5-0.1,0.9-0.2c0.1-0.7,1-0.9,1.6-1.2c1.3-0.8,2.6-1.7,3.7-2.6c0.4-0.3,0.9-0.3,1.3-0.6
			c0.1-0.1,0-0.1,0.1-0.2c0.4-0.1,0.3-0.3,0.5-0.5c0.4-0.3,0.9-0.3,1.2-0.5c0.1-0.1,0.3-0.4,0.5-0.5c0.3-0.1,0.6-0.2,0.9-0.3
			c0.3-0.2,0.8-0.7,1.1-0.9c0.5-0.2,0.8-0.1,1.2-0.3l0.6-0.6c0.4-0.2,0.8-0.2,1.1-0.5c0.1-0.1,0.2-0.4,0.3-0.5
			c0.5-0.3,1.2-0.4,1.6-0.8c1.2-1.2,2.6-1.9,4-2.8c0.7-0.5,2.1-1.7,2.9-1.9v-0.3c1-0.1,1.7-1,2.3-1.4c0.4-0.2,0.8-0.3,1.2-0.5
			c0.3-0.2,0.4-0.6,0.7-0.8c0.2-0.1,0.5-0.2,0.7-0.2c0.3-0.2,0.7-0.6,1-0.9c0.2-0.1,0.4-0.2,0.6-0.2c0.6-0.4,1-1.1,1.6-1.5
			c0.1,0,0.3-0.1,0.4-0.1c0.5-0.2,0.8-0.8,1.2-1.1c0.2-0.1,0.4-0.1,0.5-0.2c0.1-0.1,0.2-0.4,0.3-0.5c0.4-0.3,0.9-0.4,1.3-0.7
			c0.1-0.1,0-0.2,0.1-0.3c0.2,0,0.3-0.1,0.5-0.1c0.1-0.1,0.2-0.4,0.4-0.5c0.2-0.1,0.4,0,0.5-0.2c0.3-0.2,0.6-0.6,0.9-0.8h0.3
			c0.3-0.2,0.6-0.6,0.9-0.8c0.5-0.3,1.1-0.3,1.6-0.6c0.4-0.2,0.8-0.7,1.2-0.9c0.4-0.2,0.9-0.2,1.3-0.5c0.1-0.1,0.1-0.3,0.2-0.4h0.4
			c0.2-0.1,0.3-0.3,0.5-0.4c0.2-0.1,0.5-0.2,0.7-0.2c0.1-0.1,0.1-0.3,0.2-0.4h0.5c0.4-0.1,0.7-0.6,1.1-0.8c0.7-0.4,1.3-0.5,2-0.9
			c0.5-0.3,1-0.8,1.5-1.1c0.3-0.1,0.5-0.2,0.8-0.2c0.4-0.2,0.7-0.6,1.1-0.9c0.2-0.1,0.4,0,0.6-0.2c0.1-0.1,0.1-0.3,0.2-0.4h0.3
			l0.3-0.3c0.3-0.2,0.6-0.1,0.9-0.2c0.1-0.1,0.1-0.3,0.2-0.4c0.2-0.1,0.5-0.1,0.7-0.2c0.2-0.1,0.5-0.3,0.7-0.4h0.3l0.5-0.5
			c0.2,0,0.5-0.1,0.7-0.1c0.3-0.2,0.3-0.4,0.9-0.4v-0.2c0.5,0,1.4-0.3,1.8-0.5c0.1-0.1,0.2-0.3,0.3-0.4c0.4-0.2,0.8,0,1.2-0.2
			c0.2-0.1,0.6-0.4,0.9-0.5c0.3,0,0.6-0.1,0.9-0.1c0.6-0.2,1.4-0.5,1.9-0.6c0.4,0,0.8-0.1,1.2-0.1c0.1-0.1,0.5-0.3,0.6-0.4
			c0.5-0.2,1.4,0,1.9-0.2V259c0.2,0,0.4,0.1,0.6,0.1c0.4-0.1,1.1-0.2,1.7-0.4c0.6-0.2,0.8,0.1,1.3,0c0.5-0.1,1.1-0.2,1.5-0.2
			c0.4-0.1,0.6,0.3,0.9,0.2c2.1-0.7,4.1-0.3,6.1,0.2c0.7,0.2,1.6,0,2.1,0.1c0.2,0,0.4,0.3,0.6,0.4c0.2,0,0.5,0.1,0.7,0.1
			c0.2,0.1,0.6,0.2,0.8,0.3c0.6,0.2,1.1,0.1,1.8,0.2c1,0.3,2.2,0.5,3.2,0.9c0.4,0,0.8,0.1,1.2,0.1c0.7,0.3,1.7,1,2.5,0.8
			c0,0.1,0.1,0.2,0.1,0.2c0,0,0.6,0.3,0.6,0.3c0.7,0.2,1.7,0.2,2.6,0.6c0.3,0.1,1.1,0.4,1.4,0.6c0.2,0.1,0.4,0.4,0.6,0.5h0.5
			c0.2,0.1,0.3,0.4,0.5,0.5c0.2,0.2,0.7,0.2,0.9,0.5v0.2c0.2,0.2,0.5,0.2,0.8,0.4c0.4,0.2,0.7,0.7,1,0.9c0.3,0.1,0.6,0.2,0.9,0.3
			c0.5,0.3,0.9,0.8,1.4,1.1c0.2,0.2,0.5,0.1,0.8,0.2c0.3,0.2,0.6,0.7,0.9,0.9c0.2,0.2,0.5,0.1,0.8,0.2c0.4,0.1,0.9,0.4,1.2,0.6
			c1.1,0.6,2.1,1.5,3.2,2.1c0.4,0.2,0.7-0.2,1-0.1c0.1,0.1,0.3,0.3,0.4,0.4c0.7,0.3,2.2-0.6,3,0.3c0.4-0.1,0.6-0.3,0.9-0.4h1.2
			c0.2-0.1,0.7-0.3,1.1-0.3c0.1,0,0.2,0.2,0.4,0.2c0.1,0,0.3-0.3,0.4-0.3c0.5-0.1,0.9-0.2,1.4-0.2c0.6-0.2,1.1-0.8,1.6-1.2
			c0.3-0.1,0.7-0.2,1-0.3c0.5-0.2,1-0.6,1.4-0.9c0-0.2,0.1-0.4,0.1-0.5c1-0.1,1.5-0.8,2.2-1.1c0.4-0.1,0.8-0.1,1.2-0.2l1-1
			c0.3,0,0.6-0.1,0.9-0.1c0.7-0.3,1.4-0.9,2.1-1.2c0.5-0.2,0.9,0,1.4-0.2c0.8-0.2,1.6-0.8,2.4-1c1-0.3,2.1-0.2,3.1-0.5
			c0.5-0.2,1-0.5,1.6-0.6c0.4-0.1,0.8,0.2,1.2,0.1c2.5-0.6,6.1-0.5,8.5-1c0.5-0.1,1.4,0.1,1.8,0.1c2.2-0.2,4.3,0.3,6,0.8
			c0.2,0.1,0.7-0.1,1.1,0.1c0.3,0.1,0.7,0.3,1,0.4c0.4,0.1,1,0,1.2,0c0.4,0.1,0.6,0.6,1,0.7c0.3,0.1,0.8-0.1,1.1,0.1
			c0,0.1,0.1,0.2,0.1,0.2c0.4,0.3,1,0.2,1.5,0.4c0.2,0.1,0.5,0.4,0.7,0.5c0.3,0.1,0.7,0.2,1,0.2c0.6,0.3,1.4,0.8,2,1.1
			c0.5,0.2,0.9,0.1,1.5,0.2c0.4,0.1,0.8,0.4,1.1,0.7c0,0.1,0.1,0.2,0.1,0.2c0.4,0.2,0.9,0.1,1.2,0.4c0.3,0.2,0.5,0.8,0.8,1
			c0.4,0.3,1,0.3,1.5,0.5c0.2,0.1,0.6,0.5,0.9,0.6h0.3c0,0.1,0.1,0.2,0.1,0.2c0.1,0,0.3,0.1,0.4,0.1c0.1,0.1,0.1,0.2,0.2,0.2
			c0.3,0.2,0.7,0.1,0.9,0.3c0.1,0.1,0.1,0.2,0.2,0.3c0.6,0.4,1.2,0.6,1.9,1c0.4,0.2,0.7,0.6,1.1,0.9c0.7,0.4,1.5,0.5,2.2,0.9
			c0.3,0.4,0.7,0.8,1,1.2c0.2,0.1,0.4,0.2,0.6,0.2c0.6,0.4,1.1,1.2,1.6,1.7c0.2,0.2,0.7,0.6,0.9,0.7c0.1,0,0.3,0.1,0.4,0.1
			c0.2,0.1,0.3,0.5,0.5,0.6c0.5,0.3,0.9,0.6,1.3,0.9c0.4,0.3,0.6,0.8,1,1.2c0.3,0.3,0.8,0.4,1.1,0.6c0.3,0.3,0.5,0.7,0.9,0.9v0.2
			c0.4,0.1,1.8,1.1,2,1.5c0.1,0.1,0.1,0.3,0.2,0.4h0.2c0.1,0.1,0.2,0.3,0.3,0.4h0.2c0.1,0.1,0.2,0.4,0.3,0.5c0.4,0.4,0.9,0.6,1.3,1
			c0.1,0.1,0.1,0.3,0.2,0.4c0.8,0.6,1.5,1,2.3,1.6c0.2,0.2,0.4,0.6,0.6,0.8c0.4,0.3,0.7,0.4,1,0.7c0.1,0.1,0.2,0.3,0.2,0.4
			c0.3,0.3,0.8,0.3,1.1,0.6c0.2,0.2,0.3,0.5,0.5,0.6c0.1,0.1,0.3,0,0.4,0.2c0.1,0.1,0.1,0.3,0.2,0.4c0.1,0,0.3,0.1,0.4,0.1
			c0.2,0.2,0.3,0.5,0.5,0.7c0.2,0.2,0.6,0.3,0.8,0.5v0.2c0.3,0.3,0.7,0.5,1,0.8c0,0.1,0.1,0.2,0.1,0.2c0.3,0.3,0.7,0.3,1,0.5
			c0.2,0.1,0.3,0.5,0.5,0.6c0.2,0.2,0.6,0.2,0.9,0.4c0,0.1,0.1,0.2,0.1,0.2c0.2,0.1,0.3,0.1,0.5,0.2c0,0.1,0.1,0.2,0.1,0.2
			c0.2,0,0.3,0.1,0.5,0.1c0.1,0.1,1,0.9,1.1,1h0.2v0.2c0.4,0.2,0.6,0.6,0.9,0.8c0.5,0.3,1.1,0.3,1.6,0.6c0.2,0.1,0.4,0.4,0.5,0.5
			c0.5,0.4,1.1,0.4,1.6,0.7l0.5,0.5c0.4,0.2,0.9,0.2,1.3,0.5c0.7,0.5,1.5,1.1,2.3,1.4c0.4,0.1,0.8,0.3,1.2,0.4
			c0.7,0.5,1.5,1.1,2.2,1.6c0.2,0.1,0.4,0.1,0.6,0.2c0.1,0.1,0.2,0.2,0.2,0.3c0.3,0.2,0.6,0.1,0.9,0.2c1,0.5,2.1,1,3.3,1.4
			c0.7,0.2,1.4,0.2,2,0.5c0.8,0.4,1.8,1,2.6,1.3c0.4,0.2,1.5,0.6,1.6,0.5c0.9,0.4,1.3,0.9,2,1.5c0.3,0.2,1.1,0.5,1.2,0.7
			c0.1,0.2,0.2,0.8,0.3,0.9C541,312.5,541.7,313.4,541.3,314.2z M450.6,283.8h-0.7c-0.1,0.3-0.2,0.7-0.4,0.9
			c0.1,0.1,0.2,0.2,0.2,0.3c0.4,0.1,0.7,0.2,1.2,0.2c0.1-0.2,0.2-0.4,0.3-0.7c0.1-0.1,0,0,0.1-0.2
			C450.9,284.2,450.7,284.2,450.6,283.8z M396.2,286.3c0.5-0.1,0.4-0.4,0.7-0.6c-0.1-0.6-0.7-0.7-1-1.2h-0.3
			c-0.2,0.2-0.4,0.4-0.5,0.6C395.2,285.8,395.8,285.9,396.2,286.3z M412.3,286c0.1-0.1,0-0.3,0.1-0.5c-0.2-0.2-0.5-0.3-0.6-0.5
			c-0.2,0-0.3,0.1-0.5,0.1c-0.1,0.3-0.3,0.5-0.3,0.9c0.5,0.1,0.7,0.2,1,0.3L412.3,286z M433.6,286.9c0.6-0.1,0.9-0.5,1.4-0.7
			c-0.1-0.1,0-0.1-0.1-0.2c-0.1-0.4-0.5-0.5-0.7-0.9c-0.3,0-0.6-0.1-0.9-0.1c-0.1,0.1-0.2,0.1-0.3,0.2c-0.2,0.1-0.2,0.3-0.3,0.5
			C432.8,286.3,433.3,286.6,433.6,286.9z M375.1,285.2c-0.2,0.2-0.5,0.4-0.8,0.5c0,0.9,0.2,1.1,1.1,1.1c0.3,0,0.3,0.1,0.6,0
			c0.2-0.1,0.2-0.3,0.5-0.2h0.2c-0.2-0.3-0.3-0.7-0.5-1C375.8,285.5,375.6,285.3,375.1,285.2z M466.9,287.1
			c-0.1,0.1-0.2,0.1-0.3,0.2c-0.1,0.1,0,0.2-0.2,0.3c0.2,0.3,0.4,0.5,0.5,0.8c0.2,0,0.3-0.1,0.5,0.1c0.3-0.1,0.2-0.1,0.4-0.3
			c0-0.6-0.2-0.6-0.5-1C467.2,287.1,467,287.1,466.9,287.1z M401.7,291c0.1-0.1,0.1-0.2,0.2-0.2c0,0-0.3-1.2-0.4-1.4
			c-0.2,0-0.3-0.1-0.5-0.1c-0.2,0.2-0.4,0.5-0.6,0.7c0,0.4,0.2,0.5,0.3,0.8C401,290.9,401.4,290.9,401.7,291z M418.8,291.1
			L418.8,291.1L418.8,291.1l-0.2-0.1C418.7,291.2,418.6,291.2,418.8,291.1z M418.6,291.2L418.6,291.2L418.6,291.2
			c-0.2,0-0.2,0-0.3,0.1c0,0.1-0.1,0.2-0.1,0.2c0.1,0,0.1,0.1,0.3,0.1C418.5,291.5,418.5,291.3,418.6,291.2z M419.3,291.9
			c0.1-0.1,0-0.1-0.1-0.2c-0.1-0.1-0.1,0-0.2-0.1c0,0.2,0.1,0.2,0.2,0.4C419.2,291.9,419.2,292,419.3,291.9z M428.1,293.6
			c0.2,0,0.2,0.1,0.3,0.2c0.4,0,0.5-0.2,0.7-0.5c0-0.3-0.1-0.5-0.2-0.6c-0.1-0.3-0.3-0.3-0.5-0.5c-0.4,0-0.5,0.2-0.9,0.2
			C427.7,293,428.2,293.1,428.1,293.6z M442.5,294.1c0.1-0.1,0,0,0.1-0.2c-0.1-0.1-0.5-0.3-0.5-0.4c0-0.1-0.1-0.3-0.1-0.4
			c-0.2-0.1-0.4,0.1-0.5,0c0-0.1-0.1-0.3-0.1-0.4c-0.1-0.2-0.5-0.4-0.8-0.5c-0.1,0.5,0,1-0.1,1.3c0.4,0.3,0.9,0.3,1.1,0.9
			C442.1,294.4,442.3,294.3,442.5,294.1z M402.6,292.8c-0.4,0-0.4,0-0.8,0c0,0.5,0,0.7-0.2,1c0.1,0.2,0.3,0.2,0.5,0.4
			c0.5,0,0.6-0.2,0.9-0.3C402.9,293.4,402.7,293.1,402.6,292.8z M367.1,294.1c-0.1-0.1-0.1-0.1-0.3-0.1c-0.1,0.1-0.6,0.3-0.9,0.4
			c-0.2,0.4,0,0.5,0,1c1,0.2,1.1,0.1,1.7-0.3c0-0.3,0.1-0.5-0.2-0.7C367.4,294.2,367.3,294.1,367.1,294.1z M437.1,294.1
			c-0.2-0.1-0.5-0.1-0.8-0.1c-0.2,0.2-0.4,0.2-0.5,0.4c-0.1,0.1-0.1,0.2-0.2,0.2c0,0.7,0.4,0.7,0.8,1.1c0.6,0,0.9-0.1,1.4-0.2
			c0.1-0.2,0.2-0.4,0.3-0.7C437.8,294.6,437.6,294.2,437.1,294.1z M391.7,294.8c0.1-0.1,0.1,0,0.2,0l0.1-0.1v-0.2
			c-0.4-0.1-0.5-0.1-0.9-0.1c-0.2,0.3-0.2,0.8-0.4,1.1c0.1,0.3,0.4,0.3,0.6,0.5c0.4,0,0.5-0.2,0.8-0.3
			C392.1,295.2,392,295,391.7,294.8z M474.9,294.8c-0.3,0.3-0.6,0.3-0.8,0.7c-0.1,0.1,0,0-0.1,0.2c0.3,0.3,0.5,0.6,1,0.6
			c0.4,0.2,0.6-0.4,1-0.4c0.3,0,0.3,0.2,0.6,0h0.2c0-0.6-0.2-0.6-0.4-0.9C476,295,475.2,294.9,474.9,294.8z M421.3,297.6
			c0.2-0.1,0.3-0.2,0.5-0.4l0.1-0.1c-0.3-0.2-0.8-0.6-1.1-0.9h-0.5c-0.1,0.1,0,0-0.2,0.1c-0.1,0.4,0,0.7-0.1,1.1
			c0.1,0.1,0.1,0.1,0.2,0.3C420.5,297.7,421,297.7,421.3,297.6z M433.9,297.9c0-1.3-0.3-0.5-0.9-1c-0.2-0.1-0.1-0.5-0.3-0.6
			c0,0.2-0.3,1.2-0.5,1.4c0,0.5,0.2,0.5,0.5,0.7c0.5,0,0.8-0.2,1.1-0.3C433.8,297.9,433.8,298,433.9,297.9z M410.6,298.4v0.4
			c0.1,0.1,0.1,0,0.2,0.1c0.4-0.1,0.6-0.2,0.9-0.4c0-0.6-0.4-0.8-0.5-1.2c-0.7,0-0.6,0.2-0.9,0.5v0.4c0.2,0,0.4-0.1,0.5-0.1
			C410.7,298.3,410.7,298.3,410.6,298.4z M464.5,297.9c-0.1-0.1-0.2-0.2-0.3-0.4c-0.2-0.1-0.7-0.1-0.9-0.2c-0.2,0.2-0.5,0.3-0.7,0.5
			c0,0.3,0,0.3,0.2,0.4c-0.1,0.1-0.2,0.1-0.2,0.2l-0.1,0.1c0.1,0.1,0.2,0.2,0.2,0.4c0.3,0.1,0.7,0.2,1.1,0.3
			c0.2-0.2,0.5-0.3,0.7-0.5C464.4,298.3,464.4,298.2,464.5,297.9z M341.7,298.3c0,0.3,0,0.3,0,0.5c-0.3,0-0.2,0-0.3-0.2
			c-0.2,0.1-0.1,0.1-0.2,0.2c0,0.1-0.1,0.2-0.1,0.2c0.1,0.1,0,0,0.1,0.2c0.3,0.1,0.7,0,0.9,0.2c0.3-0.1,0.1-0.1,0.2-0.4
			c0.3,0,0.2-0.1,0.4,0.1h0.2C342.6,298.7,342.5,298.4,341.7,298.3z M453.2,298.5c-0.1,0.2-0.2,0-0.4,0.2c-0.1,0.2-0.2,0.4-0.3,0.5
			c0.1,0.5,0.2,0.7,0.5,0.9c0.1,0.1,0.6-0.1,0.9-0.2c0.1-0.3,0.1-0.5,0.2-0.6c0-0.5-0.1-0.5-0.3-0.8
			C453.6,298.6,453.4,298.5,453.2,298.5z M381.1,299.1c-0.8,0-1.5,0.8-0.9,1.4c0.1,0.1,0.2,0.1,0.2,0.2c0.5,0,0.5-0.2,0.7-0.5h0.4
			c0-0.2,0.1-0.3,0.1-0.5h-0.2C381.4,299.2,381.3,299.4,381.1,299.1z M430.2,301.1c0.8,0,0.8-0.3,0.9-0.8c-0.4-0.2-0.6-0.3-0.9-0.8
			H430l-0.5,0.5c0,0.5,0.3,0.6,0.5,1C430.2,301.1,430.1,301.1,430.2,301.1z M439.7,300h-0.2c-0.1,0.2-0.2,0.7-0.3,0.9
			c0,0.3,0.1,0.3,0.2,0.5c0.2,0,0.4,0.1,0.5,0c0.4,0,0.4-0.2,0.7-0.4C440.4,300.3,439.9,300.4,439.7,300z M382.4,300.6
			c0.2,0,0.3,0,0.4-0.1h0.1v-0.2c-0.3-0.1-0.5-0.2-0.9-0.2C382.1,300.4,382.2,300.4,382.4,300.6z M413,301.1c0,0.1,0,0.1,0,0.4
			c0.3,0,0.6,0.2,0.6,0.2h0.3c-0.1-0.5,0-0.9-0.2-1.1v-0.1c0.2,0.1,0.2,0.1,0.3,0.2c0,0,0.1-0.1,0.1-0.1v-0.2c-0.3,0-0.5-0.1-0.7,0
			c-0.3,0-0.6,0-0.8,0.1c0,0.3,0,0.3,0,0.5C412.8,300.9,412.9,301,413,301.1z M480.6,300.4c-0.1,0.1-0.1,0.1-0.2,0.2
			c-0.1,0.1,0,0.1-0.1,0.2c0,0.2,0,0.2,0.1,0.2c0.2,0.1,0.4,0.1,0.5,0.1c0,0,0.1,0.1,0.1,0.1c0-0.4-0.1-0.5-0.2-0.7H480.6z
			 M424.7,301.3c0.1,0.2,0,0.6,0.1,0.7c0.1,0,0.2,0.1,0.3,0.2c0.2,0,0.2,0,0.3-0.1c0-0.1,0-0.1,0.1-0.2c-0.1-0.5-0.2-0.3-0.5-0.5
			c0,0-0.1-0.1-0.1-0.1c0.2-0.2,0.1-0.4-0.1-0.6c-0.1,0.1-0.2,0.1-0.3,0.3h-0.1C424.5,301.2,424.6,301.1,424.7,301.3z M373.2,302
			c0-0.2,0.1-0.3,0.1-0.6c-0.1-0.1-0.2-0.2-0.2-0.4c-0.3,0-0.5,0-0.7-0.1c-0.1,0.1-0.2,0.1-0.2,0.2c-0.5,0-0.6,0.2-0.8,0.5h-0.1
			c0,0.9,0.4,0.6,0.9,0.9C372.6,302.4,372.8,302.2,373.2,302z M393.1,301.4c0.1,0.3,0.4,0.4,0.5,0.6c0.1,0.3,0.1,0.5,0.2,0.7
			c0.4,0,0.7-0.1,0.9-0.2h0.2c0-0.7-0.3-0.8-0.4-1.4C393.7,301.1,393.5,301.2,393.1,301.4z M389.7,302h0.2v-0.1l-0.3-0.3
			C389.6,301.8,389.6,301.9,389.7,302z M388.7,301.8c0.1,0.2,0,0.1,0.2,0.2v0.2c-0.4-0.1-0.5-0.3-0.8-0.5c-0.2,0.4,0.1,0.7-0.2,1
			c0.1,0.2,0.2,0.2,0.3,0.3c1.6,0.1,0.9-0.6,0.9-1.3C389,301.7,388.9,301.7,388.7,301.8z M436.4,301.8c-0.1,0.2-0.2,0.3-0.3,0.5
			c0.1,0.5,0.3,0.6,0.5,1.1c0.1,0.1,0.1,0,0.2,0.1c0.5,0,0.5-0.1,0.9-0.2c0.1-1,0.2-0.7-0.3-1.4L436.4,301.8L436.4,301.8z
			 M418.7,302.2c0,0.2,0,0.2-0.1,0.5c0.3,0,0.1,0,0.4,0c0,0.1,0.1,0.1,0.1,0.3c-0.4-0.1-0.2-0.1-0.5-0.1c0-0.2,0-0.1-0.1-0.2v-0.1
			h-0.1c0.1,0.5,0.2,0.7,0.5,1.1c0.2,0,0.4-0.1,0.5-0.1c0.2-0.3,0.4-0.8,0.7-1c0-0.3-0.1-0.3-0.2-0.5
			C419.5,302,419.2,302.1,418.7,302.2z M444.6,302.5h-0.4c-0.1,0.2-0.1,0.2-0.3,0.2c0,0.2,0,0.2,0.1,0.2c0,0.3,0,0.5,0.2,0.6
			c0.1,0.1,0.4,0.1,0.5-0.1l0.2-0.1c-0.1-0.3-0.1-0.5-0.2-0.8V302.5z M425.1,302.7c0,0.3-0.3,0.9-0.4,1c0,0.2,0,0.4,0.1,0.5
			c0.2,0.1,0.8,0.3,1,0.2c0.3-0.1,0.5-0.4,0.6-0.8C426.7,303,425.8,302.7,425.1,302.7z M456.3,303.5c-0.2-0.1,0.1-0.3,0.2-0.5
			c-0.1-0.2-0.1-0.2-0.2-0.4c-0.5,0-0.7,0.1-1,0.3c0.1,0.3,0.2,0.4,0.3,0.6c0.2-0.1,0.2-0.1,0.3-0.2c0.1,0.2,0.2,0.5,0.3,0.8
			c0.2,0,0.3,0,0.4,0.1l0.2-0.2v-0.3c-0.2,0-0.2,0-0.3-0.1C456.3,303.6,456.4,303.7,456.3,303.5z M404.4,304c0,0.3,0.1,0.3,0.2,0.5
			c0.4-0.1,0.7-0.3,0.9-0.6c0.1-0.1,0,0,0.1-0.2c-0.3-0.1-0.5-0.2-0.7,0c-0.1-0.1,0-0.1-0.1-0.2c0.2,0,0.2,0,0.3-0.1
			c0.1-0.1,0.1-0.3,0.2-0.4c-0.1-0.1-0.2-0.1-0.3-0.2c-0.2,0-0.3,0-0.4,0.1h-0.2C404.4,303.3,404.6,303.8,404.4,304z M373,304.7
			h-0.2c0.1,0.2,0.1,0.2,0.1,0.4c0,0,0.1,0.1,0.1,0.1c-0.2,0-0.2,0-0.3-0.1c0-0.2-0.1-0.3,0-0.5v-0.2c-0.3,0-0.2,0.1-0.5,0.2
			c0,0.4,0.1,0.6-0.2,0.9c0,0.2,0,0.2,0.1,0.3c0.4,0,0.9,0,1.2-0.2c0.1,0,0.2-0.1,0.2-0.1c0-0.2-0.1-0.5-0.1-0.7
			C373.3,304.8,373.2,304.8,373,304.7z M428.5,304.6c-0.4,0.1-0.5,0.2-0.7,0.3c0,0.2,0,0.3-0.1,0.4c0.2,0.1,0.2,0.4,0.4,0.5
			c0.5,0.4,0.9-0.2,1,0.6c0.2,0,0.1,0,0.2-0.1c0.2-0.1,0.2-0.1,0.4-0.2c-0.2-0.2-0.6-0.2-0.8-0.4c-0.1-0.1,0.1-0.3,0.2-0.4
			c0,0,0.1-0.1,0.1-0.1h-0.1C429.1,304.9,428.7,304.9,428.5,304.6z M412,305.6c0.1,0.4,0.2,0.3,0.4,0.5c0.2,0,0.3,0,0.5,0.1
			c0.1-0.2,0.4-0.3,0.5-0.4v-0.2c-0.2,0.1-0.2,0-0.5,0.1c0-0.1-0.1-0.2-0.2-0.3c0.1-0.5,0.4-0.4,0.1-0.7c-0.1,0.1-0.4,0.1-0.5,0.2
			C412,305.1,412.3,305.3,412,305.6z M412.5,305.5h0.2c0,0,0.1,0.1,0.1,0.1v0.1h-0.3V305.5z M430.8,305.5c-0.1-0.1-0.3-0.3-0.4-0.4
			c-0.2,0.2-0.3,0.5-0.5,0.6v0.1c0.1,0.1,0.1,0,0.2,0.1C430.5,305.9,430.5,305.8,430.8,305.5C430.7,305.5,430.7,305.5,430.8,305.5z
			 M406.8,306.1c0.3-0.1,0.4-0.2,0.8-0.2c0-0.4-0.1-0.4-0.2-0.6c-0.2,0-0.3-0.1-0.5-0.1c-0.1,0.2-0.2,0.5-0.1,0.7V306.1z
			 M410.4,306.8c0-0.4-0.2-0.4-0.2-0.8h0.3c-0.1-0.4-0.3-0.4-0.5-0.7c-0.4,0.1-0.6,0.2-0.9,0.2c-0.1,0.5,0.1,0.8,0.3,1.2
			C409.7,306.9,410.1,306.9,410.4,306.8z M432.3,306.4c0.1-0.2,0.1-0.8-0.2-1c-0.1-0.1-0.6-0.1-0.9-0.1l-0.2,0.2
			c-0.2,0.1-0.2,0.3-0.2,0.6c0.2,0.2,0.4,0.4,0.5,0.6c0.2,0,0.5,0,0.6-0.1C432.2,306.7,432.2,306.7,432.3,306.4z M465.2,305.4
			c-0.3,0.2-0.8,0.4-1.1,0.6c0.1,0.4,0.3,0.4,0.5,0.7c0.8,0,0.9-0.3,1.3-0.5c0-0.5-0.1-0.5-0.3-0.8L465.2,305.4L465.2,305.4z
			 M415.5,306.9c-0.1,0.1,0,0-0.2,0.1c0,0.2,0,0.2,0.1,0.3c0.4,0,0.5,0,0.8-0.1c0.1-0.2,0-0.2,0.1-0.3c-0.1-0.2,0-0.1-0.2-0.2
			c0-0.4-0.1-0.3,0.1-0.5c0-0.3-0.1-0.3-0.2-0.5c-0.2,0-0.4,0-0.5,0.1c-0.1,0-0.2,0.1-0.2,0.1c0,0.2,0,0.3-0.1,0.4
			C415.1,306.5,415.3,306.8,415.5,306.9z M407,307.2V307h-0.1c-0.2-0.1-0.1-0.1-0.2,0.1h-0.2c0-0.2-0.1-0.4,0-0.5v-0.2
			c-0.4,0-0.8,0.2-1.2,0.1c-0.3-0.1-0.7-0.4-1.2-0.5c-0.1,0.1-0.3,0.2-0.4,0.2c-0.1,1,0.4,1.4,0.9,2.1
			C405.6,308.3,406.3,307.6,407,307.2z M407.7,306.6h0.2c0-0.3,0-0.3-0.2-0.4c-0.2,0.2-0.6,0.1-0.8,0.3h-0.2
			C407,306.8,407.5,306.7,407.7,306.6z M447.5,306.6c-0.5,0.1-0.5,0.5-0.9,0.6c0.1,0.4,0,0.6-0.1,1c0.2,0,0.5,0.1,0.6,0.2
			c0.6-0.1,0.8-0.4,1.2-0.7V307h0.3c0-0.3-0.1-0.2-0.2-0.5C447.9,306.5,447.7,306.7,447.5,306.6z M422.2,310.4
			c0.1-0.1,0.3-0.1,0.4-0.2h0.4c0,0.3,0.1,0.4,0.2,0.6c0.2,0,0.4,0.1,0.5,0c0.3-0.1,0.3-0.2,0.3-0.5c0.1,0,0.1,0.1,0.3,0.1
			c0,0.2,0,0.2-0.1,0.2c0.1,0.3,0.2,0.4,0.3,0.7c0.4,0,0.9,0,1.1-0.2c0.5-0.3,0.1-0.8,0.1-1.3c-0.3-0.1-1.1-0.5-1.2-0.5
			c-0.2,0-0.3,0-0.4,0.1c0,0,0,0.2-0.1,0.4l-0.2,0.1c-0.3-0.5-0.7-0.7-0.9-1.2c0-0.1-0.1,0,0.1-0.2c0-0.3,0-0.8-0.1-1
			c-0.1-0.1-0.3-0.1-0.5-0.1c0.1-0.1,0.2-0.2,0.3-0.4c-0.6-0.3-0.9-0.6-1.6-0.2c0,0.2-0.1,0.3-0.2,0.4c0.2,0.2,0.3,0.1,0.4,0.4
			c0.4,0.7-0.8,1.2-0.4,1.8c-0.1,0.2-0.3,0.4-0.5,0.5c0,0.3,0.2,0.9,0.2,1.2c0.3,0.1,0.7,0.3,1,0C422.2,311,422,310.7,422.2,310.4z
			 M490.1,306.7c-0.1,0.1-0.4,0.3-0.5,0.4c0,0.2,0,0.5,0,0.5v0.2c0.5,0,0.7,0,1,0.1c0.1-0.1,0.3-0.3,0.5-0.4c0-0.2,0-0.4-0.1-0.5
			C490.6,306.8,490.5,306.7,490.1,306.7z M361.9,307c-0.1-0.1-0.4,0.1-0.7,0.2c0.1,0.4,0.4,0.4,0.8,0.5l-0.1,0.1
			c-0.1,0-0.3,0-0.5-0.1c-0.2,0-0.2,0-0.3,0.1c0.1,0.2,0,0.1,0.2,0.2c0.1,0.1,0.5,0,0.6-0.1c0.3,0,0.3-0.1,0.5-0.2
			C362.3,307.5,362.2,307.2,361.9,307z M436,307.4c0.1-0.1,0,0,0.1-0.2c-0.1-0.1-0.1-0.1-0.2-0.2c-0.2-0.1-0.1,0-0.4,0.1
			c0,0.2,0.1,0.3,0.1,0.5C435.9,307.7,435.9,307.7,436,307.4z M385.6,307.4c-0.4,0-0.4,0-0.8,0.1c0,0-0.1,0.1-0.1,0.1
			c0,0.2,0,0.2,0.1,0.2c0.1,0.3,0.7,0.4,1.1,0.4c0-0.2,0-0.3-0.1-0.4C385.8,307.5,385.7,307.6,385.6,307.4z M401.5,307.9v-0.5
			c-0.4-0.1-0.7-0.1-0.9,0.2c-0.1,0.1,0.1,0.6,0.2,0.8c0.1,0.2,0.2,0.3,0.4,0.5c0.2,0,0.4,0,0.5-0.1h0.2c0-0.2,0-0.4,0.1-0.5
			c0-0.2,0-0.3-0.1-0.4L401.5,307.9L401.5,307.9z M419,307.5c-0.2-0.1-0.3-0.2-0.6-0.2c-0.1,0.1,0,0.1-0.2,0.2
			c0,0.3,0.1,0.5,0.2,0.7c-0.2,0.4-0.4,1-0.1,1.5c-0.2,0.3-0.3,0.1-0.6,0.3c-0.3,0.2-0.5,0.8-0.8,1.1h-0.1c0.3,0.4,0.7,0.6,1.5,0.6
			c0.2-0.3,0.5-0.4,0.8-0.6c0.1-0.1,0.2-0.4,0.2-0.5c-0.1-0.1-0.2-0.3-0.3-0.4c-0.2-0.1-0.3,0-0.4-0.2c0.2-0.1,0.5,0,0.6-0.1
			c0.2-0.1,0.5-0.4,0.7-0.5c0-0.3,0-0.8,0.1-1v-0.2c-0.1,0-0.3,0.1-0.4,0.1C419.4,308,419.2,307.7,419,307.5z M391.8,308.1v-0.4
			c-0.2-0.1-0.3-0.1-0.5-0.2c-0.2,0.1-0.5,0.1-0.7,0.2c-0.2,0.1-0.2,0.2-0.3,0.4c0.2,0.2,0.5,0.5,0.7,0.7
			C391.4,308.7,391.5,308.4,391.8,308.1z M409.7,309.5c0.2-0.1,0.1-0.2,0.2-0.3c0.1-0.1,0.1,0,0.2-0.1c0.1,0.4,0.2,0.6,0.4,1
			c0.3-0.1,0.6-0.1,0.9-0.2c0,0,0.1-0.1,0.1-0.1c0-0.4-0.2-0.8-0.2-1v-0.2c-0.6,0.1-0.4,0-0.9,0c0.1-0.1,0.1,0,0.2-0.1
			c0-0.2,0-0.2,0.2-0.3c0-0.2,0-0.3-0.1-0.4c-0.2,0-0.4,0.1-0.6,0.1c0,0-0.1,0.1-0.1,0.1c0.1,0.2,0.4,0.7,0.3,0.8
			c-0.1,0.1,0,0.1-0.1,0.2c0,0-0.1,0.1-0.1,0.1c-0.1-0.2-0.2-0.3-0.5-0.4c0-0.2,0-0.2,0.2-0.3c0-0.2,0-0.2-0.1-0.3
			c-0.4-0.1-0.7,0-0.9,0.2c-0.4,0.3-0.3,0.8-0.4,1.2C408.9,309.6,409.4,309.8,409.7,309.5z M436.2,307.8c-0.1,0.1-0.4,0.1-0.5,0.1
			c-0.2,0.1-0.1,0.1-0.2,0.2c0.1,0.4,0.3,0.2,0.5,0.5c0.1,0.2,0.2,0.6,0.2,0.8c0.5-0.1,0.3-0.2,0.6-0.4c0-0.6-0.2-0.8-0.4-1.2H436.2
			z M429.7,309.5c0.1,0.4,0.4,0.5,0.6,0.8c0.4,0,0.5-0.2,0.9-0.3c0.1-0.7-0.1-1-0.2-1.6c-0.4,0.1-0.8,0.3-1.2,0.5
			C429.6,309,429.6,309.3,429.7,309.5z M426.3,308.9c-0.1,0.3,0.4,0.9,0.5,1.2c0.2,0,0.4,0,0.5-0.1c0.5,0,0.5-0.1,0.9-0.3
			c0-0.8-0.4-0.8-0.7-1.2c-0.2,0-0.5-0.1-0.7-0.1C426.5,308.6,426.4,308.6,426.3,308.9z M413.7,309.5c-0.2-0.1-0.4-0.2-0.5-0.4h-0.5
			c-0.2,0.3-0.4,0.4-0.5,0.7c-0.1,0.1,0,0.4,0.1,0.5c0.1,0.5,0.3,0.4,0.5,0.7c0.6,0,0.8-0.1,1.2-0.3c0-0.5-0.1-0.7-0.5-0.8
			C413.5,309.7,413.6,309.7,413.7,309.5z M440.9,309.1c-0.2,0.1-0.4,0.2-0.5,0.3c0,0.2-0.1,0.2-0.2,0.3c0.1,0.5,0.3,0.4,0.5,0.7
			c0.4,0,0.6,0,0.9-0.2c0.1-0.2,0.1-0.5,0.2-0.7c-0.1-0.2-0.1-0.1-0.2-0.3C441.4,309.2,441.2,309.2,440.9,309.1z M407.8,309.8
			c-0.1-0.4-0.7-0.4-1.1-0.5c-0.1,0.1-0.3,0.3-0.4,0.4v0.2c0.2-0.1,0.1,0,0.2-0.2c0.2,0.1,0.1,0,0.2,0.2c0,0.1-0.1,0.3-0.3,0.4
			c0,0.3,0.1,0.3,0.2,0.5c0.2,0.1,0.8,0.2,0.9,0.2C408,310.6,408,310,407.8,309.8z M416.6,309.5c-0.3,0-0.3,0-0.4,0.2
			c-0.2-0.1-0.3-0.2-0.5-0.3c-0.1,0.1-0.4,0.2-0.5,0.3c-0.1,0.1,0,0.1-0.1,0.2c0.1,0.5,0.3,0.6,0.5,0.9c0.5,0,0.7-0.2,1.1-0.3
			c0-0.2,0.1-0.2,0.2-0.3C416.8,309.8,416.8,309.8,416.6,309.5z M390.8,309.5c-0.2,0.2-0.3,0.5-0.5,0.6c0.2,0.4,0.2,0.4,0.2,0.9
			c0.5,0.1,1.1,0.4,1.3-0.2C392.1,310.5,391.4,309.6,390.8,309.5z M390.6,310.4c0.1,0.1,0.1,0,0.2,0.1
			C390.6,310.4,390.7,310.4,390.6,310.4z M396.1,310.1c-0.1,0-0.2,0.1-0.2,0.1c0,0.7,0.3,0.8,0.3,1.2c0.2,0.1,0.3,0.2,0.5,0.2
			c0,0,0.1,0.1,0.1,0.1v-0.1c0.3-0.1,0.7-0.7,0.8-0.9c0.2-0.2,0-0.6,0-0.9C396.9,309.7,396.5,309.8,396.1,310.1z M405.7,312
			c-0.2-0.2-0.3-0.3-0.6-0.4c0.1-0.2,0.3-0.2,0.5-0.3c0-0.1,0-0.1,0.1-0.2c-0.1-0.4-0.3-0.2-0.4-0.5c-0.1-0.2,0-0.2,0-0.3
			c-0.1-0.2-0.2-0.3-0.5-0.3c-0.1,0.2-0.2,0.4-0.4,0.5c0.1,0.4,0.2,0.7,0.6,0.9v0.2h-0.5c-0.1,0.1-0.3,0.2-0.4,0.3
			c0,0-0.6-0.2-0.9,0c-0.2,0.1-0.1,0.1-0.2,0.2c0,0.4,0.2,0.3,0.4,0.5l0.2-0.2c0.1,0,0.3,0.1,0.5,0c0,0.2,0,0.3,0.1,0.4
			c-0.3,0.1-0.5,0.2-0.8,0.2c0,0,0.1,1.2,0.2,1.2l0.1,0.1c0.1-0.2,0.1-0.8,0.2-1c0.1-0.2,0.4-0.3,0.5-0.5c0.2,0,0.3,0,0.4,0.1
			c0.5,0,0.7-0.4,0.9-0.8C405.7,312.1,405.6,312.2,405.7,312z M439,310.5c-0.1,0.1-0.1,0.2-0.2,0.3v0.2c0.1,0.1,0.3,0.3,0.4,0.5
			c0.3-0.1,0.3-0.2,0.6-0.3c0-0.2-0.1-0.3-0.2-0.5C439.5,310.5,439.3,310.5,439,310.5z M428.2,312.7c0.1-0.3,0.6-0.5,0.9-0.6
			c-0.1-0.4-0.4-0.6-0.7-0.7c-0.1-0.1-0.1,0-0.2-0.1c-0.1-0.3-0.2-0.5-0.5-0.6c-0.1-0.1-0.1,0-0.4,0c-0.1,0.3-0.5,0.8-0.4,1.1
			c0,0.3,0,0.3,0.2,0.5c-0.3,0.3-0.3,0.6-0.4,1c-0.1-0.1-0.5-0.7-0.6-0.9c-0.3,0-0.7,0-0.9,0.1c-0.6,0.2-0.2,0.7-0.6,1.1
			c0.2,0.4,0.5,0.4,0.8,0.6c0.6,0,1-0.1,1.2-0.5c1.2,0.3,0.9,0.4,1.9-0.3C428.4,312.9,428.4,312.9,428.2,312.7z M442.8,311.5
			c0-0.2,0-0.1,0.1-0.2c0-0.3-0.1-0.3-0.2-0.5c-0.4,0-0.4,0.1-0.6,0.2c0.1,0.5,0.3,0.7,0.2,1.2c0,0,0.1,0.1,0.1,0.1
			c0.5,0,0.7,0,0.8-0.3c0.1-0.1,0.1-0.3,0.1-0.5c-0.2,0-0.2,0-0.3-0.1H442.8z M433.9,311.1c-0.1,0.2-0.1,0.2-0.2,0.3
			c0.1,0.7,0.3,0.4,0,1c0.1,0.1,0.2,0.2,0.2,0.3c0.2,0,0.2,0,0.3,0.1c0.5,0,0.6-0.2,0.9-0.5C435.1,311.6,434.4,311.2,433.9,311.1z
			 M423.7,314.2c0.1-0.3,0.1-0.3,0.2-0.6h-0.2c0-0.2,0-0.1,0.1-0.2c0.1-0.4,0.5-0.5,0.8-0.6c0-0.3,0-0.6-0.2-0.8
			c-0.1-0.2-0.2-0.2-0.3-0.4c-0.2,0-0.4,0-0.5-0.1c-0.6,0.2-0.6,0.8-1,1c-0.1,0.1-0.7,0.2-0.9,0.2c0,0.5,0,1-0.2,1.2
			c0,0.2,0,0.2,0.1,0.3c0.4,0.1,0.8,0.3,1.2,0.3c0,0.2,0,0.2-0.1,0.3c0.1,0.1,0.1,0.1,0.3,0.2v0.5c0.2,0,0.5,0.1,0.7,0.1
			c0.1,0.4,0.2,0.7,0.2,1.1c0.5,0.1,0.7,0.1,1.2,0.2c0-0.5,0.1-0.7,0.2-1.1C424.5,315.3,424.2,314.6,423.7,314.2z M418.6,312.3
			c0-0.4,0-0.4-0.3-0.5c-0.1,0.1-0.1,0.4-0.2,0.5c0,0.1,0.1,0.2,0.1,0.2c0.2,0,0.3,0,0.4-0.1C418.5,312.3,418.5,312.4,418.6,312.3z
			 M407.7,312c-0.1,0-0.2-0.1-0.2-0.1v0.2L407.7,312L407.7,312z M432.2,312.5c0.1-0.3,0.1-0.2,0.2-0.4c0,0-0.1-0.1-0.1-0.1h-0.4
			c-0.1,0.1,0,0.1-0.2,0.2c0.1,0.2,0.4,0.5,0.6,0.6c0,0.1-0.1,0.3-0.1,0.4c0.3,0,0.2,0,0.5,0c0,0,0.1-0.1,0.1-0.1
			C432.6,312.7,432.4,312.6,432.2,312.5z M408.5,312.4c-0.1-0.2,0-0.1-0.2-0.2C408.4,312.4,408.4,312.3,408.5,312.4z M418.8,312.2
			c0.1,0.1,0,0,0.2,0.1v-0.1H418.8z M429.7,312.3c-0.1,0.1-0.2,0.2-0.3,0.2c0,0.3,0.1,1,0,1.2c-0.1,0.2-0.2,0.1-0.2,0.3
			c-0.4,0.1-0.9,0.2-1.1,0.3c-0.1,0-0.1,0.1-0.2,0.1v0.2c0.3,0.3,0.3,0.6,0.8,0.8c0.1,0.1,0.4,0.1,0.5,0.1c0.2-0.1,0.1,0,0.2-0.2
			c0.2-0.1,0-0.1,0.2-0.3c0-0.4-0.2-0.4-0.4-0.5c0-0.4,0.1-0.3,0.2-0.5c0.2,0.1,0.1,0,0.2,0.2c0.5-0.1,0.5-0.2,1.1-0.2
			C430.9,313.1,430.5,312.5,429.7,312.3z M418.4,313.3c-0.3-0.3-0.6-0.5-0.9-0.9h-0.2c-0.1,0.2-0.2,0.3-0.3,0.4
			c0,0.3,0.1,0.4-0.1,0.5c0,0.5,0.1,0.5,0.5,0.6c0.1,0.1,0.5,0,0.6-0.2C418.4,313.7,418.4,313.5,418.4,313.3z M408.8,313.4
			c-0.1-0.2-0.1-0.7-0.2-0.8c-0.1-0.2,0-0.1-0.2-0.2c-0.2,0.3-0.5,0.2-0.9,0.3c0,0.4,0.2,1.5,0.4,1.7c0.4,0.3,0.7,0.1,1.2,0.1v-0.1
			c0.1-0.1,0.1-0.2,0.2-0.2C409.3,313.8,409,313.7,408.8,313.4z M411.1,313.3c0-0.2,0-0.2-0.1-0.3c-0.1,0-0.5-0.1-0.6-0.2h-0.2v-0.2
			c-0.2,0-0.2,0-0.2,0.1c-0.4,0.2,0.1,0.3-0.5,0.6v0.5c0.2,0,0.5,0.1,0.6,0.2c0.4,0,0.8,0,1-0.1C411.1,313.6,411,313.5,411.1,313.3z
			 M414,313.2c-0.1-0.1,0,0-0.2-0.1c-0.1,0.1-0.2,0.2-0.2,0.3c-0.3-0.2-0.2-0.5-0.4-0.7c-0.2,0.3-0.3,0.8-0.6,1c0,0.1,0,0.1,0.1,0.2
			c0,0.6,0.3,0.5,0.7,0.8c0.6-0.1,0.6-0.6,0.9-0.9C414.3,313.4,414.2,313.3,414,313.2z M405.7,313.2h0.2V313h-0.3
			C405.6,313.1,405.7,313.1,405.7,313.2z M405.5,313.1c-0.1,0.2,0,0.1-0.2,0.2c0,0.5,0.1,0.9,0.3,1.2v0.1c0.2-0.1,0.2-0.1,0.3-0.2
			C406,314.1,405.6,313.2,405.5,313.1z M415,314.3c-0.4,0-0.4,0.1-0.5,0.3c-0.1,0.1,0,0.1,0,0.3l0.1,0.1c0.2,0,0.2,0,0.3-0.1h0.2
			c-0.1,0.2-0.2,0.4-0.5,0.5v0.2c0.3,0,0.8,0.2,1,0C416.5,315.3,415.3,314.6,415,314.3z M425.9,314.4c-0.1,0.1-0.3,0.2-0.5,0.3
			c0.1,0.2,0.2,0.3,0.4,0.4c-0.1,0.2-0.3,0.3-0.5,0.3c0,0.1,0.1,0.4,0.2,0.5v0.2c0.3,0.1,0.5,0,0.9,0c0.1-0.3,0.4-0.7,0.5-0.9
			C426.8,314.7,426.3,314.6,425.9,314.4z M418,314.8c-0.1,0.2-0.2,0.3-0.3,0.4c0.1,0.4,0.2,0.8,0.4,1.2c0.3,0,1,0,1.2-0.2
			c0.2-0.1,0.2-0.1,0.3-0.4c0.1-0.2-0.3-0.6-0.5-0.9C418.8,314.9,418.5,314.8,418,314.8z M411.9,315.6c0-0.3,0-0.5-0.1-0.6
			c-0.5,0-0.6,0.1-0.9,0.3c0,0.5,0,0.7,0.1,1.2c0.4,0.1,0.9,0.3,1.2,0c0.1,0,0.2-0.1,0.2-0.1c0-0.5,0.1-0.7-0.2-0.9
			C412.1,315.4,412.2,315.5,411.9,315.6z M431.1,315.3c-0.1,0.3,0,0.2,0.1,0.5h0.2C431.3,315.5,431.2,315.4,431.1,315.3z
			 M340.5,318.9c0.6,0,0.8-0.1,1.2-0.2c0-0.3-0.1-0.4,0-0.5c0-0.2,0-0.2-0.1-0.3c-0.3-0.1-0.6-0.2-1-0.2c-0.1,0.1-0.2,0.2-0.4,0.2
			c0,0.3,0.1,0.5,0,0.6C340.3,318.7,340.4,318.7,340.5,318.9z M506.7,317.8c-0.1,0.1-0.1,0.3-0.2,0.4c0,0.6,0.2,0.9,0.6,0.8
			c0.3,0,0.3-0.1,0.5-0.2c0-0.2,0-0.2,0.1-0.3c-0.1-0.3-0.2-0.3-0.3-0.5C507.1,317.9,507.1,317.8,506.7,317.8z M326.5,319.9
			c0.2,0.1,0.2,0,0.5,0c-0.1-0.4-0.1-0.7-0.2-1.1c0,0-0.1-0.1-0.1-0.1H326c-0.1,0.2,0,0.1-0.2,0.2c0.1,0.3,0.6,0.7,0.9,0.8
			C326.6,320,326.7,319.8,326.5,319.9z M322.9,321.1c0.4,0,0.4-0.1,0.6-0.2c0-0.2,0.1-0.4,0-0.5c0-0.4,0-0.4-0.3-0.5
			c-0.1-0.1-0.4-0.1-0.7-0.1c-0.2,0.1-0.3,0.2-0.6,0.2c0.1,0.4,0.4,0.6,0.5,1C322.5,320.9,322.7,321,322.9,321.1z M340.7,320.2
			c-0.5,0.2-0.8,0.5-1.2,0.6v0.4c0.4,0,0.5-0.1,0.9-0.2c0.3,0,0.3,0.1,0.4,0.2c0.5,0.1,0.8-0.2,1.1-0.4c0.1-0.3,0.2-0.4,0.2-0.8
			c-0.1,0-0.5-0.1-0.5-0.1C341.2,320.1,341.1,320.6,340.7,320.2z M488.7,319.9c-0.2,0.1-0.5,0.3-0.7,0.3c0,0.3,0,0.4-0.2,0.5
			c0.1,0.5,0.4,0.5,0.7,0.9c0.5,0,1,0,1.5-0.2c0-0.2,0-0.4,0.1-0.5C490.1,320.1,489.4,320,488.7,319.9z M506.1,320.2
			c-0.2,0.1-0.1,0-0.2,0.2h-0.1c0.1,0.2,0,0.1,0.2,0.2c0.1,0.1,0.2,0.1,0.5,0.1c0-0.2,0-0.3,0.1-0.4l-0.1-0.1
			C506.3,320.1,506.2,320.1,506.1,320.2z M315.9,321.4c0.1,0,0,0.1,0.2,0c0,0,0-0.4,0.2-0.5c-0.1-0.3-0.2-0.4-0.3-0.6h-0.3
			c-0.1,0.1-0.2,0.2-0.3,0.2v0.2C315.6,320.9,315.7,321.1,315.9,321.4z M504.4,321.2c0.1,0,0.2-0.1,0.2-0.1c0-0.2,0-0.4-0.1-0.5
			c-0.1-0.1-0.3-0.1-0.5-0.2c-0.3,0.1-0.3,0.3-0.6,0.5v0.4C503.7,321.2,504.2,321.3,504.4,321.2z M309.1,321.3h0.4
			c-0.1-0.2-0.1-0.4-0.2-0.5h-0.5c0,0.2,0,0.2,0.2,0.5C309.1,321.2,309,321.2,309.1,321.3z M358.7,320.9c-0.2,0.1-0.5,0.1-0.6,0.2
			c0,0,0,0.5-0.2,0.6c0.1,0.3,0.3,0.4,0.5,0.7c0.6,0,0.7-0.3,1-0.5c0-0.7-0.2-0.6-0.5-1H358.7z M324.3,320.9
			c-0.3,0.1-0.4,0.3-0.5,0.5h-0.2c0,0.2,0.1,0.3,0.2,0.5c0,0.1,0.1,0.1,0.1,0.2c0.2,0,0.4,0,0.5,0.1c0.2,0,0.2,0,0.3-0.1
			c0-0.4-0.1-0.8-0.2-1C324.3,321.1,324.3,321,324.3,320.9z M335.2,321.7c-0.1-0.2-0.2-0.3-0.3-0.5h-0.5c0-0.2,0-0.1-0.1-0.2
			c-0.1-0.1,0,0-0.2-0.1c-0.1,0.2-0.2,0.3-0.5,0.5c0,0.2,0.1,0.3,0,0.5c0.1,0.3,0.5,0.5,0.9,0.5
			C334.9,322.1,334.8,321.9,335.2,321.7z M303.9,321.2L303.9,321.2L303.9,321.2l-0.3-0.1c-0.1,0.2,0,0.1-0.2,0.2
			c0,0,0.1,0.1,0.1,0.1C303.6,321.5,303.8,321.3,303.9,321.2z M515,322.3c0-0.4,0-0.4,0-0.7c-0.4-0.1-0.4-0.3-0.9-0.3
			c0,0.5,0.1,0.7,0.1,1c0.1,0,0.2,0.1,0.2,0.1c0.1,0.1,0.3,0,0.5-0.1H515z M313.6,321.6c-0.1,0.1,0,0-0.2,0.1v0.1
			C313.7,321.7,313.6,321.8,313.6,321.6z M309,321.9c0,0.6,0.2,0.8,0.2,1.5c0.4,0.1,0.7,0.1,0.9-0.2c0.2-0.1,0.2-0.3,0.4-0.5
			c-0.7-0.4-0.7,0.2-0.9-0.9h-0.4C309.1,321.9,309.2,321.8,309,321.9z M331.3,322.7c0.1,0,0.2-0.1,0.2-0.1c-0.1-0.3-0.2-0.3-0.3-0.5
			h-0.3c-0.2,0.3-0.1,0.3-0.2,0.5c0.1,0.1,0.1,0.1,0.2,0.2C331.1,322.7,331.2,322.7,331.3,322.7z M316.8,322.2
			c-0.1,0.1-0.2,0.2-0.3,0.2c0,0.6,0.1,0.8,0.4,1.2c0.6,0,0.8-0.1,1.1-0.3c0-0.2,0-0.3,0.1-0.4c-0.1-0.2-0.3-0.4-0.4-0.6
			C317.4,322.2,317.1,322.2,316.8,322.2z M299.7,323c0.6-0.1,0.4-0.4,0.9-0.5v-0.2c-0.2,0-0.5-0.1-0.7-0.1c-0.1,0.1-0.2,0.1-0.2,0.2
			c-0.1,0-0.2,0.1-0.2,0.1c0,0.2,0.1,0.2,0,0.3C299.6,323,299.6,322.9,299.7,323z M331,323c-0.1-0.1-0.1,0-0.2-0.1
			C330.9,323,330.9,323,331,323z M302.7,324.1h0.2c-0.1-0.1-0.2-0.1-0.3-0.2c0.1-0.3,0.1-0.3,0.3-0.5c-0.1-0.2-0.2-0.3-0.3-0.5h-0.9
			c-0.1,0.1-0.3,0.2-0.5,0.2c0,0.4,0.1,0.7,0.2,1.1C302,324.4,302.4,324.5,302.7,324.1z M289.1,323.9c0-0.1-0.1-0.3-0.1-0.4
			c-0.4-0.2-0.6-0.4-1.2-0.4c-0.4,0.4-0.5,0.7-1.2,0.9c0,0,0.1,0.1,0.1,0.1c0.1,0.1,0.2,0,0.4-0.1c0.5,0,0.5,0.2,0.6,0.5
			c0.7,0,0.8,0,1.2-0.3c-0.1-0.2,0-0.1-0.2-0.1C288.9,323.9,288.8,323.9,289.1,323.9z M293.3,323.5c-0.3-0.1-0.6-0.1-0.8-0.3
			c-0.8,0-1.2,0.4-1.7,0.6c0,0.2,0,0.2,0.1,0.3c0,0.4,0,0.5-0.3,0.6c0.1,0.2,0.6,0.3,0.9,0.4c-0.1,0.1-0.1,0.1-0.3,0.1l0.1,0.2
			c0.6,0,0.7-0.2,1.2-0.2C292.6,324.5,293,324,293.3,323.5L293.3,323.5z M331.9,323.4c0.1-0.2,0.1-0.1-0.1-0.2
			c-0.1,0.1-0.2,0.1-0.3,0.2h-0.4c0.1,0.2,0.2,0.2,0.3,0.4C331.8,323.7,331.8,323.6,331.9,323.4z M510.8,323.8
			c-0.1-0.1-0.1-0.1-0.2-0.2c-0.4-0.2-0.7,0-1.2-0.2c-0.1,0.1-0.1,0.2-0.2,0.3c0,0.2,0,0.3,0.1,0.4c0,0.6,0.1,0.7,0.4,1
			c0.1,0,0.1,0,0.2-0.1C510.6,325,510.8,324.3,510.8,323.8z M290,324.4h0.5c0-0.2,0.1-0.4,0.2-0.5c-0.1-0.2-0.1-0.2-0.2-0.3
			c-0.1,0-0.3-0.1-0.4-0.1c0,0.3-0.4,0.5-0.7,0.6l0.1,0.2C289.7,324.3,289.9,324.3,290,324.4z M520.8,325.8c0.1-0.3,0.1-0.6,0.2-0.9
			c-0.3-0.1-0.6-0.4-0.8-0.6c-0.5,0-0.6-0.1-0.9,0.1c-0.1-0.3-0.1-0.6-0.1-0.8c-0.4,0-0.7-0.2-1.2-0.2c0,0.2,0.2,0.5,0.2,0.6
			c0.1,0.2,0.3,0.3,0.6,0.3c0,0.2,0.1,0.4,0.1,0.5c-0.1,0.1-0.2,0.3-0.4,0.5c-0.1,0.1-1-0.1-1.4-0.1h-0.8c-0.1-0.1-0.1-0.4-0.2-0.5
			c-0.2-0.1-0.5-0.1-0.6-0.2c-0.4,0-0.6,0.2-0.7,0.5c-0.2,0.2-0.1,0.6,0.1,0.7c0.4,0.2,0.8,0.1,1.4-0.1c0,0.2,0,0.3,0.1,0.4
			c0,0.4,0.3,0.7,0.6,0.9c-0.1,0.1,0,0-0.2,0.1c0.1,0.1,0,0,0.2,0.1c-0.1,0.5-0.4,0.9-0.2,1.2c0,0.5,0.1,0.5,0.2,0.8
			c0.2-0.1,0.1,0,0.2-0.2c0.1,0.1,0,0.1,0.1,0.2c0.4-0.1,0.5-0.5,1-0.6c0-0.1-0.2-0.3-0.2-0.3c0.1-0.1,0.3-0.2,0.2-0.3
			c-0.1-0.3-0.3-0.6-0.2-0.9V327c0.1-0.2,0.3-0.3,0.4-0.7c0.7,0.2,0.7,0.1,1.5,0.1c0,0.2-0.1,0.2,0,0.3c0,0.4,0.1,0.5,0.3,0.8
			c0.5,0,0.8-0.1,1.1-0.1c0.2-0.4,0.2-0.6,0.2-1.1C521.3,326.2,521.2,325.9,520.8,325.8z M306.2,324.6c-0.2,0.2-0.1,0.3,0,0.6
			c0.1,0,0.2,0.1,0.3,0.2c0.4,0,0.6-0.1,0.9-0.2c0.1-0.2,0.1-0.3,0.1-0.4c0-0.9-0.3-0.7-0.6-1.2h-0.5c0,0.2,0,0.2,0.1,0.3
			c-0.1,0.1-0.1,0-0.2,0.1c0,0.2,0,0.2,0.1,0.3c-0.1,0.1-0.1,0-0.2,0.1C306.1,324.6,306.1,324.5,306.2,324.6z M492,323.8
			c-0.1-0.1-0.1,0-0.2-0.1c-0.2,0.4-0.4,0.7-0.5,1.2c0.1,0.1,0,0,0.1,0.2c0.6,0.1,1.2,0.4,1.3-0.2c0.1-0.1,0-0.4-0.1-0.5
			C492.4,324,492.2,323.9,492,323.8z M299.6,325.2c0-0.2,0-0.3,0.1-0.4c0-0.7-0.2-0.9-0.9-0.9c-0.2,0.2-0.5,0.3-0.7,0.5
			c-0.1,0.1,0,0.1,0.1,0.2c0,0.3-0.1,0.4-0.2,0.5c-0.4,0-0.6-0.1-0.8-0.3c-0.3,0-0.4,0-0.6,0.2c0,0.5,0.1,0.9,0.2,1.2
			c0.2,0.1,0.3,0.1,0.5,0.2c0.1-0.1,0.9-0.9,0.9-0.9h0.9C299.3,325.5,299.5,325.3,299.6,325.2z M311.8,324.7
			c-0.1,0.1-0.3,0.1-0.4,0.2v0.1c0,0.2,0.1,0.2,0.2,0.4c0,0.2-0.1,0.5-0.1,0.7c0.1,0.3,0.9,0.3,1.1,0.2c0.5-0.2,0.2-0.6,0.5-0.9
			c-0.1-0.2-0.2-0.2-0.2-0.5C312.5,324.8,312.3,324.7,311.8,324.7z M322.6,324.7c-0.4,0-0.6,0.2-0.9,0.4h-0.1
			c0.1,0.1,0.1,0.1,0.2,0.2c-0.2,0.2-0.2,0.3-0.4,0.5c-0.1,0.1-0.5,0.1-0.7,0.1v0.2c0.5,0.2,1.1,0.1,1.8,0.2l0.5-0.5
			C323,325.3,322.8,325.1,322.6,324.7z M322.1,325.8h0.2C322.2,325.9,322.2,325.9,322.1,325.8z M304.9,324.9h-0.3v0.2h0.3V324.9z
			 M316.1,325h-0.5c-0.2,0.4,0,0.6,0.4,0.8c0,0.3,0,0.3-0.2,0.4c0.2,0.2,0.1,0.2,0.3,0.2c0.2,0,0.3,0,0.5-0.1
			c0.1-0.2,0.1-0.4,0.2-0.5C316.3,325.5,316.3,325.3,316.1,325z M293.4,325.1c-0.2,0-0.4,0-0.5-0.1c-0.2,0-0.2,0-0.3,0.1
			c0,0.3,0.2,0.6,0.2,0.8c0,0.2,0.1,0.2,0.2,0.4c0.5,0,0.5,0,0.9-0.1c0-0.3,0-0.3,0-0.6C293.6,325.5,293.5,325.4,293.4,325.1z
			 M289.8,325.5c-0.2,0.1-0.4,0.3-0.6,0.4c0,0.2,0.1,0.3,0,0.5c0.2,0.1,0.4,0.4,0.6,0.6c0.5,0,0.8-0.3,1.2-0.4
			c0-0.2,0.1-0.2,0.2-0.3c0-0.3-0.1-0.3-0.2-0.5C290.6,325.7,290.4,325.5,289.8,325.5z M510.2,327.2c0.3,0,0.2,0,0.5,0
			c0.2-0.2,0.5-0.5,0.7-0.5c0-0.8-0.4-1.1-1.2-1.1c-0.1,0.1-0.3,0.4-0.4,0.5c-0.1,0.2,0.1,0.3,0,0.5
			C509.9,326.8,510.1,326.9,510.2,327.2z M295.6,325.9c-0.6-0.1-0.6-0.1-1.2,0c0,0.4,0.1,1,0,1.2c0.1,0.3,0.3,0.4,0.5,0.5v0.1
			c0.7,0,0.6-0.3,1-0.6c0-0.2,0-0.4,0-0.5C295.9,326.2,295.8,326.2,295.6,325.9z M288.6,326.2c-0.1,0.1-0.2,0.1-0.4,0.2v0.2
			c0.2,0,0.3,0,0.4-0.1h0.2C288.7,326.2,288.7,326.3,288.6,326.2z M304.4,327.1c-0.8-0.3-1.4-0.6-2.6-0.5c-0.1,0.1-0.1,0.2-0.2,0.2
			c0,1.5,1.3,0.9,2,1.7c0.6,0,0.9-0.5,0.9-0.9C304.6,327.3,304.5,327.3,304.4,327.1z M300.6,327.2c0-0.2,0-0.3-0.1-0.4h-0.3
			c-0.1,0.1-0.2,0.1-0.2,0.2c-0.1,0-0.2,0.1-0.2,0.1c0.1,0.2,0.3,0.2,0.5,0.1c0.1,0.1,0,0,0,0.2
			C300.5,327.4,300.5,327.3,300.6,327.2z M513.6,327c-0.3-0.1-0.2-0.1-0.6-0.2c-0.1,0.1-0.4,0.2-0.5,0.3c-0.1,0.2,0,0.2-0.2,0.4
			c0,0.2,0,0.2,0.1,0.3c0.1,0.4,0.6,0.5,1.1,0.6c0.1-0.2,0.2-0.4,0.4-0.5c0-0.2,0-0.3-0.1-0.4C513.8,327.2,513.8,327.2,513.6,327z
			 M319.6,326.9c-0.3,0-0.3,0.1-0.5,0.2v0.2c0.2,0,0.3,0,0.7,0C319.7,327.1,319.7,327.1,319.6,326.9z M291.6,327.2
			c-0.1-0.1-0.1,0-0.2-0.1C291.5,327.2,291.5,327.2,291.6,327.2z M314.9,328.9c0.2-0.1,0.2-0.2,0.3-0.5c0.1-0.1,0-0.7-0.2-0.9
			c-0.2-0.1-0.3-0.2-0.6-0.2c-0.1,0.1-0.3,0.1-0.5,0.2c-0.2,0.3,0,0.5-0.2,0.8c0,0.3,0.1,0.4,0.2,0.6
			C314.4,329,314.7,329,314.9,328.9z M320.1,328h-0.4c-0.1,0.1-0.2,0.1-0.4,0.2v0.2C319.8,328.3,319.8,328.3,320.1,328L320.1,328
			L320.1,328z M306.8,328.2c-0.9,0-0.8,0.1-1.2,0.6c0.1,0.8,0.5,0.5,0.8,0.9c0.2,0.3,0.3,1.1,0.9,0.8c0.8,0,0.8,0.3,1,0.9
			c0.6,0.1,1.1-0.1,1.3-0.5c0.1-0.1,0.1-0.5,0-0.6v-0.3c-0.3-0.1-0.9-0.2-1.2,0H308c0.1-0.2,0.1-0.4,0.2-0.5c0.7,0,3,0.1,3.3-0.2
			h0.1V329c-1.7,0-3.3-0.1-4.9-0.2C306.8,328.5,306.8,328.5,306.8,328.2z M299.2,328.6c0,0.1,0.2,0.2,0.2,0.5
			c0.1,0.1-0.2,0.2-0.3,0.2c0.1,0.2,0.6,0.5,0.9,0.5c0.5,0.2,1.2-1,1.4-1.4c-0.4-0.2-1-0.3-1.6-0.3
			C299.6,328.4,299.4,328.5,299.2,328.6z M383.6,328.7c-0.3,0.2-0.4,0.5-0.7,0.7c0,0.2,0,0.3,0.2,0.4c0.1,0,0.1-0.1,0.3-0.2
			c0-0.1,0.3,0.1,0.3,0.1c0.2-0.1,0.3-0.6,0.2-1C383.7,328.7,383.7,328.7,383.6,328.7z M332.2,328.9c-0.1,0.2-0.2,0.2-0.4,0.2
			c0,0.2,0,0.3,0.1,0.4c0,0,0.1,0.1,0.1,0.1v-0.1c0.3,0,0.5,0,0.6-0.1c0-0.3-0.1-0.3-0.2-0.5H332.2z M504.2,328.9l-0.5,0.5
			c0,0.4,0.1,0.4,0.2,0.7c0.3,0,0.4,0,0.6,0c0.1-0.1,0.1-0.2,0.2-0.3C504.8,329.1,504.6,329,504.2,328.9z M519.4,328.9
			c-0.8,0-0.5,0.4-1.1,0.6c-0.5,0.2-1-0.3-1.5,0.1c-0.3,0.1-0.8,0.9-0.9,1.2c-0.1,0.2,0,0.5-0.1,0.7c0.2,0.1,0.3,0.2,0.4,0.3
			c0.8,0.5,1.6-0.5,2.4-0.7c0.1-0.6,0.8-1,1.3-1.2c0.1-0.4,0-0.4-0.1-0.8C519.7,329.2,519.5,329.1,519.4,328.9z M484.7,330
			c0-0.5-0.1-0.7-0.3-1h-0.2c0,0.2-0.2,0.3-0.4,0.5c0.1,0.3,0.1,0.5,0.4,0.6c0.1,0.1,0.2,0,0.4-0.1L484.7,330L484.7,330z
			 M342.9,329.6c0.1-0.1,0.2-0.1,0.4-0.1v-0.2h-0.1c-0.1,0-0.2,0.1-0.3,0.1c-0.1-0.1-0.1-0.2-0.3-0.2c-0.1,0.2-0.1,0.3-0.2,0.5
			c0.1,0.3,0.1,0.2,0.2,0.4c0.1-0.1,0-0.1,0.1-0.2c0.2,0,0.1,0,0.2-0.1C343,329.6,343,329.7,342.9,329.6z M383.7,330v0.2h0.2
			C383.8,329.9,383.9,330.1,383.7,330z M327.2,330.1c-0.2,0-0.4-0.1-0.6-0.1c-0.1,0.1-0.2,0.1-0.3,0.2c-0.1,0.2-0.1,0.4-0.2,0.5
			c0,0.5,0.1,0.7,0.5,0.8c0.2,0.1,0.8,0,0.9-0.2c0,0,0.3,0,0.2-0.1c0,0-0.1-0.1-0.1-0.1h0.8v-0.1
			C327.7,330.9,327.5,330.6,327.2,330.1z M513.3,330.1c-0.2,0-0.3-0.1-0.5-0.1c-0.1,0.1-0.1,0-0.2,0.1c-0.1,0.3-0.3,0.4-0.2,0.7
			c0,0.5,0.7,0.4,1.2,0.3c0-0.2,0.1-0.3,0-0.5C513.4,330.4,513.3,330.4,513.3,330.1z M497.9,330.1c-0.1,0.2-0.3,0.4-0.5,0.5
			c0.1,0.2,0,0.5,0.2,0.8c0.2,0.1,0.8,0.4,1.1,0.3c0.2-0.1,0.3-0.3,0.5-0.2c0.2-0.2,0.2-0.4,0.2-0.5
			C499.2,330.3,498.5,330.2,497.9,330.1z M343.1,330.2c-0.1,0.1-0.1,0.1-0.2,0.2v0.2c0.2,0,0.4,0,0.5-0.1c0.1-0.1,0,0,0.1-0.2
			c0,0-0.1-0.1-0.1-0.1L343.1,330.2L343.1,330.2z M305.9,330.3h-0.5l-0.5,0.5c0,0.5,0.3,0.6,0.5,0.9c0.5,0,0.7-0.1,1.1-0.3
			c0-0.3-0.1-0.5-0.2-0.7C306.1,330.4,306.1,330.4,305.9,330.3z M313.9,330.4c-0.1,0.1-0.2,0.2-0.4,0.3c0,0.6,0.3,0.8,0.5,1.2
			c0.3,0.1,0.6,0,0.9,0c0,0.2,0.1,0.3,0.2,0.5c0.5,0.2,0.8,0.2,1.3,0.1c0-0.2,0-0.4,0.1-0.5C316.5,331.4,314.5,330.6,313.9,330.4z
			 M511.2,330.7h-0.6c-0.1,0.1-0.2,0.2-0.4,0.3c0,0.7,0.2,0.8,0.5,1.2c0.2,0,0.4,0,0.5,0c0.2-0.1,0.2-0.1,0.3-0.2
			c0.2-0.3,0.2-0.5,0.2-0.7C511.5,331.1,511.4,330.8,511.2,330.7z M344.5,331.2c-0.1,0.1-0.1,0.1-0.2,0.2c0.1,0.6,0.2,1.1-0.2,1.4
			c0.2,0.3,0.5,0.4,1.1,0.4c0.1-0.2,0.3-0.3,0.5-0.4c0-0.3-0.1-0.9-0.2-1C345.5,331.4,345.1,331.2,344.5,331.2z M320.1,332.6
			c0,0.2,0,0.3,0.1,0.4h0.5c0-0.2,0.1-0.3,0.2-0.5c0,0-0.1-0.1-0.1-0.1C320.4,332.5,320.4,332.6,320.1,332.6z M354.5,332.7
			L354.5,332.7c-0.1,0.2-0.1,0.3-0.1,0.5c0,0.5,0.2,0.6,0.5,0.8v0.2c0.6,0,0.9-0.3,1-0.8c0.1-0.1,0-0.4,0.1-0.6
			C355.5,332.5,355.1,332.6,354.5,332.7z M374.2,334.2h-0.2v0.2h0.2V334.2z M323.3,334.7c-0.2,0-0.3-0.1-0.5-0.1v0.2h0.5V334.7z
			 M323.2,335.4c0.2,0,0.2,0,0.3-0.1c0.1,0,0.1,0,0.2-0.1c-0.1,0-0.2-0.1-0.4-0.1C323.2,335.2,323.2,335.3,323.2,335.4z
			 M374.4,335.3v-0.2h-0.2C374.2,335.4,374.2,335.3,374.4,335.3z M334.3,336.7c-0.1,0.2-0.3,0.4-0.4,0.5c0,0.3,0,0.5,0.2,0.7
			l0.3,0.3c1.3,0,0.8-0.5,1-1c-0.1-0.3-0.1-0.3-0.2-0.5C334.8,336.8,334.6,336.7,334.3,336.7z M505.9,337.3
			c-0.1-0.1-0.2-0.1-0.4-0.1c-0.2,0.1-0.3,0.3-0.5,0.4c0,0.6,0.3,0.7,0.4,1.1c0.4,0.1,0.6,0.2,0.9,0c0.2-0.2,0.2-0.7,0-1
			C506.3,337.4,506.1,337.3,505.9,337.3z M495.7,339.5c-0.2,0.3-0.3,0.2-0.5,0.2c-0.1,0.3-0.2,0.7-0.3,0.9c0.7,0.7,1,0.5,1.7,0.1
			c0-0.2,0.1-0.4,0.2-0.5C496.6,339.7,496.4,339.5,495.7,339.5z M484.5,341c-0.3,0.4-0.2,0.5,0.1,0.9c0.4,0,0.4,0,0.5-0.2
			c0.1-0.1,0-0.2,0-0.3C485,341.1,484.8,341,484.5,341z M414.4,364.8L414.4,364.8l-0.2-0.1C414.3,364.8,414.2,364.8,414.4,364.8z"/>
	</g>
</g>
<ellipse class="st0" cx="407.5" cy="385.7" rx="133.9" ry="10.3"/>
</svg>
