<?xml version="1.0" encoding="utf-8"?>
<!-- Generator: Adobe Illustrator 21.0.0, SVG Export Plug-In . SVG Version: 6.00 Build 0)  -->
<svg version="1.1" id="Calque_1" xmlns="http://www.w3.org/2000/svg" xmlns:xlink="http://www.w3.org/1999/xlink" x="0px" y="0px"
	 viewBox="0 0 841.9 595.3" style="enable-background:new 0 0 841.9 595.3;" xml:space="preserve">
<style type="text/css">
	.st0{fill:#DADADA;}
</style>
<ellipse class="st0" cx="412.9" cy="395.2" rx="117.6" ry="12"/>
<g>
	<g>
		<path d="M532.3,335.9c-0.1-0.2,0.1-0.6,0.1-0.7c0.1-0.3-0.2-2.1-0.2-2.2c-0.1-0.4-0.3-1.3-0.5-1.6c-0.2-0.5,0.2-0.8,0-1.4
			c-0.1-0.3-0.4-0.9-0.5-1.3c-0.1-0.4,0.2-0.6,0-1.1c-0.1-0.2-0.4-0.5-0.5-0.6c0-0.1,0.2-0.4,0.1-0.6c-0.2-0.6-0.5-1.2-0.7-1.8
			c-0.1-0.4,0-0.9-0.1-1.1c-0.1-0.3-0.4-0.3-0.5-0.9h-0.4c-0.1-0.6-0.7-1-1-1.5v-0.5c-0.1,0-0.2-0.1-0.3-0.1c0-0.3-0.1-0.6-0.1-0.9
			c-0.2-0.5-1.8-2.6-2.4-2.7l0.1-0.1c-0.1-0.2-1.6-1.2-1.9-1.5c-0.3-0.2-0.5-0.6-0.7-0.8c-0.2-0.2-0.6-0.2-0.7-0.4
			c-0.2-0.2-0.2-0.6-0.5-0.7c-0.1-0.1-0.6-0.1-0.6-0.2c-0.2-0.2-0.3-0.6-0.5-0.8c-0.7-0.5-1.5-0.8-2.3-1.3c-0.6-0.3-1.2-1.1-1.9-1.3
			c-0.1-0.4-0.4-0.4-0.5-0.8c0,0-0.1,0-0.1-0.2c0.1-0.1,0.2-0.1,0.3-0.2c0.2-0.3,0.3-0.8,0.4-1.1c0.1-0.4,0.1-0.7,0.2-1.1
			c0.2-0.5,0.8-0.9,1.1-1.4c0-0.1,1.2-1.5,1.4-1.9c0.3-0.7-0.1-1.6,0.2-2.4c0.2-0.5,0.8-0.8,1-1.2c0.3-0.5,0.2-1,0.5-1.5
			c0.8-1.5,2.6-1.6,3-3.8c0.1-0.4-0.1-0.5-0.2-0.7c-0.1-0.3,0-0.6,0-0.6c-0.4-1.1-2.1-1.8-3.1-2.4c-0.3-0.2-0.6-0.6-1-0.7
			c-0.4,0.1-0.7-0.1-1.1,0l-0.3,0.2c-0.5,0-1.1-0.5-1.7-0.3c-0.5,0.2-0.7,0.6-1,0.9c-0.3,0.1-0.6,0.2-0.9,0.3
			c-0.1,0.1-0.1,0.2-0.2,0.3c0,0.8-0.3,1.3-0.5,1.8c-0.1,0.2,0.1,0.6-0.1,0.9c-0.1,0.3-0.4,0.6-0.5,0.9c-0.4,0.9-0.5,1.6-0.9,2.4
			c-0.2,0.3-2.2,1.7-2.5,1.9c0,0.3,0.1,0.3,0,0.5c0.5,0.3,0.8,0.7,1.2,1.1c-0.1,1.4-2,3.4-2.7,4.6c-0.9-0.1-1.3-0.9-2.2-1.1
			c0-0.2-0.2-0.6-0.4-0.6c-0.1-0.1-0.5,0.1-0.8,0c-0.3-0.1-1.3-0.7-1.5-0.9c-0.1-0.2-0.2-0.3-0.2-0.5c-1.7,0-3.6-1.4-4.9-2.2
			c-0.3-0.2-0.6,0-1-0.2c0,0-0.4-0.4-0.4-0.4c-0.3-0.2-0.6-0.1-1-0.3c-0.4-0.2-0.8-0.5-1.2-0.7h-0.4c-0.3-0.1-0.7-0.5-1-0.6h-0.5
			c-0.5-0.3-1.2-0.7-1.7-1c-0.4-0.1-0.7-0.1-1.1-0.2c-0.1,0-0.2-0.3-0.2-0.3c-0.2,0-0.4-0.1-0.6-0.1c-0.1-0.2-0.2-0.3-0.4-0.5
			c-0.4-0.2-0.8,0-1.2-0.2c-0.7-0.3-1.6-0.8-2.3-1.1c-0.3-0.1-0.5,0-0.6,0c-0.8-0.4-2.1-0.7-2.9-1.1c-0.8-0.4-1.7-0.1-2.5-0.5
			c-0.4-0.2-0.8-0.6-1.3-0.7c-0.5-0.2-0.9,0.1-1.5,0c-0.5-0.1-1.3-0.5-1.8-0.6c-0.2-0.1-0.7,0.1-1.1,0c-2-0.8-4.3-1.1-6.4-1.4
			c-0.2,0.1-0.4,0.1-0.5,0.2c-0.5-0.1-1.2-0.4-1.8-0.5c-1.1-0.3-2.3-0.2-3.3-0.5c-0.6-0.2-1.1,0.4-1.5,0.3c-0.3-0.1-0.4-0.4-0.6-0.5
			h-1.1l-0.3-0.3c-0.5-0.1-1,0.3-1.5,0.2c-0.8-0.2-1.9-0.2-2.8-0.5c-0.5-0.1-1.1,0.1-1.4,0.1c-1.1-0.2-2.5-0.4-3.6-0.7
			c-0.3,0-0.7,0.1-1,0.1c-1.2-0.3-3.3-0.4-4.8-0.7c-0.8-0.2-2.7,0.3-3.5,0.1c-2.9-0.6-7.1-0.6-10.5-1.3c-0.3,0-0.6,0.1-0.9,0.1
			c-0.8-0.2-2-0.1-2.5-0.3c-0.5,0-1.1,0.1-1.6,0.1c-0.9-0.2-1.9-0.1-2.6-0.3c-0.8-0.2-1.5,0.3-2.4,0.2c-0.8-0.1-2.3-0.3-3.1-0.4
			c-0.9-0.1-2.2,0.4-2.8,0c-1.2,0-1.5,0.1-2-0.6c-0.2,0.1-0.3,0.4-0.5,0.6c-0.7,0-1.4,0.4-1.9-0.1c-0.1-0.1,0,0,0-0.3
			c-0.3,0-0.4,0.2-0.5,0.3c-0.7,0.2-2.5-0.2-3.2,0c-0.5,0.1-1.1,0.3-1.5,0.4c-0.8-0.1-1.6-0.1-2.5-0.2c-1.1,0.2-2.5,0.3-3.3,0.4
			c-0.5-0.1-0.9-0.1-1.4-0.2c-0.1,0-0.4,0.2-0.5,0.3c-0.4,0.1-1,0-1.2-0.1c-0.7-0.2-1.6,0.1-2.2,0.3c-0.5,0.1-0.7-0.2-1.1-0.2
			c-0.9,0-2.2,0.1-3,0.3c-0.9,0-1.8-0.1-2.6-0.1c-0.5,0.1-1.1,0.3-1.5,0.4c-0.9,0.2-1.7-0.1-2.5,0.2c-0.3,0.1-0.8,0.4-1.1,0.5
			c-0.7,0.2-2.3-0.2-3-0.1c-1.9,0.3-4.3,0.6-5.9,0.5v-0.3c-0.4,0.1-0.3,0.4-0.6,0.5H370c-0.1,0-0.4,0.2-0.5,0.3
			c-0.5,0-0.9,0.1-1.4,0.1c-0.6,0.2-1.6,0.2-2,0.5c-0.2,0.1-0.7,0.6-1,0.6c-1.2,0-2.4,0.1-3.6,0.5c-0.6,0.2-1-0.1-1.5,0
			c-0.4,0.1-1,0.4-1.4,0.5c-0.8,0.3-1.5,0.1-2.3,0.5c-0.1,0.1-0.3,0.3-0.5,0.4c-0.4,0-0.8,0.1-1.3,0.1c-1.9,0.7-4.3,1.2-6.4,1.8
			c-0.6,0.1-1.2,0.2-1.8,0.3c-0.4,0.1-0.9,0.5-1.4,0.6c-0.4,0-0.8,0.1-1.3,0.1c-0.5,0.1-1.4,0.4-1.9,0.5c-0.4,0-0.8-0.1-1.2-0.1
			c-0.5,0.1-0.9,0.6-1.4,0.7h-1.1c-0.6,0.1-0.9,0.5-1.4,0.6c-0.4,0-0.8,0.1-1.2,0.1c-0.7,0.2-1.2,0.9-1.8,1.2
			c-1.1,0.6-2.6,0.5-3.6,1.2c0,0-0.3-1.7-0.2-2.1c0-0.1,0.2-0.1,0.2-0.4c0-0.4-0.1-1-0.1-1.3c0-0.1,0.2-0.7,0.2-0.8
			c-0.1,0-0.1-0.1-0.2-0.1c-0.1-0.4-0.1-2.4-0.1-2.7c0.1-0.4,0.3-1.1,0.2-1.5c-0.1-0.5,0.1-0.9,0.2-1.5c0.1-0.6-0.2-1.6,0.1-2.5
			c0-0.1,0.3-0.3,0.3-0.3c0.1-0.2-0.1-0.4-0.1-0.5h0.2c0-0.4,0.1-0.8,0.1-1.3c0.1-0.5,0.4-1.2,0.5-1.6c0.1-0.3-0.1-0.8-0.1-0.9
			c0.1-0.5,0.4-1.3,0.5-1.7c0-0.3-0.1-0.5-0.1-0.8c0-0.1,0.5-0.8,0.5-1c0.3-0.5,0-1.1,0.2-1.6c0.1-0.3,0.6-0.6,0.7-0.9
			c0.1-0.3,0-0.9,0-1c0.1-0.4,0.5-1.1,0.6-1.5c-0.3-0.8,0.5-3,0.7-3.5c0.2-0.3,0.1-0.6,0.3-0.9h0.1v-0.3h-0.2
			c0.1-0.1,0.2-0.1,0.3-0.2c0.2-0.3,0-0.7,0.2-1.1l0.5-0.5c0.2-0.3,0.1-0.5,0.2-0.9c0-0.1,0.2-0.3,0.3-0.4c0.3-0.8,0.1-1.1,0.4-2
			c0.1-0.2,0.4-0.5,0.5-0.6c0.3-0.5,0.2-1.2,0.5-1.7l0.4-0.4c0-0.3,0.1-0.5,0.1-0.8c0-0.1,0.3-0.2,0.4-0.3c0-0.4,0.1-0.7,0.1-1.1
			c0.1,0,0.2-0.1,0.3-0.1v-0.5c0.1,0,0.2-0.1,0.3-0.1c0.2-0.3,0-0.5,0.2-0.8c0.1-0.2,0.4-0.5,0.5-0.6c0.1-0.3,0.1-0.7,0.2-1
			c0.2-0.4,0.6-0.9,0.8-1.4c0.3-0.6,0.3-1.2,0.5-1.8c0.2-0.3,0.6-0.7,0.7-1c0.2-0.4,0-0.8,0.2-1.3c0.1-0.2,0.3-0.5,0.4-0.7
			c0.1-0.2-0.1-0.6-0.1-0.6c0.1,0,0.2-0.1,0.3-0.1c0.1-0.2,0-0.4,0-0.5c0.2-0.5,0.6-1,0.8-1.5c0.1-0.2-0.1-0.3-0.1-0.4
			c0.1-0.1,0.4-0.3,0.5-0.5c0-0.3,0.1-0.5,0.1-0.8l0.4-0.4c0.1-0.4,0.1-0.8,0.2-1.2c0.7-2.2,1.8-4.4,1.1-7c-0.1-0.3,0.3-1.5,0.2-1.9
			c-0.4-2.4-0.6-4.5-1.9-6.6c-0.5-0.9-2.2-2.8-2.3-3.8c-0.6-0.2-1-1-1.4-1.5c-0.2-0.3-0.6-0.6-1-0.7c-0.2,0-0.4-0.1-0.6-0.1
			c-0.1-0.1-0.1-0.3-0.2-0.4c-0.5-0.5-1.1-1.2-1.8-1.5c-0.9-0.3-1.7-0.2-2.5-0.5c-1.2-0.4-2.6-1-3.8-1.4c-0.4,0-0.7-0.1-1.1-0.1
			l-0.5-0.5c-0.5-0.1-0.9-0.1-1.4-0.2c-0.1,0-0.5-0.3-0.5-0.3c-1.2-0.3-4-0.1-5.1-0.5c-0.5,0.1-1,0.3-1.4,0.4
			c-0.5,0.1-0.8-0.2-1.3,0.1v0.2c-0.3,0.1-0.5,0.1-0.8,0.2l-0.4,0.4c-0.3,0-0.5-0.1-0.8-0.1c-0.9,0.2-2.6,0.4-3.4,0.8
			c-0.2,0.1-0.5,0.3-0.7,0.5c0,0.1-0.1,0.2-0.1,0.3c-0.5,0.3-1.5,0.4-2,0.7c-0.2,0.1-0.8,0.7-1,0.8c-0.1,0-0.2-0.1-0.4-0.1
			c-0.3,0.2-0.6,0.6-0.9,0.7c-0.2,0-0.3,0.1-0.5,0.1c-0.1,0.1-0.1,0.4-0.2,0.5c-0.3,0.2-0.8,0.2-1.1,0.5c0,0,0,0.5-0.2,0.6
			c-0.2,0.2-0.7,0.1-1,0.3c-1,0.7-2.4,1.4-3.7,2.1c-0.3,0.2-0.7,0.6-1,0.8c-0.4,0.2-0.9,0-1.2,0.3c0,0.1-0.1,0.2-0.1,0.3h-0.3
			c-0.2,0.1-0.4,0.5-0.5,0.6h-0.4c-0.3,0.2-0.6,0.7-0.9,0.9c-0.2,0.1-0.4,0.1-0.6,0.2c-0.1,0.1-0.1,0.3-0.2,0.4
			c-0.7,0.6-1.8,0.8-2.5,1.3c-0.4,0.3-0.7,0.7-1.1,1c-0.2,0-0.4,0.1-0.6,0.1c-0.7,0.3-1.4,0.9-2.1,1.2c-0.4,0.2-0.7,0.1-1,0.3
			c-0.3,0.2-1,0.6-1.2,0.9c-0.1,0.1-0.1,0.3-0.2,0.4c-0.3,0.2-0.7,0.1-1,0.3c-0.2,0.2-0.4,0.4-0.5,0.6c-0.4,0.3-0.8,0.3-1.2,0.6
			c0,0.1-0.1,0.2-0.1,0.3c-0.3,0.2-0.6,0-1,0.2c0,0-1.1,0.9-1.2,1h-0.1c0,0.1-0.1,0.2-0.1,0.4h-0.4c-0.3,0.1-0.6,0.5-0.9,0.6
			c-0.3,0.1-0.5,0.1-0.8,0.2c-0.1,0-0.1,0.2-0.2,0.3c-0.4,0.3-0.9,0.5-1.2,0.6c0,0.8,0.3,1,0.4,1.5c0.3,0.1,1,0.4,1.2,0.3
			c0.8-0.3,1.8-0.5,2.4-0.6c0.3,0.2,0.6,0,1.2,0.2c1.3,0.5,3.5,0.2,5.3,0.5c0.5,0,0.9-0.1,1.4-0.1c0.4,0.1,2,0.4,2.5,0.3
			c0.4-0.1,1.6-0.5,2.1-0.3c0.2,0.1,0.8,0.4,1.1,0.5c0.7,0.2,1.3-0.2,1.9-0.1c1,0.2,2.3,0.4,3.2,0.6c0.2,0,0.3-0.1,0.5-0.1
			c0.4,0.1,1.7,0.5,2,0.7c0.1,0.2,0.2,0.4,0.4,0.6c0.5,0.4,1.5,0.4,2,0.8c0.3,0.2,1.5,1.3,1.7,1.2c0,0.1-0.1,0.2-0.1,0.4l1,1
			c0.2,0.4,0.2,0.6,0.4,1c0.1,0.1,0.2,0.1,0.3,0.2c0,0.3-0.1,0.7-0.1,1c0.2,0.9,0.9,1.7,1.1,2.7c0,0.2-0.1,0.5-0.1,0.7
			c0,0.7,0.3,2,0,2.6c-0.1,0.2-0.4,0.5-0.5,0.6c-0.2,0.5,0,1.3-0.3,1.9c-0.3,0.8-0.8,1.6-1.2,2.3c0.1,0,0.2,0,0.1,0.2
			c0,0.1-0.3,0.4-0.4,0.5c-0.1,0.2,0.1,0.8-0.1,1.2c-0.1,0.3-0.4,0.8-0.5,1.2v0.5c-0.1,0.3-0.4,0.6-0.5,0.8c0,0.1,0.1,0.2,0.1,0.3
			c0,0-0.4,0.1-0.5,0.3c0,0.2,0.1,0.4,0.1,0.6c-0.1,0.2-0.6,1.5-0.7,1.7h-0.2c-0.3,0.5-0.2,1.2-0.5,1.7c-0.1,0-0.2,0.1-0.3,0.1
			c-0.4,0.4-0.4,1-0.7,1.5c-0.1,0.1-0.4,0.2-0.5,0.4c-0.3,0.4,0,1-0.3,1.5l-0.4,0.4c-0.1,0.2,0.1,0.4-0.1,0.6
			c-0.5,0.7-1.1,1.5-1.5,2.3v0.5c-0.2,0.3-0.6,0.6-0.8,0.9c0,0.2-0.1,0.4-0.1,0.6c-0.1,0.2-0.4,0.4-0.5,0.6v0.5
			c-0.3,0.6-1.2,1.2-1.4,1.9c-0.1,0.4-0.1,0.9-0.3,1.5c-0.2,0.4-1,0.9-1.1,1.1c0,0.2,0.1,0.4,0.1,0.6l-0.4,0.4v0.4
			c-0.1,0.1-0.3,0.3-0.4,0.5c0,0.1,0.1,0.2,0.1,0.3c-0.1,0.3-0.5,0.6-0.6,0.8c-0.2,0.3-0.2,0.7-0.4,1.1c-0.1,0.3-0.5,0.6-0.6,0.9
			c-0.3,0.7-0.2,1.5-0.5,2.1c-1.3,2.2-2.7,4.7-3.7,6.9c-0.4,0.8-1,3.3-1.8,3.5c0.1,0.2,0,0.1,0.2,0.2c-0.1,0.4-0.2,0.9-0.5,1.2
			c-0.1,0-0.2,0.1-0.4,0.1v0.3c0,0.3-0.2,0.9-0.2,1.4c-1.1,1.6-1.5,3.6-2.2,5.3c-0.4,0.9-0.2,2-0.5,2.9l-0.5,0.5
			c-0.2,0.3,0.1,0.3,0,0.7c-0.1,0.3-0.4,0.9-0.5,1.2c0,0.1,0.1,0.2,0.1,0.4c-0.1,0.4-0.3,1.1-0.4,1.5c0,0.1,0.1,0.2,0.1,0.4
			c-0.1,0.2-0.4,0.2-0.5,0.4c0,0.2,0.1,0.5,0.1,0.7c-0.2,0.8-0.1,1.4-0.3,2.2c-0.4,1.8-0.4,5.2,0,7.4c0,0.3-0.1,0.6-0.1,0.9
			c0,0.7,0.1,1.2,0.2,2c0,0.1-0.2,0.2-0.1,0.5c0.2,0.5,0.3,0.6,0.3,1.5c-0.2,0.1-0.3,0.3-0.5,0.4c0,0.4,0.2,0.8,0.1,1
			c0,0.1-0.2,0-0.2,0.3c0.1,0.4,0.6,1.1,0.7,1.5c0.1,0.3-0.1,2-0.1,2.2c0.1,0.2,0.4,0.6,0.5,0.8c0,0.3,0.1,0.6,0.1,0.9
			c0.1,0.3,0.5,0.6,0.5,0.9c0.1,0.5-0.2,0.6,0,1.1c0.1,0.2,0.5,0.5,0.6,0.8c0,0.2-0.1,0.4-0.1,0.5c0.1,0.2,0.4,0.2,0.5,0.4
			c0.2,0.3,1.3,1.6,1.5,1.8c0.2,0.5,0.1,1,0.3,1.4c0.1,0.2,0.5,0.5,0.6,0.7v0.5c0.1,0.3,0.5,0.6,0.6,0.9v0.5
			c0.2,0.2,0.4,0.3,0.6,0.5c0.2,0.3,0.3,0.6,0.5,0.9h0.3c0.3,0.9,1.4,1.2,1.3,2.3c0.6,0.3,0.9,0.7,1.4,1c0.2,0.1,0.3,0,0.5,0.1
			l0.3,0.8c0.2,0.1,0.5,0.1,0.6,0.3c0,0.2,0.1,0.5,0.1,0.7c0.3,0.5,1.4,1.3,1.6,1.6c0.5,0.8,0.5,1.6,1.2,2.4
			c0.1,0.2,0.5,0.1,0.6,0.3c0,0.1,0.1,0.2,0.1,0.4c0.1,0,0.2,0.1,0.3,0.1c0.2,0.1,0.1,0.3,0.2,0.5c0.2,0.3,0.7,0.4,0.9,0.6
			c0.1,0.1,0.1,0.3,0.2,0.4c0.5,0.3,1.1,0.4,1.5,0.7c0.2,0.1,0.1,0.5,0.3,0.6c0.2,0.1,0.5,0.1,0.6,0.3c0,0.2,0.1,0.3,0.1,0.5
			c0.3,0.2,1,0.4,1.4,0.6c0.3,0.2,0.3,0.6,0.5,0.8c0.3,0.3,0.7,0.3,1.1,0.5c0.5,0.4,1.1,1,1.6,1.4c0.4,0.2,0.8,0.2,1.1,0.5
			c0.1,0.2,0.2,0.5,0.4,0.7c0.3,0.2,0.5,0,0.8,0.2c0.2,0.2,0.5,0.7,0.7,0.8h0.5c0.5,0.3,0.8,1.1,1.3,1.5c0.5,0.4,0.8,0,0.9,0.8
			c1-0.4,1.9,1.2,3.2,1.5c-0.1,0.3-0.1,0.4-0.4,0.5v0.2c0.4-0.1,0.6-0.3,1-0.5c0.4,0.5,1.1,0.9,1.6,1.1c0.5,0.2,0.9,0.1,1.4,0.4
			c0.4,0.3,0.4,0.8,0.9,1h1c0.2,0.1,0.5,0.3,0.7,0.4h0.7c0.2,0.1,0.4,0.4,0.6,0.5c0.5,0,0.9,0.1,1.4,0.1c-0.5,0.3,1.2,0.7,1.6,0.7
			c0.2,0.9,2.1,1.3,3.2,1.3c0,0.2,0,0.2,0.1,0.3c0.2,0.3,0.5,0.1,0.8,0.4c0.2,0.1,0.3,0.4,0.5,0.5v0.1h1.2c0.3,0.1,0.6,0.5,0.9,0.5
			c0.2,0,0.4-0.1,0.6-0.1c0.1,0.1,0.2,0.2,0.3,0.4h0.5c0.1,0.1,0.2,0.3,0.4,0.4c-0.1,0.2-0.1,0.2-0.2,0.4v0.2c0.5,0,0.8-0.4,1.3-0.3
			c1.7,0.3,3.4,1,5,1.2c0.4,0,0.8,0.5,1.2,0.6c0.5,0.2,0.9,0.1,1.5,0.1v0.3c1.4,0,1.5,0.5,2.4,0.8c0.4,0.1,0.7,0.1,1.1,0.2l0.2,0.4
			c0.2,0.1,0.9-0.3,1.3-0.2c0,0.1,0.1,0.1,0.1,0.2c0.7,0.2,1.3-0.1,1.9,0l0.4,0.2c0.1,0,0.3-0.2,0.5-0.1c0.3,0.1,0.6,0.6,0.9,0.7
			c0.3,0,0.6,0.1,0.9,0.1c0.2,0.1,0.3,0.4,0.5,0.5c0.4,0.1,1.4-0.4,1.8-0.2c0.1,0.1,0.1,0.2,0.2,0.3h1c0.2,0,1.6,0.2,1.8,0.3
			c0.9,0.4,2.3,0.7,3.4,0.9c0.7,0.1,1.9-0.1,2.3,0c0.1,0,0.3,0.2,0.4,0.3c0.5,0.2,1.2,0.2,1.5,0.4h1.7c0.2,0.1,0.6,0.3,0.8,0.4
			c0.5,0.1,1.1,0.1,1.6,0.2c0.9,0.2,2,0.4,2.9,0.6c0.3,0,0.5-0.1,0.8-0.1c0.4,0.1,0.6,0.3,1,0.2c0.3-0.1,1.1-0.2,1.3-0.2
			c0.3,0.1,0.5,0.5,0.8,0.1c0.4,0,0.5,0.1,0.6,0.4c0.6-0.1,0.7-0.5,1.4-0.6c0,0.2,0,0.3,0.1,0.4v0.2c1.2,0,2.3,0.1,3.6,0.5
			c0.7-0.1,1.3-0.1,2-0.2l0.3,0.3c0.5,0.2,1.8-0.2,2.3-0.1c1.5,0.2,3.5-0.2,4.8,0c0.6-0.1,1.2-0.1,1.7-0.2c0,0.1,0.1,0.1,0.1,0.2
			c0.5,0.2,1-0.1,1.3-0.2c0.4-0.1,0.5,0.1,0.8,0.2c0.4,0.1,0.7-0.1,0.9-0.2c0.4,0.1,0.7,0.1,1.1,0.2c0.2,0,1.5-0.6,1.5-0.5
			c0.3,0.1,0.8,0.5,1.4,0.4c0.2-0.1,0.7-0.5,1.1-0.3c0,0,0.1,0.3,0.2,0.3c0.5,0.1,2.5-0.2,3-0.3c0.3,0,0.7,0.1,1,0.1
			c0.3-0.1,1-0.3,1.4-0.2c0.1,0,0.3,0.3,0.7,0.2c0.5-0.1,1-0.4,1.6-0.5v0.3c0.5,0,0.9-0.1,1.2-0.2c0.5-0.1,1.3,0.3,2.1,0.1
			c0.4-0.1,1.1-0.3,1.5-0.4c0.7,0,1.5,0.1,2.2,0.1c0.9-0.2,2.6-0.3,3.5-0.3c0.1,0,0.7,0.1,0.9,0.1c0.2,0,0.7-0.3,0.9-0.4
			c0.5-0.1,1.2,0,1.5,0.1c0.4,0.1,0.5-0.1,0.6-0.2c0.5,0,1,0.1,1.5,0.1c0.1,0,0.4-0.2,0.5-0.3c0.4-0.1,0.7-0.1,0.8,0.1
			c0.6,0,0.5-0.4,0.9-0.5c0.8,0.1,1.6,0.2,2.4,0.3l0.4-0.4c0.5-0.2,1.4,0.3,2.2,0.1c0.2,0,0.7-0.2,0.9-0.3h0.9
			c0.2-0.1,0.5-0.3,0.7-0.4c0.3,0,0.8,0.1,1.2,0c0.4-0.1,0.8-0.4,1.1-0.5c0.8-0.1,1.6-0.1,2.4-0.2c0.2-0.1,0.5-0.4,0.7-0.5
			c0.9-0.3,1.8,0.2,2.7-0.2c0.6-0.2,1.3-0.7,2-0.5c0.7,0.1,0.8-0.2,1.1-0.4c0.5,0,0.9,0.1,1.4,0.1c0.4-0.1,1.2-0.3,1.5-0.4
			c0.6-0.1,1.5-0.3,1.7,0.1c0.5-0.1,0.7-0.5,1.3-0.6c0,0,0.7,0.1,0.8,0.3h0.2v-0.4c0.7-0.1,1.1-0.4,1.8-0.6c0.6-0.2,1.5,0.1,1.9,0.1
			v-0.3c0.3,0,0.1,0,0.4,0c0,0.1,0.1,0.4,0.2,0.5c0,0,1-0.9,1.5-1c0.5-0.1,1.6-0.2,2.2-0.4h0.7c0.5-0.2,1.4-0.6,1.9-0.7h0.8
			c0.8-0.2,1.8-0.4,2.5-0.7h0.5c0.7-0.2,1.5-0.2,2.3-0.5c0.7-0.3,1.4-0.8,2-1.1h0.7v-0.2c0.5-0.3,0.8,0,1.3-0.1
			c0.3-0.1,0.6-0.4,0.8-0.5c0.3,0,0.6,0.1,0.9,0.1c0.7-0.2,1.5-0.2,2.1-0.4c0-0.1,0.1-0.1,0.1-0.2c-0.2-0.1-0.4,0-0.5-0.1H478v-0.2
			c0.5-0.1,1.1-0.5,1.5-0.2c0.2-0.1,0.2-0.1,0.2-0.5c0.8,0.3,2.9-1.2,3.6-0.5c0.7-0.1,0.4-0.6,0.8-0.9c0.3-0.3,0.9,0,1.3-0.2
			l0.4-0.4c0.4-0.2,0.6-0.1,0.9-0.3c0-0.1,0.1-0.2,0.1-0.3c0.2-0.1,0.8-0.1,1.1-0.2c0.5-0.2,1-0.7,1.5-0.9c0.2,0,0.4,0.1,0.5,0.1
			c0.2-0.1,0.5-0.5,0.7-0.5c0.3,0,0.7-0.1,1-0.1c0.4-0.2,0.9-0.7,1.3-0.9c0.6-0.3,1.4-0.2,2-0.5c0.1-0.1,0.2-0.2,0.3-0.4
			c0.1,0,0.5,0.1,0.5,0c0.1-0.1,0-0.3,0.1-0.4c0.7-0.6,2.3-1.2,3.4-1c0.2-0.3,0.3-0.3,0.4-0.7c0.3,0.1,0.5,0.1,0.7-0.1
			c1.7,0,1.1-0.7,1.9-1.2c0.1-0.1,0.6,0.1,0.9,0l0.3-0.3c0.3-0.1,0.7-0.1,1-0.2c0.1-0.1,0.1-0.4,0.2-0.5l0.8-0.2
			c0.1-0.5,0.4-0.8,0.6-1.3c0.5-0.2,1.1-0.3,1.4-0.5c0.1,0,0.3,0.2,0.5,0.1c0.1,0,0.5-0.5,0.6-0.5c0.5,0.2,0.6,0.5,1.1,0.6
			c0-0.5-0.2-0.4-0.3-0.8h0.4c0-0.3,0-0.2-0.2-0.4c0.2-0.9,0.6-0.5,1.4-0.8c0.3-0.1,0.7-0.5,1-0.6c0.2,0,0.4-0.1,0.5-0.1
			c0.1-0.2,0.2-0.3,0.3-0.5c0.2-0.1,0.4,0,0.5-0.2c0-0.1,0.1-0.2,0.1-0.3c0.4-0.2,1.1-0.1,1.5-0.4c1.2-0.7,2.6-1.4,3.6-2.3
			c0.5-0.4,0.7-1.4,1.3-1.7c0.3-0.2,0.7-0.1,1-0.3c0.2-0.2,0.6-1.1,0.5-1.2v-0.1h0.4c0.5-0.3,0.9-0.9,1.4-1.2h0.3
			c0.3-0.2,0.5-0.7,0.7-1c0.1-0.1,0.5-0.2,0.5-0.3c0.1-0.1,0.1-0.5,0.3-0.5c0.4-0.3,0.9-0.2,1.3-0.5c0.1-0.2-0.1-0.3,0-0.5
			c0.2-0.2,0.5-0.4,0.7-0.6c0.4-0.5,0.3-1.3,0.6-1.8c0.2-0.3,1.4-1.3,1.5-1.4c0-0.2-0.1-0.3-0.1-0.5c0.2-0.8,1.4-2.7,2.1-3
			c-0.1-0.7-0.1-2,0.3-2.6c0.1-0.2,0.5-0.3,0.5-0.5c0.3-0.7-0.1-1.7,0.1-2.3c0-0.2,0.3-0.3,0.4-0.4v-0.9c0.1,0,0.2-0.1,0.3-0.1v-0.3
			L532.3,335.9L532.3,335.9z M303,229.6c-0.2,0.6-0.3,1.2-0.3,2.1c-0.6,0-0.8,0.4-1.1,0.5c-0.2,0-0.9-0.2-1.3,0
			c-0.1,0.1-0.4,0.3-0.5,0.4c-0.8,0.2-1.5,0.4-2.2,0.5h-0.6c-0.3,0.1-0.9,0.4-1.1,0.5c-0.5,0-1,0.1-1.5,0.1v0.2
			c-0.6,0.3-1.1,0.1-1.7,0.4c-0.3,0.1-0.7,0.4-1,0.5c-0.3,0-0.5,0.1-0.8,0.1l-0.3,0.3c-0.5,0.2-0.9,0-1.5,0.2
			c-0.1,0-0.5,0.3-0.6,0.4c-0.4,0.2-0.7-0.1-1,0.2h-0.2c0.1-0.5,0.4-0.4,0.5-0.9c0.4-0.1,0.8-0.5,1-0.8h0.3c0.1-0.3,0.1-0.4,0.4-0.5
			c0.1-0.2,1.2-0.4,1.7-0.6l0.5-0.5c0.3,0,0.6-0.1,0.9-0.1v-0.2c0.2,0,0.3-0.1,0.5-0.1c0-0.1,0.1-0.2,0.1-0.3c0.3-0.3,0.7-0.3,1-0.5
			c0-0.1,0.1-0.2,0.1-0.3c0.2,0,0.4-0.1,0.6-0.1c0.1-0.1,0.2-0.5,0.4-0.5c0,0,0.3,0.2,0.5,0.1c0-0.1,0.1-0.2,0.1-0.3
			c0.5-0.3,1.4-0.8,2-0.9v-0.3c0.6-0.1,0.7-0.6,1.5-0.6V228c0.1,0.1,0.2,0.1,0.4,0.2c0.1-0.2,0-0.1,0-0.4c0.2,0,2.8-1.5,2.8-1.5
			c0.8,0,0.9,0.2,1.4,0.4c-0.2,0.5-0.5,0.9-0.6,1.4C302.7,228.6,303.1,229,303,229.6z M514,299.6c0.3-0.1,0.3-0.2,0.5-0.3
			c0-0.3,0.1-1.5,0.1-1.5c0.1-0.2,0.5-0.3,0.5-0.5c0.2-0.3-0.1-0.4,0-0.6c0.4-1.1,1-1.1,0.9-2.5c1.2,0.1,1.2,0.7,1.8,1
			c0.2,0.1,0.4-0.1,0.5-0.1c0.1,0,0.2,0.3,0.3,0.4c0.2,0.1,0.4,0.1,0.6,0.2c-0.2,0.9-0.9,1.5-1.3,2.5c-0.2,0.4,0,0.9-0.3,1.3
			c-0.1,0.1-1,0.9-1.1,0.9c-0.1,0.1-0.3,0.1-0.5,0.1V300h-0.3c0-0.2-0.1-0.4-0.1-0.5c-0.5,0-1.1,0-1.4,0.2L514,299.6L514,299.6
			L514,299.6z M507.3,310.2c0.5,0,0.4,0.1,0.9,0.2c0-1-0.1-1.8,0.7-2.3c0.2-0.1,0.5,0,0.6-0.2c0-0.2,0.1-0.4,0.1-0.6l1.2-1.2
			c0.3-0.4,0.4-1,0.6-1.5c0.2-0.4,0.7-0.5,1-0.8c0.1-0.3,0.1-0.6,0.2-0.9c0.1-0.2,0.3-0.4,0.5-0.5c1.2,0,1.5,0.5,2.6,0.6
			c-0.1,0.8-0.5,1.3-0.8,1.8c-0.2,0.5-0.3,0.9-0.5,1.4c-0.4,0.5-0.7,1.1-1.1,1.6c-0.3,0.4-0.8,0.8-1.1,1.2c-0.4,0.6-0.6,1.6-1,2.3
			c-0.3,0.4-1.4,2.9-1,3.6c0,0.7-0.1,1-0.3,1.4c-0.5,0-0.7-0.1-1.1-0.1c-0.1-0.3-0.4-0.6-0.6-1c-0.6,0-0.5-0.1-1.1-0.2
			c-0.1-0.4-1.2-1.8-1.5-2C505.7,311.1,506.7,311.3,507.3,310.2z M406.4,285.8L406.4,285.8L406.4,285.8c-0.2,0.2-0.2,0-0.2-0.1
			C406.3,285.8,406.3,285.8,406.4,285.8z M295.5,350.2c0.2,0.1,0.1,0,0.2,0.1C295.5,350.2,295.6,350.3,295.5,350.2z M363.9,382.7
			c-0.1,0.4-0.1,1,0.2,1.5c-0.2,0.1-0.3,0.2-0.5,0.3c-0.1-0.1-0.1-0.2-0.1-0.5c-0.3,0.1-0.5,0.2-1,0.2c-0.2-0.2-0.3-0.4-0.6-0.5
			c0.3-0.8,1.1-1.2,1.1-1.9c0,0,0.1-0.1,0.1-0.1c0.5,0,1,0.1,1.5,0.1C364.5,382.3,364.3,382.5,363.9,382.7z M374.7,385.7v-0.2h0.5
			C375,385.7,375,385.7,374.7,385.7z M397.5,386.2L397.5,386.2l-0.3,0.1v-0.2L397.5,386.2L397.5,386.2L397.5,386.2z M398.7,386
			c-0.2,0.1-0.2,0-0.3,0.2h-0.4c0.1-0.2,0.1-0.1,0.2-0.3L398.7,386L398.7,386L398.7,386z M399.3,386h0.3
			C399.4,386,399.4,386,399.3,386z M400.7,386L400.7,386c-0.2,0.1-0.2,0-0.4-0.1L400.7,386L400.7,386z M523.1,317.9
			c-0.6,0.1-0.9,0.5-1.5,0.5v0.3c-0.5,0.2-1.2,0.3-1.6,0.6c-0.2,0.1-0.3,0.5-0.5,0.6c-0.2,0-0.3,0.1-0.5,0.1
			c-0.3,0.2-0.6,0.6-0.9,0.7h-0.3c-0.1,0.2-0.2,0.3-0.3,0.5c-0.2,0.1-0.4,0.1-0.5,0.2c0.2,0.2-0.4,0.3-0.5,0.5
			c-0.6,0.6-1.1,1.3-1.7,1.9c-0.2,0.3-0.7,0.4-0.9,0.7c-0.3,0.4-0.3,1.2-0.5,1.6c-0.3,0.5-0.6,0.6-0.8,1.2c-0.4,1.1-0.6,2-1,3.2
			c-0.8,2.4-1.7,5.6-1.1,8.3c0,0.5-0.1,1-0.1,1.5c0.2,0.7-0.2,1.2,0,2c0.1,0.3,0.3,0.7,0.4,1.1c0.2,0.6-0.3,1.1,0,1.8
			c0.2,0.3,0.6,0.8,0.7,1.2c0.3,0.6,0,1.4,0.4,1.9c0,0,0.4,0.3,0.4,0.4c0,0.4,0.1,0.7,0.1,1.1c0.1,0.1,0.2,0.1,0.3,0.2
			c0.1,0.2,0,0.5,0.1,0.8c0.1,0.3,0.6,0.7,0.7,1c0,0.2,0.1,0.4,0.1,0.5c0.1,0.1,0.4,0.2,0.5,0.3c0.2,0.2,0.1,0.4,0.3,0.6h0.2
			c0.2,0.3,0.2,0.7,0.4,1c0.3,0.5,1.1,0.6,1.4,1.2h0.1c-0.5,1.8-1.6,1-2.6,1.7c-0.7,0.4-1.2,1.1-2.3,1.1c-0.1-0.4-0.3-0.4,0.1-0.7
			v-0.4c-0.2,0-0.3,0.1-0.5,0.2c-0.7-0.2-0.4-0.6-0.7-1.1h-0.2V356c-0.1-0.1-0.3-0.2-0.4-0.3c0-0.3-0.1-0.5-0.1-0.8h-0.2
			c-0.2-0.2-0.5-0.5-0.6-0.8c-0.3,0.1-0.6,0.1-1,0.1c-0.2,0.2-0.5,0.4-0.6,0.7h-0.4v0.3c0.2,0,0.2,0,0.3,0.1
			c0.3,0.2,0.2,0.6,0.4,0.9c0.3,0.5,1.8,2.6,1.6,2.9c0.1,0.2,0,0.1,0.3,0.2c-0.2,0.1-0.6,0.1-0.7,0.2c-0.1,0.1-0.1,0.3-0.2,0.4
			c-0.2,0.2-0.4,0.3-0.6,0.5c-0.8,0-1.1-0.4-1.8-0.5c0-0.2-0.1-0.5-0.2-0.6c-0.2-0.1-0.1,0-0.4,0c-0.1-0.5-0.3-1.1,0-1.5
			c-0.3-0.2-0.8-0.5-1-0.8c-0.4,0-0.4-0.1-0.6,0c-0.7,0.1-0.5,0.5-0.9,0.8c0,0.6,0.4,1.9,0.2,2.3c0.2,0.5,1.2,1.4,1.7,1.7
			c-0.1,0.3-0.4,0.3-0.6,0.5c-0.4,0.4-1.1,1.7-1.9,0.8c-0.3-0.3-0.2-0.4-0.2-0.9c-0.3,0.1-0.3,0.2-0.5,0.5c-1.1,0-1.1-1-1.6-1.6
			c0.1-0.3,0.2-0.4,0.3-0.7h-0.1c0,0-0.6-0.2-0.8-0.3c-0.1-0.3-0.1-0.2-0.3-0.5c-0.5,0-0.7-0.1-1.1-0.1c-0.2,0.6-0.8,1.2-0.5,2.1
			c0.2,0.6,1.2,1.6,1.1,1.9c0.1,0.3,1.3,0.7,1.5,0.9c-0.2,0.5-1.9,1.6-2.5,1.2h-0.2v-0.4c-1.1-0.1-1.7-0.6-2.5-0.8
			c-0.7-0.2-1,0.1-1.5,0c-0.3-0.1-0.7-0.2-1-0.2h-1.5c-1.5-0.7-2.9-0.9-4.6-0.7c-0.2,0-0.3-0.2-0.5-0.2c-0.4-0.1-0.8,0.1-1.1,0.2
			c-0.1-0.1-0.1-0.4-0.5-0.3v0.2h-0.6c-0.2,0.1-0.4,0.4-0.5,0.5c-0.3,0.1-0.6-0.2-0.7-0.2l-0.1,0.1c-0.7,0.1-1.7,0-2.4,0.2
			c-0.6,0.2-1.5,0.6-2.1,0.5l-0.5,0.5c-0.4,0.1-0.7,0.1-1.1,0.2c-0.3,0.2-0.6,0.7-0.9,0.8c-0.5,0.3-1.1,0.2-1.5,0.5
			c-0.4,0.3-0.9,0.8-1.4,1h-0.7c-0.1,0.2-0.2,0.4-0.4,0.5c-0.2,0-0.4,0.1-0.5,0.1l-0.5,0.5c-0.3,0.2-0.5,0.1-0.8,0.3
			c-0.1,0.2-0.2,0.3-0.4,0.5c-0.3,0.2-0.7,0.2-1,0.5c-0.1,0.1,0,0.3-0.1,0.4c-0.3,0.3-0.9,0.2-1.2,0.5c-0.5,0.4-0.7,1.1-1.1,1.6
			c-0.2,0.1-0.5,0.2-0.7,0.4c-0.3,0.4-0.3,0.9-0.6,1.3c-0.1,0-0.2,0.1-0.4,0.1v0.4c-0.2,0.1-0.3,0.2-0.5,0.3
			c-0.2,0.3-0.2,0.6-0.4,0.9c-0.2,0.1-0.4,0.2-0.5,0.4c0,0.1,0.1,0.2,0.1,0.4c-0.1,0.3-1.2,2.1-1.5,2.3c-0.7,0.5-2,0.4-2.6,0.6
			c0-0.1-0.1-0.1-0.1-0.2c-0.1,0,0,0,0-0.1c0.1-0.1,0.1-0.1,0.2-0.2c0-0.2-0.3-0.4-0.3-0.4c-0.1-0.1,0-1-0.1-1.4
			c-0.2-0.7-0.6-0.8-1-1.3c-0.9,0.1-0.8,0.7-1.5,1c0.1,0.5,0.1,1.2,0.4,1.5c-0.1,0.5-0.5,0.9-1,1c0.1,0.2,0.1,0.1,0.4,0.2
			c-0.1,0.3-0.2,0.4-0.3,0.6c-0.8,0.2-1.1,0.4-2,0.5c0.1-0.6,0.4-0.7,0.4-1.5c-0.2,0-0.2,0-0.3,0.1c-0.3-0.4-0.2-1.4,0-1.8
			c-0.2-0.2-0.3-0.5-0.5-0.6c-0.3-0.2-0.9-0.3-1-0.5c-0.4,0.1-0.7,0.5-0.8,0.9c-0.4,0.5,0,1.2,0,1.9c0,0.2-0.2,0.7-0.2,0.7
			c0.1,0,0.2,0.1,0.3,0.1v0.9c-0.2,0.3-1.2,0.4-1.5,0.2c-0.3,0.1-0.3,0.1-0.4,0.5c-0.3,0-0.8-0.4-1.5-0.2c-0.4,0.1-1,0.2-1.6,0.3
			c-0.1-0.5-0.3-0.5-0.6-0.6c0-0.2,0.1-0.4,0.1-0.6c-0.3-0.1-0.1,0-0.3-0.2c-0.1-0.3,0.2-0.7,0.4-1c0.3-0.3-0.6-1-0.6-1.3
			c-0.1-0.4,0.2-0.6,0.1-0.8l-0.1-0.1v0.1c-0.4,0.2-0.2,0.5-0.5,0.7h-0.4c-0.2,0.1-0.4,0.3-0.6,0.5c-0.1,0.6-0.5,2.3-0.4,2.6
			c0.1,0.4,0.3,0.7,0.4,1.3c-1,0-2.2,0-2.7,0.6c-1.5,0-1-2.3-0.9-3.6h0.3c-0.2-0.5-1-1.7-1.7-1c-0.6,0.3-1.2,2.7-0.7,3.6v0.1h-0.5
			c0.1,0.6,0.5,1.1,0.8,1.4c-0.1,0.2-0.1,0.2-0.2,0.4c-0.5,0-2.5,0.2-2.7,0.4c-0.3,0-0.5,0-0.6-0.1c-0.1-0.1,0-0.2,0-0.5
			c-0.2,0-0.2,0-0.3,0.1h-0.2c0.1-0.3,0-0.2,0.2-0.4v-0.3c-0.3,0.1-0.4,0.2-0.5,0.5c-0.2-0.1,0-0.2-0.4-0.4c0.1-0.3,0.1-0.4,0.4-0.5
			c-0.2-0.1-0.3-0.1-0.5,0c0-0.3,0.1-1.1-0.1-1.5c-0.1-0.1-0.2-0.1-0.3-0.2c-0.2-0.6,0.8-1.1,0.1-1.8c-0.2-0.3-0.5-0.3-0.7-0.5
			c-0.7,0-0.6,0.2-0.8,0.7c-0.1,0.2-0.5,0.4-0.5,0.6c-0.1,0.3,0.1,1.4,0.1,1.7c0,0.3-0.2,0.7-0.1,1c0,0.1,0.3,0.3,0.4,0.5
			c0.1,0.5-0.2,1,0.2,1.2c-0.5,0.5-1.4,0.3-2.1,0.4c-0.4,0.1-1.2,0.5-1.8,0.3c-0.2-0.1-0.5-0.5-0.7-0.6c-0.2,0-0.3,0.1-0.5,0.1
			c-0.5-0.1-0.9-0.7-1.2-1c-0.4-0.7,0-1.9-0.5-3c-0.1,0-0.2-0.1-0.4-0.1v-0.3c-0.3,0-0.3,0-0.5,0.2c-0.7,0-1,0.4-1.1,0.9
			c-0.3,0.5,0.4,3.8,1.2,4v0.1c-0.3,0.1-2.7,0.7-3.4,0.5c-0.3-0.1-0.4-0.3-0.7-0.4c-0.1-0.5-0.4-0.7-0.5-1.1
			c-0.3-0.9,0.3-1.9-0.4-2.5c0-0.5,0.1-0.6,0.5-0.7v-0.2c-0.2,0.1-0.4,0.1-0.5,0.3c-0.7-0.4-0.3-1.3-1.7-0.7
			c-0.1,0.5-0.2,1.9-0.5,2.1c0.1,0.6,0.8,2.7,1.2,3.1c0,0.2,0,0.2-0.1,0.3c-0.4,0.3-2.7,0.1-3.4,0.1c-0.2-0.5-0.8-1.2-1.1-1.5
			c0.3-0.1,0.5-0.1,0.8-0.1c-0.2-0.2-0.5-0.2-0.7-0.4c0,0-0.1,0-0.1-0.2c0.1,0,0.2-0.1,0.3-0.1c0.1-0.3-0.1-1.1-0.1-1.5
			c-0.2-0.1-0.1-0.3-0.3-0.5c-0.2-0.3-0.7-0.5-0.9-0.7h-0.4c-0.3,0.3-0.5,0.7-1,0.8c0,0.2-0.1,1.7-0.1,1.7c0.1,0,0.2,0.1,0.4,0.1
			c0.3,0.5,0.1,1.8,0.6,2.3v0.2c-0.5,0-1.1,0.2-1.6,0c-0.1-0.1,0-0.3-0.3-0.3c-0.4,0.1-1.6,0.6-2.2,0.2c-0.3-0.2-0.2-0.4-0.6-0.5
			v-0.1c0.1-0.1,0.2-0.1,0.4-0.2v-0.4c-0.2,0.1-0.1,0-0.2,0.1c-1.2,0-1.2-1.1-1.9-1.5c-0.2-0.1-0.5-0.2-0.7-0.4
			c-0.2-0.3-0.2-0.8-0.5-1c-0.2,0-0.3-0.1-0.5-0.1c-0.1-0.1-0.1-0.4-0.3-0.5c-0.5-0.3-0.8-0.5-1.3-0.8c-0.1-0.2-0.2-0.3-0.4-0.5
			c-0.3-0.2-0.6-0.1-0.8-0.3c0-0.1-0.1-0.2-0.1-0.3c-0.6-0.4-1.3-0.5-1.9-0.9c-0.2-0.2-0.3-0.4-0.5-0.5c-0.2,0-0.4-0.1-0.6-0.1
			c-0.5-0.2-1-0.7-1.5-0.9h-0.7c-0.3-0.1-0.9-0.5-1.3-0.6c-0.8-0.3-1.5,0.1-2.4-0.2l-0.3-0.3c-0.5,0-1.1-0.1-1.6-0.1
			c-0.2-0.1-0.6-0.3-0.8-0.4c-0.2-0.1-0.6,0.2-1,0.1c-0.2-0.1-0.5-0.3-0.8-0.3c-0.2,0-0.4,0.3-0.7,0.2c-0.8-0.2-1.9-0.5-3.4-0.5
			v-0.3c-1.2,0.1-2.3-0.4-3.6-0.1c-0.5,0.1-1.3,0.4-1.8,0.5c-0.4,0.1-0.5-0.2-1,0c-0.5,0.2-1.2,0.5-1.7,0.7
			c-0.6,0.2-1.4,0.4-1.9,0.5c-0.3,0-0.5,0.1-0.8,0.1c0,0.1-0.1,0.2-0.1,0.3c-0.7,0.5-1.5,0.8-2.2,1.3c-0.3,0.2-0.6,0.7-1,0.9
			c-0.7,0.4-1.4-0.2-2.1,0.3c-0.4,0.3-0.1,0.5-0.4,1.1c-0.2,0.5-1,1.4-1.5,1.5c-0.3,0.2-1.3,0.1-1.5-0.1h-0.2c0-0.6,0-0.7-0.1-1.1
			c0.1,0,0.4-0.1,0.5-0.2h0.2c-0.4-0.3-0.7-0.1-0.9-0.5c-2.1-0.1-2.4,1.8-2.2,3.6c-1.5,0.2-2.1-0.5-3.7-0.5c0,0-0.1-0.1-0.1-0.1
			c0-0.5,0.3-0.5,0.4-0.8v-0.6c0.1-0.3,0.7-0.7,0.8-1c0-0.1-0.2-0.3-0.1-0.5c0.1-0.2,0.4-0.2,0.5-0.3c-0.1-0.3,0-0.2-0.2-0.4
			c0.3-1.3,0.3-0.8-0.4-1.8c-0.2-0.1-0.1,0-0.2-0.1c-1.2,0-1.7,1-1.7,1.9c-0.1,0-0.2,0.1-0.4,0.1c-0.1,0.1,0.2,0.6,0.1,0.7
			c-0.1,0.9-1,0.9-1.5,1.5c-0.1,0.1-0.1,0.4-0.2,0.7c-1.5,0.1-1.9-0.9-3.7-0.9c0.2-0.9,0.5-2.1,0.9-2.6c-0.1-0.1-0.3-0.2-0.3-0.5
			c0.1-0.3,0.7-0.4,1-0.5c0-0.2-0.5-0.9-0.5-0.9h0.2c-0.1-0.9-1.1-0.8-1.8-0.6c0,0.3,0,0.2-0.1,0.5c-0.2,0.1-0.4,0.1-0.6,0.1
			c0.1,0.1,0.1,0.1,0.3,0.2c-0.1,0.8-0.1,1.6-0.9,2c0.1,0.1,0.2,0.2,0.4,0.3c-0.1,0.3-0.2,0.5-0.3,0.7c-0.1,0.4,0.2,0.8,0.1,0.9
			c-0.2,0.2-2.8-0.6-3-0.8c-0.6,0-0.8-0.1-1.1-0.3c0-0.2,0.1-1.2,0.1-1.2c0.1-0.1,0.5-0.1,0.5-0.3c0.1-0.2-0.1-0.6,0-0.9
			c0.2-0.5,0.8-0.8,1-1.4c0.2-0.5-0.3-1.1-0.5-1.4c-1.1,0-2,1.1-2.3,1.9v0.6c-0.1,0.3-0.7,1-0.3,1.5c0,0.2,0,0.3-0.1,0.5
			c-0.6,0-1,0.1-1.5-0.2c0-0.1-0.1-0.2-0.1-0.3h-0.1c-0.2,0-0.4,0.1-0.5,0.1c-0.6-0.1-1-0.5-1.7-0.5c-0.1-0.2,0-0.1-0.1-0.2
			c0.1-0.5,1.2-2.8,1.5-3.1c0-0.9-0.4-0.7-0.7-1.3c-0.2,0-0.3,0-0.4,0.1c-1.5,0-1,1.1-1.5,1.8c-0.1,0.2-0.5,0.3-0.6,0.5
			c0,0.2,0.1,0.4,0.1,0.5l-0.3,0.3c0.1,0.3,0.1,0.4,0.1,0.7h-0.2c0,0-0.1,0.1-0.1,0.1v-0.1c-0.6-0.1-1.8-0.6-2.6-0.5v0.1
			c0,0-0.1-0.1-0.1-0.1c-0.4-0.2,0-0.2-0.3-0.5c-0.2-0.3-0.6-0.2-0.4-0.6c0.1-0.2,0.3-0.2,0.4-0.3c0-0.2-0.1-0.4-0.1-0.5
			c0.1-0.4,0.4-0.8,0.9-0.9c-0.1-0.2-0.1-0.2-0.2-0.5c0.4-0.4,0.3-0.8,0.3-1.6c-0.2-0.1-0.3-0.3-0.4-0.5c-0.2-0.1-0.2-0.1-0.4-0.2
			h-0.8c0,0-0.9,1.3-1,1.4h-0.1c-0.3,0.6,0.2,0.6-0.5,1c0.1,0.4,0.2,0.8,0.2,0.9c-0.1,0.3-0.2,0.7-0.5,0.9c-0.3,0.2-3.2-0.7-3.8-1
			c0-0.2,0-0.3-0.1-0.5c1-0.8,1.3-2.6,2.6-3.1v-0.2c-0.2,0.1-0.4,0.2-0.6,0.2v-0.8c-0.8-0.1-1.6-0.2-2.1,0.3
			c-0.2,0.2-0.1,0.5-0.3,0.6c-0.2,0.2-0.6,0.2-0.7,0.5c-0.3,0.6-0.3,1.1-0.7,1.5c0.1,0.3,0.1,0.6,0.2,0.8c0,0-0.1,0.1-0.1,0.1
			c-0.4,0-0.6,0-0.8-0.2c-0.2-0.1-0.1,0-0.2-0.1c0.1-0.1,0.2-0.1,0.4-0.2c-0.2-0.3-0.3,0-0.8-0.1c-0.4-0.1-2-0.7-2.3-1
			c-0.1-0.6,0.6-0.9,0.8-1.4c0-0.1-0.3-0.5-0.2-0.8c0.2-0.8,0.8-1.2,1.4-1.7c0.1,0-0.4-1,0.1-1.4c-0.2-0.3-0.7-0.3-0.9-0.5
			c-0.7,0-1.4,0.7-1.6,1.2c0,0.2,0.1,0.4,0.1,0.5c-0.1,0.3-0.5,0.5-0.6,0.9c-0.2,0.5,0,1-0.3,1.5c-0.1,0.2-0.3,0.1-0.4,0.4
			c-1.6,0-2.1-1.1-3.2-1.7c0.2-1.8,1.6-2.8,2.7-3.9h0.2v-0.1h-0.4c0-0.3,0-0.4,0.1-0.5c-0.3-0.2-0.7-0.6-1-0.9
			c-2.5,0-2.5,2.5-3.4,4.2c-1.2-0.1-2.4-1.6-3.4-2.2c0.1-1.3,2.3-2.8,2.4-4.2c0-0.8-0.5-0.7-1-1.1c-1.2,0-0.8,0.4-1.3,1.1
			c-0.1,0.2-0.5,0.2-0.6,0.4c-0.2,0.3,0,0.9-0.1,1.1c-0.2,0.4-0.6,0.9-0.8,1.3c-1,0-1.6-0.7-2.2-1.2c-0.1-0.2,0.9-1.9,1.1-2.4
			c0.2,0,0.3-0.1,0.5-0.1c0.1-0.8,0.4-1.8,0.9-2.1c0-0.6-0.3-0.9-0.8-1c-0.4-0.2-2,1.5-2.3,1.9h-0.3c0,0.3,0.1,0.5,0,0.6
			c0,0.7-0.5,0.9-0.7,1.4c-0.9-0.1-1.2-0.4-1.7-0.8v-0.3c-0.4-0.1-0.4-0.4-0.7-0.5c0.2-0.9,1.3-3.4,2.1-3.6c0-0.3-0.1-0.3,0-0.4
			c0-0.6-0.3-0.7-0.5-1.1c-0.3,0-0.6-0.2-0.8,0c-0.8,0.1-0.6,0.7-0.9,1.3c-0.1,0.3-0.6,0.6-0.7,0.9c-0.1,0.2-0.1,0.7-0.1,0.7
			c-0.2,0.2-0.4,0.2-0.5,0.6c-0.8-0.1-1.2-0.6-1.8-0.9c-0.1-0.2-0.1-0.2-0.2-0.4c0.1-1.2,1.5-1.8,2-2.7c0.5-1-0.3-1.7-0.3-2.3
			c-0.4,0.2-0.9,0.2-1.2,0.5c-0.1,0.1,0,0.2-0.1,0.5c-0.1,0.2-0.4,0.3-0.5,0.5h-0.5v0.3h0.3l-0.4,0.4c0,0.2-0.1,0.3-0.1,0.5
			c-0.1,0.2-0.5,0.3-0.6,0.5c-0.2,0-0.3,0-0.5-0.1c-0.5-0.3-0.2-0.8-0.3-0.9c-0.2,0-0.3-0.1-0.5-0.1c-0.4-0.3-0.4-0.9-0.8-1.2
			c0.2-1,0.8-1,1.5-1.5c0.1-0.1,0.5-0.6,0.5-0.6c0.1-0.2,0-0.5,0.2-0.7c0.1-0.1,0.5-0.2,0.6-0.3c0.2-0.2,0.1-1,0.3-1.4
			c0.3-0.6,1.1-0.9,1.5-1.4c0.1-0.1,1-1.3,1-1.4c0.1-0.3-0.2-0.5,0-0.8c0.2-0.4,0.6-0.8,0.8-1.3c0.5-1.2,0.6-3.1,0.7-4.2
			c0-0.2-0.1-1.7-0.1-1.7c0.4-0.9,0.8-4.9,0.4-6.2c-0.1-0.4-0.6-1.4-0.6-1.8c0-0.2,0.2-0.7,0.1-1.1c-0.1-0.2-0.5-1-0.5-1.1
			c-0.1-0.2,0.2-0.3,0.2-0.5c0-0.3-0.2-0.1-0.3-0.3c-0.1-0.2,0.1-1.2,0-1.5c0-0.1-0.2-0.3-0.3-0.4c-0.1-0.4,0-0.8-0.2-1.2l-0.5-0.5
			c-0.2-0.4,0-0.7-0.2-1l-1-1c-0.1-0.3-0.1-0.5-0.2-0.8c-0.2-0.3-0.7-0.4-0.9-0.6c-0.2-0.2-0.1-0.5-0.3-0.6
			c-0.1-0.1-1.3-1.2-1.4-1.2h-0.5c-0.2-0.1-0.5-0.7-0.7-0.8c-0.5-0.4-1.4-0.2-1.9-0.5c-0.3-0.2-0.6-0.6-0.9-0.8
			c-0.4-0.2-0.8-0.1-1.2-0.4c-0.3-0.2-0.6-0.6-0.9-0.7c-0.6-0.3-3-0.5-3.4-0.3h-1.5c-0.2-0.1-0.3-0.3-0.5-0.5c0-0.9-0.1-1.8,0.5-2.3
			c0.8-0.6,2,0.4,2.7,0.3c0.5-0.1,0.7-0.5,1.4-0.5c0-0.4,0-0.4,0-0.8c-0.2,0-0.3-0.1-0.5-0.1v-0.3c-0.7-0.3-1.5-0.5-2.4-0.5
			c-0.1-0.4-0.2-0.5-0.5-0.6c0.1-0.6,0.3-1,0.4-1.5h0.3c0-0.4-0.1-0.6,0.4-0.6c0.1,0,0.2,0.1,0.3,0.1c0.2-0.1,0.5-0.5,0.7-0.6
			c0.5,0,0.9,0.1,1.4,0.1c0.9,0,1.3-0.1,2.1-0.2c0-0.6,0.1-1-0.2-1.5c-0.4-0.5-1.8-0.1-2.3-0.5c-0.6,0-1-0.1-1.4-0.2
			c0-0.5,0.3-0.7,0.2-1.1c0.4-0.2,0.5-0.5,1.1-0.5c0.2-0.1,0.6,0.1,0.8,0.3c0.8-0.1,1-0.6,1.5-0.9c-0.2-0.9-1.4-0.9-2.2-1.3
			c0.2-1.5,1-2.3,1.5-3.4c0.4,0,1.6,0.1,1.8,0.3c1,0,1.1-0.2,1.5-0.5c0-0.3,0-0.5-0.2-0.7c-0.3-0.6-1.3-1-2-1.2c0-1.1,0.4-2,1.1-2.3
			c1-0.7,2.3,0,3.3,0.2c0.1-0.4,0.3-0.6,0.1-0.9c-0.1-1-1.4-1.1-2.2-1.5c-0.2-1.3,0.8-1.7,1.2-2.6c1.1-0.1,2.8,0.5,3.6-0.4h0.1
			c-0.4-0.9-1.6-1.5-2.7-1.7c0.3-1.3,0.6-1.7,1.2-2.5c0.6,0,0.7,0.2,1.1,0.4c0.7,0,1.3,0.1,2,0.1c0.2-0.1,0.4-0.3,0.6-0.5
			c0-0.6-0.1-0.5-0.2-1c-0.9-0.2-1.7-0.5-2.4-0.9c0.2-1,0.7-1.7,1.1-2.5c0.9,0,2.9,1,3.3,0.9c0.2-0.1,0.4-0.3,0.5-0.5
			c0-1.6-1.2-2.1-2.5-2.4c0.1-1.4,0.9-1.7,1.3-2.7c0.6-0.2,1.5-0.3,2,0.1c0.7,0,1,0,1.4-0.3c0-1.3-1-1.7-2-2.1
			c0-0.2,0.1-0.5,0.1-0.7c0.9,0,2.1,0.4,2.6,0.1c0.4,0,0.4-0.1,0.6-0.3c0-0.3-0.1-0.7-0.1-1c-0.5-0.3-0.8-0.7-1.5-0.7
			c-0.1-0.2-0.2-0.4-0.4-0.6c0.1-1.2,0.9-1.8,1.2-2.7c0.5,0.1,1,0,1.4,0.4c0.4-0.1,0.3-0.2,0.8-0.3c0-0.3,0.1-0.5,0.3-0.7
			c0-0.5-0.2-1-0.5-1.2c-0.2-0.1-0.5,0-0.6-0.2c-0.3-0.4-0.1-1-0.1-1.6c0.2-0.1,0.2-0.1,0.3-0.3c1-0.1,1.9,0,2.9-0.1v-0.1
			c0.2-0.2,0.3-0.7,0.1-1c-0.3-0.7-1.6-0.4-1.9-1c-0.2-0.6,0.1-0.7,0.2-0.9c0-0.2-0.1-0.3-0.1-0.5c0.1,0,0.2-0.1,0.3-0.1v-0.5
			c0.2-0.3,0.9-1,1.2-1.1c0.7-0.3,0.8-0.1,1.4-0.5c0.1,0.1,0.4,0.2,0.5,0.1c0.3-0.1,0.5-0.3,1-0.4c0.2-0.3,0.3-0.7,0.6-0.8
			c0-0.3-0.1-0.5,0-0.7c-0.1-0.4-0.2-0.3-0.5-0.5c-0.8,0-1.9,0.4-2.4,0.8c-0.9-0.2-0.4-2.1-0.5-2.8c1.2-0.3,1.9-1.5,2.8-2.2
			c0.5-0.3,1.1-0.4,1.3-1c0.1-0.1,0-0.5-0.2-0.7c-0.2-0.4-0.5-0.5-1.1-0.5c-0.2,0.2-0.4,0.3-0.5,0.6H315v0.3
			c-0.5,0.3-0.9,0.8-1.1,1.4c-2,0-1.3-2.5-2.1-3.6c0-0.8,0.7-1.2,1.5-1.3c0.1-0.5,0.3-0.3,0.4-0.5c0.7-1.1-0.2-2.3-1.2-2.5
			c-0.1,1-0.8,1.1-1,1.8c-0.2,0-0.3,0-0.4,0.1c-1-0.3-1.4-1.5-2.3-2.1v-0.7c0.1-0.2,1.6-1.5,1.8-1.6c0.1-0.5,0.1-0.6,0.1-1.1
			c-0.2,0-0.2,0-0.3-0.1c-0.7,0-0.9,0.1-1.3,0.4c0,0.2-0.1,0.4-0.1,0.6c-0.5,0.1-0.8,0.5-1,0.8c-0.5,0-0.6-0.1-0.8-0.4
			c-0.3-0.4-0.3-0.8-0.3-1.5c0-0.1,0.1-0.2,0.1-0.3c-0.5-1.2-1.4-2.6-1.8-3.8c0.1-0.4,0-2.1-0.3-2.8c-0.1-0.2-0.6-2-0.4-2.5
			c0.2-0.4,0.3-1,0.5-1.4h0.2c0.2-0.3-0.1-0.4,0-0.8c0.4-0.9,1.1-1.8,1.4-2.8h0.3c0-0.2,0-0.2,0.1-0.3c0.1-0.6,0.4-0.5,0.6-0.8v-0.4
			c0.2-0.4,0.7-0.6,1.1-0.9c0.1,0,0.1-0.3,0.2-0.4c0.2,0,0.5,0.1,0.7,0.1c0.4-0.2,1.1-0.5,1.5-0.6h0.7c0.7-0.3,1.2-0.9,1.8-1.2
			c0.1-0.1,0.1,0,0.4,0c0-0.2,0-0.2,0.1-0.3c0.1-0.1,0.2,0.1,0.5,0c0.2-0.1,0.3-0.3,0.5-0.4c0.3,0,0.6,0.1,0.9,0.1l0.4-0.4h0.5
			c0.8-0.2,1.4-0.6,2.3-0.5v-0.3h0.6v-0.2c0.1,0.1,0.2,0.2,0.4,0.2c0-0.1,0.1-0.2,0.1-0.3c0.4-0.2,0.3,0.3,0.6,0.2
			c0.2,0,0.9-0.4,1.4-0.2v0.2c0.2,0,0.5,0.1,0.7,0.1v0.2c0.2,0.1,2.5-0.1,2.6,0v0.2c0.4,0.1,0.8,0.1,1.2,0.2v0.2
			c0.2,0,0.4-0.1,0.5-0.1v0.2c0.2,0.1,0.4,0.1,0.6,0.2v0.2c0.5,0.3,1,0.1,1.6,0.4c0.3,0.1,0.6,0.4,0.8,0.5c0.3,0.1,0.9-0.1,1.2,0
			c0.2,0,0.3,0.3,0.5,0.4c0.6,0.3,0.9,0,1.5,0.2c0.1,0,0.4,0.4,0.4,0.4h0.5c0.1,0.1,0.1,0.2,0.2,0.3c0.3,0,0.5,0.1,0.8,0.1
			c0.4,0.3,0.8,0.8,1.2,1.1c0.2,0.2,0.5,0.1,0.7,0.3c0.2,0.2,0.3,0.5,0.5,0.7c0.3,0.4,0.9,0.8,1.2,1.3c0.2,0.4,0.3,0.7,0.5,1.1
			c0.1,0,0.2,0.1,0.3,0.1c0.5,0.5,0.7,1.1,1.3,1.5c-0.3,0.3,0.4,0.7,0.5,0.8c0.2,0.3,0,0.5,0.1,0.7c0.2,0.7,0.7,1.2,0.9,1.7
			c0.2,0.5,0.7,2.5,0.6,3.1c0,0.1-0.2,0.4-0.1,0.6c0.7,2,0,5-0.6,6.8c-0.1,0.3,0.2,0.6,0,1c-0.1,0.3-0.6,0.6-0.5,1
			c0.1,0.2,0.1,0.3,0.2,0.5c-0.1,0.6-0.6,1-0.8,1.5c0,0.3-0.1,0.5-0.1,0.8c-0.1,0.3-0.5,0.4-0.6,0.7c-0.3,0.7-0.1,1.6-0.8,1.9
			c0.3,1.2-0.5,1.7-0.9,2.5c-0.4,0.9-0.5,1.6-0.8,2.5c-0.2,0.5-0.6,1-0.8,1.5c0,0.4-0.1,0.8-0.1,1.3c-0.2,0.1-0.3,0.2-0.5,0.4
			c-0.1,0.3-0.3,0.7-0.4,0.9c-0.2,0.5,0.1,0.7-0.3,1c-0.1,0.1-0.4,0.1-0.6,0.1c0.1,0.2,0.2,0.1,0.3,0.4c0.1,0.2-0.3,0.7-0.3,0.8
			c-0.1,0.5-0.5,1.2-0.7,1.7c-0.2,0.4,0,1-0.1,1.2c-0.2,0.5-0.6,0.5-0.6,1.2c-0.3,0-0.7-0.2-0.9,0c-0.6,0-0.8,0.5-0.9,1
			c-0.8,0.1-1,0.3-1.8,0.3c0,0.5-0.2,0.6-0.6,0.6v0.1l-0.2-0.2c-0.4,0.2-0.8,0.5-1.2,0.7c-0.2,0-0.4,0.1-0.6,0.1
			c-0.4,0.2-1,0.5-1.4,0.7c-0.2,0.2-0.3,0.4-0.5,0.6c-0.3,0.2-0.8,0.2-1.1,0.5c-0.5,0.3-0.6,1-1,1.4c-0.2,0.2-0.7,0-0.8,0.1
			c-0.2,0.1-0.2,0.4-0.4,0.5c-0.2,0.1-0.3,0-0.5,0.2c-0.2,0.3-0.2,0.7-0.5,1c-0.1,0.2-0.4,0.2-0.5,0.4c0,0.2-0.1,0.4-0.1,0.5
			c-0.2,0.3-0.7,0.7-0.8,1c-0.2,0.4,0,0.6-0.2,1c-0.2,0.5-0.6,1.2-0.8,1.7c-0.1,0.4-0.1,0.8-0.2,1.3c-0.1,0.3-0.5,0.6-0.4,1.1
			c0.1,0.3,0.2,0.8,0.1,1.2c-0.1,0.4-0.3,1.1-0.3,1.4c0,0.2,0.3,0.7,0.4,0.9c0.3,0.8-0.2,1.9-0.1,2.2c0.1,0.3,0.4,0.7,0.5,0.9
			c0.1,0.2,0,0.5,0.1,0.6c-0.1,0.3-0.2,0.4-0.4,0.5c0.1,0.3,0.5,0.3,0.6,0.5c0.2,0.4,0.3,1.1,0.5,1.3c0.1,0.2,1,0.6,1.2,0.8
			c0.4,0.4,0.9,1.1,1.4,1.4h0.5c1.2,0.5,2.8,0.9,4.6,0.5c0,0,0.1,0.1,0.1,0.1c0,0.6-0.2,1.5-0.1,2.1c0.1,0.6,0.3,2,0.2,2.6
			c-0.3,1.9-0.5,5-0.3,6.4c0.1,0.4-0.3,0.8-0.2,1.3c0.1,0.2,0.3,0.4,0.4,0.5c0.1,0.4-0.3,1-0.2,1.5c0.4,1.2,0.6,2.2,1.1,3.6
			c0.2,0.5-0.1,0.9,0.2,1.3c0.2,0.3,0.4,0.3,0.7,0.5c-0.9,1-2.1,1.8-2.9,2.9c-0.1,0.2-0.1,0.4-0.2,0.6c-0.2,0.3-1,1.1-1.1,1.4v0.7
			c-0.3,0.6-0.9,1.5-1.5,1.9c0.1,1.2-0.1,1.7-0.8,2.3c0.1,0.2,0.2,0.1,0.4,0.3c0,0.1-0.3,2.3-0.5,2.5c0,0,0.3,1.7,0.3,1.9
			c0.1,0.8-0.1,2.1-0.2,2.5c-0.1,0.5,0.2,0.9,0.1,1.1c-0.2,0.3-0.5,0.1-0.9,0.1c0.2,0.3,0.7,0.3,0.9,0.5c0.3,0.2,0.9,2.2,1.2,2.5
			c0.2,0.3,0.7,0.5,0.9,0.8c0.1,0.2,0.2,0.5,0.3,0.7c0.2,0.1,0.5,0.1,0.7,0.2c0.3,0.2,0.2,0.6,0.5,0.7c0.3,0.1,0.6,0.2,0.9,0.3v0.4
			c0.2,0.2,0.5,0.3,0.6,0.5h0.3c0.2,0.9,0.8,0.9,1.3,1.4c0.1,0.1,0.1,0.4,0.3,0.5c0.6,0.5,1.7,0.9,2.5,1.1c0.4,0.1,1.4,0.2,1.7,0.2
			c0.1,0,0.2-0.2,0.5-0.1c0.4,0.1,1.1,0.5,1.6,0.6c0.2,0,0.5-0.1,0.7-0.1c0.4,0.1,1.4,0.5,1.7,0.8h0.5c-0.1-0.3-0.2-0.4-0.5-0.5
			v-0.1c1,0,2.7,0.2,3.6-0.1c0.2-0.1,0.8-0.3,1-0.5c0.1-0.1,0.1-0.3,0.2-0.4c0.2,0,0.5-0.1,0.7-0.1l0.7-0.7c0.2,0,0.3,0.1,0.5,0.1
			c0.1-0.1,0.2-0.4,0.3-0.5c0.3,0.1,0.5,0.3,0.8,0.1c0.4-0.2,0.5-0.5,0.8-0.7v-0.3c0.8,0.1,0.7,0.7,1.6,0.7v0.2
			c-0.2,0.1-0.1,0.1-0.4,0.2v0.2c1.4,0,1.2,0.3,2.2,0.8c0.3,0.2,0.7,0.4,0.9,0.5h0.4c0.2,0.1,0.5,0.5,0.7,0.6
			c0.5,0.2,0.9,0.2,1.5,0.4c0.5,0.2,0.8,0.6,1.5,0.6c-0.1,0.2-0.1,0.2-0.3,0.3v0.2c0.6-0.1,1.1,0,1.6,0.1c0,0.2,0,0.2-0.1,0.3v0.2
			c1.1-0.2,1.5,0.4,2.7,0.4c0.1,0.2,0,0,0,0.3c0.4,0,2.5,0.3,3.1,0.5c0.9,0.4,2,1,3.2,1.1l-0.4,0.4v0.1c0.4,0,0.9-0.4,1.5-0.2
			c1.3,0.5,2.8,1,4.2,1.5c0.8,0.3,2,0.1,2.6,0.6c0.5,0,0.9,0.1,1.2,0.2c0,0.5-0.3,0.6-0.4,1c-0.1,0.3,0.1,0.7,0,1
			c-0.4,1.1-0.7,2.1-0.9,3.3c-0.1,0.4,0.4,1.7,0.5,2c0.5,1.3,0.4,1.3,1.3,2c0.1,0.2,0.2,0.3,0.3,0.5c0.3,0.2,0.7,0.3,1,0.5
			c0.1,0.1,0.1,0.4,0.2,0.5c0.2,0,0.4,0.1,0.6,0.1c0.1,0.1,0.5,0.4,0.6,0.5c0,0.1-0.1,0.2-0.1,0.3h0.5l0.5,0.5
			c0.5,0.3,1.2,0.6,1.8,0.7c2.2,0.7,4.5-0.3,5.9-1.2c0.4-0.3,0.8,0,1.2-0.3c0.1-0.1,0.2-0.4,0.4-0.5c0.8-0.5,1.7-0.8,2.5-1.3
			c0.3-0.2,0.1-0.4,0.3-0.6c0.4-0.5,1.1-0.8,1.5-1.3c0.4-0.4,0.4-1.1,0.7-1.5c0.2-0.3,0.8-0.6,1.1-0.7v-0.1
			c-0.3,0.1-0.5,0.2-0.7,0.4h-0.3v-0.1c0.4-0.1,0.6-0.6,0.8-0.9c-0.1,0-0.2-0.1-0.3-0.1c0.1-0.5,0.3-0.7,0.6-0.9
			c-0.1-0.2-0.3-0.3-0.5-0.5c0,0,0-0.5,0-0.5c0-0.2,0-0.3,0.1-0.5c1.2-0.3,2.8-0.4,4-0.1c0.9,0.2,1.6-0.3,2.4-0.1
			c0.4,0.1,1.5,0.4,2.1,0.3c0.4-0.1,0.8-0.3,1.5-0.2c0.1,0,0.4,0.2,0.6,0.1l0.3-0.3c0.7,0,1.4,0.1,2.1,0.1c1.2-0.3,2.2-0.2,3.7-0.5
			c0.3-0.1,0.3,0.3,0.6,0.2c0.3-0.1,0.7-0.3,0.9-0.4c0.4,0,0.7,0.1,1.1,0.1c0.1,0,0.4-0.3,0.5-0.3c0.4-0.1,0.5,0.4,0.8,0.3
			c0.4-0.2,1.3-0.4,2.1-0.5c0.2,0,0.4,0.3,0.5,0.3c0.2-0.1,0.7-0.3,1-0.4c0.4-0.1,0.9,0.1,1.2,0.1c0.9-0.2,2.4-0.2,3.5-0.4
			c0.3,0,0.7,0.2,1.1,0.1c0.7-0.2,1.9-0.3,2.6-0.5c0.3,0,0.6,0.1,0.9,0.1c1-0.3,2.2-0.5,3.2-0.7h3.2c2.3-0.7,4.5-0.7,7.2-1.3
			c0.3-0.1,0.5,0.1,0.7,0.1c0.4,0,0.8-0.2,1.1-0.3h1.3c2.1-0.7,4.8-1.3,7.6-1.2v-0.3c2-0.5,4.1-1.3,6-0.8c0.1-0.2,0.2-0.3,0.3-0.5
			c0.3,0,0.3,0,0.5,0.2c0.2-0.1,0.1-0.1,0.3-0.3c0.5-0.4,1.2-0.2,1.9-0.5c1.1-0.3,2.2-0.6,3.4-1c0.6-0.2,1.1-0.7,1.7-0.9
			c0.8-0.3,1.7-0.2,2.4-0.6c0.2-0.1,0.4-0.4,0.5-0.5h0.5c0.3-0.1,0.7-0.5,1-0.7h0.3c0-0.1,0.1-0.2,0.1-0.3c0.2,0,0.5-0.1,0.7-0.1
			c0.3-0.1,0.6-0.5,0.8-0.6c0.6-0.3,1.2-0.3,1.7-0.6c0.8-0.5,1.2-1.4,1.9-1.9c0.1-0.1,0.3-0.1,0.4-0.2v-0.6c0.1-0.2,0.5-0.2,0.6-0.4
			v-0.1c0.3-0.3,0.4-0.8,0.6-1.1c0.2-0.3,0.5-0.3,0.6-0.6h0.1c0.5-1.2,0.7-2.5,1.3-3.5c-0.2,0-0.1,0-0.4,0c0.5-1.5-0.1-3.6-0.6-4.5
			c-0.2-0.3-0.8-0.4-1-0.7c-0.7-1-1.6-2.1-2.6-2.8c-0.5-0.3-1.1-0.5-1.5-0.9c-0.1-0.1-0.2-0.3-0.3-0.5c-0.5-0.6-1.4-1.3-2.1-1.6
			c-0.3-0.1-0.7-0.2-1-0.3c0-0.1-0.1-0.2-0.1-0.4c-0.2-0.2-0.8-0.5-1-0.5c-0.2-0.1-0.5,0-0.7-0.2c-0.3-0.2-0.4-0.6-0.7-0.8
			c-0.4-0.2-0.7-0.2-1.1-0.5c-0.2-0.1-0.5-0.5-0.7-0.6h-0.3c-0.1-0.1-0.1-0.4-0.3-0.5c-0.4-0.3-0.9-0.2-1.3-0.5
			c-0.4-0.3-0.9-0.7-1.4-0.9h-0.5c-0.1-0.1-0.1-0.2-0.2-0.4c-0.3-0.2-1,0-1.3-0.3c-1.1-0.8-2.3-1.3-3.6-1.9c-0.3-0.2-0.6-0.1-1-0.3
			c-0.2-0.1-0.3-0.4-0.5-0.5c-0.8-0.2-1.5-0.4-2.3-0.6c-0.4-0.2-0.7-0.5-1.2-0.6c-0.4-0.1-0.6,0.1-0.9,0c-0.3-0.1-0.8-0.5-1.1-0.6
			c-0.4-0.2-0.7,0-1.2-0.2c-0.3-0.1-0.7-0.4-0.9-0.5c-0.8-0.3-2.1-0.1-2.9-0.5c-0.7-0.3-1.7-0.6-2.5-0.9h-1.1
			c-0.6-0.1-1.3-0.1-1.9-0.3c-1.6-0.4-3.4-1.1-5-1.5H434c-3.2-0.9-6.8-1-9.8-1.8h-0.9c-0.6-0.2-1.4-0.3-1.8-0.4
			c-0.8-0.2-1.6,0.3-2.3-0.1c-0.6,0-1,0.1-1.1-0.4c-1,0-2.4,0.7-3.1,0.2c-0.5,0-0.6,0-0.6-0.5c-0.3,0.1-0.6,0.3-0.7,0.5
			c-0.5,0-0.7-0.2-1-0.3c-0.4-0.1-0.9,0.2-1.2,0.1c-0.2,0-0.6-0.3-0.8-0.4c-0.7-0.1-1.8,0.2-2.4,0.4c-0.8,0.2-1.6-0.2-2.2-0.2
			c-0.5,0-1.5,0.1-2.1,0.2c-0.2,0-0.6-0.2-0.8-0.2c-0.5,0-1.6,0.1-2.2,0.2c-0.3,0-0.7-0.1-1-0.1c-1.5,0.4-4.1,0.5-5.6,0.9
			c-1.7,0-3.4,0.1-5.1,0.1c-0.2,0.1-0.7,0.3-1,0.4c-0.4,0-0.8-0.1-1.2-0.1c-0.2,0.1-0.7,0.4-0.9,0.5c-0.4,0-0.9-0.1-1.3-0.1
			c-0.2,0.1-0.6,0.3-1,0.2c-0.1,0-0.4-0.2-0.5-0.2c-0.5,0.1-1.2,0.2-1.6,0.2c-0.3,0-0.5,0.1-0.6,0.2c-0.2,0-0.3-0.1-0.4-0.1
			c-1.1,0.2-2.5,0.6-3.6,0.8c-0.3,0-0.9-0.2-1.3-0.1c-0.5,0.2-2.5,1-3.2,0.5c-0.4-0.2-0.6-1.5-0.6-1.7c0-0.1-0.3-0.3-0.4-0.5
			c-0.2-0.3-0.1-0.6-0.3-0.9c-0.4-0.3-0.8-0.6-1.2-0.9c-0.1-0.2-0.2-0.4-0.4-0.5c-0.2,0-0.4-0.1-0.5-0.1c-0.3-0.2-0.7-0.7-1-0.8
			h-0.9c-0.1,0-0.3-0.2-0.4-0.3h-0.8c-0.3-0.1-0.8-0.5-1.1-0.5c-0.6,0.1-1.3,0.5-1.9,0.6c-0.2,0-0.5-0.2-0.8-0.1
			c-0.1,0-0.3,0.3-0.5,0.4c-0.1,0-0.3-0.2-0.5-0.1c-0.1,0-0.3,0.3-0.5,0.4c-0.6,0.3-1.2,0.2-1.7,0.5c-0.3,0.2-0.4,0.7-0.4,0.7
			c-0.2,0.2-0.7,0.2-1,0.4c-0.1,0-0.9,0.8-0.9,0.8c-0.1,0.2,0,0.3-0.1,0.5c-0.3,0.3-0.8,0.4-1.1,0.7c-0.8,1.1-0.6,2.8-1.9,3.5
			c0,0.6-0.3,1.4,0,2.2c0.1,0.2,0.2,0.2,0.3,0.6c-0.1,0.1-0.1,0.2-0.2,0.3c-1.8,0.7-3.5,0.9-4.7,2.1h-0.4c0.2-0.2,0.4-0.4,0.6-0.5
			v-0.2c-0.7,0.2-1.1,1-1.6,1.4c-0.4,0.3-1,0.4-1.5,0.6c-0.1,0.1-0.1,0.2-0.2,0.3c-0.2,0-0.3-0.1-0.5-0.1c0,0.2-0.1,0.3-0.1,0.5
			c-0.2,0.3-0.8,0.3-1.1,0.5c-0.1,0.2-0.2,0.4-0.3,0.6c-0.2,0-0.4,0.1-0.5,0.1c-0.7,0.3-2.6,1.4-2.8,1.9c-0.3,0.1-0.8,0.3-1.1,0.4
			c-0.6,0.2-1.2-0.1-1.6,0.1c-0.4,0.2-1.1,0.6-1.5,0.7c-0.2,0-0.4,0.1-0.5,0.1c-0.2,0.1-0.4,0.5-0.5,0.5c-0.6,0.2-1.1-0.1-1.5-0.2
			c-0.1-0.5-0.3-0.6-0.3-1.2c-0.2,0-0.2,0-0.3-0.1c-0.2-0.3-0.8-2.6-1.1-3.5c-0.1-0.4,0.2-0.6,0-0.9c-0.2-0.4-0.7-1-0.9-1.4
			c-0.1-0.2,0.1-1.1-0.1-1.5c-0.1-0.1-0.2-0.1-0.3-0.2c0-0.4-0.1-0.8-0.1-1.2c-0.2-0.6-0.6-1.5-0.7-1.9c-0.1-0.2,0.1-0.4,0.1-0.5
			c0-0.4-0.3-0.6-0.4-0.7c0-0.1,0.2-0.8,0.1-1.1c-0.1-0.5-0.2-1.2-0.4-1.5v-0.8h0.1c0.2-0.2,0.4-0.1,0.6-0.2l0.4-0.4
			c0.5-0.3,0.9-0.3,1.5-0.5c0.2-0.1,0.7-0.4,0.9-0.5c0.6-0.1,1.3-0.1,1.9-0.2c0.5-0.2,1-0.6,1.5-0.7c0.5-0.2,1.3-0.1,1.8-0.3
			l0.3-0.3c0.3,0,0.6-0.1,0.9-0.1c0.4-0.1,0.9-0.5,1.3-0.6c0.5-0.2,0.8,0.2,1.3,0c0.7-0.2,1.5-0.6,2.1-0.7c0.5,0,1-0.1,1.5-0.1
			c0.5-0.2,1-0.6,1.5-0.8c0.7-0.3,1.6-0.3,2.2-0.7c0.3,0.3,2.3-0.3,2.9-0.5c0.3-0.1,0.9-0.2,1.2-0.3c0.2,0,0.5,0.1,0.7,0.1
			c0.4-0.2,1.1-0.6,1.5-0.8c0.4,0,0.7-0.1,1.1-0.1c0.7-0.2,1.7-0.7,2.4-0.9h0.8c1.2-0.3,2.2-0.1,3.5-0.5c1.3-0.3,2.7-0.8,3.9-1.2
			h1.2c0.3-0.1,0.7-0.3,1-0.4c0.3-0.1,0.6,0.1,0.7,0.1c1.3-0.2,2.4-0.6,3.7-0.9c0.6-0.1,2.5-0.2,2.8-0.2c0.2,0,1,0.3,1.4,0.2
			c0.6-0.1,1.7-0.2,2.3-0.4c0.4-0.1,0.7,0.3,1,0.2c0.4-0.1,0.8-0.4,1.2-0.5c0.7-0.3,1.4-0.2,2-0.3c0.5,0,1,0.1,1.5,0.1
			c0.1,0,0.6-0.4,0.7-0.4c0.2,0.1,0.1,0.2,0.4,0.2c0.8-0.1,1.1,0.2,1.5-0.4c2,0.6,6.1,0.1,8.6-0.2c0.8-0.1,1.7,0.3,2.5,0.1
			c0.2-0.1,0.7-0.3,1.2-0.2c0.3,0.1,1.8,0.3,2.3,0.2c0.2,0,0.5-0.3,0.7-0.4c1.3-0.4,3.2-0.1,4.7,0.3c0.7,0.2,3.3-0.2,3.9-0.4
			c0.6-0.1,1.1,0.2,1.5,0.2c1.2-0.1,3.3,0,4.4,0.3c0.5,0,0.9-0.1,1.4-0.1c1.5,0.3,3.1-0.1,4.5,0.2c0.8,0.2,1.8-0.3,2.5,0.1
			c0.1,0,0.2,0.1,0.3,0.1c0,0.5-0.2,0.7-0.3,1c-0.1,0.4,0.1,1,0.2,1.3c0.1,0.6,0,1.3,0.3,2c0.1,0.3,0.4,0.5,0.5,0.8h0.3
			c0.1,0.8,0.7,1,1.1,1.5c1.1,1.2,2.2,1.2,3.9,1.1c0.5,0,1.2,0.1,1.7-0.1c1.3-0.5,2-1.4,3.6-1.4c-0.1-0.2,0-0.1-0.3-0.2
			c0.3-0.6,1-0.7,1.5-1.1c0.6-0.4,0.8-1.2,1.4-1.6c0.1-0.2,0.6-1.7,0.6-2c1.5-0.1,2.7,0.1,4.1,0.5h1.3c0.4,0.2,0.7,0.4,1.1,0
			c0.5,0,0.4-0.1,0.4,0.3c1.8,0.4,4.2,0.4,5.6,0.6c0.7,0.1,1.3-0.2,1.8-0.1c0.2,0,0.4,0.3,0.5,0.4h1.3c1.1,0.3,2.3,0.2,3.6,0.5
			c0.4,0,0.8-0.1,1.2-0.1c0.4,0.1,1.2,0.3,1.6,0.5c0.2,0.1,0.8-0.1,0.8-0.1c0.2,0.1,0.5,0.4,0.7,0.5h1.1c1.4,0.3,3.3,0.4,4.6,0.6
			c0.8,0.2,2.4,0.4,2.7,0.9c0.3,0.4-0.4,1.8-0.1,2.7c0.2,0.8,0.3,2.3,0.7,3.1h0.2c0.1,0.1,0,0.9,0.2,1.2c0.1,0.2,0.5,0.4,0.6,0.6
			c0.2,0.4,0.2,0.9,0.5,1.3c0.1,0.1,0.4,0.4,0.5,0.5h0.3c0.2,0.2,0.5,0.8,0.8,1c0.2,0.1,0.5,0,0.7,0.2l0.8,1.1h0.7l0.5,0.5
			c1,0.4,3,0,4-0.4c0.4-0.1,1.1,0,1.5-0.2c0,0,0.3-0.3,0.4-0.4c0.5-0.2,0.8,0.1,1.1,0c2-0.7,4.1-1.2,5-2.9c1-0.2,2-0.1,2.5-1
			c1.1-0.1,2,0.7,2.8,1.1c0.4,0.2,1.2,0.3,1.5,0.5c0.1,0.1,0.2,0.4,0.3,0.5c0.2,0,0.4,0.1,0.5,0.1l0.4,0.4c0.3,0.1,0.6,0.1,0.9,0.2
			c0.6,0.3,1.3,0.9,1.9,1.3c0.5,0.4,1.3,0.3,1.8,0.6c0.5,0.3,0.7,0.8,1.4,0.9c0.1,0.2,0.1,0.2,0.2,0.4c0,0.1-1.1,1.7-1.1,1.7
			c-0.2,0.1-0.4,0-0.6,0.2c-0.2,0.2-0.4,0.5-0.5,0.7c-0.1,0-0.2,0.1-0.4,0.1L503,311v0.6c-0.4,1.2-0.2,1.3,0.3,2.5
			c0,0.2,0.1,0.5,0.1,0.7c0,0.1,0.3,0.1,0.4,0.2v0.3c0.1,0.1,0.3,0,0.4,0c0.2,0.1,0.2,0.4,0.4,0.5c0.4,0.5,1.2,1.1,1.7,1.5
			c0.8,0.6,1.9,0.7,2.5,1.5c1.2,0,3.1,0,3.6-0.8c0.4-0.7,0-1.6,1-1.9c-0.1-0.7-0.5-1.8-0.3-2.6c0.3-0.9,1.1-1.5,1.5-2.3
			c0.2,0,0.2,0,0.3-0.1c1.7,1.3,3.4,1.4,4.7,3.3h0.3c0.2,0.6,0.6,0.4,1,0.6c0.8,0.5,1.2,1.5,2.4,1.7
			C523.1,317.2,523.1,317.3,523.1,317.9z M341.5,324.8c0.2,0.2,0.4,0.3,0.5,0.5c0.6,1,0.4,2.2,1.8,2.4c0.1,0.4,0.3,0.8,0.2,1.1
			c0.8,0.3,1.2,0.5,1.7,1c-0.1,0.3-1.3,1.1-1.5,1.3c-0.2,0.1-0.6-0.2-0.8-0.4c-0.3-0.3-0.3-0.7-0.5-1c-0.2,0-0.3-0.1-0.5-0.1
			l-0.2-0.4c-0.4-0.3-0.7-0.3-1-0.6h-0.1c0.1-0.1,0.2-0.1,0.4-0.1c-0.2-0.4-0.6-0.3-1-0.5c-0.4-0.2-0.3-0.8-0.5-1.2
			c-0.3-0.4-0.9-0.6-1.2-1.1c-0.3,0-0.4,0-0.5,0.3h-0.5c-0.4-0.2-0.4-1-0.6-1.5c-0.2-0.2-0.4-0.4-0.6-0.5c-0.3-0.4-0.5-1-0.5-1.6
			h0.3c-0.4-0.9-1.3-0.8-0.2-2c0.3-0.2,1-0.2,1.3-0.4c0.3-0.2,0.5-0.7,0.5-1.2c0.5,0.1,0.6-0.3,1.2,0.1c0.6,0.5,0.4,1.7,0.9,2.5h0.2
			c0.3,0.5,0.3,1.1,0.5,1.5l0.5,0.5v0.6C341.1,324.1,341.3,324.6,341.5,324.8z M345.4,317.5c0,0.5,0.1,1.4,0.5,1.8
			c0.1,0,0.2,0.1,0.4,0.1c0.3,0.4-0.1,0.9,0.1,1.2c0.2,0.1,0.3,0.2,0.5,0.3c0.1,0.3,0.1,0.5,0.2,0.8c0.1,0.1,0.7,0.7,0.7,0.7
			c0.1,0.2-0.1,0.3-0.1,0.4c0.1,0.4,0.5,0.8,0.8,1c0,0.3,0,0.3-0.2,0.5c0.2,0.3,0.6,0.5,0.9,0.7c0.7,0.7,1.2,1.6,2.1,2.1
			c-0.2,0.5-0.8,0.7-1.2,0.9c0.1,0.3,0.1,0.2,0.2,0.4c-0.7,0.4-1.4,0.7-2.4,0.5c0-0.7-0.4-0.9,0-1.2c-0.2-0.3-0.5-0.1-0.7-0.3
			c-0.2-0.1-0.3-0.4-0.5-0.5c-0.1,0-0.2-0.1-0.4-0.1c0-0.2-0.1-0.3-0.1-0.5c-0.2-0.3-0.5-0.4-0.7-0.6h-0.1c0-0.1,0.1-0.2,0.1-0.4
			c-0.2,0-0.4-0.1-0.5-0.1c-0.3-0.2-0.5-0.6-0.7-0.9c-0.1-0.1-0.3-0.1-0.4-0.2c-0.2-0.2-0.3-1.3-0.5-1.6c-0.6-1-1.5-1.6-1.3-3.1
			h-0.5c0.1-0.2,0-0.2,0.2-0.3c-0.1-0.5-0.2-0.4-0.5-0.6c-0.2-0.2-0.2-0.8-0.2-1.3c0.6-0.1,1.3-0.7,1.8-1c0.3-0.2,0.8-0.1,1.1-0.3
			c0.9,0,0.9,0.5,1.5,0.7c0,0.4-0.2,0.5-0.5,0.6C345.3,317.7,345.1,317.5,345.4,317.5z M351.3,317.2c0,0.2-0.1,0.4-0.1,0.6
			c0.1,0.3,0.8,0.6,0.1,1c0.2,0.2,0.6,0.2,0.7,0.5c0.3,0.4,0,1.3,0.6,1.8l-0.4,0.4v0.2h0.7v0.4c0.4,0.3,0.5,0.8,0.8,1.3
			c0.3,0.4,0.8,0.3,1,1c0.4-0.1,0.4-0.3,0.8-0.4c0.1,0.1,0.2,0.2,0.5,0.3c-0.1,0.4,0,0.5,0.1,0.8c0.2,0,0.1,0,0.5,0
			c0.1,0.2,0,0.1,0.1,0.2v0.3c-0.4-0.1-0.3-0.1-0.7-0.2v0.3c-0.7,0.4-2,1-2.8,1.1c-0.2-1-1-1.1-1.4-1.8c-0.5-0.8-0.8-1.6-1.5-2.4
			c0.1-0.2,0.1-0.2,0.5-0.3v-0.1c-0.5-0.2-1-0.4-1.5-0.6c-0.2-1.2-0.6-2.3-1.5-2.8c0-0.3,0.3-0.6,0.2-0.9c-0.1,0-0.2-0.1-0.3-0.1
			v-0.4c-0.1-0.2-0.4-0.6-0.5-0.8c0-0.2-0.1-0.5-0.1-0.7c-0.2-0.4-0.5-0.5-0.6-1c0.4-0.4,0.8-0.6,1.2-0.9c0.2-0.2,0.4-0.7,0.7-0.8
			c0.4-0.2,1.3-0.1,1.7-0.3c0.1,0.4,0,0.9,0.2,1.5c0.1,0.3,0.4,0.8,0.5,1.1c0,0.2-0.1,0.5-0.1,0.7
			C350.8,316.5,351.2,317,351.3,317.2z M354,312.1c0.1,0.2,0.5,0.2,0.5,0.4c0.2,0.3,0,0.7,0.2,0.9c0.5,0.8,1.6,1.3,2,2.1
			c0.3,0.5,0.2,1.6,0.4,2c0.1,0.2,0.4,0.4,0.5,0.7c0,0.2-0.1,1.1,0.1,1.3c0.1,0.1,0.5,0.1,0.5,0.3c0,0.2,0.1,0.5,0.1,0.7
			c0.5,1.1,1.5,2.4,2.7,3c-0.1,0.4-0.3,0.3-0.3,0.6c-0.2,0.1-0.2,0.1-0.4,0.2c-0.4,0-1-0.1-1.3-0.4c-0.1-0.1,0-0.3-0.1-0.4
			c-0.8-0.7-0.9-0.3-1-1.5c-0.4,0.1-0.5,0.3-0.8,0.2c-0.8,0-1.6-0.8-1.9-1.4v-0.5c-0.2-0.1-0.4-0.2-0.6-0.4
			c-0.2-0.3,0.1-0.6-0.1-0.8c0-0.1-0.7-0.5-0.7-0.5c0.1-0.3,0.1-0.6,0.2-0.9c-0.1-0.3-0.4-0.7-0.5-0.9c0-0.3-0.1-0.5-0.1-0.8
			c-0.1,0-0.1-0.1-0.2-0.1c0-0.3-0.1-0.5-0.1-0.8c-0.1,0-0.1-0.1-0.2-0.1v-0.5h-0.2c-0.2-0.4,0.4-0.5,0.3-0.8c0-0.2,0-0.3-0.1-0.5
			c-0.1-0.1-0.1-0.1-0.3-0.1c-0.1-0.6-0.4-1-0.7-1.3v-0.2c0.4-0.2,1.5-0.9,1.9-0.6C354.2,311.2,353.8,311.6,354,312.1z M364.2,316.7
			c0.3,0.2,0.7,1.1,0.4,1.4c0.5,1.1,1.1,3.3,2.1,3.9v0.5c-0.3,0-0.4-0.1-0.8,0c-0.5,0.1-1.8,0.9-2.6,0.6c-0.6-0.2-0.6-0.9-1-1.3
			c-0.1-0.1-0.4-0.1-0.5-0.3c-0.1-0.2-0.1-0.4-0.2-0.6c-0.5-0.7-2.2-1.6-1.2-2.8c-0.3-0.2-0.5-0.4-0.8-0.6c0-0.3-0.1-0.6-0.1-0.9
			c0.5,0.1,1,0.1,1.5,0.2c0.3,0,0.5,0,0.7,0.1c-0.1,0.2-0.3,0.2-0.5,0.3v0.2C362,317.1,363.4,316.1,364.2,316.7z M366.9,315.8
			c0.2-0.2,0.4-0.3,0.5-0.5c0.8,0.1,0.7,1.1,0.9,1.7c0.1,0.2,0.1,0.7,0.3,0.9c0,0.1,0.3,0.1,0.4,0.2c0,0.2-0.1,0.3-0.1,0.5
			c0.1,0.2,0.2,0.8,0.4,1.2c0.3,0.5,0.7,1,0.7,1.7c-0.3,0-0.6,0-0.8,0.2c-1.4,0-2.1-3.4-2.4-4.5
			C366.7,316.5,367.1,316.3,366.9,315.8z M371.8,311.7L371.8,311.7c0.2,0,0.1-0.1,0.2,0h0.3c-0.3-1.5,0.5-1.2,0.9-2.4
			c0.2,0,0.3,0.1,0.5,0.1c0.1,0.3,0.1,0.6,0.1,1.1c0.1,0.1,0.2,0.1,0.5,0.1c-0.1,0.3-0.1,0.7,0.1,0.9c-0.1,0.3-0.1,0.5-0.4,0.6
			l0.3,0.3c0.2,0.2,0,1.2,0.1,1.5c0.2,0.7,0.2,1.8,0.3,2.7c0,0.2-0.2,0.3-0.2,0.4c0.1,0,0.2,0.1,0.3,0.1c0,0.1,0.2,1.1,0.2,1.1
			c0.2,0.7-0.2,1.3,0.2,2.2c-0.8,0.3-1.5,0.7-2.5,0.7c0.1-0.4,0.1-0.3,0.4-0.5c-0.1-0.4-0.2-0.4-0.1-0.8c-0.8-0.3-0.8-0.5-1.5-1
			c0-1.5-0.5-2.1-0.9-3.1c-0.3-0.7-0.4-1.5-0.5-2c0.7-0.4,0.6-1.4,1.4-1.8c0.2-0.1,0.4,0,0.7,0.1c0.1-0.1,0,0,0.2-0.1
			C371.9,311.7,372,311.8,371.8,311.7z M378.4,311.9c-0.1,0.5-1.3,1.3-2,1.3c-0.1-1.7-0.5-2.9-0.9-4.1c-0.2-0.4,0.2-0.6,0-1
			c-0.2-0.4-0.5-0.6-0.6-1.1c-0.1-0.2-0.1-0.2,0.2-0.3c-0.1-0.2-1.3-0.5-1.6-0.7c-0.2-0.1-0.1,0-0.2-0.1c0.6-0.1,2.9-0.5,3.3-0.7
			c1,0,0.7,0.7,1,1.5c0.2,0.6,0.5,1.3,0.7,1.9C378.6,309.7,378,311,378.4,311.9z M376.6,316.1c-0.2-0.6,0.2-1.6-0.2-2.2
			c0.1-0.7,0.9-0.5,1.4-0.9h0.4c0.1,0.3,0.2,1.2,0.1,1.7c-0.2,0.9,0.9,3.6,0.5,4.4c0,0.4-0.1,0.6-0.2,0.8c-0.6,0-1,0-1.3,0.3H377
			C377.4,319,376.8,317.1,376.6,316.1z M373.6,309L373.6,309l0.1,0.2c-0.3,0-0.4,0-0.5-0.2L373.6,309L373.6,309z M368.2,324.6
			c1-0.4,2.2-1,3.4-1.2c0.3,0,0.4,0.2,0.5,0.2l1.8-0.2c1.6-0.3,3.4-1,4.9-1.4c0.3,0,0.7,0.1,1,0.1c0.1,0,0.6-0.2,0.7-0.3
			c1-0.3,1.9,0.1,2.8-0.2c0.4-0.1,0.9-0.3,1.2-0.5h0.9c0.3-0.1,0.8-0.4,1.1-0.5c0.2,0,0.4,0.2,0.7,0.1c0.2-0.1,0.4-0.3,0.6-0.4
			c0.3,0,0.5,0.2,0.6,0.3c0.2,0,0.4-0.2,0.5-0.3c0.4-0.1,0.8,0.1,1,0.2c0.8,0.2,1.4-0.3,1.7-0.6c0.5,0,0.8,0.3,1,0.5
			c0.2,0,0.2,0,0.3-0.1c0.1-0.2,0-0.3,0.1-0.5c0.8-0.5,1.4,0,2.2-0.3c0.3-0.1,0.6-0.4,0.8-0.5h1.8c0.1,0,0.4-0.3,0.5-0.3
			c0.5-0.2,1.1,0.2,1.5,0.3c0.3-0.1,0.6-0.1,0.9-0.2c0.2,0,0.3,0.3,0.6,0.2c0.1-0.1,0.1-0.1,0.2-0.2c0.2,0,0.7,0.2,1.1,0.1
			c0.2-0.1,0.8-0.3,1-0.4c0.4-0.1,0.7,0.3,0.9,0.4c0.3,0.1,1.6-0.4,1.8-0.5c0.3,0.1,0.6,0.1,0.9,0.2c0.8,0.1,4-0.1,4.5-0.4
			c0.5,0.1,1,0.2,1.5,0.3c0.4-0.1,0.9-0.4,1.5-0.2c0.1,0,0.2,0.3,0.3,0.4c0.2,0.1,1.6-0.3,1.9-0.2c0.6,0.2,1.3,1.2,2.1,0.6
			c0.5,0,0.5-0.1,0.6-0.5c3,0,5.5-0.1,7.8,0.5c0.8,0.2,1.4,0.2,2,0.2c0.3,0,0.6,0.3,0.8,0.2v-0.2c0.4,0.1,0.3,0.3,0.5,0.4
			c0.3-0.1,0.5-0.1,0.8-0.2c0.6,0,1.8,0.3,2.4,0.5c0.6,0,1.3,0.1,1.9,0.1l0.4,0.4c1,0.5,2.2,0.4,3.3,0.7c0.6,0.2,1.4,0.6,2,0.8
			c0.7,0.2,0.9,0,1.5,0.2c0.3,0.1,0.7,0.6,1,0.7c0.4,0.2,0.8,0,1.3,0.2c0.3,0.1,1.8,0.5,2.1,0.6c0,0.1,0.1,0.2,0.1,0.3
			c0.1,0,1,0,1.3,0.1c0.2,0.1,0.5,0.3,0.6,0.4c0.6,0.1,1.2,0.2,1.7,0.4c0.3,0.1,0.6,0.6,0.8,0.7h0.5c0.2,0.1,0.5,0.5,0.7,0.6
			c0.4,0.2,0.8,0.1,1.1,0.3c1,0,0.7,0.3,1.1,0.8c0.3,0.2,0.7,0,1.1,0.2c0.1,0.1,0.1,0.2,0.2,0.4c0.3,0.2,1.1,0.5,1.5,0.6
			c0.3,0,0.5,0.1,0.8,0.1c0.2,0.1,0.4,0.6,0.6,0.7c0.9,0.4,1.7,0.9,2.5,1.3c0.2,0,0.4,0.1,0.5,0.1c0.2,0.1,0.3,0.4,0.5,0.5
			c0.4,0.2,1.5,0.6,1.7,0.8c0.2,0.2,0.2,0.6,0.5,0.8c0.3,0.3,0.7,0.4,0.9,0.7c0.1,0.1,0.1,0.3,0.2,0.5c0.4,0.5,1.3,0.8,1.8,1.2
			c0.2,0.2,0.2,0.5,0.5,0.6c-0.2,0.6-0.8,0.3-1.3,0.6c-0.2,0.2-0.4,0.4-0.5,0.6c-0.4,0.1-0.7,0.1-1.1,0.2c-0.5,0.2-1,0.5-1.5,0.7
			c-0.3,0.1-0.7,0.1-1,0.2c0,0-0.1,0.3-0.2,0.3c-0.2,0-0.4-0.1-0.5-0.1c-0.2,0.1-0.5,0.3-0.6,0.4h-0.5c-0.4,0.1-0.9,0.3-1.2,0.5
			c-0.5,0.1-0.9,0.1-1.4,0.2c-0.6,0.2-1.2,0.5-1.8,0.6l-2.7,0.3c-0.2,0.1-0.4,0.3-0.5,0.4h-0.8c-0.2,0.1-0.5,0.5-0.8,0.5
			c-0.3,0.1-1.4-0.3-1.8-0.2l-0.3,0.3h-0.5c-0.1,0-0.3,0.2-0.4,0.3c-0.6,0.2-1.2,0-1.5,0.1c-0.4,0.1-1.1,0-1.6,0.2
			c-0.3,0.1-0.7,0.5-0.9,0.5c-0.2,0-0.4-0.1-0.5-0.1c-0.3,0.1-1.1,0.6-1.4,0.5c-0.2,0-0.3-0.2-0.4-0.3c-0.4-0.1-1.2,0.2-1.5,0.3
			c-1.2,0.3-2.3-0.1-3.2,0.1c-0.6,0.2-1.4,0.3-1.9,0.5c-0.3,0-0.6-0.1-0.9-0.1c-0.4,0.2-1,0.6-1.5,0.6c-0.3,0-0.9-0.1-1.4-0.1
			c-1.6,0-3,0.2-3.8,0.9c-0.1,0.3-0.2-0.3-0.2-0.3h-0.9c-0.4,0.1-0.8,0.1-1.2,0.2c-0.2,0-0.7-0.3-1.1-0.2c-1.9,0.8-5,0.4-7.1,0.9
			c-0.4,0.1-0.9,0-1.1-0.1c-0.9-0.2-2.4,0.1-3,0.4h-1.6c-0.5,0.1-1.3,0.5-1.8,0.1c-0.2,0.1-0.2,0.2-0.4,0.4c-0.4,0.2-1-0.2-1.3-0.3
			c-0.7-0.2-1.8,0.1-2.1,0.2c-0.5,0-1-0.1-1.5-0.1c-0.5,0.1-3,0.6-3.9,0.4c-0.3-0.1-1.1-0.3-1.5-0.3c-0.6,0.1-2.2,0-3.1,0
			c-0.5,0-1,0.2-1.4,0.3c-0.3,0-0.6-0.2-0.7-0.3c-0.6-0.2-1.2,0.3-1.9,0.1c-0.2-0.1-0.8-0.2-1.1-0.3c-0.4-0.1-1.1,0.2-1.5,0.1
			c-0.6-0.1-1.8-0.3-2.3-0.5c-0.7-0.2-1.3,0.2-1.7,0c-0.6,0-0.6,0.1-0.6-0.3c-0.6,0.1-0.7-0.1-1.1-0.2c-0.4-0.1-0.7,0.2-1,0.2
			c-1-0.1-2.2-0.5-3-0.7c-0.6,0-1.2-0.1-1.7-0.1c-0.2-0.1-0.5-0.4-0.8-0.5c-0.2,0-0.4,0.1-0.6,0.1c-1.2-0.3-2.2-0.3-3.2-0.5
			c-0.4,0-0.8-0.1-1.2-0.1c-0.2-0.1-0.5-0.5-0.7-0.5h-1.1c-0.6-0.1-1.1-0.4-1.6-0.5c-0.2,0-0.4,0.1-0.5,0.1
			c-0.1-0.2-0.2-0.3-0.4-0.5c-0.4-0.2-0.9,0-1.4-0.2c-0.1,0-0.4-0.3-0.5-0.4c-0.2,0-0.4,0.1-0.5,0.1c-0.2,0-0.4-0.3-0.5-0.4
			c-0.4,0-0.8-0.1-1.2-0.1c-0.1,0-0.1-0.3-0.2-0.4c-0.4-0.1-0.8-0.1-1.2-0.2c-0.6-0.2-1.5-0.6-2.1-0.7h-0.8c-0.3-0.1-0.5-0.4-1-0.5
			c0-0.3,0-0.2,0-0.5c-1.5,0.4-2.5-0.5-3.6-1c-0.8-0.4-0.8,0.3-1.4-0.5h-0.1c0.1-0.1,0.1-0.1,0.2-0.2c-0.1-0.1-1.8-0.5-2.2-0.7
			c-0.7-0.5-1.5-1.1-2.2-1.5c-0.3-0.2-0.7-0.1-1-0.3c-0.4-0.2-0.8-0.8-1.1-1.1c-0.4-0.4-1.1-0.3-1.6-0.6c-0.2-0.1-0.3-0.3-0.5-0.5
			v-0.3c0.9-0.5,2.1-1,3.1-1.4c0.3-0.1,0.8,0.1,1,0c0.3-0.1,0.4-0.8,1.1-0.3h0.4c0-0.3,0.1-0.2,0-0.4c0.1-0.2,0.1,0.1,0.2,0
			c0.1-0.2,0-0.4,0.2-0.5c0.4-0.1,0.7-0.2,1.1-0.4l0.4-0.4h0.8c0.4-0.1,1.2-0.2,1.6-0.5c0.5-0.3,1.3-0.7,1.9-0.9h0.6
			c1-0.3,2.3-1,3.5-1.4c0.6-0.2,1.2,0,1.7-0.3c0.5-0.3,1.4-0.8,1.9-1C366.3,324.8,367.2,324.9,368.2,324.6z M383.1,308
			c-0.1,0.3-0.4,0.6-0.5,1c-0.1,0.6,0.1,0.7-0.1,1.2l0.3,0.3c-0.1,0.1-0.2,0.1-0.4,0.2c0.2,0.8-0.2,1.5-0.3,2.3
			c-0.1,0.1-0.2,0.1-0.3,0.2h-0.2c0.1,0.1,0.3,0.2,0.4,0.3c0.3,0.4,0,0.6,0.1,1.1c0.1,0.2,0.3,0.4,0.4,0.5c0.2,0.5-0.2,0.9,0.2,1.5
			c-0.1,0.3,0,0.2-0.3,0.3c0.3,0.6,0.9,0.8,1.3,1.3c0,0,0.1,0.6,0.1,0.8c-0.1,0.1-0.1,0.1-0.2,0.2c-0.5,0.4-1.3,0.3-1.8,0.6
			c-0.2,0-0.4,0-0.5-0.1c-0.2-0.3-0.4-2.5,0.1-2.9c-0.2-0.2-0.5-0.2-0.6-0.5c-0.1-0.2,0-1.1-0.1-1.5c0-0.2-0.2-1.2-0.1-1.7
			c0-0.1,0.2-0.5,0.1-0.8c-0.2-0.9-0.3-1.8-0.3-2.7c0-0.5-0.5-1.4-0.4-1.8c0-0.8-0.1-0.9-0.5-1.2c0-0.7-0.2-1-0.3-1.6
			c0.6,0,1.2-0.1,1.8-0.1c0.4-0.1,0.9-0.7,1.5-0.4c0.3,0,0.4,0,0.5,0.1c0,0.9,0.1,1.5,0.3,2c-0.1,0.3-0.2,0.3-0.3,0.5
			C383.1,307.3,383.1,307.7,383.1,308z M384.8,311.9c0.1-0.7,0.4-2,0.4-2.4c-0.1-0.7,0.2-1,0.4-1.5c0-0.3-0.1-0.6-0.1-0.9
			c0-0.9,0.4-2-0.2-2.7c0-0.2,0-0.3,0.1-0.5c0.9,0.1,1.9,0,3-0.1c0,0.7,0.3,1,0.5,1.5c0.1,0.3,0,0.6,0,0.7c0,0.1,0.3,0.3,0.4,0.5
			c-0.3,0.6,0,0.9-0.1,1.4c-0.1,0.8-0.8,1.6-0.9,2.4c0.1,0.6,0.1,1.2,0.2,1.8c-0.1,0.6-0.2,2.2,0,3c0.1,0.3,0.4,0.6,0.5,0.8
			c0.1,0.3-0.2,0.3-0.2,0.4l0.3,1.6c-0.4,0.7-2,0.3-2.7,0.7c-0.2,0-0.2,0-0.4-0.1c-0.2-0.8-0.3-1.4-0.5-2c0-0.2,0.1-0.4,0.1-0.6
			c-0.1-0.4-0.6-0.9-0.7-1.4c-0.1-0.3,0.1-0.9,0.1-1.1C384.9,312.9,384.7,312.4,384.8,311.9z M390.4,311.1c0-0.8,0.5-2.5,1-2.7
			c-0.1-0.5-0.4-1.2-0.4-1.8c0-0.2,0.2-0.7,0.1-1.1c-0.1-0.4-0.4-0.8-0.5-1.2c-0.1-0.3,0-0.5-0.1-0.7v-0.2c0.6-0.1,2.4,0,2.8-0.3
			c0.1,0,0.2,0.1,0.3,0.1c0.2,0.6,0.6,2.4,0.5,2.9c-0.1,0.2-0.4,0.1-0.5,0.3v0.6c-0.1,0.1-0.3,0.2-0.4,0.3v0.7
			c-0.1,0.3-0.7,1.9-0.4,2.7l0.5,0.5c0.1,0.2-0.1,0.8,0.1,1.2c0.2,0.4,0.6,0.7,0.8,1c0.1,0.2-0.1,1.1,0.2,1.4
			c-0.1,0.2-0.2,0.3-0.4,0.5c0.1,0.6,0.2,1.3,0.6,1.6c-0.1,0.3-0.1,0.3-0.2,0.5c-0.7,0.1-3,0.4-3.2,0.5h-0.3v-0.2
			c0.2-0.1,0.3-0.1,0.5-0.1c-0.1-0.2-0.4-0.3-0.7-0.4c-0.1-0.5,0-0.7,0.2-1c-0.1-0.1-0.3-0.1-0.4-0.2c-0.1-0.2,0.1-0.8,0-1.3
			c0-0.3-0.6-2.4-0.5-2.6c0.1-0.5,0.1-0.2,0.4-0.4c0.1-0.1,0,0,0.1-0.2C390.7,311.5,390.6,311.3,390.4,311.1z M400.3,304.4
			c-0.7,0.3-2.8-0.3-3.6,0.4h-0.4c-0.1-0.5-0.3-1.4-0.2-1.7c0.4-0.7,2.7-0.4,3.4-0.8c0.3,0,0.8,0,0.9,0c0.2,0,0.2,0,0.4,0.1
			c-0.1,0.2-0.2,0.3-0.3,0.5C400.2,303.4,400.7,303.9,400.3,304.4z M400,316.8c-0.6,0.3-2.1,0.1-2.6,0.4c-0.2,0-0.3,0-0.5-0.1
			c-0.2-0.9-0.2-1.3-0.2-2.8c1.5,0,1.9-0.3,2.9-0.6c0.1,0.1,0.1,0.1,0.2,0.2C400.2,314.2,400,316.3,400,316.8z M402.7,308.5
			c0-0.1,0-0.7-0.1-0.9c-0.1-0.1-0.2-0.1-0.3-0.2c-0.1-0.2,0.3-1.9,0.4-2c0.1-0.4-0.3-0.7-0.1-1.1c0.1-0.1,0.4-0.1,0.5,0.1h0.1
			c-0.1-0.5-0.5-0.4-0.6-0.8c0-0.1,0.2-0.9,0.3-1.4c1.2,0,2.4,0,3.3-0.1c0.1,0.1,0.1,0.1,0.2,0.2c-0.1,0.6,0,0.8-0.5,1
			c0.2,0.5,0.6,0.8,0.7,1.4c0.2,0.7-0.3,1.7-0.3,2l0.2,0.3c0,0.1-0.3,2.5-0.5,3c-0.3,1.3,0,3,0.1,3.8c0,0.5-0.2,0.7-0.3,1
			c-0.2,0.6,0.2,1.4,0.5,1.7c-0.1,0.1-0.1,0.2-0.2,0.3c-1.2,0-2.1,0.1-3.2,0.2c-0.2-0.2-0.4-0.4-0.6-0.5c0-0.7,0-0.9,0.2-1.5
			l0.1-0.1c-0.1-0.5-0.7-2.3-0.5-2.7l0.3-0.3c0.2-0.6,0.3-1.2,0.5-1.6C402.6,309.5,402.7,308.8,402.7,308.5z M408.8,314.4h-0.3
			c0.1-0.4-0.1-1.3-0.1-1.5c0.3-1,0.1-1.3,0-2.1c0-0.3,0.1-0.2,0.2-0.4V309h0.3c-0.1-0.3,0-0.3-0.3-0.4c0-0.5-0.1-0.6,0.4-0.7
			c-0.1-0.3-0.5-0.8-0.5-1.2c0-0.1,0.4-0.8,0.5-1c0.1-0.4-0.3-2.6-0.5-2.8c0-0.3,0-0.5,0.1-0.7c1.1,0.1,2.4-0.1,3.6,0v0.1
			c0.3,0.5,0.1,1.4,0.5,1.9c-0.2,0.1-0.3,0.3-0.5,0.5c0.1,1,1.1,2.5,0.1,3.3c0.1,0.2,0.2,0.1,0.3,0.3c0.1,0.1-0.2,0.8-0.2,1.3
			c0,0.4,0.1,2-0.1,2.7c-0.1,0.3-0.2,0.9-0.2,1.1c0.2,1-0.7,2,0,2.8c-0.1,0.3-0.1,0.3-0.5,0.4c-0.2,0.1-2.5,0.1-3,0.2
			c0-0.1-0.1-0.2-0.1-0.4c-0.1-0.2,0.3-1.4,0.5-1.6v-0.4C408.8,314.4,408.9,314.3,408.8,314.4z M414.4,303.1c0-0.3,0-0.4,0.1-0.5
			c0.9-0.4,1.8,0.2,3,0.2c0.2,0,0.6-0.1,0.7-0.1c0.2,0.1,0.1,0,0.2,0.1c0.3,0.4,0.4,4-0.3,4.3c0.1,0.1,0.3,0.1,0.5,0.1
			c-0.4,0.8,0,0.7-0.1,1.2c-0.1,0.3-0.4,0.5-0.4,0.9c0,0.2,0.3,0.6,0.2,0.9c-0.1,0.3-0.5,0.8-0.5,1.1c0,0.2,0.3,0.4,0.2,0.7
			c-0.1,0.4-0.2,1.5-0.5,2.1h-0.2c-0.1,0.2,0.2,0.8,0.3,0.9c0.2,0.6-0.2,1.4-0.3,1.6c-0.5,0.1-0.7,0.3-1.1,0.4
			c-0.4,0.1-1.3-0.2-1.7-0.3c0-1.1-0.4-3.7,0.4-4.3c-0.1-0.2,0-0.1-0.3-0.2c0-0.2,0.3-0.8,0.3-0.8c-0.1,0-0.2-0.1-0.3-0.1
			c-0.1-0.2,0-1,0-1.1c0-0.2,0.4-0.4,0.3-0.6c0,0-0.3-0.2-0.3-0.2c-0.1-0.2-0.3-1.5-0.3-1.7c0-0.4,0.3-0.9,0.4-1.2
			C414.9,306,414.6,303.5,414.4,303.1z M420,312c0.1-0.4,0.4-0.3,0.5-1l0.1-0.1c0.2,0,0.4,0.1,0.5,0.1v-0.3
			c-0.2-0.1-0.3-0.2-0.6-0.2c0.1-0.1,0.2-0.1,0.3-0.2c0.1-0.2-0.3-1.5-0.2-1.9c0.1-0.4,1.1-0.6,1.4-0.8h0.2v-0.2
			c-0.4,0.1-0.9,0.2-1.2,0.5h-0.2c0-0.9-0.2-1.4,0.5-1.7V306c-0.2,0-0.2,0-0.3,0.1h-0.3c0.2-0.6,0.3-1.1,0.1-1.7
			c0-0.1-0.3-0.3-0.3-0.4c0-0.3,0.3-0.7,0.4-1.2c0.8,0,1.4-0.2,1.9,0.2c1.4-0.1,1.7,0.8,1.9,1.7c0.1,0.3-0.4,0.8-0.3,1.3
			c0,0.1,0.3,0.2,0.3,0.5c0,0.1-0.4,0.5-0.5,0.6c0,0.3,0.1,0.7,0.1,1l-0.4,0.4c-0.2,0.5,0.1,1.1,0,1.4c0,0.1-0.3,0.5-0.4,0.6
			c-0.4,0.9,0.1,1.9-0.8,2.2c0,0.3,0,0.1,0,0.4c0.1,0,0.2,0.1,0.4,0.1c0,1.3-0.4,2.5-0.3,3.7c-1.1,0-2,0.1-2.8-0.2
			c0.1-0.4,0.2-0.4,0.6-0.5c-0.1-0.2-0.4-0.3-0.7-0.4c-0.1-1,0.1-2.3,0.3-3C420.1,312.6,420.1,312.3,420,312z M425.8,312.9
			c0.3-0.6,1.5-0.5,1.9-1h0.2v-0.2c-0.9,0.1-1.2,0.5-2,0.6c-0.1-0.9,0.2-0.7,0.4-1.4c0-0.3-0.1-0.6-0.1-0.9c0.1-0.5,0.2-1.5,0.3-1.7
			c0.1-0.3,0.1-0.1,0.4-0.1c0.1-0.5,0-0.5-0.2-0.8c0.5-1.1,0-2.6,0-3.8c0.7,0,1,0,1.5-0.1c0.1,0.3,0.1,0.1,0.1,0.5
			c0.9,0,3-0.2,3.5,0.5c0.5,0.7-0.3,1.5-0.5,1.9c-0.3,0.7-0.2,1.4-0.4,2v1.2c-0.2,0.6-0.7,0.8-1,1.3h-0.1v0.1h0.4
			c-0.1,0.9-0.5,2.3-0.6,3c-0.1,0.4,0.3,0.5,0.2,0.9c-0.1,0.3-0.2,0.3-0.2,0.6c0.1,0.7-0.7,1.5-0.1,2v0.1c-1.4,0-3-0.1-3.9-0.5
			c-0.1-1.1-0.2-1.7,0.2-2.7C425.8,313.7,425.5,313.3,425.8,312.9z M436.8,312.4c-0.1,0.3-0.4,0.5-0.7,0.5v0.2h0.5
			c-0.3,0.7-0.8,2.3-1.2,2.9c-0.1,0.2-0.6,0.2-0.7,0.4c-0.1,0.2-0.2,0.6-0.4,0.8c-0.3,0.4-0.8,0.3-1,0.9c-0.5-0.2-1.3-0.3-1.9-0.4
			l-0.1-0.1c0.1-0.7,0.4-1.1,0.5-1.6c0-0.3-0.1-0.5-0.1-0.8c0.2-1,0.1-2,0.4-3c0.1-0.3,0.4-0.6,0.5-0.9c0.3-0.7,0.4-1.6,0.6-2.3
			v-0.6c0.2-0.7,0.2-1.7,0.5-2.4c0.2-0.4,0.5-0.7,0.6-1.2c1.2,0.1,2.1,0.7,3.4,0.8c-0.1,0.6,0,2-0.2,2.5l-0.3,0.3
			c-0.1,0.3-0.1,1-0.2,1.3C436.9,310.8,437.3,311.7,436.8,312.4z M436.2,318.4c0,0.1-0.1,0.1-0.1,0.2h-0.4c0-0.3,0-0.1,0-0.4
			C436,318.3,436,318.3,436.2,318.4z M439,311.5c0.1-0.2,0.5-1.3,0.7-1.5c-0.1-0.3-0.1-0.1-0.4-0.1c-0.1-0.8-0.3-1.9,0.3-2.6
			c0-0.5,0-0.7,0.2-0.9c0.6,0,1.6,0.2,2.1,0.4c0.3,0,0.5-0.1,0.8-0.1c0.1,0.1,0.1,0.2,0.2,0.3h0.8c0.4,0.1,0.8,0.3,1.4,0.4
			c-0.6,0.9-0.8,1.4-1.1,2.7c-0.1,0.7,0.3,1.8-0.2,2.5c0,0.1-0.1,0.2-0.1,0.3c-1.2,0-2.3,0.2-3.3,0.5h-0.8v0.2
			c-0.3,0.1-0.5,0.1-0.8,0.2l-0.1-0.1c0-0.5,0.3-0.6,0.4-1C439.2,312.2,439,311.8,439,311.5z M450.4,312.1c-0.1,0.6-0.3,1.4-0.6,2.1
			c-0.9,0-1.8-0.1-2.5-0.5c-0.1-0.1-0.1-0.2-0.2-0.3c-0.2,0.1-0.4,0.1-0.5,0.2l-0.8-0.3c0.3-2.1,0.7-3.9,1.1-5.6
			c1.3,0.2,3.3,0.6,4.2,1.3l0.1,0.1h-0.1c-0.1,0.3-0.4,0.4-0.5,0.6C450.2,310.6,450.6,311.3,450.4,312.1z M452.7,310.5
			c0-0.4-0.1-0.6-0.2-0.8c1.8,0.4,3.2,1.1,4.6,1.8c-0.2,0.5-0.6,0.9-0.8,1.5c-0.3,0.9,0.2,1.7-0.7,2.2c0.1,0.2,0,0.1,0.3,0.2
			l-0.5,0.5c-0.1,0.2-0.2,0.8-0.4,1.2c-0.3,0.5-0.8,0.8-1,1.5h-0.2c-0.2-0.5-0.4-1-0.7-1.4c-0.3-0.4-1.5-1.1-1.4-2
			c0.1-0.6,0.5-1.5,0.6-2C452.6,312.3,452.1,311.1,452.7,310.5z M457.8,316.9c0-0.6,0.1-0.9,0.2-1.2v-1.1l0.4-0.4
			c0.1-0.3,0-0.6,0.2-0.9c0.2-0.3,0.4,0,0.5-0.6c0.2,0,0.2,0,0.3-0.1c0.4,0.1,0.3,0.2,0.7,0.2c0.1,0.2,0,0.2,0.2,0.3
			c-0.1,0.2-0.2,0.3-0.4,0.5c0.1,0.8,0.7,1.2,0.8,1.9c0.1,0.7-0.4,1.3-0.5,1.8c0,0.2,0.1,0.4,0.1,0.5c0,0.1-0.3,0.1-0.4,0.2
			c-0.2,0.2-0.4,0.8-0.5,1c-0.1,0.2,0,0.5-0.1,0.7c-0.1,0.2-0.5,0.5-0.5,0.6c0,0.2,0.1,0.4,0.1,0.5h-0.1c-0.1,0.3-0.4,0.5-0.5,0.8
			c-0.1,0.3,0,0.6-0.2,0.8c-0.1,0.2-0.6,0.4-0.6,0.5c0,0.2,0.1,0.3,0.1,0.5c-0.2,0.7-0.6,1.3-0.8,1.9c-0.6-0.1-0.6-0.4-1-0.4
			c0.1-0.3,0.3-0.6,0.4-0.8c0.2-0.7-0.4-1.2,0.4-1.6c-0.2-0.3-0.9-1-1.3-1.1c0.1-1,0.7-1.2,1-1.9c0.2-0.4,0.1-0.7,0.3-1
			c0.3-0.5,0.9-0.8,1.2-1.5c0.5,0,0.5,0,0.9,0v-0.1C458.2,317,458,316.9,457.8,316.9z M462.5,317.3c0.1-0.3,0.4-0.7,0.5-0.9
			c0.3-0.6-0.5-0.8,0.1-1.4c-0.1-0.3-0.1-0.4-0.4-0.5v-0.2c0.4,0,0.3,0.1,0.8,0.2v0.3c0.3,0.1,0.9,0,1.2,0.1
			c0.2,0.1,0.5,0.3,0.8,0.5c0.2,0.4,0.1,1.5-0.1,2.3c0,0.1-0.2,0.2-0.2,0.4c0,0.2,0.3,0.5,0.2,0.7c0,0.1-0.3,0.2-0.3,0.2v0.5
			c0,0.1-0.3,0.4-0.4,0.5c-0.1,0.3,0.2,0.9,0,1.5c-0.1,0.3-0.4,0.6-0.5,0.8c-0.2,0.4,0.1,0.6-0.2,1l-0.5,0.5c-0.1,0.4,0.2,0.6,0,1
			c-0.2,0.6-1.1,1.1-1.3,1.7c-0.1,0.3,0.2,0.4,0,0.7c-0.2,0.3-0.5,0.2-0.7,0.7c-0.7,0-2.6-0.8-2.9-1.3c0-0.2,0.5-1,0.6-1.3
			c0-0.2,0.1-0.5,0.1-0.7c0.1-0.2,0.5-0.5,0.5-0.7c0,0-0.1-0.3-0.1-0.5c0.1-0.5,0.2-1,0.5-1.5c0.3-0.7,0.9-1.4,1-2.3
			c0.3,0,0.3,0,0.5-0.2c0.1-0.1,0-0.4,0.2-0.6c0.1-0.1,0.4-0.2,0.5-0.4C462.6,318.3,462.5,317.5,462.5,317.3z M466.6,323.6
			c-0.1-0.1,0.3-0.7,0.4-0.9v-1c0.4-1.5,0.5-2.8,0.7-4.4c1.2,0.1,2.7,1.2,3.5,1.7c0.1,0.3,0.3,0.8,0.3,1c0,0.1-0.2,0.4-0.3,0.5
			c-0.2,0.5-0.1,0.8-0.3,1.4l-0.4,0.4c0,0.3-0.1,0.6-0.1,0.9c-0.1,0.3-0.5,0.6-0.6,0.9c-0.2,0.4-0.1,0.9-0.3,1.4
			c-0.2,0.2-0.4,0.4-0.6,0.5c-0.2,0.4-0.1,0.7-0.4,1c-0.2,0.1-0.4,0.2-0.6,0.3c0,0.2-0.1,0.3-0.1,0.5l-0.8,0.8
			c0,0.2-0.1,0.3-0.1,0.5c-0.4,0.5-1,0.9-1.2,1.5c-0.2,0-0.2,0-0.3,0.1c-0.6-0.2-0.9-1-1.5-1.3c0.1-0.2,0-0.9,0.2-1.2
			c0.2-0.1,0.3-0.2,0.5-0.3c0.2-0.3,0.2-0.6,0.4-0.9c0.1-0.1,0.4-0.2,0.5-0.3v-0.4c0.1-0.1,0.3-0.1,0.4-0.2c0.2-0.3,0.2-1,0.3-1.2
			c0.2-0.4,0.5-0.8,0.7-1.2C466.9,323.7,466.7,323.7,466.6,323.6z M472,325c0.4-1.1,1.3-2.4,1.3-3.8h0.4c0.4,0.7,1.5,0.9,2.1,1.5
			c0.2,0.1,0.2,0.3,0.4,0.5c0,0.3-0.4,1.6-0.5,1.7c0,0-0.3,0.2-0.3,0.2c-0.1,0.2,0.2,0.2,0.2,0.4c-0.1,0.5-0.3,1.3-0.6,1.6
			c-0.6,0.6-1.4,1.3-1.7,1.9c-0.4,0.7-0.8,1.8-1.5,2.2c-0.2,0.1-0.2,0-0.5,0v0.5c-0.6,0.3-0.8,0.5-1,1.2c-0.3,0.1-0.8,0.1-1,0.3
			c-0.2,0-1.5-0.9-1.5-0.9c-0.1-0.1,0,0-0.1-0.2c0.4-0.3,0.9-0.6,1.1-1.1c0.1-0.3-0.1-0.6,0-0.7c0.1-0.5,0.6-0.5,0.8-0.8
			c0.6-0.9,1.3-1.6,1.7-2.6c0.3,0,0.3,0.1,0.5,0C472.1,326.5,471.7,325.7,472,325z M477.7,328.5c0,0.5-0.7,0.7-0.4,1.2
			c-0.5,0.9-1.5,1.5-2,2.4c-0.1,0.2,0,0.3-0.2,0.5c-0.3,0.2-0.6,0.2-0.8,0.5c-0.3,0.3-0.4,0.8-0.7,1.1c-0.6,0.4-1.5,0.5-2,0.9
			c-0.2,0-0.3,0-0.4-0.1h-0.1c0.2-0.4,0.4-0.3,0.6-0.5c0.1-0.1,0-0.2,0.1-0.4c0.1-0.1,0.3-0.1,0.4-0.2c0.3-0.3,0.6-0.9,1-1.2
			c0.2-0.2,0.8-0.4,0.9-0.6c0-0.2,0.1-0.4,0.1-0.6c0.2-0.1,0.4-0.2,0.5-0.4c-0.1-0.1,0.4-0.8,0.5-1.1c0.3-0.4,0.7-1,1.1-1.4
			c0.1-0.1,0.3-0.1,0.4-0.2c0.3-0.3,0.5-1.5,0.6-1.9h0.2c0,0.5-0.1,0.9-0.1,1.4C477.6,327.9,477.7,328.4,477.7,328.5z M344.5,333.4
			c-0.1,0.2,0,0.1-0.1,0.2c-0.1,0.1,0,0-0.2,0.1c0-0.1-0.1-0.2-0.1-0.3L344.5,333.4L344.5,333.4z M320.6,230.3V230h0.3v-0.3
			c0.7-0.2,1.7-2.1,1.8-2.6c0-0.4-0.1-0.7-0.1-1.1c-0.2-0.2-0.3-0.6-0.5-0.7c-0.7-0.4-2.6-1.5-3.4-1.3c0,0-0.4,0.2-0.5,0.3
			c-0.2,0.1-0.4-0.1-0.7,0.1c-0.9,0.5-1,1.7-2,2c0,0.3,0.3,0.5,0.3,0.7c0,0.7-0.4,1.8,0.1,2.5c0.1,0.8,0.6,0.8,1,1.3
			c0.8,0,1.6,0.1,2.5,0.1C319.8,230.8,320.1,230.4,320.6,230.3z M312.1,300.7c-0.1-0.2,0.2-0.7,0-1c-0.1-0.1-0.4-0.1-0.5-0.2v-0.6
			c-0.1-0.4-0.6-1.2-0.9-1.5c-0.2,0-0.4-0.1-0.5-0.1c-0.4-0.3-0.4-0.9-1.1-1.2c-0.6-0.3-2.5-0.3-3.3-0.3c-0.2,0.2-0.6,0.2-0.9,0.4
			l-1.6,1.6c-0.2,0.1-0.4,0-0.5,0.2c-0.3,0.4-0.4,0.8-0.7,1.2c-0.2,0.2-0.5,0.4-0.7,0.5c0.3,0.6-0.2,1-0.6,1.3
			c-0.1,2.2,1.1,4.9,2.8,5.6c0.8,0.3,2.3,0.2,3.2,0.1c0.7-0.1,2.1,0.2,2.6-0.1c0.2-0.1,0.4-0.5,0.6-0.6c0.5-0.3,0.9-0.3,1.2-0.7
			c0.6-0.8,1.7-3.1,1.4-4.2C312.4,300.9,312.1,300.8,312.1,300.7z M455.3,315.5L455.3,315.5c0-0.2,0.1-0.1-0.1-0.2
			c-0.2,0.3-0.5,0.5-0.7,0.8C454.8,316.1,455.2,315.7,455.3,315.5z M343.1,318.6v0.3c0.1,0,0.2-0.1,0.3-0.1
			C343.2,318.6,343.4,318.7,343.1,318.6z M342.3,319.2c-0.1,0.2-0.1,0.2-0.2,0.4c0.2-0.1,0.2-0.1,0.4-0.2
			C342.3,319.2,342.5,319.4,342.3,319.2z M483.9,346.2c-0.3-0.5-0.7-0.9-0.9-1.6c-0.2,0.1-0.2,0.1-0.4,0.2c-0.4-0.6-0.6-0.3-1.2-0.6
			c-0.3-0.2-0.5-0.7-0.8-0.9c-0.8-0.6-2.4-0.7-3.5-0.7c-0.3,0.2-0.8,0.1-1.1,0.3v0.1c-0.5,0.3-0.6,0.9-1.1,1.2
			c-0.1,0.1-0.3,0-0.4,0.1c-0.3,0.3-1.1,1.8-1.4,1.9c0.3,0.6,0.2,1.8,0.5,2.8c0,0.2-0.1,0.4-0.1,0.6c0.1,0.4,0.6,0.8,0.9,1.2
			c0.1,0.1,0,0.3,0.1,0.4c0.2,0.2,0.5,0.1,0.7,0.3c0.1,0.1,0.2,0.4,0.4,0.5h0.5c2.4,0.9,4,0.1,5.9-1.1c0.2,0,0.4-0.1,0.6-0.1v-0.1
			c0.3-0.4,0.3-0.8,0.6-1.3c0.1-0.2,0.5-0.2,0.5-0.4c0.2-0.2,0-0.7,0-0.8C483.8,347.5,484.3,346.9,483.9,346.2z M342.9,357.4
			c-0.1-0.3,0.2-0.6,0.2-0.8c0-0.1-0.2-0.4-0.3-0.5v-0.7c-0.1-0.1-0.2-0.1-0.3-0.2v-0.5h-0.2c-0.3-0.6,0.1-0.9-0.3-1.5
			c-0.1-0.2-0.4-0.2-0.5-0.4c-0.9-1.2-2.6-2.1-4-2.7c-0.7-0.1-1.3-0.1-2-0.2c-0.1,0-0.3,0.3-0.5,0.4c-0.4,0.1-0.5-0.2-0.9,0
			c-1,0.5-1.9,1.2-2.8,1.7c-0.4,0.2-0.8,0.3-1.1,0.6c0,0.1-0.1,0.2-0.1,0.4c-0.3,0.4-0.8,0.8-1.1,1.3v0.4c-0.2,0.4-1.2,1.3-1.4,1.6
			c0,0.1,0.1,0.2,0.1,0.4l-0.5,0.5c0,0.2,0,0.2,0.1,0.3c0,0.1,0.1,0.2,0.1,0.3h0.4c0,0.9,0.4,0.7,0.6,1.3c0.1,0.4-0.2,0.7-0.1,1.1
			c0.1,0.2,0.4,0.4,0.5,0.6c0,0.2-0.1,0.4-0.1,0.6c0.1,0.1,0.5,0.1,0.5,0.1c0.2,0.2,0.2,0.6,0.4,0.7c0.2,0.2,0.5,0,0.7,0.2
			c0.2,0.1,0.4,0.5,0.5,0.6c0.4,0.2,1.3,0.5,1.7,0.6c0.6,0.2,0.9-0.1,1.5,0c2.5,0.6,5-0.3,6.3-1.8c0.2-0.1,0.3-0.2,0.5-0.3
			c0-0.2,0.1-0.5,0.1-0.7c0.2-0.4,0.8-0.5,1-0.8c0.2-0.3,0.2-0.6,0.4-1c0.2-0.4,0.6-0.7,0.7-1.2
			C343.2,357.4,342.9,357.4,342.9,357.4z M457.1,361.8h-0.2c0-0.4,0.1-0.8,0.1-1.2c-0.2-0.6-0.5-1,0.1-1.5V359
			c-0.3,0.1-0.4,0.2-0.5,0.5h-0.2c-0.2-0.5-0.6-1-0.8-1.5c0-0.3-0.1-0.5-0.1-0.8c-0.1-0.3-0.7-0.5-0.9-0.7c-0.2-0.3-0.2-0.7-0.4-1
			c-0.3-0.4-0.7-0.6-1.1-0.9c-0.2-0.2-0.2-0.5-0.4-0.6c-0.2-0.2-0.6-0.2-0.8-0.5c-0.1-0.1-0.1-0.4-0.3-0.5l-0.8-0.3
			c-0.1-0.2-0.2-0.3-0.4-0.5h-0.6c-0.2-0.1-0.4-0.4-0.5-0.5c-0.3,0-0.6-0.1-0.9-0.1c-0.1-0.1-0.4-0.3-0.5-0.4
			c-0.4-0.2-0.5,0.3-0.8,0.2c-0.3-0.1-1.3-0.4-1.5-0.5c-0.5-0.1-1.1,0.3-1.5,0c-0.2,0.1-0.3,0.4-0.5,0.5c-0.3-0.1-0.3-0.2-0.5-0.3
			c-0.7,0.3-1.5,0.2-2.3,0.5c-0.6,0.2-1.2,0.6-1.8,0.6c0,0.2,0,0.2-0.1,0.3c-0.3,0.5-0.3,0-0.5,0.1c-0.2,0.1-0.2,0.5-0.4,0.6
			c-0.1,0.1-0.3,0.1-0.5,0.2c-0.8,0.7-0.6,1.5-1.8,2c0.1,0.2,0,0.1,0.3,0.2c-0.1,0.1-0.4,0-0.5,0.1c-0.5,0.3-0.6,1.1-1.4,1.3
			c0.2,1.1-1,2.9-0.7,4.4c0.3,1.7,0.8,2.9,1.4,4.3c0.2,0.5,0.2,0.9,0.5,1.3c0.1,0.2,0.4,0.2,0.5,0.4c0.2,0.3,0.2,0.5,0.5,0.7h0.3
			c0,0,0.4,0.8,0.5,0.8c0,0.1-0.1,0.2-0.1,0.3c0.2,0,0.3,0.1,0.5,0.1c0.4,0.3,0.8,0.8,1.3,1h0.5c0.3,0.1,0.6,0.6,0.9,0.7
			c0.6,0.3,2.8,1,3.6,1v0.5c0.5,0,0.4-0.1,0.4-0.4c0.8-0.1,2.1-0.3,2.5,0.2c0.3-0.1,0.8-0.4,1.1-0.6h0.5l-0.3,0.3v0.3
			c0.4-0.2,0.7-0.5,1-0.8c0.6-0.5,1.7-0.5,2.4-0.9c0.2-0.1,0.3-0.4,0.5-0.5c1.2-1,2.7-2,3.6-3.3c0.9-1.4,1.1-3.9,2.5-4.8v-0.2
			C457.1,361.7,457.2,361.7,457.1,361.8z M505.9,355.2h0.5V355h-0.5V355.2z M419.7,361.2c-0.1,0-0.2-0.1-0.4-0.1
			c-0.2-0.2,0-0.3-0.2-0.5c-0.2-0.3-0.7-0.6-0.9-0.9c-0.2-0.3-0.1-0.6-0.3-0.8c-0.2,0-0.4-0.1-0.5-0.1v-0.2
			c-0.4-0.3-0.9-0.5-1.4-0.8c-0.2-0.1-0.3-0.4-0.5-0.5c-0.3-0.2-0.8-0.2-1.2-0.4c-0.2-0.1-0.4-0.5-0.6-0.5c-0.1-0.1-2.6,0-2.9,0.1
			c-0.7,0.2-0.8,0.8-1.9,0.8c-0.2,1-0.9,1.7-1.5,2.2c-0.2,0.1-0.4,0-0.6,0.2c-0.2,0.1-0.1,0.3-0.2,0.5c-0.2,0.1-0.4,0.1-0.5,0.2
			c-0.1,0.1,0,0.3-0.1,0.5c0,0.1-0.3,0.1-0.4,0.2v0.6c-0.1,0.1-0.2,0.1-0.4,0.2v1c-0.2,0.6-0.6,3.8-0.3,4.6c0.2,0.6,1.1,1.9,1,2.3
			c0.3,0.4,1,0.5,1.4,0.9v0.3c0,0,0.2-0.2,0.4-0.1c0.2,0.1,0.2,0.3,0.7,0.3c0.1,0.4,0.6,0.8,1.1,0.7c0.1,0,0.2-0.2,0.4-0.1
			c0.1,0,0.1,0.3,0.2,0.4c0.5,0,1,0.1,1.5,0.1c0.2,0,0.9,0.4,1.4,0.3c1.1-0.2,3.4-1.6,4.3-2.2c0.4-0.3,0.7-0.9,1.1-1.2
			c0.1-0.1,0.4-0.1,0.5-0.2c0.2-0.3,0.2-0.7,0.4-1c0.1-0.2,0.4-0.4,0.5-0.5c0.2-0.3,0.1-0.5,0.2-0.9c0.7-2.1,0.8-2.6,0-4.6
			L419.7,361.2L419.7,361.2z M457.2,358.7c0.1-0.1,0.1,0,0-0.2c-0.1,0.2-0.2,0.2-0.3,0.5h0.2C457.2,358.8,457.2,358.7,457.2,358.7z
			 M330.9,370.6h0.2C331,370.5,331,370.5,330.9,370.6C330.9,370.6,330.8,370.6,330.9,370.6z"/>
	</g>
</g>
</svg>
