<?xml version="1.0" encoding="utf-8"?>
<!-- Generator: Adobe Illustrator 21.0.0, SVG Export Plug-In . SVG Version: 6.00 Build 0)  -->
<svg version="1.1" id="Calque_1" xmlns="http://www.w3.org/2000/svg" xmlns:xlink="http://www.w3.org/1999/xlink" x="0px" y="0px"
	 viewBox="0 0 841.9 595.3" style="enable-background:new 0 0 841.9 595.3;" xml:space="preserve">
<style type="text/css">
	.st0{fill:#1D1D1B;}
	.st1{fill:#DADADA;}
</style>
<g>
	<g>
		<path class="st0" d="M525,294.5c0.1-0.2,0.1-0.1,0.2-0.5c-0.7,0.1-1,0.3-1.4,0.8h-0.2c0-3.8,0.2-6.1-0.5-8.9
			c-0.3-1.3,0.3-2.8-0.2-3.6c0.1-0.9,0.8-1.3,1.5-1.5v-0.3c-0.5,0.1-0.9,0.3-1.2,0.6H523c0-1-0.2-1.7,0.2-2.3
			c-0.2-0.1-0.3-0.1-0.6-0.2c0-0.6,0-0.4,0-1.1c0.4-0.1,0.7-0.1,0.9-0.3h0.2V277c-0.5,0.1-0.7,0.2-1.1,0.3c-0.3-0.8-0.4-2.2-0.6-3.2
			c0-0.4,0.1-0.8,0.2-1.2c-0.1-0.5-0.8-1.4-0.6-2.1c0.1-0.2,0.3-0.4,0.3-0.9h-0.5c0-1-0.5-1.2-0.6-2c0-0.3,0.1-0.6,0.2-0.9
			c-0.4-1.6-1.2-3.4-1.8-4.8c-0.4-1-0.2-1.8-1.1-2.6c0.1-0.4,0.3-0.4,0.5-0.8h-0.2c-0.2-0.1-0.2,0-0.5,0.2h-0.2
			c-0.7-3.2-2.1-5.4-3.6-7.7c-0.3-0.4-0.7-1-0.9-1.4c-0.1-0.2,0.2-0.6,0.2-0.6h-0.8c-0.4-0.3-0.5-1.1-0.8-1.5c-0.5-0.5-1-1-1.5-1.5
			c-0.2-0.4-0.2-0.7-0.5-1.1c-0.4-0.4-1.1-0.6-1.4-1.1v-0.5c-0.5-0.4-0.9-0.8-1.4-1.2c-0.4-0.6-1.1-2.1-1.7-2.4
			c-0.4-0.2-0.9,0-1.2-0.3c-0.4-0.3-0.9-1.6-1.2-1.8c-0.3-0.1-0.6-0.1-0.9-0.2c-0.5-0.5-0.9-1-1.4-1.5c-0.5-0.4-1.6-0.5-2.1-0.9
			v-0.3c-0.4-0.3-1.1-0.8-1.5-1.1c-0.4-0.1-0.7-0.1-1.1-0.2c-0.3-0.3-0.5-0.6-0.8-0.9c-0.5-0.3-1.2-0.3-1.7-0.6
			c-0.7-0.5-1.5-1.3-2.3-1.8c-1-0.6-2.1-0.5-3.2-1.1c-0.7-0.3-1.7-1-2.4-1.4c-0.8-0.4-1.6,0-2.6-0.3c-0.7-0.2-1.5-0.7-2.1-0.9
			c-0.3-0.1-0.6,0.2-0.8,0.2c-0.2-0.1-0.7-0.5-0.9-0.6c-0.7-0.2-1.7,0.2-2.6-0.3c-0.3-0.1-0.6-0.6-0.9-0.8h-2.7
			c-0.3-0.1-3.6-0.8-4.4-0.6c-0.3,0.1-0.7,0.3-1.1,0.3c-0.4,0-1.4-0.3-2.1-0.2c-0.6,0.2-1.1,0.7-1.7,0.9c-1.2,0.4-2.5,0.1-3.6,0.6
			c-5.2,2.1-11,3.3-16,5.6c-0.8,0.1-1.5,0.2-2.3,0.3c-0.3,0.1-1.1,0.6-1.5,0.8c-0.7,0.2-1.4-0.2-1.5-0.2c-0.1,0.2-0.2,0.4-0.3,0.6
			h-0.6c-0.2,0.1-0.5,0.5-0.8,0.6c-1.5,0.5-3.3,0.4-4.4,0.9c-8.3,3.5-17.5,5.9-25.8,9.4c-0.8,0.3-1-0.3-1.5-0.2
			c-0.3,0.1-0.9,0.8-1.2,0.9c-1.3,0.5-2.5,0.3-3.8,0.8c-0.6,0.2-1.2,0.7-1.8,0.9c-1.4,0.5-2.8,0.8-4.1,1.2h-1.1
			c-2.8,1-6.6,2.1-9.4,2.9c-3,0.8-6.1,1.5-8.6,2.6h-1.4c-0.4,0.1-1.1,0.6-1.5,0.6c-0.3,0-0.9-0.2-1.5,0c-2.4,0.8-6,2.1-8.2,2.7
			c-0.3,0.1-2.2,0.5-2.3,0.5c-0.1,0-0.1-0.4-0.5-0.3c-0.8,0.2-1.4,0.8-2.7,0.8v0.5c-1.3-0.2-4.6,0.6-6.5,1.1
			c-0.8,0.1-1.5,0.1-2.3,0.2l-0.5,0.5H347c-1.4,0.3-3.5,0.5-4.7,0.8c-2.9,0.7-6.5,1.4-9.4,2.1c-1.5,0.4-3.2,0.1-4.4,0.3
			c-1.7,0.3-3.7,1.1-5.3,1.4c-0.6,0.1-1.1-0.5-2-0.2c-0.2,0.1-0.6,0.5-0.8,0.6c-0.6,0.3-1.2,0.1-2,0.3c-0.1,0-0.5,0.4-0.6,0.5
			c-0.6,0.2-1.7-0.1-2.6,0.3c-1.3,0.5-3.4,1.8-5.1,1.8v0.5c-3,0.4-5.2,2.3-7.7,3.2h-0.9c-3.3,1.4-6.7,3-9.5,5
			c-0.7,0.5-1.6,0.5-2.4,0.9c-0.7,0.4-1.4,1.2-2,1.7c-0.3,0.1-0.5,0.1-0.8,0.2c-0.2,0.2-0.4,0.7-0.6,0.9c-0.3,0.1-0.5,0.1-0.8,0.2
			c-0.5,0.3-0.9,1.1-1.5,1.4c-0.3,0.1-0.5,0.1-0.8,0.2c-0.3,0.2-0.7,1-1.1,1.2c-0.8,0.6-1.7,0.8-2.4,1.5c-0.8,0.8-1.4,1.9-2,2.6v0.5
			c-0.3,0.1-0.5,0.1-0.8,0.2c-0.7,0.6-0.9,1.6-1.7,2.1c-1.4,1-3.6,2.1-4.4,3.8h-0.5c-0.1,1.2-0.8,1-1.4,1.7
			c-0.1,0.2-0.1,0.4-0.2,0.6c-0.2,0.1-0.3,0.1-0.5,0.2v0.5c-0.2,0.4-0.6,0.9-0.9,1.4c-0.2,0.3-1.1,0.7-1.2,0.9v0.6
			c-0.3,0.5-0.9,1.2-1.2,1.7c-0.1,0.3-0.1,0.5-0.2,0.8c-0.2,0.3-0.7,0.4-0.9,0.8c-0.2,0.4-0.1,0.8-0.3,1.2c-0.3,0.5-1.1,0.8-1.4,1.4
			c-0.2,0.5,0,0.8-0.3,1.2c-0.6,0.9-1.7,1.9-2.1,3c-0.1,0.3,0.3,0.6,0,1.1c-0.3,0.3-0.6,0.5-0.9,0.8c0.1,0.2,0.1,0.3,0.2,0.5
			c-0.3,0.5-0.8,1.2-1.1,1.8v0.9c-0.1,0.3-0.8,0.9-0.9,1.2c-0.1,0.3,0.3,1,0,1.5l-0.6,0.6c0.1,0.4,0.1,0.7,0.2,1.1
			c-0.1,0.1-0.2,0.1-0.3,0.2c-0.3,0.6-0.4,1.4-0.6,1.8v1.2c-0.1,0.2-0.5,0.7-0.6,1.1c-0.1,0.7,0.2,2.7,0,3.3l-0.5,0.5
			c-0.1,0.5,0.2,1.4,0.3,2.1c-0.7,1.4-0.6,5-0.2,6.9c0.1,0.6,0.2,3.2,0.5,3.9c0.8,2.1,1.5,4.9,2.1,7.1c0.3,0.9-0.1,1.8,0.3,2.7
			c0.1,0.2,0.7,0.8,0.8,1.1c0.2,0.5-0.2,0.8-0.2,1.1l0.5,0.5v0.8c0.2,0.1,0.3,0.1,0.5,0.2v0.9l0.5,0.5c0.1,0.1-0.3,0.3-0.2,0.6
			c0.1,0.2,0.5,0.5,0.6,0.8c0,0.1-0.2,0.6,0,1.1c0.3,0.7,0.8,1,1.1,1.5v0.6c0.5,1.1,1.4,2.1,2,3c0.2,0.3,0.1,0.9,0.3,1.2
			c0.1,0.2,0.6,0.1,0.8,0.3c0.4,0.6,0.2,1.3,0.6,1.8c0.7,0.8,1.5,1.6,2.1,2.6c0.3,0.5,0,1.1,0.3,1.7c0.2,0.2,0.4,0.3,0.6,0.5
			c0.2,0.3,0.2,0.8,0.5,1.1c0.8,0.9,2.5,2.1,2.7,3.5c0.2,0.3,0,0.4-0.3,0.6v0.3c0.3-0.1,0.6-0.2,1.1-0.2c0.3,1.3,1.8,1.6,2.3,2.9
			h0.6c0.2,0.7,0.6,0.4,0.9,0.9c0.2,0.5,0.3,1,0.5,1.5c0.2,0.2,0.7,0.2,0.9,0.5c0.2,0.3,0,0.8,0.3,1.1c0.1,0.1,0.8,0.4,0.9,0.5
			c0.3,0.3,0.2,0.7,0.5,1.1c0.4,0.7,1.3,1.1,2,1.7c0.2,0.3,0.3,0.5,0.5,0.8c0.3,0.1,0.6,0.1,0.9,0.2c0.4,0.3,0.8,0.7,1.2,1.1
			c0.3,0.4,0.6,0.8,0.9,1.2c0.6,0.4,2.7,1.7,3.5,1.8v0.5c1.6,0.2,2.3,1.3,3.3,1.8c0.3,0.1,2.2,0.5,2.4,0.6c2.3,0.6,4.7,1.2,7.4,2
			c0.9,0.3,1.4,0,2.3,0.3c1.1,0.4,3.3,0.9,4.4,0.8c1.3,0,2.6,0.1,3.9,0.2c0.6-0.2,1.4-0.7,2-0.9c1.1-0.4,2.2-0.1,3.2-0.6
			c0.2-0.1,0.6-0.7,0.8-0.8c1.3-0.7,2.1-0.4,3-1.7c0.4,0.2,0.3,0.1,0.5,0.5c1.3-0.1,2.9-1.7,3.9-2.3c0.9-0.5,2.1-0.5,3-1.1
			c0.9-0.6,1.5-1.7,2.4-2.3c2.5-1.5,5.1-2.4,7.7-3.8c0.8-0.4,1.5-1.3,2.4-1.7c3.2-1.4,6.8-2.9,10.1-4.1c1.5-0.6,2.8-0.6,4.4-1.2
			c3.9-1.5,7.8-3.7,11.8-5.1c1.2-0.5,2.3-0.3,3.5-0.8c0.6-0.2,1.1-0.9,1.5-1.1h1.1c2.9-1.3,6-2.7,8.8-4.1h0.8
			c2.1-0.9,4.3-2.2,6.2-3.3c1-0.6,2.2-0.7,3.2-1.4c3.6-2.3,7.8-4.2,11.3-6.5c1.1-0.7,2.4-0.9,3.5-1.7c1-0.8,4-3.1,5.4-3.2
			c-0.1-0.3,0-0.1-0.2-0.3c0.9-0.8,2-1,3.2-1.5c1.1-0.5,2.1-1.5,3-2.1c0.6-0.2,1.1-0.4,1.7-0.6c0.6-0.4,2.1-1.8,2.7-1.7
			c0.9,0.2,1.7-0.7,2.4-0.3h0.8c-0.2-0.4-0.6-0.2-0.9-0.5c0-0.1-0.1-0.1-0.2-0.2c1-0.4,1.5-1.1,2.6-1.4c0.2,0,0.2,0,0.5,0.3
			c0.5-0.3,0.8-1.2,1.4-1.5c0.5-0.1,0.9-0.2,1.4-0.3c0-0.2,0.1-0.3,0.2-0.5c0.3-0.3,1.2-0.9,1.5-1.1c0.7-0.3,1.7-0.2,2.4-0.6
			c1-0.6,2-1.6,3-2.1c0.4-0.1,0.7-0.1,1.1-0.2c1.1-0.5,2.5-1.3,3.8-1.8c0.6-0.2,1.1-0.4,1.7-0.6c0.2,0.1,0.3,0.1,0.5,0.2
			c0.1-0.1,0-0.5,0.2-0.6c0.5-0.3,1.1-0.1,1.7-0.5c0.6-0.3,1.3-1,2-1.2c0.5-0.1,0.9-0.1,1.4-0.2c1-0.4,2.2-1.2,3.2-1.7
			c0.7-0.3,1.7,0.1,2.1-0.2c0.1-0.2,0.2-0.4,0.3-0.6c0.4,0.1,0.7,0.1,1.1,0.2c0.6-0.2,1.5-0.7,2-1.1c0.5,0.1,0.5,0.1,0.8,0.5h0.3
			c-0.1-0.4-0.1-0.2-0.3-0.5v-0.2c1.6-0.4,2.9-1,4.2-1.7c0.9-0.5,2-0.3,3-0.8c0.8-0.3,1.7-1.5,2.6-0.8c0.1-0.1,0.2-0.3,0.3-0.5
			c0.6-0.4,1.2-0.1,1.7-0.6c0.5,0.1,0.2-0.1,0.5,0.3c0.3-0.1,0.1,0,0.3-0.2h0.2c0-0.1-0.1-0.2-0.2-0.3h0.2c0.1-0.2,0.2-0.3,0.3-0.5
			c0.5,0.1,0.2-0.1,0.5,0.3c0.4-0.2,0.2-0.1,0.3-0.6c2.2,0.7,6.2-0.7,8.2-1.4h1.4c1-0.3,1.5-0.6,2.1,0.3h0.3
			c-0.1-0.4-0.1-0.2-0.3-0.5v-0.3c2.9-0.6,6.5-1.1,9.1-2h1.4c1.7-0.4,4-0.9,5.1-2.1c0.6,0.1,0.6,0.1,0.9,0.5
			c0.5-0.3,0.2-0.2,0.2-0.6c0.8-0.2,1.7-0.6,2.4-0.8h1.1c0-0.2,0.1-0.3,0.2-0.5c0.5-0.1,0.9-0.2,1.4-0.3c0.3-0.1,0.7-0.7,0.9-0.8
			c0.2-0.1,0.8,0.1,1.2,0.2c-0.1-0.4-0.2-0.3-0.3-0.6c0.2-0.1,0.3-0.2,0.5-0.3c0.5,0.3,0.6,1.4,0.6,2.1h0.3
			c-0.1-0.7-0.2-1.4-0.3-2.1c1-0.1,2.3-0.6,2.9-1.2c0.1,0.2,0.1,0.4,0.2,0.8h0.3c0-0.4,0-0.8,0.2-1.1c0.5-0.8,1.8-1.3,2.7-1.7
			c0.3-0.1,0.6-0.1,0.9-0.2c0.5-0.4,1.3-1.9,1.8-2.3c0.7-0.5,2-0.8,2.4-1.7h0.5c0.2-1.3,1.4-2.2,1.8-3.3c0.2-0.6,0.1-1.8,0.5-2.3
			c0.1-0.1,0.5-0.2,0.6-0.5c0.7-1.7-0.6-1.6,0.9-2.7c0-0.1,0.1-0.1,0.2-0.2c-0.3-0.1-0.5-0.1-0.8-0.2
			C523.5,294.9,524.3,295.1,525,294.5z M515.9,270.6c0.6,1.6,0.6,4.5,1.1,6c0.3,1.3-0.1,2.7,0.5,3.6v0.3c-0.4-0.1-0.7-0.5-1.1-0.6
			c-0.8-0.2-2,0.3-2.7,0.5c-0.8,0.2-2.1-0.2-3,0c-1.4,0.3-3,0.7-4.4,1.2c-0.7,0.3-1.3-0.1-1.8,0c-1.1,0.2-2.4,0.9-3.5,1.2
			c-1.1,0.3-2,0.1-3.2,0.5c-4.7,1.6-9.7,3-14.2,5.3c-2.2,1.1-4.3,1.6-6.5,2.7c-2.6,1.3-5.2,2.9-7.5,4.4c-0.6,0.4-1.3,0.3-2,0.6
			c-2.7,1.5-5.6,2.8-8.5,4.2c-0.8,0.4-1.6,1.3-2.3,1.8c-1.2,0.9-2.6,1.4-3.9,2.1c-0.2,0.2-0.3,0.4-0.5,0.6c-0.5,0.1-0.9,0.2-1.4,0.3
			c-0.2,0.3-0.4,0.5-0.6,0.8c-0.9,0.5-2.2,0.8-3,1.4c-1,0.7-2.1,1.6-3.2,2.3c-0.6,0.4-1.3,0.4-2,0.8c-3.1,2-6.2,4.4-9.5,6.2
			c-2.2,1.2-4.5,1.8-6.8,3c-0.6,0.3-1.3,0.9-1.8,1.2c-1,0.5-1.9,0.4-2.9,0.9c-3,1.5-6.2,3.5-9.2,5c-0.6,0.3-1,0.2-1.5,0.5
			c-0.5,0.3-1.3,1-1.8,1.2c-0.8,0.4-1.8,0.2-2.3,0.5c0,0.1,0,0.1,0.2,0.2c-0.6,1-2.6,1.3-3.6,2c-0.7,0.4-1.7,1-2.4,1.4
			c-0.4,0.2-0.9,0.1-1.1,0.2c-1.1,0.6-2.3,1.6-3.5,2.1c-0.6,0.3-1.2,0.1-1.8,0.5c-0.8,0.5-1.8,1.5-2.7,1.8c-0.7,0.2-1.6,0.1-2.4,0.6
			c-2,1.1-4,2.1-6.2,3.2c-0.3,0.2-0.6,0.6-0.9,0.8c-0.9,0.4-2.1,0.4-2.9,0.9c-0.3,0.2-0.8,0.6-1.2,0.8c-0.5,0.2-1.6,0.1-2,0.3v0.3
			c-0.6,0.4-1.3,0.3-2,0.6l-0.6,0.6c-0.5,0.1-1,0.2-1.5,0.3c-0.2,0.2-0.3,0.4-0.5,0.6c-0.4,0.1-0.8,0.1-1.2,0.2
			c-0.7,0.3-1.7,0.9-2.4,1.2c-0.7,0.3-1.1,0.1-1.8,0.5c-0.7,0.3-1.7,1-2.4,1.4c-1,0.2-1.9,0.4-2.9,0.6c-1.7,0.6-3.5,1.3-5.1,2.1
			c-0.6,0.3-1.3,1-2,1.2c-0.4,0.1-0.8,0.1-1.2,0.2c-0.6,0.3-0.9,0.8-1.8,0.9v0.5c-2,0.1-3.7,1.5-5,2.4c-1.5,1.1-3.4,1.4-4.5,2.9
			h-0.5c0-0.7,0.5-2,1.2-2.4c-0.2-0.5-0.1-0.2-0.6-0.2c0.2-0.9,0.5-2,0.5-2.7h0.3v-0.2c0.3-0.1,0.2,0.1,0.3,0.2
			c1.5,0.1,1.1,0,1.7-0.8c-0.3-1-1-1.7-1.8-2.3c0-1,0-2.1,0.2-2.4c0-0.5,0-0.9,0.2-1.2c1.6,0,1.1,0.2,2,0.6c1.3,0.2,2.6,0.3,3.9,0.5
			c-0.2,0.4-0.1,0.7-0.3,0.9c0.1,0.8,0.4,0.6,0.6,1.2c0.5,0.1,0.5,0.1,0.9-0.2c0.5-0.4,0.6-1.4,0.8-1.7c0.5-1.4,1.9-1,3.3-1.5
			c2.6-1,5.6-2,8-3.2c0.4-0.1,0.8-0.1,1.2-0.2c1-0.4,2.3-1.4,3.3-1.8c1.2-0.5,2.5-0.5,3.8-1.1c0.5-0.2,1-0.9,1.5-1.1h1.1
			c1.3-0.4,3-1.3,4.2-1.8h0.9c0.7-0.3,1.4-1.1,2.1-1.4c0.6-0.1,1.1-0.1,1.7-0.2c1.1-0.5,2.7-1.5,3.8-2h0.9c0.6-0.2,1.4-0.6,2.1-0.9
			c1.2-0.6,2.5-1.6,3.8-2.1c1-0.5,1.8-0.4,2.7-0.9c3.7-1.9,7.7-3.9,11.3-5.7c0.6-0.2,1.1-0.4,1.7-0.6c0.4-0.2,0.8-0.7,1.2-0.9
			c0.4-0.1,0.7-0.1,1.1-0.2c0-0.2,0.1-0.3,0.2-0.5c0.9-0.5,1.8-0.5,2.7-1.1c1.1-0.7,2.3-1.6,3.5-2.1c1.2-0.5,2.4-0.8,3.5-1.5
			c6.1-3.8,12.9-6.8,19.6-10c0.7-0.3,1.3-1.1,2-1.5c0.4-0.1,0.7-0.2,1.1-0.3l0.9-0.9c1-0.7,2.1-1.1,3.2-1.8l1.4-1.4
			c0.6-0.4,1.3-0.4,2-0.8c1-0.6,2.2-1.5,3.2-2.1c0.5-0.3,1-0.2,1.5-0.5c0.4-0.2,0.4-0.7,0.9-1.1c3-1.8,6-3.3,8.9-5.3
			c1.6-1.1,3.2-2.7,5-3.6c1.8-1,3.5-1.7,5.3-2.7c0.3-0.2,0.7-0.8,1.1-0.9c0.3-0.1,0.7,0.2,0.8,0.2c0.2-0.1,0-0.4,0.2-0.6
			c0.1-0.1,1.5-1.3,1.7-1.4c0.3-0.2,0.9-0.6,1.2-0.8c0.2-0.1,0.6,0.2,0.6,0.2v-0.6c0.6-0.8,2-1,2.9-1.5c0.7-0.4,1.4-1.2,2.1-1.7
			c0.5-0.3,0.8,0,1.4-0.3c0.5-0.2,1.1-0.8,1.7-1.1h0.8c0-0.2,0.1-0.3,0.2-0.5c1.5-1,3.5-1.4,5.1-2.1c1.2-0.5,2.5-1.6,3.8-2.1
			c1.6-0.7,3.5-1.1,5-1.7h0.9c1.3-0.5,3-1.5,3.9-2c0.4-0.1,0.8-0.1,1.2-0.2c0.9-0.3,2.2-0.9,3.2-1.2c1.1-0.4,2.1-0.2,3-0.8
			C516.2,268.5,515.5,269.4,515.9,270.6z M341.7,332.7c0.1-0.3,0-0.1,0.2-0.3c0.1,0.2,0.2,0.3,0.3,0.5H342
			C341.8,333.1,341.9,332.8,341.7,332.7z M357.5,339c0.9-0.1,0.7-0.3,1.1-0.8c-0.1-0.6-0.3-0.6-0.5-1.1c-0.5,0-1,0-1.2,0.2h-0.5
			c0.4-0.8,0.5-0.2,1.4-0.6c0.4-0.2,0.8-0.8,1.2-1.1c0.6-0.3,1.4-0.7,2-0.9h0.8c0.1-0.2,0.1-0.3,0.2-0.5c0.7-0.6,3.3-1.6,4.2-2
			c0.2,0.1,0.3,0.1,0.5,0.2c0.7-0.3,1.5-0.9,2.3-1.2c1.8-0.7,4.1-1.2,5.9-1.7h1.5c0.4-0.1,0.7-0.6,1.1-0.8c1.1-0.4,1.8-0.3,2.9-0.6
			c1.2-0.4,2.9-1,4.1-1.4c1.2-0.4,2.3,0,3.6-0.5c3.2-1.1,6.5-2.9,9.7-3.9h1.2c1.3-0.5,3-1.3,4.2-2c0.5-0.3,1.1,0,1.7-0.3l0.8-0.8
			c0.3-0.2,0.8,0,1.2-0.2c0.4-0.2,0.8-0.8,1.2-0.9c2.6-1,5.9-1.5,8.2-3c0.1-0.2,0.1-0.1,0.2-0.5c1.7-0.2,2.6-1.3,3.8-2
			c1.3-0.7,2.6-0.9,3.9-1.5c0.4-0.2,0.8-0.7,1.2-0.9c0.8-0.3,1.5-0.1,2.3-0.5c0.9-0.3,2-1.2,2.9-1.7c0.6-0.2,1.1-0.3,1.7-0.5
			c0.4-0.4,0.7-0.7,1.1-1.1c0.7-0.4,1.2-0.3,2-0.6c0.4-0.2,1-0.7,1.4-0.9c0.4-0.1,0.8-0.1,1.2-0.2c0.3-0.2,0.3-0.7,0.6-0.9
			c0.4-0.1,0.7-0.1,1.1-0.2c1.2-0.6,2.8-1.9,3.9-2.6c1.5-0.9,3.7-1.1,5.3-2c1.2-0.7,2.2-2.2,3.3-3c1.9-1.3,4.8-2.3,6.3-3.9
			c3-3,6.8-5.7,10.6-8c0.7-0.4,2.9-2.7,3.9-2.3c0.5-0.1,0.3,0.1,0.3-0.5c0.7-0.4,1.3-1.1,2-1.4c0.6-0.2,0.9,0,1.4-0.3
			c0.3-0.4,0.5-0.7,0.8-1.1c0.4-0.3,0.9,0,1.4-0.3c1-0.6,2.2-1.5,3.2-2.1c1.2-0.8,2.6-0.9,3.8-1.7l0.8-0.8c1-0.5,2.2-0.1,3.2-0.6
			c0.4-0.2,0.7-0.9,1.2-1.1c1.2-0.5,2.4-0.7,3.6-1.1c0.5-0.1,1-0.1,1.5-0.2c0.2-0.1,0.6-0.6,0.6-0.6h0.9c0.9-0.3,2-1.1,2.9-1.5h1.2
			c0.4-0.1,0.8-0.7,1.2-0.9c1.2-0.5,1.7-0.1,2.9-0.5c0.8-0.3,2-1,2.7-1.4c1.8-0.8,3.5,0,4.7-1.1c0,0.1,0.1,0.1,0.2,0.2
			c0,0.1,0.1,0.1,0.2,0.2h-0.2c-0.4,0.8-1.8,1-2.9,1.2c-0.6,0.1-0.9,0.5-1.4,0.6c-0.3-0.1-0.6-0.1-0.9-0.2c-0.5,0.1-1,0.7-1.5,0.9
			h-0.9c-0.3,0.1-0.5,0.7-0.8,0.9c-0.5,0.1-1,0.1-1.5,0.2c-0.7,0.2-1.1,0.8-1.8,1.1c-0.3-0.1-0.5-0.1-0.8-0.2
			c-0.5,0.1-1.4,0.8-1.8,0.9l-0.6-0.2c-0.8,0.3-1.8,1.2-2.6,1.5c-0.4,0.1-0.7,0.1-1.1,0.2l-0.8,0.8c-1.6,0.7-3,1.4-4.4,2.1
			c-0.2-0.1-0.3-0.1-0.5-0.2c-0.8,0.5-1.9,1.4-2.7,1.8c-0.7,0.4-1.5,0.2-2.1,0.6c-1.2,0.8-2.5,2.4-4.1,2.7v0.5
			c-1.9,0.2-3.2,2-4.5,2.9c-1.2,0.8-2.5,1.5-3.6,2.3c-0.3,0.2-0.7,0.1-1.1,0.3c0,0.2-0.1,0.3-0.2,0.5c-0.4,0.1-0.7,0.2-1.1,0.3
			c-0.1,0.2-0.2,0.3-0.3,0.5c-0.3,0.1-0.6,0.1-0.9,0.2c-0.2,0.2-0.3,0.4-0.5,0.6c-0.9,0.6-1.8,0.8-2.6,1.4c-0.3,0.4-0.6,0.7-0.9,1.1
			c-0.3,0.2-0.7,0.1-1.1,0.3c-0.6,0.3-1,1-1.5,1.4c-0.5,0.3-1,0.3-1.5,0.6c-1,0.6-1.9,1.7-2.9,2.3c-0.6,0.4-1.3,0.4-2,0.8
			c-0.7,0.4-1,1.4-1.7,1.8c-0.5,0.3-1.5,0.5-2.1,0.8c-0.4,0.2-0.8,0.7-1.2,0.9c-1,0.6-2.2,0.8-3.2,1.5c-1.3,0.9-2.5,2.2-3.8,3
			c-0.6,0.2-1.2,0.4-1.8,0.6c-1,0.6-2.1,1.7-3.2,2.3c-0.4,0.1-0.7,0.1-1.1,0.2c-1.5,0.7-3.2,1.7-4.5,2.6c-0.1,0.2-0.3-0.2-0.5-0.5
			c-1.4,1.7-3.6,1.9-5.6,3c-3,1.8-6.2,3.7-9.4,5.3c-0.6,0.3-1.2,0.2-1.8,0.5c-0.2,0.1-0.3,0.5-0.5,0.6h-0.8
			c-0.8,0.4-1.4,1.4-2.3,1.8h-0.8c-0.4,0.2-0.8,0.7-1.2,0.9c-0.8,0.4-1.6,0.3-2.4,0.8c-2.6,1.3-5.3,3.1-7.9,4.4
			c-0.7,0.4-1.4,0.3-2.1,0.6c-1.5,0.6-3.1,1.8-4.5,2.4c-0.5,0.1-0.9,0.2-1.4,0.3c-0.8,0.4-1.7,1.2-2.6,1.5c-0.5,0.1-0.9,0.2-1.4,0.3
			c-0.3,0.2-0.7,0.8-1.1,0.9c-0.7,0.3-1.3,0-2,0.3c-1.5,0.7-3.9,2.2-5.4,2.7h-1.1c-0.6,0.2-1.4,0.8-2.1,1.1h-1.1
			c-0.4,0.2-0.8,0.7-1.2,0.9c-0.6-0.2-1.7,0.6-2.4,0.9c-1.7,0.7-5,1.9-6.3,2.1c-0.9,0.2-1.5,0.8-2.1,1.2c-0.5,0.1-0.9,0.2-1.4,0.3
			c-0.7,0.3-1.6,0.9-2.3,1.2c-0.9,0.4-1.6,0.1-2.6,0.5c-1.3,0.4-2.7,1.4-3.9,1.8h-1.5c-1.7,0.4-4.6,1.1-6.2,0.5
			c-0.5-0.2-0.5-0.4-0.9-0.6c0.8-2.4,6.9-5.4,9.4-6.6c0.8-0.4,1.1-1.2,2.4-1.2v0.5C356.8,338.4,357.2,338.7,357.5,339z M515.2,265.3
			v0.3c-0.1,0.1-0.2,0.2-0.3,0.3c-0.6,0.1-1.2,0.2-1.8,0.3c0-0.2,0.1-0.3,0.2-0.5c0.5-0.2,0.9-0.2,1.2-0.6c0.3,0.1,0.3,0,0.5,0.2
			H515.2z M513.7,260.7c0.3,0.1,0.1,0,0.3,0.2c0.5,0.6,0.6,1.7,0.6,2.3c-1.3,0.2-3,0.8-4.1,1.2c-0.7,0.1-1.4,0.1-2.1,0.2
			c-0.9,0.3-1.9,0.6-2.9,1.1l-0.8,0.8l-0.6-0.2c-0.5,0.1-1.2,0.6-1.7,0.8c-0.4,0.1-0.8,0.1-1.2,0.2c-0.3,0.1-0.8,0.6-1.1,0.8
			c-0.3,0.1-0.8-0.2-0.9-0.2c-0.5,0.2-1.4,1-2,1.2c-2.1,0.8-4.1,0.9-6.2,1.7c-1.1,0.4-2.3,1.3-3.3,1.7h-1.5v0.3
			c-0.5,0.3-1.5,0.8-2,1.1h-0.9c-0.6,0.2-1.3,0.7-2,1.1c-0.8,0.5-1.6,1.4-2.7,1.5c-0.3,0.9-0.8,0.5-1.5,0.9
			c-1.2,0.7-2.6,1.7-3.8,2.4c-0.6,0.4-1.2,0.3-1.8,0.6c-0.8,0.5-1.6,1.5-2.4,2c-3.3,2.1-6.4,4.1-9.4,6.5c-0.1,0.2-0.1,0.1-0.2,0.5
			h-0.5c-0.6,1-1.8,1.2-2.7,2c-0.5,0.4-0.8,1.2-1.4,1.5c-0.5,0.2-0.8,0-1.2,0.3c-1,0.7-2,1.9-3,2.6c-0.3,0.1-0.5,0.1-0.8,0.2
			c-0.4,0.4-0.7,0.8-1.1,1.2c-0.4,0.3-0.8,0.2-1.2,0.5c-0.3,0.2-0.6,0.8-0.9,1.1c-0.8,0.6-2.6,0.7-3.8,1.4c-0.2,0.2-0.3,0.4-0.5,0.6
			c-0.4,0.2-0.8,0.1-1.2,0.3c-0.4,0.2-0.8,0.7-1.2,0.9c-1.3,0.7-2.4,0.9-3.8,1.5c-2.6,1.2-5.1,3.1-7.7,4.4c-0.6,0.3-1.3,0.1-1.8,0.5
			v0.3c-0.4,0.2-0.8,0.1-1.2,0.3c-0.1,0.2-0.2,0.3-0.3,0.5c-0.5,0.1-0.9,0.1-1.4,0.2c-0.2,0.2-0.3,0.4-0.5,0.6
			c-0.4,0.1-0.8,0.1-1.2,0.2c-1.1,0.4-2.1,1.4-3.2,1.8c-0.8,0.3-1.3,0.2-2,0.6c-0.9,0.5-1.8,1.4-2.7,1.8c-2,0.8-4.1,1.2-6,2.1
			c-0.3,0.1-0.4,0.6-0.6,0.8h-1.1c-2,0.8-4.2,2.3-6.3,3c-1.7,0.6-3.2,0.5-4.8,1.2c-0.4,0.2-0.7,0.8-1.1,0.9
			c-0.6,0.3-1.2,0.1-1.8,0.3c-1.3,0.6-3,1.2-4.2,1.8c-0.9,0.4-1.6,0.1-2.6,0.5c-0.3,0.1-1,0.5-1.2,0.6c-1,0.4-1.9,0.1-2.9,0.5
			c-0.4,0.2-1,0.6-1.4,0.8c-0.9,0.3-1.6,0-2.6,0.3c-1.8,0.5-4.2,1.3-6,2c-0.9,0.3-3,0.5-3.6,0.9c-2,1.3-4.8,1.6-6.9,2.9
			c-3.1,1.8-6.5,3.6-9.5,5.4c-1,0.6-3.1,1.3-3.9,2c-0.7,0.6-1.3,1.3-2.1,1.8c-1,0.7-2.6,1.2-2.9,2.6c-0.7-1-0.3-2.8-0.2-4.1
			c0.1-0.8-0.2-1.6-0.2-2.3c0.1-1-0.7-2.1-0.3-2.7c0.4-1.2,1.7-1.5,3.2-1.7c0.1-0.1,0.1-0.1,0.2-0.2c0-0.8,0.1-1-0.3-1.4
			c0.3-1.4,2.3-1.6,3.3-2.3c1.8-1.2,3.8-2.7,5.7-3.6c0.9-0.5,1.8-0.4,2.7-0.8c2.4-1,5.2-1.8,7.7-2.7c1-0.4,5.6-1.9,6.3-1.2
			c0.1-0.3,0.1-0.1,0-0.5c1.6-0.3,3.5-0.9,4.8-1.4h1.8c1.4-0.4,3.3-0.7,4.8-1.1c0.8-0.1,1.5-0.1,2.3-0.2c7.6-2.2,14.5-3.1,21.3-5.9
			c2.4-1,5.5-1.5,7.2-2.4c0.8-0.4,1.6-0.3,2.4-0.6c2.1-0.8,4.3-2.2,6.3-3c1.1-0.4,2.1-0.4,3-1.1c0.1-0.1,0.2-0.5,0.3-0.6h0.6
			c0.2-0.1,1-0.3,1.4-0.5c0.1-0.2,0.2-0.3,0.3-0.5c0.5-0.2,0.9,0,1.4-0.3c0.4-0.2,0.8-0.9,1.1-1.1c0.5-0.3,1-0.2,1.5-0.5
			c0.2-0.2,0.4-0.4,0.6-0.6c0.3-0.1,0.5-0.1,0.8-0.2c0-0.2,0.1-0.3,0.2-0.5c0.4-0.3,1-0.2,1.5-0.5c1.6-0.8,3.1-2.2,4.5-3.2
			c1-0.7,2.2-0.8,3.2-1.5c0.5-0.3,0.8-1,1.2-1.4c0.3-0.1,0.5-0.1,0.8-0.2c0.8-0.5,1.7-1.5,2.6-2l1.4-0.5c0.4-0.2,0.8-0.7,1.2-0.9
			c0.2,0.1,0.3,0.1,0.5,0.2c0.2-0.3,0.3-0.5,0.5-0.8c0.8-0.6,1.5-0.6,2.4-1.1c0.2-0.2,0.3-0.4,0.5-0.6c0.3-0.2,0.7-0.1,1.1-0.3
			c0.6-0.4,1.3-1.2,2-1.5c0.3-0.1,0.6-0.1,0.9-0.2c2.3-1.5,4.8-3.2,7.1-4.7c1.4-0.9,2.9-1.3,4.4-2.1c1.3-0.8,2.5-2.1,3.9-2.7
			c5-2.2,10.2-4.4,15.2-6.6c0.6-0.1,1.2-0.1,1.8-0.2c1-0.4,1.7-1,2.7-1.4c0.8-0.3,1.4-0.1,2.1-0.5c2.1-0.9,4.3-2.5,6.5-3.3
			c2.7-1,5.2-2,7.9-3C510.4,261.5,512.9,261.5,513.7,260.7z M510.3,251.9c0.2,1.2,1.1,2.2,1.5,3.2c0.3,0.7-0.2,1.1,0,1.5
			c0.2,0.4,0.8,1.2,1.1,1.5c-0.1,1.3-0.9,1.1-1.8,1.5c-1,0.4-2.2,0.6-3.3,1.1c-0.4,0.2-0.9,0.7-1.4,0.9c-1.1,0.4-1.9,0.3-2.9,0.8
			c-0.7,0.3-4.4,2.5-4.8,1.8c0,0.3-0.1,0.5-0.2,0.8c-0.4,0.1-0.7,0.1-1.1,0.2c-1,0.5-2.4,1.3-3.3,1.8c-1,0.5-2.3,0.3-3.3,0.8
			c-3.4,1.5-7.2,2.6-10.7,4.1c-1.5,0.6-2.9,1.8-4.4,2.4c-0.4,0.1-0.7,0.1-1.1,0.2c-0.4,0.2-1,0.7-1.4,0.9c-0.4,0.1-0.7,0.1-1.1,0.2
			c-0.6,0.3-1.1,1.1-1.7,1.5c-0.5,0.3-0.9,0.2-1.5,0.5c-0.3,0.1-0.5,0.6-0.8,0.8c-0.8,0.6-2,0.8-2.9,1.4c-0.2,0.2-0.3,0.4-0.5,0.6
			c-4.6,2.2-8.7,4.7-12.7,7.5c-0.9,0.6-1.9,0.7-2.9,1.2l-0.8,0.8c-0.4,0.1-0.7,0.2-1.1,0.3c-0.6,0.3-1,0.9-1.5,1.2
			c-0.3,0.2-0.7,0.1-1.1,0.3c-0.4,0.4-0.7,0.7-1.1,1.1c-0.4,0.2-0.8,0.1-1.1,0.3c-0.2,0.2-0.3,0.6-0.5,0.8c-0.5,0.4-1.1,0.4-1.7,0.8
			c-0.3,0.3-0.5,0.6-0.8,0.9c-7.1,4.2-14.5,8.2-22.3,11.6c-1.7,0.7-3.5,0.9-5.1,1.7c-0.9,0.4-2.3,1.1-3.2,1.5h-1.1
			c-0.5,0.1-1.1,0.6-1.5,0.8c-0.4,0.1-0.6-0.2-1.1,0c-0.8,0.4-1.7,1-2.6,1.4c-1.2,0.5-3,0.7-4.2,1.1H398c-4,1.3-8.9,2.2-13,3.3h-1.5
			c-2.9,0.8-5.9,1-8.9,1.8c-1.1,0.3-2,0.1-3,0.5c-2,0.7-4.5,1.2-6.6,2c-0.7,0.3-3.2,0.3-3.6,0.6c-0.1,0.2-0.1,0.3-0.2,0.5
			c-0.6,0.4-1.5,0.3-2.3,0.6c-1.7,0.7-3.9,1.3-5.6,2.1c-0.9,0.4-1.4,1.2-2.7,1.2c-0.3,1.2-1.8,1-2.6,1.7c-0.8,0.6-1.7,1.4-2.6,2
			c-0.5,0.3-1.1,0.3-1.5,0.6c-0.2,0.4-0.4,0.7-0.6,1.1c-0.7,0.4-0.9,0.1-1.5,0.9c-1.3-0.6-1.8-5.5-2.6-6.5v-0.2
			c0.8,0.2,1.1,0.2,2.1,0.2c0.2-0.2,0.3-0.3,0.6-0.5c-0.2-0.3-0.3-0.7-0.6-0.9c-0.3-0.2-0.5-0.2-0.6-0.2c-0.9,0-1.3,0.2-1.4,1.1
			h-0.3c-0.9-1.9-1.8-3.7-2.6-5.7c0.1-0.1,0.2-0.2,0.3-0.3c1.1,0.2,1.9,0.4,2.7-0.3c0.4-0.5,0.2-1,0.3-1.2c0.3-0.6,3.8-2.1,4.7-2.3
			c1-0.2,1.3,0.8,2.1,0.5c0.4-0.2,0.3,0,0.5-0.5c0.1-0.3,0.1-0.3-0.2-0.6c0.5-0.9,1.3-0.4,2.4-0.8c1.9-0.6,4.4-0.9,6.8-1.5
			c1.2-0.1,2.3-0.1,3.5-0.2c0.1-0.1,0.2-0.2,0.3-0.3c0.6,0.1,1.2,0.2,1.8,0.3c1.5-0.1,2.9-0.1,4.4-0.2c0.7,0.2,1.7,0.2,2.6,0
			c7.4-2,15.6-2.9,22-5.1c1.1-0.4,1.9-0.2,3-0.6c0.8-0.3,2-1,2.9-1.4h0.9l0.8-0.8c0.6-0.1,1.2-0.2,1.8-0.3c0.5-0.2,1.2-0.7,1.7-0.9
			c0.5-0.1,0.9-0.2,1.4-0.3c0.2-0.1,0.4-0.6,0.8-0.8h0.8c1.8-0.7,3.7-1.4,5.6-2.3c0.7-0.3,1.5-1.1,2.1-1.4c0.9-0.4,2-0.2,2.7-0.8
			c0.1-0.2,0.2-0.4,0.3-0.6c0.7-0.4,1.9-0.4,2.7-0.8c3.6-1.8,7.4-3.7,10.7-5.7c0.7-0.4,1.4-0.3,2.1-0.6c0.6-0.3,1.2-1.1,1.8-1.4
			c0.7-0.3,1.4-0.2,2.1-0.6c2.3-1.3,4.7-3.2,7.1-4.4c1.4-0.7,2.7-1.1,4.1-2c0.7-0.4,1.5-1.4,2.3-1.8c0.9-0.5,1.7-0.5,2.6-1.1
			c0.7-0.4,1.4-1.2,2.1-1.7c1-0.6,1.9-0.8,2.9-1.4c0.3-0.3,0.5-0.6,0.8-0.9h0.6c0.6-0.3,1.1-0.9,1.7-1.2c0.3-0.1,0.5-0.1,0.8-0.2
			c0.5-0.3,0.8-1,1.4-1.2c0.6-0.3,1-0.1,1.5-0.5c0.6-0.4,1.2-1.1,1.8-1.5c0.4-0.3,0.8-0.2,1.2-0.5c0.6-0.4,1.3-1.1,1.8-1.5
			c0.4-0.3,1.1-0.3,1.5-0.6c1.1-0.9,2.7-1.8,3.9-2.4c0.5-0.2,0.9-0.1,1.5-0.3c0.7-0.3,1.5-1.1,2.1-1.4c0.6-0.3,2.3-0.6,2.6-0.8v-0.5
			c0.3,0.6,2.5-0.8,2.7-0.9h1.1c0.5-0.2,0.7-0.6,1.1-0.8c0.7-0.4,1.2-0.1,2-0.5c0.2-0.2,0.4-0.4,0.6-0.6c0.6-0.3,1.2-0.1,1.8-0.5
			c1-0.5,2.5-1.2,3.6-1.7c0.4-0.1,0.8-0.1,1.2-0.2c0.2-0.1,0.2-0.4,0.3-0.5c1.1-0.8,2.4-1,3.6-1.7c0.4-0.2,1-0.9,1.4-1.1h0.8
			c0-0.2,0.1-0.3,0.2-0.5l0.6,0.2c0.6-0.2,1.5-0.7,2.1-0.9c0.3,0.1,0.6,0.1,0.9,0.2c0.2-0.1,0.5-0.7,1.1-0.9
			c1.1-0.4,1.9,0.3,2.9,0.3c0.6,0,1.6,0.1,2.1,0C509.3,252.2,509.5,251.9,510.3,251.9z M504.4,246c0.2-0.4,0.3-0.8,0.5-1.2
			c0.4,0.1,0.2,0.1,0.5,0.3c0.1,0.2,0.2,0.1,0,0.3c0.2,0.8,0.3,0,0.9,0.5c0.4,0.3,2.7,3.8,2.7,4.5h-0.5c-0.2-0.4-0.4-0.6-0.6-0.9
			c-1.7-0.1-3.8,0-5.4,0.8c-0.7,0.3-1.6,1.1-2.4,1.4h-0.9c-1,0.3-2.4,0.8-3.3,1.4c-0.5,0.3-1.2,1.1-1.7,1.4
			c-0.6,0.3-1.1,0.2-1.7,0.6c-0.2,0.2-0.3,0.4-0.5,0.6l-0.6-0.2c-0.5,0.1-1.2,0.4-1.8,0.6c-0.7,0.3-1.7,1.2-2.4,1.5h-0.9
			c-0.5,0.2-1.1,0.7-1.5,0.9c-0.6,0.3-1.1,0.1-1.7,0.3c-3.7,1.5-7.6,3-10.9,5c-1,0.4-1.9,0.7-2.9,1.1c-0.7,0.5-1.5,1.3-2.3,1.7
			c-1.1,0.6-2,0.7-2.9,1.4c-0.9,0.6-1.7,1.8-2.7,2.3h-0.8c-1.1,0.5-2.1,1.8-3.3,2.3h-0.8c-0.5,0.5-1,1-1.5,1.5
			c-0.7,0.4-1.4,0.5-2.1,0.9l-0.9,0.9l-1.4,0.5c0,0.2-0.1,0.3-0.2,0.5c-0.5,0.3-1,0.1-1.5,0.5c-2.5,1.7-5.3,3.4-7.9,5
			c-1,0.6-2,0.8-3,1.4c-1.4,0.8-2.9,2.1-4.4,2.9c-14.8,7.2-30.1,14.5-46.2,19.8h-1.1c-1.1,0.3-2.7,0.6-3.8,0.9h-1.5
			c-4.2,1.3-8.7,1.8-12.7,2.9c-1.3,0.4-5.3,0.1-6.5-0.2c-0.6-0.1-0.8,0.2-1.1,0.3c-1.3,0.4-3.8,0-4.7,0c-0.3,0-0.9,0.4-1.2,0.5
			c-1,0.1-2,0.2-3,0.3c-1.3,0.4-3.5,1-5,0.8c-1.3-0.2-1.4,0.7-2,1.1c-0.9,0.6-1.9,0.6-2.9,1.1c-1,0.4-2.4,1.6-3.5,2
			c-0.7,0.3-1.3-0.5-1.5-0.8c-0.7,0-1,0.1-1.4,0.3c0,1,0.1,0.7,0.3,1.5c-0.1,0.1-0.1,0.1-0.2,0.2c-0.3-0.1-0.3,0-0.5-0.2
			c-0.7-0.5,0.2-1.2-0.9-1.7c0.3-1.1,2.2-1.1,3-1.7c0.3-0.2,0.6-0.9,0.9-1.1h0.9c0.6-0.2,1.3-1,1.8-1.2c0.7-0.3,1.9-0.3,2.6-0.6
			c0.4-0.2,0.9-0.7,1.4-0.9c1.4-0.5,2.7-0.1,4.1-0.6c0.9-0.3,2-1,3-1.2c0.6,0.1,1.1,0.1,1.7,0.2c0.3-0.1,0.6-0.9,0.9-1.1
			c0.3,0.1,0.6,0.1,0.9,0.2c0.4-0.1,0.8-0.3,1.4-0.5v-0.2c0.6,0,2.1,0.2,2.7,0.3c0.6,0.1,1.6-0.3,2-0.2c0.3,0.1,0,0.6,0.6,0.5
			c5.8-1.4,11.8-2,17.5-3.8c1.6-0.5,3.4-0.7,4.8-1.1c0.6-0.1,1.2-0.1,1.8-0.2c3.7-1.3,8-2.1,11.5-3.5c0.5-0.1,1-0.1,1.5-0.2
			c4.9-1.7,9.5-3.8,14.3-5.6c0.5-0.2,1-0.8,1.5-1.1c0.8-0.3,2-0.7,3-1.2c3-1.7,5.8-3.8,8.8-5.6c0.6-0.3,1.1-1.2,1.7-1.5
			c0.4-0.1,0.7-0.1,1.1-0.2c1.3-0.8,2.7-2.2,4.1-2.9c1.2-0.7,2.5-1,3.6-1.8c0.1-0.1,0.7-0.9,0.8-0.9h0.8c0.2-0.1,1.4-0.8,1.7-1.1
			c0.2-0.1,0.2-0.5,0.3-0.6c0.6-0.5,1.5-0.5,2.1-0.9c0.2-0.1,0.1-0.5,0.3-0.6c0.7-0.6,1.6-0.8,2.4-1.4c0.3-0.2,1-1.2,1.2-1.4
			c0.4-0.1,0.7-0.1,1.1-0.2c0-0.2,0.1-0.3,0.2-0.5c0.9-0.8,2-1.1,3-1.8c1.1-0.8,2.2-2,3.5-2.7c0.4-0.2,0.4,0.2,0.8,0
			c0.4-0.2,0.8-0.9,1.2-1.2c1.8-1.2,3.7-1.6,5.7-2.6c2.9-1.3,6.3-3.2,9.1-4.4c0.7-0.3,1.2-0.1,2-0.5c0.7-0.3,1.5-1,2.3-1.4
			c0.5-0.1,1-0.2,1.5-0.3c2.4-1.2,5-2.6,7.4-3.8c1-0.5,1.8-0.5,2.7-0.9c0.3-0.1,0.6-0.6,0.9-0.8h1.1c1-0.3,2.1-1.2,3-1.5h1.5
			c0.2-0.1,0.4-0.6,0.8-0.8c1.7-0.6,3.6-1,5.1-1.5C501.7,246.5,503.3,247,504.4,246z M499.8,242.5c0,0,2.3,1.6,2.4,1.7
			c-0.3,1.3-2.3,0.9-3.3,1.2c-2.7,0.8-5.4,1.7-8,2.7c-2.8,1.1-5.7,2.8-8.3,3.9h-0.9c-0.7,0.3-1.4,1.2-2.1,1.5
			c-0.7,0.3-1.1,0.2-1.8,0.5c-1.4,0.6-3.1,1.6-4.5,2.3c-0.8,0.4-1.5,0.3-2.4,0.6c0.3,0.2-0.3,0.7-0.5,0.8c-0.6,0.3-1.1,0-1.7,0.3
			c-2.3,1.1-4.7,2-7.1,3.2c-7,3.4-12.6,8-18.7,12.1c-4.5,3-9.4,5.5-13.7,8.6c-0.7,0.5-1.7,0.5-2.4,1.1c-3.3,2.6-7.1,4.9-10.9,7.1
			c-0.4,0.1-0.7,0.1-1.1,0.2c-1.5,1-3.6,2.1-5.4,2.9c-0.8,0.3-1.6,0.2-2.3,0.6c-2.7,1.8-7,2.4-10.7,3.8c-8.3,3.1-18.9,4.4-27.5,6.6
			c-1,0.3-7.2,1-7.5,0.9c-1.2-0.4-4-0.4-5.3-0.2c-1.9,0.4-4.1,1.4-5.9,2c-0.7,0.1-1.4,0.1-2.1,0.2c-1.5,0.4-3.2,0.7-4.7,1.4
			c-1.5,0.6-3.8,1.9-5.4,2.1c0.1-0.3,0.1-0.5,0.2-0.8c-0.3-0.2-0.5-0.4-0.8-0.6c-0.8,0.1-0.7,0.3-1.2,0.6c0,0.9,0.3,1,0.8,1.5
			c-0.9,0.4-2.1,1.2-2.7,2c-1.3-0.5-1.3-2.5-2.1-3.5c0.3-0.4,0.5-0.2,0.8-0.3c0.5-0.2,0.5-0.6,0.9-0.9v-0.5c-1.4-0.3-1.3-0.4-2.6,0
			c-0.6-0.7-1.6-2-2-2.9c-0.1-0.4,0-0.7-0.2-0.9V304c1,0.5,1.4,0.1,2.1-0.5c-0.1-0.6-0.3-0.6-0.5-1.1c-0.4,0.1-0.7,0.1-1.1,0.2
			c-0.2,0.5-0.2,0.4-0.2,1.1c-0.4-0.2-0.8-0.3-1.2-0.5c-0.6-0.4-0.7-1.3-1.4-1.7v-0.3c1.9-1.1,4.3-2.1,6.3-2.9
			c0.7-0.3,1.3-0.1,1.7-0.2c1-0.2,2.5-0.7,3.3-1.1c0.3,0.1,0.5,0.1,0.8,0.2c0.2,0,0.8-0.4,1.1-0.5c0.3,0.1,0.5,0.1,0.8,0.2
			c0.2-0.1,0.3-0.6,0.5-0.6c0.5-0.2,1.1,0.5,1.8,0.3c1.3-0.4,3.5-0.9,4.8-1.4c1-0.4,2,0,3-0.3c0.3-0.1,0.6-0.5,0.8-0.6
			c0.9-0.4,1.3,0.1,2.4-0.3c0.5-0.2,1.7-0.8,2.3-0.9c0.4-0.1,0.9,0.2,1.5,0c2.7-0.8,6.2-1.5,9.1-2.4h1.5c0.9-0.3,1.9-0.5,3-0.6
			c0.4,0,1,0.3,1.7,0.2c1.6-0.4,3.4-0.7,5.1-1.2c0.6-0.2,1.3,0.1,1.5,0l0.6-0.6c0.7-0.3,1,0.2,1.5,0c0.4-0.1,1.2-0.4,1.8-0.6
			c3-1.1,6.4-2.3,9.4-3.5c1.5-0.6,2.8-0.6,4.2-1.2c0.9-0.3,1.9-1.1,2.7-1.5c0.4-0.1,0.7-0.1,1.1-0.2c0.6-0.2,1.2-0.8,1.8-1.1
			c0.4-0.1,0.7-0.1,1.1-0.2c1.3-0.5,2.7-1.5,3.9-2.1c0.9-0.5,1.8-0.5,2.7-0.9c1.9-0.9,4.1-2.3,5.9-3.3c0.5-0.1,0.9-0.2,1.4-0.3
			c1.8-0.8,3.8-2.2,5.6-3c0.8-0.4,1.7-0.3,2.6-0.8c0.9-0.4,1.9-1.4,2.7-1.8h0.9c0.6-0.3,1.4-0.6,2.1-0.9c0.3-0.1,0.6-0.6,0.9-0.8
			c3-1.5,6-2.5,8.8-4.2c0.5-0.1,0.9-0.2,1.4-0.3c1.1-0.5,2.5-1.4,3.6-1.8c0.5-0.1,0.9-0.1,1.4-0.2c2.2-0.9,4.6-2,6.6-3
			c1-0.5,2-0.4,3-0.8c0.5-0.2,1.2-0.7,1.7-0.9c1-0.4,1.9-0.4,2.9-0.9c0.3-0.1,0.7-0.7,1.1-0.8c0.3,0.1,0.5,0.1,0.8,0.2
			c1.4-0.4,3.2-1.5,4.7-2.1c0.6-0.2,1.6-0.3,2.1-0.6c0-0.2,0.1-0.3,0.2-0.5c0.5-0.4,1.3-0.2,1.8-0.5c1.4-0.6,3-1.7,4.4-2.3
			c1-0.4,2.2-0.3,3.2-0.8c2.1-1,4.5-2.4,6.6-3.3c0.4-0.1,0.7-0.1,1.1-0.2c0.4-0.2,0.9-0.6,1.1-0.6c0.9-0.1,1.2-0.6,1.8-0.9h1.2
			c0.4-0.1,1.2-0.7,1.5-0.8c0.4-0.1,1.2,0.3,1.8,0.2c0.3-0.1,0.7-0.6,1.2-0.5l0.5,0.3c1.1,0.2,1.7-0.4,2.4,0.2
			C499.7,241.9,499.4,242.1,499.8,242.5z M329.6,303.8v-0.2h0.3v0.2H329.6z M492.8,237.6c0.7-0.2,2-0.8,3.2-0.5c1.1,0.4,2.1,1.3,3,2
			v0.3c-6.9,0-10.8,1.9-15.9,4.4c-1.6,0.8-3.3,1.3-4.8,2.1c-0.7,0.4-1.8,0.2-2.6,0.6c-1.6,0.8-3.3,2-5,2.6h-1.1
			c-1.5,0.6-3,1.7-4.4,2.3c-0.9,0.4-1.9,0.1-2.9,0.6c-0.4,0.2-1,0.9-1.5,1.1c-2,0.8-4.3,1-6.2,2c-0.3,0.1-0.6,0.6-0.9,0.8
			c-1,0.4-1.9,0.4-2.9,0.9c-0.2,0.2-0.4,0.4-0.6,0.6c-1.3,0.6-2.5,0.5-3.8,1.1c-1,0.4-2,1.3-3,1.7c-1.2,0.4-2,0.4-3.2,0.9
			c-1.4,0.6-3,1.8-4.4,2.4c-0.5,0.2-0.8,0-1.2,0.3c-0.2,0.2-0.6,0.7-0.9,0.9c-1.2,0.7-3.1,0.9-4.4,1.5c-1.4,0.6-3.1,1.9-4.1,2.4
			c-0.5,0.1-0.9,0.1-1.4,0.2c-0.4,0.1-0.7,0.6-1.1,0.8c-0.4,0.1-0.7,0.1-1.1,0.2c-0.5,0.3-1.1,0.9-1.7,1.2c-1.1,0.5-2,0.7-3.2,1.2
			c-0.7,0.3-1.5,1-2.1,1.4c-0.6,0.4-1.5,0.4-2.1,0.8c-1.5,0.9-3.4,2-5,2.7c-0.9,0.4-1.7,0.4-2.6,0.8c-0.8,0.4-1.8,1.1-2.6,1.5
			c-0.7,0.3-1.3,0.1-2,0.5c-1.1,0.5-2.5,1.5-3.6,2c-0.9,0.2-1.7,0.4-2.6,0.6c-2.8,1.2-6.2,2.1-8.9,3.3c-1.1,0.5-2.3,0.3-3.5,0.8
			c-0.9,0.4-2.2,0.9-3.2,1.2c-1,0.3-1.7,0-2.6,0.3c-0.5,0.2-1.6,0.8-2.1,0.9c-1,0.3-2.1-0.5-3.5-0.2c-2,0.5-4,0.3-5.9,0.9
			c-4.4,1.4-9,2-13.1,3.5H351c-1.7,0.5-4.1,0.8-5.6,1.5c-0.2,0.1-0.4-0.2-0.6-0.2c-0.9,0.1-1.9,0.6-2.6,0.8c-0.9,0.3-1.5-0.3-2.6,0
			c-0.7,0.2-1.6,0.5-2.3,0.6c-0.6,0.1-0.8-0.2-1.5,0c-1.9,0.7-3.7,1.9-6.2,1.4c-0.2,0.4-0.6,1.5-1.1,1.7c-0.7,0.3-2.2,0.1-2.7,1.1
			c-1.3-0.2-1.5-1.1-2.4-1.7c0.5-1.3,1.9-1.3,3-2c0.4-0.2,0.7-0.9,1.1-1.2c1.2-0.8,2.6-1.1,3.9-1.8c0.7-0.4,1.4-1.2,2.1-1.5
			c0.4-0.1,0.8-0.1,1.2-0.2c1.3-0.5,3-1.3,4.4-1.8h0.9c4.5-1.8,9.9-3.1,14.9-4.7c0.5,0.1,0.9,0.1,1.4,0.2c1.9-0.1,3.8-0.2,5.7-0.3
			c5.5-1.6,10.7-3.8,16.2-5.6c1.4-0.1,2.8-0.2,4.2-0.3c1.1-0.3,2.4-0.6,3.3-0.8c0.8-0.1,1.9-0.9,2.6-1.2c0.4-0.1,0.8-0.1,1.2-0.2
			c0.4-0.2,0.9-0.6,1.2-0.8c1.2-0.5,2.3-0.5,3.5-1.1c1.1-0.5,2.1-1.5,3.8-1.5v-0.5c2.9-0.1,5.4-1.8,7.5-2.9c1-0.5,1.8-0.5,2.7-0.9
			c1.2-0.5,2.4-1.6,3.6-2.1c3.4-1.5,6.7-3,10.4-4.5c0.9-0.3,1.7-1.2,2.6-1.5c0.9-0.4,1.8-0.3,2.7-0.8c0.7-0.3,1.6-1,2.3-1.4
			c1.1-0.6,2.2-0.7,3.3-1.2c0.8-0.4,1.8-1.2,2.7-1.5c1.3-0.5,2.5-0.5,3.8-1.1c1-0.4,2.3-1.2,3.3-1.7c0.4,0.1,2.4-0.5,3.2-0.8
			c1-0.4,2.3-1,3.3-1.4c0.9-0.2,1.7-0.4,2.6-0.6c0.3-0.1,1.1-0.8,1.5-0.8c2.1,0,5.6-1.5,7.7-2.3c1.6-0.5,3-0.4,4.5-1.1
			c0.2-0.1,0.6-0.5,0.8-0.6c0.5-0.1,0.9-0.1,1.4-0.2c1-0.3,2.1-0.9,3-1.2c0.4-0.1,0.8-0.1,1.2-0.2c1.6-0.6,3.4-1.5,5-2.1
			c1-0.4,1.7-0.2,2.7-0.6c1-0.4,2.3-1.2,3.3-1.5c0.3,0.1,0.6,0.1,0.9,0.2c0.1,0,0.6-0.4,0.8-0.5c0.5-0.1,0.9-0.1,1.4-0.2
			C488.2,238.8,490.6,238.2,492.8,237.6z M312.4,286.8c-0.8,0-1.2,0-1.5,0.5c-1.7-0.2-2.1-1.4-3.5-1.8c0.2-1.2,3.9-2.4,5.3-2.9
			c1.5-0.5,3.4-1,4.8-1.5c1.5,0.3,4.3-0.3,5.7-0.6c0.3-0.1,1.5,0.1,1.7,0.2l4.1-0.5c0.4-0.1,1.5-0.4,2.3-0.6
			c0.9-0.2,1.6,0.6,2.3,0.5c0.8-0.2,0.9-1.3,1.7-1.5c1-0.3,2.4-0.2,3.9-0.8c1.6-0.5,3.5-1.2,4.8-1.7c0.8-0.3,1.9,0,2.3-0.2
			c3.3-1.1,7.5-1.2,11-2.3c0.8-0.2,1.5-0.8,2.1-1.1c0.7-0.2,0.9,0.1,1.5,0c0.5-0.1,1.8-0.4,2.4-0.6c3.8-1.3,7.4-2.3,11.2-4.1
			c0.8-0.4,1.6,0,2.3-0.3c2.2-1,4.9-2,6.8-2.9c0.5-0.3,0.7,0.2,1.2,0c0.2-0.2,0.3-0.4,0.5-0.6h1.1c0.9-0.3,2.1-1.2,3-1.5
			c0.4-0.1,0.8,0.2,1.4,0c1.1-0.5,2.7-1.1,3.9-1.5c0.5-0.2,1.2,0.1,1.4,0c0.5-0.2,1.2-0.8,1.7-1.1c0.4-0.2,3.9-0.8,3.9-0.8
			c0.1-0.2,0.1-0.3,0.2-0.6c2.9,0.1,6.6-1.5,9.5-2.4c1.5-0.5,2.7-0.3,4.1-0.9c1.5-0.6,3.4-1.4,5-2c0.5-0.1,0.9-0.1,1.4-0.2
			c0.6-0.2,1.2-0.9,1.7-1.1c2.4-0.9,5.4-0.9,7.7-1.8c0.2-0.2,0.4-0.4,0.6-0.6c0.5-0.2,1.1,0.3,1.8,0c0.8-0.4,2.5-0.8,3.5-1.4
			c0.3,0.1,1.7,0,1.8,0c0.9-0.3,2.7-0.9,3.6-1.2h1.1c0.2-0.1,0.6-0.5,0.8-0.6c0.8-0.1,1.6-0.1,2.4-0.2c0.2-0.2,0.3-0.4,0.5-0.6
			c0.3-0.1,0.9,0.3,1.4,0.2c1.5-0.5,3.7-1.3,5.3-1.8h1.1c0.4-0.1,0.8-0.6,1.2-0.8c0.4,0.1,0.8,0.1,1.2,0.2c2.5-0.7,4.9-1.3,7.4-2.1
			c0.4,0.1,0.7,0.1,1.1,0.2c0.8-0.2,1.5-0.2,2.6-0.5c0.1,0,0.9-0.1,1.4-0.3v-0.3c0.4-0.1,0.3,0.4,0.9,0.3c0.7-0.2,1.9-0.3,2.7-0.6
			c0.3-0.1,0.8-0.6,1.1-0.8c0.9-0.4,2.2-0.1,3.2-0.5c0.6-0.2,1.6-0.7,2.1-0.9h1.7c1.2-0.3,2.6-0.6,3.6-0.9c0.7,0.2,2,0,2.4-0.2h0.5
			v0.2c-0.4,0.2-1,0.5-1.4,0.6c-0.6,0.1-1.2,0.1-1.8,0.2c-0.3,0.1-0.7,0.6-1.1,0.8c-0.8,0.3-1.3,0-2,0.3c-0.2,0.1-0.7,0.7-0.9,0.8
			c-0.9,0.4-1.6,0-2.4,0.3c-1.4,0.5-3.1,1.4-4.4,2c-0.4,0.2-0.8-0.1-0.9,0c-0.2,0.2-0.4,0.4-0.6,0.6c-0.4,0.1-0.8,0.1-1.2,0.2
			c-0.6,0.2-1.3,0.7-1.8,0.9c-0.5,0.1-0.9,0.1-1.4,0.2c-0.6,0.2-1.4,0.7-2,0.9c-0.9,0.3-1.7,0.2-2.6,0.5c-2.7,0.9-5.8,2.1-8.5,3
			c-0.6,0.1-1.2,0.1-1.8,0.2c-0.3,0.1-0.5,0.5-0.8,0.6c-0.4,0.1-0.8,0.1-1.2,0.2c-2.1,0.8-4.8,1.6-6.8,2.6c-1.3,0.7-2.9,0.5-4.2,1.2
			v0.3h-0.9c-0.4,0.2-0.9,0.7-1.4,0.9c-0.6,0.1-1.2,0.2-1.8,0.3c-1.7,0.6-3.5,1.6-5.1,2.4c-0.8,0.4-1.6,0.2-2.4,0.6
			c-0.3,0.1-0.6,0.6-0.9,0.8c-1.2,0.5-2.4,0.6-3.6,1.2c-4.7,2.5-9.6,4.7-14,7.1H409c-0.8,0.3-1.6,1-2.4,1.4
			c-1.1,0.5-2.1,0.5-3.2,1.1c-4.9,2.3-10.6,4.2-15.6,6.5c-2.4,1.1-5.3,1-8,1.8c-0.7,0.1-1.4,0.1-2.1,0.2c-4.5,1.3-9,2.9-13.1,4.7
			c-1.1,0.5-2.7,0.4-3.8,0.8c-2.1-0.5-4.8,0.5-6.6,0.9c-1.1-0.1-2.1-0.1-3.2-0.2l-0.8,0.8h-1.1c-2.1,0.8-4.7,1.9-6.8,2.6h-1.1
			l-0.5,0.5c-0.4-0.1-0.7-0.1-1.1-0.2c-1.5,0.4-3.1,1.3-4.4,1.8c-1,0.4-1.9,0.3-2.9,0.8c-0.6,0.3-1.2,0.9-1.7,1.2
			c-1.1,0.7-2.4,0.7-3.6,1.4c-0.4,0.2-0.7,0.6-1.4,0.8v0.5h-0.6c-0.9,1-2.2,1.7-3.3,2.4c-0.7,0.5-2-1.4-2.4-1.8
			c-0.2-0.2-0.6-0.2-0.9-0.5c-1-0.8-1.7-2-2.9-2.7c-0.5-0.3-1-0.3-1.5-0.6c-0.7-0.5-1.1-1.2-2-1.7c0-0.6,0-0.7,0.5-0.9
			C312.7,287.3,312.6,287.2,312.4,286.8z M318.7,278.9v-0.2h0.9v0.2l-0.2,0.2C319.1,279.1,319,279,318.7,278.9z M320.4,278.8
			c0.3-0.5,1.3-0.8,1.8-1.1c1.1-0.6,5-1.9,6.9-1.5c1.4,0.3,5.9-1.5,7.4-2h1.1c0.4-0.1,1.2-0.5,1.7-0.6c0.3,0.1,0.6,0.1,0.9,0.2
			c3.5-0.8,7-1.2,10.3-1.2c-0.6,0.5-2.1,0.7-2.9,0.9h-2.3c-0.6,0.2-1.5,0.7-2.1,0.9c-0.5,0.1-1,0.1-1.5,0.2c-1,0.4-2.3,0.9-3.3,1.2
			c-1.2,0.3-2.2,0.1-3.3,0.6c-0.7,0.3-1.5,0.9-2.3,1.1c-0.7,0.2-1.5-0.1-2,0c-0.8,0.1-2,0.7-2.6,0.9c-1,0.1-2,0.1-3,0.2
			c-0.1-0.1-0.1-0.5-0.6-0.3l-0.5,0.5C322.8,279.1,321.4,278.7,320.4,278.8z M351.2,272.6c0.3-0.5,5-1.2,5.9-1.2
			C356.4,271.9,352.6,272.6,351.2,272.6z M357.4,271.4c0.4-0.4,1.3-0.4,1.7-0.8h0.6v0.2C358.9,271,358.3,271.3,357.4,271.4z
			 M361.8,270.2c0.1-0.1,0.2-0.2,0.3-0.3h0.3v0.2C362.1,270.1,362.1,270.1,361.8,270.2z M362.5,269.9c0.3-0.2,0.6-0.3,1.2-0.3
			C363.4,269.8,363,269.9,362.5,269.9z M365.4,269.1c0.1-0.1,0.1-0.2,0.2-0.3h0.3C365.6,269.2,365.9,269,365.4,269.1z M367.3,268.7
			c0.1-0.1,0.1-0.2,0.2-0.3h0.3v0.2C367.7,268.6,367.5,268.6,367.3,268.7z M417.3,252.5c0.1-0.1,0.5-0.2,0.6-0.3h0.2v0.3H417.3z
			 M419.6,251.9c0.2-0.2,0.4-0.2,0.6-0.5h0.6C420.5,251.7,420.1,251.8,419.6,251.9z M482.9,230.6c1.3-0.2,6.8,2.6,7.9,3.2v0.3
			c-0.4,0.2-0.8,0.6-1.1,0.8c-0.3,0.1-1.8,0-2.1,0c-0.3,0-1.4,0.5-1.7,0.6c-0.8,0.3-1.2-0.3-2.1,0c-1.5,0.6-3.9,0.9-5.6,1.4
			c-0.6,0.1-1.2,0.1-1.8,0.2c-1.4,0.4-2.7,1-3.8,1.4c-1.1,0.4-1.9,0-3,0.3c-1.5,0.4-3.7,0.9-5,1.4h-1.5c-0.6,0.2-1.3,0.2-2.1,0.5
			c-0.6,0.2-1.3,0.7-1.8,0.9h-1.5c-1.4,0.4-3,0.6-4.5,1.1c-3.6,1.2-8,2.5-11.6,3.5c-0.6,0.1-1.2,0.1-1.8,0.2c-1,0.3-2.2,0.8-3.2,1.1
			c-0.6,0.1-1.1,0.1-1.7,0.2c-1.9,0.5-5.8,1.9-7.4,1.8c1.1-1.2,3.2-1.3,4.7-2.1c1.3-0.7,2.9-1.9,4.4-2.4h0.9
			c0.6-0.2,1.2-0.8,1.8-1.1c0.5-0.1,1-0.2,1.5-0.3c1.6-0.7,3.6-1.6,5.3-2.3c0.7-0.1,1.4-0.2,2.1-0.3c2.8-1.1,6.1-1.9,8.9-3
			c1-0.4,2.1-0.2,3.2-0.6c0.6-0.2,1.5-0.7,2.1-0.9c1.1-0.3,1.8-0.1,2.7-0.5c0.1,0,0.3-0.4,0.3-0.5c0.5-0.3,1.8,0,2.7-0.3
			c0.4-0.1,0.9-0.6,1.2-0.8c1.1-0.5,2.1-0.1,3.3-0.5c2.3-0.7,4.7-1,6.8-1.7C480.4,231.7,481.6,230.8,482.9,230.6z M478.9,229.6h0.2
			c-0.3,0.5-1.3,0.5-2,0.8c-1.9,0.8-3.9,0.8-6,1.5c-5.4,1.8-11.3,3.2-16.6,5c-2.1,0.7-4.1,1.1-6,1.8c-0.4,0.1-0.8,0.1-1.2,0.2
			c-1.9,0.9-5.5,1.8-7.9,3c-0.9,0.5-1.9,0.4-2.9,0.9c-0.1,0.2-0.2,0.3-0.3,0.5c-0.6,0.1-1.1,0.2-1.7,0.3c-0.2,0.3-0.3,0.5-0.5,0.8
			c-0.8,0.5-1.7,0.4-2.6,0.8c-0.5,0.2-0.9,0.7-1.4,0.9h-0.8c-1.3,0.8-2.9,1.7-4.4,2.3c-0.5,0.1-0.9,0.1-1.4,0.2
			c-0.6,0.2-1.4,0.9-2,1.1c-0.3,0.1-0.5-0.2-0.6-0.2c-2.4,1-5.4,2.1-8,3c-1.2,0.4-2,0.3-3.2,0.8c-0.7,0.3-1.6,0.9-2.3,1.2
			c-1.4,0.7-2.8,0.8-4.2,1.4c-0.9,0.4-1.9,1-2.7,1.4c-0.5,0.1-0.9,0.1-1.4,0.2l-0.5,0.5c-0.3,0.1-0.9-0.2-0.9-0.2
			c-1.7,1-3.8,1.2-5.9,2c-0.5,0.2-2.4,1.2-2.7,1.2c-0.3,0-0.4-0.4-0.8-0.3c-0.1,0.2-0.2,0.3-0.3,0.5c-0.6,0.3-1,0.1-1.7,0.3
			c-0.2,0.1-0.7,0.5-0.9,0.6h-1.2c-2.2,1-5.2,1.7-7.4,2.7c-0.3,0.1-1.6-0.1-2.3,0.2c-4.5,1.4-9.9,3.1-14.8,4.2
			c-2.5,0.6-5.8,1.1-8.3,2h-1.5c-0.9,0.2-2.3,0.4-3.2,0.6H345c-1.3,0.3-2.4,0.3-3.5,0.6h-2.1c-2.4,0.6-5.1,1.5-7.4,2.3
			c-1.6,0.2-3.2,0.3-4.8,0.5c-0.2,0-0.7-0.2-1.1-0.2c-0.2,0-0.6,0.4-0.8,0.5c-1.1,0.4-2.2,0.1-2.9,0v0.6c-0.8,0.2-0.5,0.4-0.8,0.6
			c-0.9,0.6-1.9,0.3-3,0.6c-0.9,0.3-2,1-2.9,1.4c-0.4,0.1-0.8,0.1-1.2,0.2c-0.3,0.1-0.8,0.6-1.1,0.8h-0.9c-0.2,0.1-0.3,0.6-0.5,0.8
			c-0.6,0.2-1.1,0.3-1.7,0.5c-0.3,0.3-0.5,0.6-0.8,0.9c-0.9,0.6-2,0.7-2.9,1.4c-0.1,0.3-0.1,0.1,0,0.5c-0.5,0.1-1.1,0.2-1.7,0.5
			c-0.1,0.1-0.4,0.6-0.5,0.6c-0.6,0.3-4.4-0.9-4.7-1.1H300c0.3-0.3,1-0.7,1.5-0.3c1.9-0.1,1.1-0.7,2-1.5c0.6-0.6,1.5-0.6,2.3-1.1
			c0.3-0.2,0.6-0.7,0.9-0.9c0.7-0.6,1.6-0.4,2.4-0.9c0.9-0.5,1.8-1.4,2.7-1.8c1.6-0.7,3.3-1.2,4.8-1.8c1.3-0.6,3-0.6,4.1-1.4
			c1,0,1.2,0.4,1.7,0.9c0.7,0,0.9-0.2,1.7-0.3l0.2-0.2c0-0.4,0-0.8-0.2-1.1c0.4-0.7,1.2-0.3,2.1-0.6c1.6-0.5,3.7-0.9,5.4-1.4
			c0.6-0.1,1.2-0.1,1.8-0.2c2.2-0.6,4.8-1.4,7.1-2.1c0.8-0.3,1.9,0.2,2.4,0c0.4-0.2,1.1-0.8,1.7-0.9c0.5,0.1,0.9,0.1,1.4,0.2
			c3.2-0.9,6.8-1.1,10-1.8c0.8-0.2,2.1-0.6,3.2-0.9c0.8-0.2,1.7,0.2,2.1,0c0.1-0.2,0.2-0.3,0.3-0.5c0.8-0.1,1.5-0.1,2.3-0.2
			c1.4-0.4,2.5-0.4,3.8-0.8c1,0.1,1.9,0.1,2.9,0.2c1.9-0.5,4.8-1.1,6.9-1.7h1.1c15-4.5,30-10.2,44.2-16.3c0.7-0.1,1.3-0.2,2-0.3
			c0.4-0.2,1.2-0.9,1.7-1.1h1.1c0.3-0.1,0.6-0.6,0.9-0.8c0.5-0.1,0.9-0.1,1.4-0.2c0.2-0.1,0.6-0.5,0.8-0.6c0.7-0.3,1.1,0,1.8-0.3
			c0.7-0.3,2-0.6,2.7-1.1c0-0.2,0.1-0.3,0.2-0.5c0.3-0.2,0.8,0.2,0.9,0.2l0.5-0.5h0.8c0.2-0.2,0.3-0.4,0.5-0.6
			c0.2,0.1,0.3,0.1,0.5,0.2c0.8-0.2,1.6-0.7,2.3-0.9h1.1c1.3-0.4,2.9-1.3,3.8-1.7c0.4-0.1,0.8-0.1,1.2-0.2c2.1-1,4.8-1.6,6.9-2.7
			c0.6-0.3,1.3,0,1.8-0.3c2.8-1.4,6.4-2.5,9.5-3.5h1.4c0.4-0.1,0.9-0.6,1.4-0.8c0.6-0.2,3.6-0.5,3.6-0.5c0.8,0,1-0.4,1.5-0.6
			C473.6,228.9,478.5,229.2,478.9,229.6z M293.8,277.1c0.4,0,1-0.2,1.2-0.2c0.5,0.2,1.6,1.9,3,0.9c0.6,0,0.8,0.1,1.1-0.3
			c0.1-0.2,0.1,0,0.2-0.3c-0.9-0.4-1.8-0.6-2.6-1.2h-0.2c0.3-0.6,1.2-0.4,1.8-0.8V275c1.3-0.8,2.7-0.8,4.2-1.4
			c1.2-0.5,2.7-1.4,3.9-2c0.5-0.1,0.9-0.1,1.4-0.2c1-0.4,2-1.2,3-1.7c0.5-0.1,1-0.2,1.5-0.3c0.2-0.2,0.3-0.4,0.5-0.6h1.1
			c1.3-0.5,3.2-1.1,4.5-1.5c0.8-0.1,1.5-0.2,2.3-0.3c1.2-0.4,1.8-0.7,2.9-1.1c0.7-0.1,1.4-0.1,2.1-0.2c0.3-0.1,1.1-0.5,1.4-0.5
			c0.6,0,3.5,0,4.4-0.3c4.1-1.3,9.2-1.8,13.4-3h1.8c2.2-0.6,3.6-0.5,5.6-1.1c1.9-0.5,3.4-0.2,5.1-0.8c14.5-4.3,29.4-7.4,43.8-12.4
			l2.7-0.5c4.5-1.7,9.8-3.2,13.6-5c0.7-0.3,1.3,0,2-0.3c2-0.8,4.6-1.5,6.5-2.6c1.6-0.9,4.1-1.3,5.4-1.8c0.7-0.3,1.3-0.7,1.7-0.2
			c0.3-0.1,0.1,0,0.3-0.2h0.2c0-0.1-0.1-0.2-0.2-0.3c3.1-1.4,6.9-1.8,10.6-3.2c2.5-1,6.2-2.3,9.1-3.5c0.9-0.2,1.7-0.3,2.6-0.5
			c1.1-0.4,2.2-1,3.2-1.4c0.7,0,1.4-0.1,2.1-0.2c0.3-0.1,1-0.5,1.4-0.6c0.3-0.1,0.7,0.2,0.8,0.2c0.4-0.1,0.4-0.4,0.6-0.5
			c1.3-0.1,1.7-0.5,2.6-0.8c1.9,0.5,4.4-0.4,5.9,0.6h0.2c-1.4,1.1-5.5,0.8-7.4,1.5c-4.8,1.7-10,3.5-14.6,5.1
			c-1.5,0.5-2.8,0.8-4.2,1.4c-0.4,0.1-0.7,0.1-1.1,0.2c-0.2,0.2-0.4,0.4-0.6,0.6c-1,0.5-2.1,0.4-3.2,0.8
			c-20.6,7.7-39.6,15.2-60.8,22.5c-2.7,0.9-6,1.1-8.8,2c-0.3-0.1-0.6-0.1-0.9-0.2c-0.6,0-0.7,0.2-1.1,0.3h-2.6
			c-2.2,0.5-4.3,0.6-6.3,1.2c-0.9,0.1-1.7,0.1-2.6,0.2c-0.8,0.2-1.7,0.7-2.4,0.9c-0.8,0.2-1.9-0.1-2.3,0c-1.3,0.2-2.4,0.5-3.5,0.9
			c-1.8,0.6-3.9,0.1-5.7,0.8c-0.4,0.1-1,0.5-1.5,0.6c-0.4,0.1-0.9-0.2-1.5,0c-6.6,2.3-16,3.4-22,5.6c-2.4,0.8-4.8,1.8-7.1,2.7
			c-0.5,0.2-2.1,0.6-2.1,0.6c-1,0-2,0-2.3,0.6c-0.2,0.5,0.4,0.7-0.2,1.1c-0.3,0.1-0.6,0.1-0.9,0.2c-0.4,0.3-0.9,0.9-1.4,1.2
			c-0.5,0.3-1.1,0.3-1.7,0.6c-0.2,0.3-0.4,0.5-0.6,0.8c-0.6,0.4-1.6,0.3-2,0.5c-0.7,0.3-1.5,1-2.3,1.2h-1.1c-0.4,0.2-1,0.9-1.4,1.1
			c-0.5,0.2-3.8-0.5-4.4-0.6c-0.4-0.1-2.8,0-3,0c-0.8,0.2-1.4,0.8-2.4,0.9C288,280.5,292.8,279.1,293.8,277.1z M275.7,300.5
			c0.1-0.7,0.3-1.6,0.3-2c0.4-0.3,0.7-0.6,0.9-1.1c0.5,0.1,0.6,0,1.1,0.3c0.2-0.1,0.3-0.1,0.5-0.2c0.1-0.3,0.1-0.5,0.3-0.8
			c0-0.4,0-0.8-0.2-1.1c-0.6-0.5-1.1-0.2-1.8-0.2c-0.1,0.2-0.2,0.5-0.3,0.6c-0.1,0-0.1,0-0.2-0.2c-0.2-0.5,0.6-2.5,0.9-3
			c0.3-0.2,0.5-0.4,0.8-0.6c0.7-1.1,0.9-2.3,1.7-3.3c0.3-0.2,0.5-0.3,0.8-0.5c1-1,2-2.1,3.2-3c0.7-0.6,2.2-0.3,2.9-0.9h0.2
			c-0.1,0.4-0.1,0.2-0.3,0.5c0.1,0.7,0.2,0.8,0.5,1.2c1.3,0,1.7-0.3,2.3-0.9c0.1-0.2,0.1,0,0.2-0.3c-0.4-0.4-0.5-0.7-1.4-0.8
			c0.4-0.3,0.6-0.2,0.9-0.6c0.5,0,1.1,0,1.4,0.2c0.3,0.4,0.4,1.1,0.5,1.7h1.5c0.2-0.7,0.5-1.2,0.8-1.7c0.8,0.1,0.7,0.6,1.2,0.8
			c0.8,0.3,1.4-0.3,1.8-0.5c0.3-0.1,2.5,0.1,3.2,0.3c2.2,0.6,3.9,1.3,5.9,2c0.4,0.1,0.8,0.1,1.2,0.2c0.4,0.2,0.6,0.7,1.1,0.9
			c0,0.8,0,0.7,0,1.4c-0.6-0.1-0.9-0.3-1.2-0.6c-0.9,0-1.8,0-1.5,1.1c0,0.2,0.6,0.6,0.6,0.8c0.2,0.6-0.4,1.2,0.2,1.7v0.2
			c-1.6-0.4-0.8-1.6-2.1-2.1c-0.7-0.3-1.9,0.6-3.2,0.2c-9.4-3.1-16.8,1.6-19,8.6h-1.5l-0.2,0.2c0,1,0.4,1.4,0.5,2l-0.5,1.4h-0.3
			c-0.3,0.5,0.3,1.3,0.2,1.7c-0.2,0.5-0.6,0.5-0.6,1.5H278c0,1.6-0.1,1.8-0.5,3.2c-0.1,0.5,0.2,0.9,0.2,1.2c-0.2,0.9-0.7,2-0.6,3
			c-0.2,0.1-0.3,0.1-0.5,0.2l0.2,0.2c-0.1,0.7-0.4,1.4-0.6,2H276c-0.2,0.8,0.4,2.4,0.3,2.9c-0.3,1.1-0.5,2.2-0.6,3.3
			c-0.2,1.5,0.1,3.8,0.5,4.8c0.2,0.5-0.2,1.5,0.2,2.3h0.3c0.1,0.3-0.2,1.5-0.2,1.8c0.1,0.4,0.9,1.3,1.1,1.8v1.5
			c0.1,0.3,0.6,0.6,0.6,0.8c-0.1,0.4-0.1,0.7-0.2,1.1c0.3,1.1,0.8,2.1,1.2,3c0.1,0.3-0.1,1.7,0,2c0.1,0.2,0.6,0.8,0.6,1.1
			c0,0.1-0.3,0.4-0.2,0.8c0,0,0.6,0.6,0.6,0.6c0.6,0.9,0.5,1.9,1.1,2.9c0.5,0.9,1.4,2.2,1.8,3.2c0.4,1.1,0.5,1.9,0.9,3
			c0.5,1.3,1.8,2.7,2.4,4.1c0.4,0.9,0.3,1.9,0.9,2.6c1.8,2.3,5,4,6.5,6.6h0.5c0.1,1.2,0.7,1.5,0.9,2.6c1,0.3,1.1,1.7,1.8,2.4
			c0.2,0.2,0.7,0.2,0.9,0.5c0.3,0.4,0.2,0.9,0.6,1.2h0.5c0.1,0.2,0.1,0.4,0.2,0.6l1.8,1.8c0.8,0.6,1.7,0.8,2.6,1.4
			c0.3,0.2,0.3,0.7,0.6,0.9c1.3,1,2.5,1.5,4.1,2.3c1,0.5,2.7,2,3.6,1.5c2.2,0,3.1-1.3,4.5-2c5.7-2.7,6.7-9.5,8.5-15.6
			c0.4-1.5,0.1-2.8,0.5-4.4c0.3-1.5,0.5-3.3,0.3-4.7c0.8-1.3,0.6-4.2,0.2-6c-0.3-1,0.3-2,0.2-2.6c-0.1-0.7-0.8-2-0.9-2.7
			c0-0.2,0.3-0.9,0.2-1.4h-0.3v-2c0.1-0.3,0.1-0.5,0.2-0.8c-0.2-0.9-0.4-1.9-0.6-3.2c0-0.3,0.2-1.2,0-1.8c-0.2-0.7-1-1.7-1.2-2.3
			c-0.1-0.3,0-1.5-0.2-2.1c-0.2-0.9-0.6-1.7-1.1-2.3c-0.2-0.3,0.2-1.7,0-2.1c0,0-0.4-0.2-0.5-0.3c-0.1-0.7-0.1-1.3-0.2-2
			c-0.2-0.5-1.1-1-1.4-1.5c-0.1-0.1,0.2-0.7,0-1.1c-0.6-1.4-2.1-3.9-3.2-4.8c0.2-0.2,0.6-0.4,0.9-0.6c-0.1-0.8-0.8-2-1.8-1.4
			c-1.1-0.3-2.6-3.3-3.3-4.2c-0.7-1-2.1-1.5-2.9-2.4c-1.4-1.8-2.9-3.5-4.5-5.1c-0.4-0.5-0.8-0.9-1.2-1.4c-0.7-0.5-1.5-1-2.3-1.4
			c-0.6-0.3-1.2-0.1-1.8-0.5c-0.4-0.3-0.9-1-1.4-1.2c-1.4-0.7-4.2-0.4-5.4,0.2c-0.3,0.1-0.1,0.4-0.3,0.6c-0.5,0.2-1,0.3-1.5,0.5
			c-0.6,0.3-2.4,1.7-2.7,2.3c-0.5,0.8-0.5,1.5-0.9,2.4c-0.7,1.6-1.9,3.4-2.6,5c-0.1,0.3,0.2,1,0.2,1.1l-0.6,0.6
			c-0.6,1.5-0.7,3.5-1.2,4.5c0,0,0.2,1.2,0.2,1.4c-0.2,1.2-0.9,3.3-0.6,4.7c0,0.2,0.4,0.8,0.5,0.9c0.2,0.9-0.6,2.2-0.2,3.3
			c0.2,0.1,0.3,0.2,0.5,0.3c0.2,0.6-0.3,2-0.2,2.6c0,0.2,0.4,0.7,0.5,0.9c-0.1,0.3-0.1,0.6-0.2,0.9c0.2,0.1,0.3,0.2,0.5,0.3
			c0.4,0.9,0.4,1.6,0.8,2.4c-0.3,0.9,0.2,1.6,0.6,2.4c-0.1,0.2-0.1,0.3-0.2,0.5c0,0.1,0.6,0.6,0.6,0.6c-0.1,0.2-0.1,0.4-0.2,0.6
			c0.3,1.1,0.3,2.1,0.8,3.3c0.2,0.5,0.8,1.1,1.1,1.7c0.2,0.5,0,1,0.3,1.5c0.7,1.2,1.7,2.4,2.4,3.6c0.2,0.3,0.1,0.8,0.2,0.9
			c0.3,0.2,0.5,0.3,0.8,0.5c-0.1,0.3-0.1,0.6-0.2,0.9c0.3,1,2.3,4.1,3.2,4.4v0.5c0.8,0.2,4.5,5.1,5,6c0.1,0.3,0.1,0.6,0.2,0.9
			c0.4,0.7,1.4,1.2,1.8,1.8c0.2,0.2,0.5,1.6,0.9,2.1c1.2,1.6,4.3,3.9,6.8,4.5c2.2,0.6,5.7-2.3,6.3-3.8v-0.8c0.2-0.6,0.9-1.3,1.1-2
			v-0.9c0.6-1.5,1-3.8,1.4-5.3c-0.1-0.4-0.1-0.7-0.2-1.1c0.4-2.4,0.6-4.5,0.5-7.2c0-0.4,0.2-1.7,0.3-2.1c-0.1-0.9-0.1-1.8-0.2-2.7
			c0-0.2,0.4-0.5,0.3-0.8c0,0-0.4-0.5-0.5-0.6c-0.4-1.4-0.2-2.6-0.8-3.8c-0.2-0.4-0.7-0.9-0.8-1.4c-0.1-0.4,0.1-1.4-0.2-2.1
			c-0.4-1-0.7-1.6-0.8-2.9c0.6-0.1,0.6-0.1,0.9-0.3c0.1-0.5,0.1-0.9,0.2-1.4c-0.4,0-0.6,0-0.8-0.2c-1.6-0.1-2.2-4.2-2.9-5.1
			c0.2-0.4,0.4-0.2,0.8-0.5h0.2v-0.2h-1.2c-0.3-1.5-1.5-2.8-2.3-3.9c-0.4-0.6-0.4-1.4-0.9-2c-0.1-0.1-0.5-0.1-0.6-0.3v-0.6
			c-0.1-0.2-0.7-0.4-0.9-0.6c-0.3-0.3-0.3-0.8-0.6-1.1c-0.7-0.7-1.5-1.2-2.3-1.8c-0.4-0.5-0.8-0.9-1.2-1.4c-0.6-0.4-1.3-0.8-1.8-1.1
			c-0.4-0.1-0.7-0.1-1.1-0.2c-0.6-0.3-1.2-1.2-2-1.5c-2-0.9-7.2,1.7-8,2.7c-0.3,0.4-1,1.1-1.2,1.5c-0.3,0.7,0,2.8-0.5,3.5
			c0,0.1-0.5,0.4-0.6,0.8c0.1,0.3,0.1,0.5,0.2,0.8c-0.2,0.9-0.3,1.7,0,2.7c0.1,0.4-0.1,0.9-0.2,1.1c-0.1,0.6,0.1,3.8,0.2,4.2
			c0.2,0.8,0.7,1.2,0.9,2c0.1,0.6,0.1,1.6,0.5,2.4c0.1,0.2,0.7,0.7,0.8,0.9c-0.1,0.3-0.2,0.6-0.3,0.9c0.2,0.1,0.3,0.1,0.6,0.2
			c0,1.8,1.2,3.4,2,4.5c0.1,0.4,0.1,0.7,0.2,1.1l0.6,0.6c0.3,0.6,0.2,1.2,0.6,1.8c0.3,0.6,1.2,1.1,1.5,1.7c0.3,0.5,0.8,2,0.9,2.1
			c0.2,0.1,0.4,0.1,0.6,0.2c0.8,0.7,1,1.8,1.7,2.7c0.3,0.2,0.5,0.4,0.8,0.6c0.2,0.3,0.1,0.6,0.3,0.9c0.4,0.6,3.8,3.3,4.7,3.3
			c0.7,0,2,0.1,2.7-0.3c0.4-0.2,0.9-0.9,1.4-1.1h0.8c0.4-0.2,0.4-0.7,0.9-0.9V349h0.5c0.1-1.4,0.8-1.9,1.1-2.9
			c0.2-0.8-0.2-1.4-0.3-2.1c-0.1-0.8,0.2-1.9,0-3c-0.1-0.7-0.5-1.7-0.6-2.3c-0.2-0.9,0.1-2.8-0.3-3.9c-0.1-0.1-0.2-0.1-0.3-0.2
			c-0.3-0.8,0-1.2-0.3-2c-0.1-0.3-0.6-0.8-0.8-1.1c-0.5-1.1-0.4-2-0.9-3l-0.8-0.8c-0.5-0.9-0.6-1.7-1.2-2.4
			c-0.4-0.4-0.9-0.6-1.2-1.1c-0.3-0.5-0.3-1-0.6-1.5l-1.7-1.7v-0.5c-0.2-0.1-0.3-0.1-0.5-0.2c-0.6-0.6-2-2-2.4-2.7
			c-0.9,0-2.2-0.8-3.2-0.3c-1.8,0.9-2,1.5-2.9,3.3c-0.3,0.7-1.1,1.3-1.4,2.1c-0.2,0.7,0.3,1.8,0.2,2.3c0,0.2-0.6,0.7-0.5,1.1
			l0.5,0.5c0.2,0.6,0,0.9,0.3,1.5c0.1,0.2,0.5,0.5,0.6,0.8c-0.2,0.9,0.5,1.5,0.8,2.3v0.8c0.3,0.6,1.2,1.2,1.5,1.8
			c0.3,0.6,0,0.9,0.2,1.4l0.6,0.6v1.1c0.2,0.7,1,1.2,1.2,1.8c0.1,0.5,0.2,1,0.3,1.5c0.1,0.1,0.5,0.2,0.6,0.3
			c-0.1,0.2-0.1,0.4-0.2,0.6c0.2,0.3,4,3.4,4.4,3.5c0.8,0.2,1.1-0.4,1.7,0c1.7-0.8,1.8-4.2,1.4-6.2c-0.9-3.8-4.7-7.1-5.6-11.2
			c-0.3-0.1-0.5-0.1-0.8-0.3c-0.7,0.1-0.9,0.2-1.4,0.5c-0.1,0.2-0.2,0.5-0.3,0.6c0.1,0.6,0.5,1.5,0.9,2c0.2,0.1,0.3,0.1,0.5,0.2
			c0.2,0.3-0.2,0.6,0,1.1c0.4,0.9,1.3,1.2,1.5,2.4h0.5c0.1,1,0.6,0.9,0.9,1.5c0.1,0.4,0.1,0.7,0.2,1.1c0.3,0.2,0.5,0.3,0.8,0.5
			c0.1,0.3-0.3,0.7-0.2,0.9h0.3c0.7,1,0.6,2.5,0.6,3.8c-0.5,0-1.1,0-1.4-0.2c-2.3-0.2-3.1-4.3-3.9-6.3c-1.3-3.3-5.6-8.7-3.6-12.7
			c0.5-1,1.6-1.7,2.4-2.4c0.6,0,0.9,0,1.2,0.3h0.3v0.5c0.7,0.1,3.1,2.6,3.5,3.6h0.5c0.1,1.8,2.7,4.1,3.6,5.6c0.2,0.3,0,0.8,0.2,1.2
			l0.6,0.6c0.1,0.3,0.2,1.5,0.5,2.1c0.3,0.7,0.9,2.1,1.1,3c0.1,0.8-0.4,2.4,0,3.5c0.1,0.1,0.6,0.6,0.6,0.8c-0.1,0.5-0.1,0.9-0.2,1.4
			c0.4,1.8,0.1,4-0.5,5.1c-0.7,1.3-2,1.3-3.2,2.1c-3.2,0-6.4-6.1-7.9-8.3c-0.6-1-1.6-2-2.3-3c-0.6-1-1-2.1-1.5-3
			c-0.3-0.5,0-1.1-0.3-1.7c-0.2-0.4-0.7-0.6-0.9-1.1c-2.2-5.2-3.3-11.2-1.7-16.5c0.1-0.4-0.2-1.1-0.2-1.2c0.3-1,1.5-2.4,2.3-2.9
			c0.8-0.5,1.1-0.1,1.5-0.9c0.9-0.1,1.7-0.2,2.6-0.3c0.6,0.2,0.9,0.7,1.4,0.9c0.3,0.1,0.6,0.1,0.9,0.2c1.6,0.7,2.6,1.9,3.8,3
			c0.4,0.4,1,0.5,1.4,0.9c0.6,0.7,1,1.7,1.7,2.4c0.2,0.2,0.7,0.4,0.9,0.6c0.3,0.4,0.2,0.8,0.5,1.2c0.2,0.2,0.7,0.4,0.9,0.6
			c0.2,0.2,0.5,1.8,0.5,1.8c0.1,0.2,0.6,0.4,0.8,0.6c0.2,0.4,0,0.8,0.3,1.2c0.1,0.1,0.5,0.1,0.6,0.3c-0.1,0.3-0.1,0.6-0.2,0.9
			c0.2,0.7,0.9,1.5,1.2,2.1v1.1c0.1,0.3,0.5,1,0.6,1.4v1.7l0.6,0.6c0.1,0.5,0.1,1,0.2,1.5c0.2,0.6,0.6,1.3,0.8,2v1.2
			c0.1,0.2,0.5,0.9,0.6,1.1v0.9c0.2,0.1,0.3,0.2,0.5,0.3c0.2,0.5-0.1,1.8,0,2.6c0,0.4,0.5,0.8,0.6,1.1c0,0.1-0.4,0.6-0.5,0.8
			c-0.1,1,0.1,2.7,0,3.6c-0.1,0.7,0.4,1.8,0.2,2.7c-0.6,2.3-0.2,4.2-0.9,6.2c-0.1,0.3,0.2,1.1,0.2,1.5c0,0.1-0.4,0.5-0.5,0.6
			c-0.4,1.2-0.1,2.2-0.6,3.3c-0.2,0.1-0.3,0.2-0.5,0.3c-0.1,0.4-0.2,0.7-0.3,1.1c-0.5,0.8-1.3,1.5-2,2.1c-0.1,0.2-0.1,0.3-0.2,0.5
			c-0.4,0.3-1,0.1-1.4,0.5c-1.6-0.3-2.9-1.9-4.1-2.3V363c-1.6-0.2-1.6-1.5-2.4-2.4c-2.2-2.4-3.6-5.7-5.7-8.3
			c-0.3-0.2-0.5-0.3-0.8-0.5c-0.4-0.5-0.7-1.3-1.2-1.7c-0.3-0.3-0.8-0.3-1.1-0.6c-0.6-0.7-0.9-2.8-1.4-3.8c-1.1-2.3-3-4.4-4.1-6.8
			c-0.9-1.9-0.8-3.5-1.5-5.6c-0.3-1-1.8-5.9-1.7-6c0-0.6-0.2-1.3-0.2-1.4c-0.9-5.6-1.3-11.6,0.9-16.2c0.2-0.4,0-1.2,0-1.4
			c0.2-0.1,0.3-0.2,0.5-0.3c0,0,0.3-1.7,0.5-2c0.2-0.1,0.3-0.1,0.5-0.2c0.1-0.4,0.1-0.8,0.2-1.2c0.3-0.3,0.6-0.5,0.9-0.8
			c0.3-0.6,0.2-1.2,0.5-1.8c0.3-0.6,0.9-1,1.2-1.5c0.2-0.3,0.2-0.7,0.5-0.9c0.5-0.4,1.8-0.6,2.3-0.9v-0.3c0.3-0.3,1-0.5,1.4-0.6
			c2.4-0.6,4.2,1.5,5.6,2.1c3,1.3,3.5,2.8,5.4,5.1c0.6,0.7,1.7,1.2,2.3,2c1.1,1.5,2.3,2.8,3.5,4.2c0.2,0.2,0.6,0.2,0.8,0.5
			c0.5,0.7,0.5,1.7,1.1,2.4c0.2,0.2,0.6,0.3,0.8,0.5c0.6,0.8,0.9,1.8,1.5,2.6c0.2,0.2,0.6,0.4,0.8,0.6c0.3,0.6,0.2,1.2,0.6,1.8
			c0.2,0.1,0.4,0.2,0.6,0.3c0.4,0.7,0.2,1.4,0.5,2.1c0.3,0.8,0.8,1.2,1.1,2c0.3,0.9,0,1.6,0.3,2.4c0.1,0.3,0.6,0.8,0.8,1.2
			c0.2,0.7-0.1,1.1,0.3,2.1c0,0.1,0.4,0.4,0.5,0.6c-0.1,0.2-0.1,0.4-0.2,0.6c0.2,0.6,0.8,1.4,1.1,2.1c0.4,1.2-0.1,2.1,0.2,2.9
			c0.1,0.3,0.5,0.7,0.3,1.4c-0.1,0.2-0.3,1-0.2,1.5c0.5,1.7,0.4,3.5,1.2,4.8c0.1,0.2-0.1,1.5,0.2,2c-0.2,0.1-0.3,0.1-0.5,0.2
			c-0.1,0.5,0.6,0.7,0.6,0.8c0,0,0,0.9,0,0.9c0.1,0.5-0.3,1.3-0.2,2c0.4,1.9,0,3.8-0.5,5.4c0.1,0.3,0.1,0.6,0.2,0.9
			c0,0.1-0.3,0.8-0.3,0.9c-0.1,0.6,0.3,1.7,0,2.7c-0.7,2.7-1.1,5.3-2.1,7.7c-0.4,0.9,0.1,1.7-0.3,2.6c-0.7,1.6-3.5,5.7-5.4,6.8
			c-0.9,0.5-1.9,0.5-2.6,1.2c-1.8,0-5.2-1.9-6.6-2.9c-0.4-0.5-0.8-0.9-1.2-1.4c-1-0.7-2.6-1.3-3.5-2.1c-0.5-0.5-0.9-1.4-1.4-2
			c-0.4-0.3-0.7-0.5-1.1-0.8c-0.9-1.4-1.5-2.6-2.4-3.9c-0.1-0.1-0.7-0.5-0.8-0.6c-0.3-0.4,0-0.9-0.3-1.2c-0.3-0.3-0.9-0.4-1.2-0.8
			c-0.1-0.3-0.1-0.5-0.2-0.8c-0.3-0.3-0.9-0.5-1.2-0.8c-0.3-0.2-0.3-0.7-0.6-0.9c-1-0.8-1.7-1.6-2.6-2.4c-0.2-0.1-0.3-0.1-0.5-0.2
			c-0.5-0.7-0.5-1.7-0.9-2.4c-1.2-2.1-2.4-4.6-3.5-6.9c-1-2.2-2.3-4.2-3-6.3c-0.2-0.5-0.5-2.5-0.5-2.6c0-0.4-1-2.7-0.9-2.9
			c-0.1-0.5-0.9-3-0.5-3.2c0,0-1.1-2.6-1.2-2.9c-0.1-0.7-0.1-1.3-0.2-2c-0.2-0.5,0-1.1-0.3-1.7c-0.2-0.1-0.3-0.2-0.5-0.3
			c-0.2-0.5-0.2-6.5,0.3-7.4h0.2c0.3-0.4,0.8-0.9,1.2-1.4c0-1.1-0.5-1-1.2-1.4c0-0.8,0.2-1.3,0.3-1.8c0.1-0.5-0.2-1.1-0.2-1.4
			c0.1-0.4,0.8-1.2,0.9-1.7c0.1-0.3-0.3-0.7-0.2-1.2c0.5-2,0.6-4.8,1.7-6.3c0.3-0.5,0.8-0.6,1.4-0.8l0.2-0.2
			c-0.3-0.2-0.7-0.2-0.9-0.5c-0.4-0.6,0.6-1.6,0.9-2.1c0.6-1,3-4.6,3-5.3c0.4-0.7,1.4-0.5,2.1-0.8c0.2-0.6,0.2-0.7,0.2-1.4
			c1.2-0.2,2.4-1.2,3.6-1.5c2.1-0.6,6.8,0.3,8.2,0.9c0.2,0.5,0.3,1,0.5,1.5c0.9,0,1.4,0,1.8-0.5c0.8,0.1,1.8,0.6,2.3,1.1
			c-0.1,0.4-0.3,0.1-0.6,0.5c-0.3,0.4,0.2,0.9,0,1.2c0,0-0.5,0.4-0.6,0.6c0.2,0.2,0.4,0.5,0.6,0.8c1.6,0,2-1.2,2.3-2.1h0.3
			c0.2,0.1,0,0.1,0.3,0.2c-1.1,2.5,1.6,1.7,3,2.4c0.2,0.1-0.1,0.4,0.8,0.5v0.5c0.8,0.4,1.8,0.7,2.4,1.2c0.7,0.5,0.5,1.2,1.5,1.5v0.8
			c-0.9,0.1-1.4,0.5-2,0.9c0,0.4-0.1,0.5-0.2,0.8l0.8,0.8c1.3,0,2-0.5,2.4-1.4c0.9,0.1,1.2,0.9,1.8,1.4c-0.1,0.7-0.6,1.5-1.1,2
			c0.1,0.5,0.2,0.5,0.5,0.9c0.7,0.2,1.8,0.2,2.4-0.2c1.3,0.2,1.9,2.4,2.6,3.3c0.2,0.2,0.8,0.4,0.9,0.6c0.2,0.3-0.3,0.5,0,0.9
			c0.7,1.1,1.7,2.2,2.3,3.3c0.2,0.4,0.3,1.5,0.3,1.5c0.4,0.3,0.8,0.6,1.2,0.9c0.2,0.4-0.1,1.1,0.2,1.8c0.3,0.7,1.1,1.2,1.4,2
			c0.7,1.9,0.9,3.8,1.5,5c-0.2,0.4-0.4,0.6-0.8,0.8c0.1,0.5,0,0.3,0,0.8l0.5,0.5h0.6c0.2,1.8,0.8,4.2,1.4,5.9c0.3,0.9-0.6,1.1-0.3,2
			c0.1,0.4,0.6,1,0.8,1.5c0.2,1.1-0.5,2.1-0.3,3c0.1,0.4,0.3,0.7,0.5,1.1c-0.6,1.4-0.3,3-0.2,4.7h-0.8c-0.3,0.3-0.8,0.6-1.2,0.8
			c0,1.1,0.7,1.1,1.8,1.1c-0.4,1.1-0.2,2-0.5,3.2v1.8c-0.2,0.6-0.4,1.6-0.8,2.3c0.1,0.2,0.1,0.3,0.2,0.5c-0.1,0.3-0.7,0.8-0.9,1.1
			c0.6,1.2-1.2,5.5-1.5,6.3c0.3,1.2-0.7,2.7-1.1,3.8v1.1c-0.3,0.6-0.9,1.7-1.2,2.3c0,0.1,0.3,0.5,0.2,0.8c-0.1,0.2-0.6,0.5-0.8,0.8
			c-0.2,0.5,0,1.1-0.3,1.7c-0.1,0.2-0.7,0.4-0.8,0.6c0.1,0.2,0.1,0.4,0.2,0.6c-0.2,0.1-0.3,0.2-0.5,0.3c-0.3,0.7-0.1,1.4-0.5,2
			c-0.4,0.6-1.3,1.1-1.7,1.8c-0.3,0.6-0.2,1.2-0.6,1.7c-1.3,1.5-4.5,2.6-6.5,3.9c-0.2,0.3-0.4,0.5-0.6,0.8c-1,0.5-2.2,0.3-3,0.9
			c-4.5,0-4.4-1.3-7.1-2.9c-0.3-0.1-0.6-0.1-0.9-0.2c-1.5-0.9-3.3-1.7-4.8-2.7c-0.3-0.4-0.6-0.7-0.9-1.1c-1.9-1.5-3.5-3.2-5.4-4.7
			c-1.5-1.1-4-4.5-5.6-5v-0.6c-1.2-0.2-2.3-2.9-2.7-3.9c-0.3-0.7-1.1-1.6-1.4-2.3c-0.4-0.9-0.4-1.7-0.9-2.6
			c-0.3-0.5-1.1-1.1-1.4-1.7v-0.6c-0.4-0.7-1.1-1.5-1.4-2.3v-0.8c-0.2-0.3-0.8-0.7-0.9-1.1v-0.6c-0.2-0.5-0.7-0.9-0.9-1.4
			c0.1-0.2,0.1-0.3,0.2-0.5c-0.2-0.1-0.3-0.1-0.5-0.2c0.1-0.2,0.1-0.4,0.2-0.6h-0.3c-0.3-0.7,0-1.3-0.3-2c-0.6-1.6-1.4-2.9-2-4.5
			c-0.4-1.1-0.2-1.9-0.6-2.9c-0.1-0.4-0.6-0.9-0.8-1.2c-0.4-1-0.2-1.7-0.5-2.9c-0.4-1.6-1.3-3.7-1.4-4.7c-0.1-1.5-1.3-4.5-0.9-5.4
			c-0.2-1.3-0.8-2.8-0.9-4.1c-0.1-0.4,0.3-1,0.2-1.7c-0.1-0.5-0.4-1.5-0.3-2.1c0.3-1.4,0.3-2.8,0.6-3.8l0.3-0.3c0-0.3-0.2-1.2,0-1.8
			c0.4-1.5,1.3-3.1,1.5-4.8l0.2-0.2h1.2c0.1-0.3,0-0.3,0.2-0.5c0-1-0.1-1.3-0.9-1.5c0.5-1.1,0.5-2,2.1-2.4c0.1-0.3,0-0.3,0.2-0.5
			c0-0.8-0.2-0.9-0.5-1.4c-0.3-0.5,0.8-1.8,0.9-2.4C274.9,300.3,274.9,300.5,275.7,300.5z M318.1,307v-0.6c0.2,0.1,0.3,0.2,0.5,0.3
			l0.2,0.2C318.5,306.9,318.5,307,318.1,307z M273,293.7c0.3-0.1,0.5-0.1,0.8-0.2v-0.5c0.4-0.2,0.9-0.6,1.2-1.1h0.5
			c0,0.2-1.2,2.7-1.4,2.9c-0.3,0.4-1.5-0.1-2.1,0.8c-0.1,0.3,0,0.3,0,0.8h-0.8C271.5,295.3,272.5,294.7,273,293.7z M327,383.3
			c-0.1,0.3-0.1,0.6-0.2,0.9c-0.3,0.2-0.5,0.3-0.8,0.5c-0.4,0.6-0.8,1.6-1.4,2c-0.9,0.6-1.9,0.9-2.7,1.5c-0.7,0.5-1.3,1.5-2,2h-0.5
			l-0.2,0.6h-0.6c-0.1,0.2-0.1,0.3-0.2,0.5c-0.3,0-0.6,0.1-0.9,0.2c-0.4,0.2-0.9,0.7-1.4,0.9c-0.5,0-1,0.1-1.5,0.2
			c-2.3,0.7-5.2,2.1-8.8,1.2c-2-0.5-4.2-1.1-6-1.7c-0.6-0.1-1.2-0.1-1.8-0.2c-1.7-0.5-3.6-1.2-5.1-1.8c-0.7-0.3-1.2-0.1-1.8-0.5
			c-0.7-0.4-1.9-1.6-2.6-2c-0.2,0.1-0.3,0.1-0.5,0.2c-0.5-0.2-2.2-1.3-2.7-1.7c-1.1-0.9-2.1-2.1-3.2-3c-0.3-0.3-0.8-0.3-1.1-0.6
			c-0.7-1-1.6-1.9-2.3-2.9c-0.4-0.6-0.6-1.3-1.1-1.8c-0.8-0.8-1.9-1.5-2.6-2.4c-0.2-0.2-0.1-0.6-0.3-0.8c-0.5-0.5-1.4-0.7-1.8-1.2
			c0.1-0.2,0.1-0.3,0.2-0.5c-0.2-0.2-0.4-0.3-0.6-0.5c-0.5-0.7-0.6-1.2-1.1-2c-0.4-0.4-0.8-0.7-1.2-1.1c-0.8-1.1-1.1-2.4-1.8-3.6
			c-0.4-0.6-1.1-1.2-1.5-1.8c-0.1-0.3-0.1-0.5-0.2-0.8c-0.3-0.6-1-1.1-1.4-1.7c-0.5-0.8-0.6-1.6-1.1-2.4l-1.1-1.1
			c-0.1-0.4-0.1-0.7-0.2-1.1c-0.1-0.3-0.6-0.7-0.8-1.1c-0.4-0.8-0.2-1.4-0.6-2.3c-0.4-0.9-1.1-1.9-1.4-2.7v-1.7
			c-0.8-2.2-1.3-5.8-2.1-8c-0.7-1.9-1-4.4-1.5-6.3c-0.3-1-0.2-2.9-0.2-3c0.2-0.4,0.4-0.3,1.1-0.3c-0.2-0.4-0.6-0.4-1.1-0.5
			c0-2.1,0.3-4.8,0.8-6.9c0.2-1-0.1-1.9,0.3-2.6c0.2-0.1,0.1-0.1,0.5-0.2c-0.2-1.5,0.4-3.2,0.9-4.8c1.4-5.1,3.9-9.2,6.3-13
			c0.2-0.4,0.9-0.6,1.2-0.9c0.4-0.4,0-0.9,0.3-1.5c0.4-0.9,2.1-2.3,2.3-3.3c1.5,0,2.2-0.3,2.7-1.2c0.2,0.1,0.5,0.2,0.6,0.3
			c0.2,0.1,0.3,0.1,0.5,0.2c-0.2,0.7-0.6,0.9-0.9,1.4c-0.3,0.4-0.2,1.3-0.5,1.8c-0.3,0.2-0.5,0.4-0.8,0.6c-0.3,0.5-0.2,1.1-0.5,1.7
			c-0.3,0.7-1.1,1.5-1.4,2.3c-0.3,0.9-1.2,4.6-0.9,5c-0.2,0.1-0.3,0.1-0.5,0.2c-0.3,0.7,0,1.2-0.3,2c-0.1,0.2-0.5,0.7-0.6,0.9
			c-0.1,0.4,0.2,0.4,0.3,0.6c-0.4,0.4-0.7,1.7-0.9,2.3v2.3c-0.2,0.5-0.7,4.7-0.5,6c0.3,1.2,1.3,2.9,0.9,3.6c0,0.7-0.1,0.6,0.3,0.6
			c0,2,0.4,3.3,0.9,4.8c0.3,0.9,0,1.5,0.3,2c0,0,0.3,0.1,0.2,0.3h-0.3c0.1,0.5,0.1,0.5,0.6,0.6c0.1,3.1,1.4,6,2.4,8.6
			c0.1,0.1,0.1,1.4,0.3,2c0.1,0.4,0.7,0.8,0.9,1.1c0.1,0.3-0.1,1,0.2,1.5h0.3c0.1,0.4,0.1,0.7,0.2,1.1h0.3c0.1,0.2-0.3,0.8-0.2,1.2
			c0.1,0.4,0.8,0.7,0.9,1.1c-0.1,0.2-0.1,0.4-0.2,0.6c0.1,0.4,0.6,1,0.8,1.4v0.6l0.6,0.6c0.1,0.4,0.1,0.7,0.2,1.1
			c0.2,0.1,0.3,0.1,0.5,0.2c-0.1,0.1-0.1,0.1-0.2,0.2c0.1,0.6,0.2,0.3,0.5,0.6c0,0-0.3,0.5-0.2,0.8c0.2,0.1,0.3,0.2,0.5,0.3v0.5
			c0.2,0.3,0.7,0.4,0.9,0.8c0.1,0.4,0.1,0.7,0.2,1.1c0.3,0.6,1.2,1.2,1.5,1.8c-0.1,0.2-0.1,0.3-0.2,0.5c0.3,0.7,1,1.5,1.4,2.1
			c-0.1,0.2-0.1,0.3-0.2,0.5c0.1,0.1,0.3,0.8,0.5,1.1c0.2,0.1,0.3,0.1,0.5,0.2c0.3,0.4,0,0.9,0.3,1.4c0.2,0.3,0.9,0.6,1.1,0.9
			c0,0,0.1,0.9,0.3,1.2c0.5,0.8,1.7,1.1,2.4,1.8c0.3,0.3,0.2,0.7,0.5,1.1c0.2,0.3,0.7,0.4,0.9,0.6c0.1,0.2,0,0,0,0.5
			c0.9,0.2,4.3,2.9,4.8,3.6c0.2,0.4,0.4,0.7,0.6,1.1h0.5c0.2,0.2,0.2,0.6,0.5,0.8c0.2,0.2,0.7,0.2,0.9,0.5c0.1,0.3,0.1,0.5,0.2,0.8
			c0.3,0.4,0.7,0.3,0.9,0.8h0.6v0.5h0.3c0.8,0.8,1.9,1,2.9,1.7l0.9,0.9c0.9,0.3,1.7,0.2,2.4,0.8c1.2,0.9,2.4,1.9,3.6,2.7
			c1.6,1,5.5,0.4,7.1-0.2c0.3-0.1,0.6-0.6,0.9-0.8h0.9c0.6-0.2,1.1-0.9,1.7-1.2c0.7-0.4,1.4-0.5,2.1-0.9c0.9-0.6,1.8-1.5,2.7-2.1
			c0.2-0.1,0.4-0.1,0.6-0.2c0.3-0.3,0.2-0.8,0.5-1.2c0.5-0.8,1.5-1.5,2-2.3v-0.6c0.1-0.3,0.6-0.6,0.8-0.9c0.4-0.9,0.3-1.7,0.8-2.6
			c0.4-0.9,1-1.7,1.5-2.9c1,0.3,1.6,0.8,2.1-0.3c0.1-0.3,0.3-0.4,0.2-0.6c-0.2-0.4-0.2-0.4-0.6-0.6c-0.4-0.2-0.6-0.1-1.1,0
			c0.3-1.7,1-3,1.5-4.5c0.6-1.9,0.6-3.6,1.2-5.6c0.3-0.8,0.8-1.7,1.1-2.4c0.4-1.3,0.4-2.5,1.1-3.5c-0.3-0.3-0.1-1,0-1.5
			c0.5-1.5,0-4.3,0.8-5.6c0.3-0.5,0.8-0.1,1.5,0c0.1-0.3,0-0.1,0.2-0.3c0-0.7,0-1.4-0.2-1.8c-0.8,0.1-1,0.4-1.4,0.9
			c-1.2-1.5,0.2-4.1-0.2-6.3c-0.1-0.5-0.9-2.8-0.6-3.9c0.1-0.6,0.8-1.2,0.6-2c-0.3-1-1.1-1.5-1.5-2.7c-0.2-0.7-0.5-5.6-0.5-5.6
			c-0.2-0.4,0-0.2-0.5-0.3c0-2.6-1.6-5.4-2.4-7.2c-0.3-0.7-1.2-1.9-1.2-2.4c0.1-1,0-1.4-0.9-1.5c0.1-0.3,0-0.1,0.2-0.3
			c-0.2-0.4-0.1-0.2-0.6-0.3c0-0.4,0.1-0.2,0-0.5v-0.3c0.6,0.2,0.5,0.7,1.1,0.9c0.7,0.4,1.2-0.6,1.4-1.2c-0.3-0.2-0.4-0.4-0.6-0.8
			c-0.3-0.1-0.5-0.1-0.8-0.2v0.5l-0.2,0.2c-0.5-0.1-1-0.1-1.5-0.2v-0.5h-0.5c-0.1-0.8-2.3-4.5-2.9-4.8c0.1-0.2,1.2-0.4,1.7-0.6
			c-0.1-0.6-0.3-0.7-0.5-1.2c-0.3-0.1-0.4-0.1-0.6-0.3c-0.5,0.1-1,0.2-1.4,0.5h-0.2c0.1,0.1,0.2,0.2,0.3,0.3v0.3
			c-1.8-1.3-2.7-3.4-4.4-4.5v-0.3c0.4,0.1,0.5,0.2,0.8,0.5c0.9,0,1-0.1,1.5-0.5c0-1.1-0.4-1.3-0.8-2.1c-1.5,0-1.9,0.2-2.7,0.8
			c-0.5-0.7-1.8-1.8-2.7-2.1c0.2-0.8,0.6-0.8,0.8-1.5c-0.1-0.1-0.2-0.3-0.3-0.5c-1.1-0.2-1.6,0-2.4,0.5c-0.8-1.1-3.9-3.5-5.6-3.6
			c0.1-0.3,0-0.3,0.2-0.5c0.2-0.2,1.4-0.2,1.8-0.8c-0.1-0.2-0.1-0.3-0.2-0.5c0.2-0.3,0.6-0.2,0.8-0.5c0.2-0.4,0.1-0.8,0.3-1.1
			c0.3-0.2,0.7-0.2,0.9-0.5c0.2,0.2,0.2,0.1,0.3,0.5h0.2c-0.2,0.5-0.7,1.2-1.2,1.5c0,2.2,1.4,2.2,2.4,3.3c0.7,0,1,0,1.4-0.3
			c0.1-0.2,0.1,0,0.2-0.3l-1.2-1.2c0-0.5-0.1-0.8-0.2-1.2c0.2-0.2,0.3-0.5,0.5-0.8c0.5,0.3,1,1,1.5,1.4c0.2,0.2-0.4,1.8-0.3,2.1
			c0.1,0.8,0.3,0.8,0.8,1.2c0.9-0.1,1.3-0.9,0.9-1.8c0.4-0.1,0.2-0.1,0.5-0.3c1.1,0.3,1.2,1.1,2,1.7v0.2c-0.4-0.2-0.6-0.4-1.1-0.2
			c-0.7,0.1-0.7,0.2-0.9,0.8l-0.2,0.2c0.4,0.2,1,0.5,1.4,0.8c0.5-0.2,0.7-0.4,0.9-0.8c0.7,0.3,1.9,0.3,2.1,1.1
			c0.3,0.8-0.3,1,0.2,1.7c0.4,0.6,1.4,0.9,1.8,1.5c0.6,0,0.8,0,1.1-0.3c1.1,0.2,1.2,1.1,2,1.7c-0.1,0.5,0,0.5-0.3,0.8
			c0.6,1.3,0.9,0.8,2,1.4c0.4,0.2,2.2,3.1,2.3,3.6c-1,0.1-1.6,0.7-2.4,0c-0.7,0-0.7,0.2-1.2,0.3c0,0.9,0.1,1,0.5,1.5
			c0.7,0.1,1.2,0.3,1.7-0.2c0.3,0.4,0.6,0.7,0.9,1.1c0.8,0,1.1-0.4,1.4-0.9c1.1,0.5,1.2,2.3,1.8,2.9c-0.2,0.2-0.6,0.4-0.9,0.6
			c-0.1,0.8-0.4,0.9,0,1.4c-0.3,0.3-0.6,0.5-0.9,0.9c-0.3,0.5,0,1.6-0.2,2.1v0.2c0.4,0,0.7,0,0.9-0.2c0.8-0.3,1.1-1.5,1.5-2.3
			c0.4,0,0.4,0,0.6,0.2c0.6,0.2,1.8,2.5,2,3.2c0.1,0.3,0,0.5-0.3,0.8v0.3c-0.6-0.7-0.6-1.4-0.8-2.1c-0.3-0.1-0.7-0.2-0.9-0.5
			c-1.9,0.3-0.5,1.3-0.8,2.1c-0.1,0.3-0.5,0.2-0.6,0.3c-0.4,0.6,0.7,0.5-0.5,1.2v0.3c0.5,0,1.1,0,1.4,0.2c1.6,0.1,2-0.3,2.1-1.4
			c0.5,0.8,0.1,1.2-0.2,2c-0.2,0.6,0.2,1,0.3,1.4c-0.1,0.2-0.5,0.2-0.5,0.6c0.1,0.5,0.7,0.4,0.9,0.8v0.2c-0.1,0.4-0.1,0.7-0.2,1.1
			c0.1,0.3,0.3,0.4,0.5,0.8c0.3,0.1,0.6,0.1,0.9,0.2c0.4-0.5,0.9-1,1.4-1.5c0.6,0.8,0.6,2,1.2,2.9v0.3c-0.5-0.1-0.4,0-0.6-0.3
			c-0.9,0-2.2,0.7-2.6,1.2h-0.2c0.2,0.5,0.4,0.7,0.9,0.9c0.4,0.3,2.1,0,2.4-0.5c0.9,0.5,0.8,1.7,1.4,2.6v0.5
			c-0.7-0.4-2.1-0.5-2.7-0.8c-0.3,0.3-1,0.7-1.4,0.9c0.1,0.5,0.1,0.9,0.2,1.4c0.1,0.1,0.1,0.1,0.2,0.2c1.1,0.2,1.1-0.2,1.7-0.3
			c0.7-0.1,0.9,0.8,1.7,0.2c0.5-0.2,0.4-0.1,0.5-0.8h0.2c0.7,1.4,1.2,2.2-0.3,3c0,0.4,0,0.8,0.2,1.1c0.3,0.2,1.1,0.1,1.4,0.3
			c0.6,1-0.2,6.5,0.5,6.9c-0.1,0.6-0.2,0.5-0.3,1.1c-0.8-0.3-1.1,0.1-1.7,0.5v0.5h-0.5v0.3c0.9,0.4,1.1,1.1,1.8,1.7
			c0,1.1-0.7,2.4-1.5,2.7c0.2,0.6,0.5,0.9,1.2,1.1c-0.2,1-0.3,2-0.3,2.9c-0.4-0.2-0.1,0.1-0.3-0.3c-1.3,0.1-1.3,0.8-2.1,1.4
			c-0.1,0.8-0.1,1.3,0,2.1c0.6,0.1,1.1,0.3,1.5-0.2h0.3c-0.2,1.3-0.8,3-1.2,4.1v0.8c-0.1,0.1-0.5,0.3-0.6,0.5
			c-0.1,0.5-0.1,0.9-0.2,1.4c-0.3,0.8-0.9,1.7-1.2,2.4c-0.8,1.8-1,3.3-1.8,5l-0.8,0.8c0.1,0.2,0.1,0.3,0.2,0.5
			c-0.1,0.6-0.6,1.6-0.9,2.3c-0.6,1.3-1.9,2.5-2.7,3.6c-0.3,0.5-0.3,1-0.6,1.5C328.7,381.2,327.8,382.3,327,383.3z M478.6,317.9
			c-0.2,0.1-0.3,0.1-0.6,0.2c0.1-0.1,0.2-0.2,0.3-0.3h0.3V317.9z M518.5,296.9c-0.4,0-0.4,0-0.6-0.2h-0.5c0.1,0.4,0.5,0.5,0.6,0.8
			c0,0.2-0.1,0.4-0.2,0.6c0.1,1.2,0,3.4-1.2,4.2v-0.2c-0.1-0.1,0-0.6,0.2-0.9v-0.5c-0.6,0.2-0.6,0.4-1.1,0c-0.8,0.1-0.7,0.2-1.2,0.5
			c0,0.8,0,2,0.6,2.4c-0.3,0.9-1.8,1.5-2.4,1.7c0-0.2-0.1-0.3-0.2-0.5c0.6-0.6-0.1-0.7,0.6-1.1c0-0.8-0.2-0.9-0.5-1.4
			c-1.6-0.1-2.3,1.8-1.7,2.7c0,1.5-0.6,1.1-1.2,1.8c-0.6,0-1-0.1-1.2,0h-0.6c0.2-0.4,0.4-2.4,0.2-2.9c-0.2-0.7-1-1-1.7-0.5
			c-0.2,0.2-0.4,0.4-0.6,0.6c0.1,1.2,0.5,2.6,0.9,3.5c-0.8,0.4-2.4,0.9-3.3,1.1c-0.1-0.5-0.2-1.7-0.5-2.1c0.2-0.6,0.4-0.4,0.6-0.9
			c0.1-0.2,0.1,0,0.2-0.3c-0.1-0.1-0.2-0.3-0.3-0.5c-0.5-0.1-0.9-0.3-1.2-0.5c-0.3,0.3-0.8,0.8-1.2,1.1c0,1.2,0.2,2.5,0.8,3.2
			c-0.2,1.4-2.1,0.9-2.9,1.8H498c0.5-1.2,0.6-2.4,0.9-3.5c-0.2-0.2-0.4-0.4-0.6-0.6c-0.3,0.1-0.3,0-0.5,0.2c-1.9,0.2-1,3-2,4.4
			c-0.6,1.1-2.4,0.5-3.2,1.4h-0.3c0.2-1.1,0.3-2.2,0.5-3.3c-0.3-0.3-0.3-0.6-0.8-0.8c-0.2-0.1,0-0.1-0.3-0.2
			c-0.2,0.3-0.6,0.4-0.9,0.6c-0.3,1.1-0.5,2.6-0.6,3.9c-0.2,0.1-0.3,0.1-0.5,0.2c-0.2,0.1,0,0.1-0.3,0.2c-0.2-0.6-0.4-1.2-0.5-2
			h-0.3c-0.1,0.4-0.3,1.7-0.3,2.3c-0.5,0.1-2,0-2.4,0.3h-0.5c0.3-0.5,1.3-2.2,1.1-2.7c-0.2-0.5-0.7-0.5-1.2-0.6
			c-0.7,0.8-1.4,1.8-1.8,2.9v0.6c-0.3,0.6-3.9,1.5-4.8,1.5c0.1-0.9,0-1.4,0.2-2c-0.5-0.3-0.7-0.6-0.9-1.1c-0.3,0-0.4,0.1-0.6,0.2
			c-0.2,0.6-0.8,1.7-0.3,2.4c0,2.3-2.8,1.2-4.1,2.3h-0.5c0.1-0.4,0.5-0.6,0.6-0.9c0.2-0.6-0.3-0.4,0-1.2c-0.2-0.1-0.3-0.2-0.5-0.3
			c-1.5,0-2.2,1.7-2.3,3c-1,0.5-2,1.1-3.6,1.1c0-0.6,0.3-1.4,0.2-1.7c-0.2-0.4,0-0.3-0.5-0.5c-0.2-0.1-0.4-0.1-0.8-0.2
			c-0.6,0.9-0.7,2.2-1.2,2.9c-0.1,0.4-0.5,0.7-0.8,0.9c-1.2-0.6-2.4,0.6-3.5,0.8c0-0.4,0.1-0.8,0.2-1.2c-0.3-0.4-0.5-0.7-0.8-1.1
			c-0.4,0-0.7,0-0.9,0.2c-0.2,0.1-0.3,0.1-0.5,0.2c0,0.7,0,1.3,0.3,1.7c-0.1,1.5-2.3,1.2-3.2,2c-0.4-0.1-0.4-0.2-0.8-0.3v-1.1h0.5
			c-0.2-0.5-0.3-0.6-0.3-1.4c-0.8-0.1-0.7-0.2-1.5-0.2c-0.8,2.1-0.7,4.9-3.6,3.9c-0.1,0.2-0.2,0.5-0.3,0.6c-0.1,0.1-0.3,0.2-0.5,0.3
			h-0.3c0-0.6,0.3-1.8,0.2-2.1c-0.2-0.5-0.5-0.6-0.8-1.1c-0.4,0.1-0.5,0.2-0.8,0.5c-0.3,0.4-0.2,1.1-0.5,1.5
			c0.1,2.3-1.1,2.1-2.6,2.7c-0.3-1.1,0.3-1.8-0.3-2.9c-0.4,0-0.5-0.1-0.8-0.2c-0.2,0.2-0.4,0.4-0.6,0.6c-0.3,0.4-0.6,2.3-0.3,2.7
			c-0.2,0.7-2.8,2-3.8,2c0-0.5,0-0.7,0.2-1.1c0-0.7-0.1-0.8-0.3-1.2c-0.9-0.2-1.2,0-1.8,0.5c-0.1,0.7-0.2,2.2,0.2,2.6
			c-0.3,0.8-2.6,2.1-3.6,2.3c0-0.4,0-0.4-0.2-0.6c0-0.9-0.3-1-0.6-1.5c-0.7,0-1.2,0-1.5,0.3c-0.4,0.6,0.3,2.2,0.8,2.6
			c-0.1,0.8-2.7,2-3.6,2.1c-0.1-0.5-0.2-0.6-0.3-1.1c-0.4-0.1-0.7-0.2-1.1,0c-0.4,0.1-0.4,0.3-0.8,0.5c0,0.9,0.2,0.9,0.5,1.5
			c-0.5,0.5-1.6,0.9-2,1.4h-0.3v-1.1l-0.5-0.5c-1,0-1.1,0.1-1.7,0.5c0,0.8,0.1,1.6,0.5,2.1c-0.2,1-1.8,1.4-2.4,2.1h-0.3
			c-0.4-0.9-0.8-1.7-1.2-2.4c-0.8,0-1.1,0.1-1.5,0.5c-0.3,0.3,0.7,2.3,1.2,2.9c-0.1,0.8-1.2,1.8-2,2c-0.2,0.1,0,0.1-0.3,0.2
			c-0.3-0.4-0.7-0.9-0.9-1.5c-0.8,0-1.1,0.1-1.5,0.3c0,1,0.1,1.4,0.8,2.1c-0.4,1.2-1.4,1.1-2.1,2c-0.8-0.5-0.1-1.3-0.3-1.8
			c-0.2-0.3-0.3-0.3-0.5-0.6c-0.9,0.1-0.9,0.4-1.5,0.6c-0.2,0.8-0.3,2.1,0.5,2.7c0,0.9-0.2,0.8-0.6,1.4h-0.6c-0.1-0.6-0.3-1,0-1.4
			c0-1.3-0.3-1.4-0.8-2.1c-0.3,0.1-0.5,0.1-0.8,0.2c-0.5,1.7-0.9,2.8,0.2,4.4c-0.6,0.4-1.4,0.8-1.8,1.4c-0.3,0-0.4-0.1-0.6-0.2
			c-0.1-0.5-0.3-1.5,0-2c-0.1-0.8-0.4-0.6-0.9-1.1c-0.4,0-0.4,0-0.6,0.2c-0.5,0.7-0.8,2.7,0,3.6c-0.1,0.7-1,1.2-1.7,1.4
			c-0.2,0.1-0.3,0-0.6-0.2c0-0.5,0.1-1.4-0.2-1.7c-0.1-1-0.4-0.8-0.9-1.2c-0.8,0.1-0.6,0.4-1.1,0.8c0,0.9,0.5,2.5,1.1,2.9
			c-0.2,1.5-2.7,2-3.9,2.4c-0.5-1-0.6-2.2,0-3.2c-0.3-0.2-0.8-0.4-1.1-0.6c-0.7,0.2-1.2,1-1.4,1.7c-0.1,0.1,0,1.5,0,2.1l0.8,0.8
			c0.1,0.1,0,0,0,0.2c-0.5,0.9-2.9,1.3-3.6,2.1h-0.3c0-1-0.3-2,0.2-2.6c-0.1-0.8-0.3-0.6-0.6-1.1c-0.4,0-0.7,0-0.9,0.2
			c-0.8,1-0.3,3.4-0.2,4.4c-0.7,0.5-1.3,1-2.4,1.1c0-0.9,0.2-1.5,0.6-2c-0.1-0.8-0.3-0.6-0.6-1.1c-0.4,0-0.6,0-0.8,0.2
			c-1,0.4-1.3,1.6-1.1,2.4c-0.1,0.1-0.1,0.1-0.2,0.2c-0.5,0-0.8-0.1-1.1-0.3h-0.8v0.2c0.7,0.3,1.5,0.6,2.1,0.9
			c-0.2,1.1-1.1,0.9-1.8,1.5h-0.5c0.1-0.4,0.2-0.8,0.5-1.1c0-1-0.3-0.9-0.9-1.4c-2,0.1-1.5,2.2-1.4,3.3c-0.5,0.3-1.5,0.6-2,1.1h-0.2
			c0.1-0.4,0.1-0.5,0.3-0.8c-0.1-1.2-1.2-1.2-2-0.8c-0.1,0.5-0.3,1.8-0.6,2.3c-0.4,0.7-1.6,0.7-2.1,1.2h-0.5
			c0.1-0.5,0.3-0.8,0.6-1.1c0-0.8-0.2-0.9-0.5-1.4c-0.7,0.1-1.1,0.6-1.7,0.9c-0.1,0.5-0.5,1.4-0.2,2c-0.3,0.9-1.6,0.9-2.3,1.4h-0.3
			c0.1-0.7,0.5-1.5,0.5-1.7c0-0.6-0.1-0.7-0.3-1.1c-2.4,0-1.7,1.7-2.3,3c-0.3,0.3-0.5,0.6-0.8,0.9H367c0-1.1,0.6-1.9,0-2.9v-0.3
			c-0.8-0.1-1,0-1.7,0.3c-0.1,0.8,0,2.8-0.3,3.5c-0.4,0.4-1.4,0.7-2.1,0.8c0.1-0.7,0.7-1.9,0.3-2.6c-0.2-0.6-0.8-0.7-1.2-0.3
			c-1.1,0.7-0.4,2.8-0.9,3.6c-0.2,0.4-1.4,0.6-1.8,0.9h-0.5c0.1-0.5,0.2-1.6,0.3-1.8c0-0.3-0.1-0.4-0.2-0.6c-1.1,0-1.4,0.2-2.1,0.5
			c-0.3,1.3-0.7,1.9-0.5,3c-0.9,0.5-2.6,0.8-3.3,1.5h-0.3c0.1-0.5,0.2-0.8,0.3-1.1c-0.1-0.5-0.1-0.4-0.3-0.8
			c-0.7-0.1-1.1-0.3-1.5,0.2c-0.4,0.3-0.7,1.6-0.8,2.3c-0.9,0.2-1.7,0.8-2.6,0.9c0.1-0.5,0.2-0.6,0.3-0.9c-0.3-0.2-0.7-0.4-0.9-0.6
			c-0.9,0.1-1.1,0.8-1.7,1.4c-0.2,0.1-0.5,0-1.1,0c0.2,0.4,0.3,0.8,0.5,1.2c-0.8,0.3-1.5,0.3-2.1,0.6v0.5h-0.5
			c0.1-0.5,0.2-0.6,0.5-0.9c-0.2-0.6-0.5-0.3-0.9-0.9c-1.5,0.1-1.7,1.7-1.8,2.9c-1.1,0.3-1.8,0.7-2.6,1.2c-0.2,0.1-0.2,0-0.5-0.2
			c-0.1-0.1,0-0.5-0.2-0.8c-0.1-0.2-0.1-0.3-0.2-0.5c-0.4,0-0.6,0-0.8,0.2c-1,0.4-1.2,1.8-2,2.4c0.1,0.4,0.2,0.3,0.3,0.6
			c-2,0.9-4.9,2.2-6.3,3.6h-0.3c1.2-1.8,2.3-4.1,4.1-5.3c0.6-0.4,1.2-0.5,1.8-0.9c0.3-0.2,0.4-1,0.8-1.2c0.7-0.5,1.8-0.4,2.6-0.9
			c0.7-0.4,1.2-1.3,2-1.7c0.8-0.1,1.5-0.2,2.3-0.3c0.7-0.2,1.8-0.6,2.6-0.9c2-0.9,4.2-2.3,6.2-3.3c1.9-0.9,3.8-1.1,5.6-2.1
			c1.7-0.9,3.6-2.3,5.4-3c1.2-0.5,2.3-0.6,3.5-1.2c0.1-0.1,0.6-0.7,0.6-0.8c0.2,0.1,0.3,0.1,0.5,0.2l0.8-0.8h0.8
			c0.7-0.3,1.3-1.2,2-1.7c0.8-0.5,1.7-0.6,2.4-1.1c0.6-0.4,1.1-1.2,1.8-1.5c9.1-4.1,17.9-9,26.4-13.7c0.4-0.2,0.8-0.1,1.2-0.3
			c1-0.5,2.1-1.3,3-1.8c0.3-0.1,0.6-0.1,0.9-0.2c0-0.2,0.1-0.3,0.2-0.5c1.1-0.8,2.5-0.9,3.6-1.7c0.4-0.3,0.9-1,1.4-1.2
			c0.3-0.1,0.6-0.1,0.9-0.2c1.7-0.9,3.6-2,5-3.2c0.3-0.3,1,0,1.4-0.3c0.2-0.1,0.8-1.4,1.2-1.7c1.4-1,4.3-1.7,5.3-2.9
			c0.1,0.1,0.2,0.2,0.3,0.3h0.6c-0.1-0.1-0.2-0.2-0.3-0.3c0.5-1.1,2-1.1,2.9-1.8c1.7-1.4,3.6-2.6,5.6-3.8c0.8-0.5,1.5-1.5,2.3-2
			c0.6-0.3,1.2-0.2,1.8-0.6c0.5-0.3,0.9-0.9,1.4-1.2c0.4-0.2,0.8,0,1.2-0.3c0.9-0.6,2.1-1.2,3-1.8c0-0.2,0.1-0.3,0.2-0.5h0.9
			c0.3-0.1,1-0.5,1.4-0.8c0.3-0.2,0.9-0.6,1.2-0.9v-0.3c0.5-0.4,1.3-0.3,1.8-0.6c0.9-0.5,2-1.4,2.9-1.8h0.8c0.3-0.2,0.6-0.8,0.9-1.1
			l1.4-0.5c0.5-0.2,1.2-0.8,1.7-1.1c2.9-1.3,5.6-2,8.5-3.3c1.5-0.7,3.4-1.9,5-2.6c0.6-0.1,1.1-0.2,1.7-0.3c0.4-0.2,0.8-0.7,1.2-0.9
			c0.8-0.4,2.2-1,2.9-1.2l0.6,0.2c0-0.2,0.1-0.3,0.2-0.5c0.7-0.5,2.7-0.7,3.6-1.1c0.9-0.4,2-1.3,2.9-1.5c0.2,0,0.3,0.3,0.6,0.2
			c1.7-0.5,3.6-1.6,5.1-2.3c0.8-0.4,3.3-1.2,3.3-1.2c2.8-0.5,5.5-2,8-2.9c0.9-0.3,1.6,0,2.3-0.2c0.3-0.1,1-0.5,1.4-0.6
			c0.6-0.1,1.9,0,2.7-0.3c1-0.3,5.1-1.3,5.6-0.9c0.3-0.2,0.2-0.3,0.5-0.6c0.8-0.6,5-1.9,6-1.2c0.5-0.1,0.5-0.2,0.9-0.5
			c-0.1-0.7-0.5-1-0.8-1.5c-2.4,0-3.7,0.7-5,1.4c-0.6,0.1-1.1,0.1-1.7,0.2c-0.1,0.2-0.2,0.3-0.3,0.5c-0.9,0.1-1.7,0.2-2.6,0.3
			c-0.5,0.2-1.5,0.6-2,0.8c-0.8,0.3-1.5-0.2-2.1,0c-0.1,0-0.3,0.3-0.5,0.3c-0.2,0-0.2-0.2-0.6-0.2c-5.5,1.4-12.3,3.7-18,6.2
			c-1.5,0.6-2.8,0.6-4.4,1.2c-0.4,0.1-0.7,0.6-1.1,0.8c-0.6-0.2-1.5,0.6-2.1,0.9c-0.8,0.4-1.7,0.3-2.6,0.6c-0.6,0.2-1.5,0.8-2.1,1.1
			c-2.2,1-4.2,1.7-6.5,2.6c-1.4,0.6-3,1.6-4.4,2.3h-0.8c-0.7,0.3-1.7,1.1-2.4,1.4c-2.4,1-4.7,1.5-6.5,3.2c-0.7,0.7-3.1,1.2-4.1,1.8
			c-3,1.8-6.4,3.7-9.4,5.6c-1.7,1.1-3.6,1.7-5.3,2.9c-0.3,0.4-0.6,0.7-0.9,1.1c-0.9,0.6-1.8,0.8-2.7,1.4c-0.7,0.4-1.4,1.4-2.1,1.8
			c-1,0.7-2.3,0.8-3.3,1.5c-0.6,0.4-1.2,1.2-1.8,1.5c-1.8,1-3.5,1.6-5.3,2.7c-1.2,0.7-2.1,2-3.3,2.7c-0.4,0.2-0.7,0.1-1.1,0.3
			c-0.2,0.3-0.4,0.5-0.6,0.8c-1.1,0.6-2.4,0.7-3.5,1.4c-0.2,0.2-0.3,0.4-0.5,0.6c-0.9,0.6-1.8,0.8-2.7,1.4l-0.9,0.9
			c-1,0.5-1.8,0.5-2.7,1.1c-0.3,0.2-0.7,0.7-1.1,0.9c-1.4,0.7-2.8,0.8-4.1,1.7c-2.1,1.4-4.3,2.5-6.6,3.8c-0.4,0.2-0.9,0.8-1.4,1.1
			c-0.5,0.1-0.9,0.2-1.4,0.3c-1.5,0.7-2.9,2-4.4,2.7c-0.9,0.5-2.1,0.3-3,0.9c-0.2,0.2-0.3,0.4-0.5,0.6c-0.9,0.6-2,0.6-2.9,1.2
			c-0.6,0.4-1.4,1.2-2.1,1.5c-0.9,0.4-1.5,0.3-2.3,0.8c-0.7,0.5-1.4,1.2-2.1,1.7c-0.7,0.3-1.4,0.5-2.1,0.8c-0.2,0.3-0.4,0.5-0.6,0.8
			c-0.4,0.2-0.8,0.3-1.2,0.5c-0.1,0.2-0.1,0.3-0.2,0.5c-0.3,0.1-0.6,0.1-0.9,0.2c-0.8,0.4-1.7,1.2-2.6,1.5c-0.7,0.3-1.2,0.1-1.8,0.5
			c-3.2,1.8-6.6,3.8-10.1,5.3h-1.1c-0.9,0.3-1.8,1.3-2.7,1.7c-1.4,0.6-2.6,1.4-3.9,2c-1.2,0.2-2.3,0.4-3.5,0.6
			c-0.4,0.2-0.8,0.7-1.2,0.9c-1.1,0.5-2.9,0.8-3,1.8c-0.4,0.2-0.8,0.3-1.1,0.6h-0.6c0.4-1,1.8-4.6,2.6-5c0,0,1.7,0,2.4,0
			c0-0.5-0.8-2.3-0.9-2.4c-0.2-0.1-0.2,0-0.5,0.2h-0.2c0.2-0.9,0.5-1.3,0.8-2.3h0.5c0-1.3,0.2-1.8,0.6-2.6c0.4,0.1,0.7,0.1,0.9,0.3
			c1,0,0.9-0.3,1.4-0.8c0-0.7-0.1-0.8-0.3-1.2h-0.6V363c1.1-0.7,1.9-2,3-2.7c0.6-0.4,3-1.3,3.3-1.7c0.2-0.2,0-0.6,0.3-0.8
			c0.4-0.1,0.7-0.1,1.1-0.2c0.3-0.1,0.7-0.6,1.1-0.8l1.4-0.5c2.6-1.4,5.7-3,8.5-4.2c1.3-0.6,2.5-0.5,3.9-1.1
			c3.2-1.2,7.1-3.2,10.4-4.7c0.7-0.3,1.2-0.2,2-0.5c0.2-0.1,0.6-0.5,0.8-0.6c0.5-0.1,0.9-0.1,1.4-0.2c0.3-0.1,0.6-0.6,0.9-0.8
			c0.6-0.3,1.1-0.1,1.7-0.3c0.7-0.3,1.6-1,2.3-1.4h0.8c0.2-0.1,0.2-0.5,0.3-0.6h0.9c0.1-0.2,0.2-0.3,0.3-0.5
			c0.6-0.3,1.2-0.1,1.8-0.5c0.2-0.1,0.4-0.6,0.6-0.8h0.8c0.8-0.3,1.6-1.2,2.4-1.5c0.4-0.1,0.7-0.1,1.1-0.2c3.5-1.8,7.3-3.7,10.7-5.6
			c0.7-0.2,1.4-0.3,2.1-0.5c1.3-0.7,2.9-1.9,4.2-2.6c0.7-0.4,1.6-0.3,2.3-0.8c0.2-0.3,0.4-0.5,0.6-0.8c0.4-0.1,0.7-0.1,1.1-0.2
			c0.9-0.4,2.2-1.3,3-1.8c0.5-0.3,1.3-0.1,1.8-0.5c0-0.2,0.1-0.3,0.2-0.5c0.5-0.4,0.9-0.3,1.5-0.6c0.7-0.4,1.3-0.8,2-1.2
			c0.4-0.1,0.7-0.1,1.1-0.2c0.1-0.1,0.1-0.5,0.3-0.6c1-0.6,2.9-0.7,3.8-1.4c0-0.2,0.1-0.3,0.2-0.5c0.4-0.1,0.8-0.1,1.2-0.2
			c0.6-0.2,1.3-0.8,1.8-1.1c0.6-0.3,1,0,1.5-0.3c0.2-0.2,0.3-0.4,0.5-0.6c0.6-0.4,1.4-0.3,2-0.8c0.7-0.5,1.5-0.8,2.3-1.4
			c0.4-0.3,0.9-1,1.4-1.2c0.8-0.4,1.6-0.5,2.4-0.9c0.9-0.5,1.9-1.5,2.7-2.1c1-0.6,2-0.9,3-1.5c0.8-0.5,1.6-1.3,2.4-1.8l1.4-0.5
			c0.2-0.1,0.2-0.6,0.5-0.8c0.9-0.6,2.4-0.7,3.3-1.4c2.8-1.8,5.6-4,8.6-5.6c0.5-0.1,1-0.2,1.5-0.3c0.1-0.2,0.2-0.4,0.3-0.6
			c0.6-0.4,1.3-0.3,2-0.6c0.6-0.3,1.7-0.7,2.3-1.1c0.4-0.2,0.8-0.8,1.2-1.1c0.8-0.4,1.5-0.4,2.4-0.8c1.1-0.5,2.2-1.7,3.3-2.3h0.8
			c0.2-0.2,0.3-0.4,0.5-0.6c1.1-0.7,2.3-0.8,3.5-1.5c0.3-0.4,0.5-0.7,0.8-1.1c0.3,0.1,0.6,0.1,0.9,0.2l0.5-0.5
			c1.3-0.6,2.5-0.7,3.8-1.4c0.8-0.4,1.7-1.2,2.6-1.5c2.6-1,5.4-1.5,7.7-2.6c0.6-0.3,1.6-0.1,2.3-0.3c1.5-0.5,3.3-1,4.5-1.7
			c0.9,0.4,4.2-0.6,5-0.9c0.5-0.2,0.9,0.2,1.2,0.2c0.6-0.1,1.6-0.7,2.1-0.9c0.3,0.1,0.6,0.1,0.9,0.2c0.7-0.1,1.5-0.5,2.3-0.6
			c1.5-0.2,3.5,0.6,4.4-0.6h0.3c-0.2,1.5,0.1,4.4,0.8,6.2c0.2,0.5-0.4,1.5-0.2,2.6C518.7,292.1,518.6,295.1,518.5,296.9z
			 M264.5,310.5c-0.3-0.2-0.9,0.3-1.5,0.5v0.3c0.3,0.3,0.7,0.8,0.9,1.2c1,0,0.8-0.2,1.2-0.8C265.1,310.9,265.1,310.7,264.5,310.5z
			 M269.1,302.3c0.4-0.1,0.7-0.2,1.1-0.3c-0.1-0.3,0-0.3-0.2-0.5v-0.3h-1.2c0,0.4,0,0.4,0.2,0.6C269,302,269,302.2,269.1,302.3z
			 M273.6,308.1c0.2,0.2,0.3,0.4,0.5,0.6c0.4,0,0.2,0.1,0.5,0c0.7-0.1,0.5-0.2,0.9-0.5c-0.1-0.6-0.1-1.1-0.2-1.7l-0.2-0.2
			c-0.6,0.1-0.8,0.3-1.2,0.5C273.7,307.3,273.6,307.5,273.6,308.1z M279.9,295.7c0.9,0,1.3-0.1,1.7-0.6c0.2-0.1,0-0.4-0.2-0.6
			c-0.2-0.4-0.4-0.4-0.6-0.8c-0.8,0-1,0.1-1.5,0.3v1.2C279.6,295.4,279.7,295.4,279.9,295.7z M281.7,293.1c1,0,0.8-0.3,1.2-0.8
			c-0.1-0.7-0.5-1.8-0.9-2.1v-0.2c1,0.1,1.7-0.2,2.7-0.5c-0.1-0.5-0.2-0.6-0.3-1.1c-0.7-0.1-1.6,0.1-2.6,0v0.5c-0.4,0-0.4,0-0.6,0.2
			c-0.2,0.3-0.2,0.5,0,0.8c-0.3,0.3-0.5,0.4-1.1,0.5c0,0.9,0,1.4,0.5,1.8C280.9,292.7,281.3,292.8,281.7,293.1z M285.2,298.1
			c-0.5,0-0.8,0.1-1.1,0.3c-0.4,0.5-0.2,1.2-0.2,2c1,0,0.9-0.3,1.5-0.6c0-0.5,0.1-0.4,0-0.6C285.5,298.5,285.4,298.5,285.2,298.1z
			 M286.7,289.7c0.9,0,1-0.1,1.5-0.5c0-1.3-1.9-2.5-2.9-1.8c-0.6,0.3-0.6,1-0.8,1.5c0.2,0.2,0.3,0.4,0.5,0.6
			C285.9,289.5,286.4,289.3,286.7,289.7z M290,293.6c-0.7-0.1-1-0.1-1.7,0l-0.2,0.2v0.9c0.2,0.2,0.3,0.4,0.5,0.6
			c0.3,0.1,0.1,0,0.3,0.2c0.9,0,1.6-0.7,1.1-1.5V293.6z M292.5,306.9c-1.7-0.1-1.8,0.4-2,1.5c0.3,0.1,0.5,0.1,0.8,0.3
			c1.1,0,1.2-0.3,1.8-0.6c0.1-0.2,0.1-0.3,0.2-0.5c-0.2-0.2-0.3-0.4-0.5-0.6C292.5,306.9,292.6,307,292.5,306.9z M292.5,291.6
			c-0.1,0.2-0.1,0.3-0.2,0.5c-0.1,0.2-0.1,0-0.2,0.3c0.4,0.3,1,0.6,1.4,0.9c0.4,0,0.5-0.1,0.8-0.2c-0.1-0.5-0.1-1-0.2-1.5
			C293.4,291.5,293,291.7,292.5,291.6z M294.7,287.7c0.2-0.4-0.1-0.9,0.2-1.4c-0.2-0.6-0.6-0.6-0.9-1.1c-1.4,0.1-1.2,1.1-1.4,2.1
			c0.2,0.2,0.4,0.5,0.6,0.8C294.1,288.2,294.4,288.2,294.7,287.7z M295.3,302.6h-0.5c0.1,0.3-0.1,0.6-0.2,1.4
			c0.3,0.2,0.7,0.5,1.1,0.8c0.6-0.2,0.6-0.5,0.9-0.9c-0.1-0.7-0.3-0.9-0.6-1.4C295.7,302.5,295.5,302.5,295.3,302.6z M297,293.7
			c-0.8,0-1.1,0.1-1.5,0.3v0.9c1.1,0.7,1.1,0.8,2.3,0C297.7,294.1,297.4,294.2,297,293.7z M298.8,288.9h1.2c0-0.6,0-0.6,0.3-0.9
			c-0.1-0.6-0.4-0.8-0.9-0.9c-0.4-0.3-0.8-0.1-1.4,0c0,0.4,0,0.4,0.2,0.6C298.3,288.5,298.5,288.4,298.8,288.9z M299,304.6
			c-0.5,0.2-0.4,0.3-0.8,0.6c0.1,0.8,0.3,0.6,0.5,1.2c0.3,0.1,0.3,0,0.5,0.2c0.8-0.1,0.9-0.5,1.5-0.8c-0.2-0.5-0.5-0.8-0.8-1.2
			C299.4,304.6,299.1,304.6,299,304.6z M304.2,288.6c0.1-0.1,0.3-0.2,0.5-0.3c0.1-0.3,0-0.1,0.2-0.3c0-2-1.7-1.7-2.9-2l-0.6,0.6v0.5
			c0.2,0.2,0.3,0.5,0.5,0.8C302.8,288,303.5,288.4,304.2,288.6z M307.3,298.3c-0.6-0.1-1.1-0.2-1.5,0.2c-0.2,0.1-0.3,0.1-0.5,0.2
			c-0.1,0.4-0.1,0.7-0.2,1.1c0.4,0.1,0.5,0.2,0.8,0.5c0.6,0,0.8-0.1,1.2-0.3c0.2-0.4,0.4-0.8,0.2-1.2V298.3z M309.2,301.1
			c-0.6,0.1-1.1,0.2-1.7,0.3l-0.2,0.2v0.6c0.2,0.2,0.4,0.5,0.6,0.8c0.8,0,1.1-0.1,1.5-0.3c0-0.5,0.1-0.4,0-0.6
			C309.5,301.5,309.4,301.5,309.2,301.1z M321.9,316.8c0-0.9-0.3-1-0.6-1.5c-0.6,0.1-1.1,0.3-1.5,0.6l1.2,1.2
			C321.6,317.1,321.6,317,321.9,316.8z M321.8,300.7c-0.5,0-1,0-1.2,0.2h-0.3c-0.1,0.4-0.1,0.8-0.2,1.2c0.2,0.1,0.4,0.3,0.6,0.5
			c0.8,0,1.1-0.1,1.5-0.5c0.1-0.3,0-0.6,0-1.1C321.8,300.8,322,300.9,321.8,300.7z M322.4,319.5c0-0.4,0-0.4-0.2-0.6
			c-0.1-0.4-0.2-0.3-0.3-0.6c-1,0-1,0.2-1.5,0.6c0,0.7,0.1,0.8,0.3,1.2c1.5-0.1,1.9,0.2,3,0.8c0.2-0.2,0.4-0.3,0.6-0.5
			c-0.1-0.7-0.2-0.9-0.5-1.4C323.1,319.2,323.1,319.4,322.4,319.5z M321.9,287.7c-0.3-0.1-0.1,0-0.3-0.2c-0.4,0-0.8,0-1.1,0.2
			c-0.1,0.1-0.1,0.9-0.2,1.4c0.4,0.1,0.7,0.1,0.9,0.3c0.5-0.1,0.5-0.2,0.9-0.3c0-0.4,0-0.7-0.2-0.9C322,288,322,287.8,321.9,287.7z
			 M321.1,286.9c0.5,0.1,0.5,0.1,0.9-0.2c0.4-0.3,0.6-1.3,0.8-1.8c-0.1-0.1-0.2-0.3-0.3-0.5c-0.8-0.3-1.2-0.1-2.1,0
			c0,0.5-0.1,0.9,0.2,1.2C320.6,286.5,320.8,286.5,321.1,286.9z M325.5,293.1c0.1-0.6,0.7-1.1,0.5-1.5c-0.2-0.4-0.2-0.3-0.6-0.5
			c-0.2-0.2-1.1,0.3-1.7,0.3c-0.1,0.2-0.2,0.3-0.3,0.5c0.1,0.6,0.3,0.8,0.5,1.2C324.5,293.2,324.9,293.2,325.5,293.1z M325.8,306.3
			c0-0.8-0.1-1.1-0.3-1.5c-0.6,0.1-1,0-1.5,0.3c-0.2,0.2,0.2,1,0.3,1.5c0.5,0.1,0.9,0.1,1.4,0.2
			C325.7,306.4,325.7,306.4,325.8,306.3z M327.2,331.2c1.1-0.1,1-0.5,1.5-1.2c-0.6-1.1-3.1-1.4-3.6,0.2
			C325.5,330.4,327,330.7,327.2,331.2z M327.6,324.7c-0.1-0.1-0.1-0.1-0.2-0.2c-0.1-0.6-0.1-0.5-0.3-0.9c-0.9,0-1,0.2-1.8,0.3
			c0.2,0.8,0.6,0.9,0.9,1.5C327.1,325.3,327,324.9,327.6,324.7z M328.1,286.5c0-0.8-0.1-1-0.3-1.5c-0.5,0-0.7-0.1-0.9,0
			c-0.4,0-0.6,0.1-0.9,0.2v0.9c0.2,0.2,0.4,0.6,0.6,0.9C327.4,286.9,327.6,286.7,328.1,286.5z M327.6,338.9
			c-0.1,0.6-0.3,0.9-0.3,1.7c0.3,0.1,0.3,0,0.5,0.2c0.8-0.2,0.8-0.6,1.2-1.1c-0.1-0.5-0.1-0.4-0.3-0.8H327.6z M330.5,300.8
			c0.3,0.2,0.4,0.4,0.8,0.6c0.3,0.2,0.6,0.2,0.8,0.2c0.4,0,0.5-0.1,0.8-0.2c0.1-0.3,0-0.1,0.2-0.3c0-0.9-0.3-0.9-0.6-1.4
			C331.2,299.8,331,300.2,330.5,300.8z M334,325.6c-0.4-0.2-0.8-0.3-1.2-0.5c-0.3,0.4-0.5,0.6-0.8,1.2c0.3,0.2,0.4,0.6,0.6,1.1
			c0.6-0.1,0.8-0.3,1.2-0.6C333.8,326.1,333.8,326.2,334,325.6z M334.3,368.5c0-0.8,0-1.5-0.2-1.8c-0.1-0.3-0.1-0.2-0.3-0.5
			c-0.9,0.2-1,0.9-1.7,1.4v0.5l0.9,0.9C333.8,368.9,333.9,368.7,334.3,368.5z M334,364.1c0.2-0.4,0.4-0.7,0.9-0.9
			c-0.1-0.7-0.4-0.7-0.8-1.1c-1,0.1-0.9,0.4-1.5,0.8v0.6c0.2,0.2,0.3,0.4,0.5,0.6C333.6,364,333.6,364,334,364.1z M335.8,343.9
			c0.1-0.7,0.3-1.1-0.2-1.5c0.2-0.4,0.3-0.4,0.6-0.6c0.1-0.1,0.1-0.1,0.2-0.2v0.2c0.4,0.2,0.3,0.2,0.8,0.3c-0.1,0.6-0.1,0.7-0.2,1.1
			c0.3,0.1,0.5,0.3,0.8,0.5c0.8,0,0.9-0.2,1.4-0.5c-0.1-1.4-0.6-0.8-0.9-1.4c-0.2-0.4,0.2-1-0.2-1.5c-0.6-0.3-1.6,0.3-2.1-0.2
			c-1.1,0-1,0.3-1.7,0.6c0,0.7,0,1,0.5,1.2c-0.2,0.5-0.6,1.1-0.9,1.5c0.2,0.6,0.5,0.7,0.9,1.1C335.5,344.4,335.4,344.2,335.8,343.9z
			 M335.5,353.8h-0.2c0.2,0.3,0.2,0.2,0.5,0.5c1.5,0,1.1-1.1,0.6-1.8c-0.9,0-1,0.1-1.5,0.5v0.5c0.2,0.1,0.3,0.2,0.5,0.3
			C335.4,353.7,335.4,353.8,335.5,353.8z M337,338h0.3c0.3-0.3,0.5-0.6,0.9-0.8c-0.1-0.2-0.5-0.9-0.5-1.1c0.1-0.5,0.7-0.6,0.5-1.2
			c-0.2-0.4-0.4-0.6-0.8-0.8c-0.4-0.2-0.7,0.1-1.2,0.3c0,1-0.1,1.7-0.3,2.4C336.3,337.2,336.7,337.6,337,338z M338.8,303.1l1.4,1.4
			h0.6c0-0.7-0.1-0.7,0.5-1.1v-0.3c-0.5-0.4-0.9-0.8-1.7-1.1C339.3,302.4,339,302.6,338.8,303.1z M341.4,322c0,0.5,0,0.8,0,0.9
			c0.2,0.6,0.5,0.6,0.9,0.9c1.1-0.1,0.8-0.5,1.2-1.2c-0.1-0.5-0.2-0.4-0.5-0.8C342.5,321.9,341.9,321.9,341.4,322z M342.6,300.1
			c-1,0-0.9,0.2-1.4,0.6v0.5c0.1,0.1,0.2,0.5,0.3,0.6c0.2,0.2,0.6,0.3,0.8,0.5c0.4-0.1,0.4-0.2,0.8-0.3c0.1-0.3,0.1-1,0.3-1.2
			c-0.1-0.4-0.2-0.3-0.3-0.6C342.6,300.1,342.8,300,342.6,300.1z M343.2,365.1h-0.3c-0.1,0.4-0.1,0.7-0.2,1.1
			c0.3,0.1,0.7,0.2,0.9,0.5c1.1,0,1.4-0.7,1.7-1.5c-0.1-0.1-0.2-0.3-0.3-0.5C344.3,364.7,343.7,364.8,343.2,365.1z M346.7,322.7
			c-0.8,0-1.1,0.1-1.5,0.3v1.1c0.1,0.1,0.2,0.2,0.3,0.3c0.4,0.3,1.1,0.3,1.8,0.3c0.2-0.2,0.4-0.3,0.8-0.5v-0.3
			C347.4,323.6,347.1,323.2,346.7,322.7z M352.7,350.8c-0.2,0.2-0.5,0.4-0.8,0.6c-0.1,0.3,0,0.1-0.2,0.3c0,0.4,0.1,0.5,0.2,0.8
			c0.9,0.2,1.3,0.2,2.3,0c0.1-0.3,0-0.1,0.2-0.3c-0.1-0.7-0.4-0.7-0.6-1.4H352.7z M358.1,358.4c-0.9,0-1.2,0.2-1.5,0.8
			c0.1,0.1,0.2,0.3,0.3,0.5c0.1,0.5,0.1,0.5,0.6,0.6c0.3,0.1,0.3,0,0.8,0c0.1-0.2,0.2-0.3,0.3-0.5c0-0.5,0-0.9-0.2-1.2
			C358.2,358.4,358.3,358.5,358.1,358.4z M357.7,298c-0.8,0.1-0.9,0.2-1.1,0.9c0.6,0.6,1.4,1.7,2.3,0.5h0.2
			c-0.2-0.5-0.4-0.9-0.6-1.4C358,297.9,357.8,297.9,357.7,298z M357.8,316.5c0,0.8,0.2,0.9,0.5,1.4c0.4,0,0.7,0,0.9-0.2h0.3
			c0.1-0.5,0.1-1,0.2-1.5c-0.4-0.1-0.5-0.1-0.8-0.3C358.3,316.1,358.3,316.3,357.8,316.5z M360.9,278.2c0.9,0,0.9-0.3,1.4-0.6
			c0-0.4,0-0.7-0.2-0.9v-0.3c-0.5,0-1,0-1.2,0.2c-0.4,0.1-0.4,0.3-0.8,0.5v0.5c0.2,0.2,0.3,0.4,0.5,0.6
			C360.8,278.1,360.7,278.1,360.9,278.2z M366.3,291.5c-0.8,0.3-0.9,0.8-1.1,1.7c0.3,0.1,0.5,0.1,0.8,0.3c1,0,1.2-0.1,1.5-0.8
			C367.8,292.1,366.8,291.8,366.3,291.5z M370.2,354.9c-0.1-0.5,0.1-0.2-0.3-0.5c-0.2-0.1,0-0.1-0.3-0.2c-0.5,0.7-1.1,1.4-1.8,2v0.6
			c0.1,0.1,0.2,0.3,0.3,0.5c0.4,0.4,1,0.4,1.4,0c0.4-0.5,0.4-1-0.2-1.4C369.5,355.5,369.8,355.1,370.2,354.9z M376.6,334.2
			c0-0.8-0.2-0.8-0.5-1.2c-0.7,0-1,0-1.4,0.3c-0.2,0.3-0.3,0.5-0.3,1.1c0.3,0.1,0.8,0.2,1.1,0.5
			C376.1,334.7,376.1,334.5,376.6,334.2z M377,339.5c-0.2-0.1,0-0.1-0.3-0.2c-0.3,0.3-0.7,0.7-1.2,0.9v0.5c0.3,0.2,0.7,0.4,0.9,0.6
			c0.4,0,0.4,0,0.6-0.2c0.4-0.2,0.3-0.3,0.6-0.6C377.5,339.9,377.4,339.8,377,339.5z M382.4,346.6c-1,0-1.4,0.1-2,0.5v0.5
			c0.4,0.3,0.6,0.5,0.8,1.1c1.5,0,1.3-0.6,1.8-1.2c0.1-0.1,0.1-0.1,0.2-0.2h-0.2L382.4,346.6z M406,335.9c-0.2,0.1-0.3,0.1-0.5,0.2
			v0.6h1.4c0-0.3-0.1-0.5-0.2-0.8C406.3,335.8,406.3,335.7,406,335.9z M407.4,336.9c0.6,0.3,0.7,0.1,1.5,0c-0.1-0.4-0.2-0.3-0.3-0.6
			C407.8,336.3,407.6,336.4,407.4,336.9z M516.8,300.7c0.4-0.1,0.4-0.1,0.6-0.5h0.2v-0.3h-0.3C517.1,300.2,517,300.3,516.8,300.7z"
			/>
	</g>
</g>
<ellipse class="st1" cx="420.7" cy="395.3" rx="101.6" ry="5.4"/>
</svg>
