<?xml version="1.0" encoding="utf-8"?>
<!-- Generator: Adobe Illustrator 21.0.0, SVG Export Plug-In . SVG Version: 6.00 Build 0)  -->
<svg version="1.1" id="Calque_1" xmlns="http://www.w3.org/2000/svg" xmlns:xlink="http://www.w3.org/1999/xlink" x="0px" y="0px"
	 viewBox="0 0 841.9 595.3" style="enable-background:new 0 0 841.9 595.3;" xml:space="preserve">
<style type="text/css">
	.st0{fill:#DADADA;}
</style>
<g>
	<g>
		<path d="M456.7,81.6c-0.1-0.1-0.8-0.6-1-0.8c-2.1-0.4-5.7-0.2-7.8,0v0.3c-2.4,0.1-3.6,1.4-5.1,2.1c-0.6,0.3-1.2,0.4-1.7,0.7
			c-0.4,0.3-0.4,0.6-0.8,0.8c0,0.4-0.1,0.9,0.1,1.1c-0.3,0.2-1.3,0.4-1.5,0.6c-0.3,0.2-0.5,0.9-0.7,1.2c-2.1,3.3,0.1,6.5,1.2,9.8
			c0,0.6-0.1,1.2-0.1,1.9c0.6,0.9,0,4.1-0.3,4.9v1.7c-0.2,0.5-0.3,1.2-0.4,1.7c-0.4,1.2,0.4,3.6-0.3,4.4c-0.1,0.2,0,0.1-0.1,0.2
			c-0.5-0.9-0.5-2-1.1-2.8c-0.2-0.1-0.1,0-0.3-0.1c-1.9,0-1.7,0.9-2.4,1.7c-1.2,1.4-2.9,2.7-4,4.1c-0.2,0.1-0.1,0-0.3,0.1H430
			c0.3-0.8,1.2-1.7,1.9-2.1c0-0.9-0.3-1.8-0.8-2.3c-0.2-0.3-0.5-0.4-1.1-0.5c0.1-1.1,0.9-1.6,1.4-2.4c0.3-0.5,0-1.1,0.1-1.5
			c0.1-0.3,0.4-0.8,0.3-1.1c-0.5-1.2-1.2-3.2-2.4-4.1c-1.5-1.2-2.3-1.6-3.2-3.3c-0.3-0.1-0.6-0.2-0.8-0.1c-1.4,0.3-3,3.9-3.6,4.9
			c-0.7,1.1-1.7,2.5-2.5,3.6c-0.7,0.9-0.8,1.9-1.7,2.6c0.1,0.1-1.4,2.8-1.7,3.3c-0.8,1.2-1.9,2.4-2.5,3.7c-0.5,1.1-0.3,3.2,0.3,4.1
			c0.2,0.3,0.7,1.3,0.6,1.6c-0.1,0.8-1,1-1.4,1.7c-0.6,1-1.1,2-1.5,3.1c0,0.4-0.1,0.8-0.1,1.2c-0.1,0.3-0.5,0.8-0.7,1.1
			c-0.3,0.8-0.3,1.6-0.6,2.2c-0.2,0.4,0.2,0.8,0.1,1c-1.2,2.5-2.7,5.5-3.6,8.3c-0.2,0.7,0.4,2.1,0.3,2.9c-0.4,1.8,0,4.3,0.6,6.2
			c0.4,1.2-0.9,2.7-0.6,3.8c0.2,0.7,1,1.3,1.2,2.1c0.1,0.4,0,0.8,0,1c0.1,0.4,0.6,0.9,0.7,1.3c0,0.2-0.4,0.6-0.3,1
			c0.2,0.7,0.7,1.6,1,2.2c0.3,0.7,0.1,2.1-0.1,2.7c-0.7,1.7-0.2,4.4-1.2,6.3c-0.3,0.5-0.4,1.2-1.1,1.4c-0.6,0.1-2.4-1.2-2.6-1.7
			c0-0.1,0-1.8,0.1-2.1c0.1-0.1,0.4-0.3,0.3-0.6c-0.2-0.4-1.2-1-1-1.8c0.2-0.6-0.6-1.5-0.3-2.6c0.2-0.9,0.2-3.3,0.7-4.4
			c0.3-0.7,0.9-2.2,0.3-3.1l-0.8-0.6c-0.1-0.2-0.2-0.4-0.3-0.7c-0.5-0.5-1.2-1-1.7-1.5c-0.2-0.2-0.1-0.5-0.3-0.7
			c-0.3-0.3-0.9-0.6-1.2-0.9c-0.4-0.3-0.3-0.6-0.6-1c-0.2-0.4-0.9-0.8-1.1-1.2c-0.5-0.8-0.7-1.8-1-2.5v-2c-0.3-0.7-0.6-1.6-0.8-2.2
			v-1c-0.3-0.7-0.6-1.9-1.1-2.6c-0.2-0.2-0.5-0.3-0.7-0.5v-0.7c-0.1,0-0.3-0.1-0.4-0.1c-0.7-0.5-1.5-1.2-1.8-2
			c-0.1-0.3,0.1-0.7,0.1-0.8v-1.6c0.3-0.5,1.1-0.9,1.4-1.5c0.3-0.7-0.5-1.3-0.1-1.9c0.1-0.1,0.5-0.3,0.6-0.5c0-0.2,0.1-0.5,0.1-0.7
			c0.6-1.1,1.8-1.9,2.8-2.7c0.4-0.3,0.2-0.7,0.4-1.1c0.3-0.5,1-1.1,1.5-1.5c0-0.6-0.2-0.6-0.6-0.8c-1.4,0-1,0.3-1.5,0.8
			c-0.2,0.1-0.5,0.2-0.7,0.4c-0.9,0.8-1.7,1.5-2.6,2.3c-0.3,0.2-1.1,0.6-1.4,0.8c-0.7,0.6-0.8,1.4-1.4,2.1c-1.3,1.5-2.4,3.2-2.9,5.3
			c-0.1,0.4,1,1.7,1.2,2.3c0.2,0.6,0,1,0.3,1.5c0.6,1,1.4,2.1,2.1,3c0,0.2,0.1,0.5,0.1,0.7c0.5,0.9,1,2.2,1.7,3.1
			c1,1.4-0.8,3.7,0.4,5c0,0.6,0.8,1.2,1.5,1.3c-0.3,1.3,0.5,4.8,1.7,6.2c0.5,0.6,0,0.9,0.3,1.5c0.2,0.3,0.7,0.9,0.8,1.2
			c0.2,0.5,0.1,1.1,0.4,1.7c0.2,0.2,0.5,0.3,0.7,0.5c0.3,0.3,0.2,0.6,0.4,1c0.4,0.8,1.5,1.6,1.9,2.3c0.6,0.9-0.3,2.6,0.3,4
			c0.1,0.3,0.6,0.7,0.7,0.9c0.6,1.2,0,2.3,0.7,3.4c0.3,0.4,1.5,1.1,1.1,1.6c-0.4,0.8-1.7,1.2-2.4,1.9c-0.9,0.8-1.6,3.4-1.4,4.9
			c0.1,0.7,0.3,1.3,0.7,2c0.1,0.2,0.6,0.4,0.6,0.7c-0.1,1.6,0.7,3.6,1.2,5c0.2,0.5-0.4,0.8-0.3,1.2c0.4,1.7-1.4,4.8-2.1,6.3
			c-0.2,0.4,0.1,1.1,0.1,1.3c0.3,1,0.2,3.5-0.3,4c-0.2,0.2-0.5,0.2-1.1,0.2l-0.1,0.1c0.1,1.1,0.5,2-0.3,3.1
			c-0.2,0.1-0.4,0.2-0.6,0.3c-0.4,0.7,0.8,1.3,0.6,1.7c0.5,0.5,1.5,0.4,1.8,1.1c0.4,0,0.5,0,0.7-0.1c0,0,0.8-0.6,0.8-0.7
			c0-0.2-0.1-0.4-0.1-0.6c0.1-0.3,0.6-0.6,0.7-0.9c0.1-0.5-0.5-0.9,0-1.4c0.5-0.2,1.9-0.2,2.6-0.3c-0.1,0.6-0.8,1.1-0.4,1.9
			c0.3,0.8,0.6,2.6,0.1,3.2c0,0.6,0.2,0.6,0.6,0.8c1.2,0,0.7-0.3,1.2-0.6c0.6-0.3,1.3-0.2,1.7-0.6c0.7-0.7,0.4-1.6,0.7-2.1
			c0-0.4-0.1-1.1,0.1-1.3c0.4,0.2,1.6,0.2,2.5,0.2c0.1,0.1,0.2,0.2,0.3,0.4c0,0,0.1,0.5,0,0.7c-0.3,0.6-0.6,2.7-1,3
			c0.1,0.8,1.1,0.5,1.8,0.8c3,0,1.8-2.2,2.6-3.2c0-0.1,0.1-0.2,0.1-0.3c1.2,0,1.6,0.4,2.4,0.7c0,1.3-0.8,1.2-1.5,2
			c-0.3,0.3-0.1,0.7-0.4,0.9v0.2c1.3-0.2,2.3-0.9,2.9-1.6h0.3c0.1,0.1,0.1,0.2,0.3,0.3c-0.1,0.9-1.5,1.7-2.4,2.1
			c0,0.4,0.1,0.3,0.3,0.6c1.7,0,2.2-0.8,3.3-1.2l0.1-0.1v0.1c0.6,0.2,0.7,0.5,1.2,0.7c-0.1,0.6-3.2,2.6-4,2.9c0.1,0.5,0.4,0.5,1,0.7
			c0.6-0.5,1.4-0.8,2.2-1.1c0.6-0.3,1-0.8,1.7-1c0.1-0.1,0.2,0,0.6-0.1c0.2,0.2,0.2,0.3,0.6,0.4c-0.5,1.5-2.7,3-4.6,3.9
			c0.1,0.2,0,0.2,0.1,0.3c0,0.1,0.1,0.2,0.1,0.3c0.7,0,0.9-0.2,1.7-0.2v-0.3c1.5-0.1,1-0.6,1.8-1.1c0.3,0,0.6-0.1,1-0.1
			c0-0.1-0.1-0.2-0.1-0.4c0.3-0.4,0.9-0.6,1.2-0.9c0.7,0.1,0.8,0.4,1.2,0.7c-0.3,1.1-2.8,2.2-4,2.8c-0.2,0.1-0.2,0.3-0.4,0.5
			c-0.2,0.2-0.7,0.2-1,0.4c-0.2,0.1-0.3,0.4-0.6,0.6v0.4c0.4,0,0.5,0,0.7,0.1c1.6-0.2,1.9-1.2,2.9-1.7c0.8-0.4,2.1-0.9,3.1-1.1
			c0.2,0.2,0.3,0.8,0.4,0.8c-0.2,0.5-0.9,0.7-1.2,1.1c-1,1-1.5,2.2-2.6,3.2c-0.5,0.4-1.2,0.6-1.5,1.1h-0.1c0.2,0.3,0.2,0.3,0.7,0.4
			c0.1,0.1,0,0,0.3,0.1c0.8-0.5,2.5-1.4,3.1-2.1c0.5-0.5,1.1-1.7,1.8-2.1l0.1-0.1c0.4,0.5,0.8,1.3,1.4,1.6c-0.1,0.6-0.6,0.7-0.8,1.1
			c-0.5,0.8-0.5,1.6-1.1,2.2c-1.3,1.5-3.6,2.9-5.7,3.9c-0.3,0.2-0.6,0.4-0.8,0.7c-0.3,0.1-0.7,0-1,0.2c-0.6,0.3-1.1,0.8-1.9,1
			c-0.2,0-0.5-0.1-0.7-0.1c0,0.1-0.1,0.2-0.1,0.3c-1,0-2.3,0-2.9,0.2c0.1,0.2,0,0.2,0.1,0.3c1.1,1.4,4.9,0.2,6-0.3
			c0.8-0.3,1.8-0.8,2.4-1.2c0.2-0.2,0.3-0.4,0.6-0.6c2.8-1.4,5.9-3.1,6.7-5.8c0.6,0.1,0.5,0.2,0.8,0.4c-0.1,1.3-1.4,1.7-2.2,2.4
			c-1.3,1.2-2.7,2.2-4.6,3c0.1,0.5,0.3,0.4,0.7,0.7c2.1-0.2,4.4-2.8,6.1-3.5l0.1-0.1c0.1,0.1,0,2-0.4,2.4c-0.2,0.6-0.7,0.4-1.2,0.7
			c-0.3,0.2-0.4,0.6-0.7,0.8c-0.1,0.1-1.9,1.2-2.1,1.3c-0.2,0.1-0.7,0-0.7,0c-0.2,0.1-0.2,0.5-0.4,0.6h-0.6
			c-0.4,0.1-0.8,0.4-1.2,0.6v0.2c0.2,0.2,0.5,0.3,0.7,0.5c0.7,0.1,1.2-0.3,1.5-0.5c1.4-0.6,2.9-0.9,3.7-1.9h0.1
			c-0.1,0.5,0,1.7-0.4,2.1c-0.1,0.7-0.8,0.6-1.5,0.9c-0.4,0.3-0.8,0.6-1.2,0.8c-0.5,0.2-0.9,0.3-1.4,0.5c-0.1,0.1-0.2,0.2-0.3,0.3
			c-0.3,0-0.6,0.1-1,0.1c-0.2,0.1-0.6,0.6-0.8,0.7c0.1,0.2,0,0.2,0.1,0.3c0.1,0.2,0.2,0.2,0.4,0.4c1.5,0,4.2-1.5,4.9-2.1
			c0.3,0,0.3,0,0.6,0.1c-0.2,0.6-0.5,1.1-0.7,1.7c-0.4,0.5-4.3,1.9-5.3,1.8c-0.1,0.3-0.3,0.5-0.1,0.7c0.2,0.2,0.4,0.3,0.6,0.5
			c1.3-0.1,3.9-1.1,4.6-1.6h0.1c-0.2,0.8-0.7,1.4-0.8,2.1c-1.6,0.5-2.7,1.4-4,2c-0.7,0.3-1.6,0.5-2.2,0.7c0.1,0.4,0.3,0.6,0.8,0.7
			c0.4,0.1,3.4-1.2,3.9-1.5h0.4c-0.2,0.6-0.6,1.7-1.1,2.1c-0.6,0.5-1.8,0.5-2.8,0.7c-0.5,0.1-0.8,0.5-1.2,0.7c-0.1-0.2,0-0.4,0-0.8
			l-0.1-0.1c-1.7,0.1-2.1,1.4-3.5,1.8c-1.5,0.4-3,0.7-4.6,0.9c-0.7,0.1-1.3,0-1.8,0.2c-0.7,0-0.7,0.1-1.1,0.3c0,0.2,0.1,0.3,0.1,0.5
			c0.3,0.1,0.5,0.2,0.7,0.4c3.2-0.1,8.3-1.2,9.9-2.8c0.1,0.1,0.1,0.1,0.1,0.3c0.5,0,1,0.1,1.5,0.1c0-0.1,0.1-0.2,0.1-0.3
			c0.5-0.2,1.4-0.1,1.8-0.4h0.1c-0.2,0.8-1.4,3.2-2.1,3.6c-0.3,0.2-0.8,0.1-1.2,0.2c-1.1,0.3-1.6,1-3.2,1.1
			c-0.1,0.4-0.6,0.6-0.3,0.9c0.6,0.6,3.1-0.3,3.5-0.6h0.3c-0.3,0.8-1.2,1.4-1.2,2.4c-0.8,0.2-2.9,0.6-3.6,0.9
			c-0.2,0.2-0.2,0.3-0.4,0.5v0.6c1,0.1,1.6-0.3,2.6-0.4c-0.1,0.6-0.6,1.3-1.1,1.8c-0.3,0.3-1.1,0.6-1.7,0.7c-0.3,0-0.6-0.1-0.8-0.1
			c-0.6,0.1-1.2,0.6-1.8,0.8c0,0.2,0.1,0.4,0.1,0.7c1.2,0.2,1.7-0.3,3.1-0.3c-0.2,0.8-0.8,1.7-1.2,2.3c-1.6,0.2-2.8,0.6-4.2,0.8
			c0,0.4,0.1,0.4,0.3,0.7h0.3c0.3,0,0.4-0.2,0.7-0.3c0.5-0.1,1.4,0.2,1.9,0h0.3c-0.1,0.6-0.5,1-0.8,1.5c-1.5,0.2-3.4,0.6-4.7,1
			c0,0.3,0,0.6-0.1,0.7l0.1,0.1c1.3-0.1,2-0.5,3.7-0.5c-0.2,0.9-1.1,1.3-1.2,2.1c-1.1,0.3-2.1,0.6-3.2,0.9c-0.2,0.1-0.3,0.3-0.6,0.5
			c0,0.3,0,0.6,0.1,0.7c1.2,0,1.9-0.2,2.5-0.7h0.3c-0.4,1.2-3.5,1.7-5,2.3c0,0.2,0.1,0.3,0.1,0.5c1,0.2,2.7,0,3.7-0.6h0.1
			c-0.3,0.9-0.9,1.7-1.9,2.1c-0.5,0.1-1,0.2-1.5,0.3c-0.4,0.2-0.7,0.5-1.2,0.7c0,0.1-0.1,0.2-0.1,0.3l0.1,0.1
			c0.8,0.1,1.6,0.2,2.1-0.2c0.3,0,0.3,0,0.6,0.1c-0.4,2-1.8,2-3.7,2.9c-0.3,0.2-0.3,0.4-0.8,0.5c0,0.5,0.2,0.6,0.4,0.8
			c0.6-0.1,1.4-0.3,1.8-0.6h0.3c-0.3,0.5-0.7,1.3-0.8,2c-1.1,0.4-2.4,0.8-3.6,1c0,0.1-0.1,0.2-0.1,0.3c0.2,0.1,0.3,0.2,0.4,0.4
			c1,0,1.8,0,2.4-0.3h0.1c-0.5,2.6-3.5,1.9-5.4,3.4c0.4,0.7,2.1,0.4,2.8,0h0.3c-0.2,0.8-1.1,1.5-1.2,2.3c-1.5,0.2-4.4,0.4-3.6,1.6
			c0.7,0.1,1.9,0,2.4-0.3h0.6c-0.8,1.9-0.6,1.6-3.2,2.2c-0.7,0.2-1,0.5-1.9,0.5c-0.1,0.3-0.2,0.3,0,0.5c0,0.4-0.1,0.3,0.3,0.5
			c0.4,0.1,2.8-0.4,3.2-0.7h0.6c-0.2,0.8-0.6,1.4-0.7,2.2c-1.5-0.3-3.6,0.8-4.6,1.2c0.1,0.4,0.2,0.4,0.4,0.7c0.4,0,3.3-0.7,3.6-0.8
			h0.3c-0.4,0.7-1.1,1.5-1.2,2.3c-1.1-0.3-4.2,0.5-4.6,1.2h-0.1c0.1,0.3,0.2,0.5,0.7,0.6c0.2,0.1,3.2-0.7,3.5-1h0.3
			c-0.2,0.6-0.4,1.1-0.4,1.9c-0.7,0.2-1.4,0.3-2.1,0.5c-0.6,0.2-1,0.7-1.7,0.8c0,0.4,0.1,0.4,0.3,0.7c1.3-0.1,1.6-0.6,3.1-0.7
			c0,0.7-0.1,1.3,0.1,1.8c-0.5,0.2-1.2,0.2-1.8,0.4c-0.9,0.2-1.6,0.7-2.6,0.8c0,0.3,0,0.4,0.1,0.6c0.3,0.1,3.7-0.4,3.9-0.6h0.1
			c-0.1,0.6-0.2,1.2-0.3,1.9c-0.7,0.2-1.8,0.1-2.4,0.3c-0.7,0.2-1.3,0.7-1.9,0.9c0.2,0.3,0.5,0.3,0.7,0.7c0.2,0,2.8-0.8,3.1-0.9h0.3
			c0.2,0.7,0.2,1.6,0.1,2.2c-1.8,0.1-2.7,0.5-3.9,0.9c0.1,0.4,0.3,0.6,0.8,0.7c0.3,0.1,0.5,0,1,0v-0.3l0.1-0.1c0.4,0,0.6,0.1,1,0
			c0.5,0,0.5,0,0.7,0.2c0.1,0.1-0.2,1.2-0.3,1.3c-0.5,0.6-2.4,0.3-3.5,0.5c-0.9,0.2-1.8,0.6-2.5,0.8v0.2c0.1,0.1,0.1,0,0.1,0.2
			c0.5,0,1.2,0.1,1.4,0c0-0.1,0.1-0.2,0.1-0.3c0.4-0.1,0.5,0.2,0.7,0.2c0.6,0.1,1.1-0.2,1.2-0.2c0.5-0.1,1.2,0.1,1.5-0.1h0.3
			c-0.1,0.9-0.5,1.6-1.1,2.2c-0.8,0-1.7,0.1-2.5,0.1c-0.6,0.1-1,0.6-1.7,0.7c0,0.4,0.1,0.5,0.3,0.7c1.2,0,2.3-0.3,3.1-0.7h0.3
			c-0.1,0.3-0.5,0.6-0.6,0.8c-0.1,0.3,0.2,0.7-0.1,1c-1.5,0.7-5,0.4-5.7,1.6c-0.1,0.2,0,0.2,0,0.5c1.8,0.1,1.5-0.1,2.8-0.5
			c0.7-0.2,1.4,0,1.9-0.3c0.3,0,0.3,0,0.6,0.1c-0.5,0.6-0.8,1.5-1.2,2.1c-1.6-0.2-2.8,0.3-4.6,0.5c0,0.2,0,0.3-0.1,0.5
			c0.1,0.3,0.1,0.2,0.3,0.5c1.3,0,2.8-0.3,3.6-0.7h0.6c-0.4,0.7-0.7,1.4-1.1,2.1c-1.3-0.1-3.4,0.1-4.4,0.5l-0.6-0.4h-0.3
			c0.1,0.2,0.1,0.2,0.3,0.3c-0.2,0.2-0.3,0.2-0.6,0.3c0,0.2,0,0.3,0.1,0.4v0.2c1.6,0.2,3.2,0,4.4-0.3l0.1,0.1
			c-0.6,0.6-1.1,1.8-2.4,2.2c-0.3,0.1-1.3-0.2-2.1-0.1c-0.2,0-0.9,0.2-1.1,0.2c-0.3,0-0.6-0.1-0.8-0.1c-0.2,0.2-0.4,0.3-0.6,0.5
			c-0.5,0.2-1,0-1.5,0.2c-0.3,0.1-1,0.3-1.4,0.5c0.1,0.3,0.2,0.4,0.3,0.7c0.3,0,5.7-0.8,6.1-1h0.3c-0.5,1.1-1.7,1.4-2.4,2.3
			c-2,0.2-4,0.4-5.5,1c0,0.1-0.1,0.2-0.1,0.3c0.1,0.1,0.1,0,0.1,0.2c1,0,2.9,0,3.6-0.3h0.3c-0.3,0.6-1.3,1-1.8,1.5
			c-0.3,0.3-0.3,0.6-0.6,0.8c-0.7,0.3-1-0.1-1.9,0.1c-1.4,0.3-3.2,0.7-4.3,1.1c-0.1,0.2,0,0.1-0.1,0.2v0.3c0.4,0.1,0.6,0.2,0.8,0.3
			c0.6,0.1,3.7-0.6,4-0.7h0.1c-0.3,0.6-0.9,1.3-1.5,1.8c-1.2,0.6-3.2,0.4-4.7,0.7c-0.4,0.1-0.7,0.3-1.1,0.5
			c-0.1,1.5,1.7,0.6,2.5,0.4c0.3-0.1,0.5,0,0.7-0.1h1c-0.2,0.4-1,1.4-1.4,1.8c0,0-1.1-0.1-1.7,0c-0.8,0.2-2.1,0.4-2.6,0.7
			c-0.2,0.2-0.3,0.4-0.1,0.6c0.1,0.2,0.1,0.2,0.3,0.4c0.3-0.1,0.2,0,0.3-0.3c0.8,0,1.6-0.1,2.1-0.4c0.4,0,0.5,0,0.7,0.1
			c-0.2,0.8-0.7,1.4-1.2,2c-1.7,0-2.2,0.3-3.1,0.8c0.1,0.3,0.1,0.3,0.3,0.5c0.8,0,0.7-0.1,1.1-0.3c0.1,0.1,0.1,0.2,0.1,0.5
			c0.3-0.1,1-0.2,1.4-0.4c0.5,0.2,0.1,1.8-0.4,2.1c-0.7,0.3-1.4,0.1-2.4,0.3c-1.1,0.2-2.4,0.8-3.5,0.9c0,0.5,0.1,0.5,0.4,0.7
			c0.5,0,1.5,0.1,1.7,0c0.7-0.2,1.6-0.9,2.6-0.5c0.1-0.2,0,0,0-0.3h0.4c-0.1,0.5-1.1,2.1-1.5,2.4c-0.5,0.2-1.8,0-2.8,0.2
			c-0.6,0.1-1.1,0.5-1.7,0.7c0,0.2,0,0.3,0.1,0.4c0.1,0.2,0.2,0.2,0.4,0.4c0.4-0.1,2.1-0.2,2.6-0.4h0.4c-0.2,0.6-0.7,0.9-1,1.4
			c-1.4,0.2-2.9,0.4-4.3,0.7c-0.4,0.1-0.7,0.5-1.1,0.7c0.1,0.3,0.2,0.4,0.3,0.7c0.9-0.1,3.3-0.7,3.6-0.6h0.3
			c-0.1,0.4-0.3,0.6-0.6,0.8c-0.4-0.1-0.6-0.1-0.8-0.3h-0.3c0.2,0.3,0.4,0.4,0.8,0.6c-0.1,0.4-0.5,0.7-0.8,1
			c-2.1,0.3-4.2,0.2-6.2,0.8c0,0.3-0.1,0.6-0.1,0.9c0.7,0,1.2,0,1.5-0.2c0-0.1,0.1-0.2,0.1-0.3c0.5-0.1,1.3,0.2,1.8-0.1h1.1
			c-0.6,0.7-1.4,1.1-1.9,1.9c-1.5,0.1-4.1-0.1-5.3,0.5c-0.2,0.1-0.4,0.3-0.7,0.5v0.4h-0.4c0.1,0.2,0,0.2,0.1,0.3
			c0.9,0.3,4.5-0.8,4.7-0.7h0.4c-0.3,0.5-0.7,1-0.8,1.6c-1.9-0.1-4,1-5.5,1.5v0.7c1.2,0.2,2.8-0.1,3.6-0.6h0.4
			c-0.5,0.7-1.1,1.5-1.7,2.1c-1.7,0.2-3.2,0.5-4.4,1c-0.1,0.2-0.2,0.4-0.3,0.7c0.2,0.1,0.4,0.3,0.6,0.5c0.5,0,0.6-0.1,1-0.2
			c0.1-0.1,0.1-0.2,0.1-0.4c1.2-0.1,1.7-0.5,2.8-0.6c-0.1,0.6-0.4,1.9-0.8,2.3c-0.3,0.1-0.4-0.2-0.8-0.1c-0.6,0.1-3.2,0.9-3.5,1.2
			c-0.2,0.2,0.1,0.6,0.4,0.7c0.4,0.2,2.7-0.9,3.6-1c0,0.5-0.1,1-0.4,1.3c0,0.4-0.1,0.4-0.3,0.7c-0.4,0-1.5-0.1-1.8,0
			c-0.5,0.2-1.1,0.6-1.7,0.8c0,0.5,0,0.5,0.3,0.9c0.8-0.1,1.8-0.3,2.4-0.7h0.3c-0.3,0.7-1,1.3-1.4,2c-1,0.2-1.9,0.2-2.8,0.5
			c-0.5,0.2-0.9,0.4-1.5,0.6c-0.1,0.2,0,0.1-0.1,0.2v1.1c0.6-0.2,2.5-0.7,2.9-1h0.8c-0.5,0.9-0.2,1.5,0,2.4c-0.8,0-1.4,0-1.8,0.3
			H347c0.1-0.5,0.1-0.6,0.3-1c0,0-0.1-0.1-0.1-0.1c-0.9,0-1,0.2-1.5,0.5c0.1,0.4,0.2,0.6,0.6,0.8c-0.1,0.1-0.3,0.1-0.4,0.2
			c-0.6-0.1-0.2-0.1-0.4-0.3c0-0.1-0.1-0.1-0.1-0.2c-0.3,0-0.5,0.1-0.7,0.2c-1.1,0.6-0.7,2.7,0.1,3.3c-0.2,0.2-0.6,0.4-1,0.6
			c-0.1,0.3,0,0.2,0,0.6c0,0,0.1,0.1,0.1,0.1c0.6,0,0.6-0.1,1.1-0.2c0,0.2-0.1,0.5-0.1,0.7c0.2,0.1,0.3,0.2,0.4,0.5h0.6
			c0,0.3,0,0.4-0.1,0.6c-0.2,0.4-0.7,0.5-1.1,0.7c-0.4-0.1-0.4-0.5-0.4-0.8c-0.4,0-0.3,0.1-0.6,0c-0.4,0-0.5,0-0.7,0.1
			c-0.1,0.5-0.2,1.2-0.7,1.6c0,0-0.1,0.1-0.1,0.1c-0.1-0.2-0.1-0.3-0.1-0.6c-0.4,0-0.2-0.1-0.4,0c-0.4,0.1-0.4,0.1-0.7,0.2
			c0.1,0.4,0.3,0.4,0.4,0.7h0.7v1.1l0.4,0.3c0.7,0,0.8,0,0.8-0.5c0.3,0.1,0.2,0,0.4,0.2c0.6-0.1,0.5-0.4,0.8-0.7
			c0,0,0.1,0.1,0.1,0.1c-0.1,0.7-0.5,1.1-0.6,1.8c-0.7,0-1.7-0.3-2.4-0.7c-0.5,0.1-0.6,0.2-0.8,0.4c-0.6-0.2-1.1-1.4-1-2.1
			c0.1-0.4,0-1.6-0.3-2.3c0-0.1-0.4-0.5-0.4-0.5c-0.1-0.3,0.7-0.8,0.4-1.4c-0.3-0.6-0.4-1.1-0.4-1.9c0.3,0,0.6-0.1,0.8-0.1
			c0-0.5-0.1-0.6-0.7-0.7c0.1-0.9,0.2-1.2,0.6-2v-0.7c0.1-0.1,0.5-0.1,0.6-0.2c0.1-0.4,0.3-0.8,0.4-1.2c0.3-0.5,1.2-1.3,1.4-1.9
			c0.2-0.5-0.4-0.5-0.3-0.9c0-0.1,0.4-0.4,0.4-0.5c-0.2-0.6,0.4-1.9,0.7-2.6c0-0.2-0.1-0.4-0.1-0.6c0.1-0.3,0.4-0.8,0.6-1v-0.7
			c0.3-0.5,1.3-1.1,1.5-1.7c0.3-0.7-0.6-1.1-0.4-1.5c0.1-0.1,0.7-0.4,0.7-0.7c0-0.9,0.1-1.6,0.1-2.2c0-0.2-0.1-0.4-0.1-0.7
			c0.1-0.1,0.3-0.1,0.4-0.2c0.1-0.4,0.2-0.8,0.3-1.2c0.1,0,0.3-0.1,0.4-0.1c0.1-0.2,0.4-0.6,0.4-0.7c0.3-0.5-0.1-1.1,0.3-1.6
			c0.5-0.8,1.5-1.6,1.9-2.4c0.3-0.4,0-0.9,0.3-1.4c0.1-0.1,0.3-0.1,0.4-0.2c0.5-0.5,0.5-1,0.8-1.6c0.2-0.4,0.8-0.6,1-1v-0.8
			c0.1,0,0.2-0.1,0.3-0.1c0,0,0.3-2.1,0.3-2.1c-0.1,0-0.2-0.1-0.3-0.1c0,0,0.2-1.2,0.3-1.3c0.5-1.1,1.1-2,1.8-3
			c0.3-0.5,0.6-1.1,0.7-1.5c0-0.1-0.1-0.2-0.1-0.4l0.6-0.4c0.3-0.4,0.4-1,0.6-1.3c0-0.1-0.2-0.4,0-0.7c0.9-1.7,2.2-3.5,3.2-5.2
			c0.6-1,0.6-2.1,1-3c0.1-0.3,0-0.6,0-0.7h0.3c0.1-0.2-0.2-0.4-0.1-0.5c0,0,0.4-0.2,0.4-0.2c-0.1-0.3-0.2-0.6-0.3-0.8
			c0.1-0.1,0.5-0.4,0.6-0.6c0.2-0.4-0.2-1,0-1.3c0.2-0.1,0.4-0.2,0.6-0.3c0.3-0.5-0.2-1.1,0-1.4c0.2-0.1,0.5-0.2,0.7-0.4
			c0-0.4,0.1-0.8,0.1-1.2c0.1-0.1,0.3-0.1,0.4-0.2v-0.6c0.1-0.2,0.7-0.9,0.8-1.1v-1.4c0.1-0.3,0.6-0.6,0.7-0.7c0.1-0.2-0.2-0.6,0-1
			c0.4-1,0.7-2.4,1.2-3.1c0.3-0.4,0.1-1.8,0.4-2.1c0.4-0.5,0.7-1.4,1-2.1c0.3-0.8-0.2-1.6,0.3-2.3h0.3c0.4-0.6-0.2-1,0-1.4
			c0.1,0,0.2-0.1,0.3-0.1c-0.1-0.4-0.2-0.7-0.3-1.1c0.1-0.1,0.5-0.6,0.6-0.7c0.1-0.3-0.2-0.5-0.1-0.7c0.2-0.7,0.8-1.9,1.1-2.3
			c0.2-0.2-0.2-0.8-0.1-0.8c0.1-0.1,0.3-0.1,0.4-0.2c0.1-0.7,0.3-1.3,0.4-2c0.1-0.3,0.6-0.6,0.7-0.9c0.6-1.3,0.4-2.9,1.2-4
			c0.1-0.1,0.3-0.1,0.4-0.2c0.2-0.3-0.3-0.4-0.3-0.6c0.4-1.2,1.7-3.6,2.6-4.3c-0.1-0.6-0.4-0.7-0.7-1.1c-0.2-0.1-0.1,0-0.3-0.1
			c-0.3,0-0.3,0-0.4,0.1c-0.1,0.2,0.2,0.2,0,0.6c-0.4,0.8-1.6,2.1-2.1,2.8v0.7c-0.2,0.4-0.5,0.9-0.7,1.3v0.8c-0.3,0.6-0.8,1.4-1.1,2
			c0.1,0.4,0,1.3-0.1,1.6c-0.3,0.6-1,1.3-1.2,1.9c-0.2,0.4,0,1.8-0.1,2.1c-0.2,0.7-0.8,1.5-1.1,2.2v1.2c-0.1,0.2-0.3,0.4-0.3,0.8
			c0,0.2,0.1,0.3,0.1,0.5c-0.1,0-0.2,0.1-0.3,0.1c0,0.7-0.1,1.4-0.1,2.1c-0.6,1.6-1.2,3.6-1.8,5.1c0,0.5-0.1,1.1-0.1,1.6
			c-0.1,0.2-0.5,0.4-0.6,0.6c-0.3,0.5,0,0.8-0.3,1.4c-0.5,1.2-1,2.3-1.4,3.4c-0.2,0.5,0,1.2-0.3,1.9c-0.3,0.7-1.8,2.8-1.8,3.5
			c0,1.2-0.8,2.6-1.1,4c0,0.2,0.1,0.4,0.1,0.7c-0.1,0.2-0.6,0.5-0.7,0.7c-0.2,0.4,0.1,0.6,0,0.9c-0.4,0.9-0.8,1.9-1.2,2.9
			c-0.6,1.2-1.5,2.1-2.2,3.2c0,0.3-0.1,0.7-0.1,1c-0.1,0.1-0.5,0.4-0.6,0.6c-0.2,0.3,0.1,0.7,0,0.8l-0.6,0.4c0,0,0,0.6,0,0.7
			c-0.4,0.9-1.5,1.9-1.9,2.8c-0.4,0.8-0.4,1.8-0.7,2.6c-0.2,0.5,0.4,0.6,0.3,1c0,0.1-0.6,0.4-0.6,0.4c-0.2,0.3,0.2,0.6,0,1
			c-0.6,1-1.2,1.7-1.8,2.5c-0.3,0.4-0.1,0.8-0.4,1.3c-0.2,0.4-0.9,1-1.1,1.4c0,0.2-0.1,0.5-0.1,0.7c-0.1,0.2-0.6,0.4-0.7,0.6
			c-0.6,1.1-0.4,2-1.2,2.8v0.2h-0.3c0.6-0.9-0.2-2.2,0.3-3.6c0.5-1.5,0.6-2.4,1.1-3.8c0-0.6,0.1-1.1,0.1-1.7c0.1-0.4,0.5-1,0.8-1.6
			c0.2-0.4,0-1,0.1-1.2c0.2-0.3,0.9-0.7,1.1-1c0.7-1,0.6-2,1.2-3.1c0.2-0.3,0.7-0.7,0.8-1v-0.7c0.9-2,1.9-4.5,2.6-6.6v-1.8
			c0.1-0.2,0.4-0.7,0.4-0.8c0.1-0.4,0-2-0.3-2.4c0,0-0.1-0.1-0.1-0.1c0.4-0.8,0.1-2,0.4-3.2c0.1-0.5-0.4-0.8-0.3-1l0.4-0.3
			c0-0.2-0.1-0.4-0.1-0.7c0-0.1,0.4-0.4,0.4-0.5c0.4-0.8-0.1-1.5,0.1-2.2c0.1-0.4,0.4-1.1,0.6-1.5c0.2-0.6-0.3-2-0.3-2.1
			c0.2-0.1,0.4-0.1,0.6-0.2c0-0.2-0.1-0.4-0.1-0.7c0.1-0.4,0.5-0.8,0.7-1.2v-0.9c0.3-0.7,0.7-1.2,1.1-2c0-0.4,0.1-0.9,0.1-1.3
			c0.7-1.6,1-3.6,1.5-5.2c0.1-0.3-0.3-1.5-0.3-1.5l0.6-0.4c0.1-0.2-0.3-0.5-0.1-0.8c0.4-0.9,0.1-2.6,0.4-3.5
			c0.3-0.8,0.5-1.8,0.8-2.7c0.2-0.7-0.1-1.5,0-2c0.2-0.6,0.6-1.2,0.6-2.1c0.2-0.1,0.2-0.1,0.6-0.1l-0.4-0.3l0.1-1.5
			c0,0,0.3-0.2,0.3-0.3c-0.1-0.5,0.1-1.2,0.3-2c0.1-0.4-0.4-1.4-0.1-1.9c0.1,0,0.2-0.1,0.3-0.1c0.2-0.4-0.2-0.9-0.1-1.1
			c0.1,0,0.2-0.1,0.3-0.1c0.2-0.3,0.2-1,0.3-1.3c0.1-0.4-0.2-0.9-0.1-1.2c0.3-1.4-0.1-3,0.4-4.6c0-0.4,0.1-0.9,0.1-1.3
			c0.1-0.2,0.4-0.9,0.6-1.3v-0.7c0.2-0.4,0.8-1.2,1-1.7c0.1-0.3-0.3-0.7-0.3-0.8c0.5-0.8,1.3-1.8,1.8-2.6c0.3-0.6,0.7-1.4,0.8-1.9
			c0-0.2-0.1-0.3-0.1-0.5c0.2-0.2,0.5-0.3,0.7-0.5c0.2-0.3-0.5-1.8-0.4-2.5c0,0,0.1-0.1,0.1-0.1c0.9,0.1,1.9,1,2.1,1.6
			c0.2,0,0.5,0.1,0.7,0.1c0.1,0.3,2.4,1.4,2.9,1.6h0.8c0.4,0.1,0.9,0.5,1.4,0.7c0.6,0.2,2.5,0.2,3.1,0.1c0.8,0.1,3.9,0.3,4.7,0.1
			c0.3-0.1,0.5-0.2,1-0.3c0-0.2-0.1-0.3-0.1-0.5c-0.8-0.1-1.4,0-2.1-0.1c-0.5-0.1-1-0.2-1.5-0.3c-0.3,0.1-2.4,0.1-3.1,0
			c-0.1,0-0.5-0.3-0.6-0.3c-0.3,0-0.8,0.2-1.2,0.1c-1.1-0.3-2.3-1.1-3.3-1.5c-0.4-0.2-1.4-0.2-1.7-0.5v-0.4
			c-0.3-0.4-1.2-1.1-1.8-1.2c-0.3-0.1-0.7-0.2-1.1-0.2c-0.1-1.3,0.6-3.3,1.2-4.7c0-0.2-0.1-0.4-0.1-0.7c0.3-0.7,1-2.2,0.8-3.4
			c0-0.2-0.1-0.8-0.1-0.9l-0.4-0.3c0-0.3,0.1-0.6,0.1-0.8c0-0.1-0.4-0.4-0.4-0.5c-0.1-0.2,0.2-0.8,0.1-1.1c0-0.9-0.4-1.7-0.1-2.6
			c0.2-0.7-0.3-1.2-0.4-1.6c0-0.1,0.1-3,0.1-3c0.1,0,0.3-0.1,0.4-0.1v-0.2h-0.3c-0.2-0.5-0.2-1.6-0.1-1.9V242
			c0.5-1.2,0.7-2.5,1.4-3.5c0.2-0.3,0.3-0.9,0.8-1l1.2,0.3c0.6,0.1,1-0.1,1.4,0c0.6,0,0.5-0.1,1-0.2c0.1-0.2,0.2-0.4,0.3-0.6
			c-0.3-0.2-0.6-0.5-0.8-0.7c-0.6-0.1-1.3-0.1-1.9-0.2c-0.3-0.1-0.5-0.3-0.8-0.4c-0.3-0.8-0.9-1.1-1.1-1.9c-0.2-0.6,0.2-2.4,0.3-2.8
			c0.2-0.7-0.3-1-0.4-1.5h0.4c0.1-0.5,0-1.5,0.3-2.1c0.8-1.9,2.6-3.5,4-4.9c0.4-0.4,0.9-1.6,1.4-1.8v-0.1c0.7,0.2,1.1,0.7,1.7,1
			c2,1,4.1,1.7,6.4,2.6c0.2,0.2,0.5,0.4,0.7,0.6c0.6,0.1,1.1,0.1,1.7,0.2c1.3,0.4,2.9,0.9,4.4,1.2c0.7,0.2,2,0.1,2.6,0.3
			c0.4,0.1,0.9,0.6,1.4,0.7c0.5,0.1,1.2,0,1.7,0.3c0.6,0,0.8-0.1,1.1-0.3c0.2-0.2,0.2-0.3,0.4-0.5c-0.1-0.4-0.2-0.6-0.7-0.7
			c-0.4-0.1-0.5,0.3-1.1,0.2c-0.7-0.1-1.8-0.7-2.5-0.8c-0.5,0-0.9-0.1-1.4-0.1c-0.7-0.1-1.6-0.4-2.2-0.6H387c-1.4-0.3-2.6-1-3.7-1.5
			c-0.5-0.2-1.2,0-1.8-0.3c-0.2-0.1-0.4-0.5-0.7-0.6c-0.3,0-0.6-0.1-0.8-0.1c-0.5-0.2-0.8-0.7-1.2-0.9c-0.3,0-0.6-0.1-0.8-0.1
			c-0.1-0.1-1.7-0.8-1.8-0.9c-0.4-0.4-0.4-0.8-0.8-1.2c0.2-0.7,1-0.9,1.2-1.4c0.1-0.1-0.1-1.2,0-1.6c0.3-0.8,1.4-1.5,1.7-2.3
			c0.6-0.1,0.7-0.3,1.2-0.4c1.2-3.8,6.1-5.5,9.9-7.7c0.6-0.1,1.3-0.2,1.9-0.4c2-0.8,5.4-1.6,8-1.2l0.4-0.3c0-0.4,0.1-0.6-0.3-0.9
			c-0.2-0.3-0.5-0.3-0.7-0.5c-1.9,0-3.5,0.4-5,0.7h-1.4c-0.5,0.1-0.9,0.6-1.2,0.7c-0.3,0.2-0.7,0.1-1.1,0.2
			c-0.3,0.1-0.8,0.5-1.1,0.6c-0.3,0.1-0.4-0.1-0.6-0.1c-0.1,0.1-0.2,0.2-0.3,0.3c-0.6,0.2-1.1,0.3-1.7,0.6c-0.4,0.2-0.4,0.8-0.8,0.9
			h-0.7c-0.7,0.2-1.1,0.7-1.5,0.9h-0.6c-0.3,0.2-0.4,0.8-0.7,1c-0.7,0.6-1,0.2-1.5,0.4v0.1c-0.6,0.4-1.1,0.7-1.7,1.1v0.4
			c-0.3,0.2-0.6,0.3-0.8,0.5c-0.9,1.1-1.3,2.3-1.9,3.5c-0.3,0.5-1.2,1.1-1.5,1.6c-0.1,0.4-0.2,0.9-0.3,1.3c-0.3,0.6-0.9,1.3-1.2,1.9
			c-0.1,0.4-0.3,0.9-0.4,1.3c-0.2,0.1-0.4,0.2-0.6,0.3c-0.4,0.4-0.5,0.8-0.8,1.2c-0.1,0.1-0.5,0.2-0.6,0.3v0.4
			c-0.2,0.3-0.9,0.6-1.1,0.9v0.4l-0.8,0.6c-0.1,0.3-0.2,0.6-0.3,0.8c-0.2,0.1-0.4,0.2-0.6,0.3c-0.4,0.5-0.9,1.4-1.1,1.9v1.7
			c-0.7,1.6-0.2,2.5-0.3,3.9c0,0.3-0.5,1.2-0.4,1.4c0.1,0.5,1.3,1.2,1.1,1.8c-0.1,0.3-0.5,0.5-0.7,0.7c-0.2,0.4,0,0.7-0.3,1.1
			c-0.1,0.3-0.7,0.6-0.8,0.8c-0.2,0.6-0.4,1.2-0.6,1.8c-0.1,1.3-0.2,2.6-0.3,3.9c0.1,0.4,0.4,1.6,0.3,2.1c-0.5,1.6-0.1,3.5,0.4,4.9
			c0.2,0.4-0.4,0.7-0.3,1c0.3,1.5,0.3,3.5,0.8,5.3c0.1,0.4-0.2,0.7-0.3,0.9c-0.1,0.3,0.2,0.5,0.1,0.7c-0.3,1.1-0.9,2.5-1.4,3.5
			c0,0.5-0.1,1-0.1,1.5c-0.3,0.7-1,1.9-0.8,2.7c0.2,0.6,0.9,1.8,0.6,2.6c-0.5,1.1-1.5,2.4-2.1,3.5v0.7c-0.1,0.4-0.5,0.9-0.7,1.2
			c-0.5,0.8-0.1,1.6-0.6,2.4c-1.2,2.3-1.1,4.9-1.1,7.1c0,1.3-0.5,2.4-0.3,3.5c0.2,0.7-0.3,1.4-0.4,2c-0.2,0.9,0.4,3.1-0.8,3.6
			c0.2,0.3,0,0.1,0.4,0.1c0,0.7-0.3,1.1-0.6,1.8c-0.1,0.2,0.2,0.7,0,1.1c-0.5,1.4-0.4,2.9-0.8,3.8c0,0.6-0.1,1.2-0.1,1.8
			c-0.4,1-0.5,2.2-0.7,3.2c-0.1,0.4,0.3,0.8,0.1,1.2c-0.2,0.8-0.4,1.3-0.7,2.1c-0.3,0.8,0.1,1.7-0.3,2.6c-0.1,0.3-0.6,0.6-0.7,0.8
			c-0.3,0.8,0,1.9-0.4,2.6c-0.6,1.1-1.2,2.7-1.7,4v1.1c-0.5,1.4-0.5,2.7-1,4.1v1.6c-0.3,0.9-0.4,1.9-0.4,3c0,0.4,0.2,0.8,0.1,1
			c-0.1,0.4-0.4,1.6-0.3,2c0,0.1,0.4,0.5,0.4,0.6c0,0.2-0.2,0.3-0.3,0.4c-0.3,0.7,0.1,1.5,0,2c-0.7,3.1-2,6.4-3.5,9.1
			c-0.4,0.8-0.2,2.3-0.8,2.9c-0.1,0-0.3,0.1-0.4,0.1c-0.2,0.2-1,1.3-1.1,1.4c0,0.3-0.1,0.7-0.1,1c-0.2,0.4-0.6,1-0.8,1.3v0.7
			c-0.3,0.7-0.4,1.6-0.6,2.2c0,0.2,0.1,0.4,0.1,0.6c-0.4,1.1-0.8,2.4-1.2,3.6c-0.2,0.4,0.2,1.1,0.1,1.4c-0.2,1.2,0,2.8-0.4,4.3
			c-0.1,0.6-0.2,1.1-0.3,1.7c-0.1,0.2-0.5,0.4-0.6,0.5c0,0.2,0.1,0.3,0.1,0.5c0,0.4-0.2,0.8-0.3,1.1c0,0.3,0.1,0.6,0.1,0.9
			c-0.3,1.4-0.4,2.5-0.7,3.6c0,0.3,0.1,0.6,0.1,0.8c-0.2,0.5-0.4,1.3-0.6,1.7v0.9c-0.3,0.4-1,0.9-1.2,1.4v0.8
			c-0.4,0.9-1.3,1.8-1.7,2.8c-0.4,0.9,0.2,2.2,0.4,2.8c0,0.1-0.2,0.4-0.1,0.6c0.6,1.8-0.1,3.1,0.6,5c0.2,0.6,0.9,1.7,0.6,2.5
			c-1.6,3.6-2.6,7.2-4.4,10.4c-0.4,0.6-0.3,1.5-0.4,2c-0.1,0.9-1.1,2-1.5,2.8c-0.3,0.7-0.1,1.4-0.6,2c-0.2,0.2-0.2,0.2-0.6,0.3
			c0,0.3,0.2,0.3,0.3,0.5c0.3,0.7-0.7,2.2-0.8,2.7c0,0.2,0.1,0.5,0.1,0.7c-0.4,1-0.4,2.6-0.8,3.5v1.3h-0.3c-0.6,0.7,0.1,1.3-0.3,2
			c-0.7,1.2-2,2.5-2.6,3.7c-0.2,0.4,0.3,2.3,0,3c-0.3,0.8-1.1,1.2-1.5,1.8c-0.5,0.6-1,1.3-1.4,1.9c0,0.2-0.1,0.4-0.1,0.7
			c-0.3,0.4-1.1,0.6-1.5,0.9c-0.8,0.7-1.2,1.3-1.9,2.1c-0.4,0.4-1.4,0.7-1.8,1.1c-0.3,0.3-0.3,0.5-0.6,0.7c-0.2,0.1-0.4,0.2-0.6,0.3
			c-0.2,0.2,0,0.5-0.3,0.7c-0.2,0.2-0.8,0.2-1,0.5c-0.8,0.9-1.5,2.1-2.8,2.7c0,0.4,0.1,0.3,0.3,0.6c0.7,0,1.4-0.2,1.8-0.4
			c0.7-0.4,0.1-0.4,0.3-0.7c0.2-0.1,0.5-0.2,0.7-0.3c0.5-0.5,0.5-1,1-1.6c0.2-0.3,0.8-0.5,1.1-0.7c0.1-0.2,0.3-0.5,0.4-0.7
			c0.5-0.3,1-0.6,1.5-0.8c0.7-0.6,1.1-1.6,1.8-2.1c0.6-0.4,1.6-0.6,2.1-1.1c1-0.9,2.1-2.2,2.8-3.3v-0.4c0.3-0.2,0.6-0.3,0.8-0.5
			v-0.5c0-0.1,0.4-0.3,0.4-0.4c0.2-0.3-0.1-0.9-0.1-1.1c-0.1-0.3,0.2-0.8,0.3-1.2c0-0.3-0.2-0.7-0.1-0.8c0.5-1.6,2-3.1,2.6-4.7
			c0.1-0.6,0.2-1.2,0.3-1.8c0.5-1.2,0.7-2.6,1.1-3.8c0-0.4-0.1-0.7-0.1-1.1c0.1-0.2,0.4-0.4,0.3-0.8c0,0-0.3-0.2-0.1-0.4
			c0.1-0.2,0.6-0.3,0.7-0.6c0.3-0.6-0.2-1.3,0-1.8l0.6-0.4v-0.8c0.2-0.4,0.5-1.2,0.8-1.6c0.3-0.2,0.6-0.3,0.8-0.5
			c0.7-0.7,0.9-1.3,1.5-2.1c0.2-0.3,0.8-0.4,1-0.7c0.6-1,1.1-1.9,1.8-2.8c0.2-0.3,0.8-0.7,1-1.1c0-0.1-0.1-0.2-0.1-0.4
			c0.3-0.6,0.9-1.2,1.1-1.9c0-0.3,0.1-0.6,0.1-0.9c0.2-0.3,0.8-0.6,1.1-0.9c-0.2-0.3,1.7-2.2,1.9-2.7v-0.4c0.2-0.4,0.8-0.7,1-1.1
			c0-0.1-0.4-0.3-0.3-0.5c0.1-0.1,0.3-0.1,0.4-0.2c0.2-0.3,0.5-0.9,0.6-1.1c0-0.2-0.1-0.3-0.1-0.5c0.4-0.8,1.1-1.6,1.5-2.2
			c0-0.3,0.1-0.6,0.1-0.8c0.1-0.1,0.6-0.2,0.7-0.4c0.7-0.9,0.9-2,1.9-2.7c-0.1-0.3,0-0.3-0.4-0.4c0.1-0.4,0.4-0.8,0.6-1.1
			c0.5-1-0.6-2.1,0.1-3c0-0.6,0.7-0.8,1.2-1c0-1.7,1.1-2.1,1.7-3.4v-1.2c0.2-0.5,0.6-1.1,0.8-1.6v-0.7c0.6-1.4,1.5-2,1.5-3.5h0.4
			c0.4-0.6,0.8-1.4,1.4-2c0.2-0.2,0.5-0.3,0.7-0.5c0.3-0.4,0.1-1.1,0.6-1.5c0.1-0.1,0.5-0.1,0.6-0.2c0.2-0.2-0.1-0.5,0-0.6
			c0.2-0.2,0.6-0.2,0.8-0.4c0.5-0.4,0.8-0.9,1.2-1.3c0.6-0.3,1.1-0.6,1.7-0.9c1.9-1.9,3.1-4,5-5.9c0-0.3,0.1-0.7,0.1-1
			c0.5-0.8,1.6-1.8,2.1-2.6c0.2-0.4-0.2-1,0-1.2c0-0.1,0.5-0.1,0.6-0.2c0.1-0.4,0.2-0.7,0.3-1.1c0.5-1,0.8-1.1,0.6-2.5h0.4
			c0.1-0.3-0.1-0.5,0.1-0.8c0.5-0.8,1.8-1.5,1.9-2.6c1.4-0.1,0.9-1.1,1.5-1.7c0.5-0.5,1.6-1,2.1-1.5l0.4-0.8c0.2-0.2,0.8-0.5,1-0.7
			v-0.4c0.6-0.7,1.7-1.3,2.4-2.1c0.4,0.1,0.3,0,0.6,0.2h0.3c-0.1-0.2-0.1-0.2-0.3-0.4c0.2-0.9,1.8-1.2,2.4-1.9
			c0.7-0.8,1.2-1.5,1.9-2.3l1.2-0.8c0.1-0.3,0.2-0.6,0.3-0.8l1.5-1v-0.5h0.4c0-0.2-0.1-0.5,0-0.7c0.1,0,0.3-0.1,0.4-0.1
			c0-0.1-0.1-0.2-0.1-0.4c0.2-0.3,0.9-0.7,1.1-1.1c0-0.4,0.1-0.9,0.1-1.3c0.2-0.4,0.8-1,1-1.5c0-0.2-0.1-0.4-0.1-0.6
			c0.1,0,0.3-0.1,0.4-0.1c0.3-0.3,0.6-1.2,0.7-1.5c0.1-0.2-0.3-0.5-0.1-0.8c0.1-0.2,0.8-0.5,1-0.7c0.1-0.3,0.2-0.7,0.3-1
			c0.4-0.7,0.9-1.8,1.2-2.5v-1c0.2-0.3,0.6-1,0.8-1.4v-0.8c0-0.1,0.4-0.3,0.4-0.4c0.3-0.7-0.8-2.8-0.6-3.3c0.1,0,0.3-0.1,0.4-0.1
			c0.2-0.3-0.1-1.7-0.3-1.9c1.2-0.8,0.5-2.4,1-3.9c0-0.2-0.1-0.5-0.1-0.7c0.1-0.2,0.6-0.7,0.7-0.9c0.1-0.2-0.1-0.5-0.1-0.6
			c0-0.2,0.2-0.7,0.4-1c0.3-0.6,1.1-1.2,1.4-1.8c0-0.5,0.1-1,0.1-1.5c0.4-1,0.9-2.3,1.4-3.4v-0.7c0.1-0.3,0.7-0.6,0.8-0.8
			c0.2-0.3-0.1-0.5,0-0.7h0.3c0.2-0.2,0.7-0.6,0.8-0.7c0.3-0.3,0-0.7,0.3-1c0.2-0.1,0.4-0.2,0.6-0.3c0.5-0.5,0.6-1.3,1.1-1.9h0.3
			c0.2-0.2,0.1-0.5,0.3-0.7c0.1-0.2,0.6-0.5,0.7-0.7c0.1-0.2,0-0.8,0.3-1.2c0.1-0.2,0.5-0.6,0.7-0.7c0.2-0.1,0.4-0.1,0.6-0.2
			c0.2-0.2,0.1-0.5,0.3-0.7c0.2-0.1,0.4-0.1,0.6-0.2c0.5-0.5,0.6-1.1,1.1-1.7l0.8-0.6c0.5-0.5,0.2-1.2,0.7-1.8
			c0.3-0.4,1.1-0.8,1.4-1.2c0.4-0.6,0.3-1.2,0.8-1.8c0.1,0,0.3-0.1,0.4-0.1c0.6-0.5,0.7-1.2,1.1-1.9c0.4-0.6,1.3-1.2,1.7-1.8
			c0.5-0.7,0.5-1.4,1-2.1c1.3-1.8,2.4-3.8,3.7-5.6c0.5-0.7,0.4-1.5,0.8-2.1c0.5-0.7,1.2-1.5,1.7-2.2c0.3-0.6,0.2-1.1,0.6-1.8
			c0.3-0.4,1.1-0.7,1.4-1.1v-0.5c0.1-0.1,0.3-0.1,0.4-0.2c0.5-0.6,0.6-1.2,1.1-1.9c0.1-0.2,0.6-0.4,0.7-0.6c0.4-0.6,0.4-1.1,0.8-1.7
			c0.3-0.5,1-1.3,1.4-1.9c0.2-0.4,0-0.7,0.3-1c0.2-0.2,0.5-0.3,0.7-0.5c0.1-0.4,0.2-0.7,0.3-1.1l0.6-0.4c0-0.3,0.1-0.7,0.1-1
			c0.2-0.1,0.4-0.2,0.6-0.3v-1c0.7-1.3,0.6-2.2,1.2-3.5c0.7-1.5,2.8-4,2.5-5.7c0-0.2,0.4-0.7,0.4-0.8v-1.9c0.1-0.2,0.3-0.5,0.4-0.7
			c0.3-0.7-0.2-1.3-0.3-1.8c0.3-0.4,1.1-1.2,0.6-2.3c0-0.1-0.4-0.4-0.4-0.5c-0.2-0.5,0.2-1.3-0.1-2c0-0.1-0.4-0.3-0.4-0.4
			c0-0.3-0.1-0.6-0.1-0.8c-0.1-0.2-0.7-0.5-0.8-0.7c-0.3-0.5,0.2-0.8,0-1.2c-0.3-0.4-1-1.2-1.2-1.7c-0.1-0.5-0.2-1-0.3-1.5
			c-0.1-0.2-0.6-0.4-0.7-0.6v-0.8c-0.1-0.3-0.8-0.6-1-0.8c-0.3-0.4-0.2-0.7-0.6-1l-1.4-0.9c0-0.2-0.1-0.3-0.1-0.5
			c-0.2-0.1-0.7-0.1-0.8-0.3c0-0.2-0.1-0.3-0.1-0.5l-1-0.7c0-0.2-0.1-0.3-0.1-0.5h-0.1c-0.3-0.3-0.8-0.3-1.1-0.6
			c-0.4-0.3-0.6-0.8-1.1-1c-0.2-0.1-0.6-0.1-0.7-0.2v-0.4c-0.4-0.5-1.5-0.9-1.9-1.4c-0.3-0.3-0.1-0.6-0.4-0.9
			c-0.6-0.8-2-1.1-2.4-2.1c0.5-0.4,0.7-0.9,1.2-1.3c1.7-1.2,3.7-2.1,4.2-3.8c0.2-0.8-0.3-1.3-0.6-1.8c-0.5-0.8-0.4-1.5-1-2.2
			c-0.3-0.4-1.3-0.6-1.5-0.9c-0.4-0.6-0.7-2.9-0.3-3.6c0.6-1.2,2.4-3.6,3.6-4.8c1.2-1.1,3.5-1.6,4.6-2.8c0.6-0.7,0.5-1.7,0.8-2.5
			c0.4-1.2-1.1-3.1-1-4c0.2-1.5-0.5-2.5-0.8-3.6c-0.1-0.3,0.2-1,0.1-1.3c-0.2-0.5-0.5-1.1-0.7-1.7l-0.1-1.3c0.1-0.3,0.5-0.5,0.4-0.9
			c-0.1-0.4-0.6-0.7-0.7-1c-0.5-1.2,0.3-2.7,0.6-3.2c0.4-0.9,0-1.8,0.6-2.2v-1c0.4-0.7,4.1-2,5-2.7c0.8-0.6,1.7-1.7,2.1-2.5
			c0.4-0.9-0.1-1.7,0.4-2.4c0.3-0.5,1.3-0.7,1.7-1.1c0.4-0.4,1.3-1.2,1.5-1.6v-0.5c0.1-0.2,0.6-0.4,0.7-0.6c0.3-0.6-0.4-1.4-0.3-1.8
			c0.1-0.5-0.6-1.2-1-1.7c-0.3-0.5-0.2-0.8-0.6-1.3c-0.6-0.9-1.4-1.7-2.1-2.6c-0.4-0.6-1.5-1.3-1.4-2c0.1-0.7,0.6-0.8,1-1.2
			c0.5-0.7,0.7-1.6,1-2.4c0.8-2.1-1.7-5.4,0.1-7.2c0.3-0.3,3.8-0.9,4.4-1h1.7c3.1-1.1,3.7-2.7,5-5v-0.7c0.7-1.9,0.8-3.3,0.1-5.3
			c0-0.3,0.1-0.7,0.1-1c-0.2-0.7-0.2-1.5-0.6-2.2c-0.4-0.9-1.2-1.9-1.4-2.8c-0.2-0.9,0.3-2.4-0.1-3.5c-0.1-0.3-0.5-0.6-0.6-0.7
			c0.5-0.5,0.1-1.2,0.3-1.7c0.7-1.6,1-3.2,1.7-4.9c1.2-2.8,2.5-5.8,4.2-8.1c0.2-0.3,0.1-0.6,0.1-0.7c0.2-0.3,0.6-0.8,0.8-1.1
			c0-0.2,0.1-0.4,0.1-0.7C455.7,86.9,457.9,83.8,456.7,81.6z M393,127.8c0.1,0.1,0.2,0,0,0.2v0.1h-0.1
			C392.9,128,392.9,127.9,393,127.8z M402.5,158.6c-0.4,0.8,0.3,1.2,0,2.1c-0.3,0.9-0.4,1.4-0.4,2.3l-0.1-0.1
			c-0.4-0.1-1.5-1.8-1.7-2.1c-0.3-0.7,0.1-1.2-0.3-1.8c-0.2-0.3-0.9-0.6-1.1-0.8v-0.5c-0.1-0.3-0.5-0.7-0.6-0.9v-0.9l-0.6-0.4
			c-0.4-0.5-0.7-1.4-0.8-2c-0.1-0.5,0.5-0.9,0.3-1.5c-0.4-0.9-0.5-1.7-1.1-2.4h-0.4c-0.1-0.4-0.4-0.7-0.6-1.1c0-0.4,0.1-0.7,0.1-1.1
			c-0.4-1.2,0.2-2.6-0.6-3.9c-0.2-0.4-0.8-0.8-1-1.2c-0.3-0.6-0.2-1.1-0.6-1.7c-0.1-0.2-0.6-0.4-0.7-0.6c-0.4-0.6-0.3-1.3-0.7-1.9
			c-0.1-0.1-0.5-0.3-0.6-0.5c0-0.4-0.1-0.7-0.1-1.1c-0.1-0.2-0.5-0.5-0.6-0.7v-1.3c-0.2-0.5-1-1.2-0.7-2.1c0.4-1.3,1.7-2.5,2.5-3.5
			l0.1-0.1h0.1c-0.1,0.8,0.1,1.3-0.3,2c-0.1,0.2-0.6,0.4-0.8,0.7c-0.6,0.7-0.9,2.3-0.6,3.3c0.1,0.2,0.8,1.5,1,1.7
			c0.3,0.2,0.8,0.4,1.1,0.7c0.7,0.7,1.2,1.7,1.7,2.4c1.6,2.5,1.1,6.1,2.4,8.6c1.4,2.9,4.5,4.9,6.1,7.7
			C403.8,156.7,402.8,158,402.5,158.6z M335.8,402.3c0,0.1-0.1,0.2-0.1,0.3h-0.4c0.1-0.2,0.3-0.4,0.4-0.7h0.3
			C335.9,402.2,335.9,402.2,335.8,402.3z M337.1,401.1h-0.3v-0.6h0.3V401.1z M338.9,398.5c-0.5,0.1-0.7,0.2-1,0.5h-0.3
			c0-0.1-0.1-0.2-0.1-0.3c-0.3-0.4,0.5-1.4,0.6-2.1h0.4c0.1,0.3,0,0.2,0,0.5c0.4,0.1,0.4,0,0.6,0.1h0.3
			C339.2,397.8,338.9,397.9,338.9,398.5z M340,395.9h-0.4c0.1-0.2,0-0.2,0.1-0.3v-0.1h0.3L340,395.9L340,395.9z M341.2,393.6
			L341.2,393.6c-0.2,0-0.3-0.3-0.4-0.5c-0.3-0.1-0.4-0.1-0.7-0.2l-0.4,0.3c-0.2,0.2-0.2,0.5-0.1,0.8h-0.1c-0.1-0.4-0.1-1,0.3-1.3
			c0.4-0.5,1.8-0.6,2.4-0.9h0.3C342.2,392.4,341.7,393.3,341.2,393.6z M346.9,383.8c-0.1,0.1,0,0-0.3,0.1c-0.1-0.1-0.1-0.2-0.1-0.4
			h0.6C347,383.7,347,383.7,346.9,383.8z M346.8,382.3c-0.1-0.3-0.1-0.4-0.3-0.7c-0.4,0.1-0.3,0-0.6,0.2h-0.6c0.1-0.2,0-0.2,0-0.6
			c1.1-0.1,2.6-0.6,3.3-1h0.1C348.7,381.3,348.4,382.1,346.8,382.3z M439.9,145.8h0.3c0.1,0.9,0.6,1.7-0.1,2.2v0.1h-0.1
			C440,147.1,440.1,146.6,439.9,145.8z M414.2,118c-0.1-0.7,0.7-1.7,1-2.3c0.3-0.8,0.3-1.2,0.7-1.9c0.6-1,1.8-2.1,2.5-3.1
			c0.4-0.6,0.3-1.5,0.8-2.1c0.2-0.3,0.8-0.7,1-1c0.3-0.5,0-1.1,0.4-1.5c1.9-2,3.1-4.9,4.4-7c1.4,0.1,1.5,0.9,2.2,1.5
			c1.2,1.1,4,4,3.1,6.2c-0.6,1.2-1.7,2.5-2.6,3.5c-0.3,0.4-0.3,0.8-0.6,1.2c-0.4,0.6-1.3,1.2-1.8,1.8c-0.7,0.8-0.9,1.7-1.7,2.5
			c-2,2.1-3.9,4.2-7.4,5.3c-0.2,0.1-0.5,0-0.8-0.1C415.1,120.1,414.3,118.9,414.2,118z M427.4,123.1c-0.1,1.2,0,3-0.7,4.3
			c-0.6,1.2-2,2.3-2.8,3.4c-0.5,0.6-0.5,1.3-1,2c-0.5,0.7-1.6,1.2-2.1,2c-1,1.7-1,3.5-1.8,5.3c-1.1,2.4-2.4,7.4-1.9,10
			c0.2,1,0.1,2.2,0,2.8c0,0.2,0.2,0.7,0.1,1c-0.1,0.2-0.2,0.7-0.1,0.8c-0.7,2-1.9,5.8-1.5,8h0.6l0.1-0.1c0.4-1.6,0.4-3.4,1.1-5.1
			c0.2-0.5-0.1-1.1,0.4-1.5l0.1-0.1v0.1c0.5,0.2,1.1,1,0.8,1.7c-0.6,1.6-1.1,3.2-1.2,5c-0.3,3.4,1.7,6.3,0.4,9.7
			c-0.1,0.6-0.3,1.1-0.4,1.7c-0.3,0.4-0.6,1-1,1.4c-0.9,1-2.6,1.6-3.5,2.6h-0.1c0.1-0.6,0.5-0.9,0.7-1.3c0-0.2-0.1-0.4-0.1-0.7
			c0.3-0.9,0.2-2.5,0.4-3.1c0-0.4-0.1-0.7-0.1-1.1c0.1-0.3,0.4-0.7,0.6-1c0.2-0.6-0.3-0.9-0.1-1.3c0.3-0.9,0.5-2.3,0.1-3.4v-1.3
			c-0.1-0.3-0.6-1-0.7-1.3c-0.4-1.7,1.9-3.3,1.1-4.9c0-0.1-0.4-0.8-0.4-0.8c-0.4-0.2-0.7-0.5-1.1-0.7c-0.1-1.2-0.3-2.4-0.4-3.5
			c-0.5-1-1.3-2.4-1.1-3.6c0.1-0.6-0.8-1.1-0.4-2c0.1-0.3,0.6-0.6,0.7-0.8v-0.7c0.1-0.3,0.5-0.6,0.7-0.8c0.4-0.6,0.3-1.2,0.7-1.8
			c0.2-0.3,0.9-0.7,1.1-1.1c0.6-1,0.7-2,1.1-2.8c0.4-0.8,1.1-1.8,1.5-2.6c0.3-0.6,0.1-1.1,0.4-1.6c0.3-0.5,0.5-1.1,0.8-1.7
			c0.4-0.7,1.3-1.4,1.5-2.2c0.5-2.3-2.2-4.8-1.4-6.2c0.8-1.5,2.7-2.9,4-4.1c0.7-0.6,1.1-1.4,1.8-2c0.1-0.1,0.5-0.2,0.6-0.3v-0.4
			c0.1-0.1,1-0.5,1.1-0.7v-0.6c0.3-0.5,1.4-0.6,1.7-1.1h0.3c0.6,1.1-0.3,3-0.7,4.2C427,121.5,427.4,122.5,427.4,123.1z M432.9,133.3
			v3.6c0.2,0.4,0.7,1.3,0.6,1.8c-0.1,0.3-0.5,0.4-0.7,0.6c-0.1,0.3-0.3,0.6-0.4,0.8c-0.3,0.2-0.6,0.4-1,0.6c-1,0.9-2.1,1.8-2.8,2.9
			c0,0.3-0.1,0.7-0.1,1c-0.3,0.9-0.5,1.9-1,2.8c-0.7,1.5-1.5,3.3-1.5,5.3v0.2h0.3c0,0.7-0.1,1.4-0.1,2.1c0.1,0.3,0.4,1,0.3,1.3
			c-0.3,0.6-1.7,1.4-2.1,2.1c-0.4,0.8-0.7,2.6-0.7,3.1h-0.1c-0.4-0.6-0.6-1.5-1.1-2.1c-0.1,0-0.3-0.1-0.4-0.1c0-0.3-0.1-0.6-0.1-0.8
			c-0.3-0.5-1-1-1.2-1.7c-0.4-1.1,1.2-3.3,0.7-3.9c0-0.1-0.1-0.2-0.1-0.3c-0.4,0-0.5,0.1-0.8,0.2c-0.3,0.6-0.4,1.6-1,2.1l-0.1,0.1
			c-1.4-2.2,0.7-3.4,1.1-5.7h0.3c0.1,0.6,0.3,1.2,0,1.6v0.8c0.2,0.1,0.1,0,0.3,0.1c0.3,0,0.3,0,0.4-0.1c0.3-0.3,0.9-3.3,0.8-3.6
			c-0.1-0.4-0.7-0.8-0.6-1.2c0.1-0.5,0.8-0.7,1-1.1c0.7-1.1,0.5-2.3,1.1-3.5c0.3-0.6,1-1.4,1.2-2.1c0.2-0.5-0.4-2.1-0.6-2.8
			c-0.1-0.6-0.4-2.3-1-2.8c0.2-0.8,1.5-1.5,2.5-1.7h1.5c0.2-0.1,0.6-0.4,0.8-0.5c0.3-0.1,0.8,0,1.1-0.1c0.4-0.1,0.7-0.6,1.1-0.7
			c0.7-0.3,1.4-0.3,1.9-0.7c0.1,0,0.3,0.1,0.4,0.1C432.7,132.1,432.5,132.5,432.9,133.3z M425.4,161.7h-0.1
			c-0.2-0.4-0.2-0.4-0.1-0.8c0.2,0.1,0.2,0.1,0.3,0.4C425.6,161.4,425.5,161.4,425.4,161.7z M424,172.6c-0.3,0.3-1,0.4-1.2,0.8
			c-0.5,0.7-0.4,1.6-1,2.2c-0.3,0.2-0.6,0.4-1,0.6c-0.6,0.5-1.1,1.1-1.8,1.5c-0.4,0.2-0.9,0.4-1.2,0.7h-0.3c-0.1-0.2,0-0.1-0.1-0.2
			c0.2-0.9,1-1.2,1.5-1.9c0.4-0.5,0.4-1,0.8-1.5c0.3-0.2,0.6-0.3,0.8-0.5c0.2-0.4,0.4-0.7,0.6-1.1c0.4-0.4,1-0.8,1.4-1.1
			c0.6-0.6,1-1.2,1.7-1.8c0.1,0,0.2,0.1,0.3,0.1C424.5,171.2,424.5,172.2,424,172.6z M418.6,162.6c0.5-1.2,0.8-2.6,1.1-3.8
			c1.2,0.5,1.3,1.7,1.8,2.7c1,2.1,0,4.8-0.7,6.7c-0.6,1.6,0.2,3.5-1.1,4.7c0,0.1-0.1,0.1-0.1,0.2h-0.3c0.3-1.9,0.7-3.4,0.3-4.9
			c-0.3-1.1-1.3-2.9-1-4.2C418.7,163.5,418.5,163,418.6,162.6z M422.5,170.5l-0.1,0.1h-0.1c0.3-0.7-0.3-1.5-0.1-2.1
			c0.3-1.2,1.3-2.6,1.2-4h0.3c0.3,0.8,1.3,3,1.1,3.5C424.5,168.6,423.1,169.9,422.5,170.5z M423.4,139.3c0.4,1.6-2,5.9-2.8,7.7
			c-0.4,0.8-1.1,2.9-1.8,3.3c-0.1,0.2,0,0.1-0.1,0.2c-0.6-1.2-0.1-2.2,0.3-3.4c0.2-0.6-0.1-2,0.3-2.9c0.5-1.5,1-2.9,1.5-4.3
			c0.4-1.1,0.2-2.4,1-3.3c0-0.4,0.1-0.4,0.3-0.7h0.6v0.1C423.5,137,423,138,423.4,139.3z M424.6,132.4c0.2-1.4,1.6-1.9,2.1-3h0.3
			c0.2,0.4,0.4,1.6,0.1,1.9c0,0.6-0.3,0.6-0.7,0.9C425.6,132.2,425.3,132.4,424.6,132.4z M414.2,178.9c0.3-0.5,1.2-0.7,1.5-1.2
			c0.2,0.3-0.3,0.8-0.6,1.1c-0.2,0.1-0.1,0-0.3,0.1L414.2,178.9L414.2,178.9z M412.7,185h-0.3c0.1-0.5,0.4-0.6,0.6-0.8
			c0.3-0.5,0.1-1.2,0.4-1.7c0.4-0.5,1.1-0.9,1.2-1.6C415.3,181.7,412.9,184,412.7,185z M416,133c0.6-1.7,1.3-3.3,1.5-5.1
			c0.6,0.3,0.6,0.8,1.2,1c-0.1,1.9-0.4,3.5-1.2,4.9c-0.3,0.4-1,1-1.2,1.4c-0.5,0.8-0.3,1.9-1,2.6l-0.1,0.1c-0.3-0.8,0.7-2.2,1-3.1
			C416.1,134.2,416,133.6,416,133z M426.7,115.7c-0.5,0.5-0.7,1.1-1.4,1.5c-0.1,0.1-1.5,0.7-1.5,0.7c-0.2,0.2-0.2,0.9-0.4,1.1
			c-0.4,0.4-1.1,0.7-1.4,1.1c-1.2,1.4-2.6,3.3-4.3,4.4c-0.1,0.1,0,0-0.3,0.1c-0.3-0.4-0.6-1.2-1-1.6c0.1-1.6,2.6-1.6,3.9-2.3
			c0.4-0.3,0.6-0.7,1-1c0.7-0.6,1.8-1.2,2.4-1.8c0.3-0.3,0.2-0.5,0.1-0.7c0.2-0.1,0.4-0.1,0.6-0.2c0.5-0.6,0.6-1.2,1.1-1.8
			c0.3-0.3,1-0.8,1.2-1.1c0-0.1-0.1-0.2-0.1-0.4c0.4-0.7,1.5-1.1,1.8-1.9l0.1,0.1c0.2,0.2,0,2.5-0.1,2.6
			C427.9,115,427.1,115.3,426.7,115.7z M408.1,145.8c-0.4-1.4-0.7-2.6-0.3-4c0.2-0.7-0.4-1.2-0.3-1.8c0-0.2,0.4-0.5,0.4-0.7v-0.6
			c0.1-0.2,0.6-0.4,0.7-0.6c0-0.3,0.1-0.6,0.1-0.8c0.7-0.9,1.5-2.2,2.1-3.3c0.2-0.3,0.3-0.7,0.4-1c0.1-0.2-0.2-0.4-0.1-0.5
			c0.1-0.1,0.6-0.6,0.6-0.7c0-0.9,0.1-2.6,0.7-3.7c0.2-0.3,0.6-0.7,0.7-1v-1c0.3-0.7,1-2.1,1.5-2.7c0.2-0.2,0.3-0.2,0.6-0.3
			c0.3-0.1,0.2,0,0.7,0c0.1,0.9,1.4,2.1,1.1,3c-0.2,0.7-0.7,1.5-1,2.1v1.1c-0.3,0.9-0.6,2.1-1,3.1v0.9c-0.3,1-0.6,2.2-1,3.1v0.7
			c-1.1,1.8-2.3,3.9-3.7,5.5c-0.7,0.8-1.2,2.4-2.1,3.1L408.1,145.8z M409.1,148.6c0.3-0.8-0.2-1.6,0.3-2.2c0.8-1.1,1.5-2.2,2.4-3.4
			c0.4-0.5,1.1-0.6,1.2-1.4h0.3c-0.8,2.2-3.7,4.7-3.2,7.5c0.2,0.9,0.9,2.3,1.2,3.3c0.3,0.8-0.1,2.2,0.4,2.8v0.2
			c-1.5-0.1-1.8-0.9-2.9-1.2C408.5,152.7,408.4,150.3,409.1,148.6z M409.1,157c0-0.6,0-1.3,0.3-1.7c0.9,0.3,1.7,0.9,2.4,1.4
			c-0.2,1-0.3,2.3-1.1,2.9l-0.1,0.1v-0.1C409.4,158.9,410.2,157.5,409.1,157z M410.3,169.2H410c0-0.7,0.3-1,0.4-1.6
			C411.1,168.2,410.4,168.6,410.3,169.2z M409.3,173.1c-0.2-0.6,1.5-2.3,1.9-3c0.2-0.4-0.1-0.9,0.1-1.3c0.1-0.3,0.4-0.9,0.6-1.2
			c0.3-0.8-0.6-3.5-0.8-4.2c-0.4-1.3,1-4,1.7-5.2c0.4,0.1,0.4,0.2,0.7,0.4c0,0.5,0.1,0.9,0.1,1.4c-0.3,0.9-1.5,2.4-1.2,3.5
			c0.2,1,0.6,1.8,1,3c0,0.3-0.1,0.6-0.1,0.8c-0.1,1.8-0.1,3-0.7,4.3c-0.3,0.6-0.2,1.7-0.3,2.1c-0.2,0.8,0.3,1.4,0,2.1
			c-0.2,0.6-1.1,2.4-1.7,2.7c-0.2,0.2-1.4-0.6-1.5-0.8C408.2,176.6,409.7,174.4,409.3,173.1z M408.5,179.4c0.1-0.2,0.1-0.1,0.3-0.3
			c0.3,0.1,0.7,0.2,1.1,0.2c0,0.3,0.1,0.1,0,0.3c-0.1,0.1-1.6,1.5-1.8,1.7v0.2h-0.3C407.9,180.8,408,179.7,408.5,179.4z
			 M409.1,182.7c-0.1,1-0.4,1.1-0.6,2.1c-0.4-0.4,0-1.6,0.3-2.1H409.1z M407.3,177.2h-0.1c-0.6-1-0.2-2.2,0.6-3
			C408.2,174.8,407.3,176.6,407.3,177.2z M404.8,171.8c0.6,0.3,1.2,0.6,1.4,1.1c0.4,0,0.6,0,0.8-0.1c0.3-0.1,0.3-0.2,0.6-0.4v-0.2
			h0.1c-0.2,0.5-0.6,0.9-1.1,1.2c-0.1,0.1,0,0-0.3,0.1c-0.4-0.3-0.8-0.6-1.4-0.7C405,172.6,404.9,172.2,404.8,171.8z M403.5,183.2
			c-1.1-2.6-1.3-5,1.2-6.9c0.2,0.1,0.1,0,0.3,0.1c0.5,0.5-0.1,1.3,0.6,1.9c0.3,0.4,0.8,0.4,1.4,0.4c0,1.3-0.5,1.5-0.8,2.2
			c-0.1,0.5-0.2,1.1-0.3,1.6c-0.1,0.2-0.5,0.7-0.6,0.9v0.8l-0.6,0.4c-0.2,0.3-0.2,1.5-0.3,1.7C404,185.7,403.9,184.1,403.5,183.2z
			 M404.5,186.5v0.4h-0.1c-0.1-0.2-0.1-0.1,0-0.4H404.5z M407,200.8c-0.3,0.7,0,1.5-0.6,2c0,0.1-0.1,0.2-0.1,0.3
			c-0.4,0-0.9,0-1.1,0.1h-1.8c0.3-1-0.1-2.4,0.4-3.7c0.5-1.3,0.7-2.8,1.1-4.2v-1.3c1.1-2.4,1.3-6.3,1.5-9c0.1,0,0.2,0.1,0.3,0.1
			c-0.3,1.1,1.2,1.8,1,2.6c-0.6,2-1.7,3.8-1.2,6.3c0,0.3-0.3,0.8-0.1,1.2C406.9,197.1,407.7,199,407,200.8z M408,207.4
			c0,0.1-0.1,0.2-0.1,0.4h-0.3l-0.1-0.1c0.1-0.8,0.2-0.8,0.4-1.4C408,206.5,408,207.3,408,207.4z M407.8,196.1h0.1v0.3
			C407.8,196.3,407.9,196.3,407.8,196.1z M408.1,193.9c-0.2,0.6,0.2,1.2-0.1,1.6v0.1h-0.1c0-1.4-0.6-2.6-0.1-4.1
			c0.2-0.7,0.9-1.6,0.8-2.2l0.6,0.4C409.2,191.1,408.6,192.5,408.1,193.9z M410.6,183.5c0.1-0.3-0.2-0.7,0-1.2
			c0.3-0.8,0.6-1.5,1.1-2.2c0.7,0,1.4,0,1.9,0.1c-0.1,0.9-0.8,1.4-1.2,2.1c-0.4,0.7-0.3,1.3-0.7,2c-0.7,1.1-1.5,2.4-1.7,3.7
			c-0.5-0.1-0.5-0.3-0.8-0.5C409.1,186.3,410.1,184.6,410.6,183.5z M410.7,196.8L410.7,196.8c-0.8-0.4-0.3-1.9-0.3-2.9
			C411.3,194.8,410.3,196.2,410.7,196.8z M413.8,209.4l-0.1,0.1v-0.1c-0.1-0.1,0.4-1.1,0.4-1.5C414.4,208.3,414.1,209.2,413.8,209.4
			z M417.7,199.9c-1,1-1.3,2.6-1.9,3.8c0,0.3-0.1,0.6-0.1,0.8c-0.1,0.2-0.7,0.3-0.8,0.6c-0.3,0.6,0.3,0.7,0.4,1.1
			c0.1,0.4-0.5,1.2-0.8,1.4v0.2h-0.1c0.5-2-0.3-3.8,0.4-5.9c0.1-0.3-0.2-0.7-0.1-0.8c0.1-0.1,0.5-0.2,0.6-0.3c0.2-0.4-0.2-0.5,0-0.9
			c0.2-0.4,0.7-1.1,0.8-1.6v-1.2l0.6-0.4c0.5-0.7,0.4-1.5,1-2.2c0.1-0.2,0.5-0.4,0.7-0.7h0.4c0.6,0.8,1.1,2.1,2.2,2.6
			C420.5,197.8,418.6,198.9,417.7,199.9z M417.9,190.5c-1.4-1.3-0.8-4.3,0.6-5.3c0-1,1.4-1.2,2.4-1.2
			C420.8,186.6,418.3,187.9,417.9,190.5z M422.2,181c-0.3,0.7-0.2,1.7-1.1,2c-1.1,0.3-1.8-0.2-2.9,0.5c-0.7,0.2-0.6,0.9-1,1.3
			c-1.1,1.4-2.4,3.5-1.4,5.3c0.3,0.6,1.6,1.5,1.4,2.2c-0.2,0.5-0.5,0.8-0.8,1.2c0.3,0.4-0.6,1.1-0.8,1.5c-0.4,0.7-0.3,1.2-0.7,2
			c-0.2,0.4-0.7,0.9-0.8,1.3v0.9c-0.8,1.9-1,3.5-1.2,5.6c-1.2,0-2.7-0.4-3.6-0.7c0.5-2.3,1.9-4.2,2.9-6.2c0-0.5,0.1-0.9,0.1-1.4
			c0-0.1,0.4-0.4,0.4-0.5c0-0.2-0.2-0.3-0.3-0.4c0-0.4,0.1-0.8,0.1-1.2c0-0.1-0.4-0.4-0.4-0.4c-0.1-0.2,0.3-0.7,0.1-1
			c-0.1-0.1-0.5-0.3-0.6-0.5c-0.1-0.2,0.2-0.2,0.1-0.6c-0.2-0.6-0.5-1.1-0.7-1.7c-0.3-1.1,0.9-1.7,1.2-2.3c0.3-0.6,0-1,0.4-1.5
			c0.9-1.2,2-2.5,2.8-3.7c0.5-0.8,0.4-2,1.1-2.7c0.2-0.3,2.7-1.5,3.3-1.6c0.3-1.2,2.5-1.6,3.2-2.6h0.4
			C423.6,177.8,422.9,179.6,422.2,181z M426.8,178.7c-0.2,0.4-2.4,2.5-2.9,2.6v0.1h-0.3c0.1-1.3,0.8-2.4,1.2-3.7
			c0-0.2-0.1-0.5-0.1-0.7c0.4-1.2,0.6-2.3,0.8-3.6c1.2,0.7,0.5,2.2,1,3.5C426.7,177.2,427.1,178.1,426.8,178.7z M436.3,147
			c-0.3,0.6-1.2,1.1-1.5,1.8c-0.2,0.4,0.2,0.5,0,0.8c-0.1,0.1-0.5,0.5-0.6,0.7c-0.4,0.8-0.4,2.1-1.1,2.8c-0.3,0.3-4.6,2.2-5.1,2.3
			c-0.1,0.1,0,0-0.3,0.1c-0.4-0.8-0.5-2.1-0.3-3.5c0-0.3,0.1-0.6,0.1-0.9c-0.3-0.8,0.2-0.9,0.6-1.6c0.3-0.7,0.1-1.3,0.4-2.1
			c0.3-0.7,1-1.6,1.2-2.2v-0.7c0.2-0.4,0.5-1,0.8-1.3c0.4-0.5,0.9-1,1.4-1.5c0.5-0.5,1.6-0.7,1.9-1.3h0.6c0.6,0.9,1.3,1.8,1.7,2.7
			c0.5,1.1-0.7,2-0.3,3C436,146.3,436.4,146.7,436.3,147z M436.7,135.6v0.2c-0.7-0.6-0.3-1.2-0.1-2.1c0.2-0.1,0.3-0.2,0.4-0.4h0.3
			C437.5,134.2,437.4,135.1,436.7,135.6z M438.3,120.6c0.3,0.3-0.8,2.9-1,3.5c-1.3,3-2.5,3.9-5.4,5.8c-1.1,0.7-2.3,1.7-4.3,1.8
			c0-1.1-0.1-2.2,0.3-3.5c0.1-0.4-0.2-1-0.1-1.3c0.1-0.5,0.6-0.9,0.8-1.3c0-1.2-0.1-2.4-0.1-3.6c0.3-1.2,0.5-3.2,1.5-4.7
			c0.5-0.8,1.6-1.5,2.2-2.1c0-0.2,0.1-0.4,0.1-0.7c0.1-0.2,0.7-0.3,0.8-0.5c0.3-0.4,0.2-0.7,0.6-1c0.4-0.5,1.4-1,1.9-1.6
			c1.3,0.1,0.6,0.6,1.1,1.2c0.5,0.7,0.9,1.7,1.2,2.5c0.2,0.5,0.1,1,0.4,1.4C439.4,117.6,438.5,119.3,438.3,120.6z M439.2,124.7
			c0.2-1,0.7-2.1,1-3.2c0.6,0.4,0.9,1,0.8,1.9c-0.6,0.4-1.1,0.9-1.7,1.3C439.3,124.7,439.2,124.7,439.2,124.7z M453.3,87.9
			c-0.4,0.5-0.5,1.4-0.7,1.7c-1.3,1.7-2.5,3.8-3.3,5.9c-0.1,0.5-0.2,1-0.3,1.5c-0.4,0.8-1,1.9-1.4,2.7c-0.3,0.7-0.1,1.1-0.4,1.8
			c-0.4,0.7-1.4,2.3-1,3.4c0.4,1.1,0.1,2.3,0.6,3.5v1.2c1.7,4.3,3.6,8.8,0.7,13.4c-0.5,0.8-0.8,1.7-1.7,2.3c-1.1,0.8-4.8,0.9-6,1.4
			h-0.1c0.5-1.2,2.5-1.7,3.1-2.9c0.2-0.5-0.1-1.2-0.3-1.5c0.1-0.3-0.2-0.5-0.3-0.8c-0.2-0.5,0.1-0.8,0-1.1c-0.2-0.6-0.1-0.9-0.1-1.7
			c0-0.2-0.1-0.5-0.1-0.7c0.2-0.5,0-1.4,0.3-2.1c0.5-1.3,1.1-2.8,1.7-4c0.3-0.6,0-1.2,0.1-1.7c0.2-0.5,0.6-1.2,0.8-1.7
			c0.1-0.2-0.1-0.6-0.1-0.7c-0.1-0.3,0.2-0.4,0.3-0.7l-0.1-0.1h-0.6c-0.5,1.3-1,2.7-1.5,3.8c0,0.3-0.1,0.7-0.1,1
			c-1,1.8-2.2,3.9-2.2,6.4c-1-0.9-0.1-3.2-0.6-4.6c-0.6-1.8-0.4-4.3,0-5.9c0-0.2-0.1-0.5-0.1-0.7c0.1-0.3,0.3-0.9,0.4-1.2
			c0.1-0.4-0.2-0.8-0.1-1c0.1-0.3,0.5-0.9,0.4-1.2c-0.1-0.3,0.4-1.6,0.3-2.1c-0.2-0.8-0.5-1.4-0.7-2.1c-0.2-0.6,0.2-1.3-0.1-2.1
			v-1.5c-0.2-0.6-0.8-1.4-1.1-2.1c0-0.6-0.1-1.2-0.1-1.9c-0.1-0.3-0.6-1.4-0.3-2.1c0.2-0.5,0.7-1.2,1-1.7c0.2-0.4-0.2-0.5,0-0.7
			c0.2-0.4,1.2-0.8,1.5-1.1c0.4-0.4,0.4-0.8,0.8-1.2l2.2-1.3c0.2,0,0.5-0.1,0.7-0.1c0.4-0.2,0.8-0.9,1.2-1h0.7
			c0.9-0.3,2.2-0.9,3.2-1.1c0.4,0,0.8,0.1,1.2,0.1c0.4,0,1-0.2,1.5-0.2v-0.2c0.8,0.1,1.5,0.3,2.1,0.2c0.2,0.3,0.7,0.5,0.8,0.8
			C456.1,83.6,453.9,87,453.3,87.9z M390.2,245.1c-0.4,0.1-0.3,0.1-0.7,0.2c-0.8-0.5-1.6-0.4-2.2-1.2h-0.7c-0.2,0.4-0.4,0.7-0.6,1
			c1.6,0.9,4,1.8,7.1,1.5l0.1-0.1c0-0.4-0.1-0.5-0.3-0.7C392.7,245.7,390.4,245.5,390.2,245.1z M374.1,318.2c-0.3,0-0.8,0.2-1.2,0.1
			c-1.2-0.2-2.3-0.7-3.6-0.8c-0.2,0.2-0.8,0.4-0.6,0.7c0.4,0.6,5.6,1.3,6.5,1.2c0.7-0.1,1.6,0,2.1,0.1c0.2-0.2,0.4-0.3,0.7-0.4
			c-0.1-0.4-0.2-0.5-0.4-0.7C376.7,318.3,374.9,318.1,374.1,318.2z"/>
	</g>
</g>
<ellipse class="st0" cx="377.7" cy="440.1" rx="62.2" ry="4.1"/>
</svg>
