<?xml version="1.0" encoding="utf-8"?>
<!-- Generator: Adobe Illustrator 21.0.0, SVG Export Plug-In . SVG Version: 6.00 Build 0)  -->
<svg version="1.1" id="Calque_1" xmlns="http://www.w3.org/2000/svg" xmlns:xlink="http://www.w3.org/1999/xlink" x="0px" y="0px"
	 viewBox="0 0 841.9 595.3" style="enable-background:new 0 0 841.9 595.3;" xml:space="preserve">
<style type="text/css">
	.st0{fill:#DADADA;}
	.st1{fill:#1D1D1B;}
</style>
<path class="st0" d="M429.4,367.6l20.6,35.9c0,0-4.9-3.5-0.1-8.4c4.8-4.9,11.9-10.8,12.6-5.5s6.2,4.8,2.5,9.1
	c-3.7,4.3-1.8,7.5-8.4,6.1c-6.6-1.4-4.9,2.6-4.9,2.6l2.2,6.1h121.6l-16.3-33.6l7.7-26.7l-16,13.2l2.7-12.6l-8,11.3l-0.3-21.3
	c0,0-6.7,24.1-9,20.3c-2.3-3.9,0.3-20.7,0.3-20.7l-4.9,19.8l-1.4-1.6c0,0-11.5,8.2-23.8,5.5s-20.6-9.9-20.6-9.9l-35.8,4l-10.5-0.6
	v2.5l-11.4,2L429.4,367.6z"/>
<path class="st0" d="M261.2,366.7l-7.7-22.9l14.2,21.4v-23.8l14.6,24.2c0,0,24.1,18.7,46.1,0.6c3.5-4.4,3.5-4.4,3.5-4.4l42.5-2.8
	c0,0,4.4,7.5,12.4,7.9c-2.8,9.4-12.4,26.5-12.4,26.5s-5.6-7.5-11.8-5.5s-8.7,3.3-9.6,8.6c-0.9,5.3,2.8,13.5,16.4,8.8
	c-5.1,4.2-8.9,8.9-8.9,8.9L241,413.4l-6.6-31.5l16.6-3.8l-8.3-8l13.6,2.2l-10.9-19.2L261.2,366.7z"/>
<g>
	<g>
		<path class="st1" d="M564.1,360.5c-2-0.2-3.3-1.1-5.4-0.8c-2.4,0.5-7.2,3.1-10,1.4c-0.1-0.1-0.2-0.2-0.4-0.2
			c0.2-0.7,0.3-1.5,0.5-2.2c-0.2-0.2-0.3-0.4-0.5-0.6c-2.5,0.3-4.5,1.9-6.8,2.8c-0.2,0-0.4,0-0.6,0c0.2-0.7,4.3-5.7,2.1-6.9
			c-2.5-0.9-6.4,5.7-9,6.4c0.5-0.8,0.4-1.8,0.9-2.8c0.9-1.9,5.6-7.4,5-9.2c-0.1-0.1-0.2-0.3-0.2-0.4c-0.2,0-0.4,0.1-0.6,0.1
			c-1.1,1.7-3.9,6-4.4,7.5c-0.2,0-0.3,0-0.5,0c-0.1-4.2-0.2-7.8-0.6-12c0-2,0.1-4.1,0.1-6.1c-0.2-1.8-0.7-3.4-0.5-5.4
			c0.6-5.9,0.4-12.1,0.1-17.9c-0.1-2.6,0.3-5.9,0.1-8.9c-0.6-10-1.7-18.8-1-28c-0.1-1.8-0.2-3.7-0.2-5.5c0.5-1.9,2.4-3.3,3-5
			c1.7-4.5,3.6-8.5,5.9-12.4c0.7-1.2,1-3.2,2.4-3.8c0.6-2.8,0.2-8.6-0.6-11.9c0-1.3,0-2.6,0-3.9c-0.4-3.8-0.8-7.6-1.2-11.4
			c-1.2-1.8-2.5-3.7-3.8-5.5c-0.8-1.4-1.1-2.8-1.9-4.2c-1.2-1.3-2.3-2.7-3.5-4c-2-2.8-3.5-6.4-5.8-9c-1.9-2.2-4.1-4.6-5.9-6.9
			c-2.7-3.4-7.3-10-10.8-12.4c-1-0.7-2.4-0.7-3.8-0.9c-1.3,2.9-4.7,6.5-6.5,9.2c-3.4,5.1-6.6,10.7-10.4,15.8c-1.8,2-3.7,3.9-5.5,5.9
			c-1.3,1.6-6.5,10.7-7.9,11c-0.3-0.2-0.6-0.5-0.9-0.8c-0.9-0.1-1.8-0.2-2.6-0.2c-4.7,0.6-10.7,0.6-14.5,0.6c-0.6-5,2.4-13-4.9-11.9
			c-1.7,0.2-3.6-0.2-5.1,0.1c-2,3,0,8.7-0.4,12.2c-1.1,0.4-2.2,0-3.4-0.1c-4.7-0.3-7.2,0.3-11.6,0.1c-1.2-0.1-2.5-0.3-3.8-0.4
			c-4.5,0.3-9.5,0.3-14-0.6c-3,0.1-6,0.3-9,0.4c-5-0.3-10.6-1-16.5-0.5c-3.9,0.3-14.4-1.2-17,0c-1.8-1.7,0.9-9.6-0.9-12.1
			c-0.7-0.9-8.6-0.1-9.9,0.2c-1.4,2.2-0.2,8.2-0.6,11.6c-7.9-0.8-18.3,0.6-27.8,0.8c-5.1-11-13.7-19.3-20.2-29
			c-1.9-2.8-6-11.2-9-12.2c-4.5,3.7-7.6,9.3-11.1,14c-4.2,5.5-9.3,10.5-13.6,15.9c-3.4,4.3-6.1,9-9.5,13.4c-0.4,0.6-1.4,0.5-1.9,1
			c-0.6,0.7,0.5,4.4,0,6.4c-0.9,3.9-0.8,10.3-0.2,14c0.4,2.4-0.5,4.8,0.2,7.4c-0.3,0.2-0.6,0.4-0.9,0.6c0.3,1.7,1.7,2.6,2.4,3.9
			c1.7,3,3,5.9,4.6,8.9c1,1.9,3.3,3.6,4,5.8c0,10.2,0,20.4,0,30.6c1.1,11.9,0.7,22.4,1.4,34.8c-0.1,2.8-0.3,5.7-0.4,8.5
			c0.7,4.9,0.6,10.6,0.8,15.9c-1.3-1-2.3-4.3-2.2-6.2c0.1-2,0.5-5.5-0.4-6.2c-0.3,0-0.7,0-1,0c-1,4.1-0.3,8.6-1.5,13.2
			c-2-1.2-2.9-3.8-5-4.9c-0.2,0.1-0.3,0.2-0.5,0.2c-0.3,2.5,0.8,4.8,1.4,7.1v0.1c-0.2,0-0.4,0.1-0.6,0.1c-1.3-1.1-11.8-5.9-13.4-5.8
			c0,0.1,0,0.2,0,0.2c-0.4,0.4-0.3,0.8-0.4,1.2c0.1,1.3-3.1-0.5-3.9-0.9c-3.2-1.6-6.6-2.8-10.8-4c-0.2,0.2-0.3,0.3-0.5,0.5
			c0,0.5,0.1,0.9,0.1,1.4c0.3,0.2,0.6,0.4,0.9,0.6c1-0.1,1.9-0.3,2.9-0.4c2.4,0.4,10.9,4.8,12.8,6.2c0.8,0.7,1.5,1.8,2.5,2.2
			c0.3,0,0.7,0.1,1,0.1c0.1-0.3,0.2-0.6,0.4-0.9c-0.9-1.3-2.2-2.6-3.2-3.9c0-0.1-0.1-0.3-0.1-0.4l0.1-0.1c2,0.3,7.6,2.5,9.4,3.8
			c1.3,0.9,2.3,2.2,3.8,2.6c1.4-1.1,0.4-4.3,0.2-6c2,1,1.8,3.1,2.9,4.9c0.2,0.2,0.4,0.4,0.6,0.6c0.6,0,0.6,0,0.9-0.4
			c0.2-2.3,0.5-4.6,0.8-6.9c0.1-0.1,0.2-0.3,0.4-0.4c1.1,1.6,2.5,5,2.2,7c1.6,2.5,7.2,3.4,10.6,4.8c9.8,3.7,20.5,3.5,31.1,1
			c5.7-1.3,11.2-3.2,10.5-10.1c0.1-0.1,0.2-0.3,0.2-0.4c8.3,0.5,15.3-0.5,24.4-1c1.5,0.1,3.1,0.2,4.6,0.2c2.4-0.1,4.8-0.3,7.2-0.4
			c2.5,0.4,4.6,0.5,6.6,0c0.2,0.1,0.4,0.2,0.6,0.4c0.5,1.1,0.2,2,0.5,3.2c1.5,1,3.1,0.8,5.5,0.8c0.2,0.5,0.3,0.9,0.5,1.4
			c1.4,0.7,3.4-0.1,4.9,0.5c0.3,0.6,0.7,1.3,1,1.9c-0.4,0.8-0.4,1.9-0.9,2.6c-1.1,1.6-3.6,1.9-3,4.6c0,0.1,0.1,0.2,0.1,0.2
			c0.9-0.1,4.3-3.5,4.8-4.2c0.1-0.7,0.2-1.5,0.2-2.2c0.7-1.2,2.1-2.9,3.6-3.1c0.7,0.2,1.4,0.4,2.1,0.6c1.3-1.3,3.5-5.4,4.8-6
			c1.7,0.1,3.5,0.2,5.2,0.4c2.7-0.1,5.4-0.3,8.1-0.4c1.3-0.2,3.2-0.3,3.9,0.4c0.8,0.1,0.8,0.2,1.1-0.5c0.2,0,0.5,0.1,0.8,0.1
			c1,0.8,1.1,2.3,1.4,3.6c5,3.1,8.8,1.3,14.6,0.4c0.6-0.1,1.1,0.7,2,0.4c1.1-0.5,1.9-1.2,3.6-0.6c0.3-0.1,0.6-0.3,0.9-0.4
			c-0.2-0.9-0.3-1.8-0.5-2.8c0.1-0.1,0.2-0.2,0.4-0.2c3.2,0,6.3,0,9.5,0c7.1-0.9,16.9-1.3,24.2-2.5c4.2-0.7,8.8,0.8,12.1-0.5
			c5.5,7.2,19.1,10.4,31.1,8.6c5-0.7,8.9-3.5,13-5c0.2,0.2,0.5,0.5,0.8,0.8c4.8-0.4,6-5.7,9.6-7.2c0.1-0.1,0.2-0.2,0.2-0.2h0.1
			c-0.3,2.7-3.9,4.5-2.8,7c2.8,0.5,4.7-2,7.2-2.4h0.1c2.2,7.2,12.7-1.9,16.1,2.4c0.5-0.1,1.1-0.2,1.6-0.2c0.1-0.5,0.2-0.9,0.2-1.4
			C564.2,360.9,564.2,360.9,564.1,360.5z M532.8,267.1c-0.9,1.9-2.6,3.4-3.4,5.6c-0.8,0.2-1.7,0.5-2.5,0.8h-0.1c0-0.8,0.7-1.8,1-2.6
			c0-0.7,0-1.3,0-2c1-2.4,2-4.8,3-7.1v-0.1c-0.2-0.1-0.3-0.3-0.5-0.4c-1.8,0.1-5.8,10.8-5.9,12.9c-0.6,0.4-1.9,0.4-2.9,0.5
			c0.1-2.6,0.4-4.8,1.1-7.1c0.5-1.4,1.3-2.6,1.4-4.4c-0.5-0.4-0.5-0.6-1.4-0.6h-0.1c-1.1,1.9-3.2,9.6-3,12.5c-1,0.1-1.9,0.3-2.9,0.4
			l-0.1-0.1c0.1-2.8,0.2-5.6,0.4-8.4c0.4-1,0.9-2.2,0.9-3.6c-0.4-0.4-0.6-0.6-1.1-0.5c-1.4,0.9-2.1,10.4-2.2,12.9
			c-1.2,0-2.4,0-3.6,0c-0.1,0-0.2-0.1-0.2-0.1c-1-4.3,0.5-8.4,0.5-12.8c-0.6-0.4-0.6-0.4-1.5-0.2c-1.2,2.4-0.7,7.2-1.4,10.2
			c0,0.8,0,1.7,0,2.5c-0.6,0.6-2.3,0.1-3,0c-1.1-3.6,0.4-8.6-0.9-12.5c-0.1,0-0.2-0.1-0.2-0.1c-0.4,0.2-0.8,0.5-1.2,0.8
			c0.1,2.8-0.5,9.8,0.2,11.4c0,0.1-0.1,0.2-0.1,0.2c-0.9,0.1-2.4,0.1-3.5-0.4c-0.1,0-0.2,0-0.2,0c0.7-3.4-2-7.4-2-11.9
			c-0.3-0.2-0.6-0.5-0.9-0.8c-0.3,0-0.6,0.1-0.9,0.1c-0.4,3.1,2.4,9.5,1.6,12c0.3,0.2,0.2,0.2,0.8,0.2c-0.4,0.5-1.5,0.4-2.4,0.1
			c-1.6-0.8-4.7-10.4-5.6-12.6c-0.5,0-0.9,0-1.4,0c-0.2,2.1,2.6,8.7,3.2,10.9c-0.9-0.3-1.6,0-2.2-0.1c-0.4-0.5-0.8-1-1.2-1.5
			c0-0.2,0-0.3,0-0.5c0.4,0,0.8,0.1,1.2,0.1c0.2-0.2,0.5-0.4,0.8-0.6c0-0.2,0-0.4,0-0.6c-0.4-0.4-0.5-0.7-1.1-0.9
			c-0.6-0.2-1,0.3-1.5,0.5h-0.1c-0.3-0.9-0.6-1.8-0.9-2.6c0.5-0.1,0.9-0.3,1.4-0.4c0.1-0.2,0.2-0.4,0.2-0.6c0.1-0.5-0.1-0.6-0.4-1
			c-0.9-0.2-1.1-0.1-2.1,0c-0.3-0.7-0.6-1.5-0.9-2.2c0.6,0.2,1.1,0.3,1.6,0c0.1-0.1,0.2-0.3,0.4-0.4c0.6-0.8-0.4-1.6-1.6-1.5
			c0.3-1.1,0.3-2.1,0.2-3.1c-0.4-0.2-0.8-0.5-1.2-0.8c-0.7,0.3-1,0.4-1.2,1.1h-0.1c-0.8-0.7-1.1-2.2-1.5-3.2v-0.1
			c1.4,0.4,0.4,1.8,2.6,2c0.2-0.2,0.4-0.3,0.6-0.5c-0.2-1.5-1.1-1.6-1.4-3.1c-0.8-0.6-1.4-0.6-2.8-0.5c-0.2-0.6-0.5-1.3-0.8-1.9
			c1.7,0.8,3.5,1.7,5.2,2.5c0.6,0.5,0.5,1.3,1.5,1.5c0.7-0.2,1.5-0.3,2.2-0.5c4.1,0.6,8.3,1.3,12.4,1.9c2.5,0,5-0.1,7.5-0.1
			c6.9,0.7,17.4,1.5,24.5-0.1c2.1-0.8,4.3-1.6,6.4-2.4C537.7,257.9,534.9,262.3,532.8,267.1z M488.1,289.4c0-0.4,0.1-0.8,0.1-1.2
			c0.4,0.1,0.8,0.2,1.1,0.2c0.1,0.2,0.2,0.3,0.4,0.5C489.1,289,488.6,289.2,488.1,289.4z M488.4,291c0,0.5-0.1,0.9-0.1,1.4
			c-0.1,0-0.2,0-0.2,0c0-0.5-0.1-1.1-0.1-1.6C488.1,290.8,488.3,290.9,488.4,291z M489.2,275.9L489.2,275.9c-0.1-0.3-0.1-0.7-0.1-1
			c0.2,0,0.4,0,0.6,0c0,0.5,0.1,0.3-0.1,0.6C489.4,275.6,489.3,275.7,489.2,275.9z M488.1,303c-0.2,0.2-0.5,0.3-0.8,0.5
			c0-0.2-0.1-0.3-0.1-0.5c0.1-0.1,0.2-0.2,0.2-0.2C487.9,302.8,487.8,302.8,488.1,303z M484.4,261.2c-0.1,0-0.2,0.1-0.2,0.1
			c0-0.3-0.1-0.7-0.1-1c0.2,0,0.5,0,0.8,0C484.7,260.7,484.6,260.9,484.4,261.2z M479.2,247.5c-0.2,0-0.3,0-0.5,0
			c-0.1-0.6-0.3-1.3-0.4-1.9c0.5,0,1.1-0.1,1.6-0.1c0,0.1,0.1,0.2,0.1,0.2C479.5,246.3,479.2,246.3,479.2,247.5z M479.1,229
			c-0.1,0.3-0.3,0.7-0.4,1c0.4,0.4,0.8,0.6,1.4,1c0.3,0,0.6-0.1,0.9-0.1c0.5-0.8-0.3-2.7-0.6-3.5c0-0.1,0.1-0.2,0.1-0.2
			c0.9-0.2,1.3-0.1,2.1,0.2c-0.2,0.1-0.5,0.3-0.8,0.4c-0.3,0.4-0.4,0.5-0.4,1.2c0.4,0.2,0.8,0.5,1.1,0.8c0.5-0.2,1-0.3,1.5-0.5
			c0-0.1,0.1-0.3,0.1-0.4c-0.3-0.5-0.7-0.9-1-1.4c1.7,0.4,4,0.2,6.1,0.8c12.3,3.1,26,3.5,37.9,1.1c5.2-1,8.7-0.7,13-2.5h0.1
			c1.4,6.9,1.3,14.9,1.2,22.1c-0.4,0-0.8,0-1.1,0c-0.4,0.6-0.5,0.7-0.5,1.6c-2.6,1.3-5.5,2.6-8.6,3.4c-4.7,1.2-9.7-0.1-14.1,0.2
			c-5.8-0.2-11.7-0.3-17.5-0.5c-2.2-0.4-4.3-0.8-6.5-1.2c-1.6-0.2-3.3-0.3-4.9-0.5c-2.9-0.8-4.9-2.2-7.4-3.2
			c-0.1-0.1-0.2-0.3-0.2-0.4c0.5-0.2,0.8-0.1,1.1-0.8c0.2-0.6-0.4-1.1-0.2-1.5c0.3-0.2,0.6-0.5,0.9-0.8c0.5-1.5-0.7-0.9,0.6-2.2
			c0-0.2-0.1-0.3-0.1-0.5c-0.3-0.6-0.9-0.7-1.5-1c-0.2,0.1-0.5,0.2-0.8,0.2c-0.1,0.1-0.2,0.3-0.2,0.4c-0.1,0.8,0.1,0.9,0.5,1.5v0.1
			c-0.1,0-0.3,0.1-0.4,0.1c-0.7-0.2-1.4-0.4-2.1-0.6c-0.1-0.1-0.2-0.3-0.2-0.4c1-0.5,1.4-0.1,2.1-1.1c-0.4-0.9-0.8-1.3-2-1.4
			c-0.1-0.3-0.3-0.6-0.4-0.9c0-0.2,0-0.3,0-0.5c1.4,0.3,3.8,1.4,4-0.5c-0.7-0.9-2.9-1.6-4.1-1.1c-0.2-1.1-0.4-2.3-0.6-3.4
			c0.5-0.3,0.8-0.4,1-1c0.9,0.2,1.1,0.2,1.9-0.1c0-0.2,0.1-0.3,0.1-0.5c-0.3-0.5-0.6-0.8-1.1-1c-0.2,0-0.4-0.1-0.6-0.1
			c0-0.3-0.1-0.7-0.1-1c-0.4-0.7-0.9-0.8-1.5-1.2c0-0.5-0.1-0.9-0.1-1.4c0.2,0,0.3-0.1,0.5-0.1C477.9,228,478.6,228.4,479.1,229z
			 M477.2,231.7c0.1,0,0.2-0.1,0.2-0.1c0.2,0,0.3,0,0.5,0c-0.2,0.5,0,0.3-0.5,0.5h-0.1C477.3,232,477.2,231.9,477.2,231.7z
			 M476.6,224.5c0.8,0.5,1.8,1.1,2.2,1.9v0.1c-0.9-0.4-1-0.6-2.2-0.5C476.6,225.5,476.6,225,476.6,224.5z M449.3,211.7
			c2.2,0,4.9-0.2,6.5,0.4c1.3,6.3,0.3,15.1,0.2,22.2c-2,0.1-3.9,0.3-5.9,0.4c-2.3-3.4-0.4-13.5-0.8-16.9
			C449.2,215.6,448.3,213.9,449.3,211.7z M366.4,210.4c1.1,0.1,2.2,0.3,3.2,0.4c0.8,1.2,0.2,2.6,0.5,4.9c0.4,2.8,0.1,7.6-0.2,10.2
			c-0.3,2.6,0.3,5.3,0.1,7.6c-2.1,0.7-4.5,0.9-6.6,0.2c-1.2-2,0.2-4.6-0.1-6.8c-0.8-5.2-0.6-9.9-0.8-15.9
			C363.9,210.9,365.1,210.6,366.4,210.4z M349.2,251.9c6-1.3,10.8-0.2,17.6-0.9c7-0.3,13.9-0.6,20.9-0.9c3.3,0.1,6.6,0.3,9.9,0.4
			c7.3-0.3,16.1-0.2,24.5,0c2.8,0.1,5.6,0.2,8.4,0.2c3.1-0.4,6.8,0.7,11.2,0.2c3.8-0.4,9-0.6,13.9-0.6c2.2,0.1,4.3,0.2,6.5,0.2
			c5-0.6,9.6-0.5,15.5-0.5c1.4,3.2,2.5,6.1,3.9,9.5c1.2,3,3.7,5.8,3.8,9.5c-3.7,0.1-8.2,1.2-12.4,0.5c-3.4-0.1-6.8-0.2-10.2-0.2
			c-3.1,0.3-5.5,0.3-9.1,0.4c-0.7,0.1-1.5,0.2-2.2,0.2c-3.8-0.5-8.3,0.1-12-0.1c-4.4-0.2-9.8-0.9-13.5-0.9
			c-4.7,0.1-9.5-0.1-14.1-0.6c-6.8-0.1-13.6-0.3-20.4-0.4c-1.9,0.1-3.8,0.2-5.8,0.2c-3.8-0.1-6.5,0.2-9.9,0.1
			c-15-0.3-30.9,2.9-45.5,1.6c-0.5-1.2,1.5-3.1,1.2-4c1.6-4.4,3.2-8.8,4.8-13.1C340,252,343.8,253,349.2,251.9z M332.2,234.7h-0.1
			c-0.2-0.5-0.3-0.6-0.8-0.9v-0.1c0.3-0.4,0.6-0.8,0.9-1.2C332.5,233.2,332.3,234,332.2,234.7z M269.6,246c-0.8-5.9,0.2-12,0.2-17.9
			l0.1-0.1c3.6,1.4,7.2,2.8,10.8,4.2c2.5,0.1,4.9,0.3,7.4,0.4c3.2,0.7,6.7,0.2,10,0.6c11.2,1.6,24.4-0.9,31.9-5.8
			c0.5,0.8,1.1,1.6,1.6,2.4c0.1,0,0.2,0,0.2,0c-1.2,0.5-1.9-0.6-3.1-0.8c-0.3,0.2-0.6,0.5-0.9,0.8c0,0.2-0.1,0.5-0.1,0.8
			c0.6,0.2,1.2,0.4,1.8,0.6c0.4,0.8,0.3,1.6,1.2,2c-0.2,0.5-0.6,0.6-1,1c0,0.2,0.1,0.5,0.1,0.8c0.2,0.2,0.4,0.4,0.6,0.6
			c0.7,0.3,1.2-0.1,1.9-0.2c0,0.2,0.1,0.5,0.1,0.8c-0.6,0.5-3.1-0.1-3.8,0.6c-0.1,0-0.3,0.1-0.4,0.1c0,1.8,0.8,1.5,1.2,2.5
			c0,0.7-0.1,1.5-0.1,2.2c0.4,1.4,2.4,1.4,3.6,1.1c0,0.5,0,0.9,0,1.4c-0.4,0.1-1.1,0.1-1.6,0.2c-0.1,0.2-0.2,0.5-0.2,0.8
			c0.3,0.6,0.6,0.9,1.1,1.2c0,0.3-0.1,0.6-0.1,0.9c-0.6-0.2-1.2-0.5-1.8-0.8c-0.2,0.1-0.5,0.3-0.8,0.4c0,0.3-0.1,0.7-0.1,1
			c0.8,0.6,1.5,1.3,2.8,1.5c0.3-0.3,0.6-0.7,0.9-1h0.1c0.1,0.9,0.2,1.8,0.2,2.8c-0.9,0.6-2,1.3-3.2,1.5c0.1-0.5,0.2-1,0.2-1.5
			c-0.6-0.4-0.9-0.6-2-0.6c-0.1,0.4-0.2,0.8-0.2,1.2c0.5,0.3,0.6,0.6,1.2,0.9c-0.6,1.6-9.9,2.4-12.2,3c-2.7,0.7-8,1.6-11.5,1.4
			c-1.8,0-3.6-0.1-5.4-0.1c-5.4,0.6-12.8,0.1-18.8-1.5c-1.3-0.1-2.6-0.2-3.9-0.2c-2.4-0.8-4.8-1.7-7.2-2.5
			C269.1,251.5,269.8,247.8,269.6,246z M273.4,261.4c-1.1-1.6-2-4.3-3.2-6.1c0.2-0.4-0.1-0.5,0.5-0.5c1.7,0.1,3.5,1.6,5.2,2
			c1.7,0.2,3.3,0.3,5,0.5c9.1,1.7,19.4,2.8,30.2,1c4-0.7,7.1-0.4,10.6-1.2c1.5-0.3,2.9-0.6,4.4-0.9c0.2,0.4,0.3,0.8,0.5,1.1
			c0.5,0,1,0.1,1.5,0.1c0.5-0.6,0.5-1,0.8-2c1.3-0.5,3-0.7,4.1-1.4c0.2,0,0.3,0,0.5,0c-0.1,0.3-0.2,0.7-0.2,1
			c-0.6,0-1.3-0.1-1.9-0.1c-0.2,0.4-0.3,0.8-0.5,1.1c0.4,0.5,0.7,0.9,1.5,1c0.3,1.3-0.7,2.2-1.1,3.2c-0.7-0.4-1-0.7-2.2-0.6
			c-0.1,0.2-0.2,0.3-0.2,0.5c0,0.2,0,0.4,0,0.6c0.3,0.8,0.9,1.1,2,1.1c-0.5,1.5-1.1,3-1.6,4.5c-0.5-0.1-0.4,0-0.6-0.2
			c-0.3-0.2,0-0.4,0.1-0.9c-0.4-1-0.6-1.4-2-1.4c-0.2,0.4-0.3,0.7-0.2,1.4c0.3,0.2,0.7,0.5,1,0.8c-0.6,1.6,0,1.5,0.4,3
			c-0.2,0.6-0.3,1.1-1,1.4c-0.2-0.5-0.3-0.6-0.8-0.9c-0.3,0-0.7,0-1,0c-0.2,0.2-0.3,0.3-0.5,0.5c0,1.4,0.4,2.2,1.6,2.4
			c-0.1,1-0.8,1.7-1.6,2c-0.6-0.4-0.9-0.8-1.9-0.9c-0.2,0-0.3,0.1-0.5,0.1c-0.3,0.5-0.5,1.4-0.6,2.1c-0.5,0.2-1.1,0.4-1.6,0.6
			c-0.1,0-0.3,0-0.4,0c0.3-2.4,3.6-9.5,5.1-11c0-0.3-0.1-0.6-0.1-0.9c-0.4-0.1-0.8-0.3-1.1-0.4c-1.4,1.2-6.1,10.6-6.9,12.8
			c-1.1,0.3-1.8,0.4-3.2,0.4l-0.1-0.1c0.4-2,0.8-3.9,1.1-5.9c0.6-1.8,2.1-3.7,2.1-5.9v-0.1c-0.4-0.3-0.5-0.4-1.2-0.4
			c-1.3,1.2-4.1,10.3-4.5,12.4c-0.5,0.4-1.5,0.6-2,0c-1.6-2.1,1.1-8.3,0.1-11.5c-0.4-0.1-0.8-0.2-1.2-0.2c-0.9,1.4-1.6,9.5-1.2,11.8
			c-0.5,0.6-1.9,0.6-3,0.2c-0.9-3.7-0.6-7.9-1.5-12.1c-0.2-0.1-0.5-0.2-0.8-0.2c-0.1,0-0.2,0.1-0.2,0.1c-0.5,2.2-0.7,8.7,0,11.2
			c-0.4,1-1.6,1.5-2.8,0.8c-2.1-1.7-2.2-8.5-3.8-11.1c-0.3,0-0.6,0-0.9,0c-0.9,0.9,1.4,8.4,1.5,10.8c-1.2,0.3-2.4-0.1-3.5-0.2
			c-1.9-2.5-2.1-9.3-4.2-11c-0.4-0.3-0.5-0.3-1-0.2c-0.1,0-0.3,0-0.4,0c0.1,3.4,2.5,7,2.8,10.5c-0.1,0-0.2,0.1-0.2,0.1
			c-0.4-0.1-0.8-0.2-1.1-0.2c-1.7-2.3-4.7-8.4-5.5-11c-0.4-0.1-0.8-0.1-1.4,0.1c-0.3,1.9,2.6,6.8,3.4,9.1c0,0.2,0,0.4,0,0.6
			c-0.9-0.1-1.7-0.3-2.1-0.9c-0.3-0.4-0.2-1.2-0.5-1.6C278.6,268.6,276,264.9,273.4,261.4z M326.2,296.4c0.1,0,0.2,0,0.4,0
			c0.5,1,0.8,3.2,0.2,4.4c-0.3,0.4-0.1,0.3-0.6,0.4l-0.1-0.1C326.6,299.3,326,298,326.2,296.4z M326.2,290.6
			c0.4,0.5,0.4,2.1,0.4,3.1c-0.1,0-0.2,0-0.2,0c0,0.1,0,0.2,0,0.2C325.5,293.7,325.8,291.6,326.2,290.6z M327.4,307.4
			c-0.2-0.5-0.5-0.9-0.8-1.4c0.1-0.2,0.2-0.4,0.4-0.6C327.2,306,327.3,306.7,327.4,307.4z M328.1,364.7c-0.8-1-1.1-1.5-2.6-1.2
			c-0.4,0.5-0.5,0.7-0.4,1.5c0.9,0.6,1.6,0.5,2.8,0.4c0.2,0.3,0.4,0.6,0.6,0.9v0.1c-0.6,0.9-1.4,1-2.4,1.5c-0.4-0.5-1.6-0.8-2.4-1
			c0.4-0.6,0.6-0.6,0.6-1.6v-0.1c-0.9-0.6-2.4-0.6-3.9-0.8c-0.2,0.2-0.3,0.4-0.5,0.6c0,0.3,0,0.6,0,0.9c1.4,0.9,2.3,2.2,3.8,3
			c0,0.2,0,0.3,0,0.5c-1.4,0.6-2.7,1.2-4.4,1.5c-0.4-0.3-1.3-1.5-2.5-0.9c-0.2,0.5-0.4,0.9-0.6,1.4c-0.7,0.7-7.7,1.5-9.8,1.1
			c-6.3-1-21.3-2.7-24.1-6.8c-1.1-1.2-0.5-4.4-0.6-6.4c-0.2-2,0.2-6.3-0.2-9.1c-0.5-3.4-0.8-7.5-0.4-11.4c0.6-5.6-0.4-13.7-0.8-20.6
			c-0.5-9.2,0-22.1-0.2-31.1c0-3.9,0-7.8,0-11.6c1.4,0.6,2.8,1.2,4.2,1.8c3.8,1.2,9.1,1.7,13.6,2.2c2.1,0,4.2,0,6.2,0
			c2.1,0,4.3,0,6.4,0c2.7-0.2,5.4-0.4,8.1-0.6c2.2-0.6,4.4-1.8,6.9-1.9c0,0.1,0.1,0.2,0.1,0.2c-0.6,1-1.7,1.1-2.6,1.9
			c-0.3,0.3-0.3,0.5-0.4,1c0.4,0.3,0.8,0.6,1.1,0.9c-0.2,0.2-0.3,0.5-0.5,0.8c0.1,0.7,0.2,1,0.6,1.4c0.4,0.5,1.4,0.5,2,0.6
			c0,0.2,0,0.5,0,0.8c-1.3,0-2.6,0-3.9,0c-0.1,0.2-0.3,0.3-0.4,0.5c0,0.6,0.1,0.6,0.2,1c0.6,0.4,1.2,0.5,1.9,0.2
			c0.7,0.7,1,1.1,2,1.2c0.1,0.1,0.2,0.2,0.2,0.4c-0.4,0.1-1,0.1-1.6,0.2c-0.3,0.7-0.7,1.5-1,2.2c-0.8-0.3-1.1-0.5-2.1-0.4
			c-0.1,0.2-0.3,0.5-0.4,0.8c0.4,0.4,0.8,0.8,1.2,1.2c0.2-0.1,0.4-0.2,0.6-0.2c0.5-0.3,0.6-0.5,0.6-1.2c1,1.8-0.5,2.2,0,4
			c-0.5,0-1-0.1-1.5-0.1c-0.1,0.2-0.2,0.3-0.2,0.5s0,0.5,0,0.8c0.6,0.9,1.8,1.4,2.5,2.6c-0.8,1.5-0.5,2.4-0.1,4.1
			c0.9,0.5,1.6,0.7,2.6,0.8c0.1,0.3,0.2,0.7,0.4,1v0.1c-0.6-0.1-1.2-0.5-2.4-0.5c-0.7,0.5-1,0.9-1.9,1.2c-0.1-0.9-0.3-1.1-0.9-1.5
			c-0.4,0-0.8,0.1-1.2,0.1c-0.1,0.4-0.2,0.8-0.2,1.2c0.1,0.1,0.2,0.2,0.4,0.2c0,0,3.6,2.1,3.9,2.1c0,0.2,0.1,0.5,0.1,0.8v0.1
			c-0.5-0.1-1.5-0.6-2.2-0.8c-0.7,0.4-0.6,0.7-0.5,1.6c0.8,0.6,3.1,2.3,4.2,1.9c0.2-0.2,0.3-0.5,0.4-0.9c1.5-0.7,1.4,1.5,1.2,3.1
			h-0.1c-0.2-0.7-0.4-1-1-1.4c-0.4,0-0.8,0-1.1,0c-0.2,0.2-0.3,0.5-0.5,0.8c0.1,0.9,0.2,1.8,0.4,2.6c0.6,0.4,1.3,0.8,1.9,1.2
			c0.1,0.2,0.2,0.3,0.2,0.5c-0.2,0.2-0.5,0.3-0.8,0.5c-0.2,0-0.4-0.1-0.6-0.1c-0.5-0.6-0.9-1.4-1.2-2.1c-0.4-0.5,0.2-1.1-0.2-2.1
			c-0.4-0.7-1.3-1-2.2-0.8c-0.4,0.6-0.3,1-0.2,1.9c-0.6,0.1-1.2,0.1-1.5,0.5c-0.2,0.3-0.2,0.4-0.2,1c0.5,0.5,1.1,0.9,2.1,0.6
			c1,2.1-0.2,1.6-0.4,4.1c0.8,0.8,1.8,1.5,3,1.9c0,0.1,0.1,0.2,0.1,0.4c-1.3,1.1-0.9,1.5-1.6,2.9c0.1,2.1,3.2,3.2,4.6,4.2
			c0.1,0,0.2,0,0.2,0c0,0.3,0,0.7,0,1c-0.9-0.2-1.8-0.3-2.8-0.5c-0.1-0.5-0.3-1.1-0.6-1.4c-0.7-0.7-1.5-0.3-2.4-0.1
			c0,0.3,0.1,0.6,0.1,0.9c0.4,0.7,0.9,0.7,1.5,1.1c0.3,0.3,0.3,0.9,0.5,1.2c0.5,0.9,2.3,1,3.4,0.8c0.2,0.2,0.3,0.4,0.5,0.6
			c0,0.4-0.1,0.8-0.1,1.2c-1.7-0.4-2.6-1.4-4.9-1.4c-0.2,0.2-0.3,0.5-0.5,0.8v0.1c1.2,1.6,3.7,2,5.6,2.9c0,0.2,0,0.3,0,0.5
			c-0.6,0-1.2,0.1-1.8,0.1c-0.1,0.2-0.2,0.3-0.2,0.5c-0.2,0.5,0,0.9,0.2,1.2c0.3,0.3,0.7,0.4,1,0.6c0.1,0,0.2,0,0.2,0
			c-0.4,0-0.8,0.1-1.1,0.1c-0.2,0.2-0.4,0.5-0.6,0.8c0.1,0.9,0.3,1,0.8,1.5c0,0.1-0.1,0.2-0.1,0.4c-0.6,0-1.2,0.1-1.8,0.1
			c-0.2,0.6-0.2,1.2,0.2,1.8v0.1c-0.7,0.1-1.3,0.2-2,0.2c0,0.3-0.1,0.7-0.1,1c0.6,0.5,1.1,0.8,2.2,0.8c0,0.4,0,0.8,0,1.2
			c0.9,0.7,1.8,1.3,2.9,0.8c0.1,0.1,0.2,0.2,0.2,0.4c-1.9,2-4.5-1.3-6.4-0.6c-0.2,0.2-0.4,0.4-0.6,0.6c0,0.1,0,0.2,0,0.4
			c1,2.1,1.5,0.6,3.1,1.2c0.5,0.7,1.1,1.4,1.6,2.1c0.9,0.2,1.7,0.3,2-0.5h0.1c0.1,0.3,0.2,0.7,0.4,1c-0.7,0.5-1.6,0.1-2.1,0.8
			c-0.5,0.6,0.6,2.7,1,3.4c-1.1,0.7-2.8-0.9-2.9,1.4c0.2,0.2,0.3,0.4,0.5,0.6c1.1,0.1,2.3,0.2,3.4,0.2c0,0.1,0.1,0.2,0.1,0.4
			c-0.3,0.2-2-0.3-2.9-0.2c-0.4,0.8-0.6,1.6-0.8,2.4c0.1,0.2,0.2,0.3,0.2,0.5c0.9,0.6,1.8,0.4,3,0.2c0.2,0.3,0.2,0.4,0.5,0.6
			C329.2,364.4,328.8,364.3,328.1,364.7z M328.3,320.1c0.1,0.5,0.2,1,0.2,1.5c-1.3-0.3-2-1-2.9-1.6c0-0.2,0-0.3,0-0.5
			C326.7,319.6,327.1,320,328.3,320.1z M329.2,344.7c0,0.1,0.1,0.2,0.1,0.4c-0.1,0.2-0.3,0.4-0.4,0.6c-0.1-0.4-0.3-0.8-0.4-1.1
			C328.8,344.7,329,344.7,329.2,344.7z M394.7,359.1c0,0.6,0,1.2,0,1.8c-1-0.1-1.3,0-2,0.6c0.1,1.3,1.1,2.1,2,2.6
			c0,0.1-0.1,0.2-0.1,0.4c0,0-4.7,1.6-5.1,1.8c-0.8-0.9-3.4-1.9-5-1.4c-0.2-0.4-0.4-0.8-0.6-1.2c-1.5-1-3.6,0.3-5.4-0.6
			c-0.1,0-0.2,0-0.2,0c0.1-0.8,0.5-0.9,0.9-1.5c0-1.1-0.3-1.5-1.2-1.6c-0.4-0.7-0.7-2.8-0.9-3.8c0.5-0.3,1.1-0.7,1.6-1
			c0.3-0.3,0.1-0.2,0.2-0.6c-0.5-0.5-0.9-1.1-1.4-1.6c0-0.2,0-0.5,0-0.8c0.3-0.5,1.1-0.6,1.4-1.1s0.5-4.4,0.5-4.8
			c0.7-1.1,2-2.7,2.4-3.9c2.4,0.6,1.6-0.6,2.2-2.6c0.4-0.8,1.4-0.8,1.8-1.6c0.1-1.1,0.2-2.3,0.2-3.4c0.3-0.3,0.7-0.2,1.2-0.2
			c0.9-1.6,0.9-3.9,1.4-5.8c0.1,0,0.2,0,0.2,0c0.5,1.1,0.2,3.1-0.1,3.9c-0.2,0.7,0.8,2.8,1.1,3.8c0.4,0,0.8,0,1.1,0
			c0.1,0,0.2,0.1,0.4,0.1c-0.3,0.9-0.9,1.2-1.1,2.2c0.6,1.3,2.2,1.5,2.8,2.5c0.4,0.7-0.9,1.9-0.5,3c0.4,0.6,1.2,0.4,1.8,0.8
			c0.1,0.1,0.2,0.2,0.4,0.2c0,0.2,0,0.3,0,0.5l-0.1,0.1c-1.3-0.2-2-0.7-3.2-0.5c-0.1,0-0.2,0.1-0.2,0.1c0,0.3,0,0.7,0,1
			c0.4,0.5,0.7,0.8,1.5,0.9c-0.8,2.2-0.3,2.8,1.8,4.2c0,0.1-0.1,0.2-0.1,0.4c-0.6-0.1-1.2-0.3-1.8-0.4c-0.2,0.1-0.4,0.2-0.6,0.4
			c0,1,0.1,1.3,0.6,1.8c0.6,0.6,4,1,4.5,0.2c0.2,0.5,0,0.3,0.4,0.5c0,0.2-0.1,0.5-0.1,0.8c-0.5,0.7-2.2,1-3.2,0.9
			c-0.2,0.2-0.4,0.4-0.6,0.6C393.3,358.2,394,358.3,394.7,359.1z M390.8,332.4c0.2,0,0.3,0,0.5,0c0,0.1,0,0.2,0,0.2
			c-0.1,0-0.3,0.1-0.4,0.1C390.9,332.6,390.9,332.5,390.8,332.4z M396.2,350.7c0.4,0.9,1.4,1,1.8,1.9c-0.4,0.2-0.8,0.5-1.2,0.8
			c0,0.1-0.1,0.2-0.1,0.2c-0.5-2.2-1.8-3.3-2.5-5.4c0.7,0.3,1.5,0.6,2.2,0.9C396.3,349.4,396,350.1,396.2,350.7z M397.1,346.7
			c0-0.1,0.1-0.2,0.1-0.2c0.2,0,0.3,0,0.5,0c0.1,0.1,0.2,0.2,0.4,0.4c0,0.1,0,0.2,0,0.4c-0.2,0-0.3,0-0.5,0
			C397.4,347.1,397.2,346.9,397.1,346.7z M395.6,361.9c-0.3-0.3-0.2-0.2-0.4-0.6c0.1,0,0.2,0,0.4,0
			C395.6,361.4,395.6,361.7,395.6,361.9z M396.7,358.7c0.2-0.5,0.4-0.9,0.6-1.4c0.3,0,0.6,0,0.9,0c0.1,0.2,0.2,0.4,0.4,0.6
			C397.9,358.2,397.3,358.5,396.7,358.7z M407.7,359.9c-0.1,0.1-5.3,0.4-5.6,0c-0.7-0.7,1.2-1.5-0.9-2.6c0.1-1.8,1.2-4,1.6-5.6
			c-0.7-1.1-1-1-2.4-1.4c0-0.5,0-1.1,0-1.6c0.7-0.1,1.5-0.2,2.2-0.2c1.7,0.1,3.4,0.2,5.1,0.2C407.9,349.3,408.3,359.2,407.7,359.9z
			 M407.9,346.1c-0.3,0.5-0.4,0.4-0.9,0.5c-0.8,0.5-5.7,0.5-6.9,0c-0.4-0.5-0.8-1-1.1-1.5c0.2-1,0.5-2.1,0.8-3.1
			c-0.2-0.2-0.4-0.4-0.6-0.6c-1.1-0.4-2.7,0.5-3.8,0.8c-0.1,0-0.2-0.1-0.2-0.1c0.2-1,0.4-2,0.6-3c1.2-0.1,3.2,0,3.8-0.4
			c2.7,0,5.4,0,8.1,0c0,0.1,0,0.2,0,0.2C408.6,340.1,407.6,344.6,407.9,346.1z M407.8,336.5c-0.2,0.2-10.9,0.9-11.8,0.5
			c-0.4-0.5,0-6.7,0.4-8c0-0.1,0.1-0.3,0.1-0.4c1.8-0.1,5.2,0.6,7.4-0.4c1.2,0,2.5,0.1,3.8,0.1C408.2,328.7,408.4,335.5,407.8,336.5
			z M408.4,325.6v0.1c-0.2,0.3-0.3,0.6-0.5,0.9c-1.4-0.9-9.9,1.4-11.1-0.4c0.3-2.5,0.7-4.9,1-7.4c2.2-0.5,6.1,0.7,8.1-0.4
			c0.7,0,1.3,0.1,2,0.1C409.3,318.6,408.4,325.2,408.4,325.6z M402.4,310.2c1.3-0.9,2.9-0.7,4.2-1.4c0.4,0.1,0.8,0.2,1.1,0.2
			c0.4,2.3,0.7,4.7,0.6,7.4c-1.2,0.7-8.2,1-9.8,0.5C398.4,315,400.8,311.4,402.4,310.2z M409.8,343.2c-1.3-8.7,6-3.3,11.1-5.4
			c0.3,0,0.6,0,0.9,0c0.4,0.6,0.8,1.3,1.2,1.9c0,0.2,0,0.3,0,0.5c-1.1,1.2-2.6,1.3-3.4,2.9c0,1.2,0.2,1.9,1,2.5c0,0.1,0,0.2,0,0.4
			c-1.1,0.3-9.7,1.3-10.5,0.6C409.3,345.8,410,344.3,409.8,343.2z M410.4,318.7c3,0,6.6-0.2,9.8,0c0.7,1.8,1.4,5.4,1.1,6.8
			c-0.1,0.1,0.1,0.1-0.1,0.2c-0.1,0.1-9.9,0.7-10.8,0.4C409.6,325.5,410.4,320.5,410.4,318.7z M410.3,309c4.1,0,7.8,3.1,8.9,6.4
			c-0.4,0.3-0.4,0.1-0.5,0.9c-2,0.7-7.1,1.2-8,0.1C410.3,316.1,409.8,309.8,410.3,309z M410.1,328.2c1.3-0.2,2.6-0.4,3.9-0.6
			c2,0.1,5.9,1.1,7.6,0.1c1,1.9,0.7,5.2,0.5,7.4c-2.5,1.1-8.5,2.3-12,1.2c-0.1-2.6-0.2-5.2-0.2-7.8
			C409.9,328.5,410,328.4,410.1,328.2z M424.9,345.6v0.1c-0.1,0.1-0.2,0.2-0.2,0.2c-0.5-0.1-1-0.2-1.5-0.2c-0.5-0.6-0.8-0.7-0.9-1.8
			c0.1,0,0.2-0.1,0.2-0.1C423.7,344.3,423.5,345.3,424.9,345.6z M423.8,335.7c0-0.6,0.1-1.2,0.1-1.8c0.6,0.2,0.9,0.7,1,1.4
			c-0.1,0.2-0.3,0.3-0.4,0.5c-0.1,0-0.3,0.1-0.4,0.1C424.1,335.9,423.9,335.8,423.8,335.7z M422.6,358c0.7,0.1,1.3,0.2,2,0.4
			c0.2,0.3,0.4,0.6,0.6,0.9c-2.4,0.9-1.5,0.7-3.2-0.4c0-0.2,0-0.3,0-0.5C422.1,358.2,422.4,358.1,422.6,358z M422.3,348.6
			c0-0.1,0-0.2,0-0.2c0.1-0.2,0.2-0.3,0.4-0.5c0.4,0.3,0.3,0.2,0.2,0.6c0,0.1,0,0.2,0,0.2c-0.2,0-0.3,0-0.5,0
			C422.4,348.7,422.4,348.7,422.3,348.6z M422.9,351.2c0-0.1-0.1-0.2-0.1-0.2c0-0.2,0.1-0.3,0.1-0.5c0.4,0.1,0.8,0.2,1.2,0.4
			C423.8,351,423.4,351.1,422.9,351.2z M419.1,353.5c-0.7,2.4-1.9,2.3-0.4,5.2c-0.6,0.5-6.5,1-8,1.1c0-0.1-0.1-0.2-0.1-0.2
			c-0.6-0.7-1-9.6-0.5-10.5c0.7-1,6.1-0.2,8-0.9c0.2,0.1,0.3,0.2,0.5,0.2C417.8,350.5,419.6,351.6,419.1,353.5z M420.1,356.4
			c-0.1,0-0.2-0.1-0.2-0.1c0.2-0.4,0.3-0.8,0.5-1.1c0.2,0.1,0.5,0.2,0.8,0.2C420.9,356,420.5,356.1,420.1,356.4z M421.7,361.7
			c-0.1,0-0.2,0.1-0.2,0.1c-0.5-0.3-0.6-0.6-0.5-1.2c0.4,0,0.8,0,1.1,0l0.1,0.1C422,361.1,421.9,361.4,421.7,361.7z M422.8,364.5
			c0.2-1.9,2.5-0.3,3.5-1.4c0.6,0.3,0.7,1,1,1.5C426.4,365.6,424,364.9,422.8,364.5z M439.7,357.5c-0.2,0.5-1.1,4.5-1.1,5.1
			c-0.6,0.3-1.9,1.2-2.8,1c-0.4-0.1-0.9-0.7-1.8-0.5c-1.5,0.3-2.9,1.5-4.6,0.5c-0.1,0-0.2,0-0.2,0c0.1-0.7,0.2-1.3,0.2-2
			c-0.1,0-0.2,0-0.2,0c-0.7-0.5-1.5-0.3-2.6-0.2c-0.2,0.2-0.3,0.3-0.5,0.5c0,0.1-0.1,0.2-0.1,0.2c0-0.1-0.1-0.3-0.1-0.4
			c0-0.2,0-0.3,0-0.5c0.3,0,0.6,0,0.9,0c0-1.6,0.3-1.4,0.9-2.5c-0.3-0.9-0.7-1-1.2-1.6c1.1-0.1,1.3,0.3,2.4,0.4
			c0.1,0,0.2-0.1,0.2-0.1c0-0.2,0-0.4,0-0.6c-0.1-0.2-0.2-0.4-0.2-0.6c-0.6-0.7-1.7-1.3-2.2-2c-0.6-0.8-1-2.5-2-2.9
			c0-0.1,0-0.2,0-0.2c0.9-0.4,1-1,2.1-1.4c0.5,0.4,1.3,0.9,2.1,0.6c0.1-0.1,0.2-0.2,0.4-0.2c0-0.3-0.1-0.7-0.1-1
			c-0.4-0.2-0.8-0.5-1.2-0.8c-0.4-0.1-0.7,0.1-1.1,0.4c-0.1,0-0.2-0.1-0.2-0.1c0-0.2,0-0.3,0-0.5c0.2,0,0.3,0,0.5,0
			c0.8-0.4,0.8-0.5,0.8-1.6c0.4,0,0.8,0.1,1.2,0.1c0.3-0.6,0.4-1.2,0-1.9v-0.1c0.5-0.1,1-0.2,1.5-0.2c0-0.3,0.1-0.6,0.1-0.9
			c-0.4-0.4-0.8-0.8-1.1-1.1c-0.6,0-0.7,0-1,0.2c-0.7,0.4-0.5,0.8-0.2,1.5c-0.6-0.1-0.8,0-1.4,0.2c0,0.4-0.1,0.8-0.1,1.1
			c-0.1,0-0.2,0.1-0.2,0.1c-0.2-0.2-0.3-0.3-0.5-0.5c0.7-1.4,0.7-3-1.5-3c0.4-0.5,0.9-0.7,1.1-1.5c0.9,0.5,1.1,1,2.5,1
			c0.1-0.1,0.2-0.2,0.4-0.2c0-1.5-0.6-2-1.6-2.5c-1.1,0-1.1,0.3-1.9,0.5c0-0.1-0.1-0.2-0.1-0.2c0.2-0.4,0.4-0.8,0.6-1.2
			c0.5-0.4,1.4,0.5,2.6,0.5c0.4-1.1,0.4-2.2,0-3.4c-0.4-0.2-0.8-0.5-1.2-0.8c-0.1,0-0.2,0-0.2,0c0.1-0.5,0.1-0.5,0.2-0.8
			c0.6,0.4,1.3,0.8,1.9,1.1c0.2,0,0.4,0,0.6,0c0.2-0.4,0.3-0.8,0.5-1.2c-0.5-0.7-0.7-1.1-1.8-1.2c0-0.3,0-0.7,0-1
			c0.1,0,0.2-0.1,0.4-0.1c0.7,0.3,1.3,1.1,2.1,0.9c1.3-1.1-0.2-2.3-1.2-2.8c0.1-1.1,0.2-2.2,0.4-3.2c0.3-0.2,0.7-0.3,1-0.5
			c0.1,0,0.2,0,0.4,0c0.2,1.9,0.2,3.6,1.1,4.9c0.3,0.2,0.6,0.5,0.9,0.8c0.6,1.4-0.1,2.5,0.2,3.8c0.7,0.4,1.3,0.8,2,1.1
			c-1.5,5.1,2.4,4.8,2.4,9.6c0.5,0.5,0.8,0.8,1.6,1c0.4,2.6,0.8,5.3,1.2,7.9c0.6,0.6,1.2,1.3,1.8,1.9
			C442,357.1,440.7,357.4,439.7,357.5z M486.1,298.5c-0.2,3-0.3,6-0.5,9c0.5,2.8-0.4,6.8,0.1,10.4c1.7,12.1-0.5,26.2-0.5,39.5
			c-1.7,0.1-3.5,0.2-5.2,0.2c-0.8-0.9-0.2-2.3-1.4-3.1c-0.2,0-0.5-0.1-0.8-0.1c-0.6,1-0.5,2,0,3c-1,0.7-3.6,0.3-4.9,0.6
			c-0.8-0.7-1.1-2.1-1.8-2.9c-0.2,0-0.3,0-0.5,0c-0.6,1.1-0.5,1.9,0,3c-0.9,0-1.8,0.1-2.6,0.1c-0.3-0.7-0.7-1.5-1-2.2
			c-0.3-0.1-0.6-0.2-0.9-0.2c-0.1,0-0.2,0.1-0.2,0.1c-0.5,0.8-0.5,1.4-0.2,2.5c-1.3,0.6-3.1,0.7-4.6,0.8c-0.8-0.6-0.8-1.5-1.9-1.9
			c-0.6,0.6-0.6,1.7-1,2.1c-0.4,0.4-1.6,0.4-2.4,0.5c-0.5-0.5-1.1-1.1-1.6-1.6c-0.2,0-0.5-0.1-0.8-0.1c-0.4,0.6-0.6,1-0.5,1.6
			c-0.1,0.1-0.2,0.2-0.2,0.2c-0.4-0.6-0.6-2-0.9-2.6c-0.4-0.3-0.5-0.5-1.2-0.5c-0.7,1.2-0.4,2,0.4,3c-0.5,0.5-2.3,0.4-3.6,0.4
			c-0.2-1-0.5-1.4-0.8-2.1c-0.4-0.3-0.5-0.4-1.2-0.4c-0.5,0.7-0.7,1.5-0.4,2.4v0.1c-1,0-2.1-0.1-3.1-0.1c-0.1-0.3-0.2-0.6-0.2-0.9
			c0.7-0.5,1.5-1,2.2-1.5c1.3-2.2-1.2-3.2-1.5-4.5c0.1-0.6,0.2-1.2,0.2-1.8c-0.3-0.3-0.7-0.6-1-0.9c0-1.8,0-3.6,0-5.4
			c-0.6-0.3-1.3-0.7-1.9-1c-0.5-0.6,0.2-1.3-0.1-2.2c-0.6-1.5-2.5-2.2-3.1-4c0.1-1.2,0.7-1.6,1.2-2.4c-0.1-0.4-0.2-0.8-0.2-1.1
			c-0.6-0.2-1.2-0.4-1.8-0.6c-1.1-1.8-0.5-2.9-0.2-5c-0.2-0.2-0.3-0.4-0.5-0.6c-0.6,0-1.3,0.1-1.9,0.1c-0.7-2.5-0.6-4.6-0.6-6.8
			c-0.9-0.6-1.3-1.6-2.1-2.2c-0.9,0.1-0.8,0.3-1.5,0.1c0,0.9,0.1,1.8,0.1,2.6c-0.3,0.4-0.5,0.4-1.2,0.4c-0.5,0.9,0.5,3.9-0.6,4.4
			c-0.3-0.4-0.7-0.5-1.5-0.5c-0.1,0.1-0.2,0.2-0.2,0.4c-0.9,0.9,0,3.1,0.4,3.9c-0.5,0.3-1.1,0.6-1.6,0.9c-0.4-4.8-1-9.6-2-13.8
			c-0.1-0.9-0.3-1.8-0.4-2.8c-2.1-4.7-7.8-8.9-14.6-7.8c-2.7,0.4-4.5,0.6-6.1,2c-4.7,4-5.7,15-6.5,22.1l-0.1,0.1
			c-1.3-0.6-2.2-1.4-3-2.5c0.2-0.9,0.5-1.8,0.8-2.6c-0.5-0.8-1.1-1.3-2.1-1.8c-0.3-1.9-0.6-4.6-2.1-5.6c-0.2,0-0.4-0.1-0.6-0.1h-0.1
			c-1.5,2.3,0.3,5.6-0.5,7.4c-0.3,0.2-0.6,0.5-0.9,0.8c-0.8,2,2.1,4.1-0.1,4.8c-0.3-0.5-1-0.8-1.6-0.6c-0.1,0-0.2,0-0.2,0
			c0,1.5,0.1,2.9,0.1,4.4c-0.3,0.4-0.5,0.4-1.1,0.5c-0.7,0.9-0.4,2.2-0.9,3.5c-0.4,0.6-1.2,0.7-1.6,1.1c-1,1-2.5,3.2-3,4.4
			c0,0.7-0.1,1.4-0.1,2.1c-0.3,0.4-0.6,0.8-0.9,1.1c0,0.6,0.1,1.2,0.1,1.8c-0.5,0.5-1.1,1.1-1.6,1.6c-0.3,1.1,0.5,1.3,0.6,2
			c0.3,1-0.7,1.6-0.9,2.4c0.2,0.7,0.4,1.4,0.6,2.1c0,0.4-0.3,0.8-0.6,1.1c-0.2,0.2-0.1,0.2-0.6,0c-1.7-0.6-4.6,0.5-6.5-0.5
			c-0.4-0.3-0.5-0.9-0.5-1.2c-0.5-0.4-0.9-0.8-1.8-0.9h-0.1c-0.4,0.6-0.5,1.3-0.2,2.1c-1.5,0.9-4,0.5-5.8,0.5c-0.4-1-0.9-2.4-2-2.2
			c-0.2,0-0.3,0-0.5,0c-0.3,0.7-0.4,1.3-0.4,2.1c-0.7,0.3-2.2,0.2-3.2,0.2c-0.4-1.1-0.8-2-2.1-2.2c-0.1,0-0.3,0.1-0.4,0.1
			c-0.3,0.5-0.4,1.2-0.1,2c-0.2,0.1-0.3,0.2-0.5,0.2c-0.5,0.1-0.9,0.2-1.4,0.2c-0.9-0.5-1.5-1.5-2.2-2.1c-0.2,0-0.3,0-0.5,0
			c-0.4,0.6-0.6,1-0.4,2c-2.2,0.7-3.7-0.2-5.6-0.5c-1.5,1.4-5.4,1.4-7.8,0.8c-0.7-1.6-0.2-8.2-0.5-11c-0.2-6.1-0.4-12.2-0.6-18.2
			c-0.4-2.5,0.3-4.9-0.1-7.9c-1.2-8.3-0.9-16.5-1.9-24.9c-0.6-5.2-0.1-10.8-0.9-15.5c-0.3-2.2-0.8-5.3-0.1-7.8c0.3-1,1-2,1.4-3.2
			c3.5,0.9,7.5,0.7,11.5,0c2.3-0.4,5.4,0.3,8-0.1c5.7-0.5,11.3-0.9,17-1.4c2.4,0.1,9.6,0.5,11.8-0.4c15.8,0.5,31.4-0.6,48.2,1
			c4.6,0.4,9.6,0.6,13.9,0.6c2.2,0,4.4-0.1,6.6-0.1c4.7,0.7,11.2,0.8,16.4,0c1.9,0.1,3.8,0.2,5.6,0.2c6,0,12.1,0,18.1,0
			C489.1,276.2,485.6,290.2,486.1,298.5z M532.3,358.7c-2.6,4.8-18.2,8.7-25.2,7.2c-2.6-0.5-5.6-1.6-8.2-1.8c0-0.1-0.1-0.2-0.1-0.2
			c0.3-0.2,0.3-0.2,0.9-0.2c0.1-0.4,0.2-0.8,0.2-1.1c-0.2-0.1-0.3-0.3-0.5-0.4c-0.1-0.1-0.2-0.2-0.2-0.2c-1.1,0.2-1.8,0.3-1.8,1.8
			c-2.7-1.2-4.7-2.6-6.9-4.2c0-0.2,0-0.3,0-0.5c0.2,0,0.3-0.1,0.5-0.1c0.3,1,3.2,2,4.5,1.9c0.1-0.2,0.2-0.3,0.2-0.5
			c0-0.7-0.2-0.8-0.4-1.2c-0.6,0-1.3,0-1.9,0c-0.2-0.7-3.7-2-4.9-1.4c-0.5-0.5-1.1-1.3-1.2-2.1v-0.1c1.2-0.2,3-1.5,3.5-2.8
			c0.2-0.3,0.2-0.4,0-0.8c-0.3-0.4-0.4-0.4-0.9-0.6c-1.2,0.2-1.8,1.2-2.5,1.9c-0.3-0.5-0.2-1.8-0.1-2.6c1,0,2.5,1.1,3.4,0
			c0.4-0.4,0.2-0.8-0.1-1.1c-0.1-0.1-0.2-0.2-0.2-0.2c-0.8-0.6-1.9,0-2.8-0.1c-0.3-0.7-0.2-2.3-0.2-2.9c1.6,0.2,2.4,1.1,4.1,0.8
			c1.1-1.8-2.6-2.8-3.9-1.9c0-1.2-0.1-2.3-0.1-3.5v-0.1c0.7,0,1.3-0.1,2-0.1c0.2-0.2,0.3-0.4,0.5-0.6c-0.1-0.2-0.2-0.4-0.2-0.6
			c-0.4-0.6-1.2-0.6-2-0.5c-0.1-0.7-0.2-1.3-0.2-2c0.3-0.2,0.7-0.3,1-0.5c0.2-0.3,0.2-0.4,0.2-1c-0.4-0.4-0.5-0.6-1.2-0.8
			c0-0.7,0.1-1.4,0.1-2.1c0.5,0.7,1.2,1.2,2.2,1c0.2,0.5-0.6,1-0.6,2.1c0.5,0.2,1,0.3,1.5,0.5c0.9-0.4,1.6-1.2,2-2.1
			c0-0.2-0.1-0.4-0.1-0.6c-1-0.2-1.5-0.1-2.4,0.1c0.2-0.6,0.3-0.9,0-1.4c-0.2-0.4-0.2-0.4-0.8-0.5c-0.8-0.3-1.4,0.4-2.1,0.6
			c0.1-0.7,0.2-1.5,0.2-2.2c0.1,0,0.2-0.1,0.2-0.1c0.5,0.1,1.1,0.2,1.6,0.2c0.5-0.5,0.7-0.8,1-1.6c-0.2-0.3-0.4-0.6-0.6-0.9
			c-0.8-0.2-1.2-0.2-2,0c-0.1-2.7-0.2-5.5-0.2-8.2c0.1,0,0.2-0.1,0.2-0.1c1.9,0.8,2.7-0.5,3.9-1.4c0-0.1-0.1-0.2-0.1-0.4
			c-0.3-0.7-0.6-0.9-1.4-0.8c-0.2-0.5-0.2-0.7,0-1.4c-0.9-0.9-1.8-1.8-2.6-2.8c0-1.1-0.1-2.3-0.1-3.4c0.2,0.1,0.5,0.2,0.8,0.2
			c0,0.4-0.1,0.8-0.1,1.1c0.2,0.2,0.3,0.4,0.5,0.6c0.5,0,1,0,1.5,0c0.1,0,0.2,0,0.2,0c0.3-0.5-0.2-3-0.2-4.8c-1.1-0.6-2.5-0.4-3-1.8
			l0.1-0.1c0.5,0.1,1.1,0.2,1.6,0.4c0.2-0.1,0.5-0.2,0.8-0.4c0.3-0.5,0.5-0.5,0.6-1.2c-0.3-0.3-0.6-0.6-0.9-0.9
			c0-0.1-0.1-0.2-0.1-0.2c0.1,0,0.2,0,0.2,0c0.4-0.5,0.8-0.8,0.2-1.5c-0.4-0.7-1.2-0.7-2.1-0.6c0-1.1,0.1-2.2,0.1-3.2
			c0-0.1,0.1-0.2,0.1-0.4c0.4,0.2,0.8,0.3,1.2,0.5c-0.3,0.2-0.6,0.4-0.9,0.6c0.1,1,0.4,1.1,1.1,1.4c0.5-0.1,1-0.2,1.5-0.4
			c0-0.1,0.1-0.2,0.1-0.2c-0.4-0.8-0.8-1.2-1.8-1.4c0.4-0.2,0.8-0.5,1.1-0.8c0-0.2,0-0.4,0-0.6c-0.1-0.2-0.2-0.4-0.4-0.6
			c-0.7-0.4-1.2-0.3-2.1-0.1c0-0.2,0-0.4,0-0.6c0.5,0,1-0.1,1.5-0.1c0-0.1,0.1-0.2,0.1-0.4c0.3-0.5,0-0.8-0.1-1.5
			c0.9,0,1.1,0,1.4-0.6c0.3-0.4,0.2-1.6,0.2-2.5c0.7-0.1,0.7-0.3,1.2-0.5c0-0.3,0.1-0.7,0.1-1c-0.4-0.2-0.8-0.4-1.1-0.6
			c-0.1-1.3-0.5-1.7-0.4-3.2c-0.3-0.2-0.7-0.4-1-0.6c0-0.1,0-0.2,0-0.2c0.6-0.5,0.9-0.5,1.4-1.1c-0.1-0.2-0.2-0.5-0.2-0.8
			c-0.5-0.2-0.9-0.4-1.4-0.6c0.8-1,1.8-2.1,0.9-3.5c0.6-0.1,1.2-0.3,1.8-0.4c0.2-0.4,0.2-0.5,0.1-1c0,0,7.9,0.1,9.6,0.5
			c5.5,1.3,17,1.2,22-0.2c2.2-0.6,4.3-1.3,6.6-1.5c1.3,4.9-0.6,11.3,0.4,16.5c0.7,3.6,0.3,8.5,0.5,12.1c0.6,8.6,0.7,17.8,0.1,27.8
			c0.2,6.8,0.4,13.6,0.6,20.4C532.3,353.5,532.8,356.6,532.3,358.7z M487.4,318.2c0-0.5,0.1-0.9,0.1-1.4c0.6,0.1,1.3,0.2,1.9,0.4
			c-0.1,0.1-0.2,0.2-0.2,0.4C488.9,318.1,488.2,318.2,487.4,318.2z M483.7,233.7c1,0.1,1.2,0,1.4-0.8c0-0.2,0-0.4,0-0.6
			c-0.5-0.2-1-0.5-1.5-0.8c-0.2,0.1-0.5,0.3-0.8,0.4c0,0.3,0,0.7,0,1c0.2,0.2,0.5,0.4,0.8,0.6C483.6,233.7,483.6,233.7,483.7,233.7z
			 M325.9,234.1c0.2-0.1,0.4-0.3,0.6-0.4c0.1-0.7,0-0.9-0.1-1.5c-0.5-0.3-0.7-0.3-1.4-0.4c-0.2,0.1-0.4,0.3-0.6,0.4
			c0,0.3,0.1,0.7,0.1,1C324.8,233.8,325.3,234,325.9,234.1z M477.6,234.9c-0.1,0.8,1.2,1.2,2,1.1c0.2-0.3,0.3-0.6,0.5-0.9
			c0.9,0.2,1.1,0.3,2.2,0.2c0.2-0.4,0.3-0.4,0.4-1.1c-0.7-0.5-1-0.9-2.2-0.9c-0.2,0.3-0.3,0.6-0.5,0.9
			C479.1,234,477.7,233.8,477.6,234.9z M483.1,241c0,0.1,0.1,0.2,0.1,0.2c1.3,0.9,3.8,1.4,5.9,2c0.2,0,0.3-0.1,0.5-0.1
			c0.7-1.2,0.8-4.8,0.5-6c-1-0.6-5.4-1.6-6.2-1.8C483,236.8,483.1,239,483.1,241z M488.2,238.2c0.1,0.7,0.1,1.6-0.2,2.2
			c-0.2,0.2-0.3,0.2-0.6,0.4c-0.6-0.3-1.2-0.7-2-0.5c-0.1-0.1-0.2-0.3-0.2-0.4c0-0.8-0.1-1.6-0.1-2.4
			C486.5,237.6,486.9,238,488.2,238.2z M528.9,244.7c0.8-0.2,1.7-0.3,2.5-0.5c1.1,0,2.3,0,3.4,0c1-1.6,0.1-4.9-0.6-6.2
			c-0.9,0-1.8-0.1-2.8-0.1c-0.9,0.1-1.8,0.2-2.6,0.2C528.3,239.6,526.6,244.1,528.9,244.7z M530.1,239.9c0.3-0.2,0.7-0.3,1-0.5
			c0.6,0.1,1.3,0.2,1.9,0.2c0.2,0.8,0.3,1.7,0.5,2.5c-0.1,0-0.2,0.1-0.2,0.1c-0.6,0.4-3,0.4-3.5,0.2c-0.1,0-0.2,0-0.2,0
			C529.6,241.6,529.5,240.4,530.1,239.9z M326.8,244.2c1.9,0,1.8,1,3,1.6c0.6-0.3,0.7-0.3,0.9-1c0-0.2,0-0.4,0-0.6
			c-0.6-0.5-1.2-0.8-2.1-0.4c-0.8-1.6-0.2-3.4-0.1-5.1c-0.4-0.2-0.8-0.4-1.2-0.6c-1.9,0.8-4.5,0-5.8,1.6c-0.2,0.5-0.5,5.1-0.5,5.1
			c0.2,0.2,0.4,0.4,0.6,0.6C323.5,245.4,325.1,244.8,326.8,244.2z M323.3,240.6c0.5-0.2,1-0.5,1.5-0.8c0.5,0,0.9,0.1,1.4,0.1
			c0,0.7,0.1,1.5,0.1,2.2c-0.6,0.4-2.2,0.9-2.9,0.8C323,242.5,323.2,241.3,323.3,240.6z M512.8,244.2c0.6-0.8,1.3-4.1,0.8-5.5
			c-0.6-1-3.8-0.4-5.4-0.6c-1.4,1.8-2.3,3.5-1.5,6.5C508.4,245.4,510.7,244,512.8,244.2z M508.4,240c0.7-0.1,1.5-0.3,2.2-0.4
			c0.4,0.1,0.8,0.1,1,0.4c0.5,0.6,0.2,1.6,0,2.2c-1.1,0.2-2.2,0.3-3.2,0.5c-0.1-0.8-0.2-1.7-0.4-2.5
			C508.2,240.2,508.3,240.1,508.4,240z M280.4,245.9c0.2-0.3,1.5-5.8,1.5-6c-0.2-0.2-0.5-0.4-0.8-0.6c-1.7-0.2-3.9-0.6-5.2-0.6
			c-0.7,0.7-2.7,4.2-1.5,6C275.1,245.6,279.4,246.2,280.4,245.9z M276.4,240.7c0.1-0.1,0.2-0.2,0.2-0.2c1,0.1,1.9,0.2,2.9,0.2
			c0,0.9-0.5,2.4-0.9,2.6c-0.8,0-1.6,0-2.4,0C276.4,242.5,276.4,241.6,276.4,240.7z M298.8,248.1c0,0,5.5-0.8,5.9-1
			c1.4-0.7,0.8-5-0.6-5.6c-0.2-0.9-0.6-0.9-1.4-1c-1.4,0.7-3.3-0.3-4.2,0.9c-0.7,1-0.6,4.3-0.8,5.5
			C297.9,247.4,298.2,248,298.8,248.1z M300.1,243c0.3-0.5,0.9-0.4,1.4-0.8c0.5,0.2,0.5,0.1,1.1,0.1c0.4,0.6,0.7,1.4,0.6,2.1
			c0.1,1-1.9,1.2-3.2,1.1C299.6,244.9,299.6,243.5,300.1,243z M485.3,244.7c-0.2,0.1-0.3,0.2-0.5,0.2c-0.1,0.3-0.2,0.7-0.2,1
			c0.2,0.2,0.4,0.4,0.6,0.6c0.5,0,1.1-0.1,1.6-0.1c0-0.4,0.1-0.8,0.1-1.1c-0.2-0.2-0.5-0.3-0.8-0.5
			C485.9,244.8,485.6,244.8,485.3,244.7z M484.6,247c-0.4,0-0.8-0.1-1.2-0.1c-0.2,0.2-0.4,0.4-0.6,0.6c0,0.2,0.1,0.5,0.1,0.8
			c0.5,0.2,1.1,0.5,1.6,0.8c0.3-0.2,0.6-0.3,0.9-0.5C485.3,247.6,485.1,247.4,484.6,247z M328.7,248.2c-0.4,0-0.8-0.1-1.2-0.1
			c-0.1,0.1-0.3,0.2-0.4,0.2c-0.1,0.6,0,0.8,0.1,1.4c0.5,0.2,1.1,0.3,1.6,0.5c0.2-0.5,0.4-0.8,0.2-1.5
			C328.9,248.6,328.8,248.4,328.7,248.2z M321.4,253.9c0.2,0,0.5,0,0.8,0c0.5-0.7,0.6-0.9,0.6-2.1c-0.1,0-0.2,0-0.2,0
			c-0.5-0.1-1-0.3-1.5-0.4c-0.3,0.2-0.6,0.5-0.9,0.8c0.1,0.4,0.2,0.8,0.2,1.2C320.8,253.5,321.1,253.7,321.4,253.9z M487.4,255.7
			c-0.2,0.2-0.3,0.4-0.5,0.6c0,0.3-0.1,0.6-0.1,0.9c0.5,0.3,0.9,0.7,1.8,0.8c0.2-0.1,0.3-0.2,0.5-0.2c0.1-0.4,0.2-0.8,0.2-1.1
			c-0.3-0.2-0.6-0.5-0.9-0.8C488.1,255.8,487.8,255.8,487.4,255.7z M329.9,258.7c0.3,0,0.7,0,1,0c0.1,0,0.2-0.1,0.2-0.1
			c0.3-0.5,0.3-0.6,0.2-1.5c-0.3-0.2-0.7-0.3-1-0.5c-0.3,0.1-0.6,0.2-0.9,0.2c-0.2,0.1-0.3,0.3-0.5,0.4c0.1,0.3,0.2,0.7,0.2,1
			C329.5,258.4,329.7,258.6,329.9,258.7z M328.2,260.9c-0.3-0.6-0.7-0.8-1.5-0.9c-0.2,0.1-0.3,0.3-0.5,0.4c-0.1,0.1-0.3,0.2-0.4,0.2
			c0,0.5,0,0.6,0.2,0.9C326.6,262.7,328.6,262.4,328.2,260.9z M318.7,268.5c0.2-0.1,0.3-0.2,0.5-0.2c0-0.1,0.1-0.3,0.1-0.4
			c-0.1-1-0.4-1.3-1-1.8c-0.3,0.1-0.6,0.2-0.9,0.2c-0.4,0.3-0.4,0.6-0.4,1.4C317.6,268.1,317.9,268.4,318.7,268.5z M420.7,276.4
			c-0.4-0.2-0.4-0.7-1-0.9c-0.6,0.5-1.3,1-1.9,1.5c-0.4,1,0.5,1.2,0.9,1.8c-0.4,0.2,0.1,5-0.1,6.4c0,2.6,0,5.3,0,7.9
			c-0.5,2.5-0.7,6.6-0.8,9.2c3,1.8,8.3,1.3,11.9,0.9c1.5-2.1-0.4-6.8,0.1-10.5c0.4-2.5,1-7.2,0.5-10c0.3-1.8,0.6-3.7,0.9-5.5
			c-0.3-0.3-0.7-0.7-1-1C427,276.2,423.9,276.3,420.7,276.4z M422.7,301.5l-0.1,0.1c-0.7-0.1-1.5-0.2-2.2-0.4
			c-0.8-1.6-0.2-6.3-0.1-8c0.9,0.3,1.8,0.6,2.8,0.9C423.3,296.6,422.7,298.9,422.7,301.5z M422.8,292.1c-0.6,0.1-1.7-0.2-2.5,0.1
			c-0.2-1.4-0.8-5.3,0-7.5c0.8,0.1,1.7,0.2,2.5,0.2C423.5,285.5,423.1,291.1,422.8,292.1z M422.9,283.1h-0.1c-0.9,0-1.8,0-2.6,0
			c0-1.6,0.1-3.2,0.1-4.8c0.5-0.3,1-0.2,1.5-0.5c0.5,0.1,0.9,0.2,1.4,0.2C423.5,279.8,423.3,281.5,422.9,283.1z M427.9,301
			c-0.8,0.5-1.5,0.5-2.8,0.5c-0.5-1.5-0.4-5-0.1-7.4c0.6-0.1,1.2-0.3,1.8-0.4c0.3,0,0.7,0,1,0c0.1,0,0.2,0.1,0.2,0.1
			C428,296.2,428,298.6,427.9,301z M428.3,291.4c-0.5,0.7-1.8,0.5-3,0.8c-0.2-0.2-0.3-0.3-0.5-0.5c-0.3-1.5-0.4-5.9,0.9-6.9
			c1,0,1.9,0.1,2.9,0.1c0,0.1,0,0.2,0,0.2C429,285.6,428.7,290.7,428.3,291.4z M428.8,282.5c-0.6,0.8-3.3,0.6-3.9,0.4
			c-0.3-1.4-0.2-3.5,0.1-5.1c1.4,0.2,2.8,0.3,4.1,0.5C429.5,278.7,429.5,281.9,428.8,282.5z M377.4,295.9c0.7-6.3-0.8-12.7,0-19.2
			c-0.2-0.2-0.4-0.4-0.6-0.6c-0.5,0-1.1-0.1-1.6-0.1c-3,1.2-8,0.3-10.9,1c-0.1,7,1.1,12.7,0.2,17.6c-0.3,1.7-0.3,9.1,0.1,9.5
			c0.6,1.4,2.7-0.1,3.9-0.1c1,0.2,2,0.3,3,0.5c1.7-0.3,3.9-0.8,5.6-0.9C378.3,301,377.1,299.1,377.4,295.9z M366.7,277.6
			c0.9,0,1.8,0.1,2.6,0.1c0.4,2.3,0.2,4.1,0.4,6.5c-0.1,0-0.2,0-0.2,0c-0.6,0.6-1.7,0.2-2.4-0.1C366,284.2,366.3,278.4,366.7,277.6z
			 M369.9,301.7c-0.6,0.8-1.8,0.8-2.9,0.5c-1.3-1.9-0.7-4.8-0.5-7.4c0.2-0.1,0.4-0.2,0.6-0.4c0.6,0,1.3,0,1.9,0c0.2,0,0.5,0,0.8,0
			C370.2,296.7,369.5,300,369.9,301.7z M369.8,292.4c-0.4,0.6-2,0.4-3,0.4c-0.5-1.5-0.9-5.4-0.1-6.9c0.8,0.2,2,0.6,3,0.5
			C370,287.6,370.4,290.9,369.8,292.4z M371.1,278.4c0.1-0.2,0.2-0.3,0.2-0.5c0.3-0.1,0.6-0.2,0.9-0.2c0.9,0.1,1.8,0.2,2.6,0.2
			c0.6,0.5,1.2,5,0.8,5.8c-0.4,0.7-2.8,0.9-3.9,0.8C371.1,282.8,371.5,279.9,371.1,278.4z M375.4,301.5c-0.5,0.4-2.3,1.3-3.1,0.5
			c0-2.4-0.1-4.8-0.1-7.1c0.5-0.1,0.9-0.2,1.4-0.2s1.1,0,1.6,0C376.3,296.4,375.6,299.9,375.4,301.5z M375.8,291.7
			c0,0.2-0.1,0.3-0.1,0.5c-1.1,0.2-2.3,0.3-3.4,0.5c-0.9-1.9-0.5-4.2-0.8-6.1c0.7-0.2,2.3-0.1,3.1-0.6c0.2,0,0.4,0,0.6,0
			c0.1,0.1,0.2,0.2,0.2,0.4C376.4,287.5,375.6,290.6,375.8,291.7z M402.4,277.1c-0.4-0.4-0.8-0.8-1.1-1.1c-0.6,0-1.3,0-1.9,0
			c-1,0.8-5.9,0.5-7.6,0.1c-1.9,1.3-1,5.9-1.2,8.6c-0.6,5.6-0.3,12.2-1.2,18.8c0.2,0.3,0.3,0.6,0.5,0.9c1.4-0.1,2.6-1.2,4.1-1.1
			c3.2,0.2,5.8,0.4,8.2,0.4c1.5-2.4,0.9-16,0.4-19.6C402.2,281.4,403.5,278.6,402.4,277.1z M394.4,292.6c-0.7,0-1.3,0-2,0
			c-0.9-1.7-0.5-5.5,0.1-6.9c0.7,0,1.3,0,2,0c0,0.1,0,0.2,0,0.2C395,286.5,394.9,291.9,394.4,292.6z M392.1,301.4
			c-0.3-2.7-0.1-3.8,0-6.6c0.1-0.1,0.2-0.2,0.4-0.4c0.7,0,1.4-0.1,2.1-0.1c0.5,2.4,0.3,4.6,0.4,7.2
			C393.7,301.6,393.2,301.6,392.1,301.4z M394.7,283.9c-0.6,0-1.2,0.1-1.8,0.1h-0.1c-0.9-1.5,0-3.5-0.2-5.5c0.2-0.2,0.4-0.3,0.6-0.5
			c0.2,0,0.3,0,0.5,0C394.9,278.8,395.3,282,394.7,283.9z M397.4,277.9c1,0,2.1,0.1,3.1,0.1c0.8,1.7,0.6,3.9,0.2,5.2
			c-0.9,0.5-2.6,0.7-3.5,0.8c-0.6-0.5-0.7-4.9-0.9-5.8C396.8,278.1,397.1,278,397.4,277.9z M400.3,301.2c-0.8,0.5-2.6,0.2-3.5,0.1
			c0-0.1-0.1-0.2-0.1-0.2c0.7-1.6,0.3-4.8,0.2-6.6c0.8-0.1,1.6-0.2,2.4-0.4c0.3,0,0.7,0,1,0C401.5,294.6,401.2,300.6,400.3,301.2z
			 M401.4,291.6c-1.2,0.7-2.9,0.6-4.2,0.9c-0.2-0.1-0.3-0.3-0.5-0.4c0-2.6-0.2-3.8,0.1-6.1c1-0.2,2.1-0.3,3.1-0.5
			c0.5,0.1,0.7,0.1,1,0.4C401.9,287.1,401.5,290.2,401.4,291.6z M442.1,302.6c0.2,0.2,0.5,0.4,0.8,0.6c4,0,7.9,0,11.9,0
			c1-1.7,0.2-4.7,0.4-7.2c0.1-2.4-0.9-7.4-0.5-9.2c0.5-2.3,0.8-6.4,0.4-8.9c0.3-0.9-1.7-1.4-2.6-1.4c-1.6,0.7-5.9,1-7.4,0.2
			c-0.9,0.1-1.3,0.4-1.6,1c0,2.5-0.1,5-0.1,7.5c-0.8,4.3,0.7,8.4-0.2,13.1C442.6,299.9,442.1,300.7,442.1,302.6z M447.2,301.6
			c-0.9,0.1-1.4,0.1-2.4-0.1c-0.7-1.6,0.1-4.2-0.2-6c0.2-0.1,0.5-0.2,0.8-0.4c0.7,0.1,1.5,0.2,2.2,0.2c0.4,1.8-0.4,2.7-0.6,4
			C446.8,300.1,447.4,300.6,447.2,301.6z M449.8,278.7c1.1-0.1,2.2-0.2,3.2-0.2c0,1.6,0,3.2,0,4.8c-1.1,0-2.2,0-3.2,0
			C449.8,281.7,449.8,280.2,449.8,278.7z M449.7,285.6c0-0.1,0.1-0.2,0.1-0.2c1-0.3,1.9,0,3-0.5c0.5,0.5,0.9,7.3,0.2,8.6
			c0,0.1,0,0.2,0,0.2c-1.1-0.4-2.1-0.6-3.1-0.4c-0.2,0-0.3-0.1-0.5-0.1C449.5,290.7,449.6,288.2,449.7,285.6z M449.9,295.1
			c1,0,1.9,0,2.9,0c0.1,0,0.2,0.1,0.2,0.1c0.4,1.5,0.2,3.8,0,6.1c-1,0.1-2.1,0.2-3.1,0.2c-0.6-1.8-0.1-3.9-0.5-5.5
			C449.6,295.7,449.7,295.4,449.9,295.1z M445.2,278.9c0.3-0.1,0.6-0.3,0.9-0.4c0.5,0,1,0,1.5,0c0.9,0.9,0.8,3.6,0.5,5
			c-0.9,0.4-1.8,0.2-2.8,0.4c-0.1-0.2-0.3-0.3-0.4-0.5C445,281.9,445.1,280.4,445.2,278.9z M444.6,285.7c0.2-0.1,0.3-0.2,0.5-0.2
			c0.3-0.1,0.6-0.2,0.9-0.2c0.7,0.1,1.3,0.2,2,0.2c0.3,2.4-0.2,5.7-0.4,7.9c-0.9,0-1.8,0.1-2.8,0.1
			C444.3,291,444.2,288.1,444.6,285.7z M493.8,280.2c0-0.2-0.1-0.4-0.1-0.6c-0.3-0.6-1-0.8-1.9-0.8c-0.2,0.1-0.4,0.2-0.6,0.2
			c-0.1,0-0.2,0.1-0.2,0.1c0,0.2,0.1,0.5,0.1,0.8C491.6,281.3,493.1,281.3,493.8,280.2z M497.6,281.5c0.5-0.3,0.6-0.7,0.4-1.4
			c-0.6-0.1-1.3-0.2-1.9-0.2c-0.1,0-0.2,0.1-0.4,0.1c-0.1,0.3-0.2,0.6-0.2,0.9c0.4,0.3,0.8,0.6,1.2,0.9
			C497,281.7,497.3,281.6,497.6,281.5z M320.2,283c0.1-0.2,0.2-0.3,0.2-0.5c-0.2-0.5-0.4-0.9-0.6-1.4c-0.3,0-0.7,0-1,0
			C317.1,282.2,318.7,283.2,320.2,283z M494.9,283.4c-0.1-1.1-0.8-1.5-2-1.5c-0.2,0.2-0.5,0.3-0.8,0.5c-0.2,1.1-0.1,1.3-0.4,2.2
			c0.1,0.2,0.2,0.4,0.2,0.6c0.5,0.1,1.1,0.2,1.6,0.4C494.1,284.9,494.5,284.1,494.9,283.4z M509.4,283.7c-0.2,0.1-0.4,0.2-0.6,0.2
			c-2,3.3-0.6,8.4-1.4,12.8c-0.6,3.1-0.4,7.1-1.1,11.1c-0.1,1.8-0.2,3.6-0.2,5.4c2.5,3.2,2.4,0.9,6,2.2c1.5-0.7,1.1-4.6,0.6-6.9
			c-1.5-6.6,0.8-16.5,1.4-24C512.9,283.8,510.7,284.1,509.4,283.7z M511.3,312.6c-0.1,0.3-0.2,0.6-0.4,0.9c-0.7-0.1-2.2-0.1-2.8-0.5
			c-1.2-1.4,0.2-5,0-6.6c0.2-2.1,0.3-4.2,0.5-6.2c0-2.6,0.1-5.2,0.1-7.8c0.2-2,0.4-3.9,0.6-5.9c0.4-0.2,0.8-0.5,1.2-0.8
			c0.3,0,0.7,0.1,1,0.1c0.1,0,0.2,0,0.2,0C511.9,294.7,509,304.1,511.3,312.6z M306.1,316.1c0-2.1-0.2-5.3-0.8-7.6
			c0.4-1.4,0-4-0.1-5.4c-0.3-2.7,0.3-5.7-0.1-8.5c-0.4-2.7,1.3-6.1,0.1-8.1c-0.2-0.4-5.6-0.8-6.4-0.9c-0.1,0-0.2,0.1-0.2,0.1
			c-0.7,1-0.8,4.5-0.6,6.1c0.3,7.3,0.6,14.6,0.9,21.9C299.3,317.6,303.2,318.4,306.1,316.1z M299.4,287.7c0.1-0.1,0.2-0.2,0.4-0.2
			c0.9,0.5,1.6,0.6,3.2,0.5c0.5,1.5-0.1,3.8,0.1,5.6c0.5,3.6-0.4,7.3,0.2,11.5c0.5,3.3,0.7,6,0.5,9.8c-0.7,0.4-1.2,0.5-2.1,0.5
			c-2-2.6-1.4-6-1.6-9.9C299.9,300.1,299.1,293.4,299.4,287.7z M493.1,290.6c-0.4,0.4-0.6,0.6-0.2,1.1c0.2,0.4,0.3,0.4,0.8,0.6
			c0.2,0,0.5,0,0.8,0c0.2-0.3,0.3-0.6,0.5-0.9C494.4,290.9,493.9,290.8,493.1,290.6z M318.4,293.4c0.4,0,0.8,0,1.1,0
			c0.1-0.1,0.2-0.2,0.4-0.2c0.1-0.7,0.1-0.9-0.4-1.2c-0.3-0.3-0.4-0.2-1.1-0.2c-0.4,0.4-0.6,0.3-0.5,0.9
			C318,292.9,318.2,292.9,318.4,293.4z M494.1,295.2c0.1-0.1,0.2-0.2,0.2-0.4c-0.1-0.3-0.2-0.7-0.2-1c-0.4-0.3-1-0.3-1.6-0.5
			c-0.5,0.5-0.8,0.5-0.9,1.5c0.3,0.2,0.6,0.4,0.9,0.6C493,295.4,493.5,295.3,494.1,295.2z M322.7,301.1c0.2-0.3,0.4-0.6,0.6-0.9
			v-0.1c-0.4-0.4-0.8-0.8-1.1-1.1c-0.4,0-0.8,0-1.2,0c-0.2,0.3,0,0.1-0.4,0.2c0,1,0.3,1.1,0.6,1.6
			C321.7,300.9,322.2,301,322.7,301.1z M492.8,302.9c0.2-0.2,0.4-0.5,0.6-0.8c0-0.4,0-0.8,0-1.1c-0.5-0.3-0.7-0.5-1.5-0.6
			c-0.4,0.3-0.6,0.3-0.9,0.8c-0.2,0.3-0.1,0.5-0.1,1.1C491.4,302.8,491.7,302.9,492.8,302.9z M493.7,308.2c0.1-0.1,0.2-0.2,0.4-0.2
			c0-0.6,0-0.5-0.1-1.1c-0.5-0.2-0.9-0.5-1.4-0.8c-0.3,0.1-0.6,0.2-0.9,0.2c-0.3,0.5-0.5,1-0.1,1.6
			C492.1,308.6,492.9,308.4,493.7,308.2z M374.2,308.5c-2.6,1.9-8.1-1.2-9.8,1.2c-1.6,2.6-0.9,16.6-0.6,19.9c0.2,1.7-1,6.5-0.1,7.6
			c0.5,0.5,9.5,0.8,11,0c1.7-1.2,0.5-3.4,0.8-5.4c0.8-5.8-1.4-16.5,0.8-22.6c-0.1-0.1-0.2-0.2-0.2-0.4
			C375.3,308.7,375.1,308.5,374.2,308.5z M365.8,311.1c0.4-0.2,0.8-0.3,1.1-0.5c0.3,0,0.7,0.1,1,0.1c0.7,1,0.6,4,0.1,5
			c0,0.1,0,0.2,0,0.2c-0.8,0-1.6,0-2.4,0C365.7,314.4,365.8,312.7,365.8,311.1z M365.4,318.4c0.2-0.2,0.4-0.5,0.6-0.8
			c0.6,0.3,1.5,0,2,0.5c0.4,0.5,0.4,6.6,0.4,8.2c-0.1,0-0.2,0-0.2,0c-0.3,0.3-1.3,0.2-1.9,0.2C364.4,325.6,365.8,320.8,365.4,318.4z
			 M368.7,335.9c-0.8,0.1-1.6,0.2-2.4,0.2c-0.1,0-0.2-0.1-0.2-0.1c-0.7-2.5-0.7-5.3-0.4-7.8c0.9,0,1.8,0.1,2.6,0.1
			C368.7,331.2,368.7,332.6,368.7,335.9z M370.4,311c0.5-0.2,1.6-0.2,2.1-0.4c0.3,0.2,0.2,0.1,0.5,0.1c0.9,0.9,0.7,2.9,0.5,4.2
			c-1.3,0.3-1.6,0.9-3.1,0.9C369.9,314.9,370.2,312.3,370.4,311z M372.9,335.2c-0.3,0.2-0.7,0.4-1,0.6h-0.1
			c-0.9-0.5-1.5-4.7-1.2-6.1c-0.1-0.4,0-0.6,0.2-0.9c0.3-0.3,0.9-0.2,1.2-0.4c0.8,0,1,0,1.4,0.4C374.2,329.5,373.3,334,372.9,335.2z
			 M373.7,325.9c-0.1,0.1-0.2,0.2-0.2,0.4c-0.9,0-1.8-0.1-2.4,0.1c-0.9-0.6-1.3-7.6-0.6-8.2c0.6-0.5,1.7-0.2,2.4-0.6
			c0.3,0.1,0.6,0.2,0.9,0.4C374.2,320.7,373.8,323.3,373.7,325.9z M455.3,328.9c-0.5-3.2-0.9-7.2-0.4-10.8c0.4-2.6,0.5-5.9-0.4-7.9
			c-1-0.8-1.8-0.8-3.1-0.9c-2.8,0.2-5.6,0.4-8.4,0.6c-1.2,3.9,0,8.3-0.6,13.6c-0.1,0.8-0.7,4.3-0.6,5.1c0.1,1,0.6,1.5,0.4,2.8
			c-0.3,1.5-0.5,4.1-0.4,5.4c-0.1,0.5,0.4,1,0.9,1.2c0,0,9.8,0.3,10.5,0.1c0.8-0.6,1.6-1.2,2.4-1.8
			C454.6,333.7,455.7,331.4,455.3,328.9z M449.8,311.2c1.1,0,2.3,0,3.4,0c0,0.1,0,0.2,0,0.2c0.9,1,0.1,3.7,0.4,5.1
			c-0.4,0.3-3,0.5-3.8,0.2C449.2,316.5,449.2,312.1,449.8,311.2z M447.2,336.1c0,0.1-0.1,0.2-0.1,0.4c-0.9,0.2-1.4,0.2-2.1,0
			c-0.4,0.1-0.3,0-0.8-0.1c-0.5-1.7-0.8-5.3-0.5-7.1c0.2-0.1,0.4-0.3,0.6-0.4c0.8,0.1,2.1-0.2,2.8,0.1c0.1,0.2,0.2,0.3,0.2,0.5
			C447.3,329.5,447.5,335.5,447.2,336.1z M447.3,326.9c-0.8,0.9-2.4,0.4-3.4-0.2c0-2.3-0.4-6.1,0.2-7.9c1.1,0,2.3,0.1,3.4,0.1
			C447.5,321.5,447.4,324.2,447.3,326.9z M447.7,317c-1.1,0.4-2.4,0.3-3.4-0.1c-0.7-0.8,0-3.8,0.1-5.1c0.5-0.1,1-0.2,1.5-0.4
			c0.4,0,0.8,0,1.2,0c0.1,0,0.2,0.1,0.2,0.1C447.9,313.2,447.9,315.5,447.7,317z M452.4,336.1c-0.9,0-1.8,0.1-2.6,0.1
			c-0.5-1.2-0.9-5.5-0.5-7c1.2-0.1,2.3-0.2,3.5-0.2c0-0.1,0-0.2,0-0.2c0.2,0,0.3,0,0.5,0C453.2,329.8,453.8,335.4,452.4,336.1z
			 M453.3,326c0.2,1-2.5,1.4-4,1.2c-0.8-2.3,0.3-5.8,0-8c0.2-0.2,0.5-0.3,0.8-0.5c1.5,0,2,0.3,3.1,0.2
			C453.5,320.5,454,323.5,453.3,326z M493.8,313.1c0.1-0.1,0.2-0.2,0.2-0.4c-0.4-0.8-0.7-1.2-1.5-1.6c-0.3,0.3-0.7,0.6-1,0.9
			c0,0.2,0,0.5,0,0.8c0.4,0.3,0.7,0.5,1.4,0.6C493.2,313.3,493.5,313.2,493.8,313.1z M319.9,324.9c0.3-0.7,0.3-0.7,0.5-1.5
			c0.8,0.4,1.6,0.3,2.4,0.4c0.1-0.4,0.2-0.8,0.2-1.1c-0.1-0.2-0.3-0.3-0.4-0.5c-0.7-0.1-1.3-0.2-2-0.4c-0.2,0.4-0.3,0.8-0.5,1.1
			c-0.5-0.1-0.9-0.2-1.4-0.2c-0.8-0.2-1.6,0.6-1,1.4C318.2,324.7,319,324.8,319.9,324.9z M510.7,344.1c0.5-2.2-0.1-5.5-0.2-8.5
			c0.1-1.8,0.2-3.7,0.4-5.5c-0.2-1.5,1.2-5,0-6.1c-0.5-0.1-0.9-0.2-1.4-0.4c-1,0.3-2,0.6-3,0.9c-1.2,7.9-0.9,18-1.9,26.5
			c0.4,0.3,5.1,1.1,6.1,0.9c0.2-0.2,0.5-0.5,0.8-0.8C512.2,348.9,510.2,346.5,510.7,344.1z M509.4,349.7c-0.7,0-1.3-0.1-2-0.1
			c-2-3.3,0.2-19.5,0.6-23.9c0.4,0,0.8,0,1.2,0c0.1,3.6-1.1,8.3-0.5,11.5C509.6,341.1,509.4,345.6,509.4,349.7z M433.7,323.7
			c-0.1,0.1-0.3,0.2-0.4,0.2c0.3,0.8,0.7,1.3,1.4,1.8c0.3,0.2,0.2,0.1,0.6,0.2c0.1,0,0.2-0.1,0.4-0.1
			C435.6,324.7,434.7,323.9,433.7,323.7z M489.2,323.9c-0.2,0.1-0.3,0.2-0.5,0.2c-0.5,0.7-0.5,1.4-0.5,2.5c0.6,0.3,0.8,0.5,1.8,0.5
			c0.5-0.6,0.6-1.1,1.1-1.8c-0.1-0.2-0.2-0.5-0.4-0.8C490.4,324.1,490,323.9,489.2,323.9z M306.1,329.9c0.1-1.6,0.7-3.7,0.2-5.1
			c-0.4-0.1-0.8-0.2-1.1-0.2c-1.7,1.1-4.5,0.2-6,1.6c-0.3,0.5-0.1,5.7,0,7.5c0.3,3.9,0.6,9.9,0.9,15.6c0.1,1.9-0.2,4.5,0.6,6.2
			c1.4,0.3,5.3,1,6.2-0.6c0.5-0.7-0.5-6.8-0.6-7.9C306.2,341.3,306.1,335.6,306.1,329.9z M302.4,353.6c-1-1.3-0.6-5.5-0.9-7.6
			c-0.7-6.4-0.9-11.2-0.8-18.6c0.2-0.1,0.4-0.3,0.6-0.4c1,0,1.9,0.1,2.9,0.1c0.1,8.8,0.2,17.6,0.4,26.4
			C303.9,353.6,303.3,353.3,302.4,353.6z M493.4,325.9c-0.3,0.5-0.5,0.6-0.5,1.5c0.8,0.5,1.5,0.5,2.5,0.2c0.2-0.3,0.2-0.4,0.2-1
			c-0.2-0.2-0.4-0.5-0.6-0.8c-0.5,0-0.9-0.1-1.4-0.1C493.6,325.8,493.5,325.8,493.4,325.9z M319.8,327.4c0.5-0.6-0.2-1.1-1-1.2
			c-0.5,0.3-0.8,0.4-1.1,0.9c0.2,0.6,0.4,1.2,1.4,1c0.1,0,0.2,0.1,0.2,0.1C319.7,327.8,319.8,327.7,319.8,327.4z M322.1,329.7
			c-0.5-0.3-1-0.3-1.5-0.4c-0.3,0.2-0.7,0.4-1,0.6c0,0.2,0.1,0.5,0.1,0.8c0.2,0.2,0.5,0.4,0.8,0.6c0.4,0.1,0.8,0.2,1.2,0.2
			c0.2,0,0.3-0.1,0.5-0.1C322.1,330.9,322.1,330.3,322.1,329.7z M388.4,338.5c0.2-0.4,0.5-1,0.2-1.6c-0.4-0.8-1-1-2-1
			c-0.1,0-0.2,0.1-0.2,0.1c-0.3,0.4-0.4,0.4-0.5,1.1c0.5,0.5,1,1,1.5,1.5C387.8,338.6,388.1,338.5,388.4,338.5z M493.6,336.4
			c0,0.2-0.1,0.4-0.1,0.6c0.5,0.5,0.7,0.7,1.4,0.6c0.1,0,0.2,0.1,0.2,0.1c0.6-0.4,0.8-0.3,0.9-1.2c-0.4-0.2-0.8-0.4-1.2-0.6
			C494.3,336,493.9,336.2,493.6,336.4z M322.2,338.7c0.6,1.2,1.4,2.6,2.8,3.1c2.5-0.1,0.1-2.6-0.4-3.5c0.6,0,1.3-0.1,1.9-0.1
			c0-0.3,0-0.7,0-1c-0.4-0.4-0.8-0.6-1.4-0.9c-0.3,0.1-0.7,0.2-0.9,0.4c-0.2,0.3-0.3,0.4-0.1,0.9c-0.5,0.1-1.1,0.2-1.6,0.4
			C322.4,338.2,322.3,338.5,322.2,338.7z M458.3,337.9c-0.1,0.3-0.3,0.7-0.4,1c0.3,0.8,0.6,1.4,1.5,1.8c0.2-0.1,0.4-0.3,0.6-0.4
			C460,339,459.4,338.1,458.3,337.9z M496.7,339.1c-0.4,0.3-1.1,0.6-0.8,1.1c0,0.4,0,0.4,0.5,0.6s1.2,0.1,1.6-0.1
			c0-0.2,0.1-0.5,0.1-0.8C497.8,339.5,497.5,339.2,496.7,339.1z M391.6,343.4c0.1-0.7,0.2-1.3,0.2-2c-0.5-0.6-0.9-0.9-1.9-1
			c-0.2,0.2-0.4,0.4-0.6,0.6c-0.2,0.5-0.1,1.3,0.1,1.6C389.8,343.4,390.6,343.5,391.6,343.4z M492.9,343.1c0.2-0.1,0.3-0.3,0.5-0.4
			c0-0.3-0.1-0.6-0.1-0.9c-0.5-0.1-0.9-0.3-1.4-0.4c-0.3,0.2-0.7,0.5-1,0.8c0,0.2,0,0.4,0,0.6C491.5,343.2,492.2,343.5,492.9,343.1z
			 M355.4,342c-0.1,0-0.3,0-0.4,0c-0.6,0.8-0.5,1.6-0.2,2.6c0.4,0.3,0.5,0.5,1,0.5c0.4,0.1,0.3,0,0.8-0.1
			C357.4,343.7,356.4,342.6,355.4,342z M464.9,345.6c-0.6,0.7-0.9,1.6-0.1,2.4c0.2,0.4,0.5,0.4,0.9,0.6c1.4-0.6,0.8-1.3,0.4-2.5
			C465.6,345.8,465.7,345.7,464.9,345.6z M372.2,346.4c-0.1,0.2-0.3,0.4-0.4,0.6c0.2,0.8,0.4,1.6,0.6,2.4c0.4,0,0.8,0,1.2,0
			c0.1-0.1,0.2-0.3,0.4-0.4c0.1-0.5,0.2-1.3-0.2-1.8C373.7,346.8,373.2,346.4,372.2,346.4z M386.8,346.4c-0.2,0.2-0.5,0.3-0.8,0.5
			c0,0.3,0,0.7,0,1c0.5,0.3,1.2,1.5,2.1,1c1.2-0.7-0.3-2.1-0.6-2.5C387.3,346.4,387.1,346.4,386.8,346.4z M456.6,348.2
			c-0.1,0.2-0.3,0.5-0.4,0.8c0,0.7,0.1,0.8,0.2,1.5c0.4,0.2,0.8,0.4,1.2,0.6c0.2-0.1,0.5-0.2,0.8-0.2c0-0.4,0.1-0.8,0.1-1.2
			c-0.4-0.5-0.8-1-1.2-1.5C457.1,348.2,456.8,348.2,456.6,348.2z M495.1,349.9c-0.4-0.5-0.8-0.8-1.6-0.9c-0.2,0.4-0.5,0.8-0.8,1.1
			c0.2,0.2,0.3,0.3,0.5,0.5c0.4,0,0.8,0.1,1.1,0.1C494.6,350.4,494.8,350.2,495.1,349.9z M432.8,351.2c0.2-0.5,0.2-0.7,0.1-1.4
			c-0.4-0.3-0.8-0.4-1.5-0.5c-0.1,0.2-0.3,0.4-0.4,0.6c0.1,0.2,0.2,0.5,0.2,0.8c0.5,0.2,0.9,0.3,1.4,0.5
			C432.7,351.2,432.8,351.2,432.8,351.2z M426.6,350.5c-0.2,0.2-0.3,0.3-0.5,0.5c-0.7,1.4,1.1,1.9,2.1,1.8c0.1-0.7,0.1-0.9-0.1-1.8
			C427.6,350.8,427.1,350.7,426.6,350.5z M362.9,351.1c-0.2,0-0.5-0.1-0.8-0.1c-0.2,0.3-0.4,0.7-0.6,1c0,0.9,0.3,1.7,0.9,2.1
			C364.5,355,364.1,351.9,362.9,351.1z M449.7,351.1c-0.4,0.6-0.6,0.9-0.6,1.9c0.4,0.5,0.7,0.8,1.2,1.1c0.3-0.1,0.7-0.2,1-0.2
			C451.6,352.5,450.8,351.4,449.7,351.1z M389.4,354.2c0.3-0.5,0.3-1.1,0.4-1.6c-0.6-0.3-0.8-0.7-1.8-0.8c-0.1,0-0.2,0.1-0.2,0.1
			c-0.4,0.6-0.5,0.8-0.5,1.9c0.4,0.5,0.5,0.7,1.2,0.9C388.9,354.6,389.1,354.4,389.4,354.2z M496.6,354.6c0-0.2,0-0.4,0-0.6
			c-0.2-0.2-0.5-0.3-0.8-0.5c-0.3,0-0.7-0.1-1-0.1c-0.2,0.2-0.4,0.4-0.6,0.6c0,0.2,0,0.5,0,0.8C495,355.3,495.9,355.4,496.6,354.6z
			 M460.9,353.9c-0.7,0.4-0.9,0.5-1,1.5c0.2,0.3,0.3,0.7,0.5,1c0.5,0.1,1,0.2,1.5,0.2c0.2-0.2,0.3-0.5,0.5-0.8
			c0.2-0.6-0.2-1-0.4-1.6C461.7,354.1,461.3,354,460.9,353.9z M390.7,354c-0.3,0.3-0.3,0.3-0.6,0.4c0,0.2-0.1,0.4-0.1,0.6
			c0.4,0.5,0.8,1,1.2,1.5c1.1,0.2,1.5,0,1.9-1.2c-0.2-0.3-0.3-0.7-0.5-1C391.9,354.2,391.3,354.1,390.7,354z M490.6,354.6
			c0,0.3,0,0.6,0,0.9c0.2,0.2,0.4,0.4,0.6,0.6c0.6-0.1,1.3-0.2,1.9-0.2c0-0.5,0-0.9,0-1.4c-0.5-0.3-0.9-0.3-1.6-0.4
			C491.1,354.3,490.9,354.4,490.6,354.6z M369.7,354.4c-0.5,1.4-0.5,2.5,0.8,3.4c0.3-0.1,0.7-0.2,1-0.2
			C372.1,355.9,371.5,354.5,369.7,354.4z M324.8,357.6c0.2-0.3,0.3-0.6,0.2-1.2c-0.6-0.4-0.9-0.7-1.8-0.9c-0.2,0-0.3,0.1-0.5,0.1
			c-0.1,0.1-0.3,0.2-0.4,0.2c0,0.4,0.1,0.8,0.1,1.1c0.4,0.5,1,0.7,1.6,0.9C324.5,357.6,324.6,357.7,324.8,357.6z M496.4,355.7
			c-0.3,0.4-0.6,0.8-0.9,1.1c0,1,0.2,1.4,0.9,1.8c0.2,0,0.4,0.1,0.6,0.1c0.2-0.2,0.4-0.3,0.6-0.5
			C497.6,357.1,497.2,356.2,496.4,355.7z M391.6,361c0.3-0.9,0.6-1.1,0.6-2.5c-0.1-0.2-0.3-0.4-0.4-0.6c-0.5-0.1-1-0.2-1.5-0.2
			c-0.6,0.1-1.3,0.2-1.9,0.2c-0.1,0.1-0.2,0.2-0.2,0.4c0,0.6,0.1,0.6,0.2,1.2c0.5,0.3,1.8,0.4,2.2,0.9c0.1,0,0.2,0.1,0.2,0.1
			c-0.6,0.5-1.1,0.8-1,1.8c-0.6,0.4-1.1,0.4-1.6,1c0.1,0.3,0.2,0.7,0.2,1c0.7,0.4,1.3,0.7,2.2,0.6c0.1-0.4,0.2-0.8,0.2-1.1
			c0.4-0.6,0.8-0.5,1.2-1.1C392.4,361.8,392.4,361.4,391.6,361z M432.4,357.6c-0.2,0.1-0.4,0.2-0.6,0.2c0,0.2-0.1,0.5-0.1,0.8
			c0.3,0.2,0.6,0.4,0.9,0.6c0.3,0,0.7,0.1,1,0.1c0-0.3,0.1-0.7,0.1-1c-0.1-0.2-0.3-0.4-0.4-0.6C433,357.7,432.7,357.7,432.4,357.6z
			 M384.7,357.7c-0.2,0.2-0.4,0.4-0.6,0.6c0,0.2-0.1,0.4-0.1,0.6c0.6,0.8,1.1,1.3,2.2,1.5c0.2-0.4,0.4-0.8,0.6-1.2
			C386.4,358.3,385.9,357.9,384.7,357.7z M323.7,359.4c-0.2,0.2-0.5,0.4-0.8,0.6c0,0.3,0.1,0.7,0.1,1c0.5,0.4,0.9,0.6,1.9,0.6
			c0.2-0.2,0.5-0.5,0.8-0.8c-0.1-0.3-0.2-0.6-0.2-0.9C324.8,359.6,324.4,359.5,323.7,359.4z M503.4,360.2c-0.4,0.4-0.8,0.8-1.2,1.2
			c0,0.2,0,0.3,0,0.5c0.4,0.5,1.1,0.9,1.9,1c0.2-0.2,0.4-0.3,0.6-0.5C504.6,361.5,504.3,360.5,503.4,360.2z M465.3,362.9
			c-0.6,1.1-1.6,5.2-0.6,6.4c0.4,0.6,1,0.7,1.5,1.1c0.8-0.2,1.2-0.6,1.6-1.1C468.2,366.9,466.8,363.8,465.3,362.9z M239.1,364.4
			c-2.4,1.5-2.9,0.7-4.6,2.9c0.1,0.4,0.2,0.8,0.4,1.2c0.2,0,0.4,0,0.6,0c0.8-0.8,1.7-1.8,2.8-2.4c2-1,13.2,0.6,14.4,1
			c0.8,0.5,1.6,1,2.4,1.5c0.5-0.3,0.9-0.2,1.4-0.9v-0.1C253.9,364.1,244.3,365,239.1,364.4z M429.4,367.6c-0.3,0.8,1.1,3.3,1.9,3.9
			l0.1,0.1C434,371.4,431.6,367.7,429.4,367.6z M438.4,377.5c-2.1-1.1-3.5-1.8-4.2-4.4c-0.5-0.4-0.4-0.4-1.2-0.4
			c-0.1,0.1-0.2,0.2-0.2,0.4c0.4,2.8,1.8,3.5,3.5,4.9c0.3,0.3,0,0.7,0,1.4c-0.1,2.5,1.6,3.3,3.1,4.1c0.1,0,0.2-0.1,0.4-0.1
			c-0.5-1-1.1-2.1-1.6-3.1C437.7,379,438.5,378.6,438.4,377.5z M383.1,378.4c-0.3,0.1-0.6,0.2-0.9,0.4c0,0.3,0.1,0.6,0.1,0.9
			c0.3,0.4,0.5,0.4,1.2,0.4c0.1-0.2,0.2-0.5,0.4-0.8C383.7,378.7,383.6,378.6,383.1,378.4z M378.6,384.6c-1,1.2-2.2,2.5-3.1,3.9
			c-1,1.5-0.7,3-2.2,3.9c-1.7-1.8-2.5-1.1-4.9-1.4c-0.6-0.9-0.2-1.9-0.4-3c-1.1-0.7-2.2-1.2-4.1-1.1c-0.3,0.4-0.6,1-1.1,1.2
			c-0.4,0.2-3.4-0.5-4.8-0.1c-0.8,0.4-1.1,1.2-1.4,2.1c-0.9,0.1-2.1,0.1-2.8,0.9c-0.2,1.2,0.1,1.5,0.5,2.4c-0.8,1-2.4,1.9-3.4,2.8
			c0,3,1,8,3.9,8.6c0.5,1.1,0.6,2.1,1.2,3c4.1,1,3.8-1.6,6.9-2c2-0.3,4.1,0.5,6.5-0.2c1-1,2-2,3-3c0.1-0.5,0.5-2.4,0.4-3
			c-0.1-0.4-0.3-0.8-0.4-1.1c0.7-1.6,1.3-3.2,2-4.8c1-1.5,5.3-6.8,5.4-8.6c-0.2-0.1-0.3-0.2-0.5-0.2
			C379.1,384.7,378.8,384.7,378.6,384.6z M369.4,396.2c-0.9,0-1.8,0-2.8,0c-0.5,0.2-0.5,0.4-0.8,0.9c0.3,0.5,0.6,0.9,1.2,1.1
			c0,0.1,0,0.2,0,0.4c-0.4,0.3-0.8,0.6-1.1,0.9c-0.1,0.7,0,1,0.2,1.5c-0.7-0.4-0.7-1.3-1-2.1c-0.5,0-1-0.1-1.5-0.1
			c-0.1,0.8-0.2,1.6-0.2,2.4c0.6,0.8,1.5,1,1.9,2c0.1,0.1,0.2,0.2,0.2,0.2c-1.6,0.9-4.2-0.1-5.4,0.6c-0.4,0.4-0.2,0.7-0.5,1.2
			c-0.4,0.7-1.7,0.7-2.2,1c-0.1-0.1-0.2-0.3-0.2-0.4c-0.4-0.5,0.2-1,0.2-1.8c-0.9-1.1-1.2-0.3-2.4-1.1c-1.3-0.9-2-4.6-2.1-6.2
			c1.2-0.8,2.9-1.2,3.6-2.5c-0.2-0.6-0.5-1.2-0.8-1.8c0.8-0.7,1.4-0.4,2.8-0.4c0.1-0.1,0.2-0.3,0.2-0.4c0.4-0.7,0.1-1.2-0.1-2v-0.1
			c2.1-0.4,3.2,0.6,5,1.4c1.3-0.5,0.9-1.3,1.5-2.5c0.3,0.1,0.7,0.2,1,0.2c-0.3,1.6-1.5,2.1-1.6,3.9c0.1,0.1,0.2,0.2,0.4,0.2
			c0.7,0.3,1.2-0.1,1.6-0.4c1.1,0.8,2.2,1.8,3.2,2.4C369.8,395.3,369.6,395.8,369.4,396.2z M442.9,385.9c-0.4-0.3-0.4-0.4-1.1-0.5
			c-0.2,0.1-0.3,0.2-0.5,0.4c-0.1,0.5-0.3,1-0.4,1.5c0.2,0.2,0.4,0.5,0.6,0.8C442.3,387.4,443.2,387.6,442.9,385.9z M464.9,396.9
			c0.1-1.5,0.9-2.6-0.6-3.6c-0.4-0.5-1.4-0.4-2.2-0.4l-0.1-0.1c0.1-1.3,0.6-1.6,0.6-3.1c-0.2-0.2-0.5-0.4-0.8-0.6
			c-0.5-0.4-3,0.1-4.1,0c-0.2,0.2-0.4,0.4-0.6,0.6c-0.1,0-0.2,0.1-0.2,0.1c-0.5-1.1-1-1.4-2.1-1.9c-0.4,0.1-0.8,0.2-1.2,0.4
			c-0.2,0.6-0.5,1.2-0.8,1.8c-0.3,0.5-2.2,0.9-3,1.2c-0.9,1.4-0.2,2.4,0.2,3.9c-0.7,1.4-2.6,3.8-2.6,5.4c1.1,0.7,2.5,1.5,2.8,3
			c-0.2,0.2-0.5,0.4-0.8,0.6c0,0.4,0,0.8,0,1.1c0.5,0.2,0.9,0.2,1.5,0.1c0.1-0.4,0.2-0.8,0.2-1.2c2.1-0.9,3.5,1,5.6,0.8
			c0.2,0.5,0.3,0.9,0.5,1.4c0.3,0.2,0.7,0.3,1,0.5c1.6-0.8,1.8-2.7,3.1-3.6c2.3-1.6,5.2-1.4,6.2-4.2c-0.1-0.3-0.2-0.6-0.2-0.9
			C466.5,397.6,465.7,397.2,464.9,396.9z M450.6,400.2h-0.1c-0.2-0.1-0.3-0.3-0.5-0.4c0.1-0.2,0.2-0.3,0.4-0.5
			C450.7,399.7,450.6,399.6,450.6,400.2z M451.2,399.2c-0.2,0-0.3,0-0.5,0c0.1-0.2,0.2-0.4,0.2-0.6c0.1,0,0.2,0.1,0.4,0.1
			c0.1,0,0.2,0.1,0.4,0.1C451.5,399,451.4,399.1,451.2,399.2z M455.3,389.6c0,0.2,0,0.4,0,0.6c-0.2,0-0.4,0-0.6,0
			c0-0.2-0.1-0.3-0.1-0.5C454.8,389.7,455.1,389.7,455.3,389.6z M458.8,403.2c-1.1,0.1-3.6-0.3-4.6-0.9c0.1-1.3,0.5-3.2-1.1-3.6
			c0.2-0.4,0-0.1,0.2-0.4c0.1-0.2,1.3,0.5,2,0c0.1-0.1,0.2-0.2,0.2-0.2c0.5-1,0-2.3-0.8-2.6c-0.6-0.2-1,0.1-1.5,0.4
			c-0.1-0.2-0.3-0.4-0.4-0.6c-0.1-0.1-0.3-0.3-0.4-0.4c0.8-0.4,1.6,0.1,2.6-0.1c0.2-0.4,0.3-0.4,0.4-1.1c-0.7-0.4-1.9-0.5-2.1-1.2
			c1.6,0.2,1.9-0.1,3.4-0.8c0.1-0.3,0.2-0.6,0.4-0.9c1.1,0.3,1.3,0.9,2.6,0.5h0.1c0.1,0.8,0.2,1.7,0.4,2.5c0.9,0.6,2,0.9,3,1.1
			c-0.2,1.4-1.1,1.8-1.8,2.6c0,0.2,0,0.4,0,0.6c0.9,0.6,2.7,0,3.5,0.6c0.1,0,0.2,0,0.2,0C464.5,400.8,460,400.6,458.8,403.2z
			 M441.9,388.7c-0.3,0.6-0.3,0.7-0.2,1.6c0.1,0,0.2,0,0.2,0c0.1,0.1,0.2,0.2,0.4,0.2c0.6,0,0.6,0,0.9-0.2c0.1-0.1,0.2-0.3,0.2-0.4
			c-0.1-0.3-0.2-0.7-0.2-1C442.8,388.9,442.4,388.8,441.9,388.7z M445.6,393.1c-0.3,0.2-0.7,0.5-1,0.8c0.1,0.4,0.2,0.8,0.2,1.1
			c0.4,0.2,0.4,0.3,1.1,0.4c0.5-0.5,0.5-0.9,0.4-1.8C446.1,393.4,445.8,393.3,445.6,393.1z M366.4,395c0.2,0.2,0.5,0.5,0.8,0.8
			c0.6,0,0.9,0,1.1-0.2c0.7-0.9,0-1.8-1.2-1.8C366.6,394.1,366.5,394.1,366.4,395z M363.9,394.6c-0.2,0.3-0.2,0.2-0.4,0.6
			c-1-0.3-1-0.4-2.1-0.4c0,0.3-0.1,0.7-0.1,1c0.1,0.1,0.2,0.2,0.4,0.2c0.3,0.4,0.4,0.5,1.1,0.5c0.2-0.2,0.4-0.5,0.6-0.8
			c0.5,0.3,0.7,0.5,1.5,0.6c0.2-0.1,0.4-0.3,0.6-0.4C365.6,394.8,365.3,394.5,363.9,394.6z M459.2,394.7c-0.3,0-0.6,0-0.9,0
			c-0.2,0.1-0.3,0.2-0.5,0.2c0,0.4,0,0.8,0,1.1c0.3,0.6,1,0.7,1.8,0.5c0.3-0.5,0.4-0.7,0.1-1.2C459.5,395.2,459.4,394.9,459.2,394.7
			z M455.3,398.9c-1.9,1.6,1.5,3.5,2.6,2.6c0.1-0.1,0.2-0.2,0.4-0.2c0-0.2-0.1-0.5-0.1-0.8C457.8,399.7,456.6,398.9,455.3,398.9z
			 M365.6,407c-0.7,0.8-1.4,1.2-1.6,2.5c0.1,0.1,0.2,0.2,0.4,0.2c1,0.4,1.6-0.7,1.9-1.4c0.1-0.3,0.2-0.6,0.2-0.9
			C366.1,407.1,366.3,407.1,365.6,407z M451.8,407.5c-0.2,0.1-0.4,0.2-0.6,0.2c-0.1,0.3-0.2,0.6-0.2,0.9c0.2,0.2,0.3,0.5,0.5,0.8
			c0.3,0.1,0.7,0.2,1,0.2c0.1-0.1,0.2-0.3,0.2-0.4c0.1-0.2,0.2-0.5,0.2-0.8C452.6,407.9,452.4,407.8,451.8,407.5z M360.6,413.9
			c0,0.2,0,0.3,0,0.5c0.4,0.3,0.5,0.4,1.2,0.4c0.8-0.8,1.4-1.5,1.9-2.6c0-0.2,0-0.5,0-0.8c-0.2,0-0.4-0.1-0.6-0.1
			C362.2,412,361.3,412.9,360.6,413.9z M454.4,411.7c-0.2,0.2-0.4,0.3-0.6,0.5c-0.4,0.2,0,0.2-0.4,0.5c0.1,0.2,0.2,0.5,0.2,0.8
			c0.1,0,0.2,0.1,0.4,0.1c0.2,0,0.5-0.1,0.8-0.1c0.1-0.4,0.2-0.8,0.4-1.2c0-0.2-0.1-0.3-0.1-0.5
			C454.9,411.7,454.6,411.7,454.4,411.7z"/>
	</g>
</g>
</svg>
