<?xml version="1.0" encoding="utf-8"?>
<!-- Generator: Adobe Illustrator 19.2.1, SVG Export Plug-In . SVG Version: 6.00 Build 0)  -->
<svg version="1.1" id="Calque_1" xmlns="http://www.w3.org/2000/svg" xmlns:xlink="http://www.w3.org/1999/xlink" x="0px" y="0px"
	 viewBox="0 0 841.9 595.3" style="enable-background:new 0 0 841.9 595.3;" xml:space="preserve">
<style type="text/css">
	.st0{fill-rule:evenodd;clip-rule:evenodd;fill:#DADADA;}
	.st1{fill-rule:evenodd;clip-rule:evenodd;fill:#1D1D1B;}
</style>
<ellipse class="st0" cx="425.6" cy="370.3" rx="79.4" ry="6.7"/>
<g>
	<g>
		<path class="st1" d="M585.5,204.1c-0.1-1.3-0.8-2.9-1.2-4c-0.9-2.5-0.9-4.9-2.1-7.2c-1.1-2.1-3.3-3.7-4.6-5.5
			c-3.9-5.5-8.3-10.7-13.8-14.6c-3.8-2.7-12.3-6.4-15.4-0.4c1,5.9,5.5,10.1,9.4,13.5c0.9,1.1,1.9,2.2,2.8,3.3
			c1.1,1.1,2.7,2.1,3.6,3.4c1.4,2,2.6,4.6,3.5,7c2.4,6.4,1.2,15.8-2.2,21.2c-2.1,3.3-3.4,7.2-6.2,9.7c-6.9,6.1-19.3,9.5-30.8,8
			c-1.4,0.1-2.8,0.2-4.2,0.3c-2.4-0.6-4.6-2.1-6.7-2.9c-0.9-0.3-1.8-0.5-2.7-0.8c-0.5-0.3-0.8-1.3-1.2-1.6c-2.6-1.5-5.8-2.5-8.7-4.1
			c-1.8-1-4.2-3.2-6.1-3.5c-1.7-0.2-3-1.3-4.4-1.8c-4.1-1.5-8.9-1.1-13.6-1.8c-0.9-0.1-3-0.5-3.9-0.4c-11.4,0.7-20.5,3.7-29.5,7.3
			c-9.9,4-20.5,9.2-33.3,8.8c-8.2-0.2-22.2-1.5-26-7.3c1.3-0.6,3.9,0.4,5.4,0.3c3.2-0.1,8.2,0.7,11.3,1.5c1.2,0.3,2.3,0.6,3.5,0.9
			c0.2-0.1,0.3-0.2,0.5-0.3c1.1,0.2,2.8,1.1,4,0.8c0.1,0,0.2,0,0.3,0c-0.4-1-2.8-0.9-4-1.2c-4.4-1.2-9.5-1.7-14.4-2.7
			c-2-0.4-7.6,0.5-6.3-1.8c-0.1-0.5,0.1-1.4,0.4-1.9c0.8-1,3,0,4.5-0.3c2.5-0.5,6,0,8.8,0.2c0-0.1,0.1-0.1,0.1-0.2
			c-2-1.2-10-0.7-13.2-0.9c0.2-0.9,0.3-1.8,0.5-2.7c4-0.2,10.4-1.4,15.2-0.9c1.5,0.2,6.1,0.1,7.2,0.5c0.8,0.3,1.8,0.8,2.8,0.7
			c0.1,0,0.1-0.1,0.2-0.1c0-0.1,0-0.3,0-0.4c-5.9-1.1-12.1-2.1-18.6-1.3c-1.7,0.2-4.7,0-6.6,0.6c0,0-0.1-0.1-0.1-0.1
			c0.1-1.7,0.7-3.5,0.4-5.2c-0.6-2.9-2.1-6.6-3-9.6c-1-3.6-0.8-7-1.6-10.3c-0.6-2.6-0.8-7.7-2.4-9c-0.7-0.2-1.3-0.4-2-0.6
			c-2.4,1.5-2.8,3.4-4.3,5.8c-1.4,2.1-3.6,4.7-5.7,6.1c-3.4,2.3-4.4,0.4-8.4,0.6c-4.4,0.2-9.6,1.6-13.9,1.7
			c-0.6-1.4-4.5-10.8-5.2-11.3c-1.1-0.3-2.1-0.6-3.2-0.9c-3.3,1.9-3.9,5.1-5.5,8.7c-0.9,2.2-2.2,4.4-3,6.8c-0.2,1.7-0.4,3.4-0.6,5.1
			c-1.8,5.5-2.7,12-3,17.8c-2.9,1-6.1,1.2-8.5,2.2c-0.1,0.1-0.1,0.3-0.2,0.4c2.2-0.2,6.3-2.5,8.2-1.9c0.5,0.4-0.5,3.8-0.5,5.2
			c-0.5,0.4-7.8,3-8.7,3.1c0,0.1,0,0.3,0,0.4c0.1,0,0.3,0.1,0.4,0.1c0.5-0.7,7.1-2.4,8.1-2.3c-0.1,1.8-0.2,3.7-0.3,5.5
			c-5.1,3.4-11.6,6.8-15.7,11.1c-2.1,2.2-4.4,4.9-6.8,6.7c0,0.1,0,0.3,0,0.4c0,0,0.1,0,0.1,0c2.9-2,5-5.1,7.8-7.1
			c2.3-1.7,4.8-3.1,6.9-4.9c1.6-1.3,5.5-4.5,7.7-4.9c0.3,3.1-0.1,6.8,0.2,10.2c0.9,9.7,2.3,19.3,5.9,27.3c2.4,5.4,6.1,10.3,9.5,14.8
			c1.7,2.2,4.2,3.4,4.9,6.6c1,4.5-3.2,10.2-4.7,12.6c-2,3.2-2.7,6.7-3.3,10.7c-1.4,8.8,7,11.5,8.5,17.7c1,4.1-3.6,6.9-1.4,11.7
			c1.1,2.4,4.1,4,7.1,3.3c0.4,2,1.9,4.2,4.2,3.9c0.4,3,4.5,4.3,7.5,3.5c1-0.3,1.6-1.3,2.4-1.6c0.7,0,1.4,0.1,2.1,0.1
			c1.8-0.1,3.3-0.7,4.5-1.6c1.2-0.9,2.4-2.8,3.8-3.3c0.4-13.1,8.4-20.4,14.5-29.6c0.4-1,0.7-1.9,1.1-2.9c1.9-3.3,5-9.2,8.6-10.6
			c4.5-1.7,10.4-0.5,14.7,0c5.7,0,11.3,0.1,17,0.1c4.3-0.6,9.2-0.5,13.6-1.8c4.2-1.2,8.4-1.5,12.8-3c2-0.7,4.2-1.6,6.5-1.9
			c1.5,1.6,3,3.3,4.5,4.9c3.3,2.8,12.5,7.2,11.8,12.7c-0.7,5.5-9.1,15.1-13.3,17.2c-0.9,0.5-1.9,0.3-3,0.8c-2,0.9-5.1,3-6.4,4.7
			c-1.7,2.3,0.1,6.6,2.3,6.9c1.5,4.4,6.3,6.2,10.6,3.3c7.8,5.2,13.6-4.2,16.9-9c0.1,0,0.1,0,0.2,0c2.3,2,5.1,1.2,7.7,0.4
			c0.9-0.3,1.6-0.2,2.1-0.8c0.9-1,3.8-8.2,3.4-9.4c2.4-4,3.9-8.3,6.4-12.2c2.1-3.3,6.5-11.3,4.8-16.4c-1.6-4.8-9.1-6-7.8-13
			c0.5-2.6,3.8-4.5,5.1-6.6c5.9-9.3,13.6-21.5,7.4-34.6c0,0,0-0.1,0-0.1c3.2,0.4,6.4,0.9,9.6,1.3c1.2-0.1,2.4-0.1,3.6-0.2
			c5.3-0.2,10.4-0.2,15.5-1.5c4.8-1.2,11.5-4,15.5-6.3c1.4-0.8,2.5-2.4,3.7-3.3c1.5-1.1,3-1.9,4.5-2.9c1-1.2,2-2.5,3-3.7
			c1.7-1.6,3.5-3.4,4.7-5.4c0.5-1.3,0.9-2.5,1.4-3.8C584.9,222.3,586.5,215.2,585.5,204.1z M567.4,192.3c1.4,0.4,2.6-0.3,3.8-0.5
			c1-0.1,2,0.6,2.8,0.5c1.7,0.5,1.7-2.9,2.1-4.1c1.9,0.8,5.7,6.3,5.6,8.8c-2.3,0.2-4.1,1.5-6.4,1.1
			C572.8,197.7,567.8,194.7,567.4,192.3z M384.2,198.3c0.1,0,0.1,0.1,0.2,0.1c-0.1,0.1-0.1,0.1-0.2,0.2
			C384.2,198.5,384.2,198.4,384.2,198.3z M376,196.1c-0.3-0.1-0.1,0-0.3-0.2C375.8,195.9,375.9,196,376,196.1z M374.1,203.1
			c0,0.1,0.1,0.1,0.1,0.2c-0.1,0-0.1,0-0.2,0C374,203.2,374,203.1,374.1,203.1z M335.7,201.6c0.1,0,0.1,0,0.2,0c0,0.2,0,0.3,0,0.5
			c-0.1,0-0.2-0.1-0.3-0.1C335.6,201.6,335.5,201.9,335.7,201.6z M335.5,211.8c0,0-0.1,0.1-0.1,0.1c-0.1-0.1-0.1-0.2-0.2-0.3
			C335.3,211.6,335.4,211.7,335.5,211.8z M333.3,214.4c0,0-0.1,0-0.1,0c0-0.1-0.1-0.2-0.1-0.3C333.3,214.3,333.1,214.1,333.3,214.4z
			 M332.2,214.6c0,0-0.1,0-0.1,0c-0.2-0.2-0.1-0.1-0.2-0.5C332.1,214.3,332.1,214.2,332.2,214.6z M331.6,213.7
			c0,0.1-0.1,0.1-0.1,0.2c0-0.1-0.1-0.1-0.1-0.2C331.4,213.7,331.5,213.7,331.6,213.7z M331.5,218.2c0,0.1,0,0.2,0,0.3
			c-0.1,0-0.3,0-0.4,0c0-0.2,0-0.3,0-0.5C331.2,218,331.3,218.1,331.5,218.2z M331.2,216.7c0,0.1,0,0.2,0,0.3
			c-0.4-0.2-0.2,0-0.4-0.4C330.9,216.6,331,216.6,331.2,216.7z M330.6,217.4c0.1,0,0.2,0.1,0.3,0.1c-0.1,0.1-0.2,0.1-0.3,0.2
			C330.6,217.6,330.6,217.5,330.6,217.4z M329.6,255c0.6,0.6,1.2,1.2,1.8,1.8c2.3,1.7,4.5,3.3,7.1,4.8c0.3-0.2,0.6-0.3,0.9-0.5
			c0.2-0.2,0.1-0.1,0.2-0.5c-0.9-1.2-2.1-1.4-3.4-2.2c-3.3-1.9-5.2-5.2-5.8-9.6c0.1,0,0.1-0.1,0.2-0.1c3.1,2.2,6.2,4.8,9.8,6.5
			c0.9,0.4,2.6,1.8,3.6,1.3c0.2-0.2,0.3-0.3,0.5-0.5c0-0.2,0-0.3,0-0.5c-1-0.7-2.5-0.9-3.6-1.7c-1.4-1-2.8-2.3-4.2-3.3
			c-1.4-1.1-2.8-1.4-3.9-2.8c-1.8-2.3-2.1-4.7-3.3-7.6c0-0.7,0.3-0.7,0.8-1c2,3.4,4.8,5.4,8.6,7.1c1,0.4,1.6,1.2,2.8,1.4
			c0.2-0.2,0.5-0.4,0.7-0.6c-0.3-1.7-7.5-6.9-8.9-9.1c0-0.1,0-0.3,0-0.4c2-0.8,4-1.5,6-2.3c3.5-1.1,7.7-2,11.9-2
			c0.1-0.1,0.1-0.2,0.2-0.3c0.1-0.1,0.2-0.2,0.3-0.3c-4.9-1.9-15.3,3-19.3,4.3c-0.8-0.8-1.9-2.2-2-3.6c2.6-1,11.4-2.5,14.4-2
			c0.2-0.2,0.3-0.3,0.4-0.4c0,0,0,0,0,0c0,0,0,0,0,0c0.1-0.1,0.2-0.1,0.4-0.2c-0.2,0.2,0,0.1-0.4,0.2c0,0,0,0,0,0c0,0.1,0,0.3,0,0.4
			c1.5,0.1,3,0.1,4.5,0.2c-0.2-1.5-4-1.6-5.6-1.3c-2.5,0.3-5,0.5-7.5,0.8c-2.2,0.5-4.3,0.9-6.5,1.4c-0.4-1.5-0.3-2.6-0.3-4.5
			c0.3-0.1,0.6-0.2,0.9-0.3c0.4,0.7,0.3,1.5,0.8,1.8c0.2,0.2,0.4,0.3,0.6,0.5c0-0.1,0-0.1,0-0.2c0.8-0.3,0.4-1.2,0.1-1.8
			c0-0.1,0-0.3,0-0.4c2.8-0.1,5.6-0.1,8.4-0.2c1.9,0.3,3.7,0.1,5.3,0.3c1.5,0.2,3.2,0.8,4.9,0.8c0-0.1,0.1-0.1,0.1-0.2
			c-0.6-1.3-2.7-0.9-4.3-1.3c-4.4-1-9.9,0.2-14.8-0.2c-0.2-0.5-0.4-1-0.3-1.5c-0.1-0.5,1.6-2.4,2-3c1.4-1.8,6.1-6.6,8.4-7.1
			c0-0.3,0-0.6,0-0.9c-0.1-0.1-0.3-0.2-0.4-0.3c-2.3,0.3-8.2,4.5-9.1,6.2c-1.9-0.9,2.8-8.2,4.2-8.6c1.6-0.5,2.9,0.7,4.3-0.8
			c0-0.1,0.1-0.2,0.1-0.3c0-0.1,0-0.3,0-0.4c-1.2-0.2-1.6-0.5-2.8-0.4c-3.9-3-1.6-8.6-0.4-12.3c0.6-2.1,1-4.5,2.4-6.1
			c0.5-0.2,1-0.5,1.5-0.7c1.6,1.1,4.7,9.2,5.6,11.5c0.9,0.5,3.1,0.4,4.5,0.2c1.8,1.3,3.6,2.7,4.3,5.2c0.1,0.9,0.1,1.8,0.2,2.7
			c0.4,0.1,0.9,0,1.2-0.2c1.5-1.5-0.8-7.5-1.4-8.3c0.1-0.1,0.1-0.1,0.2-0.2c0.1,0,0.2-0.1,0.3-0.1c1.1,1.5,2.6,4.2,3.1,6.2
			c-0.2,1.7-0.5,3.4-0.7,5.1c0,0.1,0.1,0.1,0.1,0.2c0.3,0.1,0.5,0.2,0.8,0.3c2.5-1.3,1.2-10.2,0.1-12.2c0.4-0.3,0.6-0.2,1.2-0.1
			c0.3,0.4,0.7,0.8,1,1.2c0.8,1.3,0.7,2.8,1.6,3.9c0.3,0,0.7-0.1,1-0.1c0.3-1,0.4-3.9-0.3-4.4c0-0.1,0.1-0.3,0.1-0.4
			c1.6,0.3,3.8,0.4,5.5,0.9c1.6,0.5,2.9,2,4.8,2.4c0.1,0,0.2-0.1,0.3-0.1c0.8-1.4,0.6-4.1,1.1-5.7c0.8-2.6,2.2-5.1,3.3-7.6
			c0.5-1,0.4-2.2,1.4-2.7c0.1,0,0.2-0.1,0.3-0.1c0.1,0.1,0.3,0.1,0.4,0.2c0.7,1.2,0.4,2.8,0.7,4.6c0.7,4.3-0.4,11-3.8,12.2
			c0,0.1-0.1,0.3-0.1,0.4c0.6,1.2,1.3,0.4,2.2,1.2c0.3,0.3,0.3,0.9,0.7,1.2c0.8,0.6,4.8,3.7,5.4,3.6c0.5,1.6,1,3.1,1.5,4.7
			c0,0,0,0.1,0,0.1c-0.1,0-0.1,0.1-0.2,0.1c-0.9-1.2-5.8-5.7-7.1-5.1c0,0.2-0.1,0.3-0.1,0.5c2.6,3.1,5,5.8,6.8,9.7
			c0,0.1-0.1,0.1-0.1,0.2c-4.4,0.8-8.9,1.6-13.3,2.4c-2.2,0.7-4.4,1.4-6.6,2.1c0,0.2-0.1,0.4-0.1,0.6c0,0,0,0.1,0,0.1
			c1.6,0.4,4.3-1.2,5.7-1.6c1.4-0.2,2.9-0.4,4.3-0.6c3.3-0.8,6.2-1.8,9.9-1.9c0.2,0.8-0.2,1.4-0.2,2.4c-4.3,0-8,0.2-11.6,1
			c-1.3,0.3-3.2,0.1-3.6,1.2c1.8,0.2,4-0.5,6-0.8c3-0.2,6-0.3,9-0.5c-0.1,1.2-0.7,2.4-0.8,3.1c-1.5,1.1-11.6-1.3-13.6,0.8
			c-0.2,0.2-0.1,0-0.2,0.4c0.1,0,0.1,0.1,0.2,0.1c1.8-0.4,11.5-0.8,13.3-0.1c0.1,0.1,0.2,0.1,0.3,0.2c-2,5.4-10.6,14.6-16.5,15.7
			c-0.1,0.1-0.1,0.2-0.2,0.3c0,0.1,0,0.3,0,0.4c1.7,1,4.3-1.2,5.4-1.9c4.3-2.6,10.6-7.5,12.3-12.5c0.1,0,0.1-0.1,0.2-0.1
			c1.3,0.9,2.4,2.3,4.1,2.8c0,0.1,0,0.2,0,0.3c-6,9-12.6,17.3-20.6,24.3c-2.4,2.1-5.3,6.3-8.6,7.2c-1.6,0.1-3.3,0.1-4.9,0.2
			c-0.6-0.2-1.5-0.8-2.3-0.7c-1,0-2,0.1-3,0.1c-1.4,0.2-3.3,1.5-5.1,1.1c-0.8-0.4-1.5-0.8-2.3-1.2c-4.8-1.7-12.8-2.9-15.1-7.7
			C329.3,257.7,329.6,256.3,329.6,255z M347.6,307.5c0.8-2.5,1.4-4.7,1.4-7.7c2.5,0.9,4.1,3.4,6,5c2.5,2.1,5.8,3.5,8.3,5.6
			c-0.6,1.6-1.2,3.3-1.8,4.9c0,0-0.1,0-0.1,0c-0.3-0.4-0.1-0.6-0.3-1.2c-0.9-1.6-1.9-3.3-2.8-4.9c-3.5-2.8-9.3,0.1-12.1,1.5
			C346,309.8,347.2,308.4,347.6,307.5z M364.8,311.1c0.8,0.8,1.5,1.5,2.3,2.3c8.9,6.4-0.9,15.8-2.9,22.7c-0.1,0.1-0.2,0.1-0.3,0.2
			c-1.6-3.8-3.9-6.8-4.6-11.1C358.7,321.6,363.6,314.6,364.8,311.1z M354.8,350c-0.9-1.7-0.6-2.4-0.3-4.5c0,0,0-0.1,0-0.1
			c-2.3-1.2-2.9,4.9-0.3,5.6c-0.2,1.3-1,1.8-1,3.4c-3,0.7-6.6-2.1-5.6-6c1.3-5.1,4.9-8.4-0.8-12.6c0-2.2-0.1-5.1,1.3-6.9
			c0.5-0.6,1.3-0.7,1.7-1.4c0.2-0.5-0.1-0.7-0.5-0.9c-2.6-1.1-5.2,3.3-5.1,5.9c-0.1,0-0.1,0.1-0.2,0.1c-2.3-2.7-2-8.6,1.1-10.6
			c1.3-0.9,2.9,0.4,4.1-0.3c1.8-1.4-0.3-3.3-2.5-2.9c-2.2,0.4-3.9,1.9-5.6,2.9c-0.1,0-0.1-0.1-0.2-0.1c1.4-5.4,2-5.5,6.5-7.7
			c3.7,0,6.7,0.2,8.7,1.8c2.4,1.9,0.1,5.4,0.6,8c0.5,3,2.6,7.4,4,9.9c0.4,0.8,1.2,1.7,1.5,2.6c0,0.8-0.1,1.7-0.1,2.5
			c0.2,0.9,0.6,1.8,0.3,2.9c-1,4.5-4.8,5.3-7.2,8.4C355,350,354.9,350,354.8,350z M392.3,323.7c-0.8,1.7-2,3.3-2.6,4.9
			c-0.8,0.4-1.7,0-2.9,0.5c-2.2,0.9-4.9,1.5-7.3,1.8c-1.6,0.2-2.6-1.4-3.7-1.1c-0.2,0.2-0.3,0.3-0.5,0.5c0.5,2.9,5.4,4.1,8.4,3.1
			c0.5-0.4,1-0.9,1.5-1.3c0.8-0.2,1.7-0.4,2.5-0.6c-1.4,3.2-4.7,5.3-6.3,8.5c-1.3,2.6-2.8,5.3-3.7,8.2c-0.4,2.5-0.7,5-1.1,7.5
			c-0.8,2-4.6,4.5-7.7,4.5c0.2-1.2,0.5-2.9,1-4c-0.2-0.2-0.3-0.3-0.5-0.5c-0.5,0.1-0.9,0.1-1.1,0.4c-1.6,1.9-0.9,4.9-3.9,5.7
			c-3.8,1.1-5.9-2.4-5.2-5.8c0.2-1.2,1.3-1.8,1.7-3c-0.3-0.3-0.3-0.4-0.9-0.4c-1.3,0.9-3,2.8-2.5,4.8c-0.2,0.2-0.3,0.3-0.5,0.5
			c-2.2-0.9-2.3-3.9-1.3-6c1.3-2.6,5.9-4.6,7.4-6.9c0.6-0.9,0.3-2,0.7-3c0.6-1.3,1.3-3.2,1.7-4.8c0,0,0.1,0,0.1,0
			c0.7,1,2.8,1.6,2.9,3c2.2,0.8,3.5,3,6.1,3.4c0.2-0.2,0.5-0.4,0.7-0.6c-1.3-3.2-5.6-5-6.5-8.6c0.1-0.9,0.3-1.7,0.4-2.6
			c0.2-0.7-0.4-1.3-0.2-2c0.6-2,2.4-3.9,2.6-6.4c0,0,0.1-0.1,0.1-0.1c1.6,0.2,2.3,1.3,3.5,1.9c0.9,0.2,1.7,0.4,2.6,0.6
			c0.7,0.4,1.5,0.9,2.2,1.3c0.9,0.2,1.6-0.3,2.1-0.4c1.8-0.2,3.6-0.3,5.4-0.5c1.7-0.5,2.9-2.2,4.8-2.6
			C392.3,323.6,392.3,323.6,392.3,323.7z M490.2,345.6c-3.2,5-6.2,12-14.3,12.1c-0.9-0.8-1.7-1.6-2.2-2.8c-0.4-1.6,1.4-2.7,1.5-4.5
			c-0.2-0.1-0.4-0.1-0.6-0.2c-1.8,1.2-2.7,3.4-2.2,6.1c-2.4,0.8-6.1,1.9-7.4-1.2c-0.4-0.9-0.7-2-0.2-3.2c1-2.4,3.7-3.5,5.1-5.2
			c0,0,0-0.1,0-0.1c-0.3-0.4-0.3-0.5-0.8-0.7c-2.4,1.1-6,3.5-6.1,6.8c-0.6-0.2-0.6-0.9-0.8-1.2c-1-2.2,0.4-3.8,1.9-4.9
			c1.2-0.9,2.6-1.8,4-2.4c0.8-0.1,1.5-0.3,2.3-0.4c0.7-0.3,1.2-1.2,2.1-1.3c0.4,0.1,0.8,0.3,1.2,0.4c2.4,0.3,4.9,0.7,7.3-0.1
			c0.1-0.2,0.1-0.5,0.2-0.7c-1-1.9-3-1.1-4.8-1.2c0.1-0.4,2.4-2.4,2.8-2.5c1.9-0.4,5.8,0.1,7.7-0.9c0.2-0.2,0.3-0.3,0.5-0.5
			c0-0.2-0.1-0.4-0.1-0.6c-0.8-1.5-4.3-0.1-5.4-0.8c-0.1-0.1-0.2-0.2-0.3-0.3c1.1-1.1,2.7-2.5,4.2-3.1c0.7,0,1.5-0.1,2.2-0.1
			c0.4-0.2,4.6-2.4,4.7-2.7c0.2-0.4,0-0.7-0.2-0.9c-0.2-0.2-6.9,1.1-8.7,0.7c-0.1,0-0.1-0.1-0.2-0.1c0.4-1.4,0.9-2.9,1.3-4.3
			c0.8-0.7,2.6-0.3,3.6-0.8c2.6-1.3,5-3,7-4.9c-0.1-0.3-0.3-0.7-0.4-1c-0.2-0.1-0.5-0.1-0.7-0.2c-1.8,1.4-6.6,5.3-9.9,3.4
			c-0.6-0.3-0.5-0.8-0.7-1.3c-0.8-1.6-2.8-3.2-4.5-3.9c-0.1-0.1-0.2-0.3-0.3-0.4c1.1-0.5,3.8-0.1,5.1-0.5c1.5-0.5,3-1.1,4.5-1.6
			c0.8-0.8,1.5-1.6,2.3-2.4c2.2-1.2,5.2-1.5,6.9-2.9c0,0,1,6.3,1.2,6.8c1,2.1,3.1,3.6,3.8,6.1c0.9,3.3-0.1,5.6-1.3,7.9
			c-1.6,3.2-3.3,6.8-5.6,9.3C493.8,340.5,491.8,343.1,490.2,345.6z M507,304.3c0.6,0.5,1.2,1,1.8,1.5c2.2,1.7,3.9,3.8,4.5,6.5
			c0.6,2.5-0.9,5.3-1.5,6.9c-2.1,5.4-4.9,9.7-7.6,14.6c-0.9,1.7-2.8,4.6-2.5,6.4c-0.3,0.4-0.5,0.5-1.1,0.6c-0.1,0.2-0.1,0.3-0.2,0.5
			c0.2,0,0.3,0,0.5,0c-0.9,5-3.5,8.6-8.9,6.7c-0.2-0.4-0.3-0.8-0.5-1.2c0.6-2.2,3.2-4.1,4.4-5.9c3-4.4,7.2-9.3,8.6-14.5
			c1.6-5.8-2.4-8.8-4.1-12.7c-0.3-0.7-1.6-4.5-1.1-5.6c1.4-3.4,3.9-6.4,5.9-9.2C506.1,299.9,506,302.9,507,304.3z M583.5,218.5
			c0,4.1-4.9,13.8-7.1,16.8c-6.7,9.1-16.3,14.9-28.2,18.9c-1.9,0.3-3.8,0.5-5.7,0.8c-3.5,0.8-9.8,1.4-13.4,0.9
			c-3.9-0.5-8-1-11.6-1.9c-1.5-0.4-3-1.3-4.6-1.4c-0.3,0.3-0.3,0.4-0.5,0.8c1.2,2.2,4.9,0.9,6.2,4c0.6,1.3,0.2,2.2,0.6,3.5
			c4.5,13.8-7.1,27.5-14.3,35.7c-1.8,2.5-3.7,5-5.5,7.5c-1.3,0.6-2.6,1.1-3.9,1.7c-1.6,1.2-3.3,2.3-4.9,3.5
			c-1.8,0.8-3.5,1.5-5.3,2.3c-1.2,0.8-2.3,1.5-3.5,2.3c-1.4,0.5-3-0.5-4.1-0.8c-1-0.1-1.9-0.3-2.9-0.4c-1.7-0.8-5.4-4.4-6.2-6.1
			c1.4-0.5,2.8-1,4.2-1.5c3.1-1.2,8.4-3.4,10.4-5.7c-0.1-0.6-0.3-0.9-0.7-1.2c-2.4,1.4-4.7,3-7.3,4.3c-6.1,3-13.5,4.7-20.2,6.1
			c-3.1,0.8-6.3,1.5-9.4,2.3c-10,2.2-24,2.3-34.2,0.6c-2.4,0.2-4.9,0.4-7.3,0.6c-1,0.2-0.9-0.4-1.8-0.5c-1.2,0.9-2.9,1.7-3.8,2.8
			c-1.6,2.1-3.3,5.3-5.6,6.6c-0.7,0.2-1.3,0.4-2,0.6c-1.8,0.9-4.5,2.6-6.9,2.8c-3.8,0.2-10.7-5.4-12.5-7.6c-1.1-1.4-1.3-4.6-2-6.5
			c-0.5-1.2-1.4-2.2-1.7-3.7c-0.2,0-0.5-0.1-0.7-0.1c0,0-0.1,0-0.1,0c-0.9,1.7,1,3.4,1.2,5.2c-0.1,0-0.1,0.1-0.2,0.1
			c-1.2-1.1-2.4-2.1-3.6-3.2c-0.4,0-0.8-0.1-1.2-0.1c-0.8-0.6-1.5-1.3-2.3-1.9c-1.2-1-2.7-1.4-4-2.3c-1.4-1.3-2.7-2.5-4.1-3.8
			c-8-6-14.2-13.5-18.8-22.9c-2.1-4.3-2.5-9.5-4.2-14.4c0,0,0-0.1,0-0.1c2.4,0.4,4.6,1.9,6.7,2.7c4.1,1.5,8.1,2.7,12,3.7
			c2,0.5,4.2,2.2,6.1,2c1.9-0.2,2.9-0.9,4.4-1.5c1.7-0.6,3.5-0.9,5-1.7c3-1.7,5-4.5,7.6-6.5c1.8-1.4,3.7-3,5.1-4.9
			c1.2-1.1,2.4-2.2,3.6-3.3c1.3-1.6,2.4-3.3,3.8-4.7c2.1-2.1,3.4-4.4,5.2-6.7c1.4-1.8,3.5-3.3,4.4-5.5c2.3-1,4.8,2.8,5.6,4.3
			c3.7,6.6,0.4,17.9-2.3,24.3c0.2,0.2,0.5,0.5,0.7,0.7c0.2-0.1,0.5-0.1,0.7-0.2c1.9-2.6,2.6-6.4,3.7-9.8c1.7-5.1,4.7-9,2.9-15.6
			c1.4-1,5.7,2.9,6.6,3.6c4.7,3.5,6.3,10.6,7.7,17c0.1,1.1,0.1,2.2,0.2,3.3c0.3,0.7,0.5,1.5,0.8,2.2c2.6,1.6,0.2-4.8,0.8-6.5
			c1.3-4-0.6-5.4-1.3-9c-0.2-1.9-0.5-3.8-0.7-5.7c-0.6-1.3-1.8-2.7-2.3-4.1c0-0.1,0.1-0.1,0.1-0.2c3.1-0.6,6.2-1.1,9.3-1.7
			c1.3,0,2.5,0,3.8,0c1.3-0.4,4.5-1.6,5.8-1.3c6.4,1.4,8.4,7.9,11.8,12.4c0.6,1.5,1.2,3,1.8,4.5c-0.1,0.4-0.1,0.8-0.2,1.2
			c0.3,0.5,0.6,0.9,0.9,1.4c0.1,0.6,0.2,1.1,0.3,1.7c0.2,0.2,0.5,0.3,0.7,0.5c0.4,1,0.2,1.8,1,2.4c0.4,0.1,0.8,0.1,1.2,0.2
			c1.7-2.3-0.4-5.6-1.1-7.9c-0.8-2.8-2.2-4.8-3.2-7.1c-1.1-2.6-1.8-4.8-3.2-7.2c-0.8-1.5-2.9-3.1-3.4-4.7c-0.3-1.1,1.2-1.9,1.6-2.4
			c2.5,0.5,4.8-1.2,7.3-1.8c2.2-0.3,4.3-0.6,6.5-0.9c2.3-0.4,5.4-0.2,5.6,1.8c2.3-0.3,5.4,0.9,8,1.6c0.9,0.1,1.8,0.3,2.7,0.4
			c1.5,0.6,3,2.1,4.7,2.5c5,1.3,10,0.2,14.2,2.1c0.8,0.6,1.7,1.2,2.5,1.8c1.3,0.6,10.2,2.5,11.2,2.3c0.1-0.1,0.2-0.3,0.3-0.4
			c-0.4-2.6-2.7-2.8-3.9-4.7c0.6-0.4,1.1-0.7,1.7-1.1c0.8-0.5,3.6,1.1,4.7,1.4c1.7,0.5,1.6,1,2.6,1.9c0.8,0.4,1.6,0.8,2.4,1.2
			c2.1,1.3,4.4,4.3,4.7,7.3c-0.6,1.1-1.1,1.5-0.9,3c0.5,0.2,0.7,0.4,1.3,0.2c0,0,0.1-0.1,0.1-0.1c0.6-0.3,0.5-1,1-1.4
			c0.3,0,0.7-0.1,1-0.1c0.5-0.6,0.9-1.1,1.4-1.7c0.8-0.4,1.1,0,1.6-0.7c0,0,0-0.1,0-0.1c0.1,0,0.1-0.1,0.2-0.1
			c0.2-1.1,0.4-2.3,0.6-3.4c1.9-1.2,5-2.1,7.2-2.3c1.1,0.8,2.9,2.6,3.2,4.1c0.1,0.6-0.1,1.1,0.1,1.7c0.1,0.1,0.3,0.3,0.4,0.4
			c3.2-1,4.5-4.2,6.9-6c2-1.5,4.7-2.4,7.4-3.2c0.1,0,0.1,0.1,0.2,0.1c0.2,0.9,0.4,2.8,0.8,3.1c-0.1,0.5,0.2,0.7,0.8,0.8
			c2.4-1,2.5-4.6,2.6-7.3c1.1-0.8,2.2-1.5,3.3-2.3c1.2-0.4,2.3-0.4,3.2-1.1c1.1-0.7,1.7-1.9,2.8-2.7c0,0,0.1,0,0.1,0
			c1.2,1.2,4.4,5.8,7.3,4.7c0.2-0.2,0.3-0.3,0.5-0.5c-0.4-2.3-2.8-6.6-2.4-9.5c0.1-1,1.5-2.6,1.9-3.6c0.1-0.8,0.3-1.7,0.4-2.5
			c0.4-1.4,1.2-2.9,1.5-4.6c2.8,0,7.8,2.4,10.1-0.6C584.6,213.5,583.4,217.1,583.5,218.5z M346.7,205.6c0-0.8,0-0.8-0.2-1.2
			c0.1,0,0.2,0.1,0.3,0.1c0.9-3.5-1.9-5.2-2-8.4c-0.5-0.4-0.7-0.7-1.4-1c-0.2,0.2-0.4,0.2-0.6,0.4c-0.5,0.9,0.7,3,0.7,4.7
			c0,2.8-1.8,6.3-1.2,8.3C344.2,209,345.2,206.3,346.7,205.6z M365.7,217.7c1.1,0.5,2.1,1.2,3.3,1.5c2.2,0.5,6.9-0.9,7.2-2.9
			c0.2,0,0.4,0.1,0.6,0.1c0.1-0.1,0.3-0.3,0.4-0.4c-0.2-3-3.9-5.1-6.9-5.4c-2.8,1.4-7.3,2.9-8,6.2
			C362.7,217.5,364.7,217.8,365.7,217.7z M375.6,215.6c0,0,0.1,0,0.1,0c0,0.1,0.1,0.2,0.1,0.3c-0.1,0-0.2-0.1-0.3-0.1
			C375.5,215.7,375.5,215.6,375.6,215.6z M372.7,214.7c0.1,0.2,0.1,0,0,0.2C372.7,214.8,372.7,214.7,372.7,214.7z M368.4,212.8
			c0.4-0.2,0.9-0.5,1.3-0.7c0.2,0,0.3,0,0.5,0c0.4,0.4,0.9,0.9,1.3,1.3c-0.1,1.1-0.4,1.8-0.7,2.7c-0.8,0.6-1,0.7-2.2,0.5
			C367.9,215.3,368.1,214.2,368.4,212.8z M366.5,214.7c0.2,0.2,0.1,0,0.2,0.3c-0.1,0-0.1,0-0.2,0
			C366.5,214.9,366.5,214.8,366.5,214.7z M359,217.9c-1-3-4-5.9-7.8-5.9c-1.7,0.9-3.1,1.1-4.5,2.1c-1.6,1.1-2.3,3.3-3.9,4.5
			c0,0.2,0.1,0.3,0.1,0.5c0.9,0.6,1.5-0.1,2.6,0.2c1.2,0.3,2.8,1.2,3.9,1.5C353.7,221.9,356.8,219.4,359,217.9z M357.4,217.9
			c0,0.1-0.1,0.1-0.1,0.2c0-0.1-0.1-0.1-0.1-0.2C357.2,217.9,357.3,217.9,357.4,217.9z M345.5,216.4c0-0.1,0-0.2,0-0.3
			c0.1,0,0.1,0.1,0.2,0.1C345.6,216.2,345.5,216.3,345.5,216.4z M346.8,217.5c-0.1-0.1-0.1-0.1-0.2-0.2c0,0,0.1-0.1,0.1-0.1
			c0,0,0.1,0,0.1,0C346.8,217.3,346.8,217.4,346.8,217.5z M355.3,216c0,0.1-0.1,0.1-0.1,0.2c0-0.1-0.1-0.1-0.1-0.2
			C355.1,216,355.2,216,355.3,216z M350.4,219c-1.9-1.4-0.5-4.6,0.5-5.6c1.2,0.1,2.1,0.7,2.9,1.2c0.4,1.5-0.3,2.5-0.3,3.6
			c-0.7,0.2-1.3,0.7-1.8,1.1C351.2,219.2,350.8,219.1,350.4,219z M370,215.5c0.6-0.6,0.5-0.9,0.8-1.7c-0.4-0.4-0.7-0.6-1.4-0.6
			c-0.1,0.1-0.3,0.2-0.4,0.3c-0.3,0.6-0.2,1.2,0,1.8C369.3,215.3,369.6,215.4,370,215.5z M351.1,214.6c-0.9,1.4-0.3,3.2,1.5,2.2
			C353.1,215.3,352.6,214.8,351.1,214.6z M367.5,224.1c-0.4,0-0.7-0.1-1.1-0.1c-0.2,0.1-0.3,0.2-0.5,0.3c-0.2,0.5,0,0.5,0.2,1.1
			c0.2,0.1,0.5,0.1,0.7,0.2c0.2-0.2,0.3-0.3,0.5-0.5C367.3,224.7,367.4,224.4,367.5,224.1z M348.2,224.9c0,0.1,0,0.2,0,0.3
			c0.2,0.2,0.4,0.4,0.6,0.6c0.1,0,0.3,0.1,0.4,0.1c0.2-0.3,0.5-0.5,0.7-0.8c0-0.1,0-0.3,0-0.4c-0.3-0.1-0.7-0.3-1-0.4
			C348.6,224.5,348.4,224.7,348.2,224.9z M362.3,228.6c0.6,0.6,0.6,1.3,1.5,1.5c0.4,0.2,0.9,0,1.1-0.4c0.5-0.5,0.6-1.4,0.3-2.2
			c0.1-0.9-1.8-2.4-2.6-2.9c-0.5,0.3-0.8,0.3-1.1,0.8c0.4,0.4,0.8,0.9,1.2,1.3C362.6,227.4,362.5,227.9,362.3,228.6z M355.6,230.2
			c0.2,0.3,0.5,0.5,0.7,0.8c0.3,0.1,0.5,0.1,0.8,0.2c1.9-0.8,1.4-2,1.9-3.6c0.3-0.8,0.8-0.9,0.8-2.2c-0.5,0-0.9-0.1-1.4-0.1
			C356.9,226.3,355.6,227.8,355.6,230.2z M354.1,227.2c0.4-0.3,0.4-0.6,0.2-1.1c-0.3-0.1-0.6-0.1-0.9-0.2c-0.1,0-0.1,0.1-0.2,0.1
			C352.7,226.7,353.2,227.8,354.1,227.2z M353.2,230.1c0.2-0.2,0.3-0.6,0.1-0.9c-0.2-0.3-0.3-0.4-0.8-0.5c-0.3,0.2-0.5,0.4-0.8,0.6
			c0,0.2-0.1,0.3-0.1,0.5c0,0.1,0.1,0.1,0.1,0.2C352.2,230.2,352.7,230.3,353.2,230.1z M367.6,229.5c0.3,0.4,0.4,0.8,0.9,1
			c0.6,0.2,0.9-0.2,1.2-0.6c-0.3-0.6-0.4-0.9-1.3-0.9C368.1,229.3,368.1,229.3,367.6,229.5C367.6,229.4,367.6,229.4,367.6,229.5z
			 M349,239.8c0.9,1.1,3.6,1.1,5.3,0.5c1.9-0.7,3.5-2.4,5.5-3c2.4-0.8,3.5,1,5.3,1.6c2.1,0.7,5.8-0.2,6.6-1.8
			c0.2-0.3,0.2-0.4-0.3-0.6c-1-0.3-3.4,1.2-5.1,1c-2.4-0.3-3.4-2.7-4.5-4.3c0.4-0.7,1.5-1.7,1.2-2.5c0-0.1-0.1-0.2-0.1-0.3
			c-0.3-0.1-0.6-0.1-0.9-0.2c-0.4,0.6-0.8,1.2-1.2,1.8c-0.5-0.4-1.1-0.9-1.6-1.3c-0.4,0.1-0.3,0-0.5,0.2c-0.3,0.2-0.3,0.2-0.3,0.7
			c0.3,0.3,0.7,0.6,1,0.9c0.4,3.3-3.2,5.9-5.9,6.6C351.8,239.5,349.4,238.5,349,239.8z M364.6,231.7c-0.4,0.3-0.7,0.3-0.9,0.8
			c-0.1,0.3-0.1,0.5-0.2,0.8c0,0,0.1,0.1,0.1,0.1c0.4,0.1,0.8,0.1,1.2,0.2c0.2-0.2,0.4-0.3,0.6-0.5
			C365.3,232.3,365.1,232,364.6,231.7z M372,234.1c0.1-0.2,0.3-0.5,0.4-0.7c-0.2-0.2-0.3-0.3-0.5-0.5c-0.2,0-0.4-0.1-0.6-0.1
			c-0.1,0.2-0.3,0.3-0.4,0.5c0,0.2,0,0.3,0,0.5c0.2,0.1,0.3,0.3,0.5,0.4C371.6,234.1,371.8,234.1,372,234.1z M354.5,234.8
			c0.3-0.3,0.5-0.5,0.7-1c-0.2-0.4-0.4-0.5-0.9-0.7c-0.2,0-0.3,0.1-0.5,0.1c-0.1,0.1-0.2,0.2-0.3,0.3c-0.1,0.5,0.1,0.6,0.2,1.2
			C353.9,234.7,354.2,234.7,354.5,234.8z M368.1,235.1c0.2-0.2,0.3-0.3,0.4-0.5c0-0.2-0.1-0.3-0.1-0.5c-0.2-0.4-0.5-0.5-1.1-0.5
			c-0.1,0.1-0.3,0.1-0.4,0.2c-0.1,0.6,0.1,0.9,0.3,1.3C367.5,235.1,367.8,235.1,368.1,235.1z M472.8,253.1c3.7,1.6,7.7,0.2,12.1,1
			c2.4,0.5,4.4,1.3,7.2,1.3c1.9,0,6.3,1.4,6.8,1.2c1.6-0.5,2.8-1.8,4.8-2.1c1.3-5.8-4-8.1-7.8-9.9c-2.9-1.4-5.5-3.1-8.7-4.1
			c-1.7,0-3.4,0-5.1,0c-1.6-0.5-3.1-1.1-4.7-1.6c-1-0.1-1.9-0.1-2.9-0.2c-1.6-0.4-3-1.3-4.5-1.9c-2-0.8-3.8-0.8-6.2-1.5
			c-2.2-0.7-4.7-1.6-7.5-1.7c-2.2,1-4.8,0.7-6.7,1.8c1.1,7.6,8.2,6.4,14.1,9.2C467.5,246.4,468.9,251.4,472.8,253.1z M348.8,237
			c0.3-0.4,0.5-0.4,0.7-0.9c0.1-0.4-0.1-0.6-0.5-0.8c-0.2,0-0.4-0.1-0.6-0.1c-0.1,0-0.1,0.1-0.2,0.1
			C347.8,236,348.1,236.7,348.8,237z M318.3,236.8c-0.1-0.1-0.1-0.3-0.2-0.4c-0.2,0.1-0.3,0.1-0.5,0.2c0,0,0,0.1,0,0.1
			c0.2,0,0.4,0.1,0.6,0.1C318.2,236.8,318.2,236.8,318.3,236.8z M468.6,279c0.3-0.7-0.1-1.6-0.3-2.2c1.1-1.9,4.5-3.3,3.9-6.3
			c-0.5-2.5-2.1-4.1-3.1-6c-3.2-5.8-4.6-9.9-9.1-14.5c-1.4-1.4-3-4.2-5.6-4.2c-0.2,1.7-0.8,4.8-0.4,6.4c0.8,2.1,1.5,4.2,2.3,6.3
			c0.3,1.9,0.8,10.6,0,11.9c-0.8,1.3-3.1,2.4-4.9,2.6c0,0-0.1,0-0.1,0c-0.5-1.5-1.5-3-1.9-4.3c-0.5-1.7-0.5-3-1.2-4.6
			c-0.8-1.7-2.4-3.3-3.1-5.1c0.5-1.1-1.3-4.1-1.9-4.9c-0.9-1.3-2.5-4.9-4.7-4.3c-0.1,0-0.2,0.1-0.3,0.1c-0.9,4.3,1.7,8.4,3,11.4
			c0.7,1.5,0.7,3,1.2,4.7c0.4,1.5,1.5,3.6,0.9,5.6c-1.1,3.7-3.2,6.8-5.4,9.5c-0.8,1-2.1,1.8-2.7,3c-0.8,1.4-1,4.2-1.9,5.4
			c-2.6,3.4-5.6,5.3-7.7,9.3c0.1,1.1,0.6,1.2,0.9,2c0.3,0.1,0.7,0.2,1,0.3c1.5-0.8,3.3-2,4.9-2.6c2.9-1.1,6.4-0.3,9.7-1
			c1.5-0.3,3.3-1.2,4.6-1.4c1.6-0.3,3,0.8,4.7,0c1.5-0.7,4-2.5,4.9-3.9c1.5-2.5,2.1-5.9,4.3-7.7C462.9,282.5,467.3,281.9,468.6,279z
			 M366.7,247.9c-0.9,0.4-1.7,0.2-2.8,0.5c-1.5,0.4-3.6,0.7-4.9,0.9c-1.4-0.1-2.8-0.1-4.2-0.2c-1,0.1-2.1,0.5-3.4,0.2
			c-0.6-0.2-1.3-0.5-1.9-0.7c-2.4,1.6,2.3,3.5,3.8,3.3c0.7-0.1,1.3-0.2,2-0.3c0.5,0.1,1.1,0.3,1.6,0.4c0.6-0.3,1.3-0.6,1.9-0.9
			c1.1,0,2.1,0,3.2,0c1.4-0.4,3.3-1,4.6-1.7c0.5,0.2,0.8-0.4,0.8-1.1C367.1,248.1,366.9,248,366.7,247.9z M360.7,275.8
			c0.9-0.1,1.3,0.7,2.4,0.4c4.9-1.2,9-2.5,12.6-5.3c0.4-0.7,0.9-1.5,1.3-2.2c1.2-1.7,2.5-3.3,3.7-5.2c1-1.6,2.9-2.5,3.8-4
			c1.7-2.7,3.2-5,5.1-7.3c0.7-0.9,1-2,1.9-2.7c-0.1-0.2-0.1-0.5-0.2-0.7c-0.1-0.1-0.1-0.1-0.2-0.2c-0.2,0-0.4-0.1-0.6-0.1
			c-1.2,1.1-2.4,2.3-3.6,3.4c-1.9,2.7-4,5.3-6.1,7.9c-1.2,1.1-2.5,2.2-3.7,3.3c-2.7,2.9-4.6,5-8.4,6.9c-1,0.5-1.5,1.6-2.6,2.1
			c-3.4,1.6-8.2,1.1-12.2,1.7c-0.2,0.3-0.3,0.5-0.5,0.8c0,0.1,0,0.2,0,0.3C356.3,276.1,357,276.2,360.7,275.8z M438.7,302.3
			c-2.1,0.5-4.3,0.9-6.4,1.4c-1.2-0.1-2.5-0.1-3.7-0.2c-1.8,0.6-4.4,1.3-6.3,1.7c-2.2,0.4-5.2,0.1-6-1.5c0.4-3.5,2.8-5.9,4-8.5
			c1.6-3.4,3.4-6.3,4.9-9.7c0.6-1.7,1.1-3.5,1.7-5.2c1.2-1.1,2.5-2.3,3.7-3.4c3-3.7,1.2-7,0.4-11c-0.3-1.3,0.2-2.8,0.3-3.6
			c0.3-3.4,0.4-6.7-0.2-9.6c-0.2-0.8-0.1-1.7-0.5-2.2c-0.9-1-3.3-1.5-4.8-1.9c-0.3,0.1-0.5,0.1-0.8,0.2c-1,1.7,0.5,4.3,0.3,6.2
			c-0.3,3.1-0.3,6.5-1,9.5c0,2,0,3.9,0,5.9c-0.4,0.8-0.9,1.5-1.3,2.3c-0.6,1.4-0.8,3.4-2.3,3.9c-0.1,0-0.2,0-0.3,0
			c-2.8-1.5-1.2-9-4.4-10.9c-0.6-0.5-1.6-0.2-2.2,0c-0.1,0-0.1,0.1-0.2,0.1c0.1,4.1,1.3,8,2.2,11.6c0.3,1.4-0.3,3,0.1,3.8
			c-1.4,1.4-1.8,4.4-2.9,6.1c-1.4,2.1-3.3,3.8-4.6,5.8c-1.1,1.8-1.9,3.5-3.2,5.2c-0.2,0.3-4.4,4.7-4.4,4.7c-1.1,0.6-1.9,0.1-2.6,1
			c-0.4,0.5-2.5,4.2-2.2,4.7c0.6,0.2,1.3,0.5,1.9,0.7c1.4-0.8,3.1-0.8,4.9-1.7c1.2-1.2,2.3-2.3,3.5-3.5c1.7-1.3,3.4-2.3,4.7-4
			c0.1,0,0.3,0.1,0.4,0.1c0.3,2.4-2.3,4.1-0.2,6.9c0.2,0.3,4.7,2.1,5.4,2c0.9-0.1,1.9-0.6,2.9-0.5c0.8,0.1,1.8,0.8,2.9,0.6
			c1.5-0.5,3.1-1.1,4.6-1.6c1.2-0.3,2.6-0.1,3.7-0.3c0.4-0.5,8.7-1.7,10.1-2.1C442.9,305.7,441.7,301.7,438.7,302.3z M414.5,293.1
			c0-0.1,0-0.2,0-0.3c0.1,0.1,0.1,0.2,0.2,0.3C414.6,293.1,414.5,293.1,414.5,293.1z M507.6,255.2c-2.5,1.4-1.1,1.8-2.4,3.9
			c-0.9,1.6-3.6,1.6-4.1,3.6c-0.4,1.7,1.2,3.2,1.9,4c1.7,1.9,6.9,5.1,9.8,5.7c1.2,0.3,2.2,0,3.3,0.1c0.7-1.1,1.9-1.6,2.3-3
			c0.4-1.6-1-2.9-1.4-3.8C515.5,262.7,510.9,255.7,507.6,255.2z M490.6,287.2c1.1-1.5,1.7-3.3,2.7-4.9c0.5-0.8,1.4-1.2,1.8-2.2
			c0.4-1,1-3.2,1.3-4.2c0.4-1.4-0.4-2.3-0.5-3.3c0.3-2,0.5-4,0.8-6c0.5-1.6,2.1-2.2,2.4-3.9c-0.1-0.3-0.3-0.7-0.4-1
			c-0.6-0.1-1.1-0.1-1.7-0.2c-1.9,2-3.9,3.3-5.1,6c-0.9,2-1.7,5.3-1.4,7.5c0.1,1.3,0.2,2.5,0.3,3.8c-0.6,2.7-2.6,4.5-3.9,6.6
			c-0.4,0.9-0.8,1.8-1.2,2.7c-0.8,0.6-1.6,1.2-2.4,1.8c-1.3,1.4-2.4,3-4,4.1c-1.9,1.2-3.7,2.4-5.6,3.6c-0.9,0.6-3.5,2.6-2.3,3.7
			c4.1-1.8,7.9-5.6,11.3-8.2C485.4,291.1,488.6,289.8,490.6,287.2z M383.1,267.7c-1.4,1.6-2.7,3.3-4.1,4.9c-1.4,1.1-7.7,4.9-8.1,5.8
			c-0.2,0.5,0.2,0.8,0.6,1c1.4,0,2.2-0.9,3.1-1.4c2.2-1.1,4.2-1.9,6-3.3c1.6-1.3,5.2-8.1,5.9-10.2c0-0.2,0-0.5,0-0.7
			c-0.3,0-0.5-0.1-0.8-0.1C384.3,264.8,384.1,266.2,383.1,267.7z M511.8,274.1c-1.3-0.7-3.2-0.2-4.9-0.6c-2.1-0.4-2.9-1.7-5.6-1.7
			c-3.4,2.5-4.1,5-2.5,9.6c3.2,1.8,8.6-4.3,12.5-2.3c1.5-1.2,1.7-1.4,1.7-3.7C512.6,274.9,512.2,274.3,511.8,274.1z M482.9,286.5
			c1.5-1.9,1.5-4.1,2.1-6.7c0.3-1.4,1.5-3,1.1-4.6c-0.2-0.5-0.4-0.8-1.1-0.9c-2.8,1.6-3.9,4.7-5.6,7.4c-1.7,2.7-4.5,5.7-7.1,7.6
			c-2,1.5-4.9,2.3-5.5,5.2c0.3,0.3,0.4,0.3,0.8,0.5c4.9-2,8.6-4.1,12.6-6.9C481.1,287.5,482,287,482.9,286.5z M391.5,281.7
			c-3.5,4.6-6.9,8.9-12.5,11.3c-1.6,0.7-4,2.1-6.4,1.5c-1.8-0.4-3-1.7-4.3-2.6c-1-0.7-3-1.3-4.2-1.7c-3.4-1.2-10.7,4.1-12.1,1.8
			c-1.4,0.6-2.3,0-3.6-0.5c-0.2,0.2-0.3,0.3-0.5,0.5c0.1,0.3,0.2,0.5,0.3,0.8c0.5,0.9,1.1,0.7,2.3,1c2.3,0.7,5.1,0.5,7.2-0.4
			c1.3-0.6,3.2-2.1,5.2-1.7c3.3,0.6,3.9,4.2,6.9,5.1c9.1,2.6,19.8-8.4,22.8-14.3C392.3,282,392.1,281.8,391.5,281.7z M505.9,282
			c-1.7,1.3-5.1,0.6-7.3,1.4c-0.7,0.4-1.3,0.7-2,1.1c-1.8,0.5-2.6,0.1-3,2.3c1.6,2.5,12.5-0.6,14-2.6c0-0.1,0.1-0.2,0.1-0.3
			C507.6,282.9,506.7,282.2,505.9,282z M398.5,288.3c0.7,2.8-2.1,6.3,0.4,7.7c0.3,0,0.5-0.1,0.8-0.1c0.8-1.4,0.7-3.4,1.2-5.2
			c0.2-0.4,0.5-0.7,0.7-1.1c0.8-2.3,0.5-4.8-0.1-7c-1.7,0-2.5-0.2-3.8-0.4c-0.3,0.3-0.5,0.5-0.4,0.9
			C396.8,285.2,398,286.7,398.5,288.3z M496,289.6c-2.3,1-5.6,0.9-6.8,3c0.3,0.8,0.5,1.2,1,1.7c2.2,0.4,3.1-1,4.7-1
			c-0.1-0.8,2.2-1,2.9-0.5c0.7-0.4,1.4-1,2.1-1.5C499.5,289.6,498.1,289.5,496,289.6z M393,291.3c-0.3,0.3-0.5,0.6-0.8,0.9
			c0.1,1.6,0.8,2.5,1,3.7c0.3,1.3-0.2,2.7,0.2,4.1c0.5,0.4,0.9,0.7,1.6,0.2c1.8-1.8-0.4-6.6-0.8-8.3
			C393.8,291.7,393.4,291.5,393,291.3z M373.3,301.8c-0.7-0.3-0.8-0.9-1.9-0.9c-0.4,0.1-0.7,0.1-1.1,0.2c-0.1,0-0.1,0.1-0.2,0.1
			c-0.2,1.9,1,4.7,1.5,6.7c0.3,1.6,0.6,3.2,0.9,4.8c0.6,0.7,1.2,1.5,1.8,2.2c0.4-0.1,0.7-0.1,1.1-0.2c0.3-0.6,0.2-1.9,0.5-2.6
			c0.5-1.1,1.1-2.1,1.6-3.2c-0.2-0.7-0.4-1.5-0.6-2.2c-0.1-1.4,1.3-2.7,2.1-3.3c0-0.7-0.1-0.9-0.3-1.4
			C376.3,300.5,374.8,302.4,373.3,301.8z M507.4,311.8c0.2,0.7,0.1,1.2,0.6,1.6c0.9,0.5,2.3-1.2,2.9-1.7c0-0.2-0.1-0.4-0.1-0.6
			c-0.5-1.2-3.1-1.6-4.4-1.9c-0.2,0.1-0.3,0.1-0.5,0.2c-0.1,0.1-0.2,0.3-0.3,0.4C505.6,311,506.2,311.7,507.4,311.8z M505.7,316
			c-0.2,0.3-0.3,0.6-0.5,0.9c0.4,0.6,1.1,1.2,2,1.4c0.3-0.1,0.3-0.2,0.5-0.4c0.2-0.3,0.1-0.4,0.1-0.9
			C507.1,316.5,506.7,316,505.7,316z"/>
	</g>
</g>
</svg>
