<?xml version="1.0" encoding="utf-8"?>
<!-- Generator: Adobe Illustrator 21.0.0, SVG Export Plug-In . SVG Version: 6.00 Build 0)  -->
<svg version="1.1" id="Calque_1" xmlns="http://www.w3.org/2000/svg" xmlns:xlink="http://www.w3.org/1999/xlink" x="0px" y="0px"
	 viewBox="0 0 841 595" style="enable-background:new 0 0 841 595;" xml:space="preserve">
<style type="text/css">
	.st0{fill:#1D1D1B;}
	.st1{fill:#DADADA;}
</style>
<g>
	<g>
		<path class="st0" d="M438.9,377.2c-0.2-0.4-0.6-1.1-0.9-1.6l0.5-0.5c-0.2-0.3-0.3-0.2-0.5-0.5c-0.5-0.2-0.5-0.8-0.5-1.6h-0.4
			c0.4-1.7-1.3-4-2.1-5.4c-2.2-3.6-3.8-6.8-7.5-9c0-0.2,0-0.2,0.1-0.4c0-0.1-1.8-0.8-2.2-1.1c-0.6-0.4-1.3-1.2-1.9-1.6
			c-0.2-0.1-0.9-0.5-1-0.5h-0.7c-0.8-0.4-1.8-1.1-2.6-1.6c-0.1-1.1-0.6-2.9,0-3.3c-0.1-0.3-0.2-0.2-0.4-0.4c-0.3-0.3,0-0.8-0.1-1.6
			c-0.2-0.8,0.2-1.7,0-2.6c-0.1-0.3-0.2-0.7-0.2-1.1v-2.2c-0.3-1.3,0-4-0.2-5.7c0.1-0.5,0.2-1,0.2-1.5c-0.3-2,0.2-3.2,0.1-5.4
			c-0.1-2-0.3-5.2-0.2-7.2c0-1.2,0.4-2.4,0.2-3.7c0-0.1,0.1-1.2,0.1-1.5c-0.1-1.8,0.3-4.5,0.5-6.8c0-0.3-0.2-0.3-0.2-0.5
			c-0.1-0.4,0-2.1,0.1-2.7c0.1-0.6,0.4-1.6,0.2-2.4c0-0.1-0.3-0.5-0.2-0.6c0.1-0.3,0.5-0.7,0.4-1.2c0,0-0.3-0.4-0.4-0.5
			c0-1-0.1-2-0.1-3c0-1.1-0.3-1.7-0.2-2.7c0-0.8,0.2-2.3,0-3.4c-0.1-0.6,0.2-1.2,0.1-1.8c-0.3-1.5-0.4-5.3-0.2-6.6
			c0.1-0.6-0.2-1.3-0.1-1.7c0.1-0.1,0.2-0.2,0.2-0.2c0-2.9-0.4-6.1-0.4-8.3c0-1.3,0.5-3.2,0.2-4.5c-0.2-1,0.3-1.6,0.1-2.7
			c-0.1-0.4-0.1-0.2-0.2-0.4c0.3-0.6,0.3-2.3,0.4-3.4c0.1-1.2-0.2-2.6,0.2-4.4v-2.1c0-1.7-0.1-2.6,0-4.1c0-0.4,0.3-1.2,0.4-1.6
			c0.1-0.7-0.3-1.4-0.1-2.2c0.5-1.7,0.3-4.1,0.7-5.6c0.1-0.5-0.2-1.3-0.1-1.6c0.2-1,0.2-2.2,0.4-3.5c0.1-0.5-0.2-1.2-0.1-1.7
			c0.2-1.2,0.5-2.3,0.5-3.2c0-0.4,0.3-0.8,0.4-1.1c0.2-0.8,0.3-5,0.1-5.2v-0.1c0.1,0,0.2,0.1,0.2,0.1c0-1,0.4-3.3,0.2-3.9
			c-0.2-1-0.4-2.6,0-3.9c0,0-0.1-0.1-0.1-0.1c-0.3-0.2,0.3-0.9,0.1-2.1c-0.1-0.6,0.2-2,0.2-2.7c-0.2-0.4-0.2-2.9,0-3.7
			c0-0.2,0.3-0.7,0.2-1c0-0.6,0.2-1.5,0.4-2.3c-0.1-0.2,0.2-6.1,0.4-6.7c0.2-1.1,0.2-2.4,0.1-3.3h0.2c0.2-0.6-0.1-0.9-0.1-1.2
			c0.1-0.1,0.2-0.2,0.2-0.2c0-0.2-0.1-0.1-0.2-0.1c0,0,0.4-0.6,0.4-0.9c-0.1-0.7,0.4-1.8,0.2-2.6c-0.1-0.5,0.2-0.8,0.2-1.1
			c0-0.3-0.1-0.6-0.1-0.9c0.4-1.5,1-6.1,0.5-6.8c-0.1-0.4-0.1-0.3-0.2-0.6c-2,0-4.7,0.2-5.8,0.5c-0.4,0.1-1-0.1-1.2-0.1
			c-0.8-0.1-2.8,0-3.5,0.2c0,0-2.6-0.4-2.9-0.4c-1,0.2-3.2-0.5-4.5-0.7c-0.6-0.1-1.2,0.1-1.7,0c0,0.1,0.1,0.2,0.1,0.4
			c-0.1,0.1-0.9,0.5-1,0.6v0.7c-0.1,0.2-0.4,0.5-0.5,0.7c0,0.2,0.1,0.3,0.1,0.5c-0.3,0.6-0.5,1.1-0.7,1.8c-0.1,0.2,0.2,0.4,0.1,0.5
			c-0.2,0.3-0.4,0.5-0.5,0.7v1.1c-0.1,0-0.2,0.1-0.4,0.1c0,0.2,0.1,0.4,0.1,0.6c0,0.1-0.4,0.6-0.5,0.7c0,0.4,0.1,0.7,0.1,1.1
			c-0.1,0.2-0.4,0.5-0.2,1c0.1,0,0.2,0.1,0.2,0.1c0.3,1.3-0.9,3.3-0.5,4v0.1c-0.1,0-0.2-0.1-0.2-0.1c-0.1,0.7-0.3,1.9-0.5,2.6
			c0,0.2,0.1,0.3,0.1,0.5c0,0-0.3,0.3-0.4,0.4c-0.1,0.3,0.1,0.6,0.1,0.6c0.1,0.6-0.2,1.4-0.5,1.7c0,0.1-0.1,0.2-0.1,0.2
			c-2.6,0-5.1,0.3-7.4,1.1c-0.2,0-0.4-0.1-0.6-0.1c-0.2,0.1-0.5,0.5-0.7,0.6c-0.3,0.1-1.9,0.6-2.6,0.6v0.4c-1.2-0.3-2.8,0.8-3.8,1.2
			c-0.5,0.2-0.9,0-1.3,0.2c0,0.1-0.1,0.2-0.1,0.4c-0.3,0-0.7,0.1-1,0.1c-0.7,0.3-1.5,0.9-2.1,1.2c-0.6,0.4-1.2,0.3-1.8,0.6
			c-0.6,0.3-0.9,1-1.3,1.3c-0.5,0.4-1.1,0.4-1.3,1.1h-0.4v0.4c-0.5,0-0.4,0-0.5,0.2c-0.9,0.7-3.3,2.3-3.2,3.3
			c-0.7,0.7-2,1.4-2.3,2.4h-0.4c0,1.3-1.1,2-1.7,2.8c-0.2,0.2-0.7,1-0.6,1.1c-0.1,0.3-0.5,0.8-0.9,1c0.1,0.3,0.1,0.2,0.2,0.4
			c-0.7,0.5-0.6,1.1-1,1.9c-0.2,0.4-0.7,0.8-0.9,1.1c0,0.4-0.1,0.7-0.1,1.1c-0.1,0.3-0.5,0.8-0.6,1.1c0,0.4-0.1,0.9-0.1,1.3
			c-0.4,1.6-0.6,3-1.1,5.2c-0.3,1.4,0.2,2.9,0,4c-0.3,1.7-0.2,3-0.2,4.3c0,0.4,0.3,0.7,0.4,1c0.4,1.3-0.4,2.3,0,3.4
			c0.2,0.5,0.4,1.2,0.5,1.7c0.1,0.5,0.7,1.2,0.5,1.7c0.2,0.3,0,0.1,0.4,0.2c0.1,1.7,2.8,5,3.7,6.3c0.3,0.4,0.2,0.8,0.5,1.2
			c0.6,1,1.6,2,2.6,2.7c-0.2,0.1,1.1,1.6,1.3,1.8c2.1,1.6,4.6,3,6.9,4.4c0.6,0.4,1.3,0.4,1.9,0.7c1.5,0.9,4.2,2.6,6.2,2.7
			c0,0,0.1,0.1,0.1,0.1v0.5c2.1,0,5.5,0.6,6.7-0.2c0.2,0.6-0.2,1.1-0.1,1.6c0.7,3.2-0.4,9.2,0.4,12.9c0.2,1-0.4,2.3-0.2,3.4
			c0,0.1,0.4,0.5,0.4,0.6c0,0.2-0.2,0.6-0.2,0.7c0,0.8,0.1,1.6,0.1,2.4c0,0.3-0.1,0.8-0.1,0.9c0.2,0.7,0.2,2.5,0.4,3.4
			c0.1,0.6-0.2,1.5-0.1,1.8c0,0.2,0.2,1.2,0.2,1.3c0,0.7-0.3,1.9-0.1,3c0.3,1.5-0.4,3.4,0,5.7c0.2,0.8,0.1,2.4,0.2,3.2
			c0.1,0.4-0.2,0.8-0.1,1.1c0.3,1.8,0.1,3.8,0.1,4.9c0,1,0.5,2.6,0.5,3.5c0,1-0.3,1.9-0.1,2.8c0,0.1,0.2,0.9,0.2,1
			c-0.1,2.1-0.2,3.1,0.1,4.5c0.2,0.9-0.3,2-0.1,2.8c0.1,0.1,0.2,0.2,0.2,0.2c-0.1,0.4-0.2,1.7-0.2,2.3c0,0.2,0.2,0.5,0.2,0.6
			c0,1.8-0.2,2.3,0,3.7c0.1,0.5-0.3,1.2-0.4,1.3c0.3,0.7,0.2,1.3,0.4,2.1c0.2,1.2-1,4.2,0,5.2c-0.1,0.1,0,0-0.2,0.1
			c0.3,1,0.2,1.5,0,2.2c-0.2,0.6,0.2,0.9,0.2,1.7c-1.1,0.1-1.5,0.8-2.6,1.1c-0.4,0.1-3.2,0.5-3,1h-0.9c-0.3,0.1-0.3,0.3-0.2,0.5
			h-0.6c0,0.1-0.1,0.2-0.1,0.4c-0.2,0-0.5,0.1-0.7,0.1v0.4c-0.1,0-0.2-0.1-0.4-0.1c-0.2,0.2-0.3,0.7-0.5,0.9
			c-0.6,0.5-1.2,0.7-1.6,1.3h-0.4v0.5h-0.4c0,0.3,0,0.6-0.2,0.7c0,0-0.9,0.1-1.1,0.4c-0.4,0.5-0.5,2.1-1.1,2.1v0.5H381
			c-0.1,0.7-0.4,0.9-0.7,1.3c0.1,0.1-1.1,2.8-1.5,3.5c-0.2,0.4,0.1,0.8,0,1.1c-0.1,0.2-0.4,0.7-0.5,1c-0.1,0.3,0.1,0.5,0.1,0.6
			c-0.1,0.3-0.4,0.6-0.5,0.7c-0.1,0.3,0.2,0.3,0.1,0.5c-0.1,0.6-0.5,1-0.7,1.6c0.2,0.5-0.4,4.2-0.5,4.4c0.2,0.3-0.1,0.1,0.2,0.2
			c-0.2,0.3,0,0.1-0.4,0.1c0.2,1-0.2,0.7-0.4,1.2c-0.2,0.4,0.6,4.3,0.7,4.4c-0.2,0.2-0.1,0.1-0.4,0.2c0.2,0.3,0.3,0.2,0.5,0.4
			c0.2,0.2,0.2,1.9,0.5,2.6c0.2,0.7,1.3,2.5,1.2,3.3h0.4v0.6c0.5,0.1,0.6,0.9,1,1.3c0.1,0.1,0,0,0.1,0c0.1,0.2,0.6,1.1,0.6,1.6
			c0.9,0.2,1.4,2.5,2.6,2.8c-0.1,0.1-0.1,0.1-0.4,0.1c0.2,0.4,0.5,0.2,0.7,0.5c0.1,0.2-0.1,0.2-0.1,0.2c0.2,0.2,0.1,0.2,0.5,0.2
			c0.1,0.7,0.6,1.3,1.1,1.7c0.1,0.1,0.1,0.1,0.4,0.1c0.1,0.5,0.7,1,1.1,1.2c0.1,0,0.2-0.1,0.4-0.1c-0.6,0.1,0.6,0.7,0.6,0.7
			c0,0.1,0.1,0.2,0.1,0.4c0.2,0,0.5,0.1,0.7,0.1c0.6,0.4,1.1,1,1.6,1.5c0.3,0.1,0.1,0,0.4-0.1c0.3,0.8,2.3,1.9,3.2,2.2v0.4
			c0.8,0.1,4.5,1.4,4.9,1.8c0.4-0.1,0.3,0,0.5-0.2c0.9,0.3,1.8,1.2,2.8,1.3c0.2,0,0.5-0.1,0.7-0.1c1.8,0.8,6.8,0.5,9,0.4
			c0.9-0.1,2.4,0.1,2.9,0c0.8-0.2,2-0.6,2.8-0.9c0.2,0,0.4,0.1,0.6,0.1c0.3-0.1,1-0.5,1.3-0.6c0.5-0.1,0.3,0.4,0.6,0.2
			c0.1-0.1,0.2-0.2,0.2-0.4c0,0,1.4-0.3,1.6-0.4c0-0.1,0.1-0.2,0.1-0.4c0.3-0.2,0.7-0.1,1-0.2c0.1,0,0.1-0.3,0.2-0.4
			c0.5-0.2,1.7-0.4,1.9-0.6c0-0.1,0.1-0.2,0.1-0.4c0.3-0.1,0.5,0.1,0.9-0.1c0.7-0.4,1.3-1.2,2.3-1.5v-0.5h0.6
			c0.1-0.5,0.3-0.3,0.4-0.9c0.6-0.1,1.6-1.1,1.7-1.6h0.4c0-0.2,0.1-0.5,0.1-0.7c0.4-0.1,0.6-0.3,0.9-0.6h0.1c0-0.1-0.1-0.2-0.1-0.2
			c1.6-0.8,2.8-3.7,3.8-5c-0.1-0.2,0.4-1.5,0.6-1.9c0.3-0.6,1.1-1.3,1.2-1.9c0.3,0,0.3,0,0.5-0.1c0.2-0.3-0.3-0.4-0.1-1
			c0.1-0.4,0.2-0.6,0.4-1c0-0.2-0.2-0.5-0.1-0.7c0.1-0.2,0.4-0.5,0.5-0.7c0.1-0.4-0.2-1.6,0.1-2.4c0.2-0.7,0.5-4-0.1-4.9
			C439.3,379.6,438.9,377.2,438.9,377.2z M394.9,253.6c-0.3,1.3,0.1,3.6-0.1,4.6c0,0-0.1,0.1-0.1,0.1v1.7c0,0-0.2,0.4-0.2,0.5h-0.2
			c0,0.5,0.1,1.1,0.1,1.6c-0.2,0.9-0.3,2.4-0.5,3.4c0,0.4,0.1,0.8,0.1,1.2c-0.3,1.4,0,2.7-0.2,3.5c0,0.3,0,0.5-0.1,0.7
			c-1.3-0.1-3.4,0-4.9-0.1c0,0-0.1-0.1-0.1-0.1c0-0.8,0.1-2.9-0.2-3.4c-0.1-0.5-0.2-0.5-0.4-0.9c-1.2,0-1.8,1.5-1.1,2.3
			c0,0.3-0.2,0.6,0,0.9c-0.1,0.4-0.1,0.4-0.2,0.6c-1.2-0.3-3.1-0.8-3.9-1.6c-0.3-0.3,1-1.7,1.3-1.9c-0.1-0.7-0.3-0.8,0.1-1.3
			c-0.1-0.4-0.1-0.4-0.2-0.6c-1.6,0-1.4,1-2.1,1.9c-0.3,0.4-0.7,0.4-0.9,1c-1.3-0.1-2-0.9-2.9-1.2c0.5-1,0.7-1.9,1.6-2.4
			c-0.1-0.4-0.4-0.6-0.6-1c-0.4,0-0.6,0.1-0.9,0.2c-0.5,0.1-1.6,1.5-1.9,1.9c-1.2-0.2-1.7-1.1-2.6-1.6c0.2-1.6,1.8-2.2,2.2-3.8
			c-0.1-0.1-0.2-0.2-0.2-0.4c-1.7,0-2.7,1.5-3.4,2.6c-0.8-0.3-1.8-1.4-2.2-2.1c-0.1-0.1,0-0.1-0.1-0.4c0.8-0.4,2.1-1.8,2.2-2.6h0.4
			c0-0.2,0.1-0.5,0.1-0.7c-0.1-0.1-0.2-0.2-0.2-0.2c-1.4,0-2.5,0.8-3,1.7c-0.3,0-0.3,0-0.5-0.1c-0.5-0.2-1.1-1-1.3-1.6h-0.1
			c-0.1-0.2,0.1-0.2,0.1-0.2c0.2-0.8,1.2-1.2,1.7-1.7c0.1-0.1,0.2-0.7,0.5-1V253c-0.6-0.1-1.1-0.4-1.6,0c-0.7,0-1.1,0.6-1.2,1.1
			c-0.2-0.1-0.4-0.1-0.5-0.2c-0.6-0.4-1.7-2.5-1.7-3.5c1-0.2,1.7-0.8,2.4-1.2c0-0.3,0-0.5,0.1-0.7l-0.4-0.4c-1.3,0-1.6,0.3-2.6,0.4
			c-0.1-0.4,0-0.3-0.2-0.5c0-0.4,0-1,0.1-1.2c0.1-0.1,0.6,0.1,1-0.1c0.4-0.2,0.7-0.8,1.2-1c-0.1-0.4-0.1-0.5-0.1-0.7l0.1-0.1
			c-1-0.1-0.9-0.1-1.8,0.1c-0.2-0.2-0.7-0.3-0.9-0.5c-0.1-0.2,0.1-0.3,0-0.5v-1.7c0.7,0.2,1.9,0.3,2.4-0.1c0.2-0.2,0.3-0.3,0.4-0.6
			c0.1-0.1,0,0,0.1-0.2c-0.6-0.4-1.7-0.9-2.6-1c-0.2-0.6-0.5-1.5,0-2.1v-0.2c0.8,0,1,0.2,1.7,0.2c0.1-0.4,0.2-0.6,0.5-0.9
			c-0.1-0.7-1.4-1.5-1.9-1.7c-0.1-0.6-0.1-1.2,0-1.8c0.1,0,0.2-0.1,0.4-0.1c0.2-0.1,0.5-0.1,0.7,0.1c0.9,0,1.2-0.2,1.3-0.9
			c0.1-0.2,0.1-0.3,0.1-0.6c-1-0.2-1-0.9-1.8-1.2c0-0.4,0-0.5-0.1-0.7c0.2-0.4,0.4-0.5,0.6-0.9c0.7,0.1,1.4,0.2,1.9,0.1l0.1-0.1
			c-0.1-1-0.5-1-0.6-1.9c-0.6,0-0.6,0-0.6-0.6c-0.4-0.3,0.5-1.3,0.9-1.8c0.5,0.1,0.8,0.2,1.1,0.5c1.3-0.4,0.7-3,0.7-4
			c0.5,0,1-0.7,1.5-0.1c0.5,0,0.5-0.1,0.9-0.2v-0.9h0.2c0.1-0.2-0.1-1.2-0.1-1.7c0.5-0.5,0.5-1,1.3-1.2c0.4-0.1,0.5,0.3,1,0.5
			c0.3,0.1,0.4-0.1,0.7-0.2c0.4-1,0.4-2.2,0.9-3c0.4-0.7,1.4-0.8,1.8-1.5c0.3,0.1,0.2,0.1,0.5,0.2c-0.2,0.5-0.5,1.6-0.6,1.8
			c0.1,0.4,0.2,0.6,0.6,0.7c1.1,0.5,2.1-3.5,1.8-3.9c0.1-1.3,1-1.1,1.8-1.3c0.2,0.7-0.3,1.6,0.1,2.2c0.2,0.2,0.2,0.3,0.5,0.4
			c0.2,0.1,0.2,0,0.6,0c0.2-0.3,0.4-0.7,0.2-1c0.2-0.3,0-0.2,0.4-0.1c-0.1-0.7,0.1-0.7,0.2-1.2c0-0.4,0.1-0.8,0.1-1.2
			c0.4-0.7,1.5-0.7,2.3-0.7c0,0.7-0.5,1.4-0.1,1.9c0,0.1,0.1,0.2,0.1,0.4c1.4,0,1.2-1,1.9-1.6c0-0.7,0-0.9-0.1-1.2
			c1.1-0.9,1-0.7,2.6-1.2c0.1,0.2,0.2,0.2,0.2,0.5c0,0-0.3,1.5-0.5,1.8c0.1,0.4,0.2,0.4,0.5,0.6c0.7,0.3,2-2.4,1.8-2.9
			c0-1.5,2-1.8,3.3-1.7c-0.2,0.7-0.5,0.6-0.7,1c-0.3,0.4-0.2,1-0.5,1.5c0.1,0.3,0.2,0.2,0.2,0.6c0.3-0.1,0.4-0.1,0.6-0.2
			c0.6-0.2,1.4-1.5,1.5-2.2h0.4c0-0.3,0-0.3,0.1-0.5c0.1-0.3,0.2-0.4,0.4-0.6c1.1,0,1.4,0.3,2.2,0.5c-0.3,1.5-0.7,4-0.4,5
			c-0.3,0.4-0.9,2.6-0.5,3.3v0.1c-0.1,0-0.2-0.1-0.2-0.1c0,0.6,0.1,1.3,0,1.5l-0.4,0.4c0,0.2,0.1,1.2,0,1.7
			c-0.1,0.3-0.4,1.2-0.4,1.5c0,1.6-0.1,3.1-0.4,4.5c0,0.2,0.1,0.4,0.1,0.6c-0.1,0.6-0.6,1.9-0.6,2.8c0,0.5,0.5,1.2,0.2,2.2
			c-0.4,1.5-0.4,2.8-0.6,4c-0.2,0.8,0.3,2.2,0.1,2.9c-0.5,2-0.5,3.4-0.9,4.7v1.8c-0.1,1-0.1,1.9-0.2,2.7c0,0.3,0.1,0.6,0.1,0.9
			C395.4,248.9,395.4,251.5,394.9,253.6z M436.8,385.6h-0.4c0.2,1.1-0.3,4-1.5,4.6l0.2,0.2c-0.1,0.4-0.3,0.2-0.5,0.5
			c0,0.3-0.1,0.7-0.1,1c-0.5,1-1.6,3.5-2.8,4.4c0.1,0.2,0.1,0.2,0.1,0.5c-0.8,0.1-2.5,2.5-2.8,2.9c-0.3,0.4-0.6,0.2-0.7,0.9
			c-0.2,0-0.4,0.1-0.6,0.1c0,0.3,0,0.2,0.1,0.4c-0.7,0.6-2.3,1.7-2.7,1.8c-0.4,0.1-0.4,0.1-0.4,0.1c-0.4,0.7-0.9,0.3-1.6,0.6
			c0,0.1,0.1,0.2,0.1,0.2c-0.4,0.3-0.8,0.2-1.3,0.5c-1,0.5-0.8,0.9-2.3,0.9v0.4c-0.9-0.3-1.6,0.4-1.9,0.6c-0.3,0.2-0.6-0.2-1.1,0
			c-0.5,0.2-1.5,0.7-2.1,0.4c0,0-0.5,0-0.2,0.1l0.1,0.1c-3.9,0.3-8.3,0.9-12.4-0.4c-0.6-0.2-1.1-0.5-1.5-0.9
			c-0.4,0.2-0.7-0.3-1.1-0.2c-1.4,0.1-3.1-1-4.1-1.6c-0.2-0.1-0.4,0.2-0.5,0.1c-0.6-0.3-0.7-0.9-1.6-1v-0.4c-0.3,0-0.2,0-0.4-0.1
			c0,0-0.1-0.1-0.1-0.1h0.1c-0.2-0.3-2.2-1.4-2.4-1.3v-0.4c-0.2-0.2-0.6-0.2-0.9-0.4c-0.3-0.2-0.5-0.7-0.9-1h-0.5
			c-0.2-0.1,0-0.4-0.1-0.6c0,0-0.5,0-0.6-0.1c-0.3-0.3-0.4-0.8-0.9-1v-0.4h-0.4c-0.6-1.3-2.8-3-3-4.6h-0.4c-0.2-1.1-1.2-1.8-1.6-2.8
			c-0.2-0.5,0-0.8-0.2-1.2c-0.3-0.5-0.8-1.1-1.1-1.7c0.3-0.9-0.4-2.8-0.6-3.4c-0.2-0.7,0.2-1.1,0-1.6c0-0.1-0.4-0.5-0.4-0.6
			c0-2.2,0.6-5.3,1.3-7.5c0-0.4-0.1-0.7-0.1-1.1c0.1-0.3,0.4-0.7,0.5-1c0.3-0.8,0.1-1.3,0.4-2.1c0.5-1.7,1.6-3.4,2.4-5
			c0.3-0.5,0.2-1,0.6-1.5c0.1,0,0.2-0.1,0.4-0.1c0.3-0.5,0.5-0.9,0.9-1.3c0.2-0.3,0.7-0.4,1-0.7c0-0.2,0.1-0.3,0.1-0.5
			c0.3-0.5,1.1-1.2,1.6-1.6c0.6-0.5,2.5-1.3,3.3-1.6c0.2-0.1,0.6,0.1,0.6,0.1c0.8-0.5,1.8-1.2,3-1.2v-0.4c0.9-0.2,1.7-0.6,2.4-1
			c0.2-1.4-0.2-4.4-0.6-5.8c0.2-1.1,0-2.3,0-3.2c0-0.7,0.1-2,0.2-2.6c-0.2-0.7-0.1-2.3,0-3.4c0.2-2.2-0.8-4.1-0.2-6.6
			c0.1-0.5,0-3.7-0.1-4.3c0-0.1-0.3-0.8-0.2-0.9c0.1-0.7,0.3-4.6,0-6.2c-0.1-0.8-0.6-3.7-0.5-4.4c0.1-0.5,0.2-1.8,0.1-2.3
			c-0.1-0.3-0.3-1.5-0.2-1.8c0-0.3,0.2-1.7,0.1-2.1c-0.1-0.4-0.5-1-0.4-1.7c0.3-1.6-0.3-4.1,0.1-6.3c0.1-0.8-0.3-1.8-0.1-2.8
			c0-0.3,0.2-1.4,0.1-1.8c-0.1-0.5-0.3-1.9-0.2-2.4c0.1-0.7-0.3-2.5-0.1-3.5c0.2-0.9,0.2-2.9,0-3.9c0-0.2-0.1-2.7,0-2.9
			c0-0.1,0.3,0,0.2-0.4c-0.2-1.9-0.5-3.6-0.4-5.4c0.2-3.3,0-7.2,0.2-9.7c0-0.2-0.2-0.9-0.2-1.1c0.1-1.8,0.2-3.6,0.2-5.4
			c0.4-1.8,0.4-4.1,0.9-6c0.3-1.4-0.3-2.4,0.1-3.9c0.3-1.3,0.2-2.5,0.4-3.5c0-0.2,0.4-1,0.4-1.1c0-1.8,0.1-4.3,0.4-5.5
			c0.2-0.9-0.2-2.1-0.1-2.8c0.2-1.1,0.3-2.6,0.7-3.5v-0.9c0.1-0.4,0.3-1.4,0.5-1.8c-0.2-0.7,0.2-1.4,0-2.4c-0.2-0.8,0-3.2,0.4-4.3
			c0,0-0.3-1.3-0.2-1.5c0.2-1.3,0.4-2.7,0.4-3.7c-0.1-1.6,0.6-2.3,0.6-3.7c0-0.8-0.2-2.6,0.2-4c0.2-0.7,0.8-2.5,0.6-3.4
			c-0.2-1.2,0.2-2.7,0.4-4.1c0.1-0.4-0.3-1.3-0.1-1.7c0.1-0.2,0.4-0.1,0.4-0.5c-0.1-0.1-0.2-0.2-0.2-0.2c0.8-2,0-4.1,1.1-6.3
			c-0.4-0.9,0.3-3.4,0.4-3.9c0.2-1.4,0.5-3.5,0.9-4.9c0.1-0.5-0.1-1.1,0-1.3c0.2-0.6,0.5-0.7,0.5-1.2c0-0.9,0.8-2.1,0.5-2.7
			c0.1-0.3,0.2-0.4,0.4-0.6c0.7,0.1,0.8,0.3,1.1,0h0.1c0,0.1-0.1,0.2-0.1,0.2c1.2,0.1,3.7,0.5,4.9,0.7c0,0,2.6,0.1,2.7,0.1
			c0.1-0.1-0.1-0.4,0.1-0.2c0,0.1,0.1,0.2,0.1,0.2c0.7,0.1,4.4-0.1,4.7-0.4c0.2,0.2,0.4,0.2,0.5,0.2c1,0.1,2.9-0.5,3.7,0
			c0.4,0.1,0.3,0.2,0.6,0.4c0,2.7-0.3,4.3-0.4,5.8c0,0.3-0.2,0.2-0.2,0.4c-0.3,0.9,0.4,1.1,0.1,1.8c-0.2,0.5-0.5,0.8-0.2,1.2
			c0,0.5,0.1,0.5-0.2,0.5c0,1.8-0.5,3-0.5,4.6c-1.7,0.4-3.1,0.4-4.5,0.6c-1.7,0.3-3-0.8-3.9-0.1h-0.2c0,0.4,0.1,0.3-0.1,0.6
			c0.2,0.5,0.7,0.7,1.3,0.7c0,0,1.4,0.3,1.8,0.2c0.8-0.1,4.2,0.6,5,0c0.2,0.1,0.1,0.1,0.4,0.2c-0.1,0.5,0.1,0.7,0.1,1.2
			c-0.5,0.9-0.5,5-0.5,6.1c-0.5,1-0.6,4.3-0.9,6.1c-0.1,0.4,0.2,1.4,0.1,2.1c-0.2,1.5-0.5,4.1-0.2,5.7c0.1,0.8-0.3,1.6,0.1,2.2
			c-0.3,0.2-0.4,1.7-0.5,2.3c-1.5,0-3.1,0.5-4.4,0.2c-0.8-0.1-2.3-0.8-2.8-0.6c-0.8,0.1-0.8,0.5-1.2,0.9c0.4,1.8,4,1.5,5.5,1.7
			c0.8,0.1,2.2-0.2,2.8,0.1c0.2,0.2-0.2,1.3-0.1,1.6c0.1,0.6,0.1,1.9-0.1,2.7c-0.1,0.3-0.3,1-0.2,1.3c0,0.1-0.2,0.7-0.4,1.1
			c0.1,0.5,0.2,1.1,0.2,1.6c0,0.1-0.3,0.9-0.2,1c0.3,2.1-0.2,6.2-0.7,8.5c0,0.4,0.1,0.9,0.1,1.3c-0.4,1.5,0.1,4-0.6,5
			c-0.1,0.1-1-0.2-1.5,0c-1.1,0.4-3.1,0.2-4.1,0.2c-0.5,0-1.1-0.5-1.7-0.1c-0.4,0.1-0.3,0.3-0.6,0.5c0,0.3,0,0.4,0.1,0.6
			c0.1,0.5,0.3,0.4,0.5,0.7c1.3,0,4.4,1.1,5.5,0.4h2.1c-0.5,1.5-0.1,3.1-0.4,5c-0.1,1-0.2,2.8-0.2,3.9c0,0.4,0.2,1.4,0.1,1.8
			c-0.2,1.4-0.4,2.5-0.1,3.9c0,0.3-0.1,0.6-0.1,1c-0.1,1.4-0.2,2.6,0,3.8c0.3,1.4-0.4,5.7,0.2,6.8v0.1c-0.4,0-1.3-0.5-1.7-0.4
			c0,0.1-0.1,0.2-0.1,0.4c-0.1,0-2,0.3-2.4,0.4c-1.6,0.2-3.5-0.4-4.7,0.1c-0.1,0.5-0.1,0.9-0.1,1.1c0.9,0.7,7.5,1.3,8.5,0.4
			c0.3,0.1,0.2,0.1,0.5,0.2c-0.5,1.7,0.6,4,0,6.5c-0.2,1,0.2,2.7,0.1,3.5c0,0.3-0.5,0.9-0.5,1c0.6,1.3,1,7,0.7,8.5
			c-0.1,0.8,0.2,1.8,0.2,2.3c0.1,0.8-0.3,1.7-0.4,2.6c-0.1,0.7,0.3,1.4-0.1,2.1c-0.2,0.4-4.8,1.3-5.7,1c-0.8-0.2-2.4-0.9-2.9-0.5
			c-0.3,0.2-0.4,0.4-0.6,0.6c0.1,0.6,0.2,0.6,0.2,1c0.9,0.3,1.7,0.6,2.6,0.9c1.7,0.4,5.9,0.1,6.5-0.4h0.1c-0.5,3.9-0.4,9.4-0.4,12.9
			h-0.4c0.5,1.3,0.1,2.9,0.2,4.7c0.1,0.9-0.3,1.6,0,1.9v0.4c-0.5,0.1-1.4,0.1-1.9,0.4c-0.3,0.1-0.8,0.5-1.2,0.6
			c-0.9,0.2-3.7-0.3-4-0.6c-0.6,0.1-0.7,0.3-1.2,0.5c0,0.3,0,0.5-0.1,0.7c0.2,0.3,0.4,0.6,0.6,0.9c1.6,0.7,5.9,1.3,7.4,0.2h0.4
			c0,0,0,0.3,0,0.4c0.2,0.4,0,2.4-0.1,3.2c0,0.4,0.1,0.9,0.1,1.3c-0.1,0.6,0,1.6,0.1,2.4c0.1,0.5-0.2,1.2-0.2,1.6
			c0.4,0.7,0.5,3.8,0.2,5.1c-0.1,0.5,0.4,3,0.2,3.3c0.6,1.8,3.1,2,4.6,2.8c0.3,0.2,0.6,0.7,0.9,0.9c0.3,0,0.6,0.1,0.9,0.1
			c0.4,0.3,0.3,0.7,1.1,0.9v0.4c1.1,0.1,1.3,1,2.3,1.2v0.4c1.6,0.8,2.7,2.3,3.8,3.7c0.2,0.3,1,1.5,1,1.6c0.2,0.3,0,0.1,0.4,0.2
			c0.1,0.7,0.5,1.3,1,1.6v0.5h0.4c0,0.2-0.1,0.5-0.1,0.5c0.2,0.1,0.3,0.2,0.5,0.2c0,0.2,0.1,0.4,0.1,0.6c0.1,0.1,0.4,0.2,0.5,0.4
			c0.2,0.4,0.4,1.3,0.5,1.6v1h0.2c0.3,0.4,0.3,0.5,0.4,1.1c-0.1-0.1,0,0-0.1-0.2h-0.4c0.2,0.3,0.4,0.4,0.7,0.6c0,1.8,0.7,2.8,1,4
			c0.1,0.3-0.2,0.7-0.1,1C436.9,381.7,436.9,383.2,436.8,385.6z M415.8,202.2c-0.2-0.1-0.1,0-0.2-0.1
			C415.8,202.2,415.7,202.1,415.8,202.2z M383.3,203.5c0.1,0.2,0,0,0,0.2c0.5-0.1,1.2-0.6,1.6-0.4c0.3-0.2,0.1,0,0.2-0.4
			c0.2,0.1,0.1,0,0.1,0.2c0.4-0.1,0.7-0.5,1-0.6c0.3,0,0.6,0.1,0.9,0.1c0.2-0.1,0.7-0.6,1-0.6c0.1,0,0.3,0.3,0.6,0.1
			c1.1-0.5,2.5-1.4,3.7-1.6c0.1-2-0.7-3-1.5-4.5v-0.5c-0.2,0-0.3-0.1-0.5-0.1c-0.2-0.3-0.4-1-0.5-1.3c-0.8-0.2-0.7-1.3-1.1-2.2
			c-0.3-0.6-0.9-1.1-1.2-1.6c0-0.1,0.1-0.2,0.1-0.2c0,0-0.4-0.9-0.5-1c-0.1,0-0.2-0.1-0.4-0.1c0-0.2-0.1-0.5-0.1-0.7
			c-0.4-0.5-0.9-0.8-1.1-1.5c-0.5,0-0.3,0.1-0.6-0.1c-1.5,0.5-0.6,2-1.1,2.8c-0.1,0-0.2,0.1-0.4,0.1c-0.3,0.6,0,1.8-0.4,2.8
			c-1.2,3.3-0.6,6.7-1.7,10.6c0.2,0.2,0.4,0.3,0.6,0.5C382.2,203.7,383.1,203.7,383.3,203.5z M383.8,195c0.1-0.1,0.3-0.2,0.4-0.2
			c0.1-0.2,0-1.8,0.2-2.7c0.2-0.6,0.6-1.2,0.7-1.8c1.1,0,1.7,2,2.1,2.8c1.1,2.4,3.2,4.2,2.8,6.9h-0.4c-0.1-0.6-0.7-0.9-1-1.3
			c-0.9,0-1.3,0-1.5,0.6c-0.1,0.3,0.4,1,0.5,1.6c-0.4,0.1-0.7,0.1-0.9,0.2c-0.3,0-0.4-0.1-0.6-0.1c0-0.6-0.1-1.6,0.2-2.2v-0.2
			c-0.3-0.1-0.6-0.1-0.7-0.1c-0.8,0.1-0.9,0.7-1.5,1.1c0.1,0.5,0.1,0.8,0.2,1.2c-0.3,0.2-0.3,0.1-0.4,0.5h-0.1
			c-0.4-1.4-0.5-3.3-0.1-5C384.1,195.7,384.1,195.2,383.8,195z M358.9,204.6h0.4c0.2,1.3,0.9,2.2,1.2,2.9c0,0.2-0.1,0.5-0.1,0.7
			c0.1,0.2,0.4,0.5,0.5,0.7c0,0.1-0.2,0.5-0.1,0.7c0.6,2,1.4,3.8,2.6,5.2c0.8-0.1,1-0.4,1.7-0.5c0.3-1,1.4-1.2,2.2-1.8
			c0.3-0.2,1-1.2,1.2-1.3c0.2,0,0.3,0.1,0.5,0.1c0.3-0.1,0.3-0.7,0.6-0.9h0.6c0.3-0.1,0.6-0.5,0.9-0.7c0.1,0,0.2,0.1,0.4,0.1
			c0.3-0.2,0.4-0.6,0.9-0.7v-0.6h0.4l0.1-0.1V208h0.4c0-0.4,0.2-1,0.2-1c-0.1-0.5-3-1.4-3.5-1.8c-1.7-1.1-3.4-2.6-4.7-4.1
			c-0.6-0.7-2.7-1.9-3.5-2.4c-0.6-0.4-3.4-2.3-4.3-1.7c-0.3,0.1-0.4,0.3-0.6,0.5c0.2,0.6,0.4,2.5,0.7,2.9
			C357.8,201.2,358.9,203.6,358.9,204.6z M361.8,201c2.9,1.9,5.2,5.3,8.3,6.7c0,1.2-0.5,1.3-1.5,1.7c-0.4-1-1-1.2-1.7-1.8
			c-0.8,0-1,0.3-1.5,0.6c0.1,0.8,1.3,1.7,1.8,2.1v0.2c-0.2,0.2-0.3,0.2-0.4,0.5c-1.2-0.4-2.1-1.3-2.7-2.3c-0.5,0-0.9-0.1-1.1,0.2
			c-0.8-0.2-0.9-1.9-1.3-2.8c-0.8-1.6-2.4-4.4-2.3-6.6C360.4,199.8,361.1,200.5,361.8,201z M432.3,378.8c-0.2-1-0.4-3.9-1-5H431
			c0-0.3-0.1-0.6-0.1-1l-0.6-0.5c-0.4-0.6-0.1-1.2-0.4-1.6c-0.4-0.5-1-1.2-1.3-1.7c-0.7-1.3-1.6-3.8-2.8-4.4v-0.4
			c-0.5-0.1-0.7-0.9-1.2-1.3h-0.4c-0.3-0.2-0.5-0.8-0.7-1H423c-0.3-0.3-0.6-0.6-0.9-1c-0.4-0.2-0.7-0.2-1.1-0.5
			c0-0.1-0.1-0.2-0.1-0.4h-0.6c-1.3-0.8-2.6-1.9-4.1-2.4c-1-0.4-2.4-0.2-3.4-0.7c-0.4-0.2-0.5-0.6-1-0.7c0.2-0.5,0-1.7-0.1-2.3
			c0.1-0.3,0.1-1.5,0-1.9c-0.1-1,0.6-2.3,0.1-3.7c-0.2-0.6-0.4-1.4-0.5-2.1c-0.1-0.5,0.1-1.2,0.1-1.5c0.1-0.6-0.2-3.4-0.6-4
			c-0.1-0.9-2.6-2.9-4-1.9c-0.4,0-0.9,0-1.1-0.1c-0.3-0.4-0.8-3.7-0.5-4.3c0-0.6,0.1-0.7,0.2-1.1c1.8,0,3,0.3,4.6,0.1
			c0.1-0.3,0.2-0.4,0.5-0.6c0-0.8-0.3-2.3-0.1-3.3c0-0.3,0.2-1.2,0.1-1.5c-0.2-1.2-0.4-4.6-0.2-6.3c0.1-1.2-0.5-2.6,0.1-3.5v-1.1
			c-0.4-0.7-3.4-1.1-4.5-1.2c-0.1-0.9-0.8-3.3-0.2-4.3c0-3.5,3.3-0.7,4.7-1.9c0.3-0.1,0.4-0.3,0.6-0.5c0-0.5-0.3-1.4-0.1-1.9
			c0-0.1,0.2-0.2,0.2-0.4c0.1-0.6-0.2-0.6-0.1-1.2c0.3-1.6-0.3-3.7-0.1-5.1c0.1-0.9,0.4-2.6,0.2-3.3c0-0.1-0.3,0-0.2-0.4
			c0.4-0.4,0.2-4.2,0.1-4.9c-0.1-1,0.7-1.8,0.4-2.9c-0.1-0.5-0.4-0.8-0.5-1.5c-0.5-0.1-2.6-0.2-3-0.5c-3.1,0-1.5-2.6-2.3-4
			c0-0.8-0.1-1.5,0.4-1.8c0.8-0.5,4.4,0.5,5.5-0.5c0.9-1.3,0-3.5,0.4-5.7c0.1-0.6-0.2-1.9-0.1-2.7c0.2-1.5,0-4.1,0.1-5.8
			c0-0.5-0.1-1.1-0.1-1.6c0.2-0.9,0.2-1.2,0.4-1.9c0.2-0.9-0.3-2.3,0-3.2c0-0.4,0-0.6-0.1-0.9c-1.4-0.6-3.4,0.1-5-0.7
			c0-2.4,0.1-3.4,0.2-5.5c1.7-0.3,4.7,0,6.1-0.6c0.4-1.6-0.1-3.2,0.1-4.3c0.2-1.4,0.4-3.2,0.6-4.3c0-0.4-0.1-0.7-0.1-1.1
			c0-1.6-0.1-3.1,0-4.6c0.1-1.7,0.7-5.4,0.4-6c-0.8-1-3.1,0-4.3-0.1v-0.1c-0.5-0.7,0.1-1,0-1.8c-0.1-0.9,0.2-2,0.4-3
			c0.1,0,0.2-0.1,0.4-0.1c0.6-0.3,2.9,0.2,3.8-0.4c0.5,0,0.6-0.1,1-0.2v-0.2h-0.2c0.2-0.2,0.4-0.6,0.5-0.9c0.1-0.9-0.3-2.4,0-3.3
			c0-0.1,0.3-0.6,0.4-0.7c0.4-1.6-0.1-3.4,0.2-5c0.2-0.9,0.2-3.5,0.5-3.9v-1.6c-0.3-0.5-1-0.3-1.5-0.4c-1.1-0.2-3.4-0.2-4.7,0
			c-1.1,0.2-2.4-0.1-2.8,0c-1.1,0.3-2.8-0.3-3.4,0.1c-1.1,0.9-0.5,1.9-0.9,3.8c-0.1,0.5,0.1,1.2,0,1.8c-0.1,0.6-0.3,1.3-0.4,1.9v2.4
			c-0.1,0.2-0.3,0.7-0.4,0.9c-0.2,0.7,0.2,1.3,0.1,1.6c-0.9,3.9-1.1,8.1-1.5,12.3c0,0.2,0.3,0.1,0.2,0.5c-0.1,0.6-0.3,2-0.5,2.6
			c0.1,0.2,0.2,0.5,0.2,0.7c-0.1,0.6-0.3,1.6-0.4,2.1c-0.2,0.8,0.1,2.3,0,3c-1.1,6.2-0.5,11.5-1.5,18.5c-0.1,0.5,0.3,1.2,0.2,1.7
			c-0.2,1.5-0.3,4-0.5,5.8c-0.2,1.9,0.3,3.2,0,5.4c0,0-0.2,0.7-0.1,0.9h0.2v0.2h-0.2c-0.3,0.7,0.1,1.7,0.2,1.9
			c-0.4,0.3,0,2.2-0.1,2.7c-0.1,0.1-0.2,0.2-0.2,0.2v0.1c0.3,0.5,0.6,2.1,0.5,2.7c-0.1,0.5-0.2,2.1-0.1,2.9c0.1,0.6,0.4,1.4,0.2,2.2
			c-0.3,1.5,0.1,7.2,0.2,9c0.1,1.5,0,3.2-0.2,4c-0.2,0.6,0.2,1.5,0.1,1.9c-0.1,1-0.4,3.8-0.6,5.2c0,0,0.2,1.8,0.1,2.3
			c0,0.2-0.4,0.6-0.4,0.9c0.5,1-0.1,2.1,0,3.4c0,0.6,0,4.4-0.5,5.6c-0.1,0.3,0.3,1,0.4,1.3c-0.1,0.1-0.3,2.7-0.4,3.2
			c0,0.1,0.2,0.6,0.2,0.6c0,0.4-0.1,0.7-0.1,1.1c0.1,0.8,0.1,1.6,0.2,2.3c0.2,1.2,0,2,0,3.2c0,1.1,0.2,2.8,0.4,4.4
			c0.1,0.5-0.2,1.1,0,1.8c0.1,0.6,0.3,1.5,0.5,2.6c-0.1,0.6-0.2,1.3-0.2,1.9h0.2c0,0.3-0.1,0.6-0.1,0.9c0.1,0.3,0.4,0.9,0.4,1.1
			c-0.1,0.4-0.2,0.7-0.2,1.1c0.2,0.8,0.4,2,0.2,3.2c-0.1,0.8,0.8,1.6,0.6,2.4c-0.1,0.3-0.4,0.5-0.5,1.2h0.5c0,0.7-0.1,1.6,0,1.9
			c-0.3,0.2-0.6,0.5-0.9,0.7c-0.7,0.6-1.8,0-2.6,0.4c-0.3,0.1-0.3,0.3-0.7,0.4v0.4c-1.3-0.2-2.6,1.7-3.9,1.9v0.4c-1.4,0-2,1-2.7,1.7
			c-0.1,0.1-0.1,0.1-0.1,0.4c-0.4,0.1-0.4,0.2-0.7,0.4v0.5h-0.4c0,0.2-0.1,0.5-0.1,0.7h-0.4c-0.1,0.9-1.9,2.8-2.4,3.9
			c-0.2,0.5,0,0.9-0.2,1.3c-0.6,1.3-1.8,3.6-1.3,5c-0.1,0-0.2,0.1-0.4,0.1c-0.3,0.5,0.1,0.8,0,1.2c-0.2,1-0.5,2.1-0.7,2.9
			c0.1,0.1,0.2,0.2,0.2,0.2c0.2,0.8-0.4,2.7-0.1,3.3h0.2c0,0.1-0.2,0.8-0.2,1c0,0.6,0.3,1.5,0.1,2.1h-0.2v0.2c0,0.2,0.4,1,0.5,1.2
			c0,0.2-0.1,0.5-0.1,0.7c0.1,0.1,0.5,0.3,0.6,0.5c0,0.2,0.1,0.5,0.1,0.7c0,0,0.6,0.4,0.6,0.5c0.5,0.6,0.8,1.7,1.2,2.4
			c0.4,0.8,1.3,1.1,1.3,2.3c0.4,0.1,0.4,0.1,0.5,0.5h0.5c0.3,1.3,1.9,1.5,2.3,2.7h0.4v0.4c0.2,0,0.2,0,0.4,0.1
			c0.5,0.2,0.8,1,1.7,1.1c0,0.3,0,0.2,0.1,0.4c0.2,0.3,0.1,0.2,0.4,0.1c0.1,0.1,0.1,0.1,0.1,0.4c0.8,0.2,3.3,1.8,3.7,1.7
			c0.1,0.1,0.1,0.1,0.1,0.4c2.1,0.1,3.6,1.9,5.7,1.7v0.4h0.1c0.5,0.4,2.1,0.6,2.6,0.6c0.1,0,0.2-0.2,0.5-0.1
			c0.2,0.1,1.7,0.4,2.3,0.5c0.4,0,0.1-0.3,0.5-0.2c3.2,0.5,5.5-0.2,8.2-1.3c0.3,0,0.6,0.1,0.9,0.1c0.2-0.1,0.4-0.4,0.5-0.5
			c0.4-0.3,1-0.1,1.3-0.4c0.2-0.2,0.5-0.6,0.7-0.7c0.1,0,0.3,0.2,0.5,0.1c0-0.2,0.1-0.3,0.1-0.5c0.2,0,0.5-0.1,0.7-0.1v-0.4
			c0.2,0,0.3,0.1,0.5,0.1c0.4-0.2,0.8-0.7,1.3-0.9v-0.4c1.3-0.3,1.7-2.1,2.4-2.9c0.2,0,0.3-0.1,0.5-0.1c0.2-0.2,0.5-0.7,0.7-1
			c0.1-0.4,0.2-0.8,0.4-1.2c0.2-0.1,0.4-0.2,0.6-0.4c0.3-0.4,0.2-0.9,0.5-1.2c0.6-0.8,1.1-1.5,1.6-2.3c0-0.3,0.1-0.6,0.1-1
			c0.1-0.3,0.5-0.6,0.6-0.9v-0.7c0.1-0.4,0.5-1.1,0.6-1.6c0-0.1-0.1-0.2-0.1-0.4c0.4-1.5,0.9-2.8,0.4-4.1
			C431.7,380.5,432.4,379.6,432.3,378.8z M428.1,384.6c-0.2,0.7-0.4,1.4-0.4,2.7h-0.4v0.4c-0.1,0-0.2-0.1-0.2-0.1
			c0.1,0.9,0.2,2.1-0.5,2.4c0.2,0.3,0,0.1,0.4,0.2c-0.1,0.3-0.2,0.5-0.1,0.7c-0.1,0.3,0,0-0.2,0.2c-0.2,0.2-0.1,0.1-0.1,0.2
			c-0.1,0.3-1.1,1.7-1.5,2.2v0.1H425c0.1-2.9,1.7-5.3,1.3-7.5c-0.1-1,0.3-1.8,0-2.4c0-0.6-0.1-0.7,0.2-0.7c-0.4-1.1-0.5-3.1-0.9-4.5
			c0-0.2,0.1-0.5,0.1-0.7h-0.2c0.3-0.5-0.4-2-0.6-2.4c0-0.4-0.1-0.9-0.1-1.3c-0.3-0.6-0.8-1.4-1-2.1c0-0.4-0.1-0.7-0.1-1.1
			c-1.1-2.2-2.5-4.8-4.3-6.7V364c-0.1,0-0.2,0.1-0.2,0.1c-0.5-0.9-2-2.7-2.8-3.3v-0.1c0.4,0.2,0.8,0.5,1.1,0.7
			c0.1,0,0.2-0.1,0.4-0.1v0.2c0.3,0.3,0.8,0.6,1.2,0.7v0.4c0.4,0.1,0.4,0.1,0.7,0.2v0.4c1.3,0.3,3.9,4,4.3,5.4h0.4
			c0,0.1,0.3,1.5,0.4,1.6c0.1,0.3,0.7,0.4,0.9,0.7c0,0.1-0.1,0.2-0.1,0.4c0.1,0.1,0.2,0.2,0.4,0.2c0.2,0.5,0,0.8,0.1,1.1
			c0.1,0.2,0.4,0.7,0.5,0.9c0,0.2-0.1,0.3-0.1,0.5h0.2c0.3,0.6,0,1.6,0.1,2.1c0.1,0.2,0.4,0.9,0.5,1.1c0.3,1.1-0.1,1.9,0.6,2.8
			c-0.1,0.1,0,1.9,0,2.1C428,382.6,428.3,383.9,428.1,384.6z M336.6,228c1,0.6,2.2,1.4,3.3,1.9c1,0.5,2,0.6,3,1.1
			c1.8,1,3.8,2.2,5.7,3c0.7,0.3,4.8,1.4,5.4,1.1c0.7-0.1,0.6-0.4,1.1-0.6c-0.3-0.8,0.3-1.7,0-2.3c0.1-0.1,0.1-0.1,0.4-0.1
			c0-2.5,0.8-5.5,1.9-7.1c-0.3-0.5,0.1-0.6,0.2-0.9c0-0.1-0.1-0.2-0.1-0.4c0.6-1.2,1.2-0.9,1.2-2.6c-1.1-0.1-1.4,0.2-1.9,0.4
			c-0.6,0.2-1.3-0.1-1.6,0c-0.8,0.2-1.4,0.3-1.9,0.5c-0.8,0.2-1.2-0.2-1.8,0c-1.5,0.5-4.1,0.6-5.5,1.1c-0.9,0.3-2.7,0.1-3.2,0.4
			c-0.5,0.3-1.3,0.6-2.1,0.7c-0.3,0-0.6-0.1-0.9-0.1c-0.2,0-0.8,0.4-1.1,0.4c-0.2,0-0.3-0.2-0.7-0.1c-0.9,0.3-2.6,0.8-3.3,0.4
			c-0.7,0.1-0.8,0.3-1.2,0.6C333.6,227,335.5,227.4,336.6,228z M337.4,226.4c0.6,0.1,0.6-0.1,1-0.2c0.4-0.1,1.2,0.3,1.8,0
			c0.1,0,0.9-0.5,1-0.5c0.6-0.2,1.3,0.2,2.3-0.1c0-0.1,0.1-0.2,0.1-0.2h0.6c0-0.1,0.1-0.2,0.1-0.4c0.2-0.1,0.6,0.2,1,0.1
			c1.2-0.3,2.4-0.5,3.7-0.5v-0.4c1.5,0.3,4.9-0.7,5.8-0.1h0.7c-0.1,0.5-0.2,1-0.5,1.3c-0.4,0.3-0.7,0.1-1.2,0.2
			c-0.2,0.1-0.5,0.4-0.7,0.5c-0.9-0.3-1.8-0.1-2.7,0l-0.1,0.1c0,0.9,0.1,0.9,0.5,1.3c1.1,0,2.3,0.3,3.3-0.4c0.3,0.2,0.1-0.1,0.2,0.2
			c0.2,0.5-0.5,1.4-0.5,1.9c-0.8,0.3-2.3,0.1-3,0.6c-0.8,0-1,0.2-1.5,0.5c0.1,0.3,0.1,0.4,0.2,0.6c0.6,0.8,3.1,0.4,3.5,0.1h0.2
			c0,0.9-0.2,0.6-0.5,1.1c0,0.2,0.1,0.3,0.1,0.5c-0.7,1.1-2.8-0.6-3.8-0.5c-0.7,0.1-2.3-1.2-3-1.6c-0.6-0.4-1.1-0.3-1.8-0.6
			c-0.3-0.2-0.8-0.7-1.1-0.9c-0.7-0.4-1.4-0.3-2.1-0.6c-1.2-0.6-2.5-1.2-3.8-1.8L337.4,226.4L337.4,226.4z M322.9,248.6v0.2
			c-0.4,0.3-0.8,0.3-1.2,0.6c-0.4,0.2-0.5,0.8-0.9,1.1c-0.2,0.1-0.5,0.1-0.6,0.2c-0.1,0.2,0,0.5,0,0.5h-0.4
			c-0.6,0.4-1.7,2.3-1.8,2.8c0,0.2,0.1,0.5,0.1,0.7c-0.1,0.2-0.6,0.6-0.5,1c0.1,0.3,0.7,1.9,0.7,2.2c2.1,1.8,4,0.4,5.5-0.9
			c0.5,0.3,2.7-2.5,2.7-2.6c-0.1-0.1,1.3-1.2,1.5-1.6c0.2-0.4-0.1-0.5,0-0.9c0.3,0.6,1.1-1.3,1.2-1.3c0.2-0.2,0.5-0.1,0.7-0.2
			c0.2-0.1,0.5-0.6,0.7-0.7c0.7-0.3,1.1,0.2,1.7,0c0.2-0.1,0.2-0.2,0.6-0.2c0.1-0.7,0.3-1.3,0.2-2.2c-0.6-0.1-1.5-0.4-1.9-0.5
			C329.9,246.6,324,247.8,322.9,248.6z M323.8,250.9c-0.4,0.3-0.7,0.8-0.7,1.1c-0.3,0.3-0.7,0.4-1,0.7c-0.7,0.9-1.2,2.5-1.9,3.3
			c-0.1,0.1,0,0-0.2,0.1c-0.1-0.1-0.2-0.2-0.2-0.2c-0.1-0.2,0.1-1.2-0.1-1.6v-0.1c0.1,0,0.2,0.1,0.2,0.1c0-0.3-0.1-0.3-0.1-0.5
			c0.9-0.5,1.2-1.7,1.9-2.4c0.5-0.5,1.3-0.8,1.7-1.3h0.4v-0.4c1.3-0.1,1.8-0.6,3.2-0.6C325.9,249.8,324.8,250.2,323.8,250.9z
			 M358.2,260.4c0.5-0.9-0.2-2-0.7-2.9c-0.7-1.2-1.6-2-2.2-3.3c-0.3-0.6,0-1.2-0.1-1.7c-0.1-0.7-0.4-2.5-0.7-3.2v-0.9
			c-0.2-0.2-0.4-0.4-0.6-0.6c-0.5,0-0.6,0-0.9,0c-1,1.5-1.2,1-2.6,1.8l-0.9,0.9c-0.2,0-0.5,0.1-0.7,0.1c-0.3,0.2-0.5,0.8-0.9,1
			c-1.3,0.8-2.8,1.2-4.1,2.1c-0.2,0.1-0.4,0.5-0.6,0.6c-0.2,0-0.5,0.1-0.7,0.1c-0.6,0.4-1.1,1.1-1.7,1.5c-0.2,0-0.5,0.1-0.7,0.1
			c-0.7,0.3-1.6,0.9-2.3,1.3c0,0.1-0.1,0.2-0.1,0.4h-0.6c-0.3,0.2-0.5,0.6-0.7,0.9c-0.3,0.3-0.7,0.3-1.1,0.5
			c-0.4,0.3-0.8,0.8-1.2,1.1c0,0.2-0.1,0.5-0.1,0.7c1.3,1.2,3.7,1.2,5.5,1.8h1.9c3.2,0.8,8.3-0.2,11.4-0.6c0.4,0,0.8,0.1,1.2,0.1
			C355.9,261.7,357.2,261.5,358.2,260.4z M352.6,260.1c-2.2,0.4-7.3,1.2-9.6,0.6c-1.5-0.4-3.6,0.3-4.7-0.5c-0.5,0-0.5-0.1-0.9-0.2
			l0.1-0.1c0.6-1.4,2.8-1.9,4-2.7c2.3-1.5,5-2.9,7.2-4.5c0.9-0.7,2.4-1,3.2-1.7c0.7,0,0.6,0.2,1.1,0.4c0,0.4,0.1,0.3,0,0.5
			c0,0.1-0.1,0.2-0.1,0.4c-0.5-0.3-0.9,0.6-1.5,0.9c-0.4,0.1-0.7,0-1,0.1c-0.4,0.2-0.3,0.5-0.9,0.6c0,0.9,0.3,0.9,0.6,1.5
			c1.4,0,1.7-0.7,2.7-1.1c0.2-0.1,0.2,0,0.4,0.1c0.2,0.3,0.3,0.7,0.4,1.2h0.4c-0.1,0.4-0.3,0.5,0.1,0.7c-0.3,0.3-1.3,1-1.6,1.1
			c-0.6,0.3-0.9,0-1.3,0.4c-0.3,0.1-0.2,0.2-0.5,0.4c0.1,0.6,0.3,0.7,0.5,1.1c1.6,0,2.6-0.4,3.4-1.2c0.6,0,0.8,0.1,1,0.6
			c0.1,0.2,0,0.1,0.1,0.4c0,0.3,0,0.3-0.1,0.5C354.8,260,353.8,259.9,352.6,260.1z M367.7,277.8h0.5c0.2-1,3-3.2,3.9-3.5
			c-0.1-0.2,0-0.1-0.1-0.2c-0.1-1.1-1.3-1.7-2.2-1.9c-0.2,0-0.3,0.1-0.5,0.1c-0.5-0.3-0.9-1-1.3-1.3c-1.1-0.8-2.3-1.2-3.3-2.1
			c-0.3-0.3-0.5-0.8-0.9-1c-0.6-0.3-1.1,0.1-1.5-0.2c-1.4,0.1-1,1-1.5,1.9c-0.1,0-0.2,0.1-0.4,0.1c-0.5,0.7-0.7,2.5-1.1,3.4
			c-0.1,0.2-0.5,0.5-0.6,0.6c0,0-0.1,1.1-0.2,1.5c-0.4,0.9-1.2,1.7-1.2,2.9c-0.7,0.2-0.9,2.8-1.3,3.8c-0.1,0.2-0.4,0.7-0.5,1
			c0,0.1,0.1,0.2,0.1,0.2c0,0-0.6,0.5-0.6,0.5c0,0.2,0.1,0.5,0.1,0.7c-0.1,0.2-0.6,0.6-0.7,0.9c0,0.2,0.1,0.3,0.1,0.5
			c-0.1,0.2-0.5,0.5-0.6,0.7c-0.4,1-0.4,2.2-0.9,2.8c0.1,1,0.6,1,1,1.6c1-0.1,1.1-0.6,1.9-0.7v-0.4c1.7-0.8,2.6-2.8,3.9-4
			c0.7-0.7,1.5-1,1.7-1.9c0.8-0.2,1.1-1,1.7-1.5c1.3-1,2.3-2.1,3.7-3.3c0.1-0.1,0,0,0-0.1C367.3,278.3,367.7,278.3,367.7,277.8z
			 M366.6,275.8v0.5c-0.2,0.4-1,1.4-1.5,1.7h-0.4c-0.4,0.3-0.9,1.4-1.3,1.8c-0.2,0.2-0.6,0.2-0.7,0.4v0.4c-0.3,0.4-1,0.4-1.3,0.7
			c-1.1,1.3-2.1,2.7-3.5,3.7v0.4c-0.7,0.1-0.9,0.8-1.5,1.1c-0.1,0.2,0,0.1-0.1,0.2v-0.2c-0.3-0.6,1.3-3.2,1.5-4c0,0,0.1-1.3,0.4-1.7
			c0.1,0,0.2-0.1,0.4-0.1c0,0,0.2-2,0.4-2.2c0.1,0,0.2-0.1,0.4-0.1c0,0-0.1-0.4,0-0.6c0.3-0.6,0.9-1.2,1.1-1.8
			c0.1-0.3-0.1-0.7,0.1-1.2c0.2-0.5,0.8-1.1,1.1-1.7c0.5-1.1,0.5-2.2,1.2-3l0.1-0.1c0.2,0.3,0.4,0.5,0.7,0.6
			c-0.1,0.1-0.4,0.2-0.6,0.2c-0.2,0.4-0.3,1-0.5,1.3c0,0.1,0.1,0.2,0.1,0.4c-0.4,0.7-0.8,0.9-0.2,1.8c0.2,0.1,0.1,0,0.2,0.1
			c1.5-0.1,1.3-1.9,2.4-2.4v-0.1c0.3,0.2,0.1-0.1,0.2,0.2c0.3,0.6-0.6,1.8-1.2,2.2c0.1,0.6,0.2,1,0.6,1.2c0.1,0.1,0.5,0.2,0.7,0
			c0.4-0.2,1.4-1.7,1.6-2.2c0.9,0.1,0.9,0.5,1.3,1C368.1,274.6,367,275.9,366.6,275.8z M376.6,296.2c0.1,0.4,0.3,0.7,0.5,1
			c-0.2,0.8-0.5,2.2-0.1,2.9h0.1c0.3,0.3,1.4,1,1.8,1.3c1.9-0.1,1.9-1.5,2.6-2.8c0.1-0.2,0.6-0.6,0.7-0.7c0.3-0.5,0.2-1.1,0.5-1.6
			c0.3-0.4,0.9-0.8,1.1-1.2c0.6-1,0.7-2.2,1.3-3.2c0.8-1.3,2.2-2.5,2.7-4.1h0.4c0.2-1.2,0.7-1.6,0.9-2.6h0.4
			c0.2-1.2,2.4-3.4,1.6-4.3c-0.1-1.8-1.9-1.5-3.4-1.9c-1.1-0.3-2.2-0.7-3.2-1.1c-0.5-0.1-1-0.2-1.5-0.2c-0.5-0.2-1.2-0.8-1.7-1
			c-0.8-0.3-1.3,0.3-1.6,0.5c0,1.5-0.2,1.5-0.5,2.4c0,0.3,0.1,0.6,0.1,0.9c-0.1,0.5-0.3,1.1-0.4,1.5c-0.2,1,0,2.1-0.2,3.2
			c-0.1,0.3,0.1,0.5,0.1,0.6c-0.4,1.3-0.7,3.1-1,4.5c0,0.2,0.1,0.3,0.1,0.5c-0.4,1.7-1,3.4-1,5.5H376.6z M379.1,292.6
			c0.7-2,0.9-4.6,1.5-7.1c0.5-2.4,0-4.6,0.9-6.3c0.7,0,0.9,0.2,1.5,0.4c0,1.1-0.2,3.2-0.5,3.7c0.2,0.4,0.4,0.4,0.6,0.7
			c2.1,0,1.3-2.4,1.7-3c0.1-0.4-0.1-0.2,0.2-0.4v-0.1c0.2-0.1,0.2,0.1,0.2,0.1c0.3,0,0.5,0,0.7,0.1c-0.1,0.3-0.8,1.6-1,1.8
			c0.4,0.4,0.8,0.6,1.6,0.6c0.4-0.4,0.9-0.7,1.2-1.1c0,0,0.1-0.1,0.1-0.1h-0.1c0,0,0-0.5-0.1-0.2c0,0-0.1,0.1-0.1,0.1v-0.6
			c0.4,0,0.6,0.1,0.9,0.2c0.4,0.1,0.3-0.1,0.5,0.2c0.4,0.7-0.7,1.6-1.1,2.2c-0.4,0.6-0.4,1.3-0.7,1.9c-0.2,0.4-0.8,0.9-1,1.3
			c-0.3,0.6-0.3,1.3-0.7,1.8c-0.9,1.2-2,2.5-2.8,3.9c-0.7,1.4-1.9,4.4-3,5.2v0.1h-0.2C379.2,296.7,378.7,293.8,379.1,292.6z
			 M331.6,284.4c-0.9,0.6-2.3,0.5-3.4,1c-1.2,0.4-3.2,1.6-4.1,2.4c-0.5,0.4-0.5,1.1-0.9,1.6c-0.1,0-0.2,0.1-0.4,0.1
			c-0.4,0.5-1.3,2.4-1.5,2.9v0.7c0,0.1-0.4,0.2-0.5,0.5c-0.3,1,0,1.9,0.1,2.4c0.2,0.6-0.1,1.2,0,1.6c0.4,1.7,2.4,2.5,4.3,2.4
			c0.3-0.4,0.9-0.4,1.2-0.7c0.7-0.7,1.3-1.5,1.7-2.2c0.5-0.9,0.7-2.4,0.6-3.8c0.5-1,0.7-2.1,1.3-3.4c0.4-0.8,1.1-1.6,1.6-2.3
			c0.2-0.4,0.2-0.8,0.5-1.1c0.3-0.3,0.6-0.3,0.7-0.7c0.1-0.2,0-0.7-0.2-1C332.3,284.4,332.1,284.5,331.6,284.4z M323.3,295.9
			c-0.3,0.2-0.3,0-0.4,0.4h-0.2c-0.4-1.9,0.3-2.1,0.6-3.8c0.3,0.1,0.2,0,0.4,0.4c0.1,0.2-0.5,1.5-0.6,1.9
			C323,295.2,323.3,295.6,323.3,295.9z M323.8,292.4c-0.4-0.1,0-0.1-0.4-0.4c0.1-0.1,0.1-0.1,0.4-0.1c0-0.2,0-0.2,0.1-0.4v-0.1h0.2
			C324,291.9,323.9,291.8,323.8,292.4z M324.3,291.2h-0.4c0.3-0.6,0.8-0.9,0.9-1.7c0.4-0.1,0.5-0.2,0.7-0.5h0.1
			C325.3,289.8,324.7,290.5,324.3,291.2z M434.1,313.5c0.2,0.1,0.2,0.5,0.4,0.6c0.6,0.4,1,0.7,1.5,1.2c0,0.1,0.1,0.2,0.1,0.4
			c0.2,0.2,0.6,0.1,0.9,0.2c0.5,0.3,1.2,1.3,1.8,1.3c2.5,0,3.9,0.8,6.3-0.5c0.2-1.4-0.1-2.2-0.7-3.5c0-0.3-0.1-0.6-0.1-1
			c-1.3-2.7-4-3.7-8.2-3.7c-0.6,0.4-1.7,0.1-2.4,0.4c-0.8,0.3-1.7,0.7-2.4,1.1c-0.6,0.3-1.6,0.7-1.1,1.6
			C430.6,312.7,433.2,312.7,434.1,313.5z M438.7,312.1c1,0.8,1.2,2.1,2.2,2.8v0.1c-2.9,0-3.5-1.5-4.9-2.9c-0.5-0.5-1.4-0.6-1.5-1.1
			C435.6,311.2,437.9,311.5,438.7,312.1z M378.7,320.2c-0.1-1.1-0.6-1.6-1.1-2.6c-0.3,0-0.6-0.1-0.9-0.1c-0.4,0.4-1,0.8-1.6,1
			c-0.3,0.1-0.7,0-0.7,0c0,0.1-0.1,0.2-0.1,0.4c-0.4,0.3-0.9,0.2-1.2,0.5c-0.5,0.4-0.9,1-1.3,1.5c-0.4,0.4-1.4,0.7-1.7,1.1
			c-2.3,2.6-3.4,8.2-1.9,11.4c0.1,0,0.2-0.1,0.2-0.1c0.7,1.1,1.5,1.9,2.8,2.4c2.4,0.9,3.6-2.1,4.3-3.5
			C377.2,328.1,374.7,322.3,378.7,320.2z M371.5,326c0.2,0.3-0.1,0.1,0.2,0.2c-0.7,2.4-1,4.5-0.9,6.7c-0.2,0.1-0.1,0-0.2,0.1
			c-0.9-0.9-1.7-3.4-1.2-5c0-0.2-0.3-0.8-0.1-1.1c0.2-0.6,0.7-1.2,1-1.8c0,0,0.1-0.1,0.1-0.1h-0.2v-0.1c0.5-0.4,0.7-1.2,1.1-1.7
			c0.5-0.6,1.4-1.1,1.9-1.7C373.3,321.6,371.8,325.8,371.5,326z M346.2,331c-0.3-0.4-0.8-1-1.1-1.5c0-0.3-0.1-0.6-0.1-1
			c-0.2-0.1-0.3-0.2-0.5-0.4c-0.3-0.5-0.2-1.1-0.5-1.6h-0.2c-0.2-0.4,0.1-0.7,0-1c0-0.1-0.4-0.6-0.4-0.9c0.1,0,0.2-0.1,0.2-0.1
			c0-0.2-0.2-0.5,0-0.9c0.2-0.2,0.4-0.4,0.6-0.6c0.2-0.5-0.3-0.4,0.2-1c-0.1-0.8-0.6-1.6-1.2-1.8c-0.2-0.1-0.6-0.1-1-0.1
			c-0.3,0.7-0.8,0.6-1.1,1.1v0.4c-0.1,0.2-0.3,0.5-0.5,0.9c-0.1,0-0.2,0.1-0.4,0.1c0.4,0.4-0.3,0.9-0.4,1.1v1.1
			c0,0.1-0.3,0.4-0.4,0.5c-0.1,0.3,0,1.8-0.1,1.9c-0.1,0-0.2,0.1-0.4,0.1c-0.1,0.8-0.2,1.5-0.2,2.3c0,0.4-0.2,1.1-0.1,1.7
			c0,0.3,0.2,0,0.2,0.1c0,0.2-0.1,0.3-0.1,0.5h0.2c-0.2,0.3-0.2,0.7-0.2,1.1c-0.1,1.1,0.7,2.8,1.2,3.5c-0.3,0.5,0.6,1.2,0.9,1.6
			c0.6,1,1.7,1.7,2.7,2.2c0.7,0.4,1.8,0.1,2.2,0.1c0.2-0.4,0.4-0.6,1-0.7c-0.2-1.1,0.6-2.4,0.7-3.5c0-0.3-0.2-0.6-0.1-0.9
			c0-0.1,0.3,0,0.2-0.4c-0.1-0.4-0.6-1.1-0.7-1.5C346.5,332.8,346.7,331.8,346.2,331z M341.8,335.1c-0.8-0.3-0.9-2.1-1-3
			c0.8,0.5,0.5,1.9,1.1,2.6c0,0.3,0,0.2-0.1,0.4V335.1z M342.1,336h-0.1v-0.2h0.1V336z M342.8,337c-0.3-0.1-0.3-0.1-0.5-0.2
			c0-0.4,0-0.2,0-0.5c0.3,0.2,0.3,0.4,0.5,0.6V337z M446,344c-0.3-0.8-0.9-1.5-1.3-2.3c-0.3-0.6-0.1-1.1-0.5-1.6
			c-0.8-1.2-2.6-2.3-3.9-3c-0.9-0.5-1.8-0.4-2.8-0.9c-0.4-0.2-3.4-1.2-3.7-1.1c-0.3,0.1-0.6,0.4-1,0.5c-0.1,0.6-0.5,1-0.2,1.8
			c0.3,1,1.5,1.3,1.5,2.1c0.5,0,0.2,0,0.7,0.1c0.1,0.8,0.6,1,1,1.5c0.5,0.7,2,4.2,1.8,4.7h0.4c0.2,0.9,0.9,1.1,1.6,1.5
			c0.5,0.3,1,0.9,1.3,1.1c1.9,1,3.7-1,4.3-1.8C445.5,346.1,446.3,345,446,344z M440.7,345.5h-0.2c-1.2-1.3-1.3-3.3-2.3-4.7
			c-0.4-0.6-1.3-1.4-1.3-2.1c1.8,0.9,3.9,2.7,3.9,5.4c0.2,0.1,0.2,0.1,0.5,0.1C441,344.7,440.8,345,440.7,345.5z"/>
	</g>
</g>
<g>
	<g>
		<path class="st1" d="M384.1,201.2h0.1c0.1-0.4,0.1-0.3,0.4-0.5c-0.1-0.4-0.2-0.7-0.2-1.2c0.6-0.4,0.7-1,1.5-1.1
			c0.1,0,0.4,0.1,0.7,0.1v0.2c-0.4,0.5-0.2,1.6-0.2,2.2c0.2,0.1,0.3,0.1,0.6,0.1c0.2-0.1,0.4-0.2,0.9-0.2c-0.1-0.6-0.6-1.3-0.5-1.6
			c0.2-0.6,0.6-0.7,1.5-0.6c0.3,0.4,0.8,0.8,1,1.3h0.4c0.4-2.8-1.7-4.6-2.8-6.9c-0.4-0.8-1-2.8-2.1-2.8c-0.2,0.6-0.5,1.2-0.7,1.8
			c-0.2,0.8-0.2,2.4-0.2,2.7c-0.1,0.1-0.3,0.2-0.4,0.2c0.3,0.2,0.3,0.7,0.1,1.2C383.5,197.9,383.7,199.8,384.1,201.2z M363.1,208.9
			c0.2-0.3,0.6-0.3,1.1-0.2c0.6,1,1.5,1.9,2.7,2.3c0.1-0.3,0.2-0.3,0.4-0.5v-0.2c-0.6-0.4-1.7-1.3-1.8-2.1c0.5-0.3,0.6-0.6,1.5-0.6
			c0.7,0.6,1.3,0.9,1.7,1.8c0.9-0.4,1.5-0.5,1.5-1.7c-3.1-1.4-5.4-4.8-8.3-6.7c-0.7-0.5-1.3-1.2-2.3-1.5c-0.1,2.1,1.5,5,2.3,6.6
			C362.3,207,362.3,208.7,363.1,208.9z M399.8,205.6c-0.8-0.2-1.1-0.5-2.2-0.5c-0.2,0.3-0.3,0.3-0.4,0.6c-0.1,0.1-0.1,0.2-0.1,0.5
			h-0.4c-0.1,0.7-0.9,2-1.5,2.2c-0.2,0.1-0.4,0.2-0.6,0.2c-0.1-0.4-0.1-0.3-0.2-0.6c0.3-0.4,0.2-1,0.5-1.5c0.2-0.4,0.6-0.3,0.7-1
			c-1.3-0.1-3.3,0.2-3.3,1.7c0.2,0.5-1.1,3.2-1.8,2.9c-0.3-0.2-0.4-0.3-0.5-0.6c0.2-0.3,0.5-1.8,0.5-1.8c-0.1-0.3-0.1-0.3-0.2-0.5
			c-1.5,0.5-1.5,0.4-2.6,1.2c0.2,0.3,0.1,0.5,0.1,1.2c-0.7,0.6-0.6,1.5-1.9,1.6c0-0.1-0.1-0.2-0.1-0.4c-0.3-0.5,0.1-1.2,0.1-1.9
			c-0.8,0-1.9,0-2.3,0.7c0,0.4-0.1,0.8-0.1,1.2c-0.1,0.5-0.4,0.6-0.2,1.2c-0.4,0-0.2-0.2-0.4,0.1c0.1,0.3-0.1,0.6-0.2,1
			c-0.4,0-0.4,0.1-0.6,0c-0.3-0.1-0.3-0.1-0.5-0.4c-0.4-0.6,0.1-1.5-0.1-2.2c-0.8,0.2-1.8,0.1-1.8,1.3c0.2,0.4-0.8,4.4-1.8,3.9
			c-0.4-0.1-0.5-0.3-0.6-0.7c0.1-0.3,0.4-1.3,0.6-1.8c-0.3-0.1-0.2-0.1-0.5-0.2c-0.4,0.6-1.4,0.8-1.8,1.5c-0.5,0.8-0.4,2-0.9,3
			c-0.3,0.2-0.5,0.4-0.7,0.2c-0.4-0.2-0.6-0.6-1-0.5c-0.8,0.2-0.8,0.8-1.3,1.2c0,0.5,0.2,1.5,0.1,1.7h-0.2v0.9
			c-0.4,0.1-0.4,0.2-0.9,0.2c-0.5-0.5-1,0.2-1.5,0.1c-0.1,1,0.5,3.6-0.7,4c-0.3-0.3-0.6-0.4-1.1-0.5c-0.4,0.6-1.3,1.5-0.9,1.8
			c0,0.6,0,0.6,0.6,0.6c0.1,0.9,0.5,1,0.6,1.9c0,0-0.1,0.1-0.1,0.1c-0.6,0-1.2-0.1-1.9-0.1c-0.2,0.3-0.5,0.5-0.6,0.9
			c0.1,0.2,0.1,0.3,0.1,0.7c0.8,0.3,0.8,1,1.8,1.2c0,0.3,0,0.5-0.1,0.6c-0.2,0.6-0.5,0.9-1.3,0.9c-0.2-0.2-0.6-0.2-0.7-0.1
			c-0.1,0-0.2,0.1-0.4,0.1c-0.1,0.7-0.1,1.2,0,1.8c0.6,0.2,1.9,1,1.9,1.7c-0.2,0.2-0.4,0.5-0.5,0.9c-0.7,0-0.9-0.2-1.7-0.2v0.2
			c-0.5,0.6-0.2,1.4,0,2.1c0.8,0.1,1.9,0.6,2.6,1c-0.1,0.2,0,0.1-0.1,0.2c-0.1,0.3-0.1,0.4-0.4,0.6c-0.5,0.4-1.7,0.3-2.4,0.1v1.7
			c0.1,0.2-0.1,0.3,0,0.5c0.1,0.2,0.7,0.3,0.9,0.5c1-0.2,0.8-0.3,1.8-0.1c0,0-0.1,0.1-0.1,0.1c0.1,0.3,0.1,0.3,0.1,0.7
			c-0.5,0.2-0.8,0.8-1.2,1c-0.4,0.2-0.8,0-1,0.1c-0.2,0.2-0.1,0.8-0.1,1.2c0.2,0.2,0.2,0.1,0.2,0.5c0.9,0,1.3-0.4,2.6-0.4l0.4,0.4
			c-0.1,0.2-0.1,0.4-0.1,0.7c-0.8,0.4-1.5,1-2.4,1.2c0,1,1.1,3.1,1.7,3.5c0.1,0.1,0.3,0.2,0.5,0.2c0.2-0.5,0.5-1.1,1.2-1.1
			c0.5-0.4,1-0.1,1.6,0v0.2c-0.2,0.2-0.4,0.9-0.5,1c-0.5,0.5-1.5,0.9-1.7,1.7c-0.1,0.1-0.2,0-0.1,0.2h0.1c0.2,0.5,0.8,1.4,1.3,1.6
			c0.1,0.1,0.2,0.1,0.5,0.1c0.5-0.9,1.6-1.7,3-1.7c0.1,0.1,0.2,0.2,0.2,0.2c0,0.2-0.1,0.5-0.1,0.7h-0.4c-0.1,0.8-1.4,2.2-2.2,2.6
			c0.1,0.3,0,0.2,0.1,0.4c0.4,0.7,1.4,1.8,2.2,2.1c0.7-1,1.7-2.6,3.4-2.6c0.1,0.2,0.1,0.3,0.2,0.4c-0.4,1.6-2,2.1-2.2,3.8
			c0.8,0.5,1.4,1.4,2.6,1.6c0.4-0.4,1.4-1.9,1.9-1.9c0.2-0.2,0.4-0.2,0.9-0.2c0.2,0.3,0.5,0.5,0.6,1c-0.9,0.6-1.1,1.5-1.6,2.4
			c1,0.4,1.6,1.1,2.9,1.2c0.2-0.6,0.6-0.6,0.9-1c0.7-0.9,0.5-2,2.1-1.9c0.1,0.3,0.2,0.2,0.2,0.6c-0.4,0.5-0.2,0.7-0.1,1.3
			c-0.4,0.2-1.6,1.7-1.3,1.9c0.8,0.8,2.7,1.3,3.9,1.6c0.1-0.3,0.2-0.2,0.2-0.6c-0.2-0.3,0-0.6,0-0.9c-0.7-0.8-0.1-2.3,1.1-2.3
			c0.2,0.3,0.3,0.3,0.4,0.9c0.3,0.5,0.2,2.6,0.2,3.4c0,0,0.1,0.1,0.1,0.1c1.5,0.1,3.6,0,4.9,0.1c0.1-0.2,0.1-0.4,0.1-0.7
			c0.3-0.8-0.1-2.1,0.2-3.5c0-0.4-0.1-0.8-0.1-1.2c0.2-1.1,0.3-2.5,0.5-3.4c0-0.5-0.1-1.1-0.1-1.6h0.2c0.1-0.1,0.2-0.5,0.2-0.5v-1.7
			c0,0,0.1-0.1,0.1-0.1c0.2-1-0.2-3.3,0.1-4.6c0.5-2.1,0.5-4.7,1-7.5c0-0.3-0.1-0.6-0.1-0.9c0.1-0.7,0.1-1.7,0.2-2.7v-1.8
			c0.3-1.3,0.3-2.8,0.9-4.7c0.2-0.8-0.3-2.1-0.1-2.9c0.2-1.2,0.2-2.5,0.6-4c0.3-1-0.3-1.7-0.2-2.2c0.1-0.9,0.5-2.2,0.6-2.8
			c0-0.2-0.1-0.4-0.1-0.6c0.3-1.4,0.4-2.9,0.4-4.5c0-0.2,0.3-1.1,0.4-1.5c0.1-0.5,0-1.5,0-1.7l0.4-0.4c0.1-0.2,0-0.8,0-1.5
			c0.1,0,0.2,0.1,0.2,0.1v-0.1c-0.4-0.7,0.1-2.8,0.5-3.3C399.1,209.6,399.4,207.2,399.8,205.6z M343.3,229.3
			c0.3,0.2,0.7,0.7,1.1,0.9c0.7,0.3,1.2,0.2,1.8,0.6c0.7,0.4,2.4,1.7,3,1.6c1-0.2,3,1.5,3.8,0.5c0-0.2-0.1-0.3-0.1-0.5
			c0.2-0.5,0.5-0.2,0.5-1.1h-0.2c-0.4,0.3-2.9,0.7-3.5-0.1c-0.1-0.2-0.2-0.4-0.2-0.6c0.5-0.3,0.6-0.5,1.5-0.5c0.8-0.5,2.2-0.3,3-0.6
			c0-0.5,0.7-1.5,0.5-1.9c-0.2-0.3,0.1-0.1-0.2-0.2c-0.9,0.7-2.1,0.4-3.3,0.4c-0.3-0.4-0.5-0.4-0.5-1.3c0,0,0.1-0.1,0.1-0.1
			c0.9-0.1,1.7-0.3,2.7,0c0.2-0.1,0.5-0.4,0.7-0.5c0.5-0.2,0.9,0,1.2-0.2c0.3-0.3,0.4-0.9,0.5-1.3h-0.7c-1-0.6-4.3,0.4-5.8,0.1v0.4
			c-1.2,0-2.5,0.2-3.7,0.5c-0.4,0.1-0.8-0.2-1-0.1c0,0.1-0.1,0.2-0.1,0.4h-0.6c0,0.1-0.1,0.2-0.1,0.2c-1,0.4-1.7-0.1-2.3,0.1
			c-0.1,0-0.9,0.5-1,0.5c-0.6,0.3-1.5-0.1-1.8,0c-0.4,0.2-0.4,0.4-1,0.2v0.5c1.2,0.6,2.6,1.3,3.8,1.8
			C341.9,229.1,342.6,229,343.3,229.3z M354.6,258c-0.8,0.8-1.8,1.2-3.4,1.2c-0.2-0.4-0.4-0.5-0.5-1.1c0.3-0.1,0.2-0.2,0.5-0.4
			c0.4-0.4,0.7-0.1,1.3-0.4c0.3-0.1,1.3-0.8,1.6-1.1c-0.4-0.2-0.2-0.3-0.1-0.7h-0.4c0-0.5-0.1-0.9-0.4-1.2c-0.2-0.2-0.2-0.2-0.4-0.1
			c-1,0.4-1.3,1.1-2.7,1.1c-0.4-0.5-0.6-0.5-0.6-1.5c0.5-0.1,0.5-0.4,0.9-0.6c0.3-0.2,0.6,0,1-0.1c0.6-0.2,1-1.2,1.5-0.9
			c0-0.1,0.1-0.2,0.1-0.4c0.1-0.1,0-0.1,0-0.5c-0.5-0.2-0.4-0.3-1.1-0.4c-0.8,0.7-2.3,1.1-3.2,1.7c-2.2,1.6-4.9,3-7.2,4.5
			c-1.2,0.8-3.4,1.3-4,2.7c0,0-0.1,0.1-0.1,0.1c0.4,0.1,0.4,0.2,0.9,0.2c1.2,0.8,3.2,0.1,4.7,0.5c2.3,0.6,7.5-0.2,9.6-0.6
			c1.1-0.2,2.2-0.2,2.9-0.7c0.1-0.1,0.1-0.2,0.1-0.5c-0.1-0.2,0-0.2-0.1-0.4C355.4,258.1,355.2,258,354.6,258z M367,273.2
			c-0.2,0.4-1.1,2-1.6,2.2c-0.3,0.2-0.6,0.1-0.7,0c-0.4-0.3-0.5-0.6-0.6-1.2c0.6-0.4,1.5-1.6,1.2-2.2c-0.2-0.3,0.1-0.1-0.2-0.2v0.1
			c-1.1,0.5-0.9,2.4-2.4,2.4c-0.1-0.1,0,0-0.2-0.1c-0.5-0.9-0.1-1.1,0.2-1.8c0-0.1-0.1-0.2-0.1-0.4c0.2-0.3,0.3-0.9,0.5-1.3
			c0.2-0.1,0.5-0.1,0.6-0.2c-0.3-0.1-0.5-0.3-0.7-0.6c0,0-0.1,0.1-0.1,0.1c-0.8,0.8-0.7,1.9-1.2,3c-0.3,0.6-0.9,1.2-1.1,1.7
			c-0.2,0.5,0,0.9-0.1,1.2c-0.2,0.6-0.8,1.3-1.1,1.8c-0.1,0.2,0,0.6,0,0.6c-0.1,0-0.2,0.1-0.4,0.1c-0.1,0.2-0.4,2.2-0.4,2.2
			c-0.1,0-0.2,0.1-0.4,0.1c-0.2,0.4-0.4,1.7-0.4,1.7c-0.1,0.8-1.7,3.5-1.5,4v0.2c0.1-0.1,0,0,0.1-0.2c0.5-0.3,0.8-0.9,1.5-1.1V285
			c1.4-0.9,2.4-2.4,3.5-3.7c0.3-0.3,1-0.4,1.3-0.7v-0.4c0.2-0.2,0.6-0.2,0.7-0.4c0.4-0.4,1-1.5,1.3-1.8h0.4c0.4-0.3,1.2-1.3,1.5-1.7
			v-0.5c0.3,0.1,1.5-1.2,1.7-1.7C367.9,273.6,367.9,273.3,367,273.2z M388.3,281.4c-0.2-0.2-0.4-0.2-0.9-0.2v0.6
			c0,0,0.1-0.1,0.1-0.1c0.1-0.2,0.1,0.2,0.1,0.2h0.1c0,0-0.1,0.1-0.1,0.1c-0.4,0.4-0.8,0.7-1.2,1.1c-0.8,0-1.2-0.2-1.6-0.6
			c0.2-0.2,0.9-1.5,1-1.8c-0.2-0.1-0.4-0.1-0.7-0.1c-0.1-0.1,0-0.2-0.2-0.1v0.1c-0.3,0.2-0.1,0-0.2,0.4c-0.4,0.6,0.4,3.1-1.7,3
			c-0.2-0.3-0.5-0.3-0.6-0.7c0.3-0.5,0.5-2.6,0.5-3.7c-0.6-0.1-0.8-0.3-1.5-0.4c-0.9,1.7-0.3,3.9-0.9,6.3c-0.5,2.5-0.8,5.1-1.5,7.1
			c-0.4,1.1,0.1,4,0.1,5.6h0.2v-0.1c1.2-0.9,2.3-3.8,3-5.2c0.8-1.4,1.9-2.7,2.8-3.9c0.4-0.5,0.4-1.2,0.7-1.8c0.2-0.4,0.7-0.9,1-1.3
			c0.4-0.6,0.3-1.4,0.7-1.9c0.4-0.6,1.5-1.4,1.1-2.2C388.6,281.4,388.7,281.5,388.3,281.4z"/>
	</g>
</g>
<ellipse class="st1" cx="408.6" cy="432.5" rx="34.6" ry="12.7"/>
</svg>
