<?xml version="1.0" encoding="utf-8"?>
<!-- Generator: Adobe Illustrator 21.0.0, SVG Export Plug-In . SVG Version: 6.00 Build 0)  -->
<svg version="1.1" id="Calque_1" xmlns="http://www.w3.org/2000/svg" xmlns:xlink="http://www.w3.org/1999/xlink" x="0px" y="0px"
	 viewBox="0 0 841.9 595.3" style="enable-background:new 0 0 841.9 595.3;" xml:space="preserve">
<style type="text/css">
	.st0{fill:#1D1D1B;}
	.st1{fill:#DADADA;}
</style>
<g>
	<g>
		<path class="st0" d="M466.5,372c-3.4-13.3-8.8-25.4-13.3-38.4c-1.1-3.2-2.9-6.4-3.7-9.3c-0.9-3.9-2.5-8-3.7-11.8
			c0.3-1.1-2.4-10-3-11.4c-1.8-3.9-3.8-8.7-5-12.8c-1.6-5.5-3-11.3-4.9-16.3c-0.8-2.1-0.5-4.1-1.4-6.1c-1.8-3.7-2.6-8.2-4.5-12
			c-4.5-9.1-7.5-19.7-10.5-29.7c-1.7-4.7-3.4-9.5-5.1-14.2c-4.3-13.9-8.9-26.7-17.9-36.4c-3.6-3.8-8.2-8.2-14.5-8.2
			c-0.9,0.7-3.2,1.3-3.8,2.2c-0.7,3-1.4,5.9-2.1,8.9c-0.5,1.3-0.9,4.1-1.3,5.7c-1.8,6.2-3.3,12.2-4.5,18.4
			c-0.8,3.8-1.7,7.8-2.5,11.6c-0.9,3-1.7,5.9-2.6,8.9c-0.7,2.6-1.2,5.1-1.8,7.8c-1.3,4.6-3.3,10.1-4.6,14.7
			c-2,6.7-3.7,13.7-5.5,20.7c-0.4,2-0.7,3.8-1.1,5.8c-2.1,5.8-3.3,12.6-5,19.1c-2.1,6.6-4.1,13.3-6.2,19.9
			c-1.8,6.4-2.9,12.6-4.6,18.9c-3.4,12.4-6.6,31.8-0.8,43.1c2.2,4.2,5.7,8.2,9.5,10.8c1.1,0.8,3.7,1.1,4.6,1.8
			c1.7,1.6,3.7,3.6,5.9,4.6c2.1,0.9,4.9,1.2,7.1,2.5c2,1.1,3.9,2.6,6.3,3.4c5.1,1.6,11.1,1.7,16.2,3.3c2.1,0.8,4.1,1.7,6.2,2.5
			c0.5,1.4-0.1,4.1-0.3,5.3c-0.5,3.6,0.1,14.7,1.6,17.1c0.8,1.3,2.8,2.9,4.2,3.6c3.3,1.3,7.8,0,10.5,0.9c0.1,0,0.1,0,0.3,0
			c-0.8,5.7,1.2,14.9,2.8,20.1c-0.7,2.1,0.8,6.3,1.3,8.4c-0.4,1.2,2.8,13.8,3.2,14.7c0.7,1.4,0.1,3.9,0.7,5.3
			c0.7,0.1,1.2,0.1,1.8,0.3c1.8-2.1,2.5-1.8,4.6-3.3c2.1-1.4,4.3-3.6,6.1-5.5c2.4-2.5,3.9-7.1,5.1-10.3c0.5-1.4,0.8-6.2,1.6-7.2
			c1.4-2.1,2.4-4.3,3.8-6.6c3.7-5.8,8.2-11.4,8.7-19.7c0.3-4.1,0.9-9.6-0.5-13c0.4-0.5-0.3-6.3-0.5-7.1c1.2-3.7,4.6-2.8,7.9-4.5
			c8.9-4.5,14.5-8.8,15.3-21.3C466.5,375.7,466.9,373.6,466.5,372z M389.8,178.8c0-0.1-0.1-0.1-0.1-0.3
			C390,178.7,389.8,178.7,389.8,178.8z M364.1,391c0-0.1-0.1-0.1-0.1-0.3c0.1,0,0.1,0,0.3,0C364.2,390.7,364.1,390.9,364.1,391z
			 M389.5,392.7c-2.8-0.3-5-1.3-7.5-1.7c-6.1-0.9-11.8-1.1-17-3.3c-2.2-1.1-4.6-2.1-6.8-3.2c-9.5-3.2-15.1-3.4-20.7-10.9
			c-0.8-1.1-1.6-2-2.4-3c-7.6-18.3,0.3-39.7,4.2-57.4c1.4-6.7,4.2-13.3,6.2-20.1c0-0.9,0-1.7,0-2.6c0.8-1.7,1.2-4.1,1.7-5.9
			c1.3-4.3,2.6-9.1,3.8-13.2c0.4-1.7,0.7-3.6,1.1-5.3c1.2-3.8,2.2-7.6,3.4-11.4c0.3-1.7,0.7-3.6,0.9-5.3c3.4-10,5.9-20.9,9.1-31.2
			c2.4-7.5,3.3-15.8,4.9-23.5c0.4-1.2,0.8-2.4,1.2-3.6c0-2.8,1.6-7.1,2.9-9.2c0.1-0.9,0.3-1.8,0.4-2.8c0.5-2.6,1.3-6.1,2.4-8.4
			c2.1,1.3,2.6,11.1,3.2,14.2c-0.1,0.5-0.1,0.9-0.3,1.4c1.1,2.8,0.8,6.1,1.3,9.6c-0.1,0.5-0.1,1.1-0.3,1.6c0.4,1.6,0.3,5.7,0.7,8
			c1.2,5.9,0.8,12,2,18.8c0,2.9,0.1,5.7,0.1,8.6c0.8,3.8,0.3,8.2,0.9,11.7c0.7,3.4,0.9,8.9,1.2,13.2c0.4,4.9-0.5,10.3,0.4,15.1
			c0.4,3.9,0.8,8,1.2,12c0,2.9,0.1,5.9,0.1,8.8c1.4,8.7,2.4,20.1,1.3,28.8c-0.8,6.4,0.8,13-0.3,18.7c0,1.3,0.1,2.8,0.1,4.1
			c0,3-0.5,5.9,0.1,8.8c0,1.3,0,2.6,0,3.9c0.1,6.1,0.4,12.9,1.3,17.9C391.4,381.8,389.5,387,389.5,392.7z M401.6,424
			c-0.8,0.1-1.7,0.1-2.5,0.3c-2.9,0.4-5.5-1.3-6.7-2.8c-2.6-3.6-1.4-10.8-1.7-15.5c1.3,0.9,2,2.6,3.6,3.3c0.7,0.4,1.7,0.3,2.4-0.1
			c0.9-0.5,1.2-1.7,1.2-3h0.1c0.1,1.1,0.4,2.2,0.5,3.3c1.2,0.8,2.9,1.8,4.5,0.8c0.7-0.4,1.1-1.3,1.2-2.2c0.4,0.1,0.1,0,0.4,0.3
			c0.8,0.9-0.1,3.7-0.1,5.5c2.5,2.5,4.9,5,7.4,7.5c2.8,2,5.1-1.2,5.7,4.7c-0.1,0-0.1,0.1-0.3,0.1C411.7,424.5,406.3,424.7,401.6,424
			z M397.6,405.5c0-0.1,0-0.3,0-0.4c0.1,0,0.1,0.1,0.3,0.1C397.7,405.2,397.7,405.3,397.6,405.5z M421.7,455
			c-1.8,4.9-5,8.7-6.7,13.8c-0.1,0-0.1,0.1-0.3,0.1c-0.7-2.6-1.4-5.3-2.1-7.9c-0.9-2.1-1.3-6.3-2.2-9.3c-0.3-2.2-0.4-4.5-0.7-6.7
			c-1.6-5-2.8-12.5-3-17.8c3.6,0.3,8.3,0.4,11.1,1.8C422.7,431.8,424.2,448.5,421.7,455z M437.3,408.3c-0.3,4.1-0.4,8.2-0.7,12.2
			c-1.2,4.5-0.9,10.7-2.9,15c-2.1,4.7-7.8,10.5-8.3,15.8h-0.1c-0.3-4.5,0.3-11.3-0.7-16c-0.4-2-1.6-4.9-2.6-6.4
			c-0.4-0.4-0.8-0.7-1.2-1.1c0-0.8-0.1-1.4-0.1-2.2c-0.4-1.6-2.5-6.7-3.8-7.6c-1.6,0-2,1.1-3,1.1c-0.3-0.1-0.4-0.1-0.7-0.3
			c-2.8-1.4-3.8-5.8-6.8-6.8c0.1-1.2,0.4-2.2,0.5-3.4c0.4-0.5,0.1-0.3,0.8-0.1c1.3-0.8,2-3.2,2-4.6c0.1,0,0.1-0.1,0.3-0.1
			c0.5,0.1,1.2,0.1,1.7,0.3c0.3-0.8,0.9-0.8,1.2-1.4c0.4-0.9,0.1-2,0.4-2.6c2.1-0.7,5.1,0.3,7.1-0.7c0.3,1.3,0.4,2.5,0.7,3.8
			c-1.1,0.9-3.6,0.9-2.8,3.3c0.3,0.7,0.8,0.8,0.9,1.8c-0.4,0.4-0.8,0.7-1.2,1.1c-2.6,1.3-5.1-2.2-7.8-2.2c-0.3,0.3-0.4,0.4-0.7,0.7
			c0,0.3-0.1,0.4-0.1,0.7c3,3.2,6.3,5.8,8.9,9.3c0.9,0.8,1.7,1.6,2.6,2.4c0.8,1.3,3,3.6,5.3,3.2c3.2-0.7,2.5-4.6,3.6-7.5
			c2.6-7.5,1.6-19.1,0.5-28c0.3-1.3,0.5-2.5,0.8-3.8c0.1-1.6-0.4-4.1-0.9-5.3c-3.3-1.2-5.3,1.1-7.8,1.4c-0.4-3.9-0.9-7.9-1.3-11.8
			c0-6.1,0-12,0-18c-3.6-2.4-2.5,2-2.8,4.3c0,3.7,0,7.4,0,11.1c-0.4-0.1-0.7-0.1-1.1-0.3c-0.1-0.4-0.4-0.9-0.5-1.3
			c-1.2-0.5-2.6-0.1-3.7-0.3c-1.1,0.8-0.8,8.4-0.3,10.1c0.3,0.8,1.6,1.4,2.2,1.8c1.7-0.3,3,0.3,3.6-1.8c0.1,0,0.1-0.1,0.3-0.1
			c0.5,2.4,1.2,5.8,0.5,8.2c-0.3,0.7-7.1,5.9-8,6.2c-1.1-4.9-0.3-11.4-2.9-15c-0.3-0.9,1.6-7.1,1.8-8.8c0.7-3.6-0.1-7.2,0.4-10.7
			c0.7-4.3,0.4-8.9-0.4-13.7c-0.7-3.7-1.1-9.1-3.9-10.4c-1.4-0.7-5,0.3-6.4,0.5c-0.9,1.8-1.1,5-1.2,7.2c0,0.7,0.3,1.8,0.3,2.1
			c-0.8,4.3-8.6,16.3,0.9,15.9c0,4.3,4.9,5.9,6.1,1.3c0-1.4,0-2.9,0-4.3c1.3-7.5-1.8-11.3-1.8-18.5h0.1c0,0.4,0.1,0.7,0.1,1.1
			c0.5-0.3,0.7-1.8,0.7-2.8c0.1,0,0.1-0.1,0.3-0.1c4.7,5.8,4.7,25,3,34.1c-0.4,2.4-1.6,5.1-1.6,7.5c-0.4,0-0.8,0.1-1.2,0.1
			c-0.3-0.8-0.7-1.4-0.9-2.2c-0.8-0.4-1.6-0.4-2.6-0.3c-0.1-2.4-0.7-4.6-1.4-6.4c-1.2-0.3-2.4,0.1-3.6,0.4c-0.4,0.5-0.5,1.4-1.1,2
			c-1.1,1.2-3.4,0.1-3.7,1.7c-1.7-1.6-0.3-10.8-0.9-14.9c-0.5-2.9,0.3-6.1,0-9.1c-0.7-7.5,0.4-17.5,0-25.4c0-2.6,0.1-5.1,0.1-7.8
			c0-2.5-0.1-5-0.1-7.5c-1.6-6.8-0.8-13.9-1.6-21c-0.8-7-1.1-14.6-1.8-20.1c-0.8-4.9,0.8-9.2-0.1-13.9c-1.4-7.9-0.9-16.7-2.2-24.6
			c-0.4-2.4,0.5-5,0.1-6.6c-1.3-5.8-1.7-12.6-2.2-19.7c0-1.8-0.1-3.8-0.1-5.7c-0.9-4.9-0.7-11.8-1.4-15.5c-0.4-1.7-1.1-3-1.1-5.1
			h0.1c0.5,2.6,2.5,4.7,3.6,7c1.7,3.7,2.1,7.9,3.3,11.2c0.3,2.4,0.5,4.9,0.8,7.2c0.5,1.8,2,3.9,2.5,6.2c0.8,3.2,0.7,6.1,1.6,9.7
			c0.9,3.9,2.1,7.8,3,11.2c1.2,4.1,1.1,8,2,12c2.8,12,4.9,26.2,8.8,37.4c0.8,2.1,0.5,4.9,1.6,7.2c1.1,2.4,1.2,4.7,2.2,7.6
			c1.3,3.7,2.6,7.9,3.8,11.4c0.4,0.4,0.8,0.8,1.2,1.2c2.6,5.7,4.2,11.3,6.3,17c3,7.9,5.5,22.2,7.2,29.9c0.9,4.3,2.1,8.4,3,13
			c0.7,3,0.4,5.8,1.2,8.7c0.1,1.8,0.1,3.7,0.3,5.5c0.8,5.3,1.4,10.4,2.2,15.7c0.4,3.2,0.7,6.2,1.1,9.3c0,0.5,0.7,3.9,0.7,3.9
			C436.3,404.9,437.5,406.5,437.3,408.3z M411.7,390.5c2.5-2.2,5-4.1,7.9-5.9c0.5,1.1,0.5,11.6-0.8,12.6c-2,0-4.1,0-6.1,0
			C412.5,396.8,411.7,391.9,411.7,390.5z M426.3,410.3c0-0.5,0-1.2,0-1.7c-0.7-0.5-1.2-0.9-1.8-1.4c-0.4-0.8-0.9-1.7-1.2-2.4
			c-0.4-0.8,0.3-2.9,0.1-3.8c-0.5-3.6-0.9-6.6-1.3-10.7c0.1-2.6,0.4-5.1,0.5-7.8c1.2-1.2,3-1.1,4.3-2.1c0.3,0,0.7,0,0.9,0
			c1.8,3.2-0.3,8.9,0.8,13.5c0.4,1.7,1.3,12.5,0.8,14.7c-0.9,3.8-2.5,7.8-3.3,11.3c-0.3,0.1-0.4,0.1-0.7,0.3
			c-2.4-1.2-7.9-6.2-8.6-8.8c1.6-0.1,2.6-0.7,3.8-1.2c0.5,2.8,1.6,7.4,5.3,5.1C428,414.3,426.4,411.9,426.3,410.3z M431.4,322.6
			c2.4,1.3,5.4,5.7,6.3,8.7c0.4,1.3,0,3.2,0.5,4.1c-1.3-0.3-2.4,0-3.8,0.1C433,331.9,430.4,327.2,431.4,322.6z M460.6,378.7
			c-0.8,9.1-5.4,12.5-12.1,16.4c-1.7,0.9-3.3,2.6-5.3,3.3c-1.4,0.3-2.8,0.7-4.2,0.9h-0.1c-0.4-2-0.7-3.9-1.1-5.9
			c0.1-0.8,0.1-1.4,0.3-2.2c-1.1-3.8-1.8-8.4-1.8-13.3h0.1c0.3,3.2,1.6,9.3,3.9,10.5c1.2,0.7,2.5,0,3.4,0.1c1.7-1.4,2.9-5.1,2.9-7.9
			c1.8,2.6,0.1,2,3.6,3.6c0.7-0.4,1.3-0.8,2-1.2c1.2-4.1,2.5-10.7,0.4-13.8c-1.1-0.3-2-0.1-3.2,0v-0.1c0.8-1.1,1.8-2.6,2.2-3.9
			c0.3-0.8-2.5-10-2.9-11.2c-0.7-1.6-2.8-2.2-3.7-3.6c-0.3-1.1-0.7-2.1-0.9-3.2c-0.7-0.4-1.3-0.7-2-1.1c-1.7-2.2-2-6.3-1.4-9.6
			c0.3-1.4-0.5-2.9,0.1-4.1c-0.4-0.3-0.3,0-0.5-0.3c-0.4-1.6-0.9-3.3-1.3-4.9c-1.6-3.4-4.7-5.8-7.9-7.8c-0.5,0.4-1.1,0.7-1.6,1.1
			c-1.1,7,0.1,10.4,3.3,15.9c-0.5,0.1-1.1,0.4-1.6,0.5c-1.4,3.3,0.5,7.9,0.1,11.4h-0.1c-0.4-2.5-1.4-5.5-2.1-8
			c-2.2-8-2.9-15.4-5.4-23c-2.6-7.9-5.8-15.1-8.8-22.4c-3.6-8.6-4.2-18.4-8-26.8c-0.3-1.6-0.7-3.3-0.9-4.9c-1.3-3.4-1.8-8.6-3-13
			c-0.3-2.2-0.5-4.5-0.8-6.7c-2-6.8-2.1-13.7-4.2-21c-0.7-2.1-1.3-4.2-2-6.3c-0.5-3.6-1.2-7.2-1.7-10.8c-1.2-3.6-2.2-7-3.4-10.5
			c-0.7-2.8-0.1-5.1-0.8-7.6c-0.8-2.9-2.9-6.1-2.9-9.6c2.8,2.4,6.4,8.8,8,12.5c0.5,1.3,0.9,2.6,1.4,3.9c5.9,10.9,10.1,22.8,14.5,36
			c2.9,9.1,5.9,19.3,9.9,28.3c0.1,1.1,0.4,2,0.5,3c0.5,2.4,1.4,5.7,2.4,7.9c3.3,8.2,5.9,17.8,9.2,25.8c3.3,8.2,5,17.5,8.7,25.1
			c0.4,1.8,0.9,3.6,1.3,5.4c5.1,12.5,9.3,26,13.3,39.2C457.7,369.4,461,373.6,460.6,378.7z M446.9,380.2c0,0.1-0.1,0.1-0.1,0.3
			c0-0.1-0.1-0.1-0.1-0.3C446.8,380.2,446.8,380.2,446.9,380.2z M446.8,358.2c1.1,1.3,1.8,4.9,1.8,7c-0.1,0-0.1,0-0.3,0
			C447.9,362.8,447.3,360.5,446.8,358.2z M380.4,311c-1.1-1.4-1.4-2.2-3.7-2.5c0.4-0.9,1.2-3.8,0.9-4.7c-0.1-0.3-0.5-0.1-0.5-0.7
			c0.5-1.4,0.9-2.8,1.4-4.2c1.2-3.7,1.8-7.9,2.8-11.2c0.7-2,1.4-5.3,0.3-7.1c-2.2-0.5-2.8,0.3-4.9,1.1c-0.4,1.3-0.3,2.1-0.5,3.4
			c-0.1,0.1-0.1,0.1-0.3,0.3c-0.8-0.1-1.4-0.3-2.2-0.4c0-1.4-0.1-3-0.1-4.5c-0.9-3.7,0.9-17.9-5.4-17.9c-3.6,3.2-11.3,15-9.5,22.6
			c1.4,5.9,4.6,9.9,7.2,15c-0.7,1.4-1.3,3-2,4.5h-0.1c-2.2-2.8-2-8.3-5.9-9.2c-6.6-1.6-8.2,8.9-9.7,13c-1.6,4.1-4.3,9.2-4.3,14.3
			c0,3.9,0.8,9.6,0,14.1c-0.1,1.2-0.3,2.4-0.4,3.6c-0.8,2.1-2.5,3.8-2.8,6.6c-0.5,5.8,6.3,11.6,13,11.4c0.1,0.8,0.3,1.7,0.4,2.5
			h-0.1c-0.3-0.4-0.4-0.9-0.7-1.3c-1.2-0.3-2.6-0.3-3.6,0c-1.8,0.9-0.9,4.3,0.1,5.7c2.1,2.4,3.7-0.1,5.7,0.4s1.3,1.6,4.1,0.7
			c1.2,0.8,2.4,1.4,3.6,2.2c1.4,1.2,2.1,3.4,4.3,3.8c1.2,0.3,2.5-1.2,3.6-1.6c0.5,1.3-0.4,9.1-0.9,11.2c0.7,0.8,1.6,1.4,2.9,1.6
			c1.8-1.4,2.8-2.5,3.6-5.1c0-1.1,0.1-2.2,0.1-3.3c0.8-0.9,1.6-1.7,2.4-2.6c0.7-1.7,0-3.7,0.3-4.7c1.6-5,1.2-12.9,0.1-19.1
			c-0.9-0.7-1.6-0.5-2.8-0.7c-0.1-1.4-0.3-4.3-0.4-6.4c-0.3-0.1-0.4-0.4-0.7-0.5c-1.1-0.3-3-0.1-3.8,0.5c-0.7,0.4-0.8,1.2-0.9,2
			c-0.1,0-0.1,0.1-0.3,0.1c-0.1-1.2,0-4.5-0.3-5.3c-0.3-0.9-1.7-1.7-1.1-3.3c0.9-2.4,1.6-5.4,1.6-7.9c3,0.3,4.9,7,8.3,4.9
			c2-1.4,2.2-5,2.9-7.8c0.8-3.6,2-9.1,0-12C381.6,311.9,380.9,311.4,380.4,311z M367.3,264.4C367.3,264.4,367.5,264.4,367.3,264.4
			c0.1,0.1,0,0.3,0,0.4C367.3,264.7,367.3,264.6,367.3,264.4z M364.6,323.1c0.1,0.4,0.1,0.7,0.3,1.1c-0.1,0.1-0.4,0.1-0.5,0.3
			C364.2,323.8,364.3,323.6,364.6,323.1z M364.2,325.5c0.1,0,0.1,0,0.3,0c0,0.3-0.1,0.7-0.1,0.9h-0.1c0-0.1,0-0.3,0-0.4
			c-0.1,0-0.1-0.1-0.3-0.1C364.1,325.7,364.1,325.6,364.2,325.5z M358,346.1c-1.2-0.9-2.6-7-3.3-8.7c-0.7-0.9-1.4-1.1-2.8-1.3
			c-0.5,0.4-2.2,3.2-2.1,3.7c-1.1,2,2.6,13.4,3.4,16c0,0.1-0.1,0.1-0.1,0.3c-4.2,0.8-11.3-5-10.1-10c0.7-2.8,2.5-4.1,2.9-7
			c0.5-4.7-0.9-11.3-0.1-15.3c0.3-1.6,0.5-6.4,1.1-7.6c1.4-3.3,3-7.4,4.3-10.8c1.2-3.2,1.7-5.8,4.2-7.6c0.4-0.1,0.7-0.1,1.1-0.3
			c0.3,0,0.5,0,0.8,0c1.3,0.8,5.8,8.7,4.9,10.9c-0.9,2.5-6.2,4.1-5.7,7.4c-0.4-0.1-0.7-0.3-1.1-0.4c0,1.1-3.2,8.7-3.9,9.6
			c0,0.7,0,0.8,0.3,1.1c1.1,1.7,3,2.5,5.1,1.8c0.9-2.8,1.8-5.5,2.8-8.3c0.9,0.4,2.8,2,3.2,2.9c-0.1,1.3-0.3,2.5-0.4,3.8
			c-0.5,2.8-2,5.7-2,8.8C354.5,333.6,358.3,343,358,346.1z M365.2,338.5c-0.7,3.6-0.1,8-0.1,11.2H365c-0.7-3.7-2.2-8.9-2.8-12.8
			c-0.4-3.2,1.1-7,1.8-9.7c0.7,0.7,2,8.8,2.5,10.8C366.2,338.1,365.6,338.2,365.2,338.5z M367.6,333.2l-0.1-0.1
			c0-0.1,0.1-0.3,0.1-0.4C367.6,332.8,367.7,333,367.6,333.2C367.7,333.2,367.6,333.2,367.6,333.2z M368,332.3
			c-0.1,0.1-0.3,0.1-0.4,0.3c-0.3-3.3-1.7-6.1-0.7-9.7c0.3-0.8,0.9-0.9,1.6-1.3C369.8,322.2,368.3,330.5,368,332.3z M370.5,289.3
			c-1.1,0-3,6.8-3.3,8.3h-0.1c-1.3-0.9-1.8-3-2.8-4.5c-3.8-6.4-5-13.8-0.8-20.8c1.2-2,3-3.9,3.6-6.3c0.3,0.1,0.1,0.1,0.7,0.3
			c0.3-0.4,0.4-0.9,0.7-1.3c0.1,0,0.3,0,0.4,0c3.3,3.6,2.4,14.9,3,20.9C370.6,286.5,370.2,287.8,370.5,289.3z M373.9,310.1
			c-0.9,0.3-2,0.4-2.9,0.7c0.3-0.7,0.7-1.2,0.9-1.8C372.6,309.2,373.3,309.6,373.9,310.1C373.9,309.9,373.9,309.9,373.9,310.1z
			 M400.2,302.4c-0.5,0.4-1.2,0.7-1.7,1.1c0,0,0.1,13.4,0.1,13.5c0.1,0.1,0.1,0.4,0.3,0.5c0.7,1.2,2.2,1.6,3.9,1.6
			c2.8-2.1,0.8-12.1,0.7-16C402.5,302.6,401.4,302.4,400.2,302.4z M404.6,335.3h0.1h0.1c0-0.1,0.1-0.3,0.1-0.4c-0.1,0-0.3,0-0.4,0
			C404.6,335.1,404.6,335.2,404.6,335.3z"/>
	</g>
</g>
<g>
	<g>
		<path class="st1" d="M456.4,365.1c-3.9-13.2-8.2-26.7-13.3-39.2c-0.4-1.8-0.9-3.6-1.3-5.4c-3.7-7.6-5.4-17-8.7-25.1
			c-3.3-8-5.9-17.6-9.2-25.8c-0.9-2.2-1.8-5.5-2.4-7.9c-0.1-1.1-0.4-2-0.5-3c-3.9-8.9-7-19.2-9.9-28.3c-4.3-13.3-8.6-25.1-14.5-36
			c-0.5-1.3-0.9-2.6-1.4-3.9c-1.6-3.7-5.3-10.1-8-12.5c0,3.6,2.1,6.7,2.9,9.6c0.7,2.5,0.1,4.9,0.8,7.6c1.2,3.6,2.2,7,3.4,10.5
			c0.5,3.6,1.2,7.2,1.7,10.8c0.7,2.1,1.3,4.2,2,6.3c2.1,7.4,2.2,14.2,4.2,21c0.3,2.2,0.5,4.5,0.8,6.7c1.2,4.5,1.7,9.6,3,13
			c0.3,1.6,0.7,3.3,0.9,4.9c3.8,8.4,4.5,18.3,8,26.8c3,7.2,6.2,14.5,8.8,22.4c2.5,7.6,3.2,15,5.4,23c0.7,2.5,1.7,5.5,2.1,8h0.1
			c0.4-3.6-1.6-8.2-0.1-11.4c0.5-0.1,1.1-0.4,1.6-0.5c-3.2-5.5-4.3-8.9-3.3-15.9c0.5-0.4,1.1-0.7,1.6-1.1c3.2,2,6.3,4.3,7.9,7.8
			c0.4,1.6,0.9,3.3,1.3,4.9c0.3,0.3,0.1,0,0.5,0.3c-0.7,1.2,0.1,2.6-0.1,4.1c-0.5,3.3-0.3,7.4,1.4,9.6c0.7,0.4,1.3,0.7,2,1.1
			c0.3,1.1,0.7,2.1,0.9,3.2c0.9,1.3,3,2,3.7,3.6c0.4,1.2,3.2,10.4,2.9,11.2c-0.4,1.3-1.4,2.9-2.2,3.9v0.1c1.2-0.1,2.1-0.3,3.2,0
			c2.1,3.2,0.8,9.7-0.4,13.8c-0.7,0.4-1.3,0.8-2,1.2c-3.4-1.6-1.7-0.9-3.6-3.6c0,2.8-1.2,6.4-2.9,7.9c-0.9-0.1-2.2,0.5-3.4-0.1
			c-2.4-1.2-3.7-7.4-3.9-10.5h-0.1c0,4.9,0.8,9.5,1.8,13.3c-0.1,0.8-0.1,1.4-0.3,2.2c0.4,2,0.7,3.9,1.1,5.9h0.1
			c1.4-0.3,2.8-0.7,4.2-0.9c2-0.7,3.6-2.4,5.3-3.3c6.7-3.9,11.3-7.4,12.1-16.4C461,373.6,457.7,369.4,456.4,365.1z M389.7,178.5
			c0,0.1,0.1,0.1,0.1,0.3C389.8,178.7,390,178.7,389.7,178.5z M367.3,264.4c0,0.1,0,0.3,0,0.4C367.3,264.7,367.5,264.6,367.3,264.4
			C367.5,264.4,367.3,264.4,367.3,264.4z M371.8,285.9c-0.7-6.1,0.3-17.4-3-20.9c-0.1,0-0.3,0-0.4,0c-0.3,0.4-0.4,0.9-0.7,1.3
			c-0.5-0.1-0.4-0.1-0.7-0.3c-0.5,2.4-2.4,4.3-3.6,6.3c-4.2,7-3,14.3,0.8,20.8c0.9,1.4,1.4,3.6,2.8,4.5h0.1c0.3-1.4,2.2-8.3,3.3-8.3
			C370.2,287.8,370.6,286.5,371.8,285.9z M362.7,322.6c-0.4-0.9-2.2-2.5-3.2-2.9c-0.9,2.8-1.8,5.5-2.8,8.3c-2.1,0.7-4.1-0.1-5.1-1.8
			c-0.3-0.3-0.3-0.4-0.3-1.1c0.8-0.9,3.9-8.6,3.9-9.6c0.4,0.1,0.7,0.3,1.1,0.4c-0.5-3.3,4.7-4.9,5.7-7.4c0.9-2.2-3.6-10.1-4.9-10.9
			c-0.3,0-0.5,0-0.8,0c-0.4,0.1-0.7,0.1-1.1,0.3c-2.5,1.8-3,4.5-4.2,7.6c-1.3,3.4-2.9,7.5-4.3,10.8c-0.5,1.2-0.8,6.1-1.1,7.6
			c-0.8,3.9,0.7,10.5,0.1,15.3c-0.4,2.9-2.2,4.2-2.9,7c-1.2,5,5.9,10.8,10.1,10c0-0.1,0.1-0.1,0.1-0.3c-0.8-2.6-4.5-14.1-3.4-16
			c-0.1-0.5,1.6-3.3,2.1-3.7c1.3,0.3,2.1,0.4,2.8,1.3c0.7,1.7,2.1,7.8,3.3,8.7c0.3-3-3.6-12.5,2.4-10.9c0-3.2,1.4-6.1,2-8.8
			C362.5,325.1,362.6,323.8,362.7,322.6z M371,310.7c0.9-0.3,2-0.4,2.9-0.7v-0.1c-0.7-0.4-1.3-0.7-2-1.1
			C371.7,309.4,371.3,310.1,371,310.7z M367,322.8c-1.1,3.7,0.4,6.4,0.7,9.7c0.1-0.1,0.3-0.1,0.4-0.3c0.3-1.8,1.8-10.1,0.5-10.8
			C367.9,321.9,367.2,322,367,322.8z M438.3,335.3c-0.5-0.9-0.1-2.8-0.5-4.1c-0.9-3-3.9-7.4-6.3-8.7c-1.1,4.6,1.6,9.3,3,12.9
			C435.9,335.3,436.9,335.1,438.3,335.3z M364.6,323.1c-0.3,0.7-0.3,0.7-0.3,1.3c0.1-0.1,0.4-0.1,0.5-0.3
			C364.7,323.8,364.7,323.4,364.6,323.1z M363.9,325.9c0.1,0,0.1,0.1,0.3,0.1c0,0.1,0,0.3,0,0.4h0.1c0-0.3,0.1-0.7,0.1-0.9
			c-0.1,0-0.1,0-0.3,0C364.1,325.6,364.1,325.7,363.9,325.9z M362.2,336.9c0.5,3.8,2.1,9.1,2.8,12.8h0.1c0-3.2-0.5-7.6,0.1-11.2
			c0.4-0.1,0.9-0.4,1.3-0.5c-0.5-2-1.8-10.1-2.5-10.8C363.3,329.8,361.8,333.6,362.2,336.9z M367.5,333.1l0.1,0.1h0.1
			c0-0.1-0.1-0.4-0.1-0.5C367.6,332.8,367.5,333,367.5,333.1z M405,334.9c-0.1,0-0.3,0-0.4,0c0,0.1,0,0.3,0,0.4h0.1h0.1
			C404.8,335.2,405,335.1,405,334.9z M448.6,365.2c0-2.1-0.8-5.7-1.8-7c0.5,2.4,1.1,4.6,1.6,7C448.5,365.2,448.5,365.2,448.6,365.2z
			 M446.8,380.5c0-0.1,0.1-0.1,0.1-0.3c-0.1,0-0.1,0-0.3,0C446.7,380.2,446.8,380.3,446.8,380.5z M427.9,380.5c-0.3,0-0.7,0-0.9,0
			c-1.3,1.1-3.2,0.9-4.3,2.1c-0.1,2.6-0.4,5.1-0.5,7.8c0.4,4.1,0.8,7.1,1.3,10.7c0.1,0.9-0.5,3-0.1,3.8c0.3,0.7,0.8,1.6,1.2,2.4
			c0.7,0.5,1.2,0.9,1.8,1.4c0,0.5,0,1.2,0,1.7c0.1,1.6,1.7,3.9-0.3,5.1c-3.7,2.2-4.7-2.4-5.3-5.1c-1.2,0.5-2.2,1.1-3.8,1.2
			c0.7,2.6,6.2,7.6,8.6,8.8c0.3-0.1,0.4-0.1,0.7-0.3c0.8-3.6,2.4-7.5,3.3-11.3c0.5-2.2-0.4-13-0.8-14.7
			C427.6,389.4,429.7,383.6,427.9,380.5z M419.6,384.5c-2.9,1.8-5.4,3.7-7.9,5.9c0,1.6,0.8,6.4,1.1,6.7c2,0,4.1,0,6.1,0
			C420.1,396.1,420.1,385.6,419.6,384.5z M364.1,391c0-0.1,0.1-0.1,0.1-0.3c-0.1,0-0.1,0-0.3,0C363.9,390.7,364.1,390.9,364.1,391z
			 M397.6,405.1c0,0.1,0,0.3,0,0.4c0.1-0.1,0.1-0.1,0.3-0.3C397.7,405.1,397.7,405.1,397.6,405.1z M417.3,426
			c-0.5-5.9-2.9-2.8-5.7-4.7c-2.5-2.5-4.9-5-7.4-7.5c0-1.8,0.9-4.6,0.1-5.5c-0.3-0.3,0-0.1-0.4-0.3c-0.1,0.9-0.5,1.8-1.2,2.2
			c-1.6,1.1-3.3,0-4.5-0.8c-0.1-1.1-0.4-2.2-0.5-3.3h-0.1c0,1.3-0.3,2.5-1.2,3c-0.7,0.4-1.7,0.5-2.4,0.1c-1.6-0.7-2.2-2.4-3.6-3.3
			c0.3,4.7-0.9,12,1.7,15.5c1.2,1.4,3.8,3.2,6.7,2.8c0.8-0.1,1.7-0.1,2.5-0.3c4.7,0.7,10.1,0.5,15.5,2.1
			C417.2,426,417.2,426,417.3,426z M417.7,429.1c-2.8-1.4-7.5-1.6-11.1-1.8c0.3,5.3,1.4,12.8,3,17.8c0.3,2.2,0.4,4.5,0.7,6.7
			c0.9,3,1.3,7.2,2.2,9.3c0.7,2.6,1.4,5.3,2.1,7.9c0.1,0,0.1-0.1,0.3-0.1c1.7-5.1,4.9-8.9,6.7-13.8
			C424.2,448.5,422.7,431.8,417.7,429.1z M195,487.8c0.1,0.1,0.3,0.1,0.4,0.3c0-0.1,0-0.1,0-0.3c0.1,0,0.1-0.1,0.3-0.1
			c-0.1-0.1-0.4-0.1-0.5-0.3C195.1,487.5,195,487.7,195,487.8z"/>
	</g>
</g>
</svg>
