<?xml version="1.0" encoding="utf-8"?>
<!-- Generator: Adobe Illustrator 21.0.0, SVG Export Plug-In . SVG Version: 6.00 Build 0)  -->
<svg version="1.1" id="Calque_1" xmlns="http://www.w3.org/2000/svg" xmlns:xlink="http://www.w3.org/1999/xlink" x="0px" y="0px"
	 viewBox="0 0 841 595" style="enable-background:new 0 0 841 595;" xml:space="preserve">
<style type="text/css">
	.st0{fill:#1D1D1B;}
	.st1{fill:#DADADA;}
</style>
<g>
	<g>
		<path class="st0" d="M486,359.9c-0.8-1.3-1.7-2.3-2.5-3.6c-0.2-0.3-0.7-0.5-0.9-0.7c0-0.2-0.1-0.4-0.1-0.5
			c-0.1-0.1-0.3-0.1-0.4-0.2c-0.5-0.6-1.2-1.4-1.6-2.1c0-0.2-0.1-0.5-0.1-0.7c-0.2-0.4-0.9-0.6-1.2-0.9c-0.6-0.6-1-1.2-1.5-1.9
			c-0.3-0.4-0.8-0.5-1.2-0.8c-0.2-0.3-0.2-0.7-0.4-0.9c-0.1,0-0.3-0.1-0.4-0.1c-0.7-0.8-1-2.3-1.6-3.2c-0.3-0.6-1.1-1.3-1.5-1.9
			c-0.2-0.4-0.3-1-0.5-1.4c-0.7-1.2-1.6-2.5-2.4-3.7c-0.4-0.6-0.4-1.5-0.8-2.4c-0.2-0.4-0.7-0.9-0.9-1.3c-0.4-0.6-0.4-1.3-0.6-1.9
			c-0.3-0.6-0.8-1.2-1-1.8c-0.5-1-0.6-1.9-1-2.9c-0.4-0.9-1.2-2-1.7-2.8c-0.3-0.5-0.2-1.2-0.5-1.7c-0.1-0.1-0.2-0.1-0.3-0.2
			c-0.5-0.9-0.4-1.8-0.8-2.7c-0.4-0.7-1.1-1.5-1.4-2.3c0-0.4-0.1-0.8-0.1-1.3c0-0.1-0.3-0.3-0.3-0.4v-0.9c-0.4-1-0.8-2-1.3-2.9
			c-0.1-0.1-0.3-1.5-0.4-1.9v-0.7c-0.1-0.3-0.5-0.8-0.6-1.2c-0.2-0.6-0.1-1-0.3-1.6c0-0.1-0.3-0.3-0.3-0.4c-0.4-2-0.6-3.9-1.2-6.1
			c-0.2-0.8-0.1-2.2-0.2-2.5c0-0.1-0.4-0.7-0.4-0.8c0-0.1,0.2-0.5,0.1-0.7c0-0.2-0.3-0.6-0.3-0.7c-0.1-0.3,0.1-0.5,0.1-0.6
			c0-0.4-0.3-0.9-0.4-1.3c-0.1-1-0.2-2-0.3-2.9c-0.2-0.6-0.5-1.5-0.5-2c-0.1-0.7,0.1-2.1,0-2.8c-0.2-1.7-0.4-3.4-0.7-5
			c-0.1-0.8,0.1-2.4-0.1-3.5c-0.4-1.8-0.2-3.6-0.5-5.7c0-0.1,0.1-0.3,0.1-0.4c0-0.3-0.1-1-0.1-1.2c0.1-0.8-0.1-1.8-0.2-2.5
			c0-0.3,0.1-0.7,0.1-1.2c0-0.2-0.1-0.4-0.1-0.6c0.2-0.8,0.7-1.3,1-2.1c0.4-0.8,0.4-1.8,0.6-2.4c0.1-0.4,0.6-0.9,0.7-1.3
			c0.5-1.2,1-2.3,1.5-3.4c0-0.1,0-0.4,0.1-0.7c0.4-1,1-2.3,1.5-3.4c0.6-1.2,0.6-2.4,1-3.7c1.3-3.3,2.6-7,3.4-10.3
			c0.3-1.3,1-2.8,1.5-4.1c0.1-0.4-0.1-0.7,0-0.9c0.6-2.3,1.4-6.3,1.2-8.2c0-0.1,0.2-0.7,0.2-0.8v-2.1c0.2-0.9,0.1-2,0.1-2.9
			c0-0.2,0.1-0.5,0.1-0.7c-0.1-0.5-0.6-0.9-0.8-1.4c-0.8-0.2-1.3-0.3-2.2-0.2c-0.2,0.4-0.6,0.6-0.7,1c-0.2,0.5-0.4,1.6-0.2,2.2
			c0,0.1,0.2,0.2,0.2,0.4c-0.1,1.2-0.1,3.2-0.3,4.3c-0.1,0.7,0.1,1.6,0,2.2c-0.9,3.9-1.7,7.7-2.8,10.9v0.8c-0.2,0.6-0.5,1.1-0.6,1.6
			c-0.3,1.1,0,1.5-0.4,2.5c-0.5,1.5-1.5,3.9-2,5.3c-0.1,0.6-0.2,1.2-0.3,1.8c-0.1,0.3-0.4,0.7-0.5,0.9v0.6c-1.4,2.6-2.4,5.6-3.9,8.4
			v0.5c-0.2,0.6-0.6,1.2-0.8,1.8v0.4c-0.1,0-0.2,0.1-0.3,0.1c0.1,0.2-0.2,0.8-0.4,1.2c-0.5,1-1.1,2.1-1.6,3.1v0.4
			c-0.6,1.3-1.5,2.7-2.2,4c-0.5,0.9-0.6,1.7-1,2.5c-0.4,0.8-1.2,1.7-1.8,2.4c0.2,0.3-2,3-2.3,3.5c-0.2,0.3-0.2,0.7-0.4,0.9
			c-0.8,0.9-1.7,2-2.3,3c-0.2,0.4-0.3,0.8-0.5,1.2c-1.3,1.9-3.1,3.5-4.6,5.2c-1,1.2-1.6,2.8-2.7,3.9c-2.4,2.4-4.6,5-7.2,7.1h-0.1
			c-1-4-1.1-7-2-10.3c-0.3-1,0-2-0.2-2.8c-0.1-0.3-0.3-1.1-0.4-1.5c-0.1-0.4,0.1-1.1-0.1-1.8c-0.7-2-0.8-4.6-1.3-6.1
			c-0.2-0.5,0.1-1.1,0-1.4c-0.3-0.6-0.5-2.1-0.5-3c2.7-2.5,5.8-7.3,6.6-10.9c0.1-0.3-0.2-1.5-0.2-1.7c0.4-0.2,0.9-0.5,1.3-0.6
			c0.3-0.2,0.8,0,1-0.1c0.1,0,0.2-0.1,0.3-0.1c-0.2-1-1-1.9-1.6-2.6c-0.2-0.2-0.6-0.3-0.7-0.5c-0.1-0.3-0.2-0.6-0.3-0.8
			c-0.5-0.4-1.3-0.8-1.7-1.4c-0.2-0.3-0.3-0.7-0.5-1l-0.4-0.2c-0.5-0.4-1-1.1-1.4-1.6c-0.7-0.9-1.1-2.1-2.1-2.7
			c-0.3-0.1-0.6-0.2-0.8-0.3c-0.3-0.2-0.5-0.6-0.9-0.7c-0.3,0-0.7-0.1-1-0.1c-0.4-0.2-0.8-1.4-1.2-1.8c-0.4-0.4-2.2-1.3-3.2-0.9
			c-0.6,0.2-1.1,0.8-1.6,1c-0.4,0.2-1,0.1-1.4,0.3c-0.4,1.1-0.8,2-1.3,2.9c-3.2,0-3.7-1.6-6.1-2.2c-0.1,0-2.1,0-2.5,0.1
			c-0.4,0.1-0.5,0.4-1,0.4v0.3c-1.6,0.3-2.8,2.3-3.7,3.5c-0.6,0.8-1.7,1.4-2.3,2.2c-0.4,0.5-0.6,1-1,1.5c-0.2,0.2-0.6,0.3-0.7,0.5
			c-0.3,0.4-0.5,1-0.8,1.4c-0.3,0.3-0.7,0.6-0.9,0.9c-0.3,0.4-0.3,0.9-0.6,1.3c0.1,0.2,0,0.1,0.1,0.2c0.2,0.1,0,0,0.3,0
			c0.2,0.7,0.7,1.1,0.8,1.7c0.3-0.1,0.5-0.1,0.8-0.1c-0.1,0.7-0.7,1.6-0.4,2.7c0.2,0.6,0.7,1.1,0.7,1.9h0.3c0.2,0.6,0.6,0.7,0.7,1.4
			c0.5,0.1,1.1,1.2,1.2,1.7c1.2,0.3,2.4,2.3,3.4,2.9c0.3,0.2,0.7,0.2,1,0.4c0.7,0.4,1,1.2,2.1,1.6c0.4,0.1,0.6-0.1,0.8,0
			c0.2,0.1,0.7,0.3,0.9,0.3c0,0,0.4-0.2,0.7-0.1c0.5,0.2,1.2,0.5,2,0.6c0.3,1.8,0,3.4,0.3,4.8c0,0.8-0.1,1.5-0.1,2.3
			c0.8,3.2,0.4,6.8,1,9.6c0.3,1.1,0,2.2,0.3,3.5c0.1,0.6,0,1.1,0,1.5c0.1,1,0.4,2.4,0.6,3.2c0.2,0.6-0.3,1.5,0.2,2.4
			c0,0.3,0,0.4-0.1,0.5c-0.7-0.1-1-0.5-1.5-0.6c-0.7-0.2-1.2,0-1.9-0.2c-0.3-0.1-0.5-0.4-0.8-0.5c-2.7-0.9-5.3-1.6-7.5-2.9l-0.7-0.7
			c-0.5-0.3-0.9-0.4-1.4-0.7c-0.2-0.2-0.4-0.4-0.5-0.6c-0.6-0.3-1.1-0.5-1.7-0.8c-0.3-0.2-0.5-0.6-0.8-0.8c-0.2,0-0.4-0.1-0.5-0.1
			c0-0.1-0.1-0.3-0.1-0.4c-0.4-0.6-1.2-1.2-1.8-1.7c-0.2-0.1-0.2-0.5-0.4-0.6c-4-3.3-7.4-7.2-10.4-11.5c-0.2-0.2-0.4-0.3-0.6-0.5
			c-0.6-0.8-1.1-1.6-1.7-2.4c-0.3-0.4-0.8-0.7-1-1.2c-0.2-0.4-0.1-0.7-0.3-1.2c-0.2-0.4-0.7-0.8-0.9-1.2c-1-1.6-1.7-3.2-2.6-4.9
			c-0.4-0.6-1-1.3-1.4-2c-0.3-0.7-0.3-1.3-0.6-1.9c-0.9-1.8-2.1-3.8-3-5.6c-0.3-0.5-0.2-1-0.4-1.5c-1.1-2.2-1.7-4.8-2.6-7.2
			c-0.6-1.6-1.6-3.2-2.2-4.7c-1.1-2.7-1.6-5.5-2.6-8.3c-0.4-1.2-1.3-2.6-1.8-3.8c-0.8-2-1.1-4.4-1.8-6.4c0-0.3-0.1-0.7-0.1-1
			c-0.6-1.6-1.5-3.4-2-5c0-0.4-0.1-0.8-0.1-1.3c-0.3-1.1-0.6-2.4-1.2-3.2c-0.2,0-0.3,0-0.4,0.1c0.3,0.8,0.6,2.2,0.8,3v1
			c0.2,0.6,0.7,1.7,0.9,2.3v0.7c0.1,0.2,0.4,0.4,0.4,0.5c0,0.1-0.2,0.3-0.1,0.5c0.2,0.4,0.7,0.9,0.8,1.4c0,0.2-0.1,0.3-0.1,0.5
			c0.1,0.3,0.4,0.8,0.5,1c0,0.1-0.1,0.3-0.1,0.4c0.1,0.3,0.4,0.8,0.5,1c0.1,0.2-0.1,0.1-0.2,0.1c0,0.1,0,0.9,0,0.9
			c0.1,0.1,0.5,0.7,0.6,0.9v0.8h0.2c0.2,0.4,0,0.6,0.1,0.9c0.1,0.1,0.4,0.4,0.4,0.6v0.6c0.1,0.3,0.5,0.7,0.6,1
			c0.2,0.4,0,0.8,0.2,1.2c0.1,0.2,0.4,0.4,0.5,0.5c0.3,0.4,0,0.9,0.2,1.4c0.2,0.5,0.7,1.2,0.8,1.7c0,0.3-0.1,0.6-0.1,0.8
			c0,0.1,0.4,0.2,0.4,0.3c0.2,0.3,0,1.1,0.2,1.5c0.2,0.4,0.6,0.9,0.7,1.4c0,0.1-0.1,0.3-0.1,0.4c0,0.1,0.4,0.3,0.4,0.3
			c0.1,0.1,0,0.6,0.1,0.9c0.1,0.1,0.2,0.1,0.3,0.2c0,0.2-0.1,0.5-0.1,0.7c0.1,0.2,0.4,0.2,0.5,0.4c0.4,0.7,0.3,1.4,0.6,2.1
			c0.4,1,1.2,1.9,1.3,3.2c0.6,0.2,0.4,1.2,0.7,2c0.2,0.5,0.6,1.3,0.8,1.8c0.3,0.9,0.2,1.6,0.6,2.4c0.1,0.2,0.4,0.4,0.5,0.5
			c0.1,0.4,0.1,0.8,0.2,1.2c0.1,0.3,0.7,0.8,0.8,1v0.5c0.2-0.2,0.7,1.1,0.8,1.4c0.7,1.6,1.7,3.4,2.2,4.7c0.3,0.8-0.6,1.5-0.2,2.4
			c0.1,0.1,0.3,0.2,0.4,0.3c0.3,0.6,0.1,1.4,0.2,1.9c0.5,2.3,0.3,5.6,0.5,7.6c0.2,1.2-0.4,2-0.2,3.1c0.1,0.5-0.1,1.3-0.2,2
			c0,0.5,0.1,0.9,0.1,1.4c-0.3,1.4-0.3,2.7-0.6,4.1c-0.2,1,0.1,2.5-0.2,3h-0.2c-0.2,0.5,0.1,1.2,0,1.5c-0.2,1.1-0.4,2.6-0.7,3.6
			c0.3,1.3-0.5,4-0.9,5.3c-0.3,0.9-0.1,1.7-0.4,2.6c-0.6,2-1.2,4.5-1.8,6.4l-0.3,1.9c-0.2,0.6-0.6,1.2-0.7,1.8
			c-0.4,1.3-0.3,2.5-0.7,3.9c-1.4,4.6-2.6,9.4-4.5,13.5c-0.3,0.6-0.2,1-0.4,1.6c-2.1,4.2-4.5,8.4-7.1,12.2l-1.3,1.3
			c-1.2,1.7-2.6,3.3-3.8,5c-0.6,0.9-1,1.9-1.7,2.8c-0.9,1.3-2.1,2.4-3,3.8c-0.7,1-2.2,2-2.9,3c0.3,0.5-0.8,1.1-1,1.5
			c-1,1.5-1.8,3-3.4,3.9c0,0.3,0,0.4-0.1,0.6c0.2,0.1,0.3,0.3,0.4,0.5c1.6-0.1,3.5-3.6,4.3-4.8c1.2-1.8,3.2-3.3,4.4-5
			c1.6-2.2,3-4.4,4.6-6.6c1.2-1.7,2.8-3.2,4-4.8c0.8-1.1,1.3-2.2,2.1-3.4c0.3-0.4,0.8-0.8,1-1.3c0.1-0.3,0.1-0.5,0.2-0.7
			c0.4-0.6,0.9-1.2,1.3-1.8c0.2-0.3,0.2-0.7,0.4-1c0.5-0.8,1.2-1.6,1.7-2.4c-0.1-0.2,0.1-0.7,0.3-1c0.1-0.3,0.5-0.5,0.6-0.8
			c0.4-0.9,0.5-1.7,0.8-2.6c0.8-1.9,1.6-4.2,2.4-6.1c0.2-0.5,0-0.9,0.2-1.4c0.6-1.6,1.1-3.6,1.6-5.3c0.1-0.5,0.1-1,0.2-1.6
			c1.6-5.5,2.9-11.6,4.3-16.9c0.3-1.3,0.3-2.5,0.5-3.6c0.1-0.3,0.3-1.1,0.3-1.5c0-0.3-0.1-1.4,0-1.8c0.4-1.7,0.6-3.6,0.9-5
			c0.1-0.4,0-1.6,0.1-2.1c0.3-1.6,0.7-3.9,0.5-5.6c-0.2-1.9,0.4-4.5,0.1-6.1c-0.2-1.1,0-1.6-0.1-2.1c-0.1-0.7,0.2-2-0.1-2.5v-0.4
			h0.2c0.6,0.6,1,1.3,1.6,1.9c0,0,0.1,0.8,0.3,1c0.1,0.1,0.4,0.2,0.5,0.3c0.1,0.3,0.1,0.6,0.2,0.9c0.1,0.1,0.5,0.5,0.6,0.6v0.4
			c0.1,0.1,0.4,0.2,0.5,0.3c0.4,0.5,0.5,1,0.9,1.5c0.1,0.1,0.3,0.1,0.4,0.2c1.6,2.3,3.1,4.4,4.8,6.5c0.1,0.1,0.4,0.1,0.5,0.2v0.3
			c0.2,0.3,0.4,0.6,0.6,0.9c0.4,0.5,1,0.8,1.6,1.3c0.4,0.3,0.6,1,0.9,1.4c0.5,0.5,1.2,0.8,1.7,1.3c0.4,0.3,1,1.4,1.4,1.6
			c0.2,0.1,0.3-0.2,0.5,0c0.1,0.2,0.3,0.8,0.4,1c0.3,0.4,1.5,1.5,2,1.9c0.2,0.2,0.6,0.1,0.8,0.3c0.7,0.5,1.4,1.3,2.2,1.8
			c0.3,0.2,0.6,0.1,0.8,0.2c0.2,0.2,0.4,0.4,0.5,0.6c0.3,0.2,0.6,0.2,0.8,0.4c1.9,1.6,4.6,2.2,7.2,3.1c0.5,0.2,1.1,0.6,1.6,0.8
			c0.6,0.2,2.9,0.7,3.4,0.3c0.9,0.2,1,3.1,1.2,3.7v1.4c0.7,2.2,1.1,5,1.7,7.2c0,0.5,0.1,1,0.1,1.6c0.3,1.1,0.5,2.5,1,3.4
			c0,0.4-0.1,0.5-0.2,0.7c-0.4,0-1.4-0.1-1.5-0.1c-0.2,0.1-0.8,0.3-1.2,0.4c-0.5,0-1,0.1-1.5,0.1c-0.1,0.1-0.5,0.4-0.6,0.4
			c-0.5,0.1-0.9,0.1-1.4,0.2c-0.6,0.2-1.2,0.8-1.8,1c-0.5,0.2-1.1,0.5-1.5,0.6c-0.3,0-0.6,0.1-0.9,0.1c-0.6,0.3-1.4,1-2,1.3
			c-0.6,0.3-1.1,0.3-1.6,0.6c-0.3,0.2-1,0.8-1.3,1.2v0.3c-0.3,0.4-0.9,0.6-1.3,1c-2,2.4-2.7,5.7-3.7,9.2c-0.1,0.3-0.2,1.5-0.2,1.7
			c0,0.1,0.2,0.4,0.1,0.6c-0.6,1.9-0.4,4.4-1,6.7c-0.3,1,0.1,1.8-0.4,2.5c0,0.1-0.1,0.2-0.1,0.3c-1.2-0.1-1.9-0.1-2.8-0.3h-2.9
			c-0.4-0.1-1-0.2-1.4-0.3c-0.9,0-1.7,0.1-2.6,0.1H373c-0.7,0.1-2,0.4-2.6,0.4c-0.8,0.1-1.5-0.4-2.5-0.1c-1.7,0.5-3.5,0.6-5.6,1.3
			c-1,0.3-2.1,1.2-3,1.7c-0.2,0.6-0.2,1.3-0.5,1.9c-0.1,0.3-0.5,0.7-0.6,1c-0.3,0.9,0.2,1.9,0.2,2.4c1.4,1,2.5,1.9,4.5,2.3v0.3
			c1,0.2,1.5,0.7,2.2,1c0.3,0.2,0.4-0.1,0.6,0c1.3,0.5,3,1.1,4.4,1.6c1,0.3,2,0.4,2.9,0.6c0.5,0.1,0.8-0.2,1.5,0
			c0.9,0.3,2.4,0.6,3.2,0.8c0.9,0.2,1.3,0,2.1,0.2c1.6,0.5,3.3,0.5,4.7,0.8c0.5,0.1,2,0.1,2.3-0.1c0.9,0.1,0.5,0.5,0.8,1.2
			c0.5,0.9,1.5,1.9,1.7,2.9h0.3c0.5,0.9,1.2,1.4,2,2c0.2,0.1,0.2,0.5,0.4,0.6c0.7,0.6,1.9,0.6,2.3,1.5c0.2,0.2-0.1,3.2,0,3.6
			c0.5,1.9,1.9,6.4,3.8,6.8c0.2,1.7-0.7,2.6-1,3.9c0,0,0.3,2.5,0.3,2.5c0.5,2.3,2.1,4.3,4.4,4.1c0.7,0,1.3,0,1.8-0.2
			c1.3-0.7,3.1-2.2,4-3.4c0.5-0.7,1-1.4,1.6-2c0.2-0.1,0.5-0.3,0.7-0.4c1.3-1.8,2.6-3.8,3.7-5.6c0.4-0.6,1-1.2,1.4-1.8
			c0.2-0.4,0.2-0.8,0.4-1.2c0.5-0.8,1.4-1.3,1.8-2.1c0-0.2,0.1-0.4,0.1-0.6c0.6-0.9,1.2-1.7,1.9-2.5c0-0.1,0.1-0.3,0.1-0.4
			c0.2-0.2,0.6-0.3,0.7-0.5c0.7-1,1.1-1.8,2.2-2.3c1.6-0.7,3.6-1.1,5.4-0.7c0.9,0.2,2.2-0.2,2.9-0.1c0.3,0.1,0.9,0.3,1,0.3
			c0.4,0,1.2-0.3,1.7,0c0.6,0.1,1.4,1.2,1.7,1.7c0.2,0.4,0,0.8,0.2,1.2c0.1,0,0.2,0.1,0.3,0.1c0.7,1.1,0.7,4,1.3,5.9
			c0.2,0.7,0.6,1.7,0.5,2.5c0,0.2,0.1,0.3,0.2,0.5c0,0.1-0.1,0.6,0,0.9c0.4,1.6,0.8,3.7,1.4,5.2c0,0.1-0.1,0.2-0.1,0.3
			c0,0.1,0.3,0.6,0.3,0.7c0.1,0.5-0.1,0.8,0,1.2c0.1,0.5,0.6,1.5,0.7,2c0.1,0.3-0.1,0.7,0,1.2c0.5,1.7,0.8,4.7,1.4,5.9
			c0.2,0.4-0.1,0.9,0,1.2c0.5,1.7,0.6,3.9,1.2,5.4c0.1,0.6,0.1,1.2,0.2,1.8c0.6,1.9,0.6,4.2,1,5.8c0.2,0.7-0.3,2.2,0.1,2.9
			c0.1,0.4,0.4,0.5,0.6,0.4c0.5,0,0.7-0.1,0.9-0.2c0-2.2-0.5-4.4-0.9-6.2c-0.1-0.3,0.1-0.8,0-1.4c-0.6-2.1-0.7-4.1-1.3-6.1
			c-0.2-1.3-0.4-2.7-0.5-4c-0.3-0.9-0.6-2.4-0.8-3.4c-0.1-0.3,0.1-1.1-0.1-1.7c-0.4-1-0.9-2.8-0.8-3.9c-0.4-0.8-0.7-2.7-1-4.1
			c0-0.5-0.1-0.9-0.1-1.4l-0.3-0.3c0-0.2,0.1-0.5,0.1-0.7c-0.4-1.5-0.8-3.3-1.2-4.9v-1.3c-0.2-0.6-0.4-1.5-0.5-2
			c-0.2-0.8,0-1.5-0.3-2.1c-0.5-1-0.8-2.3-1.5-3.2c-0.4-0.6-1.1-0.8-1.4-1.5c-0.5-0.1-1-0.1-1.6-0.2l-0.4-0.4
			c-1.3-0.5-1.9,0.6-3.2,0.4c-1.6-0.3-4.5-0.4-6,0.1c-0.5,0.2-0.9,0.6-1.4,0.7c-0.4,0.2-0.7,0-1,0.2c-0.6,0-0.9-0.2-1.2-0.5
			c-0.7,0-0.8,0.2-1.3,0.5v0.2c0.3,0.3,0.4,0.5,0.8,0.7c-0.2,0.5-0.9,1.2-1.4,1.5c-0.2,0.2-0.9-0.2-1.3,0c-0.8,0.5,0.1,1.5,0.7,1.6
			c-0.2,1-0.9,1.1-1.2,1.9c-0.6,0.1-1.5,0.5-2.1,0c-0.5,0-0.4,0.1-0.7,0.3c0,0.4,0.2,0.6,0.3,1c0.4,0.1,0.6,0.3,1,0.3
			c0,0.3-0.1,0.5-0.2,0.6c-0.2,0.7-2.1,1.2-3,0.9c-0.1,0.2-0.3,0.3-0.5,0.4c0.1,0.5,0.3,0.6,0.5,0.9c0.3,0.1,0.8,0.1,1.3,0.2
			c-0.3,1.4-0.9,1.1-1.6,1.9c-0.3,0-0.6,0-0.7-0.1c-0.7,0-1,0.1-1.4,0.3c0.1,0.2,0,0.1,0.1,0.2c0,0.5,0.1,0.4,0.3,0.7
			c0.4,0.1,0.8,0.1,1.2,0.2v0.5c-0.2,0.2-0.4,0.4-0.5,0.7c-0.4,0.1-0.8,0.2-1.2,0.3c-0.9,0.2-1.5-0.6-2.1-0.1
			c-0.1,0-0.2,0.1-0.3,0.1c0,1.1,0.8,1.2,1.7,1.4c-0.2,0.5-0.5,0.6-0.7,0.9c-0.7,0.1-1.2,0.2-1.5-0.4c-0.6,0-0.8,0.1-1.3,0.3
			c0,0.8,0.5,1.2,1.2,1.4c-0.2,1.1-2.1,0.9-3,1.3c-0.1,0.2-0.1,0.4-0.2,0.6c0.3,0.3,0.5,0.5,0.9,0.7c-0.1,0.4-0.2,0.3-0.3,0.6
			c-0.3,0.1-1.2,0.2-1.5,0.3c-2.5,0-3.5-3.6-3-5.3c0.4-1.4,1.9-3.2,2.5-4.6c0.2-0.5,0.5-1.1,0.6-1.6v-0.6c0.2-0.5,0.7-0.9,0.8-1.4
			c0.2-0.5,0-0.8,0.2-1.3c0.4-0.7,1.1-1.6,1.5-2.4c0.5-1.1,0.7-2.2,1.2-3.4c0.3-0.9,1-1.8,1.4-2.7c1.2-3.2,2.4-6.1,4.1-8.7
			c0.4-0.7,0.5-1.5,0.9-2.1c0.4-0.6,0.9-1.2,1.3-1.8c0.2-0.3,0.3-0.8,0.5-0.9c0.4,0,0.8-0.1,1.3-0.1c0.4-0.2,0.9-0.7,1.3-0.9
			c1.2-0.8,3.6-1.5,5-1.9c2.4-0.7,4.9-0.3,7.2-0.8h3.2c0.9-0.2,1.5-0.4,2.3-0.4c0.1-0.2,0.1-0.4,0.2-0.5c-0.1-0.2-0.1-0.2-0.2-0.4
			c-1.3-0.1-1.5,0.1-2.8,0.1c-4.4,0.1-8.1-0.1-11.4,1.2c-0.8,0.3-1.6,0.1-2.3,0.4c-0.7,0.3-1.4,1-2,1.4c-1,0.6-1.9,0.3-2.7,1.3
			c-0.2,0.3-0.2,0.7-0.4,0.9c-0.1,0.1-0.4,0.3-0.5,0.4c0,0.1-0.1,0.3-0.1,0.4h-0.2c-0.6,0.9-0.8,2-1.4,2.9c-0.5,1-1.6,1.9-2,2.9
			c-0.6,1.5-1.1,3-2,4.2c-0.1,0.3-0.1,0.6-0.2,0.9c-0.3,0.7-0.6,1.7-0.9,2.4c-0.6,1.2-1.3,2.7-1.9,4c-0.4,0.7-0.3,1.5-0.7,2.2
			c-0.1,0.1-0.3,0.2-0.4,0.3c-0.4,0.7-0.8,1.7-1.2,2.4c-0.6,1.2-0.7,3-1.8,3.7l-0.1,0.1c-0.4-1-1.1-1.5-1.6-2.3
			c-0.3-0.5-0.6-1.3-0.7-1.9v-0.7c-0.1-0.2-0.4-0.5-0.5-0.6c-0.2-0.3-0.2-1-0.2-1c-0.2-0.7-0.1-3.1,0.1-3.5c0.1-0.3,0.7-0.6,0.5-1.3
			c-0.1-0.2-0.5-0.4-0.5-0.6c0-0.2,0.1-0.6,0.1-0.9c0-0.8-0.1-2.4,0-2.8c0.1-0.4,0.5-1.5,0.4-2.1c-0.3-2.8,0.5-4.9,0.9-7.4
			c0-0.2-0.1-0.5-0.1-0.7c0.2-0.4,0.3-1,0.4-1.5c0-0.2-0.1-0.4-0.1-0.5c0.2-0.8,0.8-2.1,1-2.9c0.3-1.1,0.2-2.2,0.6-3.1
			c0.2-0.5,0.7-1.3,0.9-1.9c0.5-1.3,0.4-2.4,1-3.7c0.5-1.1,1.4-2,1.8-3.2c2.8-0.4,6.3-1.4,9.1-2.1c0.2,0,0.8,0.2,1.2,0.1
			c2.8-0.6,6-0.5,8.7-1.2c1.9-0.4,3.3,0.1,4.8-0.2c1.2-0.2,2.2,0.3,3-0.2c0.4,0,0.5-0.1,0.7-0.2c0-0.5,0-0.5-0.3-0.6
			c-0.6-0.3-1.7,0.1-2.8-0.1c-1.9-0.4-5.1-0.1-7,0.3c-1,0.2-1.6,0-2.3,0.2c-1.5,0.1-3,0.1-4.5,0.2c-1.9,0.5-3.4,0.6-5.1,1
			c-0.5,0.1-1.7-0.1-2.4,0.2c-0.3,0.1-0.7,0.4-0.9,0.5c-0.6,0.2-1.3-0.2-1.8,0.1c-0.3,0.2-0.3,0.6-0.5,0.8c-0.3,0.3-0.8,0.3-1,0.6
			c-0.3,0.4-0.3,0.9-0.5,1.4c-0.5,1-1.2,2.2-1.7,3.2c-0.1,0.5-0.1,0.9-0.2,1.4c-2.2,5.4-3.3,11.3-4.5,17.7c-0.1,0.4-0.2,2.1-0.1,2.6
			c0,0.1,0.2,0.5,0.1,0.7c-0.2,0.7-0.3,1.5-0.4,2.2c-0.1,0.5,0.2,1.5-0.1,2v0.2c-1-0.1-2.9-1.6-3.4-2.2c-0.2-0.3-0.4-0.7-0.6-1
			c-1.4-1.5-1.9-3.6-2.4-5.7c0.1-0.9,0.1-1.9,0.2-2.8c-0.6-1.9-0.7-5.8-0.2-8.2c1.6-7.8,0.9-17.8,6.1-23.4c0.4-0.4,1.2-1,1.7-1.3
			c0.4-0.2,0.8-0.1,1.2-0.3c0.6-0.3,1.1-0.9,1.8-1.2c1.2-0.4,2.1-0.5,3.1-1c1.3-0.6,3.4-1.7,4.9-1.4c0.2,0,0.5,0.3,0.6,0.3
			c0.5,0.1,1-0.2,1.7-0.2c0,0.5,0.1,0.4,0.2,0.8c0.3,0,0.6,0.2,0.8,0c0.5-0.2,0.5-0.5,0.4-0.9c0.8-0.4,3.4-0.7,4.6-0.5
			c0.2,0,0.7,0.2,1.3,0.1c2.3-0.6,4.5,0.2,7.1-0.2c2-0.4,4.1,0,6.8,0l0.1,0.1c-0.1,0.3-0.2,0.7-0.3,1c0.1,0.1,0.3,0.2,0.4,0.3
			c0.2,0.1,0,0.1,0.2,0c1.2,0,0.8-0.4,1.3-1c0.2-0.2,1.7,0,2.1,0.3l0.2,0.1c-0.3,0.4-1.8,0.6-1.2,1.6c0,0.1,0.1,0.2,0.1,0.3
			c1.7-0.1,1.6-0.9,2.6-1.4c0.6-0.4,1.3,0.2,1.8,0.3c-0.1,0.7-0.9,1.1-1.5,1.3c-0.1,0.2,0,0.1-0.1,0.2c0,0.7,0.1,0.6,0.5,0.9
			c1.2-0.1,1.6-0.7,2.4-0.9c0.5-0.2,1.2,0.7,1.5,1l0.1,0.1h-0.1c-0.1,0.7-0.9,0.8-0.9,1.4c0.1,0.3,0.1,0.3,0.2,0.5
			c0.8,0,1.2,0,1.7-0.4c1,0.1,1,0.9,1.7,1.3c0,0.3,0.1,0.4,0,0.5c-0.2,0.5-1,1.1-1.4,1.5c0.1,0.4,0.1,0.4,0.2,0.7
			c1,0,1.7-0.3,2.1-0.8c0.8,0.1,0.9,0.8,1.4,1.3c0,0.8-0.6,1.2-1.2,1.5c0,0.8,0.1,0.7,0.5,1c0.9-0.1,0.9-0.5,1.6-0.7
			c0.5,0.6,1.1,1.7,1.6,2.1c-0.2,0.6-0.8,1-1.4,1.3c-0.1,1.9,1.7,0.7,2.1,0h0.2c0.3,0.5,1.1,1.7,1.7,2.1c-0.1,0.7-0.9,1.3-1.5,1.5
			c0,0.5,0.1,0.8,0.2,1c0.8,0.1,1.6,0,2-0.6c0.8,0.2,1.2,1.4,1.4,2.2c-0.4,0.4-1,0.7-1.5,1c0,0.6,0.1,0.7,0.3,1
			c0.9,0,1.3-0.2,1.7-0.7c0.8,0.6,0.9,1.5,1.6,2.1c-0.2,0.6-1.2,1.1-1.7,1.4c0,0.8,0.3,0.9,0.9,1c0.3-0.3,0.8-0.4,1-0.7
			c0.2,0,0.3,0,0.4,0.1c0.3,0.2,0.3,0.4,0.6,0.5c0,0.9-0.4,1.6-0.8,1.7c0,0.4,0,0.7,0.1,0.9c0.7,0.2,1.1,0,1.7-0.2
			c0.6,0.8,0.9,1.4,1.3,2.5c-0.5,0.3-1,0.8-1.5,1c-0.1,0.5-0.1,0.6,0.1,0.9c1,0.2,1.2-0.4,2.3-0.4c0.1,0.6,1.2,2.8,1.6,3.2
			c-0.2,0.8-1.1,0.8-1.6,1.3c-0.2,0.2-0.2,0.4-0.1,0.6c0.4,0.8,1.7,0.3,2-0.2c0.6,0.1,0.9,0.6,1,1c0.1,0.2,0,0.2,0.1,0.3
			c-0.2,0.7-0.8,0.6-1.2,1.2c-0.1,0.2-0.1,0.5-0.1,0.6c0.1,0.2,0.2,0.2,0.3,0.4c0.9,0,0.8-0.3,1.5-0.5c0.1-0.1,0,0,0.2-0.1
			c0.3,0.4,0.8,1.7,1.2,2v0.6c-0.2,0-0.5,0.1-0.7,0.1c-0.4,0.2-0.8,0.8-1.3,0.9c0,0.4,0,0.7,0.1,0.9c0.9,0.2,1.8-0.1,2.3-0.6
			c0.6,0.1,1.1,1.1,1,1.5c0,1-1,1.7-1.7,2.1c0,0.6,0.1,0.6,0.3,0.9c1,0,1.7-0.3,1.9-0.9c0.2,0,0.2,0,0.3,0.1
			c0.4,0.2,0.4,0.8,0.7,1.2c0,1.2-0.9,1.5-1.5,2c0,0.3,0,0.4,0.1,0.5v0.2c0.9,0.1,1.6-0.1,2-0.7c0.4,0.4,1.1,1.4,1,1.9
			c-0.1,0.6-1.2,1.3-1.6,1.6c0,0.4,0.1,0.4,0.2,0.6c0.7,0.1,1.6,0,1.9-0.5c0.6,0.2,0.7,0.8,1.2,1c-0.1,0.3-0.1,0.3,0,0.5
			c-0.5,0.3-0.9,0.7-1.4,0.9c0,0.2-0.1,0.4-0.1,0.6c0.1,0.1,0.1,0.2,0.2,0.3c0.2,0,0.5,0.1,0.6,0.2c0.4-0.1,0.9-0.3,1.2-0.6
			c1,0.1,1,1.3,1.7,1.8l-0.1,0.1c0,0.4-0.1,0.4-0.2,0.6c-0.4,0-0.6,0.1-0.7,0c-0.4,0.1-0.4,0.2-0.5,0.5c-0.1,0.2-0.1,0.5-0.1,0.8
			c0.8,0.2,1.6,0.5,2.2-0.2c1.2,0.1,1.1,1.2,1.8,1.8c0,0.2,0,0.2-0.1,0.3c-0.1,0.3-1.2,1-1.5,1.3c0,0.2-0.1,0.4-0.1,0.6
			c0.1,0.1,0.1,0.2,0.2,0.3c0.9,0.2,1.7-0.2,2.1-0.7c0.8,0.1,1.9,1.8,2.1,2.5c-0.4,0.3-1.1,0.5-1.3,1h-0.3c-0.1,0.4-0.1,0.5-0.3,0.7
			c0,0.4,0.1,0.5,0.2,0.7c0.8-0.1,2.1-0.6,2.7-1.3c0.3,0.2,0.9,0.5,1.2,0.8c0.3,0.4,0.2,0.8,0.7,1c-0.1,0.6-1.7,1.8-2.2,2
			c0,0.5,0.1,0.6,0.2,0.8c0.2,0.1,0.1,0,0.2,0.1c1.9,0,1.5-0.9,2.6-1.4c0.9,1.1,1.7,2.3,2.3,3.7c0.9,0,1-0.2,1.5-0.5
			c0-0.3,0-0.4-0.1-0.5c-0.1-0.9-1.3-1.8-1.8-2.4c-0.4-0.6-0.7-1.4-1.2-2c-0.1-0.2-0.5-0.3-0.6-0.5v-0.3c-1.1-1.3-2.4-2.5-3.6-3.9
			c0-0.1,0.1-0.1,0.1-0.2c-0.4-0.6-1.1-1-1.3-1.9h-0.3c-0.1-0.9-0.9-1.5-1.4-2.1c-0.2-0.2-0.1-0.5-0.2-0.7c-0.4-0.6-0.9-1.4-1.4-2
			c-0.4-0.5-0.3-1.2-0.7-1.7c-0.1,0-0.2-0.1-0.3-0.1c-0.8-1.1-0.8-1.9-1.5-3c-1-1.7-2-3.7-2.9-5.4c-0.2-0.4-0.1-0.7-0.3-1.2
			c-0.4-0.9-1.1-1.9-1.5-2.7v-0.6c0-0.1-0.3-0.2-0.3-0.2c-0.3-0.4-0.2-0.9-0.4-1.4c-0.5-1.1-1.3-2.3-1.9-3.4
			c-0.6-1.2-0.9-2.7-1.9-3.6c0,0-0.3-1.2-0.4-1.5c-0.8-1.3-1.4-2.8-2.1-4.3c-1.3-2.6-3-5.8-4.6-8.4c-0.7-1.1-0.9-2.6-1.8-3.5
			c0-0.1,0.1-0.1,0.1-0.2c-0.1,0-0.2-0.1-0.3-0.1c0-0.2-0.1-0.4-0.1-0.6c-0.4-0.6-1.1-1.2-1.5-1.8v-0.4c-0.1,0-0.3-0.1-0.4-0.1V339
			c-0.4-0.4-0.7-0.9-1-1.4c-0.1,0-0.2-0.1-0.3-0.1c-1.3-1.6-2.2-3.6-3.4-5.3l-1-1c-0.8-1.2-1.6-2.2-2.5-3.4
			c-0.1-0.2-0.5-0.2-0.6-0.4c-0.5-0.6-0.9-1.4-1.5-1.9c-2.1-1.8-4.2-2.4-7.2-3.2c-1.2-0.4-5-0.3-5.6-0.6c-0.3-0.3-0.9-2.7-1.2-3.4
			c-0.3-0.7-1.2-2.6-1.5-3.7c-0.3-1-0.2-1.7-0.5-2.7c-0.1-0.3-0.4-0.6-0.5-0.8c-0.2-0.6-0.5-1.6-0.6-2.1c-0.1-0.4,0.1-0.5,0-1
			c-0.1-0.5-0.4-1.2-0.4-1.6c0-0.6-0.9-3-0.6-3.6c0.3-0.6,1.3-0.9,1.8-1.4c0.8-0.8,1.5-1.6,2.2-2.4c0.7-0.9,1.8-1.6,2.6-2.4
			c1.3-1.3,2.1-3,3.2-4.5c1.5-2,3.6-3.6,5-5.6c0.3-0.5,0.4-0.9,0.7-1.5c0.3-0.6,1-1.2,1.4-1.8c1.1-1.9,2.2-3.5,3.4-5.2
			c1-1.5,2.1-3.1,3-4.6c0.5-0.8,0.6-1.7,1-2.5c0.4-0.8,1.2-1.6,1.4-2.6c0.9,1-0.1,3,0.4,3.9c0,1.6-0.6,1.2-1.5,1.8
			c-0.4,0.3-0.4,0.9-0.7,1.3c0,0.5,0,0.6,0.3,0.8c0.4,0.2,1.4-0.5,1.7-0.8c0.5,0.3,0.5,1.7,0.4,2.5c-0.7,0.7-1.6,1.5-2.5,2
			c0,0.2-0.1,0.4-0.1,0.6c0.1,0.1,0.1,0.2,0.2,0.4c0.3,0,0.4,0.1,0.5,0c0.9-0.2,1-0.9,1.9-1.2c0.3,0.9,0.3,1.4,0.2,2.2
			c-0.6,0.3-1.1,0.7-1.7,0.9c0,0.2-0.1,0.5-0.2,0.6c0.1,0.3,0.2,0.3,0.3,0.5c1,0,1.1-0.3,1.8-0.5c0.3,0.5,0.7,1.5,0.3,2v0.3
			c-0.2,0.2-0.6,0.1-0.9,0.2c-0.3,0.3-0.6,0.6-0.8,0.8c0,0.4,0.1,0.4,0.2,0.6c0.4,0,0.6,0.2,0.8,0.2c0.3,0,0.6-0.4,0.8-0.3h0.3
			c0.2,0.7,0.3,1.1-0.1,1.7c-0.1,0.2-1.1,0.8-1.4,0.9c0,0.3,0.1,0.6,0.2,0.7c0.4,0.3,0.9,0.1,1.5,0c0.2,0.5,0.4,2.5,0.1,2.9
			c-0.1,0.2,0,0.1-0.1,0.2c-0.3,0.2-1,0.2-1.3,0.3c-0.1,0.3-0.2,0.5,0,0.7c0.2,0.7,0.8,0.6,1.6,0.5c0.2,0.7,0.3,1.2,0.4,2.1
			c-0.5,0.6-1.1,1.2-1.8,1.7c0,0.6,0.1,0.6,0.4,0.8c0.2,0.2,0.9,0.2,1.3-0.2c0.7,0.2,1.1,1.8,0.6,2.4c-0.2,0.5-0.9,0.2-1.3,0.5
			c-0.2,0.2-0.1,0.5-0.4,0.6c0.1,0.4,0.1,0.4,0.2,0.7c0.8,0.1,1.1-0.1,1.8-0.2c0.2,0.4,0.7,1.3,0.3,1.9c-0.2,0.4-1.4,1-1.8,1.2
			c-0.1,0.2,0,0.1-0.1,0.2c0,0.7,0.2,0.5,0.5,0.8c0.7,0,1.1-0.3,1.5-0.6c1,0.2,0.8,1.3,1,1.9c-0.1,0.3-1.5,1.3-1.8,1.5
			c0,0.4,0,0.3,0,0.5l0.4,0.4c0.9,0,1.1-0.4,1.8-0.7c0.2,0.3,0.4,0.9,0.6,1.2c0,1.3-0.9,1.1-1.5,1.8c-0.1,0.2-0.1,0.7-0.2,0.8
			c0.2,0.1,0.2,0.1,0.3,0.3c0.8,0,1.3-0.2,1.6-0.7h0.5c0,0,1.1,2.3,0.6,2.8c-0.1,0.1-1.6,0.7-1.8,0.8c0,1.4,1.3,1.2,1.9,0.5
			c0.4,0,0.7,0.3,0.8,0.5v0.1c-0.3,0.3,0.6,1.8,0.4,2.1c-0.2,0.5-0.8,0.5-1.3,0.8c-0.3,0.2-0.4,0.5-0.6,0.7c0,0.6,0.2,0.5,0.3,0.8
			c0.3,0,0.2,0.1,0.3,0c0.8,0,1.2-0.4,1.6-0.8c0.9,0.2,0.9,1.6,1.2,2.1c-0.1,0.5-1.3,1.4-1.7,1.6c0,0.6,0.1,0.7,0.3,1
			c0.9,0,1.4-0.4,1.8-0.8c0.8,0.2,1,1.4,1.5,2c0,1-0.9,1.4-1.5,1.9c0,0.3,0.1,0.4,0.2,0.6c0.7,0.2,1.4,0.1,1.7-0.4
			c1,0.1,1.1,1.4,1.7,2c0,0.8-1,1.6-1.5,1.9c0,0.2,0.1,0.5,0.1,0.7l0.1,0.1c1,0,1.3-0.3,1.9-0.6c0.1-0.1,0.1,0,0.3,0.1
			c0.6,0.2,1.1,1.6,1.3,2.2l-1.6,1.6c0,0.4,0,0.4,0,0.6c0.1,0.1,0.2,0.1,0.3,0.2c0.1,0.1,0.2,0,0.4,0.1c0.5-0.2,0.9-0.5,1.2-1
			c1,0.2,0.8,1.5,1.6,2c0,1.1-0.2,0.6-0.7,0.8c-0.2,0.1-0.2,0.3-0.5,0.3c-0.1,0.8,0,1.1,0.3,1.7c0.4,0,0.3,0,0.5,0l0.9-0.9
			c0.2,0,0.4,0.1,0.6,0.1c0.2,0.5,0.4,1.2,0.8,1.6c0,0.9-0.5,1.5-1,1.9c0,0.3,0,0.4,0.1,0.5c0.1,0.2,0.1,0.2,0.2,0.4
			c0.3,0,0.4,0,0.6-0.1c0.5-0.1,0.6-0.3,0.8-0.6c0.2,0,0.2,0,0.3,0.1c0.5,0.2,1.5,1.7,1.6,2.4c-0.2,0-0.2,0-0.3,0.1
			c-0.8,0.1-1,0.6-1.4,1c0.1,0.4,0.1,0.3,0.2,0.6c0.3,0,0.7,0.1,1,0.1c0.3-0.3,0.7-0.8,1.2-1c0.4,0.5,1.2,1.8,1.7,2.1l-0.1,0.1
			c-0.1,0.5-1.2,1.6-1.6,1.9c0,0.2,0,0.2,0.1,0.3c0,0.1,0.1,0.2,0.1,0.3c0.9,0.1,1.7-0.1,2.1-0.8c0.6,0.1,1.1,0.4,1.5,0.8
			c0.1,0.1,0.1,0.2,0.2,0.3c0,0.9-0.9,1.3-1.5,1.6c0,0.5,0.1,0.7,0.2,0.9c1.2,0,1.3-0.4,1.9-0.8c0.3-0.2,1.5,1.1,1.7,1.5
			c0.1,0.2,0,0.2,0.1,0.3c-0.2,0.3-0.8,0.8-1.2,1c0,0.3,0.1,0.3,0,0.5c0,0.1,0.1,0.2,0.1,0.3c0.7,0.2,1.4,0.1,1.8-0.4
			c0.8,0,0.7,0.4,1.2,0.7c0,0.7-0.2,1.1-0.6,1.6c0.1,0.5,0.2,0.4,0.4,0.7c0.7,0,1-0.4,1.4-0.4c0.7,0.1,1.7,1,2.1,1.5
			c1,0,2.1-0.4,2.8-0.8c0.3-0.2,0.3-0.5,0.6-0.6c0-0.2,0-0.2,0.1-0.3C487.1,360.2,486.5,360.6,486,359.9z M379.4,364h-1
			c-1.6-0.4-3.2-0.4-4.9-0.8c-3-0.8-6.2-1.5-8.7-2.8c-1.3-0.7-4.3-1.3-4.8-2.5c-0.6-0.9,0.7-2.7,0.7-3.4c1.1-0.5,2.2-1.3,3.5-1.7
			c0.7-0.2,1.2,0,1.9-0.2c1.1-0.3,2-0.5,3-0.6c0.6-0.1,1.7,0.2,2.5,0c0.9-0.2,3.8-0.5,4.7-0.2c0.9-0.2,2-0.2,3.1,0
			c0.3,0,0.6-0.1,0.9-0.1c0.7,0.2,2,0.2,2.4,0.3c0.9,0.2,1.6-0.3,2.3,0.1c0.7,0,1.4,0,1.8,0.2c0,2-0.3,3.9-0.4,5.3
			c0,0.3,0.3,0.7,0.3,0.9c0.1,2.1,0.2,4.3,0.3,6.4C384.3,365,381.9,364.7,379.4,364z M422.8,261.7v0.5c-0.1,0.1-0.4,0.1-0.5,0.2
			c-0.1,0.1-0.2,0.4-0.3,0.5c0,0.4,0,0.5,0.2,0.7c-0.2,0.1-0.7,0.2-0.8,0.3c0,0.9,0.1,1.1,0.6,1.5v0.3c-0.2-0.1-0.5-0.3-0.7-0.4
			c-1,0.1-0.6,1.5-0.3,2.2h-0.1c-0.1,0.1,0,0-0.2,0.1c-0.1-0.2-0.1-0.2-0.1-0.5c-0.2,0.1-0.1,0-0.2,0.1c-1,0.1-0.5,0.8-1,1.3
			c-0.4,0.3-0.7,0.2-0.9,0.6c-0.5,0-0.7-0.1-0.9,0V269c-0.2-0.3,0.1-1.5,0-2c-0.3-1.1-0.2-2.9-0.5-4.5l0.7-0.7
			c0.2,0,0.5-0.1,0.7-0.1c0.5-0.2,1.3-0.8,1.8-0.9c0.3-0.1,0.5,0.1,0.8-0.1c0.3,0,0.5,0,0.6,0.1c0.6,0,1,0,1.4,0.2
			C422.9,261.3,422.9,261.5,422.8,261.7z M416.7,254.3c0.2-0.3,0.6-0.4,0.8-0.6h0.3c0.4,0.9,1.1,1.5,1.6,2.4c0.2,0.1,0.1,0,0.2,0.1
			c0.7,0,0.5-0.2,0.8-0.6c0.1-0.1,0,0,0.2-0.1c0,0,0.1,0.1,0.1,0.1c0,0.5-0.2,0.7-0.1,0.9c0,0.4,0.1,0.4,0.2,0.7
			c0.4,0,1.3,0,1.5,0.1c0.7,0.3,0.4,0.9,0.5,0.9l0.6,0.2c0,0.2,0,0.2-0.1,0.3c-0.1,0.1,0,0-0.2,0.1c-0.1-0.2-0.1-0.3-0.2-0.5
			c-0.2,0.1-1.3,0.5-1.4,0.5c-0.2-0.1-0.5-0.3-0.6-0.5c-0.6,0-1,0.1-1.3,0.4c-0.2-0.2-0.3-0.5-0.4-0.7c-0.7,0-0.7,0.3-1.3,0.4
			c-0.1-0.2-0.2-0.4-0.3-0.6c-0.5,0.1-0.5,0.2-0.8,0.3C416.6,257.6,416.4,254.8,416.7,254.3z M403.1,267c-0.1,0.1-0.1,0.1-0.3,0.1
			c0,0.5,0.2,2.7,0.1,3c-0.1,0.4-0.3,0.7-0.3,1.2c-0.4,0.1-0.8-0.2-1.3,0c-0.3,0.1-0.2,0.3-0.6,0.4c0-0.2-0.1-0.4-0.1-0.6
			c-0.4-0.2-0.5-0.1-0.9-0.1c-0.1,0.2-0.2,0.5-0.3,0.6v0.1c-0.4-0.2-0.4-1.1-0.5-1.5c-1.8,0-0.7,1.3-1,2v0.2h-0.2
			c-0.1-0.1,0,0-0.2-0.1c0-1.2-0.2-2.2-0.6-2.9c-0.6,0.1-0.7,0.3-1.2,0.4l-0.3-0.9c-0.3-0.4-0.6-0.3-1.2-0.2c-0.1-0.7-0.3-1.5-0.6-2
			c-0.6,0-0.7,0.1-1,0.3c-0.1-0.2-0.2-0.4-0.3-0.5c0-0.8,0-1.2-0.3-1.7c-0.4,0-0.5,0-0.7,0.2c-0.6-0.2-0.7-0.7-1.3-0.9
			c0-1.6,1.3-3,2.5-3.4c0.5-0.1,1.4,0.1,1.7,0c0.9-0.4,1.9-0.5,3-0.2c1.4,0.4,2.6,1.2,3.9,1.6c0.3,0.1,0.7-0.1,0.8-0.1
			c0.6,0.1,1.2,0.3,1.7,0.4c-0.1,1.2-0.1,2.1-0.4,3.4C402.9,266.2,402.8,266.8,403.1,267z M391,259.3c0.1,0.1,0.3,0.1,0.1,0.3
			C391,259.5,391.1,259.4,391,259.3z M402.9,259.6v0.2c-0.3-0.3-0.3-0.9-0.5-1.3c0,0-0.1-0.1-0.1-0.1v0.1c-0.6,0-0.9,0.3-1,0.7H401
			c-0.4-0.4-0.6-1.2-0.8-1.7c-0.2,0-0.2,0-0.3,0.1c-0.5,0.1-0.6,0.3-0.7,0.7c-0.1,0.1,0.2,0.7,0.4,0.9v0.4c-0.2-0.1-0.1,0-0.2-0.1
			c-0.2-0.1-1.2-1.8-1.3-2.1c-0.3-0.1-0.5-0.2-0.7,0c-0.3,0.1-0.4,0.3-0.4,0.7c-0.5-0.2-0.8-0.7-1.2-1c-0.6,0-0.9,0-1,0.4
			c-0.1,0.2,0.1,0.7,0.1,1.2h-0.3c-0.1-0.3-0.3-0.7-0.4-1c-0.3-0.1-0.9-0.2-1.2-0.3c-0.9,0.1-1.8,1.7-2.8,1.2
			c-0.1,0-0.2-0.1-0.3-0.1c0.1-0.3,0.1-0.2,0.2-0.5c0.3,0,0.3,0.1,0.4,0c0.6-0.1,1.1-0.6,1.3-1v-0.5c0.2-0.2,0.8-0.2,1-0.4
			c0.3-0.4,0.3-1.1,0.6-1.5c0.4-0.3,0.4,0.1,0.8,0c0.1,0,0.2-0.2,0.4-0.2c0.1-0.5,0.2-1,0.2-1.7c0,0,0.1-0.1,0.1-0.1
			c0.4,0.1,0.7,0.3,0.8,0.5c0.6,0,0.6-0.2,0.8-0.6c0.2,0,0.3,0,0.4,0.1c1.2-0.1,1.2-1.2,1.8-1.9v-0.2c0.5,0.3,0,0.4,0.2,0.7
			c0,0.1,0.2,0.1,0.3,0.2c0.4,0,0.9-0.1,0.9-0.1h0.2v0.3h0.3v0.3c0.3,0,0.7,0,0.8-0.1c0.1-0.1,0.1-0.1,0.1-0.3
			c0.2,0.1,0.2,0,0.3,0.1c-0.1,0-0.2,0.1-0.1,0.2h0.2c0.2,0.1,0.3,0.4,0.4,0.5c0.5,0.4,1.1-0.3,1.6,0.6c0.4-0.1,0.3-0.2,0.8-0.2
			c0.1-0.2,0.2-0.4,0.3-0.6c0.2,0,0.4,0.1,0.6,0.1c-0.1,1-0.5,1.9-0.7,2.7c-0.4,1.2-0.2,2.5-0.7,3.5
			C404.3,258.6,403.1,259.4,402.9,259.6z M422.9,311.3h-0.1c-0.1,0.1-0.4-0.1-0.7,0c-0.7,0.2-1.3,0.6-2.1,0.7c0,0.3,0,0.6,0.1,0.7
			c0.2,0.3,0.3,0.2,0.4,0.4c1.3,0,1.7-0.7,2.5-1.2l0.3,0.3c0.1,0.1,0.5,1.6,0.4,1.8c-0.1,1-1.9,1.3-2.7,1.6c0,0.3,0.1,0.3,0,0.4
			c0.1,0.3,0.3,0.4,0.4,0.6c1.1,0,1.9-0.2,2.3-0.8c1.1,0.1,0.9,1.6,1.4,2.3c0,0.3,0,0.6-0.1,0.7c-0.2,0.1-0.8,0.1-1,0.2
			c-0.8,0-0.8,0.2-1.2,0.5c0.1,0.4,0.2,0.5,0.3,0.7c0.5,0.1,1.6,0.2,2.1-0.1c0.5,0,0.6,0.1,0.7,0.5c0.1,0.2,0.1,0.5,0.1,0.8
			c-1,0.1-2.5,0.1-3.2,0.1c-0.3,0-1.2,0.3-1.7,0.1c-0.1-0.1-0.4-0.4-0.6-0.4c-1.3-0.4-2.7,0.3-3.6,0.5c-1.3,0.3-2.6-0.1-3.9,0.2
			c-0.4,0.1-1-0.1-1.3,0.1h-1.5c-0.3-1.3-0.9-2.8-1.4-4c-0.5-1.2,0-2.8-0.4-4.1c-1.3-4.4-1.7-9.7-2.8-14.3c0-0.7-0.1-1.3-0.1-2
			c-0.9-3.1-0.5-7-1.2-9.9c-0.3-1.1,0.1-1.9-0.1-2.8c-0.4-1.9-0.4-4.3-0.5-6.1c-0.1-0.9,0.4-2.5,0.1-3.6c-0.2-0.8-0.2-1.5,0-2.4
			c0.1-0.5-0.1-0.7-0.1-0.9c0.1-0.9,0.1-2.7,0.2-3.5c0.3-1.8-0.2-3.3,0.3-4.9c0.2-0.5,0.5-1.5,0.6-2c0.1-0.4-0.1-1.4,0.1-2.1
			c0.8-2.6,1.5-5.8,2.4-8.2c0.2-1,0.5-2,0.7-3c0.3-0.6,1.3-0.7,1.7-1.3h0.6v-0.3c0.4,0,1.5-0.1,1.7,0c0.4,0.2,0.7,0.5,1,0.7
			c-0.1,0.1,0,0-0.2,0.1c0.1,0.3,0.2,0.2,0.3,0.4h0.3c0.1,1,1,1.9,1.3,2.8c0,0.4,0.1,0.8,0.1,1.3c0.1,0.3,0.4,0.9,0.4,1.3
			c-0.1,0.3-0.3,0.8-0.2,1.3c0.2,1,0.6,2.7,0,3.4c-0.2,0.1-0.5-0.1-0.9,0c-0.2,0.1-0.4,0.3-0.5,0.4c0.1,0.5,0.2,0.5,0.4,0.8
			c0.6-0.1,0.8-0.3,1.3-0.5c0.4,1.1,0,3,0.4,4.3c0.2,0.5-0.1,1.5-0.2,1.7c-0.4,0.5-1.2,0.4-1.8,0.7c-0.1,0.1-0.1,0.2-0.2,0.3
			c0.1,0.3,0.2,0.3,0.2,0.6c0.7,0.1,1.3,0,1.9-0.1c0.1,0.1,0.1,0.1,0.2,0.2c0,0.7,0,1.8-0.1,2c-0.2,0.3-1.7,1-2.1,1.2
			c0.1,0.3,0.2,0.6,0.3,0.8c1,0.2,1.2-0.2,1.9-0.4c0.1,0.1,0.1,0.1,0.2,0.2c0,0.5,0.3,1.7,0.1,2.1c0,0.4-0.1,0.4-0.2,0.6
			c-0.3,0-0.7,0-0.9,0.1c-0.5,0-0.6,0.1-0.9,0.3c0,0.2,0.1,0.5,0.1,0.7c0.8,0.1,1.3,0.2,2.1,0.1c0.1,0.5,0.3,0.8,0.3,1
			c0.1,1.8-0.7,1.6-1.8,2.2c-0.1,0.2,0,0.1-0.1,0.2c0.1,0.6,0.6,0.7,1,0.8c0.1,0.1,0.7-0.2,1,0c0.4,0.2,0.8,2.5,0.4,2.9
			c0,0-2.2,0.6-2.4,0.6c-0.1,0.2,0,0.1-0.1,0.2c0.1,0.4,0.1,0.4,0.3,0.6c0.6,0.4,1.8,0.1,2.1-0.3c0.4,0.1,0.3,0.1,0.6,0.2
			c0.1,0.6,0.5,1.2,0.2,1.7c0,1-1.4,1.1-2.1,1.4c0.1,0.7,0.4,0.6,0.7,1c0.8,0.1,1-0.1,1.6-0.4c0.2,0.4,0.5,1.5,0.3,1.9
			c-0.1,1-1.4,1.3-2.1,1.7c0,0.3,0,0.5-0.1,0.7c0.1,0.1,0,0,0.1,0.2c1.3,0.1,1.7-0.6,2.2-0.5c0.6,0.3,0.9,2.8,0.8,3.4v0.8
			c-0.2,0.4-1.2,0.3-1.7,0.5c-0.3,0.1-0.3,0.4-0.6,0.5c0.1,0.2,0.1,0.2,0.1,0.4c0.2,0.1,0.2,0.1,0.3,0.3c1,0.1,1.7-0.1,2.4,0
			c0.1,0.9,0.3,1.9,0.3,2.7c-0.8,0.4-2.1,0.5-2.5,1.3c0,0,0.1,0.4,0.2,0.6c0.8,0.2,1.7,0.2,2.2-0.4c0.3,0,0.4,0,0.5,0.1
			c0.1,0.6,0.4,1.3,0.1,1.8c-0.2,0.6-1.9,1.2-2.5,1.5c-0.1,0.1-0.1,0.3-0.2,0.4c0.1,0.3,0.3,0.4,0.4,0.6c1,0,2-0.1,2.3-0.7
			c0.2,0,0.3,0,0.4,0.1c0.1,0.5,0.5,1.1,0.5,1.6c0,0.3-0.1,0.5,0,0.7c-0.9,0.5-1.9,0.7-2.7,1.2c0,0.3-0.1,0.2,0,0.3
			c0,0.5,0.1,0.6,0.5,0.6c0.7,0.3,1.7-0.7,2.2-0.9c0.1-0.1,0,0,0.2-0.1C422.5,309,422.7,310.5,422.9,311.3z M407.2,235.6
			c1.6,0.4,2.2-0.1,2.9-1.2c1.3-1,3.4,0.5,4.1,1c0.3,0,0.6,0,0.8-0.1c-0.1-0.4-0.3-1.2-0.5-1.5c-0.9-1.2-3.2-1.2-5-1.3
			c-0.9,0.6-2,0.3-2.4,1.4c-0.2,0.2-0.2,0.6-0.1,0.7C407,235.2,407.1,235.2,407.2,235.6z M398.1,234.3c0.4,0.1,0.5,0.6,0.8,0.7
			c0.5,0.2,1.4,0.2,1.8-0.1c0.1,0,0.1-0.1,0.2-0.1c0-1.9-2.3-1.7-3.6-1.9c-0.6,0.4-1.7,0.2-2.4,0.4c-0.7,0.2-1.1,0.8-1.8,1v0.5
			C394.6,235.2,396.8,233.9,398.1,234.3z M414.6,255.5c0.1-0.2,0-0.1,0.1-0.2c0-0.4-0.1-0.5-0.2-0.7H414c-0.1,0.1,0,0-0.2,0.1
			c0,0.5,0.1,0.5,0.2,0.8L414.6,255.5L414.6,255.5z M415,261.8c0-0.3,0-0.4-0.1-0.6c-0.3,0-0.6-0.1-0.8-0.1
			c-0.2,0.2-0.5,0.4-0.7,0.5c0.1,0.5,0.2,0.4,0.3,0.7C414.6,262.3,414.6,262.2,415,261.8z"/>
	</g>
</g>
<g>
	<g>
		<path class="st1" d="M405,252.7c-0.5,0-0.4,0.1-0.8,0.2c-0.5-0.9-1-0.2-1.6-0.6c-0.1-0.1-0.2-0.4-0.4-0.5h-0.2
			c-0.1-0.1,0-0.2,0.1-0.2c-0.1-0.1-0.1-0.1-0.3-0.1c0,0.2,0,0.2-0.1,0.3c-0.2,0.1-0.5,0.1-0.8,0.1v-0.3h-0.3v-0.3h-0.2
			c-0.1,0-0.5,0.1-0.9,0.1c-0.1-0.1-0.3-0.1-0.3-0.2c-0.2-0.4,0.3-0.4-0.2-0.7v0.2c-0.6,0.6-0.6,1.8-1.8,1.9
			c-0.1-0.1-0.2-0.1-0.4-0.1c-0.2,0.4-0.2,0.6-0.8,0.6c-0.2-0.3-0.5-0.4-0.8-0.5c0,0-0.1,0.1-0.1,0.1c0,0.6-0.1,1.2-0.2,1.7
			c-0.2,0-0.3,0.2-0.4,0.2c-0.4,0.1-0.4-0.3-0.8,0c-0.3,0.4-0.3,1.1-0.6,1.5c-0.2,0.3-0.8,0.2-1,0.4v0.5c-0.2,0.4-0.7,1-1.3,1
			c-0.1,0.1-0.1,0-0.4,0c-0.1,0.3-0.1,0.2-0.2,0.5c0.1,0,0.2,0.1,0.3,0.1c1.1,0.6,1.9-1,2.8-1.2c0.2,0.2,0.9,0.2,1.2,0.3
			c0.1,0.3,0.3,0.7,0.4,1h0.3c0-0.5-0.2-0.9-0.1-1.2c0.2-0.5,0.4-0.4,1-0.4c0.3,0.3,0.7,0.9,1.2,1c0-0.5,0.1-0.6,0.4-0.7
			c0.2-0.2,0.4-0.1,0.7,0c0.1,0.3,1,2,1.3,2.1c0.1,0.1,0,0,0.2,0.1v-0.4c-0.2-0.2-0.5-0.8-0.4-0.9c0.1-0.5,0.2-0.7,0.7-0.7
			c0.1-0.1,0.1-0.1,0.3-0.1c0.3,0.5,0.5,1.2,0.8,1.7h0.2c0.1-0.5,0.4-0.7,1-0.7v-0.1c0,0,0.1,0.1,0.1,0.1c0.3,0.3,0.3,0.9,0.5,1.3
			v-0.2c0.2-0.2,1.5-1,1.6-1.2c0.6-1,0.4-2.2,0.7-3.5c0.2-0.8,0.7-1.7,0.7-2.7c-0.2,0-0.4-0.1-0.6-0.1
			C405.2,252.3,405.1,252.5,405,252.7z M422.9,258.3c-0.1-0.1,0.2-0.6-0.5-0.9c-0.2-0.1-1.1-0.1-1.5-0.1c-0.1-0.3-0.2-0.3-0.2-0.7
			c-0.1-0.2,0.1-0.5,0.1-0.9c0,0-0.1-0.1-0.1-0.1c-0.2,0.1-0.1,0-0.2,0.1c-0.3,0.4-0.1,0.6-0.8,0.6c-0.1-0.1,0,0-0.2-0.1
			c-0.5-0.9-1.1-1.5-1.6-2.4h-0.3c-0.2,0.2-0.7,0.3-0.8,0.6c-0.3,0.5-0.1,3.3,0.2,3.9c0.4-0.1,0.3-0.3,0.8-0.3
			c0.1,0.2,0.2,0.4,0.3,0.6c0.5-0.1,0.6-0.4,1.3-0.4c0.1,0.3,0.2,0.5,0.4,0.7c0.3-0.3,0.6-0.4,1.3-0.4c0.2,0.2,0.4,0.4,0.6,0.5
			c0,0,1.1-0.5,1.4-0.5c0.1,0.2,0.1,0.3,0.2,0.5c0.2-0.1,0.1,0,0.2-0.1c0.1-0.1,0.1-0.1,0.1-0.3L422.9,258.3z M403.4,262.4
			c-0.5-0.1-1.1-0.3-1.7-0.4c-0.1,0-0.5,0.2-0.8,0.1c-1.3-0.4-2.5-1.2-3.9-1.6c-1.1-0.3-2.1-0.2-3,0.2c-0.2,0.1-1.2-0.1-1.7,0
			c-1.3,0.4-2.5,1.7-2.5,3.4c0.6,0.3,0.7,0.8,1.3,0.9c0.2-0.2,0.3-0.2,0.7-0.2c0.3,0.4,0.3,0.9,0.3,1.7c0.1,0.1,0.2,0.3,0.3,0.5
			c0.4-0.2,0.5-0.3,1-0.3c0.3,0.5,0.5,1.3,0.6,2c0.6-0.1,0.8-0.2,1.2,0.2l0.3,0.9c0.5-0.1,0.6-0.4,1.2-0.4c0.4,0.8,0.6,1.7,0.6,2.9
			c0.2,0.1,0.1,0,0.2,0.1h0.2v-0.2c0.4-0.7-0.7-2,1-2c0.2,0.4,0.2,1.3,0.5,1.5v-0.1c0.1-0.2,0.2-0.4,0.3-0.6c0.5,0,0.5-0.1,0.9,0.1
			c0,0.2,0.1,0.4,0.1,0.6c0.4-0.1,0.4-0.3,0.6-0.4c0.5-0.2,0.9,0.1,1.3,0c0-0.5,0.2-0.8,0.3-1.2c0.1-0.4-0.1-2.5-0.1-3
			c0.2,0,0.2,0,0.3-0.1c-0.3-0.2-0.2-0.8-0.1-1.3C403.3,264.4,403.3,263.5,403.4,262.4z M420.9,260.6c-0.3,0.2-0.5,0-0.8,0.1
			c-0.5,0.1-1.3,0.7-1.8,0.9c-0.2,0-0.5,0.1-0.7,0.1l-0.7,0.7c0.3,1.6,0.2,3.4,0.5,4.5c0.1,0.5-0.2,1.7,0,2v0.1c0.3-0.1,0.5,0,0.9,0
			c0.3-0.4,0.6-0.3,0.9-0.6c0.6-0.4,0.1-1.1,1-1.3c0.1-0.1,0,0,0.2-0.1c0,0.3,0,0.4,0.1,0.5c0.2-0.1,0.1,0,0.2-0.1h0.1
			c-0.3-0.7-0.7-2.1,0.3-2.2c0.2,0.1,0.5,0.3,0.7,0.4v-0.3c-0.5-0.4-0.7-0.6-0.6-1.5c0.2-0.1,0.7-0.2,0.8-0.3
			c-0.2-0.2-0.2-0.4-0.2-0.7c0.1-0.1,0.2-0.4,0.3-0.5c0.1-0.1,0.5-0.1,0.5-0.2v-0.5c0.1-0.2,0.1-0.3,0.1-0.7
			c-0.3-0.2-0.8-0.2-1.4-0.2C421.4,260.6,421.2,260.6,420.9,260.6z"/>
	</g>
</g>
</svg>
