<?xml version="1.0" encoding="utf-8"?>
<!-- Generator: Adobe Illustrator 21.0.0, SVG Export Plug-In . SVG Version: 6.00 Build 0)  -->
<svg version="1.1" id="Calque_1" xmlns="http://www.w3.org/2000/svg" xmlns:xlink="http://www.w3.org/1999/xlink" x="0px" y="0px"
	 viewBox="0 0 841.9 595.3" style="enable-background:new 0 0 841.9 595.3;" xml:space="preserve">
<style type="text/css">
	.st0{fill:#DADADA;}
</style>
<ellipse class="st0" cx="431.6" cy="367.8" rx="181.1" ry="14.8"/>
<g>
	<g>
		<path d="M602.1,250.5c-0.1-1.1-0.3-1.1-1.5-2.2c-5.5,0.5-10.7,1-16.3,1.1c0.6-0.7,1.2-1.5,1.8-2.2c-0.3-0.9-0.7-1.8-1-2.7
			c-1.3-0.6-2.5-1.1-3.8-1.7c-0.7,0.7-1.4,1.3-2.1,2c0.1,1.7,0.1,2.6,1.2,4.2c-1.4,0.7-1.9,0.7-3.3,2.4c-0.1-0.1-0.2-0.2-0.3-0.2
			c-0.3-2.2,1.5-4.2,0.6-6.5c-0.5-0.5-1-1.1-1.4-1.6c-0.9,0.2-1.8,0.4-2.8,0.5c-3.1,1.5-1.7,4.2,0.1,6.1c0,0.6,0,1.2-0.1,1.8
			c-10.5,2-20.9,4-31.4,6c-10.3,4-17,7.4-27.8,6.1c-1.8,1.6-2.7,3.3-4.5,3.8c-0.7-0.1-0.3-1.2-1.7-1.9c-0.4-0.1-0.7-0.3-1.1-0.4
			c-0.5,0.4-0.9,0.8-1.4,1.2c0.2,0.8,0.3,1.5,0.5,2.3c-1.2,0.4-2.5,0.8-3.7,1.1c-2.9,0-4.4,0.8-6.4-2.4c-6.2,0.4-11,2.4-16.4,5.2
			c-0.1,0.3-0.1,0.5-0.2,0.8c0.2,0.3,0.4,0.6,0.6,1c0.6,0.5,1.1,0.9,1.7,1.4c0.2-0.8,0.4-1.6,0.5-2.4c3.6-1.3,6.6-1.2,9.8-4.1
			c2.5,0.1,3,0.2,5.4,2.5c-0.1,0.1-0.2,0.2-0.2,0.3c-4.7,0.8-9.4,1.6-14.1,2.5c-0.1,0.1-0.2,0.2-0.2,0.3c-0.2,0.3-0.5,0.6-0.7,0.8
			c0.3,0.2,0.6,0.5,0.8,0.7c6.1,0.2,17.4-6.3,21.3-4.5c-2.9,0.3-6.8,2.3-9.9,3.6c-0.2,0.3-0.5,0.6-0.7,0.8c0.3,0.2,0.6,0.5,0.8,0.7
			c2.7,0.1,6.5-0.9,8.9-3.5c0.3,0.9,0.7,1.8,1,2.7c-1.8,1.8-1.9,1.4-3.6-0.1c-2.3,0.7-5.6,2.5-8,1.8c-2.5,7.6,0.7,5.9,0.4,11.5
			c-0.2,0.3-0.5,0.6-0.7,0.8c-0.1-0.1-0.2-0.2-0.3-0.2c0.4-1.3,0.5-1.1,0-2.3c-0.7-1-1.4-1-2.7-1.3c0.4-2.4,0.9-4.9,1.3-7.3
			c-2.3,0.4-4.7,0.8-7,1.2c-1.7,2.7-0.8,4.3-2.2,6.1c0.8,0.9,1.6,1.9,2.3,2.8c-0.1,0.9-0.2,1.7-0.2,2.6c-0.4,0.6-0.7,1.3-1.1,1.9
			c-0.7,0.1-1.4,0.1-2,0.2c-0.4-0.3-0.7-0.6-1.1-0.9c-0.1-0.2-0.2-0.5-0.3-0.7c2.2-4,2.4-5.9,2.6-9.5c-0.4-0.5-0.8-0.9-1.2-1.4
			c-0.2,0.2-0.3,0.4-0.5,0.6c-1.2,0.1-2.4,0.2-3.5,0.4c-2,2.9-1.2,4.3-1.9,6.8c0.7,0.7,2.1,1.6,2.3,2.8c-2.2-1.4-2.8-1.1-4.7-1.1
			c-0.3,0.5-0.6,1.1-0.9,1.6c0,0.3,0.1,0.7,0.1,1c0.5,0.4,0.9,0.8,1.4,1.1c1.5-0.1,1.7,0.2,3.2-1.1c0.1,0.1,0.2,0.2,0.3,0.2
			c-0.9,0.8-1.9,1.6-2.8,2.3c-1-0.7-2-1.3-3-2c-0.7-3.1,4.4-6,3.4-9.8c-3.9-1.2-13.1,2.1-16.7,4c-0.3-0.1-0.5-0.1-0.8-0.2
			c2.3-3.2,10.6-5.2,14.3-5c0.3-0.4,0.6-0.7,0.9-1.1c-3.9-2.3-7.1-2.5-10.6-0.7c-3.8-0.1-4-1.1-7.1-1.6c0-1.2-0.3-0.9,0.5-2.4
			c0.1-0.1,0.2-0.2,0.2-0.3c1.9,0.6,1.3,1.7,3.5,3.7c0.4-0.1,0.8-0.3,1.2-0.4c0.2,0,0.3,0,0.5-0.1c0.2-0.3,0.5-0.6,0.7-0.8
			c-0.8-0.2-1.6-0.4-2.4-0.5c-0.2-0.3-0.4-0.6-0.6-1c0.3-0.8,0.7-1.6,1-2.4c0.4,0,0.9,0.1,1.3,0.1c1.5,0.5,1.5,1,1.3,2.4
			c2.6,0.4,5.2,0.8,7.8,1.3c0.2-0.1,0.5-0.2,0.7-0.3c0.1-1.3,0.2-2.6,0.4-3.9c0.7,1.2,1.4,2.4,2.2,3.6c3,0.1,5.9-0.9,8.8-1.7
			c0.1-0.4,0.3-0.7,0.4-1.1c-2.7-1.1-5.6,0.5-8.1,1.3c-0.9-1.4-1.8-2.7-2.7-4.1c-1.6,0.7-2.4,1.7-2.7,3.3c-1.3,0.2-2.5,0.4-3.8,0.6
			c-1.1-1.1-2.3-2.2-3.4-3.2c-1.7-0.4-16.9,4.9-18.8,6c-1.2,2-2.3,4-3.5,6c-3.2,0.8-6.3,1.7-9.5,2.5c-1.9-0.3-1,0-2.5-1.5
			c-3,0.8-7.1,0.3-8.4,3.4c-0.5,0.1-1,0.1-1.5,0.2c0-1.4,0.1-2.7,0.1-4.1c-1.8-1.4-2.1-1.5-3.7-1.2c-3.1,2.6-3.4,5.4-3.5,8.3
			c-4.1,0-7.4,2.6-11.7,0.7c-1.5,0.6-1.8,1.3-3.1,2.1c-0.3,0.2-0.6,0.4-1,0.6c-0.7-1-1.4-2.1-2.1-3.1c-0.7,0.1-1.4,0.1-2,0.2
			c-1.8,1.4-2.4,2.8-2.9,4.6c-3.7,1-9.6,3.3-13.5,3.4c-2.2,0.1-3.8-1.3-6-0.7c-1.3,1-2.5,2-3.8,2.9c-16.1,3.9-32.1,7.9-48.2,11.8
			c-11.1,2.4-22.9,2.9-34,5.7c-7.5-0.1-15-0.2-22.5-0.3c-6.5-2.8-6.6-8.2-12.8-5.4c-4.2,1.9-4.8,10-5.4,12.8
			c-1.5,8-0.2,39.2,15.6,40.6c7.8,0.7,6.8-6.7,8.7-7.8c4.5-3.2,8.9-6.4,13.4-9.5c8.8-4.7,45.1-19.1,53.1-18.4
			c0.4,0.6,0.8,1.3,1.2,1.9c6.7,0.4,11.4-5.6,18.1-2.9c11-8.8,24.5-5.5,36-11.1c0.1-0.1,0.2-0.2,0.2-0.3c-0.3-0.2-0.6-0.5-0.8-0.7
			c-2.9,0.6-5.9,1.1-8.8,1.7c0.1-0.3,0.1-0.5,0.2-0.8c0-0.3-0.1-0.7-0.1-1c4.5-0.5,8.5-3.4,12,0.1c0.4-0.3,0.8-0.6,1.2-0.9
			c0.4-4.8,0.7-9.6,1.1-14.4c0.3-0.2,0.6-0.4,1-0.6c4.4,5.9-2.5,11.9-0.7,16.2c1.9-1.7,2.5-3.7,3-5.9c0.4,1.6,0.2,2.4,1.4,3.9
			c-1.4,1.2-0.6,2.4-2.5,3.1c-1.3-1.3-1.7-1-3.3,0.6c-2-0.1-0.9-0.1-2.7-1.8c-0.2,0.1-0.5,0.2-0.7,0.3c-0.4,1.6-0.7,1.5,0.3,3
			c2.5,0.3,5.5-0.7,8.1-0.8c0.8-1.4,0.6-1.5,0.8-2.6c6.4-1.2,12.7-2.3,19.1-3.5c1.6,0.9,3.2,1.7,4.9,2.6c8,1.9,15.4-4.2,22.9-9.2
			c4.3-3,12.6-2.7,14.5-8.6c9,0.9,18.2-5.6,27.7-6.7c1.5,0.4,3,0.9,4.5,1.3c3.5-0.9,7-1.7,10.5-2.6c1.9-0.7,2.6-3.2,4.7-4.6
			c3-0.6,6-1.3,9-1.9c1-1.2,0.8-1.3,1-2.9c5.1,1.4,13.2-3.2,18.2-4.7c5.2-1.5,11.2-0.8,16.2-2.2c11-3,20.7-8.6,31.8-11.7
			c2.2-0.6,4.6,0.8,6.9-0.4C592,264.2,600.8,254.8,602.1,250.5z M275.6,334.1c-0.5-0.1-1-0.2-1.6-0.4c0-0.3-0.1-0.7-0.1-1
			C274.5,333.2,275.1,333.6,275.6,334.1z M270,334.1c0.2,0.2,0.4,0.3,0.6,0.5c-1.3-0.1-1.4-0.4-1.7-1.9
			C269.2,333.2,269.6,333.7,270,334.1z M244.1,333.4c0.2-0.3,0.5-0.6,0.7-0.8c0.1,0.1,0.2,0.2,0.3,0.2
			C244.7,333,244.4,333.2,244.1,333.4z M245.5,342c0.3,1.4,0.1,1.8-0.4,3.4C245.2,344.2,245.3,343.1,245.5,342z M246.2,348.6
			c-0.1-0.1-0.2-0.2-0.3-0.2c0.1-0.9,0.2-1.7,0.2-2.6c0.1,0.8,0.2,1.7,0.3,2.5C246.3,348.4,246.2,348.5,246.2,348.6z M247,351.6
			c-0.1-0.1-0.2-0.2-0.3-0.2c0.2-0.8,0.4-1.6,0.5-2.4c0.1,0.6,0.3,1.2,0.4,1.7C247.4,351,247.2,351.3,247,351.6z M248,354.3
			c0-0.6,0-1.2,0.1-1.8c0.1,0.6,0.3,1.2,0.4,1.7C248.3,354.2,248.2,354.3,248,354.3z M255.2,351.8c0.2-0.3,0.5-0.6,0.7-0.8
			c0.1,0.1,0.2,0.2,0.3,0.2C255.8,351.3,255.5,351.6,255.2,351.8z M259.6,367.4c-0.2,0.1-0.5,0.2-0.7,0.3
			c8.2-13.8,4.5-40.2-10.7-50.1c0.1-0.1,0.2-0.2,0.2-0.3c1.3,0.3,2.6,0.6,3.9,0.9c13.2,10.3,13.6,24.2,12.4,36.1
			C264.3,357.6,264.3,365.8,259.6,367.4z M294,338.9c-0.9-1.4-1.9-1.2-3.3,0.1c-0.3,2.2-0.6,4.5-0.9,6.7c-0.2,0.3-0.5,0.6-0.7,0.8
			c-0.1-0.1-0.2-0.2-0.3-0.2c1.1-2.8,0.5-4.7,0.8-7.2c0.6-1.9,2.3-2.1,3.8-2.4c2.1,2.4,2.4,4.3,1.7,7
			C294.9,341.8,295.3,340.6,294,338.9z M315.1,337.5c-0.3-0.1-0.5-0.1-0.8-0.2c1.5-6.1,1.8-13.2-3.9-18.5c1.7-0.3,3.3-0.7,5-1
			c5.7,5.5,6,11.7,4.4,18C318.3,336.3,316.7,336.9,315.1,337.5z M325.3,319.3c0.5,0.9,1,1.8,1.5,2.7
			C325.4,321.5,325.3,320.6,325.3,319.3z M331,319.8c-0.4-0.3-0.7-0.6-1.1-0.9c-0.6,1.8,0.1,2,0.4,3.5c-0.1,0.1-0.2,0.2-0.2,0.3
			c-0.8-0.7-1.7-1.4-2.5-2c0-1.1-0.1-2.2-0.1-3.3c0.4-0.7,0.9-1.5,1.3-2.2c1.2-0.3,2.3-0.6,3.5-0.9c1,1.1,1.9,2.2,2.9,3.3
			c-0.3,0.9-0.5,1.8-0.8,2.6c-0.3-0.7-0.7-1.5-1-2.2c-0.4-0.1-0.7-0.3-1.1-0.4c0.4,3.3,0.8,6.6,1.3,9.9
			C332.7,324.9,331.8,322.3,331,319.8z M345.7,330.8c-3.2,0.8-6.5,1.5-9.7,2.3c3-1.1,6.1-2.2,9.1-3.2c0.3,0.2,0.6,0.5,0.8,0.7
			C345.8,330.6,345.7,330.7,345.7,330.8z M347.8,329.3c1.8-0.4,3.7-0.7,5.5-1.1c0.1,0.1,0.2,0.2,0.3,0.2c-0.1,0.3-0.1,0.5-0.2,0.8
			C351.4,330.1,349.9,329.7,347.8,329.3z M355.1,327.8c4.3-1.1,8.6-2.2,13-3.4C368.4,325.6,357.3,328.2,355.1,327.8z M371.7,324.6
			c-0.4,0-0.9-0.1-1.3-0.1c0-0.2,0-0.3-0.1-0.5c0.8-0.4,1.6-0.8,2.4-1.3c0,0.2,0,0.3,0.1,0.5c0.1,0.2,0.2,0.5,0.3,0.7
			C372.6,324.1,372.1,324.4,371.7,324.6z M370.1,309.4c-1.3,0.3-0.4-0.2-0.9,1.1c-0.8-0.2-1.6-0.4-2.4-0.5c-0.4-0.8-0.8-1.6-1.3-2.4
			c0.5-1.2,1-2.3,1.4-3.5c2.4-1,3.4-0.7,5.9-0.3c0.5,0.5,1,1.1,1.4,1.6c0.8,1.6,0.7,2.3-0.1,4.1c-0.9-0.9-1.7-1.7-2.6-2.6
			c-0.6,2.5,3,6.1,3.7,8.6c0,2.8,0.1,5.6,0.1,8.4C373.4,321.3,376.4,311.4,370.1,309.4z M391,295.8c2.5,4.5-0.5,7.8-1.2,12.9
			C388.2,304.4,386.7,300.7,391,295.8z M398.7,305.7c-0.3-0.1-0.5-0.1-0.8-0.2c-0.9-3-1.6-6.8,0.1-9.2c0.5,0.4,0.9,0.8,1.4,1.1
			c0,2.5,0,4.9,0,7.4C399.1,305.2,398.9,305.4,398.7,305.7z M462.9,288.5c0.1,0.1,0.2,0.2,0.3,0.2c-0.2,0.4-0.4,0.9-0.6,1.3
			c-0.3-0.4-0.6-0.8-0.9-1.2C462.1,288.7,462.5,288.6,462.9,288.5z M460.7,288.9c-0.7,1.8-2.5,2.2-4,3.2c0,2.7,0.8,4.5,0,7.4
			c-0.3,0-0.7,0.1-1,0.1c1.5-2.8,0.9-5.2,0.2-7.7C457.6,290.1,458.9,289.7,460.7,288.9z M446.9,304.7c-0.3-5.1,2.6-8.5-0.6-13.5
			c1.8-0.6,2.2-0.9,2.8-2.8C451.8,293.9,452.5,298.2,446.9,304.7z M441.1,285.5c0.9,1.2,1.8,2.4,2.7,3.6c-0.4,1.4-1.7,1.6-2,2.5
			c-0.7,1.8,0.8,4-0.1,6.4c1,2.1,2.5,2.2,2.5,4.4c-0.4,0.7-0.9,1.5-1.3,2.2c-1.1,0-2.2,0.1-3.3,0.1c-0.7-4.9,4.7-7.7-1.7-12.1
			C441,289.7,440.1,288.9,441.1,285.5z M455.3,286.4c-0.2,0.4-0.4,0.9-0.6,1.3c-0.1-0.1-0.2-0.2-0.3-0.2
			C454.7,287.2,455,286.8,455.3,286.4z M452.3,279.3c0.3,0.6,0.6,1.1,0.9,1.7c-1.4,1.4-0.8,2.5-0.8,4.4c-0.1,0.1-0.2,0.2-0.2,0.3
			c-2.3-2-1.7-2.4-2.5-4.4c-0.1-0.1-0.2-0.2-0.3-0.2c-1.4,0.4-1.7,0.1-3.2,1.6c0.5,1.9,0.9,3.8,1.4,5.7c-0.2,0.3-0.5,0.6-0.7,0.8
			c-2.9-1.3-3.6-3.7-4.9-5.9C444.5,279.7,448.7,280.6,452.3,279.3z M414.4,287c0.1,0.2,0.2,0.5,0.3,0.7c0.5,1.4,0.4,2.3-0.4,3.9
			c-0.2,0.1-0.5,0.2-0.7,0.3c-0.8,0-1.5,0-2.3,0C411.9,290.1,412.4,288.3,414.4,287z M425.6,291c-1.1-1.7-3.2-1-4.8,0.2
			c-0.3-0.1-0.5-0.1-0.8-0.2c4.1-3.9,6.2,1.2,10.1-1c0.4,0.3,0.7,0.6,1.1,0.9c-0.8,1.2-0.8,1.2-0.8,2.1c2.3,0.4,3.2,0.5,5.3-0.3
			c0.2,0.2,0.4,0.3,0.6,0.5c-1,1.4-2.1,1.2-3.8,2.4c-0.1,0.7-0.2,1.4-0.3,2.1c1.1,1.7,2.2,3.4,3.3,5c1.9,4.7-4.1,6.9-6.9,2.7
			c0.3-1.9,0.6-3.2,2.5-5.4c-0.5-2.1-0.4-3.2-2.8-4.6c0.5-0.5,1.1-1,1.6-1.4c-0.4-0.3-0.7-0.6-1.1-0.9c-7.8,2.2-15.6,4.3-23.4,6.5
			c-0.1-0.1-0.2-0.2-0.3-0.2c-0.1-0.2-0.2-0.5-0.3-0.7C408.5,296.4,427.7,295.1,425.6,291z M427.8,295.6c-2.5,0.9-4.9,1.9-7.4,2.8
			c-0.6,0.6-1.2,1.2-1.9,1.7c0.6,2.5,2,4.5,4,7c-0.1,2.7-1.6,6.4-5.6,5.2c-0.8-0.5-1.6-1-2.5-1.5c-0.2-1.6-0.4-2.1,0.4-3.9
			c0.2,2-0.1,2.5,1,4.5c2.2,0.4,3.2-0.1,5.2-1.3c-0.2-0.8-0.3-1.5-0.5-2.3c-1-1.9-2.8-2-4.3-2.1c1-1.8,1.1-2.8,0.3-4.4
			c-2-3.5-8-0.6-10.4,0.8c-0.9,3.5,2,5.5,4.7,8.5c-0.1,0.7-0.2,1.4-0.3,2.1c-2.4,2.7-4.3,2.6-7,1.7c-1.6-1.5-1.7-2-1.7-3.7
			c0-1,2.5-3.2,3.1-4.9c0.1-1.9-0.5-1.5-2.3-2.3c0-0.4,0.1-0.9,0.1-1.3C410.9,298.8,419.6,297.8,427.8,295.6z M399.1,307.5
			c1.9,3.4,0.5,7.8-0.1,11.5C396,319.1,396.7,310.6,399.1,307.5z M416.8,315.4c-5.5,1.5-10.9,3.3-16.5,3.2
			C404.7,315.2,411.2,316.5,416.8,315.4c0.6-0.2,1.3-0.3,1.9-0.5c1.6-0.5,3.1-1.4,4.5-2.7c0,0.6,0,1.2-0.1,1.8
			c-1.5,0.2-2.9,0.5-4.4,0.9C418,315.1,417.4,315.3,416.8,315.4z M419.1,317.7c4.8-4.5,10.5-1,15.4-4.6c-3.1-1.4-5.4,0.6-8.4,0.1
			c-0.3,0-0.7,0.1-1,0.1c-0.1-0.1-0.2-0.2-0.3-0.2c4-3.9,11.8-1.8,16.6-3.2C438.9,316.8,424,319.3,419.1,317.7z M444.3,309
			c-0.3-0.1-0.5-0.1-0.8-0.2c-0.1-0.2-0.2-0.5-0.3-0.7c1.7-0.8,3.4-1.5,5.1-2.3C447.6,307.4,445.9,307.7,444.3,309z M452.6,305.6
			c-0.7-0.1-1.4-0.2-2.1-0.3c-0.1-0.1-0.2-0.2-0.3-0.2c1.1-2.4,2.9-2.9,4.9-4.8c0,1,0,0.9-0.8,2.1c0.5,0.3,1.1,0.6,1.6,0.9
			C454.9,304,453.7,304.8,452.6,305.6z M465,291.1c1.6,1.8,1.4,2.8,2.3,4.6c-0.1,0.3-0.1,0.5-0.2,0.8c-0.5-0.1-1-0.2-1.6-0.4
			C465.1,294.2,464.6,293.1,465,291.1z M461.2,301.4c2.3-2.3,6.7-3.3,7.7-4.9c1.1,0.3,2.3,0.6,3.4,0.9c0.4,0.3,0.7,0.6,1.1,0.9
			C471.1,298.6,463.2,301.9,461.2,301.4z M486.7,291.2c0.5-1.3,0.9-2.7,1.4-4c-0.2,1.8-0.9,2.4-0.1,4.1c-0.1,0.3-0.1,0.5-0.2,0.8
			C487.5,291.8,487.1,291.5,486.7,291.2z M516.1,265.4c0.3,0.2,0.6,0.5,0.8,0.7c-0.2,0.4-0.4,0.9-0.6,1.3c-0.7,0.1-1.4,0.1-2,0.2
			c-0.2,0.1-0.5,0.2-0.7,0.3c-0.1-0.5-0.1-1-0.2-1.5C514.3,266.1,515.2,265.8,516.1,265.4z M507,268.6c-0.3-1.4-0.2-1.2,0.3-2.1
			c0.2,0.5,0.4,1,0.7,1.5C507.6,268.2,507.3,268.4,507,268.6z M513.1,283.4c-0.2,0.3-0.5,0.6-0.7,0.8c-0.1,1.4-0.3,0.9,1,2.2
			c-0.6-0.4-1.3-0.7-1.9-1.1c-2.3,3.2-3.7,1.4-6.4,2.7c-1.4,1.5-2.8,3-4.1,4.5c-2.6,1.8-9.5,3.2-12.5,2.8c-0.1-0.1-0.2-0.2-0.3-0.2
			c0.1-0.1,0.2-0.2,0.2-0.3c5.3-2.1,10.1-3.6,15.2-6.2c0.1-0.1,0.2-0.2,0.2-0.3c-0.1-0.2-0.2-0.5-0.3-0.7c-2.4,0.2-4.7,0.5-7.1,0.7
			c4.2-2.4,9.2-2.1,13.6-1.9c2.3-3.3,1.6-4.5,5.1-5.6c0.7-0.1,1.4-0.1,2-0.2c0.2,0.5,0.4,1,0.7,1.5
			C515.6,284,515.1,282.7,513.1,283.4z M512.2,280.4c-1-0.2-0.3-0.6-1,0.1c-0.7-0.9-1.4-1.7-2.1-2.6c-0.2-0.2-0.4-0.3-0.6-0.5
			c0.5-0.5,1.1-1,1.6-1.4c0.6-0.1,1.2-0.3,1.7-0.4c0.3,0.2,0.6,0.5,0.8,0.7c-0.5,1.6,0.1,0.5-1.4,1.2
			C511.7,278.4,512,279.4,512.2,280.4z M507.4,283.4c0.2-1.2,0.4-2.4,0.7-3.6C508.7,281.3,508.6,281.7,507.4,283.4z M529.5,268.9
			c-1.3-0.9-2.7-1.2-4.2-1.2c-2.1,0.4-4.3,0.9-6.4,1.3c-4.8,1.6-10,4-14.1,2.9c4.7-1,9.4-1.9,14.1-2.9c2.2-0.7,4.4-1.3,6.4-1.3
			c0.4-0.1,0.8-0.2,1.3-0.3c1.9-0.6,3.3-2.5,5.1-2.8c0.5,0.5,1,1.1,1.4,1.6c-0.1,0.3-0.1,0.5-0.2,0.8c0,0.4-0.1,0.9-0.1,1.3
			C532,269.4,530.4,269.6,529.5,268.9z M546.2,276.9c-0.3-0.1-0.5-0.1-0.8-0.2c0.8-6,2.9-11-3.4-16.3c0.5-0.4,0.9-0.8,1.4-1.2
			c5.4,5,5.1,10.9,3.7,16.5C546.8,276.2,546.5,276.6,546.2,276.9z M580.8,244.8c0.6-0.1,1.2-0.3,1.7-0.4c0.6,0.6,1.2,1.2,1.7,1.9
			c0.1,0.4,0.3,0.8,0.4,1.2c-0.3,0.4-0.6,0.7-0.9,1.1c-0.8,0-1.5,0-2.3,0C581.1,247.1,580.6,246.3,580.8,244.8z M572.5,246.4
			c0.5-0.6,0.9-1.1,1.4-1.7c0.6-0.1,1.2-0.3,1.7-0.4c0.2,0.3,0.4,0.6,0.6,1c0.6,1.9-0.9,4-0.7,6c-0.1,0.1-0.2,0.2-0.2,0.3
			C574.4,249.8,573.4,248.1,572.5,246.4z M573.2,268.3c-0.2,0.2-0.3,0.4-0.5,0.6c-0.1-0.1-0.2-0.2-0.3-0.2c0.5-3.8,2.1-7,0.7-10.6
			c-0.7-1.7-2.4-2.6-2.5-4.4c0.4,0.1,0.7,0.3,1.1,0.4c3.6,3.8,4.5,8.9,2.1,13.3C573.6,267.8,573.4,268,573.2,268.3z M585.2,265.6
			c-0.8,0-1.5,0-2.3,0c1.2-5.6-0.1-9.1-3.7-14.2c2.7-0.1,4.7,0.2,7.4-0.5c3.8,3.2,5,8.2,2.8,12C588.6,264.4,586.7,264.8,585.2,265.6
			z M493.5,272.6c0.4-0.3,0.8-0.6,1.2-0.9c-0.4-0.5-0.8-0.9-1.2-1.4c-0.3,0.4-0.6,0.7-0.9,1.1c0.2,0.3,0.4,0.6,0.6,1
			C493.4,272.4,493.4,272.5,493.5,272.6z M491,270.5c-0.3,0.4-0.6,0.7-0.9,1.1c0.4,0.5,0.8,0.9,1.2,1.4c0.2-0.1,0.5-0.2,0.7-0.3
			c0.1-0.3,0.1-0.5,0.2-0.8C491.8,271.5,491.4,271,491,270.5z M490.6,276.7c-0.3-0.2-0.6-0.5-0.8-0.7c-5.4,1.7-12.2,1.9-17,6.1
			c0.1,0.1,0.2,0.2,0.3,0.2C477.1,282.8,487.2,279.1,490.6,276.7z M431.6,305.2c-0.4-0.2-0.9-0.4-1.3-0.6c-0.2,0.1-0.5,0.2-0.7,0.3
			c-0.1,0.4-0.3,0.7-0.4,1.1C430.9,306.3,430.6,306.5,431.6,305.2z M408.4,313.2c0.6-0.9,1.2-1.8,1.8-2.7c-0.2-0.3-0.4-0.6-0.6-1
			c-1-0.3-1.9-0.7-2.9-1c-1.7,0.5-3.1,0.9-4,3.2C404.6,314.4,406,314.4,408.4,313.2z"/>
	</g>
</g>
</svg>
