<?xml version="1.0" encoding="utf-8"?>
<!-- Generator: Adobe Illustrator 21.0.0, SVG Export Plug-In . SVG Version: 6.00 Build 0)  -->
<svg version="1.1" id="Calque_1" xmlns="http://www.w3.org/2000/svg" xmlns:xlink="http://www.w3.org/1999/xlink" x="0px" y="0px"
	 viewBox="0 0 841.9 595.3" style="enable-background:new 0 0 841.9 595.3;" xml:space="preserve">
<style type="text/css">
	.st0{fill:#DADADA;}
	.st1{fill:#FFFFFF;}
	.st2{fill:#1D1D1B;}
</style>
<circle class="st0" cx="415" cy="343.5" r="68"/>
<path class="st1" d="M463.6,306.7c3,24.3-13.4,39.1-32.9,51c-10.3,6.3-20.3,11.2-35.1,17c-37.5,0-68-30.4-68-68s30.4-68,68-68
	S456.4,246.1,463.6,306.7z"/>
<g>
	<g>
		<path class="st2" d="M496.1,262.5L496.1,262.5c-0.9-1.9,1.1-5.5-1.3-6.3c-0.1,0-0.2-0.1-0.3-0.2c-0.1,0.1-0.2,0.1-0.2,0.2
			c-0.1,1.9-0.5,11.1-2.2,11.7c-0.2-0.2-1.7-0.6-2.3,0c-0.2,0.2-0.7,2.5-0.9,2.9c-0.6,0.2-1.4,0.5-1.8,0.6c0,0.9,0.2,3.9-0.7,4.6
			c0,0.7-1.3,0.3-1.8,0.1c-0.6,0.7-1.5,1.4-1.8,2.2c-0.7,1.5-0.8,3.1-1.8,4.4c-1.4,1.6-2.6,3.1-4.1,4.6c-1.1,1.1-1.8,2.3-3.7,2.8
			c-2.4-2.8-3.9,0.5-5.7,1.4c-0.8,0.5-1.7,0.6-2.3,0.9c-0.2,0-0.5,0-0.7,0c-0.2-1.9,1.5-5,0.2-7.3c-0.5-0.8-1.4-2.4-2.1-3.1
			c-1.6-1.6-3.7-1.4-4.5-4c0.2-0.5,0.5-1.1,1.1-1.1c0.5,0,1.3,0.5,1.6,0.6c1.8,0.6,4.5-1.3,4.8-2.6c0.7-3-2.3-5.5-4.2-6.3
			c-0.7-0.3-3.2-0.5-3.6,0.1c-0.2-0.3,2.8-4.1,3.4-4.4c0.6-0.2,1.3-0.3,1.8-0.6c4.2-2.4,10.5-1,14.3-3.8c1.3-0.9,2.1-2.9,2.6-4.6
			c0.8-2.2,1-4.7-0.2-6.4c-0.6-0.7-1.4-0.9-2.4-1.1c-4-0.9-4.1,4.8-5.7,6.7c-3.4,3.9-8.4,1.6-12.3,4.4c-1.5,1.1-3.7,5.5-4.8,7.5
			c-0.2,0.6-0.5,1.3-0.6,1.8c0,0.1-0.1,0.2-0.1,0.3c-0.2,0-0.3,0-0.6,0c-0.2-0.5-0.6-0.9-0.9-1.3c0-1-0.1-2.2-0.2-3.3
			c-1.5-3.9-5.4-9.5-11.2-6.8c-0.1,0-0.2,0-0.2-0.1s0-0.3,0-0.6c0.5-0.6,1.1-0.6,1.8-0.9c2.1-1.1,3.9-3.4,4.6-5.7
			c0.3-1-0.2-1.8-0.5-2.5c-0.5-1.9-1.3-6.1-0.6-8c1.5-3.9,5.8-3.7,7-6.7c-0.2-1.6-0.2-3-1.9-3.3c-0.2,0.1-0.3,0.1-0.5,0.3
			c-0.1,0.1-0.2,0.2-0.3,0.3c0.3,0.2,0.8,0.6,1.1,0.8c0,3.6-3.4,3.2-5.3,4.9c-0.3,0.2-1.4,1.9-1.5,2.3c-3.1,5.3,4.5,12.6-3,15.6
			c0,0,0,0-0.1,0c-0.7-1.5,0.6-3.3,0.1-5.3c-0.5-2.3-2.3-6-1.7-8.5c0.3-1.4,1.1-2.4,1.5-3.6c0.5-1.3,0.8-2.4,1.6-3.3
			c0.9-1.1,3-2.2,4.4-2.6c0.8-0.3,1.6,0.2,2.3-0.3c0,0,0.1,0,0.2,0c0-0.1,0-0.2-0.1-0.5c-1.5,0.3-4.6,0-6.1,1.3
			c-1.1,1-2.4,2.3-3.1,3.8c-0.6,1.3-0.2,2.2-0.9,3.2c-0.1-0.7-1.3,2.8-1.3,2.8c-0.1,0.8,0.6,2.4,0.9,3c-0.3,0.3,0.8,3.2,0.8,3.2
			c0.2,3.4,0.1,6.9-2.9,8.6c-0.1,0-0.2-0.1-0.3-0.2c0-3.8-2.6-6.5-6.3-6.3c-1.1,0.1-1.8,0-2.6,0.7c-3,2.6,1,5-0.1,7.3
			c0,0.1,0,0.1,0,0.2c-5,0.1-7.5-4.9-12.6-3.8c0,0-0.1,0-0.1-0.1c-0.1-2.2,1.4-3.2,1.4-5.3c-0.5-0.5-1.1-0.8-1.8-1
			c-0.7-1.4,1.5-6.9,1.8-8.5c0.7-3,2.6-5.3,5-6.9c0.6-0.2,1.1-0.5,1.6-0.7c0.5-0.5,1.4-1.1,1.7-1.8c0.3-0.7,0.3-1.9,0.9-2.4
			c0.7-0.2,1.5-0.5,2.2-0.6c0.7-0.3,1.5-1.9,1.8-2.2c0.6-0.2,1.4-0.1,2.2-0.5c0.9-0.6,1.9-1.1,2.9-1.6c0.1-0.6,0.2-1.1,0.5-1.6
			c1-0.6,1.9-0.5,3-0.9c0.6-0.3,1.1-0.7,1.6-0.9c0.7,0.1,1.4,0.2,2.1,0.2c0.6-0.2,0.9-0.6,1.9-0.6c-0.3-1.5-6.8-0.2-8,0.1
			c0-0.1-0.1-0.2-0.1-0.3c-0.2-0.6,2.5-5.4,2.9-6.4c-0.2-0.2-0.3-0.3-0.8-0.3c-0.1,0.2-0.8,0.5-1.1,0.9c-0.3,0.7-0.7,1.5-0.9,2.2
			c-0.9,1.3-2.4,2.6-3.7,3.6c-2.5-1.5-3.6,1-4.7,2.5c-0.3,0.2-0.8,0.5-1.1,0.7c-0.7-0.3-1-0.8-2.1-0.9c-1,0.9-1.8,2.3-2.3,3.8
			c-0.1,0.1-0.2,0.2-0.5,0.2c-0.3-0.5-0.5-0.6-1-0.9c-1.4,0.1-2.2,1-3.1,1.6c-0.6,0.3-1.3,0.5-1.9,0.9c-1.6,1-3,4.8-3.6,6.3
			c-0.6,1.6-0.1,3-0.7,4.6c-0.5,1.4-1.7,2.5-2.1,3.9c-0.2,1.3-0.5,2.6-0.7,4c-1,2.8-3.1,4-3.8,7.1c-1,4.7,3,6.3,3.3,9.2
			c-0.1,0.2-0.3,0.3-0.5,0.6c-1.6-0.2-2.5-1.6-3.7-2.1c-0.7-0.1-1.4-0.2-2.1-0.2c-1.8-1-3.8-1.4-6.1-1.6c-2.1-0.2-4.6,0.7-6.3,0.9
			c-0.3,0-0.7-0.1-0.9-0.1c-0.9,0.5-4,1.7-4.9,1.5c-0.8-0.5-1.1-1.8-1.6-2.5c-0.7-1.1-2.6-2.4-3.9-2.8c-8.4-2.5-15,1.5-21.6,3.9
			c-1.3,0.5-2.5,0.6-3.8,1c-4.1,1.6-8.4-1.1-12,0.2c-0.5,1-0.8,2.5-1.3,3.6c-3.8,1.1-9.2-4.9-10,1.9c-2.6,0.3-4.2-3.6-7.2-2.8
			c-0.5,1-0.5,2.3-0.6,3.3c-0.9,0.1-1.6-0.5-2.3-0.8c-1.8-0.8-3.3-1.5-5-2.4c-0.9-0.6-1.7-1.6-2.9-1.9c-0.2,0-0.5,0.1-0.6,0.1
			c-0.8,0.6,0.3,1.7,0.9,2.2c1.9,1.7,3.6,4.4,6,5.5c-0.1,0.2-0.1,0.5-0.2,0.7c-1,0.3-2.6,0.6-3.6,1c-0.3,0.3-0.7,0.7-1,1
			c-0.9,0.5-1.5,0.2-2.3,0.7c0,0.2-0.1,0.5-0.1,0.6c0.1,0.2,0.2,0.5,0.5,0.6c1.7,0.9,8.1-1.6,10.7-1.5c1.3,0,1.7,0.8,3,0.6
			c1.5,4,8.1,0.8,9.4-1.1c0.9,0.2,1.5,0.9,2.4,1.1c3.9,1,4.7-1.4,6.9-3.1c2.4,1,5.4,0.7,7.1-0.9c0.5-0.5,0.9-0.9,1.3-1.3
			c1.9-0.3,4-0.7,6-1c5.3-2.1,10.8-5.3,17.3-3.3c0.1,0.2,0.2,0.5,0.2,0.6c-0.7,1.4-2.3,1.4-3.6,2.4c-2.4,1.9-4.7,4-7,6.2
			c-0.7,0.7-1.3,1.7-1.8,2.5c-1.3,1.7-3.2,3.2-4.4,5c-3.1,4.7-5.8,10.1-8.3,15.6c-0.6,1.8-1,3.7-1.6,5.4c-0.8,2.3-1.6,4.6-2.4,6.9
			c-0.3,1.5-0.1,5.4-1.1,6.2c0,0-4.2-0.3-4.9-0.2c-3.3,0.6-6.3,2.1-8.7,3.8c-2.4,1.7-3.4,4.7-4.9,7.5c-2.1,4-4,8.4-5.7,13
			c-1,2.8-1,5.6-2.3,8c-0.9,1.8-6.3,7-6.2,8.5c0.1,0.9,0.6,1.3,0.8,1.9c0,0,0,0.1-0.1,0.2c-1.6,0.9-3.9,1.3-6,1.5
			c-0.7,1.1-0.8,2.3-0.2,3.7c0,0,0,0,0,0.1c-0.9,0.6-5.6,0.3-7.2,0.5c-0.3,1.6-0.5,2.2,0.3,3.7c0,0.1,0,0.2,0,0.3
			c-2.9,0.6-6.4-1.5-8.9-0.9c-2.8,2.2,3.1,4.6,5.4,4.4c0,0.1,0,0.2,0.1,0.3c-0.6,1-2.3,3.2-1.4,4.7c0.3,0.5,1.1,0.5,1.8,0.3
			c1.9-2.9,4.7-4.4,7.6-6.5c5,1,7.9,1,9.4-3.8c3.9-0.3,5.2-1.4,6.3-4.6c0.2-0.8,0.2-1.8,0.8-2.4c1.1-1.4,3.8-0.2,4.9-2.9
			c0.9-2.2-0.8-6.2-0.5-8.9c0.3-2.6,2.1-5.2,2.9-7.3c2.5-6.2,5-15.6,11.5-17.7c1.7-0.6,3-0.3,4.8-0.6c0.7,2.3-0.6,5-0.2,7.7
			c0.6,4.8,0.3,9.6,1,14.3c0.2,1.5,0.1,3.9,0.7,5.4c0.1,1.5,0.3,3,0.5,4.4c0.7,2.5,1.4,5.3,2.6,7.2c1.3,1.8,3.6,4,4.2,6.3
			c2.1,0.2,3.6,0,5.6-0.2c0.7,1.7,3.4,4,5.3,4.6c1.3,0.3,1.8-0.1,2.6,0.5c0.6,0.5,0.3,1.8,0.7,2.5c0.5,1,2.4,2.8,3.4,3.3
			c1.6,0.8,6.7,1.6,8.8,1.1c0.9-0.2,1.7-0.5,2.9-0.2c2.2,0.5,4.9-0.2,6.9-0.7c0.5-0.1,1-0.2,1.5-0.5c1.7,0.3,4-0.9,5.5-1.5
			c0.6,0.2,4.8-1.4,5.6-1.7c1.3-0.3,2.5-0.7,3.8-1c1.6-0.6,2.9-1.5,4.4-2.2c1.5-0.7,4.1-1.3,5.6-2.1c3,5.2-2.6,11.4-5.5,13.8
			c-3.2,2.6-6.4,5.2-9.6,7.8c-1.7,1.4-2.8,3.4-4,5.2c-1.1,1.5-2.5,2.9-3.8,4.4c-1.1,1.4-4.4,6.3-3.8,8.7c0.3,1.3,1.6,2.1,2.2,3.1
			c-1.7,2.8-3.7,3.9-0.2,6.5c-0.7,1.3-2.5,2.8-1.6,4.9c0.5,0.9,1.4,0.9,2.1,1.5h0.1c-0.2,3.6-4,4.9-2.5,8.6c2.8,0.7,4.2-1.4,5.3-3.2
			c-0.5-0.7,0.6-1.9,1-2.2c2.2,1.1,2.8,3.7,6.4,2.9c0.1-0.5,0.3-0.9,0.5-1.4c-1.5-1.7-2.9-3.6-4.4-5.2c0.1-1.3,1.1-1.3,1.5-2.4
			c0.5-1.4-0.9-2.6-1.3-3.4c0-1.4,1.1-1.5,1.6-2.5c0.5-1.5-1.4-3.8-2.4-4.5c0.1-1.3,1.1-1.9,1.5-3.2c0.3-1.6-0.6-2.8,0-4.1
			c0.9-2.4,3.9-4.1,5.7-5.8c4.5-4.1,9.3-7.9,13.2-12.5c0.9-1,2.2-1.9,2.9-3.3c0.8-1.5,1.6-3,2.3-4.4c1-2.9,1.4-9.6-0.1-11.8
			c0.1-0.1,0.1-0.3,0.2-0.6c1-0.5,2.1-1,3-1.5c2.8-1.8,6.1-3.1,8.8-5c7.8-5.7,15.8-11.5,21.8-19.1c0.7-0.7,1.5-1.4,2.2-2.1
			c0.8-1.4,1.7-2.8,2.5-4c1.4-2.2,3.6-4.6,4.1-7.5c2.5,0.1,3.7,3.7,3.1,6.3c-1,4.4-1.9,9.4-2.9,14c-0.9,4.5,0.2,8-0.9,12.2
			c-0.2,0.9-1.1,1.4-1.5,2.3c-0.2,1-0.6,2.2-0.8,3.2c0.5,0.6,0.9,1.3,1.4,1.8c0.3,0.2,0.7,0.1,0.9,0.5c-0.5,1.4-1.3,2.2-1.6,3.2
			c0,0.6-0.1,1.3-0.1,1.9c0.5,0.9,1,1.4,2.2,1.6c0.1,0,0.2,0,0.2,0c0.6,1-1.1,2.2-1.3,2.8c-1,3.4,3.2,3.7,4.9,3.4
			c0,1-0.5,1.5-0.8,2.4c-0.9,3.1,0.6,5.5,2.4,6.7c0.3,0.5,1,0.8,1.6,0.3c0.3-0.2,0.3-0.3,0.3-0.8c-1.3-1.6-3.3-5-0.9-6.9
			c0.1-0.2,0-0.1,0.2-0.2c1.3,1,2.2,5.7,4.4,5.4c1-0.2,2.2,0.9,2.8-0.5c0.7-1.7-1.5-2.9-1.8-4.4c-1,0.2-3.1-2.1-3.2-3.3
			c0-0.1,0-0.1,0.1-0.2c0.5-0.2,1.7,0.2,2.5,0.1c1.5-3.4-1.1-3.4-1.8-5.7c2.1-2.5,1.5-4.5-0.9-6.7c0.2-0.6,0.8-1,0.9-1.6
			c0.9-3.4-3.6-6-3.3-10.1c0.1-2.8,0.1-7.7,1-10.5c1.6-5,4.4-10.8,1.9-16.6c-0.7-1.8-2.2-3.8-3.6-4.8c-0.9-0.7-2.2-0.8-3-1.6
			c-0.5-0.5,0-4.4-0.1-5.2c-0.6-4.2-1.9-10.9-4.9-13.3c0-0.1,0-0.2,0-0.3c0.2-0.1,0.5-0.1,0.7-0.2c1.3-0.3,4.2,0.9,5.8,0.2
			c0.9-0.6,1.9-1.1,2.9-1.6c1.4-1.7,1.4-3.4,3.7-4.6c1.5-0.8,3.2-1.5,4.7-2.5c0.6-0.6,1.3-1.3,1.8-1.8c0.6-0.2,1.1-0.6,1.6-0.8
			c0.6-0.7,1.3-1.4,1.8-1.9c1.1-0.9,2.5-1.8,3.2-3.2c0.8-1.5,0-2.2,0.5-3.3c0.7-1.7,3.7-2.4,4.2-4.2c0.2-0.7-0.3-1.3-0.2-1.9
			c1.7-0.7,4.2-2.9,1.1-4.4c0.6-1.4,1.8-3.8,3-4.6c1.9-1.3,4.1-2.1,5.5-4C503.5,258,497.6,262.1,496.1,262.5z M432.2,219.9
			c0.7,0.1,0.8,0.6,1,1c-0.1,0.2-0.2,0.5-0.3,0.6c-0.6,0.9-2.3,0.8-3.3,1.4c-0.2-0.2-0.2-0.1-0.3-0.5
			C430.2,221.3,431,220.5,432.2,219.9z M426.4,222.3c0.6,0.3,0.9,1.1,1,1.8c-0.1,0.2-0.2,0.6-0.2,0.8c-0.7,0.2-1.4,0.7-2.2,0.5
			c-0.5-0.1-0.3-0.2-0.6-0.6C424.9,223.6,425.6,223,426.4,222.3z M415.9,232.6c1.5-3.6,2.5-4.1,5.5-6c0.9,0.2,0.7,0.8,1.9,0.8
			c0.2,3.1-3.7,3.6-5.3,5.3c-0.8,0.8-1.4,2.6-2.4,3.2c0,0,0,0.1-0.1,0.2C415,235.4,415.7,233.3,415.9,232.6z M329.6,269.1
			c-3.6,0.6-5.6-1.5-5.8-5c0.1-0.1,0.2-0.3,0.3-0.5c1.3,0.3,3.3,1.8,4.1,2.8c0.6,0.7,0.6,1.5,1.4,1.9
			C329.6,268.5,329.6,268.8,329.6,269.1z M338.9,268c-2.6,0.2-4.2-1.4-6.5-1.7c-0.5-0.7-0.7-1.4-0.7-2.5c0.2-0.2,0.6-0.5,0.8-0.7
			c2.2,0.1,4.2,1.5,7.1,1.5C339.9,265.5,339.3,267.2,338.9,268z M308,364.4c-0.9,0.3-2.2-0.3-2.9-0.2c-0.6,0.1-1.3,0.2-1.8,0.5
			c-0.5-0.3-1-0.7-1.5-0.9c0,0,0,0,0-0.1c0.1-0.3,0.1-0.5,0.5-0.7c1.5,0.5,5.6,0.5,6.7-0.1C309.3,363.4,308.6,364.1,308,364.4z
			 M312.2,358.9c-0.3,0.5-0.6,1.4-0.9,1.8c-0.8-0.1-1.8-0.7-2.3-1.4c-0.1-0.2-0.1-0.1-0.1-0.6c2.4-0.5,4.5-0.6,6.2-1.9
			c0,0,0.1,0,0.1,0.1C314.8,357.8,313.4,358.6,312.2,358.9z M317.9,351.1c-0.9,0.7-2.4,0.9-2.6,2.3h-0.1H315c0-0.1,0-0.2-0.1-0.3
			c0.8-1.3,1.9-2.2,2.9-3.3C318,350,317.9,350.5,317.9,351.1z M345.2,315.1c-2.2,1-5.6,0.7-7.8,1.7c-1.6,0.8-3.3,1.7-4.7,2.9
			c-0.9,0.8-1.6,1.9-2.8,2.5c0,0,0,0-0.1,0c0.3-3.4,6.5-7.1,9.7-8c1.3-0.1,2.5-0.3,3.8-0.6c0.6,0.2,1.3,0.3,1.8,0.6
			C345.3,314.5,345.3,314.6,345.2,315.1z M465.6,369.6c-0.3,0.1-0.6-0.2-0.8-0.6c0.7-1.6,1.7-3,2.5-4.6c0.2,0,0.5-0.1,0.7-0.2
			c0.8,0.2,2.1,1.8,2.6,2.5C470.1,368.6,467.3,369.6,465.6,369.6z M472.9,372.3c-0.6,2.8-3.4,3.7-5.7,4c-0.5-0.2-0.8-0.5-0.9-0.9
			c-0.3-0.9,1.8-4.5,2.5-4.8c0.3,0,0.6-0.1,0.9-0.1C471.7,370.3,471.6,371.7,472.9,372.3z M469.9,332.3c0.3-1.1,1-2.5,0.9-3.7
			c0-0.5-0.2-0.9,0-1.4c0.2,0.1,0.2,0.1,0.3,0.2c0.9,0.6,0.7,4,0.3,5.4c-0.9,3.2-1.9,6.4-2.9,9.6c-0.6,2.5-0.6,5.5-0.6,7.6
			c-0.1,2.2,0.3,4.1,0.9,5.7c0.3,0.8,1.7,2.1,1.5,3.3c-0.2,1.3-1.5,2.9-2.5,3.6c-0.9,0.1-1.9,0.2-2.9,0.3c-0.3-0.5-0.6-0.7-0.8-1.4
			c0.5-0.6,0.6-1.7,1-2.3c0.5-0.5,0.9-0.9,1.4-1.3c0-0.3,0-0.8-0.1-1.1c0.2-1.3,0.7-3.4,0.5-4.9c-0.2-1.1-0.5-2.4-0.2-4
			c0.8-4.4,1.4-9.7,3-14.3C469.9,333.1,469.9,332.7,469.9,332.3z M460.3,301.1c0.2-0.3,0.2-0.3,0.6-0.6c0.1,0,0.1,0,0.2,0.1
			c0.7,0.5,1.3,1.5,1.6,2.3c-0.2,0.2-0.1,0.1-0.1,0.5c-0.5,0.2-0.9,0.3-1.3,0.6c-0.6-0.1-1.1-0.7-1.5-1.1
			C459.6,302.1,460.4,301.8,460.3,301.1z M461.5,259.1c3-1.1,7-0.3,9.6-2.1c3.4-2.3,2.9-6.4,6.2-8.4c3.6,1.1,1.5,7.6-0.3,9.2
			c-3.4,3-9.2,2.4-13.5,3.9c-1.3,0.5-3,1-4,1.8c-1.1,0.9-1.7,2.3-3.1,3.1C457.6,264.3,458.8,260,461.5,259.1z M410.8,251.2
			c0.3-0.7,0.7-1.4,0.9-1.9c0.5-0.7,1.8-1,2.5-1.5c0.1,0.1,0.3,0.1,0.6,0.2c0.2,0.2,0.2,0.2,0.3,0.6c-2.2,2.4-0.3,4.9-4.4,6.9
			c-0.7-0.6-1.4-1.5-1.5-2.6C409.8,252.1,410.4,251.9,410.8,251.2z M367.4,257.8c-3.2,0.9-6.3,2.8-9.5,4c-1.9,0.7-4,0.8-6.2,1.3
			c-0.8,0.1-1.7,0.2-2.5,0.3c-1.3,0.6-2.4,2.4-3.1,2.5c-2.3,0.7-5.8-4.1-3.3-5.3c0.9-0.3,3,0.2,3.8,0.5c0.9-0.1,1.8-0.1,2.8-0.2
			c0.5,0.1,0.9,0.2,1.3,0.2c2.6-0.7,5.3-1.1,8-2.2c0.9-0.5,1.9-1,2.9-1.5c0.9-0.2,1.8-0.5,2.6-0.6c0.7-0.3,1.3-0.9,1.8-1.1
			c1.9-0.3,4-0.8,6-1.1c2.8,0,6.4,0.3,8.4,1.9c0.6,0.5,1.8,2.5,1.1,3.7c-0.7,0.3-1.5,0.7-2.3,1C378,257.4,371.9,256.6,367.4,257.8z
			 M369.2,356.8c-0.5,0.2-1,0.5-1.5,0.6c-0.6,0.6-1.1,1.3-1.6,1.8c-2.3,1.4-5.8,3.3-8.7,3.8c-0.3-1-0.3-1.6-1.7-1.6
			c-0.2,0.2-0.5,0.6-0.6,0.8c-0.1,0-0.2,0-0.3,0c-1-1.4-2.1-2.9-3.1-4.4c-0.9-2.1-1.8-4.1-2.6-6.1c-0.5-3.3-0.9-6.8-1.3-10.2
			c-0.3-1.9-1.1-4.7-0.9-6.8c0.1-0.9,0.5-3.2,0.2-4.8c-0.3-2.4-0.2-4.6,0.1-6.7c0-1.4-0.1-2.8-0.2-4.1c0.6-4.2,1.3-8.6,1.8-12.8
			c2.4-7.7,5.2-15.2,8.8-21.8c1.8-3.3,3.6-6.3,6-9.1c0.7-0.7,1.4-1.4,1.9-1.9c1.1-1.5,2.4-3.4,4-4.6c1.5-1,2.8-2.4,4.2-3.4
			c3.9-2.5,8.5-4.1,13.1-5.8c2.2-0.8,4.1-0.7,6.3-1.3c1.1-0.2,1.9,0.5,2.8-0.2c0.8,0.1,1.7,0.2,2.5,0.2c2.2,0.7,4.7,1.7,6.7,2.9
			c0.7,0.2,1.5,0.6,2.2,0.9c1,0.8,0.8,1.8,1.4,3c0.7,1,1.5,2.2,2.2,3.2c3.6,3.7,8.6,8,10.4,13.6c0,1,0,2.1-0.1,3
			c-0.2,0.6-0.5,1.3-0.7,1.8c0,0.7,0,1.4,0.1,1.9c-0.2,1.5-1.3,2.2-2.1,3.1c-0.7,0.9-0.9,2.3-1.8,3c-0.1,0-0.2,0-0.3,0.1
			c-1.1-3.7-5.8-7.5-10.2-5.7c-2.6,1-5,3.3-6.3,5.7c-2.1,3.6,0,8.6,2.9,10c1.6,0.8,3.7,0.5,5.4,0.9c0,0,0,0.1,0.1,0.1
			c-0.7,1.9-2.1,3.3-3.2,4.8c-1.8,2.6-3.6,5.3-5.3,7.8c-0.9,1.4-2.1,4-3.6,4.9c0,0-0.1,0.1-0.1,0.2c-0.1-0.2-0.2-0.6-0.2-0.8
			c-0.5-0.2-0.7-0.2-1.3-0.2c-0.1,0.1-0.2,0.2-0.3,0.5c0,0.2,0,0.6,0.1,0.9c0.3,0.2,0.3,0.3,1,0.3c0,0,0,0.1,0.1,0.2
			c-1.4,3.8-4.8,6.3-7,9.4c-2.6,3.7-5,7.6-7.9,10.9c-1.5,1.8-3.8,3.9-4.6,6.2c-0.3-0.1-0.3-0.3-0.5-0.8c-0.8-0.3-1.4-0.3-1.7,0.5
			c0,0.2,0,0.6,0.1,0.9c0.3,0.2,0.5,0.3,0.9,0.3c0,0.2,0,0.5-0.1,0.6c-0.6,0.6-0.7,0.3-1.4,0.7C372.3,353.5,369.8,356.2,369.2,356.8
			z M393.6,410.5c0.1,0,0.3,0.1,0.5,0.1c0.1,0.2,0.3,0.5,0.5,0.7c-0.2,1.4-1.3,1.7-1.5,3.3c-0.2,0-0.6-0.1-0.9-0.2
			c-0.2-0.1-0.5-0.2-0.6-0.3C391.3,412.3,392.7,411.5,393.6,410.5z M393.9,420.3c-0.9,0.2-1.6,0.3-2.3,0c-0.6-1.7,1.1-2.3,1.9-3.3
			c0.1,0,0.1,0,0.2,0.1c0.2,0.2,0.6,0.5,0.8,0.7C394.6,418.8,394.2,419.3,393.9,420.3z M417.2,378.5c-5.2,7-12.7,11.7-18.7,17.9
			c-2.1,2.2-5.3,5.8-3.9,10.3c-0.3,0.6-1.5,1-2.3,1.1c-0.3-0.5-0.7-1-0.9-1.5c-0.7-3.1,5.8-10.1,7.5-12.5c5.3-7.5,14.8-10.8,19-19.4
			c1.4-2.9,0.2-5.7,0.5-8.7c0.5-0.2,0.9-0.6,1.4-0.8c0.2,0.1,0.1,0,0.2,0.2c0.6,0.8,0.1,1.3,0.2,2.2
			C421.1,371.9,419.2,375.8,417.2,378.5z M464,304.2c0.3,1.1,1,2.1,0.7,3.1c-0.8,0.3-1.4,0.3-1.9,0.9c0.1,0.2,0.1,0.6,0.2,0.9
			c0.9,0.2,1.5-0.2,2.4-0.5c0.6,1.1,0.9,2.8,0.9,4.4c0,0,0,0.1-0.1,0.1c-0.6,0.3-1.6,0.6-2.4,0.7c-0.2,0.7-0.1,1.1,0.5,1.3
			c-0.1,0.6-0.3,1.1-0.6,1.6c0.5,0.2,0.8,0.5,1.4,0.2c0,0,0.1,0,0.2,0c0.2-0.3,0.2-0.5,0.2-0.9c-0.3-0.2-0.2-0.2-0.6-0.2
			c-0.3-0.5,0.1-0.1-0.2-0.8c0.6,0.1,0.9-0.1,1.5-0.2c0,0.1,0,0.1,0,0.2c0.3,0.5,0.2,2.8-0.1,3.2c-0.6,0.9-2.1,0.5-2.9,0.3
			c-0.1,0.1-0.1,0.2-0.2,0.3c-0.2,0.7,0.5,1.4,0.6,2.3c0.2,0.2,0.3,0.3,0.9,0.3c0.1,1-0.3,2.6-1.3,3v0.1c-0.5-0.2-0.6-0.3-0.9-0.8
			c0.2-0.5,0.3-1,0.6-1.5c-0.3-0.2-0.7-0.5-1.1-0.6c-0.1,0-0.2,0-0.5,0c-0.2,1,0.2,2.1-0.2,3.1c-0.2,0.2-0.6,0.5-0.8,0.7
			c-0.1,0.5-0.2,0.9-0.2,1.3c-0.1,0.1-0.5,0.2-0.7,0.7c0,0.2,0.1,0.3,0.1,0.6c0.2,0.2,0.5,0.3,1,0.3c0.5-0.3,0.6-1,0.6-1.5
			c0.3-0.3,0.7-0.5,0.9-0.9c0.1,0,0.2,0,0.3,0.1c0.2,1.3-1.1,2.6-1.8,3.6c-1.1-0.1-1.3-1-2.3-1.4c-0.1,0.1-0.2,0.3-0.5,0.5
			c-0.2,0.6,0,1.6,0.1,2.4c0.3,0.2,0.8,0.1,1.4,0.1c-0.2,1.5-1.6,3.4-2.9,4c-2.1-0.9-1.4-0.9-2.4-2.6c-0.3,0.1-0.8,0.2-1.3,0.2
			c-0.7,1.3,0.9,3.3,2.2,3.6c0.3,0.9-1.6,3-2.3,3.4c-0.3,0-0.8,0.1-1.1,0.1c-0.3-0.5-0.7-1.1-1.1-1.5c-0.3-0.2-0.5-0.2-0.9-0.2
			c-0.6,1.5,0.3,2.2,1.1,3c0.1,0.1,0.1,0.3,0.1,0.6c-1,0.8-1.8,2.3-3.1,2.9c-1,0.1-2.6-2.4-3.3-1.1c0,0.2,0,0.6-0.1,0.8
			c0.7,0.6,1,1,1.8,1.3c0,0.2,0,0.5,0,0.6c-0.9,0.7-1.9,1.9-3.2,2.3c-0.7-0.6-0.9-1.3-2.1-1.4c0,0.1-0.1,0.2-0.2,0.2
			c-0.3,0.9,0.6,1.5,0.6,2.5c-0.5,0.5-1,1-1.5,1.5c-0.2,0-0.5,0-0.7,0c-0.5-0.5-0.3-1-1.1-1.3c0-0.1-0.1-0.1-0.1-0.2
			c-1.5,0.7-0.5,2.1-0.6,3.2c-0.8,0.6-1.7,1.1-2.5,1.6c-0.7-0.2-0.9-1.1-1.7-1.5c-0.1,0.1-0.2,0.2-0.5,0.5c-0.1,0.7,0,1.3,0.1,2.1
			c-0.6,0.6-1.1,1-1.8,1.5c-0.2,0-0.6,0-0.8-0.1c-0.3-0.8-0.2-1.4-1-1.8c-0.1,0-0.2,0-0.5,0c-0.6,0.9-0.3,2.1-0.3,3.2
			c-0.7,0.6-1.5,0.9-2.5,1.3c-0.8-0.9-0.9-2.1-2.5-2.3c-0.3,1.4,0,2.3,1.3,2.8c0,0.1-0.1,0.2-0.1,0.5c-0.2,0.2-4.2,1.9-4.8,2.1
			c-0.1,0-0.2,0-0.2-0.1c-0.1-0.8-0.2-1.6-0.9-1.8c-0.2-0.1-0.5-0.2-0.7-0.2c-0.1,0-0.2,0.1-0.2,0.2c-0.1,0.9,0.3,2.2,0.1,2.9
			c-0.6,0.7-2.2,1.4-3.2,1.4c-0.2-0.5-0.5-1-0.6-1.7c-0.5-0.3-0.7-0.5-1.5-0.2c-0.1,0.1-0.2,0.2-0.2,0.3c-0.1,0.9,0.3,1.6,0.3,2.8
			c-0.9-0.1-1.8,0.9-2.9,1c-0.1-0.1-0.2-0.2-0.5-0.2c0-0.5-0.1-1-0.1-1.5c-0.2-0.2-0.5-0.5-0.6-0.6c-0.2,0-0.5,0-0.6-0.1
			c-1.3,1.4-0.3,1.9-0.5,3.6c-0.7,0.2-2.4,1.3-3.2,0.7c0,0-0.1,0-0.2,0c0-0.1,0.1-0.3,0.1-0.5c0-0.3,0-0.8,0.1-1.1
			c-0.1-0.5-0.5-0.3-0.6-1.1c0.6-0.3,1.1-0.7,1.6-1c3.2-2.3,4.9-7.7,1.8-11.2c-1.1-1.3-2.8-0.9-4.4-1.8c-1.4-0.8-2.8-2.1-5.2-1.6
			c-3.7,0.7-6.7,3-8.3,5.7c-0.5,1.5-1,3-1.5,4.4c0,0.7,0,1.4,0.1,2.1c-0.3,0.2-0.7-0.2-1-0.2c-0.1,0.1-0.2,0.2-0.3,0.3
			c0,0.6,0,0.9,0.3,1.1c0,0,0,0.1,0,0.2c0.9,0,1.1-0.3,1.3-1.1c1.5,0.8,2.2,2.8,4,3.4c0.5,0,1,0.1,1.5,0.2c3.4,1.4,5.5,0.6,8.8,0
			c0,0,0,0,0.1,0.1c-0.2,1-0.3,2.1-0.6,3.1c-0.8,0.2-2.5,1.3-3.6,0.9c-0.7-0.5-0.5-1.1-1.6-1.3c-0.6,0.6-0.5,1.1-0.6,2.1
			c-0.7,0.2-1.9,1.1-2.9,0.7c-0.2-0.2-0.3-1.3-0.3-1.6c-0.2-0.1-0.5-0.2-0.6-0.3c-1.5,0.1-0.7,1.5-1.5,2.3c-0.3,0.3-0.7,0.1-0.9,0.6
			c-0.6,0-1.1,0-1.7,0.1c-0.2-0.3-0.3-0.9-0.5-1.4c-0.5-0.3-0.6-0.6-1.1-0.7c-0.8,0.8-0.7,1.4-0.9,2.5c-0.7,0.3-2.8,0.3-3.4,0.2
			c-0.8,0.1-0.3-1.7-0.2-2.3c-0.1-0.1-0.2-0.2-0.5-0.2c-0.3,0-0.8,0-1.1,0c-0.3,0.7-0.7,1.8-1.1,2.5c-0.7,0-1.5,0.1-2.2,0.1
			c-0.1-0.1-0.2-0.2-0.2-0.3c0.2-1.4,0.9-1.3,0.7-3.1c-0.3-0.2-0.5-0.3-1-0.3c0-0.3-0.1-0.7-0.2-1c-0.2-0.1-0.3-0.2-0.6-0.3
			c-0.2,0-0.6,0-0.8,0.1c-0.1,0.1-0.1,0.2-0.2,0.3c-0.2,0.5,0,0.8,0.1,1.1c0.3,0,0.7,0,1,0c0.1,0.6-0.6,2.5-1,2.9
			c0,0-0.1,0.1-0.2,0.1c-0.2-0.3-0.5-0.9-0.6-1.5c-0.7-0.6-2.2-0.3-2.4,0.5c-0.3-0.2-0.7-0.5-0.9-0.9c0-0.1-0.1-0.2-0.2-0.3
			c0,0,0.1-0.1,0.2-0.1c0.3-0.5,1.4,0.1,2.2,0.1c0,0,0.1-0.1,0.2-0.2c0.2-0.6,0-2.2-0.1-2.9c-0.3-0.2-0.7-0.5-1.1-0.2
			c-0.1,0.1-1.9,1.8-1.9,1.9c0,0-0.1,0-0.1,0.1c-0.8-1.6,0.2-4.5,0.7-6.2c-0.2-0.8,1-2.4,1.4-3.2c1.3-3.2,2.4-5.6,4-8.4
			c0.5-0.3,0.9-0.8,1.3-1.1c0.5-0.7,0.5-1.4,0.9-2.1c1.5-2.2,3.7-4,5.3-6.1c2.3-3.2,4.2-6.4,6.7-9.6c1.5-2.1,3.4-3.8,4.9-5.8
			c2.3-3.2,4.4-6.9,6.8-10.2c1.5-2.1,2.9-4.2,4.4-6.3c0.8-1.1,2.1-2.3,2.5-3.7c0.1,0,0.3-0.1,0.5-0.1c1.7,3.3,1.9,5,6,6.3
			c0.5,0,1,0,1.5-0.1c4.6,0.7,7.5-3.3,8.9-6.5c0.5-1,1.4-3.2,1-4.6c-0.7-2.5-2.3-5.3-4.6-6.1c-1.3-0.2-2.6-0.3-3.9-0.6
			c-0.5-0.5,0.8-1.9,1.1-2.5c1.4-1.9,2.5-3.4,4.8-4.6c0.6-0.1,1.3-0.3,1.8-0.6c6.4-3.1,12,0.5,16.3,2.6c1.6,0.8,3.2,2.4,5.3,2.8
			c0,0.9,0,1.5,0.2,1.9c0.1,0,0.1,0,0.2,0.1c0.9-0.1,1.1-0.8,1.6-1.4c2.8,1,5,2.2,8.4,2.1c0,0.5-0.1,0.9-0.2,1.4
			c0.3,0.6,0.7,0.8,1.5,0.8c0.1-0.5,0.2-0.5,0.8-0.5c-0.3,0.6-0.6,0.8-1.3,0.8c-0.3,0.8-0.7,2.1,0.6,2.4c-0.1,0.5-0.3,0.7-0.6,1.1
			c0,1,0.5,1.1,0.7,1.9c0.6,0.3,1.5,0.5,2.2,0.6c0,0.9,0.1,1.5,0.2,2.2c0.2,0,0.3-0.1,0.6-0.1c0.2-0.2,0.5-0.5,0.7-0.6
			c0-0.7-0.5-0.7-0.7-1.5C462.8,305,463.4,304.6,464,304.2z M471.8,292.6c-1,1.6-7,3.6-9.7,3c0-0.1-0.1-0.2-0.2-0.5
			c0.9-1.5,2.4-0.8,4-1.4c1.8-0.6,3.4-1.8,4.9-2.9c0.1,0,0.3,0,0.5,0c0.2,0.3,0.6,0.7,0.8,1C472,292.2,471.9,292.4,471.8,292.6z
			 M480,287.3c-0.5,0.5-0.9,0.5-1.1,1.1c-0.1,0-0.3,0-0.6-0.1c1.5-1.9,3.7-3.6,4.9-6c0.1-0.6,0.2-1.1,0.3-1.6
			c0.3-0.8,1.1-2.1,1.7-2.8c0.5,0.1,0.6,0.3,0.9,0.6C486.5,280.4,481.4,285.8,480,287.3z M488.6,276.6L488.6,276.6
			c-0.7-0.5-0.1-3.8,0.3-4.4c0.1,0,0.2,0,0.2,0c0.5,0.2,0.8,0.7,0.8,1.1C490.1,274.7,489.1,275.7,488.6,276.6z M491.8,272.9
			c-0.9-1.3-1.4-2.4-0.3-3.7c0.8,0,1.4,0.5,1.7,0.9c0.1,0,0.1,0,0.2,0.1C493.1,271.1,492.7,272.3,491.8,272.9z M384.4,284.2
			c2.2,0.6,4.4-0.7,5.7-1.5c7.3-4.2,10.8-17.2-1.1-18c-1.3,0.6-2.4,0.7-3.6,1.3c-2.5,1.4-5.3,5.8-6.4,8.4
			C376.8,279.5,380.5,283.2,384.4,284.2z M455.8,299.1c0.1-0.3,0.1-0.5,0.1-0.9c-0.3-0.1-0.8-0.3-1.1-0.6c-0.1,0-0.2,0.1-0.3,0.2
			c-0.1,0.2-0.2,0.6-0.2,0.8c0,0,0,0.1,0.1,0.2C454.8,299.3,454.9,299.2,455.8,299.1z M378,316.2c0.7,0.3,1.5,0.1,2.3,0.6
			c1.3-0.1,2.5-0.2,3.8-0.3c1.8-1.1,4.1-1.9,5.4-3.8c3.2-4.7,1.5-11-2.6-13.4c-1.6-0.9-3.6-0.6-5.4-0.7c-0.6,0.1-1.3,0.2-1.8,0.2
			c-1.5,0.3-2.6,1.1-3.6,2.1c-0.8,0.9-1.4,2.4-1.8,3.7c-1.8,4.8-1.5,6.9,1.5,9.7C376.4,314.9,377.1,315.9,378,316.2z M452.9,300.4
			c0.1-0.3,0.2-0.7,0.3-1c-0.3-0.3-0.6-0.3-0.9-0.5c-0.2,0-0.5,0.1-0.6,0.1c-0.1,0.2-0.2,0.6-0.1,1c0.2,0.1,0.5,0.2,0.7,0.5
			C452.4,300.5,452.6,300.5,452.9,300.4z M447.2,301.5c0-0.2,0-0.3-0.1-0.6c-0.2-0.5-0.6-0.7-1-0.9c-0.1,0.1-0.2,0.2-0.5,0.5
			c-0.1,0.2-0.2,0.6-0.2,0.8C446,301.8,446.8,301.8,447.2,301.5z M438.5,302.8c-0.1,0.2-0.2,0.5-0.5,0.6c0,0.1,0.1,0.3,0.1,0.6
			c0.7,0.2,1,0.3,1.5-0.3C439.4,303,439.3,302.8,438.5,302.8z M455.5,305.4c0.1,0.3,0.1,0.3,0.2,0.6c0.2,0,0.3,0.1,0.6,0.2
			c0.5-0.1,0.8,0,1-0.6c0-0.1,0-0.2,0-0.2c-0.3-0.6-0.8-0.5-1.4-0.6c0,0-0.1,0-0.1,0.1C455.7,305,455.6,305.2,455.5,305.4z
			 M460.3,310.4c0.1-0.1,0.3-0.3,0.6-0.6c0-0.7-0.5-1.4-0.6-2.3c-0.3-0.1-0.8-0.1-1.1-0.2c-0.2,0.2-0.5,0.3-0.6,0.7
			c0.1,0.9,0.7,1.6,1.1,2.3C459.9,310.2,460.1,310.2,460.3,310.4z M441.2,309c0.3,0,0.6-0.1,0.9-0.1c0.2-0.3,0.3-0.3,0.2-0.9
			c-0.3-0.1-0.8-0.2-1.1-0.5c-0.2,0.1-0.5,0.3-0.6,0.6c0,0.3,0.1,0.6,0.2,0.9C440.9,308.9,441.1,308.9,441.2,309z M455.2,321.8
			c0.9-1,3.2-3.6,2.5-6c-0.5-1.7-1.3-3.1-2.1-4.4c0.1-1,0.5-0.9,0.7-1.6c-0.3-0.3-0.6-0.6-1.1-0.6c-0.2,0.2-0.5,0.5-0.6,0.7
			c-1.9-0.2-3.6-1.5-5.7-1.1c0,0,0-0.1-0.1-0.2c-1.3,0.6-2.5,0.8-3.6,1.6c-3.7,2.6-8.9,12-2.6,15.2
			C448,328.2,452.2,325.1,455.2,321.8z M461.7,311c0,0.3,0,0.7-0.1,1c0.3,0.3,0.3,0.5,1,0.6c0.7-0.7,0.6-0.8,1.6-0.6
			c0.6-0.2,0.8-0.5,1-0.9c-0.2-0.5-0.5-0.7-1-0.8c-0.5,0.3-0.7,0.5-0.9,1.1c0,0-0.1,0.1-0.2,0.1c-0.3-0.3-0.6-0.6-1.1-0.7
			C461.9,310.9,461.8,311,461.7,311z M461,315.5c0.2-0.1,0.1,0.1,0.2-0.2c-0.1,0-0.2-0.1-0.2-0.1c0.3-0.2,0.5-0.3,0.7-0.8
			c0,0,0-0.1-0.1-0.2c0.1-0.5-0.5-0.8-1-0.9c-0.5,0.3-0.5,0.9-0.5,1.6c-0.1,0-0.3,0.1-0.5,0.2c-0.5-0.1-1.3,3.1,0.6,2.9
			c0.1-0.2,0.2-0.6,0.3-0.9c0.6-0.2,1.6-0.1,2.1-0.5c0-0.1-0.1-0.2-0.1-0.2C462.3,315.9,461.6,316,461,315.5z M461.5,317.9
			c-0.2,0.1-0.3,0.2-0.6,0.3c0,0.5,0,0.9,0.1,1.3c0.2,0,0.6,0,0.9,0c0.2-0.3,0.5-0.5,0.7-0.9c-0.1-0.1-0.2-0.3-0.2-0.5
			C462,318.2,461.7,318,461.5,317.9z M359.9,318.5c-1.5,0.8-4,0.1-5.7,1.3c-0.9,0.7-1,2.1-1.6,3.1c-2.3,4.1-4.8,10.4,0.2,13.5
			c-0.2,0,0.1,0.3,0.2,0.5c1,0.8,2.8,1.7,4,1.9C366,340.3,371.7,320.9,359.9,318.5z M458.1,318.6c0,0.3,0,0.8,0,1.1
			c0.1,0.1,0.2,0.2,0.2,0.2c0.2,0.2,0.7,0,1.1-0.1c0-0.2,0.1-0.3,0.2-0.6C459.4,319,458.8,318.7,458.1,318.6z M391.9,319.9
			c-0.5,0.7,0,2.2,0.8,1.1c0.1-0.1,0.1-0.1,0.2-0.5C392.7,320.3,392.4,320,391.9,319.9z M420.2,321.6c-1.4-0.7-2.9-0.6-4.2-0.6
			c-1,0.1-2.1,0.2-3,0.3c-1.5,0.5-3.6,2.1-4.7,3.2c-2.3,2.2-4.1,8.7-1.8,11.9c1.4,1.8,4.1,2.8,6.7,3.3c3.4,0.8,6.1-1.7,7.5-3.3
			c1.3-1.5,3.2-3.6,3.8-5.5C425.3,327.2,423.1,323,420.2,321.6z M436.9,325.6c0-0.2,0-0.6,0.1-0.9c-0.3-0.2-0.7-0.3-1.3-0.3
			C434.7,325.4,435.9,326.5,436.9,325.6z M453.9,324.8c-0.1,0.1-0.2,0.3-0.2,0.5c0,0.2,0.1,0.3,0.1,0.6c0.2,0.1,0.5,0.2,0.7,0.3
			c0.5-0.2,0.6-0.3,0.9-0.8c0,0,0,0,0-0.1c-0.3-0.2-0.5-0.5-1-0.5C454.2,324.7,454,324.7,453.9,324.8z M457.6,324.8
			c-0.1,0.1-0.1,0.2-0.2,0.2c-0.3,0.6,0,1.3,0.1,1.8c0.3,0.1,0.6,0.2,0.9,0.3c0,0,0,0,0.1,0c0.5-0.6,0.6-1,0.3-1.9
			C458.4,325.1,458,324.9,457.6,324.8z M383.6,325.5c-0.2,0.2-0.3,0.3-0.6,0.6c0,0.2,0,0.6,0.1,0.8c0.3,0.2,0.6,0.1,1.1,0.1
			c0.1-0.2,0.2-0.5,0.5-0.7c0-0.1-0.1-0.3-0.2-0.6C384.2,325.7,383.8,325.6,383.6,325.5z M456.2,327.8c0,0.2,0,0.6,0,0.8
			c0.2,0.2,0.3,0.3,0.6,0.6c0.2,0,0.6,0,0.8-0.1c0,0,0.1,0,0.2-0.1c-0.1-0.3-0.2-0.7-0.3-1C457,327.9,456.6,327.8,456.2,327.8z
			 M441.3,329.4c-0.1,0-0.1,0.1-0.2,0.1c0,0.2,0,0.5,0,0.7c0.3,0.3,0.5,0.5,1.1,0.5c0,0,0.1-0.1,0.2-0.1
			C442.9,329.8,442.2,329.4,441.3,329.4z M450.7,330c-0.5,0.6-1,0.1-1,1.4c0.2,0.2,0.5,0.3,0.6,0.6c0.8-0.1,1.3-0.6,1.8-0.9
			c-0.1-0.5-0.2-0.5-0.5-0.8C451.3,330.1,450.9,330,450.7,330z M381.2,332.8c0.1-0.3-0.1-0.6-0.2-0.9c-0.3-0.1-0.7-0.2-0.9-0.2
			c-0.3,0.5-0.9,0.7-0.7,1.5c0,0,0,0.1,0,0.2c0.5,0.3,0.8,0.2,1.3,0.3C381,333.3,381.1,333.3,381.2,332.8z M446.4,335.1
			c0,0.1,0,0.1,0,0.2c0.3,0.2,0.5,0.2,0.9,0.3c0.2-0.1,0.5-0.3,0.7-0.6c0-0.2,0-0.5,0-0.7c-0.5-0.1-0.9-0.2-1.4-0.2
			C446.4,334.5,446.3,334.7,446.4,335.1z M394.6,337.3c0,0.2,0,0.3,0.1,0.6c0.3,0.6,1.1,0.2,1.7,0c0.2-0.3,0.3-0.5,0.5-0.9
			c0,0,0,0,0-0.1c-0.5-0.1-0.9-0.2-1.4-0.5C395.1,336.7,394.8,336.8,394.6,337.3z M431.1,336.5c-0.1,0.1-0.2,0.2-0.5,0.3
			c0,0.2,0,0.5,0,0.7c0.3,0.1,0.7,0.3,1,0.5c0.2-0.1,0.3-0.2,0.6-0.5c0-0.3,0-0.5-0.2-0.7C431.8,336.6,431.5,336.6,431.1,336.5z
			 M441.2,338.1c-0.1,0.1-0.2,0.3-0.3,0.5c0,0.7,0.1,0.7,0.2,1.3c0.1,0,0.3,0,0.6,0c0.3-0.2,0.6-0.3,0.8-0.8
			C442.1,338.4,441.9,338.2,441.2,338.1z M429.4,341c0.2-0.7-0.9-1.3-1.5-1.3c-0.2,0.3-0.6,1-0.1,1.4
			C428,341.4,429.1,341.7,429.4,341z M380.4,340.3c0,0.2,0,0.5-0.1,0.6c0.1,0.2,0.3,0.5,0.6,0.6c0.2,0.2,0,0.1,0.3,0.1
			c0.6,0.2,0.7-0.5,0.9-0.9c-0.3-0.3-0.8-0.6-1.3-0.8C380.6,340.1,380.5,340.2,380.4,340.3z M367.7,342.1c-0.2,0.1-0.3,0.3-0.6,0.6
			c-0.1,0.6,0,1,0.3,1.4c0.1,0.2,0.7,0,1.1-0.1C369.3,343.1,368.7,342.3,367.7,342.1z M373.3,345c0.6-0.1,0.7-0.5,0.9-0.9
			c0-0.2,0-0.3,0-0.6c-0.5-0.1-1-0.2-1.5-0.5c-0.1,0.1-0.2,0.2-0.2,0.3c0,0.5,0,0.6,0.1,1.1C372.7,344.6,372.9,344.9,373.3,345z
			 M393.6,343.7c-0.5,0.3-0.7,0.6-0.9,1c0,0.2,0,0.6,0.1,0.8c0.8,0.1,1.6-0.1,1.8-0.9C394.7,344.1,394.2,343.8,393.6,343.7z
			 M408.5,345.2c-0.1,0.5-0.2,0.9-0.2,1.3c0.1,0.1,0.2,0.2,0.3,0.2c0.2,0.2,0.8,0.1,1.3-0.1c0.1-0.2,0.1-0.6,0.2-0.8
			c-0.1-0.1-0.2-0.3-0.2-0.6C409.4,345.3,408.9,345.3,408.5,345.2z M354,345.6c-0.1,0-0.1,0.1-0.2,0.2c-0.1,0.2-0.2,0.6-0.2,0.9
			c0.2,0.3,0.6,0.7,0.8,1c0.6-0.1,0.9-0.3,1.1-0.8c-0.2-0.3-0.5-0.7-0.6-1C354.6,345.7,354.3,345.7,354,345.6z M429.2,346.4
			c-0.2,0.3-0.1,0.6,0,1c0.6,0.5,1.4,0.6,1.4-0.6c0,0,0,0,0-0.1c-0.5-0.3-0.6-0.7-1.1-0.8C429.4,346.1,429.2,346.2,429.2,346.4z
			 M385.7,347.8c-0.2,0.1-0.3,0.3-0.6,0.6c0,0.6,0,0.7,0.2,1c0.1,0.1,0.2,0.2,0.3,0.3c0.3-0.1,0.6-0.2,0.9-0.5
			C386.8,348.4,386.4,348,385.7,347.8z M382.9,350.4c-0.2,0.1-0.5,0.2-0.7,0.2c-0.2,0.2-0.2,0.2-0.3,0.6c0,0.2,0,0.5,0,0.6
			c0.2,0.1,0.3,0.1,0.6,0.2c0.2,0,0.5,0,0.7,0c0.3-0.3,0.6-0.6,0.6-1.1c-0.1-0.2-0.3-0.3-0.6-0.6C383.1,350.4,383,350.4,382.9,350.4
			z M359.5,351.1c-0.1,0.2-0.2,0.6-0.5,0.9c0.2,0.6,0.5,0.8,1,1c0.6-0.2,0.8-0.5,0.9-1.1C360.8,351.3,360.4,351.1,359.5,351.1z
			 M368.1,353.7c0,0.2,0,0.6,0.1,0.8c0.2,0.1,0.2,0.2,0.6,0.2c0.3,0.1,0.7-0.1,0.9-0.6c0-0.3,0-0.8,0.1-1.1
			c-0.2-0.2-0.3-0.2-0.8-0.3C368.7,353,368.4,353.4,368.1,353.7z M352.5,354.4c0,0.2,0,0.5,0,0.7c0.6,0.3,0.8,0.5,1.7,0.5
			c0.3-0.2,0.3-0.3,0.3-0.9c-0.3-0.3-0.8-0.7-1.5-0.8C352.9,354,352.6,354.3,352.5,354.4z M364.2,355.8c-0.2,0.1-0.6,0.2-0.8,0.2
			c-0.1,0.2-0.1,0.3-0.2,0.6c0,0.2,0.1,0.6,0.2,0.8c0.2,0.1,0.2,0.1,0.5,0.2c0.2,0,0.6-0.1,0.8-0.2c0.1-0.2,0.3-0.6,0.6-0.9
			C364.9,356.2,364.7,356,364.2,355.8z M358.7,358.5c-0.2,0.2-0.5,0.2-0.6,0.6c-0.2,0.3-0.1,0.7-0.1,1.1c0.1,0.1,0.3,0.2,0.6,0.5
			c0.1,0,0.3,0,0.6,0c0.3-0.3,0.6-0.7,0.9-0.9C359.8,358.9,359.4,358.7,358.7,358.5z M380.9,360c0-0.3,0-0.5-0.2-0.6
			c-0.2-0.2-0.6-0.5-0.9-0.6c-0.1,0.2-0.3,0.6-0.5,0.8c0,0.6,0.1,0.7,0.3,0.9c0.2,0.2,0.1,0.1,0.5,0.1
			C380.3,360.9,380.7,360.2,380.9,360z M376.5,361.2c0-0.1,0.1-0.2,0.2-0.3c-0.6-0.1-1.1-0.2-1.7-0.2c-0.1,0.1-0.2,0.2-0.2,0.3
			c-0.1,0.3-0.1,0.7,0.1,1c0,0,0.1,0.1,0.2,0.2C375.6,362.5,376.4,361.7,376.5,361.2z M371.2,364.9c-0.1,0.1-0.2,0.2-0.3,0.5
			c0,0.7,0.1,0.9,0.2,1.3c0.2,0,0.3,0.1,0.6,0.2c0.5-0.2,0.7-0.6,0.9-1C372.4,365,372,364.9,371.2,364.9z M376,366.1
			c-0.1,0.2-0.2,0.3-0.5,0.6c0,0.2,0,0.5,0.1,0.6c0.1,0.1,0.2,0.2,0.5,0.5c0.2,0,0.6-0.1,0.8-0.1c0.1-0.1,0.2-0.2,0.3-0.3
			c0-0.1,0.1-0.2,0.1-0.3C377,366.3,376.6,366.3,376,366.1z M380.4,366.5c-0.2,0.5-0.2,0.6-0.2,1.3c0.1,0.1,0.2,0.2,0.5,0.3
			c0.9,0,1.1-0.6,1.4-1.4c-0.3-0.2-0.5-0.3-0.8-0.5C380.9,366.4,380.6,366.4,380.4,366.5z"/>
	</g>
</g>
</svg>
