<?xml version="1.0" encoding="utf-8"?>
<!-- Generator: Adobe Illustrator 21.0.0, SVG Export Plug-In . SVG Version: 6.00 Build 0)  -->
<svg version="1.1" id="Calque_1" xmlns="http://www.w3.org/2000/svg" xmlns:xlink="http://www.w3.org/1999/xlink" x="0px" y="0px"
	 viewBox="0 0 841.9 595.3" style="enable-background:new 0 0 841.9 595.3;" xml:space="preserve">
<style type="text/css">
	.st0{fill:#DADADA;}
	.st1{fill:#1D1D1B;}
</style>
<ellipse class="st0" cx="435.3" cy="375.9" rx="87.6" ry="5.1"/>
<g>
	<g>
		<path class="st1" d="M545.9,273.3c-0.2-0.8-0.3-2.2-0.2-3.5c0-0.5,0.3-1.2,0.1-1.9c-0.2-0.7-0.2-1.9-0.5-2.6
			c-0.2-0.4-0.6-0.9-0.7-1.3c-0.1-0.5,0.3-0.7,0.4-1c0-0.1,0-0.3-0.1-0.4c0.2-0.8,0.1-1.6,0.2-2.2l-0.1-2c0-0.1-0.3-0.3-0.3-0.4
			c-0.1-0.4,0-0.7-0.1-1c-0.1-0.1-0.3-0.3-0.4-0.4c0-0.2,0-0.4-0.1-0.6c-0.5-0.9-1.3-1.2-1.9-1.9c-0.2-0.3-0.4-0.8-0.7-1
			c-0.3-0.2-0.7-0.2-1-0.4c-0.2-0.1-0.5-0.4-0.7-0.5c-0.3-0.1-0.4-0.1-0.7-0.2c0-0.1,0-0.1-0.1-0.2c-0.2,0-0.4,0-0.7-0.1
			c-0.3-0.1-0.7-0.3-1-0.4c-0.7-0.2-1.9,0-2.7,0c-0.7,0-1.3,0-2-0.1c-0.7,0.2-1.5,0.2-2.1,0.5c-1.7,0.8-3.5,1.7-5.3,2.3
			c-0.3-0.4-0.8-0.7-1.1-1.1v-0.2c-0.1-0.1-0.5-0.1-0.6-0.3c-0.2-0.2-0.2-0.5-0.4-0.7c-0.3-0.3-0.7-0.4-1-0.7
			c-0.1-0.1-0.1-0.3-0.1-0.4c-0.2-0.3-0.6-0.4-0.9-0.6c-1.2-1-2.1-2.4-3.4-3.2c-2.5-1.6-5-3.2-7.9-4.4c-0.5-0.2-1.1-0.7-1.6-1
			c-1-0.5-1.9-0.8-2.9-1.2c-0.2-0.1-0.4-0.4-0.6-0.4c-2.3-0.9-4.8-1.6-7.1-2.3c-0.4-0.1-0.8-0.2-1.2-0.3H496c-1.2-0.5-2.9-1-4.2-1.4
			c-0.7-0.2-1.3-0.1-2-0.3c-0.8-0.3-1.7-0.6-2.6-0.9h-1c-0.4-0.1-2.1-0.4-2.8-0.1c-0.4,0.1-0.6,0.5-1.2,0.4
			c-1.1-0.3-2.4-0.4-3.6-0.7c-0.8-0.2-2-0.1-2.9-0.3c-0.9-0.2-1.5,0.1-2.1,0c-1.2-0.2-3-0.1-4.3-0.4c-0.3,0-0.5,0-0.8,0.1
			c-2.5-0.4-5.3-0.2-7.5-0.2c-0.6,0-1.1-0.1-1.7-0.1c-0.2,0-0.3,0-0.5,0.1c-0.3-0.1-0.9-0.3-1.3-0.1c-1.6,0.4-3.4-0.1-5.1,0.3
			c-1,0.2-2.5,0.1-3.8,0.3c-0.3,0-0.6,0-0.9-0.1c-1.4,0.3-3.8,0.5-5.4,0.4c-0.8,0-2,0-2.6,0.1c-0.5,0.1-1.1-0.2-1.5-0.1
			c-0.1,0-0.4,0.3-0.4,0.3c-0.2,0-0.4-0.1-0.6-0.1c-0.1,0-0.4,0.2-0.4,0.2c-0.4,0-0.8,0-1.2-0.1c-0.3,0.1-1.2,0.2-1.5,0.2
			c-0.8,0-1.6,0-2.4,0.1c-1.3,0.3-2.5,0.1-4,0.4c-1.2,0.2-3,0.2-4.1,0.4c-0.5,0-0.9,0-1.4-0.1c-0.6,0.1-1.4,0.2-2.2,0.1
			c-0.2,0-0.4,0-0.6-0.1c-1.2,0.2-3.3,0.2-4.3,0.1c-0.5,0-1.3,0.2-1.8,0.2c-0.6,0-1.3-0.1-2-0.1h-2.3c-0.8-0.2-1.5,0-2.1,0
			c-0.6,0-1.1-0.1-2-0.1H403c-0.5-0.1-1.3-0.1-2-0.1c-0.2,0-0.3,0-0.5,0.1c-0.9-0.2-2-0.2-3-0.4c-0.6-0.1-1.4,0.1-1.8,0
			c-2.9-0.5-6.1-0.1-8.8-0.7c-0.5-0.1-1,0.1-1.5,0.1c-1.1,0-2.1,0-2.9-0.1c-0.4,0-0.9,0.1-1.3,0.1c-0.7-0.1-1.4,0-2.3,0.1H378
			c-0.4,0.1-1.1,0.3-1.5,0.3c-3.7-0.1-6.7,1.3-9.9,2.3c-1.5,0.5-2.8,0.7-4.2,1.2c-0.4,0.1-1.1,0.7-1.6,0.4c-0.5,0.1-1.6,0.4-1.8,0.2
			c-0.7-0.1-0.9-0.7-1.3-1c-0.5-0.4-1-0.6-1.5-1c-0.3-0.2-0.3-0.6-0.6-0.8c-0.3-0.3-0.9-0.2-1.1-0.6v-0.3c-0.1-0.2-0.4-0.4-0.5-0.6
			c-0.1-0.2,0-0.3-0.1-0.5c-0.2-0.3-0.6-0.6-0.8-0.9c-0.6-0.9-1.3-1.7-1.9-2.5c-0.2-0.2-0.2-0.5-0.4-0.7c-0.8-0.8-1.7-1.7-2.3-2.6
			c-0.3-0.5-0.5-1.2-0.9-1.6c-0.1,0-0.1,0-0.2-0.1c-0.2-0.4-0.4-0.7-0.6-1.1c-0.1-0.1-0.2-0.1-0.3-0.2c-0.3-0.5-0.3-1-0.6-1.5
			c-1.6-2.6-3-5.3-6.5-6.1c-0.4-0.1-1.2,0-1.7,0.1c-1.8,0.5-2.6,2.5-2,4.8c0.2,0.8,0.8,2.2,0.5,3.4c-0.7,3.2-2.2,5.9-3,9.2
			c-0.2,1,0,1.8,0.1,2.4c0,0.5-0.1,1.3,0.1,1.9c0.3,0.8,0.9,1.7,1,2.8c-2.5-0.2-4.9-0.2-7.5-0.2c-0.6,0-2.4,0.6-2.8,0.5
			c-0.4-0.1-0.9-0.6-1.2-0.8c-0.3-0.2-0.5-0.1-0.8-0.3c-0.2-0.1-0.5-0.5-0.7-0.6c-0.3-0.2-0.6-0.2-1-0.4c-0.7-0.5-1.4-1.1-2.1-1.6
			c-0.8-0.5-1.6-1.1-2.5-1.5c-0.3-0.2-0.7-0.1-1-0.3c-0.2-0.2-0.3-0.3-0.5-0.5c-0.4-0.3-0.9-0.3-1.3-0.5c-0.4-0.2-0.8-0.8-1.2-1.1
			c-0.5-0.5-1.3-1-1.8-1.5c-0.4-0.6-0.7-1.1-1.2-1.7c-1-1.2-2.5-2.8-4.1-3.4c-0.6-0.2-2.2-0.1-2.6,0.2c-0.5,0.2-0.5,0.5-0.7,1
			c-0.1,0.2-0.3,0.5-0.4,0.7c-0.1,0.3,0.2,0.8,0.3,1c0.2,0.8,0.3,1.7,0.7,2.3c0.1,0.2,0.4,0.4,0.5,0.6c0.1,0.4,0.1,0.8,0.2,1.2
			c0,0.3,0,0.6,0.1,0.9c0,0.2,0,0.4-0.1,0.7c0.1,0.4,0.1,1.5,0.1,2c0,0.3-0.1,0.6,0,0.9c-0.2,1-0.1,2.2,0.1,3.1c0,0.2,0,0.4-0.1,0.6
			c0.2,0.7,0.3,1.8,0.4,2.5c0,0.1,0,0.2-0.1,0.4c0.2,0.8,0.7,1.4,1,2.1c0.2,0.5,0.3,0.9,0.5,1.3c0.6,0.9,1.3,1.7,1.9,2.6
			c0.2,0.3,0.2,0.5,0.4,0.8c0.1,0.1,1.2,1.1,1.3,1.2c0.4,0.3,0.9,0.5,1.3,0.7c-1.2,3.1-4.1,3.9-7.3,5c-3.2,1.1-7.1,1.9-10.6,2.5
			c-1.6,0.3-3.7,0.8-5.1,0.6c-0.8-0.1-2.3,0.2-3.1,0.4c-0.5,0.1-1.6-0.2-2.2-0.3c-1.1-0.2-2.3,0.1-3.1-0.1c-0.5-0.1-1.1-0.2-1.5-0.4
			c-0.8-0.2-1.5-0.1-2.3-0.3c-3.1-1-7.8-2.3-11-0.5c-0.8,0.5-2.7,3.2-2.6,4.3c0.1,0.6-0.4,0.7-0.2,1.2c0,0.1,0.2,0.3,0.2,0.4
			c0,0.3,0,0.7-0.1,1c0,0.1,0.2,0.5,0.1,0.7c0,0.2-0.2,0.6-0.1,1c0.1,0.4,0.4,1,0.3,1.5c-0.1,0.4,0.2,0.9,0.4,1.3
			c0.1,0.3,0,0.6,0.1,1c0,0.1,0.3,0.3,0.3,0.4c0,0.3,0,0.5,0.1,0.8c0.2,0.6,0.7,1.2,1,1.8c1.7,3.2,3.6,5.5,7,7
			c0.8,0.3,1.6,0.3,2.6,0.6c-0.1,0.2-0.3,0.4-0.5,0.5c0,0.9-0.2,2.2,0.1,3.1c0.2,0.6,1.2,2,1.7,2.3c0.3,0.1,0.5,0.1,0.8,0.2
			c1.8,1.2,3.7,2.4,5.9,3.1c0.9,0.2,1.9,0.1,2.9,0.1c0.7,0,1.4,0.1,2.1,0.1c1-0.2,2.1-0.2,2.8-0.1c0.3,0,0.9-0.1,1.2-0.1
			c2.1,0.2,3.3-0.2,5,0.1c0.4,0,0.8,0,1.2,0.1c3.2,1,6.2,2.1,8.8,3.7c0.4,0.2,0.8,0.3,1.2,0.4c0.9,0.4,2.2,1.2,3.1,1.8
			c0.8,0.5,1.8,0.6,2.6,1c1.6,0.8,3.2,1.8,4.9,2.6c0.6,0.2,1.2,0.3,1.8,0.5c0.9,0.4,2.2,0.9,3.2,1.2c0.3,0,0.6,0,1,0.1
			c1.2,0.5,2.7,0.9,4,1.3c0.5,0,1,0.1,1.5,0.1c0.4,0.1,0.8,0.3,1.1,0.4c0.6,0,1.2,0.1,1.8,0.1c2.6,0.8,5.7,1.3,8.9,1.8
			c0.8,0.1,2.4-0.2,3.4,0.1c0.5,0.1,1.1,0,1.6,0.1c0.8,0.2,3,0.2,3.6,0.1c0.7-0.1,1.7,0.5,2.4,0.4c1,0,2.4,0.1,3.4,0.2
			c0.2,0,0.5-0.1,0.8-0.1c1.5,0.4,3.5,0.3,4.9,0h1c1.8-0.4,3.6-0.5,5.2-1c0.6-0.2,2.9-0.3,3.2-0.5h0.7c0.2,0.1,0.4,0.6,0.5,0.9
			c0.4,0.5,1,1,1.3,1.6c0.2,0.3,0.1,0.6,0.3,0.9c0.6,1,1.4,1.9,1.8,2.9c0.2,0.4,0.1,0.8,0.3,1.2c0.6,1.9,0.9,3.6,0.9,6.2
			c0,1.2,0,2.4-0.2,3.2v0.7c-0.2,0.5-0.5,1.3-0.7,1.8c-0.2,0.6,0,1-0.2,1.4c-0.3,0.6-0.9,1.2-1.1,1.8v0.4c-0.2,0.4-0.7,0.9-0.9,1.3
			l-0.2,0.7c-0.2,0.3-0.6,0.6-0.7,1c-0.2,0.4-0.2,0.7-0.4,1c-0.3,0.4-0.8,0.8-1.2,1.1c-0.1,0.1-0.1,0.2-0.2,0.4
			c-0.6,0.6-1.2,1.3-1.9,1.8c-0.9,0.7-1.9,1.1-2.9,1.8c-0.5,0.4-1,0.9-1.5,1.3c-0.7,0.5-1.5,0.9-2.2,1.5c-0.4,0.5-0.9,1-1.3,1.5
			c-0.6,0.4-1.2,0.7-1.8,1.1c-0.1,0.1-0.2,0.3-0.3,0.4c-0.2,0.2-0.4,0.3-0.6,0.4c-0.2,0.3-0.4,0.7-0.7,0.9c-0.1,0.1-0.3,0.1-0.4,0.2
			c-0.2,0.2-0.3,0.5-0.6,0.7c-0.5,0.4-0.8,0.8-1.2,1.2c-0.2,0.2-0.4,0.3-0.6,0.5c0,0.2,0,0.4-0.1,0.6c-0.3,0.6-0.8,1.4-1,2.1
			c-0.1,0.4,0.1,1.3,0,1.7c-0.1,0.5-0.3,1.9-0.2,2.3c0.1,0.5,0.5,0.9,0.7,1.3c1.5,3.8,6.6,4.6,11,3.3h1.1c0.9-0.2,1.8,0,2.8-0.3
			c0.7-0.2,1.9-0.7,2.6-0.8c0.7-0.1,1,0.2,1.8,0c1-0.3,1.6-0.9,2.3-1.4c0.3-0.2,0.7-0.4,1-0.6c0.4-0.5,0.7-1.2,1.2-1.8
			c0.2-0.3,0.7-0.4,0.9-0.7c0.8-1,1.5-2.1,2.2-3.2c0.4-0.5,0.6-1.8,1.3-2c0,2.1,0.7,3,1.7,4c0.2,0.2,0.5,0.6,0.8,0.7
			c0.8,0.3,1.3-0.2,2.1,0c0.9,0.2,2,0.2,3,0c0.3-0.1,0.6,0.1,0.7,0.1c0.4-0.2,0.7,0.1,1.3,0c0.6-0.1,1.8-0.3,2.2-0.6
			c0.2-0.2,0.2-0.4,0.4-0.7c0.2-0.3,0.6-0.5,0.7-0.9c0.1-0.3,0-1.3,0.1-1.8c0.2-0.5,0.3-1.2,0.4-2c0,0,0,0,0.1-0.1
			c0.6,0.2,0.5,1.1,0.8,1.6c0.2,0.4,0.6,0.5,1,0.8c0.3,0,0.5-0.1,0.7-0.1c2.2-2.8,0.6-7.8,0.2-11.3c0.2-0.4,0.3-1.3,0.5-1.9
			c0.2-0.5,0.6-1.1,0.8-1.5c0.2-0.4,0.1-0.7,0.2-1.2c0.5-1.5,1-3.1,1.4-4.8c0.2-0.8,0-1.9,0.3-2.6c0.2-0.6,0.4-1.5,0.5-2
			c0.1-0.7,0.2-1.6-0.1-1.9c0.2-0.9,2.3-2.4,2.9-3.2c1.6-1.9,3.1-3.8,4.6-5.8c0.2-0.3,0.7-0.6,0.9-0.8c0.4-0.6,0.8-1.4,1.1-2.1
			c0.3-0.6,0.2-1.4,0.7-1.8c0.5-0.4,2.8-0.2,3.5-0.4c3.8-1,8.8,0.9,11.7,1.7c0.8,0.2,1.8,0.3,2.6,0.5c0.4,0,0.8,0,1.2,0.1
			c0.7,0.2,1.8,0.4,2.7,0.7c0.5,0.1,1,0,1.3,0.1c1.6,0.5,4.1,1,5.9,1c2-0.1,4.4-0.4,6.3-0.1c0.5,0,0.9-0.1,1.4-0.1
			c1,0.2,1.8,0.1,2.9,0.1c0.3,0,0.8-0.1,1-0.1c0.8,0.1,1.8,0.1,2.6-0.1c0.3-0.1,1.3,0.2,1.8,0.1c0.6,0,1.6-0.3,2.1-0.4h1
			c0.6-0.2,1.6-0.2,2.3-0.4c1.7-0.6,3.4-1.1,5-1.8c0.5-0.2,0.9-0.1,1.4-0.3c1.7-0.5,3.6-1.1,5.3-1.8h0.7c0.4-0.1,1.1-0.4,1.4-0.7
			h0.8c0.1,0.1,0.1,0.4,0.2,0.6c0.1,0.2,0.4,0.2,0.5,0.4c0.2,0.2,0.2,0.5,0.4,0.7c0.1,0.1,0.4,0.2,0.5,0.4c0.2,0.2,0.1,0.5,0.3,0.7
			c0.1,0,0.1,0,0.2,0.1c0.2,0.2,0.5,0.6,0.7,0.9c0,0.1,0,0.3,0.1,0.4c0.1,0.1,0.3,0.1,0.4,0.2c0.2,0.2,0.2,0.6,0.4,0.8
			c0.2,0.2,0.6,0.5,0.8,0.7c0.3,0.4,0.5,0.9,0.7,1.3c0,0.2,0,0.3,0.1,0.5c0.3,0.6,0.9,1.3,1.2,1.9c0.8,1.7,1.7,5.9,1.3,7.8
			c0,0.5,0,1,0.1,1.5c0,0.2,0,0.9-0.1,1.2c-0.1,0.1-0.3,0.4-0.4,0.5c-0.2,0.4-0.3,0.9-0.4,1.3c-0.2,0.5,0.2,0.7,0.1,1.1
			c-0.2,0.6-0.8,1-1.1,1.5c-0.7,1.2-1.4,2.3-2.2,3.4c-0.4,0.5-1,0.8-1.4,1.2c-0.2,0.2-0.2,0.5-0.4,0.7c-0.5,0.6-1.1,1.1-1.8,1.6
			c-0.3,0.3-0.5,0.8-0.9,1c-0.1,0-0.2,0-0.3,0.1c-0.2,0.2-0.2,0.4-0.4,0.6c-0.9,0.7-1.7,1.3-2.6,2c-0.1,0.2-0.2,0.3-0.4,0.5
			c-0.3,0.3-0.6,0.4-0.9,0.7c0,0.1,0,0.1-0.1,0.2c-0.1,0-0.2,0-0.4,0.1c-0.2,0.2-0.6,0.6-0.8,0.8c-0.6,0.7-1,1.4-1.5,2.2
			c-0.2,0.3-0.6,0.5-0.8,0.7c-0.4,0.6-0.7,1.3-1.1,1.9c-0.2,0.2-0.4,0.5-0.6,0.7c-0.2,0.4-0.2,0.8-0.4,1.1c-0.2,0.3-0.5,0.6-0.7,0.9
			l-0.4,1.3c-0.2,0.6-0.6,1.1-0.9,1.6c-0.2,0.4-0.3,0.9-0.6,1.2c0,1,0.4,0.5,0.6,1c0.2,0.5,0,1.1,0.1,1.6c0.2,0.4,0.9,1.5,1.2,1.9
			c2,2.5,8.7,3.5,11.9,1.8c1.1-0.6,1.7-1.6,2.3-2.6c0.2-0.2,0.5-0.4,0.7-0.7c0.3-0.7,0.5-2.5,1-3c0-0.1,0-0.1,0.1-0.1
			c0.4,0.9,0.9,2.9,2.5,1.8c0.3-0.2,0.7-1.8,0.9-2.3c0.1-0.4,0.4-0.9,0.5-1.2c0-0.3,0.1-0.5,0.1-0.8c0.2-0.3,0.5-0.8,0.7-1.1
			c0.3-0.7,0.4-1.5,0.8-2.1c0.7-1,1.6-1.8,2.5-2.5c0.2-0.2,0.3-0.6,0.6-0.7c0.5-0.4,1.1-0.8,1.6-1.2c0.2-0.2,0.3-0.4,0.4-0.6h0.2
			v-0.1c0.2-0.2,0.6-0.2,0.8-0.4v-0.3c0,0,0.1,0,0.1,0.1c0.3-0.3,0.6-0.4,0.9-0.7c0.9-0.7,2.1-2.4,3.2-2.8v-0.1h0.1
			c0,3,0,5.8,0.6,8.5c0.2,0.9,0.1,1.8,0.4,2.6c0.2,0.6,0.6,1.2,0.8,1.7c0.3,0.6,0.6,1.8,1.1,2.3c0.2,0.2,0.4,0.2,0.6,0.4
			c0.5,0.5,0.9,1.2,1.5,1.5c0.2,0,0.5,0.1,0.7,0.1c0.4,0.2,0.8,0.5,1.2,0.6c0.3,0,0.5,0,0.8,0.1c0.5,0.2,1.1,0.2,1.7,0.4h1
			c0.3,0.1,0.7,0.3,1.2,0.1c1.2-0.3,2.8-0.6,3.7-1.2c0,0,0.2,0.1,0.3,0.1c0.4-0.2,0.7-0.5,1.2-0.6c0.2-0.6,0.8-0.7,1.1-1.2
			c0.3-0.5,0.3-1.2,0.6-1.8l0.2-0.2c0.1-0.4-0.3-2.2-0.5-2.5c-0.1-0.2-0.3-0.1-0.4-0.5h-0.2c-0.6-1.2-1.4-3.3-0.9-4.7
			c0.1-0.3,0-0.6,0.3-0.8h0.4c0.3-0.1,0.6-0.3,1-0.4c0.4,0,0.8,0,1.2-0.1c0.6-0.2,1.2-0.4,1.8-0.7c0.1-0.2,0.2-0.6,0.1-0.8
			c-0.1-1.1-1.3-1.7-1.8-2.5c-0.2-0.4-0.1-0.6-0.3-1c-0.1-0.3-0.5-0.9-0.6-1.2c-0.1-0.3,0-0.9-0.1-1h-0.1c-0.2-0.4-0.1-1-0.2-1.5v-1
			c-0.4-1.2-0.1-2.5,0.3-3.8v-0.6c0.1-0.2,0.2-0.5,0.3-0.7c0-0.2-0.1-0.2-0.1-0.3c0.1-0.3,0.4-0.8,0.5-1.2c0-0.4,0.1-0.8,0.1-1.2
			c0.1-0.3,0.5-0.7,0.6-1v-0.7c0-0.1,0.3-0.3,0.4-0.4c0.2-0.4,0-0.9,0.2-1.2v-0.1h0.2c0-0.3-0.1-0.5-0.1-0.8
			c0.2-0.6,0.7-1.8,0.7-2.4c0-0.3,0.3-0.8,0.1-1.2c-0.1-0.3-0.5-0.7-0.7-1.2h-0.2c-0.1-0.5-0.6-0.7-0.9-1c-0.2-0.2,0-0.5-0.1-0.7
			c0-0.1-0.2-0.1-0.3-0.1c-0.6-0.7-0.6-1.3-0.7-2.6c0-0.3-0.1-0.6-0.1-0.7c0.1-1.1,1-1.5,1.7-2.1c0.5-0.4,0.9-1.1,1.4-1.5
			c0.6-0.4,1.2-0.8,1.8-1.2c0.3-0.2,0.4-0.7,0.7-1c0.7-0.7,1.4-1.2,2.2-1.7c0.7-0.5,1.2-1.9,2-2.2v-0.4h0.2v-0.2
			c0.5-0.1,0.8-0.8,1.2-1.1c0.7-0.5,1.2-1.1,1.8-1.8c0.2-0.2,0.1-0.5,0.3-0.7c0.2-0.3,0.8-0.6,1-1c0.1-0.2,0.1-0.4,0.2-0.5
			c0.2-0.2,0.4-0.3,0.6-0.4c0.2-0.3,0.3-0.7,0.6-1c0.1-0.1,0.3-0.1,0.4-0.2c0.1-0.2,0.1-0.4,0.2-0.6c0.2-0.4,0.8-0.7,1-1
			c0.4-0.6,0.6-1.2,1-1.8c0-0.1,0.3-0.1,0.3-0.1c0-0.1,0-0.3,0.1-0.4c0.1-0.1,0.3-0.2,0.4-0.4c0.2-0.3,0.1-0.6,0.3-0.8
			c0.1-0.1,0.2-0.1,0.4-0.2c0.2-0.3,0.1-0.6,0.2-0.9c0.1-0.1,0.3-0.2,0.4-0.3v-0.3c0.3-0.4,0.6-0.9,0.8-1.3c0-0.2,0.1-0.4,0.1-0.7
			c0.2-0.4,0.6-0.8,0.7-1.2c0-0.2,0-0.5,0.1-0.7c0.1-0.3,0.4-0.8,0.4-1.2c0-0.1,0-0.3-0.1-0.4c0.1-0.4,0.1-1,0.2-1.4v-0.9h0.1
			c0.1-0.3-0.2-2.1-0.1-2.3c0.2-0.4-0.1-1.9,0.1-2.3c0.2-0.3-0.1-3.1-0.2-3.7c-0.1-0.5-0.8-2.6-0.6-3c0.3-0.6,1.3-0.7,2.1-1
			c0.6-0.2,2-1.4,2.2-1.9c0.2,0,0.2,0,0.4-0.1c0.1,0.2,0.3,0.4,0.4,0.6c0,0.2,0,0.4,0.1,0.7c0.2,0.6,0.4,1.2,0.6,1.8v1
			c0.4,1.8-0.1,3.7,0.7,5.2c0.2,0.1,0.3,0.1,0.4,0.2c1-0.1,1.2-0.9,1.5-1.5V278h0.2v-0.2h-0.2c0.1-0.1,0.3-0.2,0.5-0.3
			c0-0.4,0-0.5,0-0.9h0.2c0-0.5,0.3-1.4,0.1-1.8c0.1-0.1,0.1,0,0.2-0.1c0-0.3,0-0.7,0-0.9C545.7,273.7,545.9,273.6,545.9,273.3z
			 M304.3,229.1c0.9,0.2,1.4,0.9,1.9,1.4c0.7,0.6,1.4,1.3,2.1,2.1c0.2,0.2,0.1,0.5,0.3,0.7c0.2,0.2,0.5,0.4,0.7,0.6
			c0.3,0.3,0.4,0.7,0.7,0.9c0.6,0.5,1.2,1.2,1.8,1.6c0.4,0.3,0.9,0.3,1.4,0.6c0.5,0.3,0.9,0.7,1.5,1c0.3,0.1,0.6,0.1,1,0.2
			c0.5,0.3,1,0.8,1.5,1.1c0.5,0.3,1,0.5,1.5,0.9c0.3,0.2,0.6,0.6,0.9,0.8c0.9,0.5,1.8,1.1,2.7,1.6c-0.2,0.6-1,0.7-1.3,1.1
			c-0.9,0.9-1.8,1.7-2.6,2.6c-0.1,0.1-0.4,0.1-0.5,0.2c-0.5,0.3-1.9,1.2-2.1,1.8c-0.9,0-0.8-0.9-1.2-1.5c-0.5-0.8-1-1.7-1.5-2.4
			c-0.1-0.1-0.2-0.1-0.3-0.1c-0.3-0.3-0.4-0.7-0.7-1c-0.8-1-2-1.7-2.9-2.7c-0.4-0.5-0.7-1.1-1-1.6c-0.3-0.5-0.9-0.9-1.2-1.5
			c-0.5-1-1.1-2.5-1.5-3.5c0-0.2,0-0.3-0.1-0.5C305.2,232.7,304.2,229.5,304.3,229.1z M306.7,250.4c-1.2-1.5-2.3-3.3-2.9-5.5
			c0-0.6,0-1.2-0.1-1.8c-0.3-1.5,0-3-0.3-4.1c0-0.7,0.1-1.4,0.1-2.1h-0.1c-0.1-0.2,0.1-0.4,0.1-0.4c0.1-0.3-0.1-2-0.1-2
			c0-0.1-0.2-0.4-0.2-0.5c0-0.2,0.1-0.5,0-0.8c-0.1-0.4-0.6-0.7-0.7-1c-0.4-0.8-0.5-1.8-0.6-2.5c0,0,0.1-0.1,0.1-0.1
			c0.2,0,0.4-0.1,0.5-0.1c0.9,0.4,1,1.9,1.2,3c0.2,0.7,0.6,1.3,0.8,1.8c0.3,0.8,0.4,1.6,0.7,2.3c0.9,1.9,2.2,3.4,3.4,5.1
			c0.2,0.3,0.7,0.4,1,0.7c0.7,0.7,1.3,1.5,1.9,2.3c0.1,0.1,0.2,0.1,0.4,0.2c0.3,0.3,0.4,0.6,0.7,1c0.1,0.1,0.3,0.2,0.4,0.4
			c0.6,1,0.6,2.3,1.3,3.2c-0.8,0.9-1.8,1.7-2.8,2.4c-0.7,0.5-1.1,1.3-1.7,1.8C308.2,253.3,307.6,251.5,306.7,250.4z M325.1,304.8
			C325,304.8,325,304.8,325.1,304.8c-0.2,0-0.2,0-0.3-0.1L325.1,304.8L325.1,304.8z M339.4,305.7
			C339.4,305.7,339.4,305.7,339.4,305.7L339.4,305.7C339.5,305.6,339.4,305.6,339.4,305.7L339.4,305.7L339.4,305.7z M355.4,307.1
			c0-0.2,0-0.5,0.1-0.7c0,0,0,0,0.1-0.1c0,0.2,0.1,0.5,0.1,0.7L355.4,307.1L355.4,307.1z M357.7,307.1L357.7,307.1l-0.1,0.1
			c0-0.1,0-0.2,0.1-0.4c0,0,0.1,0.1,0.1,0.1C357.8,307,357.8,307,357.7,307.1z M359.1,305.2c0,0.1,0,0.1-0.1,0.1
			c0-0.2-0.1-0.2-0.1-0.4c0.1-0.1,0.3-0.2,0.4-0.4v-0.3C359.4,304.5,359.2,305,359.1,305.2z M360.4,306.4L360.4,306.4l-0.1-0.1h0.1
			V306.4z M360.7,306.9c-0.2,0-0.1,0-0.2-0.1c-0.1-0.1,0-0.1,0-0.2c0.1,0,0.1,0.1,0.2,0.1V306.9z M360.7,304.7v0.1
			c-0.3-0.1-0.2-0.1-0.4-0.2v-0.1h0.4C360.7,304.7,360.7,304.6,360.7,304.7z M363.3,305.7c-0.1,0-0.1,0-0.1-0.1
			c-0.4,0-0.8,0-1.1-0.1v-0.3c0.4,0.2,0.8,0.4,1.1,0c0.2,0.1,0.1,0,0.1,0.1c0.1,0.1,0,0,0.1,0.1
			C363.3,305.6,363.4,305.5,363.3,305.7z M363.7,306.3h0.4C363.9,306.4,363.8,306.4,363.7,306.3z M366,305.9L366,305.9L366,305.9
			c0,0,0-0.2,0-0.3C366.1,305.7,366.1,305.8,366,305.9z M366.3,305.2c-0.1,0.1-0.1,0-0.2,0.1v0.2c-0.3-0.1-0.9-0.6-1-0.9
			c-0.1-0.2,0.2-0.4,0.1-0.7c0-0.1-0.1-0.2-0.1-0.4c0.3,0.1,0.3,0.1,0.6,0.1v0.9C365.9,304.7,365.9,304.9,366.3,305.2
			C366.4,305.1,366.3,305.1,366.3,305.2z M353.6,357.9c-0.1,0.1,0,0-0.1,0.1c-0.4-1,0.1-1.5,0.3-2.3c-0.3-0.2-0.4-0.3-0.8-0.2
			c0.2-0.9-0.1-2.4,0.3-3.4c0.3-0.7,1-1.8,1.5-2.4c0.4-0.5,1.1-0.9,1.5-1.5c0.3,0.3,0.5,0.8,0.7,1.1c0.3,0.3,1.4,1.2,1.8,1.5
			c-0.1,0.5-0.6,0.3-1,0.6c-0.3,0.3-0.5,0.6-0.8,0.9c-0.2,0.1-0.3,0.2-0.5,0.3c-1,1.1-2,2.6-2.5,4.1
			C353.7,357,353.8,357.5,353.6,357.9z M376.8,352.2c-0.1,0.4,0.1,0.4-0.1,0.7v0.1c-0.3-0.1-1-0.7-1-0.7c-1.2,0-0.6,0.8-0.4,1.4
			c0.2,0,0.2,0.1,0.3,0c0.3,0,0.4,0,0.4,0.3c0.1,0.2-0.9,1.4-1,1.7c-0.2-0.1-0.6-1.3-0.8-1.6c-0.4,0-0.5,0.1-0.7,0.2
			c0,1.1,0.4,1.2,1,1.7c0.3,0,0.3,0,0.4-0.2h0.1c0,1-2.4,3-3.3,2.9c0-0.8,0-1.3-0.3-1.8c-0.3,0-0.4,0.1-0.6,0.2
			c-0.2,0.3,0,0.4-0.4,0.5c0,0.6,0.1,0.8,0.4,1.2v0.1c-0.6,0.2-1.3,0.4-2,0.4c0-0.2,0-0.4-0.1-0.7l0.2-0.2c0-0.2-0.1-0.3-0.1-0.7
			c-0.1-0.1-0.2-0.2-0.3-0.4c-0.2,0-0.2,0-0.3,0.1c-0.3,0.1-0.4,0.5-0.6,0.7c0,0.5,0,0.9,0.3,1.2v0.2c-0.6,0.2-0.9,0.3-1.8,0.3
			c0-0.5,0.3-1.7,0.1-2.1c0-0.3-0.1-0.3-0.2-0.4c-0.3,0-0.3,0.1-0.5,0.1c-0.1,0.5-0.6,1.7-0.2,2.2c0,0.1,0,0.1-0.1,0.2
			c-0.6,0.3-1.2,0.2-1.8,0.3c0-0.4-0.1-1.3,0.1-1.6c0-0.5-0.1-0.6-0.2-0.9c-0.8,0.1-1.3,1.7-0.8,2.3c0,0.1,0,0.1-0.1,0.2
			c-0.3,0.1-0.9,0.1-1.1,0.3h-0.7c-0.1-0.8,0.2-1.6,0.3-2.2c-0.1-0.1-0.1-0.1-0.1-0.2c-0.1,0-0.1,0-0.1-0.1c-0.3,0-0.5,0-0.7,0.1
			c-0.2,0.4-0.5,1.6-0.4,1.8c0,0.2,0,0.4-0.1,0.6c-0.5,0-1.1,0.1-1.4-0.1c-0.3-0.4-0.2-1.9,0.1-2.2c0-0.4-0.1-0.4-0.3-0.6
			c-0.1-0.1-0.2,0-0.3,0.1c-0.7,0.4-0.8,1.7-0.8,2.6c-0.4,0-0.3-0.1-0.8-0.1c-0.1-0.6,0-1.7-0.3-2.1c-0.1-0.2-0.2-0.2-0.4-0.2
			c-0.1,0.1-0.2,0.2-0.4,0.3c0,0.5-0.2,0.6-0.2,1.1h-0.3c-0.1-0.2,0-0.2-0.2-0.3c0-1.9,1.6-5,2.6-5.8c0.4-0.3,0.7-0.4,1.1-0.7
			c0.5-0.4,0.7-0.9,1.5-1.1c0.7-0.2,2.9,0.9,3.6,1c0.6,0.1,1.4,0,1.8-0.1c1,0,1.9-0.1,2.9-0.1c1-0.2,2.1-0.6,3.1-0.9
			c0.8-0.2,2.5-0.2,3.1-0.6c0.5,0.1,0.3,0.3,0.5,0.5c0.1,0,0.2,0,0.3,0.1c0,0.1,0,0.1,0.1,0.2c0.2,0.1,0.3,0.2,0.5,0.3v0.1
			c0.1,0.1,0.3,0.1,0.4,0.1c0.2,0,0.3,0,0.4-0.1c0.1-0.3,0.1-0.6,0-0.7c-0.1-0.2-0.3-0.4-0.5-0.5c0-0.2,0-0.3,0.1-0.4
			c0.3-0.1,1-0.2,1.2-0.4c0.3,0.1,0.4,0.4,0.7,0.6C377.6,351.4,377,351.7,376.8,352.2z M378.5,348.3c0,0-0.1,0.1-0.1,0.1
			c-0.2-0.1-0.1,0-0.1-0.2L378.5,348.3L378.5,348.3z M383.5,348.8c-0.1,0.4-0.1,0.8-0.2,1.2c-0.1,0.4-0.4,0.9-0.5,1.2
			c-0.2,0.7-0.1,1.5-0.4,1.9c0,0,0,0-0.1,0.1v-0.1c-0.3-0.2-0.3-0.5-0.4-0.9c-0.9-1.9,0.1-4.1,1-5.4c0.5,0.1,0.8,0.4,1.2,0.5
			C384.1,347.9,383.7,348.3,383.5,348.8z M383.2,341.2c0.2,0.2,0.4,0.4,0.7,0.6c-0.1,0.4-0.6,0.6-0.8,0.9c-0.2-0.1-0.2-0.1-0.3-0.1
			c0.1-0.3,0.2-0.3,0.4-0.4C383.3,341.7,383.3,341.5,383.2,341.2z M395.3,349c-0.3-0.1-0.7-1-0.7-1.3c-0.2,0-0.3-0.1-0.4-0.1
			c-1,0-0.8,0.7-1.1,1.5c-0.3,0.8-0.4,1.7-0.6,2.5c0,0.3,0,0.7-0.1,1c-0.2,0.5-0.6,0.9-0.8,1.3h-0.3c-0.2-0.8,0-1.8-0.5-2.3
			c-0.4,0.1-0.4,0.4-0.7,0.6c0,0.3,0,1.6,0,1.6c0.1,0.2,0.2,0.1,0.3,0.4c-0.7,0.1-1.3,0-2.1,0c0-0.7,0.1-1.5-0.2-2
			c-0.1-0.3-0.2-0.4-0.5-0.4c-0.2,0.2-0.4,0.3-0.7,0.4c0.1,0.2,0.2,0.1,0.2,0.2c0.2,0.5,0,1.4,0.2,1.7c0,0.1,0,0.1-0.1,0.2
			c-0.2,0-0.7-0.1-0.9,0.1c-0.4,0-0.5-0.1-0.8-0.1c0-0.7,0.2-1.3,0.4-1.8c-0.3-0.3-0.8-1.6-1.5-1c-0.2,0.2-0.1,0.5,0.1,0.7
			c-0.1,0.2-0.1,0.3-0.3,0.4c0.1,0.5,0.2,0.8,0.1,1.5c0,0,0,0-0.1,0.1h-0.8c0-1.9,0.3-3.1,0.8-4.5c0.3-0.7,0.3-1.5,0.9-1.9
			c0.5-0.2,1.3,0.1,2-0.1c0.7-0.2,1.5-0.4,2.1-0.6c0.7-0.2,1.3,0,1.9-0.2c0.5-0.2,1.1-0.5,1.6-0.7c0.6-0.3,1.3-0.3,1.7-0.8h0.1
			c0.1,0.2,0.3,0.7,0.3,0.9c0,0.5-0.1,2.2,0.2,2.6L395.3,349L395.3,349z M395.6,337.3v0.1c-0.4,0-0.4-0.1-0.7-0.2v-0.1
			C395.1,337.2,395.4,337.2,395.6,337.3C395.6,337.3,395.6,337.3,395.6,337.3z M395.9,336.2c-0.2,0-0.4-0.4-0.7-0.5
			c-0.1-0.1-0.2,0-0.4,0.1c-0.2,0.1-0.2,0.2-0.4,0.3c0,0.4,0.1,0.6,0.3,0.8v0.1c-0.2-0.1-0.1,0-0.2-0.1c-0.5,0.1-0.8,0.4-1.2,0.6
			c0,0.1,0,0.1-0.1,0.1c0.1,0.4,0.2,0.5,0.3,1c0.3,0.1,0.6,0.1,0.8,0.3c0.4,0,0.5,0,0.7-0.3h0.1c-0.1,0.5-0.1,1.6-0.4,2.1
			c0,0,0,0-0.1,0.1v-0.1c-0.3-0.2-0.3-0.6-0.5-1c-0.1-0.2-0.4-0.3-0.6-0.4c-0.4,0-0.5,0-0.7,0.1c-0.1,0.2-0.1,0.6,0,0.8
			c0,0.4,1,1.7,1.2,1.9c-0.4,0.2-0.9-0.2-1.1,0.4c-0.3-0.1-0.4-0.1-0.6-0.3c-0.5,0-0.5,0.2-0.7,0.4c0,1.3,0.6,1.5,1.6,1.2
			c0-0.1,0-0.3,0.1-0.4c0.6,0,0.7,0.2,1.2,0c0,0,0,0,0.1,0.1c0,1-1.2,1.2-2,1.5c-0.4,0.1-0.8,0.5-1.2,0.6c-0.7,0.2-1.3,0.3-1.9,0.5
			c-0.5,0.2-1,0-1.3,0.1c-0.7,0.2-1.3,0.4-2.2,0.4c-0.1-0.3-0.2-0.4-0.4-0.6c-0.6,0-0.9,0.5-1.4,0.1c-0.2-0.1-0.4-0.3-0.4-0.5
			c0.4-0.4,0.8-0.9,1.2-1.3c1.1-1.1,2.4-2.3,3.7-3.2c0.4-0.3,0.9-0.4,1.3-0.7c0.1-0.2,0.2-0.3,0.4-0.5c0.7-0.5,1.9-1.4,2.3-2.1
			c0.7-1.2,0.7-3.4,1.5-4.5c0,0,0.4,0.2,0.6,0.3c0,0.1,0.1,0.1,0.1,0.2c0.1,0,0.3,0,0.4,0.1c0.2,0.1,0.1,0.4,0.3,0.6
			c0.2,0.1,0.5,0.3,0.7,0.4C396.2,335.4,396.2,336,395.9,336.2z M394.5,342.5v0.1h-0.1L394.5,342.5L394.5,342.5z M384.8,340.9v-0.1
			c0.2,0,0.3,0.1,0.5,0.1v0.1c-0.1,0-0.1,0-0.1,0.1C384.9,341,384.9,340.9,384.8,340.9z M388.2,337.8c0-0.3,0.1-0.4,0.2-0.6
			c0.1,0.1,0.3,0.1,0.4,0.2c0,0,0,0,0.1,0.1h-0.1c-0.1,0.2-0.1,0.2-0.2,0.4c-0.2,0-0.1,0-0.2-0.1H388.2z M388.9,335.4
			c0,0,0.1,0,0.1,0.1v0.1H389C388.9,335.5,388.9,335.4,388.9,335.4z M396.9,332.6L396.9,332.6l-0.1-0.1h0.1V332.6z M397.2,331.3
			L397.2,331.3c-0.2,0-0.4-0.4-0.4-0.6c-0.6-0.2-1.2-0.1-1.4,0.5c-0.1,0.2,0,0.5,0.2,0.7c-0.1,0.3-0.2,0.3-0.2,0.7
			c-0.4-0.1-0.4-0.4-0.8-0.4c0.1-1,1-1.8,1.5-2.3c0.1-0.1,0,0,0.1-0.1c0.2,0.7,0.5,0.8,1.1,1C397.4,331.1,397.3,331.2,397.2,331.3z
			 M397.9,328.6c-0.2-0.1-0.3-0.3-0.5-0.4c0.1-0.3,0.2-0.4,0.3-0.7c0.2,0.1,0.2,0.3,0.4,0.4C398,328.3,397.9,328.4,397.9,328.6z
			 M406.3,313.4h-0.1v-0.1H406c0.1-0.2,0.2-0.2,0.3-0.3h0.1C406.4,313.2,406.3,313.2,406.3,313.4z M413.9,307.4h0.4
			C414.2,307.5,414.1,307.5,413.9,307.4z M428.5,309.9c-0.2,0-0.1,0-0.2-0.1c0-0.1,0-0.1,0-0.4l0.1,0.1h0.1L428.5,309.9L428.5,309.9
			z M445.2,311.6h-0.6c0-0.3,0-0.3-0.1-0.4C444.8,311.3,444.9,311.4,445.2,311.6L445.2,311.6z M467,308.4L467,308.4l-0.1-0.1h0.1
			V308.4z M464.8,357.5c-0.2,0.2-0.5,0.4-0.7,0.7c-0.2,0.3,0,0.5-0.2,0.7v0.1c-0.1-0.1,0.1-0.2,0-0.4c-0.1-0.2-0.4-0.3-0.4-0.6
			c0,0,0.4-0.7,0.5-1c0.3-0.7,0.5-1.5,0.9-2.2c0.2-0.5,0.8-0.9,0.8-1.5c0.7,0.3,1,1,1.8,1.3c0,0,0,0-0.1,0.1c-0.1,0.5-0.6,0.7-0.8,1
			c-0.4,0.7-0.3,1.4-1,2C465.6,357.6,465.1,357.5,464.8,357.5z M479,356.2c-0.5,1.6-1,3.1-1.7,4.6c0,0,0,0-0.1,0.1h-0.1
			c0-0.2,0-0.3,0.1-0.4c0-0.7,0-1.1-0.3-1.5c-0.5,0-0.6,0.1-0.8,0.2c0,0.8-0.6,2.4,0.2,2.6c-0.1,0.7-1,1.6-1.8,1.6
			c0.1-0.5,0.8-1.6,0.4-2.3c-0.1-0.2-0.2-0.2-0.3-0.4c-0.3,0-0.4,0-0.5,0.1c-0.2,0.2-0.6,1.7-0.7,2.1c0,0.2,0,0.4-0.1,0.6
			c0.1,0,0.1,0.1,0.2,0.1c0,0.2-0.9,0.7-1.2,0.4c-0.3-0.4,0.3-2.1,0.3-2.9c-0.1-0.1-0.2-0.2-0.2-0.3h-0.6c-0.3,0.2-0.2,0.8-0.4,1.2
			c-0.2,0.6-0.5,1.2-0.5,2.1h-0.4c0.1-0.8,0.8-3,0.4-3.4c-0.2-0.2-0.3-0.1-0.7-0.1c-0.2,0.4-1.3,2.6-1,3.1v0.1
			c-0.2,0-0.4-0.1-0.6-0.2c-0.4-0.2-0.4-0.7-0.8-1c0-1,0.1-2.2,0.6-2.9c0-0.3-0.1-0.2-0.1-0.4c-0.2,0-0.4-0.1-0.5-0.1
			c-0.2,0-0.3,0.1-0.4,0.1c-0.3,0.8-0.7,1.6-0.9,2.3c0,0.5,0.1,0.9,0.1,1.4c-0.3-0.1-0.3-0.2-0.6-0.2c0-0.3,0.2-0.5,0.2-0.9
			c0.1-0.3-0.2-0.4-0.2-0.6c0-0.1,0.1-0.3,0.1-0.3c0-0.3,0-0.6-0.1-0.9c0.3-1.4,1.1-2.6,1.7-3.7c0.3-0.6,0.6-1.2,1.2-1.5
			c0.5-0.3,1.5,0.1,2.1,0c0.3-0.1,0.8,0.1,1.2,0.1c0.7-0.1,1.7-0.1,2.3-0.1c0.2,0,0.3,0,0.5,0.1c0.6-0.1,1.3-0.2,1.9-0.4
			c0.5-0.1,1.9-0.1,2.3-0.4c0.3,0.1,0.2,0,0.3,0.2C479.5,354.8,479.1,355.8,479,356.2z M481.4,358.4h-0.2c0-0.2,0-0.3-0.1-0.4
			c0.1-0.2,0.2-0.2,0.3-0.4h0.2C481.6,358,481.5,358.1,481.4,358.4z M482.2,356c-0.1,0.1-0.7,0-1,0.2h-0.1v-1.6
			c0.1-0.3,0.2-0.4,0.2-0.7c0.7-0.3,1.7-0.6,2.2-1.1h0.1C483.5,353.4,482.5,355.7,482.2,356z M502,358.1c-0.6-0.2-0.2-0.8-0.5-1
			c-0.4-0.3-1,0.2-1.2,0.3c-0.2-0.1-0.2-0.2-0.4-0.2c-0.2-0.8-0.9-1.5-1.2-2.3c-0.1-0.3-0.1-0.6-0.2-0.9c-0.2-0.3-0.5-1-0.4-1.4
			c0.1-0.2,1.6-0.1,1.9-0.4c0.2,0,0.1,0,0.2,0.1c0.4,0.5,0.1,1.5,0.3,2.3c0.2,0.9,0.8,1.4,1.2,2.1c0.2,0.4,0.1,0.8,0.4,1.1
			L502,358.1L502,358.1z M511.8,357.8c-0.1,0.2-0.2,0.3-0.4,0.4c-1.2-0.3-2-0.7-2.8-1.5c-0.2,0-0.2,0-0.3,0.1
			c-0.3,0.1-0.3,0.2-0.4,0.4c0.2,1.3,1,1.2,1.2,2h0.1c-0.1,0.2-0.1,0.1-0.2,0.2c0,0.1-0.6-0.4-0.8-0.5c-0.3-0.1-0.5,0-0.7-0.1
			c-0.7-0.3-1.2-1.1-1.7-1.6c-0.4,0-0.4,0.1-0.7,0.3c0,0.8,0,1.1,0.4,1.5v0.1c-0.4-0.1-0.8-0.3-1.1-0.5c-0.1-0.1-0.1-0.2-0.1-0.3
			c-0.3-0.2-0.6-0.3-0.8-0.6c-0.3-0.5-0.4-1-0.7-1.5c-0.2-0.4-0.8-1-1-1.5c-0.1-0.4-0.3-2.2-0.1-2.4c0.3-0.5,1-0.3,1.5-0.6
			c0.2-0.1,0.4-0.3,0.6-0.4c0.2-0.1,0.5-0.1,0.7-0.2c0.2-0.1,0.5-0.5,0.8-0.6c0.2,0,0.3,0,0.5-0.1c0.3-0.2,0.6-0.7,0.9-0.9
			c0.5-0.3,1.2-0.3,1.7-0.6c0.6-0.4,0.2-1.2,0.9-1.4v-0.2c0.4-0.1,1.6-1.2,1.8-1.5h0.2v-0.3c0.4-0.1,0.4-0.1,0.8-0.1
			c-0.1,0.5-0.7,0.9-1,1.4c-0.3,0.6-0.1,1.5-0.4,2.1v0.1c-0.3,0-0.5-0.1-0.7,0c-0.3,0.1-0.3,0.2-0.4,0.4c0,0.2,0,0.1,0.1,0.2
			c0.1,0.6,0.6,0.6,1,0.8c0,0.4-0.4,0.6-0.7,0.7c0,0.2-0.1,0.3-0.1,0.4c0,0.3,0.1,0.4,0.2,0.6c0.2,0.1,0.5,0.2,0.9,0.1
			c0,0.1,0,0.1,0.1,0.1v0.2c-0.5,0.1-0.7,0.3-1,0.5c0,1.1,0.4,0.7,1.2,1c0.2,0.1,0.2,0.2,0.5,0.2c0,0,0,0,0.1,0.1v0.3
			c-0.5-0.1-1-0.1-1.5-0.2c-0.2,0.1-0.3,0.3-0.5,0.4c0,0.4,0,0.6,0.3,0.7c-0.1,0.1-0.5,0.2-0.7,0.2c0,0.2-0.1,0.2-0.1,0.3
			C509.2,357,510.8,357.6,511.8,357.8C511.8,357.7,511.8,357.8,511.8,357.8z M512.5,355.9L512.5,355.9c0,0.2,0,0.6-0.1,0.7
			c0,0-1.6-0.6-1.8-0.8C511,355.9,512.2,356.1,512.5,355.9z M513.1,327.3c0,0,0,0.1-0.1,0.1c-0.2-0.1-0.1,0-0.1-0.2h-0.2V327
			c-0.5-0.3-0.8-0.5-1.7-0.5c-0.2,0.2-0.4,0.2-0.4,0.7c-0.2-0.1-0.5-0.2-0.7-0.3c-0.6,0-0.6,0.1-1,0.3c0,1.2,1.4,1.5,1.9,0.7
			c0.8,0.1,0.8,0.9,1.8,1c0,0.3-0.1,0.5-0.3,0.7c-0.1,0.1-0.8,0.2-1.1,0.2c-0.1,0.4-0.2,0.6,0.1,0.9c-0.1,0.1-0.4,0.3-0.5,0.4
			c0,0.2,0,0.3,0.1,0.5c0.2,0.1,0.6,0.3,0.7,0.5c0,0.1-0.3,2.3-0.5,2.6v0.1c-0.5-0.2-1-0.2-1.5,0c-0.2-0.3-0.4-0.4-0.7-0.6
			c-0.3,0-0.6,0-0.7,0.1c-0.2,0.1-0.2,0.2-0.4,0.3c0,0.2,0,0.1,0.1,0.2c0,0.7,0.9,1,1.5,0.7c0,0,0,0.1,0.1,0.1h-0.1
			c0,0.7,0.1,1,0.6,1.1c0.3,0.2,0.6,0.1,0.9,0c0.2,0.5,0,1.3,0.3,1.8c0,0.3,0,0.6-0.1,0.8c-0.3,0.1-0.6,0.2-0.8,0.3
			c-0.7,0.2-0.9-0.3-1.4,0.2c-0.1,0.1-0.1,0.3-0.1,0.6c0.3,0.3,0.3,0.5,0.7,0.7c0.6,0.4,1.2-0.4,1.8,0.1h0.1v0.2h0.2
			c0,0.2-0.1,0.1,0,0.3c-0.2,0.2-0.5,0.1-0.7,0.3c-0.1,0.1,0,0.2-0.1,0.2c0,0.5,0,0.7,0.3,1v0.1c-0.2,0-0.4,0-0.6,0.1
			c-0.3-0.1-0.8-0.4-1-0.6c-0.6,0-0.8,0.2-1.2,0.4c0,0.8,0.2,0.7,0.4,1.2c0.4,0,0.8,0.2,1-0.1c0.1,0.1,0.2,0.1,0.3,0.2
			c-0.1,0.8-1.5,1.5-2,2c-0.5,0.4-0.8,1-1.3,1.5c-0.2,0.2-0.5,0.2-0.7,0.4c-1.2,0.9-3.2,2.4-4.8,2.5c-1.1,0.1-2.8,1-3.5,0.1
			c-0.5-0.8-0.1-2.3-0.4-3.4c-0.2-0.9-0.3-2.6,0.1-3.6c0.1-0.3-0.2-1,0.1-1.4c0.4-0.9,2.2-1.5,2.9-2.1c1.1-0.8,1.9-1.8,2.9-2.7
			c0.3-0.2,1-0.4,1.2-0.7c0.2-0.2,0.2-0.4,0.4-0.6c0.1-0.1,0.1,0,0.2-0.1c0.1-0.8,1.4-1.4,1.5-2.5h0.2c0.1-0.7,0.7-1.1,0.9-1.8
			c0-0.6,0.1-1.2,0.1-1.8c0.2-0.9,0.5-1.9,0.7-2.8c0.1-0.3-0.1-0.4,0-0.7c0.1-0.2,0.2-0.5,0.3-0.7c0-0.1-0.1-0.4-0.1-0.4
			c0.2-0.4,0.4-1,0.5-1.4c0-0.1-0.1-0.2-0.1-0.3h0.1V323c0.1-0.4,0.4-0.9,0.5-1.2c0.3,0.1,0.4,0.4,0.6,0.5c0.4,0,0.7,0,1.1,0.1
			c0.5,0.2,0.6,0.8,1.4,0.6c0,0.2-0.1,0.5,0,0.7c-0.1,0.2-0.5,0-0.8,0.1c-0.1,0.1-0.3,0.3-0.4,0.4c0,0-1-0.4-1.3-0.1
			c-0.5,0-0.4,0.2-0.6,0.5c0.1,0.8,0.6,0.9,1.3,1.2c0.2,0.2,0.4,0.4,0.6,0.6c0.5,0.2,1,0.2,1.5,0.2c0,0,0,0,0.1,0.1
			C513.3,326.9,513.2,327.1,513.1,327.3z M511.1,320.6h0.2C511.2,320.7,511.3,320.7,511.1,320.6z M513.8,310.6
			c-0.3-0.1-0.4-0.3-0.9-0.3c0-0.2,0-0.2,0-0.5h0.3C513.4,310,513.6,310.3,513.8,310.6L513.8,310.6z M524.8,298.3
			c0.1,0,0.1,0,0.1,0.1C524.8,298.4,524.9,298.4,524.8,298.3z M527,297.5C527,297.5,527,297.5,527,297.5c-0.1,0-0.1,0-0.1-0.2h0.2
			C527.1,297.4,527.1,297.4,527,297.5z M531.5,285.7c-0.6-0.1-1.4-1.2-2.1-0.5h-0.1c0-0.3,0.1-0.2,0.1-0.5c0.4,0.1,1,0.5,1.4,0.2
			C531.2,285,531.2,285.4,531.5,285.7L531.5,285.7L531.5,285.7z M533.6,278.3c-0.3,0-0.7,0.2-0.8,0.1c-0.2,0-0.2,0-0.4-0.1
			c0-0.1,0-0.1-0.1-0.1c0.2-0.2,0.5-0.3,0.7-0.4c0.3,0,0.3,0.1,0.5,0.2L533.6,278.3L533.6,278.3z M539.9,268.5
			c-0.1,0.1-0.8,0.7-1,0.9c-0.2,0.2-0.3,0.6-0.5,0.7c-0.4,0.3-0.9,0.3-1.3,0.5c-0.4,0.2-0.9,0.5-1.3,0.7c-0.2,0-0.4,0-0.6,0.1
			c-0.6,0.3-2.9,1.4-3.7,1.2c-0.4-0.1-0.8-0.4-1.1-0.4c-0.4-0.1-0.7,0-1.1-0.3c-1-0.7-1.4-2.8-0.5-4c0.4-0.5,0.7-1.1,1.1-1.5
			c1.5-1.4,3.8-2.4,5.8-3.4c0.6-0.3,2.5,0.1,2.9,0.1c0.3,0.1,0.5,0,0.7,0.1c0.2,0.1,0.1,0,0.2,0.1c0.1,0.1-0.4,1-0.5,1.2
			c-0.4,0.1-1.2-0.7-1.8-0.4c-0.1,0.1-0.2,0.2-0.3,0.4c-0.2,0.1-0.4-0.1-0.7,0c-2.2,0.7-4.2,1.2-5.4,2.9c-0.3,0.4-1.3,1.5-0.9,2.3
			c0.1,0.6,0.5,0.7,0.8,1.1c0.6,0,1.2,0.2,1.7,0.3c0.4,0.1,0.8-0.4,1.3-0.2c0.2,0.1,0.4,0.2,0.7,0.1c0.2-0.1,0.3-0.3,0.5-0.4
			c1-0.4,1.7-0.8,2.6-1.2v-0.2c0.4-0.1,0.4-0.4,0.9-0.4c0.1-0.4,0.2-0.2,0.4-0.4c0.2-0.2,0.2-0.6,0.4-0.9c0.3-0.4,0.8-0.9,1.1-1.3
			c0.2-0.3,0.2-0.7,0.4-1c0.2-0.5,0.7-1,0.9-1.5c0.1-0.4,0-0.7,0.1-1.1c0.1-0.2,0.3-0.6,0.4-0.8c0.5-1.7-1.2-4.3-2.3-5v-0.2
			c-0.6-0.1-0.7-0.4-1-0.6c-0.3,0-0.6,0-0.9-0.1c-0.2-0.1-0.5-0.3-0.7-0.4c-0.5-0.2-1.2-0.2-1.6-0.3c-0.7-0.1-1.9,0.3-2.4,0.5
			c-2.5,0.8-4.6,1.7-6.7,2.9c-0.1,1.1,1,2.5,1.5,3.4c0.1,0.1,0.4,0.7,0.4,0.8c0,0.2-0.1,0.4-0.1,0.7c0.2,0.5,0.7,1.1,0.9,1.5
			c-0.7,0.5-1.8,2-2.1,2.9c-0.1,0.4,0,0.7-0.1,1.1c-0.1,0.2-0.3,0.9-0.2,1.2c0.1,0.5,0.5,1.2,0.7,1.6c0.1,0.3,0.1,0.6,0.3,0.8
			c0.5,0.7,1.6,0.7,2.5,1c0.6,0.2,1,0.5,1.8,0.5c-0.1,0.5-1,1.3-0.3,1.8c-0.1,0.2-0.2,0.4-0.4,0.6c0,0.3,0,0.4,0.2,0.6
			c-0.1,0.2-0.6,0.1-0.8,0.2c-0.4-0.7-0.8-0.5-1.4-0.8c-0.3,0.1-0.3,0.2-0.5,0.3c0,1,0.5,1.1,0.6,2c0.3,0.1,0.5,0.4,0.8,0.5
			c0.5,0.2,1,0,1.3,0.4c0,0,0,0,0.1,0.1h-0.1c-0.1,0.2-0.2,0.3-0.4,0.4v0.7c0.4,0.4,0.5,0.7,1,1c-0.2,0.4-0.4,0.1-0.7,0.3
			c-0.1,0.1-0.2,0.4-0.3,0.4c-0.5,0.3-0.7,0-0.9,0.6c-0.6,0-0.9-0.2-1.2-0.5c-0.5,0-0.8-0.1-1.1,0.1c-0.3,0.2-0.4,0.5-0.6,0.7
			c0,0.3,0.1,0.4,0.2,0.5c-0.1,0.3-0.3,0.4-0.5,0.5c0,0.8,0.3,0.9,0.7,1.4c0.7,0,0.9,0.1,1.3-0.3c0.3,0.6,0.5,1.8,1,2.2
			c-0.1,0.2-0.1,0.2-0.2,0.4c-0.2,0-0.4,0.1-0.7,0.1c0-0.2,0-0.4-0.1-0.5c-0.1-0.5-0.4-0.6-0.7-1c-1,0-1.3,0.4-1.8,0.9
			c0.1,0.7,1,1.4,1.8,1.2c0.3,0.9,0.4,1.1,1.2,1.5c0,0.4-0.2,0.6-0.5,0.7v0.2c-0.2,0-0.5,0.1-0.7,0.1c-0.2-0.2-0.4-0.7-0.5-1v-0.3
			c-0.1-0.1-0.3-0.2-0.4-0.3c-0.2,0-0.2,0-0.3-0.1c-0.6,0-0.7,0.1-1,0.3c0,0.5,0.2,0.8,0.4,1.2c0.4,0.1,0.6,0.2,1,0.2v0.1
			c-0.4,0.2-0.9,0.6-1.3,0.7c0,0.6,0.1,1-0.4,1.3c0,1,0.4,1.1,1,1.5c0.1,0.1,0.1,0.2,0.1,0.4c-0.1,0.1-0.1,0.1-0.2,0.1
			c-0.3,0.1-0.7-0.6-1.2-0.2c-0.1,0-0.1,0-0.2,0.1c0,0.2-0.1,0.4,0,0.6c0,0.1-0.8,0.8-0.9,1c0,0.6,0.1,0.8,0.4,1v0.1
			c-0.3,0-1.2-0.4-1.4-0.5c-0.3,0-0.5,0.1-0.7,0.3c-0.1,0.2-0.1,0.3-0.1,0.5c-0.3-0.1-0.6-0.2-0.9,0.1c-0.2,0.1-0.2,0.1-0.3,0.2
			c0.1,0.6,0.3,1,0.9,1.1c0,0.3,0,0.8,0,0.9c-0.1,0.3-0.1,0.2-0.2,0.4c-0.3-0.1-0.8,0-1-0.1c-0.6,0-0.8,0.4-1.3,0.7
			c0,0.1-0.1,0.2-0.1,0.3c0,0.3,0.1,0.6,0.2,0.9c0.1,0,0.1,0.1,0.2,0.1c0.1,0.2-0.1,0.2-0.1,0.3c0,0.2,0,0.4,0.1,0.7
			c-0.2-0.1-1.9-0.6-2.2-0.4h-0.1c-0.2,0.8,0.1,1.4,0.7,1.6v0.1c-0.2,0-0.2-0.1-0.4,0c-0.5,0-0.4,0.2-0.7,0.4c0,0.3,0.1,0.5,0.1,0.7
			c0,0-0.1,0.1-0.1,0.1c-0.5-0.1-1.2-0.5-1.6-0.1c-0.6,0.3-0.1,0.8,0,1.1c0,0.2-0.1,0.4,0,0.7c-0.3,0.1-0.7,0.1-1,0.2
			c-0.1,0.2-0.3,0.3-0.4,0.5c-0.2,0.1-0.5,0.1-0.7,0.1c-0.2-0.5-0.6-0.5-1-0.8c-0.6,0.1-0.9,0.5-1.6,0.7c0,0.1,0,0.1-0.1,0.1
			c0,0.7,0.3,1,0.7,1.2c-0.1,0.2-0.3,0.4-0.4,0.6c0.1,0.7,0.4,0.9,0.5,1.4c-0.6,0.1-0.9-0.1-1.6-0.1c-0.1,0.1-0.2,0.2-0.3,0.2
			c0,0.2,0,0.3,0.1,0.4c0,0.5-0.4,0.7-0.7,0.9c0,0.2,0,0.3,0.1,0.4c-0.1,0.6-0.8,0.5-1,1c-0.2,0.2-0.1,0.4-0.1,0.7
			c-0.5,0.1-0.4,0.6-0.4,1.2c-0.3,0.1-1.5,1-1.6,1.2c-0.3,0.6,0.2,0.8-0.2,1.2c0,0.4,0.1,0.6,0.3,0.8c-0.1,0.1-0.4,0.1-0.4,0.1
			c-0.8,0.4,0.1,1.3,0.7,1.4v0.1c-0.1,0.1-0.2,0.2-0.3,0.3c-0.2,0.1-1-0.2-1.4,0c-0.2,0.1-0.2,0.2-0.3,0.4c0.1,0.5,0.4,0.9,0.7,1.1
			c-0.1,0.5-0.2,0.9,0.1,1.2v0.1c-0.7,0-1.1-0.1-1.6,0.2c0,0.8,0.6,0.8,1,1.2h0.1v0.1c-0.6,0-1.4-0.6-1.8-0.4
			c-0.2,0.1-0.3,0.1-0.4,0.2c0,0.1,0,0.1-0.1,0.1c0,0.8,0.5,1.1,1,1.3c0.3,0.1,0.6,0,0.8,0.1h0.1c-0.1,0.5-0.4,0.2-0.7,0.4
			c-0.1,0.1-0.1,0.2-0.2,0.4c-0.4,0.2-0.9,0-1.2,0.2c-0.3,0.2-0.4,0.5-0.7,0.7c0,0.9,0.5,1.2,1,1.5v0.3c-0.2-0.1-0.7-0.2-1-0.1
			c-0.3,0-0.3,0.1-0.5,0.1c0,0.2,0,0.5,0.1,0.6v0.1c-0.6-0.5-1.1-1.3-2-0.5c0,0.8,0.5,0.6,0.7,1c0,0.2,0,0.3,0.1,0.5
			c0.3,0.5,1.9,1.4,2.6,1.5v0.1c0,0,0,0-0.1,0.1c-0.4-0.1-1-0.2-1.2-0.4c-0.8,0-0.8,0.2-1.2,0.6c0.1,0.5,0.5,1,0.9,1.2
			c-0.1,0.3-0.2,0.3-0.3,0.5c-0.7-0.1-2-0.8-2.4-0.4l-0.2,0.2c0,0.3,0,0.5,0.1,0.7c0.2,0.3,0.7,0.5,1.1,0.6c-0.2,0.4-0.8,0.4-1,0.7
			c-0.3-0.1-0.7-0.5-0.9-0.7c-0.7,0-0.8,0.1-1.1,0.4v0.4c0.3,0.3,0.4,0.7,1.1,0.7v0.1l-0.7,0.7c-0.3-0.1-0.4-0.4-0.5-0.7
			c-0.3-0.1-0.7-0.2-1.2-0.1c-0.2,0.3-0.5,0.5-0.7,0.8c0.1,0.6,0.4,1,1.1,1c-0.2,0.5-1,0.7-1.3,1.2c-0.1,0.2,0,0.4-0.1,0.6
			c-0.1,0.3-0.6,0.5-0.8,0.7c-0.2,0.1-0.3,0.4-0.4,0.6c-0.7,0.5-1.3,1.1-2.1,1.6c-1.5,1.1-2.7,2.5-4.2,3.6c-0.3,0.2-0.5,0.7-0.7,0.9
			c-0.1,0-0.2,0-0.4,0.1c-0.2,0.2-0.5,0.5-0.7,0.7c-0.3,0.1-1,0.1-1.2,0.3c-0.1,0-0.1,0.2-0.1,0.3c-1.6,1-3.3,1.6-5.4,2.1h-0.9
			c-0.3,0.1-0.7,0.2-1.1,0.3c-0.7,0.2-1.3,0.2-2.2,0.2c-0.2,0-0.6-0.1-0.7-0.1c-2.3,0.4-6.1,0.2-6.6-1.8c-0.1-0.5,1.1-1.6,1.3-1.9
			c0.4-0.6,0.6-1.2,1-1.8c0.4-0.6,1.2-1.1,1.8-1.5c0.2-0.1,0.2-0.4,0.4-0.6c0.3-0.4,0.7-0.7,1.2-1c0.2-0.2,0.4-0.6,0.7-0.7h0.3
			c0.1-0.1,0.1-0.4,0.2-0.4c0.1-0.1,0.3,0,0.5-0.1c0.5-0.3,0.9-0.9,1.3-1.2c0.2-0.1,0.3-0.2,0.5-0.3c0.1-0.1,0-0.2,0.1-0.3
			c0.3-0.3,0.7-0.4,1-0.7c0-0.1,0-0.2,0.1-0.3c0.6-0.5,1-1,1.5-1.6c0.6-0.8,1.4-1.3,2-2.1c0.2-0.3,0.5-0.7,0.7-1
			c0-0.1,0-0.3,0.1-0.4c0.9-1.2,2-2.3,2.6-3.8c0.5-1.2,0.6-2.6,0.8-4c0-0.3,0-0.5-0.1-0.8c0.4-1.4,0.1-2.8-0.2-4.2
			c0-0.2,0-0.5,0.1-0.7c-0.1-0.2-0.3-0.6-0.4-0.7c-0.2-0.5,0-1.2-0.2-1.7c-0.4-1.1-1.1-2.2-1.6-3.3c-0.4-0.9-0.6-1.7-1.2-2.4
			c-0.1-0.1-0.2-0.1-0.4-0.2c-0.2-0.2-0.3-0.5-0.4-0.7c-0.1-0.1-0.3-0.1-0.4-0.2c-0.3-0.3-0.3-0.7-0.5-1c-0.6-0.7-1.1-1.4-1.6-2.1
			c-0.2-0.3-0.6-0.4-0.7-0.7c-0.2-0.3-0.4-0.8-0.6-1.1c0-0.2,0-0.3-0.1-0.5c-0.1-0.1-0.4-0.1-0.4-0.3c-0.6-1.1-1.2-2.3-1.7-3.4
			c-0.2-0.4-0.3-0.7-0.4-1.1v-0.4c-0.1-0.2-0.4-0.5-0.5-0.7c-0.3-0.6-0.7-1.6-0.9-2.2c-0.2-0.6-0.1-1.3-0.3-1.8
			c-1.4-4.3-1.2-9.6,0.2-14.1c0.2-0.6,0.1-1.2,0.3-1.8c0.3-1.1,0.7-2.5,1.2-3.8c0.2-0.6,0.6-1.1,0.7-1.8c-0.1-0.1-0.2-0.1-0.3-0.3
			c-0.4,0.1-0.1,0.1-0.3,0.4c-0.2,0.2-0.4,0.3-0.6,0.5c-0.2,0.3-0.1,0.7-0.3,1c-0.2,0.6-0.6,1.3-0.8,1.8c-0.2,0.6-0.1,0.9-0.3,1.5
			c-1.5,4.9-2.7,10.9-1.2,16.1c0,0.4,0,0.9,0.1,1.3c0.1,0.1,0.2,0.1,0.3,0.2c0,0.4,0,0.8,0.1,1.2c0.1,0.4,0.5,0.9,0.7,1.3
			c0.1,0.4,0,0.7,0.3,1c-0.1,0.1-0.4,0.1-0.4,0.1c-0.3,0.2-0.5,1.1-0.2,1.5c0.1,0.3,0.2,0.3,0.4,0.4c0.6,0,0.6-0.2,0.9-0.4
			c0-0.1,0-0.1,0.1-0.1c0.1,0.3,0.2,0.8,0.4,1c-0.1,0.3-0.2,0.4-0.5,0.4c-0.1,0.2-0.2,0.8-0.2,0.8c-0.2,0.4-0.6,0.2-0.6,0.8
			c-0.1-0.1-0.4-0.7-0.4-0.8c-0.2,0-0.4-0.1-0.5-0.2c-0.5,0.1-0.9,1.3-0.4,1.8c0,0.2,0,0.1-0.1,0.2c-0.1,0.1-0.2,0.1-0.4,0.1
			l-0.1-0.1c0-0.2,0.1-0.5,0.1-0.7c-0.3-0.1-0.6-0.3-0.7-0.6c-0.4-0.1-1.6,0-1.8,0.1c-0.5,0.2-0.4,0.9-0.7,1.2v0.1
			c-0.1-0.1-0.3-0.4-0.4-0.5c-0.6-0.3-0.6,0.2-1-0.4c-0.2,0-0.1,0-0.2,0.1c-0.4,0-0.4,0.1-0.6,0.2c0,0.3,0.1,0.6-0.1,0.7
			c0,0.2,0.3,0.8,0.4,0.9c0,0,0,0-0.1,0.1c-0.2,0.2-0.6,0.2-1,0.2v-0.7c-0.4-0.4-0.6-0.8-1.3-0.5c-0.1,0.6-0.2,1-0.1,1.6
			c-0.1,0.1,0,0-0.1,0.1c-0.2,0-0.4,0.1-0.5,0.1h-0.1c0.1-0.7,0.1-1.4-0.2-1.8c0-0.7-0.2-0.6-0.4-1c-0.2,0-0.4-0.1-0.6-0.1
			c-0.1,0.1-0.1,0.1-0.2,0.1c-0.3,0.8,0,1,0,1.8c0,0.5-0.2,0.7-0.1,1.2c-0.1,0-0.4,0.1-0.5,0.1h-0.2c-0.2-0.1,0.1-0.2,0-0.4
			c-0.1-0.1-0.2-0.3-0.4-0.4c-0.4,0-0.5,0-0.7,0c-0.2,0.3-0.2,0.7-0.4,1c0,0,0,0-0.1,0.1h-0.1c0-0.3-0.1-0.8,0-0.9
			c0-0.2-0.5-0.6-0.6-0.7c-0.1-0.1-0.4,0-0.7,0c0.1-0.3,0.1-1,0.1-1.3c-0.2-0.1-0.3-0.5-0.5-0.6c-0.4-0.1-0.4,0.3-0.7-0.2
			c-0.4,0-0.4,0.1-0.7,0.2c0,0.1-0.1,0.2-0.1,0.3v1.1c0.1,0.2,1.4,0.7,1.6,0.6h0.1c0,0.4-0.1,0.8-0.1,1c0.1,0.3,0.3,0.3,0.4,0.8
			c-0.1,0-0.2,0-0.4,0.1c-0.1-0.3-0.4-0.4-0.6-0.6c0-0.1,0-0.1,0.1-0.2c-0.1-0.2-0.4-0.6-0.7-0.7c-0.1-0.1-0.5-0.1-0.7,0.1
			c-0.5,0.4-0.1,1.4-0.5,1.8c-0.1,0.1,0,0-0.1,0.1c-0.1-0.1,0,0-0.1-0.1c0-1-0.1-1-0.5-1.6c-0.1,0-0.1-0.1-0.2-0.1
			c-0.1-0.3-0.1-0.6-0.1-0.8c0.2-0.1,0.5-0.2,0.6-0.5c0.1-0.1,0.1-0.6,0-0.8c-0.1-0.4-0.5-0.5-0.7-0.7c-0.3,0.1-0.4,0.2-0.6,0.4
			c0,0.3-0.1,0.6,0,0.7c-0.1,0.2-0.1,0.2-0.2,0.4h-0.4c0,0.3,0,1.2-0.1,1.3c0,0.5,0.5,0.8,0.8,1c0,0.3,0,0.6,0.1,0.7
			c0,0.3,0,0.3-0.1,0.4v0.1c-0.3-0.2-0.2-0.5-0.4-0.7c-0.3-0.3-0.8-0.4-1.1-0.7c-0.2,0-0.1,0-0.2,0.1c-0.3,0.1-0.1,0.9-0.1,1.3
			c-0.4,0-0.6-0.1-0.7-0.4c-0.2-0.3,0.2-0.9,0-1.4c-0.2-0.2-0.5-0.4-0.8-0.5c0-0.1,0-0.1-0.1-0.1v-0.1c0.3,0,0.4,0.1,0.6,0.3
			c0.8-0.1,0.9-1,0.9-1.7c-0.5,0-0.7-0.1-0.9-0.4c-0.2,0.1-0.4,0.1-0.6,0.2c0,0.2,0,0.7-0.1,0.9c-0.1,0.3-0.1,0.2-0.3,0.3
			c0,0.8-0.3,1.3-0.2,1.8c-0.2-0.1-0.3-0.1-0.4-0.2c-0.4,0-0.5,0.2-0.6,0.5c-0.2-0.1-0.2-0.1-0.4-0.1c0-0.3,0.1-0.5,0-0.6v-0.1
			c0.4,0,0.4,0.1,0.8,0.1c0.1-0.2,0.2-0.7,0.3-0.9c-0.1-0.6-0.5-0.8-0.7-1.2c-0.8,0-0.8,0.5-0.8,1.2c-0.4-0.1-0.6-0.1-1-0.1
			c0,0.1-0.1,0.3-0.1,0.4c-0.2,0-0.5,0.1-0.7,0.1c-0.3,0.2-0.2,0.6-0.2,1.1c-0.2-0.1-0.2-0.1-0.3-0.1c-0.1-0.4,0.2-0.7,0.1-1.2
			c0-0.1-0.2-0.1-0.1-0.3c0.1-0.3,0.3-0.5,0.1-0.7c0-0.9-0.4-0.8-0.9-1.1c-0.7,0.1-0.6,1.6-0.6,2.5c-0.7,0-1,0.3-1.5,0.5
			c-0.2-0.3-0.6-0.4-0.7-0.7c-0.1-0.2,0-0.5-0.1-0.7c-0.1-0.8-1.2-0.8-1.6-1.4c-0.2,0-0.3,0-0.4,0.1c-0.4,0.2-0.4,1.1-0.2,1.5
			c0,0.4,0.2,0.4,0.4,0.5c0,0,0.4-0.1,0.5-0.1c0.4,0.2,0.3,0.6,0.9,0.7c-0.1,0.3,0.1,0.5,0,0.7c0,0.5,0.2,0.5,0.4,0.9
			c0.5,0,0.8,0,1-0.2h0.1c0,0.2-0.1,0.2-0.1,0.4c-0.7,0-1.4,0-1.7-0.2c-0.1-0.1,0.1-0.5,0-0.7c-0.2-0.4-0.8-1.1-1.2-1.2
			c-0.9-0.3-0.6,1.4-0.5,1.8c-0.3-0.1-0.3-0.3-0.7-0.3c-0.1-1.4-1.2-1.9-1.2-3.2c-0.3-0.1-0.5-0.4-0.9-0.4c-0.1-0.1-0.2,0-0.4,0.1
			c-0.1,0.1-0.2,0.1-0.2,0.3c-0.3,0.5,0.1,1,0.2,1.5c0.2,0.1,0.4,0.2,0.7,0.2c-0.2,0.3-0.3,0.6-0.7,0.8c0,0.2,0,0.3,0.1,0.4v0.6
			c-0.1,0-0.3-0.1-0.4-0.1c-0.1-0.1,0-0.1,0.1-0.2c0-1-0.2-1.3-0.9-1.5c-0.2-0.1-0.3,0-0.4,0.1c-0.1,0-0.1,0-0.1-0.1h-0.1
			c0,0,0.1-0.1,0.1-0.1c0-0.7-0.6-0.7-1-1.1c-0.1-0.1,0.2-0.3,0.3-0.4c0-0.2,0-0.2-0.1-0.3c-0.1-0.1-0.1,0-0.2-0.1
			c0-0.2,0-0.3,0.1-0.4c-0.1-0.4-0.3-0.3-0.4-0.7c-0.3,0-0.4,0.1-0.6,0.2c-0.2,0.4-0.5,1.2-0.3,1.6c0.1,0.3,0.4,0.5,0.7,0.2h0.1
			c-0.1,0.4-0.3,1.1-0.1,1.5c0.1,0.2,0.2,0.3,0.3,0.7c-0.4,0-0.6,0-0.8-0.1c-0.2-0.1-0.2-0.1-0.3-0.4c0,0-0.1,0-0.1-0.1h0.1
			c0.1-0.2,0.2-0.4,0.3-0.6c0.1-0.3-0.1-0.4,0-0.6c-0.1-0.4-0.4-0.5-0.6-0.8c-0.2,0-0.2,0-0.3,0.1c-0.4,0.1-0.3,0.4-0.4,0.7
			c0,0-0.1,0-0.1,0.1c-0.1-0.2-0.1-0.4-0.1-0.5c0.1-0.5,0.4-0.3,0.6-0.7c0.1-0.2,0.2-0.6,0.3-0.9c-0.3-0.2-0.5-0.7-0.7-1
			c-0.2,0-0.1,0-0.2,0.1c-0.3,0.1-0.8,0.8-0.7,1.1c0,0.6-0.2,0.4-0.5,0.7c-0.2,0.3-0.2,0.5-0.1,0.8c-0.5-0.2-0.8-0.5-1.3-0.7
			c-0.1,0.1-0.2,0.2-0.3,0.2c-0.1,0.5-0.3,0.7-0.4,1.2c-0.2,0-0.1,0-0.2-0.1h-0.4c0.1-0.3,0.2-0.6,0.1-0.9V308
			c0.2,0.1,0.3,0.2,0.5,0.1c0.2-0.1,0.3-0.1,0.4-0.4c0.2-0.3,0-0.7-0.1-1.1c-0.3-0.1-0.6-0.3-0.9-0.5c-0.3,0-0.3,0.1-0.4,0.1
			c0,0.5-0.1,0.7,0,1H425c-0.1,0.1-0.1-0.1-0.4,0c-0.5,0.2-0.7,0.8-0.7,1.5c0,0,0,0-0.1,0.1c-1.1,0-0.6-0.2-0.9-0.8
			c-0.1-0.2-0.3-0.5-0.4-0.7c-0.1,0-0.1,0-0.1-0.1c-0.2,0-0.2,0-0.4,0.1c-0.3,0.1-0.4,0.7-0.5,1c-0.3,0-0.4-0.1-0.6-0.2
			c-0.1-0.1,0.1-0.7,0.1-0.7c0-0.6-0.5-1-1-1c-0.2-0.3-0.4-0.6-0.5-1c-0.2,0-0.3,0-0.4,0.1c-0.5,0.2-0.5,0.9-0.7,1.2
			c-0.1,0-0.1,0-0.2-0.1c-0.3,0-0.3,0.1-0.4,0.2c-0.3-0.2-0.1-0.4-0.2-0.7c0.1-0.1,0.1,0,0.2-0.2c0.1-0.3-0.3-1-0.4-1.3
			c-0.2,0-0.5,0-0.7,0.1c-0.4,0.9-0.9,1.5-0.4,2.6c0,0,0,0,0.1,0.1c0,0,0,0-0.1,0.1c-0.3,0-0.3-0.1-0.4-0.1c0-0.2,0-0.2,0.1-0.4
			c-0.1-0.4-0.4-0.8-0.6-1.1c-0.3-0.1-0.4,0-0.7,0c-0.1-0.2-0.1-0.3-0.2-0.4c0-0.8,0.2-1.2-0.2-1.7c-0.2-0.2-0.9-0.6-1.2-0.7
			c0.1-1.2,0.6-2.4,0.9-3.4V299c0.2-0.5,0.2-1.2,0.4-1.8c0.6-2.3,0.7-4.9,0.7-7.5c-0.3-0.3-0.7-0.7-1-1c-0.2,0-0.3,0-0.4-0.1
			c-0.3,0-0.3,0.1-0.5,0.1c-0.5,1.9-0.5,4.2-1.1,5.9c-0.1,0.6-0.1,1.2-0.2,1.8c-0.1,0.2-0.3,0.2-0.4,0.4c-0.1,0.3,0.3,0.9,0.1,1.5
			c-0.3,1.3-0.5,2.5-0.8,3.8c-0.2,0-0.4,0.1-0.6,0.1c-0.2-0.4-0.4-0.6-0.5-1c-0.2,0-0.4,0-0.5,0.1c-0.9,0.4-0.7,1.3-0.5,2
			c0.5,0.1,0.5,0.4,1,0.5c0.1-0.3,0.2-0.5,0.4-0.7v-0.1c0.5,0.3,0,2.2-0.3,2.6c-0.1,0-0.5-0.1-0.7-0.1v-0.1l0.3-0.1
			c0-1.1-0.4-1.1-0.9-1.7h-0.4l-0.2,0.7c0,0.3,0,0.5,0.1,0.8c-0.1,0.2-0.5,0.3-0.2,0.7c0.1,0.6,1.1,1.2,1.6,1.3
			c-0.1,1.1-0.9,1.6-1,2.6c-0.2-0.1-0.1,0-0.2-0.1c-0.1-0.3,0.2-0.6-0.1-0.9v-0.1c0.2,0,0.2,0,0.3,0.1c0.5,0,0.8-0.2,0.7-0.6
			c0-0.6-0.4-0.8-0.7-1.2c-0.5,0-0.5,0.1-0.8,0.3c-0.1,0.3,0,0.5,0,0.8c-0.3-0.1-0.5-0.3-0.8-0.4c-0.1,0.1-0.2,0.2-0.3,0.3
			c0,0.4,0,0.7-0.1,1.1c0.1,0.2,0.4,0.4,0.5,0.6c0.4,0.5,0.3,1.1,0.8,1.5c-0.1,0.5-0.5,1.3-0.9,1.5v0.1c-0.3-0.5,0.1-0.9-0.5-1.3
			c0.3-0.1,0.5-0.1,0.8-0.2c0.1-0.7-0.2-1.7-0.7-1.8c-0.4-0.1-0.6,0.2-0.8,0.3c-0.1,0.3-0.2,0.5,0,0.8v0.3c-0.2-0.2-0.5-0.6-0.7-0.8
			c-0.8,0-1.1,0.6-1.5,0.9c0.2,0.4,0.1,0.8,0.5,1c0,0.2-0.1,0.4-0.2,0.5c0.1,0.4,0.3,1,0.7,1.2c0.5,0.3,0.9,0.4,1.2,0.9
			c0,0,0,0,0.1,0.1h-0.1c-0.1,0.1-0.5-0.5-0.8-0.4c-0.1,0-0.8,0.7-1.1,0.8c0,0.6,0.1,1.1,0.5,1.3c-0.1,0.4-0.5,0.5-0.7,0.8
			c-0.4-0.3-0.4-0.9-1-1.2c0-0.3,0.1-0.4-0.1-0.7v-0.1c0.3,0.1,0.4,0.3,0.5,0.5c0.3,0,0.5-0.1,0.7-0.1c0.1-0.3,0-0.9-0.4-1.2
			c0.1-0.1,0.5-0.2,0.7-0.4c0-0.7-0.3-0.9-0.4-1.5c-0.6,0-0.7,0.2-1,0.4c0,0.4,0.2,0.8,0.4,1c-0.3,0.3-0.6,0.3-0.7,0.8
			c-0.2-0.1-0.4-0.2-0.4-0.1c-1.3,0-0.5,1.4,0.1,1.6c0,0.1,0,0.1-0.1,0.2c-0.2,0-0.8-0.7-0.9-0.9c-0.5,0-0.5,0.2-0.7,0.4
			c0,0.7,0.3,1.2,0.8,1.4c0.1,0.1,0.4,0,0.5-0.1c0.2,0.3,0.2,0.7,0.4,0.9c-0.1,0.3-0.4,0.3-0.6,0.6c-0.2-0.1-0.5-0.4-0.6-0.6
			c-0.4,0-0.4,0.2-0.7,0.3c0,0.2,0,0.3-0.1,0.5c-0.2,0-0.2,0-0.3-0.1c-0.2,0-0.2,0-0.3,0.1c-0.6,0.7,0.6,1.9,0.5,2
			c-0.1,0.3-0.4,0.5-0.5,0.7h-0.1c-0.1-0.1,0-0.1-0.2-0.2c0.1-0.4,0.3-0.5,0.4-1c-0.2-0.2-0.2-0.5-0.4-0.7c-0.1-0.1-0.4-0.2-0.5-0.3
			c-0.2,0-0.5,0-0.6,0.1c-0.2,0.1-0.4,0.9-0.2,1.3c0,0,0.1,0.2,0.1,0.3h0.1c0.1,0.3-0.3,0.4-0.1,0.7c0,0.6,0.2,0.8,0.5,1
			c-0.4,0.5-0.8,0.9-1.2,1.4c-0.4-0.1-0.4-0.5-0.7-0.6c-0.4-0.1-0.6,0.1-0.9,0c-0.3-0.1-1.3-0.7-1.5-0.9c-0.4,0.1-0.5,0.2-0.7,0.4
			c0.1,0.8,0.4,1,1.1,1.2c0.1,0,0.2-0.1,0.3-0.1c0.2,0.1,0.3,0.4,0.4,0.5c0.3,0.1,0.8,0.1,1,0.2c0,0.1,0,0.1-0.1,0.2
			c-1,0-1.7-0.2-2.2-0.7c-0.2,0-0.2,0-0.3,0.1c-0.1,0-0.1,0-0.2,0.1c0,0.2,0,0.3-0.1,0.4c0.1,0.4,0.5,0.8,0.9,1v0.1
			c0.1,0,0.1,0,0.1-0.1c0.4,0.1,0.3,0.2,0.5,0.4c-0.1,0.4-0.3,0.5-0.4,0.8c-0.1,0-0.1,0-0.2,0.1c-0.2-0.4-0.5-0.5-0.7-0.9
			c-0.3,0-0.6,0-0.8,0.1c-0.2,0-0.4,0-0.5,0.1c-0.3,1.6,0.7,1.1,1.4,1.7c0,0,0,0,0.1,0.1h-0.1c-0.2,0.7-0.7,1.3-1,1.8
			c-0.2,0.4-0.3,0.8-0.5,1.1c-0.1,0.1,0,0-0.1,0.1c-0.1-0.2-0.3-0.4-0.5-0.4c0-0.1,0.1-0.2,0.1-0.3c0-0.7-0.4-1-0.7-1.4
			c-0.2,0-0.2,0-0.3,0.1c-0.1-0.1-0.3-1.1-0.3-1.2c-0.4-0.1-0.6,0-1,0.1c0,0.2-0.1,0.3,0,0.5c0.1,0.3,0.5,0.6,0.9,0.7
			c0,0.2-0.1,0.3-0.1,0.5c0.2,0.2,0.2,0.4,0.4,0.7c0.1,0.1,0.3,0.2,0.4,0.3c0,0-0.2,1.1-0.3,1.2c0,0.6,0.3,0.7,0.7,0.8
			c-0.1,0.4-0.2,0.6-0.3,1h-0.2c-0.1-0.4-0.3-0.5-0.5-0.7c-0.3,0-0.3,0-0.4,0.1h-0.1c0-0.1,0.1-0.3,0.1-0.4
			c-0.2-0.2-0.2-0.7-0.4-0.9c-0.1-0.1-0.3-0.1-0.4-0.2c-0.4,0-0.5,0.2-0.6,0.5c-0.1,0.1,0,0.2,0.1,0.4c0.1,0.4,0.7,0.8,1.1,0.7
			c0,0.2-0.1,0.4-0.1,0.5c0.3,0.5,0.6,1,1.2,1.1c-0.1,0.2-0.1,0.3-0.2,0.4c0,0,0,0-0.1,0.1c-0.2-0.2-0.4-0.3-0.6-0.5
			c-0.2,0-0.5,0-0.6,0.1c-0.2,0.1-0.3,0.1-0.3,0.4h-0.1c-0.2-0.6-0.4-1.2-1.2-1.2c0.5-0.9-0.2-1.9-0.7-2.5c-0.2,0-0.3,0-0.4,0.1
			c-0.3,0.1-0.3,0.3-0.4,0.4c0.1,0.4,0.3,0.7,0.7,0.8c0,0.2-0.1,0.2-0.1,0.3c0,0.5,0.3,0.8,0.8,0.9c-0.1,0.3-0.2,0.5-0.1,0.9
			c0.2,0.2,0.2,0.3,0.4,0.4c-0.2,0.3-0.5,0.6-0.7,1c-0.2,0.3,0.1,0.5-0.1,0.9c0,0.1-0.2,0.1-0.2,0.3c-0.2-0.1-0.5-0.2-0.7-0.3
			c-1.3,0.2,0.4,2.2,0.7,2.4c-0.1,0.5-0.6,0.6-0.8,1c-0.3-0.1-0.2-0.2-0.4-0.4c0.2-0.1,0.5-0.3,0.7-0.4c0-0.7-0.3-0.8-0.6-1.2
			c-0.2,0-0.4,0-0.5,0.1c-0.3-0.1-0.6-0.4-0.7-0.6c-0.2,0-0.3,0-0.4,0.1c-0.2,0.1-0.2,0.2-0.4,0.3c0,0.5-0.1,1.1,0.1,1.3
			c-0.3,0.6-1.1,0.4-1,1.2c-0.2-0.1-0.4-0.2-0.6-0.3c-0.8,0.1-0.3,0.3-0.6,0.7c-0.1,0-0.3,0.1-0.4,0.1c-0.1,0.1-0.2,0.3-0.4,0.4
			c0.1,0.7,0.7,1.3,1.2,1.5c-0.1,0.4-0.5,0.7-0.7,1.1c-0.1,0-0.1,0-0.2-0.1c-0.1-0.4-0.1-1-0.4-1.4c-0.2-0.3-0.6-0.4-0.8-0.7
			c-0.4,0-0.4,0-0.7,0.1c0,1,0.4,0.9,0.4,1.8c-0.3,0-0.3-0.1-0.4-0.2c-0.5,0-0.6,0.1-0.8,0.2c0,0.7,0.5,1,1.1,1.1
			c0.1-0.1,0.2-0.2,0.3-0.3c0.2,0.1,0.5,0.2,0.7,0.4c0,0,0,0,0.1,0.1h-0.1c-0.1,0.3-0.2,0.5-0.4,0.7c-0.2,0.2-0.5-0.5-0.7-0.6
			c0,0,0,0-0.1-0.1c-0.2,0.2-0.3,0.4-0.5,0.6c0,0.5,0.3,0.8,0.7,1c0,0.2-0.1,0.6-0.2,0.7c-0.1,0.1,0,0-0.1,0.1
			c-0.2-0.4-0.5-0.5-0.7-0.8c-0.7,0-0.4,0.3-0.7,0.4h-0.6l-0.2,0.2c0,0.2,0,0.4-0.1,0.6c0.2,0.1,0.3,0.2,0.4,0.3
			c0,0.2,0,0.1-0.1,0.2c-0.3,0.2-0.7,0.2-1,0.3c-1.3,0.5-2.9,0.6-4.3,1c-0.3,0-0.6,0-0.9,0.1c-0.9,0.2-1.9,0.6-2.8,0.9
			c-0.8,0.2-1.6,0-2.3,0.1c-0.6,0.1-1.7,0.3-2.5,0.1c-0.5-0.1-1-0.5-1.5-0.6c-0.5-0.2-0.9-0.1-1.4-0.3c-0.6-0.3-2.3-1.6-2.6-2.1
			c-0.2-0.3-0.3-0.7-0.5-1c0.1-1.1,1.3-1.4,2-1.9c0.6-0.4,0.9-1.2,1.5-1.6c0.7-0.6,1.5-1,2.3-1.6c0.5-0.3,0.9-0.8,1.4-1.2
			c0.9-0.7,1.9-1.1,2.9-1.8c1-0.7,2-1.9,2.8-2.8c0.3-0.4,0.9-0.7,1.2-1.1c0.8-1.1,1.2-2.7,2-3.9c0.4-0.6,1-1.1,1.3-1.8
			c0.6-1.6,1.1-4.2,1.3-5.6c0.2-1.2,0-3.8-0.2-4.8c-0.2-0.9,0.2-1.7-0.1-2.5l-0.2-0.2c-0.2-0.5-0.1-0.8-0.3-1.2
			c-0.1,0-0.1,0-0.2-0.1v-0.6c-0.2-0.5-0.3-1.2-0.6-1.7c-0.1-0.3-0.5-0.6-0.7-0.8c-0.2-0.2-0.1-0.5-0.3-0.8c-0.4-0.6-1-1.2-1.3-1.8
			c-0.8-1.3-1.5-2.6-2.3-4c-0.3-0.4-0.8-0.7-1.1-1.1c-0.3-0.5-0.3-1.2-0.7-1.7c-0.3-0.5-0.9-1.1-1-1.8c0-0.1,0,0,0.1-0.1
			c-0.2-0.4-0.6-0.8-0.8-1.2c-0.1-0.2-0.1-0.5-0.3-0.7c-0.1-0.2-0.5-0.4-0.6-0.7v-0.3c-0.1,0-0.1,0-0.2-0.1
			c-0.2-0.4-0.2-0.8-0.4-1.2c-0.4-0.8-0.8-1.6-1.2-2.3c-0.2,0-0.2-0.1-0.3-0.1c-0.2,0-0.2,0-0.4,0.1c-0.1,0.7,0.6,2.6,1,3.1
			c0,0,0,0-0.1,0.1c-0.1,0.1-0.3-0.2-0.4-0.3c-0.7,0.1-0.8,1-0.9,1.6c0.1,0.1,0.2,0.3,0.4,0.4c0.7,0,1.4-0.8,1-1.4v-0.1
			c0,0,0,0,0.1,0.1c0.2,0.2,0.2,0.5,0.4,0.8c0.3,0.6,0.8,1.2,1.2,1.8c0.1,0.3,0.1,0.5,0.3,0.7c-0.1,0.3-0.4,0.4-0.5,0.7
			c0,0,0,0-0.1-0.1h-0.4c-0.2-0.1-0.1-0.4-0.1-0.6c-0.1-0.3-0.5-0.5-0.7-0.8c-0.4,0.1-0.4,0.2-0.7-0.1c-0.8,0-0.6,0.9-1,1.4
			c0,0.4,0.3,0.5,0.4,0.8c0.4,0,1.1,0.2,1.4,0h0.2c-0.1,0.6-0.5,0.8-0.7,1.3c-0.1,0.3,0.1,0.3,0,0.5v0.1c-0.1-0.1,0-0.4-0.1-0.6
			c-0.1-0.2-0.4-0.4-0.4-0.7c-0.1,0-0.1,0-0.1-0.1c-0.3,0-0.4,0.1-0.7,0.2c0,0.2,0,0.5-0.1,0.7c-0.6,0-0.2-0.2-0.7-0.4
			c0-0.2,0.2-0.6,0-0.9c-0.1-0.3-0.4-0.4-0.6-0.7c-0.3,0-0.5,0.1-0.6,0.4c-0.2-0.1-0.1,0-0.1-0.2c-0.2,0-0.2-0.1-0.3,0
			c-0.3,0.1-0.3,0.2-0.4,0.3c0,0.2-0.1,0.4-0.1,0.7c-0.3-0.1-0.4-0.2-0.6-0.4c-0.6,0-0.5,0.4-0.8,0.8v0.9c-0.2-0.6-0.9,0.7-0.9,0.7
			c-0.2,0.1-0.3-0.1-0.7-0.1c-0.1,0.1-0.3,0.1-0.4,0.2c-0.1,0.1-0.1,0.4-0.2,0.6c0,0,0,0-0.1,0.1c-0.1-0.1-0.5-0.8-0.6-0.8
			c-0.3-0.2-0.5,0-0.7-0.2c-0.3,0-0.4,0.1-0.6,0.4c-0.3,0-0.4-0.1-0.5-0.3c-0.3,0-0.4,0-0.6,0.1c-0.1,0.5-0.2,0.7-0.2,1.3h-0.4
			c0-0.8-0.4-0.7-0.5-1.2c-0.1-0.4,0.2-0.8,0-1.2c-0.1-0.3-0.4-0.4-0.6-0.6c-0.4,0.1-0.3,0.3-0.7,0.4c0.1,0.7-0.1,1.3-0.5,1.8v0.1
			c-0.1-0.2,0-0.4-0.1-0.6c-0.1-0.2-0.4-0.4-0.5-0.6c-0.2,0-0.3,0-0.4,0.1c-0.2,0.1-0.3,0.6-0.3,0.7c-0.1-0.1-0.3-0.1-0.4-0.2
			c-0.5,0-0.5,0.2-0.7,0.6c-0.8,0-1-0.9-1.1-1.4c0.2-0.1,0.4-0.2,0.6-0.3c0.1-0.3,0.2-0.7,0.1-1c0-0.4-0.3-0.5-0.4-0.8
			c-0.9,0.1-0.5,0.9-0.8,1.5c-0.1,0.2-0.5,0.4-0.7,0.7c-0.1,0.2,0,0.9,0,0.9v0.1c-0.4-0.1-0.9-0.5-1.2-0.7c-0.7,0-1,0.3-1,0.9
			c-0.2,0-0.5,0.1-0.7,0H342c0-0.2,0-0.5,0-0.5V305c0.1,0,0.2,0.1,0.2,0.1c0.5,0,0.5-0.2,0.8-0.4c0-0.3,0.1-0.6,0-0.7
			c0-0.5-0.2-0.6-0.4-0.9c-0.3,0-0.4,0.1-0.6,0.1c-0.1,0.4-0.4,1.2-0.1,1.5v0.1c-0.3-0.1-0.3-0.3-0.6-0.4c0,0,0,0-0.1-0.1v0.1
			c-0.5,0-0.5,0.2-0.7,0.6c-0.4-0.1-0.3-0.4-0.5-0.5c-0.2-0.1-0.4,0.1-0.4,0.1c-0.2-0.1-0.6-0.7-0.7-0.9c-0.2,0-0.4,0-0.7,0.1
			c0,0.3,0,0.6-0.2,0.8c-0.1,0.1-0.4-0.1-0.4,0c-0.4,0-0.4,0.1-0.5,0.4c-0.3-0.1-0.5-0.3-0.6-0.5c-0.2,0-0.3,0-0.4,0.1
			c-0.2,0.1-0.3,0.2-0.4,0.4c0,0.2,0.1,0.3,0,0.4v0.1H335c0-0.2,0.3-0.4,0.6-0.4c0-0.5,0.1-0.8,0-1.2c-0.2-0.1-0.4-0.2-0.5-0.4
			c-1,0.1-0.4,0.6-0.7,1.1c-0.1,0.1-0.6,0.1-0.7,0.2c-0.2,0.1-0.2,0.3-0.2,0.5c-0.4,0.2-1.4,0.2-1.8-0.1c-0.2-0.2-0.1-0.5-0.2-0.7
			c-0.2-0.4-0.7-0.6-0.8-1.1c-0.1,0-0.1,0-0.1-0.1c-0.6,0-0.9,1.1-0.6,1.5v0.4c-0.2,0-0.4-0.1-0.5-0.2c-0.2-0.1-0.1-0.4-0.2-0.6
			c-0.2-0.2-0.3-0.3-0.5-0.5c-0.2,0-0.3,0-0.4,0.1c-0.6,0.2-0.3,1-0.6,1.5v0.1h-0.1c0.1-0.7,0.1-1.4-0.3-1.9
			c-0.1-0.2-0.4-0.4-0.7-0.5c-0.1-0.1-0.2-0.1-0.3,0c-0.2,0.1-0.3,0.4-0.3,0.7c-0.3,0-0.3,0.1-0.5-0.1c-0.2-0.1-0.5-0.6-0.7-0.8
			c-0.6,0.1-0.6,0.8-0.9,1.2c0.1,0.2,0.3,0.5,0.4,0.6v0.1c-1.4-0.2-2.9-0.8-4.1-1.2c-0.3,0-0.7-0.1-1-0.1c-0.4-0.2-1-0.6-1.4-0.7
			c-1.3-0.5-2.6-0.8-3.8-1.4c-0.6-0.3-1.3-0.9-1.9-1.2c-1.3-0.6-2.7-1-4-1.7c-1.4-0.8-2.9-1.7-4.3-2.4c-0.5-0.3-1-0.3-1.5-0.6
			c-0.6-0.3-1.3-0.8-1.9-1.1c-0.3-0.1-0.6-0.1-1-0.2c-0.8-0.3-1.9-0.7-2.7-1c-1-0.5-2.1-0.3-3.4-0.5c-0.6-0.1-1.5,0.2-2.4,0
			c-0.6-0.1-1.5,0.1-2.1-0.1c-0.8-0.2-2.4,0-3.3,0.1c-0.6,0.1-1.6,0-2.1-0.1c-0.4-0.1-0.6,0.1-1,0.1c-0.2,0-0.6-0.1-0.7-0.1
			c-0.6-0.1-1.1,0.1-1.6-0.1c-0.7-0.3-1.6-0.6-2.3-1c-0.1-0.1-0.3-0.3-0.4-0.4c-1-0.5-2-0.7-2.6-1.5c-0.2-0.3-0.7-0.4-0.9-0.8
			c0-0.2-0.1-0.4-0.1-0.7c-0.1-0.2-0.4-0.3-0.3-0.6c0.3-0.6,1.3-1.3,2.3-1.2c0.4,0.1,1,0.4,1.5,0.3c0.4-0.1,0.6-0.3,0.9-0.4
			c0.5-0.2,0.9-0.2,1.3-0.4c0.3-0.1,0.7-0.4,1-0.5c0.2,0,0.3,0,0.5-0.1c0.1-0.1,0.2-0.3,0.3-0.4c0.6-0.1,1.1-0.1,1.7-0.2
			c0.7-0.3,1.1-0.4,2-0.5c0.3-0.1,0.8,0.2,1,0.2c0.9,0.2,1.8,0.2,2.6,0.4c0.7,0.2,1.9,0,2.3-0.1c0.8-0.2,2.5,0,3.5-0.2
			c3.6-0.9,6.5-2,8.9-4.2c0.3-0.3,0.7-0.4,1-0.7c0.3-0.4,0.5-0.8,0.8-1.2c0-0.2,0-0.4-0.1-0.5c-0.2,0-0.2,0-0.3,0.1
			c-0.3,0.2-0.4,0.6-0.6,0.8c-0.1,0.1-0.4,0.2-0.5,0.3c-0.5,0.4-0.8,0.9-1.3,1.2c-2.3,1.5-4.9,2.2-8,3c-0.8,0.1-1.7,0.1-2.5,0.2
			h-1.2c-0.3,0.1-1,0.2-1.2,0.1c-0.6,0-1.4-0.2-1.9-0.3h-0.7c-0.5-0.2-0.9-0.6-1.5-0.7c-1.2-0.3-2.4,0.1-3.4,0.4
			c-1.1,0.3-2.1-0.3-3.1-0.1c-1,0.2-3.1-0.5-3.8,0c-0.3,0-0.6,0-0.7-0.1c0.1-0.6,1.1-1.3,1.4-1.8c0-0.2,0-0.3,0.1-0.5
			c0.1-0.3,0.4-0.6,0.5-1c0.1-0.3-0.1-0.7,0-0.8c0.1,0,0.1,0,0.2-0.1c0.4-0.5,0.2-1.5,0.5-2.1c0.1-0.1,0.3-0.4,0.3-0.6
			c0.1-0.5-0.3-1.2-0.1-2c0.1-0.7,0-2.7-0.3-3.6c-0.2-0.8-0.8-1.1-1.2-1.7c0-0.2-0.1-0.4-0.1-0.7c-0.2-0.5-0.7-1-1-1.4
			c-0.1-0.2-0.1-0.4-0.2-0.6c-0.2-0.2-0.5-0.2-0.6-0.4c-0.1-0.1,0-0.3-0.1-0.4c-0.2-0.2-0.5-0.2-0.7-0.4c-0.1-0.1-0.2-0.3-0.4-0.4
			c-0.1-0.1-0.3-0.1-0.4-0.1c-0.1-0.1-0.1-0.2-0.1-0.3h-0.3c0-0.1-0.1-0.1-0.1-0.2c-0.2-0.1-0.3,0-0.6-0.1c-0.4-0.2-0.6-0.5-1.1-0.6
			c-2.4-0.7-4,0-5.4,1.1c-0.2,0.1-0.5,0.2-0.6,0.4c-0.2,0.3-0.1,0.6-0.3,0.9c-0.2,0.3-0.3,0.1-0.3,0.7c0.1,0,0.3,0,0.4,0.1
			c0.2-0.4,0.5-0.9,1-1v-0.2c0.4-0.1,0.3-0.3,0.6-0.4c0.6-0.4,1.6-0.7,2.3-0.7c2.7-0.1,5.7,2.3,6.7,4c0.2,0.4-0.1,1,0.2,1.4
			c0.4,0.6,0.8,0.8,1,1.6c0.1,0.3,0.4,2,0.4,2.1c0,0.1-0.2,0.4-0.1,0.6c0.1,0.3,0.4,0.9,0.4,1.2h-0.1c-0.1,0.4,0.1,0.8,0,1.2
			c-0.1,0.5-0.4,1.2-0.5,1.6c-0.1,0.2-0.1,1.1-0.1,1.1c-0.1,0-0.1,0-0.2,0.1c0,0.2,0,0.4-0.1,0.6c-0.2,0.4-1.2,1.9-1.5,2.1
			c-0.3,0.2-0.7,0.2-1,0.4c-0.4,0.2-0.8,0.6-1.2,0.8c-0.1,0-0.7,0-0.9-0.1c-0.8-0.4-1.8-0.8-2.4-1.4c-0.2-0.2-0.5-0.3-0.8-0.4
			c-0.3-0.2-0.7-0.8-1-1.1c-0.1-0.1-0.3-0.1-0.4-0.1v-0.4c0,0-0.7-0.5-0.7-0.6v-0.4c-0.1-0.1-0.3-0.1-0.4-0.2v-0.3h-0.1
			c-0.1-0.2-0.1-0.4-0.2-0.5h-0.1v-0.3c-0.1-0.1-0.3-0.2-0.4-0.3c-0.2-0.3-0.1-0.6-0.2-0.9c-0.1-0.3-0.5-0.5-0.7-0.7
			c-0.2-0.4,0-0.8-0.2-1.2c-0.2-0.5-0.7-1.5-0.7-2.1c-0.1,0-0.2-0.1-0.4-0.1c0.5-0.7-0.2-1.5-0.1-2.3c0.3-1.5,0.2-2.9,0.5-4.1
			c0.1-0.5-0.2-0.9,0-1.4c0.1-0.2,0.5-0.8,0.7-1c0.1-0.1,0.3,0,0.4-0.1c0.1-0.1,0.1-0.3,0.2-0.4c3.6-1.8,7.9-0.1,11.2,0.7
			c0.4,0,0.7,0,1.1,0.1c2,0.5,4.1,0.3,6.2,0.8c0.9,0.2,2.4-0.1,3.2-0.2c0.9-0.2,1.7,0.1,2.4,0c1-0.2,2-0.4,2.9-0.6
			c0.2,0,0.3,0.1,0.4,0.1c0.6-0.1,1.3-0.2,1.8-0.4h0.7c1.5-0.5,3.3-0.8,4.8-1.2c0.5-0.1,0.7,0,1.2-0.1c2.7-0.8,5.5-1.6,8-2.7
			c0.3-0.1,0.4-0.6,0.7-0.8c0.4-0.3,1.1-0.3,1.4-0.7c0.8-1.1,1.1-2.5,1.9-3.6c0.2-0.3,0.7-0.5,1-0.7c0.2-0.2,0.2-0.5,0.4-0.7
			c0.2-0.1,0.4-0.1,0.5-0.2c0.1-0.1,0.2-0.4,0.4-0.5c0.4-0.3,0.7-0.5,1-0.8c0.1-0.1,0.2-0.3,0.3-0.4c0.7-0.5,1.3-0.9,2-1.5
			c0-0.1,0-0.1,0.1-0.2c0.3-0.3,0.6-0.5,1-0.7c0.1-0.1,0.1-0.2,0.1-0.3c0.4-0.3,0.9-0.4,1.3-0.7c0.1-0.1,0.1-0.3,0.1-0.4
			c0.2-0.3,0.9-0.6,1.2-1c0.1-0.1,0-0.2,0.1-0.3c1.4-1.2,2.9-2.2,4.8-2.8c1.3-0.4,3.1,0.1,4.5,0c0.8,0,2.2-0.2,2.9-0.1
			c0.7,0.1,1.8-0.1,2.2,0.3c0.2,0.2,0,0.4,0.1,0.7c0.1,0,0.1,0.1,0.2,0.1c0.3,0.5,0.4,1.1,0.7,1.6c0.5,0.9,1.3,1.7,1.8,2.6
			c0.3,0.5,0.6,1.7,1.4,1.2c0.1-0.1,0.2-0.2,0.3-0.3c-0.1-0.8-1.6-2.4-2.1-3.2c-0.5-0.9-1.1-1.8-1.5-2.8c-0.2-0.4-0.2-0.8-0.4-1.2
			c-0.5-1-1-2.2-1.4-3.3c-0.2-0.7-0.2-2.2-0.1-2.8v-1c0-0.1,0.2-0.2,0.2-0.3v-0.6c0.1-0.2,0.3-0.4,0.4-0.6c0.3-0.7,0.3-1.6,0.6-2.3
			c0.6-1.5,1.2-3.1,1.8-4.7c0.2-0.5,0-1.3-0.1-1.8c0-0.5,0-0.9-0.1-1.4c-0.2-0.7-0.4-1.6-0.6-2.4c-0.2-1.1,0.6-1.7,0.8-2.3
			c0.2,0,0.3,0,0.4,0c0.6,0.1,1,0.8,1.3,1.2c0.8,1.1,1.5,2.1,2.2,3.4c0.2,0.3,0.6,0.7,0.7,1.1c0.3,0.6,0.2,1.2,0.6,1.7
			c0.7,1.1,1.7,2.1,2.5,3.2c0.9,1.3,1.6,2.5,2.5,3.8c0.9,1.3,2.3,3.9,2,5.9c-0.2,1.2,0.3,2.4,0,3.7c-0.2,1-0.2,3-0.1,3.9
			c0.1,1.3-0.1,2.7-0.7,3.2c0,0.5,0.2,0.6,0.7,0.6c0.2-0.2,0.5-0.3,0.6-0.4c0.2-0.2,0.1-0.4,0.4-0.5c0.1-2.1,0-3.4,0.2-5
			c0-0.2-0.1-0.3-0.1-0.6c0.1-0.4,0.2-1,0.2-1.4c0-0.3-0.2-0.4-0.1-0.8c0.1-0.2,0.4-0.6,0.3-0.9c-0.1-0.2-0.2-0.7-0.2-0.9
			c0-0.8,0.2-1.9,0-2.6c-0.3-1.2-0.7-2.6-1.2-3.6c-0.4-0.7-1.1-1.3-1.5-2c-0.8-1.3-1.5-2.5-2.4-3.7c-0.5-0.6-1.1-1.1-1.6-1.8
			c0-0.1,0-0.2-0.1-0.4c-0.1-0.2-0.5-0.4-0.6-0.7c-0.2-0.5-0.1-0.9-0.4-1.4c-0.8-1.6-1.9-3.2-2.9-4.5c0.1,0,0.1,0,0.2-0.1
			c0.2-0.3,1.6,0.9,1.8,1c0.6,0.6,1,1.3,1.5,2.1c0.1,0,0.1,0,0.2,0.1c0.4,0.4,0.7,1,1,1.5c0.4,0.7,0.5,1.3,1,2
			c0.7,1.1,1.4,2.1,2.1,3.3c0.5,0.8,1.4,1.4,2,2.2c1.6,2.2,3.3,4.2,4.6,6.7c0.9,1.6,1,3.8,1.4,5.6c0.2,1,0.1,2.5,0,3.2
			c-0.1,0.9,0,1.5-0.1,2.1c0,0.2,0,0.5,0.1,0.7c-0.1,0.3-0.2,0.8-0.1,1c0.1,0.6-0.4,2.2-0.7,2.4c0,0.5,0.4,0.7,0.7,0.4
			c0.3-0.1,0.1-0.1,0.3-0.4c0.1-0.3,0.5-0.7,0.6-1c0.1-0.6,0-1.5,0.1-2.3c0.2-0.8,0-1.3,0.1-2.1c0.4-1.7,0.4-4.2-0.1-5.9
			c-0.2-0.7-0.1-1.3-0.4-1.8V239c0,0,0,0,0.1,0.1c0.5,0.3,0.8,0.9,1.1,1.5c0.9,1.6,1.7,3.3,2.1,5.6c0.1,0.5,0,1.7,0.1,2.3
			c0.2,1.4-0.6,4.6-0.1,5.3c0,0.1,0,0.1,0.1,0.2c0.2,0,0.4,0,0.5-0.1c0.1-0.3,0.3-0.9,0.2-1.2c0-0.1-0.1-0.2-0.1-0.4
			c0-0.2,0.2-0.3,0.1-0.6c0-0.2-0.1-0.4-0.1-0.7c0.5-2.8,0.4-5.5-0.4-7.8c-0.2-0.7-0.3-1.7-0.8-2.2v-0.1c1.1,0.5,2.1,2.2,2.7,3.3
			c0.2,0.2,0.4,0.4,0.7,0.7c0.1,0.2,0.1,0.4,0.2,0.7c0.4,0.7,0.9,1.6,1.2,2.3c0.3,0.7,0.1,1.5,0.4,2.3c0,0.1,0.2,0.3,0.2,0.4
			c0.1,0.2-0.1,0.3-0.1,0.4c0,0.3,0.1,1,0.3,1.2c0,0.4,0.1,0.4,0.3,0.6c0.2,0,0.2,0,0.3-0.1c0.4-1.1,0.1-2.4-0.2-3.7
			c-0.2-1-0.1-1.7-0.4-2.6c-0.2-0.5-0.7-1-0.9-1.5c0-0.2-0.1-0.5-0.1-0.7c-0.3-0.4-0.8-0.8-1-1.2c-0.5-0.9-1.2-2-2.1-2.6v-0.1
			c1.5-0.3,2.9-0.8,4.2-1.2c1-0.3,2-0.3,2.9-0.7c1.2-0.5,2.5-1,3.7-1.5h0.5c0.6-0.2,1.3-0.3,2-0.4c0.6-0.1,1.2,0.1,1.7,0
			c0.7-0.1,1.4-0.3,2.1-0.4c0.2,0,0.5,0,0.7,0.1c0.9-0.2,2.3-0.3,2.9-0.5c1,0,2,0,2.9,0.1c0.2,0,0.4-0.1,0.5-0.1
			c0.2,0,0.9,0.2,1.2,0.2h1.5c0.7,0.2,1.9,0.3,2.3,0.4c1.6,0,3.2,0,4.8,0.1c1,0.2,2.2,0.2,3.2,0.4c0.5,0.1,0.9-0.2,1.2-0.1
			c0.5,0.1,1.6,0.2,2.1,0.1c0.4,0,1.4,0.1,1.9,0.2c0.4,0.1,0.8-0.1,1-0.1c0.7,0,1.9,0.1,2.6,0c0.2,0,0.5,0.1,0.8,0.1
			c1.6,0,3.1,0.3,4.5,0c0.5,0,1,0,1.5,0.1c0.6-0.1,2-0.1,2.7-0.1c0.3,0,0.6,0,1,0.1c0.1,0,0.7-0.2,0.9-0.1c0.2,0,0.7,0.2,1.1,0.1
			c0.7-0.1,1.5-0.1,2.1-0.1c0.2,0,0.5,0.1,0.5,0.1c0.3,0,1.1-0.2,1.4-0.1c0.3,0,0.8,0.1,1.1,0.1c2.6-0.6,6.6-0.2,9.5-0.9h1.6
			c1-0.2,2.2-0.1,3.3-0.4h1.7c1.4-0.3,3,0.1,4.5-0.2c0.6,0,1.2,0,1.8,0.1c0.7-0.2,1.9,0,2.9-0.2c0.8-0.2,2.3-0.1,3.7-0.4
			c0.5-0.1,1.3,0.1,1.5,0c0.2,0,0.5-0.2,0.7-0.2c0.4,0,0.9,0,1.3,0.1c0.1,0,0.6-0.2,0.7-0.2c1.7,0.1,3.2,0.4,4.8,0.1
			c0.2,0,0.3,0,0.5,0.1c1.1,0.1,1.8,0.1,2.6,0.1c0.4,0,0.8-0.1,1.2-0.1c0.3,0,0.7,0.3,1.1,0.2c0.5-0.1,1.5-0.2,2.1-0.1
			c0.1,0,0.4,0.2,0.5,0.1c0.7-0.1,2.4,0,3.4,0.2c0.4,0,0.8,0,1.2-0.1c0.5,0.1,1.3,0.2,1.9,0.2h1.5c0.6,0.2,1.6,0.1,2.2,0.2
			c1.3,0.2,2.8,0.3,4,0.6c0.5,0.1,0.7-0.1,1-0.2c0.3-0.1,2.5,0.3,2.9,0.4c0.4,0.1,0.9,0.5,1.2,0.6c1.1,0.4,2.1,0.5,3.2,0.7h0.5
			c0.8,0.3,1.7,0.7,2.5,1c0.3,0,0.6,0,0.9,0.1c1.4,0.4,2.9,0.9,4.2,1.5c0.7,0.3,1.3,0.2,2,0.4c0.5,0.2,1,0.6,1.5,0.8
			c0.2,0,0.3,0,0.5,0.1c1.4,0.6,2.8,1.4,4,2.1c0.5,0.3,1.2,0.4,1.7,0.7c1.1,0.6,2.2,1.3,3.2,1.9c0.4,0.2,0.8,0.2,1.2,0.5
			c0.1,0.1,0.2,0.3,0.4,0.4c0.3,0.2,0.7,0.3,1,0.5c0.2,0.2,0.4,0.4,0.6,0.6c0.6,0.4,1.2,0.6,1.8,1.1c0.2,0.2,0.4,0.6,0.6,0.8
			c0.2,0.2,0.6,0.3,0.8,0.5v0.2c0.2,0.1,0.3,0.2,0.5,0.3c0.1,0.1,0.2,0.4,0.4,0.5c0.2,0.1,0.4,0.2,0.5,0.3c0.2,0.1,0.5,0.7,0.6,0.8
			h0.2c0.2,0.2,0.4,0.4,0.6,0.7c0.2,0.2,0.5,0.2,0.7,0.4c0.2,0.2,0.1,0.5,0.3,0.7c0.2,0.3,0.8,0.4,1,0.7c0.3,0.5,0.4,1.1,0.7,1.6
			c0.2,0.3,0.6,0.4,0.8,0.7c1.5,0.1,0.8-0.2,1.2-1c-0.1-0.4-0.3-0.4-0.4-0.8c0.6-0.5,1.6-1,2.3-1.3c0.3,0,0.5,0,0.8-0.1
			c0.7-0.3,1.4-0.9,2.2-1.1c1-0.3,2.1-0.3,3.2-0.1c0.5,0,0.9-0.1,1.4-0.1c3.2,0.8,5.8,2.5,6.8,5.4c0.2,0.7,0,1.3,0.1,1.8
			C544.1,262.8,541.6,267.2,539.9,268.5z M531,262.2c-0.4-1.2-1.4-2-1.8-3.2c0.4-0.3,0.9-0.4,1.4-0.7c1.4-0.7,3.4-1.6,5.3-1.2
			c0.1,0,0.3-0.1,0.4-0.1c0.2,0.1,0.5,0.4,0.7,0.4h0.5c0.5,0.2,1.4,0.9,1.7,1.3c0,0.1,0,0.2,0.1,0.3h0.1c0.6,0.7,0.8,1.7,0.7,2.8
			c-1.4,0.2-2.8-0.6-4.3-0.2c-0.9,0.2-1.6,0.6-2.2,1c-0.7,0.4-1.4,0.3-1.8,1h-0.5C531.6,263,531.1,262.7,531,262.2z M538,266.3
			c-0.4,1.1-2.6,2.9-4,3c-0.1-0.4-0.6-1.8-0.7-1.9c0.3-0.3,2.6-0.9,3.2-1.1c0.3-0.1,0.8-0.2,1-0.1
			C537.7,266.2,537.9,266.3,538,266.3z M532.4,269.6c-0.3,0-0.5-0.1-0.7-0.2h-0.1c0.1-0.2,0.2-0.6,0.4-0.7v-0.1l0.2,0.2
			C532.3,269.1,532.3,269.3,532.4,269.6z M544,269.8c0,0.6,0.1,1.2,0,1.6c-0.1,0.6,0,1.5-0.3,2c-0.1,0.1,0,0-0.1,0.1
			c-0.4-1-0.3-2-0.7-3c-0.2-0.5-0.7-1.1-0.9-1.7c0.7-0.6,1.4-1.8,1.6-2.6c0.4,0.5,0.7,2.9,0.3,3.4
			C543.9,269.8,544.2,269.6,544,269.8z M327.5,257.8c-0.4-0.4-0.7-0.7-1.1-1.1c-0.6-0.4-3.2-1-4.3-1c-0.5,0.3-1.2,0.2-1.5,0.7
			c-1.9,2.8-1.4,6.7,0.3,9.7c0.3,0.5,1.5,1.5,2,1.8c0.2,0.1,0.5,0.1,0.7,0.2c0.2,0,0.4,0,0.5-0.1c0,0,0.1,0,0.1-0.1v-0.1
			c-1.1-0.7-2.1-1.6-2.8-2.7c-0.4-0.6-0.6-2.1-0.9-2.4v-0.1c1.3,0,2.9,0.2,4.1-0.4c0.3-0.1,0.6-0.5,0.9-0.7c0.5-0.3,1-0.5,1.5-0.8
			c0.5-0.3,0.9-1,1.5-1.2c0.2,0,0.4,0,0.7-0.1c0.2-0.1,0.3-0.2,0.5-0.3c0-0.2,0-0.1,0.1-0.2C329.5,258.2,328.1,258.2,327.5,257.8z
			 M324,261.3C324,261.2,324,261.2,324,261.3c0.1-0.8,0.3-2.1-0.1-2.7c-0.3-0.4-0.7-0.6-0.9-1.2c0.9,0.1,1.6,0.5,2.4,0.9
			c0.3,0.1,0.6,0.1,0.9,0.2c0.3,0.2,0.6,0.5,1,0.7C327.1,259.6,324.7,261.1,324,261.3z M326.9,262.4c-0.3,0.2-1.2,0.6-1.5,0.7
			c-0.1,0-0.3,0-0.4-0.1c0,0.1,0,0.1-0.1,0.2c-0.2,0.1-0.5,0.3-0.7,0.4c-0.4,0.1-1.2,0.1-1.3-0.1c-0.5,0-0.7,0.3-1,0.5
			c0.1,0.3,0.2,0.4,0.5,0.5c0.5,0.3,1.4,0,1.8-0.1c0.8-0.3,1.5-0.4,2.2-0.8c0.3-0.2,0.6-0.5,0.9-0.7
			C327.2,262.5,327.2,262.5,326.9,262.4z M365.6,291.7c-0.9-2.5-1.1-5.4-1.8-8.1c-0.3-1.1-0.1-2-0.3-3c-0.3-1.4,0.3-3.1,0-4.3v-2.4
			c-0.2-1.2,0.1-3.1,0.4-4.3c0.2-0.7,0-1.2,0.2-2c0.1-0.5,0.6-3.3,0.4-3.8c-0.1-0.3-0.4-0.6-0.5-0.8h-0.4c-0.3,0.5,0.2,1,0.1,1.7
			c0,0.5-0.4,1.4-0.4,1.9c-0.1,0.7-0.1,1.7-0.3,2.6c-0.2,0.8-0.3,1.8-0.5,2.7c-0.1,0.5,0.1,0.8,0.1,1c0,1.4,0,2.7,0.1,4.1
			c-0.4,2.5,0,6,0.6,8.2c0,0.3,0,0.7,0.1,1c0.1,0.5,0.3,1.2,0.4,1.7v0.7c0.4,1.6,1,3.2,1.5,4.6c0.5,1.1,0.8,1.9,1.3,2.9
			c0.5,0.8,1.3,1.6,1.8,2.4c0.2,0.4,0.4,1.9,1.4,1.4h0.1c0-0.3,0-0.5,0.1-0.8c-0.2-0.5-1-1.3-1.3-1.8
			C367.6,295.6,366.3,293.7,365.6,291.7z M268.2,270h0.1c0,0.1,0,0.3-0.1,0.4c0.2,1.2,0.8,2.2,1.5,2.9c0.2,0.2,0.2,0.5,0.4,0.7
			c0.4,0.2,1,0.1,1.5,0.1c0.3-0.3,0.7-0.5,0.9-1c1-2.5-1.6-5-2.6-6.3h-0.7c-0.3,0.3-0.8,0.6-1,1.1c0,0-0.1,1.3-0.1,1.5
			C268.2,269.5,268,269.7,268.2,270z M357.4,267.2H357c-0.2,0.6-0.1,1.4,0,2.1c0,0.3,0,0.6-0.1,0.9c0.1,0.8,0,1.5,0.1,2.1
			c0.1,0.8-0.2,2-0.1,2.9c0.1,0.8-0.2,1.9-0.1,2.8c0.1,1.1,0.1,3-0.1,4.3v1.2c-0.1,0.5-0.1,1.2-0.2,1.8c-1.3,5.3-3.3,7.9-7.1,10.7
			c-1.1,0.8-1.8,2.1-2.9,2.8c-0.3,0.2-0.7,0.1-1,0.2c-0.5,0.2-1.2,0.6-1.7,0.8c-0.3,0-0.6,0-1,0.1c-0.4,0.1-0.9,0.4-1.2,0.6
			c0,0.4,0.1,0.4,0.2,0.7c1.4,0.3,2.2-0.6,3.2-1c0.6-0.1,1.2-0.3,1.8-0.4c1.1-0.6,1.9-1.9,2.8-2.7c0.7-0.7,1.7-1.1,2.5-1.8
			c0.6-0.4,1-1.2,1.5-1.8c0.4-0.5,1-0.9,1.3-1.5c1-1.5,1.8-3.3,2.3-5.3c0.3-1,0.3-2,0.5-3c0.1-0.6-0.1-1,0.2-1.5
			c-0.3-0.5,0-1.3-0.1-1.8c0-0.1-0.1-0.3-0.1-0.5c0.2-0.6,0.2-4.1,0-4.9c-0.1-0.4,0.2-0.8,0.1-1.2
			C357.7,271.8,358.3,268.7,357.4,267.2z M263.1,270.2c0.4,1.7,1.1,2.7,1.8,3.9c0.3,0.1,0.8,0.3,1.1,0c0.4-0.2,1.1-1.9,0.8-2.8
			c-0.4-1.3-1.2-2.3-1.8-3.4c-0.3-0.1-0.4-0.1-0.8-0.1c-0.3,0.2-0.7,0.4-1,0.7c-0.1,0.1,0,0.2-0.1,0.3
			C263.2,269,263,269.7,263.1,270.2z M530.1,276.7c0.5,0,0.5-0.1,0.8-0.2c0-0.3,0-0.6-0.1-1c-0.2-0.1-0.6-0.4-0.8-0.7h-0.7
			c-0.1,0.1-0.2,0.2-0.3,0.2c0,0.2-0.1,0.4-0.1,0.4c0.1,0.4,0.4,0.6,0.5,1C529.8,276.5,529.9,276.6,530.1,276.7z M409.8,293.3
			c-0.2-0.8-0.2-2.2-0.4-3.4c-0.1-0.4,0-0.9,0-1.1c-0.4-2.1-0.5-4.1-1.1-6c-0.2-0.6-0.1-1-0.3-1.7c-0.3-0.8-0.9-2.1-1.4-2.9
			c-0.3-0.3-0.6-0.6-1-1c-0.5,0-0.5,0.1-0.7,0.3c0.1,0.7,1,1.6,1.3,2.1c0.7,1.2,1,3.1,1.5,4.4v0.6c0.2,0.7,0.3,1.7,0.5,2.4
			c0,0.5,0,1,0.1,1.5c0.1,0.5,0.2,1.8,0.4,2.6c0,0.2,0,0.4-0.1,0.7c0.2,0.6,0.4,2.9,0.3,3.7c0,0.1,0.1,0.4,0.1,0.5
			c0,0.3-0.1,0.7-0.1,1c0,0.1,0.2,0.5,0.1,0.7c-0.1,0.5,0,1.1-0.1,1.7c-0.1,0.5-0.3,0.8-0.3,1.5c0.2,0,0.3,0,0.4,0.1
			c0.9-0.1,0.6-0.9,0.8-1.7c0.2-1,0.2-3.1,0-4.2C409.9,295,410,293.8,409.8,293.3z M530.3,282c0-0.1,0-0.1,0.1-0.1
			c0-1-0.6-1.4-1.5-1.4C527.7,281.4,529.2,282.8,530.3,282z M524.5,282.7c0.2,0.1,0.4,0,0.6,0.1c0.2-0.1,0.1-0.1,0.4-0.1
			c0.1-0.3,0.1-0.6,0.1-0.9c-0.7-0.4-0.6-0.6-1.5-0.7C523.3,281.7,523.7,282.4,524.5,282.7z M522.3,289c-0.1-0.5-0.5-0.9-0.9-1
			c-0.1-0.1-0.5-0.1-0.7-0.1c0,0-0.1,0.1-0.1,0.1c-0.1,0.1-0.1,0.2-0.1,0.2c0.1,0.7,0.5,0.8,1,1.2
			C522.2,289.4,521.8,289.2,522.3,289z M525.3,288.5c-0.1-0.1-0.1-0.1-0.3-0.1c-0.2,0.1-0.5,0.2-0.7,0.3c0,0.7,0.3,0.9,0.5,1.3
			l0.7,0.2c0.4,0,0.4-0.1,0.7-0.2c0-0.1,0-0.1,0.1-0.1C526.3,289.1,525.9,288.7,525.3,288.5z M525.3,292.1c-0.1-0.1-0.1,0-0.2-0.1
			v-0.2c-0.7-0.2-1-0.2-1.3,0.3c0.1,0.9,0.7,0.6,1,1.1c0.5,0,0.4-0.2,0.7-0.3c0-0.2,0-0.2,0.1-0.3
			C525.5,292.3,525.5,292.3,525.3,292.1z M522.5,293.5h-0.7c-0.1,0.1-0.3,0.2-0.4,0.3c0,0.9,0.3,1,0.7,1.5c0.2,0,0.2,0,0.3,0.1
			c0.6,0,1,0,1.1-0.4C523.7,294.4,522.8,293.8,522.5,293.5z M469.6,295c-0.4-0.3-0.6-0.6-1.4-0.6c-0.1,0.1-0.1,0.1-0.2,0.1
			c0,0.3,0,0.3,0,0.7c-2,0.9-4,2.1-5.9,3.3c-0.3,0.2-0.6,0.2-1,0.4c-1.7,1.1-3.5,1.9-5.3,2.8c-1,0.4-2,1.1-3,1.5
			c-0.8,0.3-1.4,0.3-2.3,0.6c-1.6,0.6-3.5,1.1-5.3,1.6h-0.7c-0.7,0.2-1.6,0.2-2.4,0.4c-0.9,0.2-2-0.2-2.8-0.1
			c-2.7,0.1-6.1-0.3-8.7-1c-1.2-0.3-2.7-0.2-3.9-0.4c-0.2,0-0.4,0-0.6,0.1c-0.8-0.2-1.6-0.3-2.5-0.6c-1.5-0.5-3.2-0.6-4.7-0.9
			c-0.5-0.1-1.6-0.5-2.1-0.1c0,0-0.1,0-0.1,0.1c0,1.2,2.5,1,3.5,1.3c1.8,0.5,4.1,0.8,5.8,1.2c1.5,0.3,3,0,4.5,0.4
			c1.3,0.3,2.6,0.4,3.7,0.7c1.9,0.5,4.2,0.2,6.1,0.4c0.6,0.1,1.4-0.1,1.8-0.1c1,0.2,2.4-0.2,3.5-0.5c0.2,0,0.3,0.1,0.4,0.1
			c1.4-0.4,3.2-0.9,4.5-1.4c0.3-0.1,0.8,0.1,1,0c1.8-0.9,3.8-1.6,5.6-2.5c0.6-0.3,1.2-0.7,1.8-1.1c0.3-0.2,0.9-0.2,1.2-0.4
			c0.2-0.1,0.4-0.4,0.5-0.4c1.1-0.6,2.3-1,3.4-1.7c0.3-0.2,0.5-0.5,0.8-0.7c1.7-0.9,3.4-1.7,4.9-2.6
			C469.6,295.1,469.6,295.2,469.6,295z M357.4,294.7H357c-0.1,0.2-0.3,0.3-0.4,0.5c-0.1,0.1-0.1,0.4-0.1,0.4c0,0.6,0.2,0.5,0.4,0.8
			c0.2,0,0.4,0,0.5-0.1c0.3-0.1,0.3-0.5,0.5-0.7c0-0.2,0-0.2-0.1-0.3C357.8,295,357.5,294.9,357.4,294.7z M334.7,297.7
			c-0.1,0.3-0.2,0.8-0.3,1c0,0.5,0.1,0.5,0.3,0.8c0.3,0,0.6,0,0.7-0.1c0.5-0.6-0.2-1.3-0.4-1.6H334.7z M360.9,297.9
			c-0.2,0.3-0.4,0.6-0.6,0.9c0,0.4,0.1,0.7,0.3,1c0.1,0.2,0.2,0.2,0.4,0.3c0.2,0,0.4-0.1,0.5-0.1c0.4-0.2,0.3-0.9,0.3-1.4
			C361.5,298.2,361.3,298.1,360.9,297.9z M519.8,298.3c-0.4-0.1-0.6-0.2-1-0.2c-0.1,0.1-0.2,0.1-0.2,0.1c-0.2,0.1-0.1,0.1-0.3,0.1
			c0.2,0.5,0.3,0.7,0.5,1.1c0.1,0.1,0.4,0.1,0.7,0.2c0.4-0.1,0.5-0.2,0.7-0.4c0-0.2,0-0.2-0.1-0.3
			C520.2,298.6,520,298.6,519.8,298.3z M470,300.3c0.1,0.1,0.4,0.2,0.6,0.2c0.2-0.1,0.3-0.2,0.5-0.4c0-0.4-0.1-0.8-0.1-1.2
			c-0.3-0.1-0.4-0.2-0.5-0.4h-0.3C469.9,298.9,469.6,299.8,470,300.3z M327.8,299.7h-0.4c-0.1,0.3-0.2,0.9-0.3,1
			c0,0.3,0.1,0.4,0.2,0.6c0.2,0,0.4,0.1,0.6,0.1c0.1-0.1,0.2-0.2,0.4-0.4c0-0.3,0-0.8-0.1-1C328.2,299.9,328,299.9,327.8,299.7z
			 M356.9,300.3c-0.1-0.1,0,0-0.1-0.1c-0.4,0.4-0.9,1.3-0.4,1.9c0,0.1,0,0.1,0.1,0.2c0.5,0,0.6-0.1,0.9-0.2c0.1-0.5,0.2-0.7,0.1-1.2
			h-0.3C357.2,300.5,357.1,300.4,356.9,300.3z M337.1,300.7c0,0-0.1,0.1-0.1,0.1c-0.4,0.2-0.2,0.7-0.4,1c0.1,0.4,0.2,0.4,0.3,0.7
			c0.2,0,0.6,0,0.8-0.1c0.2-0.3,0.2-0.6,0.1-1C337.6,301.2,337.4,300.9,337.1,300.7z M466,302.7c0.3,0,0.5,0,0.7-0.1h0.1
			c0.1-0.4,0.2-0.8,0.1-1c-0.1-0.4-0.3-0.4-0.4-0.7c-0.1,0-0.3,0-0.4-0.1c-0.1,0.1-0.2,0.2-0.3,0.2c0,0.6,0,0.9,0,1.4
			C465.8,302.5,465.9,302.6,466,302.7z M356.1,302.7c-0.2-0.4,0.1-0.9-0.1-1.3c-0.1-0.2-0.4-0.2-0.5-0.5H355
			c-0.3,0.6-0.9,2.6,0.4,2.3v0.1c0.1,0.1-0.1,0.9-0.1,1c0,0.5,0.3,0.5,0.5,0.7c0.5,0,0.7-0.2,0.9-0.4c0-0.1,0.1-0.7,0-0.8
			C356.7,303.2,356.3,303.1,356.1,302.7z M414.9,301h-0.2c-0.2,0.3-0.3,0.6-0.5,0.9c0,0.4,0.1,1,0.3,1.2c0.1,0.1,0.4,0,0.4,0.1
			c0.6-0.1,0.6-0.8,0.6-1.5L414.9,301z M348.1,301.1c-0.1,0.1-0.2,0.1-0.2,0.1c-0.3,0.3-0.5,1.2-0.3,1.5c0.1,0.2,0.2,0.3,0.3,0.4
			c0.7,0,0.7-0.2,1-0.5C349,301.8,348.8,301.3,348.1,301.1z M319.6,301.3c-0.1,0.4,0,0.6-0.2,0.8c0,0.4,0.1,0.4,0.4,0.5
			c0.1,0.1,0.1,0,0.4,0c0.2-0.5,0.1-0.9-0.1-1.3L319.6,301.3L319.6,301.3z M351.7,302c-0.2,0.4-0.3,0.7-0.6,1c0.1,0.4,0.3,0.7,0.4,1
			c0.2,0,0.3,0,0.4-0.1c0.4,0,0.4-0.1,0.6-0.3c0-0.2,0-0.2,0.1-0.3c0-0.8-0.2-0.9-0.5-1.4H351.7z M323,302.3l-0.4,0.4
			c0,0.4-0.1,0.8,0,1.2c0.2,0.1,0.3,0.2,0.4,0.3c0.2,0,0.3,0,0.4-0.1c0.2-0.1,0.3-0.2,0.4-0.4c0.1-0.1,0.1-0.4,0-0.6
			C323.7,302.7,323.4,302.4,323,302.3z M516.5,302.4c-0.3,0-0.3,0-0.4,0.2c-0.1,0.1,0,0.4-0.1,0.4c0.1,0.4,0.4,0.4,0.6,0.7
			c0.4,0,0.6,0,1,0c0-0.4,0.1-0.6-0.1-0.9C517.4,302.5,516.8,302.3,516.5,302.4z M460,302.4c-0.3,0.3-0.5,0.6-0.6,1.2
			c0.2,0.2,0.3,0.6,0.4,0.8c0.2,0,0.5,0,0.6-0.1c0.3-0.1,0.2-0.1,0.4-0.2c0-0.4,0-0.6,0.1-0.9c-0.2-0.2-0.4-0.5-0.7-0.7
			C460.2,302.5,460.2,302.5,460,302.4z M332.7,302.7c-0.1,0.1-0.1,0-0.2,0.1c-0.1,0.3-0.2,0.7-0.4,1c0,0.6,0.2,0.7,0.4,1
			c0.2,0,0.5,0,0.6-0.1c0.3-0.1,0.3-0.4,0.5-0.7c-0.1-0.3-0.2-0.4-0.2-0.8C333.1,303.1,333.1,302.9,332.7,302.7z M404.7,302.8
			c-0.1,0.1-0.1,0.1-0.2,0.1c-0.1,0.5-0.2,1-0.1,1.7c0.2,0.1,0.4,0.3,0.5,0.4c0.9,0,0.6-0.5,1-0.9c0-0.7-0.4-0.8-0.5-1.3
			C405.2,302.8,405,302.8,404.7,302.8z M466.8,304.4c-0.2,0-0.4,0-0.5,0.1c-0.3,0.1-0.5,0.6-0.6,0.9c-0.3-0.2-0.3-0.4-0.5-0.6
			c-0.2-0.1-0.3,0.1-0.6,0c-0.2-0.1-0.3-0.5-0.4-0.6c-0.1-0.1-0.5-0.1-0.6-0.1c-0.1-0.1,0-0.4-0.1-0.6c-0.1-0.2-0.4-0.3-0.5-0.5
			c-0.1,0-0.2,0-0.4-0.1c-0.4,0.6-0.4,1.3,0.1,1.9c0.4,0,0.6-0.1,0.7-0.4h0.1c-0.1,0.4-0.1,0.8,0.1,1.2c0,0.1,0.1,0.1,0.1,0.2
			c0.2,0,0.2,0,0.4-0.1c0.2,0.5,0.3,0.8,0.5,1.2c0.1,0,0.3,0,0.4,0.1c0.3-0.3,0.6-0.4,0.7-0.9c0.2,0.1,0.3,0.2,0.4,0.4
			c0.6,0,1-0.2,1.2-0.7c0,0,0-0.5,0-0.7C467.2,304.8,466.9,304.6,466.8,304.4z M469.8,302.8c-0.1,0.4-0.4,0.3-0.5,0.5
			c-0.5,0.8,0.1,1.4,0.4,1.9c0.3,0.1,0.5,0.1,0.7-0.1c0.2-0.1,0.2-0.2,0.3-0.4c0.3-0.5-0.3-1.5-0.6-1.9L469.8,302.8L469.8,302.8z
			 M467.8,304.1c-0.3,0.7-0.3,1.3,0.1,1.9c0.5,0,0.6-0.2,0.9-0.3c0-1.1-0.2-0.9-0.4-1.6H467.8z M458,305.5c0-0.7-0.9-1.2-1.6-1.2
			c-0.1,0.1-0.2,0.3-0.3,0.4c0,0.2,0,0.2,0.1,0.3c-0.1,0.1-0.1,0.1-0.2,0.1c0,0.7,0.2,0.7,0.4,1.2h1
			C457.6,306.2,458.2,305.9,458,305.5z M459.5,304.5h-0.4c-0.1,0.2-0.2,0.2-0.2,0.3c0.1,0.3,0.1,1,0.1,1.4c0.2,0.1,0.4,0.2,0.7,0.3
			c0.1-0.1,0.3-0.2,0.4-0.4c0-0.2,0-0.3,0.1-0.4C460.2,304.9,459.7,305.1,459.5,304.5z M421.1,304.9c-0.1,0.6-0.2,0.9-0.1,1.6
			c0.2,0,0.3,0,0.4,0.1c1,0,0.6-0.4,1-1c-0.1-0.4-0.3-0.7-0.4-1C421.5,304.7,421.4,304.8,421.1,304.9z M454.1,304.9
			c-0.2,0.2-0.4,0.3-0.6,0.5c0,0.3,0.1,0.8,0.2,1c0.1,0.4,0.3,0.4,0.5,0.6c0.5,0,0.7-0.2,0.7-0.6c0.2-0.5-0.3-1.1-0.5-1.5
			L454.1,304.9L454.1,304.9z M405.1,305.9c-0.2-0.1-0.6-0.1-0.9-0.1c-0.1,0.1-0.2,0.2-0.4,0.3v0.8c0.3,0.3,0.6,0.5,0.9,0.7
			c0.5,0,0.6-0.2,1-0.3c0-0.2,0-0.3,0.1-0.4C405.7,306.4,405.5,306,405.1,305.9z M512.5,306.2c-0.3,0.2-0.4,0.2-0.7,0.4
			c0,0.4,0.2,0.8,0.3,1c0,0.1,0,0.1,0.1,0.2c0.6,0,1,0.2,1.3-0.1c0.1,0,0.1-0.1,0.2-0.1c0-0.2,0-0.3-0.1-0.5
			C513.4,306.7,513.1,306.3,512.5,306.2z M458.7,306.8h-0.5c-0.1,0.2-0.2,0.4-0.4,0.6c0,0.4,0.1,0.7,0.1,1.1
			c0.2,0.1,0.3,0.2,0.4,0.3c0.5,0,0.5-0.2,0.8-0.4c0.1-0.3,0-0.5,0-1C459,307.2,458.8,307,458.7,306.8z M401.6,307.4
			c-0.2,0.1-0.4,0.2-0.6,0.4c0,0.2,0,0.4-0.1,0.5c0,0.7,0.3,0.8,0.6,1.2c0.4,0,0.7,0,0.9-0.1c0.1-0.4,0.2-0.7-0.1-1
			C402.3,307.8,402.1,307.5,401.6,307.4z M400.9,312.3c-0.2,0.2-0.5,0.4-0.7,0.5c0,0.1,0,0.1-0.1,0.1c0,0.5,0.3,0.9,0.7,1
			c0.2,0.2,0.9,0.2,1.1,0c0.1,0,0.1,0,0.2-0.1c0-0.1,0-0.1,0.1-0.1c0-0.8-0.5-1-0.8-1.5L400.9,312.3L400.9,312.3z M506.2,312.7
			c-0.7,0.2-0.1,1.2,0.3,1.3c0.4,0.3,0.8,0.1,1.2,0c0-0.3,0.1-0.5,0-0.7C507.5,313,506.7,312.3,506.2,312.7z M398.4,316.4
			c-0.1,0.1-0.1,0-0.2,0.1c-0.1,0.1-0.1,0.2-0.1,0.2c0,0.7,0.4,0.9,0.8,1.2c0.3,0,0.3-0.1,0.5-0.2c0-0.6-0.3-0.9-0.6-1.2
			C398.7,316.5,398.5,316.5,398.4,316.4z M395.3,321.3c-0.2,0.3-0.2,0.5-0.1,1c0.1,0.2,0.3,0.3,0.4,0.5c0.4,0.3,0.9,0.3,1.2,0.6
			c0.4,0,0.4-0.1,0.6-0.2C397.3,322,396.4,321.3,395.3,321.3z M391.1,322.6c-0.2,0-0.1,0-0.2,0.1c-0.3,0-0.3,0.1-0.5,0.1
			c0,0.1,0,0.1-0.1,0.1c0,0.8,0.4,1,0.8,1.3c0.3,0,0.4,0,0.6-0.1C391.7,323.2,391.2,323.3,391.1,322.6z M391.4,328.2
			c0,0.2,0,0.3-0.1,0.5c0.2,0.2,0.4,0.5,0.7,0.7c0.4,0,0.5,0,0.6-0.2c0.2-0.4-0.5-1.1-0.9-1.2C391.6,328.1,391.5,328.1,391.4,328.2z
			 M508.7,330.3c0,0.1-0.1,0,0,0.1c0,0.6,0.3,0.6,0.6,1c0.4,0,0.6,0,1,0c0.2-0.2,0.1-0.1,0.1-0.3h0.2c0-0.2,0.1-0.4,0-0.6
			c-0.1-0.3-0.4-0.5-0.7-0.6c-0.2-0.2-0.7-0.2-1,0C508.8,330,508.8,330.1,508.7,330.3z M499.1,333.5c-0.2,0.1-0.6,0.1-0.7,0.2
			c-0.1,0-0.1,0.1-0.2,0.1c0,1,0.4,0.9,0.9,1.4c0.6,0,0.9,0,1.2-0.2c0-0.3,0.1-0.7-0.1-0.9c-0.1-0.3-0.4-0.5-0.7-0.6
			C499.3,333.5,499.3,333.5,499.1,333.5z M386.3,335.8c1.1,0,0.7-1.1,0.4-1.6c-0.4,0-0.8,0-1.1,0.1
			C385.5,335.4,385.7,335.2,386.3,335.8z M382.9,335.4c-0.1-0.1-0.2-0.1-0.4-0.1c-0.2,0.2-0.4,0.3-0.4,0.8c0.3,0.3,0.6,0.7,0.9,1
			c0.4,0,0.4-0.1,0.6-0.2c0-0.2,0.1-0.4,0.1-0.7C383.5,336,383.4,335.6,382.9,335.4z M508.5,338.8c0.5,0,1.8-0.1,1.2-0.9
			c-0.1-0.3-0.4-0.3-0.6-0.6c-0.4,0-0.4,0-0.8,0c-0.1,0.1-0.4,0.2-0.5,0.3C507.8,338.4,508.1,338.4,508.5,338.8z M379.9,338.7
			c-0.1,0.1-0.1,0.1-0.2,0.1c0,0.1-0.1,0.2-0.1,0.3c0.1,0.6,0.5,0.7,0.8,1c0.4-0.1,0.4-0.2,0.6-0.4c-0.1-0.6-0.5-0.7-0.7-1.1H379.9z
			 M379,339.1c-0.2,0-0.4,0-0.6-0.1c-0.1,0.1-0.2,0.2-0.3,0.3c0.1,0.5,0.4,0.6,0.6,1.1c0.1,0,0.1,0,0.1,0.1c0.3,0,0.5-0.2,0.7-0.3
			c0-0.2,0-0.3-0.1-0.4C379.4,339.3,379.2,339.4,379,339.1z M389.8,340.8c-0.1,0.1,0,0.1-0.2,0.1c0,0.2-0.1,0.4-0.1,0.7
			c0.2,0.1,0.3,0.3,0.4,0.5c0.2,0,0.3,0.1,0.4,0.1c0.4,0,0.6,0,0.8-0.1C391.1,341.4,390.5,340.8,389.8,340.8z M491.9,342.2
			c-0.1,0.2-0.2,0.3-0.1,0.4c0,0.6,0.3,0.6,0.7,0.8c0.3,0,0.5,0,0.7-0.1c0-0.2,0-0.3,0.1-0.5c-0.2-0.2-0.4-0.4-0.5-0.7L491.9,342.2
			L491.9,342.2z M505.6,342.2c-0.2,0.2-0.5,0.3-0.7,0.4c0,0.5,0,0.7,0.3,1c0.2,0.2,0.6,0.2,0.8,0.3c0.4,0,0.6-0.2,0.7-0.6
			c0.1-0.2,0.1-0.4-0.1-0.6C506.5,342.5,506.1,342.3,505.6,342.2z M388.7,344.5c-0.1,0.1-0.1,0.3-0.2,0.4c0.1,0.3,0.2,0.3,0.4,0.5
			c0.4,0,0.5-0.1,0.7-0.1c0,0,0,0,0.1-0.1C389.6,344.8,389.1,344.5,388.7,344.5z M376.3,346c-0.1-0.1-0.1-0.1-0.3-0.1
			c-0.1,0.1-0.2,0.2-0.3,0.2c0,0.2,0,0.2-0.1,0.4c0.2,0.2,0.4,0.5,0.5,0.7c0.1,0,0.1,0,0.1,0.1c0.4,0,0.5,0,0.7-0.1
			c0-0.2,0-0.2,0.1-0.4C376.8,346.5,376.7,346.1,376.3,346z M370.3,355.3l-0.4,0.4c0.1,0.4,0.3,0.4,0.4,0.6c0.3,0,0.4,0.1,0.6,0
			c0.1,0,0.1,0,0.2-0.1c0-0.2,0-0.3-0.1-0.4C370.9,355.4,370.7,355.4,370.3,355.3z M372.6,356.2c-0.3,0.3-0.5,0.4-0.6,0.9
			c0.3,0.2,0.5,0.5,0.8,0.7c0.3,0,0.4-0.1,0.6-0.2C373.4,357.1,373.1,356.4,372.6,356.2z"/>
	</g>
</g>
</svg>
