<?xml version="1.0" encoding="utf-8"?>
<!-- Generator: Adobe Illustrator 21.0.0, SVG Export Plug-In . SVG Version: 6.00 Build 0)  -->
<svg version="1.1" id="Calque_1" xmlns="http://www.w3.org/2000/svg" xmlns:xlink="http://www.w3.org/1999/xlink" x="0px" y="0px"
	 viewBox="0 0 841.9 595.3" style="enable-background:new 0 0 841.9 595.3;" xml:space="preserve">
<style type="text/css">
	.st0{fill:none;stroke:#DADADA;stroke-width:10;stroke-miterlimit:10;}
	.st1{fill:#1D1D1B;}
</style>
<path class="st0" d="M299.3,350.7c0,0,82.5,34.4,90,38.7c13.3-6.9,92.4-44.8,112.5-62"/>
<g>
	<g>
		<path class="st1" d="M505.7,313.8c0.3-1.1-0.3-2.4-0.2-4c0-0.4-0.3-0.4-0.4-0.6v-1.1c-0.2-0.8-0.9-1.5-0.4-2.1
			c-0.1-0.3-0.4-0.4-0.5-0.6c0.4-0.7,0-1.1-0.3-1.6c0.1-0.2,0.5-0.7,0.4-1c0-0.1-0.3-0.3-0.3-0.4v-0.8c-0.1-0.1-0.4-0.1-0.4-0.2
			c0.1-0.2,0.1-0.5,0.2-0.7c-0.4-1.3-0.5-3.9-0.4-5.3c0.1-0.7-0.1-1.3-0.2-1.7c-0.1-0.5,0.2-1.2,0.1-1.6c0-0.1-0.3-0.4-0.3-0.5
			c0.1-0.1,0.2-0.1,0.3-0.2c0.1-0.4-0.1-1.1-0.2-1.5c0-0.3,0.1-0.7,0.1-1c-0.1-0.4-0.4-0.9-0.5-1.4c-0.1-0.6,0.1-1.9-0.1-2.8
			c0-0.8,0.1-1.5,0.1-2.3c-0.1-0.5,0.1-1.6,0-2.2c-0.1-0.9-0.2-1.5-0.3-2.2c-0.1-0.5,0.2-0.9,0.1-1.3c-0.2-1.1,0.3-2.7-0.3-3.4
			c0.5-0.5,0-1.9,0.1-2.6c0.2-1-0.3-2-0.3-3.2c0-1.2,0.2-3-0.1-4.4c0.1-0.6,0.1-1.1,0.2-1.7c-0.1,0-0.2-0.1-0.3-0.1
			c-0.3-0.4,0.1-1.1,0-1.4c-0.1-0.3-0.3-0.9-0.5-1.3c0.4-0.8-0.3-3.9-0.5-4.6c0.1-0.1,0.1-0.1,0.2-0.2l-0.3-1.6
			c-1.2-3.1-0.7-6.8-1.7-10.7v-2c-0.2-0.7-0.3-2.1-0.6-2.5c0.1-0.1,0.4-0.7,0.4-0.7c-0.7-0.6-0.3-1.8-0.6-3.1
			c-0.1-0.6,0.2-1.8-0.1-2.8c-0.1-0.3-0.2-0.8-0.3-1.1c-0.2-0.8,0.2-1.9,0.1-2.3c-0.2-1-0.3-2-0.3-3.2c-0.7-0.7-1.4-1.5-2.4-1.9
			c-0.5-0.2-1.1,0-1.6-0.1c-0.8-0.1-2.1-0.4-2.9-0.7c-0.1-0.1-0.4-0.4-0.4-0.4h-0.4c-0.8-0.4-1.9-0.9-2.9-1.2
			c-0.7-0.2-1.7,0-2.2-0.2c-1.9-0.6-4.1-0.9-6.1-1.4h-1.1c-0.4-0.1-1.1-0.3-1.5-0.3h-1.6c-2.9-0.7-5.8-1.4-8.4-2
			c-1-0.2-1.8-0.1-2.7-0.4c-7.2-2.1-15.8-3-22.9-4.7l-4.5-0.3c-0.4,0-1.1,0.3-1.6,0.2c-1.8-0.5-4-1-5.9-1.5c-0.9-0.2-1.9,0.1-2.4,0
			c-2.6-0.5-5.7-1.2-8-1.7c-1.3-0.3-3.2,0-4.1-0.2c-0.7-0.2-4-1.3-4.8-1c-0.5,0.2-0.8,0.8-1.2,1c-0.7,0.3-1.3,0.3-2.1,0.5
			c-1,0.3-2.1,0.7-3.1,1.1c-2.3,0.9-4.5,2.5-6.8,3.5c-0.5,0.2-0.8,0.1-1.4,0.3c-0.9,0.3-2,0.9-2.9,1.2c-1,0.3-1.9,0.3-3,0.8
			c-1.2,0.5-2.7,1.2-3.9,1.7c-0.6,0.1-1.1,0.2-1.7,0.3c-2.1,0.9-4.5,1.9-6.6,2.8c-1.2,0.5-2.4,0.5-3.5,1c-1.8,0.8-4,1.7-5.9,2.3
			c-3.1,1-5.9,1.7-8.8,2.5c-0.8,0.1-1.5,0.1-2.3,0.2c-2.1,0.6-4.5,0.7-6.6,1.4h-1.1c-1.4,0.4-2.9,0.5-4.4,0.9
			c-3.5,1-7.2,1.9-10.8,2.9c-0.5,0-1.1,0.1-1.6,0.1c-2.9,0.9-6.4,1.5-9.2,2.5c-0.8,0.3-1.6,0.1-2.4,0.3c-1.5,0.4-3,0.9-4.4,1.3
			c-0.4,0.1-0.9,0.1-1.3,0.2c-1.9,0.9-4.3,1.7-6.3,2.4c-0.8,0.3-1.4,0.1-2.2,0.4c-0.7,0.2-1.5,0.7-2.2,1c-1,0.3-2.2,0.4-3,0.6
			c-1.9,0.6-2.4,1.8-4.8,0.8c-0.6-0.2-1.3-0.2-1.6-0.4c-0.6,0-0.6,0.2-0.9,0.5c0.1,0.5,0.6,0.9,0.6,1.5c0,0.6,0.2,1.8,0.1,2.3
			c-0.2,1.4-0.3,2.5-0.2,3.9c0.1,1-0.4,1.8,0.1,2.6c-0.3,0.5-0.3,0.7-0.2,1.3c0.1,0.8-0.1,2.6-0.2,3.2c-0.2,0.9,0.4,1.5,0.2,2.5
			c-0.1,0.3-0.3,1.1-0.2,1.4c0.5,2.2,0.2,4.8,0.6,6.8c0,0.5-0.1,0.9-0.1,1.4c0.1,0.2,0.2,0.9,0.2,1.2c0,0.1-0.2,0.5-0.1,0.8
			c0.2,0.7,0.2,2.3,0.1,3c0,0.4-0.1,0.8-0.1,1.2c0.1,0,0.3-0.1,0.2,0.1c-0.1,0.1-0.2,0.1-0.3,0.2c-0.1,0.4,0.2,1.4,0.1,1.8
			c0,0.2-0.3,0.4-0.2,0.7c0.1,0,0.1,0.1,0.2,0.1c-0.2,0.5-0.3,2.6-0.2,3.2c0.1,0.8,0.1,3.1-0.1,3.7c-0.2,0.6,0.5,1.5,0.3,1.9h-0.2
			c-0.3,0.8,0.1,2,0,2.8c0,0.4-0.2,0.9-0.1,1.3c0.1,0.5-0.4,0.7-0.2,1.1c0,0,0.4,1.7,0.4,1.9c-0.1,0.5-0.5,1.2-0.3,1.8
			c0.5,1.8,0.3,4,0.7,5.1c0.2,0.5-0.4,0.9-0.2,1.3c0.5,1.2-0.1,3.6,0.1,4.7c-0.2,0.1-0.2,0.1-0.4,0.1c0.1,0.2,0.2,0.2,0.3,0.3
			c0.3,0.6-0.2,1.3-0.2,1.7c0.1,0.1,0.1,0.2,0.2,0.3c-0.1,0.2-0.4,0.8-0.3,1.2l0.2,0.2c0,0.3-0.2,0.1-0.2,0.2c0,0,0.1,0.9,0.2,1.1
			c0,0,0.1,0.1,0.1,0.1c-0.1,0.5-0.4,1.4-0.2,2.3c0.2,0.7-0.1,1.5,0,2.1c0.2,1.3,0.1,3.7,0.2,5.2c0.1,0.5-0.2,1.5-0.2,2
			c0,0.9,0,1.6,0.1,2.6c0,0.6-0.3,0.8,0,1.4c-0.2,0.9-0.1,2.5-0.2,3.3c0,0.1-0.3,1-0.3,1c0.1,0.1,0.2,0.2,0.3,0.3
			c0.2,0.7-0.3,0.9,0,1.6c-0.3,0.8-0.3,4.2-0.1,4.6c-0.1,0.1-0.1,0.2-0.2,0.3c0.1,0.1,0.2,0.2,0.3,0.3c0.2,0.7-0.5,2.5,0,3.1
			c-0.1,0.6-0.4,0.5-0.7,0.8c0,0.2,0.5,1.2,0.8,1.8c0.6,0.2,1-0.1,1.7,0.1c0.4,0.1,1.1,0.4,1.6,0.6c0.4,0.2,0.9,0.6,1.3,0.8
			c0.7,0.3,1.5,0.4,2.1,0.8c0.2,0.2,0.5,0.5,0.8,0.6c0.6,0.3,1.2,0.4,1.8,0.7c0.2,0.1,0.5,0.5,0.7,0.6c0.6,0.3,1.2,0.1,1.8,0.4
			c2.3,1.1,5,1.4,7.6,2.3c2.2,0.7,4.4,1.9,6.4,2.8c0.6,0.1,1.1,0.3,1.7,0.4c1.2,0.5,2.3,1,3.6,1.5c0.8,0.3,1.5,1,2.2,1.4
			c0.3,0.1,0.7,0.1,1,0.2c0.8,0.4,1.8,1,2.7,1.4c0.7,0.3,1.4,0.4,2.1,0.7c0.8,0.3,1.5,1.1,2.2,1.5c0.5,0.2,1.1,0.3,1.6,0.5
			c0.9,0.4,2,0.9,2.9,1.4c0.9,0.5,1.6,1.4,2.5,1.8h0.4c0.6,0.2,1.2,0.8,1.8,1.1c0.4,0.1,0.7,0.2,1.1,0.3c1,0.7,2.4,1.4,3.5,1.9
			c1,0.4,2,0.8,2.9,1.1c0.3,0.1,0.7,0.1,1,0.2c0.4,0.2,0.8,0.7,1.2,0.9c0.4,0.3,0.9,0.3,1.3,0.5c1.1,0.5,2.2,1.2,3.3,1.7
			c1.8,0.8,3.9,1.3,5.8,1.9c0.9,0.3,1.8,0.3,2.6,0.7c0.9,0.4,1.8,1,2.6,1.4c3.4,1.5,6.6,2.7,9.6,4.6c0.3,0.3,0.6,0.6,0.9,0.9
			c0.4,0.3,0.9,0.5,1.3,0.8c0.3,0.3,0.6,0.7,0.9,1c0.7,0.4,1.6,0.3,2.3,0.7c0.4,0.2,0.7,0.8,1.2,1c1.5,0.6,5.3-0.8,6.4-1.5
			c0.2-0.1,0.4-0.5,0.7-0.6c0.3-0.1,0.6-0.1,0.9-0.2c0.5-0.2,1.4-1.3,2.1-0.9h0.2c-0.1-0.2,0-0.1-0.1-0.2c0.4-0.7,1.7-0.7,2.5-1.1
			c0.1-0.1,0.4-0.4,0.5-0.5c0.2,0,0.4-0.1,0.6-0.1c0.6-0.2,1.3-0.5,1.9-0.9c0.4-0.3,0.7-0.7,1.3-0.8v-0.3c1,0,2.7-0.7,3.4-1.1
			c0.2-0.2,0.3-0.4,0.5-0.6c0.4-0.1,0.8-0.1,1.2-0.2c0.1-0.1,0.2-0.3,0.3-0.4c0.3-0.1,0.6-0.1,0.9-0.2c0.2-0.1,0.5-0.6,0.8-0.7
			c0.5-0.2,1.1-0.1,1.5-0.4c0.1-0.1,0.1-0.3,0.2-0.4h0.4c0.2-0.1,0.3-0.4,0.6-0.5h0.5c0.1-0.1,0.2-0.3,0.3-0.4
			c0.2-0.1,0.5-0.1,0.7-0.2c0.3-0.2,0.9-0.6,1.2-0.8c0.3-0.2,0.7-0.1,1-0.3c0.1-0.1,0.2-0.3,0.3-0.4h0.4c0.3-0.1,0.7-0.5,1-0.7
			c0.3-0.1,0.6-0.1,0.9-0.2c0.3-0.3,0.5-0.5,0.8-0.8c0.5-0.2,0.9-0.1,1.4-0.3c0.4-0.2,0.9-0.7,1.4-0.9c0.2,0,0.5-0.1,0.7-0.1
			c0.7-0.4,1.6-1,2.3-1.5c0.3-0.2,0.7,0,1-0.2c0.4-0.2,0.9-0.6,1.3-0.8c0.2,0,0.4-0.1,0.6-0.1c1.2-0.6,2.3-1.8,3.7-2.1v-0.3
			c1.2-0.1,2-1.1,3.2-1.3v-0.3c0,0,0.1-0.1,0.1-0.1h0.5v-0.3c1,0,1.1-0.5,1.9-0.6v-0.3c1.5-0.1,3.5-1.6,4.5-2.3
			c0.4-0.3,1.2-0.4,1.7-0.6c0.5-0.2,0.9-0.7,1.4-0.9c0.3,0,0.5-0.1,0.8-0.1c0.3-0.1,0.6-0.6,0.8-0.7c0.6-0.4,1.2-0.4,1.9-0.7
			c0.4-0.2,0.8-0.7,1.2-0.9c0.5-0.2,1-0.1,1.5-0.3c1.2-0.5,2.3-1.5,3.3-2.2c0.4-0.3,1.3-0.2,1.7-0.5c0.3-0.2,0.2-0.4,0.6-0.5v-0.3
			c0.6-0.1,0.7-0.4,1.1-0.6c1.1-0.5,2.1-0.9,3.1-1.5c0.1-0.2,0.3-0.3,0.4-0.5c0.5-0.3,1.2-0.3,1.7-0.7c0.9-0.7,2-1.4,3-2
			c0.5-0.3,1-0.3,1.5-0.6c0.5-0.3,1-0.8,1.4-1.1h0.5c0.6-0.3,1.3-0.9,1.8-1.2c0.3-0.1,0.5,0,0.8-0.2c0.1-0.1,0.1-0.3,0.2-0.4
			c0.2-0.1,0.4-0.1,0.6-0.2v-0.2c0.4-0.3,1-0.3,1.4-0.5c0.2-0.2,0.5-0.5,0.7-0.7c1.4-0.8,2.9-1.4,4.1-2.3c0.5-0.4,1-0.3,1.6-0.6
			c0.1-0.2,0.3-0.3,0.4-0.5c0.5-0.3,0.8-0.5,1.2-0.8c0.2-0.1,0.5-0.1,0.7-0.2c0.1-0.1,0.1-0.3,0.2-0.4c0.3-0.3,0.7-0.3,1.1-0.5
			c0.4-0.2,0.6-0.7,1-1c0.8-0.6,1.7-1,2.6-1.6c0.2-0.2,0.4-0.6,0.6-0.8c0.2-0.2,0.5-0.2,0.8-0.4c0.1-0.1,0.1-0.3,0.2-0.4
			c0.5-0.5,1.2-0.7,1.8-1.1c0.6-0.4,1-1.1,1.6-1.5c1.2-0.9,2.5-1.4,3.7-2.3c0.5-0.4,1-1,1.5-1.3c0.2-0.1,0.4,0,0.6-0.2
			c0.6-0.5,1-1.2,1.6-1.7c0.3-0.2,1.2-0.5,1.4-0.8c0.1-0.1,0-0.4,0.1-0.5h0.3c0.2-0.2,0.4-0.7,0.6-0.8h0.4c0.3-0.2,0.7-0.6,0.9-0.9
			c0.3-0.5-0.1-0.9,0.2-1.4c0.2-0.4,0.8-0.7,1-1.1C506,315.1,505.5,314.4,505.7,313.8z M303,240c0.3-0.1,0.8-0.5,1.1-0.6
			c0.4-0.2,0.7,0,1.1-0.2c4.1-1.5,8.4-2.8,12.5-4.2c1-0.3,2.1-0.2,3.2-0.5c1.1-0.3,2.3-0.7,3.2-1c0.5-0.1,0.9-0.1,1.4-0.2
			c1.4-0.7,3-0.5,4.4-1c0.3-0.1,0.9-0.4,1.2-0.5c0.8-0.2,1.3,0.1,2.1-0.2c2.7-0.9,6.3-1.5,9.1-2.6c0.6-0.2,1,0,1.6-0.2
			c1.1-0.3,2.7-0.6,3.7-1c0.9-0.3,2.6-0.1,3.3-0.3c3-0.7,6.5-1,9.4-2c0.6-0.2,1.7-0.1,2.1-0.3c2.9-1.2,6.1-2.2,9-3.2
			c0.1,0,0.2,0.1,0.3,0.1c0.4-0.1,0.9-0.5,1.3-0.7c1.1-0.4,1.9-0.5,3-0.9c0.6-0.2,1.4-0.7,2-1c1-0.4,2-0.4,3-0.9
			c0.3-0.1,0.6-0.5,0.9-0.6c0.9-0.4,1.8-0.3,2.7-0.7c3.5-1.4,7.1-2.7,10.6-4h0.8c0.8-0.2,1.5-0.8,2.2-1.1h0.5
			c1.9-0.8,4.3-1.7,6.5-2.2c0.3-0.1,0.8,0.2,1.1,0.1c0.5-0.1,1-0.4,1.4-0.5c0.8-0.2,1.7,0.1,2.4,0.2v0.2c-1.2,0.3-2.3,0.9-3.3,1.5
			v0.7c1.5-0.1,2.7-1.1,3.9-1.5c0.7-0.1,1.3-0.1,2-0.2c0.7-0.4,2-0.5,2.7,0.1c0.2,0.1,0.1,0,0.2,0.1c-1,0.3-1.5,0.9-2.4,1.1
			c0,0.5,0.1,1,0.7,0.8c0.9-0.3,2-0.9,2.9-1.2h0.8c0.3-0.1,0.7-0.3,1.3-0.2c0.5,0.1,0.9,0.4,1.5,0.5c0,0-0.1,0.1-0.1,0.1
			c-0.1,0.3-2.1,1.1-2.4,1.3c-0.1,0.2,0,0.1-0.1,0.2c0,0.4,0.1,0.5,0.2,0.7c1.3-0.1,2.6-0.9,3.4-1.3c0.5,0.1,1.8-0.2,2.4-0.1
			c0.7,0.1,1.4,0.6,2.3,0.7v0.2c-1.3,0.3-2.1,0.8-2.9,1.6v0.3c1,0.2,1.6-0.4,2.6-0.7c2-0.7,5.7-1,7.2,0.3h0.1
			c-0.4,0.3-1,0.2-1.5,0.4c-0.6,0.3-1.3,0.7-1.9,1c0.1,0.4,0.2,0.5,0.3,0.8c0.9-0.1,1.2-0.5,1.9-0.7h1.3c0.6-0.2,1.2-1,1.8-1.2
			c1-0.4,2.9,0.3,3.4,0.8c0.1,0.1,0,0,0.1,0.2c-0.6,0.2-1.1,0.5-1.6,0.8c0.1,0.3,0.2,0.5,0.3,0.8c1,0,1.6-0.5,2.5-0.8
			c1.4-0.5,4.9,0.1,5.8,0.7c0.1,0.1,0,0,0.1,0.2c-1,0.4-1.6,0.6-2.3,1.1c0,0.3,0,0.4,0.1,0.6c1,0.2,1.6-0.4,2.4-0.8
			c0.9-0.4,3.8-0.9,4.6-0.3c0.1,0.1,0,0,0.1,0.2c-0.7,0.3-1.2,0.5-1.7,0.9c0,0.2,0,0.3-0.1,0.4c0,0.2,0,0.2,0.1,0.4
			c0.9,0,1-0.4,1.6-0.6c0.4-0.2,1-0.3,1.4-0.4h0.9c0.2-0.1,0.4-0.4,0.6-0.5c0.4-0.2,2.7,0.1,3.1,0.4c0,0,0.1,0.1,0.1,0.1h-0.1
			c-0.2,0.3-0.9,0.6-1.2,0.8c-0.1,0.1-0.1,0.3-0.2,0.4c0,0.3,0,0.4,0.1,0.6c0.9-0.1,1.4-0.5,2.1-0.8c0.7-0.3,1.7-0.4,2.3-0.5
			c1.3-0.3,2.5,0.5,3.2,0.3c-0.2,0.4-1.2,0.7-1.6,0.9c-0.1,0.2,0,0.1-0.1,0.2c0,0.5,0.1,0.5,0.3,0.8c1.3-0.2,2.6-1,3.9-1.4
			c0.9-0.3,1.7,0.2,2.5,0.2c0.3,0,1,0,1.3,0.3c0,0,0.1,0.1,0.1,0.1c-0.8,0.2-1.5,0.9-2.2,1.2c0,0.4,0.1,0.5,0.2,0.7
			c2.3-0.4,4.3-2.2,7.2-1.4c0.7,0.2,1.4,0.2,1.9,0.6c0.2,0.1,0.1,0,0.2,0.1c-1.3,0.3-2.2,0.6-3.1,1.2c0,0.5,0.1,0.6,0.2,0.9
			c1.9-0.5,5.9-2.7,7.6-1h0.1v0.2c-1.3,0.3-2.2,0.9-3.2,1.3c0,0.2,0,0.3,0.1,0.4v0.2c0.7,0.1,1.1-0.2,1.7-0.4
			c0.8-0.2,1.5-0.2,2.3-0.5c1.6-0.6,2.5-0.9,4.4-0.2c0,0,0.1,0.1,0.1,0.1c-0.2,0.2-0.7,0.1-1.2,0.3c-0.8,0.3-1.7,0.9-2.4,1.3
			c-0.1,0.2,0,0.1-0.1,0.2c0,0.4,0,0.3,0.2,0.5c0.5,0.3,1.3-0.5,1.9-0.7c1.1-0.4,2-0.3,3.1-0.7c0.4-0.1,0.6-0.5,0.9-0.6
			c0.9-0.4,3.4,0.4,3.9,0.8c0,0,0.1,0.1,0.1,0.1h-0.1c-0.5,0.7-1.8,1-2.6,1.4c-0.8,0.3-1.6,1-2.3,1.3c-0.5,0.2-0.9,0.1-1.4,0.3
			c-0.6,0.2-1.2,0.7-1.7,0.9c-0.9,0.4-1.9,0.6-2.8,1c-1.9,1-4.5,1.8-6.6,2.5c-0.8,0.3-1.5,0.2-2.3,0.6c-1.1,0.5-2.6,1.2-3.8,1.6
			c-0.5,0.2-0.9,0.1-1.4,0.3c-2,0.9-4.3,2.1-6.6,2.6c-0.6,0.1-1.3-0.6-1.8-0.7c-1.4-0.4-3-0.4-4.3-0.7c-1.4-0.3-3,0.2-4,0
			c-2.4-0.4-4.8-0.6-6.9-1.3c-0.7-0.1-1.3-0.2-2-0.3c-1-0.3-1.9-0.9-2.7-1.3c-1.4-0.6-2.4-0.7-4-1.4c-0.3-0.1-0.8-0.5-1.1-0.6
			c-0.8-0.3-1.6-0.1-2.4-0.4c-0.8-0.3-1.8-0.6-2.7-0.8c-0.7,0-1.4-0.1-2.1-0.1c-1.1-0.3-2.4-0.4-3.6-0.7c-0.4-0.1-1.2-0.5-1.8-0.3
			c-2.3,0.8-4.8,1.7-7,2.6c-0.4,0.1-0.8,0.1-1.2,0.2c-0.9,0.3-1.9,0.8-2.7,1.2c-0.5,0.3-1.1,0.1-1.6,0.4c-2.6,1.3-5.6,2.8-8.3,4.2
			c-0.7,0.4-1.4,0.3-2.1,0.7c-0.7,0.4-1.3,1-2.1,1.3c-0.6,0.2-1,0.2-1.5,0.5c-2.7,1.8-6,3.3-8.9,4.8c-0.6,0.3-1.3,0.2-1.9,0.6
			c-0.8,0.5-1.7,1.1-2.5,1.6c-0.3,0.1-0.7,0.2-1,0.3c-0.7,0.4-1.1,1.2-2,1.4c0,1.4,0.7,1.5,1.5,2c2,1.3,4.1,1.5,6.6,2.3
			c1,0.3,1.9,0.7,2.8,0.9c0.7,0.2,1.4,0,2,0.3c0.5,0.3,1,0.7,1.5,0.9c0.6,0.3,1.1,0.2,1.7,0.5c0.2,0.1,0.5,0.5,0.7,0.6
			c1,0.5,2.1,0.7,3,1.3l0.5,0.5c0.8,0.4,1.7,0.1,2.5,0.4c1.2,0.5,2.6,0.9,3.8,1.4c0.4,0.2,0.7,0.5,1,0.7c0.6,0.3,1.4,0.3,2,0.7h0.2
			c-0.5,1-1.6,1-2.6,1.5c-0.9,0.4-1.9,1.2-2.7,1.6c-0.3,0.1-0.6,0.1-0.9,0.2c-0.7,0.3-1.4,0.8-2,1.1c-0.4,0.2-0.7,0.1-1.1,0.3
			c-2.9,1.3-6.1,2.9-8.7,4.6c-0.3,0.1-0.7,0.1-1,0.2c-0.5,0.2-1,0.5-1.6,0.8c-0.4,0.2-1.4,0.7-1.4,1c-0.4,0.3-0.9,0.2-1.4,0.4
			c-0.2,0.1-0.5,0.5-0.7,0.6c-1,0.6-1.9,0.8-2.8,1.5c0,0.1-0.1,0.2-0.1,0.3c-0.2,0.2-0.6,0.1-0.8,0.2c-0.5,0.3-0.9,0.8-1.5,1
			c-0.7,0.2-0.8-0.4-1.4,0c-0.1,0.2,0,0.4,0.1,0.6c0,0-0.1,0.1-0.1,0.1c-1.8-0.1-2.7-1.1-4-1.7c-0.8-0.3-1.6-0.4-2.4-0.8
			c-2.2-1.2-4.6-2.4-7.1-3.3c-1.3-0.5-2.5-0.6-3.7-1.1c-2.2-0.9-4.3-2.2-6.4-3.1c-1.5-0.6-3-0.9-4.5-1.6c-0.9-0.4-2-1.2-3-1.6
			c-2.1-0.9-4.4-1.3-6.6-2.2c-0.4-0.2-0.9-0.6-1.3-0.9c-0.5-0.4-1.2-0.4-1.7-0.7c-0.4-0.2-0.9-0.7-1.4-0.9c-2-0.9-4.2-1.3-5.9-2.4
			c-0.1-0.1-0.2-0.3-0.3-0.4c-0.6-0.4-1.2-0.5-1.8-0.8c-0.2-0.2-0.4-0.4-0.6-0.6c-0.4-0.2-0.8-0.1-1.2-0.3c-0.7-0.4-1.6-1-2.4-1.3
			c-0.6-0.2-1.1-0.2-1.6-0.5c-1.4-0.8-2.6-2-3.9-2.8c-1.4-0.9-3-1.5-4.3-2.4c-0.6-0.4-1.3-0.4-2-0.7c-0.6-0.2-1.2-0.8-1.8-1.1
			c-0.3-0.1-0.7-0.1-1-0.2c-0.6-0.3-1.3-0.9-1.9-1.2c-0.4-0.2-0.7-0.2-1.1-0.4c-0.4-0.2-0.7-0.7-1.1-0.9c-1.3-0.8-2.4-1.3-3.9-1.9
			c-0.7-0.3-1.3-0.8-2.1-1C299.7,240,301.7,240.4,303,240z M462.3,260.1c-0.1,0.6-0.2,1.3-0.1,1.8c0.6,2.7,1.2,5.8,0.9,8.4
			c0,0.3,0.2,0.2,0.2,0.3c0.1,0.3,0,1,0,1.1c-0.2,1.6,0.6,3.1,0.2,4.3c0.1,0.6,0.2,1.2,0.3,1.8c-0.2,1.2,0.3,2.8,0.6,3.8v2
			c0,0.1,0.5,1.7,0.4,2.1h-0.2c-0.1,0.3,0.2,0.3,0.3,0.4c0.2,0.4,0,1.5-0.2,1.8c-0.2,0.5-0.5,0.4-0.9,0.7c-0.4,0.3-0.5,0.8-1,1.1
			v0.3c-0.7,0.1-2.1,0.9-2.6,1.3c-0.2,0.3-0.5,0.5-0.7,0.8c-0.8,0.4-1.5,0.5-2.2,0.9c-1.2,0.7-2.5,1.8-3.8,2.5
			c-0.3,0.1-0.6,0.1-0.9,0.2c-0.3,0.1-0.6,0.4-0.8,0.6c-0.3,0.2-0.5,0-0.8,0.2c-0.5,0.3-0.9,0.9-1.4,1.2c-0.4,0.2-0.8,0.1-1.2,0.3
			c-0.7,0.3-1.4,0.9-2.2,1.2c-0.7,0.3-1.5,0.3-2,0.7c-0.1,0.1-0.1,0.1-0.1,0.3c-1.7,0.1-2.9,1.1-4.2,1.6c-0.8,0.3-1.5,0.2-2.2,0.5
			c-0.5,0.2-1.1,0.8-1.6,1c-0.6,0.3-1.2,0.3-1.9,0.6c-1.1,0.5-2.4,1.4-3.4,2c-0.5,0.3-0.9,0.3-1.3,0.6c-0.2,0.1-0.5,0.5-0.7,0.7
			c-0.2,0-0.3,0.1-0.5,0.1c-0.5,0.3-1,0.8-1.5,1.1c-0.2,0-0.3,0.1-0.5,0.1c-0.3,0.2-0.4,0.6-0.9,0.7v0.3c-0.6,0.1-1.9,0.8-2.3,1.1
			c-0.1,0.2-0.2,0.3-0.3,0.5c-0.2,0.2-0.6,0-0.8,0.2c-0.1,0.1-0.2,0.4-0.3,0.5c-0.6,0.4-1.2,0.4-1.8,0.8c-0.4,0.3-0.5,0.8-1.1,1v0.3
			c-0.8,0.1-1.7,0.7-2.1,1.2c-0.2,0-0.4-0.1-0.6-0.1c-0.5-1.3-0.5-3-0.9-4.3c-0.1-0.3,0.1-0.8,0.1-0.9c0-0.4-0.1-0.8-0.2-1
			c-0.2-0.7,0.2-0.9,0-1.6c-0.1-0.5-0.3-0.9-0.4-1.3c-0.1-0.3,0.1-1,0-1.6c-0.2-0.6-0.5-1.1-0.6-1.7c-0.1-0.6-0.1-1.5-0.3-2
			c0-0.1,0.2-0.2,0.1-0.4c-0.2-0.7-0.6-1.7-0.6-2.6c0.1-3.5,0-8.7-0.7-11.4v-1.1c-0.1-0.5-0.1-1.3-0.3-1.9c-0.2-0.6,0.3-1,0.2-1.7
			c-0.2-1.1,0-2.3,0-3.7c0-0.3,0.1-0.8,0.1-0.9c-0.5-2.9-0.2-5.7-0.8-8.9c-0.1-0.5,0.1-1.4,0.1-2c0-0.7-0.2-1.1-0.3-1.8
			c-0.1-0.4,0.1-0.8-0.1-1.2c0.2-0.9,1.7-1.2,2.4-1.6c0.8-0.4,2.1-0.8,2.9-1.3c0.6-0.4,1.3-1,1.9-1.3c0.2,0,0.5-0.1,0.7-0.1
			c0-0.1,0.1-0.2,0.1-0.3c0.5-0.3,1.1-0.2,1.6-0.5c1-0.5,2.1-1.3,3.2-1.7c1.1-0.4,2.2-0.6,3.2-1.1c3.3-1.5,6.7-3.3,9.9-4.9
			c1-0.5,1.9-0.6,3-1c0.4-0.2,0.8-0.6,1.2-0.8c1.7-0.7,3.6-1.2,5.1-2.2c0.3-0.2,0.5-0.6,0.8-0.7c0.6-0.3,1.6-0.5,2.1-0.9
			c0-0.1,0.1-0.2,0.1-0.3c0.6-0.2,1.3-0.3,1.9-0.5c1.7-0.9,4.2-1.8,5.9-2.5c0.5-0.2,2.7-1.1,3-0.9c0.4,0,0.4,0.1,0.6,0.2
			c0.1,0.6-0.1,1.7,0,2.2c0,0.2,0.3,0.6,0.3,0.9c0,0.3-0.3,1-0.2,1.3c0.2,0.9,0.2,2.3,0.5,3.1c-0.2,0.7,0,2.6,0.1,3.1
			c0.3,1.4,0.1,3.1,0.6,4.1C461.8,256.7,462.4,259.2,462.3,260.1z M411.1,261.7c-0.3,0.1-0.5,0-0.7,0.1c-0.3,0-0.6-0.1-0.8-0.2
			c0-0.1-0.1-0.2-0.1-0.3c-0.4-0.2-0.9-0.2-1.2-0.4c-1-0.6-2.1-1.4-3.3-1.9c-1.3-0.5-2.8-0.9-4.1-1.3c-0.4,0-0.9-0.1-1.3-0.1
			c-1.6-0.5-3.2-1.9-4.8-2.6c-3.5-1.5-7.8-2.2-11.4-3.5c-0.6-0.1-1.1-0.3-1.7-0.4c-0.4-0.2-0.7-0.5-1.1-0.7v-0.3
			c0.6-0.4,1.3-0.9,2-1.3c0.2-0.1,0.5,0,0.7-0.2c0.5-0.4,1-0.9,1.6-1.2c0.8-0.4,1.6-0.4,2.3-0.8c0.3-0.2,0.7-0.6,1.1-0.8
			c0.6-0.3,1.2-0.2,1.8-0.5c0.3-0.1,0.7-0.6,1-0.7c0.4-0.2,0.7-0.1,1-0.3c0.1-0.1,0.1-0.3,0.2-0.4c0.4-0.3,0.8-0.2,1.3-0.5
			c0.7-0.4,1.4-1,2.1-1.4c0.3-0.1,0.6-0.1,0.9-0.2c1.2-0.6,2.7-1.4,3.9-2c0.2,0,0.5-0.1,0.7-0.1c0.2-0.1,0.5-0.4,0.7-0.5
			c0.3-0.2,0.6-0.1,0.9-0.3c0.2-0.2,0.5-0.5,0.7-0.7c0.7-0.3,1.5-0.3,2.2-0.7c1.3-0.7,2.6-1.5,4.1-2.1c1.2-0.5,2.4-0.8,3.6-1.2
			c0.3,0,0.6-0.1,0.9-0.1c0.7-0.3,1.5-0.8,2.1-1.1c0.3,0,0.6-0.1,0.9-0.1c0.6-0.2,1.5-0.6,2.1-0.9c0.5-0.2,1.3,0,1.5-0.1
			c0.4-0.2,0.6-0.5,1.2-0.6c0.9-0.2,1.9,0.2,2.5,0.4c1,0.3,2.2,0.2,3.2,0.5c0.6,0,1.2,0.1,1.8,0.1c1.2,0.3,2.7,0.7,3.9,1.1h0.6
			c2.9,1,5.7,2.6,8.6,3.5c0.7,0.2,1,0,1.7,0.2c1.7,0.5,4.6,1,5.9,1.3c0.3,0.1,0.6-0.1,0.8-0.1c1.2,0.2,2.9-0.1,3.8,0.2
			c1.1,0.4,3.4,0.3,4.1,1c0.2,0.1,0.1,0,0.2,0.1c-0.9,0.4-1.9,0.5-2.9,0.9c-0.6,0.2-1.2,0.7-1.8,0.9c-0.5,0.2-0.9,0.1-1.4,0.3
			c-0.6,0.3-1.3,0.8-1.9,1.1c-0.7,0.3-1.5,0.4-2.1,0.8c-0.3,0.2-0.6,0.6-1,0.8c-2.6,1.2-5.2,2.3-7.7,3.6c-0.5,0.2-1,0.2-1.5,0.4
			c-1.5,0.8-3.3,1.6-4.8,2.4c-0.4,0.2-1.3,0.3-1.6,0.5c-1.2,0.9-2.5,1.3-4,1.9c-0.6,0.2-1,0.8-1.6,1c-1.1,0.5-2.2,0.6-3.3,1.1
			c-1.1,0.5-2.3,1.3-3.3,1.9c-0.6,0.4-1.5,0.7-2.1,0.9c-0.3,0-0.5,0.1-0.8,0.1c-0.1,0.2-0.2,0.3-0.3,0.5c-0.3,0.2-0.5,0.1-0.8,0.2
			c-0.7,0.3-1.5,0.9-2.2,1.3c-0.9,0.5-1.7,0.6-2.6,1.1C411.4,261.4,411.2,261.5,411.1,261.7z M379.1,293.5c0,0.4-0.2,0.3,0,0.9
			c0.4,1.3,0.1,3.7,0.8,4.1c-0.1,0.2-0.1,0.2-0.3,0.3c0,0.4,0.2,0.4,0.2,0.6c0,0.2-0.1,0.3-0.1,0.5c0.2,0.8,0.1,1.8,0.3,2.5
			c-0.2,0.5-0.2,1.5,0.1,1.9c-0.3,0.3,0,1.6,0,2.2c0,1.2-0.1,2.8,0.2,4v1c0.1,0.5,0.4,1.1,0.4,1.3c0.1,0.6-0.2,1.4,0.3,1.8
			c-0.1,0.1-0.2,0.1-0.3,0.2c0,0,0.2,0.4,0.3,0.6c0.2,0.8-0.2,1.5,0,2.5c0.2,0.7,0,1.5,0.1,2c0.1,0.7,0.2,1.4,0.3,2.1h0.3
			c-0.1,0.1-0.1,0.1-0.3,0.1c-0.1,0.9-0.2,2.3,0,3.1c0.1,0.8,0.5,1.8,0.2,2.5c0.1,0.2,0,0.1,0.3,0.2c-0.4,1.4,0.1,2.6,0.3,4.3
			c0,0.3,0.2,1.3,0.2,1.6c-0.2,1.3-0.1,2.4,0.2,3.7c0.1,0.5-0.1,1-0.2,1.4c0,0.3,0.2,0.5,0.2,0.7c0.1,0.7,0,2.1,0.1,2.9
			c0,0.2-0.1,0.5-0.1,0.7l0.2,0.3c0.1,1-0.2,1.9-0.1,3c0.3,2.5,0.6,5.4,0.3,7.8c-0.1,0.4,0.1,1.3,0.2,1.7c0.2,0.7-0.1,2.4-0.2,2.8
			v0.2h0.2c0.2,0.5,0,1.3,0,1.5c-0.1,0.5,0.1,1,0.2,1.3c0,0.3-0.1,0.7-0.1,1c0,0.5,0.3,1.3,0.3,1.8c0,0.2-0.2,0.7-0.1,1
			c0.2,1,0.5,2.3,0.3,3.6c-0.1,0.5,0.2,0.5,0.3,0.7c0.1,0.3-0.1,0.6-0.1,0.7c-0.1,0.7,0.5,1.5-0.2,1.9c-0.1,0.1,0,0-0.2,0.1
			c-0.8-1.2-1.5-3-2-4.4c-0.4-1.1-0.3-2.1-0.7-3.1c-0.2-0.6-0.7-1.3-0.9-1.9c-0.4-1.1-0.4-2.2-0.8-3.2c-0.2-0.4-0.5-0.7-0.7-1.1
			c-0.2-0.4,0-0.8-0.2-1.3c-0.1-0.4-0.5-1-0.7-1.4c0-0.3-0.1-0.5-0.1-0.8c-0.3-0.6-0.9-1.3-1.1-1.9v-0.7c-0.1-0.1-0.2-0.2-0.3-0.3
			c-0.3-0.6-0.3-1.1-0.6-1.7c-0.1-0.3-0.5-0.5-0.6-0.8c-0.3-0.7-0.2-1.1-0.5-1.7c-0.5-1-1.3-2.1-1.8-3.1c-0.2-0.4-0.1-0.8-0.3-1.2
			c-0.1-0.2-0.4-0.6-0.5-0.9c-0.1-0.2,0.1-0.3,0.1-0.4c-0.1,0-0.2-0.1-0.3-0.1c0,0-0.5-1.4-0.5-1.5c-0.1-0.4,0.1-0.6,0-0.8
			c-0.6-1.4-1.3-2.9-1.9-4.4c0-0.3-0.1-0.5-0.1-0.8c-0.5-1.1-1.2-2.4-1.7-3.5c-1-2.4-1.6-4.9-2.7-7c-0.3-0.6-0.1-1.1-0.3-1.7
			c-0.4-1.2-0.7-2.4-1.2-3.6c-0.1-0.2-0.3-0.4-0.4-0.5c-0.1-0.2-0.3-0.6-0.4-0.8v-0.6c-0.1,0-0.2-0.1-0.3-0.1
			c-0.1-0.2-0.4-0.9-0.5-1.1c0-0.3-0.1-0.6-0.1-0.9c-0.1-0.2-0.4-0.4-0.5-0.6c0-0.2,0.1-0.3,0.1-0.5c-0.2-0.2-0.3-0.3-0.5-0.5
			c-0.7-1.6-1.1-3.4-1.9-5.2c-0.2-0.4-0.4-0.8-0.6-1.3c-0.2-0.2-0.3-0.3-0.5-0.5c0-0.1,0.1-0.2,0.1-0.3c-0.5-1.1-1-2.4-1.5-3.4
			c0-0.1,0.2-0.6,0-0.8c-0.2-0.2-0.8-0.1-1-0.3c-0.1-0.1,0.8-1.2,1-1.4c0.4-0.4,0.8-0.6,1.2-0.9c0.1-0.2,0.2-0.3,0.3-0.5
			c0.8-0.7,1.4-1.5,2.3-2.2c-0.1-0.1,0.4-0.9,0.6-1.1c1-1,2.2-1.9,3.2-3c1.1-1.2,2.2-2.4,3.2-3.7c0.2-0.2,0.7-0.4,0.9-0.6
			c0.2-0.2,0.2-0.5,0.4-0.7c0.1-0.2,0.4-0.2,0.6-0.3c0.3-0.3,0.6-0.8,1-1.1h0.3c0.3-0.3,0.6-0.8,0.9-1.1c0.5-0.4,0.8-0.4,1.3-0.8
			c0.2-0.2,0.3-0.5,0.5-0.7c0.9-0.7,1.6-1.5,2.4-2.3c0.5-0.4,1.2-0.7,1.6-1.2c0.4,0.1,0.8,0.2,1,0.4c0.2,0.3,0.4,3.1,0.4,3.2
			c0,0.2-0.3,0.2-0.2,0.6c0,0.2,0.3,0.7,0.3,0.8c0.1,0.7-0.1,1.8,0.1,2.9c0,0.3-0.1,0.5-0.1,0.8c0.1,0.1,0.2,0.2,0.3,0.3
			c0.1,0.4-0.2,1-0.1,1.4c0,0.1,0.3,0.5,0.3,0.5c0,0.2-0.3,0.4-0.2,0.7C378.8,292.4,379,293,379.1,293.5z M383.4,373v-0.2
			c0,0,0.1,0.1,0.1,0.1c0.3,0.2,0.4,0.5,0.7,0.7v0.5h-0.5V374C383.5,373.7,383.6,373.2,383.4,373z M297.1,242.1
			c1.3,0.1,2,0.5,2.9,0.9c1.4,0.6,2.8,1,4,1.8c1.2,0.7,2.4,1.8,3.6,2.4h0.4c0.5,0.2,1.1,0.7,1.6,0.9h0.4c0.6,0.3,1.3,0.9,1.9,1.2
			c0.7,0.3,1.2,0.3,1.8,0.6c3,1.6,5.8,3.6,8.6,5.4c0.8,0.5,2.3,0.6,3.1,1.1c1.5,0.9,3.2,1.9,4.7,2.8c0.4,0.2,0.9,0.2,1.3,0.5
			c0.3,0.2,0.6,0.6,0.9,0.7c1.3,0.6,2.7,0.8,4,1.4c0.7,0.3,1.4,1,2.1,1.3c0.6,0.3,1.2,0.3,1.7,0.7c0.3,0.2,0.7,0.6,1,0.7
			c1.3,0.5,2.5,0.5,3.7,1c0.1,0,0.1,0.3,0.2,0.3c0.2,0.1,1,0.1,1.4,0.3c0.5,0.3,1,0.6,1.5,0.9c0.4,0.1,0.9,0.2,1.3,0.3
			c0.2,0.1,0.3,0.4,0.4,0.5c0.3,0.1,0.7,0.1,1,0.2c0.6,0.2,1.3,0.7,1.8,0.9h0.7c0.2,0.2,0.3,0.3,0.5,0.5c0.6,0.3,1.2,0.3,1.8,0.6
			c0.6,0.3,1.3,0.9,1.9,1.2c1,0.5,2,0.5,3,1c0.3,0.1,0.6,0.6,0.8,0.7c0.4,0.1,0.8,0.1,1.2,0.2c1,0.4,2.2,0.6,3.3,1.1
			c3.5,1.5,7,3.3,10.4,4.9c-0.1,1-1.6,1.9-2.2,2.5c-0.2,0.2-0.2,0.5-0.4,0.7c-0.4,0.4-1.1,0.5-1.5,0.9c-0.3,0.3-0.6,0.8-0.9,1.1
			c-0.2,0.1-0.5,0.1-0.6,0.3c-0.1,0.1,0,0.3-0.1,0.4c-0.6,0.5-1.4,0.9-2,1.4c-0.9,0.7-1.7,2.3-2.7,2.7v0.3c0,0-2.2,2.2-2.3,2.4v0.4
			c-0.2,0.2-0.7,0.3-0.9,0.5c-1.4,1.3-3.1,3-4.2,4.6h-0.3c-0.1,0.8-1.9,1.9-2.4,2.5v0.3c-0.2,0.3-0.7,0.4-1,0.7
			c-0.3,0.2-0.4,0.7-0.7,0.9c-0.5,0.4-1.1,0.7-1.6,1.1c-0.4,0.3-0.6,0.9-0.9,1.3c-0.3,0.1-0.5,0.3-0.8,0.4c0,0-0.6,0.9-0.8,1
			c-0.3,0.2-0.5,0.2-0.8,0.4c-0.4,0.3-0.9,1.2-1.3,1.5c-0.7,0.5-1.6,1-1.9,1.9c-0.2,0.1-0.1,0-0.2,0.1c-0.4,0-0.6,0-0.8-0.2
			c-0.2-0.3,0-1.2-0.1-1.7c-0.3-1.5-0.3-3.9,0-5.5c0.2-0.7-0.2-1.7,0-2.2c0-1.6-1.1-1-2.3-1.4c-0.1,0-0.3-0.3-0.4-0.3
			c-0.3-0.1-0.8,0.1-0.9,0.1h-3c-0.2,0.1-0.6,0.3-0.9,0.4h-0.8c-0.7,0.2-1.4,0.7-2.4,0.8c-0.1,0.3-0.2,0.4-0.3,0.6
			c0,0.6,0.1,1.1,0.1,1.7c-0.1,0.1-0.2,0.1-0.3,0.2c0,0.2,0.1,0.4,0.1,0.6c0,0.1-0.3,0.5-0.3,0.6c-0.2,0.6,0.1,1,0,1.4
			c-0.1,0.1-0.1,0.1-0.2,0.2v0.8c-0.1,0.3-0.4,0.4-0.5,0.7h-0.2c-2.9-4-4.6-8.8-7.4-13.1c-0.5-0.7-0.6-1.8-1.1-2.5
			c-1.9-2.7-3.6-5.6-5.4-8.3c-0.2-0.3-0.1-0.8-0.3-1.1c-0.3-0.5-0.9-1.1-1.1-1.6c0-0.1,0.1-0.2,0.1-0.3c0-0.1-0.3-0.3-0.3-0.4
			c-0.3-0.7-0.3-1.6-0.7-2.3c-0.1,0-0.2-0.1-0.3-0.1v-0.1c0,0-0.1-0.7-0.2-0.9l-0.7-0.7c-0.2-0.4,0-0.9-0.3-1.3
			c-0.1-0.1-0.3-0.1-0.4-0.2c-0.2-0.3-0.1-0.6-0.3-0.9c-0.4-0.8-1.1-1.6-1.6-2.4c-0.5-0.8-0.7-1.8-1.2-2.6c-0.2-0.3-0.6-0.6-0.8-0.9
			c-0.6-1-0.9-2.5-1.5-3.4c-0.5-0.6-0.8-1.5-1.3-2.1c-0.2-0.2-0.5-0.4-0.7-0.6c-0.5-0.7-0.6-1.5-1.1-2.2c-0.6-0.8-1.4-1.6-1.9-2.4
			c-0.3-0.5-0.7-1-0.9-1.5c0-0.2-0.1-0.4-0.1-0.6c-0.2-0.2-0.4-0.3-0.6-0.5c-0.3-0.5-0.5-1-0.8-1.6c-0.4-0.6-1-1.2-1.4-1.9
			c-1.2-2.2-2-5.1-3.6-6.8C296.5,242.2,296.7,242.4,297.1,242.1z M345.2,321.4c0.1,0.9,0.3,2.4,0.3,3.6c0,1.1,0.8,5,0.3,5.8v0.2
			c-2.1-0.1-3.6-1.4-5.2-2c-0.4,0-0.7-0.1-1.1-0.1c-0.2-0.1-0.5-0.4-0.7-0.5c-1.1-0.5-2.2-0.7-3.2-1.1c-0.5-0.1-1-0.2-1.5-0.3
			c-0.6-0.3-1.2-0.9-1.9-1.2c0-2.2,0.2-4.3,0.3-6.5c0-0.2,0.3-0.7,0.3-0.8c0.2-0.6-0.1-1.3,0-1.7c0.3-1.4,0.5-3.3,0.5-5.4
			c0.1,0.1,1,0.5,1,0.6c0.1,0.3,0.1,0.7,0.2,1c0.4,0.6,1,1.1,1.3,1.8c0.2,0.1,0,0-0.1,0.2c0.6,0.4,1.5,2,1.9,2.7
			c1.6-0.2,3.5-3.1,4.7-4c0.4-0.3,0.9-1.3,1.4-1.1c0.3,0.1,0.3,0.3,0.6,0.5c0,2.2,0.6,4.5,1,6.5
			C345.4,320.1,345.1,320.8,345.2,321.4z M334.1,303.6c0.1-0.3,0.2-1.6,0.3-1.9c0.2-0.3,0.4-0.8,0.4-1c1.1-0.1,1.9-0.7,2.8-1
			c0.8-0.2,2,0,2.8,0c0.9,0,2.1-0.1,2.6,0.3c0.2,0.1,0.2,0.1,0.4,0.2c0,0.4,0.1,1,0.1,1.3c-0.1,0.1-0.2-0.1-0.2,0.2
			c0,0.1,0.2,0.7,0.2,0.8c0,0.2-0.2,0.7-0.3,0.8c-0.2,0.4,0.2,1.1,0.2,1.5c0,0.6-0.1,2.2,0.1,2.8c0.2,0.7-0.1,2,0.4,2.4
			c-0.1,0.4-0.4,1.1-0.7,1.3c-0.2,0.2-0.5,0.1-0.6,0.3c-0.9,1.3-3.1,3.7-4.6,4c-0.3-0.4-0.7-0.6-1-0.9c-0.2-0.2-0.1-0.5-0.2-0.7
			c-0.3-0.5-0.9-1.1-1.2-1.6c-0.7-1.2-1.1-2.7-2-3.6c0.1-1.2,0.3-2.4,0.5-3.8C334.2,304.5,334,303.9,334.1,303.6z M296.9,339.6
			c-0.1,0.2,0.1,0.3-0.1,0.6h-0.2c0,0.1,0.1,0.3,0.1,0.4c-0.2,0.3-0.7,0.4-0.9,0.9c-0.5,0-0.5-0.1-0.9-0.2c-0.3-2.8-0.3-5.6,0-8.6
			c0.1-0.9-0.1-2.1,0-3.3c0-0.3-0.1-0.7-0.1-0.8c0-0.3,0.3-1.1,0.3-1.3c0-1.5-0.2-4.3-0.1-5.9c0-0.3,0.3-1,0.2-1.5
			c0-0.2,0-0.9,0-1.1l-0.2-0.3c0-3.1,0.5-6.3-0.1-9.2c-0.1-0.7,0.1-1.6,0.2-2.2c0.2-1-0.2-2.1,0-3c0-0.2,0.2-1.2,0.2-1.4
			c-0.3-1.8-0.1-3.5-0.3-5.2c-0.1-0.5,0.2-0.7,0.1-1.3c-0.1-0.5-0.4-1.3-0.4-1.9c0-0.1,0.1-0.3,0.1-0.5c0-0.2-0.4-0.7-0.4-0.9
			c0-0.4,0.4-1.4,0.3-1.8c-0.3-2.1-0.2-4.8,0.2-6.5c0.2-0.7-0.3-1.1-0.2-1.7c0.2-0.9,0.2-2-0.2-2.8c0.1-0.3,0.4-1.2,0.3-1.6
			c0,0-0.2-0.3-0.2-0.4c0.4-2.2,0.1-5.7,0.5-8.1c0.1-0.3-0.3-2.3-0.3-2.4c0.1-0.1,0.2-0.2,0.3-0.3c0.1-0.3-0.2-0.9-0.3-1.1
			c0-0.2,0.1-0.5,0.1-0.7c0-0.3-0.2-0.6-0.2-0.8c-0.1-0.5,0.1-1.2,0.1-1.4c-0.1-0.7-0.2-1.3-0.3-2c0,0,0.1-2.7,0-2.9
			c-0.1-0.1-0.1-0.1-0.2-0.2c0-0.1,0.3-0.4,0.3-0.4c0.1-0.4-0.3-1-0.2-1.6c0.1-0.4-0.1-1-0.1-1.6c0-1.2,0.1-2.9,0.2-4
			c0-0.5,0.1-0.9,0.1-1.4c-0.1,0-0.1-0.1-0.2-0.1c-0.1-0.3,0.1-1.1,0.1-1.6c0-0.2-0.1-0.5-0.1-0.7c0-0.1,0.3-0.3,0.3-0.4
			c-0.1-0.3-0.1-0.6-0.2-0.9c0.1,0,0.1-0.1,0.2-0.1c0.1-0.6-0.2-1.2,0.2-1.8c0-0.2,0-0.3,0.1-0.4c0.1,0.1,0.2,0,0.4,0.1
			c1,0.1,1.5,2.5,2,3.3c0.4,0.5,0.9,1.2,1.2,1.9c0,0.1-0.1,0.2-0.1,0.3c0.2,0.5,0.8,1,1,1.5c0.1,0.3,0.1,0.5,0.2,0.7l0.6,0.6
			c0.2,0.3,0.1,0.7,0.3,1.1c0.2,0.4,0.9,0.8,1.1,1.2c0,0.1-0.1,0.3-0.1,0.4c0.1,0.1,0.3,0.1,0.4,0.2c0.2,0.3,0.3,0.8,0.5,1.1
			c0.1,0.1,0.3,0.1,0.4,0.2c0.1,0.2,0,0.5,0,0.5c0.3,0.4,0.8,0.9,1,1.3v0.4c0.2,0.2,0.6,0.5,0.8,0.7c0.4,0.5,0.6,1.2,1,1.8
			c0.4,0.6,1.1,1.1,1.5,1.7c0.3,0.3,0.2,0.7,0.4,1.1c0.1,0.1,0.3,0.2,0.4,0.3c0.2,0.3-0.1,0.3,0,0.5c0.1,0.3,0.5,0.7,0.7,1
			c0.3,0.6,0.3,1,0.6,1.6c0.1,0.2,0.4,0.3,0.5,0.4c0.2,0.4,0,0.5,0.1,0.8c0.2,0.4,0.7,0.8,0.9,1.1c0.1,0.4,0.3,0.7,0.4,1.1
			c0.1,0.1,0.3,0.2,0.4,0.3c0.4,0.8,0.5,1.5,0.9,2.2c0.2,0.3,0.6,0.7,0.9,1c-0.3,0.3,0.7,1.3,0.8,1.6v0.5c0.1,0.1,0.3,0.1,0.4,0.2
			v0.5c0.2,0.4,0.6,0.9,0.8,1.3c-0.1,0.1-0.1,0.4,0,0.6c0.1,0.1,0.3,0.1,0.4,0.2c-0.3,0.4,0.4,0.7,0.3,1.1c0,0.1,0.8,2.4,1.1,2.9
			h0.2c0.2,0.2,0.1,0.5,0.3,0.8h0.2c0.1,0.3,0.2,0.6,0.3,0.9c0.1,0.1,0.3,0.1,0.4,0.2v0.5c0.1,0.2,0.5,0.3,0.6,0.4
			c0,0.2,0.1,0.4,0.1,0.6c0.1,0,0.2,0.1,0.3,0.1c0.2,0.2,0,0.5,0.2,0.8c0.1,0.2,0.4,0.2,0.5,0.3c0.4,0.4,0.4,1,0.7,1.5
			c0.2,0.3,0.6,0.5,0.8,0.8c0,0.2,0.1,0.4,0.1,0.6c0.1,0.1,0.3,0.2,0.4,0.3v0.5c0.2,0.2,0.4,0.4,0.6,0.6c0.4,0.7,0.7,1.4,1.1,2v0.4
			c0.3,0.6,0.8,1.4,1.2,1.9c-0.1,0.2-0.1,0.3,0,0.4c-0.1,0.3-0.4,0.4-0.6,0.6c0,0.2-0.1,0.3-0.1,0.5c-0.1,0-0.2,0.1-0.3,0.1
			c-0.5,0.6-0.6,1.3-1,2c0,0-0.8,0.7-0.9,0.9c-0.1,0.1-0.1,0.3-0.1,0.6c-1.1,0.3-1.5,2.6-2.5,3.2v0.4c-0.3,0.1-0.2,0.1-0.5,0.2
			c0.2,1.1-0.3,0.5-0.6,1.1v0.5c-0.1,0.2-0.5,0.3-0.6,0.5c-0.8,1.2-1.4,2.4-2.2,3.7c-0.1,0.1-0.3,0.1-0.4,0.2v0.4
			c-0.3,0.5-0.9,1-1.2,1.5v0.4c-0.1,0.1-0.4,0.1-0.5,0.2c-0.1,0.2,0.1,0.3,0.1,0.4c-0.1,0.1-0.3,0.1-0.4,0.2
			c-0.3,0.4-0.6,1.4-0.8,1.6c-0.2,0.3-0.6,0.4-0.8,0.7c0.4,0.7-0.8,1.4-1,1.9c0,0.2,0.1,0.4,0.1,0.6c-0.1,0.1-0.4,0.2-0.5,0.3
			c-0.2,0.3-0.1,0.6-0.3,0.9c-0.1,0.1-0.3,0.1-0.4,0.2c0,0.2-0.1,0.5-0.1,0.7c-0.2,0.2-0.4,0.4-0.6,0.6v0.4
			c-0.1,0.2-0.5,0.3-0.6,0.5c0,0.2-0.1,0.5-0.1,0.7c-0.1,0-0.3,0.1-0.4,0.1c-0.2,0.3,0,0.7-0.2,0.9c-0.1,0.1-0.3,0.1-0.4,0.2
			c-0.3,0.4-0.5,0.9-0.7,1.3c-0.1,0.1,0,0.5,0,0.5c-0.1,0.1-0.4,0.1-0.5,0.2c-0.1,0.2,0.1,0.3,0.1,0.4c-0.1,0.1-0.4,0.1-0.5,0.3
			c-0.4,0.6-1.3,1.8-1.3,2.5c-0.6,0.1-1.6,1.4-1.6,2.1c-0.2,0-0.2,0-0.3,0.1c-0.2,0.2,0.2,0.1,0,0.3c-0.3,0.4-0.8,0.6-1.1,1
			c-0.3,0.4-0.3,0.8-0.6,1.3c-0.3,0.5-0.9,1-1.2,1.5c-0.3,0.5-0.3,0.9-0.6,1.4c-0.3,0.4-1,0.7-1.2,1.1c0,0.3-0.1,0.5-0.1,0.8
			C297.6,339,297,339.3,296.9,339.6z M384.7,381.1c-2-0.1-3.6-2.1-5-3c-2.8-1.7-5.8-2.8-9-4.2c-1.2-0.5-2.5-1.5-3.8-2
			c-1.2-0.5-2.3-0.4-3.6-0.8c-0.6-0.2-1.2-0.7-1.8-0.9c-0.6-0.1-1.1-0.3-1.7-0.4c-1.2-0.4-2.4-1.2-3.5-1.7c-0.8-0.4-1.5-0.5-2.2-0.9
			c-0.3-0.2-0.5-0.5-0.8-0.6c-1.8-0.8-3.7-1.3-5.5-2.1c-1.2-0.6-2.6-1.4-3.8-2.1c-0.6-0.3-1.5-0.4-2-0.8c-0.7-0.6-1.7-1.3-2.6-1.8
			c-0.9-0.5-1.8-0.7-2.8-1.1c-1.2-0.5-2.5-1.5-3.7-2.1c-0.5-0.3-1.1-0.1-1.6-0.4c-0.7-0.3-1.4-0.9-2.1-1.2c-0.4-0.2-0.8-0.1-1.2-0.3
			c-2.2-0.9-4.4-2.4-6.6-3.3c-0.4-0.2-0.7,0-1.1-0.2c-0.8-0.3-1.7-1-2.4-1.3c-0.8-0.3-1.5-0.3-2.3-0.7c-0.5-0.2-1.1-0.6-1.7-0.8
			c-0.6-0.2-1.1-0.1-1.8-0.3c-0.4-0.1-0.9-0.5-1.3-0.6c-0.6-0.2-1.2-0.1-1.9-0.3c-1-0.3-2.3-0.6-3.3-1c-0.5-0.2-1-0.7-1.5-0.9
			c-1.1-0.5-2.1-0.6-3.1-1.2c-0.2-0.2-0.4-0.4-0.6-0.6c-0.9-0.5-2.3-0.8-3.1-1.5h-0.1c0.2-0.5,0.9-0.8,1-1.3c0.1-0.2,0-0.9,0.2-1.3
			c0.5-1.2,1.4-2.2,2.1-3.2c0-0.2,0.1-0.3,0.1-0.5c0.1-0.1,0.4,0,0.5-0.1c0.1-0.1-0.1-0.5,0-0.7c0.1,0,0.2-0.1,0.3-0.1
			c0.3-0.4,0.4-0.9,0.7-1.4c0.2-0.4,0.8-0.6,1-0.9c0.4-0.5,0.5-1.1,0.9-1.6c0.2-0.3,0.6-0.4,0.8-0.7c0.3-0.5,0.3-1.1,0.6-1.5
			c0.1-0.2,0.5-0.2,0.7-0.4c0.2-0.2,0.1-0.4,0.1-0.5c0.2-0.5,0.8-1,1.1-1.5c0-0.2,0.1-0.4,0.1-0.6c0.2-0.2,0.4-0.3,0.6-0.5
			c0.2-0.3,0.7-1.2,0.8-1.4c0-0.1-0.2-0.3,0-0.5c0.1,0,0.2-0.1,0.3-0.1v-0.4c0.2-0.2,0.3-0.3,0.5-0.5c0-0.2,0.1-0.4,0.1-0.6
			c0.1-0.2,0.6-0.5,0.7-0.6c0.2-0.3,0.2-0.7,0.4-1c0.1-0.2,0.3-0.6,0.5-0.8c0.1,0,0.2-0.1,0.3-0.1v-0.5c0.1-0.2,0.4-0.4,0.5-0.5
			c0-0.2,0.1-0.5,0.1-0.7c0.3-0.6,0.7-1.3,1.1-1.9c0.1,0,0.2-0.1,0.3-0.1c0.4-0.4,0.4-1.1,0.7-1.5c0.1-0.2,0.5-0.2,0.6-0.4
			c0.2-0.3,0.1-0.6,0.3-0.9c2.5-3.5,4.9-7.2,7.2-11c0.1-0.1,0.3-0.2,0.4-0.3c0.2-0.4,0.2-0.8,0.5-1.1c0.2-0.3,0.7-0.5,0.9-0.8
			c0.2-0.3,0.2-0.6,0.4-0.9c0.3-0.4,0.8-0.5,1-1c0.2,0.1,0.1,0,0.2,0.1c1.3,0.3,1.9,3.2,2.6,4.4c0.2,0.2,0.3,0.3,0.5,0.5
			c0.1,0.3,0,0.5,0.2,0.8c0.2,0.1,0.3,0.3,0.5,0.4c0,0.1-0.1,0.2-0.1,0.3c0.1,0.3,0.6,0.5,0.8,0.8c0.1,0.2,0,0.5,0.2,0.7
			c0.1,0,0.2,0.1,0.3,0.1c0.2,0.4,0.3,0.6,0.2,1c0.5,0.7,1.2,1.4,1.4,2.4c0.1,0.4-0.1,1.1-0.2,1.3c-0.2,0.3,0.4,1.1,0.2,1.6
			c-0.1,0.1-0.2,0.1-0.3,0.2c-0.1,0.4,0.2,0.9,0.1,1.4c0,0-0.3,0.2-0.3,0.2c-0.1,0.3,0.3,0.3,0.3,0.6c-0.1,1.1-0.5,2.7-0.4,3.9
			c0,0.3-0.2,0.3-0.2,0.5c-0.1,0.2,0.1,0.4,0.1,0.5c-0.2,1.5-0.6,4-0.4,5.2c0.2,1-0.5,1.6,0,2.3c0.3,1,3.2,1.6,4.3,2
			c0.4,0.1,0.8,0.5,1.2,0.6c1.4,0.4,2.7,0.5,3.9,1.1c0.8,0.4,1.9,1,2.7,1.4c1,0.4,2.1,0.4,3,1c0.3,0,0.7,0,0.9-0.1
			c0.1-0.2,0.2-1,0.1-1.1c0.1-0.2,0.1-0.1,0.3-0.3c0.2-0.1,0.1,0,0.2-0.1c-0.3-0.1-0.4-0.2-0.7-0.3c-0.2-0.8,0-2-0.1-2.8
			c-0.1-0.6-0.3-1.4-0.4-1.7c-0.1-0.5,0.1-1.4,0.1-2c-0.6-1.1-0.4-3.5-0.7-4.8c0-0.3,0.1-0.5,0.1-0.8c-0.1-0.5-0.3-1.6-0.5-2.3
			c0-0.2,0.1-0.4,0.1-0.6h-0.2c-0.2-0.5-0.2-2.1-0.3-2.5c-0.1-0.5,0.2-1.1-0.2-1.4V311c0.1-0.2,0.6-0.1,0.7-0.3
			c0-0.1-0.1-0.2-0.1-0.3c0.5-0.5,0.9-0.7,1.3-1.4h0.3v-0.3c1.3-0.7,2.1-2,3.4-2.8v-0.3h0.3c0.4-1,2.6-2.2,3.4-3.1
			c0.3,0,0.4,0.1,0.6,0.2c0.6,1.5,1.6,3.7,1.7,4.7c0.4,0.7,1.1,1.5,1.4,2.2c0,0.3,0.1,0.6,0.1,0.9c0.3,0.6,0.8,1.4,0.7,2.1
			c0.4,0.7,0.8,1.2,1.1,1.9c0.1,0.3,0.2,1.1,0.4,1.6c0.1,0.3,0.5,0.7,0.6,1c0,0.1-0.1,0.3-0.1,0.4c0.2,0.2,0.3,0.3,0.5,0.5
			c0.5,0.9,0.9,2.1,1.3,3c0.2,0.5,0.1,0.9,0.3,1.4c0.6,1.6,0.7,2.8,1.4,4.5c0.1,0.1,0.3,0.2,0.4,0.3c0.1,0.2-0.2,0.5,0,0.8
			c0,0,0.4,0.1,0.4,0.2v0.7c0.3,0.6,0.7,1.4,1,1.9c0.3,0.6,0.1,1.3,0.4,1.9c0.3,0.6,0.8,1.3,1.1,1.9c0.4,1,0.7,1.9,1.1,2.8
			c0.1,0.4,0.1,0.7,0.2,1.1c0.2,0.3,0.6,0.6,0.7,1c0.1,0.4,0.1,0.9,0.1,1.1c0.1,0.5,0.6,1.2,0.8,1.8v0.6c0.1,0.1,0.3,0.2,0.4,0.3
			c0.1,0.2,0,0.8,0.1,1.2c0.1,0.4,0.6,0.8,0.7,1.2c0,0.1-0.1,0.2-0.1,0.3c0,0.1,0.4,0.2,0.4,0.3c0,0.2,0.1,0.5,0.1,0.7
			c0.4,0.9,1.1,2,1.6,2.8c0.2,0.4,0.1,0.8,0.3,1.2c0.2,0.4,0.7,0.9,0.9,1.3c0.3,0.7,0.2,1.4,0.6,2.3c0.3,0.7,0.9,1.7,1.2,2.5
			c0,0.3,0.1,0.5,0.1,0.8c0.1,0.1,0.3,0.3,0.4,0.4c0.3,0.6,0.1,1.5,0.4,2c0.1,0.2,0.5,0.3,0.6,0.5c0,0,0.1,1,0.1,1
			c0.6,2,1.4,3.9,2.1,5.8c0,0.4,0.1,0.8,0.1,1.2c0.2,0.6,0.7,1.8,1,2.6c0.1,0.3,0.1,0.6,0.2,0.9c0.1,0,0.2,0.1,0.3,0.1v0.6
			c0.2,0.5,0.3,1.5,0.6,2.1c0.3,0.6,0.8,1.3,1.1,1.9c0.3,0.6,0.1,1.3,0.4,2C384.6,379.8,384.8,379.9,384.7,381.1z M498.5,321.9
			c-0.3,0.3-0.4,0.8-0.7,1.1c-0.2,0.2-0.9,0.3-1.2,0.5c-0.1,0.1-0.1,0.3-0.2,0.4c-0.4,0.3-0.9,0.4-1.3,0.7c-0.1,0.2-0.3,0.3-0.4,0.5
			c-0.3,0.1-0.5,0.2-0.8,0.3c-0.2,0.1-0.5,0.3-0.7,0.5c0,0.1-0.1,0.3-0.1,0.4c-0.5,0.4-1.3,0.8-1.9,1.1c-0.2,0.1-0.6,0.7-0.7,0.8
			h-0.4c-0.1,0.1-0.6,0.8-0.7,0.9c-0.2,0-0.3,0.1-0.5,0.1c-0.4,0.3-0.6,0.9-1,1.1c-0.2,0.2-0.4,0.1-0.7,0.2
			c-0.8,0.5-1.5,1.6-2.6,1.8c-0.2,0.7-0.8,0.7-1.3,1c-0.5,0.4-1.1,0.6-1.7,1c-0.2,0.2-0.3,0.4-0.5,0.6c-0.5,0.3-1.1,0.2-1.6,0.5
			c-0.1,0.2-0.3,0.4-0.4,0.6c-0.9,0.7-1.8,0.7-2.7,1.2c-0.2,0.2-0.3,0.3-0.5,0.5c-0.2,0-0.3,0.1-0.5,0.1c-0.1,0.1-0.2,0.4-0.3,0.5
			c-0.3,0.1-0.5,0.2-0.8,0.3c-0.9,0.5-1.6,0.9-2.6,1.4c-0.1,0.1-0.2,0.3-0.3,0.4c-0.5,0.3-1.1,0.4-1.5,0.7c0,0.1-0.1,0.2-0.1,0.3
			c-0.3,0.2-1.1,0.1-1.4,0.3c0,0.1-0.1,0.3-0.1,0.4c-0.7,0.6-2.1,1-3,1.5c-1.4,0.7-3.5,2.8-5.2,3v0.4c-0.8,0.1-2.4,1-3,1.5
			c-0.1,0.1-0.1,0.3-0.2,0.4c-0.3,0.3-0.9,0.2-1.3,0.4c-0.3,0.1-0.6,0.5-0.9,0.6h-0.4l-0.1,0.3c-0.4,0.4-1.1,0.7-1.5,1
			c-0.4,0.3-1.1,0.2-1.6,0.4c-1.1,0.5-2.3,1.3-3.4,1.9h-0.4c-1.4,0.8-3.6,2-5.2,2.9c-0.3,0.2-0.6,0-0.9,0.2
			c-0.4,0.2-0.8,0.6-1.2,0.8c-0.6,0.3-1.1,0.3-1.7,0.6c-0.1,0.1-0.2,0.3-0.3,0.4c-0.4,0.1-0.8,0.3-1.2,0.4c-0.1,0.1-0.2,0.3-0.3,0.4
			c-0.8,0.4-1.6,0.4-2.4,0.9v0.2c-0.1,0-0.9,0.5-0.9,0.5c-0.1,0-0.2-0.1-0.3-0.1c-0.3,0.1-0.4,0.5-0.9,0.6v0.3
			c-1.1,0.1-1.9,1-2.7,1.4c-0.4,0.2-0.6,0-0.9,0.2c-0.9,0.7-1.9,0.9-3,1.5c-1.1,0.5-2.1,1.3-3.2,1.8c-1,0.5-2.1,0.6-2.9,1.2
			c-1.1,0.8-2.5,1.6-3.7,2.2c-0.4,0.2-0.9,0.1-1.3,0.4c-0.3,0.2-0.8,0.6-1.1,0.8c-0.4,0.1-0.8,0.3-1.2,0.4c-0.1,0.1-0.2,0.4-0.3,0.5
			h-0.4c-0.7,0.3-1.5,0.5-2.2,0.9c-2.5,1.4-5.5,2.6-8,4c-0.6,0.4-1.4,0.4-2,0.8c-0.5,0.3-1.3,0.4-1.7,0.7c-1,0.7-2.3,1.4-3.4,2
			c-1,0.5-2.1,0.7-3.1,1.2c-0.5,0.2-2.4,1.4-3,1c-1.1-0.1-1.5-1.6-1.8-2.6c-0.2-0.5-0.3-1.8-0.5-2.5c-0.1-0.6,0.3-1.2,0.1-1.8
			c-0.1-0.3-0.5-1-0.4-1.5c0.1,0,0.1-0.1,0.2-0.1c0-0.1,0-1.5,0-1.6c-0.1-0.7-0.3-1.4-0.4-2.2c-0.1-0.4,0.2-1.5,0-2.2
			c-1.6-5.7-0.3-14.4-1.3-20.4c-0.1-0.7,0.3-1.2,0.2-1.6c-0.2-1-0.5-2.2-0.1-3.3c-0.1-0.2-0.4-1-0.3-1.2c0.1,0,0.1-0.1,0.2-0.1
			c0-0.2-0.2-0.4-0.2-0.5c-0.1-0.4,0.1-0.9,0.1-1.1c0-0.3-0.1-0.3-0.2-0.5c0.1-0.4,0-1.1,0.2-1.4c0-0.1-0.5-2.9-0.4-3.2
			c0.1-0.2,0.2-0.4,0.3-0.7c-0.2-0.1-0.1-0.1-0.4-0.2c0.5-1.5-0.2-3.5-0.5-4.8c-0.2-0.8,0.3-2,0-2.8c-0.4-1.2-0.5-3-0.3-4.1
			c0.1-0.4-0.3-0.9-0.2-1.2c0.2-1.3-0.1-2.8-0.3-4.5c-0.1-0.6,0.2-0.8,0.1-1.4c-0.2-1.1-0.3-2.3-0.4-3.1c-0.1-0.6-0.3-1.2-0.4-1.5
			c-0.1-0.4,0.2-1.2,0.1-1.6c-0.1-0.5-0.4-1.2-0.3-1.9c0.2-1,0-2.2-0.2-3.2c0-0.4,0.1-0.7,0.1-1.1l-0.2-0.3c0-3.4-0.2-5.8-0.9-9.2
			c-0.2-0.8,0-1.8-0.2-2.7c-0.1-0.2,0.1-0.5,0.1-0.6c-0.4-2.4-0.6-6.8-0.8-9.2c-0.1-0.7,0.2-1.5,0.2-2c0.7-0.5,1.6-1,2.4-1.5
			c0.3-0.1,0.7-0.2,1-0.3c0.5-0.4,1-0.9,1.6-1.2c0.6-0.3,1.2-0.2,1.7-0.6c0-0.1,0.1-0.2,0.1-0.3h0.5c0-0.1,0.1-0.2,0.1-0.3
			c0.2,0,0.4-0.1,0.6-0.1c0.8-0.4,2-1.3,3-1.4v-0.3c1.2-0.2,2.3-1.2,3.3-1.8c0.7-0.4,1.9-0.5,2.6-0.9c0-0.1,0.1-0.2,0.1-0.3
			c0.1-0.1,0.6-0.3,0.6-0.3c0.3,0,0.5-0.1,0.8-0.1c0.7-0.3,1.2-0.9,2.2-0.9l-0.1-0.1c0.3-0.5,2.1-0.9,2.7-1.2
			c0.6-0.3,1.3-0.8,1.9-1.1c0.3-0.2,0.6-0.1,0.9-0.3c0.1-0.1,0.2-0.3,0.3-0.4c0.2,0,0.5-0.1,0.7-0.1c0.3-0.1,0.7-0.5,1-0.6
			c0.5-0.3,1.1-0.2,1.6-0.5c0.6-0.3,1.1-0.7,2.1-0.7c0,1.3,0.2,2.2,0.3,3.6c0.1,1-0.2,2.3,0,2.8h0.2c0.2,0.5-0.2,2.1-0.1,2.6
			c0.1,0.5,0.3,1.2,0.5,2.1c0.1,0.5-0.2,0.8-0.2,1.1c0.5,0.5,0.2,2,0.3,2.6c0.1,1.1-0.6,4.2,0,4.7c-0.1,0.2-0.3,0.3-0.4,0.4
			c-0.2,0.5,0.4,2.3,0.4,2.8c-0.1,1.6,0.3,3.9,0.6,6.2c0.1,0.4-0.2,1.1-0.1,1.7c0.3,1.2,0.1,3.2,0.4,3.6c0,0-0.3,1.5-0.2,1.9
			c0.1,0.2,0.4,0.5,0.4,0.6c0,0.2-0.1,0.4-0.1,0.6c0.1,0.4,0.3,0.7,0.4,0.9c0,0.1-0.1,0.2-0.1,0.3c0.3,1.3,0.6,2.6,0.9,3.7
			c0,0.2-0.3,0.2-0.2,0.5c0,0,0.1,0.4,0.1,0.4h0.2c0.2,0.5,0,1.8,0,1.8c-0.1,0.4,0.3,1.1,0.4,1.4c-0.1,0-0.2,0.1-0.3,0.1
			c-0.3,0.8,0.4,2,0.5,2.4c0.1,0.2-0.1,0.3-0.1,0.4c0.1,1.1,0.2,1.9,0.4,2.9c0,0,0.1,0.1,0.1,0.1c-0.1,0.1-0.2,0.2-0.3,0.3
			c-0.2,0.7,0.1,1.7,0.4,2.2c1.4,0,1-0.9,1.6-1.6c0.2-0.2,0.7-0.3,0.8-0.3c0.1-0.1,0.6-0.5,0.7-0.6v-0.3c0.2-0.2,0.5-0.1,0.7-0.3
			c0.7-0.5,0.9-1,1.8-1.4c0-0.1-0.1-0.1-0.1-0.2c0.2,0,0.4-0.1,0.6-0.1c0.1-0.1,0-0.3,0.1-0.4c0.3-0.3,1.2-0.5,1.6-0.8
			c1.8-1.3,3.7-2.5,5.4-3.8c0.2-0.2,0.5-0.1,0.7-0.2c0.1-0.1,0.2-0.3,0.3-0.4c0.4-0.2,0.7-0.3,1.1-0.5c0.2-0.2,0.5-0.5,0.7-0.7
			c0.2,0,0.4-0.1,0.6-0.1c0.6-0.3,1.3-0.8,1.9-1.2c0.6-0.4,1.6-0.4,2.3-0.7c0.6-0.3,1.3-0.8,1.9-1c0.8-0.3,1.5-0.2,2.3-0.6
			c0.7-0.3,1.6-0.8,2.3-1.1h0.7c1-0.4,2-1.1,3-1.5c0.3,0,0.5-0.1,0.8-0.1c0.3-0.1,0.6-0.5,0.8-0.6c0.8-0.4,1.7-0.6,2.5-1.1
			c0.4-0.3,0.8-0.8,1.2-1c1.4-0.7,2.8-1.1,4.1-1.9c0.8-0.5,2-1.7,2.8-2.1c0.3,0,0.7-0.1,1-0.1c0.1-0.1,0.2-0.4,0.3-0.5
			c0.9-0.6,1.9-0.9,2.8-1.5c0.5-0.3,0.8-1,1.3-1.3c0.4-0.3,1-0.3,1.5-0.6c0.2-0.2,0.4-0.4,0.6-0.6c-0.1-0.7,0.3-1.8,0-2.9
			c-0.4-1.4-0.4-2.8-0.5-3.9c0-0.8-0.5-3.1-0.8-3.5c0.3-0.3-0.3-3.2-0.3-3.3c-0.1-0.8,0.3-1.5,0.1-2.3c-0.2-0.9,0-2-0.1-2.4
			c0-0.1-0.2,0-0.2-0.3c0-0.2,0.2-0.1,0.2-0.4c-0.1-0.5-0.3-1.2-0.3-1.5c-0.1-0.7,0.4-1.5,0.1-2.5c-1-3-0.9-5.9-0.9-9.3
			c0-1.3-0.2-2.2-0.1-3.1c0-0.3-0.2-0.3-0.3-0.5v-1.4l-0.2-0.2c-0.2-0.7,0.3-1.7,0.1-2.5c-0.4-1.8-0.7-5.2-0.4-6.7
			c0.1-0.3-0.4-0.9-0.3-1.3c0.1-0.1,0.2-0.2,0.3-0.3c0-0.2-0.1-0.3-0.1-0.5c0-0.1,0.2-0.2,0.2-0.5c1.4-0.7,3.1-1.5,4.5-2.2
			c0.5-0.1,0.9-0.2,1.4-0.3c1.1-0.4,2.3-0.8,3.4-1.2c0.3-0.1,0.6-0.5,0.9-0.6c0.5-0.2,0.9,0,1.3-0.2c1.1-0.4,2.6-1,3.8-1.4
			c0.6-0.2,1.1-0.1,1.7-0.4c1.8-0.9,3.7-1.5,5.6-2.3c0.3-0.1,0.6-0.5,0.9-0.6c0.5-0.1,0.9-0.2,1.4-0.3c1-0.5,2.1-1.1,3.2-1.6
			c0.7-0.3,1.4-0.2,1.9-0.7c0.5,0,0.8,0.1,1,0.3c0.1,0.1,0.4,1.2,0.1,1.6c-0.1,0.9-0.8,0.4-1.5,0.7c-0.2,0.1-0.5,0.5-0.8,0.6
			c-0.6,0.2-1.1,0.3-1.6,0.6c-0.2,0.2-0.1,0.3-0.4,0.4c0,0.3,0,0.4,0.1,0.6c0.9-0.1,3.3-1.1,4.1-0.6c0.3,0.1,0.3,0.2,0.5,0.3
			c0.1,0.7,0.4,1.4,0,2c0,0.1-0.2,0.5-0.3,0.5l-1.5,0.3c-0.5,0.2-1,0.7-1.5,0.9c0,0.4,0.1,0.5,0.2,0.7c1.4,0,1.8-0.8,3.1-0.6
			c0.4,0.8,0.4,2.6,0,3c-0.3,0.2-0.8,0.1-1.2,0.3c-0.5,0.2-1.3,0.6-1.8,0.8c0,0.4,0.1,0.5,0.3,0.7c0.6,0.4,1.8-0.7,2.8-0.1
			c0.2,0.1,0.2,0.1,0.3,0.3c0.1,0.1,0.1,1.7-0.1,2c0,0.3,0,0.6-0.2,0.7c-0.5,0.3-1,0.1-1.4,0.3c-0.4,0.2-0.7,0.7-1,0.9
			c0,0.2,0,0.3,0.1,0.4v0.2c0.9-0.1,1.8-0.9,2.5-0.4c0.6,0.3,0.3,1.4,0.4,1.7c0,0.3,0,0.6-0.1,0.8c-0.4,0.1-1.2-0.1-1.6,0.1
			c-0.6,0.2-1.1,0.7-1.8,0.8c0,0.3,0,0.5,0.1,0.7c0.6,0,2.8-0.4,3-0.3c0.3,0,0.5,0,0.6,0.1c0.3,0.4,0.1,1.6,0.5,2.2
			c0,1.3-1.9,1.3-2.9,1.7c0,0.3,0,0.4,0.2,0.6v0.2c0.5,0,1.7-0.4,2.2-0.1c0.3,0,0.5,0,0.6,0.1c0.4,0.5,0.5,2.1,0,2.6
			c-0.3,0.3-0.8,0.1-1.2,0.3c-0.5,0.2-1,0.6-1.6,0.8c0,0.2,0,0.2-0.1,0.3c0.1,0.3,0.1,0.2,0.2,0.5c0.8,0,2.5-0.6,2.9-0.3
			c0.1,0,0.2,0.1,0.3,0.1c0.1,0.4,0.2,1.6,0.2,1.7v0.6c-0.1,0.2-2.5,1.4-2.9,1.6c0,0.3-0.1,0.3,0,0.5v0.2c0.9,0.1,1.9-0.6,2.5-0.4
			c0.3,0,0.4,0,0.5,0.1c0.4,0.4,0.2,1.8,0.6,2.5v0.9c-0.1,0.1-2.3,0.9-2.6,1v0.6c1.5,0,1.9-0.4,3,0.1c0.3,0.7,0.4,1.6,0.3,2.6
			c-0.4,0.2-1.1,0-1.6,0.2c-0.3,0.1-0.5,0.3-0.9,0.4c0,0.4-0.1,0.5-0.2,0.8c0.1,0.1,0.1,0.1,0.2,0.2c0.8,0,2.2-0.5,2.5-0.3
			c0.2,0.1,0.2,0.1,0.4,0.2c0,1,0,1.9,0.2,2.8c0.1,0.5-0.3,1.1-0.3,1.1c0.1,0.1,0.1-0.1,0.2,0.1c-0.5,0.3-0.8,0.2-1.5,0.4
			c-0.4,0.1-0.7,0.5-1.1,0.6c0,0.5,0.1,0.5,0.3,0.8c0.6-0.1,1.6-0.4,2.2,0c0.1,0,0.2,0.1,0.3,0.1c0,0.5,0.3,1.7,0,2.2
			c-0.2,0.5-1.7,1-2.2,1.3c0,0.3-0.1,0.5-0.1,0.8c0.8,0,1.9-0.5,2.4,0c0.6,0.3,0.7,2.5,0.4,3c-0.4,0.1-0.7,0.1-1.1,0.2
			c-0.4,0.2-0.7,0.6-1.1,0.8c0,0.3,0,0.4,0.1,0.6c0.6,0.1,1.4-0.3,1.8-0.1c0.4,0,0.4,0.1,0.7,0.2c0.1,0.8,0.2,2.3,0.4,3.1
			c-0.3,0.2-0.4,0.6-0.7,0.7h-0.6c-0.5,0.3-0.5,0.7-1.3,0.8c-0.1,0.2,0,0.1-0.1,0.2c0,0.5,0.1,0.5,0.2,0.8c0.6-0.1,1.4-0.4,1.8-0.2
			c0.3,0,0.3,0,0.5,0.1c0.1,0.7-0.1,3.2,0.2,3.7c-0.1,0.4-0.2,0.4-0.4,0.7c-0.6,0-0.8,0.2-1.3,0.3v0.3c-0.6,0.1-0.9,0.3-1.2,0.6
			c0,0.5,0.1,0.4,0.3,0.7c0.8,0,1.8-0.7,2.5-0.3c0.5,0.2,0.6,3.4,0.4,3.7c-0.3,0.3-1.7,0.8-2.2,1c0.1,0.4,0.2,0.5,0.3,0.8
			c0.8,0,1.4-0.4,2,0c0.3,0.4,0.4,2.6,0.2,3c-0.1,0.6-1.8,1.7-2.4,1.8v0.7c1,0.2,1.9-0.6,2.6-0.1c0.9,0.6,0.2,3.7,0.8,4.7
			c-0.7,0.6-2.9,1.3-3.3,2.1c-0.1,0.1,0,0-0.1,0.2c1.3,0.9,2.3-1.4,3.5-0.5h0.2c0,0.9,0.2,2.9,0.4,3.2
			C501.4,319.8,499.4,321,498.5,321.9z"/>
	</g>
</g>
</svg>
