<?xml version="1.0" encoding="utf-8"?>
<!-- Generator: Adobe Illustrator 19.2.1, SVG Export Plug-In . SVG Version: 6.00 Build 0)  -->
<svg version="1.1" id="Calque_1" xmlns="http://www.w3.org/2000/svg" xmlns:xlink="http://www.w3.org/1999/xlink" x="0px" y="0px"
	 viewBox="0 0 841.89 595.28" enable-background="new 0 0 841.89 595.28" xml:space="preserve">
<path fill-rule="evenodd" clip-rule="evenodd" fill="#E30613" d="M419.769,237.127c0,0,3.413-10.453,10.24-11.52
	C436.835,224.54,419.769,237.127,419.769,237.127z"/>
<path fill-rule="evenodd" clip-rule="evenodd" fill="#E30613" d="M364.089,241.82c0,0-8.32-3.413-9.813-10.027
	C352.782,225.18,364.089,241.82,364.089,241.82z"/>
<g>
	<path fill-rule="evenodd" clip-rule="evenodd" fill="#E30613" d="M348.089,252.273c0,0-13.653-5.547-22.187,0.64
		C317.369,259.1,348.089,252.273,348.089,252.273z"/>
	<path fill-rule="evenodd" clip-rule="evenodd" fill="#E30613" d="M391.182,285.127c0,0-10.24,29.227,1.28,28.8
		C403.982,313.5,391.182,285.127,391.182,285.127z"/>
	<path fill-rule="evenodd" clip-rule="evenodd" fill="#E30613" d="M407.395,210.033c0,0-4.053-14.72,2.987-19.84
		C417.422,185.073,407.395,210.033,407.395,210.033z"/>
	<path fill-rule="evenodd" clip-rule="evenodd" fill="#E30613" d="M386.915,217.927c0,0-10.027-8.96-7.68-17.28
		C381.582,192.327,386.915,217.927,386.915,217.927z"/>
	<path fill-rule="evenodd" clip-rule="evenodd" fill="#E30613" d="M362.317,258.364c0,0-4.628-7.371-11.668-10.144
		c-7.04-2.773-10.027-8.533-8.32-12.16c1.707-3.627,10.667,0,13.867,6.187c3.2,6.187,11.733,4.907,11.947,0.427
		c0.213-4.48-3.627-12.8-8.107-14.933c-4.48-2.133-14.507-10.88-10.027-18.56c4.48-7.68,15.147-1.28,16,6.187
		c0.853,7.467,2.987,20.907,8.533,20.053c5.547-0.853,0.213-8.107,0.64-13.44c0.427-5.333,5.547-5.333,6.827-2.133
		c1.28,3.2,0.427,16.213,5.547,15.573c5.12-0.64,10.88-5.333,9.387-13.013c-1.493-7.68,6.187-10.667,14.293-6.613
		c8.107,4.053,7.467,11.733,3.627,15.36c-3.84,3.627-1.944,10.368,1.695,10.411c3.639,0.042,8.545-5.291,15.585-1.024
		c7.04,4.267,1.707,14.293-5.547,14.293c-7.253,0-8.96,3.413-4.907,6.827c4.053,3.413,10.453,10.24,2.56,11.52
		c-7.893,1.28-20.053-7.04-20.053-7.04s8.96,17.067,0.427,14.08c-8.533-2.987-11.307-13.653-18.133-7.893
		c-6.827,5.76-2.56,17.493-6.4,24.533s-20.267,8.96-18.773-2.347c1.493-11.307,6.613-10.667,7.467-16.213
		c0.853-5.547-1.517-3.605-6.945-1.696c-5.428,1.909-13.416,3.232-8.628-1.504c4.788-4.736,8.759-7.798,1.493-7.467
		c-7.265,0.331-9.173-6.827-3.2-6.613C357.475,261.233,363.958,265.095,362.317,258.364z"/>
</g>
<g>
	<path fill-rule="evenodd" clip-rule="evenodd" fill="#ED6EA7" d="M303.368,320.517c0,0-4.437,10.923,0.512,17.749
		C308.83,345.093,303.368,320.517,303.368,320.517z"/>
	<path fill-rule="evenodd" clip-rule="evenodd" fill="#ED6EA7" d="M329.651,286.042c0,0,23.381,8.192,23.04-1.024
		C352.35,275.802,329.651,286.042,329.651,286.042z"/>
	<path fill-rule="evenodd" clip-rule="evenodd" fill="#ED6EA7" d="M269.576,273.072c0,0-11.776,3.243-15.872-2.389
		S269.576,273.072,269.576,273.072z"/>
	<path fill-rule="evenodd" clip-rule="evenodd" fill="#ED6EA7" d="M275.891,289.456c0,0-7.168,8.021-13.824,6.144
		C255.411,293.722,275.891,289.456,275.891,289.456z"/>
	<path fill-rule="evenodd" clip-rule="evenodd" fill="#ED6EA7" d="M308.241,309.135c0,0-5.897,3.702-8.115,9.334
		c-2.219,5.632-6.827,8.021-9.728,6.656c-2.901-1.365,0-8.533,4.949-11.093c4.949-2.56,3.925-9.387,0.341-9.557
		c-3.584-0.171-10.24,2.901-11.947,6.485c-1.707,3.584-8.704,11.605-14.848,8.021c-6.144-3.584-1.024-12.117,4.949-12.8
		c5.973-0.683,16.725-2.389,16.043-6.827c-0.683-4.437-6.485-0.171-10.752-0.512c-4.267-0.341-4.267-4.437-1.707-5.461
		c2.56-1.024,12.971-0.341,12.459-4.437c-0.512-4.096-4.267-8.704-10.411-7.509c-6.144,1.195-8.533-4.949-5.291-11.435
		c3.243-6.485,9.387-5.973,12.288-2.901c2.901,3.072,8.295,1.555,8.329-1.356c0.034-2.911-4.233-6.836-0.819-12.468
		c3.413-5.632,11.435-1.365,11.435,4.437c0,5.803,2.731,7.168,5.461,3.925c2.731-3.243,8.192-8.363,9.216-2.048
		c1.024,6.315-5.632,16.043-5.632,16.043s13.653-7.168,11.264-0.341c-2.389,6.827-10.923,9.045-6.315,14.507
		s13.995,2.048,19.627,5.12c5.632,3.072,7.168,16.213-1.877,15.019c-9.045-1.195-8.533-5.291-12.971-5.973
		c-4.437-0.683-2.884,1.214-1.357,5.556c1.527,4.343,2.585,10.733-1.203,6.903c-3.789-3.831-6.238-7.007-5.973-1.195
		c0.265,5.812-5.461,7.339-5.291,2.56C310.536,313.008,313.626,307.822,308.241,309.135z"/>
</g>
<g>
	<path fill-rule="evenodd" clip-rule="evenodd" fill="#FFCC00" d="M376.229,194.484c0,0-13.653-5.547-22.187,0.64
		C345.509,201.311,376.229,194.484,376.229,194.484z"/>
	<path fill-rule="evenodd" clip-rule="evenodd" fill="#FFCC00" d="M419.323,227.338c0,0-10.24,29.227,1.28,28.8
		C432.123,255.711,419.323,227.338,419.323,227.338z"/>
	<path fill-rule="evenodd" clip-rule="evenodd" fill="#FFCC00" d="M435.536,152.244c0,0-4.053-14.72,2.987-19.84
		C445.563,127.284,435.536,152.244,435.536,152.244z"/>
	<path fill-rule="evenodd" clip-rule="evenodd" fill="#FFCC00" d="M415.056,160.138c0,0-10.027-8.96-7.68-17.28
		C409.723,134.538,415.056,160.138,415.056,160.138z"/>
	<path fill-rule="evenodd" clip-rule="evenodd" fill="#FFCC00" d="M390.457,200.575c0,0-4.628-7.371-11.668-10.144
		c-7.04-2.773-10.027-8.533-8.32-12.16c1.707-3.627,10.667,0,13.867,6.187c3.2,6.187,11.733,4.907,11.947,0.427
		c0.213-4.48-3.627-12.8-8.107-14.933c-4.48-2.133-14.507-10.88-10.027-18.56c4.48-7.68,15.147-1.28,16,6.187
		c0.853,7.467,2.987,20.907,8.533,20.053c5.547-0.853,0.213-8.107,0.64-13.44c0.427-5.333,5.547-5.333,6.827-2.133
		c1.28,3.2,0.427,16.213,5.547,15.573s10.88-5.333,9.387-13.013c-1.493-7.68,6.187-10.667,14.293-6.613
		c8.107,4.053,7.467,11.733,3.627,15.36c-3.84,3.627-1.944,10.368,1.695,10.411c3.639,0.042,8.545-5.291,15.585-1.024
		c7.04,4.267,1.707,14.293-5.547,14.293c-7.253,0-8.96,3.413-4.907,6.827c4.053,3.413,10.453,10.24,2.56,11.52
		c-7.893,1.28-20.053-7.04-20.053-7.04s8.96,17.067,0.427,14.08c-8.533-2.987-11.307-13.653-18.133-7.893
		c-6.827,5.76-2.56,17.493-6.4,24.533s-20.267,8.96-18.773-2.347c1.493-11.307,6.613-10.667,7.467-16.213
		c0.853-5.547-1.517-3.605-6.945-1.696c-5.428,1.909-13.416,3.231-8.628-1.504c4.788-4.736,8.759-7.798,1.493-7.467
		c-7.265,0.331-9.173-6.827-3.2-6.613C385.616,203.444,392.099,207.306,390.457,200.575z"/>
</g>
<g>
	<path fill-rule="evenodd" clip-rule="evenodd" fill="#9B539B" d="M340.563,131.336c0,0,4.437-10.923-0.512-17.749
		C335.102,106.76,340.563,131.336,340.563,131.336z"/>
	<path fill-rule="evenodd" clip-rule="evenodd" fill="#9B539B" d="M314.281,165.811c0,0-23.381-8.192-23.04,1.024
		C291.582,176.051,314.281,165.811,314.281,165.811z"/>
	<path fill-rule="evenodd" clip-rule="evenodd" fill="#9B539B" d="M374.355,178.781c0,0,11.776-3.243,15.872,2.389
		S374.355,178.781,374.355,178.781z"/>
	<path fill-rule="evenodd" clip-rule="evenodd" fill="#9B539B" d="M368.041,162.398c0,0,7.168-8.021,13.824-6.144
		C388.521,158.131,368.041,162.398,368.041,162.398z"/>
	<path fill-rule="evenodd" clip-rule="evenodd" fill="#9B539B" d="M335.69,142.719c0,0,5.897-3.702,8.116-9.334
		c2.219-5.632,6.827-8.021,9.728-6.656c2.901,1.365,0,8.533-4.949,11.093c-4.949,2.56-3.925,9.387-0.341,9.557
		c3.584,0.171,10.24-2.901,11.947-6.485c1.707-3.584,8.704-11.605,14.848-8.021c6.144,3.584,1.024,12.117-4.949,12.8
		c-5.973,0.683-16.725,2.389-16.043,6.827c0.683,4.437,6.485,0.171,10.752,0.512c4.267,0.341,4.267,4.437,1.707,5.461
		c-2.56,1.024-12.971,0.341-12.459,4.437c0.512,4.096,4.267,8.704,10.411,7.509c6.144-1.195,8.533,4.949,5.291,11.435
		c-3.243,6.485-9.387,5.973-12.288,2.901c-2.901-3.072-8.295-1.555-8.329,1.356c-0.034,2.911,4.233,6.836,0.82,12.468
		c-3.413,5.632-11.435,1.365-11.435-4.437c0-5.803-2.731-7.168-5.461-3.925c-2.731,3.243-8.192,8.363-9.216,2.048
		c-1.024-6.315,5.632-16.043,5.632-16.043s-13.653,7.168-11.264,0.341c2.389-6.827,10.923-9.045,6.315-14.507
		s-13.995-2.048-19.627-5.12c-5.632-3.072-7.168-16.213,1.877-15.019c9.045,1.195,8.533,5.291,12.971,5.973
		c4.437,0.683,2.884-1.214,1.356-5.556c-1.527-4.342-2.585-10.733,1.204-6.902c3.788,3.83,6.238,7.007,5.973,1.195
		c-0.265-5.812,5.461-7.339,5.291-2.56C333.395,138.846,330.306,144.032,335.69,142.719z"/>
</g>
<g>
	<path fill-rule="evenodd" clip-rule="evenodd" fill="#62C6ED" d="M470.151,186.808c0,0-5.732-13.576-16.141-15.236
		C443.602,169.913,470.151,186.808,470.151,186.808z"/>
	<path fill-rule="evenodd" clip-rule="evenodd" fill="#62C6ED" d="M477.392,240.511c0,0-27.907,13.426-19.46,21.27
		C466.38,269.625,477.392,240.511,477.392,240.511z"/>
	<path fill-rule="evenodd" clip-rule="evenodd" fill="#62C6ED" d="M541.955,198.876c0,0,7.542-13.275,16.141-11.917
		C566.695,188.317,541.955,198.876,541.955,198.876z"/>
	<path fill-rule="evenodd" clip-rule="evenodd" fill="#62C6ED" d="M521.892,189.976c0,0-0.754-13.426,6.788-17.649
		C536.223,168.103,521.892,189.976,521.892,189.976z"/>
	<path fill-rule="evenodd" clip-rule="evenodd" fill="#62C6ED" d="M475.905,201.176c0,0,1.94-8.484-1.077-15.424
		s-1.056-13.124,2.715-14.481c3.771-1.358,7.542,7.542,5.43,14.18s4.827,11.766,8.146,8.749s6.487-11.615,4.827-16.292
		c-1.659-4.676-2.564-17.951,6.034-20.214c8.598-2.263,11.615,9.805,6.939,15.688c-4.676,5.883-12.671,16.895-8.146,20.214
		c4.526,3.319,5.883-5.581,9.956-9.051c4.073-3.469,7.693,0.151,6.336,3.319c-1.358,3.168-11.163,11.766-7.09,14.934
		c4.073,3.168,11.465,3.922,15.839-2.564c4.375-6.487,11.917-3.168,14.783,5.431c2.866,8.598-3.017,13.576-8.297,13.426
		c-5.28-0.151-8.706,5.957-6.163,8.56s9.784,2.301,11.745,10.296c1.961,7.995-8.9,11.314-14.029,6.185
		c-5.129-5.129-8.749-3.922-8.297,1.358c0.453,5.28,0.151,14.632-6.336,9.956c-6.487-4.676-9.202-19.158-9.202-19.158
		s-5.732,18.404-9.654,10.258c-3.922-8.146,1.659-17.649-7.241-18.404c-8.9-0.754-14.18,10.56-21.873,12.822
		c-7.693,2.263-20.666-7.995-11.615-14.934c9.051-6.939,12.219-2.866,16.744-6.185c4.525-3.319,1.476-3.622-3.712-6.11
		c-5.188-2.488-11.772-7.202-5.037-7.165c6.734,0.037,11.707,0.68,6.336-4.224c-5.371-4.903-1.659-11.314,2.414-6.939
		C470.453,199.781,472.306,207.096,475.905,201.176z"/>
</g>
<g>
	<path fill-rule="evenodd" clip-rule="evenodd" fill="#6AB42D" d="M265.273,244.439c0,0-5.547,13.653,0.64,22.187
		C272.1,275.159,265.273,244.439,265.273,244.439z"/>
	<path fill-rule="evenodd" clip-rule="evenodd" fill="#6AB42D" d="M298.127,201.346c0,0,29.227,10.24,28.8-1.28
		C326.5,188.546,298.127,201.346,298.127,201.346z"/>
	<path fill-rule="evenodd" clip-rule="evenodd" fill="#6AB42D" d="M223.033,185.132c0,0-14.72,4.053-19.84-2.987
		C198.073,175.106,223.033,185.132,223.033,185.132z"/>
	<path fill-rule="evenodd" clip-rule="evenodd" fill="#6AB42D" d="M230.927,205.612c0,0-8.96,10.027-17.28,7.68
		C205.327,210.946,230.927,205.612,230.927,205.612z"/>
	<path fill-rule="evenodd" clip-rule="evenodd" fill="#6AB42D" d="M271.364,230.211c0,0-7.371,4.628-10.144,11.668
		c-2.773,7.04-8.533,10.027-12.16,8.32c-3.627-1.707,0-10.667,6.187-13.867c6.187-3.2,4.907-11.733,0.427-11.947
		s-12.8,3.627-14.933,8.107c-2.133,4.48-10.88,14.507-18.56,10.027c-7.68-4.48-1.28-15.147,6.187-16
		c7.467-0.853,20.907-2.987,20.053-8.533c-0.853-5.547-8.107-0.213-13.44-0.64c-5.333-0.427-5.333-5.547-2.133-6.827
		c3.2-1.28,16.213-0.427,15.573-5.547c-0.64-5.12-5.333-10.88-13.013-9.387c-7.68,1.493-10.667-6.187-6.613-14.293
		c4.053-8.107,11.733-7.467,15.36-3.627c3.627,3.84,10.368,1.944,10.411-1.695c0.042-3.639-5.291-8.545-1.024-15.585
		c4.267-7.04,14.293-1.707,14.293,5.547c0,7.253,3.413,8.96,6.827,4.907c3.413-4.053,10.24-10.453,11.52-2.56
		c1.28,7.893-7.04,20.053-7.04,20.053s17.067-8.96,14.08-0.427c-2.987,8.533-13.653,11.307-7.893,18.133
		c5.76,6.827,17.493,2.56,24.533,6.4c7.04,3.84,8.96,20.267-2.347,18.773c-11.307-1.493-10.667-6.613-16.213-7.467
		c-5.547-0.853-3.605,1.517-1.696,6.945c1.909,5.428,3.232,13.416-1.504,8.628c-4.736-4.788-7.797-8.759-7.467-1.493
		s-6.827,9.173-6.613,3.2C274.233,235.052,278.095,228.57,271.364,230.211z"/>
</g>
<g>
	<path fill-rule="evenodd" clip-rule="evenodd" fill="#F39200" d="M378.815,304.143c0,0,3.883-9.557-0.448-15.531
		C374.037,282.639,378.815,304.143,378.815,304.143z"/>
	<path fill-rule="evenodd" clip-rule="evenodd" fill="#F39200" d="M355.818,334.309c0,0-20.459-7.168-20.16,0.896
		S355.818,334.309,355.818,334.309z"/>
	<path fill-rule="evenodd" clip-rule="evenodd" fill="#F39200" d="M408.383,345.658c0,0,10.304-2.837,13.888,2.091
		C425.855,352.677,408.383,345.658,408.383,345.658z"/>
	<path fill-rule="evenodd" clip-rule="evenodd" fill="#F39200" d="M402.858,331.322c0,0,6.272-7.019,12.096-5.376
		C420.778,327.589,402.858,331.322,402.858,331.322z"/>
	<path fill-rule="evenodd" clip-rule="evenodd" fill="#F39200" d="M374.552,314.103c0,0,5.16-3.24,7.101-8.168
		c1.941-4.928,5.973-7.019,8.512-5.824c2.539,1.195,0,7.467-4.331,9.707c-4.331,2.24-3.435,8.213-0.299,8.363
		c3.136,0.149,8.96-2.539,10.453-5.675c1.493-3.136,7.616-10.155,12.992-7.019c5.376,3.136,0.896,10.603-4.331,11.2
		c-5.227,0.597-14.635,2.091-14.037,5.973c0.597,3.883,5.675,0.149,9.408,0.448c3.733,0.299,3.733,3.883,1.493,4.779
		c-2.24,0.896-11.349,0.299-10.901,3.883c0.448,3.584,3.733,7.616,9.109,6.571c5.376-1.045,7.467,4.331,4.629,10.005
		c-2.837,5.675-8.213,5.227-10.752,2.539c-2.539-2.688-7.258-1.361-7.288,1.186c-0.03,2.547,3.704,5.982,0.717,10.91
		c-2.987,4.928-10.005,1.195-10.005-3.883c0-5.077-2.389-6.272-4.779-3.435c-2.389,2.837-7.168,7.317-8.064,1.792
		c-0.896-5.525,4.928-14.037,4.928-14.037s-11.947,6.272-9.856,0.299c2.091-5.973,9.557-7.915,5.525-12.693
		c-4.032-4.779-12.245-1.792-17.173-4.48c-4.928-2.688-6.272-14.187,1.643-13.141c7.915,1.045,7.467,4.629,11.349,5.227
		c3.883,0.597,2.523-1.062,1.187-4.862c-1.336-3.8-2.262-9.391,1.053-6.04c3.315,3.352,5.458,6.131,5.227,1.045
		s4.779-6.421,4.629-2.24C372.543,310.714,369.84,315.252,374.552,314.103z"/>
</g>
<g>
	<path fill-rule="evenodd" clip-rule="evenodd" fill="#312783" d="M450.522,307.969c0,0-3.55,8.738,0.41,14.199
		C454.891,327.63,450.522,307.969,450.522,307.969z"/>
	<path fill-rule="evenodd" clip-rule="evenodd" fill="#312783" d="M471.548,280.389c0,0,18.705,6.554,18.432-0.819
		S471.548,280.389,471.548,280.389z"/>
	<path fill-rule="evenodd" clip-rule="evenodd" fill="#312783" d="M423.489,270.013c0,0-9.421,2.594-12.698-1.911
		C407.514,263.596,423.489,270.013,423.489,270.013z"/>
	<path fill-rule="evenodd" clip-rule="evenodd" fill="#312783" d="M428.54,283.12c0,0-5.734,6.417-11.059,4.915
		C412.156,286.534,428.54,283.12,428.54,283.12z"/>
	<path fill-rule="evenodd" clip-rule="evenodd" fill="#312783" d="M454.42,298.863c0,0-4.717,2.962-6.492,7.467
		c-1.775,4.506-5.461,6.417-7.782,5.325c-2.321-1.092,0-6.827,3.96-8.875s3.14-7.509,0.273-7.646
		c-2.867-0.137-8.192,2.321-9.557,5.188c-1.365,2.867-6.963,9.284-11.878,6.417c-4.915-2.867-0.819-9.694,3.96-10.24
		c4.779-0.546,13.38-1.911,12.834-5.461c-0.546-3.55-5.188-0.137-8.602-0.41c-3.413-0.273-3.413-3.55-1.365-4.369
		c2.048-0.819,10.376-0.273,9.967-3.55s-3.413-6.963-8.328-6.008c-4.915,0.956-6.827-3.96-4.233-9.148
		c2.594-5.188,7.509-4.779,9.83-2.321c2.321,2.458,6.636,1.244,6.663-1.085c0.027-2.329-3.386-5.469-0.656-9.975
		c2.731-4.506,9.148-1.092,9.148,3.55c0,4.642,2.185,5.734,4.369,3.14c2.185-2.594,6.554-6.69,7.373-1.638
		c0.819,5.052-4.506,12.834-4.506,12.834s10.923-5.734,9.011-0.273c-1.911,5.461-8.738,7.236-5.052,11.605
		c3.686,4.369,11.196,1.638,15.701,4.096c4.506,2.458,5.734,12.971-1.502,12.015c-7.236-0.956-6.827-4.233-10.377-4.779
		c-3.55-0.546-2.307,0.971-1.085,4.445c1.222,3.474,2.068,8.586-0.963,5.522c-3.031-3.064-4.99-5.605-4.779-0.956
		c0.212,4.65-4.369,5.871-4.233,2.048C456.257,301.962,458.728,297.813,454.42,298.863z"/>
</g>
</svg>
