<?xml version="1.0" encoding="utf-8"?>
<!-- Generator: Adobe Illustrator 21.0.0, SVG Export Plug-In . SVG Version: 6.00 Build 0)  -->
<svg version="1.1" id="Calque_1" xmlns="http://www.w3.org/2000/svg" xmlns:xlink="http://www.w3.org/1999/xlink" x="0px" y="0px"
	 viewBox="0 0 841.9 595.3" style="enable-background:new 0 0 841.9 595.3;" xml:space="preserve">
<style type="text/css">
	.st0{fill:#DADADA;}
	.st1{fill:#1D1D1B;}
	.st2{fill:none;stroke:#1D1D1B;stroke-miterlimit:10;}
</style>
<ellipse class="st0" cx="442.8" cy="409.2" rx="64.4" ry="9.8"/>
<g>
	<g>
		<path class="st1" d="M428.1,321.6c1,0,2.2-0.4,3.3,0.1c1,0,1.1-0.7,1.2-1.3c2-1.1,5-0.1,7.6-0.4c2.2,0,4.5,0,6.9,0
			c2.4-0.5,4.7-1.1,6.7-2.1c2.8-1.2,5.1-3.9,6.9-6.4c0.9-1.2,3.2-2.6,4.2-3.9c2-2.8,3.8-6.1,5.5-8.7c1.2-1.8,1.7-4,2.7-6.1
			c0.4-0.7,1.2-1.6,1.6-2.4c0.6-1.3,0.9-3.8,1.7-4.9c0.1-0.1,0.4-0.2,0.5-0.5c0.6-1.6,0.2-2.9,0.9-4.2c1.1-2.2,2.3-4.4,3.4-6.5
			c0.5-0.9,1.1-1.7,1.7-2.6c0.1-0.1,0.2-0.2,0.5-0.4c1,1.7,0.4,8.8,2,9.8c0.4,0.2,0.9,0.4,1.3,0.2c2.2-1,2.7-6.2,2.7-8.5
			c0.1-0.1,0.1-0.1,0.5-0.1c0.9,1.7,2.3,2.6,3.3,3.9c1,1.2,1.7,2.7,2.6,3.9c0.5,1,1,2,1.3,2.8c1,1.2,2.7,2.8,3.7,4.3
			c0.5,0.7,0.7,1.2,1.3,1.7c2.3,1.6,6.5-1.5,7.5-3.1c4.5-7.2-1.3-20.8-6.5-25.5c-1.8-1.6-3.9-3.1-5.8-4.7c-0.2,0.2-2-1-2.2-1.2
			c-0.2-0.5-0.5-1.1-0.7-1.6c-2.1-2.7-6.1-5-9.1-6.4c-5.3-2.3-8.8,4.3-11.3,7.8c-0.7,1-3.1,4-2.8,5.6c0.2,0.7,0.5,1.6,0.7,2.3
			c-0.9,3.7-7.3,7.8-9.9,10.8c-3.8,4.3-8.6,7.1-11.6,12.1c-0.4,0.5-0.5,3.6-0.9,4.3c-1.1,2.8-2.4,6.2-2.4,9.4c-2.8,2-9.3-0.6-11.5-1
			c-0.1-0.6,0.1-1.3-0.2-1.8c-1-1.2-5.4-2.3-7.1-3.1c-0.7-0.6-1.6-1.2-2.4-1.7c-3.1-1.8-6-3.7-8.6-5.9c-1.3-1.1-0.7-3.4-1.7-5
			c-0.7-1.8-1.5-3.8-2.2-5.6c-0.6-0.7-1.3-1.6-2-2.4c0.9-1.6,1.2-3.8,0.1-5.5c-0.4-0.5-0.7-1-1.1-1.3c0-0.4,0.1-0.9,0.1-1.2
			c-0.6-1.7-2-3.7-2.4-5.8c-3.1-13-3.8-25-7.3-37.2l0.1-0.1c0.4-0.5,1.6-0.1,2.6-0.2c1-0.1,5.8-0.7,6.4,0.1c0.2,1.1,0.6,2.3,1,3.6
			c1.5,4.3,1.2,9.9,2.4,14.5c1,3.8,2.1,7.6,3.2,11.3c0.4,0.9-3.4,2.6-3.2,4.3c0.6,3.3,1.3,6.5,2.3,9.7c0.1,0.7,0.2,1.5,0.2,2.1
			c0.5,1.3,0.9,3.2,1.8,3.9c0,0,0,0,0.1,0.1c0.4,2.2,2.7,2.9,4.7,2c2.1,3.4,2,6.4,5.8,8.2c1.5-1.1,3.1,0.9,4.2,0.5
			c0.4-0.1,1.6-0.5,2.1-0.7c0.2-0.4,0.6-0.9,0.9-1.2c0.9-0.4,1.7,0.1,2.3-0.4l0.1-0.1c0.4-0.7,0.7-1.5,1.1-2.1
			c0.5-0.4,1.1-0.9,1.6-1.2c0,0,0.2-0.9,0.2-1.3c0,0,0,0,0.1-0.1c-0.5-2.9-1.7-6-2.7-8.9c-0.4-1.5-0.6-3.1-1-4.5
			c-0.4-0.5-0.6-1-1-1.5c0-0.6-0.1-1.3-0.2-2.1c-0.5-1.1-1-2.2-1.3-3.2c-1.5-2.2-5.3-2.9-5.9-5.8c-2.3-9.9,0.6-21.9-2.2-32.5
			c0-0.5,0-1,0.1-1.5c-0.5-1.3-1.1-2.7-1.6-4c-4.9-8.3-20.3-7.3-28.9-9.8c-3.3-1-9.4,0.6-11.3-2.7c-0.2-0.5-0.2-1.2-0.4-1.6
			c-1-2-3.1-3.8-3.7-5.8c-0.7-2.6-0.9-4.5-1.7-7.1c0.2-0.7-0.5-3.3-0.6-3.4c0-0.1,0-0.4,0-0.5c-0.2-1.5-0.6-4-1.1-5
			c-1-2.2-2.1-4.4-3.1-6.5c-0.7-1.1-1.6-2.3-2.3-3.4c-0.4-0.9-0.7-1.7-1.1-2.4c-1.7-2.4-4.8-4.4-7.6-5.6c-0.9-0.4-1.8,0-2.4-0.2
			c-1.3-0.6-3.1-0.9-4.3-0.6c-0.5-1-1.1-1.7-2-2.4c-2.4,0.4-4.2,0-3.8,3.4c-0.7-0.1-1,0.5-1.6,1c-2.3,1.6-3.3,3.1-5.1,4.8
			c-0.6,0.6-0.7,1.5-1.5,2c-0.4,0.6-2.7,0.4-3.7,0c-3.2-1.1-6.4-2.8-10.4-1.5c0,0,0.1,0,0.2,0.1c0.2,0,0.4,0,0.5,0
			c0.2,0,0.4,0,0.4,0.1c2.8,0.4,11.6,1.2,12.6,3.4c-0.1,0.5-0.4,1.1-0.6,1.7c-3.6,1-6.9,0.5-10.3-1.2c-2-1-2.6-0.1-3.7-1.8
			c0-0.7,0.4-1.2,1-1.2c0-0.1,0.9-0.6,0.9-0.6c-0.1-0.1-0.2-0.1-0.4-0.1c-0.1,0-0.4,0-0.5,0c-0.2,0-0.5,0-0.6,0.1
			c-0.6,0.2-1.3,0.6-2,1c-0.1,0.1-0.2,0.7-0.4,1.1c1.5,3.4,9.8,4.7,12,5c1.3,0.2,2.6-0.6,3.6,0.2c1.3,1.1-0.2,3.2,0.6,4.7
			c0.4,0.6,1.6,0.9,2.1,1.5c1.1,1.8,0.4,5.5,0.6,6.2c0.5,1.5,0.4,2.4,0.5,4.3c1,0.4,3.7,0,4.3,0.5c0.4,0.2,0.4,1.2,0.6,1.7
			c0.5,0.9,1.7,0.6,2.4,1.5c0.6,0.9,1,3.2,1.6,4c0.4,0.6,1.2,1.1,1.7,1.8c2.3-0.5,3.4-0.9,5.8-1.5c2.2,2.1,5.9,6.1,4.7,9.9
			c-0.2,0.7-4,3.6-4.8,4.5c-0.6,0.7-0.6,1.6-1,2.3c-0.4,1.1-1.5,2.3-2,3.6c-0.7,1.8-0.6,4.3-0.9,6.1c-0.7,8.3,4.4,13.6,5.3,21.1
			c-0.6,0.4-4.5,6.2-4.9,7.2c-4.4,0.7-12.7-3.3-16.4-5.1c-1.8-1-3.4-1.6-4.5-3.3c-1-1.5-0.6-2.8-1.3-4.4c-0.9-1.7-1.3-3.1-2.3-4.7
			c-0.6-1-1.7-1.7-2.6-2.4c-1.3-1-2.4-2.9-3.8-3.8c-0.7-0.6-1.7-0.7-2.1-1.6c-0.6-0.1-2.8-0.7-3.9-0.1c-0.4,0.2-0.5,0.9-0.6,1
			c-1,1-2.2-1-2.9-1.2c-0.7-0.4-1.6-0.4-2.6-0.2c-0.4,0.7-0.9,1.5-1.2,2.1c-0.6,0.4-1.6,0.1-2,1c-0.4,0.4-0.5,2.4,0.1,2.9
			c-0.7,0.5-1.7,0.6-2.1,1.6c-0.9,1,1.2,4.5,1.2,4.7c-0.1,1-1.1,1.7-0.9,2.4c1.7,4.8,10.3,12.4,14.9,14.1c3.3,0.6,6.6,1.2,9.9,1.8
			c0.7,0.6,1.5,1.2,2.2,1.8c1.3,1,3.1,1.7,4.3,2.6c2.3,1.2,4.7,2.4,6.9,3.6c3.4,1,8,2.8,11.8,4.4c0.9,0.4,1.7,0.9,2.4,1.2
			c2.2,0.5,4.2-0.2,6.4-0.4c1.1,3.4,0.6,7,0.6,11c1,1.1,1.8,2.4,3.4,2.9c0.4,1.3-1,2.1-1.3,2.9c-1,1.7-2.6,7-3.1,9.4
			c-0.6,3.2-2.1,6.4-3.1,9.3c-0.7,2.9-1.5,5.9-2.2,8.7c-0.5,1.1-1.1,2.2-1.6,3.2c-1.2,3.3-0.5,7.7-1.5,11.4c0.7,1.3,1.3,1.8,2.2,2.7
			c-0.1,1.3-1.7,4.4-2.7,5.1c-0.2,0.6-0.5,1.2-0.6,1.8c0,0.1-1.8,6.5-2,6.7c0.2,1.3,0.5,2.7,0.6,4c0.6,1.3,3.6,7.1,3.4,8.5
			c0.1,0,0.2,0,0.4-0.1c-0.1,0.1-0.1,0.1-0.2,0.2c0.5,1.5,2.3,4.9,3.4,6c0,0-0.1,0-0.1,0.1c0.2,1.2,1.8,4.5,2.7,5.6
			c2,2.6,2.7,4.5,4.4,7.2c0.6,0.9,2.2,2.3,3.1,3.4c1.1,1.5,2.4,4.3,3.4,6.1c-1.5-0.4-6.1-0.1-6.4,1.8c-1.3,1.2,2.3,4.4,3.6,4.9
			c0-0.1,0-0.2,0.1-0.4c1.1,0.7,2.7,0.7,3.8,1.2c0.5,2.7-0.2,5.4-0.6,8c-1,1-5.3,3.1-5.8,2.4c-1.5,0.5-5.1,0.6-6.4,1.7
			c-0.9,0.7-1,2.2-1.5,3.3c-0.5,0.9-1,0.7-0.9,2c1.6,0.4,3.9,2.9,4.7,2.7c0,0.2,0,0.4,0.1,0.6c0.7-0.1,1.5,0.2,2.4,0.5
			c0.2,0,0.5-0.2,0.5-0.2c2.6,0.2,3.7,1.2,6.4,0.9c0.2,0.4,0.1,0.1,0.1,0.6c0.9,0.1,3.2,0.5,4-0.1c0.5,0.2,1,0.6,1.3,0.9
			c1.1-0.9,2.9,0,4.2-1.5c0.5,0,0.5,0.2,0.5-0.4c0.7,0,3.7-1.5,3.8-1.7c0.2,0.2,0.1,0.1,0.5,0.2c0-0.2-0.1-0.4-0.1-0.6
			c0.9-0.5,1-1,2-1c0.1-0.4,0.2-0.2-0.1-0.5c0.4-0.6,1.1-1,1.5-1.5c0.4-0.4,0.1-2.7,0.2-3.7c-0.1-0.1-0.2-0.2-0.5-0.2
			c0.6-3.2,2.2-4.9,2.2-8.2c0.1,0,0.2,0,0.5,0.1c0-0.1,0-0.1,0-0.2c0.1-0.2,0-0.4-0.2-0.7c0.7-0.5,0.5-1.6,0.9-2.1
			c2-2.9,3.3-7.1,4.7-10.3c0.4-0.9,0-2.4,0.2-2.8c-0.5-0.6-1.6-1-2,0c-0.4-0.4-0.4-0.6-0.6-1.2c0.1,0,0.4,0,0.5,0.1
			c0-0.1,0-0.2,0-0.4c-2-0.6-6.5-3.4-7.5-4.7c-0.4-0.4-0.6-1.8-0.9-2.4c-1-0.2-1.6-0.2-2.3-0.1c-0.2,0.5-0.5,1-0.6,1.5
			c-0.9-0.4-2.3-4.2-2.6-5.4c-0.1-0.2,0,0,0.1-0.2c-2-2.1,0.7-7,0.4-9.3c-0.1-1,0.6-3.1,0.6-3.2c-1-1.5-1-3.4-1.8-4.9
			c-1.1-2-4.2-3.3-5.5-4.9c-0.5-0.6-0.4-1.7-0.7-2.4c-0.2-0.7-0.4-1.6-0.6-2.3c0.1,0.4,0.5-1.3,0.6-2.2c1.8-0.9,3.6,1,5.1-0.4
			c0.5-0.4,0.2-0.9,0.5-1.2c0.5-0.4,1-0.9,1.5-1.2c0.7-1,0.9-2.1,1.7-3.2c0.6-0.9,1.7-2.3,2-2.8c1.5-2.7,2-5.6,3.4-8.3
			c0.7-1.2,2.6-4.8,2.4-6.4c0.2-0.1,0.2-0.1,0.5-0.1c0.6,0.4,1.2,0.7,1.7,1c2.1,1,4.3,1.3,6.2,2.4c3.9,2.2,8.7,3.4,13.2,4.4
			c0.9,0,1.8,0,2.7-0.1C424,321.5,426,321.5,428.1,321.6z M434,315.5c0.1-1.1,0.2-2.3,0.2-3.6c0.6-2.8,1.5-5,0.9-8.1
			c0.5-1,0.6-2.4,0.4-3.1c0-0.1,0-0.2,0.1-0.2c0.5-0.2,0.6,0,1.2,0.1c0,1.6-0.6,3.9,0,4.9c0.1,0.2,0.2,0.2,0.5,0.4
			c0.1-0.1,0.4-0.2,0.6-0.5c1-0.9,0.4-2.7,0.4-4c0-0.1,0.1-0.2,0.2-0.2c0.6,0.1,1.3,0.2,2,0.2c1.3,0.7,0.9,4.2,0.9,5.1
			c0.2,0.1,0.5,0.2,0.7,0.2c0.2,0,0.5-0.1,0.6-0.2c0.1-1.5,0.4-3.1,0.5-4.5c0.2-0.5,1.5-0.2,2-0.2c1-0.1,1.5,2.2,1.6,3.2
			c0.4,0.1,0.6,0.1,1,0.2c0.5-0.7,0.2-1.5,0.6-2.4c-0.2-0.2-0.5-0.4-0.7-0.6c0-0.2,0-0.5,0.1-0.7c1.8-1,0.4-1.3,1.3-2.7
			c0.9-0.5,2.1,1.6,3.2,1c1.2-0.9-2.2-2.9-2.7-3.1c0.1-1,0.2-2.1,0.5-3.1c1.3,0.1,2.2,1,3.7,1.1c0,0,0,0,0.1,0
			c0.1-0.2,0.2-0.5,0.2-0.7c-0.7-1-2-1.6-3.1-2.1c-0.2-1.6,0.9-2.7,1.2-4c0.6-0.4,1.7,0.4,2.7,0.4c0.1-0.1,0.2-0.2,0.4-0.2
			c0-0.1,0.1-0.2,0.1-0.5c-0.6-0.6-1.8-1-2.3-1.7c0.6-1.5,1.2-2.4,2.4-3.3c0.6,0.4,1.7,1.3,2.6,1c0.9-0.6-0.6-1.7-1.1-2.1
			c0-0.1-0.1-0.2-0.1-0.2c0.6-0.9,1.3-1.2,2-2.1c0.7,0.6,1.6,1.2,2.3,1.7c0.4-0.1,0.7-0.2,1-0.2c0.1-1.1-1.2-1.5-1.3-2.8
			c0.6-0.5,1.2-1.1,1.7-1.6c0.7,0.4,1.3,0.7,2.3,1c0.2-0.1,0.5-0.2,0.6-0.5c-0.2-0.7-0.7-1.2-1.1-2c0.7-0.9,1.3-2,2.4-2.4
			c0.5,0.5,1.2,1.7,2.1,1.5c0.1,0,0.2,0,0.2-0.1c0-1.5-0.9-1.6-1-2.8c0.6-0.6,1.3-1.3,2.1-2c1,0.5,1.1,1.2,2.4,1.3
			c0-0.1,0-0.1,0-0.2c0.2-0.2,0.2,0,0.2-0.5c0.1-0.7-1-2.2-1.3-2.4c0.5-0.7,1.1-1.5,1.6-2.1c0.6-0.4,2.2,0.6,3.1,0.7
			c0.1-0.1,0.2-0.2,0.5-0.5c0.1-0.4,0.1-0.6-0.1-0.9c-0.6-0.4-1.3-0.9-2-1.2c-0.4-0.6,0.1-1.3,0.4-2c1.7-1,8.1,4.5,8.9,5.8
			c-0.2,1.8-2.1,3.4-2.9,4.8c-1.8,2.8-3.4,5.9-4.9,8.9c-0.7,1.6-1,3.8-1.7,5.8c-2.2,5.9-5.4,10.7-8.3,15.7c-0.9,1.3-1.3,2.7-2.3,4
			c-1.2,1.2-2.6,2.6-3.8,3.8c-0.4,0.2-1.1,0.5-1.3,0.9c-0.1,0.5-0.2,1-0.5,1.3c-0.6,1.1-2.1,2.7-3.2,3.2c-5.6,2.6-10.7,2.6-16.7,2.9
			c-1.6,0-3.3,0-4.9-0.1C433.1,317.3,433.8,316.3,434,315.5z M402.2,380c0.1,0.1,0.2,0.2,0.2,0.2c-0.1,0-0.2-0.1-0.4-0.1
			C402.2,380.2,402.2,380.2,402.2,380z M400.9,378.5c0.1,0.1,0.1,0,0,0.1C400.9,378.6,400.9,378.6,400.9,378.5z M394.3,405
			c0.1,0,0.4,0,0.5,0.1c0,0-0.1,0-0.1,0.1s0,0.2-0.1,0.2c-0.1,0-0.2-0.1-0.4-0.2C394.2,405.3,394.2,405.2,394.3,405z M394.2,406
			c0,0.2,0.1,0.4,0.1,0.6h-0.1c0,0.1,0,0.1-0.1,0.2c-0.1-0.2-0.2-0.6-0.4-0.9C393.8,406,394.1,406,394.2,406z M393.7,407
			C393.7,407,393.8,407,393.7,407c0.1,0.1,0.1,0.2,0.1,0.5v0.1h-0.1c0-0.1-0.1-0.4-0.2-0.6C393.6,407,393.7,407,393.7,407z
			 M408.8,204.9c2.1,0,4,0.4,5.6,1c1.6-1,6.7,2.8,7.5,3.7c5.1,5.6,4.7,17.8,4.3,25.5c0,1.7,0,4,0.5,5.4c0,1.1-0.1,2.3-0.2,3.6
			c0.4,1.6,0.6,4.5,0.2,5.4c0.4,0.5,0.6,1.6,1.1,2c1.5,1.2,3.7,1.7,4.8,3.2c2.4,3.3,2.8,10.2,4.7,14.7c0.6,1.5,1.7,3.3,1.5,5.4
			c0,0-0.1,0-0.2,0.1c0,0,0,0-0.1,0c-1.1-1.6-3.4-8.1-4.5-8.7c-0.5,0.2-0.7,0.4-1,0.9c1.3,3.6,2.4,6.6,4.2,9.7
			c-0.2,0.4-0.6,0.7-1,1.1c-1.5-0.6-4.7-7.7-5.4-9.7c-0.1,0-0.4,0-0.6,0h-0.1c-1,1.7,3.2,7.7,3.1,11c-0.4,0.1-0.9,0.4-1.2,0.5
			c-2-1.5-2.8-4.4-3.9-7.2c-0.5-1.2-0.6-3.2-1.6-3.8c-0.2,0.1-0.6,0.2-1,0.4c-0.4,1.3,2.7,8.3,3.3,9.6c0,0.1,0,0.2,0,0.5
			c-2.8,0.4-5.4-7.5-5.1-9.7c-0.4-1-1.2-2.2-1.1-3.1c0-0.1,0.1-0.1,0.1-0.2c0.7-1.5,1.3-1.1,2.4-2.1c1.8-1.6,2.8-5.9,2.3-8.7
			c-0.2-0.1-0.5-0.2-0.7-0.5c-0.2,0-0.5,0.1-0.7,0.1c-1.3,1.8-0.2,4.2-1.3,6.4c-0.9,1.7-3.3,2.1-3.8,3.9c-1,2.9,2.4,3.7,0.4,6.5
			c-3.1-0.2-4.3-9.8-5.3-12.6c-0.4-1.1-1-2.8-0.6-4c0.6-1.6,2.6-1.7,3.7-2.6c-0.1-1.2-1-1.8-1.2-2.7c-1.5-4.4-2-8.2-3.3-12.2
			c-0.7-2.3-0.2-6.2-1-8.7c-0.9-3.2-1.7-5.6-2.3-8.7c-0.5-2.3,1-4.7,0.6-6.7c-0.4-1.5-0.9-3.1-1.2-4.7c-0.6-1.2-1.7-1.8-1.7-3.4
			C408.5,205,408.6,204.9,408.8,204.9z M387.2,201.7c0.1-0.1,0.4-0.2,0.6-0.2c1.2,0.2,2.7,0.1,3.4,0.6c0.6,0.5,1.1,2.1,1.5,2.7
			c0.2,0,0.6,0,0.9-0.1c0.1-0.9,0.7-1.5,0.1-2.4c0.5-0.1,0.6-0.2,1-0.1c1.3-0.5,1.6,2.2,2.6,2.8c0.2-0.1,0.4-0.2,0.6-0.5
			c0.1-0.5,0.2-1.1,0.5-1.6c2.6-0.6,2.4,1.7,3.9,2.8c0.1,0,0.2,0,0.4,0c0.4-0.6,0.1-1.2,0-2c1.7-1.1,2.9,1,3.8,1.7
			c1.7,1.7,6.1,10.8,2.1,13.5c-1.3,1.5-6.5,0.6-8.1,0.9c-2.4-2.1-2.9-6.4-4.9-8.6c-0.2-0.7-0.6-1.6-0.9-2.3
			c-2.2-2.8-5.3-4.4-7.6-7.2C387.1,201.7,387.1,201.7,387.2,201.7z M350.1,157.7c1.2-0.6,2.1-0.2,3.3-1c0.2-0.1,2,0.2,2.4-0.1
			c1.2,0.1,2.6,0.2,3.8,0.2c2.4,0.6,8.6,3.1,8.9,6.4c-1.7,2.2-4.8,1.8-7.7,2.9c-1.7,0.6-3.9,1.2-5.8,2c-1,0.4-2.4-0.1-3.7,0.6
			c-0.7,0.4-5.9,0.1-7.2,0.5c-0.1-0.4-0.1-0.2-0.5-0.4c-0.1-0.5-0.2-1.1-0.2-1.6C343.8,163.5,347.2,159.3,350.1,157.7z M363,194.3
			c2.1-1.7,7.5-6.1,7-8.6v-0.1c-0.2,0-0.5,0-0.6,0c-0.9,0.9-1.8,2-2.1,3.1c-2.6,3.3-7.3,5.3-11,6.2c-1.5-0.7-2.8-3.1-2.7-5
			c1.2-1.6,2.8-1.7,4.3-3.1c0.5-0.5,0.6-1,1.2-1.2v-0.1c-1.3-1.5-3.9,1.8-4.9,2.4c-0.7,0.2-1.6,0.5-2.3,0.7c0.1-0.2-0.2-0.2-0.6-0.4
			c-0.6-2,0.5-2.6,1.5-3.7c-0.1-0.1-0.2-0.2-0.2-0.2c-0.2-0.2-5.1,2.1-5.9,1.2c0,0-1.3-8.7-1.2-9.6c1.1-1.3,4.2-2.4,5.9-2.9
			c-0.6-1.8-5.8,1.2-7.5,1.2c-0.5-1.2-0.7-1.8-0.6-3.2c0.4-0.2,0.7-0.5,1.1-0.7c1.1-0.2,3.8,0.5,4.9-0.1c2.1-0.4,4.3-0.9,6.4-1.2
			c0-0.1,0-0.2,0.1-0.2c0,0,0,0,0.1,0c0.4,0.4,1.7,0,2.2,0.6c2.2,2.6,0.5,8.8,1.2,12.2c0.7,0,1.6-0.1,2.4-0.1
			c0.2-0.2,0.6-0.5,0.9-0.6c-0.1-2.6-0.7-8.8,2-10.4c5,0,4.9,6.5,6.4,10c1.2,2.8,4.5,5,7.2,6.4c0,0.1-0.1,0.4-0.2,0.6
			c-0.1,0.2-0.9,0.2-1.2,0.2c-0.1,0.2-0.2,0.5-0.2,0.7c0.1,0.2,0.2,0.4,0.4,0.6c0.6,0,1.2,0.1,1.8,0.2c0.4,0.2,0.4,0.7,0.4,1.1
			c0.1,1-1.8,0.9-2.4,1.7c0.1,0.1,0.2,0.4,0.2,0.6c1.3,0.2,2.2-0.2,2.8,0.2c0.6,0.4,0.7,1.2,1,1.8c-0.7,0.7-1.8,0.2-2.4,1.2
			c0,0,0,0,0,0.1c1.1,0.6,1.8,0.2,3.4,0.2c0.4,0.5,0.6,1.1,1,1.7c-1.5-0.2-2.9,1-4.2,1.6c-2.3,0.7-4.7,1.5-7,2.2
			c-1.1,0.5-2.3,1.5-3.4,1.6c0-0.1-0.1-0.2-0.2-0.2c-0.2-1.1-0.6-2.2-0.9-3.2C365.8,197.9,363.7,196.4,363,194.3z M366.5,266
			c-2.6,1.2-6.6-1-8.9-2c-4.5-1.7-9.4-3.4-13.4-5.9c-0.9-0.4-1.7-0.9-2.4-1.2c-2.4-1.7-4.9-3.4-7.3-5c-0.4-0.1-1,0.2-1.2,0.2
			c-2.1-0.5-4.4-0.9-6.2-1.3c-0.5,0-1,0-1.3,0.1c-3.8-1.3-13.5-8.8-14.1-12.9c1.2-0.4,6.5,4.5,7.6,5.8c0.2,0,0.5,0,0.6-0.1
			s0.2-0.2,0.4-0.5c0.2-0.2,0.2-0.6,0.2-0.9c-0.4-1.2-3.2-2.6-4.4-3.6c-2.1-1.6-4.9-4.7-5.3-6.9c0.1-0.1,0.2-0.2,0.5-0.5
			c0.2,0,0.5,0,0.7,0c2,2,4.2,3.7,6.1,5.8c1.3,1.3,2.1,2.9,3.9,3.6c0.4-0.4,0.6-0.5,0.9-1c-0.5-1.2-1.7-1.7-2.7-2.6
			c-0.6-0.7-1.2-1.5-1.7-2.1c-0.5-0.4-1.1-0.7-1.6-1.1c-2.2-2-3.2-3.2-4.2-6.1c0.7-0.1,1,0,1.5-0.1c1.2,3.1,4.8,4.7,6.7,7.1
			c0.6,0.7,1.8,2.2,2.8,2.1c0.5,0.1,0.9-0.2,1-0.6c-0.1-1.3-1.8-2.1-2.7-2.7c-2.2-1.7-5.5-4.2-6.6-7.3c0-0.1,0.1-0.4,0.1-0.6
			c0.1,0,0.2,0,0.5-0.1c2.2,1.3,5.1,4.3,7.1,6.1c1.3,1.2,2.3,3.2,4.5,3.6v-0.1c0.5-0.1,0.6-0.5,0.6-1c0.6-0.5-1.1-1.8-1.3-2.2
			c-1.5-1.5-3.9-3.2-4.8-5.5c-0.1,0.4,0-0.1,0-0.4c0.5-0.2,1.1-0.1,1.6,0c0.7,0,3.1,2.2,3.8,3.1c1.8,2.1,4.3,3.6,5.6,6.1
			c1.2,2.7,0.7,5.1,2.3,7.2c2,2.4,5.6,4.2,8.7,5.4c0.5,0.1,1.1,0.2,1.6,0.2c3.8,1.7,8.2,4.2,13.4,3.3c0.5-0.7,0.4-1.6,1-2.3
			c0.2-0.5,0.9-0.7,1.2-1.1c1.6-2.1,2.8-5.3,4-7.6c0.5-0.9,1.3-1.6,2-2.6c1.2-1.8,1.5-4,2.7-5.9c1.2,0,1.8,1.1,2.7,1.6
			c1,0.2,2,0.6,2.8,0.9c2.1,1,6.1,3.1,9.6,2.6c0.2,1.2-0.9,2.8-1.5,3.8c0.4,0.5-0.9,2.1-1.1,2.4c-1.3,2.8-2.8,5-4.4,7.6
			c-1.5,2.4-2.4,4.8-3.9,7.2c-1,1.5-2.3,2.7-3.4,4C369.1,263.7,368.2,265.3,366.5,266z M388.9,377.4c0,0,0.1,0,0.2,0
			c0,0.1,0,0.2,0,0.2c-0.1,0-0.2,0.1-0.2,0.1C388.9,377.6,388.9,377.5,388.9,377.4z M381.5,347.6c0.6,0.2,0.6,0.4,1.3,0.5
			c0,0.1,0,0.2,0.1,0.5c-0.4,0.1-2.3,0.5-2.7,0.7c-0.6,0.4-0.6,1-0.5,1.7c0.2,0.1,0.1,0.1,0.5,0.2c0.9,0.9,3.4-0.5,4.5-0.7
			c0.4,0.7,0.7,1.2,1.1,2c0,0.1,0,0.2,0,0.4c-1.5,0.2-3.1,0.6-4.5,0.6c0,0.4,0.2,0.2-0.1,0.4c0.2,2.1,3.2,2.1,4.8,1.7
			c0.7,2.3-0.9,3.8-3.2,2.6c-0.2,0.2-0.7,0.5-1.1,0.6c-0.2,1.3,1.3,2.4,2.7,2.1c1.2,0.4,0.9,2.2,0.6,3.6c-0.7-0.1-1.7,0-2.7,0.2
			c-0.1,0.5-0.1,1.3-0.2,1.5c0.4,1.1,2.2,1,3.1,1.1c0.1,0.4,0.2,0.9,0.2,1.3c-0.4,0.4-0.7,0.5-0.7,1c-0.1,0-0.4-0.1-0.6-0.1
			c-0.1,0.1-0.1,0.4-0.2,0.6c-0.4,0.4-0.2,0.7-0.1,1.3c0.7,0.4,1.5,0.6,2.1,1c0,1.5,1.1,2.4-0.4,3.7c0,0.4,0.1,0.5,0.2,0.7
			c0.1,0.5,0.4,0.4,0.7,0.9c0.6-0.1,0.6-0.1,1.2,0c-0.1-0.2,0-0.1-0.1-0.2v-0.1c0.1,0,0.2,0,0.5,0c0,0-0.1,0-0.2,0.1
			c0.2,0.4,1,0.6,1.2,1c1.1,0.9-2.7,4.7-3.8,4.9c-1.1,0.4-2.3-0.6-3.3-0.2c-0.1-0.9-1.3-1-1.7-1.6c-0.7-1.3-1.1-2.6-2.2-4
			c-0.7-1-2.2-2.1-2.7-2.8c-1.8-2.9-4.2-5.9-6.1-8.9c-1.2-2-2-4.7-3.1-6.9c-2.4-4.7-4.5-9.2-6.7-13.8c0-1,0-2.1,0.1-3.1
			c0.7-2.6,2.6-8.8,4.9-11.1c1.3,0.2,2.6,1.6,3.4,2c3.7,1.8,7.1,2.7,11,3.6c-0.1,0.5-0.2,0.7-0.5,1.1c-0.6,0.6-1.7-0.5-2.7-0.6
			c-0.4,0.4-0.6,0.4-0.7,1c0.2,0.1,0,0.5,0.4,1c0.1,0.5,1.3,0.7,2.1,0.9c0,0.2-0.1,0.5-0.2,0.6c0.7,0.1,0.9,0.5,1.1,1.2
			c0,1.3-2.2,0.4-3.4,0.7c-1.3,2.1,2.4,2.8,4,2.9c0.4,0.2,0.5,0.5,0.7,0.7c-0.9,0.7-2,0.6-2.7,1.6c0.1,0.4,0.1,0.7,0.2,1.1
			C378.9,349.2,379.7,347.8,381.5,347.6z M395.4,313.4c0,0-0.1,0.1-0.2,0.2c-1.7-0.9-2.3-2.1-3.9-3.1c-3.6-2.3-8.3-4.7-9.2-9.4
			c0.1-0.1,0.2-0.2,0.4-0.2c0.1,0,0.2,0,0.4,0c0,1.3,5.6,7,7,6.7c0,0.1-0.1,0.2-0.1,0.2c1.7,1.2,3.7,3.8,6,4.3
			C395.8,312.7,395.4,313.2,395.4,313.4z M403.9,275.4c-5.8,2.7-14.2,5.1-21.2,5.3c-3.4,0-7,0.6-9.8-0.9c-0.9-0.5-2-1.6-2.2-2.6
			c0-0.9,0.1-1.8,0.2-2.7c0-3.4-0.2-6.1-1.7-8.3c1.3-0.7,3.2-4.2,4.2-5.4c3.8-5,7.1-10.8,9.8-16.4c1-2,2.1-6.1,3.8-7.5
			c0.4,0.1,0.7,0.2,1.1,0.2c1.6-1.1,1.6-3.2,2.3-5.1c1.1-3.4,2.7-7.3,2.6-12.2c-0.2-0.1-0.4-0.2-0.6-0.4c-0.6-0.4-1.2,0-1.5,0.5
			c0.5,1.2,0.1,1.8,0,2.7c-0.9-0.2-2.1-0.9-2.8-0.7c-0.1-0.2-0.1,0-0.1,0.2c-0.2,0.4,0,0.9,0.1,1.2c1,0.5,2,1,2.8,1.1
			c-0.2,0.9-0.5,1.8-0.7,2.7c-0.4,0-0.7,0-1,0.1c-1.1-0.2-1.3-1-2.7-0.7c-0.2,0.4-0.2,0.6-0.2,1.2c1,0.4,2,0.9,2.9,1.2
			c0.1,0.2,0.2,0.1,0.2,0.6c0.2,0.7-0.4,1.6-0.6,2.2c-1.3,0.2-2.8-1-3.9-0.1c0,0.2,0,0.5,0.1,0.6c0.9,0.6,1.8,1,3.1,1.5
			c0,0.2,0,0.5-0.1,0.7c-0.4,0.1-0.5,0.1-0.6,0.6c-2.2-0.1-5.5,0.1-7.2-0.4c-2.8-0.9-9.7-3.4-10.9-5.6c-0.5-1.3,1.1-2.9,1.5-4.3
			c-0.2-0.7,2.4-7.6,2.4-9.4c-0.2-0.1-0.4-0.2-0.6-0.4c-1.8,0.1-1.2,2.9-1.6,4.2c-0.4,1.5-2.2,8.8-3.8,9.7c0,1.5,1.1,2,2,2.7
			c-1.7,1.2-4.5,8.2-5.4,8.5c-0.1,0-0.1-0.1-0.2-0.2c-0.6-0.4-1.7-5.3-2.1-6c-0.9-2.2-1.7-4-2.3-6.4c-0.9-3.2-0.2-11.8,1.8-14.9
			c1.7-2.6,4.8-6,7.3-7.5c2-1.1,4.9-1.7,6.6-3.1c0.1,0.2,0.4,0.1,0.7,0c1.1-0.2,3.3-0.7,4.4-1.7c1-0.2,2-0.5,2.8-0.7
			c0.2,0,0.5,0.1,0.7,0.2c0.1,0.4,0.2,0.6,0.4,1c-0.6,0.5-0.9,1-1.5,1.5c0,0.1,0,0.4,0,0.5c0.4,0.1,0.6,0.2,1,0.4
			c0.5-0.4,1-0.9,2.1-1c0.4,0.6,1.1,1,1.5,1.6c-0.5,1-1.2,1.8-2.3,2.4c0,0.1,0,0.2,0,0.4c0.1,0.1,0.2,0.2,0.5,0.4
			c2,0.7,2.4-1.6,3.8-1.5c0.5,0,1.3,1,2,1.7c-0.2,1.1-2,2.2-3.1,2.6c0,0.1,0,0.2-0.1,0.5c0.1,0.4,0,0.1,0.2,0.2c1,1,3.3-1.6,4-1.7
			c1.1-0.4,2,2.3,2.1,3.1c-0.6,0.9-2.2,1.1-3.2,1.7c0,0,0,0,0,0.1c0,0.1,0,0.4,0,0.5c1.3,0.4,2.6,0.4,3.4-0.9c0.1,0,0.4,0,0.5,0.1
			c0.6,0.4,1.8,2.4,1.7,3.2c-0.5,1.1-2.1,1.1-2.7,2.3c0,0.1,0,0.2,0.1,0.2c1.1,0.7,2.3,0.2,3.1-0.9c0.1,0,0.4,0,0.6,0.1
			c0.7,0.5,1,1.8,1.2,2.7c-0.9,0.4-2.2,0.6-2.7,1.3c0,0.1,0,0.4-0.1,0.6c0.6,0.5,2.7,0.6,3.1-0.2c0.7,0.6,1,2,1,3.2
			c-0.6,0.1-3.4,0.9-2.4,1.8c0.5,1,2,0.1,2.9-0.1c0,0,0,0,0.1,0c0.2,0.9,0.6,1.3,0.5,2.6c-1,0.6-1.5,1.3-2.7,1.7
			c0,0.2,0,0.6,0.1,0.9c1.2,0.4,1.7,0.1,2.8-0.4l0.1,0.1c0.6,1.1,0.6,2.9,0.9,4.3c-0.6,1-1.5,0.7-2.7,1.1c-0.1,0.1-0.2,0.2-0.4,0.4
			c0,0.1,0,0.2,0,0.5c0.4,0.4,0.7,0.6,1,0.7c0.7,0.1,1.6-0.4,2.4-0.6c0.2,0.9,0.5,1.6,0.5,2.7c0,0.1,0,0.1-0.1,0.2
			c-0.9,0.2-1.8,0.2-2.2,0.6c-0.4,0.2-0.5,0.5-0.4,1c0,0,2.2,0.9,2.7,0.4c0.6,0.6,0.6,2.1,0.5,2.9c-0.7,0.5-1.2,0.9-2,1.1
			c-0.2,0.4-0.2,0.5-0.2,1c1,0.6,1.8,0.2,2.7-0.1c0.2,1.2,0.5,2.4,0.6,3.7c0,0-0.1,0.1-0.2,0.2c-1-0.2-2,0.2-2.4,0.9
			c0,0.1,0,0.2-0.1,0.2c0,0.5,0,0.5,0.4,0.7c0.6,0.5,1.8-0.1,2.7-0.2c0.4,0.7,0.7,2,0.7,3.2c-0.9,0.5-2,0.2-3.1,0.5
			c-0.1,0.4,0,0.5,0.1,1c1,0.6,2,0.4,3.2,0.2c0.1,0.7,0.4,1.6,0.6,2.3c0,0.1,0,0.2,0,0.5c-0.7,0.1-1.8,0.2-2.4,0.7
			c-0.4,0.2-0.4,0.5-0.6,0.9c0.4,0.2,0.4,0.5,1,0.6c0.6,0.4,2.1-0.5,3.1-0.1c0.2,0.4,0.2,0.9,0.2,1.6c-0.1,0.1-0.2,0.2-0.2,0.4
			c-0.7,0-1.5,0-2.2,0c-0.4,0.2-0.5,0.5-0.6,1c0,0.2,0.1,0.4,0.1,0.6c1.1,0.6,2.3,0.2,3.6,0.1c0.2,0.4,0.5,0.7,0.7,1.1
			c0,0.1-0.1,0.2-0.1,0.5c-0.6,0.9-2.1,1.6-3.2,2c-0.1,0.2-0.1,0.6-0.2,0.9c0,0.1,0,0.4,0.1,0.5c0.2,0.1,0.6,0.2,1,0.2
			c1-0.6,2.1-1.3,3.1-2C410.2,271.9,405.2,274.8,403.9,275.4z M511.5,321.7c-1.3,2.4-3.6,5.6-5,8.2c-1.5,2.4-4.5,7-6.7,8.9
			c0.1,0.1-1.2,1.6-1.3,1.8c-1.2,1.6-3.1,3.3-4.7,4.7c-6,5.1-12.1,9.7-20.9,9.3c-0.1-2.4,1.6-4.5,1.2-7.6c-0.2-2.2-0.6-4.9-1.8-6.7
			c-1.7-2.7-7.7-6.2-11.8-3.3c-5.6,4.2,0.4,13.8,4.2,16.4c1.3,1,4.5,1.8,5.3,2.7c0.6,0.5-2.8,5.5-3.2,6.1c-2.6,4-6.4,7.5-9.9,10.4
			c-0.1-0.1-0.5,0.1-0.6,0.2c-1.8,1.1-4,2-5.9,3.1c-1.5,0.4-2.9,0.7-4.3,1.1c-2.1,0.5-5,1-7.2,0.5c-10.9-2.4-13.2-12.1-15.4-21.4
			c-0.6-2.7,0.2-4.8,0.2-7.3c-0.1,0-0.2,0.1-0.5,0.1c-1.1,0.7-1.6,5.3-1.2,7c0.1,0.6,0.2,1.3,0.5,2c-0.1,2,0.7,5.1,1.7,7
			c0.4,0.7,0.5,2.8,1.1,4c1.5,2.6,3.2,5,5.8,7.1c0.2,0.2,0.4,0.7,0.7,1c9.2,5.8,20.7,1,28.9-4.7c0.4-0.2,0.6-1.3,1-1.6
			c1.7-1.3,4.5-4.9,6-6.1c-0.1-0.1,0.9-1.7,1-2c1.5-1.8,2.4-4.4,3.6-6.2c1.1,0,2.3,0.1,3.6,0.1c1.5-0.5,3.6-0.1,5.3-1
			c-0.2-0.1,3.1-1.2,3.6-1.5c2.9-1.7,6.4-3.6,8.7-5.9c6.9-6.7,11.3-13,16.4-21.9c1.5-2.6,3.6-5.3,4.4-8.5v-0.1
			C512.8,318.2,512.2,320.6,511.5,321.7z M470.8,354.2c-5.1-0.2-14.1-9.2-10.8-15.2c0.9-1.6,2.3-1.5,3.7-2.2c1.3,0.4,2.6,0.2,3.9,1
			C473.1,340.5,473.6,348.7,470.8,354.2z"/>
	</g>
</g>
<line class="st2" x1="347.9" y1="176.9" x2="352.9" y2="174.5"/>
</svg>
