<?xml version="1.0" encoding="utf-8"?>
<!-- Generator: Adobe Illustrator 21.0.0, SVG Export Plug-In . SVG Version: 6.00 Build 0)  -->
<svg version="1.1" id="Calque_1" xmlns="http://www.w3.org/2000/svg" xmlns:xlink="http://www.w3.org/1999/xlink" x="0px" y="0px"
	 viewBox="0 0 841.9 595.3" style="enable-background:new 0 0 841.9 595.3;" xml:space="preserve">
<style type="text/css">
	.st0{fill:#DADADA;}
</style>
<path class="st0" d="M462.1,408c19.4,3.1,32.1,8.2,32.1,14c0,9.4-33,17-73.6,17c-40.7,0-73.6-7.6-73.6-17c0-5.1,9.6-9.6,24.9-12.7
	c0,0,11.1,6.1,20.7,2.2c9.7-3.9,7.6-5.7,7.6-5.7c6.5-0.4,13.3-0.7,20.4-0.7c4,0,7.9,0.1,11.7,0.2c0,0,11.5,6.9,19.7,7.1
	C460.2,412.6,462.1,408,462.1,408z"/>
<g>
	<g>
		<path d="M511.5,392c-0.4-1-1.2-1.6-1.8-2.3c-0.3-0.3-0.3-0.7-0.6-1c-0.2-0.2-0.5-0.1-0.7-0.2c0-0.1,0.1-0.2,0.1-0.4
			c-0.2-0.1-0.4-0.2-0.6-0.4c0-0.1-0.1-0.2-0.1-0.4c-0.3-0.2-0.9-0.4-1.1-0.7c-0.2-0.8-0.5-1.6-0.7-2.4h-0.4c0,0,0-1.6,0-1.7
			c-0.4-1.1-1.1-3.3-0.6-3.8c-0.2-0.4-0.2-0.2-0.5-0.2c0.4-1.3-0.5-3.3-0.7-4.5c-0.1-0.7,0.2-1.4,0.5-2.1v-2.4
			c-0.2-0.3-0.3,0.1-0.4-0.6h-0.4c0-0.1,0.1-0.2,0.1-0.4c-2-0.8-2.3-0.6-4.1,0c-0.6-0.8-1-4.7-0.8-5.6l-0.4-0.4v-1.2h-0.2
			c-0.1-0.1-0.2-0.6-0.2-0.6c0.1-0.1,0.2-0.2,0.2-0.2c-0.2-0.3,0-0.1-0.4-0.2c-0.1-1.1-0.4-2.2-0.7-3.4c-0.1-0.5-0.1-2-0.1-2.1
			c-0.2-0.4-0.5,0.1-0.5-1H496c0.2-1.2-1.4-3.9-1.6-5.6h-0.4c0-1.2-0.6-1.2-0.8-1.8c-0.1-0.2,0.4,0,0.2-0.4
			c-0.1-0.1-0.2-0.2-0.4-0.2c0-0.3-0.1-0.6-0.1-0.8c-0.2-0.3-0.7-0.9-0.8-1.2c0-0.3-0.1-0.6-0.1-0.8c-0.2-0.1-0.3-0.2-0.5-0.4
			c0-0.1,0.1-0.2,0.1-0.4c-0.1-0.2-0.4,0-0.5-0.1c0,0,0.2-0.4,0.1-0.6c-0.7-1.4-1.5-2.8-2.4-4c0,0-0.1-1.1-0.2-1.2
			c-0.8-1.3-1.6-2.8-2.5-4c-0.3-0.3-0.9-0.5-1.1-0.8c0-0.2-0.1-0.4-0.1-0.6c-0.1-0.1-0.7-0.3-0.7-0.4c-0.3-0.4-0.5-0.9-0.8-1.2
			c-0.7-0.7-2.2-1.2-2.4-2.3c-0.1,0-0.2,0.1-0.4,0.1c-0.6-1.3-2.4-1.6-3-2.9H477c-0.3-1.1-2.6-2.1-3.4-2.9V321c0,0-0.6,0-0.8,0
			c0.1-0.2,0-0.1,0.1-0.2c-0.2-0.3,0-0.2-0.4-0.1c0.3-0.9-0.3-2.5-0.1-3.8c0-0.1,0.3-0.9,0.2-1.1c-0.1-0.7-0.3-1.9-0.1-2.8
			c0.1-0.7,0-2.1,0.1-2.9c0.3-2.3,0.6-4.2,0.1-6.2c-0.4-1.4,0.1-3.2-0.1-4.2c-0.2-0.8-0.3-2.1-0.5-2.5c-0.2-0.8,0.3-1.5,0.1-2.3
			c-0.1-0.5-0.8-2.5-0.7-2.9c0.1-0.7-0.2-1.6-0.4-1.9c-0.3-0.6,0.2-1,0.2-1.5c-0.2-0.4,0-0.7-0.2-1.2h-0.2c-0.1-0.3,0.2-0.7,0.1-1.1
			c-0.1-0.6-0.4-0.9-0.6-1.5c-0.6-1.6-0.1-3.2-0.5-4.6c-0.2-0.6-0.5-1.9-0.6-2.3c-0.1-0.4,0.1-1.3-0.1-1.9c-0.4-1.1-1.2-2.5-1.6-3.6
			c-0.1-0.1,0.2-0.5,0.1-0.6c-0.1-0.2-0.6-1.1-0.7-1.3c-0.1-0.3,0.1-1.2-0.1-1.7c-0.5-1.2-0.6-1.9-1.2-3l-0.5-0.5
			c0-0.1,0.1-0.2,0.1-0.4c0-0.2-0.3-0.6-0.5-1v-0.1c-0.1-0.1-0.4-0.2-0.5-0.4v-0.7h-0.2c-0.4-0.6-0.4-1.4-0.8-2.1h-0.2v-0.4
			c-0.1-0.2-0.5-0.3-0.6-0.5c-0.3-0.4-0.3-1.1-0.7-1.7c-0.1-0.1-0.4-0.1-0.5-0.2v-0.4c-0.3-0.5-0.6-1.1-1-1.7
			c-0.2-0.3-0.6-0.5-0.8-0.7v-0.4c-0.1-0.1-0.4-0.1-0.5-0.2c-0.7-0.8-1.3-1.6-1.9-2.5c-0.4-0.6-1.4-1.1-2.1-1.6
			c-0.7-0.5-1.2-1.5-1.9-2.1h-0.4c-0.3-0.2,0-0.4-0.1-0.6h-0.4c0-0.1,0.1-0.2,0.1-0.4h-0.5c-0.5-0.3-0.7-0.8-1.2-0.8
			c-1.5-1.6-3.4-2.7-5.3-3.6c-0.4-0.2-0.6-0.1-1-0.2c-0.2-0.1-0.5-0.4-0.6-0.5h-0.8c0-0.1-0.1-0.2-0.1-0.4c-1.2-0.7-2.6-1.2-3.9-1.7
			c-0.4-0.2-0.5,0-0.7,0c-0.4-0.2-0.9-0.6-1.3-0.7c-0.4-0.1-0.4,0.2-0.8,0c-1.3-0.7-3.3-1.3-5.1-1.5c0-1.9,0.2-3.9,0.5-4.8
			c-0.2-0.2-0.3-0.3-0.4-0.6c-0.8,0-1.1-0.1-1.6,0.4c-0.3,0.4-0.4,3.6-0.5,4.6c-0.5,0.1-1.4,0.2-1.8,0.1c-0.4-0.1-0.8-0.3-1.1-0.2
			c0.1-1.1,0.2-1.5,0.2-2.5c-0.2-0.2-0.3-0.3-0.4-0.6c-0.6,0-0.9-0.1-1.3,0.2c-0.2,0.3-0.5,2.2-0.5,2.8c-0.5,0-0.6-0.1-0.8-0.2
			c0.1-1.8,0.1-2.6-0.4-4.1c-0.4,0-0.8,0-1,0.1c-0.4,0.1-0.3,0.2-0.6,0.4c0,0.5,0.5,2.6,0.1,3.1v1c-0.7,0.1-1.1,0.1-1.7,0.4
			c-0.5-0.1-1.1-0.3-1.9,0c-1,0.3-2.1,0.9-3.1,1.2c-0.6,0.2-1.3,0-1.7,0.1c0,0-0.4,0.4-0.5,0.4c-0.2,0-0.8-0.3-1.2-0.1
			c-0.3,0.1-0.7,0.7-1,0.8c-0.3,0.2-0.6,0.1-1,0.2c-0.3,0.2-0.8,0.7-1.2,0.8c-1,0.4-2,0.4-2.9,0.8c-0.9,0.5-1.8,1.3-2.7,1.9
			l-1.1,0.4l-0.7,0.7c-1.1,0.7-2.2,1.2-3.3,1.9c-1,0.7-1.7,1.9-2.5,2.8c-1,1.1-2.3,2.1-3.1,3.3c-0.6,0.8-1.2,1.7-1.6,2.5
			c0,0.3-0.1,0.6-0.1,0.8c-0.3,0.5-1,0.9-1.3,1.5c-0.7,1.1-0.9,2.4-1.5,3.6c-1.3,2.9-2.7,6.4-3.8,9.1c-0.6,1.6-0.6,3.1-1.1,4.7
			c-0.4,1.4-1,2.9-1.5,4.4c-0.7,2.2-0.3,3.8-0.8,5.8c-0.7,2.8-1.2,6.2-1.7,8.6c0,0.3,0.1,0.6,0.1,1c-0.1,0.7-0.4,1.5-0.4,2.2
			c0,0.2,0.2,0.4,0.1,0.7c-0.3,0.9-0.1,2.3-0.4,3.4c-0.3,1.3-0.3,3.3-0.1,4.8c0.1,0.5-0.1,1.3-0.1,1.9c0,1.9,0,4.1-0.1,5.6
			c-0.1,0.7,0.3,2.6,0.1,3.1c-0.1,0.1-0.2,0.2-0.4,0.2c-0.1,0.4,0.8,1.6,0.2,2.4c0,0.4,0,0.7-0.1,1c-1.3,0.3-4.2,0.6-5.4,0.4
			c-2.1-0.4-4.7,0.3-6.4-0.4l-0.5-0.5c-0.6-0.1-1.1-0.2-1.7-0.4c-0.2-0.1-0.5-0.4-0.6-0.5c-0.2,0-0.3,0.1-0.5,0.1
			c-0.2-0.1-0.4-0.4-0.6-0.5c-1.1-0.5-2.1-0.5-3.1-1.1l-0.8-0.9c-0.7-0.4-1.3-0.4-1.8-0.8c-0.3-0.3-0.4-0.8-0.7-1.1
			c-0.3-0.3-0.7-0.4-1-0.6c-0.7-0.5-1.1-1.3-1.6-2.1c-0.3-0.2-0.6-0.4-0.8-0.6c-0.2-0.3-0.7-1.3-0.8-1.6v-0.6c0,0-0.9-0.6-1-0.7
			v-0.5c-0.3-0.6-1-1.4-1.3-2.1c0-0.1,0.1-0.2,0.1-0.4c0-0.2-0.5-1-0.6-1.2l-0.7-0.7c-0.2-0.5-0.3-1-0.5-1.5c-0.4-0.6-1-1.5-1.3-2.2
			c-0.5-1.2-0.7-3-1.5-4c0.1-1.1,1.5-1,2.3-1.5c2.1-1.2,3.9-3.2,6.2-4.1c0-0.4,0-0.6,0-0.7c-0.2-1.3-1.4-1.3-1.6-2.8
			c-0.2,0-0.2,0-0.4-0.1c-0.5-0.1-1-0.9-1.2-1.3v-0.6c-0.1-0.1-0.5-0.2-0.6-0.4c-0.4-0.4-0.9-1.1-1.2-1.6c-0.3-0.4-1.1-3.3-1.2-3.9
			c0.4-0.4,0.5-1,0.8-1.6c0.5-0.7,1.5-1,2.1-1.7c0.4-0.6,0.3-1.5,0.6-2.2c0.9-1.7,0.2-2,0.5-3.4c0-0.2,0.2-0.6,0.1-1
			c-0.3-1.4-0.4-2.9-0.6-3.9c-0.1-0.5-0.5-1.5-0.4-2.1c0.3-0.8,0.9-2.7,1-3.9c1.6-0.7,2.8-1.5,4.1-2.4c0.5-0.4,0.8-1.1,1.3-1.5
			c0.3-0.2,0.6-0.2,1-0.4c1-0.6,1.9-1.5,2.8-2.2c0.3-0.2,0.7-0.1,1-0.2c0.7-0.4,0.8-1.6,1.5-2.1c2.2-1.7,4.1-3.8,5.8-6.1
			c0.4-0.5,1.1-0.8,1.5-1.2c0.9-1,1.4-2.1,2.2-3.1c0.2-0.4,1-0.8,1.2-1.1c0.2-0.3,0.2-0.6,0.4-1c0.2-0.1,0.3-0.2,0.5-0.4
			c0.3-0.5,0.3-1.1,0.6-1.7c0.3-0.5,0.9-1.1,1.2-1.6c1-1.7,1.8-3.8,2.4-5.8c0.4-1.4,0.5-4.8,1.1-5.2c-0.2-0.4-0.1-0.1-0.5-0.1
			c-0.1-2.8-0.9-7.5-2.7-8.7c-1.4-0.9-4-2.8-6.5-2.1c-0.8,0.2-1.6,0.9-2.3,1.3c-0.5,0.3-1,0.3-1.3,0.7c-0.9-0.2-0.1-0.4-0.4-0.8
			c-0.1-0.3-0.7-0.9-1-1.1c-0.6-0.4-1.2-0.7-1.8-1.1c-0.5-0.4-0.8-1.2-1.3-1.6c-0.2-0.2-0.4,0.1-0.5,0c-0.6-0.4-1-1.2-1.6-1.6h-0.6
			c-0.5-0.3-1.1-0.9-1.6-1.2c-0.5-0.3-1-0.2-1.6-0.5c-0.6-0.3-1.2-0.9-1.9-1.1h-0.8c-0.8-0.3-1.8-0.8-2.7-1.1
			c-2.8-1-6.6-0.6-9.3,0.1h-1c-0.5,0.2-1.1,0.7-1.6,0.8c-0.8,0.3-1.3,0.1-2.1,0.5c-0.8,0.4-1.7,1.1-2.4,1.6c0,0.1,0.1,0.2,0.1,0.2
			c-0.2,0-0.4,0.1-0.6,0.1c-0.4,0.2-3.5,3.4-3.6,3.8h-0.4c-0.1,1-1,2-1.5,2.8c-0.2,0.4-0.1,0.9-0.4,1.3c-0.3,0.6-0.8,1.5-1.1,2.2
			c-0.4,1.2-0.1,3.2-0.8,4.4c0,0,0.2,1,0.2,1.2c0.3,1.3,0.4,2.7,0.7,4c1,3.9,2,7.1,3.6,10.3c0.5,0.9,2,2.9,2.2,3.8
			c-0.5,0-0.7,0-1,0.1c-1.1,0.1-3,3.2-3,4.6c-0.8-0.2-1.5-0.8-2.3-1c-0.4-0.1-1,0.1-1.2,0.1c-2.4,0.5-2.5,0.6-3.5,2.5
			c-0.4,0.7-1,2-0.2,2.9c0,0.3,0,0.6-0.1,0.7c-0.4,0.1-1.4-0.2-2.2,0.1c-1.7,0.6-2.8,2.5-2.3,4.6c0.1,0.5,0,0.8,0.2,1.1
			c-0.2,0.5-1.5,2.2-1.9,2.5c-0.3,4.4,1.4,3.6,3,5.9c0.9,1.2,1.2,2.6,2.7,3.1c0,0.6-0.3,1.2-0.2,1.6c0.2,2,0.5,3.8,0.8,5.2
			c0.2,0.8,0.1,1.5,0.5,2.2c0.2,0.3,0.7,0.9,0.8,1.2c0.1,0.4,0.2,0.7,0.2,1.1c0.1,0.1,0.5,0.2,0.6,0.4c0.9,1.5,2,3.3,4,3.6
			c0,0.8,0.3,2.2,0,2.8c-0.1,0.2-0.5,0.5-0.6,0.7c-0.2,0.4,0,0.9-0.2,1.2c-0.3,0.4-0.2,0.3-0.6,0.2c0.1,0.4,0.6,0.7,0.8,1
			c-0.2,1.3-0.8,1.9-0.7,3.5c0.3,0.3,0.4,0.8,0.7,1.1c0.4,0.4,0.9,0.2,1.5,0.5l0.6,0.6c0.7-0.4,1.8,0.8,3,0.5c0.6-0.1,2.6-0.3,3.6,0
			c0.2,0.1,0.9,0.4,1.1,0.4c0.3,0,0.3-0.3,0.5-0.4c0.5-0.2,0.9,0,1.3,0c-0.3,4.6,2.2,6.7,3.6,9.8v0.6h0.2c0.3,0.6,0.1,0.9,0.4,1.3
			c4.5,7.7,10.4,13.7,18.3,18c0.4,0.1,0.9,0.2,1.3,0.4c3.1,1.6,8.3,3.6,12.4,2.4c1.1-0.3,2.4-0.1,3.1-0.7h0.1
			c-0.2,1.8-0.4,3.6-0.1,5.1c0.1,0.7-0.3,1.3-0.2,1.8c0.1,0.4,0.4,3.6,0.2,4.4c-0.4,1.9-0.3,5.3-0.1,6.4c0.1,0.4-0.1,0.7-0.1,1
			c-0.1,1.2,0,2.3,0.1,2.9c0.2,1.2-0.3,2.6-0.4,3.5c0,0.3,0.2,0.2,0.2,0.4c0.1,0.4-0.2,0.8-0.1,1.1c0,0.2,0.4,0.6,0.5,0.8
			c0,0.2,0.1,0.5,0.1,0.7c0.2,0.1,0.3,0.2,0.5,0.2c0.5,0.5,0.9,1,1.5,1.3c0.5,0.3,1,0.2,1.6,0.5c0.5,0.3,1.2,0.9,1.8,1.2h0.6
			c0.3,0.1,0.8,0.5,1.1,0.6c0.4,0,0.8,0.1,1.2,0.1c0.2,0.1,0.7,0.4,1,0.5c0.3,0,0.6-0.1,0.8-0.1c1.2,0.4,2.8,1.1,4,1.5
			c0.2,0,0.5-0.1,0.7-0.1c1.6,0.4,3.6,1.1,5.1,1.8v0.8h0.4c-0.2,2,0,4.7-0.5,6.4c-0.2,0.7,0.4,1.7,0.2,2.3c-0.2,1.1-0.1,2-0.4,3.1
			v1.8l-0.2,0.5c0,0.7-0.1,1.8,0.4,2.5c-0.4,0.8,0.1,1-0.1,1.9c-0.2,1-0.4,3.3-0.6,4.6c-1.2,0.2-2.2,0.9-3.3,1.2
			c-1.4,0.4-2.7,0.6-3.9,1.1h-1c-0.2,0.1-0.5,0.5-0.7,0.6c-0.7,0.3-1.8,0.1-2.4,0.5c-1.6,0.9-3.4,1.7-4.8,2.5
			c-0.2,0-0.4,0.1-0.6,0.1c-0.2,0.1-0.3,0.6-0.5,0.7c-1,0.7-2,1.3-2.9,2.1c-0.1,0.2-0.2,0.3-0.2,0.5c-2.3,1.8-4.8,3.9-5.8,7
			c-0.2,0.7,0.1,1.8,0,2.4c-0.2,1-0.7,3.8-0.2,5.1c0.4,0.9,1.1,1.3,1.1,2.3c0.9,0.1,1.3,0.8,1.9,1.1c0.7,0.4,1.2,0.4,1.9,0.7
			c0.2,0.1,0.6,0.5,0.8,0.6c0.5,0.2,1.1,0,1.3,0c0.4,0,1.1,0.3,1.5,0.4c0.3,0,0.6-0.1,0.8-0.1c1.9,0.5,3.7,0,5.3-0.6
			c1.5-0.6,3.1-0.7,4.8-1.3c1.3-0.5,2.7-1.4,3.9-2.1c0.5-0.3,1.2-0.1,1.8-0.4c0.9-0.4,5.4-2.9,5.7-3.6c0.3,0.1,0.3,0.2,0.7,0.2v-1
			c1.8-0.3,2.9-2.2,4-3.3c1.2-1.2,3.9-3.1,3.5-5.3c0.4-0.6,0.8-2.3,0.6-3.3c-0.1-0.5-0.7-1.5-0.8-2.2c-0.1-0.8,0.1-1.8-0.4-2.7
			c-0.1-0.2-0.5-0.2-0.6-0.4V391c-0.2-0.4-0.6-1.1-1-1.6c-0.4-0.5-1-0.9-1.3-1.5c-0.3,0.1-0.2,0-0.4,0.2c-0.5-0.2-1.1-0.5-1.6-0.7
			c0-1.2,0.2-2.1,0.2-2.8c0.1-0.9-0.5-1.5-0.2-2.5c0.1-0.5,0.4-1.9,0.4-2.3c-0.1-0.1-0.2-0.2-0.2-0.2v-0.2h0.2
			c0.3-0.8,0-2.1,0.1-2.9c0.6-3.1,1.4-7.2,1.5-10.3c4.3,0.8,11.4,1.5,15.9,1.6c2.6,0,5.6,0.7,7.4,0.5c1.6-0.2,2.9,0.4,4.1,0.2
			c0.7-0.1,1.7,0.4,2.3,0c0.3,0,0.4,0.1,0.6,0.1c0.3,1.6,0,3.5-0.4,4.8c-0.1,0.3,0.1,0.7,0.1,0.8c0,0.3-0.6,0.7-0.5,1.1
			c0.6,3.6,0.1,9.3-0.2,13.8c-1.7,0.8-3.2,1.8-4.7,2.7h-0.5c-0.3,0.3-0.4,1-0.6,1.3c-0.5,0.7-1.6,1.3-1.9,1.8
			c-0.4,0.5-0.3,1.2-0.5,1.9c-0.4,1.2-0.8,4.3-0.2,5.8l0.4,0.4c0.1,0.3-0.2,0.4-0.1,0.5c0.1,0.3,0.5,0.8,0.6,1.1
			c0,0.3,0.1,0.6,0.1,1c0.1,0.1,0.5,0.2,0.6,0.4c0,0.1-0.1,0.2-0.1,0.4c0.4,0.6,1.2,1.1,1.7,1.6c0.4,0.4,0.6,1.1,1.1,1.5
			c0.8,0.6,1.7,1.1,2.5,1.7c0.2,0.1,0.4,0.6,0.6,0.7h0.5c0.5,0.2,0.9,0.6,1.3,0.8c0.3,0,0.6,0.1,1,0.1c0.5,0.2,1,0.8,1.5,1.1
			c0.2-0.1,3,0.8,3.6,1.1c1,0.4,2.2,1,3.4,1.3c1.1,0.3,2,0,2.9,0.5c1.1,0.5,4.4,1.2,6.1,0.7c4.7-1.3,12.2-2.8,10.9-9.4
			c-0.1-0.4-0.2-1.5-0.5-2.1h-0.2c-0.2-0.5,0.4-1.5,0.1-1.9c-0.9-1.7-3.3-3.7-3.8-5.4h-0.4c-0.6-1.4-2.2-2.1-3.4-2.9
			c0-0.1-0.1-0.2-0.1-0.4c-0.7-0.6-1.9-0.8-2.7-1.2c-0.6-0.3-0.8-0.9-1.5-1.2c-0.2,0-0.5-0.1-0.7-0.1c-0.4-0.2-0.7-0.8-1.1-1
			c-0.3,0-0.6-0.1-1-0.1c-0.8-0.5-1.8-1-2.7-1.5c-0.6-0.3-4.3-1.6-4.8-1c-0.5-0.5-1-1.7-0.8-2.8c0-0.2,0.2-0.8,0.1-1.2
			c-0.2-0.8,0.3-2.3,0.1-3.4c-0.1-0.6,0.1-1.3,0.2-2.1c0.1-0.5-0.1-2-0.2-2.3c0.2-1,0.3-2.3,0.5-2.9c0.4-1.2,0.8-3.5,0.6-4.4
			c-0.1-0.6,0.2-1.4-0.4-1.8v-0.2c0.7,0,1.3-0.1,1.8-0.2c0.6,0,1.3,0.1,1.9,0.1c1.3-0.3,2.7-0.3,4.1-0.7c0.8-0.2,1.6,0,2.2-0.1
			c0.8-0.2,2.5-0.6,3.3-1c0.8-0.4,1.5,0.1,2.2-0.1c3.1-1.1,6.2-1.8,8.5-3.4c0.2,0.2,0.2,0.4,0.5,0.5c0.3-0.3,0.7-0.4,1-0.7
			c0.3-0.6,0.4-2.3,0.5-2.8c0-0.1-0.3-0.5-0.1-0.8h0.2c0.4-0.8,0.1-1.3,0.2-2.1l0.4-0.4c0.2-0.7-0.5-0.9-0.2-1.7
			c0.3-1.2,0.7-2.6,0.4-3.8c-0.2-0.5,0.2-1,0.2-1.3c0.1-0.5-0.2-1.1-0.1-1.3h0.2c0-0.3-0.1-0.6-0.1-0.8c0.1-0.3,0.3-0.7,0.2-0.8
			c-0.1-1.4,0.6-3.5,0.2-3.9c-0.2-0.9,0.4-1.8,0-2.4c0.1-0.1,0.3-0.2,0.4-0.2c-0.3-0.4-0.1-1.6,0.1-2.3c0.2-0.7,0.5-3.3,0.6-4.2
			c0-0.3-0.2-0.7-0.2-1c-0.2-0.8,0.2-3,0.2-3.1c0.1-0.1,2.2,1.2,2.7,1.5c0.3,0.2,2,1.8,2.2,2.1v0.4c0.3,0.4,1,0.6,1.3,1.1
			c0.3,0.3,0.4,0.7,0.7,1c0.2,0.1,0.4,0.1,0.5,0.2c0,0.2,0.1,0.4,0.1,0.6c0.5,0.6,1.1,0.7,1.1,1.6h0.4v0.5c0.7,0.7,2.3,2.7,2.5,3.8
			h0.4c0.2,0.9,0.8,1.3,1.2,1.9c0.2,0.4,0.1,0.8,0.4,1.2c0.1,0.3,0.6,0.5,0.7,0.7c0,0.3,0.1,0.6,0.1,0.8c0.2,0.2,0.4,0.7,0.6,1h0.2
			v0.7c0.1,0.1,0.8,0.6,0.8,0.7c0.5,0.7,0.6,2.2,0.8,2.9c0,0,0.2,0.5,0.2,0.6h0.2c0,0.4,0.1,0.8,0.1,1.2c0.1,0.3,0.6,0.7,0.7,1
			c0.5,1.1,0.4,2.2,0.8,3.4c0.2,0.4,0.5,0.9,0.6,1.1c0,0.2-0.1,0.3-0.1,0.5c0.2,0.8,0.5,1.8,0.7,2.7c0.1,0.3-0.1,1,0,1.3
			c0.1,0.4,0.7,2.3,0.5,3.1c-0.2,1-0.6,1.6-0.7,2.3c-1.5,0-5.1-0.9-6.1-0.1c-0.2,0.1-0.3,0.2-0.5,0.4c-0.2,1.8-0.5,3,0,4.4
			c0.3,0.8-0.2,1.4,0.2,1.8c-0.3,0.4,0.1,1.3-0.2,1.9h-0.2c-0.2,0.4,0.2,1.1,0.1,1.3c-0.2,0.7-0.6,0.9-1,1.6c-2.7,1.1-5-0.8-7.5,0.1
			c-0.4,0-0.7,0.1-1.1,0.1c-0.6,0.4-1.4,0.9-1.8,1.5c-0.5,0.8-0.3,1.4-1,1.9c0.3,0.8,0.2,2,0.8,2.8c1.5,1.9,4.7,2,6.9,1.5
			c1-0.2,1.6,0.3,2.2,0c0.3,0,0.5,0,0.7,0.1c-1.4,3.4-2.7,4.7-2.5,9.3c0.6,0.5,1.5,1.1,1.9,1.7c1.7,0,2.8-0.3,3.5-1.2
			c0.7,0.2,1.8,2.3,2.8,2.8c0.7,0.4,1.9,0,2.3,0.1c0.1-0.1,0.1-0.1,0.1-0.4c1.1-0.1,2.1-0.6,2.9-1.3c0.1-0.2,0-0.1,0-0.4
			c0.1,0,0.2-0.1,0.4-0.1c0.7-0.3,1.8,1.1,2.7,1.3c0.9,0.2,2-0.5,2.5-0.7h0.8c0.9-0.3,1.8-1.5,2.2-2.4c0.8,0.1,1.7,0.6,2.7,0.8
			c0.7,0.2,1.7-0.3,2.4-0.4c0.2-0.5,1-0.6,1.6-1C510.2,396.3,512,393.4,511.5,392z M355.8,239.1h0.4c0.1-0.9,1.2-2.2,1.8-2.7h0.4
			c0,0-0.3-0.3-0.1-0.5c0.1-0.1,0.5-0.2,0.6-0.4c0.4-0.6,0.5-1.2,0.8-1.7c0.5-0.7,1.3-1.3,1.7-2.1c0-0.3,0.1-0.6,0.1-0.8
			c0.1-0.3,0.6-1,0.8-1.3c0.1-0.1,0.4-0.1,0.5-0.2c0.2-0.2,0.3-1,0.5-1.2c0.2,0,0.3-0.1,0.5-0.1c0-0.1-0.1-0.2-0.1-0.4
			c0.1,0,0.2-0.1,0.4-0.1c0.2-0.3,0.1-0.7,0.4-1.1c0.5-0.8,0.9-1.2,1.6-1.9l0.1-0.1h-0.1c0.2-0.6,0.4-0.4,0.8-0.7
			c0.2-0.2,0.2-0.6,0.4-0.8c0.5-0.5,1.5-1.1,2.4-1.1c0.1,0.6,0.3,1.1,0.5,1.7c0.4,1.7-0.5,5.3-1.1,6.5c-0.3,0.7-1.2,1.3-1.3,1.7v1
			c-0.2,0.7-2,4-2.7,4.1c-0.1,1.7-1.8,3.1-2.7,4.2c-1.9,2.6-4.1,4.7-6.5,6.8c-0.5,0.4-1.7,1.2-2.2,1.6c-0.5,0.3-1.1,0.3-1.6,0.7
			c-0.7,0-1.6-0.4-1.9-0.6c-0.9,0.1-4.5,2.1-4.7,2.8c-0.3,0-0.6-0.1-0.8-0.1v-0.4h-0.4v-0.4c-0.3,0-0.4,0-0.6-0.1h-0.1
			c0.1-0.1,0.3-0.2,0.5-0.2c-0.1-0.4-0.1-0.5-0.2-0.7c0.8-2.6,3-2.9,5-4.2c1.9-1.3,3.6-3,5.2-4.6
			C354.5,240.8,355.5,240.1,355.8,239.1z M343.1,252.4c0.1-0.3,0.1-0.3,0.2-0.5c0.2,0,0.4,0.1,0.6,0.1c-0.1,0.1-0.2,0.3-0.4,0.5
			C343.5,252.5,343.3,252.4,343.1,252.4z M343.3,252.7c-0.2-0.1-0.1,0-0.2-0.1C343.3,252.7,343.2,252.6,343.3,252.7z M344.1,252.7
			v0.1c-0.3-0.2-0.1,0-0.2-0.4C344,252.6,344.1,252.7,344.1,252.7z M342.9,212.1c0.6,0.1,2.2-0.2,3,0c1.7,0.4,3.1,0.4,4.7,1
			c0.6,0.2,1.3,0.1,1.8,0.5c0.2,0.2,0.4,0.5,0.6,0.7c0.5,0.3,1,0.5,1.3,1l0.1,0.1h-0.1c-0.2,0.5-0.7,1.2-1.1,1.6
			c0,0-2.2-1.1-2.7-1.3c-0.5-0.3-1.8-1-2.5-1.3c-0.4-0.1-0.9-0.2-1.3-0.2c-1.4-0.6-2.8-1.6-4.7-1.7
			C342.3,212.2,342.8,212.2,342.9,212.1z M330,248.6c0-0.8,0.1-1.7,0.1-2.5c0.3-0.8,1-1.6,1.5-2.3h0.8c0.8,0.8,1.7,1.4,2.5,2.2
			c0.6,0.5,0.9,1.1,1.6,1.6c-0.9,1.9-1.4,4.6-0.7,7.6c0.3,1.2-0.5,2.1,0.4,3.1c-0.1,0.7-0.3,0.8-0.7,1c-0.8,0.5-2.9-0.2-3.4-0.8
			c-0.4-0.5-0.5-1.3-0.8-1.8c-1-1.5-1-2.9-1.2-4.6c0-0.5,0.1-1.1,0.1-1.6C329.9,249.5,329.9,249.2,330,248.6z M322.6,249.4
			c0.4-0.9,1.2-1.3,1.9-1.9c0.3,0,0.5,0.1,0.7,0.2c1.2,0,2.6,1.2,2.9,1.9c0.4,0.7-0.3,1.3-0.1,2.1c0.5,2.7,0.5,5.4,2.1,7.1
			c-0.2,0.8-0.8,0.7-0.8,1.8c-0.4,0-0.8,0-1.1,0.1c-0.7-1-1.9-1.5-2.5-2.4c-0.3-0.5-0.3-1.1-0.6-1.6c-0.5-0.9-1.3-2-1.7-3
			c0-0.4-0.1-0.7-0.1-1.1C322.9,251.8,322.1,250.5,322.6,249.4z M318.6,253.8c0.2-0.2,0.6-0.3,0.8-0.5c0.7,0.2,1.6,0.4,2.3,0.6
			c0,1.7,0.9,2.4,1.5,3.5c0.4,0.8,0.4,1.7,1,2.4c0.6,0.8,1.6,0.8,1.8,2.2c0.3-0.1,0.2-0.1,0.5,0h0.2c-0.1,1-0.3,0.7-0.1,1.7
			c-0.2,0.2-0.4,0.5-0.5,0.7c-0.4,0-0.8,0-1,0.1c-1.2-0.1-2.4-1.9-3.5-1.5c-1.1-0.9-2.7-4.5-3.6-6.1
			C317.7,256.8,318.1,254.3,318.6,253.8z M320.4,267.2c-0.7-0.7-0.7-1.7-1.6-2.3v-0.4h-0.5v-0.4c-1.6-0.4-1.3-1.4-2.1-2.5
			c0.1-0.6,0.5-1.3,1-1.5c0.1-0.1,0,0,0.2-0.1c0.9,1.7,1.9,4.2,3.6,5.1c0.4,0.1,0.8,0.2,1.2,0.2c0.6,0.3,0.7,1,1.5,1.2
			c-0.3,0.5-0.6,1-0.7,1.6c-0.1,0-0.2,0.1-0.4,0.1c-0.2-0.2-0.7-0.8-1-0.8C321.1,267.2,320.9,267.7,320.4,267.2z M336.9,295
			c-1,0.2-1.9-0.3-2.5-0.2c-0.8,0.1-3,0.5-3.8,0.2c-1-0.3-2-0.9-2.9-1.3c0-2.3,1.1-3.6,1.6-5.3c0.3-0.9-0.5-1.1-0.2-1.6
			c0-0.5,0-1,0.1-1.3c1,0,1.5,0.3,2.2,0.5c1.8,0.4,5.8-0.2,7-0.8c0.1-0.2,0-0.1,0.1-0.2c0-0.4,0-0.8-0.1-1c-0.5-0.4-1.3-0.4-2.2-0.2
			c-0.3,0.1-3.6,0.4-4.7,0.1c-1.1-0.3-2.6-0.8-3.9-0.6c-0.5-0.8-1.6-1.1-2.1-1.8c-1.7-2.8-4-6.3-3.4-10.9c0.5,0,1.1-0.1,1.6-0.1
			c0.6-0.6,1.4-1.2,1.9-1.9c0.1-0.4,0.2-0.9,0.4-1.3c0.3-0.3,0.8-0.3,1.1-0.5c0.7-0.5,2.1-2.5,2.1-3.4c0.5,0.1,0.8,0.1,1.2-0.2
			c0.4-0.3,0.2-0.4,0.5-0.8c0.2-0.1,0.4-0.2,0.6-0.4c0.1-0.3-0.2-0.5,0-0.8v-0.2c1.8,0.3,4.1,1.6,5.6,0c1.4,0.3,2.1,1.7,3.6,2.1
			c-0.2,1.8-2.5,2.7-4,3.1c-1.4,0.4-2.7-0.2-3.8,0.4c-0.4,0.1-0.4,0.1-0.5,0.5c-0.2,0.2,0,0.2-0.1,0.4c0.4,1.9,5.3,0.4,6.2,0
			c0.4-0.2,0.8,0,1.2-0.2c1.8-1.1,3.3-3.2,4.2-5.2c0.3-0.7,0.1-1.8,0.5-2.4c0.1-0.1,0.5-0.1,0.6-0.2c0.2-0.3-0.1-0.5,0-0.8
			c0.4-1.1,1-2.5,1.6-3.4c-0.1-0.2-0.1-0.7,0.1-1c0.5-0.9,1.9-1.1,2.5-1.8c0.4,0,0.7,0,1,0.1c0.1,0.4,0.2,1.5,0.1,1.7
			c-0.1,0.4-0.4,0.9-0.8,1.1c0.5,2.3-0.1,2.1-0.7,3.8c-0.5,1.4-0.4,2.8-0.7,4c-0.1,0.2-0.4,1-0.4,1.2c0.1,3,2,8.4-0.1,11.3l-1.1,0.7
			c-0.5,0.5-0.7,1.4-1.3,1.8c-0.6,0.4-4,0.9-5.2,0.5c-0.7-0.2-2.6-2.6-3-3.3c-1.1,0-1,0.4-1.6,0.8c0,0.3-0.1,0.4-0.1,0.6
			c0.9,1,1.3,1.8,2.5,2.7c0.4,0.3,0.6,0.9,1.1,1.1c0.7,0.3,1.1-0.1,1.7,0c0.5,0.1,0.9,0.2,1.3,0.4c0.7,0.2,1.7-0.3,2.2-0.1
			c0.4,0.2,0.5,0.5,0.6,1c0.1,0.3,0.1,0.1-0.1,0.4c0.2,0.2,0.3,0.1,0.5,0.2c0.3,0.8,0.6,1.7,0.8,2.5c0.3,0.4,0.8,0.7,1.1,1.1
			c1,1.4,1.5,3.1,2.8,4.1c0,1.2-0.9,1.1-1.6,1.6c-1,0.7-4.2,3.4-5.4,2.8c-0.8,0-0.8,0-1,0.4c-0.7,0.1-1.2,0.4-1.7,0.6
			C339,294.4,337.9,294.8,336.9,295z M378.2,326.5c-3,1-5.9,1.7-9,0.8c-1.2-0.3-2.4-0.2-3.4-0.7c-2-1.2-5-2-7.3-3.4
			c-0.6-0.4-1.1-1-1.7-1.5c-0.3-0.2-0.6-0.2-0.8-0.4c-0.2-0.2-0.3-0.6-0.5-0.7c-0.8-0.5-1.5-0.8-2.2-1.3c-0.3-0.2-0.4-0.6-0.6-0.8
			c-0.4-0.3-0.9-0.5-1.2-0.8v-0.4c-0.2,0-0.3-0.1-0.5-0.1c-0.7-0.7-1.2-1.8-1.9-2.5c-0.2-0.2-0.6-0.2-0.7-0.5
			c-0.2-0.3-0.4-1.3-0.6-1.6c-0.1-0.1-0.5-0.2-0.6-0.4c-0.2-0.3-0.2-0.6-0.4-0.8c-0.3-0.4-0.9-0.7-1.2-1.1c-0.8-1.2-1.1-2.7-1.8-4
			c-0.9-1.6-2.1-3.3-2.8-5c-0.3-0.8-0.5-1.6-0.8-2.3c-0.2-0.5,0.1-1.4,0-1.7l0.4-0.4c0.1-0.1,0.3-0.2,0.4-0.2c0.6,0,0.7,0.1,1.2,0
			c1,1.5,1.3,3.6,2.2,5.3c0.7,1.3,1.9,2.7,2.4,4.1c0.3,0.8,0.3,1.4,0.7,2.2c0.5,1,1.5,2,2.1,2.9l0.4,1.1c0.3,0.4,1,1,1.2,1.5
			c0,0.2-0.1,0.3-0.1,0.5h0.6c0.2,0.1,0.2,0.5,0.4,0.7c0.6,0.9,1.9,1.4,2.5,2.3c0.1,0.2,0.3,0.6,0.5,0.7c0.3,0.2,0.8,0.1,1.1,0.2
			c1.1,0.7,2.3,1.6,3.5,2.2c0.6,0.3,1.3,0.2,1.9,0.5c1.1,0.5,2.5,1.2,3.8,1.6c1.4,0.5,2.8-0.2,4.1,0.1c1.2,0.3,2.9,0.5,4.1,0.2h1.9
			c1.6-0.4,3-0.5,4.2-0.8c0.2-0.1,0.6,0.1,0.6,0.1c1.3-0.7,2.5-0.8,3.9-1.6c0.3-0.2,0.6-0.6,1-0.7c1.3-0.4,1.6,1.2,2.1,1.8v1.2
			c-0.3,0.1-0.6,0.2-1,0.4c-1.1,0.6-2.2,1-3.4,1.6c-0.5,0.2-1,0.8-1.5,1h-0.6c-0.2,0.1-0.5,0.4-0.7,0.5
			C379.2,326.6,378.9,326.2,378.2,326.5z M406.8,394.6h0.1c-0.1,9.8-10.1,11.7-17.9,14.5c-1.8,0.7-4.3,1.2-6.2,1.7h-1.1
			c-0.5,0.1-1.8,0.4-2.3,0.2c-1.4-0.5-2.9-0.9-4.1-1.6c-0.9-0.5-1.7-1.3-2.5-1.8c-0.1-0.6,0.1-1.9-0.4-2.3c0.1-0.7,0.4-0.8,0.7-1.2
			c0-0.2,0.1-0.5,0.1-0.7c0.2-0.4,1.5-1.9,1.8-2.3c0.2-0.2,0.5-0.2,0.7-0.4c2.4-2.3,4.7-4.8,8.1-6.2c0.7-0.3,3.8-1.9,4.5-1.6
			c0.1-0.1,0.1-0.1,0.1-0.4c0.4,0.1,1.3-0.2,1.7-0.5h0.5c-0.8,1.6-4.1,4.4-2.1,6.5c0.4,0.8,1.2,0.8,2.1,1.1c0.2,0.1,0.5,0.4,0.6,0.5
			c0.1,0,3.9,0.1,4.7-0.1C399.4,399.2,404.8,397.7,406.8,394.6z M404.1,390.1c0.3,0,0.5,0.1,0.7,0.2c0.6,0.4,0.3,0.8,0.7,1.3
			c-0.1,0.9-0.7,2-1.2,2.4H404c-0.2,0.2-0.4,0.6-0.6,0.8c-0.2,0.2-0.5,0.2-0.7,0.4c0,0.1-0.1,0.2-0.1,0.4c-0.3,0.3-1,0.3-1.5,0.5
			c-1.6,0.8-3,1.6-5.2,1.8c-1.4,0.1-3.4,0.8-4.6,0c-3-0.6,1.2-4.3,1.2-5c0.4-0.3,0.9-0.2,1.3-0.5c0-0.1,0.1-0.2,0.1-0.4
			c0.7-0.5,1.8-0.4,2.4-0.8c0.3,0,0.3,0.1,0.5,0.1c0,1-0.4,2,0,2.7c0.1,0.3,0.1,0.2,0.4,0.4c0.2,0.1,0.5,0,0.7,0.1
			c0.6-0.1,0.6-0.3,1-0.5c0.1-1.5-0.1-3,0.1-4.4c0.1-0.7-0.3-1.6-0.2-1.7c0.3-1.4,0.5-3.8,0.6-4.8c0.1-1-0.6-3.1-0.4-4.1
			c0.4-1.9,0.5-3.5,0.7-5c0.1-0.6-0.1-1,0-1.6c0.2-1.1-0.3-2.3-0.1-3c0.5-1.8,0.5-2.4,0.6-4.5c1-0.1,2.2,0.5,3.3,0.6
			c0.5,2.9,0.1,6.4-0.5,9.6c-0.3,1.5-0.9,3.7-0.6,5.1c0.1,0.6-0.2,1-0.2,1.3c-0.1,0.4,0,4,0.1,4.2c-0.1,0.8,0,2.1-0.1,2.8
			c-0.3,1.3-0.7,2.6-0.2,3.8c0.5,0.2,0.9,0.2,1.5,0.2c0.2-0.2,0.5-0.4,0.8-0.5C404,391.5,404,390.9,404.1,390.1z M448.5,393.3
			c2.3,0.1,3.8,1.8,5.2,2.8c0.3,0.2,0.6,0.1,1,0.2c0.4,0.2,0.8,0.8,1.2,1.1c1.4,0.9,2.7,1.4,3.6,2.8c0.6,0.8,1.3,1.9,1.7,2.8
			c0.3,0.7,0.3,1.6,0.6,1.9c0,3.1-4.3,3.8-6.8,4.4c-1.8,0.4-3.7-0.8-5-0.2c0,0-0.5,0-0.2-0.1l0.1-0.1c-2.1,0-5-1-6.8-1.8
			c-0.4-0.2-0.8-0.7-1.2-0.8c-1.5-0.7-3-1.1-4.1-2.1c-0.1-0.1-0.1-0.1-0.1-0.4c-0.9-0.1-0.7-0.6-1.2-1c-1.4-1.2-2.9-2.1-4-3.6
			c-0.5-0.8-0.3-1.8-1-2.4v-0.1c0.7,0.1,0.8,1,1.5,1.5c0.8,0.7,2.5,1.8,3.5,2.2v0.4c1.2,0.1,2,1.1,3.1,1.5c0.9,0.3,2.3-0.1,3.1,0
			c3.1,0.4,5.6,0.1,7-1.8c0.6-0.8,1.7-3,1-3.8c0-0.8-1.7-2.6-2.3-2.9V393.3z M442,392.3c2.6,0.2,6.2,3,6.7,5.6
			c-0.5,0.5-0.4,1.2-1.1,1.7c-0.9,0.8-4.2,0.9-5.8,0.6c-0.7-0.1-1.8-0.2-2.2-0.4l-0.6-0.6h-0.4c0-0.1-0.1-0.2-0.1-0.4
			c-0.3-0.3-0.8-0.2-1.1-0.5c-1.2-1-2.6-1.8-3.6-3c-0.1-0.1-0.4-1.6-0.2-1.8c0.1-0.9,0.6-0.9,1.1-1.5h0.5c0,0.5-0.1,0.9-0.2,1.1
			c0.1,0.6,0.5,0.7,0.5,1.1c0.7,0,1.4,0,1.9-0.5c0.7-1,0.3-3.8,0.4-5.1c0-0.3-0.3-0.4-0.2-0.6c0.4-1.4,0.1-5.5,0.4-7.5
			c0-0.1,0-2.3,0-2.4c0-0.1-0.3-0.2-0.2-0.5c0.3-1.1,0-2.3,0.2-3.6c0.3-1.6,0.7-3.2,0.7-5.3c0.4-0.1,0.9-0.3,1.3-0.4
			c0.5-0.1,1.3,0.3,1.8,0c0.1,0.1,0,0,0.1,0.2c0,0,0,0.6-0.1,1c0,0.1-0.1,0.3-0.2,0.5c0,0.1,0.2,1.5,0,1.9c-0.1,0.3-0.4,0.2-0.4,0.7
			c0.2,1.4-1.2,4.5-0.7,7c0.2,1-0.5,1.8-0.4,2.9c0.2,2.4-0.4,8.1-0.7,10.1c-0.2,1.1,0,1.5-0.2,2.3c0.3,0.2,0.8,0.3,1.1,0.5
			c0.8-0.1,0.9-0.6,1.5-1C441.4,393.4,441.7,393.3,442,392.3z M469.1,335.5c-0.6,0.3-1.2,0.7-1.8,1c-0.8-0.2-1.9,0.3-2.4,0.7
			c-0.1,0.4,0,0.3-0.1,0.6c0.2,0.2,0.5,0.4,0.6,0.7c0.6,0,2.4-0.3,2.8-0.1h0.2c0,0.9,0,1.5,0.1,1.9c-1.5,0.5-2.8,0.6-4,1.3
			c0,0.8,0.2,0.9,0.5,1.3c1.4,0.1,1.8-0.2,3-0.6l0.1,0.1c0,0.5,0.1,1.3-0.1,1.6c-0.3,0.2-1.9,1-2.4,1v0.4c-0.9,0-1.1,0-1.7,0.4
			c0,1.3,0.5,0.9,1,1.6c0.3-0.1,1.1,0,1.5-0.1c0.4-0.2,0.8-0.6,1.3-0.7c0.1,0.3,0.1,0.5,0.4,0.7c-0.2,0.3-0.7,1.3-0.4,1.8
			c-1,0.9-2.3,1.2-3.5,1.8c-0.1,0.7,0,0.8,0.4,1.3c0.4,0,1.4,0.2,1.6,0.1v-0.2c0.3-0.1,0.4,0.2,0.5,0.1c0.3-0.1,0.4-0.3,0.8-0.4
			c0,0.4,0,0.8,0.1,1c-0.5,1.6-2.9,1.9-4.1,2.8c0,0.8,0.1,0.9,0.4,1.3c0.5,0,1.2,0.1,1.5-0.1h0.4c-0.4,1-1.4,0.7-2.3,1.2
			c-0.3,0.2-0.4,0.6-0.7,0.7c0,0.3,0.1,0.6,0.2,0.8c0.6,0.5,2.7-0.2,3-0.5h0.1c0,0.4-0.1,1.1,0.1,1.3c-0.4,1-4,2-5.2,2.5
			c-3.5,1.6-8.5,1.9-11.5,2.7H448c-0.6,0.1-1.3,0.3-2.1,0.4h-1.9c-0.6,0.2-1.5,0.2-2.4,0.4c-0.5,0.1-1-0.3-1.3-0.2
			c-1.7,0.5-4,0.4-5.8,0.4c-0.5,0-1.2,0.2-1.5,0.1c-1.1-0.2-3.4-0.6-4.5-0.4c-0.9,0.2-2.1,0.1-3.4,0c-0.4,0-0.8,0.2-1,0.1
			c-0.1,0-0.7-0.4-0.8-0.4c-3.6,0.1-6.7-0.3-10.4-1c-0.5-0.1-1.5,0.1-2.3-0.1c-1.9-0.5-4.1-0.7-5.9-1.2c-0.4-0.1-0.9,0.1-1.1,0
			c-0.6-0.2-1.6-0.6-2.1-1c-0.2,0.1-1.5,0-2.1-0.1c-1.7-0.4-3.4-1.1-5-1.6c-0.8-0.2-1.6-0.1-2.4-0.4c-1.7-0.6-3.8-1.3-5.4-1.8
			c-0.8-0.3-1.4,0-2.2-0.4c-0.2-0.1-0.5-0.6-0.7-0.7c-0.3-0.1-0.6,0.2-1,0c-1-0.5-1.9-1.3-2.9-1.8c-0.2-0.7-0.5-1.2-0.6-1.7
			c0-0.2,0.5-1.5,0.5-1.7h-0.1c-0.1-0.3-0.4-0.8-0.4-0.8c0-0.2,0.1-0.3,0.1-0.5c-0.1-0.3-0.1-1-0.2-1.5c0-0.4,0.1-0.8,0.1-1.2
			c0-0.2-0.3,0-0.2-0.4c0.2-1.1,0.4-3,0.1-4.2c-0.3-1.3,0.4-2.6,0.2-3.6c-0.1-0.8,0.1-2.8-0.2-4.2c0-0.1-0.3-0.2-0.2-0.4
			c0-0.1,0.3-0.4,0.4-0.5c0.1-0.4,0-1.2,0-1.3c0-0.8-0.4-1.8-0.2-2.8c0.2-1.2,0.5-1.8,0.6-2.8c0.8-0.2,1.5-0.4,2.3-0.6
			c0.2-0.1,0.5-0.5,0.7-0.6c0.6-0.2,1-0.1,1.6-0.4c0.6-0.3,1.3-1,1.9-1.2c0.9-0.4,1.8,0.2,2.4-0.1c0.3-0.1,0.3-0.1,0.5-0.2
			c0.6-3.1,0.2-5.7-2.3-7c-0.4-0.2-1.6-0.8-2.4-0.5c-0.3,0.1-0.6,0.6-0.8,0.7c-1.2,0.6-2.2,1.4-3.9,1.5c0.1-2.2,0.2-3.9-0.1-5.8
			c-0.1-0.8,0.3-2.2,0.2-2.3c-0.1-0.1-0.2-0.2-0.4-0.2c-0.1-0.3,0.1-0.1,0.2-0.2c0.1-0.3,0-0.9,0-1.2c0.1-0.8-0.4-1.7-0.1-2.9
			c0.1-0.5,0.2-3,0.1-4c0-0.4-0.1-1.9,0-2.4c0.3-2.3,0.2-4.7,0.8-7c0.1-1.1,0.2-2.3,0.2-3.4c0.3-1.2,0.5-2.1,0.8-3.1
			c0-0.1-0.2-0.6-0.1-0.8c0.2-0.6,0.4-1.7,0.5-2.3c0-0.2-0.1-0.5-0.1-0.7c1.9-6.6,3.4-13.6,6.3-19.5c0.5-1,0.6-2.3,1.1-3.4
			c0.1-0.2,0.5-0.4,0.6-0.6c0.3-0.5,0.3-1.2,0.6-1.7c0.1-0.2,0.5-0.3,0.6-0.5c0.7-1.1,0.9-2.3,1.7-3.4c0.1-0.1,0.4-0.1,0.5-0.2
			c0.5-0.6,0.9-1.3,1.3-1.9c0.3-0.4,1-0.7,1.3-1.1c1.2-1.5,2.5-2.9,4.1-3.9c0.4-0.2,0.8,0,1.2-0.2c0.9-0.5,1.7-1.6,2.7-2.1h0.5
			c0.7-0.4,1.4-1.1,2.3-1.3c0.8-0.2,2-0.2,2.4-0.5c0.2-0.1,0.1,0,0.2-0.1c0.1-0.1,0.1-0.1,0.1-0.4c0.5,0,0.8-0.1,1-0.1
			c0.2-0.3,0.3-0.7,0.6-0.8c1-0.6,2.5-0.5,3.5-0.7c1-0.3,2.4-0.8,3.1-1c1-0.2,2,0,2.8-0.5c0.4,0,0.7,0,1,0.1c0,0.4,0.1,0.8,0.1,1.2
			c-0.1,0.2-0.7,0.8-0.4,1.3c0.1,0.2,0.4,0.5,0.5,0.8c0.1,0.3-0.2,0.6,0.1,1c0.2,0.4,0.4,0.4,0.6,0.7c1.9,0,1.3-1,1.1-1.8
			c-0.1-0.5,0.2-0.5-0.1-0.8c-0.1-0.3,0.2-0.8,0.2-1c0-0.4-0.3-1.2-0.4-1.7c0.3,0,0.6-0.1,1-0.1c0,1.2,0.1,4.2,0.5,5.3
			c0.1,0.6,0.3,0.6,0.5,1c2.9-0.1,1.2-3.5,0.8-4.8c0-0.4,0.1-0.8,0.1-1.2c1.1-0.2,1.7,0,2.5,0.1l0.1,0.1c0,2.9-0.6,5.2,0.4,7.3h1.3
			c0.4-0.2,0.1-1,0.2-1.2c0.1,0,0.2-0.1,0.4-0.1c0.2-0.5-0.6-1.1-0.6-1.2c-0.1-0.3-0.1-3.6,0.1-4c0.1-0.3,0-0.2,0.4-0.4
			c0.2-0.1,1.4,0.3,1.8,0.4c1.6,0.5,3.2,0.6,4.7,1.3l0.5,0.5h0.6c0.5,0.2,1,0.5,1.3,0.7c0.3,0.2,0.6,0,0.7,0
			c0.3,0.2,0.8,0.7,1.1,0.8c0.4,0.3,0.9,0.1,1.3,0.4c0.9,0.4,1.8,1.1,2.7,1.6c0.5,0.3,1.1,0.3,1.6,0.6l1.6,1.6
			c0.4,0.3,0.8,0.4,1.1,0.7c0.2,0.2,0.3,0.6,0.5,0.7h0.4c0.3,0.2,0.4,0.6,0.6,1c0.3,0.4,1,0.6,1.2,1v1.2c0,0.1,0.3,0.3,0.4,0.5
			c0.7,0.3,0.9,0.2,1.7,0c0.2,0.3,0.8,0.5,1,0.7c0.2,0.3,0.1,0.5,0.4,0.7c-0.1,0.5-0.4,0.6-0.7,0.8c0,0.8,0.2,0.8,0.4,1.5
			c0.4,0.1,2.3,0.4,2.5,0.6c0.4,0.3,0.5,0.8,0.8,1.1c0,0.5-0.8,1.4-1.1,1.7c0,0.6,0,0.7,0.1,1.3c0.6-0.1,2.2-0.1,2.8,0.4
			c0.9,0.4,0.7,1.3,1.3,1.8c-0.3,0.5-0.9,0.3-1.3,0.6c-0.2,0.2-0.2,0.4-0.5,0.6c0,0.3,0,0.3-0.1,0.5c0.2,0.6,0.8,0.6,1.2,1
			c0.7,0,1.1-0.1,1.5-0.4c0.5,0.3,1.2,2,1.2,2.5c-0.7,0-1.4-0.1-1.9,0.2c-0.3,0.1-0.3,0.3-0.5,0.5c0,1.2,0.3,1.1,0.7,1.7
			c0.4,0,0.7,0,0.8,0.1c2.2-0.1,1.4,0,2.2,1.2c-0.1,0.3-0.1,0.2-0.2,0.5c-1,0-1.6,0.1-2.2,0.4c-0.2,0.5-0.3,1-0.4,1.3
			c0.4,0.2,0.6,0.3,0.7,0.7c0.5-0.2,2.1-0.4,2.3-0.2c0.3,0,0.3,0,0.5,0.1c0.3,0.4,0.2,1.4,0.5,1.8c-0.7,0.4-1.6,0.6-2.5,0.5v0.4
			c-0.3,0-0.3-0.1-0.5-0.1c-0.1,0.4-0.1,0.9-0.1,1.5c0.5,0.1,0.7,0.5,1.1,0.6c0,0,2.2-0.4,2.4-0.5c0.1,0.1,0.2,0.2,0.2,0.2
			c0,0.6,0.3,1.4,0.1,1.7c-0.2,0.3-0.3,0.2-0.5,0.4c-0.3-0.2-0.1,0-0.2-0.4c-0.3,0-0.3,0-0.5,0.1v0.1c-0.4,0.1-0.5-0.4-1,0
			c-0.4,0.2-0.5,0.6-0.7,1c0,1,0.4,0.9,0.6,1.6c0.9-0.1,2.1-0.3,2.5-1c0.1,0.1,0.7,1.8,0.5,2.1c0,0.1-0.1,0.2-0.1,0.4
			c-0.2,0.1-0.5,0.2-0.7,0.2c-0.1,0-0.5-0.3-0.7-0.2c-0.6,0.1-1,0.6-1.5,0.8c0,0.4,0,0.7,0.1,0.8c0,0.1,0.1,0.2,0.1,0.4
			c0.4,0.1,0.7,0.2,1.1,0.2c0.3-0.1,0.9-0.3,1.3-0.1c0.4,0,0.7,0,1,0.1c0,0.7,0.1,1.2,0,1.9c-1.1,0-2.1-0.8-3,0
			c-0.4,0.1-0.4,0.3-0.6,0.5c0,0.7,0.2,0.9,0.4,1.3c0.3,0.1,0.6,0.2,0.8,0.4c0,0,0.5,0,0.2-0.1c0,0-0.1-0.1-0.1-0.1
			c0.4,0.1,0.7,0.3,1,0.4c0.6,0.2,1.1-0.2,1.7-0.1c0.1,1,0.3,1.5,0.4,2.5c-0.5-0.1-0.6-0.2-0.8-0.5c-1,0.2-3.3,1-2.5,2.2
			c0.1,0.3,0.2,0.3,0.4,0.5c0.9,0,3.1,0,3.3-0.2h0.2c0,1.1,0.1,1.2,0,2.2c-1.1,0.1-1.6,0.2-2.5,0.1c0,0.3,0.1,0.3,0.1,0.5
			c0,0-0.1-0.1-0.1-0.1c-0.8,0.1-0.7,0.6-1.2,0.8c0.1,0.4,0.1,0.4,0,0.8c0.3,0.3,0.6,0.6,0.8,1c1.3-0.2,2-0.6,3.1-0.7
			c0,0.4,0,0.9,0.1,1.1c-0.3,0.6-2.9,0.7-3.8,1.2c-0.1,0.3-0.1,0.3-0.2,0.5c0,0.8,0.3,0.7,0.5,1.2c1.2,0.2,2.5,0.2,3.5-0.1
			c0.1,0.1,0.2,0.2,0.2,0.2c0,0.4,0,0.9,0,1v1.5c-0.2,0.3-3.3,0.8-3.8,0.8c0,0.3,0,0.6,0.1,0.7c0.1,0.4,0.3,0.5,0.5,0.8
			c0.9,0.2,2.3,0.1,2.9-0.4h0.1c0,1.1-0.2,1.7-0.4,2.4c-0.5-0.1-1.8,0.5-2.4,0.1c-0.1-0.1-0.1-0.3-0.5-0.4c-0.3,0.4-0.5,0.7-1,1
			c-0.1,0.3,0,0.3-0.1,0.5c0.1,0.7,0.3,0.6,0.5,1.1c1-0.1,2.2-0.3,3.5-0.4c0,0.6-0.2,1.2,0.1,1.7c-0.1,0.3-0.2,0.4-0.4,0.6
			c-1.7,0-2.4,0.3-3.5,1.2c0,0.3,0.1,0.6,0.1,1c0.4,0.1,0.9,0.2,1.3,0.4c0.7-0.3,1.4-0.5,2.2-0.6c0,0.4-0.1,0.7,0,0.8
			c-0.1,0.5-0.2,0.4-0.4,0.7c-0.2-0.1-0.6-0.2-0.8-0.4c-3-0.1-3.3,1.5-3.8,3.5c-0.1,0.4-0.6,1.3-0.5,1.8c0.3,1.1,1.3,2.4,2.4,3
			c-0.4,0.5-0.6,0.6-0.8,1.3c0.1,0.1,0.3,0.3,0.4,0.5c0.5,0.2,1.5,0.4,2.2,0.1c0.1,0.3,0.2,0.6,0.4,0.8c-0.5,0.3-0.6,0.5-1.1,0.7
			c-0.3,0.1-0.3-0.1-0.5-0.1c-0.7,0.1-1.2,0.5-1.7,0.8c0.1,0.2,0,0.1,0.1,0.2c0.1,0.8,0.4,0.8,0.7,1.2c0.9,0,1.5-0.1,2.1-0.5
			C469.5,333,469.2,334.2,469.1,335.5z M466.6,281.4c-0.2-0.1-0.1,0-0.2-0.1C466.5,281.4,466.5,281.3,466.6,281.4z M491.4,352.8H491
			c0-0.6-0.2-0.5-0.4-0.8c0-0.6-0.1-1.1-0.1-1.7c-0.3-0.7-1.2-1.6-1.1-2.1c-0.2-0.3,0-0.1-0.4-0.2c-0.1-0.9-1.5-3.3-2.1-4.2
			c-0.3-0.5-0.8-0.9-0.8-1.7h-0.4c0-0.2-0.1-0.4-0.1-0.6h-0.4c-0.2-1.2-1-1.5-1.2-2.4h-0.4c-0.1-0.7-0.3-0.5-0.6-0.8
			c0.3-0.5-0.8-1.1-1-1.5c-0.2-0.4-0.2-0.9-0.5-1.2c-0.1,0-0.2-0.1-0.4-0.1v-0.5c-0.5-0.6-1.2-1.1-1.8-1.6c-0.4-0.3-0.5-0.9-0.8-1.2
			c-0.1-0.1-0.5-0.1-0.6-0.2c-0.2-0.2-0.2-0.4-0.4-0.6c-0.1,0-0.2-0.1-0.4-0.1c-0.1-0.2,0-0.5,0-0.5c-0.2-0.2-0.5-0.1-0.7-0.2
			c0-0.1,0.1-0.2,0.1-0.4c-0.2-0.1-0.5-0.2-0.7-0.2c-0.5-0.4-1.2-1-1.8-1.3h-0.5c0-0.2-0.1-0.3-0.1-0.5c-0.2-0.2-0.5-0.2-0.7-0.4
			c0-0.1-0.1-0.2-0.1-0.4c-0.3-0.2-0.6-0.1-1.1-0.2c-1.1-0.4-2.7-1.7-3.8-1.6c-0.1-0.5-0.5-1-1-1.5c0.1-1,0.6-1.8,0.7-2.7
			c1.5-0.1,3.8,1.5,5,1.9c0.5,0.2,0.8,1,1.2,1.3c0.2,0.2,0.7,0.2,0.8,0.4c0.2,0.2,0.2,0.7,0.5,0.8c0.7,0.5,1.4,0.8,1.8,1.5h0.4
			c0.2,0.9,1.5,1.3,2.1,1.8c0.8,0.7,1.4,1.7,2.2,2.4c0.4,0.4,1.1,0.7,1.5,1.2c0.2,0.2,0.1,0.5,0.2,0.7c0.3,0.4,0.8,0.6,1.1,1.1h0.4
			c0.2,1.3,1.3,2.7,1.9,3.6c0.3,0.5,0.3,1.4,0.5,1.7c0.4,0.5,1.1,1.2,1.3,1.8c0.4,0.9,0.5,1.8,1,2.5c0.4,0.6,0.9,1.3,1.2,1.9
			c0.3,0.6,0,1,0.2,1.5c1.2,2.5,2,4.5,3,7.1c0,0.6,0.1,1.1,0.1,1.7c0.4,1.3,0.9,2.5,1.2,3.6c0.3,1,0,1.9,0.2,2.4
			c0.1,0.2,0.5,0.5,0.6,0.7c0.2,0.5-0.2,1.3,0,2.1c0.5,1.7,0.4,3.3,0.6,4.8c-0.1,0.1,0,0-0.1,0.2c-0.3,0-0.4,0-0.6,0.1h-0.1
			c0-0.1,0.1-0.2,0.1-0.2c-0.3,0-0.5,0.1-0.7,0.2c-0.4-0.1-0.6-0.1-0.8-0.4c0-0.3,0.3-0.4,0.5-0.7c0.3-0.6-0.2-1.6-0.1-2.1
			c0.1-1.1-0.5-2.4-0.7-3.9c-0.1-0.8,0.2-1.3-0.1-2.3c-0.7-1.9-0.9-3.6-1.3-5.2C492.2,354.7,491.3,353.9,491.4,352.8z M508.4,394.3
			c-0.6,0.1-1.1,0.7-1.1,1.1c-0.5,0.1-0.9,0.4-1.6,0.2c-0.5-0.1-1-0.5-1.6-0.6c-0.1-0.4-0.2-0.4-0.2-0.8h-0.5
			c-0.1-0.7-0.5-1.8-1-2.2c-0.3-0.3-0.8-0.3-1.5-0.2c-0.3,0.3-0.6,0.4-0.8,0.7c-0.4,0.7,0.8,1.7,0.4,2.9c-0.1,0.3-0.5,1.4-0.7,1.7
			c-0.4,0.4-1,0.3-1.3,0.7c-0.7,0-1.2-0.1-1.3-0.7c-0.2,0.1-0.1,0-0.2,0.1c0,0-0.8-2-1-2.4c-0.1-0.5,0.2-1.1,0.1-1.3
			c0-0.1-0.4-0.3-0.4-0.5c0,0,0.3-0.1,0.1-0.2h-0.4c0.2-0.3-0.1-0.1,0.2-0.2c-0.1-0.2,0-0.1-0.1-0.2c0,0-1.3,0.1-1.6,0.2
			c-0.5,0.1-0.4,0.3-0.7,0.5c0,2.3-0.2,5.2-2.1,5.7c-0.1,0.1-0.7,0.2-0.8,0.1c-0.6-0.1-0.8-0.3-1-0.7c-0.3-0.2,0,0,0-0.5
			c-0.4-0.1-0.3-0.1-0.5-0.4c-0.8-0.7,1.3-3.4,1.5-4.5c0.4-0.1,0.3-0.2,0.6-0.4c0-0.2,0-0.2-0.1-0.4v-0.1l-0.2,0.1
			c-0.2-0.3-0.3-0.4-0.6-0.6V391c-0.5,0-1.3,0.1-1.7,0.4c-0.4,0.3-0.1,0.5-0.6,0.5c-0.4,0.8-0.9,1.6-0.8,2.5h-0.4
			c-0.1,0.6-0.2,0.8-0.7,0.8v0.4l-1.1,0.7v0.4c-0.2,0.2-0.7,0.3-1,0.5c-0.4-0.1-0.3-0.2-0.6-0.4c0-0.7,0.1-1.5,0-1.7
			c0.2-0.3,0-0.1,0.4-0.2c-0.1-1.6,0.5-2.6,1.3-3.8c0-0.2,0.1-0.5,0.1-0.7c0.2-0.4,0.7-0.8,1-1.2v-0.4c0.1-0.2,0.6-0.3,0.7-0.5
			c0.5-0.7,0.8-1.8,1.3-2.4c0-0.7,0-0.9-0.4-1.2c-0.9-0.7-4.1,1.2-5,1.6c-0.3,0.1-4.7,0.3-5.3,0.1c-0.1,0-0.3-0.4-0.4-0.5
			c-0.4,0-0.7-0.1-1.1-0.1c-0.3-0.1-0.2-0.3-0.6-0.4c0-0.3-0.3-0.5-0.2-0.7c0.2-0.8,1-1.3,1.2-2.1c0.3-0.1,2.2-0.4,2.3-0.4
			c0.1,0.1,0.2,0.2,0.2,0.4c0.2,0.1,1.2,0.1,1.5,0.1c2.5,0.7,5.2,0,6.4-1.9c0.6-0.9,0.8-5.1,0.8-5.8c0-0.2-0.3-0.5-0.4-0.7
			c-0.1-0.5,0-1.9,0.1-2.1V372c1.1,0,1.6,0.7,2.8,1c1.8,0.5,4.5,0.1,6.1-0.4c0.7-0.2,2.9-0.2,2.7-0.8c0.7-0.3,1.1,0.2,1.6-0.5
			c0.4,0,0.6,0,0.8,0.1c0.2,0.8,0,1.2,0.1,1.9c0.2,0.1,0.3-0.1,0.2,0.2c-0.2,0.2-0.2,1.2-0.1,1.6c0.2,0.9,0.7,2.3,0.7,2.8
			c0,0.3-0.1,0.6-0.1,1c0.1,0.2,0.5,0.7,0.6,1c0,0.3-0.1,0.6-0.1,0.8c0.2,1.4,0.6,2.7,1,3.8v0.8c0.1,0.3,0.6,0.8,0.7,1.1
			c-0.2,0.4,0.4,1.5,0.7,1.9c0.2,0.3,0.4,0.1,0.7,0.2c-0.5,0.3,1.4,1.6,1.6,1.8c0.6,0.7,1,1.5,1.6,2.2
			C508.7,393.4,508.4,393.5,508.4,394.3z M411,242c-0.1,0.2-0.2,0.2-0.2,0.5c0.2,0,0.3-0.1,0.5-0.1C411.1,241.9,411.3,242.1,411,242
			z M344.3,251.7h0.4v-0.2c-0.2-0.1-0.1,0-0.2-0.1C344.3,251.4,344.3,251.4,344.3,251.7z M431.6,262.2c0.4-0.1,1.1-0.6,1.5-0.5
			c1.2,0.1,3.6,3.5,3.8,4.7h0.4c0.1,0.5,0.2,0.4,0.5,0.7c0.9,0,1.1-0.3,1.6-0.6c0-1.6-2.5-5.1-3.6-6.1c-0.6-0.5-0.5-1.1-1.6-1.2
			v-0.4c-0.6-0.1-2.1-0.9-2.4-0.7h-0.1c0-0.1,0.1-0.2,0.1-0.2c-1.9-0.1-3.1-0.2-3.6,1.2c-0.1,0.2-0.2,0.5-0.1,0.6
			C427.8,261.3,429.8,262.7,431.6,262.2z M410.3,271.5c1.3-0.5,1.9-2.1,2.7-3.1c0.5-0.7,1.4-1.2,2.1-1.8c1.4,0.2,1.1,1.1,3.4,1.1
			c0.3-0.3,0.8-0.5,1.1-0.8c0.2-0.2,0.6-1.2,0.1-1.8c-0.1-0.3-0.3-0.3-0.5-0.6c-1,0-2.4-0.1-3.1-0.4c-0.4,0.4-1.2,0.3-1.8,0.5
			c-0.5,0.2-1.2,0.7-1.6,1c-0.4,0.3-0.4,0.6-0.6,1c-0.3,0.3-0.6,0.6-1,0.8c-0.6,0.8-1,1.2-1.8,1.8c-0.2,0.3-0.4,0.6-0.6,1
			c0,0.3,0,0.3,0.1,0.5C408.9,271.1,409.8,271.6,410.3,271.5z M432.1,280.1c-3,0-2.9,3.8-2.8,5.8c0.8,0.9,1.5,1.7,2.7,2.2
			c0.5,0.2,1.2-0.1,1.6,0c0.1,0.1,0.2,0.2,0.2,0.4c0.9,0.3,2-0.6,2.4-0.8c1.8-1.1,2.1-2.7,2.3-4.8c-0.5-0.6-0.5-1.2-0.7-1.7
			c-0.2-0.4-1-1-1.3-1.3c-0.3-0.2-0.9-0.4-1.3-0.5v-0.4C434.4,278.9,432.3,279.9,432.1,280.1z M435.1,282c-0.2-0.1-0.1,0-0.2-0.1
			C435.1,282,435,282,435.1,282z M434.4,281.8c0.1,0,0.2,0.1,0.2,0.1v0.1h-0.2V281.8z M435.2,284.4c0.3-0.4,0.3-1.2,0.2-1.6h0.1
			c0.1-0.2,0.2,0.1,0.4,0.2c0.1,1.9-0.3,3-1.8,3.3c-0.4,0.2-1.6,0-2.1-0.5c-0.4-0.2-0.5-0.6-0.8-0.8c0-0.5-0.1-1.4,0.2-1.8
			c0.2-0.6,1-0.9,1.7-0.6c0.1-0.2,0.2-0.5,0.2-0.7c0.2,0.1,0.3,0.1,0.6,0.1c-0.2,0.5-0.6,1.2-1,1.6c0.1,0.8,0.4,0.9,0.6,1.5
			C434.5,285,434.8,284.8,435.2,284.4z M416,280c-2.3,0-5.1,4.2-3.5,6.7c2.1,3.2,7.3,2.9,9.1-0.4c0.1-0.1,0.5-2.4,0.5-2.7
			c0-0.1-0.4-0.5-0.4-0.6c-0.1-0.3,0.3-0.2,0.2-0.4c-0.1-0.2-0.3-0.2-0.2-0.5c0,0,0.1-0.1,0.1-0.1c-0.1-0.1-0.5-0.1-0.6-0.2
			c-0.3-0.3-0.4-1.1-0.6-1.5c-1.3-0.3-2.1-0.6-3.9-0.6C416.4,279.9,416.1,279.9,416,280z M419.5,283.5c0.1,0.6,0.2,1.6-0.4,2.2
			c-0.4,1-2.1,1.5-3.3,1c-0.3-0.1-1.1-0.7-1.2-0.6c-0.8-0.5-0.3-3.1,0.4-3.9c0.2-0.3,0.8-0.5,1.1-0.7
			C418.1,281.4,418.5,282.5,419.5,283.5z M415.8,285.2c0.2,0.5,0.5,0.4,0.8,0.7c0.7-0.1,1.3-0.4,1.5-1c0.3-0.4,0.1-0.8,0-1.5
			c-0.5-0.1-1.1-0.1-1.3-0.2c-0.6,0.1-0.8,0.4-1,0.8C415.7,284.3,415.7,285,415.8,285.2z M421,298.8c-0.2,0.2-0.4,0.4-0.6,0.6
			c0.1,0.4,0.1,0.8,0.4,1.1c0.8,2.2,5.1,1.6,7,1c0.4-0.1,1-0.7,1.3-1c-0.1-0.9-0.4-1-0.8-1.6h-1.5c-0.2,0.2-0.3,0.4-0.5,0.6
			c-0.6,0.4-2.1,0.8-2.8,0.4c-1-0.1-1-0.8-1.7-1.2C421.7,298.8,421.4,298.8,421,298.8z M443.8,302.5c-0.9,0-2.1,0.2-2.7,0.5
			c-0.4,0.2-0.5,0.8-0.8,1.1c-0.3,0.3-1.9,0.8-2.3,1c-0.1,0-0.2-0.1-0.4-0.1c-0.3,0.1-0.5,0.4-0.7,0.5c-0.5,0.2-1.6,0.2-1.8,0.4
			c-1.3,0.8-3.2,1.3-4.7,1.9h-1.2c-1.8,0.5-3.9,0.7-5.7,1.1c-1.9,0.4-7-1.1-8.1-1.9c0-0.1-0.1-0.2-0.1-0.4c-0.5-0.3-1.3-0.2-1.8-0.5
			c-2.4-1.4-4.6-2.2-7.9-2.8c-0.4,0.3-0.7,0.6-1.1,0.8c0.1,1.5,1.6,2.1,2.5,2.8c1.2,0.9,2.3,2.8,3.1,4.1c2.4,3.6,5.7,10.1,9.4,11.7
			c2.4,1.1,6.6,0.3,8.4-1c0.1-0.2,0.2-0.3,0.2-0.5c0.5-0.4,1.1-0.4,1.6-0.7c0.4-0.3,0.6-0.8,1-1.1c0.2-0.1,0.5-0.1,0.7-0.2
			c0.1-0.1,0.2-0.5,0.4-0.6c0.7-0.6,1.5-1.2,2.1-1.9c0.4-0.5,0.5-1.1,0.8-1.6c0.1,0,0.2-0.1,0.4-0.1c0-0.2,0.1-0.4,0.1-0.6
			c0.2-0.4,0.8-0.7,1-1.1c0.3-0.7,0.4-1.1,0.7-1.7c0.4-0.4,0.9-0.9,1.3-1.3c0.5-0.7,0.7-1.3,1.2-1.9c1.3-1.8,4.1-2.1,5.1-4.2
			c0.1-0.2-0.1-0.7-0.1-1.1C444,302.9,444,302.8,443.8,302.5z M434.2,311.6c-1.9,3.2-3.1,5-6.1,7.1L427,320
			c-0.9,0.5-2.2,0.9-3.3,1.2c-0.4,0.1-1.1,0-1.5,0.2c-2.4-0.4-4.1-2.5-5.4-4c-0.4-0.4-0.4-1-0.7-1.5c-0.2-0.3-0.7-0.4-0.8-0.7
			c-0.2-0.3-0.1-0.5-0.2-0.8l-0.7-0.7v-0.5c-0.1-0.1-0.5-0.2-0.6-0.4c-0.4-0.6-0.5-1.2-1-1.7c-0.2-0.2-0.5-0.3-0.6-0.5v-0.4
			c-0.1,0-0.2-0.1-0.4-0.1v-0.5c-0.7-1-1.7-1.9-2.3-3c2.3,0.4,4.3,1.9,6.3,2.9c0.7,0.4,1.4,0.2,2.3,0.5c0.4,0.1,1.1,0.6,1.5,0.7
			c1.3,0.5,1.8-0.1,3.3,0.2c1,0.2,1.9-0.1,3-0.4c1.2-0.3,2.9-0.1,3.8-0.4c0.1,0,0.4-0.3,0.5-0.4c0.8-0.1,1.5-0.2,2.3-0.2
			c0.4-0.2,1-0.7,1.5-0.8c1-0.4,2.3-0.5,3.1-1.1h0.1C436.6,309,434.9,310.4,434.2,311.6z"/>
	</g>
</g>
</svg>
