<?xml version="1.0" encoding="utf-8"?>
<!-- Generator: Adobe Illustrator 21.0.0, SVG Export Plug-In . SVG Version: 6.00 Build 0)  -->
<svg version="1.1" id="Calque_1" xmlns="http://www.w3.org/2000/svg" xmlns:xlink="http://www.w3.org/1999/xlink" x="0px" y="0px"
	 viewBox="0 0 841.9 595.3" style="enable-background:new 0 0 841.9 595.3;" xml:space="preserve">
<style type="text/css">
	.st0{fill:#1D1D1B;}
	.st1{fill:#DADADA;}
</style>
<g>
	<g>
		<path class="st0" d="M524.5,233c-1-1-2-2-3-3c-2.6,0.7-5.3,1.6-7.8,2.3c-6.6,1.8-12.1,2.8-18,5.1c-5,1.9-11.4,5-17.5,5.5
			c-0.1-0.2-0.2-0.3-0.2-0.5c2.1-7.6,3.6-13.9,6.3-21.4c0.5-1.2-0.2-3,0.2-3.7c1.2-2,3.2-3.5,3.5-6.9c-0.5-0.6-0.9-1.1-1.4-1.7
			c-1.6,0-3,0-4.6,0c-6.3,4.7-12.9,8.9-19.7,13.4c-4,2.7-7.6,6.7-12.2,8.5c-9.6-7.5-17.8-19.1-25.1-28.8c-2.7-3.5-5-8.5-11.1-8.5
			c-0.6,0.6-1.4,1.4-2,2c-1.4,1.8,0.1,10.5,0.5,13.1c-0.2,3.3-0.3,6.6-0.5,10c0.2,5,0.3,10,0.5,15c0.3,2.5,0.6,5.1,0.9,7.6
			c-3.7,7.2-24.7,11.4-26.6,16.2c-0.2,0.1-0.3,0.2-0.5,0.2c5.4,3.6,26,11.7,27.2,17.4c1.1,4.8-1.7,10.7-2.6,14.6
			c-1.5,6.3-1.1,13.7-2.6,20.3c-0.5,3.9-0.9,7.8-1.4,11.8c0.3,0.8,1.5,1,2.6,1.1c6.8-5.4,13.7-15.5,18.9-22.6
			c4.9-5.3,9.9-10.6,14.8-15.9c3,0.8,9,7.7,11.5,10c3.7,3.2,7.8,5.8,11.1,9.4c6.3,6.8,13.3,17.1,20.8,22.3c1.4-1,1.7-1.1,3.9-0.9
			c0.5-0.5,0.9-0.9,1.4-1.4c-0.5-8.4-5.1-15.5-7.8-22.6c-2.2-5.7-2.7-12-3.9-18.3c-0.6-3.1-2.1-6.7-1.4-9c1.4-4,7.5-6.7,10.2-9.7
			c4.9-5.4,13.4-9.9,19.9-14.3c1.6-1.6,3-3.2,4.6-4.8c2.7-1.8,5.2-3.3,7.4-5.5c1.6-1.5,2.4-3.3,4.2-4.6
			C524.6,234.1,524.5,233.6,524.5,233z M501.8,242.7c-2.4-0.5-4.1,0.2-7.2,0.2c-0.2,0.6-0.5,1.1-0.7,1.7c-0.2,0.2-0.5,0.5-0.7,0.7
			c1.1,0.6,2.4,0.7,4.2,0.7c-1.2,1.4-5.7,2.3-7.8,2.6c-0.6,1.8,0.4,2.5,2.6,2.3c-0.6,0.6-1.2,1.2-1.8,1.8c-1.6-0.5-2.4-0.7-4.4-0.9
			c-0.6,0.5-1.4,0.9-2,1.4c0,0.5,0,0.9,0,1.4c1.1,0.2,2.1,0.3,3.2,0.5c-1.8,1.9-6.9,0.9-9,2c-0.3,0.3-0.6,0.6-0.9,0.9
			c0.1,0.3,0.2,0.6,0.2,0.9c1,1.6,2.7,0.2,4.8,0c-0.6,0.6-1.4,1.4-2,2c-0.8,0.6-5.7-0.4-8.1,0.2c-0.2,0.4-0.3,0.7-0.5,1.1
			c1.2,1.5,3.7,0.5,5.5,1.4c-0.1,0.2-0.2,0.5-0.2,0.7c-2.3,1.7-9,0.5-12.7,2.6c-0.3,0.3-0.6,0.6-0.9,0.9c0.1,0.3,0.2,0.6,0.2,0.9
			c3,0.5,6-0.9,9.2-1.1c-0.8,1.1-1.8,1.9-1.1,3.9c-0.2,0.8,0,1.2-0.5,1.8c-1.9-0.6-6.2,0.1-7.7,1.4c-0.2,0-0.3,0-0.5,0
			c0.3,0.7,0.6,1.6,0.9,2.3c2.3-0.6,4.6-1.1,6.9-1.7c0.2,0.2,0.3,0.3,0.5,0.5c0,1.1,0,2.3,0,3.5c-2.3,0.5-6.7-0.3-7.2,2.8
			c1.9,0.1,3.9,0.2,5.8,0.2c1.9-0.4,2.1,1.1,2.6,2.8c-0.7,0.6-2.6,0.6-3.5,0.9c-0.4,0.4-0.7,0.7-1.1,1.1c-0.1,0.3-0.2,0.6-0.2,0.9
			c1.8,1.1,3.5,0,5.4,0.5c1.1,0.7,1.5,3,1.8,4.4c0,0.1,0,0.2,0,0.2c-1.9-0.1-3,0-4.6,0.5c-0.5,0.7-0.8,1-0.5,2
			c0.1,0.2,0.2,0.5,0.2,0.7c1.9-0.1,3.9-0.2,5.7-0.2c0.4,1.4,0.7,2.8,1.1,4.2c-1.8-0.2-2.7-0.9-4.2-0.2c-0.5,0.4-0.9,0.7-1.4,1.1
			c0.1,0.4,0.2,0.7,0.2,1.1c1.4,0.8,3.9,0.8,5.7,0.2c0.6,1.7,1.2,3.4,1.8,5.1c-1-0.2-2-0.3-3-0.5c-0.2,0.4-0.5,0.7-0.7,1.1
			c-0.1,0.2-0.2,0.5-0.2,0.7c0.2,0.3,0.3,0.6,0.5,0.9c1.8,0.5,2.5,0.1,4.4-0.2c0.6,2,1.4,4.2,2,6.3c0,0.3,0,0.6,0,0.9
			c-5.4-3.3-9.7-10.1-13.9-14.8c-4.6-5.2-10.7-8.8-15.9-13.4c-2.5-2.2-6.6-9.8-11.3-7.6c-2.6,1.3-4.4,5.9-6.5,8.1
			c-4.7,5.1-9.9,10.2-14,15.7c-2.8,3.7-5.9,8.5-9.7,11.1c-0.5-4.8,1-10.8,1.8-15.7c0-2.1,0-4.3,0-6.5c1.3-7.6,3-14.6,3.9-21.4
			c-3.3-4.3-18.4-12.7-24.2-14.3c-0.2-0.3-0.5-0.6-0.7-0.9c7.3-3.4,15.1-9.6,23.8-11.1c1.5-4.3-1.2-10.5-0.9-16.4
			c0.5-9.3-0.8-20.9-0.9-30.3c0.1,0,0.2,0,0.2,0c1.8,2,3.5,4.2,5.4,6.3c-0.4,0.9-0.7,1.8-1.1,2.8c0.2,0.2,0.3,0.5,0.5,0.7
			c1.2,0.2,1.8,0,2.8-0.5c1.4,1.5,2.8,3,4.2,4.4c-0.8,0.6-1.7,1.2-2.6,1.8c0.1,0.3,0.2,0.6,0.2,0.9c0.2,0.2,0.3,0.3,0.5,0.5
			c1.2,0.6,2.3-0.4,3.9-0.7c1.3,1.9,2.6,3.9,3.9,5.7c-0.7,0.2-1.6,0.5-2.3,0.7c-0.2,1.2,0,1.5,0.2,2.6c2-0.2,3-1,4.6-0.7
			c1.4,0.6,2.5,2.3,3.2,3.7c-0.9,1.2-2.5,1.6-3.2,3c0,0.2,0,0.5,0,0.7c0.3,0.3,0.6,0.6,0.9,0.9c1.3-0.7,2.3-1.5,4.2-1.7
			c1.1,0.9,2.2,2,2.8,3.5c-0.6,0.8-1.2,1.7-1.8,2.6c0,0.4,0,0.7,0,1.1c3.3,1.8,9-3.3,11.3-5.1c1.9-1.5,4.1-2,6-3.5
			c6.6-4.8,13.2-11.1,21.1-14.6c0.1,0,0.2,0,0.2,0c-1.4,7.5-4.5,6.2-7.2,10.3c0.2,0.3,0.3,0.6,0.5,0.9c1.1,0.2,1.7,0.1,2.8-0.2
			c0.1,0,0.2,0,0.2,0c0.3,1.4-0.2,2-0.5,3.5c-3.4,0.6-6.6,0.6-8.1,3.7c0.1,0.2,0.2,0.3,0.2,0.5c2.2,0.4,3.9-0.8,6.5-1.1
			c-0.6,2.4-1.2,4.8-1.8,7.2c-2.2,0.6-4.4,1.1-6.7,1.7c-0.4,0.8-0.7,1.7-1.1,2.6c0.4,0.3,0.7,0.6,1.1,0.9c1.7-0.5,3.4-0.9,5.1-1.4
			c0,0.1,0,0.2,0,0.2c-2.2,3.8-5.6,4.9-10.9,6.3c-0.1,0.2-0.2,0.5-0.2,0.7c0,0.4,0,0.7,0,1.1c3.5,0.6,6.4-1.4,9.2-2.3
			c6.8-2.1,13.4-3.4,20.8-6c6.5-2.3,13.5-7,21.4-7.2C507.3,238.3,504.5,240.5,501.8,242.7z M302.4,290.7c7,2.7,14.4,3,23.3,3.5
			c3.8,0.2,6.9,0.6,10.3-0.2c4.3-1,8-3.8,11.5-5.4c1.5-0.2,3-0.5,4.4-0.7c4.2-2.5,8.5-4.9,12.7-7.4c2.1-1.8,2.8-4.5,4.4-6.9
			c1-1,2-2,3-3c8-15.1,5.9-35.5-3.7-48c-1.7-2.2-4.3-3.4-6.6-5.1c-13.5-9.4-23.5-11.4-45.1-12.9c-4.6,1.8-9.6,0.9-14,3
			c-12.3,5.7-22.2,16.4-26,29.5C269.2,261.5,284.7,283.9,302.4,290.7z M277.9,241.3c3-10,9.5-22.9,18.7-28.2c5-2.9,11-3.2,16.6-6
			c10,0,17.2,0.6,25.4,2.3c0.1,0.2,0.2,0.3,0.2,0.5c-1.4,0-2.8,0-4.2,0c0,1.2,0.1,0.8-0.2,1.7c1.9,1.8,6.2-0.2,8.5,0.5
			c1.1,0.6,2.3,1.2,3.5,1.8c0.1,0.2,0.2,0.3,0.2,0.5c-1.6,0.2-3,0.3-4.6,0.5c-0.2,0.2-0.5,0.5-0.7,0.7c0,0.2,0,0.3,0,0.5
			c0.4,0.3,0.7,0.6,1.1,0.9c4.8,1.8,9.2-1.9,11.8,2.6c0.4,0.4,0.7,0.7,1.1,1.1c-2.6,0.2-4.9,0.7-6.9,1.1c0,0.5,0,0.9,0,1.4
			c0.2,0.2,0.5,0.3,0.7,0.5c2.5-0.1,4.9-0.2,7.4-0.2c1.7,0.9,3.1,3.3,3.9,5.1c0,0.1,0,0.2,0,0.2c-3.3,0-6.6-0.2-9,1.1
			c-0.2,0-0.3,0-0.5,0c0.1,0.6,0.2,1.1,0.2,1.7c0.7,0.4,9,0.4,11.3,0.5c0.3,1.8,0.9,2.1,0.7,3.9c-2.5,0.6-5.1,1.1-7.6,1.7
			c-0.2,0.6-0.5,1.2-0.7,1.8c3,1.2,6.3-1.6,9.2-0.5c1.1,1,1.5,4.8,1.4,6.3c-3.8-0.1-6.6,0.2-8.3,2c0,0.3,0,0.6,0,0.9
			c2.7,0.5,5.3-0.4,8.5-0.5c0.2,2,0.3,4.2,0.5,6.3c-2.1,0.2-6.2,0.7-7.8,2.3c1.4,2.9,3.8,1.1,7.2,0.9c-0.3,2-0.6,4-0.9,6
			c-2.5,0.4-4.9,0.7-7.4,1.1c-0.1,0.2-0.2,0.3-0.2,0.5c0,0.3,0,0.6,0,0.9c1.3,0.8,3.7,0.7,6,0.7c-0.6,2.4-2.4,5.8-4.2,7.2
			c-1.9-1.3-4-0.8-6.9-0.9c-0.3,0.5-0.6,0.9-0.9,1.4c0.1,0.2,0.2,0.3,0.2,0.5c1.7,1,3.5,1.1,6,0.9c0.1,0.2,0.2,0.3,0.2,0.5
			c-1.9,1.9-3.9,3.9-5.7,5.7c-2,0.7-5.1,0.5-6.6,0.7c-0.2,0.2-0.3,0.5-0.5,0.7c0,0.3,0,0.6,0,0.9c1,0.1,2,0.2,3,0.2
			c0,0.2,0,0.3,0,0.5c-4.8,2.3-9.6,8-16.2,7.6c-29.4-1.8-42.4-6.6-51.5-29.4C277.5,256.5,276.2,247.3,277.9,241.3z M389.6,393.7
			c0.2-4.8-1.5-11.8-2.6-17.4c-0.5-6.8-0.9-13.7-1.4-20.5c-1.2-5.6-2.3-12.3-1.1-19.2c1-6.3-3.1-10.7-1.7-16.4
			c-2.9-3.6-14.6-2.1-20.5-3.5c-8.5-1.8-24.6-1.7-33.2-0.2c-4.1,0.6-8.3-0.4-11.3,0.5c-3-1.2-7.7,0.5-11.5-0.2c-5-0.2-10-0.3-15-0.5
			c-3.1-0.4-6.3-0.7-9.4-1.1c-0.3,0.4-0.6,0.7-0.9,1.1c-0.6,1.9,0.3,5.1,0.2,6.9c-0.1,7.7,1.6,17.7,1.4,25.9
			c-0.2,6.3,0,12.7,0.9,19.6c0,5.3,0,10.6,0,15.9c0.4,3.8,0.7,7.6,1.1,11.3c-0.3,7.2-0.2,15.6,0.5,22.6c8.5,2.2,18.6-0.4,27.7,1.1
			c11.1,1.8,21.4,0.6,31.4,1.7c7.2,0.6,15.8,1.4,22.9,0.5c5.1-0.6,23.7,1.1,25.7-0.9C395.5,417.4,389.5,399.9,389.6,393.7z
			 M352.2,418.8c-12.6,0.4-23.5-0.7-36-1.8c-9.3-0.3-18.7-0.6-27.9-0.9c-2.6-11.7,0-25.1-2.8-37.7c0.1-3,0.2-6,0.2-9
			c-0.9-16.8-1.8-33.7-2.8-50.6c11.2,0.2,22.3,0.5,33.4,0.7c18.5-2.6,41.3-1,58.6,1.8c0.2,1,0.3,2,0.5,3c-2.5,0.1-5.1,0.2-7.6,0.2
			c-0.4,0.7-0.7,1.6-1.1,2.3c0,0.1,0,0.2,0,0.2c2.5,1.4,5.7,0.4,8.5,0.2c0.2,0.2,0.3,0.3,0.5,0.5c0,0.7,0,1.6,0,2.3
			c-1.7,0.6-4.8-0.5-6.9,1.1c-0.2,0-0.3,0-0.5,0c0.1,0.6,0.2,1.1,0.2,1.7c1.7,1.9,5.4,0,7.4,2.3c-0.2,0.3-0.3,0.6-0.5,0.9
			c-1.2,0.7-4.2,1.2-5.5,1.7c-0.2,0.2-0.3,0.5-0.5,0.7c0,0.6,0,1.1,0,1.7c2.7,0.6,3.9,0.1,6.5,0.5c0.2,1.2,0.5,2.5,0.7,3.7
			c0,0.1,0,0.2,0,0.2c-2.2-0.1-3.7-0.5-5.1,0.2c-0.7,0.5-0.6,0.4-0.7,1.7c0.4,0.4,0.7,0.7,1.1,1.1c1.6-0.2,3.2-0.3,4.8-0.5
			c0.1,1.9,0.2,3.9,0.2,5.7c-1.3,0.1-2.6,0.2-3.9,0.2c-0.3,0.6-0.4,0.8-0.5,1.8c1.3,0.8,2.6,1,4.4,0.9c0.6,1.3,0.6,4,0.7,5.7
			c-1.5,0.1-3,0.2-4.4,0.2c-0.2,0.6-0.5,1.2-0.7,1.8c1.6,1,3,1,5.4,0.9c0.1,1.5,0.2,3,0.2,4.4c0.2,1.6-2.5,1.1-4.4,1.1
			c-0.3,0.6-0.4,0.8-0.5,1.8c0.1,0.2,0.2,0.3,0.2,0.5c2,0.6,2.8,0.6,5.1,0.7c0.2,1.7,0.5,3.4,0.7,5.1c-1.6,1.7-3.9-0.3-4.4,2.8
			c1.4,0.9,3,0.6,4.8,0.9c0.2,1.6,0.5,3,0.7,4.6c0,0.1,0,0.2,0,0.2c-1.4,0.2-2.8,0.3-4.2,0.5c-0.1,0.2-0.2,0.3-0.2,0.5
			c0,0.4,0,0.7,0,1.1c1,0.6,3,1.1,4.4,0.7c1,1.8,0.5,4.1,0.9,6c-1.8,0.8-4-0.2-5.4,1.1c-0.5,0.5-0.2,0.4-0.5,1.1
			c3.1,3.5,5.1-1.8,6.6,4.8c-0.1,0.3-0.2,0.6-0.2,0.9c-1.8,0.3-3.1,0.6-4.6,1.1c-0.1,0.2-0.2,0.5-0.2,0.7c0.2,0.8,0,0.5,0.5,0.9
			c0.8,0.6,3,0.6,4.6,0.5c0.4,1.5,0.7,3,1.1,4.4c0,0.1,0,0.2,0,0.2c-1.7-0.2-3.4-0.1-4.8,0.2c-0.2,0.2-0.3,0.3-0.5,0.5
			c0.1,0.4,0.2,0.7,0.2,1.1c1.7,1.1,2.7,1.3,5.4,1.1c0,0.2,0,0.3,0,0.5c0.3,0.4,0.1,1.8,0.2,2.8
			C378.5,420.7,361.1,418.6,352.2,418.8z M471.2,392.3c0.6-9-0.5-17.5-1.8-26c0.1-6.6,0.2-13.2,0.2-19.9c-0.5-7.8-0.9-15.5-1.4-23.3
			c-6.9-3-14.2,0.1-22.2-1.1c-4.5-0.6-9.3-0.9-14.6-0.9c-0.2,0.2-0.3,0.5-0.5,0.7c-0.9,1.6,1.6,18.3,1.1,23.5
			c-1.5,19.5,2.8,37.8,2,56.5c-0.2,5.7,1.7,22.3-1.1,24.2c0.4,0.7,0.7,1.6,1.1,2.3c6.4,3.8,21.8-0.5,27.9,0.5
			c4.2,0.6,8,0.2,10.9-1.7C475.1,417,470.4,403.6,471.2,392.3z M437.7,425.7c-1.3-1.1,0.1-16.3-0.7-21.7c-0.2-6.6-0.5-13.4-0.7-20.1
			c-1.9-7.7-0.2-18.7-1.4-26c-0.4-11.3-0.7-22.6-1.1-34c7.9,0.6,18-0.2,26.3,0.5c0.1,0.2,0.2,0.3,0.2,0.5c0,0.6,0,1.2,0,1.8
			c-3-0.5-4.9,0.2-6.6,0.9c0.1,0.6,0.2,1.2,0.2,1.8c2.2-0.1,4.4-0.2,6.6-0.2c0.2,1.5,0.3,3,0.5,4.4c-0.2,0.2-0.5,0.5-0.7,0.7
			c-1.8,0.2-3.7,0.5-5.5,0.7c-0.2,0.3-0.3,0.6-0.5,0.9c0,0.4,0,0.7,0,1.1c0.3,0.2,0.6,0.5,0.9,0.7c1.3,0.2,2.7,0,3.9-0.5
			c2.4,0.9,2.2,2.6,1.8,5.4c0.1,0.2,0.2,0.5,0.2,0.7c-1.1-0.5-3.6-0.5-5.4,0c-0.3,0.7-0.3,1,0,2c1.9,0.4,3.9,0.7,5.7,1.1
			c0,2.8,0,4.4-0.2,6.9c-1.6-0.1-3.2-0.2-4.8-0.2c-0.3,0.5-0.6,0.9-0.9,1.4c1.2,1.5,3.4,1.9,6.3,1.8c-0.1,1.9-0.2,3.9-0.2,5.7
			c-1.2,0.2-3-0.3-4.4,0.2c-0.2,0.2-0.3,0.3-0.5,0.5c0.6,2.4,2.2,2.7,4.4,2.3c0,0.2,0,0.3,0,0.5c0.6,1,0.6,3.2,0.5,4.8
			c-2.1,0.4-3.9,0.2-4.8,1.7c1,1.3,2.5,1.7,4.8,1.7c0.1,1.8,0.2,3.7,0.2,5.5c-0.1,0.2-0.2,0.5-0.2,0.7c-1.8-0.4-3.8-0.8-5.4-0.2
			c-0.1,0.6-0.2,1.1-0.2,1.7c1.7,1.2,2.9,1.3,5.5,1.4c0,2.2,0,4.4,0,6.6c0,0.1,0,0.2,0,0.2c-2.1-0.6-3.7-1.7-5.5-0.2
			c0,0.2,0,0.5,0,0.7c1.1,1.5,3.2,1.9,5.5,1.7c0.2,2.5,0.5,4.9,0.7,7.4c-1.2,0.5-3.9,0-5.5,0.5c-0.5,0.9-0.3,1,0,1.8
			c1.8,0.4,4.1,0.8,5.4,0.5c0.1,0.1,0.2,0.2,0.2,0.2c0,1.6,0,3.2,0,4.8c-0.6,0.5-3,0.3-4.2,0.5c-0.2,0.4-0.5,0.7-0.7,1.1
			c1.1,1.4,3.4,1.5,5.5,1.8c0.2,0.8,0.3,1.7,0.5,2.6c0,0.5,0,0.9,0,1.4c-1-0.3-3-0.5-4.4,0c-0.4,0.2-0.7,0.5-1.1,0.7
			c0,0.3,0,0.6,0,0.9c2,0.9,3.6,1.2,6,0.9c0.2,1.1,0.3,2.1,0.5,3.2c0.1,0.3,0.2,0.6,0.2,0.9c-1.2-0.1-2.5-0.2-3.7-0.2
			c-0.3,0.3-0.6,0.6-0.9,0.9c0,0.2,0,0.5,0,0.7c0.9,1.1,3.3,1.7,5.1,1.8c0.1,0.5,0.2,0.9,0.2,1.4
			C456.4,425.7,444.5,426.4,437.7,425.7z"/>
	</g>
</g>
<g>
	<g>
		<path class="st1" d="M488.4,243.2c-7.4,2.6-13.9,3.9-20.8,6c-2.9,0.9-5.7,2.9-9.2,2.3c0-0.4,0-0.7,0-1.1c0.1-0.2,0.2-0.5,0.2-0.7
			c5.3-1.4,8.7-2.4,10.9-6.3c0-0.1,0-0.2,0-0.2c-1.7,0.5-3.4,0.9-5.1,1.4c-0.4-0.3-0.7-0.6-1.1-0.9c0.4-0.8,0.7-1.7,1.1-2.6
			c2.2-0.6,4.4-1.1,6.7-1.7c0.6-2.4,1.2-4.8,1.8-7.2c-2.6,0.4-4.2,1.5-6.5,1.1c-0.1-0.2-0.2-0.3-0.2-0.5c1.6-3.1,4.6-3.1,8.1-3.7
			c0.3-1.4,0.7-2.1,0.5-3.5c-0.1,0-0.2,0-0.2,0c-1.1,0.3-1.7,0.5-2.8,0.2c-0.2-0.3-0.3-0.6-0.5-0.9c2.7-4.2,5.8-3,7.2-10.3
			c-0.1,0-0.2,0-0.2,0c-7.8,3.5-14.4,9.8-21.1,14.6c-1.9,1.4-4.1,1.9-6,3.5c-2.3,1.8-7.9,6.9-11.3,5.1c0-0.4,0-0.7,0-1.1
			c0.6-0.8,1.2-1.7,1.8-2.6c-0.6-1.5-1.7-2.6-2.8-3.5c-1.8,0.2-2.9,0.9-4.2,1.7c-0.3-0.3-0.6-0.6-0.9-0.9c0-0.2,0-0.5,0-0.7
			c0.7-1.4,2.3-1.8,3.2-3c-0.7-1.4-1.8-3-3.2-3.7c-1.6-0.3-2.6,0.6-4.6,0.7c-0.3-1.1-0.4-1.4-0.2-2.6c0.7-0.2,1.6-0.5,2.3-0.7
			c-1.3-1.9-2.6-3.9-3.9-5.7c-1.7,0.3-2.8,1.4-3.9,0.7c-0.2-0.2-0.3-0.3-0.5-0.5c-0.1-0.3-0.2-0.6-0.2-0.9c0.8-0.6,1.7-1.2,2.6-1.8
			c-1.4-1.5-2.8-3-4.2-4.4c-1,0.5-1.6,0.6-2.8,0.5c-0.2-0.2-0.3-0.5-0.5-0.7c0.4-0.9,0.7-1.8,1.1-2.8c-1.8-2-3.5-4.2-5.4-6.3
			c-0.1,0-0.2,0-0.2,0c0.1,9.3,1.4,21,0.9,30.3c-0.3,5.9,2.4,12.1,0.9,16.4c-8.7,1.5-16.4,7.7-23.8,11.1c0.2,0.3,0.5,0.6,0.7,0.9
			c5.9,1.7,21,10,24.2,14.3c-0.9,6.8-2.7,13.9-3.9,21.4c0,2.1,0,4.3,0,6.5c-0.8,4.9-2.3,10.9-1.8,15.7c3.8-2.6,6.9-7.4,9.7-11.1
			c4.2-5.5,9.4-10.6,14-15.7c2-2.1,3.9-6.7,6.5-8.1c4.7-2.1,8.9,5.4,11.3,7.6c5.2,4.6,11.4,8.2,15.9,13.4
			c4.2,4.7,8.5,11.4,13.9,14.8c0-0.3,0-0.6,0-0.9c-0.6-2-1.4-4.2-2-6.3c-1.9,0.3-2.6,0.7-4.4,0.2c-0.2-0.3-0.3-0.6-0.5-0.9
			c0.1-0.2,0.2-0.5,0.2-0.7c0.2-0.4,0.5-0.7,0.7-1.1c1,0.2,2,0.3,3,0.5c-0.6-1.7-1.2-3.4-1.8-5.1c-1.8,0.6-4.4,0.6-5.7-0.2
			c-0.1-0.4-0.2-0.7-0.2-1.1c0.5-0.4,0.9-0.7,1.4-1.1c1.5-0.7,2.3,0,4.2,0.2c-0.4-1.4-0.7-2.8-1.1-4.2c-1.9,0.1-3.9,0.2-5.7,0.2
			c-0.1-0.2-0.2-0.5-0.2-0.7c-0.4-1,0-1.4,0.5-2c1.7-0.5,2.7-0.6,4.6-0.5c0-0.1,0-0.2,0-0.2c-0.4-1.4-0.7-3.7-1.8-4.4
			c-1.8-0.5-3.4,0.6-5.4-0.5c0.1-0.3,0.2-0.6,0.2-0.9c0.4-0.4,0.7-0.7,1.1-1.1c0.8-0.4,2.8-0.4,3.5-0.9c-0.4-1.7-0.6-3.1-2.6-2.8
			c-1.9-0.1-3.9-0.2-5.8-0.2c0.4-3,4.8-2.3,7.2-2.8c0-1.1,0-2.3,0-3.5c-0.2-0.2-0.3-0.3-0.5-0.5c-2.3,0.6-4.6,1.1-6.9,1.7
			c-0.3-0.7-0.6-1.6-0.9-2.3c0.2,0,0.3,0,0.5,0c1.5-1.3,5.6-2,7.7-1.4c0.5-0.6,0.3-1,0.5-1.8c-0.6-2,0.3-2.9,1.1-3.9
			c-3.2,0.2-6.3,1.7-9.2,1.1c-0.1-0.3-0.2-0.6-0.2-0.9c0.3-0.3,0.6-0.6,0.9-0.9c3.6-2.1,10.3-0.9,12.7-2.6c0.1-0.2,0.2-0.5,0.2-0.7
			c-1.8-0.9-4.3,0.1-5.5-1.4c0.2-0.4,0.3-0.7,0.5-1.1c2.4-0.6,7.2,0.3,8.1-0.2c0.6-0.6,1.4-1.4,2-2c-2.2,0.2-3.8,1.6-4.8,0
			c-0.1-0.3-0.2-0.6-0.2-0.9c0.3-0.3,0.6-0.6,0.9-0.9c2.1-1.1,7.2-0.1,9-2c-1.1-0.2-2.1-0.3-3.2-0.5c0-0.5,0-0.9,0-1.4
			c0.6-0.5,1.4-0.9,2-1.4c2,0.2,2.8,0.5,4.4,0.9c0.6-0.6,1.2-1.2,1.8-1.8c-2.1,0.2-3.1-0.5-2.6-2.3c2.1-0.2,6.6-1.2,7.8-2.6
			c-1.8,0.1-3-0.1-4.2-0.7c0.2-0.2,0.5-0.5,0.7-0.7c0.2-0.6,0.5-1.1,0.7-1.7c3-0.1,4.8-0.7,7.2-0.2c2.7-2.2,5.4-4.4,8.1-6.6
			C501.9,236.2,495,240.9,488.4,243.2z M383.9,414.5c-2.7,0.1-3.6-0.1-5.4-1.1c-0.1-0.4-0.2-0.7-0.2-1.1c0.2-0.2,0.3-0.3,0.5-0.5
			c1.5-0.4,3.2-0.4,4.8-0.2c0-0.1,0-0.2,0-0.2c-0.4-1.5-0.7-3-1.1-4.4c-1.6,0.1-3.8,0.2-4.6-0.5c-0.5-0.5-0.3-0.1-0.5-0.9
			c0.1-0.2,0.2-0.5,0.2-0.7c1.5-0.6,2.9-0.9,4.6-1.1c0.1-0.3,0.2-0.6,0.2-0.9c-1.6-6.6-3.5-1.4-6.6-4.8c0.3-0.7,0-0.6,0.5-1.1
			c1.3-1.4,3.5-0.4,5.4-1.1c-0.5-1.9,0.1-4.2-0.9-6c-1.5,0.4-3.3-0.1-4.4-0.7c0-0.4,0-0.7,0-1.1c0.1-0.2,0.2-0.3,0.2-0.5
			c1.4-0.2,2.8-0.3,4.2-0.5c0-0.1,0-0.2,0-0.2c-0.2-1.6-0.5-3-0.7-4.6c-1.8-0.4-3.4,0-4.8-0.9c0.5-3,2.8-1.1,4.4-2.8
			c-0.2-1.7-0.5-3.4-0.7-5.1c-2.3-0.1-3-0.1-5.1-0.7c-0.1-0.2-0.2-0.3-0.2-0.5c0.1-1,0.2-1.2,0.5-1.8c1.8,0,4.5,0.5,4.4-1.1
			c-0.1-1.5-0.2-3-0.2-4.4c-2.4,0.1-3.7,0.1-5.4-0.9c0.2-0.6,0.5-1.2,0.7-1.8c1.5-0.1,3-0.2,4.4-0.2c0-1.8-0.1-4.5-0.7-5.7
			c-1.8,0.1-3-0.1-4.4-0.9c0.1-1,0.2-1.2,0.5-1.8c1.3-0.1,2.6-0.2,3.9-0.2c-0.1-1.9-0.2-3.9-0.2-5.7c-1.6,0.2-3.2,0.3-4.8,0.5
			c-0.4-0.4-0.7-0.7-1.1-1.1c0.1-1.2-0.1-1.1,0.7-1.7c1.4-0.6,2.9-0.3,5.1-0.2c0-0.1,0-0.2,0-0.2c-0.2-1.2-0.5-2.5-0.7-3.7
			c-2.6-0.4-3.8,0.1-6.5-0.5c0-0.6,0-1.1,0-1.7c0.2-0.2,0.3-0.5,0.5-0.7c1.4-0.4,4.3-0.9,5.5-1.7c0.2-0.3,0.3-0.6,0.5-0.9
			c-1.9-2.3-5.7-0.4-7.4-2.3c-0.1-0.6-0.2-1.1-0.2-1.7c0.2,0,0.3,0,0.5,0c2.1-1.7,5.3-0.6,6.9-1.1c0-0.7,0-1.6,0-2.3
			c-0.2-0.2-0.3-0.3-0.5-0.5c-2.8,0.1-6.1,1.1-8.5-0.2c0-0.1,0-0.2,0-0.2c0.4-0.7,0.7-1.6,1.1-2.3c2.5-0.1,5.1-0.2,7.6-0.2
			c-0.2-1-0.3-2-0.5-3c-17.4-2.9-40.2-4.4-58.6-1.8c-11.2-0.2-22.3-0.5-33.4-0.7c0.9,16.8,1.8,33.7,2.8,50.6c-0.1,3-0.2,6-0.2,9
			c2.8,12.5,0.2,25.9,2.8,37.7c9.3,0.3,18.7,0.6,27.9,0.9c12.5,1.1,23.5,2.2,36,1.8c8.9-0.3,26.2,1.9,31.9-1.1
			c-0.1-0.9,0-2.4-0.2-2.8C383.9,414.7,383.9,414.6,383.9,414.5z"/>
	</g>
</g>
</svg>
