<?xml version="1.0" encoding="utf-8"?>
<!-- Generator: Adobe Illustrator 21.0.0, SVG Export Plug-In . SVG Version: 6.00 Build 0)  -->
<svg version="1.1" id="Calque_1" xmlns="http://www.w3.org/2000/svg" xmlns:xlink="http://www.w3.org/1999/xlink" x="0px" y="0px"
	 viewBox="0 0 841.9 595.3" style="enable-background:new 0 0 841.9 595.3;" xml:space="preserve">
<style type="text/css">
	.st0{fill:#1D1D1B;}
	.st1{fill:#DADADA;}
</style>
<g>
	<g>
		<path class="st0" d="M457.7,306.7c0-0.1-0.3-0.5-0.3-0.6c0-0.3,0.1-0.6,0.1-0.9c0-1.2,0.1-2.5-0.1-3.4c0-0.3,0.1-0.7,0.1-1
			c-0.3-1.4-0.3-4-0.3-5.6c0-0.3,0.2-1,0.3-1.4c0.2-0.9,0.1-2.6,0.1-3.9v-1.5c-0.3-1.4,0.2-3.5-0.2-5.1c-0.1-0.5,0.2-1.3,0-2.2
			c-0.3-1.5-0.2-4.3-0.1-5.8v-2.7c0-1.4,0.2-2-0.1-3.2c-0.2-0.9,0-2.5,0-2.9c0-0.6,0.2-1.7-0.4-2.1c0.1-0.1,0.2-0.1,0.3-0.2
			c0.6-1.2-0.4-3.3-0.2-4.8c0.1-0.6-0.3-1.9-0.5-2.6c-0.3-0.9-0.3-1.6-0.6-2.4c-0.4-1.1-1.2-2.3-1.6-3.3c-0.4-1-0.7-1.8-1.5-2.3
			c0.1-0.2,0-0.1,0.2-0.3c-0.1-0.5-0.5-0.6-0.7-1c-0.1-0.2-0.1-0.6-0.2-0.7c-0.6-0.7-2.3-1.1-3.3-1.4h-1c-2.3-0.7-4.9-0.8-7-1.6
			c-0.8-0.3-1.6,0-2.4-0.3c-0.9-0.3-2-1-2.7-1.4c-0.7-0.4-1.4-0.5-2.2-0.9c-0.9-0.4-1.6-1.1-2.3-1.7c-0.7-0.5-1.4-0.9-2.1-1.4
			c-0.6-0.5-1.1-1.4-1.7-1.8c-1.8-1.4-3.4-3-4.8-4.8c-0.3-0.4-0.8-0.6-1.2-1c-0.4-0.4-0.6-1.1-0.9-1.5c-1-1.3-2.3-2.6-2.8-4.3h-0.3
			c-0.1-0.9-0.6-1.3-0.8-2c-0.3-0.8-0.7-3.1-0.6-3.7c0.1-0.6-0.3-1-0.1-1.4c0,0,0.2-1.4,0.2-1.4c-0.1-0.1-0.1-0.1-0.3-0.2
			c0-0.4,0.1-0.4,0.3-0.5c0.5-0.4,1.9-0.2,2.5-0.5c0.6-0.3,0.9-0.8,1.4-1.2c0.3-0.2,1-0.1,1.2-0.2c0.9-0.3,1.8-0.9,2.3-1.6h0.3
			c0.1-0.5,0.4-0.6,0.5-1c0.2-0.3,0.2-0.7,0.3-1c0.1-0.3-0.1-0.6-0.1-0.8c0-0.4,0.1-0.6,0.2-0.8v-2.5c0.2-0.7,0.7-1.3,0.9-2
			c0.1-0.5-0.2-1.2,0-1.8c0.4-1.3,0.3-3.2,0.1-4.9c-0.1-0.6,0.5-2.4,0.2-3c0-1.2,0.7-0.9,1.2-1.5c0.2-0.3,0.2-0.7,0.5-1
			c0.2-0.2,0.4-0.3,0.5-0.5c0.8-1.2,0.4-2.4-0.3-3.4c-0.2-0.2-1-0.7-1.3-0.8c-0.2,0-0.4,0.1-0.6,0.1c-0.2-0.1-0.2-0.4-0.5-0.5
			c-0.3-0.1-0.7,0-1-0.2c-0.3-0.2-0.3-0.7-0.5-1c-0.1-0.1-0.2-0.1-0.4-0.2c-0.3-0.2-0.6-0.8-0.7-1.2c0.1-0.4-0.1-1.8-0.5-2.3
			c0.1-0.8,1.3-1.9,2-2.1c0.5-2.6-1-5.7-2.1-7.7c-0.4-0.7-0.5-1.4-0.9-2.1c-0.1-0.2-0.4-0.2-0.5-0.4c-0.1-0.4-0.2-0.7-0.4-1.1
			c-0.5-0.9-1.2-1.7-1.8-2.5c-0.9-1.1-2.4-1.7-3.2-2.9c-0.7-1-1.1-2.3-1.7-3.3c0-0.2-0.1-0.3-0.1-0.5c-0.2-0.2-0.4-0.3-0.6-0.5
			c-0.3-0.4-1-1.5-1.4-1.7c-1-0.7-2.8-1-4-1.5c-0.9-0.4-1.7-1.3-2.7-1.6c-1-0.3-4.3-1.1-5.5-0.5c-0.6-0.1-1.2-0.1-1.8-0.2
			c-0.3,0.1-1,0-1.4,0.1c-0.4,0.1-0.9,0.5-1.2,0.5h-0.3c0-0.1,0.1-0.2,0.1-0.3c0.5-0.2,0.9-0.5,1.5-0.5c0.2-0.7,1.6-0.9,2.3-1.1
			c0.4-0.1,1.2-0.3,1.7-0.2c0.1,0,0.3,0.2,0.5,0.2c1.4-0.3,3.1-0.2,4.2,0c0.7,0.1,2.9,0.6,3.1,0.5h0.4c0.1-0.2,0.2-0.5,0-0.7
			c-0.3-0.9-1.9-1.2-3-1.2c-0.3,0-0.5,0.1-0.8,0.1c-1.7-0.4-5.2-0.3-7,0.3h-0.5c-0.7,0.3-1.5,0.9-2.3,1.3c-0.4,0.1-0.8,0.2-1.3,0.4
			c-0.7,0.4-1.7,0.9-2.4,1.3c-0.3,0.1-0.5,0.1-0.8,0.2c-0.1,0.1-0.1,0.4-0.2,0.5c-0.2,0-0.4,0.1-0.5,0.1c-0.7,0.4-1.6,0.8-2.3,1.3
			c-0.3,0.2-0.7,0.5-1.1,0.7c-0.2,0.1-0.4,0.1-0.6,0.2l-0.5,0.5c-0.4,0.2-0.7,0-1,0.2c-0.3,0.2-0.4,0.7-0.6,0.9
			c-0.3,0.2-0.7,0.2-1.1,0.5c-0.1,0.1-0.2,0.2-0.3,0.4c-0.3,0.1-0.6,0-0.8,0.2c0,0.1-0.1,0.2-0.1,0.3c-0.4,0.3-0.9,0.4-1.2,0.7
			c0,0.1-0.1,0.2-0.1,0.4h-0.4c-0.1,0.1-0.4,0.3-0.5,0.5c-0.2,0.4-0.4,0.8-0.6,1.3c-0.2,0.1-0.4,0.2-0.5,0.4
			c-0.2,0.2-0.2,0.5-0.4,0.7c-0.2,0.3-0.7,0.4-0.9,0.7c0,0.2-0.1,0.3-0.1,0.5c-0.2,0.2-0.5,0.4-0.7,0.5c-0.8,1.1-1.5,2.1-2.3,3.3
			c-0.3,0.4-0.9,0.8-1.2,1.3c-0.6,1.2-0.6,2.4-1,3.8c-0.2,0.7-0.5,1.8-0.7,2.4c-0.1,0.4,0.2,1.1,0.1,1.4c-0.1,0-0.2,0.1-0.3,0.1
			c0,0.3-0.1,0.7-0.1,1c-1,0.2-1.9,0.3-2.9,0.7c-0.8,0.4-1.6,1.1-2.4,1.4h-0.7c-0.4,0.1-0.9,0.5-1.2,0.6c-0.1,0-0.2-0.1-0.4-0.1
			c-0.1,0.1-0.1,0.2-0.2,0.3c-0.2,0-0.5,0.1-0.7,0.1c-0.1,0.1-0.3,0.3-0.5,0.4c-0.4,0.2-0.9,0.3-1.3,0.5c-0.1,0.1-0.1,0.4-0.2,0.5
			c-0.2,0-0.3-0.1-0.5-0.1c-0.3,0.1-0.3,0.4-0.6,0.5v0.3h-0.3c0,0-0.1,0.1-0.1,0.1v0.4c0.3-0.1,0.3-0.1,0.5-0.2v-0.3
			c0.7-0.1,0.3-0.4,1.2-0.4v-0.3c0.2,0.1,0.2,0.1,0.4,0.2c-0.1,0.4-0.2,0.9-0.5,1.3c-0.1,0.1-0.2,0.1-0.4,0.2
			c-0.3,0.4-0.3,0.9-0.5,1.4c-0.2,0.4-0.6,0.9-0.7,1.3c-0.3,0.9-0.5,3-0.4,3.6c0,0.5-0.1,1-0.1,1.5c0.1,0.5,0.3,1.4,0.3,1.7
			c0,0.5,0.2,0.4,0.4,0.6c0.3,0.6,0.8,3,1.9,2c0.2,0,0.2,0,0.3,0.1c0.1,0.1,0.1,0.3,0.2,0.4c0,0.9-0.3,1.5-1,1.7
			c-0.1,0.1,0,0-0.2,0.1c-0.5-1.1-1.4-2.1-1.9-3.2c-0.2-0.4,0-0.9-0.2-1.2c-0.1-0.1-0.1-0.1-0.3-0.1c-0.3-1.7-1.5-4.1-1-6.5
			c0.3-1.2,0.9-1.9,1-2.9c-0.6,0.1-1,0.4-1.4,0.7c-1.2,1.7-1.2,5-1.4,7c-0.1,0.8,0.8,2.4,0.4,2.9c0.2,0.5,0.7,0.6,0.9,1
			c0.2,0.5,0.2,1,0.5,1.5c0.5,1,1.3,2.4,2,3.3c-0.8,1.1-1.7,2.5-1.6,4.4c0.2,0,0.3,0,0.4,0.1c0.3-0.2,0.1-0.4,0.3-0.7
			c0.5,0,0.3,0.5,0.5,1c0.1,0.2,1.3,1.8,1.4,1.9c1.5,1.1,3.1,2.2,4.9,2.8h0.6c1,0.3,2.4,0.9,3.4,0.6c0.7-0.2,1.5,0.5,2,0.2
			c0.9,0.1,1,1,1.5,1.4v0.4c-0.7-0.1-1.4,0.2-2.2,0.1c-1.2-0.2-2.2-0.1-3.3-0.1c-0.3,0-0.6,0.1-0.9,0.1c-1.6-0.3-3.3-0.5-4.6-1.4
			c-0.7-0.4-1.5-1.2-1.9-1.8c-0.3-0.5-0.4-1.1-0.8-1.4v-0.1c-0.2,0.1-0.1,0.1-0.3,0.3c-0.1,0.2-0.2,0.1-0.5,0.2c0.4,3,3.3,4.5,6,5.2
			c0.1,0,0.2-0.1,0.4-0.1c0,0,0.6,0,0.6,0v0.2c0.3,0,0.7-0.1,1-0.1c1.4,0.3,3.1,0,4.2-0.2c0.5-0.1,0.9,0.4,1.3,0
			c0.6,0,1.4-0.1,1.9,0.1c-0.2,0.3-1.7,1.2-2.1,1.3c-0.2,0-0.4-0.1-0.5-0.1c0,0.1-0.1,0.2-0.1,0.3c-0.4,0.2-1.1,0.5-1.5,0.6
			c-3.6,1.1-7.8-0.4-9.2-2.6c-0.2,0.1-0.1,0-0.2,0.1c-0.3,0-0.4,0-0.5,0.1c0,2.3,4.1,3.5,5.8,3.9v0.1c-0.6,0.1-1.4-0.1-1.9-0.4
			c-1.3,0.6-3.3-1.4-3.9-2.3h-0.3c0-1-0.5-2.3-1.2-2.7v-0.1h0.4c-0.2-1.4-0.2-2.6-0.4-3.6c-0.2-1,0.3-2.3,0-2.9v-0.2h-0.5
			c-0.4,1.6-0.4,3.6-0.1,5.1c0.1,1.1,0.2,2.1,0.4,3.2c0.4,1.1,1.2,2.2,1.8,3.1c0.9,1.2,2.7,1.4,4.2,1.8c0.3,0.1,0.5-0.1,0.7-0.1
			c0.1,0,0.3,0.3,0.4,0.3h1.7c1-0.2,2.4-0.3,2.9-0.3c0.3,0,2.1-0.7,2.2-0.6c0.2,0,1.4-0.2,1.5-0.3c0-0.1,0.1-0.2,0.1-0.3
			c0.4,0,0.7-0.1,1.1-0.1c0.2-0.1,0.4-0.5,0.6-0.5c0.1,0,0.2,0.2,0.5,0.1c0.6-0.2,1.2-0.8,1.9-1c0.3-0.1,3.5,0.1,3.6,0.1
			c0.6,0.2,1,1,1.4,1.3c0.5,0.3,1.1,0.3,1.5,0.6c0.3-0.1,0.3-0.1,0.5-0.3c0.2,0.2,0.5,0.5,0.9,0.3c0.2,0,0.3,0,0.5,0.1
			c0,2.1-0.1,3.3-0.8,4.7c-0.2,0.4,0,0.8-0.1,1.1c-0.5,1.1-1.1,2.1-1.3,3.4c-0.2,0-0.3,0-0.4,0.1c-0.3,0.2,0,0.3-0.4,0.5
			c0,0.3,0,0.2,0.2,0.4c-0.1,0.1-0.4,0.1-0.5,0.2c-0.1,0.1-0.9,1.1-0.8,1.4c-0.5,0.4-1.7,1.3-1.6,1.9c-0.3,0.2-0.6,0.1-0.8,0.3
			c-0.2,0.2-0.2,0.6-0.5,0.7c-0.3,0.2-0.6,0.1-0.8,0.3c-0.7,0-1.4,1-2.1,1.4c-1.2,0.6-2.7,1.1-4,1.5h-0.9c-0.2,0.1-0.5,0.5-0.7,0.6
			c-0.3,0.2-1.7,0.3-2.3,0.5c-0.6,0.2-1.3,0.6-1.8,0.9h-0.9c-0.7,0.4-1.8,0.7-2.5,0.9h-0.8c-0.2,0.1-0.4,0.4-0.6,0.5
			c-0.4-0.1-1.8,0.6-2.3,0.7c-0.5,0.1-0.6-0.1-1.1,0c-0.7,0.2-1.7,0.2-2.7,0.5c-0.6,0.2-1.5,0.6-2.1,0.8c-0.9,0.3-1.1,0-1.8,0.6
			c-0.1-0.1-0.4-0.1-0.5,0c-1,0.5-1.6,1.2-3.1,1.4c0.1,0.3,0,0.2,0.2,0.4v0.1c-0.3-0.1-0.2,0-0.4-0.2c-0.5,0-1.7,0.8-1.9,1.1v0.4
			c-0.2-0.5-0.7,0.4-0.7,0.5h-0.3c-0.2,0.1-0.1,0.4-0.2,0.5c-0.2,0.1-0.4,0.1-0.5,0.2c-0.4,0.3-0.6,0.9-1.1,1.2
			c0,0.2,0.1,0.4,0.1,0.5c-0.1,0.2-0.3-0.1-0.4,0.3c0,0,0.1,0.1,0.1,0.1h-0.4c-0.1,0.6-0.1,0.5-0.1,1.2c-0.1-0.1-0.1-0.1-0.1-0.3
			h-0.3c0.1,0.4,0.1,0.3,0.1,0.8c-0.2,0-0.2,0-0.3-0.1c-0.7,0.1-0.3,0.4-0.5,0.9c-0.4,0.8-0.6,1.8-0.8,2.7c-0.2,1,0.1,2.2-0.2,2.7
			c0,0.4,0.1,0.4,0.2,0.6h0.4v0.4l-0.2-0.2h-0.4c-0.2,1.2-0.1,2.8-0.3,3.9c0,0.1-0.3,0.4-0.3,0.5c0.1,0.2,0.1,0.4,0.2,0.5
			c-0.1,0.3-0.6,1.6-0.2,2.2h-0.2c-0.1,0.4,0.2,0.7,0.1,0.9h-0.2c0,0.4,0.1,0.8,0.1,1.2c0,0.2-0.3,0.7-0.3,0.9
			c0.1,0.2,0.2,0.5,0.3,0.7c0.1,0.4-0.2,0.9-0.3,1.1c-0.3,1.6,0.3,4.8-0.2,5.6c0,0.1,0.1,0.2,0.1,0.3c0.4,0,0.3,0,0.6,0
			c0.2-0.7,0.4-2.1-0.1-2.6c0.1,0,0.2-0.1,0.3-0.1c0-0.5,0-0.6-0.5-0.6v-0.2c0.1,0.1,0.2,0.1,0.5,0.1c-0.1-0.9,0.2-1.4,0.2-2.6
			c-0.2,0-0.3,0-0.4-0.1h-0.1v-0.1c0.2,0,0.4,0.1,0.5,0.1c0-0.8,0.1-1.8-0.3-2.3c0.1-0.1,0.3-0.1,0.5-0.2c-0.1-0.3-0.1-0.3-0.3-0.5
			h-0.1c0.1-0.1,0,0,0.3,0c0-2.4,0.3-4.3,0.7-6.9c0-0.3-0.1-0.6-0.1-0.9c0.5-2.3,0.1-4.8,1.1-6.7c0.2-0.4,0.1-0.7,0.3-1.1
			c0.2-0.1,0.3-0.2,0.5-0.4c0.3-0.6,0.6-1.6,1.3-1.8v-0.5c0.6-0.1,0.3-0.3,0.6-0.5c0.3-0.2,0.8-0.4,1.1-0.6c0.3-0.2,0.4-0.6,0.6-0.8
			c0.2,0,0.4-0.1,0.5-0.1c0.3-0.2,0.6-0.7,1-0.8c0.9-0.4,2.1-0.5,2.7-1.3c0.1,0.2,1.4-0.3,1.7-0.5c0.4-0.2,0.4,0,0.6-0.1l0.4-0.4
			c0.2,0,0.3,0.1,0.5,0.1c0.2-0.1,0.6-0.5,0.8-0.5h0.9c0.9-0.3,1.9-0.3,3-0.5c2.4-0.6,4.6-1.4,6.9-2.2c0.8-0.3,1.5-0.1,2.3-0.5
			c1.3-0.6,2.9-1.4,4.2-1.9c2.1-0.8,5.1-1.5,6.2-3.2h0.3c-0.1,0.3-0.3,0.3-0.3,0.8c-0.3,0.1-0.3,0.1-0.6,0.2
			c-0.1,0.3-0.1,0.3-0.2,0.6c-0.4,0.1-0.8,0.5-1,0.8c0,0.1,0.1,0.2,0.1,0.3c-0.1,0.2-0.5,0.1-0.6,0.3c-0.2,0.2-0.3,0.5-0.5,0.7
			c-1.1,0.9-2.5,1.6-3.3,2.8h-0.3c-0.1,0.3-0.4,0.6-0.6,0.7v0.5h0.5c0.3-0.4,0.8-0.5,1.2-0.8c0.3-0.3,0.5-0.8,0.8-1.1
			c0.2-0.1,0.6-0.2,0.7-0.4v-0.4c0.1-0.2,0.5-0.3,0.7-0.4v-0.4c0.2,0,0.3,0,0.4-0.1c0.4-0.1,0.4-0.3,0.7-0.5v-0.3
			c0.5,0,1.1-0.5,1.3-0.9c0-0.1-0.1-0.2-0.1-0.3c0.1-0.1,0.3,0,0.5-0.1c0.3-0.3,0.5-0.7,0.9-1c-0.1-0.2,0-0.1-0.2-0.2
			c1.1-0.8,1.7-1.7,2.5-2.8c0.3-0.4,0.9-0.6,1.2-0.9c0.3-0.3,0.3-0.8,0.5-1.1c0.3-0.3,0.7-0.6,1-0.9c0.2-0.2,0.9-1.6,1-1.8v-0.5
			c0.3-0.6,0.9-1.4,1.2-2c0-0.3,0.1-0.6,0.1-0.9c0.6-1.7,0.8-2.9,1.3-4.6c0.2-0.6-0.2-1,0.1-1.5c1-0.8,3-0.7,3.9-1.2
			c0.2-0.1,0.3-0.4,0.5-0.5h0.4l0.2-0.4c0.2-0.1,0.4-0.1,0.5-0.2c0.2-0.1,0.1-0.4,0.3-0.5c0.5-0.4,1.2-0.4,1.6-0.9
			c0.2-0.2,0.1-0.7,0.4-0.9h0.3c0,0,0.4-0.5,0.5-0.5v-0.5c0-0.1,0.3-0.6,0.4-0.7c0.2-0.1,0.1,0,0.4,0c0.1-0.3,0.2-0.7,0.4-1
			c0.2-0.3,0.5-0.5,0.6-0.8v-0.4l0.4-0.4c0.3-0.7,0.4-1.4,0.7-2.1c0.1-0.1,0.2-0.1,0.3-0.2c0-0.1-0.2-0.2-0.2-0.5
			c0.1-0.6,0.6-1.2,0.7-1.7c0.2-0.5,0.3-1.5,0.5-2.1v-1.4c0-0.1,0.3-0.4,0.4-0.5c0.2-0.5,0.1-1.9,0.1-2c-0.2-1.1,0.9-3.8,0.5-4.2
			c0.1-0.1,0.2-0.1,0.4-0.2c0-0.6,0.1-1.8,0.4-2.3c0.2-0.3,0.7-0.3,0.9-0.6c0.1-0.2,0-0.3,0.2-0.5c0.2-0.1,0.4-0.1,0.5-0.3
			c0.4-0.4,0.6-0.8,0.9-1.3c0.4-0.6,1.2-0.9,1.6-1.4c0.2-0.3,0.2-0.6,0.5-0.8c0.4-0.5,1.1-0.5,1.3-1.4c1.1-0.1,1.3-1.1,1.7-1.9
			c0.2-0.1,0.3-0.2,0.5-0.4c0.3-0.5,0.6-1.1,0.9-1.5c0.1-0.2,0-0.5,0.1-0.7c0.1-0.1,0.2-0.1,0.4-0.2c0.1-0.4,0.1-0.7,0.2-1.1
			c0.3-0.8,0.9-1.5,1.3-2.2c0.1-0.3,0.1-0.6,0.2-0.9c1-2.3,2-4.2,1.8-7.1c-0.1-0.8,0.3-1.6,0.2-2.3c-0.2-0.7-0.2-1.5-0.5-2.2
			c-0.1-0.3-0.4-0.8-0.5-1.2c-0.2-0.8-0.1-1.5-0.4-2.3c-0.3-0.8-1-1.3-1-2.3c0.3,0,0.5,0,0.6,0.2c0.3,0.2,0.1,0.2,0.3,0.5
			c0.3,0.5,0.7,1.2,0.9,1.8c0,0.4,0.1,0.7,0.1,1.1c0.1,0.4,0.4,0.8,0.5,1.3c0.3,1.1,0.2,2.3,0.5,3.3v1.6c0.5,2.1,0.4,4.8-0.3,6.9
			c-0.1,0.3-0.4,0.8-0.5,1.1c-0.2,0.6-0.1,1.2-0.3,1.8c-0.3,0.8-0.9,1.6-1.2,2.3c-0.2,0.6-0.3,1.1-0.6,1.6c-0.3,0.4-0.8,0.9-1.1,1.3
			c-0.1,0.3-0.1,0.5-0.2,0.8c-0.1,0.3-0.5,0.6-0.6,0.8c-0.1,0.2,0,0.5-0.2,0.7c-0.1,0.2-0.6,0.3-0.7,0.5v0.4
			c-0.1,0.1-0.3,0.5-0.5,0.6h-0.3c-0.2,0.2-0.2,0.6-0.4,0.8c-0.2,0.3-0.8,0.4-1,0.6c-0.1,0.2-0.1,0.4-0.2,0.6
			c-0.2,0.3-0.6,0.8-0.9,1.1c-0.5,0.5-2,1.6-2.3,2.2v0.5c-0.2,0.1-0.4,0.1-0.5,0.2c-0.3,0.2-1.1,1.3-1.3,1.6h-0.3
			c0,0.5-0.5,1.2-0.9,1.4v0.5c0.5-0.1,1.6-1.3,1.9-1.7c0-0.2,0.1-0.3,0.1-0.5c0.1,0,0.2-0.1,0.4-0.1c0.3-0.3,0.8-1.2,1.2-1.5
			c0.7-0.8,1.7-1,2.2-2.1h0.5c0,1.6,0.9,2.5,1.4,3.6c1,2.2,2,5.8,4.5,6.3c0,0,1.1-0.1,1.2-0.2h0.5c0.1-0.1,1.3-1.2,1.4-1.4h0.1
			c0.2-0.3,0.1-0.5,0.4-0.7c0-0.9-0.4-2.6-1-3c-0.2-0.3-0.6-0.2-1-0.1c0,1.2,0.5,1.7,0.6,2.6c-0.3,0.3-0.8,0.9-1.1,1.3
			c-0.5,0-0.7,0-1.4,0c-0.1-0.1-0.5-0.2-0.6-0.4c-0.1-0.2-0.1-0.5-0.2-0.6c-0.4-0.8-0.8-1.6-1.2-2.5c-0.3-0.6-0.9-1.1-1.2-1.7
			c-0.5-1.2-0.9-2.6-1.3-3.6c-0.1-0.2,0.1-0.3,0.1-0.5v-0.7c0.2-0.6,1-0.8,0.8-1.6c0.9-0.3,0.6-0.2,1.1-0.9l0.5-0.5
			c0-0.2,0.1-0.4,0.1-0.5c0.2-0.1,0.4-0.1,0.5-0.2v-0.4c0.1-0.3,0.5-1.3,0.7-1.5c0.2-0.2,0.8-0.6,0.9-0.8c0.2-0.3,0.1-0.6,0.3-0.9
			c0.2-0.4,0.7-0.9,0.8-1.4v-0.6c0.1-0.2,0.5-0.3,0.6-0.5c0.1-0.4,0.1-0.8,0.2-1.2c0.1-0.2,0.3-0.4,0.4-0.6c0.1-0.2-0.1-0.4-0.1-0.5
			c0.1-0.2,0.5-0.5,0.6-0.7c0-0.3,0.1-0.6,0.1-0.9c0.3-1,0.6-2.2,0.8-3.3c0.2-0.7-0.4-1.7-0.3-2.4c0.2-1.6-0.3-3.8-0.5-5.8
			c1.2,0.2,2.3,2.1,2.9,3c0.2,0.2,0.4,0.4,0.6,0.5c0.2,0.3,0.2,0.7,0.5,1.1c0.6,0.9,1.4,1.9,1.8,2.9c0.5,1.3,0.8,2.7,1.4,3.9
			c0.2,0.5,0.1,1,0.4,1.4c-0.2,1.6-1.5,2.5-2.3,3.5c-0.1,0.2-0.1,0.4-0.3,0.6c-0.3,0.4-1,0.7-1.3,1.1c-0.1,0.2-0.1,0.6-0.3,0.7h-0.5
			c-0.4,0.2-0.6,1-1,1.4v0.3c1.5-0.1,2.3-2.4,3.5-2.3c0-0.1,0.1-0.4,0.2-0.5c0.1-0.2,0-0.1,0.1-0.2c0.1,0.3,0.4,0.7,0.5,0.9
			c0.1,0.2-0.2,0.8,0,1.1c0.2,0.3,0.6,0.6,0.8,0.9c0.7,1.1,1.4,2.6,1.8,4c0.5,1.8,0.6,5.7,0.3,7.2c-0.1,0.4,0.2,0.9,0.3,1.2l0.1,2.5
			c0,0.1-0.3,0.2-0.3,0.2v1.4c-0.2,0.9-0.2,1.7-0.1,2.6c-0.2,0.3-0.4,0.4-0.4,1h-0.3c0,0.6-0.2,0.8-0.3,1.2c-0.3,1.2,0,2-0.3,2.9
			c-0.2,0.5-0.5,1.1-0.5,1.7c-0.5,0.1-0.2,0.3-0.5,0.5c-0.3,0.1-0.5,0.1-0.8,0.2c-0.2,0.1-0.2,0.6-0.4,0.6c-0.2,0-0.4-0.1-0.6-0.1
			c-0.2,0.1-0.5,0.4-0.6,0.5c-0.3,0-0.6-0.1-0.9-0.1c-0.1,0-2.5-0.2-2.6-0.3c-0.5,0-0.7,0-0.9-0.3H415c-0.1-0.2,0.1-0.7,0.1-0.9
			c-0.1-0.7-0.4-1.4-0.5-2c-0.1-0.5,0.4-0.7,0.2-1.3c-0.2-0.7-0.9-1.1-1.3-1.6c-0.5,0.1-0.5,0.2-0.8,0.5c0.1,0.8-0.3,1.5-0.5,2.5
			c-0.2,0.7,0.2,1.5,0.1,2.1c-0.2,1,0,2.5,0.1,3.3c0.1,0.5-0.2,1.1,0,1.6c0,0.1,0.3,0.2,0.3,0.2c0,0.3-0.1,0.5-0.1,0.8
			c0.2,1,0,2.5,0.5,3.3v0.6h-0.2c-0.2-0.7-0.7-1.3-1-1.9c-0.2,0-0.2,0-0.3,0.1h-0.3v-0.2c0.2-0.1,0.2,0,0.5,0
			c-0.3-0.9-0.8-1.7-1.2-2.5c-0.4-0.9-0.3-2.1-0.8-2.9c0-0.6,0-0.6-0.4-0.5c0.1-0.2,0-0.1,0.3-0.2c-0.1-0.8-0.3-1.3-0.3-2.1
			c-0.1,0-0.2-0.1-0.4-0.1c0.1-0.1,0.2-0.1,0.3-0.2c0.3-0.3-0.5-1.8-0.5-2.1h-0.2c-0.1,0.2-0.1,0.4,0,0.5v0.1h-0.3
			c-0.4,3,0.3,5.9,1.4,8.4c0.3,0.7,0.3,1.6,0.7,2.3c0.1,0.1,0.2,0.2,0.4,0.3c0.2,0.3,0.2,0.7,0.5,1h0.2v0.6c0.2,0.5,0.6,1.4,0.9,1.9
			c0.7,1.2,2.4,3.4,2.6,4.6c0.5,0.1,0.8,0.8,1,1.2c0,0.2,0.1,0.4,0.1,0.6h0.2c0.2,0.2,0.4,0.5,0.5,0.7h0.3c0.2,1,1.8,1.9,2.3,2.7
			h0.3c0.1,0.6,1.9,2.2,2.3,2.6c1.2,1.2,2.3,2.2,3.6,3.2c0.2,0.2,0.3,0.4,0.5,0.6c0.2,0.1,0.4,0.1,0.6,0.2c0.8,0.5,1.5,1.5,2.4,1.9
			h0.5c0.1,0.2,0.2,0.3,0.4,0.5c0.5,0.4,1.3,0.9,2.1,1c0.2,0.6,0.8,0.5,1.4,0.7c0.1,0.1,0.1,0.2,0.2,0.3c0.3,0,0.6,0.1,0.9,0.1
			c0.1,0,0.2,0.3,0.3,0.4c0.6,0.3,1,0.2,1.7,0.4c0.6,0.2,1.4,0.5,2,0.7c0.4,0,0.8,0.1,1.2,0.1c1.7,0.4,3.6,0.9,5.1,1.4
			c1.7,0.5,2.8,0.2,4.2,1c1.1,0.6,1.7,1.9,2.3,3.1c0.2,0.3,0,0.7,0.2,1c1.5,3.2,1,7.4,1.9,11.4c0.1,0.2-0.2,0.7-0.2,0.9
			c-0.1,0.4,0.2,2.9,0.3,3.1c0,0.2-0.2,0.4-0.3,0.5c-0.3,1.1-0.2,4-0.1,4.7c0.3,2.2-0.2,3.7,0.2,5.2c0.2,0.9-0.2,1.1-0.1,1.7
			c0.2,1,0.2,2.3,0.2,3.5c0,0.6-0.1,1.2-0.1,1.8c0.3,1,0.3,2.9,0.1,3.7c-0.1,0.6,0.1,1.6,0.2,2.1c0.1,0.4-0.1,0.8-0.2,1.1
			c-0.2,1,0.2,2.5,0.4,3.3c0.1,0.6-0.1,0.8,0,1.4c0.1,0.3,0.3,1.1,0.3,1.3c-0.5,3.1-0.3,7.4-0.1,10.6c0,0.3-0.2,0.7-0.3,0.9
			c0.1,0.6,0.1,1.5-0.1,2.3c0,0.4,0.1,0.8,0.1,1.2c0,0.2-0.2,0.5-0.1,0.8c0.2,1.2-0.2,3.8,0.1,5c0.4,2.1,0.3,4.8,0.7,7
			c0,0.2-0.1,0.5-0.1,0.7c0,0.7,0.1,1.4,0.1,2.1c0,0.2-0.1,0.4-0.1,0.5c0.1,0.3,0.4,0.8,0.5,1.1c0.1,0.2-0.1,0.7-0.1,0.9
			c0.1,0.4,0.3,1.1,0.5,1.6c0.5,2.1,0,6.8-0.4,8.2c0,0.4,0.1,0.8,0.1,1.3c-0.2,1-0.5,2.3-0.7,3.3c-0.1,0.5,0,0.9-0.2,1.4
			c-0.3,0.8-0.8,2-1.1,2.8c-0.1,0.3,0,0.8-0.2,1.3c-0.1,0.2-0.4,0.4-0.5,0.6c-0.8,2-1.5,3.8-2.3,5.9c-0.5,1.2-1.3,2.5-2,3.5
			c-0.2,0.4-0.2,1.1-0.5,1.4c0,0-0.4,0.3-0.5,0.4v0.4c-0.1,0.3-0.5,0.8-0.6,1.1c0,0.1,0.1,0.2,0.1,0.4c-0.1,0.3-0.6,0.8-0.8,1.2
			c-0.1,0.3-0.2,0.7-0.3,1c-0.4,0.7-1.1,1.5-1.4,2.3c-0.2,0.5-0.1,0.8-0.4,1.3c-0.7,1.4-1.4,2.9-2.1,4.4c-0.4,0.9-1.2,1.8-1.5,2.7
			v0.5c-0.1,0.2-0.4,0.4-0.5,0.6c-0.2,0.5-0.2,1-0.5,1.4c-0.1,0.2-0.5,0.3-0.6,0.5c-0.3,0.4-0.1,1-0.4,1.4c-0.3,0.4-0.9,0.9-1.2,1.4
			c0,0.2-0.1,0.5-0.1,0.7c-0.2,0.4-0.6,0.9-0.7,1.3c-0.1,0.2,0.1,0.4,0.1,0.5c0,0.1-0.2,0.6-0.3,0.8c-0.3,0.6-0.9,1.2-1.2,1.8
			c-0.3,0.6-0.2,1-0.6,1.4c-0.1,0.2,0,0.1-0.1,0.2L434,390c0.1-2,1.2-4.2,1.9-6.4c0.1-0.8,0.2-1.6,0.4-2.4c0.8-2.9,0.8-5.4,1.5-8.1
			c0-0.3-0.1-0.5-0.1-0.8c0.1-0.9-0.1-2.3,0.2-3.3c0.2-0.9,0-2.7,0.2-3.8c0.3-1.7,0.1-4-0.2-5.7c-0.1-0.6,0.2-1.4,0.1-1.9
			c0-0.1-0.3-0.5-0.3-0.6c0.1,0,0.1-0.1,0.2-0.1l-0.1-0.9c-0.2-0.5-0.6-1.3-0.7-1.8c0-0.3-0.1-0.6-0.1-0.9c-0.2-0.5-0.9-1.3-0.8-1.9
			c0.2-1.5,0.2-3.3,0.5-4.7c0-1.5,0.1-3,0.1-4.4c0.2-1,0.3-3.2,0.5-4.3c0.1-0.6-0.2-1,0-1.8c0.2-0.9,0.3-1.8,0.5-2.3
			c0-1.1,0.1-2.2,0.1-3.3c1-4.1,0.4-8.8-0.7-12.3c0-0.4-0.1-0.8-0.1-1.3c-0.1-0.5-0.4-1.2-0.5-1.4c0-0.3,0.1-0.5,0.1-0.8
			c-0.1-0.3-0.3-0.7-0.4-1c-0.1-0.5,0.1-1,0-1.4c-0.2-0.6-0.7-2.1-0.9-3.1c-0.3-1.3-0.2-2.7-0.7-3.8c0.4-1-0.3-3.9-0.6-5
			c-0.1-0.3-0.3-1.6-0.3-1.8c0.1-0.1,0.1-0.2,0.2-0.3c-0.4-1.2-0.2-2.4-0.5-3.9v-1.1c0-0.1-0.2-0.5-0.3-0.6c0-0.3,0.1-0.5,0.1-0.8
			c-0.1-0.2-0.4-0.5-0.5-0.7c0.2-0.8,0-3.1-0.2-4.1c-0.1-0.3,0.1-0.6,0.1-0.7c0-0.3-0.3-1-0.2-1.4c0.2-0.8,0.4-2.3,0.6-3.3
			c0.1-0.6-0.1-1.1,0-1.6c0.1-0.4,0.4-1.2,0.4-1.5c0-0.2-0.2-0.4-0.1-0.6c0.1-0.5,0.6-1.5,0.5-2.3c0-0.2,0-1.2,0-1.3
			c0.4-0.7,0.8-3.9,0.8-4.7c0-0.7,0.4-2.5,0.5-3.1c0-0.5,0.1-1.1,0.1-1.6c0.1-0.5,0.5-1.3,0.2-1.8c-0.1-0.3-0.2-0.3-0.4-0.3
			c-0.7,0.2-0.6,1.5-0.8,2.2c-0.7,2.5-0.4,4.7-1.1,7.4c-0.5,2-0.5,4-1.1,6c-0.3,0.9,0,2.4-0.2,3.1c-0.2,1.1-0.4,1.9-0.6,2.9
			c-0.1,0.3,0.1,0.5,0.1,0.7c0,0.1-0.3,0.9-0.4,1.2c0,0.1,0.1,0.2,0.1,0.4c0,0-0.3,0.3-0.3,0.5c0,0.2,0.1,0.4,0.1,0.6
			c-0.3,1.2-0.4,3-0.7,4.2c0,0.2,0.1,0.9,0,1.3c-0.4,1.5-0.7,2.7-1.1,4.1c-0.1,0.4,0.1,1.3,0,1.7l-0.3,0.3c-0.2,0.5,0,1.1-0.1,1.5
			c-0.1,0.5-0.5,1-0.4,1.7c-0.1,0.3-0.3,0.6-0.3,1.1h-0.5l0.3,0.3c0.1,0.2,0,1.1-0.2,1.6c-0.3,0.9-0.4,2.1-0.7,3.3
			c-0.5,2.1-0.6,4.4-1.2,6.8c-0.1,0.5,0.2,0.7,0.1,1.1c-0.2,0.9-0.2,1.7-0.4,2.5v1.4c-0.3,1.2-0.2,2.9-0.4,3.8
			c-0.2,0.8,0.2,1.9,0,2.3c-0.3,0.7-3,1.4-3.9,1.7c-0.3,0.1-0.8,0.4-1.1,0.5c-0.5,0.2-0.8,0.1-1.3,0.3c-0.3,0.1-0.6,0.4-0.8,0.5
			c-0.3,0-0.5,0.1-0.8,0.1c-0.3,0.1-0.7,0.4-1,0.5c-0.5,0.2-1,0.1-1.4,0.4l-0.4,0.4h-0.5c-0.9,0.3-2.1,0.7-3,0.9
			c-0.4,0-0.8,0.1-1.3,0.1c-1.7,0.5-4,0.8-5.6,1.1c-0.3,0-0.5-0.1-0.8-0.1c-1.5,0.3-3.2,0.6-4.7,1.1c-0.9,0.3-2.1,0.2-2.9,0.4
			c-0.3,0.1-0.7-0.2-0.7-0.2c-0.5,0.2-1.2,0.3-1.8,0.5c-0.8,0.2-2.5-0.2-3.1-0.3c-0.2,0-0.6,0.2-0.7,0.2c-0.5,0.1-1.6-0.2-2.2-0.3
			c-0.4-0.1-1,0.1-1.3,0.1c-0.5-0.1-1.3-0.4-1.9-0.4c-0.5,0-1.2,0.1-1.9-0.1c-1.8-0.6-3.9-1.4-5.6-1.8h-1.4
			c-2.3-0.6-4.6-1.4-6.8-2.2c-1.1-0.4-1.9-0.3-2.9-0.7c-1.2-0.5-2-1.5-3-2.2c0.1-0.3,0.5-0.4,0.6-0.7l0.3-1.9c0-0.2-0.3-0.5-0.2-0.8
			c0.1-0.3,0.4-0.9,0.5-1.3c-0.1-0.2-0.1-0.3-0.2-0.5l0.5-0.5c0.1-0.2,0.4-3,0.4-3.2c0-0.2-0.2-1-0.1-1.4c0.4-1.1,0.3-2.7,0.3-4.3
			h-0.4c0,0.3,0.1,0.4,0,0.5c0,0.1-0.1,0.2-0.1,0.3h-0.4c0.1-0.1,0.2-0.1,0.4-0.1c0-0.3,0-0.5-0.1-0.6c0.2-0.1,0.3-0.1,0.5-0.1
			c0.1-0.2,0.3-0.6,0.2-1c0-0.1-0.2-0.2-0.2-0.4c0.1,0,0.2-0.1,0.3-0.1c0.1-0.2-0.3-0.5-0.3-0.5c0-0.2,0.3-0.4,0.3-0.5
			c0-1-0.3-2.1-0.2-2.5c0.1-0.6-0.5-1,0.1-1.3c-0.1-0.2-0.1-0.1-0.3-0.3c-0.1-0.1-0.1-0.3-0.1-0.7c-0.2,0-0.3,0-0.4-0.1h-0.2v-0.1
			c0.2,0,0.4,0.1,0.5,0.1c0-1.2,0.1-2.6-0.5-3.3c-0.1-0.1,0.2-0.8,0-1.3c-0.1-0.1-0.2-0.2-0.4-0.3c-0.1-0.3,0-0.4-0.2-0.6
			c0.1-0.1,0.2-0.1,0.3-0.2c-0.1-0.3-0.2-0.3-0.3-0.5c-0.1-0.2,0.1-0.1,0.2-0.1c-0.1-0.3-0.1-0.7-0.2-1c-0.1-0.2-0.4-0.5-0.5-0.8
			c-0.1-0.5,0.1-1.4-0.1-1.8l-0.3-0.3c0-0.2,0.1-0.4,0.1-0.5c-0.2-0.8-1.1-3-1-3.7c0.1-0.6-1-2-0.8-2.3c-0.1-0.2,0-0.1-0.3-0.2
			c0.2-0.3,0.1-0.1,0.1-0.5h-0.1c-0.1-0.1-0.1-0.1-0.3-0.1c0-0.3,0.1-0.8,0.1-0.9c0-0.1-0.5-0.6-0.5-0.8c-0.2-0.5,0-0.9-0.2-1.4
			c0-0.1-0.3-0.2-0.4-0.3c0-0.1,0.1-0.2,0.1-0.4c-0.1-0.2-0.4-0.3-0.5-0.5c-0.1-0.1,0.2,0,0.2-0.3c-0.1-0.3-0.3-0.4-0.3-0.8
			c-0.1,0-0.2-0.1-0.4-0.1c0.2-0.4,0.1-0.5,0-0.9h-0.4c0-0.6-1-2.8-1.4-3c-0.2-0.1-0.4,0.1-0.5,0c0,0-0.1-0.1-0.1-0.1v-0.1
			c0.1,0,0.2,0.1,0.4,0.1c0-0.7-0.3-0.9-0.6-1.2c0,0,0.2-0.4,0-0.8c-0.1-0.3-0.5-0.6-0.6-0.8c0,0,0.2-0.4,0.1-0.6
			c-0.1-0.2-0.4-0.3-0.5-0.5c0-0.2-0.1-0.4-0.1-0.6c-0.1,0-0.2-0.1-0.3-0.1c0-0.2,0.1-0.4,0.1-0.5l-0.3-0.3
			c-0.2-0.4-0.1-0.9-0.4-1.4c-0.1-0.1-0.2-0.2-0.4-0.3c-0.2-0.3,0-0.7-0.2-0.9v-0.2h-0.3c-0.1-1.3-1.2-2.7-1.9-3.8h-0.3
			c0.1,0.3,0,0.1,0.2,0.3c-0.1,0.1-0.1,0.1-0.3,0.1v0.5h0.3c-0.1,0.1,0,0-0.2,0.1c0.1,0.6,0.3,0.4,0.5,0.7c0,0-0.1,0.4-0.1,0.5
			c0.1,0.3,0.3,0.7,0.5,1c0.7,1.3,1.1,2.2,1.6,3.6c0.3,0.8,0.4,2.2,1.3,2.4c-0.1,0.2,0,0.1-0.2,0.2c0.1,0.8,0.5,1.3,0.7,1.8
			c0.2,0.4,0.1,0.8,0.4,1.2c0.2,0.2,0.4,0.3,0.5,0.5c0,0.2,0.1,0.4,0.1,0.5c0.2,0.4,0.7,0.8,0.8,1.2v0.5c0.1,0.3,0.5,0.7,0.6,1
			c0,0.2,0.1,0.5,0.1,0.7c0,0.1,0.3,0.1,0.4,0.2c0,0.2-0.1,0.4-0.1,0.6c0.2,0.5,0.6,1.1,0.7,1.5c0,0.2-0.1,0.3-0.1,0.5
			c0.2,0.7,0.8,2.6,1.2,3.1c-0.1,0.5-0.4,0.3-0.5,0.6c-0.1,0.2,0.1,0.6,0,0.8c-0.1,0.1-0.2,0.1-0.3,0.2c0,0.3,0.1,0.7,0.1,1
			c-0.1,0.3-0.3,0.6-0.3,1.1h0.3c-0.7,0.9-0.1,3.6-0.5,5c-0.3,1-0.5,2.5-0.8,3.8c-0.2,0.9,0.1,2-0.2,3c-0.5,1.9-0.7,4.3-1.3,5.9
			c-0.1,0.3,0.1,1-0.1,1.5c-0.2,0.6-0.6,1.6-0.8,2.2c0,0.1,0.1,0.2,0.1,0.4c-0.2,0.6-0.6,2.3-0.8,2.6c-0.3,0.5-0.2,1-0.5,1.5
			c-0.1,0.3-0.5,0.7-0.7,1c-0.2,0.3,0,0.6-0.1,0.9c-0.1,0.1-0.3,0.5-0.4,0.6c-0.2,0.5-0.3,1.5-0.1,1.7c-0.1,0.3-0.4,0.7-0.3,1
			c0,0.4,0,0.4,0.4,0.5c-0.1,0.3-0.4,0.5-0.5,0.7c-0.1,0.4,0.3,3.2,0.5,3.7c0.1,0.3,0,1,0.2,1.5c0.1,0,0.1,0.1,0.2,0.1
			c0.1,0.3-0.1,0.7,0,1.2c0,0.1,0.2,0.5,0.3,0.7c0.1,0.4-0.2,0.8,0,1.3c0.1,0.3,0.4,0.9,0.5,1.2c0,0,0.2,1.8,0.2,1.8
			c0,0.1-0.3,0.3-0.2,0.6c0.1,0.2,0.4,0.6,0.5,0.8c0,0.4,0.1,0.8,0.1,1.3c0.3,1.1,1.1,2.2,0.9,3.6c-0.1,0.7-0.9,1.9-1.3,2.5
			c0,0.2-0.1,0.4-0.1,0.6c0,0.1-0.3,0.3-0.4,0.5c-0.1,0.2,0.1,0.4,0,0.7c-0.1,0.2-0.4,0.4-0.5,0.6c0,0.2-0.1,0.5-0.1,0.7
			c-0.3,0.9-1.1,1.8-1.5,2.6c-0.2,0.4,0.1,0.6,0,1c-0.2,0.6-0.5,1.5-0.7,2.1c0,0.3-0.1,0.5-0.1,0.8c-0.3,0.7-0.6,1.5-0.9,2.4
			c0,0.3-0.1,0.7-0.1,1l-0.3,0.3c0,0.2,0.1,0.5,0.1,0.7c-0.2,0.6-0.5,1.7-0.6,2.4c-0.1,0.4,0.2,0.8,0,1.3c0,0.1-0.3,0.6-0.4,0.7
			c-0.1,0.5,0.2,1.9,0.1,2.3c-0.1,0.3-0.3,0.8-0.4,1.1c0,0.3,0.1,0.6,0.1,0.9c-0.4,2-0.2,4.2-0.4,6c-1.2-0.4-2.5-3.7-3.3-4.9
			c-0.5-0.8-1.2-1.8-1.5-2.7v-0.6c-0.1-0.1-0.3-0.4-0.4-0.5c-0.2-0.5-0.2-1-0.5-1.4c-0.1-0.2-0.3-0.1-0.5-0.2c0.2-0.1,0.1-0.9,0-1.1
			c-0.2-0.4-0.7-0.7-0.8-1.2c-0.2-0.5-0.1-0.8-0.4-1.2c-0.1,0-0.2-0.1-0.3-0.1c0,0-0.1-1.1-0.2-1.4c-0.4-1.3-1.1-2.8-1.6-4.1
			c-0.6-1.3-0.9-4.8-1.8-5.5c0.3-0.2-0.1-0.8-0.3-0.9c0.1-0.1,0.1-0.1,0.3-0.1c0-0.7-0.3-1.2-0.5-1.6c-0.2-0.4,0-0.8-0.2-1.2
			c-0.1-0.1-0.3-0.2-0.4-0.3c0-0.2,0.1-0.4,0.1-0.6c-0.2-0.8-0.5-1.8-0.8-2.8c0-0.2,0.1-0.5,0.1-0.7c-0.1-0.5-0.3-1-0.4-1.6
			c0-0.2,0.1-0.4,0.1-0.6c-0.2-0.7-0.5-1.6-0.5-2.5h-0.3c0.1-0.2,0.1-0.1,0.2-0.4c-0.1-0.1-0.3-0.3-0.4-0.5c0,0,0.2-1,0-1.6
			c-0.2-0.6,0.3-2,0-2.9c-0.1-0.3-0.4-0.5-0.3-0.8c0-0.1,0.3-0.2,0.2-0.5c-0.1-0.3-0.3-0.5-0.3-1h0.3c0.1-0.4,0-1.1,0-1.1
			c0-0.1,0.2-0.1,0.3-0.3c-0.1,0-0.2-0.1-0.4-0.1v0.3c0,0-0.1-0.1-0.1-0.1c-0.2-0.1-0.1-0.1-0.3-0.3c0.1-0.3,0.3-0.3,0.7-0.4
			c0-0.7,0.1-1.4,0.1-2.1h-0.3v-0.5h0.3c0-0.6-0.1-1.2,0.2-1.5c-0.1-0.6-0.5-0.4-0.7-0.9h-0.4c0.1,0.4,0.2,0.3,0,0.5
			c0.1,0.2,0,0.1,0.1,0.2c0.2,0.1,0.1,0,0.3-0.1c0.1,0.2,0.1,0.2,0.3,0.3c-0.1,0.2-0.1,0.1-0.3,0.3c-0.1-0.1-0.1-0.1-0.1-0.3h-0.4
			c0,0.4,0.1,0.9-0.1,1.2c0.1,0.2,0,0.1,0.3,0.2c-0.1,0.1-0.1,0.1-0.3,0.1c0,1-0.1,1.1,0,2.1h0.3c-0.2,0.2-0.4,0.4-0.4,0.9
			c0,0.1,0.1,0.3,0.1,0.5c0,0.1-0.2,0-0.2,0.3c0,0.2,0.3,0.4,0.3,0.6c-0.1,0.2-0.2,0.3-0.5,0.4c0.1,0.2,0.1,0.4,0.2,0.5
			c-0.1,0.3-0.3,0.4-0.2,0.9c0,0,0.1,0.1,0.1,0.1c-0.1,0.2-0.2,0.2-0.2,0.5c0,0,0.2,0.3,0.2,0.4c0,0.2-0.3,0.5-0.4,0.6
			c0.1,0.3,0.1,0.5,0.2,0.8c-0.1,0.7,0.5,3.7,1,4.3c-0.2,0.3,0,2.4,0.5,2.7c-0.1,0.1-0.1,0.1-0.2,0.2c0,0.4,0.2,0.6,0.5,0.7
			c-0.1,0.3-0.1,0.5-0.3,0.7v0.2h0.4c-0.3,2,0.6,4.6,1.4,6.6v0.9c0.1,0.5,0.4,1.1,0.5,1.5c0.3,0.8,0.1,1.8,0.5,2.6
			c0.1,0.2,0.4,0.3,0.5,0.5c0.2,0.6,0.1,0.9,0.4,1.4c0.1,0.2,0.4,0.4,0.5,0.5v0.8c0.6,1.4,1,3.2,1.6,4.5c0.1,0.3,0,0.6,0.2,0.9
			c0.3,0.5,1,1.3,1.2,1.8v0.5l0.6,1.3c0.2,0.5,0,0.8,0.2,1.3c0.3,0.9,0.9,1.6,1.4,2.4c0.1,0.2,0,0.5,0.2,0.7
			c0.2,0.3,0.6,0.7,0.8,1.1c0.2,0.3,0.2,0.7,0.5,1c0.1,0,0.2,0.1,0.3,0.1c0,0.2,0.1,0.4,0.1,0.5c0.1,0.2,0.4,0.4,0.5,0.5
			c0.3,0.4,0.5,1.1,0.8,1.5c0.5,0.7,1.3,0.9,1.6,1.9c0.3,1.1,0.4,2.4,0.7,3.4v1.3c0.1,0.4,0.3,0.8,0.4,1c0,0.2-0.1,0.5-0.1,0.8
			c0.1,0.6,0.1,1.3,0.3,2c0.5,1.7,1.3,4.4,1.7,6.3c0,0.2-0.1,0.4-0.1,0.6c0.2,0.7,0.4,1.7,0.5,2.3c0.2,0.8-0.4,1.2,0,1.7
			c0.1,0.5,0.8,0.8,1.1,1.2c0.2,0,0.3,0,0.4-0.1c0.1,0,0.2-0.1,0.3-0.1c0-1.3-0.6-2-0.8-2.8c-0.2-0.7,0.1-1,0-1.5
			c-0.1-0.7-0.4-1.5-0.5-2.1c0-0.3,0.1-0.5,0.1-0.8l-0.4-0.4c-0.4-0.8-0.3-1.9-0.5-2.8c-0.5-1.6-0.8-3.2-1-5.1c0.2,0,0.2,0,0.3-0.1
			c0.7-0.3,0.8-1.4,1.2-2.1c0.5-1.2,1.2-2.5,1.9-3.6c0.2-0.2,0.4-0.3,0.6-0.5c0.2-0.2,0.2-0.5,0.4-0.7c0.5-0.7,1.3-1.2,1.9-1.8
			c0.1-0.2,0.2-0.4,0.4-0.5c1.4-0.8,2.7-1.9,4.1-2.8c0.2-0.1,0.3-0.5,0.5-0.6c0.5-0.4,2-1.3,2.7-1.4v-0.3c0.8-0.3,1.2-0.8,1.9-1.2
			c1-0.5,1.8-1.1,2.7-1.6h0.4c0.1-0.2,0.2-0.3,0.3-0.5c0.2,0,0.4-0.1,0.6-0.1c0.7-0.4,1.6-0.9,2.3-1.4c0.5-0.3,2.6-1.4,3-1.1
			c0.3-0.2,0.5-0.6,0.8-0.7c0.3,0,0.6-0.1,0.9-0.1c1.3-0.6,2.7-0.8,4.2-1.4c1.6-0.5,3.3-1.4,5-1.9c0.3-0.1,0.8,0.1,1,0.1
			c0.3,0.1,1.8-0.2,2.1-0.3c2.7-1,6.2-1.3,8.9-2.3c0.6-0.2,0.8,0.2,1.3,0.1c0.2,0,0.6-0.3,0.9-0.4c0.8,0,1.6-0.1,2.4-0.1
			c1-0.2,2.2-0.7,3.1-0.9c0.3,0,0.6,0.1,0.9,0.1c0.4-0.1,1.4-0.4,1.8-0.5c0.2-0.1,0.6-0.5,0.8-0.5c0.7-0.3,1.3,0,1.7-0.4h0.3
			c-0.1,0.3-0.2,0.4-0.5,0.5c0.1,0.7,0.6,0.5,0.8,1.1c0.8-0.2,1.2-0.8,1.7-1.3c0-0.4-0.1-0.8,0-0.9c0.2-0.4,0.6-0.5,0.9-0.7
			c0.3,0.1,0.3,0.5,0.5,0.7c0.2,0.1,0.5,0.2,0.7,0c0.2-0.1,0.3-0.2,0.5-0.3c0-0.4,0.2-0.6-0.1-0.7c0-1,1.1-0.7,1.4-1.2h0.2
			c0,0.3-0.1,0.6-0.3,0.8c0.2,0.3,0.5,0.3,0.6,0.6c0.2,0,0.3,0,0.4-0.1c0.6,0,0.5-0.4,0.8-0.7c0.1-0.1,0,0,0.2-0.1v0.1
			c0.1,0.2,0,1,0.3,1.4c0,0.1,0.1,0.2,0.1,0.3h0.8c0.1-0.4,0.2-0.5,0.3-0.8c0.3,0.1,0.6,0.4,0.7,0.6c0.5,0,0.9-0.4,1.1-0.7
			c0.9,0.2,1.4,0.7,2.5,0.5c0.2,0.2,0.3,0.4,0.5,0.6c0.4,0,1-0.1,1.2,0c0.2,0,0.2,0,0.3-0.1c0.3-0.4,0.6-1.7,0.6-2
			c0.4,0,0.8,0.1,1.2,0.1c0.1-0.5,0.2-0.9-0.2-1.4c-0.1-0.4-0.6-0.6-1.1-0.6v-0.2c0.2-0.1,0.5-0.2,0.7-0.3c0-0.3,0-0.5-0.2-0.6v-0.2
			c0.5,0.1,0.8,1,1,1.4h0.9c-0.1,0.5,0,2.4,0.5,3c-0.1,0.3-0.7,0.8-1,1c0.1,0.5,0.6,0.4,0.9,0.7c0.6,0,0.8-0.2,1.2-0.5
			c0-0.3-0.1-0.4-0.2-0.5v-0.2c0.4,0.1,0.8,0.7,1,1c0.7,0,1.2,0,1.5-0.4c0.4,0.1,1,1.6,0.8,1.9c-0.2,0.4-0.6,0.1-1,0.4
			c-0.4,0.3-0.8,0.9-1.3,1.1c-0.1,0.6,0,0.9,0.3,1.4c0.3,0.1,0.3,0.1,0.6,0.2c0,0.5-0.3,1-0.2,1.3v0.2c-1.4-0.2-0.9,0.4-1.8,0.5
			c0-0.2,0.1-0.4,0.1-0.6c0-0.1-0.3-0.3-0.3-0.5c0.1,0,0.2-0.1,0.3-0.1c0.1-0.2,0.1-0.6,0.2-0.7c0.1-0.1-0.1-0.6-0.3-0.8
			c0.1-0.4,0.2-0.5,0.4-0.8c0.1-0.1,0,0,0.1-0.2c-0.3-0.2-0.6-0.6-0.9-0.8c-0.6,0-0.6,0.2-0.9,0.5c0,0.5,0.2,0.8,0.5,1
			c-0.2,0.4-0.3,1.2-0.5,1.4c-0.2,0.5-1,0.7-1.4,0.9c0,0.5,0,0.8,0.2,1.1c0.2,0,0.3,0.1,0.5,0.2c0.6,0,0.6-0.2,1-0.5
			c0.1-0.1,0.5,0.1,0.7,0h0.3c-0.1,0.2-0.3,0.5-0.5,0.6c0.1,1.1,1.3,1.3,1.9,2.1c0.2-0.1,0.1,0,0.2-0.1c0.4,0,0.4-0.1,0.7-0.2
			c0-0.2-0.1-0.6-0.2-0.7c-0.1-0.6-0.4-0.6-0.7-0.9c0.3-0.1,0.8-0.3,1-0.5c0.5,0.1,0.7,0.5,0.9,0.8c0.6,0,0.7-0.1,1.1-0.3
			c0.2,0.5,0.3,1,0.3,1.7c-0.2,0-0.5-0.2-0.6-0.2c-0.4-0.1-0.7,0.3-1.1,0.1c-0.5,0.1-0.5,0.4-0.8,0.6l0.1,0.1
			c0.1,0.7,0.6,0.6,0.8,1.1c0.2,0.1,0.1,0,0.2,0.1c0.8,0,1.1,0,1.4-0.5h0.1c0,6.1-0.5,12.9-2,18.2c0,0.2,0.1,0.4,0.1,0.5
			c-0.1,0.5-0.4,1.3-0.5,2v0.9c-0.2,0.7-0.8,1.4-1,2c-0.2,0.6-0.1,1.1-0.3,1.7c-0.1,0.5-0.4,1.2-0.5,1.8c-0.1,0.6,0.3,1.9,0,2.6
			l-0.4,0.4c-0.4,1-0.3,2.3-0.5,3.3c-0.1,0.3,0.1,0.9,0.1,1.2c-0.2,1.2-0.6,2.8-0.9,4v0.7c-0.2,0.6-0.8,1.3-0.3,2
			c0.2,0.2,0.4,0.3,0.6,0.4c0.1,0.1,0.4-0.1,0.7-0.1c0.2-0.5-0.2-1.1,0-1.6c0-0.1,0.2-0.6,0.3-0.8c0.1,0,0.2-0.1,0.3-0.1
			c0.1-0.3-0.3-0.3-0.2-0.7c0.3-1,0.5-2.5,0.8-3.6c0.1-0.5-0.1-1.3,0-1.6c0.1-0.7,0.4-1.3,0.5-1.9v-0.9c0.1-0.1,0.7-1.2,0.8-1.3
			c0.1-0.1,0.3,0,0.4-0.1c0.4-0.6,0.4-1.3,0.7-2c0.3-0.7,1-1.4,1.4-2c0.3-0.5,0.6-1.7,0.8-2.3c0-0.3,0.1-0.6,0.1-0.9
			c0.2-0.4,0.8-0.9,1.1-1.3c0.2-0.3,0.5-0.8,0.7-1.2c0-0.2,0.1-0.4,0.1-0.6c0.2-0.4,0.7-0.8,0.9-1.2c0.3-0.7,0.3-1.3,0.5-2
			c0.3-0.9,1-1.7,1.4-2.5v-0.4c0.1-0.2,0.4-0.5,0.5-0.7c0.1-0.2-0.1-0.3-0.1-0.4c0.1-0.3,0.6-0.8,0.7-1.1c1-2.4,2-4.6,3.3-6.6
			c0-0.2,0.1-0.4,0.1-0.5c0.3-0.6,0.8-1.5,1.1-2.1V364c0.1-0.1,0.2-0.1,0.4-0.2c-0.2-0.3,0.1-1,0.3-1.3c0.5-0.9,1.2-1.7,1.6-2.6
			c1.7-3.9,3-7.3,4.7-11.2c0-0.3,0.1-0.7,0.1-1c0.5-1.3,0.8-2.8,1.2-4.3c0.2-0.9,0.1-2,0.3-2.8v-1.5c0.6-2.2,0.3-6-0.3-8.3
			c-0.1-0.3,0.1-0.8,0.1-0.9c-0.1-0.7-0.1-1.3,0-2c0-0.2-0.1-0.6-0.1-0.7c0.1-0.5,0.3-1.3,0.2-1.9c-0.1-0.5,0-1.3,0.1-1.8
			c0-0.2-0.1-0.5-0.1-0.7c0.1-0.2,0.5-0.5,0.5-0.9c0-1.9,0.7-5.6,0.6-7.1c0-0.6,0.3-1.6,0.1-2.3c0-0.1-0.3-0.5-0.3-0.5
			c0.2-0.4,0.7-1.6,0.2-2.2c0.1-0.1,0.1-0.1,0.3-0.1C457.9,308.5,457.9,307.6,457.7,306.7z M356.7,207.7c-0.1-0.1-0.1-0.1-0.1-0.3
			h0.1V207.7z M364.8,218c-0.3-0.1-0.4,0-0.4-0.3c0.1,0,0.2,0.1,0.4,0.1V218z M365.2,218H365v-0.2h0.2V218z M338.8,272.9
			c-0.1,0.2,0,0.1-0.2,0H338.8z M338.9,269.9c0,0-0.4,0-0.2-0.1c0,0,0.1-0.1,0.1-0.1C338.9,269.8,338.8,269.7,338.9,269.9z
			 M338.9,266.8h0.2C339,267,339,266.9,338.9,266.8z M343.3,246.9c0.2,0.1,0.1,0,0.2,0.1C343.3,247,343.4,247,343.3,246.9z
			 M375.7,236.9L375.7,236.9l-0.1-0.2h0.1V236.9z M409.7,158.1c0.4,0.1,0.7,0.3,1,0.5c0.1,0.3,0.1,0.5,0.3,0.7v0.1
			c-0.8-0.1-0.8-0.6-1.3-1L409.7,158.1L409.7,158.1z M410.6,166.3c0,3.1-1,5.8-2.1,8c-0.2,0.4-0.6,0.7-0.7,1.1
			c-0.5,1.1-0.7,2.1-1.4,3c-0.2,0.2-0.6,0.3-0.7,0.5c0,0.2-0.1,0.3-0.1,0.5c-0.4,0.7-1.2,1.2-1.7,1.9c-0.2,0.3-0.2,0.7-0.5,1.1
			c-0.1,0.2-0.3,0.2-0.5,0.3c-0.4,0.4-0.7,0.8-1.1,1.3c-0.2,0.1-0.3,0.2-0.5,0.3l-0.3,0.8c-0.4,0.6-1,1.2-1.4,1.8
			c-0.3,0-0.4,0-0.5-0.1c-0.2,0.4-0.3,0.7-0.5,1.1l-0.1,0.1c-0.1-0.4-0.5-0.9-0.7-1.3c0.1-1,0.6-0.9,1-1.5c0.6-1,1.1-1.4,2-2.1
			c0.5-0.4,0.9-1.1,1.4-1.4c0.4-0.3,0.8-0.5,1.1-0.9c0.3-0.5,0.4-1,0.7-1.4c0.3-0.5,1-0.9,1.3-1.4c0.1-0.2,0-0.5,0.2-0.7l0.7-0.7
			v-0.5c0.1-0.3,0.5-0.5,0.6-0.8c0.5-1.1,1-2,1.4-3c0.1-0.3,0.1-0.6,0.2-0.9c0.2-0.4,0.7-1,0.8-1.4c0-0.4,0.1-0.7,0.1-1.1
			c0.3-0.8,0.6-1.5,0.8-2.4C410.4,166.2,410.5,166.3,410.6,166.3z M408.3,162.2c0.2-0.8-0.2-1.8,0.1-2.3v-0.1c2,0.7,1.1,5.9,0.4,7.5
			c-0.8,1.8-1.2,3.8-2,5.6c-0.3,0.6-0.9,1.4-1.3,2c-0.2,0.5-0.4,1-0.6,1.4c-0.5,0.8-1.1,1.7-1.7,2.4c-0.1,0.2-0.1,0.4-0.2,0.6
			c-0.3,0.5-1.1,0.9-1.5,1.4c-0.2,0.2-0.2,0.6-0.5,0.7c-1.3,1-2.7,2-3.5,3.4h-0.4v0.5c-0.2,0-0.2,0-0.3-0.1
			c-0.3-0.2-0.6-0.5-0.9-0.7c0.1-0.6,0.2-0.2,0.6-0.5c0.2-0.1,1.1-1.1,1.3-1.3c0.5-0.7,0.9-1.5,1.5-2.2c0.6-0.7,1.4-1.3,2-2.1
			c0.2-0.2,0.4-0.5,0.5-0.7c0-0.1-0.1-0.2-0.1-0.3c0.1-0.1,0.3,0,0.5-0.2c0-0.2,0.1-0.3,0.1-0.5c0.6-1.1,1.4-2.2,2-3.3
			c0.3-0.5,0.3-1,0.5-1.5c0.8-1.5,1.9-2.9,2.4-4.7C407.8,165.7,407.9,163.7,408.3,162.2z M397.2,187.2v0.2h-0.1L397.2,187.2
			L397.2,187.2z M395.8,188.4c-0.1-0.4-0.1-0.7-0.2-1.1c-0.4-0.9-1.1-1.8-1.3-2.8c0.8,0.2,2.2,1.4,2.2,2.1v0.2
			c-0.1-0.1-0.1-0.1-0.2-0.2c-0.2,0.1-0.2,0.1-0.4,0.2c0.1,0.9,0.6,1.6,0.8,2.3c0.2,0.6-0.2,1.4,0.1,1.9v0.6h-0.2
			c-0.1-0.4-0.1-1.1-0.3-1.6c0-0.1-0.3-0.3-0.4-0.5c0-0.2,0.1-0.4,0.1-0.5C396.1,188.9,395.9,188.6,395.8,188.4z M393.7,195.3
			C393.7,195.3,393.7,195.3,393.7,195.3L393.7,195.3c-0.4-0.1-0.5-0.6-0.5-0.9c0.2,0,0.3,0,0.4,0.1c0.2,0.1,0.2,0.1,0.4,0.2
			C393.9,195,393.9,195.1,393.7,195.3z M393.9,195.7v0.2h-0.1L393.9,195.7L393.9,195.7z M393.5,193.2c-0.3-0.1-0.6-0.1-0.9-0.3
			c-0.5-0.4-0.5-1.4-0.7-2.1c-0.3-0.8-0.7-2-1.2-2.8c-0.2-0.3-0.6-0.7-0.7-1v-0.5c-0.1-0.2-0.4-0.2-0.5-0.4c0-0.2-0.1-0.3-0.1-0.5
			l-0.5-0.5c-0.3-0.4-0.4-0.7-0.6-1.1c-0.1-0.2-0.4-0.2-0.5-0.4c-0.5-0.5-1-1.2-1.5-1.7c-0.3-0.3-0.7-0.5-1-0.9
			c-0.6,0-1.2,0.3-0.8,0.8c0.2,0.5,1,0.8,1.4,1.2c0.9,0.9,1.5,2.1,2.4,3v0.2c-0.8-0.2-1.3-1.3-1.9-1.7c-1.4-1-2.8-2.6-4.7-3.1
			c0.1-0.2,0.1-0.1,0.2-0.4c1.1,0,1.4-0.3,2.4-0.5c0.3,0,0.5,0.2,0.6,0.3c0.4,0.1,0.6-0.2,1-0.2v-0.5c-0.4-0.1-1.4-0.2-1.6-0.1
			c-0.3,0-0.4,0-0.5-0.1c0.1-0.5,0.4-0.5,0.6-0.9c0.4-0.7,0.5-1.5,0.8-2.2c0.3-0.5,0.6-0.5,0.6-1.4c0.2,0.1,0.1,0.1,0.4,0.2
			c0.1-0.3,0-0.1,0.2-0.3c0-0.9,2.2-2.9,2.7-3.6c1.7-2.2,3.7-4.1,5.5-6.1c0.1-0.1,0.3-0.1,0.5-0.2v-0.2c0.3-0.2,0.5-0.3,0.8-0.5
			c0.2-0.1,0.2-0.4,0.4-0.5c0.2,0,0.3-0.1,0.5-0.1c0.2-0.1,0.2-0.5,0.4-0.6c0.3-0.3,0.6-0.2,0.8-0.5h0.2c-0.2,1-1.5,1.6-2,2.3
			c-0.2,0.3-0.1,0.5-0.3,0.7c-0.2,0.2-0.5,0.5-0.6,0.7c-0.4,0.6-0.5,1.1-0.9,1.6c-0.2,0.2-0.4,0.4-0.6,0.5v0.6
			c-0.1,0.2-0.6,0.3-0.7,0.5c-0.1,0.2-0.1,0.4-0.2,0.5c-0.3,0.5-0.9,0.9-1.3,1.4c-0.4,0.6-0.5,1.1-0.9,1.7c-0.2,0.4-0.8,0.7-1,1.1
			c0,0.2-0.1,0.4-0.1,0.6c-0.1,0.1-0.4,0.1-0.5,0.2c-0.3,0.3-0.2,0.8-0.5,1.1c-0.5,0.8-1.4,1.4-1.7,2.3c-0.2,0.4,0.1,0.8,0,1
			c-0.1,0.2-0.5,0.2-0.7,0.3v0.5c0.2,0.1,0.5,0.2,0.7,0.3c0.6,0.4,0.9,1,1.4,1.4c0.1,0.1,0.3,0.1,0.4,0.2c1.1,1.7,2.5,3,3.5,4.7
			c0.2,0.4,0.7,1.7,0.8,2.1c0.1,0.4-0.1,0.9,0.1,1.2c0,0.1,0.1,0.2,0.1,0.3c0.2,0,0.4-0.1,0.5-0.1c0-0.6,0.3-1.1,0.2-1.8
			c-0.4-1.6-1.1-3-1.9-4.2c-0.2-0.3-0.7-0.5-0.9-0.8c-0.4-0.5-0.5-1-1-1.4v-0.1c1.4,0,2.2,1.1,2.8,1.9c1,1.3,1.8,2.9,2.4,4.5
			c0.4,1.1,0.5,2.4,0.8,3.4c0.2,0.5-0.2,1.6,0.2,2.3c0,0.2,0,0.3-0.1,0.4l-0.1,0.1C395.3,194.4,394.4,193.6,393.5,193.2z
			 M390.4,204.9c-0.3,0.5-0.8,1-1.2,1.5c-0.3,0.4-0.8,0.6-1.1,1c-1,1.4-2.2,2.1-4.2,2.1c-0.2,0-0.6,0-0.8-0.2
			c-0.1,0-0.2-0.1-0.3-0.1c0.1-0.5,0.3-0.6,0.5-1c-0.1-0.1-0.1-0.1-0.2-0.2c-0.5,0.1-1,0.6-1.3,0.9c-0.3,0-0.6,0-0.7-0.1
			c-0.3,0-0.4,0-0.5,0.1c0,0.2,0,0.3,0.1,0.4c-0.1,0.3-0.1,0.3-0.3,0.5h-0.2c0-1.5,0.6-0.9,1.5-1.4c0.9-0.5,1.8-0.8,2.8-1.3l0.5-0.5
			c0.5-0.3,1.1-0.4,1.5-0.8c0-0.1,0.1-0.2,0.1-0.3h0.5c0.6-0.3,1.4-1.7,1.8-2.3c0.2-0.3,0.6-0.5,0.8-0.7c0.3-0.3,0.2-0.8,0.5-1.2
			c0.1-0.1,0.4-0.1,0.5-0.2c0.2-0.2,0.1-0.4,0.2-0.6l0.5-0.5c0.2-0.3,0.2-0.7,0.5-1.1c0.2-0.1,0.3-0.2,0.5-0.4
			c0.5-0.8-0.3-1.4,0.2-1.9c0-0.5,0-0.7,0.2-0.9c0.1,0,0.1,0.1,0.2,0.1C393,199.8,392.2,202.3,390.4,204.9z M392.7,203.1
			c-0.9,3.6-3.4,8.5-6.8,9.8c-0.2,0-0.4-0.1-0.5-0.1c-0.2,0.1-0.8,0.4-1,0.5c0,0-1.9-0.2-1.9-0.2h-0.1c0.3-0.9,3.6-2.5,4.5-3.3
			c0.4-0.3,1-1.3,1.4-1.6c0.2-0.1,0.3,0,0.5-0.2c0.1-0.2,0.2-0.5,0.3-0.7c0.3-0.3,0.9-0.5,1.2-0.8c0.2-0.2,0.2-0.5,0.4-0.8
			c0.2-0.3,0.6-0.5,0.8-0.8c0.4-0.5,0.7-1.2,1-1.7L392.7,203.1L392.7,203.1z M363.9,204.1c-0.4-0.3-0.6-0.8-1-1.1
			c0-0.3,0.1-0.7,0.1-1c0.8,0.3,1.7,1.5,2.4,2c0.8,0.6,1.9,0.7,2.8,1.3c0,0.6,0.2,0.9,0.3,1.4c-1.5,0.2-3.1,0.3-4.3-0.5
			c-0.5-0.3-0.7-0.9-1.1-1.3v-0.3c0.9,0.2,1.5,0.7,2.4,1.1c0.1-0.1,0.1-0.1,0.2-0.2C365.6,204.7,364.5,204.5,363.9,204.1z
			 M361.7,195.7h-0.2c-0.2-0.8-0.3-2.1-0.2-2.7h0.4c0.4,0.9,0.8,2,1.4,2.8v0.1C362.7,195.7,362.2,195.1,361.7,195.7z M362.7,199
			c-0.7-0.1-0.9-0.8-0.8-1.4c0.2,0,0.3,0,0.4,0.1c0.2,0.1,0.2,0.1,0.4,0.2C362.7,198.3,362.7,198.4,362.7,199z M361.7,196.6
			c0,0.2,0,0.2-0.1,0.3c0,0-0.1,0.1-0.1,0.1c0-0.1-0.1-0.2-0.1-0.4H361.7z M368,188.3v0.2c1.1-0.1,1.1-1.8,1.4-2.6
			c0.8-2.1,1.5-2.3,3.5-3.2c0.5-0.2,1.1-0.7,1.6-0.5c0.4,0.1,1.2-0.8,1.9,0.1c0.9-0.2,0.4-1.1,1.5-0.5v0.2c-0.5,0.4-1.1,0.5-1.6,0.8
			c-0.3,0.2-0.3,0.4-0.6,0.5v0.4c0.2,0,0.5-0.1,0.7-0.1c0.4-0.8,1.6-0.8,1.7-1.4c0.4,0.1,1.3-0.1,1.7,0.1c1.5,0.9,3,1.9,4.4,2.8
			c-0.1,0.1-0.1,0.2-0.2,0.3c-2.8-0.4-5.4,0.4-8,1.2c-0.9,0.3-2.5,0.5-3,0.9c-0.1,0.1-0.1,0.1-0.1,0h-0.2c0-0.4,0.2-0.7,0.1-0.9
			c0.2-0.1,0.4-0.4,0.5-0.5v-0.3c0.6,0,0.6-0.2,0.6-0.8c0.2,0.1,0.1,0,0.2,0.1c0.8,0,0.6-0.5,1.2-0.7c0-0.2,0.1-0.4,0.1-0.6h-0.4
			c-0.8,0.9-2,1.6-2.7,2.5c-0.3,0.5-0.6,1.4-1,1.8c-0.2,0.2-0.8,0.3-1.1,0.5c-1,0.7-1.8,1.7-2.7,2.2v0.3c0.2,0,0.3,0.1,0.5,0.1v-0.3
			c0.6-0.1,1.3-0.7,1.4-1.3h0.5v-0.3c0.2,0,0.4,0.1,0.5,0.1c-0.1,0.4-0.3,0.5-0.5,0.7c-0.2,0.4,0,0.7-0.2,1c0,0.4,0,0.6-0.2,0.8
			c-0.1,0-0.3,0-0.5-0.1c-0.1,0,0.2-0.4,0.2-0.7h0.5c0-0.2,0-0.3-0.1-0.5c-0.2,0-0.3,0-0.5,0.1v0.4c-0.2,0-0.2,0-0.3,0.1
			c-0.3,0.1-0.3,0.2-0.4,0.5h-1v-0.5c-0.2-0.1-0.1,0-0.2-0.1c-0.6,0.1-0.5,0.3-0.8,0.5c-0.2,0.1-1,0.1-1.2,0c-0.1,0-0.2-0.1-0.3-0.1
			c-1-4.4-0.2-7,2.9-9c0.2-0.2,0.6-0.5,0.9-0.6h0.8c0.3,0,0.6-0.4,1-0.2c0.3,0.1,0.5,0.2,0.9,0.3c-0.6,0.5-1.3,0.6-2,1.1
			c-0.9,0.7-1.2,2.3-1.6,3.5C368.2,186.9,367.7,187.9,368,188.3z M392.4,158.9c1.4-0.5,2.9-1,4.3-1.4c0.5-0.1,0.8,0,1.2,0
			c0.1,0.1,0.1,0.1,0.3,0.2c-0.2,0.8-1.6,0.8-2.4,1.1c-2.2,0.7-3.7,1.6-5.4,2.7c-1.1,0.7-2.1,1.7-3.2,2.4c-0.2,0-0.4,0.1-0.6,0.1
			c-0.2,0.1-0.1,0.4-0.3,0.6c-0.2,0.3-0.8,0.4-1,0.7c-0.2,0.3-0.4,0.9-0.7,1.1c-0.2,0.2-0.6,0.2-0.8,0.4c-0.1,0.1-0.1,0.2-0.2,0.4
			c-0.2,0.3-0.7,0.4-0.9,0.7c-0.1,0.1-0.1,0.3-0.2,0.5c-0.3,0.3-0.6,0.5-0.9,0.8c-0.2,0.2-0.2,0.6-0.4,0.8h-0.3
			c-0.5,0.3-0.6,1-1,1.4h-0.3c-0.2,0.1-0.2,0.5-0.3,0.6c-0.2,0.3-0.5,0.7-0.8,1.1c-0.1,0.1-0.3,0.1-0.4,0.2c0,0.2-0.1,0.4-0.1,0.6
			c-0.2,0.2-0.6,0.4-0.8,0.6c-0.1,0.2,0,0.4-0.2,0.6c-0.2,0.4-0.7,0.8-0.8,1.2v0.5c-0.2,0.1-0.3,0.2-0.5,0.4
			c-0.4,0.7-0.3,1.4-0.9,1.8c0,0.3,0,0.5,0.2,0.6c-0.1,0.2,0,0.1-0.1,0.2c0,0-0.1,0.1-0.1,0.1c-0.3-0.6-1.4-1.3-2.3-1.3
			c0-0.1-0.1-0.2-0.1-0.3c-0.2-0.6,1.4-2.9,1.7-3.5c0.3-0.7,0.4-1.3,0.7-2l0.5-0.5v-0.4c0.2-0.1,0.3-0.2,0.5-0.3
			c0.3-0.3,0.3-0.7,0.5-1.1c0-0.1,0.4-0.3,0.5-0.4c1.5-2.2,2.9-4.3,5.1-5.8V164c1.2-0.1,1.5-1.5,2.5-1.8c0-0.2,0.1-0.3,0.1-0.5
			c1-0.1,0.7-0.4,1.2-0.7c0.4-0.3,0.9-0.2,1.4-0.5c0.4-0.2,0.9-0.7,1.4-0.9C389.9,159.2,391.1,159.3,392.4,158.9z M389.8,158.2v-0.2
			h0.3v0.1c0,0-0.1,0.1-0.1,0.1L389.8,158.2L389.8,158.2z M390.2,181.3c0,0.1-0.1,0.2-0.1,0.3c-0.8,0-2.1-0.6-2.4-1.2
			c-0.1-0.1,0,0-0.1-0.2c0.7-0.6,0.9-2.2,1.4-3c0.3-0.4,0.8-0.8,1.1-1.2c0.5-0.6,0.7-1.4,1.2-2c0.3-0.4,0.7-0.7,1-1.2
			c0.1-0.2,0.1-0.4,0.2-0.6c0.1-0.2,0.4-0.2,0.5-0.4c0.1-0.2,0-0.5,0.2-0.7c0.3-0.2,0.5-0.4,0.8-0.6c0.3-0.4,0.3-0.9,0.6-1.3
			c0.1,0,0.2-0.1,0.3-0.1c0.2-0.2,0.2-0.5,0.4-0.7c0.1-0.1,0.2-0.1,0.4-0.2c0.5-0.7,0.7-1.6,1.3-2.3c0.6-0.8,1.8-1.6,2.3-2.5h0.2
			c-1,1.9-2.3,3.7-3.4,5.4c-0.8,1.3-1.2,2.7-2,4c-0.2,0.4-0.7,0.8-0.9,1.2c-0.1,0.2,0,0.5-0.2,0.7c-0.4,0.7-1.1,1.5-1.4,2.3
			c0,0.3-0.1,0.5-0.1,0.8c-0.2,0.4-0.6,0.9-0.8,1.3c-0.3,0.5-0.3,0.9-0.6,1.3C389.9,180.8,390,181.1,390.2,181.3z M394.8,164
			c-0.6,0.4-1.1,1.1-1.5,1.7c-0.6,0.5-1.3,1-1.9,1.5c-0.6,0.8-1.1,1.5-1.7,2.3c-0.2,0.2-0.5,0.4-0.7,0.5c-0.1,0.2-0.4,0.8-0.5,0.9
			c-0.2,0.1-0.4,0.1-0.5,0.2c-0.3,0.2-0.3,0.7-0.5,1c-0.5,0.7-1.4,1.1-1.5,2.2c-0.6,0.1-0.8,1.1-1.1,1.5c-0.1,0.1-0.4,0.1-0.5,0.3
			c-0.2,0.2-0.2,0.9-0.4,1.2c-0.4,0.7-1.8,2.9-2.4,3.3c-0.5,0.3-1.3,0.4-2.1,0.4c0.1-1.7,1.7-2,1.8-3.5h0.3c0-0.2,1.1-1.8,1.3-2h0.3
			c0.2-0.2,0.1-0.6,0.1-0.6c0.3-0.6,1.1-1.1,1.5-1.7l0.3-0.8c0.1-0.1,0.5-0.2,0.6-0.3c0-0.2-0.1-0.4-0.1-0.6h0.4
			c2.5-2.5,5-5,7.9-7.2c0.3-0.2,0.3-0.6,0.5-0.8c0.5-0.4,1.1-0.6,1.6-1c0.4-0.3,0.7-0.7,1.1-1c0.2-0.1,0.4-0.1,0.7-0.2
			c0.3-0.1,0.7-0.5,1-0.7h0.2C398.4,161.3,395.6,163.4,394.8,164z M378.7,179v0.4c-0.2,0.4-0.6,0.7-0.8,1.2
			c-0.7-0.1-1.2-0.5-1.8-0.6c0.1-0.8,0.7-1.3,0.9-2c0.2-0.4,0-0.8,0.2-1.2c0.1-0.2,0.5-0.5,0.6-0.7c0.2-0.2,0-0.4,0.2-0.6
			c0.2-0.3,0.6-0.8,0.8-1.1c0.1-0.3,0.2-0.7,0.4-1c0.3-0.4,0.9-0.7,1.1-1.3h0.3v-0.4c0.7-0.2,1-0.9,1.4-1.4c0.2-0.2,0.4-0.3,0.6-0.5
			c0.3-0.5,0.5-0.9,0.9-1.3c0.1-0.1,0.3-0.1,0.4-0.2c0.1-0.2,0.1-0.5,0.3-0.6h0.3c0.2-0.2,0.3-0.4,0.5-0.6c0.2,0,0.3-0.1,0.5-0.1
			c0-0.2,0.1-0.4,0.1-0.6c0.1-0.2,1.1-0.7,1.4-0.9c0.3-0.2,0.3-0.6,0.5-0.8c0.2-0.2,0.5-0.1,0.6-0.3c0-0.1,0.1-0.2,0.1-0.4
			c0.3-0.3,0.9-0.1,1.2-0.4c2.5-1.9,5.1-4,8.7-4.2c0,0.2,0,0.2-0.1,0.3c-0.3,0.4-1,0.4-1.4,0.7c-0.7,0.4-1.1,1.2-1.7,1.6
			c-0.4,0.3-0.8,0.4-1.2,0.7c-0.3,0.3-0.6,0.7-0.9,1c-2,1.5-3.8,3.3-5.7,5c-0.6,0.5-0.9,1.5-1.6,2v0.4c-0.3,0.1-2,1.8-2.1,2v0.5
			c-0.2,0.4-0.8,0.6-1,1c-0.3,0.4-0.7,0.9-0.9,1.3c-0.2,0.3-0.1,0.7-0.3,0.9c-0.1,0.1-0.4,0.2-0.5,0.4c-0.3,0.5-0.5,0.8-0.8,1.4
			C379.3,178.6,379,178.8,378.7,179z M390.8,193.6c-0.2,0.6-1.8,1.3-2.3,1.9c-0.2-0.1-0.3-0.2-0.5-0.3c0.2-0.9,0.9-1.2,1.1-2.1
			C389.9,193.2,390.4,193.3,390.8,193.6z M389.7,192.1c0-0.3,0-0.3,0.2-0.5c0,0,0.1-0.1,0.1-0.1l0.6,0.6v0.3
			C390.1,192.4,390,192.3,389.7,192.1z M388.8,201.9c-0.1,0.2-0.1,0.6-0.3,0.8c-0.2,0.2-0.4,0.3-0.5,0.5c-0.3,0.4-0.4,0.7-0.6,1.1
			c-0.3,0.3-0.8,0.5-1.2,0.7c-0.2,0.2-0.5,0.4-0.7,0.5c0,0.1-0.1,0.2-0.1,0.3c-0.2,0-0.4,0.1-0.6,0.1c-1.1,0.6-2.5,1.5-3.8,1.8
			c0,0-0.1-0.1-0.1-0.1c0-0.3,0.1-0.5,0.1-0.8c0.2-0.3,1-0.3,1.4-0.5c0.7-0.4,1.4-1.2,2.4-1.3v-0.3c0.2-0.1,0.4-0.1,0.5-0.3h0.1
			c-0.1-0.2,0-0.1-0.4-0.2c0.5-1.1,2.7-3.1,3.8-3.7c0.7-0.4,1.3-1.9,2.1-2.4c0-0.3,0-0.6-0.1-0.7v-0.2c-0.8,0.1-0.8,0.9-1.4,1.3
			c-0.2,0.2-0.5,0.1-0.7,0.3c-0.1,0.2-0.2,0.4-0.4,0.5c-0.3,0.2-0.7,0.3-1,0.5c-0.2,0.2-0.2,0.5-0.4,0.7c-0.5,0.8-2.7,2.1-3.9,2.2
			c0.2-1.4,1.6-2.1,2.3-3c0.7-0.9,1.4-1.6,2.2-2.3c0.3-0.3,0.4-0.7,0.6-1.1c0.2-0.2,0.5-0.3,0.7-0.5c0-0.1,0.1-0.2,0.1-0.3h0.4
			c0.2-0.2,0.3-0.4,0.5-0.5c0.5-0.3,1.1-0.4,1.4-0.7c0.2,0,0.3,0,0.5,0.1c0,3.3-0.8,5.7-3.1,7.1
			C388.7,201.8,388.6,201.8,388.8,201.9z M366.8,192.3c0.3,0,0.6,0,0.6,0c0.4,0,0.4,0.1,0.6,0.2c-0.1,0.6-0.3,0.9-0.5,1.3
			c-0.7,0.2-1.3,0.6-2,0.6C365.7,193.5,366.4,193,366.8,192.3z M365.7,192.4c0.1,0.1,0.2,0.2,0.1,0.3v0.2
			C365.7,192.6,365.7,192.6,365.7,192.4z M384.1,187.6c2,0.5,3,2.4,4.8,3.2c0,0.2,0.1,0.3,0,0.5c0,0.2,0,0.3-0.1,0.5
			c-0.1,0.1,0,0-0.2,0.1c-0.3-0.3-0.8-0.4-1.2-0.6c-0.2-0.2-0.3-0.4-0.5-0.6c-2-1.2-4-2.5-7-1.4c-0.8,0.3-1.1,0.2-1.6,0.6
			c0,0-0.1-0.1-0.1-0.1c0-1.2,1.8-3.2,2.8-2.6c0.3,0,0.3,0,0.5-0.2C382.2,187.2,384,187.9,384.1,187.6z M383.8,187.4v-0.2
			c0.2,0.1,0.1,0,0.2,0.1L383.8,187.4C383.8,187.4,383.8,187.4,383.8,187.4z M387.5,192.4c0.4-0.1,0.5,0.1,0.9,0.2
			c0.1,0.7-0.3,0.9-0.5,1.5c-0.1,0-0.2,0.1-0.3,0.1c0,0-0.1-0.1-0.1-0.1C387.5,193.5,387.7,193,387.5,192.4z M386.2,195.6
			c-0.1,0.7-0.8,0.8-1.3,1.3h-0.1c0-0.8,0.4-1.3,0.5-2c0.8-3-2.2-3.8-3.9-4.2c-0.7-0.2-1.7,0.2-2.4-0.2h-0.2V190
			c0.5-0.1,0.5-0.4,0.9-0.5c0.3,0.1,0.6,0.1,0.7,0.1c0.4,0,0.5-0.1,0.5-0.5c0.8,0.8,2.1,0.6,3.3,1.2c0.2,0.1,1.3,0.8,1.4,1
			c0.3,0.5,0.4,0.8,0.8,1.2C386.5,193.5,385.7,195,386.2,195.6z M385.6,197.7c-0.4,0.6-1.2,1.3-2.1,1.4v-0.3
			c0.6-0.1,1.1-0.5,1.5-0.8v-0.3C385.2,197.7,385.4,197.7,385.6,197.7C385.5,197.7,385.6,197.7,385.6,197.7z M380,191.9
			c0.3,0,0.5-0.1,0.8-0.1c0.5,0.1,1,0.3,1.4,0.5c0.2,0.1,0.8,0,1.2,0.2c0.4,0.2,0.6,0.8,0.9,1.1c0.1,1.4-0.2,2.5-0.5,3.3
			c0,0.5,0.1,0.5,0.4,0.7c-0.5,0.5-1.3,0.6-1.7,1.2h-0.5v-0.5c0.8-0.3,1.6-1,1.6-2.1c-0.5-0.5-1-1.3-1.7-1.6h-0.6
			c-0.5-0.2-1.1-0.6-1.6-0.8c-0.4-0.2-0.9,0-1.2-0.2c-0.1,0-0.2-0.1-0.3-0.1c0-0.3,0-0.8,0.1-1c0-0.3,0-0.5,0.1-0.7
			C378.8,191.7,379.4,191.8,380,191.9z M382.9,199.3c-0.1,0.2,0,0.1-0.3,0.2v-0.3c0,0,0.1,0.1,0.1,0.1L382.9,199.3L382.9,199.3z
			 M377.6,188.2c-0.4,0.7-0.7,1.6-0.9,2.3c-0.2,0.7-0.1,2.1-0.5,2.6c-0.4,0.2-1.3-0.2-1.5-0.4c0-1.2,0.5-1.8,0.9-2.5
			c0.2-0.3,0.1-0.6,0.3-0.9c0.1-0.2,0.6-0.4,0.7-0.6c0.2-0.2,0.1-0.5,0.3-0.7c0.3-0.3,0.7-0.4,1-0.7h0.4
			C378.1,187.8,377.7,187.9,377.6,188.2z M376.2,194.8c0.3,0.8,0.5,1.5,0.8,2.2c0.2,0,0.3,0.1,0.5,0.2c0.2,0,0.2,0,0.4-0.1
			c0-0.5,0-0.8-0.3-1v-0.5c1,0.3,2.5,0.5,3.1-0.5c0.9,0,1.1,0.5,1.6,0.9c0,0.2,0,0.3,0.1,0.4c0,0.6-0.2,0.5-0.5,0.8
			c-0.2,0-0.3,0-0.4-0.1h-0.3c0.1,0.1,0.1,0.2,0.2,0.3c-0.2,1-1.2,1.4-1.7,2.1c-1.5,0.1-2.9,0.7-4.2,0.3c-1.8-0.5-3.8-3.5-2.9-6
			c0.2,0,0.4,0.1,0.5,0.2c0.2,0.4,0,1,0.2,1.4c0.5,1.2,1.7,3,3.1,3.2c0.1,0,0.4-0.1,0.6-0.1c0.3,0.1,0.6,0.2,0.9,0
			c0.4-0.1,0.3-0.1,0.5-0.3c-0.4-0.8-2-0.5-2.7-1c-0.6-0.4-1.2-1.5-1.4-2.3c-0.1-0.4,0.2-0.6,0-0.9V194
			C375.2,194.1,375.6,194.5,376.2,194.8z M374.1,190.1c-0.3,0.8-0.3,1.7-0.7,2.3c-0.1,0.1-0.3-0.1-0.6-0.1c0.1-1.5,0.8-2.2,1.4-3.1
			h0.4C374.5,189.7,374.2,189.8,374.1,190.1z M372.4,189.6c0.1,0.3,0,0.2,0.2,0.4c-0.1,0.2-0.3,0.2-0.5,0.4
			c-0.3,0.5-0.4,1.1-0.5,1.7c-0.3,0-0.6,0-0.8-0.1c0-0.3,0-0.6-0.2-0.9c0.3-0.8,0.9-1.7,1.7-2c0.1-0.1,0.3-0.1,0.4-0.2
			c0.1,0,0.1,0.1,0.2,0.1C372.8,189.4,372.7,189.4,372.4,189.6z M371.2,193v0.3c-0.3-0.2-0.5-0.2-0.7-0.5
			C370.7,192.9,371,193,371.2,193z M370.7,193.7c0.3,0.1,0.3,0.2,0.6,0.2c0.4,1.2,0.1,2.8,0.5,4c0.3,0.6,1,1,1.2,1.7
			c0,0,0.1,0.1,0.1,0.1H373c-0.9,0.4-2.3-0.5-3.2-0.7c-0.1-0.3-0.3-1.7,0-2.2c-0.1-0.3-0.2-0.4-0.5-0.5c0.1-0.1,0.1-0.1,0.3-0.1
			c0-0.2,0-0.2-0.1-0.3v-0.2h0.4c0-0.5,0-1.2,0.3-1.5C370.4,193.8,370.5,193.9,370.7,193.7z M369.2,193.3c-0.1,0.1-0.4,0.1-0.6,0.1
			c0,0-0.1-0.1-0.1-0.1c0-0.2,0-0.2,0.1-0.3c0.1-0.4,0.1-0.3,0.3-0.5h0.5c0.1,0.2,0.2,0.2,0.3,0.5c0,0,0.1,0.1,0.1,0.1
			C369.6,193.1,369.5,193.2,369.2,193.3z M368.8,194.1c0.4,0,0.4,0.1,0.6,0.2c-0.4,1-0.4,2.8-0.4,4.3c-0.5-0.2-1-0.3-1.4-0.5
			c-0.1-0.8-0.2-3.5,0.4-3.9C368.2,194.1,368.6,194.2,368.8,194.1z M366.4,194.7c0.3,0,0.5,0,0.6,0.1c0,1-0.3,1.8-0.3,2.9
			c-1.1-0.2-1.5-1.2-2.3-1.6C364.6,195.2,365.9,195.1,366.4,194.7z M366.8,198.8c0,0.3,0,0.5,0.1,0.6c-0.1,0.2,0,0.1-0.1,0.2
			c-0.1,0.1,0,0-0.2,0.1c-0.8-0.8-2.3-1.3-2.7-2.4c-0.1-0.1-0.1-0.1-0.1-0.3h0.4C364.8,197.7,366,198.3,366.8,198.8z M364.5,199.8
			c0.5,0.3,2,1,2.3,1.4c0.4,0.6,0.2,1.2,0.5,1.8c0.1,0.3,0.3,0.5,0.4,0.9c-0.3-0.1-2.9-1.7-3.1-1.9c-0.5-0.6-0.8-1.4-1.4-1.9
			c0-0.4,0.1-1.1,0.2-1.3C363.7,198.8,364.2,199.6,364.5,199.8z M367.6,199.2c0.5,0.2,1,0.3,1.5,0.5c0.1,0.2,0,0.1,0.1,0.2v1.2
			c-0.5-0.1-1-0.5-1.4-0.7C367.7,199.9,367.6,199.7,367.6,199.2z M368.4,202c0.4,0.2,0.9,0,1.3,0.3c0.5,0.3,0.8,1.3,1.3,1.7
			c0,0.2,0,0.2-0.1,0.4c-0.4,0.1-1.7,0.2-2.3-0.1c-0.7-0.2-0.9-1.8-0.9-2.6C368.2,201.7,368.2,201.8,368.4,202z M370.3,201.2
			c-0.2-0.2-0.3-0.8-0.4-1.2c0.3,0.1,0.6,0.1,0.8,0.3c0.3,0.2,0.6,0.9,1,1.2v0.2C371.2,201.6,370.6,201.4,370.3,201.2z M372.1,202.2
			c0.8,0.1,1.1,1.4,1.7,1.8v0.4c-0.3,0-0.6,0.1-0.8,0.3c-0.2,0-0.3,0-0.4-0.1c-0.1-0.1-0.1-0.4-0.2-0.5c-0.1-0.3-0.7-0.7-1.2-0.7
			c0-0.4-0.1-0.5-0.4-0.7C371.2,202.3,371.9,202.5,372.1,202.2z M373.9,204.7c0.9,0,2.4,1,3.1,1.4v0.2c-1.2,0-3.2-0.5-3.4-1.2h-0.1
			C373.6,204.9,373.8,204.9,373.9,204.7z M373.2,201.2c0-0.2-0.1-0.4-0.1-0.7c1.4,0,3,0.4,4.2,0.5c0.3,0,0.3,0.1,0.5,0.2
			c-0.1,0.2-0.2,0.2-0.4,0.3v0.4c-0.4,0.1-1,0.5-1.3,0.7C375,202.5,374.1,201.7,373.2,201.2z M377.3,202.4c0.2,0,0.2,0,0.3-0.1
			c0.3-0.1,0.3-0.2,0.5-0.4v-0.3c0.6-0.1,1-0.5,1.4-0.7c0.4,0.2,2.7-0.1,3.3-0.4c0.4-0.2,0.7-0.5,1.4-0.5v0.4
			c-0.3,0.3-1.7,2.1-1.8,2.5c-1.1-0.1-1.7,0.2-3.1,0.1c-0.5,0-0.9-0.4-1.3-0.2c-0.4,0-0.4-0.1-0.6-0.2V202.4z M383.5,203.7h0.3
			c0,0,0.1,0.1,0.1,0.1c-0.5,0.7-1.4,1.3-2.2,1.6c0,0-0.1-0.1-0.1-0.1c0-0.2,0-0.4,0.1-0.5c0-0.5,0.2-0.4,0.4-0.7
			C382.6,204,383.1,204,383.5,203.7z M385.7,187.6c-0.6-0.4-1.4-0.3-2-0.7c-0.1,0.1-0.1,0.1-0.1,0.3c-0.4-0.2-0.8-0.5-1.3-0.6
			c0.1-0.2,0.1-0.2,0.2-0.4c0.8-0.2,1.5-0.5,2.3-0.4c1.3,0.2,3.7,2,4.1,3.1c0.2,0.2,0.2,0.5,0.2,0.9
			C388.2,189.6,386.5,188.1,385.7,187.6z M365.1,193.3c0,0.8-0.5,1.3-1,1.7v0.1c-0.5-0.2-1.4-1.8-1.4-2.3c0.3-0.1,0.4-0.3,0.8-0.2
			C364,192.7,364.4,193.2,365.1,193.3z M362.6,192.1c-0.1-0.1,0,0-0.2-0.1c-0.1-0.5-0.2-1-0.3-1.5c0.6,0.2,0.5,0.8,0.9,1.2
			C362.9,192,362.9,192,362.6,192.1z M368.4,207.5c0.1,0,0.2,0.1,0.4,0.1v0.3h-0.3c0,0-0.1-0.1-0.1-0.1V207.5z M368.6,205.3
			c0.7,0,2.4,0.2,3-0.5c0.3,0.1,0.3,0.1,0.5,0.2c-0.3,0.7-2.2,0.9-2.8,1.4c-0.2,0-0.2,0-0.3-0.1
			C368.8,206.2,368.6,205.7,368.6,205.3z M372.4,205.5c0.8,0.3,1.5,0.8,2.3,1.1c0.8,0.3,1.8,0.1,2.3,0.2c0.2,0,0.4,0.3,0.6,0.4
			c0.9-0.1,1.7-0.1,2.6-0.2c0,0.4-0.2,0.5-0.2,1c-0.6,0.2-1.1,0.1-1.8,0.3c-1.2,0.3-7.1,0.6-8.6-0.3c0-0.2-0.1-0.3-0.2-0.5
			C369.5,206.5,371.9,206.4,372.4,205.5z M376,204.1v-0.3c1.1,0.1,3.8,0.8,4.6,0.3c0.3,0,0.5,0,0.6,0.1c0.1,0.2-0.2,0.8-0.4,1
			C379.7,206.2,376.8,204.6,376,204.1z M406.8,162L406.8,162L406.8,162c-0.1,3.7-1.3,6.6-2.8,9c-0.4,0.6-0.5,1.3-0.9,1.8
			c-0.1,0.1-0.1,0.1-0.3,0.1c0,1.3-0.9,2.5-1.4,3.3c-0.9,1.3-1.7,2.4-2.6,3.6c-0.1,0.2-0.5,0.7-0.7,0.8c-0.1,0.1-0.3,0-0.4,0.1v0.4
			c-0.2,0.4-0.8,0.6-1.1,1c-0.1,0.2-0.1,0.4-0.3,0.5c-0.2,0.2-0.6,0.2-0.8,0.4h-0.2c0-0.8,0.4-0.8,0.6-1.4v-0.5
			c0.1-0.2,0.6-0.4,0.7-0.7v-0.6c0.1-0.1,0.4-0.2,0.5-0.4c0.4-0.5,0.7-1,1.1-1.6c0.1-0.1,0.4-0.2,0.5-0.3c0.3-0.4,0.5-1.1,0.8-1.5
			c0.4-0.6,1.1-1.3,1.4-2c0.5-0.9,0.7-1.9,1.3-2.8c0.1-0.1,0.2-0.2,0.4-0.3c0.2-0.4,0.1-1,0.3-1.4c0.3-0.5,0.9-0.9,1.2-1.4
			c0.8-1.7,1.3-3.5,2.3-5.1C406.6,162.8,406.6,162.3,406.8,162z M405.5,160h0.2c0.1,0.6,0,1.5-0.3,2c-0.1,0.1-0.2,0.1-0.3,0.2
			c-0.3,0.6-0.1,1.1-0.4,1.7c-0.4,1-1.1,2.1-1.6,3.1c-0.1,0.3-0.1,0.6-0.2,0.9c-1.3,2.4-2.5,4.9-3.8,7.3c-0.4,0.7-1.2,1.4-1.6,2.1
			c-0.1,0.2-0.2,0.5-0.3,0.7c-0.2,0.2-0.6,0.3-0.7,0.5c-0.2,0.3-0.2,0.7-0.5,1c-0.8,1.1-1.7,2.3-2.4,3.5c-0.2-0.1-0.1,0-0.2-0.1
			c-0.1-0.1,0.8-2.3,0.9-2.7h0.4c0.1-0.4-0.2-0.9,0-1.4c0.6-1.4,1.5-3.1,2.3-4.4c0.2-0.5,0.4-1,0.5-1.5c0.2-0.1,0.3-0.1,0.5-0.2
			c0.2-0.3,0.1-1,0.3-1.4c0.1-0.2,0.5-0.4,0.6-0.6c0.4-0.6,0.5-1.2,0.9-1.7c0.1-0.1,0.2-0.2,0.4-0.3c0.1-0.3,0.2-0.6,0.3-0.9
			c0.4-0.5,0.9-1.1,1.3-1.6c0.1-0.2,0.2-0.5,0.3-0.7c0.9-1,1.6-2.3,2.3-3.4C404.7,161.4,405.4,160.9,405.5,160z M403.2,154.5
			c0.1,0,0.2,0.1,0.3,0.1c0,0.4-0.1,0.4-0.2,0.6c-0.8,0-1.3-0.5-1.2-0.9C402.5,154.4,403.1,154.5,403.2,154.5z M403.9,160.1V160h0.1
			c-0.1,1-1.7,2.9-2.3,3.7c-1.4,2.1-2.7,4.3-4,6.4l-0.3,0.8c-0.1,0.1-0.2,0.1-0.3,0.2c0,0.3-0.1,0.6-0.1,0.9
			c-0.1,0.1-0.4,0.1-0.5,0.2c-0.1,0.3-0.2,0.6-0.3,0.9c-0.4,0.8-1.2,1.6-1.2,2.7H395c-0.2,0.4-0.5,0.6-0.6,1
			c-0.3,0.6-0.3,1.2-0.6,1.8c-0.5,1.1-1.3,2-1.3,3.8c-0.5-0.2-1.2-0.6-1.5-0.9c-0.1-0.5,0.7-1.6,0.9-2.1c0.6-1.4,1-2.8,1.7-4.1
			c0.5-0.9,1.6-1.9,1.7-3.1h0.3c1.1-2.4,2.4-4.2,3.8-6.2c0.4-0.6,0.6-1.3,1.1-1.9l1.4-1.4C402.3,162.1,403.2,160.6,403.9,160.1z
			 M401.2,155.8L401.2,155.8c-0.7,0.5-1.9,0.7-3.1,0.6c-0.3,0-0.7-0.2-1.1-0.1c-1.4,0.4-2.4,0.8-3.8,1.2c-0.8,0.2-1.8,0.1-2.4,0.5
			h-0.5V158c0.2-0.1,0.3-0.4,0.5-0.5c1.2-0.6,2.5-1,3.9-1.4c0.8-0.3,3.3-0.4,3.7-0.8C399.4,155.2,400.9,155.1,401.2,155.8z
			 M372.5,172.4l0.3-1.6c0.2-0.3,0.6-0.7,0.7-1.1v-0.5c0.1,0,0.2-0.1,0.3-0.1c0.3-0.4,0.4-0.7,0.6-1.1c0.1-0.2,0.4-0.2,0.5-0.4
			c0.5-0.7,0.8-1.5,1.4-2.2c0.5-0.7,1.4-1.1,1.9-1.7c0.1-0.2,0.1-0.3,0.2-0.5c0.1-0.1,0.4-0.2,0.5-0.3c0-0.2,0.1-0.3,0.1-0.5
			c0.1-0.1,0.3,0,0.4-0.1v-0.4c0.2-0.3,0.9-0.6,1.3-0.9c0.2-0.1,0.3-0.5,0.5-0.6h0.4c0.1-0.1,0.2-0.4,0.3-0.5h0.4l0.5-0.5
			c0.3-0.1,0.5-0.1,0.8-0.2c0.7-0.4,1.4-1.1,2.1-1.4h0.5c0-0.1,0.1-0.2,0.1-0.3c0.1-0.1,0.6-0.5,0.7-0.5c0.5-0.3,0.9-0.2,1.4-0.5
			c0.2-0.1,0.5-0.5,0.7-0.6c0.2,0,0.3-0.1,0.5-0.1c0-0.1,0.1-0.2,0.1-0.3l1.4-0.5c2.2,0.1,4.6-0.6,6.7-1c0.1,0.2,0.1,0.1,0.1,0.2
			c-0.3,0.4-2.2,0.5-2.8,0.7c-0.2,0.1-0.4,0.3-0.5,0.4c-0.5,0.2-0.9,0.1-1.4,0.3l-0.5,0.5c-0.2,0-0.3-0.1-0.5-0.1
			c-0.1,0-0.3,0.3-0.5,0.4c-0.4,0.2-0.7,0-1.2,0.2c-0.3,0.1-0.6,0.4-0.9,0.5c-0.3,0-0.5,0.1-0.8,0.1c-0.1,0.1-0.1,0.4-0.2,0.5
			c-0.1,0-0.2-0.1-0.4-0.1c-0.3,0.2-0.8,0.5-1.2,0.6c0,0.7,0.3,0.6,0.8,0.7c-0.1,0.1-0.3,0-0.5,0.1c-0.1,0.1-0.4,0.6-0.5,0.7
			c-0.3,0.2-0.6,0.1-1,0.3c-0.3,0.1-1,0.6-1.3,0.9c-0.1,0.1-0.1,0.1-0.1,0.3c-1,0.1-1.7,1.1-2.4,1.5v0.5c-0.7,0.1-0.7,0.6-1.1,0.9
			c-1.2,0.8-3.1,2.5-3.8,3.7h-0.3c-0.1,0.5-0.3,0.8-0.5,1.2H376c-0.1,1.1-1,1.8-1.5,2.5c-0.8,1.2-1.1,2.4-1.8,3.8
			c-0.3,0.6-0.8,1-1,1.6h-0.2c-0.1-0.2-0.1-0.4-0.3-0.5C371.6,175.3,372.1,173.7,372.5,172.4z M370.7,180.1c0.7,0,3,0,3.5,0.4
			c0.1,0,0.2,0.1,0.3,0.1v0.2c-0.9,0.2-3.8,0-4.5,0.5h-0.2C369.9,180.6,370.4,180.4,370.7,180.1z M368.8,179.3
			c0.3-0.1,0.3-0.2,0.5-0.3v-0.3c0.5,0,0.5,0.1,0.7,0.3v0.3c-0.3,0-0.5,0-0.6,0.1L368.8,179.3L368.8,179.3L368.8,179.3z
			 M364.7,181.8h0.3c0.2-1.1,2.2-1.7,3.6-1.6v0.4c-0.4,0.2-0.8,0.7-1.1,1.1c-0.4,0-0.8,0.1-1.2,0.1c0,0.1-0.1,0.2-0.1,0.3
			c-0.2,0-0.5-0.1-0.7-0.1c-0.4,0.1-0.7,0.3-1,0.5v-0.1C364.5,182.2,364.7,182.1,364.7,181.8z M363.1,186.2c0.4-0.9,0.6-1.8,1.2-2.4
			c0.2-0.2,0.5-0.2,0.6-0.4c0.2-0.2,0.1-0.4,0.5-0.5c0.1-0.1,0.3-0.1,0.4-0.2c0.1,0,0.2,0.1,0.3,0.1v0.2c-1.4,1.3-2.1,3.8-1.8,6.3
			c0.1,0.6-0.2,1.6,0.2,2.2v0.2h-0.2c-0.7-1-1.3-2-1.6-3.4C362.4,187.4,362.9,186.6,363.1,186.2z M360.6,195.8L360.6,195.8
			c-0.5-0.7-1-1.2-1.2-2.2c0.2-0.1,0.5-0.2,0.6-0.4c0.2,0.1,0.2,0.1,0.4,0.2c0.1,0.3,0.1,0.6,0.2,0.8L360.6,195.8L360.6,195.8z
			 M360.7,187.5v0.8c-0.1,0.5-0.6,2.2-0.3,2.7c0,0.9-0.1,1.4-0.4,1.9c-0.2,0.1-0.1,0-0.2,0.1h-0.5c-0.8-4.1,0.2-7.1,2.3-9.8
			c0.1-0.2,0-0.5,0.2-0.6c0.1,0,0.2,0.1,0.3,0.1c0.1-0.1,0.4-0.4,0.5-0.5c0.2,0.1,0.3,0.1,0.5,0.2c-0.7,1.2-1.8,2.7-2.2,4.2
			c0,0.2,0.1,0.3,0.1,0.5C360.9,187,360.7,187.4,360.7,187.5z M360.4,199.3c0.1-0.2,0.1-0.1,0.2-0.3c0.5,0.2,2,2.2,1.7,2.8v0.4
			c-0.9-0.3-1.4-1.8-2-2.5C360.3,199.4,360.3,199.4,360.4,199.3z M362.3,204v0.5c-0.9-0.3-3.1-3-3.2-4.1
			C360.1,200.9,361.5,203.2,362.3,204z M356.1,194.5c-0.2-0.1-0.3-0.3-0.6-0.4c0.3-0.6,0.1-1.6,0-2.3h0.2c0.1,0.6,0.3,1.7,0.5,2.2
			L356.1,194.5L356.1,194.5z M356.1,195.2c0.6,0.3,0.6,0.9,0.9,1.4c0.4,0.6,0.7,1.4,1.2,2.1c0.1,0.1,0.2,0.1,0.4,0.2
			c0.2,0.3,0.1,0.6,0.3,0.8v0.3c-0.3,0-0.1,0.1-0.3,0C357.9,199.6,356.3,196.2,356.1,195.2z M371.4,210.3c-0.7,0-1-0.1-1.2-0.6H370
			c0,0.2,0,0.2,0.1,0.3c0,0.3,0,0.4-0.1,0.5c-3.4-0.1-8-1.5-9.9-3.6c-0.5-0.6-1.3-1.4-1.6-2.2c0-0.3-0.1-0.5-0.1-0.8
			c-0.1-0.2-0.6-0.5-0.8-0.6c0.1-0.1,0.4-0.3,0.5-0.4c0-0.4,0-0.4-0.3-0.5c0.2-0.2,0.4-0.3,0.5-0.5c0.2-0.2,1,0.8,1.2,1
			c0.8,1.1,1.7,1.8,2.7,2.6c0.4,0.4,0.8,0.8,1.2,1.3c0.6,0.4,1.3,0.5,2.1,0.8c0.6,0.2,1.4,0.7,2.1,1l1.6,0.3l0.4,0.4
			c0.2,0,0.4-0.1,0.6-0.1c0.7,0.2,1.5,0.3,2.3,0.3c0.3,0,0.6-0.2,1-0.1c0.2,0.1,0.4,0.2,0.8,0.2v0.1c-0.4,0.1-0.8,0.3-1.2,0.5
			C372.4,210.2,372,209.9,371.4,210.3z M373.9,216.6c-0.9-0.4-1.9,0.5-2.8,0.7c-0.3,0-0.6-0.1-0.9-0.1v0.2c-0.1,0.1-0.3,0.2-0.4,0.2
			H369c-0.4,0.1-1.3,0.5-1.7,0.3h-0.2v-0.3c1.7-0.1,3.2-0.9,4.3-1.5c0.8-0.4,1.7-0.5,2.2-1.2c0.7,0.1,1.1,0.5,1.5,0.8
			C374.9,216,374,215.9,373.9,216.6z M376.1,215.1c-0.4-0.1-0.7-0.4-1.2-0.5c0.1-0.5,0.5-0.5,0.9-0.7c1-0.7,2.2-1.4,3.2-2.2
			c0.2,0,0.3,0,0.5,0.1c0,0.4-0.2,1.5-0.1,1.7c-0.1,0.7-0.6,0.6-1.2,0.8C377.7,214.5,376.9,215.3,376.1,215.1z M378.5,215.3
			C378.4,215.3,378.4,215.3,378.5,215.3c-0.1-0.3-0.1-0.3,0-0.5c0.2-0.1,0.5-0.1,0.7-0.3c0.2,0,0.2,0,0.4,0.1
			c0.1,0.3,0.2,0.4,0.2,0.8C379.3,215.5,378.9,215.4,378.5,215.3z M379.5,210.5c-0.7,0-0.6,0.3-1.2,0.4c0.1-0.4,0.2-0.5,0.5-0.7
			c0-0.2,0-0.4-0.1-0.5c-0.1-0.1,0,0-0.2-0.1c-0.6,0.8-2.7,2.7-3.9,2.7v0.3c-0.4,0.2-1.1,0.2-1.5,0.5c-1-0.1-1.1-0.9-1.6-1.4v-0.2
			c0.6-0.1,1.1-0.2,1.4-0.4l0.3-0.3c0.2,0,0.3,0.1,0.5,0.1c0.2-0.1,0.3-0.3,0.5-0.4h0.5c0.4-0.2,1-0.6,1.4-0.7
			c0.4,0,0.8-0.1,1.3-0.1c0.5-0.2,1.5-0.9,2.1-0.6h0.5C379.6,209.5,379.5,209.9,379.5,210.5z M379.9,213.1c0-0.4,0-1.4,0.1-1.6
			c0.1-0.7,0.8-0.7,1.2-1.2c0.8,0,3,0.2,3.3,0.3h0.2c-0.2,0.6-1.1,0.6-1.5,0.9c-0.1,0.1-0.1,0.3-0.2,0.4c-0.2,0.1-0.5,0.1-0.6,0.3
			c0,0.1-0.1,0.2-0.1,0.3h-0.4c-0.2,0.1-0.5,0.5-0.7,0.6c-0.3,0.1-0.4,0-0.5,0.2C380.3,213.2,380.1,213.1,379.9,213.1z M380.4,215.2
			c-0.1-0.1-0.2-0.3-0.3-0.5c0-0.8,0.3-0.8,0.6-1.3c0.7,0.2,0.6,0.5,0.9,0.6c0.7,0.4,3.4,0.1,3.9-0.2c0.2,0,0.2,0,0.4,0.1
			c-0.3,0.6-3,1.1-3.9,1.4c-0.3,0.1-0.4-0.2-0.7-0.1C381,215.3,380.6,215.4,380.4,215.2z M392.5,214v0.3c-0.8,0.2-1,1-1.6,1.3
			c-0.1,0-0.2-0.1-0.3-0.1c-0.1,0-0.4,0.3-0.5,0.4c0,0.1-0.1,0.2-0.1,0.3c-0.1,0-0.2-0.1-0.4-0.1c-1.3,0.4-3.3,0.9-4.9,1.4
			c-0.8,0.3-2.4-0.9-3.1-0.5c-0.1-0.3-0.1-0.4-0.4-0.5c0.3-0.5,1.1-0.1,1.7-0.3c0.3-0.1,0.8-0.4,1-0.5c0.2-0.1,0.8,0.1,1.4-0.2
			c0.7-0.3,1.7-0.8,2.5-1.1h0.5l0.2-0.4c0.3-0.1,0.5-0.1,0.8-0.2c0.4-0.2,0.7-0.6,1-0.8c0.3-0.2,0.4,0.1,0.6,0
			c0.1-0.2,0.2-0.4,0.4-0.5c0.5-0.4,1.2-0.6,1.7-1c0-0.1,0.1-0.2,0.1-0.3c0.2-0.2,0.5-0.2,0.6-0.4c0.1-0.1,0.1-0.4,0.3-0.5
			c0.6-0.5,1.7-0.9,1.9-1.8h0.2C395.9,209.9,393.5,213.3,392.5,214z M396.4,203.7c-0.3,0.8-0.8,1.4-0.9,2.3c0.3,0,0.8-0.1,1-0.3h0.2
			c-0.3,1.2-1.7,2.8-2.6,3.4c-0.9,0.7-1.6,1.8-2.6,2.4c-0.2,0.1-0.4,0.1-0.6,0.2c-0.8,0.5-1.7,1.1-2.5,1.6c-0.5,0.3-1,0.2-1.4,0.5
			h-0.5v-0.2c1.8-0.4,3.1-2,3.9-3.4c0.2-0.3,0.6-0.6,0.8-0.9c0.7-1.1,1.4-2.5,1.9-3.8c0.4-1,0.4-2.3,0.4-3.6c0-0.3-0.1-0.7-0.1-1
			c0.3-1.7,0.5-3.1,0.5-4.8c0,0,0.1-0.1,0.1-0.1h0.3c0.1,0.1,0.4,1.2,0.5,1.4l0.4,0.4c0.1,0.3-0.2,1.4,0,2c0.5,1.7-0.8,6.2-1.5,7.7
			c-0.3,0.5-0.2,1.2-0.6,1.5c0,0.1,0.1,0.2,0.1,0.3c0.2,0,0.3,0,0.4-0.1c0.8-0.2,1.2-1.8,1.4-2.6c0.3-0.8,0.7-1.5,1-2.3v-0.8
			c0.6-2.4,0.6-6.1-0.6-7.9v-0.2c0.8,0.4,0.8,1.1,1.4,1.8c0.1,0.1,0.4,0.2,0.5,0.4c0.1,0.2-0.1,0.5,0,0.8c0.2,0.5,0.6,0.8,0.6,1.4
			c-0.4-0.1-0.4-0.2-0.8-0.3c0,1-0.2,1.6-0.2,2.4C396.4,202.4,396.6,203.2,396.4,203.7z M397,205c0-0.2,0-0.2,0.1-0.3l0.1-0.1
			c0,0.1,0.1,0.2,0.1,0.4H397z M397.2,200.9c0.1,0.1,0.2,0.2,0.4,0.3v0.2l-0.1-0.1C397.3,201.1,397.3,201.1,397.2,200.9z
			 M397.5,202.5c0-0.3-0.1-0.3,0-0.5v-0.4h0.2c0,0.3,0.1,0.5,0.1,0.8H397.5z M399,195.1c-0.1,0.3,0.1,0.7,0.1,0.8
			c-0.1,0.6-0.6,2.9-0.5,3.2c0,0.4,0,0.6-0.2,0.7v0.1c-0.4-0.2-0.6-1.2-0.8-1.6c-0.2-0.4-0.7-1.3-0.9-1.9c0.1-0.3,0.1-0.5,0.2-0.8
			c0-0.3-0.2-0.5,0-0.9c0.1-0.2,0.4-0.3,0.5-0.5c0.2-0.3,0.3-0.9,0.4-1.3c0-1.1,0.1-2.2,0.1-3.3c-0.1-0.5-0.4-1.3-0.5-1.9
			c0.8,0.3,0.8,1,1.1,1.8c0.2,0.4,0.5,1,0.6,1.5c-0.1,0.4-0.1,0.8-0.2,1.3c0,0.1,0.3,0.4,0.4,0.5C399.5,193.5,399.1,194.6,399,195.1
			z M411.8,168.8c0.1,0,0.1,0.1,0.2,0.1c0,1.5,0,3.8-0.5,5.1c-0.1,0.4-0.6,1-0.8,1.4c-0.3,0.5-0.2,1.1-0.5,1.6
			c-0.3,0.8-1,1.5-1.3,2.3c-0.1,0.3-0.1,0.6-0.2,0.9c-0.2,0.3-0.5,0.7-0.6,1.1v0.6c-0.2,0.1-0.3,0.2-0.5,0.3
			c-0.3,0.4-0.3,0.9-0.5,1.3c-0.6,0.9-1.4,1.7-2.2,2.4c-0.2,0.2-0.7,0.3-0.8,0.5c-0.2,0.3-0.1,0.7-0.4,1c-0.3,0.4-0.7,0.3-1.1,0.5
			c-0.4,0.3-0.5,0.9-0.8,1.3c-0.4,0.4-1,0.7-1.4,1.1c-0.3,0-0.5-0.1-0.8-0.1c-0.1-0.7-0.2-1.4-0.6-1.8v-0.2c0.2,0.1,0.4,0.2,0.6,0.3
			c0.4-0.3,1-0.5,1.3-0.9c0-0.2,0.1-0.3,0.1-0.5l0.9-0.9c0.2-0.3,0.2-0.7,0.5-1c0.2-0.2,0.5-0.3,0.7-0.5c0.3-0.3,0.3-0.7,0.5-1
			c0.2-0.1,0.3-0.1,0.5-0.2c0.6-0.8,1-1.7,1.6-2.3c0.2-0.2,0.5-0.3,0.7-0.5c0.2-0.3,0.3-0.5,0.5-0.8c0.2-0.2,0.4-0.3,0.5-0.5
			c0.1-0.4,0.2-0.7,0.4-1.1c1.2-1.8,2.3-3.7,3.2-5.8C411.5,171.3,411.4,170.1,411.8,168.8z M425.2,188.2c0.8,0.2,0.7,0.5,1.6,0.5
			c0.3,0.9-0.5,2.2-1.1,2.6v0.1h-0.2C425.3,190.5,425.1,188.8,425.2,188.2z M408.7,209.5c0.1,0.1,0.1,0.2,0.2,0.3
			C408.8,209.6,408.8,209.7,408.7,209.5z M410.6,217.6c0.2,0.1,0.1,0,0.2,0.1C410.6,217.6,410.7,217.7,410.6,217.6z M415.6,224.6
			h-0.2v-0.2h0.2V224.6z M364.7,315.1c-0.2-0.1-0.1,0-0.2-0.1C364.7,315.1,364.6,315.1,364.7,315.1z M334.7,325.9h-0.3
			c0.1-0.1,0.2-0.1,0.3-0.2h0.1L334.7,325.9z M334.6,323.5L334.6,323.5c0.1,0.2,0.1,0.1,0,0.2v0.1h-0.1
			C334.5,323.6,334.5,323.5,334.6,323.5z M334.4,324.8L334.4,324.8c0.2,0.3,0.4,0.3,0.5,0.6c-0.2-0.2-0.2-0.3-0.5-0.4L334.4,324.8
			L334.4,324.8z M334.3,330.6L334.3,330.6l-0.1-0.2h0.1V330.6z M334.4,329.7L334.4,329.7l-0.3-0.4c0.1,0,0.2,0.1,0.3,0.1
			L334.4,329.7L334.4,329.7z M334.5,335.6c0.2,0.1,0.1,0,0.2,0.1C334.5,335.7,334.6,335.7,334.5,335.6z M337.2,347.8L337.2,347.8
			l-0.1-0.2h0.1V347.8z M426.8,337.3c0.4,0,0.5-0.2,0.8-0.3l0.1,0.1c0,0.4-0.1,0.4-0.2,0.6c-0.2-0.1-0.1,0-0.3-0.2
			c-0.2,0.1-0.5,0.2-0.7,0.4c-0.1,0.2-0.1,0.6-0.1,0.9c-0.4-0.2-0.2-0.8-0.5-1.2c-0.1,0-0.2-0.1-0.3-0.1c-0.1-0.2,0.1-0.7,0-0.9
			C426,336.7,426.6,337,426.8,337.3z M425.7,332.9h-0.3c0.1-0.2,0.2-0.3,0.3-0.5c0.1,0.1,0.1,0.2,0.2,0.3L425.7,332.9z M425.3,331.5
			c0.2,0,0.2,0,0.3,0.1c0.3,0.1,0.2,0.1,0.2,0.3v0.2c-0.3-0.1-0.7-0.1-0.9-0.3l-0.1-0.1C424.9,331.6,425.2,331.6,425.3,331.5z
			 M422.4,333.5c0.1-0.2-0.2-0.7-0.2-0.8c0.4,0.3,0.4,0.7,0.9,0.8c-0.1,0.2-0.5,0.4-0.8,0.5v0.1c-0.2,0-0.1,0-0.2-0.1
			C422,333.7,422.4,333.6,422.4,333.5z M421.5,337.8c0.1-0.1,1.6-0.6,1.7-0.5c0.2,0,0.5,0.3,0.7,0.4c0.3,0,0.2-0.1,0.5-0.2
			c0,0.3-0.1,0.3,0,0.5v0.4c-0.2-0.1-0.6-0.3-0.8-0.5c-0.4,0.1-0.3,0.1-0.5,0.1c0,0.2,0.1,0.3,0.1,0.5H423c-0.3,0.6-0.1,0.1-0.7,0.5
			c-0.4-0.2-0.3-0.6-0.8-0.8C421.5,337.9,421.5,337.9,421.5,337.8z M420.8,338c-0.1,0.2,0,0.1-0.2,0.3c-0.2,0.1-0.3-0.1-0.3-0.3
			H420.8z M420.1,333.3h0.2c-0.1,0.4-0.1,0.6-0.5,0.7c0,0.3,0.1,0.5,0.3,0.6c-0.3,0.3-0.8,0.3-0.9,0.5H419c0.1-0.6,0.1-0.9-0.2-1.3
			C419.3,333.7,419.8,333.6,420.1,333.3z M417.8,334.3v0.3c-0.4,0-1,0.1-1.2,0h-0.1C416.8,334.3,417.2,334.3,417.8,334.3z
			 M416.7,335.6v0.2h-0.1L416.7,335.6L416.7,335.6z M414.1,334.9h0.3c-0.5,0.2,0.9,1.1,1,1.2c-0.3,0.4-1.4,0.7-2.1,0.7
			c0-0.4-0.1-0.6-0.3-0.8C413.5,335.7,413.8,335.4,414.1,334.9z M411.2,335.2c0.3-0.1,0.6-0.1,0.8-0.3c0.2,0.1,0.3,0.1,0.5,0.1
			c-0.1,0.4-0.1,0.3-0.1,0.6C412.1,335.5,411.9,335.3,411.2,335.2L411.2,335.2z M363.4,322.6c0.2,0.1,0.1,0,0.2,0.1
			C363.4,322.7,363.5,322.7,363.4,322.6z M363.3,298c-0.2-0.1-0.1,0-0.2-0.1C363.3,298,363.2,297.9,363.3,298z M359.5,309.4h0.4
			c0,0,0.1,0.1,0.1,0.1v0.1h-0.5V309.4z M357.6,317.2h0.2c0,0.2-0.1,0.4-0.1,0.5h-0.2C357.5,317.6,357.6,317.4,357.6,317.2z
			 M356.1,337.5h-0.2v-0.2C355.9,337.3,356,337.3,356.1,337.5L356.1,337.5z M355.9,324.4c-0.3-1.1,0.6-2.6,0.4-3.1
			c0-0.4,0-0.3,0.1-0.4c0.3-0.1,0.8-0.8,0.7-1.1c-0.1-0.1,0.4-0.3,0.5-0.5c0.1-0.2,0.7-2.2,0.5-2.5c0.1-0.1,0.1-0.1,0.3-0.1
			c0.1-0.8,0.6-1.5,0.7-2.3c0-0.3-0.3-0.2-0.2-0.5c0.1,0,0.2-0.1,0.3-0.1v-0.5c0.1-0.4,0.3-1.1,0.5-1.4c0.1-0.4-0.3-0.5-0.2-0.8
			c0.1-0.3,0.6-0.8,0.7-1.2c0.4-1.3-0.1-2.2,0.2-3.5c0.2-0.9,0.2-1.8,0.5-2.9c0.2-0.7,0-2.8,0.1-3c0-0.1,0.3-0.1,0.4-0.2
			c0-0.4,0.1-0.7,0.1-1.1c0.3-1.2,0.5-2.6,0.5-3.7h0.3c0.4,1.1,0.1,1.7,0.4,2.5c0.1,0.3,0.4,0.7,0.5,1c0.3,0.6,0,1.5,0.1,2.1
			c0,0.3,0.3,0.6,0.4,0.9c0.3,1.1,0.2,1.7,0.5,2.6c-0.2,0.9,0,2,0.3,2.7c-0.2,0.7-0.2,0.6,0,1.4c0,0.3-0.1,0.5-0.1,0.8
			c0.1,0.9,0,2.5-0.2,3.3c-0.1,0.4,0.1,1.5,0.3,1.6c-0.1,0.2,0,0.1-0.3,0.2c0.1,0.3,0.1,0.3,0.3,0.5c-0.1,0.1-0.3,0.1-0.4,0.2
			c0,0.2,0.1,0.4,0.1,0.6c-0.1,0.2-0.3,0.6-0.3,0.9c0,0.1,0.2,0.4,0.1,0.6c-0.2,0.8-0.3,2.2-0.5,3.1l0.2,0.4c-0.4,1.2-1,2.7-0.8,4.1
			c-0.1,0-0.2,0.1-0.4,0.1c0,0.2,0.1,0.1,0,0.3c0.1,0.3,0.2,0.3,0.5,0.4v0.4c-0.5,0-0.7-0.1-0.9,0.1c-0.4,0.2-0.7,2.5-0.6,3.1
			c0,0.2-0.3,0.8-0.5,1.1c0,0.3-0.1,0.6-0.1,0.9c-0.1,0.1-0.3,0.1-0.4,0.3c0,0.2,0.2,0.2,0.2,0.3c0,0.3-0.3,0.8-0.4,0.9
			c0,0.2,0.1,0.3,0.1,0.5c-0.5,1.1-1.4,2.4-1.5,3.9h-0.3c-0.6-1.3-0.5-3-0.7-4.4c0-0.3,0.2-0.4,0.2-0.5
			C357.2,329.5,356.5,326.9,355.9,324.4z M361.8,329.4c-0.1,0.2,0,0.1-0.2,0H361.8z M353.1,353.7c0-0.2,0.2-0.1,0.3-0.4
			c0.4-0.9,0.4-1.9,0.8-2.8l0.5-0.5c0.3-0.5,0.3-0.9,0.5-1.4c0.1-0.1,0.3-0.3,0.4-0.5c0.2-0.5,0.1-0.9,0.4-1.5
			c0.1-0.3,0.5-0.6,0.6-0.9v-0.5c0.1-0.1,0.2-0.2,0.4-0.3c0-0.1-0.3-0.3-0.2-0.5c0.1-0.2,0.5-0.5,0.6-0.7c0.3-0.5,0.3-1.4,0.5-1.7
			c0.1-0.3,0.6-0.8,0.7-1.2c0.2-0.6,0-1,0.3-1.5c0.1-0.3,0.5-0.7,0.5-0.8c0.2-0.4,0.1-1,0.3-1.4c0.3-0.7,0.8-1.5,1.1-2.2
			c0.5-0.9,0.4-2,0.7-3c0.3-0.8,0.9-1.6,0.9-2.7c0,0,0.1-0.1,0.1-0.1c0.7,0.1,0.8,0.6,1.3,0.9c0.6,0.4,1.3,0.3,2.1,0.6
			c0.3,0.1,0.6,0.5,0.9,0.5c0.1,0,0.4-0.2,0.6-0.1c0.1,0.1,0.1,0.2,0.2,0.3c0.6,0.3,1.5,0.2,2.2,0.5c1.1,0.5,2.5,1,3.7,1.4
			c0.4,0.1,0.9,0.2,1.3,0.3c0.2,0,0.4-0.1,0.5-0.1c1.5,0.4,3.4,0.8,4.8,1.4c1.5,0.7,4,1.2,5.5,1c0.5-0.1,1.5,0.4,2,0.2
			c0.2,0,0.2,0,0.4,0.1c-0.1,0.3-0.3,0.7-0.1,1c0.3,0.9,1.7,0.2,2.3,0.8c0.5-0.1,0.4-0.4,0.9-0.4c0-0.2-0.1-0.4-0.1-0.6
			c-0.5-0.2-1.2-0.3-1.7-0.5c0.2-0.3,2.7-0.4,3.2-0.1h1.3c-0.1,0.2,0,0.1-0.2,0.3c0,0.7,0.3,0.9,0.5,1.4c0.4-0.1,0.7,0,1.3,0
			c0.1-0.1,0.2-0.2,0.4-0.3c-0.1-0.6-0.4-1-0.8-1.3v-0.1c0.7,0,4.4,0.1,4.7-0.1h0.5c0.1,0.1,0.1,0.4,0.2,0.5
			c0.1,0.2,0.4,0.2,0.5,0.4c0.6-0.1,1.1-0.3,1.8-0.4c0-0.2,0-0.2,0.1-0.3c0.3-0.6,1.4-0.2,2.1-0.4c0.3,0.4,0.7,0.5,1,0.9
			c0.3-0.1,0.4-0.1,0.5-0.3c0.1-0.1,0.1-0.5,0.1-0.9c0.4-0.1,1.7-0.2,1.8-0.1c0.3,0.1,0.3,0.3,0.4,0.5c0.3,0.1,0.7,0.3,1.1,0.1
			c0.5-0.2,0.3-0.6,0.5-0.9c0.1,0,0.4,0,0.5-0.1h0.6c-0.1,0.2-0.3,0.3-0.5,0.4c-0.1,0.3-0.1,0.6-0.3,0.7c0,0.7,0.3,1,0.7,1.3
			c-0.3,0.4-2.4,0.9-2.9,1H407c-0.3,0.1-0.9,0.3-1.3,0.4h-1c-2.1,0.5-4.6,0.7-6.5,1.4c-0.2-0.3-0.3-0.5-0.4-1
			c-0.5-0.1-1.2,0-1.5,0.4c0,0.1-0.1,0.6,0,0.7c0,0.2,0,0.2-0.1,0.4c-1.3,0.3-2.8,0.3-4,0.6c-0.5,0-1,0.1-1.5,0.1
			c-4.9,1.3-10.1,1.5-14.7,3c-1.1,0.3-2.2,0.1-3.1,0.5c-0.3,0.1-0.8,0.4-1.1,0.5H371c-0.3,0.1-0.9,0.2-1.3,0.4
			c-0.1,0.1-0.3,0.3-0.5,0.4h-0.6c-1.1,0.4-2.6,0.8-3.6,1.3c-0.6,0.2-1.2,0.2-1.8,0.5c0,0.1-0.1,0.2-0.1,0.3c-0.3,0.2-0.7,0-1.1,0.2
			c-0.3,0.1-0.6,0.5-0.9,0.6c-0.4,0.2-0.7,0.1-1,0.3c-0.7,0.4-1.5,1-2.2,1.4c-0.2,0.1-0.4,0.1-0.6,0.2c-0.2,0.2-0.8,1-1,1.1
			c-0.4,0.3-0.9,0.3-1.3,0.5C354.4,352.9,353.9,353.5,353.1,353.7L353.1,353.7z M420.7,349.6c-0.2,0.1-0.4,0.3-0.5,0.5
			c-0.4-0.2-0.7-0.5-1.2-0.6l0.1-0.1c0.1-0.2,0.2-0.2,0.4-0.4C419.9,349.3,420,349.5,420.7,349.6L420.7,349.6z M422,349
			c-0.3,0.1-0.6,0.1-0.8,0.5H421v-0.1l0.5-0.5L422,349L422,349z M421.4,348.7v-0.5l0.2,0.2v0.4H421.4z M420,345.6
			c-0.6,0.2-1.2,0.2-1.6,0.5c-0.5-0.3,0-0.5-0.2-1c-0.1-0.2-0.6-0.8-0.7-0.9c-0.2-0.1-0.2,0-0.5,0c0.1,0.4,0,0.5-0.4,0.7
			c0,0.7,0.2,1.2,0.5,1.5c0,0.1-0.1,0.2-0.1,0.3c-0.6,0.1-1,0.4-1.5,0.5c-0.1-0.5-0.3-0.5-0.5-0.8c-0.3,0-0.8,0-1-0.1h-0.2
			c0,0.5-0.1,1.2,0.1,1.4c-0.2,0.3-1.1,0.6-1.5,0.6c0-0.2,0-0.2-0.1-0.3c-0.2-0.4-0.5-0.4-0.8-0.6c-0.7,0.1-0.7,0.4-1.1,0.7
			c0,0.2,0,0.2,0.1,0.3v0.5c-0.1-0.1-0.2-0.1-0.4-0.2c0-0.2,0-0.1,0-0.4c-0.4,0.1-1,0.2-1.5,0.3c0,0.3-0.1,0.6-0.1,0.9
			c-0.4,0.1-3.1,1-3.3,1.2h-0.5c0.1-0.2,0.1-0.3,0.1-0.5c0.3,0,0.5,0,0.6,0.1c0.5,0,0.7-0.4,0.5-0.7c0-0.6-0.3-0.8-0.7-0.9
			c-0.1-0.1,0,0-0.2-0.1c-0.3,0.3-0.5,0.2-0.5,0.8h-0.2c-0.1-0.2-0.2-0.5-0.3-0.7c-0.6,0-1.1,0.4-1.3,0.8c-0.2,0.4,0.3,0.9,0.5,1.2
			c0.3,0.1,0.7,0.2,1.3,0.2v0.1c-0.8,0.4-2,0.9-2.9,1c0-0.7,0-1.3-0.3-1.8c-0.3-0.1-0.7-0.1-0.8-0.1c-0.4,0.2-0.4,0.6-0.7,0.8
			c0,0.6,0.3,1.1,0.7,1.4v0.3c-0.9,0.3-1.9,0.8-2.9,0.9c0-0.2,0-0.2,0.1-0.3c0-1.1-0.8-1.4-1.5-0.9c-0.1,0.2,0,0.1-0.1,0.2
			c0,0.8,0.2,1,0.7,1.3l-0.1,0.1c-0.4,0.3-1,0.2-1.5,0.4c-1.6,0.6-4,1-5.8,1.5h-0.6c-0.6,0.2-1.4,0.6-1.9,0.8h-0.5
			c-1.1,0.3-2.4,0.6-3.5,1.1c-0.7,0.3-1.3,0.9-1.9,1.2c-0.4,0.2-0.8,0-1.2,0.2c-1.7,0.5-3.4,1-5.1,1.7c-0.7,0.3-1.5,0.9-2.2,1.4
			c-0.4,0.3-0.9,0.2-1.3,0.5c-0.9,0.5-1.9,1.2-2.8,1.8c-0.4,0.3-0.9,0.3-1.4,0.6c-0.1,0.2-0.2,0.3-0.4,0.5c-0.3,0.1-0.6,0.2-0.9,0.3
			c-0.3,0.2-0.4,0.6-0.6,0.7c-0.7,0.4-1.4,0.5-2.1,0.9c-0.2,0.1-0.3,0.5-0.5,0.5h-0.5c-0.4,0.3-0.8,0.8-1.2,1.1
			c-1.2,0.9-2.4,1.6-3.6,2.4c-0.2,0.2-0.4,0.5-0.5,0.7c-0.5,0.4-1.4,1-1.8,1.5c-1,1.4-2.1,2.9-3,4.4c-0.4,0.7-0.3,1.7-0.8,2.3v0.1
			c-0.4-0.3-0.1-0.7-0.2-1c-0.1-0.1-0.2-0.1-0.3-0.2c-0.2-0.4-0.2-1.3-0.3-1.7c0-0.5-0.1-1-0.1-1.5c-0.1-0.3-0.4-0.8-0.3-1.4
			c0,0,0.2-0.5,0.2-0.5c-0.6-3.6,0-7.5,0.7-10.5c0-0.2-0.1-0.5-0.1-0.7c0-0.6,0.2-0.9,0.3-1.4c0-0.2-0.1-0.4-0.1-0.5
			c0.1-0.3,0.4-0.7,0.5-0.9v-0.8c0.1-0.2,0.3-0.5,0.4-0.7v-0.5c0.1-0.4,0.7-1.2,0.5-1.8c-0.2-1.2,1.9-1.7,2.7-2.3
			c0.4-0.3,0.7-0.5,1.2-0.7l0.9-0.9c0.7-0.4,1.3-0.6,2-1c0-0.1,0.1-0.2,0.1-0.3h0.5c0.1-0.1,0.2-0.4,0.4-0.5h0.5
			c0.5-0.2,1.2-0.9,1.8-1.1c0.2,0,0.5-0.1,0.7-0.1c0-0.1,0.1-0.2,0.1-0.3c0.3-0.2,1.2-0.1,1.5-0.3c2.5-1.2,5.6-1.8,8.5-2.6
			c0.9-0.2,1.9-0.2,2.6-0.4c0.2,0,2.3-0.3,2.3-0.3c0.5,0.2,1.2,0.4,2,0.2c1.3-0.3,3.3-0.5,4.5-0.7c0.3,0,0.6,0.1,0.9,0.1
			c0.9-0.2,2.3-0.4,2.9-0.6c0.7,0.1,1.1,0.1,1.7-0.1c0.5,0,1,0.1,1.4,0.1c2-0.8,4.9-0.8,7-1.3c0.6,0,1.1-0.1,1.7-0.1
			c0.8-0.2,2-0.3,2.9-0.5c0.2,0,0.5,0.1,0.7,0.1c1.8-0.4,3.7-0.6,5.4-1.3c0.6-0.1,1.1-0.1,1.7-0.2c0.6-0.2,2-0.6,2.4-0.9h0.4
			c0,0.2-0.1,0.3,0,0.5c0.1,0.4,0.3,0.5,0.7,0.6c0.1,0.1,0,0,0.2,0.1c0.2-0.2,0.3-0.5,0.5-0.7c-0.1-0.5-0.3-0.5-0.5-0.8h-0.1
			c0.3-0.2,0.7-0.2,1-0.4c1,0.2,1.5,1.4,1.6,2.5c-0.3,0.1-0.4,0.1-0.5,0.3c-0.1,0.1-0.2,0.4-0.3,0.5c0,0.4,0.1,0.5,0.2,0.7
			c0.7,0.1,1-0.1,1.4-0.4c0.1-0.5-0.1-0.5-0.2-1h-0.3c0.1-0.2,0.3-0.1,0.5-0.3c0.1-0.2,0.1-0.4,0.3-0.5h0.2c0.1-0.1-0.1-0.4,0.1-0.5
			h0.4c-0.2-0.6-0.8-1-1.2-1.4l-0.1-0.1c0.1,0,0.4-0.1,0.5-0.2h0.1c-0.1-0.3-0.3-0.2-0.4-0.6c0.4-0.1,0.6-0.2,0.9-0.4
			c0.2,0.7,0.2,0.7,0.5,1.2h0.6c0,0.6,0.1,0.8,0.4,1.2c0.5-0.1,0.9-0.4,1.4-0.6c0-0.2,0.1-0.4,0.1-0.7c0.2,0.1,0.2,0.5,0.5,0.6
			c-0.3,0.3-0.7,0.6-0.9,1l0.4,0.4c0,0.9-0.3,1.2-0.5,1.7c0.2,0.3,0.5,0.6,0.7,0.8c0.4,0,0.6-0.1,0.8-0.4c0.2,0.1,0.2,0.1,0.4,0.2
			c-0.1,0.5-0.7,0.4-1.1,0.6C421.6,344.8,420.7,345.3,420,345.6z M423,350L423,350c-0.4-0.2,0-0.2-0.2-0.5c-0.2-0.4-0.6-0.2-0.6-0.5
			c0.7,0.1,0.8,0.2,1.4,0.3l0.1,0.1C423.6,349.6,423.3,349.9,423,350z M423.5,342.2c0.1-0.3,0.1-0.3,0.2-0.6h0.3
			c0.1-0.5,0.3-0.7-0.2-1c0.1-0.4,0.5-0.7,0.7-1c0.4,0,0.4,0,0.5,0.4c0.1,0.2-0.1,0.4-0.3,0.5c0.1,0.3,0.2,0.3,0.4,0.5v0.2h-0.5
			c-0.1,0.5-0.4,0.6-0.5,1.2c-0.2,0-0.3,0-0.4-0.1L423.5,342.2L423.5,342.2z M423.8,348.8c-0.1-0.2,0-0.1,0-0.4c0.2,0.1,0.1,0,0.4,0
			L423.8,348.8z M425,348.4h-0.5c0.1-0.6,0-0.8-0.1-1.4c-0.3,0-0.2,0-0.5,0c0-0.3,0.1-0.3,0.2-0.5h0.3c0.1,0.1,0.1,0.3,0.2,0.5
			c0.1,0.2,0.6,0.3,0.7,0.5c0.2,0,0.3,0,0.4-0.1h0.2c-0.1,0.5-0.4,0.6-0.6,0.9C425,348.4,425.1,348.5,425,348.4z M426.9,349.8
			c-0.1,0.1-0.1,0.4-0.1,0.6c-0.6,0-0.7,0.2-1,0.5c-0.2-0.3-0.4-0.6-0.7-0.8c0.1-0.3,0.3-0.8,0.5-1.1c0.1-0.1,0.5,0.1,0.6,0.3
			c0.5,0,0.6,0,0.7-0.4h0.2c0,0.1,0.1,0.2,0.1,0.3h0.1C427.2,349.5,427,349.5,426.9,349.8z M427,347.2c-0.2,0.2-0.1,0.3-0.5,0.5
			l-0.3-0.3c-0.3-0.1,0.8-0.5,0.9-0.6c0.2,0.1,0.3,0.2,0.5,0.3C427.4,347.1,427.1,347.1,427,347.2z M427.7,345
			c-0.8,0.1-0.7,0.6-1.2,0.8c-0.3,0.2-0.4-0.1-0.6,0.2h-0.2v-0.2c0.2-0.1,0.5-0.2,0.7-0.3c0-0.2,0-0.2-0.1-0.3
			c0.2-0.3,0.8-0.5,1.4-0.5L427.7,345L427.7,345z M426.9,342.2c-0.2,0-0.5-0.1-0.7-0.1l-0.1-0.1c0-0.7,0.3-0.6,0.5-1.1
			c0.5,0.3,0.7,0.6,1.3,0.5C427.5,341.8,427.1,341.8,426.9,342.2z M428.6,347.4h-0.3v-0.2C428.4,347.2,428.5,347.3,428.6,347.4
			L428.6,347.4z M429.5,340.3c-0.4-0.1-0.9-0.5-1.2-0.7h-0.2c0.1-0.1,0.5-0.2,0.6-0.3c0-0.3,0-0.6-0.1-0.8c-0.1-0.3-0.3-0.1-0.5-0.3
			H428c0.2-0.3,0.3-0.1,0.7-0.1V338c0.1,0,0.2,0.1,0.4,0.1c0.1,0.4,0.2,1.3,0.5,1.6L429.5,340.3L429.5,340.3z M430.6,345.9
			c0.1-0.2,0.6-0.1,0.8-0.5h0.1c0.1,0.3,0.1,0.3,0.2,0.6C431.1,346.1,430.9,346,430.6,345.9z M430.5,343.4L430.5,343.4
			c0.2-0.4,0.3-0.3,0.5-0.5h0.4c0.1,0.2,0.2,0.2,0.3,0.5h0.1v0.2C431.2,343.4,431.1,343.4,430.5,343.4z M432.7,351.4
			c-0.3-0.4-0.3-1.1-0.3-1.7c0.3,0.3,0.5,0.8,0.7,1.2C433.1,351.1,432.9,351.2,432.7,351.4z M432.7,349h-0.2
			c0.1-0.4,0.3-0.6,0.5-0.7c-0.1-0.2-0.2-0.5-0.3-0.6c-0.4-0.3-0.9-0.1-1.3-0.3c-0.2-0.1,0,0,0.1-0.2c0.5,0,0.9,0.3,1.3,0.1
			c0.2,0,0.2,0,0.3,0.1c0.3,0.4,0.2,0.9,0.6,1.3v0.2C433.3,348.6,432.9,348.6,432.7,349z M431.8,343.9c0.1,0,0.1,0.1,0.2,0.1v0.2
			C431.7,344,431.8,344.2,431.8,343.9z M434.7,351.8c-0.4-0.2-0.4-0.7-1-0.8v-0.2c0.1,0,0.4,0.1,0.5,0.2c0.2,0.2,0.3,0.4,0.5,0.6
			L434.7,351.8L434.7,351.8z M435.2,342.8v1.5H435c-0.4-1.1-0.6-3-1.1-3.7c0.4-0.6,0-0.3,0.1-0.8c0,0,0.1-0.2,0.1-0.4
			c-0.2-0.7-0.8-1.4-1.1-2.1c-0.1-0.3,0-0.6-0.1-0.8c-0.1-0.1-0.4-0.2-0.5-0.4c-0.2-0.4,0.2-0.9,0.1-1.1c-0.1-0.1-0.2-0.1-0.4-0.2
			c0-0.2,0.1-0.3,0.1-0.5c-0.1-0.1-0.3-0.1-0.4-0.3c-0.2-0.5,0.1-1-0.2-1.5c-0.1-0.1-0.6-1-0.6-1.2c-0.1-0.3,0.2-0.3,0.3-0.5
			c-0.2-0.6-0.2-1.6-0.5-2.2c-0.1-0.4-0.4-0.4-0.6-0.7c-0.2,0-0.4,0-0.5,0.1H429c-1-4.8-0.1-9.5,1-13.6v-1.2
			c0.2-0.9,0.2-1.4,0.4-2.3c0-0.1-0.1-0.2-0.1-0.4c0.2-0.5,0.3-1.3,0.5-1.9c0-0.2-0.1-0.3-0.1-0.5c1-3.3,1.3-7.1,1.8-10.7h0.2
			c0.1,0.6-0.2,1.3,0.1,2.2c0.4,1.4,0.5,2.7,0.8,4.2c0.2,0.8-0.1,1.8,0.2,2.8c0.1,0.4,0.4,1.1,0.5,1.5c0,0.4-0.1,0.7-0.1,1.1
			c0.3,1.4,0.9,2.9,1.1,4.2c0,0.3-0.2,0.4-0.1,0.7c0.1,0.3,0.3,1,0.4,1.3c0,0.1-0.1,0.2-0.1,0.4c0.2,0.7,0.5,1.7,0.5,2.4
			c0.2,0.2,0.3,0.3,0.5,0.5c0.1,0.3-0.1,1.1,0.1,1.6c0.4,1.3,0.7,3.8,0.6,5.1c0,0.4,0.2,1.1,0.1,1.6c-0.2,0.9-0.5,2.7-0.7,4.2
			c-0.1,0.5,0.2,1.3,0.1,1.9c-0.3,1-0.5,2.3-0.7,3.3c-0.1,0.4,0.1,0.7,0.2,1c0.1,0.8-0.2,2-0.4,2.6
			C435.3,341.1,435.6,342.1,435.2,342.8z M436.4,359.2c-0.2-0.2-0.7-0.3-0.9-0.5c-0.2-0.3,0.2-0.7,0.3-1.3h0.3v-0.2
			c-0.4-0.2-0.6-0.5-1.2-0.5l0.9-0.9c0-0.3,0-0.5-0.2-0.7v-0.5h0.2c0.4,1.8,0.9,3.1,0.8,5.1C436.4,359.6,436.5,359.4,436.4,359.2z
			 M358,183.8h-0.3c-0.1,0.2-0.1,0.2-0.3,0.4v0.5h0.3C357.8,184.3,357.9,184.3,358,183.8z M394.1,318.7c0.2,0.7,0.3,1.9,0.5,2.7
			c0,0.3-0.1,0.6-0.1,0.8c0,0.2,0.1,0.4,0.1,0.6c0,0.6,0,1.4-0.2,2.1c-0.2,0.9,0.1,1.9,0.2,2.4c0.1,0.4-0.1,0.7-0.2,0.9
			c-0.1,0.6,0.1,1.8,0.2,2.3c0.2,0,0.3,0,0.4,0.1c0.6,0,0.6-0.1,0.9-0.4c0-0.5-0.2-0.7-0.3-1.1c0-0.2,0.1-0.5,0.1-0.7
			c-0.2-1,0-2.2-0.2-3.2c-0.1-0.6,0.2-1.4,0.3-1.8c0.1-0.3,0-1.1-0.1-1.4c0-0.2,0.1-0.4,0.1-0.5c-0.6-2.8-0.5-5.8-0.2-8.5
			c0.1-0.6-0.1-2-0.2-2.6c0-0.3,0.3-1.5,0.4-1.9c0.1-0.7-0.1-2.2,0.1-3.1c-0.1-0.9-0.2-1.7-0.3-2.6l0.3-5.4c0.2-1.3-0.4-2.5-0.3-3.5
			c0.2-1.6,0-3.8,0.4-5.7c0.1-0.4-0.2-1.2-0.1-1.5c0.2-1.1-0.3-2.8-0.2-3.4c0.4-2.3,0.6-5.3,0.4-8.5h-0.5v-0.4
			c0.3,0.1,0.2,0,0.3,0.3h0.2c0-4,0.3-6.8,0-10.3c-0.1-1.1,0.1-3.2-0.3-3.5c0.5-0.7,0-1.3,0.2-2c0.3-1.1,0.3-2.4,0.3-3.2
			c0-1.2,0.4-2.8,0.3-3.8c-0.1-0.6,0.4-0.8-0.1-1.1c0.1-0.1,0.1-0.1,0.3-0.1c0-0.2-0.1-0.3,0-0.5v-0.8c-0.2,0.1-0.1,0-0.2,0.1h-0.3
			c0.1-0.1,0.4-0.2,0.5-0.4v-2.7c0.3-1.2,0.1-4.4-0.1-5.5c-0.1-0.6,0.3-1.4,0-1.9c0-0.1-0.1-0.2-0.1-0.3c-0.2,0-0.4,0.1-0.6,0.1
			c0.1,0.9,0,1.3-0.2,2.1c-0.1,0.4,0.1,0.7,0.2,0.9c0.1,0.5-0.1,0.9-0.2,1.2c-0.2,0.9,0.3,1.7,0.2,2.4c-0.3,1.3-0.2,2.4,0.1,3.4
			h-0.3c0,1.5-0.1,2.8-0.3,4.1c0,0.3,0.2,1.2,0.2,1.3c0,0.1-0.3,0.3-0.3,0.4c0,0.3,0.1,0.7,0.1,1c-0.1,0.4-0.2,1.2-0.3,1.5v1.4
			c-0.3,1.3,0,2.7-0.2,3.7c-0.1,0.8,0.4,3,0.1,3.6c0.1,0.3,0.2,0.4,0.5,0.5c-0.5,0.7-0.2,1.5-0.4,2.6c-0.1,0.7,0,1.5-0.2,2.5
			c-0.2,0.9,0.2,1.7-0.2,2.5c0.2,0.2,0.2,0.3,0.5,0.4c-0.1,0.3-0.2,0.3-0.3,0.5c-0.2,0.6,0.2,0.9,0.1,1.4l-0.2,0.5
			c0,0.2,0.2,0.4,0.2,0.7c0,0-0.2,0.4-0.2,0.5c0.1,0.4,0.2,1.7,0.1,2.5c-0.1,0.8-0.3,2.4-0.3,3.6c0,1,0.3,2.2,0.1,2.9v1h-0.2
			c-0.1,0.2,0.2,0.3,0.2,0.4c0.1,0.5-0.1,1.3-0.1,1.4c-0.2,1.2,0.1,2.3,0,3.2c0,0.1-0.2,0.6-0.2,0.8c0,0.3,0.4,2.3,0.4,2.3
			s-0.3,0.1-0.3,0.2c0.2,0.9,0.1,1.7,0,2.6c0,0.2,0.2,0.3,0.2,0.5c-0.1,0.7-0.1,1.9-0.2,2.4c-0.1,0.5-0.3,1.3-0.2,2
			c0.1,0.2,0.3,0.7,0.4,0.8c0,0.2-0.2,1-0.2,1.1c0,0.6,0.1,1.2,0.1,1.8c-0.2,0.7-0.2,1.8-0.1,2.3c-0.1,0.5-0.1,0.9-0.2,1.4
			c0,0.2,0.1,1,0.1,1.3c-0.1,0.1-0.3,1.8-0.2,2.5c0.1,0.6,0,2.4-0.1,3.3C394.2,318.3,394,318.4,394.1,318.7z M396.3,246.9
			c0.1,0,0.2,0.1,0.3,0.1v0.1h-0.3V246.9z M395.6,270.4L395.6,270.4l0.1,0.2h-0.1V270.4z M395.8,274.1L395.8,274.1
			c-0.2,0-0.2,0-0.3-0.2C395.6,274,395.7,274.1,395.8,274.1z M395.3,306.3c-0.2-0.1-0.1,0-0.2-0.1
			C395.3,306.3,395.3,306.2,395.3,306.3z M373.2,285.7c-0.3-0.3-1.4-0.2-2-0.4c-0.6-0.1-2.8-0.3-3-0.1c-0.1-0.1-0.1-0.1-0.1-0.3
			c-0.6,0-1.5-0.2-1.8-0.5c-0.4,0.1-0.4,0.1-0.5,0.5c-0.1,0.2,0,0.3,0.1,0.5c0.2,0.6,1.9,0.9,2.3,1c0.3,0,0.6-0.1,0.9-0.1
			c0.1,0,0.5,0.3,0.7,0.3c0.1,0,0.4-0.2,0.5-0.2c0.1,0,0.2,0.3,0.2,0.3h1.1c0.1,0.1,0.1,0.1,0.2,0.2c0.3,0.1,0.3-0.3,0.7-0.2
			c2.4,0.9,7,0.3,8.9-1c3.3-2.3,3.9-10.4,3.3-14.1c-0.2-0.9-0.1-1.7-0.2-2.3c0-0.5-0.1-1.1-0.1-1.6c-0.1-0.4-0.4-1.2-0.5-1.7v-0.7
			c-0.1-0.4-0.5-1.1-0.6-1.5c-0.1-0.3,0.1-0.6,0-0.7c0-0.6-0.2-0.7-0.4-1c-0.2,0-0.2,0-0.3,0.1h-0.2c0,1.2,0.3,3.1,0.1,3.5
			c0.4,0.5,0.6,1.5,0.7,2.3c0.1,0.5,0.2,1.6,0.2,2.3c0,0.3-0.1,1,0,1.5c0.1,0.3,0.2,1,0.3,1.4c0,0.2-0.1,0.4-0.1,0.5
			c0.2,0.8,0.2,1.6,0.2,2.4c0,0.2,0.1,0.4,0.1,0.5c0,0.1-0.2,0.4-0.3,0.5c-0.1,0.4,0.1,1.3-0.1,1.8c-0.1,0.1-0.2,0.1-0.3,0.2v0.7
			c-0.1,0.3-0.3,1.3-0.5,1.8c-0.3,0.6-0.9,1.1-1,1.9h-0.4c0,0.3-0.1,0.3,0,0.4c-0.2,0.4-0.9,0.8-1.4,0.9v0.3c-0.5-0.1-3.1,0.5-4,0.7
			c-0.5,0.1-1.7-0.2-2.2-0.3h-0.5C373.3,285.5,373.4,285.8,373.2,285.7z M370.1,285.4h0.3C370.2,285.5,370.2,285.5,370.1,285.4z
			 M383.9,267.5v-0.2h0.1L383.9,267.5L383.9,267.5z M405.8,276.2c0,0.2,0.2,0.6,0.2,0.7c0,1.9-0.3,3.7,0.1,5.2v1.2
			c0.6,1.6,1.5,2.4,3.3,2.8c0.7,0,1.4-0.1,2.2-0.1c0.7,0.2,3.3,0.5,4.1,0.2c1.5-0.6,3-1.6,4.1-2.6c0-0.1,0.2-0.4,0.3-0.6l-0.2-0.2
			c-0.8,0.1-1,0.5-1.9,0.5v0.4c-0.7,0.3-1.8,1.1-2.4,1.3c-0.4,0.1-1.3,0-1.6,0.1c-0.6,0.1-1.2-0.2-1.7-0.4c-0.3-0.1-0.7,0.1-0.8,0.1
			c-0.8,0.1-2.6-0.2-3.2-0.6c-1-0.9-0.5-2.3-0.9-3.9c-0.2-0.8-0.1-1.7,0-2.4c0.1-0.7-0.1-2,0-2.5c0.3-1.8,0.5-3.3,0.5-5.3
			c0-1.5,0.9-4.6,0.2-5.6c0-0.3-0.1-0.3-0.2-0.5h-0.3c-0.1,0.4-0.3,0.2-0.4,0.5c-0.2,0.3,0,0.9-0.1,1.1c-0.1,0-0.1,0.1-0.2,0.1
			c0,0.1,0.2,1.3,0.1,1.7c-0.1,0.2-0.3,0.4-0.2,0.8c0.1,0.1,0.1,0.1,0.2,0.2c0,0.1-0.4,1.9-0.5,2.2c-0.1,0.3,0.1,0.6,0.1,0.6
			c0,0.4-0.1,1.3-0.1,1.8C406.4,273.8,406,275.3,405.8,276.2z M338.4,276c0.3,0.1,0.2,0.1,0.5,0.2v-1.1c-0.2,0-0.2,0-0.3-0.1
			c-0.3,0-0.4,0-0.5,0.1v1.2h0.3V276z M339,276.4c-0.2,0-0.2,0-0.3,0.1h-0.4c-0.1,0.5-0.2,1.1-0.2,1.8c0.4,0,0.3,0.1,0.9,0.1
			C339,277.7,339,277.1,339,276.4z M338.5,278.1c0-0.1-0.1-0.2-0.1-0.3C338.6,278,338.5,277.9,338.5,278.1L338.5,278.1z
			 M338.7,283.1c0.2-1.4,0.4-3,0.4-4.4h-0.6v-0.3h-0.3c0,0.5,0.1,1.1,0.4,1.4v0.2c-0.2,0-0.3-0.1-0.5-0.1c0,0.4,0.1,0.5,0.3,0.7
			c-0.1,0.1-0.1,0.1-0.3,0.1c0,0.4,0,0.3,0.3,0.5c-0.1,0.4-0.1,0.2-0.4,0.3c-0.1,0.8-0.1,1.1-0.1,2
			C338.3,283.3,338.4,283.2,338.7,283.1z M338.4,284h0.4v-0.3h-0.1c-0.1-0.1-0.1-0.1-0.3-0.1V284z M336.6,296.2
			c0.1,0.2,0.2,0.4,0.3,0.6h0.3c0.1-0.8,0.2-1.6,0.3-2.3h-0.3c0,0.3-0.1,0.7-0.1,1h-0.3c0-0.4,0.1-0.3,0.2-0.4
			c0.2-0.4-0.2-0.7-0.1-0.9c0-0.5,0.1-0.8,0.2-1.2h0.2c-0.2,0.4-0.3,0.8-0.3,1.3c0.3-0.1,0.2-0.1,0.5-0.2c0.1-1,0.3-1.2,0.3-2.3
			h-0.3c0.1-0.1,0.1-0.1,0.3-0.1c0-0.2,0-0.2,0.1-0.3c0-0.7,0-1-0.3-1.4c-0.1-0.1,0-0.2,0.1-0.5c0.1,0,0.2,0.1,0.4,0.1
			c0-0.2,0-0.3,0.1-0.4c-0.1-0.1-0.1-0.1-0.3-0.1c0.1-0.1,0.1-0.1,0.3-0.1c0-1.4,0.4-2.9,0.5-4.3h-0.3v-0.3h0.3v-0.5
			c-0.3,0.1-0.3,0.1-0.5,0.3c0-0.2-0.1-0.3-0.1-0.5h-0.2c-0.2,0.8-0.5,3.4-0.3,3.7c-0.1,0.2-0.1,0.1-0.3,0.3c0,0,0.1,0.1,0.1,0.1
			h-0.1v0.2h0.5v0.3c-0.2-0.1-0.2-0.1-0.5-0.2c0,0.3,0,0.3,0.2,0.5c-0.1,0.1-0.2,0.1-0.4,0.2c0,0.7-0.3,1.7,0,2.2
			c-0.2,0.2,0,0.1-0.3,0.1c-0.1,0.3,0,0.8-0.1,1.3c-0.3,1.2-0.5,2.8-0.5,3.9C336.6,296.2,336.5,296.2,336.6,296.2z M338.1,285.2
			L338.1,285.2l0.1,0.2h-0.1V285.2z M337.7,291.3c-0.2,0.1-0.1,0.1-0.3,0H337.7z M337.5,292.3v0.2h-0.2l-0.2-0.4
			C337.2,292.2,337.2,292.2,337.5,292.3z M336.4,304.7c0.1,0.2,0,0.2,0.3,0.2c0.1-0.9,0-2.8,0.2-3.4c0.2-0.5-0.3-0.8-0.2-1.2
			c0.3-0.8,0.5-2.2,0.5-3.2h-0.4c0-0.2,0.1-0.3,0.1-0.5c-0.2-0.1-0.2-0.1-0.4-0.3h-0.2c-0.4,2.4-0.4,5.4-0.4,8.6
			C336.3,304.9,336.2,304.8,336.4,304.7z M335,317.8c0.4,0,0.5,0,0.6-0.2c0.1-0.1,0-0.4-0.3-0.5c0.1-0.1,0.1-0.1,0.3-0.1
			c0-0.9,0.4-3.3-0.1-3.5v-0.3c0.2,0.1,0.1,0,0.2,0.3h0.3c0-0.8,0.1-1.3,0.3-2.1v-1.4c0.1-0.2,0.3-0.8,0.4-1.1
			c0-0.3-0.2-0.1-0.2-0.4c0.1-0.6,0.2-1.7,0.3-2.2c0-0.3-0.3-0.3-0.3-0.5h0.2V305h-0.3c0,0.2-0.1,0.3,0,0.5v0.2h-0.1
			c0-0.2-0.1-0.4-0.1-0.6c-0.4,0.1-0.4,0.3-0.6,0.5c0.3,0.9-0.5,3.6-0.1,4.2c-0.1,0.1-0.1,0.1-0.3,0.1c0.1,0.9,0,2.3-0.2,2.8
			c-0.2,0.4-0.2,1.5,0.1,1.7c-0.2,0.2,0,0.1-0.3,0.1c-0.3,0.9-0.2,1.9-0.1,3.1C334.9,317.7,334.9,317.7,335,317.8z M335.6,312.7
			c-0.1,0.2,0,0.1-0.2,0H335.6z M335,318.3c-0.1-0.3-0.1-0.3-0.2-0.5h-0.3c0,0.2,0,0.2-0.1,0.4c0.1,0.1,0,0,0.1,0.2
			C334.8,318.4,334.9,318.4,335,318.3z M334.4,321.8h0.4c-0.1-0.3,0-0.2-0.2-0.4v-0.1c0.2,0,0.4-0.1,0.6-0.1c0-0.4,0-0.4,0-0.8h-0.4
			v0.4c-0.1-0.1-0.1-0.3-0.2-0.4c0-0.2,0-0.2,0.1-0.3c0.1-0.1,0.2,0,0.4,0.1h0.3c-0.1-0.9,0.1-1.6,0.2-2.4h-0.4c0,0.2,0,0.3-0.1,0.4
			c-0.2,0.4-0.3,0.4-0.6,0.4c-0.1,0.7-0.3,2.7-0.1,3.1L334.4,321.8L334.4,321.8z M334.8,318.8h0.2v0.4h-0.3
			C334.8,319,334.8,319,334.8,318.8z M334.8,322.2c0.2,0,0.3,0,0.5-0.1c0.1-0.1,0.1-0.1,0.1-0.3h-0.5L334.8,322.2L334.8,322.2z
			 M367.9,333.5C367.9,333.5,368,333.4,367.9,333.5c0-0.9-1.2-1.6-2-1.7c-0.1,0.2-0.3,0.4-0.4,0.6c-0.1,0.2-0.1,0.6-0.1,0.6
			C365.8,333.7,367.1,333.6,367.9,333.5z M374,336.9c0-0.9-0.4-1.3-1.2-1.4c-0.2,0.1-0.5,0.3-0.6,0.4c0,0.5,0,0.8,0,1.1
			C372.9,337.3,373.5,337.3,374,336.9z M380.4,336.7c0.1,0,0.1-0.1,0.2-0.1v-0.2c-0.5-0.2-0.8-0.4-1-0.9c-0.3-0.1-0.8-0.1-1.3-0.1
			c-0.1,0.2-0.1,0.5-0.3,0.6c0,0.5,0.2,0.6,0.3,0.9C379.2,337.1,379.9,337.2,380.4,336.7z M408.7,338c0.3,0,0.7,0,0.9-0.1
			c0.2-0.7,0.1-0.8-0.3-1.4h-0.3c-0.3,0.2-0.7,0.3-0.9,0.5c0.1,0.4,0.3,0.6,0.4,0.9C408.7,338,408.6,337.9,408.7,338z M406.9,338.2
			c-0.2-0.4-0.6-0.8-0.8-1.2h-1c-0.4,0.6-0.2,0.8-0.4,1.3c0,0.1,0.1,0.2,0.1,0.3C405.9,338.6,406.1,338.4,406.9,338.2z M364.8,338.5
			c0.2-0.1,0.2-0.2,0.3-0.5c0.1-0.1,0,0,0.1-0.2l-0.4-0.4c-0.6-0.1-1.2-0.1-1.8-0.2c-0.1,0.2-0.3,0.2-0.5,0.3c0.1,0.2,0,0.1,0.1,0.2
			C362.6,339.4,364.2,338.9,364.8,338.5z M400.8,339.2c0.5-0.1,1.6-0.3,2-0.6c0.4-0.9-1.4-0.9-2.2-0.9c-0.1,0.2-0.2,0.4-0.4,0.5
			c0,0.3,0,0.5,0.2,0.6L400.8,339.2z M380.5,339.9c0.1,0.7,0.5,0.8,0.9,1.2c1-0.1,0.7-1.3,1.2-1.9V339h-0.5v0.4
			c-0.1,0-0.1,0.1-0.2,0.1c-0.1,0.1-1-0.1-1.4-0.2C380.6,339.5,380.6,339.8,380.5,339.9z M388.2,341.2c0.8,0,0.8-0.1,1.2-0.5
			c0-0.2,0-0.3-0.1-0.5c0-0.4-0.1-0.4-0.3-0.6c-0.3-0.1-0.5-0.1-0.8-0.2c-0.1,0.2-0.4,0.5-0.5,0.6c0,0.5,0.1,0.6,0.2,0.9
			C388.1,341,388.1,341,388.2,341.2z M367.3,339.9c-0.2,0.2-0.5,0.4-0.7,0.5c0,0.2,0,0.4,0.1,0.6c0.1,0.3,0.3,0.3,0.5,0.5
			c0.4,0,0.7,0.1,0.9,0h0.2v-0.3c0.2,0,0.2,0,0.3-0.1c0.2-0.4-0.3-0.9-0.5-1.4C367.7,339.9,367.7,340,367.3,339.9z M413.8,343
			c0.3,0,0.8,0,1-0.1c0.1-0.1,0.1-0.2,0.2-0.3c-0.1-0.6-0.9-1.2-1.7-1.2c-0.1,0.2-0.2,0.3-0.4,0.5c0,0.4,0.1,0.6,0.2,0.8
			C413.3,342.8,413.5,342.9,413.8,343z M420.8,342.5c0-0.3-0.2-0.7-0.3-0.8c-0.1-0.2,0-0.1-0.2-0.2c-0.2-0.1-0.2,0-0.3-0.1
			c-0.5,0.1-0.5,0.3-0.8,0.6c0,0.4,0.2,0.4,0.3,0.9c-0.5,0-0.6-0.1-0.7-0.5c-0.2,0.2-0.2,0.3,0,0.5c-0.1,1.2,0.7,2.1,1.5,1.4
			c0.1,0,0.1-0.1,0.2-0.1c0-0.4,0-0.9-0.3-1.2C420.4,342.8,420.5,342.7,420.8,342.5z M372.1,343.4c0.5,0,1.2-0.5,1.2-0.5
			c0.2-0.1,0.1-0.2,0.4-0.5c-0.2-0.3-0.4-0.3-0.5-0.7c-0.6-0.1-0.9-0.2-1.5-0.3c0,0.4-0.1,0.4-0.4,0.5c0.2,0.4,0.4,0.9,0.6,1.3
			C372.1,343.4,372,343.3,372.1,343.4z M412.2,343.4c0-1.1-0.9-1.3-1.9-1.3c-0.1,0.2-0.2,0.5-0.4,0.6c0,0.7,0.2,0.7,0.5,1.1
			c0.2,0.1,0.1,0,0.2,0.1c0.8,0,1.1-0.1,1.5-0.4C412.1,343.4,412.1,343.5,412.2,343.4z M405.1,342.7c-0.1,0.1-0.2,0.1-0.3,0.2
			c-0.1,0-0.2,0.1-0.3,0.1c0,0.3,0,0.5,0.2,0.6c-0.1,0.2-0.2,0.3-0.4,0.5c-0.1,0.1-0.6,0.1-0.9,0.3c-0.3,0.1-0.3,0.3-0.5,0.5
			c0,0.9,0.3,0.8,0.6,1.3c0.5,0,0.7,0,0.9-0.2v-1.4c0.3-0.1,0.2-0.1,0.5-0.1c-0.1-0.3-0.1-0.2-0.2-0.4c0.4-0.1,0.7,0,0.9-0.2
			c0.3-0.1,0.3-0.4,0.5-0.6c-0.1-0.3-0.1-0.3-0.2-0.5C405.7,342.8,405.4,342.7,405.1,342.7z M414,343.1c-0.2,0.1-0.5,0.3-0.7,0.4
			c0,0.7,0.1,1.2-0.3,1.6c0.2,0.3,0.7,0.3,0.9,0.5c0.7-0.3,0.8-0.8,1.3-1.4C415.1,343.6,414.4,343.3,414,343.1z M400.3,345
			c0.1-0.4,0.2-1-0.1-1.3c-0.1-0.2-0.2-0.3-0.5-0.4c-0.1-0.1-0.3-0.1-0.5-0.1c-0.1,0.1-0.3,0.3-0.5,0.4c-0.1,0.6,0.3,0.9,0.6,1.4
			C399.9,345.1,399.9,345.1,400.3,345z M409.6,345.5c0.1-0.2,0-0.1,0.2-0.3c-0.1-0.3-0.2-0.3-0.4-0.5h-0.2c0.2-0.1,0.7-0.2,0.9-0.3
			c0-0.7-0.1-0.9-0.5-1c-0.1-0.1-0.4-0.1-0.6-0.1c-0.1,0.2-0.3,0.7-0.2,0.9c-0.2,0.3-0.2,0.1-0.5,0.1c-0.1,0.2-0.2,0.3-0.3,0.5
			c0,0.4,0,0.7,0.2,0.9c0.2,0.2,0.2,0.2,0.5,0.2c0.2,0.4,0.3,0.9,0.6,1.2c0.1,0.1,0.3,0.1,0.5,0.2c0.2-0.2,0.4-0.4,0.5-0.6
			c0-0.3,0-0.5-0.1-0.6C410.2,345.7,409.9,345.6,409.6,345.5z M361.9,345.2c0-0.2,0-0.3,0.1-0.5c-0.2-0.2-0.5-0.5-0.6-0.7h-0.3
			c-0.2,0.1-0.4,0.2-0.5,0.4c-0.1,0.1-0.1,0.2-0.2,0.3C360.4,345.8,361.4,345.6,361.9,345.2z M393.2,344.7c-0.3,0.2-0.7,0.3-1.1,0.5
			c0.1,0.3,0.2,0.6,0.4,0.9c0.4,0.1,1.1,0.6,1.6,0c0.1-0.2-0.1-0.3,0.2-0.5C394.1,345.3,393.4,344.8,393.2,344.7z M400.2,345.2
			c-0.9,0.1-1.5,1.1-2,1.6v0.3c0.4,0.1,0.6,0.1,1.1,0.1v-0.3c0.2-0.2,0.6-0.1,0.8-0.3c0.3-0.1,0.4-0.5,0.6-0.7
			C400.7,345.5,400.5,345.5,400.2,345.2z M404.7,346c0,0.2,0,0.3-0.1,0.5c0.1,0.4,0.4,0.4,0.6,0.6c0.5,0,0.8-0.3,0.9-0.7
			c0.1-0.1,0,0,0.1-0.2c-0.3-0.2-0.5-0.5-0.9-0.6C405.1,345.7,404.8,345.9,404.7,346z M412.3,345.8c-0.4,0-0.4,0.1-0.7,0.3
			c0,0.2-0.1,0.4-0.2,0.5c0.1,0.5,0.2,0.8,0.6,0.9c0.1,0.1,0.2,0,0.4-0.1c0.4-0.2,0.7-0.8,0.7-1.4
			C412.8,345.9,412.5,345.7,412.3,345.8z M387.6,346c-0.2-0.1-0.6-0.1-0.9-0.1c-0.1,0.3-0.1,0.3-0.3,0.5c0,0.7,0.3,0.7,0.5,1.1
			c0.4,0,0.7,0.2,0.9,0c0.5,0,0.5-0.1,0.7-0.3C388.5,346.6,388,346.2,387.6,346z M397.1,347.8L397.1,347.8l-0.2,0.1
			c-0.3,0-0.4,0-0.5-0.1c0-0.2,0-0.1,0-0.4l-0.1-0.1c-0.2,0-0.4,0.1-0.6,0.1c-0.1,0.5-0.3,0.9-0.5,1.4c0.4,0.2,0.4,0.5,0.6,0.7
			c0.2,0.2,0.5,0.1,0.7,0.3c0.5-0.1,1.1-0.7,1.4-0.9C398,348,397.6,348.1,397.1,347.8z M378.7,348.2c-0.1,0.1-0.4,0-0.5,0.1
			c-0.1,0.1-0.2,0.3-0.4,0.5c0,0.6,0.2,0.7,0.5,1c0.6,0,0.7-0.2,1.1-0.4c0-0.3-0.1-0.3,0-0.5C379.3,348.5,379.1,348.3,378.7,348.2z
			 M389.4,350.5h-0.5c-0.1,0.1-0.1,0.1-0.3,0.1c0,0.2-0.1,0.4-0.2,0.5c0,0.7,0.1,0.7,0.4,1.1c0.2,0.1,0.1,0,0.2,0.1
			c0.7,0,1-0.1,1.1-0.7c0.1-0.2,0-0.3-0.1-0.5C389.9,350.7,389.6,350.7,389.4,350.5z M368,352.4c0.3-0.1,0.4-0.3,0.6-0.5
			c0-0.4-0.1-0.6,0-0.8c-0.2-0.1-0.3-0.3-0.4-0.5c-0.2,0-0.4-0.1-0.7-0.1c-0.1,0.2-0.3,0.5-0.5,0.6c0,0.1-0.1,0.2-0.1,0.3
			C367.2,351.7,367.8,352.1,368,352.4z M428.9,353.6c0.2-0.1,0.2-0.1,0.4-0.3c0.1,0.4,0.2,1,0.3,1.4c1,0.3,2.5-0.1,1.8-1.3
			c-0.6-0.1-0.8-0.1-1.4-0.1c-0.3-0.9-0.2-1.8-1.1-2.1c-0.1-0.1-0.3-0.1-0.5-0.1c-0.6,1,0.2,1.1,0.1,2.1
			C428.6,353.4,428.7,353.4,428.9,353.6z M419.2,353.8L419.2,353.8c0.8-0.2,0.6-0.8,1.3-1.1c-0.1-0.5-0.3-0.6-0.5-0.9h-0.5
			c0,0-0.8,0.3-1,0.5c0,0.2-0.1,0.4-0.2,0.5C418.4,353.3,418.7,353.5,419.2,353.8L419.2,353.8z M416.9,352.1c-0.3-0.2-1,0.3-1.3,0.5
			c0,0.6,0.2,0.5,0.3,1c0.4,0,0.9,0.2,1.2,0c0.5-0.2,0.3-0.5,0.3-1.1C417.2,352.3,417.2,352.2,416.9,352.1z M362.4,353.8
			c0.4-0.1,0.4-0.2,0.6-0.4c0-0.3,0-0.7,0.1-0.9c-0.3-0.2-0.4-0.4-0.8-0.5c-0.2,0.1-0.4,0.2-0.6,0.3c-0.1,0.2,0,0.1-0.1,0.2
			C361.6,353.4,361.9,353.4,362.4,353.8z M425.2,352.5c-0.9,0-0.5,0.6-1.1,0.8c0.1,0.2,0.1,0.2,0.5,0.3c0,0.2-0.1,0.3-0.1,0.5
			c0.3,0,0.6,0,0.7-0.1c0.7,0.1,0.6,0.5,1,0.8c-0.1,0.2-0.7,0.3-1,0.3c-0.1,0.4-0.2,0.7,0.1,1c0.1,0.2,0.3,0.3,0.5,0.5
			c0.4,0,0.5-0.1,0.8-0.3c0-0.2,0-0.4,0.1-0.5c0-0.8,0.1-0.3,0.5-0.6c0.1-0.1,0.2-0.4,0.3-0.5c-0.1-0.4-0.6-1.2-0.8-1.5
			C426.3,352.9,425.5,352.8,425.2,352.5z M433.6,354.8c0.5,0,0.5-0.1,0.8-0.3c0.1-0.2,0-0.1,0.1-0.2c-0.2-1.1-1.1-0.6-1.6-1.5h-0.3
			c0,0.3-0.1,0.3,0,0.5C432.6,354.2,433.1,354.4,433.6,354.8z M421.9,353.6c-0.1-0.2-0.2-0.3-0.4-0.5h-0.7c-0.2,0.2-0.4,0.3-0.3,0.6
			c0,0.8,0.4,0.7,0.6,1.3c0.1,0,0.2,0.1,0.3,0.1l0.4-0.4C421.9,354.4,422.1,354,421.9,353.6z M383,354.2c-0.4-0.2-0.9,0.5-1.4,0.6
			c0.1,0.2,0,0.3,0.1,0.5c0.1,0,0.3,0,0.5,0c0,0.2,0,0.2,0.1,0.3c0.1,0.2,0,0.1,0.1,0.2c0.2,0.2,0.5,0.2,0.7,0.1
			c0.4-0.1,0.5-0.5,0.6-0.9C383.5,354.6,383.5,354.3,383,354.2z M423.7,355.5c0.1-0.6-0.1-0.8-0.1-1.4c-0.8,0-1.1,0.4-1.6,0.7
			c0.1,0.4,0.4,0.6,0.6,0.9C423.2,355.8,423.3,355.6,423.7,355.5z M417.8,354.9c-0.2-0.1-0.5-0.3-0.7-0.5c-0.5,0-0.6,0.2-0.9,0.4
			c0,0.4,0.1,0.9,0.3,1.2c0.1,0.3,0.3,0.3,0.5,0.5c0.2,0,0.3,0,0.5-0.1c0.2-0.2,0.2-0.8,0.2-1.3h0.3V354.9z M408.5,355
			c-0.2-0.1-0.2-0.2-0.5-0.3c-0.2-0.1-0.5-0.1-0.8-0.1c-0.1,0.2-0.3,0.4-0.5,0.5l0.5,0.9c0.5,0,0.7-0.1,1.1-0.3
			C408.4,355.5,408.3,355.3,408.5,355z M426.8,356.5c0.1,0.2,0.2,0.7,0.4,0.9c0.1,0.1,0.1,0.1,0.3,0.1v0.3c-0.5,0.2-0.9,0.4-1.3,0.6
			c0,0.8,0.2,0.8,0.6,1.1c0.3,0,0.5,0,0.7-0.2c0.1,0,0.2-0.1,0.3-0.1c0-0.4-0.1-0.5-0.2-0.9c0.5,0,0.6,0.3,0.8,0.5
			c0.7,0,1-0.2,1.1-0.7c0.1-0.1-0.2-0.4-0.3-0.7c-0.3,0-0.5,0-0.7-0.1c0.1-0.9,0.8-1.3,0.4-2.2c-0.3-0.1-0.7-0.4-1-0.3
			C427.5,355.1,427.2,356.1,426.8,356.5z M372.6,355.4c-0.1,0.3-0.1,0.3-0.4,0.5c0.1,0.3,0.1,0.3,0.2,0.6c0.5,0.1,1.2,0.4,1.4,0.7
			c0.5,0,0.5-0.2,0.8-0.4c-0.1-0.7-0.8-1.2-1.2-1.6C373.2,355.3,372.9,355.4,372.6,355.4z M359.9,355.8c-0.2,0.2-0.4,0.3-0.5,0.5
			c0,0.4-0.1,0.5,0.1,0.8c0.1,0.3,0.8,0.5,1.2,0.3c0.6,0,0.6-0.1,0.9-0.4C361.5,356.4,360.5,355.9,359.9,355.8z M354.8,356.1
			c-0.2-0.1-0.5,0.1-0.8,0.2c-0.1,0.3-0.1,0.5-0.2,0.8c0.3,0.1,0.5,0.3,0.6,0.5c0.5,0,0.8-0.2,1.4-0.2
			C355.8,356.8,355.4,356.2,354.8,356.1z M414.2,357.2c-0.2,0.4,0.3,0.9,0.5,1.3c0.6-0.1,1.1-0.5,1.5-0.8c0-0.7-0.7-1.1-1.2-1.3
			C414.8,356.8,414.4,356.7,414.2,357.2z M412.5,357.9c0-0.3,0-0.7-0.1-0.9c0-0.1-0.1-0.2-0.1-0.3c-0.2-0.1-0.1,0-0.2-0.1
			c-0.6,0-0.7,0.1-1,0.3c0,0.2-0.1,0.4-0.1,0.6c0.1,0.1,0.1,0.2,0.2,0.4C411.7,357.9,412.1,357.9,412.5,357.9z M402.2,357.1
			c0-0.1-0.1-0.2-0.1-0.3c-0.3-0.1-0.5-0.1-0.8-0.2c-0.1,0.1-0.2,0.1-0.4,0.2c0,0.5-0.1,0.6,0.1,0.9c0.1,0.3,0.1,0.3,0.4,0.4
			c0.2,0.1,0.6-0.2,0.9-0.3C402.3,357.6,402.3,357.3,402.2,357.1z M377.3,357.1c-0.2,0.5-0.2,0.7-0.2,1.4c1.1,0,1.4-0.3,2.3-0.7
			v-0.4C378.4,357.3,378.1,356.7,377.3,357.1z M423.7,357.5c-0.1,0.2,0,0.3,0.1,0.5v0.2c0.3,0,0.6,0,0.8,0.1c0.4,0,0.4-0.1,0.6-0.2
			c0-0.2,0.1-0.4,0.2-0.5c0-0.2,0-0.4-0.1-0.5c-0.2-0.1-0.8-0.1-1.3-0.1C423.9,357.1,423.8,357.1,423.7,357.5z M420.3,357.2
			c-0.2,0.1-0.5,0.1-0.7,0.3c-0.2,0.1-0.2,0.2-0.4,0.3c0,0.5,0.2,0.7,0.5,0.9c0,0.5-0.2,0.6-0.5,0.8c0.1,0.6,0.4,0.5,0.6,0.9
			c0.3,0,0.5,0,0.6-0.1c0.3-0.1,0.3-0.3,0.5-0.5c0-0.6-0.2-0.7-0.6-0.8c0.1-0.2,0.4-0.3,0.6-0.5
			C420.8,358.2,420.5,357.5,420.3,357.2z M367.8,358.8l-0.5,0.5c0,0.4,0,0.4,0,0.7c0.1,0.1,0.1,0.2,0.2,0.3c0.2,0,0.3,0.1,0.5,0.2
			c0.6,0,0.6-0.2,0.9-0.5c-0.1-0.5-0.2-0.7-0.5-1C368.2,358.8,368,358.8,367.8,358.8z M426.4,359.8c-0.3,0-0.4,0.1-0.6,0.2
			c-0.1,0.2-0.1,0.2-0.2,0.4c0,0.7,0.2,0.7,0.5,1.1c0.5,0,0.6-0.2,1-0.3C427.2,360.2,426.8,360.2,426.4,359.8z M408.4,361.5
			c0.5-0.1,0.5-0.2,0.8-0.4c-0.1-0.5-0.4-0.7-0.6-1.1c-0.2,0-0.4-0.1-0.5-0.1l-0.5,0.5c0,0.6,0.2,0.7,0.4,1.1
			C408.2,361.5,408.2,361.6,408.4,361.5z M423.8,361.4c0-0.5-0.1-0.9-0.5-1c-0.2-0.1-0.4-0.2-0.6-0.2c-0.2,0.3-0.5,0.4-0.5,0.9
			c-0.1,0.2,0.1,0.3,0,0.5c0.3,0.2,0.7,0.3,1,0.5C423.7,362,423.5,361.7,423.8,361.4z M428.4,360.2c-0.1,0.1-0.2,0.1-0.3,0.2
			c-0.1,0-0.2,0.1-0.3,0.1c0,0.6,0.2,0.7,0.4,1.1c0.3,0.1,0.7,0,0.9,0.3c0.4-0.1,0.6-0.3,0.9-0.5c0-0.2,0-0.3-0.1-0.4
			C429.7,360.4,429,360.3,428.4,360.2z M397.6,361.3c-0.1-0.4-0.2-0.5-0.4-0.7c-0.5-0.1-0.8,0-1.3,0.1c0.1,0.6,0.3,1,0.5,1.5
			c0.5-0.1,0.6-0.4,1.1-0.5C397.5,361.5,397.5,361.4,397.6,361.3z M388.6,360.7c-0.2,0.3-0.7,0.8-0.3,1.4c0.1,0.1,0.3,0.1,0.4,0.2
			c0.6,0,0.6-0.1,0.9-0.4c0-0.6-0.1-0.7-0.4-1.1C389,360.7,388.8,360.7,388.6,360.7z M426.4,363c0-0.4,0-0.8-0.2-1.1
			c-0.1-0.4-0.4-0.5-0.9-0.6c-0.2,0.2-0.4,0.3-0.6,0.5c0,0.9,0.5,0.9,0.7,1.5C426,363.4,425.9,363.2,426.4,363z M413,362.2
			c0-0.1-0.1-0.2-0.1-0.3c-0.4-0.1-0.7-0.2-1.1-0.3c-0.1,0.3-0.2,0.6-0.4,0.9c0.2,0.2,0.4,0.4,0.5,0.6c0.5,0,0.7,0,0.9-0.2
			C413,362.7,413.1,362.5,413,362.2z M356.2,361.8c-0.1-0.1-0.2-0.1-0.5-0.1c-0.1,0.2-0.3,0.3-0.5,0.5c0,0.4,0,0.5,0.2,0.7
			c0.3,0.7,1.1,0.4,1.7,0.8c0.3-0.1,0.3-0.1,0.5-0.2C357.6,363.1,356.6,362,356.2,361.8z M403.2,362.6c0,0.3,0,0.7,0.1,0.9
			c0,0.1,0.1,0.2,0.1,0.3c0.7,0,0.8-0.1,1.4-0.2C404.9,362,404.1,361.9,403.2,362.6z M432.9,362.3c-0.4-0.2-2.2,0-2.4,0.1h-0.2v0.3
			c-0.5,0-0.6-0.2-0.8-0.5c-0.2,0.1-0.5,0.6-0.7,0.9v0.5l0.8,0.8c0.6,0,0.7-0.1,0.8-0.5c0.3,0.1,0.7,0.1,1,0.2
			c0.1,0,0.1-0.3,0.4-0.2c0.7,0.2,1.2,0.8,2.1,0.1c0.1-0.1,0.1,0,0-0.2C433.8,363,433.4,362.6,432.9,362.3z M362.6,362.2
			c-0.2,0.3-0.6,0.6-0.9,0.8c0.3,0.3,0.7,0.3,0.9,0.7c0.9,0,0.7-0.3,1.2-0.6c-0.1-0.5-0.3-0.6-0.5-0.9L362.6,362.2L362.6,362.2z
			 M420.1,364h0.2c0.1-0.3,0.1-0.8,0.1-1.3c-0.4,0-0.4-0.1-0.6-0.3c-0.2-0.1-0.6,0.2-0.9,0.3c0,0.2,0,0.4-0.1,0.5
			c0.1,0.4,0.5,0.5,0.7,0.8C419.7,364.1,420,364.1,420.1,364z M416.3,363.4c-0.2,0.3-0.2,0.7-0.4,1c0.2,0.3,0.5,0.5,0.7,0.7
			c0.4,0,0.6,0,0.8-0.2c0.2-0.1,0.3-0.3,0.4-0.5h0.5v-0.3c-0.4-0.2-0.7-0.3-0.9-0.6C417.1,363.5,416.5,363.5,416.3,363.4z
			 M374.8,363.8c-0.1,0.2-0.3,0.3-0.5,0.4c0.1,0.7,0.3,0.8,0.6,1.2c0.2,0,0.2,0,0.3-0.1c0.3,0,0.3-0.1,0.5-0.2
			c0-0.6-0.1-0.8-0.3-1.2C375.3,363.9,375.2,363.8,374.8,363.8z M434.8,364.7c-0.4-0.1-0.8-0.1-1.3-0.2c-0.2,0.3-0.3,0.3-0.4,0.8
			c0.2,0.2,0.3,0.4,0.5,0.6c0.1,0.1,0.3,0,0.4,0.1c0.1,0.1,0,0.8,0.2,1c0.1,0.3,0.3,0.3,0.5,0.5c0.3,0,0.5,0,0.6-0.2
			c0.3-0.2,0.2-0.4,0.3-0.5c0-0.7-0.3-1.1-1-1.1c0.1-0.1,0.1-0.1,0.3-0.2c-0.1-0.3,0-0.2-0.2-0.4c0.1-0.2,0.2-0.2,0.3-0.4
			L434.8,364.7z M427.4,364.8c0,0.7,0.2,1.2,0.7,1.4c0.2,0.1,0.6,0,0.8-0.2h0.2c0-0.2,0-0.3,0.1-0.4c-0.1-0.6-0.5-0.6-0.8-0.9
			C428.1,364.8,427.7,364.8,427.4,364.8z M431.5,365.4c-0.2-0.3-0.5-0.3-0.8-0.5c-0.1,0.1-0.4,0.2-0.5,0.3c-0.2,0.1-0.2,0.1-0.4,0.2
			c0.1,0.4,0.5,0.6,0.7,1c0.3,0,0.5,0,0.6-0.1c0.3-0.1,0.2-0.2,0.5-0.3C431.6,365.7,431.6,365.5,431.5,365.4z M360.9,365.6
			c-0.3-0.1-0.5-0.2-1-0.2c-0.1,0.3-0.2,0.6-0.5,0.7c0.1,0.6,0.3,0.6,0.5,1c0.5,0,0.9-0.4,1.1-0.8c0,0,0.1-0.1,0.1-0.1h-0.1
			C361.1,365.9,361,365.9,360.9,365.6z M427.5,365.9c-0.3-0.1-0.5-0.2-1-0.2c-0.2,0.2-0.3,0.3-0.5,0.5l0.1,0.1
			c0,0.4,0.1,0.4,0.3,0.7c0.3,0.1,0.9,0.2,1.1,0.4c0.4-0.2,0.1-0.2,0.4-0.5C427.8,366.3,427.7,366.2,427.5,365.9z M352.8,367.4
			c0.6,0,0.8-0.1,1.1-0.3c0-0.5-0.1-0.8-0.3-1.1c-0.2-0.1-0.4-0.2-0.7-0.2c-0.2,0.2-0.4,0.2-0.5,0.5c-0.1,0.3,0.2,0.6,0.3,0.9
			C352.8,367.3,352.7,367.3,352.8,367.4z M385.5,365.9c-0.2,0.2-0.4,0.4-0.3,0.7c0.1,0.6,0.3,0.5,0.5,0.8c0.8,0,0.6-0.4,1-0.7
			C386.7,366.2,386.1,365.9,385.5,365.9z M382.9,366.6c-0.1,0.2-0.3,0.5-0.5,0.6c0,0.2,0,0.3,0.1,0.4c0.1,0.4,0.3,0.5,0.7,0.5
			c0.2,0.1,0.4-0.2,0.7-0.3c0-0.4,0-0.6-0.2-0.8C383.7,366.8,383.2,366.7,382.9,366.6z M408.6,366.6c-0.1,0.1-0.2,0-0.4,0.1
			c-0.1,0.1-0.2,0.3-0.4,0.5c0.1,0.4,0.3,0.7,0.6,0.8c0.3,0.2,0.4,0.1,0.8,0.1c0.1-0.1,0.2-0.2,0.4-0.3
			C409.8,366.9,409.5,366.6,408.6,366.6z M422.9,367.2c0,0.8,0.3,0.9,0.5,1.4c0.5,0,0.9,0,1.2-0.2c0.2-0.3,0.1-0.7,0.4-0.9
			C424.6,367,423.6,367.1,422.9,367.2z M399.1,369.3c-0.8,0-0.9,0.3-1.4,0.5c0.2,0.3,0.3,0.5,0.5,0.8c0.6,0.2,0.9,0.2,1.6,0.1
			c0-0.3,0.1-0.3,0-0.5C399.7,369.5,399.4,369.7,399.1,369.3z M420.5,369.3c-0.7,0.7-1,1.1-0.5,2.3c0.2,0,0.3,0.1,0.5,0.2
			c0.2,0,0.4,0,0.5-0.1c0.3-0.4,0.1-0.9,0.5-1.3C421.5,369.6,421.1,369.4,420.5,369.3z M435.1,370.2c-0.1-0.4-0.2-0.5-0.5-0.6
			c-0.1-0.1-0.3-0.1-0.5-0.1c-0.3,0.3-0.4,0.4-0.5,0.8c0.2,0.2,0.2,0.4,0.4,0.5c0.2,0.1,0.2,0,0.4,0.1
			C434.8,370.9,435.4,370.5,435.1,370.2z M428.5,370.3c-0.1,0.1-0.2,0.3-0.3,0.5c0.1,0.7,0.4,1.1,0.6,1.5c0.5,0,0.6,0,1,0
			c0.1-0.3,0.2-0.3,0.5-0.5C430.3,370.7,429.5,370.4,428.5,370.3z M366.9,370.9c-0.4,0.2-0.5,1-0.5,1.4c0.1,0.1,0.1,0.2,0.2,0.3
			c0.5,0.1,1.1,0.3,1.4,0.4c0-0.5,0.2-0.9,0.1-1.1C367.8,371.4,367.2,371.3,366.9,370.9z M423.4,372.7c0.1,0.1,0.2,0.1,0.5,0.1
			c0.1-0.4,0.3-0.7,0.1-1.1c-0.1-0.4-0.3-0.4-0.5-0.6c-0.2,0-0.4,0-0.5,0.1c-0.2,0.1-0.2,0.2-0.4,0.4c0,0.3,0,0.5,0.2,0.6
			C422.9,372.4,423.1,372.6,423.4,372.7z M435.8,372.7c0-0.2,0-0.3-0.1-0.5c-0.1-0.5-0.2-0.5-0.5-0.8c-0.3,0-0.6-0.1-0.9-0.1
			c-0.1,0.2-0.5,0.7-0.2,1.1c0.2,0.5,0.6,0.3,1,0.5C435.5,372.9,435.6,372.8,435.8,372.7z M353.1,372.1c-0.3,0.1-0.3,0.4-0.5,0.6
			c0,0.6,0.6,1.3,1,1c0.4-0.1,0.4-0.3,0.7-0.5c0-0.7-0.2-1.1-0.5-1.4C353.6,371.9,353.3,371.9,353.1,372.1z M393.8,373.3
			c0.5,0,0.6-0.1,0.9-0.3c0-0.3,0-0.5,0.1-0.7c-0.4-0.2-0.5-0.4-1.1-0.5c-0.1,0.1-0.1,0.1-0.3,0.1c-0.1,0.2-0.1,0.2-0.3,0.4
			c0,0.2,0,0.2,0.1,0.3C393.3,373.1,393.5,373.1,393.8,373.3z M426.2,376.7c0-0.3,0.1-0.5,0.1-0.8c-0.4-0.1-0.4-0.3-0.6-0.4
			c-0.4-0.2-0.8,0-1.1,0c0.1,0.6,0.4,0.9,0.5,1.4c0.4,0,0.7,0,0.9-0.2C426,376.8,426.1,376.8,426.2,376.7z M407.1,376.7
			c-0.4-0.2-0.6-0.5-1.2-0.5c-0.2,0.2-0.4,0.3-0.6,0.5c0,0.3,0,0.7-0.1,0.9c0.1,0.5,0.4,0.4,0.6,0.8c0.5-0.1,0.6-0.2,1.1-0.1
			C407.2,377.7,407,377.4,407.1,376.7z M414.2,376.6c-0.9,1.2-0.2,1.1,0.7,1.6c0.2,0,0.3,0,0.4-0.1c0.4-0.5,0-0.9-0.2-1.4
			C414.8,376.7,414.7,376.6,414.2,376.6z M377.6,376.9c-0.2-0.1-0.1,0-0.2-0.1c-0.5,0-0.7,0-0.9,0.2c-0.1,0.2,0,0.1-0.1,0.2
			c0,0.6,0,0.9,0.5,1.1c0.2,0.1,0.6,0.1,0.9,0.1c0.1-0.3,0.3-0.5,0.1-0.8C377.9,377.2,377.8,377.2,377.6,376.9z M431.4,378.6
			c0.6,0,0.7-0.2,1.1-0.3c0-0.8-0.2-1.2-0.8-1.4c-0.2,0.3-0.6,0.6-0.9,0.8C430.9,378.2,431.2,378.2,431.4,378.6z M426.2,377.5
			c-0.2,0-0.3,0-0.4,0.1c-0.3,0.1-0.7,0.7-0.5,1c0,0.4,0,0.5,0.4,0.6c0.3,0.2,0.6,0.1,1,0.1c0-0.3,0-0.4,0.2-0.5
			C426.9,377.8,426.6,377.9,426.2,377.5z M433.6,380.5h1.1c0-0.4,0.2-0.4,0.3-0.6c0.1-0.5-0.2-0.8-0.3-1.2c-0.5-0.1-0.9-0.1-1.4-0.2
			C433.4,379.2,433.4,379.8,433.6,380.5z M383.2,380.1c0-0.7-0.3-0.7-0.6-1c-0.4,0.1-0.5,0.3-0.8,0.5c0,0.5-0.1,1-0.1,1.5
			c0.3,0,0.4-0.1,0.6,0C383,381.1,382.8,380.6,383.2,380.1z M365.2,379.5c-0.2,0.2-0.5,0.5-0.8,0.6c0,0.2,0.1,0.4,0.1,0.5
			c0.2,0.1,0.3,0.2,0.5,0.4c0.5,0,0.8,0,1.1-0.2c0.3-0.7,0-0.9-0.4-1.4H365.2z M359.2,381.4h-0.5c-0.1,0.1-0.3,0.3-0.5,0.4
			c0.1,0.7,0.4,0.9,0.6,1.5c0.3,0,0.6-0.1,0.8-0.2c0.1-0.4,0-0.7,0-1.2C359.5,381.8,359.4,381.6,359.2,381.4z M393.9,382.7
			c-0.5,0.8-0.7,0.6-0.2,1.6l0.8,0.3c0.2-0.3,0.7-0.8,0.5-1.3C394.8,382.9,394.3,382.9,393.9,382.7z M432.6,384.6
			c0.1-0.1,0.2-0.2,0.5-0.3c-0.3-1-0.2-1.1-1.2-1.3c-0.1,0.1-0.4,0.3-0.5,0.4C431.3,384.4,431.7,384.6,432.6,384.6z M428.7,384.9
			c-0.2,0.2-0.2,0.2-0.5,0.3c0.1,0.6,0.5,1,0.5,1.5c0.7-0.1,0.9-0.5,1.4-0.8c-0.1-0.3-0.1-0.4-0.2-0.7
			C429.5,385,429.1,385,428.7,384.9z M413.3,386c-0.1,0.1-0.1,0.1-0.3,0.1c0,0.3,0.1,0.3-0.1,0.5c0,0.5,0.4,1.2,0.9,0.9
			c0.5,0,0.5-0.2,0.7-0.5c0-0.7-0.3-0.7-0.5-1.1H413.3z M420.3,387.5c-0.6,0-0.6,0.1-0.9,0.4c0,0.2,0,0.4,0.1,0.5
			c-0.1,0.2-0.1,0.2-0.4,0.3c0.1,0.3,0.4,0.4,0.6,0.5c0,0.2,0.1,0.4,0.1,0.5c0.9,0,1-0.6,1.4-1.1
			C421.3,387.8,420.7,387.9,420.3,387.5z M370.2,390.3c-0.2,0.2-0.3,0.3-0.5,0.5c0,0.2,0,0.3-0.1,0.4c0.1,0.5,0.4,0.5,0.7,0.8
			c0.6,0,0.6-0.2,0.9-0.5C371.3,390.6,370.9,390.4,370.2,390.3z M396.8,391.6h-0.3c-0.1,0.2-0.4,0.2-0.5,0.4
			c-0.1,0.1-0.1,0.4-0.2,0.5c0.1,0.7,0.6,0.7,0.9,1.1c0.6-0.1,0.5-0.3,1.1-0.4c-0.1-0.3-0.2-0.9-0.5-1.2
			C397.1,391.8,397,391.8,396.8,391.6z M429.2,391.6h-0.5c-0.1,0.2-0.3,0.3-0.4,0.5h-0.1c0,0.7,0.2,0.7,0.5,1.1
			c0.7,0,0.8-0.2,1.2-0.5c0-0.3,0-0.5-0.2-0.7C429.5,391.8,429.3,391.9,429.2,391.6z M362.9,393.5c-0.1,0.2-0.3,0.3-0.5,0.4
			c0,0.2,0,0.3-0.1,0.5c0.2,0.6,0.6,0.9,1.3,1c0.2-0.3,0.5-0.5,0.8-0.7C364.3,394.1,363.5,393.7,362.9,393.5z M382,394.5h-0.5
			c-0.2,0.8-0.2,1.2-0.1,2.1c0.5,0,0.8,0.1,1,0.4h0.1c0-0.3-0.1-0.4-0.2-0.7c0.3-0.1,0.6-0.2,0.9-0.4
			C383.2,394.8,382.4,395,382,394.5z M402.6,396.3c-0.1,0.2-0.2,0.3-0.4,0.5c0,0.6,0.2,0.8,0.5,1.2c0.6,0,0.8-0.3,1.2-0.5
			C403.8,396.7,403.4,396.3,402.6,396.3z M423.4,398.5c0.9,0,0.8-0.2,1.3-0.5c0-0.3,0.1-0.6,0.1-0.9c-0.4,0-0.6-0.1-0.8-0.3
			C422.4,396.8,423,397.9,423.4,398.5z M415.9,398.2c0.1,0.6,1.4,0.8,2,0.8v-0.4h0.3c-0.1-0.5-0.7-1.1-1-1.5
			C415.8,397.1,416.2,397.7,415.9,398.2z M428.2,399.5c-0.1,0.1-0.2,0.2-0.4,0.3c0,0.7,0.2,0.7,0.5,1.1c0.5,0,0.5-0.1,0.8-0.3
			C429.2,399.8,428.8,399.7,428.2,399.5z"/>
	</g>
</g>
<ellipse class="st1" cx="394.4" cy="422.3" rx="42.9" ry="4.7"/>
</svg>
