<?xml version="1.0" encoding="utf-8"?>
<!-- Generator: Adobe Illustrator 21.0.0, SVG Export Plug-In . SVG Version: 6.00 Build 0)  -->
<svg version="1.1" id="Calque_1" xmlns="http://www.w3.org/2000/svg" xmlns:xlink="http://www.w3.org/1999/xlink" x="0px" y="0px"
	 viewBox="0 0 841 595" style="enable-background:new 0 0 841 595;" xml:space="preserve">
<style type="text/css">
	.st0{fill:#DADADA;}
	.st1{fill:#1D1D1B;}
</style>
<ellipse class="st0" cx="485.6" cy="389.7" rx="76.9" ry="13"/>
<g>
	<g>
		<path class="st1" d="M564.3,268.6c0.1,0.3,0.4,0.8,0.5,1c0,0.2-0.1,0.4-0.1,0.6c0.1,0.3,0.7,0.6,0.9,0.9c0.5,0,0.8,0.2,1.1,0h0.3
			c0-0.8,0.2-1.2-0.3-1.7c-0.2-0.2-0.6-0.2-0.8-0.4c0-0.3-0.1-0.5-0.1-0.8c-0.6-1.3-1.2-3-1.9-4.2h-0.6c0,2,0.4,2.2,1,3.8V268.6z
			 M601.9,273.4c0.5-0.2,0.5-1.1,0.8-1.7c0.6-1.4,1.5-3.1,1.9-4.5l-0.4-0.4c-0.3,0-0.5-0.1-0.8-0.1c-1,1.3-2.5,3.8-2.9,5.1
			c-0.2,0.5,0.4,1.2,0.5,1.5L601.9,273.4L601.9,273.4z M609.3,309.1c-0.4-1-1.9-1.8-2.8-2.4c-0.2-0.3-0.4-0.5-0.6-0.8
			c-0.2-0.1-0.4,0-0.5-0.1v-0.3c-0.8-0.7-2.5-1.2-3.6-1.5c-3.3-0.9-6.1,1.6-7.9,2.9c-0.6,0.4-1.3,0.6-1.8,1.1
			c-1.1,1.2-1.7,2.9-2.4,4.5c-0.2,0.5,0,1.9-0.1,2.2c-0.1,1.1-2.9,1.5-3.9,1.9c-2.3,0.9-4.6,1.6-7.1,2.5c-0.8,0.3-2.1,1-2.8,0.9
			c-0.7-0.1-2.2,0.9-2.8,0.6c-0.4,0-0.5-0.1-0.8-0.1c0.1-1,0.7-1,1-1.7c0.2-0.4-0.1-0.3,0-0.6c0.4-0.8,1.3-1.8,1.8-2.5
			c0.2-0.3,0.2-0.6,0.4-1c0.5-1,1.5-1.8,2-2.7c0.6-0.9,0.8-1.9,1.4-2.8c0.5-0.7,1.3-1.2,1.8-1.9c1.2,0.1,2.5,0.2,3.7,0.3
			c1-0.2,2.5-0.7,3.6-0.9c0.1,0,0.3,0.2,0.6,0.1c1.2-0.4,2.2-1.3,3.3-1.9c0.7-0.4,0.9-1.3,1.3-2c0.7-1.1,1.3-2.8,0.9-4.3
			c-0.2-0.7,0.2-1.3,0.1-1.8c-0.3-1.9-2.8-4.8-4.1-5.7c-0.3-0.1-0.7-0.3-1-0.4c-0.7-0.4-1.6-1.1-2.3-1.4c-0.6-0.3-3,0.1-3.6,0.3
			c-1.1,0.2-1.8,0-2.8,0.4c-1.4,0.6-2.7,1.4-3.9,2.2c-0.3,0.2-0.3,0.6-0.5,0.8c-0.4,0.4-1.2,0.9-1.5,1.4c-1.2,2.2-1.2,7.5,0.4,9.2
			c-0.1,1.1-0.6,0.9-1,1.5c-0.2,0.3-0.1,0.6-0.3,0.9c-0.1,0.2-0.5,0.3-0.6,0.5c-0.2,0.2-0.1,0.6-0.3,0.8c-0.2,0.2-1,0.5-1.3,0.8
			c-0.5,0.4-0.7,1.1-1,1.7c-0.2,0.3-0.7,0.4-0.9,0.6c-0.3,0.3-0.2,0.7-0.4,1c-0.3,0.3-0.6,0.5-0.9,0.8c-0.5,0.7-1.1,1.4-1.7,2
			c-0.5,0.6-2.3,3.1-3.3,2.7c-0.3,0.2-0.2,0-0.3,0.4c-2.5,0.2-4,2-5.9,3.2c-0.5,0.3-1.1,0.3-1.7,0.6c-2.4,1.6-4.2,5.6-5.5,8.5
			c-0.2,0.5-0.8,1.1-1,1.5v1c0,0.1-0.3,0.4-0.4,0.5c-0.1,0.2,0.1,0.9-0.1,1.3c-0.1,0.2-0.4,0.5-0.5,0.8c-0.2,0.7,0,1.5-0.1,2
			c-0.1,0.4-0.6,1.2-0.8,1.7c-0.4,1.3-0.4,2.5-0.9,3.8c-0.6,1.6-1.7,3.2-2.3,4.7c-0.1,0.4-0.2,0.8-0.3,1.1c-0.2,0.2-0.4,0.3-0.6,0.5
			v0.5c-0.4,0.8-1.2,1.5-1.7,2.2c-0.9,1.3-1.7,2.8-2.9,3.7c-2.2,1.6-4.9,2.2-7.8,3.4c-1.4,0.6-2.8,1.3-4.3,1.8
			c-1.6,0.1-3.1,0.3-4.7,0.4c-1.6,0.4-4.6,0.8-5.7,0.6c-0.6-0.1-1.8,0.1-2.3,0.3c-0.7,0.2-1.6,0-2,0c-1.5,0.1-2,0.3-3.3-0.1
			c-1.3-0.4-2.5,0-3.7-0.4c-1.1-0.4-1.7-1.2-2.5-1.8c-0.5-0.3-1.1-0.4-1.4-0.9c0-0.4-0.1-0.8-0.1-1.1c-1.4-4.1-0.2-6.9,0.8-10.6
			v-1.4c0.5-1.7,0.7-3.8,1.1-5.6c0.3-1.3-0.6-5.8-1-6.5c-0.5-0.9-1.8-1.9-1.8-2.8c-1.2-0.5-2.6-1.3-4.2-1.3l-0.1-0.1
			c0.2-1.8,2-3.9,2.5-5.6c0.4-1.1-0.1-1.6,0.3-2.8c0.3-1.3,0.4-2.4,0.8-3.8v-2.2c0.6-2.4,0.5-7.6,0-10.8h-0.4c0.9-2.2-0.9-5.5-1-7.3
			h-0.5c0.1-0.1,0.2-0.2,0.3-0.3c-0.1-1.3-1.5-3.3-2.2-4.2c-0.3-0.2-0.6-0.4-0.9-0.6c-0.6-0.7-1-1.7-1.9-2.2c-0.2-0.1-0.1,0.2-0.4,0
			h-0.1c0.1-0.1,0.1-0.1,0.4-0.1c-0.2-0.6-0.8-1.3-1.4-1.5v-0.4c-0.8-0.1-1.5-1.4-2.3-1.9c-1.2-0.7-2.2-1.7-3.4-2.3
			c-0.5-0.2-0.7-0.1-1.1-0.4c-0.3-0.3-0.6-0.7-0.9-1h-1c-0.3-0.2-0.4-0.8-0.8-1c-0.6-0.4-1.8-0.5-2.5-0.5c0.1-0.3,0-0.2,0.3-0.4
			c-0.3-0.6-1-0.6-1.7-0.5c-0.2-1.1-2-1.1-2.9-1.5c-1-0.4-2.9-1-4.2-1.5c-0.2-0.1-0.4,0.2-0.5,0.1c-0.2-0.1-0.5-0.5-0.8-0.6
			c-0.3-0.1-0.5,0.2-0.6,0.1c-0.3-0.1-0.9-0.4-1.1-0.5c-0.3-0.1-0.4,0.3-0.5,0.3c-0.2-0.1-0.5-0.5-0.8-0.6c-0.7-0.3-4.5-0.7-4.6-0.5
			c-0.1-0.1-0.1-0.1-0.1-0.4c-1,0-2,0.2-2.7,0.3c-1.3-0.6-4.2-0.5-5.9-0.3c-0.7,0-1.4-0.1-2-0.1c-0.9,0.2-0.8,0.3-1.9,0.3
			c-0.1,0.4,0,0.5-0.3,0.8v0.1H448c0.1-0.2,0.1-0.2,0.1-0.5c-3-0.5-8.2,1.3-10.9,2.4c-1.3,0.5-2.6,0.6-3.8,1.1
			c-1,0.4-1.9,1.4-2.8,1.9c-0.3,0.2-0.6,0.1-1,0.3c-1,0.5-2.1,1.4-3.1,1.9c-2.9,1.6-6,2.6-8.9,4.2c-1.1,0.6-2.3,1.6-3.4,2.2
			c-0.4,0.2-0.8,0.1-1.1,0.4c-0.6,0.4-1,1-1.8,1.1v0.4c-1.7,0.3-3.1,2.1-4.2,3.2c-2.9,3-6.3,6-8.4,9.4c-0.5,0.8-1.4,1.6-1.9,2.3
			c-0.2,0.3-0.3,0.8-0.5,1c-0.3,0.1-0.6,0.2-0.9,0.3c-0.1,0.2,0.1,0.4,0.1,0.5h-0.4c0,1.1-0.5,1.2-0.8,1.9c-0.4,0.9-0.5,1.6-1,2.4
			c-0.7,1.1-2.1,2-2.8,3.1c-0.2,0.3-0.1,0.7-0.1,0.8c-0.2,0.4-0.7,1-0.9,1.4c-0.3,0.6-0.2,1.3-0.5,1.9c-0.3,0.5-0.9,1-1.1,1.5
			c-0.5,0.9-0.3,1.9-0.8,2.9c-0.4,1.1-1.2,2.5-1.7,3.6c-0.4,1.1-0.2,2.3-0.5,3.4c-0.4,1.2-0.8,2.9-1.3,4.5c0,0.8-0.1,1.6-0.1,2.4
			c-0.2,1.6-0.2,3-0.5,4.3c-0.2,0.8,0.1,1.9,0,2.4c-0.2,1.1-0.1,3,0.1,3.9c0.1,0.4-0.2,1-0.1,1.1c0.2,1.4,0.1,2.6,0.6,3.7
			c0.1,0,0.2,0.1,0.3,0.1c0.3,0.7,0.1,1.4,0.4,2c0.2,0.4,0.6,1.2,0.8,1.5c0,0.3,0.1,0.6,0.1,0.9c0.4,0.6,1,1.2,1.4,1.8
			c0.4,0.6,0.4,1.2,0.8,1.8c0.4,0.6,1.3,1.1,1.8,1.7c0.6,0.7,0.9,1.6,1.5,2.4c0.3,0.5,1.2,0.6,1.5,1c0.6,0.8,1.2,1.7,2,2.3
			c0.4,0.3,1,0.4,1.4,0.8c0.6,0.5,1.2,1.2,1.8,1.7c0.4,0.3,1.1,0.7,1.5,0.9c0.3,0,0.6,0.1,0.9,0.1c0.5,0.3,1,0.9,1.5,1.3
			c0.6,0.4,1.2,0.3,2,0.6c1.9,0.7,4.1,2.1,6.4,2c-0.1,0.2,0,0.1-0.1,0.3c-0.7,0.4-4.5-0.3-5.9-0.1c-1.3,0.2-4.1-0.1-6-0.5
			c-0.9-0.2-2.6,0.1-3.6,0c-1.2-0.2-2.6-0.5-3.7-0.8h-1.7c-1.5-0.4-3.1-0.3-4.6-0.6c-0.3-0.1-0.6,0.1-0.6,0.1
			c-0.3,0-1.8-0.1-2.3-0.3c-1.8-0.4-6.1-1-7.8-0.8c-0.6,0.1-1.3-0.5-1.9-0.1c-0.1-0.1-0.1-0.1-0.1-0.4c-2.1,0.2-4.3-0.1-6.5-0.6
			c-0.5-0.1-1.4,0.2-1.7,0.1c-2.3-0.4-5.1-0.3-7.6-0.9c-0.8,0-1.6,0.1-2.4,0.1v-0.3c-0.2-0.1-2.3-0.3-2.7-0.3
			c-0.2,0.1-0.4,0.2-0.6,0.3c-2.2-0.4-4.7-0.8-7.8-0.5c-1.4,0.1-2.8-0.5-3.9,0c-0.2-0.1-1.9-0.2-2.2-0.1c-0.5,0.2-0.5,0.6-1.3,0.6
			c-0.1,0.4-0.2,0.8-0.3,1.3c1.3,1.4,2.8,2.7,4.5,3.7v0.4c-2.6,0.1-5.9-0.7-8-1c-0.8-0.1-2.1,0.2-2.9,0c-0.8-0.2-2-0.3-2.7-0.1
			c0,0-0.4-0.4-0.5-0.4c-0.5-0.1-1,0.1-1.1,0.3c-0.4,0.1-0.2-0.2-0.4-0.3c-0.2-0.1-0.9,0.2-1.1,0.3c-0.1,0-0.4-0.4-0.5-0.4
			c-0.5-0.1-1.5-0.1-1.8-0.1c-1.1-0.2-2.5-0.4-3.7-0.3c-2.7,0.2-5.1-0.9-7.8-0.3c-0.6,0.1-0.8-0.2-1.1,0c-0.5,0.2-0.6,0.4-0.8,0.9
			h-0.1c0,1.6,0.6,2.7,1.5,3.3l-0.4,0.4c-0.1,0-0.6-0.2-0.6-0.3c-0.4-0.1-0.9,0.2-1.1,0.1v-0.3h-0.5c0-0.1-0.1-0.2-0.1-0.3
			c-0.6-0.1-1.3-0.2-1.9-0.3c-3-0.8-5.4-1.1-8-1.9h-1v-0.3c-0.6-0.3-1,0-1.3,0.1c-0.1-0.1-1.4-0.7-1.5-0.8c-0.4-0.2-0.4,0.2-0.8-0.1
			c-0.3,0.1-0.2,0.2-0.4,0.4v0.1c-0.6-0.7-0.3-0.3-1.3-0.6c-0.1-0.1-0.2-0.2-0.3-0.3c0,0-0.5,0.3-0.5,0.3c-0.3-0.2-0.6-0.6-1.1-0.3
			c-0.5-0.1-0.5,0-0.6-0.5c-0.4,0-0.8-0.1-1.3-0.1c0,0-0.4,0.3-0.5,0.3c-0.7-0.1-1.1-0.8-1.8-0.1c-0.1-0.2-0.4-0.4-0.5-0.8
			c-0.5,0-0.6-0.2-0.9,0c-0.4,0.2-0.2,0.3-0.1,0.9c0.9-0.1,0.8,0.2,1.9,0.1c0,0,0.1-0.1,0.1-0.1c0.1,0,0.1,0.3,0.3,0.4
			c0.2,0,0.4-0.1,0.6-0.1c0,0,0.2,0.4,0.3,0.4c0.5,0.2,1.1,0,1.3-0.3c0.1,0.1,0.1,0.1,0.1,0.4c0.4-0.1,0.2,0.1,0.4-0.3
			c0.3,0.2,0.2,0.3,0.4,0.5c0.4,0.3,0.8,0,1.1,0.1c1.5,0.5,3.6,1,5.3,1.5c0.8,0.2,1.5,0,2.3,0.3c2.4,0.8,5.4,1.5,8.1,2.3
			c1.1,0.3,1.8,0.2,2.9,0.5c0.9,0.2,2.1,0.8,2.9,1c0.4,0.1,0.6-0.2,1.1,0c0.9,0.3,1.6,0.8,2.9,0.8c-0.1-1-0.4-0.9-0.4-1.7
			c-1.8-0.7-3.2-1.9-4.7-3.2c-0.2-0.3-0.4-0.8-0.5-1.1c0.3-0.1,0.7-0.4,0.9-0.5c1.7,0.1,3.5,0.3,5.2,0.4c1.4-0.2,4,0.2,5.6,0.6
			c1.4,0,2.7,0.1,4.1,0.1c2.8,0.7,5.6,0.3,7.9,0.8c2.8,0.6,7,2,9.7,0.6c0.3-2.1-3-4.5-4.7-5c0.2-0.4,0.4-0.8,0.4-1.4h0.1
			c0,0.2,0.1,0.3,0.1,0.5c7,0,12.1,0.3,18.3,0.9v-0.4c0.8,0.6,2.1,0.5,3.3,0.5h1.1c1.1,0.5,3.2,0.3,3.8,0.4c0.6,0.1,1.6,0.5,2.2,0.4
			c0.3,0,1.8-0.2,2.2-0.1c0.2,0.1,0.7,0.4,1,0.5c0.3,0.1,0.7-0.1,0.9-0.1c1.3,0.2,2.2,0.3,3.3,0.5c1.2,0.3,2.6,0.1,3.4,0.3
			c0.2,0,0.4-0.1,0.6-0.1c4.6,1.4,10.7,1.1,15.3,2.2c0.7,0.2,1-0.2,1.8,0c3.1,0.7,5.7,0.3,8.4,0.9h5.7c3.9,0.2,7.7,0.4,11.6,0.6
			c2.2,0.5,5.3,0.3,7.9,0.9h1.8c0.5,0.1,1.3,0.9,2,1.1c1.8,0.7,3.3,0.7,5.1,1.4c0.5-0.1,1.8,0.3,2.3,0.3c1.6-0.2,3.9,0.1,5.6,0.5
			c0.9,0.2,1.8-0.3,2.9,0c1.3,0.3,2.4,0,3.9,0.1c1.7,0.1,3.9,0.2,5.5,0c0.7-0.1,1.1,0.2,1.8,0.1c0.9-0.2,1.8-0.2,2.7,0
			c0.4,0,0.9-0.1,1.3-0.1c0.7,0.1,1.9,0.3,2.5,0.4c0.4,0,0.9-0.1,1.3-0.1c2.5,0.6,5.6,0.4,8.4,0.8c1.3,0.2,3-0.3,4.1-0.1
			c2.1,0.3,4.7,0.1,6.7,0.4c0.5-0.1,1.1-0.2,1.7-0.3c2.1,0.3,5.5,0.3,7.8-0.1c1.2-0.2,2.9,0.4,4.3,0.1c0.6-0.1,2-0.3,2.7-0.3
			c0.2,0,0.4,0.2,0.8,0.1c2.3-0.5,5.6-0.4,8.1-0.1c1.6,0.2,4.9-0.2,6-0.5h1.5c0.2,0,0.6-0.4,0.8-0.4c0.8-0.2,2.2,0.1,2.8,0.3
			c1.6,0.4,3.4-0.2,4.5-0.1c0.8-0.1,1.5-0.3,2.3-0.4c0.5,0.1,4.7,0.3,4.7,0.3c2-0.7,4.7-0.5,6.9-1.1c0.8-0.2,1.8-0.8,2.5-1
			c0.5-0.1,1.6-0.1,2.3-0.4c0.7-0.3,1.6-0.9,2.3-1.3c1.8-0.9,3.7-1.2,5.3-2.3c0.7-0.4,1.2-1.2,1.8-1.7c1.6-1.1,3.6-1.6,5.1-2.8
			c0.2-0.2,0.2-0.5,0.4-0.8c0.6-0.5,1.2-1.1,1.8-1.7c0.2-0.3,0.3-0.6,0.5-0.8c3.9-3,7.3-7.8,10-12c0.3-0.5,0.3-1.1,0.6-1.7
			c0.6-1,1.6-2.2,2-3.3c0.6-1.5,0.5-2.9,1-4.6c0.2-0.8,0.8-1.3,1.1-2c0.8-1.8,1.2-3.7,2-5.5c3.2,0,7.6,0,10.2-0.8
			c1.3-0.4,2.2-0.1,3.1-0.9c0.5-0.7,0.3-2.8-0.4-3.4c-0.4-0.5-0.8-0.9-1.3-1.4c-0.8-0.5-4.6-0.8-5.7-0.5c-0.7,0.1-3.3,0.4-3.7,0.1
			h-1.1c0-0.2-0.1-0.3-0.1-0.5c-0.6-0.9-1.3-2-1.9-2.9c-0.4-0.5-0.4-1.3-0.8-1.8c0.2-0.6,2.3-1,2.9-1.3c2.5-1.1,5.6-2,8.3-2.9
			c1.2-0.4,2.8-0.5,3.8-1.1c0.6,0.2,0.9,0.8,1.4,1.1c0.6,0.5,1.3,0.6,1.9,1l0.8,0.8c0.7,0.4,1.7,0,2.2,0.1c0.1,0.1,0.4,0.5,0.6,0.5
			c0.5,0.1,5.2-0.7,5.6-0.9c0.4-0.4,0.8-0.8,1.1-1.1c1.1-0.8,2.6-1.6,3.2-2.8C611.1,317.2,610.6,312.3,609.3,309.1z M579.9,292.4
			c0.5-0.1,1-0.2,1.5-0.3c3.8-1.2,5.9-1.2,8.3,1.5c0.5,0.6,1.2,0.8,1.3,2h0.4c0.2,0.3,0.7,1.1,0.6,1.5c0,0.3-0.3,0.7-0.3,1.3
			c0,4.9-4.6,7.3-8.9,6.2c-0.7,0-1.4,0.1-2.2,0.1c-0.3-0.1-0.9-0.6-1.1-0.8v-0.3c-0.7-0.6-1.8-0.7-2.5-1.1c-0.5-0.3-0.7-0.9-1.1-1.1
			c-0.1-0.9-0.3-1.8-0.4-2.3C574.8,295.9,578.1,293.2,579.9,292.4z M300.1,376.8c0.2,0.1,0.1,0,0.3,0.1
			C300.1,376.9,300.2,376.9,300.1,376.8z M308.5,374c0,0-0.1,0.1-0.1,0.1h-0.1c0.1-0.2,0.1-0.2,0.1-0.5c0.1,0,0.2,0.1,0.3,0.1
			C308.6,373.9,308.5,373.9,308.5,374z M477.8,279.3c0.2,0.1,0.3,0.1,0.6,0.1c-0.2,0.1-0.3,0.1-0.6,0.1V279.3z M452.6,274
			c0,0,0.1-0.1,0.1-0.1c0.1,0.1,0,0,0.1,0.3C452.9,274.2,452.4,274.1,452.6,274z M481.2,380.1h0.4
			C481.4,380.2,481.5,380.2,481.2,380.1z M485.4,380.4h0.4C485.6,380.5,485.7,380.5,485.4,380.4z M492.9,317c0.5,0,0.8,0,1-0.3
			c0.5,0,0.8-0.1,1,0.3c0.3,0.7-0.3,1.9-0.4,3.1c-0.5,0.2-1.9,0.5-2.4,0.1c-1,0-1.1,0.2-1.5,0.6c0.1,0.8,0.3,0.7,0.5,1.3
			c0.9,0.1,1.6,0.3,2.4,0.4c0,0,0.1,0.1,0.1,0.1c-0.1,1.7-0.9,4.7-1.8,5.6c-0.7,0.3-1.2-0.7-1.8-0.9c-0.6-0.2-1.2,0-1.7,0
			c-0.1,0.3,0,0.2-0.1,0.4c0,0.8,1.8,2.4,2.5,2.5c-0.1,1.2-1,2-1.7,2.7c-1.4,1.5-2.7,3.2-3.9,4.8c-0.7-0.2-1.6-1.4-2.5-1.1
			c-0.3,0.1-0.4,0.3-0.8,0.4c0,0.4,0.1,0.4,0,0.6c0,1.1,1.1,1.6,2,1.7c-0.3,1.7-2.2,2.3-2.5,3.9c-0.2,0.1-0.1,0-0.3,0.1
			c-1.5,0-2.3-0.9-2.8-1.9c-0.6,0-0.5,0.1-0.9,0.4c0,0.3,0,0.4-0.1,0.5c0.2,1.3,1.3,1.6,1.7,2.7c0.1,0.1,0,0,0.1,0.3
			c-0.7,0.7-1.3,1.4-2,2.2c-0.4,0.4-1.1,0.5-1.4,1c-1.6,0-2.4-1-3.3-1.8c-0.5,0.1-0.5,0.3-0.9,0.5c-0.1,0.2,0,0.1-0.1,0.3
			c0,1.6,1.3,2.2,2.4,2.7c-0.2,0.5-3.9,3-4.6,3.3c-0.6,0.6-2.5-1.8-2.8-2.3c-0.3,0.1-0.2,0-0.4,0.1c-0.1,0.1-0.1,0.1-0.1,0.4
			c-0.3,0-0.4,0.1-0.6,0.1c-0.1,0.2,0,0.1-0.1,0.3c0.1,1.2,1.2,2.2,2,2.7c-0.3,1.3-3.4,2.1-4.5,3.3c-1.1-0.2-1.1-0.8-1.7-1.5
			c-0.2-0.3-0.7-0.3-0.9-0.6c-0.3,0.1-0.2,0-0.4,0.1c-0.4,0.2-0.4,0.5-0.6,0.8c0.2,1.3,1.2,1.7,1.4,2.8c-0.9,0.1-3.1,1.5-3.6,2
			c-0.3,0-0.5,0-0.6-0.1c-0.5-0.2-1.1-1.3-1.3-1.8c-0.4-0.1-0.7-0.2-1,0.1l-0.4,0.4c0,1.1,0.2,2.1,1,2.4c-0.2,1-2.8,2-3.6,2.7
			c-0.8-0.1-1.1-1.1-1.3-1.8c-0.7,0-0.9,0.1-1.4,0.3c-0.1,1.2,0.4,1.9,0.5,2.9c-0.9,0.2-2.3,1.2-2.7,1.9c-1.2,0-1.3-0.9-1.5-1.8
			c-0.4-0.1-0.6-0.1-0.9-0.1c-0.2,0.2-0.5,0.4-0.8,0.5c-0.2,0.9-0.1,1.6,0.5,2c-0.1,1.3-2,1.5-2.8,2.2c-1.2-0.1-1-0.8-1.8-1.3v-0.4
			c-0.8,0-1.1,0.1-1.5,0.4c-0.1,1,0.2,1.6,0.8,2.2c-0.3,0.7-2.7,2-3.7,1.4h-0.4v-0.1c-0.1-0.4-0.2-0.8-0.3-1.1
			c-0.2-0.3-0.5-0.3-0.6-0.8c-0.4,0-0.7,0.1-0.9,0.3c-0.7,0.6-0.1,1.3-0.4,1.9c-0.6,0.4-1.7,0.2-2.3,0.6h-1.3
			c0.6-1.3-0.8-2.4-0.9-3.8c-0.7,0.2-0.8,0.1-1.5,0.5c-0.1,0.6,0,1-0.1,1.5c0.4,0.4,1,1.3,1.1,1.9c-1,0-1.6-0.2-2.3-0.4
			c-0.9-0.2-2.1,0.1-2.8,0.1c-0.7,0-1.8-0.3-2.4-0.4c0.1-1.3-0.4-2.4-0.8-3.6c-1.1,0-1.1,0.2-1.7,0.6c0,1.2,0.2,2.2,1,2.5v0.3
			c-1.5,0.2-3.3-0.5-5.2-0.6c0-0.7,0.3-0.8,0.4-1.4c-0.3,0-0.4-0.1-0.6-0.1c0-0.7,0-1.2,0.1-1.9l-0.6-0.6c-0.8,0-0.8,0.2-1.3,0.5
			c0,0.9-0.5,2.5-0.3,2.9v0.3c-2.3,0-3.8-1.4-5.6-1.5l-0.1-0.1c0-1.3,0.6-2.2,0-3.1c-0.1-0.4-0.3-0.4-0.5-0.6
			c-0.6,0-0.8,0.1-1.1,0.3c0,0.8,0,2,0,2.3v0.5c-1.3-0.4-2.5-1.5-3.6-2.2c0.1-0.6,0.4-1.1,0.9-1.4c-0.1-0.6-0.3-0.7-0.4-1.3
			c-0.3,0-0.4,0-0.5-0.1c-0.9,0-1.6,0.9-1.7,1.8c-1.3-0.5-2.3-1.8-3.3-2.5c-0.2,0-0.3-0.1-0.5-0.1c-0.2-0.2-0.3-0.7-0.5-0.9
			c0-0.4-0.1-0.4,0-0.5c0.2-0.4,0.8-1,1.1-1.3c0-0.3-0.1-0.7-0.1-1l-0.1-0.1c-1.2,0-2.1,0.4-2.5,1.1H392c-1-2.2-3.7-3.5-4.2-6.1
			c1.2-0.2,2.2-0.9,3.2-1.4c0-0.4-0.4-0.9-0.4-1c0.3-0.2,0.2,0.1,0.3-0.3c-0.2-0.1-0.4-0.2-0.5-0.3c-1,0.1-2.5,0.7-3,1.4
			c-0.7-0.4-1.6-3.5-1.8-4.6c0.1-0.1,0.1,0,0.1-0.3c1.3,0,2.9-0.4,3.7-1c0.2-0.2,0.3-0.4,0.5-0.6c0-0.3,0-0.4-0.1-0.5
			c-0.1-0.1-0.1-0.1-0.4-0.1v-0.4c0,0-0.1-0.1-0.1-0.1c-1.4,0.1-2.4,0.8-3.8,1c0-0.9,0.1-5.7,0-6c0-0.3,0.1-0.4,0.1-0.6
			c0.9,0,2.1-0.1,2.7,0.3c0.5-0.1,0.8-0.3,1.1-0.5c0-0.3,0-0.5-0.1-0.6c-0.2-0.4-0.4-0.4-0.6-0.8c-1.1-0.1-2-0.4-2.9-0.5
			c0-1.3,0.1-4.3,0.6-5.1c0.2-0.1,0-0.1,0.3,0c0.6,0.1,1,0.6,1.5,0.8c0.7,0.3,1.7,0.1,2.3,0.5c0.9,0,0.8-0.2,1.1-0.6
			c-0.5-1.5-3.5-1.9-4.8-2.5c0-0.6,0.2-0.6,0.4-0.9c0.5-1.2-0.1-2.4,0.6-3.4c0-0.8,0.1-0.8,0.6-1c0-0.5,0-0.4,0-1
			c1.1,0.1,2.9,0.9,3.8,0.3c0.1-0.1,0,0,0-0.1v-0.9c-0.1-0.2-2.5-1-2.9-1c0-0.1-0.1-0.3-0.1-0.4c-0.3-0.7,1.5-3.3,1.8-4.2
			c0.9,0.1,1.6,1.1,2.5,0.5c0.6,0,0.6-0.1,1-0.4c-0.1-1.2-1.6-2-2.7-1.9c0.1-1.5,1.1-2.6,1.8-3.6c1.4,0.1,2.2,0.8,3.4,1v0.4
			c0,0,0.1,0.1,0.1,0.1c0.3,0,0.5-0.1,0.8-0.1c0.1-0.3,0.1-0.4,0.4-0.5c-0.1-0.8-0.5-1-0.6-1.8c-0.6,0-1.1,0.1-1.4-0.3
			c-0.7,0-0.8-0.1-1-0.5c-0.2-0.3,1.3-2.6,1.5-3.3c0.9,0,1.6,0.3,2,0.8c1.2,0,1.3-0.5,1.5-1.4c-0.8-0.3-1.3-0.7-1.9-1.1
			c0.1-1.2,1.1-1.5,1.4-2.5c0-0.1,0-0.1-0.1-0.1c0.9-0.9,1.9-2,2.4-3.3c0.7,0,2.2,0.8,2.5,1.1c1,0,1.1-0.1,1.4-0.8
			c-0.7-0.7-1.1-1.5-1.9-2c0.2-0.5,0.7-1,1.1-1.3v-0.6h0.5c0.6-0.6,1.3-1.2,1.8-1.9c0.8,0.2,0.9,0.8,1.4,1.3c0.4,0.3,1,0.3,1.4,0.6
			c0.7,0,0.8-0.1,1.1-0.5h0.1c-0.3-1-1.4-1.2-1.9-1.9c-0.2-0.3-0.2-0.6-0.4-0.9c0.1-1,2.5-2.6,3.3-2.9c0.4,0.4,0.8,0.8,1,1.4
			c0.2,0.1,0.1,0,0.3,0.1c0.8,0,1-0.2,1.3-0.8c0.3-0.2-0.7-1-0.5-1.5c0.2-0.6,0.7-0.8,1-1.5c0.5,0,0.7-0.1,1-0.1
			c0.4,0.8,1.1,1.2,1.5,2c0.6-0.1,0.8-0.3,1.3-0.5c0-1.2-0.5-1.7-1-2.3c0.2-1.1,1.9-1.3,2.4-1.8c1,0,2.3,0.8,2.7,1.5
			c0.8,0,0.8-0.2,1.3-0.5c-0.1-0.8-0.3-1.7-0.4-2.5c0.8-0.6,2-1.4,3.3-1.4c0,0.4,0.1,0.7,0.3,0.9c0.1,0.7,0.7,1,1,1.5
			c0.6,0,0.8-0.1,1.1-0.3c-0.1-1.5-0.9-2.2-0.9-3.6h0.5v-0.4c0.5-0.1,0.6-0.3,1-0.4v-0.4c0.9,0,0.9-0.1,1.7-0.3v-0.4h0.6
			c0.2,0.5,0.3,1,0.5,1.5c0.2,0.3,0.5,0.5,0.6,0.8c0.3,0,0.5,0,0.6-0.1c0.1,0,0.3-0.1,0.4-0.1v-1.8h0.3v-0.4c-0.1-0.3-0.4-0.7-0.5-1
			c0.3-0.2,0.6-0.3,0.8-0.8c0.8,0.3,1.7,1.5,2.2,2.2c0.3,0,0.5,0,0.6,0.1c0.3-0.1,0.2,0,0.4-0.1c0.5-0.7-0.2-2-0.4-2.5
			c1.6-0.8,3.3-1.2,5.2-1.7c0.5,0.8,0.5,2.6,1.5,2.9c0.3,0.1,0.6-0.1,0.9-0.3c0.1-1,0.1-2-0.1-2.9c0.1-0.1,0.2-0.2,0.3-0.3
			c0.8-0.6,2.2-0.5,3.4-0.5c0,1.3,0.3,1.4,0.5,2.5c0.7,0.1,0.6,0,1.3-0.1c0-0.7,0.1-1.8,0.4-2.3c0.1-0.3,0.2-0.3,0.4-0.5
			c0.4,0,3.1,0,3.1,0h0.5c0.1,0.6-0.1,1.3,0.3,1.8c0,0.6,0,0.7,0.5,0.9c0.1,0.1,0.3,0,0.5-0.1c0.7-0.3,1.1-1.9,1.4-2.5
			c0.5,0.2,0.8,0.1,1.5,0.1c0.1-0.4,0-0.3,0.3-0.5c0.1,0,1.8,1,1.8,1c0.4,0.5-0.8,1.8-0.3,2.7c0.2,0.4,0.5,0.5,0.9,0.3
			c1.1-0.4,0.9-2,1.8-2.5c0.7-0.4,1.9,0.5,2.4,0.1c0.5,0.1,0.4,0,0.5,0.5c0.3-0.1,0.4,0,0.5-0.1h0.4c0,0.3,0.1,0.5,0.1,0.8
			c-0.3,0.3-0.8,0.6-1,1c-0.2,0.3-0.1,0.7,0,1.1c1.2,0,1.4-0.6,2.5-0.8c0-0.4,0.1-0.7,0.3-0.9c0.8-0.6,3.2,0.6,3.9,1
			c0,0.8-0.5,1.2-1.1,1.4c0,0.6,0,0.9-0.1,1.3c0.3,0.2,0.3,0.2,0.4,0.5c0.7-0.3,1.4-0.4,1.9-0.9c0.4-0.4,0.6-1,1.1-1.3
			c0.2-0.1,0.7,0,1-0.3h0.1c-0.1,0.2-0.1,0.2-0.1,0.5c0.8,0.1,0.9,0.7,1.7,0.9c-0.2,0.6-0.7,1.1-1.1,1.5c0,0.3,0,0.6,0.1,0.8
			c0.5,1.2,2.6-0.3,2.9-0.9c1.6,0.1,2.2,1.3,3.4,1.8c-0.2,0.8-0.6,0.7-1.1,1c-0.2,0.1-0.3,0.6-0.5,0.8c0,0.6,0.2,0.7,0.4,1
			c1.2,0,2.6-0.4,2.9-1.3c0.3,0,0.5,0,0.6,0.1c0.1,0.1,0.1,0.1,0.1,0.4h0.5c0.7,0.7,1.5,1.4,2.3,2c-0.1,1.2-1.5,1.1-2.2,1.4
			c-0.1,0.2,0,0.1-0.1,0.3c0,1,0.4,1,0.8,1.5c1-0.2,2.3-0.5,2.9-1.1c1.6,0.2,1.5,2.1,2.8,2.5c0,0.2-0.1,0.4-0.1,0.6
			c-0.3,0-0.5,0-0.6,0.1c-1.3,0-1.5,0-2.2,0.5c0.1,0.5,0.2,0.6,0.3,1c1.4,0.3,3.4,0.2,4.3,0.4c0,0.5,0.1,0.8,0.4,1.1
			c0,0.4-0.1,0.5-0.1,0.8c-0.6,0-1.4-0.3-1.9,0c-0.1,0-0.3,0.1-0.4,0.1c0,0.8,0.2,1,0.4,1.5c0.9,0.1,1.8,0.2,2.7,0.3
			c0.6,2.1,1.4,5.6,0.8,7.5c0,0,0.4,1.4,0,2v1.1h-0.3c-0.4-1.2-0.5-2.4-1-3.6c-0.3-0.6-0.9-0.9-0.9-1.9h-0.4c0.2-0.9-0.9-2-1.4-2.7
			c-0.7-1.1-1.3-2.4-2.3-3.2c-1-0.8-2.3-1.4-2.9-2.5h-0.4c0-0.3,0-0.4-0.1-0.5c-0.2-0.2-0.4-0.2-0.8-0.3c0-0.3-0.1-0.4-0.1-0.6h-0.6
			c-0.1-1-1-1.1-1.7-1.5c-2-1.3-4-1.6-6-2.5c-1.6-0.7-3.9-1.7-6.4-2.7c-1.6-0.6-3.4-0.8-5.1-1.1c-0.3-0.1-0.5,0.2-0.6,0.1
			c-1.8-0.5-2.9-1.1-5.1-0.8c-0.1,0-2.6-0.3-2.9-0.4c-0.7-0.1-1.4,0.2-2,0.3c-0.4,0.1-0.7-0.2-0.9-0.3c-0.5-0.1-3.6,0.2-3.8,0.3
			c-0.1,0-0.4,0.3-0.5,0.4c-0.8,0.3-1.5,0-2,0.4c-0.3-0.2-1-0.1-1.4,0c-0.2,0.1-0.7,0.5-0.9,0.5c-0.3,0-0.5-0.1-0.8-0.1
			c-1,0.6-3.8,2-5.5,2.2v0.5c-0.2,0.2-0.2-0.1-0.3-0.1c-0.7,0.1-0.6,0.5-0.9,0.6c-0.3,0.1-0.8-0.1-1.3,0.1c-0.6,0.3-1.5,0.7-2,1.1
			c0,0.1-0.1,0.3-0.1,0.4c-0.4,0.3-1.3,0.3-1.7,0.6c-0.8,0.6-1.3,1.5-2.2,2v0.4c-0.9,0-3.3,1.7-3.9,2.2c-0.2,0.1-0.2,0.6-0.4,0.8
			c-0.3,0-0.6,0.1-0.9,0.1c-0.2,0.2-0.2,0.7-0.4,0.9c-0.2,0-0.3,0.1-0.5,0.1c-0.7,0.5-1.8,1.4-2.3,2.2c-1.1,1.5-2.5,2.7-3.6,4.2
			c-0.5,0.7-0.7,1.5-1.1,2.2c-0.8,1.2-2.4,2.2-2.8,3.8c-0.8,0.2-0.9,1.2-1.5,1.7v0.6h-0.4c-1.2,2.3-2.6,4.5-3.8,6.9v0.9
			c-0.1,0.2-0.4,0.4-0.5,0.6v1.4c-0.6,1.7-1,4-1.1,5.9c0,0.1,0.2,0.6,0.3,0.6c0,0.4-0.1,0.8-0.1,1.1c0.3,1.2,0.6,3.6,1.1,5
			c0,0.6,0.1,1.2,0.1,1.8c0.3,1.3,1.1,2.6,1.7,3.7c0.3,0.5,0.1,1,0.4,1.5c0.4,0.7,1.4,1.3,1.9,1.9c1.5,2,3.3,3.8,5.6,5
			c0.7,0.3,1.4,0.3,2.2,0.6c2.1,0.9,4.6,2.4,7.5,1.9c1.8-0.3,5.1,0.9,7.5,0.4c3.3-0.8,6.2-0.8,9.2-1.8c0.4-0.1,1.9,0.1,2.5-0.1
			c0.2-0.1,0.8-0.5,1-0.6h0.8c0.1-0.2,0.2-0.3,0.3-0.5c0.3,0,0.6-0.1,0.9-0.1c0.4-0.2,0.9-0.8,1.3-1h0.8c0.4-0.1,0.7-0.6,1-0.8
			c0.3,0,0.6-0.1,0.9-0.1c0.8-0.4,1.9-1.4,2.9-1.5c0.1-0.3,0-0.2,0.1-0.4c0.1-0.1,0.6-0.2,0.9-0.3v-0.4c-0.3,0.1-0.2,0-0.4,0.1h-0.1
			c0-0.4-0.1-0.2,0-0.4v-0.3c0.4,0.1,0.6,0.3,0.9,0.5c0.7-0.1,1.5-0.6,1.9-1c0.2-0.2,0-0.2,0.1-0.4c0.1,0,0.1,0,0.1,0.1
			c0.6-0.2,0.9-0.8,1.5-1v-0.4c0.4-0.1,0.4-0.1,0.6-0.3V342c1.1-0.2,1.5-1.4,2.2-2c1.1-1,3.2-2.3,3.9-3.4v-0.4
			c0.2-0.3,0.8-0.2,1-0.5c0.2-0.3,0.1-0.6,0.4-0.9c0.1-0.2,0.5-0.1,0.6-0.3c0.3-0.2,1.1-1.1,1.3-1.4c0-0.3,0.1-0.6,0.1-0.9h0.3
			c0.1-0.2-0.1-0.8-0.1-0.8c0.2-0.2,0.5,0,0.6-0.3c0.3-0.5,0.4-1.7,0.1-2c0.9-0.8,0.9-1.7,1.4-2.8c0.2-0.4,0.9-0.9,1-1.4
			c0-0.2-0.1-0.4-0.1-0.6c0.2-0.3,0.5-0.2,0.5-0.5c0.1-0.6,0.4-0.7,0-1.1c0.2-0.1,0,0,0.4,0c0,0,0.1-0.1,0.1-0.1c-0.1-2,1-7.5-0.4-9
			v-0.3c-0.3,0.2-0.2,0.1-0.3,0.5c-0.2-0.3,0-0.8-0.1-1.1c-0.2-0.5-0.7-1.4-1.1-1.8c-0.2-0.1-0.1-0.1-0.4,0c0.1-0.3,0.3-0.2,0.1-0.4
			v-0.3c-0.3,0.1-0.2,0.1-0.4,0.3c-0.1-0.1-0.2-0.3-0.3-0.4c-0.3-0.3,0.4-0.4,0.3-0.6c-0.2-0.5-0.7-1-0.9-1.4
			c-0.6-1.3-0.4-2.1-1.7-2.9c-0.5-0.4-1.1-0.7-1.7-1c-0.3-0.2-0.7,0.1-0.9,0c-0.2-0.1-0.3-0.6-0.5-0.8c-0.4,0-0.8-0.1-1.1-0.1
			c-2.7-1.8-8.6-1.6-11.4-1.8c-0.2,0-3.5,0.3-3.7,0.4c0,0.1-0.1,0.3-0.1,0.4c-0.3,0.1-1.4-0.3-1.9-0.1c-0.8,0.2-2.1,0.5-2.9,0.9
			c-0.7,0.3-1.2,0.9-1.8,1.3c-0.6,0.4-1.8,0.5-2.4,0.9c-0.7,0.5-1.3,1.4-2,1.9c-0.4,0.3-0.8,0.3-1.1,0.6c-0.2,0.2-0.2,0.5-0.4,0.6
			h-0.4c-0.7,0.6-1.4,2-2,2.7c-0.1,0.1-0.5,0.1-0.6,0.3c-0.8,0.9-1.2,2.2-1.9,3.2c-0.3,0.4-1.4,1.5-1.7,1.9v0.8
			c-1.3,3.5-2.6,7.6-0.9,11.2c0.4,0.9,2.3,3.9,3.1,4.3c5.3,3.2,11.9,1.7,16.5-1l1.1-1.1c0.5-0.2,0.9-0.3,1.4-0.5
			c1.1-0.7,2.9-2.5,3.4-3.7c0.4-0.7,0.1-1.8,0.3-2.7c0.1-0.5,0.3-1.9,0-2.8c-0.2-0.5-0.7-0.9-1-1.3c-0.6-0.9-0.5-2-1.3-2.7
			c-1.8-1.5-6.4-1.9-8.5-0.6c-1.3,0.8-3.7,4.9-2,6.7c0.2,0.6,1,0.7,1.4,1.1h1.5c0.5-0.2,0.7-0.9,1.3-0.6c0.6-0.8,1.2-2.7,0.3-3.4
			c0-2,2.8-2.6,4.2-1.4c0.2,0.2,0.1,0.1,0.3,0.4c0.3,0.1-0.7,0.5-0.8,0.6c0,0.1,0.3,0.3,0.1,0.5l-1,0.5c-0.3,0.5-0.3,1.1-0.6,1.5
			c0,0.7,0,1.1,0.5,1.3c0.1,0.1,0,0,0.3,0.1c0.8-0.7,1.5-1.5,2-2.4c0.4,0.2,0.4,1.7,0.3,2c0,0.6-0.1,0.8-0.4,1.1
			c-0.3,0.1-0.4,0-0.6-0.3c-0.6,0-0.7,0.1-1.1,0.3c-0.2,1-0.1,1.8,0.5,2.4c-0.4,1.2-1.5,1.8-2.3,2.7c-0.2-0.1-0.4,0-0.5-0.1
			c0-0.3-0.1-0.6-0.1-0.9c-0.1-0.3-0.5-0.5-0.6-0.8c-0.9,0-1,0.3-1.5,0.6c0,0.8,0.2,1.3,0.6,1.7c0,1.1-2.7,2-3.8,2
			c0.1-1.6-0.2-1.8-0.9-2.5c-0.7,0-0.7,0.1-1.1,0.4c0,0.6-0.1,1.6,0.1,1.9c-0.1,0.4-0.1,0.4-0.3,0.6c-1.5-0.2-3.2-0.3-4.5-0.6v-0.8
			c0.5-0.4,0.9-0.9,1.4-1.4c0-0.3,0-0.4-0.1-0.5c-0.2-0.4-0.4-0.4-0.6-0.6c-1.8,0.1-1.6,1.2-2.5,2l-0.1,0.1v-0.1
			c-1.4-0.6-2-2.9-2.5-4.3c0.8-0.4,1.9-0.6,2.7-1.1c0.1,0,0.2-0.1,0.3-0.1c-0.2-0.3,0-0.1-0.4-0.3c0.1-0.1,0.2-0.2,0.3-0.3
			c0-0.5-0.1-0.6-0.3-0.9c-1.2,0-1.9,0.3-2.8,0.4c0,0-0.1-0.1-0.1-0.1c0-0.5,0.6-4.1,1.1-4.3c0.2-0.1,0.7,0.2,0.9,0.5
			c1.3-0.2,2-0.6,2.8-1.1c0-0.5,0-0.9-0.3-1.1v-0.3c-0.4-0.1-1.6,0-1.9-0.3c-0.1,0-0.3-0.1-0.4-0.1c0.1-1.5,1.3-2,1.7-3.2
			c0.8,0.2,2.8,1.9,3.6,1.4h0.4c0.1-0.3,0.2-0.6,0.3-0.9c-0.2-0.2-0.3-0.6-0.5-0.8c-0.5-0.3-0.9-0.4-1.3-0.8
			c-0.2-0.3-0.2-0.6-0.5-0.9c0.1-1.2,2.7-2.9,3.2-3.6c0.4,0.3,0.1,1,0.4,1.5c0.3,0.6,1,0.7,1.4,1.1c0.6,0,0.7-0.1,1-0.3
			c0-1-1.1-3.3-0.9-3.7c0.4-0.9,3.1-1.8,4.1-2.3c0,0.8-0.6,2.7,0,3.6c0,0.1,0.1,0.2,0.1,0.3c0.3,0,0.6,0,0.8-0.1
			c0.7-0.4,0.1-1,1.3-1.3c-0.2-0.3,0-0.1-0.4-0.3c0.1-1.1,0.6-1.6,0.4-2.8c0.6-0.1,1.8-0.2,2.3-0.5c0.3,0,0.4,0.1,0.6,0.1
			c-0.1,0.9-0.9,1.8-0.3,2.7c0.1,0.3,0.1,0.3,0.3,0.5c1.5-0.1,2.2-2.4,1.9-3.6c0.2-0.1,0.4-0.2,0.5-0.4c0.7,0,1.2,0.4,1.8,0.3
			c0.3-0.1,0-0.3,0.4-0.3c0.7,0.1,0.2,0.6,1.1-0.1c0,0.1,0.1,0.3,0.1,0.4c0.2,0.7-1.2,2.1-1,3.7c0.3,0.1,0.2,0,0.4,0.1
			c1.4,0,2.3-1.6,2.5-2.7c0.1-0.3-0.1-0.4-0.1-0.9c1.7,0,3,0.3,4.5,0.5c-0.1,1.2-1.1,1-1.5,1.8c-0.2,0.4,0,0.4-0.4,0.6
			c0.1,0.7,0.4,0.6,0.8,1c1.3-0.1,2.8-1.5,3.4-2.3c1.6,0,2.2,1.2,3.6,1.7c-0.1,0.2,0,0.1-0.1,0.3c-0.8,1.3-2.8-0.2-3.4,2
			c0.2,0.2,0.4,0.4,0.5,0.6c1,0,2.4,0.1,3.2-0.5c1.7,0.1,1.4,1.9,2.3,2.7v0.3c-0.8,0.1-2.2,0-2.8,0.6c-0.1,0.1-0.2,0.3-0.3,0.4
			c0.1,0.5,0.3,0.7,0.8,0.9c0.7,0.5,2.6-0.1,3-0.4c0.3,0.2,0.6,0.5,0.8,0.8c-0.3,0.4,0.3,1.2,0.1,1.7c0,0.3-0.1,0.4-0.1,0.6
			c-0.5,0.1-1.6,0.2-2,0.5c-0.7,0-1,0.1-1.4,0.3c0,0.4,0,0.7,0,0.8c0,0.3,0,0.5,0.1,0.6c0.5,0.4,2.2,0.4,2.8-0.1
			c0.3,0,0.4,0,0.5,0.1c0.6,0.7,0.2,2.7,0,3c-0.4,0.6-0.9,0-1.4,0.4c-1,0-1.2,0.2-1.8,0.5c0,0.3,0,0.4-0.1,0.5
			c0.2,0.3,0.3,0.6,0.5,0.9c0.6,0.1,0.9,0.1,1.5,0v0.4h0.4v0.1c-0.4,0.2-0.6,0.5-1,0.8c0,0.5-0.2,0.3,0.3,0.5
			c-0.6,0.5-1.1,1.4-1.3,2.3c-0.2,0.1-0.1,0-0.3,0.1c-0.9-0.1-1.5-0.6-2-1c-0.3,0.1-0.3,0.1-0.5,0.4c-0.1,0.2,0,0.5-0.3,0.8
			c0.4,1.1,1.8,1,2.3,1.9c0.1,0.1-1.7,2.9-1.9,3.6c-1.5,0-3.2-1.8-3.8-1.7c-0.6,0.1-0.6,0.4-1.1,0.6c0.1,1.6,1.7,1.9,2.8,2.4
			c-0.2,0.7-2.3,2.2-3,2.5c-0.3-0.3-0.6-0.5-1-0.6v-0.4c-0.9-0.2-0.9-0.8-2.3-0.8c0,0.9-0.3,0.9-0.5,1.5c0.8,0.6,1.6,1.3,2.4,1.8
			c-0.3,0.6-2.3,2.6-2.8,2.9c-0.6,0.3-1,0.4-1.4,0.9c-1.6-0.1-0.9-1.9-2.2-2.3c-0.1-0.1-0.4,0-0.6,0.1c-0.3,0.1-0.4,0.3-0.6,0.5
			c0,0.4,0.1,1.2,0.3,1.5c0.2,0.4,0.7,0.8,1.1,0.9v0.3c-0.9,0.8-2.3,1.3-3.6,1.8c-0.4-0.9-1.3-1.6-1.8-2.4c-1.2,0-1.1,0.6-1.7,1.1
			c0.3,0.8,0.9,1.4,1.7,1.8c-0.6,1.4-2.6,0.9-3.6,1.9c-1.3-0.3-0.5-1.4-1-2.4l-0.5-0.5c-1.4,0-1.1,0.9-1.7,1.7
			c0.3,0.5,0.7,1.1,0.8,1.9c-1.7,0.1-4,0.6-5.3,0.9c-0.2-0.8,0.4-1.2,0.4-2.4l-0.8-0.8c-0.1-0.1-0.5,0-0.8,0.1c-0.2,0.8-0.5,1-0.5,2
			h-0.4c0.1,0.4,0.4,0.7,0.1,1.1v0.3c-0.9,0.2-2.3,0.5-3.6,0.5c-0.4,0-0.8-0.3-1.1-0.1h-0.8c0.2-0.4,0.2-0.4,0.6-0.5
			c0-1.5-0.4-2.1-0.9-3c-0.9,0-1,0.2-1.5,0.5c0,1.3-0.1,2.1,0.3,2.9l-0.1,0.1c-0.9-0.1-5,0.1-6-0.6h-0.3c0-1.9,0.7-2.4,0.8-3.9
			c-0.9,0-1.3,0-2,0.1c-0.1,0.5-0.2,0.7-0.5,1c-0.1,0.1-0.1,0.1-0.4,0.1c-0.1,0.6,0,0.8,0,1.4c-0.6-0.1-0.7-0.2-1,0.1h-0.1
			c0-0.1,0.1-0.2,0.1-0.3c-1.7-0.6-3.4-1.2-4.6-2.4c-0.1-0.1,0,0-0.1-0.3c1.1-0.4,1.3-1.4,2.4-1.8c0-0.5,0.1-1,0.1-1.5
			c-0.5,0-0.9-0.1-1.4-0.1c-0.7,0.7-1.6,1-1.9,2.2c-0.2,0.1-0.1,0-0.3,0.1c-0.9-0.2-2.8-3.3-3.4-4.2c0.1-0.2,2.9-2.2,3.3-2.4
			c0-0.6,0-0.9-0.3-1.1c-0.1-0.1-0.3-0.2-0.4-0.3c-0.9,0.1-3,1.2-3.2,1.9h-0.3c-0.1-0.4-1.1-3.6-1.3-3.8c0-1.4,1.7-2,3.1-2
			c0.2-0.7,0.5-0.9,0.1-1.7c-0.3-0.1-0.5-0.1-0.6-0.4c-0.8,0-1.8,0.4-2.3,0.8c-0.3,0-0.4,0-0.5-0.1c-0.3-0.3-0.5-2.6-0.1-3.2
			c0-0.7,0.1-1,0.3-1.4c1,0,2.6-0.3,3.3,0.3c0.9,0,1.3,0,1.7-0.5h0.1c-0.1-0.4-0.3-0.7-0.5-1c-1.3-0.3-2.9-0.6-4.2-0.9
			c0.1-1.1,0.4-1.9,0.1-2.8h0.1c0.2-0.1,0,0,0.3,0c0.3-0.6,0.5-1.4,1-1.8c0.4-0.2,2,0.7,2.4,1c0.6,0,0.6-0.1,1-0.4
			c0-1.5-1.2-1.9-2.3-2.4c0-1.9,1-2.1,1.3-3.4c0.9,0.1,1.5,0.7,2.3,0.9c0.8,0.2,1.5,0.1,2.3,0.4c0.1-0.2,0.2-0.4,0.4-0.5
			c-0.1-1.6-2.2-1.7-3.3-2.3c0.1-0.9,0.8-0.9,0.6-1.7c0.2-0.2,0.5,0,0.6-0.3c0.2-0.3-0.1-0.4,0-0.6c0.3-0.6,1-0.7,1.3-1.5
			c0.2,0,2.7,2.3,2.9,2.5c0.5,0,0.6,0,0.9-0.3c0.1-0.2,0.1-0.3,0.1-0.8c-0.9-0.9-1.6-2.3-2.8-2.9c0.1-0.4,0.2-0.5,0.1-0.8
			c0.2-0.3,2.1-2.7,2.4-2.8c0.5-0.2,1.7,0.7,2,1.1c0.5,0,1,0,1.3-0.1c0.1-0.2,0-0.1,0.1-0.3c-0.1-1.5-1.4-1.5-1.8-2.4
			c-0.2-0.4,0.2-0.3-0.1-0.6c0.2-0.2,0.3-0.2,0.4-0.5h0.5c0.1-0.4,0.1-0.5,0.3-0.8c0.3-0.1,0.3,0,0.5-0.1h0.3v-0.4
			c0.3-0.1,0.2,0,0.4-0.1c0.1,0,2.2,1.8,2.4,2c0.8,0,0.8-0.3,1.1-0.6c-0.1-0.9-0.7-1.4-1.3-1.8v-0.5h0.5c0,0-0.1-0.1-0.1-0.1
			c-0.2-0.2-0.3-0.2-0.5-0.4c-0.1-0.3,0.1-0.5,0.1-1c0.2,0.1,0.1,0.1,0.4,0.3c0.5-0.5,1.2-0.7,1.7-1.1c0.9,0.2,0.7,0.7,1.1,1.1
			c0.2,0,0.4,0.1,0.6,0.1c0.3,0.2,1,0.7,1.3,1c0.4-0.1,0.4-0.1,0.8-0.3c0-0.4,0.1-0.4,0-0.6c0-0.7-1.4-2.2-1.8-2.5
			c0.2-1,1.5-1.6,2.3-2c-0.1-0.3-0.1-0.5-0.3-0.8v-0.1c0.5,0.2,0.9,0.4,1.3-0.1h0.3c0,0.5,0,1.8-0.1,2c0.2,0.6,0.8,0.8,1.1,1.3
			c0.6,0,0.8-0.1,1.1-0.3c0-1.1-0.3-2.8-1-3.3c0.3-0.9,2.4-1.6,3.2-1.7c-0.1,1.6,0.8,3.8,2.2,2.8h0.3c0-1.4,0-2.6-1-3.2
			c0.3-0.6,3-1.6,4.1-1.8c0.2,0.7,0.3,2.7,0.3,3c0.2,0.1,0.6,0.2,0.8,0.4c0.6,0,0.7-0.1,0.9-0.6c0.3-0.5,0.3-2.3-0.1-2.8
			c0.1-0.3,0-0.2,0.1-0.4c0.6-0.3,2-0.2,2.9-0.6v-0.3c0.1,0,1,0.3,1,0.3c0.1,0,0.2,0.1,0.3,0.1c0,1-0.1,1.8,0,2.7
			c0.2,0.1,0.3,0.1,0.4,0.3c0.3,0,0.7-0.1,1-0.1c0.4-1.2,0.5-2.2,1-3.2c0.6,0,1.2-0.3,1.7,0c0.7,0,1.1,0,1.5,0.3
			c-0.3,0.6-0.7,1.7-0.4,2.2c0.1,0.5,0.5,0.8,0.9,0.5c0.3-0.1,2-2.5,2.2-2.9c1.2,0.1,2.2,0.3,3.4,0.5c-0.1,0.8-0.8,1.7-1.3,2.2
			c0,0.9,0.3,1,0.5,1.5c1.6-0.1,2.2-1.8,2.7-3.2c1.2,0,2.4,0.3,3.3,0.8c-0.2,0.6-0.5,1.4-1,1.7c0,0.8,0.2,0.9,0.4,1.5h0.6
			c0.8-0.8,1.6-1.4,2.2-2.5c0.9,0,1.8,0.9,3.1,1c0,0.8-0.4,1.2-0.8,1.7c0.1,0.7,0.3,0.7,0.6,1c0.8-0.1,1.3-0.6,2-0.9V292
			c1.3,0,1.2,0.4,2.4,0.4c0.1,0.5,1.7,1.1,2.2,1.3c-0.1,0.7-3.2,3-3.8,3.3c0.1,0.5,0.2,0.6,0.3,1c0.4,0.1,0.6,0.2,0.8,0.1
			c0.7,0,3.6-1.6,3.9-2c0.1-0.3,0.3-0.7,0.4-1c0.2-0.1,0.1,0,0.3-0.1c0.9,0.1,1.3,0.6,1.9,1c-0.2,0.8-1.5,2-2.2,2.4
			c0,0.3,0,0.6,0.1,0.8c0.1,0.3,0.3,0.4,0.5,0.6c1-0.2,2.4-1.4,2.9-2.2c0.4,0.1,0.7,0.2,0.9,0.4c0.4,0.3,0.7,0.8,1,1.1
			c-0.2,0.7-2.4,1.5-3.2,1.8c0,0.4,0,0.7-0.1,0.9c0.1,0.3,0.2,0.3,0.4,0.5c0.9,0,1.8,0,2.3-0.4c1.1,0,1.6-0.7,1.9-1.4
			c1.1,0.4,1.2,1.8,2.2,2.2c0,0.2-0.1,0.4-0.1,0.6c-1.5,0-2.2,0.5-3.2,1c0,0.8,0.3,0.8,0.6,1.3c1.8,0,2.4-0.5,3.6-0.8
			c0.2,0.3,0.9,1.3,1,1.7c0.1,0.4-0.2,0.2-0.3,0.3c0,0.2,0.4,1.1,0.4,1.1c-0.1,0.2,0,0.1-0.1,0.3c-0.4,0.3-2.5,1-3,1.1
			c-0.1,0.6,0,0.7,0,1.3c0,0,0.1,0.1,0.1,0.1c1.3-0.1,2.3-0.4,3.9-0.4c0.1,1.1,0.7,2.9,0,3.8c-0.4,0.8-1.6,0.4-2.3,0.9
			c-0.3,0.2-0.4,0.5-0.6,0.8C492.4,316.5,492.7,316.6,492.9,317z M443.5,289.1v0.3h-0.1v-0.3H443.5z M460.2,344.4v-0.3
			c0.2,0.1,0.1,0,0.3,0.1h-0.1L460.2,344.4z M606.9,319.5c-0.1,0.1-0.1,0.1-0.4,0.1v0.4c-1.1,0.4-2,1.6-3,2.2
			c-1.3,0.6-3.8,0-5.2,0.3c-0.3-0.3-0.6-0.3-1-0.5c-0.6-0.3-0.4-0.9-0.8-1.4c-0.7-1-2.1-1.6-2.5-2.8c-1.9-5,0.1-8.3,3.8-10.4
			c0.7-0.4,2.1-1.1,2.9-1.1c1.1,0,2,0.6,3.2,0.8v0.4c1.4,0.4,1.7,1.9,3.1,2c0.2,1,0.6,1.8,1,2.5c0,0.3,0.1,0.7,0.1,1
			C608.9,315.1,608.5,317.9,606.9,319.5z M542.9,289.6c0.5,0.1,0.9,0.2,1.1,0.4c0.6-0.1,0.5-0.4,0.9-0.6c0-1.1-0.5-1.7-1.4-1.9v-0.5
			c-1.4-0.1-1.7-1.2-2.9-1.5c-0.2,0.2-0.4,0.3-0.6,0.4c0,0.4,0.1,0.2,0,0.4C540.3,287.6,542.9,288.2,542.9,289.6z M632.9,291.9h0.1
			c0.1-0.2-0.1-0.2-0.1-0.3c-0.1-0.6-0.2-0.6-0.6-0.8c-0.2-0.1-0.4-0.1-0.8-0.1c-1,1.5-3.9,1.9-5.5,2.8c-0.1,0.4,0,0.7-0.1,0.9
			c0.1,0.6,0.6,0.6,0.9,1c1.6-0.3,3.1-1.5,4.3-2.3C631.8,292.7,632.5,292.7,632.9,291.9z M585.3,300.9h0.5c0-0.1,0.1-0.3,0.1-0.4
			c0.3-0.2,0.7-0.3,1-0.5c0.1-0.5,0.7-1.2,0.6-1.7c0-1.3-1.4-2.9-2.2-3.6c-0.5-0.4-2.2-0.4-3.4-0.4c-0.5,0.5-1.3,0.8-1.8,1.3
			c-1.3,1.4-0.7,3.7,0.3,5.1C582.2,301.2,583.4,301.6,585.3,300.9z M264.1,296.3v-0.4h-0.3c0,0-0.1,0.1-0.1,0.1
			C263.9,296.4,263.7,296.2,264.1,296.3z M335.2,299.4c-0.1,0.3-0.1,0.3-0.3,0.5c0.8,1.3,2.3,2.2,3.8,2.8c0.4,0.1,1.1-0.1,1.5,0.1
			c0.1,0.1,0.2,0.5,0.4,0.5c0.4,0.1,0.3-0.2,0.5-0.3c0.2,0.2,2.1,0.6,2.4,0.8c0.8,0.3,1.8-0.1,2.4,0c1.8,0.4,3.6,0.5,4.6,0.9h1
			c1.7,0.4,3.6,0.1,4.8,0.5c0.4,0.1,1.2-0.1,1.5-0.1c0.9-0.2,1.5,0.3,1.9,0.4c0.3,0.1,1-0.3,1.3-0.4c0,0.1,0.1,0.2,0.1,0.3
			c0.7,0.2,0.9-0.2,1.3-0.1c2.2,0.4,4.1,1.8,5-0.9c-0.2-0.2-0.2-0.2-0.3-0.5c-0.3,0-2.3-0.3-2.3-0.3c-0.1,0-0.4,0.4-0.5,0.4
			c-0.3,0-0.6-0.3-1-0.1v0.3c-0.6,0.2-0.7-0.3-1.1-0.3c-0.1,0.2,0.1,0.3-0.3,0.3v-0.3c-0.1,0-0.6-0.1-0.6-0.1
			c-0.3,0-2.7,0.3-2.7,0.3c0-0.1-0.1-0.3-0.1-0.4c-0.5,0-1.1,0.1-1.7,0.1c-0.7-0.1-1.6-0.1-2.4-0.1c-0.3,0-0.5,0.1-0.8,0.1
			c-0.1,0-0.5-0.4-0.6-0.4c-0.3,0.1-0.6,0.2-0.9,0.3c-0.7-0.1-1.5-0.5-2.2-0.6c-0.5-0.1-1.4,0.2-1.7,0.1c-1.5-0.7-3.7-0.9-5.6-0.5
			V302c-2.4-0.5-5.4-0.9-6.5-2.7c-0.3,0.2-0.1-0.1-0.3,0.3c-0.4-0.2-0.3-0.4-0.6-0.6c0.1-0.4,0.2-0.6,0.4-0.9v-0.3c-0.6,0-0.7,0-1,0
			l-0.1,0.1c0,0.5,0.1,0.9,0.1,1.4L335.2,299.4L335.2,299.4z M362.3,304.4c0-0.1,0.5,0.1,0.8,0c-0.1,0.2-0.1,0.3-0.1,0.6
			c-0.1-0.1-0.1-0.1-0.1-0.4c-0.5,0-0.5,0-0.8,0.3h-0.1C362,304.6,362.1,304.6,362.3,304.4z M360.6,304.4h0.1v0.3h-0.1V304.4z
			 M357.6,304.6c-0.2-0.1-0.1,0-0.3-0.1C357.6,304.5,357.5,304.5,357.6,304.6z M357.2,304.7c-0.2-0.1-0.1,0-0.3-0.1
			C357.2,304.7,357.1,304.6,357.2,304.7z M353.7,304.6c-0.3,0.3-0.4,0.2-0.6,0H353.7z M347.9,303.8h0.4v0.1l-0.1,0.1h-0.3V303.8z
			 M259.9,300v-0.4h-0.3c0,0-0.1,0.1-0.1,0.1C259.7,300.1,259.5,299.9,259.9,300z M308.2,300.9v-0.1c0-0.1,0-0.1-0.3-0.3
			c0.1,0.2,0,0.1,0.1,0.3C308.2,300.8,308.2,300.8,308.2,300.9z M283.4,316.9v0.4c1.3,0.2,2.7,0.6,3.8,1c1-0.2,2.3,0.4,3.3,0.6
			c2,0.5,3.7,0.3,4.8,0.1v0.5c1.3,0,2.3,0.2,3.7,0.5c0.5,0.1,2-0.1,2.2,0c1.1,0.5,3.1,0.5,3.8,0c0.1,0.3,0,0.1,0,0.5
			c0.5,0,1.1-0.1,1.7-0.1V320c0.1,0.1,0.1,0.1,0.1,0.4h0.6v0.4c1.1,0,2.6,0.2,3.2-0.3c0.1-0.1,0.1-0.1,0.1-0.4
			c0.3-0.1,0.2,0,0.4-0.1c0.3,0.1,0.2,0.1,0.5,0.3c-0.2,0.3-0.3,0.3-0.8,0.3v0.4c0.5,0,1.4,0.1,2.3,0.1c0-0.7-0.2-0.7,0.3-0.9v-0.3
			c0,0-0.1-0.1-0.1-0.1c-1.5,0.1-1.3,0-2.7-0.3c-1.1,0-2.1,0.1-3.2,0.1c-0.5-0.1-1-0.3-1.8-0.3c-0.4,0-0.3,0.4-0.8,0.3l-0.4-0.4
			c-0.4-0.2-0.9,0.1-0.9,0.1c0-0.1-0.1-0.2-0.1-0.3c-0.3-0.1-3.2-0.4-3.2-0.4c-0.1,0-0.7,0.3-0.9,0.3c-0.1,0-0.2-0.4-0.3-0.4
			c-0.4-0.2-0.9,0.2-1.1,0.1v-0.3c-0.2-0.1-2.7-0.3-2.7-0.3l-0.3,0.3c-0.2-0.2,0-0.2-0.5-0.3c-0.3,0-0.6,0.1-0.9,0.1
			c-0.1-0.1-0.2-0.3-0.3-0.4c-0.9-0.4-2-0.1-2.9-0.4c-1.2-0.3-2.7-0.6-3.8-0.8c-0.3,0-0.5,0.1-0.8,0.1c-0.1,0-0.9-0.7-1.1-0.8
			c-0.4-0.1-0.1,0.3-0.5,0.1c-0.6,0-0.5,0.1-0.5-0.4c-1.8-0.1-2.3-0.9-4.1-0.9v-0.4c-0.6,0-0.8-0.3-1.1-0.4
			c-0.3-0.1-0.7,0.1-0.8,0.1l-1.4-0.4c0-0.1-0.1-0.3-0.1-0.4c-0.2-0.1-0.6,0.2-0.6,0.1l-0.3-0.5c-0.5-0.3-1.4-0.4-1.7-0.1
			c-0.4-0.4-0.6-0.6-0.8-1.1c-0.2,0-0.4-0.1-0.6-0.1c0,0.1,0.1,0.4-0.1,0.3c-0.7-0.3-1.4-1-2.3-1.1c-0.1-0.5-3.4-2.2-4.2-2.3v-0.4
			c-0.6-0.3-0.9-0.6-1.7-0.6v-0.4c-0.8-0.3-1.2-1-1.9-1.3v-0.4h-0.5c-0.1-0.6-0.3-0.6-1-0.6c0.1-0.1,0.2-0.2,0.4-0.3
			c-0.2-1-1.8-1.7-1.3-3c-0.1-0.4-0.1-0.3-0.3-0.6h-0.4c0,1.5,0.1,3.2,0.9,4.1c0.4,0.5,1.1,0.8,1.4,1.4h0.4c0.2,1.1,1.2,1.1,1.9,1.7
			c0.2,0.1,0.2,0.5,0.4,0.6c2,1.4,4.2,2.1,6.4,3.4c1,0.6,2.3,1.5,3.8,1.5v0.4c1.2,0.2,2,0.9,3,1.3c0.9,0.3,1.6,0.2,2.7,0.5
			c0.2,0.1,0.5,0.5,0.6,0.5c0.3,0,0.5-0.1,0.8-0.1c0,0.1,0.1,0.3,0.1,0.4C281.6,316.7,283.1,316.9,283.4,316.9z M305.8,319.7
			c0.3,0.1,0.3,0.1,0.5,0.3l-0.3,0.3h-0.3V319.7z M307.5,304.2h0.3c0.2,0.2,0.3,0.6,0.5,0.8h0.5c0.4,0.3,0.6,1,1,1.3
			c1.7,1.1,3.8,1.5,5.9,2.2c1.2,0.4,2.2,1.1,3.3,0.6c0.1,0.2,0.1,0.2,0.1,0.5c3.1,0.6,5.5,1.3,8,1.7v-0.4c0.1,0,0.4,0,0.5,0.1
			c0,0.1,0.1,0.3,0.1,0.4c0.7,0.4,1.8,0,2.4,0.3c0.3,0,0.7-0.1,1-0.1v0.3c0.6,0.3,1.3-0.1,1.7,0c1.1,0.2,2.3,0.6,3.7,0.4
			c0.9-0.1,1.2,0.4,2.2,0l0.4,0.4c0.2,0.1,0.3-0.1,0.3-0.1c0.7-0.1,3.7,1,4.2,0.3c0.1,0.1,0.1,0.1,0.1,0.4c1.3,0.1,2.1,0,3-0.1
			c0.2,0.1,0.3,0.5,0.8,0.4c0.2,0,0.4-0.2,0.5-0.4c0.3,0.2,0.2,0,0.1,0.4c0.9,0.3,2,0.3,3,0.4c0.4,0,0.8-0.1,1.1-0.1
			c3,0.7,6.9,0.6,9.9,0.6v-0.4c0.1,0.1,0.1,0.1,0.1,0.4h3.4c0.1,0,0.7-0.3,0.9-0.3c0.8,0.3,2.2,0.3,3.1,0.1c1-0.2,2.8,0.4,3.6-0.1
			c0.4-0.1,0.5-0.3,0.8-0.5c-0.1-0.2,0-0.1-0.1-0.3c-0.1-1.3-1.8-1.1-2.4-1.8c-0.9,0.2-0.8,0.9-1,1.3c-0.7,0.5-2.3-0.2-3.2,0.1v0.3
			c-0.3,0.1-1.8-0.6-2.7-0.3c-0.3,0.1-4.7,0.2-6-0.1h-2.8c-2.8-0.6-7.1-0.4-9.8-1c-1.1-0.2-2.6,0-3.8-0.3c-0.3,0-0.7,0.1-1,0.1
			c-1.6-0.5-3.6-0.4-5.1-0.8c-0.4-0.1-0.9,0.2-1,0.1c-1-0.2-1.8-0.5-2.7-0.4c-0.7,0.1-1.6-0.2-2-0.4c-0.6-0.2-2.1,0.1-2.4,0
			c-0.5-0.2-2.2-0.6-2.8-0.8c-0.7-0.2-2.5-0.6-2.8,0.1h-0.8c0.1-0.3,0.1-0.3,0.4-0.5c-0.4-0.6-1.7-0.6-2.3-0.4c-0.1-0.1,0,0-0.3-0.1
			V308c-0.8-0.1-1.3-0.5-2-0.3c-0.5-0.9-1.3-0.4-2.4-0.9c-0.7-0.3-1.2-0.8-2-0.6V306h-1c-0.2-0.1,0-0.4-0.1-0.5
			c-0.5-0.5-1.4-0.3-1.9-0.8c-0.6-0.5-0.9-1.4-1.9-1.5c0.1-0.1,0,0,0.3-0.1c-0.1-0.6-0.5-0.5-0.8-0.9c-0.2-0.4,0.1-0.5-0.1-0.9v-0.1
			h-0.3c-0.1,0.8,0,1.1-0.1,1.9C307.3,303.4,307.2,303.8,307.5,304.2z M351.7,312.5c0.1,0,0.2,0.1,0.3,0.1c0,0-0.1,0.1-0.1,0.1v0.1
			h-0.3C351.7,312.7,351.7,312.6,351.7,312.5z M347.7,312.6c-0.2-0.1-0.1,0-0.3-0.1C347.6,312.5,347.5,312.5,347.7,312.6z
			 M347.2,312.6h0.1v0.3h-0.1V312.6z M342.7,312.2c-0.2,0.1-0.2,0.1-0.4,0H342.7z M336.1,311.8c-0.3-0.1-0.2-0.1-0.4-0.3
			C335.9,311.7,336,311.7,336.1,311.8z M335.2,311.4c-0.2-0.1-0.1,0-0.3-0.1C335.2,311.4,335.1,311.3,335.2,311.4z M603.6,313.5
			c-0.9-1.9-1.4-2.8-4.3-2.7c-1.3,1-1.9,1.1-2.5,2.5c-0.7,1.6,1.2,4,2,4.5c1.9,1.1,4.6-0.5,5.1-2.2c0.2-0.2,0.4-1.4,0.1-1.9
			C603.9,313.6,603.7,313.6,603.6,313.5z M539.2,317.9c1.3-0.4,2.9-0.7,4.2-1.4c-0.1-0.7-0.2-0.8-0.5-1.3h-0.6
			c-0.7,0.7-4.7,0.9-6.1,1c-0.2,0.4-0.2,0.5-0.6,0.6c0.1,0.6,0.1,1,0.5,1.5C536.5,318.2,538.4,318.2,539.2,317.9z M365.5,319.3
			c-0.5,0.1-1.6,0.3-2.2,0.4c-0.3,0-0.7-0.1-1-0.1c-3.7,0.8-9.4,0.6-13,1.1c-0.3,0.1-0.9-0.3-1.1-0.3c-1,0-3.3,0-4.5,0.3
			c-2.1,0-4.2-0.1-6.2-0.1c-0.7,0.2-1.8,0-2.5-0.1c-0.3,0-2.7-0.1-3,0v0.3h-0.3v-0.3c-0.4-0.1-1.1,0.1-1.5,0.1
			c-1.7,0-5.1-0.5-5.7-0.1c-0.5-0.1-0.3,0.1-0.4-0.3c-0.2,0-2.3,0-2.3,0v0.3c-0.1,0-1.1,0-1.1,0c-0.2,0-0.6-0.3-0.8-0.4
			c-1.1-0.3-2.6,0-3.6-0.1c-0.5-0.1-0.6,0.3-0.9,0.3V320c-0.3,0-0.5-0.1-0.8-0.1c0,0.1-0.1,0.3-0.1,0.4c-0.3,0.2-0.8,0.1-1,0.3v0.4
			c0.3-0.1,0.2,0,0.4-0.1c0.3,0.1,0.2,0.2,0.4,0.4c0.4,0.2,1.1,0.1,1.7-0.1l3.9,0.5c0.4,0,0.7-0.1,0.9-0.3c0,0,0,0,0-0.1
			c0,0,0.1,0,0.1,0c0.1-0.1,0.2-0.2,0.3-0.4h0.1c-0.1,0.3-0.1,0.3-0.4,0.4c0,0-0.1,0.1-0.1,0.1c0,0.1,0,0.1,0.1,0.2
			c0.3,0.1,0.2-0.3,0.6-0.1c1.6,0.6,5.3,0.7,7,0.5c0.5-0.1,1.5,0.3,2,0.1l0.4-0.4c0.8,0.9,4.9,0.4,5.5,0.1c0.8,0.6,0.6,0.2,1.5,0.3
			c1.3,0.1,3.4,0.5,5.6,0.1h5.5c0.8-0.1,3.1,0.1,4.2-0.6c0,0,0.7,0.5,1.1,0.4c1.2-0.3,2.8-0.1,4.1-0.3c2.2-0.3,5.1-0.5,7.8-0.6
			c1.2-0.1,2.7-0.4,3.2-0.3c0.8,0.2,2-0.2,2.7-0.4h1.5c2.1-0.5,5-0.4,6.9-0.9c0.8-0.2,3.7-0.6,4.2-0.3c0.3,0,0.4,0,0.5-0.1
			c0.2-0.2,0.2-0.5,0.4-0.6c-0.2-0.3,0-0.1-0.4-0.1v-1.3c-1.4,0-3.5-0.6-4.3-0.1c-1.2,0.1-0.8,0.7-1.4,1h-0.8
			c-0.2,0.1-0.7,0.4-1,0.5c-0.3,0-0.7-0.1-1-0.1c-2.4,0.4-5.5,0.7-7.8,1.1C368,319.5,366.3,319.1,365.5,319.3z M317.4,320.9
			c-0.1,0-0.3,0.1-0.4,0.1v-0.3h0.4V320.9z M324.4,321.1c0.2,0.1,0.1,0,0.3,0.1C324.4,321.2,324.5,321.2,324.4,321.1z M330.1,321.5
			c-0.3-0.2-1.3-0.2-1.7-0.4c0.6,0,1.2,0,1.7,0.1V321.5z M349.2,321.6h-0.1v-0.3h0.1V321.6z M361.4,320.7h0.4
			C361.6,320.8,361.6,320.8,361.4,320.7z M632.7,330.3c-0.2,0-0.4,0.1-0.6,0.1c-0.3-0.1-0.5-0.7-0.8-0.9h-0.5
			c-1.1-0.6-2.4-1.7-3.8-1.5v1.3c1.1,0.2,2.2,1.4,3,2c0.2,0,0.4,0.1,0.6,0.1c0.5,0.5,0.7,1,1.5,1.3c0.1,0.1,0.9-0.1,1.1-0.3
			c0.5-0.1,0.5-0.3,0.8-0.6C634.1,331,633.3,330.5,632.7,330.3z M487.6,331.9v-0.5c-0.8,0-1.5-0.4-2,0h-0.3c0,0.3,0,0.5-0.1,0.6
			c0.1,1.5,1.4,1.2,2.4,1.8c0.6,0,0.6-0.1,1-0.4C488.6,332.6,488.3,332.1,487.6,331.9z M611.4,349.6c-0.5-0.7-0.9-1.5-1.3-2.2h-0.6
			c-0.1,0.2-0.3,0.5-0.5,0.6c0.2,1.3,0.8,1.9,1.3,2.8c0.4,0.6,0.3,1.3,0.6,1.9c0.2,0.3,0.7,0.5,0.9,0.8c0.3,0,0.6,0,0.8-0.1
			c0.5-0.2,0.5-0.3,0.6-0.8c0.1-0.2-0.3-1.2-0.5-1.7C612.4,350.5,611.7,350.1,611.4,349.6z M275.8,370.8c-0.8-0.5-3.3,0-3.4-0.1
			c-0.7-0.4-2.6-0.3-3.8,0c-0.6,0.1-1.1-0.1-1.4,0c-0.1,0-0.2,0.4-0.3,0.4c-0.5,0.3-0.9,0.1-1.4,0.3c-1.3,0.5-2.3,1.6-2.8,2.4
			c-0.7,1.4,1.2,5.8,1.9,6c-0.2,0.3-0.1,0.4-0.3,0.9c-1.9,0.8-5.2,0.4-6.6-0.1c-0.4,0-0.9,0.1-1.3,0.1c-1.1-0.5-2-0.7-3.2-0.8v-0.4
			c-0.9,0.1-2-0.5-2.8-0.8c-0.1,0.2-0.2,0.5-0.3,0.6v0.1c0-0.1-0.1-0.6-0.1-0.9c-0.2,0-0.4-0.1-0.6-0.1v0.4h-0.3
			c0,0-0.1-0.1-0.1-0.1v-0.5H248v-0.4c-0.4,0-0.9,0.1-1.1,0.1c-0.8,0-0.8-1-1.8-0.3c-0.1-0.1,0.2-0.3,0-0.6
			c-0.1-0.2-0.4-0.1-0.5-0.4c-0.7,0.1-1.4,0.3-2.2,0.4v-0.4H242c0,0-0.1,0.1-0.1,0.1c0.1,0.4,0.2,0.3,0.3,0.8c0.9,0.2,3,1,3.8,0.9
			c0.1,0,0.1,0,0.1-0.3c1,1.1,3.2,1.5,4.7,2c0.5,0.2,1.2,0.3,1.5,0h0.1c-0.1,0.3-0.1,0.2-0.3,0.4v0.1c2.4,0.9,6,1.3,8.3,1.9
			c1.4,0.4,4.1-0.1,4.6-0.4c0.4-0.1,0.6-0.4,0.8-0.8c0.6-0.9-0.5-1.8-0.5-3.1h-0.4c-0.1-0.6-0.2-0.8-0.3-1.4h-0.8
			c0.1-0.1,0.2-0.2,0.4-0.3c-0.2-1-0.7-2-0.4-2.8c0.3-0.5,0.8-0.6,1.3-0.9c0.1-0.1,0.1-0.1,0.1-0.4c1.4-0.1,1.8-0.6,3.4-0.9
			c0.2,0,0.7,0.2,1,0.1c1.3-0.3,3.4-0.1,5-0.1v-0.4c0.3,0.2,0.1,0,0.1,0.4c0.8,0,0.9,0.3,1.4,0.4c0.1,0,0.8-0.3,1.1-0.1
			c0.2,0.1,0.5,0.4,0.8,0.5c0.5,0.1,1.1-0.3,1.7,0h0.4c0-0.2,0.1-0.4,0.1-0.6c-1.5-0.1-3.1-0.6-4.3-0.6
			C275.9,371.1,275.9,371,275.8,370.8z M213.5,375.4c-0.3-0.1-0.4-0.2-0.5-0.5c-0.8,0.2-1.1,0.7-1.7,1.1v0.4
			c-1.2,0.3-1.8,1.8-3.7,1.3c-0.3-0.1-0.5-0.5-0.8-0.6c-0.5,0-1-0.1-1.5-0.1c-0.7-0.3-1.1-0.6-2-0.5v-0.4c-2-0.1-1.9-0.2-3.3-0.8
			c-0.8-0.3-1.4,0.2-1.8,0.1c-0.7-0.1-1.4-0.7-1.8-0.5c-0.3-0.2-0.1,0-0.3-0.4c-0.5,0.1-1.3,0.5-1.4,0.8c0,0-0.1-0.1-0.1-0.1
			c-0.3-0.2,0-0.1,0-0.8c-2,0.1-1.4-0.3-3.3-0.6v0.4c-0.4-0.3-1.2-0.8-1.5-0.1c-0.4-0.2-0.2-0.1-0.1-0.5c-0.5,0.1-0.6,0.1-0.9,0.4
			c-0.1-0.1-0.1-0.1-0.1-0.4c-0.2,0-0.4-0.1-0.6-0.1v0.4c-0.5,0-0.9,0.2-1.3,0h-0.6c0.2-0.3,0.2-0.2,0.6-0.3v-0.3
			c-0.2,0-0.4-0.1-0.6-0.1v0.1c0,0-0.1,0.1-0.1,0.1c-1.3-0.5-1.6-0.8-2.9-0.4c-0.8,0.2-1.5-0.4-2.2,0c-0.3,0.1-0.3,0.1-0.5,0.3
			c-0.1,0.5-0.1,0.6-0.1,1c0.4,0.4,0.9,0.7,1.5,0.9c1.1,0.3,2.1-0.2,2.8,0.4c0.8-0.2,0.7-0.9,1.5-1.1c0.4-0.2,3.2,0.4,4.3,0.6
			c0-0.3,0-0.4-0.1-0.5v-0.1c0.2,0,0.4-0.1,0.6-0.1c0.1,0.5,0.2,0.4,0.3,0.9c0.5,0,0.5-0.1,0.8-0.3c0,0.1,0.1,0.3,0.1,0.4
			c0.3-0.1,0.2,0,0.4-0.3c0.1,0.1,0.1,0.1,0.1,0.4c3.1,0.3,5.6,0.8,8.4,1.8c1.4,0.5,2.2,0.1,3.4,0.6c0.8,0.4,4.9,2.1,5.6,1.8
			c0.3-0.1,0.3-0.6,0.6-0.8c-0.1-0.4-0.1-0.3-0.3-0.5c0.7-0.4,0.2-0.4,0.5-0.8c0.3,0,0.6-0.1,0.9-0.1c0.2-0.1,0.1-0.6,0.3-0.8
			c0.1-0.1,1.7-0.9,1.9-1c0-0.3-0.1-0.3-0.1-0.5C213.5,375.3,213.7,375.1,213.5,375.4z M193.1,375c0.2,0.1,0.1,0,0.3,0.1
			C193.2,375.1,193.3,375.1,193.1,375z M195.7,374.9c0.2,0.1,0.1,0,0.3,0.1C195.7,375,195.8,375,195.7,374.9z M222.9,374.7
			c-0.1-0.2,0-0.2,0-0.6c-0.7,0-1.2,0.1-1.8,0.1v0.4c-0.3-0.2-0.2-0.4-0.5,0c-0.1-0.1-0.1-0.1-0.1-0.4H220v-0.5
			c-0.8,0-0.7-0.1-1.4-0.3c-1.3-0.3-2,0.2-3,0.3c-0.1,0.3-0.2,0.5-0.3,0.8h-0.5v-0.6c-0.4,0.1-0.4,0.2-0.6,0.4v0.1
			c-0.1,0.3-0.1-0.3-0.1-0.3c-0.5,0.1-0.5,0.2-0.9,0.4v0.5h0.4v-0.5c0.1,0.1,0.1,0.1,0.1,0.4c0.9,0,1.3,0,2.2-0.1v-0.4
			c0.3,0.1,0.2,0.2,0.6,0.3v-0.4H216v-0.3c0.3,0.1,0.5,0.2,0.8,0.3c-0.2,0.3-0.2,0.2-0.3,0.6c1,0,2.6,0.3,3.1-0.4h0.3v0.5
			c0.5,0,1.1,0.3,1.5,0c0.1-0.1,0.1-0.4,0.3-0.5c0,0,0.6,0.2,0.9,0.3c0.1,0.4,0.1,0.3,0.3,0.6h0.4
			C223.1,374.6,223,374.9,222.9,374.7z M195.3,374.5c-0.2-0.1-0.1,0-0.3-0.1c-0.1,0.1-0.1,0.1-0.1,0.4h0.4V374.5z M241.7,382.9
			c-0.2-0.6-1.4-1.5-1.8-2.2h-0.6v-0.5h-0.4v-0.6c-0.1,0-0.2,0.1-0.3,0.1c-0.9-0.5-1.6-1.5-2.7-1.8c0-0.5,0.1-1.1-0.4-1.4v-0.3
			c0.9,0.3,1.6,0.3,2.8,0.3l-0.4,0.4v0.3c0.5,0,1.1-0.1,1.3,0c0.4-0.1,0.3-0.1,0.6-0.3c0-0.4,0-0.6-0.1-0.9c-1-0.4-2.1-0.4-3.2-0.1
			h-1.4c-0.7,0.3-0.9,0.8-2,0.9v-0.4c-0.7,0.1-0.6,0.3-1.3,0.4v-0.5c-0.4-0.1-0.5-0.3-0.8,0.1c-0.1-0.1-0.2-0.3-0.3-0.4
			c-0.7-0.6-1.2,0.1-1.8-0.3c0-0.2-0.1-0.3-0.1-0.5c-0.2-0.1-1.3,0.1-1.8-0.1v-0.3c-0.6-0.3-3-0.5-3.7-0.5c0,0.6,0.2,0.4-0.3,0.6
			c0.4,0.6,1.1,0.1,1.8,0.4c1.9,0.9,4.7,1.3,6.6,2c0.8,0.3,1.8,0.4,2.2,1.1c0.2,0.4-0.5,3.4-0.6,3.6c0.8,2.4,6.3,4.8,9.3,4.5
			c0.1-0.6,0.3-0.8,0.6-1.1c-0.1-1.4-0.9-1.5-0.9-2.5L241.7,382.9L241.7,382.9z M238.9,376.3c0.1,0,0.2,0.1,0.3,0.1v0.1h-0.3V376.3z
			 M225.9,374.9h0.5C226.2,375,226.2,375,225.9,374.9z M234.2,380.5c0.2-0.1,0.1,0,0.3-0.1c0.1,0.1,0.1,0,0.1,0.3h-0.4V380.5z
			 M241.7,384.8c0,0-0.1,0.1-0.1,0.1c-2.1-0.1-4.8-0.8-5.9-2c-0.2,0.1-0.1,0-0.5,0c-0.1-0.7-0.6-1.1-0.6-1.9c0-0.4,0.6-0.7,0.3-1.4
			c0.3-0.2,0.8-0.2,1-0.4c0.2,0.1,2.5,1.1,2.7,1.3c0.8,0.7,0.9,1.8,2.2,2c0,0.7,0.1,0.7,0.6,0.9v0.6h0.4V384.8z M222,375.2h0.4v-0.4
			H222V375.2z M240.8,376.1c-0.2-0.1-0.1,0-0.3-0.1c-0.3,0.2-0.2,0-0.3,0.4h0.5V376.1z M241.6,376.4v-0.3H241v0.4
			c0.3,0,0.4,0,0.5-0.1H241.6z M236.1,377.2c0.4,0.1,0.6,0.2,0.9,0h0.5c-0.2-0.3-0.9-0.5-1.4-0.5L236.1,377.2L236.1,377.2z
			 M240.7,377.3c0.4,0.1,0.4,0.1,0.6,0.3c0.2-0.3,0.1-0.2,0.4-0.4v-0.5c-0.3,0-0.7,0.1-1,0.1V377.3z M240.4,376.8h-0.4v0.4h0.4
			V376.8z"/>
	</g>
</g>
</svg>
