<?xml version="1.0" encoding="utf-8"?>
<!-- Generator: Adobe Illustrator 21.0.0, SVG Export Plug-In . SVG Version: 6.00 Build 0)  -->
<svg version="1.1" id="Calque_1" xmlns="http://www.w3.org/2000/svg" xmlns:xlink="http://www.w3.org/1999/xlink" x="0px" y="0px"
	 viewBox="0 0 841.9 595.3" style="enable-background:new 0 0 841.9 595.3;" xml:space="preserve">
<style type="text/css">
	.st0{fill:#DADADA;}
</style>
<g>
	<g>
		<path d="M602.7,331.9c-0.1-0.1-0.1-0.4-0.2-0.5c-0.8-0.7-2-1-2.9-1.6c-1.5-1-2.9-2.5-4.4-3.6c-3.3-2.4-6.8-4.4-10.2-6.7
			c-1.3-0.9-2.7-1.8-4.1-2.8c-0.1-0.2-0.2-0.3-0.3-0.5c-1.6-0.9-3.1-1.6-4.7-2.6c-0.1-0.2-0.2-0.3-0.3-0.5c-0.5-0.3-0.9-0.3-1.4-0.6
			c-1-0.7-2.1-1.6-3.1-2.2c-3.7-2-6.9-4.2-9.5-7.2c-0.5-0.5-1.7-1-2.2-1.6c-1.1-1.4-2.5-2.3-4-3.4c-2.2-1.6-4.4-5.2-5.5-7.9
			c-0.3-0.7-1.1-2.4-0.9-3.3c0.3-1.3,2-3.4,3-4.1v-0.6c1.3-0.1,3.4-2.3,4.7-2.9c1.2-0.5,2.9-1.1,4.1-1.4c0.4,0,0.9-0.1,1.3-0.1
			c0.9-0.3,2-1.1,2.9-1.4c0.8-0.3,1.8-0.3,2.4-0.5h1.7c1.7-0.4,2.8-0.2,4.3,0.1c1.2,0.3,3.2,0,4.3-0.1c0.3,0,1.3,0.2,1.6,0.2
			c0.4,0.1,0.9-0.1,1.2-0.1c3,0.2,7.1,1.3,10.5,0.8c0,0,2.4,0.3,2.6,0.3h0.1c0.2,0.1,0.3,0.5,0.6,0.6c0.7,0.3,1.8,0,2.2,0.1
			c0.1,0,0.5,0.3,0.6,0.4c0.9-0.2,1.9-0.4,2.8-0.6l0.8-0.8c0-0.3,0.1-0.5,0.1-0.8c-0.3-0.3-0.4-0.8-0.7-1c-0.5-0.4-1.1-0.4-1.6-0.7
			c-0.4-0.3-0.4-1-0.9-1.2h-0.8l-0.3-0.3c-0.7-0.4-1.5-0.3-2.3-0.6c-0.4-0.1-0.8-0.6-1.2-0.7c-0.3,0-0.6-0.1-0.9-0.1
			c-1.4-0.6-2.9-1.7-4.3-2.3c-0.8-0.4-1.4-0.7-2.1-1c-0.4-0.2-0.9-0.1-1.3-0.3c-1.3-0.8-2.8-1.8-4.3-2.4c-0.3,0-0.6-0.1-0.9-0.1
			c-2-0.8-4.1-2.1-6.2-2.8c-0.8-0.3-1.3-0.2-2-0.5c-0.8-0.4-1.8-0.9-2.7-1.3c-0.7-0.3-1.2-0.2-1.9-0.5c-0.9-0.3-1.8-1.1-2.7-1.4
			c-0.9-0.3-1.6-0.3-2.4-0.7c-1.3-0.5-2.8-1.2-4.2-1.6c-1.6-0.5-3.1-0.9-4.5-1.4c-0.7-0.2-1.5-0.3-2.2-0.5c-2.9-1.1-6.1-2.3-9.2-3.1
			c-7.5-2-15.7-2.8-23.3-4.4c-0.3,0-0.5,0.1-0.8,0.1c-1.7-0.3-3.1-0.2-4.7-0.6c-1.4-0.3-3,0-4.2-0.2c-0.7-0.1-1.7,0.2-2.4,0.1
			c-5.1-0.5-10.8-1.1-16-0.6c-1.8,0.2-2.9-0.3-4.8,0.1h-2.2c-1.7,0.4-3.7,0.1-5.5,0.5c-0.9,0.2-2.4,0.2-3.1,0.2
			c-0.3,0-0.5-0.1-0.8-0.1c-2.7,0.5-5.7,0.1-8.3,0.6c-2.5,0.5-5.7,0.7-8.3,1.3c-1.2,0.3-2.2,0.1-3.4,0.3c-1.5,0.4-3.2,1-4.8,1.3
			c-0.3,0-0.6-0.1-0.9-0.1c-2.5,0.6-5.4,1-7.8,1.9c-0.1-0.2,0.1-0.4,0-0.7c-0.2-0.5-1-0.6-1.4-0.9c-0.8-0.6-1.3-1.6-2.1-2.2
			c-0.2-0.2-0.6-0.2-0.8-0.4v-0.3c-0.2-0.2-0.4,0-0.6-0.1c-0.1-0.2-0.2-0.4-0.3-0.6h-0.3c-0.2-0.2-0.3-0.7-0.6-0.9h-0.3
			c-0.5-0.3-0.7-1-1.2-1.4h-0.3c-0.4-0.3-0.8-0.8-1.2-1c-0.3-0.2-0.5-0.1-0.8-0.2c-0.3-0.3-0.5-0.6-0.8-0.9
			c-0.5-0.4-1.1-0.5-1.6-0.9c-0.8-0.5-1.3-1.4-2.3-1.6c0.8-1.8,2.9-3,4.5-4.1c0.2-0.2,0.3-0.4,0.5-0.6c0.7-0.3,1.6-0.1,2.2-0.5
			c0.9-0.5,1.2-1.6,2.2-2.1c-0.1-0.4-0.1-0.2-0.2-0.5c-0.4,0.1-0.2,0.1-0.5,0.2c0,0-1.8-0.4-2.6-0.2c-1.4,0.3-3.3,0.2-5,0.7
			c-0.4,0.1-0.9,0.5-1.2,0.6c-0.3,0-0.6-0.1-0.9-0.1c-0.3,0.1-0.9,0.5-1.2,0.6c-0.6,0.2-1,0.1-1.6,0.3c-0.7,0.3-1.8,1-2.6,1.2
			c-0.2,0-0.4-0.2-0.6-0.2c-1.4-0.3-1.3,0.2-2.2-0.7c-0.1,0.2-1.5,0.1-1.9,0c-1.8-0.5-4-1.2-5.9-1.6c-0.2,0-0.4,0.1-0.6,0.1
			c-1.5-0.3-3.2-0.5-4.5-0.8c-0.8-0.2-1.8,0.2-2.3,0h-0.6c0.4-0.8,1.2-1,1.6-1.6c0-0.2,0.1-0.4,0.1-0.6c0.4-0.4,1.2-0.6,1.7-0.9
			c0.9-0.7,1.7-1.7,2.7-2.3h0.3c0.2-0.1,0.4-0.6,0.6-0.7c0.3-0.2,0.6-0.1,0.8-0.2c0.2-0.2,0.4-0.4,0.6-0.6c0.2,0,0.5-0.1,0.7-0.1
			c0.2-0.1,0.3-0.5,0.5-0.6h0.6c0.2-0.2,0.3-0.4,0.5-0.6c0.3-0.2,0.7,0.1,0.9-0.1c0.3-0.2,0.6-0.9,0.9-1c0.2,0,0.4,0.1,0.6,0.1
			c0.3-0.1,0.4-0.3,0.9-0.4c0,0,0.1-0.1,0.1-0.1c0-0.9-0.4-0.9-0.6-1.5c-0.9,0.2-1.9,0-3,0.3c-5.1,1.5-10.5,2.2-15.3,4.4
			c-0.8,0.4-1.7,1.1-2.4,1.6c-0.5,0.3-1,0.3-1.5,0.6c-0.4,0.2-0.8,0.7-1.2,0.9c-0.5,0.3-0.9,0.3-1.4,0.6c-2.1,1.2-3.8,3-6,4.1
			c-1,0.5-2.4,0.4-3.4,1c-0.1-0.1-0.3-0.3-0.5-0.2c0,0.2-0.1,0.3-0.1,0.5c-0.4,0-0.8,0.1-1.2,0.1c-0.7,0.3-1.5,1-2.3,1.3
			c-1.1,0.4-2.6,0.4-3.5,1.2h-0.4c0.9-1.8,2.2-3.5,3.5-5c0.4-0.4,0.3-1,0.9-1.3v-0.4c-0.2,0-0.2,0-0.4-0.1h-0.1
			c0.4-0.5,0.3,0,0.8-0.2c0.4-0.2,1-1.2,1.2-1.6c0.1-0.1,0.1-0.1,0.1-0.4c0.9-0.2,1.1-1.4,1.6-2.1c0.1-0.1,0.1,0.1,0.5,0.1
			c0.1-0.6,0.9-1.1,1.4-1.4c-0.1-0.4-0.1-0.2-0.2-0.5c1.1-0.6,2.2-1,3.1-1.7c0.1-0.1,0.1-0.1,0.1-0.4c0.6-0.1,1.4-0.4,1.6-0.8
			c0.1-0.2,0-0.4,0.1-0.5h0.7c0.2-0.1,0.4-0.6,0.7-0.7h0.7c0.4-0.2,2-1,2.3-1.3c0.3-0.4,0.1-0.8,0.5-1c0-0.3-0.1-0.3-0.1-0.5
			c-2.5,0-4.5,1.1-6.5,1.7c-1.6,0.5-3.2,0.7-4.7,1.3c-0.4,0.2-0.8,0.6-1.2,0.8c-2,1-4,1.6-5.7,2.8c-0.2,0.3-0.5,0.5-0.7,0.8
			c-0.4,0.1-0.7,0.2-1,0.3c-0.6,0.3-1,0.8-1.5,1.2c-0.3,0.1-0.6,0.2-0.9,0.4c-2.2,1.5-4.1,3.4-6.2,5c-0.7,0.5-1.1,1.5-1.9,2v0.5
			c-1.1,0.2-2.6,3-3.3,4c-0.7,1-1.7,2-2.3,3c-0.5,0.8-0.5,1.8-1.2,2.4c-0.4,0.4-1.1,0.4-1.5,0.7c-1.8,1.5-3.6,2.9-6.7,3.1
			c0,0.3,0.1,0.5,0.1,0.8h-0.2c-0.1-0.3-0.1-0.3,0-0.6c-0.3-0.1-0.6-0.2-0.8-0.4c0-1.1-0.2-1.3,0.3-2.1c0-0.5,0-0.4-0.3-0.6v-0.2
			c0.4,0,0.2,0,0.6,0c0-0.3,0-0.6-0.1-0.8c0-0.2,0-0.2,0.1-0.4c0.1-0.1,0.1-0.1,0.3-0.1c-0.1-0.6-0.1-0.7-0.1-1.5h0.3
			c0.1-0.4,0-0.6,0.2-0.8c0-0.5,0.1-0.6,0.2-0.9h0.4c0-0.7,0-0.5,0.2-1c0-0.3-0.1-0.6-0.1-0.9c0.2-0.4,0.9-0.9,1-1.4
			c0.1-0.5-0.1-0.8,0.2-1.4c0.1-0.2,0.4-0.1,0.6-0.2c0.3-0.2,0.6-1.3,0.5-1.6c0.1-0.1,0.1-0.1,0.4-0.1v-0.4l0.1-0.1h0.5
			c0-0.3,0-0.5,0.1-0.7c0.1-0.3,0.2-0.2,0.5-0.4v-0.7h0.3c0.3-0.6,0.9-1.2,0.7-2c1-0.5,2.5-1.4,3.3-2.2c0.1-0.1,0.1-0.1,0.1-0.4h0.5
			c0,0-0.1-0.1-0.1-0.1c0-0.4-0.1-0.4-0.2-0.7c-2.4,0-4.2,1.2-5.9,2c-0.9,0.4-2.2,0.5-2.9,1.2c-0.2,0.2-0.4,0.6-0.6,0.8
			c-0.4,0.3-0.9,0.4-1.3,0.7c-0.2,0.1-0.2,0.4-0.3,0.6c-0.6,0.6-1.5,0.9-2.1,1.5c-0.2,0.2-0.1,0.5-0.2,0.7c-0.3,0.4-0.9,0.6-1.3,0.9
			c-0.2,0.2-1,1.4-1.2,1.6c-0.7,1.2-1.1,2.3-1.7,3.6c-0.8,1.5-1.5,3.2-2.1,5c-0.2,0.6-0.2,1.7,0.1,2.1v0.2h0.3
			c0,0.6-0.1,0.5-0.3,0.8h-0.2c0.3,0.2,0.5,0.2,0.7-0.1c1,0.3,1.6,1.2,2.4,1.6c0.1,0,1-0.2,1-0.1c0.2,0.1,0.2,0.6,0.3,0.7
			c0.5,0.3,2.2,0.4,2.7,0.1h0.2v-0.3c0.5-0.1,0.6-0.4,0.9-0.3c0.1,0,0.4,0.3,0.6,0.3c0.1,0,0.5-0.6,0.5-0.6c0.2-0.1,0.7,0.1,1.2,0
			c0.3-0.1,1.4-0.6,1.6-0.5c0.3-0.2,0.1,0,0.2-0.4c0.7,0.2,1-0.1,1.6-0.2V247c0.7,0,1.9-0.3,2.3-0.9v-0.3c0.1,0,0.2,0.1,0.2,0.1
			c0.6-0.1,1.4-0.7,1.9-1c0.7,0.2,2.8,2,3.6,1.6c0.4,0.1,0.2-0.1,0.2,0.3c2.8-0.1,4.3-1,6.5-1.3c0.1-0.2,0.2-0.4,0.2-0.6
			c0.1,0.1,0,0.1,0.1,0.4c0.4,0.4,0.6-0.6,0.8-0.7c0.3-0.1,0.7,0,0.9-0.1c0.1-0.1,0.1-0.1,0.1-0.3h0.5c0.5-0.6,1.5-0.8,1.9-1.4
			c0.4-0.5,0.3-1.1,0.6-1.7c0.2-0.5,0.6-0.9,0.8-1.4c0.7-0.3,1.6-0.3,2.4-0.6c1.4-0.5,2.6-1.2,4.3-1v-0.3c0.9,0.1,2.3,0,2.6-0.8
			c0.6,0.2,1.6,0.4,2.2,0.1c0.9,0.1,0.9,1,1.5,1.4c0.3,0.2,0.4,0,0.6,0c0,0,0.5,0.5,0.5,0.5c0.4,0.3,0.9,0,1.4,0.2
			c0.2,0.1,0.5,0.6,0.8,0.7c0.9,0.4,3.8,0.8,4.4,0.7c1.2-0.2,1.9,0.7,3,0.1c1.4-0.8,2.4-2.5,3.1-4c0.2-0.4,1.3-2,1.4-2.4
			c4.4,0.1,8.9,1,12.6,2.7c0.4-0.1,1.6,0.3,2.1,0.6c0.6,0,0.6,0,0.7,0.5c0,0,0.1,0.1,0.1,0.1c-0.8,0.5-3.7,2.4-4.1,3.1
			c-0.3,0.6,0.5,2,0.8,2.4c1.6,2.5,2.6,3.4,5.5,4.3c0.7,0.2,2.5,1.3,3.4,0.5c0.7-0.4,0.5-1.2,0.8-2c0.2-0.2,0.4-0.4,0.6-0.6v-0.6
			c0.3-0.8,1-1.5,1.4-2.2c1.3,0.1,2.5,1.3,3.4,1.9c0.8,0.5,1.6,0.8,2.4,1.3c0.5,0.3,1,1,1.5,1.4c0.2,0.2,0.6,0.2,0.8,0.3
			c0.2,0.2,0.3,0.6,0.5,0.8c0.4,0.6,1.3,1.4,1.9,2c0.8,0.8,1.8,1.5,2.1,2.8c-2.1,0.3-5,2.2-6.7,3.1c-1.1,0.6-2.1,0.9-3.3,1.5
			c-1.4,0.8-2.6,2.1-4,2.9c-1.2,0.8-2.4,1.3-3.6,2.1c-0.7,0.5-1.3,1.3-2.1,1.7v0.5c0.4,0,0.4,0.3,0.7,0.2c0.1,0,0.7-0.3,0.8-0.4
			c0.9-0.2,5.1-0.4,6-0.1c2.3,0.6,4.6,0.8,6.7,1.4c0.6,0,1.2,0.1,1.7,0.1c2.2,0.7,4.4,1.6,6.7,2.3c1.7,0.6,3.2,1.1,4.7,1.7
			c0.4,0.2,1.1,0.1,1.4,0.3c0,0.2,0.1,0.3,0.1,0.5c0.3,0.3,0.8,0.6,1,0.9c0.2,0.2,0.5,0.3,0.7,0.5c0,0.2,0.1,0.5,0.1,0.7
			c0.3,0.6,0.8,1.1,1,1.7c0.7,1.9,0.8,3.8,1.3,5.9c0.3,1.4-0.4,3.5,0.1,4.3v0.9c-4,0.9-7.4,2.4-10.9,3.7c-0.7,0.2-1.1,0.1-1.9,0.4
			c-0.5,0.2-1.2,0.7-1.7,0.9c-1.4,0.6-2.7,0.6-4,1.2c-1.4,0.6-3.2,1.5-4.7,2.2c-0.5,0.2-0.9,0.1-1.4,0.4c-0.3,0.1-0.6,0.6-0.9,0.7
			c-1.4,0.6-2.9,1-4.2,1.7c-0.2,0.1-0.5,0.3-0.8,0.5c0,0.1-0.1,0.2-0.1,0.3c-0.4,0.3-1.2,0.3-1.6,0.6c-0.9,0.5-1.7,1.2-2.6,1.7
			c-0.7,0.4-1.4,0.6-2.1,1c-0.3,0.2-0.5,0.7-0.7,0.8c-0.2,0-0.5,0.1-0.7,0.1c-0.5,0.3-1,0.9-1.5,1.2c-0.6,0.4-1.3,0.5-1.9,0.9
			c-1.8,1.2-3.4,2.8-5.2,4c-0.5,0.3-0.9,0.7-1.4,0.9c-0.4,0.2-0.9,0.2-1.2,0.5c-0.2,0.2-0.2,0.5-0.5,0.7c-0.5,0.4-1.1,0.8-1.6,1.2
			c-0.7,0.5-1.5,0.8-2.2,1.3c-0.4,0.3-0.6,0.8-0.9,1.2c-0.6,0.8-1.7,1.2-2.4,1.9c-0.1,0.2-0.2,0.4-0.4,0.6c-0.3,0.3-1,0.4-1.3,0.7
			c-0.8,0.8-1.5,1.8-2.4,2.4c-0.7,0.5-1.4,0.9-2,1.4c0,0.1-0.1,0.2-0.1,0.3c-0.4,0.3-1.2,0.3-1.4,0.8c0.1,0.4,0.2,0.8,0.2,1.2
			l0.1,0.1c2.8,0,5.3-1.3,7.4-2.1c0.6-0.2,0.9,0,1.5-0.2c1.3-0.4,2.9-1.1,4.2-1.5c1.4-0.5,3.2-0.7,4.5-1c0.5,0,0.9-0.1,1.4-0.1
			c4.9-1.5,11.3-2.5,16.2-3.7h1c0.6-0.1,1.8-0.5,2.3-0.5c0.2,0.1,0.4,0.2,0.6,0.2c2.1-0.4,3.8-0.8,5.5-1.2c0.2,0,0.5,0.1,0.7,0.1
			c0.4,0,0.4-0.2,0.6-0.2c0.6-0.2,1.2,0.2,2,0c3.1-0.8,6.2-0.7,9.3-1.5c0.5,0,1.1,0.1,1.6,0.1c0.7-0.2,2.1-0.3,2.8-0.5
			c0.6-0.1,1.8,0.2,2.2,0c0.6,0,1.3,0,1.7,0.1c-0.6,6.9,1.8,12.3,5.2,17.3c1.2,1.8,3.4,2.6,4.7,4.3c0.7,0,0.9-0.2,1.3-0.5
			c0.2-0.3-0.3-1.2-0.6-1.4c-1.4-1.3-1.8-3.7-3.4-4.7c0.2-0.4,0.1-0.1,0.5-0.1c-0.3-0.4-0.4-0.1-0.7-0.5c-0.5-0.6-0.2-1.4-0.6-2.2
			c-0.3-0.8-1.1-1.7-1.4-2.7c0-0.3,0.1-0.5,0.1-0.8c-0.3-0.9-0.6-3.1-0.9-4.3c-0.5-1.8,0.5-3.7,0-4.9c0.8-0.2,1.5,0.4,2.4,0
			c0.1-0.2,0.2-0.3,0.3-0.5c0.3,0.1,0.5,0.2,0.8,0.2c0.9,0,2.3-0.2,3.6-0.2c0.8,0,1.6,0.1,2.3,0.1c1-0.2,2.5,0.1,3.6-0.1
			c1.4-0.3,4.4-0.1,6.2,0.1c0.4,0,0.4-0.2,0.6-0.2c0.7-0.1,1.9,0.3,2.7,0c2.2,0.3,4.4,0.3,6.5,0.1c0.6,0,2,0.3,2.7,0.2
			c0.4,0,1.8-0.2,2.6,0c0.1,0,0.3,0.3,0.6,0.2c1.3-0.2,3.8,0.1,5.2,0.3c0.3,0,0.6-0.1,0.9-0.1c0.4,0.1,1.3,0.2,1.9,0.4
			c0.6,0.1,1.3-0.2,1.7-0.1c0.5,0.1,1.2,0.4,1.6,0.5c0.5,0.1,0.7-0.2,1.3-0.1c4.6,1,10.3,0.6,15.1,1.6c2.3,0.5,5.7,0.5,8.3,1.2
			c0.7,0,1.3,0.1,2,0.1c2.7,0.6,6.6,0.9,9.4,1.5c9.1,2.1,18.9,3.4,27.6,6.4c1,0.3,1.8,0.2,2.8,0.5c1.6,0.5,3.5,1,5.1,1.5
			c0.6,0.1,1.2,0.2,1.7,0.2c3.5,1.3,7.8,2.1,11.5,3.1c0.9,0.2,1.4,0.1,2.2,0.4c5,1.4,9.6,2.8,14.5,4.3c2.3,0.7,4.3,1.6,6.3,2.7
			c0.6,0.3,1.6,1.3,2.3,1.2c0.5,0,0.7,0,0.9-0.2c0.1-0.1,0,0,0.1-0.2C608.9,334.5,605.3,333.6,602.7,331.9z M347.1,228.7
			c0.2,0.1,0.1,0,0.2,0.1l-0.2,0.2H347C347,229,347,228.9,347.1,228.7z M343.8,244.2v0.2h-2.4c-0.4,0.1-0.9,0.4-1.4,0.5v0.5
			c0.9,0.2,2.3-0.3,2.8,0h0.7c-0.1,0.2,0,0.1-0.1,0.2c0,0.3,0,0.5-0.1,0.7c-0.6,0.3-1.6,0.5-2.4,0.5l-0.1,0.1c0,0.3,0,0.3,0.1,0.5
			c0.5,0.4,1.8,0.1,2.4,0.1c-0.1,0.4-0.3,0.6-0.7,0.7c-1,0.7-4.2-0.4-4.8-0.9c-0.5-0.4-0.5-0.8-1.2-1.2c-0.3-1.7,0.2-3.5,0.7-4.3
			c0.1-0.2,0.3-0.9,0.1-0.9c0,0-0.1-0.1-0.1-0.1l0.5-0.2c0.3-0.6-0.4-0.5,0.5-0.8c0-0.6,0-0.6-0.1-1c0.2-0.1,0.2-0.1,0.3-0.3h0.5
			c0.1-0.5,0.3-0.6,0.5-0.9c0.1-0.2-0.1-0.6-0.1-0.6c0.2-0.2,0.7-0.3,0.8-0.6c0.1-0.2-0.2-0.4-0.1-0.5h0.2c0.2-0.4,0.1-0.7,0.4-1
			c0.2-0.5,0.7-0.7,1.4-0.7c0.1-0.5,0.8-1.8,1.2-2c0.3-0.1,0.5,0.2,0.9-0.2c0.1-0.2,0.1-0.4,0.1-0.5c0-0.1,0.1-0.2,0.1-0.2h0.6
			c0.1-1,1.1-0.5,1.6-1.6c0.3,0,0.7-0.1,1-0.1V229c1.1,0,1.6-0.6,2.2-1c0.7-0.4,1.4,0.1,1.6-0.8c0.3,0.1,0.2,0.1,0.5,0.2
			c-0.2,0.8-1,1.8-1.7,2.1c-0.3,0.1-0.5-0.3-1-0.1c-0.4,0.1-0.6,0.3-1.2,0.3c0,0.1-0.1,0.2-0.1,0.4c-0.1,0.1,0,0-0.1,0.2
			c0.1,0.1,0,0,0.1,0.2c0.4,0,0.8,0,1-0.1h0.9c-0.5,1.7-1.4,0.3-2.6,1c-0.4,0-0.4,0.1-0.7,0.2c0.1,0.3,0.2,0.5,0.3,0.7
			c0.1,0.1,1.1-0.1,1.7-0.1c-0.1,0.5-0.3,0.5-0.5,0.8c-1,0-2.1-0.2-2.8,0.3c-0.1,0-0.2,0.1-0.4,0.1c0,0.2,0.1,0.4,0.1,0.6
			c0,0,0.1,0.1,0.1,0.1c0.7-0.1,1.4-0.5,2,0c0.3,0.2,0.1-0.1,0.2,0.2c0,0.1-0.3,0.7-0.5,1c-0.4,0-0.8,0.1-1.2,0.1
			c0,0-0.3-0.3-0.4-0.3c-0.5,0.1-1.1,0.2-1.6,0.2l-0.1,0.1c0,0.3,0,0.3,0.1,0.5v0.2c0.9,0,1.6,0,2.6,0.1c-0.1,0.5-0.4,1.4-0.6,1.6
			c-0.5,0.3-2.1-0.8-2.9-0.2c-0.1,0-0.2,0.1-0.4,0.1c0,0.6-0.1,0.7,0.2,0.7v0.3c0.7-0.1,1.9-0.3,2.2-0.1c0.3,0.1,0.2,0.1,0.5,0.2
			c0,0.2-0.1,0.5-0.1,0.7l-0.1,0.1c-1.1,0-2.2-0.1-3.3,0l-0.1,0.1v0.2c0.1,0.1,0.2,0.3,0.3,0.5c0.4,0.1,1.7,0,1.7,0
			c0.5,0,0.5,0.1,0.8,0.2c0,0.2-0.1,0.4-0.1,0.6c-0.3,0-0.9-0.1-1.2,0.1c-0.3,0.1-0.3,0.1-0.5,0.2c0.2,0.2,0.3,0.4,0.5,0.6h0.7
			C344.3,243.1,344.2,243.7,343.8,244.2z M345.9,235.8v0.2h-0.2v-0.2H345.9z M387.1,219.1c0.3,0.2,0.1,0,0.2,0.3
			c-1.1,0.1-2.5,1-3,1.7c-0.5-0.1-0.6-0.4-1.2-0.6c0-0.1-0.1-0.2-0.1-0.3C384.2,219.8,386.6,219.5,387.1,219.1z M370.6,236.4
			c-0.6,0.3-1.4-0.1-2.2,0.1c-0.7,0.2-1.2,0.6-2.2,0.6c-0.1,0.3-0.2,0.4-0.5,0.6c0.2,0.2,0.2,0.2,0.5,0.3c0.2,0.1,2.4-0.3,2.8-0.6
			c0.3,0,0.5,0,0.7,0.1c0.1,0.1,0,0,0,0.1c-0.1,0.4-0.3,0.7-0.6,0.9c-0.3,0.2-1.4,0.5-2.1,0.6c-0.2,0-0.4-0.1-0.6-0.1
			c-0.8,0.2-1.8,0.6-2.7,0.8c0,0.3-0.1,0.5-0.1,0.8c1,0.1,2.4-0.5,3.3-0.9c0,0,0.1,0.1,0.1,0.1c0.7,0,0.8,0.1,1.3-0.1
			c0,0,0.1,0.1,0.1,0.1c-0.2,1.8-2.4,1.3-3.7,2c-0.6,0.3-1.3,0.8-2.1,0.9v0.6l0.2,0.2c1-0.2,2.5-0.5,3.1-1h0.6
			c-0.3,0.8-0.7,0.5-1.4,0.9c-0.2,0.1-0.3,0.5-0.5,0.6c-1.4,0.8-3.1,0.6-4.9,1.2c-0.4,0.1-1,0.6-1.7,0.3c-0.8-0.2-1.6-0.8-2.4-0.9
			c-0.2-0.4-0.6-1.5-0.7-1.6v-0.1h0.5c0.1-0.5,0.2-1,0.4-1.5c1-0.3,0.4-1,0.6-1.3c0.1-0.1,0.8-0.4,0.9-0.5c-0.2-0.3,0-0.1-0.3-0.2
			c0.1-0.2,0-0.1,0.1-0.2c0.2-0.3,0.1-0.1,0.6-0.1c0.1-0.5,0.2-1.3,0.5-1.6c0.2,0,0.1,0.1,0.5,0.2c0.1-0.3,0.2-0.4,0.2-0.8
			c0.2,0,0.5,0,0.6-0.1c0-0.3,0.1-0.6,0.1-0.9c0.3-0.6,1-0.5,1.2-1.4h0.7c0.2-0.8,0.7-0.9,0.8-1.7c0.2,0.1,0.2,0.1,0.5,0.1
			c0.6-1.4,0.4-0.4,1.3-1c0.2-0.2,0.2-0.8,0.5-0.9c0,0,0.9-0.3,0.9-0.3v-0.3c0.7-0.2,1.1-0.9,1.5-1.3c0.3-0.1,0.2,0,0.6,0.1
			c0-0.4-0.1-0.3,0-0.5c0.2-0.4,0.5-0.4,0.9-0.3c0.1-0.6,0.4-0.8,0.7-1.2c0.1,0.1,0.1,0.1,0.1,0.3h0.2c0.1-0.2,0.1-0.2,0.1-0.5
			c1,0,0.9-0.5,1.9-0.8v-0.5c0.9-0.1,0.8-0.4,1.6-0.5c0-0.2,0-0.2-0.1-0.3v-0.1c0.3,0.1,0.2,0.1,0.5,0.2c0.4-0.4,1.2-0.6,1.4-1.2
			c0.2,0.1,0.2,0.1,0.5,0.1c0-0.2,0-0.2,0.1-0.3c0.2-0.1,0.2,0.2,0.6,0c0.6-0.3-0.1-0.5,0.9-0.5v-0.5c0.1,0.3,0.7,0,0.8-0.1
			c0.1-0.1,0.1-0.4,0.2-0.5c0.5-0.3,0.2,0.3,0.7,0.1c0.6-0.2,0.7-0.8,1.6-0.9v-0.3c1.1,0.2,2-0.6,2.4-0.4c0.3,0.2,0.3,0.4,0.2,0.9
			c0.2,0,0.4,0.1,0.6,0.1v0.4c-0.4,0.1-0.6,0.3-1.2,0.2c-0.2,0-0.4-0.3-0.7-0.2c-0.3,0.1-0.2,0.4-0.7,0.5v0.5h0.7v0.1
			c-0.4,0.3-0.8,0.6-1,1c-0.7-0.1-1.1-0.1-1.7-0.2c-0.3,0.3-0.7,0.6-1,0.8c0,0.3,0.1,0.4,0.1,0.6c0.4,0,0.8-0.1,1.2-0.1
			c-0.1,0.7-0.6,0.8-0.8,1.4c-1.3-0.4-3.8,0.1-4.9,0.6c0,0.1-0.1,0.2-0.1,0.3c0.1,0.1,0.2,0.3,0.3,0.5c1-0.2,2.1-0.5,3.5-0.4
			c-0.3,0.4-0.7,0.7-0.8,1.3c-2.3-0.5-4.1,0-5.7,0.5c-0.1,0.2,0,0.1-0.1,0.2v0.3c0.2,0,2.4-0.2,2.7-0.3h2.3
			c-0.2,0.8-0.7,1.2-1.2,1.7c-1.5-0.1-3.2,0.3-4.7,0.5c0,0-0.1,0.1-0.1,0.1c0,0.3,0,0.5,0.1,0.7c0.9,0,2.7-0.4,3.1-0.1h0.6
			c-0.2,0.5-0.5,0.8-0.8,1.3c-1.8,0-4,0.3-5.2,0.9c0,0.2,0.1,0.5,0.1,0.7c0,0,0.1,0.1,0.1,0.1c0.6-0.1,0.7-0.3,1-0.5
			c1-0.4,2.3-0.3,3-0.1C371.3,235.4,371,236,370.6,236.4z M398.9,231.5c-1.5,0-3.2-0.8-4.3-0.3c-0.3,0.1-0.2,0.1-0.4,0.2
			c0,0.3,0,0.3,0.1,0.5v0.2c1.3,0,2.3,0.4,3.5,0.5c-0.1,0.4-0.2,0.6-0.5,0.8c-0.6,0.4-3.2-0.5-4.1,0c-0.3,0.2-0.3,0.3-0.3,0.7
			c0.5,0.1,0.7,0.3,1,0.3c0.4,0.1,2.1,0,2.6,0c-0.1,0.5-0.4,0.8-0.6,1.2c-0.7,0.3-2,0.1-2.6-0.1c-0.9,0-1.4,0.1-2,0.4
			c0.1,0.4,0.2,0.5,0.4,0.8c0.7,0,1.8-0.2,2,0.4c0.5,0,0.5,0,0.7-0.4c0.3,0.1,0.3,0.2,0.6,0.4c-0.1,0.4-0.3,0.3-0.3,0.8
			c-1.1,0-1.9,0.4-3,0.1c-0.5-0.1-1.4-0.4-1.9-0.1c-0.1,0-0.2,0.1-0.3,0.1c0,0.3,0.1,0.3,0.1,0.5c0.6,0.2,2.4,0.8,3,0.5
			c0.4,0,0.6,0,0.8,0.1l-0.4,0.4c-0.6,0.3-2.2-0.3-3-0.2c-1.2,0.2-5.4-1.2-6.3-1.7c-0.4-0.2-0.8-1.1-0.9-1.5c-0.2-0.3,0.4-0.8,0.6-1
			c0.4-0.4,0.9-1.3,1.3-1.6c0.5-0.4,1.1-0.5,1.5-0.9c0.1-0.1,0.1-0.1,0.1-0.3h0.5c0.1-0.8,0.7-0.6,1.3-0.9c0.1-0.1,0.1-0.1,0.1-0.3
			c1.4-0.1,2.3-1.3,3.3-1.9c1.4-0.9,2.6-0.9,3.5-2.2c0.1,0.3,0.7,0.2,0.9,0c0.1-0.1,0.2-0.2,0.2-0.4c0.4-0.2,0.6,0,0.9-0.2
			c0-0.1,0.1-0.2,0.1-0.4c0.2,0,0.3,0.1,0.5,0.1c0.2-0.1,0.8-0.3,1-0.5h0.1V225h-0.2c0.1-0.1,0.1-0.1,0.3-0.1c0,0,1.7-0.1,2.3-0.4
			c0.2-0.1,0.8-0.2,1-0.3c0.1,0,0.2-0.4,0.2-0.5c0.3-0.1,0.3,0.4,0.7,0.2c1.1-0.3,2.5-0.8,3.8-0.9v-0.4c1.7,0.2,2.7-0.7,4.3-0.7
			c-0.2,0.8-2.6,1.4-3.1,2.1c-1.3-0.3-2.1-0.3-3.4-0.2c0,0-0.1,0.1-0.1,0.1c0,0.4,0.1,0.4,0.2,0.7h1.7c0,0.2,0,0.2-0.1,0.3
			c-0.2,0.5-0.8,0.5-1,0.9c-0.5-0.1-0.8-0.5-1.3-0.6c-0.8-0.2-1.5,0.2-2.1,0.2c0.1,1,1,0.6,1.6,1h0.2c-0.1,0.5-0.5,0.6-0.8,1
			c-1.2-0.2-3.4-0.9-4.5-0.2v0.2c0.1,0.1,0.2,0.2,0.2,0.2c1,0.2,2,0.3,3,0.5c-0.2,0.5-0.6,0.7-0.9,1.2c-0.9,0-3.5-0.6-4.2-0.1h-0.2
			c0.1,1.1,1.6,1.1,2.8,1c0,0,0.1,0.1,0.1,0.1C399.4,231,399.1,231.2,398.9,231.5z M424.4,238c-0.1,0.5-0.4,0.6-0.6,0.9
			c-0.6-0.1-1.3-0.4-1.6-0.7c-0.4,0.1-0.5,0.2-0.6,0.6h-0.1c0.2,0.5,0.8,0.8,1.3,1c-0.1,0.4-0.3,0.5-0.5,0.8c-1-0.1-1.5-0.6-2.4-0.8
			l-0.3,0.3c0,0-0.1,0.1-0.1,0.1h0.1c0.1,0.7,1.2,1.1,1.9,1.3c-0.1,0.4-0.3,0.4-0.5,0.7c-0.4-0.1-0.8-0.1-1.3-0.2
			c-0.6-0.2-0.8-0.8-1.7-0.8c0,1.2,1.1,1.8,2.2,1.9c0,0.4,0,0.5-0.2,0.7v0.2c-1-0.1-3.5-1.3-3.7-1.2c-0.4,0.1-0.2-0.1-0.4,0.2
			c-0.1,0.1,0,0-0.1,0.2c0.4,0.4,0.8,0.9,1.4,1.2c0.7,0.3,1.4,0.2,2,0.6c0.1,0.1,0.1,0.1,0.1,0.3c-1.4,0-1.9-0.6-2.9-0.9
			c-0.4-0.1-0.7,0.1-0.9,0h-0.6c0,0.2,0.1,0.4,0.1,0.6c0.7,0.1,3.1,1.1,3.7,1.5c0,0,0.1,0.1,0.1,0.1h-0.1c0,0.1-0.1,0.2-0.1,0.3
			c-1.5,0.3-4.8-1-5.5-2c-0.6-0.8-1.2-2.2-2-2.8c0-0.4-0.1-0.6-0.1-0.9c1.4-0.8,2.6-2.1,4-2.9c2.2-1.4,4.9-2.7,7.3-3.7
			c0.7-0.3,1.3-0.1,2.1-0.4c1.1-0.4,2.4-0.7,3.6-1c0.7-0.2,1.6,0,2.2-0.3h1.6c-0.1,0.2,0,0.1-0.1,0.2c-0.3,0.2-0.7,0.1-1.2,0.2
			c-0.8,0.2-2,1-2.4,1.6h-0.3c0.1-0.2,0-0.1,0.1-0.2c-0.1-0.4-0.2-0.3-0.5-0.6c-0.2,0-0.2,0-0.3,0.1h-0.2c0,0.3-0.1,0.3-0.1,0.5
			c0.3,0.2,0.3,0.4,0.8,0.5v0.1c-0.3,0.2-0.4,0.6-0.8,0.4c-0.1-0.1-0.2-0.2-0.2-0.4c-0.4-0.2-0.4,0-0.6-0.2c-0.4,0-0.4,0.1-0.7,0.2
			c0,0.3,0,0.3,0.1,0.5c0.2,0.4,0.4,0.5,0.9,0.5v0.2c-0.3,0.1-0.4,0.3-0.7,0.4c-0.5,0.3-1.5-0.1-1.7-0.4H423c-0.1,0.2,0,0.1-0.1,0.2
			C422.9,237.9,423.5,238,424.4,238z M585.3,269.7c-0.3-0.1-0.3-0.1-0.5-0.2C585.1,269.5,585.2,269.5,585.3,269.7z M423.5,263.9
			h-0.2v-0.2h0.2V263.9z M386.6,322.2h-0.5c0-0.1,0.1-0.2,0.1-0.3h0.5C386.7,322,386.6,322.1,386.6,322.2z M387,321.6h-0.2
			c0-0.1,0.1-0.2,0.1-0.3h0.4C387.1,321.5,387.1,321.5,387,321.6z M387.8,321.9c-0.3-0.1-0.3-0.1-0.4-0.5c-0.1-0.1,0,0-0.1-0.2
			l0.5-0.5h0.3c0,0.3,0.1,0.7,0.1,1C388,321.8,387.9,321.8,387.8,321.9z M390.8,320.9c-0.4,0.3-1,0.2-1.4,0.5H389
			c0.1-0.5,0.3-1.1,0-1.4c0.1-0.6,0.5-0.7,0.8-1.2c0.5,0.2,0.6,0.9,1,1.2C390.9,320.4,390.9,320.8,390.8,320.9z M392,317.1
			c0.4,0.2,0.4,0.4,0.4,0.7c0.2,0.1,0.2,0.1,0.5,0.1c0,0.4-0.1,0.4,0,0.7l-0.1,0.1c-1-0.1-0.7-0.5-1.6-0.6
			C391.2,317.6,391.7,317.5,392,317.1z M392.8,320.1c-0.2,0.4-1,0.4-1.4,0.7h-0.2c0.3-0.5,1.2-0.9,1.3-1c0.1-0.2,0.1-0.6,0.2-0.8
			h0.2C392.7,319.6,392.4,319.7,392.8,320.1z M393.5,320c0-0.6,0-0.7-0.5-0.8c0.1-0.3,0.3-0.1,0.7-0.3h0.1c0-0.1-0.1-0.2-0.1-0.2
			c0.5,0.1,0.2,0.1,0.4,0.5c0.3,0,0.4-0.1,0.6-0.1c0-0.3,0-0.3,0.1-0.5c-0.1-0.3-0.2-0.3-0.5-0.5c0.2-0.8,1-0.1,1.5-0.7h0.2
			c-0.1,0.3-0.2,0.5-0.3,0.8c0.2,0.2,0.3,0.3,0.3,0.6c0.4,0,0.8-0.1,1-0.3c0.4,0.1,0.3,0.1,0.6,0.2C397.4,319.1,394.3,320,393.5,320
			z M393.3,317c0.1-0.1,0,0,0.1-0.2c0.1,0.2,0.2,0.5,0.2,0.8C393.4,317.4,393.4,317.3,393.3,317z M412.9,315.4
			c-0.6,0.2-1.4,0.4-2.1,0.5c0-0.2,0-0.2,0.1-0.3c0.2-0.3,0.3-0.3,0.8-0.4c0-0.3,0-0.3,0.1-0.5v-0.2c0.2,0.2,0.2,0.6,0.3,0.8
			c0.2,0.1,0.1,0.1,0.2,0h0.5L412.9,315.4L412.9,315.4z M600.4,331.6c-1.7-0.1-3.1-1-4.4-1.5h-0.7c-1.6-0.5-3.5-1.1-5.1-1.6
			c-1.4-0.4-2.6-0.3-4-0.7c-1.8-0.5-3.8-1.1-5.6-1.6c-0.7-0.1-1.3-0.2-2-0.2c-3.1-1.1-6.7-1.9-9.9-2.8c-1.4-0.4-2.6-0.3-4-0.8
			c-1.6-0.6-3.8-1.4-5.5-1.7c-0.2,0-0.4,0.1-0.6,0.1c-2.9-0.6-6.1-1.5-8.7-2.2c-0.8-0.1-1.6-0.2-2.4-0.2c-1.3-0.4-3-0.8-4.3-1.2
			h-1.2c-0.9-0.3-2.3-0.6-3.1-0.8h-1.3c-3.3-0.9-7.5-1.1-11-2.1h-1.9c-0.9-0.2-2.1-0.2-3.3-0.5c-4.5-1.1-9.7-0.9-14-1.9
			c-1-0.2-3-0.3-4-0.3c-0.4,0-0.8,0.1-1.2,0.1c-3.4-0.7-7.2-0.7-10.2-1c-0.6-0.1-2.1,0.1-2.7,0c-2.6-0.5-6-0.6-8.8-0.3
			c-1,0.1-2.8,0-3.6-0.2c-1.1-0.2-2.6,0.2-3.5,0.1c-3.2-0.3-7.3-0.2-10.2,0c-2.3,0.2-4.5-0.2-6.6,0.2h-3.1c-0.9,0.2-1.7,0.4-2.6,0.3
			c-0.4-0.1-0.7-0.2-1-0.2c-2.1,0.4-5.1,0.3-7.6,0.7c-0.4,0-0.8-0.1-1.2-0.1c-0.6,0.1-1.7,0.6-2.3,0.6c-0.8,0-2-0.1-3,0.1
			c-2.3,0.6-5.2,1.1-8,1c-0.1-0.3-0.2-0.7-0.2-1h-0.5c0.1,0.3,0,0.2,0.2,0.4l-0.1,0.1c-0.2,0.1-0.1,0-0.5,0
			c-0.1,0.3-0.1,0.4-0.2,0.6c0.3,0.2,0.2,0.2,0.6,0.1c-0.2,0.3-0.2,0.2-0.5,0.4c-0.4,0-0.8,0-1-0.1c-0.1-0.1-0.1-0.1-0.1-0.4
			c-0.7,0-0.7,0.2-1.4,0.2c0.1,0.2,0,0.1,0.1,0.2c-0.4,0.8-2,0.2-3,0.5c-1.3,0.3-3,0.6-4.2,0.9c-1.1,0.3-2.2,0-3,0.6h-0.2
			c0-0.4,0-0.5,0.2-0.7c0-0.3-0.1-0.3-0.1-0.5c-1.1-0.2-2-0.3-3-0.5l-0.8,0.8h-0.3c0,1,0.3,0.9,0.8,1.4c-1.8,0.7-4.2,0.9-6,1.5
			c-0.6,0.2-1.1,0-1.6,0.3c-0.5,0-0.4,0-0.5-0.1c-0.2-0.8-1-0.9-1.4-1.4c-0.4,0.2-0.4,0.4-0.8,0.6v0.5h0.3c-0.1,0.3,0,0.2-0.2,0.3
			c0.2,0.4,0.2,0,0.5,0.4l0.1,0.1c-0.6,0.2-1.8,0.2-2.3,0.6h-0.2c0-0.2,0-0.2,0.1-0.3c0-0.7-0.3-0.7-0.6-1.2c-0.3,0-0.3,0-0.5,0.1
			h-0.2v-0.5c-0.8-0.2-0.3-0.8-0.9-1.2c0.1-0.4,0.1-0.7,0.3-0.9v-0.2c-0.6-0.1-1,0-1.6,0c0.2,0.9,0.5,0.4,0.5,1.5
			c-0.5,0.1-0.6,0.4-0.8,0.5c-0.4,0.2-0.2-0.3-0.6-0.2c-0.2,0-0.5,0.3-0.8,0.3v-0.1h-0.1c0.4-1.2,3.8-4,5.1-3.8c0-0.1,0-0.6,0-0.6
			c0.7-0.9,2.3-1.2,2.9-2.1h0.2c0.1,0.3,0.3,0.4,0.5,0.7c1.1-0.1,0.6-1,0.2-1.4c0.4-0.2,0.8-0.3,1-0.6c0.2,0.3,0.4,0.8,0.6,1
			c0.4-0.1,0.5-0.2,0.8-0.4c0-0.3,0-0.3-0.1-0.5c-0.2-0.5-0.3-0.4-0.7-0.3l0.1-0.1c0.5-1,1.8-1.3,2.7-2c0.2-0.2,0.4-0.6,0.7-0.8
			c0.7-0.5,1.6-0.8,2.3-1.3l0.7-0.7c0.2,0,0.5-0.1,0.7-0.1c0.3-0.3,0.5-0.6,0.8-0.9c0.6-0.4,1.4-0.4,2-0.8c0.2-0.2,0.4-0.6,0.6-0.7
			c1-0.6,2-0.8,3-1.4c0.6-0.3,1.2-1,1.9-1.3c1.8-0.8,3.5-1.7,5.2-2.4c0.4-0.1,0.8-0.2,1.2-0.2c0.1-0.2,0.2-0.3,0.4-0.5
			c0.4-0.2,1-0.2,1.4-0.4c0.8-0.3,1.7-1,2.4-1.3c1.7-0.6,3.3-0.8,5-1.5c0.4-0.2,0.9-0.7,1.3-0.8h0.9c0.3-0.1,0.8-0.5,1-0.6
			c0.7-0.3,1.2-0.2,1.9-0.5l0.5-0.5c0.5-0.2,0.8-0.1,1.3-0.2c1.4-0.5,3.2-1.1,4.5-1.6c0.5-0.1,0.9-0.2,1.4-0.2
			c1.4-0.5,3.3-1.1,4.9-0.8c0.6,0.1,1.2-0.7,1.7-0.9c0.5-0.2,1,0.1,1.3,0c0.5-0.1,1.1-0.5,1.5-0.6c0.5,0,1.1-0.1,1.6-0.1
			c1.9-0.5,4.8-1.1,6.6-0.9c0.8,0.1,2.1-0.4,2.7,0h2.3v-0.2c-0.3-0.2-0.6-0.3-0.9-0.5c-0.1-0.2,0-0.3,0-0.7c-2.2-1.1-4.1-2.6-6-3.8
			c-1.5-1-3.1-1.5-4.8-2.3c-0.7-0.4-1.6-1.1-2.3-1.5c-1.4-0.9-3-1.2-4.5-1.9c-0.5-0.2-0.9-0.7-1.4-0.9c-1.4-0.6-2.6-0.7-4.1-1.3
			c-0.7-0.3-1.6-0.9-2.3-1.3c-1.1-0.5-2.5-0.6-3.4-1.3c-0.3-0.2-0.3-0.6-0.4-0.9c-0.6,0-0.7,0.1-0.8,0.6c-0.4-0.1-1.1-0.3-1.4-0.6
			c-0.1-0.3,0.2-0.5,0-0.8v-0.2c-0.9,0.1-0.7,0.5-0.9,0.8c-0.6,0.2-1.9-0.6-2.7-0.8c0-0.4,0.1-0.4,0-0.6c-0.2-0.4-0.4-0.4-0.7-0.7
			h-0.2c-0.1,0.3-0.3,0.5-0.3,0.8c-0.5,0-0.5,0-0.8-0.2h-0.2c0.3-1,0.6-1,0.7-2.1c-0.4,0-0.5-0.1-0.8-0.2c-0.2,0.4-0.4,1.1-0.8,1.4
			c0.2,0.1,0.4,0.1,0.5,0.1c0.1,0.1,0.2,0.2,0.3,0.2c0,0.1-0.1,0.2-0.1,0.2c-1.8,0.1-3.1-0.5-4.7-0.7c0-0.5,0-0.4,0.3-0.6
			c-0.1-0.3-0.5-0.9-0.7-1.2c0.1-0.6,0.2-0.5,0.4-0.9c0.1-0.2-0.2-0.6-0.4-0.9c-0.3,0-0.5,0-0.7,0.1c-0.2,0.4-0.1,1.4-0.2,2.2
			c0.4,0.3,0.5,0.8,0.9,1v0.1c-0.8,0-1.6-0.1-2.1-0.5h-0.1c-0.1-0.2,0.1-0.2,0.1-0.2c-0.2-0.3-0.2-0.2-0.5-0.3
			c-0.1-0.1-0.6-1.7-0.6-2c-0.5,0.1-1.1,0.4-1.4,0.8c0,0.1,0,0.1,0.2,0.2c-0.1,0.1-0.2,0.2-0.2,0.2c0.2,0.3,0.4,0.4,0.7,0.6
			c-0.2,0.2-0.3,0.1-0.5,0.5h-5c0,0,0.1-0.1,0.1-0.1c0.3-0.4,0.9-0.5,1.3-0.9c0.3,0.1,0.2,0.2,0.3,0.5c0.4,0.1,0.9,0.2,1.3,0.4
			c0.1-0.1,0.2-0.2,0.2-0.2c0-0.3,0-0.3,0.1-0.5c-0.1-0.5-0.2-0.4-0.5-0.7c0,0-0.1-0.1-0.1-0.1c1.1-0.7,2.3-1.5,3.4-2.3
			c0.2-0.2,0.3-0.4,0.5-0.6c0.9-0.6,2.1-0.8,3-1.4c0.9-0.5,1.8-1.2,2.8-1.6c0.4-0.2,0.8-0.1,1.3-0.3c0.4-0.2,0.8-0.7,1.3-0.9h0.6
			c0.1-0.2,0.2-0.3,0.3-0.5c0.3-0.1,0.3,0.2,0.6,0c0.1,0,0.1-0.3,0.2-0.3h0.7c1.6-0.6,3.6-1.4,5.3-1.9h1.4c0.6-0.2,1.4-0.2,2.2-0.5
			c3.4-0.9,6.5-1.3,10.1-2.3c0.4-0.1,0.8,0.2,1.2,0.1c1.6-0.2,3.8-0.7,5.1-1.2c0.4-0.1,0.8,0.4,1.3,0.2c0.8-0.3,1.9-0.6,2.6-0.5
			c0.7,0.1,3.4-0.3,4.2-0.5c0.3,0,0.6,0.1,0.9,0.1c0.6-0.1,2.5-0.6,2.9-0.5c0.2,0.1,1.6,0.3,2.3,0.1c0.8-0.2,2.7-0.5,3.6-0.3
			c1.2,0.2,3.6-0.3,4.5-0.5c0.9-0.2,2.4,0.4,3.4,0v-0.2c0.2-0.1,0.5,0.2,0.6,0.2c1,0.2,2-0.4,2.9-0.2c0.5,0.1,2.1,0.4,2.8,0.1
			c1.3-0.6,4.3,0.6,6-0.1c0.3,0.2,0.1,0.3,0.7,0.5c0.4,0.1,0.9-0.1,1-0.1c0.6-0.1,2.3,0.1,2.7,0.2c1.4,0.4,3.2-0.2,4.3,0
			c1.8,0.3,3.5,0.2,5.6,0.6c0.6-0.1,1.2-0.2,1.9-0.2c1.3,0.3,3.4,0.7,4.9,0.6c0.9,0.5,2,0.2,3.1,0.6c2.6,0.8,6.5,1.2,9,1.9
			c0.4,0,0.8-0.1,1.2-0.1c1.6,0.4,4,0.9,5.5,1.5c0.7,0,1.3,0.1,2,0.1c2.9,1.1,6.2,2.3,9.1,3.1c1.3,0.4,2.4,0.6,3.6,1h0.6
			c0.1,0.1,0.4,0.4,0.6,0.5c0.2,0,0.3-0.1,0.5-0.1c0.1,0,0.4,0.3,0.5,0.3c0.4,0.1,0.5-0.2,0.9,0v0.2c0.9,0.5,1.9,0.3,2.9,0.7
			c0.4,0.2,1.2,0.6,1.6,0.8h0.7c0.4,0.2,1,0.6,1.4,0.8c0.4,0.2,0.7,0,1.2,0.2c0.1,0.1,0.2,0.4,0.3,0.5c0.3,0,0.5,0.1,0.8,0.1
			c0.6,0.2,1.3,0.7,1.9,0.9c0.3,0,0.6,0.1,0.9,0.1c2.5,1,5.3,2.3,7.8,3.4c0.9,0.4,1.7,0.3,2.6,0.7c0.5,0.2,1.2,0.8,1.7,1
			c0.5,0.2,0.9,0.2,1.4,0.5l0.7,0.7c1.1,0.6,2.3,0.9,3,1.7c-1.2-0.5-2.2-0.7-3.3-1.3c-1-0.5-2.2-1.5-3.5-1.5c0.2,1,1.7,1.1,2.4,1.6
			c0.3,0.2,0.4,0.5,0.8,0.7v0.1c-0.6-0.1-1,0.1-1.7-0.1c-0.6-0.2-1.2-0.8-1.6-1c-1.2-0.7-2.6-1.2-3.7-2c-0.6-0.4-1.4-0.3-1.9-0.8
			c-0.4,0-0.8,0-1,0.1c0.1,0.9,1,0.8,1.6,1c0.9,0.4,1.7,1.1,2.6,1.5c0.2,0,0.4,0.1,0.6,0.1c0.4,0.2,0.6,0.7,1,0.8
			c-1.1,0.6-2.5-0.6-3.1-0.9c-1.7-0.8-3.2-1.5-5-2.3c-1.2-0.5-2.3-1.6-4-1.6v0.5c1.8,1,3.8,1.8,5.5,2.9c0.6,0.4,1.2,0.3,1.5,0.9
			c0,0,0.1,0.1,0.1,0.1c0,0-0.1,0.1-0.1,0.1c-1.9-0.1-4.1-0.6-5.2-1.4c-0.1,0-0.1-0.3-0.2-0.3c-0.7-0.3-1.3-0.6-2-0.8
			c-0.3,0-0.5-0.1-0.8-0.1c-1-0.4-2.1-1.2-3.5-1.3v0.3c2.3,1.1,4.7,1.8,6.7,3.1c-0.1,0.2,0,0.1-0.1,0.2c0,0-1.8,0.4-2.1,0.4
			c-0.4-0.1-0.9-0.7-1.3-0.9c-2.1-1-5.5-3-8.1-2.8c0.2,1,1.6,0.8,2.4,1.2l0.3,0.3c1,0.4,1.9,0.5,2.8,1c0.2,0.1,0.6,0.6,0.8,0.7
			c0.7,0.3,1,0,1.2,0.8c-0.5,0.1-0.9,0.4-1.3,0.3c-0.8-0.1-1.8-0.9-2.4-1.3c-0.7-0.4-1.5-0.4-2.3-0.8c-1.6-0.8-3.4-1.7-5.8-1.6v0.6
			c2.1,0.3,3.7,1.1,5.2,1.9c1.2,0.6,2.5,0.8,3.5,1.5c-0.3,0.4-2.9,0.9-3.6,0.6c-1.9-0.8-4.1-1.7-6-2.4c-0.9-0.3-1.8-0.3-2.6-0.8
			c-0.4,0-0.8,0-1,0.1v0.5c0.8,0.1,1.6,0.2,2.4,0.3c0.3,0.1,0.6,0.7,0.9,0.8h0.8c0.4,0.1,0.9,0.6,1.3,0.8c1.1,0.5,2.2,0.7,3.1,1.3
			c-0.1,0.2,0,0.1-0.1,0.2c-0.7,0.5-1.6,0.5-2.4,0.1c-2.1-0.9-4.4-1.6-6.6-2.4c-0.6-0.2-2.1-0.9-2.7-0.6c-0.1,0-0.2,0.1-0.4,0.1
			c0.1,0.4,0.1,0.3,0.2,0.6c2,0.1,2.8,0.7,4.2,1.3c1.8,0.8,3.5,1.2,5.1,2.1c-0.3,0.4-0.7,0.4-0.9,0.8c-1.1-0.1-1.6-0.8-2.4-1.2
			c-0.5-0.1-1.1-0.2-1.6-0.3c-1.3-0.4-2.7-1-4.1-1.4c-0.4,0-0.9-0.1-1.3-0.1c-0.6-0.2-1.4-0.6-2.2-0.7v0.5c0.6,0.1,1.4,0.7,2,0.9
			c0.5,0,0.9,0.1,1.4,0.1c2.1,1.1,4.9,1.6,6.9,2.8c-0.2,0.6-0.8,0.7-1.2,1c-1.7-0.1-3.9-1.3-5.6-1.7c-1.3-0.3-2.5-0.4-3.6-0.7
			c-0.4-0.1-0.8,0-1-0.1c-0.4,0-0.6,0-0.8,0.1v0.5c1.2,0.3,2.6,0.6,3.8,0.9c0.7,0.1,1.4,0.2,2.1,0.4c1,0.5,2.3,1.1,3.7,1.2
			c0,0,0.1,0.1,0.1,0.1c-0.2,0.8-1,1.1-1.5,1.6c-0.9-0.1-2-0.6-2.8-0.9c-0.5-0.1-1-0.2-1.5-0.2c-0.4-0.1-1.1-0.5-1.5-0.6
			c-0.7-0.2-1.8,0.1-2.4-0.2c-0.3,0-0.5,0-0.7,0.1v0.5c1.3,0,1.1,0.3,2.1,0.6c0.5,0,0.9,0.1,1.4,0.1c1.4,0.4,3.2,0.9,4.4,1.5
			c-0.2,0.5-0.5,0.6-0.8,1c-2-0.5-4.4-1.3-6.6-1.4c-1,0-2.3-0.5-3,0h-0.2c0,0.2,0,0.2,0.1,0.3c0.9,0.5,2.6,0.2,4.1,0.6
			c1.6,0.4,3.5,0.9,5,1.3c-0.1,0.6-0.4,0.9-0.7,1.4c-3.5-0.4-6.8-1.4-10.6-1.4v0.6c0,0,0.1,0.1,0.1,0.1c2.6,0,4.8,0.5,7.1,1.2
			c0.9,0.2,2.1-0.1,2.8,0.3h0.2c0,0.6,0,1-0.2,1.3c-0.5,0.2-1.6-0.4-2.2-0.6c-2-0.5-4.1-0.3-6-0.2v0.4c0.3,0.1,0.9,0,1.4,0.1
			c2.3,0.6,5.1,0.7,7,1.7c0,0.3,0,0.4,0.1,0.6c0,0.3-0.1,0.3-0.1,0.5c-0.7-0.1-1.2-0.3-1.7-0.5c-1.8-0.5-3.6-0.6-5.8-0.6v0.6
			c0.4,0.1,1.6-0.1,2,0c0.7,0.2,1.7,0.7,2.6,0.9c1,0.3,2.4,0.2,2.9,0.6c0.1,0.1,0.2,0.2,0.4,0.2v0.8c-2.4-0.4-5.3-1.3-7.7-0.9
			c0,0-0.1,0.1-0.1,0.1v0.5c2.2,0.4,4,0.6,5.8,1c0.9,0.2,1.7,0.1,2.3,0.6l0.3,0.3c0,0.3,0,0.4-0.1,0.6c0,0-1.4,0.1-1.7,0
			c-1.2-0.3-3.5-0.2-4.8-0.2c0,0-0.1,0.1-0.1,0.1v0.5c1.9,0,3.9,0.3,5.6,0.7c0.7,0.2,1.2-0.1,1.6,0.2c0.3,0.1,0.3,0.2,0.5,0.4v0.2
			c-1.2-0.2-4-0.7-4.9-0.1h-0.2v0.7c1,0,4.3,0.1,4.9,0.8c0.4-0.1,0.5-0.2,0.7-0.5c0.6,0.3,0.8,1.1,1.3,1.5v0.2
			c-1.1-0.1-3.8-0.6-4.5-0.1c-0.1,0-0.2,0.1-0.4,0.1c0.1,0.3,0.1,0.3,0.2,0.5c1,0.2,2.1,0.2,3.1,0.5c0.5,0.1,1.2-0.1,1.6,0.1
			c0.7,0,1,0,1.2,0.6c0,0,0.1,0.1,0.1,0.1c0,0-0.1,0.1-0.1,0.1c-0.9-0.1-3.2-0.4-3.8,0c-0.1,0-0.2,0.1-0.3,0.1
			c0,0.5,0.1,0.5,0.2,0.8c2.4-0.3,4.9,0,6.5,1v0.2c-0.9,0-3.4-0.1-4.2,0.5h-0.2v0.6c1.6,0,5.2-0.5,6.4,0.1c0.6,0.3,1,1.1,1.7,1.4
			c-0.9,0.6-2.9-0.3-4,0.4c-0.5,0-0.6,0.1-0.9,0.2v0.5c1.7,0,2.6,0.1,4,0.1c0.9,0,1.9,0.1,2.8,0.1c0.4,0.3,0.8,0.5,1.2,0.8
			c0,0.1-0.1,0.2-0.1,0.2c-1.8-0.1-3.2,0.2-4.5,0.4l-0.1,0.1c0,0.3-0.1,0.3-0.1,0.5c0.7,0.3,1.1-0.2,2.1,0c1.2,0.2,4.1-0.4,5.6,0.3
			c0.3,0.1,0.5,0.5,0.8,0.7v0.1c-1.9,0-3.3-0.2-4.9-0.2c-0.1,0.1-0.3,0.2-0.5,0.3v0.2c0.1,0.1,0,0,0.1,0.2c2.5,0.5,6.3,0.2,8.4,1.3
			v0.1c-1.5,0-3.8-0.4-4.7,0.4c-0.1,0.1-0.1,0.1-0.1,0.3c1.3,0,2.2,0.1,3,0.3c1.2,0.3,2.7-0.3,3.7,0.1c1,0.4,1.9,1.2,2.8,1.7v0.2
			c-1.9,0-4.1-0.1-6.2,0l-0.1,0.1v0.6c1.2,0,2.9,0.2,3.8,0.3c0.5,0.1,1.3,0,1.6-0.1c0.7,0,1.5,0.1,2.2,0.1c0.2,0,0.5-0.1,0.7-0.1
			c0.8,0.2,1.4,1,2.2,1.4v0.2c-1.3,0.2-3.3-0.2-4.7-0.2c-0.6,0-1.4-0.3-1.9,0c-0.2,0.1-0.1,0-0.2,0.1c-0.1,0.1-0.1,0.1-0.1,0.3
			c2.6,0.3,5.2,1.1,8,1.2c0-0.3,0.1-0.4,0.1-0.6c0.9,0.1,1.2,0.5,1.9,0.8v0.2c-1.6,0.2-4.2-0.9-5.5,0l-0.2,0.1v0.5
			c2.8-0.2,6.2,0.6,8.6,1c-0.4,0.2-0.9,0-1.3,0c-1,0.1-3.1,0.3-4.5,0.4l-0.1,0.1v0.3c1.8,0.3,4.3,0.1,5.8,0.5
			c1.6,0.4,3.1-0.2,3.6,1.2h0.1v0.1c-1.9,0.3-4.8-0.9-6.2,0.1h-0.2c0,0.2,0,0.2,0.1,0.3c0.7,0.5,1.5,0,2.6,0.2
			c1.6,0.4,3.6,0,5.3,0.5c1.3,0.3,2,1.2,3.1,1.7v0.2c-2.8-0.2-5.6-1.4-8.3-1.2v0.5c0.8,0.2,1.3,0.5,2,0.7c1.8,0.5,3.7,0.5,5.2,0.9
			c0.7,0.2,2.3,0.5,2.7,0.1c0.8,0.1,1,0.6,1.5,0.9l-0.1,0.1c-0.4,0.3-1.6-0.2-2-0.3c-1.4-0.1-2.8-0.2-4.2-0.4
			c0.1,0.4,0.2,0.4,0.3,0.7c1.6,0.4,3.4,0.7,5.1,1c0.9,0.1,1.8,0.2,2.7,0.2c0.6,0.2,0.7,0.6,1.4,0.7c0,0.2,0,0.2,0.1,0.3v0.2
			c-2.2-0.5-4.8-1.1-7.1-0.9v0.5c1.8,0.5,4,0.9,5.8,1.4c1.4,0.4,2.5,0.1,3.8,0.6c0.8,0.3,1.2,1.2,1.9,1.6c0.9,0.6,1.8,1.2,2.7,1.7
			L600.4,331.6L600.4,331.6z M453.7,284.7c0.1-0.3,0.5-2.8,0.5-3c0-0.1-0.4-0.6-0.5-0.7c-0.1-0.4,0.1-1-0.1-1.6
			c-0.1-0.2-0.4-0.6-0.5-0.8c-0.3-0.9-0.2-1.7-0.6-2.6c-0.2-0.4-0.5-0.8-0.6-1.3c1.3,0.2,2.5,1.2,3.6,1.6c0.3,0.1,0.8,0.1,0.9,0.1
			c0.3,0.2,0.6,0.7,0.9,0.9c0.3,0.2,0.6,0.1,0.9,0.2c0.9,0.4,2,1.2,2.8,1.7c0.5,0.3,1.1,0.4,1.6,0.7c1.4,0.9,2.7,2.1,4.3,2.9
			c0,0.1-0.1,0.2-0.1,0.2c-2.3,0-4.4,0.5-6.3,0.7c-0.1,0-0.5-0.2-0.8-0.1c-1.7,0.4-3.6,1.1-5.6,1.3
			C454.1,284.8,454,284.7,453.7,284.7z M453.9,285.1c-0.2-0.1-0.1,0-0.2-0.1C453.9,285.1,453.8,285,453.9,285.1z M378.9,297
			c0.9-0.5,1.9-1,2.8-1.5c0.1,0.2,0.1,0.4,0.1,0.7c0.4-0.1,0.4-0.2,0.8-0.2c0.1-0.2,0.2-0.4,0.4-0.6c-0.1-0.4,0-0.3-0.2-0.5
			c0.2-0.3,0.7-0.8,1-0.9c0.2,0,0.5,0.1,0.7,0.1c0.3-0.1,0.1-0.4,0.2-0.7c0.6-0.5,1.2-1,1.7-1.5c0.2,0.3,0.2,0.4,0.6,0.6
			c0,0,0.1,0.1,0.1,0.1v-0.1c0.5-0.3,0.2-0.6,0.7-0.9c-0.2-0.3,0-0.1-0.3-0.2c0.1-0.5,0.4-0.6,0.8-0.8c0,0,0.1,0.1,0.1,0.1
			c-0.1,0.3,0,0.2-0.2,0.3c0,1,0.3,0.9,0.8,1.4c1.2-0.1,0.5-0.7,1.4-0.6c-0.1-0.3-0.2-0.3-0.5-0.5c0.1-0.6,0.3-0.9,0.6-1.3
			c0-0.5-0.1-0.5-0.4-0.7c0.1-0.6,0.4-0.8,0.9-0.8c0,0.3,0,0.6,0.1,0.8c0.2,0.2,0.5,0.3,0.7,0.1c0.3-0.1,0.9-1.1,1.2-1.4h0.2
			c-0.4-0.3-0.7-0.2-0.9-0.6c-0.1-0.3-0.1-0.1,0.1-0.3V287c0.1,0.1,0.2,0.3,0.4,0.5c0.4,0,0.6,0,0.8-0.2c0.3,0.2,0.3,0.4,0.4,0.7
			c0.3,0.1,0.3,0.1,0.5,0.2c0.8,0,0.7-0.3,0.6-0.9c0.3-0.2,0.3-0.2,0.8-0.2c-0.2-0.5-0.7-0.6-0.5-1c0.1-0.1,0.4,0.2,0.7,0h0.5
			c-0.1-0.4-0.2-0.7-0.2-1c0.4,0,0.7,0,0.9-0.1c0.2-0.7,0.4-1.2-0.3-1.4c0,0-0.1-0.1-0.1-0.1v0.1c-0.5,0.1-0.5,0.3-0.8,0.5v0.4h-0.3
			c0.2-0.4,0.6-0.6,0.7-1c0-0.2-0.1-0.5-0.1-0.7c0.1-0.1,0.5-0.2,0.6-0.4c0.5-0.7,1-1.8,1.7-2.3c0.2-0.1,0.3,0,0.6,0.1
			c0.2-0.2,0.2-0.2,0.5-0.3c0-0.5,0-0.7-0.3-1v-0.6c0.3,0.1,0.4,0.5,0.5,0.8c0.3-0.1,0.4-0.1,0.6-0.2c0.2,0.2,0.3,0.3,0.6,0.4
			c-0.2,0.3-0.8,0.5-1,0.7c0,0.9,0.2,0.8,0.6,1.3c0.3-0.1,0.3-0.1,0.5-0.2c0.1-0.4,0.1-0.7,0-1.2c0.4,0.1,0.5,0.3,0.7,0.2
			c0.3-0.2,0.4-0.4,0.6-0.6c0,0,0.1-0.1,0.1-0.1c0,0.2,0,0.4,0,0.8c0.4,0.2,0.5,0.4,0.8,0.6v0.1c0.1-0.1,0.2-0.3,0.4-0.5
			c0.1-0.1,0.9-0.2,1.2,0h0.5c-0.1-0.5-0.1-0.8,0.2-1.2c-0.1-0.5-0.3-0.5-0.5-0.9c-1.3,0-0.7,0.9-1.2,1.7c0,0-0.1,0.1-0.1,0.1v-0.1
			h-0.2c0-0.2,0-0.2,0.1-0.3c-0.1-0.5,0-0.4-0.4-0.6c-0.2-0.1-0.1,0-0.3,0.1c-0.4,0-0.4,0-0.6-0.2c-0.4-0.2,0-0.1-0.2-0.3V278
			c-0.5-0.1-0.7-0.1-1,0.2c-0.2-0.2-0.3-0.5-0.3-0.9c-0.2,0-0.5-0.1-0.7-0.1c0.1-0.6,0.3-1.1,0.6-1.5c0,0,0.1-0.1,0.1-0.1
			c0,0.2,0.1,0.5,0.1,0.7c0.6,0.1,0.7,0,1.2-0.2c0-0.6,0-0.9-0.3-1.2c-0.3-0.1-0.2,0-0.5,0.1c0,0-0.1-0.1-0.1-0.1
			c0-0.8,0.2-0.9,0.5-1.3c0-0.1,0-0.1-0.1-0.1v-0.2c0.2,0.1,0.3,0.2,0.5,0.4v0.7c0.3-0.1,0.4-0.1,0.6-0.2h0.1c0,0.4,0,0.9-0.2,1.2
			c0.1,0.5,0.1,0.4,0.2,0.7c0.6,0,0.9-0.1,1.3-0.2c0.2,0.4,0.3,0.6,0.7,0.7c0.1-0.1,0,0,0.2-0.1c0.1-0.4,0.1-0.6,0-1
			c-0.8,0-0.9-0.4-1-1h-0.8c0-0.5,0.1-0.5,0.3-0.7c-0.1-0.7-0.5-0.5-0.8-0.9c-0.1-0.2-0.1-0.6-0.2-0.8c-0.1-0.1-0.1-0.1-0.3-0.1
			c-0.1-1.2-0.3-2.4-0.6-3.6l0.5-0.2c0.3,0.8,0,0.5,0.5,1.2c0.3,0,0.4,0,0.6-0.1c0.4-0.2,0.2-0.3,0.5-0.6c-0.1-0.5-0.7-0.9-1.2-0.6
			h-0.2v-0.6c0.2-0.1,0.5-0.2,0.7-0.2c0.2-0.2,0.2-0.4,0.5-0.6c0-0.4,0-0.6,0.1-0.8c-0.1-0.1-0.2-0.2-0.2-0.2c-0.4,0-0.5-0.1-0.7,0
			c-0.6,0.2-0.8,0.8-1.3,1.2v0.4h-0.3c-0.2-1.2-1.2-2.9-2.2-3.3c0.1-0.5,0.3-0.9,0.3-1.3h-0.1c-0.1-0.1-0.3,0-0.5-0.1
			c-0.3,0-0.3,0.1-0.5,0.1c0,0.3,0,0.4,0.1,0.6v0.2c-0.7-0.1-1.3-0.4-1.7-0.8c-0.1-0.3,0.2-0.4-0.1-0.8c0.1-0.4,0.1-0.4,0.3-0.6
			c0.1-0.1,0.3,0,0.5,0.1h0.1c-0.2-0.6-0.7-0.9-1-1.4c-0.5,0.1-0.7,0.2-0.8,0.7c-0.3-0.1-0.2-0.2-0.3-0.4c-0.2-0.2-0.5-0.3-0.7-0.1
			c-0.8,0.4-0.1,1.4,0.5,1.6v0.2c-0.7-0.1-1.6-0.4-2.2-0.2c0.1-0.3,0.2-0.6,0.4-0.9c0-0.8-0.4-0.8-1.2-0.8v0.7
			c-0.1-0.1-0.4-0.3-0.5-0.4h-0.2c-0.1,0-0.5,0.3-0.6,0.4c-0.4,0.1-0.7,0-0.8,0c-0.6,0.2-0.5,0.5-0.5,1c-0.4,0.1-1.1,0.1-1.4,0.3
			h-0.5c0.1-0.3,0.1-0.3,0.4-0.5c0-0.5-0.2-0.9-0.5-1.2c-0.2-0.1-0.3-0.2-0.5-0.3c-0.2,0.1-0.5,0.5-0.6,1c-0.2,0-0.2,0-0.3-0.1
			c-0.6,0.3-0.2,1-0.1,1.6c-1.1,0.3-2.9,1.3-3.7,0c-0.5,0.1-0.6,0.3-0.9,0.5c0,0.7,0.2,0.8,0.6,1v0.1c-0.7,0.3-1.6,0.5-2.1,1
			c-0.3-0.2-0.2-0.6-0.5-0.9c0,0-0.5,0.1-0.8,0.1c0,0-0.1,0.1-0.1,0.1c0.1,0.6,0.2,1,0.6,1.3c0,0-0.1,0.1-0.1,0.1
			c-0.3,0.1-0.4-0.1-0.6-0.3c-0.3,0.1-0.4,0.3-0.8,0.3c0.1,0.4,0.2,0.8,0.2,1.2c-0.5,0.3-1.3,1-1.5,1.6c-0.2-0.2-0.2-0.4-0.4-0.7
			c-0.3,0-0.4,0-0.6,0.1c-0.3,0.1-0.3,0.3-0.6,0.5c0.1,0.4,0.1,0.4,0.2,0.7c0.4,0,0.3,0,0.8,0c0,0-0.1,0.1-0.1,0.1
			c-0.3,1-1.1,0.8-1.9,1.2c0,0.4,0,0.9,0.1,1.2c-0.1,0.4-0.3,0.5-0.6,0.7c-0.1,0.1-0.5,0-0.7-0.1h-0.2c-0.1-0.1,0.3-0.1,0.2-0.3
			c-0.2-0.3-0.3-0.6-0.5-0.9c-0.3,0-0.4,0-0.6,0.1c-0.4,0.2-0.5,0.4-0.6,0.9c-1.2-0.1-2.4-0.2-3.6-0.4c-0.6-0.2-1.5-0.8-2.1-0.9
			c-0.2,0-0.5,0.1-0.7,0.1c-0.4-0.1-1.3-0.2-2-0.4c-0.8-0.2-2.6-0.9-3.5-0.6c-0.7,0.2-4.2,3.2-4.5,3.8c-0.2,0.4,0,0.7-0.3,1
			c-0.1,0.1-0.5,0.1-0.6,0.2c-0.3,0.5-0.2,1-0.5,1.5c-0.1,0.1-0.2,0.2-0.3,0.2v0.9c-0.1,0.2-0.5,0.4-0.6,0.7c-0.2,0.5,0.1,1.2,0,1.6
			c0.5,0.3,0.6,1,1,1.3c0.6,0.4,1.2,0.7,1.7,1c0,0.2-0.6,1-0.7,1.2c0.1,0.8,0.4,0.9,1,1.2c0,0.4,0.1,1.1,0,1.3
			c0,0.5-0.1,0.5-0.2,0.8h-0.2c-0.1-0.4-0.2-1-0.3-1.6c-0.1-0.1-0.4-0.1-0.5-0.2c-0.3,0.1-0.2,0.1-0.4,0.3c-0.4-0.2-0.5-0.5-0.8-0.7
			c-0.1-0.2-0.5,0.2-0.7,0.4c-0.1,0.1-0.9-0.6-1.3-0.7c-0.2,0.3-0.5,0.5-0.9,0.6c0.1,0.4,0.4,0.7,0.6,1c0.4,0,0.8,0.1,1.2,0.1v-0.7
			c0.3,0,0.3,0.1,0.5,0.1c0.2,0.5,0.8,1.5,0.2,2.1c0.1,0.3,0.3,0.5,0.8,0.6c0,0.5,0,1.1,0.2,1.4v0.2h-0.2c-0.7-0.7-1.8-1.6-2.2-2.4
			v-0.5c-0.2-0.4-0.9-0.5-1.2-0.9c-0.7-1.2-0.9-2.8-1.6-4c-0.4-0.2-1.1,0.3-1.5,0.5c-0.5,0.3-1.9,0.9-2.2,1.4v0.5h-0.1
			c-0.3,0.4-0.8,0.6-1,0.9c-0.2,0.2-0.1,0.7-0.3,0.8h-0.5c-0.4,0.1-0.5,0.4-0.7,0.8c-0.5-0.1-0.9-0.2-1.2,0.1h-0.2
			c0.2-0.2,0.1-0.1,0.4-0.2c-0.3-0.4-0.3-0.5-0.4-1c-0.7,0.1-0.4,0.2-1.4,0.2c-0.1,0.3-0.2,0.4-0.5,0.6c0,0.4,0,0.7,0.1,0.9
			c0.6,0.2,1,0.3,1.4-0.2h0.3c-0.1,0.3-0.1,0.9-0.2,1c-0.2,0.2-0.7,0.1-0.9,0.2c-0.1,0.2-0.2,0.4-0.3,0.6c-0.2,0.1-1.4-0.2-1.6-0.2
			c-0.3,0.4-0.7,0.8-0.9,1.3h-0.3c-0.1-0.7-0.3-1.2-0.2-1.9c-0.5-0.2-0.7,0-0.8-0.6c-1,0.6-0.1,2.3,0,3.3h0.7v0.1
			c0.2,0.4,0.2,2.5,1.3,1.3h0.4c0,0.1-0.1,0.2-0.1,0.3c-1.2,0.2-1.8,0.5-2.7,0.9l-0.2-0.5h-0.8v0.8h-0.2c0-0.2-0.1-0.7-0.2-0.9
			l-0.3-0.4c-0.6,0.1-0.5,0.4-1.2,0.5c0,0.8,0,1.2-0.4,1.6l-0.1,0.1c-0.3-0.8-0.5-0.5-1.2-0.9c-0.1-0.1,0-0.1-0.1-0.3
			c0-0.6-0.1-0.7-0.4-1c-0.2,0-0.5,0.1-0.7,0.1c-0.6,1.6-0.3,0.5-1.3,1.2c-0.3,0.2-0.6,0.6-0.9,0.8c0.2,0.3,0.4,0,0.8,0.3
			c0.2,0.1,0.2,0.4,0.3,0.6c0.2-0.4,0.6-0.6,0.9-0.9l0.1-0.1c0.1,0.3,0.2,0.5,0.4,0.7c0.3,0,0.4-0.1,0.6-0.1c0,0,0.1,0.1,0.1,0.1
			c-0.8,1-2.5,1-3.3,2h-0.5c0.6-0.7,0.5-1,0.5-2.2c-0.5,0.1-0.7,0.3-1.2,0.5c0,0.5,0.3,1.3,0.6,1.6c-0.3,0.8-2.1,1.3-2.9,1.6
			c-1.9,0.8-3.5,2.4-5.5,3c-0.1,0.1,0,0-0.2,0.1c-0.3-0.6-0.5-0.6-0.9-0.9c-0.4,0.1-0.3,0.1-0.6,0.2c0,0.6,0,1,0.5,1.4
			c-0.7,1-4,3.1-5.2,3.3c0.1,0.9-0.4,0.6-0.9,1c-0.9,0.8-2.5,2.4-3.7,2.8c-0.1,0.1,0,0-0.2,0.1c-0.1-0.3-0.1-0.7-0.1-1.2
			c-0.2,0-0.5-0.1-0.7-0.1c-0.2,0.6-0.6,1.5-0.2,2c-0.1,0.4-0.3,0.4-0.5,0.7c-0.8,0-1.6-0.3-2.1-0.7c-0.3-0.2-0.3-0.2-0.3-0.6
			c0-0.4,0.5-2.5,0.9-3.3c0.3-0.5,0.9-0.9,1.2-1.4c0.2-0.2-0.1-0.4,0-0.6h0.5c0.2-0.1,0.2-0.5,0.3-0.7c0.2,0,0.4-0.1,0.6-0.1
			c0-0.1,0.1-0.2,0.1-0.3c0.3-0.3,0.7-0.2,1-0.5c0.5-0.3,1-0.9,1.4-1.3c0.7-0.6,2.8-1.7,3.1-2.4h0.4c0.1-0.4,0.2-0.3,0.3-0.6h0.3
			c0-0.3,0-0.3-0.1-0.5c0.3-0.1,0.7-0.2,1-0.4c0.4-0.3,0.5-1,0.8-1.3h0.4c0.8-0.6,1.5-1.5,2.4-2c-0.1-0.4,0.1-0.2-0.2-0.3
			c0.2-0.7,0.6-0.4,1-0.7h0.1c-0.2-0.3,0-0.1-0.3-0.2v-0.2c0.3-0.1,0.7,0,0.9-0.1c0.1-0.3,0-0.1-0.1-0.4h0.1c0.1-0.2,0.1,0,0.3,0.1
			v-0.1h0.1v-0.2H318V292c0.9,0.1,1.1-0.3,1.9-0.7v-0.5c0.6-0.1,1.5-1,1.7-1.4c0-0.1-0.1-0.2-0.1-0.4c0.2-0.2,0.6-0.1,0.8-0.2
			c0.2-0.1,0.2-0.6,0.4-0.7c0.1-0.1,0.5-0.1,0.6-0.2c0.2-0.2,0-0.6,0.2-0.8c0.3-0.3,0.3,0.1,0.6,0c0.5-0.3,0.9-1,1.5-1.3
			c0-0.2,0.1-0.4,0.1-0.6h0.4c0-0.3,0-0.4-0.1-0.6v-0.1c1,0.1,1.4,0,1.4-0.9c1.7-0.2,2.5-2.2,4-3.3c2-1.4,4-2.5,5.9-4
			c0.2-0.2,0.3-0.5,0.5-0.7c0.2,0,0.4-0.1,0.6-0.1c0.2-0.2,0.3-0.4,0.5-0.6c0.5-0.3,1.1-0.5,1.5-0.9c0.7-0.6,0.9-1.7,1.5-2.3
			c-0.1-0.6-0.2-0.7-0.5-1c-1.7-0.3-2.3,0.6-3.4,1c-3.2,1.4-6.1,3.1-9.1,4.8c-0.7,0.4-1.5,0.4-2.3,0.7c-1.4,0.5-2.6,1.7-4,2.3
			c-0.4,0.1-0.7,0.2-1,0.2c-0.9,0.4-1.9,1.1-2.7,1.6c-0.3,0.1-0.6,0.2-0.9,0.2c-0.4,0.3-0.9,0.8-1.4,1c-0.3,0-0.6,0.1-0.9,0.1
			c0,0-0.5,0.5-0.5,0.5c-0.6,0.4-1.4,0.2-2.1,0.5c-2.4,1-5.1,1.5-7.6,2.6c-1.8,0.7-3.8,1.4-5.8,2c-0.7,0.1-1.3,0.2-2,0.2
			c-0.8,0.2-2.4,0.6-3.5,0.5c-1.2-0.2-2.9,0-4.3-0.6c-0.7-0.3-1.9-0.9-2.4-1.4c-0.2-0.2-0.3-0.6-0.6-0.7c-0.6-0.3-1.1-0.1-1.6-0.5
			c0-0.1-0.1-0.2-0.1-0.4c-0.3-0.2-0.5-0.5-0.8-0.7c-0.3-0.5-0.4-1.1-0.8-1.6h-0.2c0-0.2-0.1-0.4-0.1-0.6c-0.1,0-0.2-0.1-0.4-0.1
			l-0.3-2.2c-0.2-1.5,1.8-3.7,2.8-4.1c0.6-0.2,1.3-0.1,1.9-0.5c0.7-0.4,2.6-1.3,3.7-0.6c0.3-0.2,0.1,0,0.2-0.3
			c0.1,0.1,0.1,0.1,0.1,0.3c0.8,0.1,3.3,0.4,3.8,0.8c0.1-0.1,0.1-0.1,0.1-0.4c0.9,0.4,0.7,0.6,2,0.4v0.3c1.6,0,2.8-0.9,4.1-0.9
			c0.7,0,1.4-0.6,1.6-0.2c0.6-0.1,0.4-0.1,0.3-0.5c1.7-0.1,2.6-1.1,3.8-1c0-0.2,0-0.2-0.1-0.4c0.4-0.5,0.8-0.2,1.5-0.5
			c0.2-0.1,0.2-0.4,0.4-0.5c0.3,0,0.7-0.1,1-0.1c0.1-0.1,0.1-0.4,0.2-0.5h0.7c0.2-0.1,0-0.4,0.1-0.5c0.4-0.4,0.9-0.3,1.4-0.2v-0.3
			c1.6-0.1,2.2-1.1,3.3-1.6c0.3,0,0.6-0.1,0.9-0.1c0.1-0.1,0.1-0.4,0.4-0.5c0.3,0,0.2,0.2,0.5,0.2c0.1-0.3,0-0.2,0-0.5h0.6
			c0-0.3,0-0.3,0.1-0.5c0.1-0.1,1.8-0.8,1.9-0.8v-0.3c1.1-0.1,2.9-1.6,3.7-2.1c0-0.7-0.2-0.8-0.6-1.2c0.3-0.2,0.5-0.4,0.8-0.6v-0.3
			h0.3c0.4-1,1-1.9,1.3-2.9c0.3-1,0.3-1.9,0.5-2.6c0.1-0.5-0.2-1.2-0.1-1.5c0-0.2,0.3-0.7,0.4-0.9c0-0.2-0.1-0.4-0.1-0.6
			c0.3-0.8,0.9-1.4,1-2.4h-0.3c0.3-0.4,0.6-0.5,0.7-1c0.3-0.1,0.4-0.1,0.6-0.2c0.3-0.2,0.3-0.5,0.5-0.8c0.1-0.3,0.3-0.1,0.7-0.3
			c1.5-0.9,1.6-1.5,4.3-1.5c0.5,0,1.3-0.4,1.4-0.4c0.5-0.1,0.4-0.1,0.7-0.3v-0.4c-1.2-0.2-4.1-0.1-4.7,0.5c-1.2-0.1-1.5-2-1.9-3.1
			l-0.2-0.3c0-0.2,0.3-0.7,0.1-1c-0.1-0.1-0.4-0.3-0.5-0.5c0-0.2,0.2-0.1,0.2-0.1c0.1-0.5-0.5-2.6-0.6-3c0-0.4,0.1-0.7,0.1-1
			c0,0-0.3-0.2-0.3-0.2c0.1-0.1,0.1-0.1,0.3-0.1c0-0.5,0.1-1.1,0.1-1.6h-0.3c0.1-0.1,0.1-0.1,0.3-0.1c0-0.8-0.2-1.8,0.3-2.6
			c-0.1-0.4-0.1-0.3-0.2-0.6c-0.5,0.1-0.6,0.2-0.8,0.1c-0.8,0-2,1.5-2.3,2.1c-0.1,0.5-0.2,0.9-0.2,1.4c-0.8,1.9-1.8,5.5-1.3,8.4
			c0,0.8-0.1,1.6-0.1,2.3c0.2,0.7,0.7,1.7,1,2.3c0.5,1.1,0.3,2,1.3,2.6c-0.2,0.6-0.5,1.7-0.8,2.2c-0.4,0-0.9-0.9-1.4-1.2H323
			c-0.1-0.2-0.2-0.3-0.3-0.5c-1.4-1-2.6-2.4-3.5-4c-0.3-0.6,0-1.2-0.2-1.9c-0.1-0.3-0.5-0.6-0.6-0.9c0-0.2,0.1-0.3,0-0.6
			c0-0.1-0.1-0.2-0.1-0.2h-0.3c0,0.5-0.3,0.6-0.4,0.8c-0.1,0.3,0.2,0.4,0.2,0.7c-0.3,0-0.5,0.1-0.8,0.1c-2.5,5.2-0.9,9.1,1.6,13.6
			c0.6,1.1,2.3,1.9,3,2.9c0.3,0,0.4,0,0.6-0.1h0.2c-0.2,0.5-1.2,1.6-1.7,1.7c0.1,0.3,0.2,0.2,0.5,0.4c-0.2,0.4-0.7,0.4-1,0.7
			c-1.1,0.8-2.3,1.5-3.4,2.3c-0.4,0.3-0.9,0.2-1.4,0.5c-0.3,0.2-0.6,0.7-0.9,0.8h-0.6c-1.1,0.5-2.4,1.2-3.4,1.7c-1,0.5-2,0.6-3,1
			c-0.5,0.2-1.1,0.8-1.6,1c-1.3,0.5-2.6,0.9-3.8,1.3c-1,0.2-2.1,0.3-3.1,0.5c-0.2,0.1-0.9,0.4-1.2,0.5c-0.4,0-1-0.3-1.3-0.3
			c-1.2-0.3-2.1-0.1-3.3-0.5c-0.5-0.2-1.2-0.5-1.9-0.7c-2-0.4-3.4,0.7-4.7,1v0.3c-0.6-0.1-1.3-0.4-1.9,0c-0.2,0.2-0.2,0.5-0.4,0.7
			c-0.3,0.1-0.7,0.2-1,0.2c-0.4,0.2-1,1.2-1.2,1.5c-0.6,1,0,2.4-0.2,3.6c-0.2,1.6,1.6,4.4,2.7,5.1c0.3,0.2,1.2,0.2,1.5,0.5
			c0,0.3,0.1,0.5,0.1,0.8c0.1,0.1,2.7,1.7,2.9,1.7c0.4,0.1,0.6-0.1,1,0c0.2,0.1,1.1,0.7,1.5,0.9c-0.5,2.7,5,6.3,7.2,4.5
			c0.1-0.1-0.1-0.2-0.1-0.6c-1.1-0.2-1.1-1.3-2.1-1.5c0.1-0.3,0.2-1.4-0.3-1.6c0.1-0.7,0.3-0.8,0.6-1.3c0.7,0,1.1-0.1,1.6-0.2
			c0.1,0.3-0.1,1.2,0.1,1.6l0.6,0.6c1.2,2,1.6,2.8,4.5,2.1c0.7-0.2,1.2-0.1,1.6-0.5h0.2V293h0.5v-0.2l-0.3-0.4
			c-0.5-0.2-1.6,0.6-2.2,0c-1.1-0.4-0.4-0.9-0.6-1.4c-0.1,0-0.2-0.1-0.3-0.1c-0.4-0.8,0.2-1.5,0.3-2c0.1-0.4-0.2-0.3-0.2-0.6
			c0.1-0.1,0,0,0.1-0.2c1.2,0,1.9-0.5,2.9-0.8h0.7c0.4-0.2,0.5-0.5,1.2-0.6v-0.3c0.1,0.1,0.1,0.1,0.1,0.3c0.3-0.1,0.6-0.1,0.8-0.3
			h0.6c-0.3,1-0.5,1.9-0.1,2.9c0.2,0.5,0.6,0.7,0.7,1.5c-0.4,0-0.7,0-0.9,0.2c-1.6,0-1.6-1.3-2.6-2c0.1-0.6,0.3-1,0.6-1.4l-0.2-0.2
			c-0.4,0.1-0.5,0.2-0.9,0.2c-0.1,3.1,0.3,2.4,1.5,4.2c1.6,0.4,2-0.1,3.4-0.5c1.4-0.3,1.8,0.5,2.9-0.6c0.1-0.1,0,0,0.1-0.2
			c-0.1-0.1-0.2-0.2-0.2-0.4c-0.8,0-1.5,0.2-2-0.1c-1.1-0.1-1.6-1.7-1.6-2.8h-0.4c0.4-0.4,0.6-0.6,0.6-1.4h0.6v-0.4
			c0.6,0,2.1-0.3,2.4-0.6c0.1-0.1,0.1-0.3,0.2-0.3c0.5-0.2,0.5,0.1,1,0c0.3-0.1,0.6-0.4,0.8-0.5h0.6c0.4-0.2,0.5-0.5,1-0.6v-0.4
			c0.8,0.2,2.6-1.2,3.5-1.5v-0.5c2.2,0,4.4-2,6-2.8c0.4-0.2,0.9-0.1,1.3-0.3c0-0.1,0.1-0.2,0.1-0.3c0.3,0,0.7-0.1,1-0.1
			c0.5-0.2,1.1-0.9,1.6-1c0.2,0,0.4,0.1,0.6,0.1c0.1-0.2,0.2-0.4,0.4-0.6c0.3,0,0.7-0.1,1-0.1c1-0.6,1.9-1.4,2.8-2.1
			c0,0,0.6,0.1,0.8,0c0.2-0.1,0.4-0.5,0.6-0.6c1.2-0.6,2.5-0.7,3.5-1.5h0.2c-0.2,1.2-2.2,2.7-3.1,3.3c-0.4,0.1-0.7,0.2-1,0.4
			c-0.1,0.2,0.2,0.4-0.1,0.6c-0.3,0.2-0.7,0.2-1,0.5c-1.4,1.1-2.8,2.2-4.3,3.3c-1.4,1-2.4,2.6-3.7,3.6c-0.3,0.2-0.6,0.2-0.9,0.5
			c-0.7,0.5-1.2,1.3-1.7,1.9c-0.3,0.3-0.8,0.5-1.2,0.8c-0.2,0.2-0.3,0.5-0.5,0.7c-0.9,0.8-1.7,1.7-2.6,2.6c-0.8,0.8-1.8,1.3-2.7,2
			c-0.5,0.4-0.8,1.1-1.3,1.5c-0.5,0.5-1.2,0.8-1.7,1.3c-0.2,0.2-0.3,0.5-0.5,0.7c-1.3,1-2.4,2.1-3.6,3.1c-0.4,0.4-1,0.5-1.5,0.8
			c-0.1,0.1-1.3,1.2-1.4,1.3c0,0.1-0.1,0.2-0.1,0.3c-0.4,0.3-0.8,0.3-1.3,0.6c-0.5,0.3-0.9,0.9-1.3,1.3c-2.3,2-4.2,3.3-4.2,7.7
			c1.1,1.2,1.5,1.5,3.5,1.9c0.2-0.2,0.5-0.2,0.8-0.3c0.2-0.3,0.5-0.5,0.7-0.8c0.3-0.2,0.6-0.2,0.9-0.5c0.2-0.1,0.2-0.5,0.3-0.6
			c0.2,0,0.4-0.1,0.6-0.1c0.5-0.5,0.9-0.9,1.4-1.4c0.3-0.2,0.5-0.2,0.8-0.4c0.2-0.2,0.4-0.5,0.6-0.7h0.5c0-0.2,0.1-0.4,0.1-0.6
			c0.2,0.4,1.3-0.6,1.5-0.7v-0.5h0.6v-0.4c1.6-0.1,2.4-1.4,3.4-2.1c0.6-0.4,1.3-0.5,1.2-1.3c1.1,0.2,2.2-0.4,2.8-1
			c0.1-0.1,0.1-0.1,0.1-0.4c2.4-0.2,3.6-2.2,5.8-2.6v-0.4h-0.4v-0.1c0.4,0.1,0.3-0.1,0.5,0.2c1.2-0.2,2.3-1.2,3.3-1.7
			c0.5-0.3,0.7,0,1.2-0.1c0.2-0.1,0.5-0.4,0.7-0.5c0.4-0.2,0.9-0.1,1.3-0.3c0.6-0.4,1-0.7,1.7-0.7v-0.3c0.7,0.2,1-0.2,1.5-0.4h1
			c0-0.1,0.1-0.2,0.1-0.3c0,0,0.7,0.1,0.9,0c1-0.4,2.1-0.9,3.3-1.3c1-0.3,2,0,2.6-0.7c0.4,0.1,0.7,0.2,0.9,0.5
			c0.1-0.1,0.2-0.2,0.2-0.3c0.8,0.1,1.1,0.6,1.6,0.9c0.7,0.5,1.8,0.9,2.7,1.2c0.8,0.3,1.4-0.2,2.2-0.1c1.7,0.3,3.3,0.1,5.5,0
			c0.4-0.5,0.9-1,1.4-1.4c-0.1-0.4-0.2-0.3-0.3-0.6c-0.9,0.1-1.5,0.3-2.4,0c-0.4-0.2-0.5-0.5-1-0.6v-0.3c4.1-0.6,8.5-3.9,11.3-5.9
			c1.1-0.8,1.9-2.1,3-2.8c0-0.2,0-0.2-0.1-0.4c0.1-0.2,2.3-0.9,2.7-0.9v-0.4c0.8-0.2,1.8-0.7,2.6-1.3h0.1c-0.2-0.3,0-0.1-0.3-0.2
			c0.4-0.3,0.7,0,1-0.2c0.6-0.3,0.8-0.8,1.2-1.4c0.2,0.4,1.9-0.8,2.1-0.9c1.9-1.3,3.4-2.8,5-4.3c0-0.2,0-0.2-0.1-0.4
			c0-0.1-0.1-0.2-0.1-0.3c-1.5-0.1-3.1,0.5-4.4,0.9c-1.3,0.4-2.6-0.2-3.5,0.4h-0.9c0.3-0.5,0.9-0.7,1.3-1.2c0.2-0.3,0.1-0.7,0.4-1
			c0.2-0.1,0.3-0.2,0.5-0.4c0.3-0.5,0.5-0.9,0.8-1.4c0.2-0.3,0.6-0.4,0.9-0.7c1.6-1.4,2.9-2.6,5-3.5c1-0.4,1.7-0.4,2.8-0.7
			c1-0.3,2.2-1,3.3-1.2c0.6-0.1,1.3,0.2,2,0.1c1.3-0.2,2.9,0.2,4.2,0.8c0.5,0.3,1.1,0.2,1.6,0.5c2,1,3.4,3.5,4,5.9
			c0.2,1.1-0.4,2.5-0.5,3.4h-0.4c0.1,0.1,0.2,0.2,0.2,0.2c-0.5,2.9-2.2,5.2-3.5,7.3c-0.2,0-0.4,0.1-0.6,0.1c-0.1,1.4-1.4,2-2.1,2.9
			c-1.7,2.3-3.8,4.1-6.2,5.7c-0.3,0.4-0.7,0.8-1,1.2c-1.7,1.3-3.4,2.5-5.1,3.8c-0.7,0.5-1.5,0.7-2.3,1.2c-0.5,0.3-1,0.8-1.4,1
			c-1.6,1-3.6,1.5-5.2,2.4c-1.4,0.8-2.6,2.2-4.1,2.9c-1.2,0.6-2.4,0.7-3.7,1.3c-1.1,0.5-2.6,1.4-3.6,1.9c-0.5,0.2-0.8,0-1.2,0.2
			c-0.4,0.2-1,0.8-1.4,0.9h-0.9c-0.8,0.3-1.7,0.7-2.6,1c-1.3,0.6-2.4,1.7-3.6,2.3c-1.7,0.9-3.5,1.5-5,2.6c-1.5,1-2.8,2.4-4.3,3.5
			c-6.1,4.5-12.1,10.1-15.6,16.9l-0.8,0.8c-1,1.4-1.7,2.9-2.7,4.4c-0.2,0.3-0.6,0.5-0.7,0.8c-1.2,2.4-1.9,5-3.1,7.4h-0.4
			c0,0.5-0.1,0.8-0.3,1c0.1,0.6,0.3,0.6,0.6,0.9h0.2c1.4-1.8,1.8-4.4,2.9-6.6c0.4-0.7,1.3-1.9,0.9-2.6c1-0.7,1.3-1.8,2-2.9l0.7-0.7
			c0.1-0.1,0-0.6,0-0.6c0.2-0.2,0.6,0,0.7-0.2c0.5-0.7,0.6-1.4,1.3-2c-0.1-0.4-0.1-0.2-0.2-0.5c0.6-0.4,1-1.1,1.5-1.5
			c-0.1-0.4-0.1-0.3-0.4-0.5c0.2-0.2,0.4-0.1,0.5-0.1c0.8-0.5,1.5-2.2,2.3-2.8c-0.2-0.3,0.1-0.1-0.2-0.2v-0.1h0.5v-0.3
			c1-0.2,3-3.3,4.1-4.1c-0.2-0.3,0.1-0.1-0.2-0.2c3.8-2.9,7.5-6,11.3-9c0.2,0,0.4-0.1,0.6-0.1c0.5-0.3,1.1-0.9,1.6-1.2
			c0.8-0.4,1.6-0.6,2.4-1c1.2-0.7,2.4-1.7,3.6-2.3c1.3-0.7,2.7-0.9,4.2-1.4c0.3-0.1,0.6-0.6,0.9-0.7c0.7-0.3,1.3-0.2,2-0.6
			c1.3-0.7,3.5-2.1,5.2-2.2c0,0.3,0,0.3,0.1,0.5c0,0.1,0.1,0.2,0.1,0.4c0.6-0.2,1-0.6,1.5-0.9c-0.1-0.3-0.2-0.3-0.4-0.6
			c0.7-0.3,1.6-0.8,2.1-1.4c0.4,0.1,0.3,0.1,0.6,0.2c0,0.2-0.1,0.5-0.1,0.7c-0.4,0-0.5-0.1-0.6,0c-0.3,0.1-0.3,0.2-0.6,0.4
			c0.1,0.2,0.4,0.2,0.5,0.3c0.1,0.2-0.1,0.4,0,0.6h0.5c0.2-0.1,0.1-0.7,0.2-0.9c0.4-0.7,0.8-0.5,0.9-1.6c0.4,0.1,0.4,0.1,0.5,0.6
			h0.1c0.1-0.4,0.1-0.5,0.5-0.7v-0.2c-0.1,0-0.2-0.1-0.3-0.1c-0.2-0.1-0.2-0.1-0.5,0.1h-0.4c0,0,0.1-0.1,0.1-0.1
			c0.4-0.9,1.9-0.9,2.4-1.7h0.5c-0.6,1.7,0,0.9,0.5,2.4h0.1c0.2-0.3,0.4-0.8,0.6-1c0-0.7-0.3-1.2-0.9-1.3v-0.2
			c0.9-0.4,2.2-0.7,2.7-1.5c0.4,0.1,0.6,0.3,1,0.5c0.1-0.1,0,0,0.2-0.1v-0.5h-0.5L378.9,297L378.9,297z M325.7,248.9
			c-0.1-0.4-0.6-0.8-0.7-1.2c-0.4-1-0.5-2.1-0.7-3c0.2-0.2,0.2-0.3,0.5-0.5c-0.1-0.5-0.1-0.7-0.3-1c0-0.1,0.4-0.4,0.3-0.6
			c0-0.6,0.1-1.8,0.2-2.4c0-0.2-0.1-0.5-0.1-0.7h0.2c0.1-0.2-0.2-0.4-0.1-0.5h0.2c0.2-0.5-0.5-0.4-0.2-0.9c0.1-0.2,0.6-0.4,0.7-0.6
			c0.2-0.3,0.2-2,0.2-2.3h0.3c-0.1-0.4,0.1-0.2-0.2-0.3c0.3-0.2,0.7-0.4,1-0.6c0,0,0.1,0.1,0.1,0.1c-0.1,1.3-0.3,1.9-1.2,2.4v0.2
			c0.1,0.1,0,0,0.1,0.2c0.4,0,0.6,0,0.7,0h0.2c0,1-0.7,1.6-1.3,2c0.1,0.4,0.1,0.3,0.2,0.6c0.6-0.1,0.7-0.3,1-0.6
			c0.1-0.2,0-0.1,0.1-0.2c0,0.3,0,0.7,0.1,0.9c-0.2,0.5-1.7,1.4-2.2,1.7v0.2c0.8,0,1.8-0.3,2-0.8h0.2c0.1,0.2,0.1,0.4,0.2,0.6
			c0,0.4,0,0.6-0.1,0.8c-0.3,0.1-0.5,0.2-0.9,0.2c-0.1,0.5-0.4,0.7-0.8,0.9v0.5c0.9,0.2,1.4-0.2,2-0.7c0.1,0.1,0.2,0.4,0.2,0.5
			c-0.2,0.5-1.4,1.3-1.9,1.6c0,0.3,0,0.5,0.1,0.7c0.2,0.1,0.1,0,0.2,0.1c0.5-0.1,0.9-0.4,1-0.8h0.6c0,0.6-1.2,1.7-1.6,2
			c0,0.3,0.1,0.3,0.1,0.5c0.5,0,0.6-0.1,0.9-0.2c0.1-0.2,0.1-0.2,0.1-0.5h0.4c0.2-0.4,0.4-0.2,0.5-0.7c0.5,0.2,0.5,0.5,0.8,0.8
			c-0.1,0.5-2.3,2.6-2.8,3.3C325.9,250.3,325.9,249.4,325.7,248.9z M322.3,261.8c-0.1,0.1,0,0-0.2,0.1c-0.4-0.8-1.1-1.1-1.6-1.6
			c-0.7-0.7-0.9-1.4-1.5-2.2c-0.2-0.3-0.7-0.7-0.9-1c-0.8-1.6-0.7-4.1-1.6-5.5c0,0,0.3-1.3,0.1-1.6c0.2-0.3,0-0.1,0.4-0.2
			c0-0.3,0-0.4,0.1-0.6c-0.2-0.3,0-0.1-0.3-0.2c0.4-0.6,0.6-1.2,0.7-2.1h0.7c0,0-0.2,0.4-0.1,0.6c0.2,0.5,0.6,1.3,0.7,1.9v0.2
			c-0.1,0.1-0.2,0.2-0.4,0.2c-0.2,0.4-0.1,0.7-0.3,1.2h0.1v0.1c0.4-0.1,0.6-0.3,0.8-0.6c0.5,0.1,0.4,0.2,0.8,0.3v0.4
			c-0.8,0.2-0.8,0.8-1.3,1.2c0,0.3,0.1,0.5,0.1,0.8h0.5c0.2-0.6,0.7-0.9,1-1.3c0.2,0,0.2,0,0.4,0.1c0.4,0.2,0.4,0.4,0.7,0.7
			c-0.2,0.4-0.8,0.9-1.2,1.2c0.1,0.4,0.1,0.3,0.2,0.6c0.7,0,1.3-0.5,1.5-1c0.4,0,0.4,0.1,0.7,0.2c-0.2,0.8-1.2,1.4-1.6,2.4
			c0.1,0.1,0.2,0.1,0.3,0.2c1-0.2,1.5-1.2,1.9-2.1c0.2,0,0.2,0,0.4,0.1c0.4,0.1,0.3,0.2,0.6,0.4c-0.3,0.5-0.7,1.2-1,1.7
			c0.1,0.4,0.1,0.3,0.2,0.6c0.5-0.2,0.9-0.7,1.2-1h0.2c0,0.8-0.3,1-0.5,1.5c-0.1,0.5,0.3,0.7,0.2,0.9
			C324,259.9,323.3,260.9,322.3,261.8z M292.4,290.1c1.3-0.2,1.9-0.2,3-0.1c0.1,0.6-0.1,1.1,0.1,1.9c0.2,0.5,0.5,1,0.6,1.6
			C294.2,293.2,292.6,292.1,292.4,290.1z M302.3,293c-1-0.1-1.7-0.8-2.2-1.4c-0.3-0.5-0.5-1.3-0.5-2.3c0.9-0.1,1.2-0.3,2.1-0.5
			c0.3,1.1-0.1,3.2,0.6,4L302.3,293L302.3,293z M330.7,280.2c0,0,0.1,0.1-0.1,0.2C330.6,280.4,330.6,280.3,330.7,280.2z
			 M337.2,290.8c0,0.5,0,0.5-0.4,0.7c-0.1,0.1,0,0-0.2,0.1c0-0.1-0.1-0.2-0.1-0.2c0,0,0.2-1.5,0.2-1.7c0.3,0.1,0.3,0.1,0.5,0.2
			C337.3,290.2,337.4,290.5,337.2,290.8z M341.6,288.8c0.1,0.2,0,0.3,0.1,0.6v0.1h-0.5c0-0.3-0.1-0.3-0.1-0.5L341.6,288.8z
			 M338.2,290.6c-0.2,0.1-0.1,0.1-0.4,0H338.2z M340.2,291.2c-0.4,0.3-1.6,0.7-2.2,0.7v-0.3c0.3-0.2,0.6-0.3,0.8-0.6
			c0.7,0,0.6,0,1,0.1c0.1-0.1,0,0,0.2-0.1v-0.7c-0.3,0.1-0.4,0.3-0.6,0.5c-0.2-0.4-0.5-0.6-1-0.7c0-0.3,0-0.4-0.1-0.6v-0.4
			c0.3,0.1,0.4,0.1,0.8,0c0.2,0.4,0.8,1.1,1.4,1.3C340.4,290.7,340.3,291,340.2,291.2z M341.4,290.8c-0.3,0-0.4,0-0.6-0.1
			c-0.1-0.1,0,0-0.1-0.2c0.2-0.1,0.5-0.2,0.7-0.4c0.4,0.1,0.4,0.2,0.8,0.2C342,290.7,341.6,290.6,341.4,290.8z M380.3,273v0.1
			c-0.2,0.1-0.1,0-0.2,0.1c-0.1-0.1-0.1-0.1-0.1-0.3C380.1,273,380.2,273,380.3,273z M343.4,290h0.2
			C343.5,290.2,343.5,290.1,343.4,290z M350.9,291.6c-0.3,0.3-0.1,0.5-0.6,0.7c-0.3,0.2-1.9-0.3-2.3-0.5c-1.4-0.6-4.7-3.2-5.1-4.5
			c0,0,0.3-1.2,0.5-1.5c0.7-1.1,2.2-2.8,3.7-3c0,0.5,0,0.7,0.1,0.8c-0.2,0.5-0.9,0.9-1.3,1.2c0,0.3,0,0.4-0.1,0.6v0.2
			c0.4-0.1,1.2-0.3,1.5-0.6c0.6,0.1,0.7,0.6,1,0.9c-0.2,0.6-1.2,0.9-1.7,1.2c-0.1,0.2,0,0.1-0.1,0.2c0,0.3,0.1,0.3,0.1,0.5
			c0.6,0,1.6-0.1,2-0.3c0.6,0,0.6,0.1,0.9,0.3c-0.2,0.4-1.1,0.9-1.5,1.2c0.1,0.4,0.1,0.3,0.2,0.6c0.4-0.1,1.2-0.2,1.5-0.5
			c0.4,0,0.6,0,0.8,0.1c-0.3,0.5-1.8,0.5-2.1,0.7c0,0,0.4,0.9,0.6,1c0,0,0.1,0.1,0.1,0.1c1-0.2,1.9-1.1,3-0.2c0.1,0,0.2,0.1,0.2,0.1
			C352.1,291.4,351.3,291.3,350.9,291.6z M352.9,292.3H352v-0.2c0.3,0,0.8-0.1,1-0.2c0.4,0,0.7,0,0.9,0.1c0.1,0.1,0.1,0.1,0.1,0.4
			C353.5,292.4,353.2,292.5,352.9,292.3z M355.1,287.8h-0.4c0,0.5-0.1,1.2,0.1,1.5v0.1c-0.5,0-0.8,0-1,0.2c-0.3,0-0.3,0-0.5-0.1
			h-0.1c0.2-0.1,0.5-0.3,0.7-0.3c0-0.5,0.3-1.1,0-1.5l-0.5-0.2c-0.1-0.2,0-0.4-0.1-0.6v-0.1c0.3,0,0.2-0.1,0.3,0
			c0.7,0.1,0.8,0.5,1.4,0.7L355.1,287.8L355.1,287.8z M355,283.3v-0.5c0.6,0.4,0.8,0.7,1.9,0.7c0,0.3,0,0.5-0.1,0.7
			c0,0.8,0.2,0.9,0.8,1v0.2c-0.6,0-1.3-0.3-1.5-0.6c-0.1-0.2,0.2-0.4,0.1-0.5c-0.1-0.2-0.5-0.2-0.7-0.3
			C355.2,283.9,355.2,283.5,355,283.3z M355.9,289.1h-0.2c0.1-0.2,0-0.1,0.1-0.2c0.1-0.7,0.6-0.7,0.9-1.2c0.6,0.1,0.8,0.1,1.2-0.2
			l0.3,0.3C357.8,288.6,356.6,288.6,355.9,289.1z M357.2,286.2c0-0.3,0.1-0.4,0.1-0.6c0.4,0,0.9,0.1,1.2,0.2
			c0.1,0.1,0.1,0.1,0.1,0.3C358,286.1,357.7,286.1,357.2,286.2z M359.2,287.6c-0.3-0.2-0.1,0-0.2-0.4c0.1,0.1,0.2,0.1,0.4,0.2
			L359.2,287.6z M358.9,284.5c0,0.1-0.7-0.3-0.9-0.5v-0.5c0.4,0.1,0.9,0.2,1.3,0.2C359.2,284.1,359.1,284.4,358.9,284.5z
			 M360.3,287.1h-0.2c0-0.8,0.5-2.7,0.4-2.9c-0.2-0.3-0.3,0.1-0.4-0.5c0.3,0.1,0.5,0.2,0.8,0.2c-0.1,0.4-0.1,0.5-0.4,0.7
			c0.2,0.7,0.6,1,1.2,1.3C361.5,286.5,360.7,286.6,360.3,287.1z M362.7,285.6c-0.2-0.3-0.4-1.1-0.5-1.5c0.6,0.3,0.5,0.7,1.2,0.7
			C363.2,285.2,363,285.3,362.7,285.6z M364.2,284.4c-0.3-0.2-0.2-0.8-0.6-1c0.2-0.6,0.7-0.5,1.2-0.8c0.2,0.3-0.1,0.7,0.1,1.3
			C364.5,284,364.4,284.1,364.2,284.4z M373.1,278.9c0.2,0.1,0.1,0,0.2,0.1C373.2,278.9,373.2,278.9,373.1,278.9z M375.6,273.5
			c0.3,0,0.5,0,0.7,0.1c0.1,0.1,0,0,0,0.1c-0.1,0.4-0.4,0.5-0.6,0.8c-0.2,0-0.2,0-0.3-0.1C375.3,274.4,375.5,274,375.6,273.5z
			 M374.4,273.7c-0.4,0.6-1.3,0.9-1.6,1.4c-0.2,0.3-0.1,0.7-0.3,0.9c0,0.3,0,0.3,0.1,0.5c0.4,0.2,1.9-1.5,2.4-1.9
			c0,0,0.1-0.1,0.1-0.1v0.1h0.2c-0.1,0.5-0.6,0.9-0.2,1.4v0.2c0.7-0.1,2.5-2.1,2.8-2.7h0.1c-0.6,2-2.3,2.7-3.8,3.7
			c-0.4,0.3-0.9,0.9-1.3,1.2c-0.9,0.5-1.8,0.7-2.7,1.2l-0.5,0.5c-0.3,0.1-0.5-0.1-0.6-0.1c-0.6,0.1-1.3,0.5-1.7,0.7
			c-0.5,0.2-1-0.1-1.3,0c-0.8,0.3-1.8,1-2.6,1.3c-0.6,0.1-1.2,0.2-1.7,0.2v0.2c-0.8,0.4-2.5,0-3.1-0.1c-0.8,0-1.6-0.1-2.4-0.1
			c-0.6-0.2-3.2-2.1-3.5-2.6c-0.2-0.4-0.1-0.9-0.1-1.7h0.3c0.4-3,3.1-4.3,4.5-6.4c0.3,0.1,0.3,0.1,0.5,0.2c-0.2,0.4-1.4,1.4-1.7,1.6
			v0.9h0.5c0.1-0.8,0.4-0.5,0.8-0.8c1.3-1,2-2,4.3-1.7v0.1c-1.1,0.6-2.2,1.3-3.1,1.9v0.6c0.2,0.1,0.1,0,0.2,0.1c1-0.2,1.8-1,2.6-1.5
			c0.5-0.3,1.5-0.1,2-0.3c0.7-0.4,0.8-0.8,1.7-0.5c-0.3,0.4-2.7,1.6-3.3,1.9c0,0.4-0.1,0.8-0.1,1.2h0.5c0.9-1.4,2.9-1.3,4.2-2.3h0.5
			v0.1c-0.7,0.4-1.3,1.3-2.1,1.6c0,0.3,0.1,0.5,0.1,0.8c0,0,0.1,0.1,0.1,0.1c1-0.2,3.3-3.2,4.7-2.3h0.5c-0.4,1-1.7,1.1-2.3,1.9
			c-0.2,0.2-0.2,0.6-0.4,0.8c0,0.2,0,0.2,0.1,0.3v0.1c1.3-0.4,2-1.5,3-2.2c0.4-0.3,0.8-0.4,1.2-0.7h0.3c-0.2,0.7-1.1,1.6-1.6,2.1
			c0,0.3,0,0.5,0.1,0.7c0.9-0.1,2.4-1.9,2.9-2.6C373.9,273.6,374.2,273.7,374.4,273.7z M386.3,262.1H386c0-0.1,0.1-0.2,0.1-0.4h0.5
			C386.5,262,386.4,261.9,386.3,262.1z M390,261.5c-0.2-0.1-0.1,0-0.1-0.2c0.2,0.1,0.1,0,0.2,0.1C390.1,261.4,390,261.5,390,261.5z
			 M391.4,261.1h-0.1v-0.2h0.1V261.1z M394.5,284.7c0.2,0,0.2,0,0.3-0.1c0.3,0.4,0.2,1.1,0.4,1.6c0,0-0.1,0.1-0.1,0.1
			c-0.8,0-0.9-0.2-1.2-0.7c0,0-0.1-0.1-0.1-0.1C394.1,285.3,394.3,285,394.5,284.7z M388.9,289.9c0.1,0,0.2,0.1,0.3,0.1
			c0.1,0.2,0,0.1,0.1,0.2v0.1c-0.3,0-0.3,0-0.5-0.1C388.8,290,388.9,290.2,388.9,289.9z M330.6,327.7h-0.1v-0.2h0.1V327.7z
			 M343.6,242.6c-0.9,0-2.3-0.6-3,0c-0.1,0-0.2,0.1-0.4,0.1c0.1,0.3,0.3,0.4,0.5,0.7c0.6-0.1,1.9-0.4,2.4,0.1h0.7
			c0-0.1,0.1-0.2,0.1-0.4c-0.2-0.1-0.2-0.1-0.5-0.1C343.5,242.9,343.6,242.8,343.6,242.6z M340.6,251.6c-0.3-0.3-0.8-0.2-1-0.5
			c-0.2-0.2-0.3-0.7-0.6-0.8c-0.3,0-0.6-0.1-0.9-0.1c-1.4-0.5-2.4-1-4.1-0.2c-0.2,0.1-0.4,0.5-0.7,0.6c-0.7,0.3-1.4,0.2-1.5,1
			c-1,0.1-1.2,0.6-1.9,1c0,0.3,0,0.3,0.1,0.5c0.2,0.1,0.1,0,0.5,0c-0.6,2.4-1.6,6.1-0.1,8.3c0.6,0.8,1.8,1.1,2.3,1.9
			c0.4-0.1,0.3-0.3,0.7-0.2c0.3,0,0.8,0.6,1.3,0.3c1.1-0.5,2.9-0.9,4.1-1.6c0.5-0.3,0.8-0.9,1.3-1.3c0.5-0.4,0.9-0.5,1.2-1.2
			c0.1-0.1,0.1-0.1,0.1-0.3h0.3c0.1-0.3,0.3-0.5,0.3-0.7V257c0,0-0.2-3.5-0.5-3.8c-0.1-0.1-0.5-0.2-0.6-0.3
			C341,252.6,340.8,251.9,340.6,251.6z M334.6,262.1c-2.2,0.7-2.8-1.3-4-2.3c0-0.5,0.2-0.8,0-1.3h-0.2c0,0,0.4-2,0.5-2.2
			c0-0.5,0.1-1.1,0.1-1.6c0.4-0.9,1.2-1.5,1.3-2.8c0.5-0.1,0.9-0.2,1.2-0.5h0.1c-0.2,0.5-0.5,0.9-0.7,1.5c-0.2,0.7,0.4,4.5,0.6,4.9
			c0.2,0.4,0.7,0.8,0.9,1.2c0,0.2,0.1,0.5,0.1,0.7c0.3,0.2,0.6,0.5,0.9,0.7c0.3,0.4,0.2,0.8,0.6,1.2
			C335.8,262.1,335.3,261.9,334.6,262.1z M336.3,262.2c0.2,0.1,0.1,0,0.2,0.1C336.3,262.3,336.4,262.3,336.3,262.2z M340.7,256.4
			c0,0.5,0.4,1,0.1,1.6c-0.3,0.8-1.1,1.6-1.6,2.1c-0.4,0.3-0.9,0.3-1.2,0.7h-0.2c-0.2-0.4,0-1.1-0.1-1.6c-0.4-1.5-0.7-4.8-1.3-5.8
			c-0.2-0.4-0.8-1.5-1.2-1.7c-0.3-0.2-0.6-0.2-0.8-0.5h-0.1c0.3-0.3,0.5-0.4,0.7-0.7l0.2,0.2h1.7c0.5,0.2,3.1,2,3.3,2.3
			c0.1,0.2,0.4,1.3,0.5,1.4c0.1,0.4-0.2,0.8,0,1.3h0.2C341,255.9,340.7,256.3,340.7,256.4z M470.6,253.7c-0.1,0.1,0,0-0.2,0.1
			c0,0.4,0,0.9,0.1,1.2c0.5-0.1,0.5-0.2,0.8-0.4c0-0.3,0.1-0.4,0.1-0.6l-0.3-0.3L470.6,253.7L470.6,253.7z M456.6,256.3
			c0.1-0.1,0.3-0.2,0.5-0.4c0-0.4,0-0.6,0-0.7c0-0.1-0.1-0.2-0.1-0.3h-0.5c-0.1,0.2-0.3,0.4-0.5,0.6c0,0.5,0.1,0.5,0.4,0.7
			C456.5,256.3,456.4,256.2,456.6,256.3z M446.1,256.2c0-0.3-0.1-0.6-0.1-0.9h-0.2c-0.1,0.1-0.3,0.2-0.4,0.2c-0.1,0-0.2,0.1-0.3,0.1
			c0,0.6,0,0.8,0.3,1v0.1C445.8,256.6,445.8,256.4,446.1,256.2z M398.5,255.7c-0.4-0.2-0.8-0.2-1.4-0.2c-0.2,0.3-0.4,0.8-0.1,1.2
			v0.2c0.3,0,0.6,0,0.8-0.1c0.7-0.3-0.1-0.3,0.2-0.8C398,255.9,398.4,255.8,398.5,255.7z M381.4,256.4c0.2,0.3,0.3,0.3,0.5,0.7
			c0.4-0.1,0.3-0.1,0.6-0.3c0.2-0.1,0.3,0,0.7,0c-0.1-0.5-0.3-0.8-0.6-1v-0.1C382.2,255.7,381.9,256.2,381.4,256.4z M375.1,262.6
			v-0.4c1.1-0.3,1-1.4,1.5-2c0.1,0,0.2,0.1,0.3,0.1c0.1-0.1,0.6-0.7,0.7-0.8c0.6-1,1-2.1,1.7-2.9v-0.8c-1.5-0.3-2.1,0.6-3,1.2
			c-1.7,1.1-3.5,2-5.7,2.6c-2.7,0.7-4.5-1.1-6.7-0.7c-0.1-0.2-0.2-0.2-0.2-0.6h-0.2c-0.1,0.1-0.2,0.6-0.3,0.7
			c-0.2,0.1-0.5,0.1-0.6,0.2c-0.6,0.8-0.8,4.3-0.3,5.5c0.2,0.6,0.7,0.7,0.8,1.6c0.7,0.3,1.7,0.6,2.4,0.8c0.9,0.3,4.7-0.7,5.1-1
			c0-0.1,0.1-0.2,0.1-0.4c0.1,0,0.2,0.2,0.5,0.1c0.3-0.1,0.9-0.4,1.2-0.6C373.4,264.5,374.1,263.3,375.1,262.6z M377.2,257.8
			c0.1,0,0.2,0.1,0.2,0.1c-0.1,0.3-0.5,0.8-0.8,1v0.1h-0.1c-0.1-0.2-0.2-0.5-0.2-0.7C376.6,258.2,376.9,258.1,377.2,257.8z
			 M363.9,259.2v0.2c-0.3-0.1-0.2,0.1-0.2-0.2H363.9z M363.1,259.7c0.2-0.1,0.1,0,0.2-0.1h0.1v0.6h-0.3L363.1,259.7L363.1,259.7z
			 M363,260.2c0.2,0.1,0.1,0,0.2,0.1h-0.1c0,0-0.1,0.1-0.1,0.1L363,260.2L363,260.2z M371.8,264.3c-0.2,0-0.5,0.1-0.7,0.1
			c-0.8,0.4-1.5,0.7-2.6,1c-0.6,0.2-1.6,0.7-2.4,0.5c-0.6-0.1-1.3-0.4-2.1-0.5c-0.2-0.5-0.8-0.9-0.9-1.4c-0.2-0.7,0-1.3-0.3-1.9
			v-0.3h0.1c0.1,0.2,0.2,0.4,0.4,0.6h0.5c0-0.4-0.1-0.8-0.1-1.2c0.1-0.4,0.4-0.7,0.4-1.2h0.1c0.2-0.1,0.5,0,0.8,0.1
			c-0.1,0.6-0.2,1.7,0.1,2.2c0.1,0.3,0.1,0.2,0.2,0.3c0.2,0,0.2,0,0.4-0.1c0.3-0.5,0-1.6,0.3-2.1v-0.2c0.4,0,0.9,0,1.2,0.1
			c-0.1,0.5-0.7,1.2-0.2,1.9c0.2,0.6,0.4,0.5,0.8,0.4c0-0.3,0-0.5,0.1-0.7c0-0.7,0.1-0.8,0.3-1.2c0.4,0,0.7,0,0.9,0.1
			c0,0,0,0.8-0.1,1c0,0.3,0.1,0.3,0.1,0.5c0.7,0,1-1.1,1.3-1.6c0.2-0.1,0.1,0,0.2-0.1h0.2c-0.1,0.3-0.1,0.4-0.1,0.6
			c0,0.4,0,0.7,0.1,0.9c0.9-0.2,0.8-1,1.3-1.6c0.2-0.2,0.6-0.3,0.8-0.5h0.2c-0.1,0.4-0.3,0.6-0.1,0.9c0,0.1,0.1,0.2,0.1,0.4
			c0.2,0,0.2,0,0.3-0.1c0.6-0.3,0.7-1.2,0.9-1.9c0.3-0.1,0.7-0.2,1-0.2c0,0.7,0,0.8,0,1.4C374.3,261.7,373.3,263.5,371.8,264.3z
			 M439.6,255.8c-0.3,0.5-0.3,0.5-0.1,1.2c0.7-0.1,0.9-0.6,0.5-1C439.9,255.9,439.9,255.9,439.6,255.8z M435.6,257.5
			c0.1-0.3,0.2-0.5,0-0.8v-0.2c-0.2-0.1-0.1,0-0.2-0.1c-0.3,0-0.5,0-0.7,0.1v1C435.1,257.5,435.1,257.5,435.6,257.5z M389.3,257.1
			H389c-0.2,0.2-0.5,0.2-0.6,0.2c-0.3,0.1-0.3,0.2-0.5,0.3c0,0.7,0.2,0.7,0.5,1c0.5-0.1,0.5-0.2,0.8-0.3
			C389.3,257.9,389.3,257.8,389.3,257.1z M393.9,258.9c0.1,0.1,0,0,0.2,0.1c0.2-0.2,0.4-0.5,0.6-0.7c0-0.2,0-0.2-0.1-0.3
			c0-0.5,0-0.6-0.5-0.7c-0.1,0.1-0.3,0.2-0.4,0.2c-0.1,0-0.2,0.1-0.3,0.1c0,0.4,0,0.7-0.1,0.9C393.5,258.7,393.6,258.8,393.9,258.9z
			 M431.8,258.5c0.2,0.1,0.2,0,0.6,0c0-0.3,0-0.6-0.1-0.8c0-0.1-0.1-0.2-0.1-0.3c-0.5,0.1-0.5,0.2-0.8,0.3c0,0.2,0.1,0.5,0.1,0.7
			C431.6,258.4,431.7,258.5,431.8,258.5z M437.2,259.1c-0.1-0.6-0.4-0.7-0.9-0.8c-0.1,0.2-0.2,0.4-0.3,0.6c0.1,0.5,0.1,0.5,0.3,0.8
			C437,259.6,436.9,259.5,437.2,259.1z M458.3,258.3c-0.1,0.2-0.3,0.4-0.5,0.6c0.1,0.6,0.2,0.5,0.5,0.8c0.3,0,0.4-0.1,0.6-0.1
			c0.1-0.2,0-0.1,0.1-0.2c0-0.4,0-0.8-0.1-1H458.3z M429.3,260.5c0-0.3,0-0.5,0.1-0.7v-0.2c0.4,0.1,0.5,0.1,0.8,0.2
			c0.1-0.1,0,0,0.2-0.1c0.1-0.2,0-0.1,0.1-0.2v-1c-0.5,0.1-1.1,0.6-1.4,0.5c-0.9,0.2-0.3,0.7-1,1c0.2,0.2,0.3,0.4,0.5,0.6
			L429.3,260.5L429.3,260.5z M426.1,259c0,0.3-0.1,0.3-0.1,0.5l0.5,0.5c0.5-0.1,0.4-0.2,0.8-0.3c-0.1-0.3-0.2-0.4-0.2-0.9
			C426.5,258.6,426.5,258.8,426.1,259z M445.8,258.7c-0.1,0.5-0.2,0.7,0.1,1v0.2c0.6,0,0.6-0.1,0.9,0.1h0.2c-0.1-0.4-0.2-1-0.5-1.3
			C446.5,258.8,446.1,258.8,445.8,258.7z M433.3,260.9c0.3-0.2,0.1-0.2,0.3-0.5c-0.5-0.3-1.2-0.6-1.9-0.7c-0.2,0.3-0.4,0.4-0.7,0.6
			c0.5,0.7,0.5,0.2,1.2,0.6C432.8,261.2,432.7,261.7,433.3,260.9z M424.9,260.4c-0.2-0.2-0.3-0.2-0.6-0.4c-0.2,0.2-0.2,0.3-0.4,0.6
			c-0.1,0.3,0,0.1,0.1,0.5c0.1,0.3,0.1,0.1-0.1,0.4v0.2c0.2-0.1,0.5-0.1,0.8-0.1c0.1,0.4,0.1,0.4,0.3,0.6c-0.1,0.2-0.2,0.3-0.3,0.5
			c0,0.7,0.2,0.6,0.6,0.9h0.2c0.1-0.8-0.2-1.4,0.2-1.7C425.7,261.2,425,260.5,424.9,260.4z M399.2,261.1c-0.3-0.2-0.3-0.6-0.3-0.9
			h-1c-0.1,0.2-0.2,0.4-0.3,0.6c0.1,0.5,0.2,0.4,0.3,0.8c0.3,0.1,0.4,0.2,0.7,0c0.3,0.2,0.2,0.3,0.4,0.6c0.2,0.3,0.3,0.4,0.7,0.5
			c0.2,0.1,0.3,0.1,0.6,0.1c0.1-0.1,0.2-0.2,0.2-0.2c0-0.8-0.3-0.9-0.6-1.4C399.4,261.1,399.4,261.2,399.2,261.1z M430.1,261.2
			c-0.6-0.1-0.5-0.3-0.9-0.5c-0.2,0.5-0.5,1-0.9,1.3c0.1,0.7,0.6,1,0.8,1.6c0.7,0,1.1-0.2,1.5-0.5
			C430.5,262.4,430.1,262.1,430.1,261.2z M437.4,262.2c0.2,0,0.2,0,0.3-0.1c0.1,0,0.2-0.1,0.3-0.1c0-0.5,0-0.4,0-0.9
			c-0.2-0.1-0.3-0.2-0.6-0.2c-0.1,0.2-0.3,0.4-0.5,0.6C437.1,261.8,437.3,261.9,437.4,262.2z M382.1,262l0.4,0.3
			c0.6-0.1,0.7-0.2,1-0.5c0-0.2-0.1-0.5-0.1-0.7c-0.1,0-0.2-0.1-0.3-0.1c-0.1,0.1-0.5,0.2-0.7,0.2
			C382.3,261.5,382.2,261.8,382.1,262z M402.8,261.9c-0.3-0.2-0.2,0-0.5-0.3c-0.3,0.2-0.1,0-0.2,0.3c-0.2-0.1-0.2-0.2-0.6-0.2
			c-0.1,0.3-0.1,0.4-0.2,0.6c0,0.4,0.1,0.4,0.2,0.7c0.3,0,0.5,0.1,0.8,0.1C402.3,262.4,402.4,262.1,402.8,261.9z M434.9,263
			c0.2-0.4,0.2-0.2,0.6-0.1c0-0.1,0.1-0.2,0.1-0.3c0.1-0.3-0.1-0.7-0.2-1h-0.5c-0.2,0.4-0.4,1.1-0.8,1.4c0.1,0.4,0.2,0.6,0.2,0.9
			c0.4-0.1,0.4-0.2,0.7-0.4C434.9,263.2,435,263.2,434.9,263z M441.8,262.3c-0.2-0.3-0.6-0.4-1.3-0.3c0,0.4-0.1,0.5,0,0.7
			c0,0.3,0,0.5,0.1,0.7c0.4,0,0.6,0,0.8-0.1C441.6,262.9,441.6,262.5,441.8,262.3z M404.7,262.2c-0.2,0.3-0.2,0.4-0.6,0.5
			c0,0.3,0.1,0.5,0.2,0.7v0.2c0.7-0.1,0.9-0.3,1.3-0.6c0-0.3,0-0.4-0.1-0.6C405.4,262.1,405.1,262.3,404.7,262.2z M454.7,262.7
			c-0.6,0-0.7,0.1-1,0.2c0,0.5,0,0.9,0.2,1.2c0.3,0.1,0.5-0.1,0.8-0.2L454.7,262.7L454.7,262.7z M399.5,263.9
			c0.1,0.1,0.2,0.3,0.4,0.5c0.3,0,0.4,0,0.6,0.1c0.2-0.3,0.6-1.1,0.3-1.4c-0.2-0.3,0.1-0.1-0.2-0.2c-0.1,0.1-0.4,0-0.6,0.1
			C399.8,263,399.6,263.7,399.5,263.9z M433.7,262.8h-0.6c-0.1,0.1,0,0-0.2,0.1v1c0.5,0.1,0.6,0,1-0.1c-0.1-0.4-0.1-0.5,0-0.8
			C433.8,263,433.8,262.9,433.7,262.8z M437.5,263.9c-0.1-0.2-0.1-0.5-0.2-0.7v-0.2c-0.4,0-0.5,0-0.7,0.2c-0.1,0.2,0.1,0.6,0.1,0.9
			c0.3-0.1,0.4-0.1,0.6-0.2L437.5,263.9L437.5,263.9z M430.2,263.7c-0.1,0.3-0.2,0.7-0.2,0.8c0.2,0.3,0.3,0.1,0.6,0.4
			c0.3-0.2,0.3-0.2,0.3-0.6c0.1-0.1,0,0,0.1-0.2l-0.3-0.3H430.2z M404.6,264.3c0,0.6,0.1,0.8,0.2,1.2c0.3,0.1,0.5,0.2,0.8,0
			c0.3-0.1,0.5-0.5,0.6-0.8c-0.4-0.4-0.5-0.5-1.2-0.7C404.9,264.2,404.9,264.2,404.6,264.3z M435.2,264.4c0,0.3,0,0.3,0.1,0.5
			c0,0,0.1,0.1,0.1,0.1v-0.1c0.3,0,0.5,0,0.7-0.1V264c-0.2,0-0.2,0-0.3,0.1C435.5,264.2,435.4,264.3,435.2,264.4z M436.8,266.1v0.2
			c0.5-0.2,0.6,0.1,0.9-0.1h0.5c-0.1-0.5-0.2-0.6,0.3-0.7v-0.2c-0.3,0-0.6-0.1-0.9-0.1C437.4,265.4,437.1,265.8,436.8,266.1z
			 M409.2,265.2c-0.2,0.3-0.5,0.6-0.7,0.8c0.2,0.4,0.3,0.3,0.6,0.6c0.3-0.1,0.3-0.2,0.6-0.4C409.6,265.6,409.6,265.5,409.2,265.2z
			 M435,265.4c0,0.3,0.1,0.7,0.1,1c0.3,0,0.7,0.1,1,0.1c0-0.4-0.1-0.9-0.1-1.3C435.4,265.3,435.5,265.4,435,265.4z M449.4,266.3
			c0.2,0.3,0.4,0.2,0.6,0.6h0.2c0-0.5,0.1-0.9,0.1-1.4h-0.2C450,265.9,449.7,266.1,449.4,266.3z M441.3,265.6
			c-0.2,0.3-0.6,0.5-0.3,0.9c0.1,0.3,0.2,0.2,0.3,0.3c0.5-0.1,0.4-0.2,0.7-0.5C441.9,265.9,441.7,265.7,441.3,265.6z M463.1,265.6
			c-0.2,0.3-0.3,0.3-0.5,0.7c0.1-0.1,0.2-0.1,0.4-0.2c0.1,0.2,0.2,0.7,0.3,0.9c0.6-0.1,1.1-0.5,0.7-1
			C463.9,265.6,463.6,265.6,463.1,265.6z M406.5,268.7c-0.2-0.4-0.6-0.4-0.3-0.9c-0.2-0.3-0.3-0.3-0.7-0.4c0-0.1,0.1-0.2,0.1-0.3
			c-0.3,0.1-0.3,0.1-0.5,0.2c-0.2,0.3-0.2,0.9-0.4,1.2c0.1,0.3,0.3,0.3,0.6,0.5c-0.1,0.3-0.2,0.6,0,0.9c0.1,0.3,0.2,0.3,0.4,0.5
			c0.4-0.1,0.5-0.4,0.8-0.6v-0.6h-0.3C406.2,268.8,406.1,268.9,406.5,268.7z M405.7,269.1c0.2,0.1,0.1,0,0.2,0.1
			C405.7,269.1,405.8,269.2,405.7,269.1z M444.2,267.3c-0.1,0.1,0,0-0.2,0.1c0,0.3,0,0.3-0.1,0.5c0.1,0.4,0.1,0.3,0.2,0.6
			c0.3,0,0.3,0,0.5-0.1c0.1-0.1,0.2-0.4,0.2-0.5c-0.1-0.4-0.1-0.3-0.2-0.6H444.2z M442.5,267.7c-0.1,0.3-0.1,0.3-0.3,0.5
			c0.1,0.5,0.2,0.5,0.5,0.8c0.3,0,0.3-0.1,0.5-0.1c0.1-0.2,0.1-0.4,0.2-0.6C443.3,267.6,443.2,267.8,442.5,267.7z M408.5,269.7
			c0.6,0,0.8-0.2,1.2-0.5c0-0.8-0.4-0.9-1-1c-0.1,0.5-0.2,0.8-0.4,1.2C408.3,269.4,408.4,269.5,408.5,269.7z M371.6,269.1
			c0.2,0.3,0.4,0.6,0.6,0.9c0.2,0,0.2,0,0.4-0.1h0.2v-1h0.4v-0.2c-0.3-0.1-0.5-0.2-0.7-0.3C372,268.5,371.9,268.8,371.6,269.1z
			 M412.2,268.8c-0.2-0.1-0.1,0-0.2-0.1c-0.6,0-0.5,0.2-0.9,0.4c0.1,0.4,0.2,0.8,0.3,1.2c0,0,0.1,0.1,0.1,0.1
			c0.5-0.1,0.4-0.2,0.8-0.3v-0.7H412c0.1-0.1,0.1-0.2,0.2-0.3L412.2,268.8L412.2,268.8z M403.6,271.6c0.3,0.2,0.9-0.3,1.2-0.5
			c0-0.9,0.1-1.4,0.2-2c-0.2-0.2-0.3-0.2-0.6-0.3c-0.9,0.8-0.3,1.2-1,2C403.3,271.3,403.3,271.4,403.6,271.6z M402.7,269.1
			c-0.1,0.1-0.2,0.1-0.5,0.1c-0.1,0.3-0.1,0.6-0.1,1l0.5,0.5c0.2,0.1,0.1,0,0.4-0.1c0.3-0.1,0.2-0.3,0.5-0.5c0-0.3,0-0.3-0.1-0.5
			C403.1,269.3,403,269.2,402.7,269.1z M451.9,270.4c0.1,0.3,0.1,0.2,0.4,0.4c0,0,0.1,0.1,0.1,0.1c0.1-0.2,0.2-0.3,0.3-0.5h0.1
			c0-0.1-0.1-0.2-0.1-0.2h0.1v-0.7c-0.4-0.1-0.5-0.2-0.9-0.2C451.9,269.6,451.7,270,451.9,270.4z M367.4,270.1
			c0,0.2,0.1,0.4,0.1,0.6c0.4,0.1,0.3,0,0.5,0.2c0.4-0.1,0.4-0.1,0.7-0.2c0-0.3,0.1-0.5,0.1-0.8c-0.1-0.1-0.2-0.2-0.2-0.3
			c-0.8,0.1-0.8,0.4-1.6,0.5C367.1,270.1,367.2,270.1,367.4,270.1z M446.3,269.7c-0.1,0.2-0.1,0.2-0.2,0.5h-0.1
			c0.1,0.3,0.2,0.4,0.3,0.6c0,0,0.1,0.1,0.1,0.1v-0.1c0.3-0.1,0.3-0.3,0.6-0.5c-0.1-0.4-0.1-0.3-0.2-0.6H446.3z M406.6,271.1
			c0.1,0.3,0.2,1,0.3,1.3c0.2,0.3,0.7,0.4,1,0.6c0.2,0.1,0.7-0.3,1.2-0.3v-0.1c-0.2-0.1-0.2-0.1-0.5-0.1c0-0.3,0-0.3-0.1-0.5
			c-0.3-0.8-1.1-0.5-1.7-0.8H406.6z M456.3,272.3c-0.1,0.4,0,0.5,0,0.9c0.4,0,0.6,0,0.8-0.1c0.1-0.2,0-0.1,0.1-0.2
			c0-0.4,0-0.6-0.1-0.8C456.6,272.1,456.5,272.2,456.3,272.3z M454.7,272.3c-0.1,0.1-0.3,0.2-0.5,0.3c0,0.3,0.1,0.5,0.1,0.8
			c0.4,0,0.6-0.1,0.8,0h0.2C455.3,273,455.2,272.5,454.7,272.3z M463.5,272.3H463c-0.2,0.3-0.5,0.6-0.2,1c0,0.1,0.1,0.2,0.1,0.4
			c0.7-0.1,0.7-0.4,0.9-0.9C463.6,272.6,463.6,272.7,463.5,272.3z M404.3,274.2c0.4-0.2,0.4-0.8,0.1-1.2c-0.1-0.3-0.1-0.3-0.5-0.4
			c-0.1,0.1-0.5,0.2-0.7,0.2c0,0.3,0,0.3,0.1,0.5v0.6C403.7,274.1,404.1,274.2,404.3,274.2z M409.2,274.8c-0.1-0.1-0.1-0.1-0.4-0.1
			c-0.2,0.1-0.6,0.3-0.8,0.3c0,0.7,0.1,0.8,0.3,1.2c0.4,0,0.5-0.1,0.8-0.2c0.1-0.2,0-0.1,0.1-0.2C409.3,275.3,409.3,275,409.2,274.8
			z M405.1,274.9c0.1,0.5-0.1,1,0.2,1.4c0.5,0.4,1.4,0.4,2,0.1c0.1-0.4,0.2-0.8,0.5-1c-0.3-0.5-1.5-0.5-2.1-0.6
			C405.5,274.9,405.4,274.9,405.1,274.9z M411.7,275.1c0,0.3,0,0.4,0.1,0.6c0,0.4,0,0.5,0.2,0.7c0.2,0.1,0.5-0.2,0.8-0.3
			c0-0.7,0-1-0.6-1.2C412.2,275,411.9,275.1,411.7,275.1z M291.6,279.4c-0.5-0.2-1.6-0.8-2.3-0.7c-1.4,0.3-1.8,1-2.6,1.9
			c0,0.3,0,0.4,0.1,0.6c0.1,0.8,0.7,1.2,1.4,1.4c1,0.6,2.6-0.7,3.3-0.6c1.9,0.2,3.6,1.5,4.4,2.9c0.4-0.1,0.3-0.1,0.7-0.2
			c0-0.6,0.1-0.8,0.4-1C296.3,281.5,293.5,280.4,291.6,279.4z M406.6,280.4c0.2-0.2,0.2-0.7,0.6-1c-0.1-0.3-0.1-0.3-0.5-0.3
			c0,0.2,0,0.2-0.1,0.3c-0.1,0-0.1,0-0.2-0.2c-0.4,0.1-0.4,0.2-0.7,0.4c0,0.4,0,0.7,0.1,0.9c0,0.1,0.1,0.2,0.1,0.4
			C406.3,280.6,406.4,280.6,406.6,280.4z M410.2,280.6c0.1-0.2,0-0.1,0.1-0.2c0.1-1.1-0.2-1.2-1-1.4c-0.1,0.3-0.2,0.4-0.3,0.6
			c0,0.5,0.2,0.7,0.3,1L410.2,280.6L410.2,280.6z M399.9,282.6c0-0.6-0.2-1-0.5-1.4c-0.3-0.4-0.7-0.3-1.2-0.4c0,0.8,0,1-0.6,1.3
			c0,0.7,0.2,0.6,0.3,1.2c0.2,0.1,0.1,0,0.2,0.1c0.4-0.1,0.5-0.1,0.6-0.5c0.4,0.1,0.4,0.2,0.7,0.3
			C399.6,283,399.7,282.8,399.9,282.6z M402.9,281.4h-0.6c-0.1,0.1-0.2,0.2-0.4,0.2c0,0.5,0.1,0.6,0.2,0.9c0.2-0.1,0.1,0,0.2-0.1
			c0.3,0,0.5,0,0.7-0.1C403.1,281.8,403,281.8,402.9,281.4z M352.7,282.2c-0.3,0-0.5-0.1-0.8-0.1c-0.1,0.2-0.1,0.4-0.1,0.7
			c-0.1,0-0.2-0.1-0.4-0.1l-0.1,0.1c0.1,0.4,0.3,0.4,0.5,0.8c0.2,0,0.2,0,0.3,0.1c0.6-0.1,0.5-0.2,0.8-0.5c0-0.5-0.1-0.4,0-0.8
			L352.7,282.2z M401.5,283.2c-0.1-0.4-0.2-0.7-0.5-0.8c-0.1,0.1-0.3,0.2-0.4,0.2c-0.3,0.2-0.1-0.1-0.2,0.2c-0.1,0.2-0.1,0.1,0,0.2
			c0,0.5,0.1,0.6,0.2,0.9c0.4,0,0.4-0.1,0.7-0.2C401.4,283.4,401.4,283.3,401.5,283.2z M340.7,283.7c0.1,0.6,0.3,0.5,0.6,0.9
			c0.4,0,0.9-0.1,1.2-0.4c0.3-0.1,0.3-0.1,0.5-0.2v-0.2c-0.2,0-0.4,0.1-0.6,0.1c0-0.2,0-0.2-0.1-0.3c-0.1-0.3-0.2-0.3-0.3-0.6
			C341.1,283.1,341.2,283.4,340.7,283.7z M337,284c0.1,0.3,0.2,0.5,0.3,0.8c0.5,0,0.8,0,1-0.2c0.3-0.2,0.2-0.2,0.3-0.5
			c-0.2-0.5-0.7-0.9-1.3-0.9C337.4,283.7,337.4,283.8,337,284z M403.1,283.6c0-0.3-0.1-0.3-0.1-0.5c-0.7,0-0.8,0.1-1.2,0.4v0.7
			c0.2,0,0.5,0.1,0.7,0.1V284h0.4C403,283.8,403,283.7,403.1,283.6z M406,283.8h-0.8c-0.1,0.3-0.1,0.7-0.3,1c0.5,0.3,1,0.1,1.5-0.2
			C406.3,284.3,406.2,284.1,406,283.8z M397.8,286.6c0.6,0,0.7-0.2,1.2-0.3c0-1.1-0.6-1-1.3-1.3c0,0.5,0.3,1.1,0.1,1.4V286.6z
			 M334.3,285.8c0-0.1-0.1-0.2-0.1-0.4c-0.5,0.1-0.5,0.4-0.8,0.6c0.1,0.4,0.2,0.7,0.2,1.3c0.4,0,0.7-0.1,0.9-0.2
			C334.6,286.9,334.5,286.1,334.3,285.8z M334.7,287.1c0.2,0,0.2,0,0.3,0.1c0.9,0,0.5-0.3,1.2-0.7c-0.1-0.4-0.3-0.5-0.3-0.9
			c-0.4,0-0.8,0-1,0.1C334.8,286.1,334.7,286.6,334.7,287.1z M402.7,285.8c0,0,0.1-0.1,0.1-0.1c-0.2,0-0.5-0.1-0.7-0.1
			c0.2,0.2,0.1,0.1,0.3,0.2v0.1C402.6,286,402.6,285.9,402.7,285.8z M400.6,288.2c0-0.5,0-0.5,0.3-0.7c0-0.5-0.2-0.6-0.3-0.9h-0.9
			c0,0.2-0.1,0.5-0.2,0.7C399.5,287.9,399.9,288.1,400.6,288.2z M404.9,287c0,0.7,0,1,0.5,1.2c0.2,0.1,0.2,0,0.6,0
			c0.1-0.2,0.1-0.9,0.2-1.2v-0.2c-0.4,0.1-0.5-0.1-1-0.1C405,286.8,405,286.9,404.9,287z M398.3,289.4c0.1-1.3,0.6-0.7-0.3-1.6
			c-0.5,0.1-0.4,0.2-0.7,0.5c0,0.5,0,0.4,0,0.9C397.7,289.3,398,289.4,398.3,289.4z M326.8,289.8c0.1,0.4,0.2,0.5,0.4,0.8
			c0.3,0,0.6-0.1,0.9-0.1c-0.1-0.6-0.2-0.7-0.2-1.3c-0.3,0-0.5,0.1-0.8,0.1C327,289.5,326.9,289.7,326.8,289.8z M331.4,289.5
			c-0.2,0.2-0.4,0.3-0.7,0.4c0.1,0.5,1.9,2.2,2.3,2.7c0.6-0.1,0.6-0.2,1-0.3c-0.2-0.5-0.6-0.9-0.2-1.3
			C333.7,290.8,331.6,289.6,331.4,289.5z M394.5,289.7c-0.1,0.1-0.2,0.2-0.2,0.2c-0.1,0.1-0.2,0.3-0.2,0.3c0.2,0.4,0.4,0.4,0.6,0.8
			c0.4-0.1,0.4-0.3,0.7-0.5c0-0.4-0.1-0.5-0.2-0.8C394.9,289.7,394.7,289.7,394.5,289.7z M393,291.5c0-0.7-0.2-0.7-0.5-1h-0.3
			c-0.7,0.9-1.1,0.5-0.5,1.9C392.5,292.3,392.5,291.9,393,291.5z M398.8,290.6h-1.2c0.1,0.6,0.2,0.6,0.2,1.2c0,0,0.1,0.1,0.1,0.1
			c0.3,0,0.5,0,0.7-0.1c0.3-0.2,0.1,0.1,0.2-0.2C399,291.3,398.9,291,398.8,290.6z M330.8,291.1c-0.4,0.1-0.3,0.1-0.6,0.2
			c0.1,0.4,0.2,0.7,0.2,1c0.3,0,0.4,0,0.6-0.1c0.1-0.1,0.2-0.4,0.2-0.5c0-0.3,0-0.5-0.1-0.7C330.8,291,331,291,330.8,291.1z
			 M398.6,292.2c-0.6,0-0.5,0.2-0.9,0.3c0,0.6,0.1,0.5,0.3,0.8h0.7c0.1-0.4,0.3-0.5,0.1-0.8v-0.2
			C398.6,292.3,398.7,292.3,398.6,292.2z M386.7,292.9c-0.1,0.2-0.3,0.5-0.5,0.7c0.1,0.4,0.1,0.5,0.2,0.8c0.7-0.1,0.7-0.2,1.2-0.2
			c-0.2-0.4-0.3-0.9-0.5-1.3H386.7z M389.6,294.2c0.1-0.2,0-0.2,0-0.6c-0.4,0-0.6-0.1-0.7-0.1h-0.2c0,0.4,0,0.8,0.1,1
			c0.1,0.1,0,0,0.2,0.1C389.2,294.5,389.5,294.4,389.6,294.2z M393,294.8c0.1,0.1,0,0,0.2,0.1c0.1-0.2,0.2-0.4,0.4-0.6
			c0.1-0.1,0.1-0.1,0.3-0.1c0-0.3,0-0.3,0.1-0.5v-0.1c-0.2,0-0.5-0.1-0.7-0.2c-0.6,0-0.6,0.1-0.9,0.3
			C392.5,294.2,392.7,294.6,393,294.8z M323.1,294.4c0-0.6-0.1-0.8-0.6-0.9c-0.1,0.1-0.3,0.2-0.5,0.3c0,0.3,0.1,0.7,0.1,1
			c0.2,0.1,0.1,0,0.2,0.1c0.3,0,0.4,0,0.6-0.1C323.2,294.7,323.1,294.5,323.1,294.4z M385.6,294c-0.3,0.2-0.7,0.4-1,0.6
			c0.2,0.4,0.4,0.9,0.6,1.3c0,0,0.1,0.1,0.1,0.1c0.3-0.3,1.1-1.1,0.7-1.7V294H385.6z M441.9,294.9v0.2c0.5,0.1,0.9,0.2,1.4,0.2
			c0-0.3,0-0.3,0.1-0.5c0-0.3-0.1-0.3-0.1-0.5C442.5,294.5,442.6,294.8,441.9,294.9z M301.3,299.3h0.4c0.1-0.5,0.3-0.8,0.8-0.9V298
			h0.4c0.6-1.3,1.3-1.6,2.4-2.1v-0.5c-3,0.2-5.8,1.8-8.4,2.7c-0.8,0.3-1.4,0-2.3,0.2c-2.5,0.6-6.2,0.3-8.4,0.8
			c-1.4,0.3-5.9-0.3-6.6,0.1c-0.1-0.1-0.1-0.1-0.1-0.4c-2.1-0.2-4.6-0.6-6.6-1c-0.9,0-1.9-0.1-2.8-0.1c-2-0.5-4.4-0.7-6.3-1.2
			c-1.5-0.4-3.2-0.1-4.7-0.5c-1.2-0.3-2.9-0.3-4.1-0.6h-2.3c-1.3-0.3-3.2-0.4-4.3-0.1c-0.5,0.1-0.3-0.3-0.5-0.3l-4.2-0.2
			c-2.3,0.3-4.8,0.5-6.9,0.9c-1.5,0.3-2.9,0-4.3,0.5c-3.7,1.1-7.6,1.9-11.3,3.1c-1.8,0.6-3.2,1.4-5.2,2.1c-0.1,0.2-0.1,0.2-0.1,0.5
			c-0.3,0.7,0.8,1.2,1.2,1.6c1.4,1.4,3.6,2.9,5.6,3.7c1.8,0.7,3.6,1.9,5.3,2.7c1.4,0.6,3,0.6,4.4,1c5.3,1.6,11.5,3.1,18.5,2.7
			c-0.3,1.4-3.1,2.9-4.4,3.6c-1.8,1-3.9,1.9-6,2.6c-0.8,0.2-1.6,0.3-2.2,0.5h-1.7c-1.3,0.3-4.9,0.9-6.7,0.5c-2.3-0.5-5,0.2-7.1-0.1
			c-1.1-0.2-5.1-0.4-6.4-0.1c-0.4,0.1-1.5,0.4-1.9,0.3c-5.1-0.2-11.3,1.2-15.3,3c-1.2,0.5-2.3,0.6-3.5,1c-1.9,0.8-3.8,1.8-5.6,2.8
			c-1.8,1.1-3.2,2.7-4.9,4c-1.5,1.1-2.8,2.2-4,3.6c-0.2,0.3-0.7,0.4-0.9,0.7c-1.1,1.3-1.9,3-3,4.2c-0.5,0.5-2.5,2.9-2,3.7v0.2
			c1.4,0,1.7-0.7,2.4-1.2c0.2-0.1,1.2-0.3,1.5-0.5c1.5-0.8,5.8-2.5,7.9-2.1c0.8,0,1.6-0.1,2.3-0.1c0.8,0.2,2.1,0,2.8,0.1
			c1.8,0.4,3.8,0.5,5.5,0.7c1.5,0.2,3.2-0.4,4.8,0c10.5,2.5,24.4,0.1,33.1-2.6c1-0.3,1.7-0.1,2.7-0.5c0,0,0.6-0.3,0.7-0.4
			c0-0.1,0.1-0.2,0.1-0.3c0.7,0,1.3-0.1,2-0.1c1.1-0.4,3.7-1.1,4.5-1.7h0.2c0,0-0.1,0.1-0.1,0.1c-0.3,0.7-1,0.9-1.4,1.5
			c-0.6,0.9-1.3,1.6-1.9,2.4c-1.8,2.4-3,5.1-4.7,7.7c-0.3,0.5-1,1.1-1.4,1.6l-0.3,1c-1,1.6-2.3,3.2-3.1,5c-0.3,0.6-0.3,1.2-0.6,1.7
			c-0.5,0.8-1.2,1.8-1.6,2.7c-0.4,0.8-0.4,1.5-0.7,2.3c-0.3,0.8-0.9,1.7-1.3,2.4c-0.1,0.4-0.2,0.8-0.2,1.2c-0.2,0.5-0.6,1.3-0.8,1.7
			c0,0.3-0.1,0.7-0.1,1c-0.1,0.3-0.5,0.9-0.6,1.2c-0.1,0.3,0.1,0.5,0,0.9c-1.2,3.6-2.1,7.4-3.3,11c-0.4,1.4,0.2,2.9,0,4.3
			c0,0.2,0.2,0.8,0.1,1.3c-0.2,1.8-0.4,3.9-0.9,5.8c-0.2,0.7,0,1.3-0.3,1.9c0,0.3,0.1,0.3,0.1,0.5c1.8,0,1.6-1.7,2.2-2.9
			c0.7-1.5,1.7-2.9,2.6-4.3c0.2-0.3,0.2-1,0.4-1.3c0.8-1.2,2.4-2.3,2.4-4.2c1.3-0.4,2.4-3.2,3.1-4.3c0.4-0.3,0.7-0.6,1-0.9
			c0.1-0.2,0.1-0.4,0.2-0.6v-0.1h0.5c0.7-0.4,1-1.3,1.6-1.7c0.2-0.1,0.4-0.1,0.5-0.2c0.1-0.3,0.2-0.6,0.3-0.9c0.2-0.3,0.4,0,0.7-0.2
			c0.2-0.2,0.2-0.6,0.3-0.8c0.3-0.4,1-0.8,1.4-1v-0.5c0.7,0,1.1-0.3,1.3-0.8h0.3c0.1-0.4,2.5-2.5,2.9-2.8v-0.5h0.6v-0.5
			c0,0,2.1-1.5,2.2-1.6v-0.3c1.3-0.1,1.6-1.2,2.2-2c0.4-0.4,1.2-0.5,1.6-0.9c0.3-0.3,0.3-0.7,0.6-1c0.2-0.2,0.4,0,0.7-0.2
			c0.2-0.1,0.3-0.5,0.5-0.7c0.1-0.1,0.1,0,0.5,0c0.1-0.4,0.3-0.5,0.6-0.7v-0.5h0.3c0.1-0.7,0.5-0.6,0.8-1h0.3c0-0.3-0.1-0.3-0.1-0.5
			c0.1,0,0.5,0,0.7-0.1c0.3-0.2,0.2-0.6,0.5-0.8c0.4-0.5,1.3-0.7,1.6-1.3v-0.5c0.1-0.2,0.5-0.2,0.7-0.3c0.4-0.3,1.2-1.5,1.4-2
			c0.1-0.3,0-0.1-0.1-0.3c0.8-0.2,1.8-1.6,1.9-2.6h0.3c0.1-0.3,0.2-0.4,0.5-0.6v-0.7h0.3c-0.1-1.2,0.5-1.2,1-2v-0.5
			c0.2-0.5,0.7-1.1,0.9-1.6V343c0.2-0.1,0.4-0.2,0.6-0.3c0.2-0.2,0.2-0.6,0.3-0.8c0.1-0.2,0.4-0.2,0.6-0.3c0.7-0.7,0.9-1.8,1.5-2.7
			c0.1-0.2,0.6-0.4,0.7-0.6c0.2-0.3,0-0.4,0-0.8h0.4c0.2-0.8,0.8-1.6,1.2-2.2v-0.5c0.1-0.2,0.4-0.5,0.6-0.7v-0.4
			c0.2-0.2,0.7-0.3,0.8-0.6c0-0.3,0.1-0.7,0.1-1c0.3-0.2,0.7-0.4,1-0.6c0-0.2,0.1-0.3,0.1-0.5c0.2-0.1,0.3-0.2,0.5-0.2
			c0.1-0.2-0.2-0.4-0.1-0.5c0.1-0.3,0.5-0.2,0.7-0.3c0.4-0.4,0.5-1.1,0.8-1.5c0.6-0.7,1.3-1.4,1.7-2.2h0.2
			c-1.6,7.6-1.3,14.8,1.4,21.6v0.9c0.1,0.4,0.5,1.1,0.6,1.5c0,0.1-0.1,0.2-0.1,0.3h0.2c0.1,0.4,0.2,0.9,0.2,1.3
			c0.3,0.9,1,1.9,1.3,2.7c0.2,0.4,0,0.6,0.2,0.9c0.4,0.6,1,1.1,1.4,1.7c1.1,1.7,2.2,3.3,3.3,4.9c0.6,0.8,0.3,1.5,1.4,1.9
			c0.1,0.1,0.2,0.1,0.5,0.1c0,0.2,0.1,0.5,0.1,0.7c0.3,0.1,0.3,0.1,0.5,0.3c0.2-0.1,0.1,0,0.2-0.1c0.4-0.1,0.3-0.2,0.6-0.3
			c-0.1-1.5-0.1-2.7-0.5-4.2c-0.3-1.1,0-2.4-0.2-3.5c-0.3-1.5,0.5-2.6,0-3.8h-0.2c-0.1-0.4,0.4-0.6,0-1.2c0,0,0.4-2.8,0.5-3.3
			c0.1-0.6-0.2-3.1-0.5-3.4l0.3-0.3c0.1-0.5-0.3-0.7-0.3-0.9c-0.1-0.2,0.2-0.6,0.2-1c0-1.6,0.5-4.4-0.1-5c0.1-0.1,0.1-0.1,0.3-0.1
			c0-0.5-0.3-1.3-0.2-1.5c0-0.1,0.3-0.9,0.4-1.2v-0.7c0,0-0.4,0-0.2-0.1c0.2-0.2,0.3-0.4,0.4-0.7c0.1-0.5-0.3-1.2,0-1.7h0.2
			c0.2-0.3-0.2-1.4-0.2-1.4c0.2-0.2,0.5-0.9,0.5-1.3c0,0-0.3-0.2-0.2-0.4c0.1-0.1,0.2-0.2,0.2-0.2c0.3-1.3-0.5-2.4,0.2-3.5
			c-0.1-0.4-0.1-0.3-0.2-0.6c0-0.5,1-2.9,0.6-3.1c0.1-0.1,0.1-0.1,0.3-0.1c0-0.6-0.3-0.6,0-1.3c0.1-0.1,0.2-0.2,0.4-0.2
			c0-0.4-0.1-0.8-0.1-1.2c0.1,0,0.2-0.1,0.3-0.1c0.4-0.8,0.6-2.1,0.5-2.6c0.2-0.1,0.4-0.2,0.6-0.2c-0.1-0.4-0.1-0.3-0.2-0.6
			c0.1,0,0.2-0.1,0.3-0.1v-0.6c0.2-0.3,0.6-0.9,0.7-1.2c0.1-0.3-0.2-0.8-0.1-0.9c0.1-0.2,0.4,0.1,0.5-0.6h0.4c0.1-0.6,0.6-1,0.2-1.3
			c0.2-0.3,0-0.1,0.4-0.2c0-0.3-0.1-0.3-0.1-0.5c0.8-0.5,0.7-1.1,1.4-1.7c-0.1-0.4-0.1-0.3-0.2-0.6c0.4-0.3,0.5-0.7,1-0.9v-0.5h0.4
			c0-0.4-0.1-0.5,0-0.6c0.1-0.3,0.1-0.3,0.5-0.4c-0.1-0.4-0.1-0.2-0.2-0.5c0.1-0.1,1.6-1.8,1.7-2v-0.5c0.2-0.3,0.7-0.3,0.9-0.6
			c0.1-0.2,0.2-0.5,0.2-0.7c0.4-0.1,0.7-0.2,1-0.3c0.2-0.2,0.2-0.7,0.4-0.9C300.7,299.6,301.1,299.8,301.3,299.3z M268.1,297.9
			c-0.2,0.1-0.1,0.1-0.3,0H268.1z M263.6,297.1v0.1c-0.3-0.1-0.2,0.1-0.2-0.2C263.4,297,263.5,297.1,263.6,297.1z M251.6,295.9
			c-0.2-0.1-0.1,0-0.2-0.1C251.6,295.9,251.5,295.8,251.6,295.9z M247.8,295.6c-0.2-0.1-0.1,0-0.2-0.1
			C247.7,295.6,247.7,295.5,247.8,295.6z M299.1,300.5c-1.2,1.2-2.6,2.5-3.5,4c-0.4,0.6-0.4,1.4-0.8,2l-0.8,0.8
			c0,0.2-0.1,0.5-0.1,0.7c-0.4,0.7-1,1.6-1.4,2.3c-0.2,0.3,0,0.6-0.2,0.9c-0.2,0.1-0.3,0.2-0.5,0.4c-0.2,0.5-0.1,0.9-0.4,1.4
			c-0.1,0-0.2,0.1-0.2,0.1c0,0.2,0.3,0.7,0.2,0.9c-0.2,0.2-0.4,0.4-0.6,0.6c-0.3,0.5-0.5,1.2-0.7,1.6c-1,2.9-1.3,5.9-2.1,9
			c-0.2,0.7,0.1,1.4,0,1.9c-0.3,1.4-0.2,3.7-0.6,5.2c-0.1,0.5,0.2,1.3,0.1,1.6c-0.1,0.7-0.3,2-0.5,2.8c-0.2,0.9,0.3,1.9,0.1,2.8
			c-0.5,2.7-0.5,6.5-0.1,9.2c0.1,0.8-0.5,1.6-0.4,2.6c0.5,2.5-0.2,5.2,0.4,8c0.1,0.8-0.2,2,0.1,2.6v0.8c-1.6-0.8-2.6-3.4-3.6-5
			c-1-1.6-2.3-3.1-3.1-4.9c-0.4-0.7-0.2-1.5-0.5-2.2c-0.3-0.8-0.8-2.2-1-3c-0.1-0.6-0.2-1.2-0.2-1.9c-0.4-1.4-1.3-3.1-1.5-4.8
			c-0.3-1.8,0-3.5-0.5-5.2c0.1-0.6,0.2-1.4-0.2-2.2c0.1-0.2,0.5-1.7,0.5-1.9c-0.1-0.1-0.2-0.2-0.2-0.2v-0.1h0.2
			c0.3-0.6,0.4-2.1,0.6-2.7c0-0.2-0.1-0.5-0.1-0.7c0.1,0,0.2-0.1,0.2-0.1c0-0.2-0.1-0.3-0.1-0.5c0.3-1.2,1.4-3,1.5-4.2
			c-0.3,0-0.5,0-0.7-0.1c-0.7,0.7-1.7,1.4-2.3,2.2c-0.7,1-1.2,2-1.9,3c-0.2,0.2-0.5,0.4-0.7,0.6c-0.2,0.4-0.2,0.8-0.5,1.2
			c-0.1,0.1-0.4,0.1-0.5,0.2c-0.2,0.2-0.3,0.7-0.5,0.9c-0.2,0.1-0.4,0.2-0.6,0.3c-0.4,0.4-0.5,1-0.8,1.5c-0.2,0.4-0.7,0.7-0.9,1
			c-0.2,0.3-0.1,0.6-0.2,0.9c-0.2,0.5-0.8,1.1-1,1.5c-0.7,1.1-0.9,2.3-1.6,3.4c-0.9,1.4-2.2,2.7-3,4.2c0,0.2-0.1,0.5-0.1,0.7
			l-0.7,0.7c-0.1,0.4-0.2,0.7-0.2,1c-0.4,0.7-1.2,1.5-1.6,2.2c-0.2,0.4-0.1,0.8-0.3,1.3c-0.3,0.2-0.5,0.5-0.8,0.7
			c-0.6,0.8-1,1.6-1.6,2.4c-0.3,0.4-1,0.7-1.4,1c-1.1,1.1-1.8,2.3-3.1,3.1c-0.5,0.3-0.8,1.4-1.4,1.9c-3.2,2.4-6,5.3-9.2,7.8
			c-0.3,0.2-0.2,0.4-0.3,0.7c-0.4,0.7-1.6,1.2-2.2,1.7c-0.2,0.3-0.4,0.5-0.6,0.8c-1.9,1.4-3.2,3.1-4.8,4.9c-0.8,0.9-2.2,1.6-2.9,2.7
			c-0.4,0.5-0.4,1.2-0.8,1.7c-0.5,0.8-1.4,1.5-2,2.3c-0.5,0.7-0.6,1.4-1,2.2c-0.3,0.5-0.9,0.9-1.2,1.4c-0.9,1.4-1.8,2.8-2.6,4.3
			h-0.2v-0.1c-0.2-0.5,0.2-1.9,0.2-2.6c0-0.8-0.1-2-0.2-2.9c-0.4-2.5,1-6.6,2-9.1c0.4-1,0.2-1.9,0.6-2.9c0.4-1,0.9-2.3,1-3.1
			c0-0.2-0.1-0.4-0.1-0.6h0.2c0.2-0.5,0-1,0.2-1.5c0.2-0.5,0.7-1.1,0.9-1.6c0.3-0.7,0.1-1.2,0.5-1.9h0.2c0-0.3,0.1-0.6,0.1-0.9
			c0,0,0.3-0.1,0.4-0.2c0-0.3,0.1-0.5,0.1-0.8c0.1,0,0.2-0.1,0.3-0.1c0.2-0.4,0-0.9,0.2-1.3c0.1,0,0.2-0.1,0.3-0.1
			c0.2-0.4,0.3-0.8,0.3-1.4h0.4c0.3-0.9,1.3-2.4,1.2-3.1c0.2-0.4,0.8-0.8,1-1.3c0.4-0.8,0.6-2,1.2-2.7c0.1,0,0.2-0.1,0.3-0.1
			c0.2-0.3,0.1-0.7,0.4-0.9c0.1,0,0.2-0.1,0.3-0.1v-0.5c0.3-0.6,1.1-1.1,1.5-1.6c0.2-0.3,0-0.7,0.2-0.9c0.1-0.2,0.6-0.4,0.7-0.6
			v-0.6c0,0,0.7-1.2,0.7-1.3c0.2-0.2,0.7-0.2,0.8-0.5c0.3-0.5,0.6-1.2,0.8-1.6v-0.6c0.2-0.3,0.9-0.6,1-0.8v-0.5
			c0.4-0.6,1.2-1.1,1.6-1.7c0-0.3,0.1-0.5,0.1-0.8c0.4-0.7,1.9-1.3,2.3-2c0.2-0.2,0.4-0.9,0.6-1c0.3-0.2,0.8-0.1,1.2-0.4
			c0.1,0,1.7-1.5,1.7-1.5c0.2-0.4,0-0.4,0.4-0.6c-0.1-0.5-0.4-0.4-0.6-0.8c-1,0.1-1,0.7-1.6,1c-1.2,0.7-2.9,1.7-4.2,2.1
			c-5.9,1.9-12.3,3.2-18.5,4.8h-1.5c-0.5,0.1-1.5,0.3-2.1,0.5c-0.3,0-0.5-0.1-0.8-0.1c-0.4,0.1-1,0.4-1.4,0.5
			c-0.5,0.1-1.5-0.3-2.2-0.1c-1.6,0.4-3,0.3-4.5,0.2c-1.3-0.1-2.3,0.1-3.5-0.1c-1.1-0.2-2,0.2-2.9,0c-1.3-0.3-2.7-0.6-4-0.8
			c-0.3,0-0.5,0.1-0.8,0.1c-1,0-2.4-0.1-3.6-0.1h-2.1c-0.9-0.2-2.5-0.4-3.4-0.6c-0.6-0.1-1.5,0.1-2.3,0c-0.4-0.1-1.1-0.4-1.9-0.2
			c-1.7,0.4-3.8,0.1-5.6,0.7c-0.6,0.2-1.6,0.7-2.2,0.9c-0.3,0-0.6,0.1-0.9,0.1c-0.8,0.3-1.6,0.9-2.6,1c0.2-1.1,1-1.6,1.6-2.3
			c0.2-0.3,0.2-0.6,0.3-0.9c0.2-0.3,0.6-0.4,0.8-0.6c0.5-0.5,0.6-1,0.9-1.6c0.1-0.2,0.5-0.2,0.7-0.4c0.3-0.3,0.3-0.6,0.6-0.9
			c0.3-0.3,1.7-1.4,2.1-1.6v-0.4c0.2,0,0.5-0.1,0.7-0.1v-0.4c1.2-0.6,1.8-1.7,2.8-2.4c0.4-0.3,0.9-0.2,1.3-0.5
			c0.3-0.3,0.6-0.6,0.9-0.9c0.5-0.4,1.1-0.4,1.6-0.7c0.3-0.2,0.6-0.6,0.9-0.8c0.2,0,0.5-0.1,0.7-0.1c0.2-0.1,0.4-0.4,0.6-0.5
			c0.5-0.3,1-0.1,1.5-0.3c0.2-0.1,0.5-0.5,0.7-0.6c0.4-0.2,0.8,0,1.3-0.2c1.1-0.4,2.5-1.1,3.6-1.5c0.6-0.2,0.9,0,1.5-0.2
			c0.2-0.1,0.5-0.4,0.7-0.5c1.3-0.2,3.3-0.5,4.7-0.9h1.9c0.3,0,0.9-0.3,1.2-0.4h1.6c0.9-0.2,1.8-0.1,2.8-0.3h1.9
			c1.9-0.4,4.2,0.2,6.2,0c2-0.2,4.7-0.2,6.9,0.2c1.6,0.3,3.7-0.1,4.9-0.4c1.8-0.4,3.2-0.2,4.9-0.6c4-1,7.2-2.5,10-4.7
			c0.8-0.6,2.2-1.8,2.4-2.8l-0.3-1c-1.8,0-3.7,0.1-5.2,0.1h-2c-0.9-0.3-2.3-0.1-3.4-0.4c-3.5-0.9-7.4-1.7-10.6-2.8
			c-0.8-0.2-1.6-0.3-2.3-0.5c-1.4-0.6-2.9-1.5-4.2-2.2c-0.9-0.4-1.7-0.5-2.4-0.9c-1.6-1-2.9-2.4-4.5-3.4c0.1-1.7,1.4-1.1,2.4-1.7
			h0.2v-0.3c0.7-0.1,1.2-0.2,2.1-0.2v-0.5c1.1,0,1.5-0.5,2.2-0.2c0.1-0.3,0-0.2,0-0.5c0.5,0,0.9,0.1,1.4,0.1
			c0.1-0.1,0.3-0.5,0.7-0.6c0.5-0.1,1.3,0.1,1.9-0.2c0-0.1,0.1-0.2,0.1-0.3h1.2v-0.2c0,0,0.1,0.1,0.1,0.1c0.7-0.1,1.4-0.4,1.9-0.6
			c0.4-0.1,1.1,0.1,1.9-0.1c1.9-0.5,4.4-0.4,6.4-1h2.7c1.9-0.5,7-0.1,9.2,0.3c0.4,0.1,0.9-0.1,1-0.1c0.9,0.1,2.2,0.3,3,0.5h1.5
			c2.7,0.6,6.3,0.8,8.5,1.4c1.6,0.4,3.5,0.2,5,0.6h1.3c1.6,0.4,3.6,0.2,5.2,0.7c2.1,0.6,5.4,1.1,7.4,0.7c1-0.2,3.7-0.1,4.3-0.5h1.2
			c-0.1-0.2,0-0.1-0.1-0.2c0.2-0.3,0-0.1,0.4-0.2v0.3c3.6,0,5.7-0.4,8.5-1.4c0.9-0.3,1.9-0.3,2.6-0.9h0.7
			C301.9,298.3,299.8,299.7,299.1,300.5z M383.8,295.9c-0.6,0.1-0.7,0.2-1.3,0.2c0.1,0.5,0.4,1,0.6,1.4c0.4,0,0.5,0,0.7-0.2
			C384.2,296.9,383.9,296.6,383.8,295.9z M431.5,297c0-0.6,0.1-0.9-0.3-1c-0.2,0.3-0.5,0.6-0.7,0.9c0.1,0.1,0.2,0.3,0.3,0.5
			C431.2,297.3,431.2,297.2,431.5,297z M323.5,297.7c0.4-0.1,0.3-0.2,0.6-0.3c0-0.4,0-0.7,0.1-0.9c-0.2-0.1-0.3-0.2-0.6-0.2
			c-0.2,0.3-0.5,0.4-0.6,0.8h-0.1C323,297.4,323.3,297.4,323.5,297.7z M386.1,298c0.1-0.5,0-0.8,0-1.4c-0.1,0-0.2-0.1-0.3-0.1
			c-0.1,0.1-0.4,0-0.6,0.1c-0.1,0.1-0.2,0.4-0.3,0.5c0.1,0.6,0.3,0.7,0.6,1C385.7,298.1,385.9,298.1,386.1,298z M379.7,297.6
			c-0.1,0.2-0.1,0.4-0.2,0.6c0.1,0.3,0.3,0.3,0.6,0.5c0.3-0.5,1.2-1.4,1-1.9C380.8,297.1,380.3,297.4,379.7,297.6z M319.5,297.5
			c-0.1,0.5-0.3,0.5-0.5,0.9c0.2,0.2,0.3,0.4,0.3,0.6c0.4-0.1,0.5-0.2,0.7-0.5c0.5,0.1,0.7,0.2,1,0.5c0.3-0.2,0.5-0.4,0.8-0.6
			c0-0.3,0-0.5,0.1-0.7v-0.2C321.3,297.6,320.4,297.5,319.5,297.5z M426,297.9v0.3c0.1,0,0.2-0.1,0.3-0.1
			C426.2,297.9,426.4,298,426,297.9z M378.2,298.7c-0.1-0.1,0,0-0.2-0.1c-0.2,0.4-0.4,0.6-0.3,1.3c0.4,0,0.7,0,0.8,0
			c0.3-0.1,0.3-0.1,0.5-0.2C378.9,299.1,378.6,298.9,378.2,298.7z M318.4,298.7c-0.3,0.4-0.5,0.5-0.5,1.3c0.3,0.1,0.3,0.1,0.6,0
			c0.3-0.1,0.3-0.3,0.6-0.5c-0.1-0.2-0.1-0.4-0.2-0.6c0-0.1-0.1-0.2-0.1-0.2H318.4z M434.4,298.8c-0.1,0.1-0.1,0.1-0.3,0.1
			c0,0-0.1,0.1-0.1,0.1c0.2,0.5,0.3,0.7,0.5,1.2c0.5-0.1,0.6-0.3,0.9-0.6c0-0.5-0.1-0.5-0.2-0.8H434.4z M427.2,300.5h0.3
			c-0.2-0.5-0.5-1-0.6-1.5h-0.3c-0.1,0.1,0,0-0.2,0.1c0,0.2-0.1,0.6-0.2,0.8c0.1,0.2,0,0.1,0.1,0.2
			C426.5,300.3,426.9,300.3,427.2,300.5z M288.4,305.1c-0.5,0.1-0.6-0.4-1.2-0.2c-3.5,0.9-9.9,0.3-13.1-0.5
			c-1.4-0.3-2.7,0.2-4.2-0.4c-1-0.3-2.6-0.9-4-1.2c-0.4-0.1-1.1,0.2-1.6,0c-3.4-1.4-7.4-2.1-11.3-3h-2.4c-0.9-0.2-5.2-0.2-6,0
			c-0.4,0.1-1.5,0.5-2,0.5c-0.1,0-0.6-0.2-0.7-0.2c-1.2,0.1-2.5,0.2-3.7,0.4l-0.6,0.6c-0.3,0.1-1,0.3-1.2,0.3
			c-0.8,0.3-1.5,0.2-2.3,0.5c-0.3,0.1-0.7,0.4-0.9,0.5c-0.5,0-0.9,0.1-1.4,0.1c-0.2,0.1-0.3,0.5-0.5,0.6h-0.5
			c-0.4,0.2-0.9,0.5-1.3,0.7c0,0.8,0.6,1.4,1.2,1.6h0.8c0.2,0.2,0.3,0.4,0.5,0.6c0.6,0.3,3,1.4,3.8,1.3c0.9-0.2,3,0.5,4,0.8
			c1,0.4,2,0.1,3,0.5c0.9,0.3,2.1,0.9,3,1.2c0.6,0.2,1.4-0.2,1.9-0.1c0.1,0,0.5,0.3,0.6,0.3c0.3,0,0.6-0.1,0.9-0.1
			c1.2,0.1,2.5,0.2,3.7,0.2c1.1,0.3,4.7,0.4,5.6,0h2.4c-1.5,3.2-4.2,4.5-6.9,6.5l-0.2,0.5c-1.1,0.9-2.3,1.6-3.5,2.4l-0.7,0.7
			c-0.5,0.3-1,0.2-1.5,0.5c-0.4,0.2-1,0.6-1.5,0.8c-0.3,0-0.7,0.1-1,0.1c-0.6,0.3-1.4,0.8-2,1H243l-0.2,0.5c-0.5,0-0.9,0.1-1.4,0.1
			c-0.1,0.1-0.4,0.4-0.6,0.5c-0.7,0.2-1.3,0.3-2,0.5c-0.6,0.2-1.3,0.7-2,0.9c-1.6,0.5-3.2,0.2-4.8,0.7c-0.5,0.2-1.2,0.5-1.7,0.7
			c-0.5,0-1.1,0.1-1.6,0.1c-0.4,0.1-0.9,0.6-1.3,0.7c-0.7,0.2-1.1-0.2-2,0c-0.6,0.1-1.4,0.5-2,0.6c-0.5,0.1-1.1-0.2-1.6,0
			c-0.2,0.1-0.5,0.4-0.6,0.5c-0.2,0-0.4-0.1-0.6-0.1c-0.5,0-1.4,0.1-2.1,0.2c-2.3,0.5-5.2,0.6-7.8,1.2h-2.7c-2.2,0.5-4.1,1-5.9,1.6
			c-0.6,0.1-1.2,0.2-1.7,0.2c-1.4,0.5-3,0.8-4.3,1.5c-0.4,0.2-0.7,0.7-1.2,0.9c0,0.6,0.2,0.8,0.8,0.9c0.4,0.2,2.2-0.4,3.1-0.1
			c1.3,0.3,2.8,0.2,4.3,0.3c0.6,0.1,1.2-0.2,2,0c7.5,1.9,16.3,0.9,23.6-0.6c0.3,0.1,0.7,0.2,1,0.2c1.2-0.2,3-0.5,4.3-0.8
			c1.2-0.3,2.4-0.1,3.5-0.5c1.5-0.5,3.2-1.2,4.5-1.7c0.3,0.1,1.3,0,1.6-0.2c0.4-0.3,2.1-1.1,2.3-1.2c0.6-0.1,3.4-1.1,3.8-1.4
			l0.2-0.5c0.4-0.2,0.6,0.2,1-0.1c1.7-1,3.4-2.2,5.2-3c1.1-0.5,3.3-0.1,3.7,0.6c0,0,0.1,0.1,0.1,0.1h-0.1c-0.2,0.5-0.7,0.7-0.8,1
			c0,0.2,0.1,0.3,0.1,0.5c-0.2,0.1-0.4,0.2-0.6,0.4c-0.4,0.5-0.6,1-0.9,1.5c-0.2,0.2-0.5,0.3-0.7,0.5c-0.1,0.2-0.1,0.4-0.2,0.6
			c-0.7,1-1.8,1.9-2.6,2.9c-0.2,0.2-0.2,0.5-0.4,0.7c-0.8,0.8-1.7,1.7-2.4,2.6c-0.4,0.5-0.5,1-0.9,1.4c-0.4,0.4-0.9,0.6-1.2,1
			c-4,5.4-7.6,11.3-11.3,17c-0.4,0.6-0.4,1.4-0.8,2.1c-1,1.7-2.2,3.5-3.1,5.3c-0.5,1-1.3,3.5-2.2,3.8c0.1,0.2,0,0.1,0.1,0.2
			c0,0.4,0,0.6,0.1,0.8c1.8,0.3,2.1-1.9,3.3-2.6c0.3-0.2,0.7-0.1,0.9-0.3c0.4-0.3,0.5-1,0.9-1.3c0.9-0.7,1.8-1.2,2.7-1.9
			c0.2-0.1,0.2-0.6,0.4-0.7h0.5c0.2-0.1,0.7-0.6,0.9-0.8c1.1-1.1,2.7-3.5,4-4.2v-0.3h0.3c0.2-0.5,0.4-0.6,0.9-0.8v-0.5
			c1.1-0.2,1-1.2,1.7-1.6c0.6-0.4,1.2-0.4,1.7-0.8c0.2-0.1,0.2-0.5,0.4-0.7c0.5-0.5,1.1-1.1,1.6-1.5c0.2,0,0.3-0.1,0.5-0.1
			c0.2-0.3,0.2-0.7,0.5-0.9c0.4-0.4,1.3-0.8,1.6-1.3v-0.6c0-0.1,1.2-2.2,1.3-2.2c0.6-0.6,1.6-1.2,2.1-2c0.7-1.2,1.1-2.3,1.7-3.4
			c0.3-0.5,1-1,1.4-1.5c0.4-0.5,0.4-1.2,0.8-1.7c0.3-0.2,0.5-0.5,0.8-0.7c0.8-1,1.4-2.1,2.1-3.1c0.2-0.2,0.5-0.4,0.7-0.6
			c1.5-2.1,3-4,4.7-5.9c0.5-0.6,1.4-1,1.9-1.6c0.2-0.2,0.1-0.5,0.3-0.7c0.2-0.2,0.5-0.2,0.7-0.5c0.2-0.3,0.2-0.8,0.5-1
			c0.4-0.4,1-0.6,1.4-1c0.2-0.2,0.2-0.6,0.5-0.8c0.2-0.1,0.3-0.1,0.5-0.2c0.3-0.4,0.5-1,0.8-1.3c0.5-0.4,1.1-0.5,1.6-0.8
			c0.3-0.2,0.6-0.8,0.9-1c0.5-0.3,1.1-0.2,1.5-0.6c0.2,0,0.2,0,0.3,0.1c0.1,0.1,0.5,0.7,0.5,0.7c0.2,0.3-0.2,1.2-0.3,1.6
			c-0.6,2-0.6,3.5-1.2,5.2v2.4c-0.1,0.3-0.3,0.9-0.4,1.2c0,1.6-0.1,3.2-0.1,4.8c0.1,0.4,0.3,1.1,0.2,1.6c-0.2,1.2,0.5,2.6,0.2,4
			c-0.5,2.4,1.1,7.2,2,9.1h0.6c0.3-1.8,0-4.3,0.4-5.6c0.2-0.7-0.3-1.6-0.2-2c0.6-4.1,0.9-8.8,0.9-12.3c0-1.2,0.1-3,0.3-4.1
			c0.1-0.4,0-1.9,0-2c0.1,0,0.2-0.1,0.3-0.1c0.1-0.1,0.3-1,0.4-1c0-0.3-0.1-0.5-0.1-0.8c0.2-0.6,0.6-1,0.8-1.9
			c0.1-0.8,0.2-1.5,0.2-2.3c0.8-2.5,1.8-8,3.3-9.7c-0.1-0.4-0.1-0.4-0.2-0.7C288.7,304.8,288.6,305,288.4,305.1z M282.4,341.6h-0.1
			v-0.2h0.1V341.6z M416.5,300.8c-0.1,0.3,0,0.3-0.3,0.5c0.1,0.4,0.4,0.7,0.6,1c0.8-0.1,0.4-0.5,1-0.7c-0.1-0.2-0.3-0.4-0.5-0.6
			C417.1,300.9,416.7,300.9,416.5,300.8z M310.9,302.1c0-0.4,0-0.8-0.1-1c-0.2,0-0.4-0.1-0.6-0.1c-0.1,0.2-0.2,0.5-0.3,0.7
			c0.2,0.2,0.3,0.4,0.5,0.6C310.6,302.2,310.7,302.2,310.9,302.1z M299.2,301.3v0.4c0.1,0,0.2-0.1,0.3-0.1
			C299.3,301.2,299.5,301.4,299.2,301.3z M421.8,302.7h0.9c0.1-0.5,0.1-0.6-0.1-0.9c-0.1-0.3-0.1-0.3-0.2-0.5
			c-0.8,0.2-0.5,0.7-1,0.9C421.5,302.5,421.7,302.5,421.8,302.7z M428.7,301.5c-0.1,0.3-0.2,0.7-0.3,1c0.2,0.2,0.2,0.2,0.2,0.6
			c0.3-0.1,0.6-0.3,0.8-0.5c0.1-0.1,0.2-0.3,0.2-0.4C429.5,301.7,429.3,301.7,428.7,301.5z M312.8,302.2c0,0.1-0.1,0.4-0.1,0.7
			c0.1,0.1,0.2,0.2,0.2,0.4c0.5-0.1,0.5-0.2,0.8-0.4c0-0.3,0-0.3,0.1-0.5c-0.1-0.3-0.2-0.4-0.6-0.5
			C313.1,302.1,312.9,302.1,312.8,302.2z M420.9,303.6c0-0.3,0-0.5,0.1-0.7v-0.1c-0.2,0-0.4-0.1-0.6-0.1c-0.1,0.1-0.3,0.1-0.6,0.1
			c0.2,0.4,0.3,0.6,0.6,0.9C420.7,303.7,420.7,303.7,420.9,303.6z M437.5,302.7h-0.7c-0.1,0.2-0.2,0.3-0.3,0.5c0,0.5,0.2,0.7,0.3,1
			c0.6,0,0.6-0.1,0.9-0.3c0-0.3,0-0.6-0.1-0.8C437.6,302.9,437.6,302.8,437.5,302.7z M422.5,304.2V303c-0.4,0-0.7,0.1-0.9,0h-0.1
			c0,0.5-0.1,0.8,0.2,1.2v0.2c0.2-0.1,0.4-0.1,0.6-0.2H422.5z M413.9,303.3h-0.5c-0.2,0.3-0.4,0.9-0.7,1.2v0.2c0.5,0,0.8,0.2,1,0
			c0.1,0,0.2-0.1,0.3-0.1c0-0.4-0.1-0.8-0.1-1.2L413.9,303.3z M427.5,303.6c-0.1,0.2,0,0.1-0.1,0.2c0,0.5,0,0.6,0.2,0.8l0.1,0.1
			c0.2-0.2,0.4-0.3,0.6-0.5c0.1-0.1,0.2-0.3,0.2-0.5c-0.3-0.1-0.4-0.3-0.7-0.5C427.8,303.5,427.7,303.5,427.5,303.6z M308.9,304.1
			c0.2,0.4,0.3,0.2,0.4,0.7c0.2,0,0.2,0,0.3-0.1l0.3-0.3c0-0.3-0.1-0.4-0.1-0.6C309.3,303.8,309.3,303.9,308.9,304.1z M417.4,304.4
			c-0.2-0.1-0.3-0.2-0.5-0.4h-0.2c-0.1,0.2-0.4,0.6-0.6,0.7l0.6,0.6h0.8C417.4,304.8,417.4,304.9,417.4,304.4z M365.2,304.9
			c-0.5,0.2-0.5,0.4-0.8,0.7v0.3c-0.4-0.1-0.2-0.1-0.5-0.2c-0.2-0.1-0.4,0.1-0.7,0.2c0,0.6,0.1,0.7,0.3,0.9v0.1
			c0.5-0.2,0.5-0.4,0.7-0.8c0.6,0,1,0.1,1.4,0.1c0.1-0.2,0.2-0.4,0.3-0.6C365.7,305.4,365.4,305.3,365.2,304.9z M389.7,306.5
			c0.5-0.1,0.9-0.7,0.6-1.2c0-0.1-0.1-0.2-0.1-0.3c-0.4,0-0.7,0-0.9,0.1c-0.1,0.5,0,0.7,0,1.3C389.5,306.4,389.6,306.4,389.7,306.5z
			 M412,306.9h0.5c0.1-0.5,0.1-0.8,0-1.3c-0.4,0-0.4-0.1-0.7,0c-0.1,0-0.2,0.1-0.3,0.1c0,0.3,0.1,0.6,0.1,0.9
			C411.7,306.7,411.8,306.7,412,306.9z M307.1,305.9c0,0.1,0.2,0.8,0.2,0.9c0.1,0.3,0.2,0.3,0.3,0.5c0.4-0.3-0.1-0.3,0.5-0.6
			c0-0.6-0.1-0.7-0.2-1h-0.5C307.3,305.8,307.2,305.9,307.1,305.9z M381.8,305.8c-0.2,0.3-0.2,0.2-0.5,0.4l-0.1,0.1
			c0.2,0.3,0.4,0.6,0.6,0.9h0.5c0.1-0.3,0.1-0.3,0.2-0.5c0-0.4,0-0.6-0.1-0.8C382.2,305.9,382,305.9,381.8,305.8z M407.6,307.2h0.9
			c0,0.4,0,0.7,0.2,0.9c0,0.1,0.1,0.2,0.1,0.2c0.2,0,0.4-0.1,0.6-0.1c0.1-0.3,0.3-0.6,0.5-0.9c-0.3-0.1-0.8-0.3-0.9-0.6
			c-0.1,0.1-0.2,0.1-0.3,0.2c-0.2-0.3-0.1-0.6-0.1-1l-0.1-0.1c-0.3,0-0.6,0.1-0.9,0.1l-0.1,0.1c0,0.2,0.1,0.7,0.2,0.9L407.6,307.2
			L407.6,307.2z M420.4,308.3c0.3,0,0.5,0,0.7,0.1c0.3,0,0.3-0.1,0.5-0.1c0.2-0.4,0.2-0.7,0.2-1.3c-0.5,0-0.5-0.1-0.8-0.2
			c-0.1,0.3-0.2,0.4-0.5,0.6c0,0.3,0,0.6-0.1,0.8V308.3z M416.3,307.6c-0.2-0.2-0.1-0.4-0.6-0.6c-0.3,0.5-0.3,1-1.2,1.2
			c0.1,0.2,0,0.1,0.1,0.2v0.9c0.3-0.1,0.1-0.1,0.4,0c0.8-0.2,0.9-1.2,2-1.5C416.6,307.2,416.6,307.8,416.3,307.6z M407.8,309.2
			c0.5-0.3,0.5-1,0.5-1.6c-0.2,0-0.4-0.1-0.6-0.1c-0.2,0.4-0.5,0.6-0.1,0.9C407.6,308.9,407.6,308.9,407.8,309.2z M360.3,307.6
			c-0.6,0-0.7,0.1-1,0.4l0.3,1c-0.1,0.2-0.2,0.1-0.2,0.5c1.1-0.1,0.8-0.9,1.4-1.4C360.7,307.8,360.5,307.8,360.3,307.6z
			 M424.4,308.4c-0.1,0.3-0.2,0.5-0.5,0.7v0.2c0.2,0.2,0.3,0.4,0.5,0.6c0.4-0.1,0.6-0.2,0.8-0.5c0.1-0.1,0.2-0.3,0.2-0.3
			c0-0.4-0.1-0.4-0.2-0.7L424.4,308.4L424.4,308.4z M419.6,308.5c-0.1,0.1-0.2,0.2-0.2,0.2c0,0.1,0,0.5-0.1,0.7
			c0.1,0.3,0.3,0.3,0.5,0.5c0.3-0.1,0.4-0.1,0.6-0.2c1,0,0.8-0.3,1.4-0.6l-0.1-0.1C421.4,308.4,420.4,308.5,419.6,308.5z
			 M431.8,309.8c0.1-0.3,0.1-0.3,0.3-0.5c-0.2-0.3-0.5-0.3-0.7-0.6c-0.6,0-0.6,0.2-1,0.4c0,0.4,0.1,0.5-0.1,0.8
			c0.1,0.2,0,0.1,0.1,0.2c0.1,0.1,0.2,0,0.6,0c0,0.3,0,0.3-0.1,0.5c0,0.3,0.1,0.4,0.1,0.6c0.2,0.1,0.1,0,0.2,0.1
			c0.7,0,0.8-0.2,0.9-0.7C432.3,310.4,432.1,310,431.8,309.8z M405,311.2c0.1-0.2,0.1-0.2,0.1-0.5h0.1c0.1,0.2,0.2,0.3,0.2,0.5
			c0.3,0,0.7-0.1,1-0.1c0.1-0.3,0.3-0.4,0.4-0.7c-0.3-0.2-0.4-0.5-0.8-0.6h-0.7c-0.2-0.1-0.2-0.4-0.6-0.5c-0.1,0.3-0.3,0.4-0.6,0.6
			c0.2,0.5,0.5,0.6,0.6,1.3H405z M411.7,310.6c-0.1-0.1-0.4,0.2-0.7,0.2v-0.1c0-0.1-0.1-0.9-0.1-1.2c-0.3,0-0.4,0-0.6,0.1
			c-0.4,0.2-0.4,0.9-0.6,1.3c-0.6,0.2-1,0.3-1.4,0.6c0.2,0.6,0.6,0.6,0.7,1.2h-0.3c-0.1,0.8-0.5,0.5-0.9,0.9
			c-0.4-0.1-0.4-0.1-0.6-0.3c-0.5,0-0.6,0.1-0.9,0.2c0.1,0.5,0.2,0.6,0.3,0.9c0.6,0.2,1.8,0.9,2.3,0.3h0.1c-0.2-0.5-0.5-0.8-0.9-1
			c0.2-0.4,0.8-0.4,1.3-0.5c0.2-1.1,0.1-1.1,0.6-2c0.3,0,0.3,0,0.5-0.1c0.6,0.1,0.6,0.4,0.8,0.9h0.5c0.1-0.4,0.2-0.5,0.5-0.7
			C412.1,310.9,412.1,310.8,411.7,310.6z M412.2,310.8c0.2,0.1,0.1,0,0.2,0.1c0.5-0.1,0.6-0.3,0.8-0.7c0.1-0.1-0.1-0.2-0.1-0.6
			c-0.2,0-0.4-0.1-0.6-0.1c-0.1,0.1-0.3,0.2-0.5,0.3C412.1,310.3,412.1,310.2,412.2,310.8z M439.4,309.5c-0.1,0.1-0.1,0.1-0.4,0.1
			c-0.1,0.2-0.1,0.6-0.2,0.7c0,0.5,0.1,0.5,0.2,0.8c0.2,0,0.2,0,0.4-0.1c0.3-0.2,0.4-1,0.3-1C439.6,309.6,439.7,309.7,439.4,309.5z
			 M413.5,309.8c-0.1,0.2,0,0.1-0.1,0.2v0.1c0.2,0,0.5-0.1,0.7-0.1c0.1-0.2,0-0.1,0.1-0.2c-0.1-0.1-0.1-0.1-0.3-0.1
			C413.7,309.7,413.7,309.7,413.5,309.8z M422.8,309.8c-0.5,0-0.6,0.1-0.8,0.3l-0.1,0.1h0.1c0,0.7,0.1,0.7,0.5,1
			c0.6-0.1,0.5-0.4,0.8-0.7c0-0.2-0.1-0.5-0.1-0.7C422.9,309.8,422.9,309.9,422.8,309.8z M372,310.1l-0.1-0.1v0.1
			c-0.4,0-0.4,0.1-0.7,0.2c0,0.3,0.1,0.5,0.1,0.8c0.4,0.1,0.5,0.2,0.8,0.4c0-0.1,0.1-0.2,0.1-0.2c0.2-0.2-0.2-0.3,0.2-0.6
			C372.3,310.3,372.3,310.3,372,310.1z M427.2,310h-0.8c-0.1,0.3-0.3,0.5-0.1,0.8v0.6c0.5-0.1,0.8-0.4,1-0.7c0.1-0.1,0-0.3-0.1-0.5
			L427.2,310L427.2,310z M401,312.7c0.6,0,0.7,0,0.9-0.4c0.2-0.4-0.4-1-0.5-1.5h-0.2c-0.2,0.4-0.8,0.5-0.5,1
			C400.8,312.4,400.9,312.4,401,312.7z M361.8,311.6h-0.1c0.3,0.3,0.6,0.4,0.7,0.9c0.7-0.2,0.6-0.9,1-1.4v-0.1h-0.9
			C362.3,311.3,362,311.4,361.8,311.6z M412.7,311.9c-0.1,0.2-0.2,0.2-0.5,0.3c0,0.4,0.1,0.4,0,0.6c0.1,0.4,0.1,0.3,0.2,0.6h0.7
			c0.1-0.2,0.2-0.5,0.2-0.7C413.1,312.4,413.1,312.1,412.7,311.9z M417.1,314.3c0.7-0.1,0.8-0.5,1.3-0.8c-0.1-0.5-0.3-0.7-0.1-1
			v-0.3c-0.3-0.1-0.4-0.2-0.8-0.2c-0.1,0.2-0.2,0.4-0.3,0.6c-0.4-0.1-0.7-0.2-0.9-0.5c-0.3,0-0.4,0.1-0.6,0.1c0,0.4,0,0.7-0.1,0.9
			c0.3,0.1,0.6,0.2,1,0.2c-0.1,0.4-0.1,0.4,0.1,0.7v0.1c-0.5-0.1-1.1-0.2-1.6-0.3c-0.1-0.3-0.1-0.5,0-0.8c-0.4-0.1-0.5-0.3-0.8-0.1
			h-0.5c0.1,0.4,0.2,0.6,0.2,1.2l0.1,0.1c0.4,0,0.7-0.1,1-0.1C415.8,314.1,416.5,314.7,417.1,314.3z M418.8,312.2
			c0,0.3,0,0.4-0.1,0.6c0.1,0.3,0.2,0.4,0.4,0.6c0.1,0.1,0.2,0,0.6,0c0-0.1,0.1-0.2,0.1-0.3c0.1-0.1,0.1-0.8,0.1-1.2
			c-0.2,0-0.2,0-0.3,0.1C419.1,312,419.1,312.1,418.8,312.2z M404.5,312.6v-0.2c-0.3-0.1-0.4-0.3-0.7-0.3c-0.1,0.1-0.4,0.2-0.6,0.2
			c0,0.3,0,0.6,0.1,0.8v0.1C403.9,313,403.8,312.6,404.5,312.6z M405.7,312c-0.3,0-0.5,0.1-0.8,0.1c0,0.4-0.1,0.4-0.2,0.7
			c0.2,0.2,0.3,0.5,0.5,0.7c0.2,0,0.2,0,0.3-0.1c0.4-0.2,0.3-0.3,0.6-0.6C406,312.3,405.9,312.3,405.7,312z M354.2,312.1
			c-0.2,0.1-0.6,0.2-0.8,0.2c0,0.3-0.1,0.2,0,0.4c0,0.5,0.1,0.6,0.2,0.9c0.8,0,0.8-0.2,1.2-0.6C354.8,312.3,354.7,312.2,354.2,312.1
			z M398.7,313c-0.1,0.2-0.2,0.3-0.4,0.5c0.1,0.8,0.5,0.8,0.4,1.4c0.2,0.1,0.5,0.1,0.6,0.2c0.2,0,0.2,0,0.3-0.1
			c0.4-0.5-0.1-1.3-0.3-2L398.7,313L398.7,313z M352,313.1h-0.2c0,0.3-0.1,0.1,0.2,0.2V313.1z M397.7,313.4v-0.2h-0.2
			C397.4,313.5,397.3,313.3,397.7,313.4z M401.3,314.1v-0.2c-0.3,0-0.5-0.1-0.8-0.1c-0.2,0.2-0.1,0.1-0.4,0.2c0,0.3-0.1,0.4-0.1,0.6
			c0.2,0.1,0.3,0.2,0.5,0.4h0.9C401.2,314.4,400.9,314.5,401.3,314.1z M398,314l-0.1-0.1h-0.5c-0.2,0.3-0.4,0.3-0.2,0.6
			c0,0.3,0,0.5,0.1,0.7c0.6-0.1,0.5-0.2,0.9-0.3C398,314.3,398,314.6,398,314z M402.7,314.1h-0.5c-0.1,0.3-0.3,0.5-0.5,0.7
			c0,0.3,0,0.4,0.1,0.6c0.1,0.3,0.1,0.2,0.2,0.3c0.8-0.1,0.8-0.5,1-1C402.9,314.5,402.8,314.4,402.7,314.1z M407,315.2
			c-0.2-0.2-0.1-0.1-0.2-0.3h-0.3l-0.6,0.6c0.1,0.3,0.1,0.4,0.2,0.6c0.2,0.1,0.3,0.2,0.6,0.2c0.1-0.1,0.3-0.2,0.5-0.3
			C406.9,315.5,406.9,315.7,407,315.2z M407.2,315.7h0.5v-0.6c-0.4,0.1-0.3,0.1-0.6,0.2C407.1,315.5,407.1,315.6,407.2,315.7z
			 M398.3,315.5c-0.1,0.2-0.1,0.5-0.1,0.9c0.3,0,0.2,0.1,0.3,0c0.3,0,0.4,0,0.6-0.1c-0.1-0.4-0.1-0.4-0.2-0.7
			C398.7,315.6,398.5,315.5,398.3,315.5z M404.4,315.7c-0.2,0.2-0.3,0.3-0.6,0.5c0.1,0.2,0,0.1,0.1,0.2c0.1,0.4,0.2,0.3,0.3,0.6
			c0.6,0,0.7-0.1,0.8-0.6c0.1-0.3-0.1-0.4-0.2-0.7L404.4,315.7L404.4,315.7z M358.7,317.8c-0.1-0.4-0.2-0.5-0.4-0.8h-0.7
			c-0.1,0.1-0.1,0.2-0.2,0.4c0,0.5,0.2,0.8,0.3,1.2c0.3,0,0.3,0,0.5-0.1C358.5,318.2,358.5,318,358.7,317.8z M347,317.3h-0.4
			c-0.2,0.3-0.2,0.2-0.6,0.1c0,0-0.1,0.1-0.1,0.1c0,0.6,0,0.6,0,1.2c0.2,0.1,0.5,0.1,0.6,0.2c0.4-0.4,0.5-0.7,1.3-0.7
			C347.6,317.8,347.2,317.7,347,317.3z M339.6,320.9c-0.3,0.5-0.4,0.7-0.1,1.3c0.7-0.1,0.6-0.3,1,0.1c0.2-0.4,0.4-0.8,0.6-0.9
			C341,321.1,340.1,321,339.6,320.9z M348,324.4c-0.4,0.2-0.3,0.3-0.6,0.6c0.1,0.6,0.2,0.5,0.5,0.8c0.9-0.1,1.1-0.7,1.6-1.2v-0.3
			C349,324.3,348.3,324.2,348,324.4z M375.9,325.1c-0.3,0.1-0.3,0.2-0.5,0.4v1.2c0.3,0,0.7,0.1,1,0.1v-0.6h0.3
			c0-0.7-0.2-0.7-0.5-1.2C376.1,325,376,325,375.9,325.1z M358.7,325.4c-0.1,0.1-0.1,0.1-0.4,0.1c0,0-0.1,0.1-0.1,0.1
			c0,0.7,0.1,1.1,0.6,1.3c0.1,0.1,0,0,0.2,0.1c0.1-0.3,0.3-0.4,0.3-0.7c0.1-0.2,0-0.5-0.1-0.8C359.1,325.4,358.9,325.4,358.7,325.4z
			 M338.6,325.5c0,0.4,0.1,0.4-0.1,0.7c0.1,0.5,0.1,0.5,0.6,0.6c0.4,0.2,0.5-0.3,0.7-0.6c-0.1-0.3-0.1-0.3-0.2-0.6
			C339.2,325.6,338.9,325.5,338.6,325.5z M342.5,325.8c0,0.5,0.1,0.4,0.2,0.9c0.6,0,0.6-0.2,0.9-0.3c0-0.2,0.1-0.4,0.1-0.6
			C343.1,325.7,343.2,325.7,342.5,325.8z M333.9,338.1c-0.2-0.5-0.8-0.8-1.4-0.8c-0.5,0.7-0.6,0.6-0.1,1.4c0.5,0,0.8-0.1,1-0.4
			C333.7,338.3,333.7,338.3,333.9,338.1z M351.8,339.8c0,0.3,0,0.6,0.1,0.8c0,0.1,0.1,0.2,0.1,0.3c0.4-0.1,0.4-0.1,0.7-0.2
			c0.1-0.3,0.2-0.6,0.5-0.8c-0.2-0.2-0.4-0.3-0.6-0.4C352.5,339.6,352,339.7,351.8,339.8z M361.6,343.1l0.1,0.1c0.3,0,0.6,0,0.8-0.1
			c0.1-0.2,0.1-1,0.1-1.4c-0.6,0.1-0.8,0.4-1.2,0.7C361.5,342.7,361.6,342.9,361.6,343.1z M219.2,343.1h-1c-0.1,0.1,0,0-0.2,0.1v0.2
			c0.5,0,0.9,0,1-0.1h0.2V343.1z M333.6,348.8h-0.1c0.1,0.4,0.3,0.5,0.5,0.8c0.3-0.1,0.4-0.1,0.6-0.2c0.3-0.4,0.2-0.7,0.2-1.2
			C334.1,348.3,333.8,348.4,333.6,348.8z M225.3,354.4c0.2-0.2,0.6-0.2,0.8-0.4c0.2-0.2,0.4-0.6,0.7-0.8c0.3-0.1,0.6-0.2,0.9-0.4
			c0.4-0.4,0.9-1.1,1.4-1.5c0-0.3,0-0.3-0.1-0.5c-0.4-1.2-1.8-0.7-3.1-1c-1.6-0.4-3.6-0.4-5.7-0.4c-0.8,0.5-2.2,0.2-3.1,0.5
			c-1.4,0.4-3.5,1.1-4.7,1.7c-2.5,1.5-4.7,3.4-7.1,5.1c-1.3,1-2.2,2.6-3.4,3.7c0,0.3,0,0.5,0.1,0.7c7.7,1.6,14.3-1.1,19.3-3.8
			c0.6-0.4,1.3-0.4,1.9-0.8C224,356.1,224.6,355,225.3,354.4z M213.2,359.9c-0.9,0.3-5.5,0.9-6,0.6c-1,0-2.5,0.2-3.4-0.1
			c0.2-1.1,2.3-2.7,3.1-3.3c0.5-0.3,0.8-0.9,1.3-1.2c0.9-0.6,1.7-1.1,2.6-1.7c0.3-0.3,0.6-0.6,0.9-0.9h0.6c1-0.5,2.1-1.2,3.3-1.7
			c1.2-0.5,4-0.4,4.9-0.9c1.3,0.1,5.4-0.2,6.4,0.6c0.1,0,0.2,0.1,0.4,0.1c-0.4,1.1-2.1,2-3,2.7c-0.5,0.5-1,1.1-1.5,1.6
			C219.9,357.4,216.6,358.7,213.2,359.9z M272.4,362c0-0.1-0.3-2-0.2-2.1c0.1-0.5,0.2-1.3,0-2c-0.6-2.3-1.3-4.7-2.3-6.9h-0.5
			c-0.6,0.6-1.4,1.1-2,1.9c-2.1,3-2.9,7.1-3.6,10.9c-0.1,0.4,0,1.4,0.1,1.9c0.2,0.9-0.4,1.7-0.2,2.6c0.3,1.4,0.4,2.8,0.2,4.1
			c-0.2,1.6,0.3,4,0.6,5.2c0,0.8,0.1,1.6,0.1,2.4c0.1,0,0.2,0.1,0.4,0.1v0.6c0.1,0,0.2,0.1,0.2,0.1c0,0.2-0.1,0.5-0.1,0.7
			c0.2,0.1,0.3,0.2,0.5,0.4c0.3,0.6,0.9,2.1,0.6,2.4c0.1,0.4,0.3,0.7,0.6,0.9c0.1,0.1,0.3,0.2,0.3,0.2c1.1-0.2,0.5-0.9,0.9-1.6
			c0.3-0.5,0.9-1.3,1-1.9v-0.8l0.3-0.4c0.1-0.3,0.2-0.7,0.2-1c0.1-0.2,0.5-0.4,0.6-0.6c0.3-0.5,0.1-1.1,0.3-1.7
			c0.3-0.8,1-1.7,1.3-2.4c0.2-0.6,0-1.1,0.1-1.5c0.1-0.7,0.4-1.9,0.7-2.6c0-0.6,0.1-1.2,0.1-1.7c0.3-0.9,0.5-5.2,0-6.6
			C272.7,362.5,272.5,362.1,272.4,362z M269.4,377.3c-0.7,1.6-1,4.1-2.1,5.2v0.1c-0.4-0.2-0.8-1-0.9-1.4v-0.8
			c-0.8-1.5-0.9-2.9-1.3-4.8v-2.2c-0.1-0.7,0.1-2.3,0-2.8c-0.5-2.9-0.4-6,0.2-8.8c0.2-0.7-0.1-1.4,0-1.9c0.1-0.5,0.5-1.1,0.7-1.5
			c0-0.4,0.1-0.8,0.1-1.2h0.2c0.4-0.7,0.4-1.3,0.7-2.1c0.2-0.6,0.8-0.9,0.9-1.6c0.5-0.1,0.9-0.7,1.2-1h0.3c0.1,0.6,0.3,0.8,0.5,1.2
			v1c0.1,0.1,0.2,0.2,0.4,0.2c0,0.3,0.1,0.7,0.1,1c0.3,0.8,0.7,2.1,0.9,3c0.1,0.7-0.4,2.2,0,3.3
			C272.9,367.1,271.2,373.3,269.4,377.3z M217.6,352.9c-1,0.8-3.4,1.1-4.5,1.9c-1.1,0.7-1.9,1.8-3,2.4c0,0.3,0.1,0.4,0.1,0.6
			c0.5,0.1,0.9,0.4,1.2,0.5c1,0.3,1.8-0.5,2.3-0.7c1.1-0.4,2.4-0.1,3.5-0.5c0.6-0.2,1.2-0.7,1.7-1c0.7-0.4,1.6-0.5,2.3-0.9
			c0.3-0.2,0.7-0.6,1-0.8c0-0.3,0-0.3,0.1-0.5c0-0.3-0.1-0.3-0.1-0.5C220.9,353,218.9,352.9,217.6,352.9z M269.1,358.4v-0.2
			c-0.2,0-0.4-0.1-0.6-0.1c-0.5,0.7-0.4,0.2-0.4,1.2c-0.8,1.4-1.3,3-1.7,4.8c-0.3,0.9,0,2,0.1,2.6c0.1,0.4-0.2,0.5-0.2,0.8
			c0,0.1,0.2,0.3,0.2,0.3c0.2,0.8,0.6,4.4,0.5,4.5c0.1,0.5,0.3,0.4,0.6,0.7c0.3,0,0.3-0.1,0.5-0.1c0.8-2.1,1.9-8.2,1.5-10.2
			C269.2,361,269.9,359.5,269.1,358.4z"/>
	</g>
</g>
<ellipse class="st0" cx="468.5" cy="366.9" rx="149.4" ry="11.3"/>
</svg>
