<?xml version="1.0" encoding="utf-8"?>
<!-- Generator: Adobe Illustrator 19.2.1, SVG Export Plug-In . SVG Version: 6.00 Build 0)  -->
<svg version="1.1" id="Calque_1" xmlns="http://www.w3.org/2000/svg" xmlns:xlink="http://www.w3.org/1999/xlink" x="0px" y="0px"
	 viewBox="0 0 841.891 595.281" enable-background="new 0 0 841.891 595.281" xml:space="preserve">
<polyline fill-rule="evenodd" clip-rule="evenodd" fill="#DADADA" points="368.198,328.062 330.865,317.395 328.865,304.728 
	362.073,320.16 "/>
<g>
	<g>
		<path fill-rule="evenodd" clip-rule="evenodd" fill="#DADADA" d="M422.622,272.882c-9.172,2.823-14.095,12.533-21.565,17.418
			c0-0.276,0-0.553,0-0.829c-3.72-8.2-0.516-21.371-2.074-31.519c-2.839-18.496-5.587-43.71-18.662-53.499
			c-7.938-5.943-22.293-8.346-33.178-10.783c-3.317-0.415-6.636-0.829-9.953-1.244c-5.164-0.152-12.305-0.741-16.174,0.829
			c-6.597,2.678-17.199,18.341-10.783,27.786c4.483,1.227,7.915,4.116,12.856,3.318c1.571-3.17,3.15-7.841,6.221-9.539
			c6.133-3.39,30.486,0.728,34.836,3.732c7.85,5.422,8.708,38.464,8.709,51.84c0,6.221,1.212,16.522-1.659,20.321
			c0-0.276,0-0.553,0-0.829c-7.722-6.864-23.691-27.598-32.348-5.806c-6.555,16.499,14.702,28.11,28.616,26.957
			c-0.138,1.52-0.276,3.041-0.415,4.562c-2,1.025-4.182,2.271-4.977,4.562c-4.789,16.725,45.904,12.946,53.914,7.465
			c0.941-3.036,0.842-6.05-0.415-8.709c12.063-3.881,23.363-6.817,32.763-13.271C452.266,290.668,437.479,268.309,422.622,272.882z
			 M369.953,219.383c0.553,0.415,1.106,0.829,1.659,1.244c0.289,2.121,0.876,3.779,2.074,4.977c0-0.968,0-1.936,0-2.903
			c-5.773-13.999-46.864-18.918-52.669-1.659c-3.472-0.661-6.184-2.497-8.709-4.147c0.633-14.608,6.072-21.672,22.395-21.151
			c15.027,6.046,32.874,3.18,44.375,12.027c15.083,11.602,13.06,41.716,17.004,62.208c0,5.529,0,11.06,0,16.589
			c1.117,6.282,6.707,10.546,7.05,14.1c0.276,2.854-2.148,2.859-2.488,6.221c1.797,2.488,3.594,4.977,5.391,7.465
			c-0.276,0.415-0.553,0.829-0.829,1.244c-5.944,1.629-30.903,3.349-34.007-1.659c-1.117-3.811,3.255-4.704,2.074-8.709
			c-0.967-1.106-1.936-2.212-2.903-3.318C380.204,279.904,375.7,242.898,369.953,219.383z M364.976,308.133
			c-4.681,1.993-20.317-8.417-21.98-11.197c-4.819-8.055,0.15-19.123,8.294-19.907c5.078,4.876,18.161,9.951,17.418,18.662
			c-4.025,1.427-7.664,5.17-6.636,10.368c0.138,0,0.276,0,0.415,0c0.276-0.138,0.553-0.276,0.829-0.415
			c-0.094-5.072,2.527-7.941,6.635-8.709c0,0.415,0,0.829,0,1.244C368.977,300.925,367.209,306.558,364.976,308.133z
			 M412.669,324.722c-18.634,3.411-31.51-0.377-46.863-2.903c0.766-2.751,3.344-3.996,5.391-5.391
			c12.032,2.911,25.585,1.156,37.325,0c2.195,2.344,4.211,3.541,4.977,7.465C413.222,324.169,412.945,324.445,412.669,324.722z
			 M435.064,308.133c-5.965,2.289-11.201,6.503-18.662,7.05c-5.557-2.671-18.003-14.298-11.612-24.883
			c2.764-2.073,5.53-4.147,8.294-6.221c2.697-2.09,3.979-5.215,7.465-6.636c-3.891,12.004,4.309,27.505,15.345,29.445
			C435.617,307.303,435.34,307.718,435.064,308.133z M442.529,304.815c-14.611,4.716-29.126-22.452-19.077-28.201
			c1.106-0.276,2.212-0.553,3.318-0.829C434.823,279.465,450.711,292.778,442.529,304.815z M362.488,291.959
			c-1.382-1.52-2.765-3.041-4.147-4.562c-2.212-1.659-4.424-3.318-6.635-4.977c-0.415,0-0.829,0-1.244,0
			C351.491,285.758,358.928,291.257,362.488,291.959z M432.99,285.323c-1.106,0.138-2.212,0.276-3.318,0.415
			c-0.138,1.106-0.276,2.212-0.415,3.318c0.385,3.105,1.576,3.779,3.318,5.391c1.382-0.138,2.765-0.276,4.147-0.415
			c0.138-0.829,0.276-1.659,0.415-2.488C436.032,288.599,435.005,287.228,432.99,285.323z M435.064,292.788
			c-0.138,0-0.276,0-0.415,0c-0.553-0.138-1.106-0.276-1.659-0.415c-0.829-0.829-1.659-1.659-2.488-2.488
			c0.138-0.691,0.276-1.382,0.415-2.074c0.829,0,1.659,0,2.488,0c0.829,1.244,1.659,2.489,2.488,3.732
			C435.617,291.959,435.34,292.373,435.064,292.788z M415.572,287.811c-2.834,0.426-9.869,4.01-9.124,6.636
			C409.39,293.022,414.418,291.051,415.572,287.811z M350.875,292.788c-0.415,0-0.829,0-1.244,0
			c0.138,0.553,0.276,1.106,0.415,1.659c2.212,1.244,4.424,2.488,6.635,3.732c-0.553-0.968-1.106-1.936-1.659-2.903
			C353.64,294.447,352.258,293.618,350.875,292.788z M412.254,301.083c0,0.415,0,0.829,0,1.244c0.276,0.138,0.553,0.276,0.829,0.415
			c1.935-1.382,3.871-2.765,5.806-4.147c-0.138-0.276-0.276-0.553-0.415-0.829C416.401,298.871,414.327,299.977,412.254,301.083z
			 M419.304,310.206c0.138,0,0.276,0,0.415,0c2.285-1.028,3.655-1.662,4.562-4.147C422.004,306.818,420.029,307.764,419.304,310.206
			z"/>
	</g>
</g>
<path fill-rule="evenodd" clip-rule="evenodd" fill="#1D1D1B" d="M316.58,231.111c0,0,11.748,12.923,4.699,29.37
	c-7.049,16.447-1.175,34.657,2.35,50.517c3.524,15.86,7.049,27.608,0,46.405c-7.049,18.797-15.86-36.419-12.923-58.153
	c2.937-21.734,7.049-34.657,4.112-45.23C311.881,243.446,316.58,231.111,316.58,231.111z"/>
<path fill-rule="evenodd" clip-rule="evenodd" fill="#1D1D1B" d="M313.056,226.411c0,0-5.287,16.447-2.937,29.37
	c2.35,12.923,2.35,20.559-0.587,27.608C298.958,266.942,310.119,237.572,313.056,226.411z"/>
<path fill-rule="evenodd" clip-rule="evenodd" fill="#FFFFFF" d="M316.58,307.473c0,0,0,33.482,3.524,41.706
	C322.454,334.494,323.629,324.508,316.58,307.473z"/>
<path fill-rule="evenodd" clip-rule="evenodd" fill="#DADADA" d="M412.669,324.722c0,0,115.529,22.007,115.529,25.34
	c0,3.333-78,58-78,58l63.333-55.333l-108.667-22.667"/>
<path fill-rule="evenodd" clip-rule="evenodd" fill="#1D1D1B" d="M304.865,312.728c0,0,2.667,38,11.333,58
	c8.667,20-4.667,36-4.667,36s4-27.333-8-49.333S304.865,312.728,304.865,312.728z"/>
</svg>
