<?xml version="1.0" encoding="utf-8"?>
<!-- Generator: Adobe Illustrator 21.0.0, SVG Export Plug-In . SVG Version: 6.00 Build 0)  -->
<svg version="1.1" id="Calque_1" xmlns="http://www.w3.org/2000/svg" xmlns:xlink="http://www.w3.org/1999/xlink" x="0px" y="0px"
	 viewBox="0 0 841.9 595.3" style="enable-background:new 0 0 841.9 595.3;" xml:space="preserve">
<style type="text/css">
	.st0{fill:none;stroke:#DADADA;stroke-width:10;stroke-miterlimit:10;}
	.st1{fill:#1D1D1B;}
</style>
<path class="st0" d="M552.3,239.6c0,0,3.3,25.2,2,50.9"/>
<g>
	<g>
		<path class="st1" d="M586.9,309.3c-1.6-4.3-4.8-6.8-10-6.2c0,0,0,0,0-0.1c1-1.2,5.2-4,4.3-6.2c-1-3.2-8.4-1.9-10.7-1.4
			c-0.4,0-0.7,0.1-1.2,0.1c0,0,0,0,0-0.1c1.4-2.5,4.6-3.6,4.6-7.5c-5.9-5.8-13.4,1.7-17.4,4.8c0-0.7,0.1-1.6,0.1-2.5
			c-0.4-2.7-3.6-6.9-6.2-7.2c-4.9,2-3.7,7.4-2,11.8c-1.9-0.3-3.9-0.6-5.8-0.9c-0.7-0.6,0-2.6,0-3.6c-0.1-4.2,0.6-9.1-0.1-14.4
			c0-1.4,0-3,0.1-4.5c-1-10.5,1.3-20.6-1.7-30.3c-1-3.2-0.6-6.8-2.3-9.1c0,0,0,0,0-0.1c3-0.6,10.1,0.1,11.2-0.7
			c0.1-0.6,0.3-1.3,0.1-1.9c-0.6-1.3-3.7-1.7-4.9-2.3c-5.5-2.6-11.7-4.3-17.6-6.8c-7.1-2.9-14.6-5.3-22.1-7.9
			c-18.7-6.6-37.6-13.3-57.5-18.6c-7.6-2-15.4-3.7-23.1-5.9c-3.5-1-7.2-1.7-9.7,0.1c0,0-2.2-0.4-2.9-0.1c-2.3,0.6-4.8,1.2-7.1,1.7
			c-1.9,0.3-3.7,0.4-5.6,0.7c-8.8,2.3-18.6,2.5-27.7,4.5c-2.2,0.3-4.5,0.6-6.6,0.7c-3.2,0.9-6.2,1-9.4,1.9c-1.6,0.1-3.3,0.3-4.9,0.4
			c-2.5,0.6-4.9,1-7.5,1.6c-1.9-2-4-2.7-6.5-4.2c-0.7-0.4-1.2-1-2-1.2c-2.9,1.4-6.9,2.5-9.8,3.6c-0.6,1-0.3,5.3-1,5.9
			c-1.3,0.3-2.7,0.6-4,0.9c-4.8,1.4-10.1,1.7-14.6,3.2c-2.7,0.9-6.5,1.7-9.4,2.7c-2,0.7-4,0.6-5.8,1.2c-6.8,2.5-13.7,4.5-20.8,6.5
			c-6.9,2-15.4,5.2-21.8,6.3c0,0.3,0,0.7-0.1,1c1.6,1.3,4,1.9,5.6,2.9c1.9,1.2,3.9,2.3,5.8,3.5c-0.1,2,0.3,3.2,0,5.5
			c-1,10.1-1.7,20.2-3,30.9c0,1.9-0.1,3.9-0.1,5.8c-0.6,4.2-0.6,7.6-0.9,11.5c-0.1,2-1.2,6.6-0.7,8.9c0,6.1,0,12.1,0,18.2
			c0,1.7,0,3.3,0,5c0.4,4.2,0.7,8.4,0.7,13c-0.6-1.6-1-3-1.6-4.6c-1.2-3.2-2.7-6.6-4.8-9.1c-0.3,0-0.6,0-0.7,0.1
			c-0.1,0.3-0.3,0.3-0.3,0.9c3.2,4.6,4.6,9.8,5.9,16.6c0.4,2.5,0.1,7.2,2.6,7.4c0.3-0.6-1-4.9-1.2-6.3c0,0,0,0,0.1,0
			c1.3,2.6,1.7,5.8,3,8.2c0.4,0,0.9,0,1.2,0.1c0.9-1.3,0.7-3.9,1.4-4.9c0.6,0.9,0.3,3,0.6,4.2c0.3,0.7,0.6,1.4,0.9,2
			c0.4,0.3,0.6,0.4,1.4,0.4c0.4-0.3,1-0.7,1.4-1c0.9,0.6,1.3,1.3,2.5,1.6c0,0,0.1,0,0.1-0.1c0.1-1-1.3-3.5-2-4c-0.3,0-0.6,0-0.7,0
			c-0.7,0.3-1,1-1.4,1.7c-0.1,0-0.1,0-0.3,0c-1.3-2.3-1.3-6.5-1.7-9.7c-0.3-0.1-0.4-0.1-0.7-0.3s-0.4,0-0.7,0.1
			c-0.7,1.9-1,4.3-1.3,6.6c0,0-0.1,0-0.1,0.1c-1.2-1.9-1.9-5-1.9-7.1c0-1,0-1.9,0.1-2.9c-1.4-6.6-0.3-14.3-1-21.1
			c-0.3-3.7-0.4-10.5,0.1-15.1c0-2,0-4,0-6.2c0.4-4,0.7-7.9,1.2-12c-0.3-7.5,1.2-14.7,1.9-21.5c0.7-6.3,0.7-15,2-22.1l0.1-0.1
			c3.7,2,7.1,4.5,10.4,6.8c1.9,1.3,4.9,3.2,6.8,4c0.4,0.1,1,0.3,1.4,0.4c1.9,1.7,4.6,3.3,6.8,4.6c4.8,2.9,9.8,5,14.1,8.1
			c2,1.4,4.6,1.9,6.8,3.2c3.7,2.3,7.8,4.8,11.7,7.1c2.2,1.3,4.2,1.7,5.8,3.5c-0.1,0.3-0.3,0.7-0.4,1c0,0.1,0.1,0.1,0.1,0.3
			c2.2,0.3,4.9-0.7,6.8-1.3c-0.9,1.3-1.4,12.1-1.2,15.7c0.9,11,0.6,26.7,0.6,38.2c0,0,0,0-0.1,0.1c-1.2-0.3-2.7-1.6-4-0.7
			c-2,1-2.3,6.1-2.5,8.7c0,0-0.1,0-0.1,0.1c-0.9-1.7-2.9-2.6-4-4c-0.7,0-1.3,0-2,0.1c-0.6,0.3-0.7,0.6-0.7,1.2
			c-0.9,0.6-2.7,0.4-4,0.1c-0.4-2.5,0.1-5.3-0.1-7.6c-0.1-1.4,0.4-3.5-0.4-4.3c-0.4-0.3-2.6-0.9-3.3-1.3c-2.6-1.2-5-2.5-7.8-3.9
			c-2.2-1-4-3.5-6.6-3.9c-0.1,0.1-0.3,0.1-0.4,0.3c-0.9,0.7-1.2,7.4-0.9,9.1c0.3,1.2,0.1,3.9,0.1,5.2c0,1.9,0.1,3.7,0.1,5.6
			c-0.7,3.5-1.2,7.6-0.6,11c2.3,1.2,4.8,2.5,6.8,4c-0.9,4.3-1.9,4.8,0.4,8.8c0,0.1,0,0.3,0,0.4c-2.9,0.6-6.6,2.7-7.2,5.5
			c-0.1,0-0.1,0.1-0.3,0.1c-0.4-0.4-0.9-0.9-1.3-1.4c-0.7-0.4-1.4,0.1-1.9-0.4c-0.4-0.6-0.7-2.5-1-3.2c-0.4,0-0.9-0.1-1.4-0.1
			c-0.4,0.7-0.9,1.6-1.4,2.3c0,0-0.1,0-0.1,0.1c0,0,0,0-0.1,0c-0.1-0.7-0.3-1.6-0.4-2.3c-0.1-0.1-0.4-0.1-0.6-0.3
			c-1-0.4-2.2,0.3-2.7,0.7l-0.1,0.1c-0.9-1-1.2-2.7-1.7-4c-1.7-0.1-1,0.4-1.4,1.9c-0.1,0.4-0.4,0.9-0.6,1.4c0,0.1,0,0.1,0.1,0.3
			c0.7,0.3,1.2,0.1,1.7-0.1c0.4,1.6,1.2,2.3,2.7,2.7c0.6-0.3,0.7-0.6,0.9-1.3c0.1,0,0.3,0,0.4,0.1c0.1,0.9,0.1,1.9,0.7,2.7
			c0.1,0,0.4,0.1,0.6,0.1c1.3,0,2-1,2.5-1.9c0,0,0.1,0,0.1-0.1c0.7,2.7,0.3,2,2.7,3c0.4,0.4,0.9,0.9,1.3,1.4
			c0.4,0.1,0.7,0.3,1.2,0.4c0.3,0.7,0.6,1.6,0.9,2.3c1.3,2.3,4.2,3.5,7.9,2.7c0,0,0,0,0,0.1c-1.7,2.7-5,7.9-2,11.5
			c3.6,4,12.3-0.4,14.1-3.3c0.1,0,0.1,0,0.3-0.1c0,0.9,0,1.7,0.1,2.7c0.1,2.3,1.3,4.3,2.5,5.8c0.9,1.2,3,1.2,3.9,2.2
			c2,2.9,0.7,10.7,1.4,14.4c0.3,1.4-1,4,0,5c0.3,0.1,0.6,0.1,0.9,0.3c0.1,0,0.1-0.1,0.3-0.1c0.6-0.3,0.4-1,0.4-1.4
			c0.4,0,0.9,0,1.4,0c0.1,0.9,0.4,1.4,1.2,1c1.3-0.9,0.4-2.9,0.3-4.3c0.9,0,1,0,1.7-0.1c0.1,1.3-0.1,2.3-0.1,3.6
			c-0.6,0.1-0.9,0.4-1.2,0.9c0,0.3,0.1,0.6,0.1,0.9c0.4,0.1,0.9,0.3,1.2,0.4c0.6-0.1,0.7-0.3,1.3-0.4c0.3-1.4,0-2.3,0.3-4.3
			c0.4,0,1,0,1.4-0.1c0,0.1,0,0.3,0,0.4c0.3,1.4-0.7,2.2-0.1,3.5c0.7,0.4,1.3,0.3,2.5,0.1c0.1,0.7,0.4,0.7,1,1
			c1.2-0.1,1.4-1.9,1.2-2.7c-0.4-2-0.7-13.4,0.3-15.7v-0.1c1.4-0.3,3.3,0,4.8-0.6c1.3-0.4,2.2-2.3,3.3-2.3c0-1.3,0.9-3,1.3-4.6
			c1.2,0.3,2,1.3,3.6,1c2.5-0.4,8.1-3.6,9.2-5.3c0.1-0.1,0.3-0.1,0.4-0.3c0,0,0,0,0.1,0c0.1,0.9,0.3,1.7,0.6,2.3
			c0.4,0,0.9,0,1.2,0.1c1.6-1.3,1.7-3.7,3-5.5c0,0,0,0,0.1,0c0,1,0,2-0.1,3c0.1,0.4,0.3,0.9,0.4,1.4c0.4,0.1,0.7,0.3,1.2,0.4
			c1.3-0.7,2.5-1.7,3-3.2c0,0,0.1,0,0.1-0.1c0.3,0.7,0,1.2,0.7,1.7c0.1,0,0.1,0,0.3,0.1c1.3-0.1,1.7-1.2,2.6-1.7
			c0.3,0.1,0.4,0.4,0.7,0.6c1.7,0.9,3.7-1.7,4.2-3c0.1-0.1,0.3-0.1,0.4-0.3c2.2,2.7,3.3,1,5.5,0.1c1.3-0.1,2.7-0.3,4-0.4
			c6.2-1.7,12.5-2.9,18.7-4.9c2.5-0.9,4.3-0.7,6.3-1.6c0.6,1.6-1,4.6-0.7,6.2c0.9,0.4,1.7,0.9,2.6,1.2c1.3,0.9,2.6,1.7,4,2.7
			c0.7,0.1,1.4,0.4,2,0.6c0.4,0.6,2.2,1.6,2.9,1.7c0.7,0.1,1-0.3,1.3-0.4c1.4-0.6,4.3-0.3,5.8-0.9c2-0.9,5.3-1.9,7.6-2.7
			c1.6-0.3,3.2-0.6,4.9-0.7c6.2-2.2,13.4-3.6,19.2-5.3c4.5-1.3,9.4-2.2,14-3.3c1-0.3,4.2-0.6,4.6-1c0.4-0.4,2.5-9.5,2.2-10
			c-1.2-1.7-4.3-1.6-5.5-3.3c-0.1-0.1-0.3-0.3-0.4-0.4c4-1.7,7.9-2.5,12.5-3.6c1.3-0.3,2.5-1.2,3.6-1.6c1.4-0.6,2.7-0.4,4.5-0.7
			c2.9-0.7,5.6-1.9,8.7-2.7c2-0.6,10.2-2.9,11.5-2.5c0.4-0.4,1.2-0.9,1.4-1.4c0.7,0.7,1,0.7,2.2,0.7c0.1-0.4,0.4-0.9,0.4-1.3
			c0.1,0,0.1,0,0.3-0.1c0.3,0.6,0.7,0.9,1.3,1.2c1.7-1,3.9-1.4,5.9-2.2c5.8,4.3,6.8,6.5,14.7,3l0.1,0.1c-1.3,3.9,0.9,6.9,4.3,8.1
			c1.3,0.4,2.7-0.4,3.3,0.9c0.9,1.7,0.9,7.9,0.1,10.5c-0.3,1-0.9,2-0.7,3c0.4,0.1,0.7,0.3,1.2,0.4c0.3-0.3,0.4-0.6,0.7-0.9
			c0,0,0.1,0,0.1-0.1c0.4,0.4,0.6,1.2,1,1.7c0.4-0.1,0.7-0.3,1.2-0.4c0.1-1.3-0.4-2.2,0-3.6c0.3-1.2,0.6-2.3,0.7-3.7
			c1.2,0.3,0.1,4-0.1,4.5c0.1,0.7,0.3,1.4,0.4,2.2c0.3,0.4,1.4,0.7,2.2,0.7c0.3-0.1,0.6-0.3,0.7-0.4c0-0.3,0-0.4,0.1-0.7
			c-1.3-1.3-1.6-1.6-1.6-4c0.4,0,0.9,0,1.3,0c0.3-0.4,0.1-0.3,0.1-0.9c-0.4-0.3-0.6-0.6-1.2-0.6c-0.1-0.7,0.1-1.3,0.4-2
			c1-0.1,1.2-0.1,1.9-0.7c0-0.3,0-0.6-0.1-0.9c-0.4-0.3-0.7-0.4-1.4-0.4c0.1-0.4,0.3-1,0.4-1.4c0.6,0,1.2-0.1,1.7-0.3
			c0.1-0.3,0.1-0.6,0.1-1.2c-0.3-0.3-0.4-0.4-1-0.4c-0.3-1.4,1.2-3.3,1.7-4.5c0.4,0.1,0.9,0.1,1.4,0.1c0,0,0,0,0,0.1
			c-1.7,3-4.2,16.2-3.2,19.5c0.3,0,0.7,0,1,0.1c0.6-0.7,1.2-2.6,0.9-4c-0.1-0.3-0.6-1.2-0.3-1.7c0.9-2.6,0.4-5.2,1.2-8.2
			c0.6-2.2,1.2-3.7,2-5.5c0.3-0.7,1.2-1.2,1.4-2c1.4-0.3,2.9-0.6,4.3-0.9c1-0.6,2.2-1.2,3.2-1.7c1.4-2-0.1-5-1.2-6.8
			c1-0.7,2.2-1,3.3-1.4c3-1.2,5.9-3.6,6.5-7.1c0.3-1.9-0.7-2.9-0.6-4C584.2,318.4,588.5,313.6,586.9,309.3z M260.7,338.3
			c0,0.1,0,0.3,0.1,0.4C260.7,338.4,260.9,338.7,260.7,338.3z M258.3,251c0,0,0-0.1-0.1-0.1C258.4,250.9,258.3,250.9,258.3,251z
			 M551,284.8c0.4,0.1,0.4,0.1,0.6,0.4C551,284.9,550.9,285.1,551,284.8z M550.4,289.5c0.6,0.1,0.9,0.3,1.7,0.3c0,0.1,0,0.4-0.1,0.6
			c-0.6-0.1-1.2-0.4-1.7-0.6C550.4,289.7,550.4,289.5,550.4,289.5z M548.8,286.8c0.1,0,0.1,0,0.3,0c-0.1,0.3-0.1,0.3-0.4,0.4
			C548.8,287.1,548.8,286.9,548.8,286.8z M544.1,295.4c-0.1,1,1.2,1.4,1.9,2c0,0.1,0,0.1,0,0.3c-0.1,0.1-0.3,0.3-0.4,0.4
			c-0.6-0.1-0.7-0.1-1.4-0.1c0-1-0.1-1.9-1-2.3c0-0.1-0.1-0.1-0.1-0.3C543.2,295.4,543.7,295.4,544.1,295.4z M543.7,298.5
			L543.7,298.5c-1,0-2,0.6-2.7,1c-0.3,0-0.6-0.1-0.9-0.1c0-0.4-0.1-0.7-0.1-1.2c-0.3-0.1-0.7-0.4-1-0.6
			C539.5,297.6,543.4,298.2,543.7,298.5z M536.7,301.9c-0.1-0.6-0.1-0.6-0.4-0.9c0.6-0.3,0.7-0.3,0.7-1.2c0,0.1,0.1,0.1,0.1,0.3
			c0.7,0.4,1.3,0.4,1.7,0c0.4,0.4,1,0.9,1.4,1.3C539,301.2,538.3,302.1,536.7,301.9z M541.5,305c0.7,0.9,2,0.7,3.3,1.2
			c0,0.1,0.1,0.1,0.1,0.3c-0.7,0.7-2,0.7-3.2,0.7c-0.3-0.7-2-2.5-3-2.5c0,0,0-0.1-0.1-0.1c0.6-0.4,1.2-0.6,1.7-1
			C541.2,303.8,541.1,304.5,541.5,305z M538,304.7c-0.1,0-0.3,0-0.4,0.1c-0.1-0.3-0.3-0.4-0.4-0.7
			C537.5,304.2,537.7,304.5,538,304.7z M536.7,296.6c0-0.1,0.1-0.4,0.1-0.6c0.1,0.1,0.1,0.3,0.3,0.4c0,0,0,0,0,0.1
			C537.2,296.6,537,296.6,536.7,296.6z M342,199.8c-0.1,1.7-1.2,6.1-0.9,6.6c-1.9,2.2-5.3,3.9-8.1,5.2c0.3-2.7,0.6-5.5,0.7-8.1
			c2.3-1.7,5.3-2,7.8-3.6C341.9,199.8,341.9,199.8,342,199.8z M332.8,225.8c-0.3-1.6,0-3.2,0.3-4.5c0.4-2.5-0.7-5.8,0.1-7.9
			c1-1.9,5.9-3.5,7.8-4.8c0.1,0,0.3,0,0.4,0c0,0,0,0,0,0.1c0,1.9,0,3.9-0.1,5.8c-0.3,1.7-0.7,3.2-0.7,5.2c-2,0.9-5.3,4.6-7.1,6.2
			C333.4,225.9,333.1,225.9,332.8,225.8z M333.1,226.4c-0.1,0.4-0.1,0.4-0.4,0.6c0,0,0,0-0.1,0c0.1-0.1,0.1-0.4,0.3-0.6
			C333,226.4,333,226.4,333.1,226.4z M334.7,195.9c1.6,0,5.2,2.3,5.6,3.3c-2.3,0.7-4.2,2.6-7.1,2.7c-1.6-1.4-3.6-3-5.9-3.6
			c0,0,0-0.1-0.1-0.1C328.8,196.7,333,197.2,334.7,195.9z M326.3,199.2c2.9,0.4,4.5,2.6,6.3,4c-0.3,2,0.1,5.5-1,6.9
			c-1.7-0.9-4.5-3.3-6.5-3.6C324.7,205.2,325.9,200.5,326.3,199.2z M324.9,208.8c2.6,0.4,4.8,2.3,6.6,3.6c0.4,3.3,0.4,8.8-0.9,11.5
			c0.1,0,0.3,0,0.4-0.1c-0.4,1.9-0.7,2.9,0.1,4c-0.1,0.1-0.3,0.1-0.4,0.3c-0.1-0.4-0.4-0.9-0.6-1.2c-1-0.4-2-0.9-3-1.4
			c-1.2-0.7-2.5-2-3.7-2.7C323,220.3,323.9,211.2,324.9,208.8z M325.9,270.5c0.1-0.4,0.3-0.4,0.1-1.2c-0.7-0.6-1.4-1.7-2-2
			c-5.3-2.6-10.1-4.6-15.1-7.5c-12-6.8-24.2-13.4-35.8-20.8c-1.9-1.2-3.5-2.9-5.2-4c-1.2-0.6-2.3-1-3.3-1.6
			c-3.3-1.9-6.6-3.9-9.7-5.9c-1-0.7-3-0.9-3.7-1.9c-0.1-0.1-0.1-0.1-0.3-0.3c3.5-1.7,7.2-2.2,11.1-3.3c4.2-1.3,8.7-2.6,13.3-4
			c3.9-1.2,8.2-2.9,12-4.2c6.9-2.2,14-3.7,21.1-5.3c2.2-0.4,4.8-1.4,6.8-1.9c1.3-0.3,2.2,0,3.9-0.4c1.7-0.4,2.9-1,4.9-1
			c-0.6,3.7-1,7.5-1.6,11.2c-0.4,2.7,0,4.6-1.3,6.3c1.2,1.6,7.5,6.2,9.5,5.9c0,0.4,0,0.4,0.3,0.7c0.1,0,0.1,0,0.3,0.1
			c2-0.3,3-2.3,4.3-3.3c2.2-1.9,4.2-4,7.1-5.2c0.1-0.7-0.4-1.7-0.1-2.7c0.3-2.5,0.6-4.9,0.7-7.5c0-1.6-0.1-3.2-0.1-4.6
			c0.1-1.7,0.4-3.5,0.6-5.2c0.6-0.6,1.3-0.4,2-0.6c4.5-0.9,8.4,0.1,12.7-1.3c0.4,0,4-0.9,4.5-0.9c4.2-2,6.5-0.4,10.5-1.9
			c0.6,0,4-0.4,4.6-0.4c2.3-1.3,7.8-1.3,10.8-2c3.9-1,8.2-1.3,11.8-2.3c2.2-0.6,5-0.4,7.1-1.3c0.3,0.3,5.3-0.9,6.5-1.2
			c0.3,0,0.4,0.1,0.7,0.1c-1.4,1.7-3.7,2.6-5.5,4c-3.7,2.7-7.2,5.9-11,8.7c-3.7,2.7-8.7,6.9-11.8,10.4c-2.7,2.2-5.3,4.3-8.1,6.5
			c-1.6,1.4-3.3,3.3-4.9,4.5c-0.6,0.4-1,1.6-1.6,2.2c-2.7,2.5-5.2,5.3-8.1,7.6c-4.6,3.7-8.7,8.2-12.8,12.5
			c-3.6,3.7-7.6,7.2-11.1,11.1c-3.6,4-7.4,7.5-11.2,11C327.6,268.6,326.8,269.6,325.9,270.5C326,270.5,325.9,270.5,325.9,270.5z
			 M327.5,270.3c1.3-2.5,4.3-4,6.5-5.8c1.6-1.3,2.7-3.2,4.2-4.6c3.7-3.7,7.9-7.4,11.4-11.2c6.3-7.4,13.7-14,20.9-20.3
			c3.2-2.7,5.6-6.2,8.8-8.8c7.5-6.1,14-13.3,22.1-18.6c0.4-0.6,0.9-1,1.4-1.6c2-1.7,4.3-2.9,6.3-4.6c0.9-0.7,1.6-1.9,2.7-2.5
			c2-1.2,3.9-2,6.1-3.5c2.5,0.1,3.7,0.9,5.2,1.3c0.4,0.1,0.3-0.4,0.7-0.3c2,0.6,5,1.4,7.2,2.2c1.6,0.3,3.2,0.6,4.6,0.9
			c2.9,0.4,6.9,1.9,9.5,3c0.6,0,1.3,0.1,1.9,0.1c1.7,0.6,3.7,0.9,5.6,1.4c3.5,1.2,7.8,2.7,11.8,4c3,1,5.5,1.3,7.8,2.5
			c0.7,0.1,1.4,0.1,2,0.3c2.3,0.9,3.9,1.2,5.9,2.2c1,0.6,1.9,0.3,3,0.7c1.7,0.7,3.3,1.4,4.8,1.9c0.3,0,0.4,0,0.7-0.1
			c2.7,1.4,5.6,1.9,8.8,3.2c6.9,2.7,13.7,4.9,20.9,7.6c3.6,1.4,8.1,3.5,11.5,4.8c2.6,1,5,1.3,6.9,2.3c2.2,1,4.6,2.3,6.9,2.9
			c-0.9,0.9-3.3,0.6-4.8,0.7c-2.6,0.4-6.2,1-8.4,1.6c-1.4,0.1-2.9,0.3-4.3,0.4c-4.8,1.4-10.5,1.6-15.7,2.7
			c-5.9,1.2-11.7,2.5-17.6,3.6c-3.6,0.6-7.4,1.2-11,1.7c-4.5,1-9.5,1-14.1,2.3c-5.2,1.4-11.7,2.3-16.6,3.2c-1.4,0.3-4,0.1-5.2,0.6
			c-2.2,0.7-5.5,0.9-7.8,1.4c-7.5,1.6-17.2,2.9-25.8,4.3c-4.9,0.9-9.7,1.3-14.4,2.5c-2.7,0.3-5.3,0.7-8.1,1
			c-7.8,1.9-15.6,3.6-23.4,5.5c-3.6,0.7-7.1,1.4-10.7,2C346.5,265.6,337.1,268.8,327.5,270.3z M331.1,333.8L331.1,333.8
			c0,0.3,0,0.4,0,0.7h-0.1c0-0.3-0.1-0.6-0.1-0.9C330.8,333.8,330.9,333.8,331.1,333.8z M330.5,326.7h0.1c0,0.1-0.1,0.3-0.1,0.4
			C330.5,327,330.5,326.9,330.5,326.7z M330.8,339.3c0.3,0.3,0.3,0.4,0.3,1.2c-0.3-0.1-0.6-0.3-0.9-0.4c0-0.1,0-0.3-0.1-0.4
			C330.4,339.4,330.5,339.4,330.8,339.3z M327.3,331.6c0,0.1,0,0.3,0.1,0.4c-0.1,0-0.3,0-0.4,0c-0.1-0.1-0.1-0.3-0.3-0.4
			C326.8,331.6,327,331.6,327.3,331.6z M326,331.2c0.1,0.1,0.1,0.3,0.3,0.4c-0.1,0-0.1,0-0.3,0C326,331.5,326,331.3,326,331.2z
			 M324.7,340.6c0.1,0,0.1,0,0.3,0c0,0.3,0,0.6,0.1,0.9c0,0,0,0-0.1,0c-0.1-0.1-0.3-0.1-0.4-0.3C324.7,341,324.7,340.9,324.7,340.6z
			 M320.7,339c0.4,0.1,0.7,0.9,0.4,1.6c0,0.1,0,0.1,0,0.3C320.6,340.7,320.6,339.9,320.7,339z M316.8,337.5l-0.1-0.1
			c0-0.1-0.1-0.4-0.1-0.6C316.7,337,316.7,337.1,316.8,337.5z M316.4,341.4c0.3,0,0.7,0.1,1,0.1c0.1,0.3,0.1,0.4,0.3,0.7
			c-0.7,0-0.7-0.3-1.3-0.4C316.4,341.7,316.4,341.6,316.4,341.4z M314.9,331.3c0,0,0,0.1-0.1,0.1c0,0,0-0.1-0.1-0.1
			C314.9,331.3,314.9,331.3,314.9,331.3z M314.4,337.8c0.4,0.3,0.7,1,0.9,1.6c0,0.1,0.1,0.1,0.1,0.3c-1.2-0.3-1.4-0.7-2.2-1.3
			C313.6,338.1,314.1,338,314.4,337.8z M313.9,343.5C313.9,343.6,313.9,343.6,313.9,343.5c-0.1,0.1-0.1,0.1-0.3,0.1
			c0-0.1,0-0.3,0-0.4C313.6,343.3,313.8,343.5,313.9,343.5z M313.5,345.3c0.3,0.1,0.4,0.3,0.4,0.7c-0.6-0.1-0.6-0.3-0.7-0.9
			C313.3,345.3,313.5,345.3,313.5,345.3z M312.5,332.1c0,0.3-0.1,0.3-0.3,0C312.2,332.1,312.3,332.1,312.5,332.1z M312.3,337.5
			c0.1,0.1,0.1,0.3,0.3,0.4c0,0,0,0,0,0.1c-0.4-0.1-0.6-0.1-1-0.1c0-0.1,0.1-0.3,0.1-0.4C312.1,337.5,312.2,337.5,312.3,337.5z
			 M311.2,319.5c1.2,1.7,0.3,7.5,0.3,9.8c-0.7-0.4-1.3-0.7-2-1.2c-1-0.1-2-0.3-3-0.4c-0.1-3.6-0.1-7.2-0.3-10.8
			C307.7,317.8,309.5,318.7,311.2,319.5z M310.9,346.2c0.1-0.1,0.1-0.4,0.3-0.6c0.1,0,0.3,0,0.4,0.1c0,0,0,0,0,0.1
			c-0.1,0.3-0.1,0.6-0.3,0.9c-0.3,0-0.7-0.1-1-0.1c0-0.1,0-0.4,0-0.6C310.5,346.1,310.6,346.1,310.9,346.2z M310.3,339.3
			c0.3-0.3,0.4-0.4,0.7-0.7h0.1c0,0.7-0.7,1.3-0.4,2C310.6,340.3,310.5,339.9,310.3,339.3z M306.3,330.3c0.9,0.3,1.7,0.4,2.7,0.3
			c0.4,0.3,0.9,0.6,1.4,0.9c0,0,0,0.1,0.1,0.1c-2.3,2.7-4.5,4-3.3,8.9c0,0,0,0-0.1,0C305.7,339.1,305.4,332.5,306.3,330.3z
			 M308.4,343.9c0.1,0,0.1,0,0.3,0c0,0.1,0,0.1,0.1,0.3c0,0.1,0,0.1,0,0.3c-0.1,0-0.3,0-0.4-0.1C308.4,344.2,308.4,344,308.4,343.9z
			 M308.3,338.4C308.2,338.4,308.2,338.4,308.3,338.4c0-0.1,0-0.3,0-0.4C308.3,338.1,308.3,338.3,308.3,338.4L308.3,338.4z
			 M306.4,349.8c0.1,0,0.3,0,0.4,0c0.3,0.9,0.9,1.4,2,1.6c0,0,0,0,0,0.1c-0.3,0.1-0.4,0.1-0.7,0.3c-0.6-0.6-1.3-1.2-2.3-1.4
			c0,0,0-0.1-0.1-0.1C306.1,350.1,306.3,350,306.4,349.8z M305,347.9c-0.6-0.1-1.3-0.4-1.9-0.6c0-0.1,0-0.1,0-0.3
			c0.6-0.3,1.4-0.1,2-0.4c0.6,0,0.6,0.1,0.7,0.6l0.1,0.1C305.6,347.5,305.3,347.5,305,347.9z M306.1,344.5c-0.1,0.3-0.6,0.4-0.9,0.4
			c0-0.3-0.1-0.7-0.1-1C305.4,344.3,305.4,344.3,306.1,344.5z M299.2,313.6c1.3,0.6,2.6,1.3,4,1.9c0,3.6,0.1,7.2,0.1,10.8
			c-0.1,0.1-0.1,0.1-0.3,0.3c-1.2-0.4-2.2-0.7-3.2-1.2c-0.7-0.6,0-1.7-0.1-2.7c-0.3-1.4,0.3-4.3-0.1-5.6
			C299.5,316.3,299.1,314.6,299.2,313.6z M303.3,337.8c0,0.3,0,0.6,0,0.7c-1.2-0.1-2.9-1-3.5-1.7c-0.3-0.4-0.3-7.5,0.1-8.7
			c1,0.4,2.2,0.7,3.2,1.2C303.3,329.6,303,337,303.3,337.8z M295.6,328.2c0-1.7-0.1-3.6-0.1-5.3c0-1.4,0-3,0-4.5
			c-0.3-2.2-0.4-4.2-0.1-6.8c0.6,0.1,1.2,0.4,1.7,0.6c1.7,6.8,1.4,16.4,0.6,23.7c-0.9,0.6-1.6,1.2-2.5,1.7
			C294.7,334.1,295.2,331.1,295.6,328.2z M295.9,339.6c0-0.1,0-0.1-0.1-0.3c0.7-0.4,1.3-0.9,2-1.4c2.2,0.6,3.2,2.7,5.8,3.2
			c-0.6,0.6-1.6,0.7-2,1.4C299.5,342.3,297.2,340.4,295.9,339.6z M302.5,353c-0.4-0.1-0.4-0.1-0.6-0.7
			C302.4,352.5,302.4,352.7,302.5,353z M301.7,345.9c-0.1,0-0.1,0.1-0.3,0.1c0,0,0,0-0.1,0c0-0.1,0-0.4,0-0.6l0.1,0.1
			C301.5,345.8,301.5,345.8,301.7,345.9z M300.5,349.5c0.1,0,0.3,0.1,0.4,0.1l-0.1,0.1C300.7,349.7,300.7,349.7,300.5,349.5z
			 M322.4,384.7c0,0,0-0.1-0.1-0.1c0.3-0.1,0.7-0.3,1-0.4c0.1,0.1,0.1,0.1,0.1,0.4v0.1C323.2,384.9,322.7,384.9,322.4,384.7z
			 M323,387.4c0-0.1,0-0.3-0.1-0.4c0.3,0,0.6-0.1,0.9-0.1c0,0.3,0,0.6,0.1,0.7C323.6,387.4,323.3,387.4,323,387.4z M323.7,389
			c0.1,0.1,0.1,0.1,0.3,0.3c0,0.1,0,0.1-0.1,0.3c-0.1,0-0.3,0-0.4,0C323.4,389.3,323.4,389.3,323.7,389z M324,391.6
			c-0.1-0.1-0.1-0.1-0.3-0.3c0.1-0.1,0.1-0.1,0.3-0.3C324.2,391.5,324.2,391.3,324,391.6z M323.6,393.5c0.3,0,0.6,0,0.9,0.1
			c0.1,0.6,0.3,1.2-0.1,1.4c-0.3,0.1-0.1,0.1-0.7,0.1C323.6,394.7,323.6,394.1,323.6,393.5z M324.5,401.3c-0.3,0-0.4,0-0.7,0.1
			c-0.1-0.7-0.1-1.9,0.1-2.5c0.3,0,0.4,0,0.7,0C324.7,399.4,325,400.9,324.5,401.3z M324.7,383c0.4-0.6,0.9-0.7,1.2-1.4
			c0,0,0,0,0.1,0c0,0.4,0,1,0,1.4C325.5,383,325.2,383,324.7,383z M325.5,387.9c0.4,0.1,0.9,0.1,1.3,0.3c-0.3,0-0.4,0.1-0.7,0.1
			c-0.1,0.1-0.3,0.3-0.4,0.4C325.5,388.6,325.5,388.3,325.5,387.9z M325.6,390.8c0-0.3,0-0.6,0-0.9c0.4,0.3,0.6,0.4,1.2,0.6
			c0,0,0,0,0,0.1C326.3,390.6,326.2,390.6,325.6,390.8z M326,392.9c0.3,0,0.4,0,0.7,0c0,0,0,0,0,0.1c-0.3,0.1-0.4,0.1-0.7,0.3
			C326,393.2,326,393.1,326,392.9z M326.8,398.1c-0.1-1.2-0.4-2.5-0.6-3.6c0.6,0.3,1,0.4,1.7,0.4c0.1,0.6,0.4,1.6,0.1,2.2
			c0,0.3,0,0.7,0.1,1C327.6,398.3,327.2,398.1,326.8,398.1z M328.2,392.9c-0.4,0-0.9,0-1.3,0c0,0,0,0,0-0.1c0.6-0.1,0.7-0.3,0.9-0.9
			c0.1,0,0.3,0,0.4,0c0,0.3,0,0.4-0.1,0.7C328.1,392.8,328.2,392.8,328.2,392.9z M328.2,387.6c-0.3,0.4-0.6,0.6-1.2,0.9l-0.1-0.1
			c0.3-0.1,0.1-0.1,0.7-0.1c0.1-0.3,0.1-0.6,0.1-1.4c-0.6-0.6-1.6-0.7-2.5-0.4c0-0.3,0-0.6-0.1-0.7c1.2,0.3,1.7,0.6,3,0.4
			C328.2,386.4,328.2,387,328.2,387.6z M327.2,383.7c0.3,0,0.6,0,0.9,0c0,0.1,0,0.3,0.1,0.4C327.9,384,327.5,383.8,327.2,383.7z
			 M328.3,380.4L328.3,380.4c0.3,0.4,0.4,0.9,0.6,1.4C328.6,381.4,328.5,380.8,328.3,380.4z M331.2,399.4c-0.4-0.1-0.7-0.3-1.2-0.4
			c-0.3-0.1-0.6-3-0.4-4c0.4,0.1,0.7,0.4,1.4,0.4c0.1,1-0.6,1-0.4,1.6c0,0.7,0.7,1.2,0.7,2.2C331.2,399.3,331.2,399.4,331.2,399.4z
			 M329.6,382.8c0.4,0.4,0.9,1,1.4,1.4c0,0.1,0,0.1,0.1,0.3c-0.4,0-0.9,0-1.2-0.1C329.6,384.1,329.6,383.7,329.6,382.8z
			 M331.2,393.4c-0.4,0.3-0.9,0.6-1.6,0.6c0.1-0.9-0.1-1.6,0.1-2.5c0.4,0,0.9,0.1,1.4,0.1C331.2,392.2,331.2,392.8,331.2,393.4z
			 M331.5,388.6c0,1.2-0.9,0.7-1.4,1.3c-0.1,0-0.1,0-0.3,0c0.3-0.1,0.4-0.4,0.7-0.6c0-0.3,0-0.7,0.1-1c-0.1-0.4-0.3-0.6-0.7-0.7
			c0-0.3,0-0.6,0-0.7c0.9,0,1.4-0.1,1.9-0.4C331.5,387.6,330.8,387.6,331.5,388.6z M333.7,388.9c0.1,0,0.1,0,0.3,0
			c-0.1,0.4-0.1,0.3-0.6,0.4c0,0,0,0-0.1,0C333.5,389.3,333.5,389,333.7,388.9z M333.4,386.6c0.1,0.1,0.4,0.1,0.6,0.3
			C333.4,386.9,333.5,386.9,333.4,386.6z M334,391.6c0,0.4,0,0.9,0.1,1.4c-0.4,0.3-0.6,0.1-1.2,0c-0.1-0.1-0.1-0.3-0.3-0.4
			c0-0.4,0.1-0.9,0.1-1.2C333.3,391.5,333.5,391.6,334,391.6z M334,403c-0.1,0.1-0.3,0.1-0.4,0.3c0,0,0,0-0.1,0
			c-0.4-0.9-1-4.5-0.6-5.5c0-0.1,0.4-0.6,0.4-1c-0.1-0.4-0.4-0.6-0.4-1.6c0.4-0.1,0.6-0.1,0.9-0.4C334.5,395.7,333.5,401.7,334,403z
			 M349.3,379.4c-0.7-0.1-0.6-0.3-1.2-0.4c0,0.3,0,0.3-0.1,0.4c-0.6-0.3-1.2-0.4-1.7-0.7c-0.9-1-0.7-2.2-1.2-3.6
			c-0.6-2.3-2-4.9-3.7-6.2c-1-0.7-2-0.9-3.5-1.2c-3.7-0.7-3.2,3.6-2.7,6.1c0.6,0.1,0.7,0.3,1.6,0.3c0.3-0.4,0.3-0.7,0.3-1.2
			c0-0.6-0.3-0.7-0.6-1.2c-0.3-0.6,0.1-2,0.4-2.3c0.1-0.3,0.4-0.4,0.9-0.4c1.4-1,3.7,1.6,4.3,2.5c2.3,3.6,3.5,11.7-1,13.8
			c-7.5,3.7-11.1-4.6-12.4-10.8c-0.7-0.4-1.3-1-2.5-1c-0.7,1,0.4,2,0,3.6c-0.7,2.6-4.2,8.5-7.8,5.2c-2.3-2.2-1.6-4.2-2.2-7.4
			c-0.1-0.7-0.3-2.6,0-3c0.6-0.9,1.4-2,2-3c0.7-1.2,1-2.6,2-3.3c1.3-0.4,2.7-1,4-1.4c0-1.2-0.6-2.3-1-3.3c-0.4-0.1-1-0.3-1.4-0.4
			c-0.1,0.1-0.3,0.1-0.4,0.3c0,0.9,0.4,1.4,1.2,1.7c-1,1.2-3.6,1.3-4.6,3.3c-0.6,1.2-1.2,2.3-1.7,3.3c-0.3,0-0.7,0.1-1,0.1
			c-0.7,0.7-0.7,2.6-1.3,3.5c-1.3,1.7-3.5,3.5-5.6,4.3c-1.6,0.6-4.9,1.4-6.6,0.4c-2.2-1.3-1.6-5-0.4-7.1c1.2-2.3,3-4.3,5.2-5.8
			c0.7-0.3,1.3-0.6,2-0.9c1.9-1.2,3-3.7,4.9-5c0.1-1.9-1.3-2.5-1.7-4c-0.6,0-1,0-1.6,0c-0.7,1.6,0.9,1.9,1.4,2.7
			c-0.3,0.4-0.1,1-0.4,1.4c-1.6,2.6-6.6,5.2-10,6.2c-3.5,1-7.2-2.5-6.3-5.6c0.4-1.6,2.2-3,3.6-3.6c0,1.2,0.7,1.7,1.4,2.2
			c0.3,0,0.7-0.1,1-0.1c0.1-0.3,0.1-0.6,0.3-0.7c0.7,0.3,0.9,0.6,1.6,0.9c0.6-0.3,0.9-0.3,1-1.2c-0.4-0.7-1-1.2-1.9-1.4
			c-0.1,0-0.4,0.1-0.6,0.1c-0.1,0.3-0.1,0.6-0.1,1.2c-0.6-0.4-1-0.7-1.7-1c0,0,0-0.1-0.1-0.1c1.2-1.3,4.2-0.3,5.5,0.1
			c0.7-0.1,1-0.1,1-1.4c-0.3-0.1-0.6-0.3-0.9-0.4c-0.1-0.4,0.1-0.7,0.4-1.2c-0.3-0.9-0.7-1-1.3-1.6c0.3-0.4,0.4-0.6,0.3-1.3
			c0.1,0,0.3,0,0.4-0.1c0.1,0,0.1,0.1,0.3,0.1c0.1,0.4,0.1,0.1-0.1,0.6c0.1,2,1.9,1.6,2.6,2.9c0.4-0.1,0.9-0.1,1.4-0.3
			c0.6,0.4,0.7,0.9,1.7,0.9c0.3-0.4,0.4-0.6,0.4-1.4c-0.7-0.7-1.6-0.9-1.2-1.7c0,0,0.1,0,0.1-0.1c0.3,0.6,0.4,1,1,1.3
			c0.3,0.1,0.7,0.1,1.2,0c0.4-0.1,0.4-0.1,0.4-0.7c0.6,0.4,0.9,1.2,1.6,1.4c0.4,0,0.7-0.1,1.2-0.1c0.4-0.6,0.3-0.9,0.1-1.6
			c-0.7-0.3-1.6-0.6-2.3-0.7c-0.3,0.3-0.3,0.3-0.4,0.7c-0.6-0.4-1-0.9-1.6-1.2c-0.6-0.1-0.9,0.3-1.3,0.1c-0.7-0.3-1.6-1.6-2.3-2
			c0.1-0.4,0.7-0.6,1.2-0.7l0.1-0.1c1.2,1,1.9,2.9,3.6,3.3c0.3-0.1,0.4-0.1,0.7-0.3c0-0.4,0.1-0.9,0.1-1.3c0.4-0.1,1.4,0.7,2,1.2
			c0.4-0.3,0.9-0.4,1.3-0.7c0.7,0.9,1.3,1.6,1.7,2.9c0.6,0.3,1.2-0.3,1.7-0.1c1,0.3,1.2,1,2-0.1c0-0.1,0-0.1,0-0.3
			c-0.4-1-1.3-1.4-2.7-1.3c-0.1-0.3-0.1-0.6-0.3-0.9c0.4-0.3,0.7-0.4,0.9-1.2c-0.3-0.4-0.4-0.9-0.7-1.2c-0.3-0.1-0.6-0.1-0.7-0.3
			c-0.9,0-2,1.2-2.2,1.9c-0.6-0.7-0.9-1.2-1.7-1.4c0-0.3,0-0.4-0.1-0.7c1,0.4,1.9,0.3,3.3,0.3c0.3-0.4,0.4-0.6,0.7-1.2
			c1,0.4,1,1.3,2.6,1.4c1.2-1.7-1-2-1.4-3.6c1.9,1.2,3.7,4.8,5.5,5.2c0.6-0.4,0.9-0.4,0.7-1.4c-1.2-1-1.9-1.9-2.6-3.3
			c0.1-0.1,0.4-0.3,0.6-0.4c0.4,0.4,0.9,0.4,1.4,0.7c0,0.4,0.1,0.9,0.1,1.3c0.6,0.6,0.9,1,1.7,0.7c0.7,0.6,0.9,1.6,2,1.7
			c0.3-0.4,0.6-0.9,0.9-1.3c-0.1-1.2-1.2-1.6-2.5-1.6c0.6-0.9,0.3-1.2,0-2c0.9,0.1,3-0.4,3.6-1.2c0.4,0.1,0.7,0.3,1.2,0.4
			c-0.4,0.6-0.7,0.7-0.4,1.6c-0.6-0.1-0.9-0.1-1.3,0c-0.1,0-0.1,0-0.3,0.1c0,0.6,0.1,1.2,0.1,1.7c0.3,0.3,0.7,0.6,1,0.9
			c0.7,0,0.9-0.1,1.2-0.4c0.4,0.4,0.6,1.2,1.2,1.6c1,0.1,1.6,0.1,2.5,0.1l0.1-0.1c0-0.4-0.1-1-0.1-1.4c-0.7-0.6-1.2-1-2.3-1
			c0.1-0.6,0.6-1,0.1-2c0.1-0.3,0.1-0.3,0.6-0.4c0-0.1,0.1-0.3,0.1-0.4c0.3,0.6,0.7,0.9,1.7,0.6c0.3,0.4,0.6,1,0.9,1.4
			c0.4,0,0.9,0,1.3,0c-0.9,1.3,0.4,4.3,1.7,4.9c0.4-0.1,0.9-0.3,1.2-0.7c0.9,2-0.1,4.6,1.7,5.6c2.7,1.4,7.6,0.6,6.5-3.5
			c0.7,0.6,1.3,0.7,2.7,0.6c0,0,0,0,0,0.1c-1,0.6-3.9,4.9-3.6,6.5c0.3,0,0.7,0.1,1,0.1c2.6-1.4,7.6-5.9,9.4-0.4
			c1.3,2.6-2.9,6.2-5.2,6.8c-1.3,0.3-1.9-0.4-3.2-0.1c0,0-0.1,0-0.1,0.1c0,0.4,0,0.7,0,1.2c2.2,1.3,4.5,0.9,5.6,3.3
			C357.6,372.7,352.6,378.4,349.3,379.4z M331.7,338.8c0-0.3,0-0.7,0.1-1c0.4,0.3,0.6,0.4,0.7,1C332.2,338.8,332,338.8,331.7,338.8z
			 M333.3,339.3c0.9,0.1,1,0.4,1.4,0.9c0,0.1,0,0.3-0.1,0.4C334.4,341,333.4,339.7,333.3,339.3z M335.3,333.5c0,0,0.1,0,0.1-0.1
			c0.3,0.1,0.1,0.1,0.3,0.4c0,0,0,0.1,0.1,0.1c-0.1,0-0.3,0.1-0.4,0.1v-0.1C335.3,333.9,335.3,333.9,335.3,333.5z M336.6,339.3
			c0.7,0.7,1.4,1.4,2,2c0,0.1,0,0.3-0.1,0.4c-1.3-0.3-1.3-1.2-2.3-1.6c0-0.1-0.1-0.1-0.1-0.3C336.1,339.9,336.3,339.6,336.6,339.3z
			 M336.1,338.4c0-0.1,0-0.3,0-0.4c0.1-0.1,0.3-0.4,0.4-0.6c0.1,0,0.1,0,0.3,0c-0.1,0.3-0.3,0.4-0.3,1.2c0,0-0.1,0-0.1,0.1
			C336.3,338.6,336.1,338.4,336.1,338.4z M336.9,332.2c0.1,0,0.3,0,0.4,0c0,0.1,0,0.3,0.1,0.4C337.1,332.5,337.1,332.5,336.9,332.2z
			 M339.9,343.6c0.3,0.3,0.3,0.4,0.1,0.7v0.1c-0.1,0-0.3,0-0.4,0C339.3,344,339.5,344,339.9,343.6z M339.7,335.8
			c0.4,0,0.7,0.1,0.9,0.4C340.3,336.3,340,336.1,339.7,335.8z M343.1,341.9c0.1,0,0.3,0,0.4,0c0.1,0.1,0.1,0.3,0.3,0.4
			c0,0.3-0.1,0.4-0.1,0.7c-0.6-0.1-0.7-0.4-0.9-0.9C342.8,342,342.9,341.9,343.1,341.9z M343.1,335.7c0.1,0,0.3,0,0.4,0
			c0,0,0,0,0,0.1c0,0.3,0,0.6-0.1,0.9C342.9,336.5,343.1,336.3,343.1,335.7z M344.2,350.8c0.4,0.3,0.7,0.7,1.2,1c0.4,0,0.7,0,1.2,0
			c0.4-0.1,0.7,0.1,0.9,0.6c-0.9,0.1-2-0.1-2.6,0.1c-0.3-0.1-0.4-0.4-0.7-0.6c-0.6-0.7-0.6-2.5-0.3-3.3
			C344.6,349.1,344.1,350.4,344.2,350.8z M344.6,346.3c0.1-0.1,0.1-0.4,0.3-0.6c0.3,0.1,0.6,0.3,0.9,0.4c0,0.1,0.1,0.1,0.1,0.3
			c-0.4,0.1-0.4,0.1-0.4,0.6C345.1,346.9,344.9,346.8,344.6,346.3z M349.8,350.2c-0.9-0.4-1-0.3-2.2-0.1c0-0.1,0-0.1-0.1-0.3
			c0.3-0.9,0.9-0.6,1-1.7c0.6,0.1,1.2,0.1,1.6-0.3c0.6,0.3,0.7,0.4,1.6,0.3c0,0.1,0,0.3,0,0.4c-0.6-0.1-1.2-0.4-1.7-0.1
			c-0.1,0-0.1,0.1-0.3,0.1C349.7,349.2,349.8,349.7,349.8,350.2z M348.2,345c-0.6-0.4-1.3-0.9-1.9-1.4c0-0.1,0-0.1,0.1-0.3
			c0.6,0.6,0.7,0.7,1.7,0.7c0.1,0.3,0.1,0.3,0.1,0.7C348.4,345,348.4,345,348.2,345z M342.8,345.9c-0.3,0.9-0.4,1.6-0.7,2.5
			c-0.1,0.1-0.7-1.2-0.9-1.6c0-0.1,0.1-0.3,0.1-0.4C341.9,346.2,342.3,346.1,342.8,345.9z M342.2,339.4c-0.3,0-0.6,0-0.9,0
			c0-0.1,0-0.4-0.1-0.6c0.1-0.1,0.3-0.1,0.4-0.3c0.4,0.1,0.6,0.3,0.7,0.7C342.3,339.3,342.3,339.4,342.2,339.4z M341.8,334.5
			c-0.1-0.1-0.4-0.3-0.6-0.4c0-0.1,0-0.1-0.1-0.3c0.1-0.1,0.4-0.1,0.6-0.3c0.1,0,0.1,0,0.3,0.1c0,0.3,0.1,0.7,0.1,1
			C342,334.5,341.9,334.5,341.8,334.5z M341.9,341.6c-0.4,0-0.7-0.1-1.2-0.1c0-0.3,0-0.4-0.1-0.7c0.1-0.1,0.1-0.1,0.3-0.3
			C341.5,340.7,341.8,341.3,341.9,341.6z M352.7,345.8c-0.1,0-0.1-0.1-0.3-0.1c0-0.3,0-0.6-0.1-0.7c0,0,0.1,0,0.1-0.1
			C352.7,345,352.6,345.2,352.7,345.8z M353.4,350.1C353.4,350.2,353.4,350.2,353.4,350.1c-0.1,0.3-0.4,0.4-0.6,0.7
			c0-0.3,0-0.6-0.1-0.9C353,350.1,353.3,350.1,353.4,350.1z M353,341.6C353.2,341.6,353.2,341.6,353,341.6c0.1,0,0.3,0.1,0.3,0.1
			S353.2,341.7,353,341.6z M353.7,352.7c0.3,0.3,0.3,0.7,0.4,1.2c-0.7,0.4-1.3,0.7-2,1.2c0,0,0,0-0.1,0
			C352.4,354,353.2,353.4,353.7,352.7z M354.2,348.8c0.1-0.3,0.3-0.6,0.4-0.7c0,0.3-0.1,0.4-0.1,0.7
			C354.3,348.7,354.2,348.8,354.2,348.8z M355.2,344.2c0-0.1,0-0.3,0-0.4l0.1,0.1c0,0.1,0,0.1,0,0.3
			C355.3,344.3,355.2,344.2,355.2,344.2z M356.8,347.2c1.2-0.1,2.9,0.1,4.2-0.4c0.3,0,0.7,0,1,0c0.1,2,0.3,4.2,0.3,5.9
			c0.3,0.3,0.7,0.7,1,1c0,0,0,0,0,0.1c-1.4,0-2.2,0.7-3.3,0.9c-0.4,0.1-3.3-1.2-4.2-1.4c-0.1-1,0.6-2.6-0.1-3.2
			C355.9,349.2,356.3,348.2,356.8,347.2z M356,333.7c2-0.4,4-0.7,5.9-1.2l0.1,0.1c0.3,0.3,0,9.1-0.1,10.2
			C354.4,346.5,355.7,339.7,356,333.7z M370.6,351.7c-0.1,0.3-0.3,0.6-0.4,0.9c-1.6,0.3-2.9,0.9-4.6,0.9c0.1-2.5,0-4.5,0.1-7.4
			c1.6-0.4,3.3-0.9,4.9-1.3C370.7,346.6,369.9,351.1,370.6,351.7z M365.8,342.6c0-2,0.4-9.1-0.4-10.8c1.4-1.2,4.8-1.2,6.6-1.2
			c0.6,2.6-0.9,8.4-1.2,11.2C369.2,341.2,367.9,342.5,365.8,342.6z M369.4,354.4c0.7,0.1,2.3,0.1,2.6,0.4c0.4,0.1,0.4,0.1,0.6,0.4
			c-2,0.4-3.9,0.9-5.9,1.3c-1.9,0.3-3.6,0.4-5.5,0.7c-0.1-0.4-0.4-0.7-0.6-1.2c0,0,0-0.1,0.1-0.1
			C363.2,355.3,367.3,355.6,369.4,354.4z M375.1,345.8c-0.1,2.6-0.4,5.2-0.4,8.1c-0.1,0-0.3,0.1-0.4,0.1c-0.3-0.3-0.4-0.4-0.7-0.7
			c-1-0.3-1.3-4.5-1-6.5c0-1.3,0-2.7,0-4c0.6-3.6,1.3-8.8,1.6-12.5c0.4-0.1,0.7-0.3,1.2-0.4c0.1,0,0.4,0,0.6,0
			c0.7,3.7-0.1,9.1-1,12.8C374.9,343.7,374.9,344.8,375.1,345.8z M422.1,373.2c-0.4,0.4-0.1,0.3,0,0.9c-2-0.3-7.6-2.7-8.4-4.3
			c-0.6-0.9,0-4.2,0.1-5.3c0.3,0,0.6-0.1,0.7-0.1c0.1,0,0.3,0,0.4,0c1.3,3.2,8.2,3,8.4,7.2C423.1,372,422.5,372.6,422.1,373.2z
			 M475,361.6c-12.5,3.6-24.4,6.2-36.9,9.4c-4.5,1.2-9.5,2.9-14.1,3.7c0.6-1.3,1.2-2.6,1.7-3.9c0.9-1.4,9.5-2.5,11.8-3.3
			c4.5-1.7,10.7-2.5,15.6-4.2c4-1.4,8.7-2.9,12.5-4.2c1.6-0.6,4.5-0.3,5.9-0.9c1.2-0.4,2.5-1,3.6-1.4c0.7-0.1,1.4-0.3,2.2-0.4h0.1
			C477.2,358.9,475.7,359.8,475,361.6z M477.5,354.1c0,0.1,0,0.3,0,0.4c-1.3,0.4-2.9,1.2-4.2,1.7c-2,0.4-4.2,0.9-6.2,1.4
			c-0.4,0-0.7,0-1.2,0c-3.9,1.7-8.5,2.6-12.4,4.2c-0.4-0.1-10.5,2.3-12.1,2.7c-4.8,1.3-10.7,3.9-16.3,4.2c-1.3-1.4-2-1.3-3.7-2.3
			c-0.6-0.3-1.2-1.4-1.7-1.7c-0.1-0.1-0.7,0.3-1.2,0.1c-0.4-0.3-0.7-0.7-1.2-1c1.2-1.7,9.5-2.3,11.8-3.3c3.3-1.3,6.6-1.4,10-2.5
			c6.5-1.9,13.8-3,20.2-4.9c2.9-0.9,6.3-0.7,9.1-2.3c0.4,0.4,2.7-0.6,3-0.7C472.8,350.7,475.6,353.7,477.5,354.1z M423.2,355.3
			c0.1-2.5,0.3-4.8,0.4-7.2c0.9-5.5,0.3-13.8,1.2-19.2c0.6-3.2-0.4-5.9,0.4-8.8c4.9-1.6,11.2-2.6,17-4.3c2.2-0.6,4.9,0,6.9-0.7
			c2.6-0.9,5.6-1,8.5-2c0.6-0.1,1.3-0.7,1.9-0.9c1.6-0.3,3.2-0.7,4.6-1c0.9,0.7,0,8.5-0.3,10.5c-0.3,2.5-0.4,5.3-0.9,7.5
			c0,2.2,0,4.2,0,6.3c-0.3,2.2-0.6,4.8-0.3,6.6c0.4,3.3-1.4,6.1-0.9,9.1c-0.7,0.3-1.3,0.4-2.5,0.4c0-0.7,0.1-0.9,0.7-1
			c0-0.1,0-0.3,0-0.4c-0.1,0-0.3,0-0.4-0.1c-0.6-1.2,0.4-8.4,0.1-10.5c-0.6-5.5,0.7-12,0.9-17c0-1.6,1-4.6,0.4-6.2
			c-0.1-0.6-0.7-0.9-0.9-1.7c-1.6-0.7-6.3,2.2-8.7,2c-1.9,0-7.9,1.7-9.7,2.5c-2.3,0.7-4.8,0.7-6.9,1.2c-2.3,0.6-4.3,1.3-6.9,1.6
			c-0.1,0.1-0.1,0.4-0.3,0.6c-0.1,0.6,0.1,1.2,0.1,1.7c0,1.6-0.1,3.2-0.1,4.6c-0.4,2.5-0.3,6.9-1.2,10.2c0,1.3,0,2.5-0.1,3.7
			c-0.6,2.7-1.4,7.8-0.9,10.4c0.4,2.2-1.2,4.2-0.6,6.2c-0.7,0.1-1.3,0.1-2,0.3c0,0,0,0-0.1,0c0.1-0.4,0.1-0.9,0.3-1.2
			c-0.1,0-0.3-0.1-0.4-0.1C423.8,356.9,423.2,356.7,423.2,355.3z M459.1,326c0.3,2.3-0.9,5-0.7,8.1c0.4,5.3,0.4,13.3-1,17.9
			c-4.2,1-8.4,1.9-12.5,2.9c-0.1,0-0.3,0-0.4,0c0.1-0.6,0.1-1-0.1-1.4c0.7-0.9,0.4-6.1,0.6-8.1c0.3-5.2-0.1-13.1,0.9-18.2
			c0.4-2.2-0.6-5.6,0.4-7.2c1-1.4,11.1-1.9,12.8-3.3c0.3,0,0.4,0,0.7,0C460.6,319.8,458.7,322.4,459.1,326z M444,327.6
			c0.4,1.9-0.9,4.8-0.7,6.9c0.4,5.2,0,11.8-0.9,17.3c-0.3,1.3,0.4,1.9,0.1,3.5c-0.9,0.7-2.2,0.7-3.6,1.2c-3.9,0.9-7.6,1.9-11.5,2.7
			c-0.1,0-0.3,0-0.4,0c0,0,0,0,0-0.1c1.9-2.9,0-5.6,0.7-9.4c0.4-2.3,0.6-5.2,1-7.5c0-1.2,0-2.5,0-3.6c0.6-2,0.9-4.9,0.7-6.8
			c0-0.7,0-1.4-0.1-2c0.6-1.2,0.4-3.7,0.4-5.6c3.3-2.6,9.8-1.9,14-3.7C444.9,321.7,443.6,325.9,444,327.6z M526.1,333.1L526.1,333.1
			c-0.3-0.9,0.1-1.6-0.6-2c-0.4,0-0.7-0.1-1.2-0.1c-0.3,1.3-0.7,2.6-1.7,3.3c-0.6-0.7-0.6-2.3-0.9-3.5c-0.3,0-0.7-0.1-1-0.1
			c-0.7,0.6-0.9,2.7-1,4c-0.1,0-0.1,0.1-0.3,0.1c-0.6-1.6-1.3-3.2-1.7-4.6c-0.3,0-0.6,0-0.7-0.1c-0.1,0.1-0.1,0.3-0.3,0.4
			c0,1.6,0.1,3.2,0.1,4.6c-1.7,1.7-9.7,2.3-12.8,3.5c-5,1.7-11,3.5-16.2,5.2c-2.3,0.6-4.5,1-6.8,1.6c-3.3,1.3-7.2,2.7-10.4,3.9
			c-1,0.4-2.6,0.3-3.6,0.7c-0.9,0.3-1.9,0.7-3,0.7c-0.1-0.3-0.1-0.3-0.1-0.6c-0.1-0.9,0.6-1.3,0.9-1.9c-0.7-1.6-0.4-2.7-0.3-4.8
			c0-0.4-0.1-1-0.1-1.4c0.1-1.2,0.3-2.2,0.4-3.3c0-1.9,0.1-3.7,0.1-5.6c-0.6-1.6,0.4-11.7,0.7-13.1c0.6-2.3,1.3-9.2-0.1-10.1
			c-0.3,0-0.7,0-1-0.1c0-0.1,0-0.3,0-0.4c-2.5-0.7-7.4,2.6-9.7,3c-0.7,0-1.3,0-2,0c-1.2,0.4-2.5,0.9-3.6,1.3c-1.6,0-3.3,0.1-4.9,0.1
			c-3.7,1.3-8.9,2.2-12.5,3.3c-1.6,0.4-7.6,1.2-8.4,2.2c-0.6,0.9,0,7.4-0.3,9.4c-0.7,5.2-1.4,14-1.3,19.5c0.1,3.5-1,6.8-0.1,9.8
			c-1.2,1.4-1.2,1-1.4,2.9c-1.7,0.6-4.5,1.7-6.5,2c-0.9,0.1-1.7,0.1-2.6,0.3c-6.5,2.2-13.7,3.6-20.5,5.3c-1.7,0.4-7.4,2-8.7,1
			c-0.7,0.3-1.3,0.9-1.7,1.4c-0.3,0-0.6,0-0.9,0c-0.3-0.6-1.2-1.3-1.7-1.6c-0.3,0-0.6,0-0.7,0c-1,0.4-2.6,2.5-3,3.5c0,0,0,0-0.1,0
			c-0.4-0.6-0.4-1.4-1-1.9c-0.4-0.3-0.9-0.3-1.2,0c-0.4,0.3-0.6,1.4-0.7,2c-0.1,0.1-0.3,0.3-0.4,0.4c-0.4-1.2-0.3-2.6-0.7-3.6
			c-0.1,0-0.3,0-0.4-0.1c-1.3,0.7-2.2,4.3-3.5,5.6c-0.4-1,0.1-2.5,0-3.7c-0.3-0.7-0.4-1.4-0.7-2c-0.3-0.1-0.4-0.3-0.7-0.4
			c-1.4,0.3-2.6,4-3,5.3c0,0-0.1,0-0.1,0.1c0.1-2.5,1.2-5,0.7-7.6c-0.4-0.3-1-0.7-1.4-0.1c0,0.7-0.1,1.6-0.1,2.3
			c-0.6,2.6-1.6,5.3-3.7,6.6c1-1.9,2.6-5.5,1.7-7.9c-0.6-0.7-1.3-1.4-1.9-2.2c1.4-1,3.6-1.9,4.3-3.6c0.3-0.9,0.4-1.7,0.7-2.6
			c0.4-0.4,9.1-1.7,11-2.3c1.2-0.4,3.3,0,4-0.9c1.3-1.2,0.9-4.9,0.7-6.5c-0.6-4.3,0.1-11.5,0.9-16c0.3-1.7-0.3-2.9,0.3-4.6
			c0.3-0.3,0.4-0.7,0.7-1c0-0.1-0.1-0.4-0.1-0.6c-0.3-0.3-4.8,0.9-5.9,1.2c-3.9,0.9-7.6,1.6-11.5,2.3c-2.2,0.4-4.5,0-6.5,0.9
			c-0.4,2,0,3.2-0.6,5.2c-0.3,0.9,0.3,2-0.1,3c-2.5-0.4-4.5-1.3-6.8,0c0,0,0,0-0.1,0c0-1.7,1.2-2.9,0.7-4.8
			c-0.6-3.5-4.3-7.1-8.7-5.8c-1.7,0.4-2.9,1.6-4.3,2.3c-0.1,0-0.1,0-0.3,0c0-2.3-0.7-5.2-2.5-5.8c0.3-0.4,0.6-0.7,0.9-1.2
			c-0.1-3.3-0.3-6.8-0.4-10.1c0.1-2.7-0.1-6.5-0.4-9.4c0-3,0.1-6.1,0.1-9.1c-0.6-3.3-1-8.4-0.4-11.7c0-1.4,0-2.7,0-4.2
			c0.1-2.5,0.4-4.8,0.6-7.2c-0.1-1.4,1.9-1.3,0.1-3.2c3-0.3,6.6-1.2,9.1-2.3c0.7,0.4,3.3-0.7,4-1c3.3-0.9,6.6-2,10.1-2.9
			c3.3-0.6,6.6-1.2,10-1.7c7.1-2.2,14.9-3.7,22.2-5.3c1.6-0.4,4.3-1,5.6-1c1.2,0,2.2-0.1,3.3-0.1c4.2-1,9.1-1.7,13.8-2.7
			c2.6-0.6,5.6-0.4,7.9-1c3.2-0.4,6.3-0.9,9.5-1.4c0.7,0,1.4,0,2,0c5-2,11.1-1.7,16.6-3c4.5-0.9,8.9-1.7,13.4-2.6
			c2.2-0.4,4.5-0.3,6.3-0.9c2-0.6,4.5-0.7,6.8-1.3c0.7-0.1,1.6-0.4,2.5-0.6c3.5,0,7.8-0.9,11.1-1.6c7.8-1.7,16-2.3,23.2-4.5
			c2.7-0.9,5.2-0.6,7.8-1.2c0.9,0,1.7,0,2.7-0.1c2.3-0.7,4.6-1,6.9-1.6c1.2,0,2.5-0.1,3.6-0.1c1.4-0.3,3-0.9,4.8-0.9
			c0.4,0.7,0.1,1.4,0.4,2.5c1,3.6,1.2,7.9,1.7,12.3c1.7,14,1.7,31.9,1.3,46.9c-2.5-0.4-6.3,3.7-5.5,6.9c0.4,1,0.7,2,1.2,3
			c-0.1,1.2-2.7,2.2-3.5,3c-3,3.2-3.3,4.2-1.7,8.7c0.4,1,0.6,2.3,1.6,2.7c-0.1,1.7-4,4.3-4.6,6.8c-0.4,1.6-0.4,4,0.1,5.9
			c0.1,0.4,0.6,1,0.4,1.4C526.8,332.9,526.5,332.9,526.1,333.1z M532,313.9c0.6,0.3,1.3,0.9,1.4,1.6c-0.9-0.6-1.6-0.6-2.6-0.1
			c0-0.1-0.1-0.4-0.1-0.6C531.5,314.6,531.7,314.5,532,313.9z M530.5,310c0-0.1,0-0.1,0.1-0.3c0.1,0,0.1,0,0.3,0
			c0.1,0.1,0.1,0.3,0.3,0.4c-0.1,0-0.3,0-0.4-0.1C530.7,310,530.7,310,530.5,310z M533.3,309.9l-0.1-0.1c0,0,0,0,0-0.1
			c0.4,0,1,0,1.3-0.1c0.4,0.1,0.4,0.1,0.9,0.1c-0.4,1.2-0.4,1.7,0.3,2.6c0,0,0,0,0,0.1c-0.1,0-0.1,0-0.3,0
			C534.6,311.7,533.8,310.6,533.3,309.9z M533.3,307.6C533.3,307.6,533.3,307.4,533.3,307.6c0.1-0.1,0.1-0.3,0.3-0.4
			c0.1,0,0.1,0,0.3,0c0,0.1,0.1,0.1,0.1,0.3c-0.3,0.1-0.3,0.1-0.6,0.1C533.4,307.6,533.3,307.6,533.3,307.6z M530.1,312
			c0,0.1,0,0.1-0.1,0.3c-0.1,0-0.1,0.1-0.3,0.1c0-0.4,0-0.7,0-1.2h0.1C530,311.6,530.1,311.7,530.1,312z M528.1,330.6
			c0-0.1,0-0.3,0-0.4C528.1,330.3,528.1,330.5,528.1,330.6L528.1,330.6z M528.1,325.6c0,0,0-0.1,0.1-0.1h0.1c0,0.1,0.1,0.1,0.1,0.3
			C528.4,325.6,528.2,325.6,528.1,325.6z M528.8,323.8c0-0.1,0-0.1,0.1-0.3c0,0,0,0,0.1,0c0,0.1,0,0.3,0.1,0.4
			C528.9,324,528.8,323.8,528.8,323.8z M531,328c0-0.1,0.1-0.1,0.1-0.3C531.3,327.9,531.4,327.9,531,328z M530.7,325.4
			c0.1-0.4,0.1-0.4,0-1c0.4,0.1,0.4,0.4,0.6,0.9C531.1,325.4,531,325.4,530.7,325.4z M552.7,357.2c0-0.1,0-0.1,0.1-0.3
			c0,0,0,0,0.1,0C552.9,356.9,552.9,357,552.7,357.2z M553,356.3v0.1c0,0-0.1,0-0.1,0.1c0-0.9,0-1.7,0.1-2.6c0.1,0,0.1,0,0.3,0
			C553.6,354.6,553.3,355.7,553,356.3z M553.8,352.1C553.8,352.1,553.6,352.1,553.8,352.1c-0.3,0-0.4,0-0.7-0.1
			c-0.1-0.4-0.1-0.4-0.1-0.9c0.1,0,0.4,0.1,0.6,0.1c0.1,0.1,0.1,0.1,0.3,0.3C553.8,351.8,553.8,352,553.8,352.1z M552.9,348.5
			c0.3,0.1,0.6,0.1,0.9,0.3c0,0.1,0,0.4,0,0.6c-0.3,0.3-0.3,0.1-0.6,0C553,349.2,553,349.1,552.9,348.5z M553.9,345.3
			c-0.1-0.1-0.1-0.1-0.3-0.3c0.1,0,0.1,0,0.3,0C553.9,345.2,553.9,345.3,553.9,345.3z M556.3,351.2c-0.3,0-0.7-0.1-1-0.1
			c0-1.2,0.1-1.6,0.1-2.7c0.6,0.1,1,0.1,1.4-0.4c0.1,0,0.1,0,0.3,0C556.9,348.9,556.6,350.1,556.3,351.2z M555.8,346.2
			c0-0.3,0-0.4,0.1-0.7c0.3,0.3,0.6,0.6,0.9,0.9c-0.3,0-0.6-0.1-0.9-0.1H555.8z M557.5,347.1L557.5,347.1c-0.1,0-0.3-0.1-0.4-0.1
			c0-0.1,0-0.1-0.1-0.3c0.1,0,0.3,0,0.4,0C557.5,346.8,557.5,346.9,557.5,347.1z M558.4,344.8c-1-0.3-1.7-0.3-2.5,0.1
			c0-0.1,0-0.3,0-0.4c1.2-0.3,2.5-1,3-1.7C559.2,343.2,558.5,344.2,558.4,344.8z M563.1,341c-0.1,0-0.1,0.1-0.3,0.1
			c-0.4-0.7-1-1.3-0.7-2.2c0.6,0.3,1.2,0.6,1.7,0.7c0,0,0,0.1,0.1,0.1C563.7,340.3,563.4,340.6,563.1,341z M579.3,316.8
			c-0.7-0.1-1.6-1-2.5-1.2c-2.7-0.7-5.9,1.4-7.1,3.6c-0.4,0.9-1.3,1.9-0.7,3c0.4,0.6,0.9,1,1.3,1.6c0.7,0,0.9,0,1.4-0.1
			c0.1-0.1,0.1-0.4,0.3-0.6c0-0.9-0.6-1.2-1.3-1.4c-0.1-3,4-5.6,6.5-4.6c2.2,0.9,2.2,2.5,3.3,4.3c-0.7,0.4-0.7,2.3-1.2,3
			c-1.9,2.7-6.1,4.6-10.1,4.5c-0.3,0.4-0.4,0.7-0.4,1.3c0.6,0.6,0.9,0.3,1.4,0.7c1.2,0.9,1.7,3.6,1.9,5.2c-3.2,1.9-4.6,2.6-8.4,1.6
			c-0.3-0.9-0.7-1.7-1-2.6c-0.3,0-0.4-0.1-0.7-0.1c-0.3,0.1-0.4,0.3-0.7,0.4c-0.1,1-0.1,2-0.3,3c-1,1.9-3.3,3.9-5.3,4.6
			c-3.7,1.4-9.2,2-10.7-1.9c-0.1-0.4-0.6-1.2-0.4-1.9c0.3-1.4,1-2.3,1.7-3.3c0-0.4,0-0.4-0.1-0.6c-0.1-0.3-3-1.4-3.5-1.6
			c-0.6,0-0.7,0.1-1.2,0.4c0.1,0.7,0.4,1.2,1,1.4c0,0.1,0.1,0.1,0.1,0.3c-1,0.4-2.2,0.9-3.2,1.4c-0.6-0.3-0.9-0.7-1.9-0.7
			c-0.6,0.3-0.9,0.4-1.2,1.2c-0.6-0.3-1.2-0.4-1.7-0.7c0.6-1-0.3-1.3-0.1-2.2c0.1-0.3,0.3-0.6,0.4-0.9c1.4,0.7,1.7,2.5,3.6,2.5
			c0.3-0.1,0.4-0.3,0.7-0.4c0-0.3-0.1-0.7-0.1-1c-0.4-0.1-0.9-0.4-1.3-0.6c-0.1-0.1-0.4-1.2-0.4-1.4c-1.4-0.3-3.7,0-4-1.7
			c-0.4,0-0.7,0-1.2-0.1c0,0,0,0,0-0.1c1.2-1,3,0.6,3.9,1.2c0.6,0,0.9-0.1,1.2-0.4c0.3-0.3,0.3-0.6,0-1c-0.6-1-2.6-0.9-3.6-1.7
			c0,0-0.1,0-0.1-0.1c0,0,0,0,0-0.1c0.9,0,1.7,0,2.7-0.1c0.1-0.1,0.1-0.3,0.3-0.4c-0.1-0.3-0.1-0.6-0.3-0.7c-0.1-0.1-2.6-1.4-3-1.4
			c0.3-0.4,0.6-0.7,0.9-1.2c0.6,0.3,1.2,0.4,1.9,0.4c0.1-0.1,0.3-0.3,0.4-0.4c0-0.4,0-0.7-0.1-1.2c-0.6-0.3-1.4-0.7-2.2-0.4
			c0-0.3,0-0.6-0.1-0.9c-0.7-0.4-1.4-1-2.3-1.2c0,0,0-0.1-0.1-0.1c0.1,0,0.3-0.1,0.4-0.1c0.6-0.1,1.3,0.9,2.5,0.1
			c0.1-0.4,0-0.6-0.1-1.2c0.7,0.3,0.7,1.3,1.6,1.6c-0.4,0.4-0.6,0.6-0.4,1.4c0.3,0.3,0.4,0.3,0.6,0.7c0.4,0.1,0.9,0.3,1.3,0.1
			c0.4-0.3,0.6-0.4,0.7-1.2c-0.1-0.4-0.1-0.6-0.7-0.7c0.4-1.2,0.1-1.3,0-2.5c1.2,0,1.9,0.7,2.5,1.4c0,0.1,0,0.4,0.1,0.6
			c-0.3,0-0.6-0.1-0.9-0.1c-0.3,0.3-0.4,0.3-0.4,1c0.4,0.4,0.9,0.6,1.2,0.7c-0.4,0.3-0.6,0.1-0.7,0.6c0,0.1,0,0.1-0.1,0.3
			c0.7,1,0.9,1.2,2.3,1.4c0.3-0.1,0.4-0.4,0.7-0.6v-0.1c-0.4-0.7-0.6-1.2-1.6-1.3c0.4-0.4,0.9-0.9,1.4-1.3c0-3.9-4.9-4.9-7.6-4.2
			c-0.6-0.4-0.4-0.6-0.1-1.3c0.6,0,1.2,0.6,2,0.6c0.1-0.1,0.3-0.4,0.4-0.6c0.6-0.7-0.4-0.9-0.1-1.7c0.1-0.7,0.6-0.7,0.4-1.7
			c1-0.3,2.3-2.7,2.3-4c-0.7-0.6-1.6-1.2-2.7-0.4c-0.1-0.1-0.1-0.4-0.3-0.6c0-0.1,0.1-0.1,0.1-0.3c2.2-0.4,3.6,2,5.3,2.7
			c0.1,0,0.4,0,0.6-0.1c0.3-0.4,0.4-0.7,0.6-1.3c0.9-0.1,2.2-0.7,3-0.7c0.7,0,1.4,0.6,2.3,0.4c0.3-0.6,0.1-1.2-0.1-1.7
			c1.2-1.3,1.2-2.7,0.9-4.8c-0.4-0.4-0.9-0.7-1.4-1.2c-1,0.1-1.3,0.3-2.5,0.3c-0.4,0.4-0.6,0.7-0.4,1.4c0.9,0.4,1.9,0.4,2.3,1.2
			c0,0.4,0,0.7,0,1.2v0.1c-0.6-0.1-1.4-0.9-2.3-0.6c-0.7-0.9,0-2-1.2-2.6c-0.7-0.6-2.2-0.3-2,0.9c0,0-0.1,0-0.1,0.1
			c0-0.3,0-0.6,0-0.7c-0.1-0.1-0.3-0.3-0.4-0.4c1.4-0.6,2.7-1.2,4.3-0.7c0.1,0,3-1.7,3-1.9c0.1-0.1,0.1-1.6,0.1-2.3
			c-0.3-0.1-0.7-0.3-1-0.4c0,0,0,0,0-0.1c1.4,0.3,2.5,0.9,2.7,2.3c-0.4,0-0.7,0-1.2,0.1c-0.1,1.2,0.3,1.9,1.2,2.3c0.4,0,1,0,1.4,0
			c-0.1-1.2-0.1-1.6-0.6-2.3c1.2-0.3,1.6-2.3,1.4-3.7c0.7,0.1,0.9,0.4,1.7,0.4c0.1-0.1,0.3-0.3,0.4-0.4c0-0.3,0.1-0.6,0.1-0.7
			c-0.7-0.7-0.6-1.3-1.2-2.3c0.1,0,0.3,0,0.4,0c0-0.7,0.1-0.6,0.3-1.3c-0.4-0.6-0.4-0.7-1.4-0.7c0.1,0,0.4-0.1,0.6-0.1
			c0.1-0.1,0.1-0.4,0.3-0.6c-0.1-1-1.2-1.6-2.2-1.6c0.1-0.1,0.4-0.3,0.7-0.3c0.1-0.1,0.1-0.4,0.3-0.6c0.1,0,0.1,0,0.3,0
			c2.6,1.9,2.7,5.8,1.7,8.8c1.4,1.6,4.6-3.3,6.2-4.2c0.6,0.6,1.9,2.2,2.7,0.7c0-0.1,0-0.3,0.1-0.4c-0.3-0.6-0.6-0.9-1.2-1.2
			c0-0.1-0.1-0.1-0.1-0.3c2.2-1.6,5.8-3.3,9.1-2c0.4,0.1,1.2,0.3,1.3,0.7c0.3,0.9-1,2.2-1.3,2.6c-1.9,2-3.5,4.6-5.6,6.2
			c0,0.4,0.1,0.7,0.1,1.2c0,0,0.1,0,0.1,0.1c0.9-0.3,2-1.2,2.9-1.4c3.5-1.2,7.1-1,10.7-0.3c0,0.3,0,0.7,0.1,1
			c-0.9,2.3-4,4.5-6.3,5.5c-0.4-0.1-0.7,0.3-0.7,1c0,0,0,0.1,0.1,0.1c1.2,0.7,5.2-0.4,6.9,0c4,1,7.8,6.1,4.3,10.4
			C583.7,315.3,580,316.9,579.3,316.8z M552.3,291.3c0.1,0.1,0.3,0.1,0.4,0.3C552.5,291.4,552.6,291.5,552.3,291.3z M522.9,246.8
			c-1.3-0.3-2-0.7-3.5-0.6l-0.1-0.1c-1,1.7-2.3,0.6-3.3,1.2c-3,1.7-9.1,3.6-13.4,3.5c-0.1,0.1-0.4,0.4-0.6,0.6
			c0.4,1.9,0.4,4.2,0.1,5.9c0,3,0,5.9-0.1,8.9c-0.3,4.2-0.6,8.4-0.9,12.5c0.3,3.5-1.4,10.5,0.7,12.3c0.9,0.6,4.8-0.7,5.9-0.9
			c5.3-0.9,10.5-2.2,15.1-3.6c0.6-1.2-0.3-6.3,0.1-9.1C524.6,267.8,521,256.1,522.9,246.8z M514.8,249.4c0.1,0,0.4,0,0.6,0
			c0.6,2.7,0,5.6,0.1,8.7c-1.4,0.1-2.9,0.4-4.3,0.6c0-2.2-0.1-4.5-0.3-7.1c-0.3-0.1-0.6-0.4-0.7-0.6h-0.1
			C511.5,250.4,513.1,250,514.8,249.4z M515.1,271.4c-1.3-0.3-3,0.1-4.3,0.6c0,0,0,0-0.1,0c0-3.2,0-6.5,0-9.7
			c0.6-0.9,2.6-0.4,3.7-1.2c0.3,0,0.6,0,0.7,0c0,0,0,0.1,0.1,0.1c-0.1,1.6,0.4,6.6-0.4,7.8C515.5,269.6,515.2,270.5,515.1,271.4z
			 M515.1,282c-1.3,0-3.2,1.2-5,1.3c0,0,0-0.1-0.1-0.1c0.3-2.6,0.4-5.2,0.7-7.8c0.3-0.4,3.7-1,4.3-1.3c0,0,0,0,0.1,0
			C515.8,275,515.2,280.3,515.1,282z M503.9,252.3c1.2-0.3,2.5-0.6,3.6-0.9c0.1,0,0.1,0,0.3,0c0,2.7,0.4,5.2,0.1,8.1
			c-1.4,0.3-2.9,0.7-4.3,1l-0.1-0.1C503.7,259.2,503.7,252.5,503.9,252.3z M503.4,270.8c0.4-1.3,0.1-6.5,0.1-7.4c1,0,2.3,0,3-0.4
			c0.4,0,0.7,0,1.2,0c0.7,2.9,0.3,6.6,0.1,9.5c-1.2,0.6-2.9,1.2-4.6,1.2C503,272.7,503.1,271.4,503.4,270.8z M502.8,276.5
			c1.4-0.1,3-0.3,4.2-0.6c0.3,0,0.4,0,0.7,0c0,1.6,0,3,0,4.6c-0.1,1.2-0.6,2.3-0.6,3.5c-1.4,0.3-3,0.6-4.3,1
			C502.3,283.9,502.7,278.1,502.8,276.5z M503.1,288.8c-0.1-0.7-0.6-1.6-0.3-2.5c3-0.7,6.6-1.4,9.4-2c1.6-0.4,3.5,0.1,4.3-0.6
			c0.7,0.4,1.4,0.7,2.2,1.2c0.1,0.1,0.1,0.3,0.3,0.4C516.8,286.5,505.9,289.4,503.1,288.8z M521.2,279.6c-0.1,0.9-0.6,2.5-0.3,3.3
			c0,0.1-0.1,0.3-0.1,0.4c-1.6,0-1.9-0.9-3.3-1.2c0.1-2.3-0.6-4.5-0.4-7.4c0.4-8.2-0.6-17.7,0.4-26.2c0.9-0.3,1.6-0.4,2.5-0.7
			c0.4,0,0.7,0,1.2,0c0,2.7,0,5.6,0.1,8.4c0.7,4,0.4,8.1,0.4,11.8c0.1,1.3,0.1,2.6,0.3,4C521.6,274.8,521.6,277,521.2,279.6z
			 M460,272.4c0.3,0.7-0.1,2.5,0.6,3c0.9,0.6,8.8-0.3,10.2-0.9c0.6-0.3,0.9-0.7,1.6-0.7c0.3-1.6-0.1-3.6-1-4.2
			c-1.3-0.3-2.7,0.3-4.6,0.3c-0.1-0.4-0.1-0.4-0.1-1.2c0.7-0.1,1.3,0,2-0.1c0.4-0.4,0.9-0.7,1.4-1.2c0.4-1.2,0.1-2.5-0.1-3.5
			c-1-0.6-2.2-0.4-3.3-0.3c-0.1-0.1-0.1-0.3-0.3-0.4c0.1-0.6,0.3-0.6,0.1-1.2c1.4-1.2,3.2-0.4,4.9-1.7c0-0.7,0.4-3-0.1-4.3
			c-0.3-0.6-0.7-0.6-1.4-0.6c-1.6,1-7.2,2.6-9.2,2.7c-1.3,2,0.9,12.3-1.4,13.6C459.4,271.9,460,272.1,460,272.4z M462,259.7
			c1.6-1.9,5.2-1.2,7.5-2.6c0.1,0,0.3,0,0.4,0.1c0,0.9-0.1,1.3-0.4,2c-2.5,1-5.6,0-4.9,3.7c0.1,1.2,0.1,1.9,0.9,2.5s2-0.3,2.7,0h0.1
			c0,0.3-0.1,0.6-0.1,0.9c-0.4,0.4-1.9,0.6-2.6,0.4c-1,1.2-0.7,2.3-0.9,4c0.6,0.4,0.6,0.9,1.4,1.2c0,0,4-0.3,4.3-0.3
			c-0.1,0.3-0.1,0.1-0.3,0.4c0,0.9-5.8,1.9-7.6,1.7C461.3,269.8,462,264.7,462,259.7z M268.4,290.4c0.9,0.6,1.2,0.1,1.7,0.3
			c0.6,0.1,1.7,0.9,2.5,1.3c0.9,0.4,2.3,1.4,3.2,2c2,1.3,4,1.7,6.2,2.7c1.2,0.6,1.7,1.4,3.3,1.4c1-1.4,0.1-2.6,0.6-4.5
			c0.9-4.2,0.9-8.9,0.4-12.5c0.1-1.6,0.1-3.2,0.3-4.9c-0.1-2.6,0.7-5.8,0.1-8.1c-0.6-1.3-2.6-1.9-3.6-2.7c-3.3-2.6-8.2-5.6-11.8-7.6
			c-1,0.4-1.6,0.4-2.3,1.2c0,2.6,0,5.2-0.1,7.8c-0.1,2.7-0.1,5.5,0.1,8.2c-0.1,2.2-0.3,4.5-0.4,6.6
			C268.2,283.9,268.5,287.9,268.4,290.4z M285.2,284.8c-0.1,2.5-0.4,5-0.6,7.5c-1.3-0.1-3-1.7-4.5-1.7c-0.3-0.1-0.3-7.4,0.1-8.8
			c1.9,0.6,2.9,2,4.6,2.7C285.4,284.3,285.4,284.3,285.2,284.8z M280.5,265.4c1.3,0.3,3.5,2.3,4.8,3c0.9,3.9-0.6,8.5-0.1,12.4
			c-1.9-0.6-3.2-2.3-4.9-3C279.5,274,280.8,268.8,280.5,265.4z M274.4,261.8c1.3,0.4,2,1.3,3.2,1.7c0.6,1-0.4,9.1-0.4,11.8
			c-0.7-0.4-1.6-0.9-2.3-1.2C274.3,273.4,274,262.8,274.4,261.8z M274.4,277.6c0.7,0.4,1.6,1,2.3,1.4c0.9,1.3,0.1,7.8,0.1,9.4
			c-0.7-0.4-1.6-0.9-2.3-1.2C273.5,284.9,273.8,280.3,274.4,277.6z M277.6,292c0.7,0.4,1.4-0.1,2.3,0.1c0.6,0.1,3.6,2,4.2,2.5
			c0,0.4,0,0.7-0.1,1.2l-0.1,0.1c-3.3-0.9-5.6-3-8.2-4.3c-1.3-0.6-3.5-1.2-3.9-2.5c0.4-0.1,0.9-0.4,1.2-0.9
			C274.4,288.8,277.2,290.4,277.6,292z M270.4,260.1c0.6,0.3,1.3,0.6,2,0.7c-0.3,1.4,0.1,5.9,0.4,7.4c-0.1,1.3-0.1,2.6-0.3,3.9
			c0,0.7,0.1,1.4,0.1,2.2c-0.1,1.6-0.3,2.9-0.1,4.3c-0.1,0.9-0.3,1.6-0.4,2.5c-0.3,1.7-0.3,3.9,0.3,5.5c-0.6,0.4-1,0.9-1.6,1.2
			c-0.1,0-0.3,0-0.4,0c-0.6-2.3-0.3-4.5-0.3-7.5c0-0.4-0.1-0.9-0.1-1.3c0.1-0.7,0.4-1.4,0.6-2C269.5,272.4,269.9,264.6,270.4,260.1z
			 M456.4,275.2c0.1-1.6,0.3-3,0.4-4.6c-0.3-0.4-0.7-0.6-1.2-0.7c-0.7,0.4-3.2,1.4-4.2,1.2h-0.1c0-3.9,1.3-8.4-0.1-11.7
			c-0.3,0-0.6,0-0.9-0.1c-0.9,0.7-2.5,0.6-3.5,1.2c-0.1,0-0.1,0-0.3,0.1c0.1,6.1-0.9,11-0.4,16.2
			C447.9,277.4,454.7,276.4,456.4,275.2z M448.3,261.8c0.3-0.4,1-0.4,1.4-0.7c0.1,0,0.3,0,0.4,0.1c0.4,3-0.7,5.9-1,8.1
			c-0.1,0.6,0.3,0.3,0.4,0.6c0,0.9-0.1,1.9-0.1,2.7c0.3,0.3,0.7,0.4,1,0.7c1.4-0.4,2.7-0.9,4.2-1.2c0,0,0.1,0,0.1,0.1
			c0,0.6,0,1-0.1,1.6c-2,0.7-4.5,1.2-6.6,1.6c-0.6-0.7,0.3-9.4,0.3-10.7C448.3,264,447.9,262.6,448.3,261.8z M438.2,261.5
			c-2.5,1-3.6,0.3-5.3,2.3c-0.1,0.7-0.4,1.3-0.6,2c-1.6,4-2,11.2,3,12.5c6.2,1.4,10.2-5,9.1-10.8
			C443.7,264.4,441.6,262.4,438.2,261.5z M439.2,276c-0.9,0.4-2.2,0.1-3,0.4c-4.6-0.1-3.9-8.7-2-11.5c0.6-1,1.7-1.2,2.7-1.7
			c1.4,0,2.2,0.1,3.2,0.4c0.3,2.2,1.7,2,2.3,3.6C443.6,270.8,441.7,274.8,439.2,276z M423.1,280.7c0.9-0.3,1.7-0.6,2.7-0.9
			c1.4-0.3,2.5-0.1,3.2-1.3c0.7-1,0.3-2.5,0.1-3.7c-2-1.6-4.2,0.3-6.5-0.1c-0.1-1-0.9-1.7-0.4-3c0.7-3,3.3-3.6,6.1-2.9
			c0.7-0.6,1.2-1.4,1.4-2.3c-1.4-1.7-0.7-2.7-3.7-3.3c-1.6,0.6-3.2,1.2-4.9,1.7c-3.3,1.9-5.9,8.9-3.2,13.1
			C418.6,279.1,421.2,281,423.1,280.7z M427.3,265.2c0.1,0.1,0.1,0.3,0.3,0.4c-0.1,0.4-0.3,0.7-0.4,1.2c-3.9-1.2-6.5,2.3-7.2,5.6
			c0.3,1.2,0.6,2.3,0.9,3.5c2.2,1.6,3.7,0.4,6.5,0.4c0,0.4,0,0.9,0,1.2c-3.7,2.5-7.6,1.7-8.8-2.9
			C417.3,269.8,423.2,263.1,427.3,265.2z M406.9,283.8c2-0.6,4.6-1.3,6.9-1.3c0.9-1.7,1-2.9,1-5.3c-0.1-0.1-0.1-0.3-0.3-0.4
			c-1.6-0.9-3.2,0.4-5.2,0.4c0.9-0.4,1.9-0.7,2.9-0.7c0.7-1,0.9-2,0.9-3.6c-0.4-0.4-0.7-0.7-1.2-1.2c-0.7,0.1-1.6,0.3-2.3,0.4
			c0-0.3,0-0.4,0.1-0.7c1.7-0.4,3.9-0.9,5.3-1.3c0.3-0.6,0.7-4.6,0.4-5c0-0.1-0.1-0.1-0.1-0.3c-0.3,0-0.6,0-0.9-0.1
			c-2.2,1.6-9.1,1.4-10.1,3c-0.4,3.7-0.9,7.5-1.3,11.2c0,1.4-0.6,3.6,0,4.9C404.1,284.8,405.8,284,406.9,283.8z M405.5,272.7
			c0.3-1.3-0.1-3.6,0.7-4.3c1.4-1.3,4.8-0.6,6.6-1.6c0.3,0,0.6,0,0.7,0.1c0.1,0.7,0,1.3-0.1,1.7c-3.2,0.6-6.9,0.4-5.6,5.2
			c1.2,0.6,1.6,0.1,3-0.1c0,0.1,0,0.3-0.1,0.4c-1.2,0.3-2.5,0-3.2,1.2c-0.1,1-0.3,2-0.3,3.3c1.6,1.2,3.6,0.1,5.2-0.1
			c0,0,0.1,0,0.1,0.1c0.1,0.7,0,1.2-0.1,1.7c-2,1.2-4.9,1.4-7.5,2C404.5,281.5,405.2,274.4,405.5,272.7z M437.8,265.7
			c-0.4,0-0.9,0-1.3,0.1c-2.6,2.7-3.5,8.1,2.3,8.1c0.7-0.6,1.4-1.3,2-1.9C442.6,269.3,441.3,265.7,437.8,265.7z M438.4,272.1
			c-0.3,0.4-1.4-0.3-1.7-0.4c-0.7-1.2,0.1-2.9,0.4-3.7c0.4-0.1,0.9-0.3,1.2-0.4c1,0.1,1.3,0.6,1.7,1.3
			C440.3,270.2,439.2,271.4,438.4,272.1z M298.6,303.5c5,2.2,8.9,5.6,14.4,7.5c1.7-0.9,0.3-4.2,0.9-6.8c0.3-1.3-0.1-2.2-0.1-3.3
			c0.3-4.8,0.3-9.8,1.2-14.3c0.3-1.3-0.1-2.9,0.4-3.9c-0.9-1.3-3.2-1.4-4.3-2.6c-0.3-0.3-0.1-0.1-0.1-0.6c-1.6,0.4-3.3-1.4-4.5-2.2
			c-1.9-1.3-6.8-4.6-9.1-5c-0.6,0.3-1,0.7-1.6,1c-0.9,4.8-0.3,8.7-1.2,14.1c0.1,1.9,0.1,3.6,0.3,5.5c-0.1,2.9-0.4,5.8-0.6,8.7
			C294.5,302.2,297.8,303.2,298.6,303.5z M308,280.4c1.9,0.9,3.7,1.9,5.6,2.7c-0.1,3.2-0.4,6.2-0.6,9.4c0,0-0.1,0-0.1,0.1
			c-1.7-0.9-3.3-1.7-5-2.7C307,288.9,307.6,282.2,308,280.4z M307.4,293.3c1.4,0.4,3.5,2.7,5,2c0,0,0.1,0,0.1,0.1
			c-0.1,2.7-0.3,5.6-0.4,8.4c0,0,0,0-0.1,0.1c-0.7-0.3-0.7-0.9-1.2-1.2c-1.3-0.7-2.9-0.6-3.9-1.6C306.9,301.1,307.1,294,307.4,293.3
			z M309.9,304.8c0.1,0.3,0.3,0.6,0.4,0.9c0.6,0.1,1,0.3,1.6,0.4c0,0.9-0.1,1.2-0.4,1.7c0,0.1,0,0.4,0,0.6c-4.9-2.3-9.2-4.8-14-7.2
			v-0.1c0.3-0.3,0.7-0.6,1-0.9c2,0.4,4.6,0.7,5.6,2.7C306.4,303.2,308.3,303.7,309.9,304.8z M300.8,276c0.7,0.1,4.2,2,4.3,2.5
			c0.1,0.3-0.9,8.7-1,9.5c-1.6-0.3-2.3-1.4-3.6-1.9C300.1,284.8,300.2,277.8,300.8,276z M300.4,289.7c1.3,0.7,2.5,1.3,3.7,2
			c0.4,2.7-0.1,6.1,0.1,8.4c-1-0.3-3-1-3.6-1.7C299.9,296.9,299.9,291,300.4,289.7z M295.9,281.3c0.3-2.3,0.6-4.8,0.9-7.1
			c0.6,0.3,1.3,0.4,1.9,0.7h0.1c-0.1,5.6,0.1,14.1-0.7,20.2c-0.1,0.7,0.4,2,0.4,3c-0.7,0.6-1.4,1.4-2.6,1.7c0-2.2,0-4.3,0.1-6.5
			C296.2,288.9,295.3,285.5,295.9,281.3z M362.7,278.6c-2,0.4-5,0.3-5.9,1.9c0,1,0.1,2,0.1,3c-0.1,1.6-0.4,3.2-0.6,4.9
			c0,1.6,0,3.3,0.1,4.9c-0.7,6.1-0.6,12.7-2,18.9c-0.4,1.9-1.4,7.5,0.3,8.1c0.6,0.4,4.6-0.9,5.8-0.9c1.4,0,4-0.7,5.9-1.2
			c1,0,2,0,3-0.1c2.3-0.6,4.8-1.9,7.5-1.4c0.4-0.9,1.4-1.2,1.7-2c0.4-1.3,0-3.3,0.1-4.3c0.6-4,0-8.1,0.4-11.5
			c-0.1-0.9-0.1-1.7-0.3-2.6c0.4-3.2,0-7.4,0.3-10c0.3-3.2,0.7-6.3,1-9.4c-0.6-0.6-1.6-1.3-2.6-1.4
			C375.5,277.4,366.1,277.8,362.7,278.6z M358.6,281.2c1.6-0.9,3.3-0.4,5.2-1.2c0,0,0,0,0.1,0c0.7,1-0.3,5.8,0,7.2
			c-1,1.3-3.7,1.2-5.6,1.7c-0.1,0-0.1-0.1-0.3-0.1C357.9,287.7,358.3,282.7,358.6,281.2z M358.1,297.9c0-2,0-4,0-6.2
			c1.4-0.3,3.6,0.1,5-0.4c0.1,0,0.3,0,0.4,0c0.4,1.4,0.1,8.5-0.3,9.7c-0.6,0.9-4.5,1.2-5.6,1.4c-0.1,0-0.1,0-0.3-0.1
			C357.6,300.8,357.8,299.3,358.1,297.9z M357.2,305.2c2.3,0.4,3.7-0.6,5.9-0.6c-0.1,3-0.3,6.1-0.4,9.1c-2,0.4-4.3,0.7-6.5,0.7
			C356.3,311,356.9,308.4,357.2,305.2z M364.1,317.1c-2,0.6-5.9,1.7-7.8,1.4c-0.1,0-0.1,0-0.3,0.1c0-0.4,0-0.7-0.1-1.2
			c0.4-0.1,0.7-0.1,1.2-0.3c0-0.3,0.1-0.7,0.1-1c4.6,0,10.8-1.4,15.4-1.9c0.3,0.3,0.6,0.6,0.7,0.7
			C370.6,316.8,367.7,315.9,364.1,317.1z M373.2,311.7c-2.2,0.7-4.6,1-6.9,1.6c0-3.5,0.4-5.6,0.4-9.2c1.9-1,5-0.3,6.6-1.6h0.1
			C374.4,304.1,373.5,310,373.2,311.7z M373.8,299.6c-2.3,0.4-5,0.3-6.5,1.2c-1-0.7,0-7.8-0.4-10h0.1c1.9-1.4,4.8,0.3,6.8-1
			c0.1,0,0.3,0,0.4,0C374.2,292.6,374.6,296.7,373.8,299.6z M374.4,286.9c-2.2-0.3-4.9,0.3-7.1,0.3c0-1.4-0.3-3.2-0.1-4.3
			c0.1-1.2,0.3-2.2,0.1-3.3c1.6-0.9,5.3-0.3,7.1-1.2C375.5,279.1,374.5,285.8,374.4,286.9z M377.8,287.7c-0.9,2.7,0.3,6.8-0.1,10.1
			c-0.6,5-0.4,10.8-0.9,15.9c-0.1,0-0.1,0-0.3,0.1c-0.4-0.4-0.9-0.7-1.3-1.2c-0.3-0.6,0.6-7.1,0.4-8.5c-0.1-9.1,1.2-17.3,1.2-25.8
			c0.3-0.1,0.6-0.3,0.7-0.4c0.1,0,0.3,0,0.4,0.1C378.2,278.1,378.1,286.6,377.8,287.7z M487.3,288.5c0.4-2.9,0.7-5.5,0.4-8.1
			c0-0.9,0.3-2.3-0.1-3c-0.3-0.6-1.3-0.4-1.7-0.7c-3.6,1.9-8.7,2.5-12.8,3c-6.1,0.9-12.1,2.7-17.4,4.3c-2.5,0.7-6.2,1.7-8.4,1
			c-0.1,0.1-0.3,0.4-0.4,0.6c0.4,2.5-0.1,7.9-0.6,10.7c-0.1,1.2-0.9,3.5-0.1,4.2c-0.3,0.7-0.6,0.6-0.7,1.6c0,0,0,0.1,0.1,0.1
			c1,0.7,8.8-1.3,10.5-1.7c5.6-1.6,12.8-2.9,18-4.3c4.3-1.2,9.4-1,13-2.7C487.4,291.5,487,290.4,487.3,288.5z M475.3,281.2
			c0.4-0.4,5.3-1.4,6.2-1.4c0.1,0.9,0.1,2,0.1,3c-2.2,0.1-4,1.3-6.3,1.4c0,0,0-0.1-0.1-0.1C475.4,283,475.6,282,475.3,281.2z
			 M474.4,287.8c1.6-1,4.2-1.2,5.9-1.9c0.3,0,0.7,0,1,0c0,1,0,2.2,0.1,3.2c-2.2,0.9-5.2,1.3-7.4,2.2
			C473.7,290.5,474.3,288.9,474.4,287.8z M467.4,282.3c1.6-0.3,3.7-0.3,5-0.9c0.1,0,0.1,0,0.3,0c0,0,0.1,0,0.1,0.1
			c-0.1,1.2-0.4,2.2-0.6,3.3c1.4,0.4-4.3,0.9-4.6,1c-1.7,0.6-6.3,2.2-8.1,2c0.1-1.2,0.1-2.3-0.1-3.3
			C462.2,283.6,464.8,282.9,467.4,282.3z M459.6,291.3c2.3-1,5.8-1.9,8.4-2.5c1.2-0.1,2.3-0.3,3.3-0.4c0.1,0,0.1,0,0.3,0
			c0,0,0.1,0,0.1,0.1c-0.3,1.2-0.1,2,0,3.3c-4.3,1-8.5,2-12.8,3C459.1,293.6,459.3,292.4,459.6,291.3z M448.5,287.2
			c2.6-1.4,5.8-0.9,8.5-2.3c0.1,0,0.3,0,0.4,0c0,1.2-0.1,2.3-0.1,3.3c-0.6,0.9-7.2,2.5-8.7,2.5C448.2,289.7,448.2,288.2,448.5,287.2
			z M448.2,293.3c0-0.1,0-0.1,0.1-0.3c2,0.6,6.1,0,8.1-1.2c0.1,0,0.3,0,0.4,0.1c-0.3,1.3-1,2-0.6,3.2c-0.6,0.6-7.2,1.9-8.2,1.7
			C447.9,296,447.8,294,448.2,293.3z M484.1,292.4c-4.5,1.3-9.7,1.7-14.1,2.9c-7.2,1.9-14.7,3.6-22.2,5.2c0,0-0.1,0-0.1-0.1
			c0-0.4,0-0.9,0.1-1.4c1.2-1.2,7.2-1.7,9.1-2.3c5.9-1.7,13.8-3.2,19.9-4.9c1.7-0.4,3.7-0.1,5.2-1c0.3,0,0.6,0,0.9,0
			C483.2,291.4,483.7,291.8,484.1,292.4L484.1,292.4z M485.4,290.8c-0.7-0.6-1.4-1-2.2-1.6c0-0.7-0.3-2.3-0.1-3
			c0.4-2.3,0.9-5,0.3-7.1c0.9-0.3,1.9-0.1,2.6-0.6C487,280,485.4,288.7,485.4,290.8z M441,286.4c-0.4-0.1-0.7-0.1-1.2-0.3
			c-0.7,0.6-1.6,0.1-2.5,0.4c-1.9,0.6-4.6,1.3-6.5,1.7c-0.9,0-1.7,0.1-2.7,0.1c-2.2,0.6-5.2,1.7-7.2,1.7c-1.4,0-3.6,0-4.6,0.4
			c-2.2,0.4-4.5,1-6.6,1.4c-1.4,0-3,0.9-4.5,0.7c-0.4,0-0.7-0.1-1.2-0.1c-0.4,0.3-0.7,0.6-1.2,0.7c-0.9,0.1-1.9,0.3-2.7,0.4
			c-2.5,0.9-5.2,1.3-8.5,1.2c-0.1,0.1-0.3,0.4-0.4,0.6c-0.4,0.4-0.3,4.3-0.4,5.5c-0.1,0.6-1.3,10.4-1.2,11.1c0.4,1,1.6,3.5,3.9,2.7
			c7.8-2.2,16.3-4,24.2-6.1c3.3-0.9,7.1-1,9.8-2c1-0.1,2-0.1,3-0.3c1-0.3,2-0.7,3-1c0.6-0.1,2,0,3-0.4s2.2-1.4,3-1.7
			c0.4-2-0.4-3.7,0.1-5.9C440.5,294.1,441.3,290,441,286.4z M434.3,288.9c0.1,0,0.3,0,0.4,0c-0.1,1.7-0.3,3.5-0.4,5.2
			c0,0.1,0.1,0.4-0.1,0.4c-3.2-1.2-5.8,1-9.1,1c-0.1-1.4,0.6-3-0.1-4.8C427.6,289.4,431.3,290.4,434.3,288.9z M424.4,299.3
			c2.9-1.2,6.6-1,9.1-2.2c0.3,0,0.6,0,0.9,0c0.3,1.4-0.1,2.7-0.7,3.6c-1.9,0.4-9.1,2.9-9.7,2.6C423.2,303.1,424.2,300.3,424.4,299.3
			z M406.2,294.3c3-1.7,8.8-1.6,11.5-2.5c1.4-0.4,2.9,0.1,4.2-0.6c0.1,0,0.3,0,0.4,0.1c-0.1,1.9,0,3.6-0.4,5.2
			c-5.3,1-10.7,1.6-16,2.7c0,0,0,0-0.1,0C405.4,298,406.2,295.9,406.2,294.3z M405.2,302.8c3.9-1.6,10.1-1.9,15.7-2.9c0,0,0,0,0.1,0
			c0.4,1.6,0.1,2.5,0.9,3.9c-0.9,1.4-3.2,1-4.9,1.4c-1.9,0.4-4.6,0.4-6.3,0.9c-1.9,0.4-3.7,1.4-5.9,1.4
			C404.6,305.8,405.2,304.1,405.2,302.8z M392.8,297.3c1-0.6,8.9-2.3,10.5-2.3c-0.1,1.6-0.4,3.2-0.6,4.6c-0.3,0.3-9.8,2.5-10.1,2.3
			C392.8,300.6,392.8,299,392.8,297.3z M392.4,305.2c0.4-0.7,2.5-0.4,3.3-0.6c2.2-0.4,4.3-0.9,6.5-1.3c0,0,0,0.1,0.1,0.1
			c-0.3,1.2-0.4,3.5,0.1,4.3c-0.9,0.9-9.5,1.9-10.7,1.9C392.1,308.3,392.2,306.8,392.4,305.2z M414.9,308c-4.2,1.2-7.6,1.2-11,2.2
			c-1.3,0.4-10.1,2.9-11,2.5c-0.1-0.1-0.3-0.6-0.3-0.9c0,0,0-0.1,0.1-0.1c5.3-0.7,12.3-2.5,17.6-4c2.5-0.3,4.8-0.6,7.2-0.7
			c2.5-0.7,5.3-0.9,7.8-1.7c1.6-0.6,3.7-1.6,5.5-2c1.3-0.4,2.3-0.3,3.3-0.7c0.4,0.1,0.9,0.4,1.2,0.6c0,0.1,0.1,0.1,0.1,0.3
			C428.7,305,421.9,306.1,414.9,308z M437.9,302.2c-3.7-0.6-1.6-10-1.4-13.6c0.9-0.1,1.6,0.3,2.2-0.1c0.1,0,0.3,0,0.4,0
			C440.1,292.6,437.9,297.6,437.9,302.2z M522,295.6c-2,1.4-5.6,2.3-8.4,2.9c-1,0.1-2,0.1-3,0.3c-1.2,0.3-2.7,1-3.7,1.4
			c-0.6,0-1.2,0-1.7,0.1c-2,0.9-1.3,4.5-1.7,6.8c-0.1,1.7-0.3,3.5-0.4,5.2c0.1,0.9,0.3,1.6,0.4,2.5c-0.4,2.6-0.7,5.3-1.2,7.9
			c-0.3,1.4-1.6,3-0.4,4.6c0.7,1,3.3-0.6,4.9-0.4c0.7-0.1,1.4-0.4,2.2-0.6c1.3,0.1,2.5-0.9,4-1.4c1.7,0.6,7.9-2.2,8.4-3.6
			c0.4-1.3-0.9-3-0.4-4.6c1.6-5.5,2.6-13.4,2.5-20.6c-0.3-0.1-0.4-0.3-0.7-0.4C522.5,295.7,522.2,295.7,522,295.6z M511.8,300.5
			c1.6-1,4-0.6,5.9-1.4h0.1c0.4,2.9-0.4,7.1-1.2,9.7c-1.7,0-3.5,0.4-4.9,0.9c-0.1,0-0.1,0-0.3-0.1
			C511.5,306.5,511.6,303.5,511.8,300.5z M511.1,313.3c1.6-0.4,3.5-1.2,5.3-1.3c0,2-0.1,3.5-1,4.6c0.1,0,0.3,0.1,0.4,0.1
			c0.1,0.9-0.1,1.3-0.4,2c-0.9,1-3.9,1.7-5.2,1.7C510.6,318.5,510.5,315.5,511.1,313.3z M505.7,302.2c1.3-0.1,2.2-0.6,3.2-1.2
			c0.9,1-0.4,7.5-0.1,8.7c-0.4,0.7-2.9,1.3-3.9,1.4C504.6,308.6,504.9,304.8,505.7,302.2z M504.4,317.8c0.1-1,0.7-2,0.6-3.3
			c1-0.3,2-0.3,3-0.7c0.9,1.4-0.4,5.8-0.4,7.6c-0.9,0.3-1.7,0.6-2.6,0.9c-0.1,0-0.4,0-0.6,0C504.4,321,504.1,319.4,504.4,317.8z
			 M514.7,322.8c-3.9,1-7.1,2.5-11.2,2.5c0.1-0.3,0.1-0.7,0.3-1c3.2-1.3,7.4-2,9.5-2.7c1-0.4,2.3,0.1,3.2-0.6c0.6,0.3,1,0.6,1.6,0.9
			C517.1,322.6,516.1,322.4,514.7,322.8z M521,307.6c-0.6,2.2-1.3,4.8-1.7,6.6c-0.1,0.7,0.1,4.6-0.3,5.8c-0.1,0.1,0,0.1-0.3,0.1
			c-0.3-0.1-0.6-0.3-0.9-0.4c-0.1-0.4,0-0.4-0.1-0.9c0.3-0.3,0.6-0.6,0.9-0.9c-1.3-4.6,0.1-11.2,0.6-16.3c0.1-1.2,0.4-2.2,0.1-3
			c0.6-0.1,1.3-0.3,1.9-0.7c0.1,0,0.1,0,0.3,0C521.3,301.1,521.2,304.4,521,307.6z M560,295.6c-0.1,0.1-0.3,0.3-0.4,0.4
			c0.1,0.4,0.1,0.9,0.3,1.2c0.4,0.3,1,0.6,1.4,0.7c0.1-0.1,0.4-0.3,0.6-0.4c0.1-0.1,0.1-0.4,0.3-0.6c-0.3-0.4-0.6-0.7-0.9-1.2
			C561,295.7,560.4,295.7,560,295.6z M553.9,298c0.4,0.4,0.9,0.1,1.4,0.1c0.1-0.3,0.3-0.7,0.4-1c-0.6-0.9-0.9-1-2-1.3
			c-0.1,0.1-0.4,0.1-0.6,0.3c0,0.1-0.1,0.4-0.1,0.6C553,297.3,553.2,297.7,553.9,298z M286.2,315.2c-0.4-2.9,0.1-5.5-0.4-8.2
			c-2.5-1.6-5.2-2.6-7.5-4c-1.6-1-2.6-2-4.6-2.9c-1.4-0.6-2.2-2-4-2.2c-0.3,0.1-0.4,0.1-0.7,0.3c-0.1,0.6,0.1,0.9,0.1,1.6
			c-0.3,2.9-0.1,5.5,0,8.5c0.4,6.1,0.1,12.5-0.1,18.2c1.3,1.4,3.6,1.6,5.2,2.7c3.2,2.3,7.2,4.2,10.5,6.3c0.7-0.1,1.2-0.3,1.6-0.7
			c0.3-2,0-5,0.1-7.8C286.7,323.3,286.8,319.1,286.2,315.2z M280.5,306.1c1.3,0.7,2.6,1.3,3.9,2c0.6,0.9,1,7.8,0.7,8.7v0.1
			c-1.4-0.1-3.6-1-4.3-1.9C280.3,314.8,280,307.3,280.5,306.1z M277.7,304.5c-1.3,2,0,6.3-0.3,8.9c0,0.1,0,0.3,0.1,0.4
			c-1.3-0.6-2.6-1.2-4-1.7c0-1,0-2,0.1-3c0.1-3-0.3-4.8-0.3-7.5C274.7,302.1,276.9,303.5,277.7,304.5z M278.2,324.9L278,325
			c-0.1,0-0.3,0-0.4,0c-0.9-0.6-1.6-1.3-2.7-1.7c-0.1-0.7-1-7.6-0.7-8.2c1.2,0.6,2.5,1.2,3.6,1.7
			C278.2,317.2,278.2,323.4,278.2,324.9z M270.8,324.1L270.8,324.1c-0.1,0-0.1,0-0.1,0c-0.9-4-0.4-9.5-0.3-13.8
			c0.1-3.2-0.7-6.9-0.4-10c0.4,0.1,0.7,0.1,1.2,0.3c0.9,1.2,0.1,2.5,0.4,4.3c0.6,2.6-0.6,6.2,0.1,9.2c0.3,1.3,0.4,2.6,0.7,4
			c0.3,1.3,0.4,3.9-0.1,4.9C271.8,323.4,271.2,323.4,270.8,324.1z M284.1,333.5c-2.5-1-11.7-6.2-12.5-7.8l0.1-0.1
			c0.1-0.1,0.3-0.3,0.4-0.4c3.5,0.3,5.9,2.6,8.1,4.5c0.4,0.4,3.5,1.6,4.2,1.9C284.5,332.4,284.7,332.9,284.1,333.5z M284.8,328.5
			c-0.1,0.3-0.9,0.3-1.4,0.3c-0.9-0.6-1.9-1.2-2.7-1.7c-0.6-1.3,0.6-3,0.6-5c0-1.2-0.3-2.2-0.3-3.6c1.6,0.3,2.3,1,4,1.3
			C285.2,320.7,285.2,328,284.8,328.5z M554.5,302.1c0.1-0.1,0.3-0.3,0.4-0.4c0-0.4-0.1-0.7-0.1-1.2c-0.3-0.3-0.7-0.7-1-1
			c-0.3,0-0.7,0-1-0.1c-0.3,0.4-0.4,0.9-0.4,1.7c0.4,0.3,0.7,0.7,1.2,1C553.9,302.1,554.2,302.1,554.5,302.1z M498.8,302.8
			c-0.3-0.3-0.6-0.4-0.7-0.7c-0.1,0-0.3,0-0.4-0.1c-2,2.3-10.2,3.7-14.1,4.5c-1.3,0.3-4.2,0.1-5.2,1.4c-1.2,1.3-0.7,5-1.2,7.2
			c-0.7,3.9-1.7,8.4-2.2,12.3c0,1.4,0,2.7,0.1,4.2c-0.1,0.7-0.4,1.4-0.6,2.2c0.4,0.3,1,1,1.3,1.4c1.7-0.6,3.5-1.2,5.2-1.7
			c4.9-0.7,9.1-2,13.4-3c1-1.7,0.7-3.9,1.2-6.2c0-0.7,0.1-1.3,0.1-2c1.2-2.2,1-6.1,1.2-8.7c0-0.9-0.3-2-0.1-3.3
			C497.5,307.6,498.1,305.2,498.8,302.8z M485.8,319.8c1.9-0.6,4-0.6,5.5-1.4c0.1,0,0.3,0,0.4,0.1c-0.6,1.7-1.7,5.3-1.2,7.1
			c0,1.9-4,1.9-5.2,2.3C484.7,326.6,485.8,321.4,485.8,319.8z M478.8,312.6c0.3-1,0.4-2,0.7-3c1.2-0.7,2.7-0.7,3.7-1.3
			c0.3,0,0.4,0,0.7,0c0.4,1.7-0.7,6.9-1.3,8.7c0.1,0.6-3.5,1.2-4.3,1.2c-0.1,0-0.1,0-0.3,0.1C478.8,316.2,478.5,314.5,478.8,312.6z
			 M477.8,321.4c1.3-0.3,2.6-0.6,4-0.9c0.1,0,0.4,0,0.6,0c0.3,2-0.1,4.6-0.4,6.2c0.3,0.6,0.6,1,1.3,1.2c0,0,0,0,0,0.1
			c-1.7,0.9-4.3,1-6.1,1.4c0,0,0,0-0.1-0.1C476.3,326.3,477.8,324.3,477.8,321.4z M476.7,332.5c0.1-0.4,0.1-0.9,0.3-1.3
			c2.7-0.9,5.8-1.3,8.8-2c1.7-0.4,3-0.3,4.6-0.9c0.4,0.1,1,0.3,1.4,0.4c0,0,0,0.1,0.1,0.1C490.7,330,479.3,332.2,476.7,332.5z
			 M490.7,314.9c-1.3,0.3-3,1-4.3,1.4c-0.1-0.1-0.3-0.3-0.3-0.7c1.3-1.2,0.7-6.5,1.3-8.2c1-1.2,3.7-0.4,4.8-1.2c0.1,0,0.4,0,0.6,0
			c-0.6,3-0.6,5.2-0.6,8.8C491.6,315.1,491.5,314.8,490.7,314.9z M495.3,310.3c-0.4,2.9,0.1,5.9-0.4,8.9c-0.6,2.7-1.4,5.5-1.7,8.4
			c-0.4-0.1-0.4-0.4-0.9-0.7c0.4-1.4-0.1-2.9,0.1-4.9c1-4.9,1.9-11,2-16.4c0.4-0.1,0.9-0.3,1.4-0.4c0.1,0,0.3,0,0.4,0
			C496.1,306.8,495.6,308.6,495.3,310.3z M558.4,303.2c-0.3,0.3-0.6,0.4-0.7,0.7c0.3,0.7,0.6,1.2,1.3,1.4c0.3,0,0.6,0,0.9-0.1
			c0.1-0.1,0.3-0.4,0.4-0.6c0-0.3,0-0.7-0.1-1C559.5,303.5,558.9,303.4,558.4,303.2z M564.1,303.9c-0.4,0.3-0.7,0.3-1.2,0.7
			c0,0.1,0,0.3-0.1,0.4c0.3,0.4,0.6,0.7,0.9,1.2c0.4,0,0.9,0,1.3,0.1c0.1-0.3,0.4-0.6,0.6-0.7C565.4,304.7,565,304.4,564.1,303.9z
			 M551.9,307.1c0.3-0.1,0.7-0.4,1-0.6c-0.1-1-1.2-1.7-2.2-2c-0.3,0.1-0.6,0.3-0.7,0.4c0,0.1,0,0.3-0.1,0.4
			C550.3,306.4,550.7,306.8,551.9,307.1z M553.5,310.1c-0.1-0.3-0.1-0.7-0.3-1c-0.6-0.1-0.7-0.4-1.4-0.4c-0.6,0.6-0.6,0.9-1.7,0.9
			c0,0.3-0.1,0.6-0.1,0.9c0.6,0.7,1,1.2,2,1.2C552.3,310.7,552.7,310.7,553.5,310.1z M545.4,311.4c0-1-1.4-1.4-2.5-1.4
			c-0.4,0.3-0.7,0.3-0.7,1.2C543.1,312.2,544.4,313.2,545.4,311.4z M563.3,311.7c-0.1,0.3-0.3,0.4-0.4,0.7c0.3,0.6,0.4,0.9,1,1.2
			c0.4,0.1,0.9,0,1.3-0.1c0.1-0.1,0.1-0.1,0.3-0.3c-0.1-0.7-0.4-0.7-0.7-1.2C564.3,311.9,563.7,311.9,563.3,311.7z M542.5,313.6
			c0-0.3-0.1-0.7-0.1-1c-0.6-0.4-1-0.7-2-0.7c-0.1,0.3-0.3,0.6-0.4,0.7c0.6,0.4,0.9,0.9,1.6,1.2
			C541.8,313.8,542.1,313.6,542.5,313.6z M539.8,314.2c-0.7-0.7-1.2-0.7-2.3-1c-0.4,0.4-0.6,0.6-0.7,1.2c0.4,0.7,0.9,1,1.6,1.4
			C539.3,315.8,539.8,315.2,539.8,314.2z M543.9,314.9c0.1,1.3,0.9,1.6,2,1.9c0.3-0.3,0.6-0.4,0.7-0.7c0-0.3,0-0.4-0.1-0.7
			c-0.3-0.6-0.9-0.9-1.9-0.9C544.5,314.8,544.2,314.8,543.9,314.9z M542.1,315.6c-0.6-0.4-0.9-0.6-2-0.4c-0.3,0.3-0.6,0.3-0.7,0.9
			c0.1,0.3,0.4,0.6,0.6,0.9c0.4,0.3,0.9,0.4,1.7,0.4c0.1-0.3,0.4-0.6,0.6-0.7C542.2,316.2,542.1,315.9,542.1,315.6z M555.2,317.5
			c0-0.3,0-0.6,0-0.9c-0.4-0.3-0.7-0.4-1.4-0.4c-0.3,0-0.4,0.1-0.7,0.1c0,0.1-0.1,0.3-0.1,0.4C553.3,317.8,554,317.9,555.2,317.5z
			 M545,319.8c0,0-0.1,0-0.1,0.1c-0.1,0.1-0.1,0.3-0.3,0.4c0.1,0.4,0.3,0.9,0.4,1.2c0.3,0.1,0.6,0.1,0.9,0.3c0.3,0,0.6-0.1,0.9-0.1
			c0.1-0.1,0.1-0.3,0.3-0.4C546.4,320.2,546.1,320,545,319.8z M411.7,320.2c-2.3,1.2-4.5,0.6-6.8,1.3c-1.3,0.4-3,1.2-4.3,1.4
			c-1.6,0.3-3,0-4.3,0.3c-1.3,0.3-2.5,0.9-4,1c-0.1,0.3-0.1,0.6-0.1,1.2c-0.3,0.1-0.6,0.1-0.9,0.3c-0.9,1.7,0,4.5-0.4,6.2
			c-1.2,5.8,0,13.7-1.4,19.5c0.1,0.6,0.3,0.7,0.7,0.9c1.4,0.6,2.3-0.4,3.9-0.4c1.4-0.4,2.7-0.9,4.2-1.2c4.8-1,8.9-1.6,13.3-2.9
			c0-2.2,0-4.2,0-6.3c0.6-3.3,0.9-8.5,1.4-12C413.1,326.9,413.3,321,411.7,320.2z M400.6,342.5c0.1-1.6,0-3,0.1-4.8
			c1.6-0.3,3.3-0.7,4.9-1c0.1,0.1,0.1,0.1,0.3,0.3c-0.7,2.5-0.1,4.8-0.3,7.1c-1.6,0.9-3.7,1.4-5.9,1.4
			C400.2,344.5,400.3,343.5,400.6,342.5z M392.7,327.2c2.2-1.2,2.2-1.4,5-2.2c0.3,0.4-1,10-1,10c-0.7,0.6-3.7,0.7-4.9,0.7
			C391.9,332.4,392.4,329.5,392.7,327.2z M391.9,338.4c0.1,0.1,0.3,0.3,0.4,0.6c1.7,0,2.5-0.3,4.3-0.4c0.6,2.6-0.1,5.8-0.1,7.6
			c-1,0.9-3.3,0.9-4.8,1.2C390.9,345.5,391.7,339.9,391.9,338.4z M407.4,347.1c-4.2,1.4-10.8,1.9-15.1,3.2c-0.3,0-0.4,0-0.7,0
			c0-0.4,0-1,0.1-1.4c3.3-0.7,7.1-1.4,10-2c1.3-0.3,2.7,0,3.5-0.7C406.2,346.2,406.5,346.3,407.4,347.1L407.4,347.1z M406.1,333.1
			c-1.6,0.3-3.3,0.7-4.9,1c0,0,0,0-0.1,0c-0.7-1.7,0.9-6.9,0.9-9.8c1.7-0.4,3.5-0.9,5.2-1.3h0.1C407.5,324,406.5,332.2,406.1,333.1z
			 M409.8,336.5c-0.6,3.5,0,6.6-0.7,9.1c-0.4,0-0.9-0.3-1.2-0.7c-1-0.6,0-3.5-0.1-4.6c-0.6-2.3,0.4-9.5,0.7-12.7
			c0.1-1.6-0.1-3.3,0.6-4.8c0.3-0.1,0.6-0.3,0.9-0.4c0.3,0,0.6,0,0.9,0.1C412,325.9,410.5,332.8,409.8,336.5z M544.2,324
			c0.3,0.4,0.7,0.7,1.2,0.9c0.3,0,0.6,0,0.9,0c0.4-0.3,0.6-0.6,0.6-1.2c-0.4-0.4-1-0.6-1.7-0.7C544.5,323.1,544.2,323.1,544.2,324z
			 M548,323.8c-0.4,0.3-0.6,0.3-0.9,0.7c0.4,0.9,1,1.3,2.2,1.4c0.3-0.3,0.4-0.4,0.7-0.7c0-0.3-0.1-0.6-0.1-0.9
			C549.3,324.3,548.8,323.8,548,323.8z M454.2,324c-1,1.4-0.4,4.2-0.7,6.3c-0.3,3.5-0.4,6.8-0.7,10.2c-0.6,2.2-1,5.8-0.6,7.8
			c0.7,0.4,1.2,0.3,1.9,0c-0.1-1.4-0.1-2.9-0.3-4.3c0.4-3.5,0.3-5.9,0.7-9.4c0.3-3.2,1.2-7.2,1-10.7C455.1,324,454.7,324,454.2,324z
			 M539.6,327.5c0.4-0.3,0.6-0.6,0.6-1.4c-0.4-0.6-0.9-0.7-1.4-1.2c-0.6,0.3-0.7,0.4-1.2,1c0.1,0.4,0.3,0.9,0.4,1.4
			C538.8,327.6,539.2,327.7,539.6,327.5z M448.6,325.7c-0.3,0.3-0.4,0.4-0.7,0.7c1,3.9,0.3,10.2-0.3,14.7c0,1.2,0,2.2,0.1,3.3
			c-0.3,1.6-0.9,3.3-0.7,4.9c0.1,0.1,0.4,0.1,0.6,0.3c0.7,0,0.9-0.3,1.3-0.6c0.7-3.5-0.3-6.8,0.4-10.4c0.7-3.5,1.3-8.9,0.6-12.8
			C449.5,325.9,449.1,325.9,448.6,325.7z M554.8,326.6c-0.3,0.1-0.6,0.3-0.9,0.4c0,0.3,0.1,0.6,0.1,0.9c0.4,1,1.2,1,2,1.3
			c0.1-0.3,0.3-0.4,0.4-0.7c0-0.3,0-0.6,0.1-0.7c-0.1-0.3-0.4-0.7-0.6-1C555.5,326.7,555.3,326.6,554.8,326.6z M540.9,329.5
			c-0.4-0.3-0.9-0.6-1.7-0.4c-0.3-0.6-0.4-0.9-1-1.2c-0.3-0.1-0.4-0.1-1-0.1c-0.1,0.1-0.3,0.3-0.4,0.4c0,0.1,0,0.4,0,0.6
			c0.7,0.6,1,0.7,2,0.6c-0.1,0.9,0.7,1.2,1.3,1.4c0.3,0,0.4,0,0.7-0.1C540.9,330.2,540.9,330,540.9,329.5z M439.8,327.6
			c-0.1,0.1-0.3,0.3-0.4,0.4c-0.1,4.3-0.3,8.8-0.4,13.1c-0.4,3.2-1,7.2-0.7,10.4c0.1,0.1,0.4,0.3,0.6,0.4c0.4-0.1,0.9-0.1,1.3-0.3
			c0.3-1.7,0-4.3-0.3-6.2c1.2-2.5,0.3-5.9,0.7-8.9c0.1-1.7,0.3-3.3,0.4-5C440.7,329.9,442.1,327.7,439.8,327.6z M544.4,329.2
			c-0.1,0.1-0.3,0.3-0.4,0.4c0.1,0.4,0.3,0.9,0.4,1.3c0.7,0.1,0.9,0.4,1.7,0.4c0.1-0.3,0.3-0.6,0.4-0.9c0-0.1,0-0.4,0-0.6
			c-0.6-0.4-0.9-0.6-1.7-0.7C544.7,329.2,544.5,329.2,544.4,329.2z M540.9,331.3c-0.4,0.3-0.9,0.4-0.4,1.2c0.4,0.7,1.3,0.9,2.3,0.7
			C542.9,331.9,542.2,331.3,540.9,331.3z M547.5,331.8c-0.1,0.1-0.3,0.1-0.4,0.3c0,0.1,0,0.4,0,0.6c0.3,0.4,0.6,0.4,0.7,1
			c1.2,0.1,1.4,0.1,1.7-0.7c-0.3-0.3-0.6-0.6-0.7-0.9C548.6,331.8,548.1,331.6,547.5,331.8z M547.5,338.6c-0.3,0-0.4,0.1-0.7,0.1
			c-0.3,0.6,0,0.7,0.4,1.4c0.4,0.1,0.7,0.1,1.2,0.3c0.4-0.3,0.6-0.3,0.9-0.9c0-0.1-0.1-0.3-0.1-0.4
			C548.7,338.8,548.3,338.6,547.5,338.6z M551,341.6l-0.1,0.1c-0.1,1.4,0.4,1.7,1.6,1.6C553.2,342.3,552.7,341.4,551,341.6z
			 M274,347.5c-0.6,1-0.7,1.9-0.9,3c-0.1,0-0.1,0.1-0.3,0.1c-0.7-2.5,0.4-5.8-0.7-8.5c-0.3,0-0.4-0.1-0.7-0.1
			c-0.1,0.1-0.4,0.3-0.6,0.4c-0.9,0.6-2.7,6.3-3,7.8c0.1,0.3,0.4,0.4,0.6,0.7c0.1,0,0.4,0,0.6,0.1c0.1-0.1,0.3-0.1,0.4-0.3
			c0.4-1.9,0.9-3.5,1.4-5c0,0,0.1,0,0.1-0.1c0,2.3-0.1,6.2,1.2,7.2c0.4,0,0.9,0,1.3,0c0.9-1.3,1.7-2.9,2.2-4.3
			c-0.1-0.4-0.1-0.7-0.3-1.2C274.7,347.2,274.6,347.4,274,347.5z M328.3,348.5c-0.1,0.1-0.3,0.1-0.4,0.3c0,0.3,0,0.6-0.1,0.9
			c0.4,0.4,0.9,0.9,1.2,1.4c0.4-0.1,0.9-0.1,1.3-0.3c0.4,0.4,0.9,0.9,1.2,1.4c0.7,0,0.7-0.3,1.2-0.4c0.1-0.3,0.1-0.4,0.3-0.7
			C332,349.5,330.2,349.1,328.3,348.5z M338.3,352.7C338.3,352.8,338.3,352.8,338.3,352.7c0.9,0,1.2-0.1,1.4-0.7
			c-0.7-1.7-1.3-2.9-3.3-3.5c-0.1,0-0.1,0.1-0.3,0.1C335.8,350,337.1,352.1,338.3,352.7z M324.6,350.7c0-0.6,0-0.6-0.1-1.2
			c-0.7-0.4-1.2-0.6-2.2-0.7c-0.1,0.1-0.3,0.3-0.4,0.4c0,1,0.9,2,1.7,1.9c0.9,0.1,1.4,1.4,2,2c0.1-0.1,0.4-0.3,0.6-0.4
			s0.1-0.3,0.3-0.4C326.2,351.2,325.8,350.8,324.6,350.7z M562.4,355.7c0.3,0,0.4,0,0.7-0.1c0.4-0.3,0.1-1.2,0.4-1.7
			c0.1-0.4,0.3-0.4,0.9-0.4c0-0.1,0-0.1,0-0.3c-0.3-0.3-0.6-0.7-0.7-1c-0.1,0-0.4,0-0.6,0c-0.7,0.6-1.6,2.3-1,3.3
			C562.3,355.7,562.1,355.6,562.4,355.7z M566.4,352.3c-0.3,0.1-0.6,0.3-0.9,0.4c-0.3,1-0.7,1.9-1,2.9c0.3,0.4,0.6,0.7,1.2,0.4
			c0.7-0.4,1.2-2,1.6-2.7c0-0.3-0.1-0.7-0.1-1C566.9,352.3,566.6,352.3,566.4,352.3z M550,352.7c-0.3,0-0.4-0.1-0.7-0.1
			c-0.1,0.1-0.3,0.1-0.4,0.3c-0.9,0.6-0.7,2.3-1.2,3.3c0.1,0,0.3,0.1,0.4,0.1c0.1,0,0.4,0,0.6,0.1
			C549.6,355.4,550.4,354.1,550,352.7z M569.3,353c-0.4,0.3-1,0.7-1.4,0.9c-0.4,0.4-0.9,1.7-0.9,2.7c0,0,0,0,0,0.1
			c0.1,0.1,0.3,0.1,0.4,0.3c1.3-0.7,1.7-1.9,2.3-3.2c0-0.1,0-0.3-0.1-0.4C569.6,353.1,569.5,353.1,569.3,353z M545.7,356.9
			c0.3-0.3,0.6-0.6,0.7-0.7c-0.3-0.9-0.4-1.7-0.7-2.7c-0.3,0-0.6,0-0.9-0.1c-0.1,0.1-0.3,0.3-0.4,0.4c0.1,1.3,0.1,2.2,0.7,3
			C545.4,356.9,545.5,356.9,545.7,356.9z M313.1,353.8c0,0.9,0.3,1.2,0.6,1.7c0.4,0.1,1,0.3,1.4,0.1c0.1-0.1,0.3-0.1,0.4-0.3
			c0-0.3,0-0.7,0.1-1c-0.7-0.6-1.2-0.9-2.3-0.9C313.2,353.7,313.1,353.7,313.1,353.8z M334.5,354.1c-0.3,0-0.6,0-0.7,0.1
			c0,0.1-0.1,0.3-0.1,0.4c0,0.9,0.6,1.6,1.2,1.9c0.4,0.1,0.9,0,1.2-0.3l0.1-0.1C336,355.1,335.7,354.1,334.5,354.1z M342.2,355
			c-0.7-0.3-1.2-0.6-2-0.9c-0.1,0-0.4,0-0.6,0.1c-0.1,0.1-0.3,0.3-0.4,0.4c0.1,0.4,0.3,0.9,0.4,1.4c1,0.6,2,0.6,2.7-0.1
			C342.3,355.7,342.2,355.3,342.2,355z M321,354.3c-1.2,0.9,0.4,2.2,1.4,2.3c1-0.7,0.6-1.2,0.1-2C322.1,354.4,321.6,354.4,321,354.3
			z M542.8,357.6c0.1,0,0.4,0,0.6-0.1c0.1,0,0.1,0,0.3-0.1c0-0.1,0-0.4,0.1-0.6c-0.4-0.4-0.7-1-0.9-1.7c-0.4-0.3-0.6-0.6-1.3-0.6
			c-0.1,0.1-0.4,0.3-0.6,0.4C541.5,356.2,541.6,357,542.8,357.6z M328.6,355.6c0,0.1-0.1,0.1-0.1,0.3c0.1,1.3,0.4,1.7,1.3,2.3
			c0.1,0,0.4,0,0.6,0c0.3-0.3,0.6-0.6,0.7-0.7c-0.1-0.4-0.3-0.9-0.4-1.2C330.1,355.7,329.6,355.4,328.6,355.6z M306.7,356
			c-0.1,0.1-0.1,0.3-0.3,0.4c0.4,0.7,0.7,1.3,1.4,1.7c0.6,0,0.7-0.1,1.2-0.4c0-0.1,0-0.4,0.1-0.6C308.6,356.4,308,356,306.7,356z
			 M569.3,358.2c1.2,0,1.3-0.4,2.7-0.4c0.3-0.3,0.4-0.6,0.4-1.2h-0.1c-0.3-0.4-0.6-0.6-1.4-0.4c-1.2,0.4-1.6,0.4-2,1.4
			C569,357.7,569.2,358,569.3,358.2z M304.6,356.6c0,0.1-0.1,0.1-0.1,0.3c0,1.6,1.3,2,2.3,1.3c-0.1-0.3-0.1-0.7-0.3-1
			C305.7,356.9,305.3,356.7,304.6,356.6z M317,356.9c-0.1,0.1-0.3,0.1-0.4,0.3c0,1,0.6,1.7,1.3,2.3c0.3,0,0.6,0,0.7-0.1
			c0.3-0.3,0.4-0.3,0.4-0.7C318.7,357.6,318.1,357,317,356.9z M344.5,356.9c-0.1,0.3-0.3,0.4-0.4,0.7c0,1,0.4,1.6,1.2,2
			c0.4,0,0.7,0,1.2-0.1c0.1-0.3,0.3-0.7,0.4-1c-0.1-0.3-0.3-0.7-0.4-1C345.7,357.2,345.4,356.9,344.5,356.9z M538.6,358.2
			c-0.1,0.3-0.1,0.4-0.3,0.7c0.6,1,1.3,1.6,3,1.6c0-0.1,0.1-0.1,0.1-0.3c0.4-1.2-1.3-1.7-2.2-2.2C539.2,358,538.9,358.2,538.6,358.2
			z M352.9,360.9c0.3-0.1,0.6-0.3,0.9-0.4c0.1,0,0.1-0.1,0.3-0.1c0-0.4-0.1-0.9-0.1-1.2c-0.6-0.4-1.2-0.9-1.9-0.9
			c-0.1,0.3-0.4,0.6-0.6,0.9c0.3,0.9,0.6,1.2,1,1.7C352.6,360.8,352.7,360.8,352.9,360.9z M569.5,358.9c-0.3,0.1-0.4,0.4-0.7,0.6
			c0,0.1,0,0.4,0.1,0.6c0.9,0.6,2.6,1,3.6,0.4c0.1-0.1,0.3-0.1,0.4-0.3c0-0.3-0.1-0.6-0.1-0.7C571.9,359,570.5,359,569.5,358.9z
			 M296.6,359c0,0-0.1,0-0.1,0.1c-0.1,0.1-0.1,0.3-0.3,0.4c0.1,0.9,0.4,1.4,1.2,1.7c0.4,0.4,1.3,0,1.6-0.4c0-0.3,0-0.4,0.1-0.7
			c-0.3-0.3-0.7-0.6-1-0.9C297.5,359.2,297.1,359.2,296.6,359z M328.3,359.9c0,0-0.1,0-0.1,0.1c-0.6,1,0.4,2.2,1.2,2.6
			c0.3,0,0.6,0,0.9-0.1c0.1-0.1,0.3-0.3,0.4-0.4C331.2,361.1,329.4,359.9,328.3,359.9z M336.7,361.1c-0.3,0.4-0.1,0.6-0.1,1.3
			c0.9,0.7,1.2,1.3,2.5,0.9c0.3-0.7,0-1-0.3-1.7C338,361.3,337.7,361.1,336.7,361.1z M568.5,361.1c-0.1,0-0.1,0-0.3,0
			c-0.6,0.4-0.6,0.6-0.7,1.3c0.7,0.9,1.3,0.9,2.6,1.2c0.1-0.3,0.4-0.4,0.6-0.7c0.1-0.3,0.1-0.3,0-0.7
			C569.5,361.9,569.3,361.8,568.5,361.1z M541.9,361.8c-0.9-0.6-2.5-0.3-3.6-0.6c-0.3,0-0.6,0.1-0.9,0.1c-0.1,0.1-0.1,0.3-0.3,0.4
			c0,0,0,0,0,0.1c1,1.3,3,1,4.6,0.4C541.9,362.2,541.9,361.9,541.9,361.8z M309.9,362.8c-0.1,0.3-0.3,0.4-0.4,0.7
			c0.1,0.4,0.1,0.9,0.3,1.2c0.6,0.6,1.2,1.2,2.2,0.4h0.1C312.1,363.7,311,363.2,309.9,362.8z M342.3,362.8c-0.1,0.1-0.4,0.1-0.6,0.3
			c0,0.3,0,0.6,0.1,0.9c0.7,0.6,0.9,1,2.2,1c0-0.1,0.1-0.1,0.1-0.3c0.1-0.6-0.3-1.2-0.4-1.6C343.3,362.9,342.8,362.8,342.3,362.8z
			 M544.4,362.9c-1.9,0.1-2.9,1.3-4.6,1.6c0,0.3,0,0.6-0.1,0.7c0,0.1,0.1,0.3,0.1,0.4c1.9,0.4,3.2-1.2,4.5-2
			C544.4,363.4,544.4,363.2,544.4,362.9z M567.3,364.4c0-0.1,0-0.3,0-0.4c-0.4-0.1-0.7-0.3-1-0.7c-0.4,0-0.9,0.1-1.3,0.1
			c-0.3,1.3,1,2.2,2,2.6c0.9,0,1-0.3,1.4-0.7v-0.1C568.2,364.7,568,364.5,567.3,364.4z M546.5,363.8c-0.9,0.7-1.4,1.7-2.5,2.5
			c0,0.4,0,0.9,0,1.3c0.1,0.1,0.4,0.3,0.6,0.4c2.2-1,0.9-1.7,2-2.9c0.3-0.1,0.1-0.1,0.4-0.1C547.3,364.4,547.3,364.1,546.5,363.8z
			 M550.6,364.1c-1,1.2-1.9,2-1.9,4.3h0.1c0.3,0.3,0.6,0.3,1.2,0.1c0.3-1.6,0.7-2.5,1.7-3.5c-0.1-0.3-0.1-0.6-0.3-0.9
			C551.2,364.1,550.9,364.1,550.6,364.1z M562.5,364.1c-0.3,0.1-0.4,0.3-0.7,0.4c-0.1,0.3-0.1,0.3-0.1,0.6c0.4,0.7,1.4,1.6,2.3,2
			c0.6-0.3,1.2-0.3,1-1C564.6,365.5,563.3,364.4,562.5,364.1z M553.9,364.8c-0.7,0.7-1.7,2.2-1.4,3.5c0.1,0.1,0.3,0.4,0.4,0.6
			c1.7,0.1,1.7-2.3,1.7-3.6C554.3,364.9,554,364.8,553.9,364.8z M557.2,365.2c-0.4,0.4-0.9,1.4-1.4,1.6c0.3,0.6,0.3,0.7,0.1,1.4
			c0.3,0.1,0.4,0.3,0.7,0.4c0.1,0,0.4,0,0.6,0c0.1-0.4,0.1-0.7,0.7-1c-0.1-0.9,0-1.2,0-2C557.6,365.5,557.5,365.4,557.2,365.2z
			 M559.7,365.4c-0.3,0.1-0.1,0.1-0.4,0.1c-0.6,0.9-0.1,1.9,0.1,2.9c0.6,0.3,1.2,0.4,1.6-0.1c-0.3-0.7-0.3-2.2-0.9-2.6
			C560,365.4,560.1,365.5,559.7,365.4z M466.2,367.3L466.2,367.3c0.3,0,0.4,0,0.4,0c0-0.1,0-0.3,0.1-0.4c-0.1,0-0.3,0-0.4-0.1
			C466.2,366.8,466.2,367,466.2,367.3z M337.4,397.1c-0.7,1-0.9,2.6-1.4,3.5c0.4,0.3,0.7,0.6,1.2,0.9c0.1,0,0.3-0.1,0.4-0.1
			c0.6-0.4,0.7-2.5,1.2-2.9c-0.1-0.4-0.4-0.9-0.6-1.3C338,397.1,337.7,397.1,337.4,397.1z M321,397.1c-0.1,0-0.1,0-0.3,0
			c-0.7,0.9-0.4,3-1.2,3.7c0,0.1,0,0.3,0,0.4c0.3,0.1,0.6,0.1,0.9,0.3c0.1,0,0.3-0.1,0.4-0.1c0.7-1,0.9-2,0.7-3.9
			C321.3,397.4,321.1,397.3,321,397.1z M318.7,398.7c-0.3-0.3-0.6-0.6-0.9-0.9c-0.3,0-0.6,0-0.9-0.1c0,0.1-0.1,0.1-0.1,0.3
			c0.1,1,0.1,2.6,0.7,3.2c0.4,0,0.7-0.1,1.2-0.1C318.5,400.1,318.5,399.4,318.7,398.7z M340.5,402c0.4-0.7,1.4-3,0.9-4
			c-0.1-0.3-0.3-0.3-0.7-0.4c-0.1,0-0.4,0.1-0.6,0.1c-0.3,1.4-0.9,2.7-0.4,4C340,402,340,402,340.5,402z M314.2,398.4
			c0,0-0.1,0-0.1,0.1c-0.4,0.9-0.1,1.6-0.1,3c0.3,0.1,0.6,0.1,1.2,0.1c0.6-1.4,0.6-2-0.1-3.3C314.6,398.4,314.4,398.4,314.2,398.4z
			 M345.1,399.6c-0.1-0.1-0.1-0.1-0.3-0.3c-0.1,0-0.4,0-0.6,0c-0.3,0.4-0.6,0.7-1.2,0.9c-0.3,0.6-0.7,1.7-0.1,2.3
			c0,0.1,0,0.1,0.1,0.3C344.2,402.6,345.1,401,345.1,399.6z M312.1,403.2c0.1,0,0.3,0,0.4-0.1c0.1-0.3,0.1-0.6,0.3-0.7
			c0.3-0.9-0.6-2.2-1.3-2.5C310.9,401,310.8,402.4,312.1,403.2z M348.1,402.2c0.3-0.4,0.1-0.4-0.1-1c-0.7,0-1.4-0.1-2.2-0.1
			c-0.3,1-0.1,1.4,0.6,2.2C347.4,403,347.4,402.4,348.1,402.2z M309.3,406c0.1-0.1,0.3-0.3,0.4-0.4c-0.1-0.6-0.4-0.4-0.7-0.7
			c0.3,0,0.6,0,0.9,0c0.3-0.7-0.4-2.6-1-3c-0.3-0.1-0.3-0.1-0.9-0.1c-0.1,0.1-0.4,0.4-0.6,0.6c0.1,1,0.4,1.7,1,2.3c0,0,0,0,0,0.1
			c-0.9,0-1.6,0-2.5,0c0,0.1-0.1,0.3-0.1,0.4C306.3,405.8,308.3,406.8,309.3,406z M349.4,403.2c-0.9,0.6-2.3,0-3.3,0.6h-0.1
			c0,0.3,0,0.6,0.1,0.9c1.2,0.9,2.3,0.4,3.9,0.3c0.3-0.4,0.6-0.9,0.7-1.3C350.4,403.3,350.3,403.2,349.4,403.2z M345.2,406
			c-0.1,0.1-0.1,0.3-0.3,0.4c0,0.9,0.4,1.4,1.2,1.9c0.6,0.4,2.2,0.1,2.6-0.4C349.7,407.2,345.9,406.2,345.2,406z M310.2,408.4
			c0-0.1,0-0.3,0-0.4c-1-0.1-2-0.4-3-0.6c-0.3,0.3-0.3,0.3-0.7,0.3c0,0.3-0.1,0.6-0.1,0.9c0.7,1,2.6,0.4,3.7,0.1
			C309.9,408.6,310,408.5,310.2,408.4z M344.8,407.8c-0.4,0-0.7,0-1.2-0.1c-0.1,0.1-0.1,0.1-0.3,0.3c-0.1,1.2,0.4,2.5,0.9,3.6
			c0.3,0.3,1.2,0.6,1.7,0.6c0.6-0.3,0.7-0.3,0.7-1C345.4,410.5,345.1,409.1,344.8,407.8z M311.3,407.9c-1,1.3-2.6,2-3,3.7
			c0.3,0.1,0.4,0.3,0.7,0.4c1.4-0.4,2.7-2,3.6-3.2C312.5,408.1,311.9,408.1,311.3,407.9z M311.5,413.1c0.1,0.1,0.1,0.1,0.3,0.3
			l0.1,0.1c0.7-0.3,2.7-3.6,2.7-4.2v-0.1c-0.3-0.3-0.6-0.3-1.2-0.4C312.9,409.9,311,411.5,311.5,413.1z M340.5,409.7
			c-0.1,0.1-0.1,0.3-0.3,0.4c-0.6,1.4,0.3,3.3,0.7,4c0.3,0,0.4,0,0.7,0c0.3-0.1,0.1-0.3,0.6-0.4c0-1-0.3-2.6-0.7-3.6
			C341.2,409.7,341,409.7,340.5,409.7z M315.8,410.1c-0.1,0-0.1,0.1-0.3,0.1c0,0.9-0.3,2.6,0.1,3.3c0.3,0.3,0.6,0.3,1.2,0.3
			c0.4-0.9,0.1-2.2,0.3-3.3c-0.1-0.1-0.3-0.3-0.4-0.4C316.4,410.1,316.1,410.1,315.8,410.1z M336.7,410.1c-0.7,1-1.2,3.5-0.7,4.9
			c0.6,0.4,1.2,0.4,1.9,0.1c-0.1-0.7,0-4.9,0-4.9C337.4,410.4,337.1,410.2,336.7,410.1z M322.3,410.2c-0.1,0.3-0.4,0.4-0.6,0.7
			c0.4,1.2-0.6,2.7-0.6,4c0.1,0.1,0.4,0.3,0.6,0.4c0.7-0.3,1.2-0.4,1.4-1.2c0.3-0.9,0.3-2.6,0.1-3.7
			C322.9,410.4,322.6,410.4,322.3,410.2z M332.8,410.4c-0.1,0-0.3,0.1-0.4,0.1c-0.7,1.2-0.9,3-0.4,4.3c0.6,0,0.6,0,1-0.1
			c0.3-1.3,0.4-2.6,0.7-3.9C333.5,410.5,333.4,410.5,332.8,410.4z M325.2,415.3c0.3,0,0.4,0.1,0.7,0.1c0.1-0.1,0.4-0.3,0.6-0.4
			c0.1-1.4,0.3-2.9,0.4-4.3c-0.3-0.1-0.6-0.1-0.9-0.3C325.3,411.7,324.7,413.5,325.2,415.3z M318.8,410.7c-0.1,0-0.3,0-0.4,0.1
			c0.1,0.9,0,2-0.3,3.2c0.1,0.3,0.3,0.6,0.4,0.7c0.3,0,0.6-0.1,0.7-0.1c0.6-1.3,0.7-2,0.7-3.6l-0.1-0.1
			C319.6,410.7,319.1,410.7,318.8,410.7z M330.1,411.2c-0.1,0-0.4,0-0.6-0.1c-0.1,0-0.4,0-0.6,0.1c-0.6,1.6-0.3,3.7,0.6,4.8
			c0.1,0,0.3,0,0.4,0c0.3-0.1,0.1,0.1,0.3-0.1c0.3-0.4,0.1-3.9-0.1-4.3C330.1,411.4,330.1,411.2,330.1,411.2z"/>
	</g>
</g>
</svg>
