<?xml version="1.0" encoding="utf-8"?>
<!-- Generator: Adobe Illustrator 21.0.0, SVG Export Plug-In . SVG Version: 6.00 Build 0)  -->
<svg version="1.1" id="Calque_1" xmlns="http://www.w3.org/2000/svg" xmlns:xlink="http://www.w3.org/1999/xlink" x="0px" y="0px"
	 viewBox="0 0 841.9 595.3" style="enable-background:new 0 0 841.9 595.3;" xml:space="preserve">
<style type="text/css">
	.st0{fill:#DADADA;}
	.st1{fill:#1D1D1B;}
</style>
<ellipse class="st0" cx="409.8" cy="402.1" rx="48.7" ry="16.8"/>
<g>
	<g>
		<path class="st1" d="M486.7,276.3c-0.1-1.8-1.4-2.1-2.4-3c-1.1-1-2.1-2.3-3-3.5c-0.9-1.2-2.3-2-3.4-3c-1.5-1.5-3-3.2-4.2-4.9
			c-1.4-1.3-2.8-2.6-4.1-3.9c-0.7-0.9-1.4-2-2.2-2.6c-1.8-1.4-3.9-2.6-5.2-4.4c-2.5-3.3-5.2-6.7-8.5-9.2c-1.1-0.8-1.7-2.3-2.9-3
			c0-4.2-0.1-7.6-0.6-11.1c-0.2-1.5-0.1-3.6-0.5-5.1v-1.6c-0.2-1-0.3-2.4-0.5-3.2c-0.5-2-0.3-4-0.8-5.9c-0.2-0.7,0.1-1.7-0.2-2.2
			v-0.6c2.1-0.4,3.8-1.2,4.5-2.9c1.1-2.6-2-5.8-4-6.2c0.4-1,2.4-2.2,3.1-3.1c0.5-0.6,0.5-1.4,1-2.1c0-1.2-0.5-1.8-1.2-2.2
			c0.1-5.5,0.2-5.5-4.2-7c-0.6-0.2-1.5-0.8-2.6-0.5c-0.7,0.2-1,0.9-1.6,1.1c-0.9,0.3-3.1-2.6-4,0.2c-1.1-0.4-1.8-2.1-2.5-3
			c-0.2-0.2-0.5-0.4-0.8-0.6c-1.3-1.8-2.9-3.6-4.8-5c-0.8-0.6-1.4-1.6-2.4-2c0.7-2.1,0.9-3.2-0.2-5c-0.2-0.4-0.2-0.8-0.5-1.1
			c-0.5-0.5-1.4-0.4-2-0.8c-3.9,0-2.9-1.8-3.9-4.5c-0.4-1.3-1.3-2.8-2.1-3.9c-0.5-0.5-1.1-1-1.6-1.5c-0.2-0.2,0-0.6-0.2-0.8
			c-0.7-0.6-1.8-1-2.5-1.6c-0.1-0.1-0.1-0.4-0.2-0.5l-1-0.2c-0.3-0.2-0.8-0.7-1.1-0.9h-1.9c-2.3-0.6-2.9,0.1-4.9,0.9
			c-5.8,2.2-7.4,4.9-7.8,11.9c0,0-0.1,0.1-0.1,0.1c-0.6,0-1-0.5-1.6-0.2c-0.2,0.1-0.3,0.3-0.8,0.2c-0.1,0-0.5-0.2-0.8-0.1
			c-0.1,0.1-0.2,0.2-0.2,0.4c-0.7,0.3-1.9,0.1-2.6,0.4c-0.2,0.1-0.4,0.4-0.6,0.5c-0.5,0.2-0.9,0.2-1.4,0.5c-0.4,0.3-0.4,0.8-1,1
			c0.1,1.2,0.1,2.6,0.6,3.8c0.2,0.4,0.4,0.4,0.5,1c-1.9,0.1-3,1.4-4.2,2.2c-0.6,0.4-1.2,0.5-1.8,0.9l-1.9,1.9
			c-0.2,0.2-0.5,0.2-0.6,0.4c-0.6,0.8-1.1,1.7-1.9,2.4v0.1c-0.1,0-1.7-2.6-1.8-2.8c-0.5-0.1-1.5-0.2-1.9-0.5c-1.8,0-2.3,1.6-3,2.8
			c-1,0-1.3-0.3-1.9-0.5c-1.4-0.4-3.8,1.1-4.5,1.5c-0.5,2-2.1,5.1,0,6.5c-0.3,1.5-1.9,2.2-2.4,3.6c-0.8,2.4,2.6,5.8,4.9,6v0.1
			c-0.8,0.5-1.9,1.3-2.2,2.1c-1,2.2-0.1,5.6,1.8,6.1c0.7,0.5,2,0,2.8,0c0,2.2-0.5,4.5-1,6.4v1.2c-0.3,1.4-0.3,3-0.6,4.4v2.9
			c-0.1,0.4-0.3,1.9-0.2,2.4c0.1,0.3,0.3,1.2,0.2,1.6c-0.2,1,0,2.2-0.1,3.1c0,0.2-0.2,0.5-0.1,0.9c0,0.2,0.3,1.3,0.2,1.5
			c-0.6,4-0.3,8.4-0.6,12.5c-0.9,0.2-0.8,0.7-1.2,1h-0.6c-1.2,0.5-2.1,1.7-3.1,2.4c-1.7,1.2-3.8,1.7-5.6,2.8c-0.5,0.3-0.9,1-1.4,1.2
			c-0.4,0.3-0.8,0.2-1.1,0.5c-0.2,0.2-0.4,0.5-0.6,0.8c-0.2,0-0.4-0.1-0.6-0.1c-0.7,0.2-1.4,1-2.1,1.2c-1.8,0.8-3.4,1.3-5.1,2.1
			c-0.6,0.3-1.2,1-1.8,1.2c-0.8,0.4-1.4,0.4-2.2,0.8c-1,0.4-1.9,1.3-2.9,1.6c-1.6,0.6-3.1,0.9-4.8,1.5c-0.5,0.2-0.9,0.7-1.4,0.9
			c-1.9,0.8-3.6,1.5-5.4,2.4l-0.8,0.8h-0.9c-0.1,0.1-0.1,0.4-0.2,0.5c-0.2,0-0.4-0.1-0.6-0.1c-0.9,0.3-1.9,1-2.6,1.4
			c-0.5,0.2-0.9,0.1-1.4,0.2c-1.3,0.5-2.6,1-4,1.6c-0.5,0.2-1.1,0.8-1.6,1c-0.8,0.4-1.5,0.6-2.4,1c-0.5,0.3-0.9,0.9-1.4,1.1
			c-1,0.5-3.4,1.2-3.6,2.2c-0.5-0.1-0.8-0.5-1.2-0.6c-1.8-0.6-4.7,0.3-6,0.5h-1.2c-2.9,0.9-6.7,3.6-7.9,6.1
			c-1.3,2.7-0.7,7.6,0.5,9.9c0.2,0.4,0.7,0.8,0.9,1.1c0.4,0.8,0.3,1.6,0.6,2.4c1.6,3.4,7,8.9,12,8.2c0.4,3,2,5.9,3.1,8.4
			c0.8,1.7,0.9,3.8,1.5,5.6c0.7,2.5,1.9,5.2,2.8,7.6c0.2,0.6,0.1,1,0.2,1.6c0.7,2.1,1.2,4.6,2.1,6.8c0.5,1.3,1.3,2.8,1.9,4.1
			c0.2,0.6,0,0.9,0.2,1.5c0.3,0.8,1,1.7,1.2,2.5c0.4,1,0.3,1.9,0.8,2.9c0.2,0.3,0.6,0.9,0.8,1.2c0.8,1.7,0.9,3.5,1.8,5.2
			c1.8,3.9,3.5,8.1,5.1,12.1c0.5,1.1,0.4,2.4,0.9,3.6c0.8,2.2,2.2,4.2,3,6.4c0.6,1.6,0.9,3.1,1.5,4.8c0.1,0.2,0.4,0.5,0.5,0.6
			c0.2,0.4,0.6,1.5,0.8,1.9c0.2,0.6,0,1.1,0.2,1.6c1.2,2.7,2.6,5.7,3.9,8.4c0.6,1.4,0.6,2.7,1.2,4c0.1,0.1,0.2,0.2,0.4,0.2
			c0.1,0.6,0.2,1.2,0.2,1.8c0.1,0.2,0.4,0.5,0.5,0.6c0.3,0.7,0.1,1.2,0.4,2c0.2,0.5,0.7,1.2,0.9,1.6c0.4,0.8,0.3,1.5,0.6,2.4
			c0.3,0.7,0.9,1.5,1.2,2.1c0.8,1.6,1,3.2,1.8,4.6c0.8,1.5,1.8,3.1,2.2,4.9c0.1,0.5-0.2,0.9-0.2,1.1c0,0.3,0.1,0.7,0.1,1
			c0.2,0.2,0.4,0.4,0.5,0.6c2,0.1,1.9-0.2,3.4-0.6c0.9-0.2,2,0,2.8-0.5h0.2c0.2-1.4-0.6-2.1-1.1-3.1c-0.8-1.5-1.4-3.2-2-4.9
			c-1.8-5.2-3.5-10.1-5.5-14.9c-0.3-1.3-0.7-2.6-1-3.9c-0.8-1.9-1.8-3.8-2.6-5.6c-1.7-4-3.1-8.2-4.6-12.2c-0.6-1.5-0.7-2.9-1.2-4.5
			c-0.5-1.4-1.4-3.1-2.1-4.5c0-0.3-0.1-0.7-0.1-1c-0.5-1.4-1.3-3.3-1.9-4.6c-0.3-0.6-0.1-1.1-0.4-1.6c-1-2.1-1.7-4.3-2.6-6.5
			c-1.2-2.7-2.8-5.6-3.9-8.5c-0.6-1.6-0.7-3-1.2-4.8c-0.6-2.2-1.8-4.4-2.5-6.5c-0.6-1.7-0.7-3.4-1.2-5.1c-0.5-1.6-1.4-3.3-2-4.9
			c-0.7-2-0.9-3.8-1.6-5.8c-1.4-4-3.2-8.5-4.8-12.4c2.5-2.5,3.5-5.9,5.1-9.4c0.1-0.3,0.6-0.7,0.8-1c0.3-0.5-0.1-1.2,0.1-1.6
			c0.3-0.7,1-0.9,1.6-1.2c1.4-1,2.9-1.9,4.4-2.9c4.7-3,9.4-6.2,14.6-8.6c1.4-0.6,3.8-2.4,5.4-2.6c0-0.3,0-0.4,0.1-0.5
			c0.3-0.4,1.1-0.2,1.6-0.4c0.5-0.2,0.9-0.7,1.4-0.9c0.6-0.2,1-0.2,1.5-0.5c3.2-1.9,6.7-3,10.5-4.4c1-0.4,2.1-1.2,3.1-1.6
			c1.5-0.6,4.6-1.3,5.5-2.4h0.2c0,2.4-0.2,6.1,0.4,7.8c-0.2,1.2-0.1,2.2,0,2.9c0.2,1.4,0,3.4,0.1,4.2c0.6,3.1,0,6.7,0.6,9.8
			c0,0.5-0.1,0.9-0.1,1.4c0.1,0.1,0.2,0.2,0.2,0.2c0,1.2,0.1,2.4,0.1,3.6c0.8,3.4,1,7.2,1.6,10.4c0,0.4-0.1,0.8-0.1,1.1
			c0.2,1.1,0.2,2.8,0.4,3.8c0.8,4.4,1.6,9.9,2.5,13.8c0.5,2.1,0.1,3.6,0.6,5.5c1.4,5.3,2.7,11.1,4.4,16.4c0.6,1.9,0.8,3.8,1.4,5.6
			c0.1,0.3,0,0.7,0,0.8c0.7,1.4,0.9,3.2,1.5,4.8c0.6,1.4,1.3,2.9,1.9,4.4c0.4,1.1,0.4,2.1,0.9,3.2c0.7,1.8,1.6,3.9,2.2,5.6
			c0.5,1.3,0.4,2.5,1,3.6c0.9,1.9,1.6,3.8,2.5,5.9c0.2,0.5,0.7,1.1,1,1.5c0.8,1.2,1,2.6,1.8,4c0.2,0.4,0.8,1,1,1.5
			c0.3,0.7,0.2,1.3,0.5,1.9c0.6,1.1,1.4,2.2,1.9,3.4c0.3,0.6,0.3,1.2,0.6,1.8c-0.1,1.2-1.1,1.1-1.9,1.6c-0.4,0.3-0.8,0.8-1.2,1.1
			c-0.9,0.6-2,0.8-2.9,1.4c-1.8,1.2-3.7,2.7-5.6,3.8c-2.6,1.4-5.3,2.6-7.4,4.5c-0.8,0.7-1.2,1.6-1.9,2.4c0,1.1,0.2,1.2,0.6,1.8
			c3.1,0,5.1-0.8,7.5-1.6c2.2-0.7,4.2-1,6.2-1.9c2.4-1,5-2.1,7.5-3c3.3-1.1,6-1.9,8.6-3.5c0.8-0.5,1.8-0.7,2.4-1.4
			c1.8,0.5,3.5,1.3,5.1,1.9c1.4,0.5,2.9,0.8,4.2,1.2c0.4,0,0.8,0.1,1.1,0.1c0.5,0.2,1.3,0.8,1.9,1c0.4,0,0.8,0.1,1.2,0.1
			c1.8,0.6,4.1,1.2,5.9,1.8c1.4,0.4,5,0.9,6.4,0.6c0.8-0.2,1.4,0.1,1.9-0.2c0.2-0.2,0.3-0.3,0.5-0.5c-0.1-2.4-2.3-3.9-4.1-4.6
			c-1-0.4-2-1.1-2.9-1.5c-2.2-1-4.3-1.5-6.4-2.6c-1.8-0.9-3.8-1.9-5.6-2.9c-0.5-0.2-0.7-0.7-1.2-0.9c0.5-1.9,2.3-3,3.2-4.5
			c1.2-1.9,1.8-3.8,3-5.8c0.7-1.1,1.5-2.3,2.1-3.4c0.5-1,0.7-2,1.2-3c0.4-0.7,1.2-1.5,1.6-2.2c0.7-1.2,0.9-2.5,1.6-3.8
			c1.5-2.5,3-5.5,4.1-8.4c0.5-1.2,0.5-2.4,1-3.6c1-2.4,2.2-5.1,3-7.6c0.2-0.6,0.4-1.4,0.5-1.9v-1c1.6-4.4,2.2-9.8,3.6-14.5
			c0.1-1.1,0.2-2.2,0.4-3.2c0.8-2.9,1.2-6.2,1.9-9.2v-2.4c0.3-1.1,0.6-2.4,0.9-3.4c0-0.6,0.1-1.2,0.1-1.8c0.2-0.6,0.6-1.2,0.6-2.1
			c1,0.4,2,2.2,2.9,2.9c1.8,1.3,3.8,2.4,6.2,3c0.3,0.1,1.4-0.2,1.8-0.2c2.4-0.6,3.1-1.6,3.9-3.9c0.2-0.5,0.5-2,0.2-2.9
			c-0.3-1.1-1.6-2.2-2.5-2.8c0.1-0.9,0.4-0.9,0.5-1.6c0.7-0.1,0.8-0.3,1.2-0.5c0.3,0.4,2.3,2,3,1.6c0.8-0.4,0.9-1.9,1.2-2.8
			c0.6-1.5,2-4.7,3-5.9c1-1.2,1.8-2.4,2.8-3.8c0.6-0.8,1.7-1.5,2.5-2.1c0.5-0.6,1.1-1.2,1.6-1.8c1.4-1.1,2.8-2.1,4.2-3.1
			c1.1-0.8,2.1-2.3,3-3.4c0.6-0.8,2-1.4,2.9-2c0.1-0.5,0.2-0.9-0.1-1.2C486.2,276.6,486.4,276.5,486.7,276.3z M315.9,274.1v-0.4
			c1.3-0.1,2.9-1.4,4.1-1.9c4.4-1.7,8.2-3.8,12.4-5.6c1.9-0.8,3.8-1.1,5.6-2c7.6-3.6,15.7-7,22.5-11.4c0.9-0.6,2-0.7,2.9-1.2
			c1-0.6,2-1.4,2.9-2.1c0.9-0.8,2.2-1.1,3.1-1.9h0.1v4.4c-1.7-0.8-2.8,0.4-4.2,1c-3.7,1.4-6.9,3.3-10.2,5c-3.6,1.8-7.1,3.8-10.5,5.6
			c-0.5,0.3-1.1,0.3-1.6,0.6c-4,2.4-8,4.9-12.1,7.1c-1.1,0.6-2.1,0.7-3.4,1.2c-1,0.4-2.2,1.3-3.1,1.8c-1,0.5-2,0.4-3,0.9
			c-0.7,0.3-1.5,0.9-2.2,1.2c-1.5,0.7-2.9,1-4.4,1.6c-0.5-0.9-1.2-1.5-1.6-2.5C314,275.2,314.7,274.2,315.9,274.1z M331.3,366.6
			h-0.1c0-0.1-0.1-0.2-0.1-0.4c0.1,0,0.2,0.1,0.2,0.1V366.6z M314.2,305.3c-0.2,0.8,0.6,1.9,0.9,2.6v0.8c0.4,1.2,1.2,2.7,1.9,3.9
			c-0.4,0.7,0.6,2.2,0.9,2.9c0.3,0.9,0.2,1.6,0.5,2.5c0.8,2.2,1.7,4.6,2.6,6.8v0.9c0.2,0.6,0.5,1.2,0.6,1.6v0.9
			c1.5,3.7,2.9,8.1,4.2,11.9c0.1,0.5,0.2,1,0.2,1.5c0.7,1.9,1.8,3.7,2.5,5.4c0.7,1.5,1.1,3.2,1.8,4.6c0.1,0.4,0.2,0.8,0.2,1.2
			c0.5,1.1,1.3,2.5,1.8,3.6c0.7,1.7,0.8,3.2,1.5,4.9c0.7,1.7,1.7,3.7,2.4,5.5c1.9,5.3,3.2,10.7,5.4,15.8c0.8,1.9,1.9,3.9,2.8,5.9
			c0.4,0.9,0.6,1.9,0.9,2.8v0.9c1.3,2.5,2.3,5.7,3.5,8.2c0.5,1,0.3,2.2,0.8,3.2c0.5,1.3,1.3,3.1,1.9,4.5c0.3,0.8,0.2,1.5,0.5,2.2
			c0.5,1.1,1.6,2,1.6,3.5c-0.7,0.1-0.8,0.2-1.6,0.1c-0.4-2.4-2-4.5-2.9-6.5c-2.1-4.8-3.9-10-5.9-14.9c-0.4-0.9-0.3-1.7-0.6-2.5
			c-0.9-2.3-2.2-4.6-3.1-6.9c-1.5-3.8-2.8-7.5-4.2-11.2c-0.8-2-2.1-4-2.9-6c-1-2.5-1.4-5-2.4-7.5c-1-2.5-2.1-5.2-3.2-8
			c-0.4-1-1.2-2.2-1.6-3.2c-1.1-3.1-2.1-6.1-3.2-8.9c-0.7-1.7-0.9-3.4-1.6-5.1c-2.4-5.8-4.3-12.4-6.2-18.5c-0.5-1.6-0.6-3-1.1-4.5
			c-0.5-1.4-1.4-2.9-1.9-4.4c-0.5-1.5-0.8-3.8-1.6-5c-0.2-0.3-0.7-0.4-0.9-0.8c-0.7,0-0.7,0.2-1.1,0.4c-0.7-0.7-1.7-0.3-2.6-0.6
			c-1.5-0.6-3.1-1.8-4.4-2.8c-1-0.8-1.5-2.2-2.5-3v-0.2c0.5,0.2,1.4,0.2,1.8,0.2c3.1,0.3,5.2-1.1,7-2.5c1.3-0.9,1.2-1.6,3.2-1.6
			c-0.2,1.3-1.9,6.2-0.1,7.1c0.4,0.5,1.7,0.8,2.6,0.8c-0.1,0.5-0.4,0.9-0.8,1.1C311.9,301.1,313.4,303.2,314.2,305.3z M317.8,288.3
			c-0.1,1.4-3.2,4.7-4.2,5.4c-0.4,0.2-1.2,1.1-1.6,0.9c-0.4,0-0.8,0-1.1-0.1c0.2-3,1.8-4.5,0-7.2c-4.8-1.1-5.7,4-10.4,3.9h-1.6
			c-0.5-0.2-1.6-0.9-2.1-1.2c-0.9-0.6-1-2.2-1.2-3.1c-1.5-4.7,2.4-8.1,5.9-9.2c1.6-0.5,4.4-0.1,5.8-0.9c1.5,0.3,2.4,0.6,3.2,1.5
			c0.4-0.1,0.5-0.1,0.8-0.4c0.9,0.4,1.1,1.6,1.8,2.2c1.1,1.1,2.1,2,2.9,3.4c0.3,0.5,1.1,1.8,0.8,2.4c0.2,0.3,0.5,0.3,0.8,0.6
			C317.3,286.4,318,287.9,317.8,288.3z M369.8,258.3c-0.1,1.5-2.5,1.7-3.6,2.2c-3.6,1.9-7.1,3.2-11.1,4.6c-3.5,1.3-6.8,3.1-10.1,4.9
			c-0.9,0.5-1.6,0.5-2.5,0.9c-1.9,0.9-3.9,2.2-5.6,3.2c-1.1,0.7-2.2,0.8-3.2,1.5c-0.5,0.3-0.9,1-1.4,1.2c-0.9,0.5-1.8,0.6-2.6,1.1
			c-0.1,0.2-0.2,0.3-0.4,0.5c-0.2,0-0.5,0.1-0.8,0.1c-0.2,0.1-0.7,0.8-1,1h-0.5c-0.7,0.4-1.3,1.3-2,1.8c-1,0.6-1.8,1-2.8,1.6
			c-0.2,0.1-0.2,0.5-0.4,0.6c-0.1,0-0.2-0.1-0.4-0.1c-0.5,0.3-1.6,0.8-1.9,1.2c-0.4,0-0.3,0.1-0.5,0c-1.1-0.4-1.1-2.1-1.8-3
			c0.9-0.8,3.4-1.3,4.6-1.8c2.5-1,5.1-2.2,7.4-3.2c0.9-0.4,1.8-0.5,2.8-1c0.9-0.5,2-1.2,3-1.6c0.5-0.2,0.8-0.1,1.2-0.4
			c0.8-0.5,1.6-1.3,2.4-1.8c1.3-0.8,2.6-1.2,3.9-2c1.4-0.9,3-2,4.5-2.8c0.6-0.3,1.1-0.2,1.6-0.5c2-1.3,4.3-2.7,6.5-3.8
			c0.4-0.2,0.7-0.1,1-0.2c0.7-0.4,1.6-1.2,2.4-1.6h0.5c0.7-0.3,1.4-0.6,2.1-1c1.6-0.8,3.3-1.9,4.9-2.6c1.3-0.6,2.4-0.8,3.5-1.6h0.2
			C369.8,256.6,369.6,257.9,369.8,258.3z M449.6,286.8c0.4-2-0.2-4.1,0.2-6.2c0.1-0.7-0.1-1.1-0.1-1.6c-0.2-1.4,0.1-3.9,0.4-5.1
			c0.5-2.3-0.1-5.5,0.4-7.8c0.5-2.4,0-5.1,0.5-7.5c0.2-0.8-0.3-1.2,0.1-1.9v-1c0.7,0.3,0.9,1.1,1.4,1.6c0.8,1,2.3,2.6,3.2,3.5
			c3.4,3.4,6.8,6.7,10.2,10.1c1.4,1.4,3.5,2.7,4.4,4.5c0.1,0.1,0.1,0.1,0.1,0.4c-0.8,0.2-1,0.8-1.5,1.1c-1.1,0.7-2.3,1.4-3.4,2.1
			c-1,0.6-2,0.8-3,1.4c-2.1,1.3-4.1,2.6-6.1,4c-0.7,0.7-1.3,1.3-2,2c-0.7,0.5-1.6,1.1-2.1,1.8c-0.9,1.1-1.7,2.8-2.5,4
			c-0.2,0-0.4,0.1-0.6,0.1C449.2,290.5,449.2,288.5,449.6,286.8z M472.7,275.1c-0.4-1.1-3.9-4.3-4.9-5.1c-0.3-0.4-0.7-0.8-1-1.2
			c-2.7-2.1-4.7-4.9-7.1-7.2c-1.5-1.5-3.2-2.6-4.5-4.4c-0.8-1.1-3.5-3.4-3.9-4.6c0-0.6,0.1-1.2,0.1-1.9c1,0.4,1.6,1.4,2.4,2
			c1.4,1.1,2.6,2.2,3.9,3.4c2.6,2.3,4.5,4.7,6.6,7.5c1.4,1.9,3.3,3.5,4.6,5.4c0.9,1.2,1.6,2.4,2.5,3.6c0.4,0.3,0.8,0.7,1.1,1
			c0.7,0.9,1.2,1.9,2.1,2.6c-0.2,1.1-3.7,3.8-4.6,4.8c-3.4,3.4-7.6,6.2-10.8,9.8c-1.1,1.2-2.8,4.2-4.1,5c-0.2,0.2-2.8-1.8-3.2-2.2
			c-0.2-0.3,0.7-1.2,0.9-1.5c0.3-0.5,0.3-1,0.6-1.5c0.6-0.8,1.6-1.4,2.4-2c0.9-0.7,1.6-1.8,2.6-2.5c1-0.7,2.1-1.2,3.1-1.9
			c0.7-0.5,1.5-1.3,2.2-1.6c1.2-0.6,2.4-0.8,3.5-1.5c1.8-1.1,3.4-2.6,5.4-3.6C472.7,276.6,473,275.9,472.7,275.1z M414.9,161.6
			c0,0,0.1,0.1,0.1,0.1c0.9,0.7,3.2,6.1,3.2,7.8c-0.3,0.1-0.2,0-0.4,0.1h-0.8c-0.4-2-1.1-6.4-2.2-7.6V161.6z M382.6,194.4
			c0.6-1.3-0.5-2.1-0.1-3.2c0.2-0.6,1.2-2,0.6-2.9c-0.1-1-1-2-1.9-1.8c0,0-0.1-0.1-0.1-0.1c0-2.9,2.6-4.8,4.6-6
			c1.6-1,3.1-2.5,5.1-3.1c1.7-0.5,3.3,0.1,4.5,0.5h1.8c2,0.5,4.9,0.4,7.2,0.9c1.2,0.3,2.4-0.4,3.5-0.2c1.4,0.2,2.9,0.4,4.4,0.6
			c0.4,0.1,0.5-0.2,0.6-0.2c0.3-0.1,1.2,0.1,1.5,0.1c1.4,0.3,3.5,0,4.8-0.1c0.4,0,1.2,0.2,1.8,0.1c0.6-0.1,1.5-0.4,2-0.5h0.9
			c1.3-0.4,2.4-1.4,3.8-1.5v0.4c0.9,0.1,0.8,0.8,1.4,1.2c0.4,0.3,0.7,0.2,1.1,0.5c0.1,0.2,0.2,0.3,0.2,0.5c0.2,0,0.3,0.1,0.5,0.1
			c0.6,0.4,1,1.3,1.6,1.8c0.8,0.6,1.9,1.7,2.6,2.4c0.6,0.7,1,1.8,1.5,2.5c0.4,0.4,0.8,0.8,1.2,1.2c0.4,0.6,0,2.1,0.4,2.8
			c-0.2,1.2-1.2,1.9-1.5,3c0,0.6,0.1,1.2,0.1,1.9c0.4,1,2.6,3.8,3.5,4.2v0.1c-4.1,0-7.2,0.1-10.9,0.6c-0.6,0.1-1.6-0.3-2.4-0.1
			c-0.5,0.1-1.2,0.2-1.9,0.2c-0.7,0-1.8-0.1-2.2,0.1h-1.2c-0.6-2.5-0.9-5.5-3.1-6.5c-1.6-0.7-4-0.3-5.1,0.5c-0.6,0.5-0.9,1.4-1.4,2
			c-0.2,0.3-0.4,0.1-0.8,0.2c-0.4,0.2-0.6,1.1-0.6,1.6c-0.5,0-1,0.1-1.5,0.1c-1.4-0.4-3.3-1.7-4.5,0c-0.8-0.4-1.1-2.5-2.2-3.2
			c-0.5-0.3-0.6,0.1-1.1-0.1c-0.2-0.2-0.4-0.4-0.6-0.6h-1.9c-1.4,0-4,0.4-4.9,1c-1.5,0.9-2,3.6-2.1,5.5c-1.2-0.1-2-0.7-3-1
			c-0.2,0-0.5,0.1-0.8,0.1c-1.2-0.2-3.1-0.7-4.1-0.9c-1.2-0.3-3,0.4-4-0.4h-0.2C380.1,197.3,381.9,195.9,382.6,194.4z M414.7,207.8
			c-0.5-0.5-1.3-0.8-1.6-1.4c-1.2-2-1.1-5.2-1-7.4c0.4-0.5,0.8-1,1.2-1.5c0.5-0.4,1.1-0.6,1.5-1.1c0.6,0,1.3-0.1,1.6-0.4
			c1,0.2,1.8,0.5,2.5,0.9c0.3,0.7,0.1,1.6,0.4,2.5C420.5,203.9,418.9,207,414.7,207.8z M403.1,203.5c-0.7,2.9-3.2,4.7-6.8,4.6
			c-2.6-2.5-4-3.5-2.8-8.1c0.3-1,0.3-2,1.1-2.5c1.1-0.6,3.4-0.3,4.4-1c0.4,0.1,0.7-0.1,1.1,0c0.2,0,1.8,1.1,2.1,1.2
			c0.2,1,0.6,1.8,0.9,2.6C403.5,201.1,403.2,202.9,403.1,203.5z M376.9,299.8c-0.4-1.5-0.2-3.3-0.6-4.9c-0.2-0.7-0.2-2.1-0.6-2.9
			c0.1-0.2,0.3-0.2,0.2-0.6c-0.1-0.6-0.4-1.7-0.4-2.2c0-0.7,0.1-2.1-0.1-3.1c-0.5-2.2-0.4-5.3-0.8-7.2c0-0.8,0.1-1.7,0.1-2.5
			c-0.7-3.6-0.3-7.8-0.5-11c-0.3-4-0.7-10-0.1-13.4c0.3-1.6-0.4-3.4,0.1-4.9c0.6,0.1,3.8,0.7,4.1,0.9h0.2c-0.4,1.4,0.1,3.2-0.2,4.8
			c-0.3,1.4-0.4,5.2,0,7v4.5c0,2.5,0.1,5.4,0.6,7.6c0.2,3.2,0.3,6.3,0.5,9.5c0.2,1.1-0.1,2.5,0.2,4c0.5,2.4,0.3,5.6,0.6,8
			c0.3,1.9,0.7,3.8,1,5.8c0.4,1.5,0.2,3.9,0.4,4.6c0.1,1.4,0.2,2.8,0.2,4.1c0.7,2.7,0.4,6.1,1.4,8.6l-0.1,0.1
			c-0.9-0.1-3.5-0.7-4.1-1.1c-0.2-0.5,0.4-1,0.1-1.8c-0.9-2.6-1.3-5.8-2-8.6C376.9,303.2,377.4,301.5,376.9,299.8z M382.6,249.4
			c0-0.5,0.1-0.6,0.2-0.9c0.3,0.1,3,0.6,3,0.6c0.1,0,0.2,0.1,0.4,0.1c0.1,5.3,0.1,7.2,0.1,13.2c0,1.5-1.1,5.2-0.4,6.2
			c0.4,0.5,0.9,0.7,1.5,1c0,1.7,0.2,4.2,0.2,5.8c0,1.4-0.3,3.5,0,4.9c0.2,1.1,0,2.8-0.1,3.8c-0.1,1.2,0,3.6,0.1,4.1
			c0,1.2,0.1,2.4,0.1,3.6c0.1,0.4,0.3,1,0.2,1.5c-0.1,0.6-0.2,2,0,2.9c0.4,1.6,0.4,3.7,0.8,5.5c0.2,0.8-0.1,1.8,0,2.2
			c0.2,1.2,0.5,3,0.9,4c0,1.2,0.1,2.5,0.1,3.8c0.4,1.8,0.8,4.3,0.9,6.2c-1-0.1-1.8-0.5-2.9-0.6c-1.2-2.6-1.1-6.5-1.8-9.8
			c0-0.3,0.1-0.7,0.1-1c-0.2-1-0.1-2.3-0.4-3.5c-0.2-1.1,0-3.4-0.4-4.6c-0.5-2-0.8-4.5-1.1-6.5c-0.1-0.8,0.4-2.1,0.1-3.1
			c-0.7-2.9-0.6-6.4-1-9.5c-0.1-1.1,0.2-2.6,0-3.6c-0.7-2.9-0.3-6.5-0.9-9.1v-3c-0.3-1.8-0.3-6.2-0.4-7.6c-0.1-1,0-1.8,0.1-2.5
			C382.5,252.6,382,250.3,382.6,249.4z M388.1,260.4v-4.9c0-1.4,0.3-3.7,0-4.8c1,0.3,1.3,1.4,1.9,2.1c0.3,0.4,0.9,0.7,1.2,1.1
			c0.9,1.3,1.7,2.5,2.5,3.9c0.4,0.7,1.2,1.4,1.6,2.1c0.3,0.4,0.2,0.9,0.5,1.2c0.2,0.4,0.8,0.7,1,1.1c0.6,1,0.9,1.9,1.4,3
			c0.3,0.6,0.8,1.2,1.1,1.8v0.5c0.2,0.3,0.7,0.7,0.9,1c0.3,0.6,0.2,1.1,0.5,1.8c0.8,1.9,2.1,4.1,3.1,5.9c0.4,0.6,0.3,1.3,0.8,1.8
			c-0.1,0.4-0.2,0.4-0.5,0.6c0.2,1.8,1.5,3.9,2.5,5v0.1h-0.2c-2-3.9-7.9-7-12-8.9c0.3-2.1,1.5-3.5,0.2-5.6c-1.2-0.5-2.3-0.4-3.6-0.9
			c-1.1-0.4-2.2-1.1-3.2-1.4c0-1.9,0.2-3.6,0.5-5.4C388.2,261.2,388.1,260.8,388.1,260.4z M404.2,256.6c-0.4,1.1-1.3,2.2-1.6,3.4
			c-0.1,0-0.2,0.1-0.4,0.1c-0.7-0.8-1.9-1.2-2.8-1.9c-0.3-0.4-0.6-0.8-0.9-1.1c-1.6-1.2-3-2.6-4.5-3.9c-0.9-0.8-2.3-2.9-3.5-3.2
			v-0.2c3.4,0,6.8,1.4,10.2,0.6c1.5-0.3,3.6,0.1,4.5-0.4h0.5C405.3,251.9,404.9,254.8,404.2,256.6z M407.8,261.9
			c0.1,0.1,0.1,0.1,0.4,0.1c-0.1,2.4-0.7,4.6-1.4,6.5c-0.4,1-0.2,1.8-0.5,2.9c-0.3,1-0.9,2.1-1,3.4h-0.1c-1.6-3.8-3.7-8-5.9-11.2
			c-1-1.5-1.4-3.4-2.6-4.6v-0.2c1,0.7,1.8,1.8,2.8,2.5c0.6,0.4,1.2,0.6,1.9,1c0.4,0.3,0.9,1,1.5,0.8c1.9-0.1,1.6-2.3,2.5-3.4v-0.1
			C406.7,259.8,406.9,261,407.8,261.9z M394.3,315.6c-0.4-1.8-0.2-3.8-0.6-5.5c0-0.8-0.1-1.7-0.1-2.5c-1-4-0.7-9-1.6-12.8v-2.2
			c-0.7-2.8-0.1-6.2-0.5-8.2c-0.2-1.1,0.4-2.6,0.1-3.9c-0.1-0.7,0.3-1.7,0-2.8c-0.3-1.2-0.2-2.6-0.4-3.8c-0.1-0.7,0.4-1.8,0.1-2.4
			c0-0.3,0.1-0.3,0.1-0.5c0.7,0,1,0.2,1.6,0.2c-0.6,1.6-0.8,3.1-0.6,4.9c1,1,2.2,1.4,3.4,2.2c0,3.7-0.7,7.4,0,10.6
			c0.1,0.6,0,1.5,0.1,2v2.5c0,1.7,0,3.6,0.4,5.5c0.1,0.4-0.1,0.9-0.1,1.1c0.1,1.4,0,3,0.4,4.5v2c0.3,1.3,0.2,3.3,0.5,4.5
			c0.5,2.4,1.1,5.6,1.2,8.2l-4.1-0.8c0.2-0.3,0.4-0.6,0.5-1C394.9,317.1,394.4,316.2,394.3,315.6z M393.9,372.4h-0.2
			c-0.2-0.7-0.4-1.4-0.8-2c-0.1-0.1-0.2-0.2-0.4-0.2c-0.1-0.3,0.2-0.6,0-1.1c-0.2-0.5-0.6-1-0.8-1.6c0,0-0.1-0.1-0.1-0.1
			c0-0.2,0.2-0.3,0.1-0.6c-0.1-0.4-0.6-1-0.8-1.4c-0.7-1.5-1.2-3.2-1.8-4.6c-0.1-0.7-0.2-1.4-0.4-2.1c-0.4-1.1-1-2.4-1.5-3.4
			c-0.3-0.8-0.2-1.5-0.6-2.1c-0.1,0-0.2-0.1-0.4-0.1c0-0.3,0.1-0.6,0.1-0.9c-0.3-1.1-1.1-2.5-1.6-3.5c0-0.1,0-0.1,0.2-0.2
			c-0.3-0.9-0.7-1.7-1-2.5c0.1-0.3,0.2-0.8,0-1.2c-0.1-0.4-0.7-0.8-0.8-1.2c0-0.4,0.1-0.8,0.1-1.2c-0.2-0.6-0.7-1.2-0.9-1.6v-0.9
			c-0.2-0.8-0.2-1.9-0.6-3c-1.1-2.9-1.8-6.7-2.8-9.8c-0.6-2.1-1.1-4.9-0.9-6.6c0.1-0.8-0.5-1.6-0.1-2.2c0.2-0.1,0.8,0.2,1.4,0.2
			c0.3,3.4,0.9,7,1.9,9.9c0.5,1.4,0.3,2.6,0.8,4c1,3.3,2,7.1,3.2,10.1v0.6c0.2,0.6,0.5,1.5,0.8,2c0,0.4,0.1,0.8,0.1,1.2
			c1.4,3.8,2.5,8.4,4,12.1c0.1,0.7,0.2,1.4,0.2,2.1c0.7,2.2,1.4,4.6,2,6.9c0.4,1.5,0.4,4.1,1.2,5.1V372.4z M395.4,360.6
			c-0.8-2.5-1.3-5.3-2.2-8c-2.4-7-4.4-14.1-6.6-21.2c-0.8-2.6-1.2-5.3-1.9-7.9c-0.3-1.1-0.2-3.1-0.8-4v-0.2c1.7,0,2.6,0.6,3.9,0.8
			c0,1.2,0.5,2.1,0.8,3.1c0.4,1.2,0.5,2.6,0.8,3.8c0.5,2,0,3.1,0.5,5.1c0.7,2.8,1.1,6,1.9,9c0.4,1.8,0.1,3.3,0.6,5
			c0.6,1.8,1.1,4,1.6,5.9c0.3,1,0.1,1.7,0.4,2.8c0.5,2,0.9,4.1,1.5,6c0.3,0.9,0.1,2,0.5,2.8v0.1
			C395.7,363.1,395.7,361.5,395.4,360.6z M398.1,371.1h-0.1c-0.5-2.1-1.2-4.4-1.6-6.6c0.2,0.1,0.1,0,0.2,0.1c1.1,1.5,0.5,4.4,1.5,6
			V371.1z M401.2,364.8h-0.1c-0.6-2.8-1.3-6.1-2.1-8.8c-0.4-1.4-0.2-2.7-0.6-4.1c-0.7-2.6-1.2-5.4-2-7.9c-1-3.3-0.7-7.5-1.9-10.5
			c-0.1-0.8-0.2-1.5-0.2-2.2c-0.6-2-0.5-3.7-1-5.5c-0.3-1.3,0-3-0.6-4v-0.6c0.7,0.3,1.6,0.5,2.5,0.5c0,1.2,0.4,2.3,0.6,3.4v1.6
			c0.3,1.1,0.5,2.8,0.8,3.9c0.6,2.2,0.4,4.9,0.9,7c0,0.9,0.1,1.8,0.1,2.6c0.9,3.8,0.7,8.4,1.8,12.1c0.1,0.8,0.2,1.6,0.2,2.4
			c0.5,2,0.8,4.1,1.2,6c0.3,1.1,0,2.5,0.5,3.4V364.8z M401.6,367h0.1v0.4C401.6,367.3,401.6,367.3,401.6,367z M401.9,367.9
			c0.1,0.2,0,0.1,0.1,0.2v1c-0.2-0.3-0.3-0.9-0.4-1.4C401.8,367.8,401.9,367.9,401.9,367.9z M402.2,369.6c-0.1-0.1-0.1-0.1-0.1-0.4
			h0.1V369.6z M406.3,367.6c-0.5-0.7-0.2-1.8-0.5-2.8c-0.8-2.4-0.7-5.2-1.4-7.9c-1.5-5.7-1.5-12.2-2.9-17.9
			c-0.6-2.4-0.1-4.4-0.6-6.8c-0.5-2.2-0.5-5-1-7c-0.2-0.8-0.6-2.2-0.4-3c1.6,0.2,3.5,0.3,5.1,0.4c-0.5,2.4,0.2,6.1,0,8.8
			c0,0.5,0.3,0.9,0.2,1.2c-0.2,1.4,0.1,2.7,0,4.6c-0.1,2.3-0.2,5.8,0.4,8.6c0.1,0.7-0.2,1.1-0.1,1.6c0.1,0.6,0.3,2.1,0.2,2.8
			c0,0.2-0.2,0.6-0.1,1C406.4,356,406.3,362.8,406.3,367.6z M403.7,297c0.4,1.1,2.7,1.7,4.4,1.6c0,1.3-0.1,2.6-0.1,3.9
			c-0.2,0.3-2,0.7-2.4,1c-0.3,0.2-0.6,0.6-0.9,0.8c-0.1,2,1.7,2.2,3.4,2c0.1,1.2,0.2,4.1-0.4,5v0.5c0,0-2.3,1.4-2.4,1.5
			c-0.1,0.2,0,0.1-0.1,0.2c0,1.1,0.4,1,0.9,1.6c0.6,0.1,1.2,0.2,1.8,0.2c0,0.5,0.1,2.6,0.1,2.6c-0.1,0-0.2,0.1-0.4,0.1
			c0.1,0.7,0.8,1,0.4,1.6v0.2c-2.1,0-3.7,0.1-5.5-0.1c-0.7-1.7-0.7-3.7-1-5.5c-0.1-0.6,0.2-1,0-1.8c-1.8-6.3-0.9-15-1.8-22.5
			c-0.3-2.9-0.4-5.2,0-7.1c0.2-0.8-0.3-1.6,0.1-2.2c0.2-0.1,1.4,0.5,1.8,0.8c1.4,1,2.2,2.6,3.9,3.6c0,0.2,0.1,0.4,0.1,0.6
			c0.7-0.1,0.9,0,1.6,0.1c-0.5,1.6,0.7,1.9,0.9,2.8c0.1,0.5-0.1,1.7-0.1,2.1c0,0.2,0.2,1.7,0.2,1.9c0.1,0.5-0.3,2-0.4,2.6
			c-1.9-0.9-2.9-0.2-4.2,0.9C403.6,296.5,403.6,296.8,403.7,297z M413.1,327.5c-0.2,0.9,0.1,2.2-0.1,3.4c-0.5,2.3-0.5,4.7-1,6.9
			c-0.3,1.2-0.1,2.6-0.2,3.6c0,0.3,0.1,0.6,0.1,0.9c-0.4,2.2-0.4,4.9-0.9,7c-0.1,1.8-0.2,3.7-0.2,5.5c0,0.8,0.2,2.1-0.1,2.6v0.2
			c-0.7-0.9,0.2-5.3-0.2-7c-0.7-2.9-0.2-7.9,0.4-11.4v-5.1c0-0.4,0.1-0.8,0.1-1.2c-0.2-0.9-0.4-3.2-0.2-4.1c0.2-1.4,0.1-3.6,0.1-6
			c0.5,0,1-0.2,1.4,0c0.5,0,1.1,0,1.5,0.1C413.5,324.4,413.3,326.1,413.1,327.5z M413.3,320c-0.7,0-1.9,0.1-2.2-0.2
			c-0.1-0.1,0.2-0.7,0-1.2c-0.2-0.4-0.8-1.1-0.8-1.6c0-0.4,0.4-1,0.2-1.8c-0.4-1.5-0.2-3.3,0.1-5c0.1-0.7-0.2-1.5-0.1-2.1
			c0.3-1.8,0.4-3.9,0-5.6c-0.4-1.8,0.4-3.2,0-4.9c-0.4-2.1,1.3-5.5,0.4-6.8c0.1-0.6,0.4-1.1,0.9-1.2c0-1-0.3-1.1-0.4-2
			c1.2-1.1,1.8-2.8,2.8-4.1c0.7-1,1.7-1.6,2.4-2.6c0.4,0.3,0.3,1.5,0.1,2.1c-0.6,2.3-0.6,5.4-0.6,8.1c0,2-0.1,4-0.1,6v3.6
			c-0.2,1.2-0.2,3.1-0.1,3.9c0.3,2.6-0.6,6-0.1,8c0.4,1.7-0.3,4.7,0.4,5.9c0,0.5,0,1.1-0.1,1.5C415.2,319.9,413.8,319.7,413.3,320z
			 M432.4,253.6c-0.1,1.4-0.5,3.8-0.2,5.2c0.1,0.7,0.4,2.7,0.2,3.5c-0.2,0.8-0.3,1.9-0.2,2.9c-3.7,0.3-5.4-1.5-8.4,0.6
			c0,1.7,2.5,5.4,3.5,6.2c0,0.1-0.1,0.2-0.1,0.2c-3.2,0.7-9.1,3-10.5,5.2h-0.2c1-2,2.2-4.3,3.2-6.2c0.8-1.4,1.1-2.9,1.9-4.4
			c0.8-1.6,2.1-3.2,3-4.8c0-0.2,0.1-0.5,0.1-0.8c0.2-0.5,0.7-0.9,1-1.4c0.4-0.7,0.5-1.4,0.9-2c0.2-0.4,0.8-0.7,1-1.1
			c1.1-1.9,1.7-3.8,2.9-5.7c0.4-0.6,1.1-1.1,1.5-1.8h0.4C432.1,250.8,432.5,252.6,432.4,253.6z M427.6,313.5v-2.1
			c0-0.1-0.3-0.8-0.2-0.9c0.2-1.6-0.1-3.3,0-5.8c0.2-3.8,0.1-8,0.5-11.9c0-0.4-0.3-0.5-0.2-1.1c0.3-2.2-0.1-4.4,0.4-6.4v-2.1
			c0.1-1.1,0-3.5,0.1-4.9c0.1-1.3-0.2-2.6,0.2-3.4c0.4-0.6,1.3-0.3,1.6-1.1c0.2-0.4-0.3-1.4-0.5-1.8c-0.7-1.2-2.1-3.8-3-4.8v-0.1
			c0.8-0.2,1.8,0,2.4,0.4c0.8,0,1.8-0.1,2.4,0.1c0.5,1.3,0.4,4.4,0.1,5.9c-0.3,1.8-0.1,5-0.1,7.6c0,1-0.3,2.5-0.1,3.2
			c0.1,0.7,0,1.5,0,2.2c-0.1,3-0.4,5.8-0.1,7.9c0.2,1.3-0.4,2.8-0.1,3.9c0.4,2-0.2,4.8,0.2,7.4c0.4,2.5,0.7,5.9,0.5,9
			c-0.9,0.1-3,0.8-3.5,1.2h-0.4C427.9,315.3,427.7,314.2,427.6,313.5z M419.7,313.4c-0.5-1.8,0.3-4.4-0.1-6.8
			c-0.1-0.4,0-1.1,0.1-1.8c0.1-0.6-0.1-1.1-0.1-1.6c-0.1-1.1,0.2-2.2,0.4-3.1c0.3-1.1-0.1-2.6-0.1-3.5c0-1.7,0.2-4.1,0.1-5.4
			c-0.1-1.1,0.3-3,0.1-4c0.2-2.4,0.5-4.8,0.8-7.1c0.1-0.5,0.7-1.6,0.2-2.2c0.2-1,2.1-1.1,2.8-1.9h0.4c-0.8,2.2,0,5.4-0.2,7.5
			c-0.1,1-0.1,2.7-0.2,3.6c0,0.3,0.1,0.6,0.1,0.9c-0.2,0.8,0,2.3-0.1,3c-0.2,1.2,0.2,3.1-0.1,4.5c-0.6,2.5-0.1,5.5-0.2,8
			c-0.2,2.7-0.2,5.5,0.2,7.8c0.2,1.1-0.2,2.7,0.4,3.5c-0.1,1.5,0.3,2,1.4,2.4v0.1c-0.7,0.3-1.5,0.9-2.2,1.1
			c-0.8,0.3-1.6,0.2-2.2,0.6c-0.4,0-0.8,0-1-0.1c-0.1-0.3-0.3-3.8-0.2-4C419.6,314.6,419.8,313.9,419.7,313.4z M430.2,246
			c-1.3,0.9-2.5,2.3-3.5,3.5c-0.3,0.4-0.9,0.6-1.2,1c-0.3,0.4-0.4,0.9-0.8,1.4c-0.6,0.5-1.2,1-1.8,1.5c-0.3,0.5-0.4,1-0.8,1.5
			c-0.6,0.8-1.5,1.6-2.1,2.4c-0.2,0.3-0.2,0.6-0.4,1c-0.6,0.6-1.2,1.2-1.8,1.8c-0.4-0.2-1.4-2.4-1.5-2.9v-1
			c-0.5-1.5-0.9-3.9-1.6-5.4c0.2-0.4-0.2-1.5-0.5-1.9v-0.2c1.8-0.2,3.5-0.4,5.2-0.6c1.3-0.4,2.8-0.8,4.2-1.1c1.9-0.4,4.6-0.1,6-1
			h0.4V246z M415.1,259c0,0,0.1-0.1,0.1-0.1c0.5,1.1,1.1,2.7,1.4,3.5c0.7,0.1,1.4-0.2,1.6,0.2c1.9,0,2.2-1.6,3-2.8
			c0.4-0.4,0.8-0.8,1.2-1.2c0.7-0.9,1.2-1.9,1.9-2.9c0.9-1.3,2.3-2.2,3.1-3.6c0.1,0.1-0.3,1-0.5,1.2c-0.9,1.1-1.9,2.4-2.5,3.7
			c-1,2.1-2,4.2-3.2,6.1c-0.4,0.6-1.1,1.2-1.4,1.9c-0.4,0.9-0.3,1.6-0.8,2.4c-0.5,1-1.4,2.2-1.9,3.2c-0.5,1.2-0.8,2.6-1.6,3.5v0.2
			c-0.7-0.4-0.7-1.7-1-2.5c-0.7-1.9-1.3-6.3-2.5-8c0-0.5,0.1-1,0.1-1.5c0.3-0.2,0.6-0.5,0.9-0.8C413.7,260.9,414.2,259.6,415.1,259z
			 M417.8,340.6c-0.4,1.4-0.7,3.3-1,4.6c-0.1,1-0.2,1.9-0.2,2.9c-0.3,1.2-0.4,3.1-0.6,4.1c-0.3,1.2-0.8,2.8-0.9,4.2
			c-0.2-0.4-0.2-1.9-0.1-2.5c0.3-1.8,0-4.8,0.5-7.1c0.4-2,0.2-3.7,0.6-5.8v-2.8c1.1-4.9,1.1-10.6,1.6-16c1.1-0.1,3.5-0.5,4.2-1h0.2
			c-0.8,3.5-1.7,7.1-2.6,10.5c-0.8,2.7-1,5.5-1.8,8V340.6z M418.4,360.9v0.2h-0.1c0.1-1,0.4-2.2,0.8-3c0.1-0.8,0.2-1.5,0.2-2.2
			c0.3-1.2,0.6-3,0.9-3.9v-1.2c0.3-1.2,0.3-2.7,0.6-4.1c0.9-3.7,1.4-7.8,2.4-11.2c0.2-0.7,0-1.3,0.1-1.8c0.5-1.9,1.1-4.4,1.8-6.4
			c0.3-0.9,0.1-1.6,0.4-2.5c0.4-1.5,1.3-3.4,1-5.1c0.8-0.4,1.6-0.8,2.4-1.1c0.5-0.2,1-0.1,1.4-0.4h0.4c-1.2,4.4-2.8,8.9-4.1,13.4
			c-0.1,0.6-0.2,1.2-0.2,1.8c-1.4,4.2-2.5,9.2-3.8,13.5c-1.1,3.8-1.8,7.4-3.1,11C418.9,358.9,419,360,418.4,360.9z M423.6,360.9
			c-0.7,1.5-1.2,3-1.9,4.4c-0.3,0.7-0.3,1.4-0.8,2v0.1h-0.1c0.4-2.4,1.5-4.6,2.2-6.8c0.4-1.2,0.4-2.2,0.8-3.5c0.8-2.6,1.6-5.5,2.5-8
			c0.3-1,0.2-1.7,0.5-2.8c1.8-5.3,2.7-11.5,4.6-16.8c0.3-0.7,0.1-1.3,0.4-2c0.8-2.4,1.6-5.1,2.4-7.5c0.4-1.3,0.4-2.5,1.1-3.4
			c0.6-0.5,2.8-1.2,3.8-1.2c0,0.9-0.3,1.5-0.5,2.2c-0.5,1.8-0.4,3.1-1,4.8c-0.7,1.9-1.6,4-2.4,5.8c-1.6,3.7-3,7.6-4.4,11.4
			c-0.8,2-1,3.9-1.8,6C427.2,350.6,425.7,356.1,423.6,360.9z M435.1,290.8c-0.3-2.2,0.5-5.7,0-8.8c-0.2-1.4-0.2-5.3,0.1-6.8v-1.9
			c0-0.2,0.3-1.1,0.2-1.2c0-1.1-0.6-4.3-0.2-5.8c0.1-0.3,0.4-0.7,0.5-0.9c0.4-1,0.3-1.8,0.5-2.8c0-2.2,0.1-4.3,0.1-6.5
			c0.2-0.9,0.3-2.6,0.5-3.8c0.2-1-0.2-2.1,0-3.1c0.4-1.8-0.5-3.8,0.2-5c0.5-1,2.8-0.9,3.6-1.6h0.1c0,1.3-0.2,2.6-0.5,3.8
			c-0.2,2.7-0.3,5.4-0.5,8.1v3.6c-0.7,2.9,0.1,6.9-0.4,9.8c-0.3,2.3-0.1,5.3-0.6,7.6v2.2c-0.5,2.4,0.1,5.1-0.5,7.8v3.8
			c-0.3,1.4-0.1,4.1-0.1,6c0,0.4,0.1,1.1,0.1,1.2c-0.3,1.9-0.1,4.4-0.1,6.5v2.2c-0.4,1.5-0.4,2.8-0.4,4.1h-0.4
			c0.1,0.6,0.3,0.4,0.4,0.5c0.3,0.8-0.9,1.1,0.1,1.8c-0.1,0.3-0.3,0.8-0.5,1.1c-0.3,0.5-1.4,0.8-2,1c0,0-0.1-0.1-0.1-0.1
			c0.1-0.6,0.5-1.4,0.2-2.2c-0.1-0.5-0.5-1.5-0.4-2.1c0.1-0.7,0.1-1.7-0.1-2.6v-3.5c-0.3-1.2-0.2-3.4-0.4-4.9
			c-0.1-0.7-0.1-4.5,0.1-5.2C434.9,292.7,435.1,291.2,435.1,290.8z M443.4,317.9c-0.5,3.5-1.5,7-2.4,10.2v1.1
			c-0.4,1.5-0.6,3-1.1,4.5c-0.4,1.1-1.1,2.2-1.4,3.4c-0.1,0.7-0.2,1.4-0.2,2.1c-0.2,0.9-0.7,2-0.9,2.9c-0.3,1.1,0,1.8-0.5,2.6
			c-0.3,0.2-0.6,0.5-0.9,0.8c-0.4,0.6-1,2-1.2,2.6c-0.7,1.5-0.9,3-1.8,4.4c-0.6,1-1.6,2-2.1,3.1c-0.3,0.6-0.2,1.3-0.5,1.9
			c-0.4,0.8-1.3,1.8-1.6,2.6c-0.6,1.4-0.8,2.6-1.5,4c-0.4,0.7-0.8,1.4-1.1,2.2c0,0-0.1,0.1-0.1,0.1h-0.1c0.3-1.4,1.2-2.7,1.8-3.9
			c1.1-2.5,2-5.5,2.9-8.1c0-0.2-0.1-0.5-0.1-0.8l0.4-0.4c0.5-1.1,1-2.5,1.4-3.5c0.8-2.3,1-4.6,1.9-6.9c1.9-5.1,3.9-10.7,6.2-15.5
			c0.1-0.6,0.2-1.2,0.4-1.8c0.7-2,1.3-4.4,2-6.5v-1.4c0.2-0.7,0.5-2.7,0.9-3.2c0-0.5,0.1-0.6,0.2-0.9
			C444.2,314.5,443.6,316.9,443.4,317.9z M446.8,258.5v2.4c-0.3,1.4-0.3,3.7-0.5,4.8c-0.4,2.2,0.1,5-0.4,7v3
			c-0.3,1.1,0.2,2.7-0.1,3.9c-0.6,2.6,0.1,6.2-0.5,8.8c0,1.8-0.1,3.5-0.1,5.2c-1,5.2-0.1,13-2.1,17.6c-0.6,0.2-1,0.3-1.4,0.6
			c-0.5-0.1-0.5,0-0.6-0.5c-0.3-0.4,0.9-2.6,0.6-3.8c-0.2-0.9,0.2-1.9,0.4-2.6v-3.4c0.1-0.7-0.3-2.8,0-4.1c0.2-0.7,0.3-2.1,0.1-3
			c-0.3-1.5-0.2-5.5,0.2-7.5c0.2-0.7-0.3-1.6-0.1-2.4c0.5-2.7,0.2-5.2,0.6-7.9c0.1-0.6-0.3-1-0.1-1.6c0.1-0.6,0.2-1.2,0.2-2v-2
			c1-4.2,0.3-9.1,0.9-14.1c0.1-0.7-0.1-1.8,0-2.5v-2.2c0.5-2,0.3-4.6,0.6-6.2c0.3-1.3-0.1-2.8,0.5-3.8c0-1.1,1-1.3,1.9-1.4
			C447.2,246.3,448,253.2,446.8,258.5z M444.2,239c-0.5,0.2-0.8,0.1-1.4,0.2c-0.7,0.3-1.4,0.6-2.1,0.9c-0.3,0-0.7,0.1-1,0.1
			c-1.5,0.7-3.4,1.5-5.1,2c-0.5,0.1-1.2-0.2-1.9,0.1c-1.5,0.6-3.7,0.9-5.5,1.4c-1.1,0.3-2.1-0.1-3.2,0.2c-5,1.3-10.8,1.9-15.8,3.1
			c-1.3,0-2.6,0.1-3.9,0.1c-2,0.4-4.9,0.4-7,0.6c-1,0.1-2.4-0.4-3.1-0.6c-1.3-0.4-2.7,0.1-4.1-0.2c-0.8-0.2-1.9-0.6-2.8-0.8
			c-0.7,0-1.3-0.1-2-0.1c-0.8-0.2-2.1-0.6-2.8-0.5c-0.8,0.1-3.5-1.2-4-0.9c-1.4,0-3.5-0.4-4.8-0.8c-0.5-0.1-1.5-0.6-2.1-0.2h-0.2
			c0-2.2,0.2-4.6,0.4-6.2c0.1-1.2-0.1-2.7,0.1-4.1c0.1-0.5,0-2.3-0.2-2.8c0.5-3.6-0.3-7.1,0.2-10.1c0.1-0.8,0.2-2,0.4-2.8v-1.9
			c0.6-2.7,1.3-6.2,0.9-9.2c-0.9-0.3-1.1-0.8-1.8-1c-1.8-0.6-2.4-0.1-2.8-2.2c0.6-0.7,2.9-3.1,4.4-1.9c1,0,1.3-0.5,1.6-1.2
			c0.9,0,1.3,0.4,2,0.6c0.7,0.1,1.4,0.2,2.1,0.2c0.3,0.1,0.9,0.4,1.2,0.5c0.3,0.1,0.6-0.1,0.8-0.1c0.1,0,0.9,0.3,1.1,0.4h3.4
			c0.3,0.1,0.8,0.4,1,0.5c0.7,0,1.3,0.1,2,0.1l0.4,0.4c0.2,0,0.4-0.1,0.6-0.1c0.6,0.1,1.5,0.4,2,0.8c0.5,0.5,0.4,1.4,0.6,2.1
			c0.4,1.1,1.1,2.2,1.8,3.1c0.4,0.5,2,1.8,2.6,2c1.3,0.4,4.6-0.6,5.2-1c0.9-0.6,2.6-2.8,3.1-3.8c0.5-0.9,0-2.9,0.4-3.5
			c0-4.4,4-0.6,5-1.9h0.2c-0.1,4.1,1,8,3.5,9.5c0.9,0.5,2.5,0.2,3.2-0.1c0.7-0.3,1.4-0.3,2-0.8c1.1-0.8,2.4-4.2,2.4-6.1
			c0,0,0.1-0.1,0.1-0.1c1.8,0.2,4.9,0.2,6.8-0.2h4.2c1.1-0.3,1.8-0.7,3.4-0.4c0.9,0.2,1.6-0.3,2.2-0.4c0.5,0.1,1,0.2,1.5,0.2
			c0.5,0,0.4-0.3,0.6-0.1c1.7,0,4.2,0.7,5-0.4c0.4,0.1,0.6,0.3,0.8,0.6c0.7,0,1.3-0.3,1.8-0.4c1.4-0.2,2.5,1.3,3.2,1.9
			c-0.1,1-1.2,2-2,2.2v0.1c-0.9,0-1.7,0-2.2,0.2c-0.5,2-0.2,3.7,0.2,5.6c0,0.3-0.1,0.7-0.1,1c0.3,1.4,0.4,3.4,0.8,4.8
			c0.3,1.3,0.2,2.1,0.2,3.2v1.5c0.2,0.6,0.3,1.9,0.5,2.6v2.2c0.8,3.4,0.7,6.2,0.6,9.9C447.1,237.4,445.7,238.4,444.2,239z
			 M460.7,306.6c0.1,0.2,0,1.1-0.2,1.4c-0.1,1.1-1.5,2.2-2.4,2.5c-1.5,0.9-4.7-0.8-5.4-1.2c-3.4-2.3-5.1-4.1-4-9.4
			c0.1-0.7-0.2-2.9,0.2-3.6c0-0.9,0.3-0.8,0.8-1.2c2,0.2,4.4,2.9,6.1,3.6c0.8,0.3,3,0.9,3.4,1.5c0,0,0.1,0.1,0.1,0.1
			c-1.1,0.5-0.8,1.5-1.5,2.2C457.9,305.1,460,304.9,460.7,306.6z M482.3,277.9c-2.2,2.9-5.3,4.9-8.1,7.1c-0.2,0.3-0.4,0.6-0.6,0.9
			c-4.6,3.6-7.4,8.5-9.9,14.2c-0.1,0-0.2,0.1-0.2,0.1c-0.6-1.2-3-2.3-4.4-2.6v-0.1c1.7-1.3,2.6-3.5,4.1-5c2.5-2.5,5.3-4.9,8.1-7
			c0.5-0.6,1.1-1.2,1.6-1.8c1.6-1.6,3.3-3.4,5.1-4.8c0.3-0.3,0.5-0.7,0.9-1c0-1,0.1-1.3-0.1-2v-1.5c-0.2-0.4-0.8-0.9-1.1-1.2
			c-1.3-1.8-2.9-3.5-4.2-5.2c-2.9-3.9-5.8-7.6-8.8-11.5c-0.3-0.2-0.7-0.5-1-0.8c-1.4-1.4-2.7-2.6-4.2-3.9c-1.7-1.4-3.2-2.8-5-4.1
			c-0.6-0.4-1.2-1.3-2-1.5c-0.4,0-0.8,0.1-1.1,0.1c0-1,0.1-3.5-0.1-3.9V242c1.3,0.9,2.4,2.2,3.5,3.4c0.2,0.1,0.4,0.2,0.6,0.2
			c2.1,2.4,4.1,4.9,6,7.4c1.5,2.1,4.1,3.5,6.1,5.1c0.7,0.6,1.3,1.7,1.9,2.4c0.9,0.8,1.8,1.6,2.6,2.4c0.3,0.4,0.6,0.8,0.9,1.1h0.4
			c0.2,0.2,0,0.4,0.1,0.6c0.3,0.6,1.2,1.1,1.6,1.8c0.8,1.1,2.1,2.2,3.2,3c0.9,0.7,1.5,2,2.4,2.6c0.2,0,0.3,0.1,0.5,0.1
			c0.3,0.3,0.5,0.9,0.8,1.2c0.5,0.6,2.1,2.1,2.8,2.5C484.2,276.9,482.9,277.1,482.3,277.9z M411.6,189.1c1.6-0.3,1.5-2.3,3.9-2.4
			c0.5,0.5,1.1,1.1,1.4,1.9c0.2,0.1,0.1,0,0.2,0.1c0.7,0,1-0.2,1.1-0.9c0.1-0.2,0-0.7-0.1-0.9c-0.1-1.3-2.4-2.9-3.9-2.9
			c-1.7,1.4-3.4,1.6-3.2,4.2C411.2,188.6,411.4,188.9,411.6,189.1z M395.7,189.4c0.7-0.1,1.2-0.8,1.5-1.2c1.2,0,1.7,1,2.2,1.6
			c0.7-0.1,0.7-0.6,1.1-1c0-0.6-0.1-1.1-0.4-1.4c-0.2-0.4-0.3-0.1-0.6-0.4c-0.2-0.1-0.1-0.3-0.2-0.5c-0.5-0.7-1.3-1-2.5-1
			c-0.5,0.6-1.2,1.4-1.8,2c0,0.7,0.2,1.2,0.4,1.8C395.7,189.3,395.6,189.3,395.7,189.4z M416.2,199.5c-0.1,0.1-0.4,0.2-0.5,0.2
			c-0.1,0-0.2,0.1-0.4,0.1c-0.1,0.3-0.1,0.6-0.2,0.8c0,0.9,0.3,1.7,1,1.9c0.1,0.1,0,0,0.2,0.1c0.2-0.2,0.6-0.3,0.8-0.5
			c0.2-0.2,0.2-0.4,0.4-0.6c-0.1-0.6-0.4-1.5-0.5-1.6C416.8,199.6,416.6,199.6,416.2,199.5z M398.1,200.4c-0.3,0.3-0.6,0.8-0.9,1.1
			c0,1,0.6,3.3,1.9,2.5c0.5-0.2,0.5-0.7,0.8-1.1c0-1.4-0.2-1.6-0.8-2.4C398.7,200.4,398.5,200.4,398.1,200.4z M404.4,215.5
			c1.2,0.1,2.8,0.9,4.2,0.5c0.7-0.2,1.1-0.6,1.9-0.8c0.7-1.3,1-1.5,0.5-3c-1.8,0.1-2.3,1.6-4.4,1.1c-0.7-0.2-1.6-0.3-2.1-0.6
			c-0.6-0.4-0.5-0.9-1.5-1c-0.1,0.3-0.1,0.6-0.2,0.8C402.8,214.4,403.7,214.5,404.4,215.5z M423.3,215.4h-0.6
			c-0.1,0.1-0.2,0.2-0.4,0.2c-0.2,1.1,0.3,2.2,1,2.8c-0.4,0.5-1,0.6-1.5,1c-0.5,0.4-0.9,1.2-1.5,1.6c-0.8,0.5-1.7,0.6-2.6,1.1
			c-1.3,0.7-2.7,1.9-4.1,2.4c-5.7,1.7-12.9-0.3-16.8-2.6c-0.7-0.4-1.2-1.4-1.8-2c0.2-0.2,0.4-0.4,0.6-0.5c0-0.8,0.2-1.4-0.2-2
			c-0.1-0.1-0.4,0-0.6-0.1c-1.2,0.2-2.1,2.5-3,3.1c-0.2,0.1-0.6,0.1-0.8,0.2c-0.5,0.6-0.3,1.3-0.1,2.1c0.3,0.1,0.4,0.3,0.8,0.4
			c0.6-0.6,1.4-1.1,1.9-1.9c1.2,0.4,1.6,2,2.5,2.8c1.9,1.4,4.3,2.3,6.8,3.2h1.1c1.3,0.3,3.5,0.7,5.1,0.4c0.9-0.2,1.6,0.1,2.2,0
			c0.4-0.1,1-0.4,1.4-0.5h1c1.5-0.4,3.2-1.6,4.5-2.4c0.9-0.6,1.9-0.7,2.8-1.2c1.3-0.8,2.3-2.3,3.9-2.8c0.1-0.1,0,0,0.2-0.1
			c0.4,0.7,0.9,1.1,1.4,1.6c0.7,0,0.8-0.2,1.2-0.5c0-0.7-0.1-1.2-0.1-1.8C426.5,219.5,423.7,216.5,423.3,215.4z M409.3,217.6
			c-1.5,0.1-0.5,1.3-1,2.5c-0.2,0.6-0.4,0.5-0.4,1.6c0.2,0.3,0.5,0.7,0.8,1c3.5,0.1,4.4-3.4,7.4-4.1c0-0.5,0.2-0.8,0-1.1
			c-0.2-0.7-1-0.7-1.6-0.9C414,217.1,409.9,218.2,409.3,217.6z M402.2,222c0.5,0,1,0.1,1.5,0.1c0.7,0.2,1.5,0.3,2.1-0.1
			c0.6,0,0.7-0.1,1-0.2c0.2-0.5,0.4-1.3,0-1.8c0-0.8-0.2-0.8-0.5-1.2c-1.8-0.4-3.4-0.8-5-1.1c-0.3,0.2-0.9,0-1.2,0.1
			c-0.4,0.2-0.5,0.7-0.8,1C399.4,220.4,400.9,221.6,402.2,222z M409.7,228.5c-0.7,0-0.7,0.1-0.9,0.5c-4-1-4.2-0.3-7,1.4
			c-1,4.4,1.4,6.2,3.8,8.6c0.9,0.9,1.3,2.3,2.2,3v0.4c1.1,0.2,1.6,0.1,2.9,0c0-0.9,0.4-1.2,0.6-1.9c0.1-0.8,0.2-1.5,0.2-2.2
			c0.4-1.3,1-2.4,1.4-4c0.3-1.6-1.2-3.7-1.2-4.6C411.2,229.5,410.2,229.1,409.7,228.5z"/>
	</g>
</g>
</svg>
