<?xml version="1.0" encoding="utf-8"?>
<!-- Generator: Adobe Illustrator 21.0.0, SVG Export Plug-In . SVG Version: 6.00 Build 0)  -->
<svg version="1.1" id="Calque_1" xmlns="http://www.w3.org/2000/svg" xmlns:xlink="http://www.w3.org/1999/xlink" x="0px" y="0px"
	 viewBox="0 0 841 595" style="enable-background:new 0 0 841 595;" xml:space="preserve">
<style type="text/css">
	.st0{fill:#C6C6C6;}
</style>
<g>
	<g>
		<path d="M238.4,323.5c26.1,0.2,53.7,3.9,76.5-9c2.8-1.5,4.1-5.5,4.9-8.4c0.2-0.5,1.4-7.5-1.1-6.1c-22.4,12.7-49.5,9.1-75.1,8.9
			C239.1,308.8,236.1,323.4,238.4,323.5L238.4,323.5z"/>
	</g>
</g>
<g>
	<g>
		<path d="M268.7,279.5c5.6,25.2,5.6,50.9,4.2,76.5c-0.2,3.1,2.2,6.3,5.6,5c3.6-1.5,5.1-5.8,5.3-9.4c1.5-26.8,1.2-53.7-4.6-80
			c-0.8-3.4-4-4.5-6.7-2.4C269.4,271.5,267.8,275.9,268.7,279.5L268.7,279.5z"/>
	</g>
</g>
<ellipse class="st0" cx="278.9" cy="371.7" rx="41.6" ry="3.1"/>
<g>
	<g>
		<path d="M376.6,323.5c26.1,0.2,53.7,3.9,76.5-9c2.8-1.5,4.1-5.5,4.9-8.4c0.2-0.5,1.4-7.5-1.1-6.1c-22.4,12.7-49.5,9.1-75.1,8.9
			C377.3,308.8,374.3,323.4,376.6,323.5L376.6,323.5z"/>
	</g>
</g>
<g>
	<g>
		<path d="M406.9,279.5c5.6,25.2,5.6,50.9,4.2,76.5c-0.2,3.1,2.2,6.3,5.6,5c3.6-1.5,5.1-5.8,5.3-9.4c1.5-26.8,1.2-53.7-4.6-80
			c-0.8-3.4-4-4.5-6.7-2.4C407.6,271.5,406.1,275.9,406.9,279.5L406.9,279.5z"/>
	</g>
</g>
<ellipse class="st0" cx="417.1" cy="371.7" rx="41.6" ry="3.1"/>
<g>
	<g>
		<path d="M514.8,323.5c26.1,0.2,53.7,3.9,76.5-9c2.8-1.5,4.1-5.5,4.9-8.4c0.2-0.5,1.4-7.5-1.1-6.1c-22.4,12.7-49.5,9.1-75.1,8.9
			C515.5,308.8,512.6,323.4,514.8,323.5L514.8,323.5z"/>
	</g>
</g>
<g>
	<g>
		<path d="M545.1,279.5c5.6,25.2,5.6,50.9,4.2,76.5c-0.2,3.1,2.2,6.3,5.6,5c3.6-1.5,5.1-5.8,5.3-9.4c1.5-26.8,1.2-53.7-4.6-80
			c-0.8-3.4-4-4.5-6.7-2.4C545.8,271.5,544.3,275.9,545.1,279.5L545.1,279.5z"/>
	</g>
</g>
<ellipse class="st0" cx="555.3" cy="371.7" rx="41.6" ry="3.1"/>
</svg>
