<?xml version="1.0" encoding="utf-8"?>
<!-- Generator: Adobe Illustrator 21.0.0, SVG Export Plug-In . SVG Version: 6.00 Build 0)  -->
<svg version="1.1" id="Calque_1" xmlns="http://www.w3.org/2000/svg" xmlns:xlink="http://www.w3.org/1999/xlink" x="0px" y="0px"
	 viewBox="0 0 841 595" style="enable-background:new 0 0 841 595;" xml:space="preserve">
<style type="text/css">
	.st0{fill:#DADADA;}
	.st1{fill:#1D1D1B;}
</style>
<ellipse class="st0" cx="417.1" cy="444.2" rx="19.4" ry="7.6"/>
<g>
	<g>
		<path class="st0" d="M415.4,328.5c0.2,0,0.2,0,0.3-0.1c0-0.1-0.2-0.4-0.3-0.6c-0.4-1.3-0.6-2-1.8-2.6c-0.6-0.1-1.2-0.1-1.7-0.2
			c-1.9-0.6-4.7-0.3-6.9-0.8h-1.3c-0.7-0.2-1.3-0.5-1.9-0.6c0-1-0.1-1.5-0.6-2.1c0-0.4,0-0.4,0.3-0.5v-0.2c-0.1,0-0.2-0.1-0.4-0.1
			c0.3-0.7-0.1-1.3,0-2c0.1-0.4-0.2-2.9-0.4-3.7c-0.2-1-0.1-1.9-0.3-2.8c0-0.2,0.1-0.5,0.1-0.7c-0.3-1-0.4-2.6-0.7-3.7v-1.3
			c0-0.2-0.3-0.6-0.3-0.8c0-0.1,0.1-0.2,0.1-0.5c-0.1-0.6-0.1-1.4-0.4-2.1c0-0.1-0.3-0.4-0.3-0.5c0-0.3,0.1-0.6,0.1-0.9
			c-0.1-0.4-0.2-0.9-0.4-1.3c0.2-1.1-0.2-3.4-0.5-4.6l-0.2-0.5c0-1.3-0.5-3.2-0.9-4.4c-0.1-0.6-0.1-1.2-0.2-1.8
			c-0.3-1.2-0.8-2.9-1-4.1c-0.1-0.4,0.2-0.8,0-1.4c-0.6-1.8-0.9-3.7-1.4-5.6c-0.2-0.6,0-1.1-0.2-1.7c-0.6-2.3-0.8-4.5-1.5-6.7
			c-0.1-0.6-0.1-1.2-0.2-1.8c-0.5-1.7-1.1-3.7-1.6-5.4v-0.8c-0.4-1.3-1-2.8-1.5-4.1v-0.5c-0.1-0.4-0.4-0.8-0.5-1.2v-0.6
			c-0.1-0.3-0.5-0.7-0.5-1v-0.7c-0.6-2-1.5-4.4-2.2-6.3l-0.3-1.4c-0.4-1.1-0.8-2.3-1.3-3.4c-0.2-0.5-0.9-1.2-1-1.7
			c-0.1-0.4,0.2-0.6,0-1.2c-0.2-0.5-0.8-0.7-0.9-1.4c-0.1-0.2,0-0.4,0.2-0.5v-0.2c-0.2,0.1-0.4,0.1-0.5,0.2
			c-0.2-0.2-0.5-0.3-0.8-0.5c-0.3-0.2-0.6-0.7-0.8-1c-0.5-0.7-1.4-1.2-2-1.8c-0.5-0.5-1.2-1.2-2-1.1c0.2-1,0.5-1.8,0.6-2.7
			c0.1-0.3-0.1-0.8-0.2-1c0-0.2,0.1-0.4,0.1-0.5c-0.2-1.2-0.3-2.5-0.2-3.4c0.1-0.7-0.3-2.3-0.2-2.6c0.3-1.2,0.4-3.5,0.3-4.6
			c-0.1-1.2,0.1-2.3,0.1-3.7c0-0.2,0.1-0.5,0.1-0.7c-0.1-0.7-0.6-2.1-0.5-2.7c0-0.4,0-1.1-0.2-1.6c0,0-1-2-1-2
			c-0.1-0.1-0.3,0-0.4-0.1c-0.1-0.2-0.1-0.4-0.2-0.6c-1.3-1.9-3.4-3-5.7-3.9c0-0.3,0.3-2,0.5-2.3v-0.5c-0.3,0-0.4,0-0.5-0.2
			c-0.9,0.1-1.3,1.6-1.4,2.6c-0.6-0.2-1.2-0.2-1.6-0.4c0.1-1.3,0.7-2.4,0-3.1c-0.5,0-0.7,0.3-1.1,0.5c-0.2,0.8-0.4,1.5-0.5,2.3
			c0,0-0.1,0.1-0.1,0.1h-0.8c-0.2-1.3-0.3-2.6-0.5-3.8c-0.2-0.1-0.4-0.2-0.6-0.3c-0.1,0.1-0.4,0.3-0.5,0.4c-0.2,0.8-0.3,2.5,0.2,3.2
			c0,0.3,0,0.6-0.1,0.7c-0.5,0.4-0.6,0-1.3,0.2c-0.5,0.2-1.7,0.5-2.3,0.9c-1.9,1.2-3.2,3.9-4,6.2c-0.1,0.6-0.2,1.2-0.3,1.8
			c-0.2,0.9-0.8,2.7-0.6,3.5c-0.2,0.3-2.4,1.2-2.8,2c-0.1,0.3-0.1,0.5-0.2,0.8c-0.5,0.9-0.8,1.3-0.4,2.7c0.1,0.3-0.1,0.8,0.1,1
			c0.1,0.1,0.8,1.1,0.8,1.1c0.2,0,0.4,0.1,0.5,0.1c0.3,0.2,0.7,0.5,1,0.7c0.2,1.3,0.1,2.6,0,3.8c-0.1,1.2,0.2,2.4,0.1,3.1
			c-0.1,0.5-0.4,0.6-0.5,1.1h0.3c0,0.4,0,1,0.1,1.1c-0.1,0.7-2.2,1.5-2.8,1.9c-1,0.7-1.9,1.6-2.9,2.4c-0.2,0.1-0.2,0.5-0.4,0.6
			c-0.2,0.2-0.7,0.2-0.9,0.5c-0.1,0.1-0.1,0.8-0.1,0.8c-0.3,0.4-0.7,0.4-0.9,0.9h-0.4v0.3h0.3c0.1,0.4,0.2,0.4,0.2,0.8
			c0.4,0.1,0.6,0.1,0.9,0.1c0,0,0.1,0.1,0.1,0.1c-0.1,1-2.7,2.6-3.4,3.6c-0.2,0.4-0.6,0.8-0.7,1.1v0.4c-0.1,0.2-0.5,0.3-0.6,0.5
			c-0.3,0.5-0.4,1.1-0.7,1.6c-0.1,0.1-0.2,0.1-0.4,0.2c-0.1,0.1,0,0.6,0,0.6c-0.2,0.2-0.6,0.3-0.7,0.5c-0.1,0.1,0,0.5,0,0.5
			c-0.1,0.1-0.4,0-0.5,0.2c0,0.1-0.4,0.8-0.4,0.8c0,0.2,0.1,0.3,0.1,0.5c-0.1,0.1-0.4,0.1-0.5,0.2v0.5c-0.4,0.8-0.7,1.6-1.2,2.5
			c-0.4,0.7-0.3,1.4-0.7,2c0.1,0.1,0.1,0.1,0.3,0.1v0.1c-0.2,0.1-0.2,0-0.3,0.1c-0.2,0.2-0.1,0.5-0.3,0.8c-0.4,0.7-1,2.1-1.3,3.1
			c-0.1,0.3-0.2,0.9,0,1.2v0.3c-0.1,0-0.2-0.1-0.3-0.1c-0.2,0.4-0.3,1.3-0.5,1.7c0,0.1,0.1,0.2,0.1,0.4c-0.1,0-0.2,0.1-0.3,0.1
			c-0.1,0.2,0.2,0.2,0.2,0.4c-0.1,0.3-0.4,0.8-0.5,1.1c0.3,1.2-0.3,2.3-0.5,3.3l0.3,0.3c-0.2,0.1-0.3,0.2-0.5,0.3
			c0.1,0.3,0,0.3,0.3,0.4c-0.1,0.1-0.3,0.2-0.5,0.3c-0.1,2.6-0.5,4.6-0.8,7.2c0,0.2,0.2,0.8,0.1,1.2c-0.2,0.7-0.2,1.3-0.1,2
			c-0.6,1,0,2.5-0.4,4c-0.2,0.9-0.1,1.9,0,2.5c0.1,0.6-0.3,1.4-0.2,2c0,0.3,0.2,0.9,0.2,1.2c0,0.3-0.1,0.6-0.1,0.9
			c0,0.2,0.3,0.8,0.3,1c0,0.2-0.1,0.2-0.2,0.3c-0.1,0.2,0,1.4,0,1.5c0,0.3,0.2,0.8,0.3,1.1c0.1,0.4-0.1,0.7-0.1,0.9
			c0.2,1.8,0.1,3.8,0.5,5.5c-0.1,0.8-0.1,1.5-0.2,2.3c0.2,0.8,0,1.9,0.1,2.7c0.3,2.3,0.3,5.3,0.6,7.1c0.2,1.1-0.2,1.8,0,2.8
			c0.7,3.1-0.1,6.8,2.3,8.3c0,2.1-0.4,4.9-0.7,6.8c-0.1,0.4,0.2,0.7,0.3,0.9c0,0.2-0.1,0.4-0.1,0.5c0,0.7,0,2.1-0.2,2.7
			c-0.1,0.3,0.1,0.9,0.1,1.1c-0.1,0.6-0.4,1.1-0.2,1.9c0.1,0.4,0.4,0.8,0.5,1.1c0.2,0.5,0,0.8,0.3,1.3c0.3,0.5,2,1.5,2.7,1.7
			c0.6,0.2,1.1,0.1,1.6,0.4c0.6,0.7-0.2,1.9,0.2,3c0.1,0.1,0.1,0.1,0.2,0.2c-0.1,0-0.4,1.7-0.2,2.2c0.3,1,0.1,3.5-0.1,5
			c-0.1,0.6,0.2,2,0.1,2.7c-0.2,1.3-0.3,3.7-0.1,4.8c0.2,1-0.4,2.5-0.1,3.7c0.1,0.3,0.3,0.5,0.4,0.7c-0.4,0.8,0,1.5-0.1,2.4
			c0,0.1,0.1,0.7,0.1,0.8c-0.2,1.2-0.2,3.5,0.1,4.7c0,0.4-0.1,0.7-0.1,1.1c0.1,0.5,0.1,1,0.2,1.6c0,0.2-0.1,0.4-0.1,0.6
			c0,0.1,0.2,0.1,0.2,0.4c0,0.5-0.1,0.9-0.1,1.4c1,4.2,0.7,10,1.7,13.7c0,0.6,0.1,1.3,0.1,1.9c0,0.2,0.2,0.8,0.2,1
			c0,0.1-0.2,0.5-0.1,0.7c0.4,1.4,0.2,2.3,0.5,3.7c0,0.7,0.1,1.4,0.1,2.1c0.1,0.3,0.3,1.1,0.3,1.5c-0.1,0.2-0.1,0.4-0.2,0.5
			c0,0.2,0.3,0.5,0.4,0.7c0.3,1-0.2,1.9,0,2.7c0.2,0.7,0.2,1.9,0.4,2.7c0,0.3-0.1,0.6-0.1,0.9c0.1,0.3,0.3,0.8,0.4,1.1
			c0,0.2-0.2,0.4-0.2,0.5c0,0.3,0.3,1.7,0.5,1.9c-0.3,0.5-0.8-0.1-1.4,0.1c-0.6,0.2-1.3,0.5-1.5,1.1c-0.2,0.3-0.1,0.8-0.1,1.2
			c0.7,0.3,1.1,0.8,1.7,1.1c0.3,0.1,0.7,0.2,1,0.3c0.5,0.2,1.3,0.7,1.6,1.1h0.1v0.2c-1.3-0.3-2.9-0.1-3.7,0.4c0,0.9,0.1,1.6,0.5,2.1
			c-0.2,0.4-0.8,0.5-1.2,0.7c-0.2,0.2-0.3,0.5-0.5,0.6c0,0.2,0,0.3,0.1,0.4c0.4,1.2,3.3,0.9,4,0.5h0.2c-0.2,0.7-1.9,1.4-2.6,1.8
			l-0.2,0.4c-0.5,0.3-1,0.2-1.5,0.5c-0.2,0.2-0.4,0.5-0.5,0.7c-0.3,0.2-0.6,0.2-0.9,0.4c-0.3,0.3-0.7,0.7-1,1
			c-1.3,0.9-2.6,1.6-3.7,2.6c-0.4,0.3-1,0.4-1.4,0.6c-1,0.7-2.5,1.9-2.5,3.6c0.5,0.5,0.8,0.9,1.5,1.2c0.9,0.3,3.2-0.3,4-0.6
			c0.3-0.1,0.9-0.6,1.4-0.5c1,0.1,4.1-1.3,5.2-1.7c1.1-0.5,2-0.7,3-1.2c0.3-0.2,0.6,0,1-0.2c0.2-0.1,0.6-0.4,0.8-0.5
			c0.4-0.2,0.7-0.2,1.1-0.4c0.3-0.2,0.6-0.6,0.9-0.7c0.5-0.2,0.8-0.1,1.3-0.4c0.8-0.4,1.6-1.1,2.4-1.5c0.8-0.4,1.8-0.3,2.6-0.8
			l0.5-0.5c0.8-0.5,1.6-0.6,2.6-1c0.2-0.2,0.3-0.3,0.5-0.5h0.6c0.8-0.2,1.6-0.7,2-1.4c0.1-0.1-0.2-0.7-0.4-0.9v-0.2
			c0.7,0,1.6,0.1,2.5,0.1c0.2-0.2,0.3-0.3,0.5-0.4c0.1-0.2,0.1-0.2,0.2-0.4c-0.1-0.8-0.7-0.8-1-1.3c-0.3-0.4-0.3-0.9-0.5-1.3v-0.4
			c0.2-0.2,0.8-0.3,1.1-0.5c0.3-0.2,0.5-0.6,0.7-0.9c-0.1-0.5-0.3-0.6-0.5-1c-0.2-0.6-0.4-4.1-0.2-4.6c0-0.9-0.3-2.2,0-3
			c0.1-0.4-0.4-0.9-0.3-1.4c0.1-0.5,0-1.9,0.2-2.4c0-0.1,0.2-0.3,0.3-0.5c-0.1-0.2-0.3-3.6-0.2-4c0.2-0.9,0.2-2.1,0.2-3.3
			c0-0.3,0.1-0.5,0.1-0.7c-0.1-0.5-0.2-1.3-0.2-1.8c0-0.2,0.2-0.9,0.2-1.1c-0.2-1.3-0.3-2.7,0-4.2c0-1.7,0.1-3.5,0.1-5.2
			c0.1-0.3,0.4-1.5,0.3-2.1c-0.1-1,0.2-2,0-3.3c-0.1-0.9-0.2-3.1,0.1-4.1v-2.4c0.4-1.6,0.4-3.9,0.8-5.8c0.1-0.6-0.1-0.9,0-1.4
			c0.2-1.1,0.1-2.2,0.3-3.3c0-0.2-0.2-0.4-0.1-0.7c0.5-2.3,0.6-4.8,0.9-6.8c0-0.3-0.1-0.6-0.1-0.9c0.4-1.9,0.4-4.7,0.2-6.4
			c0-0.3,0.2-0.7,0.2-1c-0.1-1.1-0.1-2.8,0.1-3.7c0.1-0.4-0.1-0.8-0.1-1.1c0.1-0.8,0.2-2,0.4-2.7c0.1-0.5-0.1-1,0.2-1.3v-0.1
			c0.4,0.5,0.1,1.3,0.2,2.1c0,0.2-0.2,0.3-0.2,0.6c0,0.7,0.6,3.6-0.2,4.2c0.1,0.1,0.1,0.1,0.3,0.1c-0.1,2.6-0.4,6.8,0.3,9.4v1.5
			c0.4,1.7,0.2,4.1,0.5,5.3c0.1,0.3,0.2,1.8,0.2,2c0,0.2-0.1,0.4-0.1,0.5c0.4,1.8,0.3,4.3,0.7,6.1v1.2c0.3,1.1,0.2,2.3,0.4,3.6
			c0.1,0.4-0.1,1,0,1.6c0.7,2.8,0.8,6.8,1.3,9.9c0,1,0.1,2,0.1,3c0.3,1.3,0.3,2.8,0.5,3.8v1.6c0.1,0.3,0.3,1.2,0.4,1.6
			c0.1,0.6-0.2,2.1,0,2.8c0.3,1,0.3,2.5,0.5,3.5v1c0.3,1.1,0.6,3.2,0.5,4c-0.2,1.5,1,2.7-0.1,3.7c0,1.2,1,1.8,1.6,2.5
			c-0.3,0.5-1.5,0.4-2,0.6c-0.3,0.1-0.6,0.4-0.8,0.5c0,3.4,2.4,4.2,4.6,5.5c-0.2,0.3-0.3,0.2-0.6,0.1c-0.1,0.2-0.2,0.3-0.4,0.5
			c0.1,1.8,1.8,2.7,2.7,3.7c0.7,0.7,1.5,1.8,2.4,2.3c1.3,0.8,2.5,1.3,3.8,2.1c0.9,0.5,1.7,1.3,2.7,1.7c1,0.5,2.1,0.7,3.2,1.2
			c1.2,0.6,2.3,1.1,3.6,1.6c0.5,0.3,1.2,0.9,1.8,0.8c0.5-0.1,1,0.2,1.4,0.3c0.8,0.2,3.6,0.1,3.8-0.1c0.4,0,0.8,0.3,1.2,0
			c0.3-0.2,0.3-0.5,0.5-0.7c0-1.8-0.6-2.3-1.5-3.3c0.1-0.3-1-1.8-1.2-2.1c-0.8-1.3-1.5-2.4-2.3-3.7c-0.1-0.2-0.4-0.1-0.5-0.3
			c-0.5-0.4-0.8-1-1.1-1.6c1.4-0.7,0.4-0.8,0.8-2c0.1-0.1,0.4-0.3,0.3-0.6c0-0.1-0.3-0.1-0.4-0.3c0-0.8-0.1-1.5-0.1-2.3
			c0.1-0.7-0.4-1.8-0.2-2.7c0.1-0.4,0-1.4-0.1-2c-0.1-0.6,0-1.6,0.1-2.1c0.1-0.8-0.2-2-0.4-2.7v-1.4c0-1.5,0.3-3.7-0.1-4.8l-0.3-0.3
			c0-0.3,0.4-0.2,0.3-0.7c-0.1-0.6-0.2-1.5,0-2.3c0.1-0.5,0.3-1.4,0.2-2c0-0.1-0.3-1.2-0.3-1.2c0.1-0.2,0.3-0.4,0.2-0.8
			c-0.7-2.9,0.1-5.8-0.5-9.2c0.1-0.8,0.1-1.6,0.2-2.5c-0.3-1.4,0.1-2.8-0.2-3.9c-0.4-1.6-0.2-3.5-0.5-5.2c-0.1-0.4,0.1-0.8,0.1-1.1
			c-0.2-1.6-0.2-5.1-0.6-6.9v-1.7c-0.2-1-0.2-2.2-0.5-3c0-0.3,0.1-0.5,0.1-0.8c0-1,0-1.9-0.1-2.7c-0.1-0.4,0.2-1,0.2-1.3
			c0-1,0-2.3,0.2-3c0.1-0.6-0.3-1.9-0.2-2.7c0.5-3,0.2-6.6-0.1-8.7c0-0.3,0.2-0.5,0.2-0.6c0-0.3-0.1-0.7-0.1-1
			c0.1-0.3,0.2-1.2,0.2-1.6c-0.3-2.5-0.2-6.3-0.8-9.3c-0.1-0.7,0-2.5-0.3-3c0-0.3,0-0.5,0.1-0.7c1.5,0,1.1,1.7,1.6,2.7
			c0.6,1.4,0.4,3.8,0.1,5.3c0,0.3,0.1,0.7,0.1,1c-0.1,0.6-0.2,1.9-0.2,2.3c0.1,0.8,0.7,1.3,1,1.8c2.3,0.2,3.5-1.6,4.1-3.3
			c0-0.3,0.1-0.6,0.1-0.9c0.6-1.4,0.8-1.8,0.5-3.8c0.8,0,1.5-0.3,2.3-0.2c1.8,0.3,3.6,0.4,4.9,0.6c0.6,0.1,2.8,0.1,3.1-0.1
			c0.2,0,0.3,0,0.5,0.1l4.3-1.6l-0.1-0.1C415.3,329.2,415.5,329.1,415.4,328.5z M331.8,291.5L331.8,291.5l-0.1-0.2h0.1V291.5z
			 M375.9,235.5c0.1-0.5,0.3-0.5,0.5-0.7c0.9,0.2,1.6,1.1,2.2,1.6c0.1,0.1,0,0,0.1,0c0.2,0.1,0.8,0.8,0.9,1v0.5
			c0.2,0.1,0.4,0.1,0.6,0.2c0.2,0.1,0.3,0.4,0.5,0.5c0,0.2,0,0.2-0.1,0.3c-0.1,1-2.2,1-3.1,1.4c-1.2,0.4-2.6,0.4-3.7,0.7
			c-1.3,0.4-2.5,1-3.7,1.6c-0.9,0.4-1.9,0.6-2.6,0.9h-0.2c0.4-1,2.3-2,3.2-2.7c1.1-0.8,1.8-1.9,2.6-2.9c0.3-0.4,2.3-1.9,2.8-2.1
			C376,235.6,376,235.6,375.9,235.5z M378.8,242.9c-0.1,0-0.2,0.1-0.4,0.1c-0.2,0.3,0.2,0.3,0,0.6l-0.5,0.5
			c-0.2,0.3-0.2,0.6-0.4,0.9c-0.4,0.6-1.1,0.8-1.5,1.5h-0.2c0.2-0.8,0-3.4-0.2-3.7c0.1-0.6,0.9-0.4,1-0.8c0.4,0.1,0.7,0.3,1.1,0h1.2
			l-0.3,0.3C378.7,242.5,378.8,242.7,378.8,242.9z M374.4,249c-0.1,0.6-0.5,0.7-0.8,1.1c-0.8,1.1-1.4,2.5-2.4,3.5
			c-0.1,0.1-0.1,0.1-0.3,0.1c0-0.6-0.1-3.6,0.2-3.9c0.7-0.5,2.3-0.1,3.1-0.7L374.4,249L374.4,249z M365.3,245.8
			c0.9,0,2.9-0.5,3.4-0.9c0.2,0.1,0.2,0,0.3,0.2c0.3,0.5,0,2,0.4,2.7c0,0.4,0,0.5-0.4,0.5c0,0-3.2-0.2-3.7-0.2
			C365.2,247,365.3,246.8,365.3,245.8z M368.8,256.2c0.2,0,0.4,0.1,0.5,0.1c-0.5,0.8-1,1.7-1.6,2.5c-0.1,0.4-0.2,0.7-0.4,1.1
			l-0.6,0.6c-0.6,0.9-0.8,2.2-1.6,2.9v0.1c-0.5-0.8-0.2-5.3-0.1-6.6C366.2,256.6,367.8,256.9,368.8,256.2z M352.4,220.6
			c-0.1-0.5-0.7-1.6-0.3-2.2c0.1-1.1,1.2-1.8,2.2-2c0.7-0.1,1.2,0.4,1.7,0.2c0.3,0,0.3-0.1,0.5-0.2c0.1-0.3,0.2-0.5,0.1-0.7
			c-0.2-0.4-0.8-0.7-1.2-0.8c0-3.3,0.9-5.3,2.2-7.4c0.5-0.8,1-2.2,1.7-2.7c0.7-0.5,2.1-0.3,2.7-0.9c0.2,0,0.3,0,0.4,0.1
			c0.3,0.4,0.1,1.1,0.2,1.5c0.1,0.3,0.3,0.5,0.5,0.8c0.6,0,0.7-0.1,1.2-0.4c0.1-1-0.1-1.7,0.1-2.3h0.4c0.1,0.6,0.3,1,0.5,1.6
			c0.4,0.1,0.4,0.1,0.9,0.1c0-0.2,0.1-0.5,0.1-0.7c0.1-0.1,0.2-0.2,0.3-0.5c0.2,0,0.3,0,0.4,0.1c0.8,0,1.1,0.5,1.5,1
			c0.5,0,0.7-0.4,1.2-0.3c2.5,0.6,4.8,3.4,5.8,6.1c0,0.4-0.1,0.7-0.1,1.1c0.3,1.4,0.2,2.8,0.1,3.9c0,0.2,0.2,0.8,0.2,1
			c0.1,0.6-0.6,1.5-0.4,2.2c0.1,0,0.1,0.1,0.2,0.1c0,0.2-0.1,0.5-0.1,0.7c-0.1,0-0.2,0.1-0.3,0.1c0,0.7,0.4,0.7,0.6,1.2
			c0.4,0.6,0,4.4-0.1,4.8c-0.1,0.7,0.1,1.3,0.1,2.1c0,0.2-0.1,0.5-0.1,0.7c0.1,0.3,0.3,0.7,0.2,1.2c-0.2,0.7-0.5,1.5-0.6,2.1
			c-0.1,0.5,0.1,1-0.1,1.4c-0.3,0.3-0.7,0.6-1,0.9c-0.1,0.3,0,0.5-0.2,0.7c-0.3,0.3-0.8,0.4-1.1,0.7c-0.7,0.8-1.2,1.9-2,2.7
			c-0.5,0.5-1.2,0.8-1.8,1.2c-0.2,0.1-0.2,0.4-0.4,0.5c-0.7,0.6-2.5,1.5-2.8,2.4c-0.4,0-0.6,0.1-0.8,0c-0.5,0-0.8,0-1.1-0.2
			c-0.7-0.5-1.2-1.4-1.8-2c-0.3-0.2-0.5-0.4-0.8-0.6c-0.3-0.5-0.5-1-0.8-1.5c-0.2-0.3-0.7-0.5-1-0.7c-0.5-0.5-0.9-0.9-1.5-1.4
			c-1.1-0.9-2-2.4-3.2-3.2c0-0.4,0.2-0.5,0.3-0.7c0.1-0.3-0.1-0.6-0.1-0.7c-0.1-0.6,0.1-1.3,0.2-1.7c0.1-0.6-0.1-1.4-0.2-1.9
			c-0.1-0.5,0.1-1.6,0.2-2.1c0.2-0.8-0.3-2.1,0.1-2.7c0.2-0.4,0.6,0,1-0.2c0.4-0.1,0.7-0.5,1-0.7c0-0.7-0.2-0.7-0.5-1.1
			C354.7,221.4,353.7,221.5,352.4,220.6z M363.9,251.5c-0.1,0.9-0.3,2.2-0.3,3.5c-0.6,0-2.4-0.2-2.5-0.2c-0.4-0.1-0.5-0.2-0.7-0.4
			c-0.2-0.7-0.2-1.3-0.4-1.9c-0.2-0.7,0.1-1.7-0.1-2.1c0-0.3,0-0.7,0.1-0.9c1,0.1,2.6,0.4,3.7,0.3c0,0.5,0.2,0.7,0.1,1.1
			c0,0.1-0.2,0.2-0.2,0.4C363.7,251.4,363.9,251.3,363.9,251.5z M348,237.9c0-0.2,0.1-0.3,0.1-0.5c0.2-0.3,0.6-0.3,0.9-0.5
			c0.2-0.1,0.2-0.5,0.4-0.6c0.2-0.1,0.5-0.1,0.6-0.2c0.7-0.5,1.2-1.2,2-1.6c0.3-0.2,0.7-0.1,0.9-0.3c1,0.1,2.2,1.6,2.7,2.3
			c0.2,0.2,0.4,0.2,0.6,0.4c0.2,0.2,0.3,0.5,0.5,0.7c0.2,0.2,0.4,0.2,0.6,0.4c0.5,0.3,0.8,0.9,1.2,1.3c0.1,0.1,0.5,0.1,0.5,0.3
			c0.1,0.2,0,0.5,0.2,0.6c0.6,0.8,1.2,1.8,2.1,2.4v0.4c-2.1,0-3.9-0.7-5.8-1.3c-0.6-0.2-1.2,0-1.9-0.2c-0.3-0.1-0.6-0.4-0.8-0.5
			c-0.9-0.3-1.8-0.2-2.7-0.5c-0.3-0.2-0.8-0.5-1.2-0.6h-0.7c-0.4-0.1-1.1-0.5-1.5-0.6C347,238.5,347.6,238.4,348,237.9z
			 M354.3,244.1v-0.7c0.4-0.1,3.2,0.5,3.5,0.8c0.3,0.4,0.1,1.9,0.2,2.2l0.4,0.4c-0.1,0.3-0.1,0.7-0.1,1.1c-0.5,0-1.1,0.1-1.4-0.1
			c-1.1-0.1-1.5-2-2.6-2.4C354.3,244.9,354.5,244.4,354.3,244.1z M340.9,248L340.9,248c0.1,0.2,0.1,0.1,0,0.2v0.1h-0.1
			C340.9,248.2,340.9,248.1,340.9,248z M339.8,249.9c-0.2-0.1-0.1,0-0.2-0.1C339.8,249.9,339.7,249.8,339.8,249.9z M335.5,259.6
			L335.5,259.6l0.1,0.2h-0.1V259.6z M335.4,260.8v0.3C335.4,261.1,335.3,261.1,335.4,260.8L335.4,260.8z M333.3,268.6h0.2v0.2h-0.2
			V268.6z M332.7,279.9L332.7,279.9l0.1,0.2h-0.1V279.9z M333.6,320.4L333.6,320.4l-0.1-0.2h0.1V320.4z M334.5,319.4
			c-0.4-1.6-0.5-4-0.6-5.7c-0.1-0.7,0.1-1.6,0-2c-0.3-1.1,0.2-3.1-0.4-3.9c0-0.4,0.1-0.3-0.2-0.4c-0.1-0.2,0-0.1-0.1-0.2
			c0.2-0.1,0.1,0,0.3,0c0-3.2-0.1-6.6-0.5-9.5c-0.1-0.5,0.2-1.5,0.1-2c-0.6-3.5-0.7-7.2-0.4-10.4c0-0.3-0.1-1.1-0.1-1.6
			c0-1.4,0.1-2.8,0.3-3.7c0.2-0.9-0.1-1.9,0.2-2.6c-0.1-0.2-0.1-1.6-0.1-1.8c0.2-0.6,0.4-1.8,0.5-2.5V272c0.5-2,0.7-3.9,1.2-5.9
			c0.2-0.7-0.1-1.5,0.2-2.2c0.7-1.9,1.2-4.2,2.1-5.9c0-0.1-0.1-0.6,0-0.7c0.3-0.8,0.9-1.9,1.2-2.7c0-0.2,0.1-0.5,0.1-0.7
			c0.1-0.3,0.5-0.8,0.6-1.2v-0.5c0.1-0.2,0.3-0.2,0.4-0.5c0-0.1,0,0-0.1-0.1c0.1-0.4,0.5-0.5,0.6-0.8c0-0.2,0.1-0.5,0.1-0.7
			c0.2-0.1,0.3-0.2,0.5-0.3c0.1-0.2,0.1-0.4,0.2-0.5c0.2-0.2,0.5-0.3,0.6-0.5c0.1-0.2,0-0.5,0.2-0.7c0.1-0.2,0.5-0.5,0.6-0.7
			c0.1-0.2-0.1-0.3-0.1-0.4c0.1-0.1,0.4-0.1,0.5-0.2c0.4-0.4,0.4-0.9,0.7-1.4c0.4-0.5,0.9-1,1.3-1.6h0.4c0.1-0.9,1.1-1.2,1.5-1.9
			c0.8,0.2,1.9,1.3,2.6,1.7c0.3,0.2,0.6,0.2,1,0.4l0.5,0.5c0.4,0.2,0.6,0.2,1,0.4c0.5,0.2,0.9,0.9,1.3,1.2c0.5,0.3,0.9,0.6,1.4,0.9
			c0.1,0.1,0,0.1-0.1,0.3c0.1,0.1,0.3,0.1,0.5,0.2c0,0.2-0.1,0.5-0.2,0.7c0.4,0.3,1,0.6,1.3,1c0.8,1,1.3,2,1.9,3.1l0.6,0.6
			c0,0.2,0.1,0.4,0.1,0.6c0.1,0.1,0.2,0.2,0.4,0.3c0.2,0.5-0.4,0.9-0.1,1.4c0.2,0.4,0.5,0.3,0.8,0.6c0.1,0.2,0.4,0.7,0.5,0.9
			c0.1,0.5,0.2,1,0.4,1.6c0.4,0.8,0.8,1.8,1.2,2.7c0.1,0,0.1-0.1,0.2-0.1c-0.2,0.1-0.1,0.8,0,1c0,0.1,0.3,0.4,0.4,0.5
			c0.1,0.2-0.1,0.5,0,0.9c0.2,0.5,0.3,1.3,0.5,1.9c0.9,2.4,1.4,5.1,2.1,7.7c0.2,0.9-0.1,1.5,0.2,2.4c0.5,1.6,0.7,3.4,1.3,4.9
			c-0.2,1,0.1,2.6,0.3,3.4v2.7c0.3,1.4,0.2,3,0.5,4.1c-0.1,0.4-0.1,0.8-0.2,1.2c0.2,0.9,0.6,3,0.4,4.2c-0.3,1.4,0.2,2.8,0.4,3.7
			c0,0.2-0.2,0.3-0.2,0.4c0,0.2,0.1,0.9,0.2,1.1c0.1,0.5-0.2,1.4-0.1,1.9c0,0.2,0.3,0.8,0.3,1.1c0,0.3-0.2,1-0.1,1.5
			c0.2,1,0.2,2.4,0.2,3.2v1.7c-0.2,0.6-0.7,0.9-0.7,1.9c-0.5,0-0.9,0.3-1.4,0.4c-1.1,0.3-4.4,0-4.9-0.1c-0.4-0.1-0.5,0.1-0.7,0.2
			c-0.4,0.1-0.8-0.1-1-0.2c-0.6-0.1-1.3,0.1-1.8,0c-1.4,0-2.9-0.1-4.3-0.1c-0.3,0-0.2,0.2-0.5,0.2c-0.2,0-0.5-0.3-0.7-0.4
			c-0.2-0.1-0.4,0.1-0.5,0.1c-0.9,0-2.1-0.6-2.8-0.4l-0.3-0.3c-0.3,0-0.7,0.1-1,0.1c-0.1,0-0.4-0.2-0.5-0.3c-0.5,0-1-0.1-1.5-0.1
			c-1.2-0.4-2.5-0.8-3.7-0.9c0,0-0.1-0.1-0.1-0.1c0-1.8,0.1-4.7,0.3-6.3c0,0-0.1-3-0.1-3.1c-0.1-0.2-0.3-0.3-0.3-0.6
			c0.2-0.8,0.1-1.8,0.3-2.7v-1.4c0.2-0.8-0.1-1.4,0.2-2.4c0.3-1.3,0.6-2.9,0.8-4.1c0-0.3-0.1-0.5-0.1-0.8c0.3-1.2,0.2-1.9,0.5-3.3
			c0.1-0.6-0.2-0.7,0.2-1.3c-0.2-0.2,0.1-0.3,0-0.5c-0.1,0-0.2-0.1-0.3-0.1v-0.2c0.1,0,0.2-0.1,0.3-0.1c0.3-0.6,0-1.5,0.2-1.9
			c0-0.1,0.3-0.3,0.4-0.5c-0.1-0.2-0.3-0.2-0.2-0.5c0.1-0.7,0.7-1.7,0.6-2.4c0-0.2-0.3-0.1-0.2-0.4c0.1-0.1,0.2-0.1,0.3-0.2
			c0.2-0.4,0.1-0.9,0.3-1.3h0.2v-0.6c0.2-0.7,0.2-1.5,0.5-2.3c0.6-2.1,1.2-4.6,1.7-6.4c0.4-1.4,0.1-2.3,0.5-3.6
			c0.2-0.6,0.7-1,0.8-1.6c0.3-0.5-0.7-1.3-1.3-0.8c-0.9,0.3-1.1,2.6-1.5,3.7l-0.2,0.2c0,0.1,0.2,0.6,0.2,0.7l-0.4,0.2
			c0.3,0.4,0,1.6-0.1,1.9c-0.6,1.7-0.7,3.6-1.4,5.2v0.8c-1.3,3.4-1.4,6.8-2.3,10.8c0,0.3,0.1,0.6,0.1,0.9c-0.3,1.3-0.3,2.7-0.5,3.7
			c-0.1,0.3,0.1,1.1,0.1,1.1c-0.5,0.9-0.2,1.6-0.5,2.9c-0.3,1.4-0.7,4.7-0.5,6.2c0.1,0.7-0.3,1.7,0.2,2.4c-0.3,0.6-0.3,2.9,0,3.4
			c-0.2,0.6-0.3,1-0.1,1.6c0.2,0.6-0.3,3.4-0.5,3.9c-0.1,0.5,0.3,0.6,0.2,1.2c0,0.1-0.2,0.5-0.2,0.6c0,0.1,0.2,0.5,0.2,0.6
			c-0.1,0.6-0.3,1.8-0.2,2.7c0.1,0.7-0.4,2.6-0.1,3.2c0,0.9-0.1,1-0.7,1.2c0,0,0.1,0.1,0.1,0.1c0.1,0.1,0.3,0,0.6,0
			c0,0.6,0,1.2-0.1,1.7c0,0-0.1,0.1-0.1,0.1c-0.5-0.1-1.6,0.1-2.4-0.1c-0.2-0.1-0.5-0.4-0.9-0.3c0,0-0.3,0.2-0.4,0.3
			C334.5,322.1,334.8,320.4,334.5,319.4z M333.2,304.9c0.2,0.1,0.1,0,0.2,0.1C333.2,304.9,333.3,304.9,333.2,304.9z M353.1,312.8
			c-0.2-0.1-0.1,0-0.2-0.1C353.1,312.8,353,312.7,353.1,312.8z M343.5,275.7c0.1,0,0.2,0.1,0.3,0.1v0.1
			C343.4,275.8,343.5,275.9,343.5,275.7z M346.1,267.7v-0.2h0.1L346.1,267.7L346.1,267.7z M339.6,359.3L339.6,359.3l-0.1-0.2h0.1
			V359.3z M338.8,341.3c0,0-0.3-0.3-0.4-0.4c-0.3,0-0.6-0.1-0.9-0.1c-0.4-0.2-1-0.6-1.4-0.8c-0.2-0.8-0.7-1.7-0.8-2.4
			c-0.1-0.3,0.1-0.9,0.2-1.1c-0.3-1.2-0.1-2.7,0.2-3.8c0-0.7-0.1-1.4-0.1-2.1c0.4-1.6,0.5-4.6,0.9-6.5c1,0,2.4,0.3,3,0.1
			c0.2,0.6,0.6,1.3,0.8,1.9c0.2,0.8,0.4,1.6,0.5,2.4c0.4,1.2,1,2.3,1.5,3.6c0.1,0.3,0.6,2.8,0.5,3c-0.1,0.2-0.3,0-0.4,0.5
			c-0.2,0-0.3,0-0.4-0.1c-0.9-0.1-0.8-0.9-1-1.6c-0.1-0.4-0.4-0.8-0.5-1.2c-0.1-0.4-0.1-0.7-0.2-1.1c-0.1-0.2-0.4-0.5-0.5-0.6
			c-0.2-0.6-0.1-1.7-0.4-2.2c-0.1-0.3-0.3-0.3-0.5-0.5c-0.6,0-0.7,0-1.2,0.3c-0.2,1.1,0.4,2.3,0.1,3.3c1,0.5,0.9,1.7,1.3,2.7
			c0.6,1.6,1.6,3.1,3.6,3.4c0,0.2-0.1,0.5-0.2,0.7c0.3,0.2,0.6,0.4,0.9,0.5c0,0.9,0,1-0.3,1.6c-1.1,0.2-2.7,0.3-3.6,0.2
			C339.5,341,339.2,341.5,338.8,341.3z M339.1,329.8l0.1-0.2C339.2,329.6,339.3,329.7,339.1,329.8z M393,368.8
			c0.2,0.9-0.3,2.2,0.2,2.9c-0.2,0.1-0.1,0-0.3,0c0.6,1.7,0.2,4.2,0.6,6.1v1.4c0.3,1.2,0.4,2.9,0.3,4.1c0,0.3,0.1,0.7,0.1,1
			c-0.1,0.7-0.1,1.4,0,2c0.1,0.7-0.3,1.7-0.2,2.3c0.3,1.9,0,4.2,0.5,6.1c0.1,0.6-0.1,2.1-0.3,2.3c0.6,0.7,0.1,3.9,0,4.6
			c0,0.5,0.2,3.6,0.4,3.9c-0.2,0.4-0.4,2.8-0.2,3.4c0.2,0.6,0.3,0.4,0.2,1.1c0,0.2,0.1,0.5,0.1,0.7c0,1,0,2.5,0.2,3.6
			c0.1,0.5-0.2,0.3-0.3,0.5v0.2c0.1,0.1,0.1,0.1,0.2,0.2c0,0.3-0.1,0.6-0.1,0.9c0.2,0.8,0.3,2.3,0.1,3c0.2,0.8,0.3,2.6,0,3.1v0.2
			c-1-0.1-1.1-2.3-1.4-3.1c-0.1-0.5-0.2-1.1,0-1.3c0-1.1-0.6-1.3-1.1-1.8c-0.2-0.3,0-0.7-0.2-1.1c-0.3-0.9-0.5-2.3-0.7-3.3v-1
			c-0.7-3.1-0.2-6.8-1-10.4c0-1.2-0.1-2.5-0.1-3.7c-0.3-1.3,0.1-2.3-0.2-3.6c-0.1-0.3-0.2-1-0.2-1.3c0-0.7,0.1-1.5,0-2.2
			c-0.1-0.5-0.1-2.5-0.1-2.9c0-0.1,0.1-0.4,0.1-0.6c0-0.2-0.2-2-0.2-2.2c0-0.1,0.2-0.2,0.2-0.4c-0.2-1.9,0-3.3-0.4-5.4
			c0-0.3,0.3-1,0.2-1.6c-0.3-1.1,0.1-3-0.2-4.4c-0.6-2.6-0.1-5.8-0.8-8.9v-1.7c-0.1-0.6-0.2-1.5-0.3-1.7v-1
			c-0.4-1.6-0.1-3.3-0.4-4.3v-2.9c-0.2-0.8-0.1-2-0.2-2.7c-0.2-1.3-0.4-3-0.7-4.5c-0.3-1.1,0.1-3.2-0.1-3.5c0-0.3,0-0.6-0.1-0.8
			c-0.2-0.1-0.1,0-0.2-0.1c-0.3,0-0.5,0-0.7,0.1c-0.8,2.1,0.1,5.4,0.5,7.5c0,0.2-0.1,0.4-0.1,0.6c0.1,0.9,0.2,2.3,0.5,3.3v1.5
			c0.2,1.1,0.4,3.4,0.2,4.5c0,0.2,0.2,0.3,0.2,0.4c0,0.3-0.1,0.5-0.1,0.8c0.1,0.5,0.5,2,0.4,2.7c-0.1,0.9,0.1,2.5,0.4,3.3
			c-0.1,0.6,0,1.6,0.1,2.2c0.1,0.7-0.2,1.4,0,2.3c0.2,0.9,0.3,2,0.2,2.6c0,0.2,0.3,1.1,0.3,1.2c-0.4,0.2,0.2,1.6,0,2.3
			c-0.1,0.3,0,1.3,0.2,1.7c-0.3,1.6,0.1,4.3-0.1,5.5c-0.2,0.9,0.3,2.2,0.1,3.2c-0.3,1.1,0.1,2.8,0.1,4.1c0,1.5-0.2,4.3,0.2,6
			c0.1,0.6-0.2,0.9-0.1,1.4c0.1,0.4,0.3,1.3,0.3,1.7c0,0.2-0.2,0.6-0.1,0.9c0.1,0.3-0.1,1.2,0.1,1.8c0.5,2,0.2,5.1,0.7,6.9l0.1,2.1
			c-0.1,0.2-0.2,0.5-0.3,0.7c0.1,0.1,0.2,0.1,0.3,0.2c0.2,0.4-0.1,0.6,0,1c0.2,0.7,0.2,1.5,0.5,2.5c0.1,0.5-0.1,1,0,1.3
			c0.2,1,0.5,1.8,0.5,3.2c0.3,0.3,0.4,0.5,0.8,0.6c0.2,0.8,0.3,1.6,0.5,2.4c-2.5,0-3.6-1-5.6-1.5c-2.2-0.6-4.6,0.4-7-0.5
			c-0.3-0.1-1.2-0.5-1.4-0.7c-0.2-0.2-0.2-0.7-0.5-0.8c-0.4-0.2-0.9,0-1.4-0.1c-1.3-0.4-2.6-1.2-2.7-2.7c1.1-0.2,2.5-0.4,3.4-0.9
			c0.1-0.1,0.1-0.3,0.2-0.4c-0.1-0.8-1.7-2-2.1-3c-0.4-0.8,0.2-2.2-0.1-3.5c-0.1-0.2-0.3-0.5-0.4-0.6c0.1-0.2,0.1-0.4,0.2-0.6
			c0-0.1-0.2-0.4-0.3-0.5c-0.1-0.2,0.1-0.6,0.1-0.6l-0.1-1.6c-0.2-0.8-0.4-2.2-0.7-3.1v-1.1c-0.2-0.9-0.1-1.8-0.4-2.9v-1.2
			c-0.1-0.5-0.4-1.5-0.5-1.9c0-0.1,0.2-0.5,0.2-0.6c-0.2-1.1-0.4-2.1-0.5-2.9c-0.1-0.5,0.2-1.4,0-2.1c-0.3-1.1-0.2-2.4-0.5-3.6v-1.1
			c-0.2-0.7,0-1.6-0.3-2.6c-0.4-1.7-0.6-4-0.8-5.8c-0.1-1.1,0-2.5-0.3-3.7c-0.1-1.1-0.1-2.2-0.2-3.3c-0.6-2.2-0.3-4.8-0.9-7.3
			c0-0.5,0.1-0.9,0.1-1.4c0-0.1-0.2-0.5-0.2-0.6c0-0.2,0.2-0.7,0.1-1c-0.3-1.4-0.6-4-0.5-5.6c0.1-0.8-0.3-1.9-0.1-2.7
			c0-0.4-0.1-0.8-0.1-1.2c0.1-1,0-2.7,0.2-3.4c0.3-1.2-0.1-2.5,0-3.5c0-0.1,0.3-0.3,0.3-0.4c0,0-0.3-1-0.3-1.3
			c0.1-1.1,0.2-2.8,0-4.2c-0.1-0.5,0.2-1.5,0.2-1.9c-0.2-1.9,0-4.1,0.1-5.9l-0.3-0.3c-0.6,0-0.8,0.2-1.2,0.4c-0.2,1-0.2,1.9-0.5,2.8
			v1.5c-0.2,0.5-0.4,1.4-0.5,2.1c0,0.2,0.1,0.5,0.1,0.5c-0.1,0.2-0.4,0.6-0.5,0.7c-0.1,0.3-0.2,1.6-0.3,1.9c0,0.2,0.1,0.4,0.1,0.6
			c-0.1,0-0.2,0.1-0.3,0.1c-0.1,0.2-0.2,0.9-0.2,0.9c0,0.9-0.1,2.8-0.3,3.6c0,0.2,0.1,0.4,0.1,0.5c0,1-0.1,2.1-0.1,3.1
			c-0.1,0.6,0.1,2.2,0.1,2.7c0,0.7-0.2,1.8-0.3,2.5c-0.1,1.2,0.1,2.4-0.2,3.5c0,0.8-0.1,1.6-0.1,2.5c-0.3,1.2-0.3,3-0.5,4.2
			c-0.1,0.4-0.3,1.3-0.3,1.6c0,1.3,0.2,3.1-0.2,4.6c-0.7,2.8-0.5,6.2-0.9,8.6v5.3c0,0.3,0.1,0.8,0.1,0.9c-0.3,1.2-0.1,3.3-0.4,4.5
			c0,0.7,0.1,1.4,0.1,2.1c-0.2,0.9-0.2,2.1-0.3,3c0,0.4,0.1,0.8,0.1,1c-0.3,2-0.1,3.6,0.1,5.9c0,0.2-0.2,0.3-0.2,0.4
			c-0.2,0.7,0.2,1,0,1.6c0,0.1-0.3,0.4-0.3,0.5c0,0.4,0.1,0.8,0.1,1.2c-0.1,0.7-0.1,1.5-0.2,2.3c0,0.2,0.2,0.3,0.2,0.5
			c-0.5,1.9-0.5,5.9-0.3,7.1c0.3,1.3-0.6,3.8,0.2,4.7c0,1-0.6,0.6-1.3,0.9c-0.3,0.1-0.4,0.4-0.6,0.5c0,0.6,0.6,1.7,0.9,2.1v0.5
			c-1.5,0.3-2.9,0-4.2-0.4h-1.3c-0.8-0.2-2-0.2-2.7-0.4c-0.8-0.2-1.4,0.2-1.8,0.3h-1.5c-1.1,0.3-2.6,0.7-3.9,0.6
			c0-0.2,0-0.3-0.1-0.4c-0.1-0.2-0.2-0.3-0.3-0.5c-0.4-0.1-1.3-0.4-1.6-0.2c-0.2,0-0.2,0-0.4-0.1c0-0.2,0-0.2,0.1-0.4
			c1.3,0,2.3,0.3,3.5,0.5c0.5,0.1,0.6-0.2,0.9,0.1c0.7-0.1,0.7-0.4,1.2-0.6c-0.1-0.7-0.6-0.8-0.7-1.3l0.2-0.7
			c-0.1-1.2-0.2-3.1-0.1-3.9c0.1-0.6-0.1-1.2,0-1.6c0.1-0.7-0.2-2-0.1-2.5c0.3-0.9,0.4-2.5,0.5-3.7c-0.1-0.2-0.1-0.4-0.2-0.6
			c0.2-1.3,0.5-2.9,0.3-4c-0.2-1,0.3-2.1,0.2-2.9c-0.3-1.9-0.1-4-0.2-5.8c0-0.5,0.1-1.1,0.1-1.6c-0.2-0.9-0.1-2.4-0.1-3.4
			c0.1-1.1-0.1-2.4,0-3.3c0.3-2.3-0.2-4.9,0.4-6.4c0-1.1,0.1-2.2,0.1-3.3c0.1-0.5,0-1.8,0.3-2.5c0-0.2-0.3-0.2-0.2-0.5
			c0.5-2.2,0.3-5.1,0.8-7.3c0.3-1.3,0-2.6,0.4-3.9c1-3.9,1.4-7.9,2.5-11.6c0.4-1.4,1.1-4.3,0.2-5.3c-1.2,0.1-0.8,1-1.2,1.9
			c-0.1,0-0.1,0.1-0.2,0.1c0.2,0.4,0.4,1.5,0.3,1.9c-0.6,2-0.7,3.7-1.4,5.7c-0.4,1.3-0.7,3.4-1.1,4.9c0,0.6-0.1,1.2-0.1,1.8
			c-0.1,0.3-0.4,1-0.4,1.1c0,1.2-0.1,2.8-0.4,3.8v1.1c-0.2,1-0.2,2.7-0.5,3.4c0,0.8,0.1,1.6,0.1,2.4c-0.4,1.7-0.2,3.4-0.5,4.8
			c-0.1,0.2,0.1,0.3,0.1,0.5c0,0.6-0.1,1.4,0,2.1c0,0.3-0.1,0.3-0.2,0.5v1.6c-0.1,0.8-0.1,1.4-0.2,1.9c-0.1,0.7,0,1.7,0.1,2.3
			c0,0.3-0.3,0.5-0.3,0.6c0.3,0.8,0.4,5.1,0.2,6.1c-0.2,0.9,0.3,2.2-0.1,2.9c0.2,0.2,0.2,0.4,0.5,0.5c-0.1,0.2-0.3,0.5-0.4,0.8
			c-0.1,0.5,0.1,2.5,0.1,2.9c0,0.4-0.2,1.1-0.1,1.4c0.1,0.6,0.2,1-0.3,1c0.4,1.5,0,4-0.2,5.7c0,0.4,0.3,1.2,0.1,1.7
			c-0.2,0.7-0.3,2.5-0.3,3.3c0,1-0.3,4.8-0.1,5.1v0.1c-0.4-0.1-0.3-0.3-0.5-0.5c-0.2-0.1-0.4-0.1-0.5-0.2c-0.6-0.3-1.3-0.8-1.8-1.3
			h-0.2c0.2-0.3,0.6,0,1-0.2c0.3-0.1,0.5-0.4,0.7-0.5c-0.1-1.4-0.7-2.7-1.1-4c0-1.2-0.1-2.4-0.1-3.6c-0.1-0.5-0.2-1.4-0.4-2v-1.7
			l-0.2-0.5c0-0.2,0.2-0.7,0.1-1.2c-0.4-1.8-0.5-3.9-0.9-5.7c-0.1-0.3,0.1-0.8,0.1-1c-0.1-0.8-0.1-1.6-0.2-2.5
			c-0.7-2.5-0.7-5-1.3-7.4c0-1.2-0.1-2.3-0.1-3.5c-0.5-1.9-0.5-4.2-0.9-6.4c-0.1-0.7,0.2-1.6,0.1-2.2c-0.3-1.5-0.2-3.2-0.1-4.4
			c0.1-0.9-0.2-3.7-0.4-4.2c0.2-0.5-0.2-1.2-0.1-1.6c0.1-0.8-0.2-2,0-2.8c0.1-0.4-0.2-0.9-0.2-1.1c0,0,0.3-0.4,0.3-0.5
			c0.1-0.5-0.1-1.4-0.1-1.9c0-1,0-1.8,0.3-2.2c-0.3-0.4-0.1-3.7,0.1-4.6c0.2-0.9-0.2-2.3-0.1-3c0.2-1-0.1-1.8-0.1-2.7
			c0-0.2,0.2-0.1,0.2-0.4c0-0.2-0.2-0.7,0-1v-0.8c2.3,0.5,4.6-0.4,5-2.4c0.2-0.9-0.5-2.5-0.4-3c-0.6-0.2-0.7-0.5-1.2-1.1
			c0.2-0.4,0.5-0.8,0.6-1.2c0.2-0.6-0.3-0.9-0.5-1.2c0.3-0.5-0.6-3.9-0.9-4.5c-0.1-0.1-0.2-0.2-0.4-0.3c-0.3-0.7-0.3-1.5-0.5-2.2
			c-0.4-1.1-0.9-2.3-1.3-3.3c-0.3-0.8,0.3-1.6,0-2.6c-0.3-1.1-0.3-3.3-0.2-4.4c0-0.2-0.1-0.4-0.1-0.6c0-0.9-0.1-2.7,0.1-3
			c0-0.4,0.1-0.4,0.2-0.7c1.4,0,2.8,0.6,3.7,0.8c0.3,0.1,0.6-0.1,1,0c1.4,0.4,2.8,0.5,4.2,0.8c0.1,0,0.2-0.1,0.4-0.1
			c1.3,0.3,2.5,0.1,3.8,0.4c0.5,0.1,1.2-0.3,1.5-0.2c1,0.3,2.6,0.4,3.7,0.4c0.4,0,0.8-0.2,1.3-0.1c2.1,0.4,5,0.1,7-0.4
			c0.5-0.1,0.6,0.4,1.1,0.3l0.3-0.3c0.4-0.2,0.8,0,1-0.1c1.3-0.3,2.6,0,3.8-0.3c0.6-0.1,1,0.2,1.6,0c1.2-0.3,2.4-0.8,3.7-1.2
			c0.6-0.2,3.5-0.5,3.7-0.3c0.2-0.1,0.1,0,0.2-0.3c1.4-0.1,5.1-1,5.9-1.6c0.2,0,0.3,0,0.5,0.1c0.2,0.3,0.2,1.7,0.2,2.2
			c0.6,1.1,0,1.4,0.1,2.6c0.2,1.7,0.1,3.7,0.5,5.3c0.3,1.3-0.4,3.4,0.6,4.1c-0.1,0.2-0.1,0.2-0.3,0.4c0.1,0.2,0.5,0.6,0.7,0.7
			c0.1,1.3,0.3,2.4,0.5,3.6c0.1,0.6,0.1,1.2-0.2,1.5c0.1,0.2,0.3,0.3,0.5,0.4c-0.1,0.6,0.1,1.9,0.3,2.7c0.3,1.1,0,2.6,0.2,3.7
			c0.1,0.6,0,1.7-0.1,2.2c-0.1,0.5,0.3,0.6,0.2,1.1c-0.1,0.2-0.2,1-0.2,1.3c0.1,0.6,0.2,2.3,0.3,3.1c0.1,1.1-0.4,2.9,0.1,3.8
			c-0.2,1-0.4,2.6-0.3,3.8c0,0.3,0.1,0.8,0.1,1.1c-0.3,2-0.5,5.3-0.2,6.8v1.7C392.9,364,392.6,367.2,393,368.8z M387.5,356.4
			L387.5,356.4l-0.2,0.1v-0.2C387.3,356.4,387.4,356.4,387.5,356.4z M395.4,324.5c-0.8-0.2-1.7-0.3-2.7-0.4c-0.1-0.2,0-0.4-0.1-0.5
			c0-0.7-0.3-0.9-0.8-1c0.1-0.9-0.2-2.6-0.4-3.4c-0.2-0.7,0.1-0.9,0-1.6c-0.1-0.4-0.3-1-0.2-1.5c0-0.1,0.3-3.3,0.2-3.6
			c-0.1-0.3-0.3-0.8-0.4-1.1v-1.1c-0.2-0.9-0.2-2.4-0.5-3.5c0-1-0.1-2-0.1-3c-0.1-0.4-0.3-1.1-0.4-1.4v-1.6
			c-0.1-0.6-0.2-2.2-0.5-3.4c0-0.2,0.1-0.6,0-1c-0.4-1-0.5-3-0.8-4.4c-0.1-0.5,0.1-0.9,0-1.2c0-0.1-0.3-0.4-0.4-0.5
			c0-0.2,0.1-0.7,0.1-0.8c0-0.4-0.2-1-0.3-1.4c0-0.2,0.1-0.8,0-1.2c-0.9-3.4-0.8-7.2-1.9-10.7v-1c-0.2-0.7-0.2-1.5-0.4-2.3
			c-0.6-2.3-0.8-5.1-1.5-7.3V265c-0.3-1.2-0.7-2.5-1.1-3.6c-0.1-0.2,0-0.5-0.2-0.7c-0.1-0.1-0.4-0.2-0.5-0.4c-0.3,0-0.5,0-0.6,0.1
			H382c0.2,1.8,1.1,4.1,1.6,5.9c0,0.5,0.1,1.1,0.1,1.6c0.6,2.6,0.7,5.2,1.5,7.6c0.1,0.4-0.1,0.9,0,1.4c0.5,1.8,0.5,4.2,1.4,5.8
			c0,0.1-0.3,0.4-0.2,0.7c0.1,0.5,0.3,1.3,0.4,1.9c0,0.1-0.2,0.4-0.1,0.6c0,0.1,0.3,0.3,0.3,0.4c0.1,0.4-0.2,1.3-0.1,1.9
			c0.5,1.9,0.4,3.7,0.9,5.5c0.4,1.6,0.5,3.2,0.7,4.8c0,0.4-0.1,1.3,0,1.7c0.1,0.8,0.4,1.8,0.5,2.7c0,1.8,0.7,4.2,0,5.1
			c0,0.7-0.2,0.6-0.5,1c-0.4-0.1-0.5-0.2-0.7-0.5c-1.2,0-1.1,0.8-2,1c-1.9,0.5-3.6,0.3-5.4,0.7c-0.4,0.1-0.9,0.4-1.2,0.5
			c-0.6,0.2-1,0-1.6,0.2c-0.5,0.2-1.2,0.7-1.8,0.8c-1.4,0.4-3.7-0.3-4.8,0.4c-0.5,0-1.2,0-1.6-0.1c-0.2-1.2-0.2-3.5-0.2-5
			c0-0.2,0.2-0.7,0.1-1.1c-0.1-0.6-0.2-1.6-0.4-2.3c-0.1-0.5,0.2-0.8,0.1-1.5c-0.1-0.5-0.3-1.5-0.3-2.1c0-0.3,0.1-1.2,0-1.7
			c-0.3-1-0.3-2.2-0.3-3.7c0-0.4,0.1-1.1,0.1-1.4c-0.4-2.6-0.5-4.9-0.8-7.7c-0.1-0.6,0.2-1.3,0.1-1.9c-0.3-1.1-0.2-2.6-0.4-3.5
			c-0.4-2-0.8-3.9-1.3-5.7v-1c-0.2-0.9-0.2-1.7-0.5-2.7c-0.1-0.5-0.9-2.6-0.7-3.1c0.1-0.3,0.5-0.6,0.5-0.8c0.8-2.2,1.7-4,2.8-5.8
			c0.8-1.3,1.3-2.7,2.1-4c0.5-0.7,1-1.5,1.6-2.2c0.1-0.2,0.5-0.2,0.5-0.4v-0.4c0.2-0.4,0.6-0.6,0.8-1V253c0.1-0.1,0.4-0.1,0.5-0.3
			c0.3-0.4,0.4-0.8,0.6-1.2c0.3-0.4,0.8-0.8,1.1-1.2c0.7-1,1.2-2,1.9-3c0.4-0.5,1-0.8,1.4-1.3c0.2-0.3,0.2-0.7,0.5-0.9
			c0.1-0.1,0.8-0.5,0.8-0.5c0-0.1-0.1-0.2-0.1-0.3c0.1-0.3,0.4-0.5,0.5-0.7c0.2-0.4,0-0.7,0.2-1.2c0.2-0.6,0.7-0.9,1-1.3
			c0.2,0,0.2,0,0.3,0.1c0.8,0.2,1.5,2.7,1.8,3.6c0.1,0.2,0.4,0.5,0.5,0.7c0.2,0.5,0.1,0.8,0.3,1.3c0.3,0.8,0.8,1.7,1.1,2.4
			c0.3,0.6,0.2,1.9,0.5,2.7c0.4,1.2,1.3,2.6,1.3,4.1h0.3c-0.1,0.8,0.4,1.4,0.6,2c0.2,0.4,0,0.7,0.2,1.2c0.1,0.3,0.4,0.9,0.5,1.2v0.5
			c0.4,0.9,0.8,2.1,1.1,3.1c0.1,0.5,0.1,1,0.2,1.5c0.7,2.3,1.3,5.6,1.9,7.7v1.1c0.1,0.4,0.3,0.9,0.5,1.3c0.3,0.8,0,1.7,0.3,2.6
			c0.6,2,1.1,4.8,1.6,6.5c0.1,0.4-0.2,0.5,0,1.1c0.8,2.8,0.8,5.8,1.7,8.1c0.2,0.5,0.4,3,0.4,3c0.2,1.1,0.6,2.9,0.7,4.1
			c0.1,0.4-0.2,0.8-0.1,1.1c0,0.1,0.3,0.3,0.4,0.5c0,0.3-0.1,0.5-0.1,0.8c0.2,0.6,0.4,1.7,0.4,2.3c-0.1,0.7,0.6,1.9,0.4,2.2
			c0,2,0.5,4,0.8,5.8c0,0.1-0.2,0.4-0.2,0.5c0,0.4,0.1,1,0.2,1.6c0.3,1.3-0.1,3.5,0.3,4.2c0.1,0.2-0.1,0.5-0.1,0.5
			c-0.1,0.7,0,2.4,0.4,2.7c-0.1,0.3-1.5,1.3-1.8,1.3c-0.2-0.1-0.4-0.1-0.5-0.2C396.8,324.2,396,324.6,395.4,324.5z M413.4,329.2
			c-2.6,0.9-7.6,0.7-10.1,0c-0.4-0.1-1.1,0.1-1.4,0.1c-1.1,0-1.9,0-2.7,0c-0.2,0.2-0.4,0.3-0.5,0.5c0.1,2.8-0.3,5.8-2,7.5
			c-0.2,0-0.2,0-0.4-0.1c-0.5-2.2,0.4-4.8,0-6.9c-0.3-1.2,0-2.9-0.8-3.5c0-0.3,0-0.5,0.1-0.6c0.7,0,1.4-0.1,2.1-0.1
			c0.9-0.3,2-0.4,2.7-1c0.6,0,0.7,0.3,1.1,0.5c0.6,0.3,1.6,0.4,2.3,0.5c0.7,0.2,1.8-0.1,2.8,0.1c2.2,0.5,5.4,0.3,7.1,1.4
			C413.5,327.9,413.5,328.6,413.4,329.2z M361.1,219.5c0.2,0,0.3-0.2,0.4-0.2c0.3,0,0.2,0.1,0.3,0.2c0.2,0,0.4-0.1,0.6-0.1
			c1,0.2,1.7,0.3,2.6-0.4c0.2-0.1,0.1-0.4,0.3-0.5c0.2-0.2,0.6-0.4,0.7-0.6c0.3-0.6,0.3-1.7,0.5-2.1c0.1-0.2,0-0.1,0.1-0.2
			c0.6,1.6,1.8,2.8,3.6,2.9c0.1,0.3,0.2,0.4,0.1,0.6c0.2,0.3,0.4,0.2,0.6,0.4c1,1,2.3,2.5,2.5,4.3c-0.8,0-1.4,0.2-2,0
			c-0.7-0.2-2.2-1.6-2.7-2.2c-0.1-0.1-0.1-0.1-0.1-0.3c-0.6-0.1-1.1-0.8-1.4-1.3c-0.3,0-0.6,0.1-0.7,0.2c-0.4,0.1-0.3,0.3-0.5,0.5
			c0.1,1.2,1.2,1.6,1.7,2.4h0.5c0.1,0.5,0.3,0.5,0.6,0.7h0.4c0,0.2,0.1,0.4,0.1,0.5c0.2,0,0.2,0,0.4-0.1c0.4,0.8,1.2,1.1,1.9,1.3
			c0.4,0.1,0.4-0.3,0.7-0.2c0.3,0.1,1,0.3,1.4,0.1c2.9-0.2,1.3-4.1,0.5-5.4c-0.2-0.3-0.7-0.5-0.9-0.7c-0.3-0.3-0.6-0.9-0.5-1.3
			c-0.1-0.1-0.2-0.1-0.5-0.1c0.1-0.8,1.2-1.3,1.5-2.2c0.8-2.4-1-4.3-2.7-4.9c-1.3-0.5-1.6,0.6-2.9,0.3c-0.2,0.3-0.1,0.6-0.4,1
			c-0.5,0.8-0.9,1.4-1,2.7c-0.3-0.2-0.8-2.2-1.1-2.7c-0.6-0.8-1.9-0.4-2.5-1.1c-0.4,0.1-0.6,0.4-0.8,0.5c-0.5,0.1-1.3-0.3-2.1,0
			c-1.4,0.5-2.6,3.3-1.9,5C358.3,217.4,360.1,219.3,361.1,219.5z M368.8,212.7c0.5,0.1,1.4-0.1,1.8,0.3c0.7,0.1,0.7,0.5,1,0.8v0.8
			c-0.6,0.1-0.7-0.2-1.2-0.4c-0.8-0.2-1,0.2-1.6,0.3c0,0.3-0.2,1,0,1.3v0.1c-0.2-0.1-0.3-0.2-0.5-0.3
			C368.2,214.4,368.3,213.6,368.8,212.7z M359.8,214.4c0.1-0.5,0.5-0.9,0.7-1.3c1.3-0.5,1.9-0.2,3.1,0.1c-0.1,0.2,0,0.1-0.1,0.2
			c0.1,0.5,0.4,0.3,0.6,0.6c0.2,0.4,0,1,0.3,1.3v0.3c-0.4-0.3-1.3-0.9-2-0.8v0.1c-0.3,0.2-0.8,0.4-1.2,0.5c0,0.4-0.1,0.6-0.3,0.7
			c0.2,0.4,0.6,1.1,0.9,1.4v0.2c-0.2-0.1-0.1,0-0.2-0.1C360.6,217.5,359.4,215.8,359.8,214.4z M368.9,228.8l-0.8,0.3
			c0,0.1-0.1,0.2-0.1,0.3c-0.2,0.2-2.9,0.6-3.3,0.5c-0.5-0.2-1-0.3-1.5-0.5c-0.3-0.2-0.3-0.6-0.7-0.7c-0.1-0.1-0.3-0.1-0.5-0.1
			c-0.2,0.4-0.5,0.2-0.6,0.7c-0.2,0.6,0.7,1.5,1.4,1.6c0,0,0.1-0.1,0.1-0.1c0,0.1,0.1,0.2,0.1,0.3c0.2,0.2,2.2,0.7,2.7,0.5
			c1.9-0.6,3.3-0.1,4.6-1.7c-0.1-0.6-0.3-0.5-0.3-0.9C369.5,228.8,369.2,228.8,368.9,228.8z M364,283.7c0.3-0.6-0.3-1.4-1.2-1.6
			c-0.2,0.1-0.6,0.1-0.8,0.3c-0.6,0.2-0.8,1.3-0.7,2.1c0.2,0.2,0.5,0.4,0.7,0.6C362.9,285.2,363.5,284.2,364,283.7z M362.5,294.3
			v-0.3h-0.1c-0.1-0.1-0.1-0.1-0.3-0.1c0,0.3,0.1,0.3,0.1,0.4c0,0.1-0.1,0.2-0.1,0.4c-0.1,0-0.2-0.1-0.4-0.1c0,0.3-0.1,0.3-0.2,0.5
			c0.5,0.4,0.3,0.9,0.7,1.5c0.2,0.3,0.5,0.3,0.7,0.5c1.1,0,1-0.6,1.7-0.9c-0.2-0.9-0.3-1.6-1.1-1.8
			C363.4,294.1,362.9,294.3,362.5,294.3z M361.7,294.7c-0.1-0.2,0-0.1-0.3-0.2C361.4,294.8,361.3,294.7,361.7,294.7
			C361.6,294.8,361.7,294.7,361.7,294.7z M363.8,303.9c-0.3,0.3-1,0.6-1.4,0.8c0,0.5,0,1.4,0.2,1.6l0.5,0.5c0.4,0,0.6-0.1,0.8-0.3
			c0.5-0.2,0.7-1,1-1.4c0-0.7-0.2-0.9-0.5-1.3L363.8,303.9L363.8,303.9z"/>
	</g>
</g>
<g>
	<g>
		<path class="st1" d="M499,416.5c-0.2-0.3-0.4-0.3-0.5-0.6c-2.5-0.2-3.5,1.2-4,3.2c-0.1,0.4,0.1,0.6-0.1,1.2c-0.3,1-0.7,1.9-1,2.8
			c-0.3,1-0.8,2.7-1.6,3.1c0,0.1,0,0.2,0,0.3c-1-0.1-1.6-0.8-2.2-1.3c-0.3-0.1-0.5-0.2-0.8-0.3c-1.2-0.7-3.2-1.9-4.8-1.7
			c-0.1,0-0.2-0.2-0.3-0.2c-0.8-0.2-2,0.2-2.4,0.5c-0.3-0.2-0.5-0.6-0.7-0.8c-0.3-0.3-0.8-0.5-1.2-0.8c-0.2-0.2-0.3-0.6-0.5-0.8
			c-0.6-0.5-2.2-0.4-3-0.2c-0.5,0.1-0.8,0-1.2,0.2c-0.7,0.4-1,1.1-1.6,1.6c-0.2,0.2-0.5,0.4-0.7,0.5c-0.2,0.3-0.2,0.6-0.5,0.8
			c-0.6,0.5-1.9,0.4-2.7,0.6c-0.4,0.1-1,0.8-1.7,0.5c-0.2-0.1-0.5-0.4-0.7-0.5c-0.4-0.1-0.8-0.1-1.2-0.2c-0.1-0.1-0.4-0.3-0.5-0.4
			c-0.2,0-0.3,0.1-0.5,0.1c-1.6-0.5-3.3-0.8-4.8-1.4c-0.5-0.2-1-0.6-1.4-0.8c-0.9-0.4-1.9-0.7-2.7-1c-1.7-0.5-3.6-0.7-5.2-1.2
			c-0.9-0.1-1.9-0.2-2.8-0.3c-1-0.2-1.9-0.5-2.9-0.7c-0.7,0-1.3-0.1-2-0.1c-0.1,0-0.3-0.3-0.4-0.3c-0.2,0-0.4,0.1-0.5,0.1
			c-0.6-0.1-1.8-0.4-2.3-0.7c-0.5-0.3-0.9-0.9-1.4-1.2c-0.4-0.3-1-0.5-1.3-0.9c-0.5-0.7-1.3-1.5-1.6-2.3c-0.2-0.4-0.3-0.6-0.3-1.1
			c0,0,0.1-0.1,0.1-0.1c-0.1-0.2-0.5-0.3-0.5-0.5c0-0.3-0.1-0.5-0.1-0.8c-0.2-0.7-0.7-1.5-1-2.1c-0.2-0.3-0.1-0.7-0.3-1
			c-0.4-0.8-0.7-1.9-1.2-2.7c-0.2-0.3-0.7-0.8-0.7-1.1c-0.1-0.3,1-1.6,1.1-2c0.1-0.2-0.1-0.3-0.1-0.4c0.3-1.2,0.8-2.9,1.2-4.1
			c0-0.4,0.1-0.7,0.1-1.1c0.5-1.2,0.9-2.6,1.3-3.9c0.2-0.6,0.2-1.1,0.4-1.6c0-0.3,0-0.6,0-0.9c0.1-0.3,0.5-0.9,0.6-1.2
			c0.1-0.4,0.1-3.3,0-3.7c-0.4-1.8,0.2-4.1-0.1-5.7c-0.1-0.5,0.2-0.7,0.3-0.9c0.1-0.4-0.1-0.8-0.2-1c0-0.8,0.1-1.5,0.1-2.3
			c-0.1-0.6,0-1.2-0.2-1.9c-0.4-1.2-0.8-2.4-1.2-3.6c-0.1-0.8-0.2-1.5-0.4-2.3c-0.4-0.9-0.9-1.8-1.3-2.7c-0.3-0.7-0.4-1.4-0.8-2
			c-1-1.6-2.1-3.1-3-4.8c-0.1-0.1-0.2-0.2-0.4-0.3c-0.3-0.4-0.5-0.9-0.8-1.3c-0.3-0.3-0.8-0.5-1-0.9c-0.1-0.2,0.1-0.6,0-1
			c-0.1-0.4-0.5-1.1-0.5-1.6c-0.1-0.4,0.1-1.5,0.2-1.8c0.1-0.4-0.1-0.7-0.1-0.9c0.1-0.4-0.2-0.7,0-1.1c0.1-0.9,1.3-0.9,1.8-1.4
			c0.8-0.8,0.7-2.4,1.2-3.6c-0.9-0.9-1.7-1.8-3.2-1.7c-0.1-0.4,0.1-0.8,0-1c-0.1-0.2-0.4-0.7-0.5-0.9c0.1-0.6-0.2-1.7-0.4-2.3
			c0-0.3,0.1-0.5,0.1-0.8c-0.1-0.4-0.5-0.8-0.6-1.2c-0.6-1.4-1.1-2.7-2.1-3.7c0.1-1.4,1.3-2,1.3-3.3c-1.1,0-2.1,1.5-2.4,2.3
			c-0.5-0.1-0.6-0.3-0.9-0.5c0.1-0.6,0.4-1.4,1.1-1.5c-0.1-0.4,0-0.6,0.3-0.9c0-0.2,0-0.5,0-0.7c-0.3,0-0.2,0-0.6,0
			c-0.7,0.8-1.7,1.6-2,2.7c-0.4,0-0.8-0.1-1.1-0.3c-0.1-0.2,0.9-2.6,1.2-2.8c0-0.3,0-0.5-0.1-0.7c-0.4,0-0.5,0-0.6,0.2
			c-0.6,0.2-1.4,2.4-1.6,3.1c-0.5-0.1-1-0.1-1.5-0.2c0,0-0.1-0.1-0.1-0.1l-4.2,1.7c-0.1,0.9-1.1,1.2-1.5,1.8
			c-0.2,0.4-0.2,0.7-0.5,1.1c-0.1,0.1-0.2,0.1-0.3,0.2c0,0.2-0.1,0.4-0.1,0.5c-0.3,0.4-0.8,0.8-1.1,1.2c-0.2,0.3,0,0.9-0.1,1.4
			c-0.4,1.3-0.6,2.3-0.7,3.9c-1.3,0-2.8,0.6-3.1,1.6c-0.5,0.7,0.1,1.6,0.1,2.4c0.7,0.7,1.1,1.6,2.6,1.6c0,0,0.1,0.1,0.1,0.1
			c-0.2,1.1-0.3,3,0,4.3c0,0.8,0,1.6,0,2.4c0.2,0.7,0.4,2.8,0.3,3c-0.6,1.6-1.8,2.4-3,3.4c-0.7,0.5-1,1.5-1.6,2.2
			c-0.5,0.8-1.5,1.5-1.8,2.4c-0.2,0.4-0.1,0.8-0.3,1.3c-0.1,0.2-0.4,0.6-0.5,0.8c0,0.3,0,0.5,0,0.8c-0.1,0.3-0.5,0.9-0.6,1.2
			c-0.5,1.4-0.7,3.2-1.1,4.6c-0.2,0.6,0.1,1.2,0,1.6c-0.1,0-0.1,0.1-0.2,0.1c-0.2,0.5,0.1,1.1,0,1.4c-0.1,0.1-0.2,0.2-0.3,0.3
			c-0.1,0.4,0.3,1,0.2,1.6c0,0.1-0.2,0.4-0.2,0.5c0,0,0.2,0.2,0.2,0.3c0,0.4-0.2,0.8-0.3,1.1c-0.1,0.3,0.2,1.1,0.2,1.2
			c0.1,0.5-0.1,0.8-0.2,1c0.1,0.6-0.3,1.4-0.1,2.1c0.1,0.1,0.1,0.1,0.2,0.2c0.1,0.5-0.5,1.7-0.4,2.5c0.4,2.2,0.5,4.3,1.1,6.7
			c0,0.4,0,0.7,0,1.1c0.1,0.2,0.2,0.8,0.3,1c0,0.3,0,0.7,0,1c0.8,2.1,1.6,4.3,2.5,6.4c0.2,0.5,0.7,0.9,0.9,1.3
			c0,0.2,0.1,0.4,0.1,0.6c0.1,0.2,0.5,0.5,0.6,0.7c0.2,0.5-0.1,1.7-0.1,2.1c0,0.5,0,3.4,0.1,3.7c0.3,0.9,0.1,1.8,0.2,2.6
			c0,0.3,0.3,1.3,0.3,1.5c-0.1,0.3-0.1,0.5-0.2,0.8c0,0.3,0.3,0.7,0.4,0.9c0.1,0.4-0.1,1,0.1,1.6c0.1,0.2,0.3,0.7,0.4,0.8
			c0.1,0.3-0.1,0.8,0,1.3c0.6,2,1,4.5,1.6,6.4c0.3,1.1,0,2.2,0.5,3c-0.1,0.4-0.3,0.3-0.6,0.5c0.1,0.1,0.1,0.1,0.3,0.2
			c-0.1,0.2-0.1,0.1-0.2,0.4c0.2,0,0.2,0,0.3-0.1c0.2,0,0.2,0,0.4,0.1c0.2,1.1,0.4,2.2-0.3,2.9c-0.2,0.3-0.4,0.2-0.8,0.4
			c-0.6,0.2-1.2,0.7-1.7,1c-0.3,0.3-0.6,0.6-0.9,0.9c-1,0.7-2.1,1.3-3.1,1.9c-0.1,0.2,0,0.1-0.1,0.2c0,2.3,3.6,3.1,5.8,2.6
			c1.6-0.4,3.7-0.7,5.4-1.4c1.1-0.5,2.4-1.3,3.6-1.7c0.2,0,1.1-0.2,1.5-0.4c0.8-0.4,1.5-1.2,2.4-1.5c0-0.2,0-0.2-0.1-0.3
			c0-0.1,0-0.1,0-0.2c1.1,0.4,2.3,1.7,3.3,2.2c1,0.5,2.2,0.9,3.4,1.3c0.6,0,1.2,0.1,1.7,0.1c1.1,0.3,1.8,0.3,3,0.4
			c0.3-0.1,0.7-0.2,1-0.3c0.4-0.1,0.7,0.1,0.9,0.2c0.5,0.1,0.7-0.2,1-0.1c0.2-0.1,0.3-0.5,0.5-0.7c0-2.1-1.3-3.6-2.7-4.4
			c-0.7-0.4-2.1-1-2.4-1.6c-0.2-0.3-0.3-1.4,0-1.7c0-0.1,0-0.1,0-0.2c0.1,0,0.2,0,0.3,0c0-1.1-0.2-3,0.2-3.9
			c0.1-0.2,0.2-0.2,0.3-0.4c0.1-0.6-0.1-1.8,0-2.4c0.1-0.6-0.1-2.7-0.3-3.2c0-0.1-0.2-0.4-0.2-0.5c0-0.1,0.2-1.1,0.4-1.4
			c0,0,0.3-0.1,0.4-0.2c0-0.2-0.1-0.3-0.1-0.5c0.3-1.1,0.6-2.4,0.9-3.6c0.2-0.8-0.1-2,0-2.6c0.2-0.8,0.4-2.3,0.6-2.9
			c-0.2-0.7,0.2-2.7,0.5-3.1c0,0,0-0.1,0-0.1c0.5,0.6,0.6,1.3,0.9,2.1c0.3,0.6,0.9,1.3,1.1,1.9c0,0.2,0,0.4,0,0.6
			c0.5,1.6,1.9,4.7,3.1,5.6c1.4,1.1,2.6,2.4,4.4,3c0.6,0.2,2.1,0.5,2.7,0.5c0.1,0,1.2-0.1,1.6,0c2.2,0.7,5,1,7.1,1.6
			c0.3,0,0.7,0,1,0c0.5,0.1,1,0.3,1.5,0.5c0.2,0,0.5,0,0.7,0c0.4,0.1,0.8,0.4,1.2,0.5c0.5,0.2,1.1,0.2,1.6,0.5
			c0.5,0.3,1.2,0.9,1.8,1.1c0.8,0.3,1.5,0.3,2.3,0.5c1,0.4,1.9,1,3.2,1c0,0,0.1,0.1,0.1,0.1c-0.6,0.6-1.4,0.7-2.1,1.2
			c-0.3,0.2-0.3,0.6-0.5,0.8c0,1.1,0.8,0.9,1.6,1.2c0.5,0.2,1.6,0.5,2.4,0.6c1.1-0.1,2.3-0.2,3.4-0.3c0.1,0,0.3,0.3,0.3,0.3
			c0.4,0.2,0.7-0.4,1.2-0.1c0.2,0,0.5,0,0.7,0c0.3,0.1,1.8,1.9,1.9,2.2c0,0.2-0.1,0.5-0.1,0.7c0.1,0.5,0.6,1.5,0.9,1.9
			c-0.4,0.9-1.3,1.1-1.6,2.2c-0.1,0.4,0.2,1.2,0.3,1.5c0.3,0.7,0.3,1.2,0.6,1.7c0.5,0.8,2.2,1.6,3.4,1.2c0.4,0,0.7-0.1,1.1-0.1
			c0.2-0.2,0.3-0.4,0.5-0.5c0.4-0.3,0.7-0.3,0.9-0.7c0-0.2,0.1-0.4,0.1-0.5c0.1-0.1,0.5-0.1,0.5-0.3c0.3-0.5,0.3-1.3,0.4-1.9
			c0.8-0.2,3.5-0.1,3.7-0.4c0.4,0.1,0.3,0.3,0.8,0.4c-0.1,0.2-0.1,0.2-0.3,0.4c0.2,1.8,2,3.2,3.7,3.5c0.3,0.1,1-0.3,1.3-0.4
			c0.7-0.2,1.2-0.1,1.7-0.5c1.3-0.9,1.7-2.6,1.1-4.2c-0.1-0.2,0-0.5-0.1-0.6c-0.1-0.7-0.4-0.6-0.6-1.1c-0.1-0.4,0.9-1.2,1.2-1.6
			c0.4-0.7,0.3-1.5,0.5-2.4c0.1-0.2,0.4-0.5,0.5-0.7c0.1-0.3-0.1-0.9-0.2-1.2c0.3-0.3,0.6-0.5,0.9-0.7c0.2-0.3,0.1-0.7,0.3-1
			c0.2-0.5,0.7-1.1,0.9-1.6c0.2-0.4,0.2-0.9,0.5-1.3c0.5-0.8,0.9-1.5,1.4-2.4c0.5-1,1.5-1.7,1.7-3C499.6,418,499.3,416.9,499,416.5z
			 M406.7,345c0,0.1,0,0.2,0,0.4c-0.4-0.1-0.9-0.3-1.2-0.5c0-0.6-0.1-1,0.1-1.5c0.3-0.1,0.6-0.2,0.8-0.4c0.2,0.1,0.2,0.1,0.4,0.2
			C406.7,343.8,406.8,344.7,406.7,345z M408.9,340.2c0-0.1,0-0.2,0-0.4c0,0,0.1,0.1,0.1,0.1c0.3,0.1,0.4,0.4,0.5,0.7
			c0.5,0.1,0.9,0.3,1.4,0c0.3-0.1,0.9-1,0.7-1.5c-0.1-0.2-0.3-0.3-0.4-0.7c0.2,0,0.3,0,0.5,0c0.3,0.4,0.8,0.8,1,1.4
			c0.5,0.9-0.7,1.8-1.2,2.4c-0.4,0-0.9,0-1.1-0.1c-1.1,0-1-0.5-1.6-0.9C408.8,341,408.7,340.5,408.9,340.2z M407.9,348.7
			c0.2-1.8,0.2-3.6,0.2-5.4c0.9,0.3,3,1.2,4.2,0.5c0.4-0.2,1-0.6,1.2-1c0.1-0.2,0.1-0.4,0.2-0.5c0.6-0.7,1.3-1.5,0.9-2.8
			c-0.4-1.2-1.7-1.8-2-2.7c-0.8,0-1.2-0.1-2.2-0.1c0-0.5,0-0.6-0.3-0.8c0.1-0.7,2.6-3.4,3.1-3.7c0.2,0,0.4,0,0.6,0
			c0.4-0.1,1.1-0.7,1.6-0.5c0.2,0,0.5,0,0.7,0c-0.1,0.3-0.2,0.6-0.3,0.9c-0.1,0.6,0.3,1.1,0.1,1.5c0,0.1,0,0.1,0,0.2
			c0.3,0,0.5,0,0.6,0.1c0.4-0.1,0.4-0.1,0.6-0.3c0.1-0.6,0.4-1.2,0.5-1.9c0.2,0,0.4,0,0.5,0c-0.1,0.5-0.3,0.8-0.6,1
			c-0.1,0.4,0.2,1.7,0.9,1.2c0.7-0.2,0.6-1,1.1-1.5c0.1-0.1,0,0,0.2-0.1c0.1,0.1,0.3,0.2,0.5,0.3c-0.1,0.4-0.3,0.6-0.5,0.8
			c0,0.5,0.1,0.7,0.2,1.1c0.2,0,0.3,0.1,0.5,0.2c0.6-0.1,0.9-0.4,1-0.9c0.1,0,0.2,0,0.4,0c0.1,0.5,0.4,0.5,0.5,0.8
			c0.1,0.3,0.1,0.6,0.2,0.9c0.3,0.6,0.7,1.4,1,2.1c0.2,0.5-0.1,1.1,0,1.5c0.1,0.4,0.3,2.4,0.5,2.6c-0.1,0.3-0.9,0.7-1.2,0.8
			c-0.1,0.2,0,0.1-0.1,0.2c0,1.5,2.8,1.5,4.3,1.5c-0.1,0.6-0.1,1-0.3,1.6c-0.3,0.2-0.6,0.5-0.9,0.6c-0.4,0-0.8,0-1.2,0
			c-0.4,0.1-0.7,0.3-1.2,0.4c0,0-0.1,0.1-0.1,0.1c0.2,0.7,0.9,1.1,1,1.9c0.1,0.8,0.1,2.1,0.1,2.8c0,0.3-0.2,1.3-0.2,1.3
			c0.1,0.1,0.2,0.2,0.4,0.4c0.1,0.3-0.1,0.5,0,0.6c0,1.2-0.9,1-1.5,1.3c-0.2,0.3,0.1,0.4-0.1,0.7c-0.1,0.2-0.7,0.8-0.9,0.9
			c-1.1,0.7-2.6,0.4-4.1,0.7c-0.8,0.2-2.1,0.1-2.9,0.2c-2.7,0.3-4.5-0.5-6.5-1.5c0.1-1-0.1-3.3-0.6-4.4
			C408.3,351,407.7,350.2,407.9,348.7z M402.8,403.2C402.8,403.3,402.8,403.3,402.8,403.2c-0.2-0.3-0.5-0.6-0.6-0.9
			c-0.4-0.9-0.5-1.6-0.9-2.5c-0.1-0.2-0.4-0.4-0.5-0.5c-0.7-1.5-0.7-3.7-1.2-5.3c0-0.4-0.1-0.9-0.1-1.3c-1.1-2.8-0.6-7.2-0.4-10.9
			c1-0.1,2.4,0,3.4,0c0,0,0.1,0.1,0.1,0.1c0,0.7-0.1,1.4-0.3,2c-0.2,1,0,2.7,0.1,3.5c0,0.2-0.1,0.4-0.1,0.5c0,0.5,0,1.4,0.1,1.9
			c0.2,1.8-0.2,3.4,0.1,4.8c0.1,0.3,0,1.1,0.1,1.6c0.1,0.4,0.7,0.9,0.6,1.5C403.3,398.6,403.3,402.4,402.8,403.2z M404.7,416
			c-0.2-1,0.1-2.8-0.2-4.1c-0.1-0.4-0.4-3.8-0.2-4.6c0.1-0.3,0.5-0.6,0.4-1.2c-0.5-1.8-0.1-4.7,0.4-7c0.8,0,2.5,0,3,0.4
			c0.1,0,0.1,0.1,0.2,0.1c0,1.1-0.1,2.2-0.3,3.3c-0.1,0.5,0.1,1.6-0.1,2.3c-0.2,1,0.1,2.4,0,3.1c-0.1,1.2-0.2,3.4-0.1,3.9
			c0.3,1.6-0.3,4.6,0.2,5.3c0,0.1,0,0.2,0,0.4c-1-0.1-2.2,0-3-0.5C404.5,417,404.8,416.6,404.7,416z M416.3,433
			c-0.1,0.3,0,1.2,0,1.5c-0.6,0.1-1.2,0.4-1.7,0.5c-1.2,0-2.3,0-3.5,0c-0.3-0.1-0.8-0.4-1.1-0.5c-0.7-0.2-1.4-0.1-1.9-0.5
			c0-0.1,0.3-1,0.2-1.4c-0.1-0.3-0.5-0.8-0.5-1.1c0-0.3,0-0.6,0-0.9c-0.1-0.4-0.4-1-0.5-1.3c-0.2-0.6,0-1-0.2-1.6
			c-0.3-1.3-0.9-3-1.2-4.3c0-0.2,0.1-0.4,0.1-0.5c0-0.2-0.3-0.5-0.4-0.7c-0.3-0.9,0-1.9-0.5-2.5c0-0.2,0-0.3,0-0.5
			c1.3,0.6,6.6,1,8,0.7c0.8-0.2,1.7-0.2,2.2-0.6c0.3,0,0.4,0,0.5,0.1c0,4.8,0.2,8.8,0.6,13.1C416.5,432.7,416.3,432.9,416.3,433z
			 M416.8,408c-0.2-0.1-0.6,0.1-0.8,0.3c-0.2,1,0.1,2,0.3,2.9c0,0.1-0.2,1.1-0.3,1.4c-0.1,0.7,0.1,1.6,0,2.1c-0.2,0.8,0.3,2-0.1,2.6
			c-0.4,0.7-3.7,0.9-4.5,1c-0.4-0.8-0.4-2.6-0.4-3.8c0-0.4,0.1-0.7,0.1-1.1c-0.2-1,0.2-2.5,0.1-3.7c-0.3-3.2,0.2-6.4,0.4-9.8
			c0,0,0.1-0.1,0.1-0.1c3.2,0.1,5.3,0.6,8.6,0.5c-0.1,1.1-0.2,2.8,0,4c0,0.5-0.1,1-0.1,1.5c0.1,0.4,0.1,2,0,2.5
			c-0.2,1.4,0.3,2.4,0.1,3.6c-0.3,2.1-0.3,5.1-0.4,7c-0.9,0.1-1.6-0.2-2.4-0.1c-0.2-0.7,0.2-1.5,0-2.4c-0.5-1.9,0.9-6.3-0.4-8
			C417.1,408,417.1,408.1,416.8,408z M425.3,430.9c-0.2,0.7,0.2,1.9-0.2,2.3c-0.2,0-0.3,0.1-0.5,0.1c-0.6,0.4-1.4,0.8-2.2,1
			c-0.6,0.2-1.2,0-1.6,0.1c-0.7,0.1-1.3-0.2-1.9,0.2c-0.3,0-0.6,0-0.9,0c-0.1-0.6-0.2-1.9-0.1-2.8c0-0.3,0.1-0.6,0.1-0.9
			c-0.5-2.3-0.2-4.7-0.7-6.7c-0.3-1.1,0.3-2.7,0-3.6c0.7-0.2,1.5,0.1,2.4,0.2c0.3,0,0.6-0.2,0.8-0.2c0.2,0,0.3,0.2,0.5,0.2
			c0.7,0.2,1.7-0.1,2.2-0.2c0.8-0.2,1.7,0.1,2.3-0.3c0.1,0,0.1,0,0.2,0c0,0.2,0.1,2.2,0.1,2.2c0.1,0,0.2,0.1,0.3,0.1
			c0.1,0.1,0.2,0.6,0.2,0.7c0.3,1.2-0.1,2.6-0.5,3.3C426.4,428.1,425.6,430,425.3,430.9z M428.1,409c-0.2,0.6,0.1,0.7,0,1.3
			c-0.2,0.8-0.3,1.5-0.5,2.3c0,0.6-0.1,1.2-0.1,1.7c-0.3,1.4-0.3,3-0.8,3.8c-0.2,0.2-2.6,0.6-3.3,0.5c-0.1-0.9,0.1-2.2,0.1-3.1
			c0-1.3-0.1-3.3,0.1-4.6c0.1-0.7-0.2-1.3-0.1-1.8c0.1-0.7,0.2-2.1,0-3.3c0-0.3,0.1-1,0.1-1.5c0-1.3,0-2.9-0.2-4.3
			c0.6,0,1.6,0.2,2.1,0.1c0.4-0.1,1-0.6,1.5-0.7c0.4-0.1,1.2,0.1,1.7,0.1C429,402.9,428.9,406.1,428.1,409z M429.2,378.1
			c0.1,0.5,0.1,1.6,0.2,2.2c0,0.3-0.1,0.6-0.1,0.9c0.2,0.8,0.1,2.3,0.2,3.1c0,0.2-0.2,0.7-0.2,0.9c-0.1,0.9,0.3,2.1,0,3.1
			c0,0.1-0.2,0.3-0.2,0.5c0.3,1.7,0.1,3.7-0.1,5.1c0,0.2,0.2,0.7,0.1,1c-0.1,0.5-0.2,1.7-0.5,2.2c-0.1,0.1-0.2,0.2-0.4,0.4
			c-0.1,0-0.2,0-0.3,0c0,0.1,0,0.2,0,0.3c-0.9-0.2-1.1,0-1.9,0.3c-0.5,0.1-1.6-0.1-1.7-0.1c-0.1,0.1-0.1,0.2-0.2,0.3
			c0,0-2.7,0.2-3.1,0.2c-0.6-0.1-2.7,0-3.8-0.3c-0.6,0-1.3,0-1.9,0c-1.5-0.4-3.5-0.3-5.2-0.6c-0.5,0-0.9,0-1.4,0
			c-1.1-0.2-2-0.4-3.4-0.4c-0.6-1.2-0.8-2.2-1.1-3.5c-0.1-0.6,0.2-2.1,0.1-2.7c-0.1-0.8-0.3-1.6-0.1-2.4c0.1-0.3,0-0.8-0.1-1
			c0-1.3,0.1-2.6,0.1-3.9c0.3-1.1,0.6-2.7,0.5-4c-0.1-1,0.8-4.2,0.6-4.6c0.1-0.3,0.4-0.6,0.2-1c0-0.2,0-0.3-0.1-0.5
			c-0.4-0.1-0.6-0.1-0.9,0.1c-0.7,0.5-1,3.3-1.3,4.6c-0.2,0.6,0.1,1.2-0.3,1.6c0,0-2.2,0.1-2.4,0c-1,0-0.8-0.1-1.3-0.5
			c0-0.9-0.3-2.2,0-3.1c0.1-0.3,0.2-0.5,0.3-0.9c0-0.2-0.1-0.4-0.1-0.5c0.1-0.4,0.2-0.9,0.2-1.4c0-0.2-0.1-0.4-0.1-0.5
			c0.3-1.3,1-2.9,1.5-4.3c0.5-1.5,0.6-2.8,1.4-3.9c0.1-0.1,0.4-0.3,0.5-0.5c0-0.2,0.1-0.3,0.1-0.5c0.1,0,0.2-0.1,0.3-0.1
			c0-0.2,0.1-0.3,0.1-0.5c0.1-0.1,0.3-0.1,0.4-0.2c0-0.1,0-0.2,0-0.3c0.2-0.3,1.2-1.5,1.5-1.7c0.2-0.1,0.4-0.1,0.5-0.2
			c0.6-0.4,1.4-1.3,1.5-2.2c0.4-0.1,0.5-0.1,0.6-0.4c1,0.1,2.3,1,3.3,1.4c0.5,0,1.1,0.1,1.6,0.1c0.1,0.1,0.2,0.2,0.3,0.3
			c0.4-0.1,0.8-0.1,1.2-0.2c1.5,0.2,7.1-0.1,8.4-0.8c0.5-0.3,0.8-0.9,1.3-1.2c0.4-0.3,0.6-0.2,0.9-0.5c0.3,0,0.4,0.1,0.5,0.2
			c0,0,0.1,0,0.1,0c0-0.1,0-0.2,0-0.4c0.2,0,0.3,0,0.5,0c0.6,1,1.3,1.9,2,2.9c0.2,0.2,0.4,0.3,0.5,0.5c0.2,0.3,0.2,0.7,0.4,1
			c0.1,0.1,0.2,0.2,0.4,0.3c0,0.2,0.1,0.4,0.1,0.5c0.1,0.2,0.6,0.3,0.7,0.5c0,0.2,0,0.5,0,0.7c0.2,0.2,0.3,0.3,0.5,0.5
			c0.1,0.2,0.1,0.4,0.2,0.6c0.2,0.4,0.6,0.8,0.7,1.2c0.4,0.8,0.6,2.1,0.9,2.8c0.1,0.5,0.1,1.1,0.2,1.6c0.1,0.2,0.4,0.5,0.5,0.7
			c0.1,0.3-0.1,0.7,0.1,1.1c0.1,0.1,0.3,0.3,0.4,0.5c0.1,0.6,0.1,1.2,0.2,1.7c0,0.1-0.1,0.3-0.1,0.5c0.3,1.2,0.2,2.8,0.1,3.8
			c0,0-0.1,0.1-0.1,0.1c-0.9,0-2.1,0.1-2.6-0.2c-0.2-0.3-0.1-1.5-0.5-1.9c0-0.3,0-0.5,0-0.8c0.4,0.2,0.7,0.1,1.3,0.1
			c0.4-0.4,1.4-1,1.3-1.8c-0.1-0.4-0.3-0.6-0.4-1c-0.5,0-0.8-0.3-1.3-0.2c-0.5,0.1-0.8,0.7-1.2,0.9c-0.3,0-0.6-0.1-0.9-0.1
			c-0.2,0.2-0.4,0.3-0.5,0.5C428.7,375.8,429,376.8,429.2,378.1z M430.4,399.9c-0.1-0.4-0.2-0.8-0.3-1.2c0.1-0.1,0.2-0.2,0.3-0.3
			c0.2-0.6,0.3-1.1,0.4-1.7c0-0.2-0.1-0.5-0.1-0.7c0-0.3,0.2-1,0.3-1.2c0.1-0.3-0.1-0.6-0.1-0.8c0.2-1.4,0.4-3.3,0.1-4.8
			c-0.2-1,0.2-2.3,0.1-2.8c-0.3-1.4,0.5-3.5-0.1-4.5c0-0.4-0.1-0.8,0.2-1c0.4-0.2,2.4-0.1,2.8-0.2c0.1,1.9,0.2,4.8-0.1,6.8
			c-0.1,0.7,0,1.6-0.2,2.3c-0.1,0.4-0.6,0.9-0.7,1.4c0,0.2,0.2,0.4,0.1,0.7c-0.3,1.2-0.9,2.6-1.4,3.7
			C431.1,396.6,431.2,398.6,430.4,399.9C430.4,399.8,430.4,399.8,430.4,399.9z M473.2,428.7c0-0.3,0-0.4,0.1-0.5c0.1,0,0.2,0,0.4,0
			c0-0.5-0.2-0.5-0.4-0.8c0-0.3,0-0.5,0-0.8c-0.1-0.4-0.1-0.9-0.1-1.8c0.5-0.5,1.8-1.8,2.4-2c0.2-0.2,1.2-0.1,1.6-0.1
			c0.5,0.5,1.4,0.9,1.8,1.6c0.8,1.2,0.4,3.8-0.2,4.7c-0.3,0.5-1.2,0.7-1.6,1.2c0,0-0.1,0-0.1,0c0-0.1,0-0.2,0-0.4
			c-0.1,0-0.2,0-0.3,0c-0.1,0.2-0.2,0.3-0.2,0.6C474.7,430.7,474.2,429.9,473.2,428.7z M491.2,431.6c0,0.1,0,0.1,0,0.2
			c0,0-0.1,0-0.1,0c0-0.2,0-0.5,0-0.7c-0.1,0-0.2,0-0.4,0c-0.1,0.3,0,0.2-0.2,0.4c0,0.5,0,0.6,0.5,0.6c-0.1,0.1-0.1,0.1-0.3,0.1
			c0,0.3-0.1,0.4-0.2,0.5c-0.3,0.8-1.5,1.2-2.4,1.3c-0.3,0-0.3-0.2-0.4-0.2c0,0-1.1,0.2-1.1,0.2c-0.2,0.1-0.3,0.4-0.5,0.5
			c-0.2,0.2-0.6,0-0.9,0.2c-0.1,0.1-0.2,0.5-0.4,0.5c-0.3,0-0.7,0-1,0c-0.6,0.1-3.7,0.4-4.3,0.3c-0.6-0.2-0.9-0.4-1.7-0.5
			c0-0.2,0-0.2-0.1-0.3c0-0.1-0.1-0.2-0.1-0.3c-0.4-0.1-0.8-0.2-1,0.1c-0.8-0.3-0.7-1-1.2-1.6c0-0.3,0-0.4,0.1-0.5
			c0.6,0,1.4,0.2,1.8-0.2c0.8,0,0.7-0.5,1.2-0.8c1-0.8,2-1.3,2.5-2.7c0.1-0.3,0.6-1.1,0.5-1.4c0-0.6,0.3-1.5-0.2-1.9
			c0.1-0.1,0.5,0,0.7-0.1c0-0.1,0.1-0.2,0.1-0.3c0.2,0,0.4-0.1,0.6-0.1c1.9-0.8,3.5,0.8,4.8,1.6c0.3,0.1,0.5,0.1,0.8,0.2
			c0.2,0.1,0.3,0.4,0.5,0.5c0.6,0.4,1.6,0.6,1.9,1.3c0,0.2,0,0.3,0,0.5c0.1,0.3,0.5,0.7,0.7,0.9
			C491.5,430.3,491.5,431.1,491.2,431.6z M416.7,343.3c0.2,0.1,0.4,0.1,0.5,0.2c0.3,0.2,1,0.6,1.5,0.5c1.6-0.4,2.8-0.9,3.4-2.3
			c0.3-0.7,0-1.7-0.2-2.2c-0.5-1.6-1.4-2.9-3.6-2.8c-1.2,0.8-2.9,1-3.2,2.7C414.9,340.6,416.1,342.8,416.7,343.3z M417,340.1
			c0.3,0.1,1,0.3,1.3,0.2c0.2-0.1,0.3-0.2,0.5-0.3c0-1.1-0.5-1.2-0.7-1.8c0.7,0.1,1.8,0.7,2.1,1.3c0.2,0.4-0.1,0.4,0.3,0.7
			c0,0.5-0.1,0.9-0.4,1.2c-0.3,0.4-1,0.6-1.6,0.6c-0.2-0.2-0.7-0.4-0.9-0.6c-0.2-0.3-0.2-0.6-0.5-0.9C417,340.4,417,340.3,417,340.1
			z M413.1,348.4c2,0.5,2,0.4,3.6-0.7c0.1-0.4,0.3-0.9,0.1-1.3c-0.1-0.4-0.4-0.5-0.8-0.5c-0.2,0.2-0.7,0.2-0.8,0.4
			c0,0.1,0,0.2,0,0.4c-0.1,0.2-0.4,0.3-0.5,0.5c-0.7-0.1-0.8-0.6-1-1.1c-0.5,0-0.6,0.1-0.9,0.2c-0.1,0.3-0.4,0.9-0.2,1.2
			C412.5,347.9,412.8,348,413.1,348.4z M414.4,354.1c0.8-0.2,1.5-0.7,2.2-0.9c0.8-0.3,1.9-0.4,2.4-0.9c0.4-0.4,0.7-1,1.1-1.5
			c0-0.2,0-0.3-0.1-0.5c-0.1-0.3-0.3-0.5-0.6-0.5c-0.1-0.1-0.2-0.1-0.4-0.1c-0.1,0.1-0.3,0-0.5,0.1c-0.4,0.2-0.6,0.9-1,1.2
			c-1.2,0.9-3.7,2-5.3,1c-0.5-0.3-0.6-1.1-1-1.5c-0.2-0.1-0.4-0.2-0.6-0.1c-0.3,0.1-0.3,0.3-0.5,0.5
			C410.1,352.8,412.2,354.7,414.4,354.1z M407.5,362.8c2,0,1.4-0.8,2.3-1.4c0-0.7-0.2-0.9-0.5-1.3c-0.4-0.1-0.6-0.3-1.2-0.3
			c-0.2,0.1-0.4,0.2-0.7,0.2c-0.3,0.3-0.6,0.6-0.9,0.8C406.4,362,406.8,362.3,407.5,362.8z M423.6,364.5c1.8,0,1.5-0.9,2.3-1.6
			c-0.1-1-0.7-1.5-1.7-1.6c-0.7,0.6-1.4,0.7-1.6,1.8c0.2,0.2,0.1,0.4,0.3,0.6C422.9,364.1,423.4,364.2,423.6,364.5z M417.4,364.5
			c0.5-0.2,0.8-0.8,1-1.3c0-0.1,0-0.6-0.1-0.7c-0.2-0.6-0.9-0.9-1.7-0.8c-0.3,0.3-1,0.8-1.4,1c-0.1,0.9,0.1,1.2,0.5,1.8
			C416.2,364.6,416.8,364.9,417.4,364.5z M412.4,366.9c-0.1-0.3-0.2-0.5-0.3-0.8c-0.2-0.6-0.9-0.8-1.6-0.8c-0.2,0.2-0.5,0.2-0.8,0.4
			c-0.3,0.3-0.5,0.6-0.8,0.9c0,0.9,0.3,1.5,0.9,1.7c0.4,0.3,1.2,0.1,1.6-0.2C412,367.9,411.9,367.2,412.4,366.9z M431.1,367.5
			c0-0.5-0.1-0.7-0.3-0.9c-0.2-0.5-0.8-0.6-1.5-0.6c-0.5,0.5-1.1,0.5-1.4,1.2c-0.6,0.9,0.5,1.5,1,1.9
			C430.5,369.1,430.4,368.2,431.1,367.5z M404.2,366.2c-0.2,0.2-0.4,0.1-0.7,0.3c-0.3,0.2-0.4,0.6-0.7,0.8c0,0.8,0.1,1.5,0.8,1.7
			c0.6,0.4,1.7,0,2-0.5c0-0.2,0.1-0.4,0.1-0.6c0.1-0.1,0.3-0.1,0.5-0.2C405.9,366.7,405.5,366.2,404.2,366.2z M422.6,369.8
			c0.4,0.3,1,0.2,1.4-0.1c0.7-0.2,0.6-0.9,1.1-1.3c-0.1-0.7-0.4-0.9-0.6-1.4c-0.4-0.1-0.7-0.1-1.1-0.2c-0.7,0.7-1.4,0.4-1.6,1.8
			C422,369,422,369.6,422.6,369.8z M418.4,369.7c-0.1-0.6-0.2-0.9-0.5-1.3c-0.4-0.1-0.8-0.3-1.4-0.3c-0.2,0.2-0.4,0.1-0.6,0.3
			c-0.2,0.2-0.5,0.5-0.7,0.7c-0.1,0.4-0.1,0.9,0.2,1.3c0.3,0.4,0.6,0.4,1,0.7c0.4,0,0.9-0.1,1.1-0.4C418,370.6,418,370,418.4,369.7z
			 M401.3,372.1c-0.2,0.2-0.6,0.2-0.8,0.5c-0.8,1,0.1,1.7,0.7,2.3c0.4,0,0.7-0.1,1.1-0.1c0.3-0.3,0.8-1.1,1.1-1.3
			C403.3,372.2,402.5,372,401.3,372.1z M415.1,373.8c0-0.2,0-0.3-0.1-0.4c0-0.5-0.4-0.9-0.8-1c-0.2-0.1-0.7-0.2-0.9-0.2
			c-0.2,0.2-0.5,0.1-0.7,0.3c-0.5,0.3-0.6,1-0.9,1.4c0.3,0.5,0.4,1.1,1,1.3c0.1,0.1,0.3,0.1,0.4,0.2
			C414.6,375.3,414.3,374.5,415.1,373.8z M421.8,373c-0.3,0.4-0.7,0.2-1.1,0.1c-0.1,0.2,0.1,0.4,0,0.5c-0.2,0.5-0.9,0.9-0.3,1.6
			c0.2,0.5,0.6,0.5,1,0.8c0.4,0,0.9-0.1,1.1-0.4c0.5-0.2,0.5-0.8,0.9-1.1c0-0.7-0.2-0.9-0.4-1.4C422.7,373.1,422.2,373,421.8,373z
			 M408.8,377.5c0.9-0.9,1.2-1.4,0.4-2.6c-0.4,0-0.8-0.1-1.2-0.1c-0.1,0.1-0.2,0.1-0.3,0.2c-0.8,0-0.8,0.4-1.1,0.8
			c0,0.8,0.4,1.2,0.7,1.6C407.8,377.5,408.2,377.5,408.8,377.5z M415.2,378.8c-0.6,0.5-1.1,0.4-1.6,1.1c-0.6,0.7,0.6,1.7,1,2
			c0.5,0,0.9-0.1,1.2-0.3c0.4-0.1,1.2-1.2,0.9-1.6C416.7,379.3,415.8,378.9,415.2,378.8z M409.7,381.5c-0.2,0.1-0.5,0.2-0.8,0.2
			c-0.2,0.3-0.5,0.3-0.6,0.7c-0.1,0.1-0.1,0.4-0.2,0.5c0.1,1,0.6,1.1,1.2,1.6c0.4,0,0.8-0.1,1-0.3c0.7-0.2,0.5-1,1.1-1.3
			c0-0.7-0.3-0.9-0.5-1.3C410.4,381.6,410.1,381.5,409.7,381.5z M425.4,381.9c-0.2,0.3-0.4,0.2-0.7,0.4c-0.3,0.3-0.5,0.5-0.8,0.8
			c0,0.9,0.3,1.6,1,1.8c1.2,0.8,2.1-1.2,2.4-1.5C427.2,382.5,426.5,381.9,425.4,381.9z M421,385.3c0.2-0.4-0.4-0.9-0.5-1.2
			c-0.4-0.1-0.7-0.3-1.3-0.3c-0.1,0.1-0.4,0.2-0.5,0.3c-0.6,0.2-0.7,0.8-1.1,1.3c0.1,1,0.6,1.1,1.2,1.6c0.4,0,0.6,0,0.8-0.2
			C420.3,386.8,420.7,385.8,421,385.3z M408.8,388.3c-0.2,0.1-0.5,0.1-0.8,0.1c-0.2,0.2-0.6,0.5-0.8,0.7c0,0.3-0.2,0.7,0,0.9
			c0,0.6,0.4,0.9,0.8,1c0.3,0.2,1,0.2,1.3-0.1c0.5-0.2,0.6-0.8,0.9-1.2c0-0.3,0-0.6-0.1-0.7C409.9,388.5,409.4,388.4,408.8,388.3z
			 M414.2,389.2c-0.2,0.2-0.8,0.2-1,0.4c-0.2,0.2-0.3,0.4-0.5,0.5c0,1.3,0.4,1.3,0.8,2c0.5,0.1,1,0.1,1.4-0.2c0.6-0.2,0.9-1,0.9-1.7
			C415.3,389.7,415.1,389.2,414.2,389.2z M422.5,390.6c-0.3,0-0.7-0.1-1-0.1c-0.2,0.2-0.5,0.2-0.7,0.4c-0.2,0.3-0.5,0.5-0.7,0.8
			c0,0.5,0,0.9,0.3,1.2c0.2,0.5,1.2,1,1.7,0.5c0.5-0.1,1.4-1.2,1.3-1.8C423.2,391.2,422.7,390.9,422.5,390.6z M477,426.4
			c-0.5-0.7-0.5-1.9-1.8-1.2c-0.3,0.1-0.4,0.1-0.5,0.4c-0.2,0.2-0.2,0.7-0.5,0.9c0,0.6,0.2,0.8,0.5,1.2c0.2,0,0.6-0.1,0.6-0.1
			c0.1,0,0.3,0.3,0.6,0.2c0.6-0.2,0.8-0.7,1.5-0.6C477.3,426.5,477.2,426.7,477,426.4z M477,429.5c0.1,0,0.2,0,0.3,0
			c0-0.1,0-0.2,0-0.3c-0.1,0-0.2,0-0.3,0C477,429.3,477,429.4,477,429.5z M473.9,435c-0.1,0-0.2,0-0.3,0c0,0.1,0,0.2,0,0.3
			c0.1,0,0.2,0,0.3,0C473.9,435.1,473.9,435.1,473.9,435z"/>
	</g>
</g>
<g>
	<g>
		<path class="st0" d="M499,416.5c-0.2-0.3-0.4-0.3-0.5-0.6c-2.5-0.2-3.5,1.2-4,3.2c-0.1,0.4,0.1,0.6-0.1,1.2c-0.3,1-0.7,1.9-1,2.8
			c-0.3,1-0.8,2.7-1.6,3.1c0,0.1,0,0.2,0,0.3c-1-0.1-1.6-0.8-2.2-1.3c-0.3-0.1-0.5-0.2-0.8-0.3c-1.2-0.7-3.2-1.9-4.8-1.7
			c-0.1,0-0.2-0.2-0.3-0.2c-0.8-0.2-2,0.2-2.4,0.5c-0.3-0.2-0.5-0.6-0.7-0.8c-0.3-0.3-0.8-0.5-1.2-0.8c-0.2-0.2-0.3-0.6-0.5-0.8
			c-0.6-0.5-2.2-0.4-3-0.2c-0.5,0.1-0.8,0-1.2,0.2c-0.7,0.4-1,1.1-1.6,1.6c-0.2,0.2-0.5,0.4-0.7,0.5c-0.2,0.3-0.2,0.6-0.5,0.8
			c-0.6,0.5-1.9,0.4-2.7,0.6c-0.4,0.1-1,0.8-1.7,0.5c-0.2-0.1-0.5-0.4-0.7-0.5c-0.4-0.1-0.8-0.1-1.2-0.2c-0.1-0.1-0.4-0.3-0.5-0.4
			c-0.2,0-0.3,0.1-0.5,0.1c-1.6-0.5-3.3-0.8-4.8-1.4c-0.5-0.2-1-0.6-1.4-0.8c-0.9-0.4-1.9-0.7-2.7-1c-1.7-0.5-3.6-0.7-5.2-1.2
			c-0.9-0.1-1.9-0.2-2.8-0.3c-1-0.2-1.9-0.5-2.9-0.7c-0.7,0-1.3-0.1-2-0.1c-0.1,0-0.3-0.3-0.4-0.3c-0.2,0-0.4,0.1-0.5,0.1
			c-0.6-0.1-1.8-0.4-2.3-0.7c-0.5-0.3-0.9-0.9-1.4-1.2c-0.4-0.3-1-0.5-1.3-0.9c-0.5-0.7-1.3-1.5-1.6-2.3c-0.2-0.4-0.3-0.6-0.3-1.1
			c0,0,0.1-0.1,0.1-0.1c-0.1-0.2-0.5-0.3-0.5-0.5c0-0.3-0.1-0.5-0.1-0.8c-0.2-0.7-0.7-1.5-1-2.1c-0.2-0.3-0.1-0.7-0.3-1
			c-0.4-0.8-0.7-1.9-1.2-2.7c-0.2-0.3-0.7-0.8-0.7-1.1l-0.5,2.9c0.5,0.6,0.5,1.3,0.9,2.1c0.3,0.6,0.9,1.3,1.1,1.9c0,0.2,0,0.4,0,0.6
			c0.5,1.6,1.9,4.7,3.1,5.6c1.4,1.1,2.6,2.4,4.4,3c0.6,0.2,2.1,0.5,2.7,0.5c0.1,0,1.2-0.1,1.6,0c2.2,0.7,5,1,7.1,1.6
			c0.3,0,0.7,0,1,0c0.5,0.1,1,0.3,1.5,0.5c0.2,0,0.5,0,0.7,0c0.4,0.1,0.8,0.4,1.2,0.5c0.5,0.2,1.1,0.2,1.6,0.5
			c0.5,0.3,1.2,0.9,1.8,1.1c0.8,0.3,1.5,0.3,2.3,0.5c1,0.4,1.9,1,3.2,1c0,0,0.1,0.1,0.1,0.1c-0.6,0.6-1.4,0.7-2.1,1.2
			c-0.3,0.2-0.3,0.6-0.5,0.8c0,1.1,0.8,0.9,1.6,1.2c0.5,0.2,1.6,0.5,2.4,0.6c1.1-0.1,2.3-0.2,3.4-0.3c0.1,0,0.3,0.3,0.3,0.3
			c0.4,0.2,0.7-0.4,1.2-0.1c0.2,0,0.5,0,0.7,0c0.3,0.1,1.8,1.9,1.9,2.2c0,0.2-0.1,0.5-0.1,0.7c0.1,0.5,0.6,1.5,0.9,1.9
			c-0.4,0.9-1.3,1.1-1.6,2.2c-0.1,0.4,0.2,1.2,0.3,1.5c0.3,0.7,0.3,1.2,0.6,1.7c0.5,0.8,2.2,1.6,3.4,1.2c0.4,0,0.7-0.1,1.1-0.1
			c0.2-0.2,0.3-0.4,0.5-0.5c0.4-0.3,0.7-0.3,0.9-0.7c0-0.2,0.1-0.4,0.1-0.5c0.1-0.1,0.5-0.1,0.5-0.3c0.3-0.5,0.3-1.3,0.4-1.9
			c0.8-0.2,3.5-0.1,3.7-0.4c0.4,0.1,0.3,0.3,0.8,0.4c-0.1,0.2-0.1,0.2-0.3,0.4c0.2,1.8,2,3.2,3.7,3.5c0.3,0.1,1-0.3,1.3-0.4
			c0.7-0.2,1.2-0.1,1.7-0.5c1.3-0.9,1.7-2.6,1.1-4.2c-0.1-0.2,0-0.5-0.1-0.6c-0.1-0.7-0.4-0.6-0.6-1.1c-0.1-0.4,0.9-1.2,1.2-1.6
			c0.4-0.7,0.3-1.5,0.5-2.4c0.1-0.2,0.4-0.5,0.5-0.7c0.1-0.3-0.1-0.9-0.2-1.2c0.3-0.3,0.6-0.5,0.9-0.7c0.2-0.3,0.1-0.7,0.3-1
			c0.2-0.5,0.7-1.1,0.9-1.6c0.2-0.4,0.2-0.9,0.5-1.3c0.5-0.8,0.9-1.5,1.4-2.4c0.5-1,1.5-1.7,1.7-3C499.6,418,499.3,416.9,499,416.5z
			 M473.2,428.7c0-0.3,0-0.4,0.1-0.5c0.1,0,0.2,0,0.4,0c0-0.5-0.2-0.5-0.4-0.8c0-0.3,0-0.5,0-0.8c-0.1-0.4-0.1-0.9-0.1-1.8
			c0.5-0.5,1.8-1.8,2.4-2c0.2-0.2,1.2-0.1,1.6-0.1c0.5,0.5,1.4,0.9,1.8,1.6c0.8,1.2,0.4,3.8-0.2,4.7c-0.3,0.5-1.2,0.7-1.6,1.2
			c0,0-0.1,0-0.1,0c0-0.1,0-0.2,0-0.4c-0.1,0-0.2,0-0.3,0c-0.1,0.2-0.2,0.3-0.2,0.6C474.7,430.7,474.2,429.9,473.2,428.7z
			 M491.2,431.6c0,0.1,0,0.1,0,0.2c0,0-0.1,0-0.1,0c0-0.2,0-0.5,0-0.7c-0.1,0-0.2,0-0.4,0c-0.1,0.3,0,0.2-0.2,0.4
			c0,0.5,0,0.6,0.5,0.6c-0.1,0.1-0.1,0.1-0.3,0.1c0,0.3-0.1,0.4-0.2,0.5c-0.3,0.8-1.5,1.2-2.4,1.3c-0.3,0-0.3-0.2-0.4-0.2
			c0,0-1.1,0.2-1.1,0.2c-0.2,0.1-0.3,0.4-0.5,0.5c-0.2,0.2-0.6,0-0.9,0.2c-0.1,0.1-0.2,0.5-0.4,0.5c-0.3,0-0.7,0-1,0
			c-0.6,0.1-3.7,0.4-4.3,0.3c-0.6-0.2-0.9-0.4-1.7-0.5c0-0.2,0-0.2-0.1-0.3c0-0.1-0.1-0.2-0.1-0.3c-0.4-0.1-0.8-0.2-1,0.1
			c-0.8-0.3-0.7-1-1.2-1.6c0-0.3,0-0.4,0.1-0.5c0.6,0,1.4,0.2,1.8-0.2c0.8,0,0.7-0.5,1.2-0.8c1-0.8,2-1.3,2.5-2.7
			c0.1-0.3,0.6-1.1,0.5-1.4c0-0.6,0.3-1.5-0.2-1.9c0.1-0.1,0.5,0,0.7-0.1c0-0.1,0.1-0.2,0.1-0.3c0.2,0,0.4-0.1,0.6-0.1
			c1.9-0.8,3.5,0.8,4.8,1.6c0.3,0.1,0.5,0.1,0.8,0.2c0.2,0.1,0.3,0.4,0.5,0.5c0.6,0.4,1.6,0.6,1.9,1.3c0,0.2,0,0.3,0,0.5
			c0.1,0.3,0.5,0.7,0.7,0.9C491.5,430.3,491.5,431.1,491.2,431.6z M430.4,407L430.4,407C430.4,406.9,430.4,406.9,430.4,407
			C430.4,406.9,430.4,407,430.4,407z M477,426.4c-0.5-0.7-0.5-1.9-1.8-1.2c-0.3,0.1-0.4,0.1-0.5,0.4c-0.2,0.2-0.2,0.7-0.5,0.9
			c0,0.6,0.2,0.8,0.5,1.2c0.2,0,0.6-0.1,0.6-0.1c0.1,0,0.3,0.3,0.6,0.2c0.6-0.2,0.8-0.7,1.5-0.6C477.3,426.5,477.2,426.7,477,426.4z
			 M477,429.5c0.1,0,0.2,0,0.3,0c0-0.1,0-0.2,0-0.3c-0.1,0-0.2,0-0.3,0C477,429.3,477,429.4,477,429.5z M473.9,435
			c-0.1,0-0.2,0-0.3,0c0,0.1,0,0.2,0,0.3c0.1,0,0.2,0,0.3,0C473.9,435.1,473.9,435.1,473.9,435z"/>
	</g>
</g>
</svg>
