<?xml version="1.0" encoding="utf-8"?>
<!-- Generator: Adobe Illustrator 21.0.0, SVG Export Plug-In . SVG Version: 6.00 Build 0)  -->
<svg version="1.1" id="Calque_1" xmlns="http://www.w3.org/2000/svg" xmlns:xlink="http://www.w3.org/1999/xlink" x="0px" y="0px"
	 viewBox="0 0 841 595" style="enable-background:new 0 0 841 595;" xml:space="preserve">
<style type="text/css">
	.st0{fill:#1D1D1B;}
	.st1{fill:#DADADA;}
</style>
<g>
	<g>
		<path class="st0" d="M528.4,238.7c-0.3-1.3-0.7-2.8-1.4-4.1c-0.2-0.3-0.1-0.9-0.3-1.1c-0.1-0.1-0.3-0.1-0.4-0.3
			c-0.2-0.2-0.4-0.6-0.6-0.8h-0.3c-0.2-0.2-0.2-0.6-0.4-0.8c-0.4-0.3-1.4-0.9-1.9-1c-0.2-0.1-0.2,0.1-0.3,0.1c0-0.1-0.1-0.2-0.1-0.3
			c0,0-0.9,0-1-0.1c-0.3-0.1-1.2-0.6-1.1-0.8H520c-0.5-0.2-1.2-0.6-1.7-0.8c-0.6-0.2-1.4-0.4-2-0.3c-0.8-0.5-2.7-0.9-3.7-1
			c-0.2,0-0.3,0.1-0.5,0.1c-0.2-0.1-0.7-0.3-1-0.3c-0.1,0-0.2,0.2-0.3,0.2c-0.4,0.1-1-0.1-1.2-0.2h-0.9c-1.7-0.4-3.4-0.1-4.8-0.4
			c-0.4-0.1-1.5-0.4-2-0.3c-0.3,0-1,0.2-1.4,0.1c-1.4-0.4-5.6-0.3-6.6-0.2c-0.5-0.1-1.1-0.1-1.6-0.2c-0.7,0.1-1.4,0-2.2,0
			c-2.1,0-3.4,0-5.4-0.1c-0.5,0-0.8-0.1-1.1-0.1c-1.1,0.2-3.2,0.1-4.2,0.3c-0.5,0.1-1.6-0.3-2.2-0.1c-1.5,0.5-3.4,0.6-5.2,0.3
			c-0.6-0.1-1.8,0.3-2.3,0.2c-0.8-0.1-1.6,0.2-2.3,0.3c-0.7,0.1-2.4,0-3.2-0.1c-1-0.1-2,0.2-2.7,0.3c-0.4,0.1-1.3-0.2-1.5-0.3
			c-0.5-0.1-1.3,0.2-1.7,0.1c-0.6-0.1-1.6-0.2-2.3-0.3c-0.9-0.2-2,0.2-3.1-0.1c-1.7-0.4-3.2-0.6-4.9-1.1c-0.4-0.1-0.6,0.1-0.9,0
			c-0.5-0.1-1.3-0.3-1.7-0.4c-0.4,0-0.8-0.1-1.2-0.1c-0.9-0.3-2.3-0.5-3.2-0.7c-0.3,0-0.5,0.1-0.8,0.1c-0.3,0-1-0.2-1.2-0.3
			c-0.3,0-0.4,0-0.5-0.2c-0.1-0.3,0.7-2.1,0.9-2.5c0.5-0.8,1-1.4,1.4-2.2c-0.1-0.3,0.2-0.9,0.4-1.2c0.1-0.1,0.4-0.1,0.5-0.3
			c0.2-0.2,0-0.5,0.2-0.8c0.1,0,0.2-0.1,0.3-0.1c0.1-0.1,0-0.4,0.2-0.6c0.2-0.3,0.4-0.2,0.6-0.8h0.3c0.1-0.4,0.2-0.1,0.3-0.3
			c0-0.1,0.1-0.3,0.1-0.4h0.3c0.3-0.2,0.7-0.6,1-0.8c0.6-0.3,0.9,0,1.3-0.3c0.1-0.1,0-0.2,0.1-0.3c0-0.3-0.1-0.2-0.2-0.4
			c-1-0.2-1.8,0.2-2.8,0.3c0.1-1.2,0.9-1.2,0.3-2.2c-0.3-0.1-0.6-0.1-0.9,0.1c-0.6,0.3-0.5,0.9-0.8,1.5c-0.1,0.1-0.2,0.1-0.3,0.2
			c-0.3,0.5-0.4,1.1-0.8,1.6c-0.2,0.1-0.3,0.3-0.5,0.4v0.3c-0.1,0-0.2,0.1-0.3,0.1c-0.1,0.2-0.3,0.4-0.4,0.6
			c-0.4,0.3-0.8,0.4-1.1,0.7c-0.1,0.1-0.1,0.4-0.3,0.5c-0.2,0.3-0.8,0.4-1,0.8c-0.6,0.8-1.2,1.3-2,2c-0.7,0.6-1.1,1.4-1.9,1.9
			c-0.6,0.5-1.3,0.6-2,1c-1.4,0.8-2.7,1.7-4.2,2.5c-0.4,0.2-0.7,0.7-1,0.9c-0.3,0.2-0.7,0.2-0.9,0.4c0,0.1-0.1,0.2-0.1,0.3
			c-0.3,0.2-0.8,0.1-1.1,0.3c-0.7,0.5-1.6,1.1-2.4,1.4c-0.3,0.1-0.6,0-0.9,0.2c-1.2,0.7-2.9,1.4-4.3,1.8c-1,0.3-2.1-0.1-2.8,0.4
			h-0.5c-0.2-1.3-0.8-4.8-1.8-5.9v-0.2c1.2,0,5.1-0.3,4.9-1.7c0.2,0,0.2,0.1,0.4-0.1c0.9-0.6,1.6-3.1,1.1-4.2
			c-0.2-0.4-0.7-0.8-0.9-1.2c-0.3-0.5-0.4-1-0.8-1.4c-0.4-0.3-1.8-0.5-2.3-0.4c0,0-0.5,0.2-0.5,0.2c-0.2,0-0.6-0.2-0.9-0.3
			c-1.6-0.3-3.1,1.3-3.8,2.4h-0.1c0-0.6,0.1-0.8,0.2-1.3c0-0.2-0.1-0.3-0.1-0.5c0.1-0.3,0.3-0.6,0.3-1h0.3c0.2-0.5,0.4-1.2,0.5-1.6
			c0,0,0.1,0.1,0.1,0.1c0.3-0.2,0.3-0.8,0.5-1.2c0-0.1,0.3-0.2,0.3-0.3c0-0.1,0.1-0.3,0.1-0.4c0.2-0.4,0.6-1.1,0.8-1.4
			c0.3-0.8,1.7-2,1.9-3.2h0.3c0-0.4-0.1-0.3-0.3-0.5c-1,0-1.7,1.6-2.2,2.3c-0.3,0.4-0.6,0.8-0.9,1.2c-0.2,0.2-0.6,0.4-0.8,0.6v0.4
			c-0.5,1-1.7,1.7-2.5,2.4c-0.4,0.3-0.8,1.1-1.1,1.4c-0.1,0-0.3,0.1-0.4,0.1c-1.2,0.5-1.3-0.7-2.4-0.3c-0.9,0.3-1.3,0.7-2,1.3
			c-0.5-0.1-0.6-0.7-0.9-0.9l-0.5-0.1c-0.5-0.3-0.8-1-1.2-1.4c-0.3-0.4-0.9-0.7-1.2-1.1c-0.6-0.8-1.1-1.7-1.6-2.5
			c-0.6-0.9-0.9-2.3-2-2.6v-0.1c-0.3,0-0.5,0-0.7,0.1c-0.1,0.1-0.1,0.2-0.2,0.3c0.2,0.9,1,1.3,1.4,2.1c0.2,0.3,0.1,0.6,0.3,0.9
			c0.1,0,0.2,0.1,0.3,0.1v0.4c0.1,0.1,0.4,0.2,0.4,0.3c0,0.2,0.1,0.4,0.1,0.6c0,0.1,0.3,0.1,0.3,0.2c0,0-0.1,0.1-0.1,0.1
			c0.1,0.5,0.4,1,0.6,1.4c0,0.1-0.1,0.2-0.1,0.3c0.4,0.8,1,1.8,1,2.8c-1.4-0.2-2.9-0.2-4.2,0.4c-0.2,0-0.5,0.1-0.7,0.1v0.2
			c-0.2,0.2-0.4,0.2-0.7,0.3c-0.1,0.1-0.1,0.3-0.2,0.3h-0.3c-0.2,0.1-0.2,0.5-0.4,0.6c-0.1,0.1-0.3,0.1-0.4,0.2
			c-0.3,0.4-0.2,0.8-0.5,1.3c-0.1,0.1-0.3,0.2-0.4,0.3v2.4c0.2,0.5,0.5,1.1,0.7,1.6h0.3c0.1,1.1,2.7,1.9,3.7,1.4
			c0.2,0,0.4,0.1,0.6,0.1c0.6-0.2,1.2-0.5,1.6-0.8c0.3-0.2,0.2,0.1,0.3,0c0.2-0.1,0.1,0,0.1-0.3c0.3,0,0.3,0.1,0.4-0.2h0.1
			c0,1.4-1.1,2.7-1.5,3.7c-0.2,0.5-0.1,0.9-0.3,1.4c-0.1,0.2-0.4,0.6-0.5,0.9c-0.1,0.3,0.1,0.4,0,0.6c-0.9,0.6-1.7,0.2-2.7-0.1
			c-0.4-0.1-0.7,0-1.1-0.2c-1.3-0.5-2.8-1.2-4.1-1.8c-0.7-0.3-1.2-0.1-1.9-0.4c-1.8-0.8-3.8-1.3-5.4-2.2c-0.4-0.2-0.9-0.2-1.4-0.4
			c-0.1-0.1-0.2-0.3-0.3-0.4c-0.7-0.5-1.4-0.9-2.1-1.4c-0.2-0.2-0.3-0.5-0.5-0.7c-1.9-1.2-3.2-2.8-4.5-4.6l-1.3-1.3
			c-0.1-0.3-0.5-1.8-0.6-2.1c-0.1-0.4,0.2-1.1,0.1-1.5c-0.1-0.2-0.5-0.8-0.3-1.2c0-0.4-0.1-0.5-0.3-0.7c-0.1-0.1-0.3-0.1-0.4,0
			c-0.8,0.1-0.4,0.5-0.7,1.1c-0.1,0.2-0.4,0.4-0.5,0.7c-1.2,0-2.4-0.4-3.3-0.6c-0.1,0.2-0.1,0.2-0.3,0.3v0.8
			c0.2,0.1,0.5,0.2,0.7,0.3c0,0.1,0.1,0.2,0.1,0.3h0.3v0.2c0.1,0,0.3,0.1,0.4,0.1c0.2,0.1,0.3,0.5,0.5,0.7h0.2
			c0.4,0.5,0.7,1.3,1,1.8c0,0.1,0.1,0.3,0.1,0.4c0.1,0.1,0.3,0.1,0.3,0.2v0.3c0.1,0.2,0.5,0.4,0.6,0.7c0.2,0.5,0.2,0.9,0.5,1.4
			c0.2,0.1,0.3,0.3,0.5,0.4c0.4,0.6,0.6,1.2,1,1.8c0.3,0.4,0.8,0.5,0.9,1h0.1c-0.1,0.1,0,0.1-0.1,0.2c-0.9,0.1-1.8,0.1-2.6,0.2h-1
			c-0.1,0-0.2,0.3-0.3,0.3c-0.1-0.2-1-0.2-1.4-0.1c-0.8,0.2-2,0.6-2.8,0.9c-0.7,0-1.4,0.1-2,0.1c-1,0.3-2.4,0.5-3.4,0.8
			c-0.2,0-0.3-0.1-0.4-0.1c-0.5,0.1-1.3,0.4-1.7,0.5h-1c-3.5,1-8.5,0.8-11.9,1.1c-0.3,0-1.1-0.1-1.4-0.2c-0.2-0.1-0.5,0.1-0.6,0.1
			c-0.2,0-0.5-0.1-0.6-0.2c-0.5-0.1-1.1,0.2-1.6,0.1c-0.4-0.1-1.3-0.3-1.6-0.3c-2.1,0-4.5-0.1-6.3-0.5c-0.9-0.2-1.6,0.1-2.5-0.2
			c-2.4-0.6-5.3-1.1-7.8-1.5c-0.3-0.1-0.7,0.1-1.1,0c-0.6-0.2-1.6-0.4-2.3-0.3c-0.2,0-0.4,0.1-0.7,0.1c-0.5-0.1-1.3-0.1-1.8-0.3
			h-1.2c-0.9-0.2-2.5-0.5-3.6-0.3c-4,0.8-8.4,1.5-11.6,3.4c-0.5,0.1-0.9,0.2-1.4,0.3c-0.3,0.1-0.7,0.4-0.9,0.6
			c-0.2,0.1-0.4,0-0.6,0.2c-0.1,0.1,0,0.2-0.1,0.3c-0.2,0.2-1.4,1.2-1.6,1.3v0.3c-1,0.3-1.9,2.4-2.4,3.1c-0.4,0.6-1.1,1.5-1.3,2
			c-0.1,0.4-0.2,1-0.3,1.4v1.1c-1.2,4.7,2.9,9.1,6.4,10.6c1.5,0.7,3.3,1.1,4.8,1.5c0.1,0,0.3-0.1,0.4-0.1c0.7,0.1,1.5,0.4,2.1,0.4
			c0.2,0,0.9-0.2,0.9-0.2v0.2c0.9,0.3,3-0.3,3.6,0c0.2,0.1,0.6,0.7,0.8,0.9c0.5,0.4,1.2,0.5,1.6,0.9c0.4,0.3,0.7,0.9,1.1,1.2
			c0.5,0.4,1,0.7,1.5,1.1c0.2,0.2,0.4,0.5,0.6,0.7c0.9,0.5,1.8,0.8,2.8,1.3c0.1,0.1,0.2,0.2,0.3,0.3c0.3,0.2,0.7,0.2,1.1,0.4
			c0.7,0.4,1.5,1,2.3,1.4c0.7,0.3,1.3,0.3,2,0.6c2.3,1,4.4,1.9,6.9,2.7c0.3,0,0.7,0.1,1,0.1c2.3,0.9,5.1,0.6,7.4,1.3
			c0.2,0,0.5-0.1,0.7-0.1c0.6,0.1,1.4,0.3,1.8,0.5h3.7c0.1,0,0.1-0.2,0.3-0.2c0.2,0.2,1.8,0.3,2.5,0.2c0.4-0.1,1.5,0.3,2.4,0.1
			c1-0.3,1.9-0.2,2.9-0.1c-0.1-0.1-0.1-0.1-0.3-0.1v-0.1c1.7,0.3,3.5,0.1,5-0.2c0.3-0.1,0.8,0.2,1.3,0.2v-0.3c0.2,0.1,0.1,0,0.3,0.2
			c0.5,0,0.3-0.1,0.4-0.2c0.3-0.1,0.5,0.2,0.9,0.2c0.3,0,0.2-0.2,0.5-0.2c0.1,0,0.2,0.2,0.3,0.1V264c0.4-0.2,0.6,0.1,1.1,0
			c0.1,0,0.6-0.3,0.7-0.3c0.1,0,0.3,0.1,0.5,0.1c0.8-0.2,1.6-0.4,2.9-0.3v-0.3c0.3,0.1,3.2-0.6,3.9-0.9c0.4-0.1,0.5-0.5,0.9-0.7
			c0.1-0.2,0.3,0.1,0.7,0.1c0.3,0,1.4-0.6,1.6-0.9c0.4,0.1,0.6,0.4,0.9,0.5c0.3,0.1,1,0.2,1.3,0.3c0.4,0.1,0.7-0.1,1,0.2
			c0.2,0.1,0.1,0,0.2,0.2c0.2,0.2-0.5,0.9-0.7,1.1c-0.3,0.5-0.4,1-0.7,1.5c-0.1,0.1-0.3,0.1-0.3,0.3c0,0.2-0.1,0.3-0.1,0.5
			c-0.3,0.4-0.7,0.7-0.9,1.2c-1,2-2.3,3.6-3.5,5.5c-0.3,0.3-0.6,0.6-0.9,0.9c-0.7,1.2-1.5,2.2-2.4,3.1c-0.5,0.6-1.2,1.1-1.8,1.7
			c-0.1,0.2-0.2,0.4-0.3,0.6c-0.5,0.4-1,0.6-1.3,1.3c-0.1,0.2,0,0.3,0.1,0.5c0.1,0.2,0.1,0.2,0.3,0.3l0.1,0.1v-0.1
			c1,0,2.3-2,2.9-2.6c0.2-0.2,0.5-0.2,0.7-0.4c0.1-0.1,0.1-0.3,0.2-0.4c0.4-0.4,0.9-0.8,1.3-1.2c0.8-1,1.6-2.1,2.4-3.1
			c0.2-0.3,0.2-0.6,0.3-0.9c0.1,0,0.2-0.1,0.3-0.1c0.3-0.3,0.4-0.8,0.7-1.2h0.2c0.2-0.3,0.2-0.5,0.3-0.9c0.1-0.3,0.5-0.5,0.7-0.8
			c0.4-0.5,0.6-1.2,1.1-1.5v-0.3c0.2,0,1.1-1.2,1.2-1.7c0.5-0.1,0.5-0.7,0.8-1c0.6-0.8,1.3-1.8,1.8-2.7c1.9-0.1,5.1-0.4,6.6-1.1
			c0.7-0.3,1.4-1.1,2.1-1.4c0.6-0.4,1.5-0.5,2-1c0-0.1,0.1-0.2,0.1-0.3c0.1-0.1,0.4-0.1,0.5-0.2c0.2-0.1,0.3-0.5,0.4-0.6
			c0.3-0.3,0.8-0.4,1-0.8c0.2-0.2,0.2-0.5,0.5-0.7c0.5-0.3,0.9-0.1,1.1-0.7c0.1-0.2,0-0.2-0.1-0.4c0.4-0.4,1.9-2.7,2-3.2h0.3
			c0.5-1.1,1.3-2.2,1.8-3.3c0.2-0.6,0.2-1.1,0.5-1.5c0-0.1,0.1-0.1,0.1-0.2c0.2,0.1,0.1,0.4,0.3,0.8c-0.2,0.5-0.5,0.9-0.7,1.4
			c-0.5,1.9,0.6,4.8,1.5,5.8c-0.1,0.6-0.7,0.4-1,0.9c-0.3,0.3-0.7,1.8-0.8,2.3c-0.1,0.9,0.9,2.4,0.7,2.9c0,0.4,0.1,0.4,0.2,0.6
			c0.5,0.1,0.2,0.1,0.4,0.3c-0.1,0.8-0.8,1.5-0.9,2.3c0,0.1,0.1,0.5,0.2,0.6v1c0.2,0.6,0.5,0.3,0.6,1h0.3c0.2,0.4,0.3,0.6,0.7,0.8
			v0.3c-0.6,0.1-1.6,1.9-1.4,3c0.3,1.1,1.2,2.2,2.3,2.8c-0.3,0.2-0.9,0.2-1.1,0.5c-1.3,1.7-0.9,3.9,0.9,5v0.2
			c-1.4,1.1-1.2,3-0.3,4.5c0.3,0.4,0.4,0.8,0.9,1v0.1c-0.8,0.2-0.9,0.7-1.4,1.1c-0.2,2.2-0.1,2.7,1.3,3.8c-0.1,0.7-0.9,0.7-1.3,1.1
			c-0.3,0.4-0.2,1.1-0.5,1.4c0.1,0.3,0.1,0.8,0.3,1c0.5,0.8,1.3,1.6,2,2.3c-0.7,0.5-1.3,0.6-1.5,1.4c-0.8,1.2,1.2,3.6,1.8,3.9
			c-0.3,0.4-1.1,0.5-1.4,1c-0.9,1.5,0.3,3.5,1.6,3.8c-0.2,0.6-1,1.2-1.3,1.7c-0.2,0.3-0.1,0.8-0.3,1.1c0,1,0.8,2,1.4,2.5
			c-0.2,0.4-1.8,1.7-1.1,2.6c0.1,0.7,0.9,1.3,1.4,1.6c-0.1,0.5-0.6,1-0.8,1.5c-0.1,0.4,0.2,0.8,0.3,1c0.4,1.3,0.8,1.9,1.9,2.4
			c-0.1,0.5-0.3,0.7-0.4,1c-0.1,0.3,0.1,0.8,0.1,0.9c0.3,1.4,0.5,2.5,1.8,2.9c-0.1,0.5-0.6,0.9-0.6,1.4c0,0.3,0.4,0.6,0.4,0.8
			c0,0.1-0.1,0.2-0.1,0.3c0.1,0.4,0.4,0.8,0.7,1c-0.2,0.4-0.6,0.4-0.9,0.7c-0.1,0.2-0.2,0.5-0.3,0.7c0,0.8,0.9,1.8,1.4,2
			c0.3,0.2,0.6,0,0.9,0.3c0.7-0.3,0.8-0.8,1.3-1.3c0-1.4-1-1.6-1.8-2.2h-0.1c1.4-1,2.1-1.4,1.5-3.4c1.2-0.5,2.8-2.5,2.1-3.9
			c0.1-0.9,0.9-1,1.4-1.5c0.3-0.4,1.5-2,1-3c-0.1-0.2-0.4-0.3-0.4-0.5c-0.1-0.4,0-1-0.1-1.3c0.6-0.2,0.7-0.6,1.3-0.9
			c0.4-1,0.4-2.7-0.4-3.2c0.1-0.7,0.8-1,1-1.6c0.4-1.1,0.1-2.5-0.5-3.2c-0.2-0.2-0.6-0.3-0.8-0.5c-0.2-0.1,0.6-0.6,0.7-0.8
			c0.3-0.5,0.6-1.4,0.8-2c0.2-0.6-0.3-1.3-0.4-1.7h-0.3c0.1-0.5,0.5-0.4,0.7-0.8c0.3-0.6,0.2-1.6,0.4-2c-0.1-0.3-0.2-0.2-0.3-0.4
			c-0.4-0.6-0.2-1.2-0.8-1.8c0.2-0.7,0.9-1.2,1.2-1.9c0.5-1,0.1-2.6-0.4-3.4c-0.3-0.2-0.5-0.4-0.8-0.6c-0.1,0,1-1.4,1.3-1.6
			c0.1-0.5,0.1-1,0.2-1.5c-0.1-0.4-0.2-0.8-0.3-1c-0.1-0.6-1-1.2-0.8-1.7c0.1-0.3,1-1.2,1.2-1.6c0.6-1.6-0.1-3.3-1.4-3.7
			c0.2-0.6,1-1.1,1.4-1.5c0.1-0.3,0.2-0.6,0.3-0.9c0.6-1.8-0.5-2.7-1.4-3.7c-0.4-0.5,1-0.9,1.2-1.2c0.2-0.4,0.3-0.9,0.3-1.2
			c0.3-0.8,0.4-0.6,0.4-1.9c-0.3-0.3-0.3-0.6-0.7-0.8c0-0.8,0.7-0.9,1-1.4c0.2-0.3,0.5-1,0.6-1.4c0.2-0.6-0.4-1.7-0.2-2
			c-0.1-0.6-0.5-1-1-1.3c0.1-0.4,0.4-0.5,0.6-0.9c0.2-0.4,0-0.7,0.1-1c0.2-0.9,0.6-2,0.3-2.9c-0.1-0.3-0.5-0.6-0.7-0.9
			c-0.2-0.3-0.1-0.5-0.4-0.8c0-0.7,0.6-1.6,0.9-2c0.1,0,0.2-0.1,0.3-0.1v-0.3c0.1-0.3,0.5-0.8,0.6-1.1c0.1-0.4-0.2-3.2-0.4-3.5
			c-0.3-0.2-0.5-0.4-0.8-0.6c0-0.5,0.2-0.6,0.2-1.1c0,0,0.1-0.1,0.1-0.1h0.5c0.1-0.3,0.2-0.3,0.3-0.5c0.2-0.6-0.2-1.7,0-2.5
			c0.3-0.9,0.4-2,0.4-2.9c0.5,0.1,0.4,0.6,0.6,1c0.2,0.6,0.2,1.1,0.4,1.9c0.1,0.2,0.3,0.6,0.4,0.9c0,0.3,0.1,0.7,0.1,1
			c0.3,0.6,0.4,1.4,0.6,2c0.1,0.5,0,0.8,0.2,1.3c0.6,1.3,1,2.9,1.7,4.1c0.4,0.8,0.5,1.6,0.9,2.3c0.3,0.3,0.5,0.5,0.8,0.8
			c0.4,0.7,0.6,1.5,1.1,2.1c0,0,0.1,0.1,0.1,0.1v-0.1c0.1,0.1,0.7,1,0.8,1c0.1,0,0.2-0.1,0.3-0.1c-0.2,0,0.1,0.6,0.2,0.7
			c0.1,0.1,0.3,0.2,0.4,0.3c0.3,0.4,0.6,0.8,0.9,1.2c0.3,0.4,1.6,1.7,2,2c0.2,0.1,0.5,0.2,0.7,0.3c0.1,0.1,0.1,0.3,0.2,0.3
			c0.3,0.2,0.7,0.5,1,0.6c1,0.4,2.1,0.6,3.4,0.9c0.6,0.1,0.7-0.2,1.5-0.1c0.7,0.1,2.4,0.4,3,0.1c0.2,0.3,0.9,1.3,1.2,1.4h0.3
			c0.1,0.2,0.1,0.3,0.2,0.5c0.2,0.1,0.3,0.3,0.5,0.4c0.4,0.5,0.6,1.1,1,1.6c0,0,0.4,0.2,0.4,0.3c0.2,0.2,0.2,0.5,0.3,0.8h0.2v0.3
			c0.1,0,0.2,0.1,0.3,0.1v0.3c0.1,0.2,0.4,0.2,0.5,0.3c0,0,0,0.3,0.1,0.4c0.1,0.1,0.3,0.1,0.4,0.3c0.3,0.2,0.5,0.6,0.7,0.9h0.2v0.3
			c0.1,0.2,0.3,0.5,0.5,0.8c0.3,0.5,1,0.8,1.4,1.3c0.5,0.5,0.7,1.2,1.2,1.8c0.2,0.1,0.4,0.2,0.6,0.3c0.1,0.2,0,0.4,0.2,0.6
			c0.2,0.3,0.8,0.5,1,0.8c0.5,0.8,1,1.4,1.5,2.1c0.6,0,0.8-0.1,1.1-0.3c0-0.2,0-0.5-0.1-0.6c-0.2-0.4-1.7-1.5-2-2
			c-0.2-0.2-0.4-0.5-0.5-0.7v-0.3c-0.2-0.4-0.8-0.6-1-0.9c-0.5-0.7-1-1.5-1.5-2.2c-0.4-0.5-1-1-1.4-1.5c-0.6-0.7-0.8-1.7-1.3-2.5
			c-0.4-0.8-1.1-1.6-1.6-2.3c-0.2-0.3-0.2-0.7-0.4-0.9c-0.1,0-0.2-0.1-0.3-0.1c-0.2-0.4-0.2-0.8-0.5-1.1v-0.3
			c0.6-0.1,3.4-0.9,3.9-0.7c1,0.3,2.1,0.9,3,1.4c0.7,0.3,1.4,0.4,2,0.8c0.4,0.2,1.5,0.1,1.9,0.3c0.7,0.4,2.1,1,3.1,0.9v0.2h0.3
			c0,0.1,0.1,0.1,0.1,0.2c0.2,0,0.4-0.1,0.6-0.1v0.2c0.2,0.1,0.7,0.3,0.9,0.3c0.2,0,0.3-0.1,0.5-0.1c1,0.3,2.1,0.3,3.2,0.4
			c0.8,0.1,2.2,0.7,2.9,0.6c0.1-0.1,0.1-0.1,0.2-0.2c0.8-0.1,1.5,0.4,2.5,0.2c0.5-0.1,0.8-0.2,1.2-0.4c0.4-0.2,0.9,0.1,1.2,0
			c0-0.1,0.1-0.2,0.1-0.3c0.3-0.1,0.2,0.2,0.5,0.2c0.4-0.1,1.1-0.2,1.4-0.3c0.3-0.1,0.7,0.1,0.9,0.2c0.4,0.1,0.7-0.2,0.9-0.2
			c0.3,0,1,0.3,1.7,0.1c1.1-0.3,2.2-0.6,3.1-0.7v-0.3c0.1,0.1,0.1,0.2,0.4,0.2c0.5-0.1,1.1-0.4,1.5-0.5c0.7-0.2,0.8,0,1.4-0.2
			c0.1,0,0.8-0.4,0.9-0.3c0.9,0.2,4.6-0.6,5.1-1c0.2,0.2,2.1-0.6,2.5-0.7c1.4-0.2,3.3-0.9,4.8-1.4c0.8-0.3,1.6-0.9,2.5-0.9
			c-0.1-0.1,0-0.1-0.1-0.2c0.1-0.1,1.1-0.3,1.4-0.4c1.2-0.6,2.4-1.6,3.5-2.3c0.4,0.2,1.8-1,2.2-1.2c0.4-0.2,0.7-0.1,1-0.3
			c0.2-0.1,0.2-0.4,0.3-0.5c0.1,0,0.3-0.1,0.4-0.1c0.6-0.3,1.2-0.8,1.8-1.2c0.1-0.1,0.2-0.3,0.3-0.4c0.2-0.1,0.5-0.2,0.6-0.3
			c0.3-0.3,0.4-0.8,0.8-1c0.3-0.2,0.6-0.2,0.9-0.4c0.1-0.1,0.1-0.3,0.2-0.5c0.2-0.4,0.8-0.6,1-0.9c0.3-0.4,0.3-0.9,0.7-1.2
			c0.3-0.5,0.7,0,1-0.4c0,0,0.3,0,0.2,0.1c0,0-0.1,0.1-0.1,0.1c1.3,0,2.4,0,3.3-0.2c0.6-0.1,1,0.1,1.5-0.1c0,0.1,0.1,0.2,0.1,0.3
			c0.6-0.1,0.9-0.3,1.7-0.3v-0.3c0.9,0.4,4-0.7,4.7-1.2c0.1-0.1,0.2-0.3,0.3-0.4c2.8-1.7,7.7-4,7.2-8.5
			C528.2,239.9,528.5,239.2,528.4,238.7z M412.4,218.8c0.4,0,0.5-0.2,0.5-0.3c0.5,0.1,1,0.3,1.4,0.3c-0.1,0.5,0.1,0.5,0.3,0.9
			c0.2,0.7-0.5,1.8-1.1,2c-0.4,0.3-1.3-0.4-1.4-0.9c-0.2-0.3-0.2-0.8-0.3-0.9C411.8,219.5,412.3,219.3,412.4,218.8z M396.6,220.5
			c-0.1,1-1.4,2.3-2.2,2.6c-0.1,0-0.5,0-0.7-0.2c-0.4-0.2-0.8-1.2-0.6-2c0.3-0.9,0.7-1.9,2-1.9V219c0.1,0.1,0,0,0.1,0.2
			c0.2,0,0.2,0,0.3-0.1c0.7,0,0.8,0.3,1.2,0.5C396.7,219.9,396.8,220.3,396.6,220.5z M400.4,221c0.1-0.2,0-0.5,0-0.6
			c0.1-0.3,0.5-0.8,0.5-1.2c0,0-0.1-0.1-0.1-0.1c0.2-0.2,0.2,0.1,0.3-0.5c0.4-0.1,0.5-0.5,0.7-0.9h0.3c-0.6,1.5-0.5,6.8,0.9,7.2
			c0.3,0.2,0.4,0.1,0.8,0.1c0.4-0.7,1.2-1.6,1.4-2v-0.7c0.6-1.9-0.3-3.3-0.3-5.3h0.4c0.2,0.6,1.2,1.7,1.5,2.2
			c0.2,0.3,0.1,0.7,0.3,0.9c0.4,0.6,1.7,3.4,1.8,4.5c0.1,0,0.1,0.1,0.3,0.1c-0.2,0.4,0.3,0.9,0.1,1.3c-0.2,0.2-1.4-0.5-2-0.4
			c-1.4,0.2-2.9,0.8-3.3,2.5c-0.6-0.1-0.7-0.7-1.1-1c-0.7-0.5-1.3-0.9-2.1-1.1c-0.5-0.2-1.1-0.3-1.5-0.1h-0.6
			C398.9,224.1,399.7,222.5,400.4,221z M394.2,232.5c0.1,0,0.1,0.1,0.2,0.1v0.1h-0.2V232.5z M384.5,230.5c0.2-0.1,1.8,0.2,2.2,0.4
			c1.5,0.7,3.2,1.2,4.6,1.9c0.3,0,0.6,0.1,0.9,0.1c0.2,0.1,0.2,0.3,0.4,0.3c0.1-0.2,0.2-0.1,0.3-0.3c0.5,0.3,1.2,0.3,1.7,0.3
			c-0.1,0.6-0.2,1.3-0.6,1.6c-0.1,0.1-0.5-0.1-0.8,0.1c-0.3,0.2-0.9,0.9-1.1,0.9h-0.8c-0.8,0.2-1.9,0.2-2.5,0.3
			c-1.2,0.2-2.9-0.3-3.7,0.1h-0.3c0.1-0.7,0.3-1.1,0.4-1.7c0-0.1-0.1-0.3-0.1-0.4c0.1,0,0.2-0.1,0.3-0.1c0,0,0-1.2,0-1.3
			C385.2,232.1,384.7,231.2,384.5,230.5L384.5,230.5L384.5,230.5z M390.9,244.1c-0.1,0.4-0.6,0.8-0.5,1.3c-0.3,0-1-0.2-1.1-0.2
			c-0.7,0.1-1.3,0.5-2.1,0.6v-0.3c0.9-0.6,1.5-1.9,2-2.8c0.2,0.3,0.7-0.7,0.9-0.9c0.2-0.2,0.5-0.2,0.7-0.3c0-0.1,0.1-0.2,0.1-0.3
			c0.1-0.1,0.4-0.2,0.5-0.3c0-0.1-0.1-0.1-0.1-0.2c0.1-0.1,0.3-0.1,0.4-0.2c0.2-0.2,0.3-0.5,0.5-0.7c0.1-0.1,0.4-0.1,0.6-0.3h0.1
			c-0.1,1.1-0.9,2-1.3,2.8c-0.2,0.5-0.3,0.9-0.5,1.3c-0.1,0.1-0.2,0.1-0.3,0.2C390.9,243.9,390.9,244,390.9,244.1z M372.3,247.1
			c-0.3-0.6,0.3-1.2,0.4-1.6c0-0.1-0.2-0.2-0.1-0.4c0.2-0.4,0.8-1.4,1.2-1.6c0.1,0,0.2,0.1,0.3,0.1c0-0.1,0.1-0.2,0.1-0.3
			c0,0,0.7,0,0.9-0.2c0.5,0.2,2.5,0.7,2.6,0.6h0.1c0,0.1-0.1,0.1-0.1,0.2c1,0.4,2,0.4,2.9,0.9c0.4,0.2,0.7,0.7,1.1,0.9
			c0.1,0.4,0.2,1.2,0.3,1.4c0,0.7-0.3,1.4-0.7,1.6c-0.4,0.2-1.3-0.6-1.7-0.8c-0.9-0.4-4-1.2-5.2-0.9c-0.7,0.2-1.4-0.1-2,0.3
			C372.4,247.2,372.4,247.2,372.3,247.1z M372.5,248.2c-0.1-0.1-0.1,0-0.2-0.1C372.5,248.1,372.4,248.1,372.5,248.2z M307.1,240.7
			c0-0.1-0.1-0.2-0.1-0.3h0.1c0.1,0.1,0.5,0.1,0.7,0c0,0,0.3,0,0.2,0.1c0,0-0.1,0.1-0.1,0.1c2.2,0.1,4.6,0.6,6.5,1.5
			c0.2,0.1,0.2-0.1,0.3-0.1c0.3,0.1,1.3,0.4,1.5,0.6c0,0.1,0.1,0.2,0.1,0.3c0.6,0.5,1.4,0.9,2.1,1.3c-0.2,0.3-0.7,0.3-1,0.5
			c-0.4,0.3-1,0.6-1.4,0.8h-0.5c-0.6,0.2-1.2,0.7-1.8,0.9c-0.6,0.2-0.9,0.1-1.3,0.5c-1-0.1-1.3-0.9-2.1-1.2c-0.5-0.2-1,0-1.6-0.2
			c-1.1-0.3-2.3-1-3.4-1.4c-0.7-0.2-1.3,0-2-0.2c-0.7-0.1-1.5-0.3-2.2-0.4c0,0-0.1-0.1-0.1-0.1c0.2-0.9,1.1-0.6,1.7-1
			c0.1-0.1,0.2-0.4,0.3-0.4c0.1,0,0.2,0.2,0.3,0.1c0.6-0.3,0.4-0.4,0.9-0.4c0-0.1,0.1-0.2,0.1-0.3c0.2,0,0.3,0.1,0.5,0.1
			c0.1,0,0.3-0.4,0.4-0.4c0.4-0.3,0.8-0.1,1.1-0.4c0.1,0.1,0,0,0,0.3C306.7,240.8,306.6,240.6,307.1,240.7z M311.3,239
			c0,0,0.8-0.3,1-0.3v-0.3c0.2,0.1,0.4,0.1,0.6,0.2c0.6-0.3,1.2-0.6,1.7-0.9h1.3c0.6,0.1,1.4,0.2,2,0.3h0.7c0.6,0.2,1.1,0.5,1.7,0.8
			c1.3,0.5,2.1,0.4,3.1,1c0.6,0.4,1.1,1.3,1.7,1.4c-0.3,0.6-1.1,0.5-1.7,0.8c-0.6,0.3-1.4,0.8-2,1.1c-0.4,0.2-0.8,0.2-1,0.4
			c-0.5-0.1-0.6-0.3-0.9-0.5c-0.6-0.3-1.1-0.4-1.7-0.7c-0.3-0.2-0.6-0.5-0.9-0.7c-0.9-0.5-1.6-0.5-2.6-0.9c-0.2-0.1-0.5-0.3-0.7-0.4
			c-0.8-0.4-3.1-0.3-3.7-0.8h-0.2c0.3-0.3,0.5-0.4,0.7-0.6c0.5,0,0.7,0.1,0.7-0.3C311.4,238.9,311.2,238.9,311.3,239z M343.8,247.7
			v0.3c-0.7,0.1-1.2,0.5-1.8,0.8c-1.6,0.8-3.1,1.5-4.6,2.4c0,0-0.1,0.1-0.1,0.1v-0.1h-0.2c0.1-0.2,0.1-0.1,0.2-0.3
			c-0.3-0.2-0.2-0.4-0.4-0.7c-0.2-0.3-0.6-0.4-0.9-0.6c-0.2-0.3-0.5-0.5-0.7-0.8c-0.5-0.4-1.1-0.5-1.7-0.9c-0.8-0.5-1.8-1.3-2.7-1.8
			c-1.2-0.7-2.6-1-4-1.5c-0.9-0.3-1.8-0.9-2.9-1.1c0.1-0.5,1.4-1.2,1.7-1c0.1-0.1,0.1-0.1,0.1-0.3h0.3V242c1.9,0,3.9-2.4,5.7-1.8
			c0.3,0.1,1.3,0.4,1.5,0.6c0.1,0.1,0.3,0.3,0.4,0.3h0.4c0.2,0.1,0.5,0.4,0.7,0.4c0.2,0.1,0.2-0.1,0.5,0c0.1,0.1,0.4,0.4,0.5,0.4
			c0.1,0,0.3-0.1,0.4-0.1c0,0.1,0.1,0.2,0.1,0.3c0.2,0.1,0.4,0,0.6,0.2c0.1,0.1,0.1,0.2,0.2,0.3c0,0,0.7,0.1,0.9,0.3
			c0.7,0.4,2.3,2.4,3,2.3v0.3C342.2,245.7,342.8,247,343.8,247.7z M331.9,238.6c-1.1,0.3-3.8,1.2-4.4,1.9c-1.9-0.1-2.9-1.7-4.5-2.2
			c-1.2-0.4-2.4-0.7-3.6-1.1c-0.3-0.1-0.7,0-1-0.2c-0.1-0.1,0,0-0.1-0.2c0.9-0.5,2.1-0.9,3.2-0.9v-0.3c0.4,0.1,2.7-0.3,3-0.8
			c0.1,0.1,0.1,0.1,0.1,0.3c0.4,0,0.3-0.2,0.5-0.3c0.6-0.2,1.5,0.7,2,0.9c0.2,0,0.4-0.1,0.4-0.1c0.1,0,0.2,0.3,0.4,0.3
			c0.2,0,0.2-0.2,0.3-0.2c0.4,0.3,1.1,0.5,1.5,0.9c0,0.1,0.1,0.2,0.1,0.3c0.3,0.2,0.7,0.1,0.9,0.3c0.1,0,0.1,0.3,0.2,0.3
			c0.3,0.3,0.7,0.6,1,0.9L331.9,238.6L331.9,238.6z M317.6,246c0,0,0.3-0.4,0.3-0.4c0.5-0.3,1.5-0.5,1.8-0.7c0.2-0.1,0.1,0,0.1-0.3
			c1,0.1,1.9-1.1,3-0.6c1.5,0.7,3.7,1.3,5.4,2.1c0.2,0,0.5,0.1,0.7,0.1c0.3,0.2,0.7,0.5,1.1,0.7c0.2,0.1,0.5,0,0.5,0
			c0.4,0.3,0.7,0.7,1.1,0.9c0.2,0.1,0.4,0,0.6,0.2c0.1,0.1,0.1,0.3,0.3,0.4c1.2,0.7,2.4,1.3,3.1,2.5h0.3c0.1,0.4,0.3,0.6,0.8,0.6
			v0.1c-1.2,0.7-2.2,1.8-3.5,2.4c-0.3-0.5-0.4-0.2-0.9-0.4c-0.3-0.1-0.6-0.5-0.9-0.6c-0.5-0.3-0.9-0.4-1.4-0.7
			c-1.5-0.9-3.1-2-4.8-2.7c-1.5-0.7-3.1-0.9-4.8-1.4c-1.3-0.5-2.8-1.2-4.5-1.2C316,246.2,317,246.4,317.6,246z M332,256.7v-0.4
			c0,0,0.4,0.1,0.6,0c0.2-0.1,0.1-0.4,0.3-0.5c0,0,0.1,0.1,0.1,0.1c0.3-0.1,0.6-0.5,0.8-0.8h0.3v-0.3c0.7,0,1.6-0.7,1.6-1.1h0.3
			v-0.3c0.4-0.2,0.9-0.5,1.3-0.8c0-0.1,0.1-0.2,0.1-0.3c0.2,0,0.4-0.1,0.6-0.1c0.3-0.2,0.9-0.6,1.2-0.9c2.1,0.1,5,1.2,6.6,1.9
			c0.8,0.4,1.9,1.2,2.9,1.4c-0.3,0.7-0.8,1-1.1,1.6c-0.1,0.3,0,0.4-0.2,0.7c-0.2,0.4-0.7,0.8-0.9,1.3c-0.6-0.1-0.6-0.4-0.9-0.5
			c-0.2,0-0.5,0.1-0.7,0.1c-0.5-0.1-1.6-0.2-2.4-0.2h-1.5c-0.8-0.2-1.5,0.1-2.5-0.1c-2-0.5-4.8-0.4-6.9-0.3c0-0.2,0-0.2,0.1-0.3
			c0.1-0.1,0-0.1,0.1-0.2C331.8,256.7,331.8,256.7,332,256.7z M347,252.5c-0.4-0.2-0.7-0.1-1.1-0.3c-0.3-0.1-0.6-0.5-0.9-0.6
			c-0.9-0.4-2.7-0.9-3.9-0.9v-0.3c0.2-0.1,0.6-0.2,0.8-0.3c0-0.1,0.1-0.2,0.1-0.3h0.4c0.4-0.3,0.8-0.4,1.3-0.6
			c0.1-0.1,0.4-0.4,0.6-0.4c0.2,0,0.3,0.1,0.5,0.1c0.2-0.1,0.6-0.4,0.8-0.5h0.6c0.3-0.1,1.1-0.7,1.2-0.7c0.7,0,1.9-0.6,2.1-0.5
			c0.4,0.1,1.8,0.7,2.2,0.9c0.4,0.3,0.6,0.9,1,1.3c-0.2,0.9-1.7,2-2.2,2.8c-0.3,0.4-0.4,1-0.9,1.2
			C349.1,253.5,347.5,252.7,347,252.5z M355.3,236.4c0.4,0.3,0.9,0.3,1.3,0.6c0.2,0.1,0.5,0.6,0.7,0.8c0.2,0.1,0.4,0,0.6,0.2
			c0.1,0.1,0.2,0.4,0.3,0.5c0.3,0.3,0.6,0.4,0.9,0.6c-0.1,0.1-0.1,0.2,0,0.3c0.3,0.3,0.8,0.5,1,0.9c0.5,0.6,0.3,1.3,0.9,1.9
			c-0.1,0.2-0.3,0.4-0.4,0.5c-0.5,0.3-0.9,0.2-1.5,0.4c-2,0.7-4.7,1.3-6.5,2c-0.5-1.4-0.9-1.6-1.9-2.5c-0.7-0.6-1.3-1.9-2.1-2.5
			c-1.7-1.2-3.2-2.5-4.9-3.7c0.3-0.5,1.4-0.6,2-0.5v-0.3c0.5,0.1,1.2-0.1,1.6-0.2c0.2-0.1,0.8,0.1,1.2,0.1c0.8-0.1,1.6-0.2,2.5-0.3
			c0.1,0,0.3,0.1,0.4,0.1c0.3,0,0.8-0.1,0.9-0.1c0.1,0.1,0.2,0.2,0.3,0.3c0.2,0,0.5-0.1,0.7-0.1v0.3
			C354.2,235.4,354.5,235.9,355.3,236.4z M362.2,235.9c0.1,0,0.3,0.3,0.7,0.2c0.2-0.1,0.2-0.2,0.5-0.2l0.2,0.2
			c0.1-0.1,0.1-0.2,0.2-0.3c0.3,0.1,0.4,0.3,0.6,0.4c0.4,0.2,0.7,0,1,0.3c0.5,0.4,0.9,0.9,1.6,1.2v0.3h0.3c0.3,0.6,1.1,0.9,1.6,1.3
			c0.4,0.4,0.9,1.3,1.4,1.8c-0.1,0.2-0.1,0.2-0.2,0.3c-2.9,0-5.1,0.8-7.7,0.9V242H362c0.2-0.9-0.3-1.4-0.6-2.1
			c-0.1-0.1,0.1-0.1,0.2-0.3c-0.8-0.3-1.4-0.8-2-1.4c-0.3-0.2-0.5-0.6-0.8-0.9c-0.1,0-0.3-0.1-0.4-0.1c-0.3-0.2-0.4-0.7-0.7-0.9
			c-0.4-0.2-0.8-0.3-1.1-0.6h-0.1c0.3-0.5,0.6,0,1.1-0.1c0.3-0.1,0.8,0,1.2,0.1c0.9,0,1.7-0.1,2.5-0.1c-0.1,0.1,0,0-0.2,0.1v0.2
			C361.6,236.1,361.9,235.8,362.2,235.9z M370,236.4L370,236.4l0.2-0.1c0,0.1,0.1,0.1,0.1,0.3c0.3,0,0.7,0.1,1,0.1
			c0.2,0,0.6-0.2,0.9-0.2c0.1,0,0.2,0.3,0.2,0.3c0.3,0.1,0.4-0.2,0.7-0.2c0,0,0.1,0.1,0.3,0.2v-0.3c0.2,0.1,0.1,0.2,0.3,0.1
			c0.3,0.1,0.2-0.1,0.2,0.3c0.4-0.1,2.2-0.2,2.4-0.1c1.1,0,0.9,0.8,1.7,1.1c0.1,0.1,0.1,0.1,0.3,0.1v0.3c0.4-0.1,1.4,0.9,1.6,1.3
			v0.6c0.1,0.4,0.3,0.7,0.5,0.9v0.2c-1,0.2-2.2-0.2-3.4,0c-1.3,0.3-3.2,0-5.1,0.1c-0.1-0.6-0.3-0.5-0.4-0.7c0-0.1,0.1-0.2,0.1-0.3
			c-0.1-0.1-0.4-0.2-0.5-0.3c-0.1-0.1,0-0.3-0.1-0.3h-0.3c-0.6-0.4-0.9-1.1-1.4-1.5c-0.7-0.5-1.6-0.8-2-1.4c0,0-0.1-0.1-0.1-0.1
			c0.4-0.2,0.6-0.1,1.3-0.1v-0.3c0.1,0.1,0.1,0.1,0.1,0.3c0.7,0,1,0.2,1.7,0.2C370.1,236.3,370.2,236.5,370,236.4z M383.3,242
			L383.3,242c0.4,0,1.2,0.2,1.7-0.2c0.5,0,0.7,0.1,1.1,0c0.1,0.1,0,0,0.2,0.1c-0.1,0.6-0.6,0.8-0.9,1.2c-0.6,0.8-1.3,1.6-1.9,2.5
			c-0.5-0.1-1.4-1.4-2-1.7c-1.3-0.7-4-1.3-5.7-1.3v-0.2c0.7-0.2,2.2-0.1,2.7-0.2c0.5-0.1,1.1,0.1,1.4-0.1c0,0,0.3,0,0.2,0.1
			c0,0-0.1,0.1-0.1,0.1c0.5,0,1-0.3,1.3,0c0.6-0.1,1.6-0.4,2.1-0.2L383.3,242C383.4,242,383.4,242.1,383.3,242z M351.3,246.9v-0.3
			c0.4-0.2,0.8-0.6,1.4-0.4c0.1-0.2,0,0,0-0.3c0.9-0.1,1.7-0.6,2.4-0.8c0.3-0.1,1.1,0,1.4-0.1c0.5-0.2,1.1-0.4,1.6-0.3
			c-0.2,0.6-1.1,0.9-1.5,1.2c-1.1,0.7-1.8,2.1-3,2.6C353.2,247.8,352.3,246.9,351.3,246.9z M356.9,247h0.3c0.2-0.2,0.2-0.1,0.4-0.3
			c-0.2-0.1,0.2-0.5,0.3-0.6c0.6-0.5,1.3-0.8,1.9-1.3c0-0.1,0.1-0.2,0.1-0.3c0.5-0.4,1.6-0.3,1.9-0.9c0.1,0,0.2,0.2,0.3,0.2
			c0.2,0.1,0.6-0.1,0.6-0.1c0.3,0.2,0.7,0.5,1,0.7h0.6c0.1,0,0.1,0.3,0.2,0.3h0.3c0.5,0.3,1,0.8,1.5,1.1c0.1,0.1,0.7,0.1,0.7,0.1
			c0.1,0,0,0.3,0.1,0.3c0.4,0.4,0.9,0.6,1.3,1c0.7,0.8,0.9,1.9,2,2.2c0,0.7-0.1,0.5-0.3,1c-0.3,1,0.1,3.4,0.3,3.9
			c0.2,0.5,0,0.9,0.2,1.1c-0.1,0.1,0,0.1-0.1,0.2c0,0-0.1,0.1-0.1,0.1c-0.5-0.7-1.8-2.3-2.5-2.8c-0.5-0.3-1-0.5-1.4-0.9
			c-0.3-0.3-0.6-0.6-0.9-0.9c-0.8-0.6-1.7-1.3-2.6-1.7c-0.3-0.2-0.6,0-1-0.2c-0.9-0.4-1.9-1-2.7-1.4c-0.6-0.3-1.4-0.3-2-0.7h-0.2
			L356.9,247L356.9,247z M368,245.4c-0.6-0.4-1.1-0.4-1.7-0.8c-0.4-0.2-0.9-0.6-1.4-0.9c-0.3-0.2-0.7-0.2-0.9-0.4
			c0,0-0.1-0.1-0.1-0.1c0.2-0.1,0.6,0,0.8-0.2c0.1-0.1,0.1-0.3,0.3-0.3c0.3-0.1,0.5,0.3,0.9,0.2c1-0.3,3.2-0.7,4-0.4
			c0-0.1,0.1-0.2,0.1-0.3c0.3,0.1,2.2,0.1,2.3,0.1c0.4,0,0.7,0,0.9,0.2c-0.5,0.7-1.3,1.4-1.6,2.3c-0.4,1.1-0.5,2.1-1,3.1
			C369.7,247.6,368.8,246,368,245.4z M382.7,251.6c0.3,0,0.5,0.2,0.8,0.3c0.8,0.2,2.5-0.2,3.1,0.1c0.1,0,0.2,0.1,0.3,0.1
			c-0.3,0.5-0.5,1.1-0.9,1.4c-0.1,0.1-0.1,0.1-0.3,0.1c0,0.5-0.2,0.7-0.4,1.1c-1.4,0.2-2.1,0.4-3.9,0.3c-0.1-0.1-0.2-0.2-0.3-0.3
			C381.2,253.9,382.5,252.7,382.7,251.6z M386.8,250.7c-0.9-0.2-2.5,0.4-3.1,0c-0.1-0.1,0.3-0.7,0.4-0.9c0.7-0.8,1.3-1.8,1.9-2.8
			c0.7-0.1,1.9,0.1,2.5-0.3h0.2v-0.3c0.2,0.1,0.5,0.2,0.7,0.3h0.2c-0.3,1.6-1.6,2.6-2,4.2C387.1,250.9,387,250.8,386.8,250.7z
			 M384.8,233.8c0.1,0.1,0.1,0,0.2,0.1h0.1c0,0-0.1,0.1-0.1,0.1v0.1C384.8,233.9,384.9,234.1,384.8,233.8z M386.2,237v0.2
			c0,0,1,0,1.3,0c0.9,0.1,2.1,0,3.2-0.2c0.1,0.1,0,0,0.2,0.1c-0.3,0.7-2.2,2.4-2.8,3c-0.2,0.2-0.7,0.8-1.1,0.8c-0.6,0-3.9,0-4.3,0.3
			c-0.2,0-0.2,0-0.3-0.1c-0.1-0.2,0-0.1,0-0.3c-0.4-0.1-0.6-0.3-0.9-0.4c-0.2-1.1-0.7-1.9-1.4-2.5c-0.3-0.2-0.5-0.3-0.8-0.6h-0.1
			c0.1-0.1,0.1-0.1,0.2-0.2c0.7,0,1.4,0.1,2.2,0.2c0.3-0.2,2.4-0.1,2.7,0C384.9,237.3,385.9,236.9,386.2,237z M376.2,233.6v-0.9
			c0.2-0.8,0.4-2.4,0.2-3.4c-0.1-0.4-0.3-0.7-0.3-1.3c1.2,0,2.1,0.6,3,0.9c0.3-0.1,1.2,0.1,1.4,0.3c0.7,0.3,1.8,0.3,2.4,0.8
			c0.4,0.3,0.3,0.8,0.5,1.3c0.3,0.5,1.1,1.5,0.8,2.6c-0.1,0.3-0.4,0.6-0.5,0.9c-0.2,0.5-0.1,1-0.4,1.4c-0.2,0.1-1.6-0.1-2-0.2
			c-1.9-0.1-3.9-0.2-5.8-0.3C375.4,234.8,375.9,234.3,376.2,233.6z M367.9,226c0.1-0.1,0.1-0.1,0.2-0.2v0.1c0.2,0,0.2,0,0.3,0.1
			c0.4,0,0.4,0,0.3-0.3c0.2,0.1,0.2,0.1,0.3,0c0.1,0.1,0.1,0.1,0.1,0.3c0.2,0,1.1-0.3,1.1-0.3c1,0,4,1,4.7,2.3c0.1,0.2,0,0.3,0,0.4
			c0.1,0.2,0.3,0.6,0.4,0.9c-0.1,0.2-0.1,0.9,0,1.4c0.1,0.4,0,1.8-0.2,2.4c-0.3,0.8-1,2-1.4,2.7c-2.1,0-4.9-0.6-6.5-0.3
			c-0.6,0.1-2.2-0.6-2.9-0.2c-0.2-0.1-0.1-0.1-0.3-0.3c0.3-0.7,1-1.5,0.9-2.4c0.2-0.1,0,0,0.3,0c0.3-0.9,0.7-1.5,0.1-2.2
			c0,0,0.2-0.4,0.1-0.6h-0.3c0,0,0-0.8-0.1-0.9c-0.1-0.3-0.8-1.7-0.9-1.8C364.5,225.8,367.5,226.3,367.9,226z M352.4,233
			c0.1-1,0.6-2.8-0.3-3.7c0.2-0.6,0.9-0.3,1.3-0.5v-0.2c0.2,0,0.3,0.1,0.5,0.1c0.3-0.2,0.9-0.6,1.3-0.7c0.2-0.1,1.1,0.2,1.4,0.1
			c0.1-0.1,0.1-0.2,0.2-0.3c0.5-0.2,1.2-0.1,1.5-0.2c0,0,0.2-0.3,0.2-0.3c0.1,0,1.4,0.1,1.7,0c0.1,0,0.2-0.2,0.2-0.3
			c0.3,0,0.7,0.1,1,0.1c0.3,0,1.1-0.4,1.3-0.2c0.8,0,0.7,0.8,1,1.4c0.3,0.5,1.2,2.1,0.9,3.1c-0.3,0.9-1.2,1.6-1.6,2.6
			c-0.2,0-0.3,0.1-0.5,0.1v0.3h-0.3c0,0.1-0.1,0.3-0.1,0.4c-0.8,0-1.6-0.1-2.4-0.1c0-0.5-0.2-0.8,0-1.4c-0.2-0.2-0.3-0.5-0.5-0.7
			c-0.6-0.6-1.2-0.9-2.1-1.2c-0.3-0.1-0.8-0.5-1.3-0.2c-1,0.1-1.3,1.1-1.9,1.5v0.3c-0.5,0.1-0.4,0.3-0.8,0.5v0.5
			c-0.4,0-0.7-0.1-1.1-0.1c0,0-0.1-0.1-0.1-0.1C351.8,233.3,351.9,232.9,352.4,233z M340.4,229.6c1-0.2,3-0.3,3.6-0.1
			c0.6,0.2,1.5-0.2,2.1-0.1c0.3,0.1,0.4-0.1,0.6-0.2c0.1,0,2.4,0,2.4,0c0.3,0,0.3,0,0.4-0.3c0.1,0.1,0.1,0.1,0.2,0.3
			c0.3-0.1,1.1-0.3,1.4,0c0.6,0.5,0.5,2,0.4,2.7c-0.6,0.5-1.1,1.3-1.5,2c-2.1,0-3.8-0.1-5.4-0.4c-0.7-0.2-1.8,0.2-2.4-0.2
			c-0.6,0-1.1,0-1.5-0.2c0.2-1,0.3-2.7-0.3-3.4L340.4,229.6L340.4,229.6z M344,234.8h0.4v0.1c-1,0.4-2.9,0.3-3.5,0.8
			c-0.1,0-0.3-0.1-0.4-0.1c-0.1-0.4-0.3-0.4-0.4-0.9C341.2,234.6,343.6,234.7,344,234.8z M340.5,236.9c0.3-0.1,0.3,0,0.3-0.3
			c0.5,0.1,0.6,0,1.1-0.1c0.4,0.5,1.1,1.1,1.8,1.3v0.3c0.9,0.2,1.4,1,2,1.5c0.3,0.2,1.4,0.7,1.6,0.9c0.4,0.5,0.6,1,1.1,1.4v0.2
			c-2.7-0.3-4.2,0.9-5.8,2.5v0.3c-1.4-0.1-3-2.1-4-2.8c-1.4-1-3.9-1.7-5.7-2.4c0.1-0.4,1.4-1.1,2-1.1v-0.3c0.2,0,0.6,0,0.6,0
			c0.3-0.2,0.5-0.5,0.8-0.3c0.2-0.1,0.1,0,0.2-0.3c0.3,0,0.6-0.1,0.8,0c0.3-0.1,0.2,0,0.2-0.3C338.1,237.6,340.1,236.6,340.5,236.9z
			 M333.3,229.4c0.2-0.1,0.3-0.1,0.4-0.3c0.1,0.1,0,0,0.1,0.2c1.1,0,2.2-0.2,3.1,0c0.6,0.1,1-0.2,1.4,0.1c0.6,0,0.9,0.1,1.2,0.3
			c-0.1,0.5,0,1.9,0.3,2.3c-0.1,0.6-0.6,0.9-1,1.2c-0.4,0.2-1.7-0.2-2.1-0.2c-1,0.1-3.1-0.4-4.1-0.3c0-0.1-0.1-0.1-0.1-0.2
			c-0.1-0.1,0.7-1.7,0.9-2.2C333.3,230,333.4,229.7,333.3,229.4z M332.7,234.7v-0.2c0.1,0.1,1.3,0.2,1.8,0.1c0.1,0,0.6-0.2,0.8-0.2
			c0,0.1,0.1,0.1,0.1,0.2c0.5,0.1,1.7-0.3,2.2-0.2c0.6,0.2,1.7,1.1,1.8,1.5c-0.2,0.2-1.6,0.4-2.2,0.6c-0.7,0.2-1.3,0.5-2,0.8
			c-0.3,0.1-0.6,0.1-0.9,0.2c-0.4,0.2-0.7,0.5-1.4,0.6c-0.2-1.7-2-2.1-3.6-2.7c-0.3-0.1-0.5-0.4-0.9-0.4c0.3-0.5,1.4-0.1,1.6-0.2
			c0-0.1,0.1-0.2,0.1-0.3c0.2-0.1,0.1,0.2,0.2,0.2c0.3,0.1,0.5-0.1,0.7-0.1c0.1,0.1,0.9,0.3,1.4,0.2
			C332.3,234.8,332.7,234.8,332.7,234.7z M330.4,233.7h0.3v0.2C330.5,233.8,330.6,233.9,330.4,233.7z M324.9,229.6
			c0.1-0.2,0.2-0.4-0.1-0.7c0-0.4,0-0.7,0.2-0.9c2.7,0.5,4.8,0.7,7.1,1.3c0.4,1.9-0.7,1.9-1.4,3.1c-2,0-4-0.5-6.4-0.5
			C324.5,231,325.5,230.5,324.9,229.6z M324.3,233.2c0.5-0.1,2.2,0,2.3-0.2c0.1,0.1,0.1,0.1,0.1,0.3c0.6-0.1,2,0,2.5,0.3h1.2
			c-0.2,0.3-1.5,0.3-2,0.2c-0.5-0.1-3.6,0.2-3.9,0.3v0.2c-0.5,0.2-1.1,0-1.4,0.2c-0.6-0.1-1-1-1.2-1.4c0.1-0.1,0.1-0.1,0.2-0.2
			c0.7,0,1.8,0.3,2.1,0.1C324.4,233.1,324.3,232.9,324.3,233.2z M321.3,227.3c-0.1-0.1-0.1,0-0.2-0.1
			C321.2,227.2,321.2,227.2,321.3,227.3z M317.4,226.7L317.4,226.7c0.2,0.3,0.2-0.1,0.3,0.3c0.2-0.1,0.1,0,0.1-0.2
			c1.4,0.4,2.9,0.4,4.4,0.9c0.6,0.2,1.3,0,1.6,0.4c0.3,0.5,0.1,1.7,0.3,2c-0.1,0.4-1.4,1.4-1.8,1.6c-0.5,0.3-1.1-0.1-1.6-0.1
			c-0.4,0-2.7,0.1-3.3-0.3h-0.2c0-0.8,0.3-1.3,0.4-2c-0.1-0.4-0.2-0.8-0.3-1.3c-0.1-0.3,0.1-0.7-0.2-1
			C317.2,226.8,317.2,226.8,317.4,226.7z M318.8,232.7c0.5,0.1,0.9-0.2,1.4,0.2c0.1,0.1,0.1,0.3,0.2,0.3c0.3,0.2,1.3,1.3,1.1,1.6
			c-0.3,0.5-0.9,0.2-1.4,0.3c-0.7,0.2-2.1,0.5-2.6,0.9c-1.3,0-0.8-0.4-1.2-1.2c-0.2-0.4-1.4-2.1-1.9-2.3c0.1-0.1,0.1-0.1,0.2-0.3
			c1.1,0,1.6,0,2.5,0.3C317.8,232.7,318.7,232.4,318.8,232.7z M316.7,230.1c-0.1-0.1-0.1,0-0.2-0.1C316.7,230,316.6,230,316.7,230.1
			z M310,226.2c0.3-0.1,0.3,0.2,0.3,0.2c0.3-0.1,0.5-0.1,0.8-0.2c0.4,0.1,1.1,0.3,1.4,0.3c0.3,0.1,0.7-0.2,0.8-0.2
			c0.8,0.2,1.8,0.3,2.6,0.6c0.2,0.5,0.6,2.4,0.3,3c-0.1,0.7-0.8,0.7-1,1.3c-0.4-0.1-1.3,0-1.8,0.1c-0.8,0.2-1.8-0.1-2.4-0.2
			c-0.4,0-0.7,0.1-1,0c-0.2-0.1-0.2-0.1-0.3-0.2c0.4-0.9,0.6-1.6,0.4-2.4v-0.9c-0.1-0.4-0.4-0.8-0.5-1.3
			C310.1,226.3,310,226.2,310,226.2z M310.1,232.2c0.4-0.1,0.3,0.1,0.4,0.2c0.1,0,1.4-0.1,2,0.2c0.8,0.4,1.4,1.3,1.9,2.1
			c0.2,0.1,0.4,0.3,0.6,0.4c0.3,0.4,0.3,1,0.8,1.3c0,0-0.1,0.1-0.1,0.1c-0.2,0.1-0.3,0-0.5-0.2c-0.8,0-0.5,0.4-0.9,0.6
			c-0.2,0.3-0.5,0.2-0.7,0.3c-1,0.5-2.4,0.9-3.4,1.3c-0.4,0.2-1.1,0.2-1.6,0.5c-0.2-0.1-0.3-0.1-0.4-0.3c-0.1-0.1-0.1-0.2-0.2-0.3
			c0.1-0.3,0.3-0.5,0.5-0.7c0-0.8-0.6-1-1-1.4c0.2-0.2-0.5-0.7-0.6-0.9c-0.5-0.8-1.7-2.1-2.5-2.4c0-0.3,0-0.3,0.2-0.4
			c0.2-0.1,0.2,0.2,0.6,0.1c0.4-0.1,1.9-0.4,1.9-0.4c0.2,0.1,0.1,0,0.1,0.3c0.4,0,1.4-0.4,1.9-0.1h0.2c0-0.1-0.1-0.2-0.1-0.3
			C309.5,232.3,309.7,232.3,310.1,232.2z M308.2,226.4c0.5,0.6,1.3,2,0.9,3c-0.3,0.7-0.6,0.8-0.6,1.9c-0.5,0-2.9,0.2-3.1,0
			c-0.2-0.1-0.2,0-0.3-0.3c-0.2-0.5,0.1-1.5-0.3-2.3c-0.2-0.4-0.5-1-0.7-1.5C305.4,226.7,307,226.6,308.2,226.4z M300.9,228
			c0.4,0,1.6-0.2,1.8-0.3c0.5,0.1,0.7,0.4,1,0.7c0.1,0.9,0.2,1.5,0.2,2.3c-0.1,0-0.1,0.1-0.3,0.1c0,0.2-0.1,0.2,0,0.4
			c-0.1,0.2-0.2,0.3-0.4,0.3c-0.4,0.2-1.2,0.1-1.8,0c0,0-0.1-0.1-0.1-0.1c0-0.3,0.4-0.7,0.3-1c-0.3-0.7-0.8-1.2-0.9-2
			C300.7,228.3,300.8,228.2,300.9,228z M297.4,229.9v-0.3c0.1-0.2,2-0.7,2-0.7c0.1,0.1,0.2,0.2,0.3,0.3c0.3,0.4,0.3,0.9,0.6,1.3
			c-0.1,0.7-0.6,0.6-0.6,1.5c-0.6,0-1.7,0.2-2,0h-0.2C297.2,231.1,297.7,230.6,297.4,229.9z M293.8,231.8c0.5-0.2,0.8-0.9,1.3-1.2
			c0.3-0.2,0.6-0.2,0.9-0.4c0.3,0.1,0.5,0.2,0.6,0.5c0.1,0.3-0.3,0.7-0.3,1.1h-0.3c0,0.2-0.1,0.1,0,0.3c-0.4,0.3-1.7,0.3-2.3,0.3
			C293.7,232,293.8,232.1,293.8,231.8z M293.8,234.1c0.1-0.3,0.2-0.1,0.4-0.3c0.5-0.3,1.5-0.7,2.1-0.6c0.2,0,0.3,0.2,0.7,0.1
			c0.3-0.1,1.3-0.4,1.8-0.3c0.3,0,0.7,0.2,1.2,0.1c0.4-0.1,1.5-0.4,2-0.2c1.9,0.8,4.2,2.8,4.8,4.9c0,0-0.1,0.4-0.3,0.6
			c0,0.5,0.1,0.6,0.4,0.8c-0.1,0.7-1,0.6-1.6,0.9c-0.7,0.2-2.6,0.9-3.1,1.4c-0.5-0.1-0.5-0.5-0.9-0.7c-0.3-0.2-0.8-0.2-1-0.4
			c-0.2-0.2-0.3-0.5-0.5-0.7c-0.5-0.3-0.9-0.4-1.4-0.8c-0.2-0.2-0.3-0.6-0.5-0.8c-0.9-0.9-3-2.7-4.5-2.8
			C293.5,234.8,293.6,234.4,293.8,234.1z M293.2,246.5c-0.4-0.2-0.6-0.5-1-0.7v-0.3h-0.3v-0.1c-0.1-0.1-0.1-0.1-0.1-0.3h-0.3V245
			c-0.4-0.3-0.9-1-1.2-1.4c-0.2-0.4-0.1-0.8-0.4-1c0.1-0.1,0.1-0.1,0.3-0.1c-0.9-2-0.7-6.4,1.7-6.7c0.6-0.3,1.9,1,2.4,1.2
			c0.6,0.3,1.5,0.6,1.8,0.9c0.1,0.1,0.1,0.3,0.3,0.4c0.2,0.2,0.6,0.3,0.8,0.5c0.4,0.5,0.7,1.2,1.2,1.5c0.3,0.2,0.7,0.2,0.9,0.4
			c0.1,0.1,0.1,0.3,0.3,0.4c0.3,0.3,0.8,0.6,1.2,0.8c-0.3,0.6-0.9,0.5-1.4,0.9c-1.4,0.8-3.1,1.5-4.3,2.5
			C294.3,245.8,293.4,245.6,293.2,246.5z M307.8,249.6c-0.4,0-0.6,0.2-1,0.3c-0.7,0.1-1.9-0.1-2.7,0.1c-0.2,0-0.7,0.2-1,0.1
			c-2.6-0.6-5.4-0.7-7.2-1.8c-0.6-0.4-1.5-0.5-1.9-1.1h-0.2c0.4-0.3,1-0.2,1.4-0.4c0,0,0.7-0.8,0.9-0.9c0.1-0.1,0.1-0.1,0.1-0.3h0.5
			v-0.3c0.3-0.1,0.1-0.2,0.3-0.3c0.1-0.1,2.2-0.8,2.5-0.8c0.6,0.1,1.1,0.5,1.5,0.6c0.5,0.2,1.1-0.1,1.3,0c0.3,0.1,0.4,0.3,0.9,0.3
			c0.2,0,0.7-0.1,1.1,0c1.4,0.4,2.5,1,3.6,1.4c0.4,0.2,1,0.1,1.2,0.2c0.1,0,0.2,0.2,0.3,0.3c0.1,0,0.2-0.1,0.3-0.1
			c0,0.1-0.1,0.1-0.1,0.2c0.2,0,0.4,0.1,0.6,0.1c0.1,0.1,0.1,0.3,0.3,0.4C310.2,248.6,308.1,248.4,307.8,249.6z M326.1,260.6
			c-1.7-0.1-3.3-1.2-4.8-1.9c-2.3-1-4.3-1.9-6.3-3.1c-0.6-0.3-1.2-0.4-1.8-0.8c-0.3-0.2-0.5-0.7-0.9-0.9c-1.4-1-2.6-2.4-4.1-3.3
			v-0.3c0.8,0,1-0.5,1.4-0.9c0.4,0.2,0.7-0.4,1-0.5c0.2,0,0.5-0.1,0.7-0.1c0.1-0.1,0.1-0.4,0.3-0.5c0.2-0.2,1-0.5,1.6-0.5v-0.3
			c0.6,0.3,1.5,0.2,2.5,0.4c1.6,0.4,3.3,0.8,4.8,1.4c0.5,0.2,2.1,0.6,2.3,0.5h0.2c0,0-0.1,0.1-0.1,0.1c0.3,0.5,1.8,0.6,2.4,0.9
			c0.1,0.1,0.2,0.2,0.3,0.3c0.7,0.5,1.5,0.6,2.2,1c0.2,0.1,0.5,0.5,0.7,0.6c0.1,0,0.3,0.1,0.4,0.1c0,0.1,0.1,0.2,0.1,0.3
			c0.3,0.2,0.9,0.4,1.1,0.7v0.3c0.2,0.2,0.3-0.1,0.5,0c0.4,0.2,0.8,0.6,1.1,0.9c-0.2,0.6-0.8,0.8-1.3,1.1c-0.2,0.1-0.2,0.4-0.3,0.5
			c-1,0.8-1.9,1.5-2.7,2.5C326.9,259.6,326.3,259.7,326.1,260.6z M345.2,259.7v0.3c-0.3,0.6-0.9,1.5-1.6,1.7l0.3,0.3
			c-0.1,0.3-0.1,0.6-0.2,0.9c-0.5,0.6-2,0.1-2.9,0.3c-1,0.2-3.1-0.2-4.2-0.5h-0.9c-1.5-0.4-2.5,0-4-0.4c-1.2-0.3-2.6-0.8-3.8-0.9
			c0,0-0.1-0.1-0.1-0.1c0-0.2,0-0.2,0.1-0.3h0.3c0-0.7,0.4-0.9,0.4-1.2c0.3-0.6,1.5-1.2,2.3-1.4c0.1,0,0.3,0.1,0.4,0.1
			c1.7-0.4,4.2-0.4,6.6,0.2c1.2,0.3,1.6-0.1,2.8,0.2c0.6,0,1.1-0.1,1.7-0.1c0.2,0.1,1.2,0.4,1.7,0.4c0.4,0,0.9-0.2,1.4,0.1h0.2
			C345.5,259.6,345.4,259.5,345.2,259.7z M351.2,263.1c-1.1,0.3-3.6-0.2-4.2,0.1c-0.4,0-1.2,0.1-1.5-0.1c-0.2-0.2-0.2-0.9,0-1.3
			c0.1-0.1,0.2-0.1,0.3-0.2c0.1-0.2,0.1-0.7,0.3-0.9c0,0,0.3-0.1,0.3-0.2c0-0.1-0.1-0.2-0.1-0.3c0.2-0.4,0.7-0.6,0.9-1.1
			c0.3,0.2,0.6,0.5,0.9,0.8c0.7,0.5,1.5,0.8,2.1,1.3c0.7,0.5,1.3,1.4,2.2,1.7C352.2,263.4,351.6,263,351.2,263.1z M362.8,262.3
			c-0.5,0.2-1.3,0.1-1.8,0.1c-0.8,0-2,0.5-2.9,0.7c-0.2,0-0.4-0.1-0.6-0.1c-0.3,0-1,0.1-1.3,0.2c-0.8,0.2-1.7-0.2-2.5,0V263
			c-0.1-0.2,0.2-0.4,0.3-0.7c0-0.1-0.1-0.2-0.2-0.4c-1.8,0-2.7-1.5-3.9-2.3c-0.3-0.2-0.7-0.2-1-0.4c-0.3-0.2-0.6-0.6-1-0.7
			c-0.1-0.8,1.2-3,2-3.3V255h0.3c0.1-0.4,0.3-0.4,0.3-0.9c1.4,0.1,2.6,1.3,3.5,1.9c0.8,0.5,1.6,1.1,2.4,1.5h0.3
			c0.6,0.4,1.1,1.1,1.7,1.5c0.6,0.5,1.2,0.7,1.9,1.2C360.9,260.7,361.8,262.1,362.8,262.3L362.8,262.3L362.8,262.3z M370,260.2
			c-0.8,0.5-1.8,0.4-2.7,0.9c-0.2,0.1-0.6,0.4-0.9,0.5c-1,0.3-1.8,0.1-2.5,0.6c-0.1-0.1-0.1,0-0.2-0.1c-0.1-0.1,0.2-0.3,0.3-0.5
			c0.1-0.2,0-0.2,0-0.4c-0.6-0.3-1.3-0.4-1.8-0.9c-0.2-0.2-0.3-0.5-0.5-0.7c-0.3-0.2-0.7-0.3-1-0.5c-0.7-0.5-1.4-1.2-2-1.7
			c-0.5-0.4-1.1-0.5-1.6-0.9c-1.7-1.3-3.6-2.4-5.4-3.6c0.1-1,0.9-1.5,1.5-2c0.3,0.4,0.4,1,0.9,1.3c0.6,0.4,2.8,0.8,3.1,0.7
			c0.1,0,0.1-0.3,0.2-0.3h0.6c0.3-0.1,0.7-0.5,0.9-0.7c0.2,0,0.3-0.1,0.5-0.1c0.5-0.3,0.9-1.1,0.7-1.8c1.6,0.2,3.1,1.1,4.2,2
			c0.5,0.3,0.9,0.9,1.4,1.3c0.5,0.4,1.2,0.6,1.6,1.1c1.1,1.4,1.5,2.5,3.3,3.2c0,0.7-0.2,1.4,0.1,2
			C370.3,259.8,370.2,260.1,370,260.2z M371.2,253c-0.1-0.3,0.1-0.8,0.1-0.9c0.1-0.7-0.1-1.6,0.1-2.3c0.1-0.5,0.4-1.1,0.4-1.7
			c0.3,0,0.3,0.1,0.4,0.2c0.5,0.1,1.4-0.3,1.6-0.3c0.4-0.2,0.9,0.1,1.1,0.2c0.3,0.1,0.5-0.1,0.7-0.1c0.3,0.1,0.9,0.1,1.4,0.3
			c0.3,0.1,0.8,0.3,1,0.4c0.3,0,0.6,0.1,0.9,0.1c0.6,0.3,1.1,0.9,1.8,1.1c-0.1,0.4-1.3,2.5-1.6,2.6c-0.4,0.2-1.5,0.1-2,0.3
			c-0.9,0.3-1.6,0.7-2.4,1.1c-0.9,0.4-1.8,0.5-2.5,1.2h-0.3C371.6,254.4,371.3,253.4,371.2,253z M376.8,257.9
			c-0.4,0.7-1,1.6-1.2,2.4c-0.8,0-2.7-0.2-3.1-0.6c-0.2-0.1-0.2-0.1-0.3-0.3c0-0.2-0.1-0.4-0.1-0.6c0.1-0.1,0.2,0.1,0.2-0.1
			c-0.2-0.5-0.6-1.8-0.2-2.3c0.1-0.3,1.8-1.1,2.3-1.2V255c0.5,0.1,1-0.4,1.6-0.5v-0.3c0.6,0,2.1-0.7,2.5-0.4h0.2
			c-0.1,0.8-0.7,1.4-1,2C377.2,256.5,377.1,257.2,376.8,257.9z M383.6,257c-0.1,0.2,0.2,0.7-0.3,1.1c-0.4,0.6-1.6,0.9-2.4,1.1
			c-0.3,0.1-0.6,0-0.8,0.1c-0.5,0-1.4,0.1-1.6-0.2c-0.1-0.1,0,0-0.1-0.2c0.3-0.3,1.7-2.6,1.8-3.1c0.6,0,0.9,0.4,1.4,0.4
			c0.7,0,1.7-0.2,2.6-0.3c0,0,0.1,0.1,0.1,0.1C384.2,256.5,383.7,256.7,383.6,257z M387.3,256.3c-0.2,0.1-0.2,0.4-0.3,0.5
			c-0.4,0.4-2.1,1.5-2.7,1.6c0.1-0.3,0.1-0.5,0.2-0.8c0.2,0,0.2,0,0.3-0.1c0.6-0.4,1.1-1.5,1.4-2.2c0.8,0,1.2,0.3,2.1,0.3
			C388,256.1,387.7,256.1,387.3,256.3z M389.4,254.4c-0.9,0-1.7,0.2-2,0.1c-0.2,0-0.4,0-0.5-0.1c0.1-0.9,0.8-1.3,1-2.1
			c0.8,0.1,2.3,0.2,3-0.3h0.3C390.9,253.1,389.7,253.5,389.4,254.4z M392.1,250.6c-0.7,0-2.2,0.3-2.6,0.6c-0.3,0-0.5,0-0.7-0.1
			c-0.2-0.5,1-2,1.1-2.7c0.6,0,2.3,0.3,2.9-0.1h0.7C393.1,249.2,392.5,249.9,392.1,250.6z M394.2,246.7c-0.4,0.1-2.2,0.9-2.9,0.6
			c-0.3,0-0.4,0-0.6-0.1c0.1-0.9,0.7-1.4,0.9-2.2c0.3,0.1,0.5,0,0.6,0.2c0.3,0,0.2,0,0.3-0.2c0.6,0.1,1.7,0.2,2.2-0.3
			c0.1,0.1,0.1,0,0.2,0.1C394.9,245,394.2,246.3,394.2,246.7z M395,243.7c-0.5-0.2-1.9,0.2-2.2,0.4c-0.3,0-0.4,0-0.6-0.1
			c0.1-1,0.8-2.1,1.3-3c0.3-0.6,0.3-1.1,0.6-1.6h0.2c0,0.9,0.5,3.7,0.8,4.1L395,243.7L395,243.7z M399.2,257.2
			c0-0.4,0.1-0.5,0.2-0.8c1.2,0.1,1.8,0.9,2.8,1.1c0.2,0,0.4-0.2,0.4-0.2c1,0.1,1.7,0.5,2.7,0.4c0.1,0,0.8,0,1-0.1
			c0.1,0,0.4-0.3,0.5-0.3c0.4-0.1,1,0.2,1.4,0.1c0.3-0.1,0.2-0.1,0.7-0.2c0,1.7-1.3,2.1-2,3.1c-1.5,0.1-2.7,0.5-4.1,0.4
			c-0.2,0-0.6,0.1-0.7,0.1c-0.4-0.1-0.6-0.5-0.9-0.7c-0.8-0.4-0.8-0.2-1.4-0.9C399.7,258.8,398.8,257.8,399.2,257.2z M399.3,276
			c0-1.2,0.7-1.6,1.2-2.3c1,0.1,1.8,0.6,2.7,0.7c1.3,0.2,2.7-0.4,4-0.3c0.1,0.5,0.5,1.1,0.3,1.7c-0.2,0.7-1,1.1-1.1,2
			c-1.7,0.2-5.1,0.6-6.4-0.3C399.6,277.2,399.6,276.5,399.3,276z M401.1,302.1c0.1-0.2,0.4-0.2,0.5-0.3c0.1-0.2,0-0.4,0.1-0.6
			c1,0.1,3.4,0.8,4.3,0.4c0.5,0,0.6,0.2,0.7,0.6c0.1,0.2,0.1,0.8,0.2,0.9c-0.3,0.6-0.9,0.6-1.1,1.5c-0.8,0.1-2.9,0.5-3.5,0.2
			c-0.8,0-1.1-0.7-1.3-1.3C400.9,303.3,400.8,302.5,401.1,302.1z M402.8,328h0.3C403,328.1,402.9,328.1,402.8,328z M403.9,321.6
			c-0.2,0.5,0.1,0.8-0.2,1.2c-0.1,0.1-0.4,0-0.5-0.2c-0.3-0.2-0.8-1.7-0.5-2.5c0.4,0,0.8,0.2,1.1,0c0.3,0,0.4,0,0.6,0.1
			C404.4,320.8,404.1,321.2,403.9,321.6z M405.3,316.6c0.1,0.3,0.2,0.4,0.2,0.8c-0.2,0.2-0.5,0.5-0.6,0.8c-0.1,0.1,0,0.3,0,0.6
			c-0.9,0.1-1.5,0.1-2.2-0.3c0-0.1-0.3-0.5-0.3-0.5c0-0.1,0.3-0.4,0.2-0.6c0-0.1-0.4-0.2-0.4-0.3c-0.1-0.4-0.1-0.8-0.2-1.2
			c1.1,0.1,1.5,0.2,2.5,0.1c0.4-0.1,0.6,0.1,0.9,0c0.2,0,0.2,0,0.3,0.1c0.1,0.1,0.1,0.1,0.1,0.3
			C405.4,316.4,405.5,316.4,405.3,316.6z M405.1,314c0.1,0.3,0,0.2,0.2,0.3c0,0.1-0.1,0.2-0.1,0.3h-2.3c-0.2-0.1-0.1-0.4-0.3-0.6
			c-0.5-0.7-0.8-0.6-0.8-2c0.2-0.2,0.3-0.5,0.4-0.8c0.6,0,3.5,0.2,4-0.2c0.3,0,0.2,0,0.4,0c0,0,0.1,0.1,0.1,0.1
			C406.9,312.8,406.3,313.3,405.1,314z M406.6,308.4c-0.4,0.5-1.1,0.7-1.4,1.4c-0.8,0-2.4,0.3-3-0.1c-0.2-0.3-0.1-0.8-0.2-1
			c-0.2-0.1-0.3-0.3-0.5-0.4c-0.3-0.4-0.3-1.5,0-2v-0.2c0.3,0,0.7,0.2,0.9,0.3c0.3,0.1,0.9-0.1,1.1-0.2c0.6-0.1,1.6,0.2,2,0.1
			c0.1-0.1,0.1-0.2,0.2-0.3c1.1,0,1.3,1,1.4,1.8C406.8,308,406.7,308.2,406.6,308.4z M407.2,298.2c-0.1,0.6-1,1.4-1.4,2
			c-1.2,0.1-2.8,0-4-0.4c-0.4-0.2-0.6-0.6-0.9-0.9c-0.2-1.9-0.3-1.5,0.7-2.8c1.3,0.4,3.2,0.4,4.8,0.3c0.3,0.3,0.6,0.4,0.8,0.9
			C407.3,297.5,407.3,298,407.2,298.2z M407.3,293.6c-0.5,0.4-0.9,0.6-1.1,1.3c-0.5,0-1.3,0.2-1.9,0.1c-0.6-0.1-1.4-0.2-2.1-0.3
			c-0.3-0.4-0.8-0.6-1.2-1c-0.7-0.8-0.4-2.2,0.2-2.8c0.8,0.1,2,0.3,2.6,0.4c0.8,0.1,2.3-0.1,3.2-0.2
			C407.5,291.6,407.3,292.9,407.3,293.6z M407.4,287.3c-0.1,0.1-0.1,0-0.3,0c0,0-0.1,0.1-0.1,0.1c0.1,0.2,0.2,0.4,0.3,0.6
			c0.1,0.7-0.5,1.1-0.6,1.8c0,0-0.1,0.1-0.1,0.1c-1.6,0-3-0.2-4.8-0.2c0-0.8-0.7-2-1.1-2.3c-0.1-1.5,0.4-1.3,1-2.2
			c1,0,2.2,0.1,3.2,0c0.4-0.1,1.2-0.2,1.3-0.1c0.7,0.1,0.7,0.6,1.2,0.9c0,0.2,0,0.2,0.1,0.3C407.5,286.5,407.6,287,407.4,287.3z
			 M406.4,282.8c0,0.2-0.1,0.5-0.1,0.7c-0.8,0.1-1.7,0.1-2.5,0.3c-0.8,0.2-1.3-0.1-2-0.1c-0.5-0.5-0.8-1.3-1.6-1.5
			c0-0.5-0.3-0.6-0.3-1c0.1-0.7,0.5-1.2,0.6-1.8c1.8,0,4.1,0.6,5.6-0.2c0.2,0,0.3,0.2,0.5,0.1c0.6,0.1,0.7,0.9,1.1,1.4
			C407.9,282,407.2,282.3,406.4,282.8z M405.9,272.7c-0.7,0-1.2,0.1-1.8,0.3c-0.6,0.1-3.1-0.5-3.5-0.8c-0.4-0.3-0.6-1.3-1-1.9
			c0-1.6,0.1-1.3,0.9-2c0.8,0,1.2,0.2,2,0.3c0.4,0.1,1-0.1,1.6,0c1.5,0.3,3,0.4,3.9,1C408.1,271.6,406.6,271.2,405.9,272.7z
			 M408.9,265.3c-0.2,0.3-0.5,0.3-0.7,0.5c-0.2,0.2-0.2,0.6-0.4,0.9c-0.2,0.4-0.6,0.5-0.8,0.9c-0.8,0-2.5-0.3-3.6-0.5
			c-0.5-0.1-1.1,0.1-1.4-0.2c-0.6-0.1-2.4-2-2.6-2.5c-0.1-0.3-0.2-1.1-0.1-1.3c0.1-0.4,0.3-0.3,0.5-0.5c1.4,0,2.5,0.6,3.7,0.8
			c0.7,0.1,1.9-0.2,2.8,0h1.4c0.1,0.2,0.3,0.3,0.4,0.5c0.2,0.1,0.5,0,0.6,0.1C408.9,264.3,409.1,265,408.9,265.3z M412.1,237.7
			c0.1,0.5,0,1.4-0.1,2c0,0.2,0.1,0.3,0.1,0.5c-0.1,0.1-0.4,0-0.3,0.5c0.2,0.9-0.1,2.8-0.3,3.7v0.6c-0.1,0.2-0.5,0.6-0.6,0.9
			c-0.1,0.3,0,0.6-0.2,0.9c-0.2,0.4-0.6,0.9-0.8,1.3c-0.3,0.7-0.5,1.3-0.9,1.9c-0.2,0.3-0.7,0.7-0.9,1c-0.2,0.3-0.2,0.5-0.4,0.7
			c-0.3,0.2-1.9,0.8-2.3,0.9c-1.7,0.4-4.3-0.6-5.4-1.4c-0.1-0.1-0.1-0.2-0.2-0.3c-0.6-0.7-1.5-1.3-1.9-2.2c-0.3-0.7-0.1-1.4-0.4-2
			c-0.2-0.3-0.5-0.8-0.7-1.1c0-0.3-0.1-0.7-0.1-1c-0.7-1.8-1.4-4-1.8-6.1c-0.1-0.5,0.3-0.9,0.3-1.4c0-0.2-0.3-0.3-0.3-0.6
			c0-0.2,0.3-0.6,0.3-0.8c0-0.2-0.3-0.3-0.3-0.5c0-0.1,0.2-0.3,0.2-0.3c0.1-0.5-0.1-1.4,0.1-1.6c0.1-0.1,0.4-0.3,0.4-0.5
			c0.2-0.7,0.1-1.7,0.4-2.1v-0.1c0.4,0.6,0.3,1.5,0.8,2c0.1,0,0.2,0.1,0.3,0.1c0.1,0.2,0.2,0.4,0.3,0.5h0.3c0.1,0.1,0.1,0.2,0.2,0.3
			c0.2,0.1,0.3-0.1,0.5,0c0.3,0.1,0.6,0.3,0.9,0.2c0.5,0,0.8,0.1,0.9-0.2c0.5,0,0.4,0,0.9-0.1v-0.3c0.1,0.1,0.1,0,0.2,0.1
			c0.8,0,1.7-0.9,1.8-1.7c0.2-0.1,0.3-0.1,0.4-0.2c0.6,0.7,1.4,1.7,2.7,1.7v0.3c0.8-0.1,1.7-0.4,2.3-0.9c0.3-0.2,0.3-0.5,0.9-0.6
			c0.1-0.9,0.7-0.9,0.9-1.9h0.2c0.7,1.3,1.3,3.1,1.7,4.7C412.4,235.4,411.9,236.8,412.1,237.7z M524.3,233.5v-0.3
			c0.3,0.1,0.4,0.2,0.8,0.3c0.1,0.4,0.2,0.6,0.4,1.1c-0.1,0.1-0.1,0.1-0.2,0.2c-0.8-0.1-1.1-0.5-1.9-0.6v-0.1
			c0.2-0.2,0.4-0.4,0.6-0.6H524.3z M520.8,231.8h0.3v-0.3c0.4,0.1,0.3-0.2,0.7-0.2c0.6,0,0.8,0.4,1.3,0.3c0.1,0.3,0.2,0.3,0.4,0.5
			c-0.1,0.1,0,0.2-0.2,0.4c-0.2,0.3-1.2,0.6-1.6,0.8c-0.5-0.5-1.2-0.4-1.6-0.8C520.1,232.5,520.6,232.2,520.8,231.8z M520.1,233.9
			c0.2-0.1,0.6-0.1,0.8,0.1c0,0,0.1,0.3,0.2,0.3c0.1,0,0.2-0.1,0.3-0.1c-0.1,0.1,0,0.2,0.1,0.3c0,0,1.1,0.1,1.3,0.2
			c0,0.1,0.1,0.2,0.1,0.3c0.1,0.1,1,0.5,1.1,0.5v0.3h0.3c0.1,0.3,0.2,0.4,0.1,0.7c-0.3,0.7-1.2,0.6-1.7,1v0.3
			c-0.1,0-0.3,0.1-0.4,0.1c-0.3,0.2-0.5,0.7-0.9,0.9c-0.6,0.4-1.3,0.8-1.8,1.4c-1.3-0.1-1.9-0.7-2.8-1c-0.4-0.2-0.8,0-1.3-0.3
			c-0.5-0.3-1.1-0.6-1.6-0.9c0.4-1.9,2.4-2.9,4-3.9c0.2-0.1,0.5-0.4,0.7-0.4h1.5C520.1,233.7,520.1,233.8,520.1,233.9z M516.9,230.2
			c0.3,0,1.2-0.1,1.4-0.3c0.5,0.3,1,0.3,1.4,0.7c0.1,0.1,0,0.2,0.1,0.3c-0.1,0.4-0.9,0.9-1.2,1.4c-0.7-0.1-1.7-0.3-2.6-0.4
			c-0.1-0.1-0.1-0.2-0.2-0.3C515.9,231.5,516.8,230.4,516.9,230.2z M511.5,230.5c0-0.7,0.6-1.5,1.1-1.7c0.2-0.1,0.7,0,0.9-0.1
			c0.4,0.1,0.3,0,0.3,0.3c0.3-0.1,0.2,0,0.2-0.3c0.2,0.1,0.1,0,0.2,0.3c0.6,0.1,1.1,0.4,1.4,0.3c0,0,0.1,0.1,0.1,0.1
			c0,0.7-0.7,1.5-1.2,2c-0.4,0.3-2.5-0.5-3-0.5C511.5,230.7,511.5,230.6,511.5,230.5z M511.3,231.8c0-0.1,0.1-0.2,0.1-0.3
			c0,0,0.7,0.3,0.9,0.2c0.1,0.1,0.1,0.1,0.1,0.3c0.6,0,1.3,0.4,1.7,0.1c0.1,0.1,0.1,0.1,0.1,0.3c0.5,0,1.4,0.7,1.9,0.4
			c0.3,0,0.1,0,0.3,0.2c0.1,0.1,0,0.1,0.2,0c0.2,0.1,0.1,0.2,0.3,0.3c-0.3,0.7-1.1,0.9-1.6,1.3v0.2c-0.1,0.1-0.2,0-0.3,0.1
			c-0.1,0.1-0.1,0.3-0.3,0.4c-0.5,0.5-1.4,0.8-1.8,1.4c-0.2,0.3-0.2,0.6-0.5,0.8c-0.1,0.1-1.4-0.3-1.7-0.4c-1.1-0.4-2.8-0.8-4-1.4
			c0.1-0.6,0.6-1.2,0.9-1.7c0-0.1-0.1-0.1-0.1-0.2c0.2-0.3,0.8-0.5,0.7-0.9c0.1-0.1,0.5-0.2,0.9-0.3c0-0.1-0.1-0.2-0.1-0.3
			c0.1,0,0.1,0.1,0.3,0.1V232c0.4,0,0.7-0.2,1-0.3C510.6,231.7,511.1,231.9,511.3,231.8z M510.3,239.1c-0.5-0.2-0.8,0.2-1.1,0.4
			c-0.3,0.2-0.6,0.1-0.9,0.3c-0.6,0.3-1.8,1.3-2,1.9c-0.1,0.1-0.1,0.1-0.1,0.3h-0.3v0.3c-0.3,0.1-2.4,2.4-2.5,2.6
			c-1.4-0.2-2.6-1.9-3.8-2.1c0.1-0.2,0-0.1,0.3-0.2c0-0.4,0.2-1.3,0.3-1.5c0.2-0.4,0.8-0.7,1.1-0.9c1.2-0.9,2.1-2.1,3.3-3
			c0.6-0.4,1.3-0.5,1.9-0.9c0.2,0.1,0.1,0,0.2,0.3c0.6,0.1,1.8,0.7,2.2,0.5h0.3c0,0.1-0.1,0.1-0.1,0.3c0.5,0,0.7,0,0.9,0.3
			c0.2-0.1,0.1,0,0.2-0.3h0.1c0.1,0.2,0,0.2,0.1,0.3v0.1c0.2-0.1,0.1,0,0.2-0.3c0.2,0.2,0.3,0.3,0.8,0.3c0.1,0.3,0.2,0.4,0.2,0.6
			c-0.1,0.3-0.5,0.5-0.9,0.5C510.2,238.9,510.2,239,510.3,239.1z M465.4,244.3c-0.2,0.5-0.9,0.7-1.3,1c-0.3,0.2-0.8,1.2-0.9,1.5
			c-0.9-0.3-1.7-1.2-2.5-1.8c-0.6-0.4-1.3-0.8-1.9-1.1c-0.5-0.3-1.3-0.4-1.4-0.9c1.4,0.2,2.5,0.3,3.7,0.5c1,0.2,1.9-0.1,2.6,0.3
			c0,0,0.3,0,0.2,0.1c0,0-0.1,0.1-0.1,0.1C464.7,244.1,464.9,244.3,465.4,244.3z M466.3,244.9c0.1,0,0.3,0.2,0.5,0.1
			c0.1,0,0.7-0.4,0.7-0.4c0.8,0,2.3,0.7,3.1,0.9c0.3,0,0.5-0.1,0.8-0.1c1,0.3,2.3,0.7,3.1,1.2c-0.3,0.5-1.1,1.1-1.6,1.4
			c0,0.2,0,0.2,0.1,0.3v0.1c0,0-0.1-0.1-0.1-0.1c-0.6,0.1-2,1.6-2.1,2.1c-0.1,0-0.3,0.1-0.4,0.1v0.3c-0.5,0.3-0.8,1.1-1.2,1.5
			c0,0-0.1,0.1-0.1,0.1c-0.3-0.4-0.8-0.6-1-0.9c-0.6-0.9-1.4-1.6-2.2-2.2c-0.5-0.4-0.7-1-1.4-1.2
			C464.5,246.4,465.3,245.4,466.3,244.9z M479,235.5c0.1,0,0.3-0.2,0.4-0.2c0.5-0.1,0.6,0.3,1,0c0.2,0.1,0.1,0.2,0.3,0.3l0.9,0.3
			v-0.2c0.2,0.1,0.1,0,0.2,0.3c0.2-0.1,0.3,0,0.5-0.1c0.2,0.1,0.1,0,0.2,0.3c0.2,0,0.5-0.1,0.7-0.1v0.3c0.7,0.1,0.6,0,1.1,0.4
			c0.2-0.2,0.4-0.2,0.8-0.1c0.3,0.1,0.6,0.4,0.9,0.3h0.1c0,0.1-0.1,0.1-0.1,0.2c0.2,0.1,0.5,0,0.7,0.1c0.3,0.1,0.4,0.5,0.6,0.7
			c-0.1,0.5-0.5,0.3-0.9,0.5c-0.4,0.3-0.9,0.6-1.3,0.9c-0.1-0.1-0.7,0-0.9,0.1c-0.2,0.2-0.4,0.4-0.6,0.6c-0.6,0.4-1.1,0.6-1.8,1
			c-0.5,0.3-0.9,1-1.3,1.4c-0.2,0.2-0.6,0.3-0.8,0.5v0.3c-0.1-0.3-0.8,0.4-0.9,0.5c-0.8,0.8-1.5,1.5-2.5,2.1
			c-0.3,0.1-3.1-0.8-3.7-1.1c-0.3-1.6-1.3-2.3-2.1-3.3h-0.1c0.3-0.9,2.2-2.5,3-2.9v-0.3c0.7-0.1,0.6-0.6,1.5-0.6
			c0.1-0.5,0.7-0.4,1.2-0.7c0.4-0.2,0.5-0.5,0.9-0.7c0.6-0.4,1.2-0.1,1.7-0.6C479.1,235.6,479,235.8,479,235.5z M471.1,251.9
			c0.1-0.2,0-0.4,0.2-0.6c0.1-0.1,0.3-0.1,0.3-0.2c0.5-0.8,1.5-2,2.2-2.6c0.2-0.1,0.3-0.1,0.5-0.2c0.2-0.1,0.2-0.4,0.3-0.5
			c0.4-0.4,0.9-0.7,1.3-1.1c0.6,0.2,2.4,0.8,2.6,0.7c0.1,0.1,0.1,0.1,0.1,0.3c1.3,0.1,1.6,0.6,2.9,0.8c0,0.2,0.1,0.4,0,0.6
			c0,0.1-0.9,1-0.9,1h-0.3c-0.1,0.1-0.1,0.3-0.2,0.3c-0.3,0.3-0.8,0.6-1.1,0.9c0,0.1-0.1,0.2-0.1,0.3c-0.1,0.1-0.2,0.1-0.3,0.2
			c-0.3,0.4-0.3,0.8-0.5,1.2c-0.3,0.4-0.8,0.8-0.9,1.4c-0.7,0.1-0.7,0.8-1,1.2c-0.5,0.6-1.4,1.6-1.8,2.6h-0.2
			c-0.7-1-1.7-1.7-2.4-2.5c-0.5-0.7-0.8-1.8-1.5-2.2C470.3,252.8,470.8,252.4,471.1,251.9z M481,247.1c-0.2,0-0.4,0.2-0.7,0.1
			c-0.7-0.2-1.2-0.5-2-0.6c0.1-0.9,1-1.4,1.5-2c0.5-0.5,0.8-1.1,1.4-1.5c0.1-0.1,0.4-0.2,0.5-0.3c0-0.1-0.1-0.2-0.1-0.3
			c0.1,0,0.1,0.1,0.2,0.1c0.3-0.1,1.4-1.2,1.5-1.4h0.3c0.1-0.5,0.7-0.5,1.2-0.8c0-0.1,0.1-0.2,0.1-0.3c0.4-0.3,1-0.3,1.5-0.5
			c1-0.5,1.8-1.2,3-1.2c0,0.3,0.1,0.2,0.2,0.4c0.2-0.1,0.1-0.1,0.4-0.2c0,0.2,0,0.2,0.1,0.3c0,0,1.8,0.8,2,0.9
			c0,0.7,0.1,0.7,0.3,1.3c0.6,0,0.9-0.1,1.2-0.4c0.2,0.1,0.1,0,0.1,0.2c0.3,0.2,0.7,0,1.1,0.3c0.2,0.2,0.2,0.5,0.4,0.7
			c-0.3,0.7-1.5,0.6-2.2,0.9c-0.7,0.4-1.4,1.2-2.2,1.4v0.3c-0.4,0.1-0.9,0.4-1.1,0.7c0,0.1-0.1,0.2-0.1,0.3l-0.7,0.2
			c-0.2,0.2-0.4,0.5-0.6,0.7c-0.8,0.5-1.3,0.6-2,1.2c-0.1,0.1-0.2,0.4-0.3,0.5c-0.2,0.2-0.7,0.3-1,0.5
			C483.5,248.3,482.3,247.4,481,247.1z M500.4,231.3c-0.4,0.5-1,1-1.4,1.5c-0.2,0.2-0.1,0.6-0.3,0.9c-0.2,0.1-0.5-0.1-0.9-0.1
			c-0.5,0.1-3.9-0.4-4.3-0.8c-0.1-0.2,0-0.8,0-1c0.4-0.4,0.7-0.9,1.4-1.1c0.7-0.4,2.7,0.1,3.7,0.2v-0.3c0.1,0.1,0,0,0.1,0.2
			c0.3-0.1,0.2,0,0.3-0.3c0.3,0.1,0.7,0.4,1,0.2c0.3,0.1,0.1,0,0.3,0.2C500.4,230.9,500.2,231,500.4,231.3z M499.4,234.7
			c0.5-0.1,0.8,0.3,1.3,0.4l0.8-0.1c0.4,0.1,0.8,0.4,1.1,0.5c0.1,0,0.7-0.1,0.9,0c0.3,0.1,0.2,0.3,0.6,0.4c0,0.2,0,0.2,0.1,0.3
			c-0.2,0.2-0.8,0.7-1,0.8v0.3c-0.8,0.1-0.9,0.7-1.4,1c-0.8,0.5-3.5,2.7-3.7,3.6c-0.5-0.2-0.9-0.5-1.3-0.8c-0.3-0.1-0.7-0.2-1-0.3
			c-0.2-0.2-0.3-0.4-0.5-0.6c-0.4-0.2-0.6-0.1-0.9-0.4c-0.3-0.4,0.3-1.1,0.5-1.6c0.5-1.4,0.9-1.7,2-2.4c0.3-0.2,0.5-0.5,0.9-0.6
			C497.8,234.1,498.7,234.8,499.4,234.7z M494.7,234h0.3c-0.1-0.2,0-0.1-0.2-0.2c0.1-0.1,0.1-0.1,0.3-0.1v0.3h0.3v-0.3h0.1
			c0,0.1,0.1,0.1,0.1,0.3c0.2,0,0.2,0,0.3-0.1c0.4,0.1,0.5,0.2,0.7,0.4c0,0,0.1,0.1,0.1,0.1h-0.1c-0.2,0.4-0.6,0.5-0.8,0.9h-0.3v0.3
			c-0.4,0.2-0.8,0.5-0.7,0.9h-0.3c-0.3,0.2-0.5,0.8-0.7,1c0,0.1,0.1,0.2,0.1,0.3c-0.2,0.2-0.7,0.7-0.9,1.2c-0.9-0.1-3.2-1.3-3.9-1.8
			c0-1.2,0.6-1.7,1.2-2.5c0.1-0.2,0.1-0.3,0.2-0.5c0.3-0.3,0.9-0.3,1.1-0.7C492.1,233.7,494.5,233.7,494.7,234z M486.4,249.3
			c0.8-0.2,1.3-1.5,2-2c0.5-0.3,0.9-0.3,1.4-0.7v-0.2c0.4-0.4,0.9-0.6,1.4-0.9c0.2-0.1,0.2-0.4,0.3-0.5c0.3-0.3,0.8-0.3,1.1-0.6
			c0.1-0.1,0.1-0.3,0.2-0.3h0.3c0.1-0.1,0.1-0.3,0.2-0.3c0,0,0.2,0.2,0.3,0.1c0.1-0.1,0.1-0.3,0.2-0.3c0.1,0,0.2,0.1,0.3,0.1
			c0.2-0.1,0.5-0.3,0.7-0.4h0.5c0.8-0.3,1.6-0.5,2.5-0.1c0.4,0.2,1.2,0.4,1.1,0.8c0.2,0.1,0.4-0.1,0.5-0.1c0.4,0.1,1.6,1.1,1.6,1.2
			c0.3,0,0.6,0.1,0.7,0c0.1,0.1,0.1,0.4,0.2,0.4c0.2,0.2,0.7,0.2,0.9,0.4v0.3c0.1,0.1,0.7,0.4,0.9,0.5c0.1,0.1,0.1,0.4,0.3,0.4
			c0.2,0.1,0.3-0.1,0.4-0.1c0.2,0.4,0.3,0.5,0.3,1.1c-0.7,0.1-1,0.4-1.4,0.5c-1.1,0.3-2.7,0.6-3.8,1.1c-0.2,0.1-0.4,0.4-0.6,0.5
			c-0.8,0.5-1.7,0.8-2.5,1.3c-0.2,0.2-0.4,0.4-0.6,0.6c-0.8,0.4-2.1,0.7-2.4,1.5c-0.6-0.2-1.2-0.3-1.6-0.7c-0.2-0.2-0.3-0.5-0.5-0.7
			c-0.2-0.1-0.4,0-0.6-0.2c-0.2-0.1-0.4-0.6-0.5-0.7c-0.6-0.4-1.7-0.6-2.3-1C487.4,249.9,487,249.5,486.4,249.3L486.4,249.3z
			 M506.8,229.8l1.3-1.3c0.6-0.4,1.3-0.1,2,0c0.2,0,0.3-0.1,0.5-0.1c0.2,0.1,0.4,0.4,0.6,0.5c-0.4,0.6-0.8,1.2-1.2,1.7
			c-1.1,0-2.2-0.2-3.1-0.3L506.8,229.8L506.8,229.8z M502.9,228.3c0.4-0.1,0.7-0.2,0.9-0.4c0.3,0.1,2.2,0.5,2.4,0.2
			c0.2,0.1,0.1,0.2,0.3,0.4c-0.2,0.6-0.9,1.1-1.2,1.6c-0.8,0.1-2.3-0.4-2.9-0.2c-0.2-0.1-0.2-0.1-0.3-0.3
			C502.3,229.4,502.8,228.6,502.9,228.3z M503.5,230.7c0.1,0.1,0.1,0.3,0.3,0.2l0.4-0.3c0.1,0.1,0.4,0.4,0.5,0.4
			c0.2,0,0.2-0.3,0.5-0.2c0.5,0.2,1.7,0.4,2.5,0.5c0.1,0.2,0.1,0.3,0.2,0.5c-0.2,0.1-0.2,0.1-0.3,0.3h-0.3v0.3
			c-0.3,0.2-0.9,0.7-1.1,1c-0.1,0.2,0,0.5-0.2,0.7c-0.4,0.4-0.7,0.4-0.9,0.9c-0.9,0.1-3.2-0.5-3.9-0.8c-0.5-0.2-1-0.1-1.4-0.3
			c-0.4-0.7,0.7-1.7,1.3-2.1c0.2-0.1,0.4-0.6,0.5-0.7C501.9,231.1,503.5,230.7,503.5,230.7z M498.5,227.8c0.9-0.1,1.6-0.1,2.4-0.1
			v-0.2c0.1,0.1,0,0,0.1,0.2c0.4,0,0.5,0.1,0.7-0.1h0.1c0,0.9-0.4,0.8-0.7,1.3c-0.2,0.3-0.1,0.6-0.3,0.9c-0.2,0.1-2.6,0.1-2.9-0.1
			c-0.3,0-0.3,0-0.4-0.2C497.1,229,498.4,228.3,498.5,227.8z M494,227.5c0.8,0,1,0,1.4,0.2c0.1,0,0.6-0.3,0.9-0.2
			c0.2,0.1,0,0.2,0.3,0.3v0.3c-0.4,0.3-0.9,0.9-0.9,1.5c-0.6-0.2-2.5,0.1-3.1-0.3C492.3,228.5,493.8,228,494,227.5z M488.5,227.4
			c0.2,0,0.5,0,0.6-0.1c1.3,0.2,1.9,0,3,0.5c-0.3,0.5-0.7,1-0.9,1.6c-0.4,0-0.9,0.1-0.9,0.1h-2.1c-0.4-0.2-0.4-0.8-0.6-0.9
			C487.8,228.1,488.2,227.8,488.5,227.4z M487.2,231.5c0.2-0.2,0.7-0.6,0.8-0.9c0.9-0.1,1.8-0.1,2.9-0.2c0.2,0,0.4-0.1,0.6-0.1
			c0.5,0.1,0.9,0.3,1.4,0.4c-0.1,0.6-0.7,1.3-0.9,1.9c-1.4,0-3.3-0.4-4.8-0.5C487.2,231.7,487.3,231.8,487.2,231.5z M481.5,227.9
			c0.2-0.8,0.5-0.2,0.9-0.4c0-0.1,0.1-0.2,0.1-0.3c0.6,0.4,3.4-0.5,4,0.1c0.4,0.2,0.1,0.5,0.4,0.8c-0.1,0.2,0,0.1-0.3,0.1
			c-0.1,0.5-0.2,0.8-0.2,1.4c-0.8,0-2.4,0-2.8,0.2c-0.7,0-1.7,0.1-2-0.3C481.5,229.4,481.3,228.3,481.5,227.9z M481.8,231
			c0.3-0.1,0.7-0.4,0.9-0.5c0.3-0.1,0.9,0.3,1.1,0.3c0.1,0,0.5-0.2,0.6-0.3c0.3-0.1,0.4,0.2,0.6,0.2c0,0,0.5-0.4,0.8-0.3
			c0.2,0.1,0.2,0.2,0.6,0.3c0,0.6-0.3,0.9-0.5,1.4c-2.1,0-4.6-0.3-6.3-0.2c-0.2,0-0.2-0.1-0.3-0.2c-0.3-0.1-0.6,0.1-0.8,0.1
			c-0.6,0.1-1.1-0.3-1.6,0h-1.3c0.4-0.6,2.2-0.2,2.7-0.5c0.2-0.1,0.5-0.3,0.9-0.3c0.2,0,0.4,0.1,0.6,0.1c0,0,0.2-0.3,0.4-0.3v0.2
			c0.3,0,0.6-0.1,0.9-0.1C481.3,230.9,481.5,231.1,481.8,231z M473.7,228.4c0.1-0.3,0.2-0.3,0.4-0.5c0.9,0,1.8-0.2,2.6-0.4
			c0.5-0.2,1,0.2,1.4-0.1c0.2-0.1,0.2-0.1,0.3-0.3h0.4c-0.1,0.1,0,0-0.2,0.1v0.2c0.8-0.2,1.2,0,1.9,0.4c-0.2,0.3-0.2,1.1-0.3,1.3
			c0,0.5,0,0.7-0.3,0.9c-0.1,0.1-0.7,0-1,0.1c0,0-1,0-1,0c-0.9,0.5-4,0.6-4.3-0.6C473.6,229.2,473.6,228.5,473.7,228.4z
			 M474.3,231.8c-0.1-0.1-0.1,0-0.2-0.1C474.3,231.8,474.2,231.8,474.3,231.8z M473,232.8c1.1,0,1.7,0,2.5-0.2
			c0.4-0.1,1.4,0.1,1.4,0.1c0-0.1,0.1-0.2,0.1-0.3c0.3-0.1,0.1,0.2,0.3,0.2c0-0.1,0.1-0.1,0.1-0.2c0.3-0.1,1.1,0.2,1.3,0.2
			c0.2,0,0.7-0.3,1.1-0.2c0.1,0,0.1,0.2,0.3,0.2c0.3,0,1.2-0.3,1.5-0.2c0.7,0.2,1.2,0.3,2,0.1v0.2c0.2,0,0.3-0.1,0.5-0.1
			c0.2,0,0.4,0.3,0.6,0.3c0.1-0.1,0.1-0.1,0.2-0.2c0.1,0.1,0.4,0.2,0.5,0.3c0.2,0,0.2-0.1,0.3-0.2c0.7-0.2,0.7,0.5,1.2,0
			c0.1,0.1,0.2,0.2,0.3,0.3c0.1,0,0.2-0.1,0.3,0v0.1c0.3,0.1,0.7-0.2,0.8-0.1c0.1,0,0.2,0.1,0.3,0.1v0.1c0.3,0.1,0.5-0.2,0.9,0
			c0.2,0.1,0.1,0,0.2,0.2c0.1,0.6-1.8,2.1-1.9,3.2c-1,0-3.3-1-4.5-1.4c-0.4-0.1-0.9-0.1-1.3-0.2c-1.6-0.5-3.7-1-5-1.4
			c-0.4,0-0.7-0.1-1.1-0.1c-0.8-0.2-1.8-0.3-2.6-0.6C473.1,232.9,473.1,232.9,473,232.8L473,232.8L473,232.8z M472.9,233.7
			c0.2,0.1,0.1,0,0.2,0.3c0.3,0,0.3,0,0.4,0.2c0.2-0.1,0,0,0.2-0.2c0,0,2.2,0.3,2.4,0.3c-0.1,0.1,0,0-0.2,0.1v0.3
			c0.1,0,0.1-0.1,0.2-0.1c0.7,0.1,0.9,0.4,1.6,0.4c0.1,0.1,0,0.1,0.1,0.2c-0.2,0.4-2,0.9-2.5,1.2c-1.6,0.8-3.2,1.9-4.3,3.2
			c-0.4,0.4-0.9,0.5-1.1,1.1c-1.3-0.2-3.6-0.5-4.8,0.2c-0.1,0-1.4,1.2-1.4,1.3c-0.2,0.3,0,0.4-0.3,0.6c-0.4,0.2-1.3-0.2-1.8-0.1
			c-1.1,0.2-3.1-0.6-4.4-0.7c0.9-2.1,3.5-4.7,5-5.9c0.1-0.1,0.1-0.1,0.1-0.3c0.7-0.2,1.2-0.8,1.7-1.2c1-0.7,2.3-1.1,3.5-1.5h1.8
			c0.1,0,0.5,0.4,0.7,0.4c0.3,0.1,0.9,0,1.2-0.1c0.4,0.2,0.8,0.4,1.3,0.3c0.3,0.1,0.1,0.3,0.6,0.3L472.9,233.7L472.9,233.7z
			 M466.2,229.1c0.1-1.1,3-1.1,3.1-1h0.3c-0.1-0.2-0.1-0.1-0.2-0.3c0.3,0.1,0.9,0,1.1,0c0.1,0.1,0,0.2,0.3,0.2c0.4-0.1,1-0.2,1.4,0
			c0.3,0,0.3,0.1,0.5,0.2c0,0.7-0.3,1.7,0,2.1c0,0.2,0,0.2-0.1,0.3c-2.1-0.1-4.7,1-6.5-0.1C466.1,230,466.1,229.3,466.2,229.1z
			 M465.1,233c-0.4,0.1-1,0.3-1.4,0.5c-0.1,0.1-0.1,0.3-0.2,0.3c-0.2,0.1-0.3-0.1-0.3-0.1c0,0.1-0.1,0.2-0.1,0.3h-0.3
			c-0.1,0.1-0.2,0.2-0.3,0.3c-1,0.7-1.9,1.5-2.9,2.2c-0.2,0.2-1.6,1.6-1.8,1.9c0,0.1,0.1,0.2,0.1,0.3c-0.8,0.8-2,1.8-2.5,2.9
			c-1.1,0-2.5-0.2-3.5-0.5c-0.2,0-0.7-0.3-0.9-0.3c-0.6,0-1.5-0.2-2.2-0.3c-0.5,0-0.9-0.1-1.4-0.1c-0.5-0.1-0.9-0.3-1.5-0.3
			c0,0-0.1-0.1-0.1-0.1c0.1-0.6,0.6-1,0.9-1.4c1.1-2.1,2-3.5,4.2-4.4c0.2,0,0.4,0.1,0.6,0.1c0.2,0,0.4-0.3,0.8-0.2
			c0.4,0.1,1-0.1,1.6-0.1v-0.3c0.3,0,0.2,0,0.4-0.2c0.1,0.2,0,0.2,0,0.4c0.8-0.1,1.4-0.3,2-0.5c0.4-0.2,0.6,0.2,1,0
			c0,0,0.1-0.3,0.3-0.3c0,0,0.6,0.2,0.7,0.2c1.6-0.4,2.9-0.1,4.3-0.9c0,0.1,0.1,0.2,0.1,0.3c0.3-0.1,0.8-0.2,0.9-0.3
			c0.2,0.2,1,0.2,1.4,0.3C465.2,232.7,465.2,232.8,465.1,233z M441.3,250.5c-0.1,0.2,0,0.5,0.1,0.9c0.1,0.1,0.3,0.3,0.3,0.4
			c0.2,0.5-0.1,0.7,0.2,1.1v0.8h-0.1c-0.1-0.1-0.1-0.2-0.2-0.3c-0.4,0-0.5,0.2-0.5,0.6c-0.7,0.1-1.9-0.5-2.9-0.3
			c-0.7,0.1-1.3,0.5-1.9,0.7c-0.6,0.2-1.5,0.3-2,0.4c-0.7,0.2-1.8-0.1-2.1,0.3c-0.5-0.2-0.6-0.9-0.9-1.4c-0.5-0.7-1.3-2-1.9-2.5
			c0.1-0.5,1.4-1,1.9-1.2c0.5-0.2,1-0.7,1.5-0.9c0.2-0.1,0.5,0,0.7-0.2c0.1,0,0-0.3,0.1-0.3c0.1,0,0.3,0.1,0.4,0.1
			c0.4-0.1,1.5-0.4,1.9-0.6c0.2-0.1,0.1,0,0.2-0.2c0.9,0,1.4,0.3,2.2,0.3c0.4,0,1.2-0.2,1.9-0.3c0.3,0.3,0.6,0.9,0.8,1.4v0.9
			C440.9,250.1,441.2,250.4,441.3,250.5z M437.1,238.2c0,0.3,0,0.6-0.1,0.9c-1.5-0.2-3.1-0.2-4.5-0.5c-0.7-0.2-1.4,0-1.9-0.1
			c-1-0.2-2-0.5-3.2-0.6c0.3-0.8,1.9-2.2,2-2.5c0.6,0.2,2.8,0.2,3.3,0.1c0.6-0.1,1.2,0.1,1.4-0.2c0.2,0.1,1.1,0.3,1.4,0.1
			c0.2-0.1,0.1,0,0.2-0.2c1.2,0.1,1.5,0,3.1,0c0.1,0.1,0.2,0.2,0.3,0.3c-0.2,0.6-1,0.6-1.4,1.1c-0.2,0.3-0.5,0.7-0.7,1.1
			C437.1,237.8,437.2,238.1,437.1,238.2z M433.9,239.8v0.3c-0.4,0.1-0.8-0.1-1,0c-0.6,0.2-1.2,0.5-1.8,0.7h-0.9
			c-1.5,0.5-2.7,1-4,1.8c-0.2,0.2-0.4,0.4-0.6,0.6c-0.4,0.3-0.9,0.4-1.3,0.7c-0.5-0.3-0.9-1.1-1.2-1.6c-0.8-1.1-1.8-2.1-2.6-3.2
			c-0.2-0.2-0.4-0.2-0.5-0.6c-0.1-0.1-0.1-0.1-0.1-0.3c-0.2,0-0.2,0-0.3-0.1h-0.1v-0.2c1.8,0,3.9,0.4,4.8,0.7
			c0.2,0.1,0.4-0.1,0.5-0.1c0.4,0.1,1,0.3,1.2,0.3c0.3,0.1,2.5,0.3,2.5,0.3c0.2,0,0.2-0.3,0.4-0.2c0.6,0.2,1.4,0.2,2.2,0.4
			c0.2,0.1,0.5,0.4,0.8,0.3c0.2-0.1,0.4-0.1,0.6-0.2C433.1,239.7,433.4,239.8,433.9,239.8z M427.2,236.2c-0.5,0.3-0.9,1-1.2,1.5
			c-2.1,0-4.1-0.5-5.9-0.9c-0.8-0.2-1.7-0.1-2.3-0.5c-0.5-0.5-1-1.1-1.5-1.6v-0.1c0.4-0.1,0.8,0,0.9-0.2c0.1,0,0.2,0.1,0.3,0.1
			c0.2,0.1,0.8-0.1,0.8-0.1c0.1,0.1,0.2,0.2,0.3,0.3c0.4,0.1,0.9,0.1,1.4,0.2c0.2,0,0.5-0.1,0.6-0.1c2.2,0.7,5,0.7,7.3,0.9
			c0,0,0.1,0.1,0.1,0.1C427.8,236,427.5,236,427.2,236.2z M417.5,240.3c0.8,0.5,1.9,1.5,2.4,2.4h0.3v0.3c0.6,0.5,0.9,1.3,1.5,1.8
			v0.1c-0.5,0-1.1,0-1.4,0.2c-0.6-0.1-0.5-0.6-0.8-1c-0.4-0.5-0.9-1.2-1.2-1.8c-0.3-0.6-0.3-1.2-0.8-1.6L417.5,240.3L417.5,240.3z
			 M422.1,245.5v-0.4h0.3v0.3c0.8,0.3,1.1,1.2,1.6,1.7c-0.1,0.2-0.2,0.2-0.3,0.2c-0.3,0.2-0.3,0.6-0.6,0.8c-0.4,0.3-1,0.3-1.4,0.6
			c-0.5-0.1-1.1-1.7-1.2-2.3C420.9,245.9,421.4,245.7,422.1,245.5z M424.3,248.2c0.7,0,1,0.6,1.1,1.2c0.3,0.1,0.4,0.8,0.7,1.1
			c-0.1,0.6-2.1,1.9-2.8,1.4c-0.7-0.3-0.7-1.4-1.3-1.9C422,249.1,423.8,249.1,424.3,248.2z M426.6,251.6c0.6,0.1,1.5,1.6,1.6,2.1
			h0.3c0,0.5,0.2,0.7,0.3,1.1c-0.9,0.7-1.9,0.7-3.5,0.7c-0.3-0.6-1.2-1.7-1.4-2.4C424.7,253,426.3,252.2,426.6,251.6z M427.7,248.4
			c-0.7-1.1-1.8-2.6-2.6-3.5c0-0.2,0-0.2,0.1-0.3c0.2-0.4,0.8-0.6,1.1-0.9c1.1-0.8,2.3-1.6,3.8-1.7c0.1-0.2,0,0,0-0.3
			c0.9,0,1.7-0.2,2.5-0.5c1.1-0.4,2,0.5,2.7-0.1c0.9,0.1,0.8,1.2,1.5,1.4v0.3c0.6,0.2,0.5,0.7,1.1,0.9c-0.1,0.1,0,0-0.2,0.1v0.2h0.3
			c0.2,1,1.1,1.5,1.2,2.5c-3.6-0.4-6.1,0.9-8.7,2.4c-0.6,0.3-1.3,0.5-1.8,0.9C428.2,249.7,428.1,248.9,427.7,248.4z M438.9,242.9
			c-0.6-0.5-1-0.9-1.4-1.5c-0.3-0.4-0.8-0.6-1-1h-0.1c0.1-0.2,0.1-0.2,0.3-0.3c2.7,0.3,5.2,0.3,7.3,0.9c0,0.1-0.1,0.2-0.1,0.3
			c-1.6,0.4-3.6,1.5-4.4,2.6C439.1,243.6,438.7,243.2,438.9,242.9z M442.8,239.7c-1.2-0.4-3.5-0.4-4.6-0.5c0.1-0.4,0-1.1,0.3-1.5
			c0.6-1,2-1.6,2.9-2.1v-0.3c1.7-0.2,3.8-0.4,4.9-0.8c0.5-0.2,1.4,0.2,1.9-0.1c0.1,0.1,0,0,0.1,0.2c0,0.2-1.1,1.2-1.4,1.5
			c-0.2,0.3-0.2,0.6-0.4,0.9c-0.2,0.3-0.6,0.6-0.8,0.9c-0.4,0.6-0.6,1.2-1.1,1.8C444.3,239.8,443.3,239.8,442.8,239.7z M457.1,228.5
			c0.2-0.3,0.6-0.1,0.9-0.3h0.1c0,0.1-0.1,0.1-0.1,0.2c0.7-0.1,1.6,0.1,2.2,0.2c0.3-0.1,0.5-0.1,0.8-0.2c0.4,0.2,1.4,0,1.8,0
			c0.1,0.1,1.7,0,2.3,0c0.1,1.2,0,1.9,0,3.1c-1.1,0-2.7,0.1-3.9,0.4c-0.4,0.1-1,0.4-1.6,0.2c-0.2-0.2-0.3-0.4-0.5-0.6
			c-0.4-0.1-0.9-0.1-1.3-0.2C457.2,231,456.7,229.1,457.1,228.5z M448.7,227.3c1.2,0.1,2.5,0.5,4.2,0.9c0.2,0,0.3-0.1,0.5-0.1
			c0.8,0,2.1-0.1,2.5,0.3h0.2c-0.3,1.9,0,2.9,1,4v0.2c-2,0.4-5.1,0.6-7.5,0.8c-0.3-0.5-0.6-0.9-0.8-1.5c-0.4,0-0.3-0.1-0.7-0.2
			C447.9,229.5,447.7,228.7,448.7,227.3z M437.1,229.6c0-1,0.3-2.3,0.3-3.6c0.1-0.2,0.3-0.3,0.4-0.5c0.7,0,1.2,0.1,1.7,0.3
			c0.6,0,1.2,0.1,1.8,0.1c1.2,0.3,2,0.3,3.1,0.8c0.8,0.4,2.5-0.1,2.8,0.7c0.2,0.2-0.6,1.2-0.4,1.7c0.2,0.6-0.3,2.1,0,2.7
			c0.1,0,0.2,0.1,0.3,0.1c0.4,0.5,0.7,1,1.1,1.5c-0.4,0.1-2,0.1-2.3,0.3c-0.5-0.2-0.3-0.8-0.6-1.2c-0.2-0.3-1.3-1.1-1.6-1.4
			c-1-0.6-3.7,0-4.6,0.3c-0.3,0.1-0.5,0.5-0.9,0.6c-0.1,0.1,0,0-0.2,0.1c-0.2-0.5-0.8-0.9-0.9-1.4L437.1,229.6L437.1,229.6z
			 M426.6,229.3c0.1-0.4,0.7-1.5,0.9-2.1c0.7-0.1,1.6-0.5,2.1-0.7c0.1-0.1,0.1,0.2,0.3,0.2c0.1-0.1,0.2-0.2,0.3-0.3
			c0.6-0.2,1,0.1,1.4-0.3h1.3c-0.1-0.2,0-0.1-0.3-0.2v-0.1c0.3,0.1,0.3,0.2,0.5,0.3c0.3-0.4,2-0.5,2.5-0.4v-0.3
			c0.3,0.1,0.5,0.2,0.9,0.3c0,0.6-0.5,1.3-0.3,1.8c-0.1,0.1-0.1,0.1-0.3,0.1c0.2,0.8-0.3,1.8,0,2.9c0.1,0.4,0.4,0.7,0.4,1.1h0.3
			c-0.1,0.3,0,0.2,0.1,0.6h0.3c-0.1,0.3,0.3,1,0.4,1.2c-0.1,0.4-0.3,0.6-0.4,0.9c-1.7,0-3.7,0.6-5.9,0.2c-0.7-0.2-1.3,0.2-1.9,0
			C427.9,233.8,426.2,231.4,426.6,229.3z M413.6,232.7c0-0.2,0-0.2-0.1-0.3c0-0.2,0-0.2,0.1-0.3c0.3-0.2,1.3-0.4,1.7-0.4
			c-0.1,0.1-0.1,0.1-0.3,0.1c0.2,0.1,0.5,0,0.7-0.2c0.1,0.1,0.1,0.1,0.1,0.3c1.1-0.3,2.3-0.7,3.3-1.1c0.1,0,0.2,0.1,0.3,0.1
			c0.5-0.3,1.2-0.8,1.7-1c0.3,0,0.6-0.1,0.9-0.1c0-0.1,0.1-0.2,0.1-0.3c0.3-0.1,0.6-0.1,0.9-0.2c0.1-0.1,0.1-0.2,0.2-0.3
			c0.3-0.2,1.5-0.7,1.8-0.8v-0.3c0.3,0.1,0.6-0.1,1.1-0.2c-0.1,0.5-0.6,1.2-0.6,1.6c0.1,2.3,0.4,3.5,1.6,4.9v0.2
			c-1.7,0-4-0.3-5.9-0.7c-1.6-0.4-2.5,0-3.9-0.3h-1.2C415.4,233.3,414.4,232.9,413.6,232.7z M416.2,242c-0.3-0.7-1.5-3.2-1.4-3.9
			c0,0-0.1-0.1-0.1-0.1c0.1,0,0.3,0.1,0.4,0.1c0.1,1.5,1.1,2.3,1.7,3.4c0.3,0.6,0.4,1.4,0.9,2c-0.1,0.2-0.4,0.2-0.6,0.3
			C416.2,243.7,416.4,242.7,416.2,242z M417.9,247.7c-0.2,0-0.2,0-0.3-0.1c-0.4-0.6-0.2-1.6-0.6-2.2c0-0.3,0-0.4,0.1-0.6
			c0.3,0,0.7,0,0.9-0.1c0.7,0,1.2,1.4,1.2,2.1c-0.2,0-0.4,0-0.5-0.1c-0.1,0.2-0.3,0.6-0.5,0.8C418.1,247.6,418,247.7,417.9,247.7z
			 M418.1,249.3c0.2-0.7,1.1-0.6,1.4-1.3c0.7,0.4,0.7,1.7,1.3,2.3c0,0.8-0.7,0.6-1.2,0.9C418.2,251.2,418.5,249.9,418.1,249.3z
			 M419.4,252.4c0.7-0.3,1.4-0.3,2-0.8c0.3,0.2,1.5,2.6,1.4,2.8c0,0,0.1,0.1,0.1,0.1c-0.4,0-0.8,0.2-1,0.4
			C420.5,254.8,419.7,253.6,419.4,252.4z M424.1,259c-1.1-0.4-1.6-2-2.5-2.6c0-0.2,0-0.2,0.1-0.3c0.5-0.4,1.2-0.3,1.7-0.7
			c0.5,0.1,0.7,0.5,0.8,0.9h0.3v0.3c0.6,0.5,0.9,1.2,1.4,1.8c-0.2,0.4-0.2-0.1-0.6,0.1c-0.1,0.1-0.2,0.2-0.3,0.3
			C424.6,259,424.3,258.9,424.1,259z M429.1,263c-1-0.2-1.7-0.5-2.4-1c-0.1-0.1-0.1-0.3-0.3-0.4c-0.4-0.3-0.8-0.4-1.2-0.7
			c-0.2-0.2-0.2-0.5-0.5-0.7c0.5-0.3,1.1-0.2,1.4-0.8h0.3c0.1,0.4,1,1.5,1.4,1.8c0.2,0.2,0.6,0.3,0.7,0.5c0.2,0.4,0.1,0.7,0.5,0.9
			L429.1,263L429.1,263z M428.5,259.6c-0.2-0.1,0-0.3-0.2-0.5c-0.1,0-0.2-0.1-0.3-0.1c-0.3-0.3-1.3-1.7-1.4-2.1
			c-0.1-0.1,0,0-0.1-0.2c1.1-0.4,1.9,0,2.7-0.9c0.7,0,1.8,2.1,1.9,2.8c-0.4,0-1.8,0.7-2,0.9H428.5z M433.4,263.1
			c-0.5,0-1.3-0.1-1.6,0.1h-1.2c0,0-1.1-2.4-1.1-2.5c0.6-0.4,1.7-0.5,2.1-1c1,0.4,1.4,2.2,2.1,2.9
			C433.7,262.9,433.6,262.9,433.4,263.1z M441.9,257.5c-0.1,0-0.2,0.1-0.3,0.1c-0.1,0.3,0.4,1.2,0.3,1.7c-0.1,0.6-0.6,2.2-0.4,2.6
			c0,1.4-2.7,1-3.7,1.6c-0.9-0.1-1.2-1.4-1.6-2c-0.5-0.7-1.3-1.4-1.7-2.1c-0.2-0.4-0.2-0.7-0.4-1c-0.1-0.2-0.4-0.3-0.5-0.4v-0.3
			c-0.2-0.4-0.6-1.1-0.9-1.4v-0.1c1-0.2,2-0.3,2.9-0.6h0.6c1-0.4,1.4-0.5,2.5-0.6c0.1,0,0.2-0.1,0.3-0.1c0.3,0.1,0.8,0.4,1,0.5
			c0.4,0.1,0.5-0.2,0.9,0c0.4,0.2,0.3,0.3,1,0.3C442,256.3,442.2,257.1,441.9,257.5z M441.7,247.8c-0.4-0.9-1.1-2-1.8-2.7
			c0-0.9,0.5-0.8,0.9-1.3c0.1-0.1,0,0,0-0.1v-0.2h0.4v-0.3c0.6,0.1,0.5-0.4,0.9-0.6c0.1,0,0.2,0.1,0.3,0.1c0.2,0,0.2-0.3,0.3-0.3
			c0.1,0,0.2,0.1,0.3,0.1c0.2-0.1,1-0.3,1.3-0.4c0,0,0.3,0,0.2-0.1c0,0-0.1-0.1-0.1-0.1c1.3,0.3,2.2-1.5,3.9-0.6
			c0,0,0.1-0.1,0.1-0.1v-0.2c0,0,0.6,0.5,0.7,0.5c0.3-0.5,3.3,0.7,4.1,1.2c-0.1,0.6-2.4,1.1-3.1,1.4c-0.9,0.5-1.9,1.1-2.7,1.6
			c-0.2,0.1-0.3-0.1-0.3-0.1c-1.6,1-3.5,2-4.8,3.3C441.9,248.9,441.9,248.3,441.7,247.8z M443.5,249.6v-0.3c0.7-0.1,1.1-0.5,1.4-1
			c0.1,0.1,0.4-0.1,0.6-0.2c0.2-0.2,0.3-0.3,0.5-0.5c0.6-0.3,1.2-0.5,1.8-0.9h0.1c0-0.1-0.1-0.1-0.1-0.2c0.6,0,0.9-0.4,1.3-0.6
			c0.4-0.2,0.9-0.3,1.2-0.4c0.9-0.4,1.5-1,2.9-1c-0.1,0.6-0.3,1-0.4,1.4c-0.4,1.1,0.4,2.5,1,3.1c-0.2,0.6-1.4,0.9-2,1.3
			c-0.8,0.5-1.7,1.1-2.5,1.5c-0.4,0.2-0.9,0.3-1.3,0.6c-0.1,0.1-0.3,0.5-0.4,0.6c-0.2,0.1-0.7,0.1-0.9,0.3c-0.4,0.2-0.5,0.7-1,0.9
			v0.3c-0.5,0.1-1.7,1.1-2,1.4h-0.2c0-1.4-0.3-4.4-1-5.2C442.5,250,443,249.7,443.5,249.6z M444.1,263c-0.5,0-0.8-0.1-1.3-0.3
			c0-1.1,0.3-1.8,0.5-2.5c0.3-1-0.1-2.1,0.3-2.7c0.2-0.6,1.1-0.8,1.5-1.2c1.3-0.9,2.8-2.8,4.6-3.2v-0.3c1.1-0.2,1.9-1.2,2.8-1.4
			c-0.1-0.1,0-0.1-0.1-0.2c0.8-0.7,2-0.8,3.1-1.2c0.6-0.2,1.4-0.6,2-0.9c0.1,0,0.2,0.2,0.4,0.1c0.3-0.1,0.7-0.5,0.9-0.7
			c0.4-0.2,1,0,1.4-0.3c0.5-0.3,0.8-0.7,1.2-1.1c0.6,0.1,0.9,0.7,1.4,1c0.3,0.2,0.5,0.2,0.9,0.3c0.4,0.2,0.7,0.7,1.1,0.9v0.3h0.3
			c0.3,0.5,1.1,1.2,1.6,1.5c0,0.2,0,0.3-0.1,0.5c-0.2,0.1-0.8,0.2-1.2,0.3c-0.6,0.3-1.3,0.8-2,1.1c-0.9,0.4-1.6,0.5-2.5,0.9
			c-0.1,0.1-0.2,0.2-0.3,0.3c-0.2,0.1-1,0.2-1.4,0.4c-2,0.9-4.3,1.8-6.2,2.8c-1,0.5-2,1.4-3,2c-0.3,0.2-0.8,0.2-1.1,0.4
			c-0.3,0.2-0.7,0.7-1,0.9C447.1,261.3,444.4,262.3,444.1,263z M457.3,265.8c-0.1,0.1-0.1,0.3-0.3,0.4c-0.2,0.2-0.5,0-0.8,0.2
			c-0.2,0.1-0.2,0.4-0.4,0.4c-0.7,0.2-1.9-0.4-2.4-0.6c-0.4,0-0.8-0.1-1.2-0.1c-0.8-0.3-1.6-0.6-2.3-0.9c-0.3,0-0.6-0.1-0.9-0.1
			c-1.2-0.4-3-0.6-3.9-1.4c0,0-0.1-0.1-0.1-0.1c0.6-0.2,1-0.6,1.4-0.9c0.4-0.3,1.1-0.4,1.5-0.7c0.3-0.2,0.6-0.6,0.9-0.8h0.3
			c0.9-0.5,1.8-1.2,2.7-1.8c0.4-0.2,0.8-0.3,1.2-0.5c0.4-0.2,0.8-0.7,1.2-0.9h0.4c0.4-0.2,1-0.7,1.4-0.9c0.4-0.2,0.7-0.1,1.1-0.3
			c0.2-0.1,0.5-0.4,0.8-0.5c0.3-0.1,0.5,0,0.9-0.2c0.3-0.1,0.5-0.5,0.8-0.6c1.6-0.6,3-1.1,4.2-1.7c0.4-0.2,0.9,0,1.4-0.2
			c0.1,0,0.3-0.3,0.4-0.3c0.2,0.1,0.6-0.1,0.9-0.3h0.1c0-0.1-0.1-0.1-0.1-0.2c0.4,0.1,0.5,0,1-0.1v-0.2c0.9,0.3,2,1.8,2.5,2.5
			c0.2,0.3,0.3,0.8,0.5,1.1c0.1,0.1,0.6,0.3,0.6,0.3c0.5,0.5,0.8,1,1.3,1.5c0,0,0.1,0.1,0.1,0.1h-0.1c0,0.2,0,0.3-0.1,0.4
			c-0.4,0-0.9,0-1.1-0.2c-0.7,0.2-1.2,0.9-2,1.2c-0.7,0.3-1.6,0.3-2.3,0.6c-1.2,0.5-2.3,1.3-3.3,2c-0.4,0.3-1.2,0.3-1.6,0.6v0.2
			c-0.1,0-0.3,0.1-0.4,0.1v0.2c-0.1,0-0.3,0.1-0.4,0.1v0.2c-0.2,0.2-0.5,0.1-0.7,0.3c-0.1,0.1-0.2,0.3-0.3,0.4
			c-0.3,0.2-0.5,0.1-0.8,0.3c-0.5,0.3-1,0.9-1.5,1.2C457.8,265.7,457.5,265.6,457.3,265.8z M476.7,265.5c-1.3,0.3-2.8,0.6-4.1,1
			c-0.5,0.2-0.9,0-1.2,0c-0.3,0-0.9,0.2-1.1,0.3c-0.3,0-0.5-0.1-0.8-0.1c-0.4,0.1-1.1,0.2-1.4,0.3c-0.5,0.1-1.1-0.1-1.7,0
			c-1.5,0.3-3.1,0.6-4.5,0.5c-0.3,0-0.6,0.1-0.9,0.1c-1-0.2-2-0.5-3-0.5c0.3-0.8,1.6-1.1,2.2-1.6c2.3-1.8,5.3-3,7.7-4.3
			c0.4-0.2,3.3-0.8,3.7-0.6c0.6-0.1,0.8-0.4,1-0.9c0.2,0,0.3,0,0.4-0.1c0.6,0,0.8,0.3,0.9,0.7h0.3c0.1,0.5,0.4,0.3,0.4,0.9h0.3
			c0.1,0.5,0.4,0.5,0.5,0.9c-0.1,0.3,0.7,2,1.3,2.3C476.8,264.7,476.7,265.1,476.7,265.5z M478.1,263.3c-0.4-0.4-1-0.8-1.3-1.3
			c0-0.1,0.1-0.2,0.1-0.3c-0.5-0.7-0.8-1.5-1.5-2c0.1-0.8,0.6-1.6,0.8-2.4h0.3c0.2-1.1,1.2-1.9,1.8-2.6c0.7-1,1.1-2.3,2-3.1
			c0.9-0.9,2-1.6,2.8-2.5c0.5,0,1,0.1,1.3,0.3c0.1,0.1,0.2,0.4,0.3,0.4c0.4,0.2,0.9-0.1,1.2,0.1c0.8,0.5,1.7,1.4,2.8,1.5v0.3
			c0.4,0,0.3,0.1,0.6,0.2v0.3h0.3c0.1,0.3,1.5,1.3,1.8,1.4v0.5c-0.1,0.2-0.4,0-0.7,0.2c-0.4,0.2-0.8,0.7-1.2,0.9
			c-0.4,0.2-0.6,0.1-1,0.3c-0.6,0.3-1.3,1.5-2,1.9c-0.6,0.4-1.3,0.7-2,1.1c-0.5,0.3-0.8,0.7-1.4,1.1c-0.6,0.4-1.9,0.8-1.8,1.5
			c-0.1-0.1-0.1,0-0.2-0.1C480,261.2,479.2,262.9,478.1,263.3z M492,261.3c-0.1,0.1-0.3,0.3-0.4,0.3c-0.2,0.1-1.1,0.5-1.3,0.5
			c-0.1,0-0.2-0.1-0.3-0.1c-0.1,0.1-0.2,0.2-0.3,0.3c-0.6,0.2-0.8,0-1.3,0.3c-0.2,0.1-0.6,0.4-0.8,0.4c-0.4,0.1-0.9,0.1-1.2,0.2
			c-0.7,0.2-1.6,0.6-2.4,0.9h-0.8c-1.4,0.5-2.9,1-4.8,1c0.1-1.1,1.7-2,2.5-2.6c0.5-0.4,0.9-1.1,1.4-1.4c1.3-0.8,2.6-1.7,3.8-2.5
			c0.1,0,0.3-0.1,0.4-0.1c0.7-0.5,1.3-1.6,2.1-1.9c1.1-0.4,3.4-2,4.3-1.4c0.1,0.1,0.9,0.8,1,0.9v0.3c0,0.1,0.8,0.6,0.9,0.8
			c0.2,0.2,0.1,0.6,0.3,0.9c0.2,0.3,0.5,0.5,0.7,0.7C496,260.2,493.3,260.8,492,261.3z M506.4,249.7c-0.2,0-0.3,0.1-0.5,0.1v0.8
			c0.2,0.1,0.3,0.3,0.4,0.6c0.1,0.1-0.5,2.1-1.1,2.2c0,0.1,0.1,0.2,0.1,0.3c-0.1,0-0.1-0.1-0.3-0.1c-0.2,0.2-0.3,0.2-0.6,0.4
			c-0.1,0.1-0.1,0.2-0.2,0.3c-0.2,0.1-0.3,0.1-0.5,0.2v0.3c-0.2,0.3-1.2,0.7-1.6,0.9c-0.2,0.1-0.3,0.4-0.4,0.5
			c-0.5,0.4-1.3,0.6-2,0.9c-0.7,0.4-1.3,0.9-2,1.3c-0.3-0.5-0.7-1.1-1-1.6c-0.4-0.4-0.9-0.6-1.3-1c-0.4-0.5-0.8-1.2-1.4-1.4
			c0.2-0.3,1.3-0.4,1.6-0.8c0.2-0.2,0.3-0.6,0.5-0.8c0.4-0.3,0.8-0.3,1.3-0.6c0.8-0.5,1.5-1.3,2.3-1.6c1.2-0.5,2.6-0.7,3.5-1.4
			c0.4,0.3,0.7-0.3,1.2-0.1c0,0,0.2,0.3,0.2,0.3c0.2,0.1,1.6-0.4,1.9-0.5c0,0.1,0.1,0.3,0.2,0.3
			C506.4,249.5,506.4,249.6,506.4,249.7z M507.5,247.8c-0.4,0.1-0.5-0.1-0.9-0.2c-0.1-0.7-1.8-1.3-2.2-2c-0.2-0.3,0.4-0.8,0.5-1
			c0.6-1,1.1-1.5,1.9-2.3c0.2-0.2,0.2-0.4,0.3-0.6c0.3-0.3,0.7-0.3,0.9-0.6c0-0.1,0.1-0.2,0.1-0.3c0.2,0,0.3-0.1,0.5-0.1
			c0.4-0.2,0.8-0.6,1-0.8c0,0,0.3,0.2,0.4,0.1c0-0.1,0.1-0.2,0.1-0.3c0.1-0.1,0.5-0.2,0.5-0.3h0.5c0.1-0.1,0.4-0.5,0.5-0.5
			c0.2-0.1,0.8-0.1,0.9-0.1c0-0.1,0.1-0.2,0.1-0.3c0.6-0.3,1.8,0.5,2,0.6c0.7,0.4,2.4,0.4,2.7,1.1c0.3-0.1,0.2,0,0.3-0.2
			c0.3,0.3,0.8,0.6,1.2,0.8c0,0.2,0,0.2-0.1,0.3c-0.2,0.7-2.7,1.2-3.5,1.5c-1.4,0.7-2.5,1.8-3.7,2.6c-0.7,0.5-1.3,0.7-1.9,1.4
			c-0.1,0.1-0.1,0.1-0.1,0.3C508.8,247.2,508.2,247.6,507.5,247.8z M522.9,246.1c-0.6,0.4-1.7,1.4-2.5,1.5v0.3
			c-0.8,0.1-1.5,0.6-2,0.9c-0.4-0.2-3.3,0.7-4,0.9c-0.6,0.1-1.4-0.2-2-0.1c-0.4,0.1-2,0.3-2.6,0.2c-0.6-0.2-1.2-0.2-2-0.3
			c0.3-1,1.3-0.9,2.1-1.4c1-0.7,1.6-2,2.9-2.4v-0.3c1-0.1,2-1.4,2.9-1.9c0.2-0.1,0.3,0.1,0.3,0.1c0.1,0,0.2-0.3,0.3-0.3h0.8
			c1.2-0.6,2.6-0.8,3.8-1.6c0.2,0.4,0.4,0.1,0.8,0.3c0.5,0.3,0.9,0.9,1.4,1.2c0.1,0.4,0.3,0.7,0.3,1.1c0.4,0.1,0.6,0.6,0.6,0.9
			C524,245.9,523.4,245.8,522.9,246.1z M523.6,243.7c0.1,0.1,0.1,0,0.2,0.1C523.6,243.8,523.7,243.8,523.6,243.7z M525.6,243.8
			L525.6,243.8c-0.4-0.1-0.4-0.6-0.8-0.9c-0.3-0.2-0.8-0.5-1.1-0.7c-0.1,0-0.3-0.1-0.4-0.1c-0.6-0.5-1.5-1.1-2.3-1.4
			c0.1-0.9,2.5-3,3.2-3.4c0.6-0.3,0.8-0.2,1.3-0.6h0.3c0.2,0.5,0.5,1.2,1.1,1.2C527.4,239.5,527.5,243.3,525.6,243.8z M406.2,234.3
			c-0.4,0.5-2,0-2.9,0.3c-0.5,0.1-1.6-0.1-2.2,0.1c-0.1,0.1-0.3,0.3-0.4,0.3c-1.5,0.6-3.1,0.6-3.6,2.1c-0.4,1.2,0.6,3.9,1.1,4.5
			c-0.3,0.3,0.4,1.5,0.5,1.8c-0.3,1.6,1.4,3.7,2.4,4.2c0.8,0.4,1.3,0,2.1,0.3c0.3,0.1,0.9,0.3,1.2,0.3c0.1,0,0.3-0.2,0.4-0.3h0.6
			c0-0.1,0.1-0.2,0.1-0.3c0.1,0,0.3,0.2,0.4,0.1c0.5-0.2,0.8-0.9,1.3-1.2c0.2,0,0.4-0.1,0.6-0.1c0.3-0.3,0.9-1.2,0.9-1.6
			c0.1,0.1,0.1,0.1,0.2,0.2c0.3-0.8,0.8-1.4,1-2.2c0.2-0.6,0-1,0.2-1.5c0.3-0.9,0.5-1.8,0.7-2.8c-0.1-0.6-0.2-1.2-0.3-1.8
			C409.4,235.6,408.4,234.3,406.2,234.3z M404.5,238.8c-0.1,0.6-0.2,2.1-0.2,3c0,0.3,0.1,0.5,0.1,0.8c-0.2,1-0.4,1.7-0.5,3
			c0,0-0.1,0.1-0.1,0.1h-0.5c-0.1-2,0.3-4.6,0-6.7c-0.1-0.8,0.1-1.7-0.3-2.5c0.1-0.3,0.3-0.2,0.5-0.5c0.2,0,0.3,0.1,0.4,0.2
			C404.5,236.3,404.7,238,404.5,238.8z M364,236.2c-0.1-0.2,0-0.1-0.3-0.2C363.9,236.1,363.8,236.1,364,236.2z M407.7,329.7
			c0.1-0.4,0.4-0.8,0.4-1.1c0.1-0.6-0.6-1.8-1.1-2.1v-0.3c-0.5,0-0.9,0-1.2,0.3c-0.6,0.2-0.7,1.1-0.9,1.8c0.2,0.2,0.9,1.1,0.9,1.4
			C406.5,329.8,407,329.8,407.7,329.7z M399.3,327.3c-0.2,0.2-0.5,0.2-0.7,0.3c-0.1,0.1-0.1,0.2-0.3,0.3c-0.1,0.2-0.3,0.5-0.2,0.9
			c0.1,0.3,0.3,0.3,0.2,0.7c0.6,0.3,1.1,0.7,2,0.8c0-0.1,0.9-1.3,1-1.4C401.4,327.3,400.4,327.4,399.3,327.3z M409.5,332.1
			c-0.7-0.6-1-1.2-2.1-1.4c-0.1,0.1-0.3,0.1-0.4,0.2c-0.3,0.2-0.4,0.8-0.8,0.9c0,0.5,0.2,1.3,0.5,1.6c0.3,0.5,1,0.7,1.9,0.7
			C409.3,333.4,409.5,333.4,409.5,332.1z M402.8,335c0.4,0.1,0.7,0.3,1,0c0.7-0.2,0.7-1,1.1-1.4c-0.3-1-1.1-1.7-2.3-1.8
			c-0.2,0.1-0.3,0.2-0.6,0.3c-0.1,0.4-0.4,1.1-0.1,1.4C402,334.5,402.4,334.5,402.8,335z M398.2,332c-0.2,0.1-0.4,0.3-0.7,0.3
			c-0.1,0.4-0.3,0.9-0.1,1.2c0,0.7,0.9,1.8,1.6,1.3c0.7-0.1,0.8-0.5,1.2-0.9c0-0.3,0.2-0.6,0-0.9C400,332.3,399,332,398.2,332z
			 M411,337.1c0.1-1.7-0.9-2.3-2.4-2.6c-0.1,0.1-0.4,0.2-0.5,0.3c-0.3,0.1-0.3,0.5-0.6,0.7C407.6,337.8,409.4,338.8,411,337.1z
			 M398.4,335.8c-0.6-0.4-1.2,0-1.8,0.1c-0.2,0.6-0.9,1.4-0.3,2.1c0.4,0.9,1.8,0.7,2.9,0.6c0.1-0.5,0.7-1.3,0.3-2
			C399.3,336.3,398.7,335.9,398.4,335.8z M401.9,340.5c0,0.9,0.7,0.9,1.2,1.3c1.4,0,1.5-0.8,2.1-1.5c-0.1-0.5-0.5-0.8-0.6-1.3
			c-0.4-0.1-0.5-0.2-0.9-0.2v-0.3c0.5-0.2,0.7-0.7,1.3-0.9c-0.1-1.4-0.6-1.1-1.3-2c-0.6,0-0.8,0.2-1.3,0.3v0.3c-0.2,0-0.2,0-0.3,0.1
			c-0.1,0.1,0,0.6-0.3,0.8c0.2,0.7,0.6,1.4,1.4,1.6c-0.5,0.4-1.1,0.4-1.4,1.1C401.9,339.9,401.8,340.3,401.9,340.5z M411.9,341.3
			c0.6-0.3,0.7-1.6,0.3-2.1c-0.4-0.5-1.2-0.6-2.2-0.6c-0.2,0.2-0.4,0.3-0.8,0.3c-0.1,0.3-0.2,0.4-0.5,0.6c0.1,1,0.9,1.5,1.2,2.3
			C410.6,341.9,411.5,342,411.9,341.3z M397.8,339.6c-0.3,0.1-0.9-0.1-1.4-0.1c-0.7,0.6-1,1.2-1,2.2c0,0.6,1.3,1.4,1.8,1
			c1.5-0.1,1.1-1.5,1.4-2.4C398.3,340.2,397.9,339.8,397.8,339.6z M403.1,345.5c0.3,0,0.3,0,0.4,0c1.2,0,1.2-0.7,1.7-1.4
			c0-0.5-0.2-0.5-0.3-0.9c-0.6-0.3-0.7-0.6-1.8-0.6c-0.4,0.3-1.7,0.9-1.1,1.8C402.2,345,402.7,345,403.1,345.5z M413.1,345
			c0.3-0.4,0-0.9,0.5-1.1c-0.2-0.3-0.4-0.2-0.7-0.3c-0.6-0.4-0.7-0.9-1.7-0.9c-0.2,0.2-0.6,0.2-0.9,0.3c-0.1,0.1-0.2,0.3-0.3,0.4
			c0,0.4-0.2,0.7-0.1,0.9c0,0.8,0.2,0.9,0.5,1.4c0.3,0.1,1.1,0.1,1.4,0.3C412.3,345.6,412.8,345.4,413.1,345z M395.7,343.7
			c-0.1,0.1-0.3,0.1-0.5,0.1c-0.3,0.3-0.6,0.8-0.9,1c0,0.5-0.1,1.4,0,1.8c0.1,0.5,0.4,0.5,0.5,0.9c1-0.1,2-0.3,2.3-1.3
			c0.2-0.4,0-1.1,0-1.5C396.6,344.2,396.5,343.8,395.7,343.7z M402.4,346.7c0,1.2-0.3,2,0.8,2.4c0.3,0.2,0.8,0.3,1.1,0.1
			c0.9-0.1,1.1-1.2,1-2c-0.5-0.5-1.1-0.7-1.9-0.9C403.2,346.4,402.7,346.6,402.4,346.7z M414.6,349.4c0-0.7,0.3-0.9,0.3-1.7
			c-0.6-0.7-1-1.4-2.4-1.4c-0.2,0.1-0.5,0.1-0.7,0.3c-0.2,0.2-0.2,0.5-0.4,0.7c-0.1,1.1,0.4,2.2,1.4,2.5
			C413.3,350.1,414,349.6,414.6,349.4z M395,348.9v-0.3c-1.2-0.2-1.3-0.2-2.3,0.4c0,0.4,0,1-0.3,1.2c0.4,0.6,0.8,0.8,1.4,1.2
			c1,0,1.4-0.3,2-0.8c0-1-0.3-1.4-0.3-1.8L395,348.9L395,348.9z M403.5,349.7c-0.3,0.2-0.8,0.4-1.1,0.6c-0.1,0.2-0.1,0.7-0.3,0.9
			c0.1,0.9,0.7,1.2,0.9,1.9c0.3,0.1,0.8,0.3,1.1,0.1c1.1-0.1,1.2-1.2,1.4-2C404.8,350.4,404.7,350.1,403.5,349.7z M415.3,353.7
			c0.2-0.1,0.3-0.3,0.5-0.4c0.2-0.3,0.2-0.9,0.5-1.2c-0.2-0.6-0.7-0.9-0.9-1.4c-0.3,0-0.5-0.1-0.6,0h-0.1c0-0.1,0.1-0.1,0.1-0.2
			c-0.3-0.1-0.6-0.1-0.9-0.2c-0.2,0.2-0.5,0.2-0.8,0.4c-0.5,0.4-0.4,1.2-0.5,1.7c0.1,0.2,0.3,0.4,0.4,0.6c0.5,0.3,1,0.4,1.4,0.8
			C414.8,353.8,415.1,353.7,415.3,353.7z M393.7,352.9c-0.4,0-0.5-0.1-0.9-0.2c-0.2,0.2-0.6,0.1-0.9,0.3c-0.2,0.2-0.3,0.3-0.5,0.5
			c-0.1,1,0,1.4,0.6,1.9c0.3,0.2,1,0.1,1.2,0.2c0.5-0.1,0.9-0.4,1-0.9c0.1-0.2,0.1-0.7,0-0.9C394.1,353.2,393.8,353.3,393.7,352.9z
			 M403.7,356.7c0.4,0.4,1.3-0.7,2-0.8c-0.1-0.4-0.2-1-0.3-1.2c-0.2-0.6-0.9-0.7-1.7-0.9c-0.2,0.1-0.6,0.1-0.8,0.2
			c-0.4,0.1-0.4,0.4-0.7,0.7c0,0.5-0.1,0.8,0.2,1.1C402.6,356.2,403.2,356.6,403.7,356.7z M416,357.7c0.6-0.1,1.2-0.7,1.4-1.2
			c0.1-0.2-0.2-1-0.1-1.1c0-0.3-0.1-0.3-0.2-0.5c-0.7-0.1-0.9-0.2-1.5-0.3c-0.7,0.4-1.2-0.2-1.5,0.9c-0.1,0.1,0,0.8,0,0.9
			c0.2,0.2,0.2,0.4,0.4,0.7c0.2,0.2,0.5,0.2,0.7,0.5C415.5,357.7,415.8,357.8,416,357.7z M390.5,356.9c-0.1,0.1-0.4,0.2-0.5,0.3
			c-0.3,0.3-0.2,0.5-0.6,0.7c0.2,0.7,1,3.5,2.8,2c0.9-0.6,0.7-2.1-0.1-2.5C391.9,356.9,391.2,356.9,390.5,356.9z M402.2,358.9v0.5
			c0.2,0.3,0.6,0.6,0.9,0.9c1.2-0.1,1.6-0.4,2.3-1.2c0-0.5,0.1-0.7-0.1-0.9c-0.1-0.7-1-1.1-1.9-1c-0.1,0.1-0.3,0.1-0.4,0.2
			c-0.6,0.1-0.7,0.7-1.2,1C401.8,358.8,402,358.7,402.2,358.9z M418.9,360.3c0-0.4-0.1-0.9-0.3-1.1c-0.4-0.5-1.1-0.8-1.8-0.9
			c-0.6,0.5-1.2,0-1.6,1c-0.1,0.1-0.1,0.3-0.2,0.4c0,1.1,0.5,1.2,0.9,1.8C417.9,361.9,417.9,361.6,418.9,360.3z M405.5,362.5
			c-1-1-0.7-1.4-2.5-1.3c-0.2,0.3-0.6,0.6-0.9,0.9c-0.1,1.2,0.4,1.3,0.7,2.2h0.3v0.3c1.2,0,1.1,0,2.2-0.6
			C405.4,363.4,405.4,363,405.5,362.5z M389.8,361.4c-0.4,0.3-1,0.2-1.4,0.4c-0.4,0.2-0.9,1.1-0.8,1.4c0.1,0.9,1,1.2,1.4,1.8
			c0.3,0,0.5,0,0.7,0.1c0.6-0.1,0.8-0.5,1.3-0.9C391.5,363,391.3,361.8,389.8,361.4z M419.9,364.2c0-1.5-1.2-2.1-2.6-2
			c-0.4,0.3-0.7,0.2-0.9,0.8c-0.6,1,0.3,1.9,0.7,2.4c0.2,0,0.2,0,0.3,0.1c1.2,0,1.8-0.1,2.3-0.8
			C419.8,364.6,419.8,364.4,419.9,364.2z M403.2,365.3c-0.4,0-0.5,0.1-0.6,0.4h-0.3c-0.1,0.7-0.4,1.4,0.1,2c0.5,0.7,1.4,0.6,2,0.4
			c0.5-0.6,0.8-1.1,0.9-2.1c-0.3-0.3-0.6-0.6-0.9-0.9c-0.3,0-0.9,0-1-0.1C403.1,365.1,403.3,365,403.2,365.3z M387.6,366
			c-0.6,0.4-1.2,0.5-1.4,1.3c0,0.1,0.1,0.3,0.1,0.4c-0.1,0.3-0.2,0.5,0.1,0.9c0.2,0.5,1.8,1.1,2.4,0.8c0.6-0.3,1.1-2.1,0.6-2.7
			C389.2,366.1,388.2,366,387.6,366z M421.1,368.4c-0.1-0.9-0.8-1.9-1.6-2.2c-0.2-0.1-0.4-0.1-0.8-0.1c-0.1,0.1-0.3,0.1-0.5,0.3
			c-0.3,0.2-0.4,0.6-0.7,0.8c0,0.9-0.2,1.5,0.3,2c0.2,0.4,0.8,0.5,0.9,0.7C420.2,369.8,420.2,368.9,421.1,368.4z M403.2,372.7
			c1.6-0.1,1.5-0.6,2.3-1.3c0-0.7-0.3-1.3-0.6-1.7c-0.5-0.4-1.1-0.5-2-0.5c-0.2,0.2-0.7,0.3-0.9,0.6c-0.1,0.2-0.1,0.4-0.3,0.5
			C401.9,371.8,402.4,372,403.2,372.7z M422.5,373.3c0.3-0.4,0.2-1.1,0-1.4c-0.3-0.8-1.3-1.1-2-1.4v0.2c-1.7-0.1-1.3,1.6-1.2,2.6
			c0.4,0.4,0.5,0.8,1.1,0.9C420.9,374.6,422.2,374,422.5,373.3z M387,371.4c-0.5-0.4-1.6,0-1.8,0.3c-0.4,0.2-0.4,1.1-0.6,1.3
			c0.2,0.3,0.3,0.8,0.5,1c0.1,0.1,0.1,0.1,0.3,0.1v0.3c0.4,0,0.9,0.1,1,0.3c0.3-0.1,0.8-0.2,1.2-0.4c0.3-0.2,0.3-0.6,0.6-0.9
			C388.2,372.5,387.9,371.6,387,371.4z M402.9,373.7c-0.3,0.2-0.5,0.3-0.8,0.5c-0.3,1.2,0.1,1.4,0.3,2.4c0.6,0.1,1.3,0.9,2.1,0.3
			c0.4-0.2,0.5-1.1,0.7-1.3C405.3,374.1,404.1,373.8,402.9,373.7z M423.2,378.5c0.4-0.1,0.4-0.3,0.7-0.5c0-0.8,0-1.6-0.3-2
			c-0.3-0.4-0.9-0.8-1.6-0.8c-0.2,0.2-0.6,0.2-0.8,0.2c-0.1,0.3-0.4,0.5-0.7,0.7c0,1.3,0.4,1.4,0.8,2.4
			C421.9,378.6,422.8,378.8,423.2,378.5z M385.8,377.2c-0.7-0.5-1.5-0.1-2.2,0.3c-0.4,0.8-0.4,1.2-0.3,2c0.4,0.1,0.9,0.6,1.3,0.9
			c0.2-0.1,0.3-0.1,0.5,0c0.2-0.1,1.3-0.8,1.4-0.9c0.2-0.2,0.4-0.7,0.3-0.9C386.6,377.8,386.2,377.4,385.8,377.2z M403,381.8
			L403,381.8c-0.1,0.1-0.1,0-0.2,0c-0.2,0.4-0.6,0.7-0.8,0.9c-0.2,0.3,0.1,0.6-0.3,0.8c0,0.7,1,2,1.6,2c0.2,0,0.2-0.1,0.4,0
			c0.6-0.1,0.9-0.5,1.4-0.9c0.1-1.2-0.2-2.4-1.2-2.9c0.2-0.4,0.9-0.5,1.1-0.9c0.2-0.2,0.1-0.4,0.3-0.6c0-0.2,0.1-0.3,0.1-0.4
			c-0.1-0.2-0.5-0.8-0.3-1.1c-0.1-0.4-2-0.7-2.7-0.7c-0.2,0.3-0.4,0.4-0.6,0.8c-0.5,0.7,0.5,2.5,1.3,2.6v0.1
			C403.1,381.7,403.1,381.7,403,381.8z M425.5,381.4c0.1-0.2,0-0.8-0.3-1.1c-0.2-0.5-0.7-0.5-0.9-0.9c-0.3,0-0.7-0.1-1-0.1
			c-0.6,0.5-1.1,0.4-1.3,1.3c-0.1,0.2-0.1,0.5,0.1,0.8c0.1,0.9,0.9,1.3,1.8,1.4C424.5,382.4,425.2,382.3,425.5,381.4z M382.9,381.7
			c-0.4,0.2-1.1,1.3-0.9,2c0.1,0.2,0.2,0.3,0.3,0.6c0.4,0.1,0.2,0,0.2,0.3c0.3,0.1,0.7,0.1,0.9,0.4c0.6-0.1,0.9-0.3,1.4-0.4
			c0-0.5,1-1.8,0.6-2.4C385.1,381.6,383.5,381.1,382.9,381.7z M427,385.7c0-0.8,0-1.2-0.3-1.8c-0.4-0.2-0.9-0.5-1.6-0.6
			c-0.1,0.1-0.1,0.1-0.3,0.1c-0.1,0.1-0.3,0.1-0.4,0.3c-0.4,0.4-0.5,1-0.9,1.4c0,0.3,0.1,0.7,0.1,0.9c0.2,0.2,0.7,0.6,0.9,0.9
			c0.7,0,1.6-0.1,2-0.3C426.6,386.3,426.6,385.9,427,385.7z M380.9,386.3c-0.6,0.2-0.5,0.9-0.9,1.3c0,0.6,0.2,0.7,0.3,1.1h0.3
			c0,0.2,0.1,0.3,0.1,0.5c0.3,0,0.7,0.3,0.8,0.3c0.2,0.1,0.1,0,0.2,0.3c0.5,0,0.7,0,1.1,0c0.3-0.3,0.8-0.6,0.9-1
			c0.2-0.4,0.1-0.6,0.3-0.9C383.8,387,381.9,385.6,380.9,386.3z M403.2,389.4c0.4,0,1.1,0.2,1.5-0.2c0.4-0.1,0.4-0.4,0.7-0.5
			c0-0.4,0-0.7,0.1-1.1c-0.5-0.5-0.6-1.2-1.4-1.4c-0.4,0.3-0.7,0-1.1,0.3c-0.5,0.1-0.5,0.4-0.8,0.7c0,0.6-0.1,0.9,0.2,1.2
			C402.4,389,402.9,389,403.2,389.4z M428,390.3c-0.1-0.2,0.2-1.1,0.3-1.2c-0.2-0.5-0.6-0.8-0.8-1.3c-0.4,0-0.5-0.1-0.9-0.2
			c0,0.1-1.5,0.6-1.5,0.6h-0.1c-0.1,0.2-0.2,0.4-0.3,0.5c0,0.3-0.1,0.6-0.1,0.9c0.1,0.3,0.3,0.4,0.3,0.6
			C426,390.8,426.9,391.6,428,390.3z M381.3,390.2c-0.6,0-0.8,0-1.3-0.1c-0.5,0.5-1.1,0.7-1.5,1.2c-0.1,0.1-0.1,0.8-0.2,0.9
			c0.3,0.9,0.9,1.2,1.4,1.7c0.5,0,1-0.3,1.2-0.2h0.3c-0.1-0.2-0.1-0.1-0.2-0.3c1-0.4,1.2-1.1,1.4-2c-0.1-0.2-0.1-0.4-0.3-0.6
			C382,390.6,381.6,390.6,381.3,390.2z M405.3,390.6c-0.4-0.2-0.9-0.3-1.4-0.4c-0.4-0.1-0.8,0.1-1.3,0c-0.1,0.2-0.2,0.3-0.4,0.3
			c0.1,0.9,0.1,2.4,1.1,2.8c0.4,0.3,1.5,0,1.7-0.2c0.4-0.2,0.4-0.5,0.7-0.9c-0.1-0.4-0.1-0.9-0.2-1.3
			C405.4,390.7,405.3,391.1,405.3,390.6z M429.2,394.2c0.3-0.3,0.3-0.8,0.3-1.4c-0.6-0.6-1.1-1.1-2.3-1.1c-0.2,0.2-0.3,0.1-0.5,0.3
			c-0.3,0.2-0.3,0.6-0.6,0.8c0,0.4-0.1,0.6,0,0.8c0.1,0.6,0.5,0.9,0.9,1.3C427.9,394.9,428.7,394.8,429.2,394.2z M403.7,397.4
			c1,0,1.9-0.8,1.8-1.5c0-0.9-0.5-1.4-1.2-1.6c-0.4-0.3-1.1,0.2-1.6,0.3c-0.2,0.5-0.8,1.4-0.4,2C402.4,397.1,403.3,397,403.7,397.4z
			 M378.7,395.4c-0.2,0.1-0.6,0.1-0.7,0.1c-0.7,0.1-0.8,0.6-1.2,1c0,0.8,0.2,1.5,0.6,1.9c0.2,0.2,0.7,0.3,0.9,0.5
			c0.6,0,0.7-0.3,1.3-0.3c0,0-0.1-0.1-0.1-0.1c0.1-0.2,0.4-0.2,0.6-0.5c0.2-0.1,0.4-0.7,0.4-1.3C380,396.2,379.8,395.5,378.7,395.4z
			 M431.2,398c0-0.4,0-0.7-0.1-0.9c-0.2-0.8-0.8-0.9-1.2-1.4c-0.4,0-0.4,0-0.8,0c-0.6,0.5-1,0.5-1.5,1.1c-0.5,0.5,0.5,1.8,0.8,2.2
			C430.1,399.2,430.2,399.1,431.2,398z M405.6,398.9L405.6,398.9l-0.3-0.1c-0.1-0.7-0.7-0.7-1.1-1.1c-0.6,0-1.3,0.1-1.7,0.3
			c-0.2,0.3-0.1,0.9-0.3,1.3c0,0.3,0.7,1.3,0.9,1.4c0.3,0.2,0.4,0.1,0.6,0.3c0.3-0.1,0.8,0,1.2-0.1c0.2-0.1,0.4-0.3,0.7-0.4
			c0-0.3,0.2-0.6,0.3-0.9C405.8,399.3,405.5,399.1,405.6,398.9z M377.4,399c-0.2,0.4-0.3,0-0.6,0.2c-0.2,0.1-0.5,0.5-0.8,0.6
			c-0.1,0.5-0.2,1.4,0.2,1.8c0.1,0.5,0.5,0.8,0.9,0.9c0.3,0.2,0.8,0,1.4-0.1c0.2-0.3,0.5-0.9,0.9-1c-0.1-0.6-0.2-1.1-0.4-1.6
			C378.4,399.3,377.9,399.1,377.4,399z M430.4,399.9c-0.2,0.3-0.4,0.1-0.7,0.3c0,0.1-0.1,0.2-0.1,0.3h-0.3c-0.1,0.1-0.1,0.2-0.3,0.3
			c0,0.3,0,0.8-0.2,1c0.2,0.8,2.2,1.6,2.8,0.9c0.5-0.1,0.7-0.6,0.9-0.9c0.1-0.1-0.1-0.3-0.1-0.5C432.6,400,431.4,400,430.4,399.9z
			 M404.7,401.7c-0.2-0.1-0.8-0.1-1.3-0.1c-0.1,0.1-0.9,0.8-1.1,0.9c0.2,0.8,0.3,1.6,0.8,2c0.2,0.1,0.8,0.3,1.4,0.3
			c0.7-0.7,1.3-1,1.3-2.2C405.4,402.3,405.2,402,404.7,401.7z"/>
	</g>
</g>
<ellipse class="st1" cx="403.7" cy="416.7" rx="31.4" ry="4.5"/>
</svg>
