<?xml version="1.0" encoding="utf-8"?>
<!-- Generator: Adobe Illustrator 21.0.0, SVG Export Plug-In . SVG Version: 6.00 Build 0)  -->
<svg version="1.1" id="Calque_1" xmlns="http://www.w3.org/2000/svg" xmlns:xlink="http://www.w3.org/1999/xlink" x="0px" y="0px"
	 viewBox="0 0 841.9 595.3" style="enable-background:new 0 0 841.9 595.3;" xml:space="preserve">
<style type="text/css">
	.st0{fill:#DADADA;}
	.st1{fill:#1D1D1B;}
	.st2{fill:#FFFFFF;}
</style>
<ellipse class="st0" cx="420.9" cy="432.9" rx="103.5" ry="13.1"/>
<g>
	<g>
		<path class="st1" d="M485,428c-0.4-0.8-2-0.8-2.9-1.2c-0.5-0.2-1-0.8-1.5-1.1c-0.7-0.4-1.8-0.8-2.5-1.1c-1-0.4-2.2-0.5-3.2-0.7
			c-0.2-0.1-0.3,0.1-0.4,0.1c-2.2-0.9-4.1-1.9-5.8-3.2c-0.8-0.6-1.2-1.7-2.1-2.2c-0.3,0-0.6-0.1-0.8-0.1c-0.2-0.1-0.4-0.7-0.7-0.8
			h-0.6c-0.7-0.2-1.8-0.2-2.6-0.4h-2.1c-0.1,0-0.8-0.2-0.8-0.2c-0.3,0-0.9,0.2-1.2,0.1c-3-0.6-3.3-37.4-4.6-39.7
			c-0.5-1-1.1-2.5-1.4-3.6v-0.7c-0.3-0.9-1.1-2.8-1.1-3.7c0-0.4,0.2-1.1,0.1-1.5c-0.3-1.4-0.5-3.5-0.2-5c0.3-1.3-0.2-1.8,0-2.9
			c0-2-0.1-4.1-0.1-6.1c0.3-1.1-0.2-2.7,0.1-3.9c0.2-1.1,0.3-3.5,0.1-4.7c-0.1-0.6,0.2-0.9,0.2-1.3c0.2-2.2,0.2-5.3,0-6.7
			c-0.1-0.8,0.1-1.3-0.2-2c-0.3-0.8-1.1-1.6-1.6-2.2c-0.2-0.3-0.2-0.7-0.4-1c0.1-0.7,0.6-1.3,0.8-1.9c0.2-1.1,0.4-2.1,0.6-3.2
			c0.3-0.9,0.9-1.8,1.2-3c0.1-0.8,0.1-1.6,0.2-2.3c0.7-2.8,0.7-6,1.2-9c0-0.2-0.1-0.5-0.1-0.7c0.3-1.3,0.1-3.7-0.2-5.1
			c0-1.4-0.1-2.9-0.1-4.3c-0.4-1.2-0.5-3.4-1-4.2c-0.1-0.2,0.1-1.7-0.1-2.2c-0.1-0.3-0.5-0.6-0.6-0.8c-0.5-1.2,0.5-2.4,0.7-3
			c0.3-0.8,0-1.3,0.2-2.1c0.2-0.6,0.5-1.2,0.7-1.8c0-0.2-0.1-0.4-0.1-0.5c0.2-0.7,0.4-1.5,0.5-2.2c0.2-1.1-0.1-2.1-0.3-2.8v-1.1
			c-0.4-1.4-0.9-3.9-0.6-5c0-0.9-0.1-1.8-0.1-2.6c0.7-2.8,1.3-4.7,2.3-7c0.3-0.6,0.2-1.1,0.5-1.7c0.4-0.8,1.1-1.7,1.5-2.4
			c0.1-0.2,0-1.3,0-1.3c0.9-1,1.7-2.8,2.2-4.1c0-0.3,0.1-0.6,0.1-0.8c1.3-2.4,2.2-5.4,3-8.2c0.3-1-0.4-1.5-0.2-2.4
			c0.2-1.2-0.9-4.1-1.3-5.3c0-0.3-0.1-0.6-0.1-1c-0.6-1.6-1-3.2-1.6-4.9c-0.6-1.5-1.5-3.2-2.1-4.7c-0.3-0.8-0.2-1.5-0.5-2.3
			c-0.1-0.4-0.5-1.4-0.7-1.8c-0.1-0.2-0.5-0.4-0.5-0.6c0-0.2,0.1-0.5,0.1-0.7c-0.3-1.1-1-2.4-1.5-3.4v-0.6c-0.2-0.6-0.6-1.2-0.7-1.7
			v-0.7c-0.8-2.5-2.3-5.2-4.9-5.9c-0.3-0.1-0.6,0.1-0.7,0.1c-2.4-0.4-3.4,0.7-4.9,1.7c-0.3,0.2-0.8,0.3-1.1,0.5
			c-0.5,0.5-0.8,1.2-1.4,1.6c-1,0.7-2.4,1.3-3.4,2c-0.5-0.1-2.1-1.1-2.3-1.5c-0.6-0.9,0.1-1.4-1-2.1c0.1-0.3,0.1-0.2,0.2-0.5
			c0.8-0.2,1-0.9,1.5-1.4c0.5-0.4,1.1-0.6,1.6-1.1c0.2-0.3,0.4-0.6,0.5-0.8c0.2,0,0.4-0.1,0.6-0.1c0-0.2,0.1-0.4,0.1-0.5
			c0.2-0.2,0.6-0.3,0.7-0.5c0-0.2,0.1-0.4,0.1-0.5c0.5-0.6,1.1-1,1.5-1.8c0.4-0.1,1.6-0.2,2-0.3c0.4-0.2,0.9-0.7,1.4-1
			c0.6-0.3,1.4-0.1,1.9-0.5c0.2-0.4,0.4-0.7,0.6-1.1c0.2-0.2,0.5,0,0.7-0.2c0.5-0.3,2-2.3,2.1-3.1c0.7-0.2,1.3-1.4,1.4-2.1
			c0-0.2-0.1-0.4-0.1-0.6c0.9-3.3,0.1-6.8-0.8-9.6c-0.2-0.6-0.2-1.3-0.5-1.8c-0.3-0.4-1.9-1.5-2.3-1.7c-0.3-0.1-0.7-0.1-1-0.2
			c-0.3-0.4,0-0.9-0.2-1.5c-0.2-0.5-0.5-1.2-0.7-1.7c-0.2-0.4,0-0.7-0.2-1.2c-0.5-1.3-3-4-4.1-4.7c-0.8-0.5-1.7-0.6-2.8-1
			c-0.6-0.2-1.5-0.6-2-0.8c-1.5-0.5-3.8-0.3-4.9-0.1c-0.8,0.1-1.6-0.4-2.5-0.1c-1.7,0.5-3.7,1.1-5.3,1.7c-0.6,0.2-1.1,0.1-1.7,0.3
			c-0.9,0.4-1.7,1.1-2.4,1.6c-0.9,0.5-1.7,0.9-2.5,1.5c-0.1,0.2-0.3,0.4-0.4,0.5c-1.7,1-2.8,1.5-3.9,3c-0.3,0.4-0.3,0.9-0.6,1.4
			c-0.2,0.1-0.4,0.3-0.5,0.4c0,0.2-0.1,0.4-0.1,0.6c-0.5,0.8-1.2,1.7-1.5,2.8c-0.8,3,1.2,7.9,2.4,9.5c0,0.2,0.1,0.4,0.1,0.6
			c0.4,0.7,1.5,1.8,2.4,2v0.4c0.8,0.1,0.5,0.3,0.8,0.5c0.4,0,0.7,0.1,1.1,0.1c0,0.1,0.1,0.3,0.1,0.4c0.2,0.2,0.5,0.1,0.8,0.1
			c0.1,0.3,0.1,0.3,0.2,0.5c0.5,0,3,0.2,3.3,0.4c0.4,0,0.4,0,0.5,0.2c0.6,0.8,0.1,3.1,0.4,4.6c0.8,3.4,0.1,7.7-1.5,9.8
			c-0.7,0.9-2.9,1.9-4,2.3c-0.6,0.2-1.1,0-1.7,0.2c-0.7,0.3-1.3,0.9-2.1,1.1c0,0-2.2,0.1-2.2,0.1c-0.1,0-0.2-0.3-0.6-0.2
			c-0.5,0.1-0.7,0.6-1.1,0.7c-0.2,0.1-2.6,0.5-2.6,0.5c-0.9,0-4,0-4.9,0.3c-0.3,0.1-0.5,0.5-0.7,0.6c-0.3,0.2-0.6,0.2-1,0.3
			c-0.8,0.4-2.7,1.6-3.2,2.2c-1.2,1.7-2.3,4.1-3.1,6.1c-0.4,1-0.5,1.9-1,2.9c-0.1,0.3-0.5,0.7-0.6,1c0,0.5-0.1,0.9-0.1,1.4
			c-0.2,0.6-0.5,1.5-0.6,2.1l-0.1,1.6c-0.5,1.7-1.1,3.4-1.6,5c-0.3,1,0.1,2.7-0.1,4c0,0.3,0.1,1.2,0,1.5c-0.2,0.8-0.5,2.1-0.7,3.1
			c-0.1,0.3,0.1,0.8,0.1,1c-0.3,1.5-0.7,5.3-1.6,5.9c0.1,0.1,0.2,0.2,0.3,0.3c-0.6,1.4-1.1,3-0.8,4.5c0.2,0.9-0.6,1.6-0.3,2.8
			c0.3,1.4,0.2,3.1,0.6,4.5c0.2,0.5,0.6,1.3,0.7,1.8c0.2,0.7,0,1.2,0.3,1.9c0.1,0.2,0.4,0.4,0.5,0.5c0,0.2,0.1,0.4,0.1,0.5
			c0.4,0.7,1,1.6,1.4,2.3c0.3,0.6,0.4,1.4,0.5,1.7c1.6,2.8,3.3,5.9,4,9.3c0.1,0.6-0.3,0.9-0.4,1.3c-0.5,1.6-1.3,2.9-1.9,4.3v0.8
			c-0.3,0.8-0.8,1.5-0.5,2.9c0.1,0.5,0.1,1.7,0.2,2.4c0,0.4-0.1,0.8-0.1,1.3c0.4,0.9,0.7,2.4,1,3.4c0.2,0.6,0,1,0.2,1.6
			c0.3,0.6,0.8,1.2,1.2,1.7c0.3,0.4,0.3,0.9,0.7,1.2c-0.6,1.1-1.6,2.3-2,3.6c-0.2,0.6,0.3,1.1,0.4,1.5c0.3,1.1,0,2.3,0.4,3.2v0.7
			c0.2,0.9,0.2,2.1,0.5,3.1c0.7,2.4,1.7,5,2.3,7.3c0.2,0.1-1.4,1.5-1.6,1.8c-0.8,1.1-1,2.8-1.3,4.6c0,0.2,0.4,2.3,0.5,2.5
			c0.3,0.9,1,1.7,1.4,2.5c0.8,2.2,0.1,5,1.8,6.1c-0.1,1.1-0.4,2.1-0.7,3.3c0,0.2-0.3,0.7-0.3,0.8c0.1,1.8-0.3,3.7-0.7,5.3
			c-0.1,0.4,0,0.9,0,1.1c-0.2,0.8-0.9,3-0.6,3.9c0.2,0.6,0.8,1.2,1.1,1.8c0.2,0.4-0.8,2-1.1,2.5c-0.7,1.5-1.1,2.9-1.8,4.5
			c-0.4,0.8-1,1.7-1.4,2.4c-0.3,0.6-0.3,1.1-0.5,1.8c-0.1,0.3-0.4,0.7-0.5,1v0.7c-0.1,0.3-0.4,0.8-0.5,1.1c0,0.2,0.1,0.4,0.1,0.5
			c-0.1,0-0.1,0.1-0.2,0.1c-0.1,0.5-2.5,30.6-2.6,31.2c-0.3,0.3-0.6,0.6-0.8,0.8c-0.3,0.6-0.3,0.9-0.6,1.5c-0.4,0.4-0.7,0.7-1.1,1.1
			c-0.2,0.3-0.2,0.6-0.4,0.7c-0.2,0.1-0.4,0.1-0.6,0.2c-0.1,0.2-0.2,0.4-0.3,0.5c-0.4,0.2-1,0.1-1.5,0.2c-1.4,0.5-3.2,1.1-4.7,1.5
			c-2.2,0.7-4.4,0.3-6.5,1.1c-1,0.4-1.9,1.2-2.8,1.6c-2,0.9-3.7,1.6-5.4,2.8c-0.6,0.4-1.5,1-2,1.6c-0.1,0.1-0.1,0.4-0.3,0.5
			c-0.7,0.5-1.6,0.5-2.2,1.1c-0.4,0.3-0.6,0.9-1,1.4c-0.2,0.2-0.6,0.3-0.7,0.5c-0.5,0.5-0.9,2.4-1,3.3c0.1,0.1,0.2,0.3,0.3,0.4
			c1.9,0.8,4.9,0.7,7.4,0.6h3.7c3.1-0.7,6.4-0.8,10-0.8h4.2c2,0.4,6.3,0.5,8.2,0c0.7,0,1.5-0.1,2.2-0.1c0.4-0.1,2.6-0.8,2.9-1
			c0.2-0.2,0.1-0.4,0.4-0.5c0.1-0.1,0,0,0.2-0.1c0.3,0.7,0.7,0.7,1.1,1.2c1.9,0.1,4.4-0.1,7-0.3c0.1,0,0.4,0.2,0.4,0.2
			c0.7,0.1,1.9-0.2,2.5-0.1c0.1,0,0.6,0.2,0.8,0.1c1.2-0.3,2.1-0.7,3.5-1c0.7-0.1,1.8,0.2,2.2,0.3c0.6,0,1.1,0.1,1.7,0.1
			c0.3,0.1,1.1,0.5,1.4,0.4c2.1-0.2,3.7-1.4,5.5-1.9h1.4c1.7-0.5,3.4,4.6,5.1,4.1c1.8-0.5,2.3,1.1,4.1,0.6c0.7-0.2,1.2,0,2-0.2
			c0.1,0,0.2-0.2,0.3-0.2c0.5,0.3,4.4,0.2,4.8,0.1c1.2-0.3,4.2-1.3,5.4-1.1c1,0.2,3.2,1.3,4.6,1.1c2.3-0.3,3.4-2.1,5.9-2.3
			c0.3,0,1,0.3,1.3,0.3c0.4,0.1,0.7-0.1,1,0c0.7,0.2,1.8,0.6,2.5,0.7c1.2,0.2,2.9-0.3,4-0.5c1.1-0.2,2.7,0.2,3.7,0.3
			c1,0.2,2.5-0.3,3.5-0.4c0.9-0.1,2.2,0.3,3,0.4c0.8,0.1,2-0.3,3-0.1c1.7,0.4,4.5,0.6,6.5,0c0.3-0.1,1.3-0.3,1.6-0.5
			c0.1-0.1,0.1-0.4,0.2-0.5c0.5-0.3,1.3-0.1,1.7-0.5c0.2-0.2,0.2-0.4,0.4-0.6C485.4,428.9,485.3,428.4,485,428z M447.4,199v0.4h-0.1
			c-0.1-0.2-0.1-0.2-0.1-0.4H447.4z M438.3,221.2c0.2-0.5,0.8-0.5,1.2-0.8c0.4-0.4,0.6-1,1.1-1.4c0.9-0.8,2.3-1.3,3-2.3
			c0.4,0,0.7-0.1,1.1-0.1c0.3,0.1,2.3,1.6,2.4,1.8c0.3,0.4,0.3,0.8,0.5,1.2c0.9,1.1,1.5,2.6,2,4c0.2,0.5,0.1,0.9,0.3,1.4
			c1.5,3.4,2.7,7.2,3.9,10.9c0.6,1.7,1.4,3.3,2,4.8c0.5,1.2,0.7,2.5,1.2,3.6v1.3c0.1,0.5,0.3,1.5,0.4,2.1c0.3,2-1.5,5.8-2.1,7.4
			c-0.5,1.2-0.7,2.3-1.3,3.5c-0.3,0.7-1,1.5-1.4,2.1c-0.4,0.7-0.4,1.5-0.8,2.2c-0.2,0.4-0.7,0.9-1,1.4c-0.4,0.9-0.5,1.7-1,2.6
			c-0.1,0.3-0.5,0.6-0.6,0.8c0,0.3-0.1,0.6-0.1,1c-0.1,0.3-0.5,0.8-0.6,1.2c-0.3,0.8-0.2,1.4-0.5,2.2c-0.1,0.3-0.5,0.8-0.6,1.2
			c0,0.1-0.3,1.8-0.3,2c0,0.1,0.2,0.3,0.1,0.5c-0.1,0.4-0.6,1.3-0.4,1.9c0.1,0.2,0.4,0.6,0.4,0.8c0,0.5,0.1,0.9,0.1,1.4
			c0.4,1.4,1.6,4,1.1,6c-0.2,0.7-0.7,1.6-1,2.3v0.7c-0.1,0.1-0.3,0.2-0.4,0.3c0,0.2-0.1,0.4-0.1,0.6c-0.1,0.2-0.4,0.4-0.4,0.5
			c0,0.2-0.1,0.5-0.1,0.7c-0.2,0.4-0.7,0.8-0.8,1.3c-0.3,0.9-0.3,1.7-0.7,2.5c-0.2,0.4-0.3,0.1-0.6,0.3c-0.1,0.1-0.8,1.3-0.8,1.5
			c-0.4-0.1-0.6,0-1.1,0c-0.2-1.5-0.1-2.5,0.7-3.6c0.2-0.3,0.7-0.5,1-0.8c0.6-0.8,0.7-1.7,1.3-2.5c0.3-0.4,0.9-0.8,1.1-1.4
			c0-0.2-0.1-1.2,0-1.4c0.1-0.2,0.3-0.2,0.1-0.5c0-0.8,0-1.3-0.3-1.7c-0.2,0-0.4-0.1-0.6-0.1c-0.9,1-0.7,2.4-1.4,3.5
			c-0.8,1.4-3.3,2.8-4.9,3.5c-0.5,0.2-2.3,1.3-2.9,1c-0.1,0-0.2-0.1-0.3-0.1c0.1-0.9,1.2-1.8,1.9-2.1c0.4-0.1,0.8-0.1,1.3-0.2
			c0.3-0.2,0.5-0.7,0.7-1c0.4-0.5,1.2-0.7,1.6-1.3c0.3-0.5,0.5-0.9,1-1.3c0-0.6,0.1-1.1,0.2-1.6c0-0.4-0.1-0.7-0.1-1.1
			c0.1-0.6,0.6-1.6,0.4-2.2c0-0.2-0.3-0.7-0.3-1c-0.1-0.4,0.2-0.7,0.1-0.8c-0.3-0.7-1.1-0.6-1.5-1.3c-0.5,0-0.9-0.1-1.4-0.1
			c-0.3,0.1-0.3,0.4-1,0.4c-0.1,1.2-1,1.7-1.4,2.5c-0.2,0.4,0,0.7-0.2,1.1c-0.1,0.1-0.3,0.3-0.4,0.4v0.6c-0.2,0.3-0.5,0.5-0.6,1
			c-0.2,0.1-0.1,0-0.2,0.1h-0.1c0-1,0-2.5,0.5-3.5c0.2-0.4,0.8-0.6,1-1.1v-0.8c0.1-0.5,0.6-1.3,1-1.7c0.7-0.5,2.5-0.9,3.3-1.6
			c0.2-0.3-0.1-0.8,0.1-1.2c0.2-0.4,1.2-1.1,1.5-1.5c0.6-0.8,1.3-1.5,1.8-2.3c0.4-0.5,0.4-1.3,0.8-1.8c0.2-0.3,0.7-0.6,0.8-1.1
			c0.3-0.9-0.3-1.3,0-2.2c0.2-0.7,0.7-1.5,1-2.2l0.1-1.3c0.5-1.6,1.2-3.4,1.8-5.1c0.1-0.8,0.2-1.7,0.3-2.5c0.1-0.4,0.5-1.1,0.6-1.5
			c0.4-1-0.1-2.1,0.2-3.3c0.2-1,0.4-2.2,0.3-3.3c-0.1-0.8,0.2-1.8-0.1-2.5c-0.2-0.4-0.7-0.8-0.8-1.2c-1.5-3.3-3.2-6.3-5.1-9.2
			c-0.3-0.4-0.3-1-0.5-1.4c-0.2-0.2-0.4-0.4-0.5-0.5v-0.5c-0.4-0.6-1.7-1.5-1.9-2.2h-0.4c0.2,2.2,0.7,2.3,1.4,3.7
			c0.1,0.3,0,0.6,0.2,0.8c0.1,0.2,0.5,0.3,0.6,0.5c0,0.2,0.1,0.5,0.1,0.7c0.2,0.1,0.4,0.2,0.5,0.3v0.5c0.1,0.2,0.4,0.4,0.4,0.5
			c0.3,0.6,0.4,1.2,0.7,1.7c-0.2,1.1-1,1.9-1.4,2.9c-0.4,1-0.2,2.3-0.7,3.2v0.2h-0.1c-0.9-1.4-2-2.9-2.9-4.3
			c-1.2-2.1-1.8-5.1-2.4-7.7c-0.2-0.7,0.1-1.8,0.1-2.6c0-0.9-0.2-2.1-0.1-2.8C438.4,225.2,437.3,222.5,438.3,221.2z M449.1,250
			c-0.1,0.3-0.1,0.9-0.2,1.4c0,0.2,0.1,0.5,0.1,0.7c-0.2,0.6-0.6,1.3-0.7,2c0,0.6-0.1,1.2-0.1,1.8c-0.2,0.5-0.5,1.2-0.6,1.7
			c-0.2,0.7-0.1,1.2-0.3,1.8c-0.2,0.4-0.6,0.8-0.7,1.3c-0.3,0.9-0.1,1.7-0.4,2.6c-0.2,0.5-0.6,1.5-0.8,2c-0.4,0.9-0.2,1.7-0.5,2.6
			c-0.3,1-1.8,3.5-2.5,4v0.1c-1-0.4-0.6-1.4-1-2.4c-0.2-0.5-0.7-0.8-1-1.2c-0.2-0.4,0-0.8-0.2-1.2c-0.1-0.1-0.3-0.1-0.4-0.2
			c-0.1-0.1,0-0.8-0.1-1.2c-0.1-0.4-0.5-1-0.2-1.7c0.2-0.4,0.6-1,0.7-1.5v-0.5c0.1-0.2,0.5-0.3,0.6-0.5c0.3-0.5,0.4-1.1,0.7-1.6
			c0.7-1,1.7-2.2,2.2-3.4c0.4-0.9,0.3-1.7,0.6-2.6c0.2-0.4,0.7-1.1,0.8-1.6c1.2-3.2,1.9-6.8,2.4-10.3c0.6,0.3,0.6,1,1,1.6
			c0.8,1.5,1.1,2.6,0.6,4.6C449,248.8,449.2,249.4,449.1,250z M435.6,222.1c0.3-0.1,0.6-0.1,1-0.2c0,0.2-0.2,3.9-0.3,4.1v0.2
			c-0.6-0.1-1.2-0.2-1.9-0.1C434.4,224.7,435.1,223.3,435.6,222.1z M416,221.1v-0.3c1.8-0.2,2.2-1,3.3-1.7c0.4-0.2,0.8-0.2,1.1-0.5
			c0.6-0.6,0.5-1.6,1.4-1.9v-0.4h0.3c0-0.6,0.2-1.1,0.3-1.5c0-0.9,0.1-1.8,0.1-2.6c0.1-0.3,0.3-0.6,0.2-1.1
			c-0.1-0.6,0.1-1.7-0.1-2.4c-0.1-0.6-0.3-1.3-0.4-1.9c-0.1-0.4,0.2-0.9,0.1-1.5c-0.2-0.9-0.4-1.8-0.4-2.9c1.1-0.1,1.9-0.5,2.8-0.7
			c0-0.6,0.1-0.3,0.2-0.7c0.1-0.4-0.2-0.4-0.2-0.8c-0.7-0.3-1.2-0.6-1.8-1c-0.9-3.9,0.9-6.4,3.2-8.4c0.7-0.6,1.1-1.6,2.1-1.9v-0.3
			c1.3,0,2.9-0.4,3.9-0.7c0.3,0,0.6,0.1,0.8,0.1c1.2-0.2,3-0.2,3.9-0.3c0.6-0.1,2,0.5,2.8,0h0.2c0.2,1.2-0.3,2.9-0.1,3.8
			c1.2,5.1,1.2,8.4-1,12.4c-0.9,0.1-2.2,0.1-2.9,0.4c-0.1,0.5-0.2,0.5-0.1,1.1c0.5,0.1,0.7,0.3,1,0.6h0.4c0,0.5,0.1,0.5,0.3,0.7
			c-0.1,0.5-1.5,2.6-1.8,2.9c-0.2,0.2-0.5,0.1-0.7,0.3c-0.9,0.8-1.6,1.9-2.5,2.6c-0.6,0.4-1.1,0.5-1.8,0.8c-0.1,0.1-0.3,0.3-0.4,0.4
			c-1.2,0.6-3.1,0-3.7-0.6c-0.5,0-1,0-1.3,0.1c-0.1,0.3-0.1,0.5-0.1,1c0.7,0.1,0.8,0.6,1.3,1c0.7,0.5,2.3,0.5,3.2,0.5
			c0,0,0.1,0.1,0.1,0.1c-0.1,0.4-0.4,0.6-0.5,1c-0.2,0.6,0.1,1,0.2,1.4c0.6,2.3,1.5,3.6,3.9,4.1c-0.1,2.3-1.3,5-2.2,6.6
			c-0.2,0.4-0.1,0.7-0.3,1.2c-0.2,0.5-0.8,1-1.1,1.5c-0.3,0.5-0.2,1.1-0.4,1.6c-0.4,0.9-2.5,4.4-3.2,4.8c-0.5,0.3-0.9,0.1-1.5,0.3
			c-0.7,0.2-1.3,0.8-2.1,1c-1.5,0.3-4.3-1.6-4.9-2.4c-0.6-0.6-1.1-1.1-1.7-1.7c-1.1-1.6-1.5-3.5-2.2-5.5c-0.7-2-1.7-4.1-1.7-6.9
			C413.2,222.2,414.3,221.3,416,221.1z M409,222.8c0.5,0,0.7,0.1,1.2,0c0.1,0.1,0,0,0.2,0.1c0,0.8-0.1,2.2,0.2,2.6v1
			c-0.6-0.1-0.8,0.1-1.4,0.2c-0.1-0.5-0.2-0.5-0.3-0.8C408.9,224.9,409,223.8,409,222.8z M408,234.5c0-0.8,0.7-3.8,1.1-4.2
			c0-0.6,0-0.9,0.2-1.2c0.5,0.1,1.2,0.2,1.6,0.4c1.5,0,1.2,2.4,1.9,3.3v0.3c-1.5-0.5-1.4,0.3-2.5,0.4c0,0.5,0,1,0.2,1.3
			c0.3,0.8,1.1,0.7,1.7,1.1c1,0,1.1-0.1,1.6-0.5c0,0,0.1-0.1,0.1-0.1c0.2,0.3,0.7,1.2,1,1.4c0.3,0.3,0.9,0.5,1.2,0.7
			c0.2,0.2,0.2,0.5,0.3,0.7c0.4,0.5,1.8,1.3,2.4,1.7c-0.1,0.5-0.4,0.9-0.7,1.2c0,0.4,0.1,0.9,0.3,1.2c0.3,0.5,1.7,0.5,2.4,0.4
			c0.2-0.2,0.6-0.5,0.8-0.6c0-0.4,0-0.8,0.1-1.1c0.3-0.2,0.6,0,0.8-0.1c0.5-0.2,1.4-0.6,1.9-0.8c1-0.4,1.9-0.2,2.6-0.7
			c0.3-0.2,2.5-3.1,2.6-3.5c0.4-0.9,0.7-2.4,1.4-2.8c0.2,0.5,0.3,0.7,0.5,1.1c0.7,0.2,1.6,0.6,2.2,0.2c0.4-0.2,0.6-0.5,0.8-0.8
			c0-0.4,0-0.8-0.2-1.1c-0.2-0.6-1.9-1.3-2.4-0.8H432c0.2-1.4,1.3-2.3,1.5-3.7c0.4,0.2,0.2,0.2,0.4,0.5c0.5,0.6,1.4,0.8,2.3,0.7
			c0.1,2.5,0.2,4.7,0.8,6.8c0.2,0.5,0.1,0.8,0.3,1.2c0,0.3,0,0.4-0.1,0.5c0,0-1,0-1.2,0.1c-0.7,0.1-0.8,0.6-1.3,1
			c0.1,0.6,0.5,1,0.7,1.5c1.2,0.3,1.6,0.4,2.9,0.1c0.8,1.6,3,5.7,4.5,6.5c0,0.7-0.2,1.1-0.4,1.6c-0.4-0.1-0.4-0.2-0.6-0.3
			c-1.1-0.5-1.9,0.6-2.5,1c0,0.2-0.1,0.4-0.1,0.6c0.8,0.8,1.1,1.2,2.4,1.5c-1.3,3.2-2.2,7.1-4.5,9.3v0.1c-0.3-0.1-0.4-0.4-0.6-0.5
			c-0.4-0.2-0.9-0.1-1.3-0.3c-1,0.1-1.3,0.7-1.8,1.3v0.4c0.2,0.2,0.8,0.8,1,1.1c0.6,0,0.7,0.2,1.4,0.2c-0.1,0.7-0.4,1.2-0.5,1.8
			c-0.3,1.4,0.9,5,1.4,5.7c0.1,0.2,0.5,0.2,0.6,0.4c0.4,0.5,0.1,0.9,1,1.1c-0.1,0.3,0,0.1-0.2,0.2c0,1.1,1,1.9,1.7,2.3
			c-0.2,0.4-0.8,0.5-1.2,0.7c-0.3,0.2-0.1,0.6-0.3,1c-0.3,0.5-1.1,0.5-1.5,0.8c-0.8,0.8-2,4-2.3,5c0,0.6-0.1,1.2-0.1,1.8
			c-0.3,1.2-0.5,3,0.3,3.8c0,0.2,0,0.3-0.1,0.4c-0.2,0.1-0.1,0-0.2,0.1c-1.6-1.5-2.3-1-3.6,0.3c0,0.2,0.1,0.5,0.1,0.7
			c0.3,0.1,0.5,0.3,0.6,0.5c0.4,0.1,0.8,0.1,1.2,0.2v0.3c-0.8,0.5-1.2,1.6-2,2.2c-0.5,0.4-1.1,0.6-1.5,1.2c-0.1-0.2,0-0.5,0-0.5
			c-0.1-0.2-0.3-0.2-0.4-0.5c-0.9-0.2-1.8-0.7-2.5,0c-0.5,0.2-0.5,0.6-0.8,1c0.1,0.4,0.3,0.7,0.4,1.1c0.4,0.2,0.7,0.4,1.3,0.4
			c-0.2,0.4-2.2,1.9-2.6,2.1c-0.3,0-0.6,0.1-1,0.1c-0.6,0.3-0.9,0.9-1.7,1c-0.1-0.4-0.2-0.4-0.4-0.7c-0.3-0.1-0.6-0.2-1-0.3
			c-1.2,0-1.4,0.4-2,0.8c-0.1,0.4-0.3,0.8,0,1.2v0.4h-0.1c-0.6,0.5-1.5,0.5-2.3,0.8c-0.3,0.2-0.7,0.6-1.1,0.7
			c-0.9-1.8-2.4-2.9-4.1-3.8c-0.1-0.5,0.2-1.4-0.2-1.8c-0.1-0.3-0.4-0.4-0.7-0.5c-0.6-0.4-1.5,0.1-1.9,0.3c-0.5-0.8-1.3-1.5-1.7-2.3
			c-0.3-0.5-0.2-1.1-0.5-1.5v-0.4c0.9,0.6,1.9,0.7,2.9,0.3c0.2-0.1,0.4,0.1,0.5-0.1c0.1-0.5,0.2-1,0.3-1.5c-0.3-0.3-0.4-0.7-0.8-0.8
			c-1.1-0.7-2.8,0.1-3.1,1h-0.2c-0.6-1.4-1.3-3.9-0.6-5.1c-0.4-0.4-0.5-0.6-1.1-0.8c-0.2-0.8-1.1-3-0.5-3.7c0.1-0.2,0.8-0.9,1-1
			c0.4-0.2,1,0.5,1.7,0.3c0.5-0.1,0.9-0.3,1.4-0.6c0-0.8-0.1-1.2-0.2-1.7c-0.5-0.2-1.2-0.3-1.6-0.6c0,0,0.3-1.2,0.4-1.6
			c0.5-1.4,1.2-2.8,1.6-4.3c0.8,0.4,1.9,1.2,3,0.4c0.3-0.1,0.4-0.2,0.5-0.5c0.1-0.1,0.2-0.6,0-0.8c0-0.5-0.2-0.7-0.6-0.8
			c-0.6-0.5-1.8-0.3-2.3,0.1h-0.2c0-1.6,0.4-2.9,0.1-4.3c0-0.3-0.3-1.3-0.4-1.6c-0.1-0.2-0.5-0.5-0.6-0.7v-0.7
			c-0.2-0.7-0.9-1.3-1.2-1.8c0-0.3-0.1-0.6-0.1-0.8c-0.1-0.2-0.5-0.6-0.6-0.8c0-0.2-0.1-0.4-0.1-0.6c-0.1,0-0.2-0.1-0.3-0.1
			c-0.2-0.3-0.2-0.7-0.4-1c-0.2-0.3-0.8-0.7-1-1v-0.4c-0.2-0.3-0.7-0.6-1-1v-0.3c-0.3-0.5-0.9-1.2-1.1-1.7c-0.1-0.4,0.3-0.9,0.1-1.4
			c-0.2-0.5-0.8-1.2-1.4-1.4v-0.2c0.8-0.7,1.2-1.8,2.1-2.3V246h0.4v-0.3c0.9-0.5,1.8-1.8,2.3-2.8c0.2-0.3,0.1-0.7,0.3-1.1
			c0.2-0.1,0.4-0.2,0.6-0.3c0.3-0.4,0.2-0.9,0.4-1.5c0.7-1.4,1.6-3.1,2.2-4.6C408.2,235.1,408,234.7,408,234.5z M405.5,269.6
			c-0.1,0-0.1,0.1-0.2,0.1c-0.1,0.5-0.1,1.1-0.2,1.6c-0.1,0.4-0.5,0.8-0.6,1.2c-0.4,0.8-0.2,1.8-0.6,2.5c-0.5,1-1.4,2.2-1.8,3.4
			c-0.5-0.3-0.5-1.1-0.7-1.6c-0.3-0.8-0.9-1.5-1.2-2.2c-0.3-0.7-0.2-1.4-0.4-2.1c-0.6-1.9-1.5-4-2-5.9c0-0.8,0.1-1.7,0.1-2.5
			c-0.1-0.8,0.4-1.9,0.7-2.6c0.1-0.7,0.2-1.4,0.3-2.1c0.2-0.5,0.6-1.2,0.7-1.7c0.4-1,0.3-2.5,0.6-3.4c0.5,0.4,0.6,1.2,1,1.7
			c0.4,0.5,1,1,1.4,1.5c0.5,0.8,0.6,1.6,1.1,2.4c1.5,2.7,2.9,5.3,1.9,8.9C405.4,269,405.6,269.3,405.5,269.6z M391.8,284.4
			c-0.2-0.5-0.2-1.1-0.4-1.6c-0.2-0.2-0.5-0.5-0.7-0.7c-0.4-0.7-0.4-1.5-0.8-2.3c-0.1-0.3-0.5-0.6-0.6-1c0-0.3-0.1-0.6-0.1-0.8
			c-0.5-1-1.2-1.2-1.1-2.4h-0.3c-0.1-1.7-0.9-3-1.3-4.3v-1.7c-0.1-0.5-0.5-1.4-0.3-2.2c0-0.2,0.3-0.5,0.3-0.6
			c0.3-1.1-0.2-1.8,0.1-2.8c0.7-2.6,1.4-5.4,2-8.1c0-0.7-0.1-1.5-0.1-2.2c0.4-1.5,0.4-3,0.7-4.3c0.2-0.9-0.2-2.2,0.1-3.4
			c0.2-1,0.6-2,1-2.9c-0.2-0.6,0.4-2.1,0.5-2.5v-0.8c0.2-0.7,0.4-1.7,0.6-2.3c0.1-0.4,0.1-0.8,0.2-1.3c0.3-0.5,0.4-1,0.6-1.6
			c0.1-0.2,0.5-0.6,0.6-0.8c0.3-0.7,0.3-1.9,0.6-2.5c0.1-0.1,0.3-0.2,0.4-0.3c0.3-0.5,0.3-1,0.5-1.6c0.1-0.2,0.3-0.2,0.4-0.3
			c0.1-0.2,0.1-0.5,0.2-0.7c0.3-0.4,1.1-1.8,1.5-2.1c0.7-0.5,1.5-0.6,2.2-1.2c0.2-0.2,0.3-0.5,0.6-0.6c0.6-0.2,2.2-0.4,2.9-0.5
			c0.5-0.1,1.1,0.2,1.5,0.1c1.1-0.2,2.3-0.4,3.5-0.3c0,0.6,0.1,1.1,0.2,1.6c0.1,0.6-0.2,1.4-0.1,1.8c0,0.4,0.3,1,0.2,1.5
			c-0.2,1-0.4,1.9-0.5,2.9l-0.3,0.3c-0.3,0.9,0,2.2-0.3,3.1c-1.5,4.8-3.8,8.7-6.9,11.9c-0.1,0.1-0.1,0.1-0.3,0.1
			c0,0.2,0,0.3-0.1,0.4c-0.2,0.1-0.2,0-0.5,0c0,0.2,0.1,0.4,0.1,0.5c-1,0.8-0.9,0.9-1.4,2.2v0.6c-0.2,0.4-0.6,0.8-0.7,1.3
			c0,0.7-0.1,1.5-0.1,2.2c-0.2,0.8-0.6,1.7-0.8,2.5v0.7c-0.1,0.2-0.4,0.4-0.4,0.5c-0.1,0.3-0.1,1.1-0.3,1.6
			c-0.1,0.2-0.4,0.3-0.4,0.5c0,0.2,0.1,0.4,0.1,0.6c-0.5,1.5-0.6,3.4-0.8,5c0,0.3-0.4,0.9-0.4,1.2c0.3,0.6,0,1,0.2,1.7
			c0.2,0.8,0.8,1.6,1.1,2.3c0.2,0.6,0,1.2,0.2,1.8c0.4,0.9,1.2,1.9,1.6,2.9c1,2.4,2,4.8,3,7.3c0.2,0.6,0,1.3,0.3,2
			c0.3,0.7,0.7,1.7,1,2.4c0.2,0.7,0,1.2,0.2,1.8c0.1,0.3,0.4,0.7,0.5,1c0,0.4,0.1,0.7,0.1,1.1c0.1,0.1,0.4,0.3,0.4,0.5
			c0,0.5,0.1,1,0.1,1.5c0.1,0.2,0.4,0.5,0.5,0.6c0.5,1,0.2,1.7,0.7,2.6c0.2,0.4,0.6,0.7,0.7,1.2c0.2,0,0.4,0.1,0.5,0.1
			c0,0.2,0,0.2,0.1,0.3c0.1,1,1.2,1.2,1.9,1.7c0.7,0.4,1.6,0.9,2.3,1.3c0.6,0.3,1.1,0.2,1.6,0.5c0.1,0.2,0.3,0.4,0.4,0.5
			c0.2,0,0.5,0.1,0.7,0.1c0.2,0.1,0.1,0.4,0.3,0.5c-0.5,1.1-2,0.6-2.6,1.2c-0.7-0.1-1.2-0.7-1.6-1.1c-0.5,0.1-0.7,0.2-1.1,0.4
			c0,1.4,0.1,0.7,0.6,1.3c0.1,0.2,0.1,0.5,0.2,0.7c0.4,0.4,0.8,0.7,1.2,1.1c0.1,0.2,0.1,0.4,0.2,0.5c0.7,0.9,2,1.3,2.6,2.2
			c0.5,0.6,1,1.6,1.6,2.1v0.1c-0.8-0.1-1.8-0.6-2.1-1.2c-0.2-0.3-0.1-0.5-0.3-0.7c-0.4-0.4-1.1-0.6-1.4-1.2c0-0.2-0.1-0.4-0.1-0.5
			c-0.4-0.4-1.1-0.5-1.5-0.6H407c0,0-0.5-1.5-0.5-1.6c-0.4,0.1-0.7,0.1-1.1,0.2c-0.2,1.3,0.2,3,0.7,3.9c0.1,0.1,0.4,0.1,0.5,0.2
			c0.1,0.3,0.1,0.6,0.2,1c0.1,0.4,0.6,0.8,0.7,1.1c0.2,0.4,0.2,1.2,0.3,1.7c0.2,0.5,0.5,2.2,0.3,2.5c0,0.3,0,0.6-0.1,0.7v0.1h-0.2
			c-0.6-2.3-1.6-4.5-2.3-6.6v-0.6c-0.3-0.9-0.7-2-1.2-2.8c-0.9-0.2-1.1,0.2-1.7,0.5c0.1,0.6-0.1,0.9-0.1,1.6
			c0.8,0.7,1.4,2.1,1.8,3.2c0,0.3,0.1,0.6,0.1,0.8c0.7,1.4,1.8,3.8,1.7,5.8c-0.5,0-1.5-1-1.7-1.3c0-0.4-0.1-0.8-0.1-1.3
			c-0.1-0.3-0.6-0.6-0.7-1c-0.3-0.8-0.1-1.4-0.4-2.1c-0.7-1.7-1.5-3.5-2.1-5.2c-0.3,0-0.4,0-0.5,0.1c-1.3,0.1-1.3,1.2-1.5,2.4
			c-0.1,0.4,0.4,1.4,0.5,2c0.2,1-0.1,2.1,0,2.6c0,0.2,0.2,0.3,0.2,0.6c0.1,1.5-0.5,4.1,0.3,4.9c0,0.4,0,0.9-0.1,1.2h-0.5
			c-0.2-0.6-0.4-1.3-0.5-1.9c0-0.7,0.1-1.3,0.1-2c-0.2-0.9-0.3-2-0.5-3c0-0.6-0.1-1.1-0.1-1.7c-0.1-0.2-0.4-0.5-0.5-0.7
			c-0.3-0.6-0.1-1.1-0.3-1.8c-0.1,0-0.1-0.1-0.2-0.1c0-0.4-0.1-0.7-0.1-1.1h-0.2c-0.1-0.3,0.2-1.4,0.2-1.7c0-0.2-0.2-0.3-0.2-0.4
			c0-0.2,0.1-0.5,0.1-0.6c-0.2-1.1,0.3-2.5,0.5-3.4c0.1-0.4-0.2-0.7-0.2-1c-0.2-0.8,0.2-2.1,0.1-2.6c-0.2-0.9,0.2-1.5-0.1-2
			c-0.1-0.2-0.7-0.5-1-0.5c0-1-0.6-1.6-0.8-2.3v-0.8c-0.3-0.8-0.8-1.7-1.2-2.3c-0.3-0.5-0.2-1.5-0.4-2c-0.1-0.1-0.2-0.1-0.3-0.2
			v-0.7C393.3,287.1,392.4,285.7,391.8,284.4z M392.6,307.7c-0.4-1.4-0.2-3-1-4v-0.4h0.1c0.4,0.7,1.1,0.9,1.5,1.5
			c0.2,0,0.3,0,0.4,0.1c0.5,0,0.5-0.1,0.7-0.4c0.5,0,0.4,0.1,0.8,0.2c0.1-0.6,0.7-1.2,0.4-1.8c0-0.6-0.1-0.7-0.3-1.1
			c-0.4-0.1-1.1-0.4-1.4-0.2c-1,0-2,0.6-2.1,1.4h-0.2c0-2.4-0.1-4.1,0.5-5.9v-0.5c0.1,0,0.2-0.1,0.3-0.1c0.1-0.2-0.1-0.3,0-0.6
			c0.1-0.2,0.4-0.6,0.5-0.7c0.3-0.5,0.1-0.9,0.5-1.3v-0.1c0.7,0.3,0.6,2.1,1.4,2.8c-0.2,0.4-1.4,1.2-1.8,1.5c0,0.7,0.1,1.3,0.4,1.7
			v0.2c0.4,0,0.4-0.2,0.6-0.2c0.5,0.1,1,0.5,1.6,0.1c0.1,0.1,0,0,0.1,0.2c0.3,0.4-0.2,1.3-0.1,1.6c0.2,1.2,0.3,2.7-0.1,4.1
			c-0.1,0.2-0.3,0.8-0.3,1c0,0.4,0.3,1.2,0.3,1.6c0,0.2-0.2,0.3-0.2,0.4c-0.1,0.3,0.2,1.4,0.3,1.7c0,0.3,0,0.7-0.1,0.8
			c-0.2,0.1-0.5,0.2-0.6,0.3c-1-0.1-0.9-1-1.3-1.6C393.3,309.2,392.8,308.5,392.6,307.7z M479.5,430.1c-0.5,0.3-1.3,0-2,0.2
			c-1.1,0.3-1.2-0.2-2.1-0.1c-0.5,0.1-1.3,0-2-0.2h-2.5c-0.3,0-0.9-0.2-1.4-0.1c-0.6,0.1-1.5-0.2-2.2,0c-1.8,0.4-3.5,0.1-5.6,0.1
			c-1.5,0-2.6,0.6-3.8,0.4c-1-0.2-3.5-1.3-4.7-1.1c-0.9,0.2-2,0.2-2.9,0.6c-0.9,0.4-1.7,1.2-2.8,1.6c-1,0.4-3.1-0.6-3.7-0.8
			c-0.8-0.2-1.7,0-2,0c-1.7,0-3.4,0.7-4.8,1.1c-1.3,0.3-2.7,0-4,0c-1.1,0-2.5,0.4-3.2,0h-0.2c0.1-0.5,0.3-0.8,0.4-1.3
			c0-0.3-0.1-0.6-0.1-0.8c0.2-0.9,0.1-1.8,0.3-2.4c0.1-0.6-0.3-1.5-0.6-1.6c-0.3-0.1-0.6,0.1-0.7,0.2c-0.8,0.3-0.8,2-0.6,3.2
			c0,0.1,0.2,0.3,0.1,0.5c-0.1,0.3-0.5,1.2-0.7,1.5c-0.9,0.7-3.5-5.3-4.6-4.7c-0.7,0.4-1.6,0.6-2.5,1c-0.7,0.3-1.5,0-2.1,0.3
			c-1.1,0.5-2.5,1-3.8,1.4c-1.6,0.4-3.4-0.5-4.6-0.7c-1.7-0.4-4.6,0.7-6.1,1c-0.3,0.1-1.2-0.2-1.5-0.2c-0.7-0.1-3.1,0.1-4.1,0.3
			c-0.4,0.1-0.7-0.1-0.8,0c-0.6,0-1.4,0.1-1.9-0.1c0-0.2,0-0.3,0.1-0.4c0.5-0.1,1.1-0.4,1.7-0.3c0.3,0.1,0.9,0.3,1.4,0.2
			c0.5-0.1,1.1-0.7,1.6-0.8c0.7-0.1,1.3-0.2,2-0.3c1.8-0.6,3.9-1.6,5.2-2.9c0.4-0.4,0.5-1,0.8-1.5c0.4-0.4,0.7-0.7,1.1-1.1
			c0.4-0.6,0.5-1.1,0.8-1.7c0.2-0.1,0.4-0.3,0.5-0.4c0.7-1,1.3-2,2-3c0.2-0.1,0.4-0.3,0.5-0.4c0.5-0.7,0.7-1.4,1.3-2
			c0.4-0.5,1.1-0.9,1.5-1.5c0.1-0.3,0.2-0.6,0.3-0.8c0.3-0.4,0.9-0.6,1.2-1c0.1-0.1,0.1-0.4,0.2-0.5c0.3-0.2,4.8-28.8,5.1-29.1
			c0.1-0.2,0.3-0.4,0.4-0.5c0.5-0.3-0.7-1.2-0.2-1.5c0.4-0.2,0.6-0.6,1.1-0.8c0.1-0.3,0.2-0.7,0-1c-0.1-0.3-0.2-0.2-0.3-0.5
			c-1.8,0.1-6.6,32.1-7.5,33.3c-0.3,0.3-0.6,0.6-1,0.8c-1.3,1.7-2.5,3.3-3.9,4.9c-0.2,0.3-0.2,0.7-0.4,1c-0.6,0.9-1.4,1.8-2,2.6
			c-0.2,0.2-0.4,0.4-0.6,0.5c-0.6,0.9-1.1,2.4-2,3H406c-0.1,0.1-0.1,0.4-0.2,0.5c-0.6,0.5-3.1,1.6-3.9,1.9h-1.5
			c-0.8,0.1-1.9,0.2-2.6,0.3l-0.7-0.1c-2,0.5-3.2,1.6-4.8,2.4c-1.1,0.6-2.6,0.9-3.8,1.3h-1.2c-1.7,0.4-5.5,0.6-7.6,0.1h-1.3
			c-1-0.2-3.2-0.4-4.3-0.1c-1,0.2-2.2,0-3.3,0.2c-3,0.7-6.3,0.7-9.9,0.7c-1.2,0-4.4,0.3-5.1-0.2h-0.2c0.5-1,0.9-2.2,1.8-2.9
			c0.6-0.4,1.4-0.6,2-1.1c0.1-0.2,0.1-0.4,0.2-0.6c0.5-0.7,1.7-1.3,2.3-1.8c0.1-0.1,0.1-0.3,0.2-0.4c0.5-0.3,1-0.3,1.5-0.6
			c0.3-0.2,0.7-0.7,1.1-0.8c0.6-0.3,1.1-0.2,1.6-0.4c1.2-0.6,2.4-1.6,3.7-2.1h0.7c0.8-0.2,1.8-0.5,2.8-0.6c0.2,0,0.5,0.2,0.8,0.1
			c1.6-0.4,3.7-0.9,5.2-1.5c0.7-0.3,1.3-0.1,2.1-0.3c0.5-0.2,1.4-0.7,2-1.2c0.9-0.7,3.1-3.7,3.5-5c0-0.5,2.5-30.5,2.5-31
			c0.1-0.2,0.4-0.6,0.4-0.8c0.1-0.4,0-0.9,0.2-1.5c1-2.7,2.2-5.3,3.4-7.8c0.7-1.4,0.9-2.9,1.9-4c0.3-0.2,0.9-0.1,1.1-0.2
			c1.5,0,1.9-1.4,2.6-2.2c0.2-0.3,0.7-0.4,1-0.7c0.3-0.4,0.8-1.3,1.3-1.6c0.2-0.1,0.4-0.1,0.6-0.2c0.6-0.7,0.9-1.4,1.5-2
			c0.7-0.8,1.5-1.4,2.2-2.1c0.9-1,1.3-2.3,2-3.4c1.4-2.2,3-4.4,4.5-6.6c0.7-1.1,1.7-2,2.4-3.1c0.3-0.4,0.9-0.7,1.3-1.1
			c0.1-0.2,0.3-0.9,0.4-1.1c0.2-0.2,0.7-0.4,0.8-0.6c1.4-2.1,3.3-3.6,4.9-5.5c0.6-0.8,0.9-1.8,1.5-2.6c0-0.6-0.1-0.8-0.5-1
			c-0.2-0.1-0.5,0-0.7,0.2c-0.6,0.3-0.7,1.3-1.1,1.9c-0.2,0.2-0.4,0.4-0.6,0.5c-0.3,0.5-0.5,0.9-0.8,1.4c-0.4,0.6-1.3,1-1.7,1.6
			c-0.3,0.4-0.4,0.8-0.6,1.2c-0.3,0.4-0.9,0.5-1.2,0.8c-0.5,0.6-1,1.5-1.5,2.1c-0.3,0.4-0.9,0.8-1.3,1.2c-0.3,0.3-0.3,0.8-0.6,1.2
			c-0.1,0.1-0.4,0.2-0.5,0.3c-0.5,0.6-1,1.2-1.4,1.8c-0.3,0.4-0.3,0.9-0.5,1.3c-0.2,0.1-0.4,0.2-0.5,0.3c-1.2,1.7-2.1,3.5-3.3,5.3
			c-0.1,0.1-0.3,0.1-0.4,0.2c-0.3,0.5-0.4,1.1-0.7,1.6c-0.2,0.2-0.5,0.4-0.7,0.6c0,0.2-0.1,0.4-0.1,0.5c-0.4,0.4-1,0.8-1.4,1.2
			c-0.8,0.8-1.4,1.6-2.1,2.4l-1.6,1.6h-0.3v0.3c-0.8,0.5-2.2,2.7-3,2.6c-1.1,0-1.1-0.5-1.7-1c-0.2-2.4,0.4-4.9,1-7
			c0.1-0.8,0.1-1.6,0.2-2.3c0.1-0.4,0.8-3.2,0.7-3.3c0-0.2,0.3-0.5,0.4-0.7c-0.4-0.9,1.4-1.4,1.9-1.8c0.9-0.6,2.1-1,3-1.7
			c0.9-0.6,1.7-1.5,2.5-2.1c0.5-0.3,1.1-0.7,1.4-1.2c2.7-3.9,5.3-7.8,7.7-11.9c0.3-0.5,1-0.9,1.4-1.4c0.5-0.6,0.9-1.2,1.4-1.8
			c0.2-0.2,0.6-0.3,0.7-0.5c0.7-1.1,1.4-2,2.1-3c0.3-0.4,0.4-1.1,0.7-1.5c0.2-0.2,0.6-0.4,0.8-0.6c0.4-0.5,0.7-1.1,1.1-1.6
			c0.1-0.1,0.3-0.2,0.4-0.3c0.1-0.2,0.1-0.4,0.2-0.6c0.1-0.1,0.4-0.2,0.5-0.3c0.9-1.2,1.6-2.4,2.4-3.6c0.7-1,1.9-1.7,2.5-2.6
			c0.6-0.8,0.9-1.7,1.8-2.2c0-0.3,0-0.5-0.1-0.6c-0.2-0.4-0.9-0.5-1.3-0.2c-0.8,0.2-1.8,2.3-2.2,3c-0.4,0.6-1.2,1.2-1.7,1.8
			c-0.4,0.4-0.5,1.1-0.8,1.5c-1.3,1.6-2.6,3.2-3.8,4.9c-1.4,1.9-2.9,3.9-4.3,5.8c-0.8,1.1-2.4,2.2-3.2,3.3c0,0.2-0.1,0.4-0.1,0.5
			c-0.6,1.1-1.7,2.2-2.3,3.3c-0.1,0.3-0.2,0.6-0.3,0.8c-0.3,0.4-0.9,1-1.2,1.5v0.4c-0.3,0.6-1.1,1.1-1.5,1.7c-1.1,1.7-2,3.3-3.5,4.6
			c-0.2,0.2-0.2,0.5-0.4,0.6c-0.2,0-0.4,0.1-0.5,0.1c-0.1,0.1-0.2,0.3-0.3,0.4c-0.7,0.5-1.4,1-2,1.4c-1,0.7-2.2,0.8-3.2,1.6
			c-0.4-0.1-0.4-0.2-0.8-0.2c0.1-0.5-0.3-0.7-0.4-1.2c0-0.2,0.2-0.6,0.2-0.7c0,0-0.3-2.5-0.3-2.6c-0.6-1.7-1.9-2.8-2.2-5
			c-0.2-1.3,0.6-3.8,1.3-4.2c0.3-0.2,0.6-0.1,1-0.5c1.1-1.3,1.9-1.3,3.3-2.2c1.2-0.8,2.6-2,3.9-2.6c1.4-0.6,2.7-0.8,3.9-1.6
			c0.6-0.4,1.1-1,1.7-1.4V325c0.8-0.2,1-1,1.5-1.5h0.3c0-0.1,0.1-0.2,0.1-0.3c0.2-0.2,0.5-0.1,0.7-0.3c0.3-0.2,0.4-0.6,0.6-0.8
			c0.2-0.2,0.4-0.2,0.6-0.3c0.7-0.5,1.1-1.4,1.8-1.9c0.6-0.5,1.4-1,1.9-1.6c0.5-0.6,0.9-1.3,1.4-1.9c0.2-0.2,0.5-0.4,0.7-0.6
			c0.4-0.6,0.7-1.3,1.3-1.7v-0.3c1-0.3,2.1-2.5,3-3.2c1-0.8,2.4-1.4,3.7-1.9c1.2-0.5,1.6,0,2.6-0.6c0-0.3,0-0.5-0.1-0.6
			c-0.2-0.4-0.4-0.4-0.6-0.7c-0.7,0.2-1.6,0.6-2.2,0.7c-0.2,0-0.4-0.1-0.6-0.1c-3.1,1.4-5.3,3.9-7.2,6.5c-0.2,0.3-0.7,0.4-1,0.7
			c-0.3,0.5-0.5,0.9-1,1.3c-0.1,0.1-0.3,0.1-0.4,0.2v0.4c-0.3,0.2-0.6,0.5-0.8,0.7v0.3c-0.2,0.4-0.8,0.5-1.1,0.8
			c-1.4,1.6-3,2.8-4.7,4.1c-0.3,0.2-0.4,0.6-0.6,0.8c-1.2,1-1.9,1.9-3.5,2.5c-0.3,0.1-1.7,0.4-1.9,0.5v0.2c-0.2,0.2-0.6,0.4-0.7,0.5
			c-0.4,0.1-0.8,0.3-1.3,0.4c-0.8,0.5-1.6,1.3-2.4,1.8c-0.4,0.3-1.5,1.2-2.1,0.8c-1-0.4-0.8-2.5-1.2-3.6c-0.3-1-0.9-2.3-1.2-3.5
			c0-0.8-0.1-1.6-0.1-2.3c-0.1-0.5-0.3-1.3-0.4-1.8c-0.3-1.1,0.2-2.3-0.4-2.9c0-1.9,2-2.6,3.2-3.3c0.8,1.7,0.9,3.3,1.2,5.2
			c0.1,0.4-0.2,2.4-0.1,2.8c0.5,1.2,1.1,2.1,1.8,3.1c1.6,0,2-0.7,2.9-1.3c0.1-0.6,0.4-1.3,0.2-2.1c-0.1-0.4-0.3-0.6-0.3-1.2
			c0-0.9,0.4-1.6,0-2.2V315h0.2c0,0.3-0.1,0.6-0.1,0.8h0.4c0.2,1.9,1.8,4.1,3.4,4.6c0.8,0.2,1.3-0.3,1.9-0.4
			c0.1-0.6,0.5-0.7,0.5-1.5c0.4,0.1,0.7,0.7,1.3,0.3c0.5-0.1,0.4-0.1,0.6-0.3v-1.7c0.1-0.3,0.4-0.7,0.4-1c0.1-0.4-0.2-0.3-0.3-0.5
			c0-0.5-0.1-1-0.1-1.5c-0.2-0.9-0.5-1.7-0.8-2.3c-0.4-0.6,0.1-0.9-0.5-1.4v-0.2c0.8,0.2,1,1.2,1.6,1.7c0.3,0.2,0.7,0.2,1.1,0.3
			c0.4,0.2,1.3,0.7,1.6,1.1c1,0,1.6,0,1.8-0.7c0.6,0,1.2,0,1.6,0.1c0.2-0.2,0.4-0.5,0.6-0.7c-0.2-2-1.7-4.7-3-5.7
			c-0.6-0.5-1.7-1-2.1-1.6c0,0-0.1-0.1-0.1-0.1c0.1-0.1,0.3-0.3,0.4-0.3c0.2,0,0.4,0.1,0.5,0.1c0-0.1,0.1-0.2,0.1-0.3
			c0.2-0.1,0.7-0.4,0.8-0.4c0.2,0,0.6,0.2,1,0c0.3-0.1,0.3-0.6,0.5-0.8c0.3-0.3,1.1-0.8,1.5-1c1.2-0.4,2.4-0.9,3.6-1.5
			c0.8-0.4,1.5-0.2,2.3-0.5c0.2-0.1,0.4-0.4,0.5-0.5c0.4-0.3,0.9-0.2,1.5-0.4c0.4-0.2,0.8-0.6,1.2-0.8c0.3-0.2,0.5-0.1,0.7-0.2
			c0.7-0.4,1.3-1.2,2-1.7c0.5-0.4,1-0.5,1.5-0.8c0.2-0.3,0.4-0.6,0.5-0.8c0.6-0.5,1.4-0.9,1.9-1.5c0.2-0.2,0.3-0.5,0.5-0.7
			c0.1,0,0.2-0.1,0.3-0.1c0.1-0.3,0.2-0.6,0.3-0.8c0.2,0,0.4-0.1,0.5-0.1c0.2-0.1,0.3-0.6,0.5-0.7c0.2,0,0.5-0.1,0.7-0.1
			c0.2-0.1,0.2-0.5,0.3-0.6c0.6-0.8,1.3-1.7,1.7-2.6c0.2-0.5,0.2-0.9,0.5-1.4c0.8-1.3,2.1-2.6,2.2-4.2c0.4,0.1,0.4,0.3,0.6,0.5
			c0.1,0.4,0.1,0.8,0.2,1.3c-0.1,0.5-0.3,1-0.3,1.5c-0.1,0.5,0.2,1,0,1.6c-0.4,1-1.7,2.3-2.5,2.9c-1.7,1.2-4.2,1.5-4.3,4.2
			c0.4,0.4,0.6,1,1.1,1.3c0.3,0.2,0.5,0.2,0.7,0.4c2.2,0,3.7-1,5.2-1.7c0,0,0.1,0.1,0.1,0.1c-0.1,0.4-0.1,1-0.3,1.4
			c-0.1,0.1-0.3,0.2-0.4,0.3c-0.2,0.4-0.2,3.3,0,3.8c0.2,0.2,0.4,0.4,0.6,0.6c0.6,0,0.7-0.4,1.1-0.4c0.7-0.1,1.5,0.3,2-0.2
			c0.1,0.1,0,0,0.1,0.2c0.1,0.2-0.2,0.9-0.1,1.5c0.2,0.9-0.4,3.7-0.6,4.8v1.1c-0.3,1.3-0.5,2.5-1.1,3.6c-0.6,1.2-1.7,2.8-2.5,3.9
			c-0.5,0.5-0.9,0.9-1.4,1.4c-1,1.4-1.9,2.6-3.2,3.7c-0.2,0.2-0.4,0.7-0.6,0.8c-0.4,0.3-1.2,0.5-1.6,0.7c-0.9,0.7-1.9,1.7-2.5,2.6
			c-0.1,0.3-0.2,0.6-0.3,1c-0.3,0.5-1.4,1.5-1,2.3c0.1,0.2,0.2,0.2,0.3,0.4c1.7-0.2,1-1.8,1.7-2.8c0.6-0.9,1.6-2.1,2.4-2.8
			c0.5-0.4,1-0.5,1.5-0.8c0.6-0.4,0.9-1.2,1.5-1.7c0.2-0.2,0.6-0.3,0.8-0.5c0.6-0.7,1.1-1.6,1.7-2.3c0.2-0.2,0.6-0.4,0.8-0.6
			c0.6-0.9,1.4-1.6,2-2.4c0.3-0.4,0.3-0.9,0.5-1.3c0.6-1,1.3-2.1,1.7-3.3c0.4-1,0.1-2,0.4-3.2c0.8-3.1,0.9-6.3,1.2-9.3h0.1
			c0.5,1.2,0.4,3.1,0.2,4.8c0.2,0.5-0.1,1.2,0,1.8c0.3,1.8-0.3,4.3-0.7,6c-0.3,1,0,1.6-0.2,2.6c-0.8,3.7-0.8,8.2-2.2,11.9
			c-1.9,5-5.5,8.7-7.8,13.4c-1.3,2.6-2,5.5-3.2,8.3c-0.3,0.8,0,2.7-0.4,3.4v1.3c0.4,0.8,1.5,0,1.7-0.5c0.3-1,0.4-2.1,0.3-3.4
			c0-0.3-0.1-0.6-0.1-1c0.3-1.6,0.8-3.5,1.4-5c0.1-0.3,0.5-0.5,0.6-0.7c0.3-0.7,0.3-1.4,0.6-2.1c0.3-0.7,1-1.4,1.4-2
			c0.5-0.7,0.7-1.5,1.2-2.2c0.4-0.6,0.9-1.3,1.4-1.9c0.1-0.1,0.3-0.1,0.4-0.2c0.7-1.1,1.1-2.4,1.8-3.5c0.4-0.6,1-1.3,1.3-2
			c0.1-0.6,0.3-1.2,0.4-1.8c0.2-0.4,0.6-0.8,0.7-1.2c0.3-0.7,0.1-1.4,0.3-2.2c0.1-0.4,0.5-0.9,0.6-1.2c0.3-0.6,0-1.9,0.2-2.6
			c0.5-1.9,0.4-3.7,0.8-5.5c0.4-1.5,0.1-3.8,0.8-4.9V304h0.1c0.1,0.3,0,0.8,0,1.1c0.3,1.8,0.7,4.9,0.3,7.4c-0.1,0.4-0.1,0.8-0.2,1.3
			c0.3,2.5-0.5,5.7-1.2,8.1v1.3c-0.4,1.9-0.2,4.2-1,5.9c-0.7,1.7-0.9,3.6-1.6,5.4c-0.4,0.9-1.1,1.8-1.6,2.6
			c-0.1,0.2-0.1,0.5-0.2,0.7c-0.2,0.4-0.6,0.8-0.7,1.2c-0.2,0.4,0,0.7-0.2,1.1c-0.1,0.2-0.5,0.5-0.6,0.7c0,0.3-0.1,0.6-0.1,0.8
			c-0.2,0.5-0.7,1.1-1,1.6c-0.3,0.6-0.6,1.8-0.7,2.3c-0.3,0.9,0,2.2-0.5,2.9c0,0.3,0,0.5,0.1,0.7c2.1,0,1.5-2.6,2-4.2
			c0.5-1.5,1.2-3,1.9-4.3c0.2-0.4,0.1-0.8,0.3-1.2c0.9-1.4,2.2-2.9,2.6-4.8c0.2,0,0.2,0,0.3,0.1c0.2,0.3,0,2.4,0,3.6
			c0,2.2-0.4,4.8-0.1,6.7c0,0.6-0.1,1.2-0.1,1.8c0.1,1.1-0.4,2.5,0,4.1c0.3,1.4,0.2,2.8,0.5,4.5c0,0.5-0.1,1-0.1,1.5
			c0.5,2.5,0.5,4,1.1,6.5v2.9c0.2,1.2,0.1,3.6,0.3,5.2c0,0.3-0.2,0.6-0.1,1c0.4,1.9,0.8,4,1.5,5.5c0.3,0.8,1.4,1.2,1.9,1.8
			c0.1,0.2,0.1,0.4,0.2,0.6c0.3,0.4,2.5,34.8,2.8,35.2c0.7,1,1.9,1.4,2.9,2.1c0.1,0.2,0.3,0.4,0.4,0.5c0.2,0,0.5,0.1,0.7,0.1
			c0.3,0.1-3.2,1.8-2.8,1.9c1,0.4,2,0.3,3.1,0.6c1.2,0.4,2.9,0.9,4,1.3c0.8,0.3,1.6,0,2.3,0.3c2,0.7,3,2.5,4.8,3.5
			c1,0.5,2.2,0.8,3.3,1.2c0.4,0,0.7,0.1,1.1,0.1c0.3,0.1,0.8,0.5,1.1,0.6c0.7,0.3,1.3,0.2,2.1,0.4c1.1,0.3,2.4,1.1,3.4,1.7
			C479.6,430.1,479.6,430,479.5,430.1z M428.4,196.6c0.3,0.1,0.8,0,1.1,0.1c0.5,0,0.7-0.1,1-0.2c-0.1-1.1-2.8-2-3.5-2.9
			c-0.5,0-0.4,0.1-0.8,0.2c0,0.3,0,0.5,0.1,0.6C426.3,194.9,428,196.5,428.4,196.6z M433.2,198.2c0.7,0.4,1.1,1.2,2,1.5
			c0.4,0.1,1.2-0.1,1.2-0.1c0.4-0.1,0.4-0.2,0.6-0.3v-0.8c-0.5-0.1-1,0-1.4-0.2c-0.8-0.4-1.5-1.1-2.6-1.2c-0.1,0.2-0.7,0.5-0.5,0.8
			C432.5,198.1,433,198.1,433.2,198.2z M429.4,202.7c-0.2,0.5-1.3,1.3-0.7,2.1v0.2c0.6,0.1,0.9,0.2,1.5,0.1c0.3-0.7,0.7-1.7,0.8-2.3
			c0-0.3-0.1-0.6-0.1-1c0-0.6,0.2-2.2,0.6-2.8c0-0.4,0-0.6-0.1-0.8h-0.6c-0.6,1-1.1,2.2-1.4,3.4L429.4,202.7L429.4,202.7z
			 M425.1,206.9c0.1,0,0.3,0.1,0.4,0.1v0.3c0.2,0.3,0.6,0.2,0.8,0.4c2.1,1.4,2.2,1,4.6,0.3c0.9-0.3,1.7-0.4,2.3-1.1
			c0.2-0.2,0.2-0.5,0.3-0.6c0-1-0.4-0.7-0.8-1.2c-1.3,0.4-2.2,1.6-3.4,1.9c-1.1,0.2-2.8-0.6-3.2-1.2c-0.4-0.6-0.5-1.1-1-1.7
			c-0.2-0.2-0.5-0.3-0.6-0.5h-0.3c-0.2,0.1-0.4,0.3-0.6,0.3c-0.1,0.3-0.1,0.3,0,0.5C423.7,205.1,424.8,206.6,425.1,206.9z
			 M432.7,239.4c0.4,0,0.5-0.1,0.7-0.2c0.2-0.4,0.4-0.9,0.1-1.3c0-1.2-1.3-1.5-2.3-1.5c-0.4,0.4-0.9,0.9-1.4,1.3
			c0.1,0.6,0.5,0.9,0.7,1.4C431.1,239.3,432.1,239.9,432.7,239.4z M409.6,241.6c0.6-0.2,0.8-0.3,1.4-0.6c0-0.4,0.1-0.5,0-0.6
			c0-0.9-0.2-1-0.4-1.6c-0.9,0-1.3-0.2-2.2-0.2c-0.2,0.3-0.6,0.7-0.8,1C407.6,240.9,409.1,240.9,409.6,241.6z M428.3,242.8
			c0.2-0.2,0.5-0.6,0.7-0.7c0-0.4,0-0.9-0.1-1.2c-0.3-0.6-1.5-0.8-2.2-1.1c-0.3,0.3-0.7,0.3-1.1,0.5c-0.2,0.1-0.2,0.4-0.4,0.5
			C425.2,242.6,426.7,243,428.3,242.8z M415.3,243.6c0.5-0.1,0.6-0.2,1-0.4c0.1-0.4,0-0.9,0.2-1.2c0-0.6-0.2-0.7-0.4-1.1
			c-0.7-0.3-1.3-0.3-2.2-0.3c-0.2,0.3-0.6,0.5-0.8,0.7C412.9,242.6,414.5,243.9,415.3,243.6z M431.3,244.4c0,0.7,0.5,1.3,1.1,1.5
			c0.5,0.4,1.8,0.4,2.2,0c0.4-0.2,0.5-0.5,0.8-0.7c-0.1-0.3-0.2-0.9-0.3-1.1c-0.5-0.7-1.4-0.9-2.5-0.8
			C432.2,243.7,431.6,244.1,431.3,244.4z M405.7,246.7c0.3,0.1,0.5,0.5,0.8,0.3c0.9,0,0.9-0.5,1.3-1c0-0.7-0.1-1-0.3-1.5
			c-0.9-0.2-1.1-0.4-2.2-0.4c-0.2,0.2-0.7,0.4-1,0.5c-0.1,0.2,0,0.1-0.1,0.2C404.2,246.3,405,246.3,405.7,246.7z M437.2,246.9
			c1.9,0.2,1.7,0.2,2.9-0.7c0.1-1.5-0.7-2-2.2-1.9c-0.1,0.1-0.2,0.1-0.4,0.1c-0.5,0.5-0.9,0.7-1.2,1.4
			C436.6,246,437,246.4,437.2,246.9z M425.1,248.8c0.3-0.3,0.7-0.5,1.1-0.7c0-0.3,0-0.5,0.1-0.6c0-1.4-1.2-1.8-2.5-1.8
			c-0.1,0.1-0.3,0.1-0.4,0.2c-0.4,0.2-0.7,0.6-1,0.8c0,0.5,0.2,1,0.4,1.3C423.2,248.5,424.1,248.8,425.1,248.8z M419.3,248.9
			c0.2-0.1,0.5-0.5,0.7-0.6c0-0.4-0.1-0.7-0.1-1.1c-0.3-0.3-0.4-0.6-0.8-0.7c-0.3-0.2-0.9-0.1-1.4-0.1c-0.1,0.1-0.4,0-0.5,0.1
			c-0.3,0.2-0.4,0.6-0.7,0.8C416.4,248.6,417.9,249.6,419.3,248.9z M428.3,247.4c-0.3,0.2-0.5,0.7-0.7,1c0.1,0.7,0.6,1,1,1.5
			c0.9,0,1.7,0.3,2.2,0c0.4-0.2,1-1.1,0.5-1.7c0-0.3,0-0.4-0.1-0.5c-0.7-0.2-1.3-0.5-2.2-0.5C428.7,247.3,428.5,247.2,428.3,247.4z
			 M410.4,248.9c-0.2,0.2-0.6,0.5-0.8,0.6v1c0.4,0.4,0.7,0.7,1.1,1.1c1.3,0,2.2,0.1,2.4-1c0.1-0.3-0.1-0.4,0-0.6
			c-0.2-1-1.3-1-2.2-1.2C410.7,248.9,410.6,248.9,410.4,248.9z M405.7,250.7c-0.1-0.6-0.3-0.6-0.4-1.1c-0.6-0.1-1.2-0.3-1.8-0.4
			c-0.4,0.3-1.1,0.6-1.5,0.8c0.2,0.6,0.4,1,0.6,1.5c0.6,0.2,1.3,0.4,1.9,0.6c0.2-0.2,0.5-0.2,0.7-0.4
			C405.5,251.4,405.5,251,405.7,250.7z M433.9,251.1v0.6c0.5,0.5,1.7,1.8,2.6,1.1c0.5,0,0.6-0.1,1-0.2c0-0.7,0.3-1,0-1.4
			c0-0.8-1.1-1.1-1.8-1.2c-0.1,0.1-0.3,0.1-0.6,0.1C434.8,250.5,434.3,250.9,433.9,251.1z M423.6,255.6c0.5-0.1,0.6-0.2,1-0.4
			c0-1.2-0.5-1.4-1.1-2.1h-0.6c-0.1,0.1-0.5,0.1-0.6,0.2c-0.8,0-1.8,1.1-1.3,1.8C421.2,255.7,422.9,256.1,423.6,255.6z M437,253.4
			c-0.4,0.2-0.5,0.7-0.8,1.1c0.1,0.7,0.7,0.9,1,1.5c0.6,0,1.2,0.1,1.8,0.1c0.2-0.2,0.5-0.4,0.7-0.5c0.1-0.3,0.2-0.6,0.3-0.8
			c-0.2-1.1-1.1-1.6-2.3-1.6C437.4,253.3,437.2,253.3,437,253.4z M416.5,253.8c-0.1-0.1-0.2-0.1-0.4-0.1c-0.4,0.3-1,0.3-1.4,0.5
			c-0.4,0.1-0.4,0.4-0.7,0.6c0,0.3,0,0.8,0.1,1c0.2,0.4,0.7,0.5,1.1,0.8c0.4,0,1.4,0,1.8-0.3c0.4-0.2,0.4-0.5,0.7-0.7
			c0-0.4,0-0.6-0.2-0.8C417.4,254.2,417,253.9,416.5,253.8z M430.7,254.4c-0.3-0.6-1.4-0.8-2.3-0.7c-0.3,0.3-0.7,0.6-1.1,0.7
			c-0.1,0.2-0.1,0.5-0.2,0.7c0.7,0.7,1,1.2,2.1,1.5C430.1,257,431.6,255.4,430.7,254.4z M408.2,254.8c-0.6-0.1-1-0.2-1.7-0.2
			c-0.2,0.2-0.5,0.3-0.7,0.4c-0.2,0.2-0.3,0.4-0.4,0.5c0.1,0.9,0.5,1,0.8,1.6c0.6,0,1.3,0.2,1.7,0.4c0.8-0.1,1.1-1.1,1.1-1.9
			C408.7,255.4,408.3,255.1,408.2,254.8z M417.6,258.5c-0.2-0.1-0.7-0.1-1.2-0.1c-0.3,0.3-0.8,0.2-1.1,0.4c-0.2,0.1-0.2,0.4-0.4,0.5
			c0,0.3,0,0.7,0.1,0.8c0.4,1.2,2.3,0.8,3.2,0.3c0.2-0.4,0.1-0.8,0.2-1.3C418.1,259,418,258.7,417.6,258.5z M412.4,261.1
			c0.1-0.3,0.2-1,0-1.3c0-0.9-1.1-1.1-2-1.2c-0.3,0.3-0.7,0.2-1.1,0.4c-0.3,0.2-0.3,0.5-0.6,0.6c0.1,0.4,0.1,0.8,0.2,1.3
			C410.2,261.5,411.1,261.8,412.4,261.1z M422.6,259.8c-0.3,0.3-1,0.2-1.3,0.5c-0.2,0.2-0.2,0.5-0.4,0.6c0,0.3,0,0.5,0.1,0.6
			c0.1,1.2,1.5,1,2.5,1c0.2-0.2,0.5-0.4,0.7-0.5c0.1-0.2,0.1-0.3,0.2-0.4c0-1-0.5-1.1-0.8-1.7C423.2,259.9,422.8,259.9,422.6,259.8z
			 M426.8,262.4c0.2,0.3,0.5,0.6,0.7,1c0.5,0.1,1.4,0.5,1.9,0.2c0.6,0,1-0.4,1.1-1c0.6-1.2-1.4-1.9-2.4-1.9
			c-0.3,0.3-0.7,0.5-1.1,0.8C426.8,261.8,426.8,262,426.8,262.4z M413.8,264.7c0-1.2-0.6-1.5-1.5-1.7c-0.1,0.1-0.1,0.1-0.2,0.2
			c-1.1,0-0.9,0.5-1.5,1c0.1,0.9,0.5,0.8,0.7,1.4C412.6,265.5,413.1,265.2,413.8,264.7z M417.4,264.3c-0.1,0.1-0.2,0.1-0.4,0.1
			c-0.5,0.4-1.1,0.5-1.3,1.3c-0.1,0.3,0.1,0.8,0.3,1.1c0.4,0.3,1.7,0.6,2.1,0.3c0.8,0,0.8-0.3,1.3-0.6c0-0.3,0-0.6,0-0.6
			C419.3,264.7,418.3,264.4,417.4,264.3z M422.6,266.8c0.1,0.4,0.4,0.5,0.7,0.6c0.4,0.3,1.5,0.2,1.9-0.1c0.3-0.2,0.5-0.5,0.7-0.7
			c0-1.1-0.5-1.6-1.5-1.8c-0.2,0.2-1.5,0.5-1.8,0.6C422.6,265.8,422.3,266.4,422.6,266.8z M431.4,266.1c-0.1,0.1-0.3,0.1-0.5,0.1
			c-0.4,0.4-0.8,0.7-1.2,1.1c0.1,0.9,0.6,1.1,1.1,1.6c2.5,0.2,3.6-0.6,2.1-2.6C432.4,266.1,431.9,266.1,431.4,266.1z M427.7,271.4
			c0.4-0.1,0.6,0,0.7-0.2c0.4-0.6-0.1-1.8-0.4-2c-0.4-0.3-1.2-0.4-2.2-0.4c-0.4,0.4-0.7,0.9-1.1,1.4
			C424.9,271.5,426.6,271.6,427.7,271.4z M412.8,272.8c0.6,1.4,2.7,0.5,3.5,0c0-0.8-0.1-1.1-0.3-1.6c-0.6-0.2-1.1-0.5-1.9-0.5
			c-0.5,0.5-1.1,0.6-1.6,1.2C412.4,272,412.6,272.6,412.8,272.8z M419.2,271.5c-0.3,0.3-0.6,0.6-1,1c0,0.8,0.2,0.9,0.5,1.4
			c0.5,0.1,1.4,0.2,1.8,0.4c0.3-0.3,1-0.6,1.4-0.8c0-1.1-0.1-1.7-0.8-1.9c-0.3-0.2-0.9-0.1-1.4-0.1
			C419.6,271.4,419.4,271.4,419.2,271.5z M435.9,275.3c0.7,0,0.7-0.3,1.3-0.4c0.6-2,0.1-2.7-2.4-2.5c-0.3,0.4-0.8,0.9-1.2,1.3
			c0,0.2,0,0.3,0.1,0.4C434.1,275.2,435,274.7,435.9,275.3z M431.2,275.7c1.8,0.1,2.5-1.1,1.7-2.4c-0.6-0.3-1-0.5-1.9-0.5
			c-0.2,0.2-0.4,0.1-0.6,0.3c-0.3,0.2-0.6,0.8-0.8,1.1c0.1,0.7,0.6,1.2,1.2,1.4C430.7,275.6,431,275.6,431.2,275.7z M411.4,275.5
			c0-0.4,0-0.9-0.1-1.2c-0.3-0.7-1.2-0.8-2.1-0.8c-0.3,0.3-0.8,0.3-1.2,0.6c-0.2,0.1-0.1,0.4-0.3,0.5c0.1,0.9,0.4,1,0.8,1.5
			c0.7,0,1.3,0.4,1.7,0C411,276.1,411,275.8,411.4,275.5z M420.7,277.3c0.1,0.9,1.5,1.7,2.4,1.5c0.4-0.1,1-0.7,1.3-1
			c0-0.6,0-1-0.3-1.3c-0.2-0.4-1.2-0.6-1.9-0.5c-0.2,0.1-0.4,0.1-0.6,0.2C421.1,276.4,421,277,420.7,277.3z M428.1,276.5
			c-0.2,0.2-0.5,0.2-0.7,0.3c-0.3,0.2-0.4,0.5-0.6,0.7c0,0.3,0,0.7,0.1,0.8c0.1,0.3,0.2,0.4,0.5,0.5c1.2,0.8,2-0.4,2.8-0.6
			c0-0.2,0-0.3,0.1-0.4C430.2,276.8,429.2,276.5,428.1,276.5z M412.2,277.5c-0.2,0.2-0.5,0.2-0.7,0.3c-0.3,0.2-0.5,0.6-0.7,0.8
			c0,2.9,5.2,1.2,3.5-0.5C413.9,277.5,413.1,277.5,412.2,277.5z M414.9,280.5c0,0.5,0,0.8,0.2,1.1c0.5,1.3,2.5,0.7,3.4,0.2
			c0.1-0.3,0.1-0.8,0.1-1.3c-0.2-0.2-0.3-0.4-0.4-0.6c-0.7-0.2-1-0.3-1.9-0.3C415.9,279.9,415.4,280.2,414.9,280.5z M420.8,282.4
			c0.5,0.1,1.2,0.3,1.7,0.4c0.1-0.1,0.5-0.5,0.6-0.5c0.1,0,0.3,0.1,0.4,0.1c0.2-0.1,0.1-0.4,0.4-0.5c0-0.4,0.1-0.7,0-1
			c-0.1-0.7-0.9-1-1.6-1.1c-0.2,0.1-0.5,0.1-0.8,0.1c-0.4,0.4-0.9,0.8-1.3,1.2C420.3,281.8,420.5,282,420.8,282.4z M431.7,280.6
			c-0.6,0.4-1.4,0.6-1.6,1.5c-0.1,0.2,0,0.2,0,0.5c0.4,0.2,0.6,0.6,1,0.7c1.1,0.5,2-0.2,2.8-0.4c0.1-0.8,0.2-1.4-0.3-1.9
			C433.1,280.7,432.3,280.6,431.7,280.6z M407.3,280.8c-0.1,0.1-0.3,0-0.5,0.1c-0.4,0.2-0.7,0.9-1.1,1.3c0.2,1.3,2.3,1.9,3.4,1.3
			c0.3-0.2,0.6-1.1,0.4-1.5C409.4,281,408.3,280.8,407.3,280.8z M419.5,285.8c0-1.1-0.3-1.1-0.7-1.7h-1.3c-0.3,0.3-0.8,0.3-1.2,0.5
			c-0.2,0.1-0.2,0.4-0.4,0.5c0,0.3,0,0.5-0.1,0.7c0.4,0.3,0.6,0.7,1.2,0.8c0.4,0.3,1.5,0,1.8-0.2
			C419.3,286.4,419.2,286.1,419.5,285.8z M428.1,284.1c-0.7,0.6-1.4,0.5-1.4,1.9c0.3,0.3,0.4,0.6,0.8,0.7c0.5,0.3,1.4,0,1.7-0.2
			c1.1,0,0.7-0.6,1.1-1.3c-0.1-0.3-0.3-0.6-0.4-0.8C429.3,284.2,428.8,284.1,428.1,284.1z M413.8,288.3c0-0.6,0.2-1.3-0.1-1.7
			c-0.4-0.6-1.1-0.6-2.1-0.5c-0.3,0.2-0.7,0.2-1,0.4c-0.2,0.2-0.4,0.5-0.5,0.7c0,0.4,0,0.6,0.2,0.8c0.4,0.9,1.8,0.7,2.9,0.6
			C413.3,288.6,413.6,288.4,413.8,288.3z M422.9,287.5c-0.3,0.3-0.8,0.6-1.3,0.7c0,0.2-0.1,0.6-0.2,0.7c0,0.8,0.3,0.8,0.6,1.3
			c1.7,0.1,2,0,3.1-0.7c0-1-0.2-1.3-0.5-1.8C423.9,287.5,423.5,287.6,422.9,287.5z M415.9,289.3c-0.3,0.3-0.7,0.3-1.1,0.5
			c-0.3,0.2-0.4,0.6-0.6,0.8c0.1,0.2,0.1,0.4,0.2,0.5c0.3,1,2.2,1.2,3.1,0.5c0.3-0.1,0.3-0.2,0.5-0.4c0-1-0.2-1.2-0.5-1.7
			C417,289.5,416.4,289.3,415.9,289.3z M420.6,291.2c-1,1.2-2.4,0.7-0.8,2.6c0.9,0,1.7,0.1,2.1-0.2c0.4-0.2,0.4-0.5,0.7-0.7
			C422.6,291.6,421.8,291.1,420.6,291.2z M413.6,294.9c-0.1,0.4-0.4,0.9-0.7,1.2c0,0.7,0.3,0.9,0.5,1.4c0.9,0.2,1.8,0.6,2.6,0
			c0.3-0.1,0.4-0.3,0.6-0.4c0-1.2-0.2-1.1-0.4-1.8C415,294.9,415,294.9,413.6,294.9z M471.9,313.2c0.6-0.3,1.2-0.2,1.8-0.5
			c1.5-0.7,3.2-1.5,4.7-2.3c0.1-0.2,0-0.1,0.1-0.2c0-1.3-0.6-1.3-1.9-1.3c0,0.2,0,0.3-0.1,0.4c-0.3,0.9-2.6,1.5-3.6,1.9
			c-1.5,0.6-3,1.5-4.2,2.4c-0.4,0.3-0.5,0.8-0.8,1.2c0.1,0.4,0.2,0.5,0.3,0.8C469.6,315.4,470.6,313.8,471.9,313.2z M359.8,332.2
			c1.1,0.3,1.8,0.4,3.1,0.4c0.2,0,0.4,0.1,0.5,0.1c0-0.1,0.1-0.2,0.1-0.3c0.2,0,0.5,0.1,0.7,0.1c0.7,0,2.1-0.1,2.8-0.2
			c1.1-0.2,2.3,0.2,3.1-0.3c0.2-0.2,0.4-0.4,0.5-0.5c0-0.7-1-1.4-1.7-1.3c-0.8,0.2-2.1,0.4-3.1,0.5c-0.3,0-0.7-0.2-1.3-0.1
			c-0.7,0.2-2.3,0.4-3.2,0.1c-0.7-0.2-1.1-0.7-1.9-1c-0.6,0.4-1.5,0.5-2.1,0.8C357.4,332.3,358.5,331.8,359.8,332.2z M475.8,331
			c-1.5,0.3-3.3,0.5-4.3,1.1c0,0.7,0.2,0.8,0.4,1.2c1.3,0,2-0.2,3.2-0.5c1-0.3,2.8-0.2,3.6-0.3c1-0.1,2.4,0.8,3.1,0.3
			c0.3-0.1,0.4-0.3,0.6-0.5c0-0.3,0-0.5-0.1-0.6c-0.3-0.8-3.6-0.7-4.8-0.6C476.9,331.3,476.4,330.9,475.8,331z M359.3,351.2
			c0.3-0.1,0.7-0.5,1.1-0.6c1-0.4,2.1-0.5,2.9-1c0.4,0.2,0.5,0.1,1,0c1-0.2,3.8,0,4.5-0.4h0.5c0.1-0.4,0-0.8,0.1-1.3
			c-0.1-0.1-0.2-0.3-0.3-0.4c-0.4-0.1-0.5-0.2-1-0.2c-0.8,0.7-2.5,0.4-3.7,0.6c-1.4,0.3-2.9,0.6-4.2,1.1c-0.4,0.1-0.8,0.5-1.2,0.6
			c-0.6,0.2-1-0.1-1.4,0.2c-0.5,0.4-0.2,0.9,0.1,1.3C358.2,351.1,358.7,351.1,359.3,351.2z M477.1,358c-1.9-1.2-3.5-2.7-5.3-4
			c-0.8-0.6-1.7-1.7-2.8-1.9c-0.1,0.1-0.1,0.1-0.3,0.1l-0.1,0.1c0,1.9,1.7,2.3,2.8,3.1c1,0.7,1.8,1.7,2.9,2.4
			c1.6,1.1,3.3,1.9,4.7,3.2c0.6,0,0.8-0.2,1.2-0.4c0.1-0.4,0.2-0.8-0.1-1.1C479.7,358.9,477.6,358.3,477.1,358z M364.2,362.6
			c-0.1,0.2,0,0.1-0.1,0.2c0,0.8,0.2,0.7,0.5,1.2c2,0,2.6-1.2,3.8-2c1.7-1.1,3.5-1.9,5.3-3c0.1-0.2,0-0.1,0.1-0.2
			c-0.1-0.8-0.5-0.7-0.8-1.2h-0.6c-0.7,0.7-1.8,0.9-2.5,1.5C368.1,360.5,366.2,361.5,364.2,362.6z"/>
	</g>
</g>
<g>
	<g>
		<path class="st2" d="M476.2,428.2c-0.8-0.2-1.4-0.1-2.1-0.4c-0.3-0.1-0.7-0.5-1.1-0.6c-0.4,0-0.7-0.1-1.1-0.1
			c-1.1-0.3-2.3-0.6-3.3-1.2c-1.8-1-2.8-2.8-4.8-3.5c-0.8-0.3-1.5,0-2.3-0.3c-1.1-0.4-2.9-0.9-4-1.3c-1.1-0.4-2.1-0.3-3.1-0.6
			c-0.3-0.1,3.2-1.8,2.8-1.9c-0.2,0-0.5-0.1-0.7-0.1c-0.1-0.2-0.3-0.4-0.4-0.5c-1-0.7-2.2-1.1-2.9-2.1c-0.3-0.4-2.5-34.8-2.8-35.2
			c-0.1-0.2-0.1-0.4-0.2-0.6c-0.5-0.6-1.6-1-1.9-1.8c-0.6-1.5-1-3.6-1.5-5.5c-0.1-0.4,0.1-0.7,0.1-1c-0.2-1.6-0.1-4-0.3-5.2v-2.9
			c-0.6-2.5-0.6-4-1.1-6.5c0-0.5,0.1-1,0.1-1.5c-0.4-1.6-0.2-3-0.5-4.5c-0.4-1.7,0.1-3.1,0-4.1c0-0.6,0.1-1.2,0.1-1.8
			c-0.3-1.9,0.1-4.4,0.1-6.7c0-1.2,0.2-3.3,0-3.6c-0.1-0.1-0.1-0.1-0.3-0.1c-0.4,1.9-1.7,3.3-2.6,4.8c-0.2,0.3-0.1,0.8-0.3,1.2
			c-0.7,1.3-1.4,2.8-1.9,4.3c-0.5,1.6,0.1,4.2-2,4.2c-0.1-0.2-0.1-0.4-0.1-0.7c0.5-0.7,0.2-1.9,0.5-2.9c0.2-0.6,0.4-1.8,0.7-2.3
			c0.2-0.5,0.7-1.1,1-1.6c0-0.3,0.1-0.6,0.1-0.8c0.1-0.2,0.5-0.5,0.6-0.7c0.2-0.4,0-0.7,0.2-1.1c0.2-0.3,0.6-0.8,0.7-1.2
			c0.1-0.2,0.1-0.5,0.2-0.7c0.5-0.8,1.2-1.7,1.6-2.6c0.7-1.8,0.9-3.7,1.6-5.4c0.7-1.7,0.5-4,1-5.9v-1.3c0.7-2.3,1.4-5.6,1.2-8.1
			c0.1-0.4,0.1-0.8,0.2-1.3c0.4-2.5-0.1-5.6-0.3-7.4c0-0.3,0.1-0.7,0-1.1h-0.1v1.1c-0.7,1.1-0.5,3.4-0.8,4.9
			c-0.5,1.8-0.4,3.6-0.8,5.5c-0.2,0.7,0,2.1-0.2,2.6c-0.1,0.3-0.5,0.8-0.6,1.2c-0.2,0.8,0,1.5-0.3,2.2c-0.1,0.4-0.6,0.8-0.7,1.2
			c-0.1,0.6-0.3,1.2-0.4,1.8c-0.3,0.7-0.9,1.4-1.3,2c-0.7,1.1-1.1,2.4-1.8,3.5c-0.1,0.1-0.3,0.1-0.4,0.2c-0.5,0.6-1,1.3-1.4,1.9
			c-0.5,0.7-0.7,1.5-1.2,2.2c-0.4,0.6-1.1,1.3-1.4,2c-0.3,0.7-0.3,1.4-0.6,2.1c-0.1,0.3-0.5,0.4-0.6,0.7c-0.6,1.5-1,3.3-1.4,5
			c0,0.3,0.1,0.6,0.1,1c0,1.3,0,2.4-0.3,3.4c-0.2,0.5-1.3,1.4-1.7,0.5v-1.3c0.4-0.7,0.1-2.6,0.4-3.4c1.1-2.8,1.8-5.7,3.2-8.3
			c2.4-4.6,5.9-8.3,7.8-13.4c1.4-3.6,1.4-8.2,2.2-11.9c0.2-1,0-1.7,0.2-2.6c0.5-1.7,1.1-4.3,0.7-6c-0.1-0.6,0.2-1.3,0-1.8
			c0.2-1.7,0.3-3.5-0.2-4.8h-0.1c-0.3,3-0.4,6.3-1.2,9.3c-0.3,1.2-0.1,2.2-0.4,3.2c-0.4,1.2-1.1,2.3-1.7,3.3
			c-0.3,0.4-0.3,0.9-0.5,1.3c-0.6,0.8-1.4,1.6-2,2.4c-0.2,0.3-0.6,0.4-0.8,0.6c-0.6,0.7-1.1,1.6-1.7,2.3c-0.2,0.2-0.6,0.3-0.8,0.5
			c-0.6,0.5-0.9,1.3-1.5,1.7c-0.5,0.3-1,0.5-1.5,0.8c-0.9,0.6-1.9,1.9-2.4,2.8c-0.6,1,0,2.6-1.7,2.8c-0.1-0.2-0.2-0.2-0.3-0.4
			c-0.5-0.8,0.7-1.9,1-2.3c0.1-0.3,0.2-0.6,0.3-1c0.6-0.9,1.7-2,2.5-2.6c0.3-0.3,1.2-0.5,1.6-0.7c0.2-0.2,0.4-0.6,0.6-0.8
			c1.3-1.1,2.2-2.3,3.2-3.7c0.5-0.5,0.9-0.9,1.4-1.4c0.8-1.1,1.9-2.7,2.5-3.9c0.5-1.1,0.8-2.3,1.1-3.6v-1.1c0.2-1.1,0.8-3.8,0.6-4.8
			c-0.1-0.6,0.3-1.2,0.1-1.5c-0.1-0.2,0-0.1-0.1-0.2c-0.5,0.5-1.3,0.1-2,0.2c-0.3,0.1-0.5,0.4-1.1,0.4c-0.2-0.2-0.4-0.4-0.6-0.6
			c-0.2-0.5-0.2-3.4,0-3.8c0.1-0.1,0.3-0.2,0.4-0.3c0.2-0.4,0.2-1,0.3-1.4c0,0-0.1-0.1-0.1-0.1c-1.5,0.7-3,1.7-5.2,1.7
			c-0.2-0.2-0.5-0.2-0.7-0.4c-0.4-0.3-0.7-0.9-1.1-1.3c0.2-2.7,2.6-3.1,4.3-4.2c0.9-0.6,2.2-1.8,2.5-2.9c0.2-0.5-0.1-1.1,0-1.6
			c0.1-0.5,0.2-1,0.3-1.5c-0.1-0.4-0.1-0.8-0.2-1.3c-0.3-0.2-0.3-0.4-0.6-0.5c-0.1,1.6-1.4,3-2.2,4.2c-0.3,0.4-0.3,0.9-0.5,1.4
			c-0.4,0.9-1.1,1.9-1.7,2.6c-0.1,0.2-0.2,0.5-0.3,0.6c-0.2,0-0.5,0.1-0.7,0.1c-0.2,0.1-0.3,0.6-0.5,0.7c-0.2,0-0.4,0.1-0.5,0.1
			c-0.1,0.3-0.2,0.6-0.3,0.8c-0.1,0-0.2,0.1-0.3,0.1c-0.2,0.2-0.3,0.5-0.5,0.7c-0.5,0.6-1.3,1-1.9,1.5c-0.2,0.3-0.4,0.6-0.5,0.8
			c-0.5,0.4-1,0.5-1.5,0.8c-0.7,0.5-1.3,1.3-2,1.7c-0.3,0.2-0.5,0.1-0.7,0.2c-0.4,0.2-0.7,0.7-1.2,0.8c-0.5,0.2-1.1,0.1-1.5,0.4
			c-0.1,0.1-0.3,0.4-0.5,0.5c-0.8,0.3-1.6,0.2-2.3,0.5c-1.2,0.6-2.4,1.1-3.6,1.5c-0.4,0.1-1.2,0.7-1.5,1c-0.2,0.2-0.3,0.7-0.5,0.8
			c-0.3,0.2-0.7,0-1,0c-0.1,0-0.7,0.3-0.8,0.4c0,0.1-0.1,0.2-0.1,0.3c-0.2,0-0.4-0.1-0.5-0.1c-0.1,0-0.3,0.3-0.4,0.3
			c0,0,0.1,0.1,0.1,0.1c0.4,0.6,1.5,1.1,2.1,1.6c1.2,1,2.8,3.7,3,5.7c-0.2,0.2-0.4,0.5-0.6,0.7c-0.4-0.1-1-0.1-1.6-0.1
			c-0.2,0.7-0.8,0.8-1.8,0.7c-0.3-0.3-1.2-0.9-1.6-1.1c-0.4-0.2-0.8-0.1-1.1-0.3c-0.5-0.5-0.8-1.5-1.6-1.7v0.2
			c0.7,0.5,0.2,0.8,0.5,1.4c0.4,0.6,0.6,1.5,0.8,2.3c0,0.5,0.1,1,0.1,1.5c0.1,0.2,0.4,0.1,0.3,0.5c0,0.2-0.4,0.7-0.4,1v1.7
			c-0.3,0.2-0.2,0.3-0.6,0.3c-0.5,0.4-0.9-0.2-1.3-0.3c0,0.8-0.4,0.9-0.5,1.5c-0.6,0.1-1.1,0.6-1.9,0.4c-1.6-0.4-3.2-2.7-3.4-4.6
			h-0.4c0-0.3,0.1-0.6,0.1-0.8h-0.2v1.9c0.4,0.6,0,1.3,0,2.2c0,0.6,0.2,0.8,0.3,1.2c0.2,0.8-0.2,1.5-0.2,2.1
			c-0.9,0.6-1.3,1.3-2.9,1.3c-0.7-1-1.3-1.8-1.8-3.1c-0.1-0.3,0.2-2.4,0.1-2.8c-0.3-1.9-0.4-3.5-1.2-5.2c-1.2,0.7-3.2,1.4-3.2,3.3
			c0.7,0.6,0.2,1.8,0.4,2.9c0.1,0.5,0.3,1.4,0.4,1.8c0,0.8,0.1,1.6,0.1,2.3c0.3,1.2,0.8,2.5,1.2,3.5c0.4,1.1,0.1,3.2,1.2,3.6
			c0.6,0.4,1.7-0.6,2.1-0.8c0.8-0.6,1.6-1.3,2.4-1.8c0.4-0.1,0.8-0.3,1.3-0.4c0.2-0.1,0.6-0.4,0.7-0.5v-0.2c0.2-0.1,1.6-0.4,1.9-0.5
			c1.6-0.7,2.3-1.6,3.5-2.5c0.3-0.2,0.4-0.6,0.6-0.8c1.7-1.3,3.3-2.5,4.7-4.1c0.3-0.3,0.8-0.5,1.1-0.8V317c0.3-0.2,0.6-0.5,0.8-0.7
			v-0.4c0.1-0.1,0.3-0.1,0.4-0.2c0.4-0.4,0.6-0.8,1-1.3c0.2-0.3,0.7-0.4,1-0.7c1.9-2.5,4.1-5.1,7.2-6.5c0.2,0,0.4,0.1,0.6,0.1
			c0.6-0.2,1.5-0.6,2.2-0.7c0.2,0.4,0.5,0.3,0.6,0.7c0.1,0.2,0.1,0.3,0.1,0.6c-1.1,0.6-1.4,0.1-2.6,0.6c-1.3,0.5-2.7,1.1-3.7,1.9
			c-0.9,0.7-2,2.9-3,3.2v0.3c-0.6,0.4-0.8,1.1-1.3,1.7c-0.2,0.2-0.5,0.4-0.7,0.6c-0.5,0.6-0.9,1.3-1.4,1.9c-0.5,0.6-1.3,1.1-1.9,1.6
			c-0.7,0.5-1.1,1.4-1.8,1.9c-0.2,0.1-0.5,0.2-0.6,0.3c-0.2,0.2-0.3,0.7-0.6,0.8c-0.3,0.2-0.5,0.1-0.7,0.3c0,0.1-0.1,0.2-0.1,0.3
			h-0.3c-0.5,0.5-0.7,1.3-1.5,1.5v0.3c-0.6,0.4-1.1,1-1.7,1.4c-1.2,0.7-2.5,1-3.9,1.6c-1.4,0.6-2.7,1.8-3.9,2.6
			c-1.4,0.9-2.1,0.9-3.3,2.2c-0.3,0.4-0.7,0.3-1,0.5c-0.6,0.5-1.5,3-1.3,4.2c0.3,2.2,1.7,3.2,2.2,5c0.1,0.2,0.3,2.6,0.3,2.6
			c0,0.1-0.3,0.6-0.2,0.7c0.1,0.4,0.5,0.7,0.4,1.2c0.4,0.1,0.4,0.1,0.8,0.2c0.9-0.7,2.2-0.9,3.2-1.6c0.6-0.4,1.4-0.9,2-1.4
			c0.1-0.1,0.2-0.3,0.3-0.4c0.2,0,0.4-0.1,0.5-0.1c0.2-0.1,0.3-0.5,0.4-0.6c1.5-1.3,2.4-2.9,3.5-4.6c0.4-0.6,1.1-1.1,1.5-1.7v-0.4
			c0.3-0.5,0.8-1,1.2-1.5c0.1-0.3,0.2-0.6,0.3-0.8c0.7-1.1,1.7-2.2,2.3-3.3c0-0.2,0.1-0.4,0.1-0.5c0.7-1.1,2.4-2.2,3.2-3.3
			c1.5-1.9,3-3.9,4.3-5.8c1.2-1.7,2.5-3.3,3.8-4.9c0.4-0.4,0.5-1,0.8-1.5c0.5-0.6,1.3-1.2,1.7-1.8c0.5-0.7,1.5-2.8,2.2-3
			c0.4-0.3,1.1-0.2,1.3,0.2c0.1,0.2,0.1,0.3,0.1,0.6c-0.9,0.5-1.2,1.4-1.8,2.2c-0.7,1-1.9,1.7-2.5,2.6c-0.9,1.2-1.5,2.4-2.4,3.6
			c-0.1,0.2-0.4,0.2-0.5,0.3c-0.1,0.2-0.1,0.4-0.2,0.6c-0.1,0.1-0.3,0.2-0.4,0.3c-0.4,0.5-0.7,1.1-1.1,1.6c-0.2,0.3-0.6,0.4-0.8,0.6
			c-0.4,0.4-0.4,1-0.7,1.5c-0.7,1-1.4,1.9-2.1,3c-0.2,0.3-0.5,0.3-0.7,0.5c-0.5,0.6-0.9,1.2-1.4,1.8c-0.4,0.5-1,0.8-1.4,1.4
			c-2.5,4-5.1,8-7.7,11.9c-0.3,0.5-0.9,0.8-1.4,1.2c-0.9,0.6-1.7,1.5-2.5,2.1c-0.9,0.6-2.1,1.1-3,1.7c-0.6,0.4-2.3,0.9-1.9,1.8
			c-0.2,0.3-0.5,0.6-0.4,0.7c0,0.1-0.6,2.9-0.7,3.3c-0.1,0.8-0.1,1.6-0.2,2.3c-0.6,2-1.1,4.6-1,7c0.6,0.4,0.6,0.9,1.7,1
			c0.8,0.1,2.2-2.1,3-2.6v-0.3h0.3l1.6-1.6c0.7-0.8,1.4-1.7,2.1-2.4c0.4-0.4,1-0.7,1.4-1.2c0-0.2,0.1-0.4,0.1-0.5
			c0.2-0.2,0.5-0.4,0.7-0.6c0.3-0.5,0.4-1.1,0.7-1.6c0.1-0.1,0.3-0.1,0.4-0.2c1.2-1.8,2.1-3.6,3.3-5.3c0.2-0.1,0.4-0.2,0.5-0.3
			c0.2-0.4,0.3-0.9,0.5-1.3c0.4-0.6,0.9-1.2,1.4-1.8c0.1-0.2,0.4-0.2,0.5-0.3c0.3-0.3,0.3-0.8,0.6-1.2c0.4-0.4,0.9-0.7,1.3-1.2
			c0.5-0.6,0.9-1.5,1.5-2.1c0.3-0.3,0.9-0.5,1.2-0.8c0.3-0.4,0.4-0.8,0.6-1.2c0.4-0.6,1.2-1,1.7-1.6c0.3-0.5,0.5-0.9,0.8-1.4
			c0.2-0.2,0.4-0.4,0.6-0.5c0.3-0.6,0.5-1.6,1.1-1.9c0.2-0.2,0.6-0.3,0.7-0.2c0.5,0.1,0.5,0.3,0.5,1c-0.6,0.8-0.8,1.9-1.5,2.6
			c-1.6,1.9-3.4,3.4-4.9,5.5c-0.2,0.3-0.7,0.4-0.8,0.6c-0.1,0.2-0.3,0.9-0.4,1.1c-0.3,0.4-1,0.6-1.3,1.1c-0.8,1-1.7,2-2.4,3.1
			c-1.5,2.2-3,4.4-4.5,6.6c-0.8,1.1-1.1,2.4-2,3.4c-0.7,0.7-1.5,1.4-2.2,2.1c-0.6,0.6-0.9,1.4-1.5,2c-0.2,0.1-0.4,0.1-0.6,0.2
			c-0.4,0.3-0.9,1.1-1.3,1.6c-0.2,0.3-0.7,0.5-1,0.7c-0.7,0.9-1.1,2.2-2.6,2.2c-0.1,0.1-0.8,0-1.1,0.2c-1,1.1-1.3,2.6-1.9,4
			c-1.2,2.5-2.4,5.1-3.4,7.8c-0.2,0.6-0.1,1.1-0.2,1.5c-0.1,0.2-0.4,0.6-0.4,0.8c0,0.5-2.5,30.5-2.5,31c-0.4,1.2-2.6,4.3-3.5,5
			c-0.6,0.5-1.5,1-2,1.2c-0.8,0.3-1.4,0.1-2.1,0.3c-1.5,0.5-3.6,1.1-5.2,1.5c-0.4,0.1-0.6-0.1-0.8-0.1c-1,0.1-2,0.4-2.8,0.6h-0.7
			c-1.4,0.6-2.5,1.5-3.7,2.1c-0.5,0.3-1,0.2-1.6,0.4c-0.4,0.2-0.7,0.6-1.1,0.8c-0.5,0.3-1,0.3-1.5,0.6l-0.2,0.4
			c-0.7,0.5-1.8,1.1-2.3,1.8c-0.1,0.2-0.1,0.4-0.2,0.6c-0.6,0.5-1.4,0.6-2,1.1c-0.9,0.6-1.3,1.8-1.8,2.9h0.2
			c0.7,0.5,3.9,0.2,5.1,0.2c3.6,0,6.8-0.1,9.9-0.7c1.1-0.2,2.3,0,3.3-0.2c1.2-0.3,3.3-0.1,4.3,0.1h1.3c2.1,0.5,6,0.3,7.6-0.1h1.2
			c1.2-0.4,2.7-0.7,3.8-1.3c1.5-0.8,2.8-2,4.8-2.4l0.7,0.1c0.8-0.1,1.9-0.2,2.6-0.3h1.5c0.8-0.3,3.4-1.4,3.9-1.9
			c0.1-0.1,0.1-0.4,0.2-0.5h0.3c0.9-0.6,1.4-2,2-3c0.2-0.2,0.4-0.4,0.6-0.5c0.7-0.9,1.4-1.8,2-2.6c0.2-0.3,0.2-0.7,0.4-1
			c1.4-1.6,2.6-3.2,3.9-4.9c0.3-0.3,0.6-0.6,1-0.8c0.9-1.2,5.7-33.2,7.5-33.3c0.1,0.3,0.2,0.2,0.3,0.5c0.2,0.3,0.1,0.7,0,1
			c-0.4,0.2-0.7,0.6-1.1,0.8c-0.4,0.3,0.7,1.2,0.2,1.5c-0.1,0.2-0.3,0.4-0.4,0.5c-0.3,0.2-4.8,28.8-5.1,29.1
			c-0.1,0.1-0.1,0.4-0.2,0.5c-0.3,0.4-0.9,0.6-1.2,1c-0.1,0.3-0.2,0.6-0.3,0.8c-0.4,0.6-1,1-1.5,1.5c-0.5,0.6-0.8,1.3-1.3,2
			c-0.2,0.1-0.4,0.3-0.5,0.4c-0.7,1-1.3,2-2,3c-0.2,0.1-0.4,0.3-0.5,0.4c-0.3,0.6-0.5,1.1-0.8,1.7c-0.4,0.4-0.7,0.7-1.1,1.1
			c-0.3,0.5-0.4,1.1-0.8,1.5c-1.3,1.3-3.4,2.2-5.2,2.9c-0.7,0.1-1.3,0.2-2,0.3c-0.5,0.2-1.1,0.7-1.6,0.8c-0.5,0.1-1.1-0.1-1.4-0.2
			c-0.6-0.1-1.2,0.2-1.7,0.3c-0.1,0.2-0.1,0.2-0.1,0.4c0.5,0.2,1.3,0.1,1.9,0.1c0.1-0.1,0.5,0.1,0.8,0c1-0.2,3.4-0.4,4.1-0.3
			c0.3,0,1.1,0.3,1.5,0.2c1.5-0.3,4.4-1.4,6.1-1c1.2,0.3,2.9,1.2,4.6,0.7c1.3-0.3,2.7-0.9,3.8-1.4c0.7-0.3,1.4,0,2.1-0.3
			c0.9-0.4,1.8-0.5,2.5-1c1-0.6,3.6,5.4,4.6,4.7c0.2-0.3,0.6-1.1,0.7-1.5c0.1-0.2-0.1-0.4-0.1-0.5c-0.2-1.2-0.2-2.8,0.6-3.2
			c0.2-0.1,0.4-0.3,0.7-0.2c0.4,0.1,0.8,1,0.6,1.6c-0.2,0.7-0.1,1.6-0.3,2.4c0,0.3,0.1,0.6,0.1,0.8c-0.1,0.5-0.3,0.8-0.4,1.3h0.2
			c0.7,0.4,2.1,0,3.2,0c1.3,0,2.7,0.3,4,0c1.4-0.3,3.1-1.1,4.8-1.1c0.4,0,1.3-0.2,2,0c0.6,0.2,2.7,1.2,3.7,0.8
			c1-0.4,1.9-1.2,2.8-1.6c0.9-0.4,2-0.5,2.9-0.6c1.2-0.2,3.7,0.9,4.7,1.1c1.2,0.2,2.4-0.4,3.8-0.4c2.1,0,3.8,0.3,5.6-0.1
			c0.7-0.2,1.6,0.1,2.2,0c0.5-0.1,1.1,0.1,1.4,0.1h2.5c0.7,0.2,1.5,0.3,2,0.2c1-0.1,1.1,0.4,2.1,0.1c0.7-0.2,1.5,0.1,2-0.2
			c0.1-0.1,0,0,0.1-0.2C478.7,429.4,477.3,428.6,476.2,428.2z"/>
	</g>
</g>
</svg>
