<?xml version="1.0" encoding="utf-8"?>
<!-- Generator: Adobe Illustrator 19.2.1, SVG Export Plug-In . SVG Version: 6.00 Build 0)  -->
<svg version="1.1" id="Calque_1" xmlns="http://www.w3.org/2000/svg" xmlns:xlink="http://www.w3.org/1999/xlink" x="0px" y="0px"
	 viewBox="0 0 841.9 595.3" style="enable-background:new 0 0 841.9 595.3;" xml:space="preserve">
<style type="text/css">
	.st0{fill:none;stroke:#1D1D1B;stroke-miterlimit:10;}
	.st1{fill-rule:evenodd;clip-rule:evenodd;fill:#1D1D1B;}
	.st2{fill-rule:evenodd;clip-rule:evenodd;fill:#DADADA;}
</style>
<line class="st0" x1="359.6" y1="172.6" x2="363.7" y2="170.6"/>
<g>
	<g>
		<path class="st1" d="M563.1,226.3c0-0.1-0.1-0.1-0.1-0.2c0.7-1.1,1.4-2.3,2.1-3.4c0.4-1.4,0.9-2.9,1.3-4.3
			c1.8-7.4-8.6-11.1-15-9.2c-3.1,0.9-5.3,2.5-8.2,3.8c-1.5-1.7-3.2-3.3-5.5-4.1c-5.7-2.1-15.9,0.4-18.7,4.4
			c-1.5,2.2-1.7,5.3-1.2,7.8c0.4,2.2,2.1,4.2,3.7,5.8c0,0,0,0.1,0,0.1c-2.9,0.7-6.5,0-9.9,0.6c-9.1,1.7-16.7,1-25.2,2.7
			c-3.6,0.7-7.4,0-10.8,1c-0.1-0.1-0.2-0.3-0.3-0.4c1.3-4-0.3-8.5-3.1-10.2c-0.8-0.5-1.7-0.3-2.8-0.6c-0.3-0.1-1.2-0.4-1.8-0.3
			c-1.1,0.2-1.5,1.3-2.5,1.5c0,0.1-0.1,0.1-0.1,0.2c-0.1-0.1-0.6-2-0.3-2.7c0.4-0.9,1.6-1.2,1.9-2.2c0.5-1.5,0.9-6.5,0.9-8.1
			c0-1,0.8-3.5,0-4.2c0.6-0.7,1.3-0.4,2.2-0.7c0.6-1.5-0.5-4.1-1.2-5.9c-1.1-2.8-2.5-6.6-3.9-10.1c-0.5-1.3-1.8-2.6-2.1-4.2
			c0.5,0.1,1.1,0.1,1.6,0.2c1.3-0.4,2-1.9,3.6-1.7c0.6-0.5,0.6-1.3,0.4-2.1c-1.5-1.2-2.5-1.2-4.5-1.9c-1.2-0.7-2.4-1.5-3.6-2.2
			c-3.2-1.4-6.1-2.6-9.1-4.2c-2-1.1-4.8-2.8-7.9-2.4c-0.1-0.1-0.1-0.2-0.2-0.3c1.1-0.8,6.6-1.4,6.7-1.8c0.3-0.3,0.2-0.9,0.1-1.4
			c-0.7-0.4-1,0-1.9-0.3c-6.8-2-14-0.2-20.2,2.4c-0.1,0-0.2,0-0.3,0c1.4-2.4,4.9-4.4,7.1-6.1c1.2-0.9,3.4-1.3,4-2.7
			c0.1,0,0.1,0,0.2,0c-0.1-0.3-0.1-0.6-0.2-0.9c-1.4-0.9-3.7,0.8-5,1.5c-4.3,2.2-8.2,4.2-12,6.7c-0.1,0-0.3,0-0.4,0
			c0-0.1,0-0.3,0-0.4c1.2-0.7,6.3-8.5,7.2-10.6c-0.3-0.8-0.3-1.1-1.4-1.1c-0.5,0.5-1.4,0.5-2,1c-0.3,0.8-0.7,1.5-1,2.3
			c-0.9,1.2-2.2,2-3.1,3.2c-1.6,2.2-4.9,3.7-6.4,5.9c-0.1,0-0.3,0-0.4,0c-1.7-3.3-3.2-7.9-5.6-10.2c-0.2,0-0.4,0.1-0.6,0.1
			c-0.2,0.3-0.3,0.5-0.5,0.8c0.1,1.3,0.3,2.6,0.4,3.9c0.5,1.8,1.6,3.5,1.9,5.5c0,0-0.1,0-0.1,0c-1.7-1.1-3.4-2.3-5.1-3.4
			c-1.2-0.7-2.5-0.6-3.7-1.2c-2.9-1.3-6.1-3-9.7-2.2c-0.2,0.4-0.1,0.8-0.1,1.2c0.7,1,2.6,1,3.8,1.5c2.4,1.1,5.5,3.1,6.9,5.3
			c0,0.1,0,0.3,0,0.4c-7.9-4.9-19.5-2.8-28.2,0.1c-2.9,1-8.4,1.2-9.8,3.3c0,0.8,0.2,1,0.8,1.2c0.3,0.1,5.1-0.9,6.5-1
			c1.8-0.1,3.4,0.2,5.3-0.1c0.9-0.1,1.8-0.2,2.7-0.3c1.3,0.3,4.3,0.7,5.5,0.4c0.1,0.1,0.3,0.2,0.4,0.3c-0.5,0.4-1.9,0.1-3.1,0.4
			c-2.3,0.6-4.8,1.6-6.6,2.8c-8.6,5.8-14.9,13.4-19.6,23.2c-1.8,3.8-5.1,9.8-4.5,15.3c0.2,0.1,0.5,0.2,0.7,0.3
			c0.3,0.1,0.7-0.1,1.1-0.3c0.2-0.7,0.5-1.5,0.7-2.2c0.6-1.1,1.3-2.1,1.9-3.2c1,0.4,0.8,2.1,1.2,3.1c0.8,1.7,0.7,3.7,1.3,5.7
			c0.5,0.9,0.9,1.8,1.4,2.7c0,0.6-0.1,1.2-0.1,1.8c0,0.1,0,0.2,0,0.3c-1.5-0.5-2.6-0.2-3.9,0.2c-0.7,0.1-1.5,0.3-2.2,0.4
			c-2.8,1.2-3.9,7.9-3.8,11.6c-1.1,0.3-2.2-0.3-3-0.5c-2.8-0.8-6.5-0.7-9.9-1.5c-7.3-1.7-14.9-1.3-22.3-2.8c-3-0.6-4.6-2.5-8.5-1.6
			c-0.1,0-0.1-0.1-0.2-0.1c0.2-1.6-0.6-2.2-1.2-3.2c-0.3-0.1-0.4-0.2-0.8-0.1c-0.5,0.3-0.7,1.4-0.7,2.3c-0.6-0.3-0.8-0.9-1.3-1.3
			c-0.2,0-0.5,0-0.7,0c-0.4,0.6-0.6,1.3-0.6,2.3c-0.7-0.2-0.7-0.4-1.5-0.3c0.2-3.9,5.5-5.2,9.9-4.2c1.6,0.4,2.5,1.8,4.1,1.9
			c0.1-0.2,0.3-0.4,0.4-0.6c-1.1-1-2.1-2.3-3.8-2.7c-0.5-2.7,0.9-5.1-1.7-7.1c0-0.2,0-0.3,0-0.5c5-1.1,11,2.2,12.6,6.1
			c0.8,2.1,0.1,4.1,0,6.1c-1.2,0.9-2.7,1.1-2.6,2.8c0.7,0.2,0.9,0.3,1.8,0.3c2.4-2.2,3.6-5.5,2.3-9.1c-0.1-0.5-0.2-1-0.3-1.5
			c-1.2-1.6-3-2.7-4.6-3.9c-1.7-1.3-4.3-3.1-6.9-3c-1.4,0-2.4,0.5-3.9,0.9c-1.1-0.8-2.3-1.6-3.4-2.4c-4.4-2.9-11.7-1.7-15.6,0.4
			c-2.1-0.5-4.2-2.2-6.5-2.6c-6.3-1-15.4,3.8-13.3,11.2c0.6,2.2,1.9,4.3,3.1,5.9c0.5,0.7,1.6,1.3,1.9,2.2c-4.1,1.3-8.6,2.2-10.4,5.9
			c-1.6,3.3-0.1,8.5,2.7,10.3c1,0.7,2.2,0.7,3.2,1.3c1.5,0.8,3.2,1.9,5.4,2c0.1,1-1.9,2.3-2.4,3.1c-1.7,2.6-3.4,7.5-0.7,10.3
			c2.8,2.9,9.9,2.8,14.1,2.3c1.1-0.4,2.2-0.9,3.3-1.3c1.2,0.6,2.3,1.1,3.5,1.7c1.2,0.5,2.6,0.6,3.7,0.8c7,1.5,16.7-2.8,18.5-7.1
			c1.5-0.9,4.7-0.1,6.9-0.9c3.5-1.2,8.5-5.5,6.6-9.7c-0.8-1.7-2-3-3-4.5c0-0.1,0.1-0.3,0.1-0.4c2.4-0.5,5.7-0.9,8-1.4
			c1-0.2,2.6,0.2,4.1-0.3c4-1.3,10.1-2.4,14.2-2.3c1.2,3.8,2.8,9.4,5.7,11.7c2.6,2,5.7,1.1,7.9,3.8c0.5,1.1,0.9,2.1,1.4,3.2
			c1.4,2.9,2.8,7.8,4.6,10.5c2.5,3.8,5.2,7.8,8.1,11.3c0.7,0.8,2.1,1.4,2.6,2.4c1.2,2.2,0.4,5.7,1,8.5c1.1,4.6,1,12.5,0.9,18.2
			c-6-0.5-12.1,5.1-17.6,5.8c-0.2,2.2,0.6,5.1,1.3,7c0.2,0.5-0.2,1.9-0.1,2.2c0.6,1.6,0.6,3.3,0.9,5.5c0,0.5-0.1,1.1-0.1,1.6
			c0.5,1.6,0.1,3.9,0.5,5.4c0.8,3,1,6.3,0.9,10.3c-2.4,1.2-6.5,1.2-9,2.1c-8.3,3.1-17.1,6.3-25.1,9.1c-0.1,0.4-0.3,0.9-0.4,1.3
			c0.3,0.2,0.7,0.3,1,0.5c1.5,0,2.4-0.8,3.3-1.4c1.1-0.3,2.1-0.7,3.2-1c1.4-0.6,2.8-1.3,4.2-1.8c0.6,0.3,5.8-1.9,6.7-2.3
			c3.5-1.1,7.1-2.3,10.6-3.4c1.7-0.5,4,0.3,5.3-0.4c0.8-0.4,1.2-0.9,2.3-1.3c0.2-0.7,0.4-1.5,0.6-2.2c-1.3-1.9-1-3-1.3-5.4
			c-0.6-4.3-0.5-8.1-1.4-13.3c-0.2-2.3-0.5-4.5-0.7-6.8c0-0.3,0-0.5,0-0.8c1.1,0.4,1.9,2.2,2.9,2.9c2.6,1.9,6.1,4.6,9.1,5.6
			c2.2,0.7,9.5,2,11.7,1.8c3.2-0.1,6.4-0.1,9.6-0.2c2.1,0.4,4.9,1.1,7,1.7c0.4,3.2-0.1,6.4-0.8,9.4c-0.1,1.9-0.1,3.9-0.2,5.8
			c-0.2,2-0.5,4.2-0.1,5.8c-0.5,1.1-0.3,4.6,0.3,5.8c0.4,0.1,0.8,0.3,1.2,0.1c0.4-0.2,0.7-5,0.4-5.8c-1-2.8,0-12.4,0.6-15.3
			c0.1-0.6,0.4-1.3,0.3-1.7c-0.3-2,1.2-3.9,0.4-5.9c-0.6-1-2.4-0.4-4-0.8c-2.6-0.6-6.3-0.9-9.2-0.9c-0.9,0-2.8,0.2-3.6,0.1
			c-2-0.3-5.5,0.6-6.6-0.3c-0.5-0.4-2-11.4-1.8-13c0.2-1.9-0.3-4.2-0.5-5.8c-0.1-5.2-0.3-10.3-0.4-15.5c-0.1-0.4-0.2-5.4-0.4-5.7
			c-0.3-0.5-0.5-1-0.5-2c0.1,0,0.2-0.1,0.3-0.1c1.2,2.1,3.2,3.9,5.1,5.3c0.1,0.3,0.2,0.5,0.3,0.8c0.4,0,0.7,0.1,1.1,0.1
			c0.3,0.4,0.5,0.7,0.8,1.1c1.2,0.8,2.5,1.5,3.7,2.3c1.5,1.1,3.1,2.4,4.7,3.4c1.2,0.4,2.3,0.7,3.5,1.1c4.5,2.3,14.7,4.6,19.9,2.9
			c1.9-0.6,3.4-2,5-2.9c1.7-0.9,3.4-1.7,5.1-2.6c1-0.7,1.8-1.7,2.7-2.4c1-0.8,2.2-1,3.1-1.9c1.5-1.5,2.5-3.2,4.3-4.5
			c0.9,1.2-0.6,5.7-0.6,7.7c0,1.7-0.6,5.5-1.1,6.7c0,1.2,0,2.5,0,3.7c-0.2,0.3-0.5,0.6-0.7,0.9c-0.1,0.7,0.7,1.5,0.5,2.8
			c-0.2,1.2-0.5,3.2-0.3,4.4c0.2,1.3-0.8,7.4-0.4,7.7c-0.2,0.5-0.4,0.6-0.9,0.7c0,0,0,0.1,0,0.1c0.6,0.4,1,0.1,1.4,0.9
			c-0.8,0.8-4.2,3-5.1,2.2c-0.2,0.3,0,0,0,0.4c-2.9,1.3-4.6,2.1-8.3,1.9c-0.4,0.3-0.7,0.7-1.1,1c-0.1,1.3,1.2,2.9,1.1,4.6
			c-0.2,6.1,0.9,10.1-0.3,16.2c-0.3,1.7,0.1,4.9-1.2,6c0.2,0.5,0.5,0.6,0.7,1.1c0.5-0.1,0.6-0.1,1,0.1c0.8-0.6,1.3-1.4,0.9-2.6
			c0.2-0.1,0.4-0.2,0.6-0.3c-0.2-0.3-0.4-0.4-0.7-0.6c-0.2-1.2,0.2-2.2,0.4-3.3c0.8-4.3,0.2-8,0.3-12.7c0-1.8,0.2-4.8-0.4-6.9
			c4.7-1.8,9.7-3.2,13.6-5.2c4.5-2.3,8-6,11.9-8.8c1.6-1.2,5.5-3.2,6.4-4.7c0.1,0,0.2,0.1,0.3,0.1c0,0.6,0,1.3,0,1.9
			c-0.7,1.3-2.6,1.7-3.6,2.8c-1,1.2-1.9,2.3-2.9,3.5c0,0.2,0,0.4,0,0.6c0.3,0.2,0.4,0.4,0.9,0.5c1.4-1.5,3.4-3.4,5.3-4.4
			c0,1.2-0.1,2.5-0.1,3.7c-0.5,0.8-0.8,0.1-1.6,0.4c-0.8,0.3-3.3,3.2-4,4c0.2,0.3,0.3,0.6,0.5,0.9c1.8-0.1,3-1.7,4.3-2.5
			c0.1,0,0.2,0,0.3,0c-0.2,1.6-0.4,3.2-0.6,4.8c0,0-0.1,0.1-0.1,0.1c-0.6-0.1-1.2-0.1-1.8-0.2c-0.6,1-2.1,2-3.3,2.4
			c-0.3,0.5-0.3,1.1,0.2,1.4c1,0.5,3.9-1.8,4.6-2.2c0,0,0.1,0,0.1,0c-0.2,1.2-0.3,2.4-0.5,3.6c-0.6,0.2-1,0.3-1.6,0.2
			c-0.5,1.4-1.3,1.4-2.2,2.3c0,0.3,0.1,0.6,0.1,0.9c1.1,0.8,2.3-0.3,3.2-0.9c0.7,0.7,0.4,2.3,0.3,3.4c-1.8,0.4-3.4,1.4-4.9,2.4
			c0,0.7,0.2,0.8,0.4,1.2c2.1,0.3,2.8-1.3,4.4-1.6c0,0.9-0.1,1.7,0.1,2.3c0,0.4-0.1,0.9-0.1,1.3c-0.6-0.1-1.2-0.3-1.8-0.4
			c-1.2,0.7-1.4,2.3-3.1,2.7c0.1,0.3,0.2,0.6,0.3,0.9c0.2,0.4,0.3,0.5,0.8,0.6c1.1,0.2,1.6-1.6,3.6-1.6c0.1,0,0.1,0.1,0.2,0.1
			c0.1,0.8-0.1,1.5,0,2.4c-0.7,0.8-2.4,0.7-3.3,1.3c-0.6,0.5-1.1,1-1.7,1.5c-0.1,0.8,0,1.3,0.5,1.7c0.8-0.3,3.7-2,4.1-2.7
			c0.9,0.4,2.8,0.1,4.1,0c0,0.1,0.1,0.1,0.1,0.2c-1,0.3-2.8,1.1-3.3,1.7c0.2,0.6,0.2,1.3,0.7,1.6c0.3,0.2,4.4-2.1,4.6-2.8
			c1.3-0.4,3.6,0.5,4.6,1c-1.5,1-2.6,1-3.2,2.9c0,0,0.1,0.1,0.1,0.1c0.2,0.4,0.4,0.5,1,0.5c2.3-1.7,6-3.5,8.6-0.8
			c-1.7,0.3-2.8,0.6-3.6,2.1c0,0.2,0,0.3,0,0.5c0.4,0.3,0.7,0.4,1.5,0.4c0.8-1.1,2.7-1.5,4-2.2c0.6,0.3,1.5,0.6,1.8,1
			c0.1,0.1,0.3,0.1,0.4,0.2c-0.4,0.2-0.7,0.5-1.1,0.7c0.1,0.2,0.1,0.5,0.2,0.7c0.1,0.2,0.2,0.3,0.3,0.5c1.2,0,2.3-0.3,2.9-0.9
			c0.7,0.2,1.5,0.5,2.2,0.7c-0.1,0.3-0.3,0.7-0.4,1c0,0.2,0,0.5,0,0.7c0.4,0.1,0.5,0.2,0.8,0.2c0.5,0.1,1.5-0.6,1.9-0.8
			c2.9,1.5,8.4,6.1,11.9,6.1c1.2-2.4-4.7-5.8-6.3-6.9c-6.9-4.5-14.4-9-23.5-11.3c-1.4-0.4-2.9-1.1-4.5-1.2c0.3-2.4,0.5-4.7,0.8-7.1
			c-0.2-6,1.5-15,0.8-20.8c-0.4-3,1.3-8.9,0-10.4c-1.5-1.7-3.2,0.5-5.3,0c-4.5-1.1-9.5-1.3-13.8-2.5c1.3-3.2,1.6-9.9,1.2-13
			c-0.2-1.9-0.6-5.3,0-7c0.5-1.3,1.6-2.2,2.1-3.4c3.1-7.2,6.6-14,10.1-21.1c1.6-3.3,3.9-6.6,4.7-10.9c0.6-0.4,1.6-0.1,2.4-0.5
			c4.6-2.1,8.3-9,9.6-13.8c2.1-0.5,4.9,0.7,7.1,1.3c3.5,1,6.7,1.3,10.2,2.1c8.4,1.9,18.7,2.3,27.7,3c0,0,0,0.1,0,0.1
			c-0.9,1.8-2.2,3.3-2.8,5.2c-1.1,3.8,1.9,6.9,3.5,8.8c2.8,3.3,13.8,7,20.2,6.3c1.8-0.3,3.5-0.5,5.3-0.8c1-0.1,2,0.5,3,0.7
			c3.4,0.9,7,0.2,9.3-1.1c4.1-2.3,9.4-8.4,6.3-14.3c1-0.7,1.9-0.1,3.3-0.4c2.3-0.6,4-1.1,5.5-2.5c1.5-1.4,1.6-4,1.7-6.1
			C576,231.1,569.8,227.3,563.1,226.3z M467,209.9c0.1,0,0.1,0,0.2,0c-0.1,0.1-0.2,0.1-0.3,0.2C466.9,210.1,467,210,467,209.9z
			 M302.7,228.3c1,0.4,1.3,1,1.9,1.3c1.5,0.1,2.9,0.3,4.4,0.4c-0.3,0.9-0.7,1.2-0.7,2.5c-0.1,0-0.1,0.1-0.2,0.1
			c-0.5-0.6-0.6-1.4-1.5-1.6c-0.6-0.1-0.9,0.2-1.4-0.1c-0.8-0.5-0.8-1.6-1.7-2c-0.4-0.2-0.7,0-1,0.2c0,0-0.1,0-0.1,0
			C302.5,228.9,302.6,228.6,302.7,228.3z M308.1,233.1c0.2,0.2,0.3,0.4,0.4,0.7c0,0-0.1,0.1-0.1,0.1c0,0.1,0,0.1,0,0.2
			C308.3,233.8,308.2,233.5,308.1,233.1z M308.4,234.2c0,0.2,0,0.3,0,0.5c-0.1,0-0.3,0-0.4,0c0.1-0.2,0.1-0.3,0.2-0.5
			C308.3,234.2,308.3,234.2,308.4,234.2z M307.9,238.6c-0.3,0.3-0.8,0.2-1.4,0.3c-0.3-0.4-0.5-1.3-0.5-1.6c0.2,0,0.3,0.1,0.5,0.1
			C307.1,237.8,307.2,238.3,307.9,238.6z M298.7,231.1c0.5,0.1,1,0.1,1.5,0.2c0,0.3,0.1,0.7,0.1,1c0.6,0.4,1.2,0.7,1.8,1.1
			c0.3,0.3,0.3,0.7,0.3,1.3c-0.2-0.4-0.5-0.7-0.7-1.1c-2.7-0.5-2.4,0.5-3.5-1.8c0-0.2,0-0.3,0-0.5
			C298.4,231.3,298.5,231.2,298.7,231.1z M302.1,240.4c-0.2-0.2-0.1-0.1-0.2-0.5C302,240.1,302,240.3,302.1,240.4z M299.6,246.1
			c-0.4,0-0.7-0.1-1.1-0.1c-0.1,0-0.1,0-0.2,0c0.2-0.6,0.7-0.8,1.1-1.2c0-0.1,0-0.2,0-0.3c0.2,0,0.3,0,0.5,0
			C300,244.9,299.8,245.5,299.6,246.1z M305.6,215.2c2.7,1.3,1.6,4.3,1.4,6.3c-1.2-0.1-2.3-0.1-3.7-0.1c-0.2-0.6,0.1-0.5,0.2-1.2
			C303.9,217.1,303.5,216.9,305.6,215.2z M287.1,213.4c2.2,1.1,7.4,6,7.2,9c0.6,0.3,0.9,0.5,1.9,0.5c0.9-0.9,0.4-2.8-0.5-3.4
			c-0.4-0.1-0.9-0.1-1.3-0.2c-0.8-1.4-1.7-2.7-2.5-4.1c-1.2-1-2.5-2.1-3.7-3.1c1.2-1.3,3-1.1,4.8-1.9c1.1,0.1,2.1,0.1,3.2,0.2
			c3.5,0.6,6.2,1.2,7.9,3.5c-2.1,2.7-2.8,3.6-2.6,8c-2.3,0.6-4,2-4.7,4.2c-0.9-0.4-0.9-1.3-1.5-1.9c-0.2-0.2-0.6-0.3-0.9-0.4
			c-0.4,0.3-0.6,0.8-0.6,1.5c-0.8-0.9-0.8-2.6-2.6-2.8c-0.2,0.1-0.3,0.3-0.5,0.4c-0.3,1.3-0.7,4.9-0.3,6.2c0,0.1-0.1,0.2-0.1,0.3
			c-0.2-0.1-0.3-0.2-0.5-0.3c-0.5-0.3-1.1-1.6-1.2-2.2c0.3-0.3,0.5-0.7,0.8-1c0.9-1.4-1.9-2.9-2.5-3.6
			C285.2,220.2,285.4,214.6,287.1,213.4z M294.3,243.6c0.2,0,0.5,0.1,0.7,0.1c0,0.3-0.1,0.5-0.1,0.8c-0.1,0.1-0.1,0.1-0.2,0.2
			c-0.1,0-0.3,0-0.4,0c0-0.1,0-0.1,0-0.2C294.1,244.2,294.2,244,294.3,243.6z M294.1,235.7c-0.3-0.4-0.3-0.3-0.2-0.8
			c0.3,0.2,0.5,0.4,0.8,0.6c-0.1,0.1-0.1,0.3-0.2,0.4C294.4,235.9,294.2,235.8,294.1,235.7z M292.5,227.7c-0.4-0.6-0.5-1.2-1.1-1.6
			c0,0,0-0.1,0-0.1c0.7,0.2,1,0.2,1.6,0c0.1-0.1,0.3-0.2,0.4-0.3c0.1,0,0.2,0,0.3,0c0.1,0.7,0.1,1.4,0.2,2.1c0.7,0.2,1,0.4,2,0.4
			c0.1,0.8,0.3,1.5,0.4,2.3C294.9,230.1,293.3,228.8,292.5,227.7z M290.8,229.8c0.3,0.1,0.5,0.2,0.8,0.3c0.1,0.3,0.1,0.6,0.2,0.9
			C291.4,230.7,291,230.4,290.8,229.8z M291,233.1c0,1.2-0.6,1.6-1.5,1.9c-0.1-0.1-0.2-0.1-0.3-0.2c0.2-0.4,0.6-0.9,0.9-1.4
			c0.2-0.3,0.2-0.2,0.5-0.4C290.7,233.1,290.9,233.1,291,233.1z M291.4,235.8c0.4,0.1,0.9,0.3,1.3,0.4c0,0.3,0,0.5,0,0.8
			c-0.1,0.2-0.2,0.3-0.3,0.5c-0.6,0-0.9-0.5-1.2-1C291.3,236.3,291.3,236.1,291.4,235.8z M297.2,234.4c0,0,0.1,0,0.1,0
			c0.2,0.6,0,1.2-0.2,1.9c-0.2,0-0.3,0.1-0.5,0.1c-0.2-0.3-0.4-0.6-0.6-0.9C296.6,235.2,296.8,235,297.2,234.4z M287.4,240
			c-0.1,0-0.2,0-0.3,0c-0.1-0.2-0.2-0.5-0.3-0.7c0.4,0,0.8,0,1.2,0c0,0,0,0.1,0,0.1C287.8,239.6,287.6,239.8,287.4,240z
			 M287.5,242.4c-0.2,0.7-0.4,1.6-0.9,2.1c0,0.1,0,0.1,0,0.2c-0.2-0.2-0.4-0.4-0.6-0.6c0-0.4-0.1-0.9-0.1-1.3
			c0.4-0.3,0.8-0.4,1.3-0.6C287.3,242.3,287.4,242.4,287.5,242.4z M268.9,214.5c1.1-2.4,4-4.2,7.1-4.6c1.1-0.1,2.3-0.1,3.4-0.2
			c2.3,1,4.2,1.3,6,2.4c-0.4,0.8-0.7,1.5-1.1,2.3c-0.4,1.6-0.5,4.2-0.1,6c0.3,1,0.6,2.1,0.9,3.1c0.4,0.7,1.2,0.8,1.4,1.8
			c0.2,1-0.4,1.6-0.4,2.1c-1.8,1-3.5-0.7-5.6-1c0.1-1.4-0.8-2.6-1.9-3c-0.1-0.1-0.1-0.1-0.2-0.2c-0.7,0.6-0.7,1.5-0.6,2.9
			c0.3,0.4,0.5,0.7,0.9,0.9c0,0,0,0.1,0,0.1c-1.6,0.1-3.2,0.2-4.8,0.3c-0.7-0.3-1.3-1.5-1.8-2.1C269.9,222.7,267,218.8,268.9,214.5z
			 M285.7,237c-0.3-0.1-0.5-0.2-0.8-0.3c-0.2-0.8-0.3-1.7-0.5-2.5C285.3,234.6,285.6,235.9,285.7,237z M284.5,233.5
			c0-0.2,0-0.4,0-0.6c0.1,0.1,0.2,0.3,0.3,0.4c0,0,0,0.1,0,0.1C284.7,233.5,284.7,233.5,284.5,233.5
			C284.6,233.5,284.5,233.5,284.5,233.5z M281.1,241.1c0.2-0.2,0.5-0.3,0.7-0.5c0.4,0.1,0.4-0.4,0.6-0.8c0.1,0.4,0.1,1,0.3,1.5
			c-0.3,0.4-0.6,0.5-0.9,0.9C281.4,242,281.3,241.6,281.1,241.1z M281.3,246.8c-1.4,0-2.7,0.1-4.1,0.1c0.1-0.1,0.1-0.2,0.2-0.3
			c0.4-0.6,1.4-0.9,2-1.3c0.8,0.5,0.5,1.1,1.7,1.2C281.2,246.6,281.2,246.7,281.3,246.8z M281.4,234.4c0,0,0.1,0,0.1,0
			c0.2,0.3,0.2,0.9,0.2,1.5C281,235.5,281.2,235.1,281.4,234.4z M282.1,244.1c0.2-0.1,0.3-0.2,0.5-0.3c0.3,0.3,0.2,1.5,0.5,2.1
			c-0.4,0.4-0.6,0.9-1.3,0.7c-0.1,0-0.1,0-0.2,0C282.3,245.8,282.3,245.3,282.1,244.1z M282.7,239.7c-0.1,0-0.1,0-0.2,0
			c-0.1-0.2-0.2-0.4-0.3-0.6c0.1-0.6,0.3-1.2,0.4-1.8c0.3,0.1,0.5,0.1,0.8,0.2c0,0.1,0.1,0.1,0.1,0.2
			C283.3,238.7,282.8,238.8,282.7,239.7z M282.3,230.3c0.2-0.2,0.3-0.3,0.5-0.5c0.1,0,0.1,0,0.2,0c0,0.3,0,0.7,0,1
			c-0.1,0-0.3,0-0.4,0C282.5,230.7,282.4,230.5,282.3,230.3z M278.8,230.4c-0.1,0-0.2,0-0.3,0c-1.4-0.9-0.6-0.6-2.4-1.1
			c-0.1-0.1-0.2-0.1-0.3-0.2c0,0,0-0.1,0-0.1c0.4-0.1,0.7-0.2,1.1-0.3c0.6,0,1.3,0.1,1.9,0.1C279.2,229.2,279,229.8,278.8,230.4z
			 M271.4,245.2c-3.9-1.5-6.7-2.7-8.7-5.9c-0.6-1,0-3.2-0.3-4.5c1.3-0.9,2-2.7,3.5-3.6c1.8-1.1,3.7-1,5.7-1.9c2.1,0,3.1,0.4,4.1,1.6
			c0.2,0.2,0.4,1.3,0.4,2c0.8,0.4,1.3,0.5,2.3,0.6c0,0.4,0.1,0.8,0.1,1.2c-0.8,0.2-1.1,0.1-1.5,0.9c-1-0.1-1.2-0.7-2.4-0.8
			c-0.5,0.9-0.4,2-0.2,3.1c0.6,0.1,1.2,0.3,1.8,0.4c-0.2,0.3-0.5,0.5-0.7,0.8c-0.3,0.7,0,1.7-0.4,2c0.2,0.4,0.4,0.8,0.6,1.2
			c0.7,0.1,1.5,0.1,2.2,0.2c0-1.1,0.1-1.7-0.5-2.5c0.2-0.7,1.2-1.3,1.9-1.5c0,0,0.1,0,0.1,0c0.1,0.3,0.1,0.7,0.2,1
			c-1.1,1.2-1,2.2-0.4,3.9c-1.6,1-3.1,1.9-4.7,2.9C273.5,246.4,272.2,245.5,271.4,245.2z M324.6,246.9c1.9,5.3-6.2,8.4-10.9,8.2
			c0-1.6-0.2-2-0.3-3.3c-0.2-0.2-0.3-0.3-0.5-0.5c-0.5-0.1-0.5-0.2-0.8,0c-0.9,0.6,0,2.4-0.4,3.3c-0.5,0.8-2.2,0.1-3-0.1
			c-1.7-0.5-4.2-0.3-5.7-1.4c-0.5-0.4-0.4-1.1-1.2-1.6c-0.3,0.1-0.7,0.2-1,0.3c-0.2,0.2-0.5,0.4-0.7,0.6c0,0.3,0,0.6,0,0.9
			c2.7,2,6.8,2.3,10.6,3.2c-0.8,3.6-11.1,7.3-16.3,6c-2.1-0.5-4-1.5-5.8-2c0.2-1.2,0.2-1.9-0.1-3.1c-0.5-0.2-1-0.5-1.5-0.7
			c-1.2,0.9-0.6,1.7-0.9,3c-2.1,3.5-17.1,3.1-16.2-4.2c0.3-2.7,2.9-6.7,5.3-7.6c0.9-0.4,6.5,1,8.2,0.4c0.5-0.4,1-0.8,1.5-1.2
			c1.5-0.5,2.3,0.7,3.4,1c0.9-0.4,1-0.5,2.2-0.6c0.3-0.8,0.5-1.5,0.7-2.5c0.4,0,0.7-0.1,1.1-0.1c-0.1,1.3,0.3,2.2,0.3,3.7
			c-0.2,0.1-0.4,0.1-0.6,0.2c-0.3-0.5-0.3-0.8-1-1c-0.1,0-0.3-0.1-0.4-0.1c-0.7,0.9-1.5,2.2-0.7,3.5c0.3,0.6,0.7,0.2,1.2,0.6
			c1,0.8,0,1.5,2.3,1.5c0.3-0.5,0.5-0.9,0.8-1.4c0.1-0.1,0.1-0.1,0.2-0.2c-0.4,1.8,0.2,3,1.9,3c0.3-0.3,0.5-0.6,0.8-0.9
			c0-1.5-0.7-2.9-2-3c0.1-1.8-0.3-2.5,0-4c2,0.2,4.3,0.9,5.5,2.1c0.9,0.2,1.3-0.2,1.9-0.4c1,0.1,2,0.1,3,0.2
			c0.1,1.4,0.7,2.3,2.1,2.5c0.1-0.1,0.1-0.1,0.2-0.2c0.8-0.5,0.6-1.6,0.4-2.5c0.6-0.1,1.3-0.2,1.9-0.3c0.1-0.3,0.1-0.7,0.2-1
			c0-0.1-0.1-0.1-0.1-0.2c-1.2-0.8-6.1-0.1-7.6-0.1c-0.5-0.8-0.3-0.8,0.1-1.5c0.5,0.1,2.8,0.8,3.6,0.3c0.5-0.3,1-1,1.7-1.1
			c1,0,1.9,0.1,2.9,0.1c0.9-0.2,1.2-1.1,1.9-1.4c2.3-0.9,5.4-1.2,8.1-1.3C322,243.7,323.9,244.8,324.6,246.9z M335.4,237.7
			c-2.2,1.4-5.4,0.9-8.1,1.6c-5.1,1-10.3,1.9-15.4,2.9c-0.3-0.5-0.6-0.9-0.9-1.4c-2-0.1-2.2,0.8-2.6,2.4c-0.5,0.1-1,0.2-1.5,0.3
			c-0.3-1.2-2-2.6-1.7-3.3c0.2-0.3,0.3-0.3,0.7-0.4c0.1,0.8,0.3,1.1,1.1,1.2c1.4-0.3,2.9-0.6,4.3-0.9c0,0.2,0.1,0.3,0.1,0.5
			c0.3,0.5,1,0.7,1.8,0.7c0.5-0.4,0.5-1.2,0.9-1.7c0.8-0.8,5.3-0.9,6.7-1c4.4-0.4,9.5-0.7,14.6-1
			C335.4,237.7,335.4,237.7,335.4,237.7z M337.9,236c-5.6,0.4-11.2,0.8-16.8,1.2c-1.5,0.3-8,1-8.4,0.4c-1.2,0-1.7,1.2-4.2,1.2
			c0-0.1-0.1-0.1-0.1-0.2c0.4-0.1,0.8-0.2,1.2-0.3c0.3-0.9,0.2-1.3,0.2-2.1c0.6-0.2,1.2-0.3,1.8-0.5c1.3-2.2-0.9-4-1.8-5.5
			c3.2,0.4,6.4,0.8,9.6,1.2c4.5-0.2,10.7,1,14.5,2c3.8,1,8.5,0.6,12.2,2.2C343.6,236.4,340.8,235.6,337.9,236z M464.9,190.2
			c-0.3-0.1-0.1,0-0.3-0.2C464.9,190.1,464.7,190,464.9,190.2z M464.1,188.9c0,0.1,0.1,0.2,0.1,0.3c-0.1,0-0.2,0-0.3,0
			C464,189.1,464,189,464.1,188.9z M412.3,168.4c0,0,0,0.1,0,0.1c-0.8-0.3-1.4-3-1.7-3.8C411.8,165.3,411.9,167.4,412.3,168.4z
			 M354.1,206.4c-0.1,0-0.2,0.1-0.3,0.1c0-3.7,2.5-4.6,3.1-7.5c0.1,0,0.2,0,0.3,0C357.1,202.2,355.1,204.3,354.1,206.4z
			 M357.4,208.5c0.1-0.6,0.2-1.1,0.3-1.7c-0.1-0.4-0.3-0.9-0.4-1.3c0-2.9,1.9-7,2.8-9.3c3.3-8.4,10.9-18.4,19.1-21.5
			c2.5-1,13.2-0.9,14.4-2.4c-0.1-0.5-0.3-1-0.4-1.5c-1.3,0-2.7-0.1-4-0.1c-2.3-0.4-4.2,0.1-6.4-0.3c-1.2-0.2-3.7-0.6-5.1-0.4
			c-1.4,0.1-2.9,0.1-4.3,0.2c0,0,0-0.1,0-0.1c4.5-2.1,16.3-4.9,21.5-3.2c2.3,0.7,4.3,1.7,6.3,2.8c1.1,0.6,1.8,1.8,3.5,1.8
			c0.2-0.5,0.5-1,0.7-1.5c-2.3-2-3-4.4-5.8-6.1c0-0.1-0.1-0.2-0.1-0.3c1.7-0.4,8.1,3.6,9.4,4.8c0.6,0.6,1,1.6,2,2.1
			c0.3,0,0.6,0,0.9,0c0.3-0.6,0.4-1,0.2-1.7c0,0,0-0.1,0-0.1c0.6,0,0.6,0,0.8,0.6c0.4,0,0.9,0,1.3,0c0.2-0.2,0.4-0.4,0.6-0.6
			c0.3-0.5,0.4-0.4,0.2-1c2.6-1.4,5-4.4,7-6.5c0.2,0.2-1.2,2-1.4,2.3c-0.5,0.5-3.4,4.7-3.6,5.4c-0.2,0.8,0.5,0.8,0.7,1.4
			c3.3,0,8.5-6.8,12.4-7.7c-1.8,2.6-4.9,3.6-6.4,6.6c0,0.2,0,0.4,0,0.6c0.2,0.2,0.5,0.3,0.7,0.5c1.6,0.8,5.5-2,6.8-2.5
			c4.2-1.7,8.7-2.5,12.8-1.7c-2.1,1.6-5,1.7-6.5,3.6c0,0.3,0,0.6,0,0.9c2,1.2,4.8,1.8,7.2,2.6c3.5,1.2,7.1,3.1,9.9,5
			c1,0.7,2.1,1.1,2.7,2.1c-0.9-0.3-1.2,0-2.2,0.1c-0.1,0.2-0.3,0.4-0.4,0.6c-0.1,0.4-0.1,0.5-0.1,1c4.3,1.5,8.4,10.5,9.5,15
			c-0.6-0.5-1.3-1.3-1.8-1.9c-0.2,0.1-0.4,0.1-0.6,0.2c-1,1.4,0.2,2.1,0.1,3.2c0.3,0.2,0.2,0.1,0.6,0.1c-0.3,1.6,1.4,4.1,1.2,6
			c-0.3,2.1,0.4,3.8-0.2,5.8c-0.6,2-1,4.1-1.2,6.3c-0.1,0-0.1,0.1-0.2,0.1c-1.6-1-1-8-1.5-10.1c-0.7-2.6-0.7-6.7-1.7-9.5
			c-0.9-2.8-2.4-5.3-3.8-7.5c-0.8-1.3-1.1-2.7-2.6-3.3c-0.3,0.1-0.5,0.1-0.7,0.3c-0.1,0-0.2,0.1-0.3,0.1c0.1,2.6,1.4,4.5,1.6,7.7
			c-0.1,0-0.1,0.1-0.2,0.1c-1.9-2.7-2.4-5.8-4.6-8.1c-0.3,0.2-0.7,0.4-1,0.6c-0.2,1.5,0.2,4,0.3,5.2c-0.1,0-0.1,0.1-0.2,0.1
			c-1-1.4-1.4-3.2-2.2-4.8c-1-1.9-3.1-3.1-4.3-4.8c-0.6-0.1-1.1-0.1-1.7-0.2c-0.1,0.8-0.1,1.5-0.2,2.3c-1.4-1.2-2.8-3.3-5.3-3.3
			c-0.6,1-0.2,4.1-0.3,5.1c-0.1,0-0.1,0.1-0.2,0.1c-1.4-1.8-5.6-6.6-7.6-7.5c-0.2-0.6-0.1-0.4-0.8-0.4c-0.2,0.3-0.4,0.5-0.6,0.8
			c0.1,1.9,1,4.3,0.2,5.7c0,0.1,0,0.1,0,0.2c-1.7-1.1-4.3-5.7-7-5c-1,0.5-2.3,2.9-2.8,3.9c-0.2,0-0.3,0.1-0.5,0.1
			c-0.2-1.2-0.3-2.9-0.9-4c-0.2-0.3-0.5-0.4-0.8-0.6c-1.1,0.1-6.3,2.8-7.3,3.5c-0.7,0.5-0.7,1.2-1.9,1.4c0.7-1.5,1.4-2.9,2.3-4.3
			c0.7-1,1.7-1.4,2.3-2.8c-0.3-0.4-0.7-0.8-1-1.2c-0.7-0.1-1.5,0-1.9,0.4c-2.5,2.8-5.8,5.2-9.1,7.5c-1.5,1.8-3.1,3.5-4.6,5.3
			c0,0-0.1,0-0.1,0c0.4-2,1.1-3.4,1.7-5c0.4-1.2,0.2-2.1,0.7-3.1c-0.1-0.2-0.3-0.3-0.4-0.5c-2.6,0.3-7,5.2-8.8,6.8
			c-5.2,4.7-9.7,11-13,17.1c-0.8,1.5-1.2,3.1-2.2,4.7c-1.2,2-2.5,4.7-3.1,7.2c-0.1,0-0.1,0.1-0.2,0.1c-0.5-1.9,0.9-5.2,1.4-7.1
			c1.8-6.2,3.2-12.7,5.7-18.2c0.7-1.5,3.2-4.5,2.9-6.1c0.1-0.5-0.2-0.7-0.5-1c-2.2,0.3-4.8,5.1-6.1,6.7c-3.9,5-5.9,11.7-7.9,18.4
			c-0.5,1.7-1.5,3.5-1.5,5.4c-0.1,0-0.1,0-0.2,0C358.8,213.4,357.3,210.8,357.4,208.5z M385.3,172c0.1,0.1,0.2,0.1,0.3,0.2
			C385.3,172.1,385.5,172.2,385.3,172z M442.6,168.8c-0.3,0.2-0.1,0.1-0.4,0C442.3,168.8,442.5,168.8,442.6,168.8z M461.7,223.4
			c-0.1,0.3,0,0.1-0.2,0.3c0-0.1,0.1-0.2,0.1-0.3C461.6,223.4,461.7,223.4,461.7,223.4z M361.5,248.3c-1.1,0.9-3.7-0.2-4.4-0.8
			c-0.5-0.5-1.5-0.8-1.9-1.4c-0.1-0.4-0.1-0.7-0.2-1.1c-0.9-2.2-2.9-4.7-3.1-7.5c1.2,0,1.9,0,2.8-0.4c1.3,3,0.7,3.9,4.3,4.5
			c0.8,0.1,1.6,0,1.9-0.6c0.6-0.3,1.1,0,1.7,0.2C363.7,242.9,363.1,247.4,361.5,248.3z M383.4,325.3c-4.9-0.2-10.7-4.6-13.3-7
			c-1.2-1.1-1.6-2.5-3-3.6c0-0.1,0.1-0.2,0.1-0.3c0.6-1.1,2.7-1.2,4-1.9c3.3-1.7,6.6-3.2,10.7-3.1c0.1,0,0.1,0.1,0.2,0.1
			c0.1,1.6,0.2,3.1,0.3,4.7C383.3,317.6,383.1,322,383.4,325.3z M458.1,309.4c0,0.1,0,0.2,0,0.3c-1.8,0.8-3.1,2.5-4.5,3.7
			c-2.6,2.3-5.8,4-8.8,5.9c-0.9,0.6-1.6,1.4-2.7,1.8c-0.1,0.1-0.2,0.2-0.3,0.3c-0.6-1.2-0.4-13.3,0.3-14.6
			C447.7,307.3,452.5,308.1,458.1,309.4z M471.1,231.4c-0.8,0.1-1.5,0.2-2.3,0.3c-0.2,0.4-0.5,0.7-0.7,1.1c0.2,0.3,0.4,0.5,0.4,1.1
			c0.5,0.3,1.3,0.6,2,0.6c-0.2,3.2-2.4,6.6-4.2,8.7c-0.6,0.6-1.6,0.8-2,1.6c-1,0.1-1.6-0.2-2.5-0.3c-1.4-1.9-1.9-3.6-2.1-6.1
			c0.1-0.1,0.2-0.1,0.3-0.2c0.2-0.2,0.4-0.4,0.6-0.6c0.9,0.8,1.5,1.3,2.3,2.3c3.3-0.4,4.7-4.5,4.6-7.9c-0.1,0-0.1,0-0.2,0
			c-0.3-0.2-0.5-0.2-0.9-0.1c-0.5,0.2-0.4,0.3-0.9,0.5c-0.6,1.9-0.3,3.2-2.2,4.9c-0.9-0.8-1.2-1.9-2.5-2.3
			c-4.3,1.9-3.3,7.2-0.9,10.1c-0.3,1.1-1.4,2.3-1.8,3.2c-0.4,0.8-0.3,2.3-0.5,3.1c-1.2,3.9-3.3,7.8-5.2,11.1c-0.5,1.5-1.1,3-1.6,4.5
			c-4.7,9.2-8.3,18.3-16.7,23.7c-0.6,0.6-1.2,1.2-1.8,1.8c-1.3,0.6-2.5,1.3-3.8,1.9c-2.8,1.8-6.4,5-10.9,4.7
			c-12.7-0.8-20.7-5.5-29.6-12.5c-2.1-1.6-4.8-5.7-6.2-7.8c-0.3-0.4-1.2-0.6-1.6-1c-0.1-0.1-2-2.2-2.1-2.3c-1.2-1.8-3-3.4-4-5.2
			c-0.4-0.7-0.4-1.7-1.1-2.5c-0.7-0.8-1.4-1.6-2.1-2.4c-1.5-3.5-4.7-13.4-7.3-15.4c0.1-1.3,1.2-1.9,1.5-3c0.8-2.9,0.5-7.6-2.6-8.3
			c-2-0.5-2.7,1.1-4.7,0.6c-0.7-2.6-1.5-4.8-2-7.9c-0.3-0.2-0.5-0.3-1.1-0.3c-0.1,0-0.1,0.1-0.2,0.1c-0.2,1.1-0.6,2.3-0.2,3.4
			c0,0.3-0.1,0.6-0.1,0.9c-0.8-0.1-1.3-0.2-2.1-0.1c-0.4-0.6-0.8-1.3-1.2-1.9c-0.2-0.7,0.1-2.3,0.3-2.9c0.6-2.2,0.9-5.2,2.6-6.2
			c0.6-0.1,1.3-0.3,1.9-0.4c1.2-0.5,2.2-0.2,3.2,0.5c0.9,0.6,1.1,2.5,1.4,3.5c0.3,0.2,0.9,0.3,1.3,0.1c0.4-0.2,0.5-0.5,0.7-0.9
			c-0.4-1.6-1.1-3.8-1.5-5.6c-0.2-1,0.6-1.1,0.5-2c-0.4-5.9,1.3-10.8,3.2-15.5c0.9-2.2,1.3-4.4,2.3-6.2c1.2-2.2,3.5-6.6,5.2-7.4
			c-1,2.5-2,5-3,7.5c-1.6,5.9-3.5,12-5.2,18.1c-0.7,2.5-1.9,9.9,0,10.9c0.3-0.1,0.6-0.3,0.9-0.4c0.5-0.8,0.1-1.7,0.4-2.8
			c1.1-3.1,2.1-6.3,3.2-9.4c4.4-11,12.9-24,22.2-30c0,0,0.1,0,0.1,0c-0.5,3.4-1.9,6.4-1.7,10.1c0.4,0.2,0.7,0.3,1.4,0.3
			c1.1-0.8,1.9-4,2.8-5.2c1.6-2.2,6.6-6.6,9-7.5c0,0,0.1,0,0.1,0c-0.9,1.9-1.7,3.9-2.6,5.8c0.2,0.6,0.5,1.1,0.8,1.5
			c1.6-0.4,2.4-1.9,3.7-2.9c2.1-1.5,4.5-3.4,7.1-4.1c1.2,1.5,0.8,4.2,2.6,5.1c0.3,0.2,0.7,0,1.2-0.1c0.8-1.3,1.6-3.8,2.9-4.6
			c0,0,0.1-0.1,0.1-0.1c1.1,0.2,5.1,3.9,5.2,5c0.6,0,1.7,0.9,2.4,0.3c1.1-0.7,0.6-3.3,0.5-5.1c0.2,0,0.3,0,0.5,0
			c1.3,0.9,5.7,5.1,6.2,6.4c0.8,0.1,1.4,0.1,2.1,0c0.2-1.9,0.1-2.7,0.1-4.5c2.6-0.7,1.9,4.4,5.1,3.6c0.4-0.7,0.6-1.7,0.6-2.5
			c2.8,0.5,3.2,3.9,4.2,6.3c0.1,0.4,2.4,3.5,2.7,3.8c0.3,0.3,0.6,0.1,1.1,0c0.3-1.2,0.6-2.6,0.4-3.5c1.5,0.7,1.6,3.5,3.1,4.4
			c0.2,0.6,0.5,0.5,1,0.7c0.3-0.2,0.5-0.3,0.9-0.5c0.3-1.3,0.8-2.1,0.5-3.3c0-0.1,0.1-0.1,0.1-0.2c0.1,0,0.2,0,0.3,0
			c1.7,3.1,2.2,6.4,3.1,9.7c0.1,0.9,0.1,1.7,0.2,2.6c0.3,1.1,0.5,2.3,0.8,3.4c0.2,3.2-0.1,7.4,0.8,10.4c0.7,2.2-0.9,4.8,0.2,6.6
			c0.3,0.4,0.8,0.5,1.4,0.5c0.6-1.3,2.7-2.6,4.4-2.7c-0.2-0.4,0-0.1-0.3-0.3c0.3-0.2,0.6-0.4,0.9-0.6c1-1,2.7,0,3.3,0.7
			C471.1,225.5,471.3,228.7,471.1,231.4z M522.8,211.8c1.8-1,4.1-1.6,6.2-2c1.2-0.1,2.4-0.2,3.6-0.3c4.5,0.6,8.1,1.2,9.6,4.2
			c-1.1,1.5-2.2,3-3.3,4.5c-0.3,0.1-0.8-0.4-1.2-0.3c-1.5,1,0.4,4,0.9,4.8c-0.2,1.1-0.7,1.9-1,3.1c-0.9-0.5-1.1-2.5-0.8-3.6
			c-0.7-0.4-1-0.9-1.6-1.4c-0.2,0-0.3,0-0.5,0c-0.3,0.3-0.5,0.4-0.6,0.9c-0.4-0.1-0.9-0.1-1.3-0.2c-0.4,1.9-0.4,3.7,0,5.5
			c-0.1,0-0.1,0.1-0.2,0.1c-2.4-0.7-7,0.6-9.1-0.7C518.5,223.4,517.2,215,522.8,211.8z M538.3,230.5c0.2,0,0.4,0,0.6,0
			c-0.2,1.2-1,1.7-1,3.3c0,0-0.1,0-0.1,0c-0.1-0.7-0.3-1.1-0.5-1.6C537.8,231.8,538.3,231.4,538.3,230.5z M537.6,226.7
			c0-0.1,0.1-0.3,0.1-0.4c0.1,0.1,0.2,0.3,0.3,0.4c0,0,0,0.1,0,0.1C537.9,226.8,537.7,226.8,537.6,226.7z M534.7,225.3
			c0-0.1-0.1-0.1-0.1-0.2C534.8,225.2,534.7,225.2,534.7,225.3z M535,227.9c-0.3-0.6-0.4-0.7-0.1-1.3c0.9,1.2,0.7,2.2,0.7,4.2
			c-0.8-0.3-1.5-0.6-2.3-0.9c-0.2-0.2-0.4-0.5-0.6-0.7c0-0.1,0-0.3,0-0.4C533.7,228.8,534.6,228.5,535,227.9z M562.9,255.9
			c-1.8,2.4-4.9,4.1-8.3,5c-0.9-0.3-4.3-0.3-5.3-0.4c0.1-1.4,0.2-2.1-0.1-3.3c-0.6-0.2-0.9-0.5-1.7-0.5c-0.2,0.2-0.4,0.3-0.6,0.5
			c-0.3,0.5-0.3,0.2,0.1,0.6c-0.1,0-0.2,0-0.3,0c0.2,0.4,1.3,1.1,1.7,1.3c0,0.1,0.1,0.1,0.1,0.2c-2.1,1.2-8.3-0.8-9.4-1.9
			c-0.7,0-1.3,0-2,0c-0.1,0.5,0,0.8-0.1,1.3c1.4,0.9,4.4,1.3,6.1,1.7c0,0,0,0.1,0,0.1c-3.4,1-8.2-0.2-11.3-1.1
			c-5.8-1.7-16.1-6.3-11.7-14.4c0.7-1.2,1.7-2.2,2.6-3.2c1.7,0,8.3,0.4,9.3,1.3c0.7,0.5,0.5,1.9,1.1,2.6c0.2,0.2,0.4,0.1,0.6,0.4
			c1-0.1,1.1-0.6,1.7-1.1c-0.4-1.5-1.4-2.6-1.5-3.9c-1.1-0.2-2.4-0.4-3.5,0c-2.1-0.2-4.1-0.3-6.2-0.5c0.6-0.7,1.3-1.3,1.9-2
			c0-0.2,0.1-0.4,0.1-0.6c-0.1-0.1-0.3-0.1-0.4-0.2c-1.3-0.7-2.8,2.2-3.8,2.6c-0.7,0.3-7.5-0.4-8.9-0.6c-10.5-1.6-20.8-1.8-30.1-4.9
			c-2.5-0.5-5-0.9-7.5-1.4c0-0.1-0.1-0.2-0.1-0.3c0,0,0.1-0.1,0.1-0.1c6.8,0.1,15.1-0.1,22.1,0.6c4.4,0.4,8.8,0,13.6,0.8
			c1.8,0.3,3.5-0.2,4.7-0.1c3.3,0.2,6.8,0.4,10.3,0.9c0.4-0.3,0.8-0.5,1.2-0.8c0,0,0-0.1,0-0.1c-0.1-0.6-0.2-0.4-0.4-0.9
			c-5.1-0.2-10.1-0.3-15.2-0.5c-8.1-0.4-16.3-0.9-24.4-1.3c0,0,0-0.1,0-0.1c2.5-0.3,4.9-0.7,7.4-1c2.9-0.4,5.9-0.1,8.9-0.9
			c1.2,0,2.5-0.1,3.7-0.1c1.7-0.4,5.7-0.8,7.7-0.7c4.6,0.3,7.1-1.3,10.8,0.3c-0.2,1.1,0.1,3.1,1.7,3.2c0.3-0.4,0.6-0.7,0.9-1.1
			c0-0.3,0-0.6,0-0.9c-0.4-0.4-0.5-0.7-1.1-0.9c0,0,0-0.1,0-0.1c0.2-0.2,0.3-0.5,0.5-0.7c1.1-0.4,1.7,0.1,2.9,0
			c0,1.1-0.1,1.4,0.2,2.5c0.5,1,4.4,4.1,5.9,3.8c0.3-0.3,0.5-0.5,0.8-0.8c0,0.1,0.1,0.1,0.1,0.2c0.5,0.9,0.1,2.2,0.4,2.9
			c0.9,2.4,2.4,4.5,5.6,4.6c0.1,0,0.1-0.1,0.2-0.1c0.1-0.1,0.1-0.2,0.2-0.3c-0.4-0.4-0.6-1-1.2-1.3c-1-0.5-1.9-0.6-2.5-1.4
			c-1.1-1.4-1.3-5.1-0.5-6.6c0-0.1,0-0.1,0-0.2c0.6,0.3,0.6,1,1.2,1.3c1.6,0.8,3.2-0.9,2.5,2.6c0.4,0.3,0.6,0.6,1.1,0.8
			c0.3,0,0.6,0,0.9,0c0.2-0.4,0.3-0.7,0.5-1.1c0.1,0,0.1-0.1,0.2-0.1c0.1,0,0.2,0,0.3,0c-0.2,0.8-0.6,1.4-0.8,2.2
			c0.4,0.6,0.8,1.1,1.2,1.7c1.2-0.1,1.4-1.3,2.2-1.4c0.2-0.1,0.1,0,0.3,0.1c0.2,0.3,0.1,3.5,0.2,4.9c-0.1,0-0.1,0.1-0.2,0.1
			c-1.3-1.3-3.3-2.1-4.3-3.4c-0.1,0-0.2,0-0.3,0c-0.2,0.4-1.1,4-1,4.4c0.3,0.8,0.9,1.3,1.2,2c0.4,0,0.7,0,1.1,0
			c0.2-0.5,0.3-0.9,0.5-1.4c0.4,0.1,0.9,0.1,1.3,0.2c0.3,0.4,0.6,0.5,0.7,1.1c0.6,0.1,1.2,0.3,1.8,0.4c0,0.2-0.1,0.3-0.1,0.5
			c0.4,0,0.7-0.1,1.1-0.1c0.5-0.8,0.2-1.9-0.4-2.7c0.6-0.4,1.6-1.2,1.2-2.2c-0.1-0.2-0.3-0.3-0.4-0.5c0.2-0.4,0.5-0.9,0.7-1.3
			c-0.5-1-1.3-1.5-1.9-2.3c0.4-0.7,1.8-1.1,1.6-2c0.1-0.8-0.6-1.5-0.9-2.3c0.4-0.2,0.2,0,0.4-0.4c1.2,0.2,1.2,1.3,2.1,1.5
			c3.6,1,3.9,4.7,2.7,8.3c-1.2,3.7-9,9.9-14.5,6.8c-0.2,0.1-0.5,0.2-0.7,0.3c0,0.4-0.1,0.8-0.1,1.2c0.3,0.2,0.5,0.3,0.8,0.5
			c1.6-0.1,3.1-0.1,4.7-0.2c0.2,0.3,0.1,0.1-0.3,0.2c-0.1,2.1,0.2,2.5,0.8,4.1c0.4-0.1,0.9-0.1,1.3-0.2c1.5-1.4-0.8-3.4-1.5-4
			c2.2-1.2,4.9-1.4,7-3c1.5-1.2,2.3-3.4,3.8-4.5c0.1,0,0.3,0,0.4,0c-0.1,0.5-0.2,0.5-0.1,0.9c0.1,0.4,0.2,0.3,0.3,0.7
			c1.4,0,4.4,0.3,5.1,1.1C565.7,249.2,564.5,253.7,562.9,255.9z M541.6,229.8c0.6-1.4,2-1.5,3-2.5c1,0.9,0.1,2.6,1.8,3.2
			c0,0.3,0,0.5,0,0.8C544.5,232,543.3,230.1,541.6,229.8z M546.8,226.8c0.1-0.1,0.3-0.2,0.4-0.3c0.2,0.2,0.1,0.1,0.1,0.4
			c-0.1,0.1-0.1,0.2-0.2,0.3C547,227.1,546.9,227,546.8,226.8z M550.5,238c0,0,0,0.1,0,0.1c-0.4-0.1-0.3,0-0.5-0.3
			C550.2,237.9,550.3,238,550.5,238z M549.6,233.1c0,0.1,0,0.1,0,0.2c-0.3-0.2-0.1-0.3-0.6-0.4c0.1-0.3,0.1-0.6,0.2-0.9
			c0.3,0.3,0.5,0.5,0.8,0.8C549.9,232.9,549.7,233,549.6,233.1z M548.7,226.4c0,0,0-0.1,0-0.1c0.2-0.1,0.3-0.2,0.5-0.4
			c0.4,0,0.7,0.1,1.1,0.1c0.3,1,0,2.2-0.7,2.8C549.8,228,549.3,227,548.7,226.4z M549.7,229.2c0-0.1,0-0.2,0-0.3
			c0.1,0.2,0.2,0.4,0.3,0.6c-0.4,0.5-0.8,0.8-0.7,1.5c-0.1,0.1-0.1,0.2-0.2,0.3c-0.2-0.5-0.2-0.5-0.7-0.7c0,0,0-0.1,0-0.1
			C548.8,230.1,549.3,229.7,549.7,229.2z M555.4,233.3c0.3-0.3,0.3-0.4,0.9-0.5c0,0.3-0.1,0.6-0.1,0.9c-0.4-0.1-0.4,0-0.6-0.3
			C555.5,233.4,555.5,233.4,555.4,233.3z M574.4,238.6c-0.1,0.9,0.1,2.4-0.5,3.2c-0.2,0.3-0.8,0.4-1,0.7c0,0.2,0,0.4,0,0.6
			c-1.4,1.2-5.5,2.9-8.7,2c-0.5-0.3-1-0.6-1.5-0.9c-0.4-0.1-1.5,0.5-1.5,0.5c-0.8-0.1-1.6-0.9-2.7-0.6c1.1-1.8,0.1-6.7-0.4-7.9
			c0.1-0.1,0.2-0.3,0.3-0.4c0.1,0,0.2,0,0.3,0c0.5,0.9,1,1.7,1.5,2.6c0.5,0.1,1.1,0.1,1.6,0.2c0.8,0.1,0.9-0.8,1.1-1.6
			c-0.7-1.3-2.1-3.5-3.3-4.3c-0.2,0-0.4,0-0.6,0c-0.3,0.1-0.2,1-0.2,1.7c-0.3-0.5-0.5-1-0.8-1.5c-0.4-0.3-0.8-0.5-1.2-0.8
			c-0.4-1-0.3-2.6-1.4-3.4c-0.6-0.7-1.9-0.1-2.5,0.1c-0.2,0.5-0.3,1.3-0.4,2c0,0-0.1,0-0.1,0c0-0.1,0-0.1,0-0.2
			c-0.1-0.1-0.4-1.9-0.5-2.5c1-0.4,2.2-1.2,2.7-2.1c0-1.6-0.8-2-1.9-2.5c-0.5,0.3-0.7,0.5-1,1c-1.3,0-2.5,0-3.8,0
			c-0.1-0.3-0.3-0.6-0.4-0.9c0.1-0.1,0.1-0.1,0.2-0.2c0.3,0,0.5,0.1,0.8,0.1c0.8-0.3,1.1-0.9,1-2.1c-0.6-0.6-1.1-1.1-1.7-1.7
			c-0.1,0-0.2-0.1-0.3-0.1c-0.4,0.6-0.7,1.4-0.4,2.2c0,0.2,0,0.5,0,0.7c-0.5-0.1-1.1-0.2-1.6-0.3c-0.8-0.4-1.6-1.6-2.1-2.3
			c0,0-0.1,0-0.1,0c-0.6,0-0.7,0.2-0.9,0.6c-0.7,1.7,0.9,2,1.1,3.3c0.3-0.1,0.7-0.3,1.1-0.1c0.4,0.3,0.5,0.8,0.5,1.5
			c-1,0.6-2.6,1.8-3.7,2c0-0.1-0.1-0.2-0.1-0.3c0-0.1,0-0.3,0-0.4c0.9-0.2,1.5-0.3,1.8-1c0.9-2.2-1.1-2.2-2-3.2
			c-2.1-2.4,0.5-5.9,2-7c0.2,0.1,0.3,0.3,0.5,0.4c0,1.9-0.4,2-0.5,3.5c0.2,0.1,0.4,0.1,0.6,0.2c2-2.3,0.2-4.6,0.7-5.3
			c0.5-0.8,6.1-3.3,7.2-3.6c1.2-0.3,2.7,0.1,3.7-0.4c1.9,0.5,2.9,0.2,4.4,0.8c5.9,2.3,7.4,5.5,4.4,11.5c-0.8,1.7-3.2,3.1-3.1,5.2
			c0.6,0.2,1.5-0.2,1.9-0.1c1.3,0.3,2.7,0.5,4,1C571.2,230,575.2,233.5,574.4,238.6z M415.1,193.3c0.1-0.1,0.2-0.1,0.3-0.2
			c0-0.2-0.1-0.3-0.1-0.5c-0.9-0.4-7.6-0.4-9.4-0.4c-0.1,0.1-0.3,0.1-0.4,0.2c0,0.3,0,0.6,0,0.9C408,194.1,412.6,193.7,415.1,193.3z
			 M412.6,198c1.9-0.4,4.8,0.1,6.4,0.2c0.2-0.2,0.4-0.4,0.6-0.6c0-0.1,0-0.3,0-0.4c-1.6-0.5-3.6-0.7-5.6-0.7c-0.5,0.4-1.5,0.1-2,0.2
			c-2.4,0.4-4.7,0.6-6.8,0.9c-0.9-0.1-1.7-0.2-2.6-0.3c-0.3,0.2-0.3,0.2-0.4,0.5c-0.2,0.4,0,0.6,0.1,1
			C405.8,199.5,409.1,198.7,412.6,198z M402.3,202.5c0.1,0.1,0.1,0.2,0.2,0.3c3.6,0.9,9.3-2.1,13.2-2.4c1.5-0.1,3.6,1,5.2,0.5
			c1.1-1.4-4-1.6-4.9-1.8C413.3,200.3,402.9,200.2,402.3,202.5z M416,205.4c-0.8-0.1-0.9,0-1.7,0.1c-0.1,0.4,0,0.3-0.2,0.5
			c0.1,1.1,0.5,2.7,0.9,3.8c3,8.8,8.2,2.8,12.8,0c1.2-0.7,2.1-0.5,3.6-0.9c0.8-0.2,1.5-0.3,2.3-0.5c0.6,0.1,2.8,0.5,3.4,0.9
			c3.4,2,4.1,5.5,9.3,4.9c0.6-0.1,1.5,0.5,2.3,0.1c0.2-0.2,0.3-0.3,0.5-0.5c-0.5-1.4-2.6-3.5-3.4-5c-2.7-4.9-4-8.9-10.6-9.1
			c-1.5,0.2-3,0.4-4.5,0.6c-3.3,1.5-6,4-9.2,5.5C419.8,206.6,417,207.6,416,205.4z M421.8,208c2.9-1.4,5.3-3.7,8.1-5.1
			c1.8-0.9,3.9-0.4,5.8-1.2c0,0,0.1,0,0.1,0c0.7,0.5,2.6,0.4,3.6,1.1c0.6,0.4,0.9,1.5,1.2,1.9c0.7,1,1.8,1.9,2.4,3
			c0.9,1.6,1.3,3.1,2.4,4.5c0,0,0,0.1,0,0.1c-1.6,0.4-2.2-1-3.1-1.7c-2-1.5-5.9-4.8-9.7-4.2c-2.5,0.4-4.7,0.7-6.5,1.9
			c-1.9,1.3-3.9,4.1-7,4.1c-1-1-2.1-1.3-2.2-3.5C418.4,208.7,420.4,208.7,421.8,208z M382.9,212.5c1.2-0.8,2.9-1.5,4.3-2.1
			c2.9-1.2,6.7,1.6,8.3,2.6c4.5,2.8,9.7,3.6,13.5-0.1c0.6-1,1.1-2.1,1.7-3.1c0.3-1.1-0.3-1.6,0.1-2.4c-0.3-0.3-0.6-0.6-0.9-0.9
			c-1.1,0.1-0.8,0.7-1.5,1.1c-1.4,0.8-3.3,1.5-5.3,1.1c-1.6-0.3-2.6-1.8-3.8-2.5c-2.6-1.6-4.5-3-8.1-3.3c-1.2,1.1-3.2,1.3-4.6,2.3
			c-3.2,2.2-5.1,5.2-7.4,8.3c-0.7,0.9-2,0.9-2.2,2.3c0.3,0.3,0.5,0.5,0.8,0.8C380,216.3,381.3,213.6,382.9,212.5z M391.2,205
			c5.4,0.1,10.5,8.2,15.7,5.5c0.2,0,0.5,0,0.7,0c0,0,0,0.1,0,0.1c-1.6,2.4-5.3,3.8-8.4,2c-4.9-2.8-8.4-5.7-14.9-3.1
			C386.1,206.7,388.8,206.9,391.2,205z M444.1,226.6c-0.6-3.1-6.8-10.3-10.1-10.8c-1.2,0.5-2.5-0.1-4,0.3c-3.6,1-10.1,4.8-10.6,9.2
			c0.5,0.7,1.1,1.3,1.6,2c3,0.7,6.4-2.3,8.4-3.6c0.1,0.1,0.1,0.1,0.2,0.2c-0.6,2.5,2.1,5.6,5.2,4c1.6-0.8,1.3-2.6,1.7-4.3
			c0-0.1,0-0.1,0-0.2c3.1,0.4,3.7,4,7,3.9C443.7,227.1,443.9,226.9,444.1,226.6z M557.3,223.1c0.5-0.2,0.5-0.5,0.8-0.9
			c-0.3-1-4.6-6.3-5.6-6.4c-1,1.6,0.4,3.8,1.2,5.3c0.7,0.2,1.3,0,1.8,0c0.4,0.7,0.8,1.4,1.2,2.1
			C556.9,223.2,557.1,223.2,557.3,223.1z M533,219.7c2.2-0.1,0.4-2.6,0-3.2c-0.4-0.1-0.8-0.1-1.2-0.2c-0.6,1.1,0.1,2.1,0.7,3.3
			C532.7,219.7,532.8,219.7,533,219.7z M401.9,229.6c1.2-0.8,1.9-1.1,2.6-2.3c0.4-0.3-1.3-4.9-1.3-5.6c-1.5-0.5-2.3-2.3-3.7-3
			c-1.9-1-4.1-0.5-5.8-1.1c-4.6,2-8.5,4.1-12.4,6.7c-0.2-0.1-0.3-0.3-0.5-0.4c-1.9,0.1-2.2,1.8-3.4,2.6c0.1,0.3,0.1,0.6,0.2,0.9
			c0.9,0.5,1.6,0,2.4-0.4c1.3,0.3,3.7,2,5.1,2.6c2.3,1,10.6,1.3,12-0.9c-1.5-0.9-3.9,0.4-5.9,0.1c-3-0.5-6.2-0.8-8.4-2.8
			c-0.1,0-0.1-0.1-0.2-0.1c0.6,0,1.3-0.1,1.9-0.1c1.4-0.5,3-1.4,4.2-2c0.1,0.9,0.2,1.7,0.3,2.6c1.8,1.3,6.5,0,5.4-2.3
			c0.1-0.1,0.2-0.1,0.3-0.2C396.3,225.7,399,229.5,401.9,229.6z M278.7,222.4c0.3-1.6-1.1-3.4-2.7-3.4c-0.4,1-0.4,2.1-0.1,3.2
			C276.7,222.7,277.8,222.7,278.7,222.4z M528.2,224.5c0.2,0.1,1.2-0.2,1.6-0.2c0.3-0.5,0.5-0.6,0.5-1.5c-0.7-1-1.2-1.5-2.7-1.7
			C527,221.9,527.4,224.1,528.2,224.5z M314,224.7c-0.5,0.8-0.8,2.1-0.3,3.1c0.3,0.5,0.8,0.7,1.7,0.7c0.3-0.5,0.6-0.7,0.9-1.3
			c-0.1-1.1-0.9-1.9-1.5-2.6c-0.2,0-0.4,0-0.6,0C314.1,224.7,314.1,224.7,314,224.7z M557.4,226.4c-0.2,0-0.4-0.1-0.6-0.1
			c-0.1,0.1-0.2,0.2-0.3,0.3c-0.4,1.7,0.4,2.2,0.9,3.5c0.1,0.1,0.2,0.1,0.3,0.2c0.3-0.3,0.7-0.7,1-1c0-0.1,0.1-0.2,0.1-0.3
			C558.8,227.6,558.2,227,557.4,226.4z M464.2,228.2c-0.5,0.3-1.1,0.5-1.6,0.8c0,0.2-0.1,0.3-0.1,0.5c0.5,0.2,0.9,0.5,1.4,0.7
			c0.4-0.3,0.9-0.5,1.5-0.5c0.1-0.3,0.3-0.5,0.4-0.8c0-0.1-0.1-0.3-0.1-0.4C465.2,228.4,464.7,228.3,464.2,228.2z M358.7,229.6
			c-1,0.6-1.5,0.8-2,1.9c0.1,0.5,0.3,0.6,0.7,0.8c0.6-0.1,0.8-0.3,1.2-0.5c0.9,0.9,0.4,1.6,0.8,2.8c0.1,0.1,0.3,0.3,0.4,0.4
			c0.3,0,0.7-0.1,1-0.1c0.3-0.3,0.6-0.5,0.9-0.8C361.7,231.8,360.5,230.1,358.7,229.6z M440.4,229.8c-3.4,2.1-5.6,1.7-9.3,0.7
			c-0.2,0.2-0.4,0.4-0.6,0.6c0,0.2,0.1,0.5,0.1,0.7c2.9,2.1,8.2,1.8,10.4-1C441.7,230.3,441.1,229.8,440.4,229.8z M389,233.7
			c-0.8-1.6-3.5-0.4-5.1-1.1c-0.8-0.4-1.1-1.3-2.3-1.4c-0.2,0.1-0.3,0.2-0.5,0.3c0,0.3,0,0.7,0,1c1,2.1,5.4,2.3,7.8,1.4
			C388.9,233.9,389,233.8,389,233.7z M366.5,236.5c-0.4-1.9,0.9-3.1,1-5c-0.3-0.1-0.6-0.1-0.9-0.2c-0.5,1.2-2.4,3.1-1.8,5.5
			c1.5,6.1,8.2,19.6,16.5,17.1c0-0.1,0-0.3,0-0.4c-1.2-0.1-2.5-0.2-3.7-0.3C373.2,251,367.6,242.1,366.5,236.5z M565.9,234.6
			c-0.1-1.3-0.7-2.5-1.8-2.8c-0.3,0.8-0.5,1.6-0.8,2.4c0.5,0.5,1,1,1.5,1.5C565.4,235.4,565.6,235.1,565.9,234.6z M270.8,232.1
			c-0.4,1.2-0.9,3,0.1,3.9c0.5,0.1,0.9,0.2,1.4,0.3c0.5-0.5,0.7-0.9,1-1.7C273,233.5,272.5,232.2,270.8,232.1z M317.1,232.5
			c-0.9,1.1-0.4,2-0.6,3.5c0.7,0.1,0.9,0.4,1.8,0.4c0.3-0.4,0.6-0.6,0.8-1.2c-0.1-1.4-0.8-1.8-1.3-2.6
			C317.6,232.6,317.3,232.6,317.1,232.5z M411,254.5c0.6-0.1,1.3-0.1,1.9-0.2c6.5,1.2,13.6-4.5,14.5-9.3c0.6-3.1-1.7-11.8-4.9-11.9
			c-0.3,0.3-0.6,0.5-0.9,0.8c0.3,1.1,1.2,1.3,1.5,2.2c0.8,2.2,2.9,4.7,2.3,8.1c-1.3,7.6-13.1,10.4-19.7,6.1c-2.8-1.8-4.5-7.2-3-11.4
			c0.6-1.6,2.7-2.8,3-4.5c-3.8-0.3-6,5.6-5.4,9C401.5,249.6,403.5,253.1,411,254.5z M313.7,233.7c-0.6,0.9-0.3,1.7-0.5,2.8
			c0.4,0.5,0.8,0.8,1.5,1c0.3-0.4,0.6-0.4,0.8-0.9C316.1,235.7,314.9,233.7,313.7,233.7z M537.3,241.1c-0.1-1.7-1-1.8-1.9-2.7
			c-0.5-0.5,0-2.6-2.2-3c-0.1,0.2-0.3,0.3-0.4,0.5c-0.8-0.6-1.6-0.3-2-0.5c-0.8-0.5-0.7-1.4-2.1-1.5c-0.5,1.2-0.3,2.3,0.5,3.3
			c0.6,0.1,1,0.2,1.8,0.1c0.3,0.5,0.5,1,0.8,1.5c0.6,0.1,2-0.1,2.6,0.4c0.5,0.6-0.1,1.2,0.2,2c0.1,0.3,0.5,0.3,0.6,0.8
			c0.3,0.1,0.7,0.1,1,0.2C536.6,241.9,536.9,241.5,537.3,241.1z M439.9,235.5c0-0.1-0.1-0.1-0.1-0.2c-0.3-0.1-0.6-0.1-0.9-0.2
			c-1.2,1-3.2,0.8-4.7,1.5c-0.4,0.3-0.3,0.7-0.2,1.4c1.8,0.9,4.1-1.1,5.7-1.6C439.8,236.1,439.8,235.8,439.9,235.5z M554.4,239.1
			c0.7,0,1.1-0.3,1.3-0.9c0.3-1-0.9-1.6-1-2.4c-0.4,0-0.9-0.1-1.3-0.1C553,237,553.1,238.3,554.4,239.1z M383,236.9
			c-0.2,0.1-0.4,0.2-0.6,0.3c0,0.8,0.2,0.9,0.4,1.5c0.8,0.4,2.1,0.2,3.1,0c0.1-0.4,0.1-0.6-0.1-0.9C385.4,237.2,383.7,237,383,236.9
			z M440.7,239.5c0-0.3,0.1-0.6,0.1-0.9c-0.3-0.3-0.7-0.3-1-0.4c-0.8,0.5-2.3,0.6-2.9,1.4C437.3,241.6,439.6,240,440.7,239.5z
			 M565.1,238.3c0,1-0.5,2.1,0.5,2.8c0.2,0.4,0.5,0.5,1,0.6c0.3-0.3,0.7-0.7,1-1c0-0.6,0-0.8-0.1-1.2
			C567.6,238.6,566.4,238.2,565.1,238.3z M455.1,238.5c-0.1,0-0.2,0-0.3,0c-1.6,3-2.8,6.8-5,9.2c0,0.1-0.1,0.1-0.1,0.2
			c-0.2,0-1.4,1.8-1.9,2.2c-1.3,1-1.8,0.6-3.3,0.6c-0.1,0.1-0.1,0.3-0.2,0.4c0,0.3,0.1,0.7,0.1,1c0.4,0.3,0.7,0.5,1.2,0.4
			c2.9,0.7,7-5.5,7.4-7.9c0.2,0,0.5,0,0.7,0c-0.3-1.5,1.2-4,1.8-5.8C455.4,238.7,455.2,238.6,455.1,238.5z M378.4,239.9
			c-0.1,1.2,0.3,1.4,0.9,2.2c0.3,0,0.6-0.1,0.9-0.1c0.2-0.2,0.3-0.3,0.5-0.5c-0.3-0.8-0.7-0.8-1-1.8
			C379.3,239.8,378.8,239.9,378.4,239.9z M542.5,246.9c0.7-1.5-0.9-2-1.2-2.5c-0.9-1.5,0.3-2.2-2-3.1c-0.6,0.6-0.6,1-0.6,2.2
			c0,0-0.1,0-0.1,0c-0.4-0.2-0.7-0.5-1.1-0.7c-0.4-0.2-1.3,1-1.3,2c0.5,0.6,0.9,1.4,1.9,1.3c-0.3,1,0.3,2.2,1.4,2.3
			c1,0.4,0.7-0.8,1.1-1C541.2,247.2,542.1,247.8,542.5,246.9z M539.9,245.2c-0.2,0-0.3,0.1-0.5,0.1c0,0-0.1,0-0.1,0
			c-0.1-0.1-0.1-0.2-0.2-0.3c0.1-0.1,0.1-0.2,0.2-0.3c0.2,0,0.3,0,0.5,0c0,0.1,0.1,0.3,0.1,0.4C539.9,245.2,539.9,245.2,539.9,245.2
			z M529.4,243.9c-0.2,0.2-0.5,0.5-0.7,0.7c-0.1,0.6-0.2,1.5,0.1,2.1c0.3,0.4,0.7,0.7,1,1.1c0.4-0.1,0.7-0.3,1.1-0.4
			c0.4-0.7,0.4-1,0.3-1.9C530.6,244.9,530.1,244.1,529.4,243.9z M316.8,245.7c-0.3-0.3-0.5-0.5-0.8-0.8c-0.3,0-0.5,0-0.8,0
			c-0.1,0.2-0.3,0.5-0.4,0.7c-0.2,0.5-0.1,1.5,0.2,2c0.3,0.5,0.8,0.5,1.5,0.7c0.6-0.7,0.8-1.2,1.2-2.1c0,0,0-0.1,0-0.1
			c-0.3,0-0.6,0.1-0.9,0.1C316.8,246.1,316.8,245.9,316.8,245.7z M314.4,247.8c-0.2,0-0.3-0.1-0.5-0.1c-0.2,0.1-0.4,0.1-0.6,0.2
			c-0.7,1.1-0.3,1.8-0.1,3c0.4,0.3,0.6,0.2,0.9,0.6c0.4-0.1,0.7-0.1,1.1-0.2c0-0.1,0.1-0.2,0.1-0.3C316.1,250,315,248.2,314.4,247.8
			z M535.6,247.7c-1.6,1.2-0.7,3.2,0.6,4.1c0.4-0.2,0.8-0.4,1.2-0.6c0.2-0.9,0.1-1,0.1-2.1C536.9,248.6,536.4,248,535.6,247.7z
			 M533.3,252.6c-0.6,1.7,0.3,2.3,1.1,3.6c0.7,0,1.3,0.1,2-0.2c0.1,0,0.1,0,0.2,0C536.9,254.5,535.2,252.9,533.3,252.6z
			 M281.5,252.7c-0.8,1-0.6,1.5-0.4,2.9c0.4,0.1,0.8,0.2,1.2,0.3c1.6-1,0.5-2,0-3.2C282,252.7,281.8,252.7,281.5,252.7z
			 M439.7,256.9c0-0.2,0.1-0.2,0.2-0.5c-0.6-0.4-2.3-0.6-3.6-0.6c-1.6,0.7-3.4,0.6-4.9,1.8c-0.3,0.2-0.1,0.2,0,0.5
			c-0.9,0.3-1-0.3-1.6-0.1c-3,0.8-5.1,3.6-8.4,3.9c-7.2,0.6-16.8-4.9-23.3-0.9c-2.9,1.8-4.3,4.4-5.9,7.5c-0.9,1.7-5.6,10.4-4.5,12.1
			c1.5,2.4,4.3,1.2,6.2,0c0.8-0.5,2-1.2,3-1.4c0.5,0,1,0.1,1.5,0.1c0.2-0.3,0.3-0.5,0.5-0.8c0.7-0.4,1.5-0.1,2-0.4
			c2.2-1.2,4.6-2.7,7.9-2.5c7.6,0.5,13.7,5.3,21.9,3.2c0.9-0.1,1.8-0.3,2.7-0.4c0.8-0.8,1.6-1.6,2.4-2.4c2.5-1.8,5.3-4.2,6.6-6.9
			c0.5-1.1,1.4-6.3,1.9-6.6C443.9,260.6,441.8,257.5,439.7,256.9z M393.3,269.8c0.4,0.3,0.6,2,0.7,2.5c-0.9,0.4-2.5,1.9-2.9,2.8
			c-0.1,0-0.2,0-0.3,0C391.6,273.4,392.5,271.6,393.3,269.8z M390,279.5c0-0.1-0.1-0.1-0.1-0.2c0.1,0,0.1,0,0.2,0
			C390.1,279.4,390,279.5,390,279.5z M391,279.4c-0.7,0-0.7-0.2-0.9-0.6c1-1.5,2.7-3.1,4.1-4.2c0.7,0.3,0.9,1.9,1.2,2.6
			C394.1,277.9,392.2,279,391,279.4z M397.5,276.2c-0.6-0.9-1.3-2.4-0.8-3.4c0.9-1.2,3.2-1,4.1-1.8c0.3,0,0.6,0,0.9,0
			c0,0.1,0,0.1,0,0.2c0.2,1,0.3,2.1,0.5,3.1C402.3,274.8,398.2,276.2,397.5,276.2z M401.7,268.6c-0.5,0.8-4.8,1.7-6,2.4
			c-1.5-3.8,0.7-6.5,3.1-8.2c0.8-0.6,2.6-0.5,3.2-1.3c0.3,0.1,0.5,0.1,0.8,0.2C402.6,262.7,401.2,267.9,401.7,268.6z M410.2,273.6
			c0,0-0.1,0.1-0.1,0.1c-1.9-0.3-4.1,0.1-5.5,0.4c-0.8-0.7-0.7-2.5-0.9-3.5c0.7-0.5,1.5-0.3,2.3-0.6c1.3,0.1,2.7,0.2,4,0.3
			C410.9,271,410.3,272.4,410.2,273.6z M410.7,268.1c-0.1,0.1-0.2,0.1-0.3,0.2c-0.5,0.3-4.4-0.4-5.9,0c-0.3,0-0.7,0-1,0
			c0.4-2.6,0.8-4.9,1.3-6.7c0.5,0,0.4,0.1,0.6-0.1c1.5,0.2,3.7,1.2,5.3,0.7c0.2,0.2,0.5,0.4,0.7,0.6
			C410.8,264.4,410.4,266.2,410.7,268.1z M420,274.9c-0.3,0.3-0.4,0.3-0.6,0.8c-0.5,0.1-6.1-1.1-6.6-1.5c-0.8-0.5-0.6-2.6-0.4-3.8
			c0.3-0.1,0.7-0.1,1-0.2c0.9,0,6.7,0.4,6.8,0.6C420.2,270.8,420,274.1,420,274.9z M412.3,268.2c0.5-2.2,0.4-3.7,1.3-5.1
			c1.6,0.5,3.8,0.3,5.7,0.6c1,1.2,0.7,2.6,1.1,4.3C419.9,268.7,413.9,268.5,412.3,268.2z M429,260.5c0.2,0,0.3,0,0.5,0
			c0.9,1.2,2.2,4.4,1.6,6.5c-2.7,0.6-5.6,1.1-8.8,1.3c-0.1-1.5-0.2-3-0.3-4.5C425.2,263.4,427.1,261.9,429,260.5z M431.4,273.5
			c-0.2,0.8-1.1,2.1-0.9,3.2c-1.6,0.6-6.2,1.5-8.2,0.2c-0.8-0.6-0.2-5.6,0-6.5c2.5-0.4,6.8-0.3,8.5-1.4c0.1,0,0.3,0.1,0.4,0.1
			C431.3,270,431.8,272.3,431.4,273.5z M435.7,258.1c2,0.2,4.1,1.1,5.1,2.6c0.1,0.2,0.1,0.4,0.2,0.6c-0.1,0.1-0.2,0.1-0.3,0.2
			c-0.4-0.1-0.9-0.3-1.3-0.4c-0.6,2.2-4,4.4-6.3,4.8c-0.2-2.4-0.9-4-1.5-6.2C432.9,259.2,434.6,258.9,435.7,258.1z M433.3,275.7
			c0,0-0.1,0-0.1,0c0,0-0.1-0.1-0.1-0.1c0.1-0.5,0.3-1.1,0.4-1.6c0.5-2.3-0.4-4.3,0.1-6.2c1.7-0.3,6.7-3.2,7.4-4.6
			c0.1,0,0.2,0,0.3,0C441.4,269.6,436.6,272.2,433.3,275.7z M421.6,288.9c-1.6,0.1-2.6,0.8-4.5,0.8c-0.5,0.5-0.8,1.1-1.7,1.4
			c-2.9,0.9-10.5-1-11.1-3.2c-0.3,0-0.7,0-1,0c-0.3,0.3-0.6,0.9-0.4,1.4c1.3,2.5,8.1,4.5,11.6,3.7c1.1-0.3,2.2-1.3,3.2-1.6
			c1.5-0.4,3.3,0,4.1-1.6C422.1,289.4,421.9,289.2,421.6,288.9z M421.5,310.2c-0.8,0.8-1.5,2.3-2.6,3.1c-1.8,1.3-7.4,2.7-9.9,1.2
			c-0.7-0.5-1-2.4-1.2-3.4c-0.3-0.2-0.5-0.3-0.8-0.5c-0.4,0.2-0.5,0.2-0.7,0.6c-0.3,0.9,0.4,2.1,0.6,2.8c0.9,2.8,3,2.6,6.6,2.8
			c4.3,0.3,7.9-2.6,9.3-5.7c-0.2-0.3-0.5-0.6-0.7-0.9C421.9,310.2,421.7,310.2,421.5,310.2z M478.8,347.2c0,0.6,0,1.1,0,1.7
			c0.6-0.3,0.3-1.1,0.3-1.7C479,347.2,478.9,347.2,478.8,347.2z"/>
	</g>
</g>
<g>
	<g>
		<path class="st2" d="M462.2,195.1c0.5,0.6,1.2,1.4,1.8,1.9c-1.1-4.5-5.2-13.5-9.5-15c0-0.5,0-0.6,0.1-1c0.1-0.2,0.3-0.4,0.4-0.6
			c1-0.1,1.3-0.4,2.2-0.1c-0.6-1-1.7-1.4-2.7-2.1c-2.8-1.9-6.4-3.8-9.9-5c-2.4-0.8-5.2-1.4-7.2-2.6c0-0.3,0-0.6,0-0.9
			c1.5-1.9,4.4-2,6.5-3.6c-4.1-0.8-8.6,0-12.8,1.7c-1.3,0.5-5.2,3.3-6.8,2.5c-0.2-0.2-0.5-0.3-0.7-0.5c0-0.2,0-0.4,0-0.6
			c1.5-3,4.6-4,6.4-6.6c-3.9,0.9-9.1,7.7-12.4,7.7c-0.2-0.6-0.9-0.6-0.7-1.4c0.2-0.7,3.1-4.9,3.6-5.4c0.2-0.3,1.6-2.1,1.4-2.3
			c-2,2.1-4.4,5.1-7,6.5c0.2,0.6,0.1,0.5-0.2,1c-0.2,0.2-0.4,0.4-0.6,0.6c-0.4,0-0.9,0-1.3,0c-0.2-0.6-0.2-0.6-0.8-0.6
			c0,0,0,0.1,0,0.1c0.2,0.7,0,1.1-0.2,1.7c-0.3,0-0.6,0-0.9,0c-1-0.5-1.4-1.5-2-2.1c-1.3-1.2-7.7-5.2-9.4-4.8c0,0.1,0.1,0.2,0.1,0.3
			c2.8,1.7,3.5,4.1,5.8,6.1c-0.2,0.5-0.5,1-0.7,1.5c-1.7,0-2.4-1.2-3.5-1.8c-2-1.1-4-2.1-6.3-2.8c-5.2-1.7-17,1.1-21.5,3.2
			c0,0,0,0.1,0,0.1c1.4-0.1,2.9-0.1,4.3-0.2c1.4-0.2,3.9,0.2,5.1,0.4c2.2,0.4,4.1-0.1,6.4,0.3c1.3,0,2.7,0.1,4,0.1
			c0.1,0.5,0.3,1,0.4,1.5c-1.2,1.5-11.9,1.4-14.4,2.4c-8.2,3.1-15.8,13.1-19.1,21.5c-0.9,2.3-2.8,6.4-2.8,9.3
			c0.1,0.4,0.3,0.9,0.4,1.3c-0.1,0.6-0.2,1.1-0.3,1.7c-0.1,2.3,1.4,4.9,2,6.7c0.1,0,0.1,0,0.2,0c0-1.9,1-3.7,1.5-5.4
			c2-6.7,4-13.4,7.9-18.4c1.3-1.6,3.9-6.4,6.1-6.7c0.3,0.3,0.6,0.5,0.5,1c0.3,1.6-2.2,4.6-2.9,6.1c-2.5,5.5-3.9,12-5.7,18.2
			c-0.5,1.9-1.9,5.2-1.4,7.1c0.1,0,0.1-0.1,0.2-0.1c0.6-2.5,1.9-5.2,3.1-7.2c1-1.6,1.4-3.2,2.2-4.7c3.3-6.1,7.8-12.4,13-17.1
			c1.8-1.6,6.2-6.5,8.8-6.8c0.1,0.2,0.3,0.3,0.4,0.5c-0.5,1-0.3,1.9-0.7,3.1c-0.6,1.6-1.3,3-1.7,5c0,0,0.1,0,0.1,0
			c1.5-1.8,3.1-3.5,4.6-5.3c3.3-2.3,6.6-4.7,9.1-7.5c0.4-0.4,1.2-0.5,1.9-0.4c0.3,0.4,0.7,0.8,1,1.2c-0.6,1.4-1.6,1.8-2.3,2.8
			c-0.9,1.4-1.6,2.8-2.3,4.3c1.2-0.2,1.2-0.9,1.9-1.4c1-0.7,6.2-3.4,7.3-3.5c0.3,0.2,0.6,0.3,0.8,0.6c0.6,1.1,0.7,2.8,0.9,4
			c0.2,0,0.3-0.1,0.5-0.1c0.5-1,1.8-3.4,2.8-3.9c2.7-0.7,5.3,3.9,7,5c0-0.1,0-0.1,0-0.2c0.8-1.4-0.1-3.8-0.2-5.7
			c0.2-0.3,0.4-0.5,0.6-0.8c0.7,0,0.6-0.2,0.8,0.4c2,0.9,6.2,5.7,7.6,7.5c0.1,0,0.1-0.1,0.2-0.1c0.1-1-0.3-4.1,0.3-5.1
			c2.5,0,3.9,2.1,5.3,3.3c0.1-0.8,0.1-1.5,0.2-2.3c0.6,0.1,1.1,0.1,1.7,0.2c1.2,1.7,3.3,2.9,4.3,4.8c0.8,1.6,1.2,3.4,2.2,4.8
			c0.1,0,0.1-0.1,0.2-0.1c-0.1-1.2-0.5-3.7-0.3-5.2c0.3-0.2,0.7-0.4,1-0.6c2.2,2.3,2.7,5.4,4.6,8.1c0.1,0,0.1-0.1,0.2-0.1
			c-0.2-3.2-1.5-5.1-1.6-7.7c0.1,0,0.2-0.1,0.3-0.1c0.2-0.2,0.4-0.2,0.7-0.3c1.5,0.6,1.8,2,2.6,3.3c1.4,2.2,2.9,4.7,3.8,7.5
			c1,2.8,1,6.9,1.7,9.5c0.5,2.1-0.1,9.1,1.5,10.1c0.1,0,0.1-0.1,0.2-0.1c0.2-2.2,0.6-4.3,1.2-6.3c0.6-2-0.1-3.7,0.2-5.8
			c0.2-1.9-1.5-4.4-1.2-6c-0.4,0-0.3,0.1-0.6-0.1c0.1-1.1-1.1-1.8-0.1-3.2C461.8,195.3,462,195.2,462.2,195.1z M412.3,168.5
			c0,0,0-0.1,0-0.1c-0.4-1.1-0.5-3.2-1.7-3.7C410.9,165.6,411.5,168.2,412.3,168.5z M442.6,168.8c-0.1,0-0.3,0-0.4,0
			C442.5,168.9,442.3,169,442.6,168.8z M385.3,172c0.2,0.2,0,0.1,0.3,0.2C385.5,172.2,385.4,172.1,385.3,172z M463.9,189.2
			c0.1,0,0.2,0,0.3,0c0-0.1-0.1-0.2-0.1-0.3C464,189,464,189.1,463.9,189.2z M464.6,190c0.2,0.2,0,0.1,0.3,0.2
			C464.7,190,464.9,190.1,464.6,190z M353.8,206.5c0.1,0,0.2-0.1,0.3-0.1c1-2.1,2.9-4.2,3.1-7.4c-0.1,0-0.2,0-0.3,0
			C356.3,201.9,353.8,202.8,353.8,206.5z M440.6,204.7c-0.3-0.4-0.6-1.5-1.2-1.9c-1-0.7-2.9-0.6-3.6-1.1c0,0-0.1,0-0.1,0
			c-1.9,0.8-4,0.3-5.8,1.2c-2.8,1.4-5.2,3.7-8.1,5.1c-1.4,0.7-3.5,0.7-4.9,0.9c0.1,2.2,1.2,2.5,2.2,3.5c3.1,0,5.1-2.8,7-4.1
			c1.8-1.2,4-1.5,6.5-1.9c3.8-0.6,7.7,2.7,9.7,4.2c0.9,0.7,1.5,2.1,3.1,1.7c0,0,0-0.1,0-0.1c-1.1-1.4-1.5-2.9-2.4-4.5
			C442.4,206.6,441.3,205.7,440.6,204.7z M391.2,205c-2.4,1.9-5.1,1.7-6.9,4.5c6.5-2.6,10,0.3,14.9,3.1c3.1,1.8,6.8,0.4,8.4-2
			c0,0,0-0.1,0-0.1c-0.2,0-0.5,0-0.7,0C401.7,213.2,396.6,205.2,391.2,205z M523.5,226.4c2.1,1.3,6.7,0,9.1,0.7
			c0.1,0,0.1-0.1,0.2-0.1c-0.4-1.8-0.4-3.6,0-5.5c0.4,0.1,0.9,0.1,1.3,0.2c0.1-0.5,0.3-0.6,0.6-0.9c0.2,0,0.3,0,0.5,0
			c0.6,0.5,0.9,1,1.6,1.4c-0.3,1.1-0.1,3.1,0.8,3.6c0.3-1.2,0.8-2,1-3.1c-0.5-0.8-2.4-3.8-0.9-4.8c0.4-0.1,0.9,0.4,1.2,0.3
			c1.1-1.5,2.2-3,3.3-4.5c-1.5-3-5.1-3.6-9.6-4.2c-1.2,0.1-2.4,0.2-3.6,0.3c-2.1,0.4-4.4,1-6.2,2C517.2,215,518.5,223.4,523.5,226.4
			z M531.8,216.3c0.4,0.1,0.8,0.1,1.2,0.2c0.4,0.6,2.2,3.1,0,3.2c-0.2,0-0.3-0.1-0.5-0.1C531.9,218.4,531.3,217.4,531.8,216.3z
			 M527.6,221.1c1.5,0.2,2,0.7,2.7,1.7c0,0.9-0.2,1-0.5,1.5c-0.4,0-1.4,0.3-1.6,0.2C527.4,224.1,527,221.9,527.6,221.1z
			 M273.9,227.4c1.6-0.1,3.2-0.2,4.8-0.3c0,0,0-0.1,0-0.1c-0.4-0.2-0.6-0.5-0.9-0.9c-0.1-1.4-0.1-2.3,0.6-2.9
			c0.1,0.1,0.1,0.1,0.2,0.2c1.1,0.4,2,1.6,1.9,3c2.1,0.3,3.8,2,5.6,1c0-0.5,0.6-1.1,0.4-2.1c-0.2-1-1-1.1-1.4-1.8
			c-0.3-1-0.6-2.1-0.9-3.1c-0.4-1.8-0.3-4.4,0.1-6c0.4-0.8,0.7-1.5,1.1-2.3c-1.8-1.1-3.7-1.4-6-2.4c-1.1,0.1-2.3,0.1-3.4,0.2
			c-3.1,0.4-6,2.2-7.1,4.6c-1.9,4.2,1,8.1,3.2,10.8C272.6,225.9,273.2,227.1,273.9,227.4z M276,219c1.6,0,3,1.8,2.7,3.4
			c-0.9,0.3-2,0.3-2.8-0.2C275.6,221.1,275.6,220,276,219z M466.9,210.1c0.1-0.1,0.2-0.1,0.3-0.2c-0.1,0-0.1,0-0.2,0
			C467,210,466.9,210.1,466.9,210.1z M566.9,228.5c-1.3-0.5-2.7-0.7-4-1c-0.4-0.1-1.3,0.3-1.9,0.1c-0.1-2.1,2.3-3.5,3.1-5.2
			c3-6,1.5-9.2-4.4-11.5c-1.5-0.6-2.5-0.3-4.4-0.8c-1,0.5-2.5,0.1-3.7,0.4c-1.1,0.3-6.7,2.8-7.2,3.6c-0.5,0.7,1.3,3-0.7,5.3
			c-0.2-0.1-0.4-0.1-0.6-0.2c0.1-1.5,0.5-1.6,0.5-3.5c-0.2-0.1-0.3-0.3-0.5-0.4c-1.5,1.1-4.1,4.6-2,7c0.9,1,2.9,1,2,3.2
			c-0.3,0.7-0.9,0.8-1.8,1c0,0.1,0,0.3,0,0.4c0,0.1,0.1,0.2,0.1,0.3c1.1-0.2,2.7-1.4,3.7-2c0-0.7-0.1-1.2-0.5-1.5
			c-0.4-0.2-0.8,0-1.1,0.1c-0.2-1.3-1.8-1.6-1.1-3.3c0.2-0.4,0.3-0.6,0.9-0.6c0,0,0.1,0,0.1,0c0.5,0.7,1.3,1.9,2.1,2.3
			c0.5,0.1,1.1,0.2,1.6,0.3c0-0.2,0-0.5,0-0.7c-0.3-0.8,0-1.6,0.4-2.2c0.1,0,0.2,0.1,0.3,0.1c0.6,0.6,1.1,1.1,1.7,1.7
			c0.1,1.2-0.2,1.8-1,2.1c-0.3,0-0.5-0.1-0.8-0.1c-0.1,0.1-0.1,0.1-0.2,0.2c0.1,0.3,0.3,0.6,0.4,0.9c1.3,0,2.5,0,3.8,0
			c0.3-0.5,0.5-0.7,1-1c1.1,0.5,1.9,0.9,1.9,2.5c-0.5,0.9-1.7,1.7-2.7,2.1c0.1,0.6,0.4,2.4,0.5,2.5c0,0.1,0,0.1,0,0.2
			c0,0,0.1,0,0.1,0c0.1-0.7,0.2-1.5,0.4-2c0.6-0.2,1.9-0.8,2.5-0.1c1.1,0.8,1,2.4,1.4,3.4c0.4,0.3,0.8,0.5,1.2,0.8
			c0.3,0.5,0.5,1,0.8,1.5c0-0.7-0.1-1.6,0.2-1.7c0.2,0,0.4,0,0.6,0c1.2,0.8,2.6,3,3.3,4.3c-0.2,0.8-0.3,1.7-1.1,1.6
			c-0.5-0.1-1.1-0.1-1.6-0.2c-0.5-0.9-1-1.7-1.5-2.6c-0.1,0-0.2,0-0.3,0c-0.1,0.1-0.2,0.3-0.3,0.4c0.5,1.2,1.5,6.1,0.4,7.9
			c1.1-0.3,1.9,0.5,2.7,0.6c0,0,1.1-0.6,1.5-0.5c0.5,0.3,1,0.6,1.5,0.9c3.2,0.9,7.3-0.8,8.7-2c0-0.2,0-0.4,0-0.6
			c0.2-0.3,0.8-0.4,1-0.7c0.6-0.8,0.4-2.3,0.5-3.2C575.2,233.5,571.2,230,566.9,228.5z M555.5,221.1c-0.5,0-1.1,0.2-1.8,0
			c-0.8-1.5-2.2-3.7-1.2-5.3c1,0.1,5.3,5.4,5.6,6.4c-0.3,0.4-0.3,0.7-0.8,0.9c-0.2,0-0.4,0.1-0.6,0.1
			C556.3,222.5,555.9,221.8,555.5,221.1z M558.7,229.3c-0.3,0.3-0.7,0.7-1,1c-0.1-0.1-0.2-0.1-0.3-0.2c-0.5-1.3-1.3-1.8-0.9-3.5
			c0.1-0.1,0.2-0.2,0.3-0.3c0.2,0,0.4,0.1,0.6,0.1c0.8,0.6,1.4,1.2,1.4,2.6C558.8,229.1,558.7,229.2,558.7,229.3z M563.3,234.2
			c0.3-0.8,0.5-1.6,0.8-2.4c1.1,0.3,1.7,1.5,1.8,2.8c-0.3,0.5-0.5,0.8-1.1,1.1C564.3,235.2,563.8,234.7,563.3,234.2z M567.6,240.7
			c-0.3,0.3-0.7,0.7-1,1c-0.5-0.1-0.8-0.2-1-0.6c-1-0.7-0.5-1.8-0.5-2.8c1.3-0.1,2.5,0.2,2.4,1.2C567.6,240,567.6,240.1,567.6,240.7
			z M289.4,225.9c-0.3,0.3-0.5,0.7-0.8,1c0.1,0.6,0.7,1.9,1.2,2.2c0.2,0.1,0.3,0.2,0.5,0.3c0-0.1,0.1-0.2,0.1-0.3
			c-0.4-1.3,0-4.9,0.3-6.2c0.2-0.1,0.3-0.3,0.5-0.4c1.8,0.2,1.8,1.9,2.6,2.8c0-0.7,0.2-1.2,0.6-1.5c0.3,0.1,0.7,0.2,0.9,0.4
			c0.6,0.6,0.6,1.5,1.5,1.9c0.7-2.2,2.4-3.6,4.7-4.2c-0.2-4.4,0.5-5.3,2.6-8c-1.7-2.3-4.4-2.9-7.9-3.5c-1.1-0.1-2.1-0.1-3.2-0.2
			c-1.8,0.8-3.6,0.6-4.8,1.9c1.2,1,2.5,2.1,3.7,3.1c0.8,1.4,1.7,2.7,2.5,4.1c0.4,0.1,0.9,0.1,1.3,0.2c0.9,0.6,1.4,2.5,0.5,3.4
			c-1,0-1.3-0.2-1.9-0.5c0.2-3-5-7.9-7.2-9c-1.7,1.2-1.9,6.8-0.2,8.9C287.5,223.1,290.3,224.5,289.4,225.9z M303.3,221.4
			c1.4,0,2.5,0,3.7,0.1c0.2-2,1.3-5-1.4-6.3c-2.1,1.7-1.8,1.9-2.1,5C303.4,220.9,303.1,220.9,303.3,221.4z M461.5,223.7
			c0.2-0.2,0.1,0,0.2-0.3c0,0-0.1,0-0.1,0C461.6,223.5,461.5,223.6,461.5,223.7z M315.4,228.5c0.3-0.5,0.6-0.7,0.9-1.3
			c-0.1-1.1-0.9-1.9-1.5-2.6c-0.2,0-0.4,0-0.6,0c-0.1,0-0.1,0.1-0.2,0.1c-0.5,0.8-0.8,2.1-0.3,3.1
			C314,228.3,314.5,228.5,315.4,228.5z M534.6,225.1c0,0.1,0.1,0.1,0.1,0.2C534.7,225.2,534.8,225.2,534.6,225.1z M295.9,228.2
			c-1,0-1.3-0.2-2-0.4c-0.1-0.7-0.1-1.4-0.2-2.1c-0.1,0-0.2,0-0.3,0c-0.1,0.1-0.3,0.2-0.4,0.3c-0.6,0.2-0.9,0.2-1.6,0
			c0,0,0,0.1,0,0.1c0.6,0.4,0.7,1,1.1,1.6c0.8,1.1,2.4,2.4,3.8,2.8C296.2,229.8,296,229,295.9,228.2z M550.3,226
			c-0.4,0-0.7-0.1-1.1-0.1c-0.2,0.2-0.3,0.3-0.5,0.4c0,0,0,0.1,0,0.1c0.6,0.6,1.1,1.6,0.9,2.4C550.3,228.3,550.6,227,550.3,226z
			 M538,226.7c-0.1-0.1-0.2-0.3-0.3-0.4c0,0.1-0.1,0.3-0.1,0.4c0.1,0,0.3,0.1,0.4,0.1C538,226.8,538,226.8,538,226.7z M547.3,226.9
			c0-0.3,0.1-0.2-0.1-0.4c-0.1,0.1-0.3,0.2-0.4,0.3c0.1,0.1,0.2,0.3,0.3,0.4C547.2,227.1,547.2,227,547.3,226.9z M532.7,229.2
			c0.2,0.2,0.4,0.5,0.6,0.7c0.8,0.3,1.5,0.6,2.3,0.9c0-2,0.2-3-0.7-4.2c-0.3,0.6-0.2,0.7,0.1,1.3c-0.4,0.6-1.3,0.8-2.3,0.9
			C532.7,229,532.7,229.1,532.7,229.2z M546.4,231.3c0-0.3,0-0.5,0-0.8c-1.7-0.6-0.8-2.3-1.8-3.2c-1,1-2.4,1.1-3,2.5
			C543.3,230.1,544.5,232,546.4,231.3z M558.6,245.7c-0.1-0.4-0.2-0.3-0.3-0.7c-0.1-0.4,0-0.4,0.1-0.9c-0.1,0-0.3,0-0.4,0
			c-1.5,1.1-2.3,3.3-3.8,4.5c-2.1,1.6-4.8,1.8-7,3c0.7,0.6,3,2.6,1.5,4c-0.4,0.1-0.9,0.1-1.3,0.2c-0.6-1.6-0.9-2-0.8-4.1
			c0.4-0.1,0.5,0.1,0.3-0.2c-1.6,0.1-3.1,0.1-4.7,0.2c-0.3-0.2-0.5-0.3-0.8-0.5c0-0.4,0.1-0.8,0.1-1.2c0.2-0.1,0.5-0.2,0.7-0.3
			c5.5,3.1,13.3-3.1,14.5-6.8c1.2-3.6,0.9-7.3-2.7-8.3c-0.9-0.2-0.9-1.3-2.1-1.5c-0.2,0.4,0,0.2-0.4,0.4c0.3,0.8,1,1.5,0.9,2.3
			c0.2,0.9-1.2,1.3-1.6,2c0.6,0.8,1.4,1.3,1.9,2.3c-0.2,0.4-0.5,0.9-0.7,1.3c0.1,0.2,0.3,0.3,0.4,0.5c0.4,1-0.6,1.8-1.2,2.2
			c0.6,0.8,0.9,1.9,0.4,2.7c-0.4,0-0.7,0.1-1.1,0.1c0-0.2,0.1-0.3,0.1-0.5c-0.6-0.1-1.2-0.3-1.8-0.4c-0.1-0.6-0.4-0.7-0.7-1.1
			c-0.4-0.1-0.9-0.1-1.3-0.2c-0.2,0.5-0.3,0.9-0.5,1.4c-0.4,0-0.7,0-1.1,0c-0.3-0.7-0.9-1.2-1.2-2c-0.1-0.4,0.8-4,1-4.4
			c0.1,0,0.2,0,0.3,0c1,1.3,3,2.1,4.3,3.4c0.1,0,0.1-0.1,0.2-0.1c-0.1-1.4,0-4.6-0.2-4.9c-0.2-0.1-0.1-0.2-0.3-0.1
			c-0.8,0.1-1,1.3-2.2,1.4c-0.4-0.6-0.8-1.1-1.2-1.7c0.2-0.8,0.6-1.4,0.8-2.2c-0.1,0-0.2,0-0.3,0c-0.1,0-0.1,0.1-0.2,0.1
			c-0.2,0.4-0.3,0.7-0.5,1.1c-0.3,0-0.6,0-0.9,0c-0.5-0.2-0.7-0.5-1.1-0.8c0.7-3.5-0.9-1.8-2.5-2.6c-0.6-0.3-0.6-1-1.2-1.3
			c0,0.1,0,0.1,0,0.2c-0.8,1.5-0.6,5.2,0.5,6.6c0.6,0.8,1.5,0.9,2.5,1.4c0.6,0.3,0.8,0.9,1.2,1.3c-0.1,0.1-0.1,0.2-0.2,0.3
			c-0.1,0-0.1,0.1-0.2,0.1c-3.2-0.1-4.7-2.2-5.6-4.6c-0.3-0.7,0.1-2-0.4-2.9c0-0.1-0.1-0.1-0.1-0.2c-0.3,0.3-0.5,0.5-0.8,0.8
			c-1.5,0.3-5.4-2.8-5.9-3.8c-0.3-1.1-0.2-1.4-0.2-2.5c-1.2,0.1-1.8-0.4-2.9,0c-0.2,0.2-0.3,0.5-0.5,0.7c0,0,0,0.1,0,0.1
			c0.6,0.2,0.7,0.5,1.1,0.9c0,0.3,0,0.6,0,0.9c-0.3,0.4-0.6,0.7-0.9,1.1c-1.6-0.1-1.9-2.1-1.7-3.2c-3.7-1.6-6.2,0-10.8-0.3
			c-2-0.1-6,0.3-7.7,0.7c-1.2,0-2.5,0.1-3.7,0.1c-3,0.8-6,0.5-8.9,0.9c-2.5,0.3-4.9,0.7-7.4,1c0,0,0,0.1,0,0.1
			c8.1,0.4,16.3,0.9,24.4,1.3c5.1,0.2,10.1,0.3,15.2,0.5c0.2,0.5,0.3,0.3,0.4,0.9c0,0,0,0.1,0,0.1c-0.4,0.3-0.8,0.5-1.2,0.8
			c-3.5-0.5-7-0.7-10.3-0.9c-1.2-0.1-2.9,0.4-4.7,0.1c-4.8-0.8-9.2-0.4-13.6-0.8c-7-0.7-15.3-0.5-22.1-0.6c0,0-0.1,0.1-0.1,0.1
			c0,0.1,0.1,0.2,0.1,0.3c2.5,0.5,5,0.9,7.5,1.4c9.3,3.1,19.6,3.3,30.1,4.9c1.4,0.2,8.2,0.9,8.9,0.6c1-0.4,2.5-3.3,3.8-2.6
			c0.1,0.1,0.3,0.1,0.4,0.2c0,0.2-0.1,0.4-0.1,0.6c-0.6,0.7-1.3,1.3-1.9,2c2.1,0.2,4.1,0.3,6.2,0.5c1.1-0.4,2.4-0.2,3.5,0
			c0.1,1.3,1.1,2.4,1.5,3.9c-0.6,0.5-0.7,1-1.7,1.1c-0.2-0.3-0.4-0.2-0.6-0.4c-0.6-0.7-0.4-2.1-1.1-2.6c-1-0.9-7.6-1.3-9.3-1.3
			c-0.9,1-1.9,2-2.6,3.2c-4.4,8.1,5.9,12.7,11.7,14.4c3.1,0.9,7.9,2.1,11.3,1.1c0,0,0-0.1,0-0.1c-1.7-0.4-4.7-0.8-6.1-1.7
			c0.1-0.5,0-0.8,0.1-1.3c0.7,0,1.3,0,2,0c1.1,1.1,7.3,3.1,9.4,1.9c0-0.1-0.1-0.1-0.1-0.2c-0.4-0.2-1.5-0.9-1.7-1.3
			c0.1,0,0.2,0,0.3,0c-0.4-0.4-0.4-0.1-0.1-0.6c0.2-0.2,0.4-0.3,0.6-0.5c0.8,0,1.1,0.3,1.7,0.5c0.3,1.2,0.2,1.9,0.1,3.3
			c1,0.1,4.4,0.1,5.3,0.4c3.4-0.9,6.5-2.6,8.3-5c1.6-2.2,2.8-6.8,0.8-9.1C563,246,560,245.7,558.6,245.7z M553.4,235.7
			c0.4,0,0.9,0.1,1.3,0.1c0.1,0.8,1.3,1.4,1,2.4c-0.2,0.6-0.6,0.9-1.3,0.9C553.1,238.3,553,237,553.4,235.7z M530.9,247.4
			c-0.4,0.1-0.7,0.3-1.1,0.4c-0.3-0.4-0.7-0.7-1-1.1c-0.3-0.6-0.2-1.5-0.1-2.1c0.2-0.2,0.5-0.5,0.7-0.7c0.7,0.2,1.2,1,1.8,1.6
			C531.3,246.4,531.3,246.7,530.9,247.4z M535.2,242c-0.1-0.5-0.5-0.5-0.6-0.8c-0.3-0.8,0.3-1.4-0.2-2c-0.6-0.5-2-0.3-2.6-0.4
			c-0.3-0.5-0.5-1-0.8-1.5c-0.8,0.1-1.2,0-1.8-0.1c-0.8-1-1-2.1-0.5-3.3c1.4,0.1,1.3,1,2.1,1.5c0.4,0.2,1.2-0.1,2,0.5
			c0.1-0.2,0.3-0.3,0.4-0.5c2.2,0.4,1.7,2.5,2.2,3c0.9,0.9,1.8,1,1.9,2.7c-0.4,0.4-0.7,0.7-1.1,1.1
			C535.9,242.2,535.5,242.1,535.2,242z M536.6,256c-0.1,0-0.1,0-0.2,0c-0.7,0.3-1.3,0.2-2,0.2c-0.8-1.3-1.7-1.9-1.1-3.6
			C535.2,252.9,536.9,254.5,536.6,256z M537.4,251.2c-0.4,0.2-0.8,0.4-1.2,0.6c-1.3-0.9-2.2-2.9-0.6-4.1c0.8,0.3,1.3,0.9,1.9,1.4
			C537.5,250.2,537.6,250.3,537.4,251.2z M540.6,247.4c-0.4,0.2-0.1,1.4-1.1,1c-1.1-0.1-1.7-1.3-1.4-2.3c-1,0.1-1.4-0.7-1.9-1.3
			c0-1,0.9-2.2,1.3-2c0.4,0.2,0.7,0.5,1.1,0.7c0,0,0.1,0,0.1,0c0-1.2,0-1.6,0.6-2.2c2.3,0.9,1.1,1.6,2,3.1c0.3,0.5,1.9,1,1.2,2.5
			C542.1,247.8,541.2,247.2,540.6,247.4z M304.6,229.6c-0.6-0.3-0.9-0.9-1.9-1.3c-0.1,0.3-0.2,0.5-0.3,0.8c0,0,0.1,0,0.1,0
			c0.3-0.2,0.6-0.4,1-0.2c0.9,0.4,0.9,1.5,1.7,2c0.5,0.3,0.8,0,1.4,0.1c0.9,0.2,1,1,1.5,1.6c0.1,0,0.1-0.1,0.2-0.1
			c0-1.3,0.4-1.6,0.7-2.5C307.5,229.9,306.1,229.8,304.6,229.6z M275.8,229C275.8,229.1,275.8,229.1,275.8,229
			c0.1,0.2,0.2,0.2,0.3,0.3c1.8,0.5,1,0.2,2.4,1.1c0.1,0,0.2,0,0.3,0c0.2-0.6,0.4-1.2,0-1.6c-0.6,0-1.3-0.1-1.9-0.1
			C276.5,228.8,276.2,228.9,275.8,229z M548.4,230.6c0.5,0.2,0.5,0.2,0.7,0.7c0.1-0.1,0.1-0.2,0.2-0.3c-0.1-0.7,0.3-1,0.7-1.5
			c-0.1-0.2-0.2-0.4-0.3-0.6c0,0.1,0,0.2,0,0.3C549.3,229.7,548.8,230.1,548.4,230.6C548.4,230.6,548.4,230.6,548.4,230.6z
			 M274.5,246.3c1.6-1,3.1-1.9,4.7-2.9c-0.6-1.7-0.7-2.7,0.4-3.9c-0.1-0.3-0.1-0.7-0.2-1c0,0-0.1,0-0.1,0c-0.7,0.2-1.7,0.8-1.9,1.5
			c0.6,0.8,0.5,1.4,0.5,2.5c-0.7-0.1-1.5-0.1-2.2-0.2c-0.2-0.4-0.4-0.8-0.6-1.2c0.4-0.3,0.1-1.3,0.4-2c0.2-0.3,0.5-0.5,0.7-0.8
			c-0.6-0.1-1.2-0.3-1.8-0.4c-0.2-1.1-0.3-2.2,0.2-3.1c1.2,0.1,1.4,0.7,2.4,0.8c0.4-0.8,0.7-0.7,1.5-0.9c0-0.4-0.1-0.8-0.1-1.2
			c-1-0.1-1.5-0.2-2.3-0.6c0-0.7-0.2-1.8-0.4-2c-1-1.2-2-1.6-4.1-1.6c-2,0.9-3.9,0.8-5.7,1.9c-1.5,0.9-2.2,2.7-3.5,3.6
			c0.3,1.3-0.3,3.5,0.3,4.5c2,3.2,4.8,4.4,8.7,5.9C272.2,245.5,273.5,246.4,274.5,246.3z M270.8,232.1c1.7,0.1,2.2,1.4,2.5,2.5
			c-0.3,0.8-0.5,1.2-1,1.7c-0.5-0.1-0.9-0.2-1.4-0.3C269.9,235.2,270.4,233.3,270.8,232.1z M283,230.8c0-0.3,0-0.7,0-1
			c-0.1,0-0.1,0-0.2,0c-0.2,0.2-0.3,0.3-0.5,0.5c0.1,0.2,0.2,0.3,0.3,0.5C282.7,230.8,282.9,230.8,283,230.8z M291.8,231
			c-0.1-0.3-0.1-0.6-0.2-0.9c-0.3-0.1-0.5-0.2-0.8-0.3C291,230.4,291.4,230.7,291.8,231z M319.4,231.4c-3.2-0.4-6.4-0.8-9.6-1.2
			c0.9,1.5,3.1,3.3,1.8,5.5c-0.6,0.2-1.2,0.3-1.8,0.5c0,0.8,0.1,1.2-0.2,2.1c-0.4,0.1-0.8,0.2-1.2,0.3c0,0.1,0.1,0.1,0.1,0.2
			c2.5,0,3-1.2,4.2-1.2c0.4,0.6,6.9-0.1,8.4-0.4c5.6-0.4,11.2-0.8,16.8-1.2c2.9-0.4,5.7,0.4,8.2-0.4c-3.7-1.6-8.4-1.2-12.2-2.2
			C330.1,232.4,324,231.2,319.4,231.4z M315.5,236.6c-0.2,0.5-0.5,0.5-0.8,0.9c-0.7-0.2-1.1-0.5-1.5-1c0.2-1.1-0.1-1.9,0.5-2.8
			C314.9,233.7,316.1,235.7,315.5,236.6z M318.3,236.4c-0.9,0-1.1-0.3-1.8-0.4c0.2-1.5-0.3-2.4,0.6-3.5c0.2,0,0.5,0.1,0.7,0.1
			c0.5,0.8,1.2,1.2,1.3,2.6C318.9,235.8,318.6,236,318.3,236.4z M537.8,233.8C537.8,233.8,537.9,233.8,537.8,233.8
			c0.1-1.6,0.9-2.1,1.1-3.3c-0.2,0-0.4,0-0.6,0c0,0.9-0.5,1.3-1,1.7C537.6,232.7,537.7,233.1,537.8,233.8z M302.1,233.4
			c-0.6-0.4-1.2-0.7-1.8-1.1c0-0.3-0.1-0.7-0.1-1c-0.5-0.1-1-0.1-1.5-0.2c-0.2,0.1-0.3,0.1-0.5,0.2c0,0.2,0,0.3,0,0.5
			c1.1,2.3,0.8,1.3,3.5,1.8c0.2,0.4,0.5,0.7,0.7,1.1C302.4,234.1,302.4,233.7,302.1,233.4z M549,232.9c0.5,0.1,0.3,0.2,0.6,0.4
			c0-0.1,0-0.1,0-0.2c0.1-0.1,0.3-0.2,0.4-0.3c-0.3-0.3-0.5-0.5-0.8-0.8C549.1,232.3,549.1,232.6,549,232.9z M556.2,233.7
			c0-0.3,0.1-0.6,0.1-0.9c-0.6,0.1-0.6,0.2-0.9,0.5c0.1,0,0.1,0.1,0.2,0.1C555.8,233.7,555.8,233.6,556.2,233.7z M284.8,233.3
			c-0.1-0.1-0.2-0.3-0.3-0.4c0,0.2,0,0.4,0,0.6c0,0,0.1,0,0.1,0C284.7,233.5,284.7,233.5,284.8,233.3
			C284.8,233.4,284.8,233.4,284.8,233.3z M290.1,233.4c-0.3,0.5-0.7,1-0.9,1.4c0.1,0.1,0.2,0.1,0.3,0.2c0.9-0.3,1.5-0.7,1.5-1.9
			c-0.1,0-0.3-0.1-0.4-0.1C290.3,233.2,290.3,233.1,290.1,233.4z M308.4,233.9c0,0,0.1-0.1,0.1-0.1c-0.1-0.3-0.2-0.5-0.4-0.7
			c0.1,0.3,0.2,0.7,0.3,1C308.4,234.1,308.4,234,308.4,233.9z M284.9,236.7c0.3,0.1,0.5,0.2,0.8,0.3c-0.1-1.2-0.4-2.4-1.3-2.8
			C284.6,235.1,284.7,235.9,284.9,236.7z M308.4,234.7c0-0.2,0-0.3,0-0.5c-0.1,0-0.1,0-0.2,0c-0.1,0.2-0.1,0.3-0.2,0.5
			C308.1,234.7,308.3,234.7,308.4,234.7z M281.5,234.4c0,0-0.1,0-0.1,0c-0.2,0.7-0.4,1.1,0.3,1.5
			C281.7,235.3,281.7,234.7,281.5,234.4z M297.1,236.3c0.2-0.7,0.4-1.3,0.2-1.9c0,0-0.1,0-0.1,0c-0.4,0.6-0.6,0.8-1.2,1.1
			c0.2,0.3,0.4,0.6,0.6,0.9C296.8,236.4,296.9,236.4,297.1,236.3z M294.7,235.5c-0.3-0.2-0.5-0.4-0.8-0.6c-0.1,0.5-0.1,0.4,0.2,0.8
			c0.1,0.1,0.3,0.1,0.4,0.2C294.6,235.8,294.6,235.7,294.7,235.5z M292.4,237.5c0.1-0.2,0.2-0.3,0.3-0.5c0-0.3,0-0.5,0-0.8
			c-0.4-0.1-0.9-0.3-1.3-0.4c-0.1,0.2-0.1,0.5-0.2,0.7C291.5,237.1,291.8,237.5,292.4,237.5z M283.4,237.5c-0.3-0.1-0.5-0.1-0.8-0.2
			c-0.1,0.6-0.3,1.2-0.4,1.8c0.1,0.2,0.2,0.4,0.3,0.6c0.1,0,0.1,0,0.2,0c0.1-1,0.6-1.1,0.8-2C283.5,237.7,283.4,237.6,283.4,237.5z
			 M306.5,237.4c-0.2,0-0.3-0.1-0.5-0.1c0,0.3,0.2,1.2,0.5,1.6c0.6-0.1,1.1,0,1.4-0.3C307.2,238.3,307.1,237.8,306.5,237.4z
			 M314.1,239.6c-0.4,0.5-0.4,1.3-0.9,1.7c-0.8,0-1.5-0.2-1.8-0.7c0-0.2-0.1-0.3-0.1-0.5c-1.4,0.3-2.9,0.6-4.3,0.9
			c-0.8-0.1-1-0.4-1.1-1.2c-0.4,0.1-0.5,0.1-0.7,0.4c-0.3,0.7,1.4,2.1,1.7,3.3c0.5-0.1,1-0.2,1.5-0.3c0.4-1.6,0.6-2.5,2.6-2.4
			c0.3,0.5,0.6,0.9,0.9,1.4c5.1-1,10.3-1.9,15.4-2.9c2.7-0.7,5.9-0.2,8.1-1.6c0,0,0-0.1,0-0.1c-5.1,0.3-10.2,0.6-14.6,1
			C319.4,238.8,314.9,238.8,314.1,239.6z M550.5,238.1C550.5,238.1,550.5,238.1,550.5,238.1c-0.2-0.2-0.3-0.2-0.5-0.3
			C550.2,238.1,550.1,238,550.5,238.1z M288,239.3c-0.4,0-0.8,0-1.2,0c0.1,0.2,0.2,0.5,0.3,0.7c0.1,0,0.2,0,0.3,0
			C287.6,239.8,287.8,239.6,288,239.3C288,239.4,288,239.4,288,239.3z M281.8,242.2c0.3-0.4,0.6-0.5,0.9-0.9
			c-0.2-0.5-0.2-1.1-0.3-1.5c-0.2,0.4-0.2,0.9-0.6,0.8c-0.2,0.2-0.5,0.3-0.7,0.5C281.3,241.6,281.4,242,281.8,242.2z M301.9,239.9
			c0.1,0.4,0,0.3,0.2,0.5C302,240.3,302,240.1,301.9,239.9z M320.9,242c-2.7,0.1-5.8,0.4-8.1,1.3c-0.7,0.3-1,1.2-1.9,1.4
			c-1,0-1.9-0.1-2.9-0.1c-0.7,0.1-1.2,0.8-1.7,1.1c-0.8,0.5-3.1-0.2-3.6-0.3c-0.4,0.7-0.6,0.7-0.1,1.5c1.5,0,6.4-0.7,7.6,0.1
			c0,0.1,0.1,0.1,0.1,0.2c-0.1,0.3-0.1,0.7-0.2,1c-0.6,0.1-1.3,0.2-1.9,0.3c0.2,0.9,0.4,2-0.4,2.5c-0.1,0.1-0.1,0.1-0.2,0.2
			c-1.4-0.2-2-1.1-2.1-2.5c-1-0.1-2-0.1-3-0.2c-0.6,0.2-1,0.6-1.9,0.4c-1.2-1.2-3.5-1.9-5.5-2.1c-0.3,1.5,0.1,2.2,0,4
			c1.3,0.1,2,1.5,2,3c-0.3,0.3-0.5,0.6-0.8,0.9c-1.7,0-2.3-1.2-1.9-3c-0.1,0.1-0.1,0.1-0.2,0.2c-0.3,0.5-0.5,0.9-0.8,1.4
			c-2.3,0-1.3-0.7-2.3-1.5c-0.5-0.4-0.9,0-1.2-0.6c-0.8-1.3,0-2.6,0.7-3.5c0.1,0,0.3,0.1,0.4,0.1c0.7,0.2,0.7,0.5,1,1
			c0.2-0.1,0.4-0.1,0.6-0.2c0-1.5-0.4-2.4-0.3-3.7c-0.4,0-0.7,0.1-1.1,0.1c-0.2,1-0.4,1.7-0.7,2.5c-1.2,0.1-1.3,0.2-2.2,0.6
			c-1.1-0.3-1.9-1.5-3.4-1c-0.5,0.4-1,0.8-1.5,1.2c-1.7,0.6-7.3-0.8-8.2-0.4c-2.4,0.9-5,4.9-5.3,7.6c-0.9,7.3,14.1,7.7,16.2,4.2
			c0.3-1.3-0.3-2.1,0.9-3c0.5,0.2,1,0.5,1.5,0.7c0.3,1.2,0.3,1.9,0.1,3.1c1.8,0.5,3.7,1.5,5.8,2c5.2,1.3,15.5-2.4,16.3-6
			c-3.8-0.9-7.9-1.2-10.6-3.2c0-0.3,0-0.6,0-0.9c0.2-0.2,0.5-0.4,0.7-0.6c0.3-0.1,0.7-0.2,1-0.3c0.8,0.5,0.7,1.2,1.2,1.6
			c1.5,1.1,4,0.9,5.7,1.4c0.8,0.2,2.5,0.9,3,0.1c0.4-0.9-0.5-2.7,0.4-3.3c0.3-0.2,0.3-0.1,0.8,0c0.2,0.2,0.3,0.3,0.5,0.5
			c0.1,1.3,0.3,1.7,0.3,3.3c4.7,0.2,12.8-2.9,10.9-8.2C323.9,244.8,322,243.7,320.9,242z M282.3,255.9c-0.4-0.1-0.8-0.2-1.2-0.3
			c-0.2-1.4-0.4-1.9,0.4-2.9c0.3,0,0.5,0,0.8,0C282.8,253.9,283.9,254.9,282.3,255.9z M315.3,251c0,0.1-0.1,0.2-0.1,0.3
			c-0.4,0.1-0.7,0.1-1.1,0.2c-0.3-0.4-0.5-0.3-0.9-0.6c-0.2-1.2-0.6-1.9,0.1-3c0.2-0.1,0.4-0.1,0.6-0.2c0.2,0,0.3,0.1,0.5,0.1
			C315,248.2,316.1,250,315.3,251z M317.7,246.2c-0.4,0.9-0.6,1.4-1.2,2.1c-0.7-0.2-1.2-0.2-1.5-0.7c-0.3-0.5-0.4-1.5-0.2-2
			c0.1-0.2,0.3-0.5,0.4-0.7c0.3,0,0.5,0,0.8,0c0.3,0.3,0.5,0.5,0.8,0.8c0,0.2,0,0.3,0,0.5C317.1,246.2,317.4,246.2,317.7,246.2
			C317.7,246.2,317.7,246.2,317.7,246.2z M285.9,242.8c0,0.4,0.1,0.9,0.1,1.3c0.2,0.2,0.4,0.4,0.6,0.6c0-0.1,0-0.1,0-0.2
			c0.5-0.5,0.7-1.4,0.9-2.1c-0.1-0.1-0.2-0.1-0.3-0.2C286.7,242.4,286.3,242.5,285.9,242.8z M294.7,244.7c0.1-0.1,0.1-0.1,0.2-0.2
			c0-0.3,0.1-0.5,0.1-0.8c-0.2,0-0.5-0.1-0.7-0.1c-0.2,0.4-0.2,0.5,0,0.9c0,0.1,0,0.1,0,0.2C294.4,244.7,294.6,244.7,294.7,244.7z
			 M283.1,245.9c-0.3-0.6-0.2-1.8-0.5-2.1c-0.2,0.1-0.3,0.2-0.5,0.3c0.2,1.2,0.2,1.7-0.5,2.5c0.1,0,0.1,0,0.2,0
			C282.5,246.8,282.7,246.3,283.1,245.9z M299.4,244.8c-0.4,0.4-0.9,0.6-1.1,1.2c0.1,0,0.1,0,0.2,0c0.4,0,0.7,0.1,1.1,0.1
			c0.2-0.6,0.4-1.2,0.3-1.6c-0.2,0-0.3,0-0.5,0C299.4,244.6,299.4,244.7,299.4,244.8z M539.3,244.7c-0.1,0.1-0.1,0.2-0.2,0.3
			c0.1,0.1,0.1,0.2,0.2,0.3c0,0,0.1,0,0.1,0c0.2,0,0.3-0.1,0.5-0.1c0,0,0-0.1,0-0.1c0-0.1-0.1-0.3-0.1-0.4
			C539.6,244.7,539.5,244.7,539.3,244.7z M279.4,245.3c-0.6,0.4-1.6,0.7-2,1.3c-0.1,0.1-0.1,0.2-0.2,0.3c1.4,0,2.7-0.1,4.1-0.1
			c-0.1-0.1-0.1-0.2-0.2-0.3C279.9,246.4,280.2,245.8,279.4,245.3z M847.6,347.2c-0.1,0-0.2,0-0.3,0c0,0.6,0,1.1,0,1.7
			C847.9,348.7,847.6,347.8,847.6,347.2z"/>
	</g>
</g>
</svg>
