<?xml version="1.0" encoding="utf-8"?>
<!-- Generator: Adobe Illustrator 21.0.0, SVG Export Plug-In . SVG Version: 6.00 Build 0)  -->
<svg version="1.1" id="Calque_1" xmlns="http://www.w3.org/2000/svg" xmlns:xlink="http://www.w3.org/1999/xlink" x="0px" y="0px"
	 viewBox="0 0 841 595" style="enable-background:new 0 0 841 595;" xml:space="preserve">
<style type="text/css">
	.st0{fill:#1D1D1B;}
	.st1{fill:#DADADA;}
</style>
<g>
	<g>
		<path class="st0" d="M417.6,219.5c0.9,0.7,2,1.2,2.8,1.9c0.2,0,0.2,0,0.3-0.1c0.4,0,0.4-0.1,0.7-0.3V220c-0.9-0.9-2-1.5-3-2.3
			c-0.9-0.6-1.4-1.7-2-2.5c-0.9-1.2-1.8-1.8-1.5-3.8c0.3-1.7,1.6-2.7,2.4-4c0.8,0.1,0.7,1.2,1.1,1.8c0.2,0.2,0.6,0.6,0.9,0.8v0.1
			c0.2,0,0.3,0.1,0.5,0.1c0.1,0.2,0.2,0.4,0.3,0.6c0.3,0.2,0.6,0.1,1,0.3c0.4,0.1,0.7,0.5,1.1,0.6c0.3,0.1,2.4-0.2,2.4-0.2v-0.2
			c0.2,0,0.4,0.1,0.6,0.1c0.5-0.1,1.1-0.3,1.5-0.4c0.3,0,0.6-0.1,1-0.1c0.6-0.3,2-2.7,2.2-3.5c0.1-0.3-0.1-0.5-0.2-0.6
			c0-0.1,0.1-0.2,0.1-0.3c-0.1-0.3-0.2-0.6-0.3-1c-0.1-0.1-0.3-0.1-0.3-0.2c-0.1-0.2-0.1-0.3-0.2-0.5c-1.5-1.7-4.7-2.7-7.9-2
			c-0.8,0.2-1.5,0.2-2,0.7c-0.3,0-0.2,0-0.3-0.2c-0.2-0.5,0.2-1.8,0.2-2.4c0-1.8,1.7-3.6,3.1-4.2c0.8,0.8,1.5,1.2,2.3,1.8
			c0.2,0,0.3,0.1,0.5,0.1c0.3,0.2,0.7,0.7,1.1,0.9c0.9,0.4,2.7,0.3,3.3,0.1c0.4-0.1,2,0.4,2.4,0.1c1.1-0.6,1.8-1.6,2.2-2.7v-0.7
			c0.8-3.2-3-4.3-6.5-3.6h-1.3c-0.7,0.2-2,0.3-2.7,0.8c-0.7-0.2-0.4-1.3-0.5-1.9c-0.1-0.7,0.5-3.2,1.1-4c0.3-0.4,0.9-0.7,1.3-1
			c0.4-0.3,0.6-0.8,1-1c0.1,0,0.3-0.1,0.4-0.1c0.1-0.1,0.2-0.4,0.3-0.5c-0.1-1-0.6-1.6-1.7-1.6c-0.3,0.2-0.7,0.3-1,0.5
			c-1.7,1.2-3.2,3.6-3.8,5.9c-0.3,1.1,0.1,2.8,0.1,3.6c0,0.4,0.2,0.9,0.1,1.2c-0.2,0.4-1.9,1.7-2.3,2.1c-1.9,1.9-2.6,5.2-1.9,8.5
			c-0.7,0.7-1.8,1.6-2.2,2.5c-0.6,1.5-1.1,3.2-1.3,4.6c-0.2,1.4,0.7,2.7,1.3,3.5C415.4,216.9,416.3,218.5,417.6,219.5z M422.8,204.6
			c0.8,0,3.2,0.3,3.7,0.7c0.2,0.1,0.3,0.5,0.4,0.6c0.1,0,0.2,0.1,0.3,0.1c0.1,0.2,0.1,0.5,0.3,0.6c-0.1,0.9-0.5,1.4-0.9,2.1
			c-0.6,0.1-3.5,0.9-4.1,0.7c-0.6-0.1-1-0.5-1.5-0.8c-0.2-0.1-0.5-0.1-0.6-0.3c-0.5-0.7-0.5-1.8-1.1-2.4
			C419.6,204.7,421.8,205.2,422.8,204.6z M427.5,194.8c1.1,0,3.4-0.1,3.9,0.3c0.1,0,0.2,0.1,0.3,0.1c0,1.2-0.3,1.6-0.8,2.3
			c-0.9,0-3,0.4-4.1,0c-0.5-0.2-1-0.6-1.4-0.9c-0.4-0.3-0.8-0.3-1-0.7h-0.1C424.8,194.8,426.8,195.2,427.5,194.8z M433,223.1
			c-1.1,1-3.8,3-4.1,4.6h0.3v0.3c0.2,0,0.4-0.1,0.6-0.1c0.7-1.5,2-2.7,3.3-3.7c0.4-0.3,0.7-1,1.1-1.3c1-0.8,2.1-1.7,3-2.6
			c0.6-0.6,1.2-1.3,1.7-1.9c0.2-0.3,0.7-0.4,0.9-0.7c0.2-0.2,0.3-0.6,0.5-0.8c0.7-0.6,1.5-1.1,2-1.8c0.9-1.3,2-2.3,3.1-3.4
			c1.4-1.4,2.7-2.8,4.4-3.9c0-0.2,0-0.2,0.1-0.3c-0.1-0.4-0.3-0.4-0.6-0.6c-0.8,0.1-1.3,1.1-1.7,1.6c-0.2,0.1-0.5,0.3-0.7,0.4
			c-0.7,0.7-1.4,1.6-2.2,2.3c-1.1,0.9-1.9,2-2.8,3.1l-0.8,0.5c-1.1,1.5-2.4,2.7-3.8,3.9c-0.1,0.1-0.2,0.4-0.3,0.5
			c-0.1,0-0.2,0.1-0.3,0.1c0,0.1,0.1,0.2,0.1,0.3c-0.3,0.6-1.3,1-1.7,1.5c-0.3,0.3-0.5,0.7-0.8,1c-0.4,0.3-0.7,0.5-1,0.9
			C433,222.9,433,223,433,223.1z M441.6,222.1c0,0.2,0.1,0.5,0.1,0.7c1.2-0.3,2-1.7,2.9-2.4c2.2-1.6,4.4-3.2,6.6-4.8l1.4-1.4
			c1-0.7,2.6-1.1,3-2.4c-0.1-0.1-0.3-0.4-0.3-0.5c-0.3,0-0.6,0-0.7,0.1c-0.4,0-0.5,0.2-0.8,0.3v0.6c-0.9,0.1-2.3,1.8-3,2.4
			c-2.2,1.6-4.3,3.3-6.5,4.8C443.3,220.3,442.5,221.6,441.6,222.1z M402.5,217c0.7,0.1,1.7,0.5,2.4,0.3c0.6-0.2,1.1-0.7,1.7-0.9
			c0.1-1.1,0.7-1.6,0.6-2.6c-1.5-1.5-1.4-1-3.8-1c-0.3,0.3-0.7,0.5-0.9,0.8c-0.3,0.5-0.2,0.7-0.6,1c0,0.6-0.1,1.3,0.1,1.7
			C402.2,216.7,402.4,216.6,402.5,217z M403.1,214.4c0.7-0.2,1.9-0.6,2.4-0.2c0.1,0,0.1,0.1,0.2,0.1c-0.1,0.4-0.2,0.8-0.3,1.2
			c-0.2,0.2-0.5,0.4-0.7,0.6c-0.9,0-1-0.2-1.7-0.3C402.9,215.3,403,214.9,403.1,214.4z M370.6,234.1c0.8,1.9,1.7,3.9,2.3,6
			c0.1,0.5,0.6,1.3,0.4,1.8c-0.1,0.5-0.6,0.8-0.7,1.2c0.1,0.1,0,0,0.1,0.2c1.2,0,1.4-0.8,2.1-1.3c-0.4-1.7-1.2-3.6-1.9-5.1
			c-0.9-1.8-1.4-3.8-2.2-5.7c-0.1-0.2-0.4-0.4-0.5-0.6c-0.2-0.3,0-0.6-0.2-1c-0.3-0.7-0.9-1.6-1.2-2.3V227c-0.1-0.4-0.5-0.8-0.6-1.2
			c-0.1-0.3-0.1-0.6-0.2-0.9c-0.3-0.9-0.9-1.9-1.3-2.8c-0.2-0.4-0.1-1-0.3-1.4c-0.1-0.2-0.5-0.6-0.6-0.9c0-0.3-0.1-0.5-0.1-0.8
			c-0.1-0.3-0.4-0.7-0.5-1v-0.6c-0.1-0.3-0.5-0.9-0.5-1.1c0-0.2,0.1-0.3,0.1-0.5c-0.1-0.4-0.2-1.3-0.3-1.7c-0.1-0.2-0.2-0.3-0.5-0.3
			c-0.1,0.2-0.3,0.3-0.5,0.4c0.1,0.7,0.1,1.3,0.2,2C365.3,222.5,368.2,228.4,370.6,234.1z M374.2,226.2c0.2,0.1,0.9,0.1,1.1-0.2
			c0.3-0.1,0.3-0.3,0.4-0.5c-0.1-0.5-0.4-0.8-0.5-1.2c-0.2-0.5-0.2-1.3-0.3-1.7c0-0.5-0.1-1-0.1-1.6c-0.3-1.2-0.4-2.7-0.7-3.6
			c0-0.3-0.1-0.7-0.1-1l-0.8-1c-0.2,0-0.3-0.1-0.5-0.1c-0.1,0.1-0.2,0.1-0.3,0.2c-0.3,0-0.3,0.1-0.5,0.2c-0.1,0.8,0.1,2,0.3,2.8
			C372.8,220.9,372.3,224.9,374.2,226.2z M360.4,227.6c0.7-0.1,1-0.4,1.4-0.7c0-1.2-1.4-2.1-2-2.8c-1-1.2-1.9-2.5-2.9-3.8
			c-0.2-0.3-0.7-0.5-1-0.8h-0.7c-0.1,0.1-0.2,0.1-0.3,0.2c-0.4,1.7,1,2.2,1.8,3.4C357.8,224.6,359.2,226,360.4,227.6z M485.8,226.1
			c1.3-0.5,1.7-2.7,1-4.2c-0.5-1.2-1.8-1.7-3.6-1.7c-0.2,0.2-0.6,0.1-0.9,0.3c-0.7,0.3-1.1,1.1-1.3,1.8
			C480.4,224.7,483.4,227,485.8,226.1z M382.2,228.6c0.4,0.3,0.8,0.5,1.1,0.8c1.1-0.1,3.1-1.1,3.9-2.2c0.3-0.4,0.4-0.9,0.7-1.2
			c-0.1-0.9-0.6-1.2-0.9-1.8c-0.5-1-0.9-1.5-2.4-1.5c-0.4,0.4-1.2,0.3-1.6,0.6c-0.2,0.2-0.7,1-0.8,1.2c0,0.1,0.1,0.2,0.1,0.3
			c-0.1,0.2-0.4,0.4-0.5,0.6c-0.1,0.2,0.1,0.8,0.1,1c0,0.2-0.2,0.3-0.2,0.6C381.8,227.7,382,228.1,382.2,228.6z M383.4,227
			c0.1-0.4,0-0.8,0-1c0.1-0.3,0.2-1.2,0.4-1.5c0.2-0.3,0.6-0.4,0.9-0.7c0.2,0,0.3,0,0.4,0.1c0.6,0.1,0.7,0.6,1.1,0.9
			c0,0.3,0,0.4,0.2,0.6c0,0.8-1,1.9-1.5,2.3c-0.3,0.2-0.8,0.2-1,0.4c-0.7,0-0.7-0.2-1-0.5C383.1,227.3,383.4,227.2,383.4,227z
			 M410.9,386c-1.1-0.6-2.6,0.6-3.5,1.2c-0.1,0.1,0,0.3-0.1,0.5c-0.3,0.6-0.6,0.7-0.5,1.5c0.2,0.2,0.3,0.4,0.5,0.6
			c0.1,0.1,0.6,0.1,0.8-0.1c0.3-0.1,0.4-0.5,0.5-0.8c0.1-0.1-0.1-0.3-0.2-0.6c0.3-0.2,0.4-0.6,0.6-0.9c0.2-0.2,0.5-0.3,0.7-0.4
			c0.8,0,1.3,0.3,1.5,0.9c0.3,0.5-0.4,1.5-0.5,1.8c-0.2,0.5-0.3,1.1-0.5,1.6c-0.3,0.3-0.6,0.6-1,1c-0.2,0-0.3,0.1-0.5,0.1
			c-0.2,0.1-0.2,0.4-0.3,0.5c-0.5,0.4-1.7,0.9-2.3,0.5c-0.8,0-0.4-0.3-0.8-0.7c-0.3-0.3-0.7-0.3-1-0.6c-0.8-1.1-1.6-4-1-5.7
			c0.7-1.8,1.7-3.5,2.4-5.2c0-0.4,0.1-0.8,0.1-1.1c0.2-0.5,0.4-1.1,0.5-1.7c0.1-0.3-0.1-0.7-0.1-0.8c0.4-2,0.9-4.1,1.5-6.1
			c0.2-0.6,0.3-1.3,0.3-1.7c0-0.1-0.1-0.2-0.1-0.3c0.3-0.9,0.8-2,1-2.9c0.1-0.4,0-0.8,0.1-1.1c0-0.1,0.3-0.4,0.3-0.5
			c0-0.9,0.3-2.3,0.5-3.3v-2.5c0.3-1.3,0-3.4-0.3-5.2c0-0.3,0.2-1,0.1-1.3c-0.4-1.5-0.8-3.4-1.5-5.2c-0.1-0.3-0.2-0.7-0.3-0.9
			c0-0.1,0.1-0.3,0.1-0.4c-0.1-0.2-0.4-0.6-0.5-0.8c-0.3-0.6-0.2-1.2-0.5-1.7c-0.1-0.1-0.4-0.4-0.4-0.5c-0.2-0.5-0.1-1-0.3-1.6
			c-0.4-0.9-1.1-4.8-1-6.6c0-1.2,0.2-2.6,0.4-3.9c0.1-0.4-0.1-0.8,0.1-1.3c0.8-2,1.5-4.2,2.5-5.9c0-0.2,0.1-0.4,0.1-0.6
			c1.2-2.4,2.2-4.2,2.7-7.5c0-0.3-0.1-1.6-0.2-2.2c0-0.6-0.1-1.1-0.1-1.7c-0.4-1.5-0.8-2.5-1.4-3.8v-0.3c-0.1,0-0.2-0.1-0.3-0.1
			c-0.3-0.4-0.3-0.9-0.5-1.3c-0.1-0.1-0.3-0.3-0.4-0.4c0-0.2-0.1-0.4-0.1-0.6c-0.6-1.3-1.1-2.7-1.7-4c-0.8-1.9-2-3.5-2.5-5.5
			c-0.2-0.7-0.3-1.9-0.3-2.4c0-0.1,0.1-0.4,0.1-0.7c-0.2-1,0-3.3,0.3-4.5c0-0.5,0.1-1,0.1-1.5c0.4-1.1,0.9-2.3,1.4-3.3
			c0-0.1-0.1-0.2-0.1-0.3c0.4-1,1.7-5.1,1.1-6.2v-0.7c0.1-0.2,0.7-0.3,1-0.4c0.4-0.3,0.7-0.9,0.8-1.5c0.6,0.3,1.5,0.7,2.2,0.8
			c0.5,0.1,1.1-0.2,1.6-0.1c0.4,0.1,0.8,0.8,1.3,0.7c0.6-0.1,1-0.9,1.3-1.2c0-1.9-2.2-3.1-2.6-4.9c0.6-0.5,1.1-1.1,1.7-1.7
			c0.3-0.4,1.1-0.6,1.4-1c0.4-0.5,0.5-1.2,0.9-1.7c0.9-1,1.6-2.4,2.3-3.8c0.1-0.3-0.1-0.3,0-0.5c0.2-0.5,0.8-1.2,1-1.7
			c0.1-0.3,0.1-0.6,0.2-1c0.1-0.2,0.4-0.5,0.4-0.7c0-0.1-0.1-0.2-0.1-0.4c0.1-0.5,0.5-1.1,0.7-1.5c0.4-1.1,0.7-2.3,1-3.3
			c0.3-1-0.2-2,0.1-3.1c0.2-0.7,0.3-3.8,0-5.2c0-0.2,0.2-0.4,0.1-0.8c-0.4-2-0.2-4.2-0.8-6c-1.5-4.4-3.8-8-7.9-10.1
			c-0.4-0.2-0.7-0.7-1-0.9c-0.3-0.1-0.6-0.2-1-0.3c-1.5-0.6-2.4-1-4.1-1.1c-0.7,0.5-2.1,0.1-2.9,0.4c-1.2,0.5-2.6,1.2-3.8,1.7
			c-0.6,0.2-1.2,0.3-1.7,0.6c-0.7,0.4-1.2,1.4-1.7,2c-0.5,0.6-1.3,1-1.7,1.7c-0.3,0.4-0.3,0.9-0.6,1.4c-1.2,2-2.3,4.4-3.1,6.8
			c-0.2,0.7-0.4,1.3-0.5,1.9v0.7c-0.8,1.8-1.3,4.7-0.8,7c0.2,0.8,0,1.9,0.1,2.4c0.2,0.8,0.3,1.8,0.5,2.7c0.2,0.8,0,1.4,0.3,2
			c0.4,0.7,0.9,1.7,1.3,2.4c-0.1,0.2,0.7,2.1,0.9,2.4c0.1,0.1,0.3,0.1,0.3,0.2c0,0.3,0.1,0.5,0.1,0.8c0.2,0.2,0.4,0.3,0.6,0.5
			c1.7,2.5,3.4,3.3,5.9,5.1c0.2,0.1,0.2,0.4,0.3,0.5c0.5,0.4,1.5,1.1,2.1,1.4c-0.2,0.9-0.9,1.7-1.3,2.4c-0.4,0.7-0.4,1.3-0.8,2
			l-0.3,0.3c-0.4,0.9-0.5,2.1-1.1,2.7c0,1.1,0.5,1.4,1.3,0.9c1-0.6,1.8-1.6,2.7-2.3c0.2-0.2,0.3-0.6,0.5-0.8
			c0.3-0.2,0.5-0.1,0.7-0.4c0.6,0.2,0.7,0.9,1.1,1.2c0,2.3,0,4.2-0.7,6.1c-0.3,0.9-0.2,1.9-0.7,2.6c-0.1,0.2-0.4,0.2-0.5,0.3
			c0.5,0.5-0.4,1.9-0.5,2.4c-0.2,0.6,0,1.6-0.1,2.1c-0.1,0.5-0.4,1.7-0.3,2.3c0,0.3,0.2,1.2,0.2,1.5c-0.2,0.9,0,2.1,0.3,2.8
			c-0.1,0.1-0.2,0.3-0.2,0.4c0.5,1.7,1.5,3.5,2.4,4.9c-0.1,0.2-0.1,0.2,0,0.4c0.1,0.2,0.4,0.4,0.5,0.6c0.2,0.4,0.1,0.7,0.3,1
			c0.4,1.1,1,2.4,1.5,3.5c0.3,0.6,0.8,1.1,1,1.7c0.3,0.5,0.3,1.1,0.5,1.7c0.2,0.5,0.6,1.1,0.7,1.6c0.1,0.6-0.1,1.5,0.1,2.4
			c0,0,0.2,0.6,0.2,0.6c-0.1,2.8-0.8,4.7-1.7,6.7c-0.2,0.3-0.5,0.7-0.7,1c-0.3,0.7-0.4,1.8-0.8,2.4c-0.1,0.3-0.6,0.6-0.7,0.9
			c-0.3,0.6-0.2,1.1-0.4,1.7c-0.3,0.8-0.7,1.7-1,2.6c-0.1,0.4,0,0.9,0,1.1c-0.1,0.7-0.3,1.6-0.4,2.4c-0.1,0.6-0.1,2.5,0,3
			c0,0.1,0.2,0.7,0.2,0.8c-0.1,0.8,0.4,2.3,0.6,3.3c0.1,0.6,0.1,1.1,0.2,1.5c0.9,2.4,2,4.9,2.8,7.4c0.2,0.7-0.1,1,0.2,1.7
			c0.5,1.4,0.4,3.4,0.8,4.8c0.2,0.9-0.1,2.4,0,3.1c0,0.3-0.2,0.8-0.2,1c0,0.6,0,1.7-0.2,2.4c-0.1,0.3,0.1,0.5,0.1,0.7
			c-0.1,0.4-0.4,1.1-0.5,1.5c-0.2,0.5,0,0.9-0.2,1.5c-0.5,1.7-1.2,3.7-1.7,5.5c0,0.2,0.1,0.3,0.1,0.5c-0.1,0.4-0.1,0.9-0.3,1.5
			c-0.4,1.4-0.8,3.6-1.2,4.8c-0.2,0.6,0,1.7-0.3,2.3c-0.4,1.1-0.9,2.1-1.4,3.1c-0.4,0.7-0.4,1.3-0.7,1.9c0,0.1,0.1,0.1,0.1,0.2
			c-0.1,0.3-0.4,0.5-0.5,0.9c-0.7,2.2,0.4,3.9,1,5.2c0.1,0.3,0.1,0.5,0.2,0.8c0.2,0.3,0.6,0.5,1,0.7c0.1,0.2,0.3,0.4,0.4,0.6
			c0.5,0.4,1.4,0.6,2,0.8c0.4,0.1,1.5-0.5,1.7-0.7c0.5-0.4,1.3-0.6,1.8-1c0.7-0.6,1-1.4,1.4-2.4c0.3-0.8,1.6-2.8,0.7-3.8
			C412,386.6,411.3,386.1,410.9,386z M399.8,265.8c-0.3-0.2-0.7-0.2-1-0.3l-0.9-0.9c-0.3-0.2-0.5-0.2-0.8-0.3
			c-0.4-0.3-0.7-0.8-1-1.2c-0.2-0.2-0.4-0.3-0.6-0.5c-0.6-0.9-1-1.8-1.5-2.9c-0.2-0.3-0.6-0.8-0.7-1.1v-0.4
			c-0.3-0.7-0.9-1.5-1.2-2.3c0.2-0.5-0.4-1.8-0.5-2.4c-0.1-0.5,0.1-0.7,0-1c-0.2-0.9-0.3-1.8-0.5-2.7c-0.1-0.3,0.2-1.1,0.1-1.2
			c-0.1-0.1-0.4-0.1-0.3-0.4c0,0,0.2-0.5,0.3-0.6c0-0.9,0.1-1.9,0.1-2.8c0.3-1.3,0.7-2.2,1.1-3.5v-0.7c0.1-0.4,0.5-0.9,0.6-1.2
			c0.1-0.3,0.1-0.6,0.2-1c0.3-0.6,0.7-1.4,1-2c0.1-0.3,0.1-0.6,0.3-1l0.4-0.4c0.1-0.3,0-0.5,0.2-0.7c0.1,0,0.2-0.1,0.3-0.1l0.3-0.8
			c0.2-0.3,0.7-0.6,0.9-1c0.2-0.3,0.2-0.6,0.4-0.9c0.5-0.5,1.1-1,1.6-1.5c0.3-0.3,0.4-0.7,0.7-1c0.3-0.3,2.8-1.4,3.4-1.4
			c0.1,0.4,0.2,0.4,0.3,0.6c0.5,0,1-0.2,1.3-0.4c0.4-0.1,0.5-0.4,0.5-0.9c0.3,0.1,0.5,0.3,0.7,0.4c0.5,0,1,0.1,1.5,0.1
			c0.2,0.1,0.1,0.2,0.4,0.3c0,0.2-0.6,1.1-0.8,1.2c0.1,0.2,0.3,0.4,0.3,0.7c0.2,0.1,0.1,0,0.2,0.1c1-0.1,1.5-1,2.1-1.6
			c1,0.1,1.6,0.5,2.4,0.9c-0.3,0.3-0.4,1-0.3,1.7c0.2,0.1,0.2,0.1,0.3,0.3c0.5-0.1,0.7-0.4,1-0.6c0.1,0,0.2,0,0.5,0
			c0.3,0.2,0.5,0.5,0.8,0.7c0.2,0.3,0.2,0.6,0.4,0.8c-0.1,0.2-0.5,0.5-0.7,0.5c0,0.4,0,0.6,0.1,0.8c0.1,0.2,0.1,0.2,0.3,0.3
			c0.4,0,0.7,0,1-0.2c1,0,1,1,1.4,1.6c-0.1,0.2-1.2,0.6-1.6,0.6c0,0.3-0.1,0.4-0.2,0.5c0.1,0.4,0.2,0.5,0.3,0.8
			c0.7,0,1.5-0.6,2.1-0.3c0.2,0.1,0.2,0.1,0.3,0.3c0,0.7,0.1,2,0.3,2.4c0,0.3,0,0.7-0.1,0.9c-0.2,0.1-0.8,0.1-1-0.2
			c-0.4,0-0.5,0.1-0.7,0.3c-0.1,0.1-0.1,0.3-0.2,0.3c0,0.4,0.1,0.5,0.3,0.7c0.5,0.4,1.1,0.4,1.7,0.2c0,0,0.2,3,0,3.3
			c-0.2,0.1-0.6,0-0.9-0.2c-0.7,0-0.7,0.1-1,0.3c0,0.3,0.1,0.1,0,0.3c0.2,1,1.1,0.9,1.9,1.2c-0.1,1.2-0.4,2.7-0.5,4
			c-0.7,0.2-1.5-0.1-1.7,0.6c-0.1,0.1-0.1,0,0,0.2c0,1,0.5,1,1.2,1.2c0.1,1-0.6,1.9-0.7,2.9l-0.1,0.1c-1.2-0.1-1.3-0.7-2.2,0
			c0,0.3,0,0.3-0.1,0.5c0.4,0.4,1.1,0.9,1.8,1c-0.1,1.5-0.8,2.7-1,4c-0.4-0.1-0.7-0.2-1-0.4c-0.5,0-0.5,0.2-0.8,0.3
			c0.1,0.8,0.3,1.2,0.8,1.6c-0.1,0.5-0.5,0.8-0.9,1c-0.1,0.1,0,0-0.3-0.1l-0.1,0.1c0.1,0.1,0.1,0.1,0.2,0.2v0.2
			c-0.4,0-0.9-0.2-1.1,0c-1,0-1,0.7-1.5,1.3c0.1,0.2,0,0.1,0.3,0.2v0.3c0.3,0.2,0.6,0.3,0.9,0.5c-0.4,0.8-1,0.9-1.6,1.5
			c-0.6-0.1-0.6-0.6-1-0.7c-0.3-0.1-0.6,0.1-0.9,0.1v0.3H407c0.1,0.5,0.6,1.3,0.9,1.7v0.1c-0.8,0-1.3,0.2-2,0.3
			C403.6,269.5,400.9,266.8,399.8,265.8z M405.2,273.2c-0.3-0.1-0.6-0.3-1-0.2c-0.6,0.2-3,2.3-3.3,2.8h-0.3c0.5-1,0.9-2,1.4-2.9
			c0.1-0.2,0-0.4,0.2-0.6c0.4-0.5,1-1.4,1.3-2.1c0.8,0.1,2.2,0.4,2.9,0.3c0.5-0.1,1.8-0.5,2.3-0.2c0.7,0.3,1.4,2.5,1.9,3.1
			c0,0.2,0,0.2-0.1,0.3c-0.3,0.3-2.1-1.1-2.4-1.3c-0.3,0-0.5,0-0.7,0.2c-0.5,0.4-0.2,1.3-0.5,1.9l-0.3,0.3c-0.2,0-0.2,0-0.3-0.1
			C405.8,274.5,405.4,273.6,405.2,273.2z M453,244.9h-0.7c-0.4-0.1-1.8-0.6-2.2-0.9c-0.1-0.1,0.2-3.4,0.3-3.8
			c0.1-0.2,0.2-1.1,0.3-1.5c0.1-0.4-0.1-0.7,0-1.1c0.2-0.8,0.3-2,0.6-2.8c0.5-1.2,0.9-2.6,1.4-3.8c0.3-0.7,0.3-2.3,1-2.8
			c-0.1-1.2-1-0.6-1.7-1.1c-1,0-2.2,2.1-2.6,2.8c-0.1,0.2-0.7,0.7-1,1.1c-1.1,1.9-2.1,3.4-3.3,5.2l-0.8,0.8c-0.6,0.9-1.3,2.4-2.1,3
			c-0.2,0.2-2.5-0.7-3.1-0.9c-1.5-0.5-2.8-1.3-4-1.9c-0.5-0.3-1-0.3-1.6-0.6c-1.1-0.6-1.5-1.6-3-1.8c-0.1,0.1-0.3,0.3-0.4,0.3
			c0,0.8,0.4,1,0.4,1.7h0.3c0.1,0.9,0.4,1.1,0.6,1.7c0.2,0.6,0.1,1.1,0.3,1.7c0.1,0.2,0.4,0.4,0.5,0.6v0.4c0.4,1,1,2.1,1.6,2.9
			c0.5,0.7,0.9,2.2,1.7,2.5c-0.2,0.6-0.2,1.3-0.7,1.7c-0.1,0.1-0.3,0-0.3,0.1l0.1,0.1c-0.1,0.5-0.3,0.9-0.5,1.4
			c-0.8,1.6-1.7,2.9-2.6,4.3c-0.2,0.3-0.3,0.7-0.3,0.9c-0.2,0.3-0.6,0.6-0.8,1c-0.2,0.4-0.2,0.7-0.4,1c0.1,0.2,0.1,0.2,0.2,0.3h0.3
			v0.3c0.7,0,0.7-0.2,1.3-0.3c0.3,0,0.6-0.1,0.9-0.1c0.1-0.1,0.4-0.4,0.5-0.4c0.6-0.3,1.1-0.3,1.7-0.5c1.4-0.6,2.9-1.5,4.2-2.2
			c0.8-0.5,1.9-0.4,2.6-1c0.8,0.2,1,1.2,1.4,1.7c0.6,0.9,1.3,1.9,1.9,2.9c0.2,0.4,0.2,0.9,0.4,1.2c0.1,0.2,0.4,0.4,0.5,0.5
			c0,0.2,0.1,0.3,0.1,0.5c0.2,0.3,0.6,0.4,0.8,0.7c0.2,0,0.4,0,0.5-0.1c0.3-0.1,0.3-0.3,0.5-0.4c0-1.3,0.2-1.9,0.3-2.5
			c0-0.3-0.1-0.6-0.1-0.9c0-0.1,0.2-0.3,0.3-0.3c0-0.3-0.1-0.5-0.1-0.8c0.3-1.1,0.5-2.4,0.8-3.3v-0.6c0.2-0.7,1-1.5,1-2.3
			c2-0.1,4.5,0,6.2-0.4c1.1-0.3,3.5,0.1,4.2-0.3c0.3-0.1,0.4-0.3,0.6-0.4v-0.7c-0.2-0.3-0.8-0.1-1.1-0.3c-0.4-0.2-1-0.6-1.5-0.7
			h-0.7c-0.6-0.2-1.2-0.8-1.8-1c-0.5,0-1-0.1-1.5-0.1C454.1,245.4,453.5,245,453,244.9z M433.3,239.4L433.3,239.4
			c-0.1-0.1-0.1-0.2-0.2-0.3c0.1,0,0.1,0.1,0.2,0.1L433.3,239.4L433.3,239.4z M446.2,246.9v0.2c-0.2-0.1-0.1,0.1-0.2-0.2H446.2z
			 M445.5,245.6L445.5,245.6l-0.2,0.1c0-0.1-0.1-0.2-0.1-0.3C445.3,245.5,445.4,245.6,445.5,245.6z M444.3,247
			c0.3,0.1,0.5,0.5,0.8,0.7c0,0.2,0,0.3-0.1,0.4c-0.1,0.3-0.5,0.4-0.7,0.6C443.9,248.3,444,247.5,444.3,247z M440.9,244.9
			c0.5,0,0.5,0,1-0.1c0,0.3,0,0.3,0.2,0.4c-0.1,0.2,0,0.1-0.1,0.2l-0.8,0.3v-0.1c-0.1-0.1-0.1-0.3-0.3-0.5L440.9,244.9L440.9,244.9z
			 M439.5,243.6L439.5,243.6L439.5,243.6c0.4,0.1,0.3,0.2,0.5,0.3v0.1h-0.6c0-0.2,0-0.2-0.1-0.3
			C439.3,243.7,439.4,243.7,439.5,243.6z M436.1,240.7L436.1,240.7c-0.2,0-0.5,0-0.7-0.2c-0.1-0.1-0.1-0.1-0.2-0.3
			C435.6,240.4,435.8,240.5,436.1,240.7z M447.1,255.7c0,0.2,0.1,0.4,0.1,0.6c-0.1,0.6-0.4,1.3-0.3,2.2h-0.2c-0.4-0.8-1-2.2-1.6-2.8
			c0.1-0.2,0.6-0.3,0.8-0.4c0.1-0.3,0.1-0.6,0.1-1c-0.2-0.2-0.3-0.4-0.5-0.6c-0.5,0-0.5,0-1,0.1c0,0.2,0,0.2-0.1,0.3v0.1
			c-0.4-0.2-1.4-1.9-1.6-2.4c-0.8-0.1-2,0.3-2.4,0.7c-0.4-0.2-0.1-0.5-0.3-0.8c-0.2-0.3-0.7-0.4-1-0.7c-0.4,0-0.4,0.1-0.6,0.2
			c0,0.8,0.1,1.4,0.5,1.7c-0.1,0.3-1.6,1.2-2,1.3h-0.6c-0.1,0.1-0.1,0.2-0.2,0.3c-0.2,0-0.5,0.1-0.7,0.1c-0.4,0.2-0.9,0.6-1.3,0.8
			c-0.7,0.3-1.4,0.3-2,0.7c-0.1-0.1-0.1,0-0.2-0.1c-0.1-0.1,0.8-1.6,1-1.9c1-1.6,2.2-3.7,3.3-5.5h0.3c0,0.7,0.2,1,0.5,1.6
			c0.5,0.2,0.7,0.2,1.1-0.1c0-0.4,0-0.4,0-0.8c-0.6-0.4-0.6-1-1.7-1c0.2-0.4,0.4-0.5,0.8-0.7c0-0.2,0.1-0.4,0.1-0.6
			c-0.9-0.9-1.8-2.4-2.4-3.5c-0.5-0.8-0.6-1.7-1.1-2.4v-0.3c0.2,0.1,0.4,0.1,0.5,0.3c0.2,0.4,0.2,0.9,0.4,1.2
			c0.2,0.3,0.7,0.2,0.9,0.5c0.3,0.6,0.2,1.1,1,1.3c0.2,0.1,0.4,0,0.7-0.1c0.1-1.2-0.4-1.1-0.9-1.8c-0.1-0.1,0,0,0-0.1
			c0.1-0.2,0-0.1,0.1-0.2c0.1,0.1,0.6,0.1,0.9,0.3c0.1,0.2,0.1,0.7,0.2,1c0.1,0.2,0.4,0.3,0.3,0.6l-0.3,0.3
			c-0.1,0.3,0.1,0.6,0.2,0.8c0.1,0.4-0.1,1,0,1.1c0.3,0.8,1.4,1.2,2.1,0.4c0.3,0.2,0.2,0.5,0.4,0.7c0.1,0.2,0.4,0.2,0.6,0.3
			c0.2,0.2,0.4,0.8,0.4,1c0.3,0.1,0.5,0.1,0.6,0.3c0.3-0.1,0.3-0.1,0.4-0.3c0.6,0.1,1,0.5,1.5,0.2c0.6,0.1,0.9,0.8,1.2,1.2
			c0.4,0,0.5,0,0.6-0.3c0.3,0.1,0.3,0.1,0.4,0.3c0.4,0,0.7,0,1-0.2c0.5,0.2,0.6,0.9,1,1.1C447.8,252.5,447.6,254.3,447.1,255.7z
			 M448.2,249.3h-1c0-0.3,0-0.2,0-0.5c0.1-0.1,0.2-0.1,0.3-0.2c0.5,0.1,0.4,0.3,0.7,0.5V249.3z M455.2,248.1c-0.1-0.1-0.1,0-0.2-0.1
			C455.2,248.1,455.1,248,455.2,248.1z M375.1,292.9l0.3-0.8c0.3-0.5,0.8-1.1,1.1-1.7v-0.3c0.1-0.2,0.5-0.5,0.6-0.7
			c0.1-0.2,0.1-0.3,0.2-0.5c0.1,0,0.2-0.1,0.3-0.1c0-0.1-0.1-0.2-0.1-0.3c0.2-0.4,0.6-1,0.8-1.4c0.7-1.9,1.1-4.4,1.6-6.2
			c0.2-0.7-0.1-1.2,0-1.7c0.3-1.3,0.1-2.6,0.2-3.8c0-0.4-0.3-0.7-0.1-1.2c0.1-0.3,0.4-0.5,0.5-0.8c0.3-0.7,0.4-1.1,0.7-1.7
			c0.1-0.3,0.4-0.5,0.5-0.9c3.1,0,5.7,2.7,6.9,4.7c0.2,0.4,0.7,0.7,1,1c-0.3,0.2,0.3,0.8,0.3,1c0.2,0.7-0.1,1.3-0.1,2.2
			c-0.2,0-0.3,0.1-0.5,0.1l-0.1,0.1c0.1,0.2,0.3,0.2,0.5,0.3c-0.1,0.3-0.3,0.7-0.4,0.9c0,0.8,0.3,0.6,0.8,1c0.1,0,0.4-0.1,0.5-0.2
			c0.5-0.5,0.1-1.1,0.3-1.9c0.4-1,0.6-2.5,0-3.6l-0.4-0.4c-0.5-0.9-1.1-1.5-1.7-2.4c-0.1-0.2-0.6-0.3-0.7-0.5v-0.3l-0.7-0.7
			c-0.4-0.3-1-0.4-1.3-0.7c-0.1-0.1-0.1-0.4-0.2-0.4c-0.4-0.3-1-0.2-1.4-0.4c-0.7-0.3-1.3-0.9-2.3-1c-0.1-0.6,0.2-1.6,0.3-2.2
			c0.5-1.8,0.1-4.7-0.7-5.9c-0.6-0.8-1.3-0.6-2.3-1c-0.1,0-0.5-0.3-0.6-0.3c-0.3-0.1-2.7-0.2-2.9-0.1c-1.6-0.2-1.2-2.5-1.5-4
			c0-0.2,0.2-0.3,0.1-0.7c-0.3-1.4-0.9-3.1-1.6-4.2c-1.4-2.3-3.2-2.9-5.6-4.2c-0.9-0.5-2.6-1.2-4.3-0.9c-1.4,0.3-2.6,0.9-4.1,1
			c0-3.6-4.3-7.2-7.4-8c-0.6-0.2-2.5-0.2-3,0.1c-0.4,0.2-1.5,1-2.1,0.7h-0.2c-0.1-5.5-3.3-9.8-9.2-9.3c-0.6,0.1-1.1-0.3-1.9-0.1
			c-0.7,0.2-1.4,0.2-2.1,0.5c-0.8,0.3-1.6,0.9-2.5,1c-0.2,0.6-1.1,0.5-1.6,0.9c-1.5,1.1-3.3,2-4.8,3.1c-3.2,2.3-6.3,5.4-8.3,8.8
			c-0.4,0.8-1.2,1.6-1.5,2.4c-0.1,0.3-0.3,0.9-0.3,1c0,0.5-0.3,1-0.4,1.5v0.9h-0.2c0,0.1,0.3,3.4,0.6,4c0.3,0.8,1,1.3,1.4,1.9
			c0.5,0,1.4-0.1,1.7-0.1c0.2-0.1,0.1,0,0.2-0.3c-0.4-0.1-1.3-0.2-1.6-0.4c-0.5-0.2-0.5-0.7-1-1c0-1-0.5-2.6-0.3-3.1
			c0-0.5-0.1-1-0.1-1.6c0.2-0.7,0.5-1.2,0.6-1.7c0-0.1-0.1-0.3-0.1-0.4c0.1-0.1,0.2-0.2,0.3-0.3c0.1-0.2-0.1-0.3,0.1-0.6
			c0.2-0.3,0.6-0.7,0.8-1c0.2-0.3,0.1-0.6,0.3-0.9c0.4-0.5,1.1-1.1,1.5-1.7c0.5-0.7,0.7-1.3,1.4-1.7v-0.3c0.4-0.1,0.4-0.3,0.8-0.4
			c0.1-0.6,2.3-2.4,2.8-2.7c0.4-0.2,0.5-0.9,0.9-1h0.4c0.1-0.1,0.2-0.3,0.3-0.4c0.7-0.5,1.3-0.9,1.9-1.6c0,0,0.6,0,0.8-0.1l0.2-0.3
			c0.3-0.2,0.8-0.2,1.1-0.4c0.1-0.1,0.2-0.3,0.3-0.4c0.3,0.3,0.5-0.3,0.7-0.3h0.6c0.1-0.1,0.2-0.2,0.3-0.3c0.3-0.2,1-0.5,1.4-0.5
			v-0.3c0.8-0.2,1.4-0.4,2-0.7c0.3-0.2,0.6,0,0.8,0c0.2,0,0.8-0.2,1-0.3c0.7-0.2,1.2,0.1,1.9,0.2c0.3,0,1.3-0.3,1.7-0.2
			c0.1,0,0.6,0.4,0.7,0.4c0.4,0.2,0.8,0.1,1.2,0.3c1.5,0.6,2.6,2,3.3,3.5c0.5,0.9,0.7,2.5,1,3.4c0.1,0.3,0,1.1-0.1,1.3
			c-0.2,0.6-1.3,0.9-1.7,1.1c-0.3,0.2-0.7,0.5-1,0.7c0,0.1-0.1,0.2-0.1,0.3c-0.9,0.8-2.1,1.1-2.8,2.1h-0.3c-0.2,0.7-1.6,1.6-2.2,2.2
			c-1.3,1.3-2.5,3.1-3.1,5c0,0.1,0.1,0.3,0.1,0.5c-0.2,0.6-0.6,1.2-0.3,1.9c0.2,0.6,0.6,1,1,1.5c0.7,0.1,0.8-0.1,1.5-0.3h0.5
			c0.5-0.2,0.8-0.7,1.4-0.9v-0.3c0.9-0.1,1.1-1,2-1.1v-0.3c0.4,0,0.3-0.1,0.6-0.2c0.1-0.5,0.6-0.5,0.8-0.9v-0.4
			c0.1,0,0.3-0.1,0.4-0.1c0.1-0.1,0.6-0.7,0.7-0.8c0.1-0.2,0.1-0.4,0.2-0.6c0.1-0.1,0.6-0.3,0.7-0.4c0-0.2,0.1-0.3,0.1-0.5
			c1.1-1.3,2.7-5.3,2.4-7.4c0.8-0.3,1.6-0.8,2.4-1.1c0.9-0.4,2.3-0.2,3.1,0.1c2.2,0.7,4.2,2.2,5.3,4c0.4,0.7,0.5,1.8,1,2.4v1
			c-0.1,0.3-0.6,0.2-0.9,0.4c-0.6,0.5-1.3,1.1-1.9,1.6c-1,0.7-1.7,1.9-2.6,2.7c-0.8,0.7-1.9,1.6-2.5,2.4c-0.2,0.3-0.4,0.7-0.6,1
			c-0.2,0.2-0.6,0.3-0.8,0.6c-0.3,0.4-0.3,0.9-0.6,1.4c-0.1,0.1-0.3,0.2-0.4,0.3c-0.7,1-1.6,1.8-2.3,2.8c-0.2,0.3-0.2,0.7-0.3,1
			c-1,1.6-1.9,3.7-2.4,5.7c-0.1,0.4,0.2,0.7,0,1.1c-0.1,0.1-0.2,0.1-0.3,0.2c0,0.3,0.1,0.6,0.1,0.9c-0.2,0.6-0.6,2.1-0.6,2.9
			c0,0.7,0.1,1.9,0,2.5c-0.2,1.1-0.2,2.7-0.1,3.9c0.1,0.5-0.2,1.2-0.1,1.8c0.1,0.7,0,2,0.3,3c0.5,1.2,1.2,2.5,1.6,3.7
			c0,0,0.1,0.1,0.1,0.1c-0.7,0.4-0.8,0.6-1.2,1.2c-0.4,0.5-1.1,1.2-1.3,1.8c-0.1,0.5,0,1,0.1,1.4c0.1,0.5,0,0.8,0.2,1.3
			c0.3,0.8,1.5,1.7,2.3,2c1.2,0.5,2.2-0.5,3.1-0.7c1.3,1.6,2.8,3.1,4.6,4.2c0.2,0.2,0.3,0.4,0.5,0.6l1.6,0.5
			c0.6,0.3,1.5,0.9,2.1,1.1c0.5,0.2,1.6,0.1,2-0.1l0.3-0.3c0.4,0,1.5,0.4,2.1,0.3c0.3-0.1,0.8-0.5,1.3-0.2c1.9,0,1.9,3.7,2.7,5v0.1
			c-0.6-0.1-2.2-2.1-2.9-1.4c-0.6,0.7,0.5,2-0.2,2.9c0,0-0.1,0.1-0.1,0.1c-0.1-0.3-0.2-0.9-0.3-1.1c-0.3-0.8-0.5-0.1-1-0.4
			c-0.1-0.2-0.1-0.3-0.2-0.5c-0.2-0.2-0.5-0.3-0.7-0.5c-0.8,0-2.4,1.3-2.8,1.8H356c0.4-1.3,1.1-2.5,1.7-3.6c0.3-0.5,0.4-1.1,0.8-1.6
			v-0.3c-0.2,0-0.5-0.1-0.7,0.1c-0.4,0.2-0.5,1-0.8,1.4c-0.7,1.1-1.4,2.5-2.1,3.7c-0.2,0.3-0.7,1.5-0.5,1.7c0,0.3,0.1,0.3,0.2,0.5
			c1,0,1.6-0.4,2.2-1c0.1-0.1,0.2-0.3,0.3-0.4h0.3c0.1-0.1,0.2-0.3,0.3-0.4c0.3-0.2,0.6-0.2,0.9-0.4c0.4,0.2,0.4,0.8,0.6,1.2
			c0.2,0.4,0.8,0.7,1,1.1c0.2,0.4,0.5,2.8,0.3,3.6c0,0.2,0.1,0.9,0,1.2c-0.2,0.6-0.7,1.4-1,2.1c-0.5,1.3-0.3,2.7-0.6,4.2
			c0,0.2-0.2,1-0.2,1.1c0.2,1.1-0.1,2.5,0.3,3.4c0.3,0.6,0.8,1.1,1,1.9c0.2,1-0.4,1.9-0.4,2.8c-0.6-0.1-1.4-0.5-2-0.7l-1.6-0.3
			c-0.3-0.1-0.7-0.5-1-0.6c-0.5-0.2-1.1-0.1-1.4-0.5c-0.2-0.3,0.6-1.5,0.7-1.8c0.3-0.9,0.3-1.8,0.6-2.4c0.4-0.9,0.9-1.6,1-2.7
			c0-0.4,0.4-0.9,0.3-1.2c-0.1-0.7-0.5-0.6-0.8-1c-0.7,0.3-1.2,1.1-1.7,1.6c-0.2,0.2-0.6,0.2-0.8,0.3c-0.2,0.2-0.3,0.5-0.5,0.7
			c-0.5,0.3-1,0.3-1.5,0.6c-0.1,0.1-0.1,0.3-0.2,0.3c-0.2,0.1-0.4,0.1-0.6,0.2c-0.7,0.4-1.6,1.2-2.4,1.4c-0.7,0.1-1.8-1.2-2.1-1.7
			c-0.5-0.7-1.3-1.2-1.7-1.9c-0.7-1.1-1.3-2.1-2.1-3.1c-0.4-0.5-1.2-0.8-1.7-1.3c-0.7,0-0.8,0.3-1.2,0.5c0,1.6,0.3,2.9,0.7,4
			c0.2,0.5,0.2,1.4,0.3,1.8c0,0.2-0.1,0.5-0.1,0.7c0.2,0.5,0.3,1.2,0.4,1.8v0.8c0.2,0.9,0.5,2.5,1,3.1c-0.1,0.7-1.9,1.1-2.4,1.5
			c-2.3,1.4-6.1,2.4-7.6,4.5c-0.1,0.1,0,0.2-0.1,0.3c0.2,0.1,0.3,0.3,0.3,0.5c2.5,0.5,4.6-0.3,6.9-0.2c1.4,0.1,3.3-0.2,4.1,0.4
			c0.3,0.1,0.2,0.2,0.4,0.3c-0.1,1.3,0.2,2.8,0.6,3.8c0,0.6,0.1,1.2,0.1,1.8c0.2,0.8,0.4,2.2,0.6,2.8c0.2,0.6,0,1.5,0.3,1.9l0.3,0.3
			c0.3,0,0.4,0,0.6-0.2c0.4-0.3,0.6-0.8,0.6-1.2c0.1,0,0.2-0.1,0.3-0.1c0.5-0.6,0.5-1.4,0.8-2.2c0.1-0.3,0.4-0.6,0.5-0.9
			c0.2-0.5,0.3-0.9,0.3-1.3c0.3-0.4,0.6-1.1,0.8-1.6c0.3-0.6,0.2-1.3,0.5-1.9c0.1-0.1,0.2-0.1,0.3-0.2c0-0.1-0.1-0.3-0.1-0.4
			c0.2-0.7,0.6-2.4,1.2-2.6c0.2-0.1,1.3,0.2,1.8,0.1c0.4-0.1,0.6,0.1,1,0c0.2-0.1,0.6-0.3,0.8-0.3c0.8-0.3,2-0.2,2.8-0.4
			c0.7-0.2,1.4-0.2,1.7,0c0.1,0.3-0.5,1.2-0.6,1.7c-0.4,1.1-0.8,3.5-0.4,4.5c0.5,1.2,1.5,2.6,1.9,3.7c0,0.2-0.1,0.3-0.1,0.5
			c0,0.1,0.2,0.1,0.3,0.2c0.1,0.3,0.1,0.5,0.2,0.8c0.1,0.2,0.4,0.5,0.5,0.7c0.2,0.4,0.2,0.8,0.4,1.1c0.2,0.2,0.5,0.4,0.7,0.6
			c0.2,0.2,0,0.4,0.2,0.7l0.8,0.8v0.3c0.2,0.3,0.6,0.6,0.8,1c1.1,1.7,1.9,4.3,2.4,5.8c0.6,2.1,0.5,4.8,0,6.6c-0.2,0.7,0,1.3-0.3,1.8
			c-0.4,0.8-1.7,2.4-2.4,2.9c-0.1,0-0.2,0.1-0.3,0.1c-0.1,0.1,0,0.3-0.1,0.3c-0.3,0.2-0.7,0.3-1,0.5c-1.1,0-1.6-0.4-2-1.1
			c-0.1-0.1-0.1-0.3,0-0.4c0-0.2,0-0.4,0.1-0.5c0.1-0.1,0.4-0.1,0.5-0.2c0-0.1,0.1-0.2,0.1-0.3c0.3-0.2,0.7,0.3,1.1,0
			c0.3-0.1,0.3-0.4,0.5-0.6c-0.1-0.4-0.3-0.3-0.4-0.5c-0.1-0.1,0-0.3-0.1-0.4c-0.3-0.1-0.8,0.3-1.1-0.1c-0.9,0.1-1.3,0.8-1.9,1.2
			c0.1,0.7-0.3,1.6-0.1,2.3c0.1,0.3,0.5,0.6,0.8,0.8c1.6,1.2,2.5,1.5,4.4,0.3c0.1-0.2,0.3-0.4,0.4-0.6c1-0.8,2-1.7,2.6-2.8
			c0.1-0.2,0.5-2.1,0.5-2.4c0-0.1-0.1-0.2-0.1-0.3c0.1-0.5,0.5-1.7,0.4-2.3c-0.1-0.6,0.1-2.3-0.1-2.9c-0.2-0.5-0.4-1.2-0.5-1.7
			c-0.1-0.4,0.2-0.5,0-0.9c-0.1-0.2-0.4-0.5-0.4-0.7c0-0.3-0.1-0.6-0.1-0.9c-0.9-2-2-3.9-3.1-5.8c-0.2-0.3-0.6-0.6-0.8-0.9
			c-0.3-0.4-0.4-0.9-0.7-1.4c-0.1-0.1-0.3-0.2-0.3-0.3c-0.3-0.5-0.1-0.9-0.3-1.4c-0.8-1.7-1.7-3.1-2.4-5.1c0.2-0.8,0.6-2.4,1-3.4
			c0.1-0.2-0.1-0.3-0.1-0.3c0.2-0.5,0.7-0.5,0.8-1.2c1.3,0,2.2-0.1,3.4-0.2c0.1-0.2,0.1-0.3,0.3-0.4c0-0.2,0-0.4-0.1-0.5
			c-0.3-0.9-2.7-1.2-3.4-1.8h-0.1c0.1-0.3,0.5-0.3,0.6-0.5c0-0.2-0.1-0.3-0.1-0.5c0.1-0.1,0.2-0.1,0.3-0.2v-0.7c0.3-1,0-2.6-0.6-3.3
			c-0.1,0-0.2-0.1-0.3-0.1c-0.2-0.4-0.4-3.7-0.3-4.2c0.1-1,0.2-2.6,0.4-3.3c0.3-1.1,0.9-2.2,1.2-3.3c0.3-1.1-0.1-3.5-0.3-4.5
			c1-0.5,0.7-1.4,1.3-2.3c0.1-0.1,0,0,0.2-0.1c0.2,0.2,0.5,0.2,0.7,0.3c0.9,0.6,2.3,2.1,3.8,1c0.6,0,0.8-0.3,1-0.8
			c0.3-0.5-0.4-1-0.4-1.5c0.1-0.2-0.6-0.8-0.7-1c-0.4-0.7-0.5-1.3-0.8-2.1c-0.1-0.1-0.3-0.4-0.3-0.5c-0.2-0.6,0-0.8-0.3-1.2
			c0.2-0.7,0.9-0.4,1.5-0.7l0.4-0.4c0.5-0.3,0.9-0.4,1.4-0.8c0.2-0.3,0.4-0.5,0.6-0.8c0.4-0.3,0.9-0.5,1.3-0.9
			c0.5-0.4,0.8-1.1,1.3-1.6C373.3,294.9,374.5,294.1,375.1,292.9z M380,271.3c-0.1,0.1-0.1,0.1-0.3,0.1c0-0.2,0-0.3,0.1-0.4
			c0.1-0.2,0.1-0.2,0.2-0.3c0.1,0,0.3-0.1,0.4-0.1C380.3,270.9,380.2,271.1,380,271.3z M376.9,261.2c1.1,0.2,2.5,0,3.5,0.4l0.9,0.9
			c0.1,0.7,0.4,1.3,0.4,1.9c0.1,1.1-0.3,4-0.8,4.6c0,0.1-0.1,0.1-0.1,0.2c-0.4,0.1-0.9,0.1-1.3,0.2c0-0.6-0.3-0.8-0.3-1.2
			c0-0.1,0.1-0.3,0.1-0.4c-0.1-0.3-0.3-0.8-0.3-1c0-0.2,0.1-0.4,0.1-0.6c-0.2-0.7-0.8-1.6-1-2.3c-0.4-0.9-0.2-1.8-1-2.4L376.9,261.2
			L376.9,261.2z M343.4,248.4c-0.3,0.4-0.7,0.7-0.9,1.1c-0.1,0.1-0.1,0.1-0.1,0.3h-0.3c-0.2,0.4-0.6,0.9-1,1.2
			c-0.1,0-0.2,0.1-0.3,0.1c0,0.1-0.1,0.2-0.1,0.3c-0.1,0.1-0.2,0.1-0.3,0.2c-0.2,0.2-0.4,0.6-0.6,0.8c-0.2,0.1-0.4,0.1-0.6,0.2
			c-0.4,0.2-0.7,0.8-1.1,1c-0.2,0.1-0.4,0.1-0.6,0.2c-0.7,0.4-0.8,0.9-2,0.9c-0.1-0.1-0.2-0.2-0.3-0.3c-0.3-0.8,0.3-3.3,0.7-4
			c0.1-0.1,0.3-0.2,0.4-0.3c0.1-0.2,0-0.5,0.2-0.7l0.7-0.7c0.3-0.5,0.7-1.1,1-1.6c0.1-0.1,0.3-0.1,0.4-0.2c0.8-0.8,1.6-1.7,2.4-2.4
			c0.4-0.3,0.9-0.5,1.2-0.8c0.6-0.5,2.3-1.8,3.1-1.8C345.4,244.2,344.3,247,343.4,248.4z M346.6,330.9c-0.2,0.3-0.7,0.3-1,0.3
			c0,0-0.1-0.1-0.1-0.1V331c0.3,0,0.7,0,0.9-0.1L346.6,330.9L346.6,330.9z M345.2,329.5H345c0.2-0.3,0.6-0.1,0.9-0.5h0.2
			c0,0.3-0.1,0.3-0.2,0.5C345.6,329.6,345.4,329.7,345.2,329.5z M340.6,319c0.4,0.2,0.5,0.7,0.9,1c0,0.6,0,0.8,0,1.3
			c0.2,0.2,0.3,0.6,0.4,0.7c0.4,0.3,0.9,0.2,1.3,0.5c0.2,0.1,1.2,1.4,1.2,1.6h0.1c-0.1,0.2-0.1,0.2-0.3,0.3c-0.1,0.1-0.2,0-0.5-0.1
			c-0.2-0.5-0.4-0.9-1-1v-0.1c-0.9,0-0.8,0.2-1.3,0.5c0.4,1.1,1.9,1.5,2.6,2.4c0.4,0,0.7,0.2,1-0.1c0.6,0.1,0.7,0.6,1.1,0.9v0.1
			c-0.2,0-0.3,0-0.4-0.1c-0.7-0.1-1.2,0-1,0.7h-0.6c0.2-0.7,0-0.8-0.3-1.4c-0.2-0.1-0.5-0.1-0.7-0.3c-0.6,0.1-0.7,0.4-1.1,0.5
			c-0.1-0.1,0,0-0.2-0.1c0-0.7-0.3-1.2-0.4-1.8c0-0.2,0.1-0.4,0.1-0.6C341,322.5,340.7,320.5,340.6,319z M344.1,328.5L344.1,328.5
			c-0.6,0.1-0.8,0.1-1.3,0.1c-0.1-0.6-0.4-1.5-0.8-1.8v-0.3h0.1c0.1,0.5,0.6,1.1,1,1.3c0.2,0,0.3,0.1,0.5,0.1
			C343.9,328,343.9,328.3,344.1,328.5z M345.5,343.4v0.2c-0.4-0.3-0.6-2.2-0.5-2.6c0.4,0.3,0.8,0.7,1.4,0.5
			C346.3,342.1,345.9,343.1,345.5,343.4z M347.6,338.6c-0.4-0.1-0.4-0.3-0.8-0.4c0.2-0.3,0.2-0.5,0.3-0.8c-0.4-0.3-1.4-1-2.1-0.4
			h-0.2c0.1,0.8,0.9,1.1,0.6,1.6c0.1,0.8,1.1,1,1.8,1c-0.1,0.3-0.2,0.8-0.4,1c-0.1,0.1-0.5-0.2-0.7-0.3c-0.4-0.1-0.9,0-1.1,0.1
			c-0.5-1-0.4-2.7-0.7-3.7c-0.3-1,0.1-2-0.2-2.7c-0.6-0.2-0.9,0-1.4-0.1c-0.2-0.1-0.6-0.4-0.8-0.4c-1.1-0.1-2.3-0.1-3.4-0.2
			c-0.6,0.1-1.6,0.3-2.1,0.2c-0.8-0.1-2.1,0.5-2.8,0.1c0,0-0.1-0.1-0.1-0.1c1.1-0.7,2.2-1.2,3.6-1.7c1.2-0.5,2.4-1.4,3.6-1.9
			c0.7-0.3,1.6-0.4,2.2-0.7c0.3,0.6,0.7,0.8,1.3,1.1v0.3c-0.5,0.1-0.7,0.4-1,0.6c0,0.2,0,0.3,0.1,0.4v0.4c-0.6-0.2-1.2-0.3-1.7,0.2
			c-0.5-0.1-0.8-0.9-1.4-0.7c-0.6,0-0.6,0.2-1,0.3c-0.1,0.1,0,0.1-0.1,0.2c0,0.7,0.8,1.1,1.6,1c0,0,0.5-0.2,0.5-0.2
			c0.1,0.1,0.1,0.2,0.2,0.3c0.3,0.2,0.8,0.2,1.1,0.4c0.6,0,0.9-0.3,1.2-0.6c0-0.1,0-0.4-0.2-0.5v-0.1c0.5,0.1,0.8,0.6,1,1
			c0.9,0,2.1,0.3,2.7-0.3h0.2c-0.3,0.7-1.1,0.7-1.7,1c-0.1,0.1-0.1,0.3-0.1,0.5c-0.3,0.1-0.6,0.1-0.9,0.2c-0.1,0.2-0.1,0.3-0.3,0.3
			c0,0,0.1,0.1,0.1,0.1v0.4c0.4,0.1,0.6,0.2,1.1,0.2c0.2-0.2,0.4-0.3,0.5-0.6c0.2,0,0.4,0,0.5,0.1c0.2,0.1,0.2,0.4,0.4,0.5
			c-0.1,0.3-0.4,0.3-0.7,0.4c0,0.6,0.4,0.8,0.9,1c0.1,0.1,0.4,0.1,0.7,0.1C347.9,337.8,347.7,338,347.6,338.6z M347.9,330v-0.3h0.3
			c0,0,0.1,0.1,0.1,0.1c0,0-0.1,0.1-0.1,0.1C348.1,330,348.1,330,347.9,330z M348.6,335c-0.1,0.1,0,0-0.2,0.1l-0.3-0.3v-0.2
			c0.4,0,0.3,0,0.7,0C348.7,334.9,348.7,334.9,348.6,335z M374.4,277.6c-0.1,0.1,0,0-0.1,0.2c-0.2,0-0.3-0.1-0.5-0.1v-0.1
			c0.1,0,0.3-0.1,0.4-0.2h0.2V277.6z M374.4,276.1c-0.2,0.4-0.8,0.5-1.2,0.5v-0.1c-0.4-0.8,0.7-1.7,1.1-2.4h0.2
			C374.5,274.8,374.7,275.7,374.4,276.1z M370.6,264.6c0.9,0,1-0.2,1.8-0.2c0,0.6-0.3,0.7-0.4,1.1c-1.3,3.3-4.1,5-7.1,6.3
			c-0.1-0.1-0.2-0.1-0.3-0.2c-0.5-1.3,0-2.5,0.4-3.5c0.9-2.1,2-3.5,3.5-5c0,0,2.5-1.2,2.6-1.2c0.4-0.1,0.7,0.1,1-0.2h0.4
			c0.1,0.4,0.3,0.6,0.3,1.1c-1.2,0-1.8,0-2.6,0.4c-0.1,0.2,0,0.1-0.1,0.2C370.3,264.1,370.4,264.3,370.6,264.6z M373.4,265.5v-0.2
			c0.4,0.2,0.5,1.2,0.4,1.7h-1C373,266.5,373.1,265.8,373.4,265.5z M359.4,248.5c0.6-0.6,3.2-1.1,4-1.3h1.9c0.7-0.1,2.1,0.9,2.8,1.2
			c0.9,0.5,1.8,0.8,2.6,1.4c1.4,1,2.8,4.2,2.8,6.5c-0.2,0-0.2,0-0.3-0.1c-0.3-0.1-1.3-1.6-1.6-1.9c-0.9-1.2-2.7-2.2-4.2-2.8
			c-1.3-0.5-3.2-0.8-4.5-1c-1.1-0.2-2.3,0.7-3.3,0c-0.1,0-0.2-0.1-0.3-0.1C359.4,249.8,359.7,248.9,359.4,248.5z M358.3,249.3
			c0,0.3,0,0.6-0.1,0.8c-0.2,0.8-1.8,0.9-2.3,1.1h-0.2C355.9,250.7,357.6,249.4,358.3,249.3z M355.4,251.8c-0.2-0.1-0.1,0-0.2-0.1
			C355.4,251.7,355.3,251.7,355.4,251.8z M350.8,256.9v-0.3h0.3c0.4-0.6,1.9-1.9,2.5-2.2c0.6-0.3,2.4-0.7,2.7-1.1
			c0.6,0,1.1-0.1,1.3,0.3c0.2,0.4-0.8,2-1,2.4c-0.2,0.3-0.1,0.5-0.3,0.8c-0.4,0.7-1.9,2.2-2.5,2.6c-0.4,0.3-0.9,0.2-1.4,0.4
			c-1.3,0.5-1.9,0.7-3.1-0.1l-0.3-0.8C349.1,258.3,350.2,257.3,350.8,256.9z M347,293c-0.2,0.5-1.8,1.3-2.4,1.5
			c-0.3-0.3-0.7-0.3-1.1-0.5l-0.9-0.9c0-0.5-0.1-1.4-0.3-1.9c0.3-0.3,0.8-0.9,1-1.2v-0.3c0.2-0.3,0.8-0.5,1-0.8c1,0,1.8,0.3,2.4,1
			C347.4,290.5,347.6,292.2,347,293z M373.8,281.9c-0.6-0.1-2-1.2-2.6-0.8c-0.1,0-0.2,0.1-0.3,0.1c0,0.3,0,0.7,0.1,0.9
			c0.3,0.8,1.7,0.9,2.4,1.1c-0.1,0.7-0.6,2.9-1,3.3c-0.1,0.1-0.4,0-0.5-0.2c-0.2-0.1-0.1,0-0.2-0.3c-0.4,0.1-0.5,0.1-0.8-0.2
			c-0.7,0-0.7,0.1-1,0.4c0,1.1,1.1,1.5,2.3,1.5c0,1.9-1.2,2.8-1.9,4.2c-0.7,0-1.3-0.7-1.6-1.1c-0.6,0-0.6,0.2-1,0.4
			c0.1,0.5,0.3,1.2,0.6,1.5c-0.1,0.1-0.1,0.1-0.3,0.1c0.1,0.2,0,0.1,0.1,0.2c0,0,0.9,0.3,1,0.3c-0.2,0.9-1.3,1.8-2,2.2
			c-0.2-0.3-0.3-0.1-0.7-0.3c0,0-0.9-1-1-1c-0.6,0-0.7,0-0.9,0.4c-0.2,0.6,0.8,1.3,1,1.8c0,0,0.1,0.1,0.1,0.1
			c-0.5,0.2-1.2,0.5-1.6,0.9c-0.5,0-0.7-0.3-0.9-0.6c-0.5,0-0.5,0-0.9,0c-0.1,0.2-0.3,0.8-0.3,0.9l0.4,0.4v0.3
			c-0.5,0.1-2,0.5-2.4,0.9c-0.4-0.1-0.9-0.7-1-1c-0.5,0-0.6,0.2-1,0.3v0.6h-0.3c0,0.2,0.1,0.2,0,0.3c-0.3,0.4-0.8,0.4-1,0.8
			c-0.7-0.1-1.1-0.7-1.7-1c-0.6-0.3-1.3-0.3-2-0.6c-0.5-0.2-0.8-0.7-1.2-1c-0.2,0-0.3-0.1-0.5-0.1c-0.2-0.1-0.3-0.5-0.5-0.7
			c-0.6-0.5-1.2-0.9-1.7-1.4c-0.4-0.4-0.6-1.1-1-1.5c0.1-0.6,0.4-0.8,0.5-1.2v-0.9c0.1-0.3,0.3-1,0.3-1.1c0-0.7-0.6-1.4-0.5-1.9
			c-0.9-0.4-2.6-0.7-3.3-1.2c-0.2-0.4-0.2-1.2-0.4-1.8c-0.1-0.3-0.4-0.5-0.5-0.7c-0.2-0.3-0.1-0.6-0.2-0.8c-0.2-0.4-0.6-1.1-0.7-1.6
			c0-0.4,0.1-0.8,0.1-1.1c0-0.2-0.3-1.2-0.3-1.7c0.1-0.4,0.3-1,0.2-1.6c-0.2-1.1-0.2-3.4,0.2-4.7c0.2-0.7-0.1-1.7,0.1-2.6
			c0.7-2.7,1.1-5.4,2.1-7.6c0.1-0.2,0.4-0.3,0.5-0.5c0-0.2,0.1-0.3,0.1-0.5c0.1-0.3,0.5-0.5,0.6-0.8c0.2-0.3,0.3-0.8,0.5-1.1
			c0.2-0.2,0.4-0.3,0.6-0.5c0.6,0.1,0.4,0.4,0.8,0.7c0.4,0.3,1.1,0.6,1.7,0.7c0.7,0.1,1.5-0.3,2.1-0.4c1-0.3,2.4-0.6,3.1-1.5
			c0.1-0.1,0.1-0.3,0.2-0.4c0.3-0.3,0.8-0.7,1-1c0.2-0.3,0.2-0.7,0.4-1c0.2-0.3,0.5-0.6,0.7-0.9c0.3-0.7,0.4-1.8,0.7-2.3
			c0.2-0.2,0.6-0.5,0.9-0.3c0.2,0,0.4,0,0.5,0.1c-0.1,0.3-0.2,0.5-0.3,0.7c0,0.8,0.1,1.1,0.4,1.6c0.2,0,0.2,0,0.3-0.1
			c0.5-0.2,1.2-1.9,1.5-2.4c0.8,0,1.4,0.3,2.1,0.3c0,0,0.1,0.1,0.1,0.1c-0.1,0.4-0.4,0.7-0.5,1c-0.1,0.3,0,0.4-0.1,0.6
			c0,0.4,0.1,0.4,0.3,0.7h0.8c0,0,1.2-1.7,1.2-1.7c1,0.2,1.6,0.9,2.4,1.1c-0.1,0.3-0.7,1.2-1,1.4c0,0.5,0.3,0.6,0.5,0.9
			c0.6-0.1,1.1-0.6,1.4-1c0.9,0,1,0.8,1.7,1.1c-0.1,0.5-0.6,0.6-1.1,0.7c0.1,0.2,0,0.1,0.1,0.2c0,0.6,0.1,0.7,0.3,1
			c0.4,0,0.9-0.1,1.1-0.3c0.6,0,0.8,0.5,0.9,1c-4.2,0.6-6.3,3.6-7.9,6.8c-0.6,1.2-1.4,3.1-0.7,4.7c0.2,0.4,0.6,0.5,0.9,0.8
			c1.6-0.1,4.5-2,5.6-2.8c0.6-0.4,0.9-1.1,1.5-1.5c0.9,0,1.7-0.1,2.6-0.1c0,0.4,0.2,2.5,0.3,2.7c0,0.2,0,0.2-0.1,0.3
			c-0.1,0.1-1-0.1-1.2,0.1c-0.5,0-0.5,0.1-0.8,0.3c0.1,0.5,0.2,0.8,0.4,1.1c0.4,0,0.6,0,1,0.1c-0.4,0.5-0.9,0.9-1.2,1.5
			c-0.3,0.7-0.3,1.8-0.7,2.4c-0.1,0.2-0.3,0.1-0.4,0.2c-0.2,0.1-0.2,0.4-0.3,0.5c0,1.4,2,1,2.9,1.7
			C374.4,279.9,373.5,281.2,373.8,281.9L373.8,281.9L373.8,281.9z M383,238c0.9-0.3,1.7-0.9,2.6-1.4c0.1-0.4,0.3-0.8,0.3-1.1
			c0.3-1.2-1.1-3-1.8-3.3c-0.5-0.2-1.2,0-1.5,0c-0.2,0.2-0.4,0.1-0.7,0.2c-0.4,0.1-1.1,0.7-1.3,1C379.9,234.7,381,238.5,383,238z
			 M472.4,238.5c0.5-0.3,0.7-1,1.1-1.3c0.2-2.4-0.3-2.3-1.8-3.2c-0.5-0.3-0.6-0.4-1.4-0.4c-0.2,0.1-0.6,0-0.8,0.1
			c-0.5,0.3-1.1,1.3-1.3,1.8c-0.3,0.7,0,1.5-0.4,1.8c0.1,0.6,0.6,1.3,1,1.7C469.5,239.4,471.5,239,472.4,238.5z M470,234.7
			c0.2,0,0.2,0,0.3-0.1c0.7,0,1.5,0.5,1.9,0.9c0.2,0.1,0.1,0.7,0.1,1.2c-0.3,0.4-0.7,0.8-1.1,1c-0.4,0.2-1,0-1.3,0.3
			c-0.5,0-0.6-0.2-1-0.4C468.8,236.4,469.5,235.6,470,234.7z M360.8,234.8c-0.7,1-0.1,2.8,0.4,3.6c0.2,0.3,0.7,0.5,0.9,0.9
			c0.5,0,1,0.1,1.5,0.1c0.6-0.2,1.2-0.7,1.8-1c0.6-1.4,1.2-3.7-0.6-4.3c-0.9-0.1-1.8-0.2-2.7-0.3C361.7,234,361.1,234.4,360.8,234.8
			z M440.8,248.5c-0.2,0.2-0.5,0.3-0.7,0.4c-0.4,0-0.5-0.1-0.7-0.3c-0.3,0-0.5,0-0.7,0.2c-0.2,0.1-0.2,0.3,0,0.5
			c0.1,1,0.8,1.1,1.4,1.7c0.6,0,1.4-0.3,1.7-0.4c0-0.4-0.1-0.9-0.1-1.3C441.4,248.9,441.3,248.7,440.8,248.5z M384.1,252.9
			c0.3-0.4,0-1.4-0.1-1.7c-0.5-1.5-2-1.9-4-1.8c-0.5,0.4-1.4,0.6-1.9,0.9c-0.6,1.5,0.2,3.5,1,4.6
			C380.5,255.4,383.6,254.1,384.1,252.9z M379.3,251.3c0.1-0.4,0.5-0.4,0.8-0.7c0.5,0,1.6,0.2,1.7,0.1c0.4,0.1,0.8,0.4,1,0.7
			c0.1,0.1,0,0.3,0.1,0.4c0,1-0.5,0.9-1.1,1.3c-0.2,0.1-0.4,0.4-0.6,0.5c-0.4,0.2-0.5-0.1-0.7,0.2c-0.5,0-0.7-0.1-1-0.3
			C379.2,253.1,379,251.8,379.3,251.3z M446.4,251.7c-0.2-0.3,0-0.6-0.3-0.8c-0.3-0.3-0.7-0.1-1.1-0.3c-0.4-0.2-0.4-0.4-1-0.4
			c-0.2,0.3-0.3,0.3-0.2,0.6c0,1.4,1.3,1.4,2.2,1.9c0.2,0.3,0.4,0.6,0.6,0.9c0.5,0,0.5-0.1,0.8-0.3c0-0.3-0.1-0.6-0.1-0.8
			C447,252.3,446.5,251.9,446.4,251.7z M476.8,252.6c0.1,0.4,0.3,0.5,0.7,0.6v0.3c1,0,1.6-0.4,2.4-0.4c0-0.2,0-0.2,0.1-0.3
			c0.1-0.1,0.9-0.2,1.1,0c0.3-0.1,0.3,0,0.3-0.3c0.5,0.2,1,0.1,1.3-0.3c0.3,0.2,0.8,0.2,1,0l0.3-0.3c0-0.4-0.2-0.5-0.1-0.7
			c-0.1-0.6-0.6-0.6-1-1c-1.9,0-4.8,0.8-6.4,1.5c0,0.1-0.1,0.1-0.1,0.3h0.3C477.1,252.3,477.1,252.5,476.8,252.6z M454.4,254.3
			c-0.4,0.3-1,0.2-1.4,0.5c-0.5,0.4-1,2.6-0.4,3.3c0.2,0.5,0.9,1,1.4,1.1c0.4,0.3,1.4,0,1.7-0.2c0.2-0.1,0.3,0,0.4,0
			c0.7-0.2,1.7-1.2,1.6-2.2C457.5,255.5,456.2,254.4,454.4,254.3z M465.1,259.1c2,0.5,3.3-0.5,4.6-1.5c0-0.4,0.1-0.5,0.2-0.7
			c0.1-0.5-0.4-1.1-0.5-1.4c-0.4-0.1-0.6-0.3-1-0.4c-0.5-0.1-1-0.1-1.5-0.2c-0.3,0.3-1,0.3-1.3,0.5c-0.6,0.2-1.3,2-0.9,3
			C464.8,258.7,465,258.6,465.1,259.1z M465.8,257.2c0.1-0.5,0.6-0.5,0.9-0.9c0.4,0,1.2-0.1,1.5,0.1c0.4,0.1,0.4,0.3,0.3,0.4
			c-0.3,0.9-1.6,1.3-2.7,1.1l-0.1-0.1C465.8,257.5,465.7,257.4,465.8,257.2z M427.6,260.1c-0.6-0.3-1.4-0.2-1.9-0.3
			c-0.3,0.2-0.7,0-1.1,0.2c-0.3,0.1-0.5,0.4-0.7,0.5c-0.2,0.1-0.3,0-0.4,0.2c-1.2,1.6-0.2,5.6,2.5,5.2c1.6-0.3,2-0.9,3.1-1.7
			C429.1,262.3,428.6,260.6,427.6,260.1z M436.3,343.6c-0.2-0.4,0-0.8-0.2-1.3c-0.1-0.2-0.4-0.4-0.5-0.5c-0.2-0.2-0.1-0.6-0.3-0.8
			c0.2-0.4,1.5-0.7,2-1c1.3-0.6,2.5-1.2,3.6-2c2.3-1.7,3.8-3.9,5.2-6.6c0.2-0.3,0-0.6,0.2-1c0.4-0.8,0.8-1.7,1.1-2.5
			c1.8-0.6,2.9-1.2,3.5-3c0.2-0.6-0.1-1.4,0.1-1.7c-0.2-0.6-0.7-1.3-1.2-1.6c0-0.4,0.3-0.5,0.3-0.7c0.1-0.2-0.2-0.4-0.1-0.7
			c0.2-0.9,0.3-1.9,0.3-2.8c0.1-1.1-0.2-2.5-0.2-3.6c0-0.8,0-2.2-0.3-3.2c0-0.5-0.1-1-0.1-1.5c-0.3-1.3-0.4-2.9-0.7-4
			c-0.8-3.4-3.1-8.6-5.5-10.3c-0.4-0.3-0.8-0.4-1.2-0.7c-0.5-0.4-1-1-1.6-1.4c-0.3-0.2-0.6-0.2-1-0.3c-0.5-0.2-1.1-0.8-1.6-1
			c-0.8-0.3-1.3-0.3-2.2-0.5c-0.2-0.1-0.4-0.3-0.5-0.3c-1.1,0-2.3-0.1-3.4-0.1c0,0-0.4,0.2-0.4,0.2c-2-0.3-3.5,0.4-5.2,1
			c-1.8,0.7-3.1,1.3-4.5,2.3c-0.2,0.1-0.4,0.1-0.5,0.2c-0.3,0.2-0.6,0.7-0.9,0.9c-0.4,0.3-1,0.5-1.2,0.9c-0.4,0.5-0.6,1.1-1,1.6
			c-0.1,0.1-0.8,1-0.9,1c-0.1,0-0.2,0.1-0.3,0.1c-0.4,0.5-0.5,1-0.8,1.6c-0.3,0.5-0.9,0.8-1,1.6h-0.2c-0.3-0.6-0.7-1.3-0.9-1.8
			c-1.7-5.4,0.4-10,2.3-14.1c1.7-3.6,3.9-6.8,6.1-9.9c0.3-0.5,1-0.8,1.4-1.2c0.7-0.7,1.2-1.6,2-2.2c0.1,0,0.3-0.1,0.4-0.1
			c0.8-0.5,1.4-0.9,2.3-1.4c0.4-0.2,0.7-0.7,1-0.9c1.3-0.7,3.2-1.5,4.5-1.9c0.7-0.2,1.2-0.1,1.8-0.3c2.4-0.7,5.2-0.3,7.1,0.3
			c0.4,0.1,0.9,0.1,1.3,0.2c0.6,0.3,1.3,0.9,2.1,1c-0.1,1.2-1.9,2.2-2.4,3.1c-2.1,3.3-4.8,6.2-3.5,11.4c0.4,1.5,0.4,2.9,1.5,3.6
			c1.1,0.7,3.6,0.2,4.5-0.3c2.7-1.7,4.2-4.7,5.3-7.9c0.3-0.8,0.3-3.6,0.8-4c-0.1-0.2-0.4-0.5-0.4-0.8c-0.2-0.8-0.1-1.3-0.4-2
			c-0.4-0.9-2.2-2.8-3.1-3.2c0.2-0.7,1.6-1.3,2.2-1.7c0.1-0.1,0.3-0.3,0.4-0.4h0.3c0-0.1,0.1-0.2,0.1-0.3c0.4-0.3,0.8-0.2,1.3-0.3
			c1-0.3,2.2-0.6,3.2-1c0.3-0.1,0.5,0.1,0.7,0.1c1.1-0.1,1.7,0,2.8,0.1c0.2,0.7,0.6,0.3,1.1,0.6c0.4,0.2,0.9,0.9,1.3,1.2
			c-0.1,0.5-1.3,1.6-1.6,2.1v0.3c-0.1,0.2-0.5,0.5-0.7,0.8c0,0.1,0.1,0.2,0.1,0.3c-0.1,0-0.2,0.1-0.3,0.1c-0.1,0.2-0.6,1.3-0.6,1.4
			c0,0.1,0.1,0.3,0.1,0.4c-0.1,0-0.2,0.1-0.3,0.1c0,0.2-0.1,0.4-0.1,0.6c-0.2,0.5-1,2.2-0.6,3h0.2c0,0.2,0.1,0.5,0.1,0.7
			c0.2,0.3,0.4,0,0.6,0.7c0.4,0,0.8-0.1,1.1-0.1c0.3,0.1,0.5,0.4,1,0.2c0.9-0.3,1.2-1.2,1.7-1.9c1.6-2.3,2.7-5.3,1-8.5
			c0.9-0.6,2.2-1.2,3.3-1.5c0.4-0.1,2.8,0.3,2.9,0.3c0.3,0.1,0.3,0.3,0.7,0.3c-0.1,1.2-0.9,2-1.3,2.9c0,0.3-0.1,0.6-0.1,0.9
			c-0.5,1.4-1,3.4-0.3,4.6c0.9,0.2,2.5-0.1,3.1-0.7c1.7-1,2-6,0.5-7.4c0.1-1,1.5-1.2,2.4-1.5c1.3-0.4,2.7-0.7,4.1-1
			c0.7-0.2,2.2-0.1,2.4-0.2v-0.2c0.3-0.1,1.7,0.1,2,0c0.9-0.2,1.9,0.6,2.4,0.3c0.2,0.1,0.1,0,0.2,0.3c0.3,0,0.2,0.1,0.3,0
			c0.6,0.3,2.3,2.2,3,1.8c0.2-0.1,0.2-0.3,0.3-0.5v-0.7c-0.1-0.2-0.4,0-0.7-0.2c-0.1-0.1-0.2-0.3-0.3-0.4c-0.2,0-0.3-0.1-0.5-0.1
			c-0.1-0.1-0.1-0.4-0.3-0.4c-0.2-0.2-0.5-0.1-0.7-0.3c-2.9-1.8-9-0.6-12.1,0.4c-0.9,0.3-1.7,0.2-2.4,0.7c-0.2,0.1-0.3,0.4-0.4,0.5
			c-0.3,0.2-0.4,0.1-0.6,0.3c-1-0.1-1.8-0.7-2.8-0.8c-2.5-0.3-4.3,0.9-6,1.6c-0.8-0.7-1.8-1.4-2.9-1.8c-3.3-1.4-8.3,0.3-10.5,1.8
			c-0.3,0.2-0.6,0.7-0.9,1c-0.5,0.3-0.8,0.3-1.1,0.8c-1.2,0-1.4-0.5-2.2-0.9c-1.6-0.7-5.2-1.7-6.9-1.4h-1.4
			c-2.6,0.7-5.2,1.2-7.3,2.4c-0.8,0.4-1.6,1.2-2.4,1.7c-0.6,0.4-1.2,0.5-1.7,1c-0.6,0.5-1,1.3-1.6,1.7c-1.1,0.9-2.2,1.8-3.1,2.9
			c-0.2,0.3-0.2,0.6-0.4,0.9c-0.2,0.3-0.7,0.6-0.9,0.9l-0.3,0.8c-0.2,0.2-0.5,0.4-0.7,0.6c-0.2,0.3-0.2,0.8-0.4,1.1
			c-0.3,0.4-0.8,0.9-1,1.3c-0.3,0.5-0.4,1-0.7,1.6c-0.2,0.3-0.6,0.7-0.8,1c-0.3,0.5-0.4,1-0.6,1.6c-0.1,0.2-0.4,0.4-0.4,0.5
			c-0.2,0.3-0.2,0.7-0.2,0.9c-0.3,0.3-0.6,1-0.8,1.4c0,0.1,0.1,0.2,0.1,0.3c-0.2,0.4-0.5,0.9-0.6,1.4c0,0.3-0.1,0.6-0.1,1
			c-0.3,0.9-0.8,2.5-0.7,3.8c-0.1,0.1-0.3,0.1-0.3,0.3c0.1,1.2,0.4,2.5,0.8,3.6c0.2,0.6,0.1,1.1,0.3,1.7c0.3,0.7,0.8,1.4,1,2.2
			c0.2,0.6-0.9,3.6-1,4.2c-0.2,0.6-0.1,1.6-0.2,2c-0.3,1.6-0.4,3.4-0.8,5.2c-0.1,0.6,0.1,0.9,0,1.6c-0.2,1,0,4,0.3,5.4
			c0,0.2-0.1,0.7,0,1.1c0.5,1.9,0.6,4.3,1.1,5.9c0.1,0.2,0.4,0.4,0.4,0.6c0.1,0.1,0,0.5,0.1,0.8c2.4,4.8,7.3,8.7,12.2,11
			c-0.4,0.6-0.9,1.4-1.2,2c0,0.2-0.1,0.4-0.1,0.6c-0.2,0.7-0.4,1.4-0.8,2c0,0.1-0.3,0.1-0.3,0.2v0.4c-0.1,0.3-0.5,0.9-0.7,1.1
			c0,0.5,0.2,0.5,0.3,0.8h0.9c0.5-0.3,1.3-1.6,1.9-2c0.6-0.4,1.4-0.9,1.8-1.6c0.5,0,0.6,0.1,0.9,0.3c-0.1,0.2-0.2,0.3-0.4,0.3
			c0,0.5,0.2,0.8,0.3,1.2c0.2,0.8,0.2,1.4,0.3,2.2c0,0.4-0.1,0.8-0.1,1.1c0.2,1.4,0,3-0.3,4c-0.1,0.6-0.1,1.1-0.2,1.7
			c-0.2,0.7-0.3,1.6-0.7,2.4c-0.2,0.3-0.5,0.9-0.6,1.3c-0.5,1.7-0.7,4.3-0.9,6.6c-0.1,0.9-0.1,1.8,0,2.6c0,0.3-0.1,0.6-0.1,1
			c0.1,0.4,0,1.1,0.1,1.5c0,0.1,0.2,0.3,0.3,0.4c0.3,1.2-0.2,2.8,0.1,3.9c0,0.6,0.1,1.2,0.1,1.8c0.3,1,0.6,1.8,1,2.6
			c0.2,0.3,0,0.6,0.2,1c1.4,3.2,3.2,6,2.5,9.9c-0.1,0.3,0.1,1-0.1,1.5c-0.4,1.5-1.6,2.2-2,3.6c-0.3,1,0.2,2,0.1,2.8
			c-0.2,1.4,0.4,3.1,0.8,4.1c0.3,0.8,0.2,1.8,0.3,2.4c0.1,0.5,0.5,3.2,0.3,3.5c0,1.4-1.3,1.7-2.4,2.1c-0.3,0.1-1,0.6-1.4,0.3
			c-0.4-0.2-0.3-0.7-0.5-1v-1.1c0.5-0.1,0.9,0,1.1,0.3c0.5,0,0.5-0.2,0.8-0.3c0-0.3,0.1-0.4,0-0.4c-0.1-0.7-0.7-0.7-1-1.1
			c-0.7,0-1.3,0.1-1.7,0.5c-1,1.2-0.5,4.1,1,4.5c0.6,0.4,2.9-0.7,3.5-1c0.8-0.4,1.6-0.8,1.9-1.7c0.4-0.9-0.3-1.6-0.2-2.6
			c0.1-2-0.5-4.8-1.1-6.6l-0.3-3.1c0-0.3-0.1-1,0.2-1.6c0.1-0.2,0.3-0.2,0.4-0.3c0.5-0.5,1-1.7,1.3-2.4c0.4-0.8,0.2-2.2,0.3-2.8
			c0.1-0.5,0.4-1.1,0.2-1.8c-0.2-0.9-0.2-1.7-0.5-2.5c-0.4-1.1-1.1-2.3-1.5-3.3c-0.1-0.4,0-0.5-0.2-0.9c-0.2-0.3-0.5-0.7-0.7-1
			c-0.7-1.4-1.1-3.4-1.4-4.5c0,0-0.1-2.5-0.1-2.6c0-0.1,0.2-0.6,0.2-0.7c-0.4-3.1-0.8-6.9,0-9.6v-0.8c0.2-0.7,0.2-1.4,0.4-2.2
			c0.7-2,1.6-4.5,1.9-6.6c0-0.3-0.2-0.8-0.1-1.2c0.4-1.7,0.2-3.6,0-5.3c0.2-0.4,0.5-0.8,0.7-1.1c1.1,0.2,1.6,1.6,2.6,2
			c0.7,0.3,1.3-0.4,2.1,0.2c0.4,0,0.6-0.1,0.7-0.4h0.3C437.3,345.5,436.8,344.7,436.3,343.6z M472.5,268.2c0.6,1.1,1,3.4,0.3,4.6
			c-0.4,0.6-1,1-1.4,1.5c-0.4,0-0.7,0-1-0.1c0-3.2,0.8-4,1.7-6H472.5z M463.6,268.7c0.2,0.5,0.5,1,0.7,1.6c0.1,0.5-0.1,1.2-0.1,1.7
			c0.1,0.5-0.3,1.2-0.5,1.7c-0.8,1.9-1,3.4-3.3,3.7c-0.2-0.2-0.5-0.4-0.7-0.5c-0.4-2.2,1.7-6,2.6-7.3l0.8-0.8L463.6,268.7
			L463.6,268.7z M447.9,270.4c0.4-0.2,2.1,1.3,2.3,1.8h0.3c0.1,0.6,0.4,0.6,0.6,1c0.3,0.6,0.4,1.5,0.6,2.1c0.3,1.3-0.2,2.1-0.3,2.9
			c-0.1,0.3,0.1,0.6,0,1c-0.5,1.4-1,2.9-1.8,4.2c-0.3,0.4-0.8,0.8-1,1.2c-0.8,1.3-1.4,1.8-3.1,2.4c-0.4,0.1-1.4,0.5-2,0.1
			c-1.2-0.2-1.7-2.5-2-3.7V282c-0.3-1.5,0.5-2.9,1-4.1v-0.3c0.3-0.6,0.5-1.2,0.9-1.8c0.2-0.4,0.8-0.7,1-1.1c0.3-0.5,0.4-1,0.8-1.5
			c0.2-0.3,0.6-0.4,0.9-0.7C446.6,271.7,447,270.7,447.9,270.4z M446.2,322.7c0.4-0.2,1-0.4,1.2-0.7c1.2,0,1.6,0.9,2.2,1.5
			c0,0.5,0,1.3-0.3,1.7c0,1.1-1.2,1-1.9,1.5c-0.5,0-0.8-0.1-1-0.3C445.4,325.7,446,323.7,446.2,322.7z M434.3,345.7
			c-0.7-0.3-1.3-1.2-1.7-1.7c-0.2-0.3-0.7-0.4-1-0.6c-0.4,0-0.7,0.1-0.9,0.3c-0.4-0.1-0.3-0.3-0.6-0.4c-0.5-0.3-1.1,0-1.4-0.2
			c-0.3,0.1-1.9,1.4-2.1,1.7h-0.2c0.2-0.9,0.7-2.2,1.1-2.8c0.3-0.3,0.5-0.5,0.7-1c0.2-0.1,0.4-0.2,0.5-0.3c0.2,0,1.1,0.1,1.4-0.1
			c0.4,0.1,0.6,0.4,0.9,0.5c0.3,0,0.6,0.1,0.9,0.1c0.3,0.2,0.2,0.5,0.8,0.5c0.3,0.7,0.7,1.4,1,2c0.2,0.4,0.2,1,0.5,1.5L434.3,345.7
			L434.3,345.7z M433.9,337.7c-0.1,0.1-2.2-0.6-2.4-0.8c-0.2,0.1-0.5,0.2-0.7,0.3c-0.1,0.2-0.2,0.6-0.2,0.7c0.1,0.5,0.4,0.5,0.6,0.9
			c0.2,0,0.2,0,0.3-0.1c0.2,0,0.2,0,0.3,0.1c0.1,0.1,0.1,0.1,0.1,0.3c-0.3,0-0.5,0.1-0.7,0.1c-0.1,0-0.2-0.2-0.3-0.2
			c-0.7,0.1-2.1,0.7-2.8,0.1c-0.4,0.1-0.4,0.1-0.4,0.5c-0.8-0.2-1.6-0.5-2.2-1c-0.1-0.1-0.2-0.2-0.3-0.3c-0.2,0-0.3-0.1-0.5-0.1
			c-0.4-0.2-0.8-0.6-1.1-0.9c-0.5-0.3-1-0.4-1.5-0.8c-0.2-0.2-0.4-0.6-0.6-0.8c-0.4-0.3-0.8-0.4-1-0.8c-0.2-0.3-0.4-0.7-0.7-0.9
			c-0.9-0.7-1.8-1.3-2.4-2.3c-0.5-0.8-1.1-1.8-1.5-2.6c-0.4-0.7-0.4-1.5-0.8-2.2c0.1-0.2-0.5-3-0.5-3.3c-0.3-1.5-0.8-4-0.5-5.4
			c0.1-0.4-0.3-0.8-0.3-1.2c0.1-0.8,0-1.7,0.2-2.6c0.2-0.6,0.5-1.6,0.4-2.3c0-0.7-0.1-1.7,0.1-2.4c0.2-0.8,0.5-2,0.7-2.9v-0.7
			c0.2-0.5,0.5-1,0.5-1.7c0.5,0.2,0.7,0.7,1,1.1c0.7,1,1.5,1.9,2.3,2.9c0.5,0.7,1.3,1.2,2,1.7c0.8,0.6,1.6,1.5,2.4,2.1
			c0.2,0.1,0.5,0,0.7,0.2c0,0.1,0.1,0.2,0.1,0.3c0.1,0.1,0.7,0.6,0.9,0.7c1,0.7,2.3,1.1,3.5,1.5c1.2,0.4,3.6-0.1,4.4-0.5
			c0-0.2,0-0.3-0.1-0.4c-0.9,0-2.5,0.5-3.1,0.3c-0.9-0.2-1.8-0.6-2.5-0.8h-0.5c-0.1-0.1-0.1-0.4-0.3-0.4h-0.4l-0.6-0.6
			c-0.5-0.3-0.9-0.5-1.4-0.8c-0.2-0.3-0.5-0.5-0.7-0.8c-2-1.4-3.5-2.8-5-4.7c-0.3-0.2-0.5-0.5-0.8-0.7c-0.5-0.7-0.7-1.4-1.2-2
			c0.1-1.5,2.4-5.1,3.5-5.9c0.2-0.1,0.4-0.1,0.6-0.3l0.9-0.9c0.2-0.1,0.5-0.1,0.7-0.3c0.7-0.7,1.2-1.3,2.4-1.6c0,0,0.1,0.1,0.1,0.1
			c0,0.3,0,0.3-0.2,0.4c0,0.7,0.2,0.7,0.6,1c1.1-0.1,1.3-1.3,2-1.7c0.5-0.3,1.9-0.4,2.4-0.6c0,0,0.1,0.1,0.1,0.1
			c0,0.3-0.1,0.6-0.3,0.8c0,0.5,0.4,0.7,0.8,0.8c0.5-0.6,1.4-0.8,1.8-1.5c0.8,0,1.5,0.1,2.1,0.2c0,0.4-0.2,0.7-0.3,1
			c0,0.3,0,0.4,0.1,0.6c0.2,0,0.5,0.1,0.8,0.1c0.3-0.3,0.6-0.8,1-1c0.3-0.1,1.8,1,2.3,1.2c-0.1,0.3-0.1,0.4-0.3,0.5
			c0,0.5,0.1,0.7,0.3,1c0.5,0,1.3-0.3,1.6-0.6c0.8,0,1,0.5,1.5,0.9c-0.1,0.5-0.5,0.8-0.8,1.1c0,0.6,0.1,0.6,0.3,0.9
			c0.9-0.1,1.2-0.7,2.1-0.8c0,0.3,0.1,0.6,0.3,0.8c0,0,0,0.3,0.1,0.2l0.1-0.1c-0.1,0.4,0.3,1.6,0.4,1.7c-0.1,0.3-1.4,1.1-1.7,1.1
			c0,0.6,0,0.5,0,1l0.1,0.1c0.7,0,1.1-0.1,1.4-0.4c0.9,0.1,0.7,1.4,1,2c0,0.3,0,0.5-0.1,0.6c-0.2,0.1-1.8,0.5-2.1,0.5
			c0.1,0.5,0.2,0.9,0.3,1.2c0.5,0,1.5-0.1,1.9-0.3h0.2c0.2,1,0.2,2.3,0.2,3.5c-0.8,0.1-1.2,0.5-1.7,0.9c0,0.3,0,0.5,0.1,0.6
			c0.1,0.3,0.1,0.3,0.3,0.3c0.3,0.1,1-0.3,1.3-0.1h0.2c-0.1,0.8,0.7,3.2,0.3,3.9c-0.2,0.3-1.1,0.2-1.5,0.1c-0.6,0.6-0.7,0.7-0.2,1.5
			c0.4,0.1,1.3,0.2,1.7,0.3c0,0.8-0.5,3.5-0.3,3.8v0.2c-0.5-0.1-1.5-0.4-1.9-0.1c-0.5,0.2-0.3,0.4-0.4,0.7c0.1,1.1,1.4,0.7,2.3,0.7
			c0,0.4-0.1,0.8,0,1.2c0,0.4,0.5,0.9,0.3,1.4c-0.1,0.4-0.5,0.9-0.6,1.4c-0.6-0.1-1-0.5-1.4-0.1c-0.3,0.1-0.2,0.3-0.4,0.5
			c0,0.9,0.4,0.8,1.1,1c0,0.9-0.5,1.3-0.8,1.9c-0.6,0-1.1-0.3-1.5-0.6c-0.6,0-0.7,0.1-1,0.3c-0.1,0.2-0.1,0.4-0.1,0.5
			c0.1,0.4,0.2,0.7,0.4,0.9c0.3,0.1,0.6,0.2,1,0.3c-0.4,0.6-1.2,1.7-1.9,1.9v0.3c-0.3,0-0.3,0-0.4,0.2c-0.3-0.2-0.3-0.4-0.7-0.5
			v-0.3c-0.3,0-0.7-0.1-1-0.1c-0.1-0.3-0.1-0.3-0.3-0.5c-0.7,0-0.7,0.1-1.1,0.3c0,0.7,0.1,0.9,0.3,1.3c0.4,0.1,0.8,0.3,1.2,0.3
			c-0.1,0.7-0.8,0.7-1.4,1C435.4,336.9,434.9,337.5,433.9,337.7z M330.9,264.5c-0.6,0.4-1,0.5-1.4,1c-0.3-0.1-0.2-0.1-0.4-0.2
			c-0.2,0.3-0.6,0.6-0.8,1c-0.4,0.8,0.1,3.4,0.5,4c1.7,0.7,2.8,0.6,4-0.6l0.7-0.7c0.3-0.6,0-1,0.2-1.7
			C334,265.7,332.8,264.5,330.9,264.5z M332.4,267.3c0,1.1-1.2,2.8-2.3,2.3c-0.2,0-0.4,0-0.5-0.1c-0.1-0.4-0.4-0.8-0.4-1.2
			c0-0.3,0.1-0.3,0.1-0.6c0.5-0.2,0.5-0.7,1.1-0.8v-0.3c0.4-0.4,0.5-0.7,1.3-0.7C332.1,266.2,332.8,266.7,332.4,267.3z M357.3,274.7
			c-0.4,0.1-0.5,0.4-1,0.5c0,0.5-0.3,0.7-0.7,0.8c0,0.5,0,0.3-0.2,0.7c0.1,0.2,0,0.7,0.1,1c0.3,0.9,0.9,1.2,1.5,1.7
			c1.8,0,2.1-0.8,3.1-1.4c0.1-0.6,0.2-0.9,0.3-1.5c-0.3-0.3-0.3-0.8-0.5-1C359.6,275.3,357.9,274.5,357.3,274.7z M357.9,278.2
			c-0.8,0-1-0.2-1.1-0.8c-0.1-0.2,0-0.5,0-0.7l0.6-0.6c1,0.2,1.1,0.3,1.7,0.7C359.1,277.7,358.4,277.8,357.9,278.2z M487.1,277.8
			c-0.2,0.1-0.6,0-1,0.1c-0.5,0.1-3.5,0.4-3.8,0.8c-0.7,0-0.6,0.2-1,0.4c0,1.3,1,2,2.3,1.6c0.1,0,0.4-0.3,0.4-0.3
			c0.2,0,0.4,0.2,0.7,0.1c0.5-0.1,1.2-0.2,1.7-0.3c0.7-0.1,1.8,0.2,2.3-0.1c0.6,0,0.9,0,1.1-0.3c0.2-0.2,0.3-0.8,0.1-1
			C489.6,277.7,488.3,277.8,487.1,277.8z M314.1,281.2c1,0.4,2.1,0.9,3.1,1.2h0.7c3.9,1.2,9,1.5,12.1,3.1c1.1,0.3,2.2,0.7,3.3,1
			c0.4,0.1,1.1,0.2,1.4,0c0.3-0.1,0.3-0.4,0.5-0.5c0-0.3,0-0.4-0.1-0.6c-1.2-0.3-2.2-0.2-3.3-0.5c-1.3-0.4-2.8-1.1-4.2-1.5
			c-2.2-0.6-4.6-0.7-6.6-1.4c-0.5-0.2-0.9,0-1.5-0.2c-0.3-0.1-0.8-0.4-1-0.4c-0.8-0.2-1.3-0.1-2-0.3c-1.3-0.4-2-1.2-3.9-1.1
			c-0.1,0.3-0.2,0.5,0,0.8C313,281.1,313.6,281,314.1,281.2z M471,281.7c-0.4,0.2-0.5,0.4-1,0.5c-0.1,0.3-0.3,0.4-0.3,0.6
			c-0.2,0.5,0,1-0.3,1.4v1.3c0.9,2,5.2,0.2,5.6-1.2c0.7-1-0.5-2.4-0.9-3C472.8,281.1,472,281.3,471,281.7z M472.9,284.9
			c-0.3,0.2-0.7,0.1-1,0.3c-0.6,0-1.2,0.1-1.5-0.3c0,0,0.3-1.4,0.3-1.5c0.3-0.6,1.3-0.7,1.7-1.1c0.5,0.1,0.9,0.2,1.2,0.3
			c0.1,0.4,0.2,0.6,0.2,1.1L472.9,284.9z M408.4,283.2c-0.3,0.1-0.8,0.6-1,0.8c-0.5,0.5-0.2,1-0.9,1.4c-0.2,2.1,1.1,4,3.4,3.1
			c0.4-0.2,2-1.2,2.3-1.5c0.3-0.3,0.3-0.8,0.6-1c0-1.5-2.1-3-3.6-3.1C409.1,283.1,408.7,283.1,408.4,283.2z M385.1,286.5
			c-0.3,0.3-0.8,0.3-1.2,0.5c-0.3,0.2-0.3,0.6-0.7,0.7c0,0.5-0.4,1.8-0.1,2.2c0,1.1,0.7,1.2,1,1.8c0.8,0,1.7,0.6,2.4,0.1
			c0.5-0.1,0.4-0.3,0.6-0.7c0.1-0.1,0.4-0.2,0.4-0.3v-0.4c0.3-0.9,0.2-1.1,0.2-2.1C386.9,287.5,386.5,286.8,385.1,286.5z
			 M385.9,290.6c-0.8,0-1.2-0.2-1.7-0.5c-0.1-0.5-0.1-1.2,0.3-1.6c0.1-0.3,0.4-0.3,0.6-0.5c0.3,0.1,0.6,0.1,1,0.2
			c0.1,0.2,0.2,0.5,0.4,0.6C386.4,289.5,386.2,290.2,385.9,290.6z M494,289.8c-0.2-0.5-0.8-0.6-1.5-0.5c-0.4,0.5-1.9,0.3-2.7,0.3
			c-1.2,0-3,0.2-4,0c-0.6-0.1-1.6-0.3-2.3-0.2c-0.8,0.1-2.8-0.2-3.8,0c-2.6,0.6-5.7,0-8,0.4c-2.3,0.4-3.5-0.4-5.5,0.1
			c-0.3,0.1-0.6-0.1-0.7-0.1c-0.4,0-2.2,0-2.4,0.1c-0.6,0.1-1.2-0.2-1.7-0.1c-1.8,0.3-3.8,0.1-5.2,0.3c-0.3,0.1-0.6-0.1-1,0.1
			c-0.2,0.1-0.2,0.1-0.3,0.3c0,0.3,0,0.5,0.1,0.7c1.9,0,3.4-0.2,5-0.3c0.6-0.1,1.5,0.1,2,0c0.8,0,1.7,0.1,2.5,0.1
			c0.4-0.1,1,0.1,1.4,0c1.6-0.3,3.6,0.1,5.3-0.3c0.4,0.1,0.8,0.1,1.2,0.2c0.5-0.1,1.4-0.3,2-0.3c1.8-0.2,3.6,0.3,5.2-0.1h3.1
			c3,0,5.2,0.5,7.3,0.2c0.9-0.1,2.9,0.4,3.4,0.1c0.3-0.1,0.3-0.4,0.6-0.5C494,289.9,494,289.9,494,289.8z M324.4,293
			c-0.2,0.2-0.1,0.5-0.3,0.9c-0.4,1-0.8,2-0.1,3.1c0.3,0.6,1,0.8,1.4,1.3c2,0.1,2.2-0.5,3.4-1.3c0-0.7,0.2-1.5,0.5-2
			c-0.1-1.6-2-2.7-3.9-2.6C325.1,292.6,324.7,292.7,324.4,293z M397.3,298.2c-0.3-0.1-0.8-0.4-1.4-0.3c-1.3,0.3-3.9,1.9-4.5,2.9
			c-0.8-0.1-1.4-1.4-1.8-1.9c-0.9-1.1-2.9-2.2-4.7-2.4c-0.3,0.2-0.9,0-1.2,0.2c-0.7,0.3-1.4,0.9-1.7,1.6c-1.2,2.3-0.5,5.2,0.3,7.3
			v0.8c0,0.3,0.1,0.5,0.2,0.7c0,0.2-0.1,1-0.1,1.2c0.2,0.9,0.5,2,0.7,2.8c0.2,0.6,0,0.9,0.2,1.5c0.2,0.5,0.6,1.2,0.7,1.7
			c0,0.1-0.1,0.3-0.1,0.4c0.2,0.7,0.8,1.7,1,2.4c0.4,1,0.5,1.9,1,2.7c1.5,0,3.5-2.6,4.4-3.5c2.8-2.8,5.7-5.4,8-8.7
			c0.5-0.7,1.2-1.3,1.7-1.9c0.3-0.4,0.6-1.1,0.8-1.5c0-0.1-0.1-0.2-0.1-0.3c0.1,0,0.2-0.1,0.3-0.1c0.1-0.2,0.1-0.6,0.2-0.7
			c0.2-0.7-0.3-1.6-0.5-2C399.4,299.4,399.3,298.9,397.3,298.2z M397.5,301h0.2v0.2h-0.2V301z M396,302.6v0.4
			c-0.1-0.1-0.2-0.1-0.3-0.2h-0.1c0.1-0.2,0.1-0.1,0.2-0.3L396,302.6L396,302.6z M395.6,299.3L395.6,299.3l0.1,0.2h-0.1V299.3z
			 M395,305.1c0.3,0.1,0.3,0.2,0.5,0.3c0.1,0.1,0,0.1,0.1,0.2v0.1c-0.3-0.1-0.3-0.2-0.6-0.3L395,305.1L395,305.1z M393.1,303.1
			c0.2,0.1,0.4,0.1,0.7,0.2c0,0,0.1,0.1,0.1,0.1v0.2l-0.8-0.3V303.1z M388.7,303.1C388.7,303.1,388.7,303.1,388.7,303.1
			c0.1,0,0.2,0.1,0.3,0.1v0.3c-0.2,0-0.2,0-0.3,0.1h-0.3C388.4,303.4,388.6,303.3,388.7,303.1z M387.9,302c0.1,0,0.1,0.1,0.2,0.1
			v0.1h-0.2V302z M386.2,301.4c0.4,0.1,0.4,0.3,0.8,0.4c0,0.3-0.1,0.3-0.2,0.4c-0.5-0.1-0.4-0.3-0.7-0.5
			C386.2,301.5,386.2,301.5,386.2,301.4z M386.8,302.8v0.2h-0.4v-0.1c0.2-0.1,0.1,0,0.2-0.1L386.8,302.8L386.8,302.8z M385.1,297.5
			c0.1,0,0.2,0.1,0.3,0.1v0.1h-0.3V297.5z M384.8,297.5h0.2c-0.1,0.2,0,0.1-0.1,0.2c-0.1,0.1-0.2,0.1-0.3,0.2c-0.2,0-0.4,0-0.5-0.1
			H384C384.2,297.6,384.5,297.6,384.8,297.5z M384.4,300.1c0-0.1-0.1-0.1-0.1-0.3h0.3c0,0.2,0,0.2-0.1,0.3
			C384.5,300.1,384.6,300,384.4,300.1z M384.6,301.5v0.2c-0.6-0.1-0.7-0.5-0.5-0.9C384.3,301,384.3,301.3,384.6,301.5z M382.9,303.3
			c-0.1,0.1-0.1,0.1-0.2,0.2h-0.2c0-0.1,0.1-0.2,0.1-0.3C382.7,303.2,382.8,303.2,382.9,303.3L382.9,303.3z M394.9,309.8
			c-1.2,1.6-2.7,2.9-4.1,4.3l-1.7,1.7l-0.2,0.3c-0.9,0.6-1.7,1.2-2.4,2c-0.7-0.1-0.8-1.8-1.1-2.5c-1.1-2.7-1.9-5.7-2.1-8.7
			c0.4,0,0.6,0.2,0.8,0.1c0.3-0.1,0.2-0.2,0.4-0.3c0-1.2-0.8-1.1-1.5-1.5c0-0.2,0-0.2-0.1-0.3v-0.3c0.6,0.2,0.6,0.5,1,0.7
			c0.2-0.3,0.5-0.7,0.4-1c-0.1-0.6-0.3-0.4-0.6-0.7c0,0-0.1-0.1-0.1-0.1c0.1-0.1,0.1-0.1,0.2-0.2c0.2,0,0.6,0.1,0.8,0.2
			c0.4,0,0.5-0.2,0.6-0.4h0.4c0,0.2,0,0.2-0.1,0.3c-0.1,0.3-0.4,0.4-0.7,0.5c-0.1,0.1,0,0.1-0.1,0.2c0,1.4,0.9,0.9,1.4,1.7
			c1.3,0,0.9-0.7,1.6-1.3c0,0,0.9,0.7,1.1,0.9c0.4,0,0.6,0,0.9-0.3c0.1,0.1,0.1,0.2,0.3,0.3c-0.2,0.3-0.7,0.2-0.9,0.4
			c0,0-0.1,0.1-0.1,0.1h0.1c0,0.7,0.5,1.2,1,1.3c0.2,0,0.4-0.2,0.7-0.1c0.3,0.1,0.8,0.5,1,0.7c0.4,0,0.6,0,0.9-0.2
			c0-0.3,0-0.5,0-0.5c0-0.6-0.5-0.8-1-0.9c0.2-0.6,0.2-1.1-0.5-1.3c0.1-0.3,0-0.2,0.3-0.3c-0.1-0.2-0.1-0.2-0.3-0.3v-0.2
			c0.5,0.1,0.6,0.7,1,1c0.6,0.5,2,1.6,2.8,1.8c0.1,0.1,0,0,0.2,0.1c0.3-0.3,0.5-0.3,0.5-0.9c0.6,0.2,1.2,0.2,1.7,0.4
			C397.4,307.7,395.6,308.9,394.9,309.8z M398.3,305.6C398.3,305.6,398.2,305.6,398.3,305.6c-0.2,0-1.1-1.3-1.1-1.3
			c-0.3-0.2-0.6-0.2-0.8-0.4c1.1,0.2,1.4,0.9,2.3,1.2C398.6,305.4,398.5,305.4,398.3,305.6z M399.4,303.8c-0.4,0-0.5-0.2-0.8-0.3
			c0-0.2,0-0.4,0.1-0.5c0.3,0,0.4,0.1,0.6,0h0.3C399.5,303.2,399.4,303.5,399.4,303.8z M467.2,301.6c1.6,0.4,3.7-2.2,2.9-3.3
			c0-1.1-1.3-1.7-2.4-1.7c-0.4,0.3-1,0.4-1.3,0.9c-0.2-0.1-0.4-0.2-0.6-0.3c-0.4,0.4-0.5,0.8-0.9,1.2
			C465.1,300,465.8,301.2,467.2,301.6z M466.2,298.5c0.6,0.3,1.2-0.2,1.6-0.6c0.7,0.1,0.9,0.3,1.4,0.6c-0.2,0.4-0.3,1.3-0.8,1.6
			c-0.3,0.2-0.4,0.1-0.6,0.3c-0.3,0-0.6,0-0.7-0.1c-0.6-0.2-0.9-1-1-1.7C466.2,298.6,466.1,298.7,466.2,298.5z M456.9,302
			c0.1,0.3,0.3,0.4,0.3,1c0.4,0.2,0.7,0.4,0.9,0.7c1.4-0.3,2.5-0.4,3.5-1c0.3-0.2,0.4-0.7,0.7-1c-0.1-1.6-0.8-2.8-2.8-2.8
			c-0.4,0.3-1.1,0.2-1.5,0.4c-0.4,0.2-0.9,0.9-1,1.4c0,0.2,0.1,0.4,0.1,0.6C457.1,301.5,456.8,301.6,456.9,302z M458.1,301
			c0-0.3,0.1-0.3,0.2-0.5c0.5,0,1.2,0,1.5-0.3c0.4,0,0.6,0.1,0.8,0.3c0.2,0.1,0.2,0.2,0.4,0.3c0,0.3,0.1,0.4,0,0.6
			c-0.3,0.7-1.8,1.1-2.6,1c-0.1-0.2-0.1-0.2-0.3-0.3C458.1,301.7,458,301,458.1,301z M328.8,305.1c0.4,0,0.8-0.1,1.2-0.1
			c0.5-0.1,1.2-0.4,1.7-0.5c1.1-0.4,2.2-0.5,3.1-0.8c1.5-0.5,2.1,0.5,2.5-1.1c-0.2-0.1-0.2-0.1-0.3-0.3c-2.6,0-4.7,1-6.9,1.6
			c-1,0.3-1.9,0.2-3,0.5c-1.3,0.4-2.9,0.8-4.4,1.2c-1.5,0.4-3.2,0.4-4.5,0.8c-0.9,0.3-2.1,0-3.1,0.3c-0.6,0.2-1.6,0.4-2.1,0.5
			c-0.5,0-0.9,0.1-1.4,0.1c-0.7,0.3-1.5,0.8-2.4,0.9c0,0.3,0,0.5,0.1,0.6v0.2c1,0.1,2.1-0.5,3-0.7c0.7-0.1,1.5-0.1,2.2-0.2
			c0.1,0,0.4-0.3,0.4-0.3c2.3,0,6.2-0.7,8.3-1.4c0.7-0.2,1.2-0.1,1.8-0.3C326.3,305.9,327.6,305.5,328.8,305.1z M388.2,307.1
			c0-0.2,0-0.2-0.1-0.3c-0.1-0.7-0.5-0.5-0.9-0.8c-0.4,0-0.6,0-0.8,0.2v0.7C387.3,307,387.2,307.6,388.2,307.1z M474,306.8
			c-0.3,0.2-0.7,0.2-1,0.4c-0.5,0.3-0.7,1-1.4,1c0.1,0.5-0.3,1-0.1,1.7c0.1,0.5,0.5,0.8,0.8,1.2c1.5,0.1,3.7-0.4,4.1-1.7
			c0.3-0.3,0.3-1,0.3-1.6C475.8,307.2,475.5,306.8,474,306.8z M475.4,308.6c-0.1,1-1.4,1.1-2,1.6c-0.5,0-0.6-0.1-0.9-0.3
			c0-0.2,0-0.3-0.1-0.4v-0.1c0.3-0.1,0.3-0.1,0.7-0.2c0-0.2,0-0.2-0.1-0.3c0.4-0.3,1.1-1.3,1.8-0.9
			C475.2,308.1,475.2,308.4,475.4,308.6L475.4,308.6z M395.4,306.9c-0.3,0.2-1,0.1-1.2,0.3c0,1,0.6,0.9,1,1.4
			c0.4-0.1,0.5-0.2,0.8-0.3C396,307.7,395.8,307.2,395.4,306.9z M389.6,308.5c-0.4-0.4-2.9-1.3-3.7-1.3c-0.1,0.2-0.2,0.3-0.1,0.5
			c0.3,0.7,2.6,1.6,3.5,1.7c0.1-0.1,0.3-0.3,0.4-0.3C389.7,308.8,389.7,308.6,389.6,308.5z M392.4,308c-0.1,0.1-0.4,0.2-0.6,0.3
			c-0.1,0.1,0,0.1-0.1,0.2c0.1,0.5,0.5,0.5,0.6,0.9c0,0.1-0.1,0.3-0.1,0.4c0,0.1,0.3,0.3,0.3,0.4c0.4,0.1,0.9,0.3,1.2,0
			c0.3-0.1,0.2-0.1,0.4-0.3C394.2,309.1,393.2,308.2,392.4,308z M456.8,309.5c-0.5,0-0.3,0.1-0.5,0.4c-0.8,1.2-0.6,1.5,0,2.6
			c0,0.1,0.1,0.6,0.3,0.8c0.2,0.3,0.6,0.3,0.8,0.6c1.5,0.1,2.8,0.4,3.4-1c0.1-0.1,0-0.5,0.1-0.9l0.3-0.8c-0.6-1-1.4-2.1-2.6-2.4
			c-0.7-0.2-1.2,0.3-1.7,0.3V309.5z M389.8,309.4c-0.1,0.1,0,0-0.2,0.1c0,0.8,0.4,1.3,1.1,1.4c0.1,0.1,0.3,0,0.4-0.1
			c0.1,0,0.2-0.1,0.3-0.1c0-0.3,0.1-0.4,0-0.4C391.4,309.6,390.6,309.4,389.8,309.4z M386.6,310.5c-0.1,0.1-0.2,0.1-0.4,0.2
			c0,0-0.1,0.1-0.1,0.1c0,0.8,0.4,0.7,0.9,1c0.5,0,0.7-0.2,0.8-0.6C387.4,310.8,387.2,310.6,386.6,310.5z M390.4,312h-0.7
			c-0.1,0.1-0.1,0.1-0.3,0.1c0,0-0.1,0.1-0.1,0.1c0.2,0.5,0.6,0.7,1,1c0.5,0,0.6-0.1,0.9-0.3c0-0.2,0-0.2-0.1-0.3
			C391,312.3,390.7,312.2,390.4,312z M333.3,315.3c0.1-0.1,0-0.2,0.1-0.3c-0.1-0.6-0.4-0.7-0.7-1c-0.4,0-0.8-0.1-1.2-0.1
			c-0.7,0.6-2.5,0.6-3.3,0.9c-1,0.4-2.2,1.1-3.1,1.7c-0.1,0.2-0.1,0.4-0.1,0.5c0.1,0.5,0.4,0.5,0.6,0.8c0.4,0.1,0.9,0.1,1.3,0.2
			c0.8-0.2,1.7-1.1,2.7-1.4C330.8,316,332.5,316.1,333.3,315.3z M479.6,330.5c-0.9-0.6-1.8-1.3-2.6-2c-0.2-0.1-0.4-0.1-0.6-0.3
			c0-0.1-0.1-0.2-0.1-0.3c-0.2-0.2-0.5-0.2-0.7-0.4v-0.2c-1-0.8-2.2-1.3-3.2-2c-1.9-1.3-3.8-2.8-5.8-4c-0.2-0.1-0.4-0.5-0.6-0.7
			c-0.2-0.2-0.5-0.3-0.7-0.4c-0.5-0.4-0.8-1.1-1.3-1.5c-0.4-0.3-1.5-1.2-1.7-1.6c-0.5,0.1-0.3,0.2-0.6,0.4c0,0.7,0.4,0.7,0.8,1
			c1,1.1,1.9,2.2,3.1,3.1c1.9,1.5,4,3.1,6.1,4.3c0.4,0.2,1.7,1.3,2,1.2c0.2,0.2,0.2,0.5,0.4,0.6c0.7,0.5,1.4,0.9,2.1,1.3
			c0.3,0.2,0.5,0.7,0.8,0.9c0.5,0.4,1,0.5,1.4,0.9c0.1,0.1,0.1,0.1,0.1,0.3c0.8,0.2,2,1.8,2.5,2.4c0.6-0.1,0.7-0.5,1-0.8v-0.2
			C481,332.1,480.4,331.1,479.6,330.5z M472.8,317.4c-0.2,0.2-0.5,0.6-0.7,0.8c0,1.1,1,1.3,1.7,1.7c1.1,0.8,2.4,1.7,3.8,2.2
			c0.8,0.3,1.3,0.1,1.9,0.5c0.4-0.1,0.7-0.5,0.8-0.9l0.1-0.1h-0.1c0-1.3-1-1-1.9-1.4c-0.9-0.4-2-0.9-2.8-1.5
			C474.7,318.2,474.2,317.4,472.8,317.4z M394.5,324.1c2.6,0.1,4-1,3.8-3.8c-1.1-1-1.2-1.3-2.8-1.8c-0.2,0.2-0.5,0.1-0.8,0.3
			c-0.5,0.3-0.9,0.7-1.3,1c-0.1,0.8-0.4,2.3,0.2,3.4L394.5,324.1z M395.2,320c0.3-0.1,0.3,0,0.5-0.2h0.4c0.3,0.4,1.4,0.9,1,1.8
			c-0.3,0.7-1,0.8-1.6,1.3c-0.7,0-0.9-0.6-1-1.2C394.2,321.5,394.9,320.1,395.2,320z M377.9,326.7c0.3-0.4,0.2-0.8,0.4-1.2
			c0.1-0.3,0.5-0.6,0.5-0.9c0.3-1.3-2.1-3.2-3.4-3.1c-0.3,0.3-0.8,0.3-1.1,0.5c-1.1,0.7-1.3,1.5-1.7,3c-0.1,0.4-0.1,1.1,0.1,1.5
			c0.1,0.9,0.6,0.9,0.9,1.5c0.4,0.1,1.1,0.5,1.7,0.3C375.9,328,377.6,327.2,377.9,326.7z M376.9,325.9c-0.4,0.2-1.1,0.6-1.4,1
			c-0.8,0-1,0.1-1.6-0.2c-0.2-0.8-0.2-1.1-0.2-1.9c0.1-0.2,0.3-0.3,0.4-0.5c0.1,0,0.2-0.1,0.3-0.1v-0.4c0.2-0.3,0.7-0.5,1-0.8
			c1.1,0,1.3,0.7,1.9,1.2C377.3,324.8,377,325.2,376.9,325.9z M387.6,329.5c1.3-0.9,1-2.9,0-4c-0.5-0.6-1.7-0.6-2.6-0.5
			c-0.3,0.2-0.9,0-1.3,0.2c-0.5,0.2-0.7,0.7-1.1,1c-0.1,0.7-0.3,1.6,0,2.3C383.3,330.1,385.8,330.8,387.6,329.5z M390.7,331.3
			c-0.7,0.8-1.6,3.2-2,4.4v0.5c0,0.1-0.3,0.3-0.3,0.4c-0.2,0.6-0.1,1.2-0.4,1.7h-0.2c-0.1,0.4-0.1,0.8-0.2,1.2
			c-0.3,0.9-1,2.2-1.3,3.1c-0.3,0.9-0.3,1.6-0.6,2.5c-0.8,2.4-1.4,4.5-2.3,6.6c-0.2,0.4-0.1,0.7-0.3,1.1c-0.2,0.6-0.4,1-0.6,1.5
			c0,0.3-0.1,0.6-0.1,0.9l-0.3,0.3c-0.3,0.5-0.2,1.1-0.4,1.7l-0.3,0.3c-0.2,0.6,0.2,1,0.5,1c0.1,0.1,0,0,0.2,0.1
			c0.3-0.3,0.6-0.3,0.7-0.7c0.1-0.2-0.1-0.3,0-0.7c0.2-0.9,0.4-1.9,0.7-2.7c1.9-5,3.1-9.7,4.8-14.3c0.3-0.8,0.3-1.7,0.6-2.4l0.3-0.3
			v-0.4c0.3-0.7,0.6-1.3,0.9-1.9c0.5-1,0.5-2.3,1.3-3C391.5,331.3,391.2,331.4,390.7,331.3z M478.9,336.3c-1.2-0.5-2.7-1.3-3.6-2.1
			c-0.5-0.4-0.6-0.9-1.4-1c-0.1,0.1-0.3,0-0.5,0.1c-0.3,0.1-0.4,0.6-0.6,0.8c0.4,1.4,3.8,3.4,5.2,4c0.7,0.3,1.8,0.3,2.4,0.7
			c0.5-0.1,0.8-0.4,1-0.9c0.1-0.1-0.1-0.5-0.3-0.7C480.8,336.6,479.5,336.5,478.9,336.3z M459.2,334.9c-0.2,0.3-0.4,1-0.7,1.2
			c0.2,3.7,3.6,2.8,5.2,1c0.2-0.3,0-0.5,0.3-0.9c0-1.8-1.5-2.4-3.4-2.4C460.2,334.4,459.5,334.5,459.2,334.9z M462.3,335.6
			c0.1,0.1,0.2,0.4,0.3,0.6c-0.3,0.7-0.9,0.9-1.5,1.3c-1.1,0-1-0.4-1.5-1c0-0.7,0.2-0.7,0.4-1c0.4,0,0.6-0.1,0.8-0.3
			C461.6,335.3,461.9,335.3,462.3,335.6z M382.2,337.9c0-0.6,0.6-1.6,0.1-2c-0.1-1.6-2.3-1.4-3.5-1.7c-0.1,0.7-0.2,0.2-0.6,0.4
			c0,0-1.2,1.3-1.2,1.4c-0.6,1.1,0.5,2.3,1,3c1.3,0.3,2.8,0,3.8-0.7C382,338.2,382,338,382.2,337.9z M379.3,338.1
			c-0.5,0-0.6-0.1-0.9-0.3c-0.3-0.4-0.3-0.8-0.3-1.2c0.4-0.4,1.1-0.4,1.5-0.8h1c0.2,0.2,0.4,0.3,0.6,0.5
			C380.8,338.2,380.4,337.3,379.3,338.1z M453.6,339.7c0.4-0.3,0.2-0.7,0.3-1.3c0.3-0.9-0.5-2.9-1.2-3.3c-0.4-0.3-1.1-0.4-1.8-0.3
			c-0.3,0.1-0.6,0.2-1,0.3c-0.7,0.4-2,1.4-1.7,2.8c0.1,0.4,0.1,0.7,0.1,1.2c0.4,0.4,0.7,1.1,1.2,1.4
			C450.5,341.1,453.2,340.6,453.6,339.7z M394.3,344c0.1-0.5,0.1-1.6-0.1-1.9c-0.1-0.5-0.4-0.5-0.6-0.8c-0.6,0-0.9,0-1.4,0.1
			c-0.1,0.3-0.3,0.4-0.3,0.6v1.4c0,0.8-0.1,1.5-0.3,2.4c-0.1,0.6,0.1,1.2-0.3,1.7c0,0.7,0.1,1,0.6,1.1c0.3,0.2,0.9,0.2,1.4,0.2
			c0.2-0.2,0.4-0.3,0.6-0.5C394,347,394.1,345.2,394.3,344z M450.6,348.1c-0.8-0.2-1.4,0-2.1,0.1c-0.1,0.6-0.6,0.7-0.9,1.1
			c-0.6,1-1,2.8-0.1,3.8c1.3,1.8,4.8-0.1,5.2-1.5c0.1-0.2,0-0.3,0-0.6c-0.1-1.6-0.5-1.2-0.9-2.1c0-0.1,0.1-0.1,0.1-0.3
			C451.3,348.5,451.1,348.3,450.6,348.1z M448.6,352.3c-0.1-0.3-0.4-0.9-0.3-1.2c0-0.3,0.2-0.5,0.2-0.8c0.2-0.2,0.9-0.6,1-0.9
			c0.2,0,0.3,0,0.4-0.1c0.8,0.2,1.1,0.8,1.7,1.3C451.6,352,449.8,352.9,448.6,352.3z M473.4,349.8c-0.5-0.1-1-0.1-1.6-0.2
			c-0.8,0.6-2,0.7-2.3,1.7c-1.1,1.6,1.5,3.6,3.3,3.1c1.5-0.4,1.5-1.2,2.4-2.2C475.1,351.3,474.1,350.1,473.4,349.8z M334.4,355.3
			c-0.5-0.2-1.1,0.3-1.7,0.3c-0.1,0.6-0.7,0.8-1.1,1.1c-0.5,0.4-1.1,0.9-1.7,1.2c-0.5,0.3-0.9,0.3-1.4,0.5c-0.2,0.1-0.3,0.5-0.5,0.6
			c0,0.3,0,0.2-0.1,0.4c0.1,0.1,0.2,0.2,0.3,0.3c0.4,0.1,0.9,0.4,1.5,0.3c0.6-0.1,0.9-0.5,1.3-0.8c0.5-0.4,1.3-0.5,1.8-0.9
			c0.9-0.6,1.7-1.4,2.5-1.9c0.1-0.1,0-0.1,0.1-0.2C335.5,355.6,335,355.4,334.4,355.3z M348.6,357.3c-0.6-0.4-2.7-2.4-3.9-1.5
			c-1.2,0.1-2.9,2.3-2.5,3.8c0.1,0.5,0.4,0.9,0.5,1.3c0.1,0,0.3,0.1,0.4,0.1c0.1,0.4,0.4,0.6,0.8,0.7c0.5,0.3,1.6,0.2,2.1,0
			c1.4-0.5,2.2-1.4,2.6-3C348.7,358.2,348.5,357.8,348.6,357.3z M345.5,360.5c-0.8,0-1.4,0-1.7-0.4c-1.1-1.3,1-2.5,1.2-3.1
			c1.1,0,1.4,0.4,2,0.8C347.4,359.4,346.3,359.8,345.5,360.5z M461.5,382.7c-0.3,0.1-1.2,0.1-1.7,0.2c-0.4,0.1-0.8-0.1-1.2-0.2
			c-0.5-0.1-0.9,0-1.3-0.2c-1.5-0.7-2.9-2.1-2.9-4c1.3-0.2,3.6-1.3,4.5-2.1c0.5-0.4,0.7-1.2,1.1-1.6c0-3-2.4-4-5.4-3.1
			c-0.3,0.1-0.5,0.5-0.8,0.6c-0.2,0.1-0.5,0-0.7,0.2c-1.2,0.8-1.7,2.1-1.9,3.9l-0.1,0.1c-0.9,0-2.6-0.9-3.1-1.4
			c-0.3-0.3-0.4-0.9-0.6-1.2c-0.2-0.3-0.7-1.2-0.5-1.7c0-0.2,0-0.2,0.1-0.3c0.6-0.5,1.5-0.4,2.2-0.7c2.2-1,6.3-3.6,3.8-6.6
			c-0.4-0.5-1.8-1.3-3.1-0.9c-2.2,0.7-4,1.8-5,3.8c-0.3,0.9-0.6,1.7-0.9,2.6c-0.4,0.2-1.3-0.4-1.7-0.5c-0.4-0.2-0.7-0.1-1-0.3
			c-0.6-0.3-1.5-1.4-1.7-2.1c0-0.4-0.1-0.8-0.1-1.2c-0.1-0.5,0.1-1.5,0.3-2.1c0.2-0.6,0-1.1,0.3-1.7c0.7-1.7,1.6-3.3,3.1-4.3V357
			c-2.5-0.4-4.7,2.4-5.3,4.5v0.6c-0.1,0.2-0.4,0.7-0.4,1v0.7c-0.2,0.7-0.7,2.3-0.3,3.2c1.1,2.8,3.4,4.9,6.9,5.2
			c0.6,2.6,1.9,4.6,4,5.7c0.7,0.3,1.6,0.6,2.3,0.8c0.3,0,0.7,0.1,1,0.1c0.3,0.2,0.3,0.8,0.4,1.2c0.3,0.8,0.7,1.7,1.2,2.4
			c1.8,2.5,6.1,3.1,9.5,2c0.6-0.2,0.9,0.1,1.3-0.2c0.1-0.2,0.3-0.4,0.4-0.6c0-1-0.3-1-0.7-1.5C462.7,382.1,462.2,382.5,461.5,382.7z
			 M447.6,368.4c0.5-1.2,1.4-2,2.4-2.5c0.3-0.1,0.5,0,0.7-0.2c0.2,0.1,0.3,0.2,0.3,0.5c0.2,0.4-0.4,1.1-0.6,1.4
			c-0.2,0.3-0.4,0.8-0.7,1c-0.7,0.4-1.4,0.5-2.1,1c-0.2,0-0.3,0-0.4-0.1C447.1,369.2,447.5,368.7,447.6,368.4z M454,376.3
			c0-0.8,0.2-1.1,0.3-1.7c0.9-0.5,1.7-1.6,2.9-0.8c0,0.2,0.1,0.3,0.1,0.5C456.2,375.4,455.8,376.2,454,376.3z M397.2,359.5
			c-0.3,0.2-0.7,0.1-1,0.2c-0.7,0.2-1.5,0.6-2.1,1c-0.2,0.6-0.8,1.7-0.5,2.6c0.4,1.5,2.6,2.1,4.3,1.5c0.7-0.3,1.8-1.1,2.1-1.7
			C400.7,361.1,398.9,359.5,397.2,359.5z M342.6,367.7h-0.7c-1.5,1.1-2,2.6-3.1,4.2c-0.6,1-1.5,1.9-2.3,2.8c0,1.6,1.6,1.2,2.4,0.8
			c0.5-1.3,1.5-2.2,2.2-3.2c0.1-0.2,0.1-0.4,0.2-0.6c0.1-0.3,0.5-0.5,0.7-0.8c0.2-0.3,0.2-0.5,0.3-0.8c0.2-0.4,1.2-1.2,0.9-1.7
			C343.1,368,342.8,368,342.6,367.7z"/>
	</g>
</g>
<g>
	<g>
		<path class="st1" d="M414.3,260.9c0.3-1.3,1-2.5,1-4c-0.8-0.1-1.4-0.5-1.8-1c0.1-0.2,0-0.2,0.1-0.5c0.9-0.7,0.9-0.1,2.2,0l0.1-0.1
			c0.1-1,0.8-1.9,0.7-2.9c-0.7-0.2-1.2-0.2-1.2-1.2c-0.1-0.1-0.1,0,0-0.2c0.3-0.7,1-0.4,1.7-0.6c0.1-1.3,0.5-2.8,0.5-4
			c-0.8-0.3-1.8-0.3-1.9-1.2c0.1-0.1,0,0,0-0.3c0.4-0.2,0.4-0.4,1-0.3c0.3,0.2,0.7,0.3,0.9,0.2c0.2-0.4,0-3.3,0-3.3
			c-0.5,0.2-1.2,0.2-1.7-0.2c-0.2-0.2-0.3-0.3-0.3-0.7c0.1-0.1,0.1-0.3,0.2-0.3c0.2-0.2,0.3-0.3,0.7-0.3c0.3,0.3,0.8,0.3,1,0.2
			c0.1-0.2,0.1-0.6,0.1-0.9c-0.2-0.4-0.3-1.6-0.3-2.4c-0.2-0.1-0.1-0.2-0.3-0.3c-0.6-0.4-1.4,0.2-2.1,0.3c-0.2-0.3-0.3-0.4-0.3-0.8
			c0.1-0.1,0.1-0.3,0.2-0.5c0.4,0,1.4-0.4,1.6-0.6c-0.4-0.6-0.4-1.5-1.4-1.6c-0.2,0.2-0.6,0.2-1,0.2c-0.1-0.2-0.2-0.1-0.3-0.3
			c-0.1-0.2-0.1-0.4-0.1-0.8c0.2-0.1,0.6-0.3,0.7-0.5c-0.2-0.2-0.3-0.5-0.4-0.8c-0.3-0.2-0.5-0.5-0.8-0.7c-0.3,0-0.5,0-0.5,0
			c-0.4,0.2-0.5,0.5-1,0.6c-0.1-0.1-0.2-0.2-0.3-0.3c-0.1-0.7,0.1-1.3,0.3-1.7c-0.8-0.4-1.3-0.8-2.4-0.9c-0.6,0.6-1.1,1.5-2.1,1.6
			c-0.1-0.1,0,0-0.2-0.1c-0.1-0.3-0.2-0.5-0.3-0.7c0.2-0.1,0.7-1,0.8-1.2c-0.3-0.1-0.3-0.2-0.4-0.3c-0.5,0-1-0.1-1.5-0.1
			c-0.2-0.1-0.4-0.3-0.7-0.4c0,0.4-0.2,0.8-0.5,0.9c-0.3,0.2-0.8,0.4-1.3,0.4c-0.2-0.3-0.3-0.2-0.3-0.6c-0.6,0-3.1,1.1-3.4,1.4
			c-0.3,0.3-0.4,0.7-0.7,1c-0.5,0.5-1.1,1-1.6,1.5c-0.2,0.2-0.3,0.6-0.4,0.9c-0.2,0.3-0.6,0.6-0.9,1l-0.3,0.8
			c-0.1,0-0.2,0.1-0.3,0.1c-0.2,0.2,0,0.4-0.2,0.7c-0.1,0.1-0.3,0.3-0.4,0.4c-0.2,0.3-0.1,0.6-0.3,1c-0.3,0.6-0.7,1.4-1,2
			c-0.1,0.3-0.1,0.6-0.2,1c-0.1,0.3-0.5,0.9-0.6,1.2v0.7c-0.5,1.2-0.8,2.2-1.1,3.5c0,0.9-0.1,1.9-0.1,2.8c0,0.1-0.3,0.6-0.3,0.6
			c-0.1,0.3,0.3,0.3,0.3,0.4c0.1,0.2-0.2,0.9-0.1,1.2c0.2,0.9,0.3,1.8,0.5,2.7c0.1,0.3-0.1,0.6,0,1c0.2,0.6,0.7,1.8,0.5,2.4
			c0.3,0.7,0.9,1.5,1.2,2.3v0.4c0.1,0.4,0.5,0.8,0.7,1.1c0.5,1.1,0.8,2,1.5,2.9c0.2,0.2,0.4,0.3,0.6,0.5c0.3,0.4,0.6,0.9,1,1.2
			c0.2,0.2,0.5,0.2,0.8,0.3l0.9,0.9c0.3,0.2,0.8,0.1,1,0.3c1.1,1,3.9,3.6,6,3.3c0.8-0.1,1.2-0.2,2-0.3v-0.1
			c-0.3-0.4-0.8-1.2-0.9-1.7h0.3v-0.3c0.3,0,0.6-0.2,0.9-0.1c0.5,0.1,0.5,0.6,1,0.7c0.6-0.5,1.2-0.7,1.6-1.5
			c-0.3-0.2-0.6-0.3-0.9-0.5v-0.3c-0.3-0.1-0.1,0-0.3-0.2c0.4-0.6,0.4-1.3,1.5-1.3c0.2-0.2,0.7,0,1.1,0v-0.2
			c-0.1-0.1-0.1-0.1-0.2-0.2l0.1-0.1c0.2,0.1,0.2,0.2,0.3,0.1c0.4-0.2,0.8-0.5,0.9-1c-0.5-0.4-0.7-0.8-0.8-1.6
			c0.3-0.2,0.3-0.3,0.8-0.3C413.5,260.6,413.9,260.8,414.3,260.9z M433.3,239.4v-0.2c-0.1,0-0.1-0.1-0.2-0.1
			C433.2,239.3,433.2,239.4,433.3,239.4L433.3,239.4L433.3,239.4z M435.4,240.5c0.2,0.1,0.5,0.2,0.7,0.3v-0.1
			c-0.4-0.1-0.6-0.3-0.9-0.4C435.3,240.4,435.3,240.4,435.4,240.5z M447.1,249.9c-0.2,0.2-0.6,0.2-1,0.2c-0.1-0.2-0.1-0.3-0.4-0.3
			c-0.1,0.3-0.2,0.3-0.6,0.3c-0.3-0.4-0.7-1.1-1.2-1.2c-0.5,0.4-0.9-0.1-1.5-0.2c-0.1,0.2-0.1,0.2-0.4,0.3c-0.1-0.2-0.3-0.2-0.6-0.3
			c-0.1-0.3-0.2-0.9-0.4-1c-0.2-0.1-0.5-0.2-0.6-0.3c-0.2-0.2-0.2-0.5-0.4-0.7c-0.7,0.8-1.8,0.3-2.1-0.4c-0.1-0.1,0.1-0.8,0-1.1
			c0-0.2-0.3-0.5-0.2-0.8l0.3-0.3c0.1-0.3-0.2-0.4-0.3-0.6c-0.1-0.2,0-0.7-0.2-1c-0.2-0.2-0.7-0.3-0.9-0.3c-0.1,0.1,0,0-0.1,0.2
			c0,0.1-0.1,0,0,0.1c0.5,0.7,0.9,0.7,0.9,1.8c-0.3,0-0.5,0.2-0.7,0.1c-0.8-0.2-0.6-0.7-1-1.3c-0.2-0.3-0.7-0.3-0.9-0.5
			c-0.3-0.3-0.2-0.9-0.4-1.2c-0.1-0.1-0.3-0.2-0.5-0.3v0.3c0.5,0.7,0.7,1.6,1.1,2.4c0.7,1.1,1.6,2.6,2.4,3.5c0,0.2-0.1,0.4-0.1,0.6
			c-0.4,0.2-0.6,0.3-0.8,0.7c1.1,0,1.1,0.5,1.7,1c0,0.4,0,0.4,0,0.8c-0.4,0.2-0.7,0.3-1.1,0.1c-0.3-0.6-0.6-0.8-0.5-1.6h-0.3
			c-1.1,1.8-2.3,3.9-3.3,5.5c-0.2,0.3-1,1.8-1,1.9c0.1,0.1,0,0,0.2,0.1c0.6-0.4,1.3-0.4,2-0.7c0.4-0.2,0.9-0.6,1.3-0.8
			c0.2,0,0.5-0.1,0.7-0.1c0.1-0.1,0.1-0.2,0.2-0.3h0.6c0.4-0.1,1.9-1,2-1.3c-0.4-0.3-0.5-0.9-0.5-1.7c0.2-0.1,0.2-0.2,0.6-0.2
			c0.3,0.3,0.8,0.4,1,0.7c0.2,0.3,0,0.6,0.3,0.8c0.4-0.4,1.7-0.8,2.4-0.7c0.2,0.5,1.2,2.1,1.6,2.4v-0.1c0.1-0.1,0.1-0.1,0.1-0.3
			c0.5-0.1,0.5-0.1,1-0.1c0.2,0.2,0.3,0.4,0.5,0.6c0,0.4,0,0.7-0.1,1c-0.2,0.1-0.7,0.2-0.8,0.4c0.6,0.6,1.2,2,1.6,2.8h0.2
			c0-0.8,0.2-1.5,0.3-2.2c0-0.2-0.1-0.4-0.1-0.6c0.4-1.4,0.7-3.2,1-4.6C447.7,250.8,447.6,250.2,447.1,249.9z M440.1,251
			c-0.6-0.5-1.3-0.6-1.4-1.7c-0.2-0.2-0.2-0.4,0-0.5c0.2-0.1,0.4-0.2,0.7-0.2c0.2,0.2,0.3,0.3,0.7,0.3c0.2-0.2,0.5-0.3,0.7-0.4
			c0.5,0.2,0.6,0.4,1,0.7c0,0.4,0.1,0.9,0.1,1.3C441.5,250.7,440.6,251,440.1,251z M446.5,253.5c-0.2-0.3-0.4-0.6-0.6-0.9
			c-0.9-0.5-2.2-0.5-2.2-1.9c-0.1-0.3,0-0.3,0.2-0.6c0.7,0,0.7,0.2,1,0.4c0.4,0.2,0.8,0.1,1.1,0.3c0.2,0.2,0.1,0.5,0.3,0.8
			c0.1,0.2,0.7,0.6,0.9,0.8c0,0.2,0,0.4,0.1,0.8C447,253.4,447,253.5,446.5,253.5z M440,244.1L440,244.1c-0.2-0.3-0.2-0.3-0.4-0.4
			v-0.1l-0.1,0.1c-0.1,0-0.1,0.1-0.2,0.1c0,0.1,0.1,0.1,0.1,0.3H440z M441.1,245.7l0.8-0.3c0.1-0.1,0,0,0.1-0.2
			c-0.1-0.1-0.1-0.2-0.2-0.4c-0.5,0.1-0.5,0.1-1,0.1v0.2C441,245.3,441,245.6,441.1,245.7L441.1,245.7L441.1,245.7z M445.5,245.7
			L445.5,245.7c-0.1-0.1-0.2-0.2-0.3-0.3c0,0.1,0.1,0.2,0.1,0.3L445.5,245.7L445.5,245.7z M446.2,247v-0.2H446
			C446,247.1,445.9,247,446.2,247z M445,248.2c0.1-0.1,0.1-0.2,0.1-0.4c-0.3-0.2-0.5-0.6-0.8-0.7c-0.2,0.5-0.4,1.2,0,1.7
			C444.5,248.6,444.8,248.4,445,248.2z M447.5,248.6c-0.1,0.1-0.2,0.1-0.3,0.2c0,0.3,0,0.2,0,0.5h1v-0.2
			C447.9,248.9,448,248.7,447.5,248.6z M352.3,260c0.5-0.2,1-0.2,1.4-0.4c0.7-0.4,2.1-2,2.5-2.6c0.2-0.3,0.1-0.5,0.3-0.8
			c0.3-0.4,1.2-2,1-2.4c-0.2-0.4-0.7-0.4-1.3-0.3c-0.3,0.4-2.1,0.9-2.7,1.1c-0.7,0.3-2.2,1.6-2.5,2.2h-0.3v0.3
			c-0.6,0.4-1.7,1.4-1.8,2.2l0.3,0.8C350.4,260.6,351,260.5,352.3,260z M373.9,279.3c-0.9-0.7-2.9-0.3-2.9-1.7
			c0.1-0.1,0.2-0.4,0.3-0.5c0.2-0.1,0.3,0,0.4-0.2c0.4-0.6,0.4-1.7,0.7-2.4c0.3-0.5,0.9-1,1.2-1.5c-0.3-0.1-0.5-0.1-1-0.1
			c-0.2-0.3-0.4-0.6-0.4-1.1c0.3-0.1,0.3-0.2,0.8-0.3c0.3-0.2,1.1,0,1.2-0.1c0.1-0.1,0.1-0.1,0.1-0.3c-0.1-0.2-0.2-2.3-0.3-2.7
			c-0.9,0-1.7,0.1-2.6,0.1c-0.6,0.4-0.9,1.1-1.5,1.5c-1.1,0.8-4,2.7-5.6,2.8c-0.3-0.3-0.7-0.4-0.9-0.8c-0.7-1.6,0.1-3.5,0.7-4.7
			c1.6-3.2,3.7-6.2,7.9-6.8c-0.1-0.5-0.3-1-0.9-1c-0.2,0.3-0.7,0.3-1.1,0.3c-0.2-0.3-0.4-0.4-0.3-1c-0.1-0.1,0,0-0.1-0.2
			c0.5-0.1,1-0.2,1.1-0.7c-0.6-0.3-0.7-1.1-1.7-1.1c-0.3,0.5-0.8,0.9-1.4,1c-0.3-0.3-0.5-0.3-0.5-0.9c0.2-0.2,0.9-1.1,1-1.4
			c-0.8-0.3-1.4-1-2.4-1.1c0,0.1-1.2,1.7-1.2,1.7h-0.8c-0.2-0.3-0.2-0.3-0.3-0.7c0.1-0.2,0-0.3,0.1-0.6c0.1-0.3,0.4-0.7,0.5-1
			c0,0-0.1-0.1-0.1-0.1c-0.7-0.1-1.3-0.3-2.1-0.3c-0.3,0.5-1,2.2-1.5,2.4c-0.1,0.1-0.1,0.1-0.3,0.1c-0.3-0.5-0.4-0.7-0.4-1.6
			c0.2-0.2,0.3-0.4,0.3-0.7c-0.2-0.1-0.3-0.1-0.5-0.1c-0.3-0.2-0.7,0-0.9,0.3c-0.3,0.5-0.4,1.6-0.7,2.3c-0.1,0.3-0.5,0.6-0.7,0.9
			c-0.2,0.3-0.2,0.7-0.4,1c-0.3,0.4-0.7,0.7-1,1c-0.1,0.1-0.1,0.3-0.2,0.4c-0.7,0.9-2,1.2-3.1,1.5c-0.6,0.2-1.4,0.5-2.1,0.4
			c-0.6-0.1-1.3-0.4-1.7-0.7c-0.4-0.3-0.2-0.6-0.8-0.7c-0.2,0.3-0.4,0.3-0.6,0.5c-0.3,0.3-0.3,0.8-0.5,1.1c-0.2,0.2-0.5,0.5-0.6,0.8
			c0,0.2-0.1,0.3-0.1,0.5c-0.1,0.2-0.4,0.3-0.5,0.5c-1,2.2-1.4,5-2.1,7.6c-0.2,0.9,0.1,1.9-0.1,2.6c-0.4,1.3-0.4,3.7-0.2,4.7
			c0.1,0.6-0.1,1.2-0.2,1.6c-0.1,0.5,0.2,1.4,0.3,1.7c0,0.4-0.1,0.8-0.1,1.1c0.1,0.5,0.5,1.1,0.7,1.6c0.1,0.2,0,0.5,0.2,0.8
			c0.1,0.2,0.4,0.4,0.5,0.7c0.2,0.6,0.2,1.5,0.4,1.8c0.7,0.6,2.4,0.9,3.3,1.2c-0.1,0.5,0.6,1.3,0.5,1.9c0,0.2-0.2,0.9-0.3,1.1v0.9
			c-0.1,0.4-0.5,0.7-0.5,1.2c0.4,0.4,0.6,1.1,1,1.5c0.5,0.5,1.2,0.9,1.7,1.4c0.2,0.2,0.3,0.6,0.5,0.7c0.2,0,0.3,0.1,0.5,0.1
			c0.4,0.2,0.8,0.7,1.2,1c0.7,0.3,1.4,0.3,2,0.6c0.6,0.3,0.9,0.8,1.7,1c0.3-0.4,0.8-0.4,1-0.8c0.1-0.2,0-0.1,0-0.3h0.3v-0.6
			c0.3-0.2,0.4-0.3,1-0.3c0.2,0.3,0.6,1,1,1c0.4-0.4,1.8-0.7,2.4-0.9v-0.3c-0.1-0.1-0.3-0.3-0.4-0.4c0.1-0.1,0.2-0.6,0.3-0.9
			c0.4,0,0.4,0,0.9,0c0.2,0.3,0.4,0.6,0.9,0.6c0.4-0.4,1.1-0.6,1.6-0.9c0,0-0.1-0.1-0.1-0.1c-0.2-0.5-1.3-1.3-1-1.8
			c0.1-0.4,0.3-0.5,0.9-0.4c0.1,0.1,1,1,1,1c0.4,0.2,0.5,0,0.7,0.3c0.7-0.3,1.8-1.3,2-2.2c-0.1,0-1-0.3-1-0.3c-0.1-0.1,0,0-0.1-0.2
			c0.2,0,0.2,0,0.3-0.1c-0.3-0.3-0.5-1-0.6-1.5c0.3-0.2,0.3-0.4,1-0.4c0.3,0.4,0.9,1.1,1.6,1.1c0.8-1.4,1.9-2.3,1.9-4.2
			c-1.1,0-2.3-0.4-2.3-1.5c0.4-0.3,0.3-0.4,1-0.4c0.2,0.3,0.4,0.3,0.8,0.2c0,0.3,0,0.2,0.2,0.3c0.2,0.1,0.4,0.2,0.5,0.2
			c0.4-0.4,0.9-2.6,1-3.3c-0.6-0.2-2.1-0.4-2.4-1.1c-0.1-0.2-0.1-0.6-0.1-0.9c0.1,0,0.2-0.1,0.3-0.1c0.6-0.4,2,0.7,2.6,0.8v-0.1
			C373.5,281.2,374.4,279.9,373.9,279.3z M360.2,278.1c-1.1,0.6-1.4,1.4-3.1,1.4c-0.6-0.6-1.2-0.8-1.5-1.7c-0.1-0.3,0-0.8-0.1-1
			c0.1-0.4,0.2-0.2,0.2-0.7c0.4-0.1,0.7-0.3,0.7-0.8c0.4-0.1,0.6-0.4,1-0.5c0.6-0.2,2.3,0.5,2.6,0.9c0.3,0.3,0.3,0.8,0.5,1
			C360.4,277.2,360.3,277.6,360.2,278.1z M371.2,262c-0.1,0-2.6,1.2-2.6,1.2c-1.5,1.4-2.6,2.9-3.5,5c-0.4,1-0.9,2.2-0.4,3.5
			c0.1,0.1,0.2,0.1,0.3,0.2c3-1.3,5.8-3,7.1-6.3c0.2-0.4,0.4-0.5,0.4-1.1c-0.8,0-0.9,0.2-1.8,0.2c-0.2-0.3-0.3-0.5-0.3-1
			c0.1-0.1,0,0,0.1-0.2c0.8-0.4,1.4-0.4,2.6-0.4c-0.1-0.5-0.2-0.7-0.3-1.1h-0.4C371.9,262,371.6,261.8,371.2,262z M373.8,267.1
			c0-0.5-0.1-1.5-0.4-1.7v0.2c-0.3,0.3-0.4,1-0.5,1.6H373.8z M374.3,274.2c-0.5,0.7-1.5,1.6-1.1,2.4v0.1c0.4-0.1,1-0.2,1.2-0.5
			c0.3-0.5,0.1-1.4,0.1-1.9H374.3z M356.8,276.8c0,0.2-0.1,0.5,0,0.7c0.1,0.6,0.3,0.8,1.1,0.8c0.5-0.4,1.1-0.5,1.2-1.4
			c-0.6-0.4-0.8-0.5-1.7-0.7L356.8,276.8z M373.8,277.6L373.8,277.6c0.2,0.1,0.3,0.1,0.5,0.2c0.1-0.2,0-0.1,0.1-0.2v-0.2h-0.2
			C374.1,277.5,373.9,277.6,373.8,277.6z M444.9,316.6c0.5-0.7-0.3-3.2-0.3-3.9h-0.2c-0.3-0.2-1,0.2-1.3,0.1
			c-0.3-0.1-0.3-0.1-0.3-0.3c-0.1-0.1-0.1-0.4-0.1-0.6c0.5-0.3,1-0.8,1.7-0.9c0-1.2,0-2.5-0.2-3.5h-0.2c-0.4,0.3-1.4,0.3-1.9,0.3
			c-0.2-0.3-0.3-0.8-0.3-1.2c0.3,0,1.9-0.4,2.1-0.5c0.1-0.1,0.1-0.4,0.1-0.6c-0.4-0.6-0.1-1.9-1-2c-0.3,0.4-0.7,0.5-1.4,0.4
			l-0.1-0.1c0-0.5,0-0.4,0-1c0.3-0.1,1.6-0.9,1.7-1.1c-0.1-0.2-0.6-1.3-0.4-1.7l-0.1,0.1c-0.1,0.2-0.1-0.2-0.1-0.2
			c-0.1-0.2-0.2-0.5-0.3-0.8c-0.9,0-1.1,0.7-2.1,0.8c-0.2-0.3-0.3-0.3-0.3-0.9c0.3-0.3,0.7-0.7,0.8-1.1c-0.5-0.3-0.7-0.8-1.5-0.9
			c-0.3,0.3-1,0.6-1.6,0.6c-0.2-0.3-0.3-0.4-0.3-1c0.2-0.1,0.3-0.2,0.3-0.5c-0.5-0.2-2-1.3-2.3-1.2c-0.4,0.1-0.8,0.6-1,1
			c-0.3,0-0.5,0-0.8-0.1c-0.1-0.2-0.1-0.3-0.1-0.6c0.2-0.2,0.3-0.6,0.3-1c-0.6,0-1.3-0.2-2.1-0.2c-0.4,0.6-1.3,0.9-1.8,1.5
			c-0.4-0.1-0.7-0.3-0.8-0.8c0.1-0.2,0.2-0.5,0.3-0.8c0,0-0.1-0.1-0.1-0.1c-0.6,0.2-2,0.3-2.4,0.6c-0.7,0.5-1,1.6-2,1.7
			c-0.4-0.3-0.6-0.3-0.6-1c0.2-0.1,0.1-0.1,0.2-0.4c0,0-0.1-0.1-0.1-0.1c-1.2,0.2-1.7,0.9-2.4,1.6c-0.2,0.2-0.5,0.1-0.7,0.3
			l-0.9,0.9c-0.2,0.1-0.4,0.1-0.6,0.3c-1.1,0.7-3.4,4.4-3.5,5.9c0.5,0.6,0.8,1.3,1.2,2c0.3,0.2,0.5,0.5,0.8,0.7c1.5,1.9,3,3.3,5,4.7
			c0.2,0.3,0.5,0.5,0.7,0.8c0.5,0.3,0.9,0.5,1.4,0.8l0.6,0.6h0.4c0.1,0.1,0.2,0.4,0.3,0.4h0.5c0.7,0.2,1.7,0.6,2.5,0.8
			c0.7,0.1,2.3-0.3,3.1-0.3c0,0.1,0.1,0.2,0.1,0.4c-0.8,0.4-3.2,0.9-4.4,0.5c-1.2-0.4-2.4-0.8-3.5-1.5c-0.1-0.1-0.7-0.6-0.9-0.7
			c0-0.1-0.1-0.2-0.1-0.3c-0.2-0.1-0.5,0-0.7-0.2c-0.9-0.6-1.6-1.5-2.4-2.1c-0.7-0.5-1.5-1-2-1.7c-0.8-1-1.6-1.9-2.3-2.9
			c-0.3-0.4-0.4-0.9-1-1.1c0,0.7-0.4,1.1-0.5,1.7v0.7c-0.2,0.9-0.5,2.1-0.7,2.9c-0.2,0.6-0.1,1.7-0.1,2.4c0,0.7-0.3,1.6-0.4,2.3
			c-0.2,0.9,0,1.8-0.2,2.6c-0.1,0.4,0.3,0.8,0.3,1.2c-0.2,1.5,0.2,3.9,0.5,5.4c0.1,0.4,0.6,3.1,0.5,3.3c0.4,0.7,0.4,1.4,0.8,2.2
			c0.4,0.8,0.9,1.8,1.5,2.6c0.6,0.9,1.6,1.6,2.4,2.3c0.3,0.2,0.5,0.6,0.7,0.9c0.3,0.4,0.7,0.5,1,0.8c0.3,0.2,0.4,0.6,0.6,0.8
			c0.4,0.4,1,0.5,1.5,0.8c0.4,0.3,0.7,0.7,1.1,0.9c0.2,0,0.3,0.1,0.5,0.1c0.1,0.1,0.2,0.2,0.3,0.3c0.6,0.4,1.4,0.7,2.2,1
			c0-0.4,0.1-0.5,0.4-0.5c0.7,0.6,2.1,0,2.8-0.1c0.2,0,0.3,0.2,0.3,0.2c0.2,0,0.4-0.1,0.7-0.1c0-0.2,0-0.2-0.1-0.3
			c-0.1-0.1-0.1-0.1-0.3-0.1c-0.1,0.1-0.1,0.1-0.3,0.1c-0.2-0.3-0.5-0.4-0.6-0.9c-0.1-0.1,0.1-0.5,0.2-0.7c0.2-0.1,0.5-0.2,0.7-0.3
			c0.2,0.2,2.3,0.9,2.4,0.8c1-0.2,1.5-0.9,2.3-1.2c0.6-0.3,1.3-0.2,1.4-1c-0.5-0.1-0.8-0.2-1.2-0.3c-0.2-0.4-0.4-0.6-0.3-1.3
			c0.4-0.2,0.5-0.3,1.1-0.3c0.1,0.2,0.2,0.2,0.3,0.5c0.3,0,0.7,0.1,1,0.1v0.3c0.4,0.1,0.4,0.4,0.7,0.5c0.1-0.2,0.1-0.1,0.4-0.2v-0.3
			c0.7-0.3,1.5-1.3,1.9-1.9c-0.3-0.1-0.6-0.2-1-0.3c-0.2-0.2-0.4-0.5-0.4-0.9c-0.1-0.1,0-0.3,0.1-0.5c0.4-0.2,0.4-0.3,1-0.3
			c0.4,0.3,0.8,0.6,1.5,0.6c0.3-0.6,0.7-1,0.8-1.9c-0.7-0.2-1.1,0-1.1-1c0.2-0.2,0.2-0.4,0.4-0.5c0.4-0.4,0.8,0,1.4,0.1
			c0.1-0.5,0.5-1,0.6-1.4c0.2-0.5-0.3-1-0.3-1.4c-0.1-0.4,0-0.8,0-1.2c-0.9,0-2.2,0.4-2.3-0.7c0.2-0.3,0-0.5,0.4-0.7
			c0.5-0.3,1.4,0,1.9,0.1v-0.2c-0.2-0.3,0.3-3,0.3-3.8c-0.5-0.1-1.3-0.3-1.7-0.3c-0.5-0.8-0.4-0.9,0.2-1.5
			C443.7,316.8,444.7,316.9,444.9,316.6z M384.6,297.8c0.1-0.1,0.2-0.1,0.3-0.2c0.1-0.1,0,0,0.1-0.2h-0.2c-0.2,0.1-0.6,0.1-0.8,0.3
			h0.1C384.2,297.8,384.3,297.8,384.6,297.8z M385.4,297.5c-0.1,0-0.2-0.1-0.3-0.1v0.2L385.4,297.5L385.4,297.5z M395.6,299.5
			L395.6,299.5l0.1-0.2h-0.1V299.5z M384.7,299.7h-0.3c0,0.2,0,0.2,0.1,0.3c0.2-0.1,0.1,0,0.2-0.1
			C384.7,299.9,384.6,299.9,384.7,299.7z M384.6,301.7v-0.2c-0.2-0.2-0.3-0.5-0.5-0.7C383.9,301.1,384,301.6,384.6,301.7z
			 M397.5,301v0.2h0.2V301H397.5z M386.9,302.3c0.1-0.2,0.1-0.2,0.2-0.4c-0.3-0.1-0.4-0.3-0.8-0.4c0,0.1-0.1,0.1-0.1,0.3
			C386.5,302,386.4,302.2,386.9,302.3z M388.1,302.1c-0.1,0-0.1-0.1-0.2-0.1v0.2L388.1,302.1L388.1,302.1z M395.8,302.9
			c0.1,0.1,0.2,0.1,0.3,0.2v-0.4h-0.2C395.8,302.8,395.8,302.7,395.8,302.9L395.8,302.9L395.8,302.9z M386.3,303h0.4v-0.2h-0.3
			C386.4,302.9,386.5,302.8,386.3,303L386.3,303L386.3,303z M395.3,306.9c-0.2-0.1-0.1,0-0.2-0.1c-0.8-0.2-2.2-1.3-2.8-1.8
			c-0.3-0.3-0.5-0.9-1-1v0.2c0.1,0.1,0.2,0.2,0.3,0.3c-0.3,0.1-0.2,0-0.3,0.3c0.7,0.2,0.7,0.7,0.5,1.3c0.5,0.1,1,0.3,1,0.9
			c0,0.1,0,0.3,0,0.5c-0.2,0.1-0.4,0.2-0.9,0.2c-0.2-0.2-0.8-0.6-1-0.7c-0.3-0.1-0.5,0.1-0.7,0.1c-0.5-0.1-1-0.7-1-1.3h-0.1
			c0,0,0.1-0.1,0.1-0.1c0.2-0.2,0.7-0.2,0.9-0.4c-0.1-0.1-0.2-0.2-0.3-0.3c-0.2,0.3-0.5,0.3-0.9,0.3c-0.2-0.2-1.1-0.9-1.1-0.9
			c-0.6,0.6-0.3,1.3-1.6,1.3c-0.5-0.7-1.4-0.3-1.4-1.7c0.1-0.1,0,0,0.1-0.2c0.3-0.1,0.6-0.2,0.7-0.5c0.1-0.1,0.1-0.1,0.1-0.3h-0.4
			c-0.2,0.3-0.2,0.4-0.6,0.4c-0.2-0.1-0.5-0.1-0.8-0.2c-0.1,0.1-0.1,0.1-0.2,0.2c0,0,0.1,0.1,0.1,0.1c0.3,0.3,0.5,0.1,0.6,0.7
			c0.1,0.3-0.2,0.7-0.4,1c-0.5-0.2-0.4-0.5-1-0.7v0.3c0.1,0.1,0.1,0.1,0.1,0.3c0.7,0.4,1.5,0.3,1.5,1.5c-0.2,0.1-0.2,0.2-0.4,0.3
			c-0.2,0.1-0.4,0-0.8-0.1c0.2,2.9,1,6,2.1,8.7c0.3,0.8,0.4,2.4,1.1,2.5c0.6-0.8,1.5-1.4,2.4-2c0.1-0.1,0.1-0.2,0.2-0.3l1.7-1.7
			c1.4-1.4,2.9-2.7,4.1-4.3c0.7-0.9,2.5-2.1,2.7-3.3c-0.5-0.2-1.2-0.3-1.7-0.4C395.8,306.6,395.6,306.6,395.3,306.9z M386.4,306.1
			c0.2-0.1,0.4-0.2,0.8-0.2c0.4,0.3,0.8,0.1,0.9,0.8c0.1,0.1,0.1,0.1,0.1,0.3c-0.9,0.5-0.9-0.1-1.7-0.3L386.4,306.1L386.4,306.1z
			 M386.9,311.8c-0.4-0.3-0.8-0.3-0.9-1c0,0,0.1-0.1,0.1-0.1c0.3,0,0.3,0,0.4-0.2c0.6,0.1,0.8,0.3,1.1,0.7
			C387.6,311.6,387.5,311.8,386.9,311.8z M385.8,307.7c-0.1-0.2,0-0.3,0.1-0.5c0.8,0,3.3,0.9,3.7,1.3c0.1,0.2,0.2,0.3,0.2,0.6
			c-0.2,0.1-0.3,0.2-0.4,0.3C388.4,309.2,386.1,308.4,385.8,307.7z M390.4,313.2c-0.4-0.3-0.8-0.5-1-1c0,0,0.1-0.1,0.1-0.1
			c0.2,0,0.2,0,0.3-0.1h0.7c0.2,0.3,0.5,0.3,0.7,0.6c0.1,0.1,0.1,0.1,0.1,0.3C391,313.1,390.8,313.2,390.4,313.2z M391.5,310.7
			c-0.1,0-0.2,0.1-0.3,0.1c-0.2,0.1-0.3,0.2-0.4,0.1c-0.7-0.1-1.1-0.6-1.1-1.4c0.2-0.1,0.1,0,0.2-0.1c0.8,0,1.6,0.2,1.7,0.9
			C391.5,310.4,391.5,310.5,391.5,310.7z M393.8,310.2c-0.4,0.3-0.8,0.1-1.2,0c-0.1-0.1-0.3-0.3-0.3-0.4c0-0.1,0.1-0.3,0.1-0.4
			c-0.1-0.3-0.5-0.4-0.6-0.9c0.1-0.1,0,0,0.1-0.2c0.2,0,0.5-0.1,0.6-0.3c0.8,0.2,1.8,1,1.8,1.9C394,310.1,394.1,310.1,393.8,310.2z
			 M395.9,308.2c-0.3,0.2-0.4,0.3-0.8,0.3c-0.4-0.5-0.9-0.4-1-1.4c0.2-0.1,1-0.1,1.2-0.3C395.8,307.2,396,307.7,395.9,308.2z
			 M398.7,303c-0.1,0.1-0.1,0.3-0.1,0.5c0.3,0.2,0.3,0.3,0.8,0.3c0-0.4,0.1-0.6,0.2-0.9h-0.3C399.2,303.1,399.1,303,398.7,303z
			 M389,303.5v-0.3c-0.1,0-0.1-0.1-0.2-0.1c-0.1,0,0-0.1-0.1,0c-0.1,0.1-0.3,0.3-0.3,0.4h0.3C388.7,303.5,388.8,303.5,389,303.5z
			 M382.6,303.5h0.2c0.1-0.1,0.1-0.1,0.2-0.2v-0.1c-0.1,0-0.2-0.1-0.3-0.1C382.6,303.3,382.6,303.4,382.6,303.5z M393.8,303.3
			c-0.3,0-0.5-0.1-0.7-0.2v0.2l0.8,0.3L393.8,303.3C393.8,303.4,393.8,303.3,393.8,303.3z M397.2,304.3c0.1,0,1,1.3,1,1.4
			c0,0,0.1-0.1,0.1-0.1c0.2-0.1,0.3-0.2,0.3-0.5c-0.9-0.3-1.2-1.1-2.3-1.2C396.6,304.1,396.9,304.1,397.2,304.3z M395.6,305.6
			c-0.1-0.1,0,0-0.1-0.2c-0.3-0.1-0.3-0.2-0.5-0.3v0.3C395.3,305.5,395.3,305.6,395.6,305.6L395.6,305.6L395.6,305.6z"/>
	</g>
</g>
</svg>
