<?xml version="1.0" encoding="utf-8"?>
<!-- Generator: Adobe Illustrator 21.0.0, SVG Export Plug-In . SVG Version: 6.00 Build 0)  -->
<svg version="1.1" id="Calque_1" xmlns="http://www.w3.org/2000/svg" xmlns:xlink="http://www.w3.org/1999/xlink" x="0px" y="0px"
	 viewBox="0 0 841.9 595.3" style="enable-background:new 0 0 841.9 595.3;" xml:space="preserve">
<style type="text/css">
	.st0{fill:#C6C6C6;}
</style>
<g>
	<g>
		<path d="M339.9,265c33.4,49.2,79.1,94,133,120c6.5,3.1,15.6,0.5,22-1.8c1-0.4,15.9-7.2,10.1-9.9c-52.9-25.5-98.3-69.2-131-117.5
			C368.1,247.3,337,260.7,339.9,265L339.9,265z"/>
	</g>
</g>
<g>
	<g>
		<path d="M461.6,264.7c-39.9,43-88.2,76.6-137.9,107.2c-6,3.7-8.8,12.4-2,16.8c7.5,4.9,17.4,2,24.4-2.3
			c52-32,102.2-67.6,143.9-112.5c5.3-5.8,3.1-13.3-4.2-15.7C477.5,255.6,467.3,258.5,461.6,264.7L461.6,264.7z"/>
	</g>
</g>
<ellipse class="st0" cx="413.7" cy="407.6" rx="94.8" ry="7.1"/>
</svg>
