<?xml version="1.0" encoding="utf-8"?>
<!-- Generator: Adobe Illustrator 21.0.0, SVG Export Plug-In . SVG Version: 6.00 Build 0)  -->
<svg version="1.1" id="Calque_1" xmlns="http://www.w3.org/2000/svg" xmlns:xlink="http://www.w3.org/1999/xlink" x="0px" y="0px"
	 viewBox="0 0 841 595" style="enable-background:new 0 0 841 595;" xml:space="preserve">
<style type="text/css">
	.st0{fill:#1D1D1B;}
	.st1{fill:#DADADA;}
</style>
<g>
	<g>
		<path class="st0" d="M419.1,346.6c0.6,0.3,1.4,0.8,2.1,1.1c0.4,0.2,0.7,0.1,1.1,0.3c1.1,0.6,2.3,1.3,3.5,1.8
			c0.8,0.3,1.8,0.3,2.4,0.5c0.8,0.3,1.9,0.8,2.6,1.2c0.4,0.2,1.8,0.5,2.3,0.6c0.2,0,0.4-0.1,0.5-0.1l0.4,0.4h0.5
			c0.4,0.1,1.1,0.5,1.5,0.6h0.5c1,0.4,1.7,1.2,3,0.8c1.4-0.4,2.1-2.5,3.2-2.9c0.5,0.3,1,0.3,1.6,0.6c0.5,0.2,1.1,0.7,1.6,1
			c0.3,0.2,0.8,0,1.1,0.3c0.1,0.1,0.1,0.3,0.2,0.4c0.6,0.3,1.1,0.1,1.8,0.4c0.4,0.1,0.8,0.5,1.2,0.6h0.8c0.1,0.1,0.2,0.4,0.4,0.5
			c1.1,0.6,2.9,0.8,4.2,1.2c1.7,0.5,3,0.2,4.7,0.5c0.8,0.2,2.1,0.3,2.8,0.5c0.2,0,0.5-0.1,0.7-0.1c0.5,0.1,0.4,0.2,1,0.2
			c0.7-0.1,1.6,0.5,2.4,0.2c1.4-0.5,1.8-2.1,2.3-3.4c0.3-0.7,0.4-1.9,1.2-2.1c1.4-0.8,5.1-0.4,6.8-0.7c0.8-0.2,1.8-0.1,2.4,0
			c1.7,0.3,4-0.4,5.4-0.9c0.2-0.1,0.4-0.3,0.5-0.4h1.6c0.4,0.1,0.8,0.5,1.2,0.7c0.5,0.3,1,0.3,1.5,0.5c0.1,0.1,0.2,0.4,0.4,0.5
			c0.1,0,0.2-0.1,0.3-0.1c0.9,0.5,1.7,1.4,2.5,1.9c0.3,0.2,0.6,0.1,0.9,0.3c0.1,0.2,0.2,0.3,0.4,0.5c1,0.7,2.2,1,3.3,1.5
			c1,0.6,2.2,2.1,3.5,2.2v0.3c1,0,2.1,0.9,2.7,1.4c0.3,0.2,0.6,0.1,0.9,0.3c1.5,0.9,2.9,1.5,4.4,2.4c-0.3,0.7-0.7,1.5-0.6,2.1v2.5
			c0.2,0.4,0.7,0.8,0.9,1.2c0.1,0.3,0.1,0.6,0.2,0.9c0.3,0.7,0.9,0.9,1.4,1.4c0.2,0.2,0.2,0.6,0.5,0.8c1.5,1.2,5.1,2.6,7.2,3
			c0.3,0.1,0.7,0,1.2-0.1c0.8-0.1,1.8,0.1,2.6,0.1c5.4-0.3,12.9-2.9,17.2-5.6c0.2-0.1,0.3-0.6,0.5-0.8c0.3-0.3,0.7-0.3,1-0.6
			c0.3-0.4,0.6-1.1,1-1.4c0.3-0.2,0.6-0.2,0.8-0.5c0.2-0.3,0.2-0.8,0.5-1.1l0.6-0.6c0.2-0.4,0.2-0.8,0.5-1.2c0.1-0.2,0.6-1,0.7-1.2
			c0.1-0.1,0.4-0.1,0.5-0.3v-0.8c0.3-1.1,0.7-2.4,0.9-3.7c0-0.1-0.2-2-0.5-2.3c-0.1,0-0.2-0.1-0.3-0.1c-0.2-0.2-0.2-0.5-0.4-0.7
			c-0.1,0-0.2-0.1-0.3-0.1c-0.3-0.3-0.4-0.8-0.7-1.2c-0.4-0.6-1.2-1-1.7-1.4c-0.2-0.2-0.3-0.6-0.5-0.7c-0.4-0.3-1.3-0.4-1.8-0.5h-1
			c-0.1,0-0.1-0.3-0.2-0.4c-0.5,0-1-0.1-1.4-0.1c-3.8-0.7-7,0.9-9.7,2.7c-0.6,0.4-2,0.6-2.7,0.8c-2.2,0.8-4.7,1.2-7.3,1.6
			c-0.4,0.1-0.5-0.4-0.7-0.5h-0.5c-0.5-0.2-1.1-0.7-1.5-1c-1.4-0.9-2.8-1.6-4.4-2.3c-0.6-0.3-1.3-0.9-2-1.1v-0.3
			c-0.7-0.1-1.1-0.6-1.5-0.9c-1.2-0.7-2.2-1.3-3.3-2.1c-0.3-0.2-0.7-0.6-1-0.8c-0.4-0.2-0.9-0.2-1.3-0.5c-0.7-0.5-1.4-1.1-2.2-1.5
			c-0.8-0.4-1.5-0.6-2.3-1c-0.4-0.2-0.9-0.6-1.3-0.8c-0.3-0.1-0.5-0.1-0.8-0.2c-0.1-0.1-0.2-0.2-0.3-0.4c-0.3-0.1-0.5-0.2-0.8-0.3
			c0-0.1-0.1-0.2-0.1-0.3c-0.1-0.1-1-0.2-1.2-0.3c-0.4-0.2-0.7-0.6-1-0.8c-0.2-0.1-0.5,0-0.7-0.1c-0.4-0.1-0.9-0.6-1.3-0.8
			c-0.6-0.3-1.7-0.5-2.3-0.6c-0.4-0.1-0.7,0.1-1,0.1c-0.6,0-2.1-0.4-3.2-0.2c-1.8-0.6-4.7,0-6.6,0.5c-0.6,0.2-1-0.1-1.4,0
			c-0.6,0.1-1.4,0.4-1.9,0.6h-0.7c-0.2,0.1-0.8,0.4-1.1,0.5c-0.3,0.1-0.9-0.2-1.6,0.1c-0.3,0.1-1.1,0.4-1.2,0.4
			c-0.2-0.1-0.8-0.2-1-0.4c-0.3-0.4-0.1-0.8-0.3-1.4c-0.2-0.5-0.8-0.8-1.1-1.3c-0.6,0-1-0.2-1.5-0.4c-1.5-0.3-3.8-0.2-5.1,0
			c-0.5,0.1-1-0.5-1.8-0.3c-0.9,0.2-1.6,0.3-2.6,0.5c-0.5,0.1-1.1-0.2-1.6-0.1c-0.6,0.1-0.8,0.2-1.4,0.3V336c1-1.1,1.6-2.5,2.5-3.7
			c0.3-0.2,0.6-0.4,0.9-0.6c0.8-1.4,1.8-2.7,2.9-3.9c0.5,0.2,0.7,0.6,1.1,0.8c2.2,1.1,4,2.3,6.8,2.8c0.4,0.1,0.8-0.2,1.1-0.3h1
			c0.7-0.2,1.4-0.5,1.9-0.9c0.9-0.6,1.7-1.9,2.3-2.8c0.3-0.3,0.5-0.5,0.8-0.8c0.3-0.4,0.3-0.9,0.6-1.4c0.3-0.3,0.7-0.7,1-1
			c0.2-0.3,0.2-0.6,0.4-0.8c0.4-0.6,1.1-1.1,1.5-1.7c0.3-0.2,0.5-0.4,0.8-0.6c0.6-0.7,1.3-2.1,2.3-2.3c0.2,0.4,0.3,0.9,0.6,1.4
			c0.3,0.4,0.8,0.7,1.2,1.1c0.2,0.2,0.4,0.4,0.5,0.6c0.7,0.4,1.1,0.3,2,0.5c4.3,1.1,7-0.7,8.4-3.9c0.6-1.4,0.5-3.3,0.1-4.7
			c-0.2-0.7,0-1.3-0.7-1.4c0-0.2-0.1-0.5-0.1-0.7c-0.6-0.3-0.8-1-1.2-1.5c-0.1-0.2-0.3-0.1-0.5-0.2c-0.1-0.1-0.2-0.3-0.3-0.5
			c-0.5-0.5-2.3-1.6-3.1-1.8c-1.3-0.4-2.6,0.4-3.9,0c-2.2-0.6-4.3,0.4-5.7,1.3c-1.5,1-2.7,2.3-3.7,3.7c-0.4,0.4-0.8,0.8-1.3,1.2
			c-0.2,0.2-0.1,0.5-0.3,0.7c-0.2,0.2-0.6,0.4-0.8,0.6c-0.5,0.7-1,1.7-1.6,2.3c-0.6,0.6-1.4,1.1-2.1,1.7c-0.2,0.2-0.1,0.5-0.3,0.8
			c-0.2,0.3-0.7,0.4-0.9,0.6c0,0.2-0.1,0.5-0.1,0.7c-0.2,0.4-0.7,0.9-1.2,1c-0.7,0.5-3.2-0.6-3.3-1.4c0.8-0.6,1.5-2.7,2.1-3.6
			c1.2-1.8,3.1-2.9,3.4-5.4c-0.6,0-1.1-0.3-1.5-0.5c-0.3-0.7-2.2-3.1-2.8-3.5c-0.3-0.2-0.6-0.2-0.8-0.4c-0.1-0.1-0.1-0.3-0.2-0.4
			c-0.1-0.2-0.4-0.2-0.5-0.4c0-0.1,0.1-0.1,0.1-0.2h-0.4c-0.2-0.1-0.4-0.5-0.6-0.6c-0.2,0-0.3-0.1-0.5-0.1c-0.2-0.2-0.4-0.6-0.6-0.8
			c-0.3-0.3-0.8-0.2-1-0.4c0-0.1-0.1-0.2-0.1-0.4c-0.2-0.2-0.5-0.4-0.7-0.5c0-0.1-0.1-0.2-0.1-0.4c-0.1-0.1-0.3,0-0.5-0.1
			c-0.4-0.2-0.7-0.9-1-1.2v-0.2h0.3c0.2,0.2,0.3,0,0.6,0.2l0.4,0.4c0.8,0.4,1.6,0.5,2.3,0.9c0.2,0.1,0.5,0.7,0.7,0.8
			c0.4,0.3,1.4,0.7,1.7,1c0.1,0.1,0.1,0.4,0.2,0.5c0.2,0.2,0.5,0,0.7,0.2c0.1,0.2,0.2,0.3,0.3,0.5c0.2,0.1,0.4,0.1,0.5,0.2
			c0.1,0.1,0.1,0.3,0.2,0.5c0.1,0.2,0.4,0.1,0.5,0.3c0.2,0.2,0.4,0.6,0.6,0.8c0.3,0.2,0.7,0.1,0.9,0.4c0.7,0.7,1.1,1.3,2.5,1.4
			c0.3-0.3,0.7-0.5,0.9-0.9c0.1-0.3,0.2-0.7,0.4-1c0.3-0.3,0.6-0.5,0.9-0.8c0.6,0.2,1.1,0.5,1.6,0.7c0.4,0.2,1-0.2,1.3-0.4h0.6
			c1-0.4,2.6-1.6,2.6-3c0.1-0.2,0.2-2.1,0.2-2.9c-0.6-0.2-0.7-1-1.1-1.5c-0.6-0.8-2.1-0.9-2.4-1.9c0.4-0.5,0.3-1.1,0.5-1.8
			c0.5-2,0.6-5.2-0.2-7.1c-0.3-0.2-0.4-0.3-0.9-0.3c-0.1,0.2-0.1,0.5-0.1,0.8c0.1,0,0.1,0.1,0.2,0.1c0,0.1-0.2,0.4-0.3,0.5
			c0,0.1,0,1.3,0,1.4c0,0.1,0.3,0.2,0.2,0.5l-0.3,0.3v0.5c-0.3,1-0.6,2.4-0.8,3.4c-0.1,0.7,0.4,1.1,0.5,1.5c0.1,0.4-0.4,0.7-0.5,1
			c-0.2,0.7,0.6,1.4,1.1,1.5c0.1-0.3,0.4-0.3,0.8-0.3c0.6,0.8,1.4,1.1,1.4,2.5c0.1,0.2,0.1,0.8,0,0.9c-0.3,0.9-1.6,1.7-2.6,1.8
			c-0.5-0.6-2-0.7-3-0.6c-0.3,0.6-1.5,2.3-2.2,2.4c-0.2-0.6-0.8-0.7-1.4-1c-0.4-0.2-0.9-0.9-1.2-1.3c-0.2-0.3-1-0.8-1.4-1.1v-0.3
			c-0.4,0-0.3,0-0.6,0c-0.2-0.2-0.5-0.5-0.7-0.6h-0.3c-0.1-0.1-0.1-0.4-0.3-0.5h-0.3c-0.4-0.3-0.7-0.8-1.1-1.1
			c-0.7-0.4-1.7-0.5-2.4-0.8c-0.6-0.3-1.4-0.9-2.1-1.1c-0.4-0.1-1.4,0.2-2,0.1c-0.3-0.1-0.8-0.3-1.1-0.4c-0.8-0.1-2,0.3-2.9,0.4
			c-0.2,0.4-0.5,0.5-0.6,1.1c0.3,0.3,0.3,0.6,0.7,0.8c0.1,0.1,0.4,0,0.6,0.1v0.2c0.4,0.1,0.8,0.2,1.3,0.3c0.3,0.1,0.8,0.5,1.2,0.6
			c0.2,0,0.4,0.1,0.6,0.1c0.5,0.2,1.2,1.1,1.6,1.4c0.5,0.2,0.8,0.3,1.2,0.5c0.2,0.2,0.4,0.5,0.6,0.7c0.1,0,0.2,0.1,0.4,0.1
			c0.1,0.1,0.1,0.5,0.3,0.6c0.3,0.3,0.8,0.4,1.2,0.6c0.2,0.1,0.2,0.5,0.4,0.6c0.2,0.2,0.8,0.2,1,0.4c0.1,0.1,0,0.3,0.1,0.5
			c0.2,0.1,0.4,0.1,0.5,0.2v0.4c0.2,0.2,0.7,0.3,0.8,0.5v0.3c0.3,0.4,0.9,0.6,1.2,1.1c0.2,0.4,0.1,0.7,0.5,1
			c0.4,0.3,1.1,0.3,1.5,0.6c-1.4,1.8-2.7,3.7-4.2,5.5c-0.5,0.6-0.2,1.5-1.2,1.5c-0.1-0.1-1.1-1.3-1.3-1.4c-0.3-0.2-0.8-0.3-1-0.5
			v-0.4c-0.1-0.2-0.4-0.2-0.6-0.4c-0.5-0.3-0.6-1.1-1.1-1.4c-0.2,0-0.3-0.1-0.5-0.1c-0.3-0.2-0.2-0.5-0.5-0.6v-0.3h-0.3
			c-0.4-1.1-2.8-3.2-3.8-3.9c-0.4-0.3-0.6-1-0.9-1.4c-0.1-0.2-0.4-0.2-0.5-0.4c-0.2-0.2-0.3-0.6-0.5-0.8c-0.5-0.7-1.5-1.5-2.1-1.9
			v-0.3h-0.3c-0.2-0.3-0.3-0.5-0.6-0.5c0-0.2,0-0.2-0.1-0.3c-0.3-0.8-1.4-1.1-1.6-1.9h-0.3c-0.2-0.4-0.2-0.7-0.8-0.7
			c-0.3-0.2-0.9-0.1-1.3-0.2c-0.5-0.2-1.6-0.8-2.1-0.7c-2.2,0.2-3.2,3.1-2.3,5.2c0.1,0.3,0.5,0.4,0.6,0.6c0.4,0.6,0.7,1.1,1.1,1.7
			c0.7,0.9,1.8,1.4,2.5,2.3c0.2,0.2,0.2,0.7,0.5,0.9c0.1,0.1,0.3,0,0.4,0.1c0.1,0.2,0.2,0.5,0.3,0.7c0.7,0.7,1.7,0.9,2.2,1.9
			c0.2,0,0.1,0,0.4,0c0.1,1,1.1,1.6,1.9,2v0.3h0.4c0.3,0.4,0.8,0.5,1.1,0.9c0.4,0.4,1.1,1,1.4,1.4c0,0.2,0.1,0.4,0.1,0.5
			c0.2,0.1,0.4,0.1,0.5,0.2c0.2,0.2,0.3,0.6,0.5,0.7c0.4,0.3,0.8,0.3,1.1,0.6l0.4,0.7c0.1,0.1,0.3,0.1,0.5,0.2
			c0.2,0.2,0.3,0.6,0.5,0.8c0.4,0.3,0.9,0.5,1.2,0.9c0.1,0.2,0,0.3,0.2,0.5c0.2,0.2,0.7,0.3,0.8,0.5v1c0.6,0.4-1,2.7-1.5,2.8
			c-0.4-0.5-1.7-0.4-2.4-0.7c-1.3-0.6-2.4-1.1-3.7-1.8c-0.5-0.3-0.8-0.7-1.4-0.8v-0.3c-1.3-0.3-2.3-1.4-3.3-2
			c-0.2-0.1-0.5-0.2-0.7-0.1c-0.4-0.2-0.7-0.7-1.1-1c-0.3-0.3-0.8-0.2-1.2-0.5c0-0.1-0.1-0.2-0.1-0.3c-0.3-0.1-0.5-0.1-0.8-0.2
			l-0.5-0.5h-0.5c-0.4-0.2-0.7-0.7-1.1-0.9c-0.6-0.4-1.2-0.5-1.7-1c-0.7-0.6-2.7-1.3-3-2.3c-0.2,0-1.6-0.8-1.8-1
			c-0.1-0.1-0.1-0.4-0.2-0.5c-0.5-0.3-0.8-0.3-1.4-0.6c-0.3-0.2-0.4-0.7-0.6-0.9c-0.2-0.2-0.6-0.2-0.9-0.4c-0.2-0.3-0.4-0.5-0.6-0.8
			c-0.3-0.2-0.5,0-0.7-0.2c-0.2-0.2,0-0.5-0.2-0.7c-0.1-0.1-0.3-0.1-0.5-0.2c-0.3-0.2-0.5-0.6-0.7-0.8c-0.2-0.1-0.4-0.1-0.5-0.2
			c-0.1-0.1-0.1-0.3-0.2-0.5s-0.9-0.8-1-0.6h-0.1c-0.4-0.5-0.6-1.1-1.3-1.3v-0.3c-0.6-0.2-0.8-0.7-1.3-1c-0.2,0-0.3-0.1-0.5-0.1
			c-0.1-0.1-0.1-0.4-0.2-0.5c-0.2-0.2-0.5-0.1-0.6-0.3c-0.2-0.2-0.3-0.6-0.5-0.8c-0.1-0.1-0.3,0-0.4-0.1c-0.2-0.2-0.4-0.6-0.6-0.8
			c-0.2-0.1-0.4,0-0.5-0.2c-0.2-0.2-1.1-1.4-1.2-1.6h-0.3c-0.3-0.5-0.6-1.8-0.9-2.1c-0.1,0-0.2-0.1-0.4-0.1V300
			c-0.1-0.2-1.4-1.2-1.6-1.4c-0.2-0.3-0.3-0.5-0.5-0.8c-0.4-0.2-0.7,0-0.8-0.3c0.3-0.2,0.3-0.4,0.5-0.6c0.4-0.3,0.7-0.7,1.1-1
			c0.3-0.4,0.5-0.8,0.8-1.2c0.2-0.2,0.4-0.4,0.6-0.5c0.2-0.2,0.2-0.5,0.4-0.7c0.4-0.5,1.1-0.8,1.4-1.3c0.9-1.2,1.8-2,2.8-3
			c0.6-0.6,1.1-1.2,1.7-1.8c0.5-0.4,1.1-0.8,1.4-1.3c0.1-0.1,0.1-0.3,0.2-0.4c0.2-0.2,0.6-0.2,0.7-0.5c2.2-2.8,4.4-5.1,7.7-6.9
			c1.8-0.9,3.7-2.2,5.7-2.9c0.7-0.3,2.4-0.4,2.6-0.2c1.3,0.6,1.5,1.6,2.2,2.5c0.3-0.3,0.4-0.1,0.6,0.2c0.1-0.1,0,0,0.2-0.1
			c0.9-1.5-1.3-2.3-1.6-3.4c0-0.1-0.1,0,0-0.1c0.4-0.6,1.4-0.6,2.2-0.8c0.6-0.2,1.9-0.8,2.6-0.6c0.3,0.1,1.4,1,1.7,1.3
			c0.1,0.1,0.1,0.3,0.2,0.4c0.3,0.3,0.6,0.2,0.8,0.6h0.3c0,0.2,0.1,0.4,0.1,0.6c0.4,0.1,0.8,0.3,0.9,0.5c0.2-0.1,0.4-0.1,0.6-0.2
			c0.1-0.3,0.1-0.3,0.2-0.6c-0.3-0.2-0.2-0.4-0.5-0.7c-0.1-0.2-0.5-0.1-0.6-0.3c-0.3-0.2-0.4-0.7-0.7-0.9c-0.3-0.2-0.8-0.4-1-0.7
			h0.1c0.5-0.4,1-0.4,1.4-0.4c0.4,0,1.2-0.3,1.6-0.2c0.8,0.2,1.1,0.6,1.5,1.2c0.1,0.2,0.4,0.2,0.5,0.4c0.8,0.9,1.1,2.8,2.7,2.8
			c0,0,0.1-0.1,0.1-0.1c0-0.2,0.1-0.6-0.1-0.9c-0.2-0.2-0.4-0.3-0.5-0.5c-0.5-0.7-0.8-1.5-1.1-2.2h0.4c0.9-0.4,3.8,1.4,4.5,1.7
			c0.4,0.2,0.8,0.4,1.1,0.3c0.6,0.3,1.4,0.8,2,1.1c0.5,0.2,1,0.1,1.4,0.5c0.8,0.7,1.5,1.1,2.5,1.8c0.1,0.2,0.2,0.3,0.3,0.5
			c1.2,0.9,2.4,1.5,3,2.7c0.4,0,0.4,0,0.9,0v-0.2c0.2-0.2,0.2-0.3,0.2-0.6c-0.5-0.6-0.9-1.6-1.5-2c-2-1.2-3.4-2.4-5.2-3.6
			c-0.3-0.2-0.7-0.1-1.1-0.3c-0.4-0.1-0.8-0.5-1.1-0.6c-0.4-0.2-0.7-0.1-1.1-0.3c0,0-0.4-0.5-0.4-0.5H460c-0.5-0.2-1.2-0.6-1.7-0.8
			h-0.5c-0.1-0.1-0.2-0.2-0.3-0.4c-0.3-0.2-0.7-0.1-1.1-0.3c-0.2-0.1-0.4-0.4-0.5-0.5c-0.9-0.4-2-0.3-2.9-0.5h-0.5
			c-0.6-0.3-1.3-1.4-1.7-1.8c-0.1-0.1-0.3-0.1-0.5-0.2c-0.2-0.2-0.3-0.6-0.5-0.8c-0.2-0.2-0.7-0.2-0.9-0.4v-0.2h-0.3
			c-0.2-0.1-0.3-0.5-0.5-0.6c-0.3-0.3-0.8-0.2-1.2-0.5c-0.6-0.3-1.3-0.9-2-1.3c-0.4-0.2-1.5-0.4-1.6-0.5c0-0.1-0.1-0.2-0.1-0.3
			c-0.3-0.2-0.5-0.1-0.7-0.2c-0.2-0.1-0.4-0.4-0.5-0.5c-0.4-0.2-0.8,0-1.2-0.2c-0.5-0.3-1.9-1.2-2.4-1c-0.3,0.1-0.5,0.2-0.6,0.5
			c0.1,0.1,0.1,0.2,0.1,0.5c0.6,0.3,1.4,1.2,2,1.4c0.4-0.1,0.8-0.1,1.3-0.2c0.6,0.1,0.9,0.3,1.7,0.4c0,0.2,0,0.2,0.1,0.3
			c0.2,0.1,0.6,0.3,0.9,0.4c0,0,0.1-0.1,0.1-0.1c0.1,0.1,0.5,0.5,0.6,0.6c0.3,0.2,0.8,0.1,1.1,0.3c-0.1,0.3,0.3,0.2,0.6,0.5
			c0.9,0.5,1.7,1.3,2.4,1.9c0.6,0.5,1.3,0.7,1.4,1.8c0,0-0.1,0.1-0.1,0.1c-1.1,0.1-3.6,0.6-4.3,0.3c-0.2-0.1-0.3-0.4-0.5-0.5
			c-0.6-0.4-1.2-0.6-1.8-1c-0.4-0.3-0.8-0.9-1.3-1.2c-0.2-0.1-0.4,0-0.6-0.2c-0.4-0.3-0.9-0.7-1.3-0.9c-0.3-0.1-0.5,0-0.7-0.2
			c-0.8-0.4-1.9-1.1-2.6-1.4c-0.7-0.2-3.6-1.2-4.2-0.5c-0.1,0.2-0.1,0.3-0.2,0.5l0.5,0.5c0.4,0.2,0.5-0.1,0.8,0
			c0.3,0.1,0.8,0.3,1,0.4c0.2,0.1,0.5,0,0.5-0.1c0.4,0,1.1,0.1,1.3,0.2s0.4,0.4,0.6,0.5c0.9,0.4,1.7,0.6,2.5,1.1
			c0.5,0.3,0.8,0.7,1.5,0.8v0.3c0.9,0.3,1.3,1.1,2.2,1.4c0,0.3,0.1,0.3,0.2,0.5c-0.7,0.4-4.3,1.5-5.1,1.4c-1.1-0.2-2.1-1.1-3.1-1.5
			c-0.8-0.4-1.8-0.5-2.6-0.9c-0.7-0.3-1.4-0.9-2.1-1.2c-0.4-0.1-0.8,0-1-0.1c-0.7-0.3-1.2-0.7-2.3-0.7c-0.2,0.2-0.3,0.2-0.5,0.5
			c-0.1,0.2,0,0.3,0,0.6c0.5,0.1,1.1,0.4,1.4,0.6c0.1,0.1,0.7,0,0.8,0c0.4,0.1,0.8,0.4,1.1,0.5c0.4,0.1,1,0,1.2,0.1
			c0.3,0.1,0.9,0.5,1.2,0.6c0.2,0,0.5,0.1,0.7,0.1c0,0.1,0.1,0.2,0.1,0.3c0.6,0.5,1.6,0.3,1.7,1.3c-3.4,0.8-7,2.9-9.6,4.6
			c-0.4,0.3-0.9,0.3-1.4,0.5c-1.4,0.9-2.9,1.7-4.2,2.6l-1,1c-0.8,0.6-1.6,1-2.3,1.6c-0.7,0.6-1.4,1.8-2.5,1.8
			c-0.2-0.2-0.5-0.1-0.7-0.3c-0.1-0.1-0.1-0.3-0.2-0.4c-0.3-0.2-0.9-0.2-1.3-0.4c-0.1-0.1-0.1-0.2-0.2-0.3c-0.3,0-0.5-0.1-0.8-0.1
			c-0.3-0.1-0.8-0.7-1.2-0.8c-0.6-0.2-1.6-0.4-2.3-0.7c-0.5-0.2-1.3-0.9-1.8-1c-0.1,0-0.2,0.2-0.5,0.1c-0.5-0.2-0.9-0.8-1.4-1.1
			c-0.3-0.2-0.6-0.1-0.8-0.3c-0.1-0.1-0.2-0.2-0.3-0.4c-0.2,0-0.4-0.1-0.6-0.1c-0.7-0.4-1.6-0.9-2.2-1.4c-0.7-0.6-1.3-0.5-2.2-0.9
			c-0.5-0.2-1-0.7-1.4-0.9c-0.3,0-0.7-0.1-1-0.1c-1.6,0.5-3,1.7-4.2,2.5c-2.7,1.8-5.1,3.7-8.1,5.2c-0.4,0.1-0.7,0.1-1.1,0.2
			c-0.6,0.2-1.4,0.8-2.1,1.1c-1,0.4-2,0.4-2.9,0.9c-0.1,0.1-0.2,0.2-0.3,0.4h-0.6c-0.2,0.1-0.5,0.4-0.8,0.5
			c-0.4,0.1-0.7,0.1-1.1,0.2c-0.4,0.2-0.7,0.7-1.1,0.9c-0.4,0.2-1.1-0.2-1.5-0.1c-0.5,0.1-1,0.5-1.4,0.6c-1.5,0.5-1.3,0.5-1.8,2
			c-3.2,0.4-3.6,4.7-2.1,7.2c0.3,0.5,0.8,0.5,1.4,0.8c0.2,0.1,0.2,0.5,0.4,0.5c0.2,0.1,0.4-0.2,0.6,0c0.4,0.2,0.9,0.7,1.3,0.8
			c0.6,0.2,1.4,0.1,2,0.1c0.3,0,1.1,0.3,1.4,0.3l0.4-0.2c0.7-0.1,1.4-0.1,2.2-0.2c0.5-0.2,1.1-0.6,1.5-0.8c0.4-0.1,0.8-0.2,1.2-0.4
			c0.2-0.2,0.5-0.5,0.7-0.7c0.3-0.2,0.7-0.3,0.9-0.5c0.7-0.9,1.1-2.2,1.4-3.4c0.7-0.1,1.3-0.4,1.9-0.6c0.3,0,0.7-0.1,1-0.1
			c0.2-0.1,0.5-0.5,0.7-0.6h0.6c0.8-0.2,1.5-0.3,2.3-0.5c1.2-0.3,2.6-1,3.7-1.4c0.6-0.2,1.1-0.1,1.6-0.4c0.3-0.1,0.6-0.5,0.9-0.6
			c0.2,0,0.4-0.1,0.6-0.1c0.6-0.3,1.3-0.8,1.8-1.1c0.3-0.1,0.7-0.2,1-0.4c0.7-0.4,1.1-0.8,2-0.9c0.3,0.3,0.7,0.4,1.1,0.6
			c0.8,0.6,1.8,1.3,2.7,1.8c0.2,0,0.4,0.1,0.6,0.1c0.6,0.2,1.3,0.8,1.8,1.2c0.5,0.4,1.3,0.4,1.4,1.1c-1.4,1-2.3,2.5-3.3,3.9
			c-0.4,0.6-1.6,1.3-2,1.8c-0.8,1-1.4,2.1-2.2,3.1c-0.3,0.4-1,0.8-1.4,1.2c-1,1-2,2.1-2.8,3.3c-0.2,0.2-0.5,0.4-0.7,0.6
			c-0.2,0.2-0.1,0.5-0.4,0.7c-0.4,0.3-1,0.6-1.3,1c-0.4,0.5-0.6,0.9-1,1.4c-0.2,0.2-0.5,0.5-0.6,0.8c-0.2,0.5,0.4,2,0.4,2
			c0.1,0.1,0.5,0.3,0.5,0.5c0,0.2-0.1,0.4-0.1,0.6c0,0.5,0.1,0.9,0.2,1.3c0,0.4-0.1,0.8-0.1,1.3c0.5,2.2,1.1,4.3,2.1,6
			c0.1,0.1,0.3,0.1,0.4,0.2c0.2,0.2,0.1,0.5,0.3,0.8c0.3,0.5,0.8,0.9,1.3,1.3c0.1,0.1,0.6,0.6,0.5,0.7c-0.6,0.5-2.4,0-3.4,0.2
			c-1.7,0.4-4.7-0.2-5.9,0.1c-0.3,0.1-0.7-0.1-0.9-0.1c-0.8-0.1-1.5,0.3-2,0.5c-0.3,0.2-0.5,0.1-0.6,0.5c-0.8,0.9,0.5,2.6,0.2,3.3
			c-0.1,0.3-0.3,0.3-0.5,0.5c-0.7-0.1-0.9,0.1-1.5,0.2c-0.3,0.1-0.8-0.2-1.4-0.1c-1.2,0.3-2.1,0.7-3,0.5c-0.5-0.1-1.2,0.1-1.7-0.3
			c-0.4-0.3-0.8-1.1-1.2-1.4c-1.2-0.8-2.2-1.9-3.1-3c-0.2-0.3-0.1-0.7-0.4-1c-0.1-0.1-0.3-0.1-0.5-0.3c-0.1-0.2-0.4-0.3-0.2-0.5
			c-0.4-0.5-1.1-0.9-1.4-1.4c-0.4-0.7-0.7-1.4-1.2-2c-0.2-0.1-0.3-0.2-0.5-0.3c-0.4-0.5-0.5-1.1-0.9-1.6l-0.5-0.5
			c-0.3-0.5,0.1-0.8-0.5-1.1c-0.1-0.1-0.1-0.1-0.3-0.1c-0.1-1.2-0.9-2.1-1.4-2.9c-0.1-0.4-0.2-0.7-0.4-1.1c-0.1-0.3-0.8-1.1-0.6-1.3
			c0.5-0.3,1.2,0.1,1.5-0.4c0.2-0.3,0.1-0.7,0.2-1.1c0.5-1.7-0.3-3.1-0.4-5h-0.3c-0.2-2.2-1.5-3-3.1-4.1c-0.2-0.2-0.4-0.5-0.5-0.7
			c-0.1,0-0.2,0.1-0.3,0.1v-0.1c-0.2-0.1-0.1-0.3-0.3-0.5c-0.2,0-0.3-0.1-0.5-0.1c-0.2-0.1-0.2-0.4-0.4-0.5c-0.7-0.4-1.3-0.1-2-0.5
			c-1.8-0.8-5.4-1.9-7.7-1.3c-1,0.3-2,0.7-3,1h-0.6c-0.7,0.2-1.4,0.5-2.1,0.9c-3.6,2.4-6.9,5-9.3,8.7c-0.6,1-0.6,2.3-1,3.5
			c-0.3,0.7-0.8,1.6-1.1,2.3c-0.4,1.2,0.4,4.7,0.8,5.4l0.5,0.4v0.4c0.2,0.4,0.6,0.8,0.8,1.2c0.1,0.3,0.2,0.6,0.3,0.9
			c0.2,0.4,0.8,0.8,1.1,1.2c1,1.6,1.8,2.2,3.2,3.3c0.3,0.3,2.1,1.9,2.3,1.6c0.7,1,3.6,2.4,5.1,2.4c0.7-0.6,3.4-1.4,3.7-2.2
			c0.6-0.7,0.5-2.6,0.1-3.5c-0.1-0.2-0.3-1.1-0.2-1.2c-0.3-0.3-0.9-0.7-1.1-1.1v-0.4c-0.1-0.1-0.6-0.3-0.7-0.6
			c-0.2-0.3-0.2-0.7-0.1-1c-0.3-0.8-0.6-1.1-0.7-1.9c0-0.2,0.1-0.4,0.2-0.5c0-0.2,0.1-0.5,0.1-0.7c0.5-1.1,1.1-1.5,1.9-2.3
			c1.4,0.4,1.6,1.1,2.4,2c0.3,0.3,0.9,0.5,1.3,0.7l1,1c0,0.2,0.1,0.4,0.1,0.5c0.2,0.2,0.6,0.3,0.7,0.5c0.2,0.2,0.1,0.4,0.2,0.7
			c0.1,0.3,0.5,0.5,0.6,0.7c0.2,0.3,0.1,0.7,0.4,1c0.1,0.1,0.4,0.1,0.5,0.2c0,0.2,0.1,0.3,0.1,0.5c0.1,0,0.2,0.1,0.3,0.1
			c0,0,0,0.3,0.1,0.5c0.1,0.1,0.4,0.2,0.5,0.3c0.4,0.5,0.4,1.3,0.8,1.9c0.1,0.2,0.4,0.2,0.5,0.4c0.2,0.3,0.4,0.8,0.6,1.1
			c0.1,0.1,0.4,0.1,0.5,0.2v0.4c0.3,0.5,0.9,0.9,1.2,1.4c0.2,0.3,0.1,0.6,0.3,0.8c0.3,0.4,0.7,0.7,1,1c0.3,0.3,0.3,0.8,0.5,1.1
			c0.1,0.1,0.4,0.2,0.5,0.4c0.2,0.3,0.2,0.8,0.4,1.1c0.5,0.9,1.6,1.4,2.1,2.3c0.4,0.7,0.6,1.4,1.1,2c0.4,0.5,1.1,0.7,1.2,1.5h0.3
			v0.4c0.5,0.2,1.2,1.3,1.7,1.7c-0.1,0.3,0.1,1.3,0.2,1.8c0.5,0.1,0.6,0.5,1,0.7c0.3,0.2,0.6-0.2,0.7-0.2c0.1,0.1,0.1,0.1,0.2,0.2
			c0.1,0,1.2,0,1.4,0c0.9-0.3,2-1.1,3.2-1.1c0.3,0,0.4-0.2,0.7-0.3c0.4-0.1,1.2,0,1.7-0.2c0.7-0.3,1.5-0.4,2.3-0.6
			c2.3-0.5,5-0.5,7.9-0.5v0.4c0.5,0.3,0.4,0.6,1.3,0.6c0.1-0.1,0,0,0.2-0.1v0.2c-0.2,0.2-0.2,0.4-0.2,0.5c0.2,0.3,0.5,0.7,0.8,0.8
			c0.6,0.4,1.8,0,2.3-0.2c0.2-0.1,0.5,0.2,0.8,0.1c0.5-0.1,1.1-0.8,1.6-1c0.7-0.3,1.4-0.7,2.1-1c0.5-0.1,1-0.2,1.5-0.3
			c0.3-0.1,0.9-0.5,1.2-0.5c0.2,0,0.3,0.2,0.5,0.2c0.2,0,0.9-0.4,1.1-0.5c0.5-0.1,0.9-0.1,1.4-0.2c0.1,0,0.4-0.2,0.5-0.3
			c0.4,0,0.8-0.1,1.2-0.1c0.7-0.2,1.3-0.7,2-0.7c0.1,0.5,0.4,1,0.8,1.2c0.1,0.1,0.2,0.1,0.4,0.1v0.4c0.7,0.3,1.1,0.9,1.7,1.3
			c0.3,0.2,0.5,0.1,0.8,0.3c0.3,0.2,0.5,0.6,0.8,0.7c0.2,0,0.4,0.1,0.6,0.1l0.2,0.4h0.4c0.3,0.2,0.6,0.6,0.9,0.7
			c0.2,0,0.5,0.1,0.7,0.1c0.1,0.1,0.2,0.4,0.3,0.5c0.2,0.1,0.7,0.4,0.8,0.5c0.4,0.2,0.8,0.1,1.1,0.4c0.2,0.2,0.3,0.4,0.5,0.5
			C418.5,346.6,418.7,346.4,419.1,346.6z M456.7,323c-0.7-0.5-1.3-1.2-2-1.8c-0.2-0.1-0.4-0.4-0.5-0.6v-0.3
			c-0.1-0.1-0.3-0.1-0.4-0.2c-0.6-0.7-1.3-1.2-2-1.8c-0.2-0.2-0.4-0.5-0.5-0.7c-0.2-0.2-0.5-0.2-0.6-0.4c-0.3-0.3-0.3-0.7-0.6-0.9
			c-0.2,0-0.3-0.1-0.5-0.1l-0.2-0.4c-0.7-0.5-1.3-0.9-2-1.4c-0.4-0.3-0.2-0.9-0.8-1.1V313c-0.8-0.2-2.2-1.5-2.5-2.1
			c0-0.2-0.1-0.3-0.1-0.5c-0.1-0.1-0.3-0.1-0.5-0.2c-0.4-0.3-0.7-1-1.1-1.3c-0.2-0.1-0.4-0.1-0.5-0.2c0-0.3-0.2-0.7-0.5-0.9v-0.3
			H441c-0.5-0.8-1.1-1.6-1.2-2.8c0.2-0.2,0.4-0.5,0.5-0.7c0.5-0.2,1.7-0.3,2-0.1c0.1,0.1,1.4,1.2,1.4,1.3c0,0.2,0.1,0.3,0.1,0.5
			c0.3,0.3,1.2,0.7,1.6,1c0.3,0.2,0.4,0.8,0.6,1.2c0.2,0.3,0.5,0.3,0.8,0.5c0.7,0.5,1.8,2,1.9,2.7c0.7,0,1,0.7,1.4,1.2
			c0.5,0.6,1.4,0.9,1.9,1.4c0.4,0.5,0.6,1,1,1.4c0.3,0.3,0.9,0.5,1.2,0.9c1,1.4,2.2,2.7,3.5,3.7c0.3,0.2,0.5,0.7,0.8,1
			c0.5,0.4,1.2,0.7,1.7,1.1c0.1,0.1,0.1,0.4,0.3,0.5c0.2,0,0.4,0.1,0.5,0.1c0.5,0.3,0.8,0.7,1.4,0.9v0.3c0.8,0,1.3,0.4,1.8,0.6
			c0.3,0.2,1.7,0.2,2.5,0.2c0.4-0.5,1.2-0.6,1.5-1.1c0.5-0.7,0.9-1.7,1.4-2.3c0.2-0.2,0.5-0.3,0.7-0.5c0.5-0.7,1-1.4,1.6-2.1
			c0.1-0.1,0.4-0.2,0.5-0.4c1.2-1.7,2.4-3.3,3.7-4.9c0.3-0.3,0.8-0.6,1.1-0.9c0.2-0.2,0.1-0.4,0.3-0.6c0.6-0.9,2.7-2,3.9-2.3
			c0.9-0.3,1.8,0,2.5-0.2c2.3-0.6,3-0.2,4.6,0.9c0.2,0,0.3,0.1,0.5,0.1c0.1,0,1,1.2,1.1,1.4v0.3c0.1,0.2,0.4,0.2,0.5,0.4
			c0.4,0.5,0.5,1.4,0.8,2h0.2c0.1,0.3-0.1,1.9-0.2,2.3c0,0.3,0.3,0.4,0.2,0.7c-0.1,0.1-0.2,0.1-0.3,0.2c-0.2,0.4-0.1,0.7-0.4,1.1
			c-0.3,0.4-1,0.7-1.3,1.1c-0.2,0.3-0.1,0.5-0.4,0.7c-0.4,0.3-0.9,0.2-1.6,0.4c-2.7,0.7-5.5-0.6-5.4-3.7c0.5-0.3,0.9-1,1.4-1.2
			c0.6-0.2,1.1-0.1,1.4-0.7c0.1-0.1,0.1-0.2,0.2-0.5c-0.3-0.3-0.2-0.5-0.8-0.5c-0.4-0.3-1-0.2-1.4-0.1c-0.3,0.1-0.8,0-1.2,0.3
			c-0.9,0.6-1.4,1.9-2.3,2.4c-0.9,0.5-1.4,1.3-2.1,2.1c-0.3,0.3-0.6,0.5-0.9,0.8c-0.2,0.3-0.3,0.7-0.5,0.9c-0.2,0.2-0.6,0.2-0.7,0.5
			c-0.6,0.8-0.9,1.6-1.5,2.3c-0.2,0.2-0.6,0.3-0.8,0.5c-0.2,0.3-0.2,0.6-0.4,0.9c-0.3,0.4-0.9,0.8-1.2,1.4c0,0.2-0.1,0.4-0.1,0.5
			c-0.2,0.4-0.8,0.5-1.2,0.8c-0.4,0.4-0.7,0.7-1.1,1.1c-0.6,0.4-1.5,0.6-2.3,0.8c-0.4-0.1-0.9-0.4-1.2-0.5c-0.1,0-0.2,0.2-0.4,0.1
			c-1.1-0.3-2.1-1.2-3.1-1.7c-0.7-0.3-1.3-0.5-1.9-0.9c-0.4-0.3-0.6-0.8-0.9-1.1c-0.2-0.2-0.5-0.2-0.6-0.4c-0.1-0.1-0.1-0.3-0.2-0.4
			c-0.3-0.3-0.7-0.3-1.1-0.5c-0.3-0.2-0.5-0.6-0.7-0.9C457,323.1,456.8,323.1,456.7,323z M543.2,357.8c0.7-0.5,0.9-2,1.5-2.3
			c0.2,0.3,0.2,0.7,0.2,1.2c0,0-0.5,2-1.4,2C543.3,358.3,543.2,358.3,543.2,357.8z M539.3,361.2c0.3-0.4,2.3-2.1,2.6-1.9
			c0.3,0.2,0.4,0.3,0.5,0.6c0.1,0.5-1.8,2.4-2.4,2.4v-0.5C539.7,361.7,539.4,361.5,539.3,361.2z M535.9,364.6
			c0.4-0.4,0.3-0.9,0.3-1.5c0.4-0.3,0.7-0.5,1.4-0.5c0.3,0.6,0.8,0.7,0.8,1.5c-0.1,0.1,0,0-0.1,0.2c-0.8,0.2-1.2,0.7-2.1,0.7
			C536,364.8,535.9,364.7,535.9,364.6z M529.7,366c0.3-0.2,0.9-0.4,1.2-0.5c0.4,0,0.8-0.1,1.2-0.1c0.6-0.2,1-0.6,1.8-0.7
			c0.3,0.5,0.6,0.7,0.6,1.4c-0.1,0-0.2,0.1-0.3,0.1c-0.3,0.2-3.8,0.9-4.2,0.8C529.9,366.6,529.8,366.4,529.7,366z M523.9,367
			c0.8,0,3.2-0.5,3.5,0h0.1c0,0-0.1,0.1-0.1,0.1c-0.4,0.5-2.4,0.8-3.3,0.6C524.1,367.5,524,367.4,523.9,367z M519,367.5
			c0.9,0,2.1,0.3,2.4,0.1c0.1,0,0.2-0.1,0.3-0.1c0.1,0.1,0.2,0.1,0.3,0.2c-0.2,0.2-0.2,0.3-0.6,0.4C520.8,367.7,519.6,368,519,367.5
			z M517.6,367.2h0.5C517.9,367.3,517.8,367.3,517.6,367.2z M513.8,361.5c0.2-0.1,0.2-0.3,0.4-0.4c0.2,0.1,0.8,0.1,1.2,0.4
			c0.2,0.2,0.5,0.5,0.7,0.7c0.4,0.2,0.7,0.2,1.1,0.4c0.4,0.2,0.9,0.6,1.3,0.8c0.4,0.2,2-0.1,2.3-0.2c0.5-0.1,1.5,0.2,2,0.1
			c1.7-0.4,2.7-1.5,3-3.1c0.3-1.4-1.2-3.3-2.1-4.1c-0.5-0.4-1.1-0.4-1.4-1c0,0,0.1-0.1,0.1-0.1c0.7,0,1.3-0.4,1.9-0.6
			c0.9-0.3,1.5-0.3,2.3-0.6c0.1-0.1,0.3-0.3,0.5-0.4c0.6-0.2,0.9-0.1,1.4-0.4c0.4-0.2,0.9-0.6,1.3-0.8c0.2,0,0.4-0.1,0.6-0.1
			c0.8-0.5,1.6-1.3,2.4-1.6c1.9-0.8,6-0.6,7.9,0.3c0.9,0.4,1.5,1.3,2.2,2c0.1,2.7-1.2,4.2-3,5.2v0.3h-0.3c-0.5,1-3,2-4.1,2.6
			c-1.7,1-3.1,2-5.2,2.8c-0.4,0-0.8,0.1-1.2,0.1c-1.5,0.5-2.9,0.7-4.4,1c-0.2,0-0.8-0.1-1.2,0c-0.8,0.2-1.8,0.6-2.6,0.7
			c-1.1,0.2-5-0.9-5.4-1.3c-0.2-0.3-0.3-0.7-0.5-1c-0.1-0.1-0.2-0.1-0.4-0.2C514.2,362.8,513.9,362.1,513.8,361.5z M469.1,345
			c0.1-0.7-0.3-2.2-0.2-2.9c0,0,0.2-0.2,0.2-0.3c-0.1-0.2-0.3-0.2-0.3-0.7c0,0,0.1-0.1,0.1-0.1c0.5,0,0.7-0.3,1.2-0.4
			c0.6-0.1,1.3-0.1,1.9-0.2c1.1-0.3,2.3-0.5,3.3-0.9c0.7-0.3,1.3,0,2.1-0.2c1.9-0.5,3.9-0.8,6.2-0.8c0.4,0.4,3.8,0.3,4.3,0.5
			c1.9,0.5,3.6,1.6,5.2,2.4c0.2,0,0.5,0.1,0.7,0.1c0.8,0.3,1.6,1,2.4,1.4h0.5c0.2,0.1,0.3,0.5,0.5,0.6h0.5c0.5,0.2,0.9,0.7,1.3,1
			c0.5,0.3,1,0.4,1.5,0.6c0.5,0.2,1,0.8,1.4,1.1c0.4,0.3,0.9,0.3,1.3,0.6c1,0.7,1.8,1.7,2.8,2.3c0.7,0.4,1.5,0.6,2.2,1.1v0.2
			c0.3,0.2,0.5,0.2,0.8,0.5c0,0.1,0.1,0.2,0.1,0.3c0.2,0.1,0.5,0.2,0.7,0.3c0.1,0.1,0.2,0.2,0.3,0.4h0.4c0.4,0.2,1,0.6,1.4,0.8
			c0.2,0,0.5,0.1,0.7,0.1c0.1,0.1,0.4,0.7,0.6,0.8c0.4,0.2,0.9,0.1,1.2,0.4c0.9,0.6,1.7,1.4,2.7,1.9c0.8,0.4,2,0.9,2.8,1.1
			c0.5,0.1,1,0.1,1.5,0.2c0.6,0.3,0.8,1.1,1.4,1.4c0.1,0,0.2,0.1,0.4,0.1c0.2,0.2,0.2,0.5,0.4,0.7c-0.3,0.6-0.3,1.5-0.9,1.8
			c-0.5,0.3-1.9,0-2.8,0.2c-1.1,0.2-1.4-0.1-2.3-0.6c-0.1,0-0.6,0-0.8-0.2c-0.2-0.2-0.2-0.5-0.5-0.6c-0.9-0.5-1.8-0.8-2.6-1.3
			c-0.5-0.3-1.1-0.9-1.6-1.2c-0.6-0.3-1.1-0.3-1.7-0.5c-0.5-0.2-1.2-0.7-1.6-1c-0.1-0.1-0.2-0.2-0.3-0.4c-0.4-0.2-0.7-0.2-1.1-0.5
			c-0.8-0.6-1.7-1.6-2.4-2.1c-0.4-0.3-0.9-0.3-1.3-0.6c-0.3-0.3-0.6-0.8-0.9-1c-0.2,0-0.4-0.1-0.5-0.1c-0.5-0.2-1.1-0.8-1.5-1.1
			c-0.4-0.2-0.8-0.1-1.1-0.4c-0.1-0.1-0.2-0.4-0.4-0.5c-0.3-0.2-0.8-0.1-0.9-0.2l-0.5-0.5c-0.3-0.2-0.6-0.1-0.9-0.3
			c-0.2-0.2-0.3-0.3-0.5-0.5c-0.2,0-0.3-0.1-0.5-0.1c-0.4-0.3-0.9-0.8-1.4-1.1c-0.6-0.3-1.2-0.7-1.8-0.9c-0.2-0.1-0.6-0.1-0.6-0.1
			c-0.6-0.3-1.3-0.8-1.9-1.1c-0.2-0.1-0.3,0.1-0.6,0c-0.2-0.1-0.5-0.4-0.7-0.5c-0.4-0.2-0.9-0.1-1.2-0.4c-2.2,0.4-5,0.5-7.1,1
			c-0.5,0.1-0.9-0.1-1.5,0.1c-0.7,0.2-1.4,0.6-2.1,0.8h-1.2c-0.2,0.1-0.5,0.3-0.7,0.4c-0.3,0-0.6-0.1-0.9-0.1
			c-0.3,0.1-0.8,0.2-1.1,0.2c-1.7-0.3-3.9,0.8-4.6,0.5c-0.1-0.1,0,0-0.1-0.2C468.5,346.1,469,345.3,469.1,345z M414.3,338.4
			c0.1-0.1,0.1-0.1,0.2-0.2c0.5,0.2,2.1-0.7,3.1-0.7c-0.2,0.4-1.4,2-1.8,2.1C415.3,339.2,414.5,339.1,414.3,338.4z M391.2,338.1
			c0.2-0.1,0.5-0.1,0.8-0.1c0.3,0.1,0.8-0.2,1.2-0.2c0.5,0,1.4-0.1,2.1,0c0.1,0,0.3,0.2,0.5,0.1c0.2-0.1,0.4-0.3,0.7-0.3
			c0.8,0.1,0.8,0,1.4-0.2c0.3-0.1,0.7,0.2,1.3,0.1c1-0.3,2.3-0.4,3.3-0.8c0.1,0,0.4,0.1,0.6,0c0.3-0.1,0.7-0.4,1-0.5h1
			c0.3-0.1,0.9-0.5,1.4-0.5c1-0.2,2.5-0.3,3.6-0.6c0.4-0.1,0.2,0.2,0.5,0.1c0.1,0,0.1-0.1,0.2-0.1v0.2c-0.6,0.2-1.1,0.5-1.6,0.7
			h-0.6c-0.3,0.1-0.8,0.4-1.1,0.5c-0.1,0-0.4-0.1-0.6,0l-0.3,0.3c-0.2,0-0.3-0.1-0.5-0.1c-0.4,0.1-1,0.2-1.4,0.4
			c-0.8,0.3-2,0.9-2.8,1.1c-0.2,0.1-0.4-0.2-0.7-0.1l-0.3,0.3c-0.3,0-0.6,0.1-0.9,0.1c-0.5,0.2-1,0.5-1.4,0.7
			c-0.3,0.1-0.5,0.1-0.8,0.2c-1,0.5-2.3,1.2-3.5,1.5c-0.2,0-0.4-0.1-0.5-0.1c-0.3,0.1-0.6,0.4-0.9,0.3c-0.1-0.1-0.4-0.7-0.5-0.7
			v-0.5c-0.1-0.1-0.4-0.2-0.5-0.3C391.6,339.1,391.3,338.3,391.2,338.1z M389.9,334L389.9,334c0.6-0.2,1.3-0.4,1.7-0.5h0.8
			c0.8-0.2,1.9-0.3,2.6-0.5c0.3-0.1,0.9,0.1,1.1,0.1c0.3,0,0.8-0.3,1-0.4c0.2,0,0.3,0.1,0.5,0.1c1-0.2,2.7-0.5,3.4-0.6
			c0.3-0.1,0.9,0.1,1,0.2c0.7,0.2,1.4-0.1,1.7-0.2c0.3-0.1,1,0.2,1.5,0.1c0.8-0.2,1.7,0.1,2.4-0.1c1.3-0.3,2.6-0.4,4.1-0.7
			c0.3-0.1,0.5,0.1,0.6,0.1c0.6,0.1,1.1,0,1.8-0.2c1.2-0.3,2,0.1,3-0.1v0.3c-0.2,0.1-0.2,0.1-0.5,0.2c-0.4-0.2-1.3,0.1-1.7,0.2h-1.6
			c-0.8,0.2-1.7,0-2.7,0.3c-0.2,0.1-0.4,0.2-0.8,0.2c-1.6-0.2-5.1,1-7.1,1.6c-1,0.3-1.8,0.2-2.6,0.6c-0.2,0.1-0.1-0.1-0.1-0.2
			c0,0-1.7,0.1-2,0.2c-1,0.3-3.2,0.4-4.3,0.3c-0.4-0.1-0.9,0.1-1.4,0.2c-0.3,0-0.4-0.1-0.5-0.2c-0.6,0-1.3,0.1-1.9,0.1
			C389.9,334.6,389.9,334.3,389.9,334z M336.9,312.5c0-0.1,0.1-0.2,0.1-0.3h0.4c0.1,0.2,0.2,0.3,0.2,0.6c-0.2,0.3-0.3,0.8-0.4,1.2
			h-0.1C337.1,313.5,336.8,312.7,336.9,312.5z M339.7,308.3c-0.3,0.6-0.9,1-1.2,1.5c-0.2,0.3,0,0.7-0.2,0.9
			c-0.1,0.1-0.3,0.1-0.5,0.1c-0.4-0.4-0.8-0.5-0.8-1.3c0.4-0.4,1.1-1.7,1.4-2.2h0.3C338.8,307.8,339.3,308,339.7,308.3z M344,304.4
			L344,304.4c-0.7,0.9-2,1.2-2.7,1.9c-0.3,0.3-0.1,0.5-0.7,0.5c0-0.3-0.1-0.6-0.1-0.6c-0.1-0.1-0.3-0.2-0.5-0.3
			c0.4-0.4,0.6-0.9,1-1.3c0.5-0.4,1-0.6,1.4-1.1c0.2,0.1,0.4,0.1,0.6,0.1C343.4,303.9,343.8,304.1,344,304.4z M347.1,301.8h-0.2
			c-0.2,0.1-0.6,0.1-0.9,0.1v0.3c-0.2,0.1-0.1,0-0.2,0.2c-0.2-0.1-0.6-0.4-0.7-0.5c0.6-0.4,0.9-0.9,2-0.9
			C347.2,301.3,347.2,301.5,347.1,301.8z M352.1,299.9c-1,0-1.2,0.4-2.3,0.4v-0.1c0.1-0.1,0.1-0.1,0.3-0.2c0.4-0.2,0.9-0.2,1.4-0.4
			c0.2,0.2,0.4,0.2,0.7,0.1L352.1,299.9L352.1,299.9z M363.4,310.4L363.4,310.4C363.4,310.5,363.3,310.5,363.4,310.4
			c-0.3-0.1-0.8-0.2-0.9-0.4c-0.3-0.4-0.3-1-0.6-1.4c-0.5-0.6-1-1.1-1.4-1.7c-0.2-0.3-0.2-0.6-0.5-0.8v-0.4c-1-0.1-1-1-1.8-1.3
			c-0.4,0-0.7,0.1-1.1,0.1c-0.4,0-0.8-0.1-1.3-0.1c-1.6,0.4-1.9,1.7-2.6,3c-0.1,0.3-0.5,0.6-0.6,0.9c-0.2,0.8,0.2,2.4,0.1,3.3
			c-0.5,0.3-0.9,0.8-1.4,1c-0.6,0.3-1.2,0.1-1.7,0.5c-0.7,0.5-1,1-1.4,1.7c-0.2,0.3-0.6,0.4-0.8,0.7c-0.4,0.6-0.9,1.6-1.1,2.3
			c-0.3,0.8,0.3,3.8,0.5,4.3c0.6,1.6,2.6,2.3,2.6,4.6c-0.3,0.2-0.3,0.3-0.8,0.3c-0.4-0.3-0.9-0.3-1.4-0.5l-0.5-0.5
			c-0.4-0.3-1-0.3-1.4-0.6c-0.2-0.2-0.4-0.6-0.6-0.7c-0.3-0.2-0.6-0.3-0.9-0.5c0-0.1-0.1-0.2-0.1-0.3c-0.4-0.3-0.8-0.4-1.1-0.7
			c-0.6-0.6-1.7-2.6-2.1-3.3c-0.1-0.3-0.3-1.3-0.3-1.4c-0.1-0.3-0.4-0.7-0.5-1c-0.3-0.8-0.2-1.5-0.4-2.2c-0.4-1.4,0.5-2.6,0.8-3.3
			c0.8-2.1,2.2-4,3.9-5.2c0.4-0.3,0.8-0.4,1.2-0.7c0.2-0.2,0.5-0.5,0.7-0.7c0.4-0.3,0.8-0.3,1.2-0.6c0.2-0.1,0.2-0.4,0.4-0.5
			c0.2-0.2,0.5-0.2,0.6-0.4v-0.2c0.5-0.5,2.3-0.8,3.1-1.2c0.5-0.3,1.3-0.8,1.9-0.9c3.9-0.7,7.9,1.3,9.9,3.5c0.8,0.9,1.2,3.4,1.2,5.2
			C363.8,310.3,363.8,310.4,363.4,310.4z M388.3,336.8c-0.1,0.1-0.2,0.1-0.5,0.1c-0.4,0.2-3.3-0.2-4.3,0.1c-1.7,0.4-3.6,0.4-5.3,0.9
			c-0.4,0-0.7-0.1-1.1-0.1c-1.1,0.3-2.4,0.5-3.3-0.1c-1.2-0.6-2.5-2.9-3.2-4.1c-0.1,0-0.2,0.1-0.3,0.1c0-0.2,0.1-0.3,0.1-0.5
			c-0.1-0.2-0.6-0.4-0.7-0.5c0-0.2-0.1-0.4-0.1-0.5c-0.2-0.4-0.7-0.7-1-1.1c0-0.2-0.1-0.4-0.1-0.5c-0.1-0.1-0.4-0.1-0.5-0.2
			c0,0,0-0.3-0.1-0.5c-0.2-0.2-0.6-0.4-0.7-0.6v-0.4c-0.2-0.1-0.3-0.2-0.5-0.3v-0.4c-0.2-0.5-0.8-1-1.1-1.4
			c-0.2-0.3-0.2-0.6-0.4-0.9c-0.5-0.7-1-1.2-1.4-1.9c-0.1-0.2-0.2-0.5-0.3-0.7c-0.2-0.2-0.6-0.3-0.7-0.5c-0.2-0.3-0.2-0.8-0.5-1.1
			c-0.2-0.2-0.5-0.3-0.6-0.5c-0.3-0.4-1-2.1-1.1-2.6h-0.3c-0.1-0.3-0.2-0.6-0.5-0.7v-0.3c-0.4-0.3-0.6-0.8-0.9-1.3
			c-0.2-0.3-1.2-0.8-1.4-1.3c-0.2-0.3-0.1-0.8-0.3-1.1c-0.2-0.4-0.7-0.6-1-0.9c-0.2-0.2-0.2-0.5-0.5-0.8c-0.1-0.1-0.3-0.1-0.4-0.2
			c-0.2-0.4-0.3-0.7-0.5-1h-0.2c-0.1-0.8-0.1-1.5-0.2-2.3c0-0.1,0.7-1.6,0.8-1.7c0.3-0.3,0.5-0.5,0.8-0.8c0.3,0,0.3,0,0.7,0
			c0.3,0.4,0.7,0.3,1.2,0.6c0.3,0.2,1.3,1.4,1.4,1.5c0.2,0.3,0.2,0.7,0.5,1h0.2c0.3,0.2,0.6,0.7,0.8,1c0.7,1.1,1.2,2.3,1.8,3.5
			c0.1,0.2,0.4,0.5,0.5,0.7c0.2,0.4,0.1,0.9,0.4,1.3c0.3,0.4,0.7,0.7,0.9,1.1c0.1,0.2,0.1,0.4,0.2,0.5c0.1,0.1,0.4,0.2,0.5,0.4v0.5
			c0.1,0.1,0.2,0.2,0.4,0.3c0,0.2,0.1,0.4,0.1,0.5c0.1,0.2,0.4,0.3,0.5,0.5c0.2,0.3,0,0.6,0.2,0.9c0.2,0.4,0.7,0.7,0.9,1
			c0.2,0.3,0.2,0.7,0.5,1.1c0.2,0.1,0.4,0.2,0.6,0.4c0.2,0.2,0.2,0.8,0.4,1c0.3,0.4,0.9,0.6,1.2,1c0.3,0.4,0.7,1.4,1,1.4v0.4
			c0.8,0.5,1.2,1.3,1.7,2.1c0.1,0.1,0.2,0.1,0.4,0.2c0.4,0.3,1,0.9,1.4,1.4c0.3,0.3,0.4,0.6,0.7,0.8c0.1,0.1,0.1,0.1,0.3,0.1
			c0,0.2,0.1,0.3,0.1,0.5c0.3,0.2,0.7,0.5,1,0.6c0.9,0.4,3.2-0.2,4.1-0.5h0.9c1.3-0.3,2.9-0.5,4.6-0.5
			C386.6,333,388.2,335,388.3,336.8z M401.3,327.9c0.2,0,0.7,0.2,0.9,0.3c0.3,0.1,0.8-0.2,1.1-0.2c0.4-0.1,0.7,0.3,1.1,0.2
			c0-0.1,0.1-0.1,0.1-0.2c0.3-0.1,2.1,0.1,2.6,0.2c0.5,0.1,1.3-0.3,1.7-0.4c0.4,0,0.7,0.1,1.1,0.1c0.6-0.1,1.2-0.1,1.9-0.3
			c0.4-0.1,0.5,0.1,0.6,0.2c0.4-0.1,0.8-0.1,1.2-0.2c0.1,0,0.4,0.3,0.5,0.3c0.4,0.1,1.2-0.1,1.8,0c0.2,0.1,0.9,0.2,1.1,0.3
			c0.3-0.1,0.5-0.1,0.8-0.2c0.4,0.1,0.8,0.3,1.4,0.2v0.3c-2.3,0-4.1-0.1-5.9,0.5c-0.3,0.1-0.3-0.2-0.5-0.2c-0.2,0-1.9,0.1-2.3,0.2
			c-2,0.5-3.3,0.1-5.4,0.5c-0.5,0.1-0.9-0.1-1.3-0.1c-0.8,0-2.1,0.2-3.2,0.3c-0.2,0-0.8-0.1-1-0.1c-1.5,0.2-3.4,0.5-4.6,0.8
			c-0.6,0.1-1-0.1-1.4,0c-0.8,0.1-1.6,0.3-2.4,0.5c-0.5,0.1-1.3,0.2-1.6,0.3c-0.2,0-0.4-0.1-0.6-0.1c-0.3,0.1-0.1,0.3-0.5,0.4
			c-0.4-0.8-0.8-1.8-1.2-2.7c0.1-0.1,0.1-0.3,0.2-0.4c0.1-0.1,0.2-0.1,0.4-0.1c0.2,0.2,1.7,0.2,2.2,0.1c0.2-0.1,0.7-0.3,0.9-0.4
			c0.2,0,0.3,0.2,0.4,0.2c0.4,0.1,0.5-0.1,0.8-0.2c0.2,0,0.5,0.1,0.8,0.1c0.6-0.1,1-0.2,1.5-0.3
			C396.6,327.7,398.9,328.2,401.3,327.9z M411.1,288.7c-0.7-0.2-1.3-0.7-1.9-1h-0.5c-0.4-0.1-0.5-0.4-0.9-0.5h-0.5
			c-0.1-0.1-0.3-0.4-0.5-0.5c-0.2,0-0.4-0.1-0.5-0.1c-0.4-0.2-0.8-0.8-1.2-1c-0.2,0-0.4-0.1-0.6-0.1c-0.2-0.2-0.4-0.4-0.5-0.6
			c-0.3-0.2-0.6-0.2-0.9-0.5v-0.2c-0.2-0.1-0.4-0.1-0.6-0.2c-0.2-0.1-0.5-0.4-0.7-0.5c-0.2-0.1-0.4,0-0.6-0.2
			c-0.1-0.1-0.2-0.2-0.3-0.4c-0.3-0.2-0.6,0-0.9-0.2c-0.2-0.1-0.2-0.4-0.4-0.5c-0.3-0.2-0.8-0.3-1.1-0.4c-2.2-0.6-4.2,1.5-5.3,2.3
			c-0.5,0.4-1.1,0.8-1.6,1.1c-0.3,0.1-0.4,0-0.6,0.2c-0.5,0.4-1,1-1.5,1.3c-0.9,0.4-1.7,0.5-2.6,0.9c-0.8,0.4-1.7,1.1-2.6,1.4
			c-0.3,0-0.6,0.1-0.9,0.1c-0.3,0.1-0.7,0.5-0.9,0.5c-0.2,0-0.3-0.1-0.5-0.1c-0.3,0.1-0.9,0.5-1.1,0.5c-1,0.2-1.7-0.1-2.3,0.6
			c-0.2,0.2-0.2,0.5-0.2,0.9c1,0.9,1.4,2.3,0.7,3.6c-0.2,0.4-0.2,0.7-0.6,0.8c-0.7,0.6-1.5,0-2.6,0.3c-0.2,0-0.4,0.2-0.6,0.2
			c-0.5-0.1-1-0.4-1.6-0.5v-0.4c-1.7,0-2.7-1.3-3.1-2.6c-0.2-0.5-0.3-1.5,0-1.9c0.5-1.4,2.1-1.1,3.7-1.5c0.8-0.2,1.3-0.5,2.2-0.9
			c0.6-0.2,1.1-0.2,1.6-0.5c0.4-0.2,0.7-0.6,1.1-0.7c0.6-0.3,1.4-0.4,1.8-0.5c3-1.5,6.3-2.8,8.7-5c0.5-0.4,1.2-0.4,1.7-0.8
			c0.2-0.2,1.2-1.1,1.4-1.4c0-0.1,0.1-0.2,0.1-0.3c0.2-0.2,0.6-0.2,0.9-0.4v-0.1h0.5c0.5-0.2,1.1-0.8,1.8-0.9c0.3,0,0.6,0.2,0.7,0.3
			c0.2,0,0.4-0.1,0.6-0.1c0.2,0.2,0.3,0.3,0.5,0.5c0.5,0.3,0.9,0.2,1.4,0.5c0.8,0.4,1.6,1.2,2.4,1.7c3.6,2.2,8,3.4,11.6,5.4
			C413.1,287.1,411.5,288.9,411.1,288.7z M413.2,301.2c-1.1,0.7-1.8,1.9-2.7,2.8c-0.7,0.7-1.7,1.5-2.3,2.3c-0.3,0.4-0.7,1.2-1,1.5
			c-0.1,0.1-0.3,0.1-0.5,0.3c-0.8,1-1.4,2-2.2,3l-2.1,2.1c-0.7,0.9-2.5,3.8-3.5,4.2v-0.4h-0.3c-0.1-1.6-1.3-1.6-0.5-3.3
			c0.3,0,0.2,0.1,0.4,0c0.2-0.2,0.4-0.6,0.6-0.8c-0.1-0.2-0.2-0.3-0.1-0.4c0.3-1.2,2.1-3.2,3-4c0.6-0.5,1-1.3,1.6-1.8
			c1-0.9,2-1.8,2.9-2.8c0.2-0.2,0.2-0.6,0.4-0.8c0.4-0.4,1-0.6,1.4-1c0.7-0.8,2-2.9,3-3.3C411.2,300.2,413.1,300.1,413.2,301.2z
			 M417.3,306.3c-0.4,0.6-1.3,1-1.7,1.6c-0.2,0.3-0.3,0.7-0.5,1c-0.3,0.2-0.5,0.5-0.8,0.7c-0.1,0.2-0.2,0.5-0.3,0.7
			c-0.1,0.1-0.3,0.1-0.5,0.3c-0.5,0.5-0.8,1.2-1.3,1.7c-0.3,0.4-0.9,0.6-1.2,1c-1.4,1.7-2.6,3.5-4.1,5.2c-0.3,0.4-0.8,0.7-1.3,1
			c-0.5,0.4-0.8,1-1.2,1.4c-0.6,0.8-1.5,1.2-2,2.1c0,0-0.1-0.1-0.1-0.1c-0.3-0.2-1.7-2.4-1.7-2.9c1.9-1.2,3-3.3,4.3-5.1
			c0.5-0.7,1.5-1.1,2-1.8c1.1-1.5,2.1-3,3.3-4.4c0.1,0,0.2-0.1,0.3-0.1c0.3-0.3,0.4-0.7,0.7-1c0.2-0.2,0.5-0.3,0.7-0.5
			c0.7-0.9,2.1-2.9,3-3.4c0.6,0.7,1.1,1.3,1.8,1.9C417,305.7,417.4,306.1,417.3,306.3z M422.6,310.7c-1.3,0.4-2.2,1.1-3,2.3
			c-0.2,0.4-0.2,0.8-0.5,1.2c-0.2,0.2-0.4,0.3-0.6,0.5c-0.4,0.4-0.5,0.9-0.8,1.4c-0.4,0.6-1.2,1-1.7,1.5c-0.7,0.7-1.2,1.5-1.8,2.3
			c-0.4,0.5-1,0.9-1.4,1.4c-0.1,0.2-0.4,0.6-0.5,0.8c0,0.2,0.1,0.4,0.1,0.6l-0.4,0.4c-0.1,0.3,0.1,0.6,0,0.7
			c-0.2,0.2-0.2,0.2-0.5,0.2c-0.4,0.2-2.7-0.1-3.2-0.2c-0.8-0.2-2.4,0.3-3.2,0.5c0.6-0.5,1.1-0.9,1.7-1.4c0.2-0.3,0.3-0.5,0.5-0.8
			c0.7-0.5,1.5-0.9,2-1.5c0.1-0.2,0.1-0.4,0.2-0.5c0.2-0.2,0.5-0.4,0.7-0.5c0.4-0.5,0.8-1,1.2-1.5c0.2-0.3,0.2-0.7,0.4-0.9
			c0.2-0.2,0.5-0.2,0.7-0.5c1-1.4,2.3-2.5,3.3-3.8c0.8-1,2.6-4.4,3.6-4.8C420.2,308.8,422.2,309.7,422.6,310.7z M426.6,314.5
			c-0.4,0.8-1.4,1.8-2,2.4c-0.5,0.5-0.8,1.2-1.2,1.7c-0.2,0.2-0.4,0.4-0.6,0.5v0.5c-0.1,0.1-0.4,0.2-0.5,0.3
			c-0.3,0.2-0.4,0.5-0.6,0.8c-0.4,0.5-1,0.9-1.4,1.3c-0.5,0.4-0.8,1.6-1.3,2c-0.2,0.1-2.7-0.2-3.4-0.1c0-0.1-0.1-0.2-0.1-0.3
			c0.2-0.3,0.2-0.7,0.5-1c0.2-0.2,0.4-0.3,0.6-0.5c0.6-0.7,1-1.5,1.5-2.3c0.4-0.3,0.7-0.6,1.1-0.9c0.8-1.1,1.8-2,2.5-3.1
			c0.7-1,1.3-2.1,1.9-3.1c0.2-0.4,0.3-0.8,0.5-1.1C424.4,312.6,425.9,314.1,426.6,314.5z M431.3,318.2c-1.3,0.8-1.8,2.4-2.5,3.7
			c-0.5,0.8-1.3,1.5-1.8,2.3c-0.1,0.2-0.2,0.5-0.3,0.7c-0.2,0.3-0.8,0.5-0.9,0.7c0,0.2,0.1,0.3,0.1,0.5c-0.1,0.5-0.4,0.8-1,0.8
			c-0.9-0.7-2.1-1.4-3.1-2c0,0,0.1-0.1,0.1-0.1c0.3-0.8,1.4-1.5,2-2.1c0.6-0.5,1-1.3,1.5-2c0.3-0.4,0.9-0.7,1.2-1.1
			c0.3-0.4,0.6-0.8,0.8-1.2c0.5-0.7,0.9-2,1.7-2.3v0.1c0.5,0.4,1.5,0.8,1.9,1.5h0.3V318.2z M466.3,340.5c-0.2,0.1-0.2,0.1-0.4,0.3
			c-1-0.3-2.8-0.2-4-0.5c-0.2,0-0.5,0.1-0.7,0.1c0-0.1-0.1-0.1-0.1-0.2c-1,0-1.9-0.1-2.9-0.1c-1.6,0.4-3.1,0.6-4.9,0.4
			c-1.2-0.2-3.5,1.1-4.4,0.7c-0.2-0.1-0.1,0-0.2-0.3c0.6-0.6,1.1-1.1,1.7-1.7c0.2,0,0.4,0.1,0.5,0.1c0.1,0,0.3-0.3,0.4-0.3
			c0.3-0.1,1,0.2,1.4,0.1c1.3-0.3,3.3-0.3,4.6-0.6c1-0.2,2,0.3,2.8,0.2c0.3,0,0.7-0.3,0.9-0.4c0.4-0.1,0.6,0,0.9,0
			c0.6,0.1,1.2,0.2,1.8,0.3c0.1,0,0.4,0.4,0.5,0.4c0.2,0,0.1-0.1,0.2-0.1c0.1-0.1,0.1-0.2,0.2-0.3c0.4,0.2,0.3,0.2,0.8,0.2
			C465.9,339.3,466.3,339.6,466.3,340.5z M454.7,348.5h0.6c0.4,0.3,1.9,0.2,2.3,0.1c0.9,0.4,1.6,0.2,2.6,0.5c0.3,0,0.5-0.1,0.8-0.1
			c0.2,0.1,0.5,0.4,0.9,0.4c0.1,0,0.5-0.3,0.7-0.3c0.3,0,0.5,0.5,0.7,0.5c0.5,0.2,2.2,0.2,2.7,0.3c0.1,0.8,0.2,1-0.2,1.8
			c-1.7,0.2-4-0.5-5.7-1.2h-0.5c-0.3-0.1-0.7-0.4-1-0.5h-0.5c-0.7-0.3-1.7-0.7-2.5-0.8c0-0.2,0-0.2-0.1-0.3c-0.2,0-0.4-0.1-0.8-0.2
			C454.7,348.7,454.7,348.6,454.7,348.5z M446.5,344h1.4c0.3,0.2,3-0.1,3.5-0.3c0.6-0.2,1.2-0.7,2.1-0.5c2.1,0.4,3.6-0.7,6-0.5
			c1,0.1,2.2,0.2,3.1,0.4c0.3,0,0.6-0.1,0.9-0.1c0.4,0.1,1.3,0.3,1.8,0.2c0.6-0.1,1.1-0.5,1.6-0.7c0,0.7-0.1,1.8,0,2.2
			c0,0.1,0.1,0.3,0.1,0.5c-0.1,0.6-0.3,0.7-0.3,1.4c-0.3,0.2-0.7,0.2-1.3,0.2c-0.9-0.6-2.7-0.2-4.1-0.5c-1.4-0.4-2.9-0.3-4.7-0.5
			c-0.4-0.1-1,0.1-1.6,0c-0.7-0.2-2.1-0.4-3-0.6c-0.4-0.1-1.1,0.1-1.4,0.1c-0.5,0-1.3-0.3-1.6-0.5c-0.4-0.1-0.8,0.1-1.1,0.2
			c-0.3,0-0.6-0.1-0.9-0.1C446.9,344.5,446.6,344.4,446.5,344z M436,348c2.8-2.1,5.1-4.8,7.1-7.6c1.3-1.8,3-3.4,4.3-5.2
			c0.6-0.8,1.1-1.6,1.7-2.3l0.9-0.9c0.3-0.5,0.6-1.6,1.1-1.9c0.6,0.5,1.8,0.6,2.5,0.7c0,0.2,0.1,0.1,0,0.3c-0.1,0.5-0.5,0.5-0.7,0.8
			c-0.3,0.4-0.4,0.8-0.6,1.2l-0.5,0.5c-0.1,0.2,0,0.5-0.2,0.7c-0.2,0.2-0.5,0.5-0.7,0.7c-0.8,1.2-1.7,2.2-2.5,3.3
			c-0.2,0.2-0.4,0.4-0.6,0.5c-0.2,0.3-0.3,0.7-0.5,1.1c-0.4,0.6-1.2,0.8-1.6,1.4c-1.1,1.4-2.1,2.5-3.6,3.5c-0.3,0.4-0.7,0.8-1,1.2
			c-0.3,0.2-0.6,0.3-0.8,0.5c-0.2,0.2-0.3,0.4-0.5,0.5c-0.3,0-0.7,0.1-1,0.1c-0.5,0.4-0.2,1.2-1.4,1.3c-0.3-0.2-0.9-0.3-1.4-0.3
			L436,348L436,348z M429.9,346.1L429.9,346.1c0.2-0.4,0.6-0.5,0.9-0.7c0.7-0.7,1.5-1.5,2.2-2.3c0.3-0.3,0.7-0.5,1-0.8
			c2.6-3.4,5.3-6.8,7.9-10.3c0.6-0.8,1.1-1.7,1.7-2.5c0.3-0.2,0.5-0.5,0.8-0.7c0.4-0.6,0.3-1.5,1.1-1.8c0.7,0.6,3,1.4,3.3,2.2h-0.1
			c-0.4,0.6-1.4,0.8-1.9,1.4c-2.5,3.4-5.3,6.4-7.8,9.9c-0.1,0.2-0.3,0.1-0.5,0.3c0,0-1.3,1.4-1.4,1.4c-0.3,0.5-0.6,1.2-1,1.5
			c-0.8,0.7-1.7,1.2-2.4,1.9c-0.5,0.5-0.7,1.5-1.4,1.7c-0.3-0.3-1.1-0.5-1.4-0.5v-0.1C430.9,346.6,430.1,346.3,429.9,346.1z
			 M423.6,343.8c0-0.2,0-0.2,0.1-0.3c0.2-0.7,0.9-1,1.3-1.5c0.7-0.9,1.3-1.6,1.9-2.5c0.5-0.5,1.1-1.1,1.6-1.6
			c3.7-4.9,8.2-9,11.6-14.2c0.6,0.3,2.9,1.4,3.1,2c-1.5,0.5-3.5,3.5-4.4,4.8c-2.5,3.4-5.3,6.7-7.8,10.2c-0.2,0.3-0.5,0.3-0.8,0.5
			c-0.2,0.3-0.5,0.6-0.7,0.9c-1.2,0.9-1.9,1.6-2.4,3.2C425.9,344.8,424.6,343.9,423.6,343.8z M418.3,341.2v-0.3
			c0.2-0.2,0.3-0.6,0.5-0.7c0.2-0.2,0.5-0.1,0.7-0.3c1.1-0.8,1.6-1.8,1.9-3.3c1.5-0.3,5.1-2.1,5.7-3.2c0.4-0.6,0.8-1.9,0.9-2.6
			c0.2-0.9-0.4-1.4-0.5-2.3c0.9-0.3,1.1-1.4,1.6-2.1c1-1.5,2.2-2.9,3.2-4.4c0.3-0.5,0.8-2,1.3-2.2c0.2,0.2,0.5,0.1,0.7,0.3
			c0.2,0.1,0.2,0.4,0.4,0.5c0.5,0.3,1.4,0.6,1.9,0.9c0,0.1,0.1,0.2,0.1,0.3c0.2,0.2,0.5,0.3,0.7,0.5c-0.1,0.2,0,0.1-0.1,0.2
			c-0.2,0.6-0.7,0.8-1.2,1.2c-0.5,0.4-0.8,0.9-1.2,1.4c-0.3,0.2-0.6,0.5-0.9,0.7c-0.1,0.2-0.1,0.4-0.3,0.5c-0.4,0.3-0.7,0.7-1.1,1
			c-0.2,0.3-0.3,0.7-0.5,1.1c-0.1,0.2-0.4,0.1-0.5,0.2c-0.4,0.2-0.6,0.9-0.9,1.2c-0.1,0.1-0.3,0.1-0.5,0.2c-0.2,0.2-0.2,0.5-0.4,0.7
			c-0.5,0.7-1.3,1.2-1.8,1.9c-0.8,1.1-1.6,2.1-2.4,3.3l-1.4,1.4c-1,1.3-1.9,2.5-3,3.6c-0.4,0.4-0.6,1-1.2,1.2
			c-0.2-0.2-0.5-0.4-0.9-0.5v-0.3C418.7,341.4,418.9,341.2,418.3,341.2z M476.4,286.1c0.2-0.3,0.3-0.3,0.4-0.7
			c-0.4-0.2-0.6-0.6-0.9-0.8c-0.4-0.2-0.8,0-1.2-0.2c-0.2-0.1-0.6-0.4-0.8-0.5c-0.7-0.3-1.4,0-2.3-0.2c-0.3-0.1-0.9-0.3-1.1-0.4
			c-0.2,0-0.5,0.1-0.7,0.1c-0.2,0-0.6-0.2-0.7-0.3c-0.4-0.2-1.3,0.3-1.8-0.1c-2-0.1-5.8,0.7-6.8,1.9c-0.2,0.2-0.3,0.5-0.4,0.8
			c0.4,0.3,0.2,0.6,0.9,0.7c0.6,0.3,2.6-1.3,3.3-1.5c0.8-0.3,2.9-0.4,3.6-0.3c0.4,0,0.8-0.1,1.3-0.1c0.9,0.2,2.3,0.6,3.3,0.5
			c0,0.2-0.1,0.1,0.2,0.2c0.2-0.1,0.2-0.1,0.5-0.1c0,0.1-0.1,0.1-0.1,0.2h0.1c0.2,0.1,0.5,0,0.7,0
			C474.7,285.5,475.5,286,476.4,286.1z M468.3,292.1c-0.9,0.1-2.8,0.7-2.2,2c0.1,0.6,0.3,0.3,0.6,0.6c0.2,0.2,0.2,0.5,0.5,0.6
			c0.7,0.5,1.5,0.4,2.4,0.3c0.5-0.7,0.6-1.3,0.7-2.3c-0.4-0.1-0.4-0.4-0.6-0.6C469.4,292.4,468.7,292.4,468.3,292.1z M237.8,333.6
			c0,0.1,0.1,0.2,0.1,0.3c0.2,0.2,0.5,0.1,0.8,0.3c0.4,0.2,0.8,0.5,1.1,0.7c0.1,0.1,0.7,0.3,0.7,0.2v0.3c1,0.2,1.8,1.1,2.6,1.5h0.5
			c0.1,0.1,0.3,0.3,0.5,0.4c0.3,0.2,0.5,0,0.9,0.2c0.3,0.1,0.7,0.5,1,0.6c0.5,0.1,1,0.2,1.5,0.4c0.2,0.1,0.6,0.4,0.9,0.5
			c0.9,0.3,1.5,0.2,2.3,0.5c0.5,0.2,1.1,0.5,1.6,0.7c0.5,0.2,2.2,0.5,2.5,0.4c2.4,1,6.7,1.5,9.2,1.8c0.9-0.1,1.8-0.1,2.7-0.2
			c1.6,0.4,3,0.1,4.4-0.4c0.6-0.2,1-0.1,1.5-0.3c1-0.4,2.8-1.8,3.8-1.6c0.2,0.7,1,1.2,1.4,1.6c0.7,0.7,1.4,1.5,2.1,2.2
			c0.1,0.2,0.2,0.3,0.3,0.5c0.2,0,0.3,0.1,0.5,0.1c0.3,0.2,0.7,1,1,1.2c0.5,0.4,1.6,1,1.7,1.4c0,0.1,0.1,0.2,0.1,0.4h0.5
			c0.3,0.5,2.2,2,2.8,2.1c0,0.2,0.1,0.3,0.1,0.5c0.8-0.1,0.7,0.4,1.3,0.7c1.3,0.6,2.7,1.6,3.8,2.2c0.1,0,1.1,0.8,1.1,0.8
			c0.4-0.1,1.1,0.6,1.6,0.8c1.1,0.4,2.5,1.2,3.7,1.8h0.4c0.2,0.1,0.5,0.4,0.6,0.5c0.1,0,0.2-0.1,0.3-0.1c0.8,0.4,1.8,1.1,2.6,1.4
			c0.4,0.2,1.2,0.1,1.6,0.3c1,0.5,2,0.8,3.2,1.3c1.1,0.5,2.4,0.5,3.4,1.1c1.2-0.1,2.8,0.6,3.8,0.8c0.9,0.2,1.7,0.1,2.3,0.5
			c0.2,0,0.3-0.2,0.4-0.3c0.4-0.1,1.3,0.4,1.8,0.4c2.5,0,5.6,0.1,8.3-0.5c0.9-0.2,3-1.1,3.9-1.7c1.2-0.7,2.8-2.9,3.3-4.2
			c0.4-0.8,0.5-2.5,1.5-2.6c0.5,0.7,1.6,0.9,2.3,1.4c1.3,1.1,3,1.8,4.4,2.8c0.5,0.4,2.5,1,2.6,1.5c0.4,0.1,0.2,0.2,0.5,0.4
			c0.2,0,0.3-0.1,0.5-0.1c0.1,0.1,0.3,0.4,0.4,0.5c0.3,0.1,0.5,0.1,0.8,0.2c0.1,0,0.1,0.3,0.2,0.4c0.2,0,0.4,0.1,0.5,0.1
			c0.2,0.1,0.5,0.5,0.7,0.6c0.5,0.3,1.3,0.4,1.5,0.6c0.1,0.1,0.1,0.1,0.1,0.3c1.4,0.1,2.5,1.5,4,1.7v0.3h0.2
			c0.5,0.4,1.2,0.3,1.8,0.6c0.1,0.1,0.2,0.2,0.3,0.4c0.2,0,0.4,0.1,0.6,0.1c0.7,0.4,1.6,1,2.3,1.4c0.2,0,0.5,0.1,0.7,0.1
			c0.2,0.1,0.4,0.4,0.6,0.5c0.3,0.2,0.6,0,0.9,0.2c0.2,0.1,0.3,0.4,0.5,0.5c0.3-0.3,1.1,0.3,1.4,0.4h0.5c0.5,0.2,1.1,0.6,1.5,0.8
			c0.7,0.3,1.3,0.3,2,0.5c0.3,0.1,0.7,0.5,1.1,0.5c0.2,0,0.4-0.1,0.5-0.1c0.2,0.1,0.6,0.4,0.7,0.5c0.4,0.2,0.7,0,1.1,0.2
			c0.2,0.1,0.4,0.3,0.5,0.4h0.6c0.5,0.2,1.4,0.5,2,0.7h0.8c1.2,0.6,3,0.9,4.3,1.3c0.5,0,1,0.1,1.5,0.1c0.7,0.2,1.6,0.4,2.2,0.5
			c0.2,0,0.8-0.1,1-0.1c0,0.1,0.1,0.1,0.1,0.2c0.7,0.2,1.7-0.1,2.2,0c1.4,0.2,4.1,0.4,6-0.2c0.4,0,0.7,0.1,1.1,0.1
			c0.3-0.1,1-0.4,1.4-0.5c0.4-0.1,0.4,0.2,0.7,0.2c1.2-0.2,2.4-0.4,3.2-0.6c0.6-0.2,1.1,0,1.7-0.2c0.1,0,0.2-0.2,0.4-0.2
			c0,0.2,0,0.2,0.2,0.2c0.3-0.1,0.7-0.6,1.1-0.6c0.2,0.1,0.4,0.1,0.6,0.2c0.3-0.1,1.3-0.7,1.7-0.8c0.6-0.2,1-0.1,1.6-0.4
			c0.8-0.3,1.9-0.8,2.7-1.3c0.2-0.1,0.3-0.4,0.5-0.5c0.1,0,0.2,0.1,0.3,0.1c0.4-0.2,0.7-0.7,1-0.9c0.4-0.1,0.8-0.2,1.2-0.3
			c0.1-0.1,0.1-0.3,0.2-0.5c0.2-0.3,0.8-0.5,1.1-0.7c0.2-0.2,0.4-0.4,0.5-0.6c0.2-0.2,0.7-0.1,0.8-0.4c0.1-0.2,0.1-0.4,0.2-0.5
			c0.2-0.3,0.7-0.6,1-0.9c0.3-0.4,0.4-0.8,0.7-1.3c0.2-0.2,0.4-0.4,0.6-0.5c0-0.2,0.1-0.4,0.1-0.5c0.3-0.2,0.5-0.4,0.8-0.6
			c1.2-1.7,2.4-4.7,2.3-7.5c-0.9-0.6-1.5-1.3-3-1.4c-0.2,0.3-0.5,0.3-0.6,0.6l-0.1,0.1c0.4,0.1,1.9,0.4,2.1,0.9
			c0.5,0.7,0,1.4-0.2,1.9c-0.2,0.5,0,0.8-0.2,1.3c-0.1,0.2-0.4,0.4-0.5,0.6c-0.4,1-0.6,1.9-1.2,2.7c-0.2,0.2-0.4,0.3-0.5,0.5
			c-0.2,0.3-0.2,0.6-0.5,0.9c-0.3,0.3-0.7,0.6-1,1c-0.1,0.2,0,0.5-0.2,0.6c-0.1,0-0.2,0.1-0.4,0.1c-0.3,0.2-0.4,0.6-0.6,0.8
			c-0.2,0.2-0.5,0.3-0.8,0.5c-1.1,0.8-2.1,1.8-3.2,2.5c-0.4,0.3-0.8,0.2-1.3,0.5c-0.2,0.1-0.6,0.5-0.8,0.6c-0.1,0-0.2-0.1-0.3-0.1
			c-0.8,0.3-1.6,0.8-2.3,1.1c-0.4,0.2-0.8,0-1.2,0.2c-1,0.4-2.4,0.9-3.3,1.2c-0.2,0-0.4-0.1-0.6-0.1c-0.6,0.1-1.7,0.5-2.4,0.5
			c-0.7,0-2.7,0.3-3.5,0.5h-1.2c-0.3,0.1-1,0.2-1.3,0.3c-0.3,0.1-0.6,0-0.8-0.1c-0.4-0.1-1.2,0.1-1.6,0.2c-0.1-0.1-0.1-0.1-0.2-0.2
			c-0.2-0.1-0.5,0.2-0.6,0.2c-0.1,0-0.4-0.1-0.5-0.1c-1,0.2-2.8-0.5-3.3-0.1c-0.8-0.6-3.1-0.2-4.3-0.6c-1.2-0.4-2.3-0.6-3.4-1
			c-0.1-0.1-0.5,0.1-0.8,0c-0.1,0-0.4-0.3-0.5-0.4c-0.4-0.1-0.6,0.1-1,0c-0.2-0.1-0.6-0.4-0.8-0.5c-0.2-0.1-0.6,0.2-0.9,0
			c0-0.1-0.1-0.2-0.1-0.3c-0.5-0.2-0.9,0-1.3-0.2c-0.2-0.1-0.5-0.4-0.8-0.5c-0.1,0-0.2,0.2-0.5,0.1c-0.4-0.1-1-0.6-1.4-0.7
			c-1.1-0.4-3-1-3.9-1.4c-0.5-0.2-1-0.1-1.4-0.4c0-0.1-0.1-0.2-0.1-0.3H362c-0.9-0.5-2-1.1-2.9-1.5c-0.3-0.1-0.5-0.1-0.8-0.2
			c-0.4-0.2-0.9-0.6-1.4-0.8c-0.1,0-0.2,0.1-0.3,0.1c-0.2-0.1-0.4-0.4-0.6-0.5c-0.4-0.2-0.9-0.2-1.3-0.5c-0.1,0-0.1-0.2-0.2-0.3
			h-0.4c-0.1-0.1-0.1-0.3-0.2-0.4c-0.1,0-0.3,0.1-0.5,0c-0.3-0.1-0.7-0.5-1-0.6h-0.4c-0.1-0.1-0.2-0.2-0.3-0.4
			c-0.3-0.2-0.6-0.1-0.9-0.3c0-0.1-0.1-0.2-0.1-0.3c-0.2-0.2-0.4-0.1-0.7-0.2c-0.5-0.2-1-0.7-1.5-1h-0.4c-0.2-0.1-0.4-0.5-0.6-0.6
			c-0.1-0.1-0.3,0.1-0.4,0.1c-0.2-0.1-0.4-0.4-0.6-0.5h-0.4c-0.1-0.2-0.2-0.3-0.3-0.5c-0.3-0.2-0.8-0.2-1.1-0.4
			c0-0.1-0.1-0.2-0.1-0.3c-0.2,0-0.3-0.1-0.5-0.1c-0.1-0.1-0.1-0.2-0.2-0.3c-0.4-0.2-0.7-0.1-1.1-0.4c-0.1-0.1-0.2-0.2-0.3-0.4
			c-0.3-0.2-0.7-0.2-1-0.4c-0.4-0.2-0.8-0.7-1.3-1c-0.3-0.2-0.7-0.1-1-0.3c-0.1-0.1,0-0.3-0.1-0.4c0,0-0.9-0.6-1-0.6
			c-0.6-0.4-2.4-1.2-2.6-1.9c0.4-0.5,0.7-2.5,0.9-3.3c0.1-0.5-0.2-0.9,0-1.4c0.3-0.9,0.6-2,0.5-3c0.1-0.8,0.2-1.6,0.3-2.3
			c0-0.5-0.2-1.1,0-1.4c-0.5-0.7-0.6-1.8-1-2.6c-0.1-0.3-0.6-0.6-0.7-0.9c-0.8-1.3-1.4-2.5-2.3-3.7c-0.1,0-0.2-0.1-0.3-0.1
			c-0.4-0.4-0.6-0.8-0.9-1.3c-0.2-0.2-0.5-0.3-0.7-0.5c-0.3-0.4-0.5-0.8-0.8-1.2c-0.3-0.2-0.5-0.3-0.8-0.5c0-0.2-0.1-0.3-0.1-0.5
			c-0.2-0.1-0.4-0.1-0.5-0.2v-0.3c-0.1-0.2-0.3-0.2-0.5-0.3c-0.2-0.2-0.3-0.5-0.5-0.6c-0.2-0.2-0.5-0.2-0.6-0.5
			c-0.2-0.3-0.1-0.5-0.4-0.6c-0.5-0.4-1.1-0.7-1.6-1.1c-0.2-0.2-0.3-0.5-0.5-0.6c-0.5-0.3-0.9-0.2-1.4-0.5c-0.5-0.2-0.9-0.7-1.6-0.7
			c-1.2,0-2.7,2.2-3.3,3c-0.5,0.7-1.1,1.6-1.4,2.3c-0.2,0.6-0.1,1.1-0.4,1.7c-0.2,0.5-0.6,1.7-0.5,2.3c0.7,3.1,1.8,4.8,3.6,7.1
			c0.5,0.6,0.8,1.3,1.4,1.8v0.3h0.3c0.2,0.5,0.7,0.7,1.1,1c0.6,0.5,1.1,1.8,2.1,2c0,0.2,0.1,0.3,0.1,0.5c1.1,0.2,0.8,0.7,1.4,1.2
			h0.3c0.2,0.1,0.4,0.4,0.5,0.5h0.3c0.2,0.2,0.3,0.6,0.5,0.7c1.5,0.9,2.8,1.9,4.1,3c0.4,0.4,1.5,0.7,1.7,1.3c0.2,0.7-0.8,2-1,2.6
			v0.5c-0.5,1.3-2.7,3.4-4,4.1c-0.3,0.2-0.6,0-1,0.2c-0.3,0.1-0.8,0.6-1.2,0.7c-0.4,0.1-1.9,0.2-2.2,0.1c-0.7,0.4-4.7,0.5-5.8,0.1
			h-2c-0.2,0-0.7,0-1.2-0.1c-0.1,0-0.4-0.3-0.5-0.3c-0.2,0-0.4,0.2-0.7,0.1c-0.7-0.2-1.7-0.2-2.4-0.5c-2.3-0.8-4.9-1.4-7.1-2.3
			c-0.7-0.3-1.4-0.2-2.1-0.5c-1.9-0.9-3.6-1.6-5.2-2.3c-0.3-0.1-0.6-0.5-0.8-0.6c-0.5-0.4-1.1-0.3-1.6-0.6c-0.1-0.1-0.2-0.4-0.4-0.5
			h-0.4c-0.2-0.1-0.3-0.3-0.5-0.5c-0.2,0-0.4-0.1-0.5-0.1c-0.6-0.3-1.2-0.9-1.8-1.3c-0.4-0.3-0.9-0.2-1.3-0.5
			c-0.6-0.5-1.3-1-1.7-1.4c-0.3-0.3-1.5-0.8-1.9-1.1c-0.5-0.4-0.9-0.9-1.5-1.3v-0.3c-1.6-0.3-2.7-2.7-4.1-3.1v-0.3
			c-0.5-0.2-0.9-0.8-1.3-1.3c-0.6-0.8-2.4-1.7-2.4-3c0.7-0.7,1.1-1.7,1.5-2.7c1.1-2.5,1.1-4.5,0-7.1c0-0.4-0.1-0.7-0.1-1.1
			c-0.2-0.4-0.3-0.9-0.5-1.4c-0.1-0.3-0.5-0.6-0.6-0.9c-0.4-0.8-0.8-2.5-1.5-2.8c-2.3-1.8-5.6,1.7-6.3,3.3c-0.4,1-0.3,1.8-0.5,2.6
			c-0.3,1,1.4,3.3,1.4,4.5h0.3c0.1,0.9,0.9,1.3,1.4,1.9v0.4c0.1,0,0.2,0.1,0.3,0.1v0.4c0.1,0,0.2,0.1,0.3,0.1
			c0.3,0.4,0.3,0.9,0.6,1.2h0.3c0.1,0.1,0,0.4,0,0.4c0.5,0.4,0.9,0.5,0.9,1.4c-0.7,0.4-1.3,0.9-2.1,1.3c-1.3,0.5-3.2,0.6-4.6,1
			c-1,0.3-1.7-0.3-2.6-0.2c-1.3,0.1-2.9-0.1-4.2-0.5H260c-0.5-0.1-1.2-0.2-1.6-0.4c-1.6-0.4-3.8-0.7-5.2-1.3
			c-0.7-0.3-1.8-0.2-2.5-0.5c-0.2-0.1-0.5-0.4-0.6-0.5c-0.3-0.2-1.2-0.2-1.8-0.4c-0.8-0.3-1.7-0.9-2.5-1.2c-0.4-0.2-0.6,0-1.1-0.2
			c-0.5-0.2-1.1-0.6-1.4-0.9c-0.3-0.2-0.7-0.1-1.1-0.4c-0.9-0.5-1.8-1.1-2.7-1.6c-0.9-0.5-1-1.4-2.5-1.4c-0.3,0.4-0.9,0.4-1.1,0.9
			C234.8,333.9,237.2,333.3,237.8,333.6z M334.1,349.8c-0.2-0.3-0.7-0.6-1.1-0.7v-0.3c-0.7-0.1-1-0.7-1.4-1
			c-0.3-0.2-0.6-0.2-0.8-0.4c-0.1-0.2-0.2-0.3-0.3-0.5c-0.1-0.1-0.3,0-0.5-0.1c0-0.3-1.1-0.9-1.4-1.2c0-0.1-0.1-0.2-0.1-0.3
			c-0.2-0.1-0.5-0.1-0.6-0.3c0-0.1-0.1-0.2-0.1-0.4c-0.6-0.6-1.5-1.1-2.2-1.7c-0.9-0.8-1.6-1.9-2.5-2.6c-0.5-0.4-1.1-0.8-1.4-1.3
			c-0.2-0.2-0.3-0.8-0.5-1c-0.1-0.2-0.6-0.5-0.7-0.6c-0.2-0.2-0.1-0.5-0.3-0.7c-1.3-1.8-2.7-3.7-1.9-6.9v-0.8
			c0.1-0.4,0.5-0.9,0.7-1.3c0-0.2,0.1-0.3,0.1-0.5c0.2-0.2,0.4-0.4,0.6-0.5l0.3-0.8c0.3-0.5,1.6-1.6,2.3-1.8
			c1.4-0.4,3.7,2.1,4.5,2.8c3.3,2.9,7.9,7.9,8.9,12.3v1.4c0.2,0.9,0,2.3-0.2,3.2c0,0.5,0.1,1,0.1,1.5c-0.1,0.6-0.4,1.4-0.6,2.1
			C334.8,348.5,335.1,349.7,334.1,349.8z M274,334.8c-1-1.4-1.8-2.8-2.7-4.2c-0.1-0.2,0-0.5,0-0.5c-0.2-0.4-0.8-1.2-0.7-1.7
			c0.4-0.4-0.2-0.8,0.2-1.4h0.2c0.3-0.5,0.2-1,0.5-1.4c0.1-0.2,0.3-0.3,0.5-0.5h0.3v-0.3c0.8-0.2,1.1-0.9,2.2-1
			c0.2,0.3,0.3,0.6,0.4,1.2c0.2,0.2,1.5,0.7,1.6,0.9c0.8,1.3,2.2,5.3,1.9,6.7c0,0.5-0.1,0.9-0.1,1.4c-0.3,0.8-0.7,1.5-1.1,2.1
			c-0.3,0.5-0.2,1-0.9,1.1L276,337C275.6,336.2,274.5,335.6,274,334.8z"/>
	</g>
</g>
<ellipse class="st1" cx="454.7" cy="399.5" rx="92.9" ry="9.8"/>
<circle class="st1" cx="446.2" cy="291.8" r="6.8"/>
</svg>
