<?xml version="1.0" encoding="utf-8"?>
<!-- Generator: Adobe Illustrator 21.0.0, SVG Export Plug-In . SVG Version: 6.00 Build 0)  -->
<svg version="1.1" id="Calque_1" xmlns="http://www.w3.org/2000/svg" xmlns:xlink="http://www.w3.org/1999/xlink" x="0px" y="0px"
	 viewBox="0 0 841 595" style="enable-background:new 0 0 841 595;" xml:space="preserve">
<style type="text/css">
	.st0{fill:#1D1D1B;}
	.st1{fill:#DADADA;}
</style>
<g>
	<g>
		<path class="st0" d="M375.5,248.1c0.4,0.4,0.7,0.8,1.1,1.2c0.5,0.4,1.1,0.7,1.5,1.2c0.2,0.2,0.2,0.5,0.4,0.7
			c0.4,0.3,0.8,0.4,1.1,0.8c0.5,0,0.8,0.2,1.1-0.1c0.5-0.4,0.4-0.6,0.6-1.3c0.1-0.1,0.4-0.5,0.4-0.6c0-0.2-0.1-0.4-0.1-0.6
			c0.2-0.1,0.3-0.3,0.5-0.4l0.3-0.9c0.1-0.1,0.3-0.2,0.4-0.3v-0.6c0.1-0.4,0.7-1.6,1-2c0.4-0.5,0.9-1.1,1.3-1.7c0.7-1.1,1-2.3,2-3
			c0,0,0.1-0.1,0.1-0.1c0.3,0.4,0.7,0.6,1,0.9c0.3,0.3,0.4,0.8,0.7,1.2c0.8,1,2.2,1.5,3.9,1.4c2.4-2.6,4.4-5.6,6.4-8.6
			c0.6-0.8,1.5-1.7,1.8-2.7c1.3,0.1,1.8,1.4,2.4,2.2c0.4,0.5,1.1,0.8,1.5,1.3c0.4,0.5,0.7,1,1.1,1.4c0.5,0.4,1,0.7,1.4,1.2
			c1.9,0,1.3-0.7,1.8-1.9c0.1-0.2,0.5-0.5,0.6-0.7c0-0.3,0.1-0.5,0.1-0.8c0.2-0.5,1-0.9,1.3-1.4c0.3-0.5,0.5-0.9,0.8-1.4
			c0.8-1.1,1.9-2,2.5-3.2c0.2-0.1,0.1,0,0.2-0.1c0.8,0.1,0.9,0.8,1.4,1.3c0.7,0.8,1.5,1.2,2.5,1.7c0.4,0.2,1.2,1,1.9,0.6
			c1-0.3,1-1.9,1.4-2.8c0.6-1.5,1.9-2.9,2.7-4.2l0.3-0.9c0.4-0.6,0.8-1.3,1.2-1.9c0.2,0,0.3,0,0.4,0.1c0.4,0.2,0.5,0.7,0.8,1
			c1,1.1,2.1,2.5,3.6,3c1.1,0.4,2-0.2,2.7-0.5c0.4-0.2,0.7-0.2,0.9-0.4c0.8-0.8,2.4-5.3,2.6-6.7c0.1,0,0.2-0.1,0.3-0.1
			c0.7,0.8,1.8,1.7,2.3,2.6c0.9,1.7,1.9,3.9,3.8,4.2c0.3-0.3,0.9-0.5,1.1-0.8l0.3-0.9c0.5-0.9,1-1.9,1.6-2.8l0.9-0.9
			c0.1-0.3,0.2-0.5,0.3-0.8c0.2-0.1,0.4-0.3,0.6-0.4c0.6-0.8,0.9-1.9,1.6-2.6c0.3-0.3,2.4,1.4,2.8,1.6c0.5,0.3,1,0.3,1.5,0.6
			c1.6,1,3.4,2,5.1,2.9c0.2,0,0.5,0.1,0.7,0.1c0.3,0.2,0.6,0.6,0.9,0.8c1.1,0.5,2,0.1,2.3-0.7c0.1-0.1,0.1-0.6-0.1-0.9
			c-0.2-0.6-2.7-1.1-3.4-1.4c-1.2-0.5-2.3-1.4-3.4-2c-1.1-0.6-2.2-0.9-3.2-1.6c-0.9-0.6-2-2.2-3.2-2.4c-0.1,0.1-0.4,0.1-0.5,0.2
			c-0.6,0.3-1.1,2.2-1.5,2.9c-0.2,0.3-0.6,0.6-0.8,0.9c-0.5,0.8-0.9,1.6-1.5,2.3c-0.2,0.2-0.6,0.4-0.8,0.7c-0.2,0.4-0.2,0.7-0.4,1
			c-0.3,0.5-0.8,0.7-1,1.4c-0.1,0-0.2,0.1-0.3,0.1c-1.2-1.3-2-3.1-3.2-4.4c-0.8-0.9-1.9-1.5-2.7-2.3c-0.3,0-0.5,0-0.6,0.1
			c-1.2,0.4-1.9,5-2.6,6.3c-0.4,0.7-1.2,1.3-1.4,1.8c-2.5,0-3.3-1.7-4.4-3.1c-0.5-0.6-1.3-1-1.8-1.6c-1.4,0-1.5,1.4-2,2.2
			c-0.9,1.5-2,3.1-2.9,4.6c0,0.2-0.1,0.4-0.1,0.6c-0.1,0.2-0.5,0.2-0.6,0.4c-0.2,0.4-0.2,0.9-0.5,1.3c-0.2,0.3-0.6,0.5-0.7,0.9
			c-0.3,0-0.1,0.1-0.3,0c-2.1-0.4-2.8-4.1-5.2-4.1c-0.4,0.4-0.4,0.8-0.7,1.4c-0.4,0.8-1,1.6-1.5,2.4c-0.2,0.3-0.5,0.4-0.7,0.6
			c-0.6,0.6-0.9,1.4-1.4,2.1c-0.2,0.2-0.5,0.4-0.7,0.6c-0.4,0.6-1,1.9-1.6,2.3c-0.1,0.1,0,0-0.2,0.1c-0.8-0.8-2.3-1.8-2.9-2.7
			c-0.9-1.3-1.8-2.3-3-3.3h-0.7c-0.5,0.2-1.4,2.8-1.8,3.4c-0.8,1.3-1.8,2.5-2.7,3.8c-0.5,0.7-1.4,1.3-1.9,2
			c-0.5,0.7-1.6,2.4-2.4,2.7c-0.4,0.2-0.5,0-1,0c-1.2-1.3-2.3-2.7-3.3-4.1h-0.9c-0.1,0.1-1.1,2.4-1.3,2.7c-1.5,2.2-3,4.4-4.4,6.7
			c-0.4,0.6-0.7,2.2-1.3,2.6c-0.4,0.1-1-0.8-1.3-1.1c-0.7-0.7-1.5-1.5-2.3-2.1c-0.5-0.4-1-0.6-1.5-1c-0.3,0-0.6,0.1-0.9,0.1
			c0,0-0.1,0.1-0.1,0.1c-0.1,0.2,0,0.1-0.1,0.2C373.5,247.4,374.5,247.5,375.5,248.1z M377.1,254.7c-0.1,0.1-0.1,0.2-0.2,0.3
			c0.2,1,1.6,1.6,2.2,2.2c1,1,1.8,2.6,3.3,3c1.1,0.3,2.3-1.2,2.7-1.7c0.3-0.4,0.8-0.9,1.1-1.3c0.1-0.3,0.2-0.5,0.3-0.8l0.8-0.8
			c0.5-0.9,0.7-1.7,1.3-2.5c0.2-0.1,0.4-0.3,0.6-0.4c0.1-0.3,0.2-0.5,0.3-0.8c0.4-0.6,1-1.2,1.3-1.8c0.1,0,0.2-0.1,0.3-0.1
			c0.4,0.6,1.2,0.8,1.6,1.3c1,1.3,1.4,2.6,3.5,2.5c0.4-0.4,1-0.7,1.3-1.1c0.5-0.7,0.9-1.5,1.4-2.2c0.3-0.4,0.2-0.9,0.4-1.4
			c0.1-0.3,0.6-0.5,0.7-0.8c0-0.2,0.1-0.4,0.1-0.6c0.2-0.3,0.5-0.7,0.7-1c0.2-0.4,0.1-0.8,0.3-1.1c0.1-0.1,0.4-0.2,0.5-0.3
			c1,0.2,1.3,0.9,1.9,1.5c1.3,1.3,2.2,2.5,4.9,2.5c1-1,1.6-2.2,2.5-3.4c0.2-0.2,0.4-0.3,0.6-0.5c1-1.4,1.9-3.2,2.7-4.8
			c0.1,0,0.2-0.1,0.3-0.1c0.4,0.5,1.2,0.6,1.7,1c0.3,0.2,0.5,0.7,0.8,1c0.9,1.1,2.6,1.9,4.5,1.7c1.6-1.6,2.8-3.5,4.1-5.4
			c0.3-0.3,0.5-0.5,0.8-0.8c0.3-0.5,0.4-0.8,0.8-1.2c0.1-0.1,0,0,0.2-0.1c0.5,0.4,1.1,0.6,1.6,1.1c0.4,0.4,0.6,0.9,1,1.2
			c0.6,0.4,1.3,1,2,1.2c3.2,1.1,5.1-3.7,6.3-5.5c0.4-0.7,0.6-1.7,1.4-2c0.4-0.3,1.7,1,2,1.3c0.3,0.4,0.9,0.6,1.3,0.9
			c0.2,0.3,0.5,0.6,0.7,0.9c0.6,0.4,2.5,1.7,3.6,1.4c2.9-0.8,4.4-4,5.9-6.2c0.6-0.8,1.5-1.5,2-2.3c1.7,0.2,2.7,2,4,2.7
			c1.2,0.6,1.6-0.5,1.6-1.5c-1-0.9-4.1-3.2-5.8-3.3c-0.1,0.1-0.2,0.1-0.4,0.1c-0.9,1.1-2,2.2-2.9,3.4c-0.8,1.1-1.5,2.3-2.4,3.3
			c-0.5,0.5-1.7,2-2.8,1.7c-1.8-0.5-2.7-2-4-3c-0.6-0.4-1.8-1.1-2.2-1.7c-2.3,0-4.1,4.6-5.2,6.2c-0.1,0.1-1.2,1.3-1.3,1.4
			c-0.3,0.2-0.4,0.1-0.6,0.3c-1,0-2.6-1.1-3-1.7c-0.2-0.2-0.3-0.7-0.5-0.8c-0.8-0.5-1.5-0.8-2.2-1.4c-1.8,0-1.8,1.3-2.5,2.3
			c-1,1.5-2.1,3-3.2,4.4c-0.4,0.4-1,0.7-1.4,1.1c-1.5-0.1-2.7-2.1-3.8-2.8c-0.6-0.4-1.5-0.5-2-1.1c-0.3,0-0.6,0-0.8,0.1
			c-0.9,0.4-2,3-2.5,4c-0.3,0.6-0.9,1.1-1.3,1.6c-0.4,0.5-0.6,1.2-1,1.7c-0.4,0.6-1,1.1-1.5,1.6c-1.9-0.3-2.8-2.1-4-3.2
			c-0.3-0.2-0.9-0.7-1.2-0.8c-0.4-0.1-0.5,0-0.7-0.2c-1.3,0-1.4,1.2-1.9,2c-0.4,0.7-1,1.4-1.4,2.1c-0.7,1.4-1.2,2.8-2,4
			c-0.1,0.2-0.4,0.2-0.5,0.4c-0.2,0-0.2,0-0.4,0.1c-0.4-0.4-0.9-0.6-1.3-1c-0.8-0.8-1.4-2-2.3-2.6l-0.9-0.3
			c-0.9,0.3-2.3,2.8-2.8,3.7c-0.3,0.6-1,1.1-1.4,1.7c-0.3,0.4-0.3,0.9-0.6,1.3c-0.9,1.4-2.1,2.7-3.2,3.9c-1.5-0.1-3.2-3.2-4.6-3.7
			v-0.1C377.9,254.6,377.3,254.6,377.1,254.7z M458,246.7c-0.8,0.5-2.3,0.4-3.3,0.8c-0.2,0.1-0.4,0.3-0.6,0.4
			c-0.6,0.3-1.5,0.3-2,0.4c-0.9,0.3-2.1,0.9-3.1,1.2c-0.2,0-0.3-0.1-0.5-0.1c-0.8,0.2-1.8,0.7-2.5,1.1c0,1.3,0.6,2.2,1,3.2
			c0.5,1.1,0.8,2.2,1.3,3.3c0.5,1,1.2,2,1.7,3.1c0.4,0.8,0.4,1.8,0.8,2.6c0.8,1.6,1.6,3.5,2.4,5.1c0.2,0.5,0.1,0.9,0.3,1.5
			c0.2,0.6,0.7,1.4,1.1,1.9c0,0,0.2,1.3,0.3,1.6c0.2,0.6,0.8,1.4,1.1,2c0.5,1.2,0.5,2.7,1.1,3.9c0.2,0.2,0.5,0.4,0.7,0.6
			c0.3,0.6,0.2,1.3,0.5,1.8c0.1,0,0.2,0.1,0.3,0.1c0.3,0.5,0.1,1.7,0.5,2.2c0.1,0.4,0.3,0.4,0.6,0.6c0.4,0,0.6,0,0.8-0.2
			c0.6-0.2,0.4-0.9,1-1.1c0.2-0.1,0.3,0,0.5,0.1c1.4-0.5,1.4-1.4,3.6-1c0.3-0.3,0.5-0.5,0.8-0.8c-0.1-0.4-0.3-1.1-0.5-1.4l-0.7-0.7
			v-0.7c-0.1-0.3-0.5-0.6-0.7-0.9c-0.7-1.1-1.5-2.6-2-3.8c-0.2-0.5-0.1-1-0.3-1.5c-0.3-0.8-0.8-1.5-1.1-2.3c-0.2-0.5,0-1.2-0.3-1.6
			c0.1-1.2,1.2-0.9,2-1.3c0.6-0.4,1.3-1.3,1.9-1.7c0.4-0.3,1.1-0.4,1.4-0.8c0.4-0.5,0.5-1.1,0.9-1.6c0.4-0.5,1.2-0.8,1.6-1.3
			c0.3-0.4,0.2-0.7,0.4-1.2c0.3-0.7,1-1.5,1.1-2.3c0.2-1.1-0.5-4.3-1-5.2c-0.3-0.5-0.9-0.8-1.2-1.2c-1.3-1.9-3.2-3.2-5.4-4.2
			C461.3,246.8,459.2,246.9,458,246.7z M465,251c0.3,0.2,0.5,0.8,0.8,1.1c0.9,0.9,1.7,1.7,2.1,3.1v1.2c0,0.2,0.3,0.7,0.3,0.9
			c0,0.4-0.6,1-0.7,1.4c-0.2,0.6-0.2,1.2-0.5,1.7c-0.3,0.5-0.8,0.6-1.2,1c-0.3,0.3-0.3,0.7-0.6,1c-0.4,0.5-1.1,0.8-1.6,1.2
			c-0.6,0.4-1,1.2-1.6,1.5c-0.7,0.4-1.6,0.3-2.3,0.6c-0.5,0.2-0.7,0.7-1.1,1c0.1,2.3,0.8,4.1,1.5,5.8c0.2,0.6,0.1,1,0.4,1.6
			c0.1,0.3,0.5,0.5,0.6,0.8c0.2,0.4,0,0.7,0.2,1.1c0.3,0.3,0.5,0.5,0.8,0.8c0.5,0.7,0.6,1.6,1,2.3c-0.1,0.9-1.1,0.9-1.5,1.4
			c-0.4,0-0.7-0.2-1,0c-0.6-0.3-0.7-1.8-1.1-2.6c-0.2-0.3-0.6-0.7-0.8-1.1c-0.3-0.6-0.1-1.3-0.5-1.8c-0.1-0.1-0.3-0.1-0.4-0.3
			c-0.2-0.5-0.2-0.9-0.4-1.4c-1.1-2.1-1.9-4.5-2.9-6.6c-0.2-0.4,0-0.7-0.2-1.1c-0.2-0.6-0.9-1.2-1.1-1.8c-0.5-1.4-0.8-2.6-1.4-4
			c-0.4-0.9-1-1.8-1.4-2.6c-0.7-1.5-1.3-3.7-2.3-4.8c0-1.5,1.6-1.1,2.7-1.5c1.1-0.4,1.9-0.5,3-0.9c0.6-0.2,1.3-0.7,2-0.9
			c0.9-0.3,1.8-0.1,2.3-0.5c1.4,0.1,2.7,0.2,3.9,0.7c0.6,0.2,1.1,0.9,1.6,1.2C464,250.8,464.6,250.7,465,251z M453.8,251.7
			c-1,0-1,0.9-1.7,1.3c0,1.2,0.8,2.7,1.2,3.8c0.6,1.7,1,2.9,1.7,4.5c0.2,0.4,0.5,0.7,0.7,1c0.3,0.6,0.2,1.4,0.6,1.8
			c0.2,0.2,0.6,0.3,0.8,0.5c1.7-0.1,2-0.8,3-1.5c0.4-0.2,0.7-0.2,1.1-0.4c0.3-0.3,0.5-0.5,0.8-0.8c1.4-0.9,1.5-1.2,2.1-2.9
			c0.2-0.5,0.5-1.8,0.2-2.7c-0.1-0.2-0.3-0.4-0.4-0.6c-0.2-0.7-0.2-1.2-0.6-1.7c-1.2-1.5-4.9-2.5-7.4-2.7
			C455.6,251.6,454,251.9,453.8,251.7z M461,254.6c0.6,0.3,0.8,1.2,1.1,1.9c0.3,0.7,0.3,2.5-0.2,3.1c-1,1.1-3.1,1.6-3.9,2.8
			c-0.8-0.1-0.8-1.3-1.1-1.9c-0.5-0.9-0.9-1.9-1.3-2.9c-0.1-0.3-0.5-0.6-0.6-0.9c-0.3-0.7-0.3-1.6-0.7-2.2c0.1-0.6,0.3-0.6,0.6-1
			c0.5,0,0.8,0,1.1-0.2C457.3,253.3,460.1,254.1,461,254.6z M435.2,258.1c0.4,0.7,0.4,1,1.1,1.4c0.3,0.2,1.2,0.6,1.7,0.3
			c1.3,0,3.5-2.4,3-4.2c-0.5-1.7-2-3-4.4-2.9c-0.1,0.1-0.2,0.1-0.3,0.2c-1.1,0.3-1.2,1.8-2.1,2.2c0,0.3,0.4,2.4,0.4,2.5v0.1
			C434.7,257.8,435,257.9,435.2,258.1z M436.4,254.8c0.2-0.1,0.3-0.1,0.4-0.3c1.2,0.1,1.3,0.8,2,1.3v1c-0.2,0.2-0.4,0.6-0.6,0.8
			c-0.2,0.1-0.4,0.1-0.6,0.2C436.4,257.6,436.2,255.8,436.4,254.8z M502,258.6c-0.7-1.4-2-1.9-4.2-1.8c-1.5,1.2-2.9,2.9-2.1,5.6
			c0.2,0.7,0.7,1.2,1,1.8c0.5,0.1,1,0.5,1.4,0.6c1.4,0.4,3.6-1.4,4-2.1c0.4-0.7,0.3-1.9,0.1-2.6C502.1,259.5,502.3,259,502,258.6z
			 M498.9,262.7c-1.2,0-2.2-1.8-1.6-2.7v-0.2h0.4v-0.7c0.1-0.1,0.1-0.1,0.2-0.2c0.7-0.1,1.4-0.1,1.8,0.3c0.4,0.3,0.3,0.7,0.5,1.3
			C500.6,261.8,499.7,262,498.9,262.7z M425.2,257.2c-0.2,0.1-0.5,0-0.7,0.1v0.1c-0.2,0.2-0.1,0.5-0.3,0.7c-0.1,0.2-0.4,0.2-0.6,0.3
			c-0.2,0.1-0.2,0.4-0.4,0.6c0,1.4-0.4,2.6,0,3.7c0.8,2.3,3.5,4.3,6,2.2c0.7-0.6,1-2.7,0.6-3.7c0-0.3-0.1-0.7-0.1-1
			C429,257.9,428,257.1,425.2,257.2z M427.5,263.6c-0.5,0.1-1.2,0.2-1.5-0.1c-1-0.7-1.1-2-1-3.5c0.2-0.2,0.6-0.5,0.8-0.8
			c1.4,0,1.7,1,2,2.1c0.1,0.4-0.1,0.9,0.1,1.2C427.9,263,427.7,263.2,427.5,263.6z M487.6,270.3c1.1,0.3,1.9-0.5,2.6-0.7
			c0.9-0.2,1,0,1.6-0.8c0.3-0.3,0.1-1.1,0.3-1.8c0.8-3-1.1-5.1-3.5-5.2c-0.4,0.3-1,0.2-1.5,0.4c-1.1,0.4-1.9,1.4-2.2,2.6
			C484.3,266.9,486.1,269.8,487.6,270.3z M486.8,264.9c0.2-0.5,0.7-0.5,1-0.9c0.7,0,1.3,0,1.7,0.3c0.6,0.5,1.1,2.4,0.4,3.2
			c-0.3,0.4-1,0.4-1.4,0.8C487.4,268.2,486.3,266.2,486.8,264.9z M446.1,285.7c0.1,0.2,0.3,0.1,0.5,0.3c0.1,0.2,0.1,0.4,0.2,0.6
			c0.6,0.5,0.8,0.1,1.3,1c1.3,0,1.9-0.4,3-0.8c0.7-0.3,1.5,0,2.3-0.3c0.2-0.1,0.3-0.3,0.6-0.4c0.2-1.6-0.4-1.3-0.9-2.3
			c-0.8-1.4-1.5-2.8-2.2-4.1c-0.5-1-0.6-1.9-1-3c-0.1-0.3-0.5-0.5-0.6-0.8c0-0.3-0.1-0.5-0.1-0.8c-0.2-0.5-0.8-1.1-1-1.7
			c0-0.3-0.1-0.5-0.1-0.8c-0.3-0.8-0.9-1.8-1.2-2.6c0-0.5-0.1-1-0.1-1.5c-0.1-0.3-0.7-0.7-0.8-1.1c0-0.3-0.1-0.6-0.1-0.9
			c-0.3-0.6-0.7-1.3-0.9-2c-0.2-0.6,0-1.4-0.3-1.8c-0.2-0.2-0.5-0.4-0.7-0.6h-0.8c-1.4,1.1-3.8,1-5.1,2.3c-0.1,0.1-0.1,0.2-0.2,0.3
			c0.1,1.2,0.9,1.5,1.3,2.4c0.6,1.3,0.8,2.7,1.4,4.1c0.1,0.3,0.5,0.6,0.6,0.9c0.1,0.5,0.2,0.9,0.3,1.4c0.6,1.2,1.3,3,1.9,4.4
			c0.2,0.5,0.1,0.9,0.3,1.5c0.2,0.6,1,1.1,1.3,1.7v0.5c0,0.1,0.4,0.4,0.4,0.5c0,0.2-0.1,0.5-0.1,0.7c0.1,0.3,0.7,0.6,0.8,1
			C446.2,284.3,445.8,285.1,446.1,285.7z M445.5,278.3v-0.9c-0.1-0.2-0.6-0.4-0.7-0.6c-0.5-0.8-0.9-2.5-1.3-3.7
			c-0.4-1.2-1.2-2.5-1.6-3.7c-0.3-0.8-1.4-3.5-0.9-4.2c0.4-0.6,1.2-0.2,1.8-0.6c0.7,0.4,0.5,1.1,0.8,2c0.2,0.7,0.7,1.3,1,1.9
			c0.4,0.9,0.3,1.8,0.7,2.7c1,2.3,2,4.8,3.1,7c0.4,0.7,0.2,1.6,0.6,2.3c0.1,0.3,0.6,0.6,0.7,0.9c0.5,1.1,0.8,2.1,1.5,3
			c-0.2,0.4-1.5,0.9-1.9,0.7h-0.5c-0.5-0.3-1.5-3.6-1.8-4.3C446.6,280,445.8,279,445.5,278.3z M412.6,270.6c0.3,0.4,0.9,0.6,1.2,1
			c2.4,0,4-1,4.6-2.8c0.6-0.9-0.3-2.7-0.6-3.2c-0.3-0.6-0.3-1.3-0.7-1.8c-0.8-1.2-2.3-1.3-4.3-1.3c-0.2,0.2-0.6,0.3-0.8,0.5
			c-0.2,0.2-0.1,0.5-0.2,0.8c-0.2,0.5-0.7,1.1-1.1,1.4c0.1,0.7,0.6,1.5,0.8,2.1C412,268.5,411.9,269.6,412.6,270.6z M413.4,264.9
			c0.2-0.3,0.5-0.3,0.7-0.5c0.2,0,0.3,0,0.4,0.1c0.9,0.1,2.4,2.7,1.8,3.5c-0.1,0.8-0.6,1-1,1.5c-0.5,0-0.7,0.2-1-0.1
			C413.4,269,412.8,265.6,413.4,264.9z M388,346c0.3-0.8,0.9-1.7,1.2-2.5c0-0.5,0.1-0.9,0.1-1.4c0.4-1.2,0.8-2.2,1.2-3.2
			c0.2-0.1,0.2,0,0.4,0c0.1-0.2-0.1-0.4,0-0.6c0.2-0.1,0.3-0.3,0.5-0.4c0,0-0.2-1.4-0.2-1.4c-0.2-0.5-0.4-0.2-0.8-0.5
			c-0.5-0.3-0.6-0.9-1.2-1.2c-1.5-0.7-3.3-0.6-4.8-1.2c-0.7-0.3-2.2-1-2.8-0.9c-1.1,0.1-2-0.5-3,0c-1.8,0.9-1.7,4.1-3.1,5.2
			c0,0.9,0.3,1.1,0.6,1.6c1.2,0.2,2.1-0.3,3.4,0c0.8,0.2,1.8,0.6,2.7,0.7c0,0,0.1,0.1,0.1,0.1c-0.1,1.5-1.2,2.3-1.7,3.3
			c-1.2,2.3-1.5,4-3.6,5.5c-0.1,0.1-0.2,0.3-0.3,0.4c-0.6,0.3-1.6,0.1-2,0.2c-2.6,0.5-6.5-0.5-7.4-2.1c-0.2-0.3,0-0.6-0.2-1
			c-0.1-0.1-0.2-0.1-0.3-0.2c-1-1.9,0.5-5.5,1-6.8c0.4-1.2,0.5-2.4,1.1-3.4c0.5-0.8,1.3-1.5,1.8-2.2c0.6-0.9,1-2,1.7-2.8
			c0.1-0.1,0.5-0.2,0.6-0.3c0-0.2,0.1-0.3,0.1-0.5c0.3-0.3,0.5-0.6,0.8-0.9c0.4-0.5,1-0.7,1.4-1.2c0.1-0.2,0.1-0.4,0.2-0.6
			c0.2,0,0.3-0.1,0.5-0.1c0.2-0.2,0.3-0.6,0.6-0.8c0.2-0.1,0.4-0.1,0.6-0.3c0.2-0.2,0.3-0.6,0.5-0.8c0.4-0.3,0.8-0.3,1.1-0.7
			c0.9,0,2.4,0.2,3.1,0.3c0.9,0.2,1.8-0.3,2.5-0.2c1.3,0.2,2.6,0.2,3.5,0.1c0,0,0.1,0.1,0.1,0.1c-0.1,0.7-1,2.4-0.9,2.7
			c0.1,0.4,0.7,0.8,0.9,1.1c1.5,0,2.5,0.4,3.8,0.8c0.4,0.1,1.3,0.4,1.6,0.2c0.8-0.3,0.3-0.6,0.6-1.4c0.3-0.8,0.9-1.7,1.3-2.5
			c0.3-0.1,0.7-0.3,1.2-0.2c0.4,0.1,1.3,0.5,1.9,0.3c0.5-0.1,1.2-0.4,1.7-0.5c0.3-0.6,0.5-1.1,0.4-2c0-0.1-0.2-0.4-0.1-0.7
			c0.1-0.2,0.3-0.6,0.4-0.9c0.2-0.7-0.1-1.3,0.3-1.8c0-2.9-4.8-2.9-7.7-2.9c-0.9,0-2.4,0.4-3.1,0h-1.1c0.1-0.2,0-0.1,0.1-0.2
			c0.1-0.3,2.8-2.1,3.2-2.4c0.3-0.1,0.6-0.1,0.9-0.2c0.8-0.5,1.4-1.5,2.2-1.9c0.2,0,0.4-0.1,0.6-0.1c0.2-0.2,0.4-0.6,0.6-0.8
			c0.4-0.3,0.7-0.3,1.1-0.6c0.4-0.5,0.8-0.9,1.2-1.4c0.8-0.8,1.7-1.4,2.5-2.1c0.4-0.3,0.6-0.9,1-1.2c0.3-0.3,0.9-0.2,1.3-0.5
			c0.9-0.6,1.6-2.1,1.6-3.5c0.6-0.2,1,0.1,1.7-0.1c1-0.3,3.1-1.4,3.6-2.2c0.2-0.2,0.1-0.5,0.3-0.7c-0.1-1.1-0.8-1.5-1.1-2.3
			c0-0.3-0.1-0.7-0.1-1c-0.3-0.5-0.8-1.4-1-2c-0.1-0.3-0.1-0.7-0.2-1c-0.7-1-1.9-2.8-2.4-3.9c-0.2-0.6-0.2-1.1-0.5-1.6
			c-0.2-0.4-0.6-0.8-0.8-1.2c-0.9-2.4-1.5-4.6-2.6-6.7c-0.4-0.9-0.3-2.4-0.8-3.2c0-0.3,0-0.5,0.1-0.7c2.1-0.5,3.7-1.3,5.5-2.1
			c0.7-0.3,1.7-0.2,2.3-0.6c0.3-0.1,0.3-0.3,0.6-0.5c0-1.3-0.7-4.9-1.2-5.6c-0.1-0.4-0.4-0.6-0.8-0.7c-0.1-0.1-0.2-0.1-0.4-0.1
			c-0.3,0.3-0.6,0.3-1,0.5c-1.8,0.9-4.3,1.5-6.3,2.3h-0.6c-0.7,0.3-1.7,0.9-2.4,1.2c-1.1,0.5-2.1,0.7-3.2,1.1
			c-0.3,0.1-0.5,0.5-0.8,0.6c-0.4,0.2-0.7,0.1-1.1,0.3c-1.1,0.5-2.3,1.4-3.4,1.9c-0.2,0-0.5,0.1-0.7,0.1c-0.6,0.2-1.2,0.7-1.9,0.9
			c-0.3-0.1-1.1-0.1-1.5,0.1c-0.3,0.1-0.5,0.4-0.8,0.6c-0.1,2.5,1.2,4,2.3,5.7c1.5,0.1,2.2-0.6,3.4-1c1.7-0.5,4.2-0.8,5.3-1.8
			c1.1,0,1.3,2.2,1.7,3.1c0.2,0.3,0.6,0.8,0.8,1.1c0.4,0.9,0.4,1.7,0.8,2.6c0.2,0.5,0.6,1,0.8,1.4c0.5,1.2,0.7,2.2,1.2,3.4
			c0.3,0.8,1,1.5,1.2,2.5c-0.2,0.2-0.5,0.4-0.7,0.6c-0.7-0.1-1.9-0.4-2.6-0.7l-0.3-0.3c-0.2,0-0.5,0.1-0.7,0.1
			c-0.5,0-2.2-0.1-2.8-0.2c-0.8-0.2-1.5-0.1-2.2-0.3c-0.7-0.2-1.7-0.5-2.5-0.6c-0.4-0.1-1.3,0.1-2-0.1c-1.1-0.2-5.1-0.7-6.1-0.2
			c-0.3,0.2-0.2,0.9-0.4,1.2c-0.3,0.6-0.5,1.4-0.7,2.1c0.1,0.6,0.1,1.1,0.2,1.7c-0.1,0.6-0.4,0.8-0.4,1.6c0.2,0.2,0.4,0.5,0.6,0.7
			c3.4,0.7,6.4,0.3,9.2,0.9c0.4,0.1,1.1,0,1.4-0.1c0.4-0.1,0.6,0.1,0.8,0.1c0.4,0,1.5-0.2,2-0.1c1.1,0.1,2.4,0.7,3.6,0.9
			c0,0,0.1,0.1,0.1,0.1c-0.2,1.2-1.1,1.5-1.6,2.2c-1,1.4-2.1,2.1-3.5,3.1c-0.6,0.4-1,1.1-1.6,1.5c-1.1,0.8-2.2,1.4-3.4,2.1
			c-0.7,0.4-1.3,1.2-2,1.6c-0.8,0.5-1.6,0.9-2.4,1.4l-1.4,1.4c-0.3,0.2-0.7,0.3-1,0.5c-0.5,0.4-1,1-1.5,1.3c-0.2,0-0.4,0.1-0.6,0.1
			c-0.2,0.1-0.5,0.6-0.8,0.7c-0.3,0-0.7,0.1-1,0.1c-0.4,0.3-0.7,1-1.1,1.3c-1.3,1-2.4,2.1-3.9,2.9c-0.3,0.2-0.9,1.1-1.2,1.3
			c-0.2,0.1-0.5,0-0.7,0.2c-0.2,0.2-0.3,0.6-0.6,0.8c-0.1,0.1-0.3,0.1-0.4,0.2c-0.1,0.1-0.1,0.4-0.2,0.5c-0.3,0.3-0.8,0.4-1,0.7
			c-0.5,0.6-0.7,1.3-1.2,2l-0.9,0.9c-0.2,0.3-0.2,0.8-0.5,1c-0.2,0.2-0.5,0.3-0.7,0.5c-0.3,0.4-0.3,1-0.6,1.4
			c-0.4,0.6-0.9,1.3-1.3,1.8c-0.1,0.3-0.2,0.5-0.3,0.8c-0.1,0.1-0.3,0.1-0.4,0.2c0.1,0.1,0.2,0.6,0.1,0.9c-0.1,0.2-0.5,0.5-0.6,0.7
			c-0.3,0.5-0.2,1-0.4,1.6c-0.3,0.7-0.9,1.4-1.2,2c-0.1,0.2,0,0.5,0,0.6c-0.4,1-0.8,2.3-1.2,3.3c-0.3,0.8-0.4,3.4-0.3,4.3
			c0.1,0.6,0.2,0.8-0.2,1c0.1,0.3,0.3,0.3,0.4,0.5c0.3,0.7,0.1,1.5,0.4,2.2c0.3,0.7,0.9,1.6,1.3,2.2c0.2,0.3,0.2,0.7,0.4,1
			c1.1,1.3,3.7,1.6,5.5,2.2h0.7c0.3,0.1,0.6,0.5,0.8,0.6c0.2,0.1,0.5-0.2,0.8-0.1c0.5,0.1,1.1,0.2,1.7,0.4c0.2,0.1,0.4,0.2,0.7,0.3
			c0.1,0,0.3-0.2,0.6-0.1c2,0.6,4.2,1,5.9,0.6c1.6-0.4,2.9-0.2,4.1-0.9c0.9-0.5,2.1-2.4,2.7-3.3c0.2-0.3,0.7-0.6,0.9-1
			C386.4,350,387.1,348,388,346z M392,327.8c-0.9-0.1-1.4-0.3-1.9-0.6c0.1-0.5,0.4-0.8,0.3-1.3c0-0.2-0.2-0.4-0.3-0.6
			c1,0.1,2,0.1,3,0.2c0,0,0.1,0.1,0.1,0.1C393,326.4,392.4,327.2,392,327.8z M401,287c-0.6-1.1-0.6-2.4-1.1-3.6
			c-0.2-0.5-0.7-1.1-0.9-1.5c-0.1-0.3-0.1-0.6-0.2-0.8c-0.2-0.3-0.6-0.6-0.7-0.9c-0.1-0.4-0.1-0.8-0.2-1.2c-0.3-0.9-0.8-1.9-1.3-2.6
			c-1.8,0-3,1.1-4.5,1.7c-0.4,0.2-0.8-0.2-1.2,0c-0.1,0.1-0.3,0.4-0.5,0.5c-0.9,0.4-1.8,0.3-2.5,0.8c-1.1,0-0.8-0.9-1.3-1.5v-0.8
			c0.2-0.4,0.7-0.2,1.1-0.4c0.2-0.1,0.4-0.4,0.6-0.5c0.9-0.5,1.8-0.6,2.7-1c0.6-0.3,1.2-0.8,1.8-1.1c1.5-0.8,2.9-1.1,4.6-1.7
			c0.4-0.1,0.7-0.5,1-0.7c0.4-0.3,1.8-0.7,2.3-0.9c0.3,0,0.7-0.1,1-0.1c0.1,0,0.4-0.3,0.5-0.4c0.3,0,0.7-0.1,1-0.1
			c0.5-0.1,1-0.5,1.5-0.6c0.8-0.2,1.4-0.1,1.9-0.5c0.4,0.1,0.5,0.1,0.9,0.3c0,0.2,0.1,0.4,0.2,0.5v1.6c-0.1,0.3-1.5,0.6-1.9,0.8
			c-0.9,0.5-1.9,1.1-2.9,1.5c-0.5,0.2-1.2,0-1.8,0.1c-0.8,0.2-1.3,0.4-1.9,0.7c-0.4,1.1,0.4,2.7,0.7,3.8v0.9
			c0.1,0.2,0.6,0.5,0.7,0.8c0.1,0.3,0.3,1.1,0.4,1.3c0.1,0.6,0.2,1.1,0.3,1.7c0.2,0.4,0.7,0.6,0.9,1c0.4,0.8,0.3,1.7,0.7,2.5
			c0.8,1.6,1.6,3.4,2.5,5.1c1.2,2.2,2.6,4.5,3.1,7.4c-0.6,0.5-1.1,0.7-2.1,0.9c-1.4-1.9-1.7-4.5-2.6-6.8
			C403,291.1,402,288.9,401,287z M379.7,317.8c0.2-0.2,0.6-0.2,0.8-0.4c0.2-0.2,0.2-0.5,0.4-0.7c0.5-0.4,1.2-0.6,1.7-1
			c0.5-0.4,1.5-1.7,2-2c1-0.6,2-1,2.9-1.6c0.5-0.3,0.9-1,1.4-1.3c0.2-0.2,0.5-0.1,0.8-0.2c0.2-0.2,0.3-0.4,0.5-0.6
			c0.2-0.1,0.5-0.1,0.7-0.2c0.4-0.2,0.8-0.9,1.2-1.1c0.2,0,0.3-0.1,0.5-0.1c0.4-0.3,0.6-0.9,1-1.2c0.3-0.1,0.5-0.2,0.8-0.3
			c0.3-0.2,0.7-0.7,1-0.9c1.7-1.1,2.8-2.4,4-4c0.3-0.4,0.9-0.7,1-1.3c0.2-1-0.6-1.9-0.9-2.4c-0.8-0.3-2.4-0.7-3.4-1.1
			c-0.8-0.3-3.1,0.2-3.9,0c-0.5-0.1-1.2,0.2-1.9,0c-1.2-0.3-2.6-0.4-3.6-0.6c-0.9-0.2-3.1,0.3-3.7,0c-0.4,0-0.3,0-0.5-0.2
			c-0.2-0.3,0.7-3,0.8-3.6c2.8,0,5.6,0.4,8,1c1.5,0.1,3.1,0.3,4.6,0.4l0.3,0.3c0.4,0.2,0.8-0.1,1.1,0c0.6,0.1,1.7,0.9,2.5,0.8
			c0.3,0,1-0.3,1.3-0.4c0.3-0.1,0.5,0,0.6,0c1.4,0.1,1.5,3.4,2.3,4.3c0,1.1-0.3,0.5-0.6,1c0,0.1,0.1,0.3,0.1,0.4
			c-0.3,0.7-0.2,1.6-0.6,2.4c-0.4,0.8-3,2.9-3.8,3.5c-1.2,0.9-1.9,2.5-3.1,3.3c-0.5,0.3-0.9,0.4-1.4,0.7c-0.8,0.5-1.3,1.5-2.2,2
			c-1.4,0.7-2.8,1.4-4,2.3c-0.7,0.5-1.4,1.3-2.2,1.7c-0.7,0.4-1.6,0.6-2.3,1c-0.1,0.2-0.1,0.3-0.2,0.4c0.4,2.6,2.5,0.6,4.3,1
			c1.9,0.4,5.5,0,7.4,0.5c0.8,0.2,2-0.3,2.8,0.2c0.3,0.1,0.2,0.1,0.5,0.2c0.1,0.7-0.2,3.1-0.6,3.6c-0.1,0.2-0.3,0.3-0.4,0.5
			c-0.6,0-0.8-0.2-1.1-0.3h-1.7c-0.3-0.1-0.8-0.4-1.2-0.4c-1,0-2.2,0-3.2-0.2c-0.4-0.1-1,0-1.3,0.1c-0.6,0.1-2.9-0.1-3.3-0.2
			c-1-0.2-2.2,0.3-3.3,0.2c-0.5,0-1.5-0.2-2.1-0.3c-0.4-0.1-1.3,0-1.6-0.1c-0.5,0-0.4-0.1-0.7-0.3
			C378.2,321.7,379.3,318.4,379.7,317.8z M380.1,354.7c-0.8,0.5-1.4,0.2-2.4,0.4c-0.6,0.2-2.3,0.4-3.1,0.2c-1.9-0.5-3.9-0.9-5.7-1.4
			c-2.4-0.7-5.4-0.7-6.8-2.3c-0.4-0.4-0.4-1-0.6-1.5c-1.7-3.6-1.2-7.4,0.4-11c0.2-0.5,0.1-1,0.3-1.5c0.1-0.2,0.4-0.5,0.5-0.7
			c0.2-0.6,0.2-1.2,0.6-1.6c0.1-0.2,0.4-0.3,0.5-0.5c0.3-0.8,0.4-1.4,0.7-2.2c0.5-1.1,1.4-2.1,2-3c0.2-0.3,0.2-0.7,0.4-1
			c0.3-0.4,0.8-0.7,1.1-1.1c0.1-0.3,0.2-0.5,0.3-0.8c0.4-0.3,0.7-0.7,1.1-1c0.3-0.4,0.5-0.8,0.9-1.1c0.1-0.1,0.3-0.1,0.4-0.2
			c0.1-0.2,0.1-0.5,0.3-0.6c0.6-0.5,1.4-0.7,2-1.2c0.2-0.2,0.3-0.5,0.5-0.7c0.5-0.3,0.9-0.4,1.3-0.8c0-0.1,0.1-0.2,0.1-0.3
			c0.7-0.4,1.3-0.8,1.8-1.4h0.3c-0.1,1.4-1.9,4.2-0.6,4.9c-0.3,0.8-1,1-1.6,1.5c-0.4,0.3-0.6,0.8-0.9,1.2c-0.4,0.5-1.2,0.8-1.5,1.3
			c-0.1,0.2,0,0.4-0.2,0.6c-0.3,0.4-0.9,0.6-1.2,1c-1.2,1.8-2.5,3.4-3.7,5.2c-0.2,0.3-0.8,1.8-0.9,2.1c0,0.3-0.1,0.6-0.1,0.9
			c-0.6,1.2-1.2,2.5-1.6,4c-0.1,0.2,0.2,0.7,0.1,1.1c-0.1,0.4-0.2,1.2-0.3,1.6c-0.2,0.8,0.4,1.4,0.5,1.8c0,0.2-0.1,0.3-0.1,0.5
			c0.3,1.1,1.7,2.9,2.6,3.5c0.5,0.3,1.2,0.2,1.9,0.4c0.7,0.2,1.5,0.6,2.2,0.8c1,0.3,2.5,0.1,3.4-0.1c0.7,0,1.5-0.1,2.2-0.1
			c1.3-0.4,2.8-1.7,3.2-2.9c0.1-0.1,0.1-0.2,0.1-0.4h0.3c0.6-1.5,1.3-2.5,2-3.7c0.1-0.4,0.3-0.8,0.4-1.2c0.2-0.4,0.7-0.7,0.9-1.1
			c0.4-0.7,0.7-1.5,1.2-2c-0.1-2.3-3.6-2.3-5.4-2.9c-0.4-0.1-0.9,0-1.2-0.2h-0.2c0.2-1,0.7-1.6,1.1-2.4c1.9-0.4,4.2,0.8,5.8,1.5h0.5
			c0.1,0.1,0.2,0.3,0.3,0.4c0.6,0.3,1.2-0.2,1.7,0.1c0.5,0,0.4,0.1,0.7,0.3c0.2,1.1-0.4,1.9-0.7,2.7c-0.5,1.3-0.4,3-1,4.2
			c-0.1,0.2-0.4,0.4-0.5,0.6C384.8,348.2,383.3,352.7,380.1,354.7z M435.7,291.1c0.3,0.6,0.9,0.5,1,1.8c1.5,0.3,2-0.3,2.9-0.9
			c0.2,0,0.4-0.1,0.6-0.1c0.4-0.2,0.6-0.8,1-1c0.5-0.3,1.2-0.3,1.6-0.7c0.1-0.2,0.3-0.5,0.4-0.7c-0.1-0.9-0.5-0.9-0.7-1.5
			c-0.3-0.8-0.4-1.6-0.7-2.4c-0.4-1-1.3-2.1-1.7-3.1c0-0.4-0.1-0.8-0.1-1.2c-0.1-0.2-0.3-0.4-0.4-0.5c-0.3-0.5-0.2-1.1-0.5-1.6
			c-0.2-0.4-0.7-0.9-0.9-1.3c-0.1-0.3-0.1-0.6-0.2-0.9c-0.5-1-1.2-2-1.6-3c0-0.2-0.1-0.5-0.1-0.7c-0.6-1.3-1.3-2.8-1.9-4.1
			c-0.2-0.5,0.1-0.7-0.2-1.2l-0.6-0.6h-1c-0.4,0.5-1.2,0.2-1.8,0.4c-0.5,0.2-0.9,0.7-1.4,0.9c-0.6,0.2-1.1,0.2-1.6,0.5
			c-0.3,0.2-0.4,0.5-0.6,0.8c0,0.5,0.2,1.3,0.5,1.6c0.1,0.1,0.4,0.1,0.5,0.2c0,0.2,0.1,0.3,0.1,0.5c0.2,0.2,0.3,0.3,0.5,0.5
			c0.6,1,1,2.2,1.5,3.2c1,1.9,1.4,3.9,2.3,5.9c0.5,1.1,1.2,2.5,1.6,3.6c0.2,0.6,0.1,1.1,0.3,1.7c0.3,0.8,1,1.8,1.2,2.5
			C435.9,290.2,435.5,290.8,435.7,291.1z M435.5,284.1c-1.1-2.8-2.3-6.1-3.7-8.9c-0.2-0.5-0.3-1.2-0.5-1.7c-0.2-0.3-0.6-0.7-0.8-1.1
			c-0.2-0.6-0.2-1-0.6-1.4c0.1-0.8,0.9-0.9,1.4-1.3c0.4,0,0.8,0,1,0.1c0.8,0.3,1.3,2.6,1.7,3.4c0.5,0.9,1,2.1,1.5,3
			c0.2,0.3,0.1,0.8,0.3,1.1c0.1,0.2,0.4,0.3,0.5,0.5c0.1,0.3,0.1,0.6,0.2,0.9c0.2,0.4,0.7,0.8,0.9,1.3c0.6,1.5,0.9,2.9,1.5,4.2
			c0.5,1.1,0.7,2.1,1.2,3.2c0.1,0.3,0.5,1,0.4,1.3c-0.3,0.9-1.2,1-1.8,1.5c-0.7-0.2-1.9-2.7-2.2-3.5c-0.2-0.5-0.1-1-0.3-1.5
			C436,284.9,435.6,284.4,435.5,284.1z M473.7,273.1c0.1,0.2,0.4,0.4,0.5,0.6v0.5c0.1,0.3,0.4,0.2,0.6,0.4c0.2,0.1,0.3,0.5,0.4,0.7
			c0.4,0.1,0.7,0.3,1,0.4c0.3,0.1,0.8-0.2,1-0.2c0.6-0.1,1,0,1.4-0.3c1.4-0.9,2.2-3.4,1.3-5.5c-0.4-1-2.4-2.9-4.1-2.2
			c-1.2,0.5-2,1.7-2.6,2.8h-0.3c0.1,0.7,0.5,1.2,0.7,1.8C473.6,272.4,473.7,272.7,473.7,273.1z M475.3,270.8c0-0.9,0.4-1,0.8-1.4
			c0.7,0,1.4,0.2,1.6,0.7c0.5,0.4,0.8,2.2,0.3,2.8c-0.2,0.5-0.6,0.5-0.9,0.8h-0.7C476,273.5,474.8,271.5,475.3,270.8z M418.2,282.5
			l0.3,0.3c0.1,0.5,0.2,0.9,0.3,1.4c0.2,0.6,0.7,1.2,0.9,1.7c0.5,1.3,0.8,2.4,1.3,3.6c0.3,0.8,1.2,1.6,1.6,2.5
			c0,0.3,0.1,0.5,0.1,0.8c0.2,0.5,0.7,0.9,0.9,1.4c0.2,0.5,0,0.9,0.3,1.3c0.2,0.5,0.6,0.6,0.9,0.9c1.6,0.1,1.5-0.1,2.6-0.5
			c0.5,0,0.9-0.1,1.4-0.1c0.7-0.2,1.3-0.7,1.9-1.1c0-1.2-0.4-1.4-0.8-2.1c-0.8-1.6-1.4-2.7-2.1-4.3c-0.3-0.8-0.4-1.5-0.8-2.3
			c-0.8-1.7-2-3.5-2.8-5.3c-0.3-0.8-0.3-1.6-0.7-2.3c-0.3-0.6-0.8-1.3-1-1.9c-0.5-1.4-0.5-2.9-1.2-4.1c-0.2-0.4-0.7-0.7-0.9-1.1
			h-1.1c-1,1.1-2.6,1.6-4.3,2c-0.5,2.3,1.5,4.6,2.3,6.4c0,0.2,0.1,0.5,0.1,0.7c0.2,0.4,0.6,1,0.8,1.4
			C418.4,282.1,418.2,282.2,418.2,282.5z M417,275.2c0.1-0.5,1.8-0.8,2.2-1.4h0.4c0,0,0.1,0.1,0.1,0.1c0.3,1.6,0.8,2.7,1.5,3.9
			c0,0.3,0.1,0.5,0.1,0.8c0.2,0.5,0.4,1,0.7,1.6c0.2,0.4,0.5,0.7,0.7,1.1c0.4,0.9,0.4,1.7,0.8,2.6c0.2,0.3,0.5,0.6,0.7,0.9
			c0.2,0.4,0.1,0.9,0.4,1.3c0.1,0.2,0.5,0.5,0.6,0.8c1,1.9,1.5,4.7,2.9,6.2c0,0.6-0.2,0.6-0.5,0.9c-0.2,0-0.3,0-0.4,0.1
			c-0.7-0.1-2.7-2.1-3-2.7c-0.3-0.5-0.3-1.1-0.6-1.5c-1.9-2.8-2.9-6.3-4.2-9.5C418.7,278.5,418.3,276.5,417,275.2z M277.4,321.3
			c0.5-0.2,1.3-0.6,1.8-0.8c0.4,0,0.7-0.1,1.1-0.1c0.9-0.3,1.7-0.9,2.6-1.3c0.1-0.3,0.1-0.4,0.3-0.6c-0.4-1.7-2.8-2-4.2-2.7
			c-0.6-0.3-1.1-0.9-1.7-1.1c-0.1-0.2-0.1-0.4-0.2-0.5c0.4-1.2,4.3-2.5,5.7-3c0.7-0.2,2.4-1.2,2.7-1.8c0.2-0.3,0.1-0.8,0.3-1.1
			c-0.3-1.7-2.5-1.8-3.9-2.5c-0.8-0.4-1.3-1.1-1.9-1.7c0-0.3,0-0.5,0.1-0.7c0.7-1.6,4.3-2.6,5.9-3.5c0.3,0,0.6-0.1,0.9-0.1
			c0.6-0.2,2.3-1.8,2-2.7c-0.5-1.6-3.6-2.4-4.7-3.5c-0.2-0.2-0.3-0.5-0.1-0.7c0.4-1.1,1.8-1,2.9-1.3c1.5-0.5,3.5-0.9,4.9-1.3
			c0.8-0.2,1.9-0.2,2.6-0.6c0.4-0.2,0.7-0.7,1-1c-0.3-3.2-3.9-3.8-4.7-6.5c-0.4-1.3,0.4-2.1,0.9-2.9c1.2-2.1,3.5-3,6-3.8
			c0.9-0.3,1.9-0.7,3-0.5c0.2-0.4,0.6-0.9,0.2-1.4c-0.1-0.3-0.3-0.3-0.5-0.5c-0.9,0-1.3,0.3-1.9,0.5c-0.5,0.1-0.9,0.1-1.4,0.2
			c-2,0.7-5.6,2.2-6.5,3.8v0.4c-0.1,0.2-0.5,0.3-0.6,0.4c-0.4,0.5-1.3,2.9-1,4c0.5,1.8,2.9,4.3,4.3,5.2c-0.2,0.9-2,0.9-2.9,1.2
			c-1.3,0.4-2.9,0.9-4.2,1.2c-0.9,0.2-1.6,0.1-2.3,0.5c-0.2,0.1-1,0.6-1.2,0.8c-0.2,0.3-0.3,0.6-0.6,0.8c-0.1,3,1.1,3.1,3.1,4.2
			c0.5,0.3,0.9,0.7,1.4,1c-0.2,0.8-0.9,0.7-1.5,1c-1,0.4-3.1,1.8-4.2,1.9c-0.1,0.7-0.5,0.4-0.9,0.7c-0.7,0.4-1.4,1.7-2,1.9
			c0.1,0.6,0.1,1.5,0.4,2.2c0.8,1.6,3.1,2.6,4.9,3.3c-0.2,0.9-1.3,0.9-2,1.3c-1.1,0.6-2.4,1-3.5,1.6c-0.9,0.5-1.7,1.4-2.6,1.9
			c0,0.3-0.2,0.7-0.2,0.8c0.3,2.5,3,3.5,5.1,4.3c-1.1,0.9-2.9,0.9-4.3,1.5c-0.8,0.3-1.5,1-2.2,1.4c-0.6,2.5,1.5,4.3,3.2,5.2v0.2
			c-0.7,0.1-1.4,0.3-2,0.2c-1.5,1-4.1,1.9-4.7,3.7c-0.3,1.1,0.4,1.9,0.8,2.3c0.9,1,4.7,2.8,6.6,2.9c0,0,0.1,0.1,0.1,0.1
			c-0.3,1.4-3.5,3.3-5,3.5c-0.4,0.1-1-0.3-1.4-0.1c-0.8,0-1.3,0-1.4,0.7c-0.3,0.6,0.5,1.3,0.9,1.6c0.9,0,1.2-0.5,1.9-0.7
			c0.5,0,1-0.1,1.5-0.1c0.5-0.2,1.2-0.6,1.6-0.8h0.5c0.6-0.4,1.1-1.2,1.7-1.7c0.3-0.2,0.7-0.3,0.9-0.6c0.5-0.6,0.7-1.3,1.3-1.7
			c-0.3-1.6-1.7-1.5-3.1-2c-0.9-0.3-2-0.8-2.8-1.2c-0.3-0.1-0.6-0.1-0.9-0.2c-0.4-0.2-0.8-0.7-1.2-1v-0.6c1.9-1.8,3.4-2.2,6.4-2.8
			c0.4-0.1,0.5,0.1,0.7,0.2c0.9,0.3,1.9,0.1,2.5-0.2c0.1-0.2,0-0.1,0.1-0.2c-0.1-1.6-1.2-1.6-2.4-2.1c-1-0.4-3.8-2.1-4-3.1
			C275.1,321.6,276.7,321.6,277.4,321.3z M299.6,280.9c-0.7,1-1.6,2.3-0.8,4c0.5,1,2.3,2.7,3.2,3.3c0.2,0,0.4,0.1,0.6,0.1
			c0.2,0.1,1.4,1.3,1.5,1.5c0.1,0.3-0.1,0.3-0.2,0.7c-0.6,0.1-0.7,0.4-1.1,0.6c-0.5,0.2-1,0.1-1.5,0.3c-0.1,0-0.3,0.3-0.4,0.3
			c-0.8,0.3-1.3,0.1-2.1,0.3c-1.7,0.6-4.3,1.9-4.9,3.6c-0.8,2.3,1.8,4.4,3,5.1c0.4,0.3,0.9,0.3,1.4,0.5c0.8,0.4,1.4,1.2,2.3,1.5
			c-0.1,0.4-0.2,0.3-0.2,0.6c-0.5,0.2-0.8,0.6-1.2,0.8c-0.5,0.1-0.9,0.2-1.4,0.3c-0.7,0.3-1.6,0.8-2.3,1.1h-0.6
			c-0.4,0.1-1.4,0.6-1.7,0.8l-0.2,0.4c-0.6,0.5-1.4,0.7-1.9,1.3c-0.2,0.3-0.3,0.7-0.6,0.9c0,0.5-0.3,0.8-0.2,1.4
			c0.6,2.5,4,2.7,6.3,3.6c0.6,0.2,1.1,0.7,1.6,1c-0.6,1.6-3.3,1.4-4.9,2.1c-2.4,1-3.4,1.2-5,3c0,2.8,5.2,3.9,7.2,5
			c-0.2,1.8-1.9,1.9-3.3,2.4c-1.3,0.4-5.1,1.1-5.7,2c-0.1,0.4-0.2,0.9-0.3,1.3c0.3,0.3,0.3,0.6,0.5,1l2.5,2.5c0.3,0.2,0.7,0.2,1,0.4
			c0.5,0.4,0.8,1,1.4,1.4c0,1.2-0.8,1.6-1.5,2.1c-1.4,1-3.1,2.1-4.8,2.9c-0.4,0.2-0.8,0.1-1.2,0.3c-0.4,0.2-0.6,0.5-1.1,0.7
			c0.3,0.7,0.9,1.1,1.3,1.6c1.1-0.2,2.3-1.4,3.1-1.9c2.4-1.5,6.2-2.3,6.2-6.1c-0.2-0.2-0.3-0.5-0.5-0.7c-0.1,0-0.2-0.1-0.3-0.1v-0.3
			c-0.1-0.1-0.4-0.1-0.5-0.2c-0.2-0.3-0.5-0.5-0.7-0.8c-0.5-0.4-1.1-0.5-1.6-0.9c-0.7-0.5-1-1.3-1.6-1.9c0-0.2,0-0.2,0.1-0.4
			c1.9-0.5,5.5-1.3,7-2.2c0.9-0.5,1.2-1.4,1.9-2c0-0.7,0.1-0.9,0.1-1.5c-0.2-0.2-0.3-0.6-0.5-0.8c-1.2-1.1-3.4-1.5-5-2.2
			c-0.6-0.3-1-0.9-1.6-1.1c0.2-0.9,2.3-1.3,3.2-1.6c1.9-0.7,4.2-1,5.7-2.1c0.5-0.3,0.6-0.9,1-1.4c0-2.7-4.4-3.5-6.5-4.3
			c-0.2,0-0.5-0.1-0.7-0.1c-0.1-0.1-0.7-0.8-0.9-1c0.3-1.7,2.7-2.5,4.1-3.1h0.6c0.1-0.1,0.4-0.3,0.5-0.4c0.6-0.3,1.2-0.2,1.8-0.5
			c0.5-0.2,1.1-0.6,1.5-0.9c0.3-0.1,0.5-0.1,0.8-0.2c0.5-0.3,1-0.9,1.5-1.2c0-2-0.8-1.8-1.9-2.6c-0.4-0.3-0.8-0.7-1.3-1
			c-0.3-0.1-0.8-0.2-1-0.4c-0.1-0.1,0.1-0.4-0.1-0.5h-0.6c-1.1-0.4-2.3-1.4-2.4-2.9c0.2-0.2,0.3-0.5,0.5-0.8c0.4-0.5,2-1.6,2.7-1.8
			c1.4-0.5,3.8-0.1,4.5-1.3c0.3,0.1,0.2,0,0.3,0.3c1.4-0.4,2.5-1.6,2.5-3.5c-0.9-0.8-1.9-1.8-2.9-2.5c-0.9-0.6-1.5-0.9-2.1-1.8
			c-0.3-0.4-1.2-1.2-0.8-1.9c0.1-1.1,1.3-1.7,2.1-2.2c0.6-0.4,1.4-1,2.1-1.3c0.4-0.2,0.7-0.1,1.1-0.2c1.3-0.5,3.2-0.9,4.6-1.3
			c0.1-0.2,0.1-0.4,0.2-0.5c-0.1-0.6-0.3-0.7-0.5-1.1C306.9,276.7,301.3,278.6,299.6,280.9z M346.6,296c0.1-0.1,0.1-0.3,0.2-0.4
			c0.2-0.2,0.6-0.4,0.8-0.5c0.1-0.3,0.3-0.5,0.3-0.7c0.2-0.9-0.5-2-0.4-2.7c0.2-0.9,0.3-2,0.6-2.9c0.2-0.4,0.5-0.8,0.5-1.4
			c-0.5-0.5-0.9-1-1.6-1.4h-0.7c-0.9-0.3-2-0.6-3-0.8c-0.6,0-1.1-0.1-1.7-0.1c-1.2-0.4-2.7-0.6-3.8-0.9h-1.6c-1-0.4-2.4-0.9-3.5-1.2
			c-1.2-0.3-2.3-0.3-3.4-0.6c-0.9-0.2-1.6-0.6-2.3-0.9h-0.8c-0.9-0.3-1.9-1.1-3-1c-0.7,1.3-1.2,4.3-2.1,5.3c0,1.8,1.8,2.2,3.3,2.5h1
			c0.8,0.2,1.9,0.4,2.9,0.7h1.7c1.6,0.5,3.2,0.8,4.7,1.2c1.4,0.3,3.7,0.3,4.7,0.9h0.2c-0.2,1.4-1.8,2-2.5,2.9
			c-0.1,0.2-0.1,0.4-0.3,0.5c-0.7,0.4-1.3,0.7-1.9,1.2c-0.1,0.2-0.2,0.3-0.3,0.5c-0.3,0.2-0.6,0.2-0.9,0.4c-0.3,0.2-0.6,0.8-1,1
			c-0.2,0.1-0.5,0.1-0.7,0.2c-0.5,0.3-1.1,1.5-1.5,1.7c-0.4,0.2-0.8,0.2-1.1,0.4c-1.1,0.7-2.3,1.3-3.3,2.1c-0.3,0.2-0.4,0.7-0.7,0.9
			c-0.5,0.4-1,0.5-1.5,0.9c-0.1,0.1-0.1,0.3-0.2,0.4h-0.4c-0.3,0.1-0.6,0.5-0.8,0.6c-0.6,0.3-1.3,0.2-1.9,0.5
			c-0.9,0.4-1.5,1.3-2.7,1.3c0.1,0.6-0.5,0.9-1,1.2c-0.1,1.9-0.3,3.7-1,5.2c-0.5,1.1-1.2,3.1-0.6,4.3c1,0.3,1.2,0.8,2,1.1
			c0.9,0.3,1.7,0.2,2.6,0.3h1.3c2,0.6,5.4,1.3,7.5,1.1c0.3,0.1,0.7,0.2,1,0.3c0.5,0.1,0.9-0.1,1.3,0c0.2,0.1,0.5,0.3,0.8,0.4
			c0.3,0.1,0.9,0.5,1.1,0.3c0.4,0,0.7,0.3,1,0.4h1.1c0.9,0.2,3.1,1,4.1,0.3c0.7-0.2,0.5-0.7,0.7-1.4c0.3-0.8,0.8-1.9,1.1-2.8
			c0-0.5,0.1-1.1,0.1-1.6c0.1-0.4,0.6-1,0.7-1.4c0.2-0.7-0.6-1.4-0.8-1.7c-0.6,0.1-1.1,0.4-1.6,0.5c-0.6,0.1-1.8-0.4-2.4-0.5
			c-1.3-0.3-2.5-0.1-3.9-0.5c-0.7-0.2-1.5-0.6-2.1-0.8c-0.6-0.2-2.4-0.2-2.7-0.3h-0.2c0.6-1.2,3.7-2.5,4.8-3.4
			c0.1-0.2,0.2-0.3,0.3-0.5c0.5-0.4,1-0.6,1.5-1c0-0.1,0.1-0.2,0.1-0.3c0.3-0.3,1.3-1.2,1.6-1.4c0.6-0.4,1.3-0.7,1.8-1.1
			c0.3-0.3,0.6-0.8,0.9-1.1c0.6-0.5,1.4-0.9,1.8-1.6h0.3c0.1-0.4,0.5-1,0.8-1.2c0.2-0.1,0.5-0.1,0.7-0.2c0.2-0.2,0.3-0.6,0.5-0.8
			c0.6-0.5,1.4-0.7,2-1.1c0.4-0.3,0.5-0.8,0.8-1.1C346,296,346.3,296.1,346.6,296z M345.4,293.6c-0.9,0.8-1.8,2.1-2.8,2.8
			c-0.6,0.4-1.8,0.9-2.2,1.4c-0.5,0.6-0.9,1.3-1.5,1.8c-0.3,0.3-0.8,0.4-1.1,0.7c-0.2,0.2-0.3,0.6-0.5,0.8c-0.9,0.7-1.9,1.3-2.9,2
			c-0.1,0.2-0.3,0.4-0.4,0.6c-0.8,0.7-1.6,1.6-2.5,2.2c-1.3,0.9-2.8,1.6-4.1,2.5c-0.9,0.6-1.9,1.7-2.9,2.1c-0.6,0.2-1.2,0.3-1.7,0.5
			c-0.1,0.1-0.1,0.3-0.2,0.4c0.1,0.7,0.4,0.9,0.7,1.3c0.3,0.1,1.1,0.3,1.5,0.1v-0.2c0.2-0.1,3.7,0.1,4.2,0.2
			c3.4,0.9,6.3,1.9,9.8,2.3c0,0,0.1,0.1,0.1,0.1c-0.1,1.6-0.6,3-1.3,4.2c-2.3,0-4.5-0.8-6.5-1.3c-0.8,0-1.7-0.1-2.5-0.1
			c-0.7-0.2-2.1-0.4-3.2-0.6c-0.6-0.1-1.3,0.1-2.1-0.1c-0.6-0.2-1.6-0.6-2.1-0.7c-0.1,0-0.6,0.2-0.9,0.1c-0.9-0.2-2-0.1-2.7-0.6
			h-0.2c0-1.7,0.8-3.4,1.3-5.1c0.3-0.9,0.1-1.8,0.6-2.5c0.2-0.2,0.5-0.2,0.7-0.4c0.6-0.4,1.4-1,2.1-1.3c0.4-0.2,0.7-0.1,1.1-0.3
			c0.1-0.1,0.2-0.3,0.3-0.4c0.5-0.3,1.2-0.2,1.6-0.5c1-0.7,1.9-1.4,2.9-2.2c0.2-0.1,0.2-0.5,0.4-0.6c0.8-0.5,1.8-1.2,2.6-1.6
			c0.2,0,0.3-0.1,0.5-0.1c0.4-0.3,0.6-0.8,1-1.1c0.8-0.6,1.5-1.2,2.3-1.7c0.4-0.2,0.8-0.2,1.1-0.5c0.2-0.3,0.4-0.5,0.6-0.8
			c0.7-0.5,1.3-0.9,2-1.3v-0.4c0.7-0.1,3.3-2.4,3.7-3c0.2-0.2,0.2-0.4,0.4-0.6c0-0.4-0.1-0.8,0-1c-0.2-0.6-1.1-0.8-1.5-1.3
			c0-0.1-0.1-0.3-0.1-0.4c0,0-1.2-0.3-1.4-0.4v-0.1c-0.4-0.1-0.4,0.2-0.6,0.3c-0.3,0.1-0.6-0.2-0.8-0.2c-0.3,0-0.5,0.1-0.8,0.1
			c-0.2,0-0.3-0.3-0.5-0.4c-0.6,0-1.1-0.1-1.7-0.1c-0.7-0.2-1.5-0.3-2.4-0.5c-0.8-0.2-1.8-0.7-2.6-0.8c-0.3,0-0.7,0.1-1,0.1
			c-0.1,0-0.4-0.2-0.6-0.2c0,0-0.2,0.2-0.4,0.1c-0.3-0.1-1.1-0.3-1.5-0.4c-0.4,0-0.9,0.2-1.3,0.1c-0.4-0.1-1.4-0.5-2-0.7
			c0-0.9,0.5-1.7,0.6-2.7c2,0,3.3,0.7,4.9,1.2c0.4,0,0.9,0.1,1.3,0.1c1,0.3,1.9,0.4,2.9,0.7h0.8c3.3,1,7.8,2,11.8,2.8
			C346,289.7,345.3,291.7,345.4,293.6z M509.8,286.9c0.2,0.6,0.7,1.8,0.5,2.1c0.1,0.4,0.1,0.4,0.5,0.5c0,1.1,0.4,1.9,0.6,2.8
			c0.4,1.7,0.4,3.2,0.8,4.8c0,0.7,0.1,1.3,0.1,2c0.3,1.1,0.5,2.5,0.5,4c2.1,2,2.2-0.4,3.1-1.8c1.5-2.4,3.1-4.8,4.6-7.2
			c0.6-0.9,0.8-1.9,1.4-2.7v-0.1c0.5,0.3,0.3,1.5,0.5,2.1c0.4,1.4,0.4,3.1,0.9,5c0.6,2.5,0.8,5.4,1.4,7.9v1.4c0.4,1.3,0.6,3.3,1,4.3
			c0.4,0.9,0.1,2.1,0.5,3c0.2,0.5,0.7,0.8,1,1.3c0.7,0,0.8-0.3,1.3-0.5c0-1.3-0.5-1.8-0.9-2.7c0.2-0.6-0.5-2.1-0.7-2.8v-1.1
			c-0.3-1-0.4-2-0.7-3.1v-0.8c-0.4-1.3-0.3-2.9-0.7-4.4c-0.6-2.3-1-5.6-1.3-7.5c-0.2-1.4-0.2-2.4-0.5-3.8c-0.2-1,0.4-2.1,0-2.8
			c-0.1-0.2-0.5-0.4-0.7-0.6c-0.7,0-1.1,0.2-1.5,0.5c0.2,1.4-0.6,2.6-1.1,3.6c-1.1,2.4-2.5,4.5-3.9,6.6c-0.6,0.9-1.2,2.5-2.1,3.1
			c0,0-0.1,0.1-0.1,0.1c-0.6-1.3-0.3-3.1-0.7-4.6c-0.6-2.4-0.8-4.9-1.5-7.4c-0.3-1,0.1-1.7-0.2-2.8c-0.3-1.1-0.9-2.2-1.4-3
			c-0.3,0-0.5-0.1-0.8-0.1c-0.1,0.1-0.1,0.1-0.3,0.1c-0.5,1.1,0.1,2.4,0.4,3.5C510,286.3,509.7,286.5,509.8,286.9z M358.8,323.5
			c2.3,0.7,4.5,1.7,7,1.2c0.3-0.1,0.6,0.1,0.7,0.1c0.7,0.1,1-0.3,1.3-0.5c0.1-0.5,0.1-1.4,0.3-2c0.3-1,1-2.1,1.3-3.1
			c0.1-0.4,0.3-1.4,0.1-1.7c-0.1-0.7-0.4-0.8-0.7-1.2c-0.8-0.2-1.7-0.2-2.6-0.4c-0.6-0.1-1.5-0.5-2.1-0.5c-1.2,0-2.6,0.2-3.6,0
			c-0.5-0.1-1.3,0.1-1.7-0.1c-0.5,0-1.1,0.1-1.3-0.2c-0.1-0.1,0,0-0.1-0.2c0.5-0.5,1-1.3,1.6-1.7c0.2-0.1,0.4,0,0.5-0.2
			c0.1-0.2,0.3-0.5,0.4-0.7c0.3-0.3,0.8-0.3,1.1-0.6c0.7-0.6,1.2-1.6,1.9-2.1c0.3-0.2,1-0.4,1.2-0.7c0.2-0.3,0.2-0.7,0.5-0.9
			c0.3-0.2,0.7-0.2,0.9-0.4c0.1-0.2,0.1-0.5,0.2-0.6c0.8-0.8,2-1.2,2.8-2c0.3-0.3,0.5-0.8,0.8-1.1c0.8-0.7,1.8-1.3,2.7-1.9l1.2-1.2
			c0.2-0.1,0.5-0.1,0.7-0.2c0.4-0.4,0.8-0.9,1.3-1.2c0-0.9-0.2-1.5-0.4-2.4c-0.2-0.9,0.3-2.6,0.1-3.7c-0.2-1.1,0.4-2.4-0.3-3.2
			c-0.6-1.3-3.8-0.9-5.2-1.3c-1.6-0.4-3.5-0.4-5.1-0.6c-0.5-0.1-1.8,0.1-2.3,0.2c-0.5,0.1-1.4-0.2-1.8-0.3h-0.8
			c-2.1-0.7-4-2.2-6.8-2.1c-0.7,1.4-1.2,3.1-1.3,4.8c0,0.8-0.4,1.9,0,2.3c0.4,1.2,2.1,0.7,3.5,1c0.7,0.2,2.3,0.6,3.5,0.3
			c0.3-0.1,1.1-0.2,1.6-0.1c1,0.2,2.2,0.1,3.3,0.5c0.1,0,0.3,0.3,0.4,0.3c0.8,0.3,2-0.1,2.7,0.3c0.4,0,0.5,0,0.7,0.2
			c0.1,0.1,0,0,0,0.1c-0.2,0.5-0.4,0.4-0.7,0.7c-0.1,0.2-0.1,0.4-0.2,0.6c-0.3,0.4-1,0.8-1.4,1.1c-0.1,0.1-0.1,0.3-0.2,0.4
			c-0.4,0.5-1,0.8-1.4,1.4c-0.3,0.4-0.9,0.6-1.2,0.9c-1.8,1.7-3.7,3.2-5.6,4.8c-1.6,1.4-3.1,2.9-4.9,4.1c-1,0.6-2.5,0.6-3.5,1.2
			c-0.6,2.9-1,5.8-1.9,8c-0.3,0.6-0.1,1.2-0.4,1.7c0.2,0.5,0.5,1.1,0.8,1.5c0.9,0.2,2.5,0.6,3.9,0.3c0.5-0.1,2-0.3,2.5-0.2
			c0.5,0.1,1.1,0.5,1.5,0.6c0.8,0.3,1.8,0.3,2.5,0.5C357.4,323.4,358.1,323.5,358.8,323.5z M353,320.2c-0.5-0.1-1.5,0.1-1.9,0.2
			c-0.2,0.1-0.4-0.1-0.5-0.1c-0.4-0.1-2,0-2.2,0c-0.1-0.2-0.2-0.2-0.4-0.3c0.1-0.7,0.4-1.2,0.6-1.7c0.5-1.1,0.6-2.7,1-3.8
			c0.2-0.6,0-1.3,0.4-1.7c0.1-0.4,0.7-0.8,1.1-0.9h0.7c0-0.1,0.1-0.2,0.1-0.3c0.3-0.3,0.7-0.3,1.1-0.6l1-1c0.3-0.2,0.7-0.2,1-0.4
			c0.3-0.2,0.3-0.6,0.7-0.8c0.2-0.1,0.3,0,0.6,0c0.1-0.9,0.6-1,1.2-1.4c0.9-0.7,1.6-1.6,2.4-2.4c0.4-0.4,0.9-0.5,1.2-1h0.3v-0.3
			c0.5-0.3,1.1-0.6,1.6-1c0.5-0.4,0.8-1.1,1.3-1.5c0.2-0.2,0.6-0.2,0.8-0.4c0.5-0.5,0.9-1.3,1.5-1.7c0.6-0.5,1.2-0.9,1.7-1.5
			l0.2-0.4c0.5-0.3,1-0.5,1.3-1c0.2-0.3,0.2-0.6,0.4-0.8c0-0.9-0.2-1.2-0.5-1.7c-3.2,0-6.4-1.1-9.4-1.5c-0.5-0.1-1.3,0-1.7,0.1
			c-0.2,0-0.5-0.1-0.7-0.1c-1.5-0.1-2.4,0-3.6-0.3c-0.3-0.1-0.6,0-0.8-0.1c-0.1,0-0.2-0.1-0.3-0.1c0-1.2,0.2-2.4,0.7-3.3
			c2.4,0.1,4.1,1.4,6.1,1.8c1.4,0.3,2.6,0,3.8-0.1c0.2,0,0.6,0.2,0.7,0.2c0.3,0,0.7-0.1,1-0.1c0.2,0,0.4,0.4,0.6,0.4
			c0.7,0.2,1.4-0.2,2-0.1c0.3,0.1,0.9,0.3,1.2,0.4c1,0.3,2.4,0,3.2,0.6c0.4,0.7,0.1,4.4,0,5c-0.1,0.6,0.3,1.4,0,1.9
			c-0.5,1.2-2.6,2.4-3.6,3.1c-0.5,0.3-1.3,0.9-1.6,1.4c-0.1,0.2-0.1,0.5-0.3,0.6c-0.7,0.6-2.6,1.7-2.7,2.7c0,0-0.1-0.1-0.1-0.1
			c-1.1,0.1-1,1-1.7,1.4c-0.3,0.2-0.7,0.1-0.9,0.4c-0.2,0.2-0.2,0.6-0.5,0.8c-1.6,1.2-3,2.7-4.6,3.9l-1.2,1.2
			c-0.5,0.3-1.5,0.5-2,0.9c-0.3,0.2-0.3,0.8-0.4,1c0.1,0.3,0.2,0.4,0.3,0.6c0.4,0.1,0.9,0.5,1.6,0.3c0.2-0.1,0.4-0.3,0.8-0.2
			c0.5,0.1,1,0.6,1.6,0.7c1.1,0.3,2.4,0,3.4,0.3c1.1,0.3,2.8-0.3,3.5-0.1c1.1,0.3,2,0.6,3.3,0.7c0,0,0.1,0.1,0.1,0.1
			c-0.1,0.8-0.6,1.2-0.8,1.8c-0.4,0.9-0.5,1.9-1.1,2.7c-1.2,0.9-2.8,0-3.7-0.5H361c-1-0.3-2.4-0.6-3.5-0.9c-0.5,0-1-0.1-1.5-0.1
			C355.1,320.9,353.9,320.5,353,320.2z M523.3,322.6c0-1.2-0.5-1.5-0.8-2.4c-0.2-0.5,0.1-1.1,0-1.5c-0.6-2.4-1-5.4-1.6-8
			c-0.5-2.1,0.1-4.3-0.9-5.9c-0.2-0.1-0.4-0.1-0.5-0.2c-1.6,0.1-1.2,1.2-1.9,2.1c-0.1,0.1-0.5,0.1-0.5,0.2c-0.1,0.1,0.1,0.6,0,0.8
			c-0.5,0.9-1.2,2-1.7,2.9c-0.3,0.6-0.4,1.2-0.7,1.7c-0.3,0.6-1.3,1.8-1.5,2.4h-0.2c-0.4-1.8-1.1-4.4-1.6-6c-0.1-0.7-0.1-1.3-0.2-2
			c-0.4-1.6-0.5-3.9-1.1-5.7v-0.8c-0.6-1.8-1.1-4.5-2.5-5.5c-0.2,0.2-0.4,0.3-0.8,0.3c-0.1,0.2-0.1,0.3-0.3,0.4c0,0.8,0.5,1,0.8,1.6
			c0.5,1.3,0.8,2.4,1.2,3.8c0.2,0.8,0,2.1,0.3,2.8c0.3,0.8,0.5,2,0.7,3v0.9c1,3.4,1.4,7.3,2.9,10.1c0.2,0.1,0.1,0,0.2,0.1
			c1.7,0,1.8-1.6,2.4-2.7c1.1-1.9,2.2-4,3.3-5.9c0.3,0.1,0.3,0.1,0.5,0.2c0,2.6,1,5.7,1.5,8c0.2,0.7-0.1,2,0,2.4
			c0,0.1,0.4,0.4,0.4,0.5c0.2,0.7-0.1,1.6,0.4,2.4c0.2,0.6,0.7,0.6,1.1,0.9C522.8,323.5,522.9,323,523.3,322.6z M498.7,350.1h-0.4
			c-0.1-0.9-0.6-1.3-0.9-1.9c-0.5-0.9-0.6-1.8-1.1-2.6c-0.2-0.3-0.6-0.6-0.8-0.9c-0.3-0.4-0.2-1-0.5-1.4c-0.2-0.4-0.8-0.8-1-1.2
			c-0.3-0.4-0.2-0.8-0.5-1.2c-0.1-0.1-0.3-0.2-0.4-0.3v-0.6c-0.1-0.4-0.6-0.8-0.8-1.2c-0.1-0.3-0.1-0.6-0.2-0.9
			c-0.1-0.1-0.3-0.1-0.4-0.2c0-0.2-0.1-0.4-0.1-0.6c-0.7-1.3-1.3-2.9-2-4.2c-0.8-1.4-1.4-3-2.2-4.5c-0.2-0.5-0.8-1.1-1-1.6
			c-0.1-0.5-0.2-0.9-0.3-1.4c-0.5-1.2-1-2.7-1.6-4c-0.6-1.3-1.4-2.7-2-3.9c0-0.3-0.1-0.5-0.1-0.8c-0.1-0.2-0.7-0.4-0.8-0.7v-0.7
			c-0.1-0.2-0.5-0.2-0.6-0.4v-0.6c-0.1-0.3-0.3-0.4-0.4-0.7c-0.4-0.1-0.7-0.2-1.3-0.2c-0.9,0.9-2,1.9-3,2.6c-1,0.7-2.3,1.5-3,2.5
			l-0.3,0.9c0.3,0.5,1.2,0.5,1.5,0.9c0.2,0.2,0.1,0.5,0.2,0.8c0.4,1,0.9,2,1.3,3.2c0.2,0.5,0.7,0.9,0.9,1.4c0.3,0.7,0.3,1.2,0.6,1.9
			c0.3,0.7,0.8,1.5,1,2.3c0.2,0.1-0.1,0.2-0.2,0.4c0.2,0.2,0.4,0.3,0.6,0.4c-0.1,0.7-2.3,2.3-2.9,2.6c-0.1,0.6,0.2,0.6,0.3,1
			c0.3,1-0.5,1.8,0.4,2.8c-0.1,0.9-0.7,0.6-1.2,1.1c-0.2,0.2-0.3,0.5-0.5,0.7c-0.6,0.4-1.1,0.9-1.7,1.3c-0.4,0.3-1,0.3-1.4,0.6
			c-1.7-0.6-1.8-3.2-2.8-4.2V336c0.2-0.3,1-0.4,1.4-0.6c0.4-0.2,1.7-1.3,1.9-1.7c1.5-2.4-0.7-4.5-2.6-5.1c-1-0.4-1.9,0.3-2.5,0.1
			c-0.2,0.4-0.4,0.5-0.8,0.7c0,0.2,0.1,0.3,0.1,0.5h-0.4v0.6c-0.2,0.2-0.3,0.5-0.5,0.7c-0.2,0-0.2,0-0.3-0.1
			c-0.3-0.5-0.3-1.9-0.6-2.5c-0.2-0.3-0.9-1.6-1.2-1.8c-0.2,0-0.3-0.1-0.5-0.1c-0.1-0.3-0.2-0.7-0.3-1c-0.2-0.4-0.7-0.6-0.9-1
			c-0.6,0.1-2.1,0.5-2.5,0.8c-0.1,0.2-0.3,0.5-0.4,0.7c-0.4,0-0.7,0.1-1.1,0.1c-0.3,0.1-0.7,0.5-1,0.6c-0.2,0-0.5-0.1-0.7-0.1
			c-0.7,0.2-1.5,1.3-1.8,1.9c-0.1,0.5-0.1,0.9-0.2,1.4c-0.1,0.4-0.4,1.3-0.1,1.7c0.1,0.6,0.3,0.7,0.6,1c1.3,1.5,2.5,0.5,4,0.2
			c0.1,0.9,0.6,1,0.6,2c0.2,0.1,0.4,0.1,0.6,0.2v0.3c-1.6-0.4-6.4-1.6-7.7-0.6c-0.5,0.4-0.3,0.9-0.8,1.3v0.1
			c-0.4-0.2-0.4-0.7-0.6-1.1c-0.5-0.8-1.1-1.6-1.6-2.4c-0.4-0.6-0.2-0.9-0.9-1.2c-0.1-0.1-0.3-0.1-0.6-0.1c-0.7,0.7-3.1,2.3-3.4,3.1
			c-0.1,0.2-0.2,1.3,0,1.7c0.2,0.6,0.9,1.3,1.2,1.8c0.3,0.5,0.2,1,0.4,1.5c0.2,0.6,0.8,1.4,1,2c0.3,0.7,1,2.3,0.4,2.8
			c0.2,0.3,0.7,0.8,1,1c-0.1,0.8-0.5,1.3-0.7,2c-0.2,0.6,0,1-0.2,1.6c-0.2,0.5-0.6,1.3-0.8,1.9c0,0.1,0.1,0.3,0.1,0.4
			c-0.2,0.1-0.3,0.2-0.5,0.3c0,0.1,0.1,0.2,0.1,0.3c-0.2,0.3-0.5,0-0.8,0.2c-0.3,0.2-0.3,0.7-0.6,0.9c-0.2,0.1-0.6,0.1-0.8,0.2
			c-0.4,0.2-1.7,2-2.4,2.5c-0.2,0.2-0.4,0.2-0.8,0.2c-0.3-1.2-1.4-2-1.6-3.3c1.3-0.2,2-1.7,2.6-2.7c1.7-2.7,3.5-8.4,2.4-11.5
			c0-0.4-0.1-0.9-0.1-1.3c-0.4-1.4-0.5-3.6-1.7-4.4v-0.2c0.5,0.1,1.4,0.7,2,0.3h0.3c0.1-0.3,0.3-0.7,0.4-0.9c0.1-0.6-0.2-1.4,0-2.1
			c0.2-0.7,0.5-1.7,0.7-2.4v-1.5c0.7-2.8,1.4-5.7,2.2-8.3v-0.7c0.1-0.4,0.4-1.1,0.5-1.5c0-0.2-0.1-0.3-0.1-0.5
			c0.4-1.9,1.1-4.2,1.8-5.8c0.7,0,0.8,0.3,1.2,0.4c0.5,0.2,1.1,0,1.4,0.1l0.3,0.3h1.6c0.4,0.1,1.2,0.2,1.3,0.2
			c1.1,0.1,2.1,0,2.6,0.7c0.7,0,1-0.5,1.2-1c0.3-0.4,0-1.3,0.1-1.9c0.3-1.3,0.6-2.7,1.4-3.5c0-0.6-0.2-0.8-0.3-1.3
			c-0.9-0.2-1.6-0.5-2.5-0.7c-0.5,0-1,0.1-1.5,0.1c-0.4-0.1-1-0.3-1.4-0.4c-1,0-2.1-0.1-3.1-0.1c-0.9-0.4-2.5-0.6-3.4-0.6
			c-0.9,0-3.4-0.8-4-0.5c-1-0.1-4.6-0.5-5-0.3h-1.3c-0.5,0.2-0.5,0.8-0.7,1.4c-0.5,1.3-1.6,3-0.8,4.5c1.1,0.5,2.4,0.6,3.8,0.9
			c0.6,0,1.1,0.1,1.7,0.1c0.3,0.1,0.6,0.3,0.9,0.4c0,1.7-0.8,3.7-1.2,5.1c-0.3,0.9-0.1,1.7-0.4,2.6c-0.5,1.5-1.2,3.3-1.6,4.8
			c-0.2,0.6-0.3,1.3-0.4,1.8c0,0.3,0.1,0.5,0.1,0.8c-0.6,2.7-1.8,5.1-1.9,7.5l-0.1,0.1c-2.5,0-4.4-0.9-6.5-1.4
			c-0.9-0.2-2.6,0.1-3.4-0.6c-0.3-0.1-0.3-0.2-0.3-0.6c-0.7,0.3-1.5,0.6-2.1,1c-0.5,2.1-1.1,4.5-1.7,6.5c0,0.3,0.1,0.6,0.1,0.9
			c-0.1,0.4-0.7,1.1-0.8,1.5v0.8c-0.2,0.6-0.6,1.7-0.8,2.4c0,0.4-0.1,0.8-0.1,1.2c-0.3,0.8-0.7,2-1,2.8c-0.5,1.5-0.9,5-1.7,6
			c-0.2,0.1-0.3,0.1-0.4,0.1c-0.3,0.2-0.1,0-0.1,0.3c-0.1,0-0.2,0.1-0.3,0.1c-1.3-1.7-6.2-3.5-8.3-1.3c-0.2,0-0.3,0-0.4-0.1
			c-0.3-0.4-0.2-0.9-0.4-1.5c-0.5-1.4-1.4-2.5-1.5-4.2c2.6,0.1,5.1,0.1,6.9-0.9c0.9-0.5,2.1-1.6,2.5-2.7c0.1-0.4,0.1-0.9,0.2-1.3
			c0.3-0.9,1-2,1.3-2.8c0.7-1.9,1-3.9,1.5-5.9c0.1-0.3-0.1-2-0.2-2.1c0-0.1-0.4-0.1-0.4-0.2c-0.2-0.6,0.3-1.6,0.4-2.1
			c-0.1-0.4-0.1-0.9-0.2-1.3c0-0.2,0.3-0.6,0.3-0.8v-1.3c0.2-0.6,0.1-1.4,0.3-2.1c0.5-2.2,1.1-4.5,1.8-6.4c-0.1-0.4,0.3-2.4,0.5-3.1
			c0.3-1,0.6-2,0.9-2.8c0-0.5,0.1-0.9,0.1-1.4c0.3-0.6,0.6-1.7,0.7-2.4c1.4-0.3,3.3,0.1,4.7,0.4c0.6,0.1,1.1-0.2,1.8,0
			c1.2,0.3,1.9,0.8,3.2,0.2c0.3-0.7,0-1.2,0.1-1.8c0.3-1.4,1.7-3.7,0.6-4.6c-0.4-0.7-3.9-0.7-5-0.9c-0.5-0.1-1.9-0.5-2.8-0.3
			c-0.3,0.1-1.5,0.2-2.2,0c-2.3-0.6-5.3-0.7-7.4-1.4c-0.5-0.1-1.5,0.2-2.4-0.1c-0.6-0.2-1.2-0.6-1.9-0.8c-0.2,0.2-0.4,0.2-0.5,0.4
			c-0.5,0.4-0.2,1.3-0.5,2c-0.1,0.4-0.5,0.9-0.6,1.3c0,0.4-0.1,0.9-0.1,1.3c-0.2,0.6-0.8,1.5-1,2.1c-0.2,0.6-0.1,1.2,0.1,1.5
			c0.4,0.6,1,0.4,1.9,0.5c0.5,0.1,1.1-0.2,1.7-0.1c0.6,0.1,1.7,0.3,2.2,0.5c0.3,0.1,0.5,0,0.7,0.1c0.1,0,0.2,0.1,0.3,0.1
			c0,5.1-1.4,10.3-2.7,14.4c-0.1,0.3,0.1,0.8,0,1.3c-0.2,0.6-0.5,1.3-0.7,1.9c-0.2,0.6,0.1,1.1-0.2,1.5v0.2c-1-0.4-2.1-1-3.2-1.3
			H410c-1.3-0.3-3.1-0.6-4.4-1c-0.7-0.2-2.4-0.7-2.9-0.3c-0.5,0.4-0.5,1.4-0.7,2.1c-0.4,1.2-1.1,2.6-1.5,3.8
			c-0.3,0.8-0.3,1.4-0.6,2.2c-0.1,0.4-0.6,0.8-0.7,1.1c-0.4,0.8-0.3,1.9-0.7,2.7c-0.2,0.4-0.6,1.2-0.8,1.6c-0.5,1.1-0.5,2.1-0.9,3.2
			c-0.3,0.8-1,1.9-1.3,2.6c-0.4,0.9-0.3,1.9-0.8,2.8c-0.3,0.6-0.8,1.4-1.1,2c-0.3,0.6-0.2,1-0.4,1.7c-0.3,0.9-1.1,1.8-1.5,2.7
			c0,0.1,0.1,0.2,0.1,0.3c-0.2,0.6-0.5,1.2-0.8,1.8c-0.3,0.6-0.8,1.2-0.9,2h-0.4c0,0.4-0.5,2.1-0.9,2.3c0.2,0.5,0.6,0.5,0.8,0.8
			c0.2,0.4,0.1,0.6,0.4,0.9c0.1,0.2,1.4,0.8,1.7,0.7c0.8-0.2,3.9,1.5,4.8,0.8c0.3-0.1,0.4-0.3,0.6-0.6c0.1-0.2,0-0.3-0.1-0.5
			c0.1-0.4,0.2-0.4,0.4-0.7c0.2-0.4,0-1.5,0.1-2c0.2-1.3,1.3-2.4,1.7-3.5v-0.6c0.1-0.3,0.4-0.8,0.5-1.1c0.5-1.3,0.1-2.7,1.1-3.5
			c-0.1-0.3,0-0.2-0.2-0.4c0.1-0.4,0.4-0.5,0.5-0.8c0.3-0.7,0.4-1.3,0.7-1.9h0.2c1.2,1.8,1.1,5.3,1.8,7.4c0.2,0.6,0.3,2.6,0.1,2.8
			c-0.1,0-0.3-0.2-0.5-0.4c-1,0.2-1.8,1.5-2.4,2.2c-0.3,0.3-0.7,0.6-0.9,1c-0.2,0.4-0.2,0.8-0.5,1.2c-0.1,0.1-0.2,0.1-0.3,0.2
			c-0.1,0.2,0.2,0.3,0,0.6c-0.3,0.5-0.8,1.2-1,1.7c-0.1,0.3,0,0.7,0,0.8c-0.1,0.3-0.6,0.7-0.7,1.1c-0.2,0.5,0,0.9-0.2,1.4
			c-0.4,1.2-1,2.8-1.2,4.1c-0.2,1.3,0,2.3,0,3.7c0,0.9-0.3,1.5-0.1,2.4c0.2,0.9,0.1,2.1,0.4,3.1c0,0.1,0.3,0.5,0.3,0.6l-0.2,0.4
			c0.1,0.3,0.5,1.1,0.6,1.5c0.3,1,0,2.1,0.5,2.9c0.1,0.2,0.6,0.6,0.7,0.9c0.2,0.4,0.1,0.9,0.3,1.3c0.2,0.4,0.7,0.9,0.9,1.3
			c0.4,0.8,0.5,1.6,0.9,2.3c0.2,0.3,0.6,0.7,0.8,1c0.3,0.5,0.4,1.1,0.7,1.6c0.2,0.2,0.4,0.3,0.6,0.5c0.4,0.6,0.5,1.3,1,1.8
			c0.2,0.2,0.7,0.3,0.9,0.5c0,0.1,0.1,0.3,0.1,0.4c0.3,0.4,0.7,0.8,1,1.2c0.1,0.1,0.4,0.1,0.5,0.2c0.9,0.9,2.3,2.2,3.5,2.7
			c0.8,0.3,1.5,0.3,2.4,0.6c1.3,0.5,2.9,1.2,4.3,1.5c0.4,0,0.9-0.1,1.3-0.1c0.7,0.2,1.7,0.2,2.3,0.1c1.7-0.3,3.2-0.1,4.6-0.6
			c2-0.7,3.5-2,5.1-3.1c0.2-0.2,0.5-0.1,0.7-0.3c0.2-0.1,0.2-0.5,0.4-0.6c1.3-0.9,2.6-1.9,3.6-3.2c0.3-0.4,0.8-0.6,1.1-0.9
			c1-1.1,2-3.7,1.7-5.4c-0.1-0.6,0.5-0.9,0.4-1.1c-0.1,0-0.2-0.1-0.3-0.1c0.5-0.9,0.1-3.1-0.4-3.8c-0.1-0.4-0.8-0.9-1.2-1
			c-0.6-0.2-0.8,0.3-1.3,0.2c-0.6-0.1-3,0.4-3.5,0.8c-0.4,0.3-0.5,1.7-0.3,2c-0.1,1.1-0.6,0.6-0.9,1.1v0.6c-0.1,0.3-0.5,0.4-0.7,0.6
			c-0.4,0.5-0.4,1.2-0.9,1.6c-3,2.3-6.7,4.2-11.5,2.7c-0.5-0.2-0.8,0-1.3-0.2c-0.5-0.2-0.7-0.9-1-1.1c-0.3-0.2-0.6,0-0.9-0.2
			c-1.3-0.9-2.1-2.5-3.1-3.7c-0.5-0.5-0.4-1.3-1.3-1.4c0.1-0.1,0,0,0.2-0.1c-0.2-1-1.2-2-1.5-3c0-0.1,0.1-0.3,0.1-0.4
			c-0.1,0-0.2-0.1-0.3-0.1c-0.3-0.5-0.6-1.3-0.8-1.8c-0.2-0.4,0-0.7-0.2-1.1c-0.5-1.3-1-2.7-1.3-4.1c-0.3-1.2-0.2-2.6,0-3.4
			c0.1-0.4-0.4-1.9-0.3-2.4c0.1-0.5,0.5-1.1,0.6-1.6c0-0.2-0.1-0.3-0.1-0.5c0.2-0.8,0.2-1.3,0.5-2.3c0.1-0.4,0.4-0.6,0.4-1.1
			c0.8,0.1,1.8,0.2,2.4,0.4c0.7,0.2,1.4,0,1.9,0.1c0.5,0.1,1.5,0.7,2.2,0.5c0.4-0.1,0.5-0.5,0.8-0.7c-0.1-2.2-1.3-4.5-1.4-6.4
			c0.2,0,1.4-0.3,1.4-0.3c1.6,0.4,3.5,0.7,4.6,1.6c0,0-0.2,1.2-0.3,1.6c-0.4,1.1-1.4,4.5-2,4.9c0.8,1.2,1.7,1.1,3.2,1.5h1
			c0.4,0.1,1,0.6,1.4,0.8c0.2,0.1,0.5,0,0.6,0.1c1.8,0,1.5-1.7,2.3-2.7c0.1-0.2,1.3,1.5,2.2,1.2c1.3-0.4,1.6-2.2,2.6-3v-1.2
			c-0.1-0.2-0.5-0.3-0.7-0.4c-0.6-0.5-0.9-1.4-1.7-1.9v-0.4h-0.6c0.1-0.8,0.6-1.3,0.7-1.9c0.1-0.7-0.1-1.7,0.8-2
			c0.1-0.1,0.1,0,0.3,0.1c0.2-0.2,0.2-0.2,0.2-0.6l0.1,0.1c0.7,0.6,0.6,1.5,0.9,2.5c0.4,1.5,0.7,4.2,1.3,6.1c0.3,1,0.1,2.5,0.5,3.4
			c0.2,0.3,0.6,0.9,1,1.1c0.3,0,0.6,0.1,0.9,0.1c0.5,0.2,0.9,0.9,1.5,1.1c0.6,0.2,1.3,0,1.8,0.4c0.5,0.4,0.5,1.4,0.8,2.1
			c0.5,1.3,0.9,2.6,1.4,4c0.5,1.2,1.1,2.6,1.7,3.8c0.2,0.4,0,0.7,0.2,1.1c0.1,0,0.2,0.1,0.3,0.1c0.2,0.3,0.1,1.1,0.3,1.5
			c0.4,1.1,1.5,2,2,3.1c0.3,0.5,0.2,1,0.5,1.5c0.1,0.2,0.5,0.5,0.6,0.7c0.3,0.6,0.2,1.2,0.5,1.7c0.2,0.3,0.6,0.4,0.8,0.6
			c1.3-0.4,2.4-1.5,3.6-2.1c0.9-0.4,1.9-0.7,2.4-1.4c0.3-0.4,0.4-1,0.7-1.4c-0.1-0.7-1.3-2.2-1.7-2.8c-0.2-0.7-0.5-1.3-0.7-2
			c-0.7-1.1-1.3-2-1.9-3.1c-0.3-0.6-0.2-1.3-0.5-1.8l-0.6-0.6c0-0.3-0.1-0.5-0.1-0.8c-0.3-0.8-0.9-2.1-1.6-2.5v-0.3
			c1.4-0.1,2.2,0.4,3.8,0.4c0.2-0.2,0.5-0.3,0.7-0.5c0.4-1.1,0.8-2.4,1.1-3.5c0.2-0.7,0-1.2,0.3-1.7c0.2-0.6,3.1-2.1,3.8-2.3
			c0.6-0.1,1.3,3.2,1.7,4.1c0.1,0.3,0.7,0.6,0.8,0.8c0.2,0.3,0.1,0.7,0.3,1c0.2,0.1,0.3,0.3,0.5,0.4c0.6,0.9,0.7,2,1.3,2.8
			c0.6,0.8,1.7,0.8,2.3,1.4c0.3,0.3,0.2,0.7,0.4,1c0.5,0.9,1,1.7,1.3,2.8c0.2,0.6-0.2,1.1-0.1,1.4c0,0.8,0.4,0.7,0.7,1.1
			c0.9,0,1.6-0.5,1.7-1.2c1.1-0.1,1.4-0.8,2.1-1.2h0.4c0.4-0.2,0.7-0.6,1.1-0.7h0.5c0.1,0,0.5-0.4,0.6-0.4c0.2,0,0.5,0.1,0.7,0.1
			c0.4-0.1,0.6-0.7,0.9-0.9c0-2.4-2.3-2.9-3.1-4.5c-0.6-1.1-0.9-2.5-1.5-3.6V366c-0.1-0.1-0.4-0.2-0.5-0.3c-0.1-0.3-0.1-0.7-0.2-1
			c-0.1-0.1-0.3-0.2-0.4-0.3c-0.3-0.5-0.2-0.9-0.4-1.4c-0.1-0.3-0.6-0.7-0.7-1v-0.5c-0.3-0.7-1-1.6-1.3-2.3
			c-0.3-0.7-0.5-1.5-0.9-2.1c0.6-0.5,1.7-0.5,2.4-0.9c1.2-0.7,2.1-2.2,2.8-3.4c0.7,0.1,0.5,0.9,0.8,1.4c0.1,0.1,0.3,0.3,0.4,0.5
			c0,0.4,0.1,0.8,0.1,1.2c0.1,0.3,0.6,0.8,0.7,1.1c0,0.3,0.1,0.5,0.1,0.8c0.3,0.7,0.9,1.7,1.2,2.4c0.4,0.8,0.2,1.5,0.6,2.4
			c0.1,0.3,0.6,0.6,0.8,0.9v0.5c0.2,0.4,0.6,0.8,0.8,1.2c0.3,0.6,0.3,1,0.5,1.6c0.6,1.5,1.6,3.1,2.5,4.4c0.2,0,0.4,0.1,0.5,0.2
			c1.7-0.1,3.8-3.2,5.2-4.1c0-0.3,0-0.6,0.1-0.8c-0.1-0.8-0.6-1-0.9-1.6c-0.2-0.4,0-0.8-0.2-1.2c-0.2-0.5-0.9-1.2-1.2-1.7
			c-0.3-0.4-0.2-0.9-0.5-1.3c-0.1,0-0.2-0.1-0.3-0.1c0-0.2,0.1-0.3,0.1-0.5c-0.1-0.5-0.3-1.2-0.5-1.7c-0.4-0.9-1.1-1.7-1.5-2.6
			c-0.6-1.2-0.9-2.3-1.5-3.4l-0.9-0.9c-0.3-0.6,0-0.8-0.6-1.2v-0.2c0.7-0.4,1.3-1,1.9-1.4c0.2-0.1,0.5-0.1,0.7-0.2l0.9-0.9
			c0.2,0,0.3-0.1,0.5-0.1c0.2-0.1,0.2-0.4,0.3-0.5c0.4-0.4,1-0.5,1.4-0.9c0.9-0.9,1.7-1.9,2.7-2.7c0.7-0.5,1.5-0.7,2.2-1.2
			c1,0.1,1.5,2.4,2,3.2c0.4,0.7,1.2,1.8,1.8,2.7c0.3,0.5,0.6,1.1,0.8,1.5v0.4c0.2,0.2,0.7,0.5,0.9,0.8c0.5,0.8,0.8,1.7,1.3,2.4
			c0.2,0.2,0.6,0.5,0.7,0.8c0.2,0.4,0,0.9,0.2,1.2c-0.1,0.2-0.1,0.2-0.3,0.3c0.1,0.1,0.2,0.6,0.3,0.7c0.1,0,0.3,0.1,0.4,0.1
			c0.1,0.2-0.1,0.5-0.1,0.6c0.2,0.5,0.7,0.9,1,1.4c0.8,0.3,1.4,0.4,2,0.9c1.8-0.2,2.6-2.9,3.9-3.2c0-0.1-0.1-0.2-0.1-0.3
			c0.4-0.2,0.9-0.1,1.4-0.3c0.9-0.3,0.8-1.6,0.2-2.2C500.4,352.6,499.3,351.3,498.7,350.1z M456.9,331.7c-0.6,0-0.7-0.1-1-0.3
			c0-0.5,0-1,0.2-1.3c0.1-0.8,1.4-1.4,1.9-1.9h0.7c0.1,0.1,0.1,0.1,0.2,0.2C459.4,330.8,458,330.7,456.9,331.7z M478.4,334.6
			c-0.1-0.1-0.1,0-0.2-0.3c0.2-0.2,0.3-0.5,0.5-0.7c0.4-0.1,0.8-0.2,1.1-0.4h0.6c0.1,0.3,0.2,0.4,0.4,0.5c0,0.3,0,0.4,0.1,0.5
			c-0.3,0.9-1.3,0.9-2,1.4c-0.3,0-0.6,0-0.8-0.1C478.1,335,478.3,335,478.4,334.6z M468.7,330.4c0.9,0,1.8,0.6,2,1.3
			c0.1,0.2-0.1,0.5-0.2,0.7c-0.4,1.2-1.7,1.9-3.2,1.7c-0.1-0.2-0.1-0.3-0.3-0.4C467.1,331.9,468,331.5,468.7,330.4z M460.8,330
			c0-0.4,0.4-0.9,0.2-1.5c-0.1-0.3-0.3-0.7-0.4-1.1h0.5c0.3,0.1,0.3,0.7,0.5,1c0.4,0.6,1.1,1.3,1.8,1.6c0.4,1.9,0.2,2.8,1.6,3.7
			l-0.3,0.3v0.2h0.4c0.1,1.3,1.1,1.2,1.7,2c0.4,0.6,0.5,1.4,1,1.9v0.1c-2-0.2-3.1-1.6-5.1-1.8c-0.1-0.2-0.3-0.4-0.4-0.6v-0.5
			c-0.2-0.3-1.2-0.9-1.3-1.1c-0.2-0.4,0-0.8-0.2-1.2c-0.1-0.1-0.3-0.2-0.4-0.3c-0.1-0.2-0.1-0.4-0.2-0.6c0.1-0.7,0.6-1.1,0.8-1.6
			C461,330.5,460.8,330.1,460.8,330z M448.1,340c-0.4-0.8-0.5-1.7-0.9-2.5c-0.3-0.8-0.8-1.5-1.2-2.3c0.5-0.3,1.1-0.7,1.5-1.1
			c0.9,0.2,0.6,0.9,1,1.5c0.3,0.3,1.8,3,1.7,3.4H450c-0.1,0.4,0.5,0.6,0.2,1.2c-0.1,0.1-0.3,0.2-0.4,0.3c0.3,0.5-0.2,1.5-0.5,1.8
			v0.2c-0.4-0.2-0.2-0.6-0.4-1c-0.1-0.1-0.2-0.1-0.3-0.2c0-0.2,0.1-0.5,0.1-0.7C448.6,340.5,448.2,340.2,448.1,340z M444.1,315.7
			c0.2-0.8,0.1-1.3,0.3-2.1c0.6-1.9,1.7-4.4,1.6-6.9c-0.3-0.3-0.5-0.6-0.9-0.8c-0.1-0.1-0.3,0.1-0.6,0c-0.3-0.1-0.8-0.3-1-0.4
			c-0.4,0.1-2.7-0.1-2.9-0.3c-0.7,0-0.9-0.1-1.3-0.3c0-0.4,0.1-0.9,0.3-1.2c0-0.8,0.3-0.9,0.7-1.3c7.2,0.1,11.8,1.8,18.3,2.2
			c0.1,0.9-1.1,2.5-0.6,3.3c0,0.1-0.1,0.2-0.1,0.3l-5.1-0.3c-0.5-0.2-1.2-0.5-1.7-0.7c-0.6-0.2-1.7-0.2-2.1,0.2
			c-1.2,0.5-1.5,4.1-1.9,5.4c-0.1,0.4-0.4,0.8-0.5,1.2c-0.3,1,0.1,1.9-0.3,2.8c-0.9,2.2-1.5,4.9-2.1,7.2v1.2c0,0.2-0.3,0.5-0.3,0.7
			c0,0.5-0.1,1.1-0.1,1.6c-0.2,0.7-0.5,1.6-0.6,2.4l-0.1,0.1c-1.4,0.1-0.9-0.5-2.1-0.5l-0.1-0.1
			C441.2,325.1,442.8,319.8,444.1,315.7z M440.9,331.7L440.9,331.7l0.1,0.2h-0.1V331.7z M416.4,324.8c0-0.1,0.3-0.4,0.3-0.6
			c0-1.4,0.6-3.1,0.9-4.6c0.1-0.4-0.1-1.1,0.1-1.6c0.8-2.1,1.3-5.1,1.8-7.2c0.4-1.7,0.5-3.9,0.6-5.3c0-0.6,0.3-1.1-0.1-1.6
			c-0.3-0.5-1.2-0.6-1.8-0.8h-0.9c-0.1-0.1-0.2-0.3-0.3-0.4c-0.7-0.3-2.7,0.1-3.5-0.4h-0.2c0.5-1.1,1-2.7,1.3-3.9
			c1-0.2,2.9,0.2,4,0.5c0.6,0.2,1.2-0.2,1.9,0c1.6,0.4,3.5,0.6,4.9,1c1.2,0.4,3.2-0.3,4.3-0.1c1.3,0.3,2.7,0.9,3.8,0.8
			c0.2,0.9-0.4,2.2-0.8,2.9c-1.3,0-2.4-0.1-3.6-0.4c-0.4-0.1-1.2,0-1.7-0.1c-0.8-0.2-1.4,0.2-2-0.2c-0.8,0-1.7-0.1-2,0.4
			c-0.4,0.4-0.2,1-0.4,1.6c-0.3,1.2-0.6,2.7-0.9,3.6c0,0.4-0.1,0.7-0.1,1.1c-0.5,1.4-0.8,3.6-1.4,5.2c-0.2,0.6,0,1.2-0.2,1.8
			c-1,2.9-1.8,6.5-2,10.1c-0.7,0-1.4,0-2.1,0.1l-0.1-0.1C416.2,325.9,416.2,325.4,416.4,324.8z M417.7,399.8c0.2,0.1,0.1,0,0.2,0.1
			C417.8,399.9,417.8,399.9,417.7,399.8z M405.1,360.7c0,0.2-1.2,2.9-1.4,3.6c-0.8,2.3-1,6.2-0.4,8.5c0.2,0.8-0.1,1.3,0.2,2.1
			c0.7,2.1,1.1,3.9,1.9,6c0.4,1,1.2,1.9,1.6,2.8c0.1,0.4,0.2,0.7,0.3,1.1l0.5,0.5c0.2,0.4,0.3,0.8,0.5,1.1c0.3,0.4,0.9,0.7,1.2,1.1
			c0.5,0.7,0.7,1.5,1.3,2.1c0.6,0.7,1.5,1,2.2,1.6c0.2,0.2,0.5,0.4,0.8,0.6c0,0.1,0.1,0.2,0.1,0.3c0.6,0.3,1.5,0.2,2.1,0.4
			c2.1,0.8,5.8,1.1,7.9,0.2c0.4-0.2,0.8-0.6,1.2-0.8c0.3-0.1,0.6-0.1,0.9-0.2c0.1-0.1,0.1-0.3,0.2-0.4c0.3-0.2,0.5,0,0.8-0.2
			c0.7-0.4,2.2-1.5,2.7-2.2c0.4-0.5,0.5-1,0.9-1.5c0.7-1,1.9-1.9,2.3-3.1c0.1-0.3-0.1-0.5,0-0.8c0.3-0.1,0.9-0.1,1.1-0.3
			c0.5,0,0.7,0,1,0.2c0.1,0.4,0.4,1.2,0.2,1.8c-0.1,0.1-0.3,0.3-0.3,0.6c0,0.4,0.4,1,0.4,1.5c0,0-0.8,3-0.9,3.1
			c-0.1,0.1-1.2,1.6-1.3,1.6c-0.2,0-0.4,0.1-0.6,0.1c0,0,0,0.5-0.1,0.7c-0.6,0.8-1.7,1.3-2.5,1.9c-2,1.5-3.8,3.3-6.5,4.2
			c-1.1,0.4-2-0.1-3.2,0.2c-0.2,0-2,0.4-2,0.4l-0.4-0.4c-0.2-0.1-0.8-0.1-0.9-0.1c-0.5,0-0.9-0.1-1.4-0.1c-1.1-0.4-2.5-1-3.7-1.3
			H411c-0.4-0.1-0.9-0.6-1.3-0.8c-0.3-0.1-0.6-0.1-0.8-0.3c-0.2-0.2-0.1-0.5-0.3-0.6c-1.4-1-3.1-2.4-4.1-3.8
			c-1.8-2.4-3.1-5.4-4.5-8.1v-0.5c-0.3-0.8-0.8-1.9-1.1-2.5c-0.1-0.1,0-1.5-0.1-1.6h-0.2v-0.8c-0.1-0.2-0.3-0.8-0.4-1
			c0-0.3,0.1-0.5,0.1-0.8c-0.1-0.3-0.3-0.9-0.4-1.2c-0.2-0.7-0.1-1.6,0-2c0.2-1.4-0.2-2.5,0-3.6c0.2-0.9-0.1-1.6,0.2-2.4
			c0.8-2.6,1.5-6.1,3-8c0.2-0.2-0.2-0.1-0.1-0.3c0-0.1,0.6-1.1,0.7-1.3c0.1-0.1,0.3,0,0.4-0.1c0-0.1-0.1-0.2-0.1-0.3
			c0.1-0.2,0.3-0.5,0.4-0.7c0.5-0.7,1.3-1.1,1.7-1.9c0.2,0.1,0.1,0,0.2,0.1c0.2,0.2,0.1,0.5,0.2,0.8c0.2,0.7,0.4,1.5,0.6,2.4
			L405.1,360.7L405.1,360.7z M410.8,360.3v0.2c-1.3,0.2-2.3-0.2-3.4-0.3c-0.2-0.6,0-1.9-0.3-2.8c-0.2-0.6-0.6-1.6-0.8-2.2
			c0-0.5-0.1-1-0.1-1.5c-0.6-1.6-0.7-3.5-1.1-5.1c-0.8-2.8-0.7-6.5-4.1-6.5c-1.6,1.7-2.1,3.6-2.8,5.9c-0.3,0.8,0,1.3-0.3,2
			c-0.6,1.3-1.3,2.9-1.9,4.2c-0.4,0.7-0.3,2.1-0.8,2.7c0,0.5,0,0.8-0.2,1.1c-1.2-0.1-2.7-1.5-3.4-1h-0.1c0-0.9,0.1-0.5,0.4-0.9
			c0.3-0.5,0.2-1.1,0.4-1.7c0.2-0.8,0.8-1.5,1.2-2.1c0.5-0.9,0.7-2.2,1-3c0.2-0.6,0.8-1.3,1-1.9c0.8-2.2,1.5-4.4,2.5-6.4
			c0.5-1,0.4-2.1,0.9-3.1l0.4-0.4c0.1-0.4,0.1-0.7,0.2-1.1c0.3-0.8,0.7-1.8,1-2.6c0.2-0.5,0.1-0.9,0.3-1.4c0.8-2,1.7-4,2.5-6.1
			c0.3-0.8,0.4-1.6,0.7-2.3c0.4,0.1,0.5,0.2,0.7,0.3h0.8c0.5,0.1,1.1,0.4,1.6,0.5h0.8c0.2,0.1,0.7,0.3,0.9,0.4
			c0.4,0,0.7,0.1,1.1,0.1c0.3,0.1,0.7,0.4,0.9,0.5c0.7,0.2,2.2,0.5,2.7,0.1h0.4c-0.1,0.3-0.2,0.5-0.5,0.6c0.2,0.7,0.9,1.4,1.2,2.1
			c0.2,0.1,1.3,0.3,1.5,0.4c0.5-0.1,0.6-0.3,1-0.4c0.3-0.1,0.9,0.2,1.5,0.2c0.1,0.6,0.6,1.3,0.4,2.1c-0.5,2.1-1.1,4.4-1.9,6.1
			c-0.5,1.1-0.5,2.2-1.1,3.3c-0.4,0.8-1.3,1.2-1.7,2c-0.2,0-0.3-0.1-0.6,0c-0.2,0.1-0.6,0.3-0.8,0.4c-1,0.1-2.1,0.2-3.1,0.3
			c-0.8-0.2-3-1.4-3.7-1c-0.2,0.2-0.3,0.5-0.5,0.7c0,0.7,0.4,0.9,0.5,1.3c0,0.2-0.1,0.4-0.1,0.6c0.8,1.5,1.3,3.4,2.1,4.9
			c-0.1,0.4,0.4,1.3,0.5,1.7c0,0.4,0.1,0.8,0.1,1.2c0.3,1,0.6,2.3,1,3.4C410,356.5,411.1,359.9,410.8,360.3z M416.7,354.7
			c-0.8-0.4-2-0.5-2.7-0.7c-0.8-0.2-1.9-0.1-2.2,0.3c-0.5-0.3-0.5-1.3-0.9-1.7c0.1-0.4,2-1.4,2.5-1c0.3-0.1,0.2,0,0.4-0.2
			c1.4,0,4,1.4,4.6,2.2c0.3,0,0.5,0,0.6-0.1h0.4c-0.3,0.6-0.6,1.4-0.6,2.2C418,355.5,417.4,355,416.7,354.7z M426.8,361.3
			c-0.1,0.5-0.4,0.8-0.7,1c-0.4,0.1-0.7-0.5-1-0.8c0-0.7,0.2-1.1,0.3-1.6C426.2,360.1,426.3,360.8,426.8,361.3z M427.9,353.1
			c0.2,0.1,0.1,0,0.2,0.1C428,353.1,428,353.1,427.9,353.1z M433.1,364.6c-0.2-0.4,0-0.7-0.2-1.2c-0.6-1.8-0.9-4.2-1.4-6.1
			c-0.1-0.6,0.2-0.9,0-1.3c-0.8-2.3-1.7-4.4-2.9-6.3c-0.5-0.2-0.9-0.2-1.5-0.3c-0.6,0.8-0.8,1.9-1.5,2.5c-0.2,0.1,0,0.1-0.2,0h-0.2
			c0.1,0.4,0.1,0.4,0.3,0.6c-0.1,0.7-0.4,0.6-0.8,0.9c-0.1,0.3,0.1,0.5,0,0.9c-0.1,0.3-0.6,0.8-0.9,1.1c0.1,0.4,0,0.1,0.3,0.3h0.2
			c0.1,1.6-1,4.3-1.5,5.7c-0.2,0.6-0.1,1.1-0.4,1.6c-0.1,0.3-0.5,0.4-0.6,0.8c-0.7-0.1-2.7-0.6-3.1-1c-0.2-0.3,0.3-0.8,0.3-1.3
			c0.2-0.1,0.2-0.1,0.4-0.1c-0.3-1.2,1.3-5.3,1.8-6.7c0.4-1,0.3-1.9,0.6-2.9c0.9-2.9,1.7-6.4,2.7-9.4c0.2-0.7,0.4-1.5,0.6-2.1v-1.4
			l0.6-0.6c0-0.4,0.1-0.7,0.1-1.1c0.1-0.2,0.3-0.5,0.4-0.6c0.2-0.4-0.1-0.6,0-0.9c0.2-0.7,0.5-1.9,0.7-2.5c0.2-0.7,0.2-2,0.8-2.4
			c0.3-0.1,0.8,0.2,1.3,0.1c0.1,0,0.4,0.1,0.7,0.2c0.6,0,1.1,0.1,1.7,0.1c1.1,0.3,2.1,0.6,3.2,1c0.4,0,0.9,0.1,1.3,0.1
			c1.5,0.4,4.6,1.2,5.4,2.2c0.6,0.7,0.8,2.4,1,3.4v1c1,3.2-1.2,9.1-2.8,11.2c-0.6,0.8-1.7,0.9-2.5,1.6c-1.4-0.1-1.8-1.1-2.6-1.7
			c-0.4-0.3-0.8-0.3-1.1-0.6c-0.6,0-0.8,0.1-1.2,0.3c-0.1,0.1-0.1,0.3-0.2,0.4c0,0.9,0.5,0.9,0.7,1.5c0,0.3,0.1,0.5,0.1,0.8
			c0,0.1,0.4,0.6,0.4,0.7c0,0.3,0.1,0.6,0.1,0.9l0.3,0.3c0.3,0.8,0.2,1.5,0.5,2.4c0.4,1.2,0.8,2.5,1.1,3.8c0.2,0.6,0.2,1.4,0.3,1.9
			c0,0.2-0.1,0.3-0.1,0.5c0.3,1.1,0.8,1.8,0.8,3C434.9,365.9,433.5,365.3,433.1,364.6z M445,373.2c0.1,0.2-0.1,0.7,0,1
			c0.3,0.4,0.5,0.9,0.8,1.3c0.4,0.9,0.5,1.7,0.9,2.5c0.3,0.7,0.9,1.3,1.2,2c0.2,0.5,0.1,0.9,0.4,1.5l0.4,0.4v0.5
			c0.1,0.2,0.5,0.1,0.6,0.3c0.2,0.3,0,0.3,0.2,0.5v0.7c-0.2,0.4-0.8,0.4-1.3,0.5c-0.6,0.2-1.6,0.8-2.1,1.2c-0.6-0.1-1.5-2.6-1.9-3.2
			c-2.1-3-3-6.6-4.6-10c-0.5-1-0.5-2.8-1.2-3.5c0.1-0.5,0.4-0.6,0.7-0.8c0-1.4-0.7-1.9-1.1-3.1v-0.7c-0.5-1.6-0.6-3.2-1.1-4.9
			c-0.1-0.5,0-1-0.1-1.3c-0.5-1.3-1.3-3-1.3-4.8c0.5,0.2,1.4,0.5,1.9,0.1c0.7,0.2,0.4,0.8,0.7,1.4c0.1,0,0.2,0.1,0.3,0.1
			c0.8,1,0.7,2.8,2.1,3.3c0.2,0.1,0.4,0.2,0.5,0.1c1.1-0.1,3.4-1.8,3.7-2.6h0.2c-0.1,2.2-0.8,4.2-1.5,5.8c-0.1,0.4-0.1,0.9-0.2,1.3
			c-0.2,0.6-0.7,1.8-0.6,2.3c0.2,1.2-1.3,2.3-0.6,3.2c0.1,0.4,0.3,0.4,0.7,0.5c-0.1,0.3-0.1,0.4-0.3,0.6c0.1,1.3,1.2,2.4,1.9,3.3
			C444.4,372.9,444.9,373,445,373.2z M451.8,361.6h-0.3c0.2-0.2,0.2-0.1,0.3-0.4h0.2C451.9,361.4,451.9,361.4,451.8,361.6z
			 M452.1,361c0.1-0.7,0.4-1.3,0.7-1.9c0.1,0,0.2-0.1,0.3-0.1c0.1,0.2,0.4,0.2,0.5,0.4c0.3,0.3,0.3,0.7,0.6,1
			C453.9,361,452.9,361.1,452.1,361z M463,361.5c0.1,0.3,0.3,0.7,0.4,1c0,0.2-0.1,0.4-0.1,0.6c0,0,0.7,0.6,0.8,0.8
			c0,0.2,0.1,0.5,0.1,0.7c0.1,0.2,0.3,0.4,0.4,0.6v0.7c0.5,0.8,1.1,1.7,1.5,2.5c0.7,1.6,1.4,4.2,2.8,5c-0.3,0.9-2.4,1.3-3,2.1h-0.6
			c-0.2-0.1-1-2.5-1-2.9c0.9,0.1,2,0.1,2.5-0.4c0.1-0.1,0.3-0.5,0.3-0.7c-0.1-0.5-0.6-0.7-0.8-1.1c-0.4-0.7-0.5-1.3-0.8-2
			c-0.6-1.3-1.4-2.7-2.1-4c-0.5-1-0.6-2.2-1.1-3.2c-0.6-1-1.5-2.3-1.7-3.6h0.4c0.2,0.5,0.6,1.1,0.8,1.5v0.7c0.2,0.1,0.3,0.2,0.5,0.3
			c0,0.2,0.1,0.4,0.1,0.6C462.5,360.9,462.9,361.2,463,361.5z M468.1,349.9c-0.5,0.7-1.3,1.2-1.8,1.9c-0.7,0.9-1.3,2.2-2.3,2.8
			c-1.1,0.7-3.3,0.7-4.2,1.3c-0.8-0.3-1.7-1.6-2.7-0.6c-0.1,0.1-0.1,0.2-0.2,0.3c0.2,1.4,1.2,1.6,1.7,2.6c0,0.1-0.1,0.2-0.1,0.3
			c0.2,0.4,0.7,0.9,0.9,1.4c0.3,0.7,0.4,1.4,0.7,2.1c0.2,0.4,0.6,0.7,0.8,1.1c0.3,0.6,0.3,1.1,0.5,1.7c0.1,0.3,0.5,0.8,0.6,1.1
			c0.2,0.5,0.2,1.2,0.5,1.7c0.3,0.5,0.8,1.1,1.1,1.7c0.2,0.5,0.2,0.8,0.5,1.1v0.2c-0.7,0-1.4-0.1-2.1-0.1c-0.3-0.1-0.3-0.4-0.9-0.4
			c-0.1-0.5-0.6-0.8-0.9-1.2c-0.1-0.2,0-0.6-0.2-0.8c-0.1-0.2-0.5-0.3-0.6-0.5c-0.2-0.3-0.2-0.6-0.4-0.9c-0.1-0.1-0.4-0.1-0.5-0.2
			c-0.2-0.3-0.3-0.9-0.4-1.2c-0.6-1.4-1-2.9-1.6-4.4c-0.7-1.9-2.2-3.1-3.5-4.4c-1.1,0-1.2,0.6-2,0.8v0.7c-1,0.4-0.7,0.4-1.4,0.9
			c0,0.7,0,1.3-0.3,1.8c-0.1,0.1-0.2,0.1-0.3,0.2c-0.3,0.6-0.3,2.4-0.5,3.3c0,0.2,0.1,0.4,0.1,0.6c-0.1,0.2-0.4,0.7-0.5,0.9
			c0,0.4-0.1,0.7-0.1,1.1c-0.1,0.3-0.4,0.5-0.5,0.9c-1.1-0.2-2-0.3-3.1-0.4l-0.1-0.1c0-0.6,0.2-0.8,0.3-1.2v-1.5
			c0.3-1.2,1-2.8,1.4-4.1v-0.7c0.2-0.8,0.6-2,0.8-2.8c0-0.4,0.1-0.8,0.1-1.2c0.4-1.1,1.1-2.2,1.4-3.3c0.6-2,1-4.1,1.7-5.9
			c0.3-0.7,0.1-1.2,0.4-1.8c0.2-0.3,0.6-0.8,0.7-1.1v-0.8c0.5-1.5,1.1-3.1,1.6-4.6c0.2-0.6,0.1-1.4,0.5-1.8c0.2-0.1,2.1,0.3,2.6,0.5
			c0.3,0.1,0.7-0.1,0.9-0.1c0.2,0,0.5,0.4,0.9,0.3c1-0.1,2.7,0.7,3.7,1c2.7,0.8,6.5,2.1,7.8,4.2c0.4,0.7,1,2.2,0.8,3.2
			C469.6,346.6,468.7,349,468.1,349.9z M495.8,356.8c-0.2-0.2-0.5-0.3-0.7-0.5c-0.3-0.5-0.3-1.2-0.5-1.8c-0.2-0.4-0.5-1-0.7-1.4
			c-0.1-0.3-0.1-0.6-0.2-0.9c-0.7-1.1-1.9-2.1-2.6-3.2c-1.1-1.7-1.8-3.5-2.8-5.4c-0.1-0.1-0.3-0.2-0.4-0.3c-0.3-0.6-0.3-1.2-0.6-1.9
			c-0.3-0.7-1-1.1-1.4-1.8c-1.6,0-3.2,1.7-4.3,2.5c-0.5,0.3-1,0.6-1.3,1c-0.1,0.2-0.1,0.4-0.3,0.5c-0.2,0.1-1,0.5-1.1,0.6v0.4
			c0,0-1.1,1-1.1,1c-0.5,0.4-1.1,0.6-1.7,1c-0.1,0.2-0.3,0.3-0.4,0.5c-0.4,0.1-0.7,0.3-1.1,0.4c-0.7,0.4-1.2,1.1-2.1,1.3
			c0,1.1,0,1.3-0.3,2.1c1.4,1.5,2.6,3.8,3.5,5.8c0.1,0.3,0.5,0.5,0.6,0.8v0.5c0.2,0.3,0.6,0.7,0.8,1.1c0.4,0.8,0.4,1.6,0.7,2.5
			c0.3,0.8,0.9,1.7,1.2,2.4c0.3,0.8,0.3,1.6,0.8,2.2c-0.2,1-1.4,2.3-2.4,2.6c-1.1-1.2-1.4-3-2.2-4.5c-0.5-0.9-1.2-1.9-1.7-2.8
			c-0.2-0.4-0.1-0.8-0.3-1.2c-0.6-1.4-1.3-3.1-2-4.4c-0.8-1.3-0.7-3.4-1.6-4.6c0.1-0.5,0.5-0.7,0.7-1.1c0.6-1,1.9-3.9,1.6-5.3
			c-0.1-0.6,0.1-1.1-0.2-1.5c0.1-0.7,2.7-1.8,3.4-2.2c0.4-0.2,0.7-0.7,1-0.9c0.8-0.6,1.6-1,2.4-1.6c0.3-0.3,0.3-1,0.7-1.2
			c0.5-0.3,0.9-0.2,1.4-0.4c0.8-0.4,1.9-1.1,2.2-2c0.7-1.1-0.6-2.9-1-3.7c-0.5-0.9-1.3-1.7-1.8-2.6c-0.5-0.9-0.6-1.7-1-2.7
			c-0.5-1.1-1.2-2.3-1.7-3.5c-0.5-1.2-0.5-3.2-1.7-3.6c0.3-0.9,2.8-2.3,3.5-3c0.8,0.3,1.6,2.3,2,3.1c0.1,0.2,0.5,0.6,0.6,0.8v0.6
			c0.2,0.5,0.7,1.1,0.9,1.6v0.5c0.2,0.1,0.3,0.3,0.5,0.4c0.2,0.3,0.5,1.1,0.6,1.3v0.6c0.1,0.4,0.5,1.2,0.7,1.6
			c0,0.3,0.1,0.6,0.1,0.9c0.3,0.7,1,1.6,1.4,2.2v0.4c0.2,0.4,0.5,0.6,0.7,0.9c-0.2,0.3,0.1,0.9,0.3,1.3c0.4,0.8,1.1,1.7,1.5,2.5v0.4
			c0.1,0.2,0.4,0.5,0.5,0.7c0.2,0.4,0,0.6,0.2,1c0.2,0.6,0.8,1.1,1,1.6c0.6,1.4,1.1,2.8,1.9,4.1c0.2,0.3,0.5,0.5,0.7,0.8
			c0.3,0.5,0.4,1.1,0.8,1.6c0.1,0.1,0.3,0.2,0.4,0.3c0,0.2-0.1,0.3-0.1,0.5c0.1,0.3,0.7,0.7,0.9,1c0.2,0.4,0,0.9,0.3,1.2
			c0.1,0.1,0.3,0.1,0.4,0.2c0.3,0.6,0.4,1.2,0.7,1.7c0.1,0.2,0.4,0.4,0.5,0.6c0,0.2,0.1,0.4,0.1,0.6l0.8,0.8
			c0.4,0.8,0.5,1.5,1.3,1.9C498.7,354.3,496.4,356.6,495.8,356.8z M413,338.3c0.6-0.6,0.8-1.6,1.2-2.5c0.2-0.6,1.3-3.1,1-4
			c-0.7-2.1-3.1-3.2-5.2-3.9c-0.5-0.2-0.8,0-1.3-0.2c-0.7-0.3-1.3-0.6-2.5-0.6c-0.2,0.1-0.5,0.1-0.7,0.3c-1,1-1.5,3.2-2.1,4.6
			c-0.4,0.9-1.1,1.7-1.5,2.6c-0.5,1.3-0.5,2.7-1.2,3.7c0.1,0.5,0.3,0.7,0.4,1.2c0.6,0.1,1.5,0.4,2.1,0.5c0.6,0.2,1.6-0.2,2.2-0.1
			C408.6,340.5,411.3,340.2,413,338.3z M404.9,337.9c-0.5,0-1.5,0.1-1.7-0.2c-0.2-0.4,0.5-1.3,0.4-1.8c-0.1-0.4,0.7-1.4,0.9-1.8
			c0.3-0.5,0.2-1.2,0.5-1.7c0.5-0.9,0.9-2.2,1.4-3.1c0.3,0,0.4,0,0.5-0.1c1.3,0.5,3.2,0.8,4.4,1.4c0.5,0.3,0.9,0.8,1.4,1.1
			c0.1,3.1-0.9,5.5-3.3,6.3c-0.5,0.2-0.6-0.1-1.1,0C407.7,338.2,405.4,338.2,404.9,337.9z M530.8,331.5c0-1.4-1.2-1.7-1.8-2.5
			c-3.9-0.3-4.9,1.4-5.9,4c-0.2,0.6-1,2.3-0.6,3c0,0.1,0.1,0.2,0.1,0.3c0.2,0,0.5,0.1,0.7,0.1c0.1,0.8,0.6,0.9,1,1.4
			c3.2,0.3,4.2-1.8,5.5-3.7C530.1,333.7,531.2,332.3,530.8,331.5z M528.7,332.5c-0.5,0.5-0.7,1.2-1.1,1.8c-0.6,0.6-1.2,1.1-1.8,1.7
			c-0.3,0-0.4,0-0.6-0.1c-0.4-1,0.2-3.6,0.6-4.2c0.3-0.8,1-0.7,1.7-1.1c0.3,0.1,0.6,0.1,0.9,0.2v0.1
			C528.7,331.4,528.7,331.9,528.7,332.5z M285.4,333.2c0.1,0.8,0.6,1.2,1.4,1.3c0-0.7-0.3-1.1-0.6-1.6c-0.3,0-0.4,0-0.5,0.1
			C285.5,333.1,285.5,333.1,285.4,333.2z M438.3,344.5c0.7-1.3,1.2-5,0.2-6.4c-0.5-0.7-1.2-0.8-2-1.3c-0.3-0.3-0.5-0.5-0.8-0.8
			c-0.2,0-0.5-0.1-0.7-0.1c-0.7-0.3-1.3-0.6-2-0.7c-0.3,0-1.1,0.2-1.6,0c-0.4-0.2-0.4-0.3-1.1-0.3l-0.7,0.7
			c-0.1,2.2-1.1,3.9-1.7,5.6v0.6c-0.1,0.4-0.4,1-0.7,1.4C427.2,347.3,436.6,347.5,438.3,344.5z M431.5,337c0.9,0.2,1.8,0.4,2.8,0.7
			c0.3,0,0.5,0.1,0.8,0.1c0.6,0.3,1,0.9,1.6,1.2c0.3,1.3,0.2,4.4-1.2,4.9v0.1h-0.2c-0.1-0.3-0.4-1-0.1-1.2c-0.1-0.3-0.4-0.4-0.6-0.5
			c0-0.2,0-0.2,0.1-0.3c-0.1-0.5-0.3-0.3-0.5-0.6c0-0.2-0.1-0.4-0.1-0.6c-0.2-0.4-0.9-0.5-1.2-0.8c-1.1,0-1.3,0.6-2,1
			c-0.2,0.1-0.4,0.1-0.6,0.2h-0.2C430.1,340,430.9,337.8,431.5,337z M431.1,344.4c-0.4-0.1-0.9-0.5-1.4-0.6v-0.3
			c0.6-0.3,1.5-0.4,2-0.8c0.9,0.1,0.8,1.1,1.4,1.5v0.2C432.6,344.4,431.8,344.6,431.1,344.4z M517.3,335.2c-0.4,0.2-0.8,0.1-1.3,0.3
			c-0.7,0.3-1.8,0.9-2.2,1.5c-0.3,0.4-1.4,2.9-1.1,3.7c0.1,0.4,0.6,0.9,0.8,1.4c0.3,1.1,0.5,2.4,1.6,2.7c0.8,0.5,1.9,0,2.3-0.3
			c1.5-1,2.7-2.7,3.4-4.5c0.2-0.5,0.5-2.1,0.1-2.6C520.8,336.1,518.8,335.3,517.3,335.2z M518.6,340.2c-0.3,0.6-0.9,1-1,1.8
			c-0.3,0.1-1.3,0.9-1.4,1.1c-0.8-0.2-1.4-2.1-1.1-3.3c0.1-0.3,0.6-0.7,0.4-1.2l-0.4-0.4c0.3-0.9,2.5-1.6,3.3-0.8
			c0.3,0.1,0.3,0.3,0.6,0.5C519,338.8,519,339.6,518.6,340.2z M323.8,337.1c-0.5-0.2-1.1,0.1-1.6,0c-0.6,1-2.2,1-3.1,1.7
			c-0.6,0.4-1.7,2.1-2,2.8c-0.1,0.3,0,0.8-0.2,1.1c0.3,1.1,0.9,1.5,2,1.8c0.5,0,1-0.1,1.5-0.1c2.5,0.4,6.4-3.8,4.6-6.4
			C324.8,337.8,324.1,337.3,323.8,337.1z M319,342.5c0.1-1,0.7-1.6,1.5-1.9h0.6c0.7-0.3,1.2-1.1,1.9-1.5c0.1,0.1,0.1,0.2,0.2,0.3
			C323.2,341.5,321.3,342.6,319,342.5z M335.2,339.7c-1.6,0.6-3.7,2.7-4.3,4.3c-0.3,0.9,0.2,2.1,0.1,2.5c0.2,0.5,0.7,1.1,1.3,1.3
			c1.7,1.1,4.4-1.5,4.9-2.4h0.3c0.1-0.6,0.5-0.6,0.7-1v-0.6c0-0.1,0.5-0.4,0.5-0.4c0.2-0.3-0.1-2.6-0.2-2.7
			C338.2,340.1,336.4,339.3,335.2,339.7z M333.1,346.3l-0.3-0.3c-0.5-2.7,1.7-3.1,2.8-4.4c0.3,0,0.4,0,0.5-0.1c0.2,0,0.2,0,0.3,0.1
			c0.2,0.1,0.2,0.1,0.4,0.2C336.6,343.8,334.8,345.6,333.1,346.3z M463.9,344.2c-0.1,0-0.3-0.1-0.4-0.1c-1.2-1.2-1.8-1.9-3.6-2.6
			V341c-1.4-0.1-2.4-0.8-3.6-0.8c-0.4,0.3-0.8,0.7-1.2,1c-0.5,0.7-0.6,1.6-1,2.4c-0.7,1.3-1.4,2.5-2.1,3.9c-0.3,0.7-1.1,2.2-0.9,3.2
			c0.1,0.7,0.8,1,1,1.6l2.7,0.3c0.1,0.1,0.1,0.2,0.2,0.3c0.4-0.1,0.9-0.1,1.3-0.2c0.1,0,0.5,0.3,0.6,0.3c1.1,0.2,4.4-0.7,5.3-1.3
			c0.4-0.3,0.7-0.7,1-1.1c1.6-1.7,2.2-2.8,1.1-5.4C464.1,344.9,464.1,344.4,463.9,344.2z M457.7,351c-1.2,0-2,0-3.1-0.3
			c-0.2,0-0.4,0.1-0.6,0.1c-0.2-0.1-0.4-0.3-0.8-0.3l-0.1-0.1c0.2-1.5,0.9-3,1.6-4.1c0.4,0.3,0.4,0.6,0.6,1.1c0.2,0.4,0.6,1,0.8,1.4
			c0.5,1.3,0.4,1.5,1.6,2.1V351z M462.7,347.9c-0.3,0.8-1,1.7-1.6,2.1c-0.3,0.2-0.7,0.3-0.9,0.6c-0.3,0-0.7,0.1-1,0.1
			c-0.4-0.2-0.4-0.5-0.9-0.4c-0.2-0.5-0.5-1.5-0.1-2.1c-0.2-0.2-0.2-0.2-0.6-0.2c-0.5-1.1-0.8-2.8-1.7-3.5c0-1.1,0.4-1.5,0.6-2.1
			c1.5,0.2,3.3,0.8,4.3,1.5c0.3,0.2,0,0.4,0.2,0.6c0.6,0.5,1.3,0.7,1.6,1.5c0.1,0.4,0.2,0.7,0.3,1.1c-0.1,0-0.1,0.1-0.2,0.1
			C462.6,347.4,462.8,347.5,462.7,347.9z M503.5,343.6h-0.3c0,0.9-0.8,2.2-0.5,3.1c0.2,0.5,0.5,1.2,0.7,1.7c0.2,0.4,0.1,0.9,0.3,1.2
			c0.4,0.5,1.2,0.8,1.6,1.3c2.9-0.1,4.2-1.7,5.2-4c0.3-0.6,0.7-1.5,0.4-2.4C509.9,341.1,505.4,340.6,503.5,343.6z M508.4,347.2
			c-0.5,0.9-1.3,1.2-2.1,1.8c-0.3,0-0.4,0-0.5-0.1c-1.2-0.4-1.6-3.4-0.9-4.5c0.4-0.6,1.1-0.7,1.6-1.1
			C508.8,343.5,509.6,345.2,508.4,347.2z M351,341.9c-0.9,0.6-2.2,0.4-3.1,1c-0.4,0.2-0.4,0.4-0.6,0.7c-1.2,1.6-2.2,1.7-1.9,4.6
			c0.3,0.4,0.7,0.7,1,1.1c2.5,1.6,4.7-0.8,5.8-2.4c0.7-1.1,1.8-3.1,0.5-4.4C352.3,342.2,351.6,342.1,351,341.9z M348.6,347.9
			c-0.2,0.1-0.5,0.1-0.8,0.1c-0.2-0.2-0.4-0.3-0.6-0.5c-0.4-0.4,0.5-1.4,0.6-1.9c0.7-0.1,2.4-1.3,2.9-1.7c0.3,0,0.4,0,0.6,0.1
			C351.1,345.4,349.9,347.4,348.6,347.9z M370.5,381.6c0.4-0.5,1-0.8,1.4-1.3c0.7-0.9,1.5-2.2,2.4-2.9c0-0.5,0.1-0.8-0.1-1.1
			c0-0.6,0.4-0.9,0.7-1.2c-0.1-0.6-0.3-0.7-0.5-1.1c-0.3-0.1-0.5-0.1-0.9-0.1c-1,1.3-3.1,1-4.7,1.7c-1.3,0.5-2.9,1.1-4.2,1.6
			c-1.1,0.5-2.2,0.5-3.2,1c-1.5,0.8-4.1,2.6-6,2.7c-0.1,0.1-0.1,0.2-0.2,0.3c0.1,0.2,0.3,0.2,0.5,0.3c-0.2,1-0.5,1.6-0.5,3
			c0,0.2-0.1,0.5-0.1,0.5c1.1,3.6,5.2,3.2,8.4,1.9C366.2,385.8,368.8,383.8,370.5,381.6z M366,383.1c-0.6,0.5-1.4,0.7-2.1,1.1
			c-0.2,0.2-0.5,0.5-0.8,0.6c-0.3,0-0.6,0.1-0.9,0.1c-0.8,0.3-3.1,1.8-4.3,0.7c-0.4-0.2-1.1-1.3-0.6-1.9c0.1-0.6,1.5-2.1,2-2.3
			c0.5,0,0.9-0.1,1.4-0.1c0.3-0.1,0.9-0.4,1.1-0.6c0-0.1,0.1-0.2,0.1-0.3c0.5-0.4,1.2-0.3,2-0.5c0.7-0.2,1.7-1,2.3-0.7
			c0.4-0.8,1.2-0.5,2-0.9c0.9-0.4,2-1.4,3.2-1.5c-0.2,1.1-1.3,1.8-1.9,2.5C368.4,380.7,367.3,382,366,383.1z M381.4,380.5
			c-1.6,0-2.4,1.1-3,2.1c-0.2,0.3-0.1,0.6-0.3,0.8c-0.4,0.4-0.9,0.7-1.3,1.1c-0.3,0.2-0.5,0.7-0.8,0.9h-0.3c-0.3,0.2-1,1.2-1.3,1.6
			c-0.3,0.4-0.8,0.5-1.1,0.8c-0.3,0.3-0.5,0.8-0.9,1.1c-0.3,0.1-0.5,0.2-0.8,0.3c-0.3,0.2-0.4,0.7-0.6,0.9c-0.8,0.7-3,1.9-3.3,2.9
			c-0.2,0.5,0.1,1,0.2,1.3c0,0.5,0.1,0.9,0.1,1.4c0.2,0.7,0.9,1,1.1,1.8c0.8,0.2,1.3,0.9,2.2,1c0,0,1.9-0.4,2.1-0.5h0.1
			c0.1,0,0.8-0.9,1-1c1.5-1.1,2.1-2.6,3.1-4.2c0.2-0.3,0.7-0.7,0.8-1v-0.5c0.3-0.9,0.7-2,1.1-2.9c0.1-0.2,0.4-0.4,0.5-0.6
			c0.4-0.8,0.5-1.6,0.9-2.3c0-0.1,0.2-1.5,0.3-1.7c0.2-0.5,1.1-1.6,0.6-2.3C381.8,380.9,381.6,380.8,381.4,380.5z M377.4,388.5
			l-0.3,0.3c-0.8,2-2.2,5.4-3.9,6.7c-0.3,0.2-0.8,0.6-1.1,0.7c-0.3,0.1-0.5,0-0.7,0.1c-0.6,0-0.9-0.2-1-0.7h-0.3
			c-0.1-0.6-0.2-0.8-0.2-1.5c0.5-0.5,0.5-1.2,1.4-1.3c-0.1-0.6,0.7-1,1.2-1.3c0.9-0.6,1.4-2,2.8-2.1c0-0.3,0-0.6,0.2-0.8
			c0.1-0.2,0.5-0.1,0.6-0.3c0.3-0.4,0.6-1.1,1-1.4h0.4c0.2-0.2,0.3-0.3,0.5-0.5h0.1C377.9,387.1,377.6,387.8,377.4,388.5z
			 M458.1,407.1c0.4,0,0.8-0.1,1-0.3c0.9-0.4,0.5-1.7,0.7-2.7c0-0.2,0.6-1.9,0.6-1.9c0-1.1,0-2.5,0.2-3.6c0.2-0.7-0.1-1.7,0.2-2.3
			v-0.2c0.5,0,3.1,2,3.4,2.3c0.2,0.2-0.2,0.2,0,0.4c0.2-0.2,0.7,0.1,0.9,0.3c0.7,0.5,1.6,1.5,2.3,1.8c0.2,0,0.5,0.1,0.7,0.1
			c0.4,0.2,1.1,1,1.8,0.8c0.7-0.2,1.3-1,1.1-2.1c-0.1-0.3,0.2-0.6,0.3-0.9c0.1-0.6,0.1-1.2,0.2-1.8c0.3-1,1-2.7,0.9-3.5
			c-0.1-0.9,0.5-2.3,0.3-2.8v-0.1c1.3,0.2,1.7,1.4,2.6,2c0.5,0.3,1,0.3,1.5,0.6c0.8,0.5,1.5,1.5,2.3,2.1c0.5,0.3,1.2,0.3,1.6,0.7
			c0.6-0.1,0.8-0.4,1.2-0.7c0-2.6,0.6-4.5,0.4-7.1c-0.1-1,0.4-2.5-0.1-3.3v-0.2c1.4,0.1,2.4,1,3.4,1.5c0.6,0.3,1.2,0.3,1.8,0.6
			c0.3,0.1,0.6,0.6,0.9,0.7c0.4,0.2,0.7,0.1,1,0.3c0.1,0.2,0.2,0.3,0.3,0.5c0.5,0.4,1.4,0.6,1.8,1.1c0.6-0.1,0.9-0.3,1.4-0.5
			c0.1-0.3,0.1-0.5,0.1-0.9c-0.2-0.3-0.5-0.5-0.7-0.8h-0.5c-0.2-0.1-0.6-0.3-0.9-0.5c-1.2-0.7-2.7-1.6-4-2.2
			c-0.4-0.2-1.1-0.1-1.4-0.3c-0.2-0.1-0.3-0.5-0.5-0.6c-1.2-0.7-2.4-0.9-3.5-1.7c-0.4,0.1-0.7,0.4-1.1,0.6c-0.2,1.1,0.7,3.7,0.3,4.5
			c0,0.9,0.2,2.5-0.4,2.7c0.6,1.8,0.1,1.9-0.1,3.7c-0.5-0.1-1.8-0.9-2-1.2c-0.1-0.1-0.1-0.4-0.2-0.5c-0.2,0-0.4-0.1-0.6-0.1
			c-1-0.6-2-1.5-2.9-2.3c-0.5-0.4-1-1.3-1.7-1.5c-0.4-0.3-0.8-0.2-1.1,0.1c-0.8,0.3-0.4,1.8-0.6,2.9c-0.1,0.3-0.2,0.9-0.3,1.2
			c-0.2,0.7,0.2,1.3-0.1,2.1c-0.4,1.1-0.7,2.3-1,3.3c0,0.3-0.1,0.7-0.1,1c-0.1,0.3-0.3,0.5-0.4,1c-0.7-0.1-0.9-0.5-1.5-0.7v-0.3
			h-0.4c-0.7-0.8-1.7-1.3-2.6-1.9c-0.6-0.4-1.1-1.3-1.8-1.7c-0.9-0.6-1.5-0.8-2.1-1.7c-0.5,0-0.7-0.1-1,0.1
			c-1.1,0.4-0.4,1.5-0.6,2.5c-0.2,0.9-0.3,3.3-0.6,4.2c-0.1,0.3,0.1,1.9,0,2.3c-0.2,0.7-0.6,1.3-0.7,2.2l-0.1,0.1
			c-1.3-0.3-2.2-1.6-3.5-1.7c-0.2-0.7-1.2-1.2-1.8-1.6c-1-0.7-2.2-2.5-3.3-2.9c-0.2-0.1-0.6-0.1-0.8,0c-0.4,0.1-0.5,0.4-0.6,0.8
			c-0.2,0.5,0.4,1.6,0.2,2.3c-0.2,0.7-0.2,1.7-0.3,2.4c0,0.3,0.1,0.8,0.1,1c-0.2,1.3-0.4,3.3-0.1,4.9c0.2,0.8-0.2,1.9,0.2,2.4
			l0.4,0.4c0.4,0,0.6,0,0.8-0.2c0.2-0.1,0.3-0.2,0.4-0.4c0.3-0.4-0.3-1.6-0.2-2.4c0-0.3-0.2-1.3-0.2-1.6c0.2-1.4,0.1-2.9,0.3-4.1
			c0.1-0.3-0.2-1.4-0.2-1.4c0.1-0.3,0.3-0.5,0.3-1l0.1-0.1c0.9,0.2,1.3,1,1.9,1.5c0.9,0.8,2,1.6,3,2.2
			C455.6,405.7,457.3,406,458.1,407.1z M392.3,394.4c-0.2-0.6-0.8-1.4-1-1.9c0-0.3-0.1-0.6-0.1-0.9c-0.3-0.6-0.7-1.3-0.9-1.9
			c0-0.3-0.1-0.5-0.1-0.8c-0.1,0-0.2-0.1-0.3-0.1c0,0-0.7-2.6-0.7-2.7c-0.3-0.8-0.8-1.5-1.1-2.3c-0.4-0.1-0.7-0.2-1.1-0.3
			c-0.1,0.2-0.3,0.1-0.4,0.2c-0.4,0.4-0.5,1.9-0.6,2.5c0,0.4,0.1,0.7,0.1,1.1c-0.1,0.6-0.4,2.2-0.5,2.9c-0.2,0.9,0,1.9-0.2,2.7
			c0,0.3,0.1,0.5,0.1,0.8c-0.4,1.7-0.7,4.5-0.1,6.3c0.5,1.7,1.3,2.6,2.8,3.3c0.4,0.2,1.3,0.8,1.8,0.5h0.7c0.3-0.1,1.4-1.9,1.5-2.3
			c0.1-0.2-0.1-0.5-0.1-0.6c0.1-0.3,0.6-0.4,0.7-0.6c-0.1-0.6-0.1-1.1-0.2-1.7C392.6,398.5,392.5,395,392.3,394.4z M389,402.1
			c0.2,0.1,0.1,0,0.2,0.1C389,402.2,389.1,402.2,389,402.1z M389.7,401.5C389.7,401.6,389.6,401.6,389.7,401.5
			c-0.5,0.1-0.6,0-0.8,0.1c-0.4-0.5-1.1-1-1.4-1.6c-0.3-0.8-0.2-1.9-0.2-2.4c0,0,0.1-0.1,0.1-0.1c-0.5-1.1-0.2-2.9,0-4
			c0.3-1.2,0-2.3,0.3-3.3c0.7,0.6,0.3,1.7,0.6,2.9c0.2,0.6,0.4,1.6,0.6,2.2c0.2,0.4-0.1,1.2,0,1.4
			C389.4,398,389.8,399.9,389.7,401.5z M499.5,398.3c-0.2-0.2-1.4,0-1.8-0.2c-0.5-0.2-1.1-0.8-1.7-1c-2.3-0.9-4.7-1.3-6.7-2.4
			c-0.3-0.2-2.4-0.5-2.5-0.5c-0.7,0.1-0.7,0.6-1.2,0.9c0.1,0.4,0.4,0.6,0.5,0.9c0.2,0.9-0.2,2.4,0.1,3.5c0.1,0.1,0.1,0.1,0.2,0.2
			c0.1,0.6-0.2,1.5-0.1,2.1c0.1,0.3,0.2,0.6,0.2,1c-0.1,0.2-0.1,0.5-0.2,0.7c0,0.2,0.2,0.5,0.2,1c-1.1-0.1-2.9-0.5-3.9-0.8
			c-0.2,0-0.6-0.4-0.7-0.4c-0.1,0-0.2,0.2-0.4,0.1c-0.4-0.2-0.9-0.7-1.3-0.9c-0.5-0.3-1.1-0.3-1.6-0.6c-0.3-0.2-0.4-0.4-0.8-0.5
			c-0.4-0.2-0.9,0.3-1.3,0.4c0,2.1-0.2,3.6-0.8,5.4c-0.3,0.8,0,1.6-0.3,2.4c-0.3,0.9-1,2.5-0.8,3.4c-0.1,0.1-0.2,0.1-0.3,0.2
			c-2.2-0.2-4.5-1.7-6.1-2.6c-0.5-0.2-1.1-0.3-1.6-0.5c-0.6-0.3-1.3-0.8-1.9-1.2c-0.6,0.1-0.7,0.4-1.1,0.6c-0.1,0.7,0,1.6,0.1,2.3
			c0.2,0.9-0.1,2.7,0.1,3.8c0.2,0.8-0.2,2.2,0,2.7v0.7c-1.3-0.4-2.3-1.6-3.3-2.4c-0.1-0.2-0.2-0.3-0.3-0.5c-0.9-0.6-1.7-1.2-2.7-1.8
			c-0.1-0.1-0.4-0.5-0.4-0.5h-0.5c-1.3-0.4-1.3-0.7-2.4,0.1c0,0.9,0.4,1.2,0.6,1.8v1.5l0.2,0.3c0,0.3-0.1,0.7-0.1,1
			c0.4,1.8-0.2,4,0.6,5.3c0.7,0,0.9-0.1,1.3-0.3c0.3-1,0-4.4-0.2-5.6c-0.1-0.5,0.1-1.2-0.1-1.5v-0.5c1.2,0.4,1.9,1.5,2.8,2.1
			c1.1,0.8,2,1.7,3.1,2.4c0.2,0,0.3,0.1,0.5,0.1c0.4,0.2,0.7,0.8,1.1,1c0.6,0.1,1.1,0.2,1.7,0.3c0.1-0.3,0.3-0.6,0.5-0.8
			c-0.1-0.7-0.4-1.2-0.5-1.7c0-1-0.1-2-0.1-3c-0.3-1.3-0.1-3.1-0.1-4.6c1.5,0.3,2.6,1.3,3.8,1.8c0.8,0.3,1.4,0.4,2.2,0.7
			c0.1,0,0.4,0.3,0.5,0.3c0.1,0,0.2-0.1,0.3-0.1c0.7,0.3,2.5,1.5,3.1,1c0.9-0.3,0.7-1.3,1.1-2.2c0.2-0.5-0.1-0.5,0.1-1.2
			c0.3-1.2,0.7-2.8,0.9-4c0-0.1-0.1-0.3-0.1-0.4c0.1-0.3,0.4-0.7,0.5-1.1c0.2-0.9,0-1.8,0.4-2.4c0.3-0.1,1.3,0.2,1.6,0.4
			c1.3,0.8,3.2,1.2,4.8,1.7c0.9,0.3,2,0.2,2.5,0.9c1.2,0,1.2-0.4,1.8-0.9c0-0.8-0.4-1.2-0.6-1.9c0-0.2,0.1-0.5,0.1-0.7
			c0,0-0.2,0.1-0.3-0.3c-0.1-0.9-0.1-1.8-0.2-2.7c0-0.2,0.1-0.5,0.1-0.7c-0.2-1-0.3-2.2-0.2-3.3c0.9,0,1.5,0.3,2.1,0.6
			c0.3,0,0.7,0.1,1,0.1c0.5,0.2,1.2,0.6,1.7,0.8c0.5,0.2,0.8,0,1.3,0.2c0.8,0.3,1.6,0.9,2.3,1.2c1.1,0.5,1.8,0.7,2.5,1.6
			c0.5-0.1,0.7-0.2,1-0.4c0-0.2,0.1-0.3,0.1-0.5c0.4-0.1,0.5-0.2,0.7-0.4l0.1-0.1C500.2,399.3,500.1,398.7,499.5,398.3z"/>
	</g>
</g>
<g>
	<g>
		<path class="st1" d="M500.2,260.5c-0.2-0.6-0.1-1-0.5-1.3c-0.4-0.4-1.1-0.4-1.8-0.3c-0.1,0.1-0.1,0.1-0.2,0.2v0.7h-0.4v0.2
			c-0.6,0.9,0.4,2.7,1.6,2.7C499.7,262,500.6,261.8,500.2,260.5z M487.8,264c-0.3,0.4-0.8,0.4-1,0.9c-0.5,1.3,0.5,3.4,1.7,3.4
			c0.4-0.4,1.1-0.4,1.4-0.8c0.7-0.8,0.2-2.7-0.4-3.2C489.1,264,488.5,263.9,487.8,264z M476.1,269.4c-0.4,0.4-0.8,0.5-0.8,1.4
			c-0.5,0.7,0.7,2.7,1.1,2.9h0.7c0.3-0.3,0.7-0.3,0.9-0.8c0.5-0.6,0.2-2.4-0.3-2.8C477.5,269.6,476.8,269.4,476.1,269.4z
			 M371.4,376.8c-1.2,0.1-2.3,1.1-3.2,1.5c-0.8,0.4-1.6,0.1-2,0.9c-0.6-0.3-1.6,0.5-2.3,0.7c-0.8,0.2-1.5,0.1-2,0.5
			c0,0.1-0.1,0.2-0.1,0.3c-0.2,0.2-0.8,0.5-1.1,0.6c-0.5,0-0.9,0.1-1.4,0.1c-0.5,0.2-1.9,1.7-2,2.3c-0.5,0.6,0.2,1.7,0.6,1.9
			c1.2,1.1,3.5-0.4,4.3-0.7c0.3,0,0.6-0.1,0.9-0.1c0.3-0.1,0.6-0.4,0.8-0.6c0.7-0.4,1.5-0.6,2.1-1.1c1.4-1.1,2.4-2.4,3.5-3.8
			C370.1,378.5,371.2,377.9,371.4,376.8z M377.5,386.9h-0.4c-0.4,0.3-0.7,1-1,1.4c-0.1,0.2-0.5,0.2-0.6,0.3
			c-0.2,0.2-0.2,0.5-0.2,0.8c-1.4,0.1-1.9,1.5-2.8,2.1c-0.5,0.3-1.3,0.7-1.2,1.3c-0.9,0.1-0.9,0.8-1.4,1.3c0,0.7,0.1,0.9,0.2,1.5
			h0.3c0.1,0.5,0.4,0.7,1,0.7c0.2-0.1,0.4,0,0.7-0.1c0.3-0.1,0.8-0.5,1.1-0.7c1.7-1.3,3.1-4.7,3.9-6.7l0.3-0.3
			c0.2-0.7,0.5-1.4,0.7-2.1H378C377.8,386.6,377.7,386.7,377.5,386.9z M388.9,395.3c-0.2-0.6-0.4-1.6-0.6-2.2
			c-0.3-1.2,0.1-2.3-0.6-2.9c-0.3,1,0,2.1-0.3,3.3c-0.2,1.1-0.5,2.9,0,4c0,0-0.1,0.1-0.1,0.1c0,0.5-0.1,1.6,0.2,2.4
			c0.3,0.6,1,1.1,1.4,1.6c0.2-0.1,0.3,0,0.7,0c0,0,0.1-0.1,0.1-0.1c0.1-1.6-0.3-3.5-0.8-4.8C388.8,396.5,389.1,395.8,388.9,395.3z"
			/>
	</g>
</g>
<g>
	<g>
		<path class="st1" d="M333.8,285.2H333c-1-0.3-1.9-0.4-2.9-0.7c-0.4,0-0.9-0.1-1.3-0.1c-1.6-0.5-2.9-1.2-4.9-1.2
			c-0.1,1-0.6,1.8-0.6,2.7c0.6,0.2,1.6,0.6,2,0.7c0.4,0.1,0.9-0.1,1.3-0.1c0.4,0.1,1.2,0.3,1.5,0.4c0.2,0.1,0.4-0.1,0.4-0.1
			c0.2,0,0.5,0.2,0.6,0.2c0.3,0,0.7-0.1,1-0.1c0.8,0.1,1.8,0.6,2.6,0.8c0.9,0.2,1.7,0.3,2.4,0.5c0.6,0,1.1,0.1,1.7,0.1
			c0.2,0.1,0.3,0.4,0.5,0.4c0.3,0,0.5-0.1,0.8-0.1c0.2,0,0.5,0.3,0.8,0.2c0.2-0.1,0.2-0.4,0.6-0.3v0.1c0.2,0.1,1.4,0.4,1.4,0.4
			c0,0.1,0.1,0.3,0.1,0.4c0.4,0.5,1.3,0.7,1.5,1.3c-0.1,0.2,0,0.6,0,1c-0.2,0.2-0.2,0.4-0.4,0.6c-0.4,0.6-3,2.9-3.7,3v0.4
			c-0.7,0.4-1.3,0.8-2,1.3c-0.2,0.3-0.4,0.5-0.6,0.8c-0.3,0.3-0.7,0.3-1.1,0.5c-0.8,0.5-1.6,1.1-2.3,1.7c-0.4,0.3-0.6,0.8-1,1.1
			c-0.2,0-0.3,0.1-0.5,0.1c-0.8,0.4-1.8,1.1-2.6,1.6c-0.2,0.1-0.2,0.5-0.4,0.6c-1,0.8-1.9,1.5-2.9,2.2c-0.4,0.3-1.1,0.2-1.6,0.5
			c-0.1,0.1-0.2,0.3-0.3,0.4c-0.4,0.2-0.7,0.1-1.1,0.3c-0.7,0.3-1.5,0.9-2.1,1.3c-0.2,0.2-0.5,0.2-0.7,0.4c-0.5,0.7-0.3,1.6-0.6,2.5
			c-0.5,1.7-1.3,3.4-1.3,5.1h0.2c0.7,0.5,1.8,0.4,2.7,0.6c0.3,0.1,0.8-0.1,0.9-0.1c0.5,0.1,1.5,0.5,2.1,0.7c0.8,0.2,1.5,0,2.1,0.1
			c1.1,0.2,2.5,0.4,3.2,0.6c0.8,0,1.7,0.1,2.5,0.1c2,0.5,4.2,1.3,6.5,1.3c0.7-1.2,1.2-2.6,1.3-4.2c0,0-0.1-0.1-0.1-0.1
			c-3.5-0.4-6.4-1.4-9.8-2.3c-0.5-0.1-4-0.3-4.2-0.2v0.2c-0.4,0.2-1.2,0-1.5-0.1c-0.3-0.4-0.6-0.6-0.7-1.3c0.1-0.1,0.1-0.3,0.2-0.4
			c0.5-0.2,1.1-0.3,1.7-0.5c1-0.4,2-1.5,2.9-2.1c1.4-0.9,2.8-1.6,4.1-2.5c0.9-0.6,1.7-1.5,2.5-2.2c0.1-0.2,0.3-0.4,0.4-0.6
			c1-0.7,2-1.3,2.9-2c0.2-0.2,0.3-0.6,0.5-0.8c0.3-0.3,0.8-0.4,1.1-0.7c0.6-0.5,1-1.2,1.5-1.8c0.4-0.5,1.6-1,2.2-1.4
			c1-0.7,1.9-2,2.8-2.8c-0.1-1.9,0.6-3.9,0.3-5.6C341.7,287.2,337.1,286.2,333.8,285.2z M372.5,291.5c-0.8-0.6-2.2-0.3-3.2-0.6
			c-0.3-0.1-0.9-0.3-1.2-0.4c-0.6-0.1-1.3,0.3-2,0.1c-0.2,0-0.4-0.4-0.6-0.4c-0.3,0-0.7,0.1-1,0.1c-0.1,0-0.5-0.2-0.7-0.2
			c-1.2,0.1-2.4,0.4-3.8,0.1c-2-0.4-3.7-1.7-6.1-1.8c-0.5,0.9-0.7,2.1-0.7,3.3c0.1,0,0.2,0.1,0.3,0.1c0.2,0.1,0.5,0,0.8,0.1
			c1.2,0.3,2.1,0.2,3.6,0.3c0.2,0,0.5,0.1,0.7,0.1c0.4-0.1,1.3-0.2,1.7-0.1c3,0.4,6.2,1.5,9.4,1.5c0.3,0.5,0.5,0.8,0.5,1.7
			c-0.2,0.2-0.2,0.5-0.4,0.8c-0.3,0.5-0.8,0.7-1.3,1c-0.1,0.1-0.1,0.3-0.2,0.4c-0.5,0.6-1.1,1-1.7,1.5c-0.6,0.4-1,1.2-1.5,1.7
			c-0.2,0.2-0.6,0.2-0.8,0.4c-0.5,0.4-0.8,1.1-1.3,1.5c-0.5,0.4-1.1,0.7-1.6,1v0.3h-0.3c-0.3,0.5-0.8,0.6-1.2,1
			c-0.8,0.8-1.5,1.7-2.4,2.4c-0.6,0.4-1.1,0.5-1.2,1.4c-0.3,0-0.4-0.1-0.6,0c-0.4,0.2-0.4,0.6-0.7,0.8c-0.3,0.2-0.7,0.2-1,0.4l-1,1
			c-0.4,0.3-0.8,0.3-1.1,0.6c0,0.1-0.1,0.2-0.1,0.3h-0.7c-0.4,0.1-1,0.5-1.1,0.9c-0.4,0.4-0.2,1.1-0.4,1.7c-0.4,1.1-0.5,2.7-1,3.8
			c-0.2,0.5-0.5,1-0.6,1.7c0.2,0.1,0.3,0.1,0.4,0.3c0.2,0,1.8-0.1,2.2,0c0.1,0,0.3,0.2,0.5,0.1c0.4-0.1,1.4-0.3,1.9-0.2
			c1,0.2,2.1,0.7,3,0.9c0.5,0,1,0.1,1.5,0.1c1.1,0.3,2.5,0.6,3.5,0.9h0.9c0.9,0.5,2.5,1.4,3.7,0.5c0.6-0.8,0.7-1.8,1.1-2.7
			c0.2-0.6,0.7-1,0.8-1.8c0,0-0.1-0.1-0.1-0.1c-1.3-0.1-2.2-0.4-3.3-0.7c-0.7-0.2-2.4,0.4-3.5,0.1c-1-0.3-2.3,0-3.4-0.3
			c-0.6-0.1-1.1-0.6-1.6-0.7c-0.4-0.1-0.6,0.1-0.8,0.2c-0.7,0.2-1.2-0.2-1.6-0.3c-0.1-0.2-0.2-0.3-0.3-0.6c0.1-0.2,0.1-0.8,0.4-1
			c0.5-0.4,1.5-0.6,2-0.9l1.2-1.2c1.6-1.2,3-2.7,4.6-3.9c0.3-0.2,0.3-0.6,0.5-0.8c0.2-0.3,0.6-0.2,0.9-0.4c0.7-0.4,0.6-1.3,1.7-1.4
			c0,0,0.1,0.1,0.1,0.1c0.1-1,2-2.1,2.7-2.7c0.2-0.1,0.2-0.4,0.3-0.6c0.3-0.5,1.1-1.1,1.6-1.4c1-0.7,3.1-1.9,3.6-3.1
			c0.3-0.5-0.1-1.3,0-1.9C372.6,295.9,372.9,292.1,372.5,291.5z M401.7,295.1c-0.1,0-0.3-0.1-0.6,0c-0.3,0.1-1,0.4-1.3,0.4
			c-0.8,0.1-1.9-0.7-2.5-0.8c-0.3-0.1-0.7,0.2-1.1,0l-0.3-0.3c-1.5-0.1-3.1-0.3-4.6-0.4c-2.4-0.6-5.2-1-8-1c-0.1,0.6-1,3.3-0.8,3.6
			c0.2,0.2,0.1,0.2,0.5,0.2c0.6,0.3,2.8-0.2,3.7,0c1,0.2,2.4,0.3,3.6,0.6c0.7,0.2,1.4-0.1,1.9,0c0.8,0.2,3.1-0.3,3.9,0
			c1,0.4,2.6,0.8,3.4,1.1c0.3,0.5,1.1,1.4,0.9,2.4c-0.1,0.6-0.7,0.9-1,1.3c-1.2,1.6-2.3,2.9-4,4c-0.3,0.2-0.7,0.7-1,0.9
			c-0.3,0.1-0.5,0.2-0.8,0.3c-0.4,0.3-0.6,0.9-1,1.2c-0.2,0-0.3,0.1-0.5,0.1c-0.4,0.2-0.8,0.9-1.2,1.1c-0.2,0.1-0.5,0.1-0.7,0.2
			c-0.2,0.2-0.3,0.4-0.5,0.6c-0.3,0.1-0.6,0-0.8,0.2c-0.5,0.3-0.9,1-1.4,1.3c-0.9,0.6-1.9,1-2.9,1.6c-0.5,0.3-1.5,1.6-2,2
			c-0.5,0.4-1.2,0.6-1.7,1c-0.2,0.2-0.2,0.5-0.4,0.7c-0.2,0.2-0.6,0.2-0.8,0.4c-0.4,0.5-1.5,3.9-1.5,4.8c0.3,0.2,0.2,0.3,0.7,0.3
			c0.3,0.1,1.2,0,1.6,0.1c0.6,0.1,1.6,0.3,2.1,0.3c1.1,0.1,2.3-0.4,3.3-0.2c0.4,0.1,2.7,0.3,3.3,0.2c0.3-0.1,0.9-0.2,1.3-0.1
			c1,0.2,2.2,0.2,3.2,0.2c0.4,0,0.9,0.3,1.2,0.4h1.7c0.3,0.1,0.5,0.3,1.1,0.3c0.1-0.2,0.3-0.2,0.4-0.5c0.4-0.5,0.7-2.9,0.6-3.6
			c-0.3-0.1-0.2-0.1-0.5-0.2c-0.8-0.5-2,0-2.8-0.2c-1.9-0.5-5.5-0.1-7.4-0.5c-1.8-0.4-4,1.6-4.3-1c0.1-0.1,0.1-0.2,0.2-0.4
			c0.7-0.4,1.6-0.6,2.3-1c0.8-0.4,1.5-1.2,2.2-1.7c1.3-0.9,2.6-1.6,4-2.3c0.9-0.5,1.4-1.5,2.2-2c0.5-0.3,0.9-0.4,1.4-0.7
			c1.2-0.8,1.9-2.4,3.1-3.3c0.8-0.6,3.4-2.7,3.8-3.5c0.4-0.8,0.3-1.7,0.6-2.4c0-0.1-0.1-0.3-0.1-0.4c0.3-0.5,0.6,0.1,0.6-1
			C403.2,298.5,403.1,295.2,401.7,295.1z M429.7,299.8c-1.1-0.2-3.1,0.5-4.3,0.1c-1.4-0.4-3.4-0.6-4.9-1c-0.7-0.2-1.3,0.2-1.9,0
			c-1.1-0.3-3-0.7-4-0.5c-0.3,1.2-0.8,2.8-1.3,3.9h0.2c0.8,0.5,2.8,0.1,3.5,0.4c0.1,0.1,0.2,0.3,0.3,0.4h0.9
			c0.6,0.2,1.5,0.3,1.8,0.8c0.4,0.5,0.1,1,0.1,1.6c-0.1,1.4-0.2,3.6-0.6,5.3c-0.5,2.2-1,5.1-1.8,7.2c-0.2,0.5,0,1.2-0.1,1.6
			c-0.3,1.5-0.9,3.2-0.9,4.6c0,0.2-0.3,0.5-0.3,0.6c-0.2,0.5-0.2,1.1-0.2,1.8l0.1,0.1c0.7-0.1,1.4-0.1,2.1-0.1c0.2-3.6,1-7.2,2-10.1
			c0.2-0.6,0-1.2,0.2-1.8c0.6-1.6,0.9-3.8,1.4-5.2c0-0.4,0.1-0.7,0.1-1.1c0.3-0.9,0.6-2.4,0.9-3.6c0.2-0.6,0-1.2,0.4-1.6
			c0.3-0.5,1.2-0.4,2-0.4c0.6,0.4,1.2,0,2,0.2c0.5,0.1,1.3,0,1.7,0.1c1.2,0.3,2.3,0.4,3.6,0.4c0.4-0.7,1-2,0.8-2.9
			C432.5,300.7,431.1,300.1,429.7,299.8z M458.6,304.6c-6.6-0.4-11.1-2.2-18.3-2.2c-0.4,0.4-0.7,0.5-0.7,1.3
			c-0.2,0.3-0.3,0.8-0.3,1.2c0.4,0.2,0.6,0.3,1.3,0.3c0.2,0.2,2.5,0.4,2.9,0.3c0.2,0.1,0.7,0.3,1,0.4c0.3,0.1,0.5-0.1,0.6,0
			c0.4,0.2,0.6,0.5,0.9,0.8c0.1,2.5-1,5-1.6,6.9c-0.2,0.8-0.1,1.3-0.3,2.1c-1.2,4.1-2.8,9.4-3.2,13.7l0.1,0.1c1.2,0,0.7,0.6,2.1,0.5
			l0.1-0.1c0.1-0.8,0.4-1.7,0.6-2.4c0-0.5,0.1-1.1,0.1-1.6c0-0.2,0.3-0.5,0.3-0.7V324c0.6-2.3,1.2-5,2.1-7.2c0.4-0.9,0-1.8,0.3-2.8
			c0.1-0.4,0.4-0.8,0.5-1.2c0.4-1.3,0.7-4.9,1.9-5.4c0.4-0.4,1.5-0.4,2.1-0.2c0.5,0.2,1.2,0.5,1.7,0.7l5.1,0.3
			c0-0.1,0.1-0.2,0.1-0.3C457.5,307.1,458.7,305.5,458.6,304.6z"/>
	</g>
</g>
</svg>
