<?xml version="1.0" encoding="utf-8"?>
<!-- Generator: Adobe Illustrator 21.0.0, SVG Export Plug-In . SVG Version: 6.00 Build 0)  -->
<svg version="1.1" id="Calque_1" xmlns="http://www.w3.org/2000/svg" xmlns:xlink="http://www.w3.org/1999/xlink" x="0px" y="0px"
	 viewBox="0 0 841 595" style="enable-background:new 0 0 841 595;" xml:space="preserve">
<style type="text/css">
	.st0{fill:#DADADA;}
	.st1{fill:#1D1D1B;}
</style>
<ellipse transform="matrix(0.9476 -0.3194 0.3194 0.9476 -94.0396 180.0676)" class="st0" cx="502" cy="376.7" rx="77" ry="3.5"/>
<g>
	<g>
		<path class="st1" d="M549.4,312.7c-0.3-0.5-1.1-0.2-1.5-0.1c-0.2,0-0.5-0.1-0.7-0.1c-0.2,0-2.6,1.1-2.7,1.2
			c-0.1,0.2,0.1,0.4-0.1,0.5c-0.3,0.3-0.9,0.3-1.3,0.4c-1,0.4-2,0.8-3.1,1.2c-2.1,0.8-4.3,1.8-6.3,2.6c-0.2,0-0.5,0.1-0.7,0.1
			c-1.2,0.4-2.3,0.7-3.6,1.2c-1.2,0.4-2.5,1.1-3.7,1.5c-0.6,0.2-1.1,0.2-1.7,0.4c-1.9,0.7-3.9,1.3-5.9,2.1c-1.7,0.7-3.6,1.3-5.5,2
			c-1,0.4-2.3,1.1-3.5,1.3c0-0.6,0.2-1.7,0.4-2.1c0.4-0.6,1.5-0.7,2.2-1c1.1-0.5,2.5-1.1,3.5-1.7c0.4-0.1,0.8-0.2,1.2-0.3
			c2.5-1,5.1-2.2,7.5-3.2c0.3,0,0.5-0.1,0.8-0.1c0.8-0.3,1.6-0.6,2.4-0.9c0.6-0.2,1.2-0.7,1.8-0.9c0.5-0.2,0.9-0.1,1.4-0.3
			c0.3-0.1,0.7-0.5,1.1-0.6c0.5-0.1,1-0.2,1.4-0.3c0.6-0.2,1.4-0.7,2-0.9c0.6-0.2,1.2-0.2,1.7-0.5c0.7,0,1.4,0.6,1.7,1.1
			c0.5,0,0.7-0.1,1.1-0.4c0-0.6-0.1-0.9-0.4-1.2v-0.2c0.7,0.2,1.2,0.6,1.5,1.1c0.4-0.2,0.6-0.5,1-0.6c-0.1-0.6-0.4-0.8-0.1-1.3
			c0.6-0.8,1.8-0.8,2.8-1.2c1.4-0.6,3.1-1.1,4.5-1.7c1.2-0.5,2.2-0.6,3.2-1.2c0-0.4-0.1-0.5-0.2-0.7c-0.6-0.2-1.5-0.2-2.2,0.1
			c-0.2,0.2-0.4,0.4-0.5,0.5c-0.4,0.2-1.3,0.6-1.6,0.7c-1.4,0.5-2.8,0.9-4.1,1.4c-0.6,0.2-1.1,0.2-1.5,0.5c-1.1-0.1-2.2-1.6-3-2.2
			c-1.5-1.4-3.1-2.8-4.3-4.5c-0.5-0.4-1-0.9-1.4-1.3c-0.5-0.7-1.9-2.8-2.5-3.1c0.4-1.1,1.8-1.7,2.5-2.6c1.5-2,3.7-4.1,4.7-6.5
			c0.3-0.8,0.3-1.4,0.6-2.2c0.1-0.1,0.3-0.4,0.4-0.5c0-0.1-0.1-0.3-0.1-0.4c0.1-0.2,0.4-0.4,0.4-0.5c0.2-0.6,0.4-2.1,0.4-2.8
			c0.2-1.5-0.6-4.3-0.1-5.7c-1-0.5-0.9-1.4-1.3-2.6c-0.2-0.7-0.6-1.5-0.9-2.2c-0.2-0.6-0.2-1.1-0.4-1.7c-0.3-0.6-0.6-0.9-0.5-1.6
			c-0.2-0.1-0.5-0.3-0.6-0.4c-0.3,0-0.5,0-0.7,0.1c0,0.6,0.3,0.8,0.4,1.3c0.6,1.5,1,3,1.6,4.4c-0.1,0.6,0.4,1.7,0.5,2.4
			c0.1,0.5-0.5,1.9-0.6,2.5c-0.1,0.4,0.1,1,0.1,1.2c-0.1,0.6-0.2,1.4-0.4,1.9v0.9c-0.4,1.4-1,3.5-1.7,4.7c-1.5,2.5-3.5,5-5.7,6.7
			c-0.9,0.7-1.5,1.8-2.4,2.5c-0.8,0.6-1.6,1.1-2.2,1.8c-5.1,5.1-10.7,9.8-17,13.6c-0.8,0.5-1.7,0.8-2.5,1.2
			c-0.9,0.4-1.9,1.2-2.9,1.6c-2.2,1-4.4,1.8-6.5,2.8c-1.1,0.5-2.2,0.6-3.4,1c-1.3,0.4-2.8,1-4,1.3c-0.2,0.1-0.4-0.1-0.4-0.1
			c-1.3,0.3-2.9,0.7-4.1,1.2c-0.5,0.2-0.9,0-1.3,0.1c-1.1,0.2-2.4,0.5-3.6,0.8c-2.8,0.8-6.2,1.4-9.3,1.7c-1.9,0.2-3.4,0.3-5.3,0.4
			c-0.7,0-1.7,0.3-2.3-0.1c-0.1-0.2,0.2-0.4,0.1-0.8c-0.1-0.3-0.3-0.7-0.4-1V324h-0.2c-0.2-0.2-0.4-0.5-0.5-0.7
			c-0.6-1-1.1-1.9-1.8-2.9c-0.5-0.7-1.5-1.3-1.9-2.1c-1.3-2.5-3.5-4.5-6.5-5.4c-0.1,0-0.2,0.1-0.4,0.1c-0.6-0.1-1.4-0.3-1.8-0.4
			c-0.6,0-1.1-0.1-1.7-0.1c-0.4-0.1-1.6-0.1-2.2-0.2c-2.2-0.4-4.5-0.4-6.9,0.3h-1.9c-0.8,0.2-2.1-0.2-2.9-0.2
			c-1.4,0-3.2-0.3-4.1-0.5h-0.8c-0.9-0.3-4.1-1.8-4.6-2.4c-0.2-0.2,0-0.4-0.2-0.7c-0.4-0.9-1-1.7-1.3-2.8c-0.1-0.4,0.3-0.8,0.4-1.1
			c0.1-0.4-0.1-0.7-0.2-1c0.7-0.4,1.6-0.5,2.3-0.9c0.3-0.2,0.6-0.5,0.9-0.7c-0.1-0.3-0.1-0.3-0.2-0.4c-0.9-0.2-1.3,0.1-2.1,0.3
			c-0.7,0.2-1.9,0.1-2.5,0.3c-0.4-0.6-1.2-1-1.5-1.6c-0.3-0.4-0.2-0.8-0.4-1.3c-0.9-2.3-1.7-4.9-2.5-7.3c-0.2-0.7-0.2-1.9-0.4-2.3
			c0-0.1-0.3-0.4-0.4-0.5c-0.1-0.4,0-1.3-0.1-1.4c0,0-0.3-0.2-0.4-0.4c0-0.1,0.2-0.2,0.1-0.4c-0.4-0.9-0.7-2.2-1.1-3.2
			c-0.2-0.6-0.1-1-0.3-1.5c-0.1-0.3-0.5-1-0.5-1.1c0,0,0.1-0.6,0.1-0.8h0.3V280c0.2,0,0.2,0,0.3-0.1c0.2-0.2,0.1-0.4,0.3-0.6
			c0.1-0.3,0.3-0.2,0.5-0.4c0,0,0.1-0.1,0.1-0.1h-0.1c0.1-1,2.2-2.1,2.9-2.5c0.7-0.7,1.3-1.3,2-2c0.2-0.1,0.5-0.2,0.7-0.3
			c0.1-0.1,0.2-0.4,0.4-0.5c0.4-0.3,0.8-0.3,1.2-0.5c0.6-0.4,1-1.1,1.6-1.5c0.4-0.3,1.1-0.4,1.4-0.8c0.1-0.1,0.1-0.4,0.3-0.4
			c0.5-0.3,1.3-0.5,1.6-0.7h0.2c-0.3-0.2,0.7-0.5,0.8-0.7c0.5,0,0.6,0.1,0.9,0.3c0-0.2,0.1-0.1,0-0.3c0.2-0.7,1.2-0.8,1.8-1.2
			c1.2-0.8,3.2-2.6,4.6-2.5v-0.4c0.6,0,1.9-0.8,2.3-1.2c0.3,0.1,0.6,0.3,0.8,0.5c0.6,0,0.6-0.2,0.9-0.4c0.1-0.3,0.1-0.5-0.1-0.7
			c0.1-0.6,2-1.2,2.6-1.5c0.7-0.3,1.5-0.9,2.2-1.3c2.1-0.9,4-1.7,6.2-2.5c1-0.4,2.1-0.9,3.1-1.3c0.5-0.2,0.9-0.1,1.4-0.3
			c0.9-0.3,2.1-0.7,2.9-1h0.9c0,0,0.3-0.2,0.4-0.3c0.4-0.1,0.7-0.1,1.1-0.2c1.3-0.4,2.6-1.2,3.9-1.6c2.8-1,5.7-1.7,8.5-2.7
			c0.6-0.1,1.3-0.2,1.9-0.3c0.8-0.2,2.1-0.5,2.9-0.6c0.2,0,0.5,0.1,0.7,0.1c0.6-0.2,1.4-0.4,2.2-0.6c0.5-0.2,0.7,0.2,1.2,0
			c0.3-0.1,0.9-0.4,1.3-0.5h1c0.9-0.2,1.9-0.2,2.7-0.4c0.3,0,0.5,0.1,0.8,0.1c1.6-0.3,3.7-0.6,5.1-0.7c-0.1-0.4-0.3-0.5-0.4-0.8
			c-1.3,0-2.1,0.1-2.9,0.6c-0.3-0.5-1.4-0.4-2.2-0.2c-0.9,0.2-1.9,0-2.8,0.2c-0.3,0-0.5-0.1-0.8-0.1c-0.5,0.1-1.6,0.4-2.2,0.5h-0.8
			c-1.4,0.4-3.2,0.6-4.7,1h-0.6c-0.9,0.3-2.2,0.5-3,0.7h-1c-0.1,0-0.4,0.3-0.5,0.3c-0.2,0-0.2-0.2-0.4-0.2c-0.1,0.1-0.2,0.2-0.3,0.3
			c-0.4,0-0.7,0.1-1.1,0.1c-0.4,0.1-0.8,0.3-1.1,0.4c-0.6,0.2-1.3,0.2-1.8,0.4c-0.2,0-0.4-0.1-0.6-0.1c-0.1,0.1-0.2,0.2-0.3,0.3
			c-0.4,0.1-0.8,0.1-1.3,0.2c-0.3,0.1-0.7,0.4-1,0.5h-0.5c-0.4,0.1-0.7,0.3-1,0.4c-0.4,0.1-0.8,0.1-1.2,0.2
			c-0.2,0.1-0.4,0.4-0.6,0.4c-0.8,0.4-1.5,0.4-2.3,0.8c-0.4,0.2-0.5,0.5-1.1,0.5c-0.2-0.7-1-1.1-1.3-1.6c-0.5-0.8-0.8-1.6-1.3-2.5
			c-0.3-0.6-0.8-1.2-1.1-1.8c0-0.2-0.1-0.4-0.1-0.6c-0.2-0.4-0.7-0.8-0.9-1.2c-0.2-0.4-0.3-0.8-0.6-1.2c-0.1-0.1-0.3-0.1-0.4-0.2
			c-0.1-0.2,0.1-0.2,0-0.4c-0.5-1-1.3-2.1-2-3c-0.4-0.6-0.5-1.3-0.9-1.9c-1-1.5-2.3-3-3.2-4.6c-0.6-0.9-0.9-1.8-1.5-2.7
			c-0.2-0.4-0.7-0.7-0.9-1.1c-2.1-3.5-4.2-7.8-6.9-10.8c-0.8,0.1-1.7,1.1-2.2,0.9c-0.5-0.2-0.5-0.7-0.7-1.1
			c-0.6-0.9-1.2-1.9-1.7-2.9c-0.3-0.6-0.4-1.4-0.9-1.9c0.1-0.9,1.1-0.9,1.7-1.2c0.6-0.3,1.3-0.8,1.9-1.2c0.2-0.1,0.5-0.1,0.7-0.2
			c0.6-0.3,1.3-0.6,1.9-1c3.1-1.8,6.4-3.3,9.7-4.9c1.1-0.5,2.1-1.4,3.2-2c1-0.5,1.9-0.7,2.9-1.3c0.4-0.2,0.8-0.6,1.2-0.8
			c0.5-0.3,1-0.2,1.5-0.5c1.1-0.7,2.4-1.4,3.5-2.1c0.5-0.3,0.9-0.2,1.3-0.4c0.1-0.1,0.3-0.4,0.4-0.4c0.8-0.4,1.6-0.5,2.3-1
			c1.6-1,3.4-1.8,5.2-2.6c0.5-0.2,1.3-0.6,1.8-0.9c0.1-0.1,0.3-0.3,0.4-0.4c0.9-0.4,1.7-0.5,2.5-1c5.5-2.9,11.3-5.5,16.8-8.3
			c2.7-1.4,5.7-2.3,8.2-3.9c0.1,0.1,0.2,0.1,0.4,0c0.3-0.1,0.6-0.5,0.9-0.6c0.5-0.2,0.8-0.2,1.3-0.4c3.9-1.8,8-3.7,11.8-5.6
			c1.6-0.8,3-1.3,4.7-2c0.3-0.1,0.6-0.5,0.9-0.6c0.3-0.2,0.6-0.1,1-0.3c0.6-0.2,1.3-0.7,1.8-1c0.5-0.2,0.9-0.2,1.3-0.4
			c2-1,4.1-2.1,6.1-3c0.3-0.2,0.6-0.1,0.9-0.3c0.2-0.1,0.4-0.4,0.6-0.5c0.6-0.3,1.2-0.4,1.7-0.7c0.2-0.1,0.4-0.4,0.6-0.5
			c0.3-0.1,0.5,0,0.7-0.2c0.4-0.2,0.8-0.7,1.3-1c0-0.2,0-0.3-0.1-0.4c0-0.1-0.1-0.2-0.1-0.3c-1.5,0-1.4,0.8-2.2,1.3
			c-0.9,0.5-1.7,0.8-2.7,1.3c-0.8,0.4-1.6,1-2.4,1.3c-6.6,2.9-13.2,6.1-19.6,9.2c-0.4,0.2-0.8,0.1-1.3,0.4c-2.6,1.3-5.4,2.7-8.1,3.9
			c-0.8,0.3-1.4,0.4-2.2,0.8c-5.2,2.6-10.5,5.1-16,7.5c-0.8,0.4-1.6,1-2.4,1.3c-1.2,0.5-2.3,0.9-3.4,1.5c-0.3,0.2-0.7,0.6-1,0.7
			c-0.5,0.3-1,0.3-1.5,0.5c-0.6,0.3-1.3,0.8-1.9,1.1c-2.4,1-4.4,2.1-6.7,3.1c-0.4,0.2-0.8,0.6-1.2,0.8c-0.4,0.1-0.7,0.2-1.1,0.4
			c-0.5,0.2-1.1,0.7-1.5,1c-0.5,0.3-0.8,0.2-1.3,0.4c-0.5,0.2-1.1,0.7-1.5,1c-1,0.5-2.1,0.8-3,1.3c-0.4,0.2-0.8,0.6-1.2,0.8
			c-5.2,2.5-10.4,5.1-15.3,8c-0.5,0.3-1,0.3-1.5,0.5c-0.9,0.5-1.9,1.2-2.9,1.6c-0.5,0.2-0.9,0.2-1.3,0.5c-0.5,0-0.6-0.2-0.8-0.5
			c-0.2,0-0.4,0-0.5,0.1c-0.4,0.1-0.5,0.4-0.6,0.9c-0.2,0-0.2,0-0.4-0.1c-0.1-0.2,0-0.1-0.1-0.2c0.1-0.8,0.9-1,1.4-1.3
			c0.2-0.1,0.7-0.3,1-0.5c0.1-0.1,0.1-0.4,0.2-0.4c0.3-0.2,0.6-0.1,0.9-0.3c0.5-0.2,0.9-0.7,1.3-1c0.3-0.2,0.6-0.2,0.9-0.4
			c5.3-3.2,10.7-6.1,16.3-9c6.5-3.4,13.2-7,19.6-10.6c1.4-0.8,2.8-1.2,4.2-2c1-0.5,2.3-1.3,3.3-1.8c0.1,0,0.2,0.1,0.3,0.1
			c0.6-0.3,1.3-0.9,2-1.2c2.7-1.2,5.3-2.5,7.9-3.9c0.5-0.2,0.8-0.1,1.3-0.4c0.7-0.3,1.8-1.1,2.5-1.4c2.7-1.2,5.3-2.5,8-3.7
			c0.4-0.2,0.6-0.1,1-0.3c0.9-0.5,1.9-1.1,2.8-1.4c1.8-0.8,3.6-1.2,5.3-2.1c3.5-1.7,7.4-3.1,10.9-4.8c0.2,0,0.5-0.1,0.7-0.1
			c0.7-0.3,1.6-0.6,2.3-0.9c1.3-0.6,2.9-1.3,4.3-2c0.5-0.1,1.1-0.2,1.6-0.4c0.8-0.3,1.6-0.7,2.6-0.7c0-0.2,0.1-0.3,0-0.4v-0.2
			c-3.1-0.3-6.3,1.7-8.4,2.8c-0.4,0.2-0.8,0.2-1.3,0.4c-0.6,0.3-1.3,0.7-1.9,0.9c-0.3,0.1-0.6,0-1,0.2c-0.2,0.1-0.4,0.4-0.6,0.5
			c-0.7,0.3-1.4,0.3-2.1,0.6c-1,0.4-2.1,1.1-3.1,1.5c-0.5,0.2-0.9,0.1-1.4,0.4c-0.3,0.1-0.6,0.5-0.9,0.6c-0.7,0.3-1.3,0.3-2,0.6
			c-0.5,0.2-1.1,0.7-1.6,0.9c-0.7,0.3-1.3,0.3-2,0.6c-2.2,0.9-4.5,2.1-6.6,3.1c-0.3,0.1-0.6,0.1-0.9,0.2c-0.3,0.1-0.7,0.5-1.1,0.7
			c-1.2,0.6-2.5,0.9-3.8,1.5c-0.6,0.3-1.3,0.8-1.9,1.1c-0.6,0.3-1,0.2-1.5,0.5c-0.2,0.1-0.3,0.4-0.5,0.4c-7.7,3.2-15,7.1-22.1,10.9
			c-0.4,0.2-0.9,0.2-1.3,0.4l-0.4,0.4c-0.3,0.2-0.7,0.2-1,0.4c-1,0.6-2,1.3-3,1.8c-0.7,0.3-1.3,0.4-1.9,0.8c-0.6,0.4-1.3,0.9-2,1.3
			c-2.2,1.1-4.5,2-6.5,3.2c-0.1,0.1-0.3,0.3-0.4,0.4c-0.6,0.4-1.3,0.5-2,0.8c-0.2,0.1-0.4,0.4-0.6,0.5c-0.3,0.1-0.5,0.1-0.8,0.2
			c0,0.1-0.1,0.2-0.1,0.3c-0.2,0.1-0.5,0-0.7,0.2c-1.3,0.8-2.6,1.4-4,2.2c-1.9,1-3.8,2.3-5.7,3.3c-0.2,0-0.5,0.1-0.7,0.1
			c-0.1,0.1-0.2,0.3-0.3,0.4c-0.5,0.3-1,0.3-1.5,0.6c-0.1,0.2-0.3,0.3-0.4,0.4c-1.6,0.9-5.2,2.2-5.8,3.9c-0.1,0.2,0,0.6,0.1,0.8
			h-0.1c-0.3,0.2-1.3,0.2-1.9,0.4c-1.1,0.4-2.3,1.1-3.3,1.6c-0.6,0.3-1.2,0.3-1.8,0.6c-1.1,0.7-2.3,1.5-3.5,2.2
			c-0.5,0.3-1,0.3-1.4,0.6c-1.1,0.7-2.2,1.6-3.3,2.2c-0.3,0.1-0.5,0.2-0.8,0.3c-0.3,0.2-0.6,0.7-1,0.9c-0.5,0.3-1.2,0.4-1.6,0.7
			c-1.2,1-2.7,1.7-4.1,2.4c-0.8,0.4-1.6,1.1-2.3,1.5c-0.8,0.5-1.5,0.7-2.2,1.2c-0.1,0.2-0.2,0.3-0.4,0.4c-0.4,0.1-0.7,0.2-1.1,0.4
			c-0.4,0.2-0.8,0.6-1.2,0.8h-0.4c-0.1,0.1-0.2,0.3-0.4,0.4c-0.5,0.3-2.7,1.6-3.2,1.6c-0.1,0.7-0.3,0.3-0.8,0.5
			c-0.8,0.4-1.9,1.6-2.9,1.5c0,0.1-0.1,0.2-0.1,0.4c-0.6,0-2.4,1-2.9,1.3c-0.1,0.1-0.1,0.3-0.2,0.4h-0.5c-0.6,0.3-1.2,0.9-1.7,1.2
			c-0.3,0.1-0.5,0.1-0.7,0.2c-0.3,0.1-0.3,0.4-0.5,0.5c-0.2,0.2-0.5,0.1-0.7,0.2c-0.1,0.1-0.3,0.3-0.4,0.4c-0.4,0.2-0.6,0.2-1,0.4
			c-0.1,0.1-0.2,0.2-0.3,0.4c-0.3,0.2-0.6,0.2-0.9,0.4c-0.1,0.1-0.2,0.2-0.3,0.4c-0.3,0.2-0.7,0.1-1,0.3c-0.8,0.5-1.7,1.2-2.5,1.6
			c-1.2,0.6-2.4,1-3.2,1.9c-0.2-0.2-0.5,0.1-0.7,0.2c-0.7,0.4-1.4,0.7-2.1,1.2c-1.1,0.7-2.2,1.2-3.4,1.9c-1.6,0.9-3.1,2-4.7,3
			c-0.5,0.3-1,0.3-1.4,0.6c-8.2,5.5-16.9,10.6-25.1,16.1c-1.1,0.7-2.2,1.2-3.3,1.9c-0.3,0.2-0.6,0.6-0.9,0.8
			c-0.6,0.4-1.1,0.5-1.7,0.9c-0.2,0.2-0.4,0.4-0.5,0.5c-0.4,0.2-0.8,0.2-1.2,0.4c-0.7,0.4-1.3,1.2-2,1.6c-0.2,0-0.4,0.1-0.5,0.1
			c-0.4,0.2-0.7,0.6-1,0.8c-0.4,0.2-0.8,0.3-1.1,0.5c-0.1,0.2,0,0.2,0,0.4c-1.5,0.1-3.2,2.2-4.8,2.7v0.3c-0.2,0-0.3,0-0.4,0.1
			c0,0.2,0,0.3,0.1,0.4c1.9-0.1,2.8-2,4.4-2.4v-0.4c1,0.1,2.1-1,2.5-1.9c0.3,0,0.2,0,0.4,0.2c1-0.2,1.9-1.2,2.7-1.7
			c0.3-0.2,0.8-0.2,1.1-0.4c0.1-0.1,0.2-0.4,0.4-0.5c0.7-0.4,1.4-0.6,2.1-1c0.1-0.1,0.5-0.4,0.6-0.5v-0.3c0.1,0,0.2,0.1,0.4,0.1
			c0.4-0.1,0.9-0.5,1.2-0.8c0.1-0.2,0-0.3,0.1-0.5v-0.1h0.1v0.4c0.4,0,0.5-0.1,0.9-0.2c0.2-0.3,0.2-0.4,0.3-0.7
			c0.2,0,0.5-0.1,0.8-0.1c0.1-0.5,1.5-0.5,1.4-1.3c0.1,0.1,0.2,0.1,0.3,0.2c0.2-0.2,0.6-0.3,0.8-0.5c0.1-0.1,0.1-0.3,0.1-0.5
			c0.1,0.1,0.1,0.2,0.1,0.4c0.5-0.1,1-0.4,1.3-0.7c0.1-0.1,0.1-0.3,0.2-0.4c0.2-0.1,0.5-0.1,0.7-0.2c0.5-0.3,1-0.8,1.5-1.2
			c2.3-1.5,4.6-2.7,6.9-4.2c0.9-0.6,2.7-2.2,3.9-2.3v-0.3c0.9-0.2,1.6-1,2.2-1.4c2.4-1.5,4.8-2.9,7.2-4.4c3-1.9,6.2-3.5,9.1-5.3
			c0.3-0.1,0.7-0.2,1-0.4c1.5-1,3.2-1.9,4.8-2.9c0.4-0.3,0.9-0.3,1.3-0.5c0.1-0.1,0.2-0.2,0.3-0.4c0.2,0,0.4-0.1,0.6-0.1
			c0.2-0.2,0.4-0.4,0.6-0.6c0.3-0.1,0.5,0,0.7-0.2c1-0.6,2.1-1.3,3.1-1.9c0.9-0.5,1.9-0.7,2.6-1.4c0,0,0.1-0.1,0.1-0.1h-0.1
			c-0.1-0.1-0.3-0.1-0.4,0h-0.1c0.3-0.6,0.6,0,1.2-0.1c0,0,1-0.5,1.1-0.5c1.1-0.6,2.3-1.5,3.4-2.2c1-0.6,2-1,3-1.6
			c0.4-0.2,0.8-0.2,1.2-0.4c2.8-1.7,5.7-3.5,8.5-5.1c0.3-0.1,0.7-0.2,1-0.4c0.5-0.3,1.1-0.8,1.6-1.1c0.7-0.4,1.3-0.5,1.9-0.9
			c2.8-1.9,5.8-3.6,8.9-5.3c1.1-0.6,2.3-1.5,3.5-2c0.2,0,0.5-0.1,0.7-0.1c1.2-0.6,2.9-1.9,4.6-2v0.3c-0.7,0.1-2.3,0.5-1.4,1.4
			c-0.1,0.6-0.7,0.5-1.1,0.8c-0.5,0.3-1.1,0.7-1.6,1.1c-0.1,0.1-0.2,0.2-0.3,0.4c-0.5,0.3-0.9,0.3-1.3,0.5
			c-3.6,2.5-7.7,4.6-11.6,6.9c-0.3,0.2-0.7,0.2-1.1,0.4c-0.5,0.3-1,0.8-1.4,1.1c-0.6,0.4-1.3,0.5-1.9,0.9
			c-7.6,5.1-15.7,9.8-23.5,14.8c-0.6,0.4-1.4,0.5-2,0.9c-0.1,0.2-0.2,0.3-0.4,0.4c-1.1,0.7-2.3,1-3.4,1.7c-4.1,2.6-8.3,4.9-12.5,7.3
			c-0.2,0.1-0.2,0.5-0.4,0.5c-0.1,0-0.2-0.1-0.4-0.1c-0.2,0.1-0.2,0.3-0.4,0.4c-0.1,0-0.2-0.1-0.3-0.1c-0.1,0.1-0.2,0.3-0.4,0.4
			c-0.4,0.3-1,0.2-1.3,0.5c0,0.1-0.1,0.2-0.1,0.4c-0.6,0.5-1.8,0.7-2.4,1.2l-0.5,0.5c-0.5,0.3-1,0.5-1.5,0.8
			c-0.2,0.1-0.3,0.4-0.4,0.5h-0.4c-0.1,0.1-0.2,0.2-0.4,0.4c-0.2,0-0.4,0.1-0.5,0.1c-0.8,0.4-1.5,1.2-2.2,1.7
			c-0.3,0.1-0.5,0.2-0.8,0.3c-0.8,0.5-1.6,1.1-2.2,1.8c-0.2-0.1-0.1-0.1-0.3-0.2c-0.4,0.4-1,0.6-1.4,1c-0.1,0.1-0.1,0.1-0.1,0.3
			c0.3,0,0.4-0.1,0.5-0.2c0.1,0.1,0.1,0.1,0.1,0.3c1.1-0.1,2.6-1.6,3.5-2.2c0.2-0.1,0.4-0.1,0.6-0.2c0.1-0.2,0.3-0.4,0.4-0.5
			c0.3-0.2,0.5-0.1,0.8-0.3c0.3-0.2,0.9-0.6,1.3-0.8c0.1-0.1,0.2-0.4,0.4-0.5c0.2,0,0.4-0.1,0.6-0.1c0.5-0.3,1.1-0.8,1.6-1.2
			c1.3-0.8,2.7-1.3,3.6-2.5c0.2-0.1,0.3,0.2,0.5,0.1c0.2-0.1,0.2-0.4,0.4-0.5c0.2,0.2,2.5-1.1,2.9-1.3c3.6-2.2,7.1-4.2,10.9-6.3
			c0.8-0.5,1.8-1.1,2.6-1.6c0.9-0.5,1.8-0.8,2.7-1.3c0.1-0.1,0.2-0.2,0.3-0.4c1.5-0.9,3-1.5,4.5-2.4c0.8-0.5,1.7-1.2,2.5-1.7
			c0.4-0.3,0.9-0.4,1.3-0.6c0.5-0.3,1-0.8,1.4-1.1c0.2,0,0.5-0.1,0.7-0.1c0.4-0.2,0.7-0.9,1.2-1.1c2.9-1.5,5.5-3.3,8.2-5.1
			c0.5-0.3,1.1-0.5,1.6-0.8c1.4-0.9,2.9-2,4.3-2.9c0.1,0,0.3-0.1,0.4-0.1c0.2-0.1,0.4-0.4,0.6-0.5c0.2,0,0.4-0.1,0.5-0.1
			c3.9-2.8,8.7-4.7,12.8-7.3c1.1-0.7,2.3-1.4,3.5-2.2c0.5-0.4,1.1-1,1.9-1.1c0.1,0.8,0.5,1.3,0.8,1.9c0.2,0.6,0.3,1,0.5,1.6
			c0.3,0.6,0.8,1.2,1.1,1.7c0.2,0.4,0.2,0.8,0.4,1.1c0,0.2,0,0.4-0.1,0.5c-0.4,0.3-1.2,0.5-1.6,0.6h-1.3c-0.3,0.1-0.4,0.5-0.6,0.7
			c0.1,0.7,0.7,0.8,1,1.3c0.2,0.4,0.2,0.9,0.4,1.3c0.1,0.2,0.4,0.4,0.4,0.5c0.4,0.7,0.4,1.4,0.7,2.2c1.1,2.3,2,4.8,3.1,7
			c0.3,0.5,0.2,1.1,0.4,1.7c0.3,0.6,0.7,1.5,1,2.2c0.3,0.7,0.2,1.4,0.7,1.8c-0.1,0.3,0,0.2-0.2,0.4c0.6,0.9,0.8,1.8,1.2,3
			c0.2,0.7,0.8,1.5,1.1,2.1c0.6,1.3,0.6,2.6,1.1,3.9c0.2,0.5,0.6,1.2,0.8,1.7v0.6c0.1,0.1,0.3,0.3,0.4,0.4c0,0.2,0.1,0.4,0.1,0.6
			l0.4,0.4c0.2,0.4,0,1,0.1,1.3c0.1,0.3,0.5,0.6,0.6,0.9c0.3,0.6,0.1,1.2,0.4,1.6c-0.3,0.5-1.5,1.2-2.2,1.2c0,0.2,0,0.2-0.1,0.3
			c-0.3,0.4-1.8,1-2.2,0.6h-0.1c0.1,0.2,0,0.1,0.2,0.3c-0.2,0.3-0.5,0.2-0.7,0.4c-0.2,0.3-0.2,0.6-0.4,0.8c-0.4,0.4-1.7,1-2.4,0.8
			c-0.2,0.3-0.3,0.5-0.3,0.8c-4.7,2.3-8.6,5.3-12.5,8.4h-0.3c-0.2,0.1-0.2,0.4-0.4,0.6c-0.2,0.3-0.6,0.4-1,0.6
			c-0.3,0.3-0.5,0.6-0.8,0.9c-0.3,0.2-0.9,0.5-1.1,0.9c0,0.1,0.1,0.3,0.1,0.4c-0.5,0.2-2.5,0.9-1.7,1.8c-1.2,1-3,1.2-4.7,1.8
			c-0.6,0.2-1.5,0.7-2.2,1c-0.5,0.2-1,0-1.5,0.3c-5.7,2.5-12.3,4.2-18.2,6.6c-0.3,0-0.7,0.1-1,0.1c-0.2,0.1-0.5,0.4-0.6,0.4
			c-0.4-0.2-1.2,0.3-1.6,0.4c-1.5,0.5-2.9,0.8-4.4,1.4c-0.2,0.1-0.3,0.4-0.4,0.4c-0.1,0-1,0.1-1.3,0.2c-0.5,0.1-1.1,0.6-1.5,0.7
			c-0.7,0.3-1.2,0.2-1.9,0.4c-0.3,0.1-0.8,0.5-1.2,0.6c-0.9,0.4-1.8,0.4-2.7,0.8c-0.1,0.1-0.2,0.2-0.4,0.4c-0.2,0-0.4-0.1-0.5-0.1
			c-0.1,0.1-0.2,0.2-0.4,0.4c-1.2,0.5-2.3,0.6-3.5,1.1c-0.6,0.2-1.2,0.7-1.8,0.9c-0.6,0.2-1.1,0.2-1.7,0.4c-1.4,0.6-3.1,1.3-4.6,1.9
			c-0.1,0-0.3-0.2-0.5-0.1c-0.1,0.1-0.4,0.4-0.5,0.4c-1.2,0.6-2.4,0.8-3.7,1.3c-1.9,0.7-4,1.8-5.9,2.5c-0.6,0.2-1,0.1-1.5,0.4
			c-1.1,0.5-2.4,1.2-3.5,1.6c-0.7,0.3-1.4,0.2-2.1,0.5c-1.4,0.6-2.9,1.4-4.3,2c-1.6,0.6-3,1-4.5,1.6c-1.7,0.7-3.6,1.6-5.3,2.3
			c-0.4,0.1-0.8,0.2-1.2,0.3c-2.3,1-5,1.8-7.3,3c-0.2,0-0.4,0.1-0.6,0.1c-0.9,0.3-2,0.8-2.8,1.2c-0.7,0.3-1.3,0.3-2,0.5
			c-1,0.4-2.1,1-3,1.3c-0.8,0.3-1.5,0.3-2.3,0.6c-0.8,0.4-1,1-2.1,0.9v0.4c1.7,0,3-0.7,4.2-1.2c0.4-0.1,0.8-0.2,1.2-0.3
			c1.2-0.5,2.7-1.1,3.9-1.6c0.2,0,0.5-0.1,0.7-0.1c1.2-0.5,2.5-1,3.7-1.5c0.5-0.2,0.9-0.2,1.3-0.4c4.2-1.8,8.7-3.3,12.8-5.2
			c1.3-0.6,2.6-0.7,3.9-1.3c0.5-0.2,1.1-0.6,1.6-0.8c0.4-0.2,0.9-0.1,1.3-0.4c0,0,0.1-0.2,0.2-0.3c0.3,0,0.5-0.1,0.8-0.1
			c5.6-2.3,11.6-4.7,17.3-6.9c4.5-1.7,9-3.1,13.4-4.9c0.6-0.2,1.1-0.2,1.7-0.4c2.8-1,5.9-2.2,8.7-3.2c1.8-0.7,3.6-1,5.3-1.8
			c1.4-0.7,3-0.9,4.6-1.4c3.3-1.2,6.7-2.3,10-3.5c0.8-0.3,1.9-0.8,2.7-1.1c0.8-0.3,1.6-0.3,2.4-0.6c0.5-0.2,1-0.5,1.4-0.4
			c0.3,0,0.8-0.4,1.1-0.5c0.5-0.2,3.2-1.1,3.4-1.1c0.1,0,0.5-0.4,0.7-0.3v0.1c0.1,0.1,0.3,0.2,0.4,0.3c0.7,0,0.9-0.2,1.2-0.6
			c1.5,0,1,1.6,1.3,2.6c0.2,0.7,0.6,1.3,0.8,2c0.1,0.3,0,0.5,0,0.6c0.6,1.9,1,3.7,1.6,5.6c0.3,1,0.4,1.8,0.7,2.7
			c0.1,0.3,0.1,0.6,0.2,0.9h-0.2c0.1,0.3,0.5,0.6,0.6,0.9c0.1,0.4,0.2,0.8,0.3,1.3c0.3,0.8,0.7,1.6,1,2.3c0.2,0.4,0.1,0.8,0.4,1.1
			c0.1,0.1,0.2,0.1,0.4,0.2c0.3,0.4,0.2,0.6,0.5,0.9c-0.3,0.5-1.1,0.2-1.7,0.4c-1,0.2-2.3,0.4-3.2,0.6c-0.2,0-0.4-0.1-0.6-0.1
			c-3.9,0.9-8.2,1.2-12.1,2.2c-0.6,0-1.1,0.1-1.7,0.1c-1.3,0.3-2.7,0.3-4,0.6c-2.7,0.7-5.8,0.9-8.7,1.5c-1.1,0.3-2,0.2-3,0.4h-0.8
			c-3.3,1-7.3,1.6-10.7,2.5c-1,0.3-2,0.2-3,0.5c-4.4,1.4-9.2,2.4-13.5,3.6c-0.4,0.1-0.9,0.1-1.3,0.2c-3.2,0.9-7,1.5-9.8,2.4
			c-0.9,0.3-2,0.5-2.8,0.7h-0.8c-2.1,0.6-4.8,1.2-6.7,1.7c-0.9,0.3-3.7,0.6-4.3,1.1h-0.2v-0.4c-2.9,0-4.4,0.6-7.4,1.3
			c-0.7,0-1.4-0.1-2.2-0.1c-0.4,0.1-0.8,0.1-1.3,0.2c-0.2,0-0.1-0.2-0.4-0.2c-0.1,0.1-0.2,0.2-0.4,0.4c-0.8,0.3-1.7,0-2.5,0.3
			c-2.1,0.7-4.8,0.8-7,1.4c-0.7,0.2-1.4,0.1-2.2,0.3c-0.6,0.2-1.6,0.5-2.2,0.6c-0.4,0-0.7,0.1-1.1,0.1c-0.1,0.1-0.1,0.4-0.3,0.4
			c-0.2,0.1-0.8,0.2-0.9,0.3c-0.8,0.3-1.4,0.1-2.2,0.4c-2.6,0.8-6.3,1.5-8.4,2.2c-0.5,0.2-0.9,0-1.4,0.2c-1.5,0.5-3.2,0.9-4.8,1.3
			c-1.2,0.3-2.5,0.2-3,1.2c-0.2-0.1-0.1-0.1-0.1-0.4c-1.2,0.4-2.2,0.4-3.3,0.8c-2.9,1-6.2,1.6-9.2,2.4c-0.7,0.2-3.6,1.1-4,0.7
			c-0.2-0.4,0.4-2.2,0.6-2.5c0.4-0.5,2.3-0.6,3.1-0.8c1.3-0.3,2.8-0.8,4.1-1.2c0.6-0.2,1.1-0.1,1.7-0.3c0.6-0.2,1.3-0.5,2-0.5v-0.3
			c0.6,0.4,2.6-0.4,3.4-0.6c1-0.3,1.7-0.4,2.7-0.6c0.4-0.1,0.7,0,1-0.2v-0.2c0.2,0,0.4,0.1,0.5,0.1c0.4-0.1,1-0.3,1.4-0.4
			c0.4,0,0.7-0.1,1.1-0.1c0.8-0.2,1.4-0.6,2.2-0.6c0-0.2,0-0.2-0.1-0.3v-0.2h-0.4v-0.3c-1.5,0.3-4,0.8-5.2,1.4c0,0-0.4-0.1-0.6-0.1
			c-0.2,0.1-0.8,0.3-1.1,0.4h-0.6c-0.9,0.3-2.1,0.6-3,0.9c-2.1,0.6-4.3,0.7-6,1.4c-0.8,0.3-1.8,0.1-2.7,0.4
			c-1.3,0.4-2.9,1.2-4.1,0.4c-1,0.1-0.8,0.7-1.1,1.4c-0.4,0.8-1.1,2-1.7,2.7c0,2,1.4,2.5,1.5,4.1c0.4,0.2,0.9,0.5,1.3,0.6
			c0.6,0.1,0.9-0.3,1.2-0.4c0.8-0.4,1.8-0.6,2.6-0.9c2.3-0.7,4.6-1.1,6.8-1.9c0.4-0.1,0.8-0.1,1.2-0.2c1.1-0.4,2.3-0.9,3.7-1.1
			c0.1-0.4,0.6-0.4,0.8-0.7c0.2,0.2,0.2,0.3,0.7,0.3V334c0.2-0.1,0.3-0.3,0.4-0.4h0.4c-0.1,0.1-0.1,0.1-0.3,0.1
			c-0.1,0.3-0.1,0.2-0.2,0.5c1.9-0.3,3.5-1.1,5.2-1.4c0-0.1-0.1-0.3-0.1-0.4c0.2-0.1,0.2-0.1,0.3-0.4c0.4,0.1,0.3,0.3,0.8,0.4v0.3
			c0.8-0.1,2.7-0.8,3-0.5h0.2c-0.1,0.2,0,0.1-0.3,0.2c-0.1,1,0.4,2.4,0.6,3.3c0,0.4,0.1,0.8,0.1,1.3c0.1,0.4,0.6,1.4,0.5,1.9
			c0,1.1,0.4,3,0.8,4.1c0.1,0.3,0,0.6,0,0.7c0,0.1,0.3,0.7,0.4,0.8c0,0.2-0.1,0.4-0.1,0.6c0.3,1.3,0.8,2.7,1.2,3.9
			c0,0.4,0.1,0.8,0.1,1.2c0.6,1.7,0.6,3.9,1.3,5.2c0.5,0,1,0.1,1.4,0.1c1.6-0.4,3.9-1.8,6-1.3c0.2-0.3,0.6-0.6,0.9-0.8
			c0.1-0.8,0.2-2.2-0.2-3c0,0-0.4-0.4-0.4-0.4s0.2-1,0.2-1.3c-0.1-0.8-0.4-1.9-0.4-2.9h-0.3c0-0.5-0.1-1.2,0.1-1.3
			c-0.1-0.2-0.2-0.2-0.3-0.3c-0.1-0.3,0.3-0.3,0.2-0.6c-0.1,0-0.2-0.1-0.3-0.1c0-0.2,0.1-0.4,0.1-0.6c-0.3-0.9,0-2.2,0-3.2h-0.3
			c0.1-0.4-0.2-1-0.1-1.3c0.1,0,0.2-0.1,0.3-0.1c0.1-0.1,0.2-0.6,0.2-0.7c0.1-0.3-0.1-0.8,0.1-1c0-0.7,0-0.9-0.4-1.3
			c-0.1-0.1,0.4-0.5,0.4-0.8c0.1-0.5-0.2-1.1,0-1.4c0-0.1,0.1-0.2,0.1-0.3h1.2v-0.3c0.9,0.3,2-0.5,2.8-0.7c1-0.3,1.7-0.6,2.5-0.9
			c0.4-0.1,0.8-0.2,1.2-0.3c0.3-0.1,1-0.6,1.3-0.6c0.8,0,1.7-0.4,2.4-0.7c0.2-0.1,0.5,0,0.7-0.1c1.2,0,0.7-0.4,1.3-0.7
			c0.5-0.3,1.3-0.2,1.7-0.4c0.2-0.1,0.3-0.4,0.5-0.4c0.5,0,1-0.1,1.4-0.1v-0.2c0.2-0.2,0.6-0.4,0.9-0.5c0.9-0.3,1.6-0.3,2.4-0.6
			c0.8-0.3,1.8-0.7,2.6-1c1-0.3,1.8-0.2,2.9-0.5c2-0.7,4.3-1.3,6.4-1.9c0.8-0.2,1.4-0.1,2.2-0.4c0.6-0.2,1.3-0.5,2-0.6
			c3.3-0.6,6.6-1.4,9.8-2.3c0.6-0.2,1,0,1.6-0.2c1-0.2,2-0.5,3-0.7c0.4,0,0.8-0.1,1.2-0.1c5.1-1.4,10.4-2.7,15.6-4
			c0.3-0.1,0.9,0.1,1.3-0.1c1.1-0.4,2.5-0.5,3.8-0.8c2.7-0.7,5.8-1.2,8.5-1.9c0.4-0.1,0.6,0.1,1.2,0c1.1-0.3,2.1-0.2,3.1-0.5h1.1
			c2.9-0.8,6.2-1.1,9.1-1.7c1-0.2,2.4,0,3.5-0.4c0.4-0.1,1.1-0.2,1.7-0.4c0.2-0.1,0.6-0.3,0.7-0.4c0.2,0.1,0.4,0.1,0.5,0.2
			c1.2-0.2,2.8-0.4,4-0.7c0.7-0.1,1.4-0.1,2.1-0.2c1.3-0.3,2.7-0.6,4.1-0.7c0.1,0.5,0.3,0.6,0.4,1.1c1.3,0.5,1.2,1.7,1.9,2.8
			c0.8,1.2,2.7,3.3,4,3.9c1.2,0.6,2.9,0.8,4.5,1.2c0.8,0.2,1.3,0,2.1,0.2c1.4,0.3,3.2,0.4,4.9,0.4c1.2,0,2.4,0.4,3.7,0.1
			c1-0.2,2.3-0.2,3.1-0.1c0.4,0,0.8-0.1,1-0.1c1.2,0.2,2.9,0.7,4.1,0.7c-0.2,1.4-0.4,2.7-0.6,3.9c-0.1,0.2,0.1,0.5,0.1,0.6
			c-0.2,1-0.4,2.4-0.7,3.3c0,0.4,0.1,0.7,0.1,1.1c-0.1,0.3-0.3,1-0.4,1.4v1.3c-0.1,0.3-0.3,0.8-0.4,1.2c0,0.3,0.1,0.5,0.1,0.8
			c-0.1,0.2-0.5,0.6-0.5,0.8v0.7c0,0.1-0.3,0.4-0.3,0.4c-0.1,0.4,0.1,1.2,0,1.5c-0.3,1.2-0.6,2.8-0.9,3.9v0.7
			c-0.1,0-0.2,0.1-0.3,0.1c0.1,0.1,0.2,0.8,0.1,1.1c-0.2,0.7-0.2,1.6-0.4,2.2c-0.5,1.1-0.6,3.2-1,4.7v0.8c-0.6,2.3-0.8,4.7-1.4,7
			c-0.3,1-0.1,1.9-0.4,2.9c-0.6,2-0.9,4.7-1.4,6.8c-0.2,0.7-0.2,1.5-0.4,2.2c0,0.4-0.1,0.8-0.1,1.3c-0.3,1.1-0.5,2.6-0.8,3.7
			c-0.1,0.5,0,0.8-0.3,1.2v0.8c-0.2,0.4-0.9,0.3-1.4,0.4c-0.3,0.1-0.7,0.5-1.1,0.6c-0.4,0.1-0.6,0-1,0.2c-1.2,0.4-2.7,1-3.9,1.4
			c-0.6,0.2-1,0.1-1.6,0.4c-0.3,0.1-0.8,0.6-1.2,0.7c-0.4,0.1-0.9,0.1-1.3,0.2c-0.2,0.1-0.7,0.3-0.9,0.4c-0.5,0-1-0.1-1.4-0.1
			c-0.5,0.1-0.8,0.6-1.2,0.9c0,1,0.1,1.5-0.1,2.3c0.4,0.4,0.5,0.9,0.8,1.3c0.4,0.5,1.2,0.8,1.6,1.3c1.4,0,2.1-0.6,3.1-1
			c0.5-0.2,0.9-0.2,1.4-0.4c1.5-0.6,3.3-1.4,4.8-1.9c0.8-0.3,1.4-0.3,2.2-0.5c4.2-1.6,8.7-3.1,13-4.6c7.5-2.7,15.3-4.6,22.5-7.6
			c0.8-0.3,1.4-0.2,2.2-0.4c0.7-0.2,1.6-0.6,2.3-0.9c0.3,0,0.5-0.1,0.8-0.1c2.7-0.9,5.6-1.9,8.2-2.8c1.3-0.4,2.4-0.8,3.6-1.2
			c0.6-0.2,1-0.1,1.5-0.4c1.4-0.8,3.2-1.1,4.8-1.7c2.3-0.9,4.7-2,7-2.9c2.5-0.9,5-1.6,7.4-2.6c1.3-0.6,2.8-0.7,3.9-1.4
			c0.3-0.2,0.4-0.7,0.6-0.9c0.1,0,0.2-0.1,0.4-0.1c0.3-0.3,0.7-0.7,1-1c0.7-0.4,1.3-0.9,1.9-1.3c0.9-0.6,2-0.7,2.9-1.3
			c0.4-0.3,0.6-0.8,1-1.2c0.1,0,0.2-0.1,0.4-0.1c0.7-0.5,1.3-1.2,1.7-1.9h0.4c0.1-0.3,0.1-0.6,0.2-0.9c0.1,0,0.2-0.1,0.3-0.1V344
			c0.4-1.1,1.1-2.3,1.4-3.6c0.6-2.3-0.3-4.3-1.3-5.9c-0.3-0.3-0.7-0.5-1-0.8c-0.6-0.8-1-1.8-1.5-2.7c-0.7,0-1.3,0.3-1.7,0.6
			c-0.4,0.1-0.3,0.3-0.4,0.6c0,0-0.1,0.1-0.1,0.1v-0.1c-0.5,0-0.5,0.2-0.8,0.4c0,2.9,0.3,6.7-0.7,9.1c-0.4,1-0.9,2.1-1.4,3
			c-0.4,0.8-1.4,1.5-1.5,2.5h0.4c0.5-0.4,0.9-0.9,1.3-1.3c0.1,0,0.2-0.1,0.3-0.1c0.3-0.4,0.5-1.2,0.8-1.7c0.2-0.4,0.5-0.8,0.7-1.2
			c0.1,0,0.2-0.1,0.3-0.1c0.2-0.3,0-0.7,0.2-1.2c0.1-0.2,0.4-0.4,0.4-0.5c0.1-0.2-0.1-0.6,0-1c0.1-0.2,0.4-0.8,0.4-1
			c0,0-0.1-0.1-0.1-0.1c0-0.5,0.1-1,0-1.4c-0.2-0.9,0.3-3.4,0.1-3.7v-1c0.4,0.1,0.8,0.7,1,1.1v0.4c0.1,0.2,0.5,0.3,0.6,0.4
			c0.8,1.2,0.4,3.8-0.1,5.2c-0.9,2.4-2.7,5.3-4.3,6.9c-0.6,0.6-1.3,0.9-1.9,1.4c-0.5,0.5-1.3,1.5-1.9,1.9c-0.4,0.2-0.8-0.2-1.3,0
			c-0.3,0.1-0.7,0.4-1,0.5c-0.8,0.3-1.8,0.4-2.4,0.9h-0.2c0.1-0.2,0.3-0.3,0.4-0.4c-0.1-1-0.9-0.4-1.3-0.3c-0.4,0.1-0.9-0.1-1.3,0.3
			h-0.5c-0.3-1.4,0.6-4.5,0.9-5.7c0-0.6,0.1-1.3,0.1-1.9c0.5-1.6,0.9-3.2,1.3-4.6c0-0.1-0.1-0.6,0-0.9c0.4-1.3,0.7-3.2,1-4.1
			c0.1-0.2-0.2-0.2-0.2-0.3c-0.1-0.3,0.1-3.3,0.4-3.7c0.3-0.5,2.2-0.8,2.9-1.1c2.5-1,5.1-1.7,7.7-2.7c0.6-0.2,1.4-0.5,2-0.8
			c0.1-0.1,0.2-0.2,0.4-0.4h0.7c0.3-0.1,0.6-0.3,0.9-0.4c1.2-0.5,2.4-0.7,3.5-1.2c0.8-0.3,1.5-0.3,2.3-0.5c2.6-0.9,5.7-1.7,7.8-3
			c0.3,0,0.5-0.1,0.8-0.1c0.8-0.3,1.7-0.7,2.4-1c0.4-0.1,0.8-0.1,1.2-0.2c1.1-0.4,2.4-0.7,3.4-1.3c0.6-0.3,1.4-0.9,2.1-1.2
			c1.1-0.4,2.2-0.6,3.2-1.2c0-0.2,0.1-0.5,0.2-0.6c0-0.9-0.2-0.9-0.5-1.3C549.5,313.1,549.5,312.9,549.4,312.7z M530.2,304.9
			c0.7,0.3,1.7,1.6,2.2,2.2c0.5,0.5,1.2,1,1.7,1.5c0.2,0.2,0.3,0.5,0.5,0.7c0.2,0.2,0.5,0.2,0.7,0.4c0.9,0.9,1.6,2,2.7,2.7v0.2h-0.6
			c-0.4-0.4-0.8-0.7-1.3-1.1c-0.4-0.3-0.7-0.9-1.1-1.3c-0.2-0.1-0.4-0.1-0.5-0.3c-0.4-0.6-0.8-1.1-1.3-1.6c-0.1,0-0.2-0.1-0.3-0.1
			c-0.7-0.9-2-2.6-2.9-3.2V304.9z M510.6,318.3c0.1-0.3,0.3-0.6,0.4-0.8c-0.1-0.6,0.1-1.3,0.4-1.7c0.3-0.4,1.6-0.8,2.2-1.2
			c0.7-0.5,1.4-1.2,2.1-1.7c0.2,0,0.3-0.1,0.4-0.1c0.1-0.1,0.1-0.3,0.2-0.4c0.3-0.2,0.6-0.3,0.9-0.4c0.8-0.5,1.5-1.7,2.7-1.7
			c0-0.3-0.1-0.1,0-0.3c0.3-0.7,2-1.5,2.5-2.3h0.4v-0.3c1.1-0.7,1.9-1.7,2.8-2.6c0.4-0.4,0.9-0.5,1.1-1.1c0.5,0.1,0.3,0.2,0.5,0.4
			c0,0,0.5-0.1,0.6-0.1c1,2,2.8,3.4,4.3,4.9c0.3,0.3,0.5,0.9,0.8,1.2c0.3,0.3,0.8,0.4,1,0.7c0.1,0.2,0.1,0.4,0.3,0.5
			c0.2,0.1,0.4,0.1,0.5,0.3c0.4,0.5,0.8,1.1,1.3,1.5c-0.3,0.6-1.8,0.8-2.4,1.8c-1.7,0-2.7,0.8-3.9,1.3h-1.1
			c-0.1,0.1-0.1,0.3-0.2,0.4h-0.1c-0.3,0.1-0.6,0.1-0.9,0.2c-0.2,0.1-0.5,0.4-0.7,0.5c-0.6,0.2-1.1,0.4-1.6,0.5h-0.4
			c-0.1,0.1-0.1,0.2-0.2,0.3h-0.7c-1.4,0.5-3,1.3-4.4,1.8c-0.5,0.2-0.7,0.1-1.2,0.3c-0.4,0.2-0.9,0.5-1.3,0.7
			c-0.2,0.1-0.5,0-0.7,0.2c-0.2,0.1-0.1,0.5-0.4,0.6c-0.4,0.2-0.6-0.1-1.1,0c-1,0.3-1.9,1-2.8,1.3c-0.8,0.4-1.6,0.3-2.1,1h-0.2
			c0-1.8,0.8-3.2,1.1-4.6C510.9,318.9,510.5,318.8,510.6,318.3z M324.2,272.9C324.2,272.9,324.2,272.9,324.2,272.9
			c0.2,0,0.1-0.1,0.2,0.1C324.4,273,324,273,324.2,272.9z M335.9,265.5c0.2,0.1,0.1,0,0.2,0.1C335.9,265.5,336,265.5,335.9,265.5z
			 M348.7,262.2L348.7,262.2l-0.1-0.2h0.1V262.2z M425.8,221.1c-0.4-0.9-0.8-2.6-1.5-3.2c0.1-0.4,0.6-0.8,0.8-1.3h0.3
			c0.1,0.7,1.2,1.7,1.5,2.3c0.9,1.5,1.5,3.2,2.5,4.6c-0.4,0.2-1,0.5-1.3,0.8c-0.8-0.1-0.8-1-1.2-1.5
			C426.5,222.3,426,221.7,425.8,221.1z M436.4,256.9c-0.5-1.1-1-2.5-1.4-3.7c-0.4-1-0.6-2-0.9-2.9v-0.4c-1.8-3.3-3-7.4-4.5-11
			c-0.6-1.4-0.9-2.6-1.5-3.9c-0.2-0.5-0.8-1.2-0.6-1.7c0-0.1-0.9-1-0.4-1.3h-0.3c-0.3-0.3-0.2-0.8-0.4-1.2c-0.4-1.1-1.3-2.4-1.3-3.7
			c1.2-0.1,2-0.8,2.9-1.2h0.4c0.7-0.3,1.5-1,2.2-1.3h0.4c0.2-0.1,0.5-0.5,0.7-0.6c0.3-0.1,0.6,0,0.8-0.2c0.7,0.2,0.8,1.2,1.2,1.8
			c0.3,0.6,0.9,1.1,1.3,1.6c0.8,1.3,1.5,2.6,2.3,3.9c3,4.6,5.9,9.4,8.8,14.2c0.6,1,0.8,2,1.4,3c0.6,0.9,1.4,1.9,1.9,2.9
			c0.1,0.2,0,0.4,0.2,0.6c0.5,0.8,1.2,1.5,1.7,2.2c0.2,0.4,0.3,0.8,0.5,1.2c-0.3,0.5-2.7,1-3.7,1.3c-1,0.4-2.2,1-3.1,1.3
			c-1.3,0.4-2.9,0.9-4.4,1.5c-0.8,0.3-2,1.4-2.9,1.4c0-1.2-0.8-2.1-1.1-3C436.5,257.4,436.5,257.1,436.4,256.9z M275.6,329.1
			L275.6,329.1c-0.2,0.1-0.2,0.2-0.2,0H275.6z M266,338.1v0.3C265.9,338.3,265.9,338.3,266,338.1L266,338.1z M266,338.7
			C266,338.6,266,338.6,266,338.7c0.2,0,0.1-0.1,0.2,0.1C266.2,338.7,265.8,338.7,266,338.7z M286.9,330.6c-0.3,0-0.2,0-0.3-0.2h0.3
			V330.6z M291.8,329.1L291.8,329.1c0-0.2,0-0.1,0.1-0.3h0.1C291.9,328.9,291.9,329,291.8,329.1z M295.4,327.8
			c-0.2-0.1-0.1,0-0.2-0.1C295.4,327.8,295.3,327.7,295.4,327.8z M302.4,351.7c0,0.3,0,0.5-0.1,0.6c-0.7,0.2-3.6,1.3-4.1,1
			c-0.5-0.2-1.1-1.9-1.1-2.6c0,0-0.1-0.1-0.1-0.1h-0.4c0-0.3,0.3-1.2,0.2-1.3c0-0.1-0.3-0.3-0.4-0.4c-0.2-0.5-0.3-1.4-0.4-1.9h-0.3
			c0.2-1-0.4-1.6-0.4-2.8h-0.3c0.4-0.7-0.5-3.3-0.6-4h-0.3c0-0.4,0.3-0.6,0.2-1c-0.1-0.3-0.4-0.9-0.4-1.2c-0.1-0.4,0.3-0.3,0.2-0.6
			h-0.2c-0.1-0.3-0.1-0.6-0.2-0.9h-0.2v-0.8c-0.1-0.2-0.3-0.7-0.4-0.8c-0.1-0.3,0.2-0.8,0.1-1.1c-0.1-0.1-0.2-0.2-0.4-0.3
			c0-0.2,0.1-0.4,0.1-0.6c0,0-0.4,0-0.3-0.2c0.1-0.3,0.5-0.4,0.1-1c-0.2-0.3-0.1-0.1-0.4-0.1c0.3-0.5,0.3-1.6-0.2-2.2
			c0-0.2,0-0.3,0.1-0.4c0.6-0.5,1.3-0.3,2.2-0.5c1.3-0.4,2.9-0.8,4.2-1.2c0.9-0.2,1.7-0.1,2.3-0.5c0.2,0,0.3,0,0.4,0.1
			c-0.1,1.2-0.1,2.2,0.1,3.3c0.1,0.4-0.1,1.3-0.2,1.7c0,0.1,0.2,0.2,0.2,0.3c0.2,0.8,0,1.7,0.2,2.4c0.2,0.8,0,2.1-0.1,2.8
			c-0.1,0.8,0.1,2,0.1,2.7c0,0.3-0.1,0.7-0.1,1c0.2,1,0.5,3.8,0.4,4.8c0,0.2,0.1,1,0.2,1.2c0.2,0.8,0.2,2.8,0,3.6
			C302.2,351,302.6,351.2,302.4,351.7z M439.7,316C439.7,315.9,439.7,315.9,439.7,316c0.2,0,0.1-0.1,0.2,0.1
			C439.9,316.1,439.5,316,439.7,316z M499,355.2c-2.5,0.6-5.1,1.7-7.4,2.5c-4,1.3-7.8,2.2-11.5,3.8c-0.5,0.2-0.9,0.1-1.3,0.3
			c-1.1,0.4-2.4,1-3.5,1.3h-0.5c-0.1,0.1-0.6,0.3-0.7,0.4h-0.6c-1.5,0.8-3.5,1.3-5.1,2.1c-0.5,0.2-0.9,0.1-1.3,0.3
			c-5.8,2.4-12.3,4.2-18.2,6.5c-0.8,0.3-1.5,0.3-2.3,0.6c-4.3,1.8-9.2,3.1-13.6,4.7c-1.3,0.4-2.5,0.7-3.6,1.2
			c-0.8,0.3-2,0.3-2.4,0.6c-1,0-1.1-0.3-1.7-0.6c0-0.1-0.1-0.3-0.1-0.4c3.3-0.6,6.3-2.1,9.2-3.1c0.3,0,0.5-0.1,0.8-0.1
			c0.5-0.2,1.2-0.6,1.8-0.7c0.6-0.1,1.3,0.2,1.8-0.2c0.4-0.1,0.4-0.3,0.5-0.6h1.2c0.3-0.1,0.5-0.4,0.9-0.4c0.2-0.7,2-0.8,2.7-1.2
			c0.7-0.4,1.7-0.8,2.4-1.1h0.4c0.1-0.1,0.2-0.2,0.3-0.4h0.5c0.8-0.3,1.7-0.6,2.4-0.9c0.2,0,0.5-0.1,0.7-0.1
			c0.6-0.3,1.3-1.1,2.3-0.9c0.3,0.1,2.2-0.9,2.8-1.1c2.7-1,5.5-1.7,8-2.8c0.8-0.4,1.9-0.4,2.8-0.7c0.5-0.2,1.2-0.6,1.8-0.8
			c0.5-0.1,0.7,0,1.2-0.2c5.2-1.9,11-3.1,16.1-5c0.2,0,0.7,0,1.1-0.1c0.5-0.2,1.1-0.6,1.6-0.7c0.7-0.2,1.2-0.1,1.9-0.4
			c1.2-0.4,2.6-0.9,3.8-1.3h0.6c1.4-0.4,3.1-1.3,4.8-1.3C499.3,354.7,499.1,354.9,499,355.2z M502.2,337.8c-0.2,0.7,0,2-0.1,2.5
			c-0.3,1.4-0.7,3.2-1.1,4.7c-0.4,1.4-0.2,3.8-0.8,4.7c0,0.1-0.1,0.2-0.1,0.3h-0.4c0.1,0.3,0.2,0.3,0.3,0.4c0.2,0.6-0.4,1.6-0.5,2
			c-0.1,0.4,0.2,0.3,0.1,0.6c-0.2,0.4-1.1,0.3-1.5,0.4c-1.7,0.7-3.6,0.9-5.5,1.6c-1.4,0.5-3.1,0.9-4.4,1.4c-0.4,0.1-0.8,0.1-1.2,0.2
			c-1,0.3-2.2,0.6-3,1.1c-0.4,0.2-0.9,0-1.3,0.2c-1.4,0.6-3.4,1-4.8,1.6c-0.5,0.1-1,0.1-1.4,0.2c-1.2,0.5-2.3,0.8-3.5,1.3
			c-0.7,0.3-1.5,0.2-2.1,0.6c-0.2,0.2-0.1,0.2-0.2,0.5c-1.1-0.4-1.5,0.2-2.6,0.4c-0.4,0.1-0.6-0.1-1.1,0.1c-0.4,0.1-0.6,0.4-1.1,0.4
			v0.4c-1.8-0.2-3.7,0.9-5.1,1.4c-0.5,0.2-0.9,0.2-1.3,0.4c-0.1,0.1,0,0.1,0,0.4c-2.2-0.1-4.5,1.1-6.3,1.9c-0.3,0.1-0.8,0-0.9,0.1
			c-0.1,0.1-0.2,0.2-0.4,0.4h-0.5c-1.5,0.5-3.2,1.1-4.7,1.7c-1.1,0.4-2.2,0.7-3.3,1.2c-0.3,0.1-1,0.6-1.3,0.4h-0.2
			c0-2.1,0.7-4.2,1.2-6c0.3-1.1,0-2,0.3-3.1c0.4-1.4,0.5-3.2,0.9-4.5c0.2-0.7,0-1.2,0.2-2c0.3-1.2,0.2-2.4,0.6-3.8
			c0.5-1.7,0.7-3.7,1.2-5.5c0.2-0.8,0-1.8,0.2-2.3c0.8-2.3,1.2-5,1.8-7.4c0.1-0.7,0.1-1.4,0.2-2.2c0.2-0.8,0.4-1.7,0.5-2.5
			c0-0.2-0.1-0.5-0.1-0.7c0.7-1.9,1-5,1.6-7.3c0.2-0.7-0.1-1.3,0-1.9c0.2-1.1,0.2-2.5,0.8-3.3c0.1-0.2,1.9,1.4,2.2,1.7
			c0.2,0.2,0.4,0.4,0.6,0.6c0.1,0,0.3,0.1,0.4,0.1c0,0.1-0.1,0.2-0.1,0.3c0.2,0.2,0.4,0.4,0.6,0.6c0.6,0.8,1.2,2.1,1.6,3
			c0.4,0.9,0.4,2.7,0.9,3.4c0.2,0.3,0.4,0.4,0.8,0.5h0.4c0.1,0,0.5,0.5,0.6,0.6c0.4,0.2,2.6,0.6,3.2,0.5c0.3,0,0.9-0.1,1.3-0.1
			c1.4,0.2,3.7-0.1,5-0.4h1.4c1.2-0.3,2.1-0.1,3.4-0.4c0.3-0.1,0.8-0.3,1.2-0.4c0.2,0,0.4,0.1,0.6,0.1c1-0.2,2.2-0.4,3.1-0.7h1.3
			c0.5-0.2,1.1-0.5,1.9-0.5c0,0.5-0.2,2.8-0.4,3.1c0,0.1-0.3,0.1-0.4,0.2c-0.2,0.3,0.3,0.6,0.2,1.1c-0.2,0.6-0.7,1.6-0.7,2v1.3
			c-0.2,0.3-1.1,0.4-1.5,0.5c-1.3,0.5-2.5,0.9-3.9,1.3c-1.4,0.5-3,1.3-4.4,1.9c-0.4,0.1-0.8,0.2-1.2,0.3c-2.2,0.9-4.7,1.8-7,2.6
			c-0.4,0.1-0.9,0.1-1.3,0.2c-0.4,0.2-0.7,0.5-1.2,0.6c-0.1,0.3,0,0.3-0.2,0.5c-0.1,0.1-0.1,0.1-0.3,0.1c0,0.2-0.1,1.3-0.1,1.3
			c-0.1,0-0.2,0.1-0.3,0.1c-0.1,0.2,0.2,0.3,0.2,0.4c-0.1,0.4-0.8,1-0.5,1.5c0,1.2,0.8,1.6,1.4,2.2c1.9,0,3.3-1.1,4.7-1.8
			c0.4-0.2,0.8-0.2,1.3-0.4c1.6-0.7,3.2-1.6,4.8-2.2c2.1-0.9,4.3-1.4,6.4-2.2c1.1-0.4,2.2-0.9,3.3-1.4c0.3-0.1,0.7-0.5,1-0.6
			c1.3-0.5,2.5-0.7,3.9-1.3c2.8-1.2,5.8-2.5,8.6-3.7c1.8-0.8,3.6-1.4,5.4-2.2c1-0.4,2.4-0.5,3.1-1.2h0.3
			C503,334,502.7,335.9,502.2,337.8z M463.1,345.6C463.1,345.5,463.1,345.5,463.1,345.6c0.2,0,0.2-0.1,0.3,0c0,0-0.1,0.1-0.1,0.1
			C463.3,345.6,462.9,345.6,463.1,345.6z M504,329c-2.9,1.3-6,2.2-9,3.5c-2.9,1.3-6,2.7-9.1,3.9c-2.9,1.1-5.9,2.1-8.6,3.3
			c-0.3,0.1-0.7,0.1-1,0.2c-0.5,0.2-1,0.5-1.5,0.7c-0.7,0.3-1.2,0.2-1.9,0.5c-0.8,0.3-1.5,0.6-2.4,0.9c-0.5,0.2-0.9,0.7-1.3,0.8
			c-0.5,0.1-1,0.1-1.5,0.2c-0.2,0.1-0.5,0.4-0.7,0.4c-1.1,0.3-2.3,0.4-3.2,1c-0.6,0-0.7,0.1-0.7-0.3h-0.4c-0.1-0.3-0.2-0.4-0.1-0.6
			c0.2-0.3,0.7-0.3,1.1-0.4c1.1-0.5,2.4-0.7,3.6-1.2c2.2-0.8,4.3-1.6,6.4-2.6h0.5c0.5-0.2,1.2-0.5,1.8-0.7c0.9-0.4,2-0.7,3-1.2
			c0.6-0.3,1.1-0.6,1.9-0.7c0.1,0.5,0.2,0.5,0.4,0.8c0.9-0.1,1.5-0.4,1.9-1c0.2,0.1,0.2,0.1,0.4,0.2c0.8-0.1,0.6-0.5,1-1
			c0.2-0.3,0.6-0.4,0.9-0.5v-0.4c1.2-0.2,2.5-1.1,3.6-1.5c0.5-0.2,0.8-0.1,1.3-0.4c0.1-0.1,0.2-0.2,0.4-0.4c0.6-0.3,1.1-0.2,1.7-0.4
			c0.6-0.3,1.3-0.7,2-1c0.6-0.3,1.2-0.2,1.8-0.5c0.2-0.1,0.4-0.4,0.6-0.5c0.5-0.2,0.9-0.2,1.3-0.4c0.8-0.3,1.7-0.9,2.5-1.2
			c0.2,0,0.5-0.1,0.7-0.1c0.3-0.1,0.5-0.5,0.8-0.6c0.8-0.3,1.5-0.3,2.1-0.7h0.2C504.2,327.9,504,328.3,504,329z M506,352.3h0.4v0.1
			c-0.5,0.2-1,0.4-1.5,0.5c0,0-0.1-0.1-0.1-0.1v-0.2C505.2,352.6,505.8,352.5,506,352.3z M504.6,325.7c-3.6,1.5-7.4,3.1-10.9,4.8
			c-1,0.4-3.9,1.1-4.2,2c-0.2-0.1-0.2-0.1-0.4-0.2v0.1c-0.1,0.1,0,0.1,0.1,0.3c-0.3,0.5-3.2,1.2-4,1.4c-0.1-0.2,0-0.9-0.2-1.1
			c0.1-0.2,0.5-0.4,0.7-0.5c0.2-1.2,0.3-2.6,0.5-3.7c0.1-0.5,0-1,0.2-1.3v-0.5c0.2-0.4,1-0.3,1.4-0.4c0.9-0.3,2-0.8,2.9-1.1h0.5
			c2-0.8,4.1-1.5,6.1-2.3c1.2-0.5,2.5-1.4,3.8-1.9c0.4-0.2,0.7-0.1,1.1-0.3c0.2-0.1,0.4-0.3,0.5-0.4c0.4-0.3,0.9-0.2,1.3-0.4
			c0.6-0.2,1.1-0.8,1.9-0.9C505.7,321.5,504.9,323.6,504.6,325.7z M519.8,252c0.4,0.2,0.8,0.2,1.3,0.4c0.7,0.3,1.6,0.9,2.2,1.3
			c0.3,0.2,0.4,0.6,0.6,0.8c0.2,0.2,0.4,0.1,0.6,0.4c0.5,0,0.5-0.1,0.7-0.3c0-0.9-0.5-0.8-1-1.2c-0.3-0.3-0.6-0.7-0.9-1
			c-1-0.7-2.1-0.9-3.1-1.5c-0.5-0.3-1.2-0.9-1.8-1.1c-0.3,0-0.6-0.1-0.9-0.1c-0.4-0.1-0.7-0.5-1-0.7c-1.2-0.6-2.7-1-4-1.4
			c-0.4,0-0.8-0.1-1.2-0.1c-1.1-0.3-2.3-0.5-3.5-0.8c-1.9-0.5-3.9-0.2-5.7-0.6H501c-2.3-0.5-7.3-0.4-8.7,0.4
			c0.1,0.2,0.1,0.2,0.2,0.4c0.9,0.1,2.5,0.1,3.8-0.2c1,0,1.9,0.1,2.9,0.1h2.2c1.1,0.3,2.4,0.1,3.5,0.4c1.3,0.3,3.1,0.6,4.8,0.7v0.3
			C513.7,248.3,517,250.5,519.8,252z M503.3,249.7C503.3,249.7,503.3,249.6,503.3,249.7c-0.1-0.2-0.2-0.1-0.4-0.2
			c0,0.1,0.1,0.2,0.1,0.3C503.2,249.7,503.2,249.8,503.3,249.7z M527.6,277.6c0.1-0.4,0.1-0.8,0.2-1.3c0-0.2-0.4-0.5-0.4-0.7v-0.7
			c-0.1-0.4-0.3-1.3-0.5-2c-0.1-0.4-0.6-1-0.7-1.4c0-0.1,0.1-0.3,0.1-0.4c-0.2-0.4-0.6-0.9-0.8-1.3c-0.1-0.3-0.1-0.5-0.2-0.8
			c-0.1-0.2-0.5-0.5-0.6-0.8c-0.3-0.7-0.4-1.3-0.7-1.9c-0.4-0.7-1.2-1.2-1.6-1.8c-1.8-2.5-5-4.7-7.9-6c-2-0.9-4.3-1.3-6.2-2.2h-0.7
			c-0.3-0.1-0.9-0.2-1.3-0.4c-0.3-0.1-0.5-0.6-0.9-0.7c-0.4,0.1-0.7,0.1-1.1,0.2c-0.1,0-0.4-0.2-0.4-0.3c-1.1-0.4-2.2-0.5-3.3-0.8
			c-0.8-0.2-2-0.3-3-0.5h-2.3c-1.2-0.2-2.9-0.1-4-0.2c-0.8,0-2.3-0.3-3.2-0.1c-1.1,0.2-2.7,0.5-3.8,0.6c-0.8,0.1-2.2,0-3,0.4
			l-0.3,0.3c-0.5,0.2-0.7-0.1-1.2,0c-1.7,0.5-5.3,1.3-6.4,2.4c-0.3,0.4,0,0.9-0.4,1.2c0.2,0.4,0.6,0.4,0.8,0.7
			c0.2,0.3,0.1,2.5,0.3,3c0.1,0.3-0.1,0.5-0.1,0.7c0.1,0,0.1,0.1,0.2,0.1c0.1,0.3-0.3,0.3-0.2,0.5c1,3.7,2,7.2,3,10.6
			c0.4,1.2,0.7,2.3,1.2,3.3c0.2,0.4,0.4,1.3,0.3,1.4c0.1,0.2-0.1,0.1,0.2,0.2c0.4,1,0.8,2.1,1.2,3c0.1,0.3,0,0.8,0.1,0.9
			c0.1,0,0.2,0.1,0.3,0.1c0.4,0.6,0.3,1.2,0.6,1.9c0.2,0.4,0.6,0.9,0.8,1.3c0,0.2,0.1,0.4,0.1,0.6c0.2,0.4,0.6,0.8,0.8,1.2
			c0.1,0.2,0.1,0.4,0.2,0.6c0.5,0.9,0.9,1.8,1.4,2.7c0.1,0.2,0.5,0.5,0.6,0.7c0.4,0.6,0.6,1.2,1,1.8c0.2,0.3,0.6,0.6,0.7,0.9v0.4
			l0.9,0.9c0.1,0.3,0.2,0.7,0.4,1c0.2,0.2,0.4,0.4,0.5,0.5c0.1,0.3-0.1,0.4,0,0.5c0.1,0,0.2,0.1,0.3,0.1c0.1,0.1,0.4,0.6,0.4,0.7v1
			c0.2,0.4,0.9,0.8,1.2,1.2c0.2,0.3,0.2,1.1,0.2,1.2c0.1,0.1,0.3,0.1,0.4,0.2c0.2,0.2,0.3,0.6,0.4,0.9c1.7,0,3.3,0.2,4.8-0.2
			c0.6-0.1,1.1,0.1,1.5,0c1.2-0.4,2.8-0.8,4-1.3h0.4c1.7-0.8,3.2-1.3,5-2.1c1.3-0.5,2.6-1.4,3.8-2c0.6-0.3,1.7-0.4,2.2-0.7
			c0.4-0.3,0.8-0.8,1.3-1.1c2.3-1.3,4.2-2.6,6.3-4c0.3-0.2,0.4-0.7,0.6-0.9c0.4-0.3,0.8-0.4,1.2-0.6c0.3-0.3,0.7-0.7,1-1
			c0.5-0.3,1-0.5,1.4-0.9c0.3-0.4,0.1-0.7,0.3-1.3c0.1-0.4,0.5-0.6,0.7-0.9h0.4c0-0.2,0-0.2-0.1-0.3c0.2-0.4,0.5-0.5,0.7-0.8
			c0.5-0.8,0.9-2,1.2-3c0.2-1-0.2-1.6,0-2.5C528,279,527.9,278.2,527.6,277.6z M501.2,297.5c-0.4,0.1-1.3,0.6-1.6,0.4
			c-0.4-0.2-0.8-0.8-1-1.2c-0.1-0.2,0.1-0.4-0.1-0.5c-0.2-0.2-0.3,0.1-0.4,0c-0.3-0.2-0.5-0.8-0.7-1.2c-0.5-0.7-1.1-1.4-1.6-2.2
			c-0.1-0.3-0.2-0.5-0.3-0.8c-0.4-0.7-1.2-1.2-1.3-2.3h-0.3c-0.3-0.6-0.4-1.1-0.4-1.8h-0.3c0-0.6-0.3-0.9-0.5-1.3
			c0-0.2-0.1-0.5-0.1-0.7c-0.1-0.2-0.5-0.6-0.6-0.8c-0.6-2-1.5-4.1-2.6-5.9c-0.2-0.4-0.2-0.8-0.4-1.3c-0.3-0.6-0.8-1.3-1.1-2v-0.5
			c0-0.1-0.3-0.1-0.4-0.2c-0.2-0.4-0.2-0.9-0.4-1.3l-0.4-0.4v-0.7c-0.2-0.5-0.5-1.1-0.6-1.6c-0.1-0.6-0.2-1.1-0.3-1.7
			c-0.7-1.8-1.2-4.1-2.1-5.8c0-0.1,0.2-0.2,0.1-0.4c-0.5-1.3-0.9-2.7-1.4-4c-0.2-0.5-0.6-1-0.6-1.8c0.3,0,0.5-0.1,0.6-0.2h0.5
			c0.5,0.4,0.1,1.5,0.4,2.2c0.1,0.2,0.4,0.4,0.4,0.6c0,0.1-0.1,0.3-0.1,0.4h0.3c0.3,0.8,0.6,1.6,0.8,2.3v0.5
			c0.1,0.1,0.2,0.2,0.4,0.4c0,0.2-0.2,0.4-0.2,0.4c0,0.3,0.3,0.4,0.4,0.5c-0.1,0.1-0.1,0.3-0.1,0.5v0.1c0.1,0.2,0.4,0.5,0.5,0.7
			c0,0.2,0.1,0.4,0.1,0.5c0.1,0,0.2,0.1,0.3,0.1c0,0.1-0.1,0.3-0.1,0.4c0.3,0.7,0.9,1.4,0.9,2.5h0.4c0.2,0.5,0.4,1.1,0.5,1.6
			c0.1,0.1,0.2,0.2,0.4,0.4c0.1,0.4-0.2,0.7,0,1.2c0.1,0.2,0.4,0.4,0.5,0.6c0.3,0.8,0.3,1.4,0.6,2.2c0.2,0.4,0.6,0.9,0.8,1.3
			c0.3,0.7,0.3,1.2,0.6,1.9c0.1,0.3,0.6,0.5,0.7,0.8c0.3,0.5,0.2,0.9,0.4,1.4c0.2,0.5,0.6,1.1,0.8,1.6c0.2,0.4,0.1,0.8,0.4,1.2
			c0.4,0.7,1,1.5,1.3,2.2c0.3,0.6,0.4,1.2,0.7,1.7c0.1,0.1,0.4,0.2,0.4,0.3v0.5c0.2,0.2,0.5,0.4,0.7,0.6c0.2,0.3,0.1,0.6,0.3,0.9
			c0.1,0.2,0.4,0.4,0.5,0.6c0.2,0.4,0.1,0.7,0.3,1c0.1,0.2,0.4,0.2,0.5,0.4c0.1,0.4,0.2,0.7,0.3,1.1c0.5,0.9,1.3,1.7,2,2.4
			c0.4,0.5,0.7,1.5,1.2,1.8C501.3,297.4,501.2,297.4,501.2,297.5z M506,295.8h-0.4c-0.1-0.4-0.3-0.8-0.5-1.1c-0.2-0.1-0.2,0-0.4,0
			c-4.6-7.9-8.5-16.5-12.5-25.1c-0.3-0.6-0.3-1.2-0.5-1.8c-0.9-2.2-1.6-4.7-2.4-7c-0.3-0.9-0.3-2.9-0.7-3.6c0-0.3,0-0.5,0.1-0.6
			c0.3-0.2,0.7-0.1,0.8-0.2h1.1c-0.1,0.2-0.2,0.2-0.3,0.4c-0.2,0.5,0.4,3,0.5,3.1c0.2,0.1,0.1,0,0.4,0c-0.2,0.9,0.7,4.1,1.2,4.9
			c0.1,0.2,0.5,0.3,0.5,0.4c0.2,0.4,0.1,1.6,0.3,2.2c0.1,0.2,0.4,0.4,0.4,0.5c0,0.2,0.1,0.4,0.1,0.6c0.1,0.2,0.3,0.9,0.4,1.1h0.2
			v0.6c0.1,0.4,0.4,0.9,0.5,1.3v0.5c0.2,0.1,0.3,0.2,0.4,0.4v0.5c0,0.1,0.3,0.3,0.4,0.4c0.2,0.6,0.1,1.1,0.4,1.7
			c0.2,0.4,0.6,0.9,0.8,1.3c0.1,0.2,0,0.3,0,0.4c0.1,0.1,0.3,0.3,0.4,0.4c0.1,0.3,0.2,0.5,0.3,0.8c0.1,0.1,0.2,0.2,0.4,0.4
			c0,0.2,0.1,0.4,0.1,0.6c0.3,0.6,0.9,1.3,1,1.8c0,0.4,0.1,0.8,0.1,1.2c0.4,1,1,2,1.6,2.8c0.3,0.4,0.1,0.8,0.7,0.9
			c0.1,0.4,0.1,1.1,0.4,1.4c0.2,0.1,0.3,0.2,0.4,0.3c0.2,0.3-0.1,0.7,0,0.9c0.1,0.5,0.4,0.4,0.4,1h0.3c0.7,1.5,1.7,2.9,2.6,4.2
			c0.4,0.6,0.6,1.3,1.1,1.8C506.3,295.5,506.2,295.6,506,295.8z M509.4,294.1c-0.2-0.3-0.4-1-0.5-1.3c-0.4-0.1-0.7,0-1-0.3
			c-0.1-0.1,0-0.3-0.1-0.4c-0.2-0.3-0.6-0.6-0.8-0.9v-0.4c-0.3-0.5-0.9-1-1.2-1.4c-0.2-0.3,0-0.5-0.2-0.8c-0.1-0.4-0.6-0.7-0.8-1
			c0-0.2-0.1-0.4-0.1-0.5c-0.9-1.7-2.1-3.6-3-5.4c0-0.2-0.1-0.4-0.1-0.6c-0.9-1.9-1.9-3.9-2.8-5.8c-0.2-0.5-0.1-0.9-0.4-1.3
			c-0.7-1.5-1.4-3.3-2.1-4.8c-0.1-0.3,0.1-0.3,0-0.5c-0.3-0.7-0.7-1.5-1-2.2c-0.1-0.4,0-0.7-0.2-1.1c-0.2-0.5-0.7-1.4-0.7-1.9
			c0.6,0.5,0.8,2,1.2,2.9c0.2,0.5,0.7,1.1,0.9,1.5c0.2,0.4,0.1,0.9,0.4,1.3c0.1,0.1,0.4,0.4,0.4,0.5c0,0.3,0.1,0.5,0.1,0.8
			c0,0.1,0.3,0.2,0.4,0.3c0.1,0.3,0.1,0.6,0.2,0.9c0.2,0.1,0.3,0.2,0.4,0.3c0.6,0.9,0.6,2.1,1.2,3c0.1,0.1,0.2,0.2,0.4,0.3
			c0,0.3,0.1,0.5,0.1,0.8c0.2,0.7,0.8,1.4,1.1,2.1c0.1,0.3,0,0.6,0.2,0.9c0.2,0.3,0.6,0.8,0.8,1.2c0.5,1,0.7,2,1.2,3
			c0.2,0.4,0.6,0.8,0.8,1.2c0.1,0.2,0.1,0.4,0.2,0.6c0.5,0.9,1,2,1.5,3c0.2,0.4,0.7,0.8,1,1.3c0.7,1.2,1.4,2.4,2.2,3.5
			c0.3,0.5,0.3,0.9,0.7,1.3C509.7,293.9,509.6,293.9,509.4,294.1z M530.9,260.8c-0.1-0.2-0.2-0.5-0.3-0.7c-0.4-0.6-1-1.1-1.4-1.6
			c-0.8-1.1-2.3-3-3.6-3.6c0.1,1.4,1.2,1.7,1.9,2.5c0.5,0.7,1.1,1.4,1.6,2.1c0.4,0.6,0.7,1.5,1.3,2c0,0.2,0,0.3-0.1,0.4
			c0.2,0.3,0.6,0.3,0.8,0.6c0.7,1.2,1.5,2.3,2.2,3.4c0.7,1.2,1.3,2.5,1.9,3.5c0.1,0,0.3-0.1,0.4-0.1c-0.1-0.3,0-0.7-0.2-1.2
			c-0.1-0.5-0.6-0.8-0.8-1.2c-0.2-0.4-0.1-0.7-0.4-1.1h-0.2c-0.3-0.4-0.4-1-0.7-1.4c-0.3-0.5-0.9-1-1.2-1.5c-0.4-0.6-0.6-1.2-1-1.8
			C531.2,261,531,260.9,530.9,260.8z M473.3,288.3c0.4-0.3,1.1-0.6,1.5-0.8c0.4-0.3,1.1-0.2,1.4-0.5c0.3-0.2,0.2-0.4,0.5-0.5
			c-0.2-0.8-1-1.1-1.3-1.7c-1.3-2.7-2.6-5.5-3.7-8.3c-1.7-4.3-2.6-9.1-4-13.8c-0.3-1.1-0.3-2.2-0.6-3.3c-0.2-0.1-0.1,0-0.2-0.1
			c-0.6,0-0.7,0.1-0.8,0.6h-0.1c-0.1-0.2-0.3-0.4-0.4-0.5c-0.1-0.1-0.6-0.1-1-0.1c-0.6,0.4-1.5,0.2-2.2,0.4
			c-0.6,0.2-1.2,0.5-1.7,0.6c-1.4,0.4-2.8,0.4-4.1,0.9c-4.3,1.6-9,3.1-12.6,5.3c0,0.8-0.3,1.7-0.4,2.2c-0.3,1.7,0.3,4.1,0.6,5.4
			c0.2,0.6,0.1,1.5,0.2,1.9c0.1,0.2,0.4,0.5,0.4,0.7c0.2,0.4,0,0.8,0.2,1.2c0.5,1.3,1.2,2.8,1.7,4v0.5c0,0.1,0.3,0.2,0.4,0.3
			c0.3,0.6,0.3,1,0.6,1.6c0.3,0.6,0.8,1.4,1.2,2c0.6,1.1,1.1,2.3,1.8,3.3c0.4,0.7,0.6,1.4,1.1,2c0,0.5-0.1,0.7-0.4,0.9
			c0.1,0.4,0.2,0.5,0.4,0.6c0.5,0.2,1.5-0.2,2.1-0.4c1.1-0.3,1.6-0.1,2.5-0.3c0.5-0.1,1.4-0.3,2-0.4c2.9,0,6.7-1.1,9.4-1.9
			c0.6-0.2,0.9,0,1.4-0.2c0.6-0.2,1.3-0.7,1.9-0.9c0.6-0.2,1,0,1.6-0.2C473.1,288.9,473.1,288.5,473.3,288.3z M460.9,263.4
			c-0.2-0.1-0.1,0-0.2-0.1C460.9,263.4,460.8,263.3,460.9,263.4z M459.9,288.8c-0.4,0-0.6,0.1-0.8,0c-1-0.5-1.8-3.5-2.3-4.7
			c-1-2.3-2.2-4.9-3-7.4v-0.7c-0.2-0.6-0.4-1.4-0.6-2c0-0.4-0.1-0.7-0.1-1.1c-0.3-1.3-0.6-3-0.9-4.4c-0.2-0.8,0.2-1.6-0.2-2.2
			c0.1-0.4,0.6-0.5,1.1-0.5c-0.2,1.9,0.3,4,0.7,5.6c0.2,0.8,0.1,1.8,0.4,2.8c0.1,0.2,0.3,0.9,0.4,1.1c0.1,0.1,0.2,0.2,0.4,0.3
			c0,0.2-0.1,0.4-0.1,0.6c0,0.1,0.2,0.7,0.3,0.9c0.3,0.7,0.8,1.5,1.1,2.2c0.3,0.7,0.2,1.3,0.5,1.9c0.1,0.1,0.2,0.2,0.4,0.4v0.5
			c0.3,1,0.9,2.1,1.3,3c0.5,1.2,0.7,2.6,1.5,3.5C460,288.6,460,288.7,459.9,288.8z M463.4,288.2c-1.6,0-2.3-3.3-2.9-4.6
			c-1.5-3.5-2.8-7.4-4.1-11.3c-0.5-1.6-0.5-3.4-0.9-5.1c-0.1-0.5,0.1-1.3-0.1-1.7c0-1.4,2.7-1.2,3.6-1.8h0.4c-0.9,1.6,0.3,3.7,0,5.6
			c-0.1,0.8,0.1,2.8,0.6,3.3c-0.3,0.1,0.2,2.2,0.4,2.7c0.8,2.8,1.6,5.5,2.9,7.8c0.6,1,1.1,2.2,1.7,3.2c0.3,0.5,0.7,0.7,0.7,1.3
			C465.1,287.7,463.9,287.8,463.4,288.2z M329.6,273.9v0.3c1.1,0.1,2.9-1.5,3.9-2.1c1.9-1.3,4-2.3,5.8-3.7c0.3-0.2,0.9-0.3,1.3-0.4
			c0.4-0.3,0.9-0.8,1.3-1.1c0.6-0.3,1-0.4,1.4-0.8c0.1-0.2,0.1-0.4,0.1-0.7c0.1,0.1,0.1,0.3,0.2,0.4c0.1,0.1,0,0,0.2,0.1
			c0.2-0.2,0.6-0.3,0.8-0.5c0.1-0.1,0.1-0.1,0.1-0.3h-0.4v-0.3c-0.7,0.2-1.2,0.7-1.8,1.1c0.1,0.3,0,0.2,0.2,0.4v0.2h-0.4v-0.3
			c-0.6,0.1-0.9,0.4-1.3,0.7c-0.5,0.3-1,0.4-1.4,0.7c-0.7,0.5-1.5,1.3-2.3,1.5v0.3c-0.4,0-1.2,0.3-1.4,0.5c-0.1,0.1-0.2,0.5-0.3,0.5
			c-0.3,0.2-0.6-0.1-0.7,0.2v0.4c-0.2-0.1-0.1,0-0.2-0.2c-0.9,0.1-3.4,1.8-3.8,2.6c-0.3,0-0.3-0.2-0.4-0.2c-0.3-0.1-0.4,0.1-0.7,0.2
			c0.1,0.3,0,0.1,0.2,0.3C329.8,274,329.9,273.8,329.6,273.9z M341.7,266.7C341.8,266.7,341.8,266.7,341.7,266.7
			c0.2,0,0.1-0.1,0.2,0.1C341.9,266.8,341.6,266.8,341.7,266.7z M339.7,267.9C339.7,267.9,339.7,267.8,339.7,267.9l0.4-0.1
			c0,0-0.1,0.1-0.1,0.1v0.2c0,0-0.1-0.1-0.1-0.1C339.9,268,339.5,268,339.7,267.9z M333.5,271.7
			C333.5,271.6,333.6,271.6,333.5,271.7c0.2,0,0.1-0.1,0.2,0.1C333.7,271.8,333.3,271.7,333.5,271.7z M330.2,273.6L330.2,273.6
			l0.1,0.2h-0.1V273.6z M326.3,276.6c0.1-0.1,0.1-0.3,0.2-0.4c0,0,0.2,0.2,0.4,0.1c0-0.1,0.1-0.2,0.1-0.3c0.2-0.1,0.5-0.1,0.7-0.2
			c0.6-0.4,1.2-0.9,2-1.3c0-0.2,0-0.2-0.1-0.4c-0.8,0.1-1.9,0.3-2.2,1.3c-0.2-0.1-0.2-0.1-0.4-0.2c-0.1,0.3-2.5,1.6-3,1.9
			c0.1,0.2,0.1,0.2,0.2,0.5C324.6,277.6,325.9,276.9,326.3,276.6z M320.5,279.1v0.4c-0.1-0.2-0.9,0.1-1.1,0.3
			c-0.1,0.1-0.3,0.3-0.4,0.4c-0.4,0.2-0.7,0.2-1.1,0.4c-0.1,0.1-0.2,0.2-0.3,0.4c-0.8,0.4-1.5,0.7-2.2,1.3c-0.1,0.1-0.1,0.1-0.1,0.3
			c-0.2,0-0.3,0-0.4,0.1v0.4c1.4-0.1,2.9-1.6,4.3-2.2v-0.4H319c0.4-0.3,0.8-0.3,1.3-0.4v-0.3c0.1,0.1,0.1,0.1,0.3,0.2
			c0.3-0.3,0.3-0.5,0.6-0.8V279c0.1,0.3,0.7,0.2,0.9,0.1c0.4-0.2,1.2-0.7,1.3-1.2c0.2,0.1,0.1,0.1,0.4,0.2c0.1-0.1,0.2-0.1,0.3-0.2
			c0-0.2,0-0.3-0.1-0.4v-0.2c-0.7,0.1-0.6,0.5-0.9,0.6c-0.1,0-0.3-0.1-0.4-0.1c-0.2,0.1-0.2,0.2-0.4,0.3v0.2h0.5
			c-0.2,0.4-0.6,0.3-0.8,0.6h-0.1v-0.4C321.7,278.5,320.5,279.1,320.5,279.1z M317.7,281.3L317.7,281.3l-0.1-0.2h0.1V281.3z
			 M318.7,280.5c0.2,0.1,0.1,0,0.2,0.1C318.7,280.5,318.8,280.5,318.7,280.5z M310.6,282c0.8,0,0.5-0.3,0.7-0.6
			c0.1-0.2,0.2-0.2,0.4-0.4c0.1,0.1,0.1,0.1,0.1,0.3c0.4,0,1.4-0.7,1.7-0.9c0.1-0.1,0.1-0.3,0.2-0.4c0.2,0,0.4-0.1,0.6-0.1
			c0.3-0.1,0.5-0.7,0.6-0.8c0.1-0.1,0.4,0,0.4-0.1c0.1-0.1,0.1-0.1,0.1-0.3c-0.2,0-0.2,0-0.3-0.1c-0.8,0-1.4,0.5-1.8,0.9
			c-0.1,0.1-0.1,0.3-0.2,0.4c-0.1,0-0.2-0.1-0.4-0.1c-0.2,0.1-0.1,0.4-0.3,0.5c-0.2,0-0.5,0.1-0.7,0.1c-0.3,0.1-1.2,0.8-1.4,1.1
			c-0.1,0.1-0.1,0.1-0.1,0.3C310.7,281.9,310.5,281.7,310.6,282z M321.1,279.3v0.3c0.1,0,0.2-0.1,0.3-0.1
			C321.3,279.2,321.4,279.4,321.1,279.3z M319.9,280.5v-0.2h-0.4v0.3C319.6,280.5,319.8,280.5,319.9,280.5z M307.5,284
			c-0.1,0.1-0.3,0.1-0.4,0.2c-0.1,0.1-0.1,0.1-0.1,0.3c0.4-0.1,2.2-1.2,2.4-1.4c0.4-0.4-0.1-0.5,0.7-0.7c0.1-0.2,0-0.1,0.1-0.2
			c0-0.2,0-0.2-0.1-0.4c-0.7,0.1-1.4,0.6-1.4,1.3c-0.3,0.1-0.4,0.2-0.5-0.1c-0.4,0.1-0.9,0.4-1.2,0.7c-0.1,0.1-0.1,0.1-0.1,0.3
			C307.2,284,307.3,284,307.5,284C307.4,284,307.5,284,307.5,284z M308.1,283.6c-0.2-0.1-0.1,0-0.2-0.1
			C308.1,283.6,308,283.5,308.1,283.6z M313,284.3c-0.2-0.1-0.1,0-0.2-0.3c-1,0.2-1.8,0.9-2.5,1.3c-0.4,0.3-1,0.4-1.4,0.6
			c0,0.5,0,0.6,0.4,0.7c0.9,0.4,1.4-0.6,1.8-0.9c0.4-0.3,0.8-0.3,1.3-0.5c0.2-0.1,0.3-0.4,0.4-0.5c0.8-0.5,1.6-1,2.3-1.4v-0.2
			c-0.1,0-0.1-0.1-0.4-0.1v-0.3c-0.4,0.1-1.4,0.7-1.8,1c0.1,0.3,0,0.2,0.2,0.4C313,284.2,313,284.2,313,284.3L313,284.3L313,284.3z
			 M313.8,283.7v0.2c-0.1-0.1-0.2-0.1-0.3-0.2H313.8z M302.7,287.1c0.1,0.1,0.1,0.2,0.1,0.4c0.3-0.1,0.3-0.3,0.6-0.4
			c0-0.2,0-0.2-0.1-0.3v-0.2c0.1,0,0.3,0.1,0.4,0.2c0.2,0,0.2,0,0.3-0.1c0.1-0.1,0.1-0.1,0.1-0.3c-0.2,0-0.2,0-0.3,0.1h-0.1
			c0.2-0.4,0.4-0.2,0.8-0.1v-0.3c0.2,0,0.3,0,0.4-0.1c0.1-0.2,0-0.3,0.1-0.4c0.3-0.3,0.2,0.1,0.6-0.1c0.4-0.1,0.5-0.6,1-0.6v-0.3
			c-0.3,0-0.2,0-0.4,0.2h-0.1c0.1-0.3,0.3-0.4,0.6-0.5v-0.3c-1.4,0.2-3,2.2-4.4,2.7c0,0.2,0,0.2-0.1,0.3c0,0.2,0,0.2,0.1,0.4
			C302.7,287.5,302.6,287.5,302.7,287.1z M306.7,284.8c0.1,0,0.2-0.1,0.3-0.1c-0.1-0.2,0-0.1-0.3-0.2V284.8z M302,288.1
			c-0.1-0.4-0.2-0.4-0.3-0.6h-0.3c-0.6,0.8-2.5,1.5-3.4,2.1c0,0.4,0.1,0.5,0.2,0.8C299.6,290.2,301,288.7,302,288.1z M300.9,288.3
			L300.9,288.3l0.1,0.2h-0.1V288.3z M560.8,295.7v-0.6c-0.6-1.5-1.7-2.7-2.9-3.6c-1-0.8-1.3-2.2-3.1-2.2c-0.2,0.2-0.3,0.6-0.5,0.8
			c0,0.5,0.1,0.5,0.4,0.7c-0.1,0.2-0.3,0.1-0.4,0.3c-0.1,0.1-0.2,0.3-0.3,0.4c0.1,0.6,0.4,0.6,0.6,1c0.3,0.5,0.6,1.2,0.8,1.7v0.6
			c0.1,0.2,0.3,0.7,0.4,0.9c0.3,1.3-0.2,3.7-0.4,4.3c0,0.2,0.1,0.4,0.1,0.6c-0.4,1.6-0.7,3.1-1.3,4.6c-0.1,0.2-0.4,0.9-0.5,1.2
			c-0.1,0.1-0.2,0.2-0.4,0.3c-0.1,0.2,0.1,0.2,0.1,0.4c0,0.1-0.2,0.6-0.3,0.7c-0.5,1.1-1.5,1.4-1.6,2.7c0.1,0,0.2,0.1,0.3,0.1
			c0.2-0.2,0.5-0.3,0.7-0.4c0.7-0.9,1.1-1.8,1.6-2.9c0.2-0.4,0.7-0.9,0.9-1.3c0-0.3,0.1-0.7,0.1-1c0.1-0.3,0.4-0.6,0.5-1h0.2
			c0.1,0.1,0.2,0.3,0.4,0.4c-0.1,1.4-0.9,2.4-1.3,3.4c-0.1,0.3,0,0.6-0.2,0.8c-0.2,0.3-0.6,0.6-0.8,0.9c-0.6,1-1,1.9-1.5,2.9
			c-0.4,0.6-1.2,1.2-1.5,1.8c-0.1,0.3,0,0.5-0.2,0.7c0.1,0.2,0,0.1,0.1,0.2c0.3,0.1,1.3-0.6,2-0.4c0.1-0.2,0-0.2,0-0.4
			c0.2-0.4,0.7-0.7,1.1-0.9c0.8-0.5,1.3-1.5,1.9-2.2c0.2-0.2,0.4-0.3,0.6-0.4c1.3-1.8,2.5-3.9,3.5-5.9c0-0.2,0.1-0.5,0.1-0.7
			c0.5-1.1,1.4-3.1,1.2-4.6c-0.1-0.3,0.1-0.8,0.1-1C561.2,297.7,561,296.2,560.8,295.7z M557,294.9c0,0.6,0,1.4,0.2,1.7v0.5H557
			c0-1.1-0.1-1.5-0.2-2.3C556.9,294.8,556.9,294.9,557,294.9z M557,300.5c-0.1,0.6-0.2,1.6-0.5,2.4c-0.1,0.3-0.5,0.6-0.7,0.9h-0.1
			c0.4-1.1,1-2.9,1.2-3.9c0.2-0.9,0-1.6,0.3-2.5c0.3,0.4,0.1,1.2,0,1.5C557.3,299.3,557,300.1,557,300.5z M475,300.4
			c0.8,2,1.6,3.6,2.7,5.2c0.8,1.2,0.4,2.2,2,2.7c0.6,0.2,0.8-0.2,1.3-0.1c2,0.4,2,0.1,3.4-0.6c0.2,0,0.5-0.1,0.7-0.1
			c0.7-0.3,1-1.3,1.8-1.5v-0.3c0.4,0,0.4-0.1,0.5-0.4c-0.1-0.1-0.2-0.1-0.4-0.1c-0.1-0.6-0.4-0.4-0.6-0.7c-0.3-0.4-0.2-0.9-0.4-1.3
			c-0.2-0.3-0.7-0.2-1.1-0.4c0,0-1-1.4-1.1-1.5c-2.1-3.1-3.5-6.9-5.1-10.5c-0.4-0.2-0.5-0.1-1-0.1c-0.2,1.4-2.4,0.8-3.7,1.2
			c-0.8,0.2-1.2,0.6-1.8,0.9c0,2.2,1.4,4.3,2.2,5.7C474.1,298.9,474.8,299.9,475,300.4z M478.6,301.5v0.3h-0.1
			c0-0.1-0.1-0.2-0.1-0.4C478.5,301.5,478.5,301.5,478.6,301.5z M474.9,293c0.2,0,0.8-0.1,1-0.2h0.2c-0.1,0.4-0.4,0.7-0.3,1.2
			c0.1,0.2,0.4,0.6,0.4,0.7c0,0.3,0.1,0.6,0.1,0.9c0.4,1.2,0.9,2.5,1.4,3.6c0.2,0.5,0.1,1.1,0.4,1.5v0.3h-0.1
			c-0.6-1.3-1.2-2.8-1.8-4.1c-0.1-0.3-0.1-0.6-0.2-0.9c-0.1-0.2-0.4-0.5-0.5-0.8c-0.3-0.6-0.3-1.3-0.7-1.8L474.9,293L474.9,293z
			 M286.1,305.1c0.2,0.2,0.1,0.7,0.3,0.9c0.3,0.5,0.9,0.8,1.1,1.4c0.2,0.1,0.1,0,0.2,0.1c0.3-0.1,0.3-0.2,0.4-0.4
			c-0.1-0.7-0.4-1.2-0.9-1.4v-0.4c-0.2,0-0.2,0-0.3,0.1c-0.2-0.2-0.4-0.4-0.5-0.7H286v-0.4c-0.1-0.1-0.2-0.2-0.3-0.4
			c-0.3,0.1-0.3,0.1-0.5,0.2c-0.1,0.2,0,0.1-0.1,0.2C285.1,304.6,285.7,305.3,286.1,305.1z M278.5,307.4c0.5,0,0.5-0.1,0.4-0.4
			c0.9,0,1.4,0,2.1-0.4c0.1-0.1,0.2-0.2,0.3-0.4c0.5-0.3,1-0.1,1.4-0.4c0.1-0.1,0.2-0.2,0.3-0.4c0.3-0.2,0.8-0.3,1.1-0.4
			c0-0.7-0.1-0.9-0.6-1c-0.4-0.2-1.1,0.4-1.3,0.5c-1,0.6-2.2,1.4-3.6,1.5v0.3h-0.3c-0.1,0.1-0.1,0.2-0.2,0.3
			C278.1,307.2,278.3,307.1,278.5,307.4z M282.9,315.2c-0.2-0.1-0.3-0.5-0.4-0.7h-0.2c-0.2-0.1,0.2-0.1,0.2-0.1
			c-0.1-0.5-0.5-0.4-0.6-0.7v-0.5c-0.2-0.3-0.6-0.3-0.7-0.7c-0.1-0.2-0.2-0.4-0.2-0.6c-0.3-0.1-0.2-0.1-0.4-0.3v-0.4h-0.4v-0.3
			c-0.3-0.3-0.7-0.7-0.9-1c-0.1-0.1,0-0.2,0-0.5c-0.5,0-0.7-0.3-0.8-0.6c-0.2,0-0.2,0-0.4,0.1c0.1,0.7,0.8,1.2,1.2,1.7
			c1.2,1.8,2.5,3.5,3.7,5.3c0.4,0.6,0.8,1.9,1.7,2c-0.2,0.8,0.5,1,0.8,1.5c0.9,1.4,1.5,3.1,2.7,4.2c0.4,0,0.5-0.1,0.8-0.3
			c-0.1-1.1-0.7-1.2-1.2-1.8c-0.3-0.4-0.4-0.8-0.7-1.2c-0.2-0.1-0.4-0.2-0.6-0.4v-0.4c0,0-0.4-0.3-0.4-0.4v-0.4
			c-0.1-0.2-0.4-0.3-0.5-0.4V318c-0.1,0-0.2-0.1-0.4-0.1c-0.1-0.1,0-0.3-0.1-0.4c-0.2-0.1-0.5-0.1-0.6-0.3c-0.1-0.2-0.1-0.6-0.2-0.7
			c-0.1-0.2-0.4-0.3-0.6-0.4C283.6,315.2,283.4,315.6,282.9,315.2z M290.9,311.2c-0.1-0.5-0.6-0.8-0.2-1.1c-0.1-0.5-0.2-0.4-0.4-0.7
			c-0.2,0-0.3,0-0.4,0.1c-0.1-0.2-0.2-0.6-0.3-0.7c-0.2,0-0.4,0.1-0.6,0.1c0.2,1,1.3,1.4,1.6,2.3L290.9,311.2L290.9,311.2z
			 M292.1,313.3c0.4-0.1,0.3-0.2,0.8-0.3v-0.3c-0.3,0-0.4-0.1-0.5-0.2c-0.2-0.1-0.3-0.4-0.3-0.7c-0.2-0.1-0.3-0.1-0.5-0.2
			c0-0.1,0.1-0.2,0.1-0.4c-0.3,0-0.4-0.1-0.6,0h-0.2C290.9,312.2,291.8,312.5,292.1,313.3z M294.3,315.7c1.3,1.8,3.1,3.3,4.3,5.2
			c0.7,0,0.8-0.2,0.8-0.9c-0.3-0.3-0.8-0.7-1.1-1.1H298c-0.1-0.6-0.4-0.7-0.6-1.1c-0.3,0-0.3,0.1-0.4,0.2c-0.2-0.5-0.5-0.9-0.8-1.3
			h-0.4c0-0.5,0-0.5-0.4-0.5c0.1-0.1,0.1-0.1,0.3-0.1v-0.2c-0.1,0-0.1-0.1-0.4-0.1v0.3h-0.1c-0.1-0.3-0.1-0.4-0.4-0.5
			c0.1-0.2,0-0.1,0.2-0.3c-0.1-0.4-0.4-0.5-0.8-0.5v-0.4c-0.2,0-0.2,0-0.3,0.1l-0.3-0.3c-0.1-0.1,0-0.5-0.1-0.6
			c0-0.1-0.2-0.1-0.3-0.2c-0.2,0-0.5,0.1-0.7,0.1C292.6,314.3,293.8,315,294.3,315.7z M296.1,317.3c0.2,0.1,0.1,0,0.2,0.1
			L296.1,317.3c0.1,0.1,0,0.1,0,0.2V317.3z M471.7,315.6c-0.1-0.1-0.1,0-0.3-0.1C471.6,315.6,471.5,315.7,471.7,315.6z M299.2,321.3
			c-0.1,0.1-0.3,0.2-0.4,0.3c0.1,0.2,0,0.1,0.1,0.2c0,0.9,0.6,0.8,1.1,0.4c0-0.5,0-0.6-0.2-0.9H299.2z M292.8,325.6
			c0.1-0.1,0.1-0.2,0.2-0.3c0.2,0,0.4,0.1,0.5,0.1c0.3-0.1,0.9-0.1,1.3-0.3c0.1,0,0.2-0.3,0.3-0.4c0.3,0,0.5,0.1,0.8,0.1
			c0.4-0.1,0.9-0.3,1.3-0.4c0.4,0,0.8-0.1,1.2-0.1c1.6-0.4,3.2-0.8,4.8-1.3c0-0.3,0-0.6-0.1-0.8c-2.9,0-4.5,1.1-6.9,1.8
			c-1.3,0.4-2.5,0.5-3.8,0.9c-0.4,0.1-0.9,0.1-1.3,0.3h-0.1c0.1-0.4,0.2-0.4,0.3-0.7c-0.2-0.1-0.4-0.2-0.6-0.4
			c-0.4,0-0.4,0.1-0.6,0.2c0,0.6,0.2,0.7,0.5,0.9c0,0.1-0.1,0.1-0.1,0.2c-0.2,0-0.5,0.1-0.7,0.1c0,0.2,0,0.3,0.1,0.4v0.2
			C290.5,325.9,291.8,326,292.8,325.6z M288.9,332.6h0.3v-0.3h-0.3V332.6z M288.6,332.6v0.3c0.1,0,0.2-0.1,0.3-0.1
			C288.7,332.5,288.9,332.6,288.6,332.6z M480.6,334.6c0,0.3-0.1,0.1,0.2,0.3C480.7,334.7,480.7,334.7,480.6,334.6z"/>
	</g>
</g>
</svg>
