<?xml version="1.0" encoding="utf-8"?>
<!-- Generator: Adobe Illustrator 21.0.0, SVG Export Plug-In . SVG Version: 6.00 Build 0)  -->
<svg version="1.1" id="Calque_1" xmlns="http://www.w3.org/2000/svg" xmlns:xlink="http://www.w3.org/1999/xlink" x="0px" y="0px"
	 viewBox="0 0 841.9 595.3" style="enable-background:new 0 0 841.9 595.3;" xml:space="preserve">
<style type="text/css">
	.st0{fill:#DADADA;}
</style>
<path class="st0" d="M438.1,393.2c29.4-7.1,49-14.5,48.2-19.1c-0.7-3.9-16-4.9-39.4-3.2c0,0-4.5,14.6-8.5,20.9"/>
<path class="st0" d="M407.7,399.7c5.1-0.8-10.3,1.9-15.6,2.8c-53.1,9-97.1,10.9-98.2,4.2c-1.1-6.7,41-19.4,94.1-28.4
	c7.1-1.2,14-2.3,20.7-3.2c0,0,2.4,0.9,3.2,0.9s-0.7,0.5-1.1,1.4s-1.9,2.7-1.9,3.4s1.3,1.8,1.8,2s-0.7,1.8-1.8,2.2s-1.4,3.3-0.7,3.8
	s2.5-0.1,2.2,0.7s-1.4,3.1-2.2,3.8s-0.8,1.4,0.5,1.8s0.9,0.8,0.5,1.3S407,399.9,407.7,399.7z"/>
<g>
	<g>
		<path d="M481.9,275.4c-0.4,0-0.8,0.1-1.2,0.1c-0.2,0-0.3-0.2-0.6-0.2c-0.1,0-0.3,0.2-0.6,0.1c-0.9-0.3-2.3-0.4-3.5-0.2
			c-0.8,0.2-1.7-0.6-2.2-0.1c-0.4-0.2-0.3-0.4-0.6-0.6c-0.2-0.2-0.7-0.1-1-0.3c-0.4-0.2-1.7-1.3-1.8-1.7h-0.3
			c-0.2-1-1.7-1.4-2.6-1.8c-0.2-0.1-0.4-0.4-0.6-0.6c-0.6-0.3-1.2-0.4-1.8-0.6c-0.3-0.1-0.6-0.5-0.8-0.6c-0.4-0.2-0.7,0-0.9-0.1
			c-0.2-0.1-0.6-0.5-0.8-0.6h-0.7c-0.2-0.1-0.8-0.4-1-0.4c-0.1,0-0.6,0.1-0.9,0c-0.6-0.2-0.8-0.6-1.8-0.6v-0.3
			c-1.1,0.1-2.4,0.2-3.4-0.1c-0.3-0.1-0.3,0.2-0.6,0.2c-1-0.1-2.3-0.5-3-0.1h-0.6c0.2-0.4,0.3-1,0.6-1.4c0.2-0.2,0.4-0.4,0.6-0.6
			c0.1-0.3,0.3-1.1,0.5-1.3c0.1-0.1,0.4-0.1,0.5-0.2c0.2-0.3,0.1-0.5,0.3-0.9c0.1-0.1,0.2-0.2,0.3-0.3c0-0.2-0.1-0.4-0.1-0.6
			c0.2-0.6,0.7-0.7,0.8-1.5h0.3c0.2-0.5,0.5-1.5,0.6-2.1h0.5v-0.3h-0.5c0.2-0.4,0.4-1,0.5-1.4c0-0.1-0.1-0.2-0.1-0.4
			c0.2-0.2,0.3-0.3,0.5-0.5c0-0.3,0.1-0.7,0.1-1c0.1-0.2,0.5-0.6,0.5-0.9c0-0.5-0.2-2.2-0.1-2.7c0.3-1,0.4-2.3,0.4-3.1
			c-0.1-0.1-0.2-0.1-0.4-0.1c0-0.2-0.1-0.4-0.1-0.6c0.2,0,0.2,0,0.3-0.1h0.2c0.1-1.4,0.2-3.4,0-4.7c-0.2-1.1-0.6-2.6-0.5-3.5
			c-0.1-0.6-0.1-1.3-0.2-1.9c0.3-1,0.2-0.1-0.1-1.1c-0.1-0.2,0.1-0.3,0.1-0.4c-0.1-0.2-0.4-0.1-0.4-0.5c0.2-1.7-0.7-4.9-1.4-6.5
			c0.1-0.6-0.3-1.8-0.6-2.4c-0.2-0.6,0-1.4-0.1-1.8c-0.1-0.2-0.3-0.3-0.4-0.5v-0.6c-0.1-0.4-0.5-1-0.6-1.4c-0.1-0.5,0.1-1.4,0-1.7
			c-0.2-0.3-0.7-0.7-0.8-1c-0.1-0.5-0.1-0.9-0.2-1.4c-0.6-1.5-1.3-3.2-2-4.6c-0.1-0.4-0.1-0.7-0.2-1.1c-0.1-0.2-0.5-0.5-0.6-0.7
			c-0.1-0.3-0.1-0.6-0.2-0.8c-0.2-0.4-0.7-1-0.9-1.5c-0.2-0.4-0.1-0.7-0.3-1.1c-0.2-0.1-0.3-0.2-0.5-0.3v-0.6
			c-0.1-0.5-0.2-1-0.5-1.5c-0.1-0.3-0.5-0.5-0.6-0.7v-0.4c-0.2-0.4-0.5-0.8-0.7-1.1c-0.2-0.3-0.1-0.7-0.3-1
			c-0.2-0.4-0.6-0.8-0.8-1.2c-0.3-0.5-0.3-1-0.6-1.6c-0.5-0.8-1.3-1.5-1.7-2.3c-0.1-0.3-0.2-0.6-0.3-0.8c-0.2-0.3-0.6-0.5-0.8-0.7
			c-0.3-0.5-0.4-0.9-0.6-1.4c-0.2-0.3-0.5-0.4-0.7-0.6c-0.2-0.3-0.2-0.7-0.4-1c-0.2-0.3-0.6-0.5-0.7-0.8c0-0.2-0.1-0.4-0.1-0.6
			c-0.4-0.4-0.8-0.8-1.2-1.2c-0.1-0.2-0.1-0.4-0.3-0.6c-0.3-0.3-0.6-0.6-0.8-0.8c-0.1-0.2-0.1-0.4-0.2-0.6c-0.2-0.1-0.3-0.2-0.5-0.3
			c-0.1-0.2-0.2-0.4-0.4-0.6c-0.3-0.2-0.8-0.3-1-0.6c-1.6-2.4-3.7-4-5.9-5.8c-0.1-0.2-0.2-0.5-0.4-0.7c-0.1,0-0.2-0.1-0.4-0.1
			c-0.2-0.2-0.4-0.6-0.6-0.8c-0.2-0.1-0.4-0.1-0.6-0.2c-0.2-0.2-0.1-0.5-0.3-0.7c-0.3-0.4-0.9-0.5-1.3-0.7c-0.5-0.3-0.8-1-1.3-1.4
			c-0.3-0.2-1.3-0.8-1.7-0.9c-0.6,0-1.2,0.1-1.7,0.1c-0.4-0.1-1.1-0.3-1.6,0c-1.3,0.1-2.4,2.4-2,4.2c0.1,0.4,0,1,0.2,1.5
			c0.2,0.2,0.5,0.5,0.7,0.7c0.7,1.1,1.5,2.2,2.5,3c-0.1,0.6-0.7,0.7-1,1.2c-0.4,0.7-0.5,3.3-0.3,4.4c0.3,1.3,1,2.2,1.4,3.4
			c0.1,0.3,0.6,0.8,0.5,1c-0.2,0.6-1,0.9-1.3,1.5c-0.6,1.5,0.1,4.8,0.6,5.7c0.3,0.5,0.8,0.9,1,1.5c0,0,0.1,0.1,0.1,0.1
			c-0.3,0.2-0.4,0.3-0.9,0.4v0.4c-0.6,0.2-0.8,0.9-1,1.6c-0.4,1.3-0.4,3.1,0.1,4.7c0,0.4,0.1,0.7,0.1,1.1c0.1,0.2,0.4,0.4,0.5,0.6
			c0.2,0.6,0.2,1.2,0.6,1.6c-0.1,0.8-1.4,1.3-1.8,1.9c-0.4,0.6-1.1,2.1-1.2,2.8c0,0.3,0.2,0.6,0.3,0.8c0.1,0.3-0.1,0.6-0.1,0.7
			c0.1,0.5,0.2,1,0.4,1.6c0.1,0.2,0.5,0.6,0.6,0.8c0.2,0.3,0,0.6,0.2,0.8c-0.1,0.6-0.8,0.8-1.5,0.8c0.1,0.6,0,0.6,0,1.2
			c-0.2,0.1-0.4,0.1-0.7,0.1c-0.1,0.4-0.4,0.7-0.5,1.1c-0.3,1,0.5,4.1,0.8,4.6c-0.3,0.8-1.1,1.1-1.6,1.7l-0.6,1.1
			c0,0.2,0.1,0.4,0.1,0.6c-0.1,0.3-0.4,0.6-0.6,0.9c-0.6,1.3-0.5,2.3-0.1,3.5c0.1,0.2,0,0.4,0.1,0.6c-0.1,0.3-0.8,1.6-1,1.7
			c-0.4,0.3-1,0.5-1.3,0.9c-0.1,0.3-0.1,0.6-0.2,0.8c-0.2,0.3-0.7,0.8-0.8,1.1c-0.5,1.2,0.1,3.3,0.8,4c-0.1,0.1-0.1,0.1-0.3,0.1v0.5
			c-0.2,0-0.5-0.1-0.7-0.1v0.3c-1.1,0.4-2.5,2.3-2.4,3.4c0,0.4-0.1,0.5-0.2,0.7c-0.2,0.7,0.6,2.5,0.8,2.8c-0.3,0.6-1.1,0.8-1.7,1.2
			c-0.3,0.2-0.4,0.5-0.6,0.8c-0.2,0.2-0.5,0.5-0.7,0.7c-0.5,0.8-0.4,2.4-0.3,3.2c0,0.3-0.2,0.5,0,0.7c0,1-0.9,1.1-1.5,1.6
			c-0.9,0.7-2,2.4-1.6,3.6c0.1,0.4-0.2,0.7,0.1,1.1c-0.1,0.8-2.1,1-2.8,1.5c-0.4,0.3-0.4,0.6-0.6,1c-1,1.5-1.8,2.8-1.6,5.1
			c1.5,0.6,5.5,0.6,7.1,0.3c0.7-0.2,2.5,0,2.9-0.5h0.2v0.1c-0.9,0.4-2.3,0.7-3.1,1.3c-0.3,0.2-0.7,0.7-1,0.8c-0.2,0-0.3-0.1-0.5-0.1
			c-0.5,0.2-1,0.6-1.5,0.8c-0.3,0.1-0.6,0-0.7,0.1c-0.2,0.2-0.3,0.3-0.5,0.5c-0.5,0.3-1.1,0.6-1.6,0.8c-0.4,0.2-0.9,0.1-1.3,0.4
			c-0.1,0.1-0.1,0.2-0.2,0.4h-0.5c-0.4,0.2-1,0.6-1.4,0.8c-0.4,0.2-0.8,0.2-1.2,0.5c-0.3,0.2-0.9,0.4-1.2,0.6
			c-0.3,0.3-0.6,0.6-0.8,0.8c-0.5,0.3-1,0.3-1.6,0.6c-0.7,0.4-1.5,1.1-2.2,1.5c-0.8,0.4-1.6,0.6-2.3,1.1c-0.1,0.1-0.1,0.2-0.2,0.4
			c-0.2,0.1-0.6-0.1-0.6,0c-0.1,0.1-0.2,0.7-0.6,0.9c-0.5,0.3-0.8,0.2-1.3,0.5c-0.3,0.1-0.8,0.5-1,0.7c0,0.1-0.1,0.2-0.1,0.3
			c-0.2,0-0.4,0.1-0.6,0.1c-0.7,0.6-1.5,1-2.4,1.6c-0.9,0.6-1.4,1.3-2.4,1.1c-0.1,0.4-0.4,0.5-0.6,0.6v0.3c-1,0-2.6,1-3.2,1.5
			c-1.9-0.3-3.7-0.9-5.5-1.4c-0.7-0.2-1.2,0-1.7-0.1c-0.1,0-0.4-0.2-0.5-0.3c-0.8-0.2-1.5,0.2-2.3,0c-1.2-0.3-3.1-0.2-4.1-0.4
			c-0.7-0.1-2.6,0.3-3.5,0.5c-0.4-0.2-2.8,0.5-3.3,0.6h-1.1c-1.5,0.4-3.9,0.9-5.9,1.4c-0.5,0.1-0.9-0.1-1.3,0
			c-0.9,0.2-1.6,0.5-2.8,0.7c-0.2,0-0.4-0.1-0.5-0.1c-0.4,0-0.9,0.3-1.2,0.4h-0.7c-0.8,0.3-2,0.6-2.8,0.9c-0.3,0-0.6-0.1-0.9-0.1
			c-0.4,0.1-0.5,0.3-1,0.3c-0.8,0.4-1.8,0.5-2.8,0.9c-0.2,0.1-0.4,0.3-0.6,0.4h-1.1c-0.3,0.1-0.7,0.3-1,0.4h-0.7
			c-0.6,0.2-1.5,0.6-2.1,0.7c-0.3,0.1-0.4-0.2-0.7,0c-0.1,0-0.4,0.3-0.5,0.4h-1c-0.8,0.2-1.6,0.5-2.5,0.6c-0.5,0.1-1.3,0-1.9,0.2
			c-3.9,1.1-8.1,2.4-11.9,3.4h-1.3c-0.7,0.2-1.7,0.5-2.5,0.7h-1c-1.1,0.3-2.6,0.4-3.6,0.6c-0.6,0.1-1.5,0.5-2,0.6
			c-0.4,0.1-0.6-0.1-0.9-0.2v0.3c-1.7,0-3.1,0.7-4.4,1.1c-0.6,0.2-1.2,0.2-1.7,0.4c-0.4,0.2-1.2,0.3-1.6,0.4H287
			c-1,0.4-2.4,0.8-3.4,1.1c-0.7,0.2-1.2,0.2-1.8,0.5c-0.1,0.1-0.2,0.2-0.3,0.4c-0.5,0-0.9,0.1-1.4,0.1c-0.2,0.1-0.7,0.3-0.9,0.5
			c0,0.2,0,0.3,0.1,0.4c0,0.5,0.1,0.6,0.5,0.7c0.2,0.1,1.3,0.2,1.7,0.1c1-0.3,2.6-0.6,3.7-0.9h1c0.9-0.3,2-0.8,2.8-1.4
			c0.5,0.3,1.4-0.2,1.9-0.4h0.6c2.3-0.6,4.7-0.9,6.7-1.5c0.8-0.2,2-0.6,2.8-0.9h0.8c0.3-0.1,0.4-0.3,0.8-0.4v-0.3
			c0.9-0.1,0.7,0.3,1.3,0.4c0.5,0.1,1.4-0.3,1.7-0.4c0.4,0,0.9,0.1,1.3,0.1c0.5,0,0.7-0.2,1-0.3c0.2,0,0.4,0.1,0.6,0.1
			c0.6-0.1,1.4-0.2,1.7-0.6c0.2-0.1,0.7,0.3,1.1,0.2c0.2,0,0.3-0.3,0.6-0.2c0.1,0,0.5,0.2,0.6,0.2c0.7-0.1,1.3-0.4,1.7-0.6
			c0.7,0.2,1.9,0,2.6-0.3c0.6-0.2,0.8,0.2,1.2,0.1c0-0.1,0.1-0.1,0.1-0.2c0.4-0.1,1.7,0.3,2.2,0c0-0.1,0.1-0.2,0.1-0.3
			c0.6-0.3,1.3,0.1,1.8,0c1.8-0.5,4.4-0.2,6.3-0.6c1-0.2,1.7,0.2,2.6,0c0.3-0.1,0.7-0.3,1-0.4h1.8c0.1-0.1,0.2-0.2,0.4-0.4
			c0.4-0.1,0.3,0.4,0.8,0.3c0.8-0.1,1.9-0.2,2.8-0.1c0.3,0,1.1-0.3,1.3-0.4c0.7,0.2,1.6-0.2,2.3,0c0.1,0.1,0.1,0.1,0.2,0.2
			c0.5,0.1,2.5-0.2,2.9-0.1c0.1,0,0.5,0.4,0.6,0.5c0.2,0,0.4-0.3,0.6-0.4c0.2,0,0.5,0.3,0.6,0.3c0.2,0,0.4-0.1,0.6-0.1
			c0.8,0.2,1.6,0.7,2.2,1.2c0.2,0.2,0.3,0.4,0.5,0.6h0.6c0.2,0.1,0.4,0.5,0.6,0.6c0.5,0.4,1.1,0.4,1.6,0.8c0.2,0.2,0.3,0.5,0.6,0.6
			c-0.1,0.1,0,0-0.2,0.1c0.1,0.4,0.4,0.7,0.5,1.1c0.1,0.9-0.8,4.5-1.3,5.2c-0.7,1.1-2,1.6-2.8,2.6H349v0.4c-1,0.7-3.1,2.4-4.4,2.6
			v0.3c-1,0.4-1.7,0.8-2.6,1.3c-0.5,0.3-1,0.3-1.5,0.6c-0.4,0.2-0.9,0.6-1.3,0.8h-0.5c-0.4,0.1-1,0.6-1.4,0.7h-0.5
			c-0.2,0.2-0.3,0.3-0.5,0.5c-0.3,0-0.6,0.1-0.9,0.1c-0.4,0.1-0.9,0.6-1.3,0.7c-0.5,0.2-1.4,0.2-2.1,0.6c-4.2,1.8-8.9,3.7-13.2,5.3
			h-0.6c-1.3,0.4-2.5,1.4-3.7,1.9c-0.9,0.4-1.7,0.5-2.6,0.8c-0.7,0.3-1.6,1-2.4,1.3c-0.4,0.2-0.7,0.1-1.1,0.3
			c-0.1,0.2-0.2,0.3-0.4,0.5c-0.2,0-0.4,0.1-0.6,0.1c-0.2,0.1-0.5,0.4-0.6,0.5c-0.6,0.3-1.3,0.1-1.8,0.5c-0.3,0.2-0.8,0.7-1.1,0.8
			c-0.4,0.2-1.3,0.1-1.7,0.3c-0.2,0.1-0.6,0.4-0.8,0.5c-0.7,0.2-1.4,0.1-2,0.5c-0.1,0.1-0.2,0.2-0.3,0.3h-0.5
			c-0.9,0.4-1.9,1-2.8,1.4c-0.5,0.3-1,0.2-1.6,0.5c-0.3,0.1-0.5,0.4-0.7,0.6c-0.6,0.3-1.2,0.3-1.8,0.6c-0.5,0.2-1.2,0.7-1.7,0.9
			c-0.3,0.1-0.5,0-0.7,0.2c-0.4,0.2-0.5,0.5-1,0.6h-0.7c-0.7,0.2-3.1,1.6-3.5,1.3c-1.1,0-1.1,0.3-1.7,0.7c0,0.3,0,0.6,0.2,0.7
			c0.1,0.3,0.3,0.3,0.6,0.5c0.9,0,1.1-0.4,1.7-0.6h0.6c0.3-0.1,0.5-0.6,0.8-0.7c0.4,0,0.9-0.1,1.3-0.1c0.3-0.1,0.7-0.5,1-0.6
			c0.3,0,0.6-0.1,0.9-0.1c0.7-0.4,1.7-1.3,2.6-1.2c0.1-0.1,0.1-0.2,0.1-0.4c1.1,0.2,1.9-0.6,2.8-0.9v-0.3c1.5-0.1,2.6-1.2,4-1.6
			c0.2,0,0.3,0.1,0.5,0.1c0.2,0,0.8-0.1,1.1-0.3c0.4-0.2,0.8-0.7,1.2-0.8h0.8c0.7-0.2,2.6-0.5,2.8-1.1c0.9,0.2,1.8-0.5,2.7-0.8
			c0.9-0.3,1.6,0.1,2.5-0.2c0.5-0.1,1.1-0.5,1.6-0.6c0.3-0.1,0.6,0,0.7,0c0.2-0.1,0.5-0.5,0.6-0.6c0.4-0.2,0.7,0,1.2-0.2
			c0.1-0.1,0.1-0.1,0.2-0.2c0.2,0,0.3,0.1,0.5,0.1c0.2-0.1,0.5-0.4,0.7-0.6c0.3,0.2,1.2,0,1.7-0.2c0.4-0.2,0.9-0.6,1.3-0.7h0.5
			c0.1,0,0.1-0.3,0.2-0.4c0.3-0.1,0.5,0.3,0.9,0.2c0.3-0.1,0.3-0.5,0.8-0.5c0.5,0.1,0.7-0.3,1.1-0.5c0.4-0.1,0.6,0.2,1,0
			c0.4-0.2,0.9-0.6,1.3-0.7c0.1,0,1,0.2,1.5,0c0.3-0.1,0.7-0.4,1-0.6c0.6-0.2,1,0.1,1.4,0c0.4-0.1,0.6-0.4,1-0.5h1.4
			c0.1-0.1,0.3-0.3,0.5-0.4c0.8,0.2,2.2-0.5,3.3-0.7c0.2,0,0.3,0.1,0.5,0.1c1.4-0.3,2.4-0.9,4-0.9c0.1-0.2,0.1-0.4,0.2-0.6
			c1.5,0.3,3.4-0.5,4.3-1.2c0.5,0.3,0.5,0.1,0.8-0.2c0.1,0.1,0.6,0.1,0.8,0c0.1-0.1,0.2-0.5,0.3-0.6c0.3,0,0.6,0.1,0.9,0.1
			c0.4-0.1,0.8-0.7,1.2-0.8h0.7c0.2-0.1,0.5-0.4,0.6-0.5c0.2,0,0.4-0.1,0.6-0.1c0-0.1,0.1-0.2,0.1-0.3c0.2,0,0.4,0.1,0.6,0.1
			c0.5-0.2,1-0.7,1.5-0.9c0.2,0.1,1.8-0.2,2.1-0.4c0.1-0.1,0.2-0.2,0.3-0.4c0.3-0.2,0.6-0.1,0.9-0.3c0.2-0.1,0.1-0.5,0.3-0.6h0.5
			c0.1-0.2,0.2-0.3,0.3-0.5c0.2,0,0.4,0.1,0.6,0.1c0.1,0,0.3-0.3,0.4-0.3c0.3-0.1,0.9,0.1,1.4-0.1c0.7-0.3,1.9-0.7,2.5-1.1
			c0.1-0.1,0.4-0.4,0.6-0.5c0.2-0.1,0.3,0.1,0.4,0.1c0.1-0.1,0.2-0.2,0.3-0.3c0.2,0,0.4-0.1,0.6-0.1c0.4-0.2,0.9-0.7,1.2-0.8
			c0.1,0,0.2,0.1,0.3,0.1c0.5-0.2,0.8-0.7,1.2-0.9c0.3-0.2,0.5,0,0.7-0.2c0.5-0.3,0.9-0.8,1.3-1.1c0.4-0.2,0.9-0.3,1.2-0.6
			c0.6-0.5,1.1-0.9,1.7-1.4c0.2-0.2,0.4-0.5,0.5-0.7c1-0.7,1.6-1.4,2.3-2.5c0.3,0.3,0.7-0.6,0.8-0.8c0.6-0.9,1.5-1.5,1.6-2.7
			c1.2,0.2,3.5,0.5,5.1,0.1c0.6,0,1.3-0.1,1.9-0.1c0.5-0.1,1.1-0.5,1.7-0.6c0.2,0,0.5,0.2,0.8,0.1c0.5-0.2,1.1-0.3,1.5-0.5
			c0.2-0.1,0.4,0.1,0.5,0.1c0.2,0,0.7-0.4,0.9-0.4c0.2,0,0.6,0.2,0.9,0.1c0.4-0.1,0.8-0.4,1.2-0.5v-0.3c0.4,0.2,1.2,0.4,1.7,0.2
			c0.1,0,0.1-0.3,0.5-0.2c0.1,0.1,0.1,0.1,0.2,0.2c0.4,0.1,0.3-0.2,0.6-0.2c0.3,0,1.2,0.3,1.7,0.2c0.3-0.1,0.9-0.3,1.5-0.2
			c0.7,0.1,1.8-0.2,2.6-0.4c0.4,0,0.8,0.1,1.2,0.1c0.1,0,0-0.2,0.3-0.2c0.1,0.1,0.1,0.1,0.2,0.2c0,0,2.1-0.3,2.3-0.4v-0.2
			c0.2-0.1,0.8,0.2,1.2,0.1c1.8-0.4,4.4-0.7,5.9-1.4h0.7c0.1-0.1,0.2-0.2,0.4-0.4c0.2,0,0.4,0.1,0.6,0.1c0.3-0.1,1.1-0.2,1.3-0.3
			h0.3v0.1c-0.3,0.2-0.6,0.4-0.8,0.6h-0.3c-0.2,0.7-2.6,1.5-3.4,1.8c-0.6,0.2-2.3,0.8-3,1.2c-0.2,0.1-0.5,0.5-0.7,0.6
			c-0.4,0.2-0.8,0.1-1.2,0.3c-0.2,0.2-0.3,0.3-0.5,0.5c-0.2,0.1-0.4,0-0.6,0.2c-0.5,0.4-0.9,1-1.4,1.4c-0.7,0.7-1.9,0.4-2.3,1.5
			c-0.3,0.5,0.1,1.2,0,1.7c0.2,0,0.3,0.1,0.5,0.2c0.1,0.1,0,0.1,0,0.4c0.9,0.2,1.5,1,2.4,1.3c1,0.4,2.5-0.1,3.3-0.3v0.1
			c-0.3,0.1-1.3,1-1.5,1.3c-0.2,0.4,0,0.8-0.2,1.1c-0.2,0.4-0.7,0.6-0.6,1.3c0.3,0.5,0.5,0.8,0.7,1.3c0.1,0.3,0.1,0.5,0.4,0.6
			c0.2,0,0.4,0.1,0.6,0.1c0.1,0.2,0.2,0.3,0.3,0.5c0.3,0.2,1.2,0.4,1.6,0.2h0.3c-0.5,0.7-2.8,3.4-1.9,4.3c0,0.7,0.5,1,1,1.3
			c0.2,0.1,2.7,0.3,2.8,0.3c0.2-0.1,0.1-0.2,0.3-0.2h0.4c-0.2,0.5-0.9,0.5-1.2,0.9c0,0.1,0.1,0.2,0.1,0.3c-0.2,0.2-0.5,0.2-0.6,0.4
			c-0.5,0.6-0.8,1.5-1,2.1c-0.2,0.4,0.2,0.6,0.3,0.7c-0.1,0.2-0.1,0.4-0.1,0.6c0.9,0.1,1.3,1.3,1.9,1.7c0,0.8-0.5,1.3-0.9,1.7
			c-0.1,0.1,0.1,0.2-0.2,0.2V336c-0.5,0.3,0.1,0.4-0.1,0.9c-0.1,0.1-0.4,0.4-0.5,0.6c-0.2,0.4,0.3,0.5-0.1,0.8c0.2,1,1.4,2,2.7,1.9
			c-0.2,0.3-0.5,0.8-0.7,1.2c-0.3,0.4-0.9,0.5-1.1,0.9c-0.2,0.2,0,0.6-0.1,0.7c-0.1,0.3-0.5,0.4-0.6,0.8c-0.1,0.3,0.1,0.4,0,0.6
			c0.2,1.2,1.8,2.1,3.2,2.2v0.3c-0.5,0-2.1,2.3-2.3,3c0.1,0.6,0.2,1.1,0.4,1.7c0.4,0.6,1.1,1.2,1.8,1.5c0.4,0.1,0.5-0.1,0.8,0h0.2
			c-0.1,0.8-1,1-1.6,1.4c-0.3,0.2-1.9,2.6-2,3c-0.1-0.1-0.2-0.1-0.5-0.1c0.5,2.2,1.3,2.6,3.7,2.3c-0.1,0.9-1.6,1.8-2.1,2.5
			c-0.3,0.4-0.4,1.1-0.6,1.4c0,0.8,0.5,1.4,1,1.7c0.4,0.2,1.1,0.2,1.7,0.3c-0.3,0.7-1.1,1-1.6,1.6c-0.3,0.4-0.7,0.9-1,1.3
			c-0.2,0.3-0.2,0.7-0.4,0.9c0,1.1,1.2,1.8,2.2,1.7c-0.2,0.4-0.2,0.1-0.6,0.4c-0.1,0-1.5,2.6-1.6,2.8c0.1,0.4,0.1,0.8,0.2,1.2
			c0.5,0.3,0.9,0.9,1.6,1.1c0.2,0.1,0.6-0.2,0.9,0c0.2,0.1,0.1,0,0.2,0.1c-0.9,0.6-2.6,2.2-2.9,3.4c-0.1,0.5,0.3,1.5,0.1,1.8
			c0.1,0.3,0.6,0.9,0.8,1.1c0.2,0.1,0.5,0.1,0.7,0.2c0,0,0.1,0.1,0.1,0.1h-0.1c-0.3,0.7-1.2,1.3-1.7,1.7c-0.3,0.2-0.2,0.7-0.5,0.9
			c-0.6,0.7-0.9,1.4-0.9,2.5c0.4,0.4,0.5,0.8,1.1,0.9c-0.1,0.3-0.3,0.6-0.6,0.8v0.2c0.5-0.2,0.6-0.7,1-0.9h0.1
			c0.3,0.4,0.4,0,0.6-0.1c0,0,0.4,0.2,0.6,0.2c0,0,0.1,0.1,0.1,0.1c-0.2,0.8-0.9,0.8-1.2,1.2v0.4c-0.1,0.2-0.8,0.9-0.9,1.1v0.5
			c-0.1,0.2-0.5,0.9-0.7,1.1c0,1.3,1.1,1.9,2,2.1c-0.2,0.8-1.1,1.2-1.5,1.8c-0.2,0.4-0.5,1.3-0.6,1.5c0.1,0.8,0.6,0.9,0.7,1.6
			c0.6,0,1.4,0.4,2.1,0.2c-0.3,0.5-1.1,0.7-1.4,1.2c-0.8,1.4-2,2.6-2.5,4c0.1,0.6,0.1,1.1,0.2,1.7c0.6,0.3,1.1,0.6,1.8,0.7
			c0,0-0.1,0.1-0.1,0.1c-0.5,1.3-2.2,1.9-2.4,3.5h-0.5v0.3c0.1,0.1,0.2,0.1,0.4,0.1c-0.5,1.2,0.6,2.7,1.7,2.8
			c-0.3,0.7-1.8,1.6-2.1,2.5h-0.4c0,0.3,0.1,0.3,0,0.4c-0.1,0.4-0.5,0.4-0.6,0.7v0.6h-0.1c-0.2,0.3-0.7,1.2-1,1.5
			c0.3,1.4,0.9,1.8,1.5,2.8h0.3v0.4c-0.8,0.2-0.9,1-1.4,1.5c-0.3,0.3-0.7,0.7-0.9,1c-0.3,0.6,0,2.6,0.2,2.9c0.2,0.3,0.8,0.7,1.2,0.8
			c-0.1,0.2,0,0.1-0.1,0.2c0,0.4-0.1,0.4-0.2,0.6c-0.2-0.1-0.1,0-0.2-0.3h-0.3c0,0.7,0,1-0.6,1.1c0,0.2-0.1,0.3-0.1,0.5h-0.3
			c-0.1,0.3-0.2,0.4-0.3,0.6v1c-0.1,0.4-0.5,0.7-0.6,1.1h0.4c0,0.5,0.3,0.8,0.6,1.1c0.1,0.1,0.2,0.1,0.4,0.1
			c-0.1,0.2-0.2,0.6-0.4,0.7c0,0.1-0.5-0.1-0.8-0.2v0.7h0.2c0.1-0.3,0.1-0.2,0.1-0.5c0.2,0.1,0.1,0,0.2,0.3c0.2,0,0.3,0,0.4,0.1
			c0.4,0,0.4-0.1,0.5-0.5c0.3,0.1,0.3,0.2,0.6,0.3c0,0,0.1-0.1,0.1-0.1v-0.5c-0.2,0-0.3,0-0.4,0.1h-0.1c0.2-0.3,0.5-0.3,0.7-0.6
			c0.4,0.4-0.4,1,0.1,1.3c-0.4,0.3-0.5,0.2-1,0.1c0.1,0.4,0.4,0.5,0.6,0.9c0.2,0,0.2,0,0.3-0.1c0.1-0.1,0.2,0.1,0.2-0.2H403
			c0.1-0.5,0.4-0.4,0.6-0.7c0.2,0,0.4,0.1,0.6,0.1c0-0.2,0-0.3-0.1-0.5c-0.2-0.2-0.4-0.2-0.6,0h-0.1c0.1-0.3,0.1-0.6,0.2-0.8
			c0.2,0,0.4-0.1,0.6-0.1c0,0.2,0,0.3,0.1,0.5v0.2h0.4v-0.6h0.3c0-0.3-0.1-0.3-0.2-0.5c0.1-0.2,0.2-0.4,0.2-0.6
			c0.1,0.1,0.1,0.4,0.1,0.6h0.4c0-0.3,0.1-0.7,0.2-0.8c0,0,0.1-0.1,0.1-0.1v0.1c0.2,0.1,0.1,0,0.1,0.3c0.3-0.1,0.3-0.2,0.7-0.2v-0.4
			c0.7-0.1,1-0.8,1.6-1.1h0.4c0.7-0.4,1.5-1.6,2.3-2.1c0.2,0,0.3-0.1,0.5-0.1c0.2-0.2,0.4-0.5,0.6-0.7c0.2-0.1,0.5-0.1,0.6-0.3
			c0.2-0.3,0.3-0.6,0.6-0.9c0.1-0.1,0.2,0,0.4-0.1c0.8-0.4,1.1-1.1,1.6-1.8c0.5-0.8,1.6-0.8,1.7-2c0.2,0,0.3,0,0.4-0.1
			c0.3-0.2,0.7-0.7,0.8-1v-0.5c0.1-0.2,0.9-0.3,1.1-0.6c0.4-0.6,0-1.4,1-1.5c0.5-1.2,0.8-1.8,2-2.3c0.1-1.1,1-1.7,1.6-2.6
			c0.1-0.2,0.1-0.4,0.2-0.6c0.3-0.3,0.8-0.4,1.1-0.7c0.4-0.4,0.4-1.4,0.9-1.7h0.4c0.3-0.2,0.1-0.8,0.4-1c0.2,0,0.3-0.1,0.5-0.1
			c0.1-0.1,0.5-0.5,0.6-0.6c0.3-0.5,0.4-0.9,0.6-1.4c0.1-0.1,0.2-0.2,0.4-0.4c0.1-0.3,0-0.5,0.1-0.7c0.1-0.2,0.3-0.1,0.6-0.3v-0.1
			c0.2-0.2,1-1,1.1-1.3c0.2-0.3,0.1-0.5,0.3-0.8c0.2-0.1,0.3-0.2,0.5-0.4c0.2-0.4,0.1-0.6,0.4-0.9h0.2c0-0.3,0.1-0.6,0.1-0.8
			c0.1-0.1,0.3-0.2,0.4-0.3c0.1-0.2,0.1-0.6,0.2-0.7c0.1-0.1,0.1-0.1,0.3-0.1c0.1-0.3,0.7-1.7,0.9-1.8c0.2-0.2,0.5-0.1,0.6-0.4
			c0-0.1-0.1-0.2-0.1-0.4c0.1-0.1,0.6-0.4,0.7-0.6c0.3-0.5,0.3-1,0.6-1.5c0.2-0.4,0.7-0.8,1-1.2c0.2-0.3,0.2-0.6,0.4-0.9
			c0.4-0.7,1.1-1.1,1.2-2.1c0.2,0,0.2,0,0.3-0.1c0.1-0.1,0.5-1.2,0.5-1.5c0.7-0.1,0.7-0.9,1-1.4c0.3-0.4,0.7-1,0.8-1.5
			c0-0.1-0.2-0.5-0.1-0.7c0.1-0.2,0.5-0.2,0.6-0.4c0.3-0.3,0.4-1.5,0.4-2.1c0.1,0,0.2,0.1,0.3,0.1c0.4-0.9,1-1.4,1.2-2.6h0.3
			c0.2-1.1,0.6-1.6,0.6-2.9c0.5-0.1,1.4-2.9,1.1-3.4c0.1-0.1,0.1-0.1,0.3-0.1c0-0.8,1.5-3.1,1.1-3.7c0.1-0.1,0.2-0.1,0.4-0.1
			c0-0.2-0.1-0.3-0.1-0.5h0.3c0.1-0.4,0.5-0.9,0.2-1.4c0.1-0.3,0.1-0.3,0.3-0.5h0.3c0-1.6,0.6-1.5,0.6-3h0.3c0-1.2,0.5-1.9,0.8-2.9
			c0-0.2-0.1-0.5-0.1-0.7c0.1,0,0.2-0.1,0.3-0.1c0.2-0.3-0.2-0.6,0-1c0-0.1,0.3-0.5,0.4-0.6v-0.9c0.1-0.1,0.4-0.4,0.5-0.6v-0.6h0.2
			c0-0.2-0.1-0.4-0.1-0.6c0.1-0.1,0.2-0.1,0.4-0.2c0-0.2-0.1-0.5-0.1-0.7c0.1-0.4,0.6-1,0.7-1.4v-0.7c0-0.1,0.3-0.4,0.4-0.5
			c0.1-0.4-0.1-1.1,0-1.2h0.2c0-0.2-0.1-0.3-0.1-0.5c0-0.1,0.3-0.3,0.4-0.5V355c0.1-0.3,0.6-0.9,0.7-1.2v-1.1
			c0.1-0.2,0.4-0.7,0.5-0.9c0.2-0.6-0.1-1,0-1.5c0.1-0.3,0.4-0.7,0.5-1c0.1-0.3-0.1-0.9-0.1-1h0.2c0-0.3,0.1-0.7,0.1-1
			c0.1-0.1,0.2-0.2,0.3-0.3c0.2-0.4-0.1-0.5,0-0.8c0.1-0.3,0.4-0.8,0.5-1c0.1-0.1,0.1-0.1,0.3-0.1c0-0.3,0-1.1-0.2-1.3
			c0.1-0.4,0.2-0.3,0.3-0.6c0.1,0.1,0.2,0.1,0.4,0.1c-0.1-0.3-0.1-0.3-0.4-0.5c0.2-0.8,0.7-1.6,0.4-2.4c0.1-0.1,0.2-0.1,0.4-0.2
			c0-0.3,0-1.6,0-1.7c0.1-0.1,0.2-0.1,0.4-0.2c0,0-0.2-0.7-0.2-0.9c0.1-0.1,0.1-0.1,0.2-0.2c0-0.4,0.1-0.9,0.1-1.3
			c0.1,0,0.2-0.1,0.3-0.1c0-0.4-0.1-0.7-0.1-1.1c0.1-0.1,0.2-0.1,0.3-0.2c0-0.4-0.1-0.7-0.1-1.1c0.4-1.7,0.2-3.4,0.7-5.1
			c0-0.7-0.1-1.5-0.1-2.2l0.2-0.4c0.1-0.3-0.1-0.8-0.1-1c0-0.1,0.3-0.3,0.3-0.4v-0.7h0.2c0.1-0.2-0.3-1.7-0.1-2.3
			c0.2-0.8,0.6-1.8,0.6-2.4c0-0.9-0.2-2.5-0.1-3.2c0.1-0.7,0.3-1.7-0.1-2.3c0.1-0.2,0-0.1,0.3-0.2c-0.1-1.1-0.3-3.3-0.7-3.7
			c0.1-0.1,0.1-0.1,0.3-0.1c-0.1-0.9,0-2.3-0.4-3.3c0-0.3,0.1-0.7,0.1-1c-0.1,0-0.1-0.1-0.2-0.1c-0.1-0.4-0.2-0.8-0.3-1.2
			c-0.1-0.2-0.5-0.2-0.6-0.5v-0.7c-0.3-0.6-0.9-1.1-1.3-1.7c-0.3-0.4-0.3-0.9-0.6-1.4c-0.3-0.4-1-1-1.4-1.5c-0.1-0.1,0-0.3-0.1-0.4
			c-1.1-1-2.6-1.5-3.7-2.5c-0.2-0.1-0.1,0-0.2-0.1c0.2,0,0.8,0,1.1-0.1c0.1-0.1,0.1-0.3,0.2-0.4c0.1,0,0.1,0.1,0.2,0.1
			c0.6,0.1,1.4-0.2,1.9-0.4c0.2,0,0.5,0.1,0.7,0.1c0.3-0.1,0.7-0.5,0.9-0.6c0.7-0.3,1.2-0.3,1.9-0.6c0.3-0.1,0.6-0.5,0.9-0.6
			c0.2-0.1,0.3,0.1,0.4,0.1c0.1,0,0.5-0.2,0.6-0.3c0.4-0.2,1-0.4,1.4-0.6c0.1-0.1,0.2-0.2,0.3-0.4c0.2,0,0.4-0.1,0.5-0.1
			c0.2-0.1,0.3-0.5,0.5-0.6c0.4-0.2,1-0.1,1.5-0.3c0.3-0.1,0.3-0.4,0.7-0.6V290c0.5-0.1,0.7-0.2,1.2-0.2c0.3-0.5,0.5-0.5,0.9-0.8
			c0.1-0.1,0.1-0.3,0.2-0.4c0.3-0.1,0.6-0.2,0.8-0.3c0.3-0.3,0.4-0.8,0.7-1c0.7-0.5,1.4-0.9,2-1.4c0.4-0.3,0.6-1,1-1.3
			c0.2-0.2,0.4-0.1,0.6-0.3c0.8-0.5,2.2-2.5,2.8-3.4c0.2-0.4,0.2-1,0.3-1.2c0.3-0.7,1.5-0.9,2-1.3c0.3,0.1,0.4,0.2,0.6,0.5h0.2
			c-0.1-0.3-0.1-0.4-0.4-0.6c0.5-0.4,0.9-0.2,1.7-0.5c0.1,0,0.2-0.3,0.2-0.3h0.6c0.2-0.1,0.7-0.5,0.9-0.6c0.4,0,0.7-0.1,1.1-0.1
			c0.5-0.1,1.1-0.4,1.6-0.6C482.2,275.8,482.1,275.7,481.9,275.4z M318.8,303.5c0.1,0,0.3-0.1,0.3,0.1
			C318.9,303.5,319,303.7,318.8,303.5z M328.2,330c-0.3-0.1-0.1,0.1-0.2-0.2h0.2V330z M329.4,329.7c-0.2,0.1-0.5,0.2-0.7,0.3v-0.1
			h-0.1c0.2-0.1,0.2-0.1,0.4-0.3L329.4,329.7L329.4,329.7z M337.8,327.8c-0.2,0.1-0.4,0.1-0.6,0.2c-0.2-0.2-0.1,0-0.1-0.3
			C337.4,327.7,337.4,327.7,337.8,327.8L337.8,327.8z M338.7,327.5c-0.2,0.1-0.1,0-0.2,0.1h-0.2v-0.1c0.2-0.1,0.1,0,0.2-0.1
			L338.7,327.5L338.7,327.5z M341.3,326.8c-0.3,0-0.2,0-0.3-0.2h0.3V326.8z M354.3,302.1c-0.2-0.1-0.2-0.1-0.5-0.2
			c0.1-0.3,0.1-0.6,0.2-0.8c0.3,0.1,0.2,0.2,0.5,0.3C354.4,301.7,354.3,301.8,354.3,302.1z M354.6,300.5c-0.1,0.3-0.2,0.3-0.4,0.6
			h-0.1c0.1-0.3,0.2-0.4,0.3-0.6L354.6,300.5C354.6,300.4,354.6,300.4,354.6,300.5z M354.8,299c-0.3-0.1-0.5-0.2-0.8,0
			c-0.2-0.1-0.3-0.2-0.6-0.4c0-0.2,0.1-0.4,0.1-0.6c0.3,0.1,0.7,0.1,1.1,0.1c0.1,0.2,0.1,0.6,0.2,0.7L354.8,299L354.8,299z
			 M453.9,268.6h0.6c0,0.4-0.1,0.5,0,0.7v0.6c-0.4-0.3,0-0.3-0.2-0.6c0-0.1-0.4-0.2-0.5-0.3C453.8,268.7,453.9,268.7,453.9,268.6z
			 M452.6,268.1v0.2c-0.3,0-0.2,0-0.3-0.2H452.6z M451.5,269.8c0.3,0.2,0.6,0.4,1.1,0.4v0.4c-0.4,0-0.4,0.1-0.6,0.2
			c0,0.6,0.1,0.6,0.5,0.8c-0.1,0.2,0,0.1-0.1,0.2v0.1c-0.1-0.1-0.1-0.1-0.1-0.3c-0.2,0-0.4,0-0.6-0.1c-0.3-0.4,0.2-1-0.2-1.5
			L451.5,269.8L451.5,269.8z M452.4,272.2L452.4,272.2l-0.2,0.1v-0.2C452.2,272.1,452.3,272.1,452.4,272.2z M451.2,271L451.2,271
			c-0.1,0.1-0.2,0.2-0.4,0.2c0,0.3,0,0.4-0.2,0.6v0.2c-0.5-0.4-0.5-0.7-1.5-0.7v0.4c-0.2,0.1-0.1,0-0.2,0.1h-0.2
			c0.1-0.4,0.3-0.5,0.4-0.8c0.1,0.1,0.2,0.1,0.3,0.2c0.7,0,0.5-0.2,0.9-0.5c0,0,0.1-0.1,0.1-0.1C450.7,270.8,450.7,270.9,451.2,271z
			 M451.2,272.5v0.2h-0.1c-0.1-0.1-0.1-0.2-0.2-0.4C451,272.4,451.1,272.5,451.2,272.5z M450.9,275v0.6h-0.2c-0.1-0.2,0-0.2-0.2-0.3
			C450.6,275.1,450.6,275.2,450.9,275L450.9,275z M449.8,273.1c-0.2-0.1-0.1,0-0.2-0.1C449.8,273.1,449.7,273,449.8,273.1z
			 M449.1,272L449.1,272c0,0.1-0.1,0.2-0.1,0.2c-0.3-0.1-0.1,0.1-0.2-0.2L449.1,272L449.1,272z M449,269L449,269L449,269
			c-0.1,0,0-0.1,0-0.2h0.1C449.2,269,449.1,268.9,449,269z M449.1,268.7L449.1,268.7c0.3-0.2,0.4-0.3,0.6-0.5h0.4
			c0.1,0.2,0.2,0.3,0.4,0.5c-0.3-0.1-0.9-0.3-1.1,0H449.1z M451,269c-0.2-0.1-0.3-0.2-0.5-0.4C450.8,268.8,450.8,268.8,451,269z
			 M451.2,262.6L451.2,262.6c-0.1,0-0.2-0.1-0.3-0.2c0.1-0.8,0.8-0.9,1.2-1.5C452.3,261.3,451.6,262.4,451.2,262.6z M420.6,177
			c-0.1,0.3-0.1,0.2-0.2,0.6c-0.2-0.2-0.3-0.5-0.4-0.7C420.2,176.9,420.4,176.9,420.6,177z M418.9,177.1L418.9,177.1
			c-0.1-0.1-0.2-0.2-0.2-0.3C418.9,176.9,418.8,176.8,418.9,177.1z M418.8,177.8c-0.1-0.1-0.1-0.3-0.1-0.6
			C418.8,177.4,418.8,177.6,418.8,177.8z M419.6,179c0.1-0.2,0.2-0.5,0.3-0.7c0.1,0.1,0.2,0.1,0.4,0.2c0,0.5-0.2,0.6-0.4,0.9
			c-0.6,0.1-0.7,0-1.1,0.4c-0.1-0.2-0.1-0.4-0.2-0.6C418.9,179.1,419.3,179,419.6,179z M417.7,181c-0.2-0.2-0.3-0.3-0.5-0.6
			c-0.1-0.1,0-0.3,0-0.6c0.3,0.1,0.5,0.3,0.6,0.6C417.9,180.6,417.7,180.7,417.7,181z M406.2,272.6c0-0.4-0.1-0.4-0.2-0.6
			c-0.4,0-0.5,0.1-0.6,0.3c-0.7-0.1-1.2-0.5-1.5-1c-0.4,0-0.5,0-0.7,0.2c-0.3,0.3,0.1,0.3-0.1,0.7c-0.3,0.8-0.7,0.5-0.2,1.7
			c0.5,0,0.6-0.2,1-0.3c-0.1-0.2-0.1-0.2-0.3-0.4c0.1-0.3,0.1-0.2,0.2-0.4c0-0.1,0.1,0-0.1-0.2c0.1-0.1,0.2-0.1,0.3-0.2
			c0,0,0.1-0.4,0.2-0.6c0.3,0.2,0.6,0.4,0.9,0.6c0,0.7,0,0.9,0.1,1.6c0.3,0,0.3-0.1,0.4,0c0.3,0.2,0.3,0.5,0.6,0.7
			c-0.5,0.4-1.2,0-1.6,0.4h-0.1c0.1-0.5,0.1-1.2,0.1-1.7c-0.4,0.1-1.1,0.5-1.3,0.8c-0.1,0.2,0,0.6,0.1,0.9c-0.6,0.1-1.1,0.2-1.8,0.2
			v-0.3h0.3c0,0,0.1-0.1,0.1-0.1c0-0.3-0.1-0.7-0.2-0.8c-0.2-0.2,0-0.1-0.3-0.1c0-0.8,0-1.1,0-1.7c-0.3-0.1-0.6-0.1-0.7-0.3
			c-0.2,0.1-0.2,0.1-0.4,0.2c0,1-0.3,2.3,0.2,2.8v0.2c-0.3,0-0.7-0.1-1-0.1c-0.1-0.1-0.2-0.2-0.4-0.3v-0.2c0.1-0.1,0.3-0.1,0.4-0.2
			h0.1c-0.1-0.3-0.6-0.6-0.9-0.7c0.1-0.7,0.6-0.5,0.8-0.9c0-0.2,0.1-0.4,0.1-0.6c0.6-1,1.7-1.5,2.8-1.7c1.1-0.3,1.6,1.2,2.2-0.5
			c0.1-0.1,0.1-0.4,0.1-0.6c-1-0.2-0.9-0.9-1.4-1.6c-0.2-0.2,0.1-0.1,0.1-0.3c0-0.2-0.1-0.9,0.1-1.4c0.2-0.5,0.8-0.9,1-1.4
			c0.9,0,1.8-0.1,2.3,0.2c0.3-0.1,0.3-0.1,0.6-0.2c0-0.2,0.1-0.3,0.2-0.5c-0.1-0.7-0.4-0.8-0.8-1.1c-0.1-0.1-0.5-2.1-0.5-2.6
			c0-0.3,0.2-0.6,0.1-0.8c0,0,0.6-1.1,0.6-1.1c0.1,0,0.2-0.1,0.4-0.1v-0.4c0.3-0.4,1.1-1,1.7-1.1c0.4,0.1,0.8,0.1,1.2,0.2
			c0.2-0.2,0.3-0.3,0.6-0.5c0-0.4,0-0.9-0.2-1.1c-0.1-0.1-0.2,0-0.4,0.1c-0.2-0.2-0.6-0.3-0.7-0.6c-0.2-0.2-0.2-0.4-0.4-0.6
			c0-0.7-0.4-1.3-0.3-1.8c0.1-0.5,0.3-1.3,0.3-1.7c0.6-0.3,0.8-1.2,1.4-1.5c0.7-0.4,1.6-0.6,2.5-0.7c0.1-0.2,0.1-0.3,0.3-0.4
			c-0.1-0.8-0.8-1.2-1.4-1.7c-0.2-0.3,0-0.8-0.2-1.3c-0.6-1.9,1.5-3.2,2.4-4.5c0.5,0,1,0.4,1.4,0.1c0.3-0.1,0.2-0.1,0.5-0.2
			c0.1-0.3,0.1-0.6,0.3-0.7v-0.4c0,0.2-0.7-0.1-0.8-0.2c-0.3-0.2-0.7-1-0.8-1.4c-0.3-1.2,1-3.8,0.6-4.3c0.1-0.5,0.3-0.4,0.6-0.6
			c0.2-0.3,0.4-0.6,0.6-0.8c0.5-0.3,1.2-0.3,1.7-0.6v-0.6c-0.4-0.3-0.5-0.5-0.8-0.9c-0.1,0-0.2-0.1-0.3-0.1c-0.1-0.2,0.1-0.5,0-0.8
			c-0.4-0.9-0.7-3.4,0.3-4.1c0.5-0.8,1.9-0.6,2.8-0.9c0.1-0.1,0.1-0.2,0.1-0.4c0.3-0.9-1.1-1.5-1.3-1.9c-0.2-0.4-0.1-1.1-0.3-1.6
			c-0.7-1.9,0.1-4.1,1.3-5.3c0.2-0.1,1-0.3,1.5-0.5c0.2-1.2-0.4-1.6-0.8-2.4c-0.1-0.3-0.1-0.7-0.2-1c-0.1-0.3-0.4-0.5-0.5-0.7
			c-0.7-1.6-0.3-5,0.6-5.9c0.5-0.4,1.7-0.3,2.2-0.6v-0.6c-1.1-1-2.2-2-2.8-3.6V199c0-0.2-0.2-0.7-0.1-1c0.1-0.5,0.3-0.9,0.4-1.4
			c0.4-0.2,1.1-0.7,1.7-0.4c0.3-0.1,0.3-0.1,0.6-0.3c0-1.4-1.5-1.9-2-2.8c-0.2-0.5-0.2-0.8-0.4-1.3c-0.2-0.3-0.6-0.7-0.7-1
			c-0.5-1.1,0.1-3.2,0.2-4.3c0.1-0.1,0.2-0.1,0.4-0.2h1.7c0-0.2,0.1-0.3,0.1-0.5c-0.5-0.4-0.9-1-1.3-1.6c-0.2-0.2-0.5-0.4-0.7-0.6
			c-0.2-0.3-0.2-0.7-0.5-0.9c-0.2-0.2-0.4-0.2-0.6-0.6h-0.2c0.2-0.2,0.4-0.1,0.6-0.4h0.5c0.1,0.3,0.1,0.3-0.1,0.6v0.6
			c0.5,0.1,0.9,0.2,1.3-0.1c0.1,0,0.1-0.1,0.2-0.1c-0.1-0.3-0.1-0.4-0.3-0.6c-0.1-0.1,0.2-0.3,0.3-0.4c0-0.6,0-0.8-0.4-1
			c0.1-0.5,0.3-0.6,0.6-0.9h0.3c0.1,0.6,0.4,0.7,1,0.7c0,0.2,0,0.2-0.1,0.3c-0.2,0.1-0.3-0.1-0.5,0c-0.2,0-0.3,0-0.5,0.1
			c0,0.2-0.1,0.4-0.1,0.7c0.2,0.2,0.3,0.3,0.6,0.5c-0.1,0.2-0.2,0.5-0.3,0.7c0,0.5,0.1,0.6,0.3,0.9c1-0.1,1.6-0.4,2.7-0.5
			c0,0,0.1-0.1,0.1-0.1c0-0.6-0.2-0.8-0.4-1.2c-0.3-0.1-0.5,0-0.8,0c-0.1-0.4-0.2-0.6-0.5-0.7v-0.3c0.5-0.1,0.8-0.1,1.3-0.1
			c0,0,0.1-0.1,0.1-0.1c0-0.9-0.3-0.7-0.6-1.2c-0.5,0-0.6,0.1-0.9,0.3c-0.1-0.2-0.2-0.3-0.4-0.5h-0.4v-0.3c-0.3,0-0.5,0-0.6-0.1
			c0.1-0.6,0.5-0.5,0.6-1.2h0.1c0.1,0.3,0.2,0.5,0.3,0.8c2.2-0.1,2.8,1.3,2.8,3.1c0,0,0.1,0.1,0.1,0.1c0.6,0,0.8-0.4,1-0.5
			c0.7,0,0.7,0.5,1.1,0.8c0.1,0.1,0.3,0.1,0.5,0.2c0.2,0.2,0.4,0.5,0.6,0.7c0.8,0.7,0.7,0.7,0.8,1.9c0.4,0.2,0.8,0.2,1.3,0.1
			c0.7,0.7,1.7,1.3,1.7,2.7c1.5,0.4,2.3,1.2,2.9,2.4c0.1,0.3,0.1,0.5,0.3,0.7c0.3,0.4,0.8,0.6,0.9,1.3c-0.2,0-0.4,0-0.6,0.1
			c-0.2,0.3-0.1,0.5-0.2,0.7c0.2,0.2,0.3,0.3,0.5,0.5c0.2,0.1,0.5-0.1,0.6-0.5h0.1c0-0.2,0-0.1-0.1-0.2v-0.3h0.1
			c0.1,0.4,0.4,0.4,0.6,0.6c0.5,0.7,0.8,1.5,1.4,2.2c0.1,0,0.2,0.1,0.3,0.1c0.4,0.6,0.4,1.3,0.8,1.8c0.3,0.4,0.9,0.9,1.1,1.3
			c0.2,0.3,0.1,0.5,0.3,0.8c0.1,0.2,0.5,0.5,0.6,0.8c0.2,0.4,0.1,0.7,0.3,1c0.1,0.3,0.5,0.5,0.6,0.7c0,0.2,0.1,0.4,0.1,0.6
			c0.2,0.5,0.6,1.2,0.8,1.7c0.3,0.5,0.8,1.1,1,1.7c0,0.2,0.1,0.4,0.1,0.6c0.3,0.6,0.9,1.2,1.2,1.9c0.2,0.5,0,0.8,0.2,1.3
			c0.5,1.3,1.4,2.5,2,3.7c0.4,0.8,0.4,1.8,0.7,2.7c0.6,1.4,1.2,3.1,1.8,4.5c0,0.2,0.1,0.5,0.1,0.7c0.2,0.7,0.6,1.7,0.8,2.3v0.6
			c0.1,0.3,0.4,0.9,0.5,1.2v1.5c0.1,0.1,0.4,0.5,0.5,0.6c0,0.1-0.2,0.3-0.1,0.6c0.1,0.4,0.3,1.1,0.5,1.6v0.6
			c0.1,0.3,0.5,0.8,0.6,1.1c0.1,0.4-0.1,1.1,0.1,1.7c0.2,0.6,0.4,1.5,0.6,2.1c0,0.7,0.1,1.3,0.1,2c0.6,2.6,0.7,5.4,0.6,8
			c-0.4,0-1.1-0.3-1.5-0.1c-0.3,0.1-0.5,0.4-0.3,0.7c0,0.1,0.1,0.2,0.1,0.3c0.4-0.1,0.5-0.2,0.9-0.3v-0.4c0.3,0,0.5-0.1,0.8-0.1
			c0,0.1,0.3,1.7,0.2,2c-0.1,0.3-0.3,1.4-0.2,1.7v0.2h-0.2c-0.1-0.1-0.1-0.2-0.1-0.4c-0.8,0-0.7,0.3-1,0.7c0.1,0.5,0.2,0.4,0.5,0.7
			c0.3,0,0.3,0,0.5-0.2c0.1-0.1,0.1-0.1,0.1-0.3h0.3c0,0.4,0.1,0.8,0.1,1.2c-0.1,1-0.5,2.2-0.7,2.9c-0.2,0.7-0.1,1.8-0.4,2.1
			c-0.1,0.2,0,0.1-0.1,0.2c-0.1-0.2-0.2-0.5-0.3-0.7c-0.6,0-0.6,0.1-1.1,0.2c0,0.2,0,0.3,0.1,0.4c0,0.7,0.3,1.2,0.9,1
			c-0.1,0.9-0.4,1.7-0.6,2.6c-0.2,0-0.3,0.1-0.5,0.1c-0.1-0.6-0.3-0.8-0.4-1.5c-0.3,0-0.5,0-0.6-0.1c0-0.2,0-0.3,0.1-0.5
			c0-0.3,0-0.5-0.1-0.6c-1.2,0-0.9,0.6-1.6,1.1c0,0.3,0,0.3,0.2,0.5c0,0.5,0.2,0.5,0.6,0.6c-0.2,1.1-0.6,1.7-1.2,2.4h-0.2
			c0-0.5-0.1-0.9,0.3-1.2c-0.2-0.5-0.4-0.7-1.1-0.7c0.1-0.2,0.2-0.6,0.3-0.7c-0.1-0.2-0.2-0.3-0.3-0.5c-0.2-0.1-0.1,0-0.2-0.1
			c-0.4,0-0.4,0.1-0.6,0.3c0,0.3,0,0.4-0.1,0.6c0.1,0.1,0.2,0.2,0.3,0.5c0.2,0,0.3,0.1,0.5,0.1c-0.1,0.3-0.3,0.8-0.2,1
			c0,0.8,0.3,1,0.8,1.2c-0.1,0.2-0.3,0.4-0.1,0.6c0.1,0.3,0.1,0.2,0.3,0.5c0.3-0.1,0.4-0.2,0.6-0.3c0.1,0.1,0.2,0.1,0.4,0.2
			c-0.1,0.6-0.1,1.6-0.6,1.8v0.2c-0.4-0.5,0.1-0.9-0.2-1.4c-0.1-0.1-0.1-0.1-0.3-0.1c-0.1-0.5-0.5-1.2-0.7-1.7c-0.4,0-0.6,0-0.7,0.2
			c-0.2-0.2-0.1-0.3-0.4-0.4c0.1-0.2,0.2-0.6,0.3-0.7v-0.3c-0.3,0-1,0-1.2,0.1c-0.1-0.2-0.2-0.4-0.4-0.6v-0.2c0.2,0,0.2,0,0.3,0.1
			h0.2c0-0.4,0-1,0.2-1.3V259c-0.7,0.2-1.7,0.2-1.8,1c-0.2-0.1-0.3-0.2-0.4-0.4c-0.5,0-0.5,0.1-0.7,0.3c0,0.4,0.1,0.8,0.1,1.1
			c0,0,0.1,0.1,0.1,0.1c0.5,0,0.8-0.2,0.9-0.2c0.2,0.1,0.2,0.1,0.2,0.5c0.4,0.1,0.5,0.2,1,0.3c-0.1,0.4-0.2,0.6-0.4,0.8
			c0,0.4,0.1,0.6,0.4,0.8c0.3,0.2,1.1-0.4,1.5-0.6c0.1,0.3,0.1,0.5,0.2,0.8h-0.3v0.3c-0.7,0.1-1.8-0.2-2.3,0.1
			c-0.3,0.1-0.3,0.1-0.4,0.4c-0.1,0.1,0,0-0.1,0.2c0.2,0.2,0.1,0.4,0.5,0.5v0.1c-0.5,0.2-0.6,0.6-1,0.8c-0.4,0.2-1.3,0-1.8,0.4
			c-0.2-0.1-0.1-0.1-0.3-0.3c-0.3-0.3-0.6-0.2-1-0.2c0.1-0.3,0.2-0.6,0.3-0.8c-0.2-0.2-0.4-0.4-0.7-0.5c0.1-0.1,0.3-0.1,0.5-0.2
			c0.2-1.1-0.4-0.7-1.4-0.9c-0.2,0-0.4-0.2-0.6-0.1c-0.2,0.1-0.3,0.2-0.5,0.3c0,0.2,0.1,0.6,0.3,0.9c-0.1,0.3-0.1,0.2-0.4,0.4
			c0,0.4,0,0.8,0.1,1c0.4,0.1,0.5,0.2,0.7,0c0.2,0.1,0.1,0.3,0.3,0.6c0,0.2,0,0.3-0.1,0.5c-0.1,0.1,0,0-0.3,0
			c-0.1,0.3-0.2,0.6-0.4,0.8v0.1c-0.4-0.1-0.3-0.3-0.8-0.4v-0.1c0.3-0.1,0.5-0.2,0.6-0.6c0,0,0.1-0.1,0.1-0.1h-0.1
			c0-1.2-0.5-0.5-1-0.7c-0.2-0.1-0.6-0.7-0.9-0.1h-0.2c-0.1-0.2,0-0.1-0.1-0.2c0-0.2,0-0.3,0.1-0.5c0.4-0.1,0.7-0.1,0.9,0.2
			c0.3-0.1,0.3-0.2,0.6-0.4c0-0.3,0.2-0.6,0.2-0.6c-0.1-0.2-0.3-0.1-0.2-0.5v-0.2c-0.6,0-1,0-1.4,0.3c-0.5,0.2-0.6,0.8-0.6,1.2
			c-0.5,0.1-0.4,0.3-0.7,0.5c0.1,0.4,0.2,0.5,0.2,1c0.3,0,0.5,0,0.6-0.1c0.3-0.1,0.3-0.3,0.4-0.6c0,0,0.1-0.1,0.1-0.1h0.1
			c-0.1,0.3-0.2,0.4-0.1,0.6c-0.1,0.2-0.3,0.3-0.5,0.5c-0.4,0-0.7-0.2-0.9-0.1c-0.6,0.1-0.6,0.5-1.1,0.7c-0.1-0.2-0.1-0.4-0.2-0.6
			c0.4-0.2,0.7-0.5,1-0.7c0-0.6-0.1-0.9-0.6-0.7c0.1-0.2,0.1-0.2,0.2-0.5c0.2,0,0.3,0,0.4,0.1h0.2c-0.1-0.2,0-0.2-0.2-0.3
			c0.1-0.3,0-0.2,0.3-0.3v-0.2c-0.2-0.1-0.5-0.2-0.7-0.4c-0.5,0-0.5,0.2-0.7,0.4c0,0.3,0,0.6,0.1,0.7c0.1,0.3,0.1,0.2,0.5,0.3
			c-0.2,0.2-0.4,0.4-0.6,0.6c-0.1,0.1-0.5-0.1-0.8,0.1c-0.2,0.5-0.5,1.4,0,1.7c-0.2,0.3-1.8,0.7-2.2,0.8c-0.2,0-0.5-0.1-0.7-0.1
			c-0.4,0.1-0.7,0.6-1,0.7c-0.2,0.1-0.9-0.5-1-0.6v-0.6c-0.3-0.1-0.4-0.1-0.6-0.3c-0.4,0.1-0.4,0.1-0.5,0.4
			c-0.2-0.1-0.2-0.5-0.3-0.7c-0.6-0.1-1.1,0.1-1.2,0.7H425c0.1-0.5,0.2-0.3,0.4-0.6v-0.5c0.2-0.3,0.5-0.2,0.6-0.6
			c0.1-0.2,0-0.2,0-0.6c-0.4-0.1-0.3-0.1-0.7-0.2v0.3c-0.5,0.2-0.8,0.7-1.2,1c0,0.9-0.2,0.8-0.5,1.5c-0.2-0.1-0.2-0.1-0.3-0.4
			c-0.6,0-0.7,0.2-1.1,0.4c0,0.6,0.2,1,0.3,1.4c0,0.3-0.2,0.4-0.1,0.7v0.4h-0.2c-0.2-0.8-0.7-1.9-1.6-2c0-0.3,0-0.5,0.1-0.6
			c-0.1-0.4-0.3-0.4-0.6-0.6c-0.3,0.1-0.3,0.1-0.6,0.3c0,0.6,0,1,0.5,1.1c-0.4,0.8,0.2,1.3,0.9,1.6v0.1l-0.5-0.1c0,0.4,0,0.6,0,1
			c-0.4,0-1.1,0.2-1.4,0.5h-0.6c0.1-0.2,0.2-0.3,0.2-0.6c0.2,0,0.2,0,0.3-0.1c0.3-0.2,0.3-0.5,0.5-0.8c-0.1-0.4-0.2-0.3-0.3-0.6
			h-0.3c0.1-0.3,0.2-0.6,0.3-0.9c0,0-0.1-0.1-0.1-0.1c-0.4,0.1-0.6,0.2-0.9,0.3c-0.2-0.2-0.3-0.4-0.5-0.6c-0.5,0-0.5,0.2-0.8,0.4
			c0,0.3,0,0.5,0.1,0.6c0,0.1,0.1,0.2,0.1,0.3c0.5,0,0.8-0.1,0.9-0.6c0.2,0.2,0,0.3,0.5,0.6c-0.2,0.4-0.8,0.4-1.1,0.8
			c-0.3-0.1-0.3-0.1-0.6-0.2c-0.1,0.6-0.1,0.7-0.1,1.4h0.3c-0.4,0.3-1,0.1-1.4,0.4c-0.1-0.2-0.3-0.5-0.4-0.7c-0.4,0-0.2,0-0.6,0
			c-0.1,0.1-0.2,0.2-0.3,0.3c-0.1,0.5,0,0.6,0.1,1c0.2,0,0.4,0.1,0.6,0.1c0,0.2,0,0.3-0.1,0.4c-0.4,0.2-1.5,0.4-1.8,0.3
			c0,0-0.1,0.1-0.1,0.1c0-0.7,0-0.8-0.3-1.2c-0.4,0.1-0.7,0.2-0.9-0.1h-0.1c0,0.2,0.2,0.5,0.2,0.6c-0.1,0.5-0.4,0.5,0.1,0.8
			c-0.3,0.6-2.1,0.3-2.8,0.8h-0.7c0.1-0.2,0-0.1,0.1-0.2c-0.1-0.6-0.2-0.5-0.6-0.7c-0.5,0.1-0.5,0.3-0.8,0.6
			c-0.2-0.4-0.6-0.4-0.9-0.6C406.2,273.3,406.1,272.9,406.2,272.6z M422.1,181.8c-0.1,0.2,0,0.1-0.2,0H422.1z M454.9,250L454.9,250
			c-0.1,0-0.2,0.1-0.2,0.1v-0.2C454.9,250,454.8,250,454.9,250z M449.3,298.5L449.3,298.5c-0.2,0.4-0.2,0.8-0.3,1.4
			c-0.1,0.1-0.2,0.1-0.3,0.2c-0.4-0.1-0.7-0.1-1.1-0.2c0.2-0.2,0.7-0.7,0.4-1.2c0.1-0.2,0.2-0.1,0.5-0.3
			C448.9,298.6,448.9,298.8,449.3,298.5z M449,289h0.5v0.2C449.2,289.1,449.2,289.1,449,289z M448.2,300.4L448.2,300.4l-0.3,0.1
			v-0.2C448,300.3,448.1,300.3,448.2,300.4z M447.9,296.9L447.9,296.9l-0.2,0.1c0.1-0.2,0.2-0.4,0.3-0.6h0.4c0,0,0.1,0.1,0.1,0.1
			C448.3,296.7,448.2,296.8,447.9,296.9z M448,280.7h-0.3c0,0,0.1-0.1,0.1-0.1c0.1-0.2,0.1-0.1,0.2-0.3h0.1
			C448.1,280.6,448.1,280.6,448,280.7z M447.7,280.9c0.2,0.1,0.1,0,0.2,0.1c0,0,0.1,0.1,0.1,0.1h-0.1v0.2h-0.2v-0.1
			C447.6,281,447.6,281.1,447.7,280.9z M448,274h-0.2v-0.1c0.1-0.1,0.2-0.1,0.3-0.2c0.1,0.1,0.2,0.1,0.4,0.1
			C448.4,273.9,448.1,273.9,448,274z M448,272.3h0.2v0.1C448,272.3,448,272.5,448,272.3z M448.2,266.9c0.2,0.1,0.1,0,0.2,0.1
			C448.2,267,448.3,267,448.2,266.9z M447.1,266c0,0.4,0,0.5,0.2,0.6c-0.1,0.2-0.1,0.2-0.2,0.5c-0.3,0-0.2-0.1-0.4,0h-0.2
			c0-0.3,0.1-0.8,0.2-0.9C446.9,266,446.8,266.1,447.1,266z M446.8,265.1c0.1-0.2,0.1-0.4,0.2-0.6h0.2c0,0.2-0.1,0.4-0.2,0.6
			C447,265.1,447,265.2,446.8,265.1C446.9,265.2,446.9,265.1,446.8,265.1z M446.3,267.2c-0.1,0.2-0.2,0.2-0.3,0.4h-0.1
			c0.1-0.2,0.1-0.2,0.2-0.4H446.3z M445.8,264.6L445.8,264.6c0,0.1-0.1,0.2-0.1,0.2c-0.4,0-0.3,0.1-0.4-0.2H445.8z M440.3,266.4
			c-0.2-0.1-0.1,0-0.2-0.1C440.3,266.3,440.2,266.3,440.3,266.4z M439.7,264.8h-0.3v-0.1c0.2-0.1,0.1,0,0.2-0.1
			C439.6,264.7,439.6,264.7,439.7,264.8z M423.4,269.3c0.1-0.2,0.1-0.2,0.2-0.4c0.2,0.1,0.3,0.3,0.4,0.5c0.3,0,0.5,0,0.7-0.1
			c0.1-0.5,0-0.7,0.3-0.9v-0.1c0.3,0.1,0.4,0.3,0.6,0.5c0.1,0.1,0.5-0.1,0.8-0.2v0.4c0.4,0.1,0.3,0.3,0.8,0.3
			c-0.1,0.2-0.1,0.3-0.2,0.5c-0.8,0.2-2,0.3-2.6,0.8c-0.2,0-0.4,0-0.6-0.1C423.8,270.2,423.9,269.7,423.4,269.3z M423.7,270.7
			c-0.2,0.1-0.1,0.1-0.3,0H423.7z M422.7,269.6c-0.2-0.1-0.1,0-0.2-0.1C422.6,269.6,422.6,269.5,422.7,269.6z M421.8,270.5
			L421.8,270.5c-0.2,0.1-0.2,0.1-0.3,0c-0.1-0.2,0-0.1,0-0.3C421.6,270.3,421.7,270.4,421.8,270.5z M420.4,269.1
			c-0.2-0.1-0.1,0-0.2-0.1C420.3,269.1,420.3,269.1,420.4,269.1z M406.9,274.9h-0.3c0.1-0.2,0.2-0.3,0.4-0.5h0.3v0.3
			C407.1,274.8,407,274.9,406.9,274.9z M361.1,294.4v0.2c-0.3-0.1-0.4-0.1-0.6-0.3C360.7,294.3,360.9,294.4,361.1,294.4z
			 M356.7,294.8c-0.1,0.2,0,0.1-0.2,0H356.7z M355.7,303.2c-0.1-0.1,0,0-0.1-0.2c-0.1-0.2,0-0.1,0-0.3c0.1,0,0.2,0.1,0.3,0.1
			c0.1,0.2,0,0.1,0.1,0.2C355.9,303.1,355.8,303.2,355.7,303.2z M356.4,317.1c-0.1,0-0.2-0.1-0.4-0.1v-0.3c0.2,0.1,0.1,0,0.2,0.1
			h0.2V317.1z M356.3,305.2c0.1-0.8,0.6-0.7,0.6-1.7h0.4c0.1,0.5,0.2,0.6,0.2,1.1c-0.1,0.2-0.2,0.1-0.2,0.5
			C356.9,305,356.6,305.1,356.3,305.2z M357.6,310.2L357.6,310.2c-0.3,0.1-0.2,0.1-0.4-0.1c-0.1-0.2,0-0.1,0.1-0.4
			C357.4,309.9,357.5,310.1,357.6,310.2z M357.1,320L357.1,320l-0.1-0.2h0.1V320z M357.4,319.2c0-0.1,0.1-0.1,0.1-0.2
			C357.5,319,357.6,319.1,357.4,319.2z M357.2,313.5L357.2,313.5l-0.1-0.2c0.4-0.2,0.7-0.3,0.9-0.6h0.2c0,0.2,0,0.3,0.1,0.4
			C357.9,313.3,357.5,313.3,357.2,313.5z M358.3,311H358v-0.5h0.3C358.3,310.8,358.3,310.8,358.3,311L358.3,311L358.3,311z
			 M358.3,307.2h-0.4c-0.1-0.4,0-0.7-0.3-1v-0.3c0.4,0.1,0.6,0.3,1.1,0.3C358.5,306.5,358.3,306.8,358.3,307.2z M360,316.7
			c-0.5-0.2-0.4-0.5-1.2-0.5v-0.2c0.2-0.1,0.4-0.1,0.6,0c0.3,0.1,0.3,0.2,0.6,0.4V316.7z M360,311.7h-0.2c0-0.2,0-0.2,0.1-0.4h0.1
			L360,311.7L360,311.7z M360.6,319.5h-0.2v-0.2h0.2V319.5z M363,318.2c-0.3-0.1-0.2-0.4-0.5-0.6c-0.3-0.2-0.6-0.3-0.8-0.5
			c0-0.2,0-0.2,0.1-0.4h0.3c0.2,0.5,0.6,0.9,0.9,1.2L363,318.2L363,318.2z M403.6,427.3L403.6,427.3c-0.1-0.5,0-0.6,0.2-0.8
			c0.1-0.1,0.1-0.1,0.3-0.1c0,0.2,0.1,0.5,0.1,0.7C403.8,427.1,403.8,427.1,403.6,427.3z M405.9,432.6c-0.3,0.2-0.8,0.5-0.9,0.8
			c-0.4-0.1-0.4-0.3-0.9-0.3c0-0.4-0.1-0.6-0.3-0.8V432c0.5,0.3,1.1,1.1,1.8,0.6L405.9,432.6L405.9,432.6z M404.8,431.4v-0.2
			c0.2-0.1,0.1,0,0.2-0.1c0.1,0.1,0.1,0.1,0.1,0.3L404.8,431.4L404.8,431.4z M405.4,431c0-0.1,0.1-0.1,0.1-0.2
			C405.5,430.9,405.6,430.9,405.4,431z M409.3,430.9c-0.3,0.1-0.9,0.5-1,0.8c-0.4-0.1-0.4,0-0.6-0.4c-0.4,0.1-0.6,0.2-0.9,0.3
			c-0.1-0.4-0.3-1.1-0.8-0.7h-0.3v-0.1c0.3-0.1,0.5-0.3,0.7-0.5c0.3,0.2,0.6,0.6,0.7,0.9c0.6,0,1.1-0.2,1.2-0.6
			C408.6,430.7,409,430.7,409.3,430.9L409.3,430.9L409.3,430.9z M412.7,428.3h-0.2c0-0.4,0-0.4,0.2-0.6c0.1,0,0.2,0.1,0.3,0.1
			C412.8,428,412.7,428,412.7,428.3z M455.2,308c0.3,0.1,0.2,0.2,0.6,0.3c-0.1,0.4,0,0.7,0.3,0.9c-0.4,0.2-0.7,0.1-1,0.5
			c-0.3-0.1-0.4-0.3-0.6-0.6c0,0-0.1-0.1-0.1-0.1C454.7,308.8,455.1,308.4,455.2,308z M454.8,306.8h0.2c-0.1,0.2,0,0.1-0.1,0.2v0.1
			C454.9,307,454.9,307,454.8,306.8z M455.9,305.4c0.1,0.1,0,0.7,0,0.7c-0.1,0.2-0.5,0.2-0.6,0.5c-0.1-0.1-0.1-0.1-0.3-0.2
			c0-0.1-0.1-0.2-0.1-0.3c0.4-0.2,0.6-0.6,0.8-0.9C456,305.4,455.8,305.2,455.9,305.4z M451.6,298.9c0.7,0.2,1,0.8,1.5,1.2v0.3
			c-0.2-0.1-0.2-0.1-0.4-0.2c-0.1-0.1-0.1-0.4-0.2-0.6c-0.4,0-0.2,0-0.6,0c-0.2,0.3-0.4,0.4-0.6,0.6c0,0.3,0.1,0.6,0.2,0.7
			c0.2,0.4,0.6,0.4,1,0.6c-0.1,0.2-0.4,0.5-0.3,0.6c0,0.7,0.2,0.6,0.5,0.9c0.6-0.1,0.7-0.3,1.1-0.5c0-0.5-0.1-0.9-0.5-1.1v-0.7h0.1
			c0.2,0.5,0.6,1,1,1.4c-0.1,0.8-0.7,0.9-0.8,1.6c0.9,0,1.3,0.1,1.8,0.3c-0.2,0.4-0.6,0.4-0.9,0.6c-0.2-0.4-0.3-0.1-0.5-0.3
			c-0.2,0-0.2,0-0.3,0.1c-0.2,0.3-0.4,0.7-0.5,1.1c0.5,0.1,0.7,0.1,1.2,0.1c0.2,0.2,0,0.5,0.3,0.6c-0.3,0.3-0.7,0.4-1,0.7
			c0,0.7,0.3,1.2,0.6,1.4c-0.1,0.6-0.6,0.8-1,1.1c0.1,0.7,0.4,1.1,0.7,1.6c0.6,0,0.7-0.4,0.8-0.9h0.3c0,0.6,0.3,1.3,0.8,1
			c0.2-0.1,0.2-0.2,0.3-0.5h0.2c0.1,0.3,0.1,0.7,0,0.8v0.2c-1.2-0.7-1.1,0.1-1.6,0.9v0.4c0.1,0.2,0.4,0,0.6,0.1
			c0.3,0.2,0.3,0.6,0.8,0.6c-0.1-0.3-0.1-0.3-0.3-0.5c0.1-0.2,0.1-0.2,0.2-0.4c0.2,0,0.3,0,0.4,0.1c0.6,0.6-0.3,2.7-0.4,3.7h0.5
			c-0.1,0.1-0.1,0.1-0.2,0.2c0.1,0.2,0.1,0.2,0.3,0.3c-0.1,0.3-0.1,0.2-0.3,0.5c-0.3-0.1-0.1,0-0.3-0.2c-0.3,0-0.5,0-0.6,0.1
			c0.1,0.4,0.3,0.8,0.4,1.4c0.3,0,0.3,0,0.5,0.2c0.1,0,0.2,0.1,0.3,0.1c0,1.5-0.3,3-0.5,4.1c-0.1,0.6-0.1,1.8-0.3,2.6
			c0,0.2,0.1,0.4,0.1,0.6c0,0.3-0.3,0.9-0.3,1.1c0,0.3,0.3,0.2,0.3,0.6c-0.1,0.6-0.4,1.7-0.6,2.4c-0.1,0.6,0.1,1.2,0,1.7
			c-0.1,0.2-0.2,0.4-0.2,0.8c0,0.2,0.1,0.5,0.1,0.7c-0.2,0.6-0.4,1.4-0.6,2.1c-0.1,0.3,0.2,0.6,0.1,0.7h-0.2c0,0.1-0.1,0.6-0.1,0.6
			c0,0.3,0.1,0.7,0,1.2c-0.3,1-0.6,2.5-0.8,3.3v0.9c-0.1,0.4-0.4,1-0.6,1.4c-0.3,0.9-0.1,1.7-0.4,2.7c-0.1,0.4-0.4,0.9-0.6,1.3
			c-0.3,1.1,0.1,1.7-0.5,2.6v0.5c-0.2-0.1-0.1,0-0.2-0.1h-0.2c0.1,0.3,0,0.3,0.3,0.4c-0.7,3.5-1.7,6.6-2.8,9.8
			c-0.1,0.6-0.2,1.2-0.3,1.7c-0.1,0.1-0.3,0.3-0.4,0.5c-0.1,0.2,0.2,0.6,0.2,0.6c-0.1,0.1-0.2,0.2-0.4,0.4c0,0.1,0.2,0.6,0.1,0.8
			c-0.1,0.2-0.7,1-0.7,1.2v0.7c-0.1,0.4-0.2,1-0.4,1.5c-0.9,2.5-1.7,5.7-2.8,7.7c-0.1,0.4-0.2,0.9-0.3,1.3c-0.2,0.7-0.7,1.7-0.9,2.3
			c0,0.3-0.1,0.6-0.1,0.9c-0.3,0.5-0.7,1.3-0.9,1.7c-0.4,0.8-0.2,1.5-0.6,2.3c-0.2,0.5-0.7,1-0.9,1.5c-0.2,0.5,0,0.7-0.3,1.4
			c-0.2,0.5-0.8,1.1-1.1,1.7c-0.2,0.4,0,0.8-0.1,1.2c-0.1,0.1-0.2,0.2-0.4,0.4c0,0.2-0.1,0.5-0.1,0.7c-0.5,0.9-1.3,1.9-1.8,2.9
			c-0.2,0.3-0.1,0.4-0.2,0.7c-0.1,0.2-0.4,0.4-0.6,0.6c-0.1,0.2-0.1,0.4-0.2,0.6c-0.2,0.3-0.6,0.7-0.8,1v0.3
			c-0.1,0.2-0.5,0.3-0.6,0.5c-0.1,0.3-0.1,0.6-0.2,0.8c-0.4,0.6-0.8,1.3-1.2,2c-0.8,1.5-2.3,2.6-2.9,4.3h-0.7v0.3
			c0.2,0,0.2,0,0.3,0.1h0.2c-0.1,1.5-1.2,2.3-1.9,3.2c-0.2,0.2-0.2,0.6-0.4,0.8c-0.3,0.5-0.9,0.9-1.2,1.4c0,0.2-0.1,0.4-0.1,0.6
			c-0.1,0.2-0.4,0.2-0.6,0.4c-0.2,0.2-0.2,0.5-0.4,0.7c-0.2,0.2-0.4,0.4-0.6,0.6c-0.4,0.5-0.7,1.1-1.1,1.7c-0.2,0.3-0.5,0.4-0.6,0.7
			c-0.2-0.1-0.2-0.2-0.5-0.3v-0.3h-0.3v-0.3c-0.2,0-0.2,0-0.3,0.1c-0.2,0.2-0.1,0.1-0.1,0.3c0,0.6,0.1,0.7,0.7,0.7
			c-0.3,1.2-1.6,1.8-1.9,2.8c-0.1,0.1-0.1,0.2-0.1,0.4c-0.7,0.1-2.1,1.9-2.4,2.4c-0.1,0.2,0.2,0.3,0,0.6c-0.3,0.6-1.3,0.9-1.7,1.5
			c0,0.2-0.1,0.4-0.1,0.6c-0.3,0.5-0.8,0.8-1.1,1.3h-0.1c0-0.3-0.1-0.7-0.1-1c-0.4,0-0.7,0.1-0.7,0.1c-0.4,0-0.4,0.1-0.6,0.3
			c0.2,0.9,0,1.2,0.6,1.7c-0.2,0.4-0.6,0.9-0.9,1.1v0.1c-0.2-0.2-0.2-0.7-0.3-1c-0.4-0.1-0.4-0.2-0.9-0.3c0,0.2,0,0.3-0.1,0.4v0.4
			c-0.2-0.1-0.4-0.1-0.6-0.2c-0.2,0.4-0.3,0.5-0.6,0.7h-0.2c-0.1-0.1-0.1-0.1-0.2-0.2v-0.3c-0.3,0-0.5,0-0.6,0
			c-0.3,0.1-0.3,0.1-0.5,0.2c0,0.3,0.1,0.6,0.1,0.9c0.5,0,0.9,0.2,1.1,0.6c0.8-0.1,1-0.1,1.5-0.6h0.1c-0.3,0.4-0.6,0.6-0.9,0.9
			c-0.3-0.1-0.1,0-0.3-0.2c-0.6,0-1,0.6-0.8,1.1c-0.1,0.1-0.2,0.1-0.3,0.2c-0.5-0.6-0.8-1.3-1.2-1.9c-0.7,0.1-0.5,0.5-0.8,1v0.2
			c-0.1-0.2-0.1-0.5-0.3-0.7v-0.2c-0.3,0-0.2,0-0.3,0.2c-0.3,0-1.2-0.1-1.6,0.1c0,0-0.2,0.4-0.3,0.4c-0.1,0-0.5-0.1-0.6-0.2h-0.2
			v-0.5h-0.4c0.1-0.6,0-0.9,0-1.6c0.4,0,0.6-0.1,0.8-0.2c-0.1-0.5-0.3-0.7-0.3-1.3c-0.2,0-0.3,0-0.5,0.1h-0.1
			c0.1-0.1,0.1-0.2,0.1-0.5c0.8-0.1,0.6-0.5,1-0.8c0.2-0.2,0.5,0,0.7-0.2c0.3-0.1,0.6-0.5,0.9-0.6c0-1.2-0.8-1.4-1.1-2.2h-0.7
			c0,0.3-0.1,0.4-0.2,0.6v0.2c-0.2,0.1-0.1,0-0.2,0.1c-0.7,0-0.8-0.3-1-0.7c-0.1-0.1,0-0.3,0-0.4c0.1-0.7,0.6-0.7,0.8-1.1
			c0.3-0.6,0.2-0.9,0.7-1.2v-0.3c0.8-0.2,1.7-1.6,2.4-2.1c0-0.1,0.1-0.2,0.1-0.3c0.2-0.2,0.5,0,0.7-0.2c0.3-0.2,0.3-0.6,0.5-0.9
			c0-0.2,0-0.3-0.1-0.5c-0.1-0.1-0.1-0.1-0.3-0.1v-0.3c-0.4-0.2-1-0.4-1.4-0.6c-0.5-0.1-0.8,0-1.1-0.2c-0.2-0.2-0.3-0.8-0.1-1.1
			c0-0.2,1.6-2.3,1.7-2.4c0.4-0.2,0.7,0,0.9-0.3c0-0.2,0.1-0.4,0.1-0.6h0.1c0.1-0.1,0.4,0,0.6-0.1c0.1-0.1,0.3-0.4,0.6-0.6
			c0-0.2-0.1-0.4-0.1-0.6c-0.3-0.1-0.5-0.3-0.6-0.6c-0.8,0-1.3,0.1-1.8-0.3c-0.5,0-0.4-0.1-0.6-0.3c0.1-1.2,0.9-2.2,1.5-3
			c0.3-0.2,0.6-0.4,0.8-0.6c0.1-0.2,0.1-0.4,0.3-0.6c0.6-0.4,1.8-1.1,2-1.7c-0.3-0.2-0.5-0.4-0.6-0.8c-1.1,0-1.3-0.4-2.5-0.5
			c0-0.4,0.1-0.5-0.2-0.6c0.2-0.6,0.7-0.8,1-1.3c0.1-0.2,0-0.5,0.2-0.6c0.6-0.5,0.7,0.1,1.2-1h0.4c0-0.2,0-0.3,0.1-0.5
			c0-0.6-0.2-0.7-0.4-1.1c-0.7-0.2-1.6-0.1-2.4-0.2c-0.1-0.3-0.1-0.4-0.4-0.6c0.1-0.2,0.2-0.3,0.5-0.4c0-0.2-0.1-0.4-0.1-0.6
			c0.4-0.1,0.5-0.3,0.8-0.6c0-0.2,0.1-0.4,0.1-0.6h0.4v-0.1c0.3-0.3,0.4-0.7,0.7-0.9c0.2-0.1,0.4-0.1,0.6-0.2
			c0.3-0.3,0.2-0.8,0.5-1.1c-0.1-1-0.7-1-1.3-1.5c-0.1-0.1,0.1-0.4,0.1-0.7H410c0,0.3-0.1,0.5-0.2,0.6v0.2c-0.5,0.1-1.2,0.3-1.7-0.1
			c-0.2-0.5,0.4-0.9,0.6-1.3c0-0.2,0.1-0.4,0.1-0.6c0-0.1,1.1-1,1.2-1.1h0.3c0.2-0.2,0.2-0.5,0.5-0.6c0.6-0.3,0.9-0.4,1.1-1
			c0.1-0.1,0.1-0.1,0.1-0.3c0.2,0,0.4-0.1,0.6-0.1c-0.1-0.4-0.3-0.3-0.2-0.6c0-0.5-0.2-0.5-0.4-0.7c-0.2,0-0.5-0.1-0.7-0.1
			c0-0.3-0.1-0.5-0.3-0.7v-0.2h-0.2c0,0.3,0.1,0.6,0.3,0.7c-0.2,0.5-0.9,0.1-1,0c-0.5,0-0.5-0.1-0.7-0.3c0-0.2,0.1-0.3,0.2-0.5v-0.7
			h0.2c0.3-0.3,0.8-0.7,1-1.1c0.1-0.2,0-0.4,0.2-0.6c0.4-0.3,0.9-0.2,1.3-0.6c0.5-0.5,0.6-1.1,1.3-1.5c0-0.2,0-0.3-0.1-0.5
			c0-0.5-0.1-0.5-0.3-0.8c-1.3,0-2.7,0.4-3.5-0.1c-0.1-0.1,0,0-0.1-0.2c0.4-0.4,0.2-0.5,0.5-1c0.1-0.2,0.4-0.3,0.6-0.5
			c0.3-0.2,1.3-1.5,1.5-1.9c0.4-0.2,0.4-0.1,0.8,0c0,0,0.1-0.1,0.1-0.1c-0.1-0.3,0-0.2-0.2-0.4c0.1-0.1,0.1-0.1,0.3-0.1
			c-0.1-0.7-0.5-0.8-0.7-1.4c-0.4,0.1-1.9,0.3-2.2,0.5c-0.2,0-0.2,0-0.4-0.1c0-0.4,1.2-2.1,1.6-2.2v-0.3c0.6-0.1,1.1-0.5,1.1-1.2
			c0,0,0.1,0.1,0.1,0.1c0.3-0.1,0.2-0.2,0.6-0.3c0.1-0.4,0.1-0.5,0.1-0.8c-0.2-0.2-0.5-0.5-0.6-0.8c-0.5,0-1.3,0.3-1.7,0
			c-0.5,0-0.7,0-0.9-0.3h-0.1c0-0.1,0.1-0.1,0.1-0.2h-0.1c0.1-0.6,0.4-0.1,0.6-0.5c0-0.2,0.1-0.3,0.1-0.5c0.1-0.1,0.3-0.1,0.4-0.2
			c0.1-0.3,0.2-0.6,0.3-0.8c0.2-0.3,0.5-0.1,0.6-0.5c0.1-0.2,0-0.1,0.3-0.2c0.1-0.6,0.5,0,0.7-0.8h0.5c-0.1-0.4-0.4-1.5-0.2-1.7
			c-0.1-0.3-0.1-0.3-0.2-0.5c-0.7,0-2.4,0-2.8,0.3c-0.5,0-0.5-0.2-0.8-0.3c0-0.4,0.1-1.1,0.4-1.4c0.1-0.1,0.4-0.1,0.5-0.2
			c0.2-0.2,0.2-0.6,0.4-0.7c0.2-0.2,0.6-0.1,0.7-0.3c0.6-0.7,1-1.7,2.1-1.8c0-0.2,0-0.2-0.1-0.3c0.4-0.3,0.5-0.2,0.6-0.8
			c0.4,0,0.6-0.1,1-0.3c0-0.5-0.2-0.5-0.4-0.8c-0.5,0-1.3,0-1.6,0.2c-0.3,0-0.3,0-0.5-0.2c-0.1-0.1,0-0.2,0-0.5
			c-0.4,0.1-0.3,0.1-0.6,0.3v0.3c-1,0-1.7,0-2.1-0.6c-0.3-0.5,0.3-1,0.6-1.4c0.5-0.8,0.9-1.6,1.6-2.2c0.1,0,0.2-0.1,0.4-0.1
			c0,0,0.6-0.6,0.6-0.6c0.2-0.3,0-0.4,0.1-0.6c0-0.6-0.2-0.6-0.5-0.9c-0.7,0-2.6-0.1-3.2-0.6c-0.3-0.1-0.2-0.1-0.4-0.4
			c-0.1-0.2,0.3-1,0.5-1.3c0.2-0.2,0.6-0.3,0.7-0.6c0.2-0.3,0.3-0.7,0.6-0.9c0.2-0.2,0.6-0.2,0.8-0.4c0.4-0.3,0.5-0.8,0.9-1.1
			c0-0.7-0.1-0.9-0.4-1.4c-1,0-2.9,0.6-3.3-0.7c-0.3-0.8,0.6-1.5,0.9-1.9c0.1-0.2,0-0.5,0.2-0.7c0.1-0.1,0.4-0.1,0.5-0.2
			c0.1-0.2,0.2-0.5,0.3-0.7h0.5l1.5-1.3c0.1-0.1,0,0,0.1-0.2c-0.2-0.1-0.3-0.4-0.5-0.6c-1.3,0-2.4,0.7-3.2,0
			c-0.3-0.2-0.4-0.5-0.6-0.7c0-0.3,0-0.5-0.1-0.6c0.1-0.3,1.2-1.6,1.5-1.8v-0.4h0.4c0.3-0.3,0.6-0.5,0.9-0.7v-0.3h0.5
			c-0.1-0.2-0.3-0.2-0.2-0.5c0.1,0,0.2-0.1,0.3-0.1c0.1-0.3-0.1-0.4,0-0.6c-0.1-0.4-0.3-0.4-0.5-0.6c-1.1,0-3.9,0.3-4.7-0.3
			c-0.3-0.7,1-1.8,1.3-2.3c0.1-0.2,0.1-0.5,0.2-0.6c0,0,0-0.4,0.1-0.2c0.6,0,0.5-0.5,1-0.7c0.4-0.2,0.7,0,0.9-0.3
			c0.1-0.1,0.2-0.6,0.1-0.8v-0.4c-0.8-0.1-3.3,0-3.8-0.3c-0.8,0-1.4-0.5-1.6-1.1c-0.1-0.3,0.2-0.5,0.4-0.7c0.2-0.3,0.1-0.7,0.3-1
			c0.4-0.7,1.3-0.9,1.5-1.8h0.4c0-0.2,0-0.3,0.1-0.5v-0.2h0.3c0-0.3-0.1-0.3-0.2-0.6c-2.3-0.6-5.4,0.7-7-1.6c-0.1-0.1,0-0.1,0-0.4
			c0.3-0.1,0.2,0,0.4-0.3c0.1,0.1,0.1,0.2,0.2,0.4c0.8-0.2,2.3-1.3,2.4-2c1.1,0.2,1.7-1.2,2.5-1.4c0.3-0.1,1.1,0,1.4-0.1
			c0.2-0.1,0.3-0.4,0.5-0.5c0.2,0,0.3,0.1,0.5,0.1c0-0.1,0.1-0.2,0.1-0.3c0.5-0.3,1.4-0.7,1.9-0.9h0.7c0.5-0.2,1.1-0.9,1.5-1.3
			c0.1,0,0-0.1,0.2,0.1c0.9-0.1,1.3-0.8,1.9-1.2c0.5-0.3,0.9-0.3,1.4-0.6c0.1-0.1,0.3-0.3,0.5-0.4c0.2,0,0.4,0.1,0.6,0.1
			c0.3-0.1,0.2-0.6,0.5-0.8c0,0,1.7-0.7,1.7-0.7c0.2,0,0.4,0.1,0.6,0.1c0.6-0.2,0.1-0.6,1.1-0.5v-0.3c0.5-0.1,0.6-0.1,1-0.1
			c0,0.4,0.1,0.5,0.4,0.6c0.1,0.1,0.1,0,0.3,0.1c0.2-0.2,0.3-0.5,0.6-0.6v-0.5c0.6,0,1,0.1,1.2,0.5h0.2c-0.1-0.3-0.3-0.4-0.4-0.6
			c-0.2-0.6,0-0.9-0.3-1.5c-1,0-0.8,0.4-1.3,0.5c-0.1,0-0.3-0.1-0.5-0.2c-0.1,0.1-0.2,0.2-0.3,0.4c-0.6,0-1.2,0.3-1.5-0.2
			c-0.5,0-0.7,0.2-0.9,0.4c-0.1,0.2,0,0.2,0,0.5c0,0-0.1,0.1-0.1,0.1c-0.5,0-0.8-0.2-1.4,0.1v0.2c-0.3,0-0.6-0.1-0.8-0.1
			c0,0-0.3,0.3-0.4,0.3c-0.3,0.1-0.6-0.1-0.7-0.1c-0.2,0-0.1,0.2-0.2,0.2c-0.2,0-0.4-0.1-0.6-0.1l-0.3,0.2c-0.8,0.2-2.1,0.1-2.7,0.3
			c-1.4,0.5-3,1.2-4.5,1v0.3c-0.3,0.1-1,0-1.4,0.1c-0.9,0.3-1.8,0.5-2.7,0.7c-0.5,0.1-0.8-0.1-1.4,0c-1.6,0.4-4,0.4-5.7,0.8
			c-0.4,0-0.8-0.1-1.2-0.1c-0.7,0-1.5,0.1-2.2,0.2c-0.6,0.1-1.2-0.2-1.6-0.1c-3,0.6-6.3,1-8.9,1.7c-1.7,0.4-4.2-0.2-5.1,0.6
			c-0.2-0.2-2-0.5-2.4-0.3c-0.6,0.2-0.3,0.6-0.6,1.1c-0.4,0.6-0.9,1.6-1.4,2.1c-0.1,0.1-0.4,0.1-0.6,0.3c0,0.1-0.1,0.2-0.1,0.4
			c-0.2,0.3-0.8,0.5-1,0.8c-0.3,0.4-0.5,0.8-0.8,1.1c-0.2,0.2-0.6,0.2-0.7,0.4c-0.6,0.7-1.4,1.6-2.1,2.1c-0.8,0.6-1.5,0.6-2.1,1.3
			h-0.2c0.1-0.5,0.3-0.5,0.3-1.1c-0.2-0.2-0.4-0.4-0.6-0.6c-0.4,0-0.5,0-0.7,0.2c-0.1,0-0.2,0.1-0.3,0.1c0,0.6,0.3,1.4,0.1,1.7
			c0,0.4,0,0.4-0.2,0.6c-0.4-0.2,0-0.5-0.2-0.8c-0.2-0.4-0.8-0.7-1-1.2c0.1-0.5,0.1-1.1-0.1-1.4c-0.2-0.4-1-0.6-1.4-0.9
			c-0.3-0.3-0.4-1-0.6-1.4c0.1-0.2,0.4-0.3,0.6-0.5c0.2,0,0.2,0,0.3,0.1c0.1,0,0.2,0.1,0.3,0.1c-0.1,0.6-0.3,0.8-0.2,1.5
			c0.5,0.3,1,0.8,1.5,1c0.4-0.1,0.5-0.2,0.8,0.2c0.6,0,0.7-0.2,0.9-0.6h0.4v0.3c0.2,0.2,0.4,0.5,0.6,0.7c0.7,0,0.8-0.4,1-0.8v-0.6
			c0.2-0.3,0.5-0.2,0.6-0.6c0,0,0.1-0.1,0.1-0.1c-0.2-0.2-0.4-0.4-0.6-0.6c-0.3,0-0.5,0-0.7,0.1v0.8c-0.7-0.1-0.7,0-1.1,0.4
			c-0.2-0.6-0.2-1.1-0.4-1.7c-0.3-0.1-0.8-0.2-1,0c-0.3,0.1-0.3,0.2-0.3,0.6c-0.3-0.2,0-0.1-0.2-0.4c-0.1-0.2-0.4-0.2-0.6-0.4
			c-0.2,0-0.5,0.1-0.7,0.1c0.3-0.5,0.1-1.1-0.3-1.5c0.4-0.3,0.3-0.2,0.6-0.6c0.1-0.1,0.4,0,0.6-0.1c0.1-0.1,0.2-0.2,0.4-0.4
			c-0.1-0.3-0.1-0.4-0.3-0.6v-0.2c0.6,0.1,0.5,0.5,1,0.6c0.3,0.2,0.4-0.3,0.6-0.4h1.1c-0.3-0.4-0.6,0-1-0.2
			c-0.2-0.1-0.2-0.5-0.5-0.6c-0.1-0.1-0.4-0.1-0.6,0c-0.2-0.2-0.1-0.6-0.3-0.8c0.1-0.2,0.1-0.1,0.3-0.3c0,0,0.1-0.1,0.1-0.1h-0.1
			c0-0.3,0-0.5-0.1-0.6c-0.2-0.1-0.2-0.1-0.4-0.2c-0.5,0-0.5,0.1-0.8,0.3c0,0.4,0.3,0.7,0.2,0.9c-0.1,0.3-0.5,0.5-0.2,0.9
			c-0.2,0.4-0.8,1-1.2,1.3c0,0.5,0,0.6,0.4,0.8c-0.3,0.1-0.6,0-0.9,0.2c-0.2-0.3-0.4-0.4-0.7-0.5c-0.1-0.3-0.2-0.4-0.2-0.8
			c-0.5-0.1-0.7-0.3-0.9,0.1h-0.1c0-0.3,0-0.8,0-0.8v-0.2h0.7v-0.6c0.2,0.1,0.8,0.1,1,0.3h0.2c-0.1,0.4,0,0.6,0,1.1
			c0,0,0.1,0.1,0.1,0.1c0.3,0,0.4,0.1,0.5,0c0.5-0.2,0.9-1,0.9-1.7c-0.2-0.2-0.3-0.4-0.5-0.6c-0.6,0-0.9,0.1-1.2,0.3
			c-0.2-0.5-0.4-0.4-0.8-0.6c-0.1-0.2,0-0.3,0.2-0.5c-0.1-0.8-0.6-1.1-1.3-1.3c0-0.6-0.1-1,0.4-1.2c0-0.2,0-0.3-0.1-0.5
			c-0.1-0.3-0.7-0.4-1-0.6c-0.1-0.3-0.2-0.5,0-0.7c0-0.2,0-0.4,0.1-0.6c0.1-0.1,0.2-0.1,0.3-0.2c0.4,0.2,0.4,0.7,0.6,1
			c0.1,0.2,0.4,0.3,0.6,0.5c0.1-0.1,0.1-0.2,0.2-0.3V302c0.1,0.1,0,0.5,0.1,0.6c0.1,0.2,0.4,0.3,0.6,0.5c0.3,0,0.4,0,0.6,0.1
			c0.6,0,0.7-0.2,1.1-0.3c0-0.8-0.1-1.3-0.7-1.4c0.1-0.2,0.1-0.5,0.2-0.7c-0.1-0.1-0.2-0.2-0.3-0.4c-0.2-0.1-0.1,0-0.2-0.1
			c-0.8,0-0.4,0.3-0.8,0.7c-0.1,0.2,0,0.1-0.1,0.2c-0.1-0.3-0.3-0.6-0.6-0.4c-0.2-0.2-0.2-0.7-0.3-1c-1-0.4-1.2-0.5-2.2-0.1
			c-0.1-0.2-0.1-0.2-0.2-0.5c-0.6-0.1-1.1-0.3-1.4,0.1h-0.2v-0.4c0.5,0,0.5-0.1,0.7-0.4c0.3,0.3,0.5,0.3,1.1,0.3v-0.3
			c0.6-0.2,0.9-0.4,1.7-0.4c0-0.1,0.1-0.2,0.1-0.3c-0.3-0.2-0.8-0.4-1-0.6c-0.1-0.1-0.1-0.3-0.2-0.4c0-0.5,0.2-0.4,0.6-0.6
			c0.1-0.5,0.2-0.8,0.1-1.5h-0.5v-0.8c0.6,0.1,1.3,0,1.8,0.3c0.1,0.2,0.1,0.9,0.2,1.1c0.1,0.2,0.2,0.2,0.3,0.4
			c0.4,0,1.1-0.2,1.5-0.4h0.2c0-0.5-0.1-0.8-0.5-1v-0.1c1.2,0,3-0.1,3.5,0.7c0.4-0.1,0.4-0.3,0.7-0.4c0.7-0.2,2,0.6,2.8,0.6
			c0,0,0.1,0.1,0.1,0.1c-0.1,0.4-0.4,0.7-0.6,0.9v0.1c0.4-0.1,0.5-0.5,0.8-0.6c0.2-0.1,0.3,0.1,0.4,0.1c0.2,0,0.4-0.3,0.6-0.4
			c0.3-0.1,2.7,1,3.1,0.7c0.8,0,0.5-0.3,0.8-0.7c0.1-0.1,0.1,0,0.3,0.1c0.4-0.1,0.3-0.2,0.5-0.5c0.1-0.1,0.5,0,0.9-0.1
			c0.2-0.1,0.5-0.4,0.7-0.6c0.3,0,0.6-0.1,0.9-0.1c0.4-0.3,0.8-0.6,1.2-0.8c0-0.1,0.1-0.2,0.1-0.3c0.3-0.1,0.6-0.1,0.8-0.2
			c0.7-0.4,1-1.1,2.1-1.1c-0.1-0.2,0-0.2-0.2-0.3c0.5-0.5,1.8-1.4,2.6-1.3c0-0.2,0.1-0.5,0.2-0.6c0,0,0.2,0.2,0.4,0.1
			c0.4-0.2,0.8-0.7,1.1-1c0.3-0.1,0.6-0.2,0.8-0.3c0.4-0.2,0.9-0.7,1.3-1c0.2-0.1,0.5-0.1,0.6-0.2c0.7-0.4,1.6-0.8,2.3-1.3
			c0.2-0.1,0.2-0.4,0.4-0.6c0.3-0.3,0.9-0.1,1.3-0.3c0.1-0.2,0.2-0.4,0.4-0.6c0.2,0,0.5-0.1,0.7-0.1c0.1-0.1,0.1-0.3,0.2-0.4
			c0.2-0.2,0.5,0,0.7-0.2c0.2-0.2,0.1-0.3,0.5-0.5v-0.4c0.4,0.1,0.3,0.2,0.6,0.3c0.2-0.3,0.3-0.3,0.4-0.6c1,0.3,0.5-0.3,0.9-0.6
			c0.4-0.2,0.6,0.3,0.7-0.4c0.9,0.3,1.2-0.3,1.8-0.6h0.6c0.4-0.2,1.2-1,1.7-1.2c0.2-0.1,0.3,0.1,0.4,0.1c0.4-0.1,0.8-0.5,1.2-0.6
			v-0.4c0.4,0,0.7-0.2,0.9-0.1c0.2-0.1,0.1,0,0.2-0.3c0.2,0,0.2,0,0.3,0.1c0.7-0.1,0.7-0.5,1.1-0.7h0.6c0.6-0.2,1.2-0.8,1.8-1
			c0.3-0.1,0.5,0,0.7-0.1c0.1-0.1,0.2-0.2,0.3-0.4h0.6c0.2-0.1,0.4-0.3,0.6-0.4c0.3,0,0.6-0.1,0.9-0.1c0.1-0.1,0.2-0.3,0.3-0.4
			c0.1,0,0.2,0.2,0.4,0.1c0.9-0.4,1.9-0.8,2.8-1.2h0.6c0.9-0.3,2.1-0.7,2.9-1h0.6c1.8-0.5,3.7-1.9,5.6-1.9v-0.4
			c0.8,0.3,1.2-0.2,1.8-0.4c0.4-0.1,0.6,0.2,0.8,0.2c0.1-0.1,0.1-0.2,0.2-0.3c0.5-0.3,1.2-0.6,1.7-0.7c0.7-0.3,1.9-0.3,2.4-0.7
			c0.2,0.1,0.2,0.2,0.3,0.5c0.4,0,0.7-0.3,1-0.1c0.4,0,0.5-0.1,0.8-0.2v-0.4c0.4-0.1,0.5-0.2,0.6-0.6c0.5,0,0.6,0.2,0.6,0.6
			c0.3,0,0.3,0,0.5-0.2c0.3-0.1,0.4-0.7,0.6-0.9h0.3c-0.1,0.2,0,0.1-0.1,0.2c0,0.3,0,0.5,0.1,0.6c0.2,0,0.2,0,0.3-0.1
			c0.5,0,0.7,0,0.9-0.2c0-0.5-0.1-0.6-0.4-0.7v-0.1c0.3-0.1,0.7-0.1,0.9-0.3c0.1,0.1,0.2,0.9,0.3,1.2c1.1,0.2,0.9-0.5,1.7-0.7
			c0.1,0,0.2,0.1,0.4,0.1c0.3-0.1,0.6-0.4,1-0.6c0.1,0.2,0.1,0.2,0.2,0.4c0.2,0,0.4-0.1,0.6-0.1c0-0.2,0-0.3-0.1-0.4v-0.1
			c0.4,0.1,0.6,0.4,1.2,0.5v-0.3c0.2-0.1,0.3-0.2,0.4-0.5c0.6,0,1.4,0,1.8,0.3c0.1,0.1,0.1,0.2,0.2,0.4c0.1,0.1,0.5,0.2,0.5,0.2
			c0.6,0.2,0.8,0,1.2,0.3c0.4,0,0.4-0.1,0.5-0.4c0.3,0.1,0.3,0.3,0.6,0.5c-0.1,0.8-0.5,1.1-0.7,1.7c-0.2,0.5,0,0.9-0.1,1.4
			c0,0.2-0.3,0.8-0.4,1c-0.1,1.2-0.1,2.5-0.2,3.7c0,0.1,0.2,0.6,0.2,0.7c-0.2,1.2-0.3,3.2,0.1,5.1c0.2,0.9-0.3,1.6,0,2.6
			c0.1,0.3,0.3,0.3,0.4,0.5c-0.4,0.6,0.4,2,0.5,2.5c0.1,0.5-0.3,0.6-0.2,1c0.1,0.6,0.5,1.3,0.6,1.9c0.1,0.8-0.6,1.4,0.5,2v0.1h-0.4
			c0,0.5-0.1,1.1,0,1.6c-0.2,0.3-0.5,0.4-0.6,0.8h-0.3v0.3c-0.5-0.2-1.7-0.5-2.1-0.2c-0.4,0-0.3,0.1-0.6,0.2c0,0.6,0,0.8-0.1,1.4
			h0.3c0,0.3,0.1,0.3,0.1,0.4c-0.1,0.2-0.2,0.2-0.6,0.3c0.1,0.4,0.1,0.5-0.2,0.7c0.1,0.2,0.5,0.4,0.8,0.5c0,0.2,0,0.3,0.1,0.5
			c-0.3,0.1-0.3,0.2-0.6,0.5c0,0.4,0.2,0.7,0.5,1.1c0.5,0,1.1-0.6,0.5-0.9c0.1-0.1,0.6-0.4,1-0.4v-0.3c-0.1,0-0.2-0.1-0.4-0.1v-0.2
			c0.1-0.1,0.2-0.2,0.3-0.4c0.3,0.1,0.7,0.2,1,0.3c0.1-0.1,0.1-0.3,0.2-0.4v-0.1h0.2c-0.1,0.3-0.3,0.6-0.5,0.8
			c0.1,0.3,0.1,0.4,0.3,0.6c-0.1,0.1-0.1,0.1-0.3,0.1c0.1,0.2,0.1,0.4,0,0.6v0.2c-0.4-0.2-0.7-0.1-1.2-0.1c0.1,0.3,0,0.2,0.2,0.4
			c0,0.6,0.2,0.6,0.5,0.9c0.2,0,0.3,0,0.4-0.1c0.2-0.1,0.2-0.2,0.2-0.6c0.2,0.1,0.2,0.1,0.4,0.2c0.1,0.1,0.2-0.1,0.4-0.2
			c0.4,0.4,0.9,0.8,1.6,0.8c0-0.8,0.4-0.6,0.6-1c0.1-0.1,0-0.1-0.1-0.3c0.6-0.5,1.5-0.7,2-1.3c0.1-0.2,0.1-0.2-0.1-0.4L451.6,298.9
			L451.6,298.9z M419.7,300.8h0.2v0.2C419.7,301,419.8,301.1,419.7,300.8z M363,307.2V307h0.4C363.3,307.2,363.4,307.1,363,307.2z
			 M358.8,300.8h0.3v0.2C358.8,301,358.8,301.1,358.8,300.8z M360.1,301.9c0.1-0.1,0.1-0.2,0.1-0.5c0.1,0,0.2,0.1,0.3,0.1
			c0,0.2,0,0.2-0.1,0.4L360.1,301.9L360.1,301.9z M446.2,297.5c0,0.1-0.1,0.4-0.2,0.6c-0.1,0-0.7-0.1-0.9-0.3H445v-0.1
			c0.3,0,0.5,0,0.6-0.2H446.2z M451,297.8c0,0.2,0,0.3,0.1,0.4c-0.1,0.3-0.1,0.3-0.5,0.4c-0.2,0-0.3-0.2-0.5-0.1h-0.3
			c0.1-0.2,0.2-0.1,0.4-0.3h0.1c-0.1-0.3-0.2-0.3-0.5-0.3c-0.1-0.5-0.1-0.5-0.4-0.9C449.9,297.3,450.4,297.6,451,297.8z
			 M449.4,290.7c0.2,0.1,0.1,0,0.2,0.1C449.4,290.8,449.5,290.8,449.4,290.7z M450,291.3c0.1,0.4,0.2,0.8,0.3,1
			c-0.1,0.1-0.2,0.2-0.3,0.3c-0.2,0-0.2,0-0.3-0.1c-0.1-0.1,0.1-0.2,0.3-0.3c-0.1-0.4-0.1-0.2-0.3-0.4c0,0,0.1-0.8,0.1-1
			c0.2-0.1,0.4-0.1,0.6-0.3c0.2,0.1,0.1,0,0.2,0.1c0.2,0.1,0.1,0,0.2,0.1C450.4,290.9,450.3,291.2,450,291.3z M449.9,289
			c0.1-0.1,0.2-0.2,0.3-0.3c0.1,0,0.2,0.1,0.3,0.1v0.5c-0.1-0.1-0.2-0.1-0.5-0.1C449.9,289,449.9,289.1,449.9,289z M453.9,292.2
			c-0.7,0-0.5,0.4-0.9,0.6c-0.2,0.2-0.5,0.1-0.7,0.3h-1c0-0.3,0-0.3-0.1-0.4v-0.3c0.2,0.1,0.3,0.4,0.4,0.6c0.5-0.1,0.5-0.2,1-0.3
			c0-0.2-0.1-0.4-0.1-0.6c0.2-0.1,0.3-0.2,0.5-0.4C453.3,291.8,453.7,291.9,453.9,292.2c0.2,0,0.2,0,0.3,0.2
			C454.1,292.3,454,292.3,453.9,292.2z M454.4,290.9c-0.2,0.3-0.6,0-0.9,0.3c-0.2-0.3-0.1-0.5-0.4-0.6c-0.3-0.2-0.8,0.1-1.2,0.2
			c0,0.3-0.2,0.8,0.1,1v0.2c-0.3-0.2-0.6-0.5-0.9-0.7c0.2-0.3-0.2-0.9,0-1.3v-0.2h0.3v0.4c0.3-0.1,0.2-0.2,0.4-0.4
			c0.1,0.1,0.6,0.1,0.6,0.1c0.2-0.1,0.2-0.1,0.4-0.2v-0.3c0.2,0,0.3,0,0.5,0.1c0.5,0,0.7,0.1,0.8-0.4h0.2c0,0.2-0.1,0.2,0,0.5
			c0.1,0.1,0.2,0.2,0.3,0.3C454.5,290.2,454,290.4,454.4,290.9z M451.2,288.7c0-0.2,0-0.3,0.1-0.5c0.2,0.1,0.2,0.3,0.4,0.5v0.2
			C451.5,288.8,451.5,288.8,451.2,288.7z M456.8,291.6c-0.3,0.2-1,0.4-1.3,0.6V292c0,0-0.1-0.1-0.1-0.1c0.2-0.2,0.4-0.4,0.6-0.6
			c0.3,0,0.6,0.1,0.7,0h0.1C456.8,291.5,456.8,291.5,456.8,291.6z M456.9,291.4h0.3C457.1,291.5,457.1,291.5,456.9,291.4z
			 M471.4,281.2c-0.6,0.8-1.4,1.3-2.1,2c-0.1,0.2-0.2,0.4-0.4,0.6c-1,0.9-2.1,1.6-3.2,2.5c-0.3,0.2-0.5,0.8-0.8,1c0,0-0.2-0.1-0.4,0
			c-0.6,0.3-1.7,1.1-2.1,1.6c-0.4-0.1-0.6-0.5-0.8-0.7c-0.4,0-0.4,0.1-0.6,0.2c0,0.5,0.1,0.7,0.5,0.9c-0.2,0.4-0.7,0.4-1,0.7
			c-0.3-0.4-0.4-0.7-0.9-0.8v-0.3c-0.4-0.1-0.4-0.1-0.6-0.3c0-0.4-0.1-0.8,0.4-0.9c0-0.4-0.2-0.5-0.3-0.8c-0.5,0-0.6,0-1,0
			c0,0.2,0.1,0.4,0.1,0.6c-0.1,0.3-0.4,0.2-0.3,0.6c0,0.6,0.3,0.7,0.9,0.6c-0.1,0.3-0.2,0.3-0.4,0.5c0.1,0.8,0.4,0.4,0.6,0.6
			c0.2,0.2,0.4,0.4,0.6,0.6c-0.1,0.3-0.5,0.3-0.7,0.6c0,0-0.1-0.5-0.2-0.7c-0.2,0-0.4-0.1-0.6-0.1c0-0.4-0.1-0.5,0-0.7v-0.2
			c-0.5,0.1-1,0.2-1.4,0.4c-0.1,0.3-0.1,0.4-0.3,0.6c0.1,0.2,0.1,0.2,0.3,0.4v0.1c-0.5-0.1-0.5-0.2-1-0.3c0.1-0.7,0.5-1,0.7-1.6
			c-0.2-0.2-0.4-0.4-0.5-0.7c-0.5,0-1.2-0.2-1.5-0.1c-0.2,0.1-0.1,0.2-0.3,0.4c-0.1,0.2-0.3-0.2-0.4-0.3c-0.3-0.1-0.6,0.2-0.7,0.1
			c0-0.1-0.1-0.2-0.1-0.3c-0.2-0.1-1,0.1-1,0.1h-0.2c0-0.4,0.5-0.5,0.9-0.6c0.1-0.5,0.1-0.6,0.3-1c0.3-0.1,0.8,0.1,1.1-0.1
			c0.3-0.2,0.2-0.6,0.5-0.8c0.6-0.6,2.2-0.9,2.8-0.5c0.2-0.1,0.3-0.2,0.5-0.4c0-0.4,0-0.4-0.2-0.6c0-0.1-0.1-0.2-0.1-0.3
			c-0.8,0-1,0.2-1.1,0.8c-0.5,0.1-1.1,0.2-1.4,0.5h-0.5v-0.2c0.2-0.1,0.3-0.1,0.6-0.1c0-0.4,0.1-1.1-0.3-1.3c0.1-0.1,0.6-0.2,1-0.3
			c-0.1-0.4-0.4-0.6-0.6-0.9c-0.9,0-1.1,0.7-1.7,1.1c0.1,0.5,0.2,1.1,0.5,1.4c0,0.2,0,0.2-0.1,0.3c-0.2,0.1-0.4,0.2-0.6,0.2v-0.3
			c0,0-0.1-0.1-0.1-0.1c-0.6,0.1-0.9,0.6-0.9,1.3c-0.7,0-0.7,0.3-1.3,0.3c0,0.3,0,0.5-0.1,0.6c-0.1,0.1-0.1,0-0.4-0.1
			c-0.2,0.2-0.4,0.4-0.6,0.6c-0.1-0.2-0.2-0.3-0.3-0.5c-0.1-0.1-0.6-0.1-0.7-0.2h-0.1c0.3-0.4,1.2-0.1,1.6-0.8
			c0.1-0.3-0.2-0.6,0.1-1c0-0.6-0.1-0.5-0.4-0.8c-0.5,0.1-0.5,0.3-0.7,0.6v0.1H449c0.2-0.6,0.3-0.5,0.3-1.2c0.7,0.2,1.3,0.5,1.7,0.9
			c0.2,0.2,0.1,0.4,0.4,0.6v0.3c0.3,0,0.4,0,0.5-0.1c0.2-0.1,0.3-0.2,0.5-0.3c-0.1-0.4-0.2-0.3-0.3-0.6c0.2-0.1,0.3-0.1,0.6-0.2
			c0.1-0.4,0.2-0.4,0.3-0.8h-0.3c0-0.5-0.1-0.5-0.3-0.7h-0.3c0-0.2,0-0.2-0.1-0.3c0-0.1-0.1-0.2-0.1-0.3c-0.6,0-0.6,0.1-1,0.3
			c0,0.2,0.1,0.4,0.1,0.6h0.3v0.2c0,0,0.1,0.1,0.1,0.1c0,0-0.1,0.1-0.1,0.1c-0.2,0-0.4-0.1-0.6-0.1c0.1-0.2,0.1-0.2,0.2-0.5
			c-0.5,0-1.3-0.1-1.7,0.2H449v-0.2c0.2,0,0.4-0.1,0.6-0.1c0,0,0.1-0.1,0.1-0.1c0-0.6-0.1-0.6-0.1-1.1c-0.3,0-0.3,0-0.5,0.2h-0.1
			c0.1-0.3,0.1-0.6-0.1-0.8v-0.4c0.2,0.1,0.2,0.2,0.5,0.2c-0.1,0.4,0,0.7,0.4,0.8c0.1,0.1,0.5-0.1,0.9-0.1c0.1-0.2,0.1-0.4,0.2-0.6
			h0.6c0-0.3,0-0.4-0.1-0.6c-0.3,0.1-0.3,0.1-0.6,0.3c-0.3-0.4-2.1-0.8-2.4-0.7c0-0.3,0-0.4,0.2-0.6c-0.1-0.2-0.2-0.2-0.4-0.3
			c0-0.2,0-0.3,0.1-0.4c0.1-0.1,0.2,0,0.5,0c0.1-0.3-0.1-0.5-0.1-0.7c0-0.3,0.3-0.5,0.4-1h-0.4c-0.1-0.6-0.2-1.2-0.7-1.5v-0.1
			c0.4,0.1,0.7,0.3,1.1,0h0.2c-0.1,0.2,0,0.2-0.2,0.3c0,0.5,0,0.8,0.2,1.1h0.3c0,0.5-0.3,0.8-0.3,1c0,0.3,0,0.4,0.1,0.6
			c0.4,0,0.5-0.1,0.7-0.3c0.1-0.4,0.1-0.6,0.4-0.8c-0.1-0.3-0.1-0.3-0.2-0.5c0.3-0.1,0.7,0,0.9,0.2c0.4,0,0.4-0.1,0.6-0.3
			c-0.1-0.2,0-0.1-0.1-0.2c-0.1-0.4-0.2-0.3-0.5-0.6h-0.2c0.1-0.1,0.4,0,0.6-0.1c0.1-0.1,0.1-0.4,0.2-0.5c0.2-0.1,0.9-0.2,1.3-0.2
			c0-0.4,0.1-1.5-0.1-1.7c-0.1-0.4-0.4-0.4-0.6-0.6c-0.3,0.1-0.4,0.3-0.7,0.5c0,0.4,0.1,1.1,0.3,1.4v0.2c-0.3-0.2-0.4-0.4-1-0.5
			v-0.3h0.5c0-0.4-0.1-0.7,0-0.9c0.3-0.6,1.1-0.4,1.9-0.4c0-0.3,0.2-0.6,0-0.8c0.1-0.2,0-0.1,0.2-0.1c0.1-0.2,0.1-0.2,0-0.5
			c0.2,0.1,0.3,0.1,0.4,0.3c0.4,0,0.4-0.1,0.6-0.3c0-0.3,0-0.6-0.1-0.7v-0.1c0.2,0,0.7-0.1,0.9-0.2c0.4-0.2,0.6-0.6,0.9-0.9
			c0-0.3,0-0.2-0.2-0.4v-0.1c0.9,0,1,0,1.7,0c-0.3,0.2-0.7,0.3-0.9,0.5v0.2c0.3,0.2,0.6,0.4,0.8,0.7c0.2,0,0.2,0,0.3-0.1
			c0.3-0.1,0.4-0.5,0.6-0.7c-0.2-0.1-0.4-0.2-0.6-0.4V269c0.9,0.1,1.5,0.4,2.3,0.6c0.3,0.1,0.7-0.2,0.8-0.1c0.5,0.2,1.1,1.1,1.7,0.6
			c0.8,0.2,1.6,1,2.3,1.4c0.5,0.2,1,0.2,1.4,0.6h0.1c-0.5,0.8-1,1.1-0.9,2.4c1.8,1.7,2.4,1.5,4.5,0.4c0.5,0.7,1.1,1.1,1.7,1.7
			c-0.1,0.4-0.4,0.9-0.6,1.1v0.3c0.3-0.1,0.4-0.2,0.6-0.4c0.3,0.2,0.3,0.9,0.5,1.2C472.1,279.4,471.9,280.4,471.4,281.2z
			 M448.5,284.9v-0.2h0.3v0.1c0,0-0.1,0.1-0.1,0.1L448.5,284.9L448.5,284.9z M425.8,184.2h0.2c0-0.2,0.1-0.3,0-0.6
			c0-0.5-0.4-0.7-0.8-0.8c-0.2,0.2-0.3,0.3-0.5,0.5c0,0.4,0.1,0.5,0.2,0.8C425.2,184.2,425.5,184.4,425.8,184.2z M425.9,185.2
			c-0.3-0.2-0.4-0.4-0.9-0.4c0,0.2,0,0.3-0.1,0.5c0,0.6,0.1,0.6,0.3,1c0.6,0,0.8,0.1,0.8-0.6c0.1,0.1,0.3,0.1,0.4,0.2
			c0.4,0,0.7,0,0.9-0.1c0-0.3,0-0.6-0.1-0.8c-0.2-0.1-0.2-0.1-0.4-0.2C426.3,184.8,426,184.8,425.9,185.2z M422.3,185.4h0.3v-0.4
			h-0.3V185.4z M428.9,186.4c0.1-0.1,0,0,0.1-0.2c-0.1-0.1-0.2-0.2-0.3-0.4c-0.2-0.1-0.1,0-0.2-0.1h-0.6c-0.1,0.4,0,0.5,0,0.9
			C428.4,186.7,428.7,186.7,428.9,186.4z M421.5,187.6h-0.6c0.1,0.4,0.1,0.4,0.2,1c-0.2,0-0.4-0.1-0.6-0.1c-0.3,0.3-0.8,0.5-0.9,1
			c-0.1,0.2,0,0.4,0,0.7c0.4,0,0.4,0,0.8,0c0-0.3,0-0.3-0.2-0.5c0-0.4,0.1-0.5,0.2-0.7c0.1,0.1,0.1,0.2,0.1,0.5
			c0.2,0,0.3,0.1,0.5,0.2c0.4-0.1,0.3-0.2,0.6-0.3c0-0.4,0.1-1.3-0.2-1.7L421.5,187.6L421.5,187.6z M428.8,189.1
			c0.2,0.1,0.4,0.1,0.6,0h0.2c0-0.2,0-0.3-0.1-0.5c0-0.6,0-0.8-0.5-0.9c-0.1,0.3-0.2,0.8-0.4,1.1C428.8,188.9,428.8,189,428.8,189.1
			z M426.1,189.2c0-0.6-0.2-0.8-0.4-1.2c-0.2,0-0.3,0-0.4-0.1c-0.4,0.1-0.4,0.1-0.6,0.3C424.7,189,425.3,189.2,426.1,189.2z
			 M426.4,190.5c0.3,0.1,0.5,0.2,0.9,0.3c0.1-0.4,0.2-0.4,0.3-0.7c-0.1-0.1-0.2-0.2-0.3-0.4h-0.9C426.5,190,426.5,190.1,426.4,190.5
			z M423.1,190.8c0.3,0,0.5,0,0.6-0.1h0.2c0-0.4-0.1-0.5-0.3-0.7H423c-0.1,0.2-0.2,0.3-0.3,0.5C422.9,190.6,423,190.6,423.1,190.8z
			 M432.4,191.4c0-0.4,0.1-0.9,0.1-1.3c-1.4-0.1-0.9,0.7-0.5,1.3H432.4z M424,193.9c0.2,0.1,0.1,0,0.2,0.1c0.5,0,0.7-0.1,1-0.2
			c0-0.4-0.1-0.4-0.3-0.6c-0.3,0-0.6,0.1-1.1,0.1C423.9,193.6,424,193.6,424,193.9z M428.6,193.8c0.1,0.3,0.2,0.6,0.3,0.8
			c0.3,0.1,0.6,0.2,0.8,0c0.1,0,0.2-0.1,0.3-0.1c0-0.6-0.2-0.6-0.3-1h-0.9C428.8,193.6,428.7,193.7,428.6,193.8z M425.8,194.8
			c-0.1-0.3-0.1-0.3-0.4-0.4c-0.1,0.1-0.2,0.3-0.3,0.4c0,0.1-0.1,0.2-0.1,0.3c0,0,0.1,0.1,0.1,0.1c0.2,0,0.5-0.1,0.7-0.1
			C425.8,194.9,425.9,194.9,425.8,194.8z M426.8,195.4c0.1,0.4,0.4,0.7,0.7,0.8c0.1,0.1,0,0,0.2,0.1c0.1-0.1,0.2-0.1,0.3-0.2
			c0.1-0.3,0.2-0.7,0-0.9V195c-0.2,0-0.4-0.1-0.6-0.1C427.2,195,427,195.2,426.8,195.4z M434.1,196.8c0-0.3,0-0.3,0.2-0.5
			c-0.1-0.4-0.2-0.3-0.3-0.6c-0.4,0-0.6,0.1-0.8,0.2c0.1,0.4,0.2,0.6,0.4,0.9H434.1z M436.4,197.6c0-0.4-0.1-0.5-0.2-0.8
			c-0.2,0-0.3-0.1-0.5-0.1c-0.1,0.1-0.2,0.1-0.3,0.2c-0.1,0.1-0.1,0.2-0.2,0.3v0.4c0.2,0,0.3,0.1,0.5,0.2
			C436,197.7,436.2,197.7,436.4,197.6z M424.3,198.9c-0.2-0.1-0.5-0.1-0.8-0.1c-0.1,0.1-0.2,0.2-0.4,0.3c0,0.7,0.2,0.6,0.5,1
			c0.5-0.1,0.5-0.5,0.7-0.8V198.9z M428.4,199.1h-0.3c0,0.1-0.1,0.2-0.1,0.3c-0.1,0.2,0.1,0.7,0.3,0.9c0.1,0.3,0.3,0.3,0.5,0.5
			c0.3,0,0.3-0.1,0.6-0.2C429.3,199.6,428.7,199.7,428.4,199.1z M429.2,201.2c0.1,0.2,0,0.1,0.3,0.2v-0.3L429.2,201.2
			C429.3,201.2,429.2,201.2,429.2,201.2z M432.2,203.7c0.4-0.1,0.6-0.3,0.7-0.6c0.1-0.2,0-0.2,0-0.5c-0.4,0-0.4,0-0.6-0.3
			c-0.4,0-0.5,0.1-0.7,0.2c0,0.2-0.1,0.5-0.2,0.7c0.1,0.1,0.2,0.2,0.4,0.4C432.1,203.6,432.1,203.6,432.2,203.7z M438.4,204.5
			c0.2,0,0.2,0,0.4-0.1c0.1-0.2,0.1-0.2,0.2-0.4c0-0.5,0.1-0.7-0.4-0.8c-0.2,0.2-0.2,0.2-0.6,0.3c0,0.2-0.1,0.3-0.2,0.5
			C438,204.3,438.2,204.3,438.4,204.5z M443.9,208.3c0.1-0.1,0.2-0.7,0.3-0.9c-0.3-0.1-0.4-0.1-0.6-0.1c-0.2,0.3-0.4,0.3-0.5,0.6
			c-0.1,0.1,0,0-0.1,0.2c0.1,0.1,0.1,0.2,0.2,0.4C443.5,208.5,443.7,208.5,443.9,208.3z M424.2,209.6c0.5,0,0.6-0.2,0.7-0.6
			c-0.2-0.1-0.4-0.2-0.7-0.2C424.1,209.1,424.1,209.3,424.2,209.6z M436.4,210.4c0-0.4-0.1-0.7-0.1-1.1c-0.5,0-0.4-0.2-0.8-0.3
			c0,0.5,0.1,0.5-0.2,0.7c0.1,0.5,0.2,0.5,0.4,0.8C436,210.6,436.1,210.5,436.4,210.4z M433.4,214.1c0.2,0.1,0.4-0.1,0.8-0.1
			c0-0.3,0.1-0.6,0.1-0.9c-0.5-0.1-0.6-0.2-1.1-0.1c0,0-0.1,0.1-0.1,0.1c0,0.3,0,0.6,0.1,0.7C433.3,214.1,433.2,214,433.4,214.1z
			 M438.4,221.2c0,0.2,0,0.3,0.1,0.4c0,0.3,0.1,0.3,0.2,0.6c0.2,0,0.4,0,0.6-0.1c0.3-0.1,0.2,0,0.3-0.3c0.1-0.2-0.2-0.8-0.4-1.1
			h-0.4C438.6,220.8,438.6,221,438.4,221.2z M444.4,224.6c0.4-0.1,0.6-0.2,0.8-0.4c0.1-0.3-0.2-0.7-0.4-0.9c-0.1,0-0.3-0.1-0.5-0.1
			c-0.2,0.2-0.3,0.5-0.6,0.6C443.9,224.2,444.2,224.3,444.4,224.6z M449.6,239.5c0-0.4-0.2-0.9-0.4-1.1v-0.2c-0.3,0-0.4,0-0.6,0.1
			c-0.1,0.5,0.1,0.7,0.2,1.3C449.1,239.5,449.3,239.5,449.6,239.5z M451.3,246.4c0.3-0.1,0.3-0.1,0.6-0.3c0-0.6-0.2-1.6,0-1.9
			c0-0.2,0-0.3-0.1-0.4c-0.1-0.1-0.1-0.1-0.3-0.1c-0.1,0.1,0,0-0.2,0.1c0,0.6-0.1,0.8,0.1,1.3c-0.2,0.1-0.4,0.2-0.5,0.3
			c-0.1,0.1-0.1,0.2-0.2,0.3c0.1,0.3,0.1,0.3,0.2,0.6C451.1,246.3,451.2,246.3,451.3,246.4z M445.5,246.1c0.4,0,0.5-0.1,0.7-0.3
			c0-0.2,0-0.2-0.1-0.3c0-0.4-0.1-0.4-0.2-0.6h-0.4c-0.3,0.3-0.2,0.3-0.5,0.5C445.2,245.9,445.3,245.8,445.5,246.1z M449.8,249.7
			c0.4-0.1,0.4-0.3,0.7-0.5c0-0.2,0.1-0.4,0.1-0.6c-0.3,0-0.3-0.1-0.4,0c-0.5,0-0.4,0.1-0.6,0.3
			C449.6,249.3,449.7,249.3,449.8,249.7z M447.8,250.2c-0.1-0.3-0.3-0.3-0.5-0.6c-0.2,0-0.3,0-0.4,0.1c-0.2,0.1-0.3,0.2-0.5,0.4
			c0.1,0.3,0.2,0.3,0.2,0.7C447.5,250.9,447.3,250.6,447.8,250.2z M451.2,250.9c0.1,0.4,0.1,0.4,0.5,0.6v0.2
			c-0.2-0.1-0.3-0.1-0.5-0.2c-0.1,0.2-0.2,0.3-0.4,0.5c0.1,0.4,0.2,0.5,0.3,0.9c0.4-0.1,0.6-0.3,1-0.4c0-0.2-0.2-1.2-0.2-1.2
			c0-0.1,0.4-0.6,0.5-0.8c0.1-0.3-0.1-0.5,0-0.7c-0.1-0.1-0.2-0.1-0.4-0.1c-0.2,0.2-0.5,0.3-0.7,0.5
			C451.3,250.5,451.2,250.9,451.2,250.9z M443.2,252.5c0,0.3-0.1,0.2,0,0.4c0.3,0.2,0.5,0,0.7,0.2h0.4c0.1-0.3,0.2-0.6,0-0.8
			c-0.2-0.5-1.1-1-1.7-1c0,0.3,0.1,0.2,0,0.4C442.7,252.2,442.6,252.5,443.2,252.5z M453.3,253.1c0.2,0.1,0.1,0,0.2,0.1
			c0.7,0,0.6-0.2,1-0.5c0-0.3-0.1-0.6-0.1-0.8c-0.3-0.1-0.6-0.1-0.8-0.2c-0.1,0.1-0.1,0.1-0.2,0.2c-0.2,0.2-0.3,0.7-0.1,0.9V253.1z
			 M409.3,252C409.4,252.1,409.4,252.1,409.3,252c0.1,0,0.2-0.1,0.2-0.2c-0.1,0-0.2-0.1-0.3-0.1C409.3,252,409.3,251.9,409.3,252z
			 M446.7,254.4h0.7c0-0.4,0-0.5,0.4-0.6c-0.1-0.3-0.3-0.5-0.6-0.6c-0.1-0.1-0.4,0.1-0.6-0.1h-0.3c-0.1,0.2,0,0.1-0.1,0.2
			C446.4,253.9,446.7,253.8,446.7,254.4z M448.9,253.8L448.9,253.8l-0.9-0.1v0.2C448.3,253.8,448.7,253.9,448.9,253.8L448.9,253.8z
			 M433.9,253.9c-0.2,0.4-0.4,0.8-0.6,1.1c0.1,0.3,0.1,0.3,0.3,0.6c0.6-0.1,0.6-0.4,1-0.6C434.4,254.5,434.2,254.1,433.9,253.9z
			 M441,255.2c0.3,0,0.4,0,0.5-0.1c0-0.5,0-0.5,0-0.9c-0.1-0.1-0.2-0.2-0.3-0.3c-0.2,0.2-0.4,0.3-0.6,0.5c0,0.3,0.1,0.5,0.2,0.7
			C441,255.1,441,255.1,441,255.2z M451.7,253.9c-0.1,0.1-0.2,0.1-0.3,0.2c0,1.1,0.4,0.9,0.5,1.9c0.6-0.1,1-0.2,1.6-0.5
			c0.1-0.2,0.1-0.3,0.2-0.5c-0.1-0.1-0.2-0.4-0.3-0.5h-0.6l-0.6-0.7L451.7,253.9L451.7,253.9z M432.6,254.4h-0.4
			c-0.1,0.2,0,0.1-0.1,0.2c0,0.1,0.1,0.2,0.1,0.3c0.3,0,0.3,0,0.5-0.2C432.8,254.6,432.7,254.6,432.6,254.4z M446.8,257.3
			c0.5,0.1,0.6,0.4,1.1,0c0.2-0.2,0.3-0.3,0.3-0.7c0.2,0,0.4-0.1,0.6-0.1c0.1-0.4,0.3-0.9,0.2-1.1v-0.2c-1.1,0-0.5,0.3-1,0.6
			c-0.2,0.1-0.7,0.2-0.9,0.3C447,256.5,446.9,256.9,446.8,257.3z M450.1,257.5c1-0.1,0.7-0.9,1.3-1.4v-0.3c-0.2-0.1-0.1,0-0.2-0.1
			c-0.6,0.1-0.6,0.4-1.2,0.5C450.1,256.5,450.1,256.9,450.1,257.5z M446.7,257c0-0.6-0.1-0.7-0.5-0.9c0,0-0.1-0.1-0.1-0.1
			c-0.1,0.2-0.2,0.6-0.4,0.8c0.1,0.4,0.2,0.3,0.3,0.6h0.6C446.6,257.2,446.6,257.1,446.7,257z M443.1,256.1c-0.1,0.1,0,0-0.2,0.1
			c-0.1,0.4-0.1,0.9-0.2,1.3c0.1,0.1,0.1,0.1,0.2,0.2c0.6,0,0.8-0.1,1.1-0.3c0-0.2,0-0.3,0.1-0.4
			C444.1,256.2,443.6,256.2,443.1,256.1z M438.7,257.5c-0.1,0.2-0.1,0.2-0.2,0.4c0,0.6,0.1,0.7,0.4,1c0.5-0.1,0.4-0.3,0.8-0.5v-0.8
			c-0.2,0-0.3,0-0.5-0.1L438.7,257.5L438.7,257.5z M447.5,257.9c-0.3,0-0.5,0-0.6,0.2c-0.1,0-0.2,0.1-0.3,0.1c0.1,0.3,0,0.5,0,0.8
			c0.2,0,0.3,0,0.4,0.1c0.5,0,0.5,0,0.6-0.4c0.1-0.2,0.1-0.5-0.1-0.6V257.9z M442.9,259.3c0.4,0,0.4-0.1,0.6-0.3
			c0-0.2,0-0.2-0.1-0.3c0-0.3-0.1-0.3-0.2-0.6c-0.2,0-0.5-0.1-0.7-0.1c0,0.4,0.1,0.5-0.1,0.8c0,0.2,0,0.2,0.1,0.4
			C442.8,259.3,442.8,259.2,442.9,259.3z M434.2,259.8L434.2,259.8c0.5,0.2,0.7,0,1.3,0c0-0.2,0-0.2-0.1-0.3c0-0.7-0.2-0.7-0.4-1.1
			c-0.4,0.1-0.4,0.4-0.7,0.6C434.3,259.3,434.4,259.6,434.2,259.8z M437.2,258.9c-0.3,0.1-0.3,0.1-0.6,0.3c0.1,0.3,0.1,0.3,0.2,0.5
			C437.1,259.5,437.2,259.3,437.2,258.9z M439.4,261.7c0,0.4-0.2,0.7-0.4,0.9v0.2c0.5,0,1.1,0.4,1.6,0c0.2-0.1,0.2-0.1,0.3-0.3
			c0-0.1,0.1-0.4,0.1-0.6h-0.4c0.2-0.4,0.5-0.2,0.6-0.7c0.1-0.2-0.1-0.5-0.3-0.9c-0.3,0.1-0.8,0.2-1,0.3c-0.1,0.3-0.1,0.9-0.3,1.1
			C439.6,261.7,439.6,261.7,439.4,261.7z M441.8,262.3c0.9-0.2,0.6-0.7,0.5-1.5c-0.4,0.1-0.4,0.3-0.6,0.6c0,0.4-0.1,0.5,0.1,0.7
			V262.3z M429.8,261.1c0,0.7,0.2,0.8,0.7,0.7c0-0.3-0.1-0.5,0-0.7C430.3,261.1,430.1,261.1,429.8,261.1
			C429.9,261.1,429.9,261.1,429.8,261.1z M443.8,263c0.1,0.1,0,0,0.2,0.1c0.2-0.2,0.4-0.3,0.6-0.6h0.1c0-0.4,0-0.8-0.1-1H444
			c-0.1,0.1-0.2,0.2-0.4,0.3c0,0.3,0,0.9,0,1C443.7,263,443.6,262.8,443.8,263z M434.2,261.9c-0.1-0.2-0.1-0.2-0.2-0.4h-0.4
			c-0.1,0.1-0.1,0.1-0.3,0.2c-0.1,0.2,0,0.1-0.1,0.2c0,0.7,0.2,0.8,0.4,1.2c0.2,0,0.4-0.1,0.6-0.1
			C434.2,262.6,434.4,262.1,434.2,261.9z M425.6,261.8c0.1,0.4,0.4,0.7,0.5,1.2c0.2,0.1,0.1,0,0.2,0.1c0.5-0.1,0.4-0.3,0.9-0.4
			C426.9,261.9,426.4,261.9,425.6,261.8z M435.9,262.8c-0.2,0-0.3,0-0.4-0.1c-0.4,0.1-0.3,0.2-0.6,0.3c0,0.2,0,0.3,0.1,0.4
			c0.1,0.2,0.2,0.2,0.4,0.4c0.7,0,0.7-0.2,1.3-0.3c0-0.4,0.2-0.7,0.5-0.9c0-0.2,0-0.2-0.1-0.3c-0.3-0.2-0.6,0-1.1,0.1
			C436,262.6,436,262.6,435.9,262.8z M429.7,262.3c-0.5,0.1-0.4,0.3-0.7,0.6c0,0.2,0.1,0.4,0.2,0.6v0.2c0.5,0,0.6-0.2,1.1-0.2
			C430.3,262.6,430.1,262.7,429.7,262.3z M443.1,263.2c0-0.2,0-0.2-0.1-0.3c-0.1-0.1-0.1-0.1-0.3-0.1v-0.4c-0.2,0-0.3,0-0.5-0.1
			c0,0.1-0.1,0.3-0.2,0.4c-0.1,0.1-0.1,0.1-0.3,0.1v0.3h0.4c-0.1,0.2-0.3,0.5-0.4,0.7c0.1,0.3,0.1,0.6,0.2,0.8
			c-0.1,0.1-0.2,0.1-0.4,0.2c0.1,0.2,0.3,0.2,0.5,0.4c0.1,0.1,0.1,0.2,0.2,0.3c-0.1,0.1-0.1,0.1-0.3,0.2v0.2
			c0.6,0.1,0.9-0.2,1.6-0.3c0-0.2,0-0.2,0.1-0.3c0.1-0.2,0.2-0.2,0.5-0.3c0.1-0.4,0.2-0.7,0.4-0.9c-0.1-0.2-0.1-0.2-0.3-0.3
			c0.1-0.3,0.1-0.2,0.2-0.6c-0.7,0-0.9,0.2-1.5,0.3C442.9,263.2,442.9,263.3,443.1,263.2z M429.3,263.9h-0.6c-0.1,0.2,0,0.1-0.1,0.2
			c0,0.7,0,0.9,0.5,1.1c0.2,0.2,0.6-0.5,0.8-0.6C429.7,264.2,429.5,264.1,429.3,263.9z M420.2,265.3c0.1-0.2,0.2-0.3,0.4-0.5
			c-0.1-0.2,0-0.1-0.1-0.2v-0.6c-0.2,0-0.4-0.1-0.7-0.1c-0.1,0.1,0,0-0.2,0.1c-0.1,0.2,0,0.1-0.1,0.2
			C419.4,265,419.7,265.1,420.2,265.3z M430.7,266.1c0.2,0.1,0.8,0.1,1,0.3h0.2v-0.2c0-0.1-0.1-0.3,0-0.6c0.1-0.2,0.2,0,0.3-0.4
			c-0.3,0-0.8-0.1-1-0.3c-0.3,0-0.5,0-0.6,0.1C430.5,265.6,430.7,265.6,430.7,266.1z M430.2,265.5c-0.1-0.1-0.1-0.1-0.3-0.1
			c-0.2,0.5-0.2,1-0.5,1.5c0.1,0.2,0.2,0.3,0.4,0.5c0.2,0,0.4,0,0.6-0.1c0.1,0,0.2-0.1,0.3-0.1c0-0.4-0.2-0.7,0-1
			C430.5,265.8,430.4,265.6,430.2,265.5z M422.6,266.8c0.2,0,0.3,0,0.5-0.1c0.3,0,0.3-0.1,0.6-0.2c0-0.4-0.2-0.8-0.4-1
			c-0.2-0.1-0.3,0.1-0.7,0.2C422.5,266.2,422.4,266.3,422.6,266.8C422.5,266.8,422.5,266.8,422.6,266.8z M428.7,266.5v-0.3
			c-0.2,0-0.2,0-0.3-0.1c-0.6,0.2-0.6,1-0.9,1.5c0.1,0.4,0.2,0.4,0.4,0.6c0.8-0.1,0.8-0.8,1.2-1.2
			C429.1,266.6,429.1,266.6,428.7,266.5z M406.6,267.1c0-0.6-0.3-0.6-0.8-0.6c-0.1,0.2-0.2,0.3-0.4,0.5c0,0.3,0.1,0.3,0,0.5
			c0.1,0.2,0.2,0.2,0.4,0.4c0.4,0,0.4-0.1,0.6-0.2C406.5,267.4,406.5,267.2,406.6,267.1z M413.5,268.1c0.1,0.1,0,0,0.2,0.1
			c0.2-0.2,0.4-0.3,0.6-0.5c0-0.3-0.1-0.5-0.2-0.6v-0.2h-0.5c-0.1,0.1-0.3,0.1-0.4,0.2c-0.2,0.1-0.1,0.1-0.3,0.3
			C413.1,267.8,413.2,267.9,413.5,268.1z M409.9,268.1c0.1-0.1,0.2-0.2,0.5-0.3c-0.1-0.4-0.3-0.4-0.5-0.7h-0.5
			c-0.1,0.1-0.1,0.1-0.3,0.1c0,0-0.1,0.1-0.1,0.1c0.1,0.4,0.2,0.4,0.2,0.7C409.5,268.1,409.7,268.1,409.9,268.1z M404,267.9
			c-0.1,0.2,0,0.1-0.1,0.2c0,0.5,0.1,0.7,0.4,0.9c0.1,0.1,0.2,0,0.5-0.1c0-0.2,0.1-0.3,0.2-0.5c-0.1-0.3-0.1-0.3-0.2-0.6L404,267.9
			L404,267.9z M407.6,270.3c-0.1-0.2-0.1-0.2-0.1-0.2c-0.5-0.1,0-0.4-0.6-0.6c-0.1,0.2-0.2,0.3-0.5,0.4c0,0.6,0.1,0.7,0.4,1
			C407.2,270.9,407.3,270.6,407.6,270.3z M413.8,270.5c0.2,0,0.3,0,0.4-0.1c0.5,0,0.5-0.1,0.7-0.3V270c-0.4-0.2-0.6-0.3-1.1-0.4
			C413.8,269.9,413.7,270.2,413.8,270.5z M409.8,270.1c0.2,0.4,0.3,0.7,0.6,1c0.3-0.1,0.3-0.1,0.5-0.3c0.2,0.1,0.2,0.4,0.4,0.6
			c0.5,0,0.5-0.2,0.8-0.4c0-0.3,0-0.5-0.1-0.6c-0.3-0.5-0.7-0.1-0.9,0.1c-0.1-0.2-0.1-0.5-0.2-0.7c-0.2,0-0.4-0.1-0.6-0.1
			C410.1,269.9,410,270,409.8,270.1z M416.6,270.2c0-0.2,0-0.2-0.1-0.4c-0.4,0-0.4,0-0.8,0c-0.2,0.5,0,0.6,0.2,1
			C416.5,270.8,416.3,270.6,416.6,270.2z M455.7,270.9L455.7,270.9c0,0.2-0.1,0.1,0,0.2c0.3,0.3,1,0.2,1.3,0.3
			c0.1-0.1,0.1-0.1,0.2-0.2c-0.1-0.4-0.2-0.7-0.5-0.9C456.2,270.5,455.9,270.3,455.7,270.9z M401.8,271c-0.2,0.2-0.4,0.6-0.6,0.7
			c0.1,0.3,0.2,0.5,0.4,0.7c0.1,0.1,0.4,0.1,0.5,0.2c0.5-0.1,0.6-0.4,0.7-0.8c0.1-0.2,0-0.3-0.1-0.5C402.5,271,402.3,271,401.8,271z
			 M409.4,273.6c0.7,0.3,0.6-0.9,0.3-1.3h-0.4c-0.1,0.1-0.2,0.1-0.3,0.2h-0.2C408.9,273.2,409,273.4,409.4,273.6z M455.9,272.7
			c-0.1-0.3-0.1-0.3-0.5-0.4c-0.1,0.1-0.8,0.9-1,1c0,0.5,0.1,0.5,0.3,0.7c0.3,0,0.5,0.1,0.7,0C456.1,273.7,455.4,273.2,455.9,272.7z
			 M411.5,272.5c-0.2,0-0.4-0.1-0.7-0.1c-0.1,0.1-0.3,0.2-0.5,0.3c0,0.6,0.1,0.8,0,1.1h0.1c0.2,0.1,0.6,0,0.8-0.2h0.2
			c0-0.4-0.1-0.3-0.2-0.6c0.1-0.1,0.2-0.1,0.4-0.1C411.5,272.8,411.5,272.7,411.5,272.5z M454.6,272.8c-0.1-0.2,0-0.1-0.3-0.2
			C454.5,272.8,454.4,272.7,454.6,272.8z M452.9,276.1c-0.3,0-0.3,0.1-0.5,0.2c0.1,0.4,0.2,0.4,0.5,0.6
			C453,276.6,452.9,276.5,452.9,276.1z M451.6,277.3c-0.2-0.1-0.5-0.1-0.7-0.1c-0.2,0.7-0.1,1,0.2,1.6c0.2,0.1,0.1,0,0.2,0.1
			c0.7,0,0.7-0.3,1.2-0.5C452.2,278,452.2,277.5,451.6,277.3z M454,278.5c-0.1-0.5-0.2-0.4-0.6-0.5c-0.1,0.3,0,0.3,0.1,0.6
			C453.8,278.6,453.9,278.6,454,278.5z M456.4,279c0-0.7-0.1-0.7-0.6-0.8c-0.1,0.3-0.2,0.3-0.5,0.5c0,0.5,0.1,0.5,0.3,0.7
			c0.4,0,0.6,0,0.8-0.2h0.1C456.5,279,456.4,279,456.4,279z M450.2,278.7v-0.3c-0.7,0.1-0.5,0.3-0.9,0.6c0.1,0.3,0.3,0.4,0.5,0.6
			c0.4,0,0.6-0.1,0.8-0.4c0.1-0.1-0.1-0.2-0.1-0.6L450.2,278.7L450.2,278.7z M450.8,279.2h0.3V279h-0.3V279.2z M451.5,279.1
			c-0.1,0.1-0.2,0.1-0.3,0.2v0.2c0.3,0,0.3,0,0.5-0.2h0.1C451.7,279,451.8,279.1,451.5,279.1z M453.5,279.3
			c-0.2,0.3-0.5,0.8-0.7,1.1c0.2,0.5,0.6,0.3,0.9,0.6c0.2-0.1,0.4-0.9,0.3-1.2C453.9,279.5,453.8,279.4,453.5,279.3z M457.2,281
			c-0.2,0.5,0,0.7,0.2,1c0.4,0,0.4-0.1,0.6-0.3C458,281.2,457.7,281,457.2,281z M467.3,282c-0.3,0-0.4,0-0.6-0.1
			c-0.1,0.2-0.3,0.3-0.6,0.5c0,0.4,0,0.3,0,0.6c0.5,0.1,0.8,0.1,1.3,0C467.4,282.5,467.3,282.6,467.3,282z M460.7,282
			c-0.1,0.3,0,0.2-0.3,0.3c0,0.5,0.1,0.6,0.5,0.7c0.1,0.1,0,0,0.2,0.1c0.1-0.1,0.3-0.2,0.5-0.3C461.4,282.3,461.2,282.2,460.7,282z
			 M464.5,283.7c-0.2,0.2-0.5,0.3-0.7,0.5c0,0.3,0,0.6-0.1,1c0.5,0,0.7-0.2,1.1-0.5c0.1-0.4,0-0.5,0-0.9
			C464.7,283.7,464.6,283.7,464.5,283.7z M462.1,284.3h-0.5c-0.1,0.2-0.2,0.3-0.4,0.5c0.1,0.8,0.6,0.5,1.1,0.8h0.2
			c0-0.2,0.1-0.4,0.1-0.6C462.4,284.7,462.2,284.5,462.1,284.3z M458,284.4c-0.1,0.1-0.2,0.2-0.4,0.3c0,0.5,0.1,0.5,0.3,0.7
			c0.3,0,0.5,0,0.7-0.1c0.1-0.2,0-0.1,0.1-0.2c0-0.5-0.2-0.5-0.4-0.7L458,284.4L458,284.4z M456.1,284.9h-0.3c0,0.1-0.1,0.2-0.1,0.3
			c0.1,0.1,0.2,0.1,0.4,0.1L456.1,284.9L456.1,284.9z M464.3,285.5c-0.2,0.1-0.5,0.2-0.7,0.4c0,0.2-0.1,0.3-0.1,0.5
			c0.3,0,0.5,0,0.6-0.2c0.1-0.1,0.2-0.2,0.3-0.3C464.3,285.7,464.4,285.7,464.3,285.5L464.3,285.5z M465.7,285.5h-0.4
			c-0.1,0.1-0.2,0.1-0.3,0.2c0.1,0.1,0.2,0.2,0.3,0.4c0.2,0,0.3-0.1,0.5-0.1c0-0.2,0-0.2-0.1-0.3V285.5z M457,287
			c0-0.3,0.1-0.6,0.1-0.8h0.4v-0.3c-0.3-0.1-0.2-0.1-0.4-0.2c-0.1-0.1-0.5,0.1-0.7,0.2c-0.1,0.3-0.4,1.7-0.3,1.8v0.2
			c0.2,0,0.3,0,0.5,0.1c0.5-0.1,0.7-0.2,0.9-0.6C457.6,287.2,457.3,287,457,287z M455.4,286h-0.5c-0.6,0.8-0.6,0.6,0.1,1.3
			c0.5,0,0.5-0.1,0.7-0.3c0-0.3,0-0.5-0.1-0.6C455.6,286.1,455.5,286.1,455.4,286z M460.1,286.9v0.6c0.2,0,0.4,0.1,0.5,0.1
			c0.1-0.3,0.2-0.7,0.2-1c-0.2,0-0.2,0-0.3,0.1C460.3,286.7,460.3,286.8,460.1,286.9z M462.5,287.3c0.2-0.1,0.1,0,0.2-0.1
			c0.2-0.1,0.1,0,0.2-0.1c-0.1,0-0.2-0.1-0.4-0.1L462.5,287.3L462.5,287.3z M364,295c-0.2-0.1-0.4,0.1-0.8,0.1v0.3
			c-0.3-0.1-0.5-0.3-0.7-0.1c-0.3,0.1-0.2,0-0.3,0.3H362c0.1,0.3,0.2,0.3,0.3,0.6c0.6,0.2,1.8,0.7,2-0.1
			C364.5,295.8,364.2,295.2,364,295z M444,295.5h-0.5v0.2c0.2,0,0.3,0,0.4,0.1C444,295.7,444,295.7,444,295.5z M439.6,299.2
			c0.3-0.1,0.9-0.4,1.2-0.2c0.2-0.1,0.1,0,0.2-0.3h-0.4v-0.2c0.2-0.1,0.3-0.1,0.6-0.2c0-0.2,0-0.3,0.1-0.5c0.1-0.1,0.3,0.1,0.6,0.2
			c0.3-0.3,1.5-1,1.9-1c0-0.3,0-0.4,0.2-0.6c0-0.5-0.1-0.4-0.3-0.6c-0.6,0.2-0.4,0.2-1.2,0.2v0.3c-0.4,0.2-0.5,0.2-1,0.2
			c0.1,0.2,0.1,0.3,0.3,0.4c-0.1,0.3-0.1,0.2-0.2,0.6c-0.1-0.1-0.1-0.2-0.1-0.4c-0.3,0-0.8-0.1-1.1,0.2c0,0.1,0,0.3,0,0.6
			c-0.2-0.1-0.1,0-0.2-0.1c-0.5,0-0.7,0-0.8,0.4c-0.1,0.1,0.2,0.9,0.3,0.9V299.2z M360.1,297.2c-0.2-0.3-0.4-0.6-0.6-0.8h-0.4
			c-0.1,0.1-0.2,0.1-0.4,0.1c-0.1,0.2-0.1,0.4,0,0.6c0.1,0.2,0.1,0.2,0.3,0.4C359.3,297.6,359.7,297.2,360.1,297.2z M362.7,299
			c0-0.5-0.1-1.1-0.4-1.4c-0.2-0.4-1.5-0.7-1.9-0.4h-0.2c-0.1,0.5,0,0.7,0.1,1.1c1,0.1,1.2,0.8,1.9,1.2
			C362.4,299.4,362.5,299.2,362.7,299z M436.9,298.8c0.5,0,0.8-0.1,1-0.4h0.1c0,0.2,0,0.2-0.1,0.3v0.2c0.2-0.1,0.1,0,0.2-0.1
			c0.2,0.1,0.3,0.4,0.4,0.6c0.3,0,0.5,0,0.6-0.2h0.2c-0.1-0.8-0.6-1-1.1-1.2c0-0.2,0-0.2,0.1-0.4c-0.4-0.2-0.7-0.4-1.2-0.5
			c-0.1,0.1-0.2,0.1-0.4,0.2c0.1,0.3,0,0.6,0.1,0.8C436.8,298.5,436.9,298.7,436.9,298.8z M433.5,299.1
			C433.5,299.1,433.6,299.2,433.5,299.1c0.7,0.1,0.9-0.1,1.2-0.4c0-0.6-0.2-0.5-0.4-0.9h-0.5c-0.1,0.2-0.3,0.3-0.5,0.4
			C433.6,298.5,433.5,298.6,433.5,299.1z M368,299.2h0.4c0.1-0.4,0.2-0.7,0.3-1.1c-0.6,0-0.6-0.2-1.3,0
			C367.4,298.9,367.7,298.8,368,299.2z M359.5,298.4h-0.6c-0.5,1,0.4,1.4,1.2,1.7c0.1-0.1,0.1-0.1,0.2-0.2c0-0.2,0-0.3-0.1-0.4
			C360.1,298.9,359.8,298.8,359.5,298.4z M435.6,300.6c0.2-0.2,0.5-0.4,0.8-0.5c0-0.2,0-0.2-0.1-0.3c0-1.1-0.2-0.4-0.6-1.2
			c-0.2,0-0.3-0.1-0.5-0.1c-0.1,0.1,0,0-0.2,0.1c-0.1,0.5-0.3,1.3,0,1.7C435.2,300.5,435.3,300.5,435.6,300.6z M430.1,300
			c0.1-0.3,0.2-0.6,0.4-0.8c-0.1-0.2-0.4-0.3-0.6-0.4c-0.2,0.2-0.5,0.3-0.9,0.3c0.1,0.3,0.2,0.4,0.3,0.8
			C429.6,300,429.6,300.1,430.1,300z M431.5,300.4c0.5,0,0.5-0.2,0.7-0.4c0-0.2,0-0.3,0.1-0.4c-0.1-0.5-0.2-0.4-0.4-0.6h-0.4
			c-0.1,0.1-0.3,0.3-0.5,0.4c0,0.4,0.1,0.6,0.2,0.9C431.5,300.3,431.4,300.3,431.5,300.4z M442.1,300.6h0.8c0-0.6-0.2-0.5-0.5-0.8
			c-0.1-0.1,0-0.1,0-0.4h-0.3c0-0.1,0.1-0.2,0.1-0.4c-0.5,0.1-0.3,0.4-0.6,0.6c-0.4-0.2-0.6,0.3-0.9,0.5c0,0.4,0.2,0.5,0.3,1
			c0.4-0.1,0.4-0.2,0.6,0c0.2-0.1,0.2-0.2,0.5-0.3L442.1,300.6L442.1,300.6z M443,299.1c0,0.2-0.1,0.3-0.1,0.5
			c0.1,0.1,0.3,0.3,0.4,0.5c0.2,0,0.3-0.1,0.5-0.1c-0.1-0.3-0.2-0.5-0.4-0.8L443,299.1L443,299.1z M370,299.5
			c-0.2,0.2-0.3,0.3-0.6,0.4c0.1,0.5,0.5,0.5,0.6,0.9c0.2,0,0.3,0,0.4-0.1h0.2c0.1-0.2,0-0.1,0.1-0.2
			C370.8,299.8,370.6,299.6,370,299.5z M364.6,300.9c0.2,0,0.3,0,0.4-0.1c0.1-0.2,0.1-0.4,0.2-0.7c-0.1-0.1-0.2-0.3-0.3-0.6h-0.5
			c-0.1,0.3-0.1,0.8,0.1,1.1C364.5,300.7,364.6,300.8,364.6,300.9z M427.5,301c0.2-0.1,0.5-0.4,0.6-0.6c0,0,0.1-0.1,0.1-0.1h-0.1
			c-0.1-0.3-0.4-0.5-0.7-0.6c-0.1-0.1-0.2-0.1-0.4-0.1c-0.1,0.1-0.3,0.3-0.5,0.4c0,0.1-0.1,0.2-0.1,0.3c0.2,0.1,0.3,0.3,0.4,0.6
			C427.1,300.9,427.4,300.9,427.5,301z M424.8,299.9c0,0.2,0,0.2-0.1,0.3c0.2,0.4,0.5,0.4,0.7,0.7c0.2-0.1,0.2-0.1,0.4-0.2
			c0-0.4-0.1-0.7-0.3-0.9C425.3,299.8,425.2,299.9,424.8,299.9z M428.8,302.4L428.8,302.4c0.4,0,0.6-0.2,0.7-0.6h0.6
			c0-0.6-0.1-0.8-0.2-1.3c0,0-0.1-0.1-0.1-0.1c-0.7,0-0.6,0.4-1.1,0.7c0.1,0.2,0.4,0.3,0.6,0.4C429.2,301.9,429.1,302.2,428.8,302.4
			z M435.4,301.6C435.4,301.5,435.4,301.5,435.4,301.6c-0.2-0.5-0.1-0.4,0-0.7c-0.1-0.1-0.2-0.2-0.4-0.4c-0.6,0.2-0.2,0.7-0.7,1
			c0,0.3,0,0.5,0.2,0.6v0.2c0.5,0,0.5-0.2,0.8,0h0.2c0.1-0.3,0.1-0.4,0.2-0.7L435.4,301.6L435.4,301.6z M436.2,301.4
			c0,0.5,0.1,0.6,0.2,0.9c0.4-0.1,0.6-0.3,0.9-0.5v-0.5c-0.4-0.1-0.5-0.2-0.6-0.6c-0.1,0.1-0.2,0.1-0.4,0.2
			C436.3,301.1,436.2,301.3,436.2,301.4z M363,301.1c-0.2,0.3,0,0.4-0.2,0.6c0.1,0.4,0.3,0.3,0.5,0.6c0.3,0,0.3-0.1,0.6-0.2
			c0-0.6-0.1-0.9-0.3-1.2C363.5,301,363.2,301,363,301.1z M443.7,301.4c-0.3-0.6-1.1,0-1.7,0c0,0.4,0.1,0.5-0.1,0.7
			c0.1,0.2,0.2,0.2,0.3,0.5h0.7c0-0.2,0-0.2,0.1-0.3l0.1-0.1c0.4,0.6,0.7,1.4,1.7,1.3c0,0,0.1-0.1,0.1-0.1c0-0.6-0.1-0.7-0.3-1
			c-0.4,0-0.6,0-0.7,0.1h-0.2C444.1,301.8,443.5,301.9,443.7,301.4z M439.4,303c0-0.1,0.1-0.2,0.1-0.3c-0.3-0.3-0.2-0.5-0.6-0.6
			v-0.6c-0.2,0-0.3-0.1-0.5-0.1c-0.1,0.1-0.2,0.1-0.3,0.2c0,0.3,0,0.5,0,0.6c0.2,0.3,0.4,0.2,0.6,0.4c0.1,0.2,0,0.1,0,0.3
			C439,302.8,439.2,302.9,439.4,303z M450.7,302.4c0.3,0.2,0.5,0.5,0.9,0.6c-0.1,0.1-0.2,0.4-0.3,0.6c-0.3,0.4-1,0.1-1.1,0.7
			c-0.3-0.1-0.2-0.1-0.6-0.2c0.1,0.7,0.8,1,1.3,1.4c0.4-0.1,0.4-0.3,0.6-0.5c0-0.4,0-0.6-0.1-0.8c0,0,0.1-0.1,0.1-0.1
			c0.2,0,0.4,0.1,0.6,0.1c0-0.6-0.1-0.7-0.5-0.9c0.1-0.4,0.2-0.6,0.4-0.9c-0.1-0.1-0.2-0.3-0.3-0.5c-0.5-0.1-0.7,0.1-1.2,0.2
			L450.7,302.4L450.7,302.4z M449.3,303.8c0.3-0.1,0.6-0.2,0.9-0.3c-0.1-0.6-0.4-0.7,0-1c-0.1-0.2-0.1-0.2-0.2-0.4h-0.6
			c-0.1,0.2-0.3,0.3-0.6,0.4C448.9,303.7,449.1,303.1,449.3,303.8z M433.5,303.2c0.1,0,0.2-0.1,0.3-0.1c-0.1-0.3-0.1-0.6-0.2-0.9
			c-0.4,0.1-0.6,0.2-1,0.4c-0.1,0.3,0,0.5,0,0.8C433,303.4,433.3,303.4,433.5,303.2z M445.3,304.1c0,0.5,0.1,0.6,0.5,0.7
			c0.2,0.1,0.7-0.1,0.8-0.5c0.1-0.3-0.2-0.3-0.4-0.6c-0.1-0.1,0.2-0.4,0.4-0.6c0-0.4-0.1-0.6-0.3-0.8c-0.2-0.2-0.5-0.1-0.8-0.2
			c0,0.7,0.1,1,0.6,1.3C445.9,303.7,445.5,303.9,445.3,304.1z M375.8,302.4c-0.4-0.1-0.5,0-0.9,0c0,0.5,0,0.6,0,1
			c0.2,0.1,0.1,0,0.2,0.1c0.4,0,0.4-0.2,0.7-0.3c0.1-0.2,0.1-0.4,0-0.6L375.8,302.4L375.8,302.4z M365.9,302.6
			c-0.4,0.1-0.3-0.1-0.3,0.3h-0.1c0-0.1-0.1-0.2-0.1-0.4c-0.7,0.1-0.5,0.4-0.9,0.7c0.1,0.5,0.3,0.4,0.6,0.6c0.7,0,0.6-0.2,1-0.5
			c0-0.3-0.1-0.5-0.2-0.6L365.9,302.6L365.9,302.6z M422.1,303.7h0.2c-0.1-0.7-0.5-0.7-0.6-1.2c-0.3,0.1-0.3,0.1-0.6,0.2
			c0,0.2,0,0.2-0.1,0.3c0.1,0.4,0.3,0.6,0.5,0.9C421.7,303.9,421.9,303.8,422.1,303.7z M423.3,303.7c0.2-0.1,0.3-0.5,0.4-0.8
			c-0.2-0.1-0.3-0.2-0.5-0.4h-0.4c-0.1,0.2-0.2,0.3-0.5,0.4c0.1,0.4,0.2,0.6,0.4,0.9C423,303.8,423.2,303.8,423.3,303.7z M430,302.9
			c0.2,0,0.3,0.1,0.5,0.1c0-0.2,0-0.3,0.1-0.4v-0.1c-0.3,0.1-0.3,0.1-0.6,0.2C430,302.7,430,302.8,430,302.9z M428.2,303
			c0.3-0.1,0.3-0.1,0.1-0.3C428.2,302.8,428.2,302.9,428.2,303z M440.8,303.1c0,0.6,0,0.7,0,1.2c0.5,0,0.3,0.1,0.8,0.2
			c0.1-0.6,0-0.9-0.4-1.4C441.1,303.1,441.1,303.1,440.8,303.1z M361.2,303.6v0.4c-0.4-0.2-0.9-0.4-1.1-0.7c-0.5,0-0.5,0.2-0.8,0.4
			c0,0.8,0.2,1,0.6,1.4l1,0.3c0.1,0,0.3-0.3,0.5-0.4c0.4-0.1,0.5,0,0.7-0.2c0.1,0.1,0.1,0.2,0.1,0.5c0.2-0.1,0.2-0.1,0.3-0.3
			c0.2,0.1,0.2,0,0.3,0.2c0.2-0.1,0.3-0.3,0.6-0.5c-0.1-0.6-0.4-0.8-0.6-1.2C361.9,303.5,362,303.6,361.2,303.6z M438.9,304.5
			c-0.2-0.1-0.3-0.3-0.4-0.5c-0.3-0.1-0.5-0.2-0.9-0.2c-0.2,0.2-0.4,0.3-0.7,0.4v0.2c0.3,0.1,0.7,0.3,0.9,0.6
			C438.2,304.9,438.6,304.9,438.9,304.5C438.9,304.6,438.9,304.5,438.9,304.5z M432.8,305.2c-0.1-0.4-0.4-0.6-0.7-0.7
			c-0.1,0.1-0.2,0.1-0.3,0.2h-0.2c0,0.2,0,0.3-0.1,0.5c0.2,0.2,0.4,0.2,0.6,0.4c0.4-0.1,0.3-0.1,0.6-0.1
			C432.7,305.2,432.7,305.3,432.8,305.2z M425.2,304.8c-0.3-0.1-0.3-0.1-0.6-0.2c-0.2,0.2-0.3,0.4-0.6,0.6c0.2,0.5,0.6,0.5,0.9,0.8
			c0.2,0,0.3,0,0.5-0.1c0,0,0.1-0.1,0.1-0.1h-0.1C425.4,305.3,425.3,305.1,425.2,304.8z M428.8,306.6v-0.2c-0.2-0.1-0.5-0.3-0.7-0.5
			H428v-0.1c0.3,0.1,0.7,0.2,0.9,0h0.1c-0.1-0.1-0.6-0.1-0.7-0.2c-0.1-0.2-0.1-0.5-0.1-0.6c-0.2-0.2-0.4-0.3-0.6-0.5
			c-0.1,0.2-0.2,0.4-0.4,0.6c0,0.2,0.1,0.3,0.2,0.5c0.2,0.5,0.9,0.5,1.2,0.9L428.8,306.6L428.8,306.6z M449.1,307.1
			c0.3-0.1,0.3-0.1,0.5-0.3c0.2-0.4-0.4-1.2-0.3-2c-0.3,0-0.8,0.1-0.9,0.1c-0.3,0.2-0.1,0.4-0.3,0.8c-0.2,0-0.4,0.2-0.6,0.2
			c-0.6,0.1-0.8-0.4-1.3,0c-0.2,0.3,0,0.4-0.2,0.6c0.1,0.4,0.3,0.4,0.6,0.6c0,0.4,0,0.4,0,0.8c0.3,0.1,0.3,0.1,0.5,0.3
			c0.4-0.1,0.4-0.3,0.8-0.4v-0.1c-0.3-0.2-0.4-0.4-1-0.5c0.1-0.2,0.1-0.1,0.3-0.3h0.1c-0.1-0.2-0.2-0.2-0.4-0.4
			c-0.2-0.1-0.1,0-0.2-0.1c0.5-0.2,1-0.6,1.6-0.7C448.7,306.6,448.7,306.5,449.1,307.1z M444.3,305.5c-0.3-0.3-0.8-0.3-1.2-0.6
			c-0.2,0.3-0.5,0.6-0.8,0.7c0.1,0.4,0.3,0.4,0.4,0.9c0.3-0.1,0.6-0.1,0.8,0c0.7,0,0.6-0.2,1-0.5
			C444.4,305.8,444.4,305.7,444.3,305.5z M421.4,306.8c-0.2-0.8-0.5-1.1-0.7-1.7c-0.2,0-0.3,0-0.4-0.1c-0.3,0.1-0.4,0.3-0.6,0.5
			c0.1,0.4,0.3,0.5,0.5,0.7h0.3c0,0.7,0.2,0.6,0.4,1c0.1-0.1,0.3-0.1,0.4-0.2C421.2,306.9,421.3,306.9,421.4,306.8z M365.4,305.3
			v0.2c0.1,0,0.2,0.1,0.3,0.1c0.1-0.2,0.1-0.2,0-0.4C365.6,305.3,365.6,305.3,365.4,305.3z M436.3,305.5v0.3c-0.2,0-0.2,0-0.3,0.1
			c-0.1,0.1,0,0.1-0.1,0.3c0.1,0.5,0.3,0.5,0.5,0.8c0.3,0,0.4-0.1,0.6,0h0.2c0-0.3,0-0.6-0.2-0.9c-0.1-0.3-0.3-0.3-0.5-0.6
			L436.3,305.5L436.3,305.5z M433.9,306.9c-0.1-0.5-0.2-0.4-0.5-0.7h-0.3v-0.4H433c-0.1,0.3-0.1,0.6-0.4,0.7c0,0.2,0,0.2,0.1,0.3
			c0,0.1,0.1,0.2,0.1,0.3h1C433.8,306.9,433.8,307,433.9,306.9z M417.3,306.1c-0.5,0.1-0.7,0.3-1.3,0.4c0-0.2,0-0.2-0.1-0.3
			c-0.2-0.4-0.5-0.2-0.9-0.2c0.1,0.4,0.2,0.8,0.1,1v0.1c0.7,0,1.6-0.5,2-0.8h0.2L417.3,306.1L417.3,306.1z M369.3,307.8
			c0.2,0,0.3,0,0.5-0.1c0.1-0.3,0.2-0.6,0-0.8c-0.1-0.3-0.2-0.2-0.5-0.4c-0.2,0-0.3,0-0.5,0.1c-0.1,0.4,0,0.7,0,1.1
			C369.1,307.7,369.2,307.7,369.3,307.8z M439.3,306.6c-0.2,0-0.3-0.1-0.5-0.1c-0.1,0.1-0.2,0.1-0.4,0.2c-0.1,0.8,0.1,1.1,0.1,1.8
			c0.2-0.1,0.4-0.2,0.5-0.3c0.4-0.1,0.7,0.2,1,0C440.3,307.8,439.5,307.2,439.3,306.6z M450.3,306.9c-0.4,0.1-0.5,1.2-0.5,1.7
			c0.6-0.1,0.9-0.3,1.4-0.6c0-0.2,0-0.2-0.1-0.3c-0.2-0.1-0.1,0-0.3,0c0-0.3,0.1-0.1,0-0.3c-0.1-0.2-0.1-0.1-0.4-0.2V307
			C450.4,306.9,450.4,307,450.3,306.9z M371.8,307.1v0.4c-0.2,0-0.4,0.1-0.6,0.1c0,0.5,0,0.6-0.3,0.8c0.3,0.2,0.5,0,0.8,0.3
			c0.2,0,0.3,0,0.4-0.1c0.3-0.4,0.2-1,0.3-1.3c-0.1,0-0.4-0.1-0.5-0.2L371.8,307.1L371.8,307.1z M430.1,307.4
			c-0.1-0.2,0-0.1-0.2-0.2c-0.2,0.2-0.3,0.4-0.5,0.6v0.2C429.9,307.9,429.8,307.6,430.1,307.4z M453.5,308.4
			c0.1-0.2,0.1-0.4,0.3-0.6c0-0.2,0-0.2-0.1-0.4c-0.3,0-0.6-0.1-0.8-0.1c-0.1,0.2-0.2,0.4-0.5,0.6c0,0.3,0,0.6,0.1,0.7
			C452.6,308.7,453.2,308.5,453.5,308.4z M417.8,308.8h0.5c0.1-0.5,0.1-0.7,0.2-1.2c-0.6-0.1-0.7-0.1-1.2,0c0,0.3,0.1,0.8,0.2,0.9
			v0.2C417.6,308.8,417.7,308.8,417.8,308.8z M442.2,308.5c0.1,0.3,0.1,0.4,0.5,0.5c0.2,0.1,0.5,0.1,0.8,0.1
			c0.1-0.8,0.1-0.6-0.1-1.4c-0.3,0.1-0.6,0.1-0.8,0.2c0,0.3-0.1,0.4,0,0.6v0.1H442.2z M422.3,308.5c-0.1,0-0.6,0.1-1.1,0.1
			c0,0.3,0.1,0.4,0,0.5c0.1,0.1,0.5,0.3,0.7,0.5v0.2c-0.5-0.2-0.7-0.1-1.1,0.2c0,0.5,0.1,0.5,0.4,0.7c0,0,0.1,0.1,0.1,0.1v-0.1
			c0.9,0,1.1-0.8,1.5-1.4C422.8,308.7,422.7,308.6,422.3,308.5z M411.8,308.5c-0.3,0.2-0.2,0.3-0.1,0.6c-0.4,0.2-0.7,0.5-1.1,0.6
			v0.2c0.3-0.1,0.6-0.3,0.8-0.6c0.3,0.1,0.6,0.3,0.7,0.6c0.3-0.1,0.4-0.1,0.6-0.3c0.1-0.3-0.2-0.5-0.3-1
			C412,308.7,412,308.8,411.8,308.5z M435.9,308.7c-0.2,0.5,0,1-0.2,1.3c0.1,0.2,0,0.1,0.1,0.2c0.1,0.1,1.2-0.1,1.7,0.3h0.1
			c0-0.5-0.1-0.8-0.3-1.2C436.9,309,436.5,308.7,435.9,308.7z M371,309.1c-0.2,0.4-0.2,0.5,0,0.9c0.3,0.1,0.3,0,0.5,0.2
			c0.3,0,0.4,0,0.5-0.1c0-0.3,0-0.6-0.1-0.7C371.7,309.2,371.4,309.1,371,309.1z M430.1,309.3c-0.1-0.1-0.2-0.1-0.5-0.1
			c-0.1,0.2,0,0.1-0.1,0.2c0.1,0.5,0.2,0.7,0.5,0.9c0.1,0.1,0,0,0.2,0.1c0.1-0.1,0.2-0.2,0.4-0.4c0-0.3-0.1-0.3,0-0.4
			C430.5,309.4,430.4,309.4,430.1,309.3z M449.2,309.7c0,0.5,0.1,0.6,0.4,0.9c0.5-0.1,0.5-0.3,0.7-0.6c0-0.5-0.1-0.4-0.4-0.7h-0.4
			C449.5,309.4,449.4,309.5,449.2,309.7z M407.1,309.7c0.2,0.1,0.1,0,0.2,0.1c0.1-0.1,0.1-0.1,0.2-0.2v-0.2h-0.4V309.7z
			 M445.5,309.7c-0.1,0.1-0.1,0.2-0.2,0.3c0,0.4,0.2,1,0.4,1.3v0.1c0.3-0.1,0.4-0.2,0.6-0.4C446.4,310.1,446.3,309.7,445.5,309.7z
			 M363.4,309.9c-0.3,0-0.6-0.1-0.9-0.1c-0.1,0.2,0,0.1-0.1,0.2c0,0.9,0.2,0.8,0.7,1.1V311c0.3-0.1,0.4-0.5,0.6-0.7
			C363.5,310.2,363.5,310.2,363.4,309.9z M365.1,309.8c-0.3,0.3-1,0.7-1.3,0.6c0.1,0.5,0.3,0.5,0.6,0.8c0.8,0,1.1-0.1,1.7-0.4
			c0-0.3,0.1-0.4,0-0.5C365.8,310.2,365.3,310,365.1,309.8z M444.5,310.9c0-0.7-0.3-0.8-0.8-0.9c-0.1,0.2-0.3,0.4-0.5,0.6
			c0,0.7,0.2,0.6,0.5,1C444.3,311.5,444.2,311.3,444.5,310.9z M369.8,310.7c-0.2-0.1-0.6,0.1-0.7,0.4c-0.1,0.1,0,0.1,0,0.4h-0.5
			c0.1-0.3,0.1-0.3,0.3-0.5c-0.1-0.5-0.4-0.5-0.7-0.8c-0.4,0.1-0.3,0.2-0.6,0.5c0,0.3,0,0.2,0.2,0.4c-0.1,0.2-0.3,0.2-0.6,0.3
			c-0.1,0.1-0.1,0.3-0.2,0.4c0.3,0.8,1.3,0.6,1.6,1.4h0.3c0.1,0.3,0.1,0.3,0.2,0.6c0.2-0.1,0.1,0,0.2-0.1c0.1-0.1,0.1,0,0-0.2v-1.6
			c0.1,0.1,0.1,0.1,0.2,0.2c0.7-0.1,0.5-0.4,1.1-0.5C370.5,311.1,370.2,310.8,369.8,310.7z M405.7,310.4c0,0.5-0.1,0.5-0.4,0.6
			c0.1,0.1,0.2,0.2,0.4,0.4v0.1c0.3-0.1,0.5-0.3,0.8-0.4c-0.1-0.4-0.2-0.5-0.4-0.7L405.7,310.4L405.7,310.4z M415.7,311.2
			c-0.4,0.1-0.4,0.2-0.7-0.1c-0.4,0-0.5,0.1-0.8,0.2c0.1,0.5,0.3,0.6,0,0.8v0.2c0.2-0.1,0.4-0.3,0.5-0.2c0.3,0.2,0.1,0.2,0.1,0.6
			c0.4-0.2,0.7-0.5,1-0.7C415.6,311.4,415.6,311.8,415.7,311.2z M434.3,313.1c0.2-0.2,0.4-0.3,0.6-0.5c0-0.4,0.1-0.5,0-0.7
			c-0.5-0.2-0.9-0.5-1.6-0.5c0.1,0.8,0.6,0.9,0.7,1.6C434.2,313,434.2,313,434.3,313.1z M413.9,312.2c-0.1,0.1,0,0-0.2,0.1v0.2
			c0.2-0.1,0.1,0,0.2-0.1h0.1C414.1,312.2,414,312.3,413.9,312.2z M430.8,313.1c0,0.2,0.1,0.5,0.1,0.7c0.2,0.1,0.4,0.2,0.7,0.2
			c0-0.4,0.1-0.4,0.3-0.6c0-0.5-0.1-0.6-0.3-0.9C430.9,312.5,431.3,312.8,430.8,313.1z M450.1,312.9c0,0.6,0.2,0.7,0.5,1.1
			c0.4-0.1,0.6-0.2,0.8-0.4c0-0.4-0.1-0.6-0.2-0.8c-0.4,0-0.4,0-0.6-0.1C450.4,312.8,450.2,312.8,450.1,312.9z M444.2,313.6
			c0,0.3,0.1,0.6,0.1,0.9c0.5,0,0.8,0.2,1.1-0.1c0.1-0.2-0.1-0.2,0.2-0.4C445.4,313.1,444.8,313.5,444.2,313.6z M367.4,313.4
			c-0.1,0.2-0.2,0.3-0.4,0.5c0,0.4,0.1,0.4,0.2,0.6c0.3,0,0.6,0,0.8,0.2c0.3-0.1,0.2-0.1,0.5-0.3c-0.1-0.3-0.2-0.6-0.4-0.9
			C367.9,313.5,367.8,313.4,367.4,313.4z M454.2,315c0.5,0,0.5-0.2,0.9-0.3c-0.1-0.4-0.4-0.8-0.6-1c-0.1-0.1-0.1-0.1-0.3-0.1
			c-0.1,0.2-0.3,0.2-0.5,0.3C453.6,314.5,453.8,314.7,454.2,315z M452.5,314.9C452.5,314.9,452.5,315,452.5,314.9
			c-0.1,0.4-0.1,0.7,0,0.9c0.4,0.2,0.5,0.1,1,0.1c0-0.4,0-0.4,0.3-0.6c-0.2-0.2-0.3-0.2-0.5-0.5
			C453.1,314.8,452.8,314.9,452.5,314.9z M452.2,315.6c-0.4-0.1-0.6-0.3-0.8-0.6c-0.2,0-0.3,0-0.4,0.1c-0.4,0.1-0.3,0.2-0.6,0.4v0.4
			c0.3,0.1,0.3,0.1,0.5,0.2c-0.1,0.1-0.3,0.2-0.5,0.3v0.2c0.3,0,0.5,0,0.6,0c0.3-0.1,0.5-0.3,0.7-0.5c0.1-0.1,0.1-0.1,0.1-0.3h0.4
			L452.2,315.6L452.2,315.6z M450.5,317.4c-0.2,0.1-0.5,0.2-0.8,0.2c0.1,0.3,0.4,0.5,0.6,0.8c0.4,0,0.5,0,0.6-0.2
			c0.1-0.1,0.1-0.4,0.1-0.6c-0.1-0.1-0.1-0.1-0.2-0.2H450.5z M443.7,318.1c-0.1-0.3-0.2-0.3-0.4-0.6h-0.6c-0.1,0.1-0.2,0.3-0.3,0.4
			c0,0.1-0.1,0.2-0.1,0.3c0.2,0.2,0.3,0.4,0.5,0.6c0.3-0.1,0.6-0.1,0.9-0.2C443.7,318.4,443.6,318.3,443.7,318.1z M448.2,321.6
			c0,0.1,0.1,0.4,0.2,0.6c0.2,0.3,0.2,0.1,0.5,0.1v0.9c0.7,0,0.7-0.2,1-0.5c0-0.8-0.5-0.8-0.8-1.4
			C448.6,321.4,448.5,321.5,448.2,321.6z M452.1,323.4c0.1,0.2,0.2,0.3,0.3,0.5c0.2,0.1,0.4,0.2,0.6,0.2c0-0.4,0-0.4,0.3-0.6
			c0-0.2,0-0.3-0.1-0.4v-0.2c-0.3,0-0.4,0.1-0.5,0C452.3,323,452.3,323.2,452.1,323.4z M440.9,323.4c-0.2,0.3-0.6,0.3-0.8,0.5h-0.1
			v0.2c0.2,0,0.3,0,0.5-0.1c0.1,0,0.4,0.3,0.5,0.6c0.7,0,0.7-0.4,1.1-0.7v-0.2c-0.2,0-0.4,0.1-0.6,0.1
			C441.2,323.6,441.5,323.4,440.9,323.4z M429,323.6c-0.4,0-0.8,0.2-0.9,0.5c-0.1,0.1,0,0-0.1,0.2c0.2,0.2,0.3,0.4,0.5,0.6
			c0.6,0,0.7-0.3,0.9-0.7c-0.1-0.1-0.2-0.1-0.4-0.2L429,323.6L429,323.6z M452.4,328.1c-0.3,0.2-0.1,0.4-0.3,0.6
			c0.1,0.3,0.3,0.5,0.5,0.7c0.5-0.1,0.6-0.4,0.7-0.8c0-0.1,0-0.3,0-0.5C452.9,328.1,452.5,328.1,452.4,328.1z M442.6,331.6
			c0.1,0.5-0.1,1.1-0.5,1.4c0.3,0.4,0.8,0.3,1.3,0.6h0.3c-0.2-0.9-0.8-1-0.8-1.8C442.8,331.7,442.7,331.7,442.6,331.6z M427.1,335.8
			c-0.1-0.1,0-0.1-0.2,0c-0.4,0.1-0.4,0.2-0.6,0.4c0,0.5,0.1,0.6,0.3,0.9c0.7,0,0.7-0.2,1.3-0.3
			C427.8,336.2,427.5,335.9,427.1,335.8z M284.1,344.1h0.2v-0.2h-0.5C283.8,344,283.9,344.4,284.1,344.1z M425.9,359.6
			c-0.2,0.5,0,0.7,0.2,1c0.2,0,0.4,0,0.6-0.1c0.2-0.2,0.1-0.3,0.3-0.6C426.7,359.6,426.4,359.5,425.9,359.6z M434.5,360.9
			c-0.1,0.1-0.4,0.2-0.6,0.3h-0.2c0.1,0.8,0.5,0.7,0.9,1.1c0.2-0.1,0.3-0.6,0.4-0.9c-0.1-0.1-0.2-0.2-0.3-0.5L434.5,360.9
			L434.5,360.9z M418.4,409.2c0.2,0.1,0.1,0,0.2,0.1c0.2,0,0.2,0,0.4-0.1c0-0.2,0-0.2-0.1-0.3v-0.2h-0.5L418.4,409.2L418.4,409.2z
			 M424.1,410.7h-0.4v0.5h0.6C424.3,410.9,424.2,410.9,424.1,410.7z M423.8,411.7c-0.3,0.8,0.2,0.8,0.6,1.2c0.3-0.1,0.3-0.1,0.6-0.3
			c0-0.5-0.2-0.5-0.4-0.8C424.3,411.7,424.1,411.7,423.8,411.7z M423.5,412.8c-0.3,0-0.5,0-0.7-0.1c-0.1,0.2-0.1,0.2-0.3,0.3
			c0,0.3-0.1,0.6-0.1,0.9h0.3c-0.1,0.2,0,0.1-0.1,0.2v0.2c0.5-0.1,0.7-0.3,1.2-0.4c0-0.3,0-0.4,0.1-0.6
			C423.7,413.2,423.6,413.1,423.5,412.8z M419.3,415.6c-0.1-0.3-0.2-0.5-0.4-0.7c-0.2,0-0.4-0.1-0.7-0.1c-0.1,0.2-0.3,0.2-0.4,0.3
			c-0.2,0.3,0.1,0.4-0.3,0.6c0.3,0.4,1,0.3,1.2,0.6h0.4C418.9,416,418.9,415.8,419.3,415.6z M413.2,415.3v0.6h0.3
			c0-0.2,0.1-0.3,0.1-0.5c-0.1-0.1,0,0-0.1-0.2L413.2,415.3L413.2,415.3z M419.6,415.9c-0.1,0.1-0.2,0.1-0.3,0.2h-0.2
			c0.1,0.3,0.1,0.3,0.3,0.5c0.1,0.1,0,0,0.2,0.1c0.1-0.1,0.2-0.1,0.3-0.2C419.9,416.1,419.9,416,419.6,415.9z M409.9,418.5
			c0-0.2,0-0.3-0.1-0.5c-0.3-0.1-0.6,0.1-0.8,0.3v0.4C409.3,418.6,409.5,418.6,409.9,418.5C409.8,418.5,409.9,418.5,409.9,418.5z
			 M411,418.7c-0.3,0.3-0.7,0.8-1.1,1.1c0,0.3,0,0.3,0.2,0.5c0.1,0.2,0.3,0.3,0.5,0.5c0.2,0,0.2,0,0.4-0.1c0-0.3,0-0.6-0.2-0.7
			c0.1-0.4,0.2-0.7,0.6-0.8C411.2,418.8,411.2,418.9,411,418.7z M413,419.9c0,0-0.1-0.5-0.3-0.6c-0.1-0.2-0.3-0.2-0.6-0.3
			c-0.2,0.5-0.5,1.2-0.8,1.7v0.2c0.4-0.1,0.5-0.5,0.7-0.7c0.2-0.1,0.3,0,0.5,0.2C412.9,420.2,412.9,420.2,413,419.9z M414.6,419.6
			c-0.1-0.2-0.3-0.4-0.6-0.5c-0.1,0.1-0.1,0.1-0.3,0.2c0.1,0.7,0.5,0.7,0.8,1h0.3C414.8,420,414.7,419.7,414.6,419.6z M418,420.1
			h0.5v-0.4h-0.6C417.9,419.9,418,420,418,420.1z M408.2,422.1c0.3,0,0.5,0,0.6-0.1c0.1-0.1,0.1-0.1,0.1-0.3h-0.3c0-0.5,0-0.6,0-0.9
			c0,0-0.1-0.1-0.1-0.1c-0.3,0.1-0.3,0.5-0.6,0.6c0.1,0.2,0,0.1,0.1,0.2C408.2,421.8,408.2,422,408.2,422.1z M411.8,422.4
			c0.1,0.2,0.2,0.3,0.3,0.6c0.3-0.1,0.3-0.1,0.5-0.2v-0.6c-0.2,0-0.3,0-0.5,0.1C412,422.3,411.9,422.4,411.8,422.4z M415.6,422.5
			c-0.5,0-0.5,0.2-0.8,0.3c0.1,0.6,0.4,0.7,0.6,1.1h0.6c0-0.4,0.2-0.6,0.1-0.7C416,422.7,415.8,422.7,415.6,422.5z M409.4,425.2
			c0.4,0,0.5,0.1,0.7,0.3c0.2,0,0.3,0,0.4-0.1c0.4-0.5,0-0.8-0.1-1.5C409.6,423.8,409.4,424.4,409.4,425.2z M407.5,425.6
			c0.3-0.1,0.2-0.2,0.4-0.4c0,0,0.3,0.1,0.4,0h0.1c-0.1-0.2-0.4-0.3-0.6-0.4c0-0.2-0.1-0.4-0.1-0.6c0,0-0.1-0.1-0.1-0.1h-0.6
			c-0.2,0.2-0.4,0.4-0.6,0.6c0,0.2,0,0.3,0.1,0.4C406.6,425.7,407.1,425.4,407.5,425.6z M412.7,425.4c0.3,0,0.4,0,0.5-0.1
			c0-0.2,0.1-0.4,0.1-0.6h-0.7C412.7,425.1,412.7,425.3,412.7,425.4z M408.1,427.2c0.1-0.2,0.1-0.3,0.3-0.4c0-0.8-0.2-0.7-0.5-1.1
			c-0.8,0.2-0.9,0.8-1.6,1.1c-0.3,0.1-0.3-0.1-0.6,0c-0.2,0.1-0.4,0.6-0.6,0.7c0,0.8,0.2,0.8,0.6,1.1c0.5-0.1,0.8-0.2,0.8-0.8
			c0.7,0.1,0.9-0.1,1.3-0.4c0.2,0.2,0.3,0.5,0.5,0.7c0.3,0,0.6-0.1,0.9-0.1c0-0.5-0.1-0.5-0.3-0.8
			C408.6,427.2,408.6,427.2,408.1,427.2z M408.8,426.2v0.6c0.5,0,0.7,0.1,1.1,0c0,0,0.1-0.1,0.1-0.1v-0.4h0.3v-0.3
			c-0.4,0-0.7,0-0.9-0.2C409,426,409,426,408.8,426.2z M400.7,433.1h-0.4v0.3h0.1c0.1,0.1,0.1,0.1,0.3,0.1V433.1z M407.2,435.6
			L407.2,435.6c0.2,0,0.1,0.1,0.2-0.2h-0.3C407.2,435.6,407.2,435.5,407.2,435.6z M401.5,436.4h-0.3v0.3h0.3V436.4z"/>
	</g>
</g>
</svg>
