<?xml version="1.0" encoding="utf-8"?>
<!-- Generator: Adobe Illustrator 21.0.0, SVG Export Plug-In . SVG Version: 6.00 Build 0)  -->
<svg version="1.1" id="Calque_1" xmlns="http://www.w3.org/2000/svg" xmlns:xlink="http://www.w3.org/1999/xlink" x="0px" y="0px"
	 viewBox="0 0 841 595" style="enable-background:new 0 0 841 595;" xml:space="preserve">
<style type="text/css">
	.st0{fill:#DADADA;}
	.st1{fill:#1D1D1B;}
</style>
<ellipse class="st0" cx="358.4" cy="425.3" rx="45.7" ry="11.5"/>
<g>
	<g>
		<path class="st1" d="M418.9,323.8c0.2,0,0.2,0,0.3-0.1c0-0.1-0.2-0.4-0.3-0.6c-0.4-1.3-0.6-2-1.8-2.5c-0.6-0.1-1.1-0.1-1.7-0.2
			c-1.8-0.6-4.6-0.3-6.7-0.8h-1.2c-0.7-0.2-1.3-0.5-1.9-0.6c0-1-0.1-1.4-0.6-2c0-0.4,0-0.4,0.3-0.5v-0.2c-0.1,0-0.1-0.1-0.4-0.1
			c0.3-0.6-0.1-1.2,0-1.9c0-0.4-0.2-2.8-0.4-3.6c-0.2-1-0.1-1.8-0.3-2.7c0-0.2,0.1-0.5,0.1-0.7c-0.3-1-0.4-2.5-0.7-3.5v-1.2
			c0-0.2-0.3-0.6-0.3-0.8c0-0.1,0.1-0.2,0.1-0.4c-0.1-0.6-0.1-1.4-0.4-2c0-0.1-0.2-0.4-0.3-0.4c0-0.3,0.1-0.6,0.1-0.9
			c-0.1-0.4-0.2-0.8-0.4-1.2c0.2-1.1-0.1-3.3-0.4-4.4l-0.2-0.4c0-1.2-0.5-3.1-0.9-4.2c-0.1-0.6-0.1-1.2-0.2-1.8
			c-0.3-1.2-0.7-2.8-1-4c-0.1-0.4,0.2-0.8,0-1.3c-0.6-1.8-0.8-3.6-1.3-5.4c-0.2-0.6,0-1-0.2-1.7c-0.6-2.2-0.7-4.3-1.4-6.4
			c-0.1-0.6-0.1-1.2-0.2-1.8c-0.5-1.6-1.1-3.6-1.6-5.2v-0.8c-0.4-1.2-1-2.7-1.4-4v-0.5c-0.1-0.4-0.4-0.8-0.5-1.1V253
			c-0.1-0.3-0.4-0.7-0.5-1v-0.7c-0.6-2-1.4-4.2-2.1-6.1l-0.3-1.3c-0.4-1-0.8-2.2-1.2-3.3c-0.2-0.5-0.9-1.1-1-1.7
			c-0.1-0.4,0.2-0.6,0-1.1c-0.2-0.5-0.7-0.7-0.9-1.3c-0.1-0.2,0-0.4,0.2-0.5v-0.2c-0.2,0.1-0.4,0.1-0.5,0.2
			c-0.2-0.2-0.5-0.3-0.8-0.4c-0.3-0.2-0.5-0.6-0.8-1c-0.5-0.7-1.4-1.1-1.9-1.8c-0.5-0.5-1.2-1.2-1.9-1.1c0.2-1,0.5-1.7,0.6-2.6
			c0.1-0.3-0.1-0.7-0.2-1c0-0.2,0.1-0.4,0.1-0.5c-0.2-1.1-0.3-2.4-0.2-3.3c0.1-0.7-0.2-2.2-0.2-2.5c0.3-1.2,0.3-3.3,0.3-4.4
			c-0.1-1.2,0.1-2.2,0.1-3.5c0-0.2,0.1-0.5,0.1-0.7c-0.1-0.7-0.5-2-0.5-2.6c0-0.4,0-1.1-0.2-1.6c0,0-1-1.9-1-1.9
			c-0.1-0.1-0.3,0-0.4-0.1c-0.1-0.2-0.1-0.4-0.2-0.6c-1.2-1.8-3.3-2.9-5.5-3.8c0-0.3,0.3-1.9,0.4-2.2v-0.4c-0.3,0-0.4,0-0.5-0.2
			c-0.9,0.1-1.3,1.5-1.3,2.5c-0.6-0.2-1.1-0.2-1.6-0.4c0.1-1.2,0.6-2.3,0-3c-0.5,0-0.7,0.3-1.1,0.4c-0.2,0.8-0.4,1.4-0.4,2.2
			c0,0-0.1,0.1-0.1,0.1h-0.8c-0.1-1.2-0.3-2.5-0.4-3.7c-0.2-0.1-0.4-0.2-0.6-0.3c-0.1,0.1-0.4,0.3-0.5,0.4c-0.2,0.8-0.3,2.4,0.2,3.1
			c0,0.3,0,0.6-0.1,0.7c-0.5,0.4-0.6,0-1.2,0.2c-0.5,0.2-1.6,0.5-2.2,0.9c-1.8,1.2-3.1,3.7-3.9,6c-0.1,0.6-0.2,1.2-0.3,1.8
			c-0.2,0.8-0.8,2.6-0.6,3.3c-0.1,0.3-2.3,1.2-2.7,1.9c-0.1,0.3-0.1,0.5-0.2,0.8c-0.5,0.9-0.8,1.3-0.4,2.6c0.1,0.3-0.1,0.7,0.1,1
			c0.1,0.1,0.7,1,0.8,1.1c0.2,0,0.4,0.1,0.5,0.1c0.3,0.2,0.7,0.5,1,0.7c0.2,1.2,0.1,2.5,0,3.7c-0.1,1.1,0.2,2.3,0.1,3
			c-0.1,0.5-0.4,0.6-0.5,1.1h0.3c0,0.4,0,0.9,0.1,1.1c-0.1,0.7-2.1,1.4-2.7,1.9c-1,0.7-1.8,1.6-2.8,2.3c-0.2,0.1-0.2,0.5-0.4,0.6
			c-0.2,0.2-0.7,0.2-0.9,0.4c-0.1,0.1-0.1,0.8-0.1,0.8c-0.3,0.4-0.7,0.4-0.9,0.9h-0.4v0.3h0.3c0.1,0.4,0.2,0.4,0.2,0.8
			c0.4,0.1,0.6,0.1,0.9,0.1c0,0,0.1,0.1,0.1,0.1c-0.1,1-2.6,2.5-3.3,3.4c-0.2,0.3-0.5,0.8-0.7,1.1v0.4c-0.1,0.2-0.5,0.3-0.6,0.5
			c-0.3,0.5-0.4,1-0.7,1.5c-0.1,0.1-0.2,0.1-0.4,0.2c-0.1,0.1,0,0.6,0,0.6c-0.2,0.2-0.6,0.3-0.7,0.5c-0.1,0.1,0,0.5,0,0.5
			c-0.1,0.1-0.3,0-0.4,0.2c0,0.1-0.4,0.8-0.4,0.8c0,0.1,0.1,0.3,0.1,0.4c-0.1,0.1-0.4,0.1-0.4,0.2v0.4c-0.4,0.8-0.7,1.6-1.1,2.4
			c-0.4,0.7-0.3,1.4-0.7,1.9c0.1,0.1,0.1,0.1,0.3,0.1v0.1c-0.2,0.1-0.2,0-0.3,0.1c-0.2,0.2-0.1,0.5-0.3,0.8c-0.3,0.7-0.9,2-1.2,3
			c-0.1,0.3-0.2,0.9,0,1.1v0.3c-0.1,0-0.2-0.1-0.3-0.1c-0.2,0.4-0.3,1.3-0.4,1.7c0,0.1,0.1,0.2,0.1,0.4c-0.1,0-0.2,0.1-0.3,0.1
			c-0.1,0.2,0.2,0.2,0.2,0.4c-0.1,0.3-0.4,0.8-0.5,1.1c0.3,1.2-0.3,2.2-0.5,3.2l0.3,0.3c-0.2,0.1-0.3,0.2-0.4,0.3
			c0.1,0.3,0,0.2,0.3,0.4c-0.1,0.1-0.3,0.2-0.4,0.3c-0.1,2.5-0.5,4.5-0.8,7c0,0.2,0.2,0.8,0.1,1.1c-0.2,0.7-0.2,1.3-0.1,1.9
			c-0.6,0.9,0,2.4-0.4,3.9c-0.2,0.8-0.1,1.8,0,2.4c0.1,0.5-0.3,1.3-0.2,1.9c0,0.2,0.2,0.9,0.2,1.1c0,0.3-0.1,0.6-0.1,0.9
			c0,0.2,0.2,0.8,0.3,1c0,0.2-0.1,0.2-0.2,0.3c-0.1,0.2,0,1.3,0,1.4c0,0.2,0.2,0.8,0.3,1.1c0.1,0.4-0.1,0.6-0.1,0.9
			c0.2,1.7,0.1,3.7,0.4,5.3c-0.1,0.7-0.1,1.5-0.2,2.2c0.2,0.8,0,1.8,0.1,2.6c0.3,2.2,0.3,5.1,0.6,6.9c0.2,1-0.2,1.7,0,2.7
			c0.7,3-0.1,6.6,2.2,8c0,2-0.4,4.7-0.7,6.5c-0.1,0.4,0.2,0.7,0.3,0.9c0,0.2-0.1,0.4-0.1,0.5c0,0.7,0,2-0.2,2.6
			c-0.1,0.3,0.1,0.9,0.1,1.1c-0.1,0.6-0.4,1.1-0.2,1.9c0.1,0.4,0.4,0.8,0.5,1.1c0.2,0.5,0,0.8,0.3,1.2c0.3,0.5,1.9,1.5,2.6,1.7
			c0.6,0.2,1.1,0.1,1.5,0.4c0.5,0.7-0.2,1.8,0.2,2.9c0.1,0.1,0.1,0.1,0.2,0.2c-0.1,0-0.4,1.6-0.2,2.1c0.3,0.9,0.1,3.4-0.1,4.8
			c-0.1,0.6,0.2,1.9,0.1,2.6c-0.2,1.3-0.3,3.5-0.1,4.6c0.2,1-0.4,2.4-0.1,3.6c0.1,0.3,0.2,0.5,0.4,0.7c-0.4,0.8,0,1.5-0.1,2.3
			c0,0.1,0.1,0.6,0.1,0.8c-0.2,1.1-0.2,3.4,0.1,4.5c0,0.4-0.1,0.7-0.1,1.1c0.1,0.5,0.1,1,0.2,1.5c0,0.2-0.1,0.4-0.1,0.6
			c0,0.1,0.2,0.1,0.2,0.4c0,0.4-0.1,0.9-0.1,1.3c1,4.1,0.6,9.6,1.7,13.2c0,0.6,0.1,1.2,0.1,1.9c0,0.2,0.2,0.7,0.2,1
			c0,0.1-0.2,0.5-0.1,0.7c0.3,1.3,0.2,2.3,0.5,3.6c0,0.7,0.1,1.4,0.1,2c0.1,0.3,0.3,1,0.3,1.4c-0.1,0.2-0.1,0.4-0.2,0.5
			c0,0.2,0.3,0.5,0.4,0.7c0.3,0.9-0.2,1.9,0,2.6c0.2,0.7,0.2,1.9,0.4,2.6c0,0.3-0.1,0.6-0.1,0.9c0.1,0.3,0.3,0.7,0.4,1.1
			c0,0.2-0.2,0.4-0.2,0.5c0,0.3,0.3,1.7,0.4,1.9c-0.3,0.5-0.8-0.1-1.3,0.1c-0.6,0.2-1.2,0.5-1.4,1.1c-0.2,0.3-0.1,0.8-0.1,1.1
			c0.6,0.3,1.1,0.7,1.7,1.1c0.3,0.1,0.6,0.2,1,0.3c0.5,0.2,1.2,0.7,1.6,1.1h0.1v0.2c-1.2-0.2-2.8-0.1-3.6,0.4c0,0.9,0.1,1.6,0.5,2
			c-0.2,0.4-0.8,0.4-1.1,0.7c-0.2,0.2-0.2,0.5-0.4,0.6c0,0.2,0,0.2,0.1,0.4c0.4,1.1,3.2,0.9,3.9,0.5h0.2c-0.2,0.6-1.9,1.4-2.5,1.8
			l-0.2,0.4c-0.5,0.3-1,0.2-1.4,0.5c-0.2,0.2-0.4,0.5-0.5,0.7c-0.3,0.2-0.6,0.2-0.9,0.4c-0.3,0.3-0.6,0.6-1,1
			c-1.2,0.9-2.5,1.5-3.6,2.5c-0.4,0.3-0.9,0.4-1.3,0.6c-1,0.7-2.4,1.8-2.4,3.4c0.4,0.4,0.7,0.9,1.4,1.1c0.9,0.3,3.1-0.3,3.9-0.6
			c0.3-0.1,0.9-0.6,1.3-0.5c1,0.1,4-1.2,5-1.7c1.1-0.4,2-0.6,2.9-1.1c0.3-0.2,0.6,0,1-0.2c0.2-0.1,0.6-0.4,0.8-0.5
			c0.4-0.2,0.7-0.2,1.1-0.4c0.3-0.2,0.6-0.6,0.9-0.7c0.5-0.2,0.8-0.1,1.2-0.4c0.8-0.4,1.5-1,2.3-1.4c0.8-0.4,1.8-0.3,2.5-0.8
			l0.5-0.5c0.8-0.4,1.5-0.6,2.5-1c0.1-0.1,0.3-0.3,0.4-0.4h0.6c0.7-0.2,1.6-0.7,1.9-1.3c0.1-0.1-0.2-0.7-0.4-0.9v-0.2
			c0.7,0,1.5,0.1,2.4,0.1c0.1-0.2,0.3-0.3,0.5-0.4c0.1-0.2,0.1-0.2,0.2-0.4c-0.1-0.8-0.6-0.7-1-1.2c-0.3-0.4-0.3-0.9-0.5-1.2V412
			c0.2-0.2,0.8-0.3,1.1-0.4c0.3-0.2,0.5-0.6,0.7-0.9c-0.1-0.5-0.3-0.6-0.4-1c-0.2-0.5-0.4-4-0.2-4.4c0-0.9-0.3-2.1,0-2.9
			c0.1-0.4-0.3-0.9-0.3-1.3c0.1-0.5,0-1.8,0.2-2.3c0-0.1,0.2-0.3,0.3-0.4c-0.1-0.2-0.3-3.4-0.2-3.9c0.2-0.9,0.2-2,0.2-3.2
			c0-0.3,0.1-0.5,0.1-0.7c-0.1-0.5-0.2-1.2-0.2-1.8c0-0.2,0.2-0.9,0.2-1.1c-0.2-1.3-0.3-2.6,0-4.1c0-1.7,0.1-3.3,0.1-5
			c0.1-0.3,0.3-1.5,0.3-2c-0.1-1,0.2-1.9,0-3.2c-0.1-0.8-0.1-3,0.1-4v-2.3c0.4-1.5,0.4-3.7,0.8-5.6c0.1-0.6-0.1-0.8,0-1.3
			c0.2-1,0.1-2.1,0.3-3.2c0-0.2-0.2-0.4-0.1-0.7c0.5-2.2,0.6-4.6,0.9-6.5c0-0.3-0.1-0.6-0.1-0.9c0.4-1.8,0.3-4.5,0.2-6.2
			c0-0.3,0.2-0.7,0.2-1c-0.1-1.1-0.1-2.7,0.1-3.6c0.1-0.4-0.1-0.8-0.1-1.1c0.1-0.8,0.2-2,0.4-2.6c0.1-0.5-0.1-0.9,0.2-1.2v-0.1
			c0.3,0.4,0.1,1.2,0.2,2c0,0.2-0.2,0.3-0.2,0.6c0,0.7,0.6,3.5-0.2,4.1c0.1,0.1,0.1,0.1,0.3,0.1c-0.1,2.5-0.4,6.6,0.3,9.1v1.4
			c0.4,1.7,0.2,4,0.4,5.1c0.1,0.3,0.2,1.8,0.2,1.9c0,0.2-0.1,0.4-0.1,0.5c0.4,1.7,0.2,4.2,0.7,5.9v1.1c0.3,1.1,0.2,2.2,0.4,3.4
			c0.1,0.4-0.1,1,0,1.6c0.6,2.7,0.7,6.6,1.2,9.5c0,1,0.1,1.9,0.1,2.9c0.3,1.2,0.3,2.7,0.5,3.7v1.6c0.1,0.3,0.3,1.2,0.4,1.5
			c0.1,0.5-0.2,2,0,2.7c0.2,0.9,0.3,2.4,0.5,3.3v1c0.3,1,0.6,3.1,0.4,3.9c-0.2,1.5,1,2.6-0.1,3.6c0,1.2,0.9,1.7,1.5,2.4
			c-0.3,0.5-1.4,0.4-1.9,0.6c-0.3,0.1-0.5,0.4-0.8,0.5c0,3.3,2.3,4.1,4.4,5.3c-0.2,0.3-0.3,0.1-0.6,0.1c-0.1,0.2-0.2,0.3-0.4,0.4
			c0.1,1.7,1.7,2.6,2.6,3.5c0.7,0.7,1.4,1.7,2.3,2.2c1.2,0.7,2.4,1.3,3.7,2c0.9,0.5,1.7,1.2,2.6,1.7c1,0.5,2.1,0.6,3.1,1.1
			c1.1,0.6,2.3,1,3.4,1.6c0.5,0.2,1.2,0.9,1.8,0.8c0.5-0.1,1,0.2,1.3,0.3c0.8,0.2,3.5,0.1,3.7-0.1c0.4,0,0.7,0.3,1.1,0
			c0.3-0.2,0.3-0.5,0.5-0.7c0-1.7-0.6-2.2-1.4-3.2c0.1-0.2-0.9-1.7-1.1-2c-0.8-1.2-1.4-2.3-2.2-3.5c-0.1-0.2-0.4-0.1-0.5-0.3
			c-0.4-0.3-0.8-1-1.1-1.5c1.3-0.6,0.4-0.8,0.8-1.9c0.1-0.1,0.4-0.3,0.3-0.6c0-0.1-0.3-0.1-0.4-0.3c0-0.7-0.1-1.5-0.1-2.2
			c0.1-0.7-0.4-1.8-0.2-2.6c0.1-0.4,0-1.4-0.1-1.9c-0.1-0.6,0-1.6,0.1-2c0.1-0.8-0.1-2-0.4-2.6v-1.3c0-1.5,0.3-3.6-0.1-4.7l-0.3-0.3
			c0-0.3,0.4-0.2,0.3-0.7c-0.1-0.6-0.2-1.4,0-2.2c0.1-0.5,0.3-1.4,0.2-1.9c0-0.1-0.3-1.1-0.3-1.1c0.1-0.2,0.3-0.4,0.2-0.8
			c-0.6-2.8,0-5.6-0.4-8.9c0.1-0.8,0.1-1.6,0.2-2.4c-0.3-1.3,0.1-2.7-0.2-3.8c-0.4-1.5-0.2-3.4-0.5-5c-0.1-0.4,0.1-0.8,0.1-1.1
			c-0.2-1.6-0.2-4.9-0.6-6.7v-1.7c-0.2-0.9-0.2-2.1-0.4-2.9c0-0.3,0.1-0.5,0.1-0.8c0-1,0-1.9-0.1-2.6c-0.1-0.3,0.2-0.9,0.2-1.2
			c0-1,0-2.2,0.2-2.9c0.1-0.6-0.3-1.8-0.2-2.6c0.5-2.9,0.2-6.3-0.1-8.4c0-0.2,0.1-0.5,0.2-0.6c0-0.3-0.1-0.6-0.1-1
			c0.1-0.3,0.2-1.1,0.2-1.6c-0.3-2.4-0.2-6.1-0.8-9c-0.1-0.6,0-2.4-0.3-2.9c0-0.3,0-0.5,0.1-0.7c1.5,0,1,1.6,1.5,2.6
			c0.6,1.4,0.4,3.6,0.1,5.1c0,0.3,0.1,0.6,0.1,1c-0.1,0.5-0.2,1.8-0.2,2.2c0.1,0.7,0.7,1.2,1,1.8c2.2,0.2,3.3-1.5,4-3.2
			c0-0.3,0.1-0.6,0.1-0.9c0.6-1.4,0.8-1.8,0.5-3.7c0.8,0,1.4-0.3,2.2-0.2c1.8,0.3,3.5,0.4,4.8,0.6c0.5,0.1,2.7,0.1,3-0.1
			c0.2,0,0.3,0,0.4,0.1l4.1-1.6l-0.1-0.1C418.8,324.5,418.9,324.3,418.9,323.8z M338.3,288.1L338.3,288.1l-0.1-0.2h0.1V288.1z
			 M380.8,234.1c0.1-0.4,0.3-0.5,0.5-0.7c0.9,0.2,1.5,1,2.1,1.6c0.1,0.1,0,0,0.1,0c0.2,0.1,0.8,0.7,0.9,1v0.5
			c0.2,0.1,0.4,0.1,0.6,0.2c0.2,0.1,0.2,0.4,0.4,0.5c0,0.2,0,0.2-0.1,0.3c-0.1,1-2.1,1-3,1.3c-1.1,0.4-2.5,0.4-3.6,0.7
			c-1.2,0.4-2.4,1-3.5,1.5c-0.9,0.4-1.9,0.6-2.5,0.9h-0.2c0.3-1,2.3-2,3.1-2.6c1-0.8,1.7-1.8,2.5-2.8c0.3-0.4,2.2-1.8,2.7-2
			C380.9,234.2,380.9,234.2,380.8,234.1z M383.6,241.3c-0.1,0-0.2,0.1-0.4,0.1c-0.2,0.2,0.1,0.3,0,0.6l-0.5,0.5
			c-0.2,0.3-0.2,0.6-0.4,0.9c-0.4,0.5-1.1,0.8-1.4,1.4h-0.2c0.2-0.8,0-3.3-0.2-3.6c0.1-0.6,0.9-0.4,1-0.8c0.3,0.1,0.7,0.3,1.1,0h1.1
			l-0.3,0.3C383.5,240.9,383.5,241.1,383.6,241.3z M379.3,247.1c-0.1,0.6-0.5,0.7-0.8,1.1c-0.7,1.1-1.4,2.5-2.3,3.3
			c-0.1,0.1-0.1,0.1-0.3,0.1c0-0.6-0.1-3.5,0.2-3.8c0.7-0.5,2.3-0.1,3-0.7L379.3,247.1L379.3,247.1z M370.5,244.1
			c0.8,0,2.8-0.5,3.3-0.9c0.2,0.1,0.1,0,0.3,0.2c0.3,0.5,0,2,0.4,2.6c0,0.4,0,0.4-0.4,0.5c0,0-3.1-0.1-3.5-0.2
			C370.5,245.2,370.5,245.1,370.5,244.1z M373.9,254.1c0.2,0,0.4,0.1,0.5,0.1c-0.5,0.8-0.9,1.6-1.5,2.4c-0.1,0.4-0.2,0.7-0.4,1.1
			l-0.6,0.6c-0.5,0.9-0.8,2.1-1.5,2.8v0.1c-0.5-0.8-0.2-5.1-0.1-6.3C371.5,254.5,373,254.7,373.9,254.1z M358.1,219.8
			c-0.1-0.4-0.7-1.5-0.3-2.1c0.1-1,1.1-1.8,2.1-1.9c0.7-0.1,1.2,0.4,1.7,0.2c0.3,0,0.3-0.1,0.5-0.2c0.1-0.3,0.2-0.5,0.1-0.7
			c-0.2-0.4-0.8-0.6-1.1-0.8c0-3.2,0.9-5.1,2.1-7.1c0.5-0.8,1-2.1,1.7-2.6c0.7-0.5,2-0.3,2.6-0.9c0.2,0,0.2,0,0.4,0.1
			c0.3,0.4,0.1,1.1,0.2,1.4c0.1,0.3,0.3,0.5,0.4,0.8c0.6,0,0.7-0.1,1.1-0.4c0.1-0.9-0.1-1.7,0.1-2.2h0.4c0.1,0.6,0.3,1,0.4,1.5
			c0.4,0.1,0.4,0.1,0.9,0.1c0-0.2,0.1-0.5,0.1-0.7c0.1-0.1,0.2-0.2,0.3-0.4c0.2,0,0.2,0,0.4,0.1c0.8,0,1.1,0.5,1.4,1
			c0.5,0,0.7-0.4,1.1-0.3c2.4,0.5,4.6,3.3,5.6,5.9c0,0.4-0.1,0.7-0.1,1.1c0.3,1.4,0.2,2.7,0.1,3.8c0,0.2,0.1,0.8,0.2,1
			c0.1,0.6-0.6,1.4-0.4,2.1c0.1,0,0.1,0.1,0.2,0.1c0,0.2-0.1,0.5-0.1,0.7c-0.1,0-0.2,0.1-0.3,0.1c0,0.7,0.4,0.7,0.6,1.1
			c0.4,0.6,0,4.2-0.1,4.7c-0.1,0.6,0.1,1.3,0.1,2c0,0.2-0.1,0.5-0.1,0.7c0,0.3,0.3,0.7,0.2,1.1c-0.2,0.7-0.4,1.4-0.6,2
			c-0.1,0.4,0.1,1-0.1,1.3c-0.3,0.3-0.6,0.6-1,0.9c-0.1,0.2,0,0.5-0.2,0.7c-0.3,0.3-0.8,0.4-1.1,0.7c-0.7,0.8-1.2,1.8-1.9,2.6
			c-0.5,0.5-1.2,0.7-1.8,1.1c-0.2,0.1-0.2,0.4-0.4,0.5c-0.7,0.6-2.4,1.4-2.7,2.3c-0.3,0-0.6,0.1-0.8,0c-0.4,0-0.8,0-1.1-0.2
			c-0.7-0.4-1.2-1.4-1.8-1.9c-0.3-0.2-0.5-0.4-0.8-0.6c-0.3-0.5-0.4-1-0.8-1.4c-0.2-0.3-0.7-0.4-1-0.7c-0.5-0.5-0.8-0.9-1.4-1.3
			c-1.1-0.9-1.9-2.3-3.1-3.1c0-0.4,0.2-0.5,0.3-0.7c0.1-0.2-0.1-0.6-0.1-0.7c-0.1-0.6,0.1-1.2,0.2-1.7c0.1-0.5-0.1-1.4-0.2-1.9
			c-0.1-0.5,0.1-1.6,0.2-2c0.2-0.8-0.3-2,0.1-2.6c0.2-0.3,0.5,0,1-0.2c0.3-0.1,0.7-0.5,1-0.7c0-0.6-0.2-0.7-0.4-1.1
			C360.3,220.5,359.4,220.6,358.1,219.8z M369.2,249.6c-0.1,0.8-0.3,2.1-0.3,3.3c-0.6,0-2.3-0.2-2.4-0.2c-0.4-0.1-0.4-0.2-0.7-0.4
			c-0.2-0.7-0.2-1.2-0.4-1.9c-0.2-0.7,0.1-1.7-0.1-2c0-0.3,0-0.7,0.1-0.9c1,0.1,2.5,0.4,3.6,0.3c0,0.5,0.2,0.7,0.1,1.1
			c0,0.1-0.2,0.2-0.2,0.4C369,249.4,369.2,249.4,369.2,249.6z M353.9,236.5c0-0.1,0.1-0.3,0.1-0.4c0.2-0.2,0.6-0.3,0.9-0.4
			c0.2-0.1,0.2-0.5,0.4-0.6c0.2-0.1,0.5-0.1,0.6-0.2c0.6-0.4,1.2-1.1,1.9-1.5c0.3-0.1,0.6-0.1,0.9-0.3c1,0.1,2.1,1.5,2.6,2.2
			c0.2,0.2,0.4,0.2,0.6,0.4c0.2,0.2,0.3,0.5,0.4,0.7c0.2,0.2,0.4,0.2,0.6,0.4c0.4,0.3,0.8,0.8,1.1,1.2c0.1,0.1,0.4,0.1,0.5,0.3
			c0.1,0.2,0,0.4,0.2,0.6c0.6,0.8,1.2,1.7,2,2.3v0.4c-2.1,0-3.7-0.6-5.6-1.2c-0.6-0.2-1.2,0-1.9-0.2c-0.2-0.1-0.5-0.4-0.8-0.4
			c-0.9-0.3-1.8-0.1-2.6-0.5c-0.3-0.1-0.8-0.5-1.1-0.6h-0.7c-0.4-0.1-1-0.4-1.4-0.6C352.9,237,353.5,237,353.9,236.5z M359.9,242.5
			v-0.7c0.4-0.1,3.1,0.5,3.3,0.8c0.3,0.4,0.1,1.8,0.2,2.1l0.4,0.4c-0.1,0.3-0.1,0.7-0.1,1.1c-0.5,0-1.1,0.1-1.3-0.1
			c-1.1-0.1-1.5-1.9-2.5-2.3C360,243.2,360.2,242.8,359.9,242.5z M347.1,246.2L347.1,246.2c0.1,0.2,0,0.1,0,0.2v0.1H347
			C347,246.3,347,246.3,347.1,246.2z M346,248c-0.2-0.1-0.1,0-0.2-0.1C346,248,345.9,247.9,346,248z M341.9,257.4L341.9,257.4
			l0.1,0.2h-0.1V257.4z M341.7,258.5v0.3C341.7,258.8,341.6,258.8,341.7,258.5L341.7,258.5z M339.8,266h0.2v0.2h-0.2V266z
			 M339.1,276.9L339.1,276.9l0.1,0.2h-0.1V276.9z M340,316L340,316l-0.1-0.2h0.1V316z M340.9,315c-0.3-1.5-0.5-3.9-0.6-5.5
			c-0.1-0.6,0.1-1.5,0-1.9c-0.3-1.1,0.1-3-0.4-3.8c0-0.4,0.1-0.3-0.2-0.4c-0.1-0.2,0-0.1-0.1-0.2c0.2-0.1,0.1,0,0.3,0
			c0-3-0.1-6.3-0.4-9.2c-0.1-0.5,0.2-1.4,0.1-1.9c-0.6-3.4-0.7-6.9-0.4-10c0-0.3-0.1-1-0.1-1.5c0-1.4,0.1-2.7,0.3-3.5
			c0.2-0.8-0.1-1.9,0.2-2.5c-0.1-0.2-0.1-1.6-0.1-1.8c0.2-0.6,0.4-1.7,0.5-2.4v-1.1c0.5-2,0.6-3.8,1.1-5.6c0.2-0.7-0.1-1.5,0.2-2.1
			c0.7-1.9,1.2-4,2-5.7c0-0.1-0.1-0.5,0-0.7c0.2-0.8,0.8-1.8,1.1-2.6c0-0.2,0.1-0.5,0.1-0.7c0.1-0.3,0.5-0.8,0.6-1.1v-0.4
			c0.1-0.2,0.3-0.2,0.4-0.4c0-0.1,0,0-0.1-0.1c0.1-0.4,0.5-0.5,0.6-0.8c0-0.2,0.1-0.5,0.1-0.7c0.1-0.1,0.3-0.2,0.4-0.3
			c0.1-0.2,0.1-0.4,0.2-0.5c0.2-0.2,0.5-0.3,0.6-0.5c0.1-0.2,0-0.5,0.2-0.7c0.1-0.2,0.5-0.5,0.6-0.7c0.1-0.2-0.1-0.3-0.1-0.4
			c0.1-0.1,0.3-0.1,0.4-0.2c0.4-0.4,0.4-0.9,0.7-1.3c0.4-0.5,0.9-0.9,1.2-1.5h0.4c0.1-0.9,1-1.1,1.4-1.9c0.8,0.2,1.8,1.2,2.5,1.7
			c0.3,0.2,0.6,0.2,1,0.4l0.5,0.5c0.4,0.2,0.6,0.2,1,0.4c0.5,0.2,0.8,0.8,1.2,1.1c0.4,0.3,0.9,0.5,1.3,0.9c0.1,0.1,0,0.1-0.1,0.3
			c0.1,0.1,0.3,0.1,0.4,0.2c0,0.2-0.1,0.5-0.2,0.7c0.3,0.3,1,0.6,1.2,1c0.7,0.9,1.2,1.9,1.9,3l0.6,0.6c0,0.2,0.1,0.4,0.1,0.6
			c0.1,0.1,0.2,0.2,0.4,0.3c0.2,0.5-0.4,0.9-0.1,1.3c0.2,0.4,0.5,0.3,0.8,0.6c0.1,0.1,0.4,0.7,0.4,0.9c0.1,0.5,0.2,1,0.4,1.5
			c0.4,0.8,0.7,1.7,1.1,2.6c0.1,0,0.1-0.1,0.2-0.1c-0.2,0.1-0.1,0.8,0,1c0,0.1,0.3,0.4,0.4,0.4c0.1,0.2-0.1,0.5,0,0.9
			c0.2,0.5,0.3,1.2,0.5,1.9c0.9,2.3,1.3,4.9,2,7.4c0.2,0.8-0.1,1.4,0.2,2.3c0.5,1.5,0.7,3.3,1.2,4.8c-0.2,1,0.1,2.5,0.3,3.3v2.6
			c0.3,1.4,0.2,2.9,0.5,4c-0.1,0.4-0.1,0.8-0.2,1.1c0.2,0.9,0.6,2.9,0.4,4.1c-0.2,1.4,0.2,2.7,0.4,3.5c0,0.2-0.2,0.3-0.2,0.4
			c0,0.2,0.1,0.9,0.2,1.1c0.1,0.5-0.2,1.3-0.1,1.9c0,0.2,0.3,0.8,0.3,1.1c0,0.3-0.2,1-0.1,1.4c0.2,0.9,0.2,2.3,0.2,3.1v1.7
			c-0.2,0.6-0.7,0.9-0.7,1.9c-0.5,0-0.9,0.3-1.3,0.4c-1.1,0.3-4.2,0-4.8-0.1c-0.4,0-0.5,0.1-0.7,0.2c-0.3,0.1-0.7-0.1-1-0.2
			c-0.6-0.1-1.2,0.1-1.8,0c-1.4,0-2.8-0.1-4.1-0.1c-0.3,0-0.2,0.2-0.5,0.2c-0.2,0-0.5-0.3-0.7-0.4c-0.2-0.1-0.4,0.1-0.5,0.1
			c-0.9,0-2-0.5-2.7-0.4l-0.3-0.3c-0.3,0-0.6,0.1-1,0.1c-0.1,0-0.3-0.2-0.4-0.3c-0.5,0-0.9-0.1-1.4-0.1c-1.1-0.4-2.4-0.8-3.5-0.9
			c0,0-0.1-0.1-0.1-0.1c0-1.8,0.1-4.6,0.3-6.1c0,0-0.1-2.9-0.1-3c-0.1-0.2-0.3-0.3-0.3-0.6c0.2-0.8,0.1-1.8,0.3-2.6v-1.3
			c0.2-0.8-0.1-1.4,0.2-2.3c0.3-1.2,0.6-2.8,0.8-4c0-0.3-0.1-0.5-0.1-0.8c0.3-1.2,0.2-1.9,0.4-3.2c0.1-0.6-0.2-0.7,0.2-1.2
			c-0.2-0.2,0.1-0.3,0-0.5c-0.1,0-0.2-0.1-0.3-0.1v-0.2c0.1,0,0.2-0.1,0.3-0.1c0.2-0.6,0-1.4,0.2-1.9c0-0.1,0.3-0.3,0.4-0.4
			c-0.1-0.2-0.2-0.2-0.2-0.5c0.1-0.6,0.6-1.7,0.6-2.3c0-0.2-0.3-0.1-0.2-0.4c0.1-0.1,0.2-0.1,0.3-0.2c0.2-0.4,0.1-0.8,0.3-1.2h0.2
			v-0.6c0.2-0.7,0.2-1.4,0.4-2.2c0.6-2,1.2-4.4,1.7-6.2c0.4-1.3,0.1-2.2,0.5-3.4c0.2-0.5,0.7-1,0.8-1.5c0.3-0.5-0.7-1.3-1.2-0.8
			c-0.9,0.3-1.1,2.5-1.4,3.5l-0.2,0.2c0,0.1,0.2,0.6,0.2,0.7l-0.4,0.2c0.3,0.4,0,1.5-0.1,1.9c-0.6,1.7-0.6,3.4-1.3,5v0.8
			c-1.3,3.3-1.4,6.6-2.2,10.4c0,0.3,0.1,0.6,0.1,0.9c-0.3,1.2-0.3,2.6-0.5,3.6c-0.1,0.2,0.1,1.1,0.1,1.1c-0.5,0.9-0.2,1.6-0.5,2.8
			c-0.3,1.3-0.7,4.5-0.4,6c0.1,0.7-0.3,1.6,0.2,2.3c-0.3,0.6-0.3,2.8,0,3.3c-0.2,0.6-0.2,0.9-0.1,1.5c0.2,0.6-0.3,3.3-0.4,3.8
			c-0.1,0.5,0.3,0.6,0.2,1.1c0,0.1-0.2,0.5-0.2,0.6c0,0.1,0.2,0.5,0.2,0.6c-0.1,0.6-0.3,1.8-0.2,2.6c0.1,0.7-0.4,2.5-0.1,3.1
			c0,0.8-0.1,1-0.7,1.1c0,0,0.1,0.1,0.1,0.1c0.1,0.1,0.3,0,0.6,0c0,0.6,0,1.2-0.1,1.7c0,0-0.1,0.1-0.1,0.1c-0.4-0.1-1.5,0.1-2.3-0.1
			c-0.2-0.1-0.5-0.4-0.9-0.3c0,0-0.3,0.2-0.4,0.3C340.9,317.6,341.1,316,340.9,315z M339.6,301c0.2,0.1,0.1,0,0.2,0.1
			C339.6,301,339.7,301.1,339.6,301z M358.8,308.7c-0.2-0.1-0.1,0-0.2-0.1C358.8,308.6,358.7,308.6,358.8,308.7z M349.5,272.9
			c0.1,0,0.2,0.1,0.3,0.1v0.1C349.5,273,349.6,273.1,349.5,272.9z M352.1,265.2V265h0.1L352.1,265.2L352.1,265.2z M345.8,353.5
			L345.8,353.5l-0.1-0.2h0.1V353.5z M345,336.2c0,0-0.3-0.3-0.4-0.4c-0.3,0-0.6-0.1-0.9-0.1c-0.4-0.2-0.9-0.6-1.3-0.8
			c-0.2-0.7-0.7-1.6-0.8-2.3c-0.1-0.3,0.1-0.9,0.2-1.1c-0.3-1.2-0.1-2.6,0.2-3.7c0-0.7-0.1-1.4-0.1-2c0.4-1.6,0.5-4.5,0.9-6.3
			c0.9,0,2.3,0.3,2.9,0.1c0.2,0.6,0.6,1.3,0.8,1.9c0.2,0.8,0.4,1.5,0.5,2.3c0.4,1.1,1,2.2,1.4,3.4c0.1,0.3,0.6,2.7,0.4,2.9
			c-0.1,0.2-0.3,0-0.4,0.5c-0.2,0-0.2,0-0.4-0.1c-0.9-0.1-0.7-0.8-1-1.6c-0.1-0.4-0.4-0.8-0.5-1.1c-0.1-0.4-0.1-0.7-0.2-1.1
			c-0.1-0.2-0.4-0.5-0.4-0.6c-0.2-0.6-0.1-1.6-0.4-2.1c-0.1-0.2-0.3-0.3-0.4-0.5c-0.6,0-0.7,0-1.1,0.3c-0.2,1,0.4,2.2,0.1,3.2
			c1,0.4,0.8,1.6,1.2,2.6c0.6,1.5,1.6,3,3.4,3.3c0,0.2-0.1,0.5-0.2,0.7c0.3,0.2,0.6,0.4,0.9,0.5c0,0.9,0,1-0.3,1.6
			c-1,0.2-2.6,0.3-3.4,0.2C345.7,335.9,345.4,336.3,345,336.2z M345.3,325.1l0.1-0.2C345.4,324.9,345.5,324.9,345.3,325.1z
			 M397.2,362.6c0.2,0.8-0.3,2.1,0.2,2.8c-0.2,0.1-0.1,0-0.3,0c0.5,1.6,0.2,4,0.6,5.9v1.3c0.3,1.1,0.3,2.8,0.3,4
			c0,0.3,0.1,0.6,0.1,1c-0.1,0.7-0.1,1.4,0,1.9c0.1,0.6-0.3,1.6-0.2,2.2c0.3,1.8,0,4.1,0.4,5.9c0.1,0.6-0.1,2.1-0.3,2.2
			c0.6,0.6,0.1,3.7,0,4.4c0,0.5,0.2,3.5,0.4,3.8c-0.2,0.4-0.4,2.7-0.2,3.3c0.2,0.6,0.3,0.4,0.2,1.1c0,0.2,0.1,0.5,0.1,0.7
			c0,1,0,2.4,0.2,3.4c0.1,0.5-0.2,0.3-0.3,0.4v0.2c0.1,0.1,0.1,0.1,0.2,0.2c0,0.3-0.1,0.6-0.1,0.9c0.2,0.8,0.3,2.3,0.1,2.9
			c0.2,0.8,0.3,2.5,0,3v0.2c-1-0.1-1.1-2.2-1.3-3c-0.1-0.4-0.2-1,0-1.2c0-1-0.5-1.3-1.1-1.8c-0.2-0.3,0-0.6-0.2-1.1
			c-0.3-0.8-0.5-2.2-0.7-3.2v-1c-0.7-3-0.2-6.6-1-10c0-1.2-0.1-2.4-0.1-3.6c-0.3-1.2,0.1-2.2-0.2-3.4c-0.1-0.2-0.2-1-0.2-1.2
			c0-0.7,0.1-1.5,0-2.1c-0.1-0.5-0.1-2.4-0.1-2.8c0-0.1,0.1-0.4,0.1-0.6c0-0.2-0.2-1.9-0.2-2.1c0-0.1,0.2-0.2,0.2-0.4
			c-0.2-1.8,0-3.2-0.4-5.2c0-0.3,0.3-1,0.2-1.5c-0.2-1.1,0.1-2.9-0.2-4.2c-0.6-2.5-0.1-5.6-0.8-8.5v-1.7c-0.1-0.6-0.2-1.4-0.3-1.7
			v-1c-0.4-1.6-0.1-3.2-0.4-4.1v-2.8c-0.2-0.8-0.1-1.9-0.2-2.6c-0.2-1.3-0.4-2.9-0.7-4.3c-0.2-1,0.1-3.1-0.1-3.3
			c0-0.3,0-0.6-0.1-0.8c-0.2-0.1-0.1,0-0.2-0.1c-0.3,0-0.5,0-0.7,0.1c-0.8,2,0.1,5.2,0.5,7.2c0,0.2-0.1,0.4-0.1,0.6
			c0.1,0.9,0.2,2.2,0.4,3.2v1.4c0.2,1,0.4,3.3,0.2,4.3c0,0.2,0.2,0.3,0.2,0.4c0,0.3-0.1,0.5-0.1,0.8c0.1,0.5,0.5,1.9,0.4,2.6
			c-0.1,0.8,0.1,2.4,0.4,3.2c-0.1,0.5,0,1.5,0.1,2.1c0.1,0.7-0.2,1.4,0,2.2c0.2,0.8,0.2,1.9,0.2,2.5c0,0.2,0.3,1.1,0.3,1.1
			c-0.4,0.2,0.1,1.5,0,2.2c-0.1,0.3,0,1.2,0.2,1.7c-0.3,1.5,0.1,4.2-0.1,5.3c-0.2,0.9,0.3,2.1,0.1,3.1c-0.2,1.1,0.1,2.7,0.1,4
			c0,1.5-0.2,4.1,0.2,5.8c0.1,0.5-0.2,0.9-0.1,1.3c0.1,0.4,0.3,1.2,0.3,1.7c0,0.2-0.2,0.6-0.1,0.9c0.1,0.3-0.1,1.2,0.1,1.8
			c0.5,1.9,0.2,4.9,0.7,6.7l0.1,2c-0.1,0.2-0.2,0.5-0.3,0.7c0.1,0.1,0.2,0.1,0.3,0.2c0.2,0.4-0.1,0.6,0,1c0.1,0.7,0.2,1.5,0.4,2.4
			c0.1,0.5-0.1,1,0,1.2c0.2,0.9,0.5,1.7,0.4,3.1c0.3,0.3,0.4,0.4,0.8,0.6c0.1,0.8,0.3,1.5,0.4,2.3c-2.4,0-3.5-0.9-5.4-1.4
			c-2.2-0.6-4.5,0.4-6.8-0.4c-0.3-0.1-1.1-0.4-1.3-0.7c-0.2-0.2-0.2-0.6-0.4-0.8c-0.3-0.2-0.9,0-1.3-0.1c-1.2-0.4-2.5-1.1-2.6-2.6
			c1.1-0.1,2.4-0.4,3.3-0.9c0-0.1,0.1-0.3,0.2-0.4c-0.1-0.8-1.7-1.9-2-2.9c-0.4-0.8,0.2-2.1-0.1-3.3c-0.1-0.2-0.3-0.5-0.4-0.6
			c0.1-0.2,0.1-0.4,0.2-0.6c0-0.1-0.2-0.4-0.3-0.5c-0.1-0.2,0.1-0.5,0.1-0.6l-0.1-1.6c-0.2-0.8-0.4-2.1-0.7-3v-1.1
			c-0.2-0.9-0.1-1.7-0.4-2.8V389c-0.1-0.5-0.4-1.4-0.4-1.9c0-0.1,0.2-0.5,0.2-0.6c-0.2-1-0.4-2-0.5-2.8c-0.1-0.4,0.2-1.4,0-2
			c-0.3-1.1-0.2-2.3-0.4-3.4v-1.1c-0.2-0.7,0-1.5-0.3-2.5c-0.4-1.6-0.6-3.8-0.8-5.6c-0.1-1.1,0-2.4-0.3-3.5
			c-0.1-1.1-0.1-2.1-0.2-3.2c-0.5-2.1-0.3-4.6-0.9-7.1c0-0.4,0.1-0.9,0.1-1.3c0-0.1-0.2-0.5-0.2-0.6c0-0.2,0.2-0.7,0.1-1
			c-0.3-1.4-0.6-3.9-0.4-5.4c0.1-0.8-0.3-1.8-0.1-2.6c0-0.4-0.1-0.8-0.1-1.1c0.1-1,0-2.6,0.2-3.3c0.3-1.2-0.1-2.4,0-3.3
			c0-0.1,0.3-0.3,0.3-0.4c0,0-0.3-1-0.3-1.2c0.1-1,0.2-2.7,0-4.1c-0.1-0.4,0.2-1.4,0.2-1.9c-0.2-1.8,0-4,0.1-5.7l-0.3-0.3
			c-0.5,0-0.8,0.2-1.1,0.4c-0.2,0.9-0.2,1.8-0.4,2.7v1.4c-0.1,0.5-0.4,1.4-0.5,2c0,0.2,0.1,0.5,0.1,0.5c-0.1,0.2-0.4,0.6-0.4,0.7
			c-0.1,0.3-0.2,1.5-0.3,1.9c0,0.2,0.1,0.4,0.1,0.6c-0.1,0-0.2,0.1-0.3,0.1c-0.1,0.1-0.2,0.8-0.2,0.9c0,0.9-0.1,2.7-0.3,3.4
			c0,0.2,0.1,0.4,0.1,0.5c0,1-0.1,2-0.1,3c-0.1,0.6,0.1,2.2,0.1,2.6c0,0.7-0.2,1.7-0.3,2.4c-0.1,1.1,0.1,2.3-0.2,3.3
			c0,0.8-0.1,1.6-0.1,2.4c-0.3,1.2-0.3,2.9-0.5,4.1c-0.1,0.4-0.3,1.3-0.3,1.6c0,1.2,0.2,3-0.2,4.4c-0.7,2.7-0.5,6-0.9,8.3v5.1
			c0,0.3,0.1,0.8,0.1,0.9c-0.3,1.2-0.1,3.2-0.4,4.3c0,0.7,0.1,1.4,0.1,2c-0.2,0.8-0.2,2-0.3,2.9c0,0.3,0.1,0.7,0.1,1
			c-0.3,1.9-0.1,3.5,0.1,5.6c0,0.2-0.1,0.2-0.2,0.4c-0.2,0.6,0.2,0.9,0,1.5c0,0.1-0.2,0.4-0.3,0.5c0,0.4,0.1,0.8,0.1,1.1
			c-0.1,0.6-0.1,1.4-0.2,2.2c0,0.2,0.2,0.3,0.2,0.4c-0.5,1.8-0.5,5.7-0.3,6.9c0.2,1.3-0.5,3.7,0.2,4.5c0,0.9-0.6,0.6-1.2,0.9
			c-0.3,0.1-0.4,0.4-0.6,0.5c0,0.5,0.6,1.7,0.9,2v0.4c-1.4,0.3-2.8,0-4.1-0.4h-1.2c-0.8-0.2-1.9-0.2-2.6-0.4
			c-0.7-0.2-1.4,0.2-1.8,0.3h-1.4c-1,0.3-2.5,0.7-3.8,0.6c0-0.2,0-0.2-0.1-0.4c-0.1-0.2-0.2-0.3-0.3-0.4c-0.4-0.1-1.3-0.4-1.6-0.2
			c-0.2,0-0.2,0-0.4-0.1c0-0.2,0-0.2,0.1-0.4c1.2,0,2.2,0.3,3.3,0.5c0.5,0.1,0.5-0.2,0.9,0.1c0.7-0.1,0.7-0.4,1.1-0.6
			c-0.1-0.7-0.6-0.8-0.7-1.2l0.2-0.7c-0.1-1.1-0.2-2.9-0.1-3.8c0.1-0.5-0.1-1.2,0-1.5c0.1-0.7-0.2-1.9-0.1-2.4
			c0.3-0.8,0.4-2.4,0.4-3.5c-0.1-0.2-0.1-0.4-0.2-0.6c0.2-1.2,0.5-2.8,0.3-3.9c-0.2-1,0.3-2.1,0.2-2.8c-0.3-1.8-0.1-3.9-0.2-5.6
			c0-0.5,0.1-1.1,0.1-1.6c-0.2-0.9-0.1-2.3-0.1-3.3c0.1-1.1-0.1-2.3,0-3.2c0.3-2.2-0.2-4.8,0.4-6.2c0-1.1,0.1-2.1,0.1-3.2
			c0.1-0.5,0-1.8,0.3-2.4c0-0.2-0.3-0.2-0.2-0.5c0.5-2.1,0.3-4.9,0.8-7.1c0.3-1.3,0-2.5,0.4-3.8c0.9-3.8,1.3-7.6,2.4-11.2
			c0.4-1.4,1-4.1,0.2-5.1c-1.1,0.1-0.8,1-1.1,1.9c-0.1,0-0.1,0.1-0.2,0.1c0.2,0.4,0.4,1.4,0.3,1.9c-0.6,1.9-0.7,3.6-1.3,5.5
			c-0.4,1.2-0.7,3.3-1.1,4.8c0,0.6-0.1,1.2-0.1,1.8c-0.1,0.3-0.4,0.9-0.4,1.1c0,1.2-0.1,2.7-0.4,3.7v1.1c-0.2,0.9-0.2,2.6-0.4,3.3
			c0,0.8,0.1,1.5,0.1,2.3c-0.4,1.6-0.2,3.3-0.5,4.7c-0.1,0.2,0.1,0.3,0.1,0.4c0,0.6-0.1,1.3,0,2c0,0.3-0.1,0.3-0.2,0.4v1.5
			c-0.1,0.7-0.1,1.4-0.2,1.9c-0.1,0.7,0,1.7,0.1,2.2c0,0.3-0.3,0.5-0.3,0.6c0.3,0.7,0.4,4.9,0.2,5.9c-0.2,0.8,0.2,2.1-0.1,2.8
			c0.2,0.2,0.2,0.4,0.4,0.5c-0.1,0.2-0.3,0.5-0.4,0.8c-0.1,0.5,0.1,2.5,0.1,2.8c0,0.4-0.2,1.1-0.1,1.3c0,0.6,0.1,1-0.3,1
			c0.4,1.4,0,3.8-0.2,5.5c0,0.4,0.2,1.1,0.1,1.7c-0.2,0.7-0.3,2.5-0.3,3.2c0,1-0.3,4.6-0.1,4.9v0.1c-0.4-0.1-0.3-0.3-0.5-0.5
			c-0.2-0.1-0.4-0.1-0.5-0.2c-0.5-0.3-1.3-0.8-1.8-1.2H350c0.2-0.3,0.5,0,1-0.2c0.3-0.1,0.5-0.4,0.7-0.5c-0.1-1.4-0.7-2.6-1.1-3.9
			c0-1.1-0.1-2.3-0.1-3.4c-0.1-0.5-0.2-1.4-0.4-1.9v-1.7l-0.2-0.4c0-0.2,0.2-0.7,0.1-1.1c-0.4-1.7-0.5-3.8-0.9-5.5
			c-0.1-0.3,0.1-0.8,0.1-1c-0.1-0.8-0.1-1.6-0.2-2.4c-0.6-2.5-0.6-4.8-1.2-7.1c0-1.1-0.1-2.2-0.1-3.3c-0.5-1.9-0.4-4.1-0.9-6.2
			c-0.1-0.7,0.2-1.6,0.1-2.1c-0.3-1.4-0.2-3-0.1-4.2c0.1-0.8-0.2-3.6-0.4-4.1c0.2-0.5-0.2-1.1-0.1-1.6c0.1-0.8-0.2-1.9,0-2.7
			c0.1-0.4-0.2-0.9-0.2-1.1c0,0,0.3-0.3,0.3-0.4c0.1-0.5-0.1-1.4-0.1-1.9c0-0.9,0-1.7,0.3-2.1c-0.3-0.4-0.1-3.6,0.1-4.4
			c0.2-0.9-0.2-2.2-0.1-2.9c0.2-0.9-0.1-1.7-0.1-2.6c0-0.2,0.2-0.1,0.2-0.4c0-0.2-0.2-0.7,0-1v-0.8c2.2,0.4,4.4-0.4,4.8-2.3
			c0.2-0.9-0.5-2.4-0.4-2.9c-0.6-0.2-0.7-0.5-1.1-1.1c0.2-0.4,0.5-0.7,0.6-1.1c0.2-0.5-0.3-0.9-0.4-1.1c0.2-0.5-0.6-3.7-0.9-4.3
			c-0.1-0.1-0.2-0.2-0.4-0.3c-0.3-0.6-0.3-1.4-0.5-2.1c-0.4-1-0.9-2.2-1.2-3.2c-0.3-0.8,0.2-1.5,0-2.5c-0.3-1-0.3-3.2-0.2-4.2
			c0-0.2-0.1-0.4-0.1-0.6c0-0.9-0.1-2.6,0.1-2.9c0-0.4,0.1-0.4,0.2-0.7c1.3,0,2.7,0.6,3.5,0.8c0.2,0.1,0.6-0.1,1,0
			c1.4,0.4,2.7,0.4,4.1,0.8c0.1,0,0.2-0.1,0.4-0.1c1.3,0.2,2.4,0.1,3.7,0.4c0.4,0.1,1.2-0.2,1.4-0.2c0.9,0.3,2.5,0.4,3.5,0.4
			c0.3,0,0.8-0.2,1.2-0.1c2,0.4,4.8,0.1,6.8-0.4c0.5-0.1,0.6,0.4,1.1,0.3l0.3-0.3c0.4-0.1,0.8,0,1-0.1c1.2-0.3,2.5,0,3.7-0.3
			c0.6-0.1,1,0.2,1.6,0c1.2-0.3,2.3-0.8,3.5-1.1c0.6-0.2,3.4-0.5,3.5-0.3c0.2-0.1,0.1,0,0.2-0.3c1.3-0.1,4.9-0.9,5.6-1.5
			c0.2,0,0.3,0,0.4,0.1c0.2,0.3,0.2,1.6,0.2,2.1c0.6,1.1,0,1.4,0.1,2.5c0.2,1.6,0.1,3.6,0.4,5.1c0.3,1.3-0.3,3.3,0.6,4
			c-0.1,0.2-0.1,0.2-0.3,0.4c0.1,0.2,0.5,0.6,0.7,0.7c0.1,1.3,0.2,2.3,0.5,3.4c0.1,0.6,0.1,1.2-0.2,1.4c0.1,0.2,0.3,0.3,0.4,0.4
			c-0.1,0.6,0.1,1.8,0.3,2.6c0.2,1.1,0,2.5,0.2,3.5c0.1,0.6,0,1.6-0.1,2.1c-0.1,0.5,0.3,0.5,0.2,1.1c0,0.2-0.2,1-0.2,1.2
			c0.1,0.6,0.2,2.2,0.3,3c0.1,1.1-0.4,2.8,0.1,3.7c-0.2,1-0.4,2.5-0.3,3.7c0,0.3,0.1,0.8,0.1,1.1c-0.3,1.9-0.5,5.1-0.2,6.5v1.7
			C397.2,358.1,396.9,361.1,397.2,362.6z M391.9,350.7L391.9,350.7l-0.2,0.1v-0.2C391.8,350.6,391.9,350.7,391.9,350.7z
			 M399.6,319.9c-0.8-0.2-1.6-0.3-2.6-0.4c-0.1-0.2,0-0.4-0.1-0.5c0-0.7-0.3-0.8-0.8-1c0.1-0.9-0.2-2.5-0.4-3.3
			c-0.2-0.6,0.1-0.9,0-1.5c-0.1-0.3-0.3-1-0.2-1.4c0-0.1,0.3-3.1,0.2-3.4c-0.1-0.2-0.3-0.8-0.4-1.1v-1.1c-0.2-0.9-0.2-2.3-0.4-3.3
			c0-1-0.1-1.9-0.1-2.9c-0.1-0.3-0.3-1-0.4-1.3v-1.6c-0.1-0.6-0.2-2.1-0.4-3.3c0-0.2,0.1-0.6,0-1c-0.4-1-0.5-2.9-0.8-4.2
			c-0.1-0.5,0.1-0.8,0-1.1c0-0.1-0.3-0.4-0.4-0.5c0-0.2,0.1-0.7,0.1-0.8c0-0.4-0.2-1-0.3-1.3c0-0.1,0.1-0.8,0-1.1
			c-0.9-3.3-0.8-7-1.9-10.3v-1c-0.2-0.7-0.2-1.4-0.4-2.2c-0.6-2.2-0.8-4.9-1.4-7.1v-0.7c-0.3-1.2-0.6-2.4-1.1-3.4
			c-0.1-0.2,0-0.5-0.2-0.7c-0.1-0.1-0.4-0.2-0.5-0.4c-0.3,0-0.5,0-0.6,0.1h-0.2c0.2,1.7,1,3.9,1.5,5.7c0,0.5,0.1,1.1,0.1,1.6
			c0.6,2.5,0.7,5,1.4,7.3c0.1,0.4-0.1,0.8,0,1.3c0.5,1.8,0.5,4.1,1.3,5.6c0,0.1-0.3,0.4-0.2,0.7c0.1,0.4,0.3,1.2,0.4,1.9
			c0,0.1-0.2,0.4-0.1,0.6c0,0.1,0.3,0.3,0.3,0.4c0.1,0.4-0.2,1.3-0.1,1.9c0.4,1.8,0.4,3.6,0.9,5.3c0.4,1.5,0.5,3.1,0.7,4.6
			c0,0.4-0.1,1.3,0,1.7c0.1,0.8,0.4,1.8,0.4,2.6c0,1.7,0.7,4.1,0,4.9c0,0.7-0.2,0.6-0.4,1c-0.4-0.1-0.5-0.2-0.7-0.4
			c-1.2,0-1,0.7-1.9,1c-1.8,0.5-3.5,0.3-5.2,0.7c-0.3,0.1-0.8,0.3-1.1,0.4c-0.6,0.2-1,0-1.5,0.2c-0.5,0.2-1.1,0.6-1.8,0.8
			c-1.4,0.4-3.6-0.3-4.6,0.4c-0.5,0-1.1,0-1.5-0.1c-0.2-1.2-0.2-3.3-0.2-4.8c0-0.2,0.2-0.7,0.1-1.1c-0.1-0.6-0.2-1.5-0.4-2.2
			c-0.1-0.5,0.2-0.8,0.1-1.4c-0.1-0.5-0.3-1.5-0.3-2c0-0.3,0.1-1.2,0-1.7c-0.3-0.9-0.3-2.2-0.3-3.5c0-0.4,0.1-1.1,0.1-1.3
			c-0.4-2.5-0.5-4.7-0.8-7.4c-0.1-0.6,0.2-1.2,0.1-1.9c-0.2-1.1-0.2-2.5-0.4-3.3c-0.4-1.9-0.7-3.7-1.2-5.5v-1
			c-0.2-0.9-0.2-1.6-0.4-2.6c-0.1-0.5-0.9-2.5-0.7-3c0.1-0.2,0.4-0.5,0.5-0.8c0.7-2.1,1.7-3.8,2.7-5.6c0.8-1.3,1.2-2.6,2-3.9
			c0.4-0.7,1-1.4,1.5-2.1c0.1-0.1,0.4-0.2,0.5-0.4v-0.4c0.2-0.3,0.6-0.6,0.8-1V251c0.1-0.1,0.4-0.1,0.4-0.3c0.3-0.4,0.4-0.8,0.6-1.1
			c0.3-0.4,0.8-0.8,1.1-1.1c0.7-0.9,1.2-2,1.9-2.9c0.3-0.5,1-0.8,1.3-1.2c0.2-0.3,0.2-0.6,0.4-0.9c0.1-0.1,0.7-0.4,0.8-0.5
			c0-0.1-0.1-0.2-0.1-0.3c0.1-0.3,0.4-0.5,0.5-0.7c0.2-0.4,0-0.7,0.2-1.1c0.2-0.6,0.7-0.8,1-1.2c0.2,0,0.2,0,0.3,0.1
			c0.8,0.2,1.5,2.6,1.8,3.4c0.1,0.2,0.4,0.5,0.4,0.7c0.2,0.4,0.1,0.8,0.3,1.2c0.3,0.7,0.8,1.6,1.1,2.3c0.3,0.6,0.2,1.9,0.4,2.6
			c0.4,1.2,1.2,2.5,1.2,4h0.3c-0.1,0.8,0.4,1.3,0.6,1.9c0.2,0.4,0,0.7,0.2,1.1c0.1,0.3,0.3,0.8,0.4,1.1v0.5c0.4,0.9,0.8,2,1.1,3
			c0.1,0.5,0.1,0.9,0.2,1.4c0.7,2.2,1.2,5.4,1.9,7.4v1.1c0.1,0.4,0.3,0.9,0.4,1.2c0.3,0.8,0,1.6,0.3,2.5c0.5,1.9,1,4.6,1.5,6.3
			c0.1,0.4-0.2,0.5,0,1.1c0.8,2.7,0.8,5.6,1.7,7.8c0.2,0.4,0.4,2.9,0.4,2.9c0.1,1.1,0.5,2.8,0.7,4c0.1,0.3-0.2,0.7-0.1,1.1
			c0,0.1,0.3,0.3,0.4,0.4c0,0.3-0.1,0.5-0.1,0.8c0.1,0.6,0.4,1.7,0.4,2.2c-0.1,0.7,0.5,1.9,0.4,2.1c0,2,0.5,3.9,0.8,5.6
			c0,0.1-0.2,0.4-0.2,0.4c0,0.4,0.1,1,0.2,1.5c0.3,1.3-0.1,3.4,0.3,4.1c0.1,0.2-0.1,0.4-0.1,0.5c-0.1,0.7,0,2.3,0.4,2.6
			c-0.1,0.3-1.5,1.2-1.8,1.2c-0.2-0.1-0.4-0.1-0.5-0.2C400.9,319.7,400.2,320.1,399.6,319.9z M417,324.4c-2.5,0.9-7.3,0.6-9.7,0
			c-0.4-0.1-1.1,0.1-1.3,0.1c-1.1,0-1.8,0-2.6,0c-0.2,0.1-0.4,0.3-0.5,0.4c0.1,2.7-0.3,5.5-1.9,7.2c-0.2,0-0.2,0-0.4-0.1
			c-0.5-2.2,0.4-4.6,0-6.6c-0.2-1.1,0-2.8-0.8-3.3c0-0.3,0-0.5,0.1-0.6c0.7,0,1.4-0.1,2-0.1c0.9-0.3,1.9-0.4,2.6-1
			c0.6,0,0.7,0.3,1.1,0.4c0.6,0.3,1.5,0.4,2.2,0.5c0.7,0.1,1.8-0.1,2.7,0.1c2.1,0.5,5.2,0.3,6.9,1.3
			C417.1,323.2,417,323.9,417,324.4z M366.5,218.7c0.2,0,0.3-0.2,0.4-0.2c0.3,0,0.2,0.1,0.3,0.2c0.2,0,0.4-0.1,0.6-0.1
			c1,0.2,1.7,0.3,2.5-0.4c0.1-0.1,0.1-0.4,0.3-0.5c0.2-0.2,0.6-0.4,0.7-0.6c0.3-0.6,0.2-1.6,0.4-2c0.1-0.2,0-0.1,0.1-0.2
			c0.6,1.5,1.7,2.7,3.4,2.8c0.1,0.3,0.2,0.4,0.1,0.6c0.2,0.2,0.4,0.2,0.6,0.4c1,0.9,2.3,2.4,2.4,4.1c-0.7,0-1.4,0.2-1.9,0
			c-0.7-0.2-2.1-1.6-2.6-2.1c-0.1-0.1-0.1-0.1-0.1-0.3c-0.6-0.1-1.1-0.8-1.3-1.2c-0.2,0-0.5,0.1-0.7,0.2c-0.3,0.1-0.3,0.3-0.5,0.5
			c0.1,1.1,1.2,1.5,1.7,2.3h0.4c0.1,0.5,0.3,0.4,0.6,0.7h0.4c0,0.2,0.1,0.4,0.1,0.5c0.2,0,0.2,0,0.4-0.1c0.4,0.7,1.1,1,1.9,1.2
			c0.4,0.1,0.4-0.3,0.7-0.2c0.3,0.1,0.9,0.3,1.3,0.1c2.8-0.2,1.3-4,0.4-5.2c-0.2-0.3-0.7-0.4-0.9-0.7c-0.3-0.3-0.6-0.9-0.5-1.2
			c-0.1-0.1-0.2-0.1-0.4-0.1c0.1-0.7,1.1-1.3,1.4-2.1c0.8-2.3-0.9-4.1-2.6-4.8c-1.3-0.5-1.6,0.6-2.8,0.3c-0.2,0.3-0.1,0.6-0.4,1
			c-0.5,0.8-0.9,1.3-1,2.6c-0.3-0.2-0.8-2.1-1.1-2.6c-0.6-0.8-1.9-0.4-2.4-1.1c-0.4,0.1-0.6,0.4-0.8,0.4c-0.5,0.1-1.3-0.3-2,0
			c-1.3,0.5-2.5,3.1-1.9,4.8C363.8,216.7,365.6,218.6,366.5,218.7z M373.9,212.1c0.5,0.1,1.3-0.1,1.8,0.3c0.6,0.1,0.6,0.4,1,0.8v0.8
			c-0.6,0.1-0.7-0.2-1.1-0.4c-0.7-0.2-1,0.2-1.5,0.3c0,0.3-0.2,0.9,0,1.2v0.1c-0.2-0.1-0.3-0.2-0.4-0.3
			C373.3,213.8,373.4,213.1,373.9,212.1z M365.2,213.8c0.1-0.4,0.5-0.9,0.7-1.2c1.3-0.5,1.9-0.2,3,0.1c-0.1,0.2,0,0.1-0.1,0.2
			c0.1,0.5,0.4,0.3,0.6,0.6c0.2,0.3,0,0.9,0.3,1.2v0.3c-0.4-0.3-1.3-0.9-1.9-0.8v0.1c-0.3,0.2-0.8,0.4-1.1,0.4
			c0,0.4-0.1,0.5-0.3,0.7c0.2,0.4,0.6,1.1,0.9,1.3v0.2c-0.2-0.1-0.1,0-0.2-0.1C366,216.8,364.9,215.2,365.2,213.8z M374,227.7
			l-0.8,0.3c0,0.1-0.1,0.2-0.1,0.3c-0.2,0.2-2.8,0.5-3.2,0.4c-0.5-0.1-0.9-0.3-1.4-0.4c-0.3-0.2-0.3-0.5-0.7-0.7
			c-0.1-0.1-0.3-0.1-0.5-0.1c-0.2,0.4-0.5,0.1-0.6,0.7c-0.2,0.5,0.7,1.5,1.3,1.5c0,0,0.1-0.1,0.1-0.1c0,0.1,0.1,0.2,0.1,0.3
			c0.2,0.2,2.1,0.7,2.6,0.5c1.8-0.6,3.1-0.1,4.4-1.7c-0.1-0.6-0.3-0.5-0.3-0.9C374.6,227.7,374.3,227.7,374,227.7z M369.3,280.6
			c0.3-0.6-0.3-1.4-1.1-1.5c-0.2,0.1-0.6,0.1-0.8,0.3c-0.5,0.2-0.7,1.2-0.7,2c0.2,0.2,0.5,0.4,0.7,0.6
			C368.2,282,368.8,281.1,369.3,280.6z M367.9,290.9v-0.3h-0.1c-0.1-0.1-0.1-0.1-0.3-0.1c0,0.3,0.1,0.3,0.1,0.4
			c0,0.1-0.1,0.2-0.1,0.4c-0.1,0-0.1-0.1-0.4-0.1c0,0.3-0.1,0.3-0.2,0.4c0.4,0.4,0.3,0.8,0.7,1.4c0.2,0.2,0.5,0.3,0.7,0.5
			c1.1,0,1-0.6,1.7-0.9c-0.2-0.8-0.3-1.5-1.1-1.8C368.7,290.7,368.2,290.8,367.9,290.9z M367.1,291.2c-0.1-0.2,0-0.1-0.3-0.2
			C366.8,291.3,366.7,291.2,367.1,291.2C367,291.3,367,291.2,367.1,291.2z M369.1,300.1c-0.3,0.3-1,0.6-1.3,0.8c0,0.5,0,1.4,0.2,1.6
			l0.4,0.4c0.4,0,0.6-0.1,0.8-0.3c0.4-0.2,0.6-1,1-1.3c0-0.7-0.2-0.8-0.4-1.2L369.1,300.1L369.1,300.1z"/>
	</g>
</g>
<g>
	<g>
		<path class="st0" d="M499.5,408.6c-0.2-0.2-0.4-0.3-0.5-0.6c-2.4-0.2-3.4,1.2-3.9,3.1c-0.1,0.4,0.1,0.6-0.1,1.1
			c-0.3,0.9-0.7,1.8-1,2.7c-0.3,1-0.7,2.6-1.6,3v0.3c-0.9-0.1-1.5-0.8-2.1-1.2l-0.8-0.3c-1.1-0.7-3-1.8-4.7-1.7
			c-0.1,0-0.2-0.2-0.3-0.2c-0.8-0.2-1.9,0.2-2.3,0.5c-0.3-0.2-0.5-0.5-0.7-0.8c-0.3-0.3-0.8-0.5-1.1-0.8c-0.2-0.2-0.3-0.6-0.5-0.8
			c-0.5-0.5-2.1-0.4-2.9-0.2c-0.4,0.1-0.8,0-1.1,0.2c-0.7,0.3-1,1.1-1.5,1.6c-0.2,0.2-0.5,0.4-0.7,0.5c-0.2,0.3-0.2,0.6-0.4,0.8
			c-0.5,0.5-1.8,0.4-2.6,0.6c-0.4,0.1-1,0.7-1.7,0.5c-0.2-0.1-0.5-0.4-0.7-0.4c-0.4-0.1-0.8-0.1-1.1-0.2c-0.1-0.1-0.4-0.3-0.5-0.4
			c-0.1,0-0.3,0.1-0.4,0.1c-1.5-0.5-3.2-0.8-4.7-1.3c-0.4-0.2-0.9-0.6-1.3-0.8c-0.8-0.4-1.8-0.7-2.6-1c-1.6-0.5-3.5-0.7-5-1.1
			c-0.9-0.1-1.8-0.2-2.7-0.3c-0.9-0.2-1.9-0.5-2.8-0.7c-0.6,0-1.3-0.1-1.9-0.1c-0.1,0-0.3-0.3-0.4-0.3c-0.2,0-0.4,0.1-0.5,0.1
			c-0.6-0.1-1.7-0.4-2.2-0.7c-0.5-0.3-0.9-0.8-1.3-1.1c-0.4-0.3-0.9-0.5-1.2-0.9c-0.5-0.7-1.2-1.4-1.6-2.2c-0.2-0.3-0.3-0.6-0.3-1.1
			l0.1-0.1c-0.1-0.2-0.4-0.3-0.5-0.5c0-0.3-0.1-0.5-0.1-0.8c-0.2-0.7-0.7-1.4-1-2c-0.2-0.3-0.1-0.6-0.3-1c-0.4-0.8-0.7-1.8-1.1-2.6
			c-0.1-0.3-0.7-0.8-0.7-1.1c-0.1-0.3,0.9-1.6,1.1-1.9c0.1-0.2-0.1-0.3-0.1-0.4c0.3-1.2,0.8-2.8,1.1-4c0-0.4,0.1-0.7,0.1-1.1
			c0.5-1.2,0.9-2.5,1.2-3.8c0.2-0.6,0.2-1.1,0.4-1.5v-0.9c0.1-0.3,0.5-0.8,0.6-1.1c0.1-0.4,0.1-3.2,0-3.6c-0.4-1.7,0.2-3.9-0.1-5.5
			c-0.1-0.5,0.2-0.6,0.3-0.9c0.1-0.4-0.1-0.7-0.2-1c0-0.7,0.1-1.5,0.1-2.2c-0.1-0.5,0-1.2-0.2-1.9c-0.4-1.2-0.8-2.3-1.1-3.4
			c-0.1-0.7-0.2-1.5-0.4-2.2c-0.3-0.9-0.9-1.7-1.2-2.6c-0.3-0.7-0.4-1.3-0.8-1.9c-1-1.6-2-3-2.9-4.7c-0.1-0.1-0.2-0.2-0.4-0.3
			c-0.3-0.4-0.5-0.9-0.8-1.2c-0.3-0.3-0.7-0.5-1-0.9c-0.1-0.2,0.1-0.6,0-1c-0.1-0.4-0.4-1.1-0.5-1.5c-0.1-0.3,0.1-1.4,0.2-1.8
			c0.1-0.4-0.1-0.7-0.1-0.9c0.1-0.4-0.2-0.7,0-1.1c0.1-0.8,1.3-0.9,1.8-1.3c0.8-0.8,0.7-2.3,1.1-3.4c-0.9-0.8-1.6-1.7-3.1-1.7
			c-0.1-0.4,0.1-0.8,0-1c-0.1-0.2-0.4-0.7-0.4-0.9c0.1-0.5-0.2-1.7-0.4-2.2c0-0.3,0.1-0.5,0.1-0.8c-0.1-0.4-0.5-0.8-0.6-1.1
			c-0.5-1.3-1-2.6-2-3.6c0.1-1.3,1.3-1.9,1.2-3.2c-1.1,0-2,1.4-2.3,2.2c-0.5-0.1-0.6-0.2-0.9-0.4c0.1-0.6,0.4-1.3,1.1-1.4
			c-0.1-0.4,0-0.6,0.3-0.9v-0.7c-0.3,0-0.2,0-0.6,0c-0.7,0.7-1.6,1.6-1.9,2.6c-0.4,0-0.8-0.1-1.1-0.3c-0.1-0.2,0.9-2.5,1.1-2.7
			c0-0.3,0-0.5-0.1-0.7c-0.3,0-0.4,0-0.6,0.2c-0.6,0.2-1.3,2.3-1.6,3c-0.5-0.1-0.9-0.1-1.4-0.2l-0.1-0.1l-4.1,1.7
			c-0.1,0.9-1.1,1.2-1.4,1.8c-0.2,0.4-0.2,0.7-0.4,1.1c-0.1,0.1-0.2,0.1-0.3,0.2c0,0.2-0.1,0.4-0.1,0.5c-0.3,0.4-0.8,0.7-1.1,1.1
			c-0.2,0.3,0,0.9-0.1,1.3c-0.3,1.2-0.6,2.2-0.7,3.8c-1.2,0-2.7,0.6-3,1.5c-0.4,0.7,0.1,1.5,0.1,2.3c0.7,0.7,1,1.5,2.5,1.5
			c0,0,0.1,0.1,0.1,0.1c-0.2,1-0.2,2.9,0,4.1v2.3c0.2,0.7,0.4,2.7,0.3,2.9c-0.5,1.5-1.7,2.3-2.9,3.3c-0.7,0.5-1,1.4-1.5,2.1
			c-0.5,0.7-1.4,1.4-1.8,2.3c-0.2,0.4-0.1,0.8-0.3,1.2c-0.1,0.2-0.4,0.6-0.4,0.8v0.8c-0.1,0.3-0.5,0.8-0.6,1.1
			c-0.5,1.3-0.7,3-1.1,4.4c-0.2,0.6,0.1,1.1,0,1.6c-0.1,0-0.1,0.1-0.2,0.1c-0.2,0.4,0.1,1.1,0,1.3l-0.3,0.3c-0.1,0.4,0.3,1,0.2,1.6
			c0,0.1-0.2,0.4-0.2,0.5c0,0,0.2,0.2,0.2,0.3c0,0.4-0.2,0.8-0.3,1.1c-0.1,0.3,0.2,1.1,0.2,1.1c0.1,0.4-0.1,0.8-0.2,1
			c0.1,0.6-0.3,1.4-0.1,2c0.1,0.1,0.1,0.1,0.2,0.2c0.1,0.5-0.5,1.7-0.4,2.4c0.3,2.1,0.5,4.1,1.1,6.4v1.1c0.1,0.2,0.2,0.7,0.3,1v1
			c0.8,2,1.5,4.2,2.4,6.2c0.2,0.5,0.7,0.8,0.9,1.2c0,0.2,0.1,0.4,0.1,0.6c0.1,0.2,0.5,0.5,0.6,0.7c0.2,0.5-0.1,1.6-0.1,2
			c0,0.4,0,3.3,0.1,3.6c0.3,0.8,0.1,1.7,0.2,2.5c0,0.3,0.3,1.2,0.3,1.4c-0.1,0.3-0.1,0.5-0.2,0.8c0,0.3,0.3,0.6,0.4,0.9
			c0.1,0.3-0.1,0.9,0.1,1.5c0.1,0.2,0.3,0.6,0.4,0.8c0.1,0.3-0.1,0.8,0,1.2c0.6,1.9,1,4.3,1.6,6.2c0.3,1,0,2.1,0.5,2.9
			c-0.1,0.4-0.3,0.3-0.6,0.4c0.1,0.1,0.1,0.1,0.3,0.2c-0.1,0.2-0.1,0.1-0.2,0.4c0.2,0,0.2,0,0.3-0.1c0.2,0,0.2,0,0.4,0.1
			c0.2,1.1,0.4,2.1-0.3,2.8c-0.2,0.3-0.4,0.2-0.8,0.4c-0.5,0.2-1.1,0.6-1.7,1l-0.9,0.9c-0.9,0.7-2,1.2-3,1.9c-0.1,0.2,0,0.1-0.1,0.2
			c0,2.2,3.4,3,5.6,2.5c1.5-0.4,3.6-0.7,5.2-1.3c1.1-0.4,2.3-1.2,3.4-1.7c0.1,0,1.1-0.2,1.4-0.4c0.8-0.4,1.5-1.1,2.3-1.4
			c0-0.2,0-0.2-0.1-0.3v-0.2c1.1,0.4,2.2,1.6,3.2,2.1c1,0.5,2.2,0.9,3.3,1.2c0.6,0,1.1,0.1,1.7,0.1c1.1,0.3,1.8,0.2,2.9,0.4
			c0.3-0.1,0.6-0.2,1-0.3c0.4-0.1,0.7,0.1,0.9,0.2c0.5,0.1,0.7-0.2,1-0.1c0.2-0.1,0.3-0.5,0.5-0.7c0-2-1.3-3.4-2.6-4.2
			c-0.6-0.4-2-0.9-2.3-1.6c-0.2-0.3-0.2-1.3,0-1.7v-0.2h0.3c0-1-0.2-2.9,0.2-3.8c0.1-0.2,0.2-0.2,0.3-0.4c0.1-0.5-0.1-1.8,0-2.3
			c0.1-0.6-0.1-2.6-0.3-3.1c0-0.1-0.2-0.4-0.2-0.5c0-0.1,0.2-1.1,0.4-1.3c0,0,0.3-0.1,0.4-0.2c0-0.1-0.1-0.3-0.1-0.4
			c0.3-1.1,0.6-2.3,0.9-3.4c0.2-0.7-0.1-2,0-2.5c0.2-0.8,0.3-2.2,0.6-2.8c-0.2-0.6,0.2-2.6,0.5-3v-0.1c0.5,0.6,0.5,1.2,0.9,2
			c0.3,0.6,0.8,1.2,1.1,1.9v0.6c0.5,1.6,1.9,4.5,3,5.4c1.3,1,2.5,2.3,4.2,2.9c0.6,0.2,2,0.5,2.6,0.4c0.1,0,1.1-0.1,1.5,0
			c2.2,0.7,4.8,1,6.9,1.6h1c0.4,0.1,1,0.3,1.4,0.4h0.7c0.3,0.1,0.8,0.4,1.1,0.5c0.5,0.2,1,0.2,1.5,0.4c0.5,0.3,1.2,0.8,1.8,1.1
			c0.8,0.3,1.4,0.3,2.2,0.5c1,0.3,1.8,1,3.1,1l0.1,0.1c-0.6,0.6-1.3,0.7-2,1.1c-0.2,0.2-0.3,0.6-0.5,0.8c0,1.1,0.8,0.9,1.6,1.1
			c0.5,0.2,1.5,0.5,2.3,0.6c1.1-0.1,2.2-0.2,3.3-0.3c0.1,0,0.3,0.3,0.3,0.3c0.4,0.2,0.7-0.3,1.1-0.1h0.7c0.2,0.1,1.7,1.8,1.9,2.1
			c0,0.2-0.1,0.5-0.1,0.7c0.1,0.5,0.6,1.5,0.9,1.9c-0.4,0.8-1.3,1.1-1.5,2.1c-0.1,0.4,0.2,1.2,0.3,1.4c0.2,0.6,0.3,1.2,0.6,1.7
			c0.5,0.7,2.2,1.5,3.3,1.1c0.4,0,0.7-0.1,1.1-0.1c0.1-0.2,0.3-0.4,0.4-0.5c0.4-0.3,0.7-0.3,0.9-0.7c0-0.2,0.1-0.4,0.1-0.5
			c0.1-0.1,0.4-0.1,0.5-0.3c0.3-0.5,0.3-1.3,0.4-1.9c0.8-0.1,3.4-0.1,3.6-0.4c0.4,0.1,0.3,0.3,0.8,0.4c-0.1,0.2-0.1,0.2-0.3,0.4
			c0.2,1.8,1.9,3.1,3.5,3.3c0.3,0.1,1-0.3,1.2-0.4c0.7-0.2,1.2-0.1,1.7-0.4c1.3-0.9,1.6-2.5,1.1-4.1c-0.1-0.2,0-0.5-0.1-0.6
			c0-0.7-0.4-0.6-0.6-1.1c-0.1-0.4,0.9-1.2,1.1-1.6c0.4-0.7,0.3-1.5,0.5-2.3c0.1-0.2,0.4-0.5,0.4-0.7c0.1-0.3-0.1-0.8-0.2-1.1
			c0.3-0.3,0.6-0.5,0.9-0.7c0.2-0.3,0.1-0.6,0.3-1c0.2-0.5,0.6-1.1,0.9-1.5c0.2-0.4,0.2-0.9,0.4-1.2c0.5-0.7,0.9-1.4,1.3-2.3
			c0.5-0.9,1.5-1.7,1.7-2.9C500,410.1,499.7,409,499.5,408.6z M410.4,339.7v0.4c-0.4-0.1-0.8-0.3-1.1-0.4c0-0.6-0.1-1,0.1-1.4
			c0.3-0.1,0.6-0.2,0.8-0.4c0.2,0.1,0.2,0.1,0.4,0.2C410.5,338.5,410.6,339.4,410.4,339.7z M412.6,335.1v-0.4c0,0,0.1,0.1,0.1,0.1
			c0.3,0.1,0.4,0.4,0.4,0.7c0.5,0.1,0.9,0.3,1.3,0c0.3-0.1,0.9-0.9,0.7-1.4c-0.1-0.2-0.3-0.3-0.4-0.7h0.4c0.3,0.4,0.8,0.7,1,1.3
			c0.4,0.8-0.7,1.8-1.1,2.3c-0.3,0-0.9,0-1.1-0.1c-1,0-1-0.4-1.5-0.9C412.5,335.9,412.4,335.3,412.6,335.1z M411.6,343.3
			c0.2-1.7,0.2-3.5,0.2-5.2c0.9,0.3,2.9,1.1,4.1,0.5c0.4-0.2,0.9-0.6,1.1-1c0.1-0.2,0.1-0.4,0.2-0.5c0.5-0.6,1.3-1.4,0.9-2.7
			c-0.3-1.2-1.6-1.7-1.9-2.6c-0.8,0-1.2-0.1-2.1-0.1c0-0.4,0-0.6-0.3-0.8c0.1-0.7,2.5-3.3,3-3.5h0.6c0.4-0.1,1.1-0.7,1.5-0.4h0.7
			c-0.1,0.3-0.2,0.6-0.3,0.9c-0.1,0.6,0.3,1.1,0.1,1.4v0.2c0.3,0,0.5,0,0.6,0.1c0.3-0.1,0.4-0.1,0.6-0.3c0.1-0.6,0.4-1.2,0.4-1.9
			h0.5c-0.1,0.5-0.3,0.7-0.6,1c-0.1,0.4,0.2,1.7,0.9,1.1c0.7-0.2,0.6-1,1.1-1.4c0.1-0.1,0,0,0.2-0.1c0.1,0.1,0.3,0.2,0.4,0.3
			c-0.1,0.4-0.3,0.6-0.5,0.8c0,0.5,0.1,0.7,0.2,1.1c0.2,0,0.3,0.1,0.4,0.2c0.6-0.1,0.9-0.4,1-0.9h0.4c0.1,0.4,0.4,0.5,0.5,0.8
			c0.1,0.3,0.1,0.6,0.2,0.9c0.3,0.6,0.7,1.4,1,2c0.2,0.5-0.1,1.1,0,1.4c0.1,0.4,0.3,2.3,0.4,2.5c-0.1,0.3-0.9,0.6-1.1,0.8
			c-0.1,0.2,0,0.1-0.1,0.2c0,1.5,2.7,1.5,4.1,1.4c-0.1,0.6-0.1,1-0.3,1.5c-0.2,0.2-0.6,0.5-0.9,0.6h-1.1c-0.4,0.1-0.6,0.3-1.1,0.4
			l-0.1,0.1c0.2,0.7,0.9,1.1,1,1.9c0.1,0.7,0.1,2,0.1,2.7c0,0.3-0.2,1.2-0.2,1.2l0.4,0.4c0.1,0.3-0.1,0.4,0,0.6
			c0,1.1-0.8,0.9-1.4,1.2c-0.2,0.3,0.1,0.4-0.1,0.7c-0.1,0.2-0.7,0.8-0.9,0.9c-1,0.7-2.5,0.4-4,0.7c-0.8,0.2-2,0.1-2.8,0.2
			c-2.6,0.3-4.3-0.5-6.3-1.4c0.1-0.9-0.1-3.2-0.6-4.2C412.1,345.5,411.4,344.7,411.6,343.3z M406.7,395.8
			C406.7,395.9,406.7,395.9,406.7,395.8c-0.2-0.3-0.5-0.6-0.6-0.9c-0.4-0.9-0.5-1.6-0.9-2.4c-0.1-0.1-0.4-0.4-0.4-0.5
			c-0.6-1.5-0.7-3.5-1.1-5.1c0-0.4-0.1-0.8-0.1-1.2c-1.1-2.7-0.6-7-0.4-10.5c1-0.1,2.3,0,3.3,0c0,0,0.1,0.1,0.1,0.1
			c0,0.7-0.1,1.4-0.3,1.9c-0.2,1,0,2.6,0.1,3.3c0,0.2-0.1,0.4-0.1,0.5c0,0.5,0,1.3,0.1,1.9c0.2,1.7-0.2,3.3,0.1,4.6
			c0.1,0.3,0,1.1,0.1,1.5c0.1,0.4,0.6,0.9,0.6,1.4C407.2,391.4,407.2,395,406.7,395.8z M408.5,408.2c-0.2-1,0.1-2.7-0.2-4
			c-0.1-0.4-0.4-3.7-0.2-4.4c0.1-0.3,0.5-0.6,0.4-1.1c-0.5-1.8-0.1-4.5,0.4-6.8c0.8,0,2.4,0,2.9,0.4c0.1,0,0.1,0.1,0.2,0.1
			c0,1.1-0.1,2.1-0.3,3.2c-0.1,0.5,0.1,1.6-0.1,2.2c-0.2,0.9,0.1,2.3,0,3c-0.1,1.2-0.2,3.2-0.1,3.8c0.3,1.5-0.3,4.5,0.2,5.1v0.4
			c-1-0.1-2.2,0-2.9-0.5C408.4,409.1,408.6,408.8,408.5,408.2z M419.7,424.6c-0.1,0.3,0,1.2,0,1.4c-0.6,0.1-1.1,0.4-1.7,0.5h-3.3
			c-0.3-0.1-0.7-0.4-1.1-0.5c-0.6-0.2-1.3-0.1-1.9-0.4c0-0.1,0.3-1,0.2-1.3c-0.1-0.3-0.4-0.7-0.5-1.1v-0.9c-0.1-0.4-0.3-0.9-0.4-1.2
			c-0.2-0.6,0-1-0.2-1.6c-0.3-1.2-0.8-2.8-1.1-4.1c0-0.2,0.1-0.4,0.1-0.5c0-0.2-0.3-0.5-0.4-0.7c-0.3-0.9,0-1.8-0.4-2.4v-0.4
			c1.2,0.6,6.4,1,7.7,0.7c0.8-0.2,1.6-0.1,2.1-0.6c0.3,0,0.4,0,0.5,0.1c0,4.6,0.2,8.5,0.6,12.6C419.9,424.2,419.7,424.5,419.7,424.6
			z M420.2,400.4c-0.2-0.1-0.6,0.1-0.8,0.3c-0.2,0.9,0.1,1.9,0.3,2.8c0,0.1-0.2,1.1-0.3,1.3c-0.1,0.6,0.1,1.5,0,2
			c-0.1,0.7,0.3,1.9-0.1,2.5c-0.4,0.7-3.5,0.9-4.3,1c-0.4-0.8-0.4-2.5-0.4-3.7c0-0.4,0.1-0.7,0.1-1.1c-0.2-1,0.2-2.4,0.1-3.6
			c-0.3-3,0.2-6.1,0.4-9.4c0,0,0.1-0.1,0.1-0.1c3.1,0.1,5.1,0.5,8.3,0.5c-0.1,1.1-0.2,2.7,0,3.9c0,0.5-0.1,0.9-0.1,1.4
			c0.1,0.4,0.1,2,0,2.4c-0.2,1.3,0.2,2.4,0.1,3.4c-0.3,2-0.3,4.9-0.4,6.8c-0.9,0.1-1.6-0.2-2.3-0.1c-0.2-0.7,0.2-1.5,0-2.3
			c-0.4-1.8,0.9-6.1-0.4-7.8C420.5,400.5,420.5,400.5,420.2,400.4z M428.4,422.5c-0.2,0.7,0.2,1.8-0.2,2.2c-0.1,0-0.3,0.1-0.4,0.1
			c-0.6,0.3-1.3,0.8-2.1,1c-0.6,0.2-1.1,0-1.5,0.1c-0.7,0.1-1.2-0.2-1.9,0.2h-0.9c-0.1-0.6-0.2-1.9-0.1-2.7c0-0.3,0.1-0.6,0.1-0.9
			c-0.5-2.2-0.2-4.6-0.7-6.4c-0.3-1.1,0.3-2.6,0-3.4c0.7-0.2,1.5,0.1,2.3,0.2c0.2,0,0.6-0.2,0.8-0.2c0.2,0,0.3,0.1,0.4,0.2
			c0.7,0.2,1.7-0.1,2.1-0.2c0.7-0.2,1.7,0.1,2.2-0.3h0.2c0,0.2,0.1,2.1,0.1,2.1c0.1,0,0.2,0.1,0.3,0.1c0.1,0.1,0.1,0.6,0.2,0.7
			c0.3,1.1-0.1,2.5-0.4,3.2C429.4,419.8,428.7,421.7,428.4,422.5z M431.1,401.4c-0.1,0.5,0.1,0.7,0,1.2c-0.2,0.7-0.3,1.4-0.5,2.2
			c0,0.6-0.1,1.1-0.1,1.7c-0.3,1.3-0.3,2.9-0.8,3.7c-0.2,0.2-2.5,0.5-3.2,0.5c-0.1-0.8,0.1-2.2,0.1-3c0-1.2-0.1-3.2,0.1-4.4
			c0.1-0.6-0.2-1.3-0.1-1.8c0.1-0.7,0.2-2.1,0-3.2c0-0.3,0.1-1,0.1-1.4c0-1.2,0-2.8-0.2-4.1c0.6,0,1.5,0.2,2,0.1
			c0.4-0.1,1-0.6,1.4-0.7c0.4-0.1,1.2,0.1,1.7,0.1C432,395.5,431.8,398.6,431.1,401.4z M432.1,371.6c0.1,0.5,0.1,1.5,0.2,2.1
			c0,0.3-0.1,0.6-0.1,0.9c0.1,0.8,0.1,2.2,0.2,3c0,0.2-0.2,0.7-0.2,0.9c-0.1,0.9,0.2,2,0,3c0,0.1-0.2,0.3-0.2,0.5
			c0.3,1.7,0.1,3.5-0.1,4.9c0,0.2,0.2,0.7,0.1,1c-0.1,0.5-0.2,1.7-0.5,2.1l-0.4,0.4h-0.3v0.3c-0.9-0.2-1.1,0-1.9,0.3
			c-0.5,0.1-1.6-0.1-1.7-0.1c-0.1,0.1-0.1,0.2-0.2,0.3c0,0-2.6,0.2-3,0.2c-0.6-0.1-2.6,0-3.7-0.3h-1.9c-1.5-0.4-3.4-0.3-5-0.6h-1.3
			c-1-0.2-2-0.4-3.3-0.4c-0.5-1.1-0.8-2.1-1.1-3.3c-0.1-0.5,0.2-2,0.1-2.6c-0.1-0.8-0.3-1.5-0.1-2.3c0.1-0.3,0-0.8-0.1-1
			c0-1.3,0.1-2.5,0.1-3.8c0.3-1.1,0.6-2.6,0.5-3.9c-0.1-1,0.8-4.1,0.6-4.4c0.1-0.3,0.4-0.6,0.2-1c0-0.2,0-0.3-0.1-0.4
			c-0.3-0.1-0.6-0.1-0.9,0.1c-0.7,0.5-0.9,3.2-1.2,4.4c-0.2,0.6,0.1,1.2-0.3,1.6c0,0-2.1,0.1-2.3,0c-1,0-0.8-0.1-1.2-0.4
			c0-0.9-0.3-2.1,0-3c0.1-0.3,0.2-0.5,0.3-0.9c0-0.2-0.1-0.4-0.1-0.5c0.1-0.4,0.2-0.8,0.2-1.3c0-0.2-0.1-0.4-0.1-0.5
			c0.3-1.2,1-2.8,1.4-4.1c0.5-1.4,0.6-2.7,1.3-3.8c0.1-0.1,0.4-0.3,0.4-0.4c0-0.1,0.1-0.3,0.1-0.4c0.1,0,0.2-0.1,0.3-0.1
			c0-0.1,0.1-0.3,0.1-0.4c0.1-0.1,0.3-0.1,0.4-0.2v-0.3c0.2-0.3,1.2-1.5,1.4-1.7c0.1-0.1,0.4-0.1,0.5-0.2c0.6-0.4,1.3-1.3,1.4-2.1
			c0.4,0,0.5-0.1,0.6-0.4c1,0.1,2.2,1,3.2,1.3c0.5,0,1.1,0.1,1.6,0.1l0.3,0.3c0.4-0.1,0.8-0.1,1.1-0.2c1.5,0.2,6.8-0.1,8.1-0.8
			c0.5-0.2,0.8-0.9,1.2-1.1c0.4-0.2,0.6-0.2,0.9-0.5c0.3,0,0.4,0.1,0.5,0.2h0.1v-0.4h0.4c0.6,0.9,1.3,1.9,1.9,2.8
			c0.2,0.1,0.4,0.3,0.5,0.4c0.2,0.3,0.2,0.7,0.4,1c0.1,0.1,0.2,0.2,0.4,0.3c0,0.2,0.1,0.4,0.1,0.5c0.1,0.2,0.6,0.3,0.7,0.5v0.7
			l0.4,0.4c0.1,0.2,0.1,0.4,0.2,0.6c0.2,0.4,0.5,0.8,0.7,1.1c0.4,0.8,0.6,2,0.9,2.7c0.1,0.5,0.1,1.1,0.2,1.6
			c0.1,0.2,0.4,0.5,0.4,0.7c0.1,0.3-0.1,0.7,0.1,1.1c0.1,0.1,0.3,0.3,0.4,0.4c0.1,0.6,0.1,1.1,0.2,1.7c0,0.1-0.1,0.3-0.1,0.4
			c0.3,1.1,0.2,2.7,0.1,3.7l-0.1,0.1c-0.9,0-2.1,0.1-2.5-0.2c-0.2-0.3-0.1-1.4-0.4-1.9v-0.8c0.4,0.2,0.7,0.1,1.2,0.1
			c0.4-0.4,1.4-0.9,1.2-1.8c-0.1-0.3-0.3-0.6-0.4-1c-0.5,0-0.8-0.3-1.2-0.2c-0.5,0.1-0.8,0.7-1.1,0.9c-0.3,0-0.6-0.1-0.9-0.1
			c-0.2,0.1-0.4,0.3-0.5,0.4C431.7,369.4,432,370.3,432.1,371.6z M433.3,392.6c-0.1-0.4-0.2-0.8-0.3-1.1l0.3-0.3
			c0.2-0.5,0.2-1.1,0.4-1.7c0-0.2-0.1-0.5-0.1-0.7c0-0.3,0.2-0.9,0.3-1.1c0.1-0.3-0.1-0.6-0.1-0.8c0.2-1.4,0.4-3.2,0.1-4.6
			c-0.2-1,0.2-2.2,0.1-2.7c-0.2-1.4,0.5-3.4-0.1-4.3c0-0.4-0.1-0.8,0.2-1c0.3-0.2,2.3-0.1,2.7-0.2c0.1,1.8,0.2,4.6-0.1,6.5
			c-0.1,0.7,0,1.6-0.2,2.2c-0.1,0.4-0.6,0.9-0.7,1.3c0,0.2,0.2,0.4,0.1,0.7c-0.3,1.1-0.9,2.5-1.3,3.5
			C434,389.4,434.1,391.4,433.3,392.6L433.3,392.6z M474.6,420.4c0-0.3,0-0.4,0.1-0.5h0.4c0-0.5-0.2-0.5-0.4-0.8v-0.8
			c-0.1-0.4-0.1-0.9-0.1-1.8c0.5-0.5,1.8-1.8,2.3-1.9c0.2-0.2,1.2-0.1,1.6-0.1c0.5,0.5,1.4,0.9,1.8,1.5c0.8,1.1,0.4,3.6-0.2,4.5
			c-0.3,0.5-1.2,0.7-1.6,1.1h-0.1v-0.4h-0.3c-0.1,0.2-0.2,0.3-0.2,0.6C476,422.3,475.5,421.5,474.6,420.4z M491.9,423.2v0.2h-0.1
			v-0.7h-0.4c-0.1,0.3,0,0.2-0.2,0.4c0,0.5,0,0.6,0.4,0.6c-0.1,0.1-0.1,0.1-0.3,0.1c0,0.3-0.1,0.4-0.2,0.5c-0.3,0.8-1.4,1.1-2.3,1.2
			c-0.3,0-0.2-0.2-0.4-0.2c0,0-1.1,0.2-1.1,0.2c-0.2,0.1-0.3,0.4-0.4,0.5c-0.2,0.2-0.6,0-0.9,0.2c-0.1,0.1-0.2,0.5-0.4,0.5h-1
			c-0.6,0.1-3.6,0.4-4.1,0.3c-0.6-0.1-0.9-0.4-1.7-0.4c0-0.2,0-0.2-0.1-0.3c0-0.1-0.1-0.2-0.1-0.3c-0.3-0.1-0.7-0.2-1,0.1
			c-0.7-0.3-0.7-0.9-1.1-1.5c0-0.3,0-0.4,0.1-0.5c0.6,0,1.4,0.2,1.8-0.2c0.8,0,0.7-0.5,1.1-0.8c1-0.7,1.9-1.3,2.4-2.6
			c0.1-0.3,0.6-1,0.4-1.3c0-0.6,0.3-1.5-0.2-1.9c0.1-0.1,0.5,0,0.7-0.1c0-0.1,0.1-0.2,0.1-0.3c0.2,0,0.4-0.1,0.6-0.1
			c1.8-0.7,3.4,0.8,4.7,1.5c0.3,0.1,0.5,0.1,0.8,0.2c0.1,0.1,0.3,0.4,0.4,0.5c0.6,0.4,1.5,0.6,1.9,1.2v0.4c0.1,0.3,0.5,0.6,0.7,0.9
			C492.2,421.9,492.2,422.7,491.9,423.2z M420.1,338c0.2,0.1,0.4,0.1,0.5,0.2c0.3,0.2,0.9,0.6,1.4,0.4c1.6-0.4,2.7-0.8,3.3-2.2
			c0.3-0.7,0-1.6-0.2-2.1c-0.5-1.5-1.4-2.8-3.4-2.7c-1.1,0.8-2.8,1-3.1,2.6C418.4,335.4,419.5,337.6,420.1,338z M420.4,335
			c0.3,0.1,1,0.3,1.2,0.2c0.2-0.1,0.3-0.2,0.4-0.3c0-1-0.4-1.1-0.7-1.8c0.7,0.1,1.7,0.7,2,1.2c0.2,0.4-0.1,0.4,0.3,0.7
			c0,0.5-0.1,0.9-0.4,1.1c-0.3,0.4-0.9,0.6-1.6,0.6c-0.2-0.2-0.7-0.4-0.9-0.6c-0.2-0.3-0.2-0.6-0.4-0.9L420.4,335L420.4,335z
			 M416.6,342.9c1.9,0.5,1.9,0.4,3.4-0.7c0-0.4,0.3-0.9,0.1-1.2c-0.1-0.4-0.4-0.5-0.8-0.5c-0.2,0.2-0.6,0.2-0.8,0.4v0.4
			c-0.1,0.1-0.4,0.3-0.5,0.4c-0.6-0.1-0.7-0.6-1-1.1c-0.4,0-0.6,0.1-0.9,0.2c-0.1,0.3-0.4,0.8-0.2,1.1
			C416.1,342.4,416.4,342.6,416.6,342.9z M417.9,348.5c0.8-0.2,1.5-0.7,2.1-0.9c0.8-0.3,1.8-0.4,2.3-0.9c0.4-0.4,0.6-1,1.1-1.4
			c0-0.2,0-0.3-0.1-0.4c-0.1-0.3-0.3-0.4-0.6-0.5c-0.1-0.1-0.1-0.1-0.4-0.1c-0.1,0.1-0.3,0-0.4,0.1c-0.4,0.2-0.6,0.9-1,1.1
			c-1.2,0.9-3.6,1.9-5.1,1c-0.4-0.3-0.6-1-1-1.4c-0.2-0.1-0.4-0.2-0.6-0.1c-0.3,0.1-0.3,0.3-0.5,0.4
			C413.8,347.2,415.8,349,417.9,348.5z M411.2,356.9c1.9,0,1.3-0.8,2.2-1.3c0-0.7-0.2-0.8-0.4-1.2c-0.4-0.1-0.6-0.3-1.1-0.3
			c-0.2,0.1-0.4,0.2-0.7,0.2c-0.2,0.3-0.6,0.6-0.9,0.8C410.2,356.1,410.6,356.3,411.2,356.9z M426.7,358.5c1.7,0,1.4-0.8,2.2-1.5
			c-0.1-1-0.6-1.5-1.7-1.5c-0.7,0.6-1.4,0.7-1.6,1.8c0.2,0.2,0.1,0.4,0.3,0.6C426.1,358.1,426.5,358.2,426.7,358.5z M420.8,358.5
			c0.5-0.2,0.7-0.8,1-1.2c0-0.1,0-0.5-0.1-0.7c-0.2-0.6-0.8-0.8-1.7-0.8c-0.3,0.3-1,0.8-1.3,1c-0.1,0.9,0.1,1.2,0.4,1.8
			C419.6,358.6,420.2,358.9,420.8,358.5z M416,360.8l-0.3-0.8c-0.2-0.5-0.8-0.7-1.5-0.8c-0.2,0.2-0.5,0.2-0.8,0.4
			c-0.3,0.3-0.5,0.6-0.8,0.9c0,0.8,0.2,1.5,0.9,1.7c0.4,0.3,1.2,0.1,1.5-0.2C415.5,361.8,415.5,361.1,416,360.8z M434,361.4
			c0-0.4,0-0.7-0.3-0.9c-0.2-0.5-0.8-0.6-1.4-0.6c-0.5,0.4-1.1,0.5-1.3,1.1c-0.6,0.9,0.5,1.5,1,1.9
			C433.4,362.9,433.3,362.1,434,361.4z M408.1,360.1c-0.2,0.2-0.4,0.1-0.7,0.3c-0.3,0.2-0.4,0.6-0.7,0.8c0,0.7,0.1,1.5,0.8,1.7
			c0.6,0.4,1.7,0,1.9-0.4c0-0.2,0.1-0.4,0.1-0.6c0.1-0.1,0.3-0.1,0.4-0.2C409.7,360.6,409.3,360.1,408.1,360.1z M425.8,363.6
			c0.4,0.3,1,0.2,1.3-0.1c0.6-0.2,0.6-0.9,1.1-1.2c-0.1-0.7-0.3-0.9-0.6-1.3c-0.4-0.1-0.7-0.1-1.1-0.2c-0.7,0.7-1.3,0.4-1.6,1.8
			C425.2,362.9,425.2,363.4,425.8,363.6z M421.7,363.5c-0.1-0.6-0.2-0.9-0.4-1.2c-0.4-0.1-0.8-0.3-1.3-0.3c-0.2,0.2-0.4,0.1-0.6,0.3
			c-0.2,0.2-0.5,0.5-0.7,0.7c-0.1,0.4-0.1,0.9,0.2,1.2c0.3,0.4,0.6,0.4,1,0.7c0.4,0,0.8-0.1,1.1-0.4
			C421.3,364.3,421.3,363.8,421.7,363.5z M405.2,365.8c-0.2,0.2-0.6,0.2-0.8,0.4c-0.8,1,0.1,1.7,0.7,2.2c0.4,0,0.7-0.1,1.1-0.1
			c0.3-0.3,0.8-1.1,1.1-1.2C407.2,365.9,406.4,365.7,405.2,365.8z M418.5,367.4c0-0.2,0-0.2-0.1-0.4c0-0.5-0.4-0.8-0.8-1
			c-0.2-0.1-0.6-0.2-0.9-0.2c-0.2,0.2-0.4,0.1-0.7,0.3c-0.4,0.3-0.5,0.9-0.9,1.3c0.3,0.5,0.4,1,1,1.2c0.1,0.1,0.3,0.1,0.4,0.2
			C418,368.9,417.8,368.1,418.5,367.4z M425,366.7c-0.3,0.3-0.7,0.2-1.1,0.1c-0.1,0.2,0.1,0.4,0,0.5c-0.2,0.5-0.9,0.8-0.3,1.6
			c0.2,0.5,0.6,0.5,1,0.8c0.4,0,0.8-0.1,1.1-0.4c0.5-0.2,0.5-0.8,0.9-1.1c0-0.6-0.2-0.9-0.4-1.3C425.9,366.8,425.4,366.7,425,366.7z
			 M412.5,371c0.9-0.9,1.1-1.3,0.4-2.5c-0.4,0-0.8-0.1-1.1-0.1c-0.1,0.1-0.2,0.1-0.3,0.2c-0.7,0-0.7,0.4-1.1,0.8
			c0,0.8,0.4,1.1,0.7,1.6C411.6,371,412,371,412.5,371z M418.6,372.3c-0.6,0.5-1,0.4-1.5,1.1c-0.6,0.6,0.6,1.6,1,1.9
			c0.5,0,0.9-0.1,1.1-0.3c0.4-0.1,1.1-1.2,0.9-1.6C420.1,372.7,419.3,372.4,418.6,372.3z M413.3,374.9c-0.2,0.1-0.5,0.2-0.8,0.2
			c-0.2,0.2-0.5,0.3-0.6,0.7c-0.1,0.1-0.1,0.4-0.2,0.4c0.1,0.9,0.6,1.1,1.1,1.6c0.4,0,0.7-0.1,1-0.3c0.7-0.2,0.5-1,1.1-1.2
			c0-0.7-0.3-0.8-0.5-1.2C414.1,375,413.7,374.9,413.3,374.9z M428.5,375.3c-0.2,0.3-0.4,0.2-0.7,0.4l-0.8,0.8c0,0.9,0.3,1.6,1,1.8
			c1.1,0.8,2-1.2,2.3-1.4C430.2,375.8,429.6,375.3,428.5,375.3z M424.3,378.6c0.2-0.3-0.3-0.9-0.5-1.1c-0.4-0.1-0.6-0.3-1.2-0.3
			c-0.1,0.1-0.4,0.2-0.5,0.3c-0.6,0.2-0.7,0.8-1.1,1.2c0.1,0.9,0.6,1.1,1.1,1.6c0.4,0,0.6,0,0.8-0.2C423.5,380,424,379,424.3,378.6z
			 M412.5,381.5c-0.2,0.1-0.5,0.1-0.8,0.1c-0.2,0.2-0.5,0.5-0.8,0.7c0,0.3-0.2,0.6,0,0.9c0,0.6,0.4,0.8,0.8,1
			c0.3,0.2,0.9,0.2,1.2-0.1c0.5-0.2,0.5-0.8,0.9-1.1c0-0.3,0-0.6-0.1-0.7C413.5,381.7,413,381.6,412.5,381.5z M417.7,382.3
			c-0.2,0.2-0.7,0.2-1,0.4c-0.2,0.1-0.3,0.4-0.4,0.5c0,1.2,0.3,1.3,0.8,1.9c0.5,0,1,0.1,1.3-0.2c0.5-0.2,0.9-1,0.9-1.7
			C418.8,382.8,418.6,382.3,417.7,382.3z M425.7,383.7c-0.3,0-0.6-0.1-1-0.1c-0.2,0.2-0.4,0.2-0.7,0.4c-0.2,0.3-0.5,0.5-0.7,0.8
			c0,0.5,0,0.9,0.3,1.1c0.2,0.5,1.2,0.9,1.7,0.5c0.5-0.1,1.4-1.1,1.2-1.8C426.4,384.2,425.9,384,425.7,383.7z M478.2,418.1
			c-0.4-0.7-0.5-1.8-1.8-1.1c-0.2,0.1-0.4,0.1-0.5,0.4c-0.2,0.2-0.2,0.6-0.4,0.9c0,0.6,0.2,0.8,0.4,1.1c0.2,0,0.6-0.1,0.6-0.1
			c0.1,0,0.3,0.3,0.6,0.2c0.6-0.2,0.7-0.6,1.4-0.6C478.6,418.3,478.4,418.4,478.2,418.1z M478.2,421.1h0.3v-0.3h-0.3V421.1z
			 M475.2,426.4H475v0.3h0.3V426.4z"/>
	</g>
</g>
</svg>
