<?xml version="1.0" encoding="utf-8"?>
<!-- Generator: Adobe Illustrator 21.0.0, SVG Export Plug-In . SVG Version: 6.00 Build 0)  -->
<svg version="1.1" id="Calque_1" xmlns="http://www.w3.org/2000/svg" xmlns:xlink="http://www.w3.org/1999/xlink" x="0px" y="0px"
	 viewBox="0 0 841.9 595.3" style="enable-background:new 0 0 841.9 595.3;" xml:space="preserve">
<style type="text/css">
	.st0{fill:#FFCC00;}
</style>
<path class="st0" d="M351.7,303.7c0,0-21.3-8.7-34.7,1C303.7,314.3,351.7,303.7,351.7,303.7z"/>
<path class="st0" d="M419,355c0,0-16,45.7,2,45S419,355,419,355z"/>
<path class="st0" d="M463.7,280c0,0,5.3-16.3,16-18C490.3,260.3,463.7,280,463.7,280z"/>
<path class="st0" d="M444.3,237.7c0,0-6.3-23,4.7-31S444.3,237.7,444.3,237.7z"/>
<path class="st0" d="M412.3,250c0,0-15.7-14-12-27S412.3,250,412.3,250z"/>
<path class="st0" d="M376.7,287.3c0,0-13-5.3-15.3-15.7C359,261.3,376.7,287.3,376.7,287.3z"/>
<path class="st0" d="M373.9,313.2c0,0-7.2-11.5-18.2-15.9s-15.7-13.3-13-19s16.7,0,21.7,9.7s18.3,7.7,18.7,0.7
	c0.3-7-5.7-20-12.7-23.3s-22.7-17-15.7-29s23.7-2,25,9.7s4.7,32.7,13.3,31.3c8.7-1.3,0.3-12.7,1-21c0.7-8.3,8.7-8.3,10.7-3.3
	s0.7,25.3,8.7,24.3s17-8.3,14.7-20.3s9.7-16.7,22.3-10.3c12.7,6.3,11.7,18.3,5.7,24c-6,5.7-3,16.2,2.6,16.3s13.4-8.3,24.4-1.6
	s2.7,22.3-8.7,22.3c-11.3,0-14,5.3-7.7,10.7c6.3,5.3,16.3,16,4,18s-31.3-11-31.3-11s14,26.7,0.7,22c-13.3-4.7-17.7-21.3-28.3-12.3
	c-10.7,9-4,27.3-10,38.3s-31.7,14-29.3-3.7c2.3-17.7,10.3-16.7,11.7-25.3s-2.4-5.6-10.9-2.6s-21,5-13.5-2.4
	c7.5-7.4,13.7-12.2,2.3-11.7s-14.3-10.7-5-10.3C366.3,317.7,376.5,323.7,373.9,313.2z"/>
</svg>
