<?xml version="1.0" encoding="utf-8"?>
<!-- Generator: Adobe Illustrator 21.0.0, SVG Export Plug-In . SVG Version: 6.00 Build 0)  -->
<svg version="1.1" id="Calque_1" xmlns="http://www.w3.org/2000/svg" xmlns:xlink="http://www.w3.org/1999/xlink" x="0px" y="0px"
	 viewBox="0 0 841 595" style="enable-background:new 0 0 841 595;" xml:space="preserve">
<style type="text/css">
	.st0{fill:#1D1D1B;}
	.st1{fill:#DADADA;}
</style>
<g>
	<g>
		<path class="st0" d="M374.5,275c0.2,0.3,0.5,0.5,0.7,0.8c0.4,0.6,0.5,1.2,0.9,1.7c0.4,0.5,0.9,0.9,1.2,1.4
			c0.4,0.7,0.5,1.6,0.9,2.2c0.1,0,0.2,0.1,0.3,0.1c0.3,0.5,0.2,1.2,0.5,1.7c0.1,0.1,0.3,0.2,0.4,0.3c0.4,0.7,0.4,1.4,0.7,2.1
			c0.1,0.3,0.5,0.5,0.6,0.7c0,0.2,0.1,0.4,0.1,0.6c0.3,0.7,0.8,1.6,1.1,2.2c0.4,0.8,0.3,1.6,0.6,2.5c0.2,0.5,0.8,0.9,1,1.3
			c0,0.3,0.1,0.5,0.1,0.8c0.3,0.8,0.6,1.9,1,2.9c0.5,1.2,1.4,2.2,2,3.3c0.5,0.8,0.6,1.7,1.1,2.5c1.4,2.1,2.9,4,4.4,6
			c0.1,0.2,0.3,0.2,0.5,0.3c0.8,0.6,1.4,1.3,2.2,1.9c0.4,0.5,0.9,1,1.3,1.4c1.4,1,2.7,1.9,4.1,2.9c0.7,0.5,1.3,1.2,1.9,1.7
			c0.4,0.4,0.9,0.4,1.4,0.7c0.4,0.2,0.7,0.8,1.1,1c0.2,0,0.3,0.1,0.5,0.1c0.2,0.1,0.2,0.5,0.4,0.6c0.7,0.5,1.3,0.9,1.9,1.3
			c0.3,0.2,0.6,0.2,1,0.4c0.7,0.4,1.3,1.2,2,1.5c0.2,0,0.5,0.1,0.7,0.1c0.3,0.2,1,1,1.3,1.1c1.2,0.5,3.2,1.3,4.7,1.6
			c0.6,0.1,0.9-0.2,1.3-0.2c1.8,0.1,4.6-3.4,3.7-6c-0.5-1.5-1.7-2.9-2.6-4.1c-0.6-0.8-1.7-1.3-2.2-2.1c-0.5-0.7-1.1-1.6-1.7-2v-0.3
			c-1.2-0.2-1.7-1.9-2.6-2.5c-1.2-0.7-1.8-1.4-2.6-2.5c-0.3-0.5-0.9-0.8-1.3-1.2c-0.2-0.3-0.3-0.7-0.5-0.9c-0.5-0.5-1.5-1.1-1.8-1.6
			c-0.1-0.3-0.1-0.7-0.2-1c-0.2-0.1-0.3-0.3-0.5-0.4c-0.5-0.8-1.9-3.1-1-4.4c0-1.2,0.4-1.1,0.9-1.7c2.5-0.1,4.1,0.2,6.2,0.9
			c1,0.3,2.1,0.2,2.8,0.6c0.5,0.3,1,1.4,1.3,1.9c0.3,0.3,0.6,0.6,0.9,0.9c0.4,0.5,0.5,1.1,0.8,1.6c0.1,0,0.2,0.1,0.3,0.1
			c0.2,0.3,0.3,1.3,0.3,1.3c0.1,0,0.2,0.1,0.3,0.1c0.1,0.4,0.1,0.8,0.2,1.2c0.2,0.6,0.4,1.7,0.7,2.7c0.3,1,1,2.2,1.3,3.2
			c0.3,0.9,0.1,1.6,0.4,2.5c0.2,0.5,0.4,1.3,0.6,1.9c0,0.5,0.1,1,0.1,1.5c0.3,0.9,0.7,1.9,0.9,2.8c0.2,0.6,0,1.5,0,1.8
			c0,0.6,0.1,1.4,0.3,2c0.2,0.6-0.2,1,0.1,1.9c0.5,1.4,1.7,1.7,2.4,2.9c0.9-0.1,1.5-0.3,2.6-0.3c0.1,0.8,0.3,1.9,0.7,2.6l0.9,0.9
			c2.1,0,3.9,0.7,5.5-0.5c1.7-1.3,2.2-7.3,1.7-9.4c-0.4-2,0.3-4,0-5.4c-0.2-1.2,0.1-2.5-0.1-3.4c-0.2-0.8-0.2-1.9-0.4-2.8l-0.2-0.3
			c0-0.5,0.1-1.3-0.3-1.6v-0.2c0.9,0.6,1.4,1.7,1.9,2.7c0.2,0.3,0.7,0.4,0.9,0.7v0.3c0.4,0.7,0.6,1.6,1,2.2c0.1,0.1,0.3,0.2,0.4,0.3
			c0.3,0.4,0.3,0.8,0.5,1.2c0.5,0.9,1.3,2.2,1.1,3.4c-0.2,1.4,0.6,2.4,0.2,3.7c-0.1,0.3-0.4,0.9-0.5,1.3c-0.1,0.6,0.1,1.1-0.1,1.8
			c-1.1,4-1.6,7.3,0.2,11.4c0.2,0.4,0.2,0.9,0.5,1.2c0.8,0.9,2.1,1.3,3.7,0.8c0.6-0.2,1.1-0.8,1.6-0.5c0.5-0.1,1-0.5,1.1-1
			c0.1,0,0.2,0.1,0.3,0.1c0.9,2.5,1.8,3.5,4,4.7c0.5,0.2,1.5,0.9,2.5,0.6c1.2-0.4,1.2-1.2,1.9-1.9c0.5-0.5,1.2-0.6,1.6-1.2
			c0.5-0.7,0.2-1.3,0.3-2c0-0.3,0.3-0.5,0.4-0.7c0.1-0.4-0.1-0.9-0.1-1.1c0.2-1,0.2-2.7,0-3.7c-0.2-0.7,0.2-1.9,0.1-2.6
			c0-0.6,0.1-1.2,0.1-1.7c-0.6-2.2-0.6-4.3-1.4-6.6c-0.6-1.6-1.4-3.3-1.9-5c-0.6-1.8-0.4-3.5-1.1-5c0.1-0.3,0.1-0.7,0-1.1
			c-0.5-1.5-1.1-3.3-1.6-4.7c-0.3-1-0.6-2.3-0.8-3.2c-0.1-0.2,0.1-0.4,0.1-0.5c-0.2-0.9-0.8-1.9-1.1-2.7c-0.1-0.4-0.2-0.9-0.3-1.3
			c-0.3-0.6-0.7-1.5-1-2.1c-0.4-0.9-0.5-1.8-1-2.7c-0.3-0.5-1-1-1.2-1.5c-0.3-0.7-0.3-1.4-0.6-2c-0.2-0.4-0.9-1.1-1.1-1.4v-0.6
			c-0.4-1.1-1.8-1.9-1.9-3.2h-0.3c-0.2-1.3-1.3-2-1.9-2.9c-1.9-2.6-4.2-4.9-7.1-6.5c-0.9-0.5-1.8-1.4-2.7-1.9
			c-2.6-1.6-5.1-3.3-7.6-4.9c-1.9-1.2-3.7-2.1-5.6-3.3c-1.8-1.1-3.5-2.5-5.2-3.7c-1.3-0.9-3-1.7-4.2-2.8c-1.7-1.5-3.7-2.9-5.5-4.3
			c-0.6-0.4-1.1-1.2-1.6-1.6c-2.2-1.8-4.3-3.5-6.1-5.7c-0.4-0.5-1.1-0.9-1.6-1.3c-0.4-0.3-0.5-0.8-0.8-1.1c-0.3-0.3-0.8-0.5-1-0.8
			c-0.4-0.4-0.6-0.9-1-1.2c-0.1,0-0.2-0.1-0.3-0.1c-6.1-6.9-12.3-13.7-17.8-21.2c-0.6-0.8-1.5-1.5-2.1-2.4c-2.2-3-4.3-6-6.4-9
			c-0.3-0.3-0.6-0.6-0.9-0.9c-1.4-1.9-2.3-4-3.8-5.8c-2-2.5-4.3-5-6-7.7c-0.6-0.9-0.9-1.8-1.5-2.7c-0.2-0.3-0.7-0.5-0.9-0.8
			c-1.5,0.1-1.3,0.5-2.4,1.2c0,1.2,0.6,1.7,1.1,2.5c0.8,1.2,1.4,2.3,2.1,3.5c0.3,0.5,1,0.9,1.3,1.4c1.4,1.9,3,3.7,4.3,5.6
			c2.3,3.5,4.5,7.3,7.3,10.4c0.2,0.2,0.2,0.7,0.4,0.9c0.2,0.2,0.4,0.3,0.6,0.5c0.5,0.8,0.9,1.5,1.4,2.2c0.3,0.4,0.8,0.7,1.1,1.1
			c0.3,0.4,0.4,0.8,0.7,1.2c0.3,0.2,0.5,0.5,0.8,0.7c0.9,1.2,1.7,2.4,2.7,3.7c0.5,0.7,1.3,1.2,1.8,1.9c1.5,2,3.2,3.9,4.8,5.7
			c0.9,1,1.7,2.2,2.6,3.3c0.1,0.2,0.5,0.2,0.6,0.4c1.3,1.6,2.6,3,3.8,4.6c1,1.3,2.7,2.2,3.7,3.6c0.5,0.6,1,1.5,1.6,1.9
			c0.6,0.4,1.3,0.9,1.7,1.4c2.4,3.1,5.7,5.5,8.7,8.1c1.3,1.1,2.9,1.9,4.2,3c4.5,3.6,9.4,6.8,14.5,9.7c0.6,0.4,1.3,1,1.9,1.4
			c0.9,0.6,1.8,1,2.8,1.5c0.3,0.2,0.7,0.7,1,0.9c3.3,2.1,6.8,3.9,9.5,6.6c1.5,1.5,2.7,3.1,3.9,4.8c0.2,0.2,0.4,0.3,0.6,0.5
			c0.4,0.5,0.5,1.1,0.8,1.6c0.1,0.2,0.5,0.5,0.6,0.7v0.5c0.1,0.2,0.5,0.2,0.6,0.3c0.2,0.3,0.3,0.7,0.5,1c0.3,0.4,0.9,0.8,1.1,1.2
			c0.2,0.4,0.1,0.8,0.3,1.2c0.5,1.1,1.3,2.3,1.8,3.4c0,0.2,0.1,0.5,0.1,0.7c0.5,1.2,1.1,2.6,1.6,3.7c0.3,0.6,0.2,1.1,0.4,1.7
			c0.7,2.3,1.4,4.9,2.1,7.3c0.3,0.9,0.1,2.1,0.6,2.9v0.4h-0.1c-1-2.3-1.9-4.6-3.1-6.7c-0.2-0.4-0.2-0.8-0.4-1.2
			c-0.4-0.6-1.2-1.1-1.5-1.7c-1-1.6-1.8-3.1-2.8-4.6c-0.4-0.3-0.8-0.7-1.1-1c-0.5-0.8-1-1.4-1.5-2c-0.3-0.4-1-0.7-1.4-1l-2-2
			c-0.6-0.4-1.2-0.7-1.8-1.2c-1.7-1.4-3.3-3.2-5.2-4.3c-0.2,0-0.4-0.1-0.6-0.1c-0.2-0.1-0.9-1.1-1-1.2h-0.7c-0.3-0.2-0.7-0.8-1-1
			c-1.3-0.9-2.5-1.6-3.8-2.6c-0.4-0.3-0.7-0.9-1.1-1.1v-0.1c-0.2,0-0.1,0-0.2,0.1c-0.7,0.1-0.6,0.4-1,0.6c0,0.4,0,0.4,0,0.6
			c0.9,0.6,1.6,1.3,2.5,1.8c0.1,0,0.3,0.1,0.4,0.1c0.3,0.2,0.4,0.6,0.7,0.8c2.3,1.6,4.6,3,6.8,4.6c0.6,0.5,1.2,1.4,1.8,1.7
			c0.3,0.2,0.6,0.1,0.8,0.3c0.1,0.1,0.1,0.4,0.2,0.5c0.2,0.1,0.4,0.1,0.6,0.2c0.9,0.6,1.8,1.5,2.7,2.2c0.2,0.2,0.2,0.6,0.4,0.7
			c0.2,0,0.3,0.1,0.5,0.1c0.2,0.2,0.4,0.6,0.6,0.8c0.2,0.2,0.5,0.1,0.7,0.3c0.7,0.6,1.1,1.5,1.7,2.1c0.1,0.1,0.4,0.1,0.5,0.3
			c1,1.3,1.6,2.6,2.5,4c0.1,0.2,0.6,0.4,0.7,0.6c0.2,0.2,0.1,0.5,0.2,0.7c0.2,0.1,0.3,0.3,0.5,0.4c0.3,0.4,0.3,1,0.6,1.4
			c0.1,0.1,0.3,0.2,0.4,0.3c0.4,0.6,0.4,1.4,0.8,2c1.3,2.3,2,5,3.3,7.5c0.5,1,1.4,2,1.3,3.3h0.3c-0.2,0.9,0.8,2.1,1.1,3
			c0.9,2.3,0.6,4.9,1.5,7c0.1,0.3,0,0.9,0.2,1.1c-0.5,0.8-3.4,1.2-4.2,2.4c-1,1.3-0.7,4.6,0.2,6c0.3,0.6,2.1,2.4,2.7,2.8
			c0,0.1-0.1,0.1-0.1,0.2c-2.2,0-3.3-1.6-4.1-3.1c-0.3-0.7-0.9-1.4-1.2-2.1c-0.3-0.7-0.2-1.5-0.5-2.2c-0.1-0.2-0.5-1-0.5-1.2
			c0-0.6,0.1-1.5-0.2-2.1c-0.3-0.8-0.8-1.8-1.1-2.7c-0.4-1.3-0.6-2.7-1.1-3.9c-0.9-1.9-1.9-3.9-2.8-5.7c-0.5-1.1-0.7-2.2-1.1-3.3
			c-0.1-0.3-0.5-0.7-0.7-1c-0.6-1.1-1-2.3-1.6-3.4c-0.7-1-1.5-2.1-2.1-3.2c-0.3-0.5-0.9-0.7-1.3-1c-0.3-0.2-0.4-0.7-0.7-0.9
			c-0.4-0.4-1-0.7-1.5-1c-4.5-3.2-9.9-4.8-15.7-6.6c-0.4-0.1-0.8-0.5-1.1-0.6c-0.4-0.2-1.1-0.1-1.2-0.2c-2.1-0.8-4.6-1.8-7-2
			c-1.5-0.2-2.8-0.6-4.3-0.1c-0.7,0.2-1.2,0.8-1.7,1.2c0,0.3-0.2,0.9-0.2,1.1c0,0.2,0.2,0.6,0.1,0.9c-0.1,0.4-0.4,1.3-0.2,1.9
			c0.4,1.6,1.1,2.3,1.8,3.4v0.4c0.2,0.3,0.7,0.7,0.9,1c0.2,0.3,0.2,0.7,0.4,1c0.5,0.7,1.5,1.2,2,1.9c0.9,1.4,2.1,2.6,3.4,3.7
			c1,0.8,2.1,1.6,2.9,2.6c0.4,0.5,0.5,1,0.9,1.5c0.3,0.3,0.8,0.5,1.1,0.8c1.2,1.2,2.2,2.5,3.1,4c0.4,0.7,1.1,1.5,0.7,2.8
			c-0.4,1.2-1.4,1.6-2,2.5c-2.1,0.1-3.1-0.4-4.6-1.1c-0.8-0.4-1.8-0.4-2.2-1.1c-0.1-0.1,0,0-0.1-0.2c0.6-0.7,0.7-1.2,1.2-1.9
			c0.6-0.8,1.4-1.6,1.9-2.5c0.2,0,0.2,0,0.3,0.1c1,0.1,1.1,0.9,1.8,1.3c-0.1,0.1-0.1,0.1-0.3,0.1c0.2,0.3,0.5,0.3,0.7,0.5
			c0.3,0.5,0.6,0.9,0.9,1.4c0.7,0,0.6-0.1,0.9-0.4c-0.1-1.4-1.7-3.3-2.5-4.1c-0.3-0.3-0.6-0.3-0.8-0.6c-0.8,0-1.6-0.1-2.1,0.4
			c-0.3,0.2-1.4,1.8-1.5,2v0.5c-0.2,0.1-0.3,0.1-0.5,0.2c-0.1,0.2-1.3,2.1-1.3,2.2c-1.1-0.3-1.9-1.3-2.8-1.8c-0.5-0.3-1-0.4-1.4-0.7
			c-0.4-0.3-0.9-0.8-1.3-1.1c-0.2,0-0.3-0.1-0.5-0.1c-0.1-0.1-0.2-0.4-0.4-0.5c-0.3-0.1-0.5-0.2-0.8-0.3c-0.5-0.4-1-1-1.5-1.4
			c-4.2-3.1-8.4-6.1-11.4-10.3c-0.9-1.3-1.4-2.7-2.2-4.1c-0.5-0.9-1.1-1.9-1.7-2.9c-0.1-0.1-0.3-0.2-0.4-0.3c-0.5-1-0.6-2-1-3.1
			c-0.4-1-1.1-2.1-1.5-3.1c-0.2-0.4-0.1-0.7-0.2-1.1c-0.1-0.3-0.4-0.7-0.5-0.9c-0.2-0.5-0.1-0.8-0.3-1.3c-1.5-3.3-3.3-6.7-4.9-9.9
			c-0.3-0.5-0.9-1-1.2-1.5c-0.6-0.9-1.1-1.8-1.6-2.7c-0.3-0.5-0.4-1.1-0.7-1.6c-0.2-0.3-0.6-0.5-0.8-0.8c-2-3.3-3.9-6.6-6-9.7
			c-0.2-0.3-0.6-0.5-0.8-0.7c-0.5-0.6-0.9-1.4-1.3-2c-0.2-0.2-0.5-0.4-0.7-0.6c-1.2-1.7-2.5-3.1-3.8-4.7c-0.5-0.5-1-1-1.5-1.4
			c-3.1-4.1-7.1-7.3-10.6-10.8c-2.1-2.1-3.9-4-6.2-5.8c-0.4-0.3-0.8-0.8-1.1-1.1v-0.2h-0.4c-0.2-0.3-0.5-0.5-0.7-0.8
			c-0.5-0.4-1.1-0.6-1.5-1c-0.2-0.1-0.2-0.5-0.4-0.6c-0.5-0.4-1-0.7-1.6-1.1c-0.2-0.1-0.2-0.4-0.4-0.6c-0.3-0.3-0.7-0.4-1-0.6
			c-0.7-0.7-1.4-1.4-2.1-2.1c-0.2,0-0.3-0.1-0.5-0.1c-0.2-0.2-0.4-0.5-0.6-0.7c-0.5-0.3-0.9-0.6-1.3-0.9l-0.2-0.4
			c-0.6-0.5-1.4-0.8-2-1.3c-1.5-1.1-3-2.3-4.6-3.5c-0.5-0.3-0.9-0.9-1.4-1.2c-2.5-1.5-4.8-3.2-7.2-4.9c-0.5-0.4-0.9-1-1.4-1.3
			c-1-0.7-1.9-1.3-2.9-1.9c-0.8-0.6-1.5-1.6-2.6-1.9c-0.1-0.1-0.3-0.1-0.6-0.1c0,0.2,0,0.2-0.1,0.3v0.6c0.2,0.2,0.5,0.1,0.8,0.3
			c0.6,0.4,1,1,1.6,1.4c2.4,1.7,4.5,3.8,7.1,5.3c0.3,0.3,0.6,0.6,0.9,0.9c0.8,0.6,1.6,1,2.5,1.5c0.4,0.3,0.8,0.9,1.2,1.1
			c7.4,4.8,13.4,11.1,20.4,16.4c0.3,0.2,0.4,0.7,0.7,0.9c0.3,0.2,0.6,0.3,0.9,0.5c0.8,0.9,1.6,1.7,2.5,2.6c0.2,0.1,0.4,0.1,0.5,0.2
			l0.2,0.4c0.5,0.6,1.1,1,1.6,1.6c1,1.1,2.2,2,3.3,3.1c0,0.1,0.1,0.3,0.1,0.4c0.3,0.3,0.7,0.4,1,0.6c0.3,0.2,0.4,0.6,0.6,0.8
			c1.2,1.3,2.4,2.4,3.5,3.8c0.6,0.9,1.6,1.5,2.4,2.4c1.8,2,3.3,4.1,5,6.2c0.4,0.6,1.1,1.1,1.5,1.6c2.6,3.6,4.9,7.6,7.4,11.3
			C373.8,273.3,374,274.2,374.5,275z M454.6,334.9c-0.2-0.6-0.1-1.6-0.4-2c-0.1-3,1.7-2.3,3.3-3.4h0.5c0.3,1.4,0.5,3.4,0.8,4.9
			c0.2,0.8,0.2,1.9-0.2,2.4c-0.2,0.6-1,0.6-1.3,1.1h-0.2C456.4,337.1,455,335.8,454.6,334.9z M443.7,324.6v-0.9
			c0.1-0.1,0.2-0.1,0.3-0.2c0.1-0.4,0-1.4,0-1.5c0.2-0.8,0.7-1.9,0.4-2.8c0.5,0.3,1.1,2.1,1.3,2.8c1,2.3,1.7,4.5,2.5,7
			c0.3,1.1,0.5,3.6,1.1,4.2c0,1.1-0.6,1.1-0.9,1.8c-0.9,0-1.5,0-2,0.4c-2.2,0-2.2-1-2.8-2.6C442.6,329.8,442.8,327.6,443.7,324.6z
			 M426.2,299.5c0.6,0.1,1.1,0.4,1.5,0.6c0.6,0.3,1.1,0.2,1.6,0.4c0.4,0.2,0.7,0.6,1.1,0.7c1.3,0.6,2.4,1.1,3.6,1.8
			c0.5,0.3,0.9,0.8,1.4,1.1c-0.1,0.2-0.3,0.3-0.3,0.4c-0.1,0.4,0.3,1.1,0.3,1.3c0,0.3-0.2,0.5-0.2,0.8h0.3c-0.1,0.5,0.2,0.4,0.3,0.8
			c0,0.3-0.1,0.5-0.1,0.8c0.2,0.8,0.3,1.8,0.5,2.5v1.2c0.3,1.2,0.2,2.6,0.2,3.9c0,0.4-0.1,0.7-0.1,1.1c0.6,2.6,0.3,5.5-0.1,7.4
			c-0.1,0.6,0,1.6-0.3,2.2c-0.3,0.6-1.1,0.9-1.4,1.4c-1-0.1-1.9,0.2-2.6-0.2c-1-0.1-1-0.8-1.2-1.6c-0.4-1.3-0.5-2.7-0.5-4.8
			c0-0.3-0.1-0.7-0.1-1c0.1-0.6-0.2-1.4,0-2.1c0.1-0.4,0.3-1.4,0.1-1.9c-0.1-0.3-0.3-0.9-0.2-1.4c0.1-0.5,0.3-4.5,0.1-5.2l-0.3-0.3
			c0.1-0.3,0.2-0.5,0.3-0.8c-0.5-3.3-2-7-4-9L426.2,299.5L426.2,299.5z M418,296.6c0.8,0.1,1.5,0.6,2.4,0.8c1.1,0.3,2.2,0.3,3.1,0.9
			c0.7,0.5,1.2,1.6,1.6,2.4c0.4,0.7,1.3,1.3,1.7,2c0.9,1.4,1.4,3.5,1.9,5.2v1.8c0.3,1.1,0.1,3.3,0.2,4.4c0.1,0.5-0.4,1.3-0.3,1.8
			c0.1,0.6,0.4,1.7,0.3,2.4c-0.1,0.4-0.3,1.3-0.1,1.8c0.3,0.9,0.2,3.1,0.2,4.1c-0.5,0-1.6,0-2-0.3c-1.6-0.2-1.9-4.8-1.6-6.3
			c0.2-0.9-0.8-1.4-0.5-2c-0.1-0.3,0-0.2-0.3-0.2c0-1.5-0.5-3-0.9-4.1c-0.3-0.9-0.1-1.9-0.4-2.8c-0.6-1.5-1.2-2.8-1.7-4.4
			c-0.3-0.7-0.4-1.6-0.6-2.2v-0.8c-0.4-1.1-2-3.7-2.9-4.4L418,296.6L418,296.6z M307,207.8c0,0.1,0.1,0.3,0.1,0.4h0.3v-0.3
			c0,0-0.1-0.1-0.1-0.1L307,207.8L307,207.8z M406.5,342.2c-0.6-0.4-1-1.1-1.5-1.6c-0.2-0.1-0.5-0.3-0.7-0.4c-0.1-0.2,0-0.5-0.2-0.6
			c-0.2,0-0.3-0.1-0.5-0.1c-0.4-0.2-0.5-0.9-0.8-1.1c-0.9-0.7-3.2-3-3.7-4c-0.2,0-0.4-0.1-0.6-0.1c0-0.2,0-0.2,0.1-0.3
			c-3.8-4.1-7.7-9-10.7-14.2c-0.5-0.8-1.3-1.7-1.8-2.6c-0.6-0.9-0.8-1.8-1.4-2.7l-0.7-0.7c0-0.2-0.1-0.3-0.1-0.5
			c-0.1-0.1-0.2-0.1-0.3-0.2c0-0.1,0.1-0.2,0.1-0.3c-0.2-0.1-0.3-0.3-0.5-0.4c-0.4-0.6-0.5-1.4-0.9-2c-0.1-0.2-0.5-0.5-0.6-0.7
			c-0.6-1.2-0.9-2.3-1.6-3.5c-1.1-1.9-2.4-4-3.4-6c-2.4-5.1-4.1-10.6-6.6-15.7c-0.4-0.9-0.4-1.8-0.8-2.8c-0.2-0.4-0.6-1-0.7-1.4
			c-0.3-0.8-0.1-1.4-0.7-1.8c-0.2-0.1-0.4,0.1-0.6,0.2c0.1,0.3,0.3,0.5,0.5,0.7c-0.6,1,0.9,3.9,1.3,5c1.3,3.6,2.7,7,4.2,10.4
			c0.4,1,1.1,2,1.5,3c0.2,0.5,0.2,0.9,0.4,1.4c0.5,1.3,1.5,2.5,2,3.8c0,0.2,0.1,0.5,0.1,0.7c0.1,0.1,0.2,0.1,0.3,0.2
			c0.5,0.8,0.7,1.7,1.2,2.6l0.5,0.5v0.4c1,1.7,2,3.5,3,5.1c0.3,0.6,0.5,1.2,0.8,1.7c0.8,1.2,1.7,2.4,2.5,3.6
			c0.5,0.7,0.7,1.5,1.1,2.1c1,1.4,2.2,3,3,4.4c0.3,0.6,1.1,1.2,1.5,1.7c1.8,2.6,3.8,4.8,5.6,7.3c0.2,0.2,0.5,0.3,0.7,0.5
			c1.1,1.4,2.3,2.5,3.6,3.8c1.4,1.4,2.6,2.7,4.2,3.9c0.2,0.1,0.2,0.5,0.4,0.6c1.1,0.8,2.9,1.9,3.6,3h0.5
			C409.3,344.3,407.3,342.8,406.5,342.2z M449.3,281.3c1,0.7,1.8,1.7,2.8,2.6c0.1,0.2,0.3,0.5,0.4,0.7c1.8,1.2,3.1,3.3,4.3,5.1
			c1.1,1.5,2.4,3,3.4,4.7c1.6,2.8,2.9,5.7,4.5,8.6c0.2,0.4,0.1,0.7,0.3,1.1c0.4,0.9,0.9,2,1.3,3c0.3,0.6,0.2,1.2,0.5,1.8
			c1.6,3.6,2.7,7.7,4.1,11.4c0.6,1.6,0.7,3.3,1.1,4.7c0.8,2.7,1.3,5.4,2.1,8v0.9c0.3,1.1,0.7,2.2,0.8,3.5h0.3
			c-0.1-1.1-0.4-2.1-0.6-2.9c-0.4-1.1-0.1-2.3-0.6-3.4v-0.8c-0.1-0.3-0.4-0.8-0.4-1.1c0-0.2,0.1-0.4,0.1-0.6
			c-0.1-0.4-0.7-1.7-0.6-2.2c0.1-0.3-0.6-2.5-0.8-3.3c-0.7-2.8-1.3-5-2.4-7.7c-0.7-1.8-1-3.5-1.6-5.3c-1.2-3.3-2.5-6.9-4-10
			c-0.8-1.6-1.7-3.3-2.6-4.9c-0.3-0.6-0.9-1.1-1.2-1.6c-0.5-0.8-0.7-1.6-1.2-2.4c-0.2-0.4-0.6-0.9-0.9-1.2c-0.2-0.1-0.3-0.2-0.5-0.3
			v-0.4c-0.2-0.4-0.7-0.8-0.9-1.1c0-0.2-0.1-0.3-0.1-0.5c-0.1-0.1-0.4-0.1-0.5-0.2c-0.5-0.6-0.8-1.4-1.3-2c-0.6-0.8-1.7-1.4-2.2-2.2
			v-0.3c-0.1,0-0.3-0.1-0.4-0.1c-0.6-0.5-1.1-1.4-1.7-1.8c-0.6-0.5-1.3-0.8-1.8-1.3c-0.2,0-0.4,0.1-0.6,0.1c0,0-0.1,0.1-0.1,0.1
			C448.1,280.9,448.7,280.8,449.3,281.3z M473.7,313.2c0.4,0.8,1.1,1.8,1.5,2.7c1.3,2.7,2.1,5.7,3,8.7v0.8c0.2,0.9,0.6,2,0.7,3
			c0.1,0.6-0.1,1.6,0.3,2.2v0.1c0.8-0.5-0.5-4.4-0.3-5.4c0.2-1.6-0.9-4.3-1.4-6c-0.9-2.5-1.6-4.8-2.9-7c-0.7-1.2-1.7-2.4-2.2-3.7
			c-0.3-0.1-0.5-0.2-0.9-0.2c-0.2,0.7,0.4,1,0.6,1.4C472.7,311,473.1,312,473.7,313.2z M402.8,348.1c-0.2-0.1-0.5-0.7-0.6-0.9h-0.3
			v-0.3c-0.9-0.4-1.5-1.4-2.1-2.1c-1.8-1.8-3.7-3.5-5.2-5.6c-0.6-0.8-2-1.5-2.1-2.6c-0.7-0.2-3.1-3.2-3.5-3.9h-0.3
			c-0.1-1.3-2.1-2.9-2.8-3.8c-0.4-0.5-0.6-1.1-0.9-1.6c-0.5-0.8-1.3-1.6-1.7-2.5c-0.3-0.7-0.5-1.5-0.8-2.1c-0.5,0-0.4,0.1-0.7,0.3
			c-0.1,0.2,0,0.1-0.1,0.2c0.1,2.4,3.4,5.9,4.6,7.6c1.5,2,3.2,3.8,4.6,5.8c0.2,0.2,0.5,0.3,0.7,0.5c0.6,0.7,1,1.5,1.6,2.1
			c0.2,0.2,0.5,0.2,0.6,0.4c1.2,1.6,2.7,3,4.1,4.4c0.4,0.4,0.7,1,1.1,1.3c0.7,0.6,1.4,1.1,2.1,1.6c0.6,0.4,1,1.1,1.5,1.5
			c0.3,0.2,0.6,0.3,0.9,0.5h0.2C403.6,348.3,403.3,348.5,402.8,348.1z M494.4,414.6c0.2-0.4,0.5-1.1,0.6-1.5c0.4-1.2,0.2-3,0.4-4.1
			c0.2-0.9-0.4-3-0.6-3.8c-0.3-1.5-0.3-3.9-0.8-5.9c-0.4-1.5,0-2.4-0.4-3.9c-0.8-3-1.4-7.6-2.8-10.7c-0.7-1.8-2.1-3.2-3.2-4.7
			c-0.4-0.4-0.9-0.8-1.3-1.2c-1.4-1.9-3-3.5-4.6-5.1c-0.4-0.4-0.6-0.9-1-1.2c-1.7-1.5-3.4-3.1-5.4-4.3c-1.7-1.1-3.6-1.8-5.3-2.9
			c-0.7-0.4-1.2-1.2-1.8-1.6c-0.3-0.2-0.7-0.3-0.9-0.6c-2.1-2.7-3.9-5.2-6.6-7.3c-1.2-0.9-2.1-2.3-3.4-3.1c-1.1-0.7-2.7-0.8-4-1.3
			c-1.3-0.5-2.5-1.3-3.8-1.8c-0.8-0.4-1.9-0.2-2.8-0.5c-1.3-0.5-2.9-1.1-4.1-1.7c-0.3-0.2-0.4-0.5-0.8-0.6c-0.6-0.1-0.8,0.5-1.6,0.3
			c-2.1-0.6-3.7-1.3-5.6-2c-0.8-0.3-2.2-1.3-3.8-0.8c-0.1,0-0.5,0.3-0.7,0.3h-0.7c-1.5,0.6-3.6,2.3-4.5,3.6
			c-0.2,0.2-0.1,0.5-0.3,0.7c-0.8,1-1.8,2-2.2,3.4c-0.7,2,0,6.6,0.8,8c0.3,0.4,0.7,0.8,1,1.2c0.5,0.6,0.8,1.4,1.7,1.5
			c-0.1,0.2,0,0.1-0.1,0.2c-0.3,0.7-1.1,0.7-1.8,0.9c-0.6,0.2-1.3,0.7-1.9,0.9c-0.8,0.3-1.6,0.2-2.2,0.6c-1.5,0.8-2.9,2.4-3.9,3.7
			l-0.8,0.8v0.4c-0.2,0.4-1.5,1.3-1.8,1.7c-1,1.5-2.1,2.9-2.8,4.8c-0.2,0.7-0.1,2.6,0,3.3c0.3,1.2,0.1,2.2,0.4,3.3
			c0.5,1.5,1.1,3.1,1.6,4.4c2.1,4.9,5.3,8.8,9.5,11.5c1.4,0.9,3.7,1.3,5.2,1.8c0.2,0.1,0.4-0.2,0.8,0c1.8,0.7,5.3,1.3,8,0.7
			c0.4-0.1,0.7,0.1,0.9,0.1c1.2-0.2,1.9-0.5,2.9-0.3c0.2,0,0.7,0.1,0.8,0.1c0.7,0,0.9,0.1,1,0.6c0.3,0,0.2,0,0.6,0
			c0.1,1,1,1.4,1.3,2.1c0.8,1.5,1.3,3.3,1.8,5c0.4,1.2,0.3,2.5,0.7,3.8c0.2,0.7,0.5,1.7,0.7,2.4c0.2,0.6,0,1,0.2,1.6
			c1.1,3.2,1.9,6.4,3.6,9c0.5,0.8,1.2,1.5,1.7,2.2c0.6,0.9,1.1,2,1.9,2.7c0.3,0.2,0.6,0.2,0.8,0.4c0.3,0.3,0.6,0.8,0.9,1
			c0.9,0.6,1.8,0.5,3,0.8c1.5,0.4,3.5,0.7,5.2,1.1c1.4,0.3,4.7-0.1,6-0.4h1.5c0.6-0.1,1.4-0.6,2-0.5c0.8,0.1,2.4-0.4,3.3-0.7
			c1.7-0.6,3.3-0.7,4.9-1.4c0.8-0.4,1.9-1.1,2.8-1.4c1.2-0.5,2.5-0.7,3.7-0.7c2.2,0.1,4.1,0.7,5.7-0.5c1.6-1.2,1-4,0.7-5.8
			c0-0.3,0.2-0.4,0-0.8c-0.2-0.5-0.6-1.3-0.8-2v-0.9c-0.2-0.8-0.5-1.2-0.2-1.9c0.3-0.8-0.4-1.1-0.1-1.6
			C493.7,415,494.1,415,494.4,414.6z M469.1,376h0.2v0.2h-0.2V376z M461.9,361.5c0.2,0.1,0.1,0,0.2,0.1h0.1
			c-0.1,0.2-0.1,0.2-0.3,0.3h-0.1C461.8,361.8,461.8,361.7,461.9,361.5z M459.8,360c-0.1-0.4-0.1-0.6-0.2-0.8
			c0.5,0.1,0.6,0.4,0.9,0.6v0.2c-0.2,0.2-0.3,0.3-0.4,0.6c-0.3,0-0.5,0-0.6,0.1h-0.1C459.5,360.3,459.6,360.2,459.8,360z
			 M457.1,356.8c0.3,0.1,0.4,0.2,0.6,0.4v0.2c-0.4-0.2-0.8-0.3-0.9-0.7C457,356.8,457,356.8,457.1,356.8z M454.9,357
			c0.3,0,0.5,0,0.6,0.1h0.6c-0.2,0.3-0.3,0.4-0.3,0.8c-0.2,0-0.2,0-0.3-0.1c-0.4-0.1-0.4-0.4-0.6-0.6L454.9,357L454.9,357z
			 M454,355.4h0.2c-0.1,0.2-0.1,0.3-0.2,0.4l-0.1,0.1v-0.1C453.8,355.7,453.9,355.6,454,355.4z M447.3,356.1
			c0.2-0.5,0.6-0.3,0.9-0.7h0.2l-0.1,0.1c-0.1,0.4-0.2,0.7-0.6,0.8c-0.2,0.1-0.2,0.1-0.4-0.1l-0.1-0.1H447.3z M446.1,352.6
			c-0.2-0.1-0.1,0.1-0.3-0.1C445.9,352.6,446.2,352.5,446.1,352.6z M444.7,353.1h0.1c0,0.2,0,0.2-0.1,0.3c-0.2,0.1,0,0.1-0.2,0
			C444.3,353.4,444.6,353.3,444.7,353.1z M423.5,351.3c0.2-0.4,0.7-0.8,0.9-1.1c0.3-0.5,0.4-1,0.7-1.4c0.2-0.3,0.7-0.4,0.9-0.7
			c0.1-0.2,0.1-0.4,0.3-0.5c0.5-0.4,1,0,1.4-0.5c0.6,0.1,1.1,0.3,1.7,0.4c-0.2,0.4-0.1,0.4-0.1,1c0.9,0,1.2-0.1,1.7-0.4
			c0.3,0.1,0.6,0.5,1.1,0.3c0.2-0.1,0.3-0.4,0.5-0.4c0.5,0.1,1,0.3,1.3,0.6c0.1,0-0.2,1.1-0.3,1.3l0.1,0.1c1.1,0,1.2-0.3,2-0.5
			c0.6-0.2,1,0.2,1.5,0.3c-0.1,0.4-0.1,0.8-0.2,1.2c-1,0-1.2,0.3-1.4,1c-0.1,0.2,0,0.2,0,0.5c0.7,0.1,1.6,0,1.9-0.5
			c0.1-0.2,0-0.2,0-0.5c1-0.1,2.2-0.5,2.7,0.3c0.1,0.4-0.4,0.9-0.1,1.4v0.2c0.3,0,0.7,0,0.9-0.1c0.8,0,1.2-0.6,1.4-1.2h0.3
			c-0.1,0.2-0.2,0.4-0.3,0.5c0.1,0.6,0.2,0.7,0.7,0.9c-0.2,0.3-0.3,0.5-0.4,0.8c-0.1,0.2,0,0.4,0.1,0.6v0.2c0.8,0,1.1-0.2,1.4-0.7
			h0.3c-0.1,0.3-0.5,0.4-0.7,0.5c-0.1,0.4-0.2,0.8-0.3,1.1c0.1,0.1,0.2,0.1,0.3,0.2c0.2,0,0.5-0.1,0.7-0.1c0.1-0.2,0.2-0.5,0.3-0.7
			v-0.1c0.6,0.2,0.5,0.6,1.3,0.6v0.1c-0.6,0.2-1.1,0.6-1.6,0.8c-0.1,0.5-0.1,0.6-0.1,1.1c0.7,0,2.3-0.1,2.7-0.4c0.9,0,1,0.2,1.2,0.7
			c0.4,0,0.7-0.1,0.9-0.3c0.3,0.2,0,0.4,0.2,0.8c0.2,0.3,0.1,0.2,0.4,0.2c0,0.7,0.2,0.9,0.1,1.5l-0.1-0.1c-1.2,0-1,0.5-1.5,1.1
			c0,0.3,0,0.4,0.1,0.5c0,0.1,0.1,0.2,0.1,0.3c1.2,0.1,1.6-0.1,1.8-1c1.4,0,1.6-0.3,2.2-1c0.1-0.2,0.3,0.2,0.5,0.3
			c-0.3,0.4-0.8,0.3-1,0.8c-0.2,0.2-0.3,0.9-0.1,1.2c0.1,0.3,0.3,0.3,0.6,0.4v0.4c-0.5,0.1-0.4,0.2-0.7,0c-1.3,0-1.5,0.7-1.4,1.6
			c0.4,0,0.8-0.1,1.2-0.1c0.1,0.1,0.4,0.4,0.8,0.2c1-0.4,0.5-0.8,2-0.8c-0.3,0.2-0.5,0.5-0.7,0.7c0,0.4-0.2,0.8,0,1.1
			c0.1,0.3,0.2,0.3,0.5,0.4c0.4,0.2,0.7-0.3,1.2-0.4c0,0.3,0,0.5,0.1,0.6c0,0.1-0.1,0.2-0.1,0.3c-0.6,0-0.9-0.1-1.3-0.2
			c-0.2,0.2-0.6,0.6-0.9,0.7c0,0.8-0.3,1.8-0.6,2.2c0.1,0.4,0.2,0.4,0.3,0.6c0.2,0,0.5-0.1,0.7-0.1c0.2-0.2,0.6-0.3,0.8-0.5
			c0.1-0.1,0.1-0.5,0.2-0.6v-0.2h0.1c0,0.3,0,0.5-0.1,0.6c0,0.8,0.1,1.1,0.6,1.3c0,0.3-0.1,0.5-0.2,0.7c-0.2,0.1-0.6-0.1-0.8,0.1
			c-0.4,0.1-0.4,0.4-0.6,0.6c0,0.8,0.1,1,0.8,1c-0.1,0.2-0.1,0.4-0.2,0.5c-0.1,0.3-0.1,0.2-0.4,0.3c-0.5,0.2-2.9-1-3.5-1.3
			c-0.8-0.4-1.6-0.6-2.4-1.1c-0.3-0.2-0.7-0.7-1-0.9h-0.3c0-0.1-0.1-0.2-0.1-0.3c-0.6-0.6-1.1-1.2-1.6-1.8c-0.3-0.3-0.8-0.6-1.1-0.8
			c-0.5-0.3-0.9-0.9-1.3-1.2l-0.9-0.3c-0.5-0.2-1.1-0.7-1.6-0.9c-0.6-0.3-1.1,0-1.7-0.2c-0.4-0.2-0.9-0.6-1.2-0.8
			c-0.2,0-0.4-0.1-0.6-0.1c-0.1-0.2-0.3-0.3-0.4-0.5c-0.5-0.2-1-0.2-1.5-0.4c-0.7-0.3-1.4-0.9-2.1-1.1c-1.8-0.6-4.4,0.1-5.9-0.4
			C423.9,361.1,421.7,355,423.5,351.3z M441.8,400.5c-0.1,0.1-0.1,0.1-0.2,0.2c-1.3,0-2.6-0.1-3.9-0.1c-1.3,0.3-2.7,0.4-4.1,0.2
			c-0.7-0.1-2,0.3-3.2,0c-2-0.6-4-0.9-5.9-1.5c-2.8-1-6.2-3.7-7.7-6h-0.4c-0.1-1.1-1.1-2-1.6-2.7c-0.2-0.3-0.3-1-0.4-1.2
			c-0.1,0-0.2-0.1-0.3-0.1c-0.3-0.4-0.3-0.8-0.5-1.2c-0.1-0.1-0.2-0.1-0.3-0.2c-0.2-0.4-0.1-0.8-0.3-1.2c-0.3-0.7-0.8-1.6-1-2.2
			c-0.3-0.8-0.1-1.5-0.3-2.5c-0.2-0.8-0.3-2.1-0.5-3.1c-0.3-1.5,0.9-3.3,1.4-4.3c0-0.2,0.1-0.4,0.1-0.6c0.2-0.3,1-0.8,1.2-1.1
			c1.5-2.1,4.1-5.6,6.4-6.7c0.6-0.3,1-0.2,1.7-0.4c0.4-0.1,1-0.5,1.3-0.6c0.9-0.3,1.6-0.2,2.5-0.6c0.4-0.2,0.9-0.8,1.3-0.9h1.4
			c0.8-0.2,2.3-0.4,3.2-0.1c1,0.3,2,1,3,1.4c0.5,0.2,0.9,0.2,1.3,0.4c0.6,0.3,1.1,0.9,1.8,1.1c1.4,0.5,3.5,0.8,4.5,1.6
			c1.3,1.2,2.5,2.5,4,3.6c0.3,0.4,0.7,0.8,1,1.1c1,0.7,2.1,1.1,3.2,1.6c1.2,0.6,3.1,1.6,5,1.1c4.3-1.1,4.5-6,3.3-10.2
			c-0.1-0.7-0.1-1.4-0.2-2c-0.3-0.9-1.4-3.3-2-3.8c0.2-0.4,1,0.1,1.2-0.6h0.4c-0.2,0.6-0.3,1.2-0.5,1.8l0.5,0.5c0.2,0,0.3,0,0.4-0.1
			h0.3c-0.1,0.3-0.2,0.5-0.3,0.8c0,0.5,0.1,0.5,0.3,0.8c0.7,0,1.2-0.4,1.4-0.3h0.8c-0.1,0.5-0.1,1.2-0.4,1.5c0,0.6,0,0.9,0.2,1.2
			c0.5,0,0.7,0,0.9-0.2c0.2-0.1,1.2-1.4,1.2-1.6h0.2c0.2,0.4,0.7,0.9,0.7,1.2c-0.3,0.5-0.9,0-1.3,0.2c-0.3,0.2-0.2,0.7-0.4,0.9
			c0,0.4,0.1,0.5,0.2,0.7c0.3,0.1,0.5,0.2,0.7,0c0.3,0.1,0.6,0.8,0.7,1c0.2,0.1,0.1,0,0.2,0.1c0.9,0,0.9-0.4,1.3-0.8l0.1-0.1v0.1
			c0.1,0,0.1,0.1,0.2,0.1c-0.2,0.3-0.4,0.6-0.7,0.8c0.2,0.7,0.5,1.8-0.1,2.5c0.1,0.5,0.2,0.5,0.4,0.8c0.5,0,0.7,0,0.9-0.2
			c0.4-0.2,0.4-0.6,0.7-0.9c0.2,0.4,0.4,0.7,0.4,1.1c-0.2,0-0.3-0.1-0.5-0.1c-0.1,0.1-0.3,0.2-0.4,0.3c-0.2,0.4-0.2,1.2-0.4,1.5
			c0,0.4,0.1,0.5,0.3,0.7c0.2,0.1,0.5,0,0.7,0.1c0.7,0.3,0.4,0.5,1.3,0.3l0.1,0.1v0.4c-0.3,0-0.4,0-0.5-0.1
			c-1.2,0.2-0.3,0.8-0.7,1.4c-0.1,0-0.3,0.1-0.4,0.1c-0.3,0.2-0.6,1.1-0.3,1.5c0.2,0.4,0.8,0.5,1.1,0.2l0.5,0.5c0,1.5,1,1.5,2,1.8
			c-0.1,0.6-0.4,1.1,0.2,1.4c-0.1,0.3-0.3,0.7-0.5,0.9c0,0.4,0.1,0.5,0.2,0.7c0.4,0.2,0.8,0.1,1.2,0.2c0.1,0.2,0,0.1,0.1,0.2
			c0,0.2,0,0.2-0.1,0.3c-0.2,0.1-0.2,0-0.3,0.1c-0.5,0.2-0.6,0.6-0.7,1.1c0.1,0.1,0.1,0.2,0.2,0.3c0.5,0.1,0.8,0.1,1.2-0.1
			c0.1,0.2,0.2,0.4,0.3,0.5c0,0.1-0.1,0.2-0.1,0.3h-0.4c0,0.5-0.3,0.9-0.2,1.1c0.1,0.6,0.6,0.6,1.2,0.5c0.2,0.7,0.5,1.2,0.5,2
			c-0.7,0.1-0.8,0.4-0.9,1c0.2,0.1,0.3,0.3,0.4,0.5c0.4,0,0.7,0,0.9-0.1c0.1,0.2,0.2,0.7,0.3,0.9c-0.1,0.5-0.3,0.1-0.7,0.3
			c-0.2,0.1-0.2,0.3-0.4,0.5c0,0.3,0,0.6,0.1,0.8c0.4,0.1,0.9,0.2,1.2-0.1c0.3,0.4,0.3,1.3,0.5,1.8c-1.2,0.5-1.2,1.3-0.5,2.2
			c0.7,0,0.6-0.2,1-0.5c0.4,1,1.2,2.7,0.2,3.7c0,0.7,0.4,0.9,1,0.8c0.2,0.6,1,3.6,0.8,4.3c-0.1,0.3-0.5,0.7-0.5,1
			c0,0.2,0.2,0.3,0.2,0.4c0,0.2-0.4,1-0.5,1.1c0,0.6,0.1,0.6,0.3,0.9c0.3,0,0.4,0,0.5-0.1h0.4l-0.1,0.1c0,0.5,0.1,1.3-0.1,1.6
			c-0.2,0.1-0.6-0.1-0.9,0.1c-0.4,0.1-1,0.9-0.6,1.4c-0.2,0.3-0.6,0.1-0.9,0.3c-0.1,0.2-0.2,0.3-0.3,0.5c-0.2,0.1-0.2-0.1-0.2-0.1
			c-0.4,0-0.9,0-1.2,0.1c-0.2,0.5-0.6,1.1,0,1.5c-0.2,0.5-2.7,1.5-3.4,1.5c0-0.5-0.1-0.6-0.2-1c-0.2,0-0.2,0-0.3-0.1
			c-1,0-1.4,0.3-1.6,1c-0.1,0.4,0.3,0.9,0,1.1c-0.5,0.4-1.1,0.2-1.8,0.4c-2,0.6-5.4,1-7.2-0.2c-1.5-1-2.1-3.3-2.9-5.2
			c-1.4-3.6-3.1-10.8-6.5-12.1c-1.6-0.6-4.2,0.2-5.8,0.5C443.2,400.7,442.1,400.4,441.8,400.5z M490.1,425.1c0,0.8,0.1,1,0.6,1.2
			v0.1c-0.4,0-0.7-0.2-0.8-0.1c-1.2,0-1.1,0.9-1.3,1.8c-0.1,0-0.2,0.1-0.3,0.1c-0.1-0.4,0.2-0.9,0-1.3c0-0.1-0.1-0.2-0.1-0.3
			c-0.6,0-0.9,0-1.2,0.3c-0.2,0.3-0.3,0.9-0.3,1.4c-0.7,0-1.7,0.2-2.5,0.6l-0.4,0.4c-1.6,0.7-3.1,1.3-4.6,1.9
			c-0.6,0.3-1.4,0.5-1.9,0.6h-1.1c-0.2,0.1-0.7,0.4-1,0.5c-0.9,0.3-2,0.1-2.9,0.3c-3.8,1-8.6,0.9-12.1-0.2c-1.2-0.4-2.2-0.2-3.3-0.7
			c-0.5-0.2-2.1-1.5-2.5-1.9c-0.5-0.5-0.8-1.2-1.2-1.8c-0.1-0.2-0.5-0.8-0.7-1c-0.1-0.1-0.4-0.2-0.5-0.3v-0.4l-0.4-0.4
			c-0.2-0.4-0.3-0.8-0.5-1.2c-1-1.7-2-3.9-2.7-5.8c-0.6-1.8-0.6-3.5-1.2-5.1c-0.3-0.9-0.2-2.2-0.5-3.2c-0.8-3-1.6-7-3.8-8.6
			c0.3-0.5,2.2-0.3,2.9-0.5c2.1-0.6,4-0.3,5.1,1.3c1.6,2.2,2.9,6.7,3.9,9.5c0.7,2.1,1.1,3.3,2.4,4.8c0.2,0.3,0.3,0.8,0.6,1
			c2,1.7,6.3,1.4,9,0.5c1.9-0.6,3.7-1.1,5.5-1.8c0.7-0.3,1.6-0.9,2.4-1.1c0.7-0.3,1.6-0.2,2.2-0.6c2.2-1.4,3.6-3.6,4.3-6.4
			c0.4,0.2,1.2,2,1.5,2.5c0.3,0.2,0.5,0.5,0.8,0.7c0.4,0.6,0.6,1.5,1.1,1.9c0.5,0.4,1.1,0.5,1.6,0.9c0.6,0.4,1.1,1.2,1.8,1.5
			c0.7,0.1,1.5,0.2,2.2,0.3c-0.1,0.6-0.5,0.7-0.6,1.1c-0.1,0.3,0.5,1.9,0.5,1.9c0,0.8-0.1,0.3-0.7,0.6c-0.2,0.1-0.3,0.3-0.5,0.4
			c-0.1,0.3-0.4,0.9-0.2,1.3c0.1,0,0.2,0.1,0.3,0.1c0.2,0.5-0.5,0.9-0.1,1.4c0.1,0.3,0.2,0.3,0.6,0.3c0.2-0.2,0.5-0.4,0.8-0.6
			c0-0.6-0.3-1.1-0.1-1.4c0.1-0.2,0-0.1,0.1-0.2c0.3,0.8,0.5,1.6,0.8,2.4C490.5,424.2,490.6,424.6,490.1,425.1z M490.4,412.3
			c-0.2,0-0.5,0.1-0.7,0.1c-0.4,0.2-0.8,0.9-1,1.3c-0.4,0-0.4,0-0.6-0.2h-0.1c0.1-0.3,0.4-0.8,0.6-1c0-0.7-0.1-0.6-0.4-0.9
			c-0.3,0-0.6,0-0.8,0.1c-0.5,0.2-0.7,0.7-0.7,1.4c-1.2-0.4-3.3-3.6-3.9-4.8c-0.1-0.4-0.2-0.9-0.3-1.3c-0.4-0.7-1.3-1.2-1.6-2
			c-0.3-0.7-0.1-1.4-0.4-2.2c-0.2-0.6-0.6-1.3-0.9-1.9c-0.2-0.3-0.1-1.1-0.1-1.2c-0.1-0.7-0.5-1.6-0.7-2.1c0-0.5-0.1-1-0.1-1.4
			c-0.6-1.8-0.8-3.7-1.3-5.5c0-0.3-0.1-0.7-0.1-1c-0.1-0.2-0.4-0.5-0.5-0.7c-0.1-0.3,0.2-1.1,0-1.6c-0.7-1.7-0.6-3.7-1.2-5.7
			c-0.7-2.2-1.3-4.9-2.5-6.8c-0.1-0.1-0.3-0.1-0.4-0.2c-0.2-0.4-0.1-0.8-0.3-1.2c-0.1-0.3-0.6-0.6-0.7-0.9c-0.6-1-0.4-1.9-1-2.8V369
			l0.1,0.1c0.4,0.2,0.2,0.5,0.4,0.9l0.3,0.3c0.4-0.1,0.6-0.2,0.9-0.3c0.5,0.6,1.4,1.1,2,1.5c0,0.4-0.1,0.6-0.3,0.8
			c0,1,0.6,1,0.8,1.8c0.2,0.1,0.3,0.1,0.4,0.2c0.6-0.1,1-0.3,1.1-0.8h0.2c0.5,0.5,1.1,1.1,1.6,1.4c-0.1,0.3-0.9,0.7-1.1,0.9
			c0,0.8,0.2,0.8,0.5,1.2c0.4,0,0.6,0,0.8-0.2c0.4-0.2,0.7-0.6,0.7-1.1h0.1c0.1,0.2,0.3,0.4,0.5,0.6c-0.1,0.1-0.1,0.1-0.3,0.1
			c-0.1,0.6-0.3,0.7-0.4,1.2c0.2,0.2,0.5,0.3,0.6,0.5c0.6-0.1,0.7-0.3,1.1-0.6c0.2-0.1,0.3,0.1,0.5,0.2c-0.1,0.6-0.2,0.8-0.2,1.3
			l0.1,0.1c0.3,0.1,0.7,0.2,1,0c0.7,0,1.5,0.8,1.7,1.3c0.1,0.3,0,0.5,0.1,0.7c0.2,0.4,0.5,0.4,0.9,0.5c0,0.5-0.3,1-0.1,1.3
			c0,0.1,0.1,0.2,0.1,0.3c0.4,0.1,0.7,0.1,1-0.1c0.7,0.2,0.9,1,1.2,1.4c0,0.5-0.2,0.8-0.4,1c0,1,0.6,0.8,1.3,1
			c0.1,0.4-0.2,1.3-0.1,1.5c0.1,0.2,0.5,0.3,0.6,0.5c0.1,0.2,0,0.5,0.1,0.6v0.2c-0.3-0.1-0.3-0.1-0.4-0.4c-0.5,0-0.8,0-1,0.2
			c-0.2,0.2-0.3,0.5-0.4,0.8c-0.1,0.3,0.1,0.6,0.3,0.8c0.3,0,0.4,0.1,0.5,0c0.6-0.1,0.6-0.3,1-0.6v-0.2c0.5,0.6,0.4,2.4,0.5,3.4
			c-0.5-0.1-0.8-0.5-1-0.8c-1,0-1,0.8-1.2,1.2c0.1,0.4,0.2,0.4,0.4,0.7c0.2,0,0.3,0,0.4-0.1c0.2,0.1,0.4,0.7,0.5,0.9
			c0.6,0,0.9,0,1.1-0.3h0.1c0.2,1.1,0.1,2.6,0.5,3.8c-0.7,0.3-0.8,0.4-1.3,0.8c0,0.2-0.1,0.4-0.1,0.6c0.1,0.2,0.3,0.4,0.4,0.6
			c0.7,0,0.8-0.2,1.3-0.3c0.4,1.1,0.1,2.8,0.5,3.9c0,0.1,0.4,0.5,0.4,0.6c0.1,0.3,0.1,0.9,0,1c-0.2,0.3-0.6,0.5-0.9,0.6
			c-0.1,0.3-0.1,0.5-0.3,0.7c0,0.7,0.1,0.6,0.4,0.9c0.5,0,0.7,0,0.9-0.2h0.2c0.1,0.2,0,0.1,0.1,0.2v0.4c-0.2,0.1-0.5,0.3-0.7,0.4
			c-0.2,0.2-0.1,0.4-0.3,0.6c0,0.3,0,0.4,0.1,0.5c0.2,0.5,0.5,0.3,0.9,0.6c0.1,0.1,0.1,0.1,0.1,0.3
			C490.7,411.6,490.9,412,490.4,412.3z M409.7,345.2v0.1h0.2v-0.2c-0.1,0-0.2-0.1-0.3-0.1C409.7,345.1,409.7,345.1,409.7,345.2z
			 M442.8,358.6c0-0.4-0.1-0.3-0.2-0.6c-0.4,0-0.8-0.1-1.2-0.1c-0.5,0.5-0.7,1.2-0.8,1.9l0.1,0.1
			C442.1,359.9,442.1,359.4,442.8,358.6z M448.8,360.3c0.1-0.4,0.1-0.8,0.2-1.2c-0.3-0.1-0.3-0.1-0.4-0.4c-0.3,0-0.4,0-0.5,0.1
			c-0.6,0.3-0.8,0.9-0.7,1.6C448.2,360.4,448.1,360.4,448.8,360.3z M448.6,366.5c-0.1,0.3-0.2,0.5-0.3,0.8c0.1,0.5,0.2,0.5,0.4,0.8
			c0.4,0,0.7,0,0.9-0.2c0.4-0.2,0.4-0.5,0.7-0.7c-0.1-0.3,0-0.3-0.1-0.4c0-0.4-0.1-0.4-0.2-0.6h-1
			C448.9,366.4,448.7,366.4,448.6,366.5z M464,372.9c0.1,0.1,0.5,0.1,0.7-0.1c0.4-0.1,0.6-0.5,0.8-0.8l0.1-0.1h-0.1
			c0-0.5-0.1-0.5-0.3-0.8c-0.2,0-0.4-0.1-0.6-0.1c-0.1,0.1-0.4,0-0.5,0.1c-0.2,0.1-0.3,0.7-0.5,0.9
			C463.6,372.5,463.6,372.7,464,372.9z M481.7,381.5c0-0.4,0.2-0.7,0.1-0.9c0-0.3,0-0.3-0.1-0.5c-0.2-0.1-0.4-0.2-0.7-0.2
			c-0.3,0.3-0.6,0.7-0.9,1C480.1,382.1,481,381.7,481.7,381.5z M481.1,382.4c-0.2,0.2-0.6,0.3-0.7,0.5c-0.2,0.3,0.1,0.2-0.2,0.4
			c0,0.5,0.1,0.6,0.2,0.9c0.4,0.1,0.9,0.2,1.2-0.1c0.3-0.2,0.5-0.8,0.6-1.2c-0.1-0.1-0.1-0.2-0.2-0.3
			C481.7,382.5,481.5,382.4,481.1,382.4z M474.6,401c-0.4-0.2-0.6-0.5-1.2-0.5c-0.3,0.4-0.6,0.8-0.7,1.4c0.2,0.2,0.3,0.4,0.5,0.6
			C474,402.4,474.4,401.8,474.6,401z M489.2,402.2c-0.2-0.1-0.4-0.1-0.7-0.1c-0.3,0.3-0.9,0.9-0.6,1.4c0.1,0.2,0.2,0.2,0.3,0.4
			c1.1,0,1-0.5,1.6-0.9C489.7,402.5,489.6,402.3,489.2,402.2z M476.7,406.4c0.1-0.1,0-0.3-0.1-0.6c-0.3-0.1-0.6-0.1-0.9-0.2
			c-0.1,0.1-0.3,0.2-0.4,0.3c0,0.2-0.1,0.5-0.2,0.6c0,0.5,0.1,0.5,0.3,0.8C476.4,407.4,476.4,407.1,476.7,406.4z M474.3,407.3h-0.6
			c-0.1,0.2-0.2,0.5-0.4,0.7c0,0.7,0.1,0.7,0.4,1c0.4,0,0.7-0.1,0.9-0.3h0.2c0-0.3,0-0.4,0.1-0.5
			C474.9,407.6,474.6,407.7,474.3,407.3z M474,409.9c0,0.5,0.1,0.5,0.3,0.8c0.8,0,0.9-0.2,1.3-0.6c0-0.9-0.2-0.7-0.6-1.1h-0.6
			C474.3,409.3,474.2,409.6,474,409.9z M471.7,413.2c0.2-0.2,0.3-0.3,0.4-0.6c0.1-0.1,0.1-0.3,0.2-0.4c-0.1-0.6-0.5-0.7-1.1-0.7
			c-0.2,0.3-0.3,0.6-0.5,0.9c0,0.5,0.1,0.5,0.3,0.8C471.4,413.1,471.5,413.1,471.7,413.2z M471.4,413.4c-0.2,0.3-0.7,0.9-0.5,1.2
			c0.1,0.5,0.2,0.5,0.4,0.8c0.6,0,0.7-0.1,1-0.3c0.2-0.8,0.1-1-0.2-1.6C471.9,413.4,471.6,413.4,471.4,413.4z M487.8,417.2
			c0-0.5,0-0.7-0.2-1c-0.2,0-0.5-0.1-0.7-0.1c-0.1,0.1-0.4,0.2-0.5,0.3c-0.3,0.2-0.3,0.6-0.5,0.8c0,0.2,0,0.3,0.1,0.4
			c0.1,0.3,0.2,0.3,0.4,0.5c0.2,0,0.5-0.1,0.7-0.1C487.3,417.8,487.6,417.4,487.8,417.2z M449,437.5c-0.9-0.4-1.8-0.8-2.8-1.3
			c-0.5-0.2-1-1-1.5-1.3c-0.4-0.2-0.9-0.2-1.2-0.5c-0.6-0.4-1-1.1-1.4-1.5c-2.6-2.6-5.3-5.3-6.6-9.2c-0.7-2.1-1-4.9-1.5-7.1h-0.3
			c-0.1,0.1-0.2,0.1-0.3,0.2c0.1,1.3,0.3,3.3,0.5,4.2c0,0.2-0.1,0.5-0.1,0.7c0.9,1.7,1.2,4,2.1,5.6c2,3.3,5.9,7.4,9.3,9.3
			c1.4,0.8,2.9,1.2,4.1,1.8c0.2-0.1,1.4,0.3,1.7,0.5c0.3,0,0.7,0,0.9-0.1h0.1C451.5,438,449.8,437.9,449,437.5z M488.1,423.9
			c-0.4,0.4-0.6,0.7-0.7,1.3c0.9,0.8,1,0.3,1.6-0.3c0-0.3-0.1-0.5-0.1-0.8C488.6,424,488.6,423.9,488.1,423.9z M442.4,441
			c-1-0.3-2.2-0.3-3.2-0.7c-4.5-1.9-9.4-6.8-9.6-11.7h-0.4c0,1-0.5,2-0.1,3.1c0.4,1.2,1.1,2,1.8,3.1c2.5,3.6,8,8.4,14,6.5
			c0-0.2,0-0.2-0.1-0.3C444.1,440.4,443.3,441.3,442.4,441z"/>
	</g>
</g>
<g>
	<g>
		<path class="st1" d="M426.8,362c1.5,0.5,4.1-0.2,5.9,0.4c0.8,0.3,1.5,0.8,2.1,1.1c0.5,0.2,1,0.2,1.5,0.4c0.1,0.2,0.3,0.3,0.4,0.5
			c0.2,0,0.4,0.1,0.6,0.1c0.4,0.2,0.8,0.7,1.2,0.8c0.6,0.2,1.1,0,1.7,0.2c0.5,0.2,1.2,0.7,1.6,0.9l0.9,0.3c0.5,0.3,0.9,0.9,1.3,1.2
			c0.4,0.3,0.8,0.5,1.1,0.8c0.6,0.7,1,1.2,1.6,1.8c0,0.1,0.1,0.2,0.1,0.3h0.3c0.3,0.2,0.7,0.7,1,0.9c0.8,0.5,1.6,0.7,2.4,1.1
			c0.5,0.3,2.9,1.5,3.5,1.3c0.3-0.1,0.3,0,0.4-0.3c0.1-0.1,0.2-0.3,0.2-0.5c-0.7,0-0.9-0.3-0.8-1c0.2-0.3,0.2-0.5,0.6-0.6
			c0.3-0.2,0.7,0,0.8-0.1c0.1-0.2,0.2-0.4,0.2-0.7c-0.5-0.3-0.6-0.5-0.6-1.3c0.1-0.1,0.1-0.3,0.1-0.6h-0.1v0.2
			c-0.1,0.1-0.1,0.5-0.2,0.6c-0.2,0.2-0.6,0.3-0.8,0.5c-0.2,0-0.5,0.1-0.7,0.1c-0.2-0.3-0.2-0.2-0.3-0.6c0.3-0.5,0.6-1.5,0.6-2.2
			c0.3-0.1,0.7-0.5,0.9-0.7c0.4,0.1,0.8,0.2,1.3,0.2c0-0.1,0.1-0.2,0.1-0.3c-0.1-0.1-0.1-0.3-0.1-0.6c-0.5,0.1-0.8,0.6-1.2,0.4
			c-0.3-0.1-0.4-0.1-0.5-0.4c-0.2-0.3,0-0.7,0-1.1c0.2-0.2,0.5-0.5,0.7-0.7c-1.6,0-1.1,0.4-2,0.8c-0.4,0.2-0.7-0.2-0.8-0.2
			c-0.4,0-0.8,0.1-1.2,0.1c-0.1-0.9,0.2-1.7,1.4-1.6c0.3,0.2,0.2,0.1,0.7,0v-0.4c-0.3-0.1-0.5-0.1-0.6-0.4c-0.2-0.3-0.1-1,0.1-1.2
			c0.2-0.6,0.7-0.4,1-0.8c-0.2-0.1-0.4-0.5-0.5-0.3c-0.6,0.7-0.8,1-2.2,1c-0.2,0.9-0.7,1.1-1.8,1c0-0.1-0.1-0.2-0.1-0.3
			c-0.1-0.1-0.1-0.3-0.1-0.5c0.5-0.6,0.3-1.1,1.5-1.1l0.1,0.1c0.1-0.7-0.1-0.9-0.1-1.5c-0.3,0-0.2,0.1-0.4-0.2
			c-0.2-0.4,0.1-0.6-0.2-0.8c-0.2,0.2-0.5,0.3-0.9,0.3c-0.3-0.5-0.3-0.7-1.2-0.7c-0.3,0.3-2,0.4-2.7,0.4c0-0.6,0-0.6,0.1-1.1
			c0.5-0.3,1.1-0.6,1.6-0.8V356c-0.8,0-0.7-0.4-1.3-0.6v0.1c-0.1,0.2-0.2,0.5-0.3,0.7c-0.2,0-0.5,0.1-0.7,0.1
			c-0.1-0.1-0.2-0.1-0.3-0.2c0.1-0.4,0.2-0.8,0.3-1.1c0.3-0.1,0.6-0.2,0.7-0.5h-0.3c-0.3,0.5-0.7,0.7-1.4,0.7V355
			c-0.1-0.2-0.2-0.5-0.1-0.6c0.1-0.4,0.2-0.5,0.4-0.8c-0.5-0.2-0.6-0.3-0.7-0.9c0.1-0.1,0.2-0.3,0.3-0.5h-0.3
			c-0.3,0.6-0.6,1.2-1.4,1.2c-0.2,0.1-0.6,0.1-0.9,0.1v-0.2c-0.3-0.5,0.2-1.1,0.1-1.4c-0.4-0.8-1.6-0.4-2.7-0.3c0,0.3,0.1,0.3,0,0.5
			c-0.4,0.5-1.2,0.7-1.9,0.5c0-0.3-0.1-0.3,0-0.5c0.2-0.7,0.5-1.1,1.4-1c0.1-0.4,0.1-0.8,0.2-1.2c-0.5-0.1-0.9-0.5-1.5-0.3
			c-0.9,0.2-1,0.5-2,0.5l-0.1-0.1c0.1-0.3,0.4-1.3,0.3-1.3c-0.3-0.3-0.9-0.5-1.3-0.6c-0.2,0.1-0.3,0.4-0.5,0.4
			c-0.6,0.2-0.8-0.2-1.1-0.3c-0.5,0.3-0.8,0.4-1.7,0.4c0-0.6-0.1-0.6,0.1-1c-0.7-0.1-1.1-0.3-1.7-0.4c-0.4,0.5-0.9,0.1-1.4,0.5
			c-0.2,0.1-0.2,0.3-0.3,0.5c-0.2,0.3-0.7,0.4-0.9,0.7c-0.3,0.4-0.4,0.9-0.7,1.4c-0.2,0.4-0.7,0.7-0.9,1.1
			C421.7,355,423.9,361.1,426.8,362z M449,366.2h1c0.1,0.2,0.2,0.2,0.2,0.6c0.1,0.1,0,0.1,0.1,0.4c-0.3,0.3-0.3,0.6-0.7,0.7
			c-0.2,0.2-0.5,0.2-0.9,0.2c-0.2-0.3-0.4-0.3-0.4-0.8c0.1-0.3,0.2-0.5,0.3-0.8C448.7,366.4,448.9,366.4,449,366.2z M448.1,358.8
			c0.1-0.1,0.3-0.1,0.5-0.1c0.1,0.3,0.2,0.3,0.4,0.4c-0.1,0.4-0.1,0.8-0.2,1.2c-0.7,0.1-0.6,0.1-1.4,0.1
			C447.3,359.7,447.5,359,448.1,358.8z M441.3,357.9c0.4,0,0.8,0.1,1.2,0.1c0.1,0.3,0.2,0.2,0.2,0.6c-0.6,0.8-0.6,1.4-2.1,1.3
			l-0.1-0.1C440.6,359.1,440.8,358.4,441.3,357.9z M446.1,352.6c0.1-0.2-0.2-0.1-0.3-0.1C446,352.8,445.9,352.6,446.1,352.6z
			 M444.7,353.5c0.1-0.1,0.1-0.1,0.1-0.3h-0.1c-0.1,0.1-0.4,0.2-0.2,0.3C444.7,353.6,444.6,353.5,444.7,353.5z M447.7,356.3
			c0.4-0.1,0.5-0.4,0.6-0.8l0.1-0.1h-0.2c-0.3,0.4-0.7,0.2-0.9,0.7h-0.1l0.1,0.1C447.5,356.4,447.5,356.4,447.7,356.3z M453.9,355.9
			l0.1-0.1c0.1-0.1,0.1-0.2,0.2-0.4H454c-0.1,0.3-0.2,0.3-0.1,0.4V355.9z M457.7,357.4v-0.2c-0.2-0.2-0.3-0.3-0.6-0.4
			c-0.1-0.1-0.1-0.1-0.3-0.1C456.9,357.1,457.3,357.3,457.7,357.4z M455.5,357.9c0.1,0.1,0.1,0.1,0.3,0.1c0-0.4,0.2-0.6,0.3-0.8
			h-0.6c-0.1-0.1-0.3-0.1-0.6-0.1v0.2C455.2,357.5,455.1,357.7,455.5,357.9z M449.3,400.2c3.5,1.3,5.1,8.4,6.5,12.1
			c0.7,1.9,1.3,4.2,2.9,5.2c1.8,1.2,5.1,0.8,7.2,0.2c0.8-0.2,1.3,0,1.8-0.4c0.3-0.3-0.1-0.7,0-1.1c0.2-0.7,0.7-1,1.6-1
			c0.1,0.1,0.1,0.1,0.3,0.1c0.1,0.4,0.2,0.5,0.2,1c0.7,0,3.2-1.1,3.4-1.5c-0.6-0.4-0.2-1,0-1.5c0.3-0.1,0.8-0.1,1.2-0.1
			c0.1,0,0,0.2,0.2,0.1c0.1-0.2,0.2-0.3,0.3-0.5c0.3-0.2,0.7,0,0.9-0.3c-0.4-0.5,0.2-1.3,0.6-1.4c0.3-0.2,0.7,0,0.9-0.1
			c0.2-0.3,0.1-1.2,0.1-1.6l0.1-0.1h-0.4c-0.1,0.1-0.3,0.1-0.5,0.1c-0.2-0.3-0.3-0.4-0.3-0.9c0.1-0.2,0.5-1,0.5-1.1
			c0-0.1-0.2-0.2-0.2-0.4c0-0.3,0.4-0.7,0.5-1c0.2-0.7-0.6-3.7-0.8-4.3c-0.6,0.1-1-0.1-1-0.8c1-1,0.2-2.7-0.2-3.7
			c-0.4,0.3-0.3,0.5-1,0.5c-0.6-0.9-0.7-1.8,0.5-2.2c-0.2-0.5-0.2-1.4-0.5-1.8c-0.3,0.3-0.8,0.2-1.2,0.1c-0.1-0.2-0.1-0.5-0.1-0.8
			c0.2-0.2,0.2-0.4,0.4-0.5c0.4-0.3,0.6,0.2,0.7-0.3c-0.1-0.2-0.2-0.7-0.3-0.9c-0.2,0.1-0.6,0.1-0.9,0.1c-0.1-0.2-0.3-0.4-0.4-0.5
			c0.1-0.6,0.3-1,0.9-1c0-0.8-0.3-1.3-0.5-2c-0.6,0-1.1,0.1-1.2-0.5c-0.1-0.3,0.2-0.6,0.2-1.1h0.4c0-0.1,0.1-0.2,0.1-0.3
			c-0.1-0.1-0.2-0.4-0.3-0.5c-0.4,0.2-0.7,0.2-1.2,0.1c-0.1-0.1-0.1-0.2-0.2-0.3c0.2-0.5,0.2-0.9,0.7-1.1c0.1-0.1,0.1,0,0.3-0.1
			c0.1-0.1,0.1-0.1,0.1-0.3c-0.1-0.1,0,0-0.1-0.2c-0.4-0.1-0.8,0-1.2-0.2c-0.1-0.3-0.2-0.3-0.2-0.7c0.2-0.2,0.4-0.6,0.5-0.9
			c-0.6-0.4-0.3-0.8-0.2-1.4c-1.1-0.3-2.1-0.4-2-1.8l-0.5-0.5c-0.3,0.3-0.9,0.2-1.1-0.2c-0.3-0.4,0.1-1.3,0.3-1.5
			c0.1,0,0.3-0.1,0.4-0.1c0.4-0.6-0.4-1.2,0.7-1.4c0.1,0.1,0.3,0.1,0.5,0.1v-0.4l-0.1-0.1c-1,0.2-0.6,0-1.3-0.3
			c-0.2-0.1-0.5,0-0.7-0.1c-0.2-0.2-0.3-0.3-0.3-0.7c0.2-0.4,0.3-1.2,0.4-1.5c0.2-0.1,0.3-0.2,0.4-0.3c0.2,0,0.3,0.1,0.5,0.1
			c-0.1-0.5-0.2-0.7-0.4-1.1c-0.3,0.3-0.3,0.7-0.7,0.9c-0.2,0.2-0.5,0.2-0.9,0.2c-0.2-0.3-0.4-0.3-0.4-0.8c0.6-0.7,0.3-1.8,0.1-2.5
			c0.3-0.2,0.5-0.5,0.7-0.8c-0.1,0-0.1-0.1-0.2-0.1v-0.1l-0.1,0.1c-0.4,0.4-0.4,0.8-1.3,0.8c-0.1-0.1,0,0-0.2-0.1
			c-0.1-0.2-0.5-0.9-0.7-1c-0.2,0.2-0.4,0.1-0.7,0c-0.1-0.2-0.2-0.3-0.2-0.7c0.2-0.2,0.2-0.8,0.4-0.9c0.4-0.2,1,0.3,1.3-0.2
			c0-0.3-0.5-0.8-0.7-1.2h-0.2c-0.1,0.2-1,1.5-1.2,1.6c-0.2,0.2-0.5,0.2-0.9,0.2c-0.2-0.3-0.2-0.7-0.2-1.2c0.3-0.3,0.3-1,0.4-1.5
			h-0.8c-0.3-0.1-0.8,0.3-1.4,0.3c-0.2-0.3-0.3-0.3-0.3-0.8c0.1-0.3,0.2-0.5,0.3-0.8h-0.3c-0.1,0.1-0.2,0.1-0.4,0.1l-0.5-0.5
			c0.2-0.6,0.3-1.2,0.5-1.8h-0.4c-0.3,0.7-1,0.2-1.2,0.6c0.7,0.5,1.7,2.9,2,3.8c0.1,0.7,0.1,1.4,0.2,2c1.3,4.2,1,9.1-3.3,10.2
			c-1.9,0.5-3.8-0.5-5-1.1c-1.1-0.6-2.2-0.9-3.2-1.6c-0.3-0.4-0.7-0.8-1-1.1c-1.4-1.1-2.6-2.4-4-3.6c-1-0.9-3.1-1.1-4.5-1.6
			c-0.7-0.2-1.3-0.8-1.8-1.1c-0.5-0.2-0.9-0.2-1.3-0.4c-0.9-0.4-2-1.1-3-1.4c-0.8-0.3-2.4-0.1-3.2,0.1h-1.4
			c-0.4,0.2-0.9,0.7-1.3,0.9c-0.9,0.4-1.5,0.3-2.5,0.6c-0.3,0.1-0.9,0.5-1.3,0.6c-0.7,0.2-1.1,0.1-1.7,0.4c-2.3,1.1-5,4.6-6.4,6.7
			c-0.2,0.3-1,0.9-1.2,1.1c0,0.2-0.1,0.4-0.1,0.6c-0.6,1-1.7,2.8-1.4,4.3c0.2,1,0.3,2.3,0.5,3.1c0.3,0.9,0,1.6,0.3,2.5
			c0.2,0.7,0.7,1.6,1,2.2c0.2,0.4,0.1,0.8,0.3,1.2c0.1,0.1,0.2,0.1,0.3,0.2c0.3,0.4,0.3,0.8,0.5,1.2c0.1,0,0.2,0.1,0.3,0.1
			c0.2,0.2,0.2,1,0.4,1.2c0.6,0.7,1.5,1.5,1.6,2.7h0.4c1.5,2.3,4.9,5.1,7.7,6c1.9,0.7,4,1,5.9,1.5c1.2,0.3,2.4-0.1,3.2,0
			c1.4,0.2,2.8,0.1,4.1-0.2c1.3,0,2.6,0.1,3.9,0.1c0.1-0.1,0.1-0.1,0.2-0.2c0.2,0,1.3,0.3,1.6,0.2
			C445.1,400.4,447.7,399.6,449.3,400.2z M475.3,405.9c0.2-0.1,0.3-0.2,0.4-0.3c0.3,0.1,0.6,0.1,0.9,0.2c0.1,0.3,0.2,0.5,0.1,0.6
			c-0.3,0.7-0.3,1-1.3,0.9c-0.2-0.3-0.3-0.3-0.3-0.8C475.2,406.4,475.2,406.1,475.3,405.9z M475.7,410.1c-0.4,0.4-0.5,0.6-1.3,0.6
			c-0.2-0.3-0.3-0.3-0.3-0.8c0.1-0.3,0.3-0.6,0.4-0.9h0.6C475.4,409.4,475.7,409.2,475.7,410.1z M475,408.2
			c-0.1,0.1-0.1,0.3-0.1,0.5h-0.2c-0.2,0.2-0.5,0.3-0.9,0.3c-0.3-0.3-0.4-0.3-0.4-1c0.2-0.2,0.3-0.5,0.4-0.7h0.6
			C474.6,407.7,474.9,407.6,475,408.2z M473.3,400.5c0.6,0,0.8,0.3,1.2,0.5c-0.2,0.9-0.6,1.4-1.4,1.5c-0.2-0.2-0.3-0.4-0.5-0.6
			C472.7,401.3,473,400.9,473.3,400.5z M472.3,415.1c-0.4,0.2-0.4,0.3-1,0.3c-0.2-0.3-0.4-0.3-0.4-0.8c-0.2-0.3,0.3-0.9,0.5-1.2
			c0.2,0,0.5,0.1,0.7,0.1C472.4,414.1,472.5,414.3,472.3,415.1z M471.2,411.4c0.7,0,1.1,0.1,1.1,0.7c-0.1,0.1-0.1,0.3-0.2,0.4
			c-0.1,0.3-0.2,0.4-0.4,0.6c-0.2,0-0.3,0-0.7,0c-0.2-0.3-0.3-0.3-0.3-0.8C470.9,412.1,471,411.7,471.2,411.4z M463.6,372
			c0.2-0.2,0.3-0.8,0.5-0.9c0.2-0.1,0.4,0,0.5-0.1c0.2,0,0.4,0.1,0.6,0.1c0.2,0.3,0.3,0.3,0.3,0.8h0.1l-0.1,0.1
			c-0.2,0.3-0.4,0.7-0.8,0.8c-0.2,0.2-0.6,0.2-0.7,0.1C463.6,372.7,463.6,372.5,463.6,372z M459.4,360.7h0.1
			c0.1-0.1,0.3-0.1,0.6-0.1c0.1-0.3,0.2-0.4,0.4-0.6v-0.2c-0.3-0.2-0.5-0.5-0.9-0.6c0.1,0.2,0.1,0.4,0.2,0.8
			C459.6,360.2,459.5,360.3,459.4,360.7z M462.2,361.6h-0.1c-0.1-0.1,0,0-0.2-0.1c0,0.1-0.1,0.3-0.1,0.4h0.1
			C462,361.8,462.1,361.9,462.2,361.6z M490.7,410.6c-0.1-0.1-0.1-0.3-0.1-0.5c0.2-0.2,0.2-0.4,0.3-0.6c0.2-0.1,0.5-0.3,0.7-0.4
			v-0.4c-0.1-0.1,0,0-0.1-0.2h-0.2c-0.2,0.2-0.5,0.2-0.9,0.2c-0.3-0.3-0.4-0.3-0.4-0.9c0.2-0.2,0.2-0.4,0.3-0.7
			c0.3-0.1,0.8-0.3,0.9-0.6c0.1-0.1,0.1-0.7,0-1c-0.1-0.2-0.4-0.5-0.4-0.6c-0.4-1.1-0.1-2.8-0.5-3.9c-0.5,0.1-0.6,0.3-1.3,0.3
			c-0.1-0.2-0.3-0.4-0.4-0.6c0-0.2,0.1-0.4,0.1-0.6c0.5-0.4,0.6-0.5,1.3-0.8c-0.4-1.2-0.3-2.6-0.5-3.8h-0.1
			c-0.2,0.3-0.5,0.3-1.1,0.3c-0.1-0.2-0.3-0.8-0.5-0.9c-0.1,0.1-0.2,0.1-0.4,0.1c-0.2-0.3-0.3-0.3-0.4-0.7c0.3-0.4,0.2-1.2,1.2-1.2
			c0.2,0.4,0.5,0.8,1,0.8c-0.1-1,0-2.7-0.5-3.4v0.2c-0.4,0.3-0.4,0.5-1,0.6c-0.1,0.1-0.2,0-0.5,0c-0.2-0.3-0.4-0.5-0.3-0.8
			c0.1-0.3,0.2-0.6,0.4-0.8c0.2-0.2,0.6-0.2,1-0.2c0.1,0.3,0.1,0.3,0.4,0.4v-0.2c-0.1-0.1,0-0.4-0.1-0.6c-0.1-0.2-0.5-0.3-0.6-0.5
			c-0.1-0.2,0.2-1.1,0.1-1.5c-0.8-0.2-1.3,0-1.3-1c0.2-0.3,0.4-0.5,0.4-1c-0.4-0.5-0.6-1.3-1.2-1.4c-0.3,0.2-0.7,0.2-1,0.1
			c0-0.1-0.1-0.2-0.1-0.3c-0.2-0.4,0.1-0.8,0.1-1.3c-0.4-0.1-0.8-0.1-0.9-0.5c-0.1-0.2,0-0.5-0.1-0.7c-0.2-0.5-1-1.3-1.7-1.3
			c-0.3,0.2-0.7,0.1-1,0l-0.1-0.1c0-0.6,0.1-0.7,0.2-1.3c-0.2-0.1-0.3-0.3-0.5-0.2c-0.4,0.3-0.5,0.5-1.1,0.6
			c-0.2-0.2-0.4-0.4-0.6-0.5c0.1-0.5,0.3-0.6,0.4-1.2c0.2,0,0.2,0,0.3-0.1c-0.2-0.2-0.4-0.4-0.5-0.6h-0.1c-0.1,0.5-0.3,1-0.7,1.1
			c-0.2,0.2-0.4,0.2-0.8,0.2c-0.3-0.4-0.5-0.4-0.5-1.2c0.3-0.2,1-0.6,1.1-0.9c-0.6-0.4-1.2-0.9-1.6-1.4h-0.2
			c-0.1,0.5-0.5,0.7-1.1,0.8c-0.1-0.1-0.2-0.1-0.4-0.2c-0.3-0.9-0.8-0.8-0.8-1.8c0.2-0.2,0.3-0.4,0.3-0.8c-0.7-0.4-1.5-1-2-1.5
			c-0.3,0.1-0.5,0.3-0.9,0.3L471,370c-0.2-0.4,0-0.7-0.4-0.9l-0.1-0.1v0.4c0.6,0.9,0.5,1.7,1,2.8c0.2,0.3,0.6,0.6,0.7,0.9
			c0.2,0.4,0.1,0.8,0.3,1.2c0.1,0.1,0.3,0.1,0.4,0.2c1.2,2,1.8,4.7,2.5,6.8c0.6,2.1,0.5,4,1.2,5.7c0.2,0.5-0.1,1.3,0,1.6
			c0.1,0.2,0.4,0.5,0.5,0.7c0,0.3,0.1,0.7,0.1,1c0.6,1.8,0.7,3.7,1.3,5.5c0,0.5,0.1,1,0.1,1.4c0.2,0.6,0.6,1.5,0.7,2.1
			c0,0.1-0.1,0.9,0.1,1.2c0.3,0.6,0.7,1.3,0.9,1.9c0.3,0.8,0.1,1.5,0.4,2.2c0.4,0.8,1.2,1.3,1.6,2c0.1,0.4,0.2,0.9,0.3,1.3
			c0.6,1.2,2.7,4.4,3.9,4.8c0-0.7,0.2-1.2,0.7-1.4c0.2-0.1,0.5-0.1,0.8-0.1c0.3,0.3,0.4,0.3,0.4,0.9c-0.2,0.2-0.5,0.7-0.6,1h0.1
			c0.2,0.2,0.2,0.2,0.6,0.2c0.2-0.4,0.6-1.2,1-1.3c0.2,0,0.5-0.1,0.7-0.1c0.5-0.4,0.3-0.7,1.3-0.8c0-0.2,0-0.2-0.1-0.3
			C491.2,410.9,490.9,411.1,490.7,410.6z M481,379.8c0.3,0,0.5,0.1,0.7,0.2c0.1,0.2,0.1,0.2,0.1,0.5c0.1,0.2-0.1,0.5-0.1,0.9
			c-0.7,0.3-1.6,0.7-1.6-0.6C480.4,380.5,480.7,380.2,481,379.8z M481.6,384.1c-0.3,0.3-0.8,0.2-1.2,0.1c-0.1-0.3-0.2-0.4-0.2-0.9
			c0.3-0.2,0-0.1,0.2-0.4c0.1-0.2,0.5-0.3,0.7-0.5c0.4,0,0.6,0.1,0.9,0.2c0.1,0.1,0.1,0.2,0.2,0.3
			C482.1,383.3,481.9,383.9,481.6,384.1z M488.1,404c-0.1-0.2-0.2-0.2-0.3-0.4c-0.3-0.5,0.3-1.1,0.6-1.4c0.3,0,0.6,0,0.7,0.1
			c0.4,0.1,0.6,0.3,0.6,0.8C489.2,403.5,489.3,403.9,488.1,404z M469.3,376h-0.2v0.2h0.2V376z M490.3,421.7
			c-0.2,0.3,0.1,0.8,0.1,1.4c-0.3,0.2-0.6,0.4-0.8,0.6c-0.4,0-0.5,0-0.6-0.3c-0.4-0.5,0.3-0.9,0.1-1.4c-0.1,0-0.2-0.1-0.3-0.1
			c-0.2-0.4,0.1-1,0.2-1.3c0.2-0.1,0.4-0.3,0.5-0.4c0.6-0.3,0.7,0.2,0.7-0.6c0,0-0.6-1.7-0.5-1.9c0.1-0.4,0.5-0.6,0.6-1.1
			c-0.7-0.1-1.5-0.2-2.2-0.3c-0.7-0.3-1.2-1.1-1.8-1.5c-0.5-0.4-1.2-0.5-1.6-0.9c-0.5-0.5-0.7-1.3-1.1-1.9c-0.3-0.2-0.5-0.5-0.8-0.7
			c-0.4-0.5-1.1-2.2-1.5-2.5c-0.7,2.9-2.1,5.1-4.3,6.4c-0.6,0.4-1.5,0.3-2.2,0.6c-0.7,0.3-1.6,0.8-2.4,1.1c-1.8,0.8-3.6,1.2-5.5,1.8
			c-2.7,0.9-7,1.2-9-0.5c-0.3-0.2-0.4-0.7-0.6-1c-1.2-1.5-1.6-2.7-2.4-4.8c-1-2.8-2.3-7.3-3.9-9.5c-1.2-1.6-3-2-5.1-1.3
			c-0.7,0.2-2.6,0.1-2.9,0.5c2.2,1.6,3,5.6,3.8,8.6c0.3,1,0.2,2.2,0.5,3.2c0.6,1.6,0.6,3.4,1.2,5.1c0.7,2,1.6,4.1,2.7,5.8
			c0.2,0.4,0.3,0.8,0.5,1.2l0.4,0.4v0.4c0.1,0.1,0.4,0.2,0.5,0.3c0.2,0.2,0.6,0.8,0.7,1c0.4,0.6,0.7,1.3,1.2,1.8
			c0.4,0.4,2,1.7,2.5,1.9c1,0.5,2.1,0.3,3.3,0.7c3.5,1.1,8.3,1.2,12.1,0.2c0.9-0.2,2,0,2.9-0.3c0.3-0.1,0.8-0.4,1-0.5h1.1
			c0.6-0.2,1.3-0.3,1.9-0.6c1.5-0.7,3-1.3,4.6-1.9l0.4-0.4c0.7-0.4,1.7-0.6,2.5-0.6c0-0.6,0.1-1.1,0.3-1.4c0.3-0.3,0.6-0.3,1.2-0.3
			c0,0.1,0.1,0.2,0.1,0.3c0.2,0.4-0.1,0.9,0,1.3c0.1,0,0.2-0.1,0.3-0.1c0.3-1,0.1-1.8,1.3-1.8c0.1-0.1,0.4,0.1,0.8,0.1v-0.1
			c-0.6-0.2-0.7-0.4-0.6-1.2c0.5-0.5,0.4-0.9,1.1-1.2c-0.3-0.8-0.5-1.6-0.8-2.4C490.3,421.6,490.4,421.6,490.3,421.7z M486.4,418.2
			c-0.2-0.2-0.3-0.2-0.4-0.5c-0.1-0.1-0.1-0.2-0.1-0.4c0.2-0.2,0.3-0.6,0.5-0.8c0.1-0.1,0.4-0.2,0.5-0.3c0.2,0,0.5,0.1,0.7,0.1
			c0.2,0.3,0.2,0.5,0.2,1c-0.2,0.2-0.5,0.6-0.7,0.8C486.9,418.1,486.6,418.1,486.4,418.2z M487.4,425.2c0.1-0.7,0.3-0.9,0.7-1.3
			c0.4,0,0.5,0.1,0.8,0.2c0,0.3,0.1,0.5,0.1,0.8C488.4,425.5,488.4,426,487.4,425.2z M492.8,207.8h-0.3c0,0.1,0.1,0.3,0.1,0.4h0.3
			v-0.3C492.8,207.9,492.8,207.8,492.8,207.8z"/>
	</g>
</g>
</svg>
