<?xml version="1.0" encoding="utf-8"?>
<!-- Generator: Adobe Illustrator 19.2.1, SVG Export Plug-In . SVG Version: 6.00 Build 0)  -->
<svg version="1.1" id="Calque_1" xmlns="http://www.w3.org/2000/svg" xmlns:xlink="http://www.w3.org/1999/xlink" x="0px" y="0px"
	 viewBox="0 0 595.3 283.5" style="enable-background:new 0 0 595.3 283.5;" xml:space="preserve">
<style type="text/css">
	.st0{fill:#1D1D1B;}
	.st1{fill:none;stroke:#1D1D1B;stroke-width:5;stroke-miterlimit:10;}
</style>
<g>
	<g>
		<path class="st0" d="M358.5,128.7c-0.1-1.5-1.2-2.7-2.6-3.1c-1.6-0.5-2.7,0-4.7-0.6c-1.2-0.4-2.4-1-3.3-1.6
			c-0.7-0.4-1.7-0.4-2.5-0.9c-1.6-0.8-3.2-1.6-4.7-2.5c-4-2.6-7.1-5.9-10.8-8.8c-1.1-0.9-2.3-1.4-3.5-2.2c-1.9-1.3-3.8-3-5.4-4.3
			c-0.9-0.8-2-1.1-2.9-1.9c-0.7-0.8-1.3-1.6-1.9-2.3c-3.3-3.4-6.1-6.8-8.3-11c-0.6-1.2-1.5-2.3-2-3.7c0.6-0.7,1.5-1.2,2.1-1.9
			c0.3-0.7-1-2.6-1.3-3.2c-1.2-2.5-2.3-5-3.5-7.5c-3.8-7.8-6.1-16.6-9.5-24.8c-0.9-2.2-1.6-4.3-2.6-6.4c-0.4-0.8-0.4-1.9-1-2.6
			c-1.4,0.2-0.1,1.6,0,2.3c-0.5,0-1.2-0.2-1.3,0.5c0,0,0.1,0.1,0.1,0.1c0.5,0.5,1.2,0.3,1.7,0.2c0,0.7,0.6,1,0.6,1.8
			c-0.2,0-0.4,0-0.7,0c-0.1,0.1-0.2,0.2-0.3,0.3c0,0.1,0,0.2,0,0.4c0.4,0.3,1,0.2,1.6,0.5c0.1,0.6,0.4,1,0.5,1.6
			c-0.2,0-0.6,0-0.9,0.1c0,0.4,0,0.5,0.1,0.7c0,0,0,0.1,0.1,0.2c0.4,0,0.8,0,1.2,0c0.4,1.5,1,1.5-0.7,2c0,0.1,0,0.2-0.1,0.3
			c0.4,0.4,1.2,0.6,1.9,0.5c0.2,0.7,0.4,1.4,0.6,2c-0.5-0.1-1.3-0.1-1.7,0.2c0,0.1,0,0.3,0.1,0.4c0.4,0.1,1.7,0.2,1.9,0.3
			c0.3,0.2,0.4,0.9,0.4,1.4c-0.3,0-0.5,0-0.8,0c-0.1,0.1-0.2,0.2-0.3,0.4c0.3,0.7,1.3,0.5,1.8,0.9c0.1,0.6,0.4,1,0.4,1.7
			c0,0-0.1,0-0.1,0c-0.4,0-1.1,0-1.3,0.2c0,0.1,0,0.1-0.1,0.2c0.1,0.1,0.1,0.2,0.4,0.3c0.6,0.2,1.2-0.1,1.8,0.2
			c0.2,0.7,0.3,1.3,0.5,2c-0.5,0-1-0.1-1.5,0.1c0,0.1,0,0.1-0.1,0.2c0.3,0.7,1.2,0.6,2,0.8c0.2,0.6,0.6,1,0.6,1.7
			c-0.5-0.1-1.3,0-1.8,0.1c0,0.1,0,0.2,0,0.3c0.1,0.2,0.1,0.3,0.2,0.5c0.9,0.1,1.5,0,2.1,0.1c0.2,0.5,0.4,1,0.6,1.5v0
			c-0.8-0.1-1.5-0.1-2,0.1c0,0.1,0,0.3,0.1,0.5c0.7,0.3,1.8,0.1,2.4,0.6c0,0.6,0.4,0.8,0.4,1.4c0,0,0,0-0.1,0
			c-0.4,0.1-1.4-0.2-1.8,0.1c-0.1,0.2,0,0.4,0.2,0.7c0.9,0.1,1.4,0.1,2.2,0.1c0.1,0.6,0.5,0.9,0.6,1.5c-0.4-0.1-0.9-0.2-1.3-0.1
			c-0.1,0.1-0.2,0.2-0.3,0.4c0.1,0.2,0.1,0.5,0.4,0.5c0.4,0.2,0.4,0.2,0.5,0.4c0.2-0.1,0.2-0.2,0.7-0.2c0.3,0.1,0.6,0.3,0.9,0.4
			c0.1,0.4,0.3,0.9,0.4,1.3c-0.3,0-1.1,0-1.2,0c0,0.2-0.1,0.3-0.2,0.5c0.1,0.1,0.2,0.2,0.3,0.3c0.7,0.1,1.6,0.1,1.9,0.3
			c0.2,0.4,0.3,0.9,0.5,1.3l0,0c-0.6-0.3-1.6-0.3-2,0c0.2,0.5,0.9,0.8,1.2,1.1c0.5-0.2,0.9,0.2,1.5-0.1c0.2,0.6,0.4,1.1,0.7,1.7l0,0
			c-0.7-0.3-1.6-0.2-2.2,0c0,0.3,0.1,0.4,0.3,0.6c0.5,0,2.6,0.4,2.6,0.6c0.3,0.4,0.7,1.3,0.7,1.7c0,0-0.1,0-0.2,0
			c-1.8-1-6.2-1.2-8.5-1.3v0c0.3-0.3,0.4-0.5,0.4-1.1c-0.1,0-0.1,0-0.2,0c0,0-0.1-0.1-0.1-0.2c-0.1,0-0.2,0.1-0.3,0.1
			c-0.2,0.4-0.3,0.7-0.1,1c0.2,0,0.2,0,0.3,0.1c-2.9,0.4-5.6,0-8,0.5c-0.2-0.1-0.3-0.3-0.5-0.5c-0.6,0.1-0.5,0.4-0.8,0.6
			c-0.9,0.1-1.9,0.3-2.8,0.4c-0.1-0.3-0.2-0.5-0.4-0.7c-0.1,0-0.3,0-0.5,0c-0.1,0.3-0.1,0.4-0.2,0.9c-0.5,0-1,0.1-1.6,0.2
			c0-0.2-0.2-0.5-0.5-0.4c-0.2,0.1-0.3,0.1-0.5,0.2c0,0.3,0,0.4-0.1,0.6c-0.3,0-0.5,0.1-0.8,0.2c0.1-0.3,0.2-0.4,0-0.6
			c-0.1-0.1-0.3-0.3-0.5-0.4c0,0,0,0,0.1-0.1c0.2,0,0.8-0.4,0.9-0.5c0.1-0.2,0.2-0.4,0.3-0.6c-0.4-0.3,0.2-0.5,0-1
			c0,0,0-0.1-0.1-0.1c-0.1-0.1-0.2-0.1-0.3-0.2c-0.2,0.1-0.3,0.1-0.5,0.2c0,0.1,0,0.2,0,0.3c0.1,0.1,0.2,0.2,0.3,0.4
			c-0.1,0.1-0.3,0.3-0.4,0.5c-0.5,0-1-0.1-1.3,0.1c0.1-0.5,0.2-0.8,0-1.1c-0.1,0-0.2,0-0.3,0c0.2-0.4,0.5-0.6,0.9-1
			c0-0.2,0-0.4-0.1-0.7h0c-0.6,0.1-1.3,0.5-1.5,1.2c0,0.1,0,0.2,0,0.4c0.1,0,0.3,0,0.5,0c-0.4,0.2-0.7,0.4-0.8,0.9
			c0,0.1,0,0.3,0.1,0.4c-0.1,0-0.2,0-0.3,0c0-0.4,0-0.4-0.1-0.7c0.3-0.3,0.4-0.5,0.5-1.1c-0.4,0-0.6,0.1-0.9,0
			c0.1-0.3,0-0.6-0.2-0.8c-0.3-0.2-0.6,0-0.7,0.4c-0.3-0.1-0.4-0.2-0.6,0c0,0,0,0-0.1,0c0,0.2,0,0.5,0,0.8c0.1,0,0.2,0.1,0.3,0.1
			c0.4,0,0.5-0.1,0.7-0.3c-0.3,0.9,0.1,0.9,0.2,1.7c-0.3-0.3-0.6-0.5-0.9-0.8c-0.1,0.6-0.9,1-1.1,1.6c0,0,0,0-0.1,0
			c0-0.5,0-1,0.3-1.3c0.5-0.1,0.6,0,0.9-0.3c0-0.1,0-0.1,0-0.2c-0.2-0.2-0.4-0.4-0.8-0.5c-0.1,0-0.2,0.1-0.3,0.2h0
			c0-0.2,0-0.3,0.1-0.5c0.6,0,1.1-1.5,0.9-1.9c-0.1-0.1-0.3-0.2-0.5-0.4c0,0.1,0,0.1-0.1,0.2c-0.3,0.3-0.3,0.7-0.4,1
			c-0.6,0-0.8,0.3-1.3,0.4c0.2-0.5,0-0.7-0.1-1c0.3-0.2,0.3-0.6,0.3-0.9c-0.1,0-0.2-0.1-0.3-0.1c-0.1,0-0.3,0-0.5,0
			c0,0.1-0.1,0.2-0.1,0.3c0.1,0.2,0.2,0.5,0.1,0.7c0,0.1-0.1,0.2-0.1,0.3c-0.3,0-0.7,0.1-1,0.1c0-0.5-0.6-0.9-1.1-1
			c-0.1,0.1-0.2,0.3-0.4,0.4c0,0.1,0,0.3,0,0.5c0.4,0.1,0.5,0.2,0.5,0.6c-0.2,0.1-0.3,0.3-0.4,0.7c0,0.1,0.1,0.2,0.2,0.3
			c0.3,0,0.7,0,1,0.1c0,0.1,0,0.3,0,0.4c-0.5-0.3-0.6,0-1,0.2c0,0-0.5-0.1-0.7-0.1c0-0.1-0.1-0.2-0.1-0.4c0.1-0.3,0.3-0.4,0.3-0.7
			c0-0.3-0.1-0.4-0.4-0.5c0,0-0.1,0-0.1,0.1c-0.3,0-0.4,0.2-0.6,0.4h0c0-0.7-0.4-0.5-0.8-0.7c0-0.1,0-0.2,0-0.4c0.7,0,0.7-0.2,1-0.5
			c0.2,0.1,0.3,0.2,0.6,0.2c0,0,0.1-0.1,0.1-0.1c0.1-0.1,0.1-0.3,0.2-0.4c0,0,0-0.1,0-0.1c-0.2-0.2-0.5-0.3-0.8-0.2
			c0.2-0.2,0.5-0.4,0.4-0.9c0,0,0,0,0-0.1c-0.3,0-0.6,0-0.9,0c0-0.2,0-0.4-0.1-0.6c-0.2,0-0.5,0-0.7,0c0-0.4-0.2-0.5-0.8-0.5
			c-0.2-0.9-0.4-1.7-0.7-2.5c0.5,0.1,0.8,0.3,1.2,0.1c0,0,0,0,0.1-0.1c0-0.1,0-0.3,0-0.5c-0.2-0.2-0.4-0.3-0.6-0.5
			c-0.4,0-0.8,0.3-1.1,0.1c0-1.1-1-2-1.1-3.1c0-0.3,0.1-0.6,0.1-1c-0.1-0.3-0.3-0.2-0.5-0.3s-0.9-2.2-0.9-2.5
			c-0.1-0.5,0.1-0.9,0-1.3c-0.2-0.1-0.4-0.1-0.7-0.2c-0.4-1-0.8-2.1-1.2-3.2c0-0.2,0.1-0.3,0.2-0.5c0-0.3,0.1-0.3-0.1-0.5
			c-0.2-0.1-0.4-0.2-0.6-0.3c-0.1-1.2-1.8-4.1-2.4-5.3c-1.7-3.7-3.2-7.2-4.7-11c-0.4-0.1-0.7-0.2-0.9,0c-0.5,1,0.7,2.4,1,3
			c1.3,2.8,2.5,5.5,3.8,8.3c2.6,6.2,5.3,12.5,7.5,19c0.5,1.4,0.5,2.6,0.9,4c0.8,3,1.8,6.2,2.5,9.2c0.2,1,0.4,2.1,0.7,3.1
			c0,0.3,0,0.7,0,1c0.3,0.9,1.5,0.6,2,1c0.6,6.2,1.2,11.8,1.6,18.3c-0.1,1-0.3,2-0.4,3c0,1.6,0,3.1-0.2,4.7c0,0.5-0.4,1.2-0.4,1.5
			c0,0.7-0.1,4.5-0.3,4.9c-0.7,1.5-1,5.3-1.1,7c-0.1,1.6-1.9,3.5-2.6,4.8c-0.3,0.6-0.1,1.3-0.4,1.8c-1.9,4.7-1.6,11.3,0.7,15
			c0.9,1.4,4,4.2,6.3,3.9c0.7-0.1,2.3-0.6,3-0.4c0.6,2.3,3.7,6,6.4,6.2c1.3,0.1,3,0.4,3.7-0.9c-0.1,0-0.1,0-0.2,0
			c-3.4,1.6-7.3-1.7-8.5-4.3c-0.9-1.9-1-3.3-1.4-5.6c-1.3-6.9-0.1-11.3,4-16.1c1.9-2.2,6.5-4.7,9.3-1.9c0,0.4,0,0.7,0,1
			c-0.9,0.9-1.4,1.9-1.9,3.2c-0.4,0.6-0.8,1.2-1.1,1.8c-0.1,0.6-0.2,1.1-0.4,1.7c-0.4,0.9-0.7,1.7-1.1,2.6c-0.7,2.7-0.2,4.8-0.1,7.1
			c0.1,1.7,0.1,3.5,0.5,5.1c0.2,0.7,1.1,5.6,1.2,5.7c0.2,0,0,0,0.2,0c0.8,3.9,3.8,7,8.7,6.5c0.9-0.1,2,0,3-0.5c3.9-1.9,6.2-5,7.6-10
			c0.1,0,0.1,0,0.2,0.1c0,0.5,0.3,0.6,0.4,0.9c0.1,0.9,0.2,1.8,0.3,2.6c0.5,1.8,1.1,3.8,1.5,5.8c2,9.9,4.3,19,7.2,28.2
			c0.3,0.4,0.5,0.8,0.8,1.2c1.3,2.3,4.1,5.1,7.5,3.3c0.4-0.2,0.9-0.2,1.2-0.5c0.8-0.7,1.5-2.4,1.4-4.1c0-0.6,0-1.1,0-1.7
			c0.3-1.1,0-3.4-0.2-4.7c-0.2-1,0.1-1.6,0-2.7c-0.1-1.9-0.6-3.9-1-5.6c-0.3-1.2-0.1-2.6-0.6-3.9c-1.5-4.2-1.9-9.4-2.7-14
			c-1-6-2.9-12.1-3.6-18.5c-0.5-4.2-2.4-10.7,0.3-15c0.9-1.3,2.9-3,4.8-2.9c0.6,0.3,1.1,0.6,1.7,0.9c0,0,3.2,1,3.3,1
			c3,1.6,6.5,2.9,9.9,4.5c1.5,0.7,3.5,0.6,5.2,1.1c2.7,0.8,5.9,0.7,8.1,0.1c0.9-0.2,1.5-1,2.2-1.3
			C357.4,131.8,359,130.6,358.5,128.7z M268.1,78c-0.2-0.6-0.2-0.8,0-1.4h0c0.2,0.1,0.4,0.2,0.6,0.3v0
			C268.7,77.2,268.4,77.8,268.1,78z M269.3,80.2c-0.2,0.1-0.2,0.6-0.4,0.7c0-0.2,0-0.5-0.1-0.7c0.1,0,0.2-0.1,0.4-0.1
			C269.2,80.1,269.2,80.1,269.3,80.2C269.3,80.1,269.3,80.2,269.3,80.2z M270.3,82.2C270.2,82.2,270.2,82.3,270.3,82.2
			c-0.3,0.1-0.6,0.1-0.9,0.1c0.1-0.1,0.3-0.3,0.4-0.4C270,82,270.1,82.1,270.3,82.2z M272.2,78.8c0,0.2-0.1,0.3-0.1,0.5
			c-0.1,0-0.3,0-0.4,0C271.8,79.1,272,78.9,272.2,78.8z M273.7,130.8c0.1-0.2,0.2-0.4,0.3-0.6c0,0,0.3,0,0.5,0
			c1.2-0.6,3.3-2.1,5.5-1.2c1.4,0.6,2.5,1.4,3,2.6c0,0.3,0,0.6,0,0.9c0,0,0.4,0.2,0.3,0.4c-0.1,0.2-0.8,0.4-1,0.7
			c-1.4,1.6-2.8,3.2-3.7,5.2c-1.5,3.2-2,7.8-1.4,11.3c0.2,1,0.2,2.2,0.5,3.3c0.1,0.5,0.5,1,0.5,1.6c-0.2,0.1-0.1,0.1-0.2,0.3
			c-1,0-3.1,0-3.7,0.2c-0.7-0.3-1.4-0.7-2.1-1c-3-2.5-4.1-5.8-4.2-10.3c0-2,1.4-8.1,2.3-9.4C271.3,133.3,272.5,132,273.7,130.8z
			 M273,85.1c0,0,0.1,0,0.2-0.1h0c-0.1,0.2-0.1,0.2-0.2,0.3C273,85.2,273,85.2,273,85.1z M271.2,89.9
			C271.2,89.9,271.2,89.8,271.2,89.9c0.3-0.2,0.5-0.4,0.8-0.5c0,0.3,0.1,0.4,0,0.9c-0.1,0-0.2,0-0.3,0.1
			C271.5,90.1,271.3,90.2,271.2,89.9z M271.4,86.9c0,0,0.1-0.1,0.1-0.1C271.5,86.9,271.6,86.8,271.4,86.9z M272,83
			c0.1,0,0.1,0,0.2,0c0.1,0.3,0.1,0.6,0.3,0.9c0,0.1,0,0.1-0.1,0.2c-0.1,0-0.3,0-0.4,0C272,83.9,271.8,83.4,272,83z M270.6,87.4
			C270.6,87.4,270.7,87.4,270.6,87.4C270.7,87.4,270.7,87.4,270.6,87.4C270.6,87.4,270.6,87.4,270.6,87.4z M270.4,86.3
			c0,0,0,0.1,0.1,0.1c0,0-0.1,0.1-0.1,0.1C270.4,86.5,270.4,86.4,270.4,86.3C270.4,86.3,270.4,86.3,270.4,86.3z M272,81.9
			c0,0,0,0.1,0.1,0.2c-0.1,0-0.3,0-0.4,0c-0.1-0.1-0.3-0.3-0.4-0.4c0.2,0,0.4,0,0.7,0C271.9,81.7,272,81.8,272,81.9z M273.7,80.3
			c-0.2,0.1-0.4,0.2-0.6,0.3c-0.2-0.3-0.4-0.3-0.7-0.6c0-0.2,0.1-0.3,0.1-0.5c0.4,0,0.6-0.3,0.8-0.2C273.5,79.7,273.3,80,273.7,80.3
			z M273.8,81.4c-0.4,0.2-0.6,0.2-0.7,0.8c-0.4-0.1-0.3,0.1-0.8,0.2c0-0.6,0-0.5,0.3-0.8C273.3,81.4,273.1,81.2,273.8,81.4z
			 M274.3,80.4c0,0-0.1-0.1-0.2-0.2v0c0.1,0,0.1,0,0.2,0C274.3,80.3,274.3,80.4,274.3,80.4z M274.4,80.9c0,0-0.1,0.1-0.1,0.1
			c0-0.2,0.1-0.3,0.1-0.5h0C274.5,80.7,274.5,80.8,274.4,80.9z M274.5,82.1c-0.1,0.1-0.1,0.2-0.2,0.3c-0.1-0.3-0.2-0.7-0.3-1
			c0.1,0,0.2-0.1,0.3-0.2h0C274.1,81.6,274.2,81.8,274.5,82.1z M273.5,84.6C273.5,84.6,273.6,84.6,273.5,84.6c0,0.2,0,0.1-0.2,0.2
			C273.4,84.8,273.4,84.7,273.5,84.6z M274.6,84.1c0,0.1-0.1,0.1-0.1,0.2c0-0.1,0-0.3,0-0.5c-0.1-0.1-0.3-0.2-0.5-0.4
			c0,0,0-0.1,0-0.2C274.2,83.5,274.4,83.8,274.6,84.1z M274.1,85.6c0,0,0,0.1,0.1,0.1c-0.1,0.1-0.2,0.2-0.4,0.3
			C274,85.9,274,85.7,274.1,85.6z M275.5,83.1c-0.1,0.1,0,0-0.1,0.1c-0.1-0.1-0.3-0.2-0.4-0.4c0,0,0,0,0.1,0
			C275.3,82.8,275.3,82.9,275.5,83.1z M277.6,82.9c0,0.2-0.1,0.3-0.1,0.5c-0.2,0-0.4,0-0.7,0c0-0.1-0.1-0.2-0.1-0.3
			c0.1-0.1,0.1-0.2,0.2-0.3C277.1,82.8,277.4,82.8,277.6,82.9z M277.6,84.8C277.6,84.8,277.6,84.9,277.6,84.8
			c-0.2,0.1-0.2,0.1-0.3,0.1C277.4,84.8,277.3,84.9,277.6,84.8z M278.9,82.9c-0.3,0.7,0,1,0.6,1.3c-0.3,0.2-0.7,0.3-1.1,0.4
			c0.2-0.7,0-0.8,0-1.4C278.5,83.1,278.7,82.9,278.9,82.9C278.8,82.8,278.9,82.8,278.9,82.9z M279.8,82.2L279.8,82.2
			c-0.2,0-0.3,0-0.4,0c-0.1-0.2-0.1-0.4-0.2-0.6c0.2,0,0.4,0,0.6-0.1C279.8,81.9,279.8,82,279.8,82.2z M281,82.3
			c0,0-0.1,0.1-0.2,0.1c0-0.1-0.1-0.2-0.2-0.3c0-0.1,0-0.2,0.1-0.3c0,0,0,0.1,0,0.1C280.9,82.1,281,82.2,281,82.3z M281.5,83.5
			c-0.5,0.2-1,0.4-1.5,0.6c0.1-0.4,0.3-0.5,0.6-0.7c0.3,0.1,0.7,0,0.8,0.1C281.4,83.5,281.5,83.5,281.5,83.5z M305.8,84.6
			c-0.2-0.5-0.4-1-0.6-1.4c0.6,0.1,1.1,0.3,1.7,0.5c0,0,0,0,0.1,0C306.6,83.9,306.2,84.2,305.8,84.6z M358,129.5
			c-0.4,0.3-0.2,0.7-0.5,1.1c-0.7,0.8-2.3,1.5-3.3,2.1c-0.4,0-0.9,0-1.3,0.1c-0.7,0.1-1.3,0.3-2.1,0.4c-0.7,0.1-1.6-0.4-2.3-0.4
			c-2.8,0-6.4-1-8.7-2.1c-1.7-0.8-3.6-1.1-5.3-2.1c-2.2-1.3-6.1-3.2-9.2-3.4c-0.4,0-0.9-0.5-1.3-0.4c0,0.2,0,0.4,0,0.6
			c-0.2,0-0.4,0.1-0.7,0.1c-0.2-0.4-0.4-0.7-1-0.8c0,0-0.1,0.1-0.1,0.1c-0.1,0.1-0.1,0.1-0.2,0.3c0.2,0.3,0.2,0.6,0.3,1
			c-0.3,0.3-0.6,0.6-1,0.9c-0.4-0.1-0.9-0.2-1.3-0.4c-0.1,0-0.2,0.1-0.3,0.2c0,0.3,0,0.4,0.1,0.6c0.2,0.2,0.4,0.3,0.7,0.5
			c-0.2,0.3-0.4,0.7-0.6,1.1c-0.5,0-1,0.2-1.4,0.5c0,0,0,0.1,0,0.2c0.4,0.2,0.3,0.4,0.9,0.5c0,0.1,0,0.2,0,0.3
			c-0.2,0.5-0.2,0.8-0.3,1.4c-0.5,0.1-1.2,0.5-1.4,1.2c0.1,0.1,0.2,0.1,0.3,0.2c0.5,0,0.8-0.1,0.9-0.1c0.4,1.6-1,1.6-1.3,2.6
			c0,0.1,0.1,0.2,0.2,0.4c0.1,0,0.2,0,0.3,0c0.2-0.1,0.4-0.2,0.7-0.4c-0.1,1,0,1.6,0.1,2.3c-0.3,0.3-0.5,0.6-0.9,0.9
			c0,0.2,0,0.4,0,0.6c0.2,0,0.3,0.1,0.5,0.2c0.1-0.2,0.3-0.3,0.5-0.5c0.6,0.9,0.2,2.1-0.3,2.9c0.1,0.1,0.2,0.3,0.3,0.5
			c0.1,0,0.3,0,0.5,0c0.1,1.4,0.3,2-0.4,3.2c0.1,0.2,0.2,0.4,0.3,0.6c0.2-0.1,0.4-0.2,0.6-0.4c0.1,0,0.1,0,0.2,0.1
			c0.1,0.6,0.2,1.2,0.4,1.9c-0.3,0.7-0.6,1.4-1,2c0.1,0.6,0.9,0.1,1.1-0.1c0,0,0,0,0.1,0.1c0.1,0.6,0.2,1.3,0.3,1.9
			c-0.4,0.3-0.8,0.9-1.1,1.3c0,0.1,0,0.3,0.1,0.5c0.2,0,0.4,0,0.6,0.1c0.2-0.1,0.4-0.2,0.7-0.4c0,0,0,0,0,0.1
			c0.2,0.3,0.5,1.8,0.3,2.2c-0.5,0.5-0.8,0.7-1.2,1.6c0.1,0.2,0.2,0.3,0.5,0.3c0.2,0,1-0.9,1-0.6c1,1.1-0.1,2.8-0.9,3.5
			c0,0.2,0.1,0.4,0.1,0.6c0.1,0,0.1,0,0.2,0c0.5-0.2,0.8-0.4,1.1-0.9c0,0,0,0,0.1,0.1c0.1,0.8,0.2,1.5,0.4,2.2
			c-0.4,0-0.5,0.1-0.8,0.2c-0.2,0.4-0.3,0.7-0.5,1.1c0,0.1,0.1,0.2,0.2,0.3c0.5-0.1,0.8-0.4,1.2-0.5c0.5,2,0.3,2.2-0.8,3.5
			c0.1,1.1,1,0.1,1.5,0.3c0.1,0.8,0.2,1.6,0.4,2.3c-0.3,0.2-1,1.3-1,1.6c0,0,0.1,0.1,0.1,0.2c0.5,0.3,0.8-0.1,1-0.3c0,0,0,0,0.1,0.1
			c0,0.3,0.3,2.3,0.4,2.5c-0.3,0.5-0.7,0.8-0.9,1.4c0,0.1,0.1,0.2,0.2,0.3c0.6-0.2,0.6-0.3,1-0.7c0,0,0,0,0,0.1
			c0.2,0.4,0.7,1.8,0.4,2.4c-0.2,0.5-1.1,1.5-1,1.9c0.1,0.3,0.1,0.3,0.4,0.4c0.2-0.3,0.5-0.6,0.7-0.9c0.1,0,0.1,0,0.2,0.1
			c0.1,0.8,0.7,1.8,0.5,2.6c-0.7,0.5-1,1.8-1.6,2.4c0.1,0.4,0.1,0.5,0.7,0.5c0.4-0.4,0.8-1.1,1.2-1.5c0,0,0.1,0.1,0.1,0.1
			c0,1,0.3,1.7,0.2,2.9c-0.5,0.3-1.4,1.4-1.7,2c0.6,0.4,1.2-0.2,1.7-0.6l0,0c0,0.8,0.1,1.5,0.1,2.2c-0.3,0.7-1.2,1-1.5,1.8
			c0,0,0.1,0.1,0.1,0.1c0.9,0.3,0.8-0.4,1.5-0.7c0,0.8,0,1.6,0,2.3c-0.5,0.4-1,0.7-1.5,1.1c0,0.1,0,0.2,0,0.3c0,0,0,0,0.1,0
			c0.1,0.1,0.3,0.1,0.4,0.2c0.3-0.2,0.5-0.4,0.8-0.6h0c0,0.9,0.2,1.9-0.2,2.7c-0.6,1.2-3.5,2.4-5.1,1.3c-1.4-1-2.8-2.7-3.4-4.3
			c-0.8-2-1.1-3.9-1.8-6.2c-0.5-1.3-0.9-2.6-1.4-3.9c-0.6-1.8-0.8-3.5-1.2-5.3c-0.2-0.7-0.5-1.4-0.7-2c-0.9-4.1-1.5-8.1-2.5-12.1
			c-0.5-1.9-1.3-8.9-3.2-9.2c-0.1,0-0.2,0.1-0.3,0.2c-0.4,1.3-0.7,2.6-1.1,4c-0.4,0.4-1.5,3-1.8,3.5c-0.3,0.6-1.2,1-1.7,1.4
			c-1.9,2-8.3,3.7-10.5,1.2c-0.9-1-1.6-2-2.1-3.1c-1.9-4.2-2.5-10.8-2.7-16.1c0.2-0.8,0.4-1.5,0.6-2.3c0.1-0.4,0-1,0.2-1.6
			c0.3-0.7,0.7-1.5,1-2.3c0-0.3,0.1-0.6,0.1-0.9c0.2-0.4,0.5-0.7,0.8-1c0.6-1,0.9-2.4,1.6-3.2c2.1-2.4,5.8,0.7,6,3
			c0.2,2-1.5,2-1.9,3.3c0,0,0,0.1,0,0.2c0.4,0.7,1.2,0.6,1.7,1.4c1.1,2,1.1,4.3,1.4,6.8c0.2,0.1,0.4,0,0.5,0.2
			c0.3,0.8-0.6,2.9,0,3.4c0.2,0.1,0.4,0.1,0.7,0c0.2-0.7,0.7-2.2,0.5-3c-0.1-0.4-0.4-0.6-0.3-1c0.7-0.2,1.4-0.4,2.1-0.4
			c1,0,1.9,1.1,3.2,0.4c0-0.1,0-0.3,0-0.4c-0.2-0.3-0.4-0.5-0.6-0.8c-0.5,0.2-1.4,0-1.9-0.2c-1.1-0.3-2.1-0.1-2.9,0.1
			c-0.5-0.6-0.4-1.5-0.6-2.4c-0.4-1.7-1.3-3-2.1-4.4c0.3-0.6,0.7-1.1,1-1.7c0.9-1.8-0.5-3.6-1-4.8c-0.4,0-0.7-0.7-1.1-1
			c-0.8-0.4-2-1-3-0.9c-0.3,0.1-0.6,0.1-1,0.2c0,0-0.1-0.1-0.2-0.2c0-4.2-6.4-2.3-8.1-1.3c-0.1,0-0.1,0-0.2,0
			c-0.1-2.8-4.1-4.8-7-4.4c-1.1,0.1-1.6,0.5-2.5,0.9c0,0-0.1-0.1-0.2-0.2c-0.1,0.6-1.9,1.7-2.3,2c0-1.7,0.4-3.1,0.6-4.8
			c0.6-4.2,1.5-9,1.4-13.3c0.1-0.5,0.2-1.1,0.3-1.6c0-1.6,0-3.2,0-4.9c-0.3-2.4-0.7-4.8-1-7.2c-0.1-1.2,0.1-2.3,0-3.6
			c-0.1-1.1-0.9-2.6-0.2-3.8c0.6-1-0.9-1.8-0.4-2.7c0.6-0.3,1.2-0.6,1.9-1c1.7-0.8,3.1-1.6,5-2.3c7.1-2.5,15.2-3.7,24.1-2.4
			c-0.1,1.1,1.3,3.2,1.8,4c0.4,0.6,0.5,1.4,0.8,2c1.6,3,3.8,6,6,8.6c1.6,1.9,3.3,4,5,5.7c0.9,0.9,1.9,1.3,2.9,2
			c0.8,0.6,1.6,1.5,2.3,2.1c1.1,1,2.3,1.4,3.5,2.2c1.6,1,3,2.2,4.6,3.3c2.2,1.5,4,3.7,6.1,5.3c1.9,1.4,3.7,2.7,5.8,3.9
			c1.6,1,3.1,1.2,4.8,2c1.3,0.7,2.6,1.3,4,1.9c0.5,0.2,1,0,1.3-0.1c0.3-0.1,3.7,0.9,4,1.1c0.9,0.7,1,1.5,1,2.5
			C357.8,129.4,357.8,129.5,358,129.5z M313.9,123.1c0.1,0,0.2,0,0.3,0c0-0.2,0-0.5-0.2-0.7c-0.7-0.4-1.2-0.3-1.9-0.5
			c-1.3-0.4-2.4-0.9-3.8-1.3c0,0,0-0.1,0-0.1c0-0.1,0.1-0.1,0.1-0.2c-1.2,0.5-6.6-3-7.7-3.7c-2.6-1.6-5.3-2.9-7.6-4.8
			c-1.9-1.6-3.4-3.6-5-5.4c-1.2-1.3-2.1-3-3.1-4.4c-0.8-1-1-2.5-1.8-3.4c-0.1,0-0.3,0-0.5,0c-0.7,1,0.4,1.6,0.8,2.3
			c1.2,2,2.4,4,3.9,5.8c2.4,3,4.7,5.5,7.9,7.8c1.6,1.1,3.3,1.9,5,2.9c0.3,0.3,0.7,0.6,1,1c1,0.6,2,0.9,2.9,1.6
			c0.7,0.2,1.4,0.5,2,0.8c1.6,0.9,3.5,1.3,5.4,2C312.4,122.8,313.1,122.9,313.9,123.1z M272.9,81.7L272.9,81.7c-0.1,0-0.2,0-0.2,0.1
			c0,0.1,0,0.1-0.1,0.2C272.8,81.9,272.8,81.9,272.9,81.7z M284.7,81.3c0-0.1-0.1-0.2-0.2-0.3c0,0-0.1-0.1-0.1-0.1
			c-0.1,0-0.2,0-0.3,0c-0.1,0.1-0.2,0.2-0.3,0.3c0,0.4,0.1,0.5,0.5,0.7C284.5,81.8,284.7,81.7,284.7,81.3z M286.7,81.6
			c0.1,0,0.1,0,0.2,0.1c0.4-0.1,0.5-0.4,0.7-0.8c0,0,0-0.1-0.1-0.1C286.6,80.4,286.3,80.9,286.7,81.6z M283.5,80.5
			c0.4,0,0.5-0.1,0.7-0.3c0-0.4-0.1-0.5-0.2-0.7c0,0-0.1,0-0.2,0c-0.1,0.1-0.2,0.1-0.4,0.2c0,0.1,0,0.3,0,0.5
			C283.4,80.3,283.5,80.4,283.5,80.5z M285.2,80.1c0.1-0.1,0.2-0.3,0.3-0.4c0-0.5-0.3-0.7-0.6-0.7c-0.1,0.2-0.1,0.3-0.5,0.3
			c0,0,0,0.1,0,0.2c0.1,0.2,0.2,0.4,0.4,0.7C285,80.1,285.1,80.1,285.2,80.1z M272.8,77.9c0-0.1,0-0.1,0.1-0.2
			c0-0.2-0.1-0.4-0.1-0.6c-0.6-0.2-0.9,0.2-0.8,0.8c0.1,0.1,0.2,0.1,0.3,0.2C272.5,78,272.7,77.9,272.8,77.9z M278.7,77.8
			c-0.3,0-0.3,0-0.6,0.1c-0.1,0.3-0.2,0.5-0.3,0.8l0,0c0.3-0.1,0.2-0.2,0.4,0.1c0,0,0,0,0.1,0.1c0.1-0.1,0.3-0.1,0.4-0.2
			c0-0.2,0-0.3,0.1-0.5C278.9,78.1,278.8,77.9,278.7,77.8z M281.7,77.9c0,0-0.1,0-0.1,0c-0.1,0.1-0.3,0.3-0.4,0.5
			c0,0.2,0.1,0.4,0.1,0.6c0.1,0,0.3,0,0.4,0c0.1-0.1,0.3-0.3,0.4-0.5C282,78.2,281.9,78.1,281.7,77.9z M292,79.7c0,0.1,0,0.2,0,0.4
			c0.1,0.2,0.1,0.3,0.2,0.5c0.1,0,0.3,0,0.5-0.1c0.1-0.1,0.1-0.3,0.2-0.4c0,0,0-0.1-0.1-0.2C292.5,79.6,292.4,79.5,292,79.7z
			 M271.2,76.3c0,0-0.1-0.1-0.1-0.2c-0.3,0.1-0.7,0.3-0.9,0.7c0,0.1,0,0.3,0,0.4c0.1,0.1,0.2,0.1,0.3,0.2c0.1,0,0.2,0,0.3,0
			C271.1,77,271.2,76.8,271.2,76.3z M275.5,76.5c-0.2-0.1-0.4-0.1-0.7-0.2c-0.1,0.1-0.1,0.2-0.2,0.4c0,0.1,0,0.3,0,0.4
			c0,0,0.1,0.1,0.1,0.1C275.4,77.3,275.7,77,275.5,76.5z M277.2,76.4c-0.2,0-0.4,0.1-0.6,0.2c0,0.5,0.1,0.5,0.2,0.9
			c0.4,0,0.4,0,0.9,0C277.7,77,277.6,76.5,277.2,76.4z M270.6,74.5c-0.4-0.1-1-0.3-1.3-0.2c-0.1,0.1-0.2,0.3-0.4,0.4
			c0.2,0.4,0.2,0.9,0.5,1.3c0.2,0,0.3,0,0.5,0C270,76,270.6,74.9,270.6,74.5z M272,76.4c0.3,0,0.6,0,0.9,0c0-0.1,0-0.1,0-0.2
			c-0.1-0.3-0.3-0.5-0.5-0.8c-0.1,0-0.1,0-0.2,0c-0.1,0.1-0.3,0.2-0.5,0.3C271.9,76,271.9,76.1,272,76.4z M281.5,77.4
			c-0.1-0.4,0-0.7-0.6-0.8c-0.1,0.1-0.2,0.2-0.3,0.3c0,0.1,0,0.3,0,0.5c0,0,0.1,0.1,0.1,0.2c0.1,0,0.3,0,0.5,0
			C281.4,77.5,281.4,77.5,281.5,77.4z M268.3,74.8c0.1-0.3,0.1-0.6,0.3-0.8h0c-0.3,0-0.5-0.1-0.8,0s-0.3,0.2-0.3,0.5
			c0.1,0.2,0.2,0.4,0.3,0.7C268.1,75,268.2,75,268.3,74.8z M278.1,76c0.1-0.1,0.1-0.2,0.2-0.3c-0.2-0.7-1.4-0.8-1,0.2
			c0.1,0.3,0.2,0.2,0.4,0.4C278,76.3,278,76.3,278.1,76z M288.7,76.9C288.7,76.9,288.7,76.9,288.7,76.9c0,0.3-0.1,0.5-0.2,0.7
			c0.1,0.1,0.2,0.1,0.3,0.2c0.4,0,0.5-0.1,0.7-0.3c0-0.1,0-0.3-0.1-0.5C289.2,77,289,76.9,288.7,76.9z M280.3,76.5
			c0.2-0.4,0.2-0.7,0-1c-0.2,0-0.4,0-0.6,0.2c0,0.1,0,0.2-0.1,0.4c0.1,0.1,0.2,0.2,0.3,0.4C280,76.6,280.1,76.6,280.3,76.5
			C280.3,76.6,280.3,76.5,280.3,76.5z M285.4,77.3c0.3,0,0.5,0,0.6-0.2c0.2-0.3,0-0.4-0.1-0.7h0c-0.1,0-0.1,0-0.2,0
			c-0.2,0.2-0.4,0.3-0.5,0.8C285.3,77.2,285.3,77.2,285.4,77.3z M273.8,74.7c-0.1,0.1-0.1,0.1-0.2,0.3c0.1,0.1,0.1,0.3,0.2,0.4
			c0.1,0,0.3,0,0.4,0c0.1,0,0.2-0.1,0.3-0.2c0-0.2,0-0.5,0.1-0.8C274.2,74.5,274,74.4,273.8,74.7z M284.6,75
			c-0.4,0.2-0.4,0.4-0.2,0.8c0.1,0,0.1,0,0.2,0.1c0.2-0.1,0.3-0.2,0.5-0.3c0-0.1,0-0.3-0.1-0.4C284.9,75.1,284.9,75.1,284.6,75z
			 M294.8,76.3c-0.3,0.2-0.6,0-1,0.2c0,0.1,0,0.2,0,0.3c0,0,0.1,0.1,0.1,0.2c0.1,0,0.2,0.1,0.3,0.1c0.1,0,0.2,0,0.4,0
			c0,0,0.1-0.1,0.2-0.2C294.8,76.8,294.8,76.6,294.8,76.3C294.8,76.3,294.8,76.3,294.8,76.3z M276.5,73.2c0.1-0.1,0.1-0.2,0.2-0.4
			c0-0.1-0.1-0.2-0.2-0.4c-0.5,0-0.5,0-0.8,0.1v0c0,0.2,0,0.4,0,0.6c0,0,0,0,0.1,0.1c0.1,0,0.3,0,0.5,0
			C276.4,73.3,276.4,73.3,276.5,73.2z M270.1,70.9c-0.3,0.1-0.7,0.4-0.5,0.7c0.1,0.2,0.3,0.3,0.4,0.5c0.6-0.1,0.6-0.7,0.3-1.1
			C270.3,71,270.2,70.9,270.1,70.9z M283.2,73.2c0.2-0.2,0.1-0.5,0.1-0.8c-0.1,0-0.2,0-0.4-0.1c-0.1,0-0.2,0-0.3,0.1
			c0,0.2-0.1,0.4-0.1,0.6c0,0.1,0.1,0.2,0.2,0.3C282.9,73.3,283,73.3,283.2,73.2z M279.7,71.7c-0.1,0-0.2,0.1-0.3,0.2
			c0,0.1,0,0.3,0,0.4c0,0.1,0.1,0.2,0.2,0.3c0.1,0,0.2,0,0.3,0c0.1-0.1,0.2-0.2,0.4-0.3c0.1-0.2,0.1-0.4,0.2-0.6
			c0-0.1-0.1-0.2-0.2-0.3h0c0,0.1,0,0.2-0.1,0.3C279.8,71.7,279.8,71.6,279.7,71.7z M268.6,70.1c0.1-0.3,0.2-0.4,0-0.7
			c-0.3-0.1-0.6-0.1-0.9,0c0,0.4,0,0.7,0.1,1C268.1,70.4,268.4,70.3,268.6,70.1z M287.9,72c0.1-0.1,0.2-0.2,0.4-0.3
			c-0.1-0.3-0.1-0.5-0.4-0.4c-0.2-0.1-0.2-0.1-0.4,0.1c-0.1,0.1-0.2,0.2-0.1,0.4c0,0,0.1,0.1,0.1,0.2C287.6,72,287.7,72,287.9,72z
			 M275.4,69.4c0-0.1,0.1-0.2,0.1-0.3c0-0.2,0-0.2-0.2-0.4c-0.1-0.1-0.2-0.1-0.5-0.2c0,0.1,0,0.1-0.1,0.2c-0.1,0.3-0.2,0.6-0.3,0.9
			C274.9,69.6,275.1,69.5,275.4,69.4z M281,68.8c-0.5-0.1-0.4-0.2-0.7,0c0,0.2-0.1,0.3-0.1,0.5c0.1,0.1,0.2,0.3,0.4,0.4
			C281,69.7,281.2,69.2,281,68.8z M266.9,65c0.1-0.2,0.2-0.4,0.3-0.6c-0.1-0.2-0.1-0.3-0.2-0.5c-0.4-0.1-0.5,0-0.8,0.2
			c0,0.2,0,0.4,0,0.6c0,0.1,0.1,0.2,0.2,0.3C266.5,65,266.7,65,266.9,65z M279.2,65.9c0-0.1,0-0.2,0.1-0.4c-0.2-0.2-0.4-0.3-0.7-0.3
			c0,0-0.1,0-0.1,0c0,0.4,0,0.6,0.2,0.9C279,66.1,279,66.1,279.2,65.9z M271.9,63.8c0.1-0.1,0.2-0.3,0.3-0.4c0-0.1,0-0.3,0-0.5
			c-0.2,0-0.5,0-0.8-0.1c-0.1,0.2-0.2,0.4-0.3,0.6c0.1,0.1,0.3,0.3,0.5,0.4C271.6,63.8,271.7,63.8,271.9,63.8z M267.2,58.5
			c0.4,0,0.5,0,0.8-0.2v0c0-0.3,0-0.4-0.1-0.6c-0.2,0-0.4-0.2-0.7-0.1c0,0,0,0-0.1,0c0,0.1,0,0.2-0.1,0.3
			C267,58.2,267.1,58.3,267.2,58.5z M286.7,60.3c0,0.2-0.1,0.3-0.1,0.5c0,0.1,0.1,0.2,0.1,0.4c0.1,0,0.1,0,0.2,0.1
			c0.1,0,0.3,0,0.4-0.1c0.2-0.4,0.1-0.6,0-0.9C287,60.2,286.9,60.2,286.7,60.3z M274.7,57.4c0.1-0.3,0.1-0.4,0.1-0.7
			c-0.2,0-0.3,0-0.5-0.1c-0.1,0-0.2,0.1-0.4,0.2c0,0.1,0,0.2,0,0.3c0.1,0.2,0.1,0.3,0.2,0.5C274.5,57.6,274.5,57.5,274.7,57.4z
			 M282.2,57.2c0-0.2,0.1-0.3,0.1-0.5c-0.1-0.2-0.1-0.3-0.4-0.4c-0.1,0-0.2,0.1-0.3,0.2c0,0.1,0,0.3,0,0.5c0,0,0.1,0.1,0.1,0.1
			C282,57.2,282.1,57.2,282.2,57.2z M264.6,52.9c0.2-0.1,0.3-0.2,0.5-0.3c0-0.1,0-0.3,0-0.4c-0.1-0.2-0.5-0.3-0.8-0.2
			c-0.1,0.1-0.2,0.2-0.3,0.4c0.1,0.2,0.2,0.4,0.3,0.7C264.3,52.9,264.5,52.9,264.6,52.9z"/>
	</g>
</g>
<path class="st1" d="M304.4,230.7c6.5-1.1,22.4-11,27.3-15.1c3.7-3.1,11.5-9.1,13.2-13.9"/>
<path class="st1" d="M302.9,204.2c3.2,3.9,8.7,6.2,13,8.5c9.6,5.3,24.1,14.9,35.5,14.5"/>
</svg>
