<?xml version="1.0" encoding="utf-8"?>
<!-- Generator: Adobe Illustrator 21.0.0, SVG Export Plug-In . SVG Version: 6.00 Build 0)  -->
<svg version="1.1" id="Calque_1" xmlns="http://www.w3.org/2000/svg" xmlns:xlink="http://www.w3.org/1999/xlink" x="0px" y="0px"
	 viewBox="0 0 841.9 595.3" style="enable-background:new 0 0 841.9 595.3;" xml:space="preserve">
<style type="text/css">
	.st0{fill:#DADADA;}
	.st1{fill:#FFFFFF;}
	.st2{fill:#1D1D1B;}
</style>
<ellipse class="st0" cx="415.5" cy="407.9" rx="80.5" ry="19.9"/>
<path class="st1" d="M364.3,389.4c0,0-11.3,7.3-7.6,13.2c3.6,5.9,23.3,7.8,31.3-3.1s4.5-17.2,4.5-17.2"/>
<path class="st1" d="M414.4,386.6l-10.5,9.5c0,0-5.7,3.8-4.8,4.8c0.9,1,5.2,0.9,6.5,0.5c-1.6,1.1-1.4,5.6,12.1,4.3
	c-1.3,2,2.8,6.1,17.5-3.5c14.5-5.1,28.6-11.7,33.2-12.5"/>
<g>
	<g>
		<path class="st2" d="M515.2,270.5c0.1-0.3,0.2-0.5,0.3-0.8c0-0.1,0-0.2,0-0.3c-0.6,0.2-0.7,0.4-1.2,0.7c-0.7-0.2-1.3-0.4-2-0.6
			c0.2-0.8,0.3-1.2,0.2-2.1c-0.5,0.2-0.8,1.1-0.9,1.7c-0.7-0.1-1.3-0.2-2-0.3c0.1-0.9,0.1-1.7,0.2-2.6l-0.1-0.1
			c-0.1,0-0.3,0.1-0.4,0.1c-0.5,0.5-0.7,1.5-0.8,2.3c-0.3,0.1-0.7,0.1-1,0.2c-0.1,0-0.1-0.1-0.2-0.1c-0.3-1.2-0.3-2.5,0-3.6
			c-0.2-0.3-0.1-0.3-0.4-0.5c-0.1-0.1-0.3-0.1-0.4-0.2c-0.1,1.4-0.1,2.9-0.2,4.3c-0.1,0.1-0.2,0.1-0.3,0.2c-0.2,0-0.4,0-0.6,0
			c-0.1-1.4,0.4-3.4-0.2-5c0-0.1,0-0.1,0-0.2c-0.1,0-0.2,0-0.3,0c-0.5,1.4-0.4,3.3-0.4,5.1c-0.1,0-0.1,0.1-0.2,0.1c-0.7-1-1.3-2-2-3
			c-2.4-2.7-4.6-5.7-7.1-8.4c-1.2-1.1-2.4-2.1-3.6-3.2c-2.6-2.1-4.7-5.1-7.4-7.3c-6.2-5-15.2-10.4-23.7-12.8
			c-4.7-1.3-9.6-1.7-14.6-2.7c-0.6,0.1-1.2,0.1-1.8,0.2c-2-0.1-3.9-0.2-5.9-0.3c-1.1,0.1-2.1,0.2-3.2,0.3c-4.2-0.5-14.3,1.6-18,3
			c-4.1,1.5-8,3.2-12,5c-2.1,1-4,3-6.1,4c-0.8,0.2-1.5,0.5-2.3,0.7c-2.2,1.3-4.4,2.5-6.6,3.8c0.3-0.6,0.5-1.2,0.8-1.8
			c0-0.1,0-0.3,0-0.4c-1.2,0.4-1.6,2.8-3.1,3.6c-0.1-1.2,1.1-2.9,1.7-3.9c0-0.1,0-0.2,0-0.3c-0.2,0-0.5,0-0.7,0
			c-0.8,1.6-1.5,3.3-2.3,4.9c-0.6,0.7-1.4,0.3-1.7,1.4c-0.1,0.1-0.2,0.1-0.3,0.2h-0.1c-0.1-1.9,1.6-3.8,2.1-5.6c1.9-7,6-13.1,8-19.9
			c1-3.2,2.5-11.7,1.7-16.3c0-1.2,0.1-2.3,0.1-3.5c-0.6-3.3-1.7-7.2-1-10.9c0.9-4.6,2.1-9,3.5-12.9c0.6-1.5,1.2-6.3,0.9-7.9
			c-0.3-1.4-1.2-2.5-1.8-3.5c-0.5-0.8-1.3-2.5-2.6-2.1c-0.8-0.4-2.3-0.5-3.1,0c0-0.1,0.1-0.2,0.1-0.3c-6.3,2.3-13.1,9-16.9,14.4
			c-0.9,1.2-2.5,2.5-3.5,4c-1.7,2.4-3,4.3-4.8,6.9c0.4,0.5-1.1,2.5-1.4,2.9c-0.1,0.1-0.2,0.3-0.3,0.4c-0.3,1.3-1.7,3.4-2.8,4.9
			c-0.8,2.1-1.5,4.3-2.3,6.4c-0.1,0.1-0.2,0.1-0.3,0.2c0,0.1,0.1,0.1,0.1,0.2c-0.1,0-0.2,0.1-0.3,0.1l-0.1,0.1
			c0.7,0.6-1.2,3.3-0.9,3.7c-0.1,0.7-0.9,5.7-1.6,6.7c0.3,0.2-0.5,5.9-0.8,7.6c-0.1,0.1-0.2,0.1-0.3,0.2c-0.4-1-0.4-1.6-0.4-2.7
			c-0.1,0-0.2,0-0.3,0c0,0.8-0.1,1.8-0.6,2.2c-0.5,0-1,0.1-1.5,0.1c-0.3-0.7-0.2-1.1-0.1-2.1c-0.2,0-0.4-0.1-0.6-0.1
			c0,0.7-0.1,1.5-0.1,2.2c-0.3,0-0.6,0.1-0.9,0.1c-0.1-1.2-0.3-2.4-0.4-3.6c-0.6,0.3-0.4,2.6-0.4,3.5c-0.1,0.1-0.1,0.1-0.2,0.2
			c-0.1,0-0.2,0-0.3,0c-0.3-0.5,0.1-1.4-0.1-2c-0.2-0.2-0.4-0.4-0.6-0.6c-0.4-1.2-0.1-2.9-0.6-4.2c0.1-0.3,0.4-2,0.3-2.4
			c-0.4-1.2-0.6-2.9-1.3-4.2c0.4-0.5-0.4-5.6-0.8-6.7c-2.3-7-3.5-15.1-6.7-21.2c-1.1-1.5-2.1-2.9-3.2-4.4c-1-1.9-2.1-3.6-3.2-5.2
			c-2.2-3.2-11.9-11.5-16.9-6.7c-0.3,0.2-0.2,1-0.2,1c-1.7,1.6,0.2,3.9-0.3,6.2c-0.4,1.9,2.2,9.8,3,12c0.4,1-1.1,6.9-1.5,8.1
			c-0.6,0.4-0.4,5.3-0.9,6.4c-0.5,1.1-0.1,2.6-0.3,4.1c-0.8,7.4,3.9,13.1,7.9,18.9c0.9,1.3,1.3,2.7,2.2,4c2,2.9,5.8,7.3,4.4,11
			c-0.5-0.2-0.7-0.7-0.8-1.3c-0.1-0.1-0.3-0.2-0.4-0.3c-0.1,0-0.3,0-0.4,0c0.2,1,0.5,2.1,0.7,3.1c-0.5,1.2-1,2.5-1.5,3.7
			c-0.2,0.9,0.1,2.2-0.5,3c-0.3,0.1-0.6,0.3-0.9,0.4c-1.6,1.3-2.9,3.4-3.5,5.3c-0.9,2.7,0.1,4.5,0.8,6.5c0.3,0.9-0.7,3.7-1,4.6
			c-2,5-8,8.5-6.7,15.3c0.3,1.7,0,3.1,0.8,4.9c-0.6,0.4-1.8,0.7-2.7,0.7c0,0.1-0.1,0.3-0.1,0.4c1.2-0.1,1.9-0.2,3-0.1
			c0.3,0.5,2.5,4.5,2.5,4.8c-3.3,0.4-6.2,3.4-9.1,3.7c-0.1,0.2-0.2,0.3-0.3,0.5c3.3-0.6,5.7-2.9,9.2-3.4c-0.1,1.2-0.3,2.4-0.4,3.6
			c-4.8,0.7-8.8,2.7-12.8,4.5c-1.1,0.5-3.4,1.1-3.8,2.2c5.1-2.5,10.2-4.4,16.4-6l0.1,0.1l0.1,0.1c0.1,0.8,0.3,1.6,0.4,2.4
			c0.5,1.2,1.4,2.1,2.1,3.1c-2.5,1.7-7.4,7.1-8.1,9.9c0,0.1,0.1,0.2,0.1,0.3c1.1-0.4,1.4-2.3,2.1-3.2c1.7-2.1,4.2-4.9,6.6-6.4
			c3.4,0.6,3.2,2.9,4.3,5.1c0.5,0.9,1.5,1.5,1.9,2.6c-0.9,1.6-2.2,2.9-3.1,4.5c-0.5,1.8-1.1,3.6-1.6,5.4
			c-4.1,15.4,5.9,25.5,15.7,32.1c2.3,1.2,4.5,2.3,6.8,3.5c0.9,0.3,1.9,0.6,2.8,0.9c0.6,0.3,2.3,4.2,2.8,5.1c0.1,0.7,0.2,1.4,0.3,2.1
			c1.8,7-3.8,11.6-6.8,16.2c-1.2,1.7-3.1,4.3-2.3,7.4c1.2,4.6,8.7,6.8,13.9,5.2c-1.2,2-3.3,4.1-3.3,6.8c0,2.8,4.3,4.6,6.4,5.7
			c6.9,3.7,17.6,1.4,24.1-1.9c1.6-0.8,2.3-2.1,3.4-3.5c2.3-2.9,3.2-5.9,4.5-9.9c0-0.9,0.1-1.9,0.1-2.8c0.3-0.8,0.5-1.5,0.8-2.3
			c-0.1-1.5,0.3-3.2,0.6-4.4c0.6-2.3,0.5-5.9,1.8-8.2c0.9-0.8,4.5,0.7,5.7,0.6c4.9-0.3,8.8,0.3,13.9-0.2c5.9-0.5,12.3-1.4,18.4-3.2
			c2.8-0.8,5.1-1.3,7.4-2.2c0.5-0.2,1.4,0,1.7-0.2c1.1-0.8,2.5-1.6,3.9-2.1c0.6,0.1,0.5,0.1,0.6,0.6c0.1,0,0.1,0.1,0.2,0.1
			c0.7-0.7,0.3-1.5,1.4-1.8c0,1.4,0,2.7,0,4.1c0,0.2,0,0.4,0,0.6c0.1,0.1,0.3,0.2,0.4,0.3c0.1,0,0.3,0,0.4,0c0-1.3,0.1-2.6,0.1-3.9
			c0.1,0,0.1-0.1,0.2-0.1c1,1.1,1.5,3,1.8,4.7c0.9,0,1-0.3,0.9-1.3c1.4,0.8,3.1,2.3,4.3,3.4c0.3,0.5,0.7,0.9,1,1.4
			c0.6,0.4,1.4,0.3,1.9,0.8c-2.3,0.6-4.4,1.5-6.6,2.5c-2.7,1.2-5.6,0.9-8.5,1.7c-2.6,0.7-5.2,1.3-7.8,2c-6.3,1.3-13.1,0.6-19,2.5
			c-3.2,1-5.9,3.8-8.2,5.8c-0.5,0.4-1.2,0.5-1.7,0.9c-2.1,1.8-4.1,3.7-6.2,5.6c-1.2,1.1-2.3,2.7-4,3.3c0,0.1-0.1,0.2-0.1,0.3
			c0.8,2.3,2.4,3.6,5.5,2.8c0.5,4.9,7.7,4.4,12.1,3.9c0,1.1,0.3,1.4,0.6,2.1c3.6,1.6,8.7-0.8,11.7-1.9c1.2-0.3,2.3-0.5,3.5-0.8
			c1-0.4,1.8-1.3,2.7-1.7c5.1-2.3,10.2-4.4,15-7c2.9-1.1,5.8-2.1,8.7-3.2c1.1-0.5,2.3-0.9,3.4-1.4c2.1-0.7,3.6-0.2,5.4-1
			c2.6-1.2,6.5-1.5,9.2-2.4c1.1-0.5,2.3-0.9,3.4-1.4c2.3-0.7,6.1-1,7.8-2.7c5.1-4.9,3.1-11.9,1.3-18.7c-0.6-2.4,0.3-4.8-0.1-7.1
			c-0.2-1.1-0.5-3.7-0.1-5.2c1.9-7.2,4.2-10.9,8-16.3c0.6-1.2,1.3-2.4,1.9-3.6c1.1-1.6,2.2-3.2,3.3-4.8c0.9-1.7,1.7-3.4,2.6-5.1
			c1.1-1.6,2.5-3.6,3.5-5.6c1.2-2.6,1.8-5.8,2.7-8.7c0.6-0.3,1.2-0.5,1.8-0.8c-0.2,2.2-1.4,3.4-1.8,5.5c0.2,0.2,0.1,0.1,0.5,0.2
			c0.8-1.8,1.1-4.6,2.3-6.2c0.4-0.3,0.9-0.5,1.3-0.8c0.1,0,0.3,0,0.4,0c0,0.4-0.1,0.9-0.1,1.3c0.3,0.2,0.4,0.2,0.8,0.1
			c0.9-1.8,0.7-3.6,2.9-4.3c0.2,0.6,0.4,0.7,1.1,0.7c0.1-0.1,0.2-0.1,0.3-0.2c-0.2-0.6-0.5-0.9-0.5-1.8c0.7-0.8,1.4-1.6,2.1-2.4
			C527.1,290.6,524,275.7,515.2,270.5z M507.2,270.1c0.2,0,0.4,0.1,0.6,0.1c0.1,0,0.1,0.1,0.2,0.1c-0.2,0.9-0.8,2-0.8,3.2
			c-0.1,0-0.1,0.1-0.2,0.1c-0.1-0.1-0.1-0.1-0.2-0.2C507,272.3,507.1,271.2,507.2,270.1z M506.2,270.2c0,0.5,0,1,0,1.5
			c-0.4-0.3-0.6-0.8-0.7-1.4C505.8,270.3,506,270.2,506.2,270.2z M384.8,253.8c0,0.2,0,0.4,0,0.6c-0.2,0.3-0.9,0.4-1.3,0.5h-0.1
			c0.1-0.5,0.2-1,0.3-1.5C384.2,253.6,384.1,253.8,384.8,253.8z M317.1,170.2c0-0.1,0.1-0.1,0.1-0.2c0,0.1,0.1,0.1,0.1,0.2
			C317.3,170.2,317.2,170.2,317.1,170.2z M321.8,219.1c0-0.1-0.1-0.1-0.1-0.2C321.9,219,321.8,219,321.8,219.1z M326,225.5
			c-1.1-1.8-3-3.4-3.9-5.4c0.2,0,0.4,0,0.6,0c-0.6-1-1.1-1.7-1.9-2.7c0.1-0.1,0.2-0.1,0.3-0.2c-0.2,0-0.3,0-0.5,0
			c0.1-0.9-0.6-1.9-1.2-3c0.2-0.2-1.3-6.2-1-7.7c0.4-2.2,0.6-6,1.3-8.7c0.6-2.2,2-6.6,1.5-9.1c-0.6-2.8-1.9-5.3-2.5-7.9
			c-0.5-2.3-0.4-4.5-0.8-6.7c-0.1-0.8-0.4-1.5-0.2-2.2c0.4-1.4,2.3-0.9,3-1.8c0.8,0,1.5,0.1,2.3,0.1c1.7,1.1,3.6,1.9,5.3,2.8
			c3.6,1.9,5.3,6,7.3,9.3c1.3,2.2,3,4.2,4.2,6.6c2.2,4.5,2.7,9.8,4.3,14c0.6,1.6,2.6,8.2,2,9.6c0.5,0.6,1,4.9,0.9,5.4
			c0.1-0.1,0.2-0.1,0.3-0.2c0,0.8,0.1,1.2,0,1.8c0,0,0,0-0.1,0.1c0.1,0.6,0.4,0.9,0.6,1.4c-0.3,0.5,0.5,6.4,0.7,6.9
			c-4.1,1.6-13.4,7.3-15.2,10.9c-0.1,0-0.1,0.1-0.2,0.1C331.2,233.7,328.8,229.9,326,225.5z M320,287.4
			C320,287.4,320,287.3,320,287.4c1.1-0.3,2.3-0.5,3.4-0.7c0.2,0,0.4,0,0.6,0v0.1c-0.8,1-1.8,1.9-2.3,3.3c-0.1,0-0.3,0-0.4,0
			C320.7,289.6,320.2,288.4,320,287.4z M328.4,307c0.1-0.1,0.1-0.2,0.2-0.3c2.1,0.1,4.2,0.1,6.3,0.2c1.7,5.4,7.6,5.4,11,1.6
			c1.1,0.5,3,0.7,4.4,0.6c-0.5,1.7-2.1,2.3-3.5,3.1C338.5,317.1,332.6,313.5,328.4,307z M357.6,391.1c-0.2,0-0.5,0-0.7,0
			c-1.1-0.2-0.7,0.8-1.5,1.1c0.1,0.4,0.1,0.4,0.4,0.6c-1.7,0.8-3.4-0.4-4.8-0.6c-0.3-3.9,3.4-4.5,3.9-7.3v-0.1
			c-0.1,0-0.3-0.1-0.4-0.1c-2.2,0.9-5,4-5.4,6.7c-3.5-1-4-4.7-2.6-8c0.6-1.5,2-2.4,2.9-3.5c1.8-2.2,3.3-4.8,5-7
			c-0.2-0.1,0.1-2,0.2-2.3c0.2-0.7,0.8-1.8,0.6-2.8c-0.3-1.6-0.5-3.3-0.8-4.9c-0.6-1.2-1.1-2.5-1.7-3.7c2.6,1,6.3,1,8.7,2.3
			c0.1,0,0.1,0,0.2,0c-0.2,0.4-0.2,0.5-0.2,1.2c0.1,0.1,0.1,0.1,0.2,0.2c0.4,0,0.7-0.1,1.1-0.1c0-0.4,0-0.7,0-1.1
			c2.2,0.1,4.3,0.1,6.5,0.2c2.5,6.7,3.7,14.7-0.6,21c-1.3,1.7-2.7,3.5-4,5.2c-0.9,0.8-2.3,1.4-2.9,2.5c-0.4,0-0.8,0.1-1.2,0.1
			c0.4-0.9,0.8-1.9,1.2-2.8c0-0.2,0-0.4,0-0.6c-0.1,0-0.2-0.1-0.3-0.1c-1.6,0.7-2.7,3-3.2,4.7c-0.1,0-0.1,0.1-0.2,0.1
			C357.9,391.7,357.8,391.4,357.6,391.1z M396.8,371.8c-0.5-1.2,0.6-4,1.1-4.7c0-0.1,0-0.1,0-0.2c0.7,0.8,0.7,3.6,0.7,5.1
			C397.8,372,397.6,371.9,396.8,371.8z M434.9,369.2c-5.3,1.6-11.4,2.1-17.4,3.2c-2.3,0-4.7,0.1-7,0.1c-1.4,0.1-2.9,0.2-4.3,0.3
			c-2.3-0.1-4.5-0.3-6.8-0.4c-0.1-0.1-0.1-0.1-0.2-0.2c0.4-4.6-1.6-7.8,2.7-10.6c0,0.6,0,0.7-0.4,0.9c-0.2,0.4-0.2,0.5-0.3,1
			c0.1,0.1,0.2,0.3,0.3,0.4c0.2,0,0.3,0,0.5,0c0.4,0,1-1.1,1.1-1.7c0.2,0,0.3,0,0.5,0c0.5-0.2,0.6-0.3,0.8-0.8
			c-0.4-0.3-0.7-0.7-1.1-1c0.1-0.3,0.2-0.6,0.3-0.9c0.2,0.1,0.5,0.1,0.7,0.2c0.2,0.2,0.2,0.9,0.4,1.3c0.6,0.1,1,0.1,1.4-0.2
			c0.1,0,0.1,0,0.2,0c0-0.1,0-0.3,0-0.4c-0.4-0.3-0.8-0.7-1.2-1l0.1-0.1c0.7,0.3,1.5,0.6,2.2,0.9c0.1,0.1,0.1,0.2,0.2,0.3
			c-0.2,0.5-0.8,0.6-1.2,0.9c0,0.1-0.1,0.3-0.1,0.4c0.1,0.2,0.2,0.4,0.3,0.6c0.4,0.1,0.5,0.2,1,0.1c0.1-0.3,0.3-0.6,0.4-0.9
			c0.5-0.4,1-0.1,1.3-0.7c2.4-0.1,5.2,1.2,7.3,1.9c0.9,0.3,1.9,0,2.8,0.4c0.3,0.2,0.3,0.3,0.4,0.7c0.9,0.4,0.8-0.4,1.5-0.4
			c1.5,0.1,3.8,0.5,5.3,0.8c7.7,1.4,13.2,0.7,20.4,0.2C444.9,366.7,438.4,368.1,434.9,369.2z M486,383.6c-0.2-0.2-0.2-0.3-0.6-0.4
			c-0.1-0.3-0.1-0.1-0.1-0.6c0.4,0.2,1,0.3,1.4,0.6C486.5,383.3,486.3,383.5,486,383.6z M488.9,375.9c-0.1-0.1-0.2-0.1-0.3-0.2
			C488.9,375.8,488.8,375.7,488.9,375.9z M510.6,300.5c-0.1,1.1-0.1,2.2-0.2,3.3c-0.6,2.8-1.1,5.8-2,8.6c-0.1,0.6-0.1,1.2-0.2,1.8
			c-2.7,7.3-7.2,14-11.2,20.5c-1.3,2.1-5.5,7-5.9,9.3c-0.7,0-0.7-0.1-1.3-0.3c-0.2,0.2-0.3,0.3-0.5,0.5c0,0.2-0.1,0.4-0.1,0.6
			c0.3,0.1,0.7,0.1,1,0.2c-0.7,3.1-2.5,5.6-3,8.9c-0.4-0.1-0.7-0.2-1.1-0.3c-0.1,0.2-0.3,0.4-0.4,0.6c0,0.2,0.1,0.5,0.1,0.7
			c0.3,0.4,0.7,0.3,1.1,0.1c0.6,3.8-0.3,8.1,0.5,12c-0.4-0.1-0.8-0.1-1.2-0.2c-0.2,0.3-0.3,0.4-0.3,1c0.2,0.1,0.4,0.3,0.6,0.4
			c-0.2,0.7-0.3,0.8-0.1,1.5c0.5,0.3,1,0.2,1.5-0.1c0,0.2,0.1,0.3,0.1,0.5c-0.3,0.4-0.7,0.3-1,0.7c-0.5-0.1-1.4-0.7-2.2-0.8
			c-0.3,0.2-0.4,0.4-0.6,0.5c0.1,1,0.7,1.2,1.4,1.4c-0.1,0.2-0.3,0.4-0.4,0.6c0.1,0.4,0.2,0.7,0.3,1.1c0.3,0.1,0.6,0.1,0.9,0.2v0.1
			c-0.1,0.2-0.1,0.4-0.2,0.6c-0.6-0.4-1.4-0.4-2.1-0.1c-0.4,0.3-0.7,0.8-0.8,1.4c0,0.1,0.1,0.2,0.1,0.3c0.2,0.1,0.5,0.3,0.7,0.4
			c0.4-0.3,0.5-0.1,0.7-0.7c0.1-0.1,0.2-0.1,0.3-0.2c0.1,0.2,0.3,0.5,0.4,0.7c0.2,0.1,0.5,0.1,0.7,0.2c0.2-0.1,0.4-0.1,0.6-0.2
			c0.1-0.5,0.1-0.5,0.1-1.1c0.2,0,0.3-0.1,0.5-0.1c0.2,0.4,0.2,0.5,0.6,0.7c-0.4,0.8-1.1,0.9-1.7,1.4c0,0.2,0.1,0.4,0.1,0.6
			c-0.1,0.7,0.7,0.4,1.3,0.3c0.1,0.6,0.2,0.6,0.6,1c0.2,0,0.4,0,0.6,0c0,0.3,0,0.5,0,0.8c-0.1,0.1-0.3,0.2-0.4,0.3
			c-0.5-1-1.2-2.2-2.8-1.7c0-0.3,0.1-0.5,0.1-0.8c-0.4-0.3-0.4-0.4-1-0.4h-0.1c-0.4,0.7,0,1.9-1.1,2.1c0.1,0.4,0.3,0.8,0.4,1.2
			c0.2,0,0.5,0.1,0.7,0.1c0.2-0.2,0.3-0.3,0.5-0.5c0.3-0.4,0.1-0.8-0.3-1c0.2-0.2,0.5-0.4,0.7-0.6c0,0.4-0.1,0.7-0.1,1.1
			c0.9,0.5,1.6,1,2,2v0.1c-0.8-0.2-1-0.7-2.3-0.7c0,0.2,0,0.5,0,0.7c-0.4-0.2-0.4-0.3-1-0.3c-0.1,0-0.1,0.1-0.2,0.1
			c-0.1,0.4-0.2,0.6-0.1,1.1c-0.3,0-0.5,0.1-0.8,0.1c-0.3,0.6-1,1.1-0.7,1.8c0.3,0.4,0.4,0.4,0.9,0.4c-0.4,0.2-0.8,0.4-1.2,0.6
			c-0.4-0.4-0.8-0.6-1.4-0.5c-0.3-0.1-0.3,0-0.6,0.1c0,0.3,0,0.6,0,0.9c-0.1,0-0.1,0.1-0.2,0.1s-0.3,0-0.4,0c0.3-0.8,0.3-1,0.2-2.1
			c-0.2-0.1-0.5-0.2-0.7-0.3c-1,0.1-0.8,0.6-0.8,1.3c-0.4,0.1-0.5,0-0.7,0.2c-0.5,0.6-0.1,1.3,0.6,1.4c-0.7,0.5-1.6,0.7-2.4,0.8
			c0.2-0.4,0.3-0.3,0.4-0.9c-0.3-0.3-0.6-0.4-1-0.6c-0.2,0.1-0.4,0.3-0.6,0.4c-0.2,0.2-0.1,0-0.2,0.3c0.3,0.6,0.5,0.6,1,0.9
			c-1.2,0.3-2.2,0.9-3.6,0.9c0-0.3,0.1-0.5,0.1-0.8c-0.4-0.3-0.5-0.5-1.2-0.5c0.2-0.3,0.4-0.5,0.2-0.9c-0.2-0.3-0.3-0.4-0.7-0.5
			c-0.2,0.1-0.3,0.2-0.5,0.3c0,0.3-0.1,0.5-0.1,0.8c0.4,0.3,0.4,0.4,1,0.3c-0.2,0.5-0.2,1.1-0.1,1.6c-0.2,0.1-0.4,0.3-0.6,0.4
			c-1.1,0-1.5-0.3-2.2-0.6c-0.5,0.3-0.7,0.5-0.6,1.2c-2.3,0.5-4.5,1.1-6.8,1.6c-5.9,2.3-12.3,4.6-18.1,7.5c-1.2,0.6-2.5,1.6-3.7,2.1
			s-2.2,0.6-3.3,1.2c-2,1.2-4.4,2.8-7.4,3c0-0.2,0.1-0.3,0.1-0.5c-0.3-0.2-0.6-0.4-0.9-0.6c-0.2,0.2-0.3,0.4-0.5,0.6
			c-0.2,0.5,0,0.7,0.4,0.9c-2,1.2-5.9,1.8-8.6,1.7c-0.1-0.1-0.1-0.1-0.2-0.2c0.1-2.7,2.8-3.8,3.7-5.7c0.1-0.1,0.2-0.1,0.3-0.2
			c-0.2,0.4-0.1,0.4-0.1,0.9c0.3,0.3,0.6,0.5,1.2,0.3c0.1,0,0.2-0.1,0.3-0.1c0.2-0.9-0.1-1.3-1-1.4c1-0.9,2-1.9,3-2.8
			c0-0.3,0.1-0.6,0.1-0.9c-0.3-0.1-0.5-0.1-0.8-0.2c-1.1,0.8-2.2,1.7-3.3,2.5l-0.1-0.1c0.1-0.4,0-0.3-0.1-0.7
			c-0.3,0-0.5,0.1-0.8,0.1c-0.1,0.1-0.1,0.3-0.2,0.4c-0.2,0.3-0.1,0.3-0.2,0.6c0.2,0.3,0.2,0.3,0.7,0.4c-1.1,1.5-2.8,2.6-3.4,4.4
			c-1.6,0.8-9.4,0.4-10.8-0.7c-0.4-0.3-0.5-0.6-0.6-1.1c1.9-4.3,5.8-7.3,9.3-10c0-0.1,0-0.3,0-0.4c-0.2-0.2-0.4-0.3-0.6-0.5
			c-3.2,1.2-5.8,5.1-8.6,7c-0.2-0.5-0.4-0.6-1.1-0.6c-0.1,0.3-0.2,0.6-0.3,0.9c0.1,0.1,0.1,0.2,0.2,0.3c0.4,0.2,0.3,0.1,0.7,0
			l0.1,0.1c-0.4,0.4-0.8,0.9-1.2,1.3c-0.8,0.8-2.9,0.4-3.5-0.1c0.1-1.7,1.9-2.5,3-3.3c1.9-1.4,3.2-3.4,4.8-4.8
			c0.8-0.5,1.5-1.1,2.3-1.6c1.9-1.9,4.6-4.3,7.1-5.5c4.8-2.3,12-1.5,17.4-2.7c0.9,0,1.7-0.1,2.6-0.1c2.6-0.7,5.1-1.4,7.7-2.1
			c2.8-0.7,4.9-0.6,7.6-1.4c3-1,5.9-1.9,8.9-2.9c1.1-0.2,5.7,1.7,6.7,2c0.3-0.2,0.6-0.5,0.9-0.7c0-0.1,0-0.2,0-0.3
			c-1.7-1.5-4.7-1.5-6.5-2.6c-1.1-0.7-2.5-1.9-4-2.4c-0.4-1.6-0.8-3.2-1.2-4.8c-0.1,0-0.2,0-0.3,0c-0.1,1.4,0,2.2,0.2,3.5
			c-2.2-0.9-2.9-3-2.8-5.3c-0.1,0-0.3,0.1-0.4,0.1c-0.1,0.6-0.1,1.3-0.2,1.9c0,0.2,0,0.3,0,0.5c-0.5-0.4-1.1-0.9-1.6-1.3
			c0-1.3,0.5-3-0.3-4.2c-0.2-0.3,0-0.2-0.5-0.3h-0.1c-0.3,0.4-0.4,1.1-0.2,1.8c-2.2-1,0-4.4-1.2-5.7c-0.1,0-0.1,0.1-0.2,0.1
			c-0.2,0.8-0.3,1.6-0.5,2.4c0,0.1-0.1,0.1-0.1,0.2c-1-2.9-2.2-3.5-0.6-6.4c-0.2-0.3-0.1-0.2-0.6-0.3c0.1-1.8,0.1-3.7,0.2-5.5
			c-0.3-0.1-0.5-0.3-0.8-0.4c-0.4,1.8-0.6,3.4-0.5,5.2c-0.1,0-0.1,0.1-0.2,0.1c-3.1-5.7-3.1-14.7-0.5-20.8c1.5-3.5,3.9-6.4,5.8-9.5
			c5.3-8.7,11.8-16.2,19.6-22.3c0-0.2-0.1-0.4-0.1-0.6c-0.2,0-0.4-0.1-0.6-0.1c-2.7,1.6-5.1,4.2-7.2,6.5c-0.9,0.8-1.8,1.5-2.7,2.3
			c-3.4,3.7-6.3,7.8-9.1,12.2c-4,6.3-7,10.2-9.1,18.5c-0.3,1.2,0,2.9,0.1,3.7c0.4,2.7-0.1,4.8,0.8,7.3c1.3,3.7,2.7,7.2,3.1,11.4
			c-1.8,1.4-5.6,0.4-8,0.7c-8.6,1-17.6-0.8-25.1-3c-2.9-0.9-6.5-0.8-8.4-2.6c0.1-1.1,1.1-3.3,1.8-3.9c0.2-0.2,0.8-0.2,1-0.7
			c0.8-1.8,1.6-3.6,2.5-5.5c1.2-2.6,2.1-5.5,2.9-8.2c0.3-1.4,0.5-2.7,0.8-4.1c0-0.1,0-0.1,0-0.2c2.9-0.5,6.5,0.1,9.8-1.1
			s5.7-3.2,8.4-5c3.2-2,6.4-4.1,9.6-6.1c2.8-2,4.8-5.2,7.1-7.8c2-2.2,4-4.3,6-6.5c0.1-0.1,0.1-0.1,0.2-0.2c-0.2-0.2-0.4-0.5-0.6-0.7
			c-0.2,0-0.3-0.1-0.5-0.1c-1,0.5-1.3,1.6-2,2.4c-1.8,2-3.6,4.1-5.4,6.1c-3.8,4.8-8.7,7.5-13.9,11c-2.4,1.6-4.8,3.6-7.5,4.9
			c-2.3,1.1-7.9,2.2-10.7,1.6c-0.7-1.4,0.1-3.2-0.2-4.8c-0.7-3.5-1.8-8.3-4.6-10c-0.3,0.1-0.5,0.2-0.8,0.3c0,1.2,1.5,2.2,2,3.3
			c0.7,2.1,1.3,4.2,2,6.3c1.1,6-1.7,11.5-2.9,16.1c-0.1,0-0.1,0.1-0.2,0.1c-0.1-0.2-0.1-0.3-0.2-0.5c-0.3,0-0.5,0-0.8,0
			c-0.4,1.6-0.2,3.5-0.8,4.8c-0.7,1.3-2.1,2.7-2.4,4.3c-0.1,0.1-0.2,0.1-0.3,0.2c0-0.6,0.1-1.2,0.1-1.8l-0.1-0.1c-0.1,0-0.3,0-0.4,0
			c-0.8,2.1-0.2,3.7-1.9,5H404c0.3-1.3,0-1.9,0-3.5c-1.1,0.4-0.5,2-0.8,3.1c-0.3,0.9-0.6,1.9-0.9,2.8c-0.7,0.7-1.4,1.5-2.1,2.2
			c-0.2-0.3,0.3-3.6,0.6-4.1c0-0.2-0.1-0.5-0.1-0.7c-0.1,0-0.3,0-0.4,0c-0.7,1.8-0.7,4.6-1.5,6.4c-0.5,1.1-1.8,2.1-2.2,3.4
			c-1.4,4.1-2.2,7.7-3.3,11.9c-1.1,4-1.6,9.3-1.9,12.3c-1.1,10-8.4,14.7-17.8,15.9c0.2-0.7,0.3-1.3,0.5-2c0.4,0.2,0.8,0.3,1.2,0.5
			c0.2-0.2,0.5-0.3,0.7-0.5c-0.1-0.2-0.1-0.5-0.2-0.7c-0.4-0.2-0.6-0.3-1.2-0.3c0-0.3,0.1-0.6,0.1-0.9c0-0.1-0.1-0.1-0.1-0.2
			c-1.4-0.6-2.4,3.1-2.8,4.3c-1.2,0.2-2.2,0-3.5-0.1v-0.1c0.6-0.2,0.9-0.2,0.9-1.2c-0.4-0.2-0.9-0.2-1.5-0.2
			c-0.2,0.4-0.2,0.6-0.3,0.9c0.1,0.2,0.2,0.3,0.3,0.5c-1-0.2-2.1-0.3-3.1-0.5c0-0.2,0-0.5,0-0.7h0.1c0,0.2,0.1,0.3,0.1,0.5
			c0.3,0.1,0.5,0.1,0.8,0.2c0.9-0.6,0.8-1.6-0.6-1.4c0.6-2.3,3.1-3.7,4.1-5.7c0-0.1-0.1-0.2-0.1-0.3c-2.1-0.4-5.6,4.9-6,6.8
			c-0.8-0.3-1.5-0.5-2.3-0.8c0-0.5,0-0.9,0-1.4c-0.8-0.1-1,0-1.6,0.4c-0.7-0.3-1-0.7-1.5-1.2c0.3-3.5,4.2-6.5,7.6-7.1
			c0.1-0.1,0.1-0.1,0.2-0.2c0-0.2-0.1-0.3-0.1-0.5c-0.5-0.7-2.1-0.2-2.9,0.1c-2,0.7-4.5,3.1-5.3,5c-0.1,0-0.1,0.1-0.2,0.1
			c-1.2-1.5,5-7.6,6-8.4c4-3.2,7.1-7.1,9.2-12.1c0.1-0.7,0.3-1.5,0.4-2.2c0.6-1.6,1-6.5,0.2-7.9c0.3-0.3-0.5-3.4-0.6-3.7
			c0.3-0.2,0.6-0.3,0.9-0.5c-0.1-0.2-0.1-0.5-0.2-0.7c-0.4-0.5-0.4-0.3-1-0.2c0-0.3-0.1-0.5-0.1-0.8c1,0,0.9,0.4,2,0.4
			c0.1,0,0.1-0.1,0.2-0.1c0.1-0.1,0.2-0.3,0.3-0.4c-0.2-0.5-0.5-0.7-0.8-1.1c6,0,10.8-1.7,15.8-3.3c2.2-0.7,5.2-1.3,6.1-3.3
			c0-0.2,0-0.3,0-0.5c-2.1-0.2-6.8,2.7-8.8,3.3c-5.2,1.7-11.9,3-18.4,2c-1.2,0-2.3,0-3.5,0c-7.5-1.3-16.1-3.4-21.7-7
			c-3.3-2.1-6-4.8-9-7.1c-2.6-2-5-4.9-6.2-8c-0.6-1-1.1-2-1.7-3c-1.4-3.6-1.2-10.1,0.1-14c0.9-2.7,1.9-5.2,3.1-7.4c0.3,0,0.7,0,1,0
			c0.1-0.3,0.3-0.5,0.4-0.8c0.1,0,0.2-0.1,0.3-0.1c0.9,0.9,1.8,1,3,1.7c0.9,0.5,0.7,1.2,1.6,1.6c1.1-0.6,1.9-0.3,3.2-0.2
			c0.2,0.4,0.4,0.8,0.6,1.2c0.2-0.1,0.4-0.1,0.6-0.2c0.4-0.2,0.4-0.4,0.5-0.9c3.7-1.1,7-1.4,9.6-3.5c1.9-1.5,2.6-3.7,4.9-4.9
			c1.1,1.1,2.1,2.3,3.2,3.4c-0.2,0.2-0.5,0.3-0.7,0.5c0.1,0.5,0.2,0.6,0.6,0.8c0.4,0.2,0.7,0,1.1-0.1c1.5,1.8,3.1,4,4.2,6h0.1
			c0.1,0,0.3,0,0.4,0c-0.4-3-5.6-9.2-7.5-10.9v-0.1c0.4-0.3,0.8-0.5,1.2-0.8c0.4,0.2,0.8,0.4,1.2,0.6c0.7,0,0.7-0.1,0.8-0.7
			c1.1,0,3.4-0.8,3.7-0.7c2.4,0.5,5.9,5.4,7.4,7.2c1,1.1,1.6,3.7,3.1,4.2c-0.6-3.1-4.5-7.7-6.6-9.6c-0.7-0.6-1.2-2.2-2.1-2.5v-0.1
			c2.6-1.8,6.3-3.4,7.7-6.4c0.6-0.5,0.8-0.6,1.8-0.3l0.1-0.1c-0.1-0.7-0.2-0.9-0.6-1.2c0.7-1.3,1.6-1.8,2.1-3.2
			c0.7-0.1,1-0.1,1.5-0.5c0-0.1,0-0.3,0-0.4c-0.2-0.2-0.5-0.3-0.7-0.5c0.3-0.7,0.6-1.3,0.9-2c0.5,0.2,0.4,0.5,1,0.6
			c0.2-0.1,0.3-0.2,0.5-0.3c0-0.2,0-0.3,0-0.5c-0.4-0.3-0.9-0.8-1.2,0H378c0.4-2.9,2.2-5.5,3.2-8.1c1.1-3.2,1-7.4,1.3-10.6
			c0.1-0.8-0.3-1.6-0.2-2.3c0.2-0.8,0.4-1.8,0.3-2.8c-0.1-0.1-0.2-0.1-0.3-0.2c-2.2,1.3-1,6.9-1.7,10c-0.2,1.7-0.5,3.4-0.7,5.1
			c-1.3,3.2-2.6,6.4-3.9,9.6c-1.3,2.6-3.8,4.8-4.8,7.2c-0.1,0-0.1,0.1-0.2,0.1c-1.8-1.6-4.3-2.6-6.7-3.7c0.2-2.3-0.1-5.3-1.6-6.4
			c-0.2,0-0.3-0.1-0.5-0.1c-0.1,0-0.1,0.1-0.2,0.1c-0.6,1.4,0.7,3.4,0.7,5.8c-1.7-0.5-7.8-2.1-9-0.4c0,0.1,0.1,0.2,0.1,0.3
			c1.8,0.9,6.6-0.1,8.5,1.3c0.8,0.9-1.4,5.4-1.8,6.4c-0.1,0-0.1,0.1-0.2,0.1c-1.9-1.1-5-4.6-7-4.7c-0.1,0.2-0.1,0.5-0.2,0.7
			c0.9,1.1,4.9,4.2,6.3,4.7c0.1,0.1,0.1,0.2,0.2,0.3c-1.4,1.2-2.4,3-4.7,3.3c-0.7-0.9-1.4-1.7-2.1-2.6c0.5-0.1,0.6-0.2,0.9-0.6
			c0-0.2,0-0.3,0-0.5c-0.7-0.4-1.6-0.2-2.5,0c0,0.1-0.1,0.1-0.1,0.2c0.5,1.5,1.4,3,2.6,3.8c0,0.1,0,0.3,0,0.4
			c-3.5,1.5-10.1,1-12.1-2v-0.1c0.6,0.2,1.3,0.1,1.8,0.4c0.3,0,0.6-0.1,0.9-0.1c0-0.1-0.1-0.3-0.1-0.4c0.1-0.7-0.8-1.3-1-2.3
			c-0.9-0.2-1.5,1.3-1.8,2h-0.1c-0.6-1.8-0.2-4.6,0-6.9c3.1-0.1,6.5-2,7.1-4.8c0-0.1-0.1-0.2-0.1-0.3c-0.2,0-0.3-0.1-0.5-0.1
			c-0.9,0.6-1.3,1.8-2.1,2.4c-1.2,0.9-4.3,1.6-6,1.8c-1.1-0.8-3-2.6-3.1-4.3c-0.2-0.1-0.3-0.3-0.5-0.4c-0.2,0-0.5,0-0.7,0
			c-0.1,0.2-0.1,0.5-0.2,0.7c-0.3,2,2.9,4.6,4.3,5.5c0.1,0.5,0.1,0.9-0.1,1.4c0,0.1,0,0.1,0,0.2c-0.6-0.2-1-0.3-1.7-0.2
			c-0.1,0-0.1,0.1-0.2,0.1c0.1,1,0.5,1,1,1.4c-0.3,0.5-0.4,0.7-0.5,1.1c0.3,0.4,0.5,0.5,1.2,0.5c0.1,0.1,0.1,0.2,0.2,0.3
			c-0.4,0.2-0.8,0.4-1.2,0.6c-0.6,0-1.1-0.1-1.3-0.5c-0.9,0.4-0.3,1.2-0.4,1.7c-0.7,1.1-2.5,1-3.5,0.8c-0.8-0.2-2.3,0.4-3.4,0.1
			c-1.8-0.4-3-1.6-4.7-2.3c0-0.1-0.1-0.1-0.1-0.2c2-1.6,4.9-5.1,7.8-5.2c-0.4-0.9-2-0.2-2.7,0.1c-2.4,1.1-3.9,3.6-6.2,4.5
			c-1.5-1.1-1.2-2.8-1.9-4.6c0.5-0.2,1-0.4,1.5-0.6c-0.2-0.2-1-0.1-1.5-0.1c-0.6-1.7,0.9-3.1,1-4.2c2.8-0.4,5.3-1.4,8.1,0.1
			c0.1,0,0.1-0.1,0.2-0.1c0-0.1,0.1-0.3,0.1-0.4c-2-2.5-5.5-0.6-8.6-0.4c0.6-1.7,1.5-3.7,2.9-4.6c0.5-1.5,4-0.2,5.1-0.5
			c0.1,0,0.1,0,0.2,0c-0.1-0.3-0.3-0.5-0.4-0.8c-2.1-0.4-4.5-0.5-7.1,0c-1.2,0.2-2.3,0.4-3.5,0.6c-1.1-0.8-1.4-6.2-1-7.9
			c1.2-5.2,7.1-9.6,7.3-13.9c0.1-0.1,0.1-0.1,0.2-0.2c1.9,0.4,0.4,5.4,0.3,6.5c-0.1,0.7,0.3,1.2,0.3,2.1c0.2,0.2,0.4,0.3,0.6,0.5
			c0.4-0.1,0.3,0,0.5-0.2c0,0,1.1-8.6,1.1-8.8c-0.2-1.7-1-3.7-0.6-5.6c0.2-0.8,0.5-1.7,0.7-2.5c-0.1-0.9-0.1-1.7-0.2-2.6
			c0.4-3.2,1.3-5.4,1.9-8.4c0.1,0,0.2,0,0.3,0c0.2,1.1,0.5,2.1,0.7,3.2c0.1,0,0.3,0,0.4,0c0.1-1.6-0.5-3.6-0.6-5.3
			c0.2-0.2,0.3-0.3,0.5-0.5c0-0.1,0.1-0.1,0.1-0.2c0.5,0.7,0.4,2.1,0.8,2.9c0.2,0.3,0,0.2,0.4,0.3c0.1-1.4-1.1-2.8-0.6-4.5
			c1.2-3.7,8.7-8.4,12.2-10.2c1.3-0.7,2.8-1.9,4.5-1.9c0.1,0.7,0.2,1.3,0.3,2c0.1,0,0.1,0.1,0.2,0.1c0.3-0.3,0.2-1.6,0-2.3
			c0.2-0.2,0.2-0.2,0.6-0.2c0,1,0.1,2,0.1,3c0.1,0.1,0.2,0.2,0.3,0.3c0.1,0,0.2,0,0.3,0c0.4-0.9,0.2-2.4-0.1-3.1
			c0.1-0.1,0.2-0.2,0.3-0.3c0.1,0,0.3-0.1,0.4-0.1c0.7,1-0.1,3.4,0.2,4.5c0,0.1,0,0.1,0,0.2c1.2,0.1,0.7-3.3,0.6-4.4
			c0.5-0.3,0.8-0.4,1.6-0.4c0.1,0,0.1,0.1,0.2,0.1c0.4,0.8-0.1,2.8-0.1,4.1h0.1c0.1-0.1,0.1-0.1,0.2-0.2c0.8-0.7,0-2.9,1.1-3.5
			c0.3,0.2,0.4,0.6,0.7,0.8c0.7,0,1.3,0.1,2,0.1c2.5,1,5.3,3.7,6.7,5.9c1.4,2.2,2.4,5.5,2.9,8.2c0.4,2.1,0.1,4.1,1.2,5.6
			c0.2,0.3,0.2,0.3,0.7,0.4c1-0.9-0.5-4.8-0.4-6.1c0.2-3.5-4.9-12-7.5-13.5c-0.6-0.4-4.7-2.4-4.6-3.1c0.2-1.7,0.4-3.4,0.6-5.1
			c2.1-6.1,2.9-13.3,5.7-19.3c0.7-1.6,2.1-3.1,2.9-4.6c3.1-5.8,6.3-10.8,10.5-15.5c1.1-1,2.1-2.1,3.2-3.1c2.7-3,6.2-6.3,9.3-7.9
			c1.2-0.6,3.2-2.2,5.2-1.3c7.6,3.5-1.5,18.7-1.2,24c-0.1,1.9-0.1,3.8-0.2,5.7c1.2,4.6,1.7,13.7,0.4,18.1c-0.2,0.5,0.2,1.9,0.2,1.9
			c0,0.9-1,6.4-1.4,7.2c-2,4.2-4,9.8-6.2,14.4c-2.2,4.8-4.7,11.3-5,16.3c-0.2,2.2-1.2,5.2-0.4,6.6c0.3,0,0.5-0.1,0.8-0.1
			c0.2-3,1-4.9,1.1-8.5c0.1,0,0.1-0.1,0.2-0.1c0.4,0.1,0.7,0.2,1.1,0.3c0.6-0.5,0.9-1.3,1.2-2.1c0.4,0,0.8-0.1,1.2-0.1
			c0-0.1,0.1-0.1,0.1-0.2c-0.2-0.4-0.5-0.8-0.7-1.2c0.1-0.2,0.3-0.4,0.4-0.6c0,0.3,0.1,0.5,0.1,0.8c0.4,0,0.8,0.1,1.2,0.1
			c0.1-0.1,0.2-0.1,0.3-0.2c0.2-0.2,0.3-0.4,0.5-0.6c-0.1-0.1-0.1-0.3-0.2-0.4c-0.6-0.2-0.8-0.1-1.4,0c0.9-1.1,2.9-1.8,4.2-2.6
			c1.6-1,3.3-2.2,5.1-3.2c1.2-0.5,2.5-1.1,3.7-1.6c1.7-1,3.6-2.5,5.3-3.5c0.9-0.5,2.4-0.6,3.5-1.1c3.1-1.5,6.6-3.4,10-4.5
			c10-3.1,20-3.4,29.1-1.9c0.2-0.1,0.5-0.2,0.7-0.3c1.9,0.4,3.8,0.2,5.3,0.6c1.8,0.5,3.8,1.4,5.4,1.7c0.6,0.1,2.7,0.1,3.1,0.4
			c1.2,0.9,3.1,1.3,4.5,1.9c3.8,1.6,7.5,3.8,11.1,5.9c1.1,0.9,2.2,1.9,3.3,2.8c2.4,1.8,5.3,3.7,7.4,6.1c0.6,0.7,0.9,1.5,1.5,2.1
			c4.6,4.5,9.1,9,12.5,14.8c0.4,0.6,1.3,1.1,1.6,1.7c0.2,0.8,0.4,1.6,0.6,2.4c1.9,2.8,2.9,7.1,3.9,10.5c-0.2,0.5,1.2,9.4,1.5,10
			C509.7,295,511,298.7,510.6,300.5z M487.4,373.5c-0.3,0.2-0.1,0.1-0.6,0.1c0-0.1,0.1-0.1,0.1-0.2
			C487.1,373.4,487.3,373.5,487.4,373.5z M364.7,405.2c0-0.1,0-0.2,0-0.3h0.1C364.8,405,364.8,405.1,364.7,405.2z M372.7,362.3
			c0-0.1,0-0.1,0-0.2c0.1,0,0.3,0.1,0.4,0.1C373,362.2,372.9,362.3,372.7,362.3z M361.9,304.5c-0.4,0.1-0.8,0.2-1.2,0.3
			c-0.2,0-0.4,0-0.6,0c0.2-0.3,0.5-0.7,0.7-1c0.1,0,0.2,0,0.3,0c0.2,0.1,0.4,0.3,0.6,0.4C361.8,304.3,361.9,304.4,361.9,304.5z
			 M361.7,302.8c0.5-1,1-2,1.5-3c0.3-1.4,0.6-2.9,0.9-4.3c2.4,0.6,4.1,2.5,6.5,2.9c0,0.1,0.1,0.1,0.1,0.2c-2.1,1.8-4.5,4.6-7.5,5.4
			C362.7,303.6,362.4,303.1,361.7,302.8z M520.5,299.5c-0.2-0.2-0.4-0.5-0.6-0.7c-0.2,0.1-0.3,0.3-0.5,0.4c0,0.8,0.2,0.9,0.5,1.4
			c-0.1,0.5-0.2,0.7-0.5,0.9c-0.1,0.1-0.1,0.1-0.2,0.2c-0.4-0.8-0.7-1.5-1.6-1.7c0.3,1,0.6,1.6,0.7,2.9c-0.6,0.5-1.2,1-1.5,1.6
			c-0.5-0.3,0-2.5,0.1-3.3c-0.1,0-0.1,0-0.2,0c-0.1-0.1-0.3-0.1-0.4-0.2c0,0.1,0,0.1,0,0.2c-0.3,1.5-0.5,3-0.8,4.5
			c-0.5,0.3-0.9,0.5-1.4,0.8c0.5-1.9,1-4,1.5-5.8c0-0.2,0-0.5,0-0.7c-0.1,0-0.3,0-0.4,0c-1.5,3-0.4,6.3-4,8c-0.5-1.4,0.6-3,0.5-4.3
			c-0.2-2.2,0.5-5.8,0-8.9c-0.6-3.9-0.8-8.7-1.9-12.4c-0.7-2.3-2.3-5.5-2.4-7.6c0,0,1.6-4,1.7-4.2c0.1-0.1,0.1-0.2,0.2-0.3
			c0.4,0.1,0.8,0.1,1.2,0.2h0.1c-0.1,1.5-1,2-0.9,3.4c0.1,0,0.1,0.1,0.2,0.1c0.9-0.6,1.3-2.1,1.8-3.1c1.4,0,1.3,0.6,2,0.9
			c1,0.4,2,0.3,2.9,1c3.1,2.2,7.4,11.5,6.3,17c-0.4,2-0.6,4.1-0.8,6.1c-0.3,0-0.5-0.1-0.8-0.1c0,0.1,0,0.3,0,0.4c0.2,0,0.4,0,0.6,0
			c0,1.6-0.6,2.2-1.1,3.2C520.7,299.4,520.6,299.5,520.5,299.5z M390,172.1c0,0.1-0.1,0.1-0.1,0.2c0.1,0,0.1,0,0.2,0
			C390.1,172.2,390.1,172.2,390,172.1z M335.2,218.7c1.5,1.5,1,6,1.7,6.8c0,0.1,0,0.2,0,0.3c0.1,0,0.2,0,0.3,0
			c0.3-1.9-0.2-4.8-0.4-6.2c0.3,0.1,0.5,0.1,0.8,0.2c0.5-1.3-0.7-4-1.1-5.7c0.7,0.7,0.2,2,1.8,1.9c0.2-1.6-0.6-2.6-0.9-3.9
			c0.3,0.2,0.4,0.3,1,0.3c0.5-1-1.9-5.2-1.9-7.4c0.1,0,0.1-0.1,0.2-0.1c0.3,0.6,0.7,1.1,1,1.7c0.2,0,0.4,0.1,0.6,0.1
			c0-2.4-1.7-3.1-2.2-5c-1.1-3.7-1-7.3-1.9-10.7c-1.2-4.6-4.1-8-6.4-11.3c-1.3-2-3.5-5-6-5.1c-0.1,0.2-0.3,0.3-0.4,0.5
			c0,0.2,0,0.3,0,0.5c4.4,3.2,7.4,7.9,9.8,12.2c1.3,2.2,1.1,5.2,2.2,6.8c-0.2,0.2,0.2,2.5,0.4,3.3c0.2,0.8-0.2,2.1-0.1,2.3
			c0.3,0.5,0.6,0.9,0.9,1.4c-0.4,0.6,0,2.1,0.2,2.7c0,0.1-0.1,0.1-0.1,0.2c-0.4,0.2-0.1,0.1-0.5,0c-0.1,0.1-0.2,0.2-0.3,0.3
			c0.1,0.6,0.2,0.8,0.5,1.2c-0.1,0-0.2,0-0.3,0c-0.9-1.1,0.1-2.3-1.8-2.9c-0.3,0.7-0.3,0.9-0.2,1.7c0.4,0.2,0.4,0.4,0.9,0.5
			c0.1,0.5,0.2,1.1,0.3,1.6c-0.6,0.2-0.8,0.3-1.3,0.6c0.1,0.5,0.1,0.7,0.5,0.9c0.4,0.4,1.1,0.2,1.3,0c0.1,0.1,0.2,0.1,0.3,0.2
			c-0.2,1.2-0.9,1-1.4,1.9c0.2,0.2,0.2,0.5,0,0.8c-0.3,0.3-0.6,0.6-0.9,0.9c-0.3,0.7,0.4,1.2,0.6,1.5c-0.1,0.4-0.1,0.8-0.2,1.2
			c-0.3,0-0.7,0.1-1,0.1c0,0.4,0.1,0.5-0.3,0.5c0.2,0.5,0.5,0.6,0.8,1c0.2,0,0.3-0.1,0.5-0.1c0.6-0.3,0.7-0.7,0.5-1.3
			c0.3,0,0.7,0,1,0c-0.3,0.3-0.2,0.7-0.3,0.8c0,0.1,0.1,0.2,0.1,0.3c-1.2-0.1-0.9,1.5-0.8,2.3C333.2,218.8,334.9,219.1,335.2,218.7z
			 M334,217.1c0-0.1-0.1-0.1-0.1-0.2c-0.1,0-0.1,0-0.2,0h-0.1c0-0.2,0-0.5,0-0.7c0.2,0.2,0.5,0.4,0.7,0.6
			C334.2,216.9,334.1,217,334,217.1z M388.2,211.7c-0.1,0-0.3-0.1-0.4-0.1s-0.3,0-0.4,0c0,1.4,0.1,2.8,0.1,4.2
			c-0.6,3.2-1.7,6.4-3.3,9.2c-1.9,3.4-6.9,8.1-7,12.5c-0.1,0-0.1,0.1-0.2,0.1c-0.5-1-0.7-1.3-0.8-2.4c-1-0.2-1.4,0.1-1.9-0.7
			c-0.6,0-0.6,0.1-0.9,0.3c-1-1.4-1.6-3.4-1.4-5.6c0.9,0.2,1-0.3,1.3-1c-0.3-0.4-0.3-0.4-0.9-0.4c0-0.2-0.1-0.4-0.1-0.6
			c0.8-0.4,1.5-0.6,1.7-1.6c-0.9,0-0.9,0-1.4-0.3h-0.1c-0.6,0.9-0.8,2.2-1,3.5h-0.1h-0.1c-0.6-2.6,1.4-4.6,1.4-7.3
			c-0.3-0.5-0.4-0.8-1-1c0.2-0.9,0.7-1.5,0.9-2.6v-0.1c-0.1-0.1-0.2-0.1-0.3-0.2c-0.4,0.9-1,2.1-1.6,2.3c0.1,0.1,0.3,0.3,0.4,0.4
			c-0.4,1-0.7,1.9-1.1,2.9c-0.1,0-0.1,0.1-0.2,0.1c-0.2-4.1,2.4-6.4,3.6-9.8c-0.2-0.2-0.3-0.3-0.5-0.5c-0.3,0-0.5-0.1-0.8-0.1
			c-0.1,0.1-0.2,0.2-0.3,0.3c-0.7,0.6,0.4,1,0,1.7c-0.3,0.4-1,2.7-1.9,3.3c-0.2-0.2-0.1,0.2-0.1,0.3c-0.7-0.7,2.4-6.8,2.9-7.3
			c0-0.1,0-0.3,0-0.4l-0.1-0.1c-0.1,0-0.2,0-0.3,0c-0.7,1.2-2.2,2.5-2.5,4.3h-0.1c-0.5-1.2,1.7-8.4,2.3-9.3c1.2,0.6,2.2-0.4,0.9-1.2
			c-0.4,0.1-0.7,0.1-1.1,0.2c-0.8,0.9-1.4,1.9-1.3,3.1c-0.1-0.1-0.2-0.2-0.3-0.3c0.5-1.5,0.4-2.7,0.9-4.2c0.8-2.1,1.7-4.1,2.5-6.2
			c0.7-1.1,1.5-2.3,2.2-3.4c2.2-4.7,5.5-8.3,8.2-12.5c-0.1-0.1-0.1-0.2-0.2-0.3c-0.3-0.3-0.5-0.3-0.8-0.4c-1,2.1-3,4.2-4.3,5.8
			c0.3,0.2-0.1,0.5-0.2,0.6c-1.3,1.4-2.1,3.3-3.3,4.9c-3.4,4.6-5.9,11-6.9,17.6c-0.7,4.4-0.4,9.6,0.5,13.8c0,1,0.1,2,0.1,3
			c1,2.6,1.8,4.5,1.8,7.9c0.1,0,0.3,0.1,0.4,0.1c0-0.1,0.1-0.3,0.1-0.4h0.1c1.3,1.6,3.9,9.4,4.2,11.8c0.3,0.2,0.7,0.4,1,0.6
			c0.2-0.3,0.2-0.5,0.4-0.5c0.4-0.6-0.1-1.4,0.1-2.3c0.5-2.5,1.1-4.9,1.7-7.3c0.3-1.2,1.5-2.5,2.1-3.5
			C383.5,227.9,391.3,218.8,388.2,211.7z M370,208.6C370.1,208.6,370.1,208.6,370,208.6c0.1,0.1,0,0.2,0,0.3
			C370,208.8,370,208.7,370,208.6z M370.7,226.2h-0.1c0-0.1-0.1-0.1-0.1-0.2c-0.9-1.2,0.1-2.7,0.5-3.8c0.4,0.1,0.2,0,0.4,0.3
			C371.9,223.4,370.9,225.2,370.7,226.2z M374.3,236.5c0,0.2,0.1,0.5,0.1,0.7c-0.1-0.3-0.3-0.6-0.4-0.9
			C374.3,236.4,374.2,236.3,374.3,236.5z M374.8,238.1L374.8,238.1c-0.2-0.2-0.3-0.4-0.4-0.6c0.1,0.2,0.3,0.3,0.4,0.5V238.1z
			 M376.4,240.6c-0.1,0.1-0.2,0.1-0.3,0.2c-0.1,0-0.3,0-0.4,0c0.1-0.5,0.2-1,0.3-1.5c0.1,0,0.3,0.1,0.4,0.1s0.1,0,0.2,0
			C376.7,239.8,376.6,240.1,376.4,240.6z M327.6,193.2c-0.1,0.1-0.2,0.3-0.3,0.4c0,0.2,0.1,0.5,0.1,0.7c0.2,0.1,0.5,0.3,0.7,0.4
			c0.2,0,0.3-0.1,0.5-0.1c0.2-0.4,0.2-0.5,0.1-1C328.4,193.5,328,193.3,327.6,193.2z M378.5,193.7c-0.1,0-0.3,0.1-0.4,0.1
			c-0.1,0.2-0.2,0.4-0.3,0.6c0,0.1-0.1,0.3-0.1,0.4c0.8,0.3,1.3,0.4,1.8-0.3c0-0.1,0.1-0.3,0.1-0.4
			C379.2,193.8,379,193.8,378.5,193.7z M327,199.5c0.2,0.3,0.1,0.1,0.1,0.5c0.1,0.1,0.3,0.3,0.4,0.4c0.5,0.2,0.8,0.2,1.1-0.2
			c0-0.2,0.1-0.4,0.1-0.6c-0.3-0.2-0.6-0.3-0.9-0.5C327.4,199.5,327.5,199.5,327,199.5z M324.5,203.4c0.1,0.3,0.1,0.5,0.2,0.8
			c0.3,0.1,0.6,0.3,0.9,0.4c0.4-0.4,1.1-0.7,1.2-1.4c-0.6-0.3-1-0.3-1.7-0.4C325.1,203,324.8,203.2,324.5,203.4z M377.7,204.4
			c0.1,0.1,0.2,0.1,0.3,0.2c0-0.1,0-0.3,0-0.4c-0.1-0.1-0.3-0.1-0.4-0.2C377.7,204.1,377.7,204.3,377.7,204.4z M379.6,205.9
			c-0.1-0.4-0.2-0.7-0.3-1.1c-0.1-0.1-0.1-0.1-0.2-0.2c-0.2,0-0.4-0.1-0.6-0.1c-0.2,0.3-0.1,0.2-0.6,0.3c0.2,0.6,0.3,0.9,0.2,1.5
			C378.9,206.3,379.2,206,379.6,205.9z M329.3,209.5c0.1,0.1,0.2,0.3,0.3,0.4c0.8,0.1,1.5,0.1,2.3,0.2c0.5-1-0.5-1.5-1.4-1.6
			c-0.2,0.1-0.5,0.1-0.7,0.2C330,208.9,329.5,208.8,329.3,209.5z M330.4,208.7C330.5,208.7,330.5,208.7,330.4,208.7
			c0,0.1,0,0.1-0.1,0.2C330.4,208.8,330.4,208.8,330.4,208.7z M330.8,212.2c-0.3-0.3-0.5-0.3-1.1-0.3c-0.1,0.1-0.2,0.2-0.3,0.3
			c-0.2,0.2-0.1,0-0.1,0.3c-0.1,0.6,0.2,0.6,0.6,0.9c0.3,0,0.6-0.1,0.9-0.1c0.1-0.2,0.1-0.3,0.2-0.5
			C331,212.4,331,212.4,330.8,212.2z M375.5,214.1c-0.3,0.4-0.6,0.6-0.7,1.3c0.2,0.2,0.3,0.3,0.5,0.5c0.2,0,0.3,0.1,0.5,0.1
			c0.3-0.3,0.5-0.6,0.7-1.1C376.5,214.2,376.2,214.1,375.5,214.1z M384,217.2c-0.5-0.4-0.5-0.4-1.3-0.5c0,0.3-0.1,0.6-0.1,0.9
			C383.3,218,383.8,218,384,217.2z M323.3,219.9c0,0.1-0.1,0.1-0.1,0.2C323.4,220,323.3,220,323.3,219.9z M375.4,222.1
			c0.1-0.1,0.1-0.1,0.2-0.2c-0.1-0.1-0.2-0.1-0.3-0.2c-0.2,0-0.4-0.1-0.6-0.1c-0.2,0.2-0.4,0.5-0.6,0.7c0,0.1-0.1,0.3-0.1,0.4
			c0.1,0,0.1,0,0.2,0c0.3,0.3,0.4,0.2,0.9,0.3C375.2,222.7,375.3,222.4,375.4,222.1z M379.1,222.2c-0.3,0.2-0.5,0.3-0.8,0.5
			c0.1,0.2,0.1,0.5,0.2,0.7c0.3,0.1,0.5,0.2,0.8,0.3c0.4-0.3,0.4-0.7,0.5-1.3C379.6,222.3,379.4,222.3,379.1,222.2z M381.8,223.4
			c-0.1,0.6,0.1,0.7,0.8,0.7c0.1-0.1,0.2-0.2,0.3-0.3c0.3-0.2,0.1-0.2,0.2-0.5c-0.2-0.1-0.5-0.2-0.7-0.3
			C382.2,223.1,382,223.3,381.8,223.4z M379.1,227.6c-0.1-0.3-0.1-0.5-0.2-0.8c-0.2,0-0.5-0.1-0.7-0.1c-0.3,0.2-0.5,0.3-0.8,0.5
			c0,0.1,0,0.3,0,0.4c0.2,0.1,0.5,0.1,0.7,0.2C378.5,227.7,378.8,227.7,379.1,227.6z M376.5,229.5c0-0.1,0-0.3,0-0.4
			c-0.3-0.1-0.7-0.1-1-0.2c-0.4,0.4-1,0.1-1.6,0.3c-0.2,0.1-0.4,0.3-0.6,0.4c0,0.2,0,0.4,0,0.6c0.7,0.4,1.4,0.3,2.3,0.6
			C376,230.4,376.3,230,376.5,229.5z M379.7,229.2c-0.2-0.2-0.3-0.2-0.7-0.2c-0.2,0.2-0.5,0.3-0.7,0.5c-0.1,0.2-0.1,0.5-0.2,0.7
			C379.1,230.9,379.9,230.5,379.7,229.2z M376.7,231.3c0.1,0.1,0.1,0.3,0.2,0.4c0.3,0.4,0.5,0.3,0.9,0.3c0.1,0,0.1-0.1,0.2-0.1
			c0-0.3,0-0.6,0-0.9c-0.3,0-0.6-0.1-0.9-0.1C377,231,376.9,231.2,376.7,231.3z M373.1,232c0.1,0.3,0.2,0.6,0.3,0.9
			c0.4,0.3,0.7,0.5,1.4,0.5c0.2-0.2,0.2-0.2,0.5-0.3c0-0.3-0.1-0.7-0.1-1c-0.2-0.4-0.9-0.4-1.5-0.4
			C373.5,231.9,373.6,231.9,373.1,232z M377.5,233.3v-0.1c-0.3,0-0.7-0.1-1-0.1c-0.1,0.1-0.2,0.2-0.3,0.3c-0.2,0.4-0.1,1.1,0,1.5
			c0,0.1,0,0.2,0,0.3c0.3,0,0.6,0,0.9,0C377.4,234.8,377.5,234,377.5,233.3z M389.3,244.7c0.1,0,0.2,0,0.3,0c0-0.4,0.1-0.3-0.1-0.6
			c-0.1,0.1-0.1,0.2-0.2,0.3C389.3,244.5,389.3,244.6,389.3,244.7z M365,269.8c0.1,0,0.1,0,0.2,0c0-1.7-0.9-2.3-1.5-3.7
			c0.3,0,0.7-0.1,1-0.1c1.5-0.9,4.1-4.6,4.6-6.5c0.8-3.4-2.5-8.3-5.3-8.5c-0.2-0.7,1.1-1.9,0.1-2.7c-1.5,1.2-1.6,2.4-2.2,4.6
			c-1.7,5.9-1.5,13.3,2.3,17.1C364.5,269.9,364.8,269.9,365,269.8z M362.4,257.6c-0.2-0.6,0.1-1.2,0.2-2c0.3-0.1,0.5-0.1,0.8-0.2
			c0.2,0,0.5,0,0.7,0c0.4,0.9,0.6,1.8-0.3,2.4c-0.2,0.1-0.4,0.2-0.6,0.3C362.7,258,362.6,258,362.4,257.6z M394.2,248.7
			c-0.3-0.1-0.6-0.2-0.9-0.3c-0.1,0.1-0.2,0.2-0.3,0.3c0,0.3,0.1,0.6,0.1,0.9c0.2,0,0.4,0.1,0.6,0.1
			C394,249.4,394.2,249.2,394.2,248.7z M403.2,249c-0.1,0.1-0.2,0.1-0.3,0.2c0,0.2,0.1,0.5,0.1,0.7c0.3,0.1,0.3,0.2,0.8,0.2
			c0.1-0.4,0.2-0.5,0.1-0.9C403.7,249.1,403.5,249.1,403.2,249z M332.4,251.3c0,0.1,0,0.2,0,0.3c0.1,0,0.2,0,0.3,0
			C332.6,251.3,332.8,251.5,332.4,251.3z M391.5,252.4c0.1,0.6,0.2,0.8,0.6,1.1c0.6-0.1,0.7-0.3,0.8-0.9c-0.3-0.1-0.7-0.3-1-0.4
			C391.8,252.3,391.7,252.3,391.5,252.4z M400.5,253.9c0,0.2,0.1,0.4,0.1,0.6c0.1,0.1,0.1,0.2,0.2,0.3c0.2,0,0.4-0.1,0.6-0.1
			c0.1-0.1,0.2-0.1,0.3-0.2c0-0.2,0-0.4,0-0.6c-0.3-0.1-0.6-0.2-0.9-0.3C400.7,253.7,400.6,253.8,400.5,253.9z M387.5,257.2
			c0.3,0.5,0.6,0.6,1.1,0.7c0.1-0.4,0-0.2,0.3-0.4c0.3-0.4,0.4-0.5,0.5-1.1c-0.3,0-0.5,0-0.8,0C388.2,256.7,387.8,256.8,387.5,257.2
			z M385.3,260.3c0.2,0.4,0.4,0.5,0.5,1.1c0.4,0.1,0.7,0.1,1.1,0.2c0.1-0.3,0.1-0.5,0.2-0.8c-0.1-0.1-0.3-0.3-0.4-0.4
			C386.3,260.4,385.8,260.3,385.3,260.3z M394,264.5c-0.1,0.6-0.2,0.5-0.1,1.1c0,0.1,0.1,0.1,0.1,0.2c0.6,0.1,0.8,0,1.2-0.4
			c-0.1-0.2-0.1-0.5-0.2-0.7C394.7,264.6,394.4,264.6,394,264.5z M385.7,267.8c-0.1,0.2-0.1,0.4-0.2,0.6c0.1,0.2,0.3,0.3,0.4,0.5
			c0.1,0,0.3,0,0.4,0c0.2-0.2,0.3-0.5,0.5-0.7C386.5,267.9,386.4,267.8,385.7,267.8z M369.6,268.7c-0.2,0-0.4-0.1-0.6-0.1
			c-1,3.5,2.4,6.5,3.1,9.7c0.8,3.7-0.4,6.8-1.5,9.9c-1.4-0.2-3.6-1.7-5.5-2c-2.4-0.4-7.5,0.7-9.7,1.3c-1.7,0.4-4.4-0.2-4.8,1.5
			c0,0.1,0.1,0.1,0.1,0.2c2.7,0.4,6.2-1,8.8-1.5c4.1-0.8,7.5,0.2,10.3,1c0.2,0.5,0.1,0.5,0,1.1c0.3,0.2,0.4,0.3,1,0.3
			c0.4-0.3,0.8-0.6,1.2-0.9c0.3-0.3,0.2-1.1,0.5-1.7c2.7-6.2,0.9-11-1.8-15.8C370.2,270.8,370.4,269.3,369.6,268.7z M355.5,269.9
			C355.5,269.9,355.5,269.8,355.5,269.9c-0.1-0.4-0.1-0.5-0.2-0.7c-0.2-0.4-0.3-0.4-0.8-0.5c-0.4,0.4-0.6,0.8-1,1.2
			c0,0.1,0,0.2,0,0.3C354.3,270.4,354.8,270,355.5,269.9z M515.6,268.7c0,0.1,0,0.2,0,0.3c0.1,0,0.2,0,0.3,0
			C515.8,268.7,516,268.9,515.6,268.7z M384.1,274.3c0,0.2,0,0.3,0,0.5c0.4,0.2,0.5,0.4,1.2,0.4c0.2-0.3,0.3-0.6,0.4-1.1
			c-0.5,0-0.9-0.1-1.4-0.1C384.3,274.1,384.2,274.2,384.1,274.3z M325.7,277.8c-0.1,0.2-0.2,0.5-0.3,0.7c0.4,0.4,0.6,0.7,1.4,0.5
			c0-0.2,0.1-0.3,0.1-0.5C326.6,278,326.6,277.8,325.7,277.8z M346.1,278.6c0.3,0.4,0.4,0.4,1.1,0.4c0.2-0.3,0.3-0.4,0.4-1
			c-0.3-0.1-0.7-0.1-1-0.2C346.5,278.1,346.3,278.3,346.1,278.6z M334.9,281c-0.3,0.5,0,0.8,0.5,1c0.2,0,0.3-0.1,0.5-0.1
			c0.1-0.1,0.2-0.3,0.3-0.4c0-0.1,0.1-0.2,0.1-0.3c-0.4-0.2-0.7-0.3-1.1-0.5C335.1,280.8,335,280.9,334.9,281z M382.7,284.3
			c-0.3,0.3-0.4,0.4-0.5,0.9c0.4,0.1,0.7,0.1,1.1,0.2c0.1-0.1,0.2-0.3,0.3-0.4C383.4,284.5,383.4,284.4,382.7,284.3z M388.1,287.1
			c-0.2,0.2-0.3,0.2-0.4,0.6c0,0.2,0.1,0.5,0.1,0.7c0.2,0.1,0.5,0.3,0.7,0.4c0.1-0.1,0.2-0.1,0.3-0.2c0.3-0.2,0.3-0.3,0.3-0.9
			C388.9,287.3,388.7,287.2,388.1,287.1z M332.1,288.1c0.2-0.3,0.1-0.3,0-0.7c-0.4,0-0.8-0.1-1.2-0.1c0,0.2-0.1,0.5-0.1,0.7
			c0.3,0.3,0.6,0.5,1.1,0.6C332,288.4,332.1,288.3,332.1,288.1z M380.3,288.3c0-0.3,0-0.5,0-0.8c-0.4,0-0.7-0.1-1.1-0.1
			c-0.1,0.3-0.1,0.3-0.1,0.8c0.1,0.1,0.3,0.2,0.4,0.3C379.8,288.4,380.1,288.4,380.3,288.3z M357.6,289.7c0.2,0.2,0.4,0.3,0.6,0.5
			c0.2,0,0.3,0,0.5,0c0.2-0.3,0.1-0.3,0.4-0.5c0-0.2,0-0.5,0-0.7c-0.4-0.1-0.7-0.1-1.1-0.2C357.8,289.1,357.7,289.1,357.6,289.7z
			 M379.7,290.1c-0.1,0.2-0.3,0.4-0.4,0.6c0,0.1-0.1,0.2-0.1,0.3c0.1,0.1,0.3,0.1,0.4,0.2c0.6,0.2,0.8-0.1,1.1-0.4
			c0-0.1,0-0.3,0-0.4c-0.1-0.1-0.2-0.1-0.3-0.2C380.2,290.2,380,290.1,379.7,290.1z M352.7,292c0.3,0.5,0.6,0.6,1.2,0.7h0.1
			c0-0.4,0.1-0.9,0.1-1.3c-0.4,0-0.7-0.1-1.1-0.1C352.9,291.5,352.8,291.8,352.7,292z M326.1,295.2c0-0.1,0-0.2,0-0.3
			c-0.3-0.4-0.7-0.5-1.3-0.6c-0.2,0.4-0.1,0.5-0.1,1.1c0.4,0.1,0.8,0.3,1.2,0.4C326,295.6,326.1,295.4,326.1,295.2z M378,294.7
			c-0.3-0.3-0.4-0.4-1.1-0.4c-0.1,0.2-0.1,0.4-0.2,0.6c0.1,0.1,0.2,0.3,0.3,0.4c0.2,0.4,0.6,0,1-0.2C378,295,378,294.8,378,294.7z
			 M331.7,294.4c-0.1,0.2-0.3,0.5-0.4,0.7c0.2,0.2,0.4,0.5,0.6,0.7c0.8,0,1.1-0.1,1.1-0.9c-0.2-0.1-0.4-0.3-0.6-0.4
			C332.2,294.5,332,294.4,331.7,294.4z M353.6,296.3c0.4,0.1,0.7,0.3,1.1,0.4c0.5-0.2,0.4-0.5,0.3-1c-0.4-0.1-0.7-0.2-1.1-0.3
			c-0.1,0.1-0.2,0.2-0.3,0.3C353.6,295.9,353.6,296.1,353.6,296.3z M325.8,297.5c0.1,0,0.2,0.1,0.3,0.1c0.2-0.1,0.4-0.2,0.6-0.3
			c0-0.5,0-0.9,0-1.4c0-0.1,0.1-0.3,0.1-0.4c-0.1,0-0.3,0-0.4,0C325.8,296.1,325.5,296.6,325.8,297.5z M356,297.7
			c0.5,0.2,0.9-0.2,1.2-0.3c0-0.1,0.1-0.1,0.1-0.2c-0.1-0.7-0.6-0.7-1.3-0.8c-0.1,0.1-0.3,0.1-0.4,0.2c-0.1,0.4-0.1,0.3-0.1,0.8
			C355.7,297.5,355.9,297.6,356,297.7z M337.2,298c0.3,0,0.5,0,0.8,0c0.1-0.1,0.2-0.1,0.3-0.2c0-0.2-0.1-0.5-0.1-0.7
			c-0.2-0.1-0.4-0.1-0.6-0.2c-0.1,0.1-0.2,0.2-0.3,0.3c-0.2,0.3-0.1,0.2-0.1,0.5C337.2,297.8,337.2,297.9,337.2,298z M333.6,297.4
			c-0.1,0.1-0.1,0.2-0.2,0.3c0,0.2,0.1,0.3,0.1,0.5c0.1,0,0.2,0.1,0.3,0.1c0.2-0.1,0.5-0.3,0.7-0.4
			C334.3,297.4,334.3,297.4,333.6,297.4z M343.2,299.6c0.2,0,0.4-0.1,0.6-0.1c0.2-0.2,0.5-0.4,0.7-0.6c0-0.1,0-0.3,0-0.4
			c-0.4-0.3-0.9-0.4-1.4-0.6C343.1,298.8,343.1,298.8,343.2,299.6z M350.2,298.8c0-0.2-0.1-0.4-0.1-0.6c-0.4-0.1-0.7-0.2-1.1-0.3
			c-0.2,0.1-0.5,0.2-0.7,0.3c0.2,0.6,0.7,0.9,1.4,0.9C349.9,299,350.1,298.9,350.2,298.8z M515.2,299.3c-0.1,0.5-0.2,0.4,0.3,0.6
			C515.5,299.4,515.6,299.5,515.2,299.3z M330.5,299.8c-0.1,0.1-0.3,0.3-0.4,0.4c0,0.1,0,0.2,0,0.3c0.3,0.3,0.6,0.6,1.1,0.4
			c0.3-0.2,0.3-0.3,0.4-0.6c0-0.1-0.1-0.2-0.1-0.3C331.2,299.9,330.9,299.9,330.5,299.8z M350,299.9c-0.3,0-0.5,0-0.8,0
			c-0.1,0.1-0.2,0.3-0.3,0.4c0,0.1-0.1,0.2-0.1,0.3c0.2,0.2,0.3,0.3,0.5,0.5c0.4,0,0.8-0.1,1.1-0.4
			C350.3,300.4,350.2,300.2,350,299.9z M378,299.9c-0.2,0.6-0.2,0.5-0.1,1.2c0.3,0.1,0.6,0.1,0.9,0.2c0.1-0.1,0.2-0.2,0.3-0.3
			C379.1,300.2,378.8,300,378,299.9z M342.3,300c-0.2,0.2-0.4,0.3-0.6,0.5c-0.1,0.2-0.1,0.5-0.2,0.7c0.2,0.4,0.3,0.5,0.8,0.6
			c0.2-0.2,0.5-0.4,0.7-0.6c-0.1-0.3-0.1-0.7-0.2-1C342.7,300.1,342.5,300.1,342.3,300z M347.6,300.1c-0.3,0-0.5,0.1-0.8,0.1
			c-0.1,0.1-0.1,0.1-0.2,0.2c0,0.2,0,0.4,0,0.6c0.2,0.1,0.3,0.2,0.5,0.3c0.3,0,0.5,0.1,0.8,0.1c0.2-0.2,0.3-0.5,0.5-0.7
			C348.2,300.3,348.1,300.3,347.6,300.1z M354.7,301.6c0.1-0.2,0.1-0.4,0.2-0.6c-0.2-0.2-0.3-0.3-0.5-0.5c-0.2,0-0.4-0.1-0.6-0.1
			c-0.1,0.2-0.3,0.5-0.4,0.7c0.2,0.2,0.5,0.4,0.7,0.6C354.3,301.7,354.5,301.6,354.7,301.6z M372.4,301.9
			C372.5,301.9,372.5,301.9,372.4,301.9c0.2-0.3,0.4-0.7,0.5-1c-0.3-0.2-0.8-0.2-1.4-0.2c0,0.3,0.1,0.7,0.1,1
			C371.9,301.8,372,301.9,372.4,301.9z M335.6,302.6c0.2-0.2,0.4-0.5,0.6-0.7c0-0.2,0.1-0.4,0.1-0.6c-0.8,0-0.9-0.1-1.6,0
			C334.7,302.2,334.9,302.3,335.6,302.6z M346.8,303.3c0.1,0,0.3-0.1,0.4-0.1c0-0.3,0.1-0.7,0.1-1c-0.2-0.1-0.4-0.2-0.6-0.3
			c-0.2,0.1-0.3,0.2-0.5,0.3c0,0.2,0,0.4,0,0.6C346.4,303.1,346.5,303.1,346.8,303.3z M328.7,302.5c-0.1,0.1-0.3,0.1-0.4,0.2
			c0,0.2-0.1,0.5-0.1,0.7c0.3,0.2,0.5,0.3,0.8,0.5c0.2-0.2,0.4-0.4,0.6-0.6C329.5,302.7,329.2,302.7,328.7,302.5z M335.1,303.1
			c-0.2,0.2-0.5,0.3-0.7,0.5c0,0.1-0.1,0.2-0.1,0.3c0.3,0,0.6-0.1,0.9-0.1c0.1-0.1,0.2-0.1,0.3-0.2
			C335.4,303.2,335.5,303.3,335.1,303.1z M371.5,303.8c0-0.1,0.1-0.3,0.1-0.4c-0.3,0-0.7-0.1-1-0.1c-0.1,0.1-0.2,0.1-0.3,0.2v0.1
			c0,0.4,0,0.7,0,1.1c0.5,0,0.8-0.1,1.1-0.4C371.7,304.1,371.6,304.1,371.5,303.8z M350.9,303.9c0-0.1,0-0.3,0-0.4
			c-0.2,0-0.3-0.1-0.5-0.1c0,0.2,0,0.4,0,0.6C350.6,304,350.8,303.9,350.9,303.9z M356.3,304c0-0.2,0-0.4,0-0.6
			c-0.2,0-0.4,0.1-0.6,0.1c0,0.1-0.1,0.2-0.1,0.3c0.2,0.1,0.3,0.2,0.5,0.3C356.2,304.1,356.3,304,356.3,304z M346.3,304
			c-0.2,0-0.3-0.1-0.5-0.1c-0.1,0.1-0.2,0.3-0.3,0.4c0.2,0.2,0.2,0.3,0.4,0.5c0.5,0.3,0.7,0.2,1-0.3
			C346.7,304.3,346.5,304.2,346.3,304z M350.2,304.6c-0.3,0.2-0.5,0.3-0.6,0.7c0,0.3-0.1,0.5-0.1,0.8c0.4,0,0.8,0,1.2,0
			c0.2-0.4,0.3-0.8,0.5-1.2C351,304.6,350.7,304.4,350.2,304.6z M346.9,304.9c0.1,0.6,0.1,0.7,0.3,1.2c0.2,0,0.5,0,0.7,0
			c0.1-0.2,0.2-0.3,0.3-0.5c0.1,0,0.1-0.1,0.2-0.1c-0.2-0.2-0.4-0.3-0.6-0.5C347.5,305,347.2,304.9,346.9,304.9z M352.3,306.2
			c-0.1,0.1-0.1,0.1-0.2,0.2c0.2,0.2,0.1,0.1,0.5,0.2C352.5,306.3,352.6,306.4,352.3,306.2z M360.9,307.2c-0.1,0.1-0.3,0.1-0.4,0.2
			c-0.3,0.2-0.3,0.4-0.4,0.8c0.3,0.1,0.6,0.3,0.9,0.4c0.2-0.2,0.3-0.4,0.5-0.6c0.2-0.3,0.1-0.3,0.1-0.6
			C361.4,307.3,361.2,307.3,360.9,307.2z M371.3,307.7c0.1,0.5,0.2,0.5,0.4,0.8c0.4-0.1,1-0.3,1.2-0.6c0.1-0.1,0.1-0.1,0.2-0.2
			c-0.3-0.3-0.5-0.4-1.1-0.4C371.8,307.4,371.6,307.6,371.3,307.7z M353.6,310.9c-0.3-0.1-0.6-0.3-0.9-0.4c-0.2,0.1-0.3,0.3-0.5,0.4
			c0,0.2,0,0.4,0,0.6c0.1,0.1,0.3,0.1,0.4,0.2c0.2,0,0.5,0.1,0.7,0.1c0.1-0.1,0.3-0.3,0.4-0.4C353.7,311.2,353.7,311.1,353.6,310.9z
			 M354.5,311.8c-0.3,0-0.5-0.1-0.8-0.1c-0.1,0.1-0.2,0.3-0.3,0.4c0.1,0.2,0.1,0.5,0.3,0.7c0.4,0.3,0.7,0.1,1.2,0
			C354.9,312.2,354.9,312,354.5,311.8z M330.6,314.3c-0.4,0.3-0.5,0.2-0.5,0.9c0.2,0.2,0.5,0.4,0.7,0.6c0.6-0.2,0.8-0.5,0.6-1.2
			C331.2,314.5,330.9,314.4,330.6,314.3z M351.5,316.3c-0.1,0.3-0.1,0.7-0.2,1c0.2,0.1,0.3,0.3,0.5,0.4c0.4-0.1,0.8-0.3,1.2-0.4
			c0-0.1,0.1-0.1,0.1-0.2c-0.2-0.2-0.5-0.5-0.7-0.7C352.1,316.4,351.8,316.3,351.5,316.3z M356.9,316.8c0,0.2,0.1,0.5,0.1,0.7
			c0.2,0.1,0.3,0.1,0.5,0.2c0.2-0.1,0.4-0.2,0.6-0.3c0-0.2,0.1-0.3,0.1-0.5c-0.3-0.1-0.7-0.3-1-0.4
			C357.1,316.6,357,316.7,356.9,316.8z M346.1,316.9c-0.1,0-0.2,0.1-0.3,0.1c0.1,0.6,0.5,0.9,0.8,1.3c0.7,0,0.9-0.1,1.1-0.6
			c-0.1-0.1-0.1-0.3-0.2-0.4C347.1,317,346.7,317,346.1,316.9z M332.8,317c-0.1,0.2-0.2,0.4-0.3,0.6c0.1,0.5,0.2,0.5,0.4,0.8
			c0.4-0.1,0.7-0.3,1.1-0.4c0-0.2,0-0.5,0-0.7C333.8,316.9,333.5,317,332.8,317z M338.9,318c-0.1,0.2-0.3,0.3-0.4,0.5
			c0,0.2,0,0.3,0,0.5c0.3,0.4,0.6,0.4,1.3,0.4c0.2-0.4,0.2-0.7,0.1-1.2C339.6,318.1,339.3,318.1,338.9,318z M329.8,319.1
			c-0.1,0.1-0.1,0.2-0.2,0.3c0,0.2-0.1,0.5-0.1,0.7c0.2,0.2,0.3,0.4,0.5,0.6c0.1,0,0.1,0,0.2,0c0.2-0.3,0.5-0.5,0.7-0.8
			c0-0.2-0.1-0.4-0.1-0.6C330.5,319.2,330.2,319.2,329.8,319.1z M334.7,321.1c0.1,0.2,0.1,0.5,0.2,0.7c0.3,0.1,0.7,0.3,1,0.4
			c0.3-0.3,0.3-0.5,0.3-1.1c-0.2-0.2-0.5-0.3-0.7-0.5C335.3,320.8,335,320.9,334.7,321.1z M371.5,321.9c-0.2,0.1-0.3,0.1-0.5,0.2
			c0.1,0.6,0.2,0.9,0.6,1.2c0.2-0.1,0.4-0.1,0.6-0.2c0.1-0.1,0.3-0.3,0.4-0.4c0-0.2-0.1-0.3-0.1-0.5
			C372.2,322.1,371.9,322,371.5,321.9z M352.3,323.4c-0.3,0-0.5,0-0.8,0c-0.2,0.2-0.3,0.4-0.5,0.6c0,0.3,0.1,0.6,0.1,0.9
			c0.3,0.1,0.2,0.1,0.4,0.1c0.3,0,0.5,0,0.8,0c0.1-0.6,0.3-0.9,0-1.4C352.3,323.5,352.3,323.5,352.3,323.4z M340.3,326.1
			c0,0.3,0,0.5,0,0.8c0.3,0.2,0.4,0.3,1,0.3c0.1,0,0.1-0.1,0.2-0.1c0.1-0.2,0.1-0.5,0.2-0.7v-0.1c-0.3-0.1-0.7-0.3-1-0.4
			C340.6,326,340.5,326,340.3,326.1z M354.9,328.1c-0.2,0.1-0.4,0.2-0.6,0.3c0.1,0.6,0.1,0.5,0.1,1.1c0.1,0.1,0.3,0.1,0.4,0.2
			c0.3-0.1,0.6-0.2,0.9-0.3c0.1-0.3,0.1-0.6,0.2-0.9c-0.1-0.1-0.3-0.3-0.4-0.4C355.3,328.1,355.1,328.1,354.9,328.1z M337.7,333.7
			c0.1,0.6,0.3,0.6,0.6,1c0.1,0,0.1,0,0.2,0h0.1c0.3-0.4,0.4-0.4,0.4-1.1c-0.2-0.1-0.5-0.2-0.7-0.3
			C338.1,333.4,337.9,333.6,337.7,333.7z M485.6,347.5c-0.1,0.2-0.3,0.5-0.4,0.7c0.1,0.2,0.3,0.4,0.4,0.6c0.3,0,0.5-0.1,0.8-0.1
			c0.1-0.3,0.1-0.5,0.2-0.8c0-0.1-0.1-0.1-0.1-0.2C486.2,347.6,485.9,347.6,485.6,347.5z M483.9,349.9c-0.4-0.3-0.4-0.4-1.1-0.4
			c-0.1,0.1-0.2,0.2-0.3,0.3c0,0.3,0.1,0.5,0.1,0.8C483.7,350.8,483.8,350.7,483.9,349.9z M480.7,357.3c0-0.1,0-0.2,0-0.3
			c-0.4-0.1-0.7-0.2-1.1-0.3c-0.2,0.2-0.3,0.4-0.5,0.6c0,0.2,0,0.4,0,0.6c0.4,0,0.8,0.1,1.2,0.1
			C480.5,357.8,480.6,357.5,480.7,357.3z M485,359c-0.1,0-0.1,0.1-0.2,0.1c0.2,0.2,0.3,0.4,0.5,0.6c0.2,0.1,0.5,0.1,0.7,0.2
			c0.2-0.2,0.3-0.3,0.5-0.5c-0.3-0.6-0.2-0.9-1.1-0.9C485.3,358.7,485.2,358.8,485,359z M411.2,361.7c-0.1,0-0.1,0.1-0.2,0.1
			c-0.1,0.3-0.1,0.6-0.2,0.9c0.1,0.1,0.3,0.1,0.4,0.2c0.3,0,0.6,0.1,0.9,0.1c0.1-0.2,0.3-0.4,0.4-0.6c-0.2-0.2-0.3-0.3-0.5-0.5
			C411.8,361.8,411.5,361.8,411.2,361.7z M482.3,363.4c0.4,0.3,0.5,0.1,0.9-0.1c0-0.3,0.1-0.5,0.1-0.8c-0.4-0.2-0.6-0.3-1.2-0.3
			c-0.1,0.1-0.3,0.2-0.4,0.3C481.8,363.1,481.9,363.2,482.3,363.4z M381,362.3c-0.1,0.1-0.2,0.2-0.3,0.3c0.1,0.5,0.3,0.7,0.7,0.9
			c0.2,0,0.5,0.1,0.7,0.1c0.1-0.3,0.1-0.6,0.2-0.9c0-0.1-0.1-0.1-0.1-0.2C381.8,362.4,381.4,362.4,381,362.3z M368.3,364.4
			c0-0.2,0.1-0.4,0.1-0.6c-0.2-0.1-0.4-0.3-0.6-0.4c-0.2,0-0.3-0.1-0.5-0.1c-0.1,0.1-0.2,0.1-0.3,0.2c0,0.4-0.1,0.8-0.1,1.2
			c0.1,0.1,0.3,0.2,0.4,0.3C367.8,364.8,368.1,364.8,368.3,364.4z M485.5,364c-0.2,0.3-0.4,0.6-0.6,0.9c0,0.1,0.1,0.3,0.1,0.4
			c0.3,0.5,0.5,0.4,0.9,0.5c0.2-0.2,0.3-0.4,0.5-0.6c0-0.2,0.1-0.4,0.1-0.6c0-0.1-0.1-0.1-0.1-0.2
			C486.1,364.3,485.8,364.1,485.5,364z M408.8,365.7c-0.2-0.3-0.3-0.6-0.5-0.9c-0.2,0-0.4,0-0.6,0c-0.1,0.1-0.2,0.1-0.3,0.2
			c-0.2,0.4-0.2,0.6-0.1,1.1c0.3,0.1,0.6,0.1,0.9,0.2c0.4-0.1,0.2,0,0.4-0.2C408.7,366,408.8,365.8,408.8,365.7z M414.4,364.8
			c-0.2,0.5,0.1,1.1,0.3,1.7c0.2,0.1,0.3,0.1,0.5,0.2c0.2-0.2,0.5-0.3,0.7-0.5c0-0.2,0-0.3,0-0.5
			C415.5,365.3,415.2,364.9,414.4,364.8z M428.7,364.9c-0.2,0-0.4,0-0.6,0c-0.1,0.2-0.3,0.3-0.4,0.5c0.1,0.4,0.3,0.8,0.4,1.1
			c0.4-0.1,0.9-0.1,1.3-0.2c-0.1-0.4-0.1-0.7-0.2-1.1C428.9,365.1,428.9,365.1,428.7,364.9z M374.3,366.3c0.1-0.3,0.1-0.5,0.2-0.8
			c-0.3-0.3-0.6-0.5-1.2-0.5c-0.1,0.3-0.3,0.5-0.4,0.8C373.3,366.3,373.5,366.5,374.3,366.3z M376.9,365.9c0,0.2-0.1,0.4-0.1,0.6
			c0.1,0.2,0.2,0.3,0.3,0.5c0.2,0,0.5-0.1,0.7-0.1c0.4-0.2,0.5-0.4,0.5-1c-0.4-0.3-0.4-0.4-1-0.5
			C377.2,365.6,377.1,365.7,376.9,365.9z M364.8,366.8c0.1-0.3,0.1-0.6,0.2-0.9c-0.4-0.3-0.5-0.4-1.3-0.4c-0.1,0.1-0.1,0.3-0.2,0.4
			c0,0.2,0.1,0.4,0.1,0.6C364,366.7,364.2,366.8,364.8,366.8z M380.3,367.8c0.1-0.1,0.1-0.3,0.2-0.4c0.2-0.3,0.1-0.1,0.1-0.6
			c-0.3-0.2-0.6-0.3-0.9-0.5c-0.4,0.5-0.5,0.7-0.2,1.4C379.8,367.7,380.1,367.8,380.3,367.8z M385.3,366.6c-0.1,0.1-0.2,0.1-0.3,0.2
			c-0.1,0.3-0.1,0.6,0,1.1c0,0.1,0.1,0.1,0.1,0.2c0.3,0,0.6-0.1,0.9-0.1c0.2-0.3,0.3-0.3,0.3-0.9c-0.2-0.2-0.5-0.3-0.7-0.5
			C385.5,366.6,385.4,366.6,385.3,366.6z M421.5,367.9c-0.4,0.3-0.6,0.3-0.5,0.8c-0.1,0.5,0.2,0.6,0.6,0.8c0.5-0.2,0.5-0.3,0.8-0.7
			c0-0.2-0.1-0.3-0.1-0.5C422.1,368,422,368,421.5,367.9z M402.1,368c-0.1,0.1-0.2,0.2-0.3,0.3c0,0.7,0.1,0.8,0.5,1.1
			c0.2,0,0.3,0,0.5,0c0.2-0.3,0.3-0.4,0.4-0.9c-0.2-0.1-0.3-0.3-0.5-0.4C402.5,368.1,402.3,368,402.1,368z M483.4,368.2
			c-0.1,0.1-0.3,0.1-0.4,0.2c-0.2,0.7,0,1,0.4,1.4c0.1,0,0.3,0,0.4,0c0.2-0.2,0.3-0.3,0.5-0.5c0-0.2-0.1-0.4-0.1-0.6
			C484.1,368.3,483.8,368.3,483.4,368.2z M373.7,368.6c-0.4,0.2-0.8,0.3-0.6,0.8c-0.1,1.1,1.1,0.5,1.7,0.2c0-0.2-0.1-0.3-0.1-0.5
			C374.4,368.8,374.4,368.7,373.7,368.6z M476.3,369.5c-0.2,0.3-0.3,0.5-0.3,1.1c0.4,0.2,0.6,0.1,1.1-0.1c0.1-0.2,0.2-0.5,0.3-0.7
			c-0.3-0.3-0.4-0.4-0.9-0.4C476.5,369.4,476.4,369.5,476.3,369.5z M409,369.5c-0.1,0.3-0.3,0.5-0.4,0.8c0.4,0.5,0.4,0.5,1.1,0.7
			c0.3-0.3,0.5-0.4,0.7-0.9C410.1,369.7,409.8,369.5,409,369.5z M460,369.9c-0.1,0-0.1,0.1-0.2,0.1c-0.2,0.9-0.1,1,0.2,1.9
			c0.1,0,0.3,0,0.4,0c0.1-0.2,0.1-0.3,0.2-0.5c-0.2-0.4-0.3-0.7-0.3-1.4C460.2,370,460.1,369.9,460,369.9z M483.3,370.4
			c-0.7,0.2-1.7,0.3-1,1.2c0.5,0.8,2.1,0.1,1.4-0.8C483.6,370.7,483.5,370.5,483.3,370.4z M366.7,372c0-0.4,0-0.9,0-1.3
			c-0.2,0-0.4,0-0.6,0c-0.2,0.2-0.5,0.4-0.7,0.6c-0.1,0.1-0.1,0.1-0.2,0.2C365.6,372.4,366,372.6,366.7,372z M367.9,372.7
			c0,0.3-0.1,0.6-0.1,0.9c0.2,0.1,0.4,0.3,0.6,0.4c0.3-0.1,0.6-0.3,0.9-0.4c0-0.2,0.1-0.3,0.1-0.5c-0.2-0.1-0.3-0.3-0.5-0.4
			c-0.2,0-0.5-0.1-0.7-0.1C368.1,372.6,368,372.7,367.9,372.7z M376.7,372.8c0.1,0.5,0.2,0.8,0.5,1.1c0.3-0.1,0.6-0.1,0.9-0.2
			c0.1,0,0.1,0,0.2,0c0-0.2,0-0.4,0-0.6c-0.4-0.3-0.6-0.5-1.3-0.5C376.9,372.7,376.8,372.7,376.7,372.8z M479.4,373.5
			c0,0.2,0,0.4,0,0.6c0.2,0.2,0.5,0.3,0.7,0.5c0.2-0.1,0.5-0.3,0.7-0.4c0.3-0.2,0.2-0.1,0.3-0.6c-0.2-0.2-0.5-0.5-0.7-0.7
			C480.1,373.1,479.8,373.3,479.4,373.5z M361.3,375.8v-0.1c-0.6-0.4-0.7-0.5-1.7-0.4c0,0.2,0,0.3,0,0.5c0.2,0.2,0.4,0.5,0.6,0.7
			C360.9,376.5,361.2,376.4,361.3,375.8z M376.7,376.5c-0.1,0.2-0.3,0.5-0.4,0.7c0,0.2,0.1,0.3,0.1,0.5c0.3,0,0.6,0.1,0.9,0.1
			c0.1-0.2,0.3-0.4,0.4-0.6c0-0.1-0.1-0.2-0.1-0.3C377.3,376.7,377.3,376.6,376.7,376.5z M478.8,376.5c-0.2,0.1-0.4,0.3-0.6,0.4
			c0,0.3,0.1,0.5,0.1,0.8c0.5,0.1,1,0.2,1.5,0.3h0.1c0.3-0.4,0.5-0.5,0.5-1.3C480.1,376.5,479.5,376.5,478.8,376.5z M482.8,377
			c-0.2,0.4-0.3,0.5-0.2,1.1c0.2,0.1,0.3,0.2,0.5,0.3c0.2,0,0.3-0.1,0.5-0.1c0.1-0.2,0.3-0.3,0.4-0.5c0-0.1-0.1-0.3-0.1-0.4
			c-0.2-0.4-0.4-0.4-0.9-0.5C483,376.9,482.9,377,482.8,377z M482,378.6c-0.1,0.1-0.3,0.3-0.4,0.4c0.1,0.2,0.1,0.5,0.2,0.7
			c0.1,0.1,0.1,0.2,0.2,0.3c0.3,0,0.7-0.1,1-0.1c0.1-0.1,0.2-0.2,0.3-0.3c-0.1-0.3-0.3-0.5-0.4-0.8
			C482.7,378.6,482.5,378.6,482,378.6z M365.6,378.9c0,0.3,0,0.6,0,0.9c0.1,0.1,0.3,0.2,0.4,0.3c0.3-0.1,0.5-0.1,0.8-0.2
			c0.1-0.2,0.1-0.4,0.2-0.6v-0.1C366.5,378.9,366.4,378.9,365.6,378.9z M482.4,381c-0.2,0-0.3,0.1-0.5,0.1c-0.1,0.2-0.3,0.3-0.4,0.5
			c0,0.2,0,0.5,0,0.7v0.1c0.3,0.1,0.5,0.1,0.8,0.2c0.2,0,0.4-0.1,0.6-0.1c0.2-0.6,0.1-0.9,0-1.5C482.8,381,482.6,381,482.4,381z
			 M479.4,381.3c-0.2,0-0.4,0.1-0.6,0.1c-0.3,0.3-0.4,0.5-0.4,1.1c0.7,0.5,1.1,0.5,1.9,0c-0.1-0.3-0.1-0.7-0.2-1
			C479.9,381.4,479.7,381.4,479.4,381.3z M472.7,381.6c-0.2,0.4-0.3,0.4-0.2,1c0.3,0.1,0.5,0.3,0.8,0.4c0.3-0.1,0.1,0,0.3-0.2
			c0.2-0.2,0.2-0.4,0.2-0.9c-0.1-0.1-0.3-0.1-0.4-0.2C473.2,381.7,473,381.6,472.7,381.6z M357.8,386.9c0.2,0,0.5,0,0.7,0
			c0.5-0.3,0.6-0.6,0.6-1.3c-0.1,0-0.1,0-0.2,0c-0.2-0.2-0.8-0.3-1.2-0.3c-0.1,0.1-0.1,0.3-0.2,0.4
			C357.3,386.2,357.5,386.7,357.8,386.9z M471.8,387.1c0.5,0.3,0.8,0.4,1.5,0.3c0-0.5,0.1-1.1,0.1-1.6
			C472.5,385.8,471.8,385.9,471.8,387.1z M467.9,387.3c-0.2-0.2-0.3-0.2-0.7-0.2c-0.1,0.1-0.2,0.2-0.3,0.3c-0.1,0.1-0.1,0.2-0.2,0.3
			c0.4,0.8,0.8,0.7,1.6,0.5C468.4,387.6,468.5,387.5,467.9,387.3z M348.1,388c-0.2,0.2-0.3,0.4-0.5,0.6v0.1c0.2,0.2,0.5,0.5,0.7,0.7
			c0.3,0,0.6,0,0.9,0c0.1,0,0.1,0,0.2,0c0.1-0.2,0.2-0.5,0.3-0.7c-0.3-0.2-0.7-0.5-1-0.7C348.5,388,348.3,388,348.1,388z M358,388.8
			c-0.3,0-0.6-0.1-0.9-0.1c-0.2,0.1-0.3,0.3-0.5,0.4c0,0.3,0.1,0.6,0.1,0.9c0.1,0.1,0.2,0.2,0.3,0.3c0.3,0,0.6-0.1,0.9-0.1
			c0.1-0.1,0.2-0.3,0.3-0.4C358.2,389.5,358.1,389.1,358,388.8z M459.9,389.7c-0.1,0.1-0.2,0.1-0.3,0.2c-0.1,0.3-0.2,0.3-0.2,0.8
			v0.1c0.6,0.4,1.2,0.3,1.6-0.3c-0.1-0.2-0.1-0.5-0.2-0.7C460.5,389.8,460.2,389.7,459.9,389.7z M353.4,390.4
			c-0.4,0.4-0.5,0.7-0.7,1.1c0.1,0.1,0.3,0.2,0.4,0.3c0.3,0.2,0.7,0.2,1.1,0c0.8-0.5,0.3-0.9-0.1-1.4
			C353.9,390.4,353.7,390.4,353.4,390.4z M444.6,394.5c-0.3,0.2-0.7,0.5-1,0.7c-0.1,0.5,0,0.6,0.1,1c0.9,0.2,1.5-0.2,2.1-0.6
			c0-0.3,0.1-0.5,0.1-0.8c-0.3-0.1-0.5-0.3-0.8-0.4C445,394.4,444.8,394.5,444.6,394.5z M433.6,395.9c0.8,0.3,1.4,0.4,1.6-0.8V395
			c-0.4-0.3-0.6-0.4-1.1-0.5C433.7,394.9,433.6,395,433.6,395.9z M416.9,398.9c0.3,0.7,0.6,0.8,1.4,0.5c0-0.3,0.1-0.6,0.1-0.9
			c-0.2-0.1-0.5-0.3-0.7-0.4C417.3,398.4,417.2,398.4,416.9,398.9z M434.2,398.9c-0.1,0-0.1,0.1-0.2,0.1c-0.2,0.3-0.4,0.5-0.2,1
			c0,0.1,0.1,0.3,0.1,0.4c0.4,0,0.7,0.1,1.1,0.1c0.1-0.3,0.1-0.6,0.2-0.9c-0.1-0.2-0.2-0.3-0.3-0.5C434.7,399,434.5,399,434.2,398.9
			z M359.6,400.1c-0.3,0.4,0.2,0.8,0.6,1c0.1,0,0.1,0,0.2,0c0.5-0.2,0.7-0.4,0.9-1V400c-0.3-0.2-0.6-0.3-0.9-0.5
			C360.2,399.7,359.9,399.9,359.6,400.1z M379.8,401.1c-0.1,0-0.1,0.1-0.2,0.1c-0.2,0.5-0.1,0.9-0.1,1.4c0.2,0,0.5,0,0.7,0
			c0.2-0.4,0.3-0.7,0.5-1.1c0-0.1-0.1-0.2-0.1-0.3C380.4,401.2,380.1,401.1,379.8,401.1z M429.6,401.4c-0.1,0.2-0.2,0.4-0.3,0.6
			c-0.2,0.7,0.5,1,1.2,0.8c0.1-0.1,0.2-0.3,0.3-0.4c0-0.7-0.1-0.6-0.4-1C430.2,401.4,429.9,401.4,429.6,401.4z M408.6,402.6
			c0,0.3,0,0.5,0,0.8c0.8,0.4,1.6,0.2,1.5-1.1c-0.3-0.1-0.7-0.2-1-0.3C409,402.2,408.8,402.4,408.6,402.6z M370.1,402.3
			c-0.2,0.2-0.3,0.3-0.5,0.5c0,0.2,0.1,0.5,0.1,0.7c0.4,0.3,0.6,0.3,1.2,0.2c0.1-0.2,0.2-0.3,0.3-0.5c0-0.1,0-0.3,0-0.4
			c-0.2-0.2-0.3-0.3-0.5-0.5C370.5,402.3,370.3,402.3,370.1,402.3z M414.1,402.3c-0.2,0.6-0.3,1,0.1,1.4c0.3,0.2,0.6,0.1,1.1,0
			c0.1-0.3,0.2-0.5,0.3-0.8C415.4,402.3,415,402.3,414.1,402.3z M367.2,402.7c-0.1,0.5-0.2,0.8,0.2,1.1c0.2,0.1,0.4,0.1,0.6,0.2
			c0.2-0.2,0.4-0.5,0.6-0.7c0-0.1,0-0.3,0-0.4c-0.3-0.2-0.4-0.3-0.9-0.4C367.6,402.6,367.4,402.6,367.2,402.7z M423.1,404.5
			c-0.1,0.1-0.3,0.2-0.4,0.3c-0.4,0.2-0.3,0.2-0.5,0.6c0,0.2,0,0.3,0,0.5c0.3,0.1,0.7,0.1,1,0.2c0.1,0,0.1-0.1,0.2-0.1
			c0.1-0.5,0.2-0.8,0.1-1.3C423.4,404.6,423.3,404.6,423.1,404.5z M419.3,405.7c-0.6,0.4-0.8,0.5-0.7,1.3c0.8,0.3,1,0,1.7-0.3
			c0-0.3-0.1-0.5-0.1-0.8C419.9,405.8,419.6,405.8,419.3,405.7z"/>
	</g>
</g>
</svg>
