<?xml version="1.0" encoding="utf-8"?>
<!-- Generator: Adobe Illustrator 21.0.0, SVG Export Plug-In . SVG Version: 6.00 Build 0)  -->
<svg version="1.1" id="Calque_1" xmlns="http://www.w3.org/2000/svg" xmlns:xlink="http://www.w3.org/1999/xlink" x="0px" y="0px"
	 viewBox="0 0 841.9 595.3" style="enable-background:new 0 0 841.9 595.3;" xml:space="preserve">
<style type="text/css">
	.st0{fill:none;stroke:#DADADA;stroke-width:20;stroke-miterlimit:10;}
	.st1{fill:#1D1D1B;}
</style>
<path class="st0" d="M282.7,333.6c0,0,105.4,42.4,218.5,59.5c8.8-31.6,37.7-123.9,37.7-123.9"/>
<g>
	<g>
		<path class="st1" d="M538.8,255.6c-0.1-0.8-0.5-1.4-1.2-1.6c-0.8,0-1.5,0.1-2.3,0.1c-1.7-0.4-3.7-0.5-5-1.3
			c-0.1-0.2,0-0.4,0.3-0.6V252c-0.6,0.2-0.8,0.6-1.4,0.7c-0.2,0.2-2.1-0.6-2.6-0.9c-0.9-0.4-2-0.4-3.2-0.7c-1.1-0.4-2.8-1-3.9-1.4
			c-0.8-0.3-1.3,0-2.2-0.3c-6.6-1.9-13.1-4-19.7-6.3c-0.5,0-1.1-0.1-1.6-0.1c-0.9-0.3-2.5-1-3.5-1.3h-1c-0.4-0.2-0.9-0.7-1.3-0.9
			h-1.2c-1.1-0.3-2.6-0.9-3.6-1.3h-0.9c-2.2-1.1-5.5-1.9-7.9-2.7c-0.7-0.3-1.3,0-2-0.3c-3-1.1-7.2-2.4-10.5-3.3
			c-1.5-0.4-2.9,0.1-4.3-0.3c-5.3-1.5-11.5-3.2-16.7-4.7c-2.5-0.8-5.1-0.8-7.2-1.9c-0.7,0.2-1.4-0.3-2-0.4c-2.1-0.6-4.1-0.4-6.2-1.2
			c-2.6-0.9-5.7-1.9-8.2-3c-0.3-0.1-0.6,0.2-0.7,0.1c-0.1-0.1-0.2-0.3-0.3-0.4c-0.5-0.2-1.5,0-1.7-0.1c-0.5-0.2-1.2-0.7-1.9-0.9
			c-0.6,0-1.2-0.1-1.9-0.1c-3.7-1.1-8-2.5-11.5-3.9c-2.5-0.9-5.1-1.3-7.3-2.3c-0.7-0.1-1.3-0.2-2-0.3c-2.7-1.5-6.3-2-9.4-3.2
			c-3-1.2-6.6-2.3-9.5-3.7c-1.4-0.7-2.8-0.6-4.3-1.2c-1.2-0.5-2.8-1.4-4-1.9h-1c-3.4-1.4-7.1-3.1-10.2-4.7c-1.1-0.6-2.6-0.5-3.7-1
			c-0.5-0.2-1-0.8-1.4-1c-0.8-0.3-1.5-0.1-2.3-0.4c-0.9-0.4-1.8-1.3-2.7-1.6h-1c-2.2-0.8-4.5-2.1-6.3-3.2c-0.5-0.1-1.1-0.2-1.6-0.3
			c-1.6-0.9-5.8-2.3-6.3-4c-0.7,0-1,0.1-1.4,0.3c0.1,0.7,0,0.5,0.6,0.4c-0.2,0.4,0,0.2-0.4,0.3c-0.1,0.6-0.3,0.6-0.4,1
			c0,0.1,0.1,0.3,0.1,0.4c-0.2,0.6-0.5,2.1-0.7,3v1.6c-0.4,1.2-0.6,2.5-1,3.7c0,0.7-0.1,1.3-0.1,2c-0.5,1.5-1.3,3.5-1.7,5
			c-0.4,1.2-0.1,2.3-0.6,3.5c-1.4,3.6-2.3,6.1-3.7,9.5c-0.2,0.5-0.1,1-0.3,1.6c-0.7,1.9-1.9,4.3-2.7,6.2c-1,2.6-1.7,5.2-2.7,7.6
			c-0.4,0.9-0.2,1.5-0.6,2.4c-0.6,1.7-1.5,3.8-2,5.6c-0.3,1-0.2,1.5-0.6,2.4c-1.2,2.7-2.3,6-3.5,8.8c-0.5,1.1-0.4,2.1-0.9,3.2
			c-3,7.4-5.6,15.3-8.8,22.4v0.7c-0.5,1.3-1.4,2.6-1.9,3.9c-0.1,0.5-0.2,1-0.3,1.4c-1.9,3.8-3.7,8-5.5,11.9
			c-0.4,0.8-0.3,1.4-0.6,2.3c-1,2.8-1.9,6-3.2,8.6c0.1,0.4-0.3,1.6-0.6,2.2c-1.1,2.2-2,4.9-3.3,7.1c-0.1,0.1-0.4,0.7-0.6,0.9
			c-0.2,0-0.4,0.1-0.6,0.1c-0.1,0.2-1.1,3-1.2,3.3l1.7,1.7c0.8,0.5,1.6,0.5,2.6,0.9c1.7,0.7,3.5,1.8,5.5,2.4
			c0.8,0.1,1.6,0.3,2.4,0.4c0.4,0.2,0.6,0.7,0.9,0.9h0.9l1,1h0.7c0.1,0.2,0.3,0.4,0.4,0.6c0.9,0.6,1.8,0.8,2.7,1.4l1,1
			c0.8,0.4,1.6,0.4,2.3,0.9c0.5,0.4,1.1,1.1,1.7,1.4c0.7,0.4,1.3,0.4,2,0.7c0.3,0.1,0.6,0.6,0.9,0.7h1.2c0.2,0.1,1.6,0.8,1.9,1
			c0.1,0.2,0.2,0.4,0.3,0.6c0.3,0,0.7-0.1,1-0.1c0.4,0.1,0.8,0.7,1.2,0.9c0.8,0.4,1.5,0.4,2.3,0.7c0.8,0.3,1.6,1.1,2.3,1.4
			c0.8,0.4,1.5,0.2,2.3,0.6c1.1,0.6,2.5,1.4,3.7,1.9c0.7,0.1,1.3,0.2,2,0.3c1.5,0.5,3.1,1.1,4.6,1.6c0.6,0,1.2,0.1,1.7,0.1
			c0.1,0.1,0.2,0.3,0.3,0.4l2.2,0.4c0.7,0.2,1.7,0.8,2.3,1h1.3c1.6,0.5,3.7,1,5.3,1.6c0.6,0.2,1.7,0,2.2,0.3
			c0.1,0.2,0.2,0.4,0.3,0.6c0.9,0.1,1.8,0.2,2.7,0.3c0.3,0.1,0.7,0.6,1,0.7c1,0.4,2,0.2,2.9,0.7c0.1,0.1,0.2,0.3,0.3,0.4
			c0.5,0.2,1.1-0.3,1.6-0.1c0.8,0.2,1.8,0.8,2.6,1c0.7,0.2,1.3,0,1.9,0.3c0.4,0.2,1,0.7,1.4,0.9c0.6,0.1,1.2,0.2,1.9,0.3
			c0.6,0.2,1.5,0.8,2.2,1c0.9,0.3,1.7,0,2.4,0.4c0.1,0.2,0.2,0.4,0.3,0.6c0.5-0.6,3.7,0.4,4.6,0.7c0.4,0.1,1.6,0.5,2,0.6
			c0.4,0,0.9-0.1,1.3-0.1c0.5,0.1,0.9,0.6,1.3,0.7h1.3c0.2,0,0.6,0.4,0.7,0.4c0.4,0.1,1.1-0.2,1.3-0.1c0.2,0.1,0.6,0.5,0.9,0.6
			c1,0.4,2.3,0.5,3.2,0.9c0.9,0.3,2.5,0.1,3.3,0.4c0.2,0.1,0.5,0.5,0.7,0.6c1.3,0.5,2.4,0.2,3.6,0.7c1,0.4,1.9,1.1,3.2,1.4v0.3
			c-0.6,0.3-0.9,0.8-1.7,0.9v0.4c0.9-0.4,1.7-1.1,2.6-1.3c0.5-0.2,1.3,0.3,1.9,0.4c1.8,0.5,3.2,1.1,4.7,1.7c0.3,0,0.7,0.1,1,0.1
			c0.1,0.1,0.2,0.5,0.3,0.6h1.3c0.6,0.2,1.3,0.8,1.7,1.2c0.1,0.2,0.1,0.2,0,0.4c0.2,0.4,0,0.2,0.4,0.3v-0.6c1.3,0.1,2.5,0.7,3.6,1
			c0.6,0,1.2,0.1,1.7,0.1c3.3,1,5.5,1.5,8.5,2.6h1.7c1.1,0.3,2.9,0.6,3.7,1.3h0.1c0.3,0.1-0.3,0.1-0.3,0.1v0.4
			c1.5-0.5,3.2-1,4.7,0.1c0.4,0.2,0.4,0.5,0.6,0.9c0.4-0.2,0.2-0.1,0.3-0.6c0.7,0.2,0.7,0.2,1.3,0.3c0.2,0,0.5-0.1,0.7-0.1
			c3.5,0.7,7,1.2,10.2,2.3c1.4,0.5,2-0.1,3.5,0.3c2.1,0.6,3.7,0.9,6,1.6h2.4c1.2,0.4,2.9,0.7,4.2,1c0.9,0.2,1.9,0,2.4,0.1
			c1.8,0.5,4,1.2,5.9,1.7c0.7,0.2,1.1-0.1,1.3-0.1c0.5-0.1,1.3,0.5,1.7,0.6h1c0.4,0.1,0.9,0.6,1.3,0.7c0.7,0.2,1.4-0.3,2-0.1
			c0.3,0.1,0.8,0.6,1.2,0.7c0.8,0,1.5,0.1,2.3,0.1c0.9,0.3,2.3,0.9,3.3,1.2c1.2,0.3,2.7-0.2,3.6,0c0.9,0.2,1.6,0.8,2.7,1
			c0.4,0.1,0.7-0.3,1-0.3c2.8,0.5,5.4-0.1,8.3-0.3c0.4-1.1,0.5-1.8,1.2-2.6c0.4-0.3,1.3-0.3,1.7-0.6c0.1-0.1,0.1,0,0.1-0.3h-0.1
			c-0.1-0.1-0.9,0-1.2-0.3c-0.3-0.3,1-2.4,1.3-2.7c0.2-0.1,0.2,0,0.4,0.1h0.3c-0.1-0.4-0.2-0.5-0.6-0.7c0-2.2,0.9-3.5,1.4-4.9v-1
			c0.1-0.4,0.5-1.2,0.7-1.7c0-0.2-0.3-0.5-0.1-0.9c0.2-0.5,0.6-0.5,0.6-1.4c0.5,0.1,1,0.3,1.4,0.4h1V366c-0.6-0.2-1.5-0.4-2.2-0.4
			c0.1-2.3,1.7-4.5,1.3-6.8c0,0,0.1-0.1,0.1-0.1l0.6,0.6h0.3c-0.2-0.5-0.5-0.9-0.9-1.2c0.4-1.6,0.8-3.3,1.3-5c0-0.5,0.1-1.1,0.1-1.6
			l1-1v-1c0.1-0.3,0.6-1.1,0.7-1.4c0.2-0.7-0.3-1,0-1.7c0.9-2.1,1.8-4.2,1.9-6.8h0.4c0,0,0.1-0.1,0.1-0.1c-0.1-0.5,0.1-0.4-0.3-0.6
			c0.5-1.4,1.5-3,1.9-4.6c0.2-1,0.6-2.4,0.9-3.6v-1.2c0.2-0.7,0.8-1.4,0.6-2.2c0.4,0.1,0.6,0.2,0.9,0.4h0.3
			c-0.2-0.5-0.3-0.6-0.9-0.7c0.2-0.9,0.3-1.8,0.6-2.7c0.1-0.5-0.2-1.5-0.1-1.7l0.6-0.6c-0.4-0.8,0.3-1.7,0.3-2.9h0.4
			c0.1-0.4-0.1-0.9,0-1.3c0.1-0.4,0.7-0.9,0.9-1.3c0.2-0.5-0.1-1.3,0-1.4c0.8-1.8,1.8-4,2.3-6c0.2,0,0.5,0.1,0.7,0.1
			c-0.1-0.4-0.3-0.4-0.4-0.9c0,0,0.1-2.1,0.3-2.4l0.7-0.7c0.4-0.8,0.3-1.5,0.6-2.4c0.3-0.8,0.8-1.7,1-2.6h0.6
			c-0.6-3.7,1.9-6.1,1.6-10.1c0.5,0.1,1,0.2,1.4,0.3c-0.2-0.5-0.6-0.6-1-0.9c0.5-1.3,1.4-2.3,1.7-3.7c0.5-0.1,0.2,0,0.7,0
			c-0.1-0.5-0.1-0.5-0.4-0.7c0.1-2.2,2.2-6.1,3.2-7.5c0.5-0.7,0.3-1.7,0.7-2.6c0.1,0,0.2-0.1,0.3-0.1v-0.9c0.2-0.1,0.4-0.3,0.6-0.4
			v-0.9c0.5-1.1,1.6-2.2,2.2-3.3v-0.7c0.1-0.2,0.4,0,0.6-0.1v-0.1l-0.1-0.1c0.2-1.1,0.8-2.3,1.2-3.2c0-0.4,0.1-0.8,0.1-1.2
			c0.1,0,0.3-0.1,0.4-0.1c0.2-0.3,0.1-0.8,0.3-1.2c0.1,0,0.3-0.1,0.4-0.1c0-0.1-0.1-0.3-0.1-0.4c0.2-0.7,0.8-1.1,0.9-2.2
			C536.6,258.3,537.6,256.8,538.8,255.6z M333.8,193c1.2,0.6,2.4,1.4,3.7,1.7v0.4c1.3,0.1,1.7,0.7,2.6,1c1.1,0.4,2.3,0.3,3.3,0.7
			c1.9,0.8,4,1.9,5.9,2.7c1.9,0.8,4.1,1,5.6,2.2c0.2,0.3,0,0.2,0,0.6c1.9-0.4,6.1,2,8.1,2.9c1.2,0.5,2.1,0.5,3.5,1
			c4,1.4,8.3,3.1,12.2,4.7c0.6,0.3,1.1,0,1.7,0.3c1.2,0.5,2.7,1.3,3.9,1.7c0.7,0.2,1.5,0.2,2,0.6h0.9c-0.1,0.2,0,0.1-0.1,0.3
			c0.4,0.2,1.1,0.1,1.6,0.3c1.5,0.6,3.8,1.4,5.6,2c0.5,0,1,0.1,1.4,0.1c3.8,1.4,7.6,2.8,11.5,4c1.6,0.5,3.1,0.8,4.6,1.3
			c0.7,0,1.3,0.1,2,0.1c4.8,1.5,9.8,3.3,14.5,4.9c1,0.3,2.1,0.5,2.9,0.7c0.2,0,0.9-0.2,1.4,0c6.1,1.9,13,3,18.9,5.2h1.3
			c0.8,0.2,1.6,0.3,2.6,0.6c1.9,0.6,4.4,1.5,6.6,1.9c0.9,0.2,1.7-0.2,2.9,0.1c3.4,1,7.3,2.3,10.6,3.5c2.3,0.8,4.4,0.9,6.6,1.7
			c1.7,0.6,3.6,1.5,5.3,2h1.2c0.9,0.3,1.3,0.7,2.6,0.7c-0.1,0.3,0,0.3-0.1,0.4v0.3c1.6-0.3,2.4,0.3,3.9,0.7c1.3,0.4,2.6,0.3,3.9,0.9
			c1.3,0.6,3.2,1.3,4.6,1.7c3,0.9,6.9,2.2,10.6,3.5c0.7,0.1,1.3,0.2,2,0.3c2.2,0.7,4.9,1.4,7.1,2.2c0.8,0.1,1.5,0.2,2.3,0.3
			c0.7,0.3,1.8,0.9,2.6,1.2c0.8,0.3,1.3,0,2.2,0.3c0.4,0.1,0.9,0.7,1.3,0.9c0.4,0.1,0.9,0,1.2,0.1l0.1,0.1h-0.1
			c-0.2,0.6-0.3,0.4-0.6,0.9c-0.4-0.1-0.2-0.2-0.7-0.3v0.7c-0.2,0-0.5,0.1-0.7,0.1c-0.2,0.1-0.1,0.6-0.3,0.7c-0.4,0.4-1,0.1-1.4,0.4
			c-0.5,0.3-0.7,1-1.2,1.3c-0.4,0.3-0.9,0.3-1.3,0.6c-0.3,0.2-0.6,0.8-0.9,1c-0.3,0.2-0.7,0.1-1,0.3c-0.6,0.4-0.9,1.2-1.4,1.7
			c0-0.1-0.4-0.2-0.6-0.1c-0.6,0.3-1.2,1.4-1.9,1.9c-1.9,1.3-4,2.4-6,3.6c-0.8,0.5-1.8,0.5-2.6,1l-1,1c-0.6,0.4-1.2,0.5-1.9,0.9
			l-0.6,0.6h-0.7c-0.5,0.2-1,1-1.6,1.3c-2.1,1-4.5,1.7-6.3,2.9c-0.6,0.4-1.4,1-2,1.3c-0.5,0.1-1,0.2-1.4,0.3
			c-1.5,0.6-2.9,1.8-4.6,2.6c-1.3,0.6-2.5,0.7-3.9,1.3c-0.6,0.3-1.3,0.9-1.9,1.2c-0.7,0.1-1.3,0.3-2,0.4l-2.2,1.3
			c-0.6,0-1.2,0.1-1.7,0.1c-0.5,0.2-1.2,0.8-1.7,1H478c0,0.1-0.1,0.3-0.1,0.4c-1,0.8-2.5,0.8-3.7,1.4c-0.8,0.4-1.3,1.1-2.2,1.4
			c-0.7,0.3-1.2,0.2-1.9,0.4c-1.5,0.7-3.1,1.6-4.6,2.3c-0.4,0-0.8,0.1-1.2,0.1c-0.8,0.3-1.5,1-2.3,1.3c-0.3,0-0.7,0.1-1,0.1
			c-1,0.5-2.1,1.4-3.2,1.9c-1,0.4-1.8,0.4-2.9,0.9c-0.6,0.2-1.3,0.9-1.9,1.2c-1.8,0.8-3.3,1.2-5,2c-0.3,0.1-0.7,0.6-1,0.7h-0.9
			c0,0-0.5,0.7-0.6,0.7c-0.8,0.2-1.5,0.5-2.3,0.7c-1.4,0.7-3.1,1.6-4.6,2.3c-6.9,3.1-13.8,6.1-20.9,8.9c-0.6,0-1.2,0.1-1.9,0.1
			c-1,0.3-4.6,1.6-5.6,0.9c-0.9-0.2-1.6-1.8-2.2-2.4c-0.8-1-1.9-1.9-2.7-2.9c-0.4-0.5-0.3-1-0.9-1.4v-0.3c0.3,0.1,0.4,0.2,0.9,0.3
			v-0.3c-0.5-0.2-1.1-0.3-1.4-0.6c-0.6-0.5-0.8-1.4-1.3-2c-0.9-1.3-2.3-2.5-3.2-3.7c-0.1-0.4-0.3-0.8-0.4-1.2
			c-0.7-1.1-1.7-1.7-2.3-2.9c-0.2-0.2,0.3-0.6,0.6-0.7v-0.3c-0.3,0.1-0.4,0.2-0.6,0.4c-1-0.2-0.8-0.8-1.3-1.4
			c-1.1-1.5-2.3-2.8-3.5-4.3c-0.7-0.9-1.8-1.6-2.4-2.6c-2.4-3.6-4.8-7.2-6.9-11.1c-0.2-0.4-1-0.8-1.3-1.2c-1.2-1.4-3.6-3.7-3.3-5.9
			c-0.3,0.1-0.3,0.1-0.6,0.3c-0.6-0.9-1-1.7-1.6-2.7l-1-1v-1c-0.1-0.2-0.7-0.2-0.9-0.4c-0.2-0.4-0.3-1.5-0.6-1.9
			c-0.3-0.4-0.9-0.9-1.2-1.3c-0.1-0.3-0.2-0.7-0.3-1c-0.6-1-1.6-2-2.3-3c-0.1-0.4-0.3-0.8-0.4-1.2l-1-1c-0.2-0.4-0.1-0.7-0.3-1
			c-0.3-0.5-0.9-1-1.2-1.6c0-0.3-0.1-0.6-0.1-0.9c-0.3-0.3-0.8-0.6-1-1v-0.7l-0.6-0.6c-0.3-0.7-0.1-1.1-0.4-1.7
			c-0.3-0.6-1.1-1.3-1.4-1.9c-0.2-0.4-0.1-0.7-0.3-1c-0.2-0.2-0.5-0.4-0.7-0.6c0-0.2,0.1-0.5,0.1-0.7c-0.4-0.8-1.3-1.8-1.7-2.6
			c-0.5-0.9-0.7-1.7-1.2-2.4c-0.5-0.8-0.3-1.5-1.3-1.7v-0.9c-0.8-0.7-1.2-1.8-1.7-2.7c-0.2-0.3-0.7-0.5-0.9-0.7
			c0-0.2-0.1-0.5-0.1-0.7c-0.3-0.5-1-1-1.3-1.4c-0.7-1-0.8-2.3-1.4-3.3l-0.7-0.7c-0.8-1.6-1-3.1-1.7-4.7c-0.1-0.2-0.5-0.5-0.6-0.7
			c-0.4-0.8-0.2-1.5-0.6-2.3c-0.3-0.7-1-1.8-1.3-2.6c-0.3-0.6-0.1-1.2-0.4-1.7c-0.1,0-0.3-0.1-0.4-0.1c0-0.1,0.1-0.3,0.1-0.4
			c-0.3-0.7-1-1.5-1.3-2.2v-0.6c-0.2-0.4-0.8-0.9-1-1.3c-0.5-0.8-0.5-1.5-1-2.3l-1.3-1.3c0-0.3-0.1-0.7-0.1-1
			c-0.5-0.9-1.3-1.7-1.9-2.6c-0.6-1-0.9-2-1.6-3c-1-1.4-2.3-2.7-3.5-4c-0.6-0.6-0.8-1.6-1.7-1.9V193z M283.1,319h-0.4
			c1.5-3.2,2.9-6.4,4.5-9.5c0.2-1,0.5-2,0.7-3c0.6-1.7,1.4-3.6,2-5.3c0.3-0.9,0.2-1.6,0.6-2.4c1.2-3.2,2.8-6.4,4.2-9.5
			c1.1-2.4,1.8-4.7,3-6.9c0.5-0.9,0.2-2,1.4-2.3c-0.3-1.7,0.9-3,1.4-4.6c1.5-3.9,2.7-7.7,4.3-11.4c0.7-1.6,0.7-3.2,1.3-4.7
			c2-5.3,4.2-10.9,6.2-16.3c1.4-3.9,2.2-8,3.9-11.7c0.7-1.5,0.6-2.9,1.3-4.5c0.4-1,1.3-2.1,1.6-3c0.2-0.7,0-1.2,0.3-1.7
			c0.2-0.5,0.8-1.2,1-1.7c0.2-0.5,0-0.8,0.3-1.2c0.1-0.1,1.2,0,1.7,0c-0.3-0.4-1-0.5-1.4-0.3l-0.1-0.1c0.2-1,0.8-1.9,1.2-2.7
			c0-0.4,0.1-0.9,0.1-1.3c0.5-1.2,1.2-2.7,1.7-3.9c0.8-2.1,0.6-3.7,1.3-5.8c1.5-4.6,2.7-9.1,3.2-14l0.1-0.1
			c4.4,2.9,8.7,8.2,11.1,13.1h0.1c0.3,0.1-0.3,0.1-0.3,0.1c0.2,0.8,0.8,0.5,1.2,1c0.3,0.5,0.1,1.1,0.4,1.6c0.2,0.1,0.4,0.2,0.6,0.3
			l0.4,1.3c0.6,0.7,1,1.6,1.6,2.4c0.1,0,0.3,0.1,0.4,0.1v0.7c0.2,0.4,0.8,0.8,1,1.2c0.8,1.4,1,2.8,1.6,4.5c0.8,2.2,2.1,4.7,3,6.9
			c0.5,1.1,0.4,2.1,1,3c0.7,1.2,1.8,2.5,2.4,3.7c0,0.3,0.1,0.6,0.1,0.9c0.4,0.7,1.1,1.5,1.6,2.2c0,0.2,0.1,0.5,0.1,0.7
			c0.8,1.1,2.1,2.3,2.7,3.6c0.4,0.9,0.5,1.5,1,2.3l0.7,0.7c0.7,1.3,0.9,2.6,1.6,3.9c0.8,1.4,2.1,2.9,2.7,4.3c0.2,0.5,0,1,0.3,1.4
			c1.4,2,2.4,4.4,3.7,6.5c1.4,2.2,3.2,4.4,4.6,6.6c0.9,1.4,1.3,2.9,2.2,4.5c0.3,0.6,1.1,1.2,1.4,1.7c0.4,0.6,0.5,1.4,1,1.9
			c-0.2,1.1-1,0.8-1.7,1.3c-0.9,0.6-1.8,1.6-2.7,2.2c-0.5,0.1-1,0.3-1.4,0.4c-2,1.3-3.9,2.6-6,3.9c-0.5,0.3-0.9,0.9-1.4,1.2
			c-2.8,1.4-5.8,2.3-8.5,3.9c-11.7,7.1-25,12.7-37.4,19.1c-1.1,0.6-2.2,0.6-3.3,1.2c-2.6,1.4-5.8,2.7-8.5,4
			c-0.9,0.5-1.8,0.5-2.7,0.9c-1,0.4-2.1,1.2-3.2,1.6c-0.4,0-0.9,0.1-1.3,0.1l-0.9,0.9c-1.8,0.9-3.5,1.2-5.3,2.2
			c-1,0.5-2.1,1.3-3.2,1.7c-0.3,0-0.7,0.1-1,0.1c-0.7,0.3-1.5,1.1-2.3,1.3C284.8,318.5,283.9,318.4,283.1,319z M487.2,380.2
			c0.2-0.6,0.3-1.3,0.6-1.7c-0.1-0.7-0.3-0.6-0.7-1c-0.8,0.1-0.8,0.4-1.3,0.7c-0.1,0.7,0,0.9,0,1.7c-0.4,0-5-0.8-5.2-0.9h-0.3
			c0.5-0.4,0.9-1,1.4-1.3c0-0.9,0-1.5-0.3-2c-0.9,0-1,0.2-1.6,0.6c-0.5,1.2-0.4,1.3-0.1,2.4c-0.9,0-4.1-0.7-4.5-1
			c-0.3-0.2-0.1,0.1-0.3-0.3c-0.1-0.4,0.5-0.7,0.1-1.3c0-0.5,0-1.1-0.1-1.4c-0.6,0-0.9,0-1.2,0.3c-0.7,0.5-0.4,1.5-0.9,2.3v0.3
			c-0.5,0-4.2-0.7-4.5-0.9h-1.3v-0.3h0.9c0.1-0.6,0.3-1.2,0.6-1.6c0.1-1.5-0.2-1.4-1-2c-0.3,0.2-0.6,0.5-0.9,0.7
			c-0.2,0.4-0.3,1.5-0.3,2.6c-1.6-0.1-2.8-0.7-4-1.2c0.1-0.8,0.3-0.8,0.4-1.4c0.3,0,0.7,0.1,1,0.1v-0.3c-0.6-0.3-1-0.6-1.3-1.2
			c-1,0-1.4,0.1-1.6,0.9h-0.4c0.1,0.9,0.1,0.8,0,1.6c-1.5-0.1-3-0.9-4.5-1c0.1-0.7,0.1-0.6,0.6-0.9c0.1-0.6,0.3-1.1,0-1.6
			c0-0.1-0.1-0.3-0.1-0.4c-2,0-1.8,1.4-2.2,2.7c-1.8-0.2-3.6-1-5.5-1c0.3-0.6,1.5-2,1-2.7c-0.2-0.7-0.7-0.6-1-1
			c-0.7,0.1-0.9,0.2-1,0.9c-0.2,0.3-0.1,1.8,0,2v0.6c-1.4-0.5-4.1-0.4-5.3-1.2c-0.1,0-0.3-0.1-0.4-0.1c0.1-1,0.4-2,1-2.4
			c-0.1-0.7-0.2-0.8-0.4-1.3c-0.4,0-0.6-0.1-0.7,0c-0.7,0.3-1.1,1.2-1.2,2.2c-0.3-0.1-0.3,0-0.4-0.1H440c0.2,0.4,0.4,0.6,0.7,0.9
			v0.3c-0.9-0.1-4.3-1-4.9-1.4h-0.3c0.1-0.9,1.3-2,0.7-2.9c-0.1-0.3-0.3-0.4-0.4-0.7c-1,0.1-2,2.1-2.2,3c-0.9-0.2-3.5-0.8-4.2-1.3
			c-0.2-0.2-0.2-0.1-0.3-0.4c-0.3-0.5,0.5-1.3,0.9-1.6c0-0.9-0.2-0.9-0.4-1.4c-1.2,0-1.6,0.6-2,1.4c-0.1,0.2-0.2,1,0,1.3v0.3
			c-2.1-0.3-4-1.4-6-1.9c0.5-1.2,0.4-2.2,0.4-3.3c-0.3,0-0.4,0-0.6-0.1c-0.7,0.1-0.7,0.4-1.2,0.7c-0.1,0.7-0.3,1.3-0.3,2.3
			c-1.4,0-4.2-0.5-4.9-1.2h-0.3c0.2-0.6,0.6-1.3,0.6-1.7c0-0.9-0.6-1.2-0.1-1.7v-0.6c-0.6,0.2-0.3,0.6-0.7,0.9
			c-0.2,0.1-0.6,0-0.7,0.1c-0.5,0.4-0.4,1.2-0.7,1.7c-1.2,0.9-3.1,0.2-4.5,0c0.2-0.8,1.4-2.8,0.7-3.7v-0.3c-0.4,0-0.9-0.1-1.3-0.1
			c-0.3,1.4-0.8,2.1-0.9,3.6c-1.1-0.1-4.1-0.7-4.7-1.3c0-0.2,0-0.3,0.4-0.4v-0.4c-0.5,0.1-0.6,0.2-0.9,0.6h-0.3c0-0.4,0-0.9,0.1-1.2
			c0-1.5-0.2-1.8-0.7-2.6c-1.6,0.1-1.2,1.8-1.2,3.3c-1.7-0.3-3.2-0.9-4.7-1.3c0.3-0.5,0-1.3,0.1-1.6c0.1,0,0.3-0.1,0.4-0.1
			c0.1-0.3-0.3-1-0.4-1.2c-0.2-0.2-0.1-0.2-0.4-0.3c-0.3-0.1-1.1,0-1.4,0.3l-0.6,0.6c0.1,0.5,0.3,0.7,0.6,1
			c-0.3,0.4-0.3,0.2-0.3,0.7c-1.3-0.3-4.4-0.6-5-1.2c0,0,0.9-2.3,1-2.4c-0.1-0.7-0.5-0.7-0.9-1.2c-1.5,0.1-1.3,2-2,2.9
			c-0.3,0.1-3-0.6-3.2-0.7c-0.3-0.8,1.3-2.1,0.6-3.2c-0.2-0.4-0.6-0.5-1-0.6c-0.8,1-1.1,2-1.4,3.3c-1-0.1-3.9-0.9-4.6-1.4
			c-0.4-0.6,0.7-1.8,0.7-2.9c-0.2-0.2-0.4-0.5-0.6-0.7c-0.3,0-0.4,0-0.6,0.1c-0.8,0.4-1.4,1.6-1.4,2.7c-1.9-0.1-2.8-1.1-4.2-1.6
			c0-0.7,0-1.2,0.4-1.6c0-0.9-0.2-1.1-0.7-1.4c-0.2-0.1-0.7,0.1-1-0.1c-0.3,0.6-0.1,1.7-0.6,2.4c0,0.1-0.1,0.3-0.1,0.4
			c-1-0.1-3.5-0.5-4.2-1c-0.1,0-0.3-0.1-0.4-0.1c0.1-0.7,1-1.4,0.4-2.2v-0.4c-0.4-0.1-0.8-0.2-1.2,0c-0.6,0.2-1,1.5-1.3,2
			c-1,0-4.4-0.5-5-1.2c0,0-0.1-0.1-0.1-0.1c0.2-0.2,0.2-0.1,0.3-0.4h0.4c0.2-1,0.9-1.9-0.1-2.6c-0.1-0.1,0-0.1-0.3-0.1
			c-0.6,0.6-1.1,0.5-1.3,1.6c-0.3,0-0.6-0.1-0.9-0.1c0.2,0.8,0.4,0.5,0.3,1.4c-1.3-0.2-2.6-0.5-3.9-0.7c0,0-0.1-0.1-0.1-0.1
			c0.1-1.5,0.6-2.3,1.2-3.2c-0.3-0.2-0.6-0.5-0.9-0.7c-0.7,0.1-0.9,0.4-1.4,0.6c-0.2,0.9-0.7,1.6-0.7,2.9c-1-0.1-4.6-1-5.3-1.4
			c-0.1-0.1,0.4-1.6,0.7-2c-0.1-0.9-0.4-0.7-0.9-1.2c-0.5,0-0.7,0.1-1,0.3c-0.2,0.4,0,1.1-0.3,1.7c-0.1,0.3-0.4,0.4-0.6,0.9
			c-1.4-0.5-3.5-0.2-4.6-1c-0.3-0.3,0.9-1.1,1.2-1.3c0-0.8-0.3-1.2-0.4-1.9c-0.2-0.1-0.1,0-0.3-0.1c-1.5,0-1,0.6-1.4,1.6
			c-0.2,0.4-0.6,0.8-0.9,1.3c-1-0.1-4.3-0.9-4.9-1.4h-0.1c0.3-0.6,1.2-1.1,1-1.7c0-0.5,0-0.9-0.1-1.2c-0.2-0.1-0.1,0-0.3-0.1
			c-1.9,0.1-1.2,1.5-2.3,2.2c-1.1,0.7-4.7-0.9-5.2-1.4h-0.1c0.2-0.5,0.8-1.3,1.2-1.6c0-1.1-0.3-1.1-0.7-1.7h-0.7
			c0,0-1.3,2.4-1.4,2.6c-1.4-0.1-2.4-0.8-3.7-0.9c0.2-0.5,0.7-1.7,1.2-2c0-0.8-0.2-0.9-0.4-1.4c-0.2-0.1-0.1,0-0.3-0.1
			c-1.3,0.1-1.3,1.7-2,2.4c-0.6,0.3-3.2-0.9-3.6-1.4c0-1.1,1.5-1.7,0.6-3.6c-1.8,0.1-1.6,1.5-2.3,2.6c-1.1-0.1-3.2-1-3.7-1.7
			c-0.4-0.2,1.5-1.5,1-2.4c-0.2-0.5-0.3-0.4-0.6-0.7c-1.3,0.2-1.5,1.5-2.3,2.2c-0.2,0.1-3-1.2-3.3-1.6c0,0,0.8-1.4,1-1.7
			c-0.1-0.8-0.3-0.9-0.6-1.4c-1.3,0.1-1.7,1.2-2.2,2.2c-0.9-0.1-2.4-1.1-2.9-1.7c-0.1-0.3,0.3-1.4,0.6-1.7c0-0.9-0.1-1.1-0.4-1.6
			c-1.4,0.1-1.4,1.1-1.9,2c-1.3-0.3-2.6-1.5-4-1.7c0.1-0.7,0.3-1.1,0.7-1.4c-0.1-1.1-0.5-1-1-1.6c-1.2,0-1.2,1.1-1.4,2
			c-1.5-0.2-2.7-1.3-3.9-2c0.3-1.3,3.2-1.6,4.3-2.2c0.8-0.4,1.9-1.4,2.9-1.7c0.9-0.3,1.6-0.2,2.3-0.7c0.7-0.4,1.7-1.3,2.4-1.6
			c0.9-0.4,1.6-0.3,2.4-0.7c4.3-2.2,8.8-3.9,13.5-5.8c0.8-0.3,1.7-1,2.4-1.4c0.7-0.4,1.4-0.4,2.2-0.7c0.7-0.3,1.6-1.1,2.3-1.4
			c2.5-1.3,5.5-2.6,8.1-3.7c2.4-1.1,4.7-2.1,6.8-3.5c0.4,0,0.8-0.1,1.2-0.1c0.8-0.4,2.3-1,2.9-1.7c0.3,0.2,0.3,0.2,0.7,0.3V295
			c6.9-3.9,14.5-6.9,21-11.2c0.4-0.1,0.9-0.2,1.3-0.3c0.5-0.3,1.1-0.9,1.6-1.2c1.5-0.8,2.8-1.1,4.2-2c0.3-0.2,1.4-0.9,1.6-1.2
			c0.2-0.2,0.2-0.6,0.4-0.7c0.6-0.4,1.1-0.3,1.7-0.6c1-0.5,2.2-1.1,3.2-1.7c0.2-0.2,0.4-0.5,0.6-0.7c0.6-0.4,1.3-0.5,1.9-0.9
			c1.7,0.3,3.6,4.2,4.5,5.8c0.2,0.1,0.4,0.3,0.6,0.4c0.4,0.5,0.5,1.2,0.9,1.7l1.2,1.2c1.6,2.7,3.1,5,5.2,7.2c0.2,0.3,0.2,0.7,0.4,1
			c1.2,1.3,4.9,4.9,5,6.9h0.4c0.3,0.3,0.8,0.5,1,0.9c0.3,0.4,0.3,0.9,0.6,1.3c0.2,0.3,0.7,0.3,0.9,0.6c0.4,0.5,0.4,1,0.7,1.6
			c0.3,0.5,0.9,0.8,1.2,1.3v0.6c0.1,0.2,0.6,0.3,0.7,0.4c0.5,0.5,0.6,1,1,1.6c0.3,0.3,0.7,0.6,1,0.9c0.3,0.5,0.3,1,0.6,1.6
			c0.2,0.3,2.1,2.3,2.4,2.4c-0.1,0.7-0.2,0-0.6,0.4c-0.2,0.2-0.1,0.8-0.3,1c-0.4,0.2-0.8-0.4-1.4-0.1c-0.2,0.1-0.2,0.2-0.7,0.3
			c0,0.3,0,0.4,0.1,0.6c0.2,0.6,0.5,0.5,0.9,0.9c1.4,0,2.3-1,3.2-1c1.2,0.4,1.4,1.7,2.9,1.9c-0.3,0.3-0.6,0.7-0.9,1v0.4
			c0.5,0.1,1,0.4,1.4,0.1h0.4c0.1-0.2,0-0.1,0.1-0.3c0-0.9-0.2-1.1-1-1.2c0.5-0.3,3-0.3,4-0.6c1.2-0.4,3.1-0.6,4.2-0.9
			c0.5-0.1,1.3-0.8,1.9-1c1-0.4,2-0.4,2.7-1h0.3c-0.3,0.5-0.6,0.9-0.1,1.4c0.3,0.2,0.7,0.4,1,0.1c0.1,0,0.3-0.1,0.4-0.1
			c0-0.9-0.1-1.4-0.7-1.7c1-1,4.6-1.9,6.2-2.6c0.5-0.2,1.5-1,2-0.7c0.4-0.2,0.2,0,0.3-0.4c0.6-0.1,1.2-0.3,1.6-0.6h0.4
			c-0.1,0.5,0,0.4,0,1c0.2,0.1,0.1,0,0.3,0.1c0.7,0,1-0.1,1.4-0.3c0-0.8-0.2-1.1-0.6-1.4c1.3-1.4,3.8-1.7,5.6-2.6
			c4-2,8.4-3.8,12.4-5.9c1.3-0.7,3.3-0.9,4.3-1.9c0.2,0.1,0.1,0,0.3,0.1c0.8,1.1,0.7,3.9,1.3,5.6c0.5,1.4,1,2.6,1.4,4
			c0,0.1-0.2,0.4-0.1,0.7c0.1,0.3,0.4,1.5,0.6,1.9c0.1,0.1,0.3,0.2,0.4,0.3v1.2c0.5,1.3,0.7,3.1,1.3,4.5c0.5,1.2,1.2,3,1.7,4.2v1.2
			c0.1,0.2,0.5,0.7,0.6,1c0,0.4,0.1,0.8,0.1,1.2c0.4,1.1,1.2,2.4,1.6,3.5c0.3,0.8,0.1,1.4,0.4,2.2c0.2,0.5,0.7,1.2,0.9,1.6
			c0,0.1-0.1,0.3-0.1,0.4c0.5,1.1,1.4,2.5,1.9,3.6c0.4,0.8,0.2,1.4,0.6,2.3c0.2,0.6,1,1.3,1.2,1.9c0,0.2-0.1,0.5-0.1,0.7
			c0.1,0,0.3,0.1,0.4,0.1c0.1,0.2,0.6,1.2,0.6,1.3c0,0.2-0.1,0.5-0.1,0.7c0.2,0.8,1,1.8,1.3,2.6c0.7,2,0.9,3.7,1.6,5.5
			c0.1,0.3,0.6,0.6,0.7,0.9c0.4,0.8,0.2,1.6,0.6,2.3c0.5,0.9,1.3,2.1,1.7,3c0.6,1.1,0.6,2.3,1.2,3.5c2.5,4.9,4.2,10.4,7.1,15
			c0.8,1.3,3.3,5.1,3.3,6.8c0.3,0,0.7,0.1,1,0.1C490.1,381.1,488.1,380.3,487.2,380.2z M532.2,260.8c-0.3,0.6-0.3,1.6-0.4,1.9
			l-0.6,0.6c-0.4,0.8-0.5,1.4-0.9,2.2c-0.2,0.3-0.5,0.8-0.7,1.2c-0.1,0-0.3,0.1-0.4,0.1c0,0.4-0.1,0.9-0.1,1.3
			c-0.2,0.4-0.7,0.7-0.9,1.2c-0.8,1.8-1.3,3.5-2.2,5.2c0,0.5-0.1,1.1-0.1,1.6c-0.1,0.2-0.6,0.2-0.7,0.3c0,0.2,0.1,0.5,0.1,0.7
			c-0.8,2.1-2.1,4.5-2.9,6.6c-0.4,1-0.3,1.8-0.7,2.7c-3.3,6.6-5.5,14.2-8.1,21.4c-0.4,1.1-0.2,2-0.6,3c-0.9,2.5-1.5,5.7-2.6,8.2
			c-0.6,1.4-0.5,3.5-2.2,3.7v0.3c0.2,0.1,0.2,0.1,0.6,0.1c-0.4,2.9-2.6,5.1-2.6,8.1h-0.4c0.2,1.1-0.4,2.6-0.9,3.9
			c0.3,1.5-0.9,6-1.4,7.9c-0.6,2.5-0.8,4.9-1.4,7.2c-0.1,0.7-0.2,1.4-0.3,2.2c-0.7,1.9-1.6,4.8-2.2,7.1v1.2c-0.4,1.4-1,3-1.4,4.5v1
			c-0.6,1.4-1.3,3.4-1.7,4.9c-0.1,0.8-0.2,1.6-0.3,2.4c-0.8,2.1-1.7,4-1.7,6.3l-0.6-0.6h-0.3c0.1,0.5,0.1,0.6,0.4,0.9v0.3
			c-0.6,0.1-0.9,0.3-1.7,0.3c0.2-2.2-1.8-3.9-2.6-5.6c-0.1-0.4-0.2-0.9-0.3-1.3l-1.2-1.2c-0.1-0.3,0.2-0.4,0.1-0.6
			c-0.1-0.1-0.3-0.2-0.4-0.3c-0.3-0.6-0.3-1.2-0.6-1.7c-0.3-0.6-1.4-1.5-1.7-2c0-0.5-0.1-1-0.1-1.4c-0.2-0.5-0.8-0.8-1-1.3
			c-0.4-0.9-0.5-1.7-0.9-2.6c-0.2-0.5-0.9-1-1.2-1.4v-0.9c-0.1-0.4-0.6-0.8-0.7-1.2c-0.1-0.6-0.2-1.2-0.3-1.7
			c-0.6-1.6-1.7-3.3-2.4-4.9c-0.2-0.7-0.4-1.4-0.6-2.2c-0.4-0.6-1.1-1.5-1.4-2.2c-0.3-0.7,0-1-0.3-1.9l-0.9-2.2h-0.4
			c0-0.3,0.1-0.6,0.1-0.9l-0.6-0.6c0-0.3,0.1-0.6,0.1-0.9c-0.1-0.2-0.5-0.6-0.6-0.9v-1.2c-0.2-0.5-0.8-1.1-1-1.6
			c-0.4-0.8-0.2-1.5-0.6-2.3c-0.1,0-0.3-0.1-0.4-0.1c-0.7-1.1-0.6-2.3-1.2-3.6c-0.3-0.7-1-1.9-1.4-2.6c-0.1-0.4-0.2-0.9-0.3-1.3
			c-0.1,0-0.3-0.1-0.4-0.1c-0.4-0.8-0.2-1.5-0.6-2.3c-0.8-1.9-1.8-4.3-2.4-6.2v-1c-0.1-0.5-0.6-1-0.7-1.4c0-0.4-0.1-0.8-0.1-1.2
			c-0.1-0.2-0.5-0.3-0.6-0.4c-0.3-0.5,0.1-1.1,0-1.4c-0.1-0.2-0.5-0.5-0.6-0.7v-1.2c-0.4-1.1-1-2.6-1.4-3.7v-1.3
			c-0.2-0.9-0.8-2.2-1-3c0-0.2,0.1-0.4,0.1-0.6c-0.1-0.5-0.6-1-0.7-1.6v-1.4c-0.1-0.4-0.5-1.2-0.6-1.6c0-0.4,0.1-0.8,0.1-1.2
			c-0.1,0-0.3-0.1-0.4-0.1c-0.3-0.6,0.4-0.7-0.1-1.4c0.5-1.3,2.6-1.2,3.6-1.9c2.6-1.8,6.5-2.8,9.8-4.3c0.9-0.4,2.1-1.6,3.3-1.6
			c0.6,0,1.4-1.1,2.2-1.3c0.7-0.2,2.6-0.6,3.5-1c0.7-0.3,1.7-1.2,2.4-1.4h1c1.1-0.5,2.5-1.4,3.7-1.7c0.2,0,0.5,0.1,0.7,0.1l0.7-0.7
			c0.7-0.4,1.4-0.4,2.2-0.7c1.2-0.6,2.5-1.6,3.7-2.2c3.5-1.5,6.7-2.9,10.1-4.6c1.9-1,3.7-2.4,5.5-3.5c1.3-0.7,2.6-1,3.9-1.7
			c1.1-0.7,2.2-1.6,3.3-2.3c0.7-0.2,1.3-0.5,2-0.7c0.2-0.3,0.5-0.7,0.7-1c0.7-0.4,1.3-0.8,2-1.2c1.1-1,2.3-2.1,3.5-3
			c1.5-1.1,3.1-1.6,4.7-2.6c0.5-0.3,0.6-0.9,1.3-1.3C533.5,258.8,532.7,259.8,532.2,260.8z M378.1,296v0.7c0.1,0.1,0.2,0.5,0.3,0.6
			c0.2,0.2,0.5,0.2,0.7,0.4c0.3,0,0.4,0,0.6-0.1c0.1-0.1,0.2-0.7,0.3-1l-0.9-0.9C378.5,295.8,378.5,295.9,378.1,296z M385.1,321.6
			c-0.7,0-0.7,0.1-1.2,0.3c0,0.4-0.1,0.8-0.1,1.2c0.9,0.4,1.3,0.2,2-0.3C385.8,321.9,385.6,322.1,385.1,321.6z M385.6,306.2v1.2
			c0.2,0.1,0.3,0.2,0.4,0.3c0.8,0,0.9-0.2,1.3-0.4c0-0.8-0.2-0.9-0.4-1.3C386.2,305.9,386,306,385.6,306.2z M390.6,296.3v1.3
			c0.3,0.2,0.7,0.5,1.2,0.1c0.4-0.2,0.3,0,0.4-0.4c0.2-0.4-0.3-0.9-0.4-1.4C391.4,296,391,296.2,390.6,296.3z M394.6,313.3
			c-0.4,0-0.7,0-1,0.1c0,0.3-0.1,0.6-0.1,0.9c0.2,0.3,0.5,0.6,0.7,0.9c0.3-0.1,0.6-0.2,0.9-0.3c0.1-0.4,0.2-0.5,0-0.9
			C394.9,313.6,394.8,313.6,394.6,313.3z M394.8,304.1h-0.3c-0.2,0.5-0.5,0.8-0.6,1.4c0.2,0.1,0.5,0.3,0.7,0.4
			c0.3-0.1,0.3,0,0.4-0.1c0.6-0.3,0.2-0.5,0.6-0.7C395.4,304.5,395.1,304.5,394.8,304.1z M398.4,319c-0.1,0.2-0.3,0.5-0.4,0.7
			c-0.2,0.2,0.4,1,0.6,1.3c0.4,0,0.8-0.1,1.2-0.1c0.1-0.7,0-0.9,0-1.7C399.1,319.2,398.8,319.1,398.4,319z M402.6,308h-1l-0.6,0.6
			c-0.1,0.1-0.1,0-0.1,0.3c0.2,0.2,0.4,0.6,0.6,0.7c0.9,0.4,0.8-0.6,1.6,0.6h0.3C403,309.3,402.5,309.3,402.6,308z M404.6,318.6
			c-0.4,0.3-0.7,1.3-0.9,1.7c0.3,0.1,0.4,0.2,0.6,0.4c0.4-0.1,1.3-0.3,1.6-0.6c0.1-0.1,0.1,0,0.1-0.3
			C405.6,319.5,404.9,319.1,404.6,318.6z M408.7,316.5c-0.1-0.3-0.1-0.3-0.3-0.6c-0.4,0-0.8-0.1-1.2-0.1v0.4c-0.3,0.1-0.3,0-0.4,0.1
			l-0.9-0.9c-0.7,0.1-0.7,0.4-1.2,0.7c0,0.3,0,0.4,0.1,0.6c0.1,0.3,0.2,0.3,0.4,0.6c1.2,0,2.1-0.1,3.2-0.3
			C408.6,316.7,408.6,316.6,408.7,316.5z M408.9,322.5c0.4,0,0.6-0.1,0.9-0.1c0-1.3-0.4-1.1-0.9-1.4c-1,0-1.2,0.3-1.6,0.9
			c0.1,0.1,0.2,0.5,0.3,0.7C408.2,322.5,408.6,322.7,408.9,322.5z M408.5,327h-0.3c0,0.7,0.1,0.7,0,1.3c0.7,0,1.3,0,1.7-0.3
			c0.6-0.1,0.5-0.2,0.9-0.4c-0.1-0.6-0.3-0.6-0.6-1C409.4,326.5,408.9,326.6,408.5,327z M409.6,318.6c-0.5,0.2-0.7,0.6-0.9,1.2
			c0.1,0.1,0.2,0.3,0.3,0.4c0.4,0.2,0.8,0.1,1,0.3c0.5-0.2,0.6-0.2,0.7-0.7c0,0,0.1-0.1,0.1-0.1c-0.3-0.3-0.5-0.8-0.7-1.2
			C409.8,318.5,409.8,318.5,409.6,318.6z M415.2,315.3c-0.6,0-0.7,0.1-1,0.3v0.9c0.3,0.2,0.2,0.3,0.6,0.4c0.4,0.2,0.8-0.2,1.2-0.4
			C415.9,315.5,415.7,315.7,415.2,315.3z M416.9,322.6c0.4-0.1,0.3-0.2,0.6-0.4c-0.1-0.5-0.2-0.5-0.4-0.9c-0.9,0-0.8,0-1.4,0.1
			c0.1,0.3,0,0.3,0.1,0.4v0.7C416.2,322.7,416.6,322.9,416.9,322.6z M416.2,329.1c0,0-0.1,0.1-0.1,0.1h0.1c0.1,0.5,0.2,0.5,0.4,0.9
			c0.7-0.1,0.7-0.3,1.4-0.3c0-0.8-0.3-0.9-0.6-1.4C416.7,328.4,416.4,328.5,416.2,329.1z M419.8,316.7c0,0-0.1,0.1-0.1,0.1v1.3
			c0.9,0.3,1.4-0.1,2-0.3c-0.2-0.7-0.4-0.8-0.7-1.3C420.6,316.6,420.2,316.7,419.8,316.7z M425.9,326.4c-0.6,0.1-0.8,0.3-1,0.9
			c-0.1,0.2-0.1,0.5-0.1,0.9c0.5,0.3,0.9,0.7,1.4,0.1c0.3-0.2,0.2-0.2,0.4-0.4C426.6,326.8,426.3,326.9,425.9,326.4z M427,318.5
			c0.3,0.2,0.5,0.4,0.7,0.6c0.7,0,0.7,0,1-0.4c0.1-0.1,0.1,0,0.1-0.3l-0.9-0.9C427.2,317.5,427.1,317.8,427,318.5z M432.3,312
			c-0.7,0.1-0.6,0.2-1,0.6c0,0.9,0,1.1,0.7,1.3c0.3,0.1,0.3,0,0.7,0c0.1-0.7,0.2-0.8,0.3-1.4C432.8,312.3,432.5,312.2,432.3,312z
			 M434.1,319.6c-1.1,0-1,0.4-1.2,1c0.6,0.3,1.1,0.4,1.6-0.1c0.1-0.1,0.1,0,0.1-0.3c-0.1-0.1-0.2-0.3-0.3-0.4
			C434.1,319.7,434.2,319.7,434.1,319.6z M436.4,333.7c-0.4,0-0.6,0.1-0.9,0.1c0,1,0,1.1,0.4,1.9h0.6c0.1-0.5,0.1-0.4,0.6-0.6
			c0-0.9,0-0.8-0.1-1.6C436.6,333.6,436.5,333.6,436.4,333.7z M437.1,325.8c-1.3,0-1.1,0.6-1.2,1.4c0.5,0.3,0.9,0.2,1.6,0.1
			c0,0,0.1-0.1,0.1-0.1c0-0.7-0.1-0.9-0.3-1.3C437.1,325.9,437.2,325.9,437.1,325.8z M438.1,319.6c0.4,0.2,1.1,0.3,1.4,0.6
			c0,0,0.1-0.1,0.1-0.1c0.2-0.4-0.2-1.5-0.4-2C438.1,318.1,438.2,318.9,438.1,319.6z M441.6,330.1c0.2,0.1,0.3,0.2,0.4,0.3
			c0.6,0,0.8-0.1,1.2-0.3c0-0.5,0-0.9-0.1-1.2C441.8,328.9,441.7,329.1,441.6,330.1z M444.1,309.8c-0.6,0.1-0.7,0.2-1.2,0.4
			c0,0.2-0.1,0.5-0.1,0.7c0.2,0.1,0.5,0.3,0.7,0.4c0.5,0,0.9-0.1,1.2-0.3c0.2-0.3,0.3-0.6,0.1-0.9
			C444.6,309.8,444.5,310.2,444.1,309.8z M464.7,365.8h0.4v-0.3C464.7,365.6,464.9,365.4,464.7,365.8z"/>
	</g>
</g>
</svg>
