<?xml version="1.0" encoding="utf-8"?>
<!-- Generator: Adobe Illustrator 21.0.0, SVG Export Plug-In . SVG Version: 6.00 Build 0)  -->
<svg version="1.1" id="Calque_1" xmlns="http://www.w3.org/2000/svg" xmlns:xlink="http://www.w3.org/1999/xlink" x="0px" y="0px"
	 viewBox="0 0 841.9 595.3" style="enable-background:new 0 0 841.9 595.3;" xml:space="preserve">
<style type="text/css">
	.st0{fill:#DADADA;}
</style>
<ellipse class="st0" cx="478.5" cy="332.7" rx="130.5" ry="11.7"/>
<g>
	<g>
		<path d="M604,305.6c-0.5,0-0.9-0.1-1.4-0.1c-0.7-0.3-1.8-0.9-2.6-1.1c-0.8,0-1.7-0.1-2.5-0.1c-1.3-0.5-3.1-1.1-4.4-1.5h-1.2
			c-1-0.3-2.3-0.7-3.2-1c-0.5,0-0.9-0.1-1.4-0.1c-2-0.6-4.2-1.8-6.1-2.6c-1-0.4-1.9-0.4-3-0.9c-1.9-0.8-4.1-1.8-5.9-2.8
			c-0.4-0.1-0.8-0.2-1.1-0.2c-3.9-2-7.4-4.4-11.4-6.4c-1.2-0.6-2.2-1.8-3.4-2.4c-0.9-0.4-1.6-0.4-2.4-0.9c-2.4-1.4-4.9-3.1-7.2-4.6
			c-0.4-0.3-1.2-0.3-1.6-0.5c-0.1-0.2-0.2-0.4-0.4-0.6c-0.4-0.3-0.9-0.2-1.2-0.5c-0.2-0.2-0.4-0.4-0.6-0.6c-1-0.6-2.2-0.7-3.2-1.4
			c-4-2.6-8.6-4.7-12.8-7.1c-0.4-0.1-0.8-0.2-1.1-0.2c-0.2-0.2-0.4-0.4-0.6-0.6c-0.4-0.3-0.9-0.2-1.4-0.5c-1.2-0.6-2.5-1.6-3.6-2.2
			c-0.5-0.3-0.9-0.1-1.5-0.4c-0.7-0.3-1.4-1.1-2.1-1.4c-0.6-0.3-1.3-0.3-1.9-0.6c-0.2-0.2-0.4-0.4-0.6-0.6c-0.8-0.4-1.5-0.3-2.2-0.6
			c-1.9-0.8-4.1-1.9-6.1-2.6c-0.5-0.2-0.6,0.1-0.9,0c-0.5-0.2-1.2-0.6-1.8-0.8c-0.4,0-0.8-0.1-1.1-0.1c-1.1-0.4-2.4-1.2-3.5-1.6
			c-0.7-0.3-1.2-0.1-1.9-0.4c-0.3-0.1-0.6-0.6-1-0.8c-1-0.4-2.1-0.7-3.1-1h-0.6c-2-1-4.7-1.8-6.8-2.8c-0.9-0.4-1.7-0.3-2.6-0.6
			c-1.8-0.6-3.9-1.2-5.6-1.9h-1.1c-3.5-1.4-7.4-2.4-10.9-3.5c-1.6-0.5-3.3-0.7-4.8-1.1c-0.8-0.1-1.7-0.2-2.5-0.2
			c-3.2-1.1-6.9-1.9-10.6-2.9c-2-0.5-3.5,0.4-5.4-0.2c-0.5-0.2-0.8-0.7-1.4-0.9c-0.2-0.1-0.5,0-0.8,0.2c-0.3,0-0.4-0.1-0.6-0.1v-0.5
			c-0.8-0.1-1.5-0.3-2.2-0.5c-0.9-0.2-2-0.1-2.6-0.2h-4.1c-2.4-0.6-6-0.3-8.8-1c-0.7-0.2-1.5,0.2-2,0.1c-1.8-0.3-4.5-0.3-6.4-0.8
			c-1.3-0.3-4.5,0.4-5.2,0.5c-0.5,0.1-1.3-0.3-2-0.1c-0.5,0.1-1.4,0.3-1.9,0.4c-0.4,0.1-0.8-0.2-1.1-0.1c-0.6,0.1-1.5,0.2-2.2,0.4
			c-0.5,0.1-1.1-0.2-1.4-0.1c-2.3,0.4-4.1,0.7-6.1,1.1c-0.3,0-0.6-0.1-0.9-0.1c-1.3,0.4-3,0.1-4.8,0.5c-0.8,0.2-2.2,0.6-3,0.6
			c-0.3,0-0.9-0.3-1.4-0.1c-0.4,0.1-0.7,0.5-1,0.6c-1.7-0.4-4.3,0.6-6,0.9c-3.6,0.6-7.9,1.2-10.9,2.8c-1.1-0.5-2.1,0.6-2.9,0.9
			c-0.6,0.1-1.2,0.2-1.8,0.2c-0.8,0.3-1.7,1-2.5,1.4c-0.6,0.3-1.2,0.1-1.8,0.4c-0.9,0.4-1.9,1-2.8,1.5c-0.5-0.2-3,0.8-3.6,1.1
			c-0.5,0.2-1.1,0.8-1.6,1c-0.7,0.3-1.3,0.1-2,0.4c-0.5,0.2-1.1,0.7-1.6,0.9c-3.1,1.1-6,2.1-8.6,3.5c-0.7,0.4-1.3,0.4-2,0.8
			l-0.2,0.5h-0.5c-0.6,0.2-1.2,0.5-1.9,0.9l-0.9,0.9c-0.5,0.2-1,0.3-1.5,0.5c-0.1,0.1-0.1,0.4-0.2,0.5c-0.4,0.3-0.9,0.3-1.4,0.5
			c-0.6,0.3-1.2,1-1.8,1.2c-0.6,0.3-1,0.2-1.5,0.5c-1,0.6-3.6,2.7-4.8,2.9c-0.2,0.9-1.3,0.9-1.9,1.4c0,0.1-0.1,0.2-0.1,0.4
			c-0.4,0.3-0.9,0.3-1.2,0.6c-0.2,0.2-0.3,0.5-0.5,0.8c-1,0.7-2.2,1.2-3.1,1.9c-1.5,1.1-3.1,2.4-4.6,3.5c-0.4,0.3-1,0.4-1.4,0.8
			c-0.1,0.1-0.1,0.4-0.2,0.5c-0.3,0.2-0.7,0.2-0.9,0.5v0.5c-0.2,0.1-0.5-0.2-0.8,0c-0.1,0.1-0.6,0.5-0.8,0.6v0.4
			c-0.3,0.3-1.3,0.6-1.6,0.9c-0.4,0.3-0.7,1-1.1,1.4c-0.6,0.5-1.2,0.8-1.9,1.2c-0.3,0.2-0.5,0.7-0.8,1c-0.2,0.1-0.5,0.2-0.8,0.2
			c-0.2,0.2-0.4,0.5-0.6,0.8h-0.5c0,0.2-0.1,0.3-0.1,0.5c-0.5,0.4-1,0.8-1.5,1.2c-0.2,0.3-0.2,0.6-0.4,0.9c-0.2,0.3-0.8,0.3-1,0.6
			c-0.1,0.2-0.2,0.5-0.2,0.8c-0.6,0.7-1.7,1.3-2.2,2.1c-0.1,0.2,0,0.4-0.1,0.5c-0.7,0.8-1.4,0-1.6,1.5c-0.3,0-0.5,0-0.6-0.1H288
			c0.2,0.4,0,0.3,0.5,0.4c-0.5,1.3-2.2,1.3-2.6,2.6h-0.4c0,0.3,0,0.2-0.1,0.4c-0.2,0.3-0.1,0.2-0.5,0.2c0,0.8-0.4,0.6-0.5,1.5h-0.5
			c-0.5,0.5-0.9,0.6-1,1.6c-0.4-0.1-0.2,0-0.4-0.4c-1.1,0.4-2.1,1.8-2.9,2.6c-1.1,1.1-2.9,1.9-4.2,2.8c-0.8,0.5-2,2.2-2.8,2.9
			c-0.4,0.4-1.2,0.5-1.8,0.9c-0.4,0.3-0.9,1-1.4,1.2h-0.6c-0.2,0.1-0.8,1.1-1,1.2c-0.7,0.5-1.6,0.6-2.2,1.1c-1.1,0.8-2,2-3.1,2.8
			c-1.1,0.8-2.5,1.2-3.5,2.1c-0.2,0.2-0.2,0.7-0.4,0.9c-1.5,1.2-2.9,2.2-4.5,3.4c-0.3,0.2-0.2,0.5-0.4,0.8c-0.2,0.1-0.5,0.2-0.8,0.2
			c-0.3,0.2-0.5,0.6-0.8,0.9v0.1c-0.6,0.4-1.4,0.5-2,0.9c-0.4,0.4-0.8,0.8-1.1,1.2c-0.2,0-0.5,0.1-0.8,0.1c-0.9,0.9-1.8,1.8-2.6,2.6
			c-0.5,0.3-1,0.3-1.5,0.6c-0.5,0.3-1,0.9-1.5,1.2c-0.1-0.1-0.4-0.2-0.6-0.1v0.1c-0.8,0.3-1.4,0.9-2.1,1.2c-0.2,0-0.5,0.1-0.8,0.1
			c-0.3,0.3-0.4,0.7-0.8,0.9H237c-0.9,0.3-2.7,0.5-3.1,1.2c-0.3,0.5-0.5,3.5,0,4.1c0.1,1.2,3.7,3.5,5.5,2.9c1-0.3,2.6-1.2,3.2-2
			c0.3-0.4,0.3-1.1,0.5-1.2c0.5-0.5,1.1-0.7,1.6-1.1c0.5-0.4,1.2-1,1.6-1.5c0-0.1,0.1-0.2,0.1-0.4c0.8-0.5,1.7-0.9,2.5-1.4v-0.6
			c0.8,0,1.6-0.6,2-1c0.1-0.1,0.1-0.1,0.1-0.4c1-0.1,1.1-0.8,1.8-1.2h0.5c0.7-0.4,1.3-1.1,2-1.5c0.5-0.3,1.2-0.4,1.6-0.8
			c1.1-1,2.4-1.9,3.5-2.9c0.2-0.1,0.1-0.5,0.2-0.6c0.2,0,0.3-0.1,0.5-0.1c0.4-0.5,0.8-0.9,1.2-1.4c0.6-0.5,1.4-0.8,2-1.2
			c0.4-0.4,0.8-0.8,1.1-1.2c0.8-0.5,1.8-0.8,2.5-1.4c0.5-0.4,0.8-1.1,1.4-1.5c1-0.7,2-1,3-1.6c0.5-0.3,0.9-1,1.4-1.2
			c0.4-0.1,0.8-0.2,1.1-0.4l0.8-0.8c0.4-0.1,0.8-0.2,1.1-0.2c0.3-0.2,0.5-0.6,0.9-0.8c0.5-0.2,1.1-0.2,1.5-0.5c0.3,0,0.6,0,0.8,0.1
			c0,0,0.1,0.1,0.1,0.1H280c-0.2,1.6-3.5,3.6-4.5,4.8c-1.1,1.3-1.9,2.7-3,4c-0.3,0.4-0.9,0.6-1.2,1v0.1c0,0-0.5,0.9-0.8,1.1
			c-0.2,0-0.3,0.1-0.5,0.1v0.5c-0.3,0.2-0.6,0.5-0.9,0.8c-0.3,0.5-0.2,1.1-0.6,1.5c0.2,1.2,1.1,1.6,1.8,2.4c1.8,0,3.5-1.1,4.6-1.9
			c0.2-0.2,0.4-0.5,0.6-0.8c0.8-0.4,1.5-0.5,2-1.1h0.2c-0.2,0.9-0.5,2.1-0.8,2.9c0,0.7-0.1,1.4-0.1,2.1h0.2v0.2
			c0,0.2-0.3,0.6-0.4,0.8c-0.2,0.6,0,3.8,0.1,4c0,0.2-0.3,0.6-0.4,0.9c-0.1,0.5,0.7,5.1,0.9,5.5c0.1,0.3,0.6,0.3,0.8,0.5
			c0.3,0.4,0.2,0.9,0.5,1.4c0.4,0.7,1.3,0.9,1.9,1.5c1.6-0.2,2.5-0.7,3.6-1.1c0.9-0.4,3.1,0.2,3.5,0.1c0.3-0.1,0.4-0.5,0.5-0.5
			c0.7-0.4,2.2,0,3-0.2c0.5-0.2,1.1-0.6,1.6-0.8c0.1,0,0.2,0.1,0.4,0.1c0.7-0.2,1.3-1,1.9-1.2h0.6c0.7-0.3,1.3-1,1.9-1.4
			c0.5-0.1,0.9-0.2,1.4-0.4c0.4-0.2,0.8-0.8,1.1-1c0.6-0.2,1.2-0.4,1.8-0.6c1.2-0.7,2.3-1.7,3.9-2.1c0.8,2.3,2.1,5.4,3.1,7.8
			c0.2,0.8,0.3,1.6,0.5,2.4c0.2,0.1,0.3,0.2,0.5,0.4c0.3,0.5,0,1,0.1,1.4c0.1,0,0.2,0.1,0.2,0.1c0.3,1.2-2,4.4-1.2,5.6
			c0.1,1,1,1.3,1.5,1.9c3,0.3,4.7-1.9,6.5-3.2c0.6-0.4,2.2-1.8,1.4-3c-0.1-1.8-2.1-1.6-2.6-3.1c-0.2-0.4,0.2-0.6,0-1.1
			c-0.3-0.8-1.1-2.2-1.2-2.9c0-0.3,0.2-0.6,0-1c-0.1-0.2-0.5-0.5-0.6-0.6c-0.1-0.3,0.3-0.8,0.2-1.1c-0.1-0.3-0.6-0.9-0.8-1.2h-0.4
			c-0.1-1-0.5-1.3-0.5-2.4c-0.2-0.1-0.2-0.1-0.5-0.1c0.2-0.3,0.3-0.3,0.4-0.6c0,0-1.2-2.9-1.4-3.9c0.3-0.1,0.5-0.2,0.8,0
			c0.6-0.4,0.8-1.5,1.5-1.9c0.8-0.4,1.7-0.3,2.4-0.8c0.1-0.2,0.2-0.4,0.4-0.6h0.5c0.4-0.2,0.7-0.7,1.1-0.9c1.6-0.7,2.2-0.5,3.1-1.9
			c0.5,0,1.2,0.3,1.4,0.2c0.4-0.1,1-0.7,1.4-0.9c0.6-0.2,1-0.1,1.6-0.4c0.5-0.2,1.1-0.8,1.6-1c2.1-0.9,4-1.9,6-2.8
			c1-0.4,2.3-0.6,3.1-1.2c0-0.1,0.1-0.2,0.1-0.4c0.1,0.1,0.2,0.2,0.4,0.2c1.5-0.8,3.1-1,4.8-1.8c2.6-1.1,5.5-1.6,8.4-2.6
			c0.3-0.1,0.6-0.5,0.9-0.6h0.9c0.8-0.2,1.9-0.7,2.6-1h1c1.2-0.5,2.8-1.1,4.1-1.5h1c0.2-0.1,0.6-0.5,0.8-0.5c0.3-0.1,0.6,0.3,1,0.1
			c0.1,0,0.5-0.3,0.6-0.4c0.8,0,1.6-0.1,2.4-0.1c1.3-0.3,2.5-1.1,3.9-1.4c2-0.4,4.4-0.4,5.9-1c1.6-0.6,3.3-0.1,4.9-0.8v-0.2
			c0.3-0.1,0.3,0.1,0.5,0.1c0.1,0,2.4-0.2,2.6-0.2c0.5-0.2,0.9-0.7,1.4-0.9c0.8-0.3,1.4,0,2.1-0.1c0.5-0.1,1.4-0.4,1.9-0.5
			c1-0.3,3.7-0.1,4.4-0.5c1,0,1.2,0.1,1.5,0.6h0.2c-0.1-0.3-0.2-0.4-0.4-0.6h0.1c0.5-0.3,2,0.2,3,0c0.8-0.2,1.6,0,2.6-0.2
			c0.4-0.1,0.9,0.2,1.1,0.1c0.1-0.1,0.2-0.2,0.2-0.4c0.5-0.1,1.3,0.2,2,0c0-0.1,0.1-0.2,0.1-0.2c0.3-0.1,0.6,0.2,0.8,0.2
			c0.4,0.1,0.4-0.2,0.6-0.2c0.2,0,0.5,0.1,0.8,0.1c0.2-0.1,0.6-0.5,0.9-0.5c0.6-0.1,1.7,0.2,2.2,0.1c2.7-0.5,6.2-0.7,8.5-0.9
			c1.1-0.1,3.1,0.4,4.1,0.2c0.1-0.1,0.2-0.2,0.2-0.2c0.5-0.1,0.7,0.2,0.9,0.2c0.4,0.1,1.3-0.2,1.9-0.2c2-0.4,8.1-0.4,10.9,0.1
			c1.6,0.3,4.1,0,5.4,0.2c2.1,0.4,4.3,0.3,6.1,0.9c0.4,0.1,1.1-0.3,1.8-0.1c1.4,0.3,2.5,0.1,4,0.5c1.9,0.5,4.9,1.2,6.6,1.6
			c1.3,0.3,2.3-0.1,3.4,0.4c0.6,0.2,1.4,0.9,2,1.1h1.4c0.8,0.2,2,0.2,3,0.5c4.3,1.1,9.1,1.1,13.2,2.2c2.2,0.6,4.8,1.3,6.9,2
			c1.3,0.5,2.9,0.5,4.1,1h1c1.1,0.3,2.3,0.3,3.5,0.6c4.3,1.2,9,1.5,13.4,2.8c1.9,0.5,5.2,2.3,7.4,1.9c0.8,0.4,2.2,1,3.1,1.1
			c2,0.3,4.6,0.5,6.6,1.2c2.7,0.9,5.8,1.7,8.4,2.6c1.1,0.4,2.2,0.3,3.4,0.8c0.8,0.3,2.1,0.8,3,1c0.7,0.2,0.6-0.2,0.9-0.4h1.1
			c0.1,0,0.5,0.3,0.6,0.4c0.8,0,1.7,0.1,2.5,0.1c0.4,0.2,0.8,0.7,1.2,0.9c0.8,0,1.5,0.1,2.2,0.1c0.3,0.1,0.7,0.4,1,0.5
			c1.3,0.4,2.6-0.1,4,0.2c0.2,0,0.6,0.3,0.8,0.4c0.5,0,0.9-0.1,1.4-0.1c1,0,1.6,0.2,2.1,0.4c0.2,0,0.4-0.1,0.6-0.1
			c2,0.3,4.5,0.4,6.4,0.8c0.3,0,0.7-0.1,1-0.1c0.5,0.1,1.4,0.6,1.9,0.5c0.5-0.1,1.2-0.4,1.6-0.5c0.4,0,0.8,0.1,1.2,0.1
			c1.4,0,2.8,0,3.9-0.1c0.7-0.1,1.7,0.1,2.4,0.1c1.5,0,2.9-0.2,4-0.5c0.8-0.1,1.6-0.2,2.4-0.2c0.6-0.2,1.2-0.7,1.9-0.9
			c2.2-0.7,4.2-1.1,6.2-1.9c0.3-0.1,0.6-0.6,0.9-0.8c0.4-0.1,0.8-0.2,1.1-0.2c0.9-0.5,2-1.3,2.9-1.9c1.4-0.8,3.1-1,4.4-1.9
			c0.7-0.5,1.9-1.3,2.4-2c0.3-0.4,0.5-0.9,0.9-1.1c0.5-0.4,0.9-0.4,1.5-0.8c0.6-0.4,0.9-1.2,1.5-1.6c0.4-0.3,0.8-0.4,1.1-0.8
			c0.3-0.4,0.3-0.9,0.6-1.2C610.8,306.8,606.8,306.4,604,305.6z M465.3,248.8c-0.2-0.1-0.1,0-0.2-0.1
			C465.3,248.8,465.2,248.7,465.3,248.8z M438.3,243.4h0.1c0,0-0.1,0.1-0.1,0.1v0.1c-0.3-0.2-0.1,0-0.2-0.4
			C438.3,243.4,438.2,243.3,438.3,243.4z M302.7,279.6c-0.2-0.1-0.1,0-0.2-0.1C302.6,279.5,302.5,279.5,302.7,279.6z M294.8,331.4
			c-0.7,0-1-0.1-1.1-0.6c0.4,0.1,0.8,0.2,1.1,0.2c0,0,0.1,0.1,0.1,0.1L294.8,331.4z M298.2,328.6c-0.5-0.2-0.6-0.5-1.2-0.6
			c0.1-0.4,0.1-0.4,0.2-0.6v-0.2c-0.3,0.1-0.3,0.1-0.5,0.4c-0.4-0.2-0.6-1-0.8-1.4c-0.2-0.1-0.4-0.1-0.5-0.2c-0.5,0-0.5,0.1-0.8,0.2
			c0,0.4,0.1,0.8,0.2,1c0,1.2,1.1,2.2,2,2.2c-0.4,0.7-1.4,0.9-1.9,1.5c-0.4,0-0.9-0.1-1.1-0.2c-0.9,0-1.2-0.9-1.4-1.6
			c-0.2-0.1-0.1,0-0.2-0.1c-0.6,0.1-0.6,0.2-1,0.4c0,1.4,0.5,2.6,1.8,3.1c-0.2,0.4-1.2,1.2-1.8,1.2c-0.2,0.1-0.7,0-1-0.2
			c-0.3-0.2-0.3-0.7-0.5-1c0-0.7,0.2-0.9,0.6-1.1v-0.2c-0.4,0.1-0.6,0.3-0.8,0.6h-0.2c-0.1-0.2-0.1-0.2-0.1-0.5
			c-0.6,0.1-0.7,0.3-1.1,0.5c0.2,1,0.1,2.1,0.8,2.6c-0.1,0.4-0.2,0.4-0.5,0.6v0.2c0.4-0.1,0.8-0.5,1.2-0.2c0.1,0,0.2,0.1,0.4,0.1
			c-0.4,0.6-0.9,0.9-1.2,1.5c-0.4,0-0.5-0.1-0.8-0.2c-1.1-0.1-1.5-1.2-1.9-2c-0.6,0.1-0.6,0.4-1,0.8c0,1.4,0.8,1.2,0.9,2.4
			c0.3,0,0.2,0,0.4,0.1c0.3,0.1,0.3,0.1,0.5,0.2c-0.1,0.2-0.2,0.2-0.2,0.5c-0.2,0-0.5,0.1-0.8,0.1c0-0.3,0-0.4,0.1-0.5v-0.5
			c-0.3,0.1-0.3,0.1-0.5,0.2c-0.4-0.5-1-0.6-1.4-1c-0.5,0-0.6,0.1-0.9,0.2c0,0.5,0.1,1,0.1,1.5c0.4,0,0.8,0.1,1.1,0.1
			c-0.1,0.4-0.5,0.5-0.4,0.8c-0.8,0.6-1.8,0.4-2.5,1c-1.6,0-0.9-0.7-1.6-1.5c-0.1-0.1-0.5-0.1-0.6-0.2c-0.2-0.3-0.1-0.6-0.2-1
			c-0.5-1.2-0.9-3.5-0.4-4.6c-0.1-0.2-0.2-0.5-0.2-0.8c0.1-0.7,0.3-2.1,0.1-3c-0.3-1.2,0.6-2,0.2-2.8c0-0.3,0-0.4,0.1-0.5
			c0.3-0.2,0.3-0.1,0.6,0c-0.1-0.4-0.3-0.6-0.6-0.8c0.1-0.8,0.5-1.1,0.6-1.6c0.3-0.8,0.1-1.9,0.2-2.2c0.2-0.3,0.4-0.3,0.6-0.5
			c0.1-0.2,0,0,0-0.4c0.2-0.1,0.7,0,1-0.1c0.5-0.2,0.8-0.9,1.2-1.1c0.3-0.1,0.6-0.2,0.9-0.2c0.1-0.1,0.1-0.4,0.2-0.5h0.8
			c0.1-0.1,0.1-0.4,0.2-0.5h0.5c0.5-0.2,0.4-0.6,1.2-0.6v-0.4c1.1-0.1,1.7-0.5,2.9-0.5c0.1-0.5,0.5-0.5,0.8-0.9
			c1.5,0.3,2.7,0.2,3.2,1.4h0.5c0,0.3,0.1,0.6,0.1,0.9c0.3,0.1,0.4,0.2,0.8,0.2c-0.2,1.1,0.7,1.5,1.1,2.2c0,0.3,0.1,0.6,0.1,0.9
			c0.2,0.5,0.7,1.2,1,1.6c0.6,0.8,1.7,1.6,2.1,2.5c0.1,0.2,0.1,0.3,0.1,0.8h0.6c0.1,0.3,0,0.2,0.2,0.4
			C300.1,326.8,298.6,327.8,298.2,328.6z M302.5,325.2c-0.3-0.1-0.2,0.1-0.2-0.2c0.1,0,0.2,0.1,0.2,0.1V325.2z M607.5,311.2
			c-0.5-0.8-1.6-1.2-2.2-1.9c-0.3,0-0.5,0-0.6,0.1c-0.1,0-0.2,0.1-0.4,0.1c-0.1,0.8,0,0.9,0.1,1.6c0.4,0.2,0.8,0.3,1.1,0.5
			c-0.2,0.8-1.9,1.9-2.9,1.4c-0.7-0.3-1.5-1.6-1.9-2.2c-1.3,0-1.2,0.8-1.1,1.9c0.4,0.4,0.6,0.6,1.1,0.9c-0.2,0.7-1.1,0.7-1.5,1.2
			c-1.3-0.1-1.9-1.8-2.4-2.6c-0.4,0-0.7,0-0.9,0.1c-0.7,0.9,0.3,2.9,0.9,3.4v0.1c-0.7,0.3-1.6,0.6-2.1,1.1c-0.9,0-2.2-0.9-1.8-1.6
			c0-0.8-0.3-0.6-0.6-1c-0.9,0-0.8,0.3-1.4,0.5c-0.1,0.2,0,0.1-0.1,0.2c0,0.9,0.3,1.4,0.8,1.9c0,0.3-0.1,0.4-0.1,0.6
			c-0.4,0.2-1.9,0.5-2.5,0.1c-0.6-0.2-0.6-0.9-1-1.2c0.1-0.4,0.2-0.6,0.2-1.2c-0.2-0.2-0.3-0.3-0.4-0.6c-0.6,0-0.8,0.1-1.1,0.2
			c-0.2,0.8-0.7,2.3,0.2,3v0.5c-0.3,0.1-0.5,0.1-0.6,0.2c-1.7,0-1.9-2.1-1.9-3.8c-0.5,0-0.6,0-0.9,0.2c-1.4,0.6-0.5,2.8-0.2,3.9
			c-0.6,0-1.7,0.1-1.9,0c-0.7,0-1.1,0-1.5-0.2c0-0.7-0.1-2.8-0.2-3.1c0-0.1-0.1-0.2-0.1-0.4c-0.4,0-0.8,0-1.1,0.1
			c-0.1,0.3-0.2,1.2-0.4,1.5c0,0.9,0,1.7-0.2,2.2c-0.4,0-1,0-1.2,0.1c-0.9-0.1-0.4-0.3-0.8-0.9c-0.2-0.3-0.8-0.5-0.8-1
			c0-0.4,0.2-1.2,0-1.6c-0.1-0.4-0.2-0.4-0.4-0.8c-1.6,0.1-0.8,0.7-1.2,1.9c-0.2,0.5-1.2,1.3-0.4,2.1c-0.2,0.4-0.8,0.3-1.1,0.5
			c-2.2,0.1-1.3-0.3-2.2-1.2c0-0.6,0.1-1.4,0.4-1.8c0-0.5,0-0.9-0.1-1.2c-2.8-0.1-1.4,2.5-2,3.9c-0.2,0.1-2.3,0.2-2.9-0.1
			c-0.3-0.5-0.7-2.4-0.8-3.5c-0.4-0.1-0.7-0.2-1,0c-0.6,0.3-0.6,2.7-0.1,3.1c0,0.3-0.1,0.3-0.1,0.5c-1.3,0-2.8,0-3.5-0.6
			c-0.1-0.1,0.5-2.1,0.2-2.6c-0.1-0.3-0.1-0.3-0.2-0.5c-0.3,0-0.4,0-0.5-0.1c-0.3,0.1-0.4,0.2-0.6,0.4c-0.2,0.8-0.2,2.2-0.6,2.9
			c0,0.1-0.1,0.2-0.1,0.4c-0.8-0.1-1.5-0.2-2.2-0.4l-0.1-0.1c0-1.6,0.1-2.1-0.5-3.1c-1.2,0-2,2.1-1.2,3.1v0.1
			c-0.5,0-2.6-0.2-2.9-0.4c-0.7,0-0.6-0.2-1.1-0.4c-0.2-0.6-0.5-0.9-0.1-1.4c0-0.8-0.1-1.3-0.2-1.8c-0.3,0-0.6,0-0.8,0.1
			c-0.6,0.3-0.9,2.1-0.6,2.8h-0.1c-0.3,0.1-3.4-0.8-3.8-1.1c-0.6-0.8,0.6-2.6-0.1-3.6c0-0.1-0.1-0.2-0.1-0.2
			c-0.6,0.1-0.7,0.4-1.1,0.6c0,0.8-0.2,2.2-0.6,2.6c-0.1,0.1-3-0.8-3.4-1c0.1-1.7,0.5-2.7-0.2-4c-0.6,0-0.6,0.2-1,0.4
			c-0.1,1-0.2,2.1-0.1,3c-0.6,0.1-1.6,0-2.1-0.4c-0.5-0.2-0.5-0.5-0.9-0.8c0.1-0.4,0.1-0.4,0.4-0.6v-0.4c-0.4,0.1-0.4,0.2-0.9,0.2
			c0.1-0.6,0.6-1.7,0.2-2.2c0-0.7-0.1-0.6-0.4-1c-0.6,0-0.7,0.2-1.1,0.4c-0.2,1-0.4,2.1-0.2,3.4c-0.9,0-1.8-0.2-2.4-0.6
			c-0.4-0.4,0-0.2-0.1-0.6c-0.1-0.2-0.6-0.6-0.6-0.9v-0.1c0.3-0.5,0.4-0.9,0.4-1.8c-0.1-0.1-0.3-0.3-0.4-0.5c-0.3,0-0.5,0-0.6,0.1
			c-0.8,0.3-1.3,1.9-0.6,2.8v0.5c-1.4-0.4-2.4-0.7-3.5-1.4c0.1-1.1-0.2-0.9-0.4-1.6c0.1-0.4,0.2-0.8,0.2-1.2
			c-0.1-0.3-0.3-0.3-0.4-0.8c-1.8,0.1-0.9,1.9-1.6,2.8c0.1,0.3,0.4,0.5,0.6,0.6v0.4c-0.8-0.3-2.1-0.4-2.6-1
			c-0.2-0.3,0.2-0.7-0.2-1.1c0-1.1-0.1-1.5-0.5-2.1c-0.3,0-0.5,0-0.6,0.1c-0.3,0.1-0.3,0.2-0.5,0.4c0,0.6,0,1.2,0.2,1.5v0.9
			c-0.7-0.3-1.9-0.9-2.5-0.6c-0.4-0.1-0.3,0-0.5-0.2c-0.1-0.1,0-1.5,0.1-1.6c0-1-0.2-1.2-0.5-1.8c-0.6,0-0.6,0.1-1,0.4
			c0,1.1-0.2,1.6-0.2,2.6h-1.1c-0.1-0.6-0.3-0.7-0.8-0.9c0.1-0.8,0.7-1.7,0.2-2.4c-0.2-0.4-0.4-0.3-0.8-0.5
			c-1.1,0.1-1.4,1.7-1.4,2.9c-0.8,0.2-2.2,0.1-2.9-0.4h-0.2c0-1.4,0.2-2.5,0-3.9c-0.2-0.1-0.3-0.1-0.4-0.2c-1.6,0.1-1.6,2.2-1.5,3.9
			c-0.5-0.1-1.9-0.2-2.4-0.5h-0.2c0.3-1-0.2-1.2-1.1-1.6c0.1-0.7,0.7-2.5,0.4-3c-0.1-0.3-0.2-0.3-0.4-0.5c-0.6,0-0.7,0.1-1,0.4
			c-0.5,0.6-0.7,3-0.4,3.2c-0.2,0.4-0.4,0.4-0.6,0.8c-0.8-0.1-2.8-0.7-3.1-1.4c-1.1-0.9-0.2-2.8-0.8-3.5c-0.1-0.3-0.1-0.3-0.2-0.5
			c-0.5,0.1-0.7,0.2-1,0.5c-0.3,0.4-0.5,2.4-0.1,2.9c0,0.1-0.1,0.2-0.1,0.4c-0.5,0-1.1-0.1-1.4-0.4c-0.2-0.2-0.1-0.1-0.2-0.4
			c-0.7-1,0.6-2.2,0.2-3c0-0.3,0-0.4-0.1-0.5c-0.1-0.1-0.3-0.2-0.4-0.2c-0.4,0-0.7,0-0.9,0.1c-0.7,1.1-0.9,2.5-0.6,3.9
			c-0.7,0.1-3-0.4-3.2-0.9v-1.1c-0.1,0-0.2-0.1-0.4-0.1c-0.4-0.7-0.2-1.9-0.2-2.9c-0.4,0-0.9,0.1-1,0.1c-0.4,0.1-0.4,0.3-0.6,0.5
			c-0.1,1.2-0.1,1.9,0.5,2.6v0.2c-0.5,0.1-1.5,0.2-2-0.1c-0.5-0.3-0.2-0.5-0.5-1c-0.3-0.5-1.4-0.4-1.6-0.9c0,0-0.1-2.4-0.1-2.6
			l-0.1-0.1c-0.5,0-0.8,0.1-1.1,0.4c-0.7,1-0.7,2.5,0,3.4v0.2c-0.4-0.1-0.8-0.2-1.1-0.2c0-0.6,0-0.6,0-1.1c-0.5,0-1,0.1-1.5,0.1
			c-0.2-0.2-0.5-0.4-0.8-0.6c0-0.9-0.2-1.9-0.5-2.5c-0.3,0-0.6,0-0.8,0.1c-0.1,0-0.2,0.1-0.4,0.1c-0.1,0.9-0.2,2.3,0.4,3
			c0,0.1-0.1,0.2-0.1,0.4c-1.1-0.2-2.1-0.7-3.2-0.8c-0.1-0.4-0.4-1-0.5-1.2c0-0.2,0.1-0.5,0.1-0.8c-0.2-1-0.3-1.6-0.8-2.4
			c-0.6,0.1-0.9,0.4-1.1,0.9c-0.1,0.1,0.1,2,0.2,2.2c-0.1,0.3,0,0.2-0.1,0.4c-0.7,0.4-1.7-0.4-2.5-0.5c-0.2-0.3-0.3-0.9-0.5-1.2
			h-0.2c-0.4-0.8-0.1-1.8-0.6-2.5c-0.2-0.1-0.4-0.2-0.6-0.2c-0.2,0.2-0.2,0.2-0.5,0.2c0,0.9-0.1,2.1,0.2,2.6c-0.1,0.3,0,0.2-0.1,0.4
			c-0.8,0.3-2.3-0.6-3.6-0.6v-0.1c-0.5-0.8,0-1.8-0.5-2.6c-0.2-0.5-0.4-0.5-0.8-0.8c-0.3,0-0.3,0.1-0.5,0.1
			c-0.2,0.7-0.6,1.6-0.1,2.1c0,0.4,0,0.6-0.1,0.9c-1.8,0-3.4-0.1-3.9-1.5c-0.2-0.4,0.4-0.8,0.2-1.4c-0.1-0.3-0.3-0.5-0.4-0.9
			c-0.2-0.1-0.1,0-0.2-0.1c-0.4,0-0.5,0-0.8,0.1c-0.1,0.2,0,0.6-0.1,0.9c-0.1,0.1-0.2,0.2-0.4,0.2c-0.4,1,0.6,0.7-0.1,1.6
			c0.2,0.3,0.1,0.2,0.5,0.2c-0.6,0.4-2.7,0.1-3.1-0.2c-0.5-0.7-0.7-2.1-1.1-2.9c-0.7,0-0.7,0.2-1.1,0.5c-0.1,0.4-0.3,1.2,0.1,1.5
			c0,0.4-0.1,0.5-0.1,0.8c-1.2-0.1-2.3-0.2-3.5-0.4l-0.1-0.1c0-0.2-0.1-0.5-0.1-0.8c0.1-0.3,0.5-0.5,0.4-1c-0.1-0.2-0.3-0.4-0.4-0.9
			c-0.9,0-0.9,0.2-1.4,0.5c0.1,0.7,0,1.3-0.4,2c-1.4-0.2-2.9-0.5-4.1-0.2c-0.1-0.1,0,0-0.2-0.1c0.1-0.3,0.4-0.5,0.5-0.8
			c0.1-0.5-0.2-0.8-0.2-1.4c0,0-0.1-0.1-0.1-0.1c-0.5,0-0.6,0-0.8,0.1c-0.4,0.1-0.4,0.3-0.6,0.5c-0.1,0.5-0.2,0.8-0.2,1.4
			c-0.6,0-1.6,0.1-1.9,0c-1.4,0-1-1.3-1.8-1.9c-0.2-0.1-0.3,0-0.5-0.1c-0.3,0-0.3,0.1-0.5,0.1c0,0.6,0,1.1,0.1,1.4
			c0,0.1-0.1,0.2-0.1,0.4h-1.9c0-0.6,0-0.9-0.2-1.2c0-0.8-0.2-0.8-0.5-1.2c-0.3,0-0.4,0-0.5-0.1h-0.5c-0.1,0.6-0.1,1.5,0.2,2
			c0,0.3-0.1,0.3-0.1,0.5c-0.6-0.1-2.3-0.4-2.9,0h-0.1c0.1-0.6,0.3-1.3-0.1-1.9c-0.2-0.7-0.9-0.7-1.4-0.2c-0.1,0.1-0.3,1.4,0,1.8
			v0.2c-1-0.2-3.2,0.5-4,0.1H421c0.1-0.1,0.2-0.2,0.2-0.2v-0.2c-0.2,0.1-0.2,0.1-0.5,0.1c0-0.2-0.1-0.4-0.1-0.6
			c0.1-0.3,0.6-0.3,0.2-0.9c0-0.4,0-0.5-0.1-0.8c-0.2-0.1-0.1,0-0.2-0.1c-1.4,0-1.7,1.5-1.2,2.6l-0.1,0.1c-1.2,0-1.6-0.2-2.2-0.8
			c-0.4-0.5-0.3-1.2-0.5-1.8c-0.5-0.1-0.7-0.1-1.2,0c-0.1,0.9-0.4,1.5-0.4,2.5c-0.7,0.1-2.4,0.5-3,0.1c-0.7-0.3-0.9-1.5-0.9-2.4
			c-0.1,0-0.2-0.1-0.4-0.1c-0.1-0.1-0.5,0.1-1,0.1c-0.2,0.8-0.5,1.7-0.1,2.2c0,0.3-0.1,0.3-0.1,0.5c-0.9,0.2-1.8,0.3-2.9,0.2
			c0-0.4,0.1-0.8,0.1-1.1c-0.2-0.5-0.6-0.6-0.6-1.5c-0.4,0-0.3,0.1-0.6-0.1c-0.3,0-0.3,0.1-0.5,0.1c0,1.1,0,1.8,0.1,2.8
			c-0.5,0-1.4,0-1.8,0.2h-1.2c0-0.2,0.1-0.4,0.1-0.6l-0.8-0.8c0-0.5,0.1-1,0.1-1.5c-0.2-0.5-0.3-0.3-0.2-1c-0.5,0-0.3,0.2-0.6-0.1
			c-0.4,0-0.5,0-0.8,0.1c-0.1,0.6-0.5,1.8,0,2.5c0,0.8-0.4,1-0.9,1.2c0.1,0.3,0,0.2,0.2,0.4c-0.6,0.4-1.9,0.1-2.5,0.5h-1
			c-0.1-0.3-0.1-0.6-0.2-0.8v-1.1c0.2,0.1,0.5,0.3,0.6,0.5h0.1c-0.2-0.5-0.7-0.6-0.9-0.9c0-0.2,0.1-0.4,0.1-0.6
			c-0.1-0.3-0.5-0.8-0.6-1.1c-0.4,0-0.7,0-1,0.1c-0.1,1.1,0.2,2.1-0.5,2.9v0.1c0.3-0.1,0.2-0.1,0.4-0.4c0.2,0.3,0.4,0.9,0.5,1.4
			c-1.1,0.1-2.5,0.1-3.6,0.5v-0.1c0,0,0.4-0.8,0.6-1c-0.1-0.6-0.4-0.6-1-0.6c-0.1-0.7-0.1-1.6-0.6-2.1c-0.2-0.1-0.5-0.2-0.8-0.2
			l-0.6,0.6c0.2,1.6,0.4,2,0.4,3.8c-1.1,0-1.6,0.4-2.8,0.4c-0.1-1.3-0.5-1.9-0.2-3.2c-0.2-0.2-0.4-0.4-0.6-0.6
			c-1.5,0.2-1.7,3.2-0.8,3.9c-0.4,0.7-1.8,0.3-2.5,0.8c-0.8-0.1-0.7-0.8-1.2-0.6c-0.8-0.4-0.5-2-0.9-2.5c-0.2-0.3-0.5-0.4-0.8-0.6
			c-0.3,0-0.4,0.1-0.6,0.1c-0.3,1.2-0.3,3,0.5,3.6v0.4c-0.5,0.1-1.6,0.2-1.9,0.2c-0.8,0-1.1-0.1-1.4-0.6h-0.1
			c0.1-0.1,0.2-0.2,0.2-0.2v-0.2c-0.4,0.1-0.5,0.1-0.8,0.4c-0.5,0-0.5-0.1-0.8-0.2c0-0.8,0.2-1,0.2-1.9c-0.2-0.2-0.4-0.4-0.5-0.6
			c-1.4,0-1.5,1.5-1.4,2.6c-0.7,0.1-1.1,0.2-1.6,0.4v0.2c0.5,0,1-0.1,1.4-0.4c0.4,0.1,0.5,0.3,0.6,0.8c0,0,0.1,0.1,0.1,0.1
			c-1.1,0.4-2.7,0.7-4,0.8c-0.1-0.6-0.6-0.9-0.8-1.4c0-0.1,0.5-1.2,0.1-1.8c-0.1-0.5-0.1-0.5-0.2-0.9c-0.3,0-0.6-0.1-0.9-0.1
			c-0.1,0.1-0.2,0.2-0.2,0.2c-0.9,1.3,0,3.3,0.4,4.1c0,0,0.1,0.1,0.1,0.1c-1.3,0.5-3.2,1-4.1,0.2H363c0.1-0.3,0.4-0.3,0.5-0.5
			c0.3-0.7-0.1-1.7,0.1-2.1c-0.1-0.5-0.3-0.5-0.5-0.9c-1.8,0.1-1.4,3.5-1.2,4.5c-1.3,0.1-2.7,0.8-3.5,0.1c-0.1,0-0.2-0.1-0.4-0.1
			c0-0.6,0.5-1.5,0.1-2.1c0-0.4,0-0.5-0.1-0.8c-2-0.1-2.1,3.1-1.2,3.8c-0.3,0.6-2.1,0.9-3,0.9c-0.1-1.3-0.4-2.3-1-3.2
			c-0.2-0.1-0.1,0-0.2-0.1c-0.5,0-0.6,0.1-0.9,0.2c0,1.6,0.2,2.3,0.8,3.6c-1.3,0.5-3.1,0.6-4.1,1.4c-0.8-0.1-1.5-2.3-0.6-2.8
			c-0.1-0.8-0.4-0.9-0.8-1.4c-0.3,0-0.4,0-0.5,0.1c-0.4,0.1-0.4,0.3-0.6,0.5c0,0.6-0.3,1.6-0.1,2.2c0.1,0.6,0.5,1,0.6,1.6
			c-0.8,0.1-1.6,0.6-2.2,0.5c-1.1-0.5-1.1-3-1.6-4c-0.6,0-0.7,0.1-1,0.2c-0.3,1.9,0.3,2.2,0.5,4c0.3,0,0.2,0,0.4,0.1h0.2
			c-0.3,0.6-3.1,1-3.9,1.5c-1-0.7-0.3-2.2-1-3.2c-0.1-0.1-0.3-0.2-0.4-0.2c-0.4,0.1-0.6,0.3-0.9,0.5c-0.6,1.4,0.1,2.2,0.4,3.5
			c0.3,0,0.2,0,0.4-0.1h0.1c0,0.1-0.1,0.2-0.1,0.4c-1.4,0.3-2.4,0.9-3.8,0.8c-0.1-0.2-0.1-0.4-0.2-0.5c0.2-0.3,0-0.1,0.4-0.2
			c-0.2-0.3,0-0.1-0.4-0.2c0-0.4,0.1-0.8,0.1-1.2c-0.5-0.4-0.7-0.7-1.4-1c-0.6,1.2-0.8,3.2,0.1,4.2c-0.3,0.5-1.4,1-2.1,1v-0.5
			c-0.3,0-0.3-0.1-0.5-0.1c-0.2-0.6-0.2-1.9-0.5-2.4c-0.2-0.3-0.3-0.3-0.5-0.5c-0.3,0.1-0.5,0.2-0.8,0.4v0.5h0.4l-0.5,0.5
			c0,0.6,0.5,2.3,1,2.6c-0.4,0.8-1.8,0.8-2.5,1.4c-0.6-0.1-0.5-0.3-0.8-0.6c-0.1-0.1-0.1,0.1-0.5,0.1c0.1-1-0.1-2.2-0.9-2.6
			c-0.1-0.1,0,0-0.2-0.1c-0.3,0.4-0.2,0.5-0.6,0.8c0.1,0.9,0.6,2.9,1,3.4c-0.2,0.5-2.1,1.2-2.8,0.8c-0.3,0-0.4,0-0.5-0.1
			c-0.5-0.7-0.4-2-0.8-2.5v-0.2c-0.6,0-0.8,0.1-1.1,0.2c-0.1,1.4,0,2.9,0.8,3.8c-0.3,0.6-1.2,0.7-1.6,1.1c-1.7-0.2-2.6-1.5-3-3
			c-0.2-0.1-0.1,0-0.2-0.1c-0.5,0.1-0.4,0.1-0.8,0.4c0,1.4,0.4,3.8,1.8,3.5v0.2c-0.7,0.3-1.2,0.8-1.8,1.1c-0.4,0.3-0.9,0.2-1.2,0.5
			c-0.8-1.1-1.2-2.5-1.8-3.8c-0.5,0.1-0.6,0.2-1,0.4c-0.2,1.2,0.4,1.7,0.6,3c0.4,0.2,1,0.5,1.4,0.8c0.2,0.1,0.1,0,0.2,0.1
			c-0.7,0.3-2.5,1.4-2.9,2c-0.4-0.2-0.7-0.6-0.9-1c-0.4-0.6,0.1-1.4-0.1-2c-0.1-0.3-0.3-0.8-0.4-1.2c0-0.3,0.1-0.7,0.1-1
			c-0.1-0.2-0.3-0.2-0.2-0.6c0.1-0.8,0.5-1.3,0.5-2.4c0.3,0.1,0.6,0.3,0.9,0.5h0.1c-0.1-0.4-0.3-0.5-0.6-0.6
			c0.1-0.4,0.1-0.4,0.2-0.6c0-1.3-0.5-1-1-1.6c-1.6,0.1-1,0.9-1.4,1.9c-0.1,0.3-0.9,2.1-0.8,2.8c0.2,1.1,0.6,2.3,0.4,3.6
			c-0.2,1,0.9,2.2,1.2,3c0,0.5,0.1,1,0.1,1.5c0.2,0.5,0.7,1.5,0.9,2v0.9c0.1,0,0.2,0.1,0.4,0.1c0,0.5-0.1,0.9-0.1,1.4
			c0.1,0.3,0.3,1.1,0.4,1.5c0,0.2-0.1,0.5-0.1,0.8c0.5,1,1.2,2.3,1.6,3.4c0.4,0.8,0.3,1.7,0.6,2.5l0.5,0.5c0,0.2-0.1,0.4-0.1,0.6
			c0.2,0.5,0.8,1.1,0.9,1.6c0,0.1-0.2,0.3-0.1,0.6c0.4,1.2,1,2.7,1.5,3.9c0.3,0.7,0.1,1.7,0.5,2.4c0.4,1.2,1.2,0.3,1.8,0.9
			c0.1,0.1,0,0.4,0.1,0.5c0,1.5-1.1,1.6-1.9,2.4h-0.1c0-0.5-0.1-0.7,0-1c-0.1-0.4-0.8-0.5-1.5-0.6c-0.1,0.3-0.2,0.4-0.4,0.6
			c0,0.4,0.1,0.8,0.2,1c0.2,0.4,0.1,0.3,0.6,0.4c-0.4,0.8-1.3,0.8-2,1.4c-0.3-0.2-0.3-0.3-0.5-0.5c0-1.2,0.4-1.7,0.5-2.9
			c0.2-0.1,0.4-0.2,0.6-0.2c0.1-0.8,0.2-1.5,0.5-2.4c-0.2-0.1-0.2-0.1-0.5-0.1c0-0.4,0.1-0.7,0.1-0.9c-0.3-0.6-1-1.7-1.2-2.4
			c-0.2-0.5,0-1.5-0.1-1.8c-0.4-0.8-1.3-1.8-1.6-2.8c-0.3-0.8-0.2-1.6-0.5-2.4c-0.4-0.9-1.1-1.4-1.1-2.8H307c0-0.3,0.2-0.5,0.2-0.6
			c0-0.2-0.5-1.5-0.6-1.8l-0.8-0.8c-0.2-0.5,0.3-1.3,0-1.9c-0.3-0.6-0.9-0.8-1.2-1.2c-0.4-0.6-0.2-2-0.6-2.6c-0.1,0-0.2-0.1-0.4-0.1
			c-0.3-0.4-0.3-1-0.2-1.6H303c-0.2-1.8-1.3-3.6-1-4.4c-1-0.6-0.5-1.2-1-2.1c-0.4-0.8-1.3-1.3-1.6-2.2c-0.5-0.1-1.1-0.4-1.4-0.2
			c-0.5,0-0.5,0.1-0.8,0.2c0.2,1.6,1.2,1.3,1.6,2.2c-0.2,0.6,0.8,1.5,1,2.1c0.8,2.3,0.9,4.3,2,6.2c-0.1,0.4,0.1,1,0.4,1.2v0.2
			c-0.1,0-0.2,0.1-0.4,0.1c-0.5-0.7-1.2-0.8-1.8-1.4c-0.4-0.4-0.4-1.1-0.8-1.5c-0.2-0.2-0.7-0.2-0.9-0.5c-0.3-0.5-0.1-1.3-0.5-1.9
			c-0.4-0.6-1.1-1.1-1.5-1.8v-0.4c-0.3-0.2-0.6-0.5-0.9-0.8c-0.5-0.8-0.7-1.8-1.4-2.2c-0.7-0.4-2.7-1-3.5-0.8
			c-0.7,0.2-1.5,0.8-2.5,0.6c-1.6-0.3-4.1,1.7-5.2,2.5c-0.9,0.6-1.9,1.2-2.8,1.8c-0.3,0.1-0.7,0.2-1,0.4c0,0.2-0.1,0.3-0.1,0.5
			c-0.2,0-0.5,0.1-0.8,0.1c-0.8,0.4-1.5,1.3-2.2,1.8c-0.2,0.1-0.5,0.2-0.8,0.2c-1,0.8-3.1,2.4-4.6,2.6c0.2-0.8,0.9-1.1,1-2
			c0.5-0.1,0.5-0.4,1-0.6v-0.6c0.2,0,0.5-0.1,0.8-0.1c-0.1-0.2,0-0.1-0.1-0.2c0.2-0.4,0.7-0.3,1-0.6c0.3-0.3,0.4-1,0.8-1.2
			c0.2-0.1,0.5,0.1,0.6-0.1c0.2-0.3,0.2-0.7,0.4-1c0.5-0.4,1-0.8,1.5-1.2v-0.6c0.3-0.6,2.2-1.5,2.8-2c0.3-0.3,1.8-2.4,2-2.8
			c0.2-0.4,0-0.5,0.2-0.8c-0.1-0.5-0.2-0.7-0.6-0.9c0.1-0.3,0.1-0.3,0.4-0.5c-0.1-0.8-0.5-0.9-0.9-1.4c-2.9,0-6.5,1.9-8.4,3.1
			c-0.4,0.3-0.6,0.8-1,1.1h-0.4c-0.5,0.3-3.2,2-3.4,2.4c-0.1-0.2,0-0.1,0-0.5c-0.6,0.2-2,2.2-2.6,2.6c-0.7,0.5-1.4,0.8-2.1,1.2
			c-0.9,0.6-1.6,1.7-2.5,2.2c-0.3,0.1-0.6,0.2-0.9,0.2c-0.9,0.6-0.9,1.9-2.1,1.9c0,0.2,0.1,0.4,0.1,0.6c-1.7,0.2-2.7,1.8-3.9,2.6
			c-0.5,0.3-1.6,0.5-2,0.8c-0.1,0.1-0.2,0.5-0.4,0.6c-0.5,0.3-0.9,0.4-1.4,0.6c0,0.1-0.1,0.2-0.1,0.4c-0.1,0.1-1.4,1.2-1.5,1.2
			c-0.4,0.2-0.6,0-0.9,0.1c-0.2,0.1-0.1,0.5-0.2,0.6h-0.5c-0.5,0.3-1,0.8-1.5,1.1c-1.4,1-2.3,2.9-4.5,3.1c-0.2,0.4-0.3,1.4-0.5,1.8
			c-0.5,1.3-3.6,1.6-4.6,0.8c-0.4-0.4-0.4-0.8-1-1c0.1-0.8,0.3-1.1,0.2-2.1c1.4,0,5.1-0.7,5-1.8c1.2,0,1.4-0.5,2.1-0.9
			c0.8-0.4,1.7-0.4,2.4-0.9c0.2-0.2,0.4-0.5,0.6-0.8c0.2,0,0.4-0.1,0.6-0.1c0.2-0.1,0-0.3,0.1-0.5c0.1-0.2,0.4-0.1,0.6-0.2
			c0.5-0.4,0.7-1.2,1.2-1.5c0.7-0.4,1.3-0.6,1.9-1c0.4-0.3,0.7-1.2,1-1.4h0.9c0.6-0.2,1.3-0.7,1.9-1.1c0.9-0.6,1.5-2,2.6-2.4v-0.6
			c1.8-0.1,1.2-1.2,1.9-1.6c0.2,0,0.5-0.1,0.8-0.1c0.7-0.4,1.1-1.5,1.8-1.9c0.3-0.2,0.6-0.1,0.9-0.2c0.2-0.1,0.4-0.5,0.6-0.6
			c3.4-2.3,6.5-4.9,10.1-7c0.2-0.1,1.7-1.4,1.9-1.6c0.2-0.3,0-0.5,0.2-0.6c0.2-0.1,0.5-0.2,0.8-0.2c0.5-0.5,0.9-1,1.4-1.5
			c1.4-1,2-1,3.1-2.4c0.3-0.3,0.7-0.3,1.1-0.5c0.2-0.1,0.3-0.6,0.5-0.8c1-0.9,1.9-1.6,2.8-2.8c0.5-0.6,1.4-1.2,1.1-2.1h0.1
			c0,0,0.1-0.1,0.1-0.1v0.1c0.6-0.1,0.6-0.2,1-0.5v-0.4c0.5,0.1,0.5,0.2,0.8-0.1c1.4-0.1,2.2-1.3,2.8-2.2c0.5-0.8,1.8-1.5,2.4-2.2
			c0.3-0.5,0.6-0.9,1-1.2v-0.6c0.3,0,0.3,0.1,0.5,0.1c0.3-0.9,1.1-1,1.6-1.8c0.2-0.3-0.1-0.6,0-0.8c0.4-0.1,0.8-0.2,1.1-0.4l1.2-1.2
			c0-0.1-0.2-0.3-0.1-0.5c0,0,0.5,0.2,0.6,0.1c0.2-0.3,0.3-0.6,0.5-0.9h0.4v-0.4c0.8-0.3,1.2-0.7,1.9-1.1v-0.4
			c0.4-0.1,0.4-0.1,0.6-0.2c0.4-0.2,0.4-0.9,0.8-1.1c0.2-0.1,0.5-0.2,0.8-0.2c0.5-0.5,0.9-1,1.4-1.5c0.3-0.2,0.7,0,1-0.2
			c0.2-0.1,0-0.4,0.1-0.6c0.5-0.2,1.1-0.5,1.6-0.8c0.1-0.3,0-0.2,0.1-0.4c0.3-0.4,0.5-0.2,0.9-0.5c0.5-0.3,0.9-0.9,1.4-1.2
			c0.1,0,0.2,0.1,0.4,0.1c0.2-0.1,0.1-0.4,0.2-0.5c0.3-0.3,0.8-0.2,1.1-0.5h0.1c0.1-0.2-0.1-0.2-0.1-0.2c0,0,3.5-2.1,4-2.2
			c0-0.3,0-0.4-0.1-0.5c0.2-0.4,1.2-0.5,1.8-0.9c0.9-0.6,2.9-2.4,3.9-2.6c-0.1-0.3-0.1-0.4,0-0.6c0.2-0.1,0.7,0,1.1-0.2
			c0.1-0.1,0.2-0.2,0.2-0.4c0.4-0.3,1-0.2,1.4-0.5c0.3-0.2,0.5-0.8,0.8-1c0.3-0.2,0.7-0.1,1-0.2c1.1-0.7,2.5-1.3,3.5-2.1l0.1-0.1
			c0,0.2,0.1,0.4,0.1,0.6c0.5,0,0.5,0.1,0.8,0.2c0.2-0.2,0.4-0.4,0.6-0.5c0-0.4,0-0.6-0.1-0.9v-0.2c0.3,0.1,0.2,0,0.4,0.2
			c0.3-0.1,0.2,0,0.4-0.1c0.1-0.3-0.1-0.2-0.2-0.6c1.5-0.6,3.2-2.2,4.9-2c0-0.3,0-0.5,0.1-0.6c0.2-0.1,0.9,0.1,1.4-0.1
			c0.1-0.1,0-0.5,0.1-0.5c0.3-0.2,0.7,0.2,1-0.1c0.1-0.1,0.1-0.1,0.1-0.4c1.4,0.1,2.7-0.9,3.8-1.5c0.5-0.3,1.3-0.1,1.8-0.4
			c0.1-0.2,0,0,0-0.4c1,0.1,1.3-0.5,2.5-0.5v-0.5c1.7,0.2,2.3-0.8,3.8-1v-0.4c1.5,0,3.1-0.4,4.1-1c0.2-0.3,0.5-0.6,0.8-0.9
			c0.5-0.2,1,0,1.4-0.1c0.2-0.1,0.3-0.5,0.5-0.6c0.4-0.2,1,0.2,1.6-0.1c0.1-0.2,0.2-0.4,0.4-0.6c0.5,0.3,1.5-0.6,2-0.8
			c0.5,0,1-0.1,1.5-0.1c0.7-0.3,0.6-0.8,1.8-0.8v-0.4c1.2,0.2,2.2-0.2,3.1-0.6l0.4-0.4c0.2,0,0.5,0.1,0.8,0.1c0.4-0.1,1.5-0.5,2-0.6
			c0.8,0,1.7-0.1,2.5-0.1c0.1,0,0.5-0.4,0.5-0.4c0.3-0.1,0.7,0.3,1.1,0.1l0.2-0.5c1-0.5,2.4,0,3.4-0.4l0.5-0.5
			c0.1,0,0.2,0.2,0.5,0.1c0-0.1,0.1-0.2,0.1-0.2c0.3,0,0.6,0.1,0.9,0.1c0.1-0.1,0.2-0.2,0.2-0.4c0.6-0.2,1.4,0.3,2,0.1
			c0.3-0.1,0.9-0.6,1.1-0.6c0.3-0.1,0.9,0.3,1.4,0.2c0.9-0.2,1.5-0.3,2.4-0.1c0.9,0.1,0.8-0.3,1.1-0.5c0.5-0.3,2.7,0,3,0
			c0.2-0.3,0.3-0.5,0.5-0.8c0.3,0.1,0.3,0.3,0.5,0.4c1,0.3,1.5-0.8,2.8-0.5c1.3,0.3,5,0,6.8-0.5c0,0,0.1,0.1,0.1,0.1
			c-0.2,0.2-0.4,0.2-0.8,0.2c-0.1,0.5-0.1,0.6,0,1.1c0,0,0.1,0.1,0.1,0.1c1.2,0,1.2-0.5,1-1.2c0.1-0.1,0,0,0.1-0.2
			c0.5,0,0.9-0.1,1.4-0.1c0.1,0,0.5-0.5,0.6-0.5c0.2-0.1,1,0.3,1.2,0.4c0.8,0.2,1.2-0.2,1.8-0.2c0.5,0,1.1,0.1,1.6,0.1
			c1.9-0.5,4-0.8,6.1-0.1c1.1,0.3,3.5-0.2,3.9,0.4c0.4-0.1,0.2,0,0.4-0.4c0.4,0.2,0.5,0.3,1,0.1c-0.1,0.3-0.2,0.3-0.5,0.5v0.5
			c0.4,0.1,0.5,0.2,1.1,0.2v-0.4c0.4-0.2,0.8-0.3,1-0.6c0.8,0,2-0.1,2.5,0.2c0.1,0,0.2,0.1,0.4,0.1v0.1c-0.3,0-0.5,0-0.6-0.1
			c-0.5,0.1-0.4,0.2-0.8,0.4v1.4c0.3,0.1,0.6,0.1,0.8,0.2c0.6,0,0.7-0.1,1.1-0.2c0.1-0.7,0-1.1-0.1-1.8c1.9,0,3.5,0.3,5.2,0.1
			c0,0.4,0,1,0.1,1.2v0.2c0.6-0.1,0.9-0.3,1.2-0.1c0.6-0.1,0.5-0.2,0.9-0.4c0-0.2,0.1-0.4,0.1-0.6c0.5,0,1.4-0.1,1.8,0.1h0.2
			c-0.1,0.2,0,0.1-0.1,0.2c0.1,0.4,0.1,0.4,0.2,0.6c0.3,0.1,0.7,0.2,1,0h0.4c-0.2,0.6-0.7,1.4-0.5,1.9c0,0.6,0.1,0.6,0.5,0.8
			c0,0,1.1-0.4,1.6-0.1c0.3-0.2,0.4-0.5,0.6-0.8c0-0.6-0.1-0.6-0.4-1c0.3-0.1,0.6-0.2,0.8-0.1h0.8c-0.2,0.4-0.4,0.8-0.1,1.1
			c0,0.1,0.1,0.2,0.1,0.4c0.3,0,0.5,0,0.6-0.1c0.4-0.1,0.2,0,0.4-0.4c0.1-0.2,0-0.3,0-0.8c0.3,0,0.4,0,0.5-0.1c0.9,0.5,0.1,0.7,0,1
			c0,0,0.2,0.8,0.1,1.2c0.4,0,0.6-0.1,0.9-0.2c0.5-0.3,0.9-1.2,1.1-1.8c0.6,0.1,0.2,0.3,0.5,0.4h0.1c0.6,0.1,0.5-0.3,0.8-0.4
			c0.3-0.1,1.2,0.1,1.6,0.1c0,0.6,0.1,0.7,0,1.2h-1.1c0.1-0.2,0.2-0.3,0.4-0.5v-0.2c-0.5,0-0.8,0.1-1,0.2c-0.3,0.2-0.3,0.3-0.5,0.5
			c0.3,0.8,1,0.8,1.5,1.2c0.8-0.1,2-1.4,2-2c1.5,0.1,2.9,0.7,4.1,1c1,0.3,2,0,2.9,0.4l0.5,0.5h1c0.6,0.2,1.2,0.6,1.8,0.8
			c0.3,0,0.7-0.1,1-0.1c1.5,0.5,3.4,1.3,5.2,1.5c-0.1,0.4-0.2,0.4-0.5,0.6c0.1,0.5,0.4,0.7,0.6,1.1c0.6-0.1,0.8-0.6,0.8-1.4
			c1.9,0,2.9,0.7,4.1,1.1c0.6,0,1.2,0.1,1.8,0.1c0.6,0.3,1.4,0.8,2.1,1c0.2,0,0.5-0.1,0.8-0.1c0.3,0.1,1,0.5,1.2,0.6
			c0.4,0,0.8-0.1,1.1-0.1c1.1,0.4,2.3,1.1,3.6,1c0,0.3,0,0.2,0.1,0.4c0.4,0.5,0.4-0.2,1,0.1c0,0.1,0.1,0.2,0.1,0.4
			c0.7,0.5,1.4,0.3,2.4,0.6c0.3,0.1,0.8,0.6,1.1,0.8c0.4,0.2,2,0.2,2.2,0.4c0,0.1,0.1,0.2,0.1,0.4c0.2,0.1,1,0.3,1.1,0.4h1.1
			l0.5,0.5c1.9,0.8,3.8,1.6,5.6,2.2c0.5,0.2,1.1,0.4,1.5,0.5h1c0.4,0.2,1,0.8,1.5,1h0.8c0,0.1,0.1,0.2,0.1,0.2
			c0.4,0,0.8,0.1,1.1,0.1c0,0.1,0.1,0.2,0.1,0.2c0.6,0,1.2,0.1,1.9,0.1c0.1,0.2,0.2,0.4,0.4,0.6c0.6,0.4,1.4,0.2,2.1,0.5
			c1.9,0.9,3.8,1.6,5.9,2.4c1.2,0.5,2.5,1.4,3.6,1.9h0.8c0.3,0.1,0.6,0.6,0.9,0.8c0.7,0.4,1.3,0.4,2.1,0.8c0.6,0.3,1.2,1,1.8,1.2
			c0.3,0.1,0.7,0,1,0.1c0.3,0.2,0.6,0.8,1,0.9c0.4,0.1,0.8-0.1,1.4,0.2c0.2,0.1,0.2,0.5,0.4,0.6c0.3,0.2,0.7,0.1,1,0.2
			c0.9,0.5,1.8,1.5,2.8,1.9c0.3,0,0.6-0.1,0.9-0.1c0.5,0.3,1.1,1.2,1.6,1.5c0.7,0.4,1.8,1.1,2.4,1.4c0.3,0,0.6,0.1,0.9,0.1
			c0.9,0.6,1.9,1.5,2.9,2c0.5,0.3,0.9,0.3,1.5,0.5c1,0.4,2.1,1.3,3,1.8c0.6,0.3,1.3,0.2,1.9,0.6c2.1,1.4,4.3,2.9,6.4,4.2
			c0.5,0.3,1,0.2,1.6,0.5c0.6,0.3,1.5,1.1,2,1.5c0.5,0.2,0.9,0.3,1.4,0.5c1.3,1,3.9,2.7,5.6,2.9v0.4c0.8,0.4,1.4,1.1,2.1,1.6
			c0.3,0.2,1.7,0.3,1.9,0.5c0.2,0.2,0.1,0.5,0.2,0.6c1.1,0.9,2.5,1.3,4,1.9c0.7,0.3,1.4,1,2.1,1.4c1.6,0.8,3.1,1.1,4.8,1.8
			c4.2,1.8,8.8,3.5,13,5.1h1c0.2,0.1,0.6,0.4,0.9,0.5c0.5,0,1,0.1,1.5,0.1c3.9,1.1,8.9,1.8,12.6,3.2c0.9,0.3,1.9,0.3,2.8,0.8
			c0.5,0.3,0.7,1,1.1,1.4C608.7,310.6,608.2,310.9,607.5,311.2z M413.7,241.1c-0.3-0.1-0.6-0.1-1-0.1c-0.1,0.3-0.3,0.7-0.1,1
			c0,0.6,0,0.7,0.5,0.9l0.6-0.6c0-0.4,0.1-0.3,0-0.5V241.1z M407.4,241.2c-0.4,0-0.7,0-0.9,0.1c-0.1,0.1-0.2,0.4-0.2,0.5
			c0.1,0.5,0.1,0.5,0.2,0.9h1.1C407.8,241.9,407.6,241.9,407.4,241.2z M412,242.6c0-0.8-0.1-0.5-0.2-1.2c-0.3,0-0.6,0-0.8,0.1h-0.2
			c0,0.4,0,0.8,0.1,1v0.2c0.3,0.1,0.5,0.2,0.8,0C411.8,242.7,411.9,242.6,412,242.6z M416.3,242.3c0,0.3,0,0.2,0.1,0.4
			c0.2,0.4,0.4,0.2,0.6,0.6c0.5-0.1,1-0.5,1.2-0.9h0.9c-0.1-0.6-0.2-0.6-0.5-1C417.5,241.5,417.1,241.8,416.3,242.3z M405,242.2
			c-0.2-0.1-0.6,0.1-1,0.1c0,1,0.2,1,0.5,1.5c0.5-0.1,0.5-0.3,0.9-0.5C405.4,242.7,405.4,242.5,405,242.2z M396.7,243.7h0.8
			c0.1-0.3,0.1-0.3,0.2-0.5c0-0.6-0.1-0.7-0.6-0.9c-0.2-0.1-0.3-0.1-0.6-0.1c-0.1,0.2-0.1,0.4-0.2,0.5c0,0.5,0.1,0.6,0.2,0.9
			C396.6,243.7,396.5,243.6,396.7,243.7z M428.8,242.6c-0.1,0.7,0,1,0.5,1.4v0.1c0.3-0.1,0.4-0.2,0.6-0.4c0.1-0.2,0.6-1.2,0.6-1.4
			c-0.3-0.1-0.6-0.1-1-0.1C429.4,242.4,429.1,242.5,428.8,242.6z M392.5,244.4h0.5c0-0.6,0-1.3-0.1-1.8c-0.7,0-0.9,0-1,0.6
			c-0.1,0.2-0.1,0.4,0.1,0.6L392.5,244.4z M408,242.7c-0.3,0.2-0.1,0-0.2,0.4h0.4C408.1,242.9,408.1,242.8,408,242.7z M435,243.7
			c-0.6-0.1-0.9-0.2-1-0.8c-0.4,0-0.2,0-0.6,0c-0.1,0.1-0.2,0.2-0.4,0.2c-0.1,0.3-0.2,0.8-0.4,1c0.2,0.5,0.5,0.4,0.9,0.8
			c0.1,0.2,0,0.2-0.1,0.4v0.2c0.3-0.1,0.2-0.1,0.5-0.2c0.1,0.2,0.2,0.3,0.2,0.6c0.6-0.1,0.6-0.4,1-0.8
			C435.1,244.5,435,244.4,435,243.7z M421.3,243.1c-0.2,0.3-0.5,0.5-0.2,0.9c0,0.1,0.1,0.2,0.1,0.4c0.5,0,0.7-0.1,0.9-0.5
			c0.1-0.3-0.1-0.4-0.2-0.8H421.3z M381.9,243.7c-0.2,0.4,0,0.3-0.5,0.4c0.1,0.6,0.2,0.9,0.2,1.6c0,0,0.1,0.1,0.1,0.1
			c0.5,0,0.6-0.1,0.9-0.4c0.1-0.1,0.2-0.3,0.2-0.4C382.8,244.4,382.5,243.9,381.9,243.7z M396.9,244.1c-0.6,0.3-0.3,1,0,1.4h1
			c0.1-0.6,0.3-0.8,0.4-1.5C397.7,243.9,397.2,243.9,396.9,244.1z M423.3,244.1c-0.2,0.3-0.5,0.4-0.6,0.9h-0.1
			c0.1,0.3,0.3,0.5,0.5,0.8c0.5,0,0.6-0.1,0.9-0.2c0-0.6,0-1-0.2-1.2C423.5,244.1,423.6,244.1,423.3,244.1z M388.8,244.9
			c0.1-0.1,0,0,0.1-0.2c-0.1-0.1-0.2-0.2-0.2-0.4c-0.2,0-0.4-0.1-0.6-0.1c-0.2,0.3-0.5,0.5-0.2,0.9c0,0.1,0.1,0.2,0.1,0.4
			C388.3,245.4,388.6,245.2,388.8,244.9z M385.9,244.4c-0.4,0-0.8,0.1-1.1,0.1c-0.1,0.6,0,0.8-0.4,1c0.1,0.2,0.2,0.4,0.4,0.5
			c0.2,0.2,0.4,0.2,0.8,0.2c0.1-0.6,0.2-0.7,0.6-0.9c-0.1-0.3-0.1-0.5-0.1-0.6C386,244.7,386,244.6,385.9,244.4z M378.4,244.6v0.1
			l-0.4,0.4c0.1,0.4,0.1,0.4,0.2,0.6h0.5c0-0.3-0.1-0.8-0.2-1C378.5,244.7,378.5,244.6,378.4,244.6z M440.4,245.3
			c-0.2,0.3-0.2,0.4-0.5,0.6c0.2,0.4,0.4,0.5,0.5,1c0.3,0,0.4,0,0.5-0.1c0.4-0.1,0.5-0.3,0.6-0.8c0.1-0.1,0,0,0.1-0.2l-0.5-0.5
			H440.4z M390.7,245.6l-0.1,0.1c0.1,0.2,0.2,0.3,0.4,0.5c0.3,0,0.4,0,0.5-0.1c0.1-0.2,0-0.2,0.1-0.5c-0.1,0-0.2-0.1-0.4-0.1
			C390.9,245.7,391,245.6,390.7,245.6z M449,245.4c-0.6,0-0.7,0.1-1,0.2c0.1,0.4,0.2,0.8,0.2,1.2c1.2,0.1,0.9,0.4,1.8-0.1
			c0-0.5,0-0.4,0-0.9C449.7,245.8,449.3,245.7,449,245.4z M377.5,245.7c-0.1-0.1-0.2-0.1-0.5-0.1c-0.1,0.2-0.1,0.4-0.2,0.5
			c0,0.5,0.1,0.7,0.4,1c0,0,0.1,0.1,0.1,0.1v-0.1c0.5-0.2,0.6-0.4,0.8-0.9h0.1C378,245.9,377.9,245.8,377.5,245.7z M388.5,246.3
			c0-0.3-0.1-0.3-0.1-0.5h-0.5c0.1,0.3,0.1,0.3,0.2,0.5c0.1,0.1,0,0,0.2,0.1L388.5,246.3z M397.7,246.2c0.3-0.2,0.1,0,0.2-0.4h-0.5
			C397.5,246.1,397.5,246,397.7,246.2z M454,246.4c-0.2-0.4-0.4-0.5-0.8-0.6c-0.1,0.1-0.2,0.2-0.4,0.2c-0.1,0.6,0.1,1,0.5,1.4v0.1
			c0.3-0.1,0.5-0.2,0.8-0.4C454.2,246.9,454.2,246.6,454,246.4z M443.2,245.9c-0.2,0.2-0.4,0.4-0.6,0.5c0,0.4,0,0.7-0.1,0.9
			c0,0.1,0.1,0.2,0.1,0.4c1,0,0.8-0.3,1.2-0.8c0-0.4-0.1-0.5-0.2-0.8C443.4,246,443.5,246.1,443.2,245.9z M370.8,246.7
			c-0.8,0-0.8-0.3-1.5-0.4c-0.1,0.4-0.1,0.4-0.2,0.8c0.2,0.2,0.4,0.5,0.5,0.8c0.7-0.1,0.6-0.5,1.2-0.8V246.7z M417.3,247.3
			c0.3,0.1,0.4,0.3,0.6,0.5c0.2-0.4,0.5-0.9,0.2-1.4c-0.4,0.3-1.2,0.4-1.5,0.2h-0.2c0,0.3-0.1,0.4-0.1,0.6c0.2,0.2,0.3,0.4,0.4,0.8
			C417.2,248,417.3,247.9,417.3,247.3z M428.4,246.6c-0.5,0.4-1.2,0.7-1.8,1c0,0.6,0.1,0.6,0.4,1c1.1-0.2,1.4-0.9,2.1-1.4
			c-0.1-0.3-0.2-0.3-0.4-0.6H428.4z M392.2,246.9c-0.1,0.1-0.2,0.2-0.4,0.2c0.2,0.3,0.5,0.4,0.8,0.6h0.1c0-0.3,0-0.6-0.1-0.8
			C392.4,247,392.4,247,392.2,246.9z M432.2,248.3c0.1-0.2,0.1-0.3,0.2-0.4c-0.1-0.6-0.2-0.6-0.5-1h-0.6c-0.1,0.1,0,0-0.2,0.1
			c-0.1,0.3-0.1,0.4,0,0.6C431.1,248.5,431.4,248.4,432.2,248.3z M456.7,248.4c0.5-0.1,0.4-0.3,0.8-0.5c-0.1-0.6-0.4-0.9-1-1
			c-0.1,0.1-0.2,0.2-0.4,0.2c0,0.4,0.1,0.6,0.2,0.9L456.7,248.4z M382.3,247.4h-0.5c-0.1,0.2-0.2,0.5-0.4,0.6c0,0.3,0,0.2,0.1,0.4
			c0.2,0.5,0.8,0.5,1.1,0.1c0.1-0.2,0.2-0.1,0-0.2C382.6,247.8,382.5,247.8,382.3,247.4z M458.7,247.4c-0.2,0.2-0.2,0.2-0.5,0.2
			c0.2,0.5,0.4,0.7,0.5,1.2c0.2,0.1,0.1,0,0.2,0.1c0.5-0.1,0.5-0.2,0.8-0.5c0-0.4,0-0.6-0.1-0.9
			C459.3,247.6,459.1,247.5,458.7,247.4z M447.8,247.7c-0.1,0.1-0.1,0.1-0.4,0.1c0,0-0.1,0.1-0.1,0.1c0,0.4,0.2,0.5,0,0.8
			c0,0.3,0.1,0.3,0.1,0.5c0.4,0,0.5-0.1,0.8-0.1c0-0.5,0.1-0.7,0-1C448,247.8,448.1,247.8,447.8,247.7z M394.9,249.7
			c0.2,0,0.4-0.1,0.6-0.1c0.1-0.3,0.3-0.8,0.5-1c0-0.5,0-0.5-0.4-0.6c-0.3,0.3-0.5,0.4-1.1,0.4l-0.1,0.1c0,0.3,0,0.5,0.1,0.6
			C394.7,249.4,394.8,249.4,394.9,249.7z M388.7,248.3c-0.1,0.2-0.2,0.5-0.2,0.8c0.2,0.2,0.4,0.4,0.5,0.6c0.5,0,0.6-0.1,0.9-0.2
			c0-0.3,0-0.5,0.1-0.6v-0.6c-0.2,0-0.5-0.1-0.8-0.1C389.1,248.2,388.8,248.2,388.7,248.3z M438.5,248.1c-0.2,0.1-0.4,0.3-0.6,0.4
			c0.2,0.6,0.7,0.8,1.1,1.2c0.6-0.2,0.2-0.3,0.5-0.8c0-0.3-0.1-0.4-0.1-0.6C439.1,248.2,438.9,248.1,438.5,248.1z M412.3,248.3
			c-0.2,0.3-0.5,0.5-0.9,0.6c0.1,0.5,0.5,0.5,0.8,0.9c0.6-0.1,0.5-0.2,0.9-0.4C413.1,248.7,412.9,248.5,412.3,248.3z M362.3,248.9
			c0-0.1-0.1-0.2-0.1-0.4h-0.5c-0.2,0.3-0.4,0.9-0.6,1.1c0.2,0.3,0.3,0.2,0.5,0.4c0.5,0,0.6-0.1,0.9-0.2
			C362.4,249.5,362.4,249.1,362.3,248.9z M377,250.9c0.1-0.3,0-0.2,0.2-0.4c-0.1-1-0.7-1-0.9-2c-0.7,0.1-0.5,0.2-1,0.4
			c0.2,0.6,0.4,0.8,1.2,0.8c-0.1,0.3-0.3,0.4-0.5,0.6c0.1,0.9,0.4,1.5,0.8,2.1c0.4-0.1,0.4-0.1,0.8-0.2c0-0.3,0-0.2,0.1-0.4
			C377.6,251.3,377.5,251.2,377,250.9z M408.7,250.2c0.1,0,0.2-0.1,0.4-0.1c0-0.4-0.1-0.8-0.1-1.2c0,0-0.1-0.1-0.1-0.1h-0.5
			c-0.1,0.2-0.3,0.4-0.5,0.6c0.1,0.6,0.2,0.6,0.5,1C408.6,250.3,408.5,250.3,408.7,250.2z M371.5,248.8c-0.4,0.4-0.7,0.6-1,1.1h-0.1
			c0.4,0.3,0.6,0.1,0.9,0.5c0.6-0.1,1-0.6,1.1-1.1l-0.5-0.5H371.5z M365.3,248.9c-0.1,0.4-0.1,0.4-0.2,0.6c0,0.5,0.1,0.6,0.2,0.9
			c0.4,0,0.5,0,0.8-0.2c0.4-0.5,0.1-0.8-0.1-1.2H365.3z M364.7,249.4c0.1-0.1,0.1-0.1,0.1-0.4h-0.5v0.5h0.4V249.4z M431.5,250.3v0.6
			c0.4,0,0.4,0,0.6-0.2c0,0,0.1-0.1,0.1-0.1c-0.1-0.1-0.2-0.2-0.2-0.2H431.5z M469.8,250.4c-0.1,0.1-0.3,0.2-0.4,0.2h-0.2
			c0,0.3-0.1,0.3-0.1,0.5c0.2,0.2,0.4,0.4,0.6,0.6c0.5,0,0.5-0.1,0.8-0.2C470.4,250.8,470.3,250.6,469.8,250.4z M370.7,251.9h0.5
			c0.1-0.3,0.1-0.5,0.2-0.6c-0.1-0.5-0.2-0.4-0.4-0.8h-0.4c-0.1,0.1,0,0-0.2,0.1c-0.1,0.3-0.2,0.5,0,0.8
			C370.5,251.7,370.5,251.7,370.7,251.9z M454.3,250.6c-0.2,0.3-0.3,0.3-0.4,0.6h-0.1c0.1,0.3,0.1,0.2,0.2,0.4
			c0.4-0.1,0.4-0.1,0.6-0.2C454.7,250.8,454.7,250.7,454.3,250.6z M442.7,250.7c-0.2,0.4-0.4,0.4-0.2,0.9c0.5-0.1,0.5-0.2,0.8-0.4
			c-0.1-0.3,0-0.2-0.1-0.4C442.9,250.7,442.9,250.7,442.7,250.7z M448.7,250.7c-0.1,0.2-0.1,0.4-0.2,0.5c0,0.6,0.1,0.8,0.2,1.1
			c0.4-0.1,0.4-0.2,0.9-0.2c0.1-0.2,0.2-0.3,0.4-0.5C449.6,250.8,449.3,250.8,448.7,250.7z M356.4,251.9l0.8,0.8
			c0.4-0.1,0.4-0.1,0.6-0.2c0.2-0.8,0.3-1.1-0.2-1.5c-0.1,0.1-0.6,0.2-0.8,0.2c-0.3,0.1-0.2,0-0.4,0.1
			C356.5,251.5,356.3,251.6,356.4,251.9z M384.4,252.7c0.1-0.2,0-0.1,0.1-0.2c0-1.1-0.2-1-1-1.2c-0.1,0.2-0.2,0.5-0.4,0.6
			c0.1,0.6,0.3,0.7,0.5,1.1C384.1,252.9,384.1,252.8,384.4,252.7z M365,251.6c-0.1,0.3-0.1,0.3-0.2,0.5c0,0.1,0.1,0.2,0.1,0.4
			c0.5,0,0.5-0.1,0.8-0.4l0.1-0.1l-0.4-0.4H365z M392.8,251.7c0,0.1,0.1,0.2,0.1,0.4c0.2,0.1,0.1,0,0.2,0.1h0.1c0-0.3,0-0.2-0.1-0.4
			C393,251.7,393.1,251.7,392.8,251.7z M457.9,251.7c-0.1,0.1-0.1,0.1-0.4,0.1c0,0-0.1,0.1-0.1,0.1c0,0.1-0.1,0.2-0.1,0.4h0.1v0.1
			l0.2-0.1v0.1h0.2c-0.2,0.3,0.1,0.1-0.2,0.2c0.1,0.4,0.1,0.4,0.2,0.8c0.6-0.1,0.6-0.4,1-0.6c0-0.6-0.1-0.7-0.2-1.1H457.9z
			 M417.2,252.3c-0.1,0.5,0,0.7,0,1.2h1.1c0-0.7,0-1.1-0.2-1.5C417.5,252.1,417.5,252.2,417.2,252.3z M362.8,252.4
			c-0.2,0.3-0.2,0.2-0.5,0.4c0.1,0.4,0,0.2,0.4,0.4c0.1,0.1,0,0,0.2,0.1l0.2-0.2C363.1,252.6,363.1,252.6,362.8,252.4z M396.3,253.3
			c0,0.5,0,1.3,0.1,1.5c0,0.1,0.6-0.3,1.1-0.4c-0.1-0.5-0.2-0.5,0.1-0.8c-0.1-0.6-0.2-0.5-0.4-0.9
			C396.8,252.9,396.7,253.1,396.3,253.3z M351.8,253.1c-0.2,0.4-0.5,0.4-0.1,0.8c0.3,0.2,0.8,0,1.2-0.2c0-0.3-0.1-0.3-0.1-0.5H351.8
			z M357.7,254.1c0.2,0,0.3-0.1,0.5-0.1v-0.4h-0.5V254.1z M362.7,254.4c-0.1,0.2-0.2,0.2-0.2,0.5c0.3-0.1,0.3-0.1,0.5-0.2
			C362.8,254.4,363,254.6,362.7,254.4z M370.3,254.7c-0.3,0.1-0.1,0.1-0.4-0.1h-0.2c0.1,0.6,0.5,1.1,0.8,1.6c0.2,0.1,0.1,0,0.2,0.1
			h0.1c0.1-0.4,0.1-0.4,0-0.8c0.3-0.1,0.5-0.2,0.8-0.4c0-0.1,0.1-0.2,0.1-0.4c-0.5-0.2-0.7-0.2-1.2-0.4
			C370.3,254.7,370.4,254.6,370.3,254.7z M468.7,254.4h-0.2c0,0-0.1,0.1-0.1,0.1c0,0.3,0,0.2,0.1,0.4c0.1,0.1,0.1,0.1,0.4,0.1
			c-0.1-0.3,0-0.2-0.1-0.4V254.4z M381.3,254.8c-0.1,0.3,0,0.2-0.2,0.4c0,0.3,0.1,0.3,0.1,0.5c0.6-0.1,0.7-0.3,1.1-0.5
			C382.1,254.9,381.7,254.9,381.3,254.8z M425.9,254.9c-0.4,0.5-0.1,0.7,0,1.4c0.5-0.1,0.5-0.3,0.9-0.5c0-0.6-0.1-0.6-0.4-1
			C426.1,254.9,426.1,254.8,425.9,254.9z M383.7,255.1c0,0.4,0,0.5,0.1,0.8c0.6,0,0.8-0.1,1.2-0.2c-0.1-0.4-0.1-0.4-0.2-0.6
			C384.4,255,384,255,383.7,255.1z M361.9,255.2c0.1,0.2,0,0.1,0.1,0.2c0.1,0.1,0,0,0.2,0.1l0.1-0.1
			C362.2,255.1,362.3,255.3,361.9,255.2z M376,255.2c-0.1,0.3-0.1,0.4,0,0.6v0.6c0.3,0.1,0.6,0.2,0.9,0.2c0.1-0.2,0.2-0.5,0.4-0.6
			c-0.1-0.4-0.2-0.5-0.2-0.9H376z M448.9,255.3c-0.1,0.2-0.2,0.5-0.2,0.6c0.1,0.3,0.2,0.4,0.4,0.6h0.4c0.1-0.6,0.2-0.6,0.2-1.3
			C449.2,255.4,449.3,255.4,448.9,255.3z M346.5,256.3c-0.1-0.4-0.1-0.4-0.2-0.6h-0.5c0.1,0.2,0,0.1,0.1,0.2
			c-0.1,0.1-0.4,0.2-0.5,0.3h-0.1v0.2c0.3,0,0.6,0.1,0.9,0.1C346.3,256.5,346.4,256.4,346.5,256.3z M356.8,256.4
			c0,0.1,0.1,0.2,0.1,0.4c0.2,0.1,0.1,0,0.2,0.1c0.5,0,0.5-0.1,0.8-0.2v-0.4c-0.2,0-0.5-0.1-0.8-0.1
			C357.1,256.3,357,256.4,356.8,256.4z M339.3,257.6c-0.1-0.1,0,0-0.2-0.1l-0.4,0.4c0,0.2,0.1,0.4,0.1,0.6c0.3,0,0.4-0.1,0.6-0.1
			c0.1-0.2,0-0.1,0.1-0.2C339.5,257.6,339.6,257.8,339.3,257.6z M363.3,257.7c-0.2,0.4-0.2,0.3-0.1,0.8c0.5,0,0.6-0.1,0.9-0.2
			c0-0.3-0.1-0.3-0.1-0.5H363.3z M479.4,258.7c0,0.4,0,0.8,0.1,1v0.2c0.4,0,0.5-0.1,0.8-0.1c0.1-0.2,0-0.1,0.1-0.2
			c-0.1-0.5-0.3-0.5-0.5-0.9H479.4z M338.2,258.8c-0.1,0.4-0.1,0.4,0.1,0.8c0.3,0,0.3-0.1,0.5-0.1c-0.1-0.4-0.1-0.4-0.2-0.6H338.2z
			 M356.8,258.8c-0.1,0.2-0.1,0.3-0.2,0.4c0.1,0.3,0.2,0.2,0.4,0.4c0.7,0,0.7-0.1,1-0.4C357.7,258.9,357.2,258.9,356.8,258.8z
			 M408.3,259.4c-0.6-0.1-0.5-0.2-0.9-0.4c-0.2,0.4-0.3,0.4-0.8,0.5c0,0.3,0.1,0.7,0.1,1c0,0,0.1,0.1,0.1,0.1c0.4,0,1,0,1.1,0
			c0.6-0.3,0.4-0.8,1.2-0.9v-0.2C409,259.4,408.5,259.3,408.3,259.4z M438,259.2c-0.1,0.1-0.3,0.3-0.5,0.4c0.1,0.6,0.4,0.6,0.6,1
			c0.3,0,0.3-0.1,0.5-0.1c0-0.3,0.1-0.6,0.1-0.9l-0.4-0.4H438z M456.4,259.2l-0.4,0.4c0,0.4,0,0.8,0.2,1.1c0.2,0.1,0.4,0.1,0.6-0.1
			h0.2c0.1-0.2,0-0.1,0.1-0.2c0-0.6-0.1-0.8-0.2-1.1H456.4z M351.8,259.3c-0.1,0.2-0.1,0.3-0.2,0.4c0,0.3,0.1,0.3,0.1,0.5
			c0.2,0,0.5-0.1,0.8-0.1c0-0.1,0.1-0.2,0.1-0.4l-0.4-0.4H351.8z M386.5,259.9c0.1,0.2,0,0.1,0.1,0.2c0,0,0.1,0.1,0.1,0.1v-0.1h0.2
			v-0.4h-0.4L386.5,259.9z M387.5,260.1h-0.2v0.5h0.4c0-0.3,0-0.2-0.1-0.4V260.1z M490.3,260.2c-0.5,0-0.6,0.1-0.9,0.2v0.4h0.4
			l-0.4,0.4v0.5h0.2c0.2-0.2,0.4-0.4,0.6-0.5c0-0.3,0.1-0.6,0.1-0.9C490.4,260.3,490.3,260.2,490.3,260.2z M374.2,260.7
			c-0.3,0-0.3,0.1-0.5,0.1v0.6h0.8c0-0.3,0-0.2-0.1-0.4C374.3,260.9,374.2,260.8,374.2,260.7z M394.2,260.9l-0.1,0.1
			c0,0.5,0,0.2,0.1,0.8c1,0,1.3,0.3,2.1,0.5c0.1-0.1,0,0,0.2-0.1c0-0.3,0-0.5,0.1-0.6c0-0.5-0.1-0.6-0.2-0.9
			C395.5,260.7,395.1,260.9,394.2,260.9z M331.8,261.9c0.1,0.4,0.1,0.4,0.4,0.6v0.1c0.3-0.1,0.4-0.2,0.6-0.4
			c-0.1-0.4-0.1-0.4-0.2-0.6c-0.2,0-0.4-0.1-0.6-0.1C332,261.9,332.1,261.7,331.8,261.9z M343.2,261.9c0,0.3-0.1,0.7-0.2,0.9v0.4
			c0.5,0,0.5,0,1,0.2c0.1-0.1,0.2-0.2,0.4-0.2c0.1-0.2,0-0.1,0.1-0.2c0-0.6-0.1-0.6-0.4-1H343.2z M469.8,262.8
			c0.1,0.4,0.1,0.4,0.2,0.6c0.3,0,0.5,0,0.6-0.1c0.1,0,0.2-0.1,0.4-0.1c0-0.3-0.1-0.3-0.1-0.5C470.5,262.7,470.4,262.8,469.8,262.8z
			 M502.3,262.6c-0.1,0.3-0.1,0.3,0,0.5c0.1,0.3,0.2,0.3,0.4,0.5c0.3-0.1,0.3-0.1,0.5-0.2c0-0.2-0.1-0.4-0.1-0.6
			C502.8,262.7,502.5,262.6,502.3,262.6z M354.7,263.8c-0.2,0.2-0.3,0.3-0.4,0.4c-0.3,0.1-0.2,0-0.5-0.1c0,0.1-0.1,0.2-0.1,0.4
			c0.3,0.2,0.5,0.5,0.6,0.9c0.3-0.1,0.2,0,0.4-0.1c0.1,0,0.2-0.1,0.4-0.1C355.1,264.4,355.1,264.1,354.7,263.8z M364.8,263.8
			c-0.1,0.1-0.2,0.2-0.4,0.2l0.4,0.4c-0.1,0-0.2,0.1-0.4,0.1c0.1,0.5,0.2,0.4,0.4,0.8h0.5c0.1-0.2,0-0.1,0.1-0.2
			c0-0.5,0-0.9-0.1-1.2H364.8z M325.8,265.2c-0.4,0-0.7,0-1,0.1c0,0.6,0.2,1.1,0.5,1.5c0,0.1,0.1,0.2,0.1,0.2h0.2
			C325.8,266.6,325.8,265.8,325.8,265.2z M506.4,266.3v0.2c0.3,0,0.6-0.1,0.9-0.1v-0.4c-0.2,0-0.5,0.1-0.8,0.1
			C506.5,266.2,506.5,266.3,506.4,266.3z M496.5,266.7c-0.4,0.6-0.2,0.7,0.6,1c0.1-0.1,0.2-0.2,0.2-0.2c0-0.4-0.1-0.5-0.1-0.8H496.5
			z M341.5,268.6c0,0,0.1,0.1,0.1,0.1c0.5-0.1,0.6-0.3,0.8-0.8c-0.2-0.1-0.5-0.1-0.9-0.1C341.5,268.2,341.5,268.1,341.5,268.6z
			 M384.2,269.3c0.1-0.2,0-0.1,0.1-0.2c0-0.3-0.1-0.3-0.1-0.5h-0.6c-0.1,0.1,0,0-0.2,0.1c0.1,0.5,0.2,0.6,0.5,0.9l-0.2,0.2v0.2
			c0.3,0,0.4,0,0.5-0.1c0.5-0.1,0.5-0.3,0.8-0.6v-0.1c-0.3,0-0.2,0-0.4,0.1H384.2z M319.5,270.3c0.3-0.1,0.2,0,0.4-0.1
			c0.3-0.2,0.1,0.1,0.2-0.2c0.1-0.1,0,0,0.1-0.2c-0.3-0.3-0.2-0.4-0.8-0.5c-0.2,0.3-0.3,0.4-0.1,0.8
			C319.5,270.1,319.5,270.2,319.5,270.3z M462.4,269.2c-0.1,0.2,0,0.1-0.1,0.2c0,0.3,0.1,0.4,0.1,0.6c0.4-0.1,0.4-0.1,0.6-0.2
			c-0.1-0.4-0.1-0.4-0.2-0.6H462.4z M519,270.4c0.3-0.1,0.2,0,0.4-0.1c0.1-0.1,0,0,0.1-0.2c-0.2-0.1-0.2-0.1-0.5-0.1
			C519,270.3,519,270.1,519,270.4z M432.2,270.3c-0.3,0.2-0.6,0.4-0.9,0.6c0,0.3,0.1,0.3,0.1,0.5c0.4,0,0.8-0.1,1.1-0.1
			c0,0,0.1-0.1,0.1-0.1C432.6,270.6,432.5,270.6,432.2,270.3z M490.4,270.8h0.6v-0.4c-0.2,0-0.4-0.1-0.6-0.1V270.8z M325.8,270.6
			h-0.2c0.4,0.9,1.3,0.7,2,1.2c0.3-0.3,0.4-0.6,0.8-0.9v-0.4C327.3,270.6,326.2,270.9,325.8,270.6z M356,273.2
			c0.1,0.4,0.1,0.6,0.4,0.9c0.1,0.1,0.3,0.2,0.4,0.2c0.6-0.2,0.4-0.5,0.8-0.9c-0.1-0.4-0.2-0.5-0.2-0.9
			C356.5,272.7,356.6,273,356,273.2z M314.3,274.2c-0.1,0.2-0.2,0.5-0.4,0.6c0,0.1-0.1,0.2-0.1,0.4c0.3,0.2,0.4,0.2,0.6,0.5
			c0.5,0,0.5-0.1,0.8-0.2c0-0.4,0-0.7-0.1-0.9C314.9,274.3,314.6,274.3,314.3,274.2z M492.5,276.3c0.4,0,0.2,0.1,0.4,0h0.2v-0.2
			c-0.2-0.1-0.3-0.2-0.6-0.2V276.3z M318.9,278.2h0.5c0.1-0.6,0.6-1.4,1.1-1.8v-0.2c-0.9,0-1.5,0.3-2.1,0.6
			C318.4,277.6,318.6,277.7,318.9,278.2z M345.7,276.9c-0.2,0.2-0.2,0.3-0.4,0.5c0.1,0.8,0.3,0.6,0.8,1c0.3-0.1,0.2,0,0.4-0.1h0.2
			c0.1-0.6,0-1,0-1.6C346.2,276.7,345.9,276.7,345.7,276.9z M476.7,276.9c0.1,0.5,0.2,0.6,0.6,0.8c0-0.1,0.1-0.2,0.1-0.2
			c0.1-0.1,0-0.4,0-0.8C477,276.7,477,276.8,476.7,276.9z M309.3,278.1c-0.3,0.2-0.4,0.4-0.4,0.9c0.3,0,0.5,0,0.6-0.1h0.1
			c-0.1-0.3-0.2-0.4-0.4-0.6V278.1z M512.3,278.6c-0.1,0.1-0.1,0.1-0.1,0.4c0.3,0,0.2,0,0.4,0.1c0.3,0,0.3-0.1,0.5-0.1
			c0-0.3-0.1-0.3-0.1-0.5C512.6,278.5,512.5,278.5,512.3,278.6z M331.2,281.3h0.4c0.1,0.5,0.3,0.5,0.5,0.9c0.5-0.1,0.5-0.3,1-0.4
			c-0.2-0.3,0.1-0.1-0.2-0.2c0-0.6,0.2-0.9,0.6-1.1v-0.2c-1.1,0.1-1.2,0.6-2.2,0.9V281.3z M536.8,281.6h-0.6
			c-0.2,0.2-0.3,0.6-0.5,0.9c0,0.3,0.1,0.3,0.1,0.5c0.7-0.1,0.7-0.3,1.1-0.6c0-0.3,0-0.4-0.1-0.5V281.6z M323.9,282.3
			c-0.6,0.9-0.4,0.8,0.2,1.5c0.7-0.1,0.5-0.4,0.9-0.9C324.9,282.3,324.5,282.4,323.9,282.3z M308.7,286.3c-0.5,0.1-0.4,0.1-0.6,0.2
			v0.2c0.2,0,0.5,0.1,0.8,0.1c0-0.3,0-0.2-0.1-0.4V286.3z M289.8,289.7v-0.2c-0.5,0-0.5,0.1-0.8,0.2v0.6c0.3,0,0.6-0.1,0.9-0.1
			C289.9,289.9,289.9,289.8,289.8,289.7z M316.8,289.7c-0.3,0.1-0.3,0.1-0.5,0.2c0,0.3-0.1,0.6-0.1,0.9c0.3,0,0.6,0,0.8-0.1h0.2
			c0.1-0.5,0-0.6,0-1.1C316.9,289.6,316.9,289.6,316.8,289.7z M288.9,290.7h0.1v-0.1h-0.5C288.8,290.8,288.7,290.8,288.9,290.7z
			 M298.4,295.9c0.1,0.4,0.1,0.4,0.2,0.6h0.2c0.3-0.5,0.5-0.6,0.6-1.2c-0.3,0-0.6,0-0.8,0.1C298.5,295.6,298.6,295.7,298.4,295.9z
			 M238.5,334.2c-0.5,0-1-0.1-1.5-0.1c-0.3,0.6,0.1,1.1-0.4,1.5c0.2,0.6,0.9,0.6,1.4,0.8c0.2-0.3,0.7-0.6,1-0.8c0-0.4,0.1-0.3,0-0.5
			C239,334.4,238.8,334.6,238.5,334.2z"/>
	</g>
</g>
</svg>
