<?xml version="1.0" encoding="utf-8"?>
<!-- Generator: Adobe Illustrator 23.0.1, SVG Export Plug-In . SVG Version: 6.00 Build 0)  -->
<svg version="1.1" id="Calque_1" xmlns="http://www.w3.org/2000/svg" xmlns:xlink="http://www.w3.org/1999/xlink" x="0px" y="0px"
	 viewBox="0 0 595.276 841.89" enable-background="new 0 0 595.276 841.89" xml:space="preserve">
<g>
	<g>
		<path fill-rule="evenodd" clip-rule="evenodd" d="M317.854,195.683c0.642,1.186,0.707,2.563,1.2,3.6
			c0.503,0.222,1.208,0.481,1.6,0.8c1.498-0.069,1.415,0.208,2-0.8c0.465-1.372-2.232-5.875-2.8-8c-0.767-2.868,0.2-5.588-1.2-7.6
			c0.014-2.777-1.074-4.239-3.2-4.8c-0.307,0.275-0.891,0.527-1.2,0.8c-1.416,1.137-1.026,1.859-1.6,4
			C310.546,191.542,315.362,191.079,317.854,195.683z M315.454,184.883c0.779,0.841,1.086,2.526,1.2,4c-0.267,0-0.533,0-0.8,0
			C315.245,187.583,314.883,186.478,315.454,184.883z M349.854,205.283c3.196-0.592,10.847-10.086,11.6-14
			c-0.948-0.798-1.381-1.182-1.6-2.8c-1.237-0.256-2.671-0.425-4.4-0.4c-1.922,1.635-3.838,3.472-4.8,6
			c-1.201,3.156-0.761,5.513-2.8,7.6C348.008,204.004,348.775,204.044,349.854,205.283z M356.654,191.683c0.267,0,0.533,0,0.8,0
			c-0.491,2.427-2.416,3.06-3.6,4.8c-0.267,0-0.533,0-0.8,0C354.019,194.294,355.461,193.482,356.654,191.683z M282.254,216.483
			c2.303,1.01,4.828,0.741,6.8,2c0.923-0.13,0.994-0.186,1.6-0.4c-0.268-6.951-9.099-13.781-17.2-13.6
			c-0.446,1.635-1.876,3.533-1.2,4.8C273.41,211.629,279.687,215.358,282.254,216.483z M276.254,207.283
			c1.34,0.075,2.403,0.212,3.2,0.8c2.957,0.582,4.214,3.398,6,5.2c0,0.133,0,0.267,0,0.4c-4.064-1.016-7.212-3.356-10.4-5.2
			C275.519,207.594,275.633,207.881,276.254,207.283z M345.854,481.283c-0.734-2.665-2.371-3.205-3.2-4.8
			c-1.004-1.932-1.431-6.758-2-8.8c0-1.067,0-2.133,0-3.2c-2.121-7.886-3.301-17.812-5.6-25.6c-0.267-2.266-0.533-4.534-0.8-6.8
			c-2.462-8.485-3.802-18.392-6-27.6c-0.604-2.532,0.82-3.788,0.4-6c-0.658-3.465-1.665-5.271-1.2-8.8c0.259-1.96-0.731-6.012-1.2-8
			c0-1.333,0-2.667,0-4c-1.508-5.945-2.158-14.087-1.6-18.8c0.161-1.364-0.51-4.759-0.8-6c0.133-1.867,0.267-3.734,0.4-5.6
			c-1.359-6.801-0.94-20.78,1.2-27.6c2.182-6.953,7.214-12.555,11.2-18c2-2,4-4,6-6c1.196-1.776,1.187-4.162,2.4-6
			c-0.034-6.233-5.587-5.768-9.6-8c-11.749-6.534-27.003-5.882-40.8-8c-3.448-0.529-11.019-1.383-13.6,0.4
			c-1.852-1.198-2.034-10.584-2.8-13.6c-2.296-9.039-2.472-19.402-5.2-28.4c-0.734-2.423-1.523-5.771-2.8-8
			c-0.735-1.283-1.691-1.077-2-3.2c-1.261,0.189-1.509,0.401-2.4,0.8c-6.96,16.646-12.904,36.53-14.8,57.6
			c-0.826-1.313,0.05-3.746-0.4-5.6c-1.233-5.085-0.919-9.351-2.4-14.8c-4.084-15.027-6.159-29.034-13.2-40.8
			c-1.389,0.215-1.59,0.506-2.8,0.8c-1.524,7.067-5.833,13.165-8.4,19.6c-0.267,2.133-0.533,4.267-0.8,6.4
			c-0.759,2.851-2.369,6.211-3.2,8.8c0,1.333,0,2.667,0,4c-0.975,4.344-1.416,10.139-2.4,14.4c-0.431,1.867,0.383,4.27-0.4,5.6
			c-1.207,2.233-10.432,2.96-13.6,4c-9.163,3.008-15.13,5.875-22.4,10.4c-0.137,1.241-0.01,3.018,0,5.2
			c7.462,7.014,15.485,11.089,19.6,21.6c1.152,2.943-0.043,6.788,1.2,10.8c1.356,4.375,1.536,11.784,0.8,16.8
			c0.133,1.067,0.267,2.133,0.4,3.2c-0.304,1.426-0.732,4.904-0.8,6.4c0.133,0.8,0.267,1.6,0.4,2.4c-0.196,0.81-1.199,1.825-0.8,3.6
			c0.847,3.771,0.029,9.838-0.8,13.6c0,2.133,0,4.267,0,6.4c-0.286,1.213-1.225,4.594-1.2,5.6c0.286,11.364-1.33,24.506-4,35.2
			c-0.672,2.69,0.436,4.876,0,6.8c-0.485,2.141-1.09,5.962-1.6,8c-0.133,3.066-0.267,6.134-0.4,9.2
			c-1.676,6.68-2.838,14.899-4.4,21.6c0.133,0.933,0.267,1.867,0.4,2.8c-0.629,4.005-1.726,9.762-1.6,13.2
			c1.868,0.506,2.352,2.098,4,2.8c2.67,1.137,6.356,1.989,8.8,2.8c15.577,5.169,34.612,6.908,51.6,8
			c8.352,0.537,19.757,1.591,26,0.4c2.125-0.405,5.389,0.615,6.8,0.4c9.798-1.492,19.114,0.332,28.4-2
			c7.325-1.84,13.516-2.47,20.4-4.8c1.584-0.536,3.669-1.832,5.2-2.4c1.067-0.133,2.133-0.267,3.2-0.4c1.204-0.71,0.366-1.593,2.4-2
			c-0.008-1-0.331-1.436-0.4-2C345.212,484.353,346.483,483.568,345.854,481.283z M280.654,275.683c3.6,0,7.2,0,10.8,0
			c-0.457,0.841-0.834,1.073-1.2,2c0.667,0.8,1.333,1.6,2,2.4c0.8-0.133,1.6-0.267,2.4-0.4c0.246-1.1,0.664-2.219,0-3.2
			c0-0.267,0-0.533,0-0.8c10.652,1.28,22.962,1.663,32.4,4.8c1.956,0.65,3.532-0.004,5.2,0.8c2.167,1.045,4.138,2.906,6.4,4
			c-0.503,2.895-11.537,8.648-14.4,7.2c-0.133,0-0.267,0-0.4,0c0.267-0.267,0.533-0.533,0.8-0.8c-0.019-1.235-0.139-2.05-0.4-2.8
			c-0.69-0.258-0.392-0.078-0.8-0.4c-1.798,0.033-2.183,0.251-3.2,0.8c0.242,1.805,0.793,2.785,2,3.6
			c-3.529,2.744-10.77,0.417-14.8,2.8c-0.64-0.652-0.95-1.326-1.2-2.4c-2.913,0.006-3.425,0.993-4.4,2.8c-1.067,0-2.133,0-3.2,0
			c0-0.8,0-1.6,0-2.4c-1.351-0.631-3.456-1.304-4.4-2.4c-1.139,0.044-1.71,0.16-2.4,0.4c-0.317,1.467-0.518,3.371,0,4.8
			c-1.521,0.115-1.361-0.16-3.2-0.4c0.4-0.4,0.8-0.8,1.2-1.2c-0.133-0.933-0.267-1.867-0.4-2.8c0.701-1.262,1.796-0.154,2-3.6
			c1.055,0.699,0.557,0.027,0.4,1.2c0.133,0.133,0.267,0.267,0.4,0.4c2.42,0.096,3.68,0.028,4.4-1.6
			c1.091-2.833-1.988-2.016-3.6-2.8c-0.4-0.533-0.8-1.067-1.2-1.6c-1.617-0.723-2.91,0.738-3.6,0.8c-1.333,0.12-0.81-1.036-1.6-0.4
			c-1.881,0.33-2.068,1.031-2.4,2.8c-1.267-0.226-1.164-0.351-2-0.8c0.038-3.238,0.013-8.552-1.6-10.4
			C280.654,275.95,280.654,275.816,280.654,275.683z M301.854,298.083c-0.82-0.315-0.376,0.56-1.2-0.4
			C301.041,297.757,302.097,297.357,301.854,298.083z M297.454,298.083c-0.342,0.265-1.256,0.541-1.6,0.8c-0.4,0-0.8,0-1.2,0
			c0-0.267,0-0.533,0-0.8C295.587,298.083,296.521,298.083,297.454,298.083z M292.254,296.883c0-0.267,0-0.533,0-0.8
			c0.667,0,1.333,0,2,0c0,0.267,0,0.533,0,0.8C293.587,296.883,292.921,296.883,292.254,296.883z M293.854,298.883
			c-0.69-0.258-0.392-0.078-0.8-0.4C293.744,298.741,293.446,298.561,293.854,298.883z M286.254,295.283
			c0.4,0.133,0.8,0.267,1.2,0.4c0,0.133,0,0.267,0,0.4c-0.267,0.267-0.533,0.533-0.8,0.8c-0.133,0-0.267,0-0.4,0
			C286.254,296.35,286.254,295.816,286.254,295.283z M283.054,293.283c-0.133-0.133-0.267-0.267-0.4-0.4
			c0.225-1.899,0.626-1.5,1.2-2.8c1.732,0.681,1.447,1.828,2.4,3.2c0,0.267,0,0.533,0,0.8
			C284.653,293.52,284.772,292.848,283.054,293.283z M253.054,288.483c0-2.533,0-5.067,0-7.6c1.525-6.449,1.49-14.478,3.6-22
			c2.045-7.289,3.37-15.339,6-22.4c1.32-3.545,3.933-6.78,4.4-10.8c0.267,0,0.533,0,0.8,0c1.03,3.593,2.836,8.136,4,12
			c2.181,7.238,2.695,15.411,4.4,22.4c0,1.2,0,2.4,0,3.6c0.725,2.991,1.441,6.813,2,10c-0.133,0.8-0.267,1.6-0.4,2.4
			c2.246,5.442,2.577,14.258,2,21.2c-2.592,0.058-5.131,0.52-6.4,0c-0.267-0.133-0.533-0.267-0.8-0.4
			c-0.025-7.525-0.587-13.863-2-20.4c-1.088-5.031,0.856-11.227-1.6-14.8c-0.145-1.5-0.31-1.487-0.8-2.4
			c-3.051,0.83-1.847,4.686-2.8,7.6c-3.245,9.925-5.169,21.148-4.4,32c-2.083-0.004-6.857-0.189-8.4,0.8c-0.267,0-0.533,0-0.8,0
			C252.494,296.48,252.319,291.8,253.054,288.483z M279.454,298.883c0,0.133,0,0.267,0,0.4c-0.945,0.309-3.555,0.271-4.4,0.8
			c-0.533,0-1.067,0-1.6,0c0-0.267,0-0.533,0-0.8c1.397,0.041,3.203,0.135,4-0.4C278.121,298.883,278.787,298.883,279.454,298.883z
			 M269.854,290.483c0.03,2.371,0.195,5.457-0.4,7.2c-0.856,0.163-2.549,0.365-3.2,0.8c-0.8,0-1.6,0-2.4,0
			c-1.121-6.031-1.201-14.199,0.4-20c0.898-3.256,2.628-6.118,2.8-10c0.267,0,0.533,0,0.8,0c-0.026,5.923,1.112,12.38,1.6,16.8
			C269.672,287.259,268.685,288.796,269.854,290.483z M250.654,282.883c-0.352-0.513-0.37-0.987-0.4-2
			C250.606,281.397,250.624,281.87,250.654,282.883z M250.654,287.283c-0.352-0.513-0.37-0.987-0.4-2
			C250.606,285.797,250.624,286.27,250.654,287.283z M221.054,262.483c0.239-1.704-0.263-3.924,0.4-6.4
			c0.785-2.933,2.31-6.383,3.2-9.2c0.749-2.371,0.105-3.689,0.8-6c1.325-4.402,3.435-9.248,5.6-13.2
			c0.974-1.778,2.443-2.653,2.8-5.2c0.267,0,0.533,0,0.8,0c9.064,22.014,14.508,46.763,13.2,77.2c-2.266,0-4.534,0-6.8,0
			c-0.178-5.734-1.36-13.997-2.8-18.8c-0.133-2.933-0.267-5.867-0.4-8.8c-0.857-3.531-2.155-5.996-1.6-10.4
			c-3.117,0.102-3.354,2.111-4.8,2.8c0.826,3.098-0.262,1.367-0.8,4.4c0.4,0,0.8,0,1.2,0c0,0.133,0,0.267,0,0.4
			c-0.927,1.342-0.164,4.807-0.8,8c-0.394,1.977-1.644,18.744,0,21.2c0,0.133,0,0.267,0,0.4c-3.333-0.133-6.667-0.267-10-0.4
			c-0.228-2.17-0.712-3.237,0.8-4.4c-0.104-2.038-0.465-2.032-1.2-3.2c-0.039-0.545-0.1-0.562,0.8-1.2
			c-0.291-1.567-1.3-1.839-1.6-2.8c-0.345-1.104,0.805-1.581,0.8-2c-0.4-1.333-0.8-2.667-1.2-4c0.133-1.6,0.267-3.2,0.4-4.8
			C218.918,271.847,220.485,266.538,221.054,262.483z M234.254,270.483c0-0.133,0-0.267,0-0.4c1.588,2.425,0.777,5.584,1.6,8.8
			c1.534,5.992,1.827,13.202,2,20.8c-1.526,0.016-3.021-0.06-4-0.4c-1.206-5.721-1.829-14.541-0.4-21.2
			C233.991,275.581,233.069,272.35,234.254,270.483z M184.654,293.683c-0.267,0-0.533,0-0.8,0c0-0.267,0-0.533,0-0.8
			c4.41-2.977,8.872-5.974,14.4-8c5.169-1.895,14.216-1.986,18.4-4.8c0.323,0.411,0.148,0.098,0.4,0.8
			c0.484,1.142-0.711,2.222-0.8,3.6c-0.112,1.726,0.809,0.859,1.2,1.6c0.415,0.787-0.381,2.242-0.4,2.4c0.267,0.8,0.533,1.6,0.8,2.4
			c-0.009,2.206-1.677,2.924-2.4,4.4c-3.016-1.063-1.271-1.292-4.8-0.8c0.133,1.067,0.267,2.133,0.4,3.2
			c-8.34-0.059-17.164-1.989-22.8-3.6C186.303,293.526,186.145,294.882,184.654,293.683z M214.654,297.683c0,0.133,0,0.267,0,0.4
			c-0.133,0-0.267,0-0.4,0c0.133-0.4,0.267-0.8,0.4-1.2c0.133,0,0.267,0,0.4,0C215.231,297.666,214.88,297.398,214.654,297.683z
			 M332.654,487.683c-1.51,0.629-3.782,2.207-5.2,2.8c-1.975,0.825-4.227-0.538-5.6,0c-2.27,0.889-5.526,2.055-8.4,2.8
			c-2.8,0.133-5.6,0.267-8.4,0.4c-3.18,0.803-7.664,1.193-11.6,1.2c-2.4,0-4.8,0-7.2,0c-8.146,2.001-20.308-0.446-27.2-0.4
			c-0.838,0.006-1.493,0.68-2,0.8c-2.108,0.499-5.146-0.821-6.8-1.2c-2.533,0-5.067,0-7.6,0c-2.851-0.728-7.731-1.202-10.4-2
			c-1.6,0-3.2,0-4.8,0c-2.818-0.745-7.103-1.826-10-2.4c-1.555-0.308-2.088,0.554-4,0c-5.327-1.544-12.563-3.604-16.8-5.2
			c-2.263-0.852-2.918-2.779-6.4-2.8c0.222-2.496,1.072-5.004,1.6-7.2c0.133-3.2,0.267-6.4,0.4-9.6c2.124-8.544,2.704-19.203,4.8-28
			c0.133-3.466,0.267-6.934,0.4-10.4c1.74-7.364,1.52-16.898,3.2-24.4c0.133-2.933,0.267-5.867,0.4-8.8
			c1.24-5.503,0.738-11.906,2-17.6c0-2.133,0-4.267,0-6.4c0.765-3.377,1.282-11.672,0.8-14.8c-0.454-2.949,0.326-5.92,0.8-8
			c0.647-2.839-0.116-6.848,0.4-9.2c0.552-2.52-0.932-4.35-0.8-6c0.392-4.885-0.924-12.893-2.8-17.2c-0.396-0.91-1.676-1.917-2-2.8
			c-0.443-1.208,0.17-2.283-0.4-3.2c-2.294-3.687-7.036-6.076-10-9.2c-0.133,0-0.267,0-0.4,0c0-0.267,0-0.533,0-0.8
			c11.248,1.33,18.671,2.157,30,2.8c0,0.133,0,0.267,0,0.4c0.384,0.561,0.403,1.312,0.4,2.4c0.133,0.133,0.267,0.267,0.4,0.4
			c1.928-0.352,2.154-1.286,2.8-2.8c3.199-0.294,7.98-0.434,9.6,2c1.617-0.396,1.765-1.576,3.2-0.8c0.996-0.589,0.469,0.098,0.8-1.2
			c1.657,0.602,2.413,2.614,3.2,4c1.894-0.422,1.119-0.777,2-2c1.951-2.613,14.938-0.127,19.6-2c0.574,0.644,1.131,1.229,2,1.6
			c0,0.133,0,0.267,0,0.4c1.021-0.471,1.845-2.026,3.2-2c0.353,0.007,1.397,0.756,1.6,0.8c1.778,0.385,3.591-0.521,4.8-0.8
			c3.347-0.772,7.672,0.73,10.4,0.4c12.795-1.547,27.218-1.135,39.2-4c1.6,0,3.2,0,4.8,0c4.143-0.977,10.777-1.958,13.2-4.8
			c0.267,0,0.533,0,0.8,0c-2.621,5.343-7.892,8.622-11.2,13.2c-1.264,1.749-1.616,3.737-2.8,5.6c-0.762,1.198-3.58,4.545-3.6,6
			c-0.051,3.658-1.434,8.328-2,12.8c-0.505,3.988,0.437,13.278,1.2,18c0.921,5.7,0.373,16.377,1.6,24.4
			c-0.133,1.067-0.267,2.133-0.4,3.2c1.02,6.007,0.934,10.258,2,17.2c-0.133,0.933-0.267,1.867-0.4,2.8
			c2.821,13.285,4.212,28.472,7.6,41.2c2.905,10.914,2.922,22.797,6,33.2c0.564,1.906-0.413,2.891,0,4.4
			c0.253,0.926,1.699,2.109,2,2.8c0.736,1.69-0.138,2.846,0.8,4C341.212,486.957,336.584,486.046,332.654,487.683z M434.254,375.283
			c-2.968-4.107-5.508-7.91-8.4-12c-2.399-3.393-6.308-6.24-8.8-9.6c-1.423-1.919-2.179-4.049-3.6-6
			c-3.558-4.885-8.808-9.045-12.4-14c-5.51-7.6-10.1-15.212-15.6-22.8c-1.6-1.6-3.2-3.2-4.8-4.8c-1.299-1.787-1.895-3.84-3.2-5.6
			c-0.8-0.667-1.6-1.333-2.4-2c-3.949-5.794-7.238-11.499-11.2-17.2c-1.538-2.213-4.118-4.064-5.6-6.4
			c-4.421-6.968-8.277-14.352-14-20c0-0.267,0-0.533,0-0.8c3.096,0.013,14.188,0.236,15.2-0.4c2.284-0.242,3.776-2.096,2.4-4.4
			c-0.716-1.199-2.593-1.467-3.6-2.4c-3.897-3.608-7.561-7.742-12.4-10.4c0.779-2.854,6.483-10.368,4.8-13.2
			c-0.523-1.112-1.339-1.426-2-2.4c-3.828,0.985-7.248,4.457-10.4,6.4c-1.682,1.037-4.141,1.142-5.6,2.4
			c-4.317-0.535-6.952-3.757-10-5.6c-1.999-1.209-4.262-1.416-6-2.8c-2.03,0.216-1.964,0.777-3.2,1.6c0.07,2.984,1.5,13.67,2.8,15.2
			c-0.112,6.171-6.474,8.975-9.6,12.4c-1.248,1.368-1.184,2.927-2.8,4c0,0.667,0,1.333,0,2c1.732,0.148,1.962,0.864,2.8,1.2
			c1.133,0.455,13.482-1.072,15.2-1.6c1.265,1.947,6.169,13.513,4.4,15.2c0.511,1.391,1.216,1.394,2,2.4
			c1.395-0.102,1.684-0.14,2.4-0.8c0.969-0.546,5.399-13.271,5.6-15.2c0.133,0,0.267,0,0.4,0c2.921,6.109,6.545,10.389,10,15.6
			c2.624,3.958,4.128,8.192,6.8,12c4.833,6.889,9.761,13.904,14.8,20.8c2.003,2.741,5.257,5.137,7.2,8
			c4.959,7.309,9.593,14.454,14.8,21.6c6.556,8.998,14.166,17.297,20.4,26.8c3.676,5.604,8.162,9.996,12,15.2
			c2.363,3.204,4.185,6.322,6.8,9.2c1.5,1.651,4.618,7.07,8,5.2c2.283-1.297,2.774-4.21,5.6-5.2
			C442.458,382.126,436.687,378.65,434.254,375.283z M334.254,248.883c-1.136,5.186-2.367,13.71-5.2,17.2c0,0.133,0,0.267,0,0.4
			c-2.215-2.868-1.055-10.58-3.2-13.2c-1.675-3.046-9.149-2.991-12-0.8c-0.533,0-1.067,0-1.6,0c0-0.133,0-0.267,0-0.4
			c4.034-1.417,6.315-6.454,9.6-8.8c-0.129-5.782-2.066-9.509-2.4-14.4c2.859,1.473,6.574,3.749,8.8,6
			c5.123-1.103,12.646-2.471,16-5.6c0.133,0,0.267,0,0.4,0c-0.873,3.611-3.277,3.838-3.2,8c2.733,2.639,8.738,9.298,13.2,9.6
			c0.254,0.893,0.295,1.057,0.8,1.6c0,0.267,0,0.533,0,0.8c-4.148-1.279-14.185,2.116-18.8-0.8
			C335.515,248.527,334.944,248.644,334.254,248.883z M435.454,387.683c-0.411,0.323-0.098,0.148-0.8,0.4
			c-0.133-0.133-0.267-0.267-0.4-0.4c0-0.667,0-1.333,0-2c-0.533,0-1.067,0-1.6,0c-0.641-2.169-2.176-2.768-3.2-4.4
			c-1.928-3.073-3.109-5.984-5.2-8.8c-3.467-4.669-8.171-8.837-11.6-13.6c-4.247-5.9-8.446-11.356-12.8-17.2
			c-1.733-1.733-3.467-3.467-5.2-5.2c-11.551-15.736-22.996-30.972-34.4-46.8c-2.639-3.663-5.959-7.336-8.4-11.2
			c-1.754-2.777-2.603-5.725-4.4-8.4c-3.222-4.794-8.446-9.29-10-15.6c0.267-0.267,0.533-0.533,0.8-0.8
			c0.411-0.323,0.098-0.148,0.8-0.4c1.327,1.129,3.271,1.92,4,3.6c0.133,0.8,0.267,1.6,0.4,2.4c2.194,3.438,5.986,6.633,8.4,10
			c2.701,3.767,4.553,7.739,7.2,11.6c2.031,2.962,4.893,6.004,7.2,8.8c1.271,1.54,1.543,3.643,2.8,5.2
			c6.622,8.2,12.579,16.962,18.8,25.6c2.079,2.886,5.204,5.484,7.2,8.4c1.204,1.759,1.503,3.958,2.8,5.6
			c4.191,5.302,9.661,10.155,13.6,15.6c2.761,3.817,4.943,7.32,7.6,11.2c1.466,1.333,2.933,2.667,4.4,4
			c1.261,1.728,1.944,3.492,3.2,5.2c1.2,1.2,2.4,2.4,3.6,3.6c2.31,3.366,4.096,7.493,7.2,10
			C437.068,385.735,436.488,386.721,435.454,387.683z M378.254,231.283c4.885,1.649,11.237,1.915,15.2,0
			c0.352-1.773,0.303-3.112-0.8-4.4c-0.825-2.492-4.285-4.084-7.2-4.4c-2.796,1.997-8.729,3.089-12.4,3.2
			c-0.133,0.4-0.267,0.8-0.4,1.2c-0.431,1.094,0.477,1.595,0.8,3.2C375.311,229.628,376.592,230.722,378.254,231.283z
			 M384.254,226.483c1.33,0.003,2.38,0.115,3.2,0.4c0.296-0.457,0.604,0.496,1.6,0.8c-0.133,0.4-0.267,0.8-0.4,1.2
			c-2.099-0.001-4.851-0.17-6-1.2c-0.133-0.133-0.267-0.267-0.4-0.4C382.777,227.079,383.828,226.794,384.254,226.483z
			 M372.654,264.083c2.183,2.34,3.088,6.879,6.8,7.6c0.581,0.296,1.716,0.062,3.2,0c1.265-1.29,2.62-1.528,3.2-3.6
			c0.323-0.411,0.148-0.098,0.4-0.8c-0.938-1.002-1.288-2.788-2.4-3.6c-3.041-2.219-8.909-2.707-12-3.6
			c-0.643,0.461-2.168,0.882-2.8,1.2C369.767,262.944,371.539,262.888,372.654,264.083z M380.654,265.283
			c1.391,0.511,1.394,1.216,2.4,2c-0.08,1.039-0.177,1.359-0.4,2c-4.383,0.111-5.189-2.325-6.4-5.2
			C377.924,264.224,379.252,264.18,380.654,265.283z M288.254,280.483c0.026-1.242,0.057-2.524-0.4-3.2
			c-0.869-0.709-1.934-0.829-3.6-0.8c-0.542,0.639-0.244,0.463-1.2,0.8c0.059,2.012,0.438,2.556,0.8,4
			C286.041,281.273,286.843,280.9,288.254,280.483z M299.454,285.283c0.267,0,0.533,0,0.8,0c0-1.333,0-2.667,0-4
			c-2.701-0.021-2.74,0.397-4,1.6c0.042,1.013,0.049,1.482,0.4,2C297.43,285.533,298.532,285.889,299.454,285.283z M315.854,285.283
			c1.087-0.414,0.88-0.574,1.6-1.2c-0.13-0.923-0.186-0.994-0.4-1.6c-1.201-0.317-1.406-0.618-2.8-0.8
			c-0.509,0.441-1.417,0.885-2,1.2c0.317,1.598,0.754,1.446,1.2,2.8C314.545,285.674,315.287,285.667,315.854,285.283z
			 M212.654,290.483c0.852,1.144,0.798,1.98,2,2.8c0.411,0.323,0.098,0.148,0.8,0.4c0.453-0.475,1.016-0.859,1.6-1.2
			c0.178-4.557-0.498-2.136-2.8-3.6c0.133-0.267,0.267-0.533,0.4-0.8c-0.403-1.229-2.418-1.591-3.6-2
			c-0.352,0.728-0.673,1.454-1.2,2c0.091,0.928,0.079,1.128,0.4,1.6C210.781,290.782,211.532,291.225,212.654,290.483z
			 M298.254,288.083c0.353,1.849,0.99,1.761,2,2.8c1.801-0.186,1.71-0.517,2.8-1.2c0.258-0.69,0.078-0.392,0.4-0.8
			c0-0.667,0-1.333,0-2c-1.237-0.256-2.671-0.425-4.4-0.4C298.8,287.376,298.759,287.54,298.254,288.083z M313.454,290.483
			c0.267,0,0.533,0,0.8,0c-0.133-0.933-0.267-1.867-0.4-2.8c-1.191-0.179-1.35-0.202-2-0.8c-1.626,0.412-1.454,1.05-2.4,2
			c-0.133,0.4-0.267,0.8-0.4,1.2c0.323,0.411,0.148,0.098,0.4,0.8C311.017,291.235,312.352,291.523,313.454,290.483z
			 M200.654,291.683c-0.133,0.133-0.267,0.267-0.4,0.4c-0.133,0.933-0.267,1.867-0.4,2.8c1.247,0.242,0.973,0.069,1.6,0.8
			c1.992-0.129,1.702-0.424,2.8-1.2c-0.286-1.799-0.851-2.027-1.6-3.2C201.987,291.416,201.321,291.55,200.654,291.683z
			 M205.054,292.083c-0.042,1.013-0.049,1.482-0.4,2c0.044,1.139,0.16,1.71,0.4,2.4c1.013-0.042,1.482-0.049,2-0.4
			c1.667-0.079,1.833-0.279,2.8-0.8c-0.009-1.091-0.016-1.833-0.4-2.4C208.078,291.723,206.988,291.843,205.054,292.083z"/>
	</g>
</g>
<ellipse fill-rule="evenodd" clip-rule="evenodd" fill="#DDDDDD" cx="265.463" cy="532.463" rx="97.086" ry="16.941"/>
</svg>
