<?xml version="1.0" encoding="utf-8"?>
<!-- Generator: Adobe Illustrator 21.0.0, SVG Export Plug-In . SVG Version: 6.00 Build 0)  -->
<svg version="1.1" id="Calque_1" xmlns="http://www.w3.org/2000/svg" xmlns:xlink="http://www.w3.org/1999/xlink" x="0px" y="0px"
	 viewBox="0 0 841.9 595.3" style="enable-background:new 0 0 841.9 595.3;" xml:space="preserve">
<style type="text/css">
	.st0{fill:#DADADA;}
	.st1{fill:#1D1D1B;}
	.st2{fill:#FFFFFF;}
</style>
<polyline class="st0" points="378,405.7 355.7,428.2 448.4,457 492,412.4 462.1,408 "/>
<path class="st1" d="M662.9,315.3"/>
<path class="st2" d="M381,398.1l-13.7,17.7l10.3,0.4c0,0,7.1,1.4,21,6.1c9.7,3.8,29.5,11.4,34.3,11.4c4.9,1.4,12.8,3.3,12.8,3.3
	s24.2-19.5,30.7-29.4"/>
<g>
	<g>
		<path class="st1" d="M584,203.2c-0.2-0.1-0.3-0.4-0.5-0.5c-0.3-0.2-0.5,0-0.8-0.2c-0.2-0.2-0.4-0.4-0.6-0.6
			c-0.5-0.3-1.1-0.3-1.5-0.7c0-0.1-0.1-0.2-0.1-0.3c-0.4-0.2-0.9-0.1-1.3-0.4c-0.9-0.6-2-1.3-3.1-1.6c-0.4,0-0.7-0.1-1.1-0.1
			c-0.3-0.1-0.6-0.4-0.9-0.5c-0.6,0-1.2-0.1-1.8-0.1c-0.9-0.2-1.8-0.3-2.6-0.6c-0.6-0.2-1.9,0-2.9-0.2c-1.7-0.4-4.2-1-6.2-0.7
			c-0.3,0-0.9-0.2-1.2-0.3c-0.4,0-0.7,0.1-1.1,0.1c-0.8-0.1-2.5,0-3.6,0.2c-0.1,0-0.6-0.2-1-0.1c-1.1,0.2-2.7,0.1-3.8,0.4h-1.3
			c-1,0.2-2.9,0.6-3.9,0.4c-0.8-0.2-1.6,0.5-2.7,0.3c-1-0.2-2.6,0.2-3.8-0.1h-1.1c-2.4-0.7-4.8-1.4-7.5-2c-0.8-0.1-1.7-0.1-2.5-0.2
			c-1.4-0.3-3.1-0.4-4.5-0.8c-1.1,0-2.2-0.1-3.3-0.1c-1.2-0.3-2.9-0.4-4-0.5c-0.2,0-0.7-0.4-1-0.5c-0.7-0.2-1.1,0.1-1.7,0
			c-0.2,0-0.6-0.3-0.7-0.3c-0.3,0-0.5,0.1-0.8,0.1c-0.5-0.1-1.2-0.4-1.7-0.5H508c-1-0.2-2.4-0.3-3.3-0.5c-0.8-0.1-1.5-0.2-2.3-0.3
			c-0.2-0.1-0.3-0.5-0.5-0.6c-0.2-0.1-0.9,0.2-1.3,0.1c-1-0.4-2.4-0.6-3.6-0.9c-0.4,0-0.8,0.1-1.2,0.1c-3.6-0.9-7.1-2.4-10.2-4h-0.8
			c-1.5-0.5-3.5-1.1-4.9-1.7c-0.6-0.3-1.2-0.1-1.7-0.4c-0.6-0.3-1.2-0.8-1.8-1.1c-0.9-0.3-1.6-0.3-2.5-0.7c-0.3-0.1-0.6-0.5-0.9-0.6
			c-0.9-0.3-2.5-0.4-3.6-0.4c-0.4,0-0.7,0.1-1.1,0.1c-1.7-0.4-5.4-0.3-6.7,0.3c-2.5,1.2-3.9,2.3-5.5,4.4c-0.4,0.5-1.1,0.8-1.4,1.3
			c-0.2,0.3-0.2,0.7-0.5,1c-0.1,0.2-0.5,0.2-0.6,0.4c-0.5,0.7-0.7,1.4-1.2,2.1c-0.4,0.6-1.2,1.2-1.6,1.9c-0.5,0.8-0.5,1.6-1,2.4
			c-0.3,0.7-0.9,1.4-1.3,2.1c-0.2,0.4-0.2,0.7-0.4,1.1c-0.3,0.4-0.3,0.1-0.7,0.2c-0.1,0.1-0.1,0.2-0.2,0.3c-0.2,0.1-0.5-0.2-0.8,0
			l-0.7,0.7c-1.1,0.5-2,0.8-3.2,1.2c0,0.1,0,0.5-0.1,0.7c-0.2,0.4-1,0.6-1.2,1v0.6c-0.2,0.5-0.6,1.2-0.8,1.7v0.6
			c0,0.1-0.2,0.5-0.3,0.7c-0.1,0-0.2,0.1-0.3,0.1c-0.1,0.2,0.2,0.5,0.1,0.8c-0.2,0.6-0.7,0.9-0.8,1.8h-0.3c0-0.3-0.1-0.2,0.1-0.5
			c-0.2-0.5-0.3,0-0.6-0.4c0-0.2-0.1-0.3-0.1-0.5c-0.1-0.2-0.5-0.1-0.6-0.3c-0.1-0.2,0-0.4-0.1-0.5c-0.5-0.5-1.4-0.5-1.8-1.1
			c-0.4-0.5-0.4-1.2-0.8-1.7c-0.5-0.8-1.4-1.4-1.8-2.3v-0.5c-0.1,0.2-0.3,0-0.4-0.1c-0.6-0.8-0.8-1.8-1.6-2.3v-1.2
			c-0.1-0.1-0.2,0.2-0.4,0c-0.6-0.7-1.1-1.7-1.5-2.4c-0.3-0.5-0.4-1.3-0.8-1.7c-0.3-0.4-0.8-0.7-1.1-1.1c-0.8-1.2-1.1-2.5-1.9-3.8
			c-0.9-1.4-1.9-3.1-2.6-4.7c0-0.2-0.1-0.5-0.1-0.7c-0.2-0.2-0.3-0.3-0.5-0.5c-0.1-0.3-0.2-0.6-0.3-0.9c-0.3-0.6-0.9-1.3-1.2-1.9
			v-0.5c-0.3-0.7-0.8-1.5-1.2-2.2c-0.1-0.2-0.1-0.5-0.2-0.7c-0.4-0.4-0.8-1.1-1.1-1.6c-0.2-0.4-0.7-1.3-0.5-1.7c0-1-0.4-0.8-0.9-1.3
			c-0.1-0.1-0.7-1.3-0.8-1.4c0-0.3-0.1-0.6-0.1-0.9c-0.1-0.3-0.4-0.6-0.6-0.9c-0.6-1-0.9-2.1-1.5-3.1c-0.3-0.1-0.5-0.1-0.8-0.2
			c-1.8,1.9-2.7,4.7-3.9,7.2c-0.9,1.8-2.2,3.7-3.1,5.6c-0.3,0.7-0.7,2.4-1.2,2.9c-0.1,0-0.2,0.1-0.3,0.1c-0.2,0.3-0.1,0.7-0.3,1.1
			c-0.2,0.5-0.7,1-1,1.5l-0.2,1c-0.2,0.5-0.7,1.2-1,1.6c-0.1,0.3-0.2,0.6-0.3,0.9c-0.4,0.7-0.9,1.6-1.3,2.2
			c-0.1,0.3-0.1,0.6-0.2,0.9c-0.4,1-1.1,2.2-1.6,3.2c0,0.2-0.1,0.4-0.1,0.6c-1.4,2.3-2.3,5.1-3.7,7.4c-0.4,0.7-1.1,1.6-1.4,2.4v0.4
			c-0.3,0.5-0.8,0.7-0.9,1.5h-0.3c-0.7,1.5-1.6,2.9-2.3,4.2c-0.2,0.4-0.2,0.7-0.4,1.1c-0.1,0.1-0.2,0.1-0.3,0.2
			c0,0.2-0.1,0.4-0.1,0.6c-0.1,0.1-0.3,0.1-0.4,0.3c-0.2,0.4,0,0.6-0.2,1.1c-0.3,1-1.1,2-1.4,2.9c0,0.2-0.1,0.5-0.1,0.7
			c-0.6,1.2-1.5,2.6-2.1,3.8c-0.3,0.6-0.4,1.3-0.8,1.8c-0.1,0.1-0.3,0.1-0.4,0.2c-0.3,0.4-0.1,0.8-0.4,1.3c-0.3,0.5-0.9,1.2-1.2,1.7
			c-0.2,0.6-0.2,0.9-0.4,1.4c-0.2,0.4-0.6,0.7-0.8,1.1c-0.7,1.4-1.3,2.7-2,3.9c-0.3,0.4-0.2,0.9-0.4,1.3c-0.2,0.5-0.8,1.1-1.1,1.6
			c-0.2,0.5-0.2,0.7-0.4,1.3c-0.2,0.4-0.6,0.8-0.8,1.3c-0.1,0.3-0.1,0.6-0.2,1c-0.1,0.2-0.4,0.4-0.5,0.6v0.6
			c-0.1,0.2-0.3,0.4-0.4,0.6c0,0.1,0.1,0.2,0.1,0.3c-0.2,0.1-0.3,0.3-0.5,0.4c-0.3,0.6-0.2,1-0.5,1.6c-0.2,0.4-0.6,0.8-0.8,1.2
			c-1,2.3-1.7,4.9-2.8,6.7c0.1,0.4,0.3,0.6,0.6,0.8c-0.1,0.3,0.1,0.2-0.3,0.2c0.4,1.3,0.1,3.9-0.1,5.4c0,0.3,0.1,0.5,0.1,0.8
			c-0.2,0.9-0.5,2-0.4,2.9c0.2,2.1-0.3,4.6-0.1,7c0,0.4-0.2,1.2-0.1,1.7c0.1,0.6,0.1,1.2,0.3,2.1v1.3c0.1,0.5-0.4,1.8-0.1,3
			c0.4,1.7-0.2,4.5-0.3,6.3c0,0.3,0.2,0.2,0.2,0.5c-0.1,0.4-0.4,1.3-0.5,1.7c-0.1,0.5,0.1,1.7,0,2.2c-0.3,0.9-0.7,2-0.7,3.2h-0.3
			c0.4,1.3-0.3,3.6-0.7,5c-0.2,0.8-0.1,1.8-0.2,2.3c-0.1,0.4-0.5,1.3-0.6,1.7c-0.1,0.4,0.2,1.1,0.1,1.4c-0.1,0.3-0.4,0.6-0.5,0.9
			c-0.1,0.4,0,1.1,0,1.4c0,0.1-0.3,0.3-0.3,0.4c0,0.5-0.1,1-0.1,1.5c0,0.1-0.3,0.4-0.3,0.5c0,0.2,0.1,0.5,0.1,0.7
			c-0.2,0.9-1,3.2-0.8,4.1c0.1,0.4-0.2,1.1-0.1,1.5c0,0.1,0.2-0.1,0.2,0.2c0,0.2-0.4,0.6-0.5,0.9c-0.2,0.5,0.1,1,0,1.3
			c-0.2,1-0.3,2.5-0.6,3.4c-0.1,0.5,0,1.4-0.2,2.2c-0.5,2-0.4,4.8-1,7.3c-0.1,0.4,0.1,0.6,0.1,0.9c0,0.4-0.2,1-0.3,1.3v1.4
			c-0.5,1.5-0.2,3.8-0.7,5.6v2.7c-0.8,3.4-0.3,7.9-1,11.2c-0.1,0.5,0.2,0.9,0.1,1.4c-0.3,1.9-0.3,3.7-0.6,5.5c-0.1,0.8,0.1,2,0,2.7
			c-0.4,1.7-0.7,4.2-0.5,5.8c0.1,0.8-0.3,2.9-0.6,3.5c-0.2,0.5,0.1,1.1,0,1.4c-0.3,1.1-0.5,2.8-0.7,3.8c-0.1,0.4,0.2,0.3,0.2,0.6
			c-0.1,1.2-0.5,2.3-0.8,3.4c-0.1,0.6,0.1,1.1-0.1,1.8c-0.1,0.5-0.4,1-0.3,1.5c0.1,0.5-0.3,1.5-0.4,2c-0.3,1.4-0.2,3-0.5,4.4
			c-0.2,0.8,0.1,1.7,0,2.3c-0.8,3.7-0.9,8.3-1.8,11.9v1.3c-0.2,0.7-0.3,1.5-0.5,2.1c0.1,0.5,0.1,1.1,0.2,1.6c-0.1,0.7-0.3,1.2-0.3,2
			c0,0.8-0.5,2-0.2,2.5c-0.1,0.3,0,0.3-0.3,0.4v0.1c-1.1-1-0.8-3.1-1.3-4.5c-0.1-0.2-0.4-0.4-0.5-0.6c0-0.2,0.1-0.4,0.1-0.6
			c-0.1-0.1-0.3-0.1-0.4-0.2c-0.1-0.5-0.1-1-0.2-1.5c-0.4-0.9-1.2-1.7-1.3-2.9h-0.3c-0.1-0.9-0.9-2-1.3-2.6
			c-0.1-0.1-0.3-0.1-0.4-0.2c0-0.3-0.1-0.5-0.1-0.8c-0.1-0.3-0.6-0.5-0.7-0.7v-0.7c-0.2-0.6-0.8-1.1-1.2-1.6c-0.6,0-0.9,0-1.3,0.2
			c-0.2,1.2,0.3,2.1,0.6,3.1c0,0.2-0.1,0.5-0.1,0.7c0.1,0.3,0.4,0.9,0.5,1.2c0.3,0.9,0.2,1.4,0.5,2.2c0.1,0.4,0.5,0.8,0.7,1.2
			c0,0.3,0.1,0.5,0.1,0.8c0.1,0.1,0.3,0.3,0.4,0.4v0.7c0.4,1.3,1.2,2.8,1.6,4c0.3,0.7,0.4,1.4,0.6,2c0.1,0.5,0.1,1,0.2,1.4
			c0.1,0.1,0.3,0.3,0.4,0.4c0.3,0.7-0.3,0.6,0.2,1.2v0.6c-1.1-0.4-2-1.6-2.9-2.2c-0.2,0-0.3-0.1-0.5-0.1c-0.3-0.2-0.3-0.7-0.6-0.9
			c-0.2-0.1-0.4-0.1-0.6-0.2c-0.3-0.2-0.4-0.6-0.6-0.9c-0.2-0.3-0.6-0.4-0.9-0.6c-0.2-0.1-0.2-0.4-0.4-0.6c-0.1,0-0.3-0.1-0.4-0.1
			c-0.1-0.1,0.1-0.4-0.1-0.5l-0.5-0.1c-0.3-0.2-0.5-0.7-0.8-1c-0.2-0.1-0.6-0.2-0.8-0.4c-0.3-0.2-0.4-0.6-0.6-1
			c-0.5-0.7-1.3-1.1-1.7-1.8c-0.9-0.1-0.9,0-1.3,0.5c0.1,0.6,0.6,1.2,1,1.5c0.1,0,0.2,0.1,0.3,0.1c0,0.2,0.1,0.4,0.1,0.6
			c0.3,0.5,1,0.7,1.3,1.3c0.1,0.2-0.2,0.4-0.3,0.7h0.1c0.2,0.1,0.3-0.1,0.5-0.3c1,0.1,1.2,1.5,1.7,2c0.2,0.2,0.5,0.1,0.7,0.3
			c0.4,0.3,0.7,0.8,1,1.2c0.3,0.2,0.5,0.4,0.8,0.6c0.4,0.5,0.6,1,1,1.4v0.3c-0.8-0.5-1.9-1.1-2.7-1.6c-0.3-0.2-0.6,0-0.9-0.2
			c-0.1-0.2-0.2-0.3-0.3-0.5c-0.5-0.3-1.1-0.4-1.5-0.8c-0.2-0.1-0.1-0.5-0.3-0.6h-0.5c-0.3-0.1-0.5-0.6-0.8-0.7
			c-0.3,0-0.5-0.1-0.8-0.1c-0.8-0.3-1.4-1.1-2.2-1.4c-0.4,0-0.7-0.1-1.1-0.1c-0.1,0-0.7-0.4-0.8-0.4c-0.3-0.1-0.5,0.2-1,0.1
			c-0.1,0.2-0.1,0.5-0.3,0.8c-0.1,0-0.2,0.1-0.3,0.1c-0.3,0.6,0.5,2,0.6,2.2c0,0.2-0.1,0.4-0.1,0.6h0.6c0.4,0.5,1.2,1.3,1.8,1.5
			c0.4,0.2,0.6,0,0.9,0.3c0.2,0.1,0.1,0,0.2,0.1c0,0-0.1,0.1-0.1,0.1c-0.4-0.1-0.8-0.4-1.2-0.5c-0.3-0.1-0.9,0.2-1.2,0.2
			c-0.5,0.1-1.3-0.3-1.7-0.4c-0.2,0-0.4,0.1-0.5,0.1c-4-0.7-8.7-1.4-12.6-0.5h-1.4c-0.4,0.1-1.3,0.3-1.7,0.4
			c-0.2,0.1-0.4-0.1-0.5-0.1c-0.6,0.1-1.1,0.6-1.5,0.8c-0.7,0.3-1.4,0.3-2,0.6c-0.3,0.2-0.7,0.7-1.1,0.9c-0.8,0.4-2.1,0.7-3,1
			c0,0.3,0,0.6,0,0.7c0.1,0.2,0.2,0.2,0.4,0.4c1.9,0,2.8-0.9,3.9-1.5c0.4-0.2,0.8-0.2,1.2-0.4c0.1-0.1,0.1-0.2,0.2-0.3
			c0.2,0,0.4,0.1,0.6,0.1c0.1-0.1,0.2-0.3,0.3-0.4c0.4-0.1,0.7-0.2,1.1-0.3c0.1-0.1,0.2-0.2,0.3-0.3h1c0.8-0.2,2-0.4,2.9-0.6h1.8
			c0.9-0.2,2.3-0.1,2.9-0.4c2.2,0.7,5,0.5,6.9,1.1c0.2,0.1,1.8,0.2,1.8,0.2c0.1,0,0.5-0.2,0.8-0.1c0.1,0,0.3,0.3,0.4,0.3
			c0.3,0.1,0.7-0.1,0.9-0.1c0.2,0,0.5,0.3,0.7,0.4c1,0.3,2.3,0,3.1,0.4c0.3-0.1,1.2-0.3,1.6-0.2c0.9,0.1,1.5,0.6,2.6,0.6
			c0.3-0.3,0.6-0.3,0.7-1c0.5,0.1,0.7,0.4,1.1,0.6c1,0.4,2.1,0.3,2.8,1c0.5,0,0.6-0.1,0.9-0.3c0-0.1,0.1-0.5,0.1-0.8
			c1.1,0.2,1.5,1.2,2,2c0.2,0.1,0.1,0,0.2,0.1c0.3,0,0.5,0,0.7-0.1c0.9-1.1-0.1-3.3-0.4-4.2v-1c-0.4-1.2-0.9-2.9-1.3-4.1
			c0-0.3-0.1-0.5-0.1-0.8c-0.2-0.3-0.3-1-0.6-1.3c-0.1-0.1-0.3-0.2-0.4-0.3c-0.1-0.2,0.1-0.4,0.1-0.5c0-0.2-0.3-0.4-0.4-0.6
			c-0.2-0.5-0.1-1.2-0.3-1.7c-0.2-0.5-0.7-1.1-0.9-1.6c-0.3-0.8-0.4-2.7-0.9-3.3v-0.3c0,0,0.1,0.1,0.1,0.1c0.7,0.6,1.4,2.5,1.8,3.4
			c0.3,0.6,0.8,1.5,1.2,2.1c0.3,0.6,0.1,1.2,0.5,1.8c0.1,0,0.2,0.1,0.3,0.1c0,0,0.1,1.2,0.2,1.4c0.4,1.2,0.5,3.4,1.2,4.8
			c0.2,0.4,1,0.8,1.3,1.2c0,0.3,0.1,0.6,0.1,1c0,0.1,0.2,0.3,0.3,0.4c0.4-0.1,0.7-0.3,1.1,0c0,0.1,0.1,0.2,0.1,0.3h0.7
			c0.4,0.1,0.9,0.5,1.3,0.6h1.1c0.3,0.1,0.9,0.3,1.3,0.3c0.2,0,0.4-0.2,0.8-0.1c0.8,0.1,1.8,0.3,2.5,0.5h1.7
			c0.1,0.1,0.2,0.2,0.3,0.3c0.2,0.1,0.7-0.2,1.1-0.1c1.6,0.4,3.6,0,5.4,0.4h2.7c0.1,0,0-0.3,0.3-0.2c0.1,0,0.4,0.3,0.6,0.4
			c0.5,0.1,0.8-0.1,1.2,0c0.1,0,0.5,0.2,0.7,0.2c0.2,0,0.4-0.1,0.6-0.1c0.2,0.1,0.7,0.4,0.9,0.5c0.2,0.1,0.6-0.1,0.6-0.1
			c0.1,0.1,0.1,0.3,0.2,0.4c0.5,0.4,1.5,0.7,2.1,0.9h0.8c0.5,0.2,1.2,0.6,1.7,0.8c0.6,0.1,1.3,0.2,1.9,0.3c0.2,0.1,0.5,0.3,0.7,0.4
			h0.6c0.1,0.1,0.2,0.3,0.3,0.4c0.7,0.3,1.4,0.1,1.9,0.5c0.1,0,0.2,0.1,0.3,0.1v0.4c1.4-0.2,2.5,0.5,3.6,0.8c0.5,0,1,0.1,1.5,0.1
			c1.6,0.4,2.6,0.4,4,0.9c0.7,0.2,1.4,0.9,2,1.2h0.6c0.4,0.2,0.7,0.6,1.1,0.8c0.4,0.2,0.8,0.1,1.3,0.3c1.2,0.4,2.4,1.2,3.7,1.6
			c0.7,0.3,1.3,0.2,1.8,0.4c0.7,0.2,1.5,0.8,2.1,1.1c0.8,0.3,1.9,0.4,2.5,0.6c0.9,0.3,2.1,0.8,3,1.3c1,0.5,2.2,0.5,3.3,0.9
			c1.6,0.6,3.8,1.3,5.3,1.7c1.1,0.4,2.2,0.4,3.2,0.8c0.5,0,1.1,0.1,1.6,0.1c1.7,0.4,3.3,1.1,4.9,1.5c0.5,0.1,1.3,0.2,1.7,0.2
			c0.2,0,0.3-0.1,0.5-0.1c2.3,0.7,4.5,1.6,7.2,2c0.8-1.3,3.2-2.9,4.4-3.6c0.4-0.2,0.7-0.8,1.1-1.1c0.2-0.2,0.8-0.2,1-0.4
			c0-0.1,0.1-0.3,0.1-0.4c0.1-0.2,0.4-0.2,0.6-0.3c0.4-0.3,0.6-0.7,1-1.1c0.6-0.6,1.7-0.7,2.3-1.4c0.3,0.1,0.3,0.2,0.5,0.5h0.2
			c-0.1-0.4-0.2-0.6-0.3-0.9c0.3-0.3,0.5-0.7,0.9-1c1.1-0.8,2-1.6,3-2.4c0.2-0.2,0.3-0.6,0.6-0.8c0.1,0,0.3-0.1,0.4-0.1
			c0.3-0.3,0.5-0.7,0.8-1c1.9-1.4,3.8-2.9,5.1-4.9h0.4c0.1-0.7,1.6-2.4,2.1-3c0.3-0.4,0.4-0.9,0.7-1.3c0.1-0.1,0.6-0.8,0.7-0.9
			c0.2-0.2,0.6-0.3,0.8-0.5c0.3-0.3,0.3-0.8,0.6-1.2c0.4-0.6,1.1-1,1.5-1.4c0.8-0.8,1.5-1.7,2.4-2.5c0.6-0.5,1.1-1.3,1.7-1.8
			c0,0,0.1-0.1,0.1-0.1c0.2,0.3,0.5,0.5,0.7,0.8c1.9-0.2,2.9-2.2,4.2-3.1V404h0.1c0.1,0.7-0.3,1.5,0.1,2c0,0.1,0.1,0.1,0.1,0.2
			c1.9,0.1,2.7-0.6,3.9-1.3c1.4-0.7,2.7-1.1,4.2-1.6c0.2,0.3,0.3,0.7,0.6,1.1c0.2,0.2,0.6,0.3,0.8,0.6c1.4,0,2.3,0,3.5-0.4
			c0.2,0,0.4,0.1,0.6,0.1c0.3-0.1,1-0.4,1.3-0.5c0.2,0,0.7,0.2,1.1,0V404h1.4c1.3-0.3,3.2-0.3,4.4-0.6c0.5-0.1,1.2,0.2,1.9,0.2
			c1.4,0,3.3-0.2,4.6,0.3c0.8,0.3,1.2,1.1,2.3,1.2c0.1-0.3,0.1-0.3,0.3-0.5c0-1.6-1.3-2-2.2-2.8c-0.3,0-0.4,0-0.6,0.1v0.5
			c-1.8-0.1-3.3-0.4-4.7-0.1c-1,0.2-2.4,0-3.2,0.2c-0.3,0.1-0.7-0.1-0.8-0.1c-0.9,0.2-1.8,0.1-2.7,0.3h-1.2
			c-0.9,0.3-2.7,0.9-3.6,0.8c-0.5-0.1-1.2,0.3-1.6,0c-0.1,0-0.2-0.1-0.3-0.1c0.1-0.5,0.5-1,0.9-1.3c0-0.4-0.1-0.4-0.2-0.7
			c-1.2-0.5-1.8,0.2-2.7,0.6c-1.3,0.5-2.6,0.6-3.8,1.3c-0.8,0.5-1.8,1.3-3,1.3c0.1-0.9,1.6-3.3,2.1-3.8c0.2-0.2,0.5-0.1,0.6-0.3
			c0.6-0.9,1.1-1.7,1.8-2.4c0-0.8-0.2-0.7-0.6-1.1c-1.3,0.2-2,1.7-2.7,2.6c-0.3,0.4-0.8,0.6-1.2,1c-0.5,0.5-0.9,1.2-1.4,1.6
			c-1.1,0.8-2.3,1.6-3.3,2.6h-0.2c0.5-1.7,1.7-3.3,2.5-4.7c0.8-1.3,1.2-2.7,2-4c0.7-1.2,2.1-3,1.9-4.6c-0.2,0-0.4,0-0.5-0.1
			c-1,0.1-1.9,2.5-2.3,3.3c-0.5,0.9-1.2,1.7-1.7,2.6c-0.6,1-0.8,2.1-1.4,3.1c-0.1,0.2-0.6,0.5-0.7,0.8c-0.2,0.4-0.1,0.7-0.3,1.1
			c-0.3,0.6-0.9,1-1.3,1.5h-0.1c0.1-2.3,0.4-5,1.1-6.9c0.1-0.6,0.2-1.3,0.3-1.9h0.2c0.3-0.5,0.2-1.1,0.4-1.7c0-0.1,0.3-0.5,0.4-0.6
			c0-0.4-0.1-0.7-0.1-1.1c0-0.1,0.3-0.3,0.3-0.4c0.3-0.9,0.3-2.1,0.6-2.7c0-0.5-0.1-0.6-0.2-0.9c-1.8,0-1.2,1.4-1.6,2.5
			c-0.7,1.7-1.1,3.9-1.7,5.8c-0.1,0.5-0.1,1.1-0.2,1.6c-0.2,0.7-0.5,1.5-0.6,2.2c-0.2-0.2-0.1-0.4-0.2-0.8c-0.3-1-0.8-2.1-1.2-3.3
			v-0.7c-0.6-1.5-0.6-3.7-1.1-5.6c0-0.7-0.1-1.5-0.1-2.2c-0.1-0.5-0.4-1-0.5-1.5c-0.1-0.4,0.1-1,0.1-1.2c-0.1-0.4-0.5-1.4-0.5-1.9
			c0-0.8,0-2-0.3-2.9c-0.5-1.8-0.6-3.8-1.1-5.5c-0.1-0.5,0.1-0.8,0-1.2c-0.5-2.5-1-5-1.6-7.5c-0.4-1.5-0.3-3.1-0.7-4.4
			c0-0.4,0.1-0.8,0.1-1.3c-0.8-2.6-0.5-6.5-1.3-9c0-0.1-0.2-2.9-0.2-2.9c0-0.1,0.3-0.3,0.2-0.6c-0.4-1.2-0.1-3-0.4-4.3
			c-0.3-1.1-0.3-2.3-0.4-3.3c0-0.4,0.2-0.7,0.1-1.2c-0.2-1.3-0.3-2.7-0.6-3.9c-0.1-0.6,0.1-1.2,0-1.6c-0.2-1.1-0.2-2.2-0.5-3.3
			c0-0.2,0.1-0.4,0.1-0.7c0-0.1-0.3-0.5-0.3-0.6c-0.1-0.4,0.2-1,0-1.5c0-0.1-0.3-0.6-0.3-0.7c0-0.3,0.2-1,0.1-1.4
			c-0.1-0.3-0.3-0.9-0.4-1.2c-0.1-0.3,0.1-0.9,0-1.4l-0.2-0.4c0-0.1,0.2-0.2,0.2-0.3c0-1-0.1-2-0.1-3c0-0.1-0.3-0.4-0.4-0.6
			c0-0.5,0.1-1.1,0.1-1.6c-0.3-0.9,0-2.7-0.3-3.9c-0.1-0.2-0.2-0.5-0.3-0.8c-0.1-0.2,0.3-1.2,0.2-1.5c-0.1-0.5-0.3-1.5-0.5-2
			c0-0.3,0.1-0.6,0.1-1c-0.1-0.4-0.3-0.7-0.2-1.3c0-0.1,0.2-0.2,0.1-0.4c-0.3-0.7-0.1-1.5-0.3-2.4c-0.3-1.7-0.6-5.1-0.8-6.7
			c0-0.2,0.2-0.3,0.2-0.5c0.3-1.4-0.3-2.8-0.1-3.9c0.1-0.7,0-1.5-0.3-1.8c0-0.1,0.3-3,0.5-3.3c-0.2-0.3-0.1-0.1-0.4-0.1
			c0-1.8,0-2.9-0.3-4.3c-0.1-0.7,0.3-1-0.2-1.3c0.1-0.1,0.2-0.1,0.3-0.2c-0.1-0.5-0.3-0.9-0.2-1.3c0-0.1,0.3-0.3,0.2-0.6h-0.2
			c-0.3-0.6,0.1-1.2,0-1.7c0-0.1-0.2-0.2-0.2-0.4c0-0.1,0.2-0.1,0.2-0.4c-0.1-0.6-0.3-1.7-0.4-2.2c0-0.4,0.2-0.4,0.3-0.6
			c0.3-0.7-0.1-1.9-0.2-2.4c0.1-0.2,0.1-0.5,0.2-0.7c0-0.1-0.3-0.4-0.3-0.5c0.1-0.1,0.1-0.2,0.2-0.3c0-0.2-0.1-0.1-0.1-0.2v-0.1
			c0.4,0.1,0.2,0,0.2,0.4c0,0,0.1-0.1,0.1-0.1c0.2-0.1,0.2-0.2,0.3-0.5c-0.6-0.6-0.7-3.1-0.4-3.8c0.2-0.4-0.3-0.8-0.2-1.2
			c0-0.2,0.3-0.2,0.3-0.5c-0.3-2.8-0.3-4.4-0.6-6.7c-0.1-0.9,0.4-1.8,0.2-2.8c-0.1-0.6-0.4-1.6-0.2-2.4c0.1-0.5,0.3-1.5,0.2-1.9
			c0.1-0.1,0.2-0.1,0.4-0.1c-0.1-0.4-0.4-2.3-0.3-2.9c0-0.1,0.3-0.4,0.3-0.6c0-0.5-0.3-0.9,0-1.2c-0.4-1.3-1.7-2-1.7-3.8h-0.2
			c0,0.1,0.1,0.3,0.1,0.4c-0.5-0.2-0.7-0.9-1.1-1.3c-0.4-0.3-0.7-0.6-1.1-1c-0.3-0.4-0.5-0.9-0.9-1.3c-0.1-0.2-0.5-0.2-0.6-0.4
			c-0.3-0.4-0.4-0.9-0.7-1.3c-0.1-0.2-0.5-0.4-0.6-0.7v-0.5c-0.1-0.1-0.3-0.2-0.4-0.3c-0.7-0.9-1.7-1.8-2.3-2.7
			c-0.2-0.3-0.2-0.7-0.4-1c-0.2-0.2-0.5-0.4-0.7-0.6c0-0.2-0.1-0.5-0.1-0.7c-0.3-0.6-0.8-1.3-1.1-1.9c-0.1-0.3,0-0.5-0.2-0.7
			c-0.5-0.7-1.4-1.4-1.8-2.1c-0.3-0.6-0.3-1.1-0.7-1.5c0.1-0.9,0.5-2,0.7-2.9c0.1-0.8-0.1-1.7,0.1-2.6c0.6-2.1,0.6-4.5,1.2-6.4
			c0-0.7,0.1-1.3,0.1-2c0.7-2.4,0.7-5.6,2.2-7.4c-0.1-0.6-0.6-0.8-1.2-1.1c0.3-1.7,1.8-2.9,2.5-4.2c0.9-1.5,1.8-2.6,3-3.8
			c0.2-0.2,0.3-0.5,0.5-0.7c0.3-0.2,0.6-0.1,0.9-0.3c0.1-0.2,0.2-0.4,0.3-0.6c0.3-0.2,0.6,0,0.9-0.2c0.1-0.1,0.1-0.4,0.2-0.5
			c0.3,0,0.6,0.1,0.9,0.1c0.3-0.1,0.9-0.7,1.1-0.8c0.1,0,0.3,0.1,0.4,0.1c0.1,0,0.2-0.3,0.2-0.3c0.3,0,0.6-0.1,1-0.1
			c3.8-1.9,7.6-2.6,12-0.9c0.2,0.1,0.5,0.4,0.7,0.5c0.7,0.3,1.3,0.2,1.8,0.5c0.6,0.4,1.3,1,1.9,1.3c0.8,0.4,1.8,0.5,2.6,1
			c0.3,0.2,0.7,0.7,1.1,0.9c0.5,0.3,1.1,0.2,1.6,0.5c0.4,0.2,0.8,0.6,1.3,0.8c0.4,0.2,0.8,0,1.2,0.1c0.1,0,0.3,0.3,0.4,0.3
			c0.5,0.1,1.1,0.1,1.6,0.2c0.1,0.1,0.5,0.3,0.7,0.4h1.3c0.1,0.1,0.1,0.1,0.2,0.2h0.8c1.4,0.4,3.2,0.5,4.4,1h1.9
			c2.8,0.8,6.4,1.3,8.9,2c1.1,0.3,2,0.1,2.9,0.5h3.1c1,0.3,2.1,0.3,3.2,0.6c1.4,0.4,3.1,0.9,4.4,1.3h1c0.3,0.1,0.7,0.3,1,0.4h1.2
			c0.8,0.2,1.5,0.6,2.2,0.9c0.5,0,0.9,0.1,1.3,0.1c1.3,0.4,3.1,0.6,4.3,0.9c0.1,0,0.8-0.1,1.1-0.1c2.2,0.3,4.8,0.6,7,0.3
			c1.1-0.1,2.8,0.1,4.2-0.2c0.4,0,0.8,0.1,1.2,0.1c2.3-0.4,5.4-0.2,7.3-0.7h1.3c2.2-0.5,4.6,0,6.5-0.5c0.8-0.2,1.9,0.1,2.5,0.2
			c0.8,0.2,2.1,0.2,3,0.4c0.9,0.1,1.8,0.2,2.7,0.3c1.6,0.4,3.2,0.7,4.6,1.3c0.4,0,0.7,0.1,1.1,0.1c1.1,0.4,2.1,1.1,3.2,1.4
			c2.7,0.8,5.2,0.2,7.2-0.9c0.1-0.2,0-0.1,0.1-0.2C586.1,203.7,584.9,203.6,584,203.2z M345.1,415.2c-0.3,0-1.3-0.1-1.5-0.2
			c-0.2-0.2-0.3-0.3-0.5-0.5c-0.5-0.2-0.9,0-1.4-0.2v-0.2c-0.2-0.1-0.4,0.1-0.5,0.1c-0.5-0.1-1-0.7-1.4-1c-0.9-0.5-1.7-0.5-2.2-1.3
			h-0.4c0-0.7-0.3-0.8-0.4-1.4c0.4,0,0.8-0.1,1.3,0c0.3,0.1,0.6,0.5,0.9,0.7c0.6,0.3,1.3,0.4,1.8,0.8c0.1,0.1,0.1,0.3,0.2,0.4
			c0.4,0.3,0.8,0.3,1.3,0.6c0.1,0.1,0.2,0.3,0.3,0.4c0.2,0.1,0.5,0.1,0.7,0.2c0.7,0.4,1.3,1.1,2,1.4
			C345.1,415,345.2,415.1,345.1,415.2C345.2,415.2,345.1,415.2,345.1,415.2z M444.9,202c0.7-0.1,1.6-0.4,2-0.8c0.2,0,0.2,0,0.3,0.1
			c0,0.1-0.5,2.2-0.6,2.3v0.2c-0.4-0.1-1.4-0.1-1.7-0.4h-0.2C444.9,202.9,445,202.7,444.9,202z M438.9,232.2c0.7,0.3,1,1.1,1.5,1.4
			c0.5,0.3,1.2,0.4,2,0.4c0-0.2,0-0.2-0.1-0.3c0.3-0.2,0.6-0.1,1-0.3c0,0,1.8-1.3,1.8-1.3c0.7,0.2,1.3,2.1,1,2.7
			c0,0.9-1.4,2.3-2.1,2.5c-0.9,0.6-1.7-0.1-2.2-0.5c-0.5-0.3-1.3-0.5-1.6-1.1c-0.2-0.4-0.1-0.7-0.3-1.2l-0.4-0.4v-0.6
			c-0.1-0.2-0.6-1.1-0.6-1.2V232.2z M447.6,235.6v-0.2c0.8,0.1,2,0.9,2.9,0.4c0.2,0.2,0.2,0.7,0.4,1c0.2,0.2,0.3,0,0.5,0.4
			c0.1,0.1,0.1,0.5,0.2,0.6c-0.4,2.1-0.9,2.3-2.5,3.2l-0.4,0.4c-0.4,0.2-0.6,0-0.9,0.2c-0.7-0.1-1.3-0.6-1.6-1.1h-0.1
			c0.1-0.3,0.3-0.4,0.6-0.6v-0.2c-0.4,0.1-0.5,0.4-0.9,0.5c-0.1,0.1-0.9-0.5-1.1-0.6c0.2-0.7,0.7-0.6,1.3-1c0.5-0.3,0.8-1.2,1.2-1.7
			C447.4,236.6,447.9,236.1,447.6,235.6z M452.7,247.2c0,0,2.9,0.3,3.1,0.4c-0.2,0.4-1.9,1.5-2.3,1.7c-0.6,0.3-1.1,0.2-1.4,0.7h-0.5
			c0.2-0.6,0.8-1.1,1.1-1.6C452.8,248,452.4,247.7,452.7,247.2z M433.8,259.5c-0.8-0.3-0.9-1.6-1.2-2.5c-0.4-1.2-1-3.7-1.1-5
			c0.3,0,0.4,0,0.6,0.1c0.2-0.1,0.2-0.2,0.3-0.4c0.3-0.4,0.8-0.3,1.3-0.6c0.3-0.2,0.2-0.4,0.6-0.6c0.1-0.1,0,0,0.2-0.1
			c0.2,0.3,0.3,1,0.3,1c0.1,0.1,0.5,0.1,0.6,0.2c0.2,0.2,0,0.5,0,0.7c0.1,0.1,0.4,0.2,0.5,0.3c0,0.1-0.1,0.2-0.1,0.3
			c0.2,0.7,0.4,1.4,1,1.8c0,0.5-0.1,0.6-0.4,0.8c0.2,0.1,0.2,0.1,0.4,0c-0.2,1.6-1.1,2.9-2.2,3.7C434.2,259.3,434,259.3,433.8,259.5
			z M434.3,261.2c-0.1,0.3-0.2,0.3-0.4,0.5h-0.1c0-0.3,0-0.3,0.1-0.5H434.3z M433,264.1c-0.1,0.2,0,0.1-0.1,0.2
			C432.9,264.1,432.9,264.2,433,264.1z M399.4,255.4c-1.5,0-1.3-1.1-1.8-2.1c-0.1-0.2-0.7-1-0.8-1.2c-0.1-0.3,0.3-0.3,0.2-0.7
			c-0.1-0.5-0.2-1.1-0.3-1.5c-0.1-0.5,0.2-1,0.1-1.5l0.2-0.2c0.4-0.3,1-0.1,1.5-0.4c1.1-0.5,2.5-0.6,3.7-1.5c0.6,0.2,0.4,1,0.7,1.4
			c0.8,1.2,1.7,2.3,3.6,2.8c0,0.3,0,0.5-0.1,0.7c-0.1,0.7-0.5,0.7-0.9,1.2c-0.9,1.2-1.9,1.6-3.1,2.4l-0.5,0.5
			C401.5,255.4,399.6,255.7,399.4,255.4z M400.4,257.2v0.2h-0.3v-0.1C400.2,257.3,400.3,257.3,400.4,257.2z M397.1,256.4
			L397.1,256.4l-0.2,0.1v-0.1H397.1z M384.8,248.4c-0.2-0.5-0.7-1-0.8-1.6c2.3,0.5,3.3-0.2,5-1.3c0.4-0.3,1.2-0.4,1.5-0.7
			c0.3-0.3,0.6-0.7,1-1v-0.6c0.3-0.1,0.1,0.1,0.3-0.2c0.7,0.3,0.2,0.7,0.5,1.4c0.1,0.1,0.2,0.1,0.3,0.2c0.1,0.4,0.3,0.8,0.4,1.2
			c0.1,0.2,0.5,0.5,0.6,0.7c0,0.2,0.1,0.4,0.1,0.6c0.2,0.3,0.9,0.6,1.2,0.9c-0.1,0.7-0.8,1-1.2,1.5c-1.1,1.7-3.3,3.5-5.1,4.1
			c-0.8,0.3-1.7,0-2.3-0.1c-0.5-0.9-1.2-1.6-1.5-2.6C384.4,250.1,384.9,248.8,384.8,248.4z M383.8,238.3V238
			c1.1,0.5,3.7-0.5,4.5-1.1c0.4-0.3,0.4-0.7,0.9-1v-0.3h0.3c0.1,0.5,0.2,1.1,0.5,1.4c0.1,0.1,0.2,0.2,0.4,0.3c0,0-0.2,0.5-0.2,0.7
			c0.7,0.4,0.6,1.2,1.3,1.6c-0.1,0.7-0.7,2.7-1.8,2.7c0.1,0.2,0.2,0.2,0.3,0.4c-0.2,0.1-0.2,0.1-0.5,0.1v0.3c-0.4,0.2-0.9,0.8-1.3,1
			c-0.3,0.1-0.3-0.1-0.5,0h-0.1c0,0.1,0.1,0.1,0.1,0.2c-0.2,0.1-0.3,0-0.5,0c-0.3,0.2-0.4,0.4-0.8,0.7c-0.2,0.1-0.4,0.1-0.6,0.2h-1
			c0.1-0.4,0.1-0.4,0.6-0.5c-0.1-0.1-0.1-0.2-0.2-0.3c-0.4,0.1-0.3,0.4-0.7,0.6v0.1c-0.4-0.1-0.6-0.4-0.9-0.6
			c-0.2-0.8-0.6-3-0.3-4.1C383.7,239.8,384.3,238.9,383.8,238.3z M388.3,228.6c0-1.3,0.6-0.4,1.3-1c0.1-0.1,0.2-0.4,0.3-0.5
			c0.3-0.2,0.7-0.1,0.9-0.1c0.7-0.2,1.3-0.9,1.9-1.3l1.3,1.3c0,0.2-0.1,0.3-0.1,0.5c0.2,0.6,0.9,1.1,0.9,1.6h0.4c-0.5,1-2,2-3.1,2.4
			c-0.5,0.2-1.3-0.2-1.4-0.2c-0.3,0.1-0.8,0.4-1.3,0c-0.7-0.4-0.4-1.6-1-1.9C388.2,229.1,388.5,228.9,388.3,228.6z M392.7,225.7
			c0.1-0.1,0.2-0.1,0.3-0.3c0.2,0,0.3,0.1,0.5,0.1v0.9h-0.1L392.7,225.7z M394.1,216.5c0.1-0.6,1-2,0.6-2.7c0.4-0.7,2.1-0.6,2.7-1.2
			c0.6,0.6,0.5,1.4,1,2.1c0.5,0.9,1.8,0.8,2.5,1.4c0.1,0.1,0,0,0.1,0.2c-0.2,0.1-0.4,0.2-0.6,0.3c-0.1,0.5-0.1,1.4-0.3,1.7
			c-0.2,0.3-0.6,0.7-1,0.8c-0.1,0.1-0.1,0-0.3-0.1h-0.2c0.1,0.1,0.1,0.2,0.2,0.3c-0.6,1.1-2.8,0.8-4,0.6c-0.1-0.4-0.6-1.6-0.8-1.8
			c0.1-0.2,0-0.1,0.3-0.2C394.3,217.4,394,216.9,394.1,216.5z M398.8,204.1c0.1-0.3,0.4-0.5,0.5-1.1c0.5-0.1,2.6-1,3-1.3
			c0.3-0.2,0.4-0.7,0.7-1c0,0,0.1-0.1,0.1-0.1c0.1,0.5-0.2,0.8-0.1,1.3c0.1,0.4,0.2,1.1,0.2,1.7c0.5,0.5,1,1.1,1.8,1.2
			c-0.2,0.7-1,1.5-1.6,1.7c0,0.2-0.1,0.3-0.1,0.5h-0.8c-0.2,0.6-0.7,0.5-0.9,1.1c-0.6-0.1-1.8,0.4-2.3-0.1c-0.8-0.5-0.5-2.3-0.4-3
			C398.9,204.8,398.9,204.5,398.8,204.1z M409.1,183c0.1-0.9,1.4-1,1.8-1.6c0.5,0.3,0.2,0.9,0.4,1.4c0.1,0.2,0.4,0.2,0.5,0.4
			c0.1,0.3,0.2,0.6,0.3,0.9c0.1,0.1,0.6,0.2,0.9,0.3c0.1,0.2,0.1,0.8,0.3,1c0,0.6,0,1,0,1.7c-0.7,0.7-1.8,1.6-2.8,2
			c-0.4,0.2-0.7,0.1-1,0.3c-0.1,0-0.1-0.1-0.2-0.1c-0.2-0.5-0.6-1.2-0.7-1.6c-0.1-0.5,0.4-0.9,0.2-1.5c-0.1-0.2-0.4-0.4-0.3-0.8
			C408.7,184.7,409.3,183.6,409.1,183z M423.7,210.9c0.1-0.5,0.8-0.9,1.3-1c0.2,1.2,1.7,3.5,1.3,4.9c0,0.1-0.3,0.4-0.3,0.5
			c0,0.4-0.1,0.9-0.1,1.3c-0.2,0.5-0.7,0.9-0.8,1.6c-0.5-0.3-0.3-1.2-0.5-1.8c-0.4-1.3-0.8-3-1.1-4.4
			C423.3,211.4,423.9,211.3,423.7,210.9z M432.8,223.2h0.4c0-0.2,0-0.2,0.1-0.3v-0.2h0.4c0-0.7,0.2-0.8,0.2-1.5
			c0.4,0,1.1,0.1,1.4,0.3h0.7c0.1,0.7-1.3,4.8-1.8,5.3v0.5c0.1,0.1,0.8,0.5,1,0.7c0.6,0.7,0.7,1.4,1.5,1.9c-0.2,0.8-1,0.6-1.5,1
			c-1.6,0-1.9-1.2-2.5-2.2c-0.2-0.2-0.3-0.3-0.5-0.5c-0.1-0.2,0.2-0.7,0.1-1c-0.1-0.2-0.6-0.5-0.7-0.8c-0.2-0.5,0.3-0.8-0.3-1.3
			c-0.1-0.1-0.1-0.1-0.3-0.1c0.1-0.3,0.5-0.7,0.9-0.7c0,0,0.1,0.2,0.3,0.1c0.4-0.2-0.1-0.4,0.6-0.4
			C432.8,223.6,432.9,223.5,432.8,223.2z M436.2,246.5c0.4-0.2,1.5,0.8,1.9,1c0.3,0.1,0.6,0.1,1,0.2c0.1,0.2-0.1,0.5-0.1,0.6h0.2
			c0-0.2,0.1-0.4,0.1-0.6c1.2,0,2.2-0.5,2.7-1.3c0.3,0.2,0.3,1,0.5,1.3c1.8,3.5-0.2,4.5-1.9,6.6c-0.4,0-1,0.1-1.3,0.3
			c-1.6-1-1.5-3.4-2.8-4.4c0-0.3,0-0.3,0.2-0.5c-0.1-0.1-0.3,0-0.4,0c-0.3-0.2-0.3-0.6-0.7-0.8c0.1-0.3,0.3-0.4,0.4-0.7
			c0-0.2-0.1-0.4-0.1-0.7c0-0.1,0.3-0.4,0.3-0.5C436.3,246.8,436.1,246.7,436.2,246.5z M434,241c-0.7-0.6-1.5-1.5-1.9-2.4
			c-0.1-0.2-0.3-1-0.3-1.1c0-0.1,0.3-0.1,0.2-0.3c-0.1-0.1-0.2-0.1-0.3-0.2c-0.3-0.4-0.5-1-0.5-1.6H431c-0.1-0.4-0.5-0.7-1-0.8
			c0.2-0.5,0.2-0.9,0.4-1.5c0.1-0.3,0.5-0.8,0.6-1.1c0.2-0.4,0-0.9,0.3-1.2v-0.2h0.1c0.6,0.8,3.3,2.9,4.8,1.9c0.5,0,0.7,0,1,0.2
			C437.8,236,438.1,241,434,241z M432.9,249.2c-0.1,0.8-0.8,0.7-1.2,1.2c-0.3,0-0.4,0-0.6,0.1c-0.4-1.1-0.8-2.5-1.1-3.6
			c-0.1-0.3,0.2-0.9,0.2-1.3h0.3v-0.3c0.5,0,0.6-0.1,0.9-0.3c0.9-0.3,1-1.8,1-2.8c0.6,0.1,1.3,0.6,1.7,1c0,0.3-0.2,1.3-0.1,1.4
			c0.1,0.2,0.4,0.6,0.5,0.9c0,0.2-0.2,0.6-0.2,0.7c-0.3,1.3-0.3,2.8-1.5,2.8C432.9,249.1,432.8,249.1,432.9,249.2z M428.4,250.3
			c-0.4-0.2-0.5-0.8-0.8-1.1v-0.1c0.3,0.1,0.6,0.2,0.8,0.4h0.2c-0.1-0.4-0.6-0.7-1-0.9c0-0.5,0.1-1-0.1-1.2c0.1-0.3,0-0.2,0.2-0.4
			c0.1,0,0.7,0,1.3,0c0.1,1.6,1,2.5,1,4.1c-0.3,0-0.5,0-0.7-0.2c-0.4,0-0.4,0-0.6-0.3c-0.1-0.1-0.1,0,0-0.2v-0.5
			C428.5,250.2,428.5,250.2,428.4,250.3z M394.5,238.5c-0.5,0.3-1.3,0-1.8,0c-0.6-1.3-1.6-3.4-1.5-5.1c0.3,0,0.5-0.1,0.8-0.1
			c0.1,0,0.3,0.3,0.7,0.2c0.3-0.1,0.6-0.5,0.9-0.6c0.6-0.3,1-0.3,1.5-0.7l1.1-1.1v-0.1h0.1c0.1,0.7,0.4,1.1,0.5,2h0.3
			c0,1.5,1.2,2.8,2.2,3.4c-0.2,0.4-0.5,0.6-0.8,1H398c0,0.3,0,0.3-0.2,0.5c0,0.1-0.1,0.2-0.1,0.3c-0.5,0-1.2-0.2-1.7,0
			c-0.3,0.2-0.3,0.4-1,0.4c0.1-0.3,0.1-0.3,0.3-0.5v-0.2C394.9,238,394.8,238.3,394.5,238.5z M400.7,222.2c0,0.6,0.5,1,1,1.3v0.3
			c0.7,0.1,0.9,0.6,1.8,0.6c0,0.2,0,0.2,0.1,0.3v0.2c0.3-0.1,0.5-0.3,0.7-0.5c0.5,0.1,0.5,0.2,0.9,0.1c-0.2,0.4-0.8,0.6-1.1,1
			c-0.1,0.3-0.2,0.6-0.3,0.9c-0.1,0.2-0.4,0.2-0.6,0.3c-0.3,0.2-0.4,0.6-0.7,0.9c-0.8,0.8-2.3,1.1-3.7,1.2v-0.3
			c-0.1,0.1-0.2,0.2-0.3,0.3c-0.7-0.1-1.5-0.6-2.3-0.7c-0.2-0.4-0.5-0.8-0.7-1.2c-0.2-0.6-0.3-4,0.2-4.5V222c0.4,0,1,0.2,1.4,0.1
			c0.6-0.1,1.1-0.6,1.6-0.8c0.4-0.2,0.7,0,1-0.2c0.3,0.1,0.3,0.1,0.6,0.2c0,0.2,0.1,0.5,0.1,0.7c-0.2,0-0.2,0-0.3,0.1h-0.1v0.2
			C400.3,222.3,400.5,222.3,400.7,222.2z M400.2,211.2h-0.6c0.1-0.3,0.2-0.6,0.4-0.9c0.5-0.4,1.7-0.1,2-0.3c0.4-0.2,0.9-0.6,1.4-0.9
			v-0.4c0.7-0.1,0.8-0.4,1.3-0.3c0-0.2-0.1-0.3-0.1-0.5c0.3-0.1,0.5-0.2,0.7-0.5c0.5,0.3,0.2,1,0.4,1.5l0.4,0.4
			c0.2,0.5,0.1,1,0.4,1.3c0.2,0.3,0.5,0.2,0.6,0.7c-0.2,0.2-0.3,0.4-0.5,0.6c-0.2,0.1-0.4,0-0.6,0.1c-0.1,0.1-0.1,0,0,0.2
			c-0.1,0.1-2.3,1.1-2.6,1c-0.3,0.1-0.2-0.1-0.2,0.3c-0.5,0.2-1.8,1.1-2.3,0.5h-0.7c-0.4-0.2-1-1.8-0.8-2.1v-0.4
			c0.4-0.1,0.8-0.1,1.3-0.2v-0.2C400.6,211.1,400.4,211,400.2,211.2z M407.6,203.7c0.1-0.3,0.6-0.2,0.9-0.4c0.8-0.4,2.1-1.1,2.4-2
			c0.3,0.1,0.3,0.1,0.5,0.2c0,1.8,0.7,3.7,2.1,4.2v0.9c-0.9,0.3-0.9,1.5-1.5,1.9c-0.8,0.5-2.1,0.8-2.6,1.5h-0.8
			c-0.4-0.2-1.3-3.6-1.2-4.4c0-0.1,0.3-0.5,0.3-0.6C407.7,204.6,407.6,204.1,407.6,203.7z M417.3,203l-0.9,0.8
			c-0.6,0.4-1.3,0.1-1.9,0.5c-0.3-0.3-0.5-0.5-0.8-0.8c-0.3-0.5-0.9-4.4-0.8-4.9c0.1-0.3,0.3-0.6,0.4-1c0.4-0.2,1-0.5,1.3-0.9
			c0.9,0.1,0.5,0.9,1,1.5c0.6,0.9,2.4,1.3,3.3,1.9c-0.1,0.8-0.7,1.1-0.9,1.8c-0.2-0.1-0.2-0.1-0.2-0.5h-0.2c0,0.3,0,0.6-0.1,0.8
			c-0.1,0.1,0,0.1-0.1,0.1C417.1,202.7,417.5,202.6,417.3,203z M420.9,226.4c0.1,0.5,0.2,0.3,0.4,0.6c0.1,0.2,0.1,0.4,0.2,0.6
			c0.4,0.7,1.3,0.8,2.1,1.1c-0.1,0.4-0.3,0.7-0.4,1.1c-0.6-0.2-1.2-0.3-1.8-0.5h-0.1v0.2c0.6,0.2,1.2,0.4,1.7,0.6
			c-0.5,1.2-3.8,2.9-5,2.1c-0.6-0.2-1.2-2.1-1.3-2.7c-0.2-0.6,0.3-1.7-0.3-2.3c0.1-0.4,1.3-0.9,1.7-1.1h0.7c0.1-0.1,0.1-0.4,0.2-0.5
			c0.4-0.5,1.1-0.8,1.5-1.3h0.2C420.7,224.8,420.6,225.9,420.9,226.4z M423.1,227.4c0.1-0.2,0-0.1,0.1-0.2
			C423.1,227.4,423.2,227.3,423.1,227.4z M425.2,230.5c0.2,0.3,0.3,1.1,0.4,1.4c0,0.2-0.1,0.4-0.1,0.6c0.1,0.2,0.3,0.8,0.4,1.1
			c0,0.2-0.1,0.4-0.1,0.6c0,0.1,0.3,0.2,0.4,0.5c0,0.2-0.1,0.5-0.1,0.7c0.1,0.6,0.2,1.7,0.6,2.1v0.2c-0.7-0.3-0.9-0.4-1.5,0
			c-0.2-0.1-0.4-0.1-0.6-0.2c-0.2,0-0.4,0.3-0.8,0.2c-0.2-0.1-0.7-0.2-0.9-0.3c-0.2,0-0.4,0.3-0.7,0.2c0-0.1-0.1-0.1-0.1-0.2h-0.4
			v-0.2h-0.4c-1.2-0.6-1.9-1.5-2.3-2.9c0.3-0.1,0.5,0.1,0.9,0c0.3-0.1,1-0.3,1.3-0.5c0.1-0.1,0.2-0.3,0.3-0.4c0.3,0,0.6-0.1,1-0.1
			c0.8-0.3,1-1.1,1.9-1.1C424.1,231.3,425,231.3,425.2,230.5z M426.6,228.1c0.3-0.3,0.8-0.6,1.1-0.9c0.2-0.2,0.1-0.4,0.3-0.7
			c0.2-0.2,0.5-0.3,0.7-0.5c0.2-0.3,0.1-0.7,0.1-0.9c0.2-0.3,0.4-0.5,0.6-0.8h0.3c-0.1,0.4-0.4,1-0.3,1.4c0,0.1,0.3,0.4,0.4,0.5
			c0.2,0.5-0.2,1.2-0.2,1.5c0,0.6,0.4,1.5,0,2.1c0,0.7,0.1,1.1-0.5,1.2c0.2,1-0.4,1.8-0.8,2.6c-0.2-0.1-0.2,0-0.3-0.2h-0.2
			c0.1,0.3,0.1,0.3,0.3,0.4c-0.1,0.4-0.2,0.3-0.3,0.7c-0.2,0-0.3,0-0.4-0.1c-0.5-0.7-0.6-2.9-0.9-4c-0.1-0.6,0-1.3-0.3-1.7v-0.6
			c0.2,0.1,0.2,0.1,0.3,0.4h0.2C426.7,228.4,426.7,228.3,426.6,228.1z M406.8,224.4c1.6-0.3,2.7-1.5,3.7-2.5c0.2,0,0.2,0,0.3,0.1
			c0.5,0.8,0.5,1.8,1.1,2.5c0.2,0.2,0.5,0.3,0.8,0.5l0.2,0.5h0.4c0.2,0.1,1.1,0.8,1.3,1c0.1,0.1-0.2,0.7,0,1.1
			c-0.2,1.2-2.1,2.3-3.3,2.6c-0.4,0.1-1.3,0.4-1.7,0.1c-1.3,0-2.4-1.5-2.8-2.4c-0.2-0.5-0.1-1.1-0.4-1.5c0-0.3,0-0.4,0.1-0.6h0.8
			C407.1,225.1,406.9,225,406.8,224.4z M409,232.3c0.2,0,0.4-0.1,0.6-0.1v-0.3c0.2,0.1,2.4,0.3,2.4,0.3c0.2-0.1,0.3-0.5,0.5-0.6
			c0,0,0.9-0.3,1.1-0.3v-0.3c0.3-0.2,0.6-0.5,1-0.6c0.1-0.1,0.2-0.1,0.4-0.1c0.2,1.5,0.9,2.2,1.7,3.1c-0.1,0.8-0.5,1.5-1.1,1.5
			c0,0.1,0.1,0.2,0.1,0.3c-0.6,0.3-1.1,0.6-1.6,0.7c-0.1,0.2-0.3,0.3-0.4,0.5c-0.4,0.2-1.5,0-1.9,0.1c-0.3-0.3-0.4-0.3-0.5-0.8
			c-0.4,0-0.1-0.1-0.4,0.1c-0.6-1-1-2.4-1.9-3.1C409,232.6,409,232.5,409,232.3z M413.9,238.3c0.1,0,0.3,0.1,0.4,0.1
			c0.3-0.1,0.9-0.7,1.2-1c0.3,0,0.3,0,0.5,0.2c0.3-0.2,0.1-0.1,0.1-0.3c0.5-0.4,1.1-0.4,1.3-1.1h0.3c0.2,1.2,1,1.1,1.5,1.7
			c0.2,0.3,0.2,0.7,0.4,1v0.1c0.1-0.2,0.1-0.4,0-0.6c0.9-0.1,1.8,0.5,2.5,0.9c0,0.1,0.1,0.2,0.1,0.3c-0.2,0.2-0.1,0.3-0.3,0.7
			c-0.2,0.5-1,1-1.4,1.3v0.3H420c-0.3,0.4-0.9,0.5-1.2,1c-0.6-0.3-1.5,0.3-2.1,0.2c-0.9-0.2-3-2.2-3.5-2.9c-0.1-0.2-0.1-0.7-0.2-0.9
			C413.1,238.7,413.4,238.4,413.9,238.3z M419.7,220.3c0,0.6,0.3,0.8,0.4,1.3l-0.1,0.1h-0.1c-0.1-0.2-0.1-0.5-0.2-0.8h-0.2l0.3,1.3
			c-0.3,0.3-0.6,0.6-1,1c-0.1,0-0.3-0.1-0.4-0.1c0,0.2-0.1,0.4-0.1,0.6c0,0-1.2,0.7-1.3,0.8c-0.5,0.2-1.1,0.1-1.5,0.4
			c-0.6-0.1-2.3-1.5-2.5-2c-0.3-0.8-0.1-1.6-0.5-2.2v-1.9c0.2-0.5,1.2-0.4,1.7-0.6l1.4-0.8c0.4-0.4,0.5-1,1.2-1.2
			c0.7,0.7,1.4,1.6,1.8,2.4h0.4c0.2,0.7,0.7,0.5,0.7,1.4h0.1c0.1-0.1,0.1-0.3,0.2-0.4c0,0,0.1-0.1,0.1-0.1c0.1,0.1,0.1,0.2,0.2,0.3
			C420.3,220.2,420.1,220.2,419.7,220.3z M416.3,214.1c-1,0.4-1.5,1.3-2.4,1.8c-0.5,0.3-1.3,0.2-1.7,0.6h-0.9
			c-0.5-0.2-1.6-2.1-1.8-2.6c-0.2-0.4,0-0.8-0.2-1.2c0-0.3,0-0.7,0.1-0.9c0.2-0.1,0.6,0.1,0.7,0.4h0.2c0-0.1,0-0.6,0.1-0.7
			c0.3-0.1,0.6-0.2,0.9-0.3c1-0.5,2.6-1.5,3-2.6h0.2c0.4,1,1.7,3.2,2.7,3.6C416.9,213,416.3,212.9,416.3,214.1z M407.4,213.8
			c0.6,1.6,1.5,2.7,2.5,3.9c0.2,0.2,0.7,0.2,0.9,0.5h0.1c-1,2.1-3.2,5-6.3,4.3c-0.7-0.1-0.9,0.2-1.4-0.2c-0.7-0.4-1.2-3.1-0.7-3.8
			c0.2-0.4,0.4-0.3,0.8-0.6h0.1v-0.2c-0.2,0.1-0.2,0.1-0.5,0.1c0-0.9,0.6-1.1,0.2-1.5c0-0.9,2.3-1.9,2.9-1.4h0.2v-0.5
			C406.7,214.3,406.9,214,407.4,213.8z M398.5,231.7h0.3c-0.1-0.4-0.6-0.7-0.3-1.2v-0.2c0.4-0.1,0.8-0.3,1.3-0.2
			c0.3,0,0.8,0.4,1.3,0.2c0.9-0.4,2.2-0.9,2.7-1.6c0.3,0.1,0.2,0,0.4,0.2h0.2c-0.1-0.2,0-0.2-0.2-0.3c0-0.5,0.1-0.6,0.5-0.7
			c0.1-0.1,0,0,0.2-0.1c0.3,0.6,1.3,2.6,1.9,2.7v0.4c0.4,0.1,0.6,0.4,0.8,0.7c0,0,0.1,0.1,0.1,0.1c-0.4,0.3-0.7,0.9-1.1,1.3
			c-0.3,0.4-0.9,0.6-1.3,1c-0.1,0.1-0.2,0.3-0.3,0.4c-0.7,0.4-1.5,0.1-2.5,0.3c-0.5,0.1-1.2,0.3-1.9,0.4
			C399.5,234.2,398.5,233.4,398.5,231.7z M400.7,237.2V237c0.5,0,1.4-0.2,2-0.3c0.5-0.1,1.2,0.2,1.8,0c0.5-0.1,0.9-0.5,1.3-0.2h0.1
			c-0.1-0.2,0-0.2-0.2-0.3c0.1-0.3,1.8-1.6,2.1-1.8c0.4,0.7,1,1.6,1.3,2.5c0,0.2,0.1,0.1-0.1,0.2c0.2,0.3,0.6,0.2,0.9,0.5
			c0.1,0.2,0,0.2,0,0.6c0.1-0.1,0.2-0.2,0.3-0.3h0.2c-0.2,0.6-0.8,1.1-1.3,1.3v0.3c-1.2,0.1-2.5,1.3-3.5,1.7c-0.4,0.2-0.8-0.1-1.1,0
			v0.2c-1.2,0.6-2.8,0.1-3.4-0.8c-0.1-0.2-0.5-1.5-0.6-1.7C400.4,238.2,401.1,237.7,400.7,237.2z M404.2,244.7
			c0.1-0.4,0.5-0.4,0.6-0.7c0.1-0.2,0-0.4,0.1-0.6c0.5-0.4,2.1-0.6,2.7-1c1.3-0.6,2.4-1.8,3.7-2.4c0.2,0.5,0.3,0.8,0.3,1.3
			c0.1-0.1,0.2-0.1,0.4-0.1c0,0.8,2.2,2.7,2.9,2.8c-0.2,0.1-0.3,0.2-0.7,0.2v0.5c-0.3,0.1-0.2,0-0.5,0c0,0.3,0.1,0.1,0,0.3
			c-0.1,0.7-0.8,0.9-1.3,1.3c-0.3,0.2-0.5,0.8-0.8,1c-1,0.7-3.5,1.4-5.4,1.3c-0.4-0.3-0.8-0.6-1.2-1c-0.1-0.2-0.9-2.1-0.9-2.3
			C404.2,245.1,404.4,245,404.2,244.7z M408.3,253v-0.3c0.3,0.1,0.4,0.1,0.6,0.3h0.2c-0.2-0.3-0.4-0.4-0.7-0.6
			c0-0.2,0.2-2.1,0.2-2.1c0.3-0.4,3.4-0.7,4-1.3c0.4-0.3,0.6-0.9,1-1.2c0.6-0.5,1.2-0.9,1.7-1.4c0.4,0.1,0.9,1.4,1.2,1.7
			c0.6,0.8,1.7,1.2,2.5,1.9c0,0-0.7,1.6-0.8,2.2h-0.3c-0.5,0.9-1.4,1.3-1.9,2c-0.2,0.3-0.2,0.7-0.5,0.9c-0.5,0.4-3.5,1.8-4,1.8
			c-0.3,0-0.1,0.2-0.3,0.3c-0.5-0.3-1.1,0.2-1.4,0c-0.4,0-0.5-0.1-0.8-0.3c-0.3-0.7-0.5-1.4-0.7-2.2
			C408.1,254.2,408.5,253.4,408.3,253z M418.5,247.5c-0.8-0.6-0.9-1.8-1.6-2.4v-0.2c1.3,0.1,2.8-0.1,3.8-0.8c0.7-0.5,1.1-1.3,2-1.7
			c0,0,0.1-0.1,0.1-0.1v0.1c0.4,0.3,0.1,0.9,0.4,1.3c0.2,0.4,0.7,0.5,1,0.8c0.2,0.2-0.1,0.5,0,0.6c0.1,0.1,0.5,0.1,0.7,0.2
			c0.4,0.2,0.6,0.6,1.1,0.8c-0.2,0.3-1.1,1.7-1.3,1.8l-1,0.3c-0.3,0.2-0.5,0.6-0.8,0.8c-0.4-0.2-0.9,0.2-1.3,0.1
			C420.4,248.8,419.2,248.1,418.5,247.5z M425,242.8c0.2-1,0-1.9-0.6-2.6c0-0.3,0-0.3,0.2-0.5c0.6-0.4,1.5,0.1,2.3-0.4
			c0.8,0.5,0.6,3.3,1.3,4.2v1.2c-0.1,0-0.2,0.1-0.3,0.1v0.1c-0.4-0.2-0.3-0.5-0.6-0.8v-0.1h-0.1c0,0.3,0,0.4,0.2,0.6v0.3h-0.1
			c-0.3-0.4-0.7-0.5-1.1-0.8C425.8,243.8,425.7,243.2,425,242.8z M429.5,244c-0.1-1.3-1.4-4.6-0.9-5.2c-0.2-0.3-0.1,0.1-0.4-0.1
			c0,0-0.4-1.7-0.4-1.9c0.6-0.1,0.8-0.6,1.3-0.9c0,0,0.1-0.1,0.1-0.1v0.1h0.2c0.2,1.4,0.8,2.5,1.2,3.8c0.3,1.1,0,2.5-0.1,3.8
			C430,243.6,430.1,243.9,429.5,244z M431.7,221.3c0,1-0.6,0.8-1,1.3c-1.8,0-1-1-1.5-2.1c-0.1-0.1-0.2-0.1-0.3-0.2
			c0-0.3-0.1-0.5-0.1-0.8c-0.1,0-0.3-0.1-0.4-0.1c-0.3-0.4-0.9-2.7-0.9-3.5c1,0.2,1.7,1,2.9,0.3c0.2,0.1,0.3,0.1,0.5,0
			C431.9,216.6,432.5,220.3,431.7,221.3z M427.7,217.2c-0.1,0.1-0.1,0.2-0.2,0.3c-0.1,0-0.1-0.1-0.2-0.1c0-0.3,0-0.5,0.1-0.7
			c0,0,0.1-0.1,0.1-0.1C427.5,216.8,427.6,217.1,427.7,217.2z M427.4,216.4c-0.2-0.1-0.1,0-0.2-0.1h-0.1c0.1-0.2,0-0.1,0.3-0.2
			L427.4,216.4L427.4,216.4z M427.3,223.1c-0.1,0.7-0.2,1.5-0.3,2.2c-0.3,0.2-0.6,0.4-0.9,0.7H426c0-2.3-0.3-3.8-0.8-5.8
			c0.4-0.2,0.6-0.6,1-0.8v-0.1C427.2,219.9,426.8,222.1,427.3,223.1z M424.6,223.9c0.2,0.8,0,2,0.2,2.5c0,0.3,0,0.4-0.1,0.6
			c-0.1-0.1-0.1-0.2-0.2-0.3c-0.1-0.1-0.4,0.1-0.7,0c-0.1,0-1-0.7-1-0.8c0-0.6-0.1-1.2-0.1-1.8c-0.5-1.7,0-3.1,0-4.4
			c0.4-0.1,0.5-0.2,0.7-0.4C424.2,220.3,424.4,222.7,424.6,223.9z M423.5,218.2c-0.2-0.1-0.4-0.3-0.5-0.5c-1.3,0-2.9-0.2-3.5-1.1
			c-0.1-0.3-0.2-0.6-0.3-1c-0.2-0.4-0.9-0.8-0.6-1.3c0-0.3,0-0.6,0.1-0.8c0.5-0.3,1.1-0.1,1.5,0c0.3,0,1.8-0.6,1.9-0.8
			c0.4,0.3,0.2,1.1,0.4,1.6c0.2,0.7,0.5,2.7,0.9,3.3L423.5,218.2L423.5,218.2z M421.6,211.3c-0.3,0.1-2.4-0.1-2.6-0.2
			c-0.2-0.3-0.4-0.5-0.7-0.8c-0.2-0.1-0.5,0.2-0.7-0.1v-0.5c-0.2-0.3-0.8-0.3-1-0.6c-0.2-0.3-0.1-0.8-0.3-1.3
			c-0.1-0.3-0.5-0.8-0.6-1.1c-0.1-0.3,0-0.7,0-1h0.1c0.2-0.1,0.2,0,0.6,0.1v-0.3c1.2-0.5,2.5-1.1,2.8-2.5h0.3v-0.4l0.4-0.4h0.2
			c-0.1,2.8,1.5,5.1,1.7,7.9C421.9,210.3,421.7,210.9,421.6,211.3z M419.3,198.4c-0.3-0.2-0.5-0.6-0.8-0.7H418
			c-0.1-0.1-0.1-0.4-0.2-0.5c-0.5-0.8-0.5-1.6-0.4-2.5c0-0.2-0.1-0.5-0.1-0.7c0.1-0.2,0.3-0.4,0.4-0.7c0.1-0.4-0.2-0.9-0.1-1.1v-0.4
			c0.3,0,0.3-0.1,0.5,0c0.5,0.2,0.3,0.9,0.4,1.4c0.3,1.1,0.1,3.2,0.9,3.8L419.3,198.4L419.3,198.4z M417.8,189.7
			c-0.1,0.2-0.8,0.5-1.1,0.6l-0.1,0.1c-0.6-1.4-1.3-3.3-1.3-5.1c0.7,0.1,1,0.5,1.4,0.2c0.3,0.1,0.3,0.1,0.5,0.2
			C417.4,186.4,418.1,189.3,417.8,189.7z M415.5,191.9c-0.1,0.4-0.4,0.8-0.1,1.2c-0.1,0.9-2.7,3.2-3.7,2.8c-0.8,0-1-0.1-1.4-0.4
			c0-0.9,0-2.9-0.4-3.4v-0.3c0.2,0.1,0.1,0,0.2,0.1h0.3c-0.1-0.3-0.2-0.3-0.3-0.6c0.7-0.6,1.7-1.1,2.4-1.6c0.3-0.3,0.9-0.3,1.2-0.6
			C414.7,189.4,414.1,191.5,415.5,191.9z M410.3,197.6c0.1,0.2,0.1,0,0.3-0.1c0.1,0.2,0.1,0.1,0.3,0.2c-0.3,1.3-2,3.7-3.3,3.8v0.3
			c-0.3,0.1-0.3,0.2-0.6,0.3v0.1c-0.2-0.1-0.1,0-0.2-0.3c-0.2,0.1-0.2,0.5-0.4,0.6h-0.4c-0.2,0.1-0.7,0.4-0.8,0.5
			c-0.2-0.1-0.2-0.1-0.4-0.2c0.1-1.1,0.2-2.4-0.1-3.6c0-0.4,0.1-0.9,0.1-1.3c-0.2-0.8-0.3-1.3-0.3-2.1c1.4-0.1,1.5-1.1,2.7-1.3v-0.3
			c0.4-0.1,0.3-0.1,0.7-0.2C408.1,195.9,408.8,197.2,410.3,197.6z M390.3,254.9c1-0.5,1.9-1.3,2.9-1.8v-0.4h0.4
			c0.3-0.4,0.7-1,1.1-1.3c0.1-0.1,0.1,0,0.3-0.1c0.5,1.5,0.4,4,1.7,4.9v0.2c-1.4-0.7-4.6-1.3-6.3-1.3L390.3,254.9L390.3,254.9z
			 M396.3,246.4c-1.4,0-1.4-1.1-1.8-2.1c-0.1-0.3-0.6-0.7-0.7-1c-0.2-0.5,0.1-1,0.3-1.2c0.1-0.4-0.6-1.1-0.1-1.6
			c0.2-0.1,0.5,0.2,0.7,0.1c0.7-0.2,3.4-0.4,3.8-0.9c0.6,0.2,0.8,1.6,1.1,2.1c0.2,0.5,1,0.6,1.3,1c0.2,0.3,0,0.5,0.2,0.7v0.1h0.1
			c0-0.3,0-0.4-0.1-0.6v-0.3h0.2c0.1,0.3,0.2,0.4,0.4,0.6c-0.1,0.5-0.4,0.7-0.1,1.2c-0.2,0.6-0.4,0.3-1,0.5l-0.4,0.4
			c-0.4,0-0.7,0.1-1.1,0.1c-0.1,0-1.4,0.4-1.4,0.5c0,0.1-0.1,0.2-0.1,0.3C397.1,246.4,396.8,246.1,396.3,246.4z M402.2,257.1
			c0.9-0.4,3.3-1.8,3.8-2.6h0.2c0.4,1.1,0.2,3.3,1.6,3.8l-0.3,0.3v0.1c1.3-0.1,2.8,0.8,4.1,0.4c0.7-0.2,1.3-0.7,1.9-1
			c0.3,0,0.5-0.1,0.8-0.1c0.4-0.2,1-0.5,1.4-0.8c0.5-0.3,0.5-0.9,1.2-1.1c0-0.2-0.1-0.1,0-0.3c0.1-0.3,1-0.9,1.3-1.2h0.2
			c-0.1,1.3,0,2.5,0.6,3.6c0.2,0.4,0.7,0.8,0.9,1.2c0.4,0.7,0.5,1.4,1.3,1.6v0.2c-0.8,0-1.2-0.2-1.7-0.4c-0.3,0-0.5,0.1-0.8,0.1
			c-0.4-0.1-0.9-0.3-1.3-0.5c-0.1,0-0.2,0.1-0.3,0.1c-0.1-0.1-0.2-0.3-0.3-0.4c-0.3,0.1-0.6,0.1-0.9,0.2c-0.5-0.1-1.7-0.5-2.5-0.7
			c-0.3,0-0.5,0.1-0.8,0.1c-0.5,0-0.9-0.2-1.3-0.3c-0.1,0-0.3,0.1-0.4,0.1c-1.1-0.2-2.3-0.5-3.4-0.8h-1.3c-0.6-0.2-1.6-0.6-2.2-0.8
			c-0.7-0.1-1.3-0.1-2-0.2c-0.5-0.2-0.9-0.4-1.6-0.5C400.8,257.2,401.7,257.4,402.2,257.1z M420.9,258.3c-0.1-0.8-0.3-1.6-0.5-2.6
			c-0.1-0.5,0.1-0.8-0.1-1.3c0.2-0.1,0.2-0.1,0.4-0.2c-0.2-1.1,0-1.9,0.1-3.1c0.9-0.4,1.4,0,2.1-0.2c0.1,0,0.6-0.2,0.8-0.3
			c0.1,0,0.1-0.4,0.2-0.4c0.2,0,0.3,0.1,0.5,0.1c0.2-0.1,0.5-0.5,0.6-0.8c1.6,0.1,2.1,3.8,4.4,3.5c-0.1,0.3-0.3,0.4-0.4,0.6
			c0,0.5,0.1,1,0.1,1.4c-0.1,0.5-0.5,0.8-0.6,1.4h-0.3c-0.7,1.1-2.2,1.9-3.2,2.4c-0.1,0.1-0.2,0.4-0.3,0.5c-0.4,0.3-1.2-0.1-1.6,0.3
			C421.3,259.7,422.1,258.7,420.9,258.3z M424.6,261.2h0.9c1.1-0.3,1.8-1.5,2.6-2.1c0.5-0.3,1.1-0.5,1.4-1c0.4,0.1,1.9,1.7,2.1,2
			c0.1,0.2,0,0.5,0.1,0.8l0.5,0.5c-0.1,0.1-0.3,0.1-0.4,0.2v0.2c0.4-0.1,0.4-0.2,0.7-0.1c-0.1,0.3-0.2,0.7-0.3,1
			c-0.7,0-1.5-0.2-2.1-0.4c-0.7-0.2-1.7-0.1-2.2-0.1c-0.2,0-0.3,0.1-0.5,0.1c-0.2,0-0.6-0.4-0.8-0.4c-0.3,0-1.3,0.3-1.7,0.2
			c-0.4-0.1-0.7-0.3-1.5-0.3C423.5,261.6,424.4,261.2,424.6,261.2z M437.2,258.5c0.3,0,0.4,0.1,0.6,0.2c-0.2,0.5-0.9,0.9-1.3,1.2
			C436.8,259.3,437.2,259.1,437.2,258.5z M437.7,258.3l0.5-1.8v-0.2c0.4,0,0.4,0.2,0.7,0.3c0.6,0.2,1-0.2,1.3,0
			c0.6-0.1,0.4-0.2,0.7-0.5c0.3-0.1,0.6-0.1,0.9-0.2c0.6-0.3,1.1-0.9,1.6-1.3c0.5-0.4,0.2-0.9,1.1-1.1c-0.1-0.2,0-0.1-0.3-0.2
			c0.1-0.6,0.6-1.9,0.9-2.2c0.5-0.3,1.4,0.9,1.7,1.2c0.2,0.1,0.5,0.1,0.7,0.2c0.2,0.1,0.1,0,0.2,0.1c-0.2,0.1-0.4,0.3-0.6,0.4
			c-0.2,0.1-0.3-0.1-0.4-0.1c-0.1,0.1-0.1,0.3-0.2,0.4c-0.8,0.6-1.6,1.3-2.3,1.8c-0.8,0.6-2.1,0.8-2.5,1.7c-0.5,0-0.5,0-0.9,0
			c-0.1,0.9-1.9,1.2-2.6,1.8C437.8,258.5,437.8,258.5,437.7,258.3z M444.7,247.3c-0.2-0.2-0.5-0.4-0.7-0.7c-0.3-0.6,0.1-1.3-0.6-1.5
			c0.1-0.8,0.6-1,0.8-1.5c0-0.4-0.1-0.7-0.1-1.1c0.1-0.1,0.3-0.1,0.4-0.2v-0.6h0.4c0.6,0.7,1.7,1.2,2.4,1.8c0.9-0.1,1.9-0.3,2.3-0.8
			c1.2,0,0.4,0.3,0.9,0.9c0.1,0.1,0.4,0.1,0.5,0.3c0.3,0.6-0.3,3.3-0.5,3.9c-0.4,1.1-2,1.7-2.9,2.5
			C446.1,250.1,445.5,248.4,444.7,247.3z M451.3,250.3c-0.1,0.1-0.1,0.1-0.2,0.2H451C451.1,250.3,450.9,250.4,451.3,250.3z
			 M438.4,241.2c0-0.1,0-0.6,0.1-0.8c0-0.1,0.3-0.1,0.4-0.2c0-0.1-0.1-0.3-0.1-0.4c0.1-0.4,0.3-1.2,0.5-1.5c0.1-0.1,0.5,0.1,0.7,0.3
			h0.2c-0.1-0.2-0.1-0.3-0.2-0.5c0,0,0.1-0.1,0.1-0.1c0.6,0.2,1.2,0.7,1.7,1.1c0.3,0.2,0.8,0.2,1.1,0.4c0,0.4-0.1,1.8,0,1.9v0.3
			c-0.1-0.1-0.2-0.1-0.3-0.2h-0.1c0.2,1.1-0.1,1-0.5,1.8c-0.1,0.3-0.2,0.6-0.3,1c-0.1,0.2-0.5,0.2-0.7,0.4c-0.1,0.1-0.1,0.3-0.2,0.4
			c-0.5,0.4-1,0.1-1.3,0.7c-1.9-0.1-3.4-1.2-3.7-3h0.3c0.2-0.3,0.5-0.5,0.8-0.7c0.1-0.1,0.4,0.1,0.6,0.3h0.1
			c-0.1-0.3-0.2-0.3-0.3-0.6C437.7,241.6,438,241.4,438.4,241.2z M434.4,212.9c0.2-0.6,0.1-1.6,0.6-2.2v-0.2h0.2
			c0.1,0.3,0.3,1.2,0.6,1.4c0.6,0.7,1.7,1.4,2,2.3c0.1,0.1,0.1,0.3,0.2,0.4c-0.1,0.8-0.5,1.7-0.6,2.1c-0.1,0.6,0,1.1-0.3,1.5
			c-0.1,0-0.2,0.1-0.3,0.1c-0.2,0.3,0.1,0.5-0.1,0.9c0,0.1-0.1,0.2-0.1,0.3c-0.4,0-0.5,0-0.7-0.3c-0.2,0.1-0.1,0-0.2,0.2
			c-1-0.1-1.1-0.6-1.6-1.2v-0.1c0.3,0.1,0.3,0.2,0.5,0.4h0.2c-0.1-0.7-0.6-0.6-0.9-1.1c-0.5-0.8-0.4-1.8-1.1-2.4
			C433.4,214.5,434.2,213.6,434.4,212.9z M427.7,207.7c0.3-0.1,0.4-0.5,0.5-0.9c0.2,0.1,0.2,0,0.3,0.2c0.2-0.1,0.5-1.5,0.9-1.8
			c0.2-0.1,2,0.4,2.3,0.7c0.3,0.1,1.4,1.7,1.3,2.1c-0.1,0.2-0.1,0.5-0.2,0.7c0,0.1,0.4,0.4,0.4,0.5c0.3,1.2-1,3.6-1.4,4.2
			c-0.3,0.4-0.9,0.6-1.2,1.1c-0.5,0-1.3,0.1-1.5,0c-0.2-0.1,0-0.2-0.5-0.3c-0.3-1.6-1.7-3.2-1.5-5.1h-0.3c-0.1-0.1-0.2-0.3-0.3-0.4
			C426.8,208.5,427.5,207.6,427.7,207.7z M425.1,193.3c0.4,0.8,0.4,1.9,0.9,2.6c-0.1,0.1-0.4,0.2-0.5,0.3c-1.8-0.1-0.7-3.2-1.4-4.2
			v-0.3h0.2C424.4,192.3,424.9,192.8,425.1,193.3z M424,191v0.6c-0.1-0.1-0.1-0.2-0.2-0.3C423.9,190.9,423.8,191,424,191z
			 M422.4,199.1L422.4,199.1c0.1,0.4,0.1,0.7-0.1,0.9v0.4h0.2c0.2-0.6,0.5-1.6,0.6-2.2c0.2-0.1,0.3-0.2,0.5-0.3
			c1.4,0.2,1.6,0.7,3.1,0c0.4,0.9,0.5,2.6,0.8,3.5c0.1,0.6-0.1,1.1,0.2,1.4c-0.1,2-0.8,3.2-2,4c-0.3,0.2-0.6,0.2-0.8,0.5
			c-0.2,0-0.4,0-0.5-0.1c-0.8-0.1-0.5-0.5-0.9-0.9c-0.2-0.2-0.5-0.1-0.6-0.3c0,0,0.2-0.3,0.1-0.5c-0.1-0.2-0.4-0.5-0.5-0.7
			c-0.3-0.6-0.4-3.3-0.3-3.8C422.4,200.2,422,199.7,422.4,199.1L422.4,199.1L422.4,199.1L422.4,199.1z M421,190.2
			c0.2-0.3,0-0.4,0.2-0.6v-0.1h0.1c0.2,1,0.5,1.6,0.8,2.4c0.4,1.5,0.3,2.9,0.2,4.6c-0.5,0.4-1.1,1.2-1.4,1.7c-0.2-0.1-0.1,0-0.2-0.1
			c-0.3-0.4-0.1-1.1-0.3-1.7c-0.4-1.4-0.8-3.6-0.8-5.3h0.5C420.2,190.8,420.8,190.5,421,190.2z M419.9,184c0.5,0.1,0.4,0.4,0.7,0.7
			v0.5c0,0-0.1,0.1-0.1,0.1c-0.3-0.1-0.3-0.1-0.5-0.3h-0.1c0,0.5,0.4,1.1,0.2,1.7c0,0.1-0.4,0.5-0.4,0.6c-0.1,0.4,0.4,0.3,0.2,0.8
			c-0.1,0.4-0.6,0.7-0.7,1.2h-0.1c-0.2-0.6-0.1-2.4-0.6-3.1C418.6,184.9,419.6,185,419.9,184z M416.9,175.6c0.1,1,0.7,1.7,1.1,2.5
			c0,0.3,0.1,0.6,0.1,0.9c0.3,0.9,0.7,2.6,1.2,3.3c-0.1,0.5-0.7,0.7-1,1.2c-0.4-0.3-0.4-1.6-0.6-2.2c-0.5-1.9-1.3-3.4-1.3-5.6
			L416.9,175.6L416.9,175.6z M415.5,173L415.5,173c0.2,0.2,0.3,0.3,0.4,0.4v0.4c-0.3-0.1-0.2-0.3-0.4-0.5L415.5,173L415.5,173z
			 M416.8,183.6c-1-0.2-2-0.6-3.1-0.8c-0.5-1-0.9-2.4-0.9-4h0.3c-0.1-0.6-0.1-0.7-0.1-1.3c0.1-0.1,0.2-0.2,0.3-0.4
			c0.6,0,1.2-0.1,1.8-0.1C415.6,179.2,416.9,181.2,416.8,183.6z M411.1,173.7c0-0.2,0.1-0.4,0.1-0.6c0.6-1.1,1.4-2,1.7-3.5h0.2
			c0.7,1.4,1.6,3.7,1.6,5.6c-0.7,0-1.6,0.1-2.1,0.3c-0.5-0.1-1.2-0.1-1.5,0c-0.2-0.2-0.4-0.4-0.7-0.6
			C410.4,174,410.8,174.2,411.1,173.7z M408,179.6v-0.5c0.2-0.4,0.6-0.8,0.8-1.2c0.2-0.2,0-0.5,0.2-0.8c0.1-0.2,0.4-0.3,0.5-0.7
			c0.3,0.1,1.1,0.4,1.3,0.5c0.2,0.1,0.1,0.1,0.3,0.2c0,0.7-0.1,1.9-0.5,2.3c-0.1,0.2-1.7,1.5-2,1.5v0.3c-0.7,0.1-0.8,0.4-1.4,0.5
			C407.1,181,407.6,180.2,408,179.6z M404.5,187c0.1-0.4,0.3-0.8,0.4-1.2c0.3-0.7,0.8-1.5,1.1-2.3c0.2,0,0.3,0,0.4,0.1
			c0.2,0.1,0.2,0.1,0.4,0.2c0,0.4-0.1,0.9,0.1,1.2c0,0.4,0,0.7-0.2,0.9c-0.1,0.4-2,2.3-2.5,2.4c-0.1,0.1,0,0.1-0.2,0
			C403.7,187.9,404.3,187.3,404.5,187z M402.8,190.3c0.5,0,0.7,0,0.9,0.2c1.2-0.1,2.4-1.3,2.8-2.2c0.7,0.1,1,1.7,1.7,2.2
			c-0.1,0.3-0.2,0.7-0.3,1c-0.3,0-0.2,0-0.6,0c0.1,0.3,0.1,0.6-0.1,0.9c-0.2,0.4-0.7,0.4-1.1,0.7c-0.4,0.4-0.8,0.8-1.2,1.2h-0.5
			c-0.3,0.1-0.8,0.5-1.2,0.7c-0.8,0.4-1.8,0.3-2.4,0.9h-0.7C400.8,193.8,402.4,192.1,402.8,190.3z M399.9,196.4
			c-0.1,0.2,0,0.1-0.1,0.2C399.9,196.4,399.8,196.5,399.9,196.4z M398.3,200c0.3-0.6,0.3-1.1,0.6-1.7c0.2-0.5,0.7-0.9,0.8-1.6
			c0.3,0.4,0.7,0.5,1.2,0.8c0.5-0.2,0.8-0.7,1.5-0.4c-0.1,1.4-0.8,3-1.7,3.6c-0.5,0.3-1.7,0.5-2,0.9c-0.5-0.1-0.5-0.3-0.9-0.3
			C397.8,200.6,398,200.4,398.3,200z M393.4,208.9c0.3-0.4,0.3-0.9,0.6-1.3c0.3-0.5,0.8-0.9,1.1-1.4v-0.4c0.5-0.8,1.2-1.6,1.4-2.6
			h0.2c0.1,0.1,0,0,0.2,0.1c0,0.8,0.2,1.7,0.1,2.3c0,0.3-0.3,0.8-0.2,1.3c0.1,0.4,0.3,1.2,0.5,1.7c0.1,0.3,0.6,0.6,0.7,0.9
			c0,0.2-0.1,0.8-0.1,1.2c-1.5,0.2-2.4,1.7-4.2,1.6c-0.5,0-1-0.4-1.5-0.6C392.1,210.3,392.9,209.7,393.4,208.9z M390.3,215.3
			c0.3-0.8,0.2-1.5,0.8-2c0.1-0.1,1.4,0.4,1.6,0.5c0,1-0.3,0.9-0.6,1.4v0.8c-0.1,0.2-0.3,0.7-0.5,0.9c-0.1,0.1-0.3,0-0.5,0.1
			c-0.2,0.2-0.6,0.7-0.9,1c-0.4,0.3-1,0.4-1.4,0.8h-0.1C388.9,217.4,389.8,216.4,390.3,215.3z M387.7,220.9c0.9,0,3-1,3.4-1.4h0.1
			c0-0.2,0-0.1-0.1-0.2c0.2-0.3,0.7-0.3,1-0.7c0.4,0.5,0.4,1.3,0.7,1.8c0.2,0.3,0.8,0.7,1.1,1v0.5c-0.8,0.6-1.3,2-2.1,2.6
			c-0.7,0.5-1.5,0.5-2.3,1l-0.4,0.4c-0.8,0-1.7,0.1-2.5,0.1c-0.4-0.1-0.5-0.4-1.1-0.5C385.9,223.6,387.1,222.4,387.7,220.9z
			 M381.6,233c0.6-1.5,1.1-2.7,1.8-4c0.3-0.6,1-1.4,1.2-2.2c0.5,0.1,0.8,0.5,1.3,0.7c0.3,0.1,0.3-0.1,0.4,0c0.1,0.3-0.1,1.3,0,1.7
			c0.5,1.4,0.8,3.7,2.4,4c-0.3,0.9-1.2,2-1.9,2.5c-0.5,0.3-1.4,0.3-1.8,0.7h-0.2c0.1-0.1,0.1-0.2,0.2-0.3v-0.2
			c-0.3,0.1-0.3,0.4-0.6,0.6c-0.6,0.3-2.1,0.1-2.6-0.3c-0.5-0.3-0.4-0.9-1.1-1.2C380.8,234.1,381.4,233.7,381.6,233z M382.7,250.2
			c0.1,0.5,0.2,1.7,0.6,2.2v0.3c-0.9-0.2-2-0.6-2.9-0.9c-0.8-0.2-1.8,0-2.4-0.4l-0.1-0.1h0.1c0.3-0.6,0.9-0.5,1.4-0.9
			c0-0.1,0.1-0.2,0.1-0.3c0.9-0.7,1.6-0.8,2.3-1.8c0.3,0.1,0.4,0.3,0.6,0C383,248.7,382.6,249.6,382.7,250.2z M375.1,247.5
			c0.4-0.8,0.4-1.7,0.8-2.6c0.2-0.5,0.8-1.1,1.1-1.6c0.3-0.8,0.7-1.5,1-2.2c0-0.2,0.1-0.4,0.1-0.7c0.5-1,1.5-2.2,1.5-3.5
			c0.5,0.1,0.4,0.3,0.7,0.5c0.5,0.4,1.2,0.5,1.8,0.8c-0.2,1.9-0.9,5.8,0.2,7c-0.1,0.8-0.7,0.8-1.3,1.3c-0.2,0.1-0.6,0.7-0.8,0.9
			h-0.1v0.4c-0.2,0.2-0.7,0.2-1,0.4c-0.7,0.5-1.6,1.3-2.3,1.7c-0.9,0.5-2.2,0-2.8,0.8c-0.2,0-0.2,0-0.4-0.1
			C373.7,249.8,374.8,248.1,375.1,247.5z M405.3,372.8c-0.1,0.7-0.8,2.4-0.3,3.3v0.7h-0.1c-0.1-0.2-0.1-0.5-0.1-0.8
			c-0.1,0-0.2,0.1-0.3,0.1c0,0.4,0.2,0.7,0.3,1c0.3,1-0.1,1.9-0.1,2.6c-0.2-0.1-0.3-0.2-0.5-0.4H404c0.1,0.6,0.3,0.7,0.6,1.1
			c0.1,0.1-0.4,1.9-0.3,2.5c0.1,0.6-0.2,0.9-0.4,1.3v0.9c-0.2,0.5-0.5,1.3-0.6,2c0,0.3,0.1,0.7,0.1,1.1c-0.1,0.6-0.4,1.4-0.3,2.2
			c0,0.1,0.1,2.5,0,2.8c-0.1,0.4-0.4,0.7-0.3,1.3c0,0.2,0.3,0.6,0.3,0.9c0,0.3-0.3,0.4-0.4,0.6c0,0.3,0.1,0.5,0.1,0.8
			c0,0.2-0.2,0.6-0.3,0.8c0.1,0.5,0.2,2,0,2.8c-0.1,0.3-0.2,1-0.2,1.3c0.1,0.7-0.1,3.8,0.3,4.5c0,0.2-0.2,0-0.2,0.4
			c0.2,1.4,0.1,3.1-0.2,4.8c-0.1,0.4,0.1,0.6,0.2,0.8c0.2,0.7-0.1,1.6,0,2.3c-0.1,1-0.1,1.9-0.2,2.9c0.4,1.3,0.3,3,0.3,4.4
			c-0.3,0-0.3,0-0.5,0.1c0.1,0.5,0.6,0.7,1.2,0.8v0.2c-0.1,0.1-0.3,0.1-0.4,0.2c-0.9,0-1.3-0.6-2.1-0.9c-0.5-0.1-1,0-1.3-0.1
			c-0.2,0-0.4-0.3-0.6-0.4h-0.9c-0.5-0.1-1.1-0.3-1.4-0.4c-0.6-0.1-1.2,0.1-1.9-0.1c-1.1-0.3-1.9-1.1-3.1-1.3
			c0.1-0.5,0.3-1.1,0.4-1.5c0.2-0.9-0.3-1.3-0.4-1.7c-0.2-0.6,0.2-1.9,0.3-2.3c0-0.7-0.1-1.3-0.1-2c0.1-1.5,0.6-3,0.3-4.2
			c-0.1-0.5,0.1-1.6,0.2-2c0.1-0.4-0.2-1.3-0.2-1.6c0.1-0.8,0.4-1.9,0.3-2.8c-0.4-2.5-0.6-7,0.1-10.2c0-0.3-0.1-0.6-0.1-0.9
			c0.1-0.5,0.2-1.4,0.3-1.9c0-0.3-0.1-0.6-0.1-1c0.4-1.8,0-3.8,0.4-5.5c0.2-1.1,0-2.7-0.1-3.7c0-0.2,0.2-0.7,0.1-1.1
			c-0.2-1-0.1-2,0.1-2.8c0.1-0.5,0-1.3-0.1-1.6c-0.1-0.7,0.2-2.5,0.3-3.1c0.3-1.1-0.5-2.8,0.3-3.8v-0.2c0.7,0.1,1.4,0.4,1.8,0.5
			c0.3,0.1,0.2-0.3,0.5-0.2c0.2,0.1,0.8,0.4,1.1,0.5h0.9c0.3,0.1,0.8,0.3,1,0.4c0.2,0,0.3-0.1,0.5-0.1c0.4,0.1,1.1,0.5,1.5,0.6
			c0.6,0.2,1.8,0.1,2.3,0.6c0.1,0.1,0,0.2,0,0.5c0.3-0.1,0.3-0.2,0.5-0.4c0.5,0,1,0.2,1.3,0.4h0.2c0,0.8,0.2,1.3,0.3,1.9
			c0.1,0.3-0.3,1.2-0.3,1.6C405.1,372.4,405.3,372.5,405.3,372.8z M393.8,363.1c0.1-0.2,0-0.1,0.3-0.2v0.2H393.8z M445,435.6
			c-1.9,0-3.3-0.8-4.9-1.3c-1.1-0.3-2.3-0.1-3.5-0.4c-1-0.3-2.2-0.7-3.2-1.1c-0.8-0.3-2.1-0.1-2.9-0.4c-0.6-0.2-1.4-0.5-2-0.7h-1
			c-3.8-1-7.6-2.3-11.1-3.8c-0.6-0.2-1.1-0.1-1.7-0.4c-0.3-0.1-0.8-0.5-1.1-0.6h-0.7c-0.2-0.1-0.3-0.2-0.7-0.3c0,0-0.1,0.1-0.1,0.1
			c-0.1-0.1-0.1-0.3-0.2-0.4c-0.3-0.2-1.5-0.3-1.5-0.3c-0.2-0.1-0.5-0.4-0.7-0.5c-1.1-0.5-2.1-0.3-3-1c-0.2-0.2-0.4-0.7-0.2-1
			c0.1-0.3,0.5-0.4,0.8-0.5v-0.2c-0.4-0.2-0.5-0.3-0.9-0.6c0-1.7-0.5-3.1-0.7-4.4c-0.1-0.7,0.3-1.4,0.1-2.2c-0.1-0.3-0.4-1-0.2-1.4
			c0.1-0.1,0.3,0,0.3-0.3c0-0.1-0.4-0.5-0.4-0.6c0-0.4,0.1-0.8,0.1-1.2c-0.1-1.2,0.1-4.1,0.2-5c0-0.4-0.1-0.8-0.1-1.2
			c0-0.9,0.1-2.3,0.3-3.4c0.1-0.7-0.2-1.7,0.1-2.2c0.1-0.6,0.4-0.5,0.8-0.8c0.1-0.1,0.1-0.1,0.1-0.3c-0.4,0.1-0.4,0.2-0.9,0.3
			c0-3-0.2-6.1,0.5-8.8c0.2-0.8-0.3-1.2,0-2.3c0.4-1.4,0.5-2.7,0.8-3.8v-1.9c0.1-0.3,0.2-0.7,0.2-1.3h0.3v-0.3c-0.2,0-0.2,0-0.3-0.1
			c-0.3-0.3,0-1.9,0.2-2.5c0.3-1,0.7-2.7,1-3.9c0.2-0.7,0-1.9-0.1-2.2c-0.1-0.3,0.1-0.6,0.1-0.8c0.1-0.4-0.1-0.8-0.1-1.1
			c0-0.6,0.1-0.8,0.2-1.3c0.2,0,0.2,0,0.3-0.1h0.1c-0.1-0.1-0.1-0.1-0.3-0.1c0.1-0.5,0.2-0.9,0.3-1.3c0.1-0.7-0.3-1.4-0.1-1.9
			c0-0.2,0.3-0.4,0.5-0.5c-0.1-0.4-0.4-0.6-0.5-1c-0.1-0.4,0.2-0.5,0.3-0.7c0.2-0.5-0.4-1-0.1-1.5c-0.1-0.6-0.4-0.7-0.6-1.2
			c-1.1-0.2-3.9,0-5.3,0.3c-0.4,0.1-0.5-0.2-0.8-0.2c-0.1,0-0.5,0.3-0.7,0.3c-0.1,0-0.3-0.2-0.4-0.2c-0.4,0-0.8,0.1-1.3,0.1v-0.4
			c-0.5,0.1-0.3,0.3-0.5,0.4c-0.1,0.1-0.8-0.2-1.2-0.1c-1,0.2-2.3-0.1-3.3-0.2c-0.7-0.1-1.7,0.2-2.2-0.4c-0.5,0.1-0.5,0.4-0.9,0.6
			c0.1,0.3,0.1,0.6,0.2,0.9c0,0.2-0.4,0.7-0.5,1c-0.1,0.3-0.1,1.2-0.1,1.3l0.2,0.2c-0.1,0.1-0.2,0.2-0.3,0.3
			c-0.1,0.2,0.1,0.3,0.1,0.4c0,0.2-0.2,0.7-0.3,0.9c0,0.5,0.1,1.1,0.1,1.6c-0.1,1.1-0.1,2.1-0.3,3c-0.1,0.4,0.2,1.3,0.1,1.7
			c-0.1,0.7-0.5,2.9-0.3,3.7c0.2,1.2,0.3,3,0,4.5c-0.1,0.6,0.1,1,0.1,1.3c-0.1,0.8-0.2,2.1-0.4,2.8c-0.2,0.6,0.3,1.8,0.2,2.4
			c-0.1,0.5-0.4,1.7-0.4,2c0,0.9,0,2.7-0.2,3.7c-0.1,0.4-0.2,1.6-0.1,2.2c0,0.2,0.2,0.8,0.1,1.2c0,0.1-0.3,0.3-0.3,0.4l0.1,3.1
			c0.2,0.6,0.5,1.8,0.3,2.7c-0.3,1.2-0.2,3.4-0.2,4.7c0,0.4,0.1,0.7,0.1,1.1c-0.6,3.2-0.6,7-0.8,10.8c-0.7-0.1-0.7-0.4-1.2-0.6h-0.7
			c-0.8-0.2-1.7-0.4-2.5-0.7c-2.1-0.7-4.1-1.7-6.4-2.3c-2.2-0.6-5.1-0.1-6.7-0.4c-1.4,0-2.8-0.1-4.1-0.1c-1.7-0.4-3.8-0.4-5.7-0.9
			c-0.8,0-1.5-0.1-2.3-0.1c-0.9-0.2-1.8-0.7-2.7-0.8c0-0.3-0.2-0.7-0.2-0.9c0.1-0.1,0.2-0.2,0.3-0.3c0.2-0.5,0.6-4,0.5-4.6
			c-0.2-2,0.3-4.7,0.8-6.8v-1.2c0.2-0.8,0.4-2,0.5-2.9c0.1-0.4-0.1-1.1,0-1.7c0.4-1.7,0.5-3.5,0.9-5c0.1-1.2,0.1-2.4,0.2-3.7
			c0.5-2.3,0.3-4.3,1-6.3c0-0.2-0.2-0.5-0.1-0.8c0.4-1.4,0.8-3.2,1-4.6c-0.1-0.3-0.1-0.6-0.2-0.9c0.2-0.9,0.3-2.3,0.6-3.1v-1.3
			c0.2-0.9,0.9-3.1,0.5-3.8c0-0.5,0.1-0.6,0.5-0.8c-0.1-0.2-0.1-0.2-0.5-0.2c0.2-0.5,0-1.3,0.2-2c0.3-1.2,0.2-2.8,0.5-4.1
			c0-0.3-0.1-0.6-0.1-0.9c0.4-1.9,0.3-3.9,0.6-5.4c0-0.2-0.1-0.7-0.1-0.9c0.2-1.3,0.2-3,0.4-4.1c0.1-0.4-0.1-0.9-0.1-1.3
			c0.1-1.3,0.1-2.9,0.5-4.1v-1.3c0.1-1.3,0.2-2.5,0.3-3.8v-1.7c0.5-1.9,0.4-4.6,0.9-6.8c0.1-0.4,0.2-2.1,0.2-2.3
			c0-0.1-0.2-0.2-0.2-0.4c0-0.1,0.4-0.7,0.4-0.8c0-0.2-0.1-0.4-0.1-0.6c0.1-0.3,0.2-0.7,0.2-0.9c0-0.9,0.1-1.8,0.1-2.7
			c0.5-1.5,0.6-3.5,1-4.9c0-0.8,0.1-1.5,0.1-2.3c0.4-1.1,0.1-2.3,0.5-3.7c0.5-2.1,0.6-4.7,1.3-6.8c0-0.6,0.1-1.2,0.1-1.8
			c0.1-0.5,0.4-1.1,0.5-1.5c0-0.2-0.1-0.3-0.1-0.5c0-0.2,0.2-0.6,0.3-0.8c0-0.5,0.1-1.1,0.1-1.6c0.3-1.2,0.6-2.9,1-4.2
			c0.1-0.6-0.1-1.1,0-1.4c0-0.1,0.3-0.5,0.3-0.6v-1.4c0.1,0,0.2-0.1,0.3-0.1c0.2-0.3,0-1.6,0.1-1.8c0.1-0.5,0.4-1.3,0.5-1.8
			c0.1-0.9,0.1-2.2,0.3-3c0-0.2-0.1-0.4-0.1-0.7c0.2-0.8,0.1-2,0.3-2.5c0.1-0.4,0-1.3-0.1-1.6c0-0.4,0.1-0.8,0.1-1.3
			c-0.1-0.6,0.1-1.2,0-2c0-0.2-0.2-0.4-0.1-0.7c0.1-0.4,0.2-2.6,0-3.2c0-0.1-0.2,0-0.2-0.3c0.5-2.4-0.3-5.1,0.3-8.1
			c0.2-1,0-2.4,0.2-3.3c0.4-1.3-0.2-5.2,0.4-6c0.3-0.4,0.3,0.2,0.8-0.1v-0.2c0.2-0.2,0.7-0.3,1.2-0.2c2,0.5,4.4,0.7,6.4,1.3
			c1,0.3,1.8,1,3.1,1.4c0.9,0.3,1.5,0.3,2.3,0.6c0.2,0.1,0.4,0.3,0.6,0.4c0.1,0,0.3-0.2,0.5-0.1c0.6,0.2,1.1,0.4,1.6,0.5
			c0.2,0,0.2-0.2,0.3-0.2l1.5,0.2c1.2,0.2,2.6,0.7,3.6,1.1c1,0.3,1.8,0.3,2.5,0.7c0.3,0,0.6-0.1,1-0.1l0.4,0.4
			c0.5,0.2,1.2,0.4,1.6,0.6c1,0.4,1.6,0,2.7,0.5l0.1-0.1c0,0,0-0.4,0.1-0.2c0.2,0.6,0.9,0.3,1.4,0.6c0.3,0.1,0.9,0.3,1.3,0.4
			c0.3,0,0.6-0.1,1-0.1c0.9,0.5,1.8,0.4,3.2,0.8c1.4,0.4,3.2,0.2,4.8,0.7c3.9,1.2,9.7,1.8,13.5,1.9c1.2,0,2.2,0.5,3.1,0.5
			c0.1,0.2,0.2,0.2,0.3,0.4c0.2,0.2,0.2,2.1,0.4,2.9c0.1,0.5,0,1.4,0.1,1.8c0.1,0.9,0.4,1.7,0.6,2.5c0.2,1,0,1.8,0.3,2.8
			c0.3,1.1,0.4,2.4,0.6,3.5c0.3,1.4-0.4,2.4-0.2,3.4c0.1,0.6,0.3,2.4,0.2,3c-0.1,0.3-0.2,1.1-0.1,1.5c0.2,1,0.1,2.5-0.1,3.6
			c-0.2,1,0.4,1.7,0.2,2.8c-0.1,0.4,0.1,0.9,0,1.3c-0.1,0.7-0.3,1.5-0.2,2.3c0,0.2,0.2,0.5,0.1,0.8c-0.2,0.9-0.1,2.3,0,3.1
			c0,0.4-0.2,0.7-0.3,1c-0.1,0.4,0.3,0.9,0.2,1.4c-0.2,1-0.1,1.7,0,2.7c0,0.5-0.2,1.1-0.1,1.4c0.3,1.8,0.2,3.2,0.6,4.8
			c0.2,0.9-0.2,1.7,0,2.5c0,0.4-0.1,0.8-0.1,1.2c0.1,1,0.3,2.3,0.2,3.2c0,0.3-0.2,0.7-0.1,1.2c0.2,1.1,0.1,3.5,0.5,4.9
			c0.2,0.9-0.2,1.7,0,2.4c0,0.1,0.3,0.4,0.3,0.5c0.2,0.7-0.3,2-0.1,2.7c1.3,5.3,0.7,11.2,1.5,16c0.1,0.8-0.1,1.6,0,2.1
			c0.6,2.9,0.2,5.2,0.8,7.9c0.2,1-0.2,2.6,0,3.4c0.1,0.5,0.2,1.5,0.2,2c0,0.2-0.1,0.5-0.1,0.7c0.6,2.6,0.2,4.7,0.8,7.1
			c0,1.7,0.1,3.3,0.1,5c0.3,0.9,0.5,2.2,0.5,3.2c0,0.2-0.1,1.3,0,1.7c0.3,0.9,0.1,1.7,0.3,2.7c0.2,1,0.3,2.2,0.5,3.4
			c0,0.3-0.1,0.6-0.1,1c0.3,1.1,0.2,3,0.5,4.4v1.6c0.1,0.4,0.3,1.9,0.3,2.2c0,0.7,0.1,2.1,0.3,2.9v1.9c0.3,1.3,0.1,2.5,0.4,3.8v3.1
			c0.5,1.5,0.3,4,0.8,6c0.1,0.7-0.1,1.3,0,1.7c0.8,3.7,0.7,8.3,1.9,12c0.4,1.2,0,2.3,0.3,3.5v1.3c0.3,0.8,0.6,1.9,0.9,2.6
			c0.1,0.3-0.1,0.7-0.1,0.8c-0.1,0.7,0,1.7,0.2,2.2C445.1,435.5,445,435.6,445,435.6z M461.7,261v0.5h-0.1v-0.1
			C461.5,261.3,461.6,261.1,461.7,261z M461.8,264.9v0.3h-0.1c0-0.1-0.1-0.2-0.1-0.3H461.8z M459.2,247.4c0.3,0.2,0.2,0.8,0.3,1.3
			c0.2,0.6,0.3,1.5,0.5,2.1v1.3c0.6,2.9,0,6.8,0.5,9.5v2.8c0.3,1.2,0,3.1,0.1,4.8c0,0.4,0.1,0.8,0.1,1.3c-0.3,1.5-0.3,3.7,0.1,4.9
			c-0.1,0.3-0.3,0.6-0.2,1c0.3,1.6,0.5,4.5,1,6.4v1.3c0.2,0.7,0.5,1.7,0.6,2.4c0.2,1.1,0.1,2.9,0.5,4.2v2c0.4,1.7-0.2,4.4,0.2,6.2
			c0.1,0.6-0.1,1.8,0,2.1c0.1,0,0.2,0.1,0.3,0.1l-0.2,0.3c0,0.3,0.2,0.6,0.3,0.9c0,0.4-0.1,0.8-0.1,1.2c0.5,2.7,0.6,5,0.9,8.1h-0.4
			c0.1,0.2,0.2,0.1,0.4,0.3c0.1,0.2-0.1,0.6,0,1.1c0.3,1.1,0,2.2,0.3,3.4v1.1c0.8,3.6,0.2,7,1.3,10.6c0,0.3-0.1,0.5-0.1,0.8
			c0.3,1.4-0.1,3.6,0.2,4.9c0.3,1.4,0.5,3.2,0.8,4.4c0.2,0.8-0.3,2.6-0.1,3.2c0.1,0.3,0.4,0.7,0.5,1.2c0.1,0.9-0.1,2.2,0.1,3v1.3
			c0.1,0.5,0.4,1.4,0.3,2c-0.1,0.3-0.1,1.2,0,1.7c0.5,2.1,0.5,3.7,0.9,6c-0.1,0.4-0.1,0.8-0.2,1.3c0.1,0.3,0.4,0.9,0.5,1.3
			c0.1,0.5,0.2,1.5,0.2,1.9c0,0.2-0.1,0.3-0.1,0.5c0.1,0.1,0.2,0.1,0.3,0.2c0,0.1-0.1,0.2-0.1,0.3c0.3,1.1,0.3,2.1,0.5,3.4
			c0,0.4-0.2,0.3-0.2,0.7c0.1,0.5,0.5,1.6,0.3,2.2c-0.1,0.2-0.3,0.6-0.2,1c0.7,2,0.7,4.8,1.3,7.1v1.3c0.1,0.6,0.1,1.4,0.3,2.1
			c0.7,2.5,1.4,5,2.1,7.3c0,0.4-0.1,0.7-0.1,1.1c0,0.2,0.4,0.5,0.4,0.7c0.1,0.3-0.2,0.8-0.1,1.2c0.1,0.8,0.4,1.7,0.5,2.5
			c0,0.2-0.2,0.6-0.1,1c0.1,0.3,0.4,0.6,0.5,0.9c0,0.5,0.1,1.1,0.1,1.6c0.3,0.7,0.7,1.7,0.9,2.3c0,0.5,0.1,1,0.1,1.4
			c0.1,0.3,0.5,0.8,0.6,1.2c0,0.2-0.1,0.4-0.1,0.6c0.1,0.2,0.4,0.5,0.5,0.8v0.7c0.1,0.4,0.4,0.9,0.5,1.3c0.1,0.6-0.2,1.3,0.1,1.8
			c0,1.1-0.8,1-1.3,1.6c-0.6,0.7-1,1.4-1.6,2.1c-0.2,0.2-0.6,0.3-0.8,0.6c-0.2,0.2-0.1,0.5-0.3,0.7c-0.5,0.8-1.5,1.4-2,2.1
			c-0.2,0.2-0.1,0.5-0.3,0.7c-0.1,0.2-0.5,0.2-0.6,0.4c-0.2,0.2-0.1,0.4-0.2,0.7c-0.2,0.4-0.7,0.7-0.9,1.1c-0.1,0.2-0.1,0.5-0.2,0.7
			c-0.1,0.2-0.4,0.2-0.6,0.4c-0.4,0.4-0.7,0.8-1.1,1.3c-0.1,0.1-0.3,0.1-0.4,0.2v0.4c-0.2,0.3-0.7,0.5-1,0.8
			c-0.8,0.9-1.8,2.2-2.8,2.9c-0.6,0.5-1.3,0.9-1.7,1.5h-0.3c-0.1,0.3-2.3,2.5-2.6,2.7c-0.3,0.2-0.7,0.2-1,0.5
			c-0.4,0.4-0.6,0.9-1.1,1.3c-0.2,0.2-0.5,0.1-0.8,0.3c-0.2,0.1-0.3,0.6-0.5,0.8h-0.4c-0.3,0.1-0.6,0.3-0.9,0.5
			c-0.2,0.3-0.5,0.6-0.7,0.9c-0.5,0.4-1.4,1.1-1.9,1.3h-0.4c-0.1,0.2-0.3,0.4-0.4,0.6c-0.7,0.5-2.7,2-3.5,2.1c0-2.1-0.5-3.3-1-5.1
			c0-0.2,0.1-0.4,0.1-0.7c0-0.2-0.2-0.7-0.3-1c-0.1-0.7,0.2-1.2,0-2c-0.4-1.3-0.7-2.8-1-4.1c-0.1-0.6-0.3-2.4-0.3-2.9
			c0-0.3,0.3-0.2,0.2-0.6c0,0-0.3-0.3-0.3-0.4c-0.3-1.1,0-2.3-0.3-3.2c-0.1-0.4-0.4-0.9-0.5-1.3c0-0.2,0.1-0.5,0.1-0.7
			c-0.5-2.4-0.3-5.1-0.9-7.4c0-1.6-0.1-3.1-0.1-4.7c-0.4-2-0.6-5.7-0.9-7.8c0-0.3,0.1-0.9,0.1-1.3c0-0.9-0.1-1.8-0.3-2.4v-1.8
			c0-0.7-0.1-1.6-0.3-2.2c-0.1-0.5,0.1-1.2,0.1-1.5c-0.8-5.1-1-11-1.6-16.2c0-0.4,0.2-0.3,0.2-0.6c-0.2-1.6-0.3-3.9-0.6-5.5
			c-0.2-1.3,0.2-2.6,0-3.6c-0.8-3.7-0.2-7.3-1-10.4c-0.2-0.9,0.1-2,0-2.6c-0.2-1.6-0.1-2.9-0.5-4.3c-0.3-1.3,0.1-3-0.1-3.9
			c-0.5-3.2-0.3-6.1-1.1-9.3c-0.4-1.7-0.1-3.7-0.4-5.1c0-0.4,0.1-0.8,0.1-1.2c0-0.2-0.3-0.8-0.2-1.1c0.1,0,0.1-0.1,0.2-0.1
			c-0.2-0.7-0.2-2-0.3-2.5c0-0.4,0.1-0.7,0.1-1.1c0-0.8,0-1.8-0.2-2.5c-0.1-0.6,0.1-1.1,0.1-1.3c-0.1-0.6,0.2-1.5,0.1-1.9
			c0-0.1-0.2-0.8-0.3-1.1c0-0.3,0.1-0.5,0.1-0.8c-0.5-2.7-0.5-5.7-0.3-8.4c0.1-0.7-0.2-1.7-0.1-2.5c0.3-3.5-0.2-8.3,0.3-10.3
			c0.1-0.6-0.1-1.3-0.2-1.7c-0.1-0.3,0.1-0.5,0.1-0.8c0-0.7,0-1.9-0.2-2.7c0-0.3,0.1-0.6,0.1-0.9c0-0.7-0.2-1.8-0.1-2.2
			c0.1-0.3,0.3-1.2,0.1-1.8c-0.2-0.9-0.4-1.9-0.6-2.9c-0.1-0.6,0.2-1.4-0.1-2.2c-0.1-0.4-0.6-1.1-0.6-1.6c0-0.9,0-2.4-0.3-3.5
			c-0.1-0.2-0.5-2.6-0.5-2.6c0.2-0.2,0.2-0.6,0.3-1c0.7-0.4,1.2-1.1,1.8-1.5c0.5-0.4,1.2-0.5,1.6-1c0.1-0.1,0.1-0.1,0.1-0.3
			c0.8-0.1,0.7-0.5,1.2-0.9h0.4c0.6-0.4,1.4-0.9,2-1.3c0.6-0.4,1-0.4,1.7-0.7c-0.1-0.1,0-0.1,0-0.2c0.7-0.8,1.1-0.8,2-1.3
			c0.7-0.5,1.4-1.3,2.1-1.7c0.5-0.3,1-0.4,1.5-0.7c0.2-0.2,0.4-0.4,0.6-0.6h0.4c0-0.1,0.1-0.2,0.1-0.3c0.4-0.3,0.9-0.2,1.3-0.5
			c0.2-0.1,0.2-0.5,0.4-0.6h0.5c1.2-0.6,2.4-1.4,3.5-2.1c0.5-0.3,1.3-0.4,1.2-1.2c0.2,0.1,0.2,0.3,0.6,0.2
			C456.9,248.7,459.1,247.6,459.2,247.4z M454.9,237.5c0.7,1,1.8,1.8,2.3,2.9c0.4,0.8,0.8,2,1.4,2.4c0,0.2,0,0.3-0.1,0.4
			c-0.5,0.9-2,1.2-2.5,2.2c-0.8,0-1.5,0.4-2.1-0.1c-1.1-0.4-1.1-2.4-1.9-3.1c0-1.7,1.2-1.6,1.2-3.2h0.3c-0.1-0.5-0.1-0.9,0.3-1.2
			c0-0.2,0-0.2-0.1-0.3c-0.2-0.1,0,0-0.3,0c0.1-0.5,0.3-1.1,0.6-1.4C454.3,236.2,454.6,237.1,454.9,237.5z M452,236.3h0.2
			c-0.1,0.2,0,0.1-0.1,0.2L452,236.3C452.1,236.3,452.1,236.3,452,236.3z M453.3,234.4h0.2c0.1,0.5,0.3,0.7,0.2,1.3h-0.4v0.7
			c0,0-0.1,0.1-0.1,0.1h-0.1c0-0.3,0-0.5,0.1-0.7c-0.1-0.3-0.4-0.4-0.7-0.6C452.7,234.9,453,234.8,453.3,234.4z M451.6,231.4
			c0.3,0.5,0.5,1,0.9,1.4v0.2c-0.9,0.1-1.4,0.4-2-0.2h-0.1c0.1,0.4,0.3,0.5,0.7,0.6v0.2c-0.6,0.1-1.7,0.5-2.2,0
			c-0.7-0.3-0.9-1.9-1.7-2.4c0.2-0.4,1.1-0.7,1.6-0.8c0.4-0.8-0.1-2.1,0.4-2.9c0.1-0.2,0-0.1,0.1-0.2
			C449.8,229,450.8,230.1,451.6,231.4z M451,206.6c-0.2,1-0.4,2.2-0.7,3.2c-0.3,1.1-0.1,2-0.5,2.8c0,0.1,0.2,0.3,0.2,0.3
			c0.1,0.4-0.3,1.5-0.4,1.9v1c-0.5,1.6-0.9,4.1-1.1,6.2c0,0-0.1,0.1-0.1,0.1c-0.4-0.1-0.8-0.2-1.1-0.4h-0.6c-0.4,2.1,1,2.6,1.2,3.9
			c0.1,0.8-0.7,2.2-0.4,2.8c0,1.4-0.5,0.7-1,1.1c0,0.1-0.1,0.3-0.1,0.4c-0.2,0.2-0.5,0.2-0.7,0.3c-0.6,0.4-1.2,1-1.7,1.3
			c-0.4,0.3-0.8,0.3-1.2,0.6h-0.1c0-0.2,0.2-0.3,0.2-0.4c0.1-0.2-0.2-0.5-0.1-0.8c0.2-0.1,0.3-0.3,0.5-0.4c0,0,0.1-2,0.1-2.2
			c0-0.2,0.4-0.9,0.5-1.2c0.3-1,0.2-1.8,0.5-2.9c0.3-0.8,0.7-2.1,0.9-3c0.2-0.9,0.1-2.4,0.4-3.5c0.3-1.2,0.8-2.6,0.9-3.9h0.4
			c-0.5-1.7,0.5-4.2,1-5.7c0.3-0.9,0.3-1.9,0.9-2.6c0.2-0.3,1.9-1,2.3-1.1v-0.3h0.1c0,0,0.1,0.1,0.1,0.1c0,0.8-0.5,1.2-0.6,1.8
			C450.7,206.4,451,206.5,451,206.6z M575.2,203.6c-0.7-0.3-1.4-0.4-2.1-0.6h-0.5c-1.5-0.8-2.8-0.4-4.1-0.7
			c-1.4-0.2-2.3-0.4-3.4-0.4c-0.3,0-1.1-0.2-1.4-0.3c-0.7-0.2-1.8,0-2.4,0.1c-0.8,0-1.7-0.1-2.5-0.1c-1.9,0.3-4.6,0.3-6.5,0.8
			c-0.6,0-1.2-0.1-1.7-0.1c-1.3,0.3-3,0.1-4,0.5c-0.5,0.2-1.6-0.3-2.3-0.1c-0.8,0.2-2.2,0.2-3,0.2c-0.3,0-0.5-0.1-0.8-0.1
			c-1.6,0.3-4.2,0.1-5.7-0.2h-1c-0.6-0.1-1.3-0.3-1.8-0.5c-1.2-0.3-2.2,0-3.3-0.3c-1-0.3-2.2-0.8-3.2-1.1c-0.5,0-1-0.1-1.5-0.1
			c-0.2-0.1-0.6-0.3-0.8-0.4c-0.3-0.1-0.5,0.1-1,0c-1.3-0.4-2.9-1-4.3-1.3h-1.2c-0.7-0.2-1.9-0.4-2.6-0.6c-0.7,0-1.3,0.1-2,0.1
			c-2.6-0.6-5-0.9-7.2-1.6c-0.7-0.1-1.4-0.1-2.1-0.2c-1.1-0.3-2.3-0.5-3.5-0.8c-0.7,0-1.3-0.1-2-0.1c-1.5-0.4-3.6-0.6-5.1-1.1h-1.1
			c-0.1,0-0.5-0.3-0.6-0.4H490c-0.7-0.2-1.5-0.3-2.2-0.6c-0.6-0.2-1.2-0.7-1.8-1c-0.4-0.2-0.7-0.1-1.1-0.3c-0.7-0.4-1.5-1.1-2.3-1.4
			c-0.9-0.3-1.6-0.4-2.4-0.8c-0.2-0.1-0.3-0.5-0.5-0.6c-0.2-0.1-0.5-0.1-0.7-0.2c-0.3-0.2-0.6-0.5-0.9-0.6c-1.4-0.5-2.8-0.9-4.1-1.4
			l-2.2-0.4c-0.1,0.1-0.1,0.2-0.2,0.3c-1.8-1-5.7,0.8-7,1.3c-2.6,1.1-5.2,1.9-7.3,3.5c-0.3,0.2-0.3,0.7-0.6,0.9
			c-1.7,1.4-2.6,3.2-3.8,5.1c-0.4,0.5-0.8,1.2-1.2,1.7c-0.2,0.4-0.2,0.9-0.5,1.3c-0.6,0.8-1.6,1.2-1.5,2.7c-0.2,0-0.3,0-0.4,0.1
			c-0.1-0.2-0.1-0.5-0.2-0.7c-0.1-0.1-0.3-0.2-0.4-0.3c-0.4-0.6,0.5-1.7,0.7-2.2c0.2-0.6,0-1,0.2-1.4c0.1-0.3,0.6-0.5,0.6-1
			c-0.1-0.5,0.7-1.3,1-1.8c0-0.2,0.1-0.4,0.1-0.6c0.2-0.1,0.3-0.3,0.5-0.4c0.1-0.3,0-0.6,0.1-0.8c0.5-0.8,1.1-1.5,1.6-2.2
			c0.5-0.6,0.7-1.3,1.2-2c0.3-0.3,0.5-0.5,0.8-0.8c1.1-1.5,2.7-3.7,4.2-4.7v-0.3c1.3,0,2.4-1.1,3.4-1.4c1.2-0.4,3.9,0,5.3,0.1
			c0.8,0.1,1.7-0.3,2.8-0.1c2.6,0.6,4.9,1.7,7.1,2.5c1.9,0.7,3.9,1.2,5.8,1.8c0.4,0.1,0.8,0.1,1.2,0.2c1,0.4,2.8,1.1,3.7,1.6
			c0.2,0.2,0.3,0.3,0.5,0.5c1.1,0.5,2.4,0.9,3.6,1.3c0.5,0.1,0.8,0,1.3,0.2c0.3,0.1,0.8,0.5,1.2,0.6c0.7,0.2,2-0.1,3.1,0.2
			c2.9,0.9,6.2,1.2,9.3,1.9c0.7,0.2,1.2-0.1,1.7,0c2.3,0.4,5.2,0.6,7.4,1.3c0.6,0.2,0.8-0.1,1.3,0c0.5,0.1,1.3,0.3,1.7,0.4
			c1.3,0.3,2.6-0.1,3.8,0.2c2.2,0.5,4.4,0.6,6.3,1.1c0.6,0.1,1.2,0.1,1.8,0.2c0.7,0.2,1.6,0.3,2.3,0.6c0.2,0.1,0.4,0.4,0.6,0.5h0.9
			c0.5,0.1,1.2,0.5,1.7,0.6c1,0.1,1.8-0.1,2.9,0c1,0.1,2.2,0.1,3.3-0.1h2c1.3-0.3,2.4-0.2,3.6-0.5c0.6-0.1,1.1,0.1,1.5,0
			c0.5-0.1,0.9-0.2,1.3-0.3h2c1.8-0.4,5-0.7,7.2-0.3c0.4,0,0.9-0.1,1.3-0.1c0.3,0.1,0.9,0.2,1.3,0.3c0.4,0,0.8-0.1,1.3-0.1
			c1.7,0.4,4.2,0.6,6,1.1c1.3,0.3,3,0.1,4.1,0.6c1,0.4,2.5,0.7,3.5,1.3c0.6,0.4,1.2,0.9,1.8,1.3c0.3,0.1,0.6,0,0.8,0.2
			c0.9,0.7,2.1,1.6,3.3,2c0,0.1,0.1,0.2,0.1,0.3C581.3,206.8,577.8,204.7,575.2,203.6z M456.5,385.9c-0.1-0.1-0.3-0.4-0.4-0.6v-1
			c0-0.1-0.3-0.3-0.3-0.4c-0.2-0.6,0.2-0.8,0.1-1.2c-0.1-0.1-0.1-0.1-0.2-0.2c-0.2-0.7-0.1-2.8,0.1-3c-0.1-0.4-0.5-0.4-0.6-0.7
			c0-0.1-0.2-1.7-0.2-1.7c0-0.2,0.3-0.4,0.2-0.7c-0.2-0.6-0.7-1.7-0.9-2.4c0-0.3,0.1-0.5,0.1-0.8c-0.1-0.2-0.3-0.9-0.3-1.2
			c0-0.2,0.3-0.3,0.2-0.7c-0.2-1-0.4-1.8-0.9-2.6c-1.4-0.2-2.2,2-3.2,1.4c-0.2,0.1-0.2,0.3-0.3,0.5c-0.4,0.1-0.8,0.3-1.3,0.4
			c-0.4,0.3-0.8,0.8-1.3,1c0.1,0.5,0.3,0.6,0.4,1.2c-0.4,0.1-0.3,0.2-0.6,0.4c0,0.7,0.1,0.8,0.3,1.3c0.1,0.5-0.3,0.6-0.2,1
			c0.1,0.6,0.4,1.6,0.6,2.1c0.3,0.7,0.1,1.8,0.3,2.4c0.3,1.4-0.1,3.5,0.1,4.6c0,0.2,0.2,0.2,0.2,0.5c0,0.3-0.3,0.7-0.2,1.1
			c0.4,1.8,0.3,3.5,0.8,5.2c0,0.4,0.1,0.7,0.1,1.1c0.2,0.6,0.6,1.2,0.9,1.8c1.7,0,2.9-0.6,3.9-1.4c0.2,0,0.3-0.1,0.5-0.1
			c0.2-0.1,0.1-0.5,0.3-0.6c0.4-0.3,0.8,0.1,1.3-0.3c0.5-0.2,0.6-1,1.1-1.3c0-1-0.4-1.6-0.6-2.4
			C456.5,388.1,456.8,386.6,456.5,385.9z M454.6,389.5h-0.2c-0.1,0.2,0.2,1.4,0.2,1.7h-0.3c-0.3,0.4-1.6,1.5-2,1.7
			c-0.4,0.2-0.3-0.2-0.6,0.1c-1.6,0-1.3-2.3-1.6-3.7c-0.6-2.6,0-6.1-0.5-8.7c-0.2-0.9,0.1-2.3-0.4-3c0-1,0.2-1.4,0.9-1.7h0.4
			c0.1-0.1,0.2-0.4,0.4-0.5c0.6-0.2,0.8,0,1.1-0.5c0.9,0.5,0.5,1.9,1.1,2.7c-0.2,0.3-0.1,0.1-0.4,0.1c0,0.2,0.1,0.4,0.1,0.6h0.4
			c0.2,1.1,0.3,2.4,0.4,3.4c0,0.3-0.3,0.9-0.1,1.4c0.1,0.3,0.4,0.4,0.5,0.6c0.2,0.4-0.1,1,0,1.3c0.1,0.2,0.5,0.5,0.6,0.8
			c0.1,0.2-0.2,0.8-0.1,1.2c0.1,0.5,0.3,0.9,0.4,1.4C454.7,388.7,454.7,389.1,454.6,389.5z M449.1,359.4v-0.2c0.3,0,0.5,0.1,0.8,0.1
			c1.6-0.4,2.8-1.4,4.1-2.1c0-0.4,0.1-0.9,0.1-1.3c-0.4-0.6-0.1-1.4-0.2-2c-0.4-2.2-0.2-5,0.1-7.2c-0.1-0.4-0.1-0.7-0.2-1.1
			c0.2-2.3-0.4-3.8-0.7-6.4c0-0.4,0.3-1.1,0.3-1.4c0-0.5,0-2.7-0.2-3c-0.1-0.3-0.1-0.2-0.3-0.4c-1.2-0.1-4.1,0.7-4.7,1.3
			c-0.1-0.2-0.2-0.8-0.2-1.1l-0.1-0.1c-0.3,0-0.4,0-0.6,0.1c0,0.5-0.1,0.7,0.1,1v0.2c-0.6-0.1-0.3-0.1-0.6,0.4
			c-0.5,0.9,0,0.2-0.1,1.1c0,0.2-0.2,0.5-0.3,0.8v2.1c-0.4,1.1,0.1,2.3-0.1,3.8c-0.1,1.1-0.1,2.2-0.3,3.1c0.1,0.5,0.1,1.1,0.2,1.6
			c-0.3,1.7-0.2,3.9,0.1,5.1c0.3,1.2-0.7,3.9-0.1,4.8c0,0.9,0.4,0.7,0.8,1.2C447.8,359.4,448.8,359.6,449.1,359.4z M451.3,336
			L451.3,336l-0.3,0.1C451.2,336,451.1,336,451.3,336z M447.8,353.2c-0.4-2.4-0.6-6.4-0.1-8.9c0.3-1.6-0.2-3.3,0.2-4.4l2-0.4
			c0.7,0,0.9,0.1,1.3,0.3c0,0.7-0.1,3.1,0.3,3.7c0,0.4,0,0.6,0.2,0.8c-0.1,0.4-0.3,1.1-0.2,1.4c0,0.1,0.2,0,0.2,0.3
			c-0.1,0.8-0.4,1.5-0.4,2.5c0,0.7,0.4,2.4,0,3.1v0.5c-0.3-0.2-0.3-0.6-0.5-0.9V351h-0.1c0.1,1.6,0.9,2.4,0.7,3.8
			c-0.1,0.8,0.2,1.7-0.2,2.2c-0.3,0.7-2.5,0.9-3.4,0.8c0,0-0.1-0.1-0.1-0.1c0-0.7-0.2-1.4-0.1-1.9
			C447.7,355.2,447.9,353.8,447.8,353.2z M447,310.9c0,0,2.7-0.3,2.9-0.4c0.1-0.1,0.1-0.3,0.2-0.4c0.6-0.3,1,0.2,1.3-0.6
			c0.4-1,0.1-2-0.1-2.8c-0.1-0.5,0.1-2.9,0.2-3.3c0.1-0.6-0.2-1.5-0.1-1.9c0.3-1.5,0.7-3.5,1-5.1c0.1-0.4-0.2-1-0.3-1.2l-0.1-2.1
			c0-0.1,0.2-0.2,0.2-0.4c0-0.2-0.3-0.5-0.3-0.7c0,0,0.3-0.2,0.3-0.2c0-0.3-0.1-0.6-0.1-0.9c0.1-0.8,0.4-2.9,0.3-3.8
			c-0.1-0.5,0.3-1.1,0.4-1.5c0-0.4-0.1-0.8-0.1-1.3c0.2-1,0.2-3.8-0.4-4.6c-0.7-0.5-2-0.3-2.9-0.1h-1c-0.2,0.1-0.4,0.4-0.6,0.5
			c-0.6,0.3-1.3-0.2-1.9,0.4c-0.3,0.2-0.6,1.1-0.9,1.5c-0.1,0.1,0.3,0.6,0.5,0.7v0.2c-0.1,0.1-0.2,0.1-0.4,0.1
			c-0.1,0.5-0.2,0.8-0.3,1.3c0,0.5,0.1,1,0.1,1.4l-0.2,0.4c0,0.6,0.2,1.6,0.1,2.2c-0.1,0.5,0.1,1.5-0.1,2.1c-0.2,0.8-0.2,2.3-0.1,3
			c0.1,0.7-0.2,1.3-0.2,2c0,1.4,0.2,2.6,0.2,3.8c-0.1,1.9-0.3,4.3,0.3,6.1c0.1,0.3-0.2,1.2-0.1,1.7c0.3,1.2,0,2.8,0.5,3.6
			C445.9,311.3,446.3,310.8,447,310.9z M450.9,295.7h0.2v0.2h-0.2V295.7z M446.4,282.3c-0.1,0.2,0,0.1-0.1,0.2
			C446.3,282.4,446.3,282.4,446.4,282.3z M446.4,309.4c-0.1-2-0.2-4.8-0.6-6.9c-0.1-0.9,0.3-1.6,0.1-2.6c-0.3-1.3-0.3-3.9-0.1-4.8
			c0.3-1.5-0.1-2.8,0.2-3.9c0.2-0.8-0.3-3.7,0.2-4.4c0-0.5-0.1-1.5,0.1-1.8c0.8-0.6,2.8-0.4,3.3-0.2c0.2,0.7-0.4,2.1,0,2.7
			c-0.1,0.1-0.1,0.1-0.3,0.1c0.6,1.6-0.3,3.9,0,5.3c0.2,0.8-0.5,2-0.2,2.6v0.1c-0.5-0.1-0.9-0.5-1.2-0.8h-0.2
			c0.2,0.4,0.6,0.7,1.1,0.9c0.2,1-0.2,2.1-0.1,2.8c0.1,0.1,0.1,0.1,0.2,0.2c0.1,0.4-0.2,0.2-0.1,0.5c0,0.6,0,0.7-0.3,1
			c0,0.1,0.3,0.3,0.2,0.7c-0.2,0.7-0.2,1,0,1.7c-0.4,0.4-0.2,1-0.1,1.4c0.1,0.3-0.1,0.9-0.1,1.2c-0.1,0.1-0.3,0.3-0.4,0.4
			c0.1,0.1,0.2,0.1,0.4,0.1c0,0.4,0.1,1.6,0,1.9c0,0.1-0.2,0-0.2,0.3c0,0.2,0.3,0.4,0.4,0.6c0.1,0.4-0.2,0.5,0.1,0.8
			C448.6,309.4,447,309.5,446.4,309.4z M448.1,214c0.1-0.1,0.1-0.1,0.1-0.3h-0.4C447.9,213.9,447.9,213.8,448.1,214z M436.7,218.2
			c-0.2-0.1-0.2-0.2-0.5-0.3c0.1,0.2,0.2,0.3,0.3,0.5C436.8,218.3,436.6,218.4,436.7,218.2z M431.6,301.4c-0.1-0.6,0.2-1.4-0.3-1.7
			c-0.3-0.2-0.6,0-1,0c-0.6,1.1-1.7,1.9-2.3,3c-0.2,0.3-0.2,0.6-0.4,0.9c-0.1,0.2-0.5,0.1-0.6,0.3c0,0.2-0.1,0.4-0.1,0.6
			c-0.1,0.1-0.3,0-0.4,0.1c-0.1,0-1.5,1.8-1.5,1.8c-0.2,0-0.2,0-0.3,0.1c-0.8,0-0.6-0.3-1-0.4c-1.2,0.1-2.4,0.1-3.7,0.2
			c-0.7,0-1.1-0.2-1.5-0.1c-0.3,0-2,0.3-2.3,0.2c0,0-0.3-0.3-0.4-0.3c-0.4-0.1-1.3,0.1-1.6,0.2H413c-0.5,0.1-1.7,0.4-2.3,0.4
			c-0.3-0.2-0.7-0.1-0.9-0.4c-0.1-0.1,0-0.8,0.1-1.2c0.1-0.6,0.2-1.7,0.4-2.6c0.1-0.3,0.2-1.3,0.3-1.8c0-0.2-0.1-0.4-0.1-0.6
			c0.3-1.2,0.5-3.3,0.3-5.1c0-0.3,0.2-0.7,0.2-0.9c-0.1-0.9-0.2-1.7,0.6-2v-0.2c-0.2,0.1-0.2,0-0.3,0.2h-0.2
			c0.3-2.4,0.2-4.5,0.7-6.7c0.2-1.1,0.1-2.1,0.2-2.8c0.2-0.9-0.2-2,0-2.5c-0.1-0.4-0.2-0.3-0.3-0.6c-0.4,0-0.7-0.1-1.1-0.1
			c-0.6,0.1-1.8,0.4-2.6,0.2c-2.2-0.6-5.5-0.7-7.3-0.5c-1.5,0.2-2.3-0.9-3.5-0.2c-0.1,0.6,0.1,1.4,0,1.9c-0.5,2.4-0.1,5.7-0.7,8.3
			c-0.1,0.5,0.2,1.1,0.1,1.5c-0.2,1.1-0.1,2.8-0.4,3.9v2.6c-0.3,1.2-0.4,1.9-0.4,3.3c0,0.7,0.2,1.3,0.1,1.6
			c-0.2,1.2-0.3,2.1-0.3,3.4c-1.3-0.1-2.6-0.1-3.8,0.2c-0.5,0.1-0.9-0.2-1.3-0.2c-0.6,0.1-1.3,0.2-1.9,0.1c-0.9-0.2-2,0.2-2.5-0.1
			c-0.1-0.3,0.3-0.4,0.2-1c-0.3-1.4,0.2-2.6,0.5-3.8c0.1-0.3,0-0.6,0.1-0.8c0-0.7-0.3-0.6-0.6-1c-1.2,0.2-1.2,1.2-1.9,1.7
			c-2.4,1.8-4.6,3.8-7,5.7c0.2,2.1,0.2,5.5-0.4,7.6c-0.2,0.6,0.3,1.9,0.2,2.4c-0.1,0.1-0.4,0.9-0.5,1.2c-0.1,0.4,0.1,0.4,0.2,0.6
			c-0.2,0.5-0.3,1.6-0.1,2.3c0,0.1,0.2,0.2,0.2,0.4c0,0.2-0.4,0.6-0.5,0.9c-0.3,1.4,0.1,3.5-0.1,4.9c-0.2,1.1,0.1,3,0.2,3.5
			c0.1,0.5-0.3,1-0.2,1.6c0.1,1-0.3,2.5-0.5,3.6c0,0.3,0.1,0.5,0.1,0.8c0,0.8-0.1,2.3-0.6,3c0,0.3,0,0.7,0.1,0.9
			c0.4,0.2,1,0,1.4,0.2c0.5,0.2,1.1,0.8,1.6,1c0.4,0.2,0.8,0.3,1.2,0.4c0.2,0,0.3-0.1,0.5-0.1c0.1,0.1,0.2,0.5,0.3,0.6
			c0.3,0.2,1.7,0,2.1,0.1c0.4,0.1,0.9,0.4,1.3,0.6h0.5c0.3,0.1,0.5,0.5,0.8,0.6c0.6,0.1,1.2,0.2,1.7,0.3c0.9,0.3,2.1,0.8,3,1.1
			c0.6,0.2,1.2-0.2,1.8-0.1c1.6,0.3,3,0.5,4.1,0.8h1.1c0.5,0.1,1.1,0.4,1.6,0.5c0.4,0.1,0.9-0.2,1.3-0.1c0.3,0.1,0.9,0.3,1.3,0.4
			c0.9,0.1,1.8-0.6,2.5,0c0.2-0.1,0.1-0.1,0.3-0.2c0,0,0.9,0,1.2,0.1c0.1,0.1,0.1,0.2,0.2,0.3c0.2,0.1,0.7-0.2,1.1-0.1
			c0.1,0,1,0.4,1.1,0.4c0.9-0.3,1.7,0.3,2.8,0.1c1.1-0.2,2.2,0.2,3.1,0.4c0.9,0.2,1.8-0.1,2.6,0.1c0.7,0.2,1.3,0.8,1.9,1.1h1
			c1.1,0.3,1.3,0.2,2.5,0.2c0,0.3,0.1,0.3,0,0.4c0,0.7,0.1,1,0.3,1.3h0.9v-0.3c0.5-0.3,1.2-0.8,1.5-1.3c0-0.2,0.1-0.3,0.1-0.5
			c0.2-0.3,0.7-0.5,1-0.9c0.9-1.3,1.9-2.5,3.1-3.5c0.7-0.6,1-1.4,1.9-1.8c0.4-1,0.7-6.3,0.5-7.7c-0.1-0.8,0-3.3,0.4-3.5
			c-0.1-0.3,0-0.1-0.3-0.2c0-1.2,0.2-2.4,0.4-3.3c0.1-0.6-0.3-2.5-0.4-3.1c0.1-0.4,0.1-0.8,0.2-1.2c-0.3-1.7-0.4-3.3-0.1-4.9
			c0.1-0.4-0.1-0.6-0.1-0.9c-0.1-0.8,0.1-2,0.2-2.6v-1.7c0.4-1.8,0.1-4.6,0.5-5.7c0.3-0.8,0-1.9,0.1-2.5
			C431.6,303.5,431.8,302.5,431.6,301.4z M397.1,299.1c0.1-0.9,0.3-2.2,0.5-3.2c0.1-0.4-0.1-0.8-0.1-1.1c-0.1-0.6,0.2-1.7,0.3-2.1
			c0.3-1-0.3-2.9,0-4c0.1-0.5,0.2-1.3,0.3-2c0-0.3-0.1-0.6-0.1-0.9c0.1-0.7,0.2-1.4,0.3-2.2c1.7,0,2.5,0,3.8,0.1
			c0,0.6-0.1,1.5,0.1,1.9c0,0,0.1,0.1,0.1,0.1h0.1c0-0.3-0.1-1.8-0.2-1.9v-0.2c1.2,0.2,2.4,0,3.6,0.3c0.3,0.1,1.1,0.4,1.3,0.4
			c0.4,0,1.2,0,1.4,0.1c0.1,0,0.1,0.1,0.2,0.1c-0.1,0.9-0.6,3-0.2,3.6c-0.1,0.7-0.7,0.9-1.1,1v0.4c0.4,0,0.5-0.1,0.7-0.4h0.2
			c-0.1,0.3,0,0.2-0.2,0.4c0.1,0.2,0.1,0.2,0.4,0.3c-0.3,0.8-0.2,3.1-0.9,3.7c0.1,0.4,0,0.2,0.4,0.2c-0.1,0.7,0.1,1.8,0,2.5
			c0,0.1-0.2,0.6-0.3,0.8c0,0.5,0.1,1,0.1,1.5c-0.3,0-0.3,0-0.5-0.2h-0.1c0.1,0.4,0.2,0.4,0.6,0.5c0,2-0.4,3.4-0.2,5.2
			c0.1,0.7-0.6,1.2-0.3,2c0.1,0.2,0.2,0.2,0.3,0.6c-1.2,0-4.1,0.5-4.5-0.1c-0.7,0.3-2.8-0.1-3.8-0.3c-0.4-0.1-0.5,0.3-0.8,0.2
			c-0.1-0.1-0.1-0.2-0.2-0.3c-0.3-0.1-1-0.2-1.3-0.2c0-1.4,0.1-2.9,0.4-4.1c0.1-0.3-0.2-0.2-0.2-0.3
			C397.1,300.9,397.1,299.3,397.1,299.1z M396.7,301.7c0.1,0,0.2-0.1,0.3-0.1v0.2L396.7,301.7L396.7,301.7z M382.5,303.8
			c0.5-0.4,0.9-1,1.3-1.3c0.4-0.3,0.9-0.4,1.2-0.9h0.1c-0.1,0.7-0.7,2-0.3,2.7c0,0.7,0,0.8,0.5,1.1c-0.2,0.4-0.7,0.2-1.2,0.3
			c-0.9,0.3-3.2-0.1-3.9,0.4h-0.4C380.3,305,381.6,304.4,382.5,303.8z M380.5,331.7c-0.2,0.8,0.1,1.4,0,2c-0.2,1-0.1,2.6,0,3.9
			c0,0.2-0.3,1.5-0.3,1.5c0,0.1,0.2,0.3,0.3,0.5c0,0-0.1,0.1-0.1,0.1c-1.3-0.1-2-1.1-3.1-1.3c-0.1-1.3,0.1-3.3,0.4-4.7
			c0.2-0.7-0.1-1.3,0-1.7c0.4-1.9,0.2-4,0-5.4h0.3c-0.3-1.1-0.3-3.3-0.3-4.7c0-0.5,0.3-0.5,0.2-1c-0.1-0.9-0.1-2.7,0.2-4
			c0.4-1.6-0.2-3,0.2-4.6c0.4-1.7,0.6-2.8,0.6-4.9c0.4,0,1.3-0.1,1.4-0.1c0.2,0.1,0.4,0.3,0.8,0.1h1.3c0.2,1.3-0.2,2.6-0.5,3.7
			c-0.2,0.8,0.2,1.3,0,2c-0.5,2.3-0.7,5.6-0.5,7.5c0.1,1.2,0.1,3.8-0.3,3.9C381.8,326,381,329.7,380.5,331.7z M388.5,329.2
			c-0.2,1.2-0.5,2.5-0.3,3.5c0.1,0.4-0.3,1.2-0.4,1.6c-0.1,0.4,0,0.9,0.1,1.2c0.2,1-0.3,2.2-0.2,3.1c0.1,0.1,0.1,0.1,0.2,0.2
			c0.1,0.9-0.5,2.3-0.1,3.4h-0.1c-0.6,0.3-3.4-1.2-3.8-1.3h-0.7c-0.2-0.1-0.5-0.3-0.7-0.4c-0.3-0.1-0.4,0.1-0.6,0
			c-0.1-0.1-0.3-0.5-0.4-0.7c0.4-1.6,0.1-2.6,0.3-4.2c0.1-0.9-0.4-2.1-0.2-3.1c0.4-1.5,0.6-3.2,0.9-4.7c0-0.4-0.1-0.7-0.1-1.1
			c0.1-0.5,0.2-1,0.1-1.5c-0.3-1.3,0.5-3.6,0.1-4.5c0.1-0.2,0-0.1,0.3-0.2c-0.1-0.2-0.2-0.2-0.3-0.3c-0.2-0.4,0.2-2,0.1-2.6
			c-0.2-1.7,0.3-6,0.7-7.7c0.2-0.9,0-1.8,0.3-2.6c0.8-0.2,2.6-0.5,3.1-0.4c0.7,0.2,1.8,0.4,2.8,0.2c0.1,0.1,0.1,0.1,0.2,0.2
			c0,0.4,0,1.3,0.2,1.6c-0.5,2.6-0.3,5.1-0.9,7.5c-0.1,0.5,0.2,1.6,0,2.3c-0.5,2-0.7,6.4-0.6,8.4c0,0.2-0.2,0.6-0.2,0.8
			C388.3,328.1,388.6,328.7,388.5,329.2z M396.2,329.6c-0.4,1.2-0.3,2.7-0.2,3.7c0.2,2.2-0.9,4.2-0.5,6.3c0.2,1-0.5,1.8,0,2.5
			c0,0.3-0.4,0.7-0.1,1.2v0.1c-0.3,0-0.4-0.2-0.6-0.3c-0.2,0-0.5,0.1-0.7,0.1c-0.6-0.2-2-0.3-2.4-0.4c-0.3-0.1-0.5,0.1-0.7,0.2
			c-0.3-0.1-1.2-0.1-1.3-0.1c-0.3-0.1-0.6-0.4-1.2-0.5c0.7-1.8,0.6-4.2,0.6-6.2c0-0.6-0.1-1.2-0.1-1.7c0.1-0.8,0.3-2.8,0.5-3.8
			c0.2-0.9,0-2,0.3-2.7c-0.4-1,0-5.4,0.3-6.7v-1.5c0.3-1.1,0.1-2.9,0.4-3.9c0.2-0.9-0.1-1.7,0.1-2.4c0.2-1.1,0.4-2.5,0.6-3.6
			c0.2-0.8-0.3-2,0.2-2.8c1.5-1.1,5.2,0.1,7,0.5c-0.1,1-0.5,2.2-0.6,3.2c0,0.2,0.1,0.4,0.1,0.6c-0.1,0.4-0.4,1-0.5,1.4
			c-0.1,0.3,0.1,0.9,0.1,1.2c-0.1,0.9-0.4,2.7-0.7,3.7c-0.1,0.5,0.2,0.8,0,1.3c-0.2,0.6-0.5,1.6-0.6,2.2c0,0.3,0.1,0.6,0.1,1
			c-0.3,1.4-0.4,2.8-0.4,4.5C396.1,327.6,396.5,328.8,396.2,329.6z M404.2,334v1.5c-0.2,0.8-0.1,1.2-0.1,1.9c0,0.1-0.4,0.6-0.4,0.8
			c-0.2,1.1,0.1,2.1-0.2,3.2c-0.2,0.7,0.5,1.7,0,2.5v0.2c-0.4,0-0.7,0.1-1,0.2c-0.5,0-0.9-0.1-1.3-0.1c-0.1,0-0.4,0.2-0.7,0.1
			c-0.3-0.1-0.9-0.2-1.2-0.2c-0.6,0-1.5-0.6-2.1-0.3c-0.3-0.1-0.2-0.1-0.5-0.2c0.1-0.5,0.2-1,0.1-1.4c-0.1-0.4-0.3-1-0.3-1.2
			c0.6-2.2,0.1-4.3,0.7-7c0-0.2-0.1-0.4-0.1-0.6c0.1-1-0.1-2.4,0.2-3.6c0-1.1-0.1-2.1-0.1-3.2c0.1-0.3,0.2-1.2,0.2-1.5
			c0-0.1-0.2-0.3-0.1-0.6c0.6-2.6,0.2-4.6,1.1-7c0-0.2-0.1-0.4-0.1-0.7c0.1-0.8,0.3-2.1,0.6-2.9c0-0.3-0.1-0.6-0.1-1
			c0.2-1.2,0.2-2.3,1.1-2.9v-0.2c-0.2,0.1-0.3,0.1-0.4,0.3h-0.2c0-0.7,0.1-1.8,0.4-2.2c0-0.1,0.1-0.2,0.1-0.3c0.8,0,1.6,0.1,2.2,0.1
			c0.2,0,0-0.3,0.3-0.2c0.7,0.2,0.5,0.6,1.5,0.4c0.8-0.1,1.4,0.3,1.8-0.2c0.4,0.1,0.3,0.1,0.5,0.3c-0.1,2.1-0.4,4.6-0.6,6.3
			c-0.1,0.6,0.3,1.3,0.1,2.1c-0.4,1.7-0.2,3.5-0.6,5.2c0,1.1,0.1,2.2,0.1,3.3c-0.2,0.8-0.3,1.8-0.3,2.7c0,0.4,0.2,0.9,0.1,1.3
			C404.5,330.5,404.5,332.7,404.2,334z M412.9,327.5c0,0.5-0.1,1-0.1,1.4c-0.3,1.4-0.6,3.9-0.3,5.5c0.1,0.3-0.1,0.7-0.1,0.9
			c-0.1,0.5,0,3,0.2,3.4c-0.3,1.9-0.5,4.1-0.3,6.3c-0.7,0-1.5-0.2-2.1-0.3c-0.7-0.1-1.5,0.1-2.1,0c-1.1-0.2-2.3-0.5-3.2-0.5
			c0-0.4,0.2-0.4,0.3-0.7c0.1-0.3-0.1-0.7-0.1-0.8c-0.1-0.5,0-1.4,0.1-1.7c-0.1-0.4-0.1-0.9-0.2-1.3c0.3-1,0.4-2.4,0.6-3.4
			c0-0.2-0.1-0.4-0.1-0.6c0.1-0.4,0.3-1.2,0.3-1.6c0-0.2-0.2-0.6-0.1-1c0.1-0.5,0.3-1.2,0.4-1.7V329c0.1,0,0.1-0.1,0.2-0.1
			c0.1-0.2-0.1-0.4-0.1-0.5c0-0.1,0.1-2.1,0.1-2.1c0.1-0.1,0.1-0.1,0.2-0.2c0.1-0.6-0.3-2,0.1-3c0-0.2-0.2-0.2-0.2-0.5
			c0.1-0.8,0.2-2.2,0.2-3.1c0.1-0.8,0.3-1.5,0.4-2.3c0.1-0.3-0.1-0.9-0.1-1.1c-0.1-0.6,0.2-1.7,0.3-2.3c0.2-0.8-0.1-1.9,0-2.5
			c0-0.1,0.4-0.5,0.4-0.6c0.1-0.3-0.1-0.8-0.2-1.1c-0.2-0.6,0.4-1.2,0.1-1.7v-0.1c0.5,0,1.6-0.1,2,0c0,0,1.6,0.3,1.8,0.2
			c0.8-0.2,1.9-0.4,3-0.4c-0.2,2.4,0,5-0.4,7c-0.1,0.4,0,1.4,0.1,1.7c0.1,0.6-0.1,1.5-0.2,2c-0.1,0.2,0.1,0.6,0.1,0.7
			c0.1,0.6-0.1,1.4-0.2,2c0,0.2,0.1,0.5,0.1,0.7C413.5,323.7,413.3,325.7,412.9,327.5z M422.8,315.4c0,0.1-0.3,0.4-0.3,0.4
			c-0.1,0.3,0.2,0.3,0.2,0.4c0.1,0.3-0.2,0.6-0.2,0.8c0,0.2,0.2,0.5,0.1,0.9c-0.5,2-0.3,4.4-0.8,6.5c-0.2,0.9,0.2,2.2,0.1,3
			c0,0-0.2,0.5-0.2,0.6c-0.1,0.5,0.1,1.3,0.1,1.6c0,0.4-0.4,1.1-0.3,1.4c0,0.2,0.3,0.5,0.3,0.7c-0.3,0.6-0.2,1.5-0.1,1.9
			c0.3,0.9-0.1,3.1-0.3,3.8c-0.3,1,0.2,2,0,2.7c-0.2,0.9-0.5,2.8-0.2,3.3v0.2c-0.2-0.1-0.2,0-0.3-0.2h-0.3c0.1,0.3,0.2,0.4,0.5,0.6
			v1c-0.1,0-0.2,0.1-0.3,0.1c-0.1,0.3,0.3,0.1,0.2,0.4c-0.1,0.1-0.2,0.2-0.3,0.3c-0.1,0.3,0.1,0.4,0,0.7c-1.1,0-1.7,0-2.5-0.3
			c-0.2-0.1-0.7,0.1-0.7,0.1c-0.1-0.1-0.1-0.3-0.2-0.4c-0.3-0.2-0.6,0-1-0.2c-0.1-0.1-0.2-0.2-0.3-0.3c-0.4-0.1-2,0-2.5,0
			c0,0-0.1-0.1-0.1-0.1c0-0.4,0.2-0.7,0.3-1c0.1-0.3-0.2-0.2-0.2-0.3c0,0,0-2.4,0-2.5c0-0.3-0.1-1.4,0-1.9c0-0.1,0.3-0.5,0.3-0.6
			c0-0.2-0.1-0.4-0.1-0.6c0-0.9-0.2-1.8,0-2.7c0.4-2.1-0.4-4.4,0.1-6.4c0.2-0.7,0.3-1.6,0.5-2.4v-1l0.2-0.4c0-0.5-0.1-1.7,0.1-2.5
			c0.2-0.5,0-1.6,0.2-2.3c0.3-1.4,0.3-2.9,0.2-4.3c-0.1-0.7,0.2-2.3,0.3-2.7c0.2-0.8,0-3.2,0-4.1c0-0.9,0.5-1,0-1.8
			c0.5-0.2,0.8,0.1,1.3,0c1.1-0.2,4.4-0.1,4.6,0c0.6,0,1.2,0,1.5,0.2c-0.1,0.4,0,1,0,1.6c0,1.5,0.1,3.8-0.2,5.2
			C422.7,315,422.8,315.2,422.8,315.4z M430,305.4c0.2,1.3,0.1,2.8-0.2,4.3c0,0.2,0.1,0.4,0.1,0.6c0,0.9-0.1,1.7-0.1,2.6
			c-0.1,0.5-0.1,1.7-0.3,2.2c0,0,0,2.4,0,2.5c0.1,0,0.1,0.1,0.2,0.1c0.2,0.5-0.2,2.4-0.3,2.8c-0.1,0.3,0.1,1.1,0.2,1.4
			c0.2,0.7,0,2.8-0.1,3.3c-0.1,0.7,0.3,1.4,0.3,1.8c-0.2,1.8-0.4,3.8-0.7,6.2c-0.1,1,0.5,2.2,0.2,3.5c-0.2,1-0.3,2.6-0.5,3.9h-0.4
			c-0.4,1.1-1.6,1.9-2.4,2.6c-0.2,0.2-0.1,0.5-0.3,0.8c-0.1,0.2-0.8,0.5-1,0.8c-0.3,0.4-0.4,0.8-0.7,1.2c-0.3,0.4-0.7,0.6-1,1.1H423
			c0-0.6,0.2-2.1,0.1-2.3v-0.8c0.3,0.1,0.3,0.2,0.7,0.1c0,0,0.1,0.1,0.1,0.1c-0.1-0.6-0.5-0.7-0.7-1.3c-0.2-0.8,0.2-1.9,0.1-2.7
			c-0.1-0.8,0.1-2.1,0.4-3.1c0.2-0.7-0.1-1.3,0-1.7c0.3-1.3,0.3-2.3,0.6-3.4c0.2-1.1-0.4-2.1-0.2-3.4c0-0.2-0.1-0.5,0-0.8
			c0.1-0.2,0.4-0.5,0.5-0.9c0.2-0.7-0.4-1.2,0.3-1.6c-0.1-0.3,0-0.1-0.3-0.2c0-0.7,0.3-3.7,0.2-3.9c0.1-0.1,0.1-0.1,0.3-0.1
			c-0.3-0.5-0.6-2.1-0.4-3c0.3-1.5-0.4-4.2,1.1-5.2v-0.2c-0.3,0.1-0.3,0.2-0.5,0.5c0,0-0.1-0.1-0.1-0.1c-0.1-0.2,0.1-0.6,0.1-0.9
			l-0.2-0.3v-0.2h0.2c0.1-0.2,0.2-0.8,0.3-1v-2.1c0.1-0.4,0.5-0.4,0.2-0.9c0.1-0.8,1.1-1.3,1.6-1.8c1-1,2-2.4,2.8-3.6
			C430.8,303.3,429.9,304.4,430,305.4z M427,366.5c-0.2-0.5-0.6-1-0.8-1.6c-1.4-0.3-5.9-0.4-6.5,0.5c-0.1,0.2,0.1,0.6-0.1,1.1
			c0,0.1-0.3,0.4-0.4,0.5v0.9c-0.3,1.1-0.2,2.4-0.4,3.5c0,0.3,0.1,0.6,0.1,0.9c-0.5,1.5,0,3.3-0.5,5.2c-0.2,0.9,0.1,2.2-0.2,3.3
			c0,0.1-0.2,0.3-0.2,0.5c0.2,1.8,0.3,3.7-0.1,5.3c0,1-0.1,1.9-0.1,2.9c0.1,0.2,0.2,1,0.1,1.3c0,0.1-0.3,0.4-0.3,0.5
			c-0.1,0.5,0.1,1.2,0.2,1.6c0.1,0.4-0.4,0.6-0.3,1.2c0.2,0.6,0.3,2.4-0.1,3c0,0.7,0.1,0.9,0.6,1.1c0.3,0.2,0.9-0.5,1.5-0.3
			c0.9,0.3,1.8,0.5,3.1,0.5c0.6,0,1.8-0.2,2.1,0c0.8-0.2,1.1-2.1,1.1-3.3h0.3c0,0,0.1-0.1,0.1-0.1c-0.1-0.3-0.2-0.4-0.3-0.6
			c-0.1-0.4,0.2-1.1,0.1-1.7c-0.1-0.6,0.1-2.4,0.3-3.2c0.1-0.6,0-1.7-0.1-2.2c-0.1-0.7,0.2-1.2,0.2-1.7c0.2-2.4-0.5-4.4,0-6.6
			c0-0.8-0.1-1.6-0.1-2.4c0.5-2.1,0.1-4.6,0.4-6.8c0.1-0.8,0.3-2.3-0.1-2.9C426.8,366.4,426.7,366.4,427,366.5z M423.9,380.3
			c0.1,0.5,0.1,1.1,0.2,1.6c0,0.1-0.3,0.5-0.3,0.6c-0.1,0.7,0.2,1.2,0.1,1.8c-0.3,1.6-0.3,2.8-0.3,4c0,0.2-0.2,0.5-0.2,0.6
			c-0.2,0.7,0.2,0.9,0,1.5c-0.1,0-0.1,0.1-0.2,0.1c0,0.2,0.1,0.5,0.1,0.8c0,0.3-0.2,0.3-0.2,0.4c0,0.3,0.2,0.2,0.2,0.3
			c0.1,0.3-0.2,0.4-0.2,0.5c-0.1,0.2,0.1,0.7,0.1,0.8c0,0.4-0.4,0.6-0.3,0.9v0.4h-0.1c-0.3-0.5-0.8-0.7-1.1-1.2h-0.2
			c0.2,0.5,1.6,1.7,1.3,2.3c0,0.5-0.1,0.6-0.2,0.9c-1.1,0-2.4-0.2-3.2-0.7c-0.3,0-0.2,0.1-0.4-0.2c-0.2-0.3-0.1-0.7,0.1-1.1
			c-0.2-0.7-0.2-1.7-0.2-2.5c0-0.2,0.1-0.4,0.1-0.6c-0.2-1.1,0.1-4.5,0.4-5.7c0.2-1,0.1-3.4-0.1-4.5c-0.1-0.8,0.2-2,0.3-2.5
			c0.3-0.9,0-2.4,0.2-3.3v-1.4c0.3-1.3,0.2-2.9,0.5-4.2c0-0.3-0.2-0.7,0-1c0.6-0.5,2.1,0.5,2.9,0c0.4,0,0.4,0.1,0.7,0.3
			c-0.1,1.5,0,3.7,0.2,4.9c0.1,0.5-0.5,0.6,0.1,1.3C423.7,377.2,424.2,378.8,423.9,380.3z M425.2,324.9v0.2c0.2-0.1,0.1,0,0.2-0.1
			c0.3-0.1,0.2,0,0.3-0.3c-0.1,0.1-0.2,0.1-0.3,0.2L425.2,324.9L425.2,324.9z M410.3,198.3c-0.2-0.1-0.1,0-0.2-0.1h-0.2v0.2
			c0.1,0.1,0.2,0.1,0.3,0.2C410.3,198.5,410.3,198.5,410.3,198.3z M403,387.5L403,387.5l-0.1,0.2c0.2,0,0.2,0,0.3-0.1
			c0.1-0.1,0.1-0.1,0.1-0.3C403,387.4,403.1,387.4,403,387.5z M401.9,406h0.3v-0.2c0,0-0.1-0.1-0.1-0.1
			C401.9,405.8,402,405.7,401.9,406z M401.5,404.9c0.3-0.1,0.1,0.1,0.3-0.2h-0.3V404.9z M398.7,231c0.1-0.2,0.2-0.2,0.3-0.5
			C398.7,230.6,398.4,230.8,398.7,231z M394.2,241.9v0.2c0.2,0,0.4,0.1,0.6,0.1V242c-0.2,0-0.3,0-0.4-0.1H394.2z M376.5,365.9
			c0-0.2,0.4-0.5,0.4-0.6c0.1-0.3-0.2-0.2-0.2-0.3c-0.1-0.4,0.2-0.8,0.1-1.2c-0.1-0.4-0.3-0.6-0.4-1.1c-1.2-0.5-4.5-0.8-5.9,0
			c-0.5,1.2,0,2-0.9,3c-0.1,0.3,0.4,0.8,0.3,1.3c-0.2,1.1-0.5,2.5-0.7,3.6c0,0.3,0.1,0.6,0.1,1c-0.4,1.5-0.6,2.9-0.6,4.2l-0.2,0.2
			c0,0.3-0.1,1.7,0,1.9c0.2,1-0.3,2.3-0.1,3.5c0.3,1.5-0.3,3.5-0.3,4.6c0,0.4-0.5,1.3-0.3,1.7c0.1,0.3,0.2,0.3,0.4,0.6
			c1.6,0.1,3.5-0.4,5.2-0.2c0.6,0.1,1.4-0.5,1.7-0.3c0.5,0,0.5-0.1,0.8-0.3c0.3-1.5,0.1-3.3,0.5-4.9c0.3-1.2-0.2-2.6-0.1-3.5
			c0.2-1.3,0.2-2.7,0.2-4.1c0-0.9-0.1-2-0.2-2.7c0.2-0.3,0.5-2.3,0.3-2.6c0-0.5,0.1-0.5,0.3-0.8
			C376.8,368.8,376.4,366.5,376.5,365.9z M373.7,373c0,0.6-0.2,0.8-0.8,0.9c0,0.1-0.1,0.2-0.1,0.3c0,0,0.1,0.1,0.1,0.1
			c0.2-0.1,0.2,0,0.3-0.2h0.3c-0.1,0.3-0.3,1.6-0.2,1.9c0.1,0.2,0.4,0.6,0.4,0.9c-0.2,1.8-0.2,3.5-0.2,5.6c0,1-0.1,3.8,0.2,4v0.1
			c-1,0-1.7,0.2-2.4,0.3c-0.4,0.1-1-0.2-1.3-0.1c-0.2,0-0.3,0-0.5-0.1c0-0.6,0.1-1,0.2-1.4c0.1-0.6-0.2-1,0-1.7
			c0.1-0.3,0.4-1.1,0.4-1.3c0-0.1-0.3-0.3-0.3-0.4c-0.1-0.3,0.2-0.3,0.2-0.4c0,0,0.1-2.8,0-3.2c-0.3-1.9,0.1-3.8,0.6-5.6
			c0.2-0.7,0-1.1,0.2-1.6c0.4-1.5,0-2.9,0.6-3.8c0.5-0.2,1.1,0.3,1.9,0.3c0.2,0.6,0.5,1.3,0,1.8v0.4c0.1,0,0.3-0.1,0.4-0.1
			C373.6,370.2,373.2,372.3,373.7,373z M360.5,391.8h0.4v-0.2h-0.4V391.8z"/>
	</g>
</g>
</svg>
