<?xml version="1.0" encoding="utf-8"?>
<!-- Generator: Adobe Illustrator 23.0.1, SVG Export Plug-In . SVG Version: 6.00 Build 0)  -->
<svg version="1.1" id="Calque_1" xmlns="http://www.w3.org/2000/svg" xmlns:xlink="http://www.w3.org/1999/xlink" x="0px" y="0px"
	 viewBox="0 0 595.276 841.89" enable-background="new 0 0 595.276 841.89" xml:space="preserve">
<ellipse fill-rule="evenodd" clip-rule="evenodd" fill="#DDDDDD" cx="257.394" cy="571.161" rx="124.494" ry="17.061"/>
<g>
	<g>
		<path fill-rule="evenodd" clip-rule="evenodd" d="M384.5,548.9c-2.17-0.305-3.848,1.839-5.6,1.6c-1.13-0.154-4.997-1.802-5.6-2
			c-2.933-0.133-5.867-0.267-8.8-0.4c-2.008-0.654-4.529-2.423-6.4-3.2c-2.69-1.117-5.455-0.878-7.6-2.4
			c-6.402-4.543-15.95-21.02-18.4-29.6c-1.53-5.356,1.134-15.387,0-20.8c-2.209-10.547-2.004-22.76-4.4-33.6
			c-0.359-1.626,0.543-3.341,0.4-4.4c-0.76-5.644-0.77-13.354-2-18.8v-6c-1.498-6.508,0.048-14.929-1.6-21.6
			c-2.12-8.578-4.384-15.985-7.2-23.2c-0.693-1.776-0.331-3.18-1.2-4.8c-5.463-10.188-14.218-18.104-19.6-28.4
			c-1.572-3.007-1.861-5.983-3.2-9.2c-2.466-5.922-5.279-13.081-7.6-19.2c-1.247-3.288-1.466-6.406-3.2-9.2
			c-1.304-2.101-3.737-3.65-5.2-5.6c-4.498-5.994-10.054-11.036-14.4-17.2c-6.586-9.34-12.837-19.622-24.4-24
			c-14.812-5.608-26.535-1.61-40.4,2.8c-3.451,1.098-6.949,1.639-10,2.4c-4.547,1.134-8.348-0.131-12.4,1.2
			c-2.844,0.934-6.876,2.577-9.6,3.6c-2.029,0.762-4.863,0.295-6.8,1.2c-2.291,1.071-4.943,3.954-7.2,5.2
			c-2.755,1.521-5.521,1.909-8,3.6c-3.284,2.24-6.144,5.444-9.6,7.6c0.178,1.579,0.325,1.648,1.2,2.4
			c1.529,0.641,4.775-1.674,6.4-2.4c2.439-1.089,7.685-1.927,10.8-2.8c11.079-3.105,27.201-0.33,37.6,1.2
			c1.962,3.782,5.456,6.611,6.8,11.2c0.69,2.354-0.913,4.249-1.2,6c-1.167,7.127-0.878,14.63-2.4,21.2v6.8
			c-0.416,2.71-0.429,6.492-1.2,9.6c-3.438,13.859-4.238,30.796-7.6,44.4c-0.267,3.466-0.533,6.934-0.8,10.4
			c-1.428,5.958-2.563,14.984-1.6,22.8c2.434,19.761,5.809,40.607,11.2,58.4c4.004,13.217,8.779,24.767,12.4,38
			c0.799,2.921,0.9,14.85-0.4,16.8v1.6c-2.552-0.418-3.776,1.444-6.8,0.8c-4.131-0.88-11.129-2.269-14-4.8
			c-1.208-1.065-1.86-3.087-3.2-4c-1.122-0.765-2.583-0.795-3.6-1.6c-7.97,0.672-9.423,7.214-15.6,9.2
			c-2.54,1.033-8.979-2.496-11.2-3.6c-6.93-3.445-11.391-4.004-20.4-3.2c-0.133,0.133-0.267,0.267-0.4,0.4
			c0.371,1.547,0.913,1.677,2.4,2c1.392,0.398,3.403-2.539,6.8-1.6c7.672,2.12,14.902,8.499,23.6,8
			c3.852-4.151,8.751-6.356,13.6-9.6c4.008,0.822,4.853,4.114,7.6,6c3.122,2.144,12.215,4.867,17.2,4.8
			c-1.594,4.237-6.313,2.061-11.2,3.2c-7.582,1.766-20.154,3.252-24.4,9.2c-9.276,0.005-14.979-1.901-19.6-6.4
			c-4.737,0.009-11.565,2.651-13.6,5.2c-6.791-0.369-16.478-7.188-24-5.2c-6.827,1.804-12.835,5.522-20,7.2
			c-4.296,1.006-8.675-1.997-13.6-0.8c-3.127,0.76-6.473,1.91-10.4,2l-0.4,0.4c0.159,0.822,0.099,0.771,0.4,1.2
			c2.02,1.872,11.097-3.17,15.6-2c10.923,2.84,18.935-3.012,26.8-5.6c4.544-1.495,21.373,2.854,24.4,5.2
			c1.293-0.214,10.452-4.729,11.6-5.6c5.594,0.188,12.429,7.806,19.6,6.4c3.365-0.66,7.654,0.249,11.6-0.8
			c8.531-2.268,16.744-4.784,27.2-2.4c1.445,0.329,3.579-0.237,4.4-0.4c1.079-0.214,12.627-0.058,12.8,0
			c0.267,0.4,0.533,0.8,0.8,1.2c1.67-0.885,4.977-2.402,8-1.6c7.888,2.092,7.169,8.038,18.4,7.2c0.453-0.475,1.016-0.859,1.6-1.2
			c-0.13-0.923-0.186-0.994-0.4-1.6c-2.583,0.204-4.093,1.898-6.8,0.8c-2.953-1.198-9.568-8.899-13.6-6.8h-1.2
			c1.2-1.333,2.4-2.667,3.6-4c10.739-0.021,25.233,0.124,34.8,1.6c4.289,0.662,7.447,3.666,10.8,4.8c4.133,0.667,8.267,1.333,12.4,2
			c3.039,0.986,5.611,3.659,8.4,5.2c-0.806,0.451-0.717,0.207-1.6,0c-0.244,0.688-0.373,1.258-0.4,2.4
			c-2.628,0.253-4.614,1.967-8,1.2c-1.951-0.442-5.381-2.042-7.6-1.6c-4.647,0.927-11.659,2.922-16.8,4.4
			c-5.625,1.616-12.615,0.705-17.2,3.2c0.258,0.69,0.078,0.392,0.4,0.8c1.969,0.876,7.663-0.628,10-1.2
			c7.87-1.926,14.754-3.102,22.8-4.8c4.33-0.914,8.379,2.655,13.6,1.2c2.824-0.787,6.487-2.903,9.2-3.6c2.255-0.58,7.468,1.48,9.2,2
			c6.734,2.023,14.229,3.448,21.6,4.4c1.714,0.221,0.905-0.848,1.6-1.2c0.028-0.014,8.427-0.766,10-0.4
			c5.33,1.241,9.103,3.11,13.2,5.2c1.686,0.86,4.108,0.58,5.6,1.6c2.263,0.03,5.158,0.162,6.8-0.4c-0.159-0.822-0.099-0.771-0.4-1.2
			c-2.267-1.628-5.892-0.987-8.8-2c-3.84-1.338-8.194-3.955-12.4-5.2c-3.428-1.015-9.69,0.282-13.2,0
			c0.133-0.933,0.267-1.867,0.4-2.8c-7.448-4.453-15.98-8.492-26.8-9.6v-0.8c6.399-0.4,12.801-0.8,19.2-1.2
			c11.221,2.12,31.022,4.861,43.2,4.4c5.263-0.199,9.163-4.012,13.6-5.2c2.286-0.612,11.538,3.397,12.8,4.4
			c2.693,0.021,4.676-0.292,6.4-0.8c0.258-0.69,0.078-0.392,0.4-0.8v-1.2C395.561,553.88,391.038,549.818,384.5,548.9z M184.5,283.7
			c-1.177,0.798-4.28-0.274-6.8,0c-5.761,0.626-23.391,1.886-26.4,4.4h-0.8l0.4-0.4c2.028-2.397,8.8-3.429,12-4.4
			c1.932-0.586,4.556,0.44,6-0.4c2.932,0.054,12.393,0.764,13.6,0c1.139,0.044,1.71,0.16,2.4,0.4
			C184.767,283.433,184.633,283.567,184.5,283.7z M186.1,283.7v-0.8c1.067,0.133,2.133,0.267,3.2,0.4
			C188.126,284.148,187.565,283.792,186.1,283.7z M329.3,530.5h0.4v0.8h-0.4V530.5z M326.1,454.9v1.6h-0.4
			c-0.133-0.667-0.267-1.333-0.4-2C325.567,454.633,325.833,454.767,326.1,454.9z M324.9,442.5c-0.323-0.47-0.322-0.669-0.4-1.6
			C324.823,441.37,324.822,441.569,324.9,442.5z M279.7,422.5c-0.323-0.47-0.322-0.669-0.4-1.6
			C279.623,421.37,279.622,421.569,279.7,422.5z M241.7,278.9h0.8c-0.467,2.664-1.812,2.467-3.2,4h-1.2
			C238.906,280.741,240.891,280.993,241.7,278.9z M239.3,286.1v0.8h-0.8v-0.8H239.3z M238.5,276.9c0.355,0.689,0.352,0.512,0,1.2
			v0.4h-0.8C237.997,277.572,238.115,277.606,238.5,276.9z M238.1,290.1h0.8c-0.285,1.799-0.85,2.027-1.6,3.2h-0.8
			C237.247,292.147,237.855,291.896,238.1,290.1z M235.3,285.3c0.267,0.133,0.533,0.267,0.8,0.4c-0.091,0.927-0.079,1.128-0.4,1.6
			v0.4h-0.4V285.3z M232.9,285.7c0.419,0.613,0.424,1.639,0.4,2.8C232.881,287.887,232.876,286.861,232.9,285.7z M232.1,296.1v1.2
			c-0.303-0.43-0.251-0.37-0.4-1.2H232.1z M205.7,278.9c0.702-0.446,1.441-1.002,2-1.6c1.617,0.166,1.57,0.442,2.8,0.8
			c-0.055,2.18-0.382,2.046-1.2,3.2c-1.518-0.532-1.426-1.104-3.6-1.2V278.9z M201.7,307.7c0.753,0.66,0.855,1.733,1.6,2.4v0.4
			c-1.136,0.485-1.729,0.652-2.4,1.6h-0.4C200.589,309.978,201.052,309.105,201.7,307.7z M199.7,306.1
			c0.303,0.43,0.251,0.37,0.4,1.2h-0.8C199.433,306.9,199.567,306.5,199.7,306.1z M202.9,543.3c-0.69-0.258-0.392-0.078-0.8-0.4
			C202.79,543.158,202.492,542.978,202.9,543.3z M344.9,551.3c-5.67-0.377-12.325-0.489-16.8-1.6
			c-4.881-1.211-10.787,0.964-14.4,0.8c-4.849-0.22-10.929,1.008-14.4-1.6c-1.074-0.299-6.503-9.74-7.2-11.2
			c-1.5,0.145-1.487,0.31-2.4,0.8c0.365,3.218,3.202,4.063,4.4,6.4c1.479,2.888,1.54,6.207,4,8c2.158,1.573,4.321,1.381,7.2,2.4
			c8,2.832,18.141,4.845,24.4,9.6h0.4v1.2c-2.768-1.086-3.927,0.452-7.2-0.4c-4.306-1.12-9.147-2.752-13.2-4h-5.2
			c-6.183-2.078-10.836-6.071-16.8-8c-4.266-0.667-8.534-1.333-12.8-2c-4.577-1.86-13.718-7.487-16.4-11.2
			c-1.886,0.934-1.058,3.477,0.4,4.4v0.8c-4.345-0.049-9.77-0.536-13.2-0.8c-2.064-0.159-6.917,1.167-8.4,0.4
			c-4.331,0.062-5.635-0.549-8-2c-0.011-2.243-0.3-8.586-1.2-10c-0.502-0.302-0.383-0.03-1.6,0c-0.408,4.038,1.551,13.079,0.4,14.8
			c-2.414,3.608-8.734,3.326-13.6,3.2c-1.067-0.133-2.133-0.267-3.2-0.4c-6.91,1.54-13.006-2.62-20.4-0.8
			c-5.611,1.381-10.792,2.994-15.6,4.4c-1.447,0.423-2.031-0.343-2.8,0h-0.8v-0.8c3.281-1.501,7.273-3.287,10.8-4.4
			c3.333-0.133,6.667-0.267,10-0.4c6.811-1.515,12.349-1.595,15.6-6.4c2.326-3.439,3.251-13.16,2-18.4
			c-3.011-12.617-8.153-23.754-12-35.2c-2.076-6.178-2.94-12.548-4.8-18.4c-1.036-3.26-0.252-5.923-1.2-9.2
			c-7.763-26.842-6.921-57.89-0.4-85.6c2.105-8.943,1.335-19.022,3.6-27.2c0.592-2.136-0.202-4.744,0.8-6.4
			c0.502-0.302,0.383-0.03,1.6,0l0.4-0.4c-0.042-1.013-0.049-1.482-0.4-2c-0.766-0.367-0.294-0.16-1.2,0v-0.4
			c-0.17-0.361,0.107-4.603,0.8-5.6v-5.2c0.4,0.4,0.8,0.8,1.2,1.2c1.244-0.405,1.799-1.01,2.8-1.6c-0.091-0.927-0.079-1.128-0.4-1.6
			v-0.8c-1.664,0.111-2.06,0.24-2.8,1.2h-0.4c-0.03-2.642-0.437-8.46,0.8-10.4v-3.2c1.186,0.323,2.773,0.338,3.6,0.8
			c1.623-0.14,1.99-0.352,2.8-1.2h0.4c-0.117-3.249,0.797-4.1,4-4c0.258-0.69,0.078-0.392,0.4-0.8c-0.13-0.923-0.186-0.994-0.4-1.6
			c-1.542,0.053-1.705-0.009-2.4,0.8h-1.6l0.4-0.4c1.922-2.12,5.377-0.723,6.8-2.8c1.12,0.821,0.052,1.099,0.8,2.4v0.4
			c1.998-0.689,2.407-2.149,3.6-3.6c1.142-0.5,0.671,0.684,2,0.4c0.689-0.147,2.315-1.303,3.2-1.6
			c6.554,1.278,13.976-2.164,15.6-7.2c0.267,0.267,0.533,0.533,0.8,0.8c4.894-0.091,2.442-4.212,3.2-6.4
			c0.637-1.837,2.932-3.178,1.2-5.6c0.81-1.338,2.657-1.811,3.6-3.2h0.4c-0.169,1.255-0.427,1.862-0.8,2.8l0.4,0.4
			c2.271-0.244,1.918-0.978,3.2-2c0.055-1.203,0.298-1.114,0-1.6c-0.53-1.274-0.335-1.068-2-1.2c0.345-1.073,0.746-1.47,1.2-2.4
			c-0.364-0.372-0.54-0.697-0.8-1.2c-1.944,0.065-1.972,0.034-2.4,1.6c-1.046-0.321-0.948-0.496-2-0.8v-1.6
			c1.396-0.335,1.401-0.587,2-1.6c5.131,1.78,6.522,8.11,9.6,12c-0.059,5.522-3.969,4.977-7.2,7.2c-3.095,2.13-5.416,5.789-8.4,8
			c-0.08,1.039-0.177,1.359-0.4,2c1.557,1.532,1.816,4.736,3.6,6c3.802,2.694,10.154,2.581,12.8,6.4
			c3.706,5.349,1.653,14.493,4.4,21.2c2.247,5.487,6.957,7.992,10,12.4c2.855,4.136,4.799,10.358,6.4,15.6
			c0.851,2.786,0.076,8.591-0.4,10.8c-1.146,5.313-1.563,16.253-0.4,21.6v5.6c2.213,9.804,2.288,20.645,5.2,29.6
			c5.226,16.068,12.645,25.287,24.8,34.4c4.573,3.428,7.956,7.441,13.6,10c1.046,4.036,2.559,9.142,3.6,13.6
			c0.891,3.816-0.618,7.885,0,10.8c1.659,7.819,0.14,16.612,2.8,24.4c3.505,10.262,12.132,20.977,20.4,26.4V551.3z M249.7,286.9
			c0.473-1.134,0.771-1.892,0.8-3.6c-1.235,0.019-2.05,0.139-2.8,0.4c-0.258,0.69-0.078,0.392-0.4,0.8
			c0.033,1.798,0.251,2.183,0.8,3.2C249.028,287.403,248.994,287.285,249.7,286.9z M244.5,294.1c0.133-0.667,0.267-1.333,0.4-2
			c-0.323-0.411-0.148-0.098-0.4-0.8c-1.039,0.08-1.359,0.177-2,0.4c-0.258,0.69-0.078,0.392-0.4,0.8
			c0.13,0.923,0.186,0.994,0.4,1.6H244.5z M217.7,306.9c-1.235,0.019-2.05,0.139-2.8,0.4c0.091,0.927,0.079,1.128,0.4,1.6v0.8h2
			C217.433,308.767,217.567,307.833,217.7,306.9z M210.9,307.3c-0.372,0.364-0.697,0.54-1.2,0.8c0.142,1.456,0.592,2.235,0,3.2
			c0.08,1.039,0.177,1.359,0.4,2c1.039-0.08,1.359-0.177,2-0.4c-0.142-1.456-0.592-2.235,0-3.2
			C211.956,308.035,211.91,308.001,210.9,307.3z M219.7,307.3c-0.39,0.706-0.517,0.661-0.8,1.6c-0.323,0.411-0.148,0.098-0.4,0.8
			c0.525,0.536,0.868,1.271,1.2,2c0.923-0.13,0.994-0.186,1.6-0.4c0.258-0.69,0.078-0.392,0.4-0.8
			C221.661,308.348,221.348,307.807,219.7,307.3z M203.3,318.1c1.801-0.186,1.71-0.517,2.8-1.2c-0.145-1.5-0.31-1.487-0.8-2.4h-1.2
			c-0.705,0.649-1.008,0.725-2.4,0.8c-0.258,0.69-0.078,0.392-0.4,0.8v2C202.407,318.293,202.456,318.583,203.3,318.1z M208.5,318.1
			c-0.39,0.706-0.517,0.661-0.8,1.6c0.323,0.411,0.148,0.098,0.4,0.8c1.784-0.041,1.873,0.145,2.4-1.2
			c0.323-0.411,0.148-0.098,0.4-0.8c-0.133-0.133-0.267-0.267-0.4-0.4H208.5z M201.7,321.3c-0.259-1.416-0.274-1.354-1.2-2l-0.4-0.4
			c-0.4,0.4-0.8,0.8-1.2,1.2c0.036,1.538,0.134,2.372,0.8,3.2v0.8c2.377-0.18,2.859-0.492,4.8-0.8c0.133-0.933,0.267-1.867,0.4-2.8
			C203.383,320.74,203.223,321.094,201.7,321.3z M206.1,322.1c-0.352,0.582-0.722,1.143-1.2,1.6c0.13,0.923,0.186,0.994,0.4,1.6h2.8
			C208.039,323.014,207.631,322.819,206.1,322.1z M213.7,322.1c-0.389,1.21-0.566,1.574,0.4,2.4c0.411,0.323,0.098,0.148,0.8,0.4
			c0.411-0.323,0.098-0.148,0.8-0.4c0.133-0.667,0.267-1.333,0.4-2c-0.133-0.133-0.267-0.267-0.4-0.4H213.7z M207.7,327.7
			c0.145,1.5,0.31,1.487,0.8,2.4c0.667-0.133,1.333-0.267,2-0.4c0.133-0.933,0.267-1.867,0.4-2.8h-2.8
			C207.842,327.59,208.022,327.292,207.7,327.7z M202.5,335.3c0.244-0.688,0.373-1.258,0.4-2.4l-0.4-0.4
			c-1.424,0.133-1.333,0.025-2,0.8c-0.813-0.753-0.738-1.164-2-1.6c-0.268,0.498-0.435,0.827-0.8,1.2
			c0.768,2.773,3.278,1.15,3.6,4.8c0.69,0.258,0.392,0.078,0.8,0.4c1.424-0.133,1.333-0.025,2-0.8c0.323-0.411,0.148-0.098,0.4-0.8
			C203.635,335.756,204.027,335.59,202.5,335.3z M216.5,333.3c0.242,1.247,0.069,0.973,0.8,1.6c0.411,0.323,0.098,0.148,0.8,0.4
			c0.751-0.795,1.535-1.292,2.8-1.6v-2c-1.538,0.036-2.372,0.134-3.2,0.8C216.837,332.866,217.118,332.847,216.5,333.3z
			 M208.1,340.5c-0.624,0.826-1.26,1.27-2.4,1.6c0.091,0.927,0.079,1.128,0.4,1.6v0.8c2.218-0.221,2.059-0.881,3.2-2
			C209.153,340.852,209.396,341.009,208.1,340.5z M202.5,344.5c-0.044-1.139-0.16-1.71-0.4-2.4c-1.139,0.044-1.71,0.16-2.4,0.4v2
			c0.822,0.159,0.771,0.099,1.2,0.4C201.823,344.77,201.894,344.714,202.5,344.5z M202.1,352.1c-0.39,0.706-0.517,0.661-0.8,1.6
			h-0.4c0.463,1.13,0.051,0.752,1.2,1.2c1.135,0.448,1.131-0.354,2-1.2c-0.13-0.923-0.186-0.994-0.4-1.6H202.1z M194.1,526.5
			c3.333,0.753,6.618,2.466,8.4,4.8c1.833-0.363,1.958-1.162,3.2-2v-0.8c-3.757-1.305-7.637-4.298-13.6-4.4
			c-0.488,1.344-0.522,2.637,0.4,3.6C192.949,528.405,193.721,527.086,194.1,526.5z M215.7,561.3c-2.533-1.067-5.067-2.133-7.6-3.2
			c-1.689-0.472-4.297-0.188-5.6-0.4c-2.468,1.572-8.843,0.985-12,2c-4.383,1.408-7.745,5.484-10.8,8.4
			c-5.906-0.359-12.55-2.648-18.8-2c-0.133,0.133-0.267,0.267-0.4,0.4c0.042,1.013,0.049,1.482,0.4,2v0.8
			c2.119-0.407,4.884-2.052,8.4-1.2c2.68,0.649,7.415,3.005,10.8,2c4.002-1.189,5.247-5.715,8.4-7.6
			c6.953-4.157,22.634-2.986,28.8,1.2c1.235-0.019,2.05-0.139,2.8-0.4c-0.159-0.822-0.099-0.771-0.4-1.2
			C218.602,561.329,217.251,561.776,215.7,561.3z"/>
	</g>
</g>
</svg>
