<?xml version="1.0" encoding="utf-8"?>
<!-- Generator: Adobe Illustrator 21.0.0, SVG Export Plug-In . SVG Version: 6.00 Build 0)  -->
<svg version="1.1" id="Calque_1" xmlns="http://www.w3.org/2000/svg" xmlns:xlink="http://www.w3.org/1999/xlink" x="0px" y="0px"
	 viewBox="0 0 841 595" style="enable-background:new 0 0 841 595;" xml:space="preserve">
<style type="text/css">
	.st0{fill:#DADADA;}
	.st1{fill:#1D1D1B;}
</style>
<g>
	<g>
		<path class="st0" d="M478.9,298.5c-0.4,0-0.8,0.1-1.2,0.1c-0.2-0.2-0.2-0.3-0.4-0.6c0.3-0.3,0.5-0.8,0.8-1.1
			c0.3-0.2,0.6-0.1,0.7-0.4v-1.2c-0.1-0.2-0.1-0.5-0.1-0.8h-0.2c-0.5,0.6-1.7,0.9-2.6,1c-0.3-0.3-0.4-0.2-0.5-0.8
			c0.1-0.1,0.2-0.3,0.2-0.4c0.3-0.3,0.6-0.4,1.1-0.5v-0.4c0.6-0.4,1.8-1.1,1.8-2c-0.5-0.8-0.4-2.1-0.7-2.9c-0.9,0.3-3.8,1.9-4,0.1
			c0.1-0.1,0.2-0.2,0.4-0.4c0.7-0.6,2.1-0.9,3.1-1.1c0-0.1,0.1-0.2,0.1-0.4c-0.6-0.7-0.5-2.4-1.4-2.6c-0.7,0.6-1.6,0.6-2.4,0.2
			c0-0.5,0-0.3,0-0.7c0.6-0.5,1.2-1,2.2-1.1c-0.1-0.8-0.7-2.4-1.4-2.5c-0.1,0.1-2.7,0.9-3.1,1c0-0.1-0.1-0.2-0.1-0.4
			c-0.1-0.1-0.2-0.3-0.2-0.5c0.4-0.3,0.6-0.9,1.1-1.1c0.4-0.2,1.3-0.1,1.8-0.4c0.1-0.1,0,0,0.1-0.2c-0.6-0.5-0.7-1.8-1.6-2
			c-0.7,0.5-3.3,0.8-4.2,0.7c-0.2-0.2-0.2-0.3-0.4-0.6c0.2-0.2,0.3-0.6,0.5-0.7c0.6-0.4,1.2-0.2,1.8-0.6c0.5,0,1.3,0.1,1.4-0.2
			c-0.9-0.7-1.4-1.9-2.9-1.9c-0.3,0.2-2.5,0.5-2.5,0.5c-0.5-0.1-0.7-0.2-0.7-0.8c0.1-0.1,0,0,0.1-0.2c0.5-0.3,1.9-0.7,2-1.1
			c-0.6-0.4-1-1.2-1.9-1.3c-0.3,0.2-0.7-0.2-1.2-0.1c-0.7,0.1-1.8,0.8-2.5,0.5c-0.2-0.2-0.2-0.2-0.2-0.6c0.5-0.5,0.7-1,1.8-1
			c0.1-0.1,0.5-0.2,0.6-0.2c-0.1-0.1,0,0-0.1-0.2c-0.9-0.4-1.6-1.1-2.5-1.4c-0.3,0.2-2.6,0.9-3,0.8c-0.1-0.2-0.2-0.5-0.2-0.7
			c0.3-0.1,1.3-1,1.6-1.2c-0.7-0.4-1.2-0.9-2.3-1c-0.4,0.4-2.4,1.4-2.9,1.1c-0.4-0.3-0.4-0.5-0.4-1c0.4-0.2,1.4-0.6,1.6-1.1
			c-0.8-0.4-1.4-1-2.4-1.1c-0.4,0.3-1.1,0.2-1.7,0.5c-0.7,0.3-1,0.7-1.8,1c-0.2-0.4-0.3-0.4-0.4-1c0.2-0.2,0.2-0.2,0.2-0.5
			c0.3-0.2,1.8-1.1,1.8-1.1c-1-0.2-1.6-0.8-2.8-0.8c-0.7,0.6-1.4,0.7-1.8,1.6c-0.7-0.1-2,1-2.2-0.4c0.5-0.3,1.6-1,1.8-1.6
			c0-0.1,0.1,0,0-0.1c-1.8-1.3-4,1.6-5.3,2c0-0.3-0.1-0.6-0.1-1c0.2-0.4,0.2-0.8,0.5-1.2c0.2-0.2,0.6-0.3,0.8-0.5
			c0,0-0.1-0.1-0.1-0.1c-3.1-0.4-4.2,1.2-5.6,2.8c-0.2-0.1-0.1,0-0.2-0.1c-0.4-0.2-0.4-0.4-0.4-1.1c0.3-0.3,0.7-0.7,0.7-1.3
			c0,0-0.1-0.1-0.1-0.1c-0.2,0.1-0.6,0.1-1,0.1c-0.7,1-2.9,1.7-2.8,3.1c-0.5,0.1-0.5,0.2-1.1,0.2c0-0.1-0.1-0.2-0.1-0.4
			c-0.6-1,1-2,1.3-2.5h-0.2c-0.3-0.1-0.9,0.1-1.2,0.2h-1c-0.9,0.4-1.1,1.5-1.6,2.3c-0.2-0.1-0.1,0-0.2-0.1c-0.5-0.3-0.6-1.1-1-1.2
			v0.2c-1.1,0.9-0.8,2.5-1,4c0.5,0,0.9,0.9,1.4,0.7h0.1c-0.1-0.3-0.2-0.7,0-1c0.3,0.2,0.7,0,0.8,0.1c1.1,0.5,0.2,2.2,1.6,2.8
			c0.2-0.1,0.1,0,0.5,0v-0.2c-0.1-0.2,0-0.4,0-0.8h0.2c1-0.8,1.5,1.7,2.8,1.9c0.2,0.2,0.4,0.1,0.8,0.1c0,0,0.1-0.1,0.1-0.1
			c-0.1-0.3-0.1-0.7-0.1-1.2c0.4-0.3,0.4-0.5,1.2-0.5c0.5,2.2,1.8,2.2,3.6,2.6v-1.6c0.4-0.2,0.4-0.4,1.1-0.5
			c0.3,0.5,0.4,1.1,0.6,1.9c0.8,0.4,1.7,0.6,2.6,1c0.1-0.5,0.2-1.1,0.4-1.6c0.3-0.1,0.3-0.2,0.7-0.2c0.1,0.1,0.3,0.2,0.4,0.2
			c0.2,0.2,0.4,0.5,0.5,0.8c-0.3,0.2-0.3,0.5-0.2,1.1c0.6,0.3,1.2,0.6,1.9,0.7c0-0.8-0.4-0.9-0.5-1.7c0.2-0.1,0.4-0.3,0.6-0.5
			c0.2,0.1,0.5,0.2,0.7,0.2c0.5,0.9,1.1,1.5,1.1,3c0.7,0.1,1.1,0.6,1.9,0.7c0-0.4,0.1-0.8,0.1-1.2c0.1,0,0.2-0.1,0.4-0.1
			c0.3-0.3,0.5-0.2,1-0.1v2.4c0.8,0.2,1,0.8,1.9,1c0-0.8,0.2-1.1,0.4-1.9h0.2c0.2-0.1,0.4-0.1,0.7-0.1c0,0.1,0.1,0.2,0.1,0.2
			c0.5,0.7,0.2,2.1,0.2,3.1c0.6,0.2,0.9,0.7,1.7,0.8c0.3-0.8,0.3-1.2,1.4-1.2c0.6,1,0,1.5-0.1,2.6c0.4,0.4,0.8,1,1.4,1.2
			c0.1,0.1,0,0.2,0.2,0.1v-0.1c0.5-0.4,0.7-1,1.6-1.1c0.3,0.4,0.4,0.6,0.5,1.3c-0.5,0.2-0.9,1-1.1,1.6c0.6,0.5,0.7,1.6,1.8,1.7
			c0.4-0.5,0.7-0.6,1.6-0.6c0.2,0.2,0.3,0.3,0.5,0.5c-0.3,1.1-1.2,1-1.4,1.9c0.4,0.5,0.7,1.4,1,2c0.5-0.2,1.1-1,1.7-0.7
			c0.4,0.1,0.4,0.2,0.5,0.7c0.1,0.1,0,0,0.1,0.2c-0.6,0.4-0.8,1-1.3,1.4c0.3,0.9,0.1,1.9,0.7,2.6c0-0.3,0.1-0.3,0.1-0.5
			c0.3,0,0.8-0.2,1.6-0.2c0.2,0.4,0.4,0.6,0.5,1.2c-0.7,0.5-0.8,0.8-2,0.8c0,1.6,0.2,2.6,0.5,4.1h0.1c0.3-0.3,1.2-0.7,1.7-0.8
			c0.1,0.1,0.1,0.1,0.4,0.1c0.1,0.4,0.2,0.6,0.2,1.2c-0.2,0.1-0.2,0.4-0.4,0.5c-1.4,0.8-1.9-0.2-1.8,2.3c-0.3,0.4,0,1.1,0.1,1.6h0.1
			c0.4-0.5,1-0.1,1.4,0c0.1,0.4,0.2,0.4,0.2,0.8c-0.2,0.1-0.3,0.5-0.5,0.6c-0.9,0.5-1.7-0.1-1.7,1.3c-0.1,0.2-0.2,0.3-0.2,0.6
			c0.7,0.4,2.1,0.9,2.2,1.8c0,0.1,0.1,0,0,0.1c-0.2,0.5-0.3,0.5-1,0.5c-0.4-0.3-1.5-0.5-1.9-0.6c-0.2,0.8-2.2,3.2-2,3.4
			c0.2,0.3,0.6,0.4,0.8,0.7c0.3,0.4,0.4,0.9,0.6,1.3c-1.1,0.3-1.8-0.3-2.9-0.6c-0.4,1.2-2,1.7-2.4,3h0.1c0.7,0.5,1.8,0.2,2.2,1.1
			c0.1,0.2,0.2,0.4,0.1,0.5c-0.1,0.3,0,0.2-0.4,0.4c-0.5,0.3-1.8,0-2.5-0.1c-0.1-0.2-0.3-0.5-0.5-0.7c-0.6,1-1.7,1.5-1.8,2.9
			c0.4,0.2,2.4,1.2,2.4,1.2c0.2,0.2,0.2,0.3,0.2,0.7c-0.1,0.1,0,0-0.1,0.2c-0.1,0-0.2,0.1-0.4,0.1c-0.5,0.3-2.5-0.6-3-0.8v0.2
			c-0.5,0.7-0.8,2-1,2.9h2.8c0.1,0.2,0.3,0.5,0.5,0.7c0,0-0.1,0.1-0.1,0.1c-0.1,0.5-0.3,0.5-0.6,0.8c-0.7-0.2-2-0.4-2.5-0.1
			c-0.4,0.2-0.3,0.9-0.2,1.4c0.1,0.2,0,0.5,0.1,0.7c0.2,0.5,0.7,0.9,1,1.3c0,0,0.1-0.1,0.1-0.1c0.6-0.5,0.2-1,1-1.3
			c0.7-0.4,1.1,0.6,1.1,1.3c-0.3,0.2-0.6,0.8-0.5,1.1c0.7,0.7,2.3,0.2,3,0c0-0.1,0.1-0.2,0.1-0.2c-0.4-0.3-0.6-0.8-0.6-1.4
			c0.3-0.4,0.2-0.6,1-0.6c0.4,0.5,0.7,1.1,1.3,1.3c0.6-0.5,1.7-0.6,2.4-1.1c-0.7-0.1-1.3-0.5-1.6-1.1c-0.1-0.3-0.1-0.3,0-0.6
			c0.3-0.1,0.5-0.2,0.7-0.4c0.8,0.2,1.5,0.7,2.5,0.8c0.5-0.8,1.4-1.2,1.7-2.2h-1.1c-0.2,0.2-0.7,0.2-1.1,0.2v-0.2
			c-0.2-0.3,0-0.6,0.1-1c0.4-0.1,0.7-0.2,1.3-0.2c0.5-0.4,1.1-0.1,1.9-0.1c0.5-1.2,1.6-2,1.8-3.5h-0.2c-0.6,0.4-1.6,0.5-2.5,0.5
			c0-0.1-0.1-0.2-0.1-0.4c-0.1-0.1-0.1-0.1-0.1-0.4c0.7-0.4,1.4-0.9,2.3-1.2c0.5-0.2,1.1-0.1,1.6-0.4c0.5-0.5,1.2-2.4,1.3-3.2
			c-0.7,0-1.3,0.1-1.8,0.1c-0.2-0.2-0.2-0.2-0.4-0.5c-0.1-0.1-0.1-0.2-0.1-0.5c0.4-0.2,0.4-0.3,1.1-0.4c0.6-0.4,1.2-0.1,1.8-0.5
			c0.4-0.4,0.7-1.7,0.7-2.4h-1.6c-0.2-0.3-0.2-0.3-0.2-0.8c0.5-0.3,2.1-0.9,2.4-1.3c0.4-0.5,0.7-1.7,0.7-2.4c-0.5,0-1.7,0.5-1.9,0.2
			c-0.3-0.3-0.3-0.4-0.4-1c0.5-0.1,2.6-1,2.8-1.3c0.4-0.6,0.4-1.9,0.5-2.6c-0.9,0.1-1.5,0.3-2.5,0.4c-0.2-0.3-0.2-0.4-0.2-1
			c0.6-0.2,2.8-1.2,2.9-1.4C478.9,299.4,478.9,298.9,478.9,298.5z M421.5,317.1c0.3,0.6-0.5,1.7-0.7,2.2c-0.1,0.2,0,1.3-0.1,1.9
			c-0.1,0.5-0.5,1.1-0.6,1.6c-0.1,0.4,0.2,0.6,0.2,0.8c0,0.1-0.3,0.5-0.4,0.6c-0.2,0.5,0.3,1.2,0.1,1.8c-0.2,0.8-0.6,1.6-0.8,2.3
			c-0.1,0.3,0.1,0.9-0.1,1.4c-0.3,0.7-0.9,2.7-1.3,3.2c-0.1,0.1-0.3,0-0.5,0.1c-0.3,0.2-0.7,1.2-0.8,1.6c-0.7,1.7-0.1,5.2-1.4,6.2
			c-0.5,0.4-5.3-0.2-5.6-1c-0.3-0.4-0.1-1.2,0.1-1.6c0.6-1.5,1.2-2.7,1.7-4.4c0.3-1.1,0.3-2.6,0.6-3.6c0-0.3-0.1-0.6-0.1-0.8
			c0.1-0.2,0.4-0.6,0.5-0.8v-1.3c0.3-1.1,0.6-2.9,0.8-4.2c0-0.4-0.1-0.8-0.1-1.2c0.4-1.2,0.6-3.1,0.6-4.9c-0.3-0.1-0.5-0.2-0.7-0.5
			c-0.3,0.2-0.8,0.2-1,0.5c-0.4,0.6-0.8,3.1-1,3.8c0,0.2,0.1,0.4,0.1,0.6c-0.1,0.1-0.2,0.2-0.4,0.2c0,0.4,0.1,0.8,0.1,1.2
			c-0.1,0.5-0.5,0.7-0.6,1c-0.3,0.9,0,3-0.4,4.2c-0.4,1.5-1,3.4-1.6,5c-0.5,1.4-0.9,5.6-2,6c-0.6,0.4-5.6-0.2-6.2-0.4
			c-0.6-1-0.6-6.2-0.2-7.7c0.2-0.8,0.3-1.7,0.6-2.5c0.1-0.3,0.5-0.7,0.6-1c0.1-0.3-0.1-0.4-0.1-0.6l0.2-3c0.1-0.1,0.2-0.2,0.4-0.4
			c0-0.2-0.1-0.3-0.1-0.5c0.1,0,0.2-0.1,0.4-0.1c0-0.2-0.1-0.4-0.1-0.6c0.3-1.9,0.7-3.4,0.7-5.4H402c-0.3-0.3-0.8-0.4-1.4-0.4
			c-0.1,1.5-0.8,3-1.2,4.3c-0.5,1.6-0.4,4.3-0.6,5.8c-0.7,0-0.6-0.3-0.7,0.4c-0.3,0.5-0.1,1.3-0.2,2c-0.4,1.8-0.5,4.3-1.1,6
			c-0.3,1.1-0.2,2.2-1.2,2.5c-0.8,0.5-4.7-0.3-5.4-0.5c-0.2-0.2-0.4-0.5-0.6-0.7c0-0.9,0.2-1.7,0.4-2.4v-1.9
			c0.2-0.9,0.2-2.3,0.4-3.2c0.1-0.5,0.2-1.7,0.1-2c0-0.2-0.3-0.3-0.2-0.7c0.4-1.5,1.1-3.8,1.2-5.4c0-0.4-0.3-1.3-0.1-2
			c0.2-0.6,0.5-1.9,0.5-2.9c0,0-0.1-0.1-0.1-0.1c-0.6,0.2-1.4,0-2.3,0c0,0-0.1,0.1-0.1,0.1c0,0.5-0.2,0.8-0.2,1.2v2.2
			c-0.1,1.2-0.1,2.4-0.4,3.5c-0.4,1.4,0.1,3.2-0.5,4.4v3c0,1.8-0.1,3.3-0.5,4.9c0,0.7-0.1,1.4-0.1,2c-0.2,0.4-0.8,0.9-1,1.4
			c-0.5,1.3-0.4,2.9-1,4.1c0.1,0.3,0,4.2-0.1,4.7c-0.2,1.1-0.2,4.6,0,5c-0.1,1.5,0,3.2,0.2,4.4h0.2c0.9,0.5,1.8,0.1,2.9,0.5
			c0.8,0.3,3.6,1.5,3.8,2.3c0.3,0.4,0.3,1.8,0.1,2.2c-0.9,2.2-1,4-1.6,6.7c-1.3,6.1-2.3,12.1-4,18.2c-0.3,1,0.2,2.4-0.1,3
			c-0.5,1.2-0.5,2.8-1,4c0,0-0.1-0.1-0.1-0.1c-0.1-0.2-0.1,0.2-0.1,0.2c0.2,0.4-0.2,1.6-0.4,2.2c-0.3,1.2-0.5,3.1-0.4,4.6
			c0.8,0.3,2.2,1.5,3,1.9c0.5,0.3,1.1,0.7,1.6,0.8c0.3,0,0.6,0.1,0.8,0.1c0.1,0.1,0.2,0.4,0.4,0.5c0.3,0.2,0.5,0.1,0.8,0.2v0.2
			c0.2,0,0.5,0.1,0.7,0.1c0.1,0.1,0.1,0.4,0.2,0.5c0.1-0.1,0.2-0.2,0.4-0.2c0.4,0.2,1.9,1.1,2.3,1c0.3-0.2,0.2-0.1,0.2-0.5
			c-0.3,0-0.1,0.2-0.4-0.1c0.5-0.4,0.4-0.8,1.3-0.8c0.2-0.1,0.6,0,1.1,0c0.2-0.4,0.4-0.3,0.5-0.8c0.2-0.2,0.4-1.1,0.2-1.3
			c-0.2-0.3,0.1-0.1-0.2-0.2c-0.3-0.2-1.2-0.2-1.7-0.2c-0.1-0.5-0.3-0.5-0.4-1.2c0.3-0.2,0.6-0.2,1.2-0.2c0.2-0.1,1.3-0.3,1.8-0.4
			c0.1-1,0.5-1.6,0.6-2.6c0,0-0.1-0.1-0.1-0.1c-0.5,0.1-1.3,0-1.9-0.1c-0.1-0.4-0.2-0.5-0.2-1.1c0.6-0.3,1.2-0.1,1.9-0.5
			c0.3-0.1,0.5-0.4,0.8-0.6c0.1-0.9,0.1-1.5,0.4-2.2c-0.7,0.2-2.3-0.2-2.4-1.1c0.2-0.2,0.1-0.2,0.4-0.4c0.4-0.3,1.3-0.3,2-0.2
			c0.2-0.4,0.4-0.2,0.5-0.7c0.2-0.3,0.2-0.6,0.2-1.1H401c-0.1-0.1-1.1-0.2-1.6-0.2c-0.2-0.3-0.2-0.3-0.2-0.8
			c0.1-0.1,0.1-0.2,0.1-0.5c0.5-0.1,1-0.2,1.4-0.2c0.3-0.7,1.1-0.5,1.2-1.4c0.2-0.3,0.1-0.6,0-1c-0.2-0.1-0.2-0.1-0.5-0.1
			c-0.4,0.3-1,0.1-1.4,0c-0.2-0.2-0.4-0.4-0.6-0.6c0.1-0.2,0.1-0.4,0.1-0.7c0.2-0.1,0.3-0.2,0.5-0.4c1,0.2,1.6-0.1,2.4-0.2
			c0.1-0.4,0.2-0.4,0.2-0.8c0.1-0.2,0.1-0.6,0.1-1h-0.2c-0.3-0.2-1.4-0.3-1.9-0.5c-0.1-0.2-0.1-0.2-0.2-0.4c0-0.2,0.1-0.4,0.1-0.6
			c0.3-0.1,0.3-0.1,0.6-0.2c0.4-0.3,1.2-0.1,2,0v-0.2c0.6-0.7,0.5-1.8,0.5-3c0,0-0.1-0.1-0.1-0.1c-0.6,0-1.2,0.3-1.7,0
			c-0.3-0.1-0.4-0.3-0.7-0.5c0-0.2-0.1-0.5-0.1-0.7c0.3-0.2,0.2-0.3,0.6-0.5c1-0.6,2.1,0.3,2.5-1c0.3-0.4,0.1-0.8,0.2-1.2h-0.5
			c-0.8,0.5-2.8-0.4-3-1c-0.1-0.2-0.1-0.3-0.1-0.6c0.2-0.2,0.3-0.3,0.5-0.5c1.5,0.3,2.7,0.1,3.7-0.5c-0.1-0.4,0-0.6,0-1.2
			c-0.7-0.1-2.5-0.1-2.8-0.4c-0.3-0.3-0.2-0.6-0.1-1.1c0.6-0.2,0.7-0.5,1.4-0.6c0.3,0.4,0.8,0.4,1.6,0.4c0-0.1,0.1-0.2,0.1-0.2
			c0.3-0.4,0.4-1.2,0.5-1.9c-0.9,0.1-1.3,0-2.4,0.1c-0.1-0.4-0.3-0.4-0.5-0.8c0.2-0.2,0.2-0.4,0.2-0.7c0.3,0,0.5-0.2,0.7-0.2
			c1.1-0.3,1.2,0.4,2.2,0c0,0,0.1-0.1,0.1-0.1V362c-1.4,0-1.8-0.2-2.9-0.5c-0.3-0.4-0.5-0.5-0.5-1.3c0.3-0.1,0.3-0.2,0.7-0.2
			c0.7-0.3,1.9,0.8,2.8,0.2h0.1c0-0.4,0.1-0.9,0.1-1.3c-0.8-0.2-1.4-0.6-1.4-1.7c1.9-1.2,1.7,0.4,3.2,0.6c0.2-0.2,0.4-0.3,0.6-0.5
			c-0.3-0.5-0.3-1.4-0.2-1.9c0.3-0.2,0.5-0.2,1.1-0.2c0.1,0.1,0.2,0.1,0.5,0.1c0.2,0.3,0.2,0.3,0.2,0.8c0.1,0.3,0,0.9,0.1,1.2
			c0.4,0.3,2.2,0,2.6-0.4c-0.4-0.5-0.9-1.1-1-2c0.1-0.1,0,0,0.1-0.2c0.4-0.1,0.5-0.2,1.1-0.2c0.3,0.3,1.6,1.7,1.8,1.8v-0.1
			c0.6-0.5,1.1-1.1,1.4-1.8c-0.7,0-1.2,0-1.4-0.5c-0.3-0.4-0.2-0.9,0.1-1.1c0.4-0.3,1.7-0.1,2-0.1c0.2-0.7,0.5-1.3,0.6-2.2h-0.2
			c-0.7,0.4-1.8-0.6-1.8-1.6c0.2-0.2,0.3-0.2,0.6-0.4c0.3-0.1,1.2-0.1,1.8-0.2c0.1-0.2,0.1-0.6,0.1-1c0.1-0.2,0.1-0.3,0.1-0.6h-0.2
			c-0.2,0.2-0.8,0.1-1.2,0.1c-0.2-0.4-0.5-0.7-0.6-1.3c0.7-0.3,1.6-0.4,2.4-0.6v-0.6c0.2-0.3,0-0.9,0.1-1.4c0.4-1.4-0.1-3.7,0.2-5.4
			c0.3-1.1,0.2-2.7,0.1-4c0-0.8,0.5-2.7,0.7-3.4c0-0.6,0.1-1.2,0.1-1.8c0.4-1.4,0.5-2.5,1-4.2c0.6-2.4,1.5-4.7,1.6-7.7h-1.1
			C421.6,316.7,421.6,316.8,421.5,317.1z M388.5,418.1c0,0.2-0.1,0.4-0.1,0.6c0.5,0.1,0.5,0.2,1.1,0.2v0.5h0.6v0.4
			c1.6,1,2.4,1.9,3.6,3.4c0.3-0.1,0.5,0,1,0c0.1-0.9,0.3-1.7,0.4-2.8c0,0-0.1-0.1-0.1-0.1C392.8,420,390.6,418.7,388.5,418.1z
			 M391,430.9c-1.6,0.8-3.5,0.3-4.8-0.1c-0.1,0-0.2,0.1-0.4,0.1c-1-0.4-2-1.2-3.4-1.2v0.2c-0.1,0.1-0.1,0.1-0.1,0.4h0.4
			c0.1,0.4,0.2,0.4,0.2,0.8c0.2,0,0.4,0.1,0.6,0.1c0.2,0.7,0.9,0.8,1.1,1.4h0.4c0.3,0.5,2.4,2.4,3,2.5v0.4c0.3,0.2,0.6,0.4,1,0.6
			c0,0.2-0.1,0,0,0.2c0.5,0.6,1.6,2,2.5,2c0.1-0.1,0,0,0.2-0.1v-0.2c0.4-0.7-0.6-1.4-0.7-2.5c0.3-0.1,1-0.8,1.2-1.1
			c0,0-0.1-0.1-0.1-0.1c-0.3,0-0.6-0.1-0.8-0.1c0-0.2,0-0.2-0.1-0.4c-0.1,0.1-0.1,0.1-0.4,0.1c0-0.3-0.1-0.6-0.1-0.8
			c0.5-0.2,2-1,2-1.6c0.1-0.2,0.1-0.4,0.1-0.7c-0.3-0.1-0.3-0.2-0.7-0.2C391.8,430.9,391.4,430.7,391,430.9z M390.3,444.1
			c-0.8-0.5-1.5,0.6-2.6,0.7v0.4c-1.2,0-3.3,1-4.8-0.4c-0.6,0.2-1.7-0.3-2.3-1c-0.3,0.2-0.5,0.1-0.6,0.4h0.4
			c0.2,1.3,1.4,1.9,1.7,3.1h0.4c0.1,0.9,0.9,1.3,1.2,2c0.1,0.4,0.1,0.7,0,1c0.2,0.5,0.8,1.4,1,1.9c0.5,2.1-2.3,4.2-3.6,4.7
			c-0.1-0.4,0.1-0.2-0.2-0.4c0,0.3,0.1,0.2,0,0.5c-0.1-0.1-0.2-0.2-0.4-0.4c0,0.1-0.1,0.2-0.1,0.4c-0.7-0.6-2.7-1.5-3.8-1.6
			c0-0.2,0-0.2-0.1-0.4c-0.3,0.1-0.4,0-0.8,0c-0.1,0.9-0.5,1-0.7,1.8c-0.3,0.8-0.2,2.1-0.4,2.6c-0.1,0.3-0.4,0.6-0.6,1
			c-0.1,0.3,0.1,1,0,1.4c-0.1,0.3-0.3,0.9-0.4,1.1c-0.3,1.5,0.2,3.3-0.1,4.1c0.3,0.7,0.7,1.4,0.4,1.9c0.4,0.1,0.2-0.1,0.4,0.2
			c0.2,0.3,0.2,0.7,0.2,1.1h0.4c0,0.2,0,0.2,0.1,0.4c0.2,0.2,0.3,0.4,0.6,0.5c0.2-0.3,0-0.1,0.4-0.1c0,0.4-0.2,0.2,0.1,0.4
			c0.4-0.2,1.8,0.5,2.3,0.7c0.3,0.1,0.3-0.1,0.5-0.1c0.5,0,0.8,0.3,1.3,0.1c0.3-0.1,0.6-0.4,1.1-0.5c0-0.2,0.1-0.5,0.1-0.7h0.4
			c0.2-1,0.9-0.6,1.4-1.2c0.5-0.5,0-0.8,0.4-1.4c0.3-0.6,1.2-0.6,1.6-1.2c0.3-0.4,0-1,0.2-1.6c0.2-0.5,1-0.8,1.2-1.3
			c0-0.1-0.3-0.7-0.4-0.8c-0.1-0.5,0.1-0.9,0.2-1.2c0.6-0.2,1.1-0.2,1.6-0.7c0,0-0.4-0.2-0.4-0.2c-0.2-0.4,0.3-0.3,0.2-0.7
			c-0.1-0.6-0.4-0.6-0.4-1.3c0.7-0.2,0.2-0.2,0.5-0.5c0.7,0,0.9-0.3,0.8-1.3l0.1-0.1h-0.5V457h-0.4c-0.2-0.2-0.2-0.3-0.4-0.6
			c-0.1-0.3,0-0.3,0-0.7c0.7,0,0.8-0.1,1.3-0.2c0.1-0.4,0.3-0.4,0.6-0.6v-1.1h-0.6c-0.3-0.6-0.2-0.2-0.6-0.5
			c0.1-0.2,0.1-0.5,0.1-0.8c1-0.2,1.5-0.7,1.9-1.4c-0.4-0.4-0.4-0.8-1.1-1c-0.1-0.1-0.2-0.1-0.5-0.1c0-0.3-0.1-0.6-0.1-1
			c0.7-0.2,1.2-0.5,2-0.6c0.1-1.3-0.4-1.3-0.6-2.4c0.3-0.4,0.8-1,1-1.4C390.7,444.3,390.6,444.2,390.3,444.1z"/>
	</g>
</g>
<g>
	<g>
		<path class="st1" d="M409.6,257.8c1.4,0.3,3.5,0.1,4.8-0.2c0.8,0,1.7-0.1,2.5-0.1c2.9-0.9,5.5-2.1,8-3.1c1.1-0.5,4.3-1.3,4.9-2
			c2.1,0,2.2,3.3,2.4,4.6c0.1,0.5-0.2,1.5-0.1,1.8v0.2c-0.2,0-3.9,0.2-4.1,0.4c-0.9,0.5-1.7,1.4-2.5,1.9c-0.1,0.4-0.2,0.9-0.1,1.2
			c0,0.1,0.3,0.2,0.2,0.4c-0.1,0.8-0.9,2.6-0.4,3.7c0.5,1,1.5,1.4,2.4,2c0.4,0.2,0.7,0.7,1.1,1c1.9,1.2,4.9,1.8,7.7,1.9l0.1,0.1
			c-0.1,0.8-0.2,1.3-0.4,1.9c-0.4,1.4,1.1,5.3,1.6,6.1c0.9,0.2,2.2-0.1,3,0c0.6,0.1,1.2,0,1.9-0.1c1.2-0.2,2,0.3,2.9,0.1
			c2.2-0.4,4.6-0.4,6.6-1.1c0.9-0.3,1.8-0.1,2.5-0.6c1.6,0.5,3,1.9,4,3.1c0.3,0.2,0.6,0.4,0.8,0.6c0.7,0.7,1.5,1.6,2,2.4
			c1.8,2.4,3.3,5.4,4.3,8.4c0.2,1.5,0.3,3,0.5,4.4c0.8,3.2,0.7,9.1-1,10.8c-1,0.8-2.3,0.7-3.7,1.2c-0.4,0.1-0.8,0.6-1.2,0.7
			c-0.3,0.1-1.8,0.1-2.9,0c-0.5,0.2-2.1,0.5-2.8,0.6c-0.3,2.6,0.4,3.6,1.1,5.4c0.4,1,0.3,2.5,1.3,2.9c-0.8,1.9-1.7,4.1-2.2,6.2
			c-0.3,1.1,0.1,2.8,0.2,3.6c0,0.6,0.1,1.1,0.1,1.7c0.1,0.3,0.4,1,0.5,1.3c0,0.2-0.1,0.3-0.1,0.5c0.7,1.8,3.7,3.2,6.1,2
			c1.4-0.7,2.9-1.9,4.2-2.8c0.2-0.1,0.4,0,0.6,0.2c0.3-0.1,0.2-0.1,0.4-0.4c0.1-0.2,0-0.2,0-0.6c3.6,1.6,6.3,4.4,7.6,8.3
			c0.3,1-0.2,4.4-0.4,5.2c-0.5,2.1,0.1,5.8,1,7.3c1.4,2.4,5.7,5.1,8.4,6.4c1.3,0.4,2.6,0.7,3.8,1.1c0.2,0,0.3-0.1,0.5-0.1
			c0.3,0.1,1,0.4,1.3,0.5c0.9,0,1.8-0.1,2.6-0.1c0.3,0,0.6,0.2,1.1,0.1c0.8-0.2,1.9-0.1,2.8-0.4c1.5-0.4,3.1-0.8,4.9-0.8
			c0-0.1,0.1-0.2,0.1-0.4c0.1-0.1,0,0,0.1-0.2c-0.1-0.1,0,0-0.1-0.2c-2.9-0.7-5.7,0.4-9.2,0.4h-2.8c-1-0.3-2.4-0.8-3.4-1.1
			c-0.4,0-0.7-0.1-1.1-0.1c-0.7-0.4-1.6-1-2.4-1.4c-0.3-0.2-0.6-0.1-0.8-0.2c-0.5-0.4-1-1.1-1.6-1.4c-0.8-0.5-1.6-0.8-2.2-1.6
			c-1.5-2-2-4.1-1.4-7.1c0.1-0.3-0.3-0.3-0.2-0.5c0.2-0.8,0.7-4.5,0.4-5.4c-0.1-0.3-0.5-0.8-0.6-1.1c-0.4-1-0.4-2.1-1.1-3.2
			c-0.5-0.5-1-1-1.4-1.4c-0.2-0.3-0.2-0.7-0.5-1c-0.2-0.2-0.6-0.2-0.8-0.4c-0.5-0.3-1-0.9-1.4-1.2c-0.6-0.3-1.2-0.4-1.7-0.8h-0.1
			c0.2-0.5,0.8-1.3,1.2-1.6c0.2-0.1,0.4,0,0.5-0.1c0.2-0.3,0.2-0.7,0.4-1c0.7-1,1.7-1.8,2.4-2.8c0.7-1,1-2.3,1.6-3.5
			c0.3-0.7,1-1.5,1.3-2.3c0.4-0.9,0.4-1.8,0.8-2.8c0.1-0.2,0.5-0.7,0.6-1v-0.8c0.3-0.9,0.9-2,1.2-2.9c0.4-1.1,0.1-1.7,0.4-2.6
			c0.3-1,0.9-2.5,1.2-3.6c0.4-1.4,0.2-2.8,0.5-4.2c0-0.4-0.1-0.9-0.1-1.3c0.3-1.4,0.2-3.2-0.1-4.8v-3c-0.3-1-0.6-2.5-1.1-3.8v-0.7
			c-0.3-0.7-0.5-1.5-0.8-2.3c-0.1-0.2-0.4-0.5-0.5-0.6c-0.4-0.9-0.2-1.8-0.6-2.6c-0.2-0.3-0.7-0.7-0.8-1c-0.3-0.6-0.4-1.1-0.7-1.6
			c-0.3-0.4-0.9-0.7-1.2-1.1c-0.6-0.8-0.9-2.3-1.6-3.2c-0.5-0.7-1.4-1.3-2-1.8c-0.4-0.3-0.6-0.8-1-1.2c-0.6-0.6-1.6-1-2.3-1.6
			c-0.7-0.6-1.3-1.4-2-1.9c-1.6-1.2-3.7-2.1-5.4-3.1c-2.8-1.6-6-3.6-9.2-4.7c-1.7-0.6-3.4-0.7-4.8-1c-1.4-0.3-3.5-0.8-4.9-0.6
			c-0.5,0.1-1.3-0.2-1.7-0.1c-1.1,0.2-4.1,0.2-4.7,0.6c-0.5,0-0.7-0.1-1-0.2c0-2.4,0-5.1-1.3-6.5c0.1-1.1,3-1.1,4.2-1.6
			c2.2-0.8,4.5-1.9,6.2-3.2c0.5-0.3,0.5-1.2,1-1.6c0.1-1.2-0.2-1.5-1.1-1.4c-0.3,0.5-0.6,1-0.8,1.6h-0.4v0.4
			c-0.4,0.4-0.9,0.8-1.3,1.2c-1.5,1-3.6,1.6-5.4,2.2c-0.7,0.2-1.7,0.1-2,0.2c-0.8,0.3-1.9,0.8-2.8,1.1c-0.4,0.1-0.9,0-1.3,0.2
			c-1.6,1.1-3.6,1.6-5.5,2.4c-0.4,0.2-0.9,0.7-1.3,0.8c-0.6,0.2-0.9,0.1-1.6,0.4c-0.8,0.3-1.8,0.8-2.6,1.1c-1.5,0.5-3.1,0.4-4,0.6
			c-3.9,0.8-5.8-1.2-7.6-3.4c-0.5-0.6-1.2-0.7-1.4-1.6c-0.5-0.8,0-2,0-2.8c0.1-1.9,1.8-5.5,2.8-6.5c0.2-0.3,0.6-0.4,0.8-0.7
			c2.2-3.1,4.9-5.8,7.9-8c0.6-0.5,1.1-1.3,1.7-1.8c1.1-0.9,2.4-1.7,3.5-2.6c0.2-0.2,0.2-0.6,0.4-0.7c0.2-0.2,0.4,0,0.6-0.2
			c0.6-0.7,1.1-1.9,1.4-2.5c0.8-1.3,2.2-2.3,2.2-4.3c-0.2,0-0.5-0.1-0.7-0.1c-0.2,0.5-0.3,1.1-0.6,1.7c-0.2,0.2-0.4,0.4-0.6,0.6v0.6
			c-0.1,0-0.2,0.1-0.4,0.1c-0.4,0.6-0.6,1.2-1,1.8c-0.2,0.1-0.3,0.2-0.5,0.4v0.4c-0.1,0.2-0.6,0.4-0.7,0.6v0.4
			c-0.1,0-0.2,0.1-0.4,0.1c-0.7,0.7-1.3,1.3-2,1.9c-0.2,0.2-0.3,0.6-0.5,0.7c-0.4,0.3-0.9,0.3-1.3,0.6c-0.2,0.2-0.3,0.5-0.5,0.7
			c-0.2-0.2-2.2,2.1-2.6,2.4c-2.2,2-4.6,3.7-6.2,6.2c-0.1,0.2-0.5,0.2-0.6,0.4c-0.2,0.2-0.1,0.5-0.2,0.7c-0.1,0-0.2,0.1-0.4,0.1
			c-0.2,0.2-0.2,0.6-0.4,0.8c-0.5,0.7-1.3,1.4-1.8,2c-0.2,0.3-0.1,0.6-0.2,1c-1.1,2.5-1.5,3.7-1.2,7
			C405.3,254,406.7,257.1,409.6,257.8z M428.5,260.8h0.2c-0.1,0.1-0.1,0.2-0.2,0.4v0.2h-0.1C428.4,261.2,428.5,261,428.5,260.8z
			 M445.1,277.7c-0.4,0.4-1.8-0.3-2.8,0c-0.5,0.2-1.6,0.3-1.8,0.4c-0.4,0.1-1.1-0.1-1.3-0.2h-0.2c-0.1-0.7,0.3-1,0.1-1.8
			c-0.4-1.5-1.1-2.5-0.8-4.2c2.4,0,4.6,0.4,6.2,1.3c0.1,1.2,0.2,3.3,0.7,4.1C445.2,277.5,445.2,277.6,445.1,277.7z M452.9,276.9
			c-0.9,0-3.9,0.3-4.4,0.7c-0.6,0-1.3,0-1.7-0.1c-0.1-0.7-0.3-2.7-0.6-3.2c0-0.3,0-0.5,0.1-0.7c0.2-0.1,1.5,0.4,1.8,0.6
			c1.2,0.8,3.4,2,4.8,2.4V276.9z M463.1,309.9c0.2,0.1,0.5,0.2,0.7,0.2c-0.2,0.6-0.8,1.1-1.2,1.7c-0.3-0.1-0.4-0.2-0.6-0.4
			C462,310.3,462.5,310.4,463.1,309.9z M456.1,311.3c0.3,0,3.8,0.1,4.3-0.2h0.2c0,0.7-0.1,1-0.5,1.3v0.2c0.2-0.1,0.1,0,0.2-0.1
			c0.5,0.1,0.3,0.2,0.6,0.5c-0.2,1.6-2.4,3-3,4.3h-0.2C457.6,315.5,456.1,313.7,456.1,311.3z M432.9,260.6h0.2
			c-0.3,0.5-2,1.5-1.3,2.5c0,0.1,0.1,0.2,0.1,0.4c0.6,0,0.6-0.2,1.1-0.2c-0.1-1.4,2-2.1,2.8-3.1c0.4,0,0.7,0,1-0.1l0.1,0.1
			c-0.1,0.6-0.4,1-0.7,1.3c0,0.6,0,0.8,0.4,1.1c0.1,0.1,0,0,0.2,0.1c1.4-1.6,2.5-3.2,5.6-2.8l0.1,0.1c-0.2,0.2-0.7,0.2-0.8,0.5
			c-0.2,0.4-0.2,0.8-0.5,1.2c0,0.3,0.1,0.6,0.1,1c1.2-0.4,3.5-3.4,5.3-2c0.1,0.1,0,0,0,0.1c-0.2,0.6-1.3,1.3-1.8,1.6
			c0.1,1.3,1.5,0.2,2.2,0.4c0.4-0.9,1.1-1,1.8-1.6c1.2,0.1,1.8,0.7,2.8,0.8c0,0-1.5,0.9-1.8,1.1c-0.1,0.3-0.1,0.3-0.2,0.5
			c0,0.6,0.1,0.6,0.4,1c0.8-0.2,1.1-0.7,1.8-1c0.5-0.2,1.2-0.2,1.7-0.5c1,0.1,1.6,0.7,2.4,1.1c-0.2,0.4-1.1,0.9-1.6,1.1
			c-0.1,0.5,0,0.7,0.4,1c0.5,0.3,2.5-0.7,2.9-1.1c1.1,0,1.6,0.5,2.3,1c-0.2,0.2-1.3,1.1-1.6,1.2c0.1,0.2,0.2,0.5,0.2,0.7
			c0.4,0.1,2.7-0.7,3-0.8c0.9,0.3,1.6,1.1,2.5,1.4c0.1,0.2,0,0.1,0.1,0.2c-0.1,0.1-0.5,0.2-0.6,0.2c-1.2,0-1.3,0.4-1.8,1
			c0.1,0.4,0.1,0.4,0.2,0.6c0.7,0.3,1.9-0.3,2.5-0.5c0.5-0.1,0.9,0.3,1.2,0.1c0.9,0.1,1.3,0.9,1.9,1.3c-0.1,0.4-1.5,0.8-2,1.1
			c-0.1,0.2,0,0.1-0.1,0.2c0,0.6,0.2,0.7,0.7,0.8c0,0,2.2-0.3,2.5-0.5c1.5,0,2,1.3,2.9,1.9c-0.2,0.3-1,0.3-1.4,0.2
			c-0.6,0.4-1.2,0.2-1.8,0.6c-0.2,0.2-0.3,0.5-0.5,0.7c0.1,0.3,0.2,0.4,0.4,0.6c0.9,0.1,3.5-0.2,4.2-0.7c0.8,0.2,0.9,1.6,1.6,2
			c-0.1,0.2,0,0.1-0.1,0.2c-0.5,0.3-1.4,0.1-1.8,0.4c-0.5,0.2-0.6,0.8-1.1,1.1c0.1,0.1,0.1,0.4,0.2,0.5c0,0.1,0.1,0.2,0.1,0.4
			c0.4,0,3-0.9,3.1-1c0.7,0.1,1.4,1.8,1.4,2.5c-1,0.1-1.6,0.6-2.2,1.1c0,0.4,0,0.2,0,0.7c0.8,0.4,1.7,0.4,2.4-0.2
			c1,0.3,0.9,1.9,1.4,2.6c0,0.1-0.1,0.2-0.1,0.4c-1,0.2-2.4,0.5-3.1,1.1l-0.4,0.4c0.2,1.8,3.1,0.1,4-0.1c0.4,0.8,0.3,2.1,0.7,2.9
			c-0.1,1-1.2,1.7-1.8,2v0.4c-0.5,0.1-0.8,0.2-1.1,0.5c-0.1,0.1-0.2,0.3-0.2,0.4c0.1,0.6,0.2,0.5,0.5,0.8c0.9-0.1,2.2-0.4,2.6-1h0.2
			c0,0.4,0,0.7,0.1,0.8v1.2c-0.1,0.3-0.5,0.2-0.7,0.4c-0.4,0.2-0.5,0.8-0.8,1.1c0.1,0.3,0.2,0.4,0.4,0.6c0.4,0,0.8-0.1,1.2-0.1
			c0,0.4,0,0.9-0.1,1.1c-0.1,0.2-2.3,1.2-2.9,1.4c0,0.5,0.1,0.7,0.2,1c1.1,0,1.7-0.3,2.5-0.4c-0.1,0.7-0.1,2.1-0.5,2.6
			c-0.2,0.3-2.3,1.2-2.8,1.3c0,0.6,0.1,0.7,0.4,1c0.2,0.2,1.5-0.2,1.9-0.2c-0.1,0.7-0.3,1.9-0.7,2.4c-0.3,0.4-1.9,1-2.4,1.3
			c0,0.5,0.1,0.5,0.2,0.8h1.6c0,0.7-0.3,2-0.7,2.4c-0.6,0.4-1.2,0.1-1.8,0.5c-0.7,0-0.7,0.1-1.1,0.4c0,0.3,0,0.3,0.1,0.5
			c0.1,0.3,0.2,0.3,0.4,0.5c0.5-0.1,1.1-0.1,1.8-0.1c-0.1,0.9-0.8,2.7-1.3,3.2c-0.4,0.3-1,0.2-1.6,0.4c-0.9,0.3-1.6,0.8-2.3,1.2
			c0.1,0.2,0,0.2,0.1,0.4c0,0.1,0.1,0.2,0.1,0.4c0.9,0,2-0.1,2.5-0.5h0.2c-0.2,1.4-1.3,2.3-1.8,3.5c-0.8,0-1.4-0.2-1.9,0.1
			c-0.7,0-0.9,0.1-1.3,0.2c-0.1,0.4-0.3,0.7-0.1,1v0.2c0.4,0,0.8-0.1,1.1-0.2h1.1c-0.3,1-1.2,1.4-1.7,2.2c-1-0.1-1.7-0.6-2.5-0.8
			c-0.2,0.2-0.5,0.3-0.7,0.4c-0.1,0.3-0.1,0.3,0,0.6c0.2,0.6,0.9,1,1.6,1.1c-0.7,0.5-1.8,0.5-2.4,1.1c-0.6-0.2-1-0.9-1.3-1.3
			c-0.7,0-0.6,0.2-1,0.6c0,0.7,0.2,1.2,0.6,1.4c0,0.1-0.1,0.2-0.1,0.2c-0.7,0.2-2.3,0.7-3,0c-0.2-0.3,0.2-0.9,0.5-1.1
			c0-0.7-0.4-1.7-1.1-1.3c-0.8,0.3-0.4,0.9-1,1.3c0,0-0.1,0.1-0.1,0.1c-0.3-0.4-0.8-0.9-1-1.3c-0.1-0.3,0-0.5-0.1-0.7
			c0-0.6-0.1-1.2,0.2-1.4c0.6-0.3,1.9-0.1,2.5,0.1c0.3-0.3,0.5-0.3,0.6-0.8c0,0,0.1-0.1,0.1-0.1c-0.2-0.2-0.4-0.5-0.5-0.7h-2.8
			c0.2-0.9,0.5-2.2,1-2.9v-0.2c0.5,0.2,2.5,1.2,3,0.8c0.1,0,0.2-0.1,0.4-0.1c0.1-0.2,0-0.1,0.1-0.2c0-0.4,0-0.5-0.2-0.7
			c0,0-2-1-2.4-1.2c0.1-1.4,1.2-1.9,1.8-2.9c0.2,0.2,0.4,0.5,0.5,0.7c0.8,0.1,2,0.5,2.5,0.1c0.3-0.1,0.2,0,0.4-0.4
			c0.1-0.1,0-0.3-0.1-0.5c-0.4-0.9-1.5-0.5-2.2-1.1h-0.1c0.4-1.3,2-1.8,2.4-3c1.1,0.3,1.7,0.9,2.9,0.6c-0.2-0.4-0.3-1-0.6-1.3
			c-0.2-0.3-0.6-0.4-0.8-0.7c-0.2-0.2,1.8-2.5,2-3.4c0.4,0.1,1.5,0.3,1.9,0.6c0.6,0,0.8,0,1-0.5c0.1-0.1,0,0,0-0.1
			c-0.1-0.9-1.5-1.4-2.2-1.8c0.1-0.3,0.1-0.4,0.2-0.6c0-1.4,0.8-0.8,1.7-1.3c0.2-0.1,0.3-0.5,0.5-0.6c-0.1-0.4-0.2-0.5-0.2-0.8
			c-0.5-0.1-1.1-0.5-1.4,0h-0.1c-0.1-0.4-0.4-1.2-0.1-1.6c-0.1-2.5,0.4-1.5,1.8-2.3c0.1-0.1,0.2-0.4,0.4-0.5c0-0.6-0.1-0.8-0.2-1.2
			c-0.2,0-0.2,0-0.4-0.1c-0.5,0.1-1.3,0.5-1.7,0.8h-0.1c-0.3-1.5-0.5-2.5-0.5-4.1c1.3,0,1.4-0.4,2-0.8c-0.1-0.6-0.2-0.8-0.5-1.2
			c-0.7,0-1.2,0.3-1.6,0.2c-0.1,0.2-0.1,0.2-0.1,0.5c-0.6-0.7-0.5-1.7-0.7-2.6c0.5-0.4,0.8-1.1,1.3-1.4c-0.1-0.2,0-0.1-0.1-0.2
			c0-0.5,0-0.6-0.5-0.7c-0.5-0.2-1.2,0.5-1.7,0.7c-0.3-0.7-0.5-1.5-1-2c0.2-0.9,1.2-0.8,1.4-1.9l-0.5-0.5c-0.8,0-1.2,0.1-1.6,0.6
			c-1.1-0.1-1.2-1.2-1.8-1.7c0.2-0.6,0.6-1.3,1.1-1.6c0-0.7-0.2-0.9-0.5-1.3c-0.9,0.1-1,0.6-1.6,1.1v0.1c-0.2,0.1-0.2-0.1-0.2-0.1
			c-0.6-0.2-1-0.8-1.4-1.2c0.1-1.2,0.7-1.7,0.1-2.6c-1.1,0-1.2,0.4-1.4,1.2c-0.7-0.1-1-0.6-1.7-0.8c0-1,0.3-2.4-0.2-3.1
			c0-0.1-0.1-0.2-0.1-0.2c-0.3,0-0.5,0-0.7,0.1h-0.2c-0.2,0.8-0.3,1.1-0.4,1.9c-0.9-0.1-1.2-0.7-1.9-1v-2.4c-0.4-0.1-0.6-0.1-1,0.1
			c-0.1,0-0.2,0.1-0.4,0.1c0,0.4-0.1,0.8-0.1,1.2c-0.8-0.1-1.2-0.6-1.9-0.7c0-1.5-0.5-2.1-1.1-3c-0.2-0.1-0.5-0.2-0.7-0.2
			c-0.2,0.2-0.4,0.4-0.6,0.5c0.1,0.7,0.4,0.8,0.5,1.7c-0.7-0.1-1.3-0.5-1.9-0.7c0-0.5,0-0.8,0.2-1.1c-0.1-0.3-0.3-0.6-0.5-0.8
			c-0.1-0.1-0.3-0.2-0.4-0.2c-0.4,0.1-0.5,0.1-0.7,0.2c-0.2,0.4-0.3,1-0.4,1.6c-0.9-0.3-1.9-0.5-2.6-1c-0.2-0.8-0.3-1.4-0.6-1.9
			c-0.6,0.1-0.7,0.2-1.1,0.5v1.6c-1.8-0.5-3.1-0.4-3.6-2.6c-0.8,0-0.8,0.2-1.2,0.5c0,0.5,0,0.9,0.1,1.2l-0.1,0.1
			c-0.4,0-0.6,0-0.8-0.1c-1.3-0.2-1.8-2.7-2.8-1.9h-0.2c0,0.4-0.1,0.7,0,0.8v0.2c-0.3,0-0.3-0.1-0.5,0c-1.4-0.6-0.5-2.3-1.6-2.8
			c-0.2-0.1-0.6,0-0.8-0.1c-0.2,0.3-0.1,0.7,0,1h-0.1c-0.5,0.2-1-0.7-1.4-0.7c0.1-1.5-0.1-3.1,1-4v-0.2c0.3,0.1,0.5,0.9,1,1.2
			c0.1,0.1,0,0,0.2,0.1c0.5-0.8,0.7-1.9,1.6-2.3h1C432,260.7,432.7,260.4,432.9,260.6z M424.3,247.5c-0.3,0.2-0.5,0.7-0.8,1
			c-0.5,0.3-1,0.3-1.6,0.6c-0.2,0.2-0.4,0.4-0.6,0.6c-0.3,0.2-0.9,0.2-1,0.2c-0.2,0.2-0.3,0.4-0.5,0.6c-0.2,0-0.5,0.1-0.7,0.1
			c-0.7,0.5-1.3,1.3-2,1.8c0.1,0.2,0,0.2,0.1,0.4c0.1,0.3,0.3,0.3,0.5,0.5c3.6-0.1,5.4-3.2,7.9-4.8c0.5-0.3,1.1-0.3,1.7-0.6
			c0.5-0.2,1-0.7,1.4-1c0.7-0.3,0.9,0,1.4-0.4c0.1-0.1,0.2-0.2,0.2-0.4c0.7-0.3,1.3-0.1,2.2-0.4c1.3-0.3,2.5-0.6,4.3-0.5
			c0.5,0,1.4,0.3,1.9,0.1c0.2-0.1,0.3-0.2,0.7-0.2l0.1-0.1c-0.1-0.5-0.3-0.6-0.5-1c-1.2-0.1-2.3-0.2-3.5-0.2c-0.6,0.4-1.6,0-2.4,0.2
			c-0.9,0.3-1.6,0.5-2.4,0.7c-0.7,0.2-1.3,0-1.9,0.2c-1.4,0.7-2.4,1.2-3.6,2C425.2,247.1,424.6,247.3,424.3,247.5z M513.5,427.9
			c-1.1-0.5-2.2-0.9-3.5-1.2c-0.8-0.2-1.8,0.1-2.3,0c-0.6-0.1-1.2-0.3-1.8-0.2l-0.1,0.1c-0.1-0.1-0.1-0.4-0.2-0.5
			c-0.6-0.2-1.4,0.3-2,0.1c-1.6-0.4-2.3-0.4-3.6-0.7c-1.4-0.3-3-0.3-4.1-0.5c-0.5,0-1-0.1-1.4-0.1c0-0.1-0.1-0.2-0.1-0.4
			c-0.2,0.2-1.7,0.1-2.4-0.1c-0.4-0.1-0.8-0.4-1.1-0.6c-0.6,0.5-1.3-0.1-1.8-0.2c0,0-1,0.3-1.6,0.1c-0.8-0.2-2.1-0.6-2.6-0.8
			c-0.8-0.1-1.7-0.2-2.5-0.2c-0.6-0.3-2.4-0.6-3.2-0.8c-0.3-0.1-0.5,0.1-0.6,0.1c-0.8-0.2-1.9-0.6-2.8-0.8c-0.3-0.1-0.5,0.1-0.6,0.1
			c-3.9-1-7.9-2-11.6-3.2c-4.9-1.6-8.8-1.9-13.1-3.1c-0.8-0.2-1.8-0.5-2.5-0.7c-0.3,0.1-2.5,0.1-3.1-0.1c-0.6-0.2-1-0.5-1.4-0.2
			c-0.4-0.1,0.1-0.1-0.1-0.4c-0.1-0.1-1.6-0.3-1.7-0.4c-1.3,0-2.3,0.7-2.8,1.6c-0.3,0.5-0.1,0.8-0.5,1.1c-0.9,0.5-2.1-0.9-3.4-1.1
			v-0.4c-0.2,0-0.2,0-0.4,0.1c-0.1-0.1-0.1-0.1-0.1-0.4c-1.2-0.2-2.1-1.1-3.1-1.7c-0.8-0.4-2.2-0.5-2.8-0.8c0-0.1-0.1-0.2-0.1-0.4
			c-0.8-0.4-1.6-0.4-2.3-0.8c-0.2-0.1-0.4-0.5-0.6-0.6c-0.3-0.2-0.7,0-1-0.2c-0.1-0.1-0.1-0.4-0.2-0.5c-0.4-0.3-1.2-0.9-1.6-1.1
			c-0.3-0.2-0.6,0-0.8-0.2c-1.1-0.8-3.6-3.2-4.9-3.5v-0.5c-0.7-0.1-1.1-0.8-1.6-1.2c-2.5-2.5-2.4-4.4-1.4-8.3c0.1-1.3,0.2-2.6,0.4-4
			c0.6-1.8,1-4.5,1.6-6.7c0.2-1,0-1.7,0.2-2.6c0.4-1.7,0.9-3.8,1.4-5.8c0-0.4,0.1-0.8,0.1-1.2c1.5-3.9,3.6-7.4,0.8-11.4
			c-0.8-0.2-2-0.9-2.9-0.7c-3.6,0.6-6.9,2.9-8.3,6.1c-0.1,0-0.2,0.1-0.2,0.1c-0.5-2,1.3-5.4,1-8.2c1.2-0.8,2.8-0.8,4.7-0.8
			c0.8,0,1.1,0.2,1.8,0c0.8-0.2,1.6-1,2.2-1.6c1.6-1.6,2.7-4.7,3.4-7.1c0.4-1.3-0.1-2.5,0.4-3.8c0.3-0.7,0.7-1.5,0.8-2.3
			c0.4-1.8-0.7-4.5-0.2-6.6c0.2-1-0.1-2.5,0.2-3.7c0.4-1.4,0.6-3,1-4.4c0.3-1.1,0-2.3,0.2-3c0.4-1.5,1.1-3.1,1.4-4.4
			c0.1-0.3-0.2-0.8-0.2-0.8c0.5-1.1,1.9-3.6,1.3-4.9c0.9-0.6,2.1-0.5,3.1-1c0.4-0.2,0.9-0.7,1.3-0.8c1.2-0.5,2.4-0.8,3.4-1.3
			c0.5-0.2,1-0.1,1.4-0.4c1.1-0.6,2.3-1.3,3.4-1.9c0.5-0.2,1-0.3,1.4-0.5c0.1-0.1,0.7-0.8,0.7-0.8c0.4-0.3,1.2-0.3,1.7-0.6
			c0.5-0.3,0.8-1.1,1.3-1.4c0.3-0.2,0.6-0.2,0.8-0.4c0.9-0.6,1.7-1.4,2.5-2c0.6-0.5,1.3-0.7,2-1.1c0.7-0.4,1.4-1.2,2-1.7
			c0.5-0.3,1.5-0.8,1.7-1.3c0.2-0.7-0.3-1-0.5-1.3c-0.7-0.1-1.1,0.2-1.8-0.1c-1.9-0.9-4-1.9-6.1-2.6c-0.4,0-0.8-0.1-1.2-0.1
			c-1.8-0.6-4.2-1.5-6-2c-0.1,0-0.2,0.1-0.4,0.1c-0.4-0.1-1.3-0.5-1.7-0.6h-1c-1.1-0.4-2-0.5-3-0.8c-0.4-0.1-1.9,0.1-2.5,0
			c-1.6-0.2-3.6-0.2-5-0.6c-1.6-0.4-3.2,0.1-4.8-0.2c-0.8-0.1-2.3,0.1-3.5,0c-0.1,0.1-0.2,0.2-0.2,0.2c-0.1,0-3.2,0.2-3.4,0.1
			c-1.4-0.3-3.3,0.2-4.4,0.5c-1.6,0.4-3,0.1-4.6,0.5c-0.6,0.2-1.5,0.5-2.2,0.5c-0.3,0-0.8,0.3-1.2,0.4c-0.5,0.1-1.1-0.1-1.6,0
			c-0.4,0.1-1.1,0.5-1.4,0.6c-0.3,0-0.6-0.1-0.8-0.1c-1.7,0.4-4.1,1-6.1,1.7c-0.7,0.2-1.3,0.1-2,0.4c-0.6,0.3-1.5,0.8-2.2,1.1
			c-0.5,0.1-1,0.2-1.6,0.2v0.2c-0.5,0.3-1,0.1-1.4,0.4c0,0-0.5,0.5-0.5,0.5c-0.5,0.3-1.1,0.1-1.7,0.4c-1.9,0.9-3.5,1.8-5.4,2.8
			c-1.3,0.6-2.6,0.9-3.8,1.6c-0.9,0.5-1.9,1.3-2.8,1.7c-0.3,0-0.6,0.1-1,0.1c-0.4,0.2-0.5,0.7-0.8,1c-0.3,0.2-5.2,0.1-6.4-0.2
			c-1.3-0.3-5.6-0.3-7.4,0.1c-0.4,0.1-1.1-0.1-1.3-0.1c-0.7-0.1-2.6,0.3-3,0.6c-0.6-0.5-2.2,0-2.5,0.2h-0.5c1.4-2.3,4.1-4.5,6.1-6.2
			c1-0.8,1.6-2,2.6-2.8c5.8-4.4,11.1-8.6,17.3-12.7c0.9-0.6,1.7-0.7,2.6-1.2c1.9-0.9,4.1-2.1,6-3c1.1-0.5,2.1-0.5,2.8-1.3
			c0.1-0.1,0,0,0.1-0.2c-1.5-0.6-3,0.5-4.1,1c-2.4,1-4.2,1.6-6.1,2.8c-0.4,0.3-1.2,0.2-1.6,0.5c0,0.1-0.1,0.2-0.1,0.4
			c-0.2,0-0.4,0.1-0.6,0.1c-0.2,0.2-0.3,0.4-0.5,0.6c-6.7,4-11.9,8.8-18,13.4c-0.7,0.5-1.3,1.4-1.9,2c-1.2,1.2-2.6,2.3-3.8,3.5
			c-1.1,1.1-1.9,2.4-3,3.5c-0.3,0.3-1.2,0.7-1.6,0.8c-0.5,0.1-0.6-0.2-1.1,0l-0.6,0.6c0,0.6,0.1,1.1,0.4,1.4
			c-0.2,0.5-0.8,0.9-1.2,1.3c-0.3,0.3-0.3,0.7-0.6,1.1c-0.1,0.2-0.5,0.2-0.6,0.4c0,0.2-0.1,0.4-0.1,0.6c-0.1,0.1-0.4,0.1-0.5,0.2
			c-0.8,1.1-1.6,2.1-2.5,3.1c-0.2,0.3-0.2,0.5-0.2,0.7c-2.2,2-3.8,4.8-5.3,7.6c-0.2,0.4-0.8,0.9-1.1,1.3c-0.2,0.3,0,0.7-0.2,1.1
			c-0.1,0-0.2,0.1-0.4,0.1c-0.3,0.4-0.3,1-0.6,1.4c-0.4,0.7-1,1.6-1.4,2.3c-0.1,0.2,0.2,0.3,0,0.6c-1.3,2.4-2.3,5-3.4,7.4
			c0,0.4-0.1,0.7-0.1,1.1c-0.4,1.1-0.9,2.5-1.3,3.2v1.1c-0.2,0.7-0.7,1.6-0.8,2.2c0,0.1,0.1,0.3,0.1,0.5c-0.1,0.5-0.1,1.4-0.4,1.7
			c0.1,0.2,0,0.1,0.1,0.2c0,0,0.1,0.1,0.1,0.1c1.6-4.1,2.4-8.7,4.2-12.6c0.2-0.3,0.7-0.9,0.8-1.2c0.5-0.9,0.7-1.8,1.1-2.8
			c0.3-0.7,1-1.5,1.3-2.2c0.4-0.8,0.4-1.4,0.8-2.3c0.3-0.6,1.1-1.3,1.4-1.9c0-0.2,0.1-0.4,0.1-0.6c0.8-1.1,1.7-2.3,2.5-3.4
			c0.1-0.3,0.2-0.6,0.4-1c0.2-0.1,0.5-0.2,0.7-0.2v-0.6c0,0,0.5-0.4,0.6-0.5c0.7-1.1,1.3-2.2,2.2-3.2l0.5-0.2c0.7-1,1.2-2,2.2-2.8
			v-0.4c0.9-0.3,2.4-2.8,3.6-3.5c0.1-0.1,2.9,0,3.4,0.1c2.2,0.6,3.9,0.6,5.6,1.3c0.4,0.2,1-0.1,1.2,0c0.4,0.1,1.3,0.4,1.7,0.7
			c0.3,0.2,0.3,0.5,0.6,0.7c-0.1,4.3-2.2,7.3-2.3,12.1c0,1-0.9,3.3-0.5,4v0.2c0.5,0.1,1,0.2,1.3-0.1c0.7-0.3,0.6-1.2,1-1.8
			c0.5-0.8,1.5-1.2,2-1.9c0.4-0.5,0.6-0.9,1-1.4c1.1-1.4,2.6-2.8,4-4c0.5-0.4,1-1.4,1.6-1.8c0.2-0.2,0.5-0.1,0.7-0.2
			c0.4-0.4,0.6-1.2,1.1-1.4c0.2,0,0.5-0.1,0.7-0.1c0.3-0.2,0.3-0.8,0.6-1h0.5l0.2-0.5c0.4-0.3,1-0.4,1.4-0.7
			c0.2-0.2,0.5-0.7,0.7-0.8c0.4-0.2,0.9-0.1,1.2-0.2c0.1,0.1,0.1,0.2,0.2,0.4c0.6,0.3,3-0.6,4-0.5c1.2,0.2,3.6,0.1,4.8,0.4h1.7
			c0.7,0.3,1.7,0.6,2.3,0.7c1.3,0.3,4.1,0,5,0.6h0.2c0,2.6-0.3,6.4-0.7,8.6c-0.1,0.4,0.2,0.8,0.1,1.2c-0.1,0-0.2,0.1-0.2,0.1
			c-0.1,0.4-0.1,1.3-0.1,1.6v4.6c-0.1,0.3-0.3,1-0.4,1.3c0,0.9-0.1,1.8-0.1,2.8c-0.1,0.2-0.4,0.4-0.5,0.6c-0.4,1.1-0.1,1.6-0.5,2.8
			c-0.4,1.3-0.8,3.3-1.2,5c-0.3,1.1,0.3,2.1,0.1,3.1c-0.3,2.2,0,5.4-0.4,7.8c-0.1,0.4,0.1,1.6,0,1.9c0.5,1.6,3.6,1.2,5,1.7
			c1,0.3,1.8,1.1,2.6,1.6c-0.5,2.5-1,5.1-1.7,7.4c-0.2,0.8-0.2,1.9-0.4,2.5c0,0.3,0.1,0.6,0.1,0.8c-0.4,1.9-1.4,4.4-1.8,6.2
			c0,0.3,0.1,0.6,0.1,0.8c-0.7,2.6-1,5-1.9,7.4c-0.5,1.4-0.1,2.4-0.5,3.7c-0.3,1.1-0.3,2.3-0.7,3.6c-0.1,0.5-0.6,1.5-0.6,2
			c0,1.3-0.5,3.2-1,4.2c-0.8-0.1-1.4-0.3-1.9-0.6c-0.4,0.2-2.8-0.6-3.4-0.8c-0.2-0.1-0.4-0.4-0.6-0.5c-1.2-0.4-3.3-0.4-4.1-0.1
			c-0.4,0.1-1.8-0.1-2.2,0h-1.6c-1.5,0.4-3.2,1.2-4,2.4c-0.2,0.4-0.2,0.7-0.5,1.1c-0.3,0.5-1.1,0.7-0.8,1.8c0.2,0.9,0.1,1-0.1,1.6
			c-0.2,0.7,0.2,1.1,0.2,1.7c0.7,0.2,0.4,0.6,1,0.8c-0.4,1.3-4.3,1.4-5.5,2.3c-0.1,0.1-0.1,0.1-0.1,0.4c-1.4,0.2-3.1,3.9-2.2,5.2
			c0,1.6,1.3,1.8,2.3,2.5c0.2,0.2,0.4,0.7,0.6,0.8c0.3,0.2,0.7,0,1,0.2c0.1,0.1,0.1,0.4,0.2,0.5c0.4,0.2,0.7,0.1,1.1,0.4
			c0.5,0.3,0.9,0.8,1.4,1.1c-0.4,1.6-2.5,2.1-3.4,3.2c-0.6,0.8-0.9,3.3-0.5,4.2c0.1,0.3,0.4,0.3,0.5,0.8h0.5c0,0.3,0.1,0.6,0.1,0.8
			c0.6,0,0.4,0.1,0.7,0.4c0.1,0.1,0.1,0.1,0.1,0.4h0.4c0.1,0.2,0,0.2,0.1,0.4c0,0.1,0.1,0.2,0.1,0.4h0.5c0.1,0.7,0.1,0.3,0.2,0.7
			c0.1,0.1-0.2,0.2-0.2,0.6c-1.5,0.1-4.4,1.8-4.7,3c-0.2,0.3,0,0.5,0,1c-0.1,1.5,0.5,2.6,1.3,3.5c0.1,0.1,0.1,0.1,0.4,0.1
			c0,0.8,0.9,1.7,1.4,1.9v0.5h0.4c0.1,0.6,1.8,2.3,2.3,2.6v0.4c0.3,0.1,1.6,1.4,1.9,1.7c0,0.2,0.1,0.3,0.1,0.5h0.5
			c0.3,0.3-0.2,0.4,0,0.7c0.1,0.2,0.5,0,0.5,0c0.1,0.1,1.3,1.7,1.3,1.7h0.4c0.1,0.6,0.3,0.5,0.7,0.8c0.1,0.1,0.1,0.1,0.1,0.4
			c0.3,0,0.6,0.1,0.8,0.1c0.2,1,1,1.2,1.7,1.6v0.4c0.3,0,0.3,0,0.5,0.1h0.2v0.5h0.4c0.1,0.7,0.3,0.3,0.5,0.6
			c0.1,0.2-0.2,2.9-0.2,3.1c-0.8,2-1.2,4.6-1.8,6.8c0,0.4,0.1,0.8,0.1,1.2c-0.5,2.1,0.4,3.2,0.2,4.9h0.4c-0.2,0.5,0,0.5,0,1.1h0.4
			c0.1,0.5,0.3,0.5,0.4,1.1c0.5,0.1,0.4,0.3,0.7,0.5c0,0,0.1-0.1,0.1-0.1c0.9,0.1,1.4,0.6,2,0.8c0.2,0,0.4-0.1,0.6-0.1v0.2
			c0.2,0,0.4-0.1,0.6-0.1c0.1,0,0.2,0.2,0.4,0.2c0.2,0,0.5-0.1,0.7-0.1v0.2c0,0,2.1,0.3,2.3,0.2c0-0.1,0.1-0.2,0.1-0.2
			c0.2-0.1,0.1,0.1,0.1,0.2l0.8-0.1c0.6-0.3,1.2-1,2-1.1v-0.4h0.5v-0.4c0.8-0.2,2.7-3,3.2-4c0.4-0.7,0.3-1.6,0.7-2.4
			c0.1-0.2,0.5-0.5,0.6-0.7c0.2-0.4,0-0.8,0.2-1.2c0.1,0,0.2-0.1,0.4-0.1c0-0.2-0.1-0.3-0.1-0.5c0.1-0.3,0.6-0.7,0.7-1.1
			c0.5-1.5,0.8-3.2,1.3-4.6c0.2-0.6,0.1-1.9,0.2-2.3c0.2-0.6,0.6-1.9,1-2.6c0.2-0.5-0.1-1,0-1.3h0.2c0-0.7,0.1-1.4,0.1-2.2
			c0.1-0.4,0.4-0.7,0.4-1.3c0.4,0,1.1,0.3,1.6,0.2c1.4-0.1,4.2,0,6.4,0h2.6c2.4-0.5,4.8-0.8,7.1-1.3c1.2-0.3,2.7-0.1,3.8-0.4
			c1.8-0.4,3.7-0.1,5.4-0.5h2.8c0,0.7-0.1,1.8,0,2.2c0.1,0.4,0.5,0.7,0.6,1.3c0.7,0,1.3,0.5,2,0.4l0.1-0.1c0.1,0.1,0.2,0.2,0.2,0.4
			c0.8,0,1.7,0.1,2.5,0.1c1.2,0.2,3.2,0.2,4.8,0.6c2.6,0.7,5.3,1.5,7.8,2.3c1.3,0.4,2.6,0.6,3.2,0.8c1.5,0.3,3,0.6,4.6,0.8
			c2.1,0.7,4.3,0.9,6.5,1.6c1.7,0.5,3.5,1.2,5.2,1.7c1.3,0.4,2.7,0.1,4.1,0.5c1.4,0.4,3,1.1,4.4,1.4c0.8,0.1,1.6,0.2,2.4,0.2
			c1.6,0.4,3.5,0.8,5,1.2c1.2,0.1,2.3,0.2,3.5,0.4c1.7,0.4,3.7,0.6,5.4,1h2c0.9,0.2,2.8,0.6,3.7,0.6c0.8,0,3.2,0.1,4.2,0.4
			c1,0.3,5.2,1.5,6.1,1.1c0.8-0.1,1.6-1.3,0.7-1.8c-0.6-0.4-3.4-0.2-4.3-0.5c-3.1-0.8-6.5-0.8-9.8-1.6h-1.8
			c-0.7-0.2-1.7-0.3-2.4-0.5c-1.3-0.3-2.2-0.1-3.5-0.4c-3-0.7-6.2-1.1-9-1.8c-0.6,0-1.2-0.1-1.8-0.1c-1.4-0.3-2.8-0.9-4-1.3
			c-1.6-0.2-3.2-0.4-4.8-0.6c-1.8-0.5-3.8-1.3-5.9-1.9c-0.6-0.1-1.1-0.2-1.7-0.2c-1.6-0.5-3.7-1-5.3-1.4c-0.6,0-1.1-0.1-1.7-0.1
			c-1.6-0.5-3.4-0.8-5-1.3c-1.1-0.4-2.4-1-3.5-1.3c-2.1-0.7-4.4-0.8-6.6-1.3c-0.9-0.2-2.1,0.2-2.8-0.2c-0.5,0-0.6-0.1-1-0.2v-0.2
			c2.3-1.3,4-4.3,5.4-6.6c0.4-0.7,1.2-1.2,1.7-2c0.6-1,0.8-2.1,1.4-3.1c0.1,0,0.2,0.1,0.2,0.1c0.3-0.3,0-0.3,0.2-0.6h0.1
			c0.2-0.3,0.1-0.5,0.2-0.8c0.5-0.9,1.2-1.9,1.7-2.8c0.8-1.7,1.1-3.2,1.9-4.7c0-0.3,0.1-0.6,0.1-1c0.4-0.8,1.1-1.8,1.4-2.6
			c0.4-0.9,0.4-2.3,0.6-3c0.1,0,0.2-0.1,0.2-0.1c0-0.2-0.1-0.5-0.1-0.7c0.3-0.6,0.8-1.6,1-2.2c0-0.3-0.1-0.6-0.1-0.8
			c0.1-0.3,0.4-0.9,0.5-1.2c0.4,0,0.8,0,1,0.1c0.3,0.1,0.5,0.4,0.6,0.7c0.2,0.4,0,1.5,0,2c0.3,0,0.4,0,0.6,0.1
			c0.5-0.1,0.4-0.2,0.7-0.4c0.2-0.8,0.4-1.4,0.5-2c1.2,0,1.3,0.2,2.3,0.4c0,0.4-0.2,0.7,0,1c0,0.5,0.1,0.6,0.2,1
			c0.4,0,0.5,0.1,0.7,0c0.5-0.1,1-1,1.2-1.4c0.6,0,1.1-0.2,1.6,0.1h0.2c0,0.8-0.3,1.6,0.1,2c0.2,0.2,0.3,0,0.6,0.2
			c0.8-0.1,1.3-0.8,1.4-1.6c0.3-0.1,0.8-0.2,1-0.1c0.8,0,0.7,0.2,1.2,0.5c0,0.6,0.1,1.2-0.2,1.6c0.1,0.4,0.1,0.4,0.4,0.8
			c0.4,0,0.8,0,1-0.1c0.9-0.3,0.6-1.1,1.2-1.7c0.7-0.3,2.1,0.5,2.8,0.4v0.2c0.2,0.1-0.5,1.3-0.6,1.6c0.1,0.3,0.2,0.6,0.2,1
			c0.3-0.1,0.1-0.1,0.4,0c1.1,0,1.7-1,2-1.8c0.2-0.1,0.5-0.1,0.7-0.2c0.6,0.1,1.1,0.5,1.6,0.7c-0.1,1-0.5,1.4-0.5,2.6
			c0.5,0.1,0.7,0.3,1.2,0c0.5-0.1,1.2-1.5,1.3-1.9c0.3,0,0.6,0,0.7,0.1c0.4,0,0.7,0,1,0.1c0,0.8-0.5,1.9-0.2,2.3v0.5
			c0.3,0.1,0.6,0.1,1.1,0.1c0.7-0.8,1-1.3,1.6-2.3c0.7,0,1.1,0.2,1.7,0.2c0,0.4,0.1,0.9,0.1,1.3c-0.1,0.2-0.6,0.2-0.5,0.7v0.1
			c0.1,0.2,0.3,0.4,0.4,0.8c0.2,0,0.2,0,0.4-0.1c1.2,0,1.7-1.1,2.2-1.8c0.9-0.2,1.1-0.3,2.3-0.2c0.1,0.7,0.5,1.3,0,2
			c0,0.7,0.2,0.7,0.4,1.2c0.7,0,1,0,1.3-0.4c0.3-0.4,0.5-1.2,0.6-1.8c0.4-0.1,0.4-0.3,0.6-0.4c0.5-0.1,1.4,0.6,1.9,0.7
			c-0.2,0.7-0.4,1.3-0.4,2.3c0.5,0,1,0.1,1.2,0c0.7-0.3,0.6-1.4,1.3-1.7v-0.5c1.2,0,1.7,0.4,2.6,0.5c-0.2,0.7,0.3,0.7,0.1,1.3
			c-0.1,0.5-0.4,1.1-0.5,1.7c0.8,0,1,0,1.8-0.4c0.2-0.7,0.4-1.2,0.5-1.9h0.4v-0.4l0.1,0.1c1,0,1.2,0.2,1.7,0.6c-0.1,0.1,0,0-0.2,0.1
			c0.1,0.4,0.4,1,0.1,1.4c0.1,0.5,0.2,0.6,0.4,1c0.3,0,0.5,0,0.7-0.1c0.6-0.3,1-1.1,1.1-1.9h0.4v-0.4c0.2,0.1,1,0.4,1.1,0.4
			c0.1,0,0.3-0.3,0.7-0.2c0.4,0.1,0.7,0.3,1.2,0.4c0,1.2-0.1,1.9,0,2.8c0.3,0,0.7,0,0.8-0.1c0.7-0.2,1.7-1.4,1.9-2
			c0.6-0.1,0.9-0.2,1.3,0.1c0.3,0.5,0,1.8-0.1,2.5c0.1,0.1,0,0,0.1,0.2c0.3,0.1,0.4,0.1,0.6,0.2c1,0,1.9-1.9,2-2.8
			c0.6,0,1.3,0.1,1.9,0.1c-0.1,1,0,1,0.1,2l0.1,0.1c1.8,0.1,1.1-0.4,1.8-0.8c0.4-0.2,0.3,0.3,0.5-0.2c1.3,0.1,2.6,0.3,3.6,0.2
			C513.5,428.5,513.5,428.6,513.5,427.9z M354.1,322v0.2h-0.1c0-0.3,0.1-0.3,0.1-0.5h0.1C354.2,322,354.1,321.9,354.1,322z
			 M360.7,313.3c-0.2-0.3-0.7-1.4-1-1.9c-0.2-0.1-0.1,0-0.2-0.1c-0.5,0-0.5,0.1-0.8,0.2c-0.1,0.6-0.5,1.4,0,1.9
			c0,0.6,0.1,0.8,0.2,1.1c0.8,0,1.2,0.1,1.3-0.6c0.1,0,0.2-0.1,0.4-0.1c0.1,0.4,0.3,1,0.1,1.3v0.7c-0.3-0.1-0.7-0.6-0.8-1
			c-0.8,0-0.9,0.1-1.3,0.4c0,0.6,0,1.1,0.1,1.2v0.2c-0.4-0.1-0.8-0.4-1.2-0.1c-1.1,0.3-0.5,1.5-0.8,2.4c-0.1,0.3-0.4,0.4-0.5,0.7
			c-0.4,0.1-0.3,0.1-0.7,0c-0.2,0.5-0.4,0.7-0.4,1.4c-0.4,0.2-0.6,0.4-1,0.6c0,0-0.1-0.1-0.1-0.1c0.4-1.6,1-3.4,1.4-4.8v-1.4
			c0.2-0.7,0.9-1.6,0.5-2.3c0-0.3,0-0.5-0.1-0.7c-1.7-1.2-4.4-1.5-6.2-2c-1.5-0.5-3.9-0.1-4.8-0.8h-0.1c0.8-0.6,3.8-0.7,5-1
			c0.8-0.2,2,0.2,2.6-0.1c1.3,0,2.2,0.2,3.4,0.1c0.7,0,1.6-0.1,2.2,0c0.7,0.1,1.8-0.1,2.4,0.2h1.1c-0.4,1.5,0,1.6,0.1,3
			c0.3,0.1,0.5,0.2,0.7,0.4C361.7,312.4,361.1,312.6,360.7,313.3z M417.5,365.6h0.5c0.2,2.7-1.2,6.2-2.2,8c-0.5,0.1-1.2,0.3-1.8,0.4
			l-0.1-0.1c0-2.1,0.8-5.6,1.8-6.7C416.2,366.6,417,366.2,417.5,365.6z M425.4,309.8h-0.2c-0.3-0.5-0.6-0.8-0.7-1.6
			c0.5,0.4,0.5,1.1,1,1.4V309.8z M425.5,310.4c0.2,0.1,0.1,0,0.2,0.1C425.5,310.4,425.6,310.5,425.5,310.4z M364.3,315H364v-0.2h0.2
			V315z M381.1,308.9c0-0.1,0.1-0.2,0.1-0.4c0.1,0.1,0.1,0.1,0.1,0.4H381.1z M386.7,308.3c-0.6,0-0.8,0.1-1.1,0.2
			c-0.1,0.5-0.3,1.3,0,1.7v0.2c-0.1,0-1.5-0.1-1.7,0c-0.4-0.3-0.7-1.7-1-2.2h-0.4c0.1-0.6,0.1-1.2-0.2-1.7c-0.1-0.3-0.1-0.3-0.2-0.5
			c-0.8,0-0.9,0.2-1.3,0.5c0.1,0.5,0.2,1,0.4,1.6c-0.3-0.1-0.7-0.4-1-0.6c-0.6,0-0.8,0-1,0.5c-0.1,0.2,0,0.4,0,0.8
			c-0.2,0-0.2,0-0.4-0.1c-0.6-0.3-0.2-0.6-0.5-1.1c-0.1-0.2-0.5-0.3-0.7-0.5c-0.3,0-0.4,0-0.6,0.1c-0.3,0.2-0.4,0.6-0.6,0.8
			c-0.2,0.1-0.4,0.1-0.6-0.1c0,0,0.1-1.6-0.2-2c-0.3-0.4-0.6-0.5-1-0.8c-1.3,0.1-1.1,2.1-0.7,2.6c0,0.7-0.2,0.6-0.4,1.1
			c-0.5,0.1-0.6,0.1-1,0c-0.1,0.3-0.2,0.3-0.2,0.7c-0.4-0.5-0.2-1.4-0.5-1.9c-0.2-0.4-0.5-0.6-0.7-1c-0.6,0.1-0.8,0.3-1.2,0.5
			c-0.1,0.4-0.2,1.2,0,1.6c-0.2,1.4-1.8,0-1.9,2c-0.4-0.1-0.7-0.2-1.1-0.2c-0.1,0-0.4,0.4-0.5,0.4c-0.5-0.2-0.8-0.7-1.3-0.2
			c-1.1,0.1-0.8,1-1.3,1.6v0.1c-0.4-0.2-0.4-0.3-1-0.4c-0.1-1,0.3-2.2-0.5-3v-0.2c1,0,3.4,0.8,4,0.6c1.1-0.4,0.5-1,0.8-1.4
			c0.3-0.4,1.3-0.4,1.8-0.7c0.7-0.4,1.4-1.3,2.2-1.7c0.6-0.2,1-0.1,1.4-0.4c0.1,0,0.1-0.3,0.2-0.4c1.1-0.5,2.1-0.6,3.2-1.1
			c0.5-0.2,1.1-0.8,1.6-1.1c1.6-0.8,3.7-1.6,5.3-2.3c3-1.2,5.8-1.8,8.8-2.8c0.6,0,1.1-0.1,1.7-0.1c0.4-0.1,1.1-0.4,1.4-0.5
			c0.2,0,0.5,0.1,0.7,0.1c1.2-0.4,2.4-0.6,3.8-1c6.6-1.5,18-2.7,25.2-1.4c2.5,0.4,4,0.1,6.2,0.7c0.5,0.1,0.8-0.1,1.1,0
			c3.3,1,6.9,2,10.1,3c0.8,0.3,1.9,0.1,2.6,0.5c0.1,0.2,0.2,0.3,0.4,0.5c0.4,0.3,0.6,0.2,1,0.2c-0.3,0.4-1.2,0.3-1.8,0.5
			c-1.2,0.3-2.3,0.9-3.4,1.3c-0.2,0.5-0.7,1.5-0.4,2c0,0.1,0.1,0.2,0.1,0.4c1.9,0,1.1-0.5,2-1.1c0.5-0.3,1.3-0.5,1.9-0.7
			c1-0.3,1.9,0,2.4-0.4h0.6v0.2c-1.4,1.1-3.2,2.3-4.7,3.2c-0.3,0.1-0.6,0.2-1,0.4c-0.5,0.3-0.8,1-1.2,1.3c-0.5,0.3-1,0.7-1.4,1
			c-0.8,0.5-2.4,0.8-3,1.4c-0.5-0.2-0.8-0.8-1-1.3c-0.3-0.1-0.6-0.2-0.8,0c-0.5,0.2-0.6,0.4-0.6,1c-0.3-0.2-0.8-0.5-1.1-0.7
			c-0.8,0-0.7,0.2-1.1,0.5v0.7h-0.4c-0.1-0.7-0.4-1.8-0.8-2.2c-0.2-0.2-0.8-0.4-1.1-0.1c-0.6,0.3-0.6,1.5-0.6,2.5
			c-0.5,0.2-0.5,0.3-1.1,0.2c0-0.7,0.1-1.2-0.1-1.6c0-0.7-0.6-1.4-1.2-1.1c-0.1-0.2-0.1-0.6-0.2-0.8c-0.2-0.2-0.5-0.4-0.7-0.6
			c-0.6,0-0.7,0.1-1.1,0.2c0,0.5,0,0.6-0.1,0.8v0.2c-0.3-0.1-0.5-0.2-0.7-0.4c-1.3,0.1-0.6,0.7-1,1.4c-0.1,0.2-0.8,0.6-1,0.7
			c0,0-0.1,0.1-0.1,0.1c-0.1-0.8,0.2-1.1,0.2-1.9c0.2,0.1,0.3,0.1,0.6,0.1c0,0,0.1-0.1,0.1-0.1c0-0.8,0-1,0-1.6
			c-0.4-0.4-0.3-0.6-1.1-0.6c0-0.4,0-1,0.2-1.3c-0.1-0.3-0.5-0.7-1-1c-0.2-0.1-0.1,0-0.4-0.1c-0.4,0.2-0.5,0.5-0.8,0.7
			c0,0.5,0.1,1,0.4,1.3c-0.1,0.2,0,0.1-0.1,0.2c-0.1,0.1-0.7-0.2-1.1,0c-0.1,0-1.4,0.7-1.4,0.7c-1.1,0.4-0.4,1.2-0.8,2v0.2h-0.1
			c-0.1-0.1-0.2-0.2-0.2-0.2c0.1-0.5,0.2-0.4-0.1-0.7c0.1-0.6,0.4-0.5,0.6-1c0.2-0.3,0.3-1,0-1.3c-0.3-0.6-1.8-0.6-2.3-1
			c-0.6,0.1-0.7,0.2-1.1,0.5c0.1,0.6,0.4,1.1,0.5,1.6c0.2,0.7-0.4,0.9-0.2,1.4l0.5,0.5c0.2,0.6-0.1,1.6,0.4,2.4
			c-0.7,0.2-1.5,0.3-2,0.7c-0.3,0-0.4-0.1-0.6-0.1c-0.1-0.4-0.5-1-0.4-1.4c0.1-0.4,0.6-0.7,0.5-1.3c-0.1-0.3-0.5-0.6-0.7-0.8
			c-1,0-0.9,0.5-1.4,0.7c-0.3,0-0.6-0.1-0.8-0.1c-0.5,0.1-1.9,0.4-2.3,0.5c-1.1,0.2-2.1-0.2-2.8,0.1c-0.2,0-0.2,0-0.4-0.1h-0.1
			c0.4-0.7,2.8-1.6,3.6-1.8c1.2-0.4,2.5,0,3.2-0.7c0.1-0.2,0.1-0.4-0.1-0.6c-0.4-0.7-3.4-0.4-4,0c-0.3,0-0.3,0-0.5-0.1
			c-0.2-0.4-0.1-1-0.5-1.7c-0.1-0.1-0.4-0.1-0.5-0.2c-0.4,0.1-0.4,0.1-0.7,0.2c0,1.1,0.2,1.6,0.4,2.4c-0.6,0.1-1,0.4-1.4,0.6
			c-0.3-0.4-0.7-0.8-0.8-1.2c0-0.4-0.1-0.8-0.1-1.2c-0.2-0.3-0.4-0.6-0.6-0.8c-0.2-0.1-0.1,0-0.2-0.1c-0.7,0-0.7,0.2-1.1,0.5
			c0,1.3,0.4,3.1,1,4.3c-0.3-0.1-0.2-0.1-0.6,0l-0.4-0.4c0-0.4,0-0.8,0.1-1c-0.1-0.8-0.6-1-1.1-1.4c-0.5,0.1-0.6,0.3-1,0.5
			c0.2,1.3-0.5,2.6,0,3.4v0.2c-0.8-0.1-0.3-1.2-1.1-1.6c-0.2-0.1-1.7-0.2-2.4-0.2l-0.5,0.5v0.1c-0.1-0.1-0.1-0.1-0.1-0.4
			c-0.3,0-0.3,0-0.5-0.1c-1,0-1.3,0.6-1.3,1.4c-0.2-0.1-0.2-0.2-0.6-0.2c0.2-0.3,0.3-0.2,0.5-0.6c0.1-0.2,0.1-1.2-0.1-1.4
			c-0.1-0.3-0.2-0.3-0.4-0.6c-0.4,0-0.4-0.1-0.6,0h-0.4c-0.2,1-0.1,2.2,0.8,2.4c-0.1,0.3-0.2,0.2-0.7,0.2c-0.1,0.4-0.4,0.8-0.2,1.1
			v0.1c-0.7-0.4-1.2-0.8-1.7-1.4c-0.7,0-1.1,0.1-1.2,0.7C387.1,308.8,386.9,308.6,386.7,308.3z M421.1,305.6v0.1
			c0,0-0.1,0.1-0.1,0.1c-0.3-0.1-0.2,0-0.4-0.2C420.6,305.6,421.1,305.6,421.1,305.6z M418.7,319.3c0.1,1.4-0.3,2.2-0.6,3.2v2.2
			c0,1-0.2,2.2-0.5,3.1c-0.7,2.2-2,4.3-2.9,6.5c-0.5,1.1-0.2,4-0.8,4.8c-0.1,0.1-0.5,0-0.7-0.1h-1.8c0.2-0.7,0.7-1.3,1-1.9
			c0.6-1.4,0.8-3.4,1.2-4.8v-1c0.3-0.9,0.5-1.9,0.7-2.9c0-0.1-0.2-0.2-0.1-0.5c0.4-0.8,0.9-3.7,0.7-4.6c-0.3-1.8,1.3-5.5,0.5-6.2
			c0.1-0.3,0.3-0.3,0.5-0.5c0.7,0,1.6,0,1.9,0.1h1.4c0.1,0.5,0,1.3-0.2,1.7C418.9,319.1,419,319.2,418.7,319.3z M407.2,330.4
			c-0.3,1-0.6,1.9-1,2.9c-0.1,0.7-0.2,1.4-0.4,2.2c-0.2,0.6-0.6,1-0.6,1.8c-1.2,0-3,0.2-4-0.1c0-1.9-0.3-4.2,0.1-5.9
			c0.2-0.6,0.2-1.5,0.5-2.2c0.2-0.4,0.6-0.8,0.7-1.2c0.1-1.1,0.2-2.2,0.4-3.4c0.3-0.8,0.4-2.4,0.6-3.4c0.3-1.1,0.7-2.8,0.7-4.1
			l0.1-0.1c0.7,0,3.7-0.1,3.8,0c0.6,0,1,0.1,1.3,0.2c-0.9,1.5-0.5,2.2-1,4.1c-0.7,2.5-0.9,5.6-1.4,7.7
			C407.1,329.5,407.4,329.8,407.2,330.4z M392.8,320.6c0.6-0.8-0.1-2.9,0.4-4c0.1-0.2,0.4-0.5,0.5-0.7c1,0,3.4,0.2,4.3,0.7
			c-0.4,3.1-1.2,7-1.9,10.2c-0.5,2.1-0.2,4.5-0.7,6.6c-0.2,0.8-0.6,1.5-0.6,2.5c-1.1-0.1-2.2-0.2-3.4-0.2c0-1.1,0.1-2.4,0.4-3.5
			c0.1-2,0.2-4.1,0.4-6.1c0.4-1.2,0.6-2.9,1-4.6C393.2,321,392.9,320.8,392.8,320.6z M394,311.1c0.1-0.4,0.2-0.9,0.2-1.3
			c0.5,0.1,0.7,0.2,1.1,0.4v0.2c-0.3,0.2-0.8,0.4-1.1,0.7H394z M385.5,395.9c0.1-0.6,0.6-1.8,0.4-2.2c0,0,0-0.5,0.1-0.2
			c0,0,0.1,0.1,0.1,0.1c0.4-1.1,0.4-2.8,1-4c0.3-0.6-0.1-2.1,0.1-3c1.6-6.2,2.6-12.2,4-18.2c0.6-2.7,0.6-4.5,1.6-6.7
			c0.2-0.4,0.1-1.8-0.1-2.2c-0.2-0.8-3-2-3.8-2.3c-1.1-0.4-1.9,0.1-2.9-0.5h-0.2c-0.3-1.3-0.4-3-0.2-4.4c-0.2-0.5-0.2-3.9,0-5
			c0.1-0.5,0.2-4.4,0.1-4.7c0.6-1.1,0.5-2.8,1-4.1c0.2-0.6,0.8-1,1-1.4c0-0.7,0.1-1.4,0.1-2c0.4-1.6,0.5-3.1,0.5-4.9v-3
			c0.5-1.2,0.1-3,0.5-4.4c0.3-1.1,0.3-2.3,0.4-3.5V317c0.1-0.4,0.2-0.7,0.2-1.2l0.1-0.1c0.9,0,1.7,0.2,2.3,0c0,0,0.1,0.1,0.1,0.1
			c0,1-0.3,2.3-0.5,2.9c-0.2,0.8,0.1,1.7,0.1,2c-0.1,1.6-0.8,3.9-1.2,5.4c-0.1,0.4,0.2,0.5,0.2,0.7c0,0.3,0,1.6-0.1,2
			c-0.2,0.9-0.1,2.3-0.4,3.2v1.9c-0.2,0.7-0.4,1.5-0.4,2.4c0.2,0.2,0.4,0.5,0.6,0.7c0.7,0.2,4.6,1,5.4,0.5c1-0.4,0.9-1.5,1.2-2.5
			c0.5-1.7,0.7-4.2,1.1-6c0.2-0.8-0.1-1.5,0.2-2c0.1-0.6,0.1-0.4,0.7-0.4c0.2-1.4,0.1-4.2,0.6-5.8c0.4-1.3,1.2-2.8,1.2-4.3
			c0.6,0,1.1,0.1,1.4,0.4h0.2c0,2-0.4,3.5-0.7,5.4c0,0.2,0.1,0.4,0.1,0.6c-0.1,0-0.2,0.1-0.4,0.1c0,0.2,0.1,0.3,0.1,0.5L401,324
			l-0.2,3c0,0.2,0.2,0.3,0.1,0.6c-0.1,0.3-0.5,0.7-0.6,1c-0.3,0.8-0.4,1.7-0.6,2.5c-0.4,1.5-0.4,6.7,0.2,7.7
			c0.7,0.2,5.6,0.7,6.2,0.4c1.2-0.4,1.6-4.6,2-6c0.5-1.7,1.1-3.5,1.6-5c0.4-1.2,0-3.3,0.4-4.2c0.1-0.3,0.5-0.5,0.6-1
			c0-0.4-0.1-0.8-0.1-1.2c0.1-0.1,0.2-0.2,0.4-0.2c0-0.2-0.1-0.4-0.1-0.6c0.2-0.7,0.6-3.3,1-3.8c0.2-0.3,0.6-0.3,1-0.5
			c0.2,0.3,0.4,0.3,0.7,0.5c0,1.8-0.2,3.8-0.6,4.9c0,0.4,0.1,0.8,0.1,1.2c-0.2,1.3-0.5,3.1-0.8,4.2v1.3c-0.1,0.3-0.4,0.6-0.5,0.8
			c0,0.3,0.1,0.6,0.1,0.8c-0.3,1-0.3,2.5-0.6,3.6c-0.5,1.8-1.1,3-1.7,4.4c-0.2,0.4-0.4,1.1-0.1,1.6c0.3,0.8,5.1,1.4,5.6,1
			c1.3-1.1,0.7-4.5,1.4-6.2c0.1-0.4,0.5-1.3,0.8-1.6c0.2-0.1,0.4,0,0.5-0.1c0.5-0.6,1.1-2.5,1.3-3.2c0.2-0.5,0-1.1,0.1-1.4
			c0.2-0.7,0.6-1.4,0.8-2.3c0.2-0.6-0.3-1.3-0.1-1.8c0-0.1,0.4-0.5,0.4-0.6c0-0.3-0.3-0.5-0.2-0.8c0.1-0.5,0.5-1.1,0.6-1.6
			c0.2-0.6,0-1.7,0.1-1.9c0.2-0.5,1.1-1.5,0.7-2.2c0-0.3,0.1-0.4,0.1-0.6h1.1c0,3-0.9,5.3-1.6,7.7c-0.4,1.7-0.6,2.8-1,4.2
			c0,0.6-0.1,1.2-0.1,1.8c-0.2,0.6-0.8,2.5-0.7,3.4c0.1,1.2,0.1,2.8-0.1,4c-0.4,1.7,0.1,4-0.2,5.4c-0.1,0.5,0.1,1.1-0.1,1.4v0.6
			c-0.8,0.2-1.8,0.3-2.4,0.6c0.1,0.6,0.4,0.9,0.6,1.3c0.4,0,1,0,1.2-0.1h0.2c0,0.3,0,0.4-0.1,0.6c0,0.4,0,0.7-0.1,1
			c-0.6,0.1-1.5,0.1-1.8,0.2c-0.3,0.1-0.4,0.2-0.6,0.4c0,1,1.1,2,1.8,1.6h0.2c-0.1,0.9-0.4,1.5-0.6,2.2c-0.4,0-1.6-0.2-2,0.1
			c-0.4,0.2-0.4,0.7-0.1,1.1c0.3,0.5,0.7,0.5,1.4,0.5c-0.4,0.7-0.9,1.3-1.4,1.8v0.1c-0.2-0.1-1.5-1.5-1.8-1.8
			c-0.6,0-0.7,0.1-1.1,0.2c-0.1,0.2,0,0.1-0.1,0.2c0,0.9,0.5,1.5,1,2c-0.5,0.4-2.2,0.7-2.6,0.4c-0.1-0.3,0-0.9-0.1-1.2
			c0-0.5-0.1-0.5-0.2-0.8c-0.3,0-0.3,0-0.5-0.1c-0.6,0-0.8,0.1-1.1,0.2c-0.1,0.5-0.1,1.4,0.2,1.9c-0.2,0.2-0.4,0.3-0.6,0.5
			c-1.5-0.2-1.3-1.8-3.2-0.6c0,1.1,0.7,1.5,1.4,1.7c0,0.4-0.1,0.9-0.1,1.3h-0.1c-0.8,0.6-2.1-0.5-2.8-0.2c-0.4,0-0.4,0.1-0.7,0.2
			c0,0.8,0.2,0.9,0.5,1.3c1.1,0.3,1.5,0.5,2.9,0.5v0.7c0,0-0.1,0.1-0.1,0.1c-1,0.4-1.1-0.3-2.2,0c-0.2,0.1-0.4,0.2-0.7,0.2
			c0,0.3-0.1,0.5-0.2,0.7c0.1,0.4,0.3,0.5,0.5,0.8c1.1-0.1,1.5,0,2.4-0.1c0,0.7-0.2,1.5-0.5,1.9c0,0.1-0.1,0.2-0.1,0.2
			c-0.7,0-1.2,0-1.6-0.4c-0.7,0.1-0.9,0.4-1.4,0.6c-0.1,0.5-0.2,0.8,0.1,1.1c0.2,0.3,2,0.3,2.8,0.4c0,0.6-0.1,0.8,0,1.2
			c-1.1,0.6-2.3,0.8-3.7,0.5l-0.5,0.5c0,0.3,0,0.4,0.1,0.6c0.2,0.5,2.2,1.5,3,1h0.5c-0.1,0.4,0.1,0.8-0.2,1.2
			c-0.5,1.3-1.5,0.4-2.5,1c-0.4,0.1-0.3,0.3-0.6,0.5c0,0.2,0.1,0.5,0.1,0.7c0.3,0.2,0.4,0.3,0.7,0.5c0.5,0.3,1.1,0,1.7,0
			c0,0,0.1,0.1,0.1,0.1c0,1.2,0.1,2.3-0.5,3v0.2c-0.8-0.1-1.6-0.3-2,0c-0.3,0.1-0.3,0.1-0.6,0.2c0,0.2-0.1,0.4-0.1,0.6
			c0.1,0.1,0.2,0.2,0.2,0.4c0.6,0.2,1.6,0.3,1.9,0.5h0.2c0,0.4,0,0.8-0.1,1c0,0.5-0.1,0.5-0.2,0.8c-0.8,0.2-1.4,0.4-2.4,0.2
			c-0.1,0.1-0.3,0.3-0.5,0.4c0,0.3,0,0.5-0.1,0.7c0.2,0.2,0.4,0.4,0.6,0.6c0.5,0.1,1.1,0.3,1.4,0c0.3,0,0.3,0.1,0.5,0.1
			c0.1,0.3,0.2,0.7,0,1c-0.1,0.9-0.9,0.8-1.2,1.4c-0.5,0.1-1,0.2-1.4,0.2c0,0.3,0,0.3-0.1,0.5c0,0.5,0.1,0.5,0.2,0.8
			c0.4,0.1,1.4,0.2,1.6,0.2h0.2c0,0.5,0,0.8-0.2,1.1c-0.1,0.5-0.3,0.3-0.5,0.7c-0.7,0-1.6-0.1-2,0.2c-0.3,0.1-0.2,0.2-0.4,0.4
			c0.1,0.9,1.7,1.3,2.4,1.1c-0.2,0.7-0.3,1.2-0.4,2.2c-0.3,0.2-0.6,0.5-0.8,0.6c-0.7,0.4-1.3,0.2-1.9,0.5c0,0.6,0.1,0.7,0.2,1.1
			c0.6,0.1,1.4,0.2,1.9,0.1c0,0,0.1,0.1,0.1,0.1c-0.1,1-0.5,1.7-0.6,2.6c-0.5,0.1-1.6,0.3-1.8,0.4c-0.6,0-0.9,0.1-1.2,0.2
			c0,0.7,0.2,0.7,0.4,1.2c0.5,0,1.3,0,1.7,0.2c0.3,0.2,0.1-0.1,0.2,0.2c0.1,0.2,0,1.1-0.2,1.3c-0.1,0.6-0.2,0.5-0.5,0.8
			c-0.5,0-0.9-0.1-1.1,0c-0.9,0.1-0.8,0.5-1.3,0.8c0.3,0.3,0,0.1,0.4,0.1c-0.1,0.4,0.1,0.3-0.2,0.5c-0.4,0.2-1.9-0.7-2.3-1
			c-0.1,0.1-0.2,0.2-0.4,0.2c-0.1-0.1-0.1-0.4-0.2-0.5c-0.2,0-0.5-0.1-0.7-0.1V404c-0.3-0.2-0.5-0.1-0.8-0.2
			c-0.1-0.1-0.3-0.4-0.4-0.5c-0.3,0-0.6-0.1-0.8-0.1c-0.4-0.2-1.1-0.5-1.6-0.8c-0.8-0.5-2.2-1.6-3-1.9
			C385,399,385.2,397.1,385.5,395.9z M397.8,406.2v0.2c-0.3-0.1-0.1-0.1-0.4,0h-0.5c0.1-0.3,0.1-0.2,0.2-0.4c0.3,0.1,0.2,0,0.5,0
			C397.7,406.1,397.7,406.1,397.8,406.2z M373,398.9c0.6,0.1,1.6-0.5,2.4-0.2c1.4,0.5,3.3,1.2,4.3,1.8c0.4,0.2,1.1,0.1,1.7,0.4
			c0.6,0.3,1.2,0.9,1.7,1.2c0.6,0.3,1.2,0.2,1.8,0.5c0.6,0.3,1.4,0.8,1.9,1.1c0.1,0,0.2-0.1,0.4-0.1c0.3,0.1,0.4,0.6,0.6,0.7
			c0.1,0.1,0.2-0.2,0.5-0.1c0.2,0.1,0.4,0.5,0.6,0.6h0.4c0.5,0.2,0.9,0.5,1.4,0.8c0.1,0.2,0.2,0.3,0.4,0.5c0.3,0,0.6,0.1,1,0.1
			c0.1,0.1,0.1,0.4,0.2,0.5c0.3,0.2,0.6,0.1,1,0.2c0.7,0.3,1.4,0.7,2.2,1.1c1.4,0.7,2.7,2.1,4.1,2.8v0.1c-0.9,0-2.1-0.1-2.6-0.5h-2
			c-1,0.4-2.6,3.6-3.5,4.6c0,0.5,0.1,0.7,0.2,0.8v0.6c0.2,0.3,1.3,0.5,1.6,0.6c0.2,0.2,0.4,0.4,0.6,0.6c-0.1,0.2,0,0.1-0.1,0.2
			c-1.6,0.8-4.9-1.4-6.5-1.9c-0.4,0-0.8-0.1-1.2-0.1c-0.8-0.3-3.2-1.6-3.8-1.4c-0.1-0.1-0.1-0.4-0.2-0.5c-0.4,0-0.7-0.1-1.1-0.1
			c-0.9-0.5-2.1-1.1-2.9-1.7c0,0-0.1,0.1-0.1,0.1c-0.1,0-1.2-0.4-1.3-0.5c-0.8-0.5-2.4-1.7-3.4-1.6c0-0.1-0.1-0.2-0.1-0.4
			c-0.3-0.2-1.4-0.3-1.7-0.5c-0.5-0.3-0.8-0.9-1.7-1v-0.4c-1.6-0.4-2.3-1.7-3.4-2.6c0.1-0.5,0.2-1,0.2-1.6h-0.4
			C365.1,399.5,369.3,398.4,373,398.9z M399.9,411.7v-0.6c0.6,0.3,2.4,1.9,2.5,2.6c0.2-0.1,0.1,0,0.2-0.1c1.9,2.3,0,4.6-2.2,5.2v0.4
			c-0.8,0-1.7,0.4-2.4,0.2c-0.9-0.2-0.1-0.5-1.3-0.5c0,0-0.1-0.1-0.1-0.1c0-0.3,0-0.3,0.1-0.5c0.7-0.5,3.1-0.5,4.1-0.4
			c0.2-0.3,0.1-0.3,0.5-0.5C401.4,415.5,400.8,412.7,399.9,411.7z M389.5,419.4v-0.5c-0.6,0-0.5-0.2-1.1-0.2c0-0.2,0.1-0.4,0.1-0.6
			c2.1,0.7,4.2,1.9,6.4,2.2c0,0,0.1,0.1,0.1,0.1c0,1.1-0.3,1.9-0.4,2.8c-0.5,0-0.7-0.1-1,0c-1.2-1.5-2-2.4-3.6-3.4v-0.4L389.5,419.4
			L389.5,419.4z M388.5,424.4h0.4c0.7,0.6,1,1.4,1,2.4c-0.5,0.1-0.6,0.2-0.8,0.5c-0.5-0.4-1.5,0.3-2.2,0c-0.4-0.2-1.1-0.5-1.6-0.7
			c0-1.1,0.5-1.4,0.7-2.4h0.4v-0.4c0,0,0.1-0.1,0.1-0.1c0.2,0,0.5-0.1,0.7-0.1v-0.4c0.3,0.1,0.6,0.2,0.8,0.4
			C388.9,423.9,388.3,424.2,388.5,424.4z M394,415.9c-0.1-0.3-0.2-0.5-0.5-0.6c0.1-1.5,1.6-2.4,2.3-3.4c1.3,0.2,1.8,0.9,2.6,1.6
			c0,0.6,0.2,1.9,0.6,2.2c0,0.5-0.1,0.6-0.2,1c-0.1,0-2.1,0.6-2.5,0.4C395.7,416.7,394.7,415.8,394,415.9z M359.6,415.3
			c0-0.4-0.1-0.9-0.1-1.3c-0.1-0.2-0.4-0.5-0.5-0.7c-0.5-1.7,1.2-3.3,2.4-3.8c0.6-0.3,1-0.1,1.7-0.2c0.5-0.1,1.1-0.4,1.6-0.4
			c1.7,0.3,3.3,1.2,4.7,1.7c0.3,0.1,0.4-0.2,0.5-0.1l0.5,0.5c0.6,0.3,1.1,0.1,1.8,0.4c0.3,0.1,0.8,0.4,1.1,0.6
			c0,0.1,0.1,0.2,0.1,0.4c0.4,0.2,0.8,0.1,1.2,0.2c0.7,0.3,1.6,1,2.3,1.4c0.3,0,0.6,0.1,0.8,0.1v0.2c0.2,0,0.4,0.1,0.6,0.1v0.2
			c0.1,0,0.2-0.1,0.4-0.1c1.5,1.2,3,2.1,4.8,3.1c0.9,0.5,1.5,1.5,2.8,1.7v0.4c0.8,0.2,1.1,0.8,1.9,1c0,0-0.1,0.1-0.1,0.1
			c0,0.1-0.1,0.2-0.1,0.4c-0.3,0-0.6,0.1-0.8,0.1v0.4c-1.8,0.2-3.3,2.7-4,4.2c-0.2,0.4,0,1-0.2,1.3c-0.7,0.6-3.4-0.6-4.4-1.2
			c-1-0.5-2.2-1.4-3.1-1.9c-0.4-0.2-0.9-0.2-1.3-0.5c-0.2-0.2-0.5-0.6-0.7-0.7c-0.3,0-0.6-0.1-0.8-0.1c-0.1-0.1-0.2-0.4-0.4-0.5
			h-0.5c-0.6-0.3-0.7-0.8-1.3-1.1h-1c-0.9-0.4-2-1.3-3.1-1.4c0-0.1,0.1-0.2,0.1-0.4c-1-0.2-1.5-0.8-2.2-1.1
			C362.3,417.4,360.6,417,359.6,415.3z M362.7,428.8v-0.4h-0.4c-0.1-0.5-0.3-0.6-0.7-0.7c-0.6-2.5,0.6-5.3,3.1-5.6
			c0.2-0.4,0,0.1,0.5,0c1.7-0.4,2.1,0.8,3.6,1c0.3,0.9,3.6,1.4,4.4,2c0,0.1,0.1,0.2,0.1,0.4c0.3,0.2,0.6,0.2,0.8,0.4
			c0.1,0.1,0.2,0.5,0.4,0.6c0.6,0.4,1.2,0.5,1.7,1c0.1,0.1,0.2,0.5,0.4,0.6c0.3,0.2,0.6,0.1,0.8,0.4l0.2,0.5
			c0.9,0.8,2.6,1.6,3.1,2.8h0.4v0.5c0.7,0.1,1,0.7,1.4,1.1c0.1,0.1,0.1,0.1,0.1,0.4c0.5,0.1,0.5,0.3,1,0.5c-0.1,0.4-0.2,0.3,0.1,0.6
			c-0.7,0.6-1.6,0.8-2.3,1.3c-0.7,0.5-1.1,1.4-1.7,2c-0.1,0.1-0.4,0.1-0.5,0.2c-0.2,0.3-0.6,1.2-0.5,1.7c0.1,0.5,0.3,0,0.2,0.8h0.5
			c0.1,0.2,0,0.1,0.1,0.2c0,0.2,0,0.2-0.1,0.4c-0.6,0.6-2-0.8-2.8-1v-0.4c-0.2,0.1-0.2,0-0.4,0.1c-1-0.9-2.2-1.5-3.1-2.4
			c-0.1-0.1-0.1-0.1-0.1-0.4c-0.6-0.2-0.8-0.6-1.4-0.7v-0.4c-0.5-0.1-2.9-1.9-3.1-2.4h-0.5v-0.4h-0.4c-0.4-0.8-1.4-1.1-1.7-1.8h-0.4
			v-0.4h-0.4C365.2,430.7,363.4,429,362.7,428.8z M382.8,441.1c-0.2-0.3-1-1-1.3-1.2c0-0.3,0-0.3-0.1-0.5c0.1-1.4,1.3-1.3,1.7-2.4
			c0.4,0,0.9,0.1,1.3,0.1c0.5,1.1,2.7,2.6,2,3.7c-0.2,0.3,0,0.1-0.4,0.2v0.4h-0.1c-1,0.7-1.6,0.1-2.6,0v-0.4L382.8,441.1
			L382.8,441.1z M380.7,453.5c0.5-0.2,0.7-0.7,1.1-1v-0.4c0.4-0.1,0.2,0.1,0.4-0.2c0.7,1.2-0.2,1.8-0.4,2.9c-0.6,0.1-1,0.2-1.3,0.6
			c-0.4-0.1-0.6-0.2-0.8-0.4c-0.1-0.1-0.2-0.6-0.2-1c0.3,0,0.6-0.1,1-0.1v-0.4C380.6,453.6,380.6,453.6,380.7,453.5z M380.4,448h0.1
			v0.4C380.4,448.2,380.4,448.2,380.4,448z M379.6,447.1c0.1,0.1,0.2,0.2,0.2,0.4C379.7,447.3,379.7,447.4,379.6,447.1z
			 M373.4,451.1c-0.7-0.4-1.7-0.5-2.6-1.2c-0.7-0.6-1.1-1.6-1.9-2v-0.4c-1.5-0.3-1.9-2.3-3.4-2.6c0-0.2,0.1-0.4,0.1-0.6
			c-0.2,0-0.2,0-0.4,0.1c-0.3-0.3-1.7-2.3-1.8-2.8c-0.2-0.1-0.2,0-0.4-0.1c-0.3-0.1-0.2-0.2-0.6-0.4v-0.7c-0.2-0.1-0.2,0-0.4-0.1
			c-0.2-0.1-0.4-0.4-0.5-0.7h-0.4c-0.2-0.7-0.6-0.7-1-1.2c-0.5-0.8-0.9-2.2-0.8-3.7h0.4c0-0.2,0-0.2-0.1-0.4
			c0.3-0.6,0.7-0.1,1.2-0.2v-0.2c0.1-0.1,1.7-0.1,1.7-0.1c0.7,0.1,2,1,2.4,0.6c0.1,0.1,0,0.4,0.1,0.5h0.5v0.2
			c0.3,0.2,0.3-0.1,0.2,0.2h0.6c0.5,0.4-0.1,0.4,0.7,0.6v0.4c2,0.4,2.8,2.7,4.7,3.2v0.4c1,0.1,2.2,2.2,3,3c0.7,0.6,1.4,0.2,1.4,1.3
			c0.2,0,0.4-0.1,0.6-0.1v0.4h0.4c0,0.1,1.1,1.2,1.7,1.8c0,0,0,0,0,0v0c0.2,0.2,0.3,0.3,0.4,0.3c-0.1,0.1-0.1,0.1-0.4,0.1v-0.5
			c0,0,0,0,0,0c-0.6-0.1-0.6-0.2-1.3-0.1v0.4c-1-0.2-1.4,0.5-2,1C374,448.6,373.5,448.6,373.4,451.1z M379.2,450.6
			c0,0.5,0.1,0.7,0,1c-0.1,0.4-0.1,0.3-0.4,0.5c-0.2,0.1-0.9,0-1.4-0.1c-0.2-0.9-1-0.5-1.2-0.6c-0.2-0.2,0-0.2-0.4-0.4
			c-0.1-0.3-0.2-0.9,0-1.2c0.2-0.5,0.9-0.9,1.3-1.1c0,0,0.1-0.1,0.1-0.1v0.1C378.4,448.9,378.4,450,379.2,450.6z M390.6,448.3
			c-0.8,0.1-1.4,0.4-2,0.6c0,0.3,0.1,0.6,0.1,1c0.3,0,0.3,0,0.5,0.1c0.7,0.2,0.7,0.6,1.1,1c-0.4,0.7-1,1.3-1.9,1.4
			c0,0.4,0,0.7-0.1,0.8c0.4,0.3,0.3-0.1,0.6,0.5h0.6v1.1c-0.3,0.2-0.5,0.2-0.6,0.6c-0.5,0.1-0.6,0.2-1.3,0.2c0,0.4-0.1,0.5,0,0.7
			c0.1,0.3,0.2,0.4,0.4,0.6h0.4v0.4h0.5c0,0-0.1,0.1-0.1,0.1c0,1.1-0.1,1.4-0.8,1.3c-0.3,0.3,0.2,0.3-0.5,0.5
			c-0.1,0.7,0.3,0.7,0.4,1.3c0.1,0.4-0.4,0.3-0.2,0.7c0,0,0.4,0.2,0.4,0.2c-0.5,0.6-1,0.6-1.6,0.7c-0.1,0.3-0.4,0.7-0.2,1.2
			c0,0.1,0.4,0.8,0.4,0.8c-0.2,0.5-1,0.9-1.2,1.3c-0.2,0.5,0,1.1-0.2,1.6c-0.3,0.6-1.2,0.6-1.6,1.2c-0.4,0.7,0.1,1-0.4,1.4
			c-0.6,0.6-1.2,0.2-1.4,1.2h-0.4c0,0.2-0.1,0.5-0.1,0.7c-0.5,0.1-0.8,0.4-1.1,0.5c-0.5,0.1-0.8-0.1-1.3-0.1c-0.1,0-0.2,0.2-0.5,0.1
			c-0.5-0.2-1.8-0.9-2.3-0.7c-0.3-0.2-0.1,0-0.1-0.4c-0.4,0-0.2-0.2-0.4,0.1c-0.3-0.1-0.4-0.3-0.6-0.5c-0.1-0.1-0.1-0.1-0.1-0.4
			h-0.4c0-0.4-0.1-0.8-0.2-1.1c-0.2-0.3,0-0.1-0.4-0.2c0.3-0.5,0-1.2-0.4-1.9c0.3-0.8-0.2-2.5,0.1-4.1c0-0.2,0.3-0.8,0.4-1.1
			c0.1-0.4-0.1-1.1,0-1.4c0.2-0.4,0.5-0.6,0.6-1c0.2-0.6,0.1-1.8,0.4-2.6c0.3-0.8,0.6-0.9,0.7-1.8c0.4,0,0.6,0.1,0.8,0
			c0.1,0.1,0.1,0.1,0.1,0.4c1.2,0,3.1,1,3.8,1.6c0-0.1,0.1-0.2,0.1-0.4l0.4,0.4c0.1-0.3,0-0.2,0-0.5c0.3,0.2,0.1,0,0.2,0.4
			c1.3-0.5,4.1-2.6,3.6-4.7c-0.1-0.5-0.7-1.4-1-1.9c0.1-0.2,0.1-0.6,0-1c-0.3-0.8-1.1-1.1-1.2-2H382c-0.3-1.2-1.5-1.9-1.7-3.1H380
			c0.1-0.2,0.3-0.2,0.6-0.4c0.6,0.7,1.7,1.2,2.3,1c1.5,1.3,3.6,0.4,4.8,0.4v-0.4c1.1-0.1,1.8-1.2,2.6-0.7c0.3,0.1,0.3,0.2,0.6,0.4
			c-0.2,0.5-0.6,1.1-1,1.4C390.1,447,390.7,447,390.6,448.3z M392.7,431.6c-0.1,0.5-1.6,1.4-2,1.6c0,0.3,0.1,0.6,0.1,0.8
			c0.2-0.1,0.2,0,0.4-0.1c0.1,0.1,0.1,0.1,0.1,0.4c0.3,0,0.6,0.1,0.8,0.1c0,0,0.1,0.1,0.1,0.1c-0.2,0.2-0.9,0.9-1.2,1.1
			c0.1,1.1,1.1,1.9,0.7,2.5v0.2c-0.2,0.1-0.1,0-0.2,0.1c-0.9,0-2-1.5-2.5-2c-0.1-0.2,0,0,0-0.2c-0.4-0.2-0.6-0.4-1-0.6v-0.4
			c-0.6-0.1-2.7-2.1-3-2.5h-0.4c-0.2-0.7-0.8-0.8-1.1-1.4c-0.2,0-0.4-0.1-0.6-0.1c-0.1-0.5-0.1-0.5-0.2-0.8h-0.4
			c0-0.2,0-0.2,0.1-0.4v-0.2c1.4,0,2.4,0.8,3.4,1.2c0.1,0,0.2-0.1,0.4-0.1c1.3,0.4,3.2,0.9,4.8,0.1c0.4-0.2,0.8,0,1.1-0.2
			c0.5,0.1,0.4,0.1,0.7,0.2C392.8,431.2,392.8,431.5,392.7,431.6z M393,427.4c-0.1,0.1-0.1,0.1-0.4,0.1v0.4
			c-0.6,0.2-0.8,0.8-1.2,1.1c-0.9,0.7-2.5,0.5-3.5,0.6c-0.3-0.2-0.4-0.5-0.7-0.7v-0.2c0.3,0.1,0.2,0.3,0.4,0.4
			c0.5,0.2,0.6-0.4,1-0.4c0.4,0.1,2.7,0.1,3.4-0.5c0.1-0.1,0.1-0.1,0.1-0.4h0.4c0.2-1.1-0.2-2.3,0-2.6v-0.2
			C393.4,425.2,393.7,426.7,393,427.4z M424.8,446.4c0.2,0.1,0.1,0,0.2,0.1C424.8,446.4,424.9,446.5,424.8,446.4z M440,422.4
			c-0.3,0.7-0.3,1.5-0.5,1.9c-0.3,0.6-0.9,1.7-1.3,2.5c-0.4,0.9-0.4,1.7-0.8,2.6c-0.2,0.4-0.7,0.8-0.8,1.2c-0.3,0.7-0.2,1.3-0.6,1.9
			h-0.2c-0.2,0.4-0.2,0.7-0.5,1.1c-0.1,0-0.2,0.1-0.4,0.1c-0.3,0.4-0.1,0.9-0.4,1.2c-0.9,1.2-1.4,2.7-2.3,4.1
			c-0.1,0.2-1.1,0.9-1.3,1.2c-0.4,0.5-0.7,1.5-1.1,2c-0.5,0.7-1.3,1.3-1.8,2c-2.4,0.1-2.8-0.1-5-0.6c-0.2,0-2.4-0.1-2.9,0
			c-0.1,0-0.3,0.2-0.6,0.1c-1.1-0.3-1.9-0.3-2.8-0.1c-0.8,0.2-1.7-0.3-2-0.2c-0.2,0-0.9,0.4-1.2,0.4c-0.6,0-2.7-0.1-3.1,0.1
			c-1,0.5-3.4,1.2-5,1.1v0.4c-0.7-0.2-1.7,0.4-2.4,0.4c-1.8-0.2-4.8,0.5-6.7,0.1c-1-0.2-2.2,0.2-2.9-0.2h-0.2c0-2.5,0.5-6.2,1-7.8
			c0-0.8,0.1-1.5,0.1-2.3c0.6-2,1-5.5,1.6-7.6c0.7-2.4,0.7-5.6,2-7.1c0.8-0.5,1.8,0.3,3-0.2c0.5-0.3,1.2-0.9,1.8-1.2
			c0.3,0,0.6-0.1,1-0.1c0.6-0.3,0.8-1,1.4-1.3c0.1-1,0.7-2.6,0.4-3.6c-0.8-2.4-3.1-3.3-4.3-5.2h-0.4v-0.4c-0.6-0.2-0.7-0.7-1.2-1
			c1.4-7,2.5-14.3,4.2-20.4c0.3-1.2,0.2-2.8,0.4-3.8c0-0.1,0.3-0.4,0.4-0.5v-1.2c0.3-0.9,0.6-2.2,1-3.1v-1.7
			c0.3-1.2,0.5-2.8,0.8-3.8c0.2-0.4,0-1.2,0-1.3c0.1-0.1,0.2-0.2,0.4-0.2v-0.5c0.3-0.4,0.9-0.8,1.2-1.2c0-0.1-0.1-0.2-0.1-0.4
			c0.1,0,0.2-0.1,0.4-0.1c0.8-1.1,1.3-2.2,2.2-3.2c0.2-0.2,0.6-0.3,0.7-0.5c0.2-0.2,0.1-0.6,0.4-0.7c0.9-0.6,2.4-1.2,3.5-1.6
			c0.7-0.2,1.3,0.1,1.7,0c-0.5,1-1.8,1.3-2.2,2.4h-0.4c-0.1,0.9-0.7,1.6-1,2.4c-0.4,1.2-0.5,2.6-0.7,3.7c-0.2,1-0.6,2.2-0.1,2.9
			c0.1,0.3,0.2,0.4,0.4,0.6c0.7,0,2.4-0.5,2.8-0.2c0.3,0.2,0.1-0.1,0.2,0.2c0.1,0.1,0,1.1-0.1,1.4c-0.4,1.2-0.6,2.6-1,4
			c-0.2,0.9-0.3,1.9-0.5,2.6v1.1c-0.5,1.6-1,3.9-1.4,5.5c-0.2,0.9,0,2-0.1,2.5c-0.3,0.9-0.9,3.6-0.6,4.8c0.1,0.4-0.1,1,0,1.4
			c0.1,0.5,0.5,0.9,0.7,1.3c-0.1,0.2,0.2,1,0.4,1.3c1.4,2.5,4.6,4.2,6.7,6c0.2,0,0.4,0.1,0.6,0.1c0.1,0.1,0.1,0.4,0.2,0.5
			c0.3,0.2,0.6,0.1,1,0.4c0.5,0.3,1.1,0.6,1.6,1c0,0.1,0.1,0.2,0.1,0.4l1.1,0.4c0.8,0.5,1.6,1.4,2.5,1.8c1.1,0.5,2.2,0.7,3.2,1.3
			c0.1,0.1,0.3,0.4,0.4,0.5c0.4,0.2,0.6-0.1,0.8,0c1.3,0.8,4.2,3,5.4,3v0.4c0.9,0.1,3.9,1.6,4.1,2.2
			C440.8,420.2,440.3,421.8,440,422.4z M441.3,416.7c-0.1-0.1-0.2-0.1-0.4-0.2c-0.2-0.3-0.1-0.5-0.1-1.1c0.3,0.1,0.2,0.2,0.5,0.4
			V416.7z M433.8,303.4c0.1,0.2-0.3,0.7-0.2,1.3c0,0.4,0.2,0.4,0.2,0.8c1-0.1,1.5-0.6,1.8-1.3c0.6,0,0.7,0.1,0.7,0.7
			c0.3-0.1,0.3-0.4,0.5-0.5h1.1c0.3-0.1,0.5-0.3,0.8-0.4c0-0.4-0.1-0.6-0.2-0.8c-0.4-0.5-1.3-0.8-1.9-1.1c0.3-1.2,0.9-1.2,0.1-2.4
			c-1.2-0.1-1.5,0.5-1.7,1.7c-0.4-0.1-0.4-0.3-0.6-0.6c-0.5,0-0.9-0.2-1.2,0c-0.3,0.1-0.4,0.2-0.6,0.4c0,0.3,0,0.4-0.1,0.6
			C432.6,302.9,433.4,302.7,433.8,303.4z M418.4,304.5c0.2-0.2,0.4-0.3,0.6-0.5c0.2-1.1,0-1.8-0.5-2.5h-0.7
			c-0.2,0.2-0.4,0.4-0.6,0.6c0.1,0.4,0.2,1,0,1.3C417.4,303.9,418,304.3,418.4,304.5z M423.1,304.3c0.2,0.1,0.3,0,0.5,0.1
			c0.2-0.2,0.4-0.4,0.5-0.7c0.2-0.5-0.2-1.5-0.4-1.9c-0.3-0.1-0.5-0.2-0.8-0.2c-0.1,0.2-0.2,0.3-0.4,0.5
			C422.5,303,422.5,303.9,423.1,304.3z M394.3,305.5c0.2,0,0.2,0,0.4-0.1c0.8,0,0.8-0.2,1.3-0.4c0-0.4-0.2-0.7,0-1
			c-0.1-0.6-0.4-0.8-0.6-1.2h-0.8c-0.8,0.9-1,0.2-0.8,1.9C393.9,305,394.1,305.1,394.3,305.5z M428.1,306.4h0.6
			c0.1-0.6,0.3-1.4,0-1.8c-0.1-0.3-0.2-0.4-0.4-0.6c-0.3,0-0.6-0.1-0.8-0.1c-0.2,0.3-0.3,0.3-0.4,0.7c-0.2,0.4,0.3,1.2,0.6,1.6
			C427.9,306.3,428,306.3,428.1,306.4z M388,305.7c-0.2-0.5-0.5-0.7-1-0.8c-0.3,0.3-0.5,0.5-0.8,0.8c0,1.1,0.5,1.3,0.6,2.2
			c0.2,0.1,0.1,0,0.2,0.1c0.7-0.1,0.8-0.4,1.2-0.7C388.3,306.6,388.3,306,388,305.7z M337.4,348.7c0.5-1.1,1.3-2.5,1.9-3.5
			c0.3-0.5,0.3-1.1,0.6-1.6c0.4-0.7,1.1-1.4,1.6-2c0.1-0.3,0.2-0.6,0.4-1c0.6-0.8,1.6-1.6,2.2-2.4c0.4-0.5,0.5-1,1.1-1.3
			c-0.1-0.3-0.1-0.4-0.2-0.6c-0.2-0.3,0.1-0.1-0.2-0.2c-0.8-0.4-2.4,1.9-2.8,2.5c-0.3,0.5-1,1-1.3,1.6c-1.3,2.2-2.5,4.2-3.6,6.7
			c-0.9,2-2,4.3-3,6.4v0.8c-0.7,2-1.5,3.9-2.3,6c-0.4,1.1-0.3,2-0.7,3.1c-0.1,0.4-0.7,1.4-0.8,1.7c0,0.3,0.1,0.6,0.1,0.8
			c-0.2,0.7-0.7,1.7-1,2.5c-0.3,1-0.1,2.1-0.6,3h-0.2c-0.2,0.4,0.1,0.6,0,1.1c-0.3,0.9-0.8,2.3-1.1,3.1c0,0.2,0.2,0.1,0.2,0.1
			c0.1,0.7-0.6,1.4-0.5,2.2c0,0,0.1,0.1,0.1,0.1c-0.2,0.5-0.6,1.4-0.7,2c0,0.7-0.1,1.4-0.1,2c-0.4,1.1-1.4,4.5-1.2,5.8
			c1.2-0.3,0.9-2.9,1.3-4.1c0.3-0.9,0.6-2.2,1-3.1c0-0.4,0.1-0.9,0.1-1.3c0.2-0.6,0.7-1.3,0.5-1.9c0.1,0,0.2-0.1,0.4-0.1
			c0.3-0.5,0-1.2,0.2-1.8c0.3-0.8,0.7-2.1,1-2.9v-0.8c2.5-7.3,4.1-14.8,7.4-21.5C337.3,349.6,337.1,349.2,337.4,348.7z M344.2,355.9
			c-0.6,1.5-1.2,3.6-1.8,5c-0.1,0.3,0.1,0.5,0.1,0.6c-0.2,1-1,2.5-1.3,3.5v0.7c-0.1,0.2-0.5,0.7-0.6,0.8c0,0.3,0.1,0.6,0.1,1h-0.2
			c-0.1,0.1,0.2,0.2,0.1,0.5c-0.1,0-0.2,0.1-0.4,0.1v0.7c-0.3,0.8-0.5,2.1-1,2.8c-0.1,0.1-0.1,0.1-0.4,0.1c0.2,2.3-0.9,5.5-1.6,7.8
			c-0.3,1.1-0.3,2.2-0.6,3.2v0.8c-0.9,2.3-0.9,5.9-1.8,8c-0.2,0.6,0.1,1.4,0,1.8c-0.1,0.7-0.4,2.1-0.6,2.8c-0.3,1.2,0.2,2.3-0.2,3
			c0,0.5,0.1,0.4,0.2,0.7c0.7-0.9,0.8-3.5,1.2-4.8c0-0.5,0.1-1,0.1-1.6c0.8-2.2,1-4.6,1.7-7.2c0.1-1,0.2-1.9,0.4-2.9
			c0.7-1.7,0.9-4.4,1.7-6.4c0.2-0.6,0-1.6,0.1-1.9c0.1-0.1,0.2-0.2,0.4-0.2c0.3-0.6,0.1-1.5,0.4-2.2c0.1-0.1,0.2-0.2,0.4-0.2
			c0.3-0.7,0.1-1.5,0.4-2.3c0.7-2.2,1.6-4.7,2.4-6.8c0.1-0.3-0.1-0.6-0.1-0.7c0.6-1.6,1.3-3.7,1.8-5.4c0-0.4,0.1-0.8,0.1-1.2
			c0.5-1.4,1.5-3.2,1.3-4.8C345,351.5,344.7,354.5,344.2,355.9z M379.6,460.9c-0.7,0.2-1.5-0.3-2.3,0.1c-0.6,0.4-1.8,1.4-1.6,2.2
			c-0.1,0-0.2,0.1-0.4,0.1c-0.3,0.5,0.1,4.1,0.4,4.7c0.2,0.5,0.9,0.8,1,1.1c1-0.1,1.5-0.3,2.4,0.1c0.3-0.5,0.8-0.2,1.3-0.6
			c0-0.1,0.1-0.2,0.1-0.4c0.3-0.2,0.7-0.1,1-0.4c0.6-0.4,0.9-1.5,1.8-1.7c0-0.3,0.1-0.2,0-0.5c0.1-0.1,0.1-0.1,0.4-0.1
			c0.1-1.9,1.2-2.2,0.4-4.1C382.6,460.4,381.1,460.6,379.6,460.9z M380.4,466.3c-0.4,0.5-1.2,1.9-2.3,1.2c-0.4-0.1-0.2,0.1-0.4-0.2
			c-0.6-0.4-0.7-3.1-0.2-3.8c0.3-0.5,0.9-0.8,1.2-1.3c0.9,0.1,1.7-0.1,2.2-0.4c0.3,0.2,0.9,0.3,1.4,0.4
			C382.5,464.8,381.5,464.8,380.4,466.3z"/>
	</g>
</g>
</svg>
