<?xml version="1.0" encoding="utf-8"?>
<!-- Generator: Adobe Illustrator 21.0.0, SVG Export Plug-In . SVG Version: 6.00 Build 0)  -->
<svg version="1.1" id="Calque_1" xmlns="http://www.w3.org/2000/svg" xmlns:xlink="http://www.w3.org/1999/xlink" x="0px" y="0px"
	 viewBox="0 0 841.9 595.3" style="enable-background:new 0 0 841.9 595.3;" xml:space="preserve">
<style type="text/css">
	.st0{fill:#DADADA;}
	.st1{fill:#FFFFFF;}
</style>
<ellipse class="st0" cx="421.4" cy="420.4" rx="130.9" ry="33.6"/>
<path class="st1" d="M382.6,429.1c-5.4,0-12.3-0.9-17.3-6.5c-6.7-7.4-5.3-17-3.6-28c0.2-1.3,0.4-3.3,0.7-5.7l-24.6-3.9
	c0.1-0.7,11-69.8,11.8-93.4c0.3-10.2,1.3-20,2.8-27.4c1.2-6.3,4.1-21,16.9-23.3c3.3-0.6,8.5-0.5,13.4,3.7c-0.2-4,1.4-8,4.4-10.8
	l6.6-6.2l8.4,3.4c5.6,2.3,7,5.3,12.1,16.6c1.9,4.2,5.7,12.7,9.7,22.9c3.6,9,6.5,17.2,8.8,24.6c-2.4-17.7-3.8-35,1.5-46.7
	c3.9-8.5,11-24.3,25.7-21.2c15.3,3.3,16.6,22.3,16.7,48.8c0.1,32.9,3.7,43.2,10.7,63.6c3.9,11.1,8.7,25,14.1,46.2l-27.4,7.1
	c-0.1-0.2-0.1-0.4-0.2-0.6c1.1,12.7,0,19.7-4.1,24.9c-2.8,3.6-6.8,5.9-11.3,6.3c-22.2,2-35.1-1-41.9-9.6c-4.2-5.4-5.3-12.6-2.9-19.6
	c0.6-1.8,0.9-5,0.9-8.9c-2.6,20.3-9.7,42.8-28.4,43.7C385.3,429,384,429.1,382.6,429.1z M442.3,395.6c1,0.1,2.2,0.1,3.6,0.1
	c-0.5-6.9-2-16.8-3.4-25.6C443.2,379.8,443.3,388.5,442.3,395.6z"/>
<g>
	<g>
		<path d="M507.2,384.8c-0.1-0.4-0.1-0.7-0.2-1.1c-0.3-0.9-1-2-1.4-2.8c-0.7-1.7-0.8-3.3-1.4-5.1c-0.6-1.7-1.6-3.6-2.1-5.3
			c-1.8-5.6-3.4-10.4-5.3-15.7c-0.6-1.8-0.7-3.3-1.2-5.1c-1.3-3.9-2.3-8.2-3.7-12c-0.1-0.8-0.2-1.5-0.4-2.3
			c-0.6-2.1-1.2-4.7-1.8-6.9l-0.5-3.7c-1.1-3.9-1.8-8.4-2.8-12.4c-0.9-3.6-0.5-7.1-1.4-10.6c-1.2-4.9-1.8-10.1-3-15
			c-0.3-2.1-0.6-4.1-0.9-6.2c-0.7-2.5-1.1-5.5-1.9-8.1c-0.8-2.5-1.9-5.2-2.8-7.6c-0.5-1.3-0.5-2.6-1.1-3.9c-0.6-1.5-1.8-2.9-2.6-4.2
			c-0.6-0.9-0.9-2.1-1.6-2.8c-0.7-0.7-1.7-1.2-2.3-1.9c-0.3-0.4-0.5-1.1-0.9-1.4c-0.9-0.8-2-1.3-2.8-2.1c-1.7-1.6-3-3.8-4.9-5.1
			c0.3-1.7,2.1-6.1,3.2-7.2c-0.1-0.7-0.1-0.7-0.4-1.1l-4.8,1.6c-0.8,0.3-1.7,0.1-2.3,0.5c-1.7-0.4-2-2.8-2.8-4.1
			c-2.5-3.7-4.6-7.9-6.9-11.8c-0.5-0.5-0.9-0.9-1.4-1.4c-1.3-1.8-3.4-5-5.3-6c-1.2-0.7-2.3-0.1-3.7-0.7c-4.7-2-10.9-2.4-16.4-2.6
			c-1.3,0.8-4.3,0-5.8,0.4c-2.6,0.6-6.8,1.1-9,2.3c-0.8,0.4-1.4,1.4-2.3,1.8c-0.4,0.2-0.3,0.3-0.5-0.2c-0.9,0.3-3.5,5.5-4.2,6.5
			c-0.1,0.1-1.2,1.8-1.2,1.8c-0.7,0.4-1.3,0.3-1.8,0.9c-1.6,1.8-3.3,2.8-4.9,4.4c-0.8,0.7-1.4,1.8-2.3,2.5c-4,3-7.2,7.2-11.3,10.1
			c-3,2.1-5.7,4.4-8.7,6.5c-1.3,1-2.2,2.7-3.4,3.9c-0.5,0.5-1.5,0.7-1.9,1.2c-1.2,1.4-2.2,3.7-2.8,5.5c-2,5.3-1.9,14.7-2.6,21
			c0,0.4,0.2,1.3,0.2,1.9c0,1.5-0.2,3.5-0.5,4.9v2.3c-1.2,5-0.8,11.1-1.9,16.2c-0.3,1.5-0.1,3.1-0.4,4.4c-0.5,2-0.1,5.2-0.4,6.5
			c-0.6,3.2,0,6.4-0.7,9.5c-1.2,5-1.1,10.7-2.3,15.7c-0.1,1.4-0.2,2.7-0.4,4.1c-2.5,9.5-4.6,18.9-8.1,27.4c-2,4.8-2.8,10-4.8,14.8
			c-0.6,1.4-0.3,3.4-1.2,4.4c0.2,2.2,2.9,3.7,4.4,4.6c1.6,0.9,3.5,2.5,5.3,3.2c4.1,1.6,9.6,2.4,13.8,3.4c-0.1,1.9-0.8,3.5-1.2,5.1
			v1.8c-0.3,1.4-0.6,3.3-0.9,4.6c-0.4,1.8,0,3.5-0.9,4.8c0.3,2.3,1.6,2.4,3.2,3.4c2.9,1.7,5.3,3.1,8.8,4.4c2.7,1,6.3,1.9,9,2.5h2.5
			c3.9,1,7.8,0.2,11.8,1.1c0.5,0.1,1.2-0.2,1.4-0.2c2.8,0.5,11.2,0.6,14,0c2.1-0.1,4.1-0.1,6.2-0.2c3.7-0.9,7.6-1.4,10.8-2.6
			c0.9-0.3,1.7-0.2,2.5-0.7c0.6-0.3,0.9-1.4,1.1-2.1c4.5,1.6,13.5,2.4,19.1,1.2c0.5-0.1,1,0.2,1.2,0.2c1.3-0.2,3-0.4,4.2-0.7
			c0.9-0.2,2.1,0.1,2.6,0c8.2-1.5,15.8-4.3,21.7-8.1c1.3-0.8,2.6-1.3,3.9-2.1c1-0.7,1.9-1.8,2.8-2.5c1.3-0.9,3.3-1.6,3.7-3.4
			c0.5-1.3-1.9-7.2-2.3-8.7c-0.4-1.2-0.2-2.3-0.9-3.2v-0.4c9.3,1.8,16-2.5,21.2-6.5c0.3-0.2,0.3-0.6,0.5-0.9
			c0.7-0.9,1.9-1.9,2.8-2.6C508.1,385.7,507.6,385.5,507.2,384.8z M440.6,217.1c0.8,0.8,1.6,1.6,2.5,2.5c-0.5,1-0.9,1-0.9,2.6
			c0.4,0.1,0.4,0.1,0.7,0.2c0.4-0.4,0.7-0.5,0.9-1.2c0.7,0.2,0.7,0.5,1.2,0.9v0.5h-0.5c-0.2,0.4-0.4,0.8-0.7,1.1v0.9
			c0.3,0.1,0.2,0,0.4,0.2c0.7-0.1,1.2-0.4,1.4-1.1h0.4c0.2,0.4,0.4,0.6,0.5,1.1c0.2,0.4-0.6,1.4-1.1,1.8c0.1,0.6,0.2,0.5,0.4,0.9
			c0.9-0.1,1.2-0.3,1.6-0.9c0.6,0.3,0.7,0.8,1.1,1.2c-0.6,0.6-1.3,1.1-1.9,1.6v0.5c0.3,0.1,0.2,0,0.4,0.2c0.9,0,1.4-0.4,1.8-0.9
			c0.8,0.2,0.6,0.4,1.1,0.9c-0.3,0.6-0.9,1-1.4,1.4v0.9c0.3,0.1,0.2,0,0.4,0.2c0.7-0.1,1-0.3,1.2-0.9c1.1,0.1,0.9,0.6,1.4,1.2
			c0,0-1.5,0.9-1.9,1.1c0,0.5,0.1,0.8,0.2,1.1c1.2,0,1.8-0.3,1.9-1.4c0.1,0.1,0.1,0.1,0.2,0.2c0.5,0.4,0.6,1.1,1.1,1.6
			c-0.3,0.7-1.1,0.8-1.8,1.1v0.7c0.9,0.2,1.9,0.2,2.5-0.4h0.2c0.1,0.4,0.2,0.6,0.4,0.9c-0.6,0.6-1.6,0.5-2.5,0.9
			c-1.8,0.8-3.5,2.2-5.3,3c0.1,0.6,0,0.4,0.4,0.7v0.2c2.7-0.9,4.9-2.8,7.8-3.7c1.9-0.6,5.1-0.7,6.5-1.8h0.5c-0.2,0.9-0.7,2.3-1.2,3
			c-0.2,0.1-0.9-0.2-1.2-0.5c-0.7,0.1-0.7,0-0.9,0.5c-0.1,0.2-0.1,0-0.2,0.4c0.6,0.5,1.1,0.9,1.8,0.9c-0.1,0.3-0.1,0.6-0.2,0.9
			c-0.6-0.1-0.9-0.2-1.2-0.5c-0.6,0.1-0.5,0-0.7,0.5c-0.1,0.2-0.1,0-0.2,0.4c0.4,0.4,0.6,0.7,1.2,0.9c-0.1,0.7-0.3,0.7-0.4,1.4
			c-0.6-0.1-0.5,0-0.7-0.5c-0.7,0-0.8,0.1-1.2,0.4c0.1,1,0.8,1.6,1.2,1.6c-0.1,0.4-0.2,0.7-0.4,1.1c-0.5-0.1-0.9-0.4-1.2-0.7
			c-0.6,0.1-0.5,0.2-0.9,0.4c0.1,0.9,0.6,1.4,1.2,1.8c-0.2,0.9-0.6,1.2-0.9,1.9h-0.2c-0.3-0.4-0.5-0.5-0.7-1.1
			c-0.5,0-0.9,0.1-1.2,0.2c0.1,1.3,0.5,1.6,1.4,1.9c-0.2,0.5-0.4,0.9-0.7,1.2c-0.2,0.1-0.2,0.1-0.5,0.2v-0.5c-0.4,0-0.5,0-0.7-0.2
			c-0.4,0.1-0.4,0.1-0.7,0.2c0,1,0.3,1.4,1.1,1.6c-0.1,0.6-0.1,0.8-0.5,1.1c-0.3,0-0.3,0-0.5-0.5c-0.6,0-1.1,0.1-1.4,0.2
			c0,1,0.3,1.4,1.1,1.6c-0.1,0.7-0.4,0.9-0.7,1.4c-0.7-0.1-0.8-0.2-1.1-0.7c-0.6,0.1-0.5,0.2-0.9,0.4c0,0.6,0.1,0.9,0.4,1.2
			c0.2,0.1,0.2,0.1,0.5,0.2c-0.1,0.6-0.1,0.6-0.5,0.9c-0.1,0.1-0.1,0.1-0.2,0.2c-0.2-0.3-0.2-0.3-0.4-0.7c-0.3,0.1-0.2,0-0.4,0.2
			c-0.6,0.1-0.4-0.1-0.7,0.4c-0.2,0.5,0.2,1,0.7,1.2v0.4c-0.6,0-0.3,0.2-0.7-0.2c-0.5,0-0.8,0.1-1.1,0.2c0.1,0.7,0.2,0.9,0.5,1.2
			c-0.2,1-0.8,1.4-1.2,2.1h-0.4c-0.1-0.3-0.1-0.3-0.2-0.7c-0.3-0.1-0.2,0-0.4-0.2c-0.5,0-0.9,0.1-1.2,0.2c0.1,0.7,0.3,0.7,0.4,1.4
			c0.1,0.1,0.1,0.1,0.2,0.2h0.7c-0.1,0.9-0.4,1.3-0.9,1.8v0.2c-0.7-0.2-1-0.7-1.4-0.7c-0.5,0-0.6,0.1-0.9,0.2c0.1,1,0.6,1.2,1.4,1.4
			c-0.2,1.1-0.8,1.3-1.1,2.3c-1-0.3-0.8-0.5-1.9-0.5c-0.1,0.5-0.2,0.5,0,0.9c0.2,0.6,0.3,0.7,1.1,0.7c-0.2,0.7-0.7,1.6-1.2,2.1
			c-0.2,0.2-1-0.4-1.2-0.7c-0.6,0.1-0.5,0.2-0.9,0.4c0,1.1,0.6,1.3,1.4,1.6c-0.4,1.1-1.2,2-1.8,3c-0.8-0.3-1.2-0.7-2.1-0.9
			c-0.1,0.1-0.1,0.1-0.2,0.2c0,1,0.7,1.6,1.4,1.9c-0.1,0.7-0.3,0.9-0.7,1.2c-0.1,0.2-0.5-0.3-0.7-0.5c-0.7,0.1-0.7,0.1-1.1,0.4
			c0.2,0.9,0.6,0.8,0.9,1.6c0.2,0.3-0.5,1.2-0.7,1.8c-0.4-0.2-0.8-0.4-1.1-0.7c-0.7,0.1-0.7,0-0.9,0.5c-0.1,0.2-0.1,0-0.2,0.4
			c0.2,0.2,0.2,0.3,0.4,0.5c0.4,0.1,0.7,0.1,1.1,0.2c-0.2,0.9-0.8,2.4-1.4,3c-0.2,0.2-1-0.4-1.2-0.7c-0.7,0.1-0.7,0.1-1.1,0.4
			c0.2,0.9,1.1,1.4,1.9,1.6c-0.4,0.8-0.8,1.6-1.2,2.5c-0.6-0.2-1.2-0.4-1.8-0.5c-0.1,0.1-0.2,0.2-0.4,0.4c0.1,1,0.6,1.2,1.4,1.4
			c-0.2,0.8-0.7,1.5-1.1,2.3c-0.6-0.1-0.7-0.2-1.1-0.5c-0.4,0.1-0.4,0.1-0.7,0.2c0.1,0.8,0.3,0.8,0.5,1.4h0.7
			c-0.1,0.8-0.8,3.1-1.2,3.5c-0.1,0.3,0,0.2-0.2,0.4c-0.3-1.4-0.9-3.2-1.6-4.9c-0.3-0.6-0.9-1.4-1.1-2.1c-0.2-0.8,1.1-2.9,1.4-3.7
			c1.4-4,2.8-7.3,4.4-11.1c1.2-2.9,2.3-5.9,3.5-8.8c0.3-0.7,1.2-2.1,0.9-2.8c0.3-0.4,0-0.2,0.5-0.4c0.3-2.9,2.2-5.5,3-7.9
			c2.6-7.6,6.1-19.1,4.6-29.1c-0.5-3.2-0.3-8.6-2.1-10.9V217.1z M416.2,227.5c-0.1-0.1-0.1-0.1-0.2-0.2c-0.2-1-0.1-3.2,0.4-4.4
			c2.9,0.6,5.4,0.7,8.3,0.7c0.4,0,1.1,0.3,1.6,0h0.4c0,1.3,0.2,3.3-0.4,4.1C424.8,229.9,418.6,227.8,416.2,227.5z M435.7,249.4V249
			h0.2v0.4H435.7z M403.2,215.5c1.4-1,3.4-1.8,5.1-2.3c2.2-0.7,4.4-0.9,6.5-1.4c0.9-0.2,2.2,0.2,2.8-0.2c1.3,0.4,3.4-0.2,4.9,0.2
			c5.1,1.1,12,1,15.5,3.5c1.1,0.8,2.2,4.9,2.6,6.4c0.2,0.7,0,1.3,0.4,1.8v0.4c-1.7,0-3.7-1.8-5.5-2.5c-1.7-0.6-3.2-0.6-5.1-1.1
			c-3.4-0.9-10-2.4-14.8-1.2c-4.2,1-8.4,2.7-11.5,4.9c-0.8,0.6-1.1,1.9-1.9,2.5v0.4c-1.1-1.4-0.7-7.6-0.9-9.5
			C402.2,216.8,402.5,216,403.2,215.5z M410.8,248.2v0.4h-0.2v-0.4H410.8z M398.4,221.8c0.7-0.9,0.8-1.9,1.6-2.6V219h0.4v2.8
			c-0.5,0.1-0.8,0.2-1.4,0.2c-0.1,0.1-0.1,0.1-0.2,0.2c0.1,0.8,0.2,0.7,0.4,1.2c0.5,0,0.8,0,1.1-0.2h0.4c0.1,0.6,0.1,1.3,0.2,1.9
			c-0.7,0-0.9,0-1.2,0.4c-0.7,0-0.8-0.1-1.1,0.4h-0.2c0.2,0.6,0.4,0.5,0.7,0.9c0.7,0,1.2-0.1,1.6-0.5h0.4c0.1,0.4,0.2,1.1,0.4,1.4
			v0.7c-0.5-0.3-1-0.5-1.4-0.2c-0.5,0-0.9,0.1-1.2,0.2c0.1,0.4,0.1,0.7,0.2,1.1c0.5,0.1,1.9,0,2.5-0.4c0.1,0.1,0.2,0.6,0.4,0.7
			c-0.3,0.6-1.6,0.8-2.3,1.1c0.1,0.8,0.2,0.6,0.5,1.1c0.8-0.2,1.4-0.3,1.8-0.9c0.1,0.1,0.2,0.6,0.4,0.7c0,1.9-0.6,1.3-1.8,1.9h-0.4
			c0.1,0.7,0.3,0.6,0.5,1.1c0.8,0,1.2,0,1.6-0.4h0.4c0.1,0.5,0.2,0.8,0.2,1.4c-0.9,0.1-1.2,0.5-1.9,0.7c0.1,0.4,0.1,0.4,0.2,0.7
			c1.1,0.2,1.2-0.2,2.1-0.4c0,0.6,0.1,1.1,0.4,1.4c-0.2,0.6-1.3,1.2-2.1,1.1c-0.1,0.1-0.1,0.1-0.2,0.2c0,0.5,0.1,0.6,0.2,0.9
			c0.9,0.2,1.6,0.2,2.1-0.4h0.4c0.1,0.5,0.2,0.9,0.5,1.2c-0.3,0.7-1.4,1-2.1,1.2c0.1,0.6,0.2,0.5,0.4,0.9c0.8-0.1,1.4-0.4,2.1-0.5
			c0.2,0.4,0.3,0.9,0.5,1.2c-0.1,0.4,0,0.3-0.2,0.5c-0.5,0.4-1.3,0.6-2.1,0.7c0,0.5,0.1,0.6,0.2,0.9c1,0.2,1.7-0.3,2.5-0.2
			c0.1-0.1,0.1-0.1,0.2-0.2c0,0.8,0.1,2.1,0.5,2.6v0.5c-1,0.2-1.7,0.3-2.3,0.9c-0.1,0.1-0.1,0.1-0.2,0.2c0.2,0.2,0.2,0.3,0.4,0.5
			c0.7,0,1.8,0,2.3-0.4h0.2c0.1,0.6,0.2,1.3,0.4,1.9c-1,0.1-1.3,0.4-1.9,0.7v0.4c0.3,0.2,0.1,0.2,0.5,0.4c0.5,0.2,0.6-0.1,1.1-0.4
			c0.1,0.1,0.2,0.2,0.4,0.4c0.1-0.1,0.1-0.1,0.2-0.2h0.4c0,0.9,0.1,1,0,1.8c-0.7,0.1-1.2,0.4-1.6,0.9c-0.1,0.1-0.1,0.1-0.2,0.2
			c0.9,0.7,1.4,0.4,2.3-0.2c0.2,0.4,0.3,0.9,0.5,1.2c-0.1,1.1-0.6,1.1-1.4,1.4c-0.1,0.5-0.2,0.5,0,0.9v0.4c0.9,0,1.4-0.2,1.8-0.7
			c0.3,0.3,0.4,0.7,0.7,1.1c-0.4,0.5-1.6,0.4-2.1,1.4h-0.2c0.1,0.4,0.2,0.4,0.4,0.7c1.2,0,1.7-0.4,1.9-1.2c0.6,0.3,0.5,1,0.9,1.6
			c-0.2,0.7-0.9,1.4-1.4,1.8v0.7c1.1,0.1,1.1-0.2,2.1-0.5c0.1,0.3,0.3,0.8,0.5,1.1c-0.1,0.9-0.6,1.1-1.2,1.4v0.7
			c0.8,0.2,1.1,0.2,1.6-0.4c0.5,0.2,0.6,0.5,0.7,1.1c0.3,0.2-0.9,1.4-1.2,1.6v0.4c0.2,0.2,0.2,0.3,0.4,0.5c1-0.1,1.2-0.4,1.8-0.9
			c0.3,0.7,0.4,1.4,0.9,1.9c-0.1,0.2-0.1,0.4-0.2,0.5h-0.7v0.5c-0.5,0.2-0.6,0.6-1.1,0.9c0.1,0.4,0.1,0.4,0.2,0.7
			c1,0,1.5-0.3,1.8-1.1c0.9,0.2,0.7,1,1.2,1.6c-0.1,1-0.9,1.5-1.6,1.9c0.1,0.4,0.1,0.4,0.2,0.7c0.8,0,1-0.1,1.4-0.5
			c1.3,0.2,1.1,1.4,1.8,2.1c-0.3,0.6-0.8,0.6-1.2,0.5c-0.2,0.3-0.2,0.5-0.5,0.7c0.1,0.4,0.2,0.4,0.4,0.7c0.8-0.1,1.3-0.4,1.9-0.5
			c0.2,0.5,0.4,1,0.7,1.4c-0.2,0.6-0.9,0.9-1.4,1.2c-0.1,0.4-0.1,0.4-0.2,0.7c0.1,0.1,0.1,0.1,0.2,0.2c0.9,0,1.3-0.1,1.8-0.5
			c0.5,0.2,0.7,0.6,0.9,1.2c0.1,0.2,0.1,0,0.2,0.4c-0.5,0.4-0.9,0.8-1.6,1.1c0.1,0.7,0.1,0.7,0.4,1.1c1-0.2,1.1-0.6,1.9-0.9
			c0.2,0.5,0.4,1.2,0.7,1.6c-0.3,0.5-0.9,0.8-1.4,1.1c-0.1,0.4-0.1,0.4-0.2,0.7c0.1,0.1,0.2,0.2,0.4,0.4c1-0.1,1.1-0.3,1.8-0.5
			c0.3,0.6,0.5,1.3,0.9,1.8c-0.1,0.9-0.8,1.4-1.4,1.8c0.1,0.6,0.2,0.5,0.4,0.9c0.8-0.1,1.1-0.2,1.4-0.7c0.8,0.2,0.6,0.7,1.1,1.2
			c-0.2,0.7-0.8,1.1-1.4,1.4c0,0.5,0.1,0.8,0.2,1.1c1,0,1.3-0.2,1.6-0.9c0.4,0.5,0.4,1.2,0.9,1.6c0,1-0.4,1.2-1.1,1.6
			c0,0.4,0,0.5,0.2,0.7c0.4,0.3,1,0.2,1.4,0c0.3,0.7,0.6,1.4,0.9,2.1c-0.4,0.4-0.9,0.7-1.2,1.1c0.1,0.6,0.2,0.5,0.4,0.9
			c0.8-0.1,0.7-0.1,0.9-0.7c0.8,0.5,0.7,2.1,1.2,2.8v0.9c-0.6-0.1-0.6,0-1.4,0c-0.2,0.3-0.2,0.5-0.5,0.7c0.1,0.1,0.1,0.1,0.2,0.2
			c0,0.5,0.1,0.6,0.2,0.9c1,0,1.4-0.2,1.8-0.9h0.4c0.1,0.5,0.2,0.9,0.5,1.2c-0.1,1.1-0.5,1.2-1.1,1.8c0.1,0.4,0.1,0.4,0.2,0.7
			c0.7,0,0.9,0,1.2-0.4c0.7,0.7,0.7,2,1.2,2.8c-0.1,0.1-0.4,0.2-0.5,0.4c-1.5-0.7-2.5-3.2-3.5-4.6c-0.6-0.8-1.6-1.5-2.3-2.3
			c-1.7-2-3-4.3-4.6-6.4c-0.2-0.2-0.5-0.2-0.7-0.4c-1.4-1.4-2.3-3.2-3.7-4.6c-2-2-4.3-3.9-6-6.2c-2.5-3.3-5.2-6.5-7.4-10.1
			c-1.1-1.9-1.7-3.8-2.6-5.8c-0.7-1.4-2-2.9-2.6-4.2c-1.1-2.4-1.2-5.3-2.3-7.8c-1.1-2.6-1.8-5.6-3-8.5c-0.7-1.8-2.1-3.6-3-5.3
			c-0.5-0.9-0.4-1.8-0.9-2.6c-1.1-2.1-2.8-4.7-4.4-6.4v-0.2c3.3,0.1,5.8,1.5,8.3,2.5c2,0.7,4,0.9,5.5,2.1c0.8,0,0.8,0.1,1.1-0.5
			c0.4-1-1.3-0.9-2.1-1.2c-1.9-0.9-6-1.7-7.4-2.8c-0.1-0.2,2.2-4.2,2.6-4.9C393.3,230.6,395.5,225.5,398.4,221.8z M431.1,315.6v0.4
			c-0.1-0.1-0.1-0.1-0.2-0.2c-0.4-0.4-0.3-0.2-0.2-0.7C430.8,315.2,431,315.5,431.1,315.6z M427.5,419.8c0,0.9-0.2,0.9-0.5,1.4
			c-0.6-0.2-1.1-0.6-1.6-0.4c-0.5,0.2-0.3,0-0.5,0.5h-0.2c0.3,0.9,1,1,1.8,0.9c-0.2,1.2-0.6,1.5-0.4,2.3c-0.3,0.2-0.5,0.2-0.7,0.5
			c-0.5-0.1-0.8-0.2-1.1-0.5h-0.9c0,0.6-0.2,0.3,0.2,0.7c-0.3,1.4-2.3,1.2-3.7,1.6c-2.2,0.6-4.4,1-6.9,1.6c-1.3,0.1-2.6,0.1-3.9,0.2
			c-2.7,0.5-6.7,0.4-10.6,0.4c-0.9,0-2.3-0.3-3-0.2c-3.2,0.4-7-0.2-10.6-0.5c-1.6-0.1-4.2-0.1-5.8-0.5h-1.9c-2-0.5-4-0.5-5.8-1.2
			c-1.6-0.7-3.6-1.5-5.1-2.3c-0.9-0.5-1.8-0.4-2.6-0.9c-0.5-0.3-1-0.9-1.4-1.2c-1.1-0.7-2.2-0.8-3.2-1.6c-0.6-0.5-0.5-1-1.4-1.2
			c0.9-5.1,1.6-11.6,3.2-16.8c0.2-1.2,0.4-2.4,0.5-3.5c0.2-0.7,0.9-1,1.1-1.4c0.2-0.6-0.4-0.6-0.4-0.9c0.4-1.6,0.5-4,1.1-5.8
			c1.1-3.8,1.7-7.4,2.6-10.9c0.1-1.1,0.2-2.2,0.4-3.4c0.8-3.1,1.3-7.2,2.1-10.1c-0.1-0.5-0.1-0.9-0.2-1.4c0.1-0.8,0.2-3,0.4-3.5
			c0.6-2.5,0.5-5.8,0.9-8.7c0.1-1.1-0.1-3.6,0.2-4.9c0.2-1,0-2.5,0.2-3.4c0.7-3.3-0.5-7.4,0.2-10.4c-0.1-2.2-0.1-4.4-0.2-6.5
			c0.4-1.6,0.2-4.5,0.4-6.5v-2.8c0.6-2.7,1-7.1,0.9-9.5c-0.1-1.6,0.5-5.1,0.9-6.7c0.6-2.5,0.4-5.1,0.9-7.4v-2.5
			c0.9-4,1.2-8,1.2-12.5c0-3.5,0-6.5,0-9.5c0-0.5,0.3-1.4,0-1.9v-0.4c-0.7,0.2-1.1,0.4-1.9,0.5c0,0.5,0.1,0.9,0.2,1.2h0.9
			c0.1,1.6-0.1,2-1.1,2.5c0.1,0.4,0.1,0.4,0.2,0.7c0.3,0.1,0.6,0.1,0.9,0.2c0,0.7,0,0.6,0,1.4c-0.8,0-1.1,0.1-1.6,0.4
			c0.2,0.8,1,1.1,1.6,1.4c0,0.8,0,1.2-0.4,1.6v0.2c-0.3,0.1-0.2-0.1-0.4-0.2c-0.7,0.1-0.7,0.1-1.1,0.4c0.1,0.4,0.1,0.4,0.2,0.7
			c0.6,0.2,0.7,0.3,1.4,0.4v1.9c-0.5,0-0.8,0-1.1-0.2c-0.5,0-0.8,0.1-1.1,0.2c0.1,1.1,1.2,1.1,2.1,1.4c-0.1,0.3,0,0.2-0.2,0.4
			c0,0.5,0,0.8-0.2,1.1c-0.4,0.3-0.8,0-1.2,0.2c-0.2,0.1-0.4,0.1-0.5,0.2c0.2,0.5,0.4,0.6,0.7,1.1h1.1c0.1,2-0.5,2.1-1.9,2.5
			c0,0.4,0,0.5,0.2,0.7v0.4c0.5-0.1,0.9-0.1,1.4-0.2c0,0.8,0,2.3-0.4,2.8c-0.3,0.1-0.8-0.1-1.2,0.2h-0.4c0.2,0.8,0.5,0.7,0.9,1.2
			h0.7c0,0.8-0.1,0.8,0,1.4c-0.1,0.1-0.2,0.2-0.4,0.4c-0.6,0.4-1-0.2-1.4,0.5h-0.2c0.2,0.5,0.4,0.6,0.7,1.1h0.9c0,0.7-0.1,1,0,1.4
			c-0.7,0.2-1.8,0.3-2.3,0.5v0.4c0.1,0.2,0.1,0,0.2,0.4c0.7,0.2,0.9,0.4,1.6,0.2c0.1,0.1,0.1,0.1,0.2,0.2c-0.1,0.7-0.1,1.4-0.2,2.1
			c-0.1,0.1-0.1,0.1-0.2,0.2c-0.6-0.1-0.5,0-0.7-0.5c-0.7,0.1-0.7,0.1-1.1,0.4c0.1,1.1,0.8,1.3,1.8,1.4c-0.1,0.4-0.1,1.4-0.4,1.8
			v0.7c-0.5,0.1-1-0.1-1.4,0.2h-0.4c0.1,0.9,0.3,0.9,0.7,1.4h0.9c-0.1,0.8-0.1,1.5-0.2,2.3c-0.7,0-1.1,0.1-1.6,0.2
			c-0.1,0.2-0.1,0.4-0.2,0.5c0.5,0.3,1.1,0.5,1.8,0.7c-0.2,0.6-0.3,0.8-0.4,1.6c-0.4,0-0.7,0-0.9-0.2c-0.7,0.1-0.7,0.1-1.1,0.4
			c0.2,1,0.9,1.4,1.8,1.1c-0.1,0.9-0.1,1.9-0.2,2.8c-0.7-0.1-1.4-0.2-2.1-0.4c-0.1,0.2-0.2,0.4-0.4,0.5c0.3,0.2,0.5,0.6,0.7,0.9
			c0.6,0.1,0.8,0.1,1.4,0c0.1,0.1,0.1,0.1,0.2,0.2v1.6c-0.5-0.1-1.2-0.2-1.9-0.2c0,0.5,0.1,0.9,0.2,1.2c0.8,0.1,1.1,0.3,1.6-0.2h0.2
			c0,0.6,0.1,1-0.2,1.4v0.7c-0.5-0.1-0.7-0.2-1.1,0H367c-0.1,0.5-0.2,0.7,0,1.1c0.5,0.9,1.2,0.5,1.9,0.4c0,0.8,0,1,0,1.6
			c-0.1,0.2-0.1,0-0.2,0.4c-0.4-0.1-0.5-0.1-0.7-0.4c-0.7,0-0.8,0.1-1.2,0.4c0,0.5,0.1,0.6,0.2,0.9c0.5,0.2,0.9,0.4,1.8,0.4v1.9
			c-1.1,0-1.3,0.2-1.9,0.5c0.1,0.4,0.2,0.4,0.4,0.7c0.7,0,1,0.2,1.4,0h0.2v1.6c-0.6,0.1-1.4,0.4-1.9,0.7c0,0.4,0,0.5,0.2,0.7v0.4
			c0.8,0,1.2,0,1.6-0.4h0.2c0.1,2.6,0.2,2.9-1.9,3.4v0.7c0.6,0.1,1.3,0.5,1.8,0.2h0.2c0,0.5,0,0.8-0.2,1.1c-0.6,0.5-1,0.2-1.9,0.2
			c-0.1,0.4-0.1,0.4-0.2,0.7c0.1,0.2,0.1,0,0.2,0.4c0.7,0.2,1.2,0.5,1.9,0.2c0.1,2.2-0.9,1.7-2.1,2.1c0.1,0.7,0.1,0.7,0.4,1.1
			c1,0,1.4,0.1,1.8-0.5h0.2c-0.2,0.8-0.2,2-0.2,3c-0.5,0-0.7,0.1-0.9,0c-0.7,0-0.8,0.1-1.2,0.4v0.7c0.6,0.2,1.2,0.6,1.8,0.2
			c0.5,0.3,0.3,0.1,0.2,0.5c0,0.7,0.1,1.7-0.2,2.1c-0.3,0.2-0.9,0.2-1.4,0.2c-0.1,0.1-0.1,0.1-0.2,0.2v0.9c0.6,0.1,1.2,0.1,1.8,0.2
			c0,0.7-0.1,1-0.4,1.4c-0.5,0.6-1.1,0.4-1.8,0.7c0.1,0.9,0.3,0.7,0.7,1.2h1.2c0,1.8-1,1.5-2.1,1.9c0.1,0.6,0.2,0.5,0.4,0.9
			c0.7,0.1,0.9,0.1,1.6,0c0,0.5,0,0.8-0.2,1.1c0,1.1-0.6,1.5-1.2,0.9c-0.5,0-0.8,0.1-1.1,0.2c0,0.7,0.1,0.8,0.4,1.2h1.9
			c-0.1,0.1-0.1,0.1-0.2,0.2c0,0.6,0,1.2-0.2,1.6c-0.6,0-0.9-0.1-1.2-0.4c-0.5,0-0.6,0.1-0.9,0.2c0,1.2,0.8,1.6,1.9,1.6
			c-0.1,0.8-0.1,1.5-0.2,2.3c-0.4,0-0.5,0-0.7-0.2c-0.8,0-1,0.1-1.4,0.4v0.4c0.1,0.2,0.1,0,0.2,0.4c0.5,0.1,1.1,0.2,1.6,0.4
			c0,0.4,0,0.7-0.2,0.9c-0.3,0.6-1.1,0.7-1.9,0.7c-0.1,0.3,0,0.2-0.2,0.4c0.1,0.7,0.2,0.7,0.4,1.2c0.6,0,0.8,0.1,1.1,0h0.4
			c-0.1,0.8-0.3,1.5-0.5,2.1c-0.5,0.1-0.8,0.2-1.4,0.2c-0.1,0.4-0.1,0.4-0.2,0.7c0.1,0.1,0.2,0.2,0.4,0.4c0.4,0.1,0.8,0.1,1.2,0.2
			c0,0.7-0.1,1.5-0.4,1.9v0.4c-0.4,0-0.7,0-0.9-0.2c-0.6,0-1.1,0.1-1.4,0.2c-0.1,0.2-0.1,0.4-0.2,0.5c0.1,0.1,0.2,0.2,0.4,0.4
			c0.4,0.4,1.1,0.5,1.9,0.5c-0.1,0.8-0.3,1.1-0.4,2.1c-0.1,0.1-0.1,0.1-0.2,0.2c-0.6-0.1-1.2-0.2-1.8-0.4c-0.2,0.2-0.4,0.4-0.7,0.5
			c0.3,0.9,1.1,1.1,2.3,1.1c-0.1,0.7-0.2,1.4-0.4,2.1c-0.7-0.2-1.5-0.1-2.3,0c-0.1,0.1-0.1,0.1-0.2,0.2c0.1,1.2,1,1.2,1.9,1.1
			c0,0.8-0.1,1.5-0.5,1.9c-0.5,0.4-0.7,0.3-1.1,0c-0.7,0.1-0.7,0.2-1.2,0.4c0.1,0.1,0.1,0.1,0.2,0.2c0.2,0.7,0.5,0.6,0.9,1.1h1.1
			c-0.1,0.6-0.2,1.3-0.4,1.9c-0.5,0-1.1,0-1.4,0.2c-0.5,0.2-0.3,0-0.5,0.5h-0.2c0.1,0.4,0.2,0.4,0.4,0.7c0.5,0,0.9-0.1,1.2-0.2
			c0.1,0.1,0.1,0.1,0.2,0.2c-0.2,0.8-0.4,1.6-0.5,2.5c-0.5-0.2-1.1-0.5-1.6-0.7c-0.2,0.2-0.3,0.2-0.5,0.4c-0.1,0.2-0.1,0.4-0.2,0.5
			c0.6,0.5,1.2,0.9,2.1,1.2c0,0.6-0.1,1.1-0.4,1.4v0.4c-1.1,0-1.3-0.3-2.1-0.5c-0.2,0.2-0.3,0.2-0.5,0.4c0.1,1.2,1.3,1.2,2.1,1.6
			c-0.1,0.4,0,0.3-0.2,0.5c-0.5,0.2-1.3-0.2-1.9-0.4c-0.2,0.1,0,0.1-0.4,0.2c0.1,1.1,1,1.6,2.1,1.6c-0.1,0.3-0.2,0.6-0.2,1.1
			c-6.6-0.3-13-2.2-17.5-4.8c-0.2-0.2-0.4-0.5-0.5-0.7c-1.6-1-3.8-1.8-4.4-3.7c-0.4-0.7-0.1-2.4,0.2-3.4c0.4-1.1,1-2.5,1.4-3.5
			c0.6-1.5,0.5-3.1,1.1-4.6c1.9-5.2,3.5-10.7,5.7-15.7c0.5-1.2,0.3-2.3,0.7-3.5c1.3-3.8,2.3-8.5,3.5-12.5c1.8-5.9,1.5-12.9,3-19.1
			v-2.3c0.6-2.6,0.5-6,1.1-8.1c0.5-2.2,0-5,0.5-7.1v-4.1c0.9-4.1,0.5-8.8,1.4-12.7V293c0.7-3.1,0.5-7,1.2-10.2
			c0.1-1.9,0.1-3.8,0.2-5.7c0.2-0.7,0-2,0.2-2.8c1.3-5.5,0.3-10.5,2.3-15.9c2.3-6.2,7.4-9.8,12.4-13.4l2.1-2.1
			c2.7-2,5.2-4.1,7.8-6.2c1.3-1,2.2-2.7,3.5-3.7c1.8-1.4,3.2-3.1,4.9-4.4c1.3-1,2.6-1.8,3.5-3.2h0.4c-0.4,1.4-1.3,2.6-1.9,3.7
			c-0.5,0.8-0.6,1.8-1.1,2.6c-1.5,2.5-3.2,5-4.6,7.6c-2.1-0.3-4.1-1.2-6.2-1.1c-0.1,0.1-0.1,0.1-0.2,0.2c0.2,1.5,2.8,3.7,3.7,4.9
			c1.3,1.8,1.9,4,3,6c0.8,1.5,1.9,3.2,2.6,4.8c0.6,1.3,0.5,2.5,1.1,3.9c0.9,2.2,2.1,4.8,2.8,7.1c0.6,1.6,0.4,3,1.1,4.4
			c0.9,2.2,2.5,4.2,3.5,6.2c0.1,0.4,0.1,0.7,0.2,1.1c1,2.3,2.6,4.4,3.9,6.4c0.4,0.6,0.5,1.3,0.9,1.9c0.6,0.6,1.2,1.2,1.8,1.8
			c3,4.1,6.4,7.6,9.5,11.5c0.8,1,2.2,1.8,3,2.8c3.5,4.6,7,8.9,10.4,13.6c1.2,1.6,2.9,3,3.9,4.8c0.4,0.7,0.4,1.7,0.7,2.1v0.4
			c-0.3-0.1-0.2,0-0.4-0.2c-0.7,0.1-0.7,0.1-1.1,0.4c0.1,0.7,0.3,0.8,0.5,1.2h1.2c0.1,0.7-0.1,1.6,0.4,2.3v0.2
			c-0.6-0.1-1-0.4-1.4-0.2c-0.4,0.2-0.3,0.2-0.5,0.4c0.1,0.4,0.1,0.4,0.2,0.7c0.6,0.1,1.2,0.1,1.8,0.2c0.1,0.3,0.2,1,0.4,1.2v1.9
			c-0.5-0.2-0.7-0.4-1.2-0.5l-0.5,0.5c0.1,0.7,0.3,0.6,0.5,1.1h1.4c0.1,0.9,0.1,1.9,0.2,2.8c-0.6-0.1-1-0.3-1.4,0
			c-0.2,0.1-0.4,0.1-0.5,0.2v0.4c0.1,0.1,0.2,0.2,0.4,0.4c0.4,0.3,0.9,0.4,1.6,0.4c0,1.1,0.5,1.9,0,2.6c-0.2,0.1-0.2,0.1-0.5-0.2
			c-0.7,0.1-0.7,0.1-1.1,0.4v0.4c0.5,0.4,0.8,0.9,1.6,1.1v2.5c-0.3-0.1-0.2,0-0.4-0.2c-0.5,0-0.9,0.1-1.2,0.2c0.1,1,0.3,1.1,1.4,1.1
			c0.1,0.1,0.1,0.1,0.2,0.2v1.8c-0.4-0.1-0.3,0-0.5-0.2c-0.7,0.1-0.7,0.1-1.1,0.4c0.1,0.9,0.7,1.5,1.6,1.6c0.2,0.9,0.2,1.1,0.2,2.1
			c-0.9,0-1.4,0.1-1.9,0.4c0.1,0.7,0.1,0.7,0.4,1.1c0.5-0.1,1.1-0.1,1.6-0.2v2.8c-0.1-0.1-0.2-0.2-0.4-0.4c-0.9,0-0.9,0.2-1.4,0.5
			c0.3,0.7,1,1,1.8,1.2c0.1,0.6,0.1,1.3,0.2,1.6v0.2c-0.5,0.1-1,0-1.2,0.2c-0.2,0.1-0.4,0.1-0.5,0.2c0.1,0.7,0.1,0.7,0.4,1.1
			c0.9,0,0.5,0,1.4-0.2c0,0.8,0.1,2.4,0,2.6v0.4c-0.4-0.1-0.6-0.2-0.9-0.4c-0.7,0-0.8,0.1-1.2,0.4c0.1,0.6,0.2,0.5,0.4,0.9
			c0.4,0.2,0.8,0.3,1.8,0.4c0.3,4.8,0.2,9.1-0.4,14.1c-0.5-0.3-0.9-1.1-1.8-0.5c-0.2,0.1-0.4,0.1-0.5,0.2c0.1,0.6,0.2,0.5,0.4,0.9
			c0.7,0.2,1,0.3,1.9,0.4c-0.1,0.9-0.1,1.9-0.2,2.8c-0.7-0.1-1.1-0.2-1.6,0.2c-0.6,0.1-0.4-0.1-0.7,0.4h-0.2
			c0.1,0.4,0.2,0.4,0.4,0.7c0.9,0,1.4-0.1,1.9-0.4c0.2,0.8,0.2,3.6-0.5,4.6c-0.1,0.2-0.8-0.3-1.1-0.5c-0.6,0.1-0.5,0.2-0.9,0.4
			c0.1,0.4,0,0.3,0.2,0.5c0.3,0.7,1,1,1.8,1.2c0,0.9,0,1.6-0.2,1.9c0,0.5-0.1,0.8-0.2,1.1c-0.6-0.1-0.6,0-0.9-0.4
			c-0.6,0-1.2,0-1.6,0.2c0.1,1.2,1.1,1.3,2.5,1.2c-0.2,1.1-0.4,2.3-0.4,3.7c-0.5-0.1-0.8-0.1-1.1-0.4c-0.6,0-1.2,0-1.6,0.2
			c0.3,1.4,1.7,0.8,2.3,1.8c0.2,0.4-0.1,3-0.5,3.5c-0.3,0.2-1.5-0.3-1.8-0.2c-0.5,0-0.6,0.1-0.9,0.2v0.4c0.3,0.3,0.8,0.5,1.1,0.9
			h1.4c0,1.4-0.2,2.2-0.4,3.4c-1.1-0.1-1.6-0.5-2.5-0.7c-0.2,0.2-0.3,0.2-0.5,0.4c0.1,0.4,0,0.3,0.2,0.5c0.4,0.7,1.9,1.3,2.6,1.1
			c-0.1,0.9-0.3,2.4-0.7,3c-0.4,0.2-2-0.4-2.6-0.4c-0.1,0.1-0.1,0.1-0.2,0.2c0.2,1,1.4,1.5,2.5,1.6c-0.2,1.2-0.5,2.4-0.7,3.5
			c-0.9-0.1-1.6-0.6-2.3-0.2c-0.4,0.2-0.1-0.1-0.4,0.4h-0.2c0.1,0.4,0.2,0.4,0.4,0.7c0.9,0.2,1,0.2,2.1,0.2
			c-0.1,1.3-0.6,2.3-0.7,3.5c-0.9-0.2-1.4-0.4-2.3-0.4c-0.1,0.1-0.1,0.1-0.2,0.2c0.1,0.7,0.1,0.7,0.7,0.9c0.3,0.2,0.8,0.3,1.2,0.4
			C427.7,419.2,427.7,419.5,427.5,419.8z M500.7,391.2c-0.6,0.4-1.1,1.2-1.8,1.6c-2.2,1.2-8.7,3.6-12.2,3.2
			c-1.1-0.1-2.2-0.7-3.4-0.9c-0.4-2.5-1.2-5-1.9-7.2l-0.5-3.7c-0.3-1.1-0.8-2.6-1.1-3.7c-0.6-2.2-0.4-4.2-1.1-6.4
			c-2.4-8.4-4.1-17.2-6.7-25.4c-0.5-1.6-0.3-3-0.7-4.6c-0.8-3-1.4-6.3-2.1-9.5c-0.1-1.1-0.1-2.2-0.2-3.4c-0.3-1.5-0.5-3.5-0.9-4.9
			c-0.7-3.2-0.2-6.1-0.9-9.2c-0.1-1.8-0.2-3.6-0.4-5.5c-1.7-7.4-0.8-16.3-2.5-23.8c-0.6-2.7-0.2-4.9-0.7-7.1
			c-0.8-3.4-0.3-7.3-1.1-10.4c-0.2-0.8,0-1.8-0.4-2.5c0-0.9,0-2-0.2-2.6h-0.7c-0.5,2.6,0.5,8.4,1.1,10.9c0.1,1.4,0.1,2.7,0.2,4.1
			c1.1,4.7,0.7,10.1,1.8,14.8v2.5c0.4,1.8,0.1,3.7,0.5,5.7c0,0,0.4,1,0.4,1.1c0,1.6-0.3,3.8,0.2,5.7c1,3.9,0.4,7.3,1.4,11.7
			c0.1,1.4,0.1,2.8,0.2,4.2c0.8,3.3,0.8,7.4,1.6,10.8v1.6c0.6,2.1,1.2,4.7,1.8,6.9l0.5,3.7c2.8,9.3,4.7,19.2,7.4,28.6v1.4
			c0.5,1.7,1,4,1.4,5.7c0.3,1.2,0,2,0.4,3c1.4,4.2,2.1,8.9,3.4,13.4c0.8,2.8,2,4.6,1.9,8.1c-5.5,5.2-13.1,9.5-20.8,12.4
			c-2.8,1-6.1,1.6-9,2.3h-2.1c-1.4,0.3-4,0.9-5.5,0.9c-0.9,0-3.4-0.1-4.6,0.2c-0.7-0.1-1.4-0.1-2.1-0.2c-0.5,0.1-2.3,0.4-2.8,0.4
			c-0.9-0.1-1.8-0.3-2.8-0.4c-0.6,0-1.7,0.2-1.9,0.2c-1.9-0.3-3.7-1.4-5.7-1.8c0.4-3.1,1.3-5.7,2.1-8.3c1-3,1.1-6.1,1.9-9
			c0.7-2.4,0.3-4.6,0.9-7.1c1.4-5.4,1.4-13.2,2.3-19.4c0.1-0.9-0.3-2.7,0-4.1c0.5-2-0.2-4.5,0.4-6.7c0.4-1.7,0.6-6.5,0.2-8.5
			c-0.1-0.6,0-5.2-0.2-6.4c-0.4-1.9-0.3-4-0.2-6c0.3-3.8-0.6-8.9,0-12.5c0.1-0.6-0.1-1.1-0.2-1.4v-3.4c-0.3-1.3-0.4-2.6-0.7-4.1
			v-2.1c-0.1-0.4-0.4-1.4-0.5-1.9c0.1-0.5,0.2-1.1,0.4-1.6c-0.2-0.1-0.4-0.1-0.5-0.2c-0.1-0.5-0.1-0.9-0.2-1.4
			c-0.8-1.8-1.7-4.1-2.5-5.8c-0.2-1-0.5-2-0.7-3c-0.5-1.2-3-7.4-2.8-8.7c0.1-0.4,0.6-0.8,0.7-1.1c0.7-1.5,0.6-3.2,1.2-4.8
			c1-2.3,2.4-4.7,3.5-6.9c0.8-1.5,1.1-3.8,2.1-5.1c1.6-2.1,3.1-4.7,4.4-6.9c0.2-0.4,0.1-0.9,0.4-1.2c1.2-1.7,2.2-3.7,3.4-5.5
			c0.3-0.3,0.6-0.6,0.9-0.9c0.9-1.6,1.6-3.1,2.6-4.6c0.6-0.6,1.2-1.2,1.8-1.8c-0.1-0.2-0.1-0.4-0.2-0.5c0.1-0.2,0.5-0.9,0.7-1.1
			c3.1-3.6,5.4-7.6,7.8-12c0.7-1.4,1.9-2.8,2.3-4.6c0.8,0.4,1.1,1.1,1.8,1.6c-0.5,0.4-1.1,0.7-1.6,1.1c0.1,0.7,0.2,0.7,0.5,1.1
			c0.9-0.1,1.4-0.5,1.6-1.2c0.6,0.3,0.9,0.7,1.4,1.1c-0.2,0.7-0.9,1.2-0.5,1.9v0.4c1.1,0,1.3-0.1,1.4-1.1c0.5,0.3,1.1,0.6,1.6,0.9
			c-0.5,0.6-1.2,0.9-1.6,1.6c0.2,0.2,0.4,0.4,0.5,0.7c1.2-0.1,1.2-0.6,1.8-1.2c0.1-0.1,0.1-0.1,0.2-0.2l1.1,1.1
			c-0.2,0.5-1,0.9-1.4,1.2c0,0.7,0,0.4,0.2,1.1c1-0.1,1.6-0.6,1.8-1.4h0.2c0.4,0.4,0.8,0.8,1.2,1.2c-0.5,0.4-1.1,0.9-1.6,1.2
			c0.1,0.4,0,0.3,0.2,0.5c0.1,0.2,0.1,0.4,0.2,0.5c1.2-0.2,1.3-0.9,2.1-1.4c0.3,0.6,0.6,1.2,1.1,1.6c0,0.2-1.3,1.1-1.8,1.4
			c0.1,0.4,0.1,0.5,0.4,0.7c0.2,0.1,0.5,0.3,0.7,0.4c0.3-0.6,0.8-1.1,1.4-1.4c0.3,0.6,0.6,1.3,1.1,1.8c-0.6,0.5-1.3,0.9-1.9,1.2
			c0.2,0.5,0.2,0.5,0.5,0.7c0.5,0.2,1.3-0.4,1.9-0.7c0.4,0.7,0.6,1.6,1.1,2.3v0.4c0,0-0.4-0.3-0.7-0.2c-0.5,0.2-0.8,0.8-1.2,1.1v0.4
			c0.2,0.2,0.2,0.3,0.4,0.5c1.1-0.1,1.3-0.4,1.9-0.9c0.2,0.6,0.5,1.3,0.7,1.9c-0.3,0.6-0.7,0.4-0.9,0.5c-0.2,0.2-0.5,0.5-0.7,0.7
			c0,0.5,0.1,0.8,0.2,1.1c1-0.2,1-0.6,2.1-0.7c0.2,1.9,0.7,1.2-0.7,2.1c-0.3,0.3-0.6,0.6-0.9,0.9c0.1,0.6,0.2,0.5,0.4,0.9
			c1-0.2,1.2-0.6,2.1-0.9c0.2,0.3,0.3,1.1,0.5,1.4c-0.1,0.2-1.4,0.8-1.9,1.1c0.1,0.4,0,0.3,0.2,0.5c0.2,0.5,0,0.3,0.5,0.5
			c0.2,0.1,0.8-0.1,1.1-0.5c0.4,0.1,0.3,0,0.5,0.2c0.1,0.1,0.2,0.4,0.4,0.5c-0.4,0.4-1.3,0.6-1.9,0.9c0,0.8-0.1,0.8,0.5,1.1
			c0.6,0.3,1-0.4,1.8-0.5c0,0.7,0.1,1.2,0.4,1.6v0.7c-0.3-0.8-1.6,0.6-1.8,0.7c0.1,0.7,0,0.7,0.5,0.9c0.6,0.2,0.8-0.4,1.6-0.5
			c0.1,0.5,0.1,1.1,0.4,1.4c-0.1,0.3,0,0.2-0.2,0.4v0.2c-0.1-0.1-0.2-0.1-0.4-0.2v0.2c-0.8,0.1-0.8,0.2-1.2,0.5
			c0.1,0.7,0.1,0.7,0.7,0.9c0.2,0.2,0.7-0.3,1.4-0.4c0,0.5,0,0.8,0.2,1.1c-0.2,0.4-1.2,1-1.6,1.2c0.1,0.4,0,0.3,0.2,0.5
			c0.1,0.2,0.1,0.4,0.2,0.5c0.8-0.1,0.9-0.3,1.4-0.7c0.1,0.3,0,0.2,0.2,0.4v1.1c-0.3-0.1-0.2,0-0.4-0.2c-0.8,0.2-1.2,0.7-1.8,1.1
			c0.1,0.7,0.1,0.7,0.7,0.9c0.3,0.2,0.9,0,1.2-0.4h0.5c0.1,0.4,0.2,1,0.4,1.2v0.5c-1.1-0.2-1.4,0-2.1,0.5c0.2,1.2,1.3,1,1.9,0.4h0.4
			c0.1,0.6,0.1,1.2,0.2,1.8c-0.5,0.1-0.9,0.1-1.4,0.2c-0.1,0.3,0,0.2-0.2,0.4c0.1,0.6,0,0.4,0.4,0.7c0.2,0.1,0.9,0.3,1.2,0
			c0.5,0.3,0.6,0.8,0.5,1.6c-1.1,0-1.3,0.2-1.9,0.5c0.1,0.4,0,0.3,0.2,0.5v0.4c0.8,0,1.5,0,1.9-0.4c0.3,0.3,0.3,1,0.5,1.4v0.7
			c-1.2-0.4-1.4,0.4-2.3,0.7c0.1,0.7,0,0.7,0.5,0.9c0.6,0.2,1.3-0.4,2.1-0.5c0,0.4,0,0.7,0.2,0.9c-0.5,0.7-1.4,0.3-1.8,1.2h-0.2
			c0.2,0.5,0.3,0.5,0.5,0.9c0.9-0.1,0.7-0.2,1.6-0.2c0.1,0.1,0.1,0.1,0.2,0.2v1.2c-0.4,0.1-0.3,0-0.5,0.2c-0.7,0.1-0.7,0.1-1.1,0.4
			c0.1,0.8,0.2,0.8,0.5,1.2c0.4,0,0.5,0,0.7-0.2h0.7c0.1,0.4,0.1,0.7,0.2,1.1c-0.4,0-0.5,0-0.7,0.2c-0.5,0.2-0.5,0.3-0.9,0.5v0.7
			c0.5,0.1,1,0.3,1.4,0h0.4c0,0.5,0.1,0.6,0.2,0.9c-0.6,0.3-1,0.7-1.6,0.9c0.1,0.4,0.1,0.4,0.2,0.7c0.8,0.1,0.9,0.2,1.4-0.2
			c0.3,0.5,0.2,1.4,0.5,1.9c-0.2,0.8-0.4,0.8-1.2,0.9c-0.1,0.3,0,0.2-0.2,0.4v0.7c0.6,0.2,0.9,0.5,1.4,0.2c0.6,0.4,0.4,1,0.7,1.6
			c-0.2,0.4-1.2,0.4-1.9,0.5c-0.1,0.6,0,0.4,0,1.1c0.8,0.1,1.4,0.3,1.9-0.2h0.2c0.1,0.4,0.2,0.8,0.4,1.1c0,1.5-1,1.3-1.9,1.8
			c0.2,0.5,0.2,0.5,0.7,0.7c0.4,0.2,1,0.1,1.2-0.2h0.4c0.1,0.3,0,0.2,0.2,0.4c0,1.3-0.8,1.2-1.6,1.6c-0.1,0.3-0.1,0.6-0.2,0.9
			c0.8,0.1,1.4,0.2,2.1,0c0.2,0.5,0.2,1.4,0.5,1.8v0.9c-0.5-0.1-0.8-0.1-1.2,0.2c-0.2,0.1-0.4,0.1-0.5,0.2c0.1,0.3,0.1,0.6,0.2,0.9
			c0.9,0.2,1.1,0,1.9-0.2c0.1,0.6,0.2,1.2,0.4,1.8c-0.5,0.2-0.8,0.3-1.6,0.4c-0.1,0.3,0,0.2-0.2,0.4c0,0.5,0.1,0.6,0.2,0.9
			c0.6,0.1,0.8,0.3,1.2-0.2c0.5,0.2,0.5,0.2,0.7,0.7h0.2c-0.3,0.7-0.8,0.8-1.2,1.4h-0.5v0.7c0.7,0.2,1.3,0.3,1.8-0.2
			c0.4,0.2,0.4,0.6,0.7,0.9c0,1.6-0.9,1.6-1.9,1.9c0.1,0.7,0.1,0.7,0.4,1.1c0.8,0,1.1,0,1.4-0.4c0.4,0.1,0.3,0,0.5,0.2
			c0.1,0.1,0.2,0.6,0.4,0.7c-0.2,0.7-1,0.9-1.6,1.2c0.1,0.6,0.2,0.5,0.4,0.9c0.8-0.1,0.9-0.3,1.8-0.4c0,0.7,0.2,1.3,0.5,1.8
			c-0.2,0.8-1.3,1.1-1.9,1.4c0.2,0.3,0.5,0.6,0.7,0.9c0.9-0.1,1-0.2,1.8-0.4c0.1,0.5,0.1,0.9,0.4,1.2c-0.3,0.7-1.5,1.1-2.1,1.4v0.4
			c0.1,0.2,0.1,0,0.2,0.4c1.2,0.2,1.4-0.2,2.5-0.4c0.1,0.5,0.1,0.9,0.4,1.2v0.4c-0.4,0.1-0.8,0.1-1.2,0.2c-0.6,0.2-0.7,0.8-1.4,1.1
			v0.4c1.3,0.1,2,0.1,3.2,0c0,0.6,0.1,0.9,0.4,1.2c-0.1,1-1.3,1.3-1.9,1.8c0.1,0.1,0.1,0.2,0.2,0.4c1,0.4,1.2,0.1,2.3,0
			c0.2,0.8,0.4,1.6,0.5,2.5c-0.8,0.1-0.9,0.1-1.1,0.7h-0.2c0.1,0.4,0.2,0.4,0.4,0.7c0.8,0,0.7,0.2,1.1-0.2c0.5,0.2,0.5,0.4,0.5,1.1
			c-0.4,0-0.5,0-0.7,0.2c-0.7,0.1-0.7,0.1-1.1,0.4c0.1,0.6,0.2,0.5,0.4,0.9c0.9,0,1.2-0.1,1.8-0.4c0.3,0.7,0.4,1.7,0.9,2.3
			c-0.3,0.7-1.1,0.3-1.8,1.1c-0.1,0.1-0.1,0.1-0.2,0.2c0.4,0.3,0.5,0.5,1.1,0.7c0.1,0.1,0.8-0.2,1.2-0.4c0.3,0.5,0.5,1.2,0.9,1.6
			c-0.3,0.7-1.3,1.1-1.9,1.4v0.7c1,0.2,1.6,0,2.6-0.2c0.1,0.4,0.1,0.7,0.2,1.1c-0.9,0.2-1.2,0.6-1.9,0.9c0.1,0.4,0,0.3,0.2,0.5
			c0.6,0.5,1.5,0.4,1.9-0.2c0.7,0.4,0.6,1.4,1.1,1.9c-0.1,0.8-0.9,0.7-1.8,1.1v0.9c0.9,0.1,1.3,0.3,1.8-0.4h0.4
			c0.1,0.6,0.3,1.4,0.7,1.8c0,0-1.7,0.8-2.1,0.9c0,0.4,0,0.5,0.2,0.7c0.8,0.6,1.5,0.2,2.3-0.4c0.3,0.6,0.5,1.1,0.5,1.9
			c-1,0.2-1.4,0.6-2.1,1.1c0,0.5,0.1,0.6,0.2,0.9c1,0,1.5-0.1,1.9-0.7h0.5c0.2,0.7,0.4,1.3,0.5,2.1c-1,0.1-1.3,0.6-1.9,1.1
			c-0.1,0.3,0,0.2-0.2,0.4v0.2c1.1,0,1.9,0.1,2.3-0.5c0.5,0.3,0.5,0.7,0.9,1.1c-0.4,0.5-1.6,1.6-2.1,1.9c0.2,0.5,0.3,0.4,0.5,0.7
			c1-0.1,1.4-0.4,1.8-1.1c0.6,0.3,0.8,1.4,1.1,2.1c-0.4-0.1-0.5-0.2-0.9,0c-0.7,0.3-1,1-1.6,1.4c0.1,0.2,0.2,0.4,0.4,0.5
			c0.8,0,1,0,1.2-0.5h0.5C505,388.6,502.4,390,500.7,391.2z M505.9,386.1c0.1-0.2,0.1-0.4,0.2-0.5c0.1,0.2,0.1,0.2,0.2,0.5H505.9z
			 M426,326.4c0.2,1,0.6,1.6,1.1,2.3c0.7,0.2,1.3,0.4,2.3,0.4c0.7-0.8,1.3-1.4,1.9-2.3c-0.1-1.6-0.8-1.9-1.4-2.8
			c-0.5-0.1-1.1-0.2-1.6-0.4c-0.2,0.1-0.3,0.1-0.7,0.2c-0.4,0.4-0.8,0.8-1.2,1.2c-1,0-2.1,0.1-2.6-0.4c-0.6,0.1-0.5,0.2-0.9,0.4
			C423,326.3,425,326.4,426,326.4z M389.4,355.3h-2.6c-1.8-0.4-5-1.1-6.4,0c-0.7,0.4-0.8,1-1.6,1.4c0.3,5.1-0.4,10.8-1.6,15.2
			c-0.5,2.1,0.7,3.9,1.8,4.6c-0.1,5.4-1.6,11.2-3.4,15.2c-0.1,0.6-0.2,1.2-0.4,1.8c-0.9,1.9-2.3,4.4-2.3,7.2h0.5
			c-0.3,0.5,0,0.2-0.5,0.2c0.2,2,3.1,3.7,4.8,4.2c1.1,0.1,2.2,0.2,3.4,0.4c1.9,0.4,6,0.1,8.1-0.4c3.3-0.7,7.2,1,10.2,0.4h2.6
			c1.5-0.5,2.8-1.7,4.1-2.5c1.4-5.5,0.5-12.4,0.5-18.4c0-1.8,0.7-6.2,0-6.9c0.4-1.2,1.3-2.2,1.8-3.4c0.7-1.6,0.8-3.6,1.2-5.3
			c0.5-2,0-5.4,0.9-6.9c0-1.6,0.3-3.8-0.2-5.1C404.3,355.7,395.3,356.8,389.4,355.3z M403.9,381.7c0.6,0.1,1.2,0.2,1.8,0.4v1.8
			c-0.5,0-0.8,0-1.1,0.2c-0.2,0.1-0.4,0.1-0.5,0.2c-0.1,0.2-0.1,0.4-0.2,0.5c0.3,0.3,0.4,0.4,0.9,0.5c0.3,0.1,0.3,0,0.7-0.2
			c0.2,0.5,0.2,1.8,0.4,2.3h-0.2c-0.1,0.1,0,0-0.2,0c-1,0-1,0.2-1.6,0.5v0.4c0.2,0.2,0.2,0.3,0.4,0.5c0.4,0,0.7,0,0.9-0.2h0.7
			c-0.1,0.1-0.1,0.1-0.2,0.2v2.5c-0.3-0.1-0.2,0-0.4-0.2c-0.8,0-0.8-0.1-1.1,0.5h-0.2c0.3,0.9,1,0.8,1.6,0.7c0,1.1,0.1,1.7,0,2.6
			c-0.7,0-0.5,0-1.2,0c-0.2,0.2-0.4,0.4-0.7,0.5c-0.1,0.2-0.1,0.4-0.2,0.5c0.2,0.2,0.2,0.3,0.4,0.5c0.6-0.1,1.3-0.3,1.6-0.2h0.4
			c-0.1,0.8-0.1,1.5-0.2,2.3c-1.2,0-1.5,0.1-2.1,0.5c0.1,0.4,0,0.3,0.2,0.5c0.4,0.7,1.2,0.4,1.6,0.2h0.2v2.1
			c-0.8-0.2-1.3-0.3-1.9-0.4c-0.2,0.3-0.2,0.1-0.4,0.5c-0.1,0.2-0.1,0-0.2,0.4c0.3,0.2,0.1,0.2,0.7,0.4v0.4c-0.5,0.3-1,0.9-1.6,1.1
			c-2.6,0.1-5.3,0.1-7.9,0.2c-1.3-0.3-3.6-0.7-5.3-0.4c-1.7,0.4-7.7,0.8-9.5,0.4c-2.2-0.6-3.4-2.2-5.3-2.8c-0.4-3.4,1.1-5.7,2.3-8.7
			c1.2-3,1.9-6.5,2.8-9.9c0.1-0.8,0.1-1.6,0.2-2.5c0.3-1,0.7-2.1,0.7-3.4c1,0.2,1.9,0.7,2.8,0.9c1,0.2,2.5,0.1,2.8,0.2
			c1.5,0.2,3.6-0.4,4.9-0.7c2.2,0.1,4.4,0.1,6.5,0.2c0.5-0.1,1.1-0.2,1.6-0.4c2.5,0.1,4.5,1.1,6.9,1.2c0.1,0.7,0.1,1.4,0.2,2.1
			c-0.6,0-1.1-0.1-1.4-0.4c-0.4,0.1-0.4,0.1-0.7,0.2C403.7,381.1,403.8,381.3,403.9,381.7z M409.4,362.8c-0.6-0.2-1.8-0.4-2.3,0.5
			h-0.2c0.2,0.5,0.3,0.5,0.5,0.9c0.8,0,1.2-0.1,1.6-0.5c0.5,0.3,0.3,0.1,0.2,0.5c0,0.5,0,1.1-0.2,1.4c-0.8,0.5-1.9,0.3-2.5,1.1
			c0.2,0.2,0.5,0.5,0.7,0.7c0.9,0,1.1,0,1.4-0.5h0.4c-0.1,0.3-0.2,1-0.4,1.2c-0.4,0.7-1.3,0.8-1.9,0.7c-0.1,0.1-0.1,0.1-0.2,0.2
			c0,0.7,0.1,0.8,0.4,1.2c0.7,0,0.9,0,1.2-0.4c0.5,0.3,0.2,0.6,0.2,1.4c-0.9,0.1-1.8,0.2-2.6,0.4c-0.1,0.1-0.1,0.1-0.2,0.2
			c0.1,0.7,0.3,0.6,0.5,1.1c1,0,0.8-0.1,1.8-0.2c-0.1,0.8-0.3,1.6-0.7,2.1c-0.5,0.2-1.8-0.4-2.5,0c-0.2,0.1-0.4,0.1-0.5,0.2v0.9
			c0.9,0.1,1.6,0.5,2.1,0h0.2c-0.2,0.6-0.4,1.1-0.9,1.4c-1.5,0.6-5.1-1.5-7.6-0.9c-1.2,0.3-2.2,0.5-3,0.4c-0.7-0.1-2.7-0.4-3.4-0.4
			c-5.8,0.7-8.4,1.3-12.7-1.4c-0.8-3.5,0.1-7.3,0.9-10.6c0.3-1.2,0-3.2,0-3.9c0-0.9,0.3-2,0.4-3.5c1-0.2,1.1-0.8,1.9-1.1
			c0.6-0.2,1.6,0.1,1.9,0.2c0.5-0.1,0.9-0.1,1.4-0.2c1.6,0.4,3,0.1,4.6,0.5c0.3,0.1,1.1,0.5,1.4,0.5c0.4-0.1,0.8-0.1,1.2-0.2
			c2,0.4,3.9,0.5,6.4,0.5c1.4-0.1,2.7-0.1,4.1-0.2c1.9,0.4,4.4,0.5,6.5,0.7c0.2,0.7,0.2,1.7,0,1.9c-0.2,0.2-0.4,0-0.7-0.2
			c-0.8,0.1-0.8,0.2-1.2,0.5c0.4,0.5,1.2,0.9,2.1,0.9C409.6,361.6,409.5,362.2,409.4,362.8z M451.7,355.9c-1.2,0.8-3.5,0.9-5.1,0.9
			c-0.9,0-1.9-0.6-2.6-0.2h-1.4c-0.4,1.8,0,3.2-0.2,4.8c-0.5,3.4-1.2,10.9-0.2,13.6c0.4,1,1.4,1.7,2.5,2.1c-0.1,2.1-0.7,4.5-0.9,6.4
			c-0.2,1.9,0.2,5.5-0.4,7.8c-0.5,2.1-0.8,4.6-1.2,6.7c-0.4,2,1.1,6.4,0.2,7.9c0.4,2.2,4.3,2.7,7.2,2.3c2-0.3,4.8-0.6,6.7-1.1
			c1-0.2,2.7,0.2,3.5,0.4c1.6,0.4,4-0.1,5.1-0.5c0.4-0.2,1.3-0.5,1.8-0.7c1.5-0.8,3.9-7.1,3-10.4c-0.4-1.6-1.4-5.3-1.4-7.2
			c0-0.2,0.2-1.4,0-2.1c-0.2-0.7-0.7-2.5-0.7-3.4c0.1-2.2,0.2-7.4-0.9-9c0.3-1.5,1.7-2.2,2.1-3.5c1.3-3.8,0.3-12.9-2.8-14.1
			c-2-0.8-5.2-0.4-7.1-0.2C456.6,356.1,454.2,356,451.7,355.9z M466.9,386.1c0.1,0.8,0.2,1.5,0.4,2.3c-1.1,0.1-1.3,0.3-2.3,0.7v0.9
			c0.8,0.1,1.6,0.2,2.5,0.4c0.2,0.6,0.2,1.9,0.5,2.5c-0.2,0.5-0.4,0.8-0.7,1.2c-0.5,0.1-0.8,0.3-1.4,0.4v0.5c1.1,0.3,1.4,0.2,2.5,0
			c0.1,0.6,0.1,1.2,0.2,1.8c-0.7,0.1-1.1,0.4-1.6,0.7v0.4c0.2,0.2,0.4,0.4,0.5,0.7c0.4,0,0.7,0,0.9-0.2h0.4c0,0.5,0,0.8-0.2,1.1
			c-0.4,0.4-1.3,0.6-1.9,0.7v0.9c0.1,0.1,0.2,0.2,0.4,0.4c0.7,0,0.5,0.2,0.9-0.2h0.4c-0.2,1.6-2.1,1.8-3.2,2.3
			c0.2,0.7,0.5,1,1.4,1.1c-0.7,1.5-4.4,2.4-7.1,1.8c-2-0.5-4.2,0.1-5.8,0.5c-2.2,0.6-7.7,0.6-9.2-0.2c-0.2-0.2-0.5-0.5-0.7-0.7
			c0-2.9-0.9-6.7-0.2-9.5c0.9-3.7,1.5-7.2,1.2-10.9c-0.1-2,1.5-6.5,0.9-7.9v-0.4c1.3-0.1,2.6-0.1,3.9-0.2c1,0.2,2.8,0.7,4.2,0.4
			c1.8-0.4,3.7-0.9,5.3-1.2c2.3-0.5,4.7,0.3,6-1.1c0.6,0.1,0.5,0.2,0.9,0.4c0,0.6,0.1,1.1,0.4,1.4c-0.1,0.2-0.1,0.4-0.2,0.5
			c-0.5,0-1.1,0-1.6,0.4h-0.4c0.1,0.8,0.2,0.8,0.5,1.2c0.9,0,0.9,0.3,1.4-0.4c0.1,0.1,0.2,0.6,0.4,0.7v1.8c-0.4-0.1-0.4-0.2-0.7,0
			c-0.9,0-0.9,0.2-1.4,0.5c0.2,0.5,0.3,0.5,0.5,0.9c0.9-0.1,0.9-0.3,1.8-0.4c0.1,0.9,0.1,1.8,0.2,2.6c-0.4,0.1-0.3,0-0.5,0.2
			c-0.7,0-0.8,0.1-1.2,0.4C465.2,386.4,466.2,386.5,466.9,386.1z M466.2,357.6c-0.2,0.5-0.3,0.5-0.7,0.7c0.1,0.4,0,0.3,0.2,0.5
			c0.4,0.9,0.8,0.5,1.6,0.7c0.1,0.6,0.2,1.2,0.4,1.8c-0.6-0.1-0.8-0.3-1.2,0c-0.2,0.1-0.4,0.1-0.5,0.2v0.4c1.3,0.9,2.2,0.4,2.1,2.8
			c-0.4-0.1-0.3,0-0.5-0.2c-0.8,0-1,0.1-1.4,0.4c0.2,0.5,0.3,0.5,0.5,0.9c0.5,0.1,1.1,0.1,1.6,0.2c-0.1,0.5-0.1,1.7-0.4,2.1
			c-0.6,0.2-0.6-0.4-1.6,0c0.2,0.7,0.8,1.3,1.4,1.6c-0.1,0.9-0.3,0.9-0.5,1.6c-0.6-0.2-0.8-0.4-1.4,0h-0.4c0.2,0.5,0.4,0.8,0.9,1.1
			c-0.2,0.5-0.3,0.5-0.5,0.9c-0.7-0.1-0.9-0.4-1.9-0.4c0.1,0.6,0,0.6,0.4,0.9c-0.1,0.3,0,0.2-0.2,0.4c-1.3,1-2.7,0.3-4.4,0.7
			c-1.8,0.4-7.6,2.3-9.4,1.1h-6c-1.2-0.6-0.9-2.3-1.2-3.9c-0.3-1.5-0.1-3.7,0.2-5.1v-3.9c0.2-1.3,0.2-3.6,0.4-5.1
			c1.1-0.2,3.3,0.2,4.2,0C452.9,356.6,460.7,356.3,466.2,357.6z M428.4,358.2c-0.7,0.7-1.3,0.9-1.8,1.9c-0.7-0.1-1.9-0.1-2.3-0.5
			c-0.5,0-0.8,0.1-1.1,0.2c0.3,1.7,3.7,2,4.8,3.5c1.7,0,2.1-0.5,3.2-0.9c0.3-1.1,0.5-2.3-0.4-3.2
			C430.5,358.2,429.3,358.3,428.4,358.2z M434.3,366.5c0-0.5,0.1-0.3,0-0.5c-0.3-0.6-0.8-0.8-1.6-0.9c-0.2,0.1,0,0.1-0.4,0.2
			c-0.1,0.3,0,0.2-0.2,0.4v0.5c0.4,0.1,0.6,0.2,0.9,0.4H434.3z M454.6,369.5c-0.2,0.2-0.6,0.4-0.9,0.5c-0.2,0.7-0.9,1.7-0.4,2.5
			c0.1,1,0.5,1,0.9,1.6c0.6,0,1.3,0,1.6-0.2c1.4-0.1,1.3-0.7,1.9-1.4c0-1.6-0.5-1.9-1.1-2.8C456,369.6,455.3,369.5,454.6,369.5z
			 M433.9,371.2c0.1-0.3,0-0.2,0.2-0.4c0-0.5-0.1-0.6-0.2-0.9h-1.4c-0.2,0.1,0,0.1-0.4,0.2C432.2,371.5,432.9,371.4,433.9,371.2z
			 M393.1,370.5h-1.8l-1.6,1.6c0,1.8,0.8,2,1.4,3c1.6,0.1,4.1-1.2,3-2.8C394.1,371.2,393.6,371.2,393.1,370.5z M427.4,391.5
			c0.1-2.5-0.9-2.2-2.3-3.2c-1.3,0-2.2,0.8-2.6,1.6c-1.1-0.1-1.3-0.5-2.5-0.5c0,1.4,1.3,2,2.5,2.1c0.2,1.3,1.2,2,1.9,2.8
			C426.3,394.1,426.4,392.8,427.4,391.5z"/>
	</g>
</g>
</svg>
