<?xml version="1.0" encoding="utf-8"?>
<!-- Generator: Adobe Illustrator 21.0.0, SVG Export Plug-In . SVG Version: 6.00 Build 0)  -->
<svg version="1.1" id="Calque_1" xmlns="http://www.w3.org/2000/svg" xmlns:xlink="http://www.w3.org/1999/xlink" x="0px" y="0px"
	 viewBox="0 0 841 595" style="enable-background:new 0 0 841 595;" xml:space="preserve">
<style type="text/css">
	.st0{fill:#DADADA;}
	.st1{fill:#1D1D1B;}
	.st2{fill:none;stroke:#1D1D1B;stroke-width:0.5;stroke-miterlimit:10;}
</style>
<ellipse class="st0" cx="342.8" cy="388.7" rx="46.8" ry="10"/>
<g>
	<g>
		<path class="st1" d="M464.1,352.1c0-0.3-0.2-0.6-0.3-0.8h-0.2V351c-0.1-0.1-0.4-0.6-0.6-0.7c-0.5-0.3-2.4-0.5-2.6-0.5
			c-1.1,0-2.4-0.2-3,0.2c-0.3-0.1-0.4-0.3-0.7-0.4c0.1-1,0.6-1.7,0.8-2.6c0-0.3-0.1-0.7-0.1-1c0-0.8,0.3-1.5-0.4-1.8
			c-0.3-0.3-3.6-1-3.8-0.8c-0.1-0.1-0.1-0.1-0.1-0.3c-0.2,0.1-0.1-0.1-0.2,0.2c-0.4,0-0.6-0.2-1.1-0.3c-0.1,0-0.3,0.1-0.4,0.1
			c0-0.1-0.1-0.1-0.1-0.2c-0.2,0-0.3,0.1-0.5,0.1h-0.1v-0.2h-0.3c0-0.1-0.1-0.1-0.1-0.2c-0.6,0.3-1.6-0.1-2-0.2c-0.1,0-0.7,0-0.8,0
			c0,0,0,0.3-0.1,0.2v-0.2h-0.3c0-0.1,0.1-0.1,0.1-0.2c-0.3-0.2-0.9-0.1-1.2-0.6c-0.2,0.1-0.1,0-0.1,0.3c-0.2,0-1.4-0.1-1.6-0.3
			h-0.5c0.1,0.2,0,0.1,0.2,0.2c-0.1,0.1-0.3,0.2-0.5,0.3v-0.3c-0.3,0.1-0.1,0-0.3,0.2c-0.2,0-0.3,0-0.4-0.1h-0.1
			c-0.2,0,0.2-0.1,0.2-0.1c-0.1-0.7-0.6-0.4-0.8-0.9c-0.2,0.1-0.2,0.1-0.3,0.2c0-0.1-0.1-0.1-0.1-0.3c-0.4,0-1.3-0.1-1.4-0.1h-0.1
			c0-0.1,0.1-0.1,0.1-0.2c-0.2-0.1-1.4-0.2-1.4-0.2c-0.1,0-0.2-0.3-0.3-0.3c-0.5-0.2-1,0-1.5-0.3c-0.3-0.1-0.7-0.3-0.9-0.4
			c-0.1,0.1-0.3,0.1-0.4,0.2l-0.3-0.3c-0.3,0.1-1.5-0.4-1.7-0.4c-0.2-0.1-0.3,0.1-0.6,0c-0.2-0.1-0.4-0.3-0.6-0.4
			c-0.1,0-0.5,0.2-0.7,0.1c-0.1-0.1-0.3-0.4-0.4-0.5c-0.2-0.1-0.6-0.2-0.8-0.3c-1.8-1.8-3-4.4-4.4-6.6c-0.1-0.3-0.2-0.6-0.3-0.9
			c-0.1-0.1-0.3-0.3-0.4-0.4c-2-3.8-3.8-7.8-5.9-11.5v-0.4c-0.5-1-1.2-2-1.7-2.9c-0.7-1.5-1.1-2.8-2.1-4c0.2-1.5,1.3-2.8,2-4
			c0.2-0.4-0.1-1,0.1-1.4c0.3-1,1.2-2.3,1.2-3.4c0.9-0.1,2.2,0.6,3.2,0.3c0.6-0.2,1.3-0.6,1.8-0.9c0.5-2.6,1-4.8,1.8-7.2v-1.3
			c0.1-0.5,0.3-0.9,0.5-1.4c0-0.7,0.1-1.3,0.1-2c0.1-0.3,0.4-1.4,0.5-1.9c0.2-0.6,0-1.9,0.1-2.5c0.1-1.3,0.6-2.6,0.5-4.1
			c0-0.3,0.2-0.8,0.3-1.1v-2.8c-0.1-0.5-0.2-1.2-0.3-1.7c0-0.1,0.1-0.3,0.1-0.4c-0.5-2.2-0.9-4.7-1.9-6.4c-0.6-1-1.5-1.8-2.4-2.4
			c-0.6-0.4-1.2-1.2-1.8-1.7c-0.5-0.4-1.1-0.6-1.7-1c-0.6-0.4-1.2-1-1.8-1.4c-0.5-0.4-1.2-0.5-1.7-0.8c0-0.1-0.1-0.2-0.1-0.3
			c-0.3-0.2-0.7-0.3-1.1-0.5c-0.4-0.2-0.7-0.6-1.1-0.8c-0.3-0.2-0.6-0.1-0.9-0.3c-0.2-0.1-0.5-0.5-0.8-0.6c-0.3-0.2-0.5-0.1-0.8-0.3
			c-0.2-0.1-0.4-0.4-0.6-0.5c-0.7-0.4-1.4-0.6-2.1-1c-0.9-0.5-1.8-1.2-2.7-1.7c-0.7-0.4-1.6-0.6-2.3-1c-1.6-1-3.4-2.1-5.2-3
			c-0.1,0-0.2,0.1-0.4,0c-1.5-0.8-3.2-1.5-4.7-2.4c-1-0.6-2.1-1.1-3.2-1.8c-0.4-0.2-0.7-0.7-1.3-0.8v-0.3c-0.5,0.1-1-0.5-1.5-0.7
			c-1.1-0.4-2.5-0.7-3.8-0.7c0,0-0.1-0.1-0.1-0.1c0.1-0.5,0.3-0.9,0.5-1.3c0.6-1.4,1-2.6,1.8-3.8l0.7-0.7c0.2-0.5,0.1-1,0.4-1.5
			c0.8-1.3,1.6-3,2.1-4.5c0-0.1-0.1-0.3-0.1-0.4c0-0.1,0.2-0.3,0.3-0.3c0.2-0.4,0-1,0.3-1.3c0.3-0.5,0.8-1.4,1.1-2.1
			c0.4-1,0.5-2.1,1-3c0.7-1.4,2.2-3.2,1.9-4.8c0.7-1,0.5-2.4,0.8-3.7c0.1-0.3,0.4-0.7,0.4-1c0.1-0.3,0.1-1.1,0.2-1.4
			c0-0.1-0.1-0.2-0.1-0.3c0-0.2,0.1-0.5,0.2-0.7c0-0.3-0.1-0.5-0.1-0.8c0.2-0.8,0.4-1.3,0.3-2.2c-0.1-0.4,0.1-1,0.1-1.3
			c0.1-0.5-0.1-1.2-0.3-1.6v-1.6c-0.2-1-0.2-2.3-0.6-3.3c-0.4-1.1-1.1-2.3-1.7-3.3c-0.4-0.7-0.6-1.5-1.3-1.8v-0.3
			c0.7-0.1,2.3-0.3,2.8,0.3c0.7-0.1,0.8-0.4,1.2-0.8c-0.1-0.6-0.2-0.7-0.4-1.3c-0.9-0.1-1.3,0.1-2.4-0.1c-0.1,0-0.4-0.1-0.7-0.1
			c-0.3,0.1-1.5,0.4-1.9,0.3c-0.7-0.2-1.2-1-1.8-1.3c0.1-1.1,1.6-1.1,2.2-1.5c0.3-0.2,0.2-0.8,0.6-0.9c-0.2-0.7-0.7-0.8-1.1-1.3
			c-0.4,0.1-0.4,0.4-0.7,0.6c-0.7,0.4-1.4,1.1-2.3,1.2c-0.1,0.2,0,0.2,0,0.4c-0.5,0.1-0.9,0.2-1.3-0.1h-0.2v-0.3
			c0.5-0.1,0.5-0.6,0.8-0.8c0.2,0,0.4-0.1,0.7-0.1c0.2-0.1,0.3-0.5,0.5-0.8c0-0.3-0.1-0.6-0.3-0.8c-0.1-0.2-0.4-0.2-0.6-0.4
			c-1.2,0-2.3,1.6-3.1,2.2c-0.1,0.1-0.1,0-0.3,0v0.3c-0.8-0.4-1.9-0.2-2.7-0.4c-0.2-0.1-0.5,0.1-0.5,0.1c-0.2,0-0.2-0.1-0.3-0.2
			c-0.5-0.2-0.6,0.2-0.9-0.1c-0.2,0.1-0.1,0-0.1,0.3c-0.2-0.1-0.1,0-0.1-0.2c-0.4-0.1-0.9-0.1-1.1-0.3c-0.3,0.1-0.2,0-0.3,0.3
			c-0.1-0.1-0.1-0.1-0.1-0.3c-1.3,0.2-3.3,0.2-4.7,1.1c-0.5,0.3-0.8-0.1-1,0.5c-0.1-0.1,0,0-0.1-0.2c-0.5,0.2-0.5,0.5-1.1,0.6v0.3
			c-0.2,0-1.3,0.7-1.5,0.9v0.3c-0.1,0.1-0.3-0.1-0.5,0.1c-0.1,0.2-0.1,0.4-0.3,0.6c-0.2,0.2-0.5,0.3-0.7,0.5
			c-0.1,0.1-0.1,0.3-0.2,0.4c-0.3,0.3-0.5,0.3-0.7,0.5c-0.2,0.2-0.2,0.5-0.3,0.7c-0.2,0.2-0.5,0.2-0.7,0.4c-0.1,0.1-0.1,0.4-0.3,0.5
			h-0.3c-0.2,0.2-0.3,0.5-0.3,0.6c-0.1,0.2-0.5,0.3-0.7,0.5c-0.5,0.6-0.8,1.1-1.3,1.8c-0.2,0.3-0.6,0.5-0.8,0.8
			c0,0.1-0.1,0.2-0.1,0.3c0,0-0.6,0.3-0.6,0.3c0,0.1,0.1,0.2,0.1,0.3c-0.2,0.4-0.8,0.7-1.1,1.1c-0.2,0.3-0.1,0.6-0.3,0.9
			c-0.1,0.2-0.3,0.2-0.4,0.4c-0.8-0.2-1.8-0.4-2.4-0.6c-0.4-0.1-0.7,0.2-1.2,0c-1.5-0.5-2.6-0.6-3.8-0.4c-0.8,0.1-2-0.3-2.6-0.1
			c-0.2,0-0.2,0.3-0.3,0.3c-0.3,0.2-0.9,0-1,0.1c-0.3,0.2-0.1,0.3-0.8,0.4v0.3h-0.3v0.3c-0.5,0-0.4,0.3-0.9,0.3
			c-0.1,0.4-1.1,1.9-1.6,2.1c0,2.7,1.9,3.8,3.6,4.8c0.8,0.4,1.5,1.2,2.4,1.6c0.9,0.4,3.9,0.9,4.3,1.6c0.4,0.7-0.5,1.5-0.7,2.3
			c-0.7-0.2-1.3-0.2-2-0.4c-0.9-0.3-2.9-1.6-3.8-1c-0.4,0.1-0.3,0.2-0.6,0.3c0,1.9,0.5,3.3,1,4.8c0.2,0.7,0.1,1.8,0.4,2.3
			c0,0,0.4,0.3,0.4,0.3c0.3,0.5,0.2,1.2,0.5,1.8c0.2,0.4,0.6,0.8,0.8,1.2c0.2,0.4,0.2,0.9,0.4,1.3c0.2,0.2,0.5,0.5,0.6,0.8
			c0.4,0.9,0.4,1.9,0.8,2.8c0.1,0.1,0.3,0.3,0.4,0.4c0.1,0.3,0.2,0.6,0.3,0.8c0.3,0.4,0.7,0.9,1,1.3c0.2,0.3,0.2,0.6,0.3,0.9
			c0.2,0.2,0.4,0.4,0.7,0.6c0.2,0.3,0.1,0.5,0.3,0.8c0.1,0.1,0.2,0.2,0.3,0.3c0.7,1,1.3,2.2,2.3,3c-0.1,0.4-0.4,0.3-0.6,0.6
			c-0.3,0.5-0.3,1.7-0.5,2c-0.1,0.1-0.6,0.4-0.7,0.5c-0.1,0.2-0.1,1.2-0.1,1.3c-0.1,0.2-0.4,0.2-0.5,0.4c0.1,0.4,0.1,0.8,0.2,1.2
			c-0.1,0.2-0.4,0.7-0.6,0.8h-0.2c-0.5,0.6-0.8,1.3-1.3,1.9c-0.2,0.2-0.6,0.4-0.8,0.6c0,0,0,0.6-0.1,0.7c-0.4,0.7-1.2,1.2-1.7,1.8
			c-0.3,0.4-0.5,1.1-0.9,1.3c-0.7,0.5-1.5,0.8-2.3,1.3c-0.4,0.3-0.7,0.8-1.1,1.1c-0.4,0.2-0.7,0.3-1.1,0.5c-0.4,0.3-0.7,0.7-1.1,1
			c-0.4,0.4-1,0.4-1.5,0.8c-0.2,0.2-0.4,0.5-0.6,0.7c-0.5,0.5-1.4,0.6-2,1c-0.3,0.2-0.7,0.7-1,0.9h-0.4c-0.2,0.1-1.1,0.5-1.4,0.7
			c-0.7,0.5-1.7,1.4-2.8,1.4v0.3c-1,0.2-2.7,1.2-3.7,1c0,0-0.1,0.1-0.1,0.1c-0.3-1.2,0.1-2.7,0.3-4c0.1-0.3-0.1-0.8,0-1.1
			c0.3-1.1,0.9-2.6,1.3-3.8c0.1-0.2-0.1-0.5,0-0.8c0.1-0.2,0.4-0.6,0.5-0.8c0.4-1.1,0.4-2.6,1.7-2.9c0.1-0.6,0.4-0.7,0.2-1.3
			c0.1,0,0.3-0.1,0.4-0.2h0.2c-0.3-0.1,0.3-1,0.3-1.1c0.5-0.7,1.4-1,2-1.5c0.2-0.1,0.3-0.5,0.5-0.6c1-0.5,2-0.3,3.1-0.6
			c0.2-0.1,0.6,0.1,0.7,0.1c0.5-0.1,1.4-0.3,1.9-0.7c0.1-0.2,0.3-0.4,0.4-0.6c0.4-0.3,0.6-0.3,0.8-0.8c0.1-0.2,0.2-1.1,0.1-1.2
			c0-2.3-3.4-2.1-4.6-2c-0.9,0.1-1-0.2-1.8-0.3c0.1-0.7,0.6-1.1,0.8-1.6c0.7-1.4,1.7-3.8,1.2-5.2c-0.1-0.3,0-0.4-0.2-0.6
			c-0.3-0.4-2.3-1.6-2.9-1.1c-0.4-0.2-0.6-0.7-0.9-0.9c-0.3-0.2-0.9-0.4-1.2-0.5c-0.5-0.1-1.1,0.6-1.7,0.2c-0.3,0.3-0.6,0.7-0.9,0.9
			h-0.5c0,0.1,0.1,0.1,0.1,0.2c-0.9-0.1-0.5-1-1.1-1.3c-1.3-0.9-2.3-0.3-3.6,0.1c-0.4-0.5-0.7-1.3-1.3-1.6c-0.2-0.1-1.2-0.3-1.3-0.3
			c-0.3,0.1-0.5,0.3-0.8,0.1c-1.2,0-1.8,1.7-2.3,2.5c-1.6,2.6-3.4,8.4-0.4,10.4c-0.2,0.6-0.1,1.1-0.3,1.7l-0.3,0.3
			c-0.1,0.2,0.1,0.5-0.1,0.9c-0.1,0.3-0.5,0.8-0.6,1.1c-0.4,0.9-0.2,1.6-1,2.1c-0.3,0.2-1.1-0.6-1.4-0.7c-0.4,0-0.7-0.1-1.1-0.1
			c-0.3,1.8-1.1,3.2-1.6,4.5c0,0.3-0.1,0.6-0.1,0.9c-0.1,0.2-0.4,0.6-0.4,0.8c-0.1,0.4,0,1.1-0.3,1.6c-0.2,0.4-0.5,1-0.7,1.4
			c-0.1,0.3,0,0.7,0,0.8c-0.1,0.2-0.4,0.6-0.5,0.8v0.5c-0.2,0.7-0.3,1.3-0.5,1.9c0,0.2,0.1,0.4,0.1,0.4c-0.1,0.3-0.4,1-0.5,1.3
			c0,0.3-0.1,0.7-0.1,1c-0.1,0.4-0.3,1.4-0.5,1.8h-0.2c-0.1,0.2,0.1,0.6,0,1c-0.1,0.3-0.2,0.5-0.3,0.7v0.8c-0.1,0.2-0.7,2-0.7,2.2
			c0.1,0.1,0.2,0.1,0.3,0.2l-0.3,2.3c0.1,0.5,0.3,1.6,0.4,2c0,0.1-0.1,0.3-0.1,0.4c0.1,0.1,0.4,0.7,0.4,0.8c0.1,0.2,0,1.1,0.2,1.4
			c0.3,0.5,0.8,1.1,1.1,1.7c0.2,0.4,0.2,0.9,0.5,1.3c0.1,0.1,0.4,0.1,0.5,0.3c0.1,0.1,0.1,0.3,0.3,0.4c0.2,0.1,0.4,0.2,0.6,0.3
			c0.1,0.1,0.1,0.3,0.2,0.3c0.2,0.1,0.4,0.1,0.5,0.2c0,0.1,0.1,0.2,0.1,0.3c0.2,0,0.3,0.1,0.5,0.1c0.1,0.1,0.1,0.3,0.2,0.3
			c0.4,0.3,0.9,0.4,1.3,0.7c0.3,0.2,0.8,0.6,1.2,0.8c0.2,0.1,0.3-0.1,0.4-0.1c1.1,0.2,2.9,0.6,4.1,0.3c0.4-0.1,1.2-0.3,1.5-0.3
			c4.3,0,8.6-3,12-4.6c0.3,0,0.6-0.1,0.9-0.1c0.7-0.2,1.2-0.7,1.8-0.9c0.4-0.2,0.9,0,1.3-0.3c0.1-0.1,0.3-0.4,0.5-0.4
			c0.4-0.2,0.7-0.1,1.2-0.3c0.4-0.2,0.8-0.5,1.2-0.7c0.4-0.2,0.7-0.1,1.1-0.3c0.1-0.1,0.1-0.3,0.3-0.3c0.2,0,0.3-0.1,0.5-0.1
			c0.2-0.1,0.5-0.4,0.8-0.5c0.2-0.1,0.6,0,1-0.1c1.3-0.4,2.4-1,3.2-1.7c0.4-0.3,1.2-0.4,1.7-0.7c0.2-0.1,0.1,0,0.1-0.3
			c1.1,0.1,1.6-0.7,2.3-1.1c0.3,0,0.5-0.1,0.8-0.1c0-0.1,0.1-0.2,0.1-0.3c0.5-0.4,0.7-0.6,1.5-0.6v-0.3h0.3c0.1,0.6,0.3,1.2,0.4,1.8
			c0.1,0.3-0.1,0.9,0.1,1.4c0.1,0.3,0.4,1,0.5,1.3c0.1,0.4-0.1,0.6,0,1.2c0.5,1.9,0.9,3.7,1.7,5.4c0,0.3,0.1,0.6,0.1,0.8
			c0.1,0.2,0.3,0.6,0.3,0.8c0,0.3-0.2,0.4-0.1,0.7c0.1,0.4,0.5,0.9,0.7,1.3v0.6c0.1,0.3,0.4,0.7,0.5,1c0,0.3,0.1,0.6,0.1,0.8
			c0.2,0.4,0.6,1.1,0.8,1.5c0,0.1-0.1,0.2-0.1,0.3c0,0.4,0.3,0.7,0.7,0.8c-0.4,0.8,0.3,1.8,0.6,2.4c0.4,1,0.3,1.8,0.8,2.8
			c0.3,0.7,0.9,1.5,1.3,2.3h0.1c-0.1,0.1-0.1,0.1-0.2,0.2c0.1,0.1,0.1,0.1,0.3,0.1c0,0.7,0.3,0.8,0.5,1.3c0.6,1.6,1.3,2.9,2.2,4.3
			c0.1,0.2,0.5,0.4,0.6,0.6c0.3,0.5,0.3,1.1,0.6,1.6c0.6,1,1.4,1.9,2,2.9c0.1,0.3,0.1,0.5,0.2,0.8c0.1,0.1,0.2,0.2,0.3,0.3
			c0.1,0.3,0,0.5,0.2,0.8c0.1,0,0.2,0.1,0.3,0.1c0,0.2,0.1,0.3,0.1,0.5c0.1,0.3,0.4,0.8,0.6,1.1c0.3,0.1,0.5,0.2,0.8,0.2
			c0.1,0,0.5-0.2,0.8-0.1c0.9,0.2,1.8,0.8,2.8,1v0.2c-2.3,2.2-4.1,4.8-6.5,6.9c-0.2,0.2-0.3,0.6-0.5,0.8c-0.1,0.1-0.4,0.2-0.5,0.3
			c-0.1,0.2,0,0.3-0.2,0.5c-0.2,0.3-0.7,0.6-0.9,0.8c-0.3,0.3-0.3,0.7-0.7,0.9v0.3c-0.6,0.2-0.4,0.8-0.9,1v0.3
			c-0.6,0.1-0.6,0.7-1,1.1c-1,0.9-2.1,1.9-2.8,3v0.3c-0.1,0.1-0.4,0.2-0.5,0.3c-0.8,1.1-1.8,1.8-2.7,2.8c-0.2,0.2-0.3,0.4-0.4,0.7
			c-0.3,0.3-0.7,0.6-1,0.9c-0.4,0.5-0.5,1.1-0.9,1.5c-0.8,0.9-1.7,1.7-2.3,2.8c-0.3,0-0.6,0.1-0.9,0.1c-0.6,1.2-0.3,2.8-0.6,4.2
			c-0.1,0.4-0.3,1.7-0.3,1.9c0,0.2,0.1,1.2,0.1,1.5c-0.3,1.3,0.1,2.6-0.2,4.3c-0.2,0.9-0.2,1.9,0,3c0.1,0.5-0.1,0.7-0.1,1.1
			c0.1,0.5,0.2,1,0.1,1.5c0,0.1-0.1,0.3-0.1,0.4c0.1,0,0.1,0.1,0.2,0.1c0,0.2-0.1,0.4-0.1,0.6c0.1,0.5,0.1,1.6,0.1,2.1v0.8h0.2
			c0,0.1-0.2,0.5-0.2,0.6c-0.1,0.9,0.1,2.8,0.1,3.4c0,0.3-0.2,1-0.2,1.3c0,0.3-0.1,0.7-0.1,1.1c0.1,0.7,0.4,1.5,0.3,2
			c-0.1,0.4-0.3,1.3-0.2,1.8c0.1,0.4,0.3,1.2,0.3,1.8c0,0.9-0.2,1.7,0,2.6c0.3,1.2,3.2,2.4,4.3,3.1c0,0.1-0.1,0.1-0.1,0.2
			c-1.4,0.4-3.6,0.4-5.3,1c-0.4,0.1-0.8,0.1-1.2,0.2c-1,0.4-2.2,0.9-3.2,1.3c-0.5,0.2-0.8,0.1-1.3,0.3c-0.6,0.3-1,0.7-1.9,0.8
			c0,0,0.1,0.1,0.1,0.1c-0.2,0.4-1.2,0.6-1.6,1c0,0-0.1,0.1-0.1,0.1h0.1v0.1c-0.1,0-0.2-0.1-0.4-0.1v0.3c-0.8,0.1-2.2,1.5-2.6,2.1
			c-0.2,0.4-0.2,1.1-0.3,1.3c0,2.8,4.7,1.2,6.2,1.5h1.3c0.5,0.1,1.2,0,1.8,0v0.2h2.1c1.3,0.3,4.8,0,6.4-0.4c0.7-0.2,1.9,0,2.6-0.1
			c1.5-0.2,3.1-0.3,4.5-0.6c1.7-0.4,2.8-0.4,4.2-1c0.6-0.2,1.3,0,1.6-0.2c0.7,0.6,1,1.6,2.1,2c0.8,0.3,1.6-0.1,2.5,0
			c0.3,0,0.9-0.2,1.3-0.2c1,0.1,3.2-0.2,4.1-0.3c0.8-0.1,2.6,0,3.2-0.4c0.7-0.5,0.5-1,0.8-2c0-0.1,0.2-0.5,0.1-0.8
			c0-0.1-0.2-0.2-0.2-0.4c0.1-0.4-0.4-3.6-0.8-4.3c0-0.6,0-0.9,0.3-1.3c1.5,0,3.7-0.7,4.1-1.8c0.4-1-2.1-4.2-1.8-4.8
			c-0.1-0.2,0-0.1-0.3-0.1c0.1-0.5-0.1-0.6-0.3-1c0.4-0.6-0.3-1.7-0.5-2.1V367c-0.1-0.2-0.6-0.7-0.6-1.1c0-0.2-0.7-3.6-0.8-3.7
			c-0.1-0.1-0.3-0.1-0.3-0.3c0.2-0.6-0.4-1.1-0.3-1.8c0.1-0.6-0.4-3.6-0.8-4.4c0.2-0.5-0.2-2-0.4-2.5c0-0.1,0.1-0.5,0-0.8
			c-0.5-1.9-0.8-4.4-0.4-6c0.1-0.5-0.2-1.2-0.3-1.5c0-0.1,0.2-1.4,0.3-1.5c0.1-0.7,0.7-0.7,1.2-1c0.5-0.3,1.1-0.7,1.6-1.1
			c0.1,0.1,0.2,0.1,0.3,0c0.1-0.1,0.2-0.4,0.3-0.4c0.2-0.2,0.5-0.1,0.8-0.3c1-0.7,1.9-1.6,2.9-2.3c0.9-0.6,1.9-0.9,2.8-1.4
			c0.4-0.2,0.7-0.7,1-0.9c0.4-0.3,0.7-0.3,1.1-0.6c0.1-0.1,0.3-0.4,0.4-0.5c0.4-0.3,0.9-0.4,1.3-0.8c0-0.1,0.1-0.2,0.1-0.3
			c0.3-0.2,0.7-0.2,1-0.4c0.6,0.1,0.7,0.7,0.9,1.2c0-0.1,1.3,1.5,1.4,1.8c0.3,0.5,0.3,1.2,0.8,1.2c-0.2,0.7,0.9,1.8,1.2,2.3
			c0.6,1.2,1.2,2.3,2,3.3c0,0,0,0.3,0.1,0.5c0.1,0.1,0.5,0.4,0.6,0.6c0.4,0.7,0.6,1.6,1.2,2.3c0,0,0.9,1.8,1.1,2.1
			c0.6,0.9,1.3,1.9,2,2.7c-0.3,0.3,0.3,0.7,0.4,0.9c-0.2,0.5,0.8,1.3,1.1,1.8c0.2,0.3,1.1,2,1.4,1.9c0.6-0.2,1.8,0.7,2.4,0.9
			c2.4,0.8,4.1,1.6,6.4,2.5c0.1,0.1,0.3-0.1,0.3-0.1v0.3c0-0.1,1.2,0.2,1.6,0.4c0.2,0.1,0.5,0.5,0.8,0.6c0.5,0.2,1,0.1,1.5,0.3
			c1.1,0.5,2.8,1,4.2,1.6h0.6c0.3,0.1,0.7,0.4,1,0.5c0.2-0.1,1.6,0.2,1.9,0.3c0.7,0.3,1.6,0.8,2.3,1.1c0.3,0.1,0.8,0,1,0.1
			c0.2,0.1,0.6,0.5,0.9,0.6h0.5c0.2,0.1,0.5,0.3,0.7,0.3c0.3,0.1,0.3-0.1,0.7,0c1.7,0.8,3.1,0.9,4.9,1.7c0.5,0.2,1.2-0.1,1.9,0.2
			c0.3,0.1,0.5,0.4,0.8,0.5c-0.1,0.3,0,0.9-0.3,1.3c-0.1,0.2-0.3,0.1-0.3,0.5h-0.3c0,1.1-0.9,1.5-1.5,2c-0.3,0.2-0.4,0.7-0.7,0.9
			c-0.1,0.1-1.4,0.8-1.5,0.8h-0.6c-0.1,0.1-0.2,0.2-0.3,0.3c-0.1,0-0.2-0.1-0.3-0.1c-0.4,0.2-2.1,0.8-2.3,0.7
			c-0.6,0-1.9,0.7-2.3,0.5c-0.3,0-0.8,0.4-1.1,0.5c-0.1,0-0.3-0.1-0.5,0c-0.1,0-0.1,0.2-0.2,0.3c0,0-0.2-0.1-0.3-0.1
			c-0.2,0.1-0.6,0.3-0.8,0.3c0-0.1-0.1-0.1-0.1-0.2c-0.1,0-1.9,1.1-2.1,1.1c0,0.1-0.1,0.1-0.1,0.3c-0.3,0.1-0.2,0.1-0.5,0.2
			c0,0.6,0,1.3-0.2,1.6c0.1,0.2,0,0.1,0.3,0.2c0.3,1.6,4.2,2.5,5.8,1.9c0.2,0.1,0.7,0.1,0.9,0.1c0.2-0.1,2.6-0.8,2.6-0.8
			c0.3,0.1,0.8-0.2,1.3-0.3c0.9,0.2,3.4-0.9,4.4-1.2c1.2-0.4,3.6-0.9,5.2-1.8c0.5-0.3,0.9-0.8,1.3-1.1c0.3-0.2,0.6-0.2,0.8-0.4
			c0.1-0.3,0.3-0.5,0.4-0.8c2-1.6,3.5-3.9,4.7-5.9c0.2-0.3,0.1-0.5,0.3-0.8c0.5-1,0.9-2,1.4-3c0.2-0.4,0-1.3,0.3-1.8
			c0.3-0.5,1.2-0.2,1.6-0.8c0.1-0.2,0.3-0.9,0.4-1.2c0.6-1.3,1.1-2.5,1.5-3.8v-0.8c0.2-0.6,0.1-1.1,0.3-1.8
			C463.8,354.3,464.4,352.5,464.1,352.1z M443.4,342L443.4,342l0.1,0.2h-0.1V342z M415.8,306.6v0.4c-0.1,0.1-0.4,0.5-0.4,0.6
			c-0.1,0.2,0.1,0.2,0,0.5c-0.4,0.8-1,1.7-1.4,2.5c-0.2,0.5-0.3,0.8-0.5,1.3c-0.2,0.3-0.6,0.5-0.8,0.8c-0.2,0.3-0.3,0.7-0.5,1
			c-0.5,0.7-1.4,1.2-2,1.8c-0.7,0.7-3.4,2.6-4.6,1.8c-0.3-0.1-0.2-0.1-0.4-0.3c0-0.2,0-0.4-0.1-0.5c2.5-1.6,5.7-2.4,6.4-5.9
			c-0.2-0.2-0.3-0.4-0.5-0.6c-0.3,0-0.5,0-0.7,0.2c-0.6,0.3-0.8,1.5-1.2,2c-1.4,1.8-6,4.3-8.4,2.8c0-0.2-0.1-0.3-0.2-0.4
			c0.1-1,1.7-0.8,2.5-1.2c1-0.4,2-1.1,2.8-1.6c0.2-0.1,0.4-0.1,0.6-0.3c0.5-0.4,0.8-1,1.3-1.4c0.1-0.2,0.5-0.3,0.6-0.4
			c0.3-0.5,0.5-1,1-1.3c0-0.6-0.1-0.7-0.3-1c-1.9,0-2.2,2.1-3.3,2.9h-0.3c-0.2,0.1-0.5,0.6-0.8,0.8c-1.4,0.9-4.6,2.1-6.3,1.3
			c-0.2-0.1-0.4-0.4-0.7-0.5c0-0.3,0-0.8,0.1-1c0.3-0.8,3.1-1.5,4-1.8h0.7c0.8-0.4,2.1-1.5,2.8-2.3c0-0.2,0.1-0.4,0.1-0.6
			c0.2-0.4,0.9-1.5,0.5-2.2c-0.1-0.2-0.2-0.1-0.3-0.3c-1.1,0-1.1,1-2,1.2c-0.4,0.1-1.1-0.1-1.3,0c-0.1,0.1-0.4,0.4-0.5,0.4
			c-0.3,0.1-2.2-0.1-2.3-0.2c-0.6-0.2-1.1,0-1.6-0.3c-1.3,0-1.5-1-2.3-1.5c0-0.3,0.1-0.4,0.1-0.5c1.2-2,4.6-1.3,6.7-0.5
			c0.3-0.1,1.3,0.2,1.8,0.1c0.3-0.1,0.6-0.2,1-0.2c0.3,0,0.1,0.2,0.3,0.2c0.4-0.1,1.8-0.2,2.1-0.4c0.1-0.1,0.1-0.3,0.3-0.4
			c0.8-0.6,1.8-1.3,2.2-2.3c0.2,0,0.2,0,0.3-0.1c0.7,0.4,1.5,0.5,2.1,0.8c0.1,0.1,0.2,0.2,0.3,0.3c0.1,0,0.2-0.1,0.3-0.1
			c0.3,0.1,1,0.6,1.3,0.8c0.5,0.2,0.8,0,1.1,0c0.3,0.1,0.7,0.3,1,0.3c0.4,0.1,0.4-0.2,0.8,0c0.3,0,0.3,0.1,0.5,0.2
			C417.4,303.7,416.4,305.1,415.8,306.6z M407.3,300.9C407.3,300.9,407.3,300.8,407.3,300.9c0.1,0,0.1-0.1,0.2,0.1
			C407.4,301,407.1,301,407.3,300.9z M409.7,276.8c-0.2,0.3,0.5,1.1,0.6,1.4c0.1,0.4-0.1,0.7,0,1c0.5,1.9,0.2,4.2,0.3,5.9
			c0,1.3-0.6,3.9-0.2,4.5c-0.1,0.1-0.1,0.1-0.3,0.1c-0.3-1.7-1.5-3.4-2.1-4.8c0-0.3-0.1-0.5-0.1-0.8c-0.3-0.8-0.6-1.7-1-2.5
			c-0.2-0.5-0.7-1.1-0.9-1.7c-0.3-0.8-0.4-1.4-0.8-2.1c-0.2-0.4-0.6-0.7-0.8-1.1c-0.2-0.4-0.1-0.7-0.3-1c-0.3-0.7-0.9-1.5-1.2-2.2
			c-0.3-0.6-0.2-1.1-0.5-1.8c-0.1-0.4-0.4-0.7-0.4-1.2c0.6,0.1,1.3,1,1.8,0.7c0.1,0.1,0.2,0.5,0.4,0.6c0.2,0.1,0.4,0,0.6,0.2
			c0.7,0.4,1.3,1.1,1.8,1.6h0.3c0,0.1,0.1,0.2,0.1,0.3c0.6,0.6,1.4,1.4,2.2,1.8c0,0.4,0.1,0.4-0.1,0.5
			C409.3,276.6,409.5,276.6,409.7,276.8z M422.6,293.4L422.6,293.4l-0.1-0.2h0.1V293.4z M358.2,237.3c-0.3-0.4-0.8-1-1-1.4
			c0-0.2-0.1-0.3-0.1-0.5c-0.3-0.5-0.9-0.9-1.2-1.4c-1.2-1.8-1.7-4.2-2.8-6.2c-0.4-0.8-1-1.5-1.3-2.3c-0.2-0.4-0.1-0.9-0.3-1.3
			c-0.3-0.5-0.9-1.7-0.8-2.3c-0.3-0.7-0.7-1.6-0.7-2.5c0.7,0,1,0.3,1.5,0.5c0.9,0.3,1.9,0.3,2.7,0.5c0.4,0.1,0.9,0.5,1.3,0.7
			c1.9,0.7,3.3,0.7,5.3,1.3c1.4,0.4,3.2,1.3,4.7,0.6c0.2-0.6,0-0.9-0.1-1.4c-0.5-0.2-0.8-0.4-1.3-0.5c-0.5-0.1-0.7,0.2-1.1,0.1
			c-0.6-0.1-1.4-0.4-2-0.7h-0.8c-0.7-0.2-1.4-0.4-1.9-0.7c-0.5-0.3-1.3-0.1-1.8-0.5h-0.2c0.1-0.1,0-0.4,0.1-0.7
			c0.2-0.5,0.7-1,0.9-1.6c0.4-0.1,1.2,0.3,1.6,0c0.6-0.1,0.7-0.3,1-0.6v-0.7c-0.2-0.2-0.3-0.5-0.5-0.7c-0.4-0.2-1.2-0.4-1.6-0.5
			c-0.4,0-0.9-0.1-1.3-0.1c-0.4-0.2-0.9-0.4-1.3-0.6c-0.6-0.2-1.5-0.1-1.8-0.3v-0.2c-0.2,0-0.4-0.1-0.6-0.1
			c-0.1-0.1-0.3-0.4-0.4-0.4c-0.2,0-0.4-0.1-0.7-0.1c-0.1-0.1-0.1-0.2-0.2-0.3c-0.2-0.1-0.4,0.1-0.7-0.1c-0.4-0.3-0.9-0.9-1.5-1
			v-0.3l-0.2,0.2c-0.4-0.2-1.2-0.8-1.4-1.3h-0.3v-0.3c-0.2,0.3-0.5-0.5-0.6-0.6c0.1-0.8,1-1.6,1.6-1.9c0.2,0,0.4-0.1,0.6-0.1
			c0.1-0.1,0.1-0.2,0.2-0.3c0.3-0.2,0.6,0,0.8-0.2v-0.2c0.3-0.1,1,0.1,1.3,0.1c2-0.3,3.9,0.1,5.8,0.7c0.5,0.2,1.2-0.1,1.7,0
			c0.6,0.1,0.9,0.6,1.3,0.8c0.4,0.1,0.6,0.1,0.8,0.2c0.4,0,0.5-0.1,0.8-0.2c0.1-0.5,0.1-1.1-0.3-1.4c0.2-1,1-1.5,1.5-2.2
			c0.4-0.5,0.7-1.2,1.2-1.7c0.2-0.2,0.4-0.3,0.6-0.5c0.2-0.3,0.3-0.6,0.5-0.8c0.4-0.4,1-0.7,1.4-1.2c0.3-0.3,0.5-0.7,0.8-0.9
			c0.6-0.5,1.7-1.4,2-2.2h0.3c0.1-0.4,2.4-2.1,2.8-2.2v-0.3c0.8-0.3,1.7-0.6,2.4-0.8c0.4,0,0.9,0.1,1.3,0.1c1.8-0.4,3.6,0.1,5.2,0
			c0.1,0.3,0.1,0.3,0.3,0.5c-0.2,0.1-0.2,0.1-0.3,0.3h-0.3c-0.1,0.6-0.7,1.5-1.1,1.9c0,0.9,0.4,0.8,0.8,1.2c0.2-0.1,0.5-0.1,0.7-0.3
			c0.2-0.3,0.1-0.7,0.3-0.9c0.5-0.7,1.2-1.2,1.7-1.9h0.3c0,1.1,0.2,1.2-0.6,2.2c0,0.3,0.1,0.5,0.3,0.8c0.2,0.1,0.5,0.1,0.6,0.2
			c0.5-0.1,0.8-0.5,1-0.9c0.2,0,0.3,0,0.4-0.1c0.2,0.4,0.6,0.7,1,0.9c-0.1,0.2-0.5,0.6-0.7,0.8c0,0.4,0.1,0.5,0.2,0.8
			c0.2,0.1,0.2,0.1,0.3,0.3c0.6,0,0.9-0.1,1.2-0.4c1.2,0,1.2,0.9,1.8,1.4c0,1-1.2,1.7-2.1,1.9c-0.1,0.4-0.1,0.6-0.1,1.1
			c1.1,0.5,2.1-0.2,3.3-0.2c0.2,1.2,0.2,2.8,0.4,4c-0.1,0.1,0,0-0.1,0.2c-0.2-0.1-0.1,0-0.2-0.2c-0.2,0.1-0.2,0.1-0.2,0.1v0.1
			c-0.7-0.3-2.2-0.5-2.6,0.3c-0.1,0.1-0.1,0.2-0.1,0.5c0.3,0.3,0.5,0.7,1,0.8c0.2,0,0.4-0.2,0.7-0.1c0.2,0.1,0.5,0.4,0.8,0.2
			c0.4,0,0.4,0.1,0.7,0.3c-0.1,0.6,0,2-0.3,2.5c0,0.4-0.1,0.4-0.3,0.7c-0.8,0-1-0.2-1.6,0c-0.4,0.1-0.7,0.3-1.1,0.4
			c-0.1,0.3,0,0.5,0,0.8c0.2,0.1,0.4,0.2,0.5,0.4c0.7,0,1.2,0.4,1.7,0c0.2,0,0.2,0,0.3,0.1c0,1.1-0.5,2-0.8,2.8
			c-0.4,0-1.5-0.2-1.8-0.1c-0.2,0.1-0.3,0.2-0.6,0.2c-0.1,0.3-0.3,0.7-0.3,0.9c0.1,0.3,0.2,0.4,0.3,0.7c0.7,0.1,1.1,0.3,1.7,0.2
			c0.1,0.1,0.1,0.1,0.3,0.2c-0.3,1.1-0.6,2.3-0.9,3.4c-0.6-0.1-1.4-0.3-1.7-0.5c-0.7,0-0.7,0.3-1.2,0.5c0,0.3,0,0.3,0,0.6l0.8,0.8
			c0.2,0,0.3-0.1,0.5-0.1c0.3,0.1,0.6,0.4,1,0.4c0,0.4-0.5,2.2-0.7,2.4c-0.1,0.1-0.1,0-0.3,0.1c-0.1-0.1,0,0,0-0.3
			c-0.3,0.1-0.5,0.3-0.8,0.3l-0.8-0.1c0,0-0.2-0.3-0.2-0.3c-0.3-0.1-0.3,0.3-0.4,0.3c-0.1,0-0.2-0.1-0.3-0.1
			c-0.5,0.2-0.4,0.8-0.3,1.3c0.4,0.1,1.8,0.4,2.2,0.6c0.2,0.1,0.2,0.1,0.3,0.2c-0.2,0.5-0.5,1-0.6,1.5c-0.7,0-1.6-0.1-2.3-0.3
			c-0.9,1.1-0.7,0.4-0.3,1.7c0.7,0.1,1.2,0.3,1.9,0.3c-0.1,0.9-0.5,2.2-1.3,2.4c-0.4,0.1-1.6-0.7-2.2-0.2c-0.2,0.1-0.2,0.1-0.3,0.3
			c0,0.2,0,0.4,0.1,0.5c0.2,0.8,1.4,1,2.2,1.2c-0.2,1-0.8,1.6-1.3,2.3c-0.2,0-0.3,0-0.4,0.1c-0.3-0.1-0.5-0.3-0.7-0.4
			c0,0-0.1-0.1-0.1-0.1v0.1c-0.9,0-0.8,0.3-1.3,0.5c0,1.5,1.5,1.2,1.7,1.8h-0.3v0.3h0.3c-0.1,0.2-0.3,0.4-0.4,0.8
			c-0.2,0-0.7,0-0.9-0.2c-0.6,0.1-0.6,0.6-1,0.8c-0.5,0.3-1,0.2-1.3,0.5c-0.1,0.1-0.1,0.2-0.2,0.3c0.3,1,1.7,1,2.5,0.8
			c0,0,0.1,0.1,0.1,0.1c-0.2,1.5-1.3,1.3-1.7,2.3c-2,0.8-4.1,0.8-6.3,0.9c-0.3,0-0.8,0.3-1,0.3c-0.3,0.1-2.9-0.1-3-0.1
			c-0.8-0.2-1.6-0.4-2.6-0.4c0-0.4,0.2-0.5,0.3-0.8c-0.1,0-0.3-0.1-0.4-0.1c-0.1-0.5-0.5-0.6-0.1-0.9c-0.2-0.3-0.4-0.1-0.8-0.3v-0.1
			c-0.2-0.1-0.5-0.4-0.7-0.6c0-0.1-0.1-0.2-0.1-0.3c-0.3-0.3-1-0.7-1.3-1.1c-0.4-0.5-0.5-1.1-0.9-1.5c-0.1-0.2-0.4-0.3-0.6-0.4
			c-0.5-0.6-0.8-1.5-1.3-2.2C359.5,238.5,358.7,237.9,358.2,237.3z M362.7,245.8c0.3,0.4,0.4,0.8,0.9,1v0.3
			c-0.5,0.1-3.3-0.9-3.5-1.3c-0.2-0.3-0.2-0.7-0.4-1.1c-0.4-0.7-0.8-1.9-0.3-2.5v-0.1c0.5,0.3,0.9,1.3,1,1.6
			c0.2,0.4,1.4,1.3,1.8,1.7c0,0.1-0.1,0.2-0.1,0.3C362.2,245.7,362.6,245.7,362.7,245.8z M337.5,238.6c0.1,0,0.2-0.1,0.3-0.1V238
			c0.1-0.3,0.3-0.6,0.4-0.9c0.1-0.5,0.1-1,0.2-1.2c0.3-0.6,0.7-0.8,0.8-1.5c0.2,0,0.2,0,0.3,0.1c0.3,0,0.4,0,0.6,0.1
			c-0.1,0.6-0.2,1.7-0.4,2.1c-0.1,0.2-0.3,0.1-0.4,0.3c-0.2,0.3-0.1,0.9-0.3,1.3c-0.4,0.7-1,1.2-1.3,1.8c-0.2,0.1-0.3,0.2-0.7,0.3
			C337,239.6,337.2,239,337.5,238.6z M333.6,235.3c0-0.1,0.1-0.1,0.1-0.2h0.3c0-0.3,0-0.5-0.1-0.7c0.2-0.1,0.2-0.1,0.5-0.2
			c0-0.2,0-0.3-0.1-0.4c0.3-0.6,1.1-0.8,1.7-1.3c0.3,0,0.6,0,0.7,0.2c0.3,0.4-0.2,2.6-0.3,3.3h-0.3c0,0.8-0.4,1.3-0.7,1.9
			c-0.1,0.3,0,0.8-0.1,0.8c-0.2,0.3-0.5,0.2-0.7,0.7c-0.1,0.1-0.1,0.1-0.1,0.3h-0.3v0.3h-0.3v0.3c-0.4,0.1-0.8,0.5-1.2,0.7l-0.3-0.3
			C332.6,239.7,332.9,236.2,333.6,235.3z M328.4,236.6c0.1-0.4-0.1-0.5,0.1-1c0.1-0.3,0.4-0.6,0.5-0.8c0-0.1-0.2-0.2-0.1-0.3
			c0.1-0.2,0.5-1.3,0.6-1.4c0.1-0.1,0.4-0.2,0.6-0.3c0,0,0.3-0.4,0.4-0.6c0.2,0,0.3,0,0.4-0.1h0.3c0.5,2.1-0.2,5.3-1.2,6.7
			c-0.4,0.6-1.3,0.9-1.6,1.5h-0.2c-0.1-0.1-0.2-0.2-0.3-0.3c0.1-0.3-0.2-0.5-0.1-0.9C327.9,238.3,328.2,237.4,328.4,236.6z
			 M324.9,231.8c0.4-0.2,0.9-0.4,1.3-0.3c0.1-0.2,0.1-0.4,0.1-0.7c0.1-0.1,0.1,0,0.2-0.1c0.2,0,0.2,0,0.3,0.1
			c0.3,1.6-0.1,2.4-0.4,3.8c-0.1,0.4,0.1,0.9,0,1.3c-0.4,1.5-0.6,2.4-1.8,3.2c-0.1,0-0.9,0.1-1.2,0.1v0.3h-0.2
			C322.2,236.6,324,233.6,324.9,231.8z M322.8,247.9v-0.6c0.2-0.6,0.4-0.9,0.3-1.6c0.2-0.4,0.5-0.9,0.7-1.4c0.3-0.9,0.3-2.4,0.8-2.9
			c0.3-0.3,0.8-0.3,1.1-0.7c0.6,0.1,0.6,0.7,1.2,1c1.3,0.8,3,0,3.8-0.8c0.4,0.2,0.6,1.3,1.1,1.6c0.5,0.3,2.3,0,2.3,0
			c0.1-0.1,0.5-0.6,0.8-0.7c0.4-0.1,0.6,0.4,0.9,0.5c0.7,0.2,1.6-0.1,2.1-0.1c0.7,0,1.5-0.4,2.3-0.2c0.4,0.1,0.8,0.3,1.5,0.3
			c0.9,0,1.9-0.1,2.4,0.3h0.2c-0.1,0.7-0.4,0.7-0.8,1.1c-3.2,0-5,0.9-6.9,2.1c-0.3,0.3-0.5,0.6-0.8,0.8c-0.6,0.4-1.4,1.1-1.7,1.8
			h-0.4c0,0.3,0.1,0.6,0,0.8c-0.1,0.1,0,0.1-0.1,0.2c-0.6,0.4-2.8,0.2-3.9,0.2c-2.3-0.1-5.4,0-7.3-1.1
			C322.6,248.1,322.7,248.2,322.8,247.9z M354.2,269.6c-0.3-0.2-0.8,0.4-1.1,0.6c-0.8,0.5-1.7,0.7-2.5,1.1c-0.3,0.1-0.4,0.5-0.7,0.6
			c-0.2,0-0.4,0.1-0.6,0.1c-0.4,0.2-0.8,0.5-1.3,0.7c-0.6,0.2-0.8,0-1.4,0.3c-1,0.4-1.9,1.1-2.8,1.5c-0.6,0.2-1,0.1-1.6,0.3
			c-0.6,0.3-1.3,0.7-1.8,0.9c-0.4,0.2-0.8,0.1-1.3,0.3c-0.1,0.1-0.3,0.3-0.4,0.4h-0.5c-0.6,0.2-1.3,0.4-1.9,0.7
			c-0.7,0.3-1.4,0.9-2,1.2c-0.2,0.1-0.9,0.3-1,0.3c-0.2,0-0.3-0.1-0.3-0.1c-0.2,0.1-0.4,0.5-0.7,0.6c-1.3,0.7-2.5,1.2-3.8,1.7
			c-1,0.4-2.4,0.3-3.5,0.6h-1c-0.6,0.2-2.5,0.3-3.4,0c-0.9-0.3-1.5-0.8-2.2-1.3c-0.2,0-0.3-0.1-0.5-0.1c0-0.1-0.1-0.2-0.1-0.3
			c-0.3-0.2-0.5-0.1-0.8-0.3c-0.2-0.1-0.2-0.5-0.4-0.6c-0.3-0.3-1-0.6-1.3-0.9v-0.3c-0.2-0.4-0.6-0.9-0.8-1.3
			c-0.3-0.4-0.5-1.5-0.6-2c0-0.3-0.1-0.7-0.1-1c-0.2-0.5-0.4-2.1-0.3-2.8c0-0.1,0.3-1.2,0.3-1.4c0-0.4-0.2-1.1-0.2-1.1h0.2
			c0.1-0.2,0.3-1,0.3-1.1c0-0.1-0.2-0.2-0.1-0.3c0.1,0,0.2-0.1,0.3-0.1c0-0.3,0.1-0.6,0.1-0.9c0.3-0.9,0.6-2.1,0.9-2.8
			c0.1-0.3,0-0.5,0-0.7c0.1-0.5,0.3-1.3,0.4-1.8c0-0.1-0.1-0.2-0.1-0.3c0.3-0.6,0.6-2,1-2.8v-0.5c0.1-0.4,0.3-0.8,0.4-1.2
			c0-0.1-0.1-0.2-0.1-0.3c0.8-2.1,1.5-4.4,2.3-6.2c0.4,0,0.6,0.5,0.7,0.8c0.2,0,0.3,0.1,0.5,0.1v0.2c0.6,0.3,1-0.3,1.6-0.1
			c0.5,0.2,1.2,0.6,1.7,0.8c1.3,0.4,4.8,0.6,6.2,0.3c0.6,0.2,2.1,0.2,2.8,0.1c0,0,0.1,0.1,0.1,0.1c0,0.6-0.6,2.1-0.9,2.8
			c-0.3,0.6-0.1,1.2-0.3,1.8c0,0.1-0.3,0.5-0.3,0.6v0.4c-0.1,0-0.1,0.1-0.2,0.1c-0.1,0.2,0,0.4,0,0.5c0,0-0.3,0.2-0.3,0.2
			c-0.1,0.2,0.2,0.3,0.2,0.4c-0.3,1.1-0.4,3.1-0.8,4.6c-0.2,0.6-0.2,4.4-0.2,4.5c0.1,0.2-0.1,0.6,0.1,0.8c0.1,0.4,0.4,0.3,0.7,0.6
			c0.3,0,0.4,0,0.5,0c0.3-0.1,0.3-0.2,0.5-0.3c0.1-0.6,0.4-1.1,0-1.4c0-0.2,0-0.3,0.1-0.4c0.7-0.6,2.6-0.5,3.6-0.9
			c0.4-0.2,1.1-0.5,1.4-0.8c0-0.1,0.1-0.2,0.1-0.3c0.2,0,0.4-0.1,0.7-0.1c0.1,0,0.1-0.3,0.2-0.3c0.7-0.4,1.3-0.5,2-0.9
			c0.1-0.1,0.3-0.3,0.4-0.4c0.4-0.3,1-0.3,1.4-0.5c0.2-0.1,0.7-0.5,0.9-0.7c0-0.1,0.1-0.2,0.1-0.3c0.2,0,0.3-0.1,0.5-0.1
			c0.4-0.2,0.8-0.6,1.1-1h0.3V260c1-0.1,1.5-0.7,2.1-1.2c0.2-0.2,0.5-0.2,0.8-0.3c0.2-0.2,0.4-0.6,0.6-0.8c0.2-0.2,0.3,0,0.5-0.1
			c0.2-0.2,0.3-0.4,0.5-0.6c0.3-0.2,0.6-0.2,0.8-0.4v-0.2c0.3-0.2,0.9-0.2,1.2-0.4c0.5-0.3,1-0.8,1.4-1.2c1-0.8,1.3-2.7,3-2.8
			c-0.2-0.6,0.1-0.8,0.3-1.4c0.1,0,0.1-0.1,0.2-0.1c0.2,0.6-0.1,1.2,0,1.8c0.4,2-0.1,3.4,0.4,5.6c0,0.2-0.1,0.5-0.1,0.6
			c0.1,0.5,0.2,1.2,0.3,1.7c0.1,0.5-0.1,0.7,0,1.3c0.4,1.8,0.8,3.9,1,5.9C356.3,267.6,355.2,268.8,354.2,269.6z M378.1,310.9
			c-0.2-0.1-0.6-0.3-0.8-0.4c-0.4-0.1-0.7-0.1-1-0.3c-0.1-0.2-0.3-0.3-0.4-0.5c-0.3,0.1-0.6,0.1-0.9,0.2c-1-1.6-1.9-3.3-2.8-5
			c-0.2-0.3-0.7-0.5-0.8-0.8c0-0.2-0.1-0.4-0.1-0.6c-0.2-0.4-0.6-0.7-0.8-1c-0.1-0.2,0-0.4,0-0.4c-0.4-0.7-1-1.4-1.4-2
			c-0.3-0.5-0.3-0.9-0.6-1.4c-0.1-0.2-0.4-0.5-0.5-0.8c0-0.2-0.1-0.4-0.1-0.6c-0.3-0.6-0.8-1.3-1.1-1.9V295
			c-0.2-0.4-0.5-0.8-0.7-1.3v-0.5c-0.1,0-0.2-0.1-0.3-0.1l-0.3-1.3c-0.1-0.4-0.5-0.7-0.6-1.3c0-0.1,0.1-0.2,0.1-0.3
			c0-0.2-0.3-0.4-0.3-0.6c0-0.1,0.1-0.2,0.1-0.3c-0.1-0.1-0.2-0.1-0.3-0.2c-0.3-0.6-0.1-0.9-0.3-1.6c-0.2-0.6-0.7-1.5-0.9-2.2
			c-0.1-0.3,0-0.6,0-0.8c-0.3-0.7-0.7-1.6-1-2.3v-0.8l-0.3-0.3v-0.6c-0.8-2.3-1.3-5-2.1-7.4c-0.1-0.3,0-1.3-0.1-1.6
			c-0.4-1.4-0.6-3.7-1.1-5.1c-0.2-0.6-0.1-1.7-0.3-2.2c-0.3-1.5-0.6-3.5-0.9-5.4c-0.1-0.9,0-2.6-0.2-3.4c-0.3-1.3,0-2.8-0.2-3.9
			c-0.2-1.5,0.8-5.8,0.3-6.4v-0.1h0.2c0.1,0.3,0.2,0.4,0.1,0.7h0.3c0,0,1.2,1.6,1.4,1.8c0.3,0.2,3,1.1,3.4,1c0.3,0,1.1,0.3,1.7,0.3
			c1-0.2,3.3,0.4,4.8,0.6c0.4,0.1,1.1-0.1,1.3-0.2c0.3,0,0.6,0.1,0.8,0.1c0,0,0.4-0.2,0.4-0.2c1.1,0.2,2.4-0.1,3.4-0.3
			c0.2,0,0.3,0.1,0.5,0.1c0.5-0.1,1.3-0.4,1.8-0.5c0.5-0.1,1,0.1,1.5-0.1l0.3-0.3c0.3,0,0.6,0.1,0.8,0.1c0.6-0.1,1.5-0.6,2.2-0.8
			c0.4-0.1,0.6,0.2,1,0c0.2,0,0.2,0,0.3,0.1c0,0.2,0.1,0.3,0.2,0.4c0,0.6-0.8,1.3-1.3,1.4h-0.7c-0.1,0.1-0.1,0.3-0.2,0.4
			c-0.1,0.1-0.4,0.2-0.5,0.3c0,0.2,0.1,0.1,0,0.3c0,0.4,0.1,0.4,0.3,0.7c0.1,0,0.3,0.1,0.3,0.2c1.3-0.4,2.1-1.1,2.9-1.9
			c0.1-0.1,0.1-0.1,0.3-0.1c0-0.4,0-0.5,0-0.9c1.1,0.1,2.1,0.9,3,1l-0.2,0.2c0,0.1,0,0.1,0.2,0.2c-0.3,0.4-0.6,0.5-1.1,0.8
			c-0.3,0.1-0.8,1.8-1.2,2.2c0,0.3,0,0.4,0.2,0.6c0.3,0.3,0.6,0.2,1,0.4c0.3-0.3,0.3-0.7,0.5-1.1c0.2-0.3,0.7-0.5,0.9-0.8
			c0.5-0.5,0.8-1.2,1-1.8c0.8,0.1,1.5,0.8,2.1,1.2c0.2,0.1,0.5,0,0.7,0.2c0.3,0.2,0.4,0.5,0.9,0.7c-0.2,0.6-1.8,2.3-1.4,2.9
			c0.1,0.2,0.3,0.3,0.4,0.5c1.3-0.1,1.8-1.7,2.3-2.6c0.5,0.1,2.3,0.9,2.4,1.3c0.1,0.1,0,0,0.1,0.2c-0.7,0.6-1,1.6-1.6,2.3
			c0.1,0.5,0.3,0.5,0.5,0.8c0.2,0,0.3,0.1,0.5,0.1c0.8-0.8,1.5-1.7,2.1-2.7c1,0.2,1.8,0.9,2.7,1.3v0.2c-0.2,0.2-0.7,0.5-0.8,0.8
			c-0.2,0.4,0.1,0.9-0.1,1.3c-0.2,0.4-0.9,0.7-0.8,1.2c0.1,0.4,0.5,0.4,0.7,0.7c0.2,0,0.3,0,0.4-0.1c0.8-0.4,1.5-2.3,2-3.1
			c0.1,0,0.2-0.1,0.3-0.1c0.4,0.5,1.2,0.6,1.8,0.9c0.7,0.4,1.4,0.9,2.1,1.3c-0.1,0.2-0.4,0.2-0.5,0.4c0,0.1,0.2,0.2,0.1,0.3
			c-0.2,0.1-0.3,0.1-0.5,0.2c-0.1,0.2,0.2,0.2,0,0.3c-0.1,0-0.1-0.1-0.2-0.1c0,0.7-0.6,0.9-0.5,1.8c0.2,0.1,0.5,0.2,0.7,0.4
			c0.2,0,0.2,0,0.3-0.1c0.3-0.1,1.8-2.1,1.9-2.4c1.1,0.2,1.9,0.9,2.7,1.4c-0.3,0.3-1.5,2.4-1.1,2.8c-0.1,0.1-0.1,0.1-0.2,0.2h-0.1
			c0.2,0.2,0.5,0.2,0.7,0.4c1-0.3,1.5-1.7,1.9-2.6c1,0.1,1.5,1,2.4,1.3c0.1,0.1,0,0.1,0.1,0.2c-0.2,0.9-1,1.7-1.5,2.3
			c0,0.4,0.1,0.6,0.3,0.8c0.2,0.2,1,0.2,1.3-0.1c0.6-0.4,0.7-1.5,1.3-1.9c0.1-0.1,0,0,0.2-0.1c0.8,0.8,2,1.5,2.9,2.1
			c-0.1,0.3-1.7,2-1.9,2.1c0,0.5,0,0.7,0.3,0.9c0.1,0.1,0.3,0.1,0.6,0.1c0.6-0.6,1.8-1.4,2.2-2.2c1,0.1,1.5,1.2,2.1,1.8
			c-0.2,0.5-0.8,0.5-1.3,0.8c-0.6,0.4-1,1.1-1.5,1.6c0,0.3,0,0.4,0.1,0.6c1.1,0.1,2.4-0.7,3.2-1.5c0.8,0.2,0.9,2.3,1.3,3
			c0,1.6-0.8,0.8-1.9,1.2c-0.2,0.1-0.7,0.3-0.9,0.4c0,0.7,0.3,0.7,0.6,1.1c0.5,0,0.9,0.1,1.2-0.1c0.4,0,1-0.1,1.3,0.1
			c0.3,0.4-0.1,0.7,0,1.3c0.1,0.8,0.1,1.8-0.2,2.8c-0.4-0.1-1.9-0.2-2.1-0.1c-0.4,0-0.4,0.1-0.7,0.3c0,0.7,0.3,0.7,0.5,1.2
			c0.5,0,1.5,0,2.2,0.1l0.1,0.1c0,1.3-0.3,2.3-0.3,3.7c0,0-0.1,0.1-0.1,0.1c-1.1-0.1-1.8-0.2-2.6,0c0,0.2-0.1,0.5-0.2,0.6
			c0.6,0.6,1.4,0.8,2.4,0.9l0.1,0.1c0,1.2-0.4,2-0.5,3.1c-1,0-1.6-0.1-2.4-0.1c-0.1,0.2-0.3,0.2-0.5,0.3c0,0.4,0.1,0.5,0.2,0.8
			c0.9,0.2,1.5,0.3,2.5,0.2c-0.1,1.1-0.3,1.8-0.4,2.8c-0.5,0-1.4,0.1-1.8,0c-0.3-0.1-0.5-0.5-0.8-0.3c-0.6,0-0.5,0.2-0.8,0.4
			c0,0.2,0,0.4,0.1,0.5c0.3,0.6,1.5,0.8,2.3,0.7c0.4-0.1,0.5-0.4,1-0.5c-0.1,0.9-0.4,1.7-0.6,2.4c-1,0.1-1.7,0.2-2.6,0.1
			c-0.1,0-0.3,0.1-0.4,0.1c-1.4-0.3-2.9-0.7-4.1-1.2c-0.3,0-0.5-0.1-0.8-0.1c-0.5-0.2-0.9-0.5-1.4-0.5c-1-2-0.3-3.4,0.1-5.6
			c0-0.1-0.1-0.2-0.1-0.4c0.3-1.2,0.2-2,0.3-3.4c0-0.2-0.2-0.4-0.1-0.8c0.3-1.1,0.7-4.3,0.4-5.6c-0.3-1.2,0.1-2.5-0.3-3.4
			c-0.2-0.5-1-1-1.3-1.4V275c-0.2-0.4-1.3-1-1.7-1.3c-0.7-0.5-1.2-1.5-2-1.9c-2-1.2-3.9-2.5-5.9-3.6c-0.5-0.3-0.9-0.2-1.4-0.4
			c-1.4-0.6-2.9-1.3-4.5-1.8c-0.5-0.2-1.3,0-1.6-0.1l-0.3-0.3c-0.5-0.2-1.2,0.1-1.8-0.2l-0.3-0.3c-0.3-0.1-0.6-0.1-0.9-0.2
			c-1-0.3-1.9,0-2.5-0.5c-1.3,0-0.8,0.2-1.3,0.8c0.2,0.5,0.6,0.5,0.8,0.9c1.6,0,2.8,0.5,4.1,0.8c0.1,0,0.4-0.1,0.6-0.1
			c1.3,0.3,3.7,0.5,4.6,1.2c0.1,0.1,0.8,1.2,0.8,1.3c0,0,0.1,0.1,0.1,0.1h-0.1v0.4c-0.7,0.1-1.3,0-1.8-0.2c-0.2,0.3-0.9,0.6-1.2,0.8
			c0.1,0.2,0.2,0.6,0.3,0.8c0.6,0.5,2.2-0.1,3.3-0.1c0.1,0.5,0.3,1.4,0.6,1.8c-0.1,0.5-0.7,0.7-1.2,0.8c-0.1,0-0.3-0.1-0.4-0.1
			c0,0-0.1,0.3-0.2,0.3c-0.1,0-0.2-0.1-0.3-0.1c-0.3,0.2-0.6,0.6-0.9,0.8c0,0.2,0,0.4-0.1,0.5c0.1,0.3,0.4,0.3,0.6,0.5
			c1.1,0,1.2-0.6,2.1-0.5c0.1-0.3,0.3-0.4,0.4-0.6c0.2,0,0.2,0,0.3,0.1c1,0.5,0.7,2.2,1.6,3c-0.1,0.6-0.4,0.3-0.8,0.6
			c-0.7,0.4-1.3,0.3-1.8,1c-0.1,0.1,0,0.1-0.1,0.3c0.1,0.1,0.2,0.2,0.3,0.4c0.4,0,0.7,0.3,1.2,0.2c0.5-0.1,1.4-0.7,1.7-1.1
			c0.7,0.1,1.4,2.3,1.5,2.8c-0.4,0.2-0.4,0.3-0.6,0.5c-0.4,0.3-1.1,0.2-1.5,0.6c-0.1,0.1-0.2,0.3-0.3,0.4c0.2,0.2,0.4,0.4,0.4,0.7
			c0.3,0,0.7,0,0.8,0.1c0.6-0.1,1.1-0.5,1.3-0.8c0.9,0.1,0.8,1.3,1.3,1.8c0,1.2-1.6,1.2-2.1,1.4c-0.1,0-0.2,0.1-0.3,0.1
			c0,0.6,0,0.6,0.2,1.1c0.9,0.1,1.5,0,2.1-0.3c0.3-0.2,0.3-0.4,0.8-0.4c0.1,0.8,0.5,2,0.8,2.7c0.1,0.4,0,1.2,0,1.3h-0.1
			c-0.2,0.1-1-0.1-1.1-0.3c-0.3,0.1-0.3,0.3-0.5,0.4h-0.6c-0.3,0.1-0.3,0.4-0.8,0.5c0.1,0.4,0.4,0.6,0.5,0.9c0.5,0,0.6,0,1.1-0.2
			c0.1,0.1,0.1,0.2,0.2,0.3h0.2v-0.3c0.4,0,1-0.1,1.3,0.1c0.1,0.1,0.1,0,0.2,0.1c0.2,0.3,0.1,0.9,0.3,1.1c-0.3,0.7-1.7,0.9-2.2,1.3
			c-0.1,0.2-0.1,0.4-0.2,0.5c0.1,0.2,0.1,0.2,0.2,0.4c1.1,0.3,1.4-0.4,2.7-0.8c0.3,0.9,0.4,2.9,0.3,3.8c-0.3,0-0.9,0.1-1.2-0.1
			c-0.4,0-0.5,0-0.8,0.2c-0.1,0.1,0,0-0.2,0c0,0-0.1,0.1-0.1,0.1c0.1,0.4,0.3,0.6,0.5,0.9c0.1,0,1,0.5,1.4,0.2c0.3,0,0.4,0,0.6,0.1
			c-0.5,1.4-2.1,0.7-3.4,1c-0.8,0.2-1.8-0.2-2.4-0.4c-0.1,0-0.2,0.1-0.3,0.1c0-0.1-0.1-0.1-0.1-0.2c-0.3,0-0.5-0.1-0.8-0.1
			c0-0.1-0.1-0.1-0.1-0.2c-0.1,0.1-0.3,0.1-0.4,0.2c-0.3,0-0.7-0.4-1.1-0.4c-0.7-0.1-1.4,0.2-1.8,0.3c-0.3,0.1-0.7,0-1,0.2
			c-0.9,0.5-3.1,1.8-2,3.4c0.1,0.5,0.4,0.6,0.7,0.8c0.1,0.2,0.2,0.4,0.3,0.6c1.1,0.8,3.1,1.3,4.3,1.2c1-0.1,2.5,0.2,3.1-0.2
			c0.2,0,0.2,0,0.3,0.1c-0.2,1.2-1.7,1.1-2.7,1.5c-2,1-4.1,0.9-4.4,3.8h-0.3c-0.1,0-0.5,0.2-0.7,0.2c-0.2,0-1.2-0.3-1.5-0.1
			c0,0,0,0.3-0.1,0.2c-0.1-0.1-1.4-0.2-1.8-0.2c-2.2,0.4-4.3,0.2-6.1-0.2c-0.4-0.1-0.7,0.2-0.9,0.2c-0.7-0.2-1.9-0.3-2.6-0.5h-1
			c-0.7-0.2-1.6-0.4-2.3-0.6L378.1,310.9L378.1,310.9z M422.1,269.8v0.2c-0.2-0.1-0.1,0.1-0.2-0.2H422.1z M395.7,326.1
			c-0.4,0.1-0.5,0.3-0.9,0.4c0.1,1,1.1,1.5,1.8,1.8c-0.3,0.5-1,0.6-1.1,1.3c-0.8-0.2-1.1,1-2.2,0.7c-0.6-0.2-1.9-1-2.1-0.9h-0.7
			c-0.1,0.1,0,0.1-0.1,0.2c0.1,0.9,1.2,1.7,2,1.9c0,0-0.1,0.1-0.1,0.1c-0.3,1.2-3,2.2-3.8,3.2c-0.8-0.1-2-0.6-2.6-1
			c-0.2,0-0.2,0-0.3,0.1c-0.1,0.1-0.1,0.2-0.2,0.3c0.2,0.7,0.8,0.9,1.3,1.3c0.1,0.2,0.1,0.3,0.1,0.3c-0.3,0.7-1.1,1-1.6,1.6h-0.3
			v0.3c-1.4,0-1.9-0.1-2.9-0.9c-0.2-0.2-0.6-0.2-0.8-0.1c-0.2,0.1-0.2,0.3-0.3,0.5c0.8,0.8,0.9,1.1,2.1,1.6
			c-0.2,0.4-0.8,0.9-1.3,1.1c-0.5,0.4-1.2-0.1-1.5-0.3c-0.3-0.1-0.5,0-0.6-0.1c-0.6-0.3-0.9-0.7-1.8-0.7c0,0-0.1,0.1-0.1,0.1
			c0,0.3,0,0.6,0.1,0.8c0.3,0.8,1.5,0.6,1.8,1.3h0.1c-0.1,0.4-0.3,0.4-0.7,0.6c-1.8,1.1-2.4-0.8-3.9-0.3c-0.1-0.1-0.1,0.1-0.3,0.2
			c0.3,0.7,1,1.3,1.8,1.5c0.4,0.1,0.9,0,1,0.1c0.7,0.3,0.2,0.6,0.4,1.3c0.1,0.3,0.3,0.8,0.4,1.3c-0.5,0.3-1.2,0.6-1.9,0.8
			c-0.6,0.2-0.9-0.1-1.3,0.2c-0.3,0.1-0.2,0.1-0.4,0.3c0.1,0.4,0.2,0.5,0.4,0.8c1.1,0,2.3,0.1,2.9-0.5c0.4,0,0.4,0.2,0.7,0.3
			c0,0.4-0.1,1.6,0.2,2c0,1.3-2.6,1.6-3.7,1.6c0,1.5,2.8,0.9,3.4,0.4c0.2,0,0.2,0,0.3,0.1c0.4,0.5,0.7,2.9,0.6,3.1
			c-0.6,0.9-2.3,0-3.1,0.7c-0.4,0-0.3,0.1-0.5,0.3c0,0.1,0.1,0.3,0.1,0.4c0.8,0.2,2.4,0.8,3.3,0.1c0.3,0,0.4,0,0.6,0.1
			c0.1,0.6,0.2,1.9,0.5,2.3c0,1.9-2,0.8-3.2,1.6c-0.2,0.2-0.3,0.3-0.3,0.7c0.3,0.1,0.4,0.3,0.6,0.3c0.4,0.1,1.1-0.3,1.3-0.3
			c0.3,0,0.6,0.1,0.8,0.1c0.4-0.1,0.4-0.3,0.9-0.3c0.1,0.8,0.5,1.6,0.4,2.3c-0.9,0.2-2.1,0.6-3,0.6c-0.1,0.2-0.1,0.2-0.3,0.3
			c0.2,1.1,2.6,0.7,3.3,0.2c0.6,0.1,1.1,2.3,1,2.5c-0.1,0.7-1.8,1-1.9,0.9c-0.4,0-0.6,0.1-0.8,0.2c0,0.3,0,0.4-0.1,0.5
			c0.3,0.6,2.5,0.5,3,0c0.4,0.2,0.3,0.5,0.7,0.5c0,0.1,0.3,1.6,0.4,1.8c-0.1,1.1-2.3,1.4-3.1,1.5v0.5c0.1,0.1,0.1,0.1,0.2,0.2
			c0.4,0.2,2.3,0.2,2.6-0.3c0.8,0,0.5,0.5,0.8,1c-0.1,0.6-1.1,1.3-1.6,1.3c-0.1,0-0.3-0.2-0.5-0.1c-0.1,0.2-0.3,0.3-0.4,0.5
			c0.1,0.3,0.1,0.3,0.3,0.5c0.7,0.1,1.8,0.1,2.4-0.4c0.3,0.1,0.3,0.2,0.5,0.3c-0.1,0.7-0.8,0.9-1.3,1.1c-0.1,0-0.2-0.2-0.3-0.1v0.2
			c-0.3,0.2-0.6,0.1-0.9,0.3c-0.1,0-0.2,0.3-0.3,0.3c-0.6,0.4-1.7,0.2-2.3,0.5c0,0.1-0.1,0.2-0.1,0.3c-0.4,0.2-1.4,0-1.8,0.1
			c-0.3,0.1-0.7,0.1-1.2,0.2c-0.2,0-0.4-0.1-0.7-0.1c-0.4,0.1-0.9,0.2-1.3,0.3c-0.3,0-0.1-0.2-0.3-0.2c-1.1,0.2-2.9,0.3-4.1,0
			c-1-0.3-1.4,0.2-2.1,0.1c-1.1-0.2-2-0.3-2.8-0.7c-0.5-0.2-0.9,0-1.3-0.2c-1.5-0.6-3-0.8-4.4-1.4c-0.6-0.3-1.4-0.9-2-0.9
			c0,0,0.1-0.1,0.1-0.1c-0.1-0.2-0.3-0.1-0.5-0.3c-0.2-0.2-1.2-1.2-1.3-1.4c-0.3-0.6-0.2-2.2-0.2-2.7c0-0.2-0.2-0.5-0.2-0.6
			c0-0.1,0.2-0.6,0.2-0.7c-0.2-1.3-0.2-2.2-0.1-3c0.1-0.5-0.1-0.7,0.1-1c-0.1-0.1-0.2-1.1-0.2-1.2c0.3-0.5,0.2-3.3,0.1-3.8
			c0-0.4,0.1-0.8,0.1-1.2c-0.1-0.2-0.2-1-0.2-1.3c0-0.2,0.2-0.6,0.1-0.9c-0.2-0.9-0.1-1.9-0.2-3c0-0.4,0.1-0.6,0.1-1l-0.2-0.3
			c0.1-0.1,0.3-1.1,0.3-1.6c-0.2-1.3-0.1-4.2,0.2-5.4c0.2-0.8,0-1.9,0.1-2.5c0.1-0.4,0.2-1.1,0.3-1.8c0.1-0.3-0.1-0.7,0.1-1.2
			c0.2-0.4,0.7-0.7,0.9-1c0.5-0.8,0.8-1.8,1.4-2.4c0.3-0.3,0.6-0.6,0.9-1c0.1-0.1,0.2-0.1,0.3-0.2c0.2-0.3,0.3-0.8,0.5-1.1
			c0.5-0.7,1.5-1.9,2.3-2.3v-0.3c0.6-0.1,1-0.7,1.3-1.2h0.3c0.1-0.3,2-2.9,2.3-3.1c0.2-0.2,0.5-0.2,0.7-0.4c0.4-0.4,0.9-1,1.2-1.4
			v-0.3c0.1-0.1,0.4-0.2,0.5-0.3c0.3-0.4,0.5-0.9,0.8-1.3c0.3-0.3,0.6-0.6,0.8-0.8c0.1-0.2,0.2-0.4,0.3-0.7c0.2-0.3,0.8-0.5,1-0.8
			c0.5-0.6,0.9-1.4,1.7-1.9v-0.3c0.7-0.2,1.1-1.1,1.6-1.7c0.1-0.1,0.2-0.1,0.3-0.2c0.9-1.1,1.9-2.1,2.9-3.1c0.5-0.5,0.6-1.3,1.4-1.5
			c0.3-0.1,0.7,0.2,1.1,0.2c0.6-0.1,2-0.1,2.8,0.2c0.2,0.1,0.6,0.3,0.8,0.3c0.6-0.1,2.5,0,3.3,0.2c0.1,0,0.3,0.2,0.6,0.2
			c1-0.1,2.7-0.1,3.8,0c0.4,0,0.7-0.2,1.3-0.1c1.2,0,2.3-0.1,3.5-0.1c0.9,0.2,1.2,0.6,2.3,0.7v1c0.7,0.7,1.1,1.5,2.2,1.8
			c1,0.3,1.7-0.3,2.3,0.1c0.3,0.2,0.2,0.5,0.4,0.8c0.1,0,0.1-0.1,0.2-0.1c0.5,0.5,0.8,1.1,1.8,1.2v0.4c-0.2,0.2-0.3,0.5-0.7,0.6
			c-0.9,0.7-2.7-0.6-2.8-1.4c-0.7,0-0.6,0.3-1.1,0.5c0,1.3,1.8,2,2.8,2.4c-0.2,0.5-0.5,1.1-0.9,1.4c-0.2,0.2-0.4,0.1-0.8,0.3
			c-1.3,0.5-1.4,0.2-2.5-0.5c-0.1,0.1-0.4,0-0.5,0c-0.3,0.1-0.6,0.5-0.3,0.9c0.3,0.8,1.5,0.5,1.9,1.2c0.1,0.1,0,0.4,0.1,0.6
			c-0.5,0.3-2.1,1.2-2.1,1.6C397.6,327.3,396.5,327.1,395.7,326.1z M454.5,349.2h-0.2c0.1,0.9-0.2,2.3-0.5,2.8l-0.1,1.5
			c-0.1,0.1-0.2,0.1-0.3,0.2c0.1,0.2,0.1,0.4,0.2,0.6c-0.1,0.3-0.2,0.4-0.3,0.8c-0.1,0.5,0.1,0.9,0,1.3c0,0.1-0.3,0.2-0.3,0.4
			c0.1,1-0.8,1.8-1.2,2.5c0,0.3-0.1,0.5-0.1,0.8c-0.1,0.3-0.4,0.5-0.6,0.8c-0.2,0.2-0.2,0.9-0.3,0.9c-0.3,0.6-1,1.2-1.3,1.7
			c-0.6,0.8-0.9,1.5-1.6,2v0.3c-0.6,0.1-0.8,0.7-1.4,0.8c-0.8,0.2-3.2-0.3-3.8-0.7c-0.4,0.2-2.1-0.5-2.5-0.7c-0.4,0-0.7-0.1-1.1-0.1
			c-0.3-0.1-0.6-0.4-0.9-0.5c-0.2,0-0.3,0.2-0.3,0.2c0-0.1-0.1-0.2-0.1-0.3c-0.3-0.2-0.7-0.1-0.9-0.2c-0.1,0-0.4-0.3-0.5-0.3
			c-0.2-0.1-0.5,0.1-0.6,0.1c-0.4-0.2-0.5-0.4-1.1-0.4c0.1-0.1,0,0,0.2-0.1c-0.1-0.1-1.3-0.3-1.7-0.8c-0.4,0-0.2-0.1-0.3-0.2
			c-0.2-0.1-0.8-0.1-1.1-0.2c-0.1,0-0.3-0.3-0.4-0.3c-0.1,0-0.5,0.1-0.8,0c-0.5-0.2-0.9-0.2-1.5-0.4c-0.4-0.2-1.4-0.8-1.8-0.6
			c0,0-0.1-0.1-0.1-0.1h0.1c-0.2-0.3-0.9-0.2-1.2-0.3c-0.2-0.1-0.6-0.4-0.8-0.5c-0.3-0.1-1.3-0.1-1.3-0.2c-0.3-0.2-0.7-0.6-1.2-0.8
			c-0.2,0-0.4-0.1-0.6-0.1c-2.2-1.3-5.6-1.6-7.9-3.3c-0.2,0.1-1.8-0.6-2.1-0.8c-0.5-0.4-0.7-1.1-1.2-1.5c-0.7-0.7-1.9-2.1-2-3.1
			h-0.3c0-0.1,0.1-0.1,0.1-0.3c-0.6-0.2-0.3-0.5-0.4-0.7c-0.1-0.1-0.4-0.2-0.5-0.3c0-0.1,0.1-0.2,0.1-0.3c-0.3-0.5-1-1-1.3-1.5
			c-0.2-0.3-0.2-0.7-0.3-1c-0.1-0.1-0.4-0.3-0.4-0.5v-0.4c-0.1-0.1-0.3-0.2-0.4-0.3c0-0.1,0.1-0.2,0.1-0.3c0-0.1-0.3-0.3-0.3-0.3
			c-0.2-0.4-0.1-0.6-0.3-0.8c-0.1-0.1-0.2-0.4-0.3-0.6c-0.1-0.1-0.2-0.1-0.3-0.2c0-0.2-0.1-0.3-0.1-0.5c-0.2-0.2-0.6-0.4-0.8-0.7
			v-0.3h-0.2c-0.1-0.2,0-0.4-0.2-0.6c0-0.1-0.4-0.3-0.4-0.3c0-0.1,0.1-0.1,0.1-0.2c-0.1-0.3-0.3-0.6-0.5-0.8h-0.1V339
			c-0.4-0.6-1.5-2.1-1.4-2.8c-0.1-0.1-0.4-0.3-0.5-0.4c-0.2-0.3-0.2-0.8-0.5-1.1c-0.1-0.1-0.3-0.1-0.4-0.3c-0.4-0.5-0.3-1-0.8-1.4
			c0-0.9,0.8-1,1.3-1.3c0.2-0.2,0.3-0.5,0.5-0.7c0.3-0.3,0.8-0.3,1-0.6c0.1-0.2,0.2-0.4,0.4-0.6c0.1,0,0.3-0.1,0.4-0.1
			c0.2-0.1,0.3-0.5,0.5-0.7c0.2-0.1,0.4,0,0.6-0.2c0.3-0.2,0.4-0.6,0.7-0.8h0.3c0.1-0.1,0.1-0.3,0.3-0.4c0.2-0.3,0.6-0.4,0.8-0.7
			c0-0.1-0.1-0.1-0.1-0.2c0.2-0.2,0.6-0.3,0.8-0.6c0.9-1,1.7-2,2.4-3.1c0.2-0.3,0.7-0.5,0.9-0.8c0.5-0.8,0.9-1.6,1.5-2.3
			c0.9-1.1,2-2.1,2.7-3.4c0.5,0.1,0.5,0.5,0.8,0.8c-0.1,1.2-1,2.8-1.6,3.5c0,0.3,0,0.4,0.2,0.5c0.1,0.2,0.1,0.1,0.3,0.3
			c1.1-0.1,1.4-1.8,2-2.4c0,0,0.1-0.1,0.1-0.1v0.1c0.6,0.2,0.6,0.9,0.9,1.3c0.1,0.1,0.3,0.2,0.4,0.3c0.1,0.4-0.5,0.6-0.8,0.6
			c-0.1,0.4-0.1,1.1-0.3,1.5c-0.1,0.1-0.6,0.5-0.7,0.6v0.6c-0.1,0.2-0.4,0.5-0.5,0.7c-0.2,0.3-0.1,0.6-0.2,0.8
			c0.2,0.1,0.2,0.1,0.3,0.3c0.3,0,0.5,0,0.7-0.1c0.4-0.2,0.3-0.5,0.6-0.9c0.4-0.5,1.3-1.7,1.5-2.3c0.8,0.2,1.6,2.6,2.2,3.3
			c-0.1,0.9-0.7,0.9-1.2,1.4c-0.5,0.5-0.4,1.4-1.2,1.7c0.1,0.2,0.2,0.3,0.3,0.5c1.6,0,1.6-2,2.8-2.2c0.4,0.6,1.1,1.7,1.2,2.3
			c0,1-0.6,0.8-1,1.4c-0.1,0.2,0,0.4-0.2,0.5c-0.3,0.3-0.6,0.2-0.8,0.8h-0.2c0.1,0.1,0,0,0.2,0.1c-0.1,0.1,0,0-0.2,0.1
			c0.1,0.1,0.2,0.2,0.3,0.3c1.4-0.1,1.6-1.1,2.5-1.6c0,0,0.1-0.1,0.1-0.1c0.3,0.5,0.9,1.7,1.2,1.9c-0.5,0.9-1.6,1.5-2.3,2.2
			c-0.1,0.1,0,0.5,0.1,0.8c0.2,0.1,0.3,0.1,0.4,0.3c0.2-0.1,0.4-0.2,0.7-0.3v-0.3c0.5-0.1,1.2-1,1.4-1.4c0.8,0.1,1.3,1.8,1.8,2.3
			c0,0.3,0.1,0.5,0,0.6c-0.1,0.2-1.2,1.6-1.4,1.7v0.3h-0.3c0,0.3,0,0.4-0.2,0.5c0.1,0.2-0.1,0.1,0.2,0.2c0,0-0.1,0.1-0.1,0.1v0.2
			c0.4,0,0.2,0,0.6,0.1c0.6-0.7,1.2-1.4,1.9-1.9c0,0,0.1-0.1,0.1-0.1c0.1,0.2,0.3,0.3,0.5,0.4c0.4,0.4,0.3,1.1,0.8,1.4
			c0,0.9-0.7,1.2-0.6,1.8h-0.3c-0.1,0.6-0.5,0.6-0.5,1.4c0.3,0,0.2,0,0.3,0.2c0.2-0.1,0.2-0.2,0.5-0.3c0.2-1.1,1.2-1.7,1.7-2.5
			c1.1,0.1,2.5,0.6,3.4,1c-0.1,0.6-0.4,0.6-0.7,1c-0.1,0.2-0.1,0.7-0.1,0.8h-0.2c-0.2,0.2-0.3,0.4-0.4,0.8c-0.2,0.1,0,0.4,0.2,0.6
			c1.1-0.2,1.6-2,2.7-2.5c0.4-0.2,1.5,0.2,1.8,0.6c0.3,0.5-1,1.5-0.6,2.2v0.4c0.1,0.1,0.1,0,0.2,0.1c1.2-0.2,1.3-2.6,2.5-2.3
			c0.3,0.1,0.6,0.3,0.8,0.4c0.4,0.2,0.7,0.2,0.8,0.6c0.1,0.1-0.6,1.5-0.8,1.7c0,0.4,0.1,0.5,0.2,0.7c0.3,0.1,0.4,0.1,0.8,0.1
			c0.1-0.8,0.8-1.3,1.1-2.1c1-0.1,1.4,0.4,2.3,0.7c-0.1,0.4,0,1.3-0.4,1.8c0,0.3,0,0.4,0.1,0.6c0.2,0,0.3,0,0.4-0.1
			c0.5-0.2,0.9-1.1,1-1.7c0.6-0.1,1.8-0.1,2.2,0.2c0.6,0.1,0.4,0.4,0.8,0.5c-0.2,1-0.7,1.7-1,2.4c-0.1,0.2,0.1,0.5,0.1,0.7
			c0.6,0,0.7,0,1.1-0.3c0.4-1,0.5-2.5,1.3-2.9c0.2-0.1,0.8,0.1,1,0.3c0.1,0.1,0.2,0.2,0.3,0.3c0.1,0.2-0.2,2.3-0.2,2.3
			c0,0.2,0,0.2,0.1,0.3c0.1,0.1,0.1,0,0.2,0.1c1-0.1,0.6-1.8,1.2-2.5c0.1-0.1,2.4-0.1,2.6,0C454.7,347.6,454.3,348.7,454.5,349.2
			C454.6,349.2,454.5,349.2,454.5,349.2z M370.6,199.4c0.7,0.4,1.2-0.1,1.8,0.3c0.2,0.1,1,1,1.2,1.2c0.8,0,1.5-0.8,1.3-1.5
			c0.1-0.1-0.1-0.2-0.3-0.3c0-0.1,0.1-0.2,0.1-0.3c-0.1,0-0.1-0.1-0.3-0.1c0-0.4-0.1-0.3-0.2-0.6h-0.3c0-0.5-0.2-0.5-0.2-1.3
			c0,0-0.1-0.1-0.1-0.1c-0.2,0-0.8,0.2-0.9,0.3c-0.2-0.1-0.1,0-0.2-0.3c-0.2,0.1-0.5,0.4-0.6,0.1h-0.2c0,0.1-0.1,0.2-0.1,0.3
			c-0.3,0.2-0.7,0-0.8,0.1c-0.1,0.1-0.5,0.4-0.6,0.5c-0.1,0.1-0.1,0.1-0.1,0.3H370c0.1,0.1,0,0.1,0.1,0.2
			C370,199,370.1,199.3,370.6,199.4z M372,197.3c-0.1-0.1-0.1,0-0.2-0.1C371.9,197.2,371.9,197.2,372,197.3z M367.6,206
			c0.4,0.1,0.8,0.4,1.2,0c0.9,0,1.6-1.3,2-1.9c0.2-0.3,0-0.7,0.1-0.9c-0.2-0.7-0.7-0.8-1.3-1.2c-0.2-0.1-0.3,0-0.6,0.1
			c-0.1-0.1-0.2-0.2-0.3-0.3c0,0.3-0.1,0.1,0.1,0.3c-0.7,0.3-1.8,2.3-1.5,3.3C367.4,205.6,367.5,205.7,367.6,206z M376.1,223.4
			c0.4,0.3,1,0,1.5,0.2c1.8,0.4,4.2-0.5,4.9-1.7h0.3c0.1-0.5,0.3-1.1,0.5-1.5c0.1-0.2,0.5-0.4,0.6-0.7c0.1-0.2-0.1-0.8-0.1-1
			c0.3-1.7,0.1-3.4-1.1-4.3c-0.4-0.3-0.9-0.7-1.3-0.9c-0.6-0.3-1.5-0.2-1.9-0.7c-0.7,0-1,0-1.2,0.5c-0.1,0.2,0,0.6,0.2,0.8
			c0.5,0.6,1.4,0.6,2.1,1c0.6,0.3,1,1.1,1.5,1.4c0,3.1-0.7,4.8-2.8,5.3c-1.2,0.3-3.1-0.8-3.8,0.3c-0.1,0.1-0.1,0.6,0.1,0.8
			C375.7,223,375.9,223.3,376.1,223.4z M326.6,233.3h-0.2C326.6,233.4,326.5,233.3,326.6,233.3L326.6,233.3z M381.1,241.3
			c0.1-0.1,0,0,0.1-0.2c-0.1,0-0.1-0.1-0.3-0.1v0.4C381.1,241.4,381,241.5,381.1,241.3z M380.7,241.8c0.1-0.1,0-0.1,0.1-0.2
			c-0.1-0.1-0.1-0.1-0.3-0.1C380.5,241.7,380.5,241.6,380.7,241.8C380.6,241.7,380.6,241.7,380.7,241.8z"/>
	</g>
</g>
<path class="st2" d="M468.5,364.4c0,0,24,4.4,44.5-18.6"/>
<path class="st2" d="M496.9,367.7c0,0,28.7,2.2,47.5-12"/>
<path class="st2" d="M515,357.3c0.8-0.3,29.8-12.6,41.2-40.1"/>
</svg>
