<?xml version="1.0" encoding="utf-8"?>
<!-- Generator: Adobe Illustrator 21.0.0, SVG Export Plug-In . SVG Version: 6.00 Build 0)  -->
<svg version="1.1" id="Calque_1" xmlns="http://www.w3.org/2000/svg" xmlns:xlink="http://www.w3.org/1999/xlink" x="0px" y="0px"
	 viewBox="0 0 841.9 595.3" style="enable-background:new 0 0 841.9 595.3;" xml:space="preserve">
<style type="text/css">
	.st0{fill:#DADADA;}
	.st1{fill:#1D1D1B;}
</style>
<path class="st0" d="M307.6,308v18.5l3.8-0.5c0,0,0,29,2.1,38.8c-5,6,0.3,10.3,0.3,10.3s9.7,2.7,14.3,3.7c4.7,1,6-0.7,6.3-2.3
	c0.3-1.7-2-3.7-2-3.7l-12-6.3l1.7-41h4.3l0.7-22.7l-4.7-2.3l5.3-1l-2-33.7l26,31.7c0,0-4.3,3.3-1.3,6.7c3,3.3,7,3.3,8.3,2.3
	s4-3.7,2-7.3c-2-3.7-5.7-3.3-5.7-3.3s-8-15-18-31.3s-20-12.3-22.7-13s-3-5.3-3-5.3s7.8-4.4,7.1-14.7c-0.7-10.3-5-13.8-11-14h-1.8
	c-6,0.2-10.2,3.8-11,14s7.1,14.7,7.1,14.7s-0.3,4.7-3,5.3c-2.7,0.7-12.7-3.3-22.7,13s-18,31.3-18,31.3s-3.7-0.3-5.7,3.3
	c-2,3.7,0.7,6.3,2,7.3s5.3,1,8.3-2.3s-1.3-6.7-1.3-6.7l26-31.7l-2,33.7l5.3,1l-4.7,2.3l0.7,22.7h4.3l1.7,41l-12,6.3c0,0-2.3,2-2,3.7
	s1.7,3.3,6.3,2.3c4.7-1,14.3-3.7,14.3-3.7s5.3-4.3,0.3-10.3c2.1-9.8,2.1-38.8,2.1-38.8l3.8,0.5V308H307.6z"/>
<path class="st0" d="M534.3,308v18.5l3.8-0.5c0,0,0,29,2.1,38.8c-5,6,0.3,10.3,0.3,10.3s9.7,2.7,14.3,3.7c4.7,1,6-0.7,6.3-2.3
	c0.3-1.7-2-3.7-2-3.7l-12-6.3l1.7-41h4.3l0.7-22.7l-4.7-2.3l5.3-1l-2-33.7l26,31.7c0,0-4.3,3.3-1.3,6.7c3,3.3,7,3.3,8.3,2.3
	s4-3.7,2-7.3c-2-3.7-5.7-3.3-5.7-3.3s-8-15-18-31.3s-20-12.3-22.7-13s-3-5.3-3-5.3s7.8-4.4,7.1-14.7s-5-13.8-11-14h-1.8
	c-6,0.2-10.2,3.8-11,14s7.1,14.7,7.1,14.7s-0.3,4.7-3,5.3c-2.7,0.7-12.7-3.3-22.7,13s-18,31.3-18,31.3s-3.7-0.3-5.7,3.3
	c-2,3.7,0.7,6.3,2,7.3s5.3,1,8.3-2.3s-1.3-6.7-1.3-6.7l26-31.7l-2,33.7l5.3,1l-4.7,2.3l0.7,22.7h4.3l1.7,41l-12,6.3c0,0-2.3,2-2,3.7
	s1.7,3.3,6.3,2.3c4.7-1,14.3-3.7,14.3-3.7s5.3-4.3,0.3-10.3c2.1-9.8,2.1-38.8,2.1-38.8l3.8,0.5V308H534.3z"/>
<path class="st1" d="M301.9,308v18.5l3.8-0.5c0,0,0,29,2.1,38.8c-5,6,0.3,10.3,0.3,10.3s9.7,2.7,14.3,3.7c4.7,1,6-0.7,6.3-2.3
	c0.3-1.7-2-3.7-2-3.7l-12-6.3l1.7-41h4.3l0.7-22.7l-4.7-2.3l5.3-1l-2-33.7l26,31.7c0,0-4.3,3.3-1.3,6.7c3,3.3,7,3.3,8.3,2.3
	s4-3.7,2-7.3c-2-3.7-5.7-3.3-5.7-3.3s-8-15-18-31.3s-20-12.3-22.7-13s-3-5.3-3-5.3s7.8-4.4,7.1-14.7c-0.7-10.3-5-13.8-11-14h-1.8
	c-6,0.2-10.2,3.8-11,14s7.1,14.7,7.1,14.7s-0.3,4.7-3,5.3c-2.7,0.7-12.7-3.3-22.7,13s-18,31.3-18,31.3s-3.7-0.3-5.7,3.3
	c-2,3.7,0.7,6.3,2,7.3s5.3,1,8.3-2.3s-1.3-6.7-1.3-6.7l26-31.7l-2,33.7l5.3,1l-4.7,2.3l0.7,22.7h4.3l1.7,41l-12,6.3c0,0-2.3,2-2,3.7
	s1.7,3.3,6.3,2.3c4.7-1,14.3-3.7,14.3-3.7s5.3-4.3,0.3-10.3c2.1-9.8,2.1-38.8,2.1-38.8l3.8,0.5V308H301.9z"/>
<path class="st1" d="M528.7,308v18.5l3.8-0.5c0,0,0,29,2.1,38.8c-5,6,0.3,10.3,0.3,10.3s9.7,2.7,14.3,3.7c4.7,1,6-0.7,6.3-2.3
	c0.3-1.7-2-3.7-2-3.7l-12-6.3l1.7-41h4.3l0.7-22.7l-4.7-2.3l5.3-1l-2-33.7l26,31.7c0,0-4.3,3.3-1.3,6.7c3,3.3,7,3.3,8.3,2.3
	s4-3.7,2-7.3c-2-3.7-5.7-3.3-5.7-3.3s-8-15-18-31.3s-20-12.3-22.7-13s-3-5.3-3-5.3s7.8-4.4,7.1-14.7s-5-13.8-11-14h-1.8
	c-6,0.2-10.2,3.8-11,14s7.1,14.7,7.1,14.7s-0.3,4.7-3,5.3c-2.7,0.7-12.7-3.3-22.7,13s-18,31.3-18,31.3s-3.7-0.3-5.7,3.3
	c-2,3.7,0.7,6.3,2,7.3s5.3,1,8.3-2.3s-1.3-6.7-1.3-6.7l26-31.7l-2,33.7l5.3,1l-4.7,2.3l0.7,22.7h4.3l1.7,41l-12,6.3c0,0-2.3,2-2,3.7
	s1.7,3.3,6.3,2.3c4.7-1,14.3-3.7,14.3-3.7s5.3-4.3,0.3-10.3c2.1-9.8,2.1-38.8,2.1-38.8l3.8,0.5V308H528.7z"/>
<g>
	<path d="M393.2,303.9v-4.8h41.3v4.8H393.2z M393.2,319.6v-4.8h41.3v4.8H393.2z"/>
</g>
</svg>
