<?xml version="1.0" encoding="utf-8"?>
<!-- Generator: Adobe Illustrator 21.0.0, SVG Export Plug-In . SVG Version: 6.00 Build 0)  -->
<svg version="1.1" id="Calque_1" xmlns="http://www.w3.org/2000/svg" xmlns:xlink="http://www.w3.org/1999/xlink" x="0px" y="0px"
	 viewBox="0 0 841 595" style="enable-background:new 0 0 841 595;" xml:space="preserve">
<style type="text/css">
	.st0{fill:#1D1D1B;}
	.st1{fill:#DADADA;}
</style>
<g>
	<g>
		<path class="st0" d="M494.7,365.1c0.1,0,0.1,0,0.1-0.1c0,0-0.1-0.6-0.1-1c-0.2,0.1,0,0-0.1,0.1c0-0.1-0.2-0.6-0.2-0.7
			c-0.2,0-0.1,0.1-0.2,0h-0.1c-0.1,0,0.1-0.1,0.1-0.1c-0.1-0.2-0.6-0.5-0.8-0.4v-0.2c-0.6-0.1-0.7-0.2-1.3-0.4
			c-0.3,0.1-0.4,0.2-0.7,0.1c0,0.1-0.1,0.1-0.1,0.2c0,0,0,0-0.1,0.1h0.1v0.1c-0.1,0-0.1,0-0.2-0.1v0.1c-0.1,0.1,0,0.1,0,0.3h-0.2
			v0.2c0,0,0.1,0,0.1-0.1c-0.1,0.3-0.2,1.1-0.1,1.3v0.1c0,0,0,0-0.1-0.1c-0.3,0.2,0,0.1-0.1,0.4c0,0-0.3,0.3-0.4,0.3
			c-0.1,0.1,0,0.3-0.1,0.4c-0.1,0.1-0.4,0.1-0.4,0.2c0,0.1,0,0.1,0.1,0.2c-0.2,0.2-0.3,0.2-0.4,0.4c-0.2-0.1,0,0-0.1-0.1h-0.2
			c0.1,0.2,0,0.1,0.1,0.2v0.1c-0.2,0-0.2-0.2-0.4-0.1c0,0-0.1,0.1-0.1,0.1c-0.1-0.1-0.1-0.1-0.3-0.1c0-0.1,0-0.1,0.1-0.2
			c-0.1,0-0.1-0.1-0.3-0.1c0.2-0.6,0.1-0.6-0.1-1.2c-0.1-0.2,0.2-0.3,0.1-0.5c0-0.1-0.2-0.1-0.2-0.1c-0.1-0.1,0.2-0.4,0.1-0.5
			c0-0.1-0.3-0.3-0.3-0.3c0,0,0.1-0.1,0.1-0.1c0,0-0.1-0.1-0.1-0.1c-0.1-0.2,0.1-0.6,0.1-0.7c-0.1-0.2-0.2-0.4-0.4-0.4
			c0.1-0.1,0.1,0,0.2-0.1c0-0.3,0-0.1,0.1-0.4c0,0,0,0-0.1-0.1c-0.2,0.1-0.1,0-0.2,0.1h-0.1c0.1-0.2,0.1-0.2,0.2-0.3
			c0.1-0.2,0.1-0.6-0.1-0.7v0.1h-0.1v-0.1h0.1c0,0,0-0.1-0.1-0.1c0.1-0.2,0.1-0.1,0.2-0.2c-0.1-0.1-0.1,0-0.2-0.1
			c-0.1-1.1,0.1-1.6-0.2-2.6c0.1-0.4,0.1-1.2-0.1-1.4c0.2-0.3,0.1-0.5,0-0.7c0.1,0,0.1,0,0.1-0.1c0.2-0.1-0.2,0-0.1-0.2
			c0.1-0.3,0.1-1.5-0.1-2.1c0-0.1,0-0.2,0.1-0.4c0-0.7,0-1.2-0.2-1.5c0.2,0,0.1,0,0.3,0c-0.1-0.2-0.2-0.3-0.3-0.4c0.1-0.1,0,0,0.2,0
			c0-0.3-0.1-0.2,0.1-0.4c-0.1-0.1-0.1,0-0.2-0.1c0.3-0.5-0.1-0.7,0-1h0.1c0.1-0.1,0-0.4-0.1-0.4c0,0,0-0.1,0.1-0.1
			c0.1-0.3,0-0.7-0.1-1c-0.1-0.3,0.3-0.8,0.1-1.1c-0.1,0-0.1,0-0.2-0.1c0,0,0,0,0.1-0.1c0.1-0.2,0.1-0.2,0.1-0.4
			c-0.1-0.6,0.3-1.1-0.1-1.5c0.1-0.1,0.1,0,0.2-0.1c0-0.1-0.1-0.2-0.1-0.2c0.1-0.1,0.1,0,0.2-0.1c-0.1-0.3-0.2-0.7,0-0.8
			c-0.1-0.2,0-0.1-0.2-0.1c0.2-0.6,0.2-1.8,0.2-1.8c0.1-0.6-0.3-0.8,0-1.1c0.1-0.5-0.3-0.3,0.1-0.8c-0.1,0-0.1,0-0.1-0.1h-0.1
			c0.1-0.1,0.1-0.1,0.3-0.1c-0.1-0.2-0.3-0.9,0.1-1c-0.1-0.2-0.1-0.2-0.3-0.3v-0.1c0,0,0.1,0,0.1,0.1c0,0,0,0,0.1-0.1
			c0-0.1,0-0.3,0-0.5c-0.1-0.1,0-0.1,0-0.2c0,0,0,0,0,0c0-1,0.2-2.6,0.1-2.7v-0.1c0.1,0.1,0,0,0.1,0.1c0.2-0.2,0.3-1.9,0.3-2.3
			c0-0.3,0.2-0.8,0-0.9c0.1-0.4,0.3-0.8,0.1-1c0.1-0.2,0-0.1,0.2-0.1c0-0.1-0.2-0.1-0.2-0.1c0,0,0.1-1,0.1-1c0-0.1,0.2,0,0.1-0.4
			c-0.1-0.5,0.1-1.2,0.1-1.8c0-0.5,0.4-0.9-0.1-1.1c0.1-0.1,0.1-0.1,0.3-0.1c-0.2-0.6,0-0.6,0.1-1.1c0-0.2-0.1-0.3-0.1-0.5
			c0-0.1,0.2-0.5,0.2-0.5c0-0.2,0-0.4-0.1-0.6c0,0,0.1-0.4,0.1-0.4c0-0.2,0-0.3-0.1-0.5l0.1-0.1c0.1-0.2-0.1-0.5-0.1-0.7
			c0,0,0.2-0.2,0.2-0.2c0.1-0.2-0.1-0.1-0.1-0.2c0-0.2,0.2-1.5,0.3-1.6c0-0.2,0-0.1-0.1-0.1c0.1-0.2,0.2-0.2,0-0.4v-0.1
			c0.1,0.1,0,0,0.1,0.1c0.2-0.1,0.1-0.1,0.2-0.1c-0.1-0.1,0,0-0.1-0.1v-0.3c0.2,0,0.1,0,0.2-0.1h0.1c-0.1-0.1-0.1,0-0.2-0.1
			c0-0.2,0-0.1,0-0.2c0.1-0.1,0,0,0.2,0c-0.1-0.6,0-0.8,0.1-1.5c0.1,0.1,0,0,0.1,0.1h0.1c-0.1-0.4-0.2-1.5,0.1-1.9
			c-0.1-0.2,0-0.1-0.2-0.1c0.1-0.2,0.6-1.8,0.4-2.1c0.1-0.2,0-0.1,0.2-0.1c-0.1-0.6,0.6-2.5,0.2-2.9c0.1-0.1,0.1,0,0.2-0.1
			c-0.2-0.8,0.1-1.6,0.1-2.1c-0.1-0.5,0.4-0.8,0.1-1.3c0.1-0.2,0-0.1,0.2-0.1c-0.1-0.3-0.1-0.4,0.1-0.6c-0.3-0.4,0-0.9,0.1-1.3
			c0.1-0.3-0.1-0.6-0.1-0.7c-0.1-0.3,0.1-0.3,0.1-0.5v-0.2c0,0-0.2,0.1-0.1-0.1c0.3-0.7,0.3-1.3,0.4-1.7c0.1-0.6,0-1.4,0.2-1.9
			c-0.1-0.2-0.3-0.8-0.7-0.8c0,0,0.1-0.1,0.1-0.1c-0.2,0-0.1-0.1-0.3,0c-0.2-0.1-0.1,0-0.1-0.2c-1.5,0-2.3,0.4-2.9,1.6
			c-0.1,0.2-0.4,0.8-0.2,1.1c-0.1,0.2,0,0.1-0.2,0.1c0.2,1.6-0.6,3.6-0.4,4.9h-0.2c0,0.3,0.1,1,0.1,1.1c-0.1,0-0.1,0-0.2,0.1
			c0,0.1,0,0.2,0.1,0.4c0,0.4,0,1.1-0.1,1.5c0,0.1-0.2,0.2-0.2,0.4h0.1c0.1,0.4-0.3,0.5-0.1,0.7c-0.1,0.4-0.5,2.1-0.4,2.3
			c-0.1,0.2,0,0.1-0.2,0.1c0.1,0.1,0,0,0.1,0.1c-0.1,0.3-0.2,1.2-0.1,1.3c0,0-0.1,0.1-0.1,0.1c0,0.2,0.1,0.2,0.1,0.4
			c0,0,0,0-0.1-0.1h-0.1v0.3h0.2c-0.1,0.1-0.1,0.1-0.3,0.1c0.1,0.2,0,0.1,0.2,0.2c-0.2,0.3-0.2,0.8-0.3,1.3c0,0,0,0,0,0
			c0,0,0,0,0.1-0.1c0.1,0.1,0,0,0.1,0.1c0,0-0.1,0-0.2,0c-0.1,0.6-0.1,1.2-0.3,1.3c0.1,0.2,0,0.1,0.2,0.1c-0.3,0.8-0.1,1.6-0.4,2.2
			c0,0.1,0.2,0.5,0.1,0.7c-0.1,0.2-0.3,1-0.3,1.3c0,0.1,0.1,0.2,0.1,0.4c0,0-0.2,0.1-0.2,0.1c-0.1,0.4,0.1,0.6,0.1,0.7
			c0,0.2-0.4,1.4-0.4,1.6l0.1,0.2c0,0.3-0.2,0.1-0.2,0.2c0,0,0.1,1.5,0.1,1.6c-0.1,0.1,0,0-0.1,0.1c0,0.3,0,0.1,0.1,0.2
			c-0.3,0.4-0.2,0.6-0.1,1h-0.2c0.1,0.2,0,0.1,0.2,0.1c-0.1,0.5-0.2,0.7,0,1.1c0,0-0.1,0-0.1-0.1c0.1,0.4,0.1,0.2-0.1,0.5
			c0,0.1,0,0.1,0.1,0.2c0,0-0.1,0-0.1,0.1l0.2,0.7c-0.3,0.5-0.3,1.2-0.3,1.6c-0.1,0.5,0.2,0.8-0.2,1.1c0.2,0.3,0.3,0.3-0.1,0.5
			c0.1,0.1,0.1,0,0.2,0.1c-0.2,0.5,0,2-0.3,2.5c0.1,0.2,0,0.1,0.2,0.1v0.1c-0.1,0-0.2,0.1-0.2,0.1c-0.2,0.3-0.1,1.5,0,1.6
			c-0.1,0.1-0.1,0.1-0.2,0.1c0.2,0.4-0.1,0.9,0.2,1.3c-0.1,0.2,0,0.1-0.2,0.1c0,0.2,0.1,1.1-0.1,1.3c0,0.4,0,0.4,0.1,0.4
			c-0.4,0.7-0.4,2.9-0.1,3.6c0,0-0.1,0-0.1-0.1c0.1,0.7-0.2,1.4,0,1.6c-0.1,0.2-0.1,0.1-0.1,0.2h-0.1c0,0,0.1,0.1,0.1,0.1
			c0,0.6-0.4,2.3-0.1,2.7v0.1l-0.2,0.2c0,0.2,0.1,0.2,0.1,0.4c0,0,0,0-0.1-0.1h-0.1c0.1,0.2,0,0.2,0.2,0.3c-0.1,0.1,0,0-0.1,0.1
			c0.1,0.2,0,0.1,0.1,0.1c-0.1,0.2,0,0.1-0.2,0.1c0.1,0.3,0.2,1.1,0.1,1.6c0,0.1-0.2,0.1-0.1,0.3c0.1,1,0,2.5-0.1,3.5
			c0,0.3,0.1,0.8,0.1,1.1h-0.1c0,0.2,0.1,0.2,0.1,0.3c0.1,0.3-0.1,0.3-0.1,0.4c0.2,0.5,0.1,0.6-0.1,1c0.2,0.7,0.1,2.3,0,2.5
			c-0.2,0.6,0.2,0.8,0.1,1.3h-0.1c0,0.2,0.2,0.5,0.2,0.6v0.1h-0.1c0,0.2,0.1,0.2,0.1,0.3c0,0.1-0.1,0.2-0.1,0.2
			c0,0.2,0.1,0.3,0.1,0.4v0.2c0.1,0,0.1,0,0.2-0.1c-0.1,0.2-0.2,0.3-0.3,0.4c0,0,0,0,0.1,0.1c0,0.4,0.1,1.2,0,1.5
			c0.1,0.2,0,0.2,0.3,0.2c-0.4,0.5,0.2,1,0,1.3c-0.1,0.2,0,0.1-0.1,0.1c0.2,0.5,0.3,1.3,0,1.7c0,0,0,0-0.1,0.1v-0.1
			c-0.2,0.1-0.2,0.2-0.2,0.4c0,0-0.1-0.1-0.1-0.1c-0.2,0.1,0,0-0.1,0.1c-0.3,0.3-0.9,0.4-1.3,0.4c0,0.1,0,0.1,0.1,0.1
			c0,0.1-1.2,0.7-1.6,0.7c0,0.2,0,0,0,0.2c-0.6-0.1-0.9,0.3-1.4,0.5c0,0-0.3,0.2-0.4,0.2c-0.1,0-0.2,0-0.4-0.1c0,0-0.1,0.3-0.1,0.3
			h-0.4v0.1c-0.2,0-0.4,0.1-0.7,0.1c-0.1,0-0.2,0.3-0.2,0.3c-0.1,0-0.1,0-0.2-0.1c0,0.1,0,0.2-0.1,0.3c0,0,0,0-0.1-0.1
			c-0.5,0.1-0.8,0.4-1.1,0.5c-0.2,0.1-0.2-0.1-0.4,0c-0.4,0.2-0.9,0.3-1.5,0.6c-0.1,0.1-0.2,0.3-0.3,0.4c0,0,0,0-0.1-0.1
			c0-0.1-0.6,0.2-0.7,0.1h-0.1c-0.2,0.1-0.1,0.2-0.4,0.3v0.2c-1.1-0.2-2,0.8-2.9,1.2c-0.3,0.2-0.8,0.2-1.1,0.4
			c-0.4,0.2-0.6,0.5-1,0.4c0,0,0,0.1-0.1,0.1h0.1v0.1c-0.9-0.2-1.4,0.9-2.6,1c0,0.2,0,0.1-0.1,0.2c-0.1,0.1-1.1,0.6-2,1v0
			c0,0,0,0,0,0c-0.4,0.2-0.8,0.3-1,0.3v0.2c-0.2,0-0.3,0-0.4,0.1c-0.2,0.1-0.1,0-0.1,0.2c-0.1-0.1-0.1-0.1-0.2-0.1
			c-0.2,0.2-0.6,0.4-0.9,0.5l-0.3-0.1v0.2c0,0-0.1,0-0.1-0.1v0.1c-0.2,0.1-0.4,0-0.6,0.1c0,0.1,0,0.1-0.1,0.2
			c-0.1-0.1-0.2-0.1-0.3,0v0.2c-0.2-0.3-1.2,0.5-1.4,0.6c0,0.1,0,0.1,0.1,0.1v0.1c-0.5-0.1-1,0.4-1.6,0.5c0,0,0.1,0.1,0.1,0.1
			c-0.7-0.1-1,0.5-1.6,0.6v0.2c-0.2-0.1-0.4,0-0.6,0.1c-0.2,0.1-0.1,0.1-0.1,0.1v0.1c-0.6-0.1-1.4,1-2.3,1c0,0.2,0,0.1-0.1,0.2
			c-0.1,0-0.2,0-0.4-0.1c0,0.2,0,0.1,0,0.3c-0.3,0-0.6,0-0.7,0.1c-0.5,0-1.4,0.5-2,0.7c-0.2,0-0.4,0-0.7,0.1
			c-0.2,0.1-0.2,0.2-0.2,0.4c-0.2-0.1-0.1-0.2-0.4-0.1c-0.5,0.1-1.5,0.7-1.9,0.6c-0.1,0.1,0,0.1,0,0.2c-0.3,0.1-0.5-0.1-0.8,0.1
			c0,0.1-0.1,0.1-0.1,0.2c-0.2,0.1-0.4,0-0.5,0v0.2c-0.1,0.1-0.1-0.2-0.3-0.1v0.1c-0.3,0.2-0.7,0.1-0.9,0.1l-0.2,0.2
			c-0.1,0-0.7,0-0.8,0.1c0,0.1,0,0.1-0.1,0.2c-0.1,0-0.1,0-0.2-0.1c-0.3,0.1-0.7,0.3-1,0.4c0,0-0.3-0.1-0.4,0
			c-0.1,0-0.1,0.3-0.2,0.3c-0.1,0-0.1-0.2-0.3-0.1c0,0.1-0.1,0.1-0.1,0.2c-0.2,0.1-0.7,0-1,0.1v0.1c0,0-0.2-0.1-0.3-0.1
			c0,0,0,0.1,0.1,0.1c-0.2,0-0.3,0-0.5,0.1v0.1c-0.1,0.1-0.4-0.1-0.5-0.1c-0.4,0.1-0.9,0.4-1.4,0.4c-0.3,0-0.9,0.3-1.1,0.4h-0.4
			c-0.6,0.2-2.1,0.8-2.4,0.7c-0.5-0.1-0.7,0.1-1.1,0.1c-0.1,0-0.3,0-0.4-0.1c0,0.1-0.1,0.1-0.1,0.2c-0.1,0.1,0-0.2-0.2-0.1v0.1
			c-0.2,0.1-0.5,0-0.6,0c-0.3,0.1-1.5,0.7-1.8,0.6c-0.2,0.1-0.1,0-0.1,0.2c-0.6-0.2-1.7,0.4-2.3,0.5c-0.9,0.2-1.9,0.4-2.6,0.7
			l-0.3-0.1c-0.5,0.2-1.4,0.6-2.1,0.5c-0.5,0.3-2.4,0.7-2.8,0.6c-0.1,0-0.3,0.1-0.4,0.1c-0.8,0.2-2.2,0.1-2.6-0.2
			c-0.8-0.7,1.3-2.9,2.1-3c0-0.1,0-0.1-0.1-0.1c0.2-0.1,0.2-0.1,0.4-0.1v-0.2c0.7-0.1,1-0.8,1.6-1c0.1-0.1,0.1,0,0.2-0.1v-0.2
			c0.5-0.1,0.6-0.4,1-0.6c0.2-0.1,0.5-0.1,0.7-0.2v-0.1c0.1-0.1,0.5-0.4,0.5-0.4c0.5-0.3,2.1-1,2.3-1c0.2,0,0.1,0,0.1-0.1
			c0.2,0.1,2.9-0.7,3.2-1c0.3,0,0.2,0,0.2-0.2c0.6,0.2,1.5,0,2.1-0.1c0.1,0.1,0.4,0.2,0.4,0.4v0.4c0,0,0.1,0,0.1-0.1
			c-0.1,1.1-0.9,3.2-0.3,3.9c0.3,0.5,0.8,0.3,1.4,0.3c0.3-0.5,0.5-1.1,0.6-1.6c0.1-0.3-0.1-0.5,0.1-0.7c-0.1-0.3,0-0.1-0.2-0.1
			c0.2-0.3,0.2-0.9,0.1-1.1c0.1,0,0.1,0,0.1-0.1c0-0.1,0-0.6,0-0.9h0.2c-0.2-0.4-0.1-0.3,0-0.8h-0.2c0.1-0.1,0.1-0.2,0.2-0.3v-0.2
			c-0.1,0.1-0.1,0.1-0.1,0.2h-0.1c0.2-0.5,0.2-1.2,0.4-1.7c0-0.2-0.1-0.3-0.1-0.5c0,0,0.3-1,0.2-1.1c0-0.2-0.2-0.8-0.1-1.2
			c0.1-0.6,0-1.7,0.1-2.3c0.1-0.3-0.1-0.4-0.1-0.5c0.1-0.1,0.2,0.1,0.1-0.1c-0.1,0-0.2-0.4-0.2-0.6c0-0.5,0-1,0-1.5
			c-0.1-0.7,0.3-2.7-0.1-3c0.1-0.1,0.1,0,0.2-0.1c-0.1-0.3-0.1-0.2,0-0.5c-0.2,0,0,0-0.2,0c0-1-0.5-2.7-1-3.5c0,0,0.1-0.2,0.1-0.3
			c-0.1-0.2-0.4-0.4-0.4-0.6c0-0.1,0-0.1,0.1-0.2c-0.1-0.2-0.3-0.4-0.4-0.6v-0.3c0,0-0.3-0.1-0.3-0.1c0-0.2-0.1-0.4-0.1-0.7
			c-0.1-0.1-0.2-0.1-0.3-0.2c-0.1-0.2-0.3-0.6-0.4-0.7c0-0.1,0-0.1,0.1-0.2h-0.1c-0.1-0.1,0-0.3-0.1-0.4c-0.1-0.2-0.4-0.3-0.5-0.4
			c0-0.1,0-0.1,0.1-0.2c-0.1-0.1-0.6-0.4-0.7-0.4c-0.2-0.2-0.2-0.6-0.4-0.8c-0.1-0.2-0.6-0.4-0.7-0.5v-0.3c0-0.1-0.3-0.2-0.3-0.2
			c0-0.1,0.2-0.1-0.1-0.4c0.1-0.1,0.2-0.2,0.3-0.4c0.4,0.1,2.8-0.2,3-0.3h0.1c0,0,0,0.1-0.1,0.1c2.5-0.2,4.4,0.1,6.4-0.3
			c0.6-0.1,1.1,0.1,1.8-0.1c0.8-0.2,2.4-0.4,2.9-0.7c0.2,0.2,0.4-0.1,0.6-0.1c0.1-0.1,0.4,0.1,0.4,0.1c0.2-0.1,0.7-0.4,1-0.5
			c0.1,0,0.7-0.1,0.7-0.1c0.3-0.2,0.7-0.5,1.2-0.5v-0.2c0.8,0.2,2.3-1.6,3.4-1.6v-0.2c0.3,0,2.3-1.1,2.3-1.3
			c0.7-0.2,2.9-1.2,3.3-1.7c0-0.1,0,0-0.1-0.1c0.1-0.1,0.4-0.1,0.5-0.1c0.1-0.1,0.1-0.3,0.2-0.4c0.1,0,0.1,0,0.2,0.1
			c0.4-0.3,1-0.6,1.4-0.9c0.1,0,0.2,0.1,0.3,0c0-0.1,0-0.1,0.1-0.2c0.1,0,0.1,0,0.2,0.1c0.5-0.3,1-0.9,1.6-1.1v-0.2
			c0.7-0.1,0.8-0.9,1.7-1c-0.1-0.1,0,0-0.1-0.1c0.1-0.3,0.5-0.3,0.7-0.8h0.2V349c0.7-0.2,1.5-1.7,2.3-1.9c-0.1-0.2,0-0.1-0.1-0.1
			c0.1-0.1,0.1,0,0.2-0.1c0.1,0,0.1,0,0.1-0.1v-0.1h0.2v-0.2c0.3,0,0.2,0,0.2-0.2c0,0,0,0,0.1,0.1c0.6-0.3,0.5-1,1.3-1.2v-0.2
			c0.5-0.1,2.4-1.8,2.7-2.1c0,0,0,0,0.1-0.1h-0.1c0.1-0.2,0.3-0.3,0.5-0.2c0-0.1,0-0.2,0.1-0.4h0.2c0.2-0.4,0.7-0.8,1-1v-0.2
			c0.4-0.1,0.3-0.2,0.6-0.2c0-0.1,0-0.1-0.1-0.1c0.2-0.2,1.2-0.7,1.2-1h0.2v-0.2h0.4c-0.1-0.2-0.1-0.1-0.1-0.2
			c0.2-0.1,0.3-0.2,0.6-0.3c-0.1-0.2-0.1-0.1-0.1-0.2c0.2-0.2,0.2-0.4,0.4-0.5c-0.2-0.3-0.3-0.6-0.7-0.8h-0.3c0,0,0-0.1,0.1-0.1
			c-0.3,0-0.7,0.1-0.9,0.2h-0.1v0.2c-0.5,0.1-0.5,0.6-1,0.8v0.3H466c-0.1,0.7-1.9,2.1-2.3,2.3h-0.1c-0.1,0,0.1,0.1,0.1,0.1
			c-0.1,0.2-0.5,0.4-0.7,0.6c0,0.1,0,0.1-0.1,0.2c-0.2,0.2-0.3,0-0.3,0.3c-0.3,0.1-0.5,0.1-0.7,0.3c0,0.1,0,0.2-0.1,0.3
			c-0.2,0.1-0.4,0.1-0.6,0.2c0,0.1,0,0.1,0.1,0.2l-0.3-0.1c-0.4,0.3-0.2,0.7-0.9,0.7c0.1,0.2,0,0.1,0.1,0.1v0.1
			c-0.1,0-0.1,0-0.2-0.1c-0.2,0.3-0.5,0.4-0.5,0.8c0,0,0,0-0.1-0.1c-0.2,0.1-0.1,0-0.1,0.2c-0.2,0.1-2,1.6-2,1.8
			c-0.2,0.2-0.4,0.1-0.4,0.5c0,0-0.1-0.1-0.1-0.1c-0.2,0.2-2.1,1.8-2.1,2.1v0.1c-0.1,0-0.1,0-0.2-0.1c0,0.2,0,0,0,0.2
			c-0.4,0-0.5,0.4-1,0.7c-0.4,0.2-1.6,0.9-1.9,0.9c-0.4,0.3-0.7,0.8-1.3,0.9c0,0.1,0,0.1,0.1,0.2c0,0-0.1,0-0.1-0.1
			c-0.2,0-0.3,0.2-0.6,0.1c0,0.2-0.1,0.1,0,0.2c-0.2,0.2-0.6,0.2-0.8,0.4v0.2c-0.1,0-0.1,0-0.2-0.1c-0.7,0.4-1.4,1-2.1,1.4h-0.3
			c-0.6,0.3-1.3,0.6-1.8,1.1c-0.2-0.2-0.3,0.1-0.4,0.1c-0.1,0-0.1-0.1-0.2-0.1c-0.6,0.3-1.7,1.3-2.1,1.3c-0.3,0.1-0.1,0-0.1,0.2
			c-0.1,0-0.1-0.1-0.3-0.1v0.2c-0.4,0-1.5,0.5-2.1,0.7c0,0,0,0.2-0.1,0.2c-0.1,0-0.2,0-0.4-0.1v0.1c-0.1,0-0.1,0-0.2-0.1
			c0,0.1,0,0.1-0.1,0.2c-0.1,0-0.2,0-0.4-0.1l-0.2,0.2c-0.3,0.1-0.4-0.1-0.6,0c-0.1,0-0.4,0.2-0.5,0.3c-0.8,0.3-1.6,0.3-2.3,0.6
			c-0.1,0-0.2,0-0.4-0.1c-0.5,0.1-0.9,0.2-1.3,0.3c-0.1,0-0.6-0.1-0.8,0c-1,0.4-2.3-0.1-3.8,0.1c-0.6,0.1-2.8,0.2-3.5,0
			c-0.4,0.3-1.1,0-1.6,0.1c-0.5,0.1-1,0.1-1.5,0c-0.6-0.1-1,0.1-1.5,0c-1.1-0.2-2.3-0.5-3-0.7c-0.5-0.1-0.6,0.2-1-0.1
			c-0.2,0-0.1,0-0.1,0.1c-1-0.2-2-0.1-3-0.1c-0.3,0-0.8,0.1-1,0.1c-0.2,0-0.8-0.2-1-0.2c-0.2,0-0.1,0.1-0.1,0.1l-1.1-0.1
			c-0.4-0.1-0.9-0.2-1.4-0.1c-0.2,0-0.8,0.2-1,0.1c-0.5,0-1.1-0.2-1.7-0.1c-0.6,0.1-1.1-0.1-1.6,0c-0.4,0.1-1,0.4-1.5,0.4
			c-0.3,0-0.5-0.1-0.7,0.1c-0.3-0.4,0.1-0.6,0-1.1c-0.1-0.3-0.4-0.6-0.5-0.8c-0.4,0-0.7,0-1,0.1c-0.1,0.7-0.4,1.2,0.3,1.8
			c-0.1,0.5-0.7,0.3-1.3,0.5c0,0-1.7,0.4-2,0.4c-0.2,0-0.9,0.3-1.6,0.2c-0.6-0.1-3,1-3.8,1.3c-0.4,0.2-0.8,0-1.1,0.2
			c-1.2,0.7-2.5,1.6-3.9,1.4c-0.1-0.5-0.5-1.1-0.8-1.3c-0.2-0.1-1-0.2-1.1-0.1c-0.1,0-0.1,0-0.1-0.1c-0.1-0.3-0.6-0.3-0.8-0.4
			c-0.5,0-1,0.3-1,0.7c-0.1,0.2,0,0.3,0,0.5c0.3,0.1,0.4,0.4,0.7,0.5c0.6,0.2,1.1-0.1,1.4,0.5c0,0,0.1-0.1,0.1-0.1
			c0.1,0.1,0.1,0.1,0,0.2c0.1,0.1,0.1,0,0.2,0.1v0.1c-0.2,0.1-1.1,0.6-1.1,0.8c0,0-0.1-0.1-0.1-0.1c-0.2,0.1-0.2,0.2-0.4,0.3
			c-0.1,0-0.1,0-0.2-0.1v0.2c-0.1,0-0.2,0-0.3-0.1c-0.3,0.2-0.8,0.5-1,0.6c-0.4,0.2-0.6,0-0.7,0.1c-0.2-0.1-0.3-0.1-0.4-0.3
			c-0.3-0.2,0-0.6-0.2-1c-0.1,0-0.2-0.1-0.3-0.1c-0.1-0.3,0-0.5-0.1-0.7c-0.2-0.3-0.5-0.6-0.5-0.9c-0.5-0.1-2.1-0.3-2.4-0.1h-0.1
			c0.1-0.1,0,0,0.1-0.1c-0.1-0.2,0-0.1-0.2-0.1c0-0.3-0.1-0.3,0-0.4c-0.1-0.2-0.1-0.2-0.4-0.3c0.1-0.1,0.1,0,0.2-0.1v-0.1
			c-0.2-0.1-1.3-0.8-1.5-0.4h-0.1c0.1-0.4,0.1-1.1,0.2-1.3l-0.7-0.7c-0.2-0.1-0.7-0.1-0.9-0.2c0-0.1,0-0.2-0.1-0.3
			c-0.2,0.2-0.4-0.5-0.5-0.6c-0.3-0.3-1-0.4-1.3-0.4c0-0.2-0.1-0.4-0.1-0.7c0.2-0.3,0.4-0.5,0.7-0.8c-0.1-0.7-0.6-0.7-0.9-1.2
			c-0.6,0.1-1,0.2-1.3,0.7c-0.5,0-1.1-0.2-1.6-0.4c-0.2,0.2-0.3,0.1-0.5,0.3c0,0.1,0,0.1-0.1,0.2c-0.1-0.1-1.9,0-2.2-0.3
			c-0.1-0.1-0.1-0.3-0.2-0.4c-0.3-0.2-0.6-0.4-0.8-0.7c-0.2-0.2-0.3-2-0.3-2.4c0.5-0.1,0.9-0.3,1.3-0.4c0-0.1,0-0.1,0.1-0.1
			c0-0.5-0.3-0.7-0.4-1c-0.2-0.1-0.3,0-0.4-0.2c-0.6,0-0.9,0-1.1,0.3c-0.2,0-0.3,0-0.4-0.1c-0.2-0.1-0.2-0.1-0.4-0.2
			c0-0.5,0.1-0.5,0.1-0.8c0.4,0.2,0.7,0.1,1,0.1c0,0,0,0,0.1,0.1v-0.2c0.3-0.1,0.3-0.1,0.4-0.2c0-0.1,0-0.1,0.1-0.1
			c0-0.8-0.1-1.1-0.7-1.3v-0.2c-1.5-0.2-1.9-0.8-3.3,0.3c-0.1,0-0.5-0.1-0.6-0.1c-0.4-0.3-0.6-0.8-1-1.1c0.1-0.2,0.2-0.1,0.3-0.2
			c0,0,0,0,0.1-0.1h-0.1v-0.1c0.5,0.2,1-0.1,1.3-0.1c0.3,0.1,0.7,0.6,1.1,0.4c0.5,0,1.1-0.4,1.3-0.7c0.2-0.1,0.1-0.1,0.1-0.4
			c0.2,0.1,0.1,0.1,0.2,0.1c0-0.1,0-0.5,0.1-0.8l-0.3-0.3c-0.8-0.1-1.2,0.2-1.8-0.2c-0.2-0.1-0.6-1.2-0.7-1.6
			c0.2-0.2,0.4-0.5,0.7-0.7c0.1-0.1,0.6,0,0.8-0.1c0.2,0.5,0.5,0.8,0.7,1.2h0.3v0.2c0.5,0.1,0.8,0.3,1.1,0.5
			c0.3,0.1,0.6,0.1,0.9,0.2c0.2-0.1,0.3-0.1,0.4-0.2c0.3-0.1,0.3-0.7,0.2-0.8c-0.1-0.6-0.6-0.6-0.8-1c-0.2,0.1-0.1,0-0.2,0.1
			c-0.2-0.2,0-0.1-0.3-0.1v-0.1c0.5-0.2,0.9-0.1,1.2-0.6c0.1-0.1,0.1-0.4,0-0.6c-0.1-0.5-0.3-0.4-0.4-0.8c-0.3,0-0.6,0-0.7,0
			c-0.1,0.2-0.3,0.5-0.5,0.6c0.2,0.4,0,0.9,0.5,1.3v0.1c-0.7-0.2-1.3-0.4-1.9-0.4c-0.1-0.4-0.3-0.4-0.4-0.8c-0.3,0-0.4-0.1-0.4-0.1
			c-0.2-0.1-0.5,0.1-0.6,0.1c-0.2,0.1,0,0.2-0.2,0.4c-0.2,0.1-0.2,0-0.4,0.2c-0.2,0-0.3,0-0.5-0.1c0-0.1,0-0.3-0.1-0.4h-0.2
			c0.1-0.1,0.1,0,0.3,0c0.1-0.2,0.2-0.6,0.3-0.7c0.1-0.2,0-0.1,0.3-0.1c0-0.1,0-0.1-0.1-0.2c0.1-0.1,0.2-0.1,0.3-0.2
			c0.3-0.5,0.2-0.8,0.6-1.3c0,0,0-0.1-0.1-0.1c0.2-0.2,0.2,0.1,0.3-0.3h0.1c0.1,0-0.1-0.1-0.1-0.1c0.2-0.2,0.4-0.3,0.5-0.5
			c0-0.1-0.1-0.2,0-0.4c0.2-0.2,0.6-0.3,0.7-0.4c0.5,0,0.9,0.2,1,0.5c0.5-0.2,0.8-0.2,1.2-0.3c0-0.5-0.1-0.8-0.4-1.3
			c-0.1-0.1-0.3-0.1-0.4-0.2c-0.1-0.2-0.1-0.5-0.1-0.6c0.3-0.8,1.2-1.5,1.6-2.1c0.8-1.2,1.3-2.3,2.1-3.3c-0.1-0.1,0.7-1.3,0.8-1.5
			c1.1-1.2,2.6-3.4,3.3-5.3c-0.1-0.3,0.2-1.1,0.1-1.3h-0.1c0-0.1-0.1-1-0.1-1c0-0.1,0.1-0.5,0.1-0.6c-0.2-0.6-0.3-1.3-0.6-2.1
			c-0.2-0.4-0.5-0.8-0.6-1.2c-0.1-0.5-0.1-1.3-0.4-1.6c0.1-0.2,0.1-1.3,0.1-1.6c0.3-0.2,0.5-0.6,0.9-0.7c0.4-0.1,1.2,0.2,1.5,0
			c0.1,0.1,0,0,0,0.1c1.2,0,1.9,0.5,2.9,0.9c0.2-0.1,1.2,0,1.3,0.1c0.4,0.2,1.9,0.5,2.3,0.4c0,0,0.3,0,0.1,0.1l-0.1,0.1
			c0.5,0,0.8,0.2,1.2,0.3c1,0.2,2.8,0.7,3.6,1c1,0.3,1.7,0.3,2.7,0.6h0.4v0.1c0.3,0.1,0.8,0,1,0.1c0.3,0.1,1,0.4,1.6,0.4
			c-0.1,0.1,0,0-0.1,0.1c0.4,0.2,1.1,0.1,1.4,0.2c0.7,0.2,1.5,0.6,2.1,0.8c0.2,0.1,0.8,0.1,1,0.1c1.2,0.7,2.7,1.2,4.1,1.8
			c0.3-0.1,1.9,0.2,2.7,0.4l0.3,0.1c0.2,0,0.5-0.1,0.7,0c0.2-0.2,0.4-0.4,0.6-0.4c0.1-0.4,0.3-0.7,0-1c-0.3-0.7-1.1-0.4-1.8-0.6
			c-0.6-0.1-1.3-0.3-1.9-0.4c-0.4-0.1-1.2,0-1.7-0.2c-0.6-0.3-1.2-0.7-1.8-0.9c-0.4-0.1-1.1-0.2-1.7-0.5c-0.1,0-0.3-0.3-0.4-0.3
			c-0.1,0-0.1,0.1-0.3,0.1c-0.3-0.2-1.3-0.5-1.7-0.6c-0.3,0-0.6,0-1-0.1c-1.2-0.4-2.6-0.7-3.8-1.1h-0.7c-1.6-0.8-3.8-1.2-5.2-1.7
			c-0.5-0.2-0.8,0-1.1-0.1c0,0,0-0.1-0.1-0.1c-0.1,0-0.4,0.1-0.7,0c-0.2-0.1-0.3-0.3-0.6-0.4c0-1.3,1.1-1.4,1.3-2.7h0.2
			c0.1-0.5,1.2-2,1.6-2.2v-0.2h0.2c0.2-0.4,0.4-0.5,0.7-0.7c0.1-0.1,0.1-0.6,0.1-0.6c0.1-0.1,0.3-0.1,0.4-0.1c0-0.1,0-0.1-0.1-0.2
			c0.1-0.1,0.2-0.1,0.3-0.1c0-0.1,0-0.2,0.1-0.4c0.1-0.1,0.3-0.1,0.4-0.2c0-0.1,0-0.1-0.1-0.2c0.2-0.2,0.4-0.3,0.6-0.5
			c0-0.1,0-0.1-0.1-0.2l0.1,0.1c0.1-0.1,0-0.3,0.1-0.4c0,0,0.8-0.6,0.8-0.6c0.6-0.2,1.6,0.2,2.1,0.4c0.2,0,0.4,0,0.7,0.1
			c0.9,0.4,1.6,0.6,2.4,0.9c0.3,0.1,1.8,0.4,2.1,0.4c0.6-0.1,1.6,0.1,2.4-0.2c0,0,0-0.1,0.1-0.1h0.3v-0.1c0.2,0.2,1-0.3,1.2-0.4
			c0.1,0,0.1,0,0.2,0.1c0.1-0.1,0.2-0.2,0.3-0.2h0.3c0.3-0.1,0.6-0.4,0.9-0.5c0.3-0.1,0.6,0,0.7-0.1c0.5-0.2,1.1-0.8,1.6-1
			c0.3-0.2,0.6-0.1,0.9-0.3c0-0.1,0-0.1,0.1-0.2c0.1-0.1,0.3,0,0.4-0.1c0.1-0.1,0.2-0.4,0.3-0.4c0.3-0.2,0.8-0.3,1-0.6
			c0.4-0.4,0.8-0.9,1.3-1.3c1-0.7,2.9-1.6,2.9-3.3c-0.1-0.1-0.2-0.2-0.3-0.4c-0.4-0.1-0.7-0.1-1-0.1c-0.9,0.9-1.8,1.9-2.7,2.7
			c-0.3,0.3-0.9,0.5-0.9,0.8c-0.3,0.2-0.7,0.5-1,0.6v0.2c-1,0.1-1.3,1.1-2.4,1.2v0.2c-0.3,0-0.6,0.3-1,0.4c-1,0.4-4.3,1.9-5.9,1.5
			c-0.7-0.2-0.9-0.3-1.6-0.2c0-0.1,0-0.1-0.1-0.2c-0.1,0-0.1,0-0.2,0.1c-0.4-0.1-0.8-0.5-1.1-0.6c-0.1,0-0.4,0-0.4,0
			c-0.1,0-0.1-0.2-0.1-0.2c-0.2,0-0.5-0.1-0.7-0.1v-0.1h-0.3c0,0,0-0.1-0.1-0.1c-0.1,0-0.1,0.1-0.2,0.1c-0.1-0.1-0.2-0.3-0.3-0.3
			c-0.1,0-0.2,0-0.3,0.1c-0.5-0.1-0.6,0-1-0.1c-0.9-0.3-1.9-0.5-2.6-0.8c-0.2,0-0.4,0-0.6-0.1c-0.6-0.2-1.4-0.6-2.1-0.8
			c-0.2-0.1-0.9-0.3-0.9-0.4c0-0.1-0.9-0.3-1-0.4c-0.6-0.3-1.4-0.9-1.9-0.7c-0.2-0.2-0.8-0.6-1.1-0.4H376c0,0,0-0.1,0.1-0.1
			c-0.7,0-1.4,0-1.8,0c-0.1,0-0.5,0.2-0.7,0.1c-0.2,0-1.5-0.2-1.9-0.1c-0.8,0.1-1.9,0.3-2.7,0.1c-0.8-0.1-2.2,0.4-3,0.1
			c-0.4-0.1-1.4-0.6-1.7-0.8c-0.2-0.1-0.3-0.5-0.5-0.6c-0.2-0.1-0.3,0-0.5-0.1c-0.5-0.3-1-0.8-1.6-1h-0.3c-0.6-0.4-1.2-1.2-1.6-1.8
			c-0.2-0.2-0.4-0.3-0.6-0.4c-0.4-0.5-0.5-1.1-0.7-1.7c-0.1-0.1-0.3-0.3-0.4-0.4c-0.1-0.2,0-0.4,0-0.6c-0.1-0.2-0.3-0.6-0.4-0.7
			c0-0.4,0-0.3-0.1-0.4c0-0.4-0.2-0.8,0-0.9c-0.1-0.2-0.1-0.1-0.1-0.2c-0.1-0.1,0.3-1.1,0.1-1.4c0.1-0.1,0.1,0,0.2-0.1
			c0.1-0.9,0.9-1.5,1.3-2.1c0.3-0.4,0.9-1.7,1.6-2.1h0.2c0.1-0.1,0.8-0.9,0.8-1c0.2-0.2,0.7-0.3,1-0.5c0.7-0.7,1.2-1.4,1.9-1.9
			c0.3-0.2,0.1-0.6,0.7-0.7c0-0.1,0-0.2,0.1-0.4c0.3-0.1,1.2-1,1.4-1.3c0,0,0,0,0.1-0.1v0.1c0.2-0.1,0.9-0.8,0.9-1h0.4
			c0.1-0.5,0.7-0.8,1-1.1c0.1-0.1,0-0.1,0.1-0.2c0.5-0.1,1.5-1.5,1.6-1.8c0,0.1,0.3,0,0.4-0.1c0-0.1,0-0.1-0.1-0.2
			c0.1,0,0.2,0,0.4-0.1c0.1-0.5,0.4-0.4,0.7-0.7c0.1-0.1,0.1-0.3,0.1-0.4c0.2-0.1,0.4-0.3,0.6-0.4c0-0.1,0-0.2,0.1-0.3
			c0.1,0.1,0.5-0.3,0.6-0.4c0.4-0.6,1.2-1,1.5-1.7h0.2c0.1-0.5,0.4-0.7,0.7-1c0,0,0.2-0.5,0.3-0.6c0.1,0,0.2,0,0.3-0.1v-0.2
			c0.1-0.1,0.2-0.1,0.3-0.1c0,0,0-0.1-0.1-0.1c0.1-0.2,0.4-0.3,0.5-0.4c0.2-0.2,0.2-0.4,0.3-0.7c0.1,0.2,0.9-0.9,1-1.1
			c0.1,0,0.1,0,0.2,0.1c0.1-0.3,0.4-0.5,0.5-1h0.2c0.2-0.7,1-0.9,1.2-1.6c0,0,0.1,0.1,0.1,0.1c0-0.2,0-0.1,0-0.3
			c0.1,0,0.1-0.1,0.3-0.1c0-0.1,0-0.1-0.1-0.1v-0.1l0.1,0.1c0.2-0.5,0.5-0.7,0.9-1c0.1,0,0,0,0-0.1c0.5-0.9,1.8-1.3,2-2.4
			c0.3-0.1,0.4-0.2,0.4-0.4h0.2c0.1-0.4,1.8-2.3,2.1-2.5v-0.2h0.2c0.1-0.3,0.2-0.4,0.4-0.5c0,0-0.1-0.1-0.1-0.1
			c0.1-0.1,0.2,0,0.3-0.1c0.1-0.1,0-0.1,0.1-0.2c0.1-0.2,0-0.1,0.2-0.1c0-0.1,0-0.2-0.1-0.3c0.1-0.2,0.5-0.4,0.7-0.5
			c0.4-0.4,0.7-1,1.1-1.4c0.3-0.3,0.2-0.7,0.6-0.7c0-0.2,0-0.1-0.1-0.2c0.1-0.1,0.1,0,0.2-0.1c0-0.2,0.3-0.7,0.4-0.8
			c0.1-0.1,0.2,0,0.3-0.1c0.1-0.2,0.1-0.5,0.2-0.6c0.1,0,0.1,0,0.2,0.1c0-0.3,0.1-0.1-0.1-0.3c0.2-0.1,0.3,0,0.4-0.4h0.2
			c0-0.2,0-0.1-0.1-0.2c0.1-0.1,0,0,0.2,0c0.1-0.3,0.3-0.4,0.4-0.7h0.2c0.1-0.4,1.2-1.5,1.6-1.6c-0.1-0.2,0-0.1-0.1-0.1v-0.1h0.3
			c0.1-0.6,1.8-2.1,2-2.1c0-0.1,0-0.1-0.1-0.1c0.4-0.3,0.6-0.6,1-0.8v-0.2c0.4-0.1,0.5-0.6,0.8-0.8c0.9-0.7,1.5-1.6,2.3-2.4
			c0.2-0.3,1-0.8,0.9-1.2c0.1-0.1,0.2,0.1,0.4-0.1c0.2-0.2,1-1.6,1-1.8c0.2-0.3,0.4-0.2,0.7-0.4c0,0,0-0.1-0.1-0.1
			c0.4-0.4,0.7-0.9,1.1-1.3c0.2-0.2,0.9-1.7,1-1.5c0.2-0.1,0.7-1.4,0.7-1.4c0.1,0,0,0.1,0.1,0c0.3-0.1,0.6-1,0.6-1
			c0.1-0.2,0-0.1,0.2-0.1c0.1-0.3,0.2-0.5,0.2-0.7c0-0.3,0-0.2-0.1-0.3c-0.2,0-0.2,0.1-0.5,0.2v0.2h-0.2c0,0.1,0,0.1,0.1,0.1v0.1
			c-0.1,0-0.1,0-0.1-0.1c-0.3,0.1-0.4,0.6-0.7,0.9c0.1,0.2,0.1,0.1,0.1,0.2c-0.8,0.4-0.9,1.4-1.7,1.8v0.3h-0.2
			c-0.1,0.3-0.3,0.4-0.4,0.7h-0.2c0,0.1,0,0.2,0.1,0.3c-0.1,0.2-0.6,0.4-0.7,0.6v0.3c-0.1,0.2-0.6,0.4-0.7,0.6
			c-0.2,0.3-0.3,0.6-0.6,0.8v0.2c-0.5,0.1-1,0.9-1,1.2c-0.1,0-0.1,0-0.1-0.1c-0.1,0.1,0,0.1-0.1,0.2h-0.2c-0.1,0.5-0.7,1.1-1,1.3
			v0.2c-0.4,0.1-0.4,0.4-0.7,0.5v0.2c-0.2,0-0.7,0.5-0.8,0.8h-0.2c0,0.2,0,0.2,0.1,0.3c-0.5-0.1-1.5,1.7-2.3,1.9
			c0,0.1,0,0.1,0.1,0.1v0.1c0,0,0,0-0.1-0.1c-0.4,0.2-0.8,1.2-1.5,1.5v0.2h-0.3v0.1c0,0.1,0,0.1,0.1,0.2c-0.2,0.2-0.8,0.4-0.7,1
			c-0.2,0-0.1-0.1-0.2,0c-0.4,0.2-0.6,0.5-0.7,0.8h-0.2c-0.1,0.6-0.9,1-1.2,1.6c-0.1,0.1,0,0.1-0.1,0.2c-0.3,0.1-1.2,1.2-1.3,1.5
			h-0.2c-0.1,0.4-1.5,2.1-1.6,2.1c0.1,0.2,0.1,0.2,0.1,0.3c-0.1,0-0.1,0-0.2-0.1c-0.2,0.3-0.5,0.4-0.7,0.7c0,0.1,0,0.1,0.1,0.2
			c-0.1,0.1-0.3,0.1-0.4,0.2c-0.1,0.2-0.2,0.4-0.4,0.6c-0.2,0.1-0.4,0.2-0.5,0.4v0.3c-0.1,0.2-0.3,0-0.4,0.4c0,0,0,0-0.1-0.1
			c-0.6,0.4-1,1.7-1.8,1.9v0.2h-0.2c-0.3,0.7-0.8,1.3-1.4,1.7c0.1,0.1-0.3,0.6-0.4,0.7c0-0.1-0.5,0.3-0.7,0.4c0,0.1,0,0.1,0.1,0.2
			c0,0-0.5,0.2-0.5,0.2c-0.1,0.1-0.1,0.4-0.2,0.5c-0.2,0.1-0.4,0.1-0.5,0.3c-0.7,1-1.6,2.4-2.6,3.1v0.2h-0.2v0.2
			c-0.4,0.2-1,1.2-1.3,1.6c-0.1,0.1-0.3,0.2-0.4,0.3c-0.4,0.5-2.5,2.6-2.5,2.9v0.1c0,0,0,0-0.1-0.1c-0.3,0.1-1.2,1.1-1.5,1.5
			c-0.5,0.6-1.2,1.1-1.8,1.6c0,0.1,0,0.2-0.1,0.3h-0.2c-0.1,0.1,0,0.2-0.1,0.3c-0.2,0.1-0.3,0.2-0.5,0.3c-0.1,0.1,0,0.3-0.1,0.4
			c-0.1,0.1-0.3,0-0.4,0.1c-0.4,0.4-0.9,1.3-1.6,1.4v0.2c-0.5,0.2-1.3,1.4-1.8,1.8c-0.1,0.1-0.1,0-0.2,0.1v0.2
			c-0.6,0.2-1.5,1.3-2.1,1.8c-0.1,0.1,0,0.2,0,0.2c-0.2,0.2-0.5,0.1-0.6,0.4h-0.2v0.2h-0.2c0,0,0,0,0.1,0.1v0.1
			c-0.1,0-0.1,0-0.2-0.1c-0.4,0.7-1.2,1.2-1.6,1.6c0.1,0.1-0.5,0.8-0.7,1c-0.6,1-1.7,2.1-2,3c-0.1,0.4-0.4,1.1-0.3,1.6
			c0.1,0.5,0,1.1,0.3,1.8c0,0.1-0.1,0.1-0.1,0.2c0.4,1.4,1.3,3.7,2.4,4.5c-0.1,0.1,0,0.4,0.1,0.5c0.7,0.8,1.8,1.4,2.8,2.1
			c0.1,0.1,0.3,0.3,0.4,0.4c0.2,0.1,0.2-0.1,0.3-0.1c-0.1,0,0.5,0.6,0.7,0.7c0.2,0.1,0.6,0.1,0.7,0.2v0.1c0.1,0.1,0.1,0,0.2,0.1
			c0,0,0,0.1-0.1,0.1c0.1,0.1,0.4,0.1,0.4,0.1c0.5,0.4,1,0.7,1.7,1c1-0.2,2,0.1,3-0.1c0.1,0,0.3,0,0.4,0.1c0.8-0.2,2.7-0.3,4-0.1
			c0.6,0.1,1.7-0.1,1.9,0c1.6,0.5,3.2,1.2,4.7,2c0.7,0.4,1.4,0.3,1.9,0.7c0.1-0.1,0.6,0,0.7,0c0.1,0.1,0.8,0.5,0.8,0.7
			c0.1,0.3-0.3,0.2,0.1,0.4v0.1c-0.1,0-0.1,0-0.1-0.1c-0.5,0.6-1.4,1.5-1.3,2.1c0,0,0,0-0.1-0.1c0,0-2,2.5-2.1,2.8
			c-0.1,0.1,0,0.1-0.1,0.2h-0.2c-0.1,0.3-0.4,0.7-0.6,1c-0.1,0-0.2,0.1-0.3,0.1c0,0.1,0,0.2-0.1,0.4c-0.2,0.3-1.1,1.5-1.4,1.7
			c0,0.1,0,0.1,0.1,0.1v0.1c0,0,0,0-0.1-0.1c-0.2,0.1-0.5,0.3-0.6,0.5c-1,0-1.8-0.4-2.2-0.2c-0.2,0-0.1,0-0.1-0.1
			c-0.9,0.1-2.3-0.3-3.2,0.2c0,0.1,0,0.1-0.1,0.2h-0.2c-0.1,0.1-0.5,0.4-0.5,0.5c-0.1,0.2,0.1,0.3,0,0.4c0,0.1-0.3,0.3-0.3,0.4
			c0,0.1,0,1,0,1c0,0.2,0.2,1.1,0.2,1.3c-0.1,0.4,0.1,0.7,0.2,1c0.1,0.2-0.1,0.3-0.1,0.4c0.1,0.5,0,1.1,0.1,1.6
			c0.2,0.6,0.4,1,0.6,1.6c0.3,0.9-0.1,2,0.4,2.7c-0.6,0.3-0.8,1.4-1,2c-0.2-0.3-0.1,0.3-0.1,0.4H370c-0.2,0.3-0.2,0.6-0.4,0.8
			c-0.7,1-1.4,2.3-2.1,3.1l-0.1,0.1h0.1v0.1c-0.8,0.3-1.2,1.7-1.7,2.4c-0.2,0.3-0.5,0.2-0.4,0.7c-0.3,0.3-0.8,0.6-0.8,1
			c0,0,0,0-0.1-0.1c-0.2,0.1-0.4,0.3-0.4,0.6H364c-0.1,0.5-0.5,0.9-0.9,1.2c0.2,0.1-0.2,0.4-0.3,0.5c-0.4,0.5-1,1.2-1.1,1.9h-0.3
			c-0.3,1.1-1.6,2.1-1.6,3h-0.2c-0.1,0.3-0.2,0.5-0.4,0.7H359c0,0.1,0,0.2,0.1,0.3c-0.1,0-0.1,0-0.2,0.1c-0.2,0.3-0.2,0.8-0.4,1
			c-0.3,0.5-0.8,1-1.2,1.5c-0.1,0.1,0,0.3-0.1,0.4c-0.3,0.4-1.5,1.8-1.4,2.3h-0.2v0.2c-0.2,0-0.1,0-0.2,0.1c0.1,0,0.1,0.1,0.1,0.1
			c-0.1,0-0.2,0.1-0.3,0.1c-0.2,0.3-0.1,0.8-0.3,1.1c-0.5,0.7-0.9,1.3-0.7,2.2c-0.1,0.1-0.3,0.2-0.1,0.4c-0.1,0.2,0,0.1-0.2,0.1
			c0.1,0.2,0,0.1,0.1,0.2c-0.1,0.1-0.1,0-0.2,0.1c0,0.4-0.1,0.5-0.2,0.7c0,0,0.1,0.8,0.1,0.9h-0.1c0,0.1,0.1,0.6,0.1,0.7
			c0,0.5,0.1,1.3,0.3,1.6c-0.2,0.3,0.2,0.9,0.1,1.3c-0.1,0.4,0.8,2.8,1,3c0.1,0.2,0.5,0.5,0.6,0.7c0.2,0.3,0.3,1,0.7,1.3
			c1,0.9,3.6,2.9,3.9,3.8h0.2c0.1,0.5,0.8,0.9,0.8,1.2c0.1,0.2,0.2,0.2,0.3,0.1c0.1,0.1,0,0.2,0.1,0.4c0.5,0.5,0.8,0.5,1.1,1
			c0.1,0.1,0.1,0,0.3,0c0.1,0.3,0.4,0.7,0.7,0.9c0.1,0,0.2,0,0.4,0.1c0.1,0.1,0.1,0.3,0.1,0.3c0.2,0.2,0.6,0.3,0.9,0.5
			c0.2,0.1,0.3,0.4,0.5,0.5l0.7,0.1c0.2,0.2,0.6,0.4,0.8,0.5c0.2,0,0.4,0.1,0.7,0.1v0.1h0.2c0.1,0.1,0.3,0.3,0.4,0.4
			c0.1,0,0.4,0,0.6,0.1c0,0,0.2,0.3,0.2,0.3c0.3,0.2,2.4,0.4,2.7,0.3c0.5-0.1,1-0.3,1.6-0.5c0.1,0,0.1,0,0.2,0.1
			c0.1,0,0.2-0.1,0.3-0.1c0,0,0-0.1-0.1-0.1c0.1,0,0.9,0,1-0.1c0.1,0,0.1-0.3,0.1-0.3c0.2-0.1,0.2,0.2,0.3,0.1
			c0.1,0,0.2-0.2,0.3-0.3c0,0,1.1-0.1,1.1-0.1c0-0.1,0-0.1,0.1-0.2c0.1-0.1,0.4,0.1,0.7,0c0,0,0.2-0.1,0.2-0.1V369
			c0.1,0,0.1,0,0.2,0.1c0.3-0.1,0.6-0.3,0.9-0.4c0.1,0,0.3,0,0.4,0c0.2-0.1,0.5-0.4,0.7-0.4c0.8-0.3,1.4-0.5,2-0.9
			c0.2-0.1,0.5,0,0.6,0c0.2-0.2,0.6-0.4,0.9-0.5c0.2,0,0.4-0.1,0.7-0.1c0-0.1,0-0.1,0.1-0.2c0.3-0.2,0.8,0,1.1-0.2
			c1-0.7,2.7-1.1,4-1.6c0.5-0.2,1.4-0.8,1.9-0.7c0-0.2,0,0,0-0.2c0.6,0.1,0.7-0.3,1.1-0.5c0.1,0,0.2,0,0.3,0.1v-0.1
			c0.2-0.1,0.2-0.1,0.4-0.1c0.1,0,0.1,0,0.2,0.1c0.7-0.5,2.4-1.1,3.4-1.1l1.1-0.2c0.5,0.1,1.2-0.1,1.6-0.3c0.5-0.2,1.1,0,1.4-0.1
			c0.9-0.2,1.8-0.5,2.6-0.7c0.2,0,0.4,0.2,0.6,0.1c0,0,0.3-0.2,0.4-0.2c0.2,0,0.3,0.1,0.4,0.1v-0.1c0.6,0.3,1.4-0.3,2-0.1
			c1.3,0.3,2.5,0,3.9,0.2c0.4,0.1,1.1,0.2,1.7,0.3c0.8,0,1.6-0.1,2.4-0.1c1.2,0.3,2.6,0.5,3.9,0.9c0.2,0.1,0.5-0.1,0.7,0
			c0.1,0.1,0.4,0.4,0.5,0.4l0.3-0.1c0.1,0.1,0.2,0.4,0.4,0.4c0.3-0.2,0.6,0.5,0.9,0.7h0.2c0.1,0.1,0.1,0.4,0.2,0.4h0.2
			c0.2,0.1,0.2,0.4,0.4,0.6c0.2,0.2,0.4,0.2,0.6,0.4c0.2,0.3,0.3,0.7,0.5,1c0.1,0.2,0.4,0.3,0.6,0.4c0.1,0.1,0.1,0.4,0.1,0.4
			c0.4,0.3,1,1,1,1.5h0.2c0,0.7,0.4,0.6,0.5,1.3h0.2c0,0.2,0,0.3,0.1,0.5c0.1,0,0.1,0,0.2-0.1c0,0-0.1,0.1-0.1,0.1
			c0.2,0.7,0.7,1.1,0.7,1.9c0.1,0,0.1,0,0.2-0.1c-0.2,0.3,0,0.6,0.1,1h0.2c-0.4,0.6,0.4,1.5,0,2.1c0,0,0,0.3,0.1,0.1
			c0,0,0,0,0.1-0.1c-0.1,0.2,0,0.1-0.1,0.1c0.1,0.5,0.2,2.4-0.1,2.6c0.4,0.5-0.1,4.2,0,4.8c0,0.3-0.2,1.3,0.1,1.5
			c-0.1,0.1-0.1,0.1-0.3,0.1c0.1,0.1,0,0.1,0.2,0.1c-0.1,0.3-0.2,0.8-0.3,1c0,0,0,0-0.1,0.1h0.1v0.1c-1.6,0.5-2.8,0.8-4.3,1.3
			c-0.4,0.1-1.8,0.5-1.8,0.5c-0.4,0.1-2.2,0.9-2.2,0.9c-0.3,0.1-0.1,0-0.1,0.2c-0.8-0.1-1.6,1-2.4,1c0,0.1,0,0.1,0.1,0.1
			c-0.3,0.2-0.7,0.3-1,0.5c-0.3,0.2-0.6,0.6-1,0.8v0.2c-0.3,0.1-0.2,0.1-0.5,0.1v0.3h-0.3v0.2c-0.5,0.1-0.5,0.5-0.8,0.7h-0.3
			c-0.1,0.1-0.1,0.2-0.1,0.3c-0.2,0.2-0.4,0.1-0.7,0.3c-0.1,0.1,0,0.2,0,0.2c-0.2,0-0.3,0-0.5,0.1c-0.8,0.4-1.9,1.3-2.4,2.1
			c0,0-0.4,1.2-0.6,1.4c0.1,0.2,0,0.1,0.2,0.2c-0.1,0-0.2,0.1-0.2,0.1c-0.1,0.2,0.1,0.4-0.1,0.7c-0.7,1.4-0.9,3.2-1.6,4.1
			c-0.3,0.5-0.1,1-0.5,1.3c0.1,0.2,0,0.1,0.1,0.2c-0.1,0-0.3,0.1-0.4,0.1c-0.1,0.1,0.1,0.3,0.1,0.4c-0.3,0.4-0.6,0.6-0.5,1.2
			c-0.2-0.1-0.1-0.1-0.2-0.1c-0.4,1.1-1.5,3.3-2.3,3.6c0,0.1,0,0.1,0.1,0.1v0.1c-0.4,0-0.4,0.5-0.7,0.9c-0.2,0.2-0.7,0.5-0.8,0.7
			c-0.3,0.5-0.5,1.1-1.1,1.4v0.2h-0.2v0.2c-0.2,0.2-0.4,0.4-0.6,0.6c0,0.1,0,0,0.1,0.1c-0.1,0.1-0.9,1-1,1c0,0.1,0,0.1,0.1,0.1v0.1
			c0,0,0,0-0.1-0.1c-0.4,0.2-0.4,0.5-0.7,0.8v0.1c0,0-0.1,0-0.1-0.1c-0.3,0.6-0.7,1.1-1.2,1.3c0,0.1,0,0.1,0.1,0.1v0.1
			c-0.1,0-0.1,0-0.2-0.1c-0.1,0.3-0.4,0.6-0.4,0.7c-0.1,0.2-0.2,0.2-0.4,0.2v0.3c-0.4,0.1-1.8,1.9-1.9,2.2H393
			c-0.1,0.4-0.3,0.3-0.3,0.8h-0.2c0,0.1,0,0.1,0.1,0.1v0.1c-0.1,0-0.1,0-0.2-0.1c-0.2,0.5-0.6,1.3-1.1,1.5c0,0.1,0,0.1,0.1,0.1v0.1
			c-0.1,0-0.1,0-0.2-0.1c0,0.1,0.1,0.2,0,0.3c0,0-0.4,0.2-0.4,0.3c0,0.1,0,0.2,0.1,0.3c-0.1,0-0.1,0-0.2,0.1c0,0.3,0,0.5,0.1,0.8
			c0.1,0.2,0.2,0.3,0.4,0.5c0.2,0.2,0.3,0,0.4,0.3c0.2,0,0.2-0.1,0.3,0c0.7-0.1,1.6-0.8,1.6-1.5c0.2,0.1,0.1,0,0.2,0.1
			c0.1-0.2,0.1-0.3,0.3-0.4c-0.1-0.2,0-0.1-0.1-0.2c0.1-0.1,0.1,0,0.2-0.1c0.4-0.3,0.3-0.6,0.7-0.9v-0.2c0.2,0,0.2,0,0.3-0.1h0.1
			c0.1-0.1-0.1-0.1-0.1-0.1c0.2-0.3,0.8-0.9,1.1-1.3c0-0.1,0-0.1-0.1-0.2c0.2-0.3,0.9-0.6,0.8-1h0.3c0.1,0,0.3-0.4,0.4-0.4
			c0-0.1,0-0.1-0.1-0.2c0.4-0.3,0.8-0.7,0.8-1.2c0.1-0.1,0.4-0.2,0.4-0.3c0.1-0.2,0-0.4,0.1-0.6c0.1-0.2,0.4-0.3,0.5-0.5
			c0-0.1,0,0-0.1-0.1c0.1-0.1,0.1,0,0.2-0.1c0.1-0.1,0.1-0.1,0.1-0.2c0.1-0.2,0-0.1,0.2-0.1c0.1-0.4,0.1-0.4,0.3-0.6
			c0,0,0.2-0.1,0.1-0.1h-0.1v-0.1h0.3c0-0.4,0.6-0.8,0.8-1.1c0.2-0.2,0.1-0.5,0.3-0.7c0.1-0.1,0.3-0.1,0.4-0.2
			c0.2-0.3,0.2-0.7,0.4-0.8c0.2-0.2,0-0.1,0.2-0.1c-0.1-0.2,0-0.2-0.1-0.3c0.1,0,0.2-0.1,0.4-0.1c0.1-0.7,0.8-1.9,1.3-2.3v-0.1
			c0,0,0.1,0.1,0.1,0.1h0.1c-0.1-0.2,0-0.2-0.1-0.3c0,0,0.1,0,0.1-0.1v-0.1c0,0,0.1,0.1,0.1,0.1h0.1c0-0.2,0.1-0.1-0.1-0.2V408h0.3
			v-0.3h0.2c0-0.2,0.1-0.2,0-0.3c0,0,0,0,0.1-0.1v0.1c0.3-0.1,0.8-0.7,0.9-1.2h0.2c0-0.1,0-0.2-0.1-0.3h0.2c0,0,0-0.4,0.1-0.6
			c0.1,0.1,0.7-0.6,0.5-0.7c0.3-0.2,0.5-0.4,0.4-0.8c0,0,0,0,0.1,0.1c0.2-0.1,0.3-0.4,0.4-0.6c-0.1-0.1,1.2-3.1,1-3.4
			c0.1,0,0.1,0,0.2-0.1c0.1-0.3,0.1-0.5,0.3-0.7c0.2-0.2,0.3,0,0.4-0.3c0.1,0,0.1,0.1,0.2,0.1c0-0.1,0.1-0.1,0.1-0.2
			c0,0,1.3-0.1,1.3-0.1c1.3,0.6,4.2-0.4,5.2-0.6c0.4-0.1,0.9-0.3,1.2-0.5h0.7c0.2-0.2,0-0.3,0.3-0.1c0.3-0.1,1.5-0.9,1.6-0.7
			c0.4,0,0.3,0,0.3-0.2c0.5,0.2,1.1-0.4,1.5-0.2c0.1-0.1,0.1-0.1,0.1-0.3c0.4,0.2,1-0.2,1.7-0.1v-0.2c1.4,0,2.4-0.7,3.6-0.8
			c0.5,0,0.8-0.4,1.3-0.3c0.2-0.1,1.3-0.5,1.4-0.4c0.2-0.1,0.1,0,0.1-0.2c0.9,0,1.6-0.5,2.5-0.5V393c0.7,0,1.2-0.4,1.9-0.3
			c0-0.2,0,0,0-0.2c0.5,0.1,1.4-0.6,1.9-0.3c0,0,0-0.1,0.1-0.1c0.1-0.1,0,0-0.1-0.1h0.1c0.1-0.1,0.3,0.1,0.4,0.1
			c0.2-0.1,0.4-0.3,0.7-0.3c0.2,0,0.1,0.1,0.3,0.1c0-0.2,0,0,0-0.2c0.4,0,0.3,0.1,0.5-0.1c0.3,0,0.2,0,0.2-0.1
			c0.5,0.1,1-0.3,1.6-0.2c0.2-0.3,0.5-0.3,0.6-0.7c0.1,0.1,0.1,0.1,0.1,0.3c0.9-0.3,2.2-0.7,3-1c0.3-0.1,1.3-0.1,1.2-0.4
			c0.7-0.3,1.8-0.1,2.2-0.7h0.1c0,0,0,0.1-0.1,0.1h0.1c0.1,0.1,0,0,0.1,0.1c0.2-0.5,1.5-0.8,2-1c0.4-0.2,0.8,0,1.2-0.2v-0.1
			c0,0,0.8,0,1-0.1v-0.1l0.3,0.1c0.1-0.1,0.2-0.2,0.3-0.3l0.3,0.1c0,0,0.1-0.3,0.1-0.3c0.1,0,0.2,0,0.4,0.1c0,0,0-0.1-0.1-0.1
			c0.2-0.1,0.5,0,0.6-0.1c0.7-0.2,1.1-0.8,2-0.8c0-0.1,0-0.1,0.1-0.3c0.1,0.1,0.1,0.1,0.3,0.1v-0.2c0.3,0.1,0.9-0.2,1.2-0.4
			c0.1,0.2,0,0.1,0.1,0.2c0-0.2,0-0.1,0-0.3c0,0,0.1,0.1,0.1,0.1h0.1c0-0.1,0-0.1,0.1-0.1c-0.1-0.1-0.1,0-0.2-0.1
			c0.1-0.1,0.3,0,0.4,0c0.1,0,0.8-0.3,0.9-0.4v-0.1c0.1,0,0.1,0.1,0.2,0.1c0.1,0,0.1-0.2,0.1-0.2c0.2,0,0.4-0.1,0.7-0.1v-0.1h0.4
			c0.3-0.1,0.5-0.4,0.7-0.4l0.3,0.1c0.5-0.2,1.3-0.9,2-0.9v-0.3c0.1,0.1,0.1,0.1,0.1,0.2c0.3-0.2,0.8-0.5,1.1-0.7
			c0.3-0.1,0.4,0,0.6,0c-0.1-0.2,0-0.1-0.2-0.1v-0.1c0.1,0,0.4,0.2,0.4,0.1c0.2-0.1,0.1-0.3,0.4-0.1c0.1-0.1,0-0.1,0-0.2
			c0,0,0.2,0.1,0.3,0.1c0.3-0.1,0.5-0.3,0.9-0.4v-0.2c0.6,0,0.9-0.3,1.3-0.4c0.1-0.1,0.4,0,0.4,0c0,0,0,0,0.1,0.1
			c0-0.1,0-0.1,0.1-0.2c0.2-0.1,0.4,0,0.7-0.1c0.1-0.1,0.3-0.3,0.4-0.4c0,0,0.8-0.1,0.8-0.1c0.1-0.1,0-0.2,0.1-0.3
			c0.1,0.1,0.8-0.2,0.9-0.2h0.1v-0.2c0.2,0,0.3,0.1,0.5,0.1c0-0.1,0-0.1,0.1-0.2c0.1,0,0.1,0,0.2,0.1v-0.1c0.1,0,0.2,0,0.4-0.1v-0.1
			c0.1,0,0.3,0,0.4,0.1c0.3-0.1,0.6-0.5,0.9-0.6c0.3-0.2,0.7,0,1-0.2c0.3,0,0.3-0.3,0.4-0.1c0.2,0,0.2,0,0.3-0.1c0,0,0,0,0.1-0.1
			h-0.1c0.1-0.2,0.8-0.3,1.1-0.3v-0.1c-0.1,0-0.1-0.1-0.3-0.1c0.2-0.1,1-0.4,1.2-0.4l0.3,0.1c0.1,0,0.1-0.2,0.2-0.3
			c0.2-0.1,0.6-0.2,0.7-0.3c0.1,0,0.3,0,0.4,0.1c0-0.1,0-0.1,0.1-0.2c0.2-0.1,0.2,0.1,0.4,0c0.1,0,0.1-0.2,0.1-0.2
			c0.1-0.1,0,0.2,0.2,0.1c0-0.1,0-0.1,0.1-0.2c0.1,0,0.3,0,0.4-0.1c0,0,0.1-0.3,0.1-0.3c0.3-0.2,0.6,0.2,0.8-0.3
			c0.2,0.1,0.2,0,0.3,0.1c0.3-0.5,2.1-1.1,2.4-1c0-0.2-0.1-0.2,0-0.3v-0.1c0.1,0.1,0.1,0.1,0.1,0.3c0.2-0.1,0.1,0,0.1-0.3
			c0.1,0.1,0,0,0.1,0.1c0.2-0.1,0.1,0,0.1-0.2c0.1,0.1,0,0,0.1,0.1c0.3-0.1,0.5-0.2,0.7-0.3c0-0.1,0-0.1,0.1-0.2l0.3,0.1v-0.1h0.4
			v-0.1c0.2-0.1,0.5,0,0.7-0.1c0,0,0.2-0.3,0.2-0.3c0.1,0,0.6-0.1,0.6-0.1c0.4-0.2,0.6-0.5,1-0.6v-0.2c0.1,0.1,0,0,0.1,0.1h0.2
			c-0.1-0.2,0-0.1-0.1-0.2v-0.1c0.1,0.1,0.1,0.1,0.2,0.1c0.1-0.2,0-0.2,0.2-0.3c0,0,0,0.2,0.1,0.1c0-0.1,0-0.2,0.1-0.3
			c0.1-0.1,0.3,0,0.4-0.1c0.3-0.2,0.1-0.3,0.6-0.4v-0.2c0.3,0,1.3-0.7,1.3-0.7c0.1-0.2,0.2-0.6,0.3-0.7c0.1-0.1,0.5-0.2,0.6-0.4h0.1
			c0.1-0.1-0.1-0.1-0.1-0.1c0.1-0.1,0-0.1,0.1-0.1c0.2-0.1,0.2-0.2,0.2-0.4h0.2c0.1-0.5,0.2-0.2,0.3-0.4l0.4-1.7
			c0.1-0.2,0-0.1,0.2-0.1C494.8,365.4,494.8,365.4,494.7,365.1z M491.2,303.5c-0.1,0-0.1,0-0.1-0.1
			C491.2,303.5,491.1,303.5,491.2,303.5z M489.1,320.1c-0.1,0-0.1,0-0.1-0.1C489.1,320.1,489.1,320.1,489.1,320.1z M461.8,344.7
			c-0.1,0-0.1,0-0.1-0.1C461.8,344.7,461.7,344.6,461.8,344.7z M444.6,357.2c-0.1,0-0.1,0-0.1-0.1
			C444.6,357.2,444.5,357.2,444.6,357.2z M381,299.7c0.1,0,0.1,0,0.1,0.1C381,299.8,381.1,299.8,381,299.7z M366.7,328.6
			L366.7,328.6l0.1,0.1h-0.1V328.6z M357,350.4c-0.2,0.1-0.1,0-0.1,0.1c-0.3-0.1-0.2-0.2-0.4-0.1v-0.2c-0.3,0-0.4,0-0.5-0.1
			c-0.1-0.1,0.1-0.1-0.1-0.2c0.1-0.2,0-0.1,0.1-0.1C356.3,349.5,356.8,350.2,357,350.4L357,350.4z M357.4,347.2
			c-0.2,0.2-0.3,0.3-0.4,0.5c-0.2,0-0.3,0-0.4-0.1h-0.1c0-0.5,0.2-0.6,0.4-0.9c0.2,0,0.2,0,0.3-0.1c0.1,0.1,0.1,0.1,0.3,0.1V347.2z
			 M359.4,354.9h-0.3c-0.1-0.4,0-0.6,0-1.1h0.1c0,0.2,0,0.1,0.1,0.2c0.1-0.1,0.1,0,0.2-0.1c0.1,0.2,0.1,0.1,0.1,0.4
			c0.1,0,0.1,0,0.2-0.1c0.1,0.3,0,0.5,0.1,0.7C359.6,354.9,359.6,355,359.4,354.9z M359.7,350c-0.5-0.1-0.6-0.3-1-0.4
			c0-0.1,0-0.3-0.1-0.4c0.1-0.3,0.4-0.4,0.5-0.6c0.1,0.1,0,0,0.1,0.1c0.2-0.1,0.2-0.1,0.3-0.1l0.4,0.4c0,0.2,0,0.5-0.1,0.7
			c0,0,0,0.3,0.1,0.1c0,0,0,0,0.1-0.1C359.9,349.9,359.8,349.9,359.7,350z M359.6,343.4l-0.3-0.3c-0.2-0.3,0.2-0.8,0.1-1
			c0.1,0,0.2-0.1,0.3-0.1c0.2,0.1,0.4,0.3,0.7,0.4c-0.2,0.4-0.4,0.6-0.4,1C359.7,343.3,359.8,343.3,359.6,343.4z M362.7,352.5
			c-0.4-0.1-0.7-0.3-1.2-0.4v-0.2c0,0,0,0-0.1,0.1c-0.2-0.1-0.1-0.1-0.3-0.2c0-0.2,0-0.3,0.1-0.4c0.2-0.4,0.7-0.3,0.9-0.4
			c0.6,0,1.1,0.4,0.9,0.8c0,0,0,0.3,0.1,0.1c0,0,0,0,0.1-0.1c0,0.2-0.1,0.3-0.1,0.4L362.7,352.5z M364,355.4v0.2c-0.2,0-0.2,0-0.4,0
			c-0.2-0.2-0.4-0.3-0.6-0.5c0,0,0,0-0.1-0.1h0.1c0-0.2,0-0.3,0.1-0.4c0.1-0.1,0.3-0.2,0.4-0.1c0.2,0,0.5,0,0.6,0.1
			c0.1,0.2,0.2,0.5,0.1,0.8L364,355.4L364,355.4z M368.8,358c-0.2-0.1-0.3-0.2-0.5-0.1h-0.1c0.1-0.3,0.1-0.2,0.1-0.5
			c0.2,0.1,0.1,0,0.1,0.1c0.2-0.1,0.1,0,0.1-0.2c0.3-0.2,0.4-0.1,0.7-0.4c0.3,0.1,0.4,0,0.6,0.3h0.1
			C369.4,357.5,368.8,357.6,368.8,358z M369.8,363.1c-0.3,0-0.3-0.1-0.5-0.1v-0.1C369.5,363,369.5,363,369.8,363.1L369.8,363.1z
			 M369.9,363c-0.2,0-0.2-0.1-0.3-0.1h0.3V363z M373.9,366.3c-0.5,0.1-0.8,0.4-1.3,0c0,0-0.2-0.4-0.1-0.4c0-0.5,0.3-0.5,0.6-0.8
			c0.2,0,0.3,0,0.4-0.1c0.1,0.1,0.3,0.5,0.6,0.7C373.9,365.9,373.9,366,373.9,366.3z M374.7,362c-0.3-0.1-0.7-0.1-1-0.2
			c-0.5-0.2-0.6-0.6-1-1c-0.6-0.7-1.3-0.7-1.2-2.1h0.2v-0.2c0.2,0,0.1,0,0.2,0.1h0.3c0.1,0.1,0.3,0.4,0.4,0.5c0.3,0.2,0.8,0.3,1,0.5
			h0.1c0,0.1,0,0.2,0.1,0.4h0.2v0.3h0.2c0.1,0.4,0.4,0.4,0.7,0.7c0.2,0,0.1,0,0.1-0.1c0.2,0.1,0.2,0.2,0.4,0.3
			C375.4,361.7,374.9,361.5,374.7,362z M378.7,364.8c-0.2,0.1-0.7-0.1-1.2,0.1c-0.2,0.1-0.3,0.2-0.6,0.3c0,0.2-0.1,0.3-0.2,0.4
			c0.2,0.4,0.5,0.9,1,1c-0.1,0.2-0.1,0.2-0.1,0.5c-0.4,0.2-1.2,0.3-1.6,0.5c-0.4,0-0.6-0.1-0.8-0.1c0-0.2,0-0.2-0.1-0.3
			c0.3-0.4,0.7-1,1.2-1.2c0,0-0.1-0.1-0.1-0.1c0.1-0.2,0-0.1,0.2-0.1v-0.2h-0.2c0.1-0.1,0.2-0.1,0.1-0.3c0-0.1-0.3-0.5-0.4-0.6
			c-0.1-0.2,0-0.5-0.1-0.8c0.2-0.2,0.3-0.6,0.5-0.7c0.2-0.1,0.3-0.1,0.4-0.2c0.2,0.1,0.1,0.2,0.3,0.1c0.1,0.2,0,0.4,0.1,0.6
			c0.3,0.5,0.8,0.7,1.4,0.9C378.7,364.6,378.7,364.7,378.7,364.8L378.7,364.8L378.7,364.8z M395.4,360.4c0.1,0,0.1,0,0.1,0.1
			C395.4,360.4,395.4,360.5,395.4,360.4z M405.3,406.7L405.3,406.7l-0.1-0.1h0.1V406.7z M406.2,404.9c0.1,0,0.1,0,0.1,0.1
			C406.3,404.9,406.3,404.9,406.2,404.9z M429.1,394c0.1,0,0.1,0,0.1,0.1C429.2,394.1,429.2,394.1,429.1,394z M472.5,375.1h0.1
			C472.6,375.2,472.7,375.2,472.5,375.1z M478.2,376.3c0.1,0,0.1,0,0.1,0.1C478.2,376.4,478.2,376.4,478.2,376.3z M483.6,343.1
			L483.6,343.1l-0.1-0.1h0.1V343.1z M487.3,353.9c-0.1,0-0.1,0-0.1-0.1C487.3,353.9,487.2,353.8,487.3,353.9z M487.4,358.6
			L487.4,358.6l-0.1-0.1h0.1V358.6z M487.7,363.3L487.7,363.3l-0.1-0.1h0.1V363.3z M487.8,363.9L487.8,363.9l0.1,0.1h-0.1V363.9z
			 M488,364.6c-0.1,0-0.1,0-0.1-0.1C487.9,364.6,487.9,364.6,488,364.6z M488,365.8L488,365.8l-0.1-0.1h0.1V365.8z M488.6,372.1
			c-0.2-0.1-0.1,0-0.2-0.1C488.5,372,488.5,372,488.6,372.1L488.6,372.1z M493.6,368h-0.1v-0.1h0.1V368z M392.1,298.1
			c0.1,0,1.7,0,1.8,0c0.1,0,0.3-0.2,0.3-0.2c0.4-0.1,1.4,0,1.9-0.1c0.1,0,0.1,0,0.2,0.1c0.8-0.4,1.8-0.7,2.6-1.2
			c0-0.3,0-0.4-0.1-0.6c0.1-0.1-0.3-0.4-0.4-0.6c-0.4-0.2-1.2-0.2-1.6-0.1c-0.2,0-0.5,0.3-0.7,0.3c-0.4,0-0.6,0.1-1,0.1
			c-0.2,0-0.2-0.2-0.3-0.1c-0.7,0.2-2.8,0.2-3.7-0.1c-0.6-0.2-1-0.4-1.6-0.6c-0.3-0.1-0.5,0.1-0.7,0c0,0,0-0.1,0.1-0.1
			c-0.2-0.2-0.3,0-0.5-0.1c-0.1,0-0.2-0.2-0.3-0.3h-0.5c-0.4-0.2-0.6-0.4-1-0.6c-0.5-0.2-0.8-0.1-1.3-0.4c-2.7-1.4-5.7-3.7-9.7-1.9
			c-0.5,0.2-0.8,0.8-1.2,1.1c-0.1,1.1,0.1,1,0.7,1.7c1.1,0,1.9-0.3,2.8-0.1c0.8,0.1,1.6-0.2,1.9,0.1c0,0,0.3,0,0.1-0.1
			c0,0,0,0-0.1-0.1c0.3,0.1,0.5,0,0.8,0.1v0.1c0.2,0,0.3,0,0.5-0.1c0.1,0,0.3,0.2,0.4,0.2h0.5c0.6,0.2,1.3,0.5,1.9,0.7
			c0.1,0,0.4-0.1,0.7,0c0.5,0.2,1.7,0.8,1.9,0.7h0.1c0,0,0,0-0.1,0.1c0.1,0.2,0.9,0.6,1.4,0.6v0.2c0.5,0,1.6,0.4,1.9,0.3
			c0.2,0.1,0,0,0.1,0.1c0,0,0,0,0.1,0.1l0.1-0.1c0,0,0.3,0.4,0.4,0.1c0,0,0,0,0.1-0.1c0,0.1,0,0.1,0.1,0.2c0.1,0.1,0.3-0.1,0.3-0.1
			c0.1,0.1-0.1,0.3,0.1,0.2v-0.1h0.1c0,0,0,0.1-0.1,0.1C391.9,297.9,391.7,298,392.1,298.1z M383.5,304.5
			C383.5,304.5,383.6,304.4,383.5,304.5L383.5,304.5C383.4,304.5,383.5,304.5,383.5,304.5z M373.1,329.9c0.5,0,0.5-0.2,0.8-0.4
			c0-0.6-0.1-0.9-0.1-1.2c-0.4-0.3-0.5-0.5-1.3-0.4c-0.1,0.2-0.3,0.3-0.4,0.6c-0.1,0.1,0,0.5,0,0.6c0.3,0.2,0.6,0.6,0.8,0.9
			C373,329.9,373,329.9,373.1,329.9z M370.4,332.9c0.2,0,0.3,0,0.4-0.1c0.3,0,0.4-0.3,0.4-0.6c0.1,0,0.1,0,0.2,0.1
			c-0.2-0.4-0.5-0.8-0.7-1.2c-0.3,0-0.6,0-0.7-0.1c-0.2,0.1-0.3,0.3-0.5,0.4c0,0.3,0,0.2,0.1,0.4c-0.1,0-0.1,0-0.2,0.1
			c0.1,0.2,0.3,0.7,0.4,0.8C370.2,332.8,370.2,332.6,370.4,332.9z M369.7,331C369.7,331.1,369.8,331.1,369.7,331c0.1,0,0.1,0,0.1,0
			H369.7z M391.8,331.1c-0.2,0.2-0.4,0.4-0.6,0.5c0,0.4,0.1,0.8,0.4,1c0.3,0.3,0.6,0.1,0.9,0.1C392.8,331.9,392.7,331.2,391.8,331.1
			z M379.5,331.5c-0.6,0-0.7,0.5-0.7,0.9c0.2,0.2,0.2,0.3,0.3,0.6c0.4,0.1,0.1,0.1,0.3,0.2c0.2,0.1,0.5,0,0.7,0.1
			C381.2,333,380.5,331.1,379.5,331.5z M376,335.1c0.3,0,0.3-0.1,0.5-0.1c0-0.4,0-0.7-0.1-1c-0.2,0-0.4-0.1-0.7-0.1
			c-0.1,0.1-0.3,0.2-0.4,0.3c0,0.3-0.1,0.4,0,0.6C375.3,335.2,375.7,335,376,335.1z M488.1,334.6c0.1-0.1-0.1-0.2-0.1-0.2
			C488.1,334.5,487.9,334.5,488.1,334.6z M367.9,336.3c0.2,0,0.3,0.1,0.4,0.1c0.1,0.1,0,0,0,0.1c0.1,0,0.1,0,0.1,0.1
			c0.7,0,0.6-0.2,1-0.4c0-0.5-0.2-0.7-0.2-1.1c-0.3-0.1-0.6-0.3-0.9-0.4c-0.1,0-0.4,0.1-0.5,0h-0.1c0,0.1,0.1,0.2,0.1,0.3
			c-0.1,0-0.1,0.1-0.3,0.1C367.5,335.7,367.7,335.8,367.9,336.3z M487.7,337.9c0.1-0.2,0.1-0.2-0.1-0.2
			C487.7,337.7,487.7,337.8,487.7,337.9C487.7,337.9,487.7,337.9,487.7,337.9z M468.6,339v-0.1h-0.1v0.1H468.6z M372.1,343
			c0.3-0.1,0.2-0.5,0.3-0.7c0-0.9-0.8-1.3-1.6-1.4c-0.2,0.1-0.5,0.3-0.7,0.4c0,0.6,0.1,1.1,0.4,1.4C370.7,343,371.7,343.4,372.1,343
			z M372.2,342.6L372.2,342.6l0.1,0.1h-0.1V342.6z M400.9,342c-0.2-0.1-0.6-0.3-0.7-0.5c-0.4,0.1-0.4,0.1-0.9,0.2
			c0,0.3-0.3,0.6-0.1,0.9c0,0.4,0.2,0.5,0.4,0.7c0.2,0,0.5,0,0.7,0.1c0.2-0.2,0.3-0.5,0.6-0.6c-0.1-0.1,0-0.1-0.2-0.1
			c0.1-0.1,0.1,0,0.2-0.1C400.9,342.7,400.9,342.4,400.9,342z M378,341.8c-0.7,0-0.7,0.1-1.3,0.2c-0.1,0.6-0.1,0.8,0.2,1.3
			c0.3,0.1,0.6,0.1,1,0.1c0.1-0.1,0.3-0.3,0.4-0.4c0-0.5-0.1-1-0.5-1.1C377.9,341.9,377.8,341.9,378,341.8L378,341.8z M384.2,343.4
			c0.2-0.1,0.3-0.2,0.4-0.4c0-1.1-0.7-1-0.7-1.2c-0.5,0-0.4,0.1-0.9,0.1c0.1,0.2,0,0.1,0.1,0.1c-0.1,0.1-0.1,0.1-0.3,0.1
			C382.9,342.8,383.4,344,384.2,343.4z M366.1,344.6c-0.2,0.5-0.1,0.7-0.1,1c0.3,0.2,0.7,0.4,0.9,0.7c0.4,0,0.5-0.1,0.8-0.1
			c0.1-0.2,0.1-0.3,0.3-0.4c0-0.7-0.2-0.7-0.4-1.2C366.9,344.5,366.7,344.4,366.1,344.6z M375.5,346.7c0.2,0.2,0.5,0.1,0.7,0.1
			c0.1-0.2,0.1-0.2,0.4-0.3c0-0.1-0.1-0.1-0.1-0.2c0.1-0.1,0.2-0.2,0.1-0.4c0-0.5-0.5-0.9-1-1c-0.2,0.1-0.6,0.3-0.8,0.4
			c0.1,0.1,0,0,0.1,0.1c-0.1,0.2-0.1,0.2-0.1,0.6C375,346.3,375.1,346.6,375.5,346.7z M370.6,347.2c0.4,0,0.6,0.1,1,0.1v-0.2h0.2
			c0-0.8-0.1-0.7-0.2-1.3c-0.3-0.1-0.5-0.1-0.8-0.1c-0.2,0.2-0.2,0.1-0.2,0.4c-0.1,0-0.1,0-0.1-0.1h-0.1c0,0.2,0,0.5-0.1,0.7
			C370.3,346.9,370.5,346.9,370.6,347.2z M368.4,346.9c-0.2,0.2-0.2,0-0.4,0.1c-0.3,0.1-0.1,0.1-0.3,0.2c0,0.3,0.1,0.5,0.1,0.9
			c0.4,0.1,0.7,0.2,1,0.2c0.1-0.2,0.1-0.3,0.3-0.4c0-0.2,0-0.4-0.1-0.6c-0.1-0.3-0.3-0.3-0.4-0.5H368.4z M393.4,350.2l0.4-0.4h0.1
			c0,0,0-0.3-0.1-0.1c0,0,0,0-0.1,0.1c0.1-0.3,0-0.3,0.1-0.6c-0.2-0.1-0.6-0.5-0.7-0.7c-0.2,0-0.2,0-0.4,0c-0.1,0.1-0.2,0-0.3,0.1
			c-0.2,0.1-0.1,0.3-0.4,0.4c0,0.4,0,0.4,0.1,0.8C392.6,350.1,392.7,350.2,393.4,350.2z M383.7,350.8c0.2,0.2,0.6,0.2,0.8,0
			c0.2-0.1,0.2-0.3,0.4-0.4c0-0.6-0.3-0.7-0.5-1c-0.3,0-0.6,0-0.7-0.1c-0.1,0.2-0.3,0.4-0.5,0.4c0.1,0.2,0.1,0.5,0.1,0.7
			C383.4,350.5,383.4,350.7,383.7,350.8z M369.3,352.2c0.3-0.4,0.5-1.6,0.1-2.1c-0.4-0.8-1.2-0.2-1.7-0.1c-0.1,0.9-0.3,1.7-0.4,2.4
			c-0.8,0.2-0.7,0.8-0.9,1c0.1,0.3,0.3,0.7,0.5,0.7v0.2c0.3,0.1,0.5,0.4,0.8,0.5c0.1,0,0.6,0,0.8,0l0.3-0.3c0-0.3,0.1-1.6,0.1-1.6
			c-0.1-0.1-0.3-0.1-0.2-0.4C368.9,352.5,369.2,352.4,369.3,352.2z M380.6,351.4c-0.2-0.2-0.6-0.5-0.7-0.7c-0.3,0-0.7,0.2-0.7,0.1
			c-0.3,0.1-0.2,0.4-0.4,0.7c0.1,0.3,0.3,0.4,0.5,0.8c0.1,0,0.4-0.1,0.4-0.1c0.1,0.1,0,0,0,0.1c0.3-0.1,0.3-0.1,0.4-0.1
			c0-0.2,0,0,0-0.2h0.2C380.6,351.9,380.6,351.7,380.6,351.4z M374,351.9c-0.3-0.1-0.5,0-0.7-0.1c-0.6-0.3-0.4-0.6-1.3-0.7
			c-0.1,0.1-0.2,0-0.4,0.1c0,0-0.1,0.6-0.1,0.7c0.4,0.4,0.9,0.3,1.3,0.7c0.3,0.3,0.2,0.7,0.5,0.9c0.3,0.2,0.5,0,0.7,0.1
			c0.4,0,0.5-0.2,0.7-0.4c0-0.2-0.1-0.4,0-0.6C374.4,352.3,374.2,352,374,351.9z M405.4,351.1c-0.1-0.1-0.2-0.1-0.4-0.1
			c-0.2,0.2-0.5,0.4-0.7,0.5c0.1,0.2,0.1,0.3,0.3,0.4l-0.1,0.1c0.2,0.2,0.5,0.3,0.7,0.4c0.5,0,0.7-0.1,0.8-0.4
			c0-0.2,0.1-0.1-0.1-0.1c0.1-0.1,0.1,0,0.2-0.1C405.9,351.6,405.8,351.3,405.4,351.1z M376.8,353.4c0,0.1,0.1,0.3,0.1,0.4
			c0,0.5,0.4,0.6,0.7,0.7c0,0.1,0.5,0,0.7-0.1c0.1-0.2,0-0.2,0.3-0.3c0-0.7-0.3-0.8-0.5-1.3c-0.2,0-0.5,0-0.8-0.1
			C377.3,352.9,377,353.3,376.8,353.4z M389.2,354.6c0.2,0,0.3,0,0.4-0.1c0.6,0,0.5-0.3,0.9-0.4c-0.1-0.3-0.2-0.5-0.2-1
			c-0.3-0.1-0.3-0.2-0.4-0.3c-0.3-0.1-0.7,0-0.9,0c-0.1,0.2-0.4,0.5-0.5,0.5c0.1,0.4,0.2,0.5,0.2,1c0.1,0,0.1-0.1,0.3-0.1
			c-0.1,0.1,0,0-0.1,0.1C388.9,354.4,389.1,354.4,389.2,354.6z M390.2,352.9H390C390.1,352.9,390,352.9,390.2,352.9L390.2,352.9z
			 M397.9,353.7c-0.1,0.1-0.5,0.3-0.7,0.4c0,0.2,0,0.5-0.1,0.7c0.2,0.1,0.3,0.4,0.4,0.5c0.4,0.3,0.7,0.1,1.1,0.1
			c0.1-0.2,0-0.2,0.3-0.2c0-0.4-0.1-0.8,0-1C398.4,354,398.5,354,397.9,353.7z M382,357.7c0.4,0,0.8,0.1,1-0.1
			c0.2-0.1,0.2-0.2,0.4-0.3c-0.1-0.9-0.3-1-1-1.4c-0.2,0.2-0.1,0.1-0.4,0.1c-0.1,0.2-0.2,0.3-0.4,0.5c0,0.4,0,0.7,0,0.8
			C381.7,357.5,381.9,357.5,382,357.7z M386.8,357.7c0.4,0,0.3-0.1,0.6-0.2c0.1-0.4,0.1-0.7-0.1-0.9c-0.1-0.4-0.5-0.6-1-0.7
			c-0.2,0.2-0.5,0.4-0.8,0.5c0,0.1,0,0.1,0.1,0.1c0,0.5,0.1,0.8,0.4,1C386.2,357.7,386.5,357.8,386.8,357.7z M408.4,357.5
			c0.4,0.1,0.7,0.2,1.1,0.3c0.1-0.2,0.3-0.3,0.6-0.4c0-0.3,0.1-0.4,0.1-0.6c0-0.3-0.1-0.5-0.4-0.7c-0.1-0.3-0.6-0.3-1.2-0.3
			c-0.1,0.2-0.2,0.2-0.4,0.3c0,0.2-0.1,0.5-0.1,0.7C408.2,357.4,408.4,357.1,408.4,357.5z M381.4,361c0-0.2,0.1-0.5,0.2-0.6
			c-0.1-0.3,0-0.2-0.3-0.3c0.1-0.3-0.1-0.3-0.1-0.7H381c0-0.5,0.3-1.2,0.4-1.5c-0.2,0,0,0-0.2,0c0,0,0-0.1,0.1-0.1
			c-0.8-0.3-1-0.9-1.8-1.3c-0.3-0.1-0.9,0.1-1,0.1c0,0.3,0.1,0.3-0.2,0.4c0,0,0.2,1,0.8,1c-0.2,0.2-0.5,0.1-0.7,0.3
			c-0.2-0.1-0.3-0.1-0.4-0.2c-0.1-0.1,0,0,0-0.1c0,0,0,0-0.1-0.1c0,0-0.3,0-0.1,0.1c0,0,0,0,0.1,0.1c-0.3-0.2-0.1-0.2-0.5-0.2
			c0-0.1,0.1-0.1,0.1-0.2c-0.2-0.1-0.6-0.2-0.7-0.2c-0.4,0-0.4,0.1-0.7,0.1c-0.1,0.5-0.1,0.7-0.1,1c0.3,0.1,0.1,0,0.2,0.2
			c0.3,0,0.8,0.3,1,0.1c0.2,0.2,1,1.4,1.6,1c0-0.1,0-0.1,0.1-0.2c0.2,0.1,0.2-0.1,0.4-0.1c0-0.3,0-0.5-0.1-0.7c0,0,0,0,0.1-0.1
			c0.4,0,0.5,0.2,0.8,0.4c-0.5,0.6-0.3,0.9-0.1,1.7h0.2v0.2C380.5,361.1,381.1,361.1,381.4,361z M395.1,359.7
			c0.3-0.1,0.4-0.4,0.6-0.5c0-0.5,0-0.7-0.2-1.1c-0.2-0.1-0.6-0.2-0.9-0.2c-0.2,0.1-0.5,0.2-0.6,0.4c-0.2,0.2-0.3,0.5-0.1,0.7
			C394,359.6,394.8,359.9,395.1,359.7z M386.4,361.1c0.1,0.1,0.6,0.2,0.9,0c0.2-0.1,0.2-0.1,0.4-0.2c0-0.3,0-0.4,0-0.8
			c-0.4-0.3-0.5-0.5-1-0.6c-0.1,0.2,0,0.1-0.3,0.1c-0.1,0.2-0.1,0.3-0.4,0.4c0,0.2-0.1,0.3,0.1,0.5
			C386.1,360.8,386.2,360.9,386.4,361.1z M487.7,360.9L487.7,360.9C487.7,360.9,487.7,360.9,487.7,360.9L487.7,360.9z M493.1,368.8
			c-0.1,0.1,0,0-0.1,0.1v0.1c0.1,0,0.1,0,0.1-0.1h0.1C493.2,368.8,493.1,368.8,493.1,368.8z M481.5,375.5L481.5,375.5
			c-0.1-0.1-0.1-0.1-0.2-0.1C481.4,375.5,481.3,375.5,481.5,375.5z M460.9,380.3h-0.1C460.8,380.4,460.8,380.4,460.9,380.3
			C460.9,380.4,460.9,380.4,460.9,380.3L460.9,380.3L460.9,380.3z M427,383.3L427,383.3c0-0.1,0.1-0.1,0-0.1V383.3z"/>
	</g>
</g>
<g>
	<g>
		<path class="st1" d="M358.9,395.4c0-0.3,0-0.3-0.1-0.3c0.2-0.5,0-0.3-0.1-0.8v-0.7l-0.1-0.1c0-0.2,0.2-0.1,0.1-0.2
			c-0.2-0.7-0.6-2.5-0.4-3.2c0-0.4,0-0.3-0.2-0.3c0.1-1.1-0.1-2.4-0.1-2.9c-0.1-0.3,0.2-0.4,0.1-0.7c-0.2-1.6-0.1-2.9,0-3.9
			c0-0.2-0.1-0.2-0.1-0.3c0.2-0.5,0.1-0.8-0.1-1.3c0.1-0.6,0-1.3,0.1-1.6c0.1-0.4-0.1-1.1-0.1-1.3c0.1-0.7,0-1.8,0-2.2
			c0-0.3-0.1-0.6-0.1-0.7c-0.1-0.4,0.4-1.5-0.1-1.6c0.1-0.1,0,0,0.1-0.1c0-0.2,0-0.1-0.1-0.1c0.1-0.7-0.4-2.2-1.1-2.6
			c-0.4-0.3-1.3,0.1-1.8,0.3c-0.1-0.2-0.6,0.2-0.9,0.1c-0.7,0-2.3,0.7-3.3,0.7c0,0.1,0,0.1,0.1,0.2c-0.5-0.2-1.2,0.1-1.6,0.3
			c-0.2,0.1-0.3-0.1-0.4-0.1c-0.2,0.2-0.5,0.2-0.8,0.3c-0.1,0-0.1,0-0.2-0.1c0,0-0.1,0.2-0.1,0.2c-0.3,0.1-0.6,0-0.7,0
			c-0.5,0.1-2,0.7-2.4,0.7c-0.4,0-1.9,0.4-2.4,0.6c-0.2,0.1-0.5,0-0.5,0v0.1c-0.1,0-0.3,0-0.4,0.1c-0.4-0.1-1.8,0.2-2.3,0.4
			c-0.3-0.1-0.9,0.2-1.2,0.1c-0.9-0.1-3.2,0.6-4.2,0.8c-0.7,0.2-1.2,0.2-1.6,0.4c-0.6,0-1.1,0.1-1.7,0.1c-0.3,0.2-0.7,0.5-1,0.7
			c-0.1,0.1-0.3-0.1-0.3-0.1c-0.3,0.2-0.2,0.4-0.7,0.5c0,0.1,0,0.1,0.1,0.1c0,0,0,0.3-0.1,0.1c0,0,0,0-0.1-0.1c0,0.2,0,0.3,0,0.4
			c0.2,0.9,1.8,1.8,2.4,2.2c0.2,0.1,1.1,0.6,1.1,0.6c0.2,0.2,0.6,0.5,1,0.5c-0.1,0.1,0,0.1-0.2,0.1c0.1,0.1,0.4,0,0.6,0.1
			c0.4,0.3,0.6,0.6,1,0.6c1,0.8,2.2,1.5,3.6,2.3l0.6,0.6c-0.2,0.2-0.2,0.3-0.4,0.6v0.2c-0.1,0-0.1,0-0.2,0.1
			c-0.1,0.1-0.1,0.3-0.2,0.4c-0.1,0-0.1,0-0.2-0.1c0,0.1,0,0.1,0.1,0.2c-0.1,0.2-0.8,0.5-0.9,0.5c-0.1,0.1,0,0.2-0.1,0.3
			c-0.1,0-0.2,0-0.4,0.1c-0.2,0.2-0.3,0.5-0.5,0.7c-0.5,0.3-0.9,0.5-1.2,0.9h-0.2v0.2c-0.6,0.2-1.5,1-1.7,1.6h-0.3
			c-0.1,0.4-0.4,0.7-0.7,0.9v0.2c-0.4,0.1-0.5,0.7-0.8,1c-0.2,0.2-0.5,0.3-0.7,0.5c-0.2,0.2-0.2,0.5-0.4,0.7c-0.1,0-0.1,0-0.2-0.1
			c0,0.1,0,0.2-0.1,0.3c-0.2,0.2-0.5,0.6-0.8,0.7v0.2c-0.5,0.1-1.1,1-1.5,1.3c-0.7,0.6-1.8,1.3-2.6,2.1c-0.1,0.1,0,0.1-0.1,0.2h-0.2
			c-0.1,0.3-1.6,1.6-1.9,1.7v0.2c-0.6,0.1-1.2,1.1-1.8,1.5c0,0.1,0,0.1,0.1,0.1v0.1c-0.1,0-0.1,0-0.2-0.1c-0.2,0.4-0.5,0.7-0.8,1
			c-0.1,0-0.1,0-0.2-0.1c-0.1,0.1-0.2,0.3-0.3,0.4c-0.1,0-0.1,0-0.2-0.1c0,0.1,0,0.1,0.1,0.2c-0.1,0.1-0.2,0.1-0.3,0.2
			c0,0.8,0.4,1.3,0.9,1.6v0.2c0.4,0,1.9,0.8,2.1,1.1c0.2-0.1,0.1,0,0.2-0.1c0.3,0.4,0.3,0.3,0.9,0.5c0,0,0,0.1-0.1,0.1
			c0.3,0.2,1.2,0.6,1.4,0.6c0.1,0,0.1,0.2,0.1,0.3c0.1,0,0.3,0,0.4,0.1c0.1,0.1,0.1,0.3,0.2,0.4c0.1,0.1,0.8,0.3,1,0.4
			c0.4,0.3,0.8,0.9,1.3,0.7c0,0,0,0-0.1,0.1c0.2,0.3,0.7,0.7,1.2,0.7v0.2c1.1,0.2,1.5,1.3,2.5,1.5c0,0.2,0.7,0.7,1,0.7v0.2
			c0.5,0.1,1,0.9,1.4,1.1c0.2,0.1,0.6,0.1,0.6,0.1c0,0,0,0.1-0.1,0.1c0.1,0.1,0.7,0.2,0.6,0.2c0,0.1,0.7,0.3,0.9,0.1
			c0.5,0,0.8-0.2,0.7-0.6c0,0,0.1,0,0.1,0.1c0.1-0.3,0.2-0.8,0.4-1.1c0.3-0.4,0.7-0.7,0.7-1.3c0,0,0.1,0.1,0.1,0.1
			c0.1-0.1,0.2-0.3,0.3-0.4c0-0.1,0-0.1-0.1-0.2h0.2c0.2-0.2,0.2-0.6,0.4-0.9c0.1-0.1,0.4-0.2,0.4-0.4c0-0.2,0-0.4,0.1-0.7
			c0.2-0.4,0.5-1.2,0.8-1.6c0-0.1,0,0-0.1-0.1c0.1-0.2,0-0.1,0.2-0.1c-0.1-0.2-0.1-0.1-0.1-0.2c0.4-0.2,0.7-1.4,1-1.8
			c0.1,0,0.1,0,0.2-0.1c0.1-0.1,0-0.3,0-0.5c0.1,0,0.1,0.1,0.2,0.1c0.2-0.6,0.7-1,0.7-1.7h0.2c0.1-0.8,0.8-1.5,1.3-2.2
			c0.4-0.5,0.4-1.2,1-1.6c-0.1-0.2-0.1-0.1-0.1-0.2c0.4-0.2,0.3-0.6,0.8-0.7c0-0.1-0.1-0.2-0.1-0.2c0.5-0.6,0.8-1.4,1.3-1.9v-0.1
			c0,0,0.1,0,0.1,0.1c0.2-0.5,0.8-1.1,0.8-1.6h0.2c0-0.4,1.2-1.9,1.6-2.1V393c0.4-0.1,0.4-0.2,0.6-0.3c0.3-0.1,0.5,0,0.7-0.1
			c0.6,0.7,2,1.2,2.4,2.2h0.2v0.2c0.3,0.1,0.3,0.2,0.4,0.3h0.4c0.2,0.1,0.6,0.3,0.7,0.4v0.1c0.1,0,0.2,0,0.4,0.1
			c0,0.1,0,0.2,0.1,0.3c0.1,0,0.3,0,0.4,0.1c0.1,0.1,0,0.3,0.2,0.4c0.2,0,0.3,0.1,0.5,0.1c0.3,0.3,0.9,0.9,1.3,1
			c0.1,0,0.2,0,0.4-0.1v0.1c0.2,0.1,0.4,0,0.6,0c0.2-0.2,0.4-0.3,0.6-0.4C358.6,397.4,359.1,395.7,358.9,395.4z"/>
	</g>
</g>
</svg>
