<?xml version="1.0" encoding="utf-8"?>
<!-- Generator: Adobe Illustrator 15.0.0, SVG Export Plug-In . SVG Version: 6.00 Build 0)  -->
<!DOCTYPE svg PUBLIC "-//W3C//DTD SVG 1.1//EN" "http://www.w3.org/Graphics/SVG/1.1/DTD/svg11.dtd">
<svg version="1.1" id="Calque_1" xmlns="http://www.w3.org/2000/svg" xmlns:xlink="http://www.w3.org/1999/xlink" x="0px" y="0px"
	 width="595.279px" height="283.46px" viewBox="0 0 595.279 283.46" enable-background="new 0 0 595.279 283.46"
	 xml:space="preserve">
<g>
	<g>
		<path fill="#1D1D1B" d="M329.427,145.285c-0.619-0.857-2.381-0.953-3.381-1.334c-2.666-1.047-5.428-2-8.047-3.047
			c-2.856-1.095-5.618-3.38-8.237-4.856c-4.762-2.619-11.714-6.904-14.809-11.333c-0.762-1.095-0.334-3.714-0.286-5.333
			c-0.381-1.857-0.762-3.714-1.095-5.619c-2.477-6.333-6-12.856-8.429-19.094c-0.952-2.381-1.428-4.952-2.237-7.476
			c-0.81-2.476-0.762-5.904-0.667-7.762c0.143-2.476-0.523-4.238-0.143-6.285c0.762-4.19,0.523-9.761-1.429-13.904
			c-1.285-2.667-3.476-4.333-5.714-5.81c-0.904-0.571-1.81-1.143-2.714-1.714c-1.524-0.095-3.096-0.19-4.619-0.286
			c-3.904,2.143-6.762,3.714-7.952,8.38c-1.429,5.571,0.667,13.237,1.952,18.713c2.334,9.904-0.428,20.237-5.428,24.427
			c-7.047-2.333-16.476-2.476-23.665-1.333c-3.19,0.523-6.905,1.333-7.904,3.714c-0.715,1.667-1,4.952,0.047,7.333
			c0.619,1.476,1.952,3.333,1.144,5.19c-1.619,3.619-8.096,2.809-8.477,8.047c-0.285,3.666,5.905,8.095,6.857,11.523
			c0.762,2.762-3,6.046-2.667,8.238c0.334,2.047,1.286,3.809,2.429,5.332c0.571,0.762,1.714,1.285,2.143,2.238
			c0.286,0.666,0.096,1.477,0.096,2.096c-0.048,2.238,0.523,7.617,1.904,9.236c0.667,0.811,3.523,3,4.714,2.906
			c0.429-0.049,0.429,0.475,0.81,0.666c0.429,0.285,1-0.191,1.19-0.096c1,0.381,1.952,0.715,2.952,1.096
			c3.714,0.762,8.381,1.143,12.428,0.762c0.905,0,1.81,0.047,2.762,0.047c1.477-0.332,2.905-0.666,4.381-1
			c1-0.094,2.19,0.715,3.667,0.381c1.476-0.285,8.189-2.047,8.428-2c13.142,3.619,25.665,10.143,35.331,18.57
			c0.19-0.047,0.429-0.047,0.619-0.094c0.048-0.191,0.096-0.334,0.19-0.525c-0.857-1.285-4.952-3.523-6.381-4.666
			c-2.381-1.904-4.999-3.189-7.666-4.762c-3.81-2.238-7.523-4.332-11.856-5.855c-2.523-0.857-5.095-2.619-7.952-3.049
			c-0.047-0.047-0.047-0.094-0.095-0.189c6.381-1.334,12.237-5.477,13.713-11.189c0.477-1.811,0.429-5.049,0.667-7
			c0.048-0.572-0.619-1.572-0.571-2.477c0.143-2.189,0.333-4.046,0.619-6.046c0.048-0.049,0.095-0.049,0.143-0.096
			c3.143,4.523,7.428,8.238,11.666,11.38c2.048,1.428,4.048,2.904,6.095,4.332c0.238,0,0.429,0,0.667,0
			c0.048-0.094,0.143-0.238,0.19-0.332c-0.333-1.238-4.81-3.381-5.952-4.238c-3.476-2.857-7.047-5.666-10.095-9.046
			c-0.714-1.096-1.476-2.191-2.19-3.238c-0.048-1.096,0.619-1.857,0.952-2.619c0.571-1.429,1.144-2.857,1.715-4.238
			c0.952-1.762,2.618-3.762,2.762-6.237c0.81,0.238,6.189,6.048,7.476,7.095c2.047,1.666,4.333,2.81,6.571,4.238
			c4.952,3.189,8.856,5.761,14.903,7.619c1.619,0.523,6.619,2.809,7.952,2.428c0.286-0.334,0.571-0.619,0.857-0.953
			C329.571,145.712,329.523,145.474,329.427,145.285z M246.337,168.617c-0.715-0.096-1.477-0.238-2.19-0.334
			c-1.905,0.096-4.523-0.096-6.19-0.523c-1.952-0.523-3.285-1.43-4.856-2.285c-1.286-0.668-2.952-0.381-4-1.619
			c-1.81-2.143-1-4.668-1.523-7.049c-0.144-0.332-0.238-0.666-0.381-1.047c0.095-0.523,0.381-2.047,0.047-2.762
			c-0.904-2-5.095-4.523-4.666-7.713c0.285-2.143,3.333-5.286,2.666-8.048c-0.904-3.904-5.666-6.57-6.761-10.809
			c-0.953-3.761,6.761-5.237,8.047-7.666c1.904-3.762-2.952-8.285-0.952-12.761c1.523-3.381,7.856-2.905,11.666-4
			c1.381-0.048,2.714-0.143,4.095-0.19c10.714-0.095,20.856,3,26.903,9.761c1.619,1.81,4.285,4.952,3.571,8.619
			c-0.333,1.714-1.667,4.428-3.143,5.047c-0.857,0.333-6.333-2-7.619-2.524c-3.904-1.523-8.904-1.952-13.142-2.904
			c-1.429-0.19-2.857-0.381-4.238-0.571c-1.047-0.81-2.143-1.667-3.19-2.476c-0.19-0.048-0.381-0.048-0.571-0.095
			c0,0.047-0.048,0.047-0.048,0.095c0.286,0.714,0.763,1.286,1.381,1.523c0.144,0.19,0.334,0.333,0.477,0.524
			c-0.857-0.143-1.714-0.333-2.571-0.476c-0.095,0.19-0.238,0.428-0.333,0.619c2.476,1.714,6.666,1.19,9.809,1.953
			c3.904,0.952,7.666,1.238,11.237,2.381c2.048,0.762,4.048,1.523,6.095,2.286c1.096,0.381,2.667,0.571,3.477,1.333
			c1.19,1.19,4.904,5.333,4.666,7.57c-0.19,1.905-0.619,4-1.762,5.286c-1.238,1.429-4.237,1.571-6.618,1
			c-5.143-1.19-10-1.762-14.714-2.952c-2.429-0.286-4.856-0.523-7.285-0.81c-0.619,0-1.238-0.048-1.857-0.048
			c-0.81-0.381-1.381-1.428-2.476-1.619c-0.048,0-0.048,0-0.096,0c-0.095,0.286-0.095,0.477,0.048,0.857
			c0.143,0.096,0.238,0.238,0.381,0.334c-0.333,0-0.714,0-1.048,0c-0.095,0.047-0.143,0.047-0.237,0.095c0,0.237,0,0.476,0,0.714
			c2.19,1.334,5.189,0.381,7.999,0.857c5.381,0.952,11.428,1.857,16.189,3.143c0.715,0.096,1.429,0.143,2.143,0.238
			c1.381,0.285,4.19,2.189,4.381,3.953c0.619,6.855-4.143,7.094-9.237,7.713c-1.333,0.047-2.666,0.096-4,0.143
			c-0.904-0.096-1.856-0.189-2.762-0.334c-2.476,0.191-4.523,0.334-6.809,0.049c-2.952-0.381-5.904,0.381-8.81-0.191
			c-0.095,0.049-0.19,0.096-0.285,0.191c0,0.238,0,0.477,0,0.715c0.476,0.285,0.762,0.332,1.333,0.332
			c-0.381,0.43-0.81,0.811-1.19,1.238c0,0.143,0.048,0.285,0.048,0.43c0.048,0.047,0.095,0.047,0.19,0.094
			c0.856-0.189,1.285-0.951,2-1.238c0.381-0.143,1.237-0.189,1.571-0.381c1.333-0.666,5.285,0.049,6.523,0.096
			c1.952-0.096,3.904-0.143,5.856-0.238c2.095,0.334,5.619,0.715,8.047,0.191c0.953,0.666,2.715,1.57,3.333,2.666
			c2.19,3.953-2.762,8.285-4.761,9.381C255.622,168.617,251.67,168.091,246.337,168.617z M270.906,126.666c-0.143,0-0.285,0-0.381,0
			c-0.047-0.096-0.095-0.19-0.095-0.238c0.143,0.048,0.285,0.048,0.429,0.096C270.812,126.57,270.86,126.619,270.906,126.666z
			 M271.097,141.761c-0.095,0.237-0.19,0.475-0.333,0.713c-0.238,0-0.429,0-0.666,0c-0.048-0.047-0.048-0.047-0.096-0.096
			c0-0.143-0.048-0.285-0.048-0.427c0.238-0.048,0.524-0.143,0.762-0.19C270.906,141.761,271.002,141.761,271.097,141.761z
			 M291.573,123.523c-1,5.096-3.81,8.809-5.571,13.381c-0.285,0.428-0.523,0.809-0.81,1.237c-1.476,4.713-0.143,11.76-1.19,16.856
			c-0.333,1.572-1.381,2.523-2,3.715c-2.762,5.047-7.856,5.523-13.094,7.381c-2.667,0.951-6.143,1.904-9.238,1.998
			c0-0.047,0-0.047,0-0.094c3.477-2.572,9.095-6.143,5.286-12.477c0.428,0,0.618-0.047,0.762-0.332
			c0.095-0.191,0.285-1.096,0.19-1.715c0.047,0.189,0.095,0.381,0.143,0.619c0.952,0.189,0.762,0.428,1.523,0.762
			c0.096-0.191,0.144-0.381,0.238-0.619c0.429-0.047,0.477,0.047,0.857,0.238c0.095-0.047,0.143-0.047,0.238-0.096
			c0.143-0.285,0.19-0.285,0.143-0.762c0-0.047,0-0.047,0-0.096c-0.524-0.285-1.143,0.334-1.333,0.381c-1,0-0.572-0.332-1.286-0.57
			c0.477-0.572,1.429,0.285,1.857-0.43c-0.048-0.332-0.096-0.619-0.144-0.951c0.429-0.523,0.905-1.049,1.334-1.572
			c0.523-1.047,0.666-2.477,0.81-3.809c0.143-1.143-0.619-1.857-0.477-3.096c0.286,0.049,0.571,0.096,0.81,0.143
			c0.619-0.238,1-0.809,1.714-1.047c0.048-2.047,0.762-2.095,2.048-2.761c-0.048,0.476,0.143,0.523,0.429,0.857
			c0.143,0,0.333,0,0.476,0c0-0.238,0-0.477,0-0.715c-0.19-0.096-0.333-0.19-0.523-0.238c-0.381,0-0.477-0.477-0.762-0.857
			c0.952-2.523,1.381-6.143-0.905-8.523c0-0.476,0.048-0.428,0.238-0.714c-0.381-0.381-1-0.381-1.333-0.856
			c-0.048-0.048-0.143-0.096-0.19-0.191c0.048,0,0.095,0,0.143,0c0.333-0.428,0.571,0.191,1.048,0.096c0.048,0,0.095,0,0.143,0
			c0-0.19-0.048-0.333-0.048-0.523c-0.143-0.143-0.237-0.286-0.381-0.429c-0.143,0.095-0.285,0.237-0.429,0.333
			c-0.143-0.238-0.333-0.523-0.523-0.762c0.19-0.19,0.381-0.334,0.571-0.523c-0.285-1.048-0.285-1.667-0.285-2.762
			c0-0.047,0-0.047,0-0.095c-0.334-0.19-0.477-0.286-0.905-0.143c0.048-0.714,0.477-0.953,0.619-1.571
			c0.096-0.048,0.143-0.095,0.238-0.19c0.048,0,0.048,0,0.095,0c-0.095,0.238-0.143,0.476-0.237,0.714
			c0.237,0.286,0.285,0.333,0.714,0.429c0.429-0.381,0.286-0.571,0.429-1.143c-0.143-0.572-0.238-0.572-0.81-0.619
			c0.095-1.286,0.285-2.619,0.143-4.047c0.286,0.143,0.381,0.238,0.857,0.238c0.095-0.286,0.143-0.428,0-0.762
			c-0.381-0.047-0.524,0-0.857,0.095c-0.048,0-0.048,0-0.095,0c-1.81-4.619-4.477-8.19-8.238-10.285
			c-1.19-0.667-6.143-2.762-6.666-3.667c1.81-1,5-7.523,5.143-10.142c0.096-0.048,0.143-0.095,0.238-0.19
			c0.095,1.476,0.81,7.856,1.762,8.809c0.095-0.048,0.143-0.048,0.238-0.095c0.285-2.143-0.762-4.857-0.905-7.333
			c-0.095-2.047-0.19-4.095-0.285-6.143c0.048,0,0.095,0,0.143,0c1.333,4.904,3.571,9.523,5.476,13.571
			c0.096,0.047,0.238,0.095,0.334,0.19c0.047-0.048,0.095-0.048,0.143-0.095c0.048-1.619-1.429-3.571-2.095-5
			c-1.144-2.476-1.857-5.428-2.763-7.856c-1.381-3.619-1.381-7.047-2.38-10.666c-0.81-2.81-1.953-6.381-1.905-8.714
			c0.048-4.381-0.856-8.19,0.571-11.237c1.334-2.81,3.81-3.667,6.333-5.428c3.381-0.048,5.095,1,7.238,2.619
			c7.38,5.428,5.476,16.57,5.143,25.618c-0.144,3.619,1.476,7.095,1.285,10.952c-0.19,4.238-0.285,8.952-0.952,12.904
			c0,0.096,0,0.191,0.048,0.238c0.143,0,0.285,0,0.381,0c0.952-1.952,1.81-8.523,1.285-11.333c0-0.095,0.048-0.19,0.048-0.238
			c1.048,1.048,1.857,4.476,2.619,6C287.24,104.62,292.858,116.953,291.573,123.523z M271.526,97.715
			c-0.19-0.095-0.333-0.238-0.523-0.333c0,0.047-0.048,0.095-0.048,0.19c-0.143,0.143-0.285,0.428-0.095,0.714
			c0,0.047,0,0.095,0,0.19c0.143,0,0.285,0,0.381,0C271.335,98.191,271.431,97.954,271.526,97.715z M267.24,103.477
			c-0.096,0.047-0.19,0.095-0.286,0.19c0,0.143,0,0.286-0.047,0.429c0.095,0.143,0.19,0.286,0.285,0.428
			c0.096,0.048,0.19,0.048,0.238,0.095c0.286-0.286,0.429-0.476,0.19-1.047C267.527,103.524,267.383,103.477,267.24,103.477z
			 M262.194,119.048c-0.619-4.952,0.381-6.619,1.285-10.143c-0.096-0.047-0.238-0.095-0.333-0.19
			c-1.524,2.667-2.381,5.809-1.619,10.047C261.765,118.905,262.002,119,262.194,119.048z M270.479,110.191
			c-0.096,0.048-0.19,0.048-0.334,0.095c0,0.19,0.048,0.333,0.048,0.524c0.286,0.333,0.333,0.238,0.81,0.143
			c0-0.095,0.048-0.19,0.048-0.238C270.906,110.381,270.86,110.334,270.479,110.191z M275.526,111.143
			c0.096-0.19,0.143-0.428,0.238-0.619c-0.286-0.095-0.571-0.238-0.857-0.333C274.812,110.667,274.906,111.096,275.526,111.143z
			 M265.812,121c0.619-3.143,1.667-5.047,0-8.904c-0.143-0.048-0.285-0.095-0.429-0.19c-0.095,0.143-0.19,0.286-0.285,0.428
			c1.523,2.857,0.81,6.286,0.095,8.571C265.527,121.095,265.479,121.047,265.812,121z M275.478,117.095
			c0.144-0.333,0.238-0.524,0.19-1.047c-0.095-0.048-0.19-0.095-0.285-0.19c-0.143-0.048-0.334-0.048-0.477-0.095
			c-0.048,0.143-0.143,0.286-0.19,0.428c0,0.048,0,0.048,0,0.095c0.048,0.333,0.143,0.619,0.19,0.953
			C275.145,117.238,275.287,117.19,275.478,117.095z M273.859,118.762c-0.047,0.095-0.143,0.238-0.19,0.333
			c0,0.143,0.048,0.286,0.048,0.429c0.19,0.047,0.381,0.047,0.571,0.095c0.048-0.095,0.144-0.19,0.19-0.238
			c0-0.095,0.048-0.19,0.048-0.238C274.24,118.81,274.335,118.81,273.859,118.762z M273.906,121c0.048-0.143,0.144-0.286,0.19-0.429
			c-0.047-0.095-0.095-0.19-0.095-0.238c-0.381-0.047-0.762-0.095-1.143-0.143c0.095,0.19,0.143,0.333,0.237,0.524
			C273.335,120.905,273.383,121,273.906,121z M274.335,123.19c-0.143,0.19-0.285,0.333-0.429,0.523
			c0.048,0.095,0.144,0.238,0.19,0.333c0.144,0.047,0.286,0.095,0.429,0.19c0.096-0.048,0.143-0.048,0.238-0.095
			c0.048-0.19,0.048-0.381,0.095-0.619C274.668,123.286,274.621,123.286,274.335,123.19z M273.812,124.809
			c-0.238-0.333-0.477-0.667-0.715-1.047c-0.143,0-0.333,0-0.476,0c-0.048,0.095-0.144,0.19-0.19,0.238
			c0.143,0.524,0.333,0.762,0.762,0.953c0.19,0.143,0.19,0.19,0.429,0.095C273.668,125,273.716,124.904,273.812,124.809z
			 M276.383,125.476c-0.048,0.048-0.096,0.048-0.144,0.096c0,0.095-0.047,0.237-0.047,0.333c0.095,0.096,0.19,0.238,0.285,0.334
			c0.571-0.049,0.619-0.096,0.762-0.524c-0.047-0.048-0.047-0.095-0.095-0.19C276.859,125.523,276.621,125.523,276.383,125.476z
			 M272.812,126.57c0.143,0,0.333,0,0.476,0c0-0.237,0.048-0.523,0.048-0.762c-0.333-0.047-0.666-0.095-1-0.143
			C272.526,125.904,272.669,126.238,272.812,126.57z M261.812,138.047c0-1.429-0.666-2.857-0.476-4.571
			c0.143-1.763,0.904-3.476,0.904-5.095c-0.143-0.048-0.285-0.048-0.429-0.096c-1.237,2.143-1.762,7.143-0.571,9.666
			C261.479,138.094,261.479,138.142,261.812,138.047z M274.287,128.619c-0.047,0.143-0.143,0.285-0.19,0.428
			c0,0.048,0,0.048,0,0.096c0.096,0.095,0.19,0.189,0.286,0.238c0.19-0.049,0.381-0.049,0.571-0.096c0.048,0,0.095,0,0.143,0
			c-0.095-0.19-0.143-0.334-0.238-0.523C274.668,128.714,274.478,128.666,274.287,128.619z M266.621,136.999
			c0.571-2.429,1.048-4.429,0.477-7.856c-0.238-0.096-0.429-0.191-0.667-0.238c0.143,1.047,0.238,2.047,0.381,3.095
			c-0.19,1.667-0.381,3.286-0.571,4.952c0.048,0.048,0.096,0.048,0.19,0.096C266.479,136.999,266.573,136.999,266.621,136.999z
			 M277.193,139.047c0.143,0.095,0.237,0.238,0.381,0.333c0.143-0.238,0.285-0.476,0.381-0.714c0-0.144-0.048-0.286-0.048-0.43
			c-0.238-0.047-0.429-0.047-0.667-0.095C277.145,138.428,277.097,138.761,277.193,139.047z M273.812,142.094
			c-0.096,0.048-0.19,0.096-0.286,0.191c-0.095,0.047-0.143,0.094-0.238,0.189c0.096,0.334,0.048,0.238,0.238,0.43
			c0.19,0.143,0.238,0.143,0.477,0C274.431,142.617,274.24,142.285,273.812,142.094z M259.288,151.474
			c0.096-0.047,0.143-0.047,0.238-0.096c0.714-0.57,0-2.381,0.143-3.381c0.238-1.428,1.048-3.143,0.905-4.762
			c-0.144-0.047-0.286-0.047-0.429-0.094c-0.857,1.285-1.714,5.998-1.19,7.617C258.955,151.189,259.05,151.189,259.288,151.474z
			 M263.431,143.951c-0.762,2.143-0.571,4.285-1.381,6.238c0,0.094,0,0.189,0.048,0.238
			C263.621,150.378,264.812,144.093,263.431,143.951z M270.383,144.904c0.19,0.047,0.381,0.094,0.571,0.189
			c0.048-0.047,0.096-0.047,0.143-0.096c0-0.238,0.048-0.523,0.048-0.762c-0.238-0.094-0.429-0.189-0.666-0.238
			C270.479,144.285,270.431,144.57,270.383,144.904z M272.431,145.808c0-0.096-0.048-0.238-0.048-0.334
			c-0.238-0.047-0.429-0.047-0.667-0.096c-0.095,0.096-0.19,0.191-0.285,0.287c0.048,0.094,0.095,0.189,0.095,0.238
			c0.048,0.094,0.144,0.189,0.19,0.236c0.144,0,0.334,0,0.477,0C272.287,146.046,272.383,145.951,272.431,145.808z M286.763,146.998
			c-0.048,0.191-0.048,0.381-0.095,0.619c3.523,1.904,6.618,4.238,9.904,6.381c1.476,1,3.666,1.762,4.761,3.238
			c0.286-0.047,0.524-0.047,0.81-0.096c0-0.238,0-0.477,0-0.715c-2.952-2.57-6.904-4.236-10.237-6.57
			C290.43,148.902,288.811,147.046,286.763,146.998z M270.669,148.332c0.047,0.096,0.095,0.238,0.143,0.334c0,0.047,0,0.094,0,0.189
			c0.143,0,0.333,0,0.476,0c0.096-0.096,0.191-0.189,0.286-0.285c0-0.143-0.048-0.285-0.048-0.43
			c-0.19-0.094-0.381-0.189-0.619-0.236C270.812,148.046,270.764,148.189,270.669,148.332z M272.716,149.521
			c-0.143,0.238-0.095,0.096-0.095,0.334c-0.048,0.047-0.096,0.047-0.144,0.096c0.191,0.143,0.382,0.285,0.524,0.428
			c0.381-0.047,0.333,0,0.429-0.285c0.143-0.238,0.047-0.143-0.048-0.523C273.193,149.57,272.954,149.57,272.716,149.521z
			 M270.479,150.759c-0.096,0-0.144,0-0.238,0c-0.096,0.049-0.19,0.096-0.286,0.191c-0.048,0.189,0.048,0.047-0.048,0.189
			c0.144,0.238,0.286,0.477,0.429,0.668c0.381,0,0.524-0.049,0.715-0.287c0.143-0.189,0.047,0,0.047-0.238
			C271.097,151.093,270.716,150.902,270.479,150.759z M268.288,155.712c0.095,0.047,0.19,0.047,0.237,0.096c0.144,0,0.334,0,0.477,0
			c-0.048-0.334-0.095-0.619-0.143-0.953c-0.286-0.047-0.524-0.047-0.81-0.096C268.098,155.189,268.145,155.283,268.288,155.712z
			 M267.002,155.14c-0.285-0.047-0.571-0.096-0.81-0.143c0,0.238,0,0.477,0,0.715C266.431,155.759,267.479,155.808,267.002,155.14z
			 M257.527,156.425c-1.762,2.049-3.333,5.43-2.666,9c0.047,0.049,0.047,0.096,0.095,0.191c0.19,0,0.381,0,0.571,0
			c0.096-2.238-0.095-4.049,0.81-5.811c0.477-0.904,1.571-2,1.429-3.381C257.669,156.425,257.574,156.425,257.527,156.425z
			 M266.146,157.283c0.095,0.096,0.19,0.191,0.285,0.238c0.571-0.047,0.714-0.238,1.048-0.428c0-0.049,0-0.049,0-0.096
			c-0.19-0.143-0.524-0.285-1.143-0.238C266.193,156.998,266.193,156.902,266.146,157.283z M268.479,158.378
			c0,0.191,0.047,0.334,0.047,0.523c0.096,0.049,0.238,0.049,0.334,0.096c0.143-0.143,0.285-0.285,0.429-0.428
			c0-0.096-0.048-0.238-0.048-0.334c-0.238-0.047-0.429-0.047-0.667-0.096C268.526,158.236,268.526,158.283,268.479,158.378z
			 M260.098,158.474c-0.095-0.049-0.238-0.096-0.333-0.191c-0.429,0.619-0.19,1.953-0.381,2.762
			c-0.429,1.143-0.905,2.238-1.334,3.381C258.86,165.521,260.86,160.617,260.098,158.474z M229.242,166.568
			c0.048,0.096,0.143,0.191,0.19,0.238c0.048,0,0.048,0,0.096,0C229.338,166.521,229.576,166.71,229.242,166.568z"/>
	</g>
</g>
<ellipse fill="#DADADA" cx="256.717" cy="177.901" rx="28.332" ry="3.571"/>
<g>
	<g>
		<path fill="#FFFFFF" d="M298.617,199.513c-0.715-0.096-1.477-0.238-2.19-0.334c-1.905,0.096-4.523-0.096-6.19-0.523
			c-1.952-0.523-3.285-1.43-4.856-2.285c-1.286-0.668-2.952-0.381-4-1.619c-1.81-2.143-1-4.668-1.523-7.049
			c-0.144-0.332-0.238-0.666-0.381-1.047c0.095-0.523,0.381-2.047,0.047-2.762c-0.904-2-5.095-4.523-4.666-7.713
			c0.285-2.143,3.333-5.285,2.666-8.049c-0.904-3.904-5.666-6.57-6.761-10.809c-0.953-3.761,6.761-5.236,8.047-7.666
			c1.904-3.762-2.952-8.285-0.952-12.76c1.523-3.381,7.856-2.905,11.666-4c1.381-0.048,2.714-0.143,4.095-0.19
			c10.714-0.095,20.856,3,26.903,9.761c1.619,1.81,4.285,4.952,3.571,8.619c-0.333,1.714-1.667,4.428-3.143,5.047
			c-0.857,0.334-6.333-2-7.619-2.523c-3.904-1.523-8.904-1.953-13.142-2.904c-1.429-0.191-2.857-0.381-4.238-0.572
			c-1.047-0.809-2.143-1.666-3.19-2.476c-0.19-0.048-0.381-0.048-0.571-0.095c0,0.047-0.048,0.047-0.048,0.095
			c0.286,0.714,0.763,1.286,1.381,1.523c0.144,0.19,0.334,0.333,0.477,0.524c-0.857-0.144-1.714-0.334-2.571-0.477
			c-0.095,0.19-0.238,0.428-0.333,0.619c2.476,1.714,6.666,1.189,9.809,1.952c3.904,0.952,7.666,1.237,11.237,2.381
			c2.048,0.762,4.048,1.523,6.095,2.286c1.096,0.381,2.667,0.57,3.477,1.332c1.19,1.191,4.904,5.334,4.666,7.57
			c-0.19,1.906-0.619,4-1.762,5.287c-1.238,1.428-4.237,1.57-6.618,1c-5.143-1.191-10-1.762-14.714-2.953
			c-2.429-0.285-4.856-0.523-7.285-0.809c-0.619,0-1.238-0.049-1.857-0.049c-0.81-0.381-1.381-1.428-2.476-1.619
			c-0.048,0-0.048,0-0.096,0c-0.095,0.287-0.095,0.477,0.048,0.857c0.143,0.096,0.238,0.238,0.381,0.334c-0.333,0-0.714,0-1.048,0
			c-0.095,0.047-0.143,0.047-0.237,0.096c0,0.236,0,0.475,0,0.713c2.19,1.334,5.189,0.381,7.999,0.857
			c5.381,0.953,11.428,1.857,16.189,3.143c0.715,0.096,1.429,0.143,2.143,0.238c1.381,0.285,4.19,2.189,4.381,3.953
			c0.619,6.855-4.143,7.094-9.237,7.713c-1.333,0.047-2.666,0.096-4,0.143c-0.904-0.096-1.856-0.189-2.762-0.334
			c-2.476,0.191-4.523,0.334-6.809,0.049c-2.952-0.381-5.904,0.381-8.81-0.191c-0.095,0.049-0.19,0.096-0.285,0.191
			c0,0.238,0,0.477,0,0.715c0.476,0.285,0.762,0.332,1.333,0.332c-0.381,0.43-0.81,0.811-1.19,1.238c0,0.143,0.048,0.285,0.048,0.43
			c0.048,0.047,0.095,0.047,0.19,0.094c0.856-0.189,1.285-0.951,2-1.238c0.381-0.143,1.237-0.189,1.571-0.381
			c1.333-0.666,5.285,0.049,6.523,0.096c1.952-0.096,3.904-0.143,5.856-0.238c2.095,0.334,5.619,0.715,8.047,0.191
			c0.953,0.666,2.715,1.57,3.333,2.666c2.19,3.953-2.762,8.285-4.761,9.381C307.903,199.513,303.95,198.988,298.617,199.513z
			 M323.187,157.562c-0.143,0-0.285,0-0.381,0c-0.047-0.096-0.095-0.189-0.095-0.238c0.143,0.049,0.285,0.049,0.429,0.096
			C323.092,157.466,323.14,157.515,323.187,157.562z M323.377,172.658c-0.095,0.236-0.19,0.475-0.333,0.713
			c-0.238,0-0.429,0-0.666,0c-0.048-0.047-0.048-0.047-0.096-0.096c0-0.143-0.048-0.285-0.048-0.428
			c0.238-0.047,0.524-0.143,0.762-0.189C323.187,172.658,323.282,172.658,323.377,172.658z M343.853,154.419
			c-1,5.096-3.81,8.809-5.571,13.381c-0.285,0.428-0.523,0.809-0.81,1.238c-1.476,4.713-0.143,11.76-1.19,16.855
			c-0.333,1.572-1.381,2.523-2,3.715c-2.762,5.047-7.856,5.523-13.094,7.381c-2.667,0.951-6.143,1.904-9.238,1.998
			c0-0.047,0-0.047,0-0.094c3.477-2.572,9.095-6.143,5.286-12.477c0.428,0,0.618-0.047,0.762-0.332
			c0.095-0.191,0.285-1.096,0.19-1.715c0.047,0.189,0.095,0.381,0.143,0.619c0.952,0.189,0.762,0.428,1.523,0.762
			c0.096-0.191,0.144-0.381,0.238-0.619c0.429-0.047,0.477,0.047,0.857,0.238c0.095-0.047,0.143-0.047,0.238-0.096
			c0.143-0.285,0.19-0.285,0.143-0.762c0-0.047,0-0.047,0-0.096c-0.524-0.285-1.143,0.334-1.333,0.381c-1,0-0.572-0.332-1.286-0.57
			c0.477-0.572,1.429,0.285,1.857-0.43c-0.048-0.332-0.096-0.619-0.144-0.951c0.429-0.523,0.905-1.049,1.334-1.572
			c0.523-1.047,0.666-2.477,0.81-3.809c0.143-1.143-0.619-1.857-0.477-3.096c0.286,0.049,0.571,0.096,0.81,0.143
			c0.619-0.238,1-0.809,1.714-1.047c0.048-2.047,0.762-2.096,2.048-2.762c-0.048,0.477,0.143,0.523,0.429,0.857
			c0.143,0,0.333,0,0.476,0c0-0.238,0-0.477,0-0.715c-0.19-0.096-0.333-0.189-0.523-0.238c-0.381,0-0.477-0.477-0.762-0.857
			c0.952-2.523,1.381-6.143-0.905-8.523c0-0.475,0.048-0.428,0.238-0.713c-0.381-0.381-1-0.381-1.333-0.857
			c-0.048-0.047-0.143-0.096-0.19-0.191c0.048,0,0.095,0,0.143,0c0.333-0.428,0.571,0.191,1.048,0.096c0.048,0,0.095,0,0.143,0
			c0-0.189-0.048-0.332-0.048-0.523c-0.143-0.143-0.237-0.285-0.381-0.428c-0.143,0.094-0.285,0.236-0.429,0.332
			c-0.143-0.238-0.333-0.523-0.523-0.762c0.19-0.189,0.381-0.334,0.571-0.523c-0.285-1.047-0.285-1.666-0.285-2.762
			c0-0.047,0-0.047,0-0.096c-0.334-0.189-0.477-0.285-0.905-0.143c0.048-0.714,0.477-0.952,0.619-1.57
			c0.096-0.049,0.143-0.096,0.238-0.191c0.048,0,0.048,0,0.095,0c-0.095,0.238-0.143,0.477-0.237,0.715
			c0.237,0.285,0.285,0.333,0.714,0.428c0.429-0.381,0.286-0.57,0.429-1.143c-0.143-0.571-0.238-0.571-0.81-0.619
			c0.095-1.285,0.285-2.619,0.143-4.047c0.286,0.143,0.381,0.238,0.857,0.238c0.095-0.286,0.143-0.429,0-0.762
			c-0.381-0.048-0.524,0-0.857,0.095c-0.048,0-0.048,0-0.095,0c-1.81-4.618-4.477-8.19-8.238-10.285
			c-1.19-0.667-6.143-2.762-6.666-3.667c1.81-1,5-7.523,5.143-10.142c0.096-0.048,0.143-0.095,0.238-0.19
			c0.095,1.476,0.81,7.856,1.762,8.809c0.095-0.048,0.143-0.048,0.238-0.095c0.285-2.143-0.762-4.857-0.905-7.333
			c-0.095-2.047-0.19-4.095-0.285-6.143c0.048,0,0.095,0,0.143,0c1.333,4.904,3.571,9.523,5.476,13.571
			c0.096,0.047,0.238,0.095,0.334,0.19c0.047-0.048,0.095-0.048,0.143-0.095c0.048-1.619-1.429-3.571-2.095-5
			c-1.144-2.476-1.857-5.428-2.763-7.856c-1.381-3.619-1.381-7.047-2.38-10.666c-0.81-2.81-1.953-6.381-1.905-8.714
			c0.048-4.381-0.856-8.19,0.571-11.237c1.334-2.81,3.81-3.667,6.333-5.428c3.381-0.048,5.095,1,7.238,2.619
			c7.38,5.428,5.476,16.57,5.143,25.618c-0.144,3.619,1.476,7.095,1.285,10.952c-0.19,4.238-0.285,8.952-0.952,12.904
			c0,0.096,0,0.191,0.048,0.238c0.143,0,0.285,0,0.381,0c0.952-1.952,1.81-8.523,1.285-11.333c0-0.095,0.048-0.19,0.048-0.238
			c1.048,1.048,1.857,4.476,2.619,6C339.52,135.516,345.138,147.849,343.853,154.419z M323.806,128.612
			c-0.19-0.095-0.333-0.238-0.523-0.333c0,0.047-0.048,0.095-0.048,0.19c-0.143,0.143-0.285,0.428-0.095,0.714
			c0,0.047,0,0.095,0,0.19c0.143,0,0.285,0,0.381,0C323.615,129.088,323.711,128.85,323.806,128.612z M319.521,134.374
			c-0.096,0.047-0.19,0.095-0.286,0.19c0,0.143,0,0.286-0.047,0.429c0.095,0.143,0.19,0.286,0.285,0.428
			c0.096,0.048,0.19,0.048,0.238,0.095c0.286-0.286,0.429-0.476,0.19-1.047C319.807,134.421,319.663,134.374,319.521,134.374z
			 M314.474,149.945c-0.619-4.953,0.381-6.619,1.285-10.143c-0.096-0.047-0.238-0.095-0.333-0.19
			c-1.524,2.667-2.381,5.809-1.619,10.046C314.045,149.801,314.282,149.896,314.474,149.945z M322.759,141.087
			c-0.096,0.048-0.19,0.048-0.334,0.095c0,0.19,0.048,0.333,0.048,0.524c0.286,0.333,0.333,0.238,0.81,0.143
			c0-0.095,0.048-0.19,0.048-0.238C323.187,141.278,323.14,141.23,322.759,141.087z M327.806,142.04
			c0.096-0.19,0.143-0.428,0.238-0.619c-0.286-0.095-0.571-0.238-0.857-0.333C327.092,141.563,327.187,141.992,327.806,142.04z
			 M318.092,151.896c0.619-3.143,1.667-5.047,0-8.904c-0.143-0.047-0.285-0.095-0.429-0.189c-0.095,0.143-0.19,0.285-0.285,0.428
			c1.523,2.857,0.81,6.285,0.095,8.571C317.807,151.992,317.759,151.944,318.092,151.896z M327.758,147.992
			c0.144-0.333,0.238-0.523,0.19-1.047c-0.095-0.049-0.19-0.096-0.285-0.191c-0.143-0.047-0.334-0.047-0.477-0.095
			c-0.048,0.143-0.143,0.286-0.19,0.429c0,0.047,0,0.047,0,0.095c0.048,0.333,0.143,0.619,0.19,0.952
			C327.425,148.134,327.568,148.087,327.758,147.992z M326.139,149.658c-0.047,0.096-0.143,0.238-0.19,0.334
			c0,0.143,0.048,0.285,0.048,0.429c0.19,0.048,0.381,0.048,0.571,0.095c0.048-0.095,0.144-0.189,0.19-0.238
			c0-0.095,0.048-0.189,0.048-0.238C326.521,149.707,326.615,149.707,326.139,149.658z M326.187,151.896
			c0.048-0.143,0.144-0.285,0.19-0.428c-0.047-0.096-0.095-0.191-0.095-0.238c-0.381-0.048-0.762-0.096-1.143-0.143
			c0.095,0.189,0.143,0.333,0.237,0.523C325.615,151.801,325.663,151.896,326.187,151.896z M326.615,154.087
			c-0.143,0.189-0.285,0.332-0.429,0.523c0.048,0.095,0.144,0.238,0.19,0.333c0.144,0.048,0.286,0.095,0.429,0.19
			c0.096-0.048,0.143-0.048,0.238-0.096c0.048-0.189,0.048-0.381,0.095-0.619C326.948,154.182,326.902,154.182,326.615,154.087z
			 M326.092,155.706c-0.238-0.333-0.477-0.667-0.715-1.048c-0.143,0-0.333,0-0.476,0c-0.048,0.096-0.144,0.191-0.19,0.238
			c0.143,0.523,0.333,0.762,0.762,0.953c0.19,0.143,0.19,0.189,0.429,0.095C325.948,155.896,325.996,155.8,326.092,155.706z
			 M328.663,156.373c-0.048,0.047-0.096,0.047-0.144,0.096c0,0.094-0.047,0.236-0.047,0.332c0.095,0.096,0.19,0.238,0.285,0.334
			c0.571-0.049,0.619-0.096,0.762-0.523c-0.047-0.049-0.047-0.096-0.095-0.191C329.139,156.419,328.902,156.419,328.663,156.373z
			 M325.092,157.466c0.143,0,0.333,0,0.476,0c0-0.236,0.048-0.523,0.048-0.762c-0.333-0.047-0.666-0.094-1-0.143
			C324.806,156.8,324.949,157.134,325.092,157.466z M314.092,168.943c0-1.428-0.666-2.857-0.476-4.57
			c0.143-1.764,0.904-3.477,0.904-5.096c-0.143-0.047-0.285-0.047-0.429-0.096c-1.237,2.143-1.762,7.143-0.571,9.666
			C313.759,168.99,313.759,169.039,314.092,168.943z M326.568,159.515c-0.047,0.143-0.143,0.285-0.19,0.428c0,0.049,0,0.049,0,0.096
			c0.096,0.096,0.19,0.189,0.286,0.238c0.19-0.049,0.381-0.049,0.571-0.096c0.048,0,0.095,0,0.143,0
			c-0.095-0.189-0.143-0.334-0.238-0.523C326.948,159.611,326.758,159.562,326.568,159.515z M318.902,167.896
			c0.571-2.43,1.048-4.43,0.477-7.857c-0.238-0.096-0.429-0.191-0.667-0.238c0.143,1.047,0.238,2.047,0.381,3.096
			c-0.19,1.666-0.381,3.285-0.571,4.951c0.048,0.049,0.096,0.049,0.19,0.096C318.759,167.896,318.854,167.896,318.902,167.896z
			 M329.473,169.943c0.143,0.096,0.237,0.238,0.381,0.334c0.143-0.238,0.285-0.477,0.381-0.715c0-0.143-0.048-0.285-0.048-0.43
			c-0.238-0.047-0.429-0.047-0.667-0.094C329.425,169.324,329.377,169.658,329.473,169.943z M326.092,172.99
			c-0.096,0.049-0.19,0.096-0.286,0.191c-0.095,0.047-0.143,0.094-0.238,0.189c0.096,0.334,0.048,0.238,0.238,0.43
			c0.19,0.143,0.238,0.143,0.477,0C326.711,173.513,326.521,173.181,326.092,172.99z M311.569,182.371
			c0.096-0.047,0.143-0.047,0.238-0.096c0.714-0.57,0-2.381,0.143-3.381c0.238-1.428,1.048-3.143,0.905-4.762
			c-0.144-0.047-0.286-0.047-0.429-0.094c-0.857,1.285-1.714,5.998-1.19,7.617C311.236,182.085,311.33,182.085,311.569,182.371z
			 M315.711,174.847c-0.762,2.143-0.571,4.285-1.381,6.238c0,0.094,0,0.189,0.048,0.238
			C315.902,181.275,317.092,174.99,315.711,174.847z M322.663,175.8c0.19,0.047,0.381,0.094,0.571,0.189
			c0.048-0.047,0.096-0.047,0.143-0.096c0-0.238,0.048-0.523,0.048-0.762c-0.238-0.094-0.429-0.189-0.666-0.238
			C322.759,175.181,322.711,175.466,322.663,175.8z M324.711,176.705c0-0.096-0.048-0.238-0.048-0.334
			c-0.238-0.047-0.429-0.047-0.667-0.096c-0.095,0.096-0.19,0.191-0.285,0.287c0.048,0.094,0.095,0.189,0.095,0.238
			c0.048,0.094,0.144,0.189,0.19,0.236c0.144,0,0.334,0,0.477,0C324.568,176.943,324.663,176.847,324.711,176.705z M322.949,179.228
			c0.047,0.096,0.095,0.238,0.143,0.334c0,0.047,0,0.094,0,0.189c0.143,0,0.333,0,0.476,0c0.096-0.096,0.191-0.189,0.286-0.285
			c0-0.143-0.048-0.285-0.048-0.43c-0.19-0.094-0.381-0.189-0.619-0.236C323.092,178.943,323.044,179.085,322.949,179.228z
			 M324.996,180.417c-0.143,0.238-0.095,0.096-0.095,0.334c-0.048,0.047-0.096,0.047-0.144,0.096
			c0.191,0.143,0.382,0.285,0.524,0.428c0.381-0.047,0.333,0,0.429-0.285c0.143-0.238,0.047-0.143-0.048-0.523
			C325.473,180.466,325.235,180.466,324.996,180.417z M322.759,181.656c-0.096,0-0.144,0-0.238,0
			c-0.096,0.049-0.19,0.096-0.286,0.191c-0.048,0.189,0.048,0.047-0.048,0.189c0.144,0.238,0.286,0.477,0.429,0.668
			c0.381,0,0.524-0.049,0.715-0.287c0.143-0.189,0.047,0,0.047-0.238C323.377,181.99,322.996,181.798,322.759,181.656z
			 M320.569,186.609c0.095,0.047,0.19,0.047,0.237,0.096c0.144,0,0.334,0,0.477,0c-0.048-0.334-0.095-0.619-0.143-0.953
			c-0.286-0.047-0.524-0.047-0.81-0.096C320.378,186.085,320.425,186.179,320.569,186.609z M319.282,186.037
			c-0.285-0.047-0.571-0.096-0.81-0.143c0,0.238,0,0.477,0,0.715C318.711,186.656,319.759,186.705,319.282,186.037z
			 M309.807,187.322c-1.762,2.049-3.333,5.43-2.666,9c0.047,0.049,0.047,0.096,0.095,0.191c0.19,0,0.381,0,0.571,0
			c0.096-2.238-0.095-4.049,0.81-5.811c0.477-0.904,1.571-2,1.429-3.381C309.949,187.322,309.855,187.322,309.807,187.322z
			 M318.426,188.179c0.095,0.096,0.19,0.191,0.285,0.238c0.571-0.047,0.714-0.238,1.048-0.428c0-0.049,0-0.049,0-0.096
			c-0.19-0.143-0.524-0.285-1.143-0.238C318.473,187.894,318.473,187.798,318.426,188.179z M320.759,189.275
			c0,0.191,0.047,0.334,0.047,0.523c0.096,0.049,0.238,0.049,0.334,0.096c0.143-0.143,0.285-0.285,0.429-0.428
			c0-0.096-0.048-0.238-0.048-0.334c-0.238-0.047-0.429-0.047-0.667-0.096C320.806,189.132,320.806,189.179,320.759,189.275z
			 M312.378,189.371c-0.095-0.049-0.238-0.096-0.333-0.191c-0.429,0.619-0.19,1.953-0.381,2.762
			c-0.429,1.143-0.905,2.238-1.334,3.381C311.14,196.417,313.14,191.513,312.378,189.371z M281.523,197.464
			c0.048,0.096,0.143,0.191,0.19,0.238c0.048,0,0.048,0,0.096,0C281.618,197.417,281.857,197.607,281.523,197.464z"/>
	</g>
</g>
<g>
	<g>
		<path fill="#1D1D1B" d="M381.707,176.181c-0.619-0.857-2.381-0.953-3.381-1.334c-2.666-1.047-5.428-2-8.047-3.047
			c-2.856-1.096-5.618-3.381-8.237-4.857c-4.762-2.619-11.714-6.904-14.809-11.332c-0.762-1.096-0.334-3.715-0.286-5.334
			c-0.381-1.856-0.762-3.713-1.095-5.618c-2.477-6.333-6-12.856-8.429-19.094c-0.952-2.381-1.428-4.952-2.237-7.476
			c-0.81-2.476-0.762-5.904-0.667-7.762c0.143-2.476-0.523-4.238-0.143-6.285c0.762-4.19,0.523-9.761-1.429-13.904
			c-1.285-2.667-3.476-4.333-5.714-5.81c-0.904-0.571-1.81-1.143-2.714-1.714c-1.524-0.095-3.096-0.19-4.619-0.286
			c-3.904,2.143-6.762,3.714-7.952,8.38c-1.429,5.571,0.667,13.237,1.952,18.713c2.334,9.904-0.428,20.237-5.428,24.427
			c-7.047-2.333-16.476-2.476-23.665-1.333c-3.19,0.523-6.905,1.333-7.904,3.714c-0.715,1.667-1,4.952,0.047,7.333
			c0.619,1.476,1.952,3.332,1.144,5.189c-1.619,3.619-8.096,2.81-8.477,8.047c-0.285,3.666,5.905,8.096,6.857,11.523
			c0.762,2.762-3,6.047-2.667,8.238c0.334,2.047,1.286,3.809,2.429,5.332c0.571,0.762,1.714,1.285,2.143,2.238
			c0.286,0.666,0.096,1.477,0.096,2.096c-0.048,2.238,0.523,7.617,1.904,9.236c0.667,0.811,3.523,3,4.714,2.906
			c0.429-0.049,0.429,0.475,0.81,0.666c0.429,0.285,1-0.191,1.19-0.096c1,0.381,1.952,0.715,2.952,1.096
			c3.714,0.762,8.381,1.143,12.428,0.762c0.905,0,1.81,0.047,2.762,0.047c1.477-0.332,2.905-0.666,4.381-1
			c1-0.094,2.19,0.715,3.667,0.381c1.476-0.285,8.189-2.047,8.428-2c13.142,3.619,25.665,10.143,35.331,18.57
			c0.19-0.047,0.429-0.047,0.619-0.094c0.048-0.191,0.096-0.334,0.19-0.525c-0.857-1.285-4.952-3.523-6.381-4.666
			c-2.381-1.904-4.999-3.189-7.666-4.762c-3.81-2.238-7.523-4.332-11.856-5.855c-2.523-0.857-5.095-2.619-7.952-3.049
			c-0.047-0.047-0.047-0.094-0.095-0.189c6.381-1.334,12.237-5.477,13.713-11.189c0.477-1.811,0.429-5.049,0.667-7
			c0.048-0.572-0.619-1.572-0.571-2.477c0.143-2.189,0.333-4.047,0.619-6.047c0.048-0.049,0.095-0.049,0.143-0.096
			c3.143,4.523,7.428,8.238,11.666,11.381c2.048,1.428,4.048,2.904,6.095,4.332c0.238,0,0.429,0,0.667,0
			c0.048-0.094,0.143-0.238,0.19-0.332c-0.333-1.238-4.81-3.381-5.952-4.238c-3.476-2.857-7.047-5.666-10.095-9.047
			c-0.714-1.096-1.476-2.191-2.19-3.238c-0.048-1.096,0.619-1.857,0.952-2.619c0.571-1.428,1.144-2.857,1.715-4.238
			c0.952-1.762,2.618-3.762,2.762-6.236c0.81,0.238,6.189,6.047,7.476,7.094c2.047,1.666,4.333,2.811,6.571,4.238
			c4.952,3.189,8.856,5.762,14.903,7.619c1.619,0.523,6.619,2.809,7.952,2.428c0.286-0.334,0.571-0.619,0.857-0.953
			C381.851,176.609,381.803,176.371,381.707,176.181z M298.617,199.513c-0.715-0.096-1.477-0.238-2.19-0.334
			c-1.905,0.096-4.523-0.096-6.19-0.523c-1.952-0.523-3.285-1.43-4.856-2.285c-1.286-0.668-2.952-0.381-4-1.619
			c-1.81-2.143-1-4.668-1.523-7.049c-0.144-0.332-0.238-0.666-0.381-1.047c0.095-0.523,0.381-2.047,0.047-2.762
			c-0.904-2-5.095-4.523-4.666-7.713c0.285-2.143,3.333-5.285,2.666-8.049c-0.904-3.904-5.666-6.57-6.761-10.809
			c-0.953-3.761,6.761-5.236,8.047-7.666c1.904-3.762-2.952-8.285-0.952-12.76c1.523-3.381,7.856-2.905,11.666-4
			c1.381-0.048,2.714-0.143,4.095-0.19c10.714-0.095,20.856,3,26.903,9.761c1.619,1.81,4.285,4.952,3.571,8.619
			c-0.333,1.714-1.667,4.428-3.143,5.047c-0.857,0.334-6.333-2-7.619-2.523c-3.904-1.523-8.904-1.953-13.142-2.904
			c-1.429-0.191-2.857-0.381-4.238-0.572c-1.047-0.809-2.143-1.666-3.19-2.476c-0.19-0.048-0.381-0.048-0.571-0.095
			c0,0.047-0.048,0.047-0.048,0.095c0.286,0.714,0.763,1.286,1.381,1.523c0.144,0.19,0.334,0.333,0.477,0.524
			c-0.857-0.144-1.714-0.334-2.571-0.477c-0.095,0.19-0.238,0.428-0.333,0.619c2.476,1.714,6.666,1.189,9.809,1.952
			c3.904,0.952,7.666,1.237,11.237,2.381c2.048,0.762,4.048,1.523,6.095,2.286c1.096,0.381,2.667,0.57,3.477,1.332
			c1.19,1.191,4.904,5.334,4.666,7.57c-0.19,1.906-0.619,4-1.762,5.287c-1.238,1.428-4.237,1.57-6.618,1
			c-5.143-1.191-10-1.762-14.714-2.953c-2.429-0.285-4.856-0.523-7.285-0.809c-0.619,0-1.238-0.049-1.857-0.049
			c-0.81-0.381-1.381-1.428-2.476-1.619c-0.048,0-0.048,0-0.096,0c-0.095,0.287-0.095,0.477,0.048,0.857
			c0.143,0.096,0.238,0.238,0.381,0.334c-0.333,0-0.714,0-1.048,0c-0.095,0.047-0.143,0.047-0.237,0.096c0,0.236,0,0.475,0,0.713
			c2.19,1.334,5.189,0.381,7.999,0.857c5.381,0.953,11.428,1.857,16.189,3.143c0.715,0.096,1.429,0.143,2.143,0.238
			c1.381,0.285,4.19,2.189,4.381,3.953c0.619,6.855-4.143,7.094-9.237,7.713c-1.333,0.047-2.666,0.096-4,0.143
			c-0.904-0.096-1.856-0.189-2.762-0.334c-2.476,0.191-4.523,0.334-6.809,0.049c-2.952-0.381-5.904,0.381-8.81-0.191
			c-0.095,0.049-0.19,0.096-0.285,0.191c0,0.238,0,0.477,0,0.715c0.476,0.285,0.762,0.332,1.333,0.332
			c-0.381,0.43-0.81,0.811-1.19,1.238c0,0.143,0.048,0.285,0.048,0.43c0.048,0.047,0.095,0.047,0.19,0.094
			c0.856-0.189,1.285-0.951,2-1.238c0.381-0.143,1.237-0.189,1.571-0.381c1.333-0.666,5.285,0.049,6.523,0.096
			c1.952-0.096,3.904-0.143,5.856-0.238c2.095,0.334,5.619,0.715,8.047,0.191c0.953,0.666,2.715,1.57,3.333,2.666
			c2.19,3.953-2.762,8.285-4.761,9.381C307.903,199.513,303.95,198.988,298.617,199.513z M323.187,157.562c-0.143,0-0.285,0-0.381,0
			c-0.047-0.096-0.095-0.189-0.095-0.238c0.143,0.049,0.285,0.049,0.429,0.096C323.092,157.466,323.14,157.515,323.187,157.562z
			 M323.377,172.658c-0.095,0.236-0.19,0.475-0.333,0.713c-0.238,0-0.429,0-0.666,0c-0.048-0.047-0.048-0.047-0.096-0.096
			c0-0.143-0.048-0.285-0.048-0.428c0.238-0.047,0.524-0.143,0.762-0.189C323.187,172.658,323.282,172.658,323.377,172.658z
			 M343.853,154.419c-1,5.096-3.81,8.809-5.571,13.381c-0.285,0.428-0.523,0.809-0.81,1.238c-1.476,4.713-0.143,11.76-1.19,16.855
			c-0.333,1.572-1.381,2.523-2,3.715c-2.762,5.047-7.856,5.523-13.094,7.381c-2.667,0.951-6.143,1.904-9.238,1.998
			c0-0.047,0-0.047,0-0.094c3.477-2.572,9.095-6.143,5.286-12.477c0.428,0,0.618-0.047,0.762-0.332
			c0.095-0.191,0.285-1.096,0.19-1.715c0.047,0.189,0.095,0.381,0.143,0.619c0.952,0.189,0.762,0.428,1.523,0.762
			c0.096-0.191,0.144-0.381,0.238-0.619c0.429-0.047,0.477,0.047,0.857,0.238c0.095-0.047,0.143-0.047,0.238-0.096
			c0.143-0.285,0.19-0.285,0.143-0.762c0-0.047,0-0.047,0-0.096c-0.524-0.285-1.143,0.334-1.333,0.381c-1,0-0.572-0.332-1.286-0.57
			c0.477-0.572,1.429,0.285,1.857-0.43c-0.048-0.332-0.096-0.619-0.144-0.951c0.429-0.523,0.905-1.049,1.334-1.572
			c0.523-1.047,0.666-2.477,0.81-3.809c0.143-1.143-0.619-1.857-0.477-3.096c0.286,0.049,0.571,0.096,0.81,0.143
			c0.619-0.238,1-0.809,1.714-1.047c0.048-2.047,0.762-2.096,2.048-2.762c-0.048,0.477,0.143,0.523,0.429,0.857
			c0.143,0,0.333,0,0.476,0c0-0.238,0-0.477,0-0.715c-0.19-0.096-0.333-0.189-0.523-0.238c-0.381,0-0.477-0.477-0.762-0.857
			c0.952-2.523,1.381-6.143-0.905-8.523c0-0.475,0.048-0.428,0.238-0.713c-0.381-0.381-1-0.381-1.333-0.857
			c-0.048-0.047-0.143-0.096-0.19-0.191c0.048,0,0.095,0,0.143,0c0.333-0.428,0.571,0.191,1.048,0.096c0.048,0,0.095,0,0.143,0
			c0-0.189-0.048-0.332-0.048-0.523c-0.143-0.143-0.237-0.285-0.381-0.428c-0.143,0.094-0.285,0.236-0.429,0.332
			c-0.143-0.238-0.333-0.523-0.523-0.762c0.19-0.189,0.381-0.334,0.571-0.523c-0.285-1.047-0.285-1.666-0.285-2.762
			c0-0.047,0-0.047,0-0.096c-0.334-0.189-0.477-0.285-0.905-0.143c0.048-0.714,0.477-0.952,0.619-1.57
			c0.096-0.049,0.143-0.096,0.238-0.191c0.048,0,0.048,0,0.095,0c-0.095,0.238-0.143,0.477-0.237,0.715
			c0.237,0.285,0.285,0.333,0.714,0.428c0.429-0.381,0.286-0.57,0.429-1.143c-0.143-0.571-0.238-0.571-0.81-0.619
			c0.095-1.285,0.285-2.619,0.143-4.047c0.286,0.143,0.381,0.238,0.857,0.238c0.095-0.286,0.143-0.429,0-0.762
			c-0.381-0.048-0.524,0-0.857,0.095c-0.048,0-0.048,0-0.095,0c-1.81-4.618-4.477-8.19-8.238-10.285
			c-1.19-0.667-6.143-2.762-6.666-3.667c1.81-1,5-7.523,5.143-10.142c0.096-0.048,0.143-0.095,0.238-0.19
			c0.095,1.476,0.81,7.856,1.762,8.809c0.095-0.048,0.143-0.048,0.238-0.095c0.285-2.143-0.762-4.857-0.905-7.333
			c-0.095-2.047-0.19-4.095-0.285-6.143c0.048,0,0.095,0,0.143,0c1.333,4.904,3.571,9.523,5.476,13.571
			c0.096,0.047,0.238,0.095,0.334,0.19c0.047-0.048,0.095-0.048,0.143-0.095c0.048-1.619-1.429-3.571-2.095-5
			c-1.144-2.476-1.857-5.428-2.763-7.856c-1.381-3.619-1.381-7.047-2.38-10.666c-0.81-2.81-1.953-6.381-1.905-8.714
			c0.048-4.381-0.856-8.19,0.571-11.237c1.334-2.81,3.81-3.667,6.333-5.428c3.381-0.048,5.095,1,7.238,2.619
			c7.38,5.428,5.476,16.57,5.143,25.618c-0.144,3.619,1.476,7.095,1.285,10.952c-0.19,4.238-0.285,8.952-0.952,12.904
			c0,0.096,0,0.191,0.048,0.238c0.143,0,0.285,0,0.381,0c0.952-1.952,1.81-8.523,1.285-11.333c0-0.095,0.048-0.19,0.048-0.238
			c1.048,1.048,1.857,4.476,2.619,6C339.52,135.516,345.138,147.849,343.853,154.419z M323.806,128.612
			c-0.19-0.095-0.333-0.238-0.523-0.333c0,0.047-0.048,0.095-0.048,0.19c-0.143,0.143-0.285,0.428-0.095,0.714
			c0,0.047,0,0.095,0,0.19c0.143,0,0.285,0,0.381,0C323.615,129.088,323.711,128.85,323.806,128.612z M319.521,134.374
			c-0.096,0.047-0.19,0.095-0.286,0.19c0,0.143,0,0.286-0.047,0.429c0.095,0.143,0.19,0.286,0.285,0.428
			c0.096,0.048,0.19,0.048,0.238,0.095c0.286-0.286,0.429-0.476,0.19-1.047C319.807,134.421,319.663,134.374,319.521,134.374z
			 M314.474,149.945c-0.619-4.953,0.381-6.619,1.285-10.143c-0.096-0.047-0.238-0.095-0.333-0.19
			c-1.524,2.667-2.381,5.809-1.619,10.046C314.045,149.801,314.282,149.896,314.474,149.945z M322.759,141.087
			c-0.096,0.048-0.19,0.048-0.334,0.095c0,0.19,0.048,0.333,0.048,0.524c0.286,0.333,0.333,0.238,0.81,0.143
			c0-0.095,0.048-0.19,0.048-0.238C323.187,141.278,323.14,141.23,322.759,141.087z M327.806,142.04
			c0.096-0.19,0.143-0.428,0.238-0.619c-0.286-0.095-0.571-0.238-0.857-0.333C327.092,141.563,327.187,141.992,327.806,142.04z
			 M318.092,151.896c0.619-3.143,1.667-5.047,0-8.904c-0.143-0.047-0.285-0.095-0.429-0.189c-0.095,0.143-0.19,0.285-0.285,0.428
			c1.523,2.857,0.81,6.285,0.095,8.571C317.807,151.992,317.759,151.944,318.092,151.896z M327.758,147.992
			c0.144-0.333,0.238-0.523,0.19-1.047c-0.095-0.049-0.19-0.096-0.285-0.191c-0.143-0.047-0.334-0.047-0.477-0.095
			c-0.048,0.143-0.143,0.286-0.19,0.429c0,0.047,0,0.047,0,0.095c0.048,0.333,0.143,0.619,0.19,0.952
			C327.425,148.134,327.568,148.087,327.758,147.992z M326.139,149.658c-0.047,0.096-0.143,0.238-0.19,0.334
			c0,0.143,0.048,0.285,0.048,0.429c0.19,0.048,0.381,0.048,0.571,0.095c0.048-0.095,0.144-0.189,0.19-0.238
			c0-0.095,0.048-0.189,0.048-0.238C326.521,149.707,326.615,149.707,326.139,149.658z M326.187,151.896
			c0.048-0.143,0.144-0.285,0.19-0.428c-0.047-0.096-0.095-0.191-0.095-0.238c-0.381-0.048-0.762-0.096-1.143-0.143
			c0.095,0.189,0.143,0.333,0.237,0.523C325.615,151.801,325.663,151.896,326.187,151.896z M326.615,154.087
			c-0.143,0.189-0.285,0.332-0.429,0.523c0.048,0.095,0.144,0.238,0.19,0.333c0.144,0.048,0.286,0.095,0.429,0.19
			c0.096-0.048,0.143-0.048,0.238-0.096c0.048-0.189,0.048-0.381,0.095-0.619C326.948,154.182,326.902,154.182,326.615,154.087z
			 M326.092,155.706c-0.238-0.333-0.477-0.667-0.715-1.048c-0.143,0-0.333,0-0.476,0c-0.048,0.096-0.144,0.191-0.19,0.238
			c0.143,0.523,0.333,0.762,0.762,0.953c0.19,0.143,0.19,0.189,0.429,0.095C325.948,155.896,325.996,155.8,326.092,155.706z
			 M328.663,156.373c-0.048,0.047-0.096,0.047-0.144,0.096c0,0.094-0.047,0.236-0.047,0.332c0.095,0.096,0.19,0.238,0.285,0.334
			c0.571-0.049,0.619-0.096,0.762-0.523c-0.047-0.049-0.047-0.096-0.095-0.191C329.139,156.419,328.902,156.419,328.663,156.373z
			 M325.092,157.466c0.143,0,0.333,0,0.476,0c0-0.236,0.048-0.523,0.048-0.762c-0.333-0.047-0.666-0.094-1-0.143
			C324.806,156.8,324.949,157.134,325.092,157.466z M314.092,168.943c0-1.428-0.666-2.857-0.476-4.57
			c0.143-1.764,0.904-3.477,0.904-5.096c-0.143-0.047-0.285-0.047-0.429-0.096c-1.237,2.143-1.762,7.143-0.571,9.666
			C313.759,168.99,313.759,169.039,314.092,168.943z M326.568,159.515c-0.047,0.143-0.143,0.285-0.19,0.428c0,0.049,0,0.049,0,0.096
			c0.096,0.096,0.19,0.189,0.286,0.238c0.19-0.049,0.381-0.049,0.571-0.096c0.048,0,0.095,0,0.143,0
			c-0.095-0.189-0.143-0.334-0.238-0.523C326.948,159.611,326.758,159.562,326.568,159.515z M318.902,167.896
			c0.571-2.43,1.048-4.43,0.477-7.857c-0.238-0.096-0.429-0.191-0.667-0.238c0.143,1.047,0.238,2.047,0.381,3.096
			c-0.19,1.666-0.381,3.285-0.571,4.951c0.048,0.049,0.096,0.049,0.19,0.096C318.759,167.896,318.854,167.896,318.902,167.896z
			 M329.473,169.943c0.143,0.096,0.237,0.238,0.381,0.334c0.143-0.238,0.285-0.477,0.381-0.715c0-0.143-0.048-0.285-0.048-0.43
			c-0.238-0.047-0.429-0.047-0.667-0.094C329.425,169.324,329.377,169.658,329.473,169.943z M326.092,172.99
			c-0.096,0.049-0.19,0.096-0.286,0.191c-0.095,0.047-0.143,0.094-0.238,0.189c0.096,0.334,0.048,0.238,0.238,0.43
			c0.19,0.143,0.238,0.143,0.477,0C326.711,173.513,326.521,173.181,326.092,172.99z M311.569,182.371
			c0.096-0.047,0.143-0.047,0.238-0.096c0.714-0.57,0-2.381,0.143-3.381c0.238-1.428,1.048-3.143,0.905-4.762
			c-0.144-0.047-0.286-0.047-0.429-0.094c-0.857,1.285-1.714,5.998-1.19,7.617C311.236,182.085,311.33,182.085,311.569,182.371z
			 M315.711,174.847c-0.762,2.143-0.571,4.285-1.381,6.238c0,0.094,0,0.189,0.048,0.238
			C315.902,181.275,317.092,174.99,315.711,174.847z M322.663,175.8c0.19,0.047,0.381,0.094,0.571,0.189
			c0.048-0.047,0.096-0.047,0.143-0.096c0-0.238,0.048-0.523,0.048-0.762c-0.238-0.094-0.429-0.189-0.666-0.238
			C322.759,175.181,322.711,175.466,322.663,175.8z M324.711,176.705c0-0.096-0.048-0.238-0.048-0.334
			c-0.238-0.047-0.429-0.047-0.667-0.096c-0.095,0.096-0.19,0.191-0.285,0.287c0.048,0.094,0.095,0.189,0.095,0.238
			c0.048,0.094,0.144,0.189,0.19,0.236c0.144,0,0.334,0,0.477,0C324.568,176.943,324.663,176.847,324.711,176.705z M339.043,177.894
			c-0.048,0.191-0.048,0.381-0.095,0.619c3.523,1.904,6.618,4.238,9.904,6.381c1.476,1,3.666,1.762,4.761,3.238
			c0.286-0.047,0.524-0.047,0.81-0.096c0-0.238,0-0.477,0-0.715c-2.952-2.57-6.904-4.236-10.237-6.57
			C342.71,179.798,341.091,177.943,339.043,177.894z M322.949,179.228c0.047,0.096,0.095,0.238,0.143,0.334c0,0.047,0,0.094,0,0.189
			c0.143,0,0.333,0,0.476,0c0.096-0.096,0.191-0.189,0.286-0.285c0-0.143-0.048-0.285-0.048-0.43
			c-0.19-0.094-0.381-0.189-0.619-0.236C323.092,178.943,323.044,179.085,322.949,179.228z M324.996,180.417
			c-0.143,0.238-0.095,0.096-0.095,0.334c-0.048,0.047-0.096,0.047-0.144,0.096c0.191,0.143,0.382,0.285,0.524,0.428
			c0.381-0.047,0.333,0,0.429-0.285c0.143-0.238,0.047-0.143-0.048-0.523C325.473,180.466,325.235,180.466,324.996,180.417z
			 M322.759,181.656c-0.096,0-0.144,0-0.238,0c-0.096,0.049-0.19,0.096-0.286,0.191c-0.048,0.189,0.048,0.047-0.048,0.189
			c0.144,0.238,0.286,0.477,0.429,0.668c0.381,0,0.524-0.049,0.715-0.287c0.143-0.189,0.047,0,0.047-0.238
			C323.377,181.99,322.996,181.798,322.759,181.656z M320.569,186.609c0.095,0.047,0.19,0.047,0.237,0.096c0.144,0,0.334,0,0.477,0
			c-0.048-0.334-0.095-0.619-0.143-0.953c-0.286-0.047-0.524-0.047-0.81-0.096C320.378,186.085,320.425,186.179,320.569,186.609z
			 M319.282,186.037c-0.285-0.047-0.571-0.096-0.81-0.143c0,0.238,0,0.477,0,0.715C318.711,186.656,319.759,186.705,319.282,186.037
			z M309.807,187.322c-1.762,2.049-3.333,5.43-2.666,9c0.047,0.049,0.047,0.096,0.095,0.191c0.19,0,0.381,0,0.571,0
			c0.096-2.238-0.095-4.049,0.81-5.811c0.477-0.904,1.571-2,1.429-3.381C309.949,187.322,309.855,187.322,309.807,187.322z
			 M318.426,188.179c0.095,0.096,0.19,0.191,0.285,0.238c0.571-0.047,0.714-0.238,1.048-0.428c0-0.049,0-0.049,0-0.096
			c-0.19-0.143-0.524-0.285-1.143-0.238C318.473,187.894,318.473,187.798,318.426,188.179z M320.759,189.275
			c0,0.191,0.047,0.334,0.047,0.523c0.096,0.049,0.238,0.049,0.334,0.096c0.143-0.143,0.285-0.285,0.429-0.428
			c0-0.096-0.048-0.238-0.048-0.334c-0.238-0.047-0.429-0.047-0.667-0.096C320.806,189.132,320.806,189.179,320.759,189.275z
			 M312.378,189.371c-0.095-0.049-0.238-0.096-0.333-0.191c-0.429,0.619-0.19,1.953-0.381,2.762
			c-0.429,1.143-0.905,2.238-1.334,3.381C311.14,196.417,313.14,191.513,312.378,189.371z M281.523,197.464
			c0.048,0.096,0.143,0.191,0.19,0.238c0.048,0,0.048,0,0.096,0C281.618,197.417,281.857,197.607,281.523,197.464z"/>
	</g>
</g>
<ellipse fill="#DADADA" cx="308.997" cy="208.797" rx="28.332" ry="3.571"/>
</svg>
