<?xml version="1.0" encoding="utf-8"?>
<!-- Generator: Adobe Illustrator 21.0.0, SVG Export Plug-In . SVG Version: 6.00 Build 0)  -->
<svg version="1.1" id="Calque_1" xmlns="http://www.w3.org/2000/svg" xmlns:xlink="http://www.w3.org/1999/xlink" x="0px" y="0px"
	 viewBox="0 0 841 595" style="enable-background:new 0 0 841 595;" xml:space="preserve">
<style type="text/css">
	.st0{fill:#1D1D1B;}
	.st1{fill:#DADADA;}
	.st2{fill:#FFFFFF;}
</style>
<g>
	<g>
		<path class="st0" d="M436.9,328.4c-0.8-1.1-3.1-1.2-4.4-1.7c-3.4-1.4-7-2.6-10.4-3.9c-3.7-1.4-7.3-4.4-10.6-6.3
			c-6.2-3.4-15.1-8.9-19.1-14.6c-1-1.4-0.4-4.8-0.4-6.9c-0.5-2.4-1-4.8-1.4-7.3c-3.2-8.2-7.7-16.6-10.9-24.7
			c-1.2-3.1-1.8-6.4-2.9-9.7c-1-3.2-1-7.6-0.9-10c0.2-3.2-0.7-5.5-0.2-8.1c1-5.4,0.7-12.6-1.8-18c-1.7-3.4-4.5-5.6-7.4-7.5
			c-1.2-0.7-2.3-1.5-3.5-2.2c-2-0.1-4-0.2-6-0.4c-5,2.8-8.7,4.8-10.3,10.8c-1.8,7.2,0.9,17.1,2.5,24.2c3,12.8-0.6,26.1-7,31.5
			c-9.1-3-21.3-3.2-30.6-1.7c-4.1,0.7-8.9,1.7-10.2,4.8c-0.9,2.2-1.3,6.4,0.1,9.5c0.8,1.9,2.5,4.3,1.5,6.7
			c-2.1,4.7-10.5,3.6-10.9,10.4c-0.4,4.7,7.6,10.5,8.9,14.9c1,3.6-3.9,7.8-3.4,10.6c0.4,2.6,1.7,4.9,3.1,6.9c0.7,1,2.2,1.7,2.8,2.9
			c0.4,0.9,0.1,1.9,0.1,2.7c-0.1,2.9,0.7,9.8,2.5,11.9c0.9,1,4.6,3.9,6.1,3.8c0.6-0.1,0.6,0.6,1,0.9c0.6,0.4,1.3-0.2,1.5-0.1
			c1.3,0.5,2.5,0.9,3.8,1.4c4.8,1,10.8,1.5,16.1,1c1.2,0,2.3,0.1,3.6,0.1c1.9-0.4,3.8-0.9,5.7-1.3c1.3-0.1,2.8,0.9,4.7,0.5
			c1.9-0.4,10.6-2.6,10.9-2.6c17,4.7,33.1,13.1,45.6,24c0.2-0.1,0.6-0.1,0.8-0.1c0.1-0.2,0.1-0.4,0.2-0.7c-1.1-1.7-6.4-4.6-8.2-6
			c-3.1-2.5-6.5-4.1-9.9-6.2c-4.9-2.9-9.7-5.6-15.3-7.6c-3.3-1.1-6.6-3.4-10.3-3.9c-0.1-0.1-0.1-0.1-0.1-0.2
			c8.2-1.7,15.8-7.1,17.7-14.5c0.6-2.3,0.6-6.5,0.9-9c0.1-0.7-0.8-2-0.7-3.2c0.2-2.8,0.4-5.2,0.8-7.8c0.1-0.1,0.1-0.1,0.2-0.1
			c4.1,5.8,9.6,10.6,15.1,14.7c2.6,1.8,5.2,3.8,7.9,5.6c0.3,0,0.6,0,0.9,0c0.1-0.1,0.2-0.3,0.2-0.4c-0.4-1.6-6.2-4.4-7.7-5.5
			c-4.5-3.7-9.1-7.3-13-11.7c-0.9-1.4-1.9-2.8-2.8-4.2c-0.1-1.4,0.8-2.4,1.2-3.4c0.7-1.8,1.5-3.7,2.2-5.5c1.2-2.3,3.4-4.9,3.6-8.1
			c1,0.3,8,7.8,9.7,9.2c2.6,2.2,5.6,3.6,8.5,5.5c6.4,4.1,11.4,7.4,19.2,9.8c2.1,0.7,8.5,3.6,10.3,3.1c0.4-0.4,0.7-0.8,1.1-1.2
			C437.1,329,437.1,328.7,436.9,328.4z M329.6,358.5c-0.9-0.1-1.9-0.3-2.8-0.4c-2.5,0.1-5.8-0.1-8-0.7c-2.5-0.7-4.2-1.8-6.3-3
			c-1.7-0.9-3.8-0.5-5.2-2.1c-2.3-2.8-1.3-6-2-9.1c-0.2-0.4-0.3-0.9-0.5-1.4c0.1-0.7,0.5-2.6,0.1-3.6c-1.2-2.6-6.6-5.8-6-10
			c0.4-2.8,4.3-6.8,3.4-10.4c-1.2-5-7.3-8.5-8.7-14c-1.2-4.9,8.7-6.8,10.4-9.9c2.5-4.9-3.8-10.7-1.2-16.5c2-4.4,10.1-3.8,15.1-5.2
			c1.8-0.1,3.5-0.2,5.3-0.2c13.8-0.1,26.9,3.9,34.7,12.6c2.1,2.3,5.5,6.4,4.6,11.1c-0.4,2.2-2.2,5.7-4.1,6.5
			c-1.1,0.4-8.2-2.6-9.8-3.3c-5-2-11.5-2.5-17-3.8c-1.8-0.2-3.7-0.5-5.5-0.7c-1.4-1-2.8-2.2-4.1-3.2c-0.2-0.1-0.5-0.1-0.7-0.1
			c0,0.1-0.1,0.1-0.1,0.1c0.4,0.9,1,1.7,1.8,2c0.2,0.2,0.4,0.4,0.6,0.7c-1.1-0.2-2.2-0.4-3.3-0.6c-0.1,0.2-0.3,0.6-0.4,0.8
			c3.2,2.2,8.6,1.5,12.7,2.5c5,1.2,9.9,1.6,14.5,3.1c2.6,1,5.2,2,7.9,3c1.4,0.5,3.4,0.7,4.5,1.7c1.5,1.5,6.3,6.9,6,9.8
			c-0.2,2.5-0.8,5.2-2.3,6.8c-1.6,1.8-5.5,2-8.5,1.3c-6.6-1.5-12.9-2.3-19-3.8c-3.1-0.4-6.3-0.7-9.4-1c-0.8,0-1.6-0.1-2.4-0.1
			c-1-0.5-1.8-1.8-3.2-2.1c-0.1,0-0.1,0-0.1,0c-0.1,0.4-0.1,0.6,0.1,1.1c0.2,0.1,0.3,0.3,0.5,0.4c-0.4,0-0.9,0-1.4,0
			c-0.1,0.1-0.2,0.1-0.3,0.1c0,0.3,0,0.6,0,0.9c2.8,1.7,6.7,0.5,10.3,1.1c6.9,1.2,14.8,2.4,20.9,4.1c0.9,0.1,1.8,0.2,2.8,0.3
			c1.8,0.4,5.4,2.8,5.7,5.1c0.8,8.9-5.4,9.2-11.9,10c-1.7,0.1-3.4,0.1-5.2,0.2c-1.2-0.1-2.4-0.2-3.6-0.4c-3.2,0.2-5.8,0.4-8.8,0.1
			c-3.8-0.5-7.6,0.5-11.4-0.2c-0.1,0.1-0.2,0.1-0.4,0.2c0,0.3,0,0.6,0,0.9c0.6,0.4,1,0.4,1.7,0.4c-0.5,0.6-1,1-1.5,1.6
			c0,0.2,0.1,0.4,0.1,0.6c0.1,0.1,0.1,0.1,0.2,0.1c1.1-0.2,1.7-1.2,2.6-1.6c0.5-0.2,1.6-0.2,2-0.5c1.7-0.9,6.8,0.1,8.4,0.1
			c2.5-0.1,5-0.2,7.6-0.3c2.7,0.4,7.3,0.9,10.4,0.2c1.2,0.9,3.5,2,4.3,3.4c2.8,5.1-3.6,10.7-6.1,12.1
			C341.6,358.5,336.5,357.9,329.6,358.5z M361.4,304.4c-0.2,0-0.4,0-0.5,0c-0.1-0.1-0.1-0.2-0.1-0.3c0.2,0.1,0.4,0.1,0.6,0.1
			C361.2,304.2,361.3,304.3,361.4,304.4z M361.6,323.9c-0.1,0.3-0.2,0.6-0.4,0.9c-0.3,0-0.6,0-0.9,0c-0.1-0.1-0.1-0.1-0.1-0.1
			c0-0.2-0.1-0.4-0.1-0.6c0.3-0.1,0.7-0.2,1-0.2C361.4,323.9,361.5,323.9,361.6,323.9z M388.1,300.3c-1.3,6.6-4.9,11.4-7.2,17.3
			c-0.4,0.6-0.7,1-1,1.6c-1.9,6.1-0.2,15.2-1.5,21.8c-0.4,2-1.8,3.3-2.6,4.8c-3.6,6.5-10.1,7.1-16.9,9.5c-3.4,1.2-7.9,2.5-11.9,2.6
			c0-0.1,0-0.1,0-0.1c4.5-3.3,11.7-7.9,6.8-16.1c0.6,0,0.8-0.1,1-0.4c0.1-0.2,0.4-1.4,0.2-2.2c0.1,0.2,0.1,0.5,0.2,0.8
			c1.2,0.2,1,0.6,2,1c0.1-0.2,0.2-0.5,0.3-0.8c0.6-0.1,0.6,0.1,1.1,0.3c0.1-0.1,0.2-0.1,0.3-0.1c0.2-0.4,0.2-0.4,0.2-1
			c0-0.1,0-0.1,0-0.1c-0.7-0.4-1.5,0.4-1.7,0.5c-1.3,0-0.7-0.4-1.7-0.7c0.6-0.7,1.8,0.4,2.4-0.6c-0.1-0.4-0.1-0.8-0.2-1.2
			c0.6-0.7,1.2-1.4,1.7-2c0.7-1.4,0.9-3.2,1-4.9c0.2-1.5-0.8-2.4-0.6-4c0.4,0.1,0.7,0.1,1,0.2c0.8-0.3,1.3-1,2.2-1.4
			c0.1-2.6,1-2.7,2.6-3.6c-0.1,0.6,0.2,0.7,0.6,1.1c0.2,0,0.4,0,0.6,0c0-0.3,0-0.6,0-0.9c-0.2-0.1-0.4-0.2-0.7-0.3
			c-0.5,0-0.6-0.6-1-1.1c1.2-3.3,1.8-7.9-1.2-11c0-0.6,0.1-0.6,0.3-0.9c-0.5-0.5-1.3-0.5-1.7-1.1c-0.1-0.1-0.2-0.1-0.2-0.2
			c0.1,0,0.1,0,0.2,0c0.4-0.6,0.7,0.2,1.4,0.1c0.1,0,0.1,0,0.2,0c0-0.2-0.1-0.4-0.1-0.7c-0.2-0.2-0.3-0.4-0.5-0.6
			c-0.2,0.1-0.4,0.3-0.6,0.4c-0.2-0.3-0.4-0.7-0.7-1c0.2-0.2,0.5-0.4,0.7-0.7c-0.4-1.4-0.4-2.2-0.4-3.6c0-0.1,0-0.1,0-0.1
			c-0.4-0.2-0.6-0.4-1.2-0.2c0.1-0.9,0.6-1.2,0.8-2c0.1-0.1,0.2-0.1,0.3-0.2c0.1,0,0.1,0,0.1,0c-0.1,0.3-0.2,0.6-0.3,0.9
			c0.3,0.4,0.4,0.4,0.9,0.6c0.6-0.5,0.4-0.7,0.6-1.5c-0.2-0.7-0.3-0.7-1-0.8c0.1-1.7,0.4-3.4,0.2-5.2c0.4,0.2,0.5,0.3,1.1,0.3
			c0.1-0.4,0.2-0.6,0-1c-0.5-0.1-0.7,0-1.1,0.1c-0.1,0-0.1,0-0.1,0c-2.3-6-5.8-10.6-10.6-13.3c-1.5-0.9-7.9-3.6-8.6-4.7
			c2.3-1.3,6.5-9.7,6.6-13.1c0.1-0.1,0.2-0.1,0.3-0.2c0.1,1.9,1,10.1,2.3,11.4c0.1-0.1,0.2-0.1,0.3-0.1c0.4-2.8-1-6.3-1.2-9.5
			c-0.1-2.6-0.2-5.3-0.4-7.9c0.1,0,0.1,0,0.2,0c1.7,6.3,4.6,12.3,7.1,17.5c0.1,0.1,0.3,0.1,0.4,0.2c0.1-0.1,0.1-0.1,0.2-0.1
			c0.1-2.1-1.8-4.6-2.7-6.5c-1.5-3.2-2.4-7-3.6-10.1c-1.8-4.7-1.8-9.1-3.1-13.8c-1-3.6-2.5-8.2-2.5-11.3c0.1-5.7-1.1-10.6,0.7-14.5
			c1.7-3.6,4.9-4.7,8.2-7c4.4-0.1,6.6,1.3,9.3,3.4c9.5,7,7.1,21.4,6.6,33.1c-0.2,4.7,1.9,9.2,1.7,14.1c-0.2,5.5-0.4,11.6-1.2,16.7
			c0,0.1,0,0.2,0.1,0.3c0.2,0,0.4,0,0.5,0c1.2-2.5,2.3-11,1.7-14.6c0-0.1,0.1-0.2,0.1-0.3c1.4,1.4,2.4,5.8,3.4,7.7
			C382.5,275.9,389.7,291.8,388.1,300.3z M362.2,267c-0.2-0.1-0.4-0.3-0.7-0.4c0,0.1-0.1,0.1-0.1,0.2c-0.2,0.2-0.4,0.6-0.1,0.9
			c0,0.1,0,0.1,0,0.2c0.2,0,0.4,0,0.5,0C361.9,267.6,362,267.3,362.2,267z M356.6,274.4c-0.1,0.1-0.2,0.1-0.4,0.2
			c0,0.2,0,0.4-0.1,0.6c0.1,0.2,0.2,0.4,0.4,0.6c0.1,0.1,0.2,0.1,0.3,0.1c0.4-0.4,0.6-0.6,0.2-1.4
			C357,274.5,356.8,274.4,356.6,274.4z M350.1,294.5c-0.8-6.4,0.5-8.5,1.7-13.1c-0.1-0.1-0.3-0.1-0.4-0.2c-2,3.4-3.1,7.5-2.1,13
			C349.6,294.3,349.9,294.5,350.1,294.5z M360.8,283.1c-0.1,0.1-0.2,0.1-0.4,0.1c0,0.2,0.1,0.4,0.1,0.7c0.4,0.4,0.4,0.3,1,0.2
			c0-0.1,0.1-0.2,0.1-0.3C361.4,283.3,361.3,283.3,360.8,283.1z M367.3,284.3c0.1-0.2,0.2-0.6,0.3-0.8c-0.4-0.1-0.7-0.3-1.1-0.4
			C366.4,283.7,366.5,284.3,367.3,284.3z M354.8,297.1c0.8-4.1,2.2-6.5,0-11.5c-0.2-0.1-0.4-0.1-0.6-0.2c-0.1,0.2-0.2,0.4-0.4,0.6
			c2,3.7,1,8.1,0.1,11.1C354.4,297.2,354.4,297.1,354.8,297.1z M367.3,292c0.2-0.4,0.3-0.7,0.2-1.4c-0.1-0.1-0.2-0.1-0.4-0.2
			c-0.2-0.1-0.4-0.1-0.6-0.1c-0.1,0.2-0.2,0.4-0.2,0.6c0,0.1,0,0.1,0,0.1c0.1,0.4,0.2,0.8,0.2,1.2C366.8,292.2,367,292.1,367.3,292z
			 M365.2,294.2c-0.1,0.1-0.2,0.3-0.2,0.4c0,0.2,0.1,0.4,0.1,0.6c0.2,0.1,0.5,0.1,0.7,0.1c0.1-0.1,0.2-0.2,0.2-0.3
			c0-0.1,0.1-0.2,0.1-0.3C365.7,294.2,365.8,294.2,365.2,294.2z M365.2,297.1c0.1-0.2,0.2-0.4,0.2-0.6c-0.1-0.1-0.1-0.2-0.1-0.3
			c-0.5-0.1-1-0.1-1.5-0.2c0.1,0.2,0.2,0.4,0.3,0.7C364.5,296.9,364.6,297.1,365.2,297.1z M365.8,299.9c-0.2,0.2-0.4,0.4-0.6,0.7
			c0.1,0.1,0.2,0.3,0.2,0.4c0.2,0.1,0.4,0.1,0.6,0.2c0.1-0.1,0.2-0.1,0.3-0.1c0.1-0.2,0.1-0.5,0.1-0.8
			C366.2,300,366.2,300,365.8,299.9z M365.1,302c-0.3-0.4-0.6-0.9-0.9-1.4c-0.2,0-0.4,0-0.6,0c-0.1,0.1-0.2,0.2-0.2,0.3
			c0.2,0.7,0.4,1,1,1.2c0.2,0.2,0.2,0.2,0.6,0.1C364.9,302.2,365,302.1,365.1,302z M368.4,302.8c-0.1,0.1-0.1,0.1-0.2,0.1
			c0,0.1-0.1,0.3-0.1,0.4c0.1,0.1,0.2,0.3,0.4,0.4c0.7-0.1,0.8-0.1,1-0.7c-0.1-0.1-0.1-0.1-0.1-0.2
			C369.1,302.9,368.7,302.9,368.4,302.8z M363.8,304.2c0.2,0,0.4,0,0.6,0c0-0.3,0.1-0.7,0.1-1c-0.4-0.1-0.9-0.1-1.3-0.2
			C363.5,303.4,363.6,303.8,363.8,304.2z M349.6,319.1c0-1.8-0.9-3.7-0.6-5.9c0.2-2.3,1.2-4.5,1.2-6.6c-0.2-0.1-0.4-0.1-0.6-0.1
			c-1.6,2.8-2.3,9.2-0.7,12.5C349.2,319.1,349.2,319.2,349.6,319.1z M365.7,306.9c-0.1,0.2-0.2,0.4-0.2,0.6c0,0.1,0,0.1,0,0.1
			c0.1,0.1,0.2,0.2,0.4,0.3c0.2-0.1,0.5-0.1,0.7-0.1c0.1,0,0.1,0,0.2,0c-0.1-0.2-0.2-0.4-0.3-0.7C366.2,307,366,307,365.7,306.9z
			 M355.8,317.7c0.7-3.1,1.4-5.7,0.6-10.1c-0.3-0.1-0.6-0.2-0.9-0.3c0.2,1.4,0.3,2.6,0.5,4c-0.2,2.2-0.5,4.2-0.7,6.4
			c0.1,0.1,0.1,0.1,0.2,0.1C355.7,317.7,355.8,317.7,355.8,317.7z M369.5,320.4c0.2,0.1,0.3,0.3,0.5,0.4c0.2-0.3,0.4-0.6,0.5-0.9
			c0-0.2-0.1-0.4-0.1-0.6c-0.3-0.1-0.6-0.1-0.9-0.1C369.4,319.6,369.4,320,369.5,320.4z M365.1,324.3c-0.1,0.1-0.2,0.1-0.4,0.2
			c-0.1,0.1-0.2,0.1-0.3,0.2c0.1,0.4,0.1,0.3,0.3,0.6c0.2,0.2,0.3,0.2,0.6,0C365.9,325,365.7,324.5,365.1,324.3z M346.4,336.4
			c0.1-0.1,0.2-0.1,0.3-0.1c0.9-0.7,0-3.1,0.2-4.4c0.3-1.8,1.4-4.1,1.2-6.2c-0.2-0.1-0.4-0.1-0.6-0.1c-1.1,1.7-2.2,7.7-1.5,9.8
			C345.9,336,346.1,336,346.4,336.4z M351.7,326.7c-1,2.8-0.7,5.5-1.8,8.1c0,0.1,0,0.2,0.1,0.3C352,335,353.5,326.9,351.7,326.7z
			 M360.7,327.9c0.2,0.1,0.5,0.1,0.7,0.2c0.1-0.1,0.1-0.1,0.2-0.1c0-0.3,0.1-0.7,0.1-1c-0.3-0.1-0.6-0.2-0.9-0.3
			C360.8,327.1,360.8,327.5,360.7,327.9z M363.3,329.1c0-0.1-0.1-0.3-0.1-0.4c-0.3-0.1-0.6-0.1-0.9-0.1c-0.1,0.1-0.2,0.2-0.4,0.4
			c0.1,0.1,0.1,0.2,0.1,0.3c0.1,0.1,0.2,0.2,0.2,0.3c0.2,0,0.4,0,0.6,0C363.2,329.4,363.3,329.3,363.3,329.1z M381.8,330.6
			c-0.1,0.2-0.1,0.5-0.1,0.8c4.6,2.5,8.5,5.5,12.8,8.2c1.9,1.3,4.7,2.3,6.1,4.2c0.4-0.1,0.7-0.1,1-0.1c0-0.3,0-0.6,0-0.9
			c-3.8-3.3-8.9-5.5-13.2-8.5C386.6,333.1,384.5,330.7,381.8,330.6z M361.1,332.4c0.1,0.1,0.1,0.3,0.2,0.4c0,0.1,0,0.1,0,0.2
			c0.2,0,0.4,0,0.6,0c0.1-0.1,0.2-0.2,0.4-0.4c0-0.2-0.1-0.4-0.1-0.6c-0.2-0.1-0.5-0.2-0.8-0.3C361.2,332,361.2,332.2,361.1,332.4z
			 M363.7,333.9c-0.2,0.3-0.1,0.1-0.1,0.4c-0.1,0.1-0.1,0.1-0.2,0.1c0.2,0.2,0.5,0.4,0.7,0.6c0.5-0.1,0.4,0,0.6-0.4
			c0.2-0.3,0.1-0.2-0.1-0.7C364.3,333.9,364,333.9,363.7,333.9z M360.8,335.5c-0.1,0-0.2,0-0.3,0c-0.1,0.1-0.2,0.1-0.4,0.2
			c-0.1,0.2,0.1,0.1-0.1,0.2c0.2,0.3,0.4,0.6,0.6,0.9c0.5,0,0.7-0.1,0.9-0.4c0.2-0.2,0.1,0,0.1-0.3
			C361.6,335.9,361.1,335.7,360.8,335.5z M358,341.9c0.1,0.1,0.2,0.1,0.3,0.1c0.2,0,0.4,0,0.6,0c-0.1-0.4-0.1-0.8-0.2-1.2
			c-0.4-0.1-0.7-0.1-1-0.1C357.7,341.2,357.8,341.3,358,341.9z M356.3,341.1c-0.4-0.1-0.7-0.1-1-0.2c0,0.3,0,0.6,0,0.9
			C355.6,341.9,356.9,342,356.3,341.1z M344.1,342.8c-2.3,2.6-4.3,7-3.4,11.6c0.1,0.1,0.1,0.1,0.1,0.2c0.2,0,0.5,0,0.7,0
			c0.1-2.9-0.1-5.2,1-7.5c0.6-1.2,2-2.6,1.8-4.4C344.3,342.8,344.1,342.8,344.1,342.8z M355.2,343.9c0.1,0.1,0.2,0.2,0.4,0.3
			c0.7-0.1,0.9-0.3,1.4-0.6c0-0.1,0-0.1,0-0.1c-0.2-0.2-0.7-0.4-1.5-0.3C355.3,343.5,355.3,343.4,355.2,343.9z M358.2,345.3
			c0,0.2,0.1,0.4,0.1,0.7c0.1,0.1,0.3,0.1,0.4,0.1c0.2-0.2,0.4-0.4,0.6-0.6c0-0.1-0.1-0.3-0.1-0.4c-0.3-0.1-0.6-0.1-0.9-0.1
			C358.3,345.1,358.3,345.2,358.2,345.3z M347.4,345.4c-0.1-0.1-0.3-0.1-0.4-0.2c-0.6,0.8-0.2,2.5-0.5,3.6c-0.6,1.5-1.2,2.9-1.7,4.4
			C345.8,354.6,348.4,348.2,347.4,345.4z M307.6,355.9c0.1,0.1,0.2,0.2,0.2,0.3c0.1,0,0.1,0,0.1,0
			C307.7,355.8,308,356.1,307.6,355.9z"/>
	</g>
</g>
<ellipse class="st1" cx="343" cy="370.5" rx="36.6" ry="4.6"/>
<g>
	<g>
		<path class="st2" d="M397.2,398.5c-0.9-0.1-1.9-0.3-2.8-0.4c-2.5,0.1-5.8-0.1-8-0.7c-2.5-0.7-4.2-1.8-6.3-3
			c-1.7-0.9-3.8-0.5-5.2-2.1c-2.3-2.8-1.3-6-2-9.1c-0.2-0.4-0.3-0.9-0.5-1.4c0.1-0.7,0.5-2.6,0.1-3.6c-1.2-2.6-6.6-5.8-6-10
			c0.4-2.8,4.3-6.8,3.4-10.4c-1.2-5-7.3-8.5-8.7-14c-1.2-4.9,8.7-6.8,10.4-9.9c2.5-4.9-3.8-10.7-1.2-16.5c2-4.4,10.1-3.8,15.1-5.2
			c1.8-0.1,3.5-0.2,5.3-0.2c13.8-0.1,26.9,3.9,34.7,12.6c2.1,2.3,5.5,6.4,4.6,11.1c-0.4,2.2-2.2,5.7-4.1,6.5
			c-1.1,0.4-8.2-2.6-9.8-3.3c-5-2-11.5-2.5-17-3.8c-1.8-0.2-3.7-0.5-5.5-0.7c-1.4-1-2.8-2.2-4.1-3.2c-0.2-0.1-0.5-0.1-0.7-0.1
			c0,0.1-0.1,0.1-0.1,0.1c0.4,0.9,1,1.7,1.8,2c0.2,0.2,0.4,0.4,0.6,0.7c-1.1-0.2-2.2-0.4-3.3-0.6c-0.1,0.2-0.3,0.6-0.4,0.8
			c3.2,2.2,8.6,1.5,12.7,2.5c5,1.2,9.9,1.6,14.5,3.1c2.6,1,5.2,2,7.9,3c1.4,0.5,3.4,0.7,4.5,1.7c1.5,1.5,6.3,6.9,6,9.8
			c-0.2,2.5-0.8,5.2-2.3,6.8c-1.6,1.8-5.5,2-8.5,1.3c-6.6-1.5-12.9-2.3-19-3.8c-3.1-0.4-6.3-0.7-9.4-1c-0.8,0-1.6-0.1-2.4-0.1
			c-1-0.5-1.8-1.8-3.2-2.1c-0.1,0-0.1,0-0.1,0c-0.1,0.4-0.1,0.6,0.1,1.1c0.2,0.1,0.3,0.3,0.5,0.4c-0.4,0-0.9,0-1.4,0
			c-0.1,0.1-0.2,0.1-0.3,0.1c0,0.3,0,0.6,0,0.9c2.8,1.7,6.7,0.5,10.3,1.1c6.9,1.2,14.8,2.4,20.9,4.1c0.9,0.1,1.8,0.2,2.8,0.3
			c1.8,0.4,5.4,2.8,5.7,5.1c0.8,8.9-5.4,9.2-11.9,10c-1.7,0.1-3.4,0.1-5.2,0.2c-1.2-0.1-2.4-0.2-3.6-0.4c-3.2,0.2-5.8,0.4-8.8,0.1
			c-3.8-0.5-7.6,0.5-11.4-0.2c-0.1,0.1-0.2,0.1-0.4,0.2c0,0.3,0,0.6,0,0.9c0.6,0.4,1,0.4,1.7,0.4c-0.5,0.6-1,1-1.5,1.6
			c0,0.2,0.1,0.4,0.1,0.6c0.1,0.1,0.1,0.1,0.2,0.1c1.1-0.2,1.7-1.2,2.6-1.6c0.5-0.2,1.6-0.2,2-0.5c1.7-0.9,6.8,0.1,8.4,0.1
			c2.5-0.1,5-0.2,7.6-0.3c2.7,0.4,7.3,0.9,10.4,0.2c1.2,0.9,3.5,2,4.3,3.4c2.8,5.1-3.6,10.7-6.1,12.1
			C409.2,398.5,404,397.8,397.2,398.5z M428.9,344.3c-0.2,0-0.4,0-0.5,0c-0.1-0.1-0.1-0.2-0.1-0.3c0.2,0.1,0.4,0.1,0.6,0.1
			C428.8,344.1,428.8,344.2,428.9,344.3z M429.1,363.8c-0.1,0.3-0.2,0.6-0.4,0.9c-0.3,0-0.6,0-0.9,0c-0.1-0.1-0.1-0.1-0.1-0.1
			c0-0.2-0.1-0.4-0.1-0.6c0.3-0.1,0.7-0.2,1-0.2C428.9,363.8,429,363.8,429.1,363.8z M455.6,340.2c-1.3,6.6-4.9,11.4-7.2,17.3
			c-0.4,0.6-0.7,1-1,1.6c-1.9,6.1-0.2,15.2-1.5,21.8c-0.4,2-1.8,3.3-2.6,4.8c-3.6,6.5-10.1,7.1-16.9,9.5c-3.4,1.2-7.9,2.5-11.9,2.6
			c0-0.1,0-0.1,0-0.1c4.5-3.3,11.7-7.9,6.8-16.1c0.6,0,0.8-0.1,1-0.4c0.1-0.2,0.4-1.4,0.2-2.2c0.1,0.2,0.1,0.5,0.2,0.8
			c1.2,0.2,1,0.6,2,1c0.1-0.2,0.2-0.5,0.3-0.8c0.6-0.1,0.6,0.1,1.1,0.3c0.1-0.1,0.2-0.1,0.3-0.1c0.2-0.4,0.2-0.4,0.2-1
			c0-0.1,0-0.1,0-0.1c-0.7-0.4-1.5,0.4-1.7,0.5c-1.3,0-0.7-0.4-1.7-0.7c0.6-0.7,1.8,0.4,2.4-0.6c-0.1-0.4-0.1-0.8-0.2-1.2
			c0.6-0.7,1.2-1.4,1.7-2c0.7-1.4,0.9-3.2,1-4.9c0.2-1.5-0.8-2.4-0.6-4c0.4,0.1,0.7,0.1,1,0.2c0.8-0.3,1.3-1,2.2-1.4
			c0.1-2.6,1-2.7,2.6-3.6c-0.1,0.6,0.2,0.7,0.6,1.1c0.2,0,0.4,0,0.6,0c0-0.3,0-0.6,0-0.9c-0.2-0.1-0.4-0.2-0.7-0.3
			c-0.5,0-0.6-0.6-1-1.1c1.2-3.3,1.8-7.9-1.2-11c0-0.6,0.1-0.6,0.3-0.9c-0.5-0.5-1.3-0.5-1.7-1.1c-0.1-0.1-0.2-0.1-0.2-0.2
			c0.1,0,0.1,0,0.2,0c0.4-0.6,0.7,0.2,1.4,0.1c0.1,0,0.1,0,0.2,0c0-0.2-0.1-0.4-0.1-0.7c-0.2-0.2-0.3-0.4-0.5-0.6
			c-0.2,0.1-0.4,0.3-0.6,0.4c-0.2-0.3-0.4-0.7-0.7-1c0.2-0.2,0.5-0.4,0.7-0.7c-0.4-1.4-0.4-2.2-0.4-3.6c0-0.1,0-0.1,0-0.1
			c-0.4-0.2-0.6-0.4-1.2-0.2c0.1-0.9,0.6-1.2,0.8-2c0.1-0.1,0.2-0.1,0.3-0.2c0.1,0,0.1,0,0.1,0c-0.1,0.3-0.2,0.6-0.3,0.9
			c0.3,0.4,0.4,0.4,0.9,0.6c0.6-0.5,0.4-0.7,0.6-1.5c-0.2-0.7-0.3-0.7-1-0.8c0.1-1.7,0.4-3.4,0.2-5.2c0.4,0.2,0.5,0.3,1.1,0.3
			c0.1-0.4,0.2-0.6,0-1c-0.5-0.1-0.7,0-1.1,0.1c-0.1,0-0.1,0-0.1,0c-2.3-6-5.8-10.6-10.6-13.3c-1.5-0.9-7.9-3.6-8.6-4.7
			c2.3-1.3,6.5-9.7,6.6-13.1c0.1-0.1,0.2-0.1,0.3-0.2c0.1,1.9,1,10.1,2.3,11.4c0.1-0.1,0.2-0.1,0.3-0.1c0.4-2.8-1-6.3-1.2-9.5
			c-0.1-2.6-0.2-5.3-0.4-7.9c0.1,0,0.1,0,0.2,0c1.7,6.3,4.6,12.3,7.1,17.5c0.1,0.1,0.3,0.1,0.4,0.2c0.1-0.1,0.1-0.1,0.2-0.1
			c0.1-2.1-1.8-4.6-2.7-6.5c-1.5-3.2-2.4-7-3.6-10.1c-1.8-4.7-1.8-9.1-3.1-13.8c-1-3.6-2.5-8.2-2.5-11.3c0.1-5.7-1.1-10.6,0.7-14.5
			c1.7-3.6,4.9-4.7,8.2-7c4.4-0.1,6.6,1.3,9.3,3.4c9.5,7,7.1,21.4,6.6,33.1c-0.2,4.7,1.9,9.2,1.7,14.1c-0.2,5.5-0.4,11.6-1.2,16.7
			c0,0.1,0,0.2,0.1,0.3c0.2,0,0.4,0,0.5,0c1.2-2.5,2.3-11,1.7-14.6c0-0.1,0.1-0.2,0.1-0.3c1.4,1.4,2.4,5.8,3.4,7.7
			C450,315.8,457.2,331.7,455.6,340.2z M429.7,306.9c-0.2-0.1-0.4-0.3-0.7-0.4c0,0.1-0.1,0.1-0.1,0.2c-0.2,0.2-0.4,0.6-0.1,0.9
			c0,0.1,0,0.1,0,0.2c0.2,0,0.4,0,0.5,0C429.4,307.5,429.6,307.2,429.7,306.9z M424.2,314.3c-0.1,0.1-0.2,0.1-0.4,0.2
			c0,0.2,0,0.4-0.1,0.6c0.1,0.2,0.2,0.4,0.4,0.6c0.1,0.1,0.2,0.1,0.3,0.1c0.4-0.4,0.6-0.6,0.2-1.4
			C424.5,314.4,424.3,314.3,424.2,314.3z M417.6,334.4c-0.8-6.4,0.5-8.5,1.7-13.1c-0.1-0.1-0.3-0.1-0.4-0.2c-2,3.4-3.1,7.5-2.1,13
			C417.1,334.2,417.4,334.4,417.6,334.4z M428.3,323c-0.1,0.1-0.2,0.1-0.4,0.1c0,0.2,0.1,0.4,0.1,0.7c0.4,0.4,0.4,0.3,1,0.2
			c0-0.1,0.1-0.2,0.1-0.3C428.9,323.2,428.8,323.2,428.3,323z M434.9,324.2c0.1-0.2,0.2-0.6,0.3-0.8c-0.4-0.1-0.7-0.3-1.1-0.4
			C433.9,323.6,434.1,324.2,434.9,324.2z M422.3,337c0.8-4.1,2.2-6.5,0-11.5c-0.2-0.1-0.4-0.1-0.6-0.2c-0.1,0.2-0.2,0.4-0.4,0.6
			c2,3.7,1,8.1,0.1,11.1C421.9,337.1,421.9,337,422.3,337z M434.8,331.9c0.2-0.4,0.3-0.7,0.2-1.4c-0.1-0.1-0.2-0.1-0.4-0.2
			c-0.2-0.1-0.4-0.1-0.6-0.1c-0.1,0.2-0.2,0.4-0.2,0.6c0,0.1,0,0.1,0,0.1c0.1,0.4,0.2,0.8,0.2,1.2
			C434.4,332.1,434.5,332,434.8,331.9z M432.7,334.1c-0.1,0.1-0.2,0.3-0.2,0.4c0,0.2,0.1,0.4,0.1,0.6c0.2,0.1,0.5,0.1,0.7,0.1
			c0.1-0.1,0.2-0.2,0.2-0.3c0-0.1,0.1-0.2,0.1-0.3C433.2,334.1,433.3,334.1,432.7,334.1z M432.8,337c0.1-0.2,0.2-0.4,0.2-0.6
			c-0.1-0.1-0.1-0.2-0.1-0.3c-0.5-0.1-1-0.1-1.5-0.2c0.1,0.2,0.2,0.4,0.3,0.7C432,336.8,432.1,337,432.8,337z M433.3,339.8
			c-0.2,0.2-0.4,0.4-0.6,0.7c0.1,0.1,0.2,0.3,0.2,0.4c0.2,0.1,0.4,0.1,0.6,0.2c0.1-0.1,0.2-0.1,0.3-0.1c0.1-0.2,0.1-0.5,0.1-0.8
			C433.7,339.9,433.7,339.9,433.3,339.8z M432.6,341.9c-0.3-0.4-0.6-0.9-0.9-1.4c-0.2,0-0.4,0-0.6,0c-0.1,0.1-0.2,0.2-0.2,0.3
			c0.2,0.7,0.4,1,1,1.2c0.2,0.2,0.2,0.2,0.6,0.1C432.5,342.1,432.5,342,432.6,341.9z M436,342.7c-0.1,0.1-0.1,0.1-0.2,0.1
			c0,0.1-0.1,0.3-0.1,0.4c0.1,0.1,0.2,0.3,0.4,0.4c0.7-0.1,0.8-0.1,1-0.7c-0.1-0.1-0.1-0.1-0.1-0.2
			C436.6,342.8,436.3,342.8,436,342.7z M431.4,344.1c0.2,0,0.4,0,0.6,0c0-0.3,0.1-0.7,0.1-1c-0.4-0.1-0.9-0.1-1.3-0.2
			C431,343.3,431.2,343.7,431.4,344.1z M417.1,359c0-1.8-0.9-3.7-0.6-5.9c0.2-2.3,1.2-4.5,1.2-6.6c-0.2-0.1-0.4-0.1-0.6-0.1
			c-1.6,2.8-2.3,9.2-0.7,12.5C416.7,359,416.7,359.1,417.1,359z M433.3,346.8c-0.1,0.2-0.2,0.4-0.2,0.6c0,0.1,0,0.1,0,0.1
			c0.1,0.1,0.2,0.2,0.4,0.3c0.2-0.1,0.5-0.1,0.7-0.1c0.1,0,0.1,0,0.2,0c-0.1-0.2-0.2-0.4-0.3-0.7
			C433.7,346.9,433.5,346.9,433.3,346.8z M423.4,357.6c0.7-3.1,1.4-5.7,0.6-10.1c-0.3-0.1-0.6-0.2-0.9-0.3c0.2,1.4,0.3,2.6,0.5,4
			c-0.2,2.2-0.5,4.2-0.7,6.4c0.1,0.1,0.1,0.1,0.2,0.1C423.2,357.6,423.3,357.6,423.4,357.6z M437,360.3c0.2,0.1,0.3,0.3,0.5,0.4
			c0.2-0.3,0.4-0.6,0.5-0.9c0-0.2-0.1-0.4-0.1-0.6c-0.3-0.1-0.6-0.1-0.9-0.1C436.9,359.5,436.9,359.9,437,360.3z M432.6,364.2
			c-0.1,0.1-0.2,0.1-0.4,0.2c-0.1,0.1-0.2,0.1-0.3,0.2c0.1,0.4,0.1,0.3,0.3,0.6c0.2,0.2,0.3,0.2,0.6,0
			C433.4,364.9,433.2,364.4,432.6,364.2z M413.9,376.3c0.1-0.1,0.2-0.1,0.3-0.1c0.9-0.7,0-3.1,0.2-4.4c0.3-1.8,1.4-4.1,1.2-6.2
			c-0.2-0.1-0.4-0.1-0.6-0.1c-1.1,1.7-2.2,7.7-1.5,9.8C413.5,375.9,413.6,375.9,413.9,376.3z M419.2,366.6c-1,2.8-0.7,5.5-1.8,8.1
			c0,0.1,0,0.2,0.1,0.3C419.5,374.9,421,366.8,419.2,366.6z M428.2,367.8c0.2,0.1,0.5,0.1,0.7,0.2c0.1-0.1,0.1-0.1,0.2-0.1
			c0-0.3,0.1-0.7,0.1-1c-0.3-0.1-0.6-0.2-0.9-0.3C428.3,367,428.3,367.4,428.2,367.8z M430.9,369c0-0.1-0.1-0.3-0.1-0.4
			c-0.3-0.1-0.6-0.1-0.9-0.1c-0.1,0.1-0.2,0.2-0.4,0.4c0.1,0.1,0.1,0.2,0.1,0.3c0.1,0.1,0.2,0.2,0.2,0.3c0.2,0,0.4,0,0.6,0
			C430.7,369.3,430.8,369.2,430.9,369z M428.6,372.3c0.1,0.1,0.1,0.3,0.2,0.4c0,0.1,0,0.1,0,0.2c0.2,0,0.4,0,0.6,0
			c0.1-0.1,0.2-0.2,0.4-0.4c0-0.2-0.1-0.4-0.1-0.6c-0.2-0.1-0.5-0.2-0.8-0.3C428.8,371.9,428.7,372.1,428.6,372.3z M431.2,373.8
			c-0.2,0.3-0.1,0.1-0.1,0.4c-0.1,0.1-0.1,0.1-0.2,0.1c0.2,0.2,0.5,0.4,0.7,0.6c0.5-0.1,0.4,0,0.6-0.4c0.2-0.3,0.1-0.2-0.1-0.7
			C431.8,373.9,431.5,373.9,431.2,373.8z M428.3,375.4c-0.1,0-0.2,0-0.3,0c-0.1,0.1-0.2,0.1-0.4,0.2c-0.1,0.2,0.1,0.1-0.1,0.2
			c0.2,0.3,0.4,0.6,0.6,0.9c0.5,0,0.7-0.1,0.9-0.4c0.2-0.2,0.1,0,0.1-0.3C429.1,375.8,428.6,375.6,428.3,375.4z M425.5,381.8
			c0.1,0.1,0.2,0.1,0.3,0.1c0.2,0,0.4,0,0.6,0c-0.1-0.4-0.1-0.8-0.2-1.2c-0.4-0.1-0.7-0.1-1-0.1
			C425.3,381.1,425.3,381.2,425.5,381.8z M423.8,381c-0.4-0.1-0.7-0.1-1-0.2c0,0.3,0,0.6,0,0.9C423.1,381.8,424.5,381.9,423.8,381z
			 M411.6,382.7c-2.3,2.6-4.3,7-3.4,11.6c0.1,0.1,0.1,0.1,0.1,0.2c0.2,0,0.5,0,0.7,0c0.1-2.9-0.1-5.2,1-7.5c0.6-1.2,2-2.6,1.8-4.4
			C411.8,382.7,411.7,382.7,411.6,382.7z M422.7,383.8c0.1,0.1,0.2,0.2,0.4,0.3c0.7-0.1,0.9-0.3,1.4-0.6c0-0.1,0-0.1,0-0.1
			c-0.2-0.2-0.7-0.4-1.5-0.3C422.8,383.4,422.8,383.3,422.7,383.8z M425.8,385.2c0,0.2,0.1,0.4,0.1,0.7c0.1,0.1,0.3,0.1,0.4,0.1
			c0.2-0.2,0.4-0.4,0.6-0.6c0-0.1-0.1-0.3-0.1-0.4c-0.3-0.1-0.6-0.1-0.9-0.1C425.8,385,425.8,385.1,425.8,385.2z M414.9,385.4
			c-0.1-0.1-0.3-0.1-0.4-0.2c-0.6,0.8-0.2,2.5-0.5,3.6c-0.6,1.5-1.2,2.9-1.7,4.4C413.3,394.5,415.9,388.1,414.9,385.4z M375.1,395.8
			c0.1,0.1,0.2,0.2,0.2,0.3c0.1,0,0.1,0,0.1,0C375.2,395.7,375.5,396,375.1,395.8z"/>
	</g>
</g>
<g>
	<g>
		<path class="st0" d="M504.5,368.3c-0.8-1.1-3.1-1.2-4.4-1.7c-3.4-1.4-7-2.6-10.4-3.9c-3.7-1.4-7.3-4.4-10.6-6.3
			c-6.2-3.4-15.1-8.9-19.1-14.6c-1-1.4-0.4-4.8-0.4-6.9c-0.5-2.4-1-4.8-1.4-7.3c-3.2-8.2-7.7-16.6-10.9-24.7
			c-1.2-3.1-1.8-6.4-2.9-9.7c-1-3.2-1-7.6-0.9-10c0.2-3.2-0.7-5.5-0.2-8.1c1-5.4,0.7-12.6-1.8-18c-1.7-3.4-4.5-5.6-7.4-7.5
			c-1.2-0.7-2.3-1.5-3.5-2.2c-2-0.1-4-0.2-6-0.4c-5,2.8-8.7,4.8-10.3,10.8c-1.8,7.2,0.9,17.1,2.5,24.2c3,12.8-0.6,26.1-7,31.5
			c-9.1-3-21.3-3.2-30.6-1.7c-4.1,0.7-8.9,1.7-10.2,4.8c-0.9,2.2-1.3,6.4,0.1,9.5c0.8,1.9,2.5,4.3,1.5,6.7
			c-2.1,4.7-10.5,3.6-10.9,10.4c-0.4,4.7,7.6,10.5,8.9,14.9c1,3.6-3.9,7.8-3.4,10.6c0.4,2.6,1.7,4.9,3.1,6.9c0.7,1,2.2,1.7,2.8,2.9
			c0.4,0.9,0.1,1.9,0.1,2.7c-0.1,2.9,0.7,9.8,2.5,11.9c0.9,1,4.6,3.9,6.1,3.8c0.6-0.1,0.6,0.6,1,0.9c0.6,0.4,1.3-0.2,1.5-0.1
			c1.3,0.5,2.5,0.9,3.8,1.4c4.8,1,10.8,1.5,16.1,1c1.2,0,2.3,0.1,3.6,0.1c1.9-0.4,3.8-0.9,5.7-1.3c1.3-0.1,2.8,0.9,4.7,0.5
			c1.9-0.4,10.6-2.6,10.9-2.6c17,4.7,33.1,13.1,45.6,24c0.2-0.1,0.6-0.1,0.8-0.1c0.1-0.2,0.1-0.4,0.2-0.7c-1.1-1.7-6.4-4.6-8.2-6
			c-3.1-2.5-6.5-4.1-9.9-6.2c-4.9-2.9-9.7-5.6-15.3-7.6c-3.3-1.1-6.6-3.4-10.3-3.9c-0.1-0.1-0.1-0.1-0.1-0.2
			c8.2-1.7,15.8-7.1,17.7-14.5c0.6-2.3,0.6-6.5,0.9-9c0.1-0.7-0.8-2-0.7-3.2c0.2-2.8,0.4-5.2,0.8-7.8c0.1-0.1,0.1-0.1,0.2-0.1
			c4.1,5.8,9.6,10.6,15.1,14.7c2.6,1.8,5.2,3.8,7.9,5.6c0.3,0,0.6,0,0.9,0c0.1-0.1,0.2-0.3,0.2-0.4c-0.4-1.6-6.2-4.4-7.7-5.5
			c-4.5-3.7-9.1-7.3-13-11.7c-0.9-1.4-1.9-2.8-2.8-4.2c-0.1-1.4,0.8-2.4,1.2-3.4c0.7-1.8,1.5-3.7,2.2-5.5c1.2-2.3,3.4-4.9,3.6-8.1
			c1,0.3,8,7.8,9.7,9.2c2.6,2.2,5.6,3.6,8.5,5.5c6.4,4.1,11.4,7.4,19.2,9.8c2.1,0.7,8.5,3.6,10.3,3.1c0.4-0.4,0.7-0.8,1.1-1.2
			C504.7,368.9,504.6,368.6,504.5,368.3z M397.2,398.5c-0.9-0.1-1.9-0.3-2.8-0.4c-2.5,0.1-5.8-0.1-8-0.7c-2.5-0.7-4.2-1.8-6.3-3
			c-1.7-0.9-3.8-0.5-5.2-2.1c-2.3-2.8-1.3-6-2-9.1c-0.2-0.4-0.3-0.9-0.5-1.4c0.1-0.7,0.5-2.6,0.1-3.6c-1.2-2.6-6.6-5.8-6-10
			c0.4-2.8,4.3-6.8,3.4-10.4c-1.2-5-7.3-8.5-8.7-14c-1.2-4.9,8.7-6.8,10.4-9.9c2.5-4.9-3.8-10.7-1.2-16.5c2-4.4,10.1-3.8,15.1-5.2
			c1.8-0.1,3.5-0.2,5.3-0.2c13.8-0.1,26.9,3.9,34.7,12.6c2.1,2.3,5.5,6.4,4.6,11.1c-0.4,2.2-2.2,5.7-4.1,6.5
			c-1.1,0.4-8.2-2.6-9.8-3.3c-5-2-11.5-2.5-17-3.8c-1.8-0.2-3.7-0.5-5.5-0.7c-1.4-1-2.8-2.2-4.1-3.2c-0.2-0.1-0.5-0.1-0.7-0.1
			c0,0.1-0.1,0.1-0.1,0.1c0.4,0.9,1,1.7,1.8,2c0.2,0.2,0.4,0.4,0.6,0.7c-1.1-0.2-2.2-0.4-3.3-0.6c-0.1,0.2-0.3,0.6-0.4,0.8
			c3.2,2.2,8.6,1.5,12.7,2.5c5,1.2,9.9,1.6,14.5,3.1c2.6,1,5.2,2,7.9,3c1.4,0.5,3.4,0.7,4.5,1.7c1.5,1.5,6.3,6.9,6,9.8
			c-0.2,2.5-0.8,5.2-2.3,6.8c-1.6,1.8-5.5,2-8.5,1.3c-6.6-1.5-12.9-2.3-19-3.8c-3.1-0.4-6.3-0.7-9.4-1c-0.8,0-1.6-0.1-2.4-0.1
			c-1-0.5-1.8-1.8-3.2-2.1c-0.1,0-0.1,0-0.1,0c-0.1,0.4-0.1,0.6,0.1,1.1c0.2,0.1,0.3,0.3,0.5,0.4c-0.4,0-0.9,0-1.4,0
			c-0.1,0.1-0.2,0.1-0.3,0.1c0,0.3,0,0.6,0,0.9c2.8,1.7,6.7,0.5,10.3,1.1c6.9,1.2,14.8,2.4,20.9,4.1c0.9,0.1,1.8,0.2,2.8,0.3
			c1.8,0.4,5.4,2.8,5.7,5.1c0.8,8.9-5.4,9.2-11.9,10c-1.7,0.1-3.4,0.1-5.2,0.2c-1.2-0.1-2.4-0.2-3.6-0.4c-3.2,0.2-5.8,0.4-8.8,0.1
			c-3.8-0.5-7.6,0.5-11.4-0.2c-0.1,0.1-0.2,0.1-0.4,0.2c0,0.3,0,0.6,0,0.9c0.6,0.4,1,0.4,1.7,0.4c-0.5,0.6-1,1-1.5,1.6
			c0,0.2,0.1,0.4,0.1,0.6c0.1,0.1,0.1,0.1,0.2,0.1c1.1-0.2,1.7-1.2,2.6-1.6c0.5-0.2,1.6-0.2,2-0.5c1.7-0.9,6.8,0.1,8.4,0.1
			c2.5-0.1,5-0.2,7.6-0.3c2.7,0.4,7.3,0.9,10.4,0.2c1.2,0.9,3.5,2,4.3,3.4c2.8,5.1-3.6,10.7-6.1,12.1
			C409.2,398.5,404,397.8,397.2,398.5z M428.9,344.3c-0.2,0-0.4,0-0.5,0c-0.1-0.1-0.1-0.2-0.1-0.3c0.2,0.1,0.4,0.1,0.6,0.1
			C428.8,344.1,428.8,344.2,428.9,344.3z M429.1,363.8c-0.1,0.3-0.2,0.6-0.4,0.9c-0.3,0-0.6,0-0.9,0c-0.1-0.1-0.1-0.1-0.1-0.1
			c0-0.2-0.1-0.4-0.1-0.6c0.3-0.1,0.7-0.2,1-0.2C428.9,363.8,429,363.8,429.1,363.8z M455.6,340.2c-1.3,6.6-4.9,11.4-7.2,17.3
			c-0.4,0.6-0.7,1-1,1.6c-1.9,6.1-0.2,15.2-1.5,21.8c-0.4,2-1.8,3.3-2.6,4.8c-3.6,6.5-10.1,7.1-16.9,9.5c-3.4,1.2-7.9,2.5-11.9,2.6
			c0-0.1,0-0.1,0-0.1c4.5-3.3,11.7-7.9,6.8-16.1c0.6,0,0.8-0.1,1-0.4c0.1-0.2,0.4-1.4,0.2-2.2c0.1,0.2,0.1,0.5,0.2,0.8
			c1.2,0.2,1,0.6,2,1c0.1-0.2,0.2-0.5,0.3-0.8c0.6-0.1,0.6,0.1,1.1,0.3c0.1-0.1,0.2-0.1,0.3-0.1c0.2-0.4,0.2-0.4,0.2-1
			c0-0.1,0-0.1,0-0.1c-0.7-0.4-1.5,0.4-1.7,0.5c-1.3,0-0.7-0.4-1.7-0.7c0.6-0.7,1.8,0.4,2.4-0.6c-0.1-0.4-0.1-0.8-0.2-1.2
			c0.6-0.7,1.2-1.4,1.7-2c0.7-1.4,0.9-3.2,1-4.9c0.2-1.5-0.8-2.4-0.6-4c0.4,0.1,0.7,0.1,1,0.2c0.8-0.3,1.3-1,2.2-1.4
			c0.1-2.6,1-2.7,2.6-3.6c-0.1,0.6,0.2,0.7,0.6,1.1c0.2,0,0.4,0,0.6,0c0-0.3,0-0.6,0-0.9c-0.2-0.1-0.4-0.2-0.7-0.3
			c-0.5,0-0.6-0.6-1-1.1c1.2-3.3,1.8-7.9-1.2-11c0-0.6,0.1-0.6,0.3-0.9c-0.5-0.5-1.3-0.5-1.7-1.1c-0.1-0.1-0.2-0.1-0.2-0.2
			c0.1,0,0.1,0,0.2,0c0.4-0.6,0.7,0.2,1.4,0.1c0.1,0,0.1,0,0.2,0c0-0.2-0.1-0.4-0.1-0.7c-0.2-0.2-0.3-0.4-0.5-0.6
			c-0.2,0.1-0.4,0.3-0.6,0.4c-0.2-0.3-0.4-0.7-0.7-1c0.2-0.2,0.5-0.4,0.7-0.7c-0.4-1.4-0.4-2.2-0.4-3.6c0-0.1,0-0.1,0-0.1
			c-0.4-0.2-0.6-0.4-1.2-0.2c0.1-0.9,0.6-1.2,0.8-2c0.1-0.1,0.2-0.1,0.3-0.2c0.1,0,0.1,0,0.1,0c-0.1,0.3-0.2,0.6-0.3,0.9
			c0.3,0.4,0.4,0.4,0.9,0.6c0.6-0.5,0.4-0.7,0.6-1.5c-0.2-0.7-0.3-0.7-1-0.8c0.1-1.7,0.4-3.4,0.2-5.2c0.4,0.2,0.5,0.3,1.1,0.3
			c0.1-0.4,0.2-0.6,0-1c-0.5-0.1-0.7,0-1.1,0.1c-0.1,0-0.1,0-0.1,0c-2.3-6-5.8-10.6-10.6-13.3c-1.5-0.9-7.9-3.6-8.6-4.7
			c2.3-1.3,6.5-9.7,6.6-13.1c0.1-0.1,0.2-0.1,0.3-0.2c0.1,1.9,1,10.1,2.3,11.4c0.1-0.1,0.2-0.1,0.3-0.1c0.4-2.8-1-6.3-1.2-9.5
			c-0.1-2.6-0.2-5.3-0.4-7.9c0.1,0,0.1,0,0.2,0c1.7,6.3,4.6,12.3,7.1,17.5c0.1,0.1,0.3,0.1,0.4,0.2c0.1-0.1,0.1-0.1,0.2-0.1
			c0.1-2.1-1.8-4.6-2.7-6.5c-1.5-3.2-2.4-7-3.6-10.1c-1.8-4.7-1.8-9.1-3.1-13.8c-1-3.6-2.5-8.2-2.5-11.3c0.1-5.7-1.1-10.6,0.7-14.5
			c1.7-3.6,4.9-4.7,8.2-7c4.4-0.1,6.6,1.3,9.3,3.4c9.5,7,7.1,21.4,6.6,33.1c-0.2,4.7,1.9,9.2,1.7,14.1c-0.2,5.5-0.4,11.6-1.2,16.7
			c0,0.1,0,0.2,0.1,0.3c0.2,0,0.4,0,0.5,0c1.2-2.5,2.3-11,1.7-14.6c0-0.1,0.1-0.2,0.1-0.3c1.4,1.4,2.4,5.8,3.4,7.7
			C450,315.8,457.2,331.7,455.6,340.2z M429.7,306.9c-0.2-0.1-0.4-0.3-0.7-0.4c0,0.1-0.1,0.1-0.1,0.2c-0.2,0.2-0.4,0.6-0.1,0.9
			c0,0.1,0,0.1,0,0.2c0.2,0,0.4,0,0.5,0C429.4,307.5,429.6,307.2,429.7,306.9z M424.2,314.3c-0.1,0.1-0.2,0.1-0.4,0.2
			c0,0.2,0,0.4-0.1,0.6c0.1,0.2,0.2,0.4,0.4,0.6c0.1,0.1,0.2,0.1,0.3,0.1c0.4-0.4,0.6-0.6,0.2-1.4
			C424.5,314.4,424.3,314.3,424.2,314.3z M417.6,334.4c-0.8-6.4,0.5-8.5,1.7-13.1c-0.1-0.1-0.3-0.1-0.4-0.2c-2,3.4-3.1,7.5-2.1,13
			C417.1,334.2,417.4,334.4,417.6,334.4z M428.3,323c-0.1,0.1-0.2,0.1-0.4,0.1c0,0.2,0.1,0.4,0.1,0.7c0.4,0.4,0.4,0.3,1,0.2
			c0-0.1,0.1-0.2,0.1-0.3C428.9,323.2,428.8,323.2,428.3,323z M434.9,324.2c0.1-0.2,0.2-0.6,0.3-0.8c-0.4-0.1-0.7-0.3-1.1-0.4
			C433.9,323.6,434.1,324.2,434.9,324.2z M422.3,337c0.8-4.1,2.2-6.5,0-11.5c-0.2-0.1-0.4-0.1-0.6-0.2c-0.1,0.2-0.2,0.4-0.4,0.6
			c2,3.7,1,8.1,0.1,11.1C421.9,337.1,421.9,337,422.3,337z M434.8,331.9c0.2-0.4,0.3-0.7,0.2-1.4c-0.1-0.1-0.2-0.1-0.4-0.2
			c-0.2-0.1-0.4-0.1-0.6-0.1c-0.1,0.2-0.2,0.4-0.2,0.6c0,0.1,0,0.1,0,0.1c0.1,0.4,0.2,0.8,0.2,1.2
			C434.4,332.1,434.5,332,434.8,331.9z M432.7,334.1c-0.1,0.1-0.2,0.3-0.2,0.4c0,0.2,0.1,0.4,0.1,0.6c0.2,0.1,0.5,0.1,0.7,0.1
			c0.1-0.1,0.2-0.2,0.2-0.3c0-0.1,0.1-0.2,0.1-0.3C433.2,334.1,433.3,334.1,432.7,334.1z M432.8,337c0.1-0.2,0.2-0.4,0.2-0.6
			c-0.1-0.1-0.1-0.2-0.1-0.3c-0.5-0.1-1-0.1-1.5-0.2c0.1,0.2,0.2,0.4,0.3,0.7C432,336.8,432.1,337,432.8,337z M433.3,339.8
			c-0.2,0.2-0.4,0.4-0.6,0.7c0.1,0.1,0.2,0.3,0.2,0.4c0.2,0.1,0.4,0.1,0.6,0.2c0.1-0.1,0.2-0.1,0.3-0.1c0.1-0.2,0.1-0.5,0.1-0.8
			C433.7,339.9,433.7,339.9,433.3,339.8z M432.6,341.9c-0.3-0.4-0.6-0.9-0.9-1.4c-0.2,0-0.4,0-0.6,0c-0.1,0.1-0.2,0.2-0.2,0.3
			c0.2,0.7,0.4,1,1,1.2c0.2,0.2,0.2,0.2,0.6,0.1C432.5,342.1,432.5,342,432.6,341.9z M436,342.7c-0.1,0.1-0.1,0.1-0.2,0.1
			c0,0.1-0.1,0.3-0.1,0.4c0.1,0.1,0.2,0.3,0.4,0.4c0.7-0.1,0.8-0.1,1-0.7c-0.1-0.1-0.1-0.1-0.1-0.2
			C436.6,342.8,436.3,342.8,436,342.7z M431.4,344.1c0.2,0,0.4,0,0.6,0c0-0.3,0.1-0.7,0.1-1c-0.4-0.1-0.9-0.1-1.3-0.2
			C431,343.3,431.2,343.7,431.4,344.1z M417.1,359c0-1.8-0.9-3.7-0.6-5.9c0.2-2.3,1.2-4.5,1.2-6.6c-0.2-0.1-0.4-0.1-0.6-0.1
			c-1.6,2.8-2.3,9.2-0.7,12.5C416.7,359,416.7,359.1,417.1,359z M433.3,346.8c-0.1,0.2-0.2,0.4-0.2,0.6c0,0.1,0,0.1,0,0.1
			c0.1,0.1,0.2,0.2,0.4,0.3c0.2-0.1,0.5-0.1,0.7-0.1c0.1,0,0.1,0,0.2,0c-0.1-0.2-0.2-0.4-0.3-0.7
			C433.7,346.9,433.5,346.9,433.3,346.8z M423.4,357.6c0.7-3.1,1.4-5.7,0.6-10.1c-0.3-0.1-0.6-0.2-0.9-0.3c0.2,1.4,0.3,2.6,0.5,4
			c-0.2,2.2-0.5,4.2-0.7,6.4c0.1,0.1,0.1,0.1,0.2,0.1C423.2,357.6,423.3,357.6,423.4,357.6z M437,360.3c0.2,0.1,0.3,0.3,0.5,0.4
			c0.2-0.3,0.4-0.6,0.5-0.9c0-0.2-0.1-0.4-0.1-0.6c-0.3-0.1-0.6-0.1-0.9-0.1C436.9,359.5,436.9,359.9,437,360.3z M432.6,364.2
			c-0.1,0.1-0.2,0.1-0.4,0.2c-0.1,0.1-0.2,0.1-0.3,0.2c0.1,0.4,0.1,0.3,0.3,0.6c0.2,0.2,0.3,0.2,0.6,0
			C433.4,364.9,433.2,364.4,432.6,364.2z M413.9,376.3c0.1-0.1,0.2-0.1,0.3-0.1c0.9-0.7,0-3.1,0.2-4.4c0.3-1.8,1.4-4.1,1.2-6.2
			c-0.2-0.1-0.4-0.1-0.6-0.1c-1.1,1.7-2.2,7.7-1.5,9.8C413.5,375.9,413.6,375.9,413.9,376.3z M419.2,366.6c-1,2.8-0.7,5.5-1.8,8.1
			c0,0.1,0,0.2,0.1,0.3C419.5,374.9,421,366.8,419.2,366.6z M428.2,367.8c0.2,0.1,0.5,0.1,0.7,0.2c0.1-0.1,0.1-0.1,0.2-0.1
			c0-0.3,0.1-0.7,0.1-1c-0.3-0.1-0.6-0.2-0.9-0.3C428.3,367,428.3,367.4,428.2,367.8z M430.9,369c0-0.1-0.1-0.3-0.1-0.4
			c-0.3-0.1-0.6-0.1-0.9-0.1c-0.1,0.1-0.2,0.2-0.4,0.4c0.1,0.1,0.1,0.2,0.1,0.3c0.1,0.1,0.2,0.2,0.2,0.3c0.2,0,0.4,0,0.6,0
			C430.7,369.3,430.8,369.2,430.9,369z M449.4,370.5c-0.1,0.2-0.1,0.5-0.1,0.8c4.6,2.5,8.5,5.5,12.8,8.2c1.9,1.3,4.7,2.3,6.1,4.2
			c0.4-0.1,0.7-0.1,1-0.1c0-0.3,0-0.6,0-0.9c-3.8-3.3-8.9-5.5-13.2-8.5C454.1,373,452,370.6,449.4,370.5z M428.6,372.3
			c0.1,0.1,0.1,0.3,0.2,0.4c0,0.1,0,0.1,0,0.2c0.2,0,0.4,0,0.6,0c0.1-0.1,0.2-0.2,0.4-0.4c0-0.2-0.1-0.4-0.1-0.6
			c-0.2-0.1-0.5-0.2-0.8-0.3C428.8,371.9,428.7,372.1,428.6,372.3z M431.2,373.8c-0.2,0.3-0.1,0.1-0.1,0.4c-0.1,0.1-0.1,0.1-0.2,0.1
			c0.2,0.2,0.5,0.4,0.7,0.6c0.5-0.1,0.4,0,0.6-0.4c0.2-0.3,0.1-0.2-0.1-0.7C431.8,373.9,431.5,373.9,431.2,373.8z M428.3,375.4
			c-0.1,0-0.2,0-0.3,0c-0.1,0.1-0.2,0.1-0.4,0.2c-0.1,0.2,0.1,0.1-0.1,0.2c0.2,0.3,0.4,0.6,0.6,0.9c0.5,0,0.7-0.1,0.9-0.4
			c0.2-0.2,0.1,0,0.1-0.3C429.1,375.8,428.6,375.6,428.3,375.4z M425.5,381.8c0.1,0.1,0.2,0.1,0.3,0.1c0.2,0,0.4,0,0.6,0
			c-0.1-0.4-0.1-0.8-0.2-1.2c-0.4-0.1-0.7-0.1-1-0.1C425.3,381.1,425.3,381.2,425.5,381.8z M423.8,381c-0.4-0.1-0.7-0.1-1-0.2
			c0,0.3,0,0.6,0,0.9C423.1,381.8,424.5,381.9,423.8,381z M411.6,382.7c-2.3,2.6-4.3,7-3.4,11.6c0.1,0.1,0.1,0.1,0.1,0.2
			c0.2,0,0.5,0,0.7,0c0.1-2.9-0.1-5.2,1-7.5c0.6-1.2,2-2.6,1.8-4.4C411.8,382.7,411.7,382.7,411.6,382.7z M422.7,383.8
			c0.1,0.1,0.2,0.2,0.4,0.3c0.7-0.1,0.9-0.3,1.4-0.6c0-0.1,0-0.1,0-0.1c-0.2-0.2-0.7-0.4-1.5-0.3
			C422.8,383.4,422.8,383.3,422.7,383.8z M425.8,385.2c0,0.2,0.1,0.4,0.1,0.7c0.1,0.1,0.3,0.1,0.4,0.1c0.2-0.2,0.4-0.4,0.6-0.6
			c0-0.1-0.1-0.3-0.1-0.4c-0.3-0.1-0.6-0.1-0.9-0.1C425.8,385,425.8,385.1,425.8,385.2z M414.9,385.4c-0.1-0.1-0.3-0.1-0.4-0.2
			c-0.6,0.8-0.2,2.5-0.5,3.6c-0.6,1.5-1.2,2.9-1.7,4.4C413.3,394.5,415.9,388.1,414.9,385.4z M375.1,395.8c0.1,0.1,0.2,0.2,0.2,0.3
			c0.1,0,0.1,0,0.1,0C375.2,395.7,375.5,396,375.1,395.8z"/>
	</g>
</g>
<ellipse class="st1" cx="410.6" cy="410.4" rx="36.6" ry="4.6"/>
</svg>
