<?xml version="1.0" encoding="utf-8"?>
<!-- Generator: Adobe Illustrator 19.2.1, SVG Export Plug-In . SVG Version: 6.00 Build 0)  -->
<svg version="1.1" id="Calque_1" xmlns="http://www.w3.org/2000/svg" xmlns:xlink="http://www.w3.org/1999/xlink" x="0px" y="0px"
	 viewBox="0 0 841.9 595.3" style="enable-background:new 0 0 841.9 595.3;" xml:space="preserve">
<style type="text/css">
	.st0{fill-rule:evenodd;clip-rule:evenodd;fill:#DADADA;}
	.st1{fill-rule:evenodd;clip-rule:evenodd;fill:#1D1D1B;}
</style>
<path class="st0" d="M393,317.5c0,0-10,2.5-10.6,15.4s2.6,31.3,2.6,31.3s0.4,11.8,6.4,22c6,10.2,5.3,18,11,2.2
	c5.7-15.8,9-31.3,9.1-39s0.5-17.6-2-23.8c-2.5-6.1-12.6-8.5-12.6-8.5"/>
<g>
	<g>
		<path class="st1" d="M499.1,207.3c-1.4-3.2-6.6-0.3-8.6,1c-3.4,2.2-6.8,4.3-10.2,6.5c-3.3,3.2-7.5,6.9-11.9,8.9
			c-0.2-1.9,0.6-3.9,0.1-6.5c-0.2-1.2-0.3-2.3-0.5-3.5c0.3-0.7,0.6-1.4,0.9-2.1c0.1-0.8-0.4-1.4-0.5-1.9c0-1.9-0.1-3.8-0.1-5.6
			c-0.2-1.1-0.4-2.2-0.6-3.2c0-1.4-0.1-2.8-0.1-4.1c-1.4-4.5-1.9-9.3-3.8-13.5c-0.9-1.5-1.8-3-2.6-4.5c1.5-2,4.4-3.4,4.6-6.5
			c-0.4-0.4-0.4-0.6-1.2-0.6c-0.4,0.6-0.5,1.4-0.9,2.1c-0.8,1.3-2.4,2.2-3.4,3.4c-2.1-0.7-2.8-3.7-4.8-4.8c-0.2-0.2-0.4-0.5-0.6-0.8
			c3.2-1.5,5-4.8,7.8-6.8c-0.1-1.6-1.2-1.3-2.4-1c-1.6,2.5-3.5,5.8-6.6,6.6c-2-1.7-3.5-3.9-6.2-4.9c0-0.1-0.1-0.2-0.1-0.2
			c1.2-2.9,5.5-4.9,4.2-9.4c-0.2-0.5-0.4-0.7-1-0.9c0,0-0.1,0-0.1,0c-0.5,1-0.1,2.2-0.5,3.6c-0.3,1-3.1,5.4-4.1,5.2
			c-1.1-0.2-2-1.7-3.4-2c0.6-2.2,2.6-3.1,3.5-4.8c0-0.2,0.1-0.5,0.1-0.8c-0.2-0.2-0.4-0.3-0.6-0.5c-1.7,0.1-3.3,3-3.9,4.6
			c-0.2,0.2-0.4,0.3-0.6,0.5c-1.9-1-3.8-2.5-6.2-3c0.3-2.8,2.2-4.1,2.5-6.8c0,0,0-0.1,0-0.1c-0.5-0.3-0.5-0.5-1.4-0.5
			c-1.1,1.8-1.8,4.4-2.6,6.5c-1.6-0.5-3.2-1.1-4.8-1.6c-0.1,0-0.2,0-0.2,0c0.8-3,2.8-4.8,3.4-7.9c-0.1-1-0.2-1.9-0.4-2.9
			c-0.7-0.5-0.9-0.5-1.8-0.1c-0.3,1.7,1,2.4,0.4,4.2c-0.7,2.1-2.5,3.6-3,6.1c-1.1,0.2-6.1-1.5-7.4-2.1c0.2-2.6,1.7-4.7,3.2-5.9
			c0-0.2-0.1-0.4-0.1-0.6c-0.5-0.4-1.3-1.1-2.1-0.8c-0.2,0.2-0.3,0.3-0.5,0.5c0.2,0.3,0.3,0.6,0.5,0.9c-1.8,2.4-1.6,2.4-2.6,5.5
			c-1.5-0.1-3-0.1-4.6-0.8c-1.3-0.9,0-5.8,0.1-7.2c-0.4-0.2-0.9-0.5-1.5-0.2c-0.1,0-0.2,0.1-0.4,0.1c-0.1,2.4-0.2,4.8-0.4,7.2
			c-4,0-7.9-0.1-11.9-0.1c0-2-0.2-4.3,0.1-6c0.5-1.8,0.9-3.6,1.4-5.4c-0.2-0.2-0.4-0.4-0.6-0.6c-0.3,0-0.7,0.1-1,0.1
			c-1.3,2.8-1.2,8.5-1.5,11.9c-2.6,0.1-5.3,0.2-7.9,0.2c-0.2-3.4,2-5.1,2.4-8.1c-0.3-0.3-0.7-0.6-1-0.9c-0.6,0.2-1.3,0.3-1.9,0.5
			c-0.3,0.5-0.5,0.6-0.5,1.5c0,0.1,0.1,0.2,0.1,0.2c0.5,0.2,0.7,0.1,1.2-0.1c-0.5,2.4-2,4.3-2.1,7c-1.7,0.1-2.7,0.3-4.6,0.2
			c0,0-0.1-0.1-0.1-0.1c0.7-5.2,1.2-11.8-2.8-14.1c-0.3,0-0.6,0-0.9,0c0,0.2-0.1,0.4-0.1,0.6c0.7,0.8,1.3,1.6,2,2.4
			c1.4,3.3,0.3,7.7,0.2,11.4c-5.5,1.6-12.1,0.5-17.1,2.6c-2.2-2.2-1.3-8.1-4.8-9c-0.2,0-0.5,0-0.8,0c-0.1,0.2-0.2,0.5-0.4,0.8
			c2,2.5,2.9,5.2,4.1,8.6c-1.1,1.2-2.7,0.9-4.1,1.6c-4.3,2.3-8.3,5.1-13,7.2c-2.3-2.1-2.5-7.5-3.6-10.6c-0.2,0-0.4-0.1-0.6-0.1
			c-1.7,1.3,2.3,9,2.9,11.4c-2.3,1.7-4.6,3.3-6.9,5c-3.4-2-3.6-8.6-5.6-9.4c-0.2,0.2-0.5,0.4-0.8,0.6c0.6,3,2.7,7.5,4.9,9.1
			c0,0.1,0,0.2,0,0.4c-1.1,0.6-2.5,1.8-3,2.9c-0.5,0.3-0.4,0.3-1.1,0.2c-1.4-3.6-5.5-5.8-7-9.5c-1-2.5,0.6-5.6-2.5-6.1
			c-0.1,0.2-0.2,0.4-0.4,0.6c0.9,1.5,0.9,3.7,1.6,5.6c1.5,3.9,5.2,7.4,7.9,10.2c-0.3,1.4-1.5,1.9-2.2,2.9c-1.2,1.7-2.5,4.1-3.1,6.2
			c-0.3,0-0.6,0-0.9,0c-0.5,0.9-0.9,1.8-1.4,2.6c-0.1,0-0.2,0.1-0.2,0.1c-1.8-2.1-3.6-4.3-5.4-6.4c-1.9-1.4-2.8-1.2-3.5-3.8
			c-0.2,0-0.4-0.1-0.6-0.1c-0.1,0-0.2,0.1-0.2,0.1c-0.3,0.5-0.4,1-0.4,1.9c3.1,2.8,7.7,5.3,9.4,9.4c0.3,1.1-4.2,11.7-4.9,14.2
			c-2.5,9.7-2,20.5-1.1,30.2c0,0-0.1,0-0.1,0c-1-3.9-11.2-10.7-15-12.6c-0.6,0.4-8.3-2.3-8.9-2.8c-2.6-2-7.6-7.4-11.1-7.8
			c-4.5,2.6-3.7,6-2,10.9c0.3,1.4,0.6,2.8,0.9,4.2c1.5,3.5,5.2,7.5,9.8,8c0.2-0.2,0.3-0.5,0.5-0.8c5.2,2.9,5.9,8.6,7.9,14.9
			c1.4,4.4,4.7,7.3,6.4,11.1c1.1,3.3,2.2,6.7,3.2,10c3.4,5.6,5.3,7.6,11.2,10.6c0,0,7.8,1.5,8.1,1.6c2.1,1.5,3.4,8.5,4.6,11.4
			c1,2.4,1.7,5.9,3.1,8.4c1.3,2.3,3.3,4.6,4.2,7.1c1.5,3.9,2.2,7.6,4.1,11.2c6.4,12.3,13.8,23.7,22.1,33.5c1.2,1,2.5,1.9,3.8,2.9
			c1.2,1.4,2.4,2.8,3.6,4.1c0.9,0.7,1.9,1.2,2.6,2c0.1,0.3,0.2,0.7,0.2,1c1.8,1.7,6.2,3.5,7.5,5.6c0.2,1.3,0.5,2.7,0.8,4
			c0.5,1.7,1.3,3.5,2,5.5c0.9,1.8,1.8,3.6,2.6,5.4c1.1,3.1,1.7,5.8,2.9,8.6c1.3,3.1,3.6,5.9,5.1,8.8c0.5,0,0.9,0,1.4,0
			c2.5-1.2,2.9-6,4-8.6c2.6-6.2,6.1-12.8,6.9-21c2.6-0.4,3.2-3.1,5-4.5c5.7-4.6,9.8-10.1,13.2-16.9c2-3.9,4.8-7.4,6.8-11.5
			c2.8-5.7,4.6-11.4,7.1-17.5c3.5-8.3,7.6-16.6,11.1-24.8c1.7-4.1,2.9-8.4,4.6-12.5c1-2.4,1.1-5.1,2.2-7.4c0.4-0.5,3.3-2.2,4-2.6
			c2.3-2.7,4.6-5.5,6.9-8.2c1.1-2.2,1.8-4.4,3.1-6.4c1.5-2.2,4-4.4,4.9-7c1.1-3.1,1.6-7.1,2.4-10.6c0.2-1.9,0.3-3.8,0.5-5.6
			c0.6-1.6,1.7-3.9,2.1-5.6c0.7-0.1,1.8,0,2.5-0.1c0.7-0.5,1.4-0.9,2.1-1.4c4.9-2.5,4.2-5.5,7.2-9.4
			C497,215,500.6,211.8,499.1,207.3z M471.8,223.7c0.2,0.1,0.3,0.2,0.5,0.2c0.2,0.2,0.3,0.4,0.5,0.6c-1,0.2-1.9,0.3-2.9,0.5
			C470.6,224.6,471.2,224.1,471.8,223.7z M467.5,231.3c0,0.2,0,0.4,0,0.6c0,0.1,0,0.2,0,0.2c-0.1,0-0.2,0.1-0.2,0.1
			C467.3,232,467.4,231.6,467.5,231.3z M415.1,153.9c0,0.2,0,0.3,0,0.5c-0.4-0.3-0.2-0.1-0.2-0.5C414.9,153.9,415,153.9,415.1,153.9
			z M411.5,153.5c0,0.2-0.1,0.4-0.1,0.6c0,0.1,0,0.2,0,0.2c-0.1,0-0.2,0.1-0.2,0.1c0-0.1-0.1-0.2-0.1-0.4c-0.2-0.2-0.3-0.3-0.5-0.5
			C410.8,153.6,411.1,153.6,411.5,153.5z M405.2,153.3c0.6,0,1.2,0,1.8,0c0,0.2,0.1,0.5,0.1,0.8c-0.6-0.1-1.2-0.2-1.8-0.4
			c-0.1,0-0.2-0.1-0.2-0.1C405.1,153.5,405.2,153.4,405.2,153.3z M377.1,156.4c0.1,0.1,0.2,0.2,0.4,0.4c-0.1,0.1-0.2,0.2-0.4,0.2
			C377.1,156.8,377.1,156.6,377.1,156.4z M317.2,237.3c0-0.1,0-0.2,0-0.2c0.3,0.4,0.4,1,0.4,1.8c-0.4,0-0.8-0.1-1.1-0.1
			C316.7,238.2,317,237.8,317.2,237.3z M315.2,233c0.1,0,0.2,0,0.2,0c0,0.3-0.1,0.6-0.1,0.9c0,0.1,0,0.2,0,0.2
			C315,233.8,315.2,233.7,315.2,233z M287.7,223.2c0.1-0.4,0.2-0.8,0.4-1.1c-0.6-1-1.8-2-2.9-2.5c-0.3,0.2-0.6,0.4-0.9,0.6
			c0,0.1,4.7,8.4,5.4,9c0,0.2,0,0.3,0,0.5c-0.2,0.1-0.3,0.2-0.5,0.2c-4.9-0.8-7.3-7.3-8.8-11.9c-0.9-2.9-0.6-5.8,1.2-7.1
			c3.3,0.4,5.5,4.1,7.8,5.9c3.1,2.4,7.4,3.7,11.9,4.8c0,0.1,0.1,0.2,0.1,0.2c-0.2,0.2-0.5,0.5-0.8,0.8c0,0.2,0.1,0.4,0.1,0.6
			c0.2,0.3,0.2,0.3,0.6,0.5c0.3,0.2,0.4,0.1,0.8,0.2c0.5-0.3,0.6-0.6,0.6-1.4c0.2,0.1,0.5,0.2,0.8,0.2c-0.6,0.4-0.8,0.5-0.9,1.5
			c0.4,0.1,0.8,0.2,1.1,0.4c0.4-0.3,0.6-0.4,0.8-1c0,0,0.1,0,0.1,0c0.5,0.3,1.1,0.6,1.6,0.9c0.1,0.1,0.2,0.2,0.2,0.4
			c-0.8,0.6-3.1,1.5-4.1,1.8c-0.1,0.6,0,1,0.5,1.2c1.2,0.7,2-0.9,2.9-1.2c0.9-0.4,2.1,0.6,2.8,0.9c-0.4,0.3-3.8,1.2-4.4,1.4
			c-0.1,0.2-0.2,0.5-0.4,0.8c0.2,0.2,0.5,0.4,0.8,0.6c0.2,0.1,0.3,0.2,0.5,0.2c0.2-0.4,0.4-0.8,0.6-1.1c0.9,0.4,1.2,0,2.1-0.1
			c0.1,0.4,0.2,0.8,0.4,1.1c0.2,0.4,0,0.3-0.2,0.9c0.6,1.1,1.7,0.8,2.9,1c0.8-0.6,0.9-1.3,1.1-2.5c0.2,0.2,0.4,0.4,0.6,0.6
			c0.1,0.1,0.2,0.2,0.4,0.4c-1,0.3-0.9,0.9-1.6,1.4c-0.3,0.7,0,0.4,0.2,1.1c-0.5,0.6-0.9,0.8-0.9,1.6c0.5,0.2,0.9,0.3,1.4,0.5
			c0.4-0.3,0.6-0.5,0.6-1.2c0.3,0.3,0.6,0.7,0.9,1c-0.4,0.5-0.8,1.1-1.2,1.6c0,0.2,0,0.4,0,0.6c0,0.1,0,0.2,0,0.2
			c0.4,0.3,0.9,0.5,1.5,0.2c0.5-0.5,0.7-1.9,0.4-2.5c0.3-0.1,0.6-0.2,0.9-0.2c0.1,0,0.2,0.1,0.2,0.1c0.1,0.3,0.2,0.6,0.4,0.9
			c-0.4,0.5-1.2,1.3-1.2,1.8c0,0,0,0.1,0,0.1c-0.2,0.6,0.3,0.9,0.9,1.1c0,0.4,0,0.8,0,1.2c-0.1,0-0.2,0.1-0.2,0.1
			c-0.9-1-2.8-1.7-4.2-2.1c0.1-0.5,0.4-1.2,0.4-2.2c-0.3-0.4-0.7-0.8-1-1.2c-0.7,0.6-1.2,1.1-1.2,2.4c-1.6-0.7-3.3-1.3-4.9-2
			c-3.8-1.2-7.4-1.3-10.2-3.2C290.9,230.1,290.4,225.4,287.7,223.2z M309.3,264.7c1.1,0.5,1.4,1.6,2.2,2.2c0.4,0,0.8,0.1,1.1,0.1
			c2.4,1.5,2.5,2.2,5.9,2.8c3.2-3.3,2.2-3.3,0.2-7c0.4-0.4,0.6-0.6,0.8-1.4c-0.2-0.1-0.3-0.2-0.5-0.4c-0.3-0.3,0-0.1-0.4-0.1
			c-0.9-0.1-2.8,1.9-3,3c-0.2,0.2-0.5,0.3-0.8,0.5c0,0-0.1,0-0.1,0c0-0.5,0-1,0-1.5c0.1-0.2,0.6,0,1.1-0.2c0.6-0.3,1.7-2.9,1.8-3.8
			c-0.1-0.1-0.2-0.2-0.4-0.2c-0.7-0.2-2.5,0.1-3.1,0.4c-0.1,0-0.2-0.1-0.2-0.1c0.3-0.6,0.7-1.3,1-1.9c0,0,0-0.1,0-0.1
			c-1.4-0.4-3.2,0.9-1.6,2c-0.5,0.7-1,1.3-1.5,2c-0.7,0.1-1,0.1-1.6,0.4c-1-2.1-3.2-4.3-2.4-7.8c0.6-2.7,3.9-5,3.2-8.1
			c0.1-0.5-0.1-0.5-0.4-0.9c-0.2,0-0.5,0.1-0.8,0.1c-1.2,1.8-4.2,7.1-4.5,9.2c-3.6-1.1-5.1-9.6-6.4-13.6c-0.6-1.6-1.3-3.2-1.9-4.8
			c5.5,2,11,2.8,15.6,5.6c1.3,0.8,4.1,3.4,5.6,3.1c1,1.2,1.8,7.9,2.5,10.4c0.8,2.9,2.2,5.5,3,8c1,3.2,0.8,6,1.8,9.1
			c0.5,1.5,1,3,1.5,4.5c0.1,0.2,0.2,0.5,0.2,0.8C318.8,277.2,311.7,272.3,309.3,264.7z M313.6,260.8c0,0,0.1-0.1,0.1-0.1
			c0.5,0.2,0.5,0.2,0.8,0.6C314.2,261.1,313.9,261,313.6,260.8z M314.7,261.5c0,0.2,0,0.4,0,0.6c0,0-0.1,0-0.1,0
			c0-0.2-0.1-0.4-0.1-0.6C314.5,261.5,314.6,261.5,314.7,261.5z M313.7,264.9c-0.1,0.2-0.2,0.3-0.2,0.5c0-0.2,0-0.3,0-0.5
			C313.5,264.9,313.6,264.9,313.7,264.9z M315,265.8c0.2,0,0.3,0,0.5,0c0.2,0.7,0.5,0.7,0.9,1.1C315.5,266.8,315.1,266.6,315,265.8z
			 M378,359.3c0,0,0,0.1,0,0.1c-0.3-0.1-0.5-0.2-0.8-0.6c0.2,0,0.5,0.1,0.8,0.1C378,359,378,359.2,378,359.3z M380.8,358.7
			c-0.5-0.2-0.6-0.2-0.8-0.8c0.2,0.2,0.5,0.4,0.8,0.6C380.8,358.6,380.8,358.6,380.8,358.7z M371.2,326c0.7,0.7,1.4,1.4,2.1,2.1
			c1.4,0.7,2.6,0.2,3.8,0.6c1.6,0.6,2.6,2.3,4.9,2.5c-0.2,2.8-0.4,5.7-0.6,8.5C377.8,338.6,371.7,330,371.2,326z M380.1,341.8
			c0,0.1-0.1,0.2-0.1,0.2c-0.1,0-0.2,0.1-0.4,0.1c-0.1-0.3-0.2-0.6-0.2-0.9C379.6,341.5,379.8,341.6,380.1,341.8z M378,340.9
			c-0.5,0.6-0.9,0.9-1.8,0.9c0.2-0.2,0.3-0.3,0.5-0.5c0.6,0.1,0.8-0.1,1-0.8C378,340.8,377.8,340.5,378,340.9z M372.2,301
			c3.2-8.2,7.8-14.7,16.1-17.6c2.1-0.2,4.3-0.5,6.4-0.8c10-0.1,18,4.1,22.1,11.6c0.9,1.7,0.6,3.9,1.5,5.8c0.7,1.4,2.1,4.7,1.8,6.5
			c0.6,0.1,0.5,0.1,0.8,0.6c0,0,0,0.1,0,0.1c-0.1,0-0.2,0.1-0.2,0.1c-1.2-1.5-5.5-6.5-5-8.8c-0.6-0.7-1.3-0.9-2.1-0.8
			c-0.5-1-4.4-3-5.5-3.8c-1-0.7-1.4-1.8-2.2-2.6c-2.6-2.5-6.5-2.3-9,0.2c-0.8-0.9-2-1.1-3.1-0.4c-0.7-0.6-1.3-1.7-3-1.2
			c-0.2,0.1-0.4,0.2-0.6,0.4c-3.2,0.1-5.4-0.3-6.6,2.4c-0.2,0.7-0.3,1.5-0.5,2.2c-0.6,1-2.4,2.1-3.2,3c-1-0.7-1.8-1.3-3.2-1.2
			c-0.9,1.2-1.8,2.2-2.2,3.9c0,0.8-0.1,1.6-0.1,2.4c-1,1.5-1.9,2.9-2.9,4.4c-0.1,0-0.2,0.1-0.2,0.1c-0.2-0.2-0.3-0.5-0.5-0.8
			C370.5,304.7,371.5,302.8,372.2,301z M371.1,297c0.2-0.2,0.5-0.4,0.8-0.6c-0.1,0.5-0.2,1.1-0.4,1.6c0,0-0.1,0-0.1,0
			C371.3,297.7,371.2,297.4,371.1,297z M372.5,293.9c0.2-0.1,0.4-0.2,0.6-0.2c0.1,0.4-0.4,1.3-0.8,1.8c0,0.1-0.1,0.2-0.1,0.2
			C371.8,294.9,372.3,294.8,372.5,293.9z M373.8,292.7c0.2-0.2,0.3-0.4,0.5-0.6c0.1,0,0.2,0,0.2,0
			C374.3,292.3,374.1,292.5,373.8,292.7z M374.7,287.8c0.2-0.4,0.5-0.8,0.8-1.2c0.2,0,0.4,0,0.6,0c0,0,0.1,0.1,0.1,0.1
			c-0.1,0.7-0.2,1.3-0.2,2c-0.2,0.1-0.3,0.2-0.5,0.4C375.6,288.3,375.2,288.2,374.7,287.8z M375.3,290.5c0,0.2,0,0.3,0,0.5
			c-0.1,0-0.2,0.1-0.2,0.1c0-0.3-0.1-0.6-0.1-0.9C375.1,290.4,375.2,290.5,375.3,290.5z M378.6,286.9c0-0.1,0.1-0.2,0.1-0.4
			C378.8,286.9,378.8,286.7,378.6,286.9z M413,286c0.1,0,0.2,0,0.4,0c0,0.1-0.1,0.2-0.1,0.4C413.1,286.3,413,286.2,413,286z
			 M414.2,287.2c0.2-0.1,0.3-0.2,0.5-0.2c0.2,0.2,0.5,0.3,0.8,0.5c-0.2,0.5-0.3,0.5-0.9,0.6C414.5,287.8,414.3,287.5,414.2,287.2z
			 M411.3,329.5c1.5-1.1,2.9-2.2,4.4-3.2c1.2,0.7,3.1,0.2,4.1-0.6c0.4,1.1-0.6,2.3-0.9,3.1c-0.8,2.4-1.6,4.3-2.9,6.1
			c-1,1-1.9,2-2.9,3c-0.5,0.4-0.9,0.8-1.4,1.2C410.7,336.7,412,332.2,411.3,329.5z M411.5,350.2c0.1,0.2,0.2,0.3,0.2,0.5
			c-0.1,0-0.2,0-0.2,0C411.5,350.5,411.5,350.3,411.5,350.2z M411.1,357.5c0-0.7,0.1-1.4,0.1-2.1c0.3,0,0.6-0.1,0.9-0.1
			c0.1,0.1,0.2,0.8,0.4,1.2c-0.1,0.3-0.2,0.6-0.4,0.9C411.8,357.5,411.4,357.5,411.1,357.5z M411.2,359.8c-0.3-0.2-0.1,0-0.2-0.4
			c0,0,0.1,0,0.1,0C411.1,359.5,411.2,359.7,411.2,359.8z M417.3,324.5c-0.4-0.3-0.8-0.6-1.2-0.9c0.4-4.9,4.3-9.4,5.5-14
			c0.4,0.6-0.4,12-1.1,13.1C419.9,323.6,418.4,324.3,417.3,324.5z M402,309.3c-0.1,0-0.2,0.1-0.2,0.1c-0.7-5-5.3-11.6-3-17.2
			c0.6-0.2,1.3-0.5,1.9-0.8C409.3,292.4,402.8,304.6,402,309.3z M389.1,309.8c-0.1,0-0.2,0.1-0.2,0.1c-1.3-3.8-2.2-8.6-3.6-13
			c-0.5-1.5-0.2-3.7,0.9-4.4c0.7-0.8,1.8-0.5,2.9-0.9c0.8,0.1,1.7,0.2,2.5,0.4C393.8,295.4,389.6,305.4,389.1,309.8z M379.1,310.9
			c0,0-0.1,0-0.1,0c-2.7-2.6-3.8-8.5-2-12.1c0.8,0.3,1.1,0.5,1.8,0.9C379.6,304,379.4,306.2,379.1,310.9z M372.1,315.2
			c1.1,2.6,5.1,7.9,5.1,10.8c-0.2,0.2-0.4,0.5-0.6,0.8c-1.6-0.1-4.1-1.7-4.8-2.8c-0.5-0.9-2.5-12.6-2.2-14
			C371.2,311,371.3,313.3,372.1,315.2z M380.5,345c0.3-0.2,0.7-0.3,1-0.5c0.1,0,0.2,0,0.2,0c0,0.4,0,0.8,0,1.2
			c-0.4-0.2-0.8-0.4-1.2-0.6C380.5,345.1,380.5,345.1,380.5,345z M381.8,352.9c0,0.4,0.1,0.8,0.1,1.1c-0.1,0-0.2-0.1-0.4-0.1
			C381.7,353.6,381.8,353.3,381.8,352.9z M380.5,352.2c-0.1,0-0.2,0-0.2,0c-0.3-0.2-0.7-0.5-1-0.8c0,0,0-0.1,0-0.1
			c0.4-0.4,1.1-0.2,1.9-0.4c0.2-0.6,0.3-1.3,0.5-1.9c0,0,0.1,0,0.1,0C381.7,350.9,381.1,351,380.5,352.2z M381.7,360.2
			c-0.5-0.4-0.5-0.6-0.6-1.4c0.2,0,0.3,0.1,0.5,0.1c0.4,0.3,0.3,0.6,0.5,1.1C382,360.1,381.8,360.1,381.7,360.2z M381.8,356.3
			c0.1,0,0.2-0.1,0.4-0.1c0.2,0.2,0.2,0.3,0.4,0.6c0,0,0,0.1,0,0.1c-0.2,0-0.3,0-0.5,0C382,356.7,381.9,356.5,381.8,356.3z
			 M383.2,363.4c0,0.1-0.1,0.2-0.1,0.2c0,0-0.1,0-0.1,0c-0.2-0.3-0.4-0.6-0.6-0.9c0.3,0,0.6,0,0.9,0c0,0,0.1,0,0.1,0
			C383.3,363,383.3,363.2,383.2,363.4z M409.5,367c0-0.1,0.1-0.2,0.1-0.4C409.7,367,409.6,366.8,409.5,367z M406.1,374.4
			c-0.7,2.6-0.9,5.1-1.8,7.2c-1.6,4-3.1,7.8-5.1,11.5c-0.7,1.3-0.2,3.2-1.9,3.2c-1.3-2.8-3.3-5.5-4.6-8.4c-0.8-1.6-1-3.6-1.6-5.4
			c-1.4-4.2-3.8-8.9-5.1-12.9c-0.8-2.5-0.5-5.6-0.9-8c-0.9-6.1-2-12.7-1.8-19.2c0.2-5.9,0-17.7,3.8-21c1-0.8,2-0.7,3.4-1.2
			c1,0.1,2,0.2,3,0.4c6.7,3.3,2.7,16.4,4.2,24.2c0.2,0.1,0.4,0.2,0.6,0.2c0.2-0.1,0.3-0.2,0.5-0.2c1.2-7.8,0.9-17.2-1.9-24
			c5-0.1,8.2,0.1,10.5,3.2c2.9,4,1.7,10.7,2.2,16.2C410.8,351.2,408.8,364.5,406.1,374.4z M411,299.4c0.2-0.4,0.3-0.3,0.6-0.5
			c0.6,0.4,0.8,0.7,1.8,0.9c0.9,2.7-0.8,6.1-1.2,8.6c-0.2,0.2-0.5,0.4-0.8,0.6C410.8,307.1,409.3,301.3,411,299.4z M410.7,361.9
			c0.1-0.1,0.2-0.2,0.2-0.4c0.2,0,0.3,0,0.5,0C411.1,362.1,411.5,361.9,410.7,361.9z M411.6,365c-0.4-0.6,0.1-1.6,0.1-2.6
			c0.3,0.7,0.3,1,0.9,1.4C412.4,364.5,412.1,364.7,411.6,365z M412.1,360.9c-0.1-0.6-0.1-0.7,0.1-1.1c0.4,0.1,0.3,0.1,0.6,0.4
			c0,0.1,0.1,0.2,0.1,0.4C412.7,360.7,412.4,360.8,412.1,360.9z M412.6,353.4c-0.1,0-0.2,0.1-0.4,0.1c-0.6-0.4-0.7-0.2-0.8-1.2
			c0.5,0.1,0.9,0.2,1.4,0.2c0,0.2,0.1,0.3,0.1,0.5C412.8,353.2,412.7,353.3,412.6,353.4z M411.5,349.4c0-0.6,0.1-1.2,0.1-1.8
			c0.7,0.2,0.8,0.6,1.4,1c0.2-0.2,0.4-0.3,0.6-0.5c-0.1-0.4-0.2-0.8-0.2-1.1c0.3,0.3,0.7,0.6,1,0.9c0,0,0,0.1,0,0.1
			c-0.6,0.3-0.9,0.5-1.1,1.2C412.6,349.1,412.1,349.3,411.5,349.4z M412.1,344c0.4,0.3,0.8,0.6,1.1,0.9c-0.1,0.3-0.2,0.7-0.2,1
			c-0.4,0.2-0.4,0.2-1,0.1c-0.1-0.2-0.2-0.5-0.2-0.8C411.7,344.5,411.7,344.4,412.1,344z M413.5,349.9c0.3,0.3,0.3,1,0.4,1.5
			c-0.1,0-0.2,0-0.2,0C413.5,350.7,413.5,350.8,413.5,349.9z M414.2,362.7c0,0.1-0.1,0.2-0.1,0.2c0,0-0.1,0-0.1,0
			c0-0.7,0.1-0.8,0.4-1.1c0.2-0.2,0.4-0.2,0.6-0.4c0,0,0.1,0,0.1,0C414.9,362.1,414.7,362.4,414.2,362.7z M415.1,359.7
			c-0.3-0.5-0.6-0.7-1-1.1c0-0.1,0.1-0.2,0.1-0.2c0.3,0.3,0.7,0.6,1,0.9c0,0.1,0.1,0.2,0.1,0.4C415.3,359.6,415.2,359.6,415.1,359.7
			z M415.7,360c0.8-0.4,1-0.2,1.4-1c-0.1-1-0.4-1.7-1-2.1c-0.7-0.1-1.1,0-1.6,0.2c-0.3-0.4-0.4-0.5-0.9-0.6c0.5-0.8,0.5-1.8,0.2-2.9
			c0.3-0.1,0.6-0.2,0.9-0.2c0.3-0.6,0.3-0.8,0.1-1.6c0,0,0.1,0,0.1,0c0.1,0.3,0.2,0.7,0.2,1c0.3,0.2,0.4,0.2,1,0.2
			c0,0.2,0,0.5,0,0.8c-0.3,0-0.7,0.1-1,0.1c-0.1,0.4-0.2,0.8-0.2,1.1c1.3,1,2.4,2.1,3.1,3.8C417.6,359.7,417.1,360.1,415.7,360z
			 M453.6,286.7c-3.9,9.8-8.5,19.5-12.8,28.8c-1.2,3.5-2.4,6.9-3.6,10.4c-2.4,5.4-5.5,10.8-8.1,15.9c-1.2,2.3-2.3,5.2-4,7
			c0,0.1-0.1,0.2-0.1,0.2c-0.3-0.5-0.3-0.6-0.8-1c-0.5,0-1.1,0.1-1.6,0.1c-0.3,0.6,0.1,0.5,0.2,1.2c0.6,0.3,1.1,0.4,1.8,0.1
			c-1.3,3.2-3.6,5.2-5.1,7.9c-0.2,0-0.4,0-0.6,0c0-0.1-0.1-0.2-0.1-0.2c0.3-0.6,0.3-1.6,0.2-2.5c-0.7-0.3-1.1-0.4-1.9-0.2
			c0.6-0.5,1.5-0.5,1.1-1.6c-0.3-0.5-1.9-1-2.8-1c0.7-1.4,0.1-2.5-0.6-3.5c0.4-0.3,0.6-0.4,0.9-0.9c-0.7-0.9-0.2-1.5-0.1-2.9
			c-0.7-0.7-1.5-1.3-1.9-2.2c-0.7,0-1.3,0.1-2,0.1c0-0.2-0.1-0.3-0.1-0.5c0.1-0.2,0.2-0.3,0.2-0.5c2.1,0.4,2,0.7,3.5,1.4
			c0.6-0.4,0.9-0.7,1.2-1.4c-0.2-0.1-0.3-0.2-0.5-0.4c0.3-0.1,1.3,0,2-0.2c0.2-0.9,0-1.2-0.8-1.5c-0.8-0.3-2.6-0.1-3,0.8
			c-0.2-0.1-0.3-0.2-0.5-0.2c0.3-0.5,0.7-0.9,1-1.4c0.6,0.1,1.2,0.2,1.8,0.4c0.4-0.4,0.5-0.3,0.6-1c0.3,0.2,0.7,0.5,1,0.8
			c0.2-0.1,0.5-0.2,0.8-0.2c0.1-0.4,0.2-0.8,0.2-1.1c-0.4-0.6-0.6-1.2-1.5-1.4c0.4-0.7,0.4-0.6,1.2-0.2c0,0.2,0,0.5,0,0.8
			c0.3,0.3,0.6,0.3,1.2,0.4c0.4-0.2,0.8-0.5,1.1-0.8c0.1-0.1,0.2-0.2,0.2-0.4c-0.9-0.6-1.8-1.2-2.6-1.8c0.2-0.3,0.3-0.7,0.5-1
			c0.3,0.3,0.7,0.7,1,1c0.3,0,0.7,0,1,0c0.9-1.2,0.3-2-1.1-2.5c0.1-0.4,0.2-0.8,0.2-1.2c0.5,0.1,0.8,0.3,1.4,0.1
			c0.1,0,0.2-0.1,0.4-0.1c0-0.2,0.1-0.5,0.1-0.8c-0.4-0.3-0.8-0.6-1.2-0.9c0.2-0.5,0.3-1.1,0.5-1.6c0.4,0.3,0.6,0.6,1.1,0.9
			c0.7-0.3,0.9-0.4,0.9-1.4c-0.7-0.4-1.1-0.4-1.9-0.1c0,0,0-0.1,0-0.1c0.1-0.6,0.2-1.2,0.4-1.8c0.4,0.1,0.7,0.8,1.5,0.5
			c0.1,0,0.2-0.1,0.4-0.1c0-0.3,0.1-0.7,0.1-1c-0.5-0.4-0.7-0.4-1.4-0.4c0.1-0.4,0.2-0.8,0.2-1.1c0.2,0,0.5,0,0.8,0
			c0.4-0.3,1-1.1,1.1-1.6c-0.9,0.1-1.1-0.3-2.1-0.1c0-0.2,0.1-0.3,0.1-0.5c0.6-0.4,1.6-0.6,2.5-0.6c0.1-0.2,0.2-0.3,0.2-0.5
			c0.8-1.5-1.3-1.2-1.9-0.8c-0.2,0-0.3-0.1-0.5-0.1c0.1-1,0.2-1.9,0.2-2.9c0,0,0.1,0,0.1,0c0.6,0.3,0.7,0.3,0.8,1.2
			c0.2,0.1,0.5,0.2,0.8,0.4c1,0.3,2.3-0.5,2.4-1.8c-0.8-0.4-1.3-0.3-2.2,0.1c-0.1-0.5-0.2-1.1-0.4-1.6c-0.5-0.3-0.5-0.4-1.1-0.1
			c-0.2-0.9,0-2,0.1-3.1c0.5-0.1,1.1-0.2,1.6-0.2c0.1-0.4,0.2-0.8,0.2-1.1c-0.8-0.5-1.1-0.7-1.9-0.4c0.5-1.3,2.8-0.2,3.4-4.2
			c-0.7-0.5-1-0.6-1.8-0.2c-0.1,0.6,0.1,1.1-0.1,1.5c-0.3,0.3-1,0.5-1.5,0.6c0.3-1.7-0.2-4.1-2.5-4.1c0-0.2-0.1-0.4-0.1-0.6
			c0,0,0-0.1,0-0.1c0.4,0,0.8-0.1,1.1-0.1c0.2,0.4,0.5,0.8,0.8,1.2c0.3,0,0.6-0.1,0.9-0.1c0.2-0.4,0.3-0.8,0.5-1.2
			c-0.1-0.2-0.2-0.3-0.2-0.5c-0.3,0-0.6-0.1-0.9-0.1c0-0.3-0.1-0.7-0.1-1c-1.2-0.3-1.8-0.3-2.5,0.4c-1.1-1.4-1.2-4.3-2-5.9
			c0.6-0.2,0.9-0.1,1.5-0.5c0-0.2-0.1-0.5-0.1-0.8c-0.4-0.2-0.8-0.4-1.2-0.6c-0.4,0.3-0.4,0.6-0.6,1.1c0,0-0.1,0-0.1,0
			c-0.7-1.6,0.4-1.9-0.1-3.1c0-0.1,0-0.2,0-0.2c-0.5,0.1-0.9,0.2-1.4,0.4c-0.2-0.2-0.3-0.4-0.5-0.6c0.2-0.4,0.4-0.8,0.6-1.2
			c-0.2-0.1-0.3-0.2-0.5-0.4c0.2-0.4,0.3-0.8,0.5-1.1c-0.1-0.2-0.2-0.4-0.4-0.6c-0.1,0-2-0.5-2.5-0.5c0.2-0.5,0.2-0.7,0.1-1.2
			c-0.4,0-0.8,0-1.2,0c-0.6,0.4-0.6,0.9-0.2,1.5c-0.1,0-0.2,0.1-0.2,0.1c-0.4-0.3-0.8-0.6-1.1-0.9c-0.3-0.1-0.1-0.6-0.1-1.1
			c-0.9-0.5-1.1,0-2-0.1c-0.6-0.5-1.3-0.9-1.9-1.4c-0.5,0.1-1,0.2-1.5,0.2c-1.1-0.3-2.2-0.6-3.2-0.9c0.2-0.5,0.3-0.6,0.2-1.1
			c-0.2-0.5-0.4-0.5-1-0.6c-0.5,0.3-0.8,0.5-0.9,1.2c-0.7,0-1-0.1-1.4-0.4c-0.3-0.3-0.2-0.3-0.1-0.9c-0.1-0.1-0.2-0.2-0.2-0.2
			c-1.9,0.2-2.7,0.9-5,1c-0.1-0.2-0.2-0.4-0.2-0.6c0.6,0.2,0.8,0.2,1.5,0.1c0.1-0.3,0.2-0.7,0.4-1c-0.3-0.4-0.5-0.6-1.1-0.8
			c-0.7,0.4-0.9,0.7-1.1,1.6c-0.9,0.1-1.9,0.2-2.5,0.5c0,0-0.1,0-0.1,0c0.4-1.3,1.6-2.2,2.6-2.4c-0.2-0.8-0.3-1-0.2-1.9
			c-2,0.1-2.8,2.5-4.2,3.6c-0.4-0.4-0.5-0.6-1.2-0.8c-0.1,0-0.2,0.1-0.4,0.1c-0.3,0.4-0.4,0.5-0.4,1.2c0,0,0,0.1,0,0.1
			c0.7,0.4,1.1,0.2,2.1,0.1c-0.2,0.6-0.4,0.5-0.9,0.8c-0.9-0.2-1.8-0.6-2.2-1.2c-0.5,0.1-0.9,0.2-1.4,0.4c-0.1,0.5,0,0.7,0.1,1.1
			c0.3,0,0.7,0,1,0c0,0,0.1,0,0.1,0c0,0.5,0,0.5-0.2,0.8c-0.7,0.4-1.6,0-2.5,0.1c-0.3,0.5-0.3,0.6-0.2,1.2c-0.5-0.4-0.4-0.7-1.4-0.9
			c0,0-0.1,0-0.1,0c-0.6,0.8-0.4,1-0.1,2c-0.6,0.3-1.2,0.6-1.8,0.9c0-0.2,0-0.4,0-0.6c0.2-0.4,0.5-0.8,0.8-1.2
			c-0.3-0.3-0.6-0.6-0.9-0.9c-0.3,0-0.6,0.1-0.9,0.1c-0.4,0.7-0.6,1.7-0.8,2.5c-0.2,0-0.3,0-0.5,0c0-0.3-0.1-0.7-0.1-1
			c-3.3-0.2-2.9,1.9-5.4,2.1c-0.1,0.2-0.2,0.3-0.2,0.5c0,0.3,0,0.6,0,0.9c0.6,0.9,1.9,0.2,2.9,0c-0.5,0.7-0.9,1.4-1.4,2.1
			c-0.4,0-0.8-0.1-1.1,0.4c0-0.4-0.1-0.8-0.1-1.2c-0.8-0.2-1.7-0.5-2.5-0.8c-0.2,0.2-0.4,0.4-0.6,0.6c-0.1,0.4-0.2,0.8-0.4,1.1
			c0.3,0.2,0.6,0.5,0.9,0.8c0.5,0.4,1.8-0.1,2.5-0.4c0,0.2-0.1,0.5-0.1,0.8c-0.2,0-0.4,0-0.6,0c-0.4,0.6-0.8,1.4-1,2.2
			c0,0-0.1,0-0.1,0c-0.2-0.2-0.3-0.4-0.5-0.6c-0.2-0.2-2.1-0.4-2.8-0.4c0-0.2,0.1-0.4,0.1-0.6c-0.4-0.3-0.5-0.4-1.2-0.4
			c-0.1,0.1-0.2,0.2-0.4,0.2c-0.2,0.5-0.4,0.8,0,1.2c0.4,0.6,1.2,0.7,1.6,1.4c0.7-0.1,0.8-0.2,1.2-0.5c0.1,0,0.2,0.1,0.2,0.1
			c0,0.2,0,0.4,0,0.6c-0.6,0.1-1.3,0.2-1.9,0.4c-0.2,0.2-0.3,0.5-0.5,0.8c0.2,1.3,0.5,1.3,0.5,2.6c0.7,0.5,1.4,0.9,2.1,1.4
			c0.2,0,0.3,0,0.5,0c0.3-0.4,0.5-0.4,0.6-1c0.4,0,0.9,0.1,1.5-0.1c-0.5,1.5-1.1,3-1.6,4.5c0,0.1,0,0.2,0,0.2c0,0-0.1,0-0.1,0
			c-0.5-0.6-1.6-1.6-2.4-1.9c-0.6,0.3-0.8,0.3-1,1c-0.1,0.4,0.1,0.7,0.4,1.1c-0.2,0.3-0.5,0.7-0.8,1c0.2,2.7,1.8,0.2,0.5,3.5
			c0.1,0.1,0.2,0.2,0.4,0.4c0.4,0.4,0.9,0.2,1.5,0.1c0,0.5,0,0.9,0,1.4c-0.9-0.2-1.2-0.5-2.4-0.5c-0.2,0.2-0.3,0.4-0.5,0.6
			c0.2,1.5,0.9,0.9,1.6,1.6c0.2,0.2,0.1,0.8,0.1,1.4c0.5,0.3,0.6,0.3,1.4,0.2c0.1,0.7,0.2,1.5,0.4,2.2c-0.2,0.9-0.8,1.5-0.6,3
			c0.2,1.5,0.3,2.9,0.5,4.4c-0.2,0-0.4,0-0.6,0c0-0.3,0-0.6,0-0.9c-0.2,0-0.4-0.1-0.6-0.1c-0.2,0.1-0.3,0.2-0.5,0.4
			c0.4,1,0.6,1.3,0.8,2.4c0.5,0.3,0.8,0.4,1.6,0.4c0.1,0.2,0.2,0.4,0.2,0.6c-0.5,0.7-1.1,1.1-1.8,1.5c0,0.4,0.1,0.8,0.1,1.2
			c0,0.1,0,0.2,0,0.2c0.6-0.4,1.2-0.8,1.8-1.1c0.7,0.8,1.1,1.4,1.5,2.6c-0.1,0.4-0.2,0.8-0.4,1.1c-0.7-0.2-0.6-0.3-1-0.8
			c-0.7,0.3-0.9,0.6-1.4,1c0.2,0.6,2,1.5,2.8,1.6c0.6-0.3,0.7-0.4,0.9-1.1c0.1,0,0.2-0.1,0.2-0.1c0.6,1,1.3,2.1,1.9,3.1
			c0.2,0.3-0.2,0.8-0.5,1.5c0.2,0.2,0.4,0.4,0.6,0.6c0.6,0.2,1,0,1.5-0.1c0.5,0.6,0.9,1.3,1.4,1.9c-0.6,0.1-1.2,0.2-1.8,0.4
			c-1,2,1,3.6-0.1,6c0.6,1.1,0.7,0.9,1.1,2.1c0.2,0.2,0.3,0.3,0.5,0.5c0.3,0,0.7-0.1,1-0.1c0.4-0.6,0.6-1.4,0.6-2.5
			c-0.4-0.2-0.5-0.1-1.2-0.1c0-0.2-0.1-0.3-0.1-0.5c0.3-0.2,0.7-0.4,1-0.6c0-0.2,0-0.3,0-0.5c-0.3-0.2-0.6-0.3-0.9-0.5
			c0-0.2,0.1-0.5,0.1-0.8c0.5,0.1,1.8,1.4,2.1,2.2c-0.2,0.2-0.5,0.4-0.8,0.6c0,0.3,0.1,0.7,0.1,1c1.1,0.3,1.7,1,3,1.1
			c0,0.3,0.1,0.7,0.1,1c-0.7-1-1.9-0.9-3.2-0.5c-0.1,0.4-0.2,0.8-0.2,1.1c-0.8-0.2-0.7-0.5-1.8-0.5c0,0-0.1,0-0.1,0
			c-0.2,0.3-0.3,0.7-0.5,1c0.3,0.8,0.9,0.7,1.1,1.6c0,0.1,0.1,0.2,0.1,0.4c-0.6,0.3-0.9,0.6-1.1,1.2c-0.4,0-0.8,0.1-1.2,0.1
			c-0.6,0.3-0.4,0.4-0.4,1.1c0.3,0.2,0.7,0.3,1,0.5c0.4-0.4,0.7-0.6,0.8-1.4c2,1,3-1.4,4.4,0.2c-0.5,0.7-0.5,1-0.1,1.8
			c-0.3-0.2-0.7-0.5-1-0.8c-0.1,0-0.2-0.1-0.4-0.1c-0.4,0.2-0.8,0.4-1.1,0.6c0,0.2,0.1,0.5,0.1,0.8c0.2,0.5,0.4,0.6,1,0.8
			c-0.2,0.2-0.4,0.5-0.6,0.8c0,0.1-0.1,0.2-0.1,0.2c-0.2-0.6-0.5-0.8-0.9-1.2c0,0,0.1-1.1,0-1.8c-0.1,0-0.2-0.1-0.4-0.1
			c-1,0-1.2,0.3-1.9,0.6c0,0.3,0,0.6,0,0.9c0.3,0.4,0.4,0.4,1,0.5c-0.2,0.2-0.5,0.3-0.8,0.5c-0.9-0.8-1.8-1.7-2.8-2.5
			c0.5-0.5,0.9-0.5,1-1.5c-0.5-0.5-0.8-1-1.8-0.8c-0.3,0.3-0.6,0.6-0.9,0.9c-1.1-1.4-3.4-2.5-4-4.2c0.6,0,1.3,0,1.9,0
			c0.1-0.2,0.2-0.5,0.4-0.8c0.1-0.2,0.2-0.3,0.2-0.5c-0.1,0-0.2,0-0.2,0c-0.3-0.3-0.4-0.2-1-0.2c-0.6,0.5-1,1.2-1.6,1.2
			c-0.7-0.8-1.4-1.6-2.1-2.4c-2.1-2.1-4.4-4.6-6-7.1c-1.7-2.8-4-5.2-5.5-8c-1.7-3.3-3-6.2-4.6-9.5c-0.8-1.6-2.2-3.2-2.9-4.9
			c-1.7-4.4-3.5-8.8-5.2-13.1c-1.3-2.1-2.6-4.2-3.9-6.2c-1.6-2.9-2.2-6.9-3.5-9.8c-0.4-0.9,0-2-0.4-2.8c-1.3-2.8-3.6-7.2-3.5-10.2
			c0-0.1,0.1-0.2,0.1-0.4c-0.6-0.8-1.3-1.7-1.6-2.8c-0.7-3.4-1.3-6.8-2-10.2c-0.5-1-1.1-2.1-1.6-3.1c-1.8-5.3-2.3-10.2-3.6-16
			c-0.4-1.9-1.1-4.6-1-6.2c-0.3-1.5-0.6-3-0.9-4.5c0.4-6.7-1.7-14.9-0.1-22c0.6-3.2,1.2-6.5,1.8-9.8c1.2-3.4,2.5-6.8,3.8-10.2
			c0.1-0.1,0.2-0.2,0.4-0.2c1.4,0.8,2.6,1.6,3.4,3c-0.1,0.4-0.2,0.8-0.4,1.2c0.9,1.2,2-0.1,2.1-1.4c-0.6-0.8-3.8-3.7-3.9-4
			c-0.3-1.7,6.3-11.8,7.6-12.2c0.4,0.8,4.2,4.2,5.2,4.4c0-0.1,0.1-0.2,0.1-0.2c-1.6-1.7-3.2-3.3-4.8-5c0.9-1.4,2.1-2.2,3.1-3.4
			c1.1,0.3,1.8,1.2,2.4,2c0.3,0,0.7-0.1,1-0.1c0.1-1.2-0.9-1.8-1.8-2.4c0-0.2,0-0.3,0-0.5c2.1-1.4,4.3-2.8,6.4-4.1
			c1.6,1.8,1.2,6,3.2,7c0.1-0.1,0.2-0.2,0.4-0.4c0.5-1.3-1.8-6.1-2.4-7.2c0.4-0.6,1-0.8,1.8-1.1c0.1,1.1,0.7,1.6,1.5,2
			c0.5-0.2,0.8-0.4,1.1-0.8c0.3,0.5,0.5,0.6,1.1,0.8c0.3,0.1,0.4,0,0.8-0.1c0.1-0.4,0.2-0.8,0.2-1.2c-0.2-0.2-0.5-0.4-0.8-0.6
			c-0.9,0.1-1.2,0.3-1.4,1.1c0,0-0.1,0-0.1,0c-0.4-0.8-0.4-1.2-1.4-1.5c0-0.1-0.1-0.2-0.1-0.2c0.8-0.4,1.6-0.8,2.4-1.2
			c0.4,0.4,0.8,0.8,1.2,1.2c0.7-0.1,0.8-0.2,1.2-0.5c-0.1-0.9-0.4-1.2-0.8-1.8c0.5-0.2,1.1-0.5,1.6-0.8c0,0,0.1,0.1,0.1,0.1
			c-0.2,0.2-0.5,0.5-0.8,0.8c0,1,0.4,1.7,1.4,2.1c0.3,0,0.6,0,0.9,0c0.4-0.5,0.8-1,1.1-1.5c-0.1-1.2-0.8-1.7-1.8-2c0,0,0-0.1,0-0.1
			c0.6-0.4,1.2-0.8,1.8-1.2c0.2,0,0.3-0.1,0.5-0.1c0.6,1.2,1.2,1.9,2.5,2.4c1,0,1.2-0.4,1.4-1.2c-0.7-0.7-1.3-1.4-2-2.1
			c0.6-0.3,1.2-0.7,1.8-1c0.5,0.5,0.2,0.8,0.5,1.6c0.5,0.6,0.9,1.2,1.4,1.8c0,1.5-0.1,3.1-0.1,4.6c0.4,1.2,0.8,2.3,1.2,3.5
			c0.6,1.9,0,3,0.9,4.5c0.1,0.1,0.2,0.2,0.2,0.4c0.3,0,0.6-0.1,0.9-0.1c0.5-1.9-0.2-4.4,0-6.2c-1.8-2.6-1.6-3.8-1.4-7.8
			c0.2,0.1,0.4,0.2,0.6,0.4c0.3,1.5,1,3.9,2.2,4.5c0.3,0,0.6,0,0.9,0c0.1,0,0.2-0.1,0.4-0.1c0.2-1-0.5-2.6-1-3.5
			c-0.4-0.2-0.8-0.5-1.1-0.8c-0.3-0.6,0.2-1.1-0.2-1.6c-0.4-0.7-0.8-0.7-1.6-0.8c0-0.4-0.1-0.8-0.1-1.1c0,0,0.1-0.1,0.1-0.1
			c0.6,0.2,1,0.8,1.4,1.2c0.8-0.1,1.1-0.4,1.4-1c-0.1-0.2-0.2-0.3-0.2-0.5c0-0.1,0-0.2,0-0.4c0.2,0,0.4-0.1,0.6-0.1
			c0,1.3,0.6,1.9,1.5,2.4c0.7-0.1,0.8-0.3,1.2-0.6c0,0,0.1,0.1,0.1,0.1c-0.3,0.8-0.7,0.7-0.9,1.8c2.4,2.5,1,5.4,1.8,8.5
			c0.7,2.7,2.2,6.1,3,9.2c0.2,1.7,0.4,3.5,0.6,5.2c0,0.1,0.1,0.2,0.1,0.4c0.3,0,0.7,0.1,1,0.1c1-4-1.3-9-2.2-11.8
			c-1.3-3.7-1.2-6.6-1.4-11.1c0.1,0,0.2-0.1,0.2-0.1c0.2,0.1,0.5,0.2,0.8,0.4c0.2-0.1,0.5-0.2,0.8-0.4c0-0.1,0.1-0.2,0.1-0.2
			c-0.4-1.9-2.1-1.9-2.5-3.6c0-0.2-0.1-0.3-0.1-0.5c0.6-0.1,1.2-0.2,1.8-0.4c0.8,0.9,0.7,2.3,1.8,2.9c0.6,0.2,0.9,0,1.4-0.2
			c0.4,1.2,0.5,1.5,0.5,3c2,0.1,3.1-3,1-3.8c0.1-0.4,0.2-0.8,0.4-1.1c0.8,0.2,1.2,0.8,2.2,0.5c0.7,2.2,0.6,6.5,0.1,8.9
			c0.5,0.1,0.9,0.2,1.4,0.4c0.5-0.3,1-0.5,1.1-1.1c-0.2-1.3-0.5-2.7-0.8-4c-0.2-1.3,0.5-2.5,0.6-3.2c0.1-0.7-0.5-1.9-0.5-3.1
			c1.8,0.1,1.6,1.3,3.2,1c0.2-0.3,0.2-0.4,0.2-1c0.3-0.2,0.4-0.2,1-0.2c0,1.2,0.1,2.5,0.1,3.8c0.3,1.5,0.7,3.1,1,4.6
			c0,1.4-0.1,2.8-0.1,4.1c0.2,0.4,0,0.2,0.5,0.4c0.3-1,0.9-1.7,1.1-2.9c0.5-2.7-1.1-6.6-1-10c0.2,0,0.3-0.1,0.5-0.1
			c0.2,0.8,0.5,1.1,1.1,1.5c0.8,0,1-0.2,1.5-0.4c0-0.5,0-0.4-0.2-0.9c0.1-0.1,0.2-0.2,0.4-0.4c1.1,0,2.3,0,3.4,0
			c0.2,0.2,0.3,0.5,0.5,0.8c1,0.8,0,3.9,0,5.6c0.5,0.4,0.5,0.4,1.2,0.4c0-0.1,0-0.2,0-0.2c0.5-0.7,0.6-3.8,0.8-5c1.3,0.8,2,1,3.1,2
			c0.2,0,0.5-0.1,0.8-0.1c0.4-0.5,0.5-0.7,0.5-1.6c-0.7-0.7-1.6-0.8-2.1-1.2c-0.2-0.2-0.3-0.3-0.5-0.5c0.1,0,0.2-0.1,0.2-0.1
			c0.9,0.2,1.5,0.8,2.6,1c0.5-0.3,0.6-0.5,0.9-1c0.2,0,0.4,0,0.6,0c-1,1.2-0.9,2.7-0.1,3.9c0,0,0,0.1,0,0.1
			c-0.6-0.2-0.7-0.3-1.4-0.2c-0.7,1.3,0.3,2.3,1.1,2.9c-0.2,1-0.4,2.6-0.2,3.8c0.1,0.1,0.2,0.2,0.2,0.2c0.6-0.2,0.7-0.3,1.1-0.6
			c0.6-2.8,0.5-4-0.6-5.9c1.3,0.2,1.1-0.6,1.9-0.9c1.4-0.4,2.4,0.7,3.5,0c0.3-0.6,0.6-1.2,0.9-1.8c0,0.8,0,1.6,0,2.4
			c0.2,0.5,0.6,0.5,0.8,1.2c-1,1.9-2,3.8-3,5.6c-0.3-0.2-0.7-0.3-1-0.5c-0.2,0.1-0.5,0.2-0.8,0.2c-0.3,1,0.1,1.6,0.5,2.2
			c-0.8,1.2-1.5,2.2-2,3.8c0.7,1.1,1.3,2.2,2,3.2c1,3.1-0.6,6.3-0.4,9.2c0.4,0.2,0.4,0.2,0.9,0.1c0.1,0,0.2,0,0.4,0
			c0.2-3.2,0.3-6.3,0.5-9.5c-0.3-1.4-2.1-2.6-1.6-3.9c1.4-4,7.4-8,5.4-12.9c0-0.2,0-0.5,0-0.8c0.4,0.5,0.8,0.9,1.2,1.4
			c0.6-0.1,0.9-0.2,1.1-0.6c0.4,0.9,0.4,1.6,1.2,2c0.6,0.2,0.8-0.1,1.2-0.4c0.7,1.8,0.2,4.6-0.2,6.4c-0.5-0.2-1-0.5-1.5-0.8
			c-0.2,0.3-0.3,0.6-0.5,0.9c0.4,0.5,0.5,0.8,1.1,1c0.6,0,1.2,0,1.8,0c1.8-3.2,0.8-6.5,0.8-10.1c0.5,0.4,0.8,1.1,0.9,1.9
			c0.4,0.1,0.8,0.2,1.2,0.2c0.2,0,0.3-0.1,0.5-0.1c0.4-0.6,0.4-0.8,0.4-1.6c0.3,0.1,0.6,0.2,0.9,0.4c0.2,1.8,0.1,3.2,1.8,3.9
			c0.8-0.6,1.1-1.9,0.6-3c0,0,0-0.1,0-0.1c0.4,0,0.8,0.1,1.1,0.1c1,1.2,1.4,2.4,3.1,2.9c0.2-0.1,0.4-0.2,0.6-0.2
			c0.3-0.5,0.3-0.9,0.4-1.4c0.6,0.2,1.2,0.4,1.8,0.6c0,0,0,0.1,0,0.1c-1.1,2-2.3,3.9-3.4,5.9c0,0.2,0,0.3,0,0.5c0.3,0,0.7,0.1,1,0.1
			c0.7-1.1,1.4-2.3,2.1-3.4c1.1-0.7,0.7-0.1,2,0.2c0.1,0,0.2-0.1,0.4-0.1c0.6-1.2-0.2-1.8-0.8-2.5c2.4,0.4,4.2,2.2,6.2,2.9
			c0,0.1,0.1,0.2,0.1,0.2c-0.5,0.5-1,1-1.5,1.5c0.3,1-0.5,1.7-0.1,2.8c0,0.1,0,0.2,0,0.2c0.7-0.3,1.1-0.9,1.4-1.6
			c0.7,0,1.3,0.1,2,0.1c0.5-0.7,0.6-1.1,0.1-2c0,0,0-0.1,0-0.1c0.7,0.4,1.5,0.8,2.2,1.1c0.2,0.3,0.3,0.3,0.4,0.9
			c-1.3,0.8-6,8.7-4.4,10.2c0.2,0,0.4-0.1,0.6-0.1c0.6-1.7,1.3-3.5,1.9-5.2c0.7-1.4,2-2.7,2.9-3.9c2.7,0.6,4.5,2.9,6.4,4.5
			c-0.3,1.2-1.3,1.5-1.9,2.4c-1.7,2.6-7,9.7-6.8,13c0,0,0.1,0,0.1,0c0.8-0.7,0.4-1.1,1-2.1c1.2-2.2,7-10.8,8.9-11.5
			c2.2,1.6,3.4,3.7,5.4,5.5c-0.3,2.7-3.7,3.8-3.9,6c0,0.1-0.1,0.2-0.1,0.4c2-0.2,4-2.8,4.8-4.4c2.7,1,2.6,6,3.9,8.1
			c3.6,6.3,1.8,15.7,3.8,23.2c-0.3,0.5-0.6,0.5-0.9,1.1c0,0-0.2,4.3-0.1,4.4c0,0.1,0,0.2,0,0.2c0.3,0,0.6-0.1,0.9-0.1
			c0,9.9-2.4,16.9-3.4,25.2C461.7,258,458.9,273.4,453.6,286.7z M370.1,296.4c-0.4,0.4-1,0.6-1.5,0.9c-0.1,0.1-0.2,0.2-0.2,0.2
			c-0.1-0.1-0.2-0.2-0.4-0.4c0.6-0.4,1.1-0.7,1.4-1.4C369.6,296,369.8,296.2,370.1,296.4z M369.5,294.7c0-0.2,0.1-0.4,0.1-0.6
			c0,0,0.1,0.1,0.1,0.1c0,0.2-0.1,0.3-0.1,0.5C369.5,294.7,369.5,294.7,369.5,294.7z M367.1,306.2c0,0,0-0.1,0-0.1
			c0.6-0.3,1.8-1.5,2.1-2.1c0,0.5-0.1,1.1-0.1,1.6C368.5,306,368.2,306.2,367.1,306.2z M368.7,316.8c0,0.1-0.1,0.2-0.1,0.4
			c0-0.1,0-0.2,0-0.4C368.6,316.8,368.7,316.8,368.7,316.8z M470.1,256c-0.1,0-0.2,0.1-0.4,0.1c-0.1-0.4-0.2-0.8-0.2-1.2
			c0.4-0.1,0.8-0.2,1.2-0.2C470.6,255.4,470.4,255.6,470.1,256z M478.6,238.5c-0.3,2.5-0.6,4.9-0.9,7.4c-1,3-3.1,5.3-4.1,7.8
			c-0.1,0-0.2,0.1-0.2,0.1c0,0-0.1,0-0.1,0c0.8-2.9,1.5-7.5,0.9-10.9c-0.2-0.1-0.3-0.2-0.5-0.2c-0.2,0-0.4,0-0.6,0
			c-0.6,0.9-0.7,2.2-0.6,3.8c-0.4,0.3-0.8,0.6-1.2,0.9c0.2,1.5,1.6,2.6,0.5,4.6c-0.4,0.6-1.8-0.4-2,1.2c-0.2,0-0.3,0-0.5,0
			c-0.3-0.5-0.6-0.9-0.9-1.4c-0.5,0-0.9,0.1-1.4,0.1c-0.2,0.4,0.4,4.6,1.2,5c0.1,0.1,0.2,0.2,0.2,0.4c-1.6,0.6-3.3,1.5-4.1,2.9
			c0.1,0.3,0.2,0.7,0.2,1c0.4,0,0.8,0.1,1.2,0.1c1.2-1.1,2.9-1.8,4.2-2.8c-1,3.8-6.8,11.2-9.9,13c0.5-2.2,1-4.3,1.5-6.5
			c1.1-4.4,1.7-8.7,2.8-13c0.7-2.8,0.1-6.1,1.1-8.2c2.4-2.9,5.2-5.1,8.2-7.4c2-1.5,4.3-2,5.8-4C480.1,233.2,479,237.3,478.6,238.5z
			 M492.1,218.4c-0.9,1.8-1.8,3.6-2.8,5.4c-1.4,0.8-2.8,1.6-4.2,2.4c-0.2,0-0.3,0-0.5,0c0.8-2.4,4.5-7.3,6.4-8.8
			c-0.1-0.5-0.2-1-0.2-1.5c-1.8-0.3-4.2,3.9-5.1,5.2c-2.4,3.4-4.5,8-7.8,10.5c-2.7,2-8.1,4.7-10,7.1c-1-0.2-1.1-0.5-1.9,0
			c0.2-1,0.3-1.9,0.5-2.9c0.7,0.2,1,0.6,1.4,1.1c0.3,0,0.6,0,0.9,0c0.1-0.1,0.2-0.2,0.4-0.2c-0.3-0.8-0.6-1.6-0.9-2.4
			c0.1,0,0.2-0.1,0.2-0.1c0.6-0.5,1.3-0.2,2.2-0.2c0.1-0.1,0.2-0.2,0.2-0.2c-0.1-1-0.4-1.3-1-1.8c-0.4,0.2-0.8,0.3-1.1,0.5
			c0-0.4,0-0.8,0-1.2c0.5,0,1.1-0.1,1.6-0.1c1.4,0.4,1.4-0.9,2.6-1.4c-0.1-0.4-0.2-0.8-0.4-1.1c-1.2-1-1.3-0.6-2.4,0.2
			c-0.2,0-0.3,0-0.5,0c0-0.2-0.1-0.4-0.1-0.6c0.3,0,0.6,0,0.9,0c0.1-0.7,0.1-1-0.2-1.5c0,0,0-0.1,0-0.1c1.4-0.2,1.4,0.4,2.6,0.6
			c0.2-0.3,0.5-0.7,0.8-1c-0.2-0.5-0.3-0.9-0.5-1.4c0.9,0,0.9,0,1.6-0.1c0.2,0.7,0.3,0.7,0.9,1c0.3,0,0.7-0.1,1-0.1
			c0-0.2,0.1-0.4,0.1-0.6c0.2-0.7-0.5-1.3-1.1-1.6c-0.3,0.2-0.6,0.3-0.9,0.5c-0.4-0.5-0.8-0.9-1.1-1.4c0,0,0-0.1,0-0.1
			c0.5,0.2,1,0.5,1.6,0.2c0.1,0,0.2-0.1,0.4-0.1c0.1-0.7,0-1-0.2-1.5c0.6-0.4,1.3-0.8,1.9-1.2c0,0,0.1,0,0.1,0
			c-0.2,0.5-0.4,1-0.6,1.5c0.3,0.7,0.5,1,1.4,1.1c1-0.8,0.3-1.5,1.4-2.2c-0.2-0.5-0.5-1-0.8-1.5c0.3-0.4,0.7-0.8,1-1.1
			c0.2-0.2,0.5-0.4,0.8-0.6c0.3,0.7,0.4,1.1,0.9,1.8c0.4,0,0.8,0,1.1,0c0.1-0.2,0.2-0.5,0.4-0.8c-0.3-0.8-0.5-1.3-1.4-1.5
			c0-0.1,0-0.2,0-0.2c0.5-0.3,1.1-0.7,1.6-1c0.1-0.1,0.2-0.2,0.4-0.4c0.6,1.1,1.2,1.2,2.5,1c0-0.1,0-0.2,0-0.2
			c0.4-0.9-0.2-1.4-0.6-1.9c2.8-1.8,5.6-3.6,8.4-5.4c0.9-0.3,1.7-0.2,2.4-0.6c0.3,0.1,0.6,0.2,0.9,0.2
			C498,212.6,494,215.6,492.1,218.4z M394.7,157.2c0.6-0.1,0.7-0.1,1-0.5c0-0.3,0-0.6,0-0.9c-0.3-0.7-0.9-1.3-1.9-1.4
			C393.2,155.7,394,156.5,394.7,157.2z M387.3,158.2c0.7-1.4-0.4-1.9-1.1-2.6c-0.2,0-0.5,0-0.8,0c-0.1,0.1-0.2,0.2-0.4,0.2
			c0,0.4,0.1,0.8,0.1,1.2C385.5,157.9,386.2,158.4,387.3,158.2z M392.7,160.3c0.3-0.2,0.4-0.2,0.6-0.5c0-0.3,0.1-0.7,0.1-1
			c-0.5-0.5-0.7-0.9-1.6-1.1c-0.2,0.1-0.3,0.2-0.5,0.2c-0.1,0-0.2,0.1-0.4,0.1C391.3,159.2,391.5,160,392.7,160.3z M409.2,159.7
			c-0.3-0.8-0.8-1.6-1.8-1.4c-0.1,0-0.2-0.1-0.2-0.1c-0.1,0.1-0.2,0.2-0.4,0.2c0,0.4,0,0.8,0,1.2c0.5,0.4,0.9,0.8,1.4,1.2
			C408.8,160.6,409.1,160.5,409.2,159.7z M400.7,161.4c0.4-0.3,0.8-0.6,1.1-0.9c-0.1-1.2-0.8-2-1.9-2.2c-0.2,0.1-0.5,0.2-0.8,0.4
			C399.2,160.3,399.8,160.8,400.7,161.4z M369.5,158.9c-0.3-0.1-0.6-0.2-0.9-0.2c-0.2,0.2-0.4,0.3-0.6,0.5c0.2,0.3,0.3,0.7,0.5,1
			c0.2,0,0.4-0.1,0.6-0.1c0.1-0.2,0.2-0.3,0.4-0.5C369.5,159.3,369.5,159.1,369.5,158.9z M416.1,161.4c0.1-0.4,0.2-0.8,0.4-1.1
			c-0.5-0.8-1-1.3-2-1.6c-0.2,0.1-0.5,0.2-0.8,0.2c-0.1,0.2-0.2,0.3-0.4,0.5c0.2,0.6,0.3,1.2,0.5,1.8
			C414.5,161.5,415.2,161.6,416.1,161.4z M422.6,161.9c0.4-0.3,0.3-0.1,0.4-0.6c0-0.4-0.1-0.8-0.1-1.1c-0.6-0.4-1-0.7-2-0.9
			c-0.1,0.1-0.2,0.2-0.2,0.4c0,1.1,0.3,1.3,0.6,2C421.7,161.9,422.1,162.1,422.6,161.9z M428.7,162.4c0.1-0.4,0.2-0.8,0.4-1.1
			c-0.4-0.5-0.8-0.9-1.1-1.4c-1.4,0.1-1.2,0.1-2.4-0.1c-0.8,0.9-0.7,1.5-0.2,2.5C426.4,163,427.4,162.5,428.7,162.4z M400,161.9
			c-0.2,0.1-0.3,0.2-0.5,0.2c-0.2,1.3,0.4,1.8,1.1,2.5c0.3-0.1,0.6-0.2,0.9-0.2c0.3-0.3,0.4-0.5,0.5-1
			C401.4,162.7,401.1,162.1,400,161.9z M396.7,164c0.2,0,0.3-0.1,0.5-0.1c0.3-0.3,0.3-0.5,0.2-0.9c0-0.1-0.1-0.2-0.1-0.4
			c-0.5,0-0.9-0.1-1.4-0.1c-0.1,0.1-0.2,0.2-0.2,0.4C395.9,163.7,396.2,163.7,396.7,164z M360.6,165.3c0.7-0.1,0.8-0.3,1.2-0.6
			c-0.2-0.7-0.2-1.1-0.8-1.5c-0.3-0.3-1-0.4-1.4-0.5c-0.2,0.2-0.3,0.3-0.5,0.5C359.3,164.4,359.9,164.7,360.6,165.3z M379.1,171.9
			c0.2,0.1,0.5,0.2,0.8,0.2c-0.1,0.3-0.2,0.7-0.2,1c0.1,0.1,0.2,0.2,0.4,0.2c0.4,0.3,1.2,0.2,1.5-0.2c0.1-0.1,0.2-0.2,0.2-0.4
			c-0.3-0.6-0.5-0.7-1.4-0.8c0.6-2.7-2.1-6.2-1.8-8.6c-0.5-0.1-1.1-0.2-1.6-0.4c-0.2,0.3-0.7,0.5-0.5,1.2c0.5,0.8,0.9,1.6,1.4,2.4
			C378.3,168.4,378.7,170.2,379.1,171.9z M437.1,166.4c0.1-0.6,0.2-1.1-0.1-1.5c-0.3-0.3-0.7-0.7-1-1c-0.3,0-0.6,0-0.9,0
			c-0.1,0.1-0.2,0.2-0.4,0.4c0,0.9,0.2,1.1,0.4,1.8C435.7,166.6,436.1,166.8,437.1,166.4z M358.6,165.9c0.3-0.4,0.4-0.5,0.4-1.2
			c-0.3-0.2-0.7-0.3-1-0.5c-0.5,0.4-0.8,0.4-0.9,1.2c0.3,0.2,0.6,0.5,0.9,0.8C358.2,166.1,358.4,166,358.6,165.9z M425.5,167.4
			c0.6,0.4,1.1,0.2,1.2-0.5c0.3-0.9-0.8-1.8-1.6-2c-0.1,0-0.2,0.1-0.2,0.1C424.4,165.8,424.8,167,425.5,167.4z M427.5,166.3
			c-0.1,0.2-0.2,0.3-0.4,0.5c0.1,0.2,0.2,0.4,0.2,0.6c0.2,0.1,0.5,0.2,0.8,0.2c0.2-0.1,0.3-0.2,0.5-0.2
			C428.2,167,427.8,166.7,427.5,166.3z M367.5,169.4c0.2,0,0.5,0,0.8,0c0.2-0.3,0.4-0.7,0.6-1c-0.2-0.5-0.2-0.7-0.8-1
			c-0.3,0-0.6-0.1-0.9-0.1c-0.2,0.2-0.3,0.4-0.5,0.6C366.5,168.6,367,169.1,367.5,169.4z M434.3,170c0.1-0.2,0.2-0.4,0.2-0.6
			c-0.1-1.2-0.5-1.5-1.2-2c-0.2,0.1-0.5,0.2-0.8,0.4c-0.1,0.1-0.2,0.2-0.4,0.2c0.1,0.4,0.2,0.8,0.2,1.2
			C433,169.7,433.4,170,434.3,170z M395.8,179.5c0.5-0.8,0.2-1.7,0.5-2.9c0.9-3.2,1.7-8.3-2.2-9c-0.5,0.4-1,0.5-1.2,1.1
			c0,0.1-0.1,0.2-0.1,0.4c0,0,0,0.1,0,0.1c0.8,0.6,0.8,0.6,1.6,0c2.8,2.4,0.2,6.5,0.1,9.9c0,0,0,0.1,0,0.1c0.4,0.2,0.4,0.3,1.1,0.4
			C395.7,179.6,395.8,179.6,395.8,179.5z M390.8,169c0.1-0.2,0.2-0.5,0.2-0.8c-0.3-0.4-0.4-0.5-1.1-0.5c-0.5,0.5-1,0.5-1.2,1.2
			c0.1,0.2,0.2,0.4,0.4,0.6C390,169.6,390.1,169.3,390.8,169z M356.6,171c0.3-0.2,0.7-0.4,1-0.6c0-0.2-0.1-0.4-0.1-0.6
			c0-0.1-0.1-0.2-0.1-0.4c-0.3,0-0.7-0.1-1-0.1c-0.2,0.2-0.4,0.4-0.6,0.6c0,0.3,0.1,0.7,0.1,1C356.1,171,356.3,171,356.6,171z
			 M414.6,170.3c-0.2,0.2-0.5,0.5-0.8,0.8c0,0.2,0,0.4,0,0.6c0.5,0.3,0.6,0.5,1.4,0.5c0,0,0.1,0,0.1,0c0.5-0.6,0.8-1.3-0.1-1.8
			C415,170.4,414.8,170.3,414.6,170.3z M420.3,180.8c1.2-3.7,4.1-5.9,5.9-8.9c0-0.4,0-0.8,0-1.1c-0.3-0.2-0.3-0.3-0.9-0.4
			c-3.9,3.7-6.5,8.9-7,16c0,0.1,0.1,0.2,0.1,0.2C420.3,187.2,419.7,182.8,420.3,180.8z M444,174.8c0.5-0.4,0.7-0.8,0.9-1.5
			c-0.3-0.4-0.3-0.6-0.8-0.9c-0.3-0.5-0.5-0.7-1.2-0.8c-0.2,0.2-0.4,0.3-0.6,0.5c0.1,0.6,0.2,1.2,0.2,1.8
			C443,174.2,443.5,174.5,444,174.8z M382.8,174.9c0,0.1,0.1,0.2,0.1,0.4c0.3,0,0.7,0,1,0c0.5-0.3,0.5-0.4,0.6-1
			c-0.3-0.1-0.6-0.2-0.9-0.2c0-0.5,0-0.9,0-1.4c-0.3-0.4-0.5-0.4-1.2-0.4c-0.1,0.1-0.2,0.2-0.4,0.4c0,0.2,0,0.4,0,0.6
			c0.3,0.2,0.6,0.4,0.9,0.6C382.9,174.3,382.9,174.6,382.8,174.9z M386.5,173.7c-0.1,0.2-0.2,0.3-0.4,0.5c0,0.6,0,0.6,0.2,0.9
			c0.2,0.1,0.5,0.2,0.8,0.4c0.2-0.2,0.4-0.5,0.6-0.8c-0.1-0.5,0-0.4-0.2-0.6C387.1,173.9,386.8,173.8,386.5,173.7z M433.2,176.7
			c0.6-0.5,0.6-0.8,0.5-1.8c-0.4-0.1-0.8-0.2-1.1-0.4c-0.5,0.4-0.7,0.3-0.9,1c-0.1,0-0.2,0-0.2,0
			C431.9,176.1,432.2,176.6,433.2,176.7z M342,177c0-0.2,0.1-0.4,0.1-0.6c0-0.1-0.1-0.2-0.1-0.2c-0.4-0.3-0.7-0.4-1.5-0.4
			c-0.1,0.2-0.2,0.3-0.2,0.5C339.6,177.5,341.5,178.2,342,177z M366.1,181.5c1.2-0.7,1.5-4.5-0.6-4.5c-0.5,1-0.5,3.3-0.2,4.2
			C365.5,181.4,365.8,181.5,366.1,181.5z M382.7,181.5c0.8-0.9,1.8-1.5,2.6-2.4c0-0.2,0.1-0.5,0.1-0.8c-0.1-0.2-0.2-0.5-0.4-0.8
			c-0.2,0-0.3,0-0.5,0c-0.3,0.1-0.6,0.2-0.9,0.2c-0.3,0.6-0.2,0.8,0,1.5c-0.6,0.5-1.3,1-1.9,1.5c0,0.2,0.1,0.3,0.1,0.5
			C382.2,181.5,382.5,181.5,382.7,181.5z M387.1,179.7c0.1,0,0.2,0.1,0.2,0.1c0.1-0.7,0.2-1.4-0.2-1.9c-0.3,0.1-0.7,0.2-1,0.2
			c-0.2,0.4-0.3,0.8-0.5,1.1c0.2,0.1,0.3,0.2,0.5,0.4C386.5,179.9,386.6,179.8,387.1,179.7z M356.5,180.4c0.1,0,0.2-0.1,0.4-0.1
			c0.2-0.7,0.3-1.3,0.1-2c-0.4-0.1-0.8-0.2-1.2-0.2c-0.2,0.2-0.4,0.5-0.6,0.8C355.5,179.4,355.8,180,356.5,180.4z M347.6,180.3
			c0.2,0,0.4-0.1,0.6-0.1c1-0.6,0.7-1.8-0.6-1.9c-0.3,0.3-0.7,0.6-1,0.9C346.9,179.7,347.1,180,347.6,180.3z M428.2,181.8
			c-0.1,0.6-0.1,1,0.1,1.5c0.4,0,0.8,0,1.2,0c0.1,0,0.2-0.1,0.4-0.1c0.3-1.1-0.1-1.6-1.1-1.8C428.6,181.5,428.4,181.7,428.2,181.8z
			 M413.8,184.4c0.4,0.3,0.4,0.1,1,0c0.3-0.5,0.3-0.7,0.2-1.4c-0.4-0.2-0.8-0.3-1.2-0.5C413.2,183,412.8,184,413.8,184.4z
			 M448.5,189.4c0.9-1.5,1.8-2.9,2.8-4.4c0-0.4,0-0.8,0-1.1c-0.4-0.1-0.8-0.2-1.1-0.2c-1.3,1.1-2.2,3.6-2.8,5.2
			c0.1,0.2,0.2,0.3,0.4,0.5C448,189.4,448.2,189.4,448.5,189.4z M380.2,185.5c-0.4-0.5-0.6-0.8-1.2-1.1c-0.1,0.1-0.2,0.2-0.2,0.4
			c0,0.2-0.1,0.3-0.1,0.5c0.3,0.4,0.5,0.6,1,0.9c0.2-0.1,0.3-0.2,0.5-0.2C380.1,185.8,380.2,185.7,380.2,185.5z M394,185
			c-0.2,0-0.5-0.1-0.8-0.1c-0.2,0.2-0.4,0.3-0.6,0.5c0,0.2,0.1,0.5,0.1,0.8c0,0.1,0.1,0.2,0.1,0.4c0.4,0,0.8,0.1,1.2,0.1
			c0.3-0.4,0.4-0.5,0.5-1.1C394.4,185.4,394.2,185.2,394,185z M436.1,184.9c-0.5,0.7-0.6,1.1-0.4,2c0.7,0.4,0.9,0.3,1.6,0
			c0-0.3,0.1-0.7,0.1-1c-0.1-0.2-0.2-0.4-0.4-0.6C436.8,185.2,436.4,185,436.1,184.9z M341.8,190.2c0.1,0.1,0.2,0.2,0.2,0.2
			c0.5,0,0.9,0,1.4,0c0.4-0.2,0.3-0.2,0.5-0.6c-0.3-0.5-0.6-0.9-1.1-1.2c-0.1,0-0.2,0-0.4,0c-0.3,0.1-0.6,0.2-0.9,0.4
			C341.7,189.3,341.8,189.8,341.8,190.2z M357.5,189.8c-0.5,0-1-0.1-1.5-0.1c-0.2,0.3-0.3,0.6-0.5,0.9c0,0.2,0.1,0.5,0.1,0.8
			c0.4,0.3,0.5,0.4,1.2,0.5c0.1,0,0.2-0.1,0.2-0.1C357.5,191.1,357.6,190.8,357.5,189.8z M403.5,192.4c0.3,0.1,0.4,0,0.8-0.1
			c0-0.3,0.1-0.7,0.1-1c0,0,0-0.1,0-0.1c-0.3-0.1-0.7-0.2-1-0.4c-0.3,0.3-0.5,0.3-0.6,0.9C403,192.1,402.9,192.2,403.5,192.4z
			 M453.7,190.8c-0.2,0.2-0.4,0.5-0.6,0.8c0,0.2,0.1,0.4,0.1,0.6c0.2,0.2,0.3,0.3,0.5,0.5c0.3,0,0.6-0.1,0.9-0.1
			c0.1-0.3,0.2-0.7,0.4-1c-0.2-0.2-0.4-0.4-0.6-0.6C454.1,190.9,453.9,190.8,453.7,190.8z M384.2,199c0-0.2-0.1-0.4-0.1-0.6
			c-0.3-0.4-0.3-0.4-1-0.5c-0.2,0.2-0.5,0.4-0.8,0.6c0,0,0,0.1,0,0.1c0.3,0.3,0.6,0.6,0.9,0.9c0.2,0,0.4-0.1,0.6-0.1
			C384,199.3,384.1,199.2,384.2,199z M403.2,199c0.2,0.5,0.5,1.1,1.2,0.6c0.6-0.4,0.5-0.6,0.4-1.4c-0.3,0-0.6-0.1-0.9-0.1
			C403.7,198.5,403.5,198.8,403.2,199z M368.1,199.9c-0.2,0.4-0.1,0.4,0.1,0.9c0.2,0,0.5,0.1,0.8,0.1c0.4-0.4,0.8-0.8,1.2-1.1
			c0-0.2,0-0.3,0-0.5c-0.2-0.1-0.4-0.2-0.6-0.4C369.1,199.3,368.5,199.4,368.1,199.9z M399.5,202.4c0.6,0.1,0.7-0.3,0.6-1.1
			c-0.2-0.2-0.4-0.5-0.6-0.8c-0.5-0.1-0.9-0.2-1.4-0.2c-0.1,0.2-0.2,0.4-0.4,0.6c0,0.1-0.1,0.2-0.1,0.4
			C398,202,398.4,202.7,399.5,202.4z M392.3,203c0-0.2,0-0.3,0-0.5c-0.3-0.3-0.6-0.7-0.9-1c-0.2,0-0.4,0-0.6,0
			c-0.3,0.3-0.6,0.6-0.9,0.9c0,0.1-0.1,0.2-0.1,0.4c0.2,0.2,0.5,0.5,0.8,0.8c0.4,0,0.8,0,1.2,0C392,203.4,392.2,203.2,392.3,203z
			 M380.5,203.9c0.2,0,0.4,0,0.6,0c0.2-0.2,0.3-0.4,0.5-0.6c-0.2-0.6-0.3-1.2-0.8-1.5c-0.3,0-0.7-0.1-1-0.1
			c-0.2,0.2-0.5,0.4-0.8,0.6C379.3,203.3,379.7,203.6,380.5,203.9z M365.1,205.3c0.7,1.3,1.7,1.3,2.9,2.1c7,4.7,13.2,6.8,23.5,5.2
			c-0.2,0.8,0,1.1,0.4,1.6c0.2,0,0.5-0.1,0.8-0.1c0.3-0.5,0.4-1,0.2-1.8c1.5-0.9,3-0.8,4.6-1.2c3.3-1,12.9-4.9,13.5-8.1
			c-0.3-0.3-0.2-0.3-0.8-0.4c-0.8,0.7-5.9,4.5-7.1,4.1c-0.8-0.2-1.5-1.3-2.4-1.6c-0.3,0-0.6,0.1-0.9,0.1c-0.5,0.3-0.5,0.3-0.5,1
			c0.5,0.4,0.8,0.7,1.6,0.9c0.1,0.1,0.2,0.2,0.2,0.4c-0.9,0.4-1.8,0.8-2.6,1.1c-0.8-0.8-2-1.8-3.5-2.4c-0.2,0.1-0.5,0.2-0.8,0.4
			c0,0.2,0,0.4,0,0.6c-0.2,0.9,1.2,1.6,2.1,1.8c0,0.1,0,0.2,0,0.4c-0.5,0.2-1.1,0.3-1.6,0.5c-1.3-0.2-3.4-1.9-4.9-1.5
			c-0.1,0.1-0.2,0.2-0.4,0.2c0.1,1,0.8,1.5,0.8,2.1c-0.2,0.2-0.3,0.2-0.6,0.4c-0.9-0.3-0.8-1.1-1.6-1.5c0,0,0-0.1,0-0.1
			c0.2-0.1,0.5-0.2,0.8-0.4c0.1-0.4,0.2-0.8,0.2-1.1c-0.3-0.3-0.7-0.6-1-0.9c-0.4,0-0.8,0-1.1,0c-0.1,0.2-0.2,0.3-0.2,0.5
			c-0.3,0.6,0.1,1.2,0.8,1.4c-0.1,0.5,0,0.4-0.2,0.6c-0.4,0.1-0.8-0.6-1.5-0.9c-1-0.3-0.7,0.6-1.2,0.8c-0.5,0-1-0.1-1.5-0.1
			c-0.1,0-0.2,0.1-0.4,0.1c0,0.3,0,0.6,0,0.9c0.4,0.4,0.8,0.8,1.1,1.1c-0.5,0-0.9-0.1-1.4-0.1c-0.4-0.5-0.5-0.9-1.1-1.1
			c-1-0.5-1.5,0.2-2,0.6c-0.3,0-0.6-0.1-0.9-0.1c-0.2-1.2,0.1-2.3-1.6-2.4c-0.5,0.5-0.7,0.5-0.8,1.5c-4.3-1-6.6-4.9-10.6-5.4
			C365.3,204.8,365.2,205,365.1,205.3z M386.7,210.9c0.3,0.3,0.2,0.2,0.4,0.6c-0.1,0-0.2,0.1-0.4,0.1
			C386.7,211.4,386.7,211.2,386.7,210.9z M397.6,205.9c0.1,0,0.2-0.1,0.2-0.1c0.1-0.4,0.2-0.8,0.2-1.2c-0.7-0.8-1.1-1.3-2.2-1.6
			C394,204.2,396.3,205.5,397.6,205.9z M403.5,205.5c0.5,0,0.4,0.1,0.8-0.1c0.4-0.3,0.4-0.3,0.5-0.9c-0.4-0.6-0.5-0.9-1.1-1.2
			c-0.2,0-0.5-0.1-0.8-0.1c-0.2,0.2-0.4,0.3-0.6,0.5C402.3,204.7,402.8,205.1,403.5,205.5z M385.8,204.9c0.2,0.2,0.5,0.5,0.8,0.8
			c1.4,0.4,1.8-0.1,1.6-1.4c-0.5-0.3-0.7-0.6-1.4-0.8C386.3,204,386.1,204.2,385.8,204.9z M449.7,240c-0.4-0.6-6.6-2-8.1-2.1
			c-0.2-1.3-0.9-1.9-2.2-1.6c-0.5,0.7-0.5,1-0.1,1.8c-0.4,0.1-0.8,0.2-1.2,0.2c-0.7-0.4-1.1-0.9-1.5-1.5c0.4-0.1,0.8-0.2,1.2-0.2
			c0.2-0.7,0.1-0.9,0-1.8c-1.1-0.5-1.9-1-2.1-2.4c-0.5-0.3-0.8-0.5-1.8-0.5c-0.4,0.3-0.6,0.5-0.8,1.1c-1.1-0.5-1.7-0.4-2.4,0.4
			c-0.1-0.1-0.2-0.2-0.2-0.2c0,0,0-0.1,0-0.1c1-1.1,2.2,0.1,3-1.4c-0.5-0.9-0.5-1.5-1.8-1.6c0.1-0.2,0.2-0.3,0.2-0.5
			c1.4,0.5,1.9-0.3,2.6-0.1c0.6,0.2,0.9,0.6,2,0.6c0.2-0.3,0.3-0.6,0.5-0.9c-0.1-0.3-0.2-0.6-0.2-0.9c-1-0.4-2-0.8-3-1.2
			c0-0.3,0.1-0.7,0.1-1c0.7,0.2,1.5,0.4,2.2,0.6c0.2-0.3,0.4-0.6,0.6-0.9c-0.2-0.5-0.4-1-0.6-1.5c0.4-0.2,0.8-0.3,1.2-0.5
			c0.7,0.2,1.4,0.4,2.1,0.6c1.1-0.6,0.6-1.4,0.1-2.4c0.7-0.4,1.4-0.8,2.1-1.2c0.2-0.2,0.3-0.3,0.5-0.5c0.4,0.9,0.6,1.7,1.8,1.5
			c0.2,0,0.4,0,0.6,0c0.2-0.7,0.2-1,0-1.6c-0.6-0.4-0.8-0.5-1.8-0.4c0,0,0-0.1,0-0.1c3-4,7.8-9.3,7.8-15.6c-0.4-0.2-0.8-0.3-1.1-0.5
			c-1.3,2-1.2,4.9-2.4,7c-2.3,4.2-5.4,8.6-9.4,11.1c-1.6,1-3.6,1.2-5.2,2.1c0,0-0.1,0-0.1,0c0-0.1-0.1-0.2-0.1-0.2
			c0.9-0.3,0.9-0.5,0.8-1.6c-0.9-0.6-1.9-0.4-2.2,0.6c0.4,0.5,0.8,0.7,1.4,1.1c-1.2,1.1-4.5,1.8-6,2.4c0.7-0.7,1.3-1.4,2-2.1
			c0.8,0.4,0.9,0.6,2,0.5c0.4-0.8,0.3-1.5-0.4-1.9c0.3-0.9,2.1-4.2,2.8-5.1c0.6-1,1.6-0.4,1.9-2c-0.3-0.2-0.6-0.4-0.9-0.6
			c0.4-2.8,0.9-5.4-0.9-7.1c-0.2,0-0.5,0.1-0.8,0.1c-0.6,1.4,0.5,3.7,0.1,5.5c-0.6,2.8-1.9,4.8-2.9,7c-0.7,0.4-2.1-0.7-2.8,0.5
			c0,0.1-0.1,0.2-0.1,0.4c0.3,0.5,0.4,0.7,1,0.9c0,0.1,0.1,0.2,0.1,0.2c-1,1-2,1.9-3,2.9c-0.3-0.4-0.5-0.7-0.9-1
			c-0.2,0-0.4,0.1-0.6,0.1c-0.5,0.7-0.3,0.9,0.1,1.5c-0.4,0.3-0.8,0.6-1.1,0.9c-0.6-0.1-0.4,0-0.6-0.5c-1.2,0.4-1.5,1.3-2.1,2.1
			c-0.2,0-0.3,0-0.5,0c1.1-3.1,2.4-6.8,3.1-10.5c0-1.6,0.1-3.3,0.1-4.9c-0.4-0.3-0.7-0.6-1.4-0.8c-0.2,0.2-0.4,0.5-0.6,0.8
			c0.1,1.2,0.2,2.3,0.2,3.5c-0.7,4.3-2,8.1-3.4,11.4c-0.7,0.4-1.3-0.3-2.5,0c-0.1,0.2-0.2,0.3-0.4,0.5c0,0.2,0,0.4,0,0.6
			c0.4,0.2,0.8,0.4,1.2,0.6c-1.1,2.1-3,4.2-5.1,5.4c0-0.3-0.1-0.7-0.1-1c-0.6-0.5-0.5-0.6-0.4-1.5c0.4,0.1,0.5,0.5,1.2,0.4
			c0.6,0.2,0.9-0.2,1.1-0.8c-0.1-0.2-0.2-0.5-0.2-0.8c-0.8-0.2-0.9-0.3-1.6,0c0.4-3.1,2.6-9.6-0.5-11.1c0,0-0.1,0.1-0.1,0.1
			c-0.9,0.5-0.4,2.8-0.1,4.4c0.4,2.7-0.7,5.3-1.4,7.6c-1.1,3.4-3.8,6.2-4.9,9.4c-0.5,1.4,4.8,6.5,5.6,7.4c3.5,4,8.3,6.2,12.6,9.4
			c2,1.5,0.9,2.7,1.8,4.6c1.1,2.2,3.1,4.1,4.1,6.5c0.8,2,0.6,8.8,0.1,11.8c-0.2,1.3-0.7,4.1-0.1,5.2c0.3,0.4,0.5,0.4,1.2,0.4
			c0.6-1.7,0-3.3,0.4-5.5c0.4-2.2,1.2-9,0.5-11.4c-0.9-2.7-2.7-4.9-4-7.1c-0.8-1.4-1.2-3.6-1.8-4.9c-0.2-0.3,0.7-1.8,1-2.9
			c0.6,0.3,1.1,0.5,2.1,0.5c0.1,0,0.2-0.1,0.2-0.1c0.1-0.6-0.1-1.5,0.2-2c0.1-0.1,0.2-0.2,0.2-0.2c0.9,0.2,1.4,0.7,2.4,1
			c0.2-0.2,0.3-0.3,0.5-0.5c0.5,0.2,1,0.5,1.5,0.8c0,0,0,0.1,0,0.1c-1.1,0.2-1.2,0.6-1,1.8c0.5,0.2,1.2,0.6,1.9,0.2
			c0.7-0.4,0.6-1.4-0.1-1.8c0,0,0-0.1,0-0.1c5,1.4,6.8,5.6,7.2,11.5c0.2,2.2,0.2,5,1.4,6.5c0.2,0,0.3,0,0.5,0c0.2-0.3,0.5-0.7,0.8-1
			c-0.8-2.7-0.6-6.3-1.1-9.2c-1-5.7-4.7-8.4-9.6-10.2c0-0.2,0.1-0.3,0.1-0.5c0.6,0.1,0.8,0.3,1.4,0.1c0.9-0.5,0.6-1.3,1.5-1.9
			c0-0.6,0-0.8-0.2-1.1c-0.4-0.7-1.1-0.6-1.6-0.5c-0.7-0.7,0-1.2,0.8-1.5c0.5,1,2.3,1.8,3.8,1.8c0.2-0.2,0.3-0.5,0.5-0.8
			c0.1-0.4-0.1-0.8-0.4-1.2c0,0,0-0.1,0-0.1c4.5,0.3,7.1,3,9,5.9c0.7,1,0.7,1.9,1.8,2.6c0.2,0,0.4-0.1,0.6-0.1
			c0.2-0.2,0.4-0.4,0.6-0.6c-0.4-2.1-5.6-7.8-7.4-8.8c-0.7-0.2-1.4-0.4-2.1-0.6c-0.4-0.3-1-1.4-1.1-1.9c0.1-0.1,0.2-0.2,0.2-0.2
			c0.5-0.2,0.8-0.2,1.5-0.1c0.1-0.2,0.2-0.4,0.4-0.6c0.9-1.3-1.2-1.9-2.5-2c0,0,0-0.1,0-0.1c2.6-1.1,7.6,0.4,9.1,1.6
			c1.5,1.3,1.6,4.2,3.8,4.8c0.3-0.2,0.6-0.3,0.9-0.5c0-0.2,0.1-0.4,0.1-0.6c-0.9-1.2-1.8-2.4-2.6-3.6C450,241,450,240.6,449.7,240z
			 M434.2,225c0,0.2,0,0.4,0,0.6c-0.1,0-0.2,0.1-0.2,0.1c-0.1-0.2-0.2-0.5-0.4-0.8C433.8,225,434,225,434.2,225z M432.3,227.2
			c0,0,0,0.1,0,0.1c-0.8,0-1.2-0.5-1.8-1C431.6,226.4,431.6,226.9,432.3,227.2z M430.6,231.7c0,0,0.1,0,0.1,0c0,0.1,0.1,0.2,0.1,0.4
			c-0.1,0-0.2,0.1-0.2,0.1C430.6,232,430.6,231.8,430.6,231.7z M434,234.3c1.1,0.1,1.3,0.2,1.9-0.4c0,0,0.1,0,0.1,0
			c-0.4,0.8-0.8,0.7-0.8,1.8c-0.8-0.2-0.8-0.6-1.6-0.9c0-0.3-0.1-0.6-0.1-0.9C433.6,234,433.8,234.2,434,234.3z M427.1,227.4
			c0.4-0.1,0.8-0.2,1.1-0.4c0,0.3-0.1,0.7-0.1,1c0,0-0.1,0.1-0.1,0.1c-0.3,0-0.6-0.1-0.9-0.1C427.1,227.8,427.1,227.6,427.1,227.4z
			 M424.6,231.4c-0.1,0-0.2,0.1-0.4,0.1c-0.1-0.1-0.2-0.2-0.4-0.2c0-0.1,0.1-0.2,0.1-0.2c0.1,0,0.2,0,0.4,0
			C424.4,231.2,424.5,231.3,424.6,231.4z M423.7,228.9c0,0,0.1,0,0.1,0c0,0.1,0.1,0.2,0.1,0.2c-0.1,0-0.2,0.1-0.2,0.1
			c0,0-0.1-0.1-0.1-0.1C423.6,229.1,423.7,229,423.7,228.9z M408.3,235.4c0.3,0,0.6,0,0.9,0c-0.5,0.8-1.5,1.7-2.4,2.1
			C407.3,236.8,407.8,236.1,408.3,235.4z M405.5,241.7c2.2-2.5,5.1-4,7.5-6.2c0.1,0.1,0.2,0.2,0.2,0.2c-0.7,2.2-2.8,4.9-2.2,8.1
			c0.7,4,3,6,5,8.6C412.7,250.8,405.9,245.2,405.5,241.7z M421.1,256.3c-0.2-0.1-0.4-0.2-0.6-0.4c-0.1-0.1-0.2-0.2-0.2-0.4
			c0.5-0.2,1-0.4,1.5-0.6C421.9,255.3,421.3,255.6,421.1,256.3z M424.7,254.9c-0.1-0.2-0.2-0.5-0.4-0.8c0.1,0,0.2,0,0.4,0
			C424.7,254.4,424.7,254.7,424.7,254.9z M424.7,254c0-0.1,0.1-0.2,0.1-0.2c0,0,0.1,0,0.1,0C424.9,253.9,424.8,254,424.7,254z
			 M419.6,251.5c-6.9-0.6-8.3-12-4-16.6c0.8-0.3,1.7-0.6,2.5-0.9c0.1-0.1,0.2-0.2,0.4-0.2c-0.1-0.2-0.2-0.3-0.2-0.5
			c4.6-0.1,9.3,2.6,9.8,6.8C428.6,245.3,424.7,252,419.6,251.5z M431.3,250.3c-0.2,0-0.5-0.1-0.8-0.1c0-0.1,0.1-0.2,0.1-0.2
			c0.1,0.1,0.2,0.2,0.4,0.2c0.1,0,0.2,0,0.2,0C431.3,250.2,431.3,250.3,431.3,250.3z M427.1,250.2c0,0-0.1,0-0.1,0
			c1.3-2.8,4.2-7,3-11.4c-0.5-1.7-1.8-2.9-2.4-4.4c3.5,1.2,5.8,3,8.5,4.8C435.7,242.6,429.4,248.6,427.1,250.2z M437.7,243.4
			c-0.2,0.1-0.4,0.2-0.6,0.4c-0.1-0.2-0.2-0.5-0.2-0.8c0.3,0.1,0.6,0.2,0.9,0.2C437.7,243.3,437.7,243.4,437.7,243.4z M373.2,206.2
			c0.2,0,0.3,0,0.5,0c0.3-0.4,0.5-0.9,0.2-1.5c-0.3-0.6-0.7-0.8-1.6-0.9c-0.2,0.2-0.5,0.3-0.8,0.5c0,0.2,0.1,0.4,0.1,0.6
			C372,205.7,372.6,205.8,373.2,206.2z M394.6,205.5c-0.2-0.3-0.5-0.6-0.8-0.9c-0.3-0.3-0.6-0.3-1.2-0.2c-1.1,0.9-0.9,2-2.1,2.9
			c0,0.1,0.1,0.2,0.1,0.4c0.4,0.6,0.9,0.8,1.8,0.9c0.1,0,0.2-0.1,0.4-0.1c0.3-0.7,0.2-1.2,0-2c0.5,0,1,0.1,1.5,0.1
			C394.3,206.2,394.5,205.9,394.6,205.5z M381.7,207.7c0.1-0.2,0.2-0.4,0.4-0.6c0.1-0.1,0.2-0.2,0.2-0.2c-0.6-1.1-0.9-1.2-2.2-1.4
			c-0.2,0.2-0.4,0.4-0.6,0.6c0,0.2,0,0.4,0,0.6c0.5,0.5,0.9,0.8,1.6,1.1C381.3,207.8,381.5,207.7,381.7,207.7z M385.5,206.7
			c-0.3-0.3-0.7-0.6-1-0.9c-0.2,0-0.4-0.1-0.6-0.1c-0.1,0-0.2,0.1-0.2,0.1c-0.3,0.4-0.4,0.5-0.4,1.2c0.6,0.5,1,0.9,1.9,0.8
			C385.3,207.4,385.4,207.4,385.5,206.7z M329.3,208.4c-0.1,0-0.2,0-0.2,0c0,0.1-0.1,0.2-0.1,0.4
			C329.4,208.6,329.1,208.9,329.3,208.4z M379.8,244.4c-0.2-3.2-6.3-9.8-7.8-13.4c-2-4.9-0.2-9.6,0-14.5c0,0-0.1-0.1-0.1-0.1
			c-0.1,0-0.2,0-0.4,0c-2.2,2.9-2.9,9.1-1.8,13.1c-1-0.2-2-0.7-2.5-1.4c-0.1,0-0.2,0-0.2,0c0.5-0.5,0.9-0.6,1.2-1.2
			c-0.3-1-0.8-0.7-0.9-2c-0.5-0.4-1-0.5-1.8-0.8c-0.3,0.2-0.7,0.5-1,0.8c0.1,0.1,0.1,1.1,0.2,1.4c-2.6-1.8-4.7-5.6-5.5-9.1
			c-0.2-1.8-0.4-3.6-0.6-5.4c0-0.1,0-0.2,0-0.2c-0.3,0-0.6,0-0.9,0c-0.2,0.2-0.3,0.4-0.5,0.6c-0.8,4.6,1.6,9.7,3.6,13
			c-0.9,0.2-0.9,0.4-1.4,1c0,0.2,0,0.4,0,0.6c0.2,0.2,0.4,0.3,0.6,0.5c0.6,0,1.2,0,1.8,0c0-0.3,0.1-0.6,0.1-0.9
			c0.4,0.3,0.8,0.7,1.1,1c0,0,0,0.1,0,0.1c-2.8,0.8-4.8,0-6.9-1.1c-5.5-2.8-7.7-6-9.6-12.4c-0.5-1.7-0.5-3.2-1.1-4.6
			c-0.3,0-0.6,0.1-0.9,0.1c-1.7,3.7,3.5,13,5.2,15.2c-0.4,0.5-0.8,0.6-0.6,1.5c-3.2-0.1-5.2-1.7-8-2.1c0-0.1-0.1-0.2-0.1-0.2
			c0.7-0.1,0.7-0.2,1-0.8c0-1.1-1-1.7-1.9-1.1c-0.5,0.3-0.7,0.6-0.5,1.2c-5.8-1.4-9.9-7.2-10.1-13.9c-0.2-0.1-0.3-0.2-0.5-0.2
			c-0.2,0.2-0.4,0.4-0.6,0.6c1.1,11.4,7.1,15,17.2,17.6c0.1,0.4,0.2,0.8,0.4,1.2c-1.2,0.6-1.8,1.8-2.6,2c-0.8,0.2-2-0.7-2.9-0.2
			c-0.2,0.2-0.5,0.4-0.8,0.6c0,0.1,0,0.2,0,0.4c0.3,0.4,0.5,0.4,0.6,1.1c1.6,0.4,2.6,0.6,3.8-0.1c0.5,0.4,0.5,0.8,0.6,1.5
			c0,0,0,0.1,0,0.1c-0.8,0-0.9,0-1.6,0.1c-0.5,1-0.1,1.7,0.5,2.2c0,0,0,0.1,0,0.1c-0.5,0.2-0.9,0.5-1.4,0.8
			c-0.1,0.3-0.2,0.6-0.2,0.9c0.4,0.4,0.6,0.6,1.4,0.6c0,0.5-0.1,0.9-0.1,1.4c-2.7-0.8-4.3,0.1-6.8,0.8c-0.3-0.7-0.7-1.1-1.2-1.5
			c-2.2-0.1-1.4,1.7-0.6,2.5c-1,0.9-2.4,1.5-2.5,3.2c0.2,0,0.5,0.1,0.8,0.1c1.6-1.6,4.1-3.5,6.9-3.8c-0.4,0.8-0.2,1.1,0,2
			c0.7,0.3,1.1,0.7,2,0.5c0.2-0.6,0.4-1,0.2-1.8c0.2,0.2,0.5,0.3,0.8,0.5c0.2,0.9,0,1.6,0.4,2.4c-0.6,0.6-0.9,0.6-0.9,1.9
			c0.6,0.7,1.3,1.1,2.1,1.6c-0.3,0.1-0.7,0.2-1,0.2c-0.2,0.4-0.3,0.8-0.5,1.2c0.4,0.4,0.8,0.8,1.1,1.2c-2.1,1.5-4.9,4.6-5.1,7.8
			c0,0.4,0.4,1.6,0.4,2.4c0.5,0.1,0.9,0.2,1.4,0.4c1.3-3.8,0-6.8,4.1-8.6c0.5-0.4,1.1,0.5,2.2,0.4c0.5-0.7,0.6-1,0.1-1.8
			c0,0,0-0.1,0-0.1c0.7-0.1,1.4-0.2,2.1-0.4c0.2,0.8,0.5,1,1.1,1.2c0.2-0.1,0.5-0.2,0.8-0.2c0.4-0.3,0.4-0.3,0.2-0.9
			c0.3-0.2,0.5-0.3,1.1-0.2c-0.6,0.9-1.5,1.5-2,2.4c0.4,0.9,0.7,1.3,2,1.2c0.3-0.3,0.3-0.4,0.4-1c0.1,0,0.2-0.1,0.2-0.1
			c0.3,0.6,0.4,1.1,1.1,1.4c0,0,0,0.1,0,0.1c-0.7,0.6-1.8,1.7-2.2,2.5c0.3,0.3,0.2,0.3,0.8,0.4c-1.1,1-2.3,1.9-3.4,2.9
			c-2.7,3.6-4.7,8.9-4.6,14.9c0.2,0.1,0.5,0.2,0.8,0.2c0.7-1.2,0.4-2.9,0.9-4.5c1.4-4.7,4-11.2,8.6-12.6c0.4-0.3,0.9,0.1,1.5,0.4
			c0.8-0.4,1.2-0.9,0.8-1.9c0.1,0,0.2-0.1,0.4-0.1c1-0.7,1.9,0.8,2.6,1.2c0.3,0,0.7-0.1,1-0.1c0.3-0.5,0.4-0.7,0.2-1.4
			c1.3,0.1,1.5,0.6,3,0.6c-0.5,0.8-0.9,1.6-1.4,2.4c-0.1,0-0.2,0.1-0.2,0.1c-0.3-0.4-0.6-0.8-0.9-1.2c-0.3,0-0.7,0-1,0
			c-0.2,0.2-0.5,0.5-0.8,0.8c0.1,0.3,0.2,0.7,0.2,1c0.6,0.4,1.1,0.7,2.1,0.5c-0.2,0.7-0.5,1.4-0.8,2.1c-0.9-0.3-1-0.5-2-0.2
			c-0.1,0-0.2,0.1-0.2,0.1c0.1,0.5,0.2,1,0.2,1.5c0.5,0.1,0.9,0.2,1.4,0.2c-0.2,2.5-1.2,4.9-1.6,7.2c-0.2,0.9,0.4,2.4,0.1,3.8
			c-1.3,5.3-3.8,13.2-2.5,19.4c0.6,2.9,0.4,9.4,2.2,10.2c0.2-0.1,0.3-0.2,0.5-0.2c0.4-1.9-0.5-4.6-0.9-6.5
			c-0.8-4.3-0.7-9.2-0.1-13.5c0.5-3.6,1.8-6.1,2.6-9c0-1.5-0.1-3.1-0.1-4.6c0.6-3.5,1.6-8.2,3-10.9c2.2-4.4,6.6-7.2,9.9-10.5
			C376.6,248.5,377.8,246.1,379.8,244.4z M344.8,246.2c-0.2-0.2-0.4-0.5-0.6-0.8c0.5-0.1,0.5,0,0.8-0.2
			C345.3,245.4,344.9,245.6,344.8,246.2z M344.2,238.4c0.2-0.5,0.4-1,0.6-1.5c0.2,0.2,0.3,0.5,0.4,0.9
			C344.9,238,344.5,238.2,344.2,238.4z M352,226.2c0,0,0.1,0,0.1,0c0,0.1,0.1,0.2,0.1,0.2c-0.1,0-0.2,0-0.4,0
			C351.9,226.3,351.9,226.3,352,226.2z M351.3,233.7c-0.3,0.2-0.7,0.4-1,0.6c0,0-0.1,0-0.1,0c0.2-0.5,0.5-0.9,0.8-1.4
			C351.1,233.2,351.2,233.4,351.3,233.7z M350.7,227.9c-0.4,0.4-1.2,0.5-1.8,0C349.5,227.9,350.1,227.9,350.7,227.9z M348,231.9
			c0.1-0.1,0.2-0.2,0.2-0.4C348.1,231.8,348.4,231.7,348,231.9z M348.8,235c0,0.1,0,0.2,0,0.2c-0.2,0-0.4,0-0.6,0
			c-0.1-0.2-0.2-0.4-0.2-0.6C348.3,234.8,348.5,234.9,348.8,235z M348.3,229.4c0,0,0,0.1,0,0.1c-0.1,0.1-0.2,0.2-0.2,0.2
			c-0.1-0.1-0.2-0.2-0.2-0.4C348,229.4,348.2,229.4,348.3,229.4z M347.1,231.8c0.1,0,0.2,0,0.2,0c-0.2,0.2-0.5,0.3-0.8,0.5
			C346.8,232.1,346.9,232,347.1,231.8z M346.6,250.2c0.5-0.7,1.3-0.5,1.1-1.6c0.4,0,0.8,0.1,1.1,0.1
			C348,249.3,347.7,249.8,346.6,250.2z M347.7,248.4c-0.2-0.2-0.4-0.4-0.6-0.6c0.1-0.6,0.3-0.9,0.8-1.1c0.2-0.1,0.5-0.2,0.8-0.2
			c0.1,0,0.2,0,0.4,0C348.2,247.1,347.5,247,347.7,248.4z M346.8,244c0-0.1,0-0.2,0-0.4c0.3,0.2,0.1,0,0.2,0.4
			C347,244,346.9,244,346.8,244z M351.5,249.4c-0.3-0.4-0.5-0.5-0.5-1c0.6,0.2,0.7,0.2,0.9,0.8c0.1,0,0.2,0,0.2,0
			C351.8,249.4,351.9,249.3,351.5,249.4z M346.3,240.2c0-0.1,0-0.2,0-0.4c1.7-1.9,4-2.5,6-4.1c-0.2,1.8-0.4,3.6-0.6,5.4
			c-0.2,2,0.6,4.1,1,6C350.3,245.5,347.9,242.6,346.3,240.2z M367,228c-0.4-0.2-0.1,0-0.4-0.2C366.7,227.9,366.8,228,367,228z
			 M365.6,226.4c-0.1,0.1-0.2,0.2-0.4,0.4c0-0.1-0.1-0.2-0.1-0.4C365.3,226.4,365.4,226.4,365.6,226.4z M358.7,230.4
			c0,0,0.1,0,0.1,0c-0.1,0.1-0.2,0.2-0.2,0.2C358.6,230.6,358.7,230.5,358.7,230.4z M355.7,228.8c0.2,0,0.5,0,0.8,0
			c-0.2,0.1-0.5,0.2-0.8,0.4C355.7,229,355.7,228.9,355.7,228.8z M354.1,227.5c0,0,0,0.1,0,0.1c-0.6-0.2-0.3,0.1-0.5-0.4
			C353.8,227.4,353.9,227.5,354.1,227.5z M354.3,230.2c0.1,0.5,0.2,0.9,0.4,1.4c0,0,0,0.1,0,0.1c-0.1,0-0.2,0.1-0.2,0.1
			c-0.2-1-0.5-1.2-1-1.9C353.8,230,354,230.1,354.3,230.2z M355.5,255.2c0.6,0.2,0.7,0.3,1,0.8C356.1,255.7,355.8,255.4,355.5,255.2
			z M356.5,253.2c-0.4-0.2-0.8-0.5-1.2-0.8c0.1-0.1,0.2-0.2,0.2-0.2c0.2,0,0.3,0,0.5,0c0.2,0.6,0,0.5,0.6,0.6
			C356.5,252.9,356.5,253,356.5,253.2z M359.5,254.5c0-0.1-0.1-0.2-0.1-0.2C359.6,254.5,359.4,254.4,359.5,254.5z M366.3,256.2
			c-0.2,0.3-0.4,0.6-0.6,0.9c-0.1,0-0.2,0.1-0.2,0.1c0-0.4-0.1-0.8-0.1-1.1c0.3,0,0.7,0,1,0C366.3,256.1,366.3,256.1,366.3,256.2z
			 M368.2,253.8c0.1-0.2,0.2-0.3,0.2-0.5c0,0,0.1,0,0.1,0C368.4,253.8,368.6,253.6,368.2,253.8z M363.2,252.7
			c-8.1,1.3-12-12.6-8-18.5c1.2-1.9,4.6-0.7,6.4-1.5c3.2,0,4.9,1,7,2.1c1.7,1,1.7,4.5,2.1,6.9C371.7,247.7,368.3,251.8,363.2,252.7z
			 M372.1,248.4c0.5-3.5,1.2-7.5,0-11.4c2.1,1.3,4.8,4.1,5.1,7C375.1,244.8,373.7,247.1,372.1,248.4z M441.7,213.4
			c0.8-0.4,1.2-0.2,1.2-1.4c-0.4-0.4-0.4-0.6-1.4-0.6c-0.2,0.1-0.3,0.2-0.5,0.2c-0.1,0.3-0.2,0.6-0.2,0.9c0.1,0.2,0.2,0.3,0.4,0.5
			C441.4,213.2,441.5,213.3,441.7,213.4z M451.3,212.2c-0.2,0.4-0.3,0.8-0.5,1.2c0,0.1,0.1,0.2,0.1,0.4c0.6,0.5,1,0.8,2.1,0.8
			c0.2-0.3,0.3-0.6,0.5-0.9C453,212.8,452.8,212.2,451.3,212.2z M361.3,215.2c0.2,0.2,0.5,0.4,0.8,0.6c0.3,0,0.7,0.1,1,0.1
			c0.5-0.4,0.8-0.8,0.6-1.1c-0.3-0.6-0.8-0.7-1.6-0.8c-0.2,0.2-0.4,0.5-0.6,0.8C361.4,214.9,361.4,215,361.3,215.2z M390.7,215.5
			c0.1,0,0.2-0.1,0.2-0.1c0-0.3,0-0.6,0-0.9c-0.1-0.1-0.2-0.2-0.4-0.2c-0.3,0-0.7-0.1-1-0.1c-0.3,0.5-0.3,0.4-0.2,1.1
			C389.8,215.6,390,215.7,390.7,215.5z M405.7,214.5c-0.1,0.2-0.2,0.4-0.4,0.6c0.2,0.2,0.3,0.4,0.5,0.6c0.6,0,1.2,0,1.8,0
			c0.1-0.1,0.2-0.2,0.4-0.4c0-0.2,0-0.3,0-0.5c-0.5-0.4-0.7-0.5-1.8-0.5C406,214.5,405.9,214.5,405.7,214.5z M376.7,216.9
			c0.1-0.4,0.2-0.8,0.2-1.1c-0.4-0.1-0.8-0.2-1.2-0.2c-0.2,0.1-0.3,0.2-0.5,0.2c0,0.2-0.1,0.5-0.1,0.8c0,0.1,0.1,0.2,0.1,0.2
			C375.8,217,376,217,376.7,216.9z M399.3,216.7c0.1,0.3,0.2,0.6,0.4,0.9c0.2,0,0.5,0.1,0.8,0.1c0.2-0.2,0.5-0.5,0.8-0.8
			c0-0.3,0-0.6,0-0.9c-0.4-0.1-0.8-0.2-1.1-0.2C399.7,216.1,399.6,216.2,399.3,216.7z M425,215.9c-0.2,0-0.4-0.1-0.6-0.1
			c-0.3,0.2-0.6,0.5-0.9,0.8c-0.1,0.8,0.3,1.1,0.8,1.6c0.2,0,0.4,0.1,0.6,0.1c0.2-0.1,0.5-0.2,0.8-0.4
			C426,217,425.8,216.3,425,215.9z M448.7,218.4c0.1-0.2,0.2-0.4,0.4-0.6c-0.1-0.8-0.3-0.8-0.5-1.4c-0.3,0-0.6,0-0.9,0
			c-0.1,0-0.2,0.1-0.2,0.1c-0.3,0.4-0.4,0.5-0.4,1.2c0.3,0.2,0.7,0.4,1,0.6C448.3,218.4,448.5,218.4,448.7,218.4z M341.5,217.4
			c-0.2,0.3-0.2,0.4-0.2,1c0.4,0.6,0.6,0.8,1.5,0.9c0.4-0.3,0.8-0.7,1.1-1c0-0.2,0-0.3,0-0.5c-0.6-0.4-0.9-0.6-1.9-0.6
			C341.8,217.3,341.6,217.3,341.5,217.4z M328.5,217.4c-0.3,0.4-0.5,0.6-0.8,1.1c0.1,0.3,0.2,0.7,0.2,1c0.5,0.3,1.2,0.7,1.9,0.5
			C331.4,219.2,329.6,217.6,328.5,217.4z M374.2,217.5c-0.1,0.3-0.2,0.6-0.2,0.9c0.1,0.2,0.2,0.4,0.4,0.6c0.7,0.2,1.2,0.2,2.1,0.1
			c0.1-0.1,0.2-0.2,0.4-0.4c0-0.3-0.1-0.7-0.1-1c-0.7-0.1-1.5-0.2-2.2-0.4C374.4,217.5,374.3,217.5,374.2,217.5z M435.6,218.7
			c0.1,0.4,0.2,0.8,0.2,1.1c0.5,0.2,1,0.4,1.5,0.6c0.2-0.2,0.3-0.4,0.5-0.6c0.4-0.9-0.6-1.4-1.4-1.5
			C436.2,218.4,435.9,218.5,435.6,218.7z M377.8,223c-0.1,0.4-0.2,0.8-0.2,1.1c4.3,4.6,10.9,3.2,16.2,1.1c2.5-0.9,6-1.9,6.4-4.8
			c0,0,0-0.1,0-0.1c-0.2,0-0.4-0.1-0.6-0.1c-0.5,0.6-1.1,1.2-2,1.4c-0.4-0.8-1.2-0.9-1.8-1.5c-0.5,0.1-1,0.2-1.5,0.2
			c-0.5,0.8-1.1,1.2-1.5,1.9c0,0.1-0.1,0.2-0.1,0.4c0.4,0.4,0.6,0.6,1.1,0.9c-0.7,0.2-1.3,0.5-2,0.8c0.2-0.8-0.2-1-0.4-1.8
			c0.9,0,1-0.1,1.2-0.8c-0.4-0.9-0.7-1.1-1.5-1.5c-0.3,0.1-0.7,0.2-1,0.4c0-0.4-0.1-0.8-0.1-1.2c-0.6-0.4-0.9-0.7-1.8-0.8
			c-0.5,0.6-0.9,1.2-0.1,1.9c0.7,0.5,1.3,0.4,2,0.2c-0.3,1,0.3,1.2,1,1.6c-0.8,0.5-2.4,0.6-2.2,1.8c0.1,0.4-0.1,0.2,0.4,0.5
			c-0.1,0.2-0.2,0.4-0.2,0.6c-0.2,0-0.3,0-0.5,0c0-1.7-1.4-3.6-3-3.8c0,0-0.1,0-0.1,0c-0.3,0.4-0.4,0.5-0.4,1.2
			c0.9,0.8,1.3,1.7,2,2.6c-0.5,0.3-1.6-0.1-2.4,0.1c0.5-1.5,0.1-2.3-1.8-2.4c0.3-0.6,0.6-0.8,0.8-1.6c-0.5-0.3-0.9-0.7-1.4-1
			c-0.3,0.1-0.7,0.2-1,0.2c-0.1,0-0.2,0-0.2,0c-0.2,0.2-0.3,0.4-0.5,0.6c0.1,1.1,0.9,1.7,2,1.8c-0.3,0.5-0.5,0.7-0.5,1.6
			C380.2,224.3,380,222.6,377.8,223z M379.5,221.7c0.7-0.6,1.5-1,2-1.9c0-0.1-0.1-0.2-0.1-0.4c-0.4-0.1-0.8-0.2-1.2-0.2
			c-0.5,0.5-1,0.9-1.5,1.4c0,0.2,0.1,0.4,0.1,0.6c0.2,0.1,0.3,0.2,0.5,0.2C379.3,221.5,379.4,221.6,379.5,221.7z M356.3,219.5
			c-0.3,0.3-0.7,0.6-1,0.9c0.1,0.7,0.4,2.2,1.8,1.6c0.3-0.1,0.7-1.5,0.5-1.8C357.3,219.8,357,219.7,356.3,219.5z M450.2,220.2
			c-0.7-0.5-0.8-0.6-1.8-0.6c-0.1,0.2-0.2,0.3-0.4,0.5c0,0.9,0.1,0.9,0.5,1.4c0.5,0,1-0.1,1.5-0.1
			C450.1,220.9,450.2,220.5,450.2,220.2z M367.1,221.4c0.1-0.8,0.1-1.1-0.6-1.4c-0.3,0-0.6-0.1-0.9-0.1c-0.2,0.1-0.4,0.2-0.6,0.4
			c0,0.2-0.1,0.4-0.1,0.6c0.1,0.2,0.2,0.5,0.4,0.8C366,221.8,366.4,221.7,367.1,221.4z M292,222.2c0.2,0.3,0.4,0.6,0.6,0.9
			c0.2,0,0.4,0,0.6,0c0.2-0.2,0.5-0.5,0.8-0.8c0-0.2,0-0.3,0-0.5c-0.5-0.3-0.6-0.5-1.4-0.5C292.4,221.6,292.2,221.9,292,222.2z
			 M423.2,221.7c-0.4,0.5-0.6,0.5-0.6,1.4c0.3,0.2,0.7,0.4,1,0.6c0.4-0.1,0.8-0.2,1.2-0.2c0.1-0.5,0.1-0.8-0.1-1.2
			C424.4,221.7,424,221.6,423.2,221.7z M298.7,222.5c-0.3,0.2-0.6,0.3-0.9,0.5c0,1,0,1.2,0.8,1.4c0.1,0,0.2,0,0.4,0
			c0.5-0.3,0.7-0.7,0.9-1.2c-0.1-0.2-0.2-0.4-0.4-0.6C299.2,222.5,299,222.5,298.7,222.5z M444,225c0.1-0.1,0.2-0.2,0.2-0.2
			c-0.1-0.5-0.2-1.1-0.4-1.6c-0.5,0-1-0.1-1.5-0.1c-0.1,0-0.2,0.1-0.2,0.1c-0.2,0.4-0.3,0.7-0.2,1.4c0.5,0.3,0.9,0.5,1.6,0.8
			C443.9,225.2,443.7,225.3,444,225z M348.1,225.3c0.2-0.2,0.3-0.4,0.5-0.6c0-0.3,0-0.7,0-1c-0.7-0.1-1.3-0.2-2-0.4
			c-0.2,0.3-0.5,0.6-0.8,0.9c0,0.1-0.1,0.2-0.1,0.4c0.2,0.2,0.4,0.5,0.6,0.8c0.4,0.1,0.8,0.2,1.1,0.2
			C347.7,225.5,347.9,225.4,348.1,225.3z M414,223.8c-0.4-0.3-0.7-0.4-1.4-0.5c-0.3,0.3-0.6,0.6-0.9,0.9c0,0.2,0,0.4,0,0.6
			c0.5,0.3,1,0.5,1.9,0.5C414,224.8,414.1,224.6,414,223.8z M450.3,223.9c-0.4,0.5-0.5,0.5-0.5,1.4c0.6,0.5,1,0.8,2,0.9
			c0.1,0,0.2-0.1,0.4-0.1C452.9,224.7,451.9,223.8,450.3,223.9z M356.2,224.7c-0.1,0.2-0.2,0.5-0.2,0.8c0.2,0.3,0.5,0.7,0.8,1
			c0.5-0.1,0.9-0.2,1.4-0.2c0.1-0.2,0.2-0.4,0.4-0.6c-0.1-0.9-0.8-1.2-1.6-1.2C356.6,224.4,356.4,224.5,356.2,224.7z M447.8,225
			c-0.6-0.2-1.2-0.4-1.8-0.6c-0.3,0.2-0.4,0.2-0.6,0.5c0,0.3-0.1,0.6-0.1,0.9c0.2,0.1,0.3,0.2,0.5,0.4c0.4,0.4,0.8,0.5,1.5,0.6
			C447.8,226.4,447.9,226,447.8,225z M332.1,228c0.7-1,0.1-2.2-1.2-2.2c-0.6,0.4-1.3,0.8-0.6,1.6c0.2,0.4,0.6,0.4,0.9,0.8
			C331.4,228.1,331.8,228.1,332.1,228z M339.2,228.3c0.3-0.2,0.7-0.4,1-0.6c-0.1-0.3-0.2-0.7-0.2-1c-0.3-0.6-0.5-0.8-1.2-0.9
			c-0.2,0-0.3,0.1-0.5,0.1c-0.2,0.3-0.3,0.3-0.4,0.9C338.2,227.6,338.5,227.9,339.2,228.3z M440.7,228.2c0.2-0.3,0.3-0.7,0.5-1
			c-0.3-0.5-0.3-0.8-0.9-1.1c-0.4,0-0.8-0.1-1.2-0.1c-0.1,0.2-0.2,0.3-0.4,0.5c0,0.2-0.1,0.3-0.1,0.5
			C439.2,227.9,439.5,228,440.7,228.2z M298.3,226.5c-0.2,0.1-0.3,0.2-0.5,0.2c-0.4,0.7-0.2,1.3,0.5,1.6c0.2,0,0.5,0.1,0.8,0.1
			c0.1-0.3,0.2-0.6,0.4-0.9c0.1-0.4-0.1-0.6-0.2-1C298.9,226.6,298.6,226.6,298.3,226.5z M476.5,226.9c-0.2,0.1-0.3,0.2-0.5,0.2
			c-0.1,0-0.2,0.1-0.4,0.1c0,0.3-0.1,0.7-0.1,1c0.2,0.2,0.5,0.5,0.8,0.8c0.3,0.1,0.6,0.2,0.9,0.2c0,0,0.1,0,0.1,0
			c0.3-0.6,0.2-1.1,0.1-1.9C477,227.3,476.8,227.1,476.5,226.9z M344.5,229.3c0.2-0.8-0.1-1.3-0.4-1.9c-0.6-0.3-1.5-0.3-2.5-0.2
			c-0.2,0.1-0.4,0.2-0.6,0.4c0,0.4-0.1,0.8-0.1,1.1c0.4,0.3,0.8,0.7,1.2,1C342.9,229.5,343.7,229.4,344.5,229.3z M445.1,229.2
			c0-0.4-0.1-0.8-0.1-1.2c-0.3-0.2-0.6-0.3-0.9-0.5c-0.3,0-0.7-0.1-1-0.1c-0.3,0.4-0.5,0.6-0.6,1.2c0.2,0.3,0.5,0.6,0.8,0.9
			c0.5,0.1,1,0.2,1.5,0.2C444.8,229.5,445,229.3,445.1,229.2z M388.5,227.5c-0.2,0.3-0.3,0.6-0.5,0.9c0.2,0.2,0.4,0.4,0.6,0.6
			c0.4-0.1,0.8-0.2,1.1-0.4c0-0.2-0.1-0.4-0.1-0.6c0-0.1-0.1-0.2-0.1-0.4C389.1,227.6,388.8,227.6,388.5,227.5z M403,229.3
			c0.3-0.8,0.1-1.4-0.6-1.6c-0.2,0-0.3,0.1-0.5,0.1c-0.2,0.4-0.3,0.6-0.1,1C402.1,229.4,402.2,229.3,403,229.3z M397.3,228.3
			c-0.2,0.2-0.4,0.5-0.6,0.8c0.1,0.2,0.2,0.5,0.2,0.8c0.2,0.3,0.3,0.3,0.6,0.5c0.2,0,0.3,0,0.5,0c0.2-0.7,0.4-1.4,0.6-2.1
			c-0.1,0-0.2,0-0.2,0C398,228.7,398.1,228.4,397.3,228.3z M379.6,229.8c0.3-0.4,0.2-0.9,0.1-1.5c-0.2,0-0.3,0-0.5,0
			c-0.2,0.1-0.5,0.2-0.8,0.4c-0.1,0.2-0.2,0.5-0.2,0.8c0.2,0.2,0.5,0.5,0.8,0.8C379.3,230,379.4,230,379.6,229.8z M402.2,232.7
			c0,0,0-0.1,0-0.1c-1.3-0.3-2.8,0.5-3.9,1c0,0-0.1,0-0.1,0c0,0,0-0.1,0-0.1c0.6-1.3,0.5-1.9-0.6-2.5c-0.2,0.1-0.4,0.2-0.6,0.2
			c-0.2,0.3-0.2,0.4-0.2,1c-0.8-0.3-1.4-0.7-2.4-0.2c-0.2-1.3-0.8-1.1-0.8-2.4c-0.4-0.1-0.8-0.2-1.1-0.4c-0.5,0.6-1.4,2.3-1.6,3
			c-0.8-0.3-1.3-0.4-2.2-0.1c-0.1,0.3-0.2,0.7-0.4,1c-0.1,0-0.2-0.1-0.4-0.1c-0.5-0.7-1.1-1.7-1.4-2.4c-0.5,0.2-1,0.4-1.8,0.5
			c-0.1,0.3-0.2,0.7-0.4,1c0.5,0.3,1,0.7,1.5,1c0.1,0.2,0.2,0.3,0.4,0.5c-0.5,0-1,0-1.5,0c-0.4,0.6-0.5,0.8-0.4,1.6
			c-1-0.4-2-0.8-3-1.1c-0.1,0.1-0.2,0.2-0.4,0.4s-0.2,0.2-0.4,0.4C384.5,239,400.6,238.7,402.2,232.7z M396.8,232.4
			c0.3,0.3,0.2,0.1,0.2,0.6c-0.1,0-0.2,0.1-0.2,0.1C396.8,232.9,396.8,232.7,396.8,232.4z M395.3,233.7c0.3,0,0.7,0.1,1,0.1
			c-0.2,0.7-0.7,1.1-1.2,1.5c-0.1-0.4-0.2-0.8-0.2-1.1C395,234,395.2,233.8,395.3,233.7z M389.5,234.7c0,0.1-0.1,0.2-0.1,0.2
			c-0.5-0.4-0.7-0.7-0.8-1.5c0.7,0.3,1.1,0.5,2.1,0.5c0.1-0.1,0.2-0.2,0.4-0.4c0-0.2,0-0.5,0-0.8c0.3,0.2,0.3,0.3,0.9,0.4
			c-0.2,0.6-0.3,0.6-0.8,0.9c0,1,0.2,1.1,0.6,1.6c-0.1,0-0.2,0.1-0.4,0.1C390.9,235,390.6,234.6,389.5,234.7z M448.8,232.3
			c0.4-0.3,0.6-0.4,0.8-1c-0.2-0.4-0.4-0.8-0.6-1.1c-0.5-0.1-1-0.2-1.5-0.2c-0.3,0.4-0.5,0.5-0.5,1.2c0.3,0.3,0.6,0.6,0.9,0.9
			C448.2,232.1,448.5,232.2,448.8,232.3z M440.7,232.7c0,0,0.1-0.1,0.1-0.1c0.9-0.6,0.7-1.2,0.2-2c-0.4-0.2-0.8-0.3-1.1-0.5
			c-0.3,0-0.7,0.1-1,0.1c-0.2,0.4-0.3,0.8-0.5,1.1C438.9,232.1,439.6,232.5,440.7,232.7z M400,230.8c-0.2,0.5,0.1,0.9,0.5,1.2
			c0.5,0,0.5,0,0.8-0.2c0.1-0.3,0.2-0.7,0.4-1c-0.3-0.4-0.6-0.5-1.2-0.6C400.2,230.4,400.1,230.6,400,230.8z M337.5,232.7
			c0.1-0.2,0.2-0.4,0.4-0.6c-0.1-0.9-0.3-1.2-1-1.5c-0.3,0-0.6-0.1-0.9-0.1c-0.1,0.2-0.2,0.3-0.4,0.5c0,0.4,0,0.8,0,1.1
			c0.4,0.2,0.8,0.5,1.1,0.8C337,232.8,337.2,232.7,337.5,232.7z M326.5,230.7c-0.5,0.4-0.7,0.5-0.6,1.5c0.4,0.5,0.5,0.7,1.1,0.6
			c0.8,0.2,1.1-0.1,1.2-1c-0.2-0.3-0.4-0.6-0.6-0.9C327.2,230.8,326.8,230.8,326.5,230.7z M472.6,230.7c-0.2,0.2-0.3,0.5-0.5,0.8
			c0.1,0.9,0.5,1.2,1.2,1.5c0.2-0.1,0.5-0.2,0.8-0.2c0.3-0.6,0.2-0.8,0-1.5C473.6,230.9,473.4,230.7,472.6,230.7z M305.1,232.2
			c0-0.2,0-0.5,0-0.8c-0.2-0.4-0.3-0.4-0.8-0.5c-0.6,0.3-0.8,0.3-1.1,0.9c0,0.1-0.1,0.2-0.1,0.4c0,0.1,0.1,0.2,0.1,0.4
			c0.4,0.3,0.5,0.4,1.2,0.4C304.7,232.7,304.9,232.4,305.1,232.2z M380.7,232.8c0.4-0.3,0.8-0.6,1.1-0.9c0-0.1,0-0.2,0-0.4
			c-0.1-0.1-0.2-0.2-0.2-0.4c-0.4-0.1-0.8-0.2-1.2-0.2c-0.2,0.2-0.4,0.4-0.6,0.6c0,0.3,0.1,0.6,0.1,0.9
			C380.1,232.8,380,232.8,380.7,232.8z M435.7,231.9c0,0.2,0.1,0.5,0.1,0.8c0.2,0.5,0.4,0.6,0.9,0.8c0.5,0.2,0.7,0.2,1.4,0.1
			c0-0.5,0.1-1.1,0.1-1.6c-0.6-0.4-0.9-0.7-1.9-0.8C436.1,231.4,435.9,231.7,435.7,231.9z M379,232.4c0,0,0-0.1,0-0.1
			c-0.7-0.4-1.1-0.2-1.9-0.4c-0.2,0.3-0.3,0.6-0.5,0.9c0,0.2,0,0.4,0,0.6c0.2,0.2,0.4,0.3,0.6,0.5C378,233.6,378.8,233.3,379,232.4z
			 M308,234.9c0.3-0.3,0.5-0.3,0.6-0.9c0.4,0.1,0.8,0.2,1.1,0.4c0.3-0.5,0.5-0.7,0.5-1.6c-0.6-0.3-1.7,0.2-2,0.1
			c-0.3-0.1-0.4-0.6-0.9-0.8c-0.2,0.1-0.3,0.2-0.5,0.2C306.4,233.6,306.2,234.9,308,234.9z M308.3,233.3c0,0.1-0.1,0.2-0.1,0.2
			c0-0.1-0.1-0.2-0.1-0.2C308.2,233.3,308.3,233.3,308.3,233.3z M445.7,234.3c0.3-0.2,0.6-0.5,0.9-0.8c0-0.3-0.1-0.7-0.1-1
			c-0.2-0.1-0.3-0.2-0.5-0.2c-0.3,0-0.7-0.1-1-0.1c-0.1,0.1-0.2,0.2-0.4,0.2c0,0.1-0.1,0.2-0.1,0.4c0.1,1,0.3,0.8,0.6,1.4
			C445.3,234.2,445.5,234.3,445.7,234.3z M332,232.5c-0.2,0-0.5-0.1-0.8-0.1c-0.5,0.4-0.8,0.6-0.6,1.4c0.3,0.7,0.7,0.9,1.5,1.1
			C333.3,234.4,333.2,233,332,232.5z M442.7,235.5c0.5,0.1,0.7-0.2,1.2-0.4c-0.1-0.5-0.2-0.9-0.2-1.4c-0.5-0.2-1.1-0.4-1.6-0.6
			c-0.2,0.1-0.3,0.2-0.5,0.2C441,234.5,441.6,235.4,442.7,235.5z M451.6,233.9c-0.2-0.2-0.4-0.3-0.6-0.5c-0.3-0.2-0.6-0.3-1.2-0.2
			c-0.1,0.2-0.2,0.3-0.2,0.5c0,0.3,0,0.7,0,1c0.4,0.2,0.8,0.3,1.2,0.5C451.2,234.8,451.4,234.5,451.6,233.9z M342.3,237.2
			c0.7-1.1-0.1-3.1-1.5-3.1c-0.2,0.1-0.4,0.2-0.6,0.2c-0.2,0.8-0.2,1.5-0.1,2.5c0.5,0.2,1.1,0.4,1.6,0.6
			C341.9,237.3,342.1,237.3,342.3,237.2z M420,234.9c-2.1,1-3.4,1.8-4.2,4c-1.4,3.5,0.8,10.6,5.5,9.4
			C427.7,246.6,426.5,235.3,420,234.9z M421.2,242.4c-0.7-0.5-1-1.3-1-2.5c0.3-0.4,0.7-0.8,1-1.2c0.1,0,0.2,0.1,0.2,0.1
			c0.6,0.3,0.7,1.1,0.9,1.8C422.3,241.7,421.9,242,421.2,242.4z M335.5,236.8c0.3,0.5,0.6,0.6,1,0.9c0.3,0,0.6,0,0.9,0
			c0.2-0.1,0.3-0.2,0.5-0.2c0-0.3,0.1-0.6,0.1-0.9c-0.1-0.2-0.2-0.5-0.4-0.8c-0.4-0.2-0.8-0.3-1.2-0.5c-0.2,0-0.4,0.1-0.6,0.1
			C335.4,235.9,335.3,236.1,335.5,236.8z M360.8,235.8c-3,1.2-4.2,1.8-5.1,5c-1.2,4,3.8,9,8,7.8
			C370.4,246.6,368.2,235.8,360.8,235.8z M363.3,241.9c0,0.1,0,0.2,0,0.2c-0.1,0-0.2-0.1-0.4-0.1c-0.2-0.4-0.1-0.8-0.1-1.6
			c0.2,0,0.3,0,0.5,0C363.5,241.1,363.6,241.3,363.3,241.9z M441.6,241c-0.2,0.9,0.6,0.8,0.9,1.4c0.4,0.8-0.1,1.1,0.5,1.6
			c0.2,0.2,0.7,0.2,0.8,0.2c0.4,1.2,0,2,2,1.9c0.2-0.3,0.5-0.6,0.8-0.9c-0.9-1.9-2.4-1.9-2.6-4.5c-0.7-0.2-0.9-0.5-1.9-0.5
			C441.8,240.5,441.7,240.8,441.6,241z M337.6,243.9c-0.5-0.3-0.7-0.5-1.5-0.5c-0.1,0.1-0.2,0.2-0.4,0.2c0,1,0.2,1.3,0.4,2
			c0.5,0,0.9,0,1.4,0C337.7,245.2,337.7,244.6,337.6,243.9z M340.2,247.3c0.7-0.6,1.3-1,1.8-2c-0.4-0.7-0.8-1.1-1.8-1.2
			c-0.9,0.6-0.9,1.3-1.2,2.4c0.4,0.3,0.8,0.6,1.1,0.9C340.1,247.3,340.2,247.3,340.2,247.3z M337,248.5c-0.3-0.2-0.2-0.2-0.8-0.2
			c-0.2,0.3-0.5,0.7-0.8,1c0,1,0.3,1.2,0.9,1.6c0.4,0,0.8,0,1.2,0c0.1-0.3,0.2-0.7,0.4-1C337.7,249.4,337.5,248.9,337,248.5z
			 M468.2,249.3c-0.2,0-0.4,0.1-0.6,0.1c-0.2,0.4-0.3,0.4-0.4,1.1c0,0,0,0.1,0,0.1c0.4,0.3,0.5,0.5,1.2,0.5c0.3-0.3,0.7-0.6,1-0.9
			c0-0.2,0-0.3,0-0.5C469,249.6,468.6,249.5,468.2,249.3z M439.7,249.8c-0.5-0.1-1-0.2-1.5-0.4c-0.2,0-0.3,0.1-0.5,0.1
			c-0.4,0.6-0.4,1-0.1,1.8c0.7,0.3,1,0.3,1.9,0.4c0.2-0.4,0.4-0.8,0.6-1.1C440,250.3,439.8,250,439.7,249.8z M338.5,250.9
			c0.8,0.4,0.9,0.7,2.1,0.8c0.1-0.1,0.2-0.2,0.2-0.4c0-0.6-0.1-0.8-0.2-1.4c-0.2-0.1-0.3-0.2-0.5-0.2c-0.4,0-0.8-0.1-1.2-0.1
			C338.7,250,338.6,250.5,338.5,250.9z M469.8,249.9c-0.1,0.1-0.2,0.2-0.4,0.4c0,0.2,0,0.4,0,0.6c0,0,0,0.1,0,0.1
			c0.5,0.3,0.5,0.5,1.4,0.5C471.5,250.7,471.5,249.8,469.8,249.9z M312.1,251.2c-0.5,0.3-0.9,0.7-1.4,1c0,0.2,0,0.4,0,0.6
			c0.4,0.6,1,0.6,1.6,0.9c0.2-0.2,0.4-0.3,0.6-0.5c0.1-0.6,0.1-1.1-0.1-1.6C312.6,251.3,312.5,251.3,312.1,251.2z M438.3,252.2
			c-0.3,0.2-0.7,0.3-1,0.5c0,0.3,0,0.7,0,1c0.6,0.5,1.1,0.8,2,1c0.2-0.3,0.4-0.6,0.6-0.9c-0.1-0.3-0.2-0.6-0.2-0.9
			C439.4,252.4,439.1,252.2,438.3,252.2z M442.2,253.7c-0.3,0.5-0.4,0.6-0.5,1.4c0.6,0.8,1.1,1,2.4,1c0.2-0.2,0.3-0.4,0.5-0.6
			c-0.1-0.5-0.2-0.9-0.4-1.4C443.5,253.9,443.2,253.7,442.2,253.7z M347.8,256.9c0,0.3,0.1,0.7,0.1,1c0.7,0.4,1.3,0.5,1.9,0.5
			c0.5-0.9,0.3-1.8-0.5-2.1c0.4-0.1,0.8-0.2,1.1-0.4c0.1-0.2,0.2-0.5,0.2-0.8c-0.1-0.2-0.2-0.4-0.4-0.6c-0.3-0.4-0.5-0.6-1-0.8
			c-0.4,0.2-0.8,0.5-1.1,0.8c0.3,0.8,0.7,1.1,1,1.8C348.5,256.1,348.2,256.4,347.8,256.9z M310.8,256.7c0.3-0.6,0.6-1.2,0.4-2
			c-0.3,0-0.6-0.1-0.9-0.1c-0.4,0.4-0.8,0.8-1.1,1.2C309.3,256.9,309.9,256.9,310.8,256.7z M429.6,257.4c0.1-0.4,0.2-0.8,0.2-1.1
			c-0.6-0.4-0.9-0.6-1.9-0.8c-0.6,0.4-0.7,0.3-0.8,1.4c-0.7,0-1-0.1-1.5,0.1c-0.1,0-0.2,0.1-0.4,0.1c0,1.4,0.4,2.8,1.4,3.2
			c0.5,0,0.9,0,1.4,0c0.2-1.2-0.3-1.6-0.4-2.9c0.6,0,1.3,0.1,1.9,0.1C429.6,257.6,429.6,257.5,429.6,257.4z M465.3,255.5
			c-0.2,0.1-0.4,0.2-0.6,0.2c-0.2,0.4-0.3,0.8-0.1,1.2c0.2,0.3,0.3,0.6,0.5,0.9c0.5,0,0.8-0.2,1.4-0.4c0-0.2,0.1-0.4,0.1-0.6
			C466.9,256.2,466.2,255.6,465.3,255.5z M409.6,270.7c0.2,0,0.3,0.1,0.5,0.1c1.1-1.2-0.3-3-0.1-4.5c-0.9-0.1-4.2-5.3-5.4-6.1
			c-2.1-1.4-4.3-3.3-6.9-4c-2.2-0.1-4.3-0.2-6.5-0.2c-0.7,0.6-1.9,0.2-2.9,0.5c-1,0.5-2,1-3,1.5c-4.6,2.9-7.3,8.6-8.9,14.5
			c0.2,0.1,0.5,0.2,0.8,0.4c0.7-1.4,1.4-2.8,2.1-4.2c1.7-3.2,3.4-6.4,6-8.6c1.6-1.4,4.7-2.4,7-2c1.7,0,3.3,0.1,5,0.1
			C403.3,260.5,406.4,265.4,409.6,270.7z M310.1,257c-0.4,0.5-0.5,1-0.8,1.8c0.2,0.2,0.5,0.4,0.8,0.6c0.2,0,0.5,0.1,0.8,0.1
			c0.4-0.6,0.4-0.8,0.6-1.6c-0.1-0.2-0.2-0.5-0.4-0.8C310.8,257.1,310.4,257.1,310.1,257z M346.3,258.3c-0.1,1,0.1,1.9,0.4,2.6
			c0.2,0.4,0.5,0.7,1,0.9c0.3,0,0.6,0,0.9,0c0.1-0.2,0.2-0.3,0.4-0.5c-0.2-1.4-0.5-2.1-1-3.1c-0.3-0.1-0.6-0.2-0.9-0.2
			C346.8,258,346.6,258.2,346.3,258.3z M344.1,259.3c-0.3,0-0.6,0-0.9,0c-0.2,0.1-0.3,0.2-0.5,0.2c-0.2,0.9-0.1,1.4,0.5,1.9
			c0.2,0.2,0.5,0.3,1.2,0.2c0,0,0.1,0,0.1,0c0.2-0.2,0.4-0.5,0.6-0.8C345,260.1,344.5,259.9,344.1,259.3z M431.6,260.7
			c-0.4-0.2-0.8-0.4-1.5-0.4c-0.2,0-0.5,0.1-0.8,0.1c-0.1,0.2-0.2,0.3-0.2,0.5c0,0.3,0.1,0.6,0.1,0.9c0.6,0.3,1,0.5,2,0.5
			c0.1-0.2,0.2-0.3,0.2-0.5C431.5,261.4,431.5,261,431.6,260.7z M358.5,261.5c-0.3-0.2-0.4-0.2-1-0.2c-0.1,0-0.2,0.1-0.2,0.1
			c-0.2,0.2-0.5,0.5-0.8,0.8c-0.5-0.9-0.7-1.3-1.8-1.6c-0.2,0-0.3,0.1-0.5,0.1c-0.3,0.5-0.5,0.7-0.5,1.5c1.2,0.7,1.9,1,2.9,1.6
			c1.2-0.1,1.8-1,1.9-2.1C358.5,261.6,358.5,261.6,358.5,261.5z M395.6,260.9c-0.7,0.4-1.2,0.5-1.5,1.2c-0.1,0.3,0,0.4,0.1,0.8
			c0.3,0.4,3.7,2.1,4.2,2.5c0,3.4,0.3,6.1,1.5,8c1,0.3,2.1,0.5,3.1,0c1.4-0.7,1.5-4,0.9-5.9C402.7,264.2,399.2,261.9,395.6,260.9z
			 M390.8,261.3c-4,1.7-7.1,3.3-8.5,7.6c-0.7,2.2-0.5,5.1,1.1,6.1c0.9,0.5,1.9,0.1,2.5-0.2c1.8-1,3.5-3.4,3.2-6.2
			c-0.1-1.2-0.5-2.1,0.1-3c0.9-1.4,2.7-1.8,3.6-3c-0.4-0.4-0.8-0.8-1.2-1.2C391.4,261.3,391.1,261.3,390.8,261.3z M427,262.7
			c-0.3,0.4-0.4,0.5-0.4,1.2c0.2,0.2,0.5,0.4,0.8,0.6c0.5,0,1-0.1,1.5-0.1c0-0.1,0.1-0.2,0.1-0.4c0-0.4-0.1-0.8-0.1-1.1
			c-0.3-0.1-0.7-0.2-1-0.4C427.5,262.6,427.3,262.6,427,262.7z M355.8,266.3c0.7-0.5,0.3-1.1,0-1.6c-0.3-0.2-0.7-0.3-1-0.5
			c-0.4,0.3-0.6,0.3-0.8,0.9c-0.3-0.2-0.6-0.5-0.9-0.8c-0.3,0-0.6,0.1-0.9,0.1c-0.1,0.2-0.2,0.4-0.4,0.6c0,0.3,0,0.7,0,1
			c0.3,0.2,0.7,0.5,1,0.8c0.7-0.1,0.9-0.1,1.1-0.6C354.5,266.1,355.1,266.7,355.8,266.3z M433.7,266.8c-0.1-0.5-0.2-0.9-0.4-1.4
			c-0.5-0.1-1.1-0.2-1.6-0.2c-0.1,0.1-0.2,0.2-0.4,0.2c0,0.4,0.1,0.8,0.1,1.2c0.2,0.2,0.4,0.4,0.6,0.6c0.4,0,0.8-0.1,1.1-0.1
			C433.4,267,433.5,266.9,433.7,266.8z M356.8,267.9c-0.2,0.3-0.3,0.6-0.5,0.9c0.3,0.7,0.4,0.9,1.4,0.9c0.1,0,0.2-0.1,0.2-0.1
			c0.3-0.4,0.4-0.5,0.1-1.1c0-0.1-0.1-0.2-0.1-0.4C357.6,268,357.2,268,356.8,267.9z M357.8,273.3c0.5-0.8,0.3-1.1,0-2
			c-0.4-0.1-1.8,0.2-1.8,0.2c-0.6-0.3-0.4-0.8-1.4-0.9c-0.3,0.6-0.3,1.4-0.1,2.1C355.5,273.2,357,273.4,357.8,273.3z M390.5,274.8
			c-0.3,0.5-0.4,0.7-0.2,1.4c0,0.1,0.1,0.2,0.1,0.2c0.4-0.1,0.8-0.2,1.2-0.2c0.3-0.5,0.6-1.2,0.4-1.8
			C391.7,274.7,390.9,274.7,390.5,274.8z M396.7,276.4c-0.2,0-0.4-0.1-0.6-0.1c0-0.2,0-0.5,0-0.8c-0.2-0.1-0.3-0.2-0.5-0.4
			c-0.6,0-0.7,0-1,0.4c-0.2,0.3-0.2,0.3-0.2,0.9c0.1,0.1,0.2,0.2,0.4,0.2c0.2,0,0.5,0.1,0.8,0.1c0,0.2,0,0.4,0,0.6
			c0.2,0.3,0.5,0.6,0.8,0.9c0.4-0.2,0.8-0.5,1.2-0.8C397.3,276.9,397.2,276.7,396.7,276.4z M407.6,275.9c-0.1,0-0.2,0-0.4,0
			c-0.2,0-0.3,0.1-0.5,0.1c-0.3,0.6-0.2,0.9,0,1.5c0.3,0,0.6,0.1,0.9,0.1c0.2-0.2,0.3-0.4,0.5-0.6c0-0.2,0.1-0.3,0.1-0.5
			C408,276.3,407.8,276.1,407.6,275.9z M387.3,278.7c0.1,0,0.2,0.1,0.2,0.1c0.4-0.2,0.8-0.3,1.1-0.5c0-0.4,0.1-0.8,0.1-1.2
			c-0.3-0.2-0.3-0.3-0.9-0.4C387.2,277.2,387.2,277.4,387.3,278.7z M412.7,277.4c0-0.1-0.1-0.2-0.1-0.2c-0.4,0-0.8-0.1-1.2-0.1
			c-0.3,0.4-0.3,0.3-0.4,1c0.3,0.2,0.6,0.4,0.9,0.6C412.6,278.4,412.8,278.3,412.7,277.4z M400.7,277.8c-0.2,0.2-0.3,0.4-0.5,0.6
			c0,0.4,0,0.8,0,1.1c0.3,0,0.6,0.1,0.9,0.1c0.2-0.1,0.3-0.2,0.5-0.2c0.1-0.4,0.2-0.8,0.2-1.1c-0.2-0.2-0.5-0.3-0.8-0.5
			C401,277.8,400.8,277.8,400.7,277.8z M382.8,278.3c-0.3,0.4-0.2,0.4-0.8,0.5c0.1,0.3,0.2,0.6,0.2,0.9c0.3,0.1,0.7,0.2,1,0.4
			c0,0,0.1,0,0.1,0c0.3-0.5,0.6-0.7,0.6-1.5c-0.1,0-0.2,0-0.2,0C383.5,278.4,383.4,278.3,382.8,278.3z M381.5,279
			c-0.4-0.2-0.8-0.3-1.5-0.2c-0.1,0.1-0.2,0.2-0.4,0.4c0,0.9,0.2,1.1,0.8,1.4c0.2,0,0.3,0,0.5,0c0.2-0.2,0.5-0.4,0.8-0.6
			C381.5,279.6,381.5,279.3,381.5,279z M406.3,279c-0.5,0.1-1.1,0.2-1.6,0.2c0,0.5,0,1,0,1.5c0.5,0.2,1,0.3,1.6,0.1
			c0.2-0.4,0.3-1,0.2-1.8C406.5,279.1,406.4,279.1,406.3,279z M374,279.4c-0.1,0.1-0.2,0.2-0.4,0.2c0,0.3-0.1,0.7-0.1,1
			c0.2,0.2,0.3,0.4,0.5,0.6c0.2,0,0.4,0.1,0.6,0.1c0.1,0,0.2-0.1,0.4-0.1c0.3-0.4,0.4-0.8,0.6-1.4
			C375.2,279.5,374.9,279.4,374,279.4z M409.2,279.7c-0.5,0.9,0.7,1.9,1.5,0.9c0-0.2,0-0.4,0-0.6c-0.4-0.3-0.4-0.4-1.1-0.5
			C409.5,279.5,409.3,279.6,409.2,279.7z M369.2,280.7c0.4,1,1.1,1.2,2.1,0.9c0.1-0.1,0.2-0.2,0.2-0.4c-0.1-0.2-0.2-0.5-0.4-0.8
			c-0.4-0.1-0.8-0.2-1.1-0.4C369.8,280.3,369.5,280.5,369.2,280.7z M377.8,280.3c-0.6,0.6-1,0.9-1.4,1.8c0.1,0.3,0.2,0.7,0.2,1
			c0.4,0.2,0.6,0.3,1.1,0.1c0.7-0.3,0.9-1,1.2-1.6c0-0.2,0-0.5,0-0.8c-0.2-0.1-0.3-0.2-0.5-0.4C378.3,280.4,378.1,280.3,377.8,280.3
			z M381.7,280.9c-0.1,0.1-0.2,0.2-0.4,0.4c0,0.5,0.1,0.9,0.1,1.4c0.5,0,0.9-0.1,1.4-0.1c0.2-0.5,0.2-1.2,0.2-1.8
			c-0.1,0-0.2,0-0.4,0C382.4,280.8,382,280.9,381.7,280.9z M408.8,281.2c-0.2,0.2-0.4,0.4-0.6,0.6c0,0.3,0.1,0.6,0.1,0.9
			c0.4,0.1,0.8,0.2,1.1,0.2c0.1,0,0.2-0.1,0.2-0.1c0.1-0.3,0.2-0.6,0.4-0.9C409.8,281.3,409.8,281.2,408.8,281.2z M414.6,281.4
			c-0.2,0.1-0.4,0.2-0.6,0.2c0.1,0.5,0.2,0.9,0.2,1.4c0.3,0,0.7,0.1,1,0.1c0.2-0.2,0.4-0.5,0.6-0.8c-0.1-0.3-0.2-0.6-0.2-0.9
			C415.3,281.5,414.9,281.5,414.6,281.4z M411.7,282.8c0.3,0.3,0.3,0.5,0.9,0.6c0.1,0,0.2,0.1,0.4,0.1c0.2-0.1,0.3-0.2,0.5-0.4
			c0-0.4,0.1-0.8,0.1-1.2c-0.4,0-0.8-0.1-1.1-0.1C412.2,282.1,412,282.5,411.7,282.8z M374,283.5c-0.6,0-1.3-0.1-1.9-0.1
			c-0.2,0.2-0.4,0.3-0.6,0.5c-0.1,0-0.2,0-0.2,0c0,1.9,2.2,1.4,3,0.8c0-0.3-0.1-0.6-0.1-0.9C374,283.7,374,283.6,374,283.5z
			 M418.8,284.9c-0.4-0.4-0.4-0.6-1.4-0.6c-0.1,0.1-0.2,0.2-0.4,0.4c-0.1,0.2-0.2,0.4-0.2,0.6c0.3,0.2,0.7,0.5,1,0.8
			c0.2,0,0.3,0,0.5,0c0.1-0.2,0.2-0.3,0.4-0.5C418.8,285.3,418.8,285.1,418.8,284.9z M369.2,287c0.1,0.8,0.2,0.7,0.5,1.1
			c0.3,0,0.7-0.1,1-0.1c0.2-0.5,0.3-0.9,0.5-1.4c-0.6-0.3-1-0.3-1.6-0.4C369.5,286.5,369.3,286.8,369.2,287z M364.6,286.9
			c-0.6,0.4-0.9,0.4-0.9,1.5c0.3,0.2,0.7,0.3,1,0.5c0.2-0.1,0.3-0.2,0.5-0.4c0.1-0.2,0.2-0.5,0.2-0.8
			C365.4,287,365.3,287,364.6,286.9z M419.7,288.8c-0.3,0.3-0.7,0.6-1,0.9c0.3,0.7,0.4,0.9,1.1,1.2c0.3-0.1,0.6-0.2,0.9-0.4
			C421.2,289.6,421,288.8,419.7,288.8z M421.7,294.8c0-0.3-0.1-0.7-0.1-1c-0.5-0.1-0.9-0.2-1.4-0.2c-0.2,0.3-0.3,0.6-0.5,0.9
			c0,0.3,0.1,0.7,0.1,1C420.8,296,421.3,295.7,421.7,294.8z M420.5,298.3c0.5,0.6,0.6,0.6,1.6,0.5c0.1-1,0.4-1.3,0.9-1.9
			c0-0.2,0-0.3,0-0.5c-0.4-0.3-0.5-0.5-1.1-0.6C421.3,296.5,420.6,297.2,420.5,298.3z M363.2,296.8c0,0.2,0.1,0.4,0.1,0.6
			c0.8,0.5,2.2,0.4,1.6-1c-0.4,0-0.8-0.1-1.1-0.1C363.6,296.5,363.4,296.6,363.2,296.8z M425,298.9c-0.1,0.2-0.2,0.4-0.4,0.6
			c0,0.2,0,0.4,0,0.6c0.2,0.2,0.5,0.3,0.8,0.5c0.5-0.2,0.9-0.3,1.4-0.5c0-0.1,0.1-0.2,0.1-0.2C426.5,299,426.3,298.8,425,298.9z
			 M363.5,302.3c0.9-0.4,1.1-1,1.5-1.9c-0.3-0.6-0.2-0.7-1.1-0.8c-0.4,0.5-0.8,1-1.1,1.5c0,0.2,0.1,0.3,0.1,0.5
			c0.1,0.1,0.2,0.2,0.4,0.4C363.3,302.1,363.4,302.2,363.5,302.3z M368.7,302.3c0.2-0.5,0.4-1.1,0.6-1.6c0-0.1,0-0.2,0-0.4
			c-0.3,0-0.7,0-1,0c-0.7,0.5-1,0.6-1.1,1.6c0.2,0.1,0.5,0.2,0.8,0.4C368.2,302.3,368.5,302.3,368.7,302.3z M362.5,305.9
			c0.4,0.3,0.6,0.5,1.1,0.2c0.5-0.3,0.7-0.7,0.9-1.2c0-0.2-0.1-0.3-0.1-0.5c-0.4,0-0.8-0.1-1.1-0.1c-0.5,0.5-0.7,0.5-0.8,1.5
			C362.5,305.8,362.5,305.9,362.5,305.9z M363.8,308.9c0,0.2,0,0.4,0,0.6c0.4,0.3,0.5,0.4,1.1,0.5c0.2-0.2,0.3-0.3,0.5-0.5
			c0-0.5,0.1-0.9,0.1-1.4c-0.4-0.1-0.8-0.2-1.1-0.2C364.3,308.3,364,308.6,363.8,308.9z M428.5,310.2c0.8-0.8,0.5-1.9-0.9-1.9
			c-0.2,0.1-0.4,0.2-0.6,0.2c-0.1,0.1-0.2,0.2-0.2,0.2c0.1,0.2,0.2,0.5,0.2,0.8c0.3,0.4,0.6,0.6,1,0.9
			C428.4,310.3,428.2,310.4,428.5,310.2z M425.8,310.4c-0.2,0-0.3,0.1-0.5,0.1c-0.4,0.7-0.4,1,0,1.8c0.6,0.2,0.9,0.3,1.5,0
			C427.1,311.3,426.8,310.6,425.8,310.4z M363.3,313.4c-0.2,0.1-0.3,0.2-0.5,0.2c-0.1,0.4-0.2,0.8-0.2,1.2c1.1,0.5,1.9,0.4,1.8-1.2
			C364,313.6,363.7,313.5,363.3,313.4z M366.8,317.5c0.2,0,0.3-0.1,0.5-0.1c0.4-0.3,0.5-0.6,0.6-1.1c-0.2-0.2-0.3-0.5-0.5-0.8
			c-0.2,0-0.5,0-0.8,0c-0.2,0.2-0.3,0.5-0.5,0.8c0,0.2,0.1,0.4,0.1,0.6C366.5,317.1,366.7,317.3,366.8,317.5z M367,321
			c0.1-0.2,0.2-0.3,0.2-0.5c0-0.3,0.1-0.6,0.1-0.9c-0.3,0-0.7,0.1-1,0.1c-0.4,0.2-0.3,0.2-0.5,0.6c0.2,0.2,0.4,0.4,0.6,0.6
			C366.6,321,366.8,321,367,321z M427.2,321.5c0,0,0.1,0,0.1,0c0.1-0.2,0.2-0.4,0.4-0.6c0-0.2,0-0.5,0-0.8c-0.5-0.2-1-0.3-1.5-0.5
			c-0.3,0.3-0.5,0.3-0.6,0.9c0.1,0.2,0.2,0.4,0.2,0.6C426.3,321.3,426.8,321.4,427.2,321.5z M426.8,323.8c-0.2,0.2-0.4,0.3-0.6,0.5
			c0.1,0.4,0.2,0.8,0.2,1.1c0.7,0.2,1.5,0.5,1.9-0.1C428.9,324.2,427.7,323.7,426.8,323.8z M433.2,324.7c-0.3,0.2-0.7,0.5-1,0.8
			c0.3,0.6,0.7,0.8,1.1,1.2c0.2,0,0.5-0.1,0.8-0.1c0.2-0.2,0.4-0.4,0.6-0.6c0-0.2,0-0.4,0-0.6c-0.2-0.2-0.5-0.3-0.8-0.5
			C433.7,324.8,433.5,324.7,433.2,324.7z M366.5,326.8c0.1,0,0.2,0,0.4,0c-0.2-0.4,0.1-0.2-0.4-0.4
			C366.5,326.5,366.5,326.7,366.5,326.8z M367,328c0-0.2,0.1-0.5,0.1-0.8c-0.2-0.1-0.4-0.2-0.6-0.2c-0.2,0.5-0.5,0.7-0.9,1
			c0,0.2,0,0.3,0,0.5c0.2,0.1,0.4,0.2,0.6,0.2C366.5,328.5,366.7,328.3,367,328z M423.6,327.9c-0.3,0.2-0.7,0.5-1,0.8
			c0.1,0.3,0.2,0.7,0.2,1c0.3,0.1,0.6,0.2,0.9,0.2c0.2-0.1,0.5-0.2,0.8-0.2c0.3-0.2,0.3-0.3,0.5-0.6
			C424.7,328.3,424.5,328.1,423.6,327.9z M428.7,331c0,0.2,0.1,0.4,0.1,0.6c0.5,0.3,0.7,0.5,1.6,0.5c0.2-0.4,0.4-0.8,0.6-1.2
			c0-0.1,0-0.2,0-0.4c-0.5-0.1-0.9-0.2-1.4-0.2C429.3,330.6,429,330.6,428.7,331z M424,334.7c0.1-0.4,0.2-0.8,0.2-1.2
			c-0.4-0.2-0.8-0.3-1.1-0.5c-0.3,0.2-0.7,0.5-1,0.8c0,0,0,0.1,0,0.1C422.6,334.6,422.8,334.9,424,334.7z M427.3,332.9
			c-0.2,0.2-0.4,0.5-0.6,0.8c0.2,0.3,0.3,0.6,0.5,0.9c0.1,0.3,0.6,0.1,1.1,0.1c0.1-0.4,0.2-0.8,0.4-1.2c-0.2-0.1-0.4-0.2-0.6-0.4
			C427.8,333,427.6,333,427.3,332.9z M362,333.8c-0.2,0.1-0.4,0.2-0.6,0.4c0,0.4,0,0.8,0,1.1c0.5,0.2,1,0.4,1.5,0.6
			c0.3-0.2,0.6-0.5,0.9-0.8c-0.1-0.4-0.2-0.8-0.4-1.2C362.9,333.9,362.4,333.8,362,333.8z M369.1,337c0.2-0.5,0.5-1,0.8-1.5
			c0-0.1-0.1-0.2-0.1-0.2c-0.2,0-0.5-0.1-0.8-0.1c-0.2,0.2-0.5,0.3-0.8,0.5c-0.1,0.3-0.2,0.6-0.2,0.9c0.1,0.1,0.2,0.2,0.4,0.4
			C368.6,337,368.8,337,369.1,337z M371.6,337.4c0.6-0.4,0.9-0.5,0.9-1.6c-0.3-0.2-0.7-0.3-1-0.5c-0.2,0.2-0.4,0.4-0.6,0.6
			c-0.2,0.2-0.3,0.4-0.4,0.8C370.8,337.1,370.9,337.3,371.6,337.4z M421.5,338.4c0.7-0.5,1.5-1.1,2-1.6c0-0.2,0-0.3,0-0.5
			c-0.3-0.2-0.7-0.5-1-0.8c-1,0.6-1.4,1.2-2.6,1.6c0,0.3,0,0.7,0,1C420.2,338.5,420.8,338.7,421.5,338.4z M371.8,339.9
			c0.7,0.7,1,0.5,2.2,0.4c0.1-0.5,0.2-1.1,0.2-1.6c-0.3-0.1-0.7-0.2-1-0.4c-0.4,0.3-0.8,0.6-1.2,0.9
			C372,339.4,371.9,339.7,371.8,339.9z M422.8,344.7c-0.7-2.2-0.7-2.2-2.1-3.9c-0.3-0.1,0.3-0.6,0.4-1.2c-0.2-0.2-0.5-0.4-0.8-0.6
			c-0.2,0-0.5-0.1-0.8-0.1c-0.2,0.2-0.5,0.3-0.8,0.5c0.2,1,0.5,1.1,1.2,1.5c-0.4,0.3-0.8,0.6-1.1,0.9c-0.4-0.1-0.8-0.2-1.2-0.4
			c-0.8,0.7-1.4,1.2-2.1,2c0,0.2,0.1,0.4,0.1,0.6c0.2,0.7,0.6,0.7,1.1,1c-1,0.9-0.3,1.8,0.2,2.8c0.4-0.1,0.8-0.2,1.2-0.4
			c0.1-0.1,0.2-0.2,0.2-0.2c0.5-0.7-0.2-2-1.1-2.2c0.4-1.2,1.4-1.5,1.6-2.8c0,0,0.1,0,0.1,0c0.5,0.7,0.8,0.9,1.6,1.2
			c-0.1,0.4-0.2,0.8-0.4,1.1c0.6,0.8,1.7,0.7,2,1.9c0.6,0.1,1.2,0.2,1.8,0.2c0.1-0.1,0.2-0.2,0.2-0.4c0.2-0.4,0.1-0.7-0.1-1
			C424,344.5,423.7,344.6,422.8,344.7z M423.2,339.5c-0.3,0.4-0.2,0.4,0,0.9c0.3,0.4,0.7,0.4,1.2,0.5c0.2-0.1,0.3-0.2,0.5-0.4
			c0-0.4,0-0.8,0-1.1c-0.5-0.1-0.9-0.2-1.4-0.4C423.5,339.2,423.3,339.4,423.2,339.5z M425.8,340.2c-0.1,0.9,0.1,1.2,0.8,1.6
			c0.3,0,0.6-0.1,0.9-0.1c0.2-0.4,0.4-0.7,0.4-1.5c-0.4-0.4-0.4-0.5-1.2-0.5C426.3,339.8,426.1,340,425.8,340.2z M366.7,342.7
			c0.3-0.1,0.6-0.2,0.9-0.2c0.2-0.5,0.3-0.9,0.5-1.4c-0.3-0.2-0.6-0.4-0.9-0.6c-0.2,0-0.5-0.1-0.8-0.1c-0.3,0.2-0.6,0.5-0.9,0.8
			C365.7,342.1,366.2,342.1,366.7,342.7z M373.3,341.7c-0.2,0-0.3,0-0.5,0c-0.3,0.6-0.6,0.7-0.6,1.6c0.5,0.2,1.1,0.3,1.6,0.5
			c0.1-0.2,0.2-0.4,0.2-0.6C373.9,342.5,373.7,342.3,373.3,341.7z M369.6,344c0.4,0.3,0.7,0.2,1.1,0c-0.3,0.9-1.2,0.8-1.8,1.5
			c0.1,0.3,0.2,0.7,0.2,1c0.3,0.4,0.7,0.5,1.5,0.5c0.5-0.7,1.1-1.4,1.6-2.1c0-0.2,0-0.5,0-0.8c-0.6-0.2-0.7-0.4-1.4-0.2
			c0-0.3,0.1-0.6,0.1-0.9c-0.4-0.1-0.8-0.2-1.1-0.4c-0.2,0.2-0.4,0.3-0.6,0.5C369.4,343.7,369.3,343.8,369.6,344z M420.7,349.3
			c0-0.1-0.1-0.2-0.1-0.4c-0.7-0.5-1.7-1-2.6-1.1c-1,0.7-1.7,1.6-1.2,3c0.2,0.1,0.4,0.2,0.6,0.2c1-0.1,0.9-0.4,1.4-1
			c0-0.1,0.1-0.2,0.1-0.2C419.3,350.8,420.6,350.5,420.7,349.3z M371.8,350c0,0.2,0,0.3,0,0.5c0.7,0.6,1,0.5,1.4,1.5
			c0.3,0,0.7,0.1,1,0.1c0.2-0.3,0.2-2.6,0.2-3.6c-0.2-0.1-0.4-0.2-0.6-0.4C373.2,348.8,372.5,349.4,371.8,350z M420.5,351.5
			c-0.1,0-0.2,0.1-0.2,0.1c-0.7,1.3-0.8,2.6,0.8,3.1c0.7-0.4,1-1.5,1-2.6C421.5,351.7,421.5,351.5,420.5,351.5z"/>
	</g>
</g>
</svg>
