<?xml version="1.0" encoding="utf-8"?>
<!-- Generator: Adobe Illustrator 23.0.1, SVG Export Plug-In . SVG Version: 6.00 Build 0)  -->
<svg version="1.1" id="Calque_1" xmlns="http://www.w3.org/2000/svg" xmlns:xlink="http://www.w3.org/1999/xlink" x="0px" y="0px"
	 viewBox="0 0 595.276 841.89" enable-background="new 0 0 595.276 841.89" xml:space="preserve">
<ellipse fill-rule="evenodd" clip-rule="evenodd" fill="#DDDDDD" cx="316.333" cy="537.111" rx="138.889" ry="26.667"/>
<g>
	<g>
		<path fill-rule="evenodd" clip-rule="evenodd" d="M460.722,486.319c-1.13-0.759-2.652-2.364-3.791-2.916
			c-1.555-0.194-3.111-0.389-4.666-0.583c-5.257-1.963-12.4-3.7-19.829-3.499c-0.386-5.131-1.486-10.603-2.624-15.455
			c-0.881-3.756-0.054-9.182-1.458-13.122c-0.536-1.503-1.733-2.665-2.041-4.666c-1.23-7.991,1.967-17.496-0.292-25.952
			c-1.038-3.886-3.568-7.198-4.957-10.789c-1.25-3.231-1.814-7.343-2.624-10.498c-0.389-5.443-0.778-10.887-1.166-16.33
			c-1.549-5.441-5.394-10.425-7.873-15.163c-2.725-5.208-4.713-11.022-6.998-16.621c-2.88-7.057-3.678-15.22-5.54-23.036
			c-0.175-0.736,0.281-1.07,0.292-1.458c0.044-1.632-0.4-5.042-1.166-6.124c0.042-1.871,0.473-1.881,1.166-2.916
			c2.11,3.039,1.432,9.208,2.916,11.956v0.583h0.583c-0.194-2.527-0.389-5.055-0.583-7.582c-0.737-2.942-1.426-5.382-1.166-8.748
			c2.255,3.11,0.853,10.442,2.916,13.705v5.249c1.342-0.792,0.808-9.519,0.292-11.664c-2.867-11.921-4.07-24.133-11.372-31.493
			c-0.395-0.398-1.112-0.42-1.458-0.875c-1.478-1.94-2.959-4.752-4.957-6.124c-1.467-1.008-3.185-0.974-4.957-1.75
			c-1.01-0.442-1.697-1.765-2.624-2.333c-1.113-0.682-4.943-1.715-6.124-2.041c-3.732-1.032-13.436,2.752-15.746,3.791
			c-2.541,1.143-5.884,2.209-8.456,2.916c-2.465,0.677-4.494-0.162-6.707,0.583c-6.278,2.114-12.221,4.744-17.204,8.165
			c-7.355,5.05-14.643,12.033-19.537,19.537c-1.122,1.72-1.212,3.464-2.041,5.54c-1.298,3.249-3.581,6.85-4.957,10.206
			c-0.875,2.133-0.709,4.064-1.458,6.415c-1.055,3.312-2.716,6.957-3.791,10.498c-1.09,3.591-1.22,7.82-3.499,10.206
			c-0.343,0.359-1.043,0.279-1.458,0.583c-1.287,0.944-2.434,2.675-3.791,3.499c-2.618,1.59-5.24,2.471-7.873,4.082
			c-3.857,2.36-8.315,5.149-12.539,6.998c-1.792,0.785-3.355,1.063-4.957,2.041c-3.599,2.196-7.524,4.547-11.372,6.415
			c-3.801,1.845-7.452,2.741-11.081,4.666c-13.711,7.272-26.902,15.283-39.366,23.911c-1.069,1.069-2.139,2.139-3.208,3.208
			c-2.882,2.113-5.771,3.786-8.748,5.832c-1.334,0.917-2.453,2.589-3.791,3.499c-4.384,2.982-9.635,5.052-13.997,7.873
			c-7.174,4.64-16.65,6.54-23.911,11.081c-3.67,2.295-7.555,4.961-11.081,7.582c-1.749,1.749-3.499,3.499-5.249,5.249
			c-0.968,0.734-2.195,1.387-2.916,2.333c-2.401,3.151-4.81,6.262-7.582,9.04c-4.741,4.751-11.32,8.748-13.997,15.455
			c-1.674,4.194-0.877,10.012,0.292,14.58c-0.097,0.68-0.194,1.361-0.292,2.041c0.313,1.409,2.164,6.98,2.916,8.165
			c0.486,0.389,0.972,0.778,1.458,1.166c0.958,1.471,1.043,3.293,2.041,4.666c1.563,2.149,4.063,2.637,6.415,4.082
			c2.368,1.455,6.429,5.204,8.748,6.124c6.616,2.622,13.035,4.034,18.662,7.582c4.235,2.67,8.043,6.073,12.247,8.748
			c2.122,1.35,4.354,0.97,6.998,2.041c1.437,0.582,4.082,1.849,6.707,1.166c1.703-0.443,8.192-2.581,8.748-3.791
			c-0.097-0.486-0.194-0.972-0.292-1.458c0.531-0.809,3.435-1.963,4.374-2.624c3.143-2.213,5.338-5.586,8.748-7.582
			c2.864-1.675,5.686,0.093,8.456-0.583c2.475-0.604,6.79,0.182,9.914-0.583c1.69-0.414,3.203-1.217,4.957-1.458
			c0.097-0.097,0.194-0.194,0.292-0.292c0-6.013-1.444-10.076-4.374-13.122v-0.292c7.061,1.408,14.847,1.198,21.578,3.208
			c2.233,0.667,4.817,2.209,6.998,2.916c3.52,1.141,6.508,0.856,10.498,0.875c1.337,0.006,3.352,0.77,4.082,0.583
			c0.838-0.215,1.536-1.744,2.333-2.041c2.721-0.389,5.443-0.778,8.165-1.166c4.97-1.325,9.651-3.227,14.288-5.249
			c1.837-0.801,10.2-4.447,12.83-3.791c4.099,1.022,6.952,3.868,11.081,5.249c2.727,0.912,7.725,0.376,9.914,1.75h3.499v0.292
			c-1.084,0.847-1.885,2.315-3.208,2.916c-1.626,0.739-3.37,0.051-5.249,0.583c-1.981,0.561-5.616,0.792-8.456,1.458
			c-1.652,0.097-3.305,0.194-4.957,0.292c-3.481,0.945-6.745,2.228-10.789,2.624v1.75c1.463,1.361,2.815,3.147,4.666,4.082
			c-1.28,3.024-8.685,3.384-12.539,4.374c-5.032,1.292-11.468,3.461-16.33,5.54c-1.546,0.661-3.297,0.601-4.666,1.458
			c-0.201,0.224-0.384,0.65-0.583,0.875c-0.008,1.447-0.146,3.078,0.583,3.791c2.168,2.12,16.594,1.877,20.412,0.875
			c6.323-1.659,12.5-3.648,18.954-5.249c2.041-0.097,4.083-0.194,6.124-0.292c3.144-0.725,7.296-1.014,10.498-1.75
			c1.944-0.447,4.291,0.344,5.832,0.292c2.69-0.091,7.613-1.132,11.372-0.292c3.951,0.883,10.588,0.79,13.414,0
			c6.336-1.772,15.394-1.071,17.496-6.998c2.757-4.126,0.296-15.145-2.333-17.204v-0.583c6.553,3.69,19.552,1.424,26.536-1.166
			c3.514-1.303,6.69-1.459,9.04-3.791c1.997-1.982,3.545-4.431,5.249-6.707c0.778-0.778,1.555-1.555,2.333-2.333
			c1.237-2.202,1.812-4.429,3.499-6.124v-0.292h0.292c-0.34,4.125-3.209,8.745-2.041,13.705c0.77,3.272,3.198,7.381,3.208,9.914
			c2.717,1.342,4.827,3.569,7.873,4.374c3.751,0.991,9.204-0.224,11.956-0.875c1.944-0.194,3.888-0.389,5.832-0.583
			c5.449-1.686,11.156-4.547,15.455-7.582c1.982-1.399,3.725-3.751,5.832-4.957c1.712-0.98,3.381-1.278,4.957-2.333
			c1.595-1.068,2.816-3.101,4.374-4.082c1.449-0.913,6.704-1.644,9.04-1.75c0.097-0.972,0.194-1.944,0.292-2.916
			C466.453,489.193,461.416,486.786,460.722,486.319z M428.063,470.573v0.875h-0.292c-0.178-0.502-0.272-0.917-0.292-1.75
			C427.68,469.922,427.864,470.348,428.063,470.573z M425.438,454.535h0.292v0.583h-0.292V454.535z M397.153,332.938
			c1.024,2.074,0.904,7.316,1.458,9.623c0.097,3.402,0.194,6.804,0.292,10.206c1.65,6.934,0.876,16.771,0.875,25.661
			c-0.001,9.964,0.916,20.645-1.166,30.035c-0.097,2.721-0.194,5.443-0.292,8.165c-0.99,4.077-1.229,8.956-2.041,12.83
			c-0.157,0.749,0.344,2.105,0,3.499c-0.453,1.838-1.328,3.283-1.458,5.249c-0.835-1.329-0.173-3.459-0.583-5.249
			c-0.987-4.305-0.395-10.595-0.583-14.288c0.097-1.069,0.194-2.139,0.292-3.208c-0.978-4.592,0.807-10.801-0.292-15.746
			c-0.723-3.253,0.185-7.338-0.583-10.789c-0.503-2.257-0.019-5.061-0.583-7.582c-1.498-6.698-0.819-13.054-2.333-19.829
			c-1.209-5.409-0.115-15.537-2.624-19.246c0.1-1.309,0.117-1.403,1.166-1.75c-0.066-0.676-0.058-0.822-0.292-1.166
			c-0.163-1.507-0.35-1.051-1.166-1.75c-1.445-2.17-0.456-5.806-1.166-8.748c-1.279-5.297-1.398-10.779-1.75-15.746
			c0.804,0.625,1.234,1.741,2.041,2.333c0.789,0.579,1.74,0.711,2.333,1.458c0.311,0.391,0.197,0.875,0.583,1.166
			c0.75,0.566,1.858,0.616,2.624,1.166c2.223,3.195,1.784,9.143,2.916,13.122c0.228,0.801-0.014,1.534,0.292,2.041v0.292h0.583
			c-0.019-3.36-0.474-6.044-0.583-9.04c1.001,1.396,0.295,2.904,0.875,4.957C396.159,331.214,396.93,332.486,397.153,332.938z
			 M395.112,324.773v0.583h-0.292v-0.583H395.112z M394.82,316.025c0.503,0.188,0.285,0.057,0.583,0.292h0.292
			C395.327,317.162,395.289,316.59,394.82,316.025z M395.112,314.859h-0.583c-0.49-1.037-0.992-2.403-1.75-3.208v-0.875
			c0.996,0.171,0.921,0.566,1.458-0.292c1,0.737,1.266,2.253,2.041,3.208C395.921,314.358,395.552,314.317,395.112,314.859z
			 M377.616,282.199c0.423,0.804-0.114,1.489,0.583,2.333v0.292c1.115-0.406,1.211-1.069,2.333-1.458
			c0.626-0.645,3.551,1.623,4.374,2.041v1.166h0.875c0.545,1.872,6.323,8.406,7.873,9.914c-0.559,0.268-0.214,0.117-0.875,0
			c-0.149,0.381-0.356,1.148-0.583,1.458c0.089,0.69,4.738,10.242,5.249,10.789v2.916h-0.583c-0.682-2.53-2.677-4.797-3.208-6.998
			c-0.204-0.846,0.549-1.092,0.583-1.458c0.07-0.751-0.41-0.738-0.583-1.458c-0.688-0.095-1.685,0.312-1.75,0.292
			c-0.611-0.196-1.059-0.926-2.041-0.292c-0.375-0.493-0.406-1.048-0.875-1.458c-0.26-0.147-0.949-0.077-1.458,0.292h-0.583
			c0.165,0.924,0.256,0.848,0.583,1.458c3.574,0.894,3.744,3.193,6.124,5.832v0.875c-0.762-0.234-0.691-0.362-1.458-0.583
			c-0.142,0.68-0.041,0.431,0,1.458h-0.292c-0.384-1.409-1.115-2.401-1.458-3.791c-0.708,0.385-0.206-0.136-0.583,0.583
			c-0.361,0.868,2.379,8.405,3.208,9.331v0.875h-0.292c-1.392-2.879-2.942-8.577-4.957-10.789v-0.292
			c-0.221,0.314-0.183,0.27-0.292,0.875c-1.081-0.748-1.977-2.342-2.624-3.499h-0.292c0.231,3.284,3.079,5.148,4.082,7.582
			c0.567,1.374-0.535,2.707,0,3.791c0.208,0.422,1.098,0.28,1.458,0.583c0.385,0.323,0.513,1.095,0.875,1.458v0.292
			c-1.421-0.509-1.571-1.654-2.624-2.333c-7.237-4.666-7.257-14.808-19.537-14.288c0.313-1.38,0.813-1.119,0.875-2.916
			c-1.295-0.115-1.403-0.05-2.916,0c0.131,0.868,0.147,0.984,0.583,1.458c-0.338,0.824-0.037,0.548-0.875,0.875
			c-0.027,1.064-0.365,0.473,0.292,1.166c-1.033,1.54-2.926,2.714-3.791,4.374c-1.666,3.198-2.466,6.396-4.374,9.331
			c-0.31,0.477-1.273,0.523-1.75,0.875c-1.944,2.041-3.888,4.083-5.832,6.124h-0.583c0.173-0.467,1.75-5.249,1.75-5.249
			c-0.071-0.191-0.716-0.348-0.875-0.583c0.709-0.295,1.126-3.952,0.875-4.374v-0.583h-0.875c-0.185,1.014-0.661,1.296-0.875,2.041
			c-0.964,3.363,0.107,7.729-0.875,10.206c-1.069,1.458-2.139,2.916-3.208,4.374h-0.583c1.148-3.102,0.742-6.888,1.75-10.206
			c0.708-2.333,2.33-3.746,2.333-6.707c-5.007,0.431-2.313,9.405-5.54,11.664c0.269,1.573,1.619,4.115,0.292,6.124
			c-0.509,1.239-2.786,2.189-4.374,2.333c0.075-3.686-0.33-5.038,0.583-6.707c0.505-0.924-0.191-1.795-0.583-2.041
			c0.224-0.201,0.65-0.384,0.875-0.583c0.49-0.61,2.764-8.54,2.916-9.623h-0.875c-0.256,0.531-0.491,1.06-0.875,1.458v0.292
			c-0.676-0.217-0.651-0.303-1.166-0.583v-1.75c-0.673,0.095-0.725,0.135-1.166,0.292c-1.726,4.391-0.21,12.052-3.499,14.872
			c0.097,0.194,0.194,0.389,0.292,0.583h1.166c-0.106,0.833-0.191,1.259-0.583,1.75v0.583h-0.292
			c-0.377-0.714-0.752-3.033-1.458-3.499c0.326-0.675,0.272-0.53,0.875-0.875c-0.048-1.457,0.098-1.279-0.875-1.166
			c1.028-2.87,0.755-7.765,2.624-9.914v-1.166c-0.825,0.227-1.015,0.305-1.458,0.875c-0.333-0.51-0.345-0.946,0-1.458v-0.583h-0.583
			c-1.068,1.562-2.072,2.738-2.624,4.957v3.208c-0.124,0.586-0.433,1.384,0,2.041v0.583h-0.583c-0.694-2.811-1.973-7.822,0-10.789
			v-2.333h-0.583c-0.494,0.967-1.051,2.58-1.75,3.499v0.292h-0.292c0.116-0.599,0.072-0.562,0.292-0.875
			c-0.098-3.02,1.26-4.698,3.499-5.249c0.038-0.835,0.206-0.424,0-0.875c-0.105-1.093-0.226-1.084-0.583-1.75
			c-1.73,0.174-1.724,0.858-2.624,1.75v0.292h-0.292c0.085-5.57,4.246-8.069,7.582-10.498c2.063-1.502,3.988-3.81,6.124-5.249
			c0.875-0.292,1.75-0.583,2.624-0.875c2.673-1.6,6.163-3.806,8.456-4.957c2.755-1.382,7.244-1.191,9.331,0.583
			c3.045,0.042,5.143-0.941,6.415-2.624c1.796,0.29,0.355,0.686,1.458,1.75c0.097,0.097,0.194,0.194,0.292,0.292v-0.292
			c0.503-0.188,0.285-0.057,0.583-0.292c0.602-0.801,0.506-0.885,0-1.458v-0.292C374.789,281.871,376.845,281.689,377.616,282.199z
			 M383.448,312.817c-0.235-0.342-0.235-0.488-0.292-1.166C383.392,311.993,383.391,312.139,383.448,312.817z M376.741,330.897
			v1.166h-0.292c-0.428-1.511-1.328-1.814-1.75-3.208c0.787,0.269,0.854,0.501,1.458,0.875
			C376.319,330.097,376.508,330.611,376.741,330.897z M371.492,336.145c-0.781-0.424-0.994-1.356-1.166-2.333
			c0.266-0.271,0.394-0.508,0.583-0.875c0.366,0.162,0.881,0.351,1.166,0.583C372.343,333.829,371.572,334.923,371.492,336.145z
			 M370.326,338.77h-0.292c-0.285,0.172-0.554,0.024-1.458,0c0.339-0.648,0.422-0.439,0.875-0.875
			c0.708,0.385,0.206-0.136,0.583,0.583L370.326,338.77z M367.41,335.271v1.166h-1.75v-0.292c0.554-0.29,0.801-0.401,1.166-0.875
			H367.41z M361.286,366.18c-0.489,2.136-0.691,6.861-0.583,9.04c0.079,1.594,0.546,5.506,0,7.873
			c-1.014,4.397,0.467,8.962-0.583,14.872c-0.487,2.737-0.327,9.574,0.583,13.705v4.957c1.351,5.784,2.052,12.725,2.333,19.246
			c0.094,2.175,1.9,7.047,0.875,8.748c-0.188,0.503-0.057,0.285-0.292,0.583c-3.234-8.322-6.03-17.308-8.748-26.244
			c-0.292-1.847-0.583-3.694-0.875-5.54c-1.504-4.987-2.467-10.599-3.791-15.746c-0.097-1.361-0.194-2.722-0.292-4.082
			c-2.552-9.939-2.364-21.54-4.666-31.784c-0.097-2.916-0.194-5.832-0.292-8.748c-0.529-2.368,0.318-6.021-0.292-8.748
			c-1.445-6.472,0.357-15.074,4.082-17.496c0.283,0.075,0.13-0.088,0.292,0.292c1.11-0.609,1.309-2.796,2.041-3.791
			c2.02-2.746,5.653-4.219,7.582-6.998c1.09,1.529,0.615,3.346,1.166,5.54c0.81,3.222,1.23,7.189,2.041,10.789
			c0.584,2.593-0.34,5.255,0,7.29c1.008,6.027-0.015,13.325-0.583,18.954C361.105,360.68,361.851,363.714,361.286,366.18z
			 M362.161,325.939h0.292v0.875C362.232,326.501,362.27,326.545,362.161,325.939z M362.744,328.564v0.875
			c-0.221-0.314-0.183-0.27-0.292-0.875H362.744z M340.291,320.691c0.194-1.361,0.389-2.722,0.583-4.082
			c0.64,0.913,0.249,3.106-0.292,3.791v0.292H340.291z M337.958,339.936c0.478,0.714,0.336,2.603,0.292,3.791
			C337.518,342.649,337.825,340.607,337.958,339.936z M337.667,339.061c0.097-0.68,0.194-1.361,0.292-2.041
			c0.357,0.52,0.368,1.229,0,1.75v0.292H337.667z M337.375,336.729v0.583h-0.292c-0.558-1.592-0.625-3.77-0.583-5.832
			c0.292,0.097,0.583,0.194,0.875,0.292C337.303,333.759,336.705,335.627,337.375,336.729z M335.625,330.897v1.166h-0.292
			c-0.095-0.909-0.099-0.46,0-1.166H335.625z M335.334,326.523v-0.583h0.292v0.583H335.334z M335.625,334.979
			c0.36,0.53,0.326,1.668,0.292,2.624C335.557,337.074,335.591,335.935,335.625,334.979z M335.917,314.275v-0.583h0.292v0.583
			H335.917z M110.802,498.275h-0.875c-0.116-0.599-0.072-0.562-0.292-0.875v-0.292h1.166V498.275z M116.925,504.69
			c-0.444-0.16-0.487-0.206-1.166-0.292v-0.583c0.389,0.097,0.778,0.194,1.166,0.292V504.69z M130.339,511.105
			c-1.214,0-1.738-0.034-2.333-0.583h-0.583v-0.292c0.194-0.194,0.389-0.389,0.583-0.583h0.875v1.166
			c0.389-0.097,0.778-0.194,1.166-0.292c0.097,0.097,0.194,0.194,0.292,0.292V511.105z M135.005,511.397
			c-1.541-0.385-1.991-1.64-2.916-2.624v-0.292c0.686,0.317,0.81,0.567,1.166,1.166c1.72-0.026,2.064-0.313,2.624-1.458
			c0.567,0.552-0.848,1.162,0.875,2.333C136.304,511.246,135.672,510.974,135.005,511.397z M144.627,509.064
			c-0.8-0.201-0.471,0.18-0.583-0.583h0.583V509.064z M147.252,507.898c0.503,0.188,0.285,0.057,0.583,0.292
			C147.332,508.001,147.55,508.132,147.252,507.898z M149.876,507.606h-1.458c0.365-0.598,2.041-1.402,2.624-1.75
			c0.041-1.748-0.089-2.264-1.458-2.624c0.524-0.826,2.18-0.622,3.499-0.583v-0.583c0.194,0.097,0.389,0.194,0.583,0.292
			C153.518,505.235,151.13,505.771,149.876,507.606z M151.334,497.4h0.583C151.646,497.916,151.818,497.726,151.334,497.4z
			 M158.624,503.524c0.204,0.673,0.47,1.272,0.875,1.75v0.583h-1.458c-0.097-0.875-0.194-1.75-0.292-2.624
			c0.455-0.439,0.663-0.74,0.875-1.458c0.542,0.251,0.771,0.416,1.458,0.583C159.744,502.992,159.222,503.203,158.624,503.524z
			 M205.28,500.608c-1.124-0.038-1.243,0.006-1.75-0.583h1.75V500.608z M212.862,502.066c-1.772,0.004-3.784-0.456-3.791-1.458
			c1.05,0.309,2.797,0.744,3.791,1.166V502.066z M225.109,503.524c-0.967-0.052-2.015-0.156-2.624-0.583h-0.292v-0.292
			c0.972-0.097,1.944-0.194,2.916-0.292V503.524z M253.394,504.982c-0.292,0.097-0.583,0.194-0.875,0.292
			c-0.549-0.593-0.848-0.538-1.166-1.458h-0.292c0.372-0.818,0.997-1.277,1.458-2.041h0.583c0.031,0.739,0.036,1.08,0.292,1.458
			V504.982z M278.763,499.733h-0.583v-0.583h0.583V499.733z M310.548,505.565c0.503,0.188,0.285,0.057,0.583,0.292
			C310.628,505.669,310.846,505.8,310.548,505.565z M334.167,490.11c0.503,0.188,0.285,0.057,0.583,0.292
			C334.247,490.214,334.465,490.345,334.167,490.11z M334.751,484.278h-0.583c-0.292-0.292-0.583-0.583-0.875-0.875
			c0.075-0.283-0.088-0.13,0.292-0.292c-0.095-0.673-0.135-0.724-0.292-1.166h0.583c0.191,0.758,0.444,1.513,0.875,2.041V484.278z
			 M350.497,498.275c-0.8-0.201-0.471,0.18-0.583-0.583h0.583V498.275z M357.787,499.733h-1.166
			c0.181-0.682,0.339-0.913,0.583-1.458h0.875C357.655,499.112,357.626,498.823,357.787,499.733z M360.995,497.983
			c-0.272,0.162-2.052,0.418-2.624,0c0.194-0.292,0.389-0.583,0.583-0.875c0.996,0.069,1.265,0.242,1.75,0h0.583
			C361.17,497.708,361.214,497.671,360.995,497.983z M375.866,496.525h-0.292v-0.583h0.292V496.525z M406.484,467.949v0.292h-0.583
			c0.882-1.657,1.552-2.203,1.75-4.082c0.795-0.007,1.336-0.011,1.75-0.292h0.875C409.788,465.305,407.948,467.462,406.484,467.949z
			 M420.481,451.327c-0.887-0.182-1.777-0.369-2.333-0.875c-0.394-0.302,0.115-0.452,0.292-1.166
			c0.848,0.663,0.669,1.197,2.041,1.458V451.327z M425.147,434.415c-0.229,0.816-1.283,1.249-1.458,1.75
			c-0.409,1.17,1.157,2.135,0.292,3.499v1.458c-1.232-0.452-2.388-1.451-3.791-0.292c-0.292,0.292-0.583,0.583-0.875,0.875
			c0.233,1.45,0.852,1.906,1.458,2.916c0.85,0.009,1.589,0.014,2.041-0.292h0.292c-0.194,0.583-0.389,1.166-0.583,1.75
			c-0.688-0.256-0.481-0.11-0.875-0.583c-1.469-0.013-2.098,0.142-2.916,0.583c-0.097,0.486-0.194,0.972-0.292,1.458
			c-0.938-0.254-0.45,0.158-0.875-0.583c-1.563-0.027-1.945-0.009-2.333,1.166c-0.333,0.487-0.319,1.432-0.292,2.333h0.875
			c-0.116,0.599-0.072,0.562-0.292,0.875c-0.065,2.387,0.939,3.258,2.916,3.499c-0.229,1.268-0.854,1.782-1.75,2.333
			c-1.399,0.403-0.533-0.529-1.166-0.875c-0.92-0.502-2.222,0.203-2.916,0c-0.631,1.336-1.327,2.654-2.041,3.791
			c-0.811,0.137-1.621,0.069-2.041,0.292c-1.86,0.072-2.009,0.855-2.624,2.041c-0.599-0.116-0.562-0.072-0.875-0.292
			c-1.654-0.002-2.007,0.192-2.624,1.166l-0.292,0.292h0.292c0.043,1.984,0.777,3.313,2.333,3.791
			c-0.459,0.759-1.123,0.64-2.333,0.583c-0.149,0.381-0.356,1.148-0.583,1.458c-0.672,1.118-2.814,0.016-4.666,0.875l-1.75,1.75
			c-0.459-0.909-0.921-1.51-1.75-2.041l-0.292-0.292c-0.504,0.719-1.356,1.232-2.041,1.75c-0.08,1.621,0.787,1.701,1.75,2.916
			c1.794-0.119,1.978-0.865,2.916-1.75c0.178,0.502,0.272,0.917,0.292,1.75c1.843,0.105,2.239-0.146,4.082-0.292v0.875
			c-0.866,0.589-1.984,1.841-2.333,2.916c-2.031-0.312-3.001-1.351-4.957-2.041c-0.342,0.805-0.598,1.481-1.166,2.041
			c0.157,1.957,1.066,2.376,2.624,2.916c-0.838,2.353-3.393,4.343-4.957,6.124h-0.292c-0.109-0.974-0.08-0.487,0-1.458
			c-0.765-0.425-1.539-1.064-2.041-1.75c-0.905,0.019-1.84,0.041-2.333-0.292c-0.749,0.275-4.526,3.068-4.957,3.791
			c0.899,0.981,1.152,1.879,2.333,2.624c0,0,3.171-1,3.499-1.166h1.75c-0.357,0.996-0.826,1.039-1.166,2.041
			c-0.651-0.185-0.77-0.215-1.166-0.583c-1.639,0.055-2.009,0.456-2.624,1.458c-2.285,0.114-2.368,0.177-3.499-1.166
			c-1.508,0.062-1.915,0.383-2.624,1.166c-0.418,0.62-0.333,2.137-0.292,3.208c-0.097,0.097-0.194,0.194-0.292,0.292
			c-1.343-0.102-1.751-0.217-2.916,0c-0.619-0.988-1.432-1.953-2.041-2.916c-0.9-0.031-1.177-0.172-1.458,0
			c-1.396,0.103-1.695,0.337-2.041,1.458c-0.404,0.867,0.524,2.154,1.458,2.624c-0.157,0.381-0.106,0.21-0.292,0.292
			c-0.6,0.383-0.767,1.578-0.875,2.624c-0.972,0.194-1.944,0.389-2.916,0.583c0.19-1.624,0.894-3.418,0.875-3.791
			c-0.135-1.313-0.377-1.247-0.875-2.041c-0.778,0.097-1.555,0.194-2.333,0.292c-0.744-0.218-2.059-1.44-3.499-0.583
			c-0.205,0.122-0.283,1.049-0.583,1.166c-0.946,0.371-1.781-0.261-2.333,0c-1.794,0.245-1.691,1.238-3.208,1.75
			c0.162,0.366,0.351,0.881,0.583,1.166v1.75c-0.908-0.54-0.542-1.065-1.75-1.458c0.414-1.585,1.731-2.128,2.333-3.499
			c0.147-0.26,0.077-0.949-0.292-1.458c-1.186-2.161-3.465,0.371-4.082,1.458c-1.35-0.165-2.149-0.167-3.499,0
			c-0.195,0.363-0.317,0.603-0.583,0.875c-0.027,1.064-0.365,0.473,0.292,1.166v0.583c-0.866-0.409-1.516-0.702-2.041-1.458h-0.583
			c0.292-0.208,1.164-0.381,1.458-0.583c0.292-0.292,0.583-0.583,0.875-0.875c-0.093-1.978-0.782-1.943-1.75-2.916
			c-1.217,0.238-1.228,0.63-2.041,1.166c0.031,0.739,0.036,1.08,0.292,1.458v0.583h-0.292c-0.767-1.762-2.555-6.309-3.791-7.582
			c0.214-0.982,0.496-1.277,1.166-1.75c-0.091-1.099-0.259-1.319-0.583-2.041c-0.695-0.165-1.398-0.29-2.333,0
			c-0.383-1.854,0.589-2.776,0-4.082c-0.324-0.719-1.292-0.637-1.75-1.166c-0.519-0.601-2.089-5.824-2.333-6.707
			c-0.194-1.749-0.389-3.499-0.583-5.249c-0.479-1.465-1.592-3.364-2.041-4.957v-2.333c-0.512-1.898-1.343-4.34-2.333-6.124
			c-3.767-6.788-13.205-8.433-16.621-15.746c-1.239,0.241-1.056,0.512-1.75,1.166c0.91,4.612,10.188,9.214,13.705,11.956
			c5.578,4.347,5.69,14.354,8.165,22.162c0.729,2.3,2.699,5.693,1.75,8.456c0.097,0.097,0.194,0.194,0.292,0.292
			c-3.894-0.41-3.294-5.511-5.54-7.582c0.176-0.909,0.05-0.709,0.583-1.166v-1.458c-0.423-0.821-1.207-0.12-2.041-0.583
			c-1.264-1.652-2.527-3.305-3.791-4.957c-0.295-0.165,0.484-0.817,0.875-1.166c-0.074-1.869-0.463-1.524-1.458-2.333
			c-1.311,0.271-1.216,0.778-2.333,1.166c-7.064-7.743-15.858-9.032-28.285-11.372c-0.271,0.266-0.508,0.394-0.875,0.583
			c0.058,0.757,0.129,0.99,0.292,1.458c5.087,1.269,11.394,1.4,16.33,3.208c4.533,1.66,7.054,4.982,10.498,7.582
			c1.948,1.47,4.421,3.288,5.832,5.249c1.706,2.371,2.466,6.355,4.374,8.456c-0.596,1.281-1.06,1.038-0.875,2.624
			c-2.505-0.736-4.938-3.292-6.998-4.666c-4.119-2.745-8.218-3.91-10.789-8.165c-0.924,0.165-0.848,0.256-1.458,0.583
			c0.655,6.586,13.362,9.778,17.496,13.705c0.458,0.435-0.087,1.178,0.292,1.75c0.5,0.754,1.741,0.141,2.624,0.583
			c1.114,0.557,0.963,1.724,2.624,2.041c-0.299,0.586-0.688,0.809-1.166,1.166c0.09,1.533,0.421,2.064,1.458,2.624v0.292
			c-1.632-0.121-3.054-1.384-3.499-2.624c-0.979,0.168-1.22,0.324-1.75,0.875c-2.26,0.143-1.876,1.393-2.916,2.624
			c0.175,2.14,2.013,2.286,3.791,2.624v0.583l-1.75,1.75c-0.47-0.934-0.489-1.241-1.75-1.458c-0.564-0.259-0.616-0.167-1.166,0.292
			c-0.306-0.406-0.472-1.151-0.583-1.75c-0.503-0.188-0.285-0.057-0.583-0.292c-2.356-0.03-2.063,0.505-3.208,1.458
			c0.143,2.163,1.574,2.285,3.208,2.041c-0.162,0.366-0.351,0.881-0.583,1.166c-1.262,1.079-3.169,0.991-4.082-0.292
			c-1.609,0.262-2.635,0.942-2.624,3.208c-1.168-0.3-0.8-0.625-2.041-0.875c0.038-0.835,0.206-0.424,0-0.875
			c-0.076-1.486-0.339-1.481-0.875-2.333c-0.961-0.026-2.089-0.07-2.624,0.292c-0.667,0.301-0.632,0.5-1.166,0.875
			c0.184,1.12,1.409,3.464,2.041,4.374c-0.066,0.676-0.058,0.822-0.292,1.166v0.292h-0.292c0.097-0.486,0.194-0.972,0.292-1.458
			c-0.389-0.389-0.778-0.778-1.166-1.166c-0.802-0.18-1.618-0.484-2.333,0c-1.301,0.133-1.448,0.435-2.333,0.875
			c0.281,1.194,1.51,2.28,2.624,2.624c0.664,0.409,0.946,0.145,1.75,0v0.292c-0.708,0.385-0.206-0.136-0.583,0.583
			c-2.01-0.084-5.012-0.51-6.415-1.458c-0.322-0.627,0.29-0.549,0-1.458c-0.486-0.68-0.972-1.361-1.458-2.041
			c-1.711,0.133-1.747,0.616-2.624,1.458c-0.425,0.468-3.231-1.556-4.374-1.75c0.727-1.231,1.887-0.479,3.499-0.875
			c1.331-0.327,7.794-1.479,8.456-1.166c0.673-0.095,0.725-0.135,1.166-0.292c0.157-0.754,0.285-1.289,0.292-2.333
			c-2.423,0.019-4.329,1.193-6.124,1.166c-3.092-0.046-2.828-0.591-4.957-1.458c-0.858,0.264-0.939,0.691-2.041,0.875v1.166h-0.292
			c-0.25,0.193-0.916,0.394-1.166,0.583c-0.255-0.173-0.971-2.717-1.166-3.499c-0.486-0.097-0.972-0.194-1.458-0.292
			c-0.448,0.445-1.193,0.857-1.75,1.166c-0.118,1.272-0.454,2.023,0.583,2.624c-0.188,0.503-0.057,0.285-0.292,0.583
			c-2.153,1.577-4.66-1.534-6.415,0.292c-1.068-0.376-1.68-1.269-2.333-2.041c-0.599,0.116-0.562,0.072-0.875,0.292
			c-1.627,0.099-1.269,0.373-2.041,1.166c-0.539,0.827-1.874-0.206-2.916,1.166c-0.212,0.37,0.109,1.773,0.583,2.333v0.292h-1.458
			c-0.192-1.344-0.495-1.013-0.875-2.041c-1.214,0-1.738,0.034-2.333,0.583c-3.814-0.038-3.755,1.485-5.832,2.916
			c-0.234,0.311-3.045-1.582-4.374,0h-0.583c0.292-0.583,0.583-1.166,0.875-1.75c-0.583-0.583-1.166-1.166-1.75-1.75
			c-1.534,0.014-2.055,0.161-2.333,1.458c-0.709-0.369-1.22-1.223-1.458-2.041c-0.972-0.194-1.944-0.389-2.916-0.583
			c-0.221,0.712-0.089,1.637-0.292,2.041c0.229,1.268,0.854,1.782,1.75,2.333c-0.358,0.657-0.504,0.583-1.166,0.875
			c-0.457-0.522-0.252-0.422-1.166-0.583c0.03-1.13-0.091-0.712-0.292-2.041c-1.44-0.246-1.131-0.387-2.624-0.292
			c0.223-1.203,0.555-1.373,0.583-2.916c-1.811-0.212-3.818-0.125-4.666-0.875c-1.847,0.12-1.711,0.823-2.624,1.75
			c0.115,0.918,0.318,1.615,0.583,2.333c0.899,0.182,4.413-0.126,4.666-0.292h0.583c-0.959,1.827,0.212,3.669,1.458,4.957v0.583
			c-0.599-0.116-0.562-0.072-0.875-0.292c-1.348-0.862,0.016-0.605-0.583-1.75c-0.366-0.698-1.557-1.032-2.041-1.75
			c-1.78-0.105-2.356-0.753-3.791-0.292c-0.216-0.333-0.441,0.362-1.166,0.583c-0.074,1.114-0.339,1.731,0,2.333
			c-1.275,0.95-1.302,0.078-2.624-0.292c0.359-1.342,0.82-0.825,1.75-1.458c0.439-0.538,0.543-1.055,0.583-2.041
			c-0.55-0.52-0.912-1.226-1.458-1.75v-0.292c-0.71,0.244-2.088,0.933-2.624,1.458v0.583c0,0-0.878-0.205-1.166,0
			c-0.836,0.42-1.299,1.911-1.458,2.916c-0.503-0.188-0.285-0.057-0.583-0.292c-0.317-0.276-0.035-0.737,0.292-1.166
			c-0.282-1.986-2.374-2.605-3.791-1.166c-0.114-0.179-0.327-1.726-0.583-2.333c-1.99-0.058-2.765,0.293-3.208,1.75
			c-0.726-0.429-0.342,0.071-0.583-0.875c-0.795,0.007-1.336,0.011-1.75,0.292h-0.583l0.292-0.292
			c-0.002-1.394-0.163-1.846-0.583-2.624c-2.481,0.091-2.452,1-3.208,1.166c-0.972,0.214-1.079-1.104-2.333-0.875
			c-1,0.183-2.7,1.21-4.082,0c-1.803,0.034-2.293,0.593-2.624,2.041h-0.875l0.875-0.875c-0.032-0.83-0.117-1.247-0.292-1.75
			c-2.244-0.143-3.185-0.172-3.208,2.041h-0.292c-1.053-2.098-4.834-4.376-7.29-4.957c0.318-1.633,0.683-2.102,1.75-2.916
			c-0.113-2.529-1.261-2.497-1.75-4.374c-0.194-1.847-0.389-3.694-0.583-5.54c-2.106-7.037-4.641-13.121-8.748-18.079
			c-0.486-0.292-0.972-0.583-1.458-0.875c-1.965-1.888-3.794-4.026-5.832-5.832c-1.091-0.967-2.607-1.47-3.499-2.624
			c-0.676,0.066-0.822,0.058-1.166,0.292h-0.583c0.242,2.846,3.557,4.036,5.249,5.54c4.38,3.893,9.383,8.382,11.664,14.288
			c1.224,3.168,2.049,6.991,2.916,10.206c0.777,2.883-0.636,5.822,0.292,6.998c0.009,0.85,0.014,1.589-0.292,2.041
			c-0.353,0.407-2.507-0.476-3.499-0.583c-0.991-7.94-4.2-14.571-9.331-18.371c-0.3-0.235-0.072-0.108-0.583-0.292
			c-0.3,0.235-0.072,0.108-0.583,0.292c-0.066,0.676-0.058,0.822-0.292,1.166c1.058,2.965,4.262,4.772,5.832,7.29
			c0.871,1.396,1.882,3.775,2.333,5.249c0.243,0.793-0.023,1.533,0.292,2.041v2.624c-0.674-0.435-1.369-1.367-2.333-1.458
			c-0.985-0.093-1.656,0.957-2.333,1.166c-2.819-0.097-5.638-0.194-8.456-0.292c-0.135-1.313-0.377-1.247-0.875-2.041h-0.875
			c-0.731-9.654-8.097-22.449-13.414-27.702c-1.286-1.27-3.182-1.837-4.666-2.916c-3.465-2.519-6.029-6.977-10.789-8.165
			c-0.271,0.266-0.508,0.394-0.875,0.583c0.228,2.688,2.156,2.326,3.791,3.499c1.069,1.069,2.139,2.139,3.208,3.208
			c2.943,2.185,5.884,4.14,8.748,6.415c1.823,1.448,7.379,10.154,8.456,12.539c0.994,2.2,1.285,6.095,2.624,7.873
			c-0.156,1.3-0.715,1.944-1.458,2.624c0.072,2.246,0.708,1.753,2.041,2.624c0.22,0.366,0.022,0.279,0,1.166
			c-1.944-0.194-3.888-0.389-5.832-0.583c0.031-0.9,0.172-1.177,0-1.458c-0.269-0.787-0.501-0.854-0.875-1.458
			c-1.288-0.041-1.881-0.183-2.624,0c-0.319,0.751-0.683,1.362-0.292,2.041v0.583c-7.512-0.399-17.716-1.882-20.995-6.707
			c-0.924,0.165-0.848,0.256-1.458,0.583c0.031,0.739,0.036,1.08,0.292,1.458c0.555,1.122,2.506,1.283,2.916,2.333
			c0.523,1.341-0.915,1.799,1.458,2.624c-0.173,0.305-0.807,0.984-0.875,1.166c-0.649,1.754,1.719,3.169,2.916,2.333
			c1.046-0.403,1.245-1.161,1.458-2.333h0.292c0.456,0.691,0.868,0.848,1.166,1.75c0.377,0.945-0.936,1.318-1.166,2.333
			c0.097,0.486,0.194,0.972,0.292,1.458c-0.778,0.583-1.555,1.166-2.333,1.75c0.296,1.428,1.045,1.634,1.458,2.916h1.166
			c-0.755,2.869-4.42,1.576-5.832,2.041c-1.032,0.34-1.021,1.588-1.75,2.041c-1.011,0.629-2.071-0.151-3.208,0.583h-0.583
			c0.377-0.601,0.619-0.665,0.875-1.458c0.942,0.128,1.354,0.426,2.041,0c0.292-0.097,0.583-0.194,0.875-0.292
			c0.324-1.901-0.551-4.317,0-5.832c-0.277-1.091-0.643-0.995-1.166-1.75c-0.9,0.014-1.494,0.101-2.041,0.292
			c-0.482,1.835-0.352,2.818,0,4.666c-1.316-0.016-2.223,0.026-2.916,0.583c-1.041-0.354-1.312-0.828-1.75-1.75
			c-1.496,0.323-2.183,0.816-3.208,1.458c0.042,1.87,0.473,1.881,1.166,2.916c1.438,0.054,1.918,0.176,2.333-0.875h0.583v0.583
			c-1.053,0.522-1.545,1.06-2.916,0.583c-0.825,0.371-0.495,0.929-1.75,1.166v-0.875c-0.875-0.292-1.75-0.583-2.624-0.875
			c-0.402,0.495-0.82,0.881-1.166,1.458h-0.292c0.363-2.806,1.195-1.64-0.292-4.082c-0.835-0.038-0.424-0.206-0.875,0
			c-2.751,0.108-1.864,1.554-2.916,3.208c-0.188,0.503-0.057,0.285-0.292,0.583c-0.415-0.978-0.626-1.49-1.458-2.041
			c0.593-0.422,0.232,0.004,0.875,0c0.497-0.396,0.617-1.064,1.166-1.458c-0.097-0.875-0.194-1.75-0.292-2.624
			c-1.072-0.221-1.573-0.41-2.333,0.292c-0.676-0.066-0.822-0.058-1.166-0.292c-0.221-0.314-0.183-0.27-0.292-0.875
			c-0.676-0.066-0.822-0.057-1.166-0.292h-0.583v-2.333c-0.17-0.399-0.912-0.987-1.166-1.458c-0.599,0.116-0.562,0.072-0.875,0.292
			h-0.583c0.188-0.503,0.057-0.285,0.292-0.583c-0.176-1.621-0.777-1.624-1.458-2.624c-1.859-0.024-2.186,0.42-2.333,2.041
			c-0.988-0.507-1.12-1.645-0.292-2.333c0.043-1.907-0.259-2.782-2.041-2.916v-0.292c1.012-0.445,1.512-0.932,2.333-1.458v-2.333
			c1.583-0.189,1.414-0.74,2.624-1.166c-0.194-0.68-0.389-1.361-0.583-2.041c-1.201-0.465-1.298-0.353-2.916-0.292
			c0.159-0.794,0.408-1.097,0-1.75c-0.369-0.899-0.548-0.628-1.166-1.166c-0.235-0.3-0.108-0.072-0.292-0.583
			c0.955-0.446,1.805-0.962,2.624-1.458c0.061-1.657,0.069-2.214-1.166-2.624c0.329-1.609,1.202-1.81,1.458-3.499
			c0.668,0.381,0.793,0.489,1.166,1.166c1.381-0.215,1.385-0.435,2.624-0.292l0.292-0.292c-0.127-1.166-0.179-1.276,0-2.333
			c-0.235-0.3-0.108-0.072-0.292-0.583c-1.286-0.076-1.295-0.146-2.333,0c0.344-0.611,0.644-2.302,1.166-2.916
			c0.292-0.097,0.583-0.194,0.875-0.292c0.658-0.635,1.066-1.751,1.75-2.333c1.314-1.118,2.892-1.975,4.082-3.208
			c1.33-1.377,2.065-3.414,3.208-4.957c1.773-2.395,4.272-4.051,6.707-5.832c1.166-1.264,2.333-2.527,3.499-3.791
			c10.247-7.423,22.899-11.808,34.409-18.079c8.491-4.627,16.208-9.803,23.911-15.163c2.433-1.693,4.537-4.421,6.998-6.124
			c10.511-7.268,21.335-14.335,32.951-20.412c4.439-2.322,8.82-3.772,13.414-6.124c7.288-3.731,14.67-7.904,21.87-11.664
			c7.22-3.771,16.029-7.162,21.578-12.539h0.292c-1.923,8.619-4.544,16.605-8.456,23.328c-1.294,2.224-1.897,6.318-4.374,7.29
			c0.178,0.999,0.34,0.904,0.583,1.75c2.445-0.651,5.322-9.172,6.415-11.956c1.429-3.641,4.009-7.153,5.249-11.081
			c1.044-3.307,1.012-5.968,2.041-9.331c2.152-7.036,4.773-15.231,7.29-21.87c0.389-2.041,0.778-4.083,1.166-6.124
			c7.38-19.824,19.201-32.35,37.616-41.116c2.18-1.038,6.581-2,9.04-2.333c0.844-0.114,2.765,0.181,4.082-0.292
			c1.309-0.47,3.351-0.785,4.957-1.458c1.528-0.641,3.227-2.062,4.957-2.624c1.685-0.548,2.884-0.094,4.374-0.583
			c1.375-0.452,4.118-1.668,5.832-1.458c1.654,0.203,3.794,1.008,6.124,1.166c0.097,0.097,0.194,0.194,0.292,0.292
			c-0.787,0.679-1.445,0.084-2.624,0.583c-1.544,0.653-2.95,2.436-4.666,2.916c-1.53,0.428-2.879-0.611-3.791-0.875
			c-2.511-0.726-6.205-0.33-8.165,0.583c-6.938,3.233-15.482,8.591-20.704,13.705c-1.005,0.984-4.747,6.211-5.832,5.54
			c-0.545-0.025-1.518,2.04-2.041,2.333c-2.032,1.137-4.685,1.122-6.707,0.583c-0.097,0.097-0.194,0.194-0.292,0.292
			c0.014,0.9,0.102,1.494,0.292,2.041c4.036,0.026,6.749-0.668,8.748-2.624h0.292c-0.082,5.435-2.766,8.511-4.374,13.705
			c-0.996,3.218-0.573,6.213-1.458,9.914c-0.563,2.355-0.638,9.662,0.292,11.081c0.097,0.097,0.194,0.194,0.292,0.292
			c0.884-2.634-0.371-6.574,0.292-9.623c1.216-5.595,1.105-12.734,4.374-16.33v-0.583h0.292c-1.013,8.075-2.368,18.672-1.75,25.661
			h0.583c0.021-1.492,0.07-3.321-0.292-4.374c0.097-0.097,0.194-0.194,0.292-0.292c0.427,0.274,1.419,5.617,1.458,7.29h0.583
			c-0.018-6.285-0.352-11.534-0.292-17.204c1.207,1.939-0.137,11.234,1.166,13.414c0.097,0.097,0.194,0.194,0.292,0.292
			c0.54-1.962-1.19-11.02,0.292-13.414v-1.75h0.292c2.564,6.607,0.94,14.326,2.624,21.287c0.634,2.622,0.179,5.617,1.458,7.582
			v0.292h0.583c-0.367-1.862-0.301-8.212-1.166-9.623v-2.333h0.292c0.149,0.411,0.346,1.403,0.583,1.75v0.292h0.583v-0.583
			c0.825,1.196,1.987,7.552,2.041,9.331h0.875c-0.006-3.427-0.783-6.696-0.292-9.331c0.33-1.771,1.173-6.637,0.583-7.873
			c0.398-0.826,1.912-0.613,2.916-1.458c1.385,0.844,0.555,7.396,0.583,10.206c0.013,1.284-0.262,3.423,0,4.374
			c0.122,0.442,0.71,0.566,0.583,1.458c-0.17,1.192-0.626,3.138-0.292,4.666c0.062,0.283,0.589,2.363,0.583,2.624
			c-0.027,1.158-0.388,2.804,0,4.957c0.866,4.8,1.29,13.17,2.624,18.954c0.834,3.614-0.023,6.642,0.875,10.206
			c5.227,20.763,7.54,42.249,16.621,58.903h0.583c0.097-0.097,0.194-0.194,0.292-0.292c-0.149-1.044-0.232-1.252-0.875-1.75v-0.583
			c0.266,0.271,0.394,0.508,0.583,0.875c0.676-0.217,0.651-0.303,1.166-0.583c-1.153-8.459-1.685-19.611-3.499-27.119
			c-0.975-4.036,0.023-9.49-0.875-13.414c-0.608-2.657,0.544-6.273,0.292-8.456c-0.391-3.381-0.26-13.757,0.583-17.496
			c0.097-5.248,0.194-10.498,0.292-15.746c0.26-1.202-0.24-4.43,0.292-6.707c1.672-7.162,0.604-12.796,0.583-20.412h2.041
			c-0.132,1.597-0.253,2.004,0.292,3.208c1.03,0.415,1.246,0.427,2.333,0.292c-0.331,0.727-0.697,1.028-0.292,1.75
			c0.256,0.688,0.11,0.481,0.583,0.875c0.414,0.212,1.238,0.171,2.041,0.292c0.28-0.673,0.483-1.128,0.583-2.041
			c1.264-0.389,2.527-0.778,3.791-1.166c0.292-0.292,0.583-0.583,0.875-0.875c0.928-0.305,1.214,0.467,2.041,0
			c0.953-0.415,5.218-5.739,5.54-6.998c0.877,0.04,0.812,0.217,1.166,0c1.387,0.813,0.384,3.005,1.166,4.374v0.875
			c-0.594-0.21-1.364-0.302-2.333-0.292c-0.007,0.795-0.011,1.336-0.292,1.75c0.36,1.619,1.577,1.647,2.916,1.458
			c1.255,5.893,1.488,12.807,2.916,18.954v4.957c0.804,3.382,0.398,7.016,1.166,10.206c2.175,9.025,2.335,24.164,2.624,33.534
			c0.032,1.03-0.726,3.364-0.583,4.374c0.29,2.05,1.09,4.82,0.583,6.998c-0.776,3.336-0.715,8.894,0,11.664
			c0.444,1.721,0.039,3.919,0.875,5.249c-0.11,2.037-0.363,3.841,1.166,4.374l0.292,0.292v-0.292
			c4.461-1.82,2.47-14.035,3.791-19.537c0.476-1.981,0.672-5.075,1.166-7.29v-5.832c2.364-10.682,1.168-23.025,1.166-34.992
			c-0.001-5.421,0.575-20.093-0.875-22.745v-0.875h0.292c1.824,4.502,2.625,9.243,4.666,13.705
			c3.224,7.051,8.175,13.422,10.789,20.995c0.937,2.713,0.115,6.146,0.583,8.456c1.29,6.364,0.957,12.704,3.208,18.079
			c2.558,6.11,5.54,10.405,5.54,19.537V434.415z M329.21,482.82c-0.235-0.342-0.235-0.488-0.292-1.166
			C329.154,481.996,329.153,482.142,329.21,482.82z M144.627,490.985h0.583v0.583C144.411,491.367,144.739,491.748,144.627,490.985z
			 M329.793,321.565c-0.28-0.409-0.294-0.957-0.292-1.75C329.782,320.225,329.795,320.772,329.793,321.565z M427.188,467.365h-0.292
			c-1.237-2.94-1.548-7.951-1.458-11.372c0.194,0.097,0.389,0.194,0.583,0.292c0.018,1.947,0.055,8.257,1.166,9.914V467.365z
			 M427.479,472.031l0.583,0.292c0.036,1.195,0.188,3.069-0.292,3.791v0.292h-0.292V472.031z M431.562,487.777
			c-3.018-2.055-4.478-6.14-3.791-11.081c0.565,0.919-0.158,2.069,0,2.916c0.481,2.576,2.004,6.159,3.791,7.582V487.777z
			 M369.743,291.239c0.578,0.407,1.966-0.195,2.916,0.583c1.132,0.002,1.32,0.158,1.75-0.583c0.33-0.714-0.152-1.031-0.583-1.75
			c0.58-0.547,0.942-1.119,1.166-2.041h2.624c0.875,0.778,1.75,1.555,2.624,2.333c0.42,0.312,0.825,0.243,1.458-0.292
			c0.383-0.211-1.959-2.786-2.333-3.499c-1.441-0.346-2.886-0.624-4.957-0.583c-0.641,0.626-4.782,3.247-5.54,3.499
			C368.792,290.501,368.595,290.483,369.743,291.239z M365.952,285.99c-0.531,1.39-0.878,1.916-2.041,2.624
			c0.089,0.266,0.177,0.532,0.266,0.798c0.032,0.024,0.067,0.046,0.098,0.071c2.062-0.121,1.933-1.037,3.427-1.744
			c0.188-0.503,0.057-0.285,0.292-0.583c-0.095-0.673-0.135-0.724-0.292-1.166H365.952z M364.177,289.413
			c-2.157-1.627-5.796-2.209-8.139-2.256c-1.125,0.762-2.831,0.588-3.791,1.458c-0.347-0.33-0.626-0.741-0.875-1.166
			c-0.787,0.269-0.854,0.501-1.458,0.875c0.269,1.107,0.274,1.017,1.458,1.166c-0.436,0.895-1.014,2.28-0.875,2.916v0.875
			c1.779-0.892,1.637-3.071,3.791-3.791c1.062-0.747,4.005-0.68,4.957,0h1.166c-1.05,0.394,1.027,3.266,1.166,3.791
			c2.053,0.555,2.763,0.478,4.374-0.583c0.016-1.361-0.653-2.409-1.677-3.213c-0.025,0.001-0.047,0.004-0.072,0.006
			C364.194,289.464,364.185,289.439,364.177,289.413z M370.326,291.822h-1.458c-0.116,0.599-0.072,0.562-0.292,0.875
			c0.217,0.676,0.303,0.651,0.583,1.166h1.75c-0.066-0.676-0.058-0.822-0.292-1.166C370.52,292.405,370.423,292.114,370.326,291.822
			z M386.364,293.28v-0.875c-0.486-0.097-0.972-0.194-1.458-0.292c-0.342,0.235-0.488,0.235-1.166,0.292
			c0.219,0.91,0.51,1.376,0.875,2.041C385.853,294.206,385.67,293.934,386.364,293.28z M366.243,292.989
			c-0.188,0.503-0.057,0.285-0.292,0.583c0.05,1.092-0.152,1.032,0.583,1.458c0.3,0.235,0.072,0.108,0.583,0.292
			c0.292-0.292,0.583-0.583,0.875-0.875c-0.165-0.924-0.256-0.848-0.583-1.458H366.243z M379.074,293.28
			c-0.637,1.266-0.449,1.196,0.292,2.333h0.583c0.195-0.363,0.317-0.603,0.583-0.875c-0.058-0.757-0.129-0.99-0.292-1.458H379.074z
			 M358.662,295.613c0.292-0.097,0.583-0.194,0.875-0.292c-0.097-0.583-0.194-1.167-0.292-1.75c-1.086,0.207-1.031,0.428-1.75,0.875
			c0.097,0.486,0.194,0.972,0.292,1.458C358.386,295.788,358.349,295.832,358.662,295.613z M324.836,300.862
			c0.875,0.231,1.025,0.451,2.041,0.583c2.77-2.813,3.979-2.266,3.208-7.29c-1.471-0.183-2.908-0.263-4.082,0.583
			c-2.248,0.899-2.146,4.319-3.791,5.832v2.333C323.394,302.535,324.236,301.807,324.836,300.862z M340.291,295.613
			c0.165,0.924,0.256,0.848,0.583,1.458c0.924-0.165,0.848-0.256,1.458-0.583v-1.458c-0.583-0.097-1.166-0.194-1.75-0.292
			C340.466,295.337,340.51,295.3,340.291,295.613z M349.331,295.03c-0.159,0.794-0.408,1.097,0,1.75v0.583h1.166
			c0.188-0.503,0.057-0.285,0.292-0.583C350.588,295.591,350.369,295.354,349.331,295.03z M390.738,297.946
			c0.188-0.503,0.057-0.285,0.292-0.583c-0.058-0.757-0.129-0.99-0.292-1.458h-1.458c-0.278,0.792-0.283,1.54,0,2.333
			C390.037,298.179,390.27,298.108,390.738,297.946z M364.494,296.779c-0.676,0.217-0.651,0.303-1.166,0.583
			c0.16,0.444,0.206,0.487,0.292,1.166c0.503,0.188,0.285,0.057,0.583,0.292c0.924-0.165,0.848-0.256,1.458-0.583
			c-0.097-0.583-0.194-1.167-0.292-1.75C364.77,296.604,364.807,296.56,364.494,296.779z M346.706,298.237
			c-0.176-0.909-0.05-0.709-0.583-1.166c-0.483-0.272-0.822,0.216-1.458,0.583v1.458c0.83-0.032,1.247-0.117,1.75-0.292
			C346.603,298.317,346.472,298.535,346.706,298.237z M358.953,296.779c-0.271,0.266-0.508,0.394-0.875,0.583
			c-0.188,0.503-0.057,0.285-0.292,0.583c0.165,0.924,0.256,0.848,0.583,1.458c0.486-0.097,0.972-0.194,1.458-0.292
			c0.097-0.097,0.194-0.194,0.292-0.292C360.075,297.3,359.958,297.279,358.953,296.779z M377.033,298.821
			c0.757-0.058,0.99-0.129,1.458-0.292v-1.75c-0.68,0.097-1.361,0.194-2.041,0.292C376.627,298.07,376.789,297.975,377.033,298.821z
			 M385.781,299.112c0.22-0.366,0.022-0.279,0-1.166c-0.389-0.097-0.778-0.194-1.166-0.292c-0.3,0.235-0.072,0.108-0.583,0.292
			c-0.116,0.599-0.072,0.562-0.292,0.875c0.217,0.676,0.303,0.651,0.583,1.166C385.524,299.88,385.409,300.057,385.781,299.112z
			 M362.453,299.112c-0.314,0.221-0.27,0.183-0.875,0.292l-0.292,0.292c0.066,0.676,0.058,0.822,0.292,1.166v0.583
			c0.787-0.269,0.854-0.501,1.458-0.875C362.939,299.532,363.018,299.598,362.453,299.112z M337.958,300.862v1.75
			c0.599-0.116,0.562-0.072,0.875-0.292c0.676-0.217,0.651-0.303,1.166-0.583v-0.875c-0.503-0.188-0.285-0.057-0.583-0.292
			C338.659,300.628,338.426,300.699,337.958,300.862z M346.706,304.361c-0.271,0.266-0.508,0.394-0.875,0.583
			c0.097,0.486,0.194,0.972,0.292,1.458l0.292,0.292c0.757-0.058,0.99-0.129,1.458-0.292c-0.066-0.676-0.058-0.822-0.292-1.166
			C347.243,304.412,347.544,304.687,346.706,304.361z M338.833,305.527c-0.284,0.515-0.377,0.482-0.583,1.166
			c-0.235,0.3-0.108,0.072-0.292,0.583c0.266,0.271,0.394,0.508,0.583,0.875c0.673-0.095,0.724-0.135,1.166-0.292
			C339.745,306.354,339.759,306.064,338.833,305.527z M328.044,306.111c-2.756,0.619-3.275,2.672-7.29,2.624
			c0.105,1.093,0.226,1.084,0.583,1.75c3.499-0.123,4.401-1.709,6.998-2.333C328.321,307.252,328.234,306.657,328.044,306.111z
			 M347.289,308.735h-1.166c-0.284,0.515-0.377,0.482-0.583,1.166c0.526,0.455,0.365,0.582,1.166,0.875
			c0.3,0.235,0.072,0.108,0.583,0.292c0.194-0.194,0.389-0.389,0.583-0.583c-0.097-0.486-0.194-0.972-0.292-1.458L347.289,308.735z
			 M379.365,342.852c-0.295-0.907-0.736-1.311-1.166-2.041c-0.875,0.097-1.75,0.194-2.624,0.292c-0.132,1.25-0.129,1.374,0,2.624
			c0.363,0.195,0.603,0.317,0.875,0.583c0.977-0.055,1.752-0.154,2.333-0.583C378.983,343.503,379.167,343.077,379.365,342.852z
			 M365.369,344.893c-0.188,0.503-0.057,0.285-0.292,0.583c0.074,1.869,0.463,1.524,1.458,2.333
			c1.067-0.195,1.246-0.483,2.041-0.875c-0.19-1.07-0.755-2.06-1.458-2.624C366.604,344.784,366.383,344.838,365.369,344.893z
			 M381.698,348.393c-1.069-0.292-2.138-0.583-3.208-0.875c-0.162,0.366-0.351,0.881-0.583,1.166
			c-0.025,1.247-0.056,1.783,0.583,2.333c0.434,0.187,0.126,0.362,0.583,0c1.624-0.033,1.725-0.307,2.624-0.875
			C381.599,349.095,381.498,349.165,381.698,348.393z M372.95,354.808c0.676-0.217,0.651-0.303,1.166-0.583
			c0.188-0.503,0.057-0.285,0.292-0.583c-0.163-1.469-0.637-1.603-1.166-2.624h-1.458c-1.113,1.644-1.488,1.371-0.583,3.499
			C371.996,354.523,372.537,354.528,372.95,354.808z M380.823,355.974c0.002,0.97,0.084,1.735,0.292,2.333
			c1.609,0.047,1.531,0.155,2.624-0.292c0.28-0.673,0.483-1.128,0.583-2.041c-1.194-0.236-1.6-0.724-2.624-1.166
			C381.409,355.361,381.297,355.609,380.823,355.974z M373.533,355.391c-0.583-0.097-1.166-0.194-1.75-0.292
			c-0.256,0.688-0.11,0.481-0.583,0.875c0.176,1.621,0.777,1.624,1.458,2.624c1.214-0.105,1.239-0.139,1.75-0.875l0.292-0.292
			h-0.292C374.273,356.119,374.031,356.186,373.533,355.391z"/>
	</g>
</g>
</svg>
