<?xml version="1.0" encoding="utf-8"?>
<!-- Generator: Adobe Illustrator 21.0.0, SVG Export Plug-In . SVG Version: 6.00 Build 0)  -->
<svg version="1.1" id="Calque_1" xmlns="http://www.w3.org/2000/svg" xmlns:xlink="http://www.w3.org/1999/xlink" x="0px" y="0px"
	 viewBox="0 0 841 595" style="enable-background:new 0 0 841 595;" xml:space="preserve">
<style type="text/css">
	.st0{fill:#DADADA;}
	.st1{fill:#1D1D1B;}
</style>
<g>
	<g>
		<path class="st0" d="M383.3,257.9c0.6-2.6,4.4-3.4,1.8-6.9c-0.1,0-0.1-0.1-0.2-0.1c-0.3,0-0.7,0-1,0c0,0.1,0,0.3,0,0.4
			c-2,0.5-1.3,4.8-0.9,6.5C383.1,257.8,383.2,257.8,383.3,257.9z M385.1,261.1c0.2,0,0.4,0,0.7,0c2.6-1.3,4.3-3.8,6.1-5.8
			c0-0.1,0-0.2,0-0.3c0,0-0.1-0.1-0.1-0.1c-0.5,0-1,0-1.5,0c-2.2,1.5-4.9,2-5.5,5.4C384.8,260.6,384.9,260.8,385.1,261.1z
			 M379.7,258.8c-0.1-0.1-0.1-0.1-0.2-0.2c-0.6-1.3-2.3-2.6-3.6-3.2C375.9,257.1,378.1,258.7,379.7,258.8z M371.3,258.8
			c-0.3,0-0.5-0.1-0.8-0.1c-0.5,0.5-1.6,0.6-2.1,1.1c0,0.2,0.1,0.4,0.1,0.7c-0.2,0.4-1,0.6-1.3,1c-0.6,0.7-0.5,1.7-1,2.5
			c-0.7,1.2-1.9,3-2.6,4.5c0.8,0.9,2.5,1.7,3.4,2.4C370.1,268.2,372.3,263.6,371.3,258.8z M374.9,267.6c0,0,0.1,0,0.1,0
			c1.1-1.5,3.1-1.8,3.9-3.6c-0.1-0.4-0.1-0.7-0.2-1.1c-0.2,0-0.4-0.1-0.7-0.1c-1.2,1-4.2,2-3.5,4.4
			C374.6,267.3,374.8,267.5,374.9,267.6z M384.6,263.7c-2.4,3.4,5.5,7.8,7.3,4.2C391.6,265.6,387,263.8,384.6,263.7z M376.6,269.2
			c0,0,0,0.1,0,0.1c1.1,0.2,1.6,0.8,2.2,1.5c1.4-1,2.2-2.1,4.7-2.1c0-0.1-0.1-0.2-0.1-0.3c-1.2-0.7-1.6-2.2-2.8-2.8
			C380.1,267.1,377.6,267.8,376.6,269.2z M359,272.5c0.5-1.2,1-2.4,1.5-3.6c-1.1-1.6-2.3-2.7-5.1-2.6
			C354.2,270.1,355.1,271.9,359,272.5z M392.7,272.9c1.5-1.7,3.3-2.6,4.2-5c0-0.1-0.1-0.1-0.1-0.2c-0.2-0.1-0.4-0.1-0.5-0.2
			c-0.4,0.4-1.2,0.3-1.8,0.7c-0.4,0.3-0.2,0.8-0.5,1.2c-0.9,1.1-2.3,2.1-4.1,2.2C390.1,272,391.9,272.8,392.7,272.9z M370.6,270.1
			c0.7-0.1,1.5-0.3,2.2-0.4c-0.1-0.5-0.8-1.8-1.2-2.1c-0.4,0.7-0.7,1.5-1.1,2.2C370.5,269.9,370.6,270,370.6,270.1z M387.7,272.4
			c0-0.1,0-0.3,0-0.4c-0.2-0.3-0.4-0.7-0.5-1c-0.3-0.1-0.6-0.1-0.9-0.2c0,0.7,0.1,1.5,0.1,2.2c0,0,0.1,0,0.1,0
			C386.9,272.8,387.3,272.6,387.7,272.4z M384,271c-0.4,0-0.8-0.1-1.2-0.1c-0.8,0.6-1.7,1.2-2.5,1.8c-1.1,1.5-2.3,5-1.2,7.1
			c0.2,0.1,0.4,0.1,0.7,0.2C381.5,279.5,384.7,273.5,384,271z M367.3,275.9c-0.7,0.2-0.9,0.4-1,1.2c3,0.8,8.9-3,10.2-5.4
			c-0.1-0.1-0.1-0.2-0.2-0.3c-0.8,0-1.6-0.1-2.4-0.1C370.9,272.4,366.7,272.1,367.3,275.9z M392.3,277c1.8,2.5,7.5,3.3,10.4,1.2
			c0.3-3.1-1.1-3.4-3.9-3.8C396.6,275.5,393.9,274.8,392.3,277z M376.4,279.3c0-1.5,0.1-3.1,0.1-4.6c-0.9,0.6-1.8,1.2-2.6,1.9
			c0.4,0.3,0.8,0.7,1.2,1c0.4,0.8,0.9,1.6,1.3,2.4C376.4,279.8,376.4,279.5,376.4,279.3z M358.4,276.7c-0.3-0.8-0.3-0.8-0.2-1.6
			c-2,0.1-5,2.5-5.4,4.2c0,0,0.1,0.1,0.1,0.1C354.9,279.4,358,278.1,358.4,276.7z M371.6,278c-0.9,0.5-1.8,1-2.6,1.5
			c0.6,1.6,1.8,2.8,2.1,4.7c1.2,0,2.4-0.3,3.2-0.8C374.9,280.8,373.6,279,371.6,278z M367.4,287.4c3.9-2-0.6-7.9-3-8.8
			c-0.3,0.3-0.6,0.6-0.9,0.9c0.1,1.2,0.1,2.4,0.2,3.6C364.3,284.4,366.1,286.8,367.4,287.4z M350.3,290.7
			c3.8-1.1,10.3-7.1,11.1-10.9c-0.6-0.2-1.2-0.4-1.9-0.7c-3,2.3-6,4.8-8.2,7.9C350.7,287.9,349.2,290.1,350.3,290.7z M390.9,280
			c-0.2-0.3-0.4-0.6-0.5-0.9c-0.6,0-1.2,0-1.9,0c-0.9,0.1-1.9,0.2-2.8,0.3c-1.7,0.5-3.3,1.5-4.3,2.8c0,0.7-0.1,1.3,0.1,1.6
			c0.4,0.7,0.8,0.6,1.5,0.9C386.8,286.4,389.2,282.6,390.9,280z M392.9,281.1c-0.1,0-0.2,0-0.3,0c-0.5,0.7-1.1,1.5-1.6,2.2
			c0,2.2,2,4.7,3.3,5.7c0.3-0.1,0.6-0.1,0.9-0.2C395.9,285.5,394.4,283.3,392.9,281.1z M456.6,328.7c0-0.2,0-0.4,0-0.7
			c-2.1-1.8-4-4.1-6.1-5.7c-6.6-4.9-13.2-9.7-19.8-14.7c-0.4-0.5-0.9-1-1.3-1.5c-3.3-2.5-7.1-4.4-10.3-7.1c-1.3-1.3-2.6-2.6-3.8-3.9
			c-3.4-2.7-7-5.1-10.5-7.9c-2.9-2.3-4.2-5.3-8.8-6.1c0.7,1.6,1.3,3.3,2,4.9c0.5,2-1,3.1-0.9,4.3c0.2,0.8,0.4,1.5,0.7,2.3
			c-0.1,1.1-0.2,2.1-0.3,3.2c0,2.6,0,5.2,0,7.8c0,0,0.1,0,0.1,0c0.5-0.4,2-0.5,2.7-0.3c0-0.8,0.3-0.8,0.5-1.4
			c0.5,0.2,1.1,0.4,1.6,0.5c0.1,0.2,0.2,0.4,0.3,0.7c-0.2,0.9-0.8,1.4-1.4,1.9c0.3,0.6,0.5,0.7,0.5,1.5c-1,0.4-2.1,0.5-3,1.1
			c-1.2-0.3-1.4-0.8-1.1-2.1c-0.2-0.1-0.4-0.3-0.5-0.4c0,1.7,0.2,2.2-0.2,3.6c1.2-0.1,2.4,0.3,2.6,1.2c-0.4,0.3-0.5,1-1,1.2
			c-0.6,0-1.2,0.1-1.8,0.1c-0.3,1.2-0.6,2.4-0.9,3.6c0.1,0,0.1,0,0.2,0c0.1,0,0.3,0.1,0.4,0.1c0.2-0.2,0.4-0.4,0.5-0.7
			c0-0.4-0.1-0.8-0.1-1.2c0.3-0.3,0.5-0.4,1-0.4c0-0.7,0.1-0.8,0.3-1.2c0.3-0.1,0.6-0.1,0.9-0.2c0.6,0.4,1,0.5,1.4,1.2
			c-0.5,1-1.4,1.8-2,2.6c0.1,0.1,0.2,0.3,0.3,0.4c0.9-0.3,1.2-0.7,1.8-1.3c0.3,0,0.7,0.1,1,0.1c1.2,0.5,0.6,1.5,0.4,2.1
			c0.8,0.2,1.3,0.5,1.4,1.3c-0.4,0.4-0.8,0.7-1.2,1.1c-0.2,0-0.4,0-0.5,0c-0.4-0.5-0.8-1.3-1.2-1.8c-0.4,0.3-0.8,0.3-1.5,0.3
			c-0.3-0.4-0.5-0.7-0.8-1.1c-0.3,0.1-0.7,0.3-1,0.4c0.2,0.5,0.1,1-0.1,1.4c-0.8,0.4-1.4,0.1-2.3,0.1c0.1,1.1-0.4,1.9-1.4,2
			c-0.1,0-0.1-0.1-0.2-0.1c-0.1-0.6-0.4-0.9-0.9-1.2c0.2,0.4,0.4,0.9,0.7,1.3c-0.2,0.3-0.4,0.6-0.5,0.9c-0.3,0-0.7-0.1-1-0.1
			c-0.7-0.3-0.7-0.7-1-1.1c-0.2,0.1-0.4,0.2-0.7,0.3c0.6,1.2-0.2,2.7-1.5,1.8c-0.4-0.2-0.4-0.4-0.5-0.9c-0.5,0.3-1,0.5-1.5,0.8
			c0.6,1.2-0.3,1.7-1.6,1.6c0,0.5,0,0.8-0.2,1c-0.9,0.7-1.5,0.4-2.2-0.2c0.1-0.4,0.1-0.8,0.2-1.2c-0.6,0.1-1.2,0.1-1.8,0.2
			c0,0.1-0.1,0.1-0.1,0.2c0,0,0,0.1,0,0.1c0.4,0.1,0.7,0.3,1.1,0.4c0,0.1-0.1,0.1-0.1,0.2c-1.1-0.3-1,0.6-2,0.9
			c1,2.5-1.2,1.7-2.6,1.6c-0.7,0.1-1.4,0.3-2.1,0.4c-0.1-0.5-0.3-1.1-0.4-1.6c0.1-0.2,0.2-0.4,0.3-0.5c1-0.2,1.4,0.2,2.1,0.4
			c-0.2-0.3-0.4-0.5-0.7-0.8c0-0.8,0.1-1.1,0.3-1.5c-0.1,0-0.1-0.1-0.2-0.1c-0.5,0-0.9,0-1.4,0c0,1.4-1,2.1-1.5,3.3
			c0.6,0.1,0.7,0.2,1.1,0.4c0.2,0.8,0.2,1,0.3,1.8c-0.7,0.2-1.7-0.1-2.2-0.4c-0.2-0.8-0.2-1.2,0.1-1.9c-0.8-0.2-1.8-0.3-2.6-0.5
			c-0.1,0.9-0.3,0.9-0.8,1.3c-0.8,0-1.1-0.1-1.4-0.5c-0.1-0.3-0.1-0.7-0.2-1c0.3-0.4,0.4-0.6,1-0.8c-0.3-0.9-0.9-1.2-1.6-1.8
			c-0.6,1.5-1.9,0-2.3-0.7c0.2-0.7,0.5-1,0.9-1.5c-0.9-0.5-1.4-1.2-1.9-2.2c-0.7,0-1.5,0-2.2,0c-0.8-1.1-3-4.9-2.5-5.9
			c0.1-0.1,0.1-0.2,0.2-0.3c0.5,0,1-0.1,1.5-0.1c0.1,0.6,0.4,1.8,0.8,2.1c0.2,0,0.4,0,0.5,0c0,0,0-0.1,0-0.1
			c-0.4-0.9-0.7-1.9-1.1-2.8c-0.7,0-0.9-0.1-1.3-0.3c0-0.2,0-0.4,0-0.7c-0.8,0.1-1.2,0.1-1.8-0.2c-0.1-0.6-0.3-0.9-0.2-1.5
			c0.8-0.2,1.3-0.4,2.1,0c0.1,0.4,0.3,1.1,0.7,1.3c-0.2-0.9-0.8-1.7-0.5-2.6c-0.4-0.3-1.6-0.9-1.6-0.9c0,0.3,0,0.7-0.4,0.9
			c-0.3,0.1-0.6,0.1-0.9,0.2c-0.3-0.2-0.5-0.4-0.8-0.5c0-0.6,0.2-2.2,0.2-2.2c-0.1-0.7,0.1-0.8,0.8-1.1c1,0.4,1,0.7,1.6,1.3
			c0.2-0.1,0.4-0.3,0.7-0.4c-0.1-0.4-0.2-0.8-0.3-1.2c-0.9-0.2-1.3-0.1-2-0.7c0-0.3-0.1-0.5-0.1-0.8c0.5-0.7,0.7-1.1,1.6-1.2
			c-0.4-1.8-1-9.6-0.5-11.4c0.5-1,1-2,1.5-3c-0.2,0.2-0.4,0.4-0.5,0.5c-3.1,1.5-6.6,8.5-11.5,4.8c-0.1-1.2,0.2-2.3,0.8-3.4
			c-4,0.5-7,3-10.1,4.6c-1.4,0.7-3.9,1.3-4.3,3c3.9,4.4,7.5,9,11.5,13.4c1.4,1.5,4.2,3.2,5.3,4.8c2.2,3.2,5,5.9,8,8.3
			c2.3,1.8,3.8,4.8,6.1,6.7c2.1,1.8,4.2,3.5,6.4,5.3c1.5,1.5,2.9,3,4.4,4.5c2.3,1.8,4.7,3.8,6.8,5.9c2.3,2.2,4.2,5,6.7,7
			c1.6,1.4,3.2,2.7,4.8,4.1c1.3,1.4,2.9,4.2,5.1,4.5c5-3,9.7-6.5,14.7-9.3c3.1-1.5,6.3-2.9,9.4-4.4c5-2.6,10.1-5.3,15-8
			c4.6-2.6,9.6-4.6,14-7.2c1.6-0.9,3.7-1.2,4.8-2.5C456.9,328.7,456.7,328.7,456.6,328.7z M400.8,300.9c-0.6,0.5-0.3,1-1.3,1.1
			c-0.3-0.2-0.6-0.4-0.9-0.7c0-0.7,0.2-0.8,0.4-1.3c1.1,0,1.1,0.3,1.9,0.7C400.9,300.7,400.9,300.8,400.8,300.9z M402.1,298.3
			c-0.1,0-0.2,0.1-0.3,0.1c-1,0.5-1.8-0.1-1.9-1.1c0.1-0.2,0.3-0.4,0.4-0.5c0.5,0.1,1,0.1,1.5,0.2c0.1,0.2,0.2,0.4,0.3,0.5
			C402.2,297.7,402.2,298,402.1,298.3z M357.7,309.5c-0.5-0.1-0.3,0-0.5-0.3C357.5,309.3,357.5,309.3,357.7,309.5z M351.1,305.4
			c0.3-0.1,0.5-0.2,0.8-0.3c0.3,0,0.7,0.1,1,0.1c0.2,0.4,0.4,0.8,0.7,1.2c-0.3,0.4-0.5,0.8-0.8,1.2c-0.1,0-0.3,0-0.4,0
			C351.6,306.9,350.8,306.8,351.1,305.4z M353,313.4c-0.3,0.2-0.8,0.3-1.3,0.3c-0.3-0.2-0.7-0.4-1-0.7c0.3-0.4,0.3-0.6,0.3-1.4
			c0.1-0.1,0.3-0.1,0.4-0.2c0.7,0.2,1.3,0.4,2,0.5c0.1,0.1,0.1,0.3,0.2,0.4C353.4,312.7,353.3,313.2,353,313.4z M354.5,308
			c0.3-0.2,0.5-0.4,0.8-0.7c0.2,0,0.4-0.1,0.5-0.1c0.3,0.1,0.7,0.3,1,0.4c0.1,0.4,0.1,0.8,0.2,1.2c-0.1,0.1-0.3,0.3-0.4,0.4
			c-0.6,0-1,0.1-1.5-0.1C354.4,309,354.2,308.6,354.5,308z M355.7,310.2c0.3,0,0.7,0.1,1,0.1c0.3,0.2,0.5,0.4,0.8,0.7
			c0.1,1.1-0.2,1.4-1.2,1.4c-0.3-0.2-0.5-0.4-0.8-0.7c-0.2-0.3-0.2-0.4-0.2-0.9C355.4,310.6,355.6,310.4,355.7,310.2z M355.7,315.7
			c-0.1-0.5-0.4-0.8-0.2-1.2c0.2-0.2,0.4-0.4,0.7-0.7c1.2,0,1.5,0.8,1.9,1.6C357.1,316,356.7,316.3,355.7,315.7z M360.3,320.3
			c-0.6-0.3-0.8-0.7-0.9-1.5c0.1-0.1,0.1-0.2,0.2-0.3c0.3-0.1,0.5-0.1,0.8-0.2c0.4,0.2,0.7,0.4,1.1,0.7c0,0.5,0.1,0.9,0.1,1.4
			C361.1,320.4,360.6,320.5,360.3,320.3z M363.5,323c-0.4,0.1-0.7,0.1-1.1,0.2c-0.3-0.4-0.7-0.8-0.5-1.4c0.1-0.1,0.1-0.3,0.2-0.4
			c0.2,0,0.4-0.1,0.7-0.1c0.4,0.2,0.8,0.4,1.2,0.7C363.8,322.3,363.6,322.6,363.5,323z M367.5,325.5c0,0.7-0.1,0.9-0.3,1.3
			c-0.7,0.1-1.2,0.4-1.5-0.1c0.2-0.5,0-0.9,0.1-1.5c0.1-0.1,0.3-0.1,0.4-0.2c0.8,0,0.9,0.1,1.3,0.4
			C367.5,325.4,367.5,325.5,367.5,325.5z M372.2,330c0.1,0.3,0.3,0.5,0.4,0.8c0,0-0.1,0-0.1,0c-0.5-0.5-0.5-0.8-1.5-0.8
			c-0.2-0.7-0.6-0.9-0.2-1.3c0.1-0.3,0.2-0.6,0.3-0.9c0.5,0,1,0.1,1.3,0.3c0.5,0.3,0.8,1,1,1.6C372.8,329.8,372.8,329.8,372.2,330z
			 M376.3,327.2c0.2,0,0.4,0.1,0.7,0.1c0.3,0.3,0.6,0.5,0.9,0.8c0,1-0.6,2.3-1.1,3.1C373.8,331.6,375.6,328,376.3,327.2z M377.8,335
			c-0.4-0.4-0.4-0.4-1-0.5c0-0.5,0.1-1.1,0.1-1.6c0.1-0.1,0.3-0.2,0.4-0.3c0.7,0,1,0.3,1.4,0.5c0.1,0.2,0.1,0.4,0.2,0.7
			C378.6,334.2,378.2,334.6,377.8,335z M381.7,329.5c0,0.4-0.1,0.8-0.1,1.2c-0.4,0-0.9,0-1.3,0c-0.4-0.2-0.5-0.2-0.7-0.7
			c0-0.2-0.1-0.4-0.1-0.7c0.2-0.2,0.4-0.4,0.5-0.7c0.7,0.2,1.2,0.3,1.6,0.7C381.7,329.4,381.7,329.4,381.7,329.5z M385.3,327.5
			c1,0.1,1.2,0.3,1.6,1c-0.2,0.4-0.4,0.8-0.5,1.2C384.8,329.9,384.1,328.3,385.3,327.5z M386.6,334.1c-0.2-0.2-0.4-0.4-0.7-0.5
			c0-0.8,0.2-1,0.5-1.4c0.5,0.1,0.9,0.3,1.4,0.4c0,0.4,0.1,0.8,0.1,1.2C387.6,334,387.2,334.3,386.6,334.1z M388.7,324.3
			c-0.2,0.4-0.2,0.4-0.7,0.5c-0.6,0-1.2,0-1.8,0c0-0.1-0.1-0.1-0.1-0.2c0.5-0.6,0.5-1.4,1.1-1.9
			C388.2,322.8,389.1,323.4,388.7,324.3z M390.4,323.9c0.1-0.5,0.2-0.5,0.7-1c0.2,0,0.4,0.1,0.7,0.1c0.5,0.2,0.8,0.5,0.9,1.2
			c-0.3,0.3-0.5,0.5-0.8,0.8c-0.2,0-0.4-0.1-0.7-0.1C390.6,324.6,390.3,324.1,390.4,323.9z M393.5,328.9c-0.2,0.2-0.4,0.4-0.5,0.7
			c-0.7,0-1-0.1-1.3-0.5c-0.3-0.5-0.1-1.1,0-1.6c0.8,0.1,1.2,0.2,1.9,0.7c0,0.1,0.1,0.1,0.1,0.2
			C393.6,328.5,393.5,328.7,393.5,328.9z M411.1,301.2c0.4,0.2,0.8,0.4,1.2,0.5c0,0.2,0.1,0.4,0.1,0.5c-0.3,0.3-0.7,0.6-1,0.9
			c-0.5-0.1-0.6-0.2-0.9-0.5C410.1,301.8,410.5,301.6,411.1,301.2z M409.1,322.1c-0.9-0.1-1.1-0.4-1.4-1.1c0.1-0.3,0.2-0.7,0.3-1
			c0.2,0,0.4-0.1,0.5-0.1c0.6,0.1,0.6,0.2,1,0.4C409.7,321.3,409.7,321.6,409.1,322.1z M406.5,304.3c0.4,0.2,0.2,0.3,0.7-0.2
			c0.8,0,1.4,0.2,1.8,0.7c0,0.3,0,0.7,0,1c-0.5,0.1-0.9,0.3-1.4,0.4c-0.4-0.5-0.8-1.1-1.2-1.6C406.4,304.4,406.4,304.4,406.5,304.3z
			 M406.2,312.4c0.3-0.5,0.5-0.5,1-0.8c0.3,0.1,0.7,0.1,1,0.2c0.1,0.2,0.2,0.4,0.3,0.7c0,0.2-0.1,0.4-0.1,0.5
			C407.8,314,405.3,314,406.2,312.4z M403.7,295.4c1,0.1,1.2,0.5,1.5,1.3c-0.4,0.5-0.7,0.6-1.4,0.9c-0.3-0.3-0.6-0.5-0.9-0.8
			C402.9,295.8,403.1,295.8,403.7,295.4z M405.1,303c-0.2,0.6-0.2,0.9-0.8,1.1c-0.4,0.1-0.6,0.1-1-0.1c-0.3-0.7-0.3-1-0.1-1.8
			c0.1-0.1,0.3-0.1,0.4-0.2C404.4,302,404.9,302.3,405.1,303z M402.1,306.6c0.5,0.1,1,0.2,1.5,0.3c0,0.1,0.1,0.2,0.1,0.3
			c-0.3,0.5-0.5,0.9-0.8,1.4c-0.6,0.1-0.6,0.2-1.2,0.1c-0.1-0.4-0.3-0.9-0.4-1.3C401.6,307.2,401.9,306.9,402.1,306.6z M395.9,319.4
			c0.3,0.2,0.7,0.4,1,0.5c0.1,0.2,0.1,0.4,0.2,0.7c-0.4,0.3-0.8,0.6-1.2,0.9c-0.3-0.1-0.7-0.1-1-0.2c0-0.6-0.1-1.2-0.1-1.8
			C395.2,319.5,395.5,319.4,395.9,319.4z M394.8,325.4c-0.2-0.4-0.3-0.9-0.1-1.4c0.3-0.1,0.7-0.1,1-0.2c0.2,0.1,0.4,0.1,0.7,0.2
			C397.1,325.3,395.7,326.8,394.8,325.4z M398.4,322.9c-0.2,0.2-0.4,0.4-0.5,0.5c-0.2,0-0.4-0.1-0.7-0.1c-0.3-0.2-0.5-0.4-0.8-0.7
			c0.1-0.3,0.3-0.7,0.4-1c0.2-0.1,0.4-0.1,0.5-0.2c0.3,0.3,0.7,0.5,1,0.8C398.4,322.5,398.4,322.7,398.4,322.9z M398,320.4
			c-0.2-0.3-0.2-0.5-0.1-0.8c0.3-0.3,0.5-0.6,0.8-0.9c0.4,0,0.7,0,1.1,0c0,0.1,0,0.1,0,0.2c0,0.4,0.1,0.9,0.1,1.3
			c-0.2,0.2-0.4,0.4-0.5,0.7c-0.3,0-0.5,0-0.8,0C398.3,320.7,398.2,320.6,398,320.4z M400.5,338.6c-0.4,0.4-0.9,0.3-1.5,0.2
			c-0.1-0.2-0.2-0.4-0.3-0.5c0.1-0.4,0.2-0.7,0.3-1.1c0.5-0.1,0.9-0.1,1.4-0.2c0.3,0.1,0.6,0.3,0.9,0.4
			C401,337.7,400.9,338.3,400.5,338.6z M401.6,328c-0.1,0.3-0.1,0.7-0.2,1c-0.5,0.3-1.1,0.5-1.6,0.8c0-0.1,0-0.2,0-0.3
			c0.2-0.3-0.5-1.1-0.1-1.6c0.2-0.4,0.3-0.3,0.7-0.5c0.7,0.1,0.9,0.3,1.3,0.7C401.6,328,401.6,328,401.6,328z M401.6,320.9
			c0.1-0.3,0.2-0.6,0.3-0.9c0.2-0.1,0.4-0.2,0.5-0.3c0.5,0.1,0.9,0.1,1.4,0.2c0,0.5,0.1,0.9,0.1,1.4
			C402.9,321.7,402.2,322,401.6,320.9z M404,312.5c-0.2,0.1-0.4,0.3-0.5,0.4c-0.7,0-1-0.1-1.4-0.3c-0.2-0.8-0.3-0.9,0-1.6
			c0,0-0.1,0-0.1,0c-0.7,0.2-1.1,0-1.5-0.3c-0.1-0.5-0.2-1-0.3-1.5c0.3-0.1,0.7-0.2,1-0.3c0.4,0.2,0.9,0.4,1.3,0.7
			c0,0.4,0,0.8,0,1.2c0.9,0.1,1.2,0.6,1.9,0.9C404.1,311.8,404.1,312.2,404,312.5z M405.4,310.1c-0.6,0.3-0.7,0.6-1.6,0.7
			c-0.2-0.2-0.4-0.4-0.7-0.5c0-0.3,0.1-0.6,0.1-0.9c0.1-0.2,0.3-0.4,0.4-0.7c0.9,0.2,1.5,0.5,1.9,1.2
			C405.5,309.9,405.5,310,405.4,310.1z M405.6,315.9c0.2-0.1,0.4-0.2,0.5-0.3c0.5,0.1,1.1,0.1,1.6,0.2c0.1,0.3,0.2,0.7,0.3,1
			c-0.1,0.1-0.2,0.1-0.3,0.2c-0.3,0.3-0.6,0.4-1.3,0.4c-0.2-0.2-0.4-0.4-0.7-0.5C405.8,316.5,405.7,316.2,405.6,315.9z M407.9,328.5
			c-1.4,0.1-1.6-0.5-1.4-1.6c0.2-0.1,0.4-0.2,0.5-0.3c1.1,0.1,1.2,0.5,1.8,1c-0.1,0.1-0.2,0.2-0.3,0.3
			C408.3,328,408.1,328.3,407.9,328.5z M410.7,333.3c-0.2,0.2-0.4,0.4-0.7,0.5c-0.4,0-0.7-0.1-1.1-0.1c-0.3-0.8-0.1-1.1,0.1-1.9
			c0.5,0.1,0.9,0.1,1.4,0.2c0.1,0.2,0.2,0.4,0.3,0.7C410.7,332.9,410.7,333.1,410.7,333.3z M410.5,308.8c-0.1-0.3-0.2-0.6-0.3-0.9
			c0.2-0.4,0.4-0.7,0.7-1.1c0.5,0.1,1,0.3,1.5,0.4c0.1,0.3,0.1,0.5,0.2,0.8c-0.1,0.3-0.3,0.6-0.4,0.9c-0.4,0.1-0.8,0.1-1.2,0.2
			C410.7,309,410.6,308.9,410.5,308.8z M413.5,311.1c-0.7,0.6-1.2,0.8-2.1,0.1c0-0.3,0.1-0.7,0.1-1c0.3-0.1,0.5-0.3,0.8-0.4
			c0.5,0,0.4,0,0.7,0.2c0.2,0.2,0.4,0.4,0.5,0.7C413.5,310.8,413.5,310.9,413.5,311.1z M413.6,318.4c0.3-0.6,0.5-0.8,1-1.2
			c0.5,0.1,0.9,0.3,1.4,0.4c0,0.3,0,0.5,0,0.8c-0.3,0.3-0.5,0.5-0.8,0.8C414.4,319.1,414.2,318.8,413.6,318.4z M415.9,326.7
			c-0.8-0.1-1.1-0.4-1.4-0.9c0.3-0.4,0.6-0.9,0.9-1.3c0.5,0.2,0.9,0.4,1.4,0.7c0,0.3,0.1,0.5,0.1,0.8
			C416.6,326.2,416.3,326.5,415.9,326.7z M417.6,304.7c-0.2-0.2-0.4-0.4-0.5-0.5c0-0.3,0-0.5,0-0.8c0.1-0.2,0.3-0.4,0.4-0.5
			c1,0,1.4,0.3,1.8,0.9c-0.1,0.3-0.2,0.5-0.3,0.8C418.4,304.6,418,304.6,417.6,304.7z M421.5,312.5c-0.1,0.6-0.3,0.7-0.5,1.1
			c-0.9,0.1-1,0-1.5-0.3c-0.1-0.2-0.1-0.4-0.2-0.7c0.3-0.3,0.5-0.7,0.8-1c0.2,0,0.4-0.1,0.7-0.1c0.3,0.1,0.6,0.3,0.9,0.4
			C421.5,312.1,421.5,312.3,421.5,312.5z M425.8,317.3c-0.3,0.1-0.6,0.1-0.9,0.2c-0.4-0.4-0.8-0.8-1.2-1.2c0.1-0.2,0.1-0.4,0.2-0.5
			c0.2-0.1,0.4-0.2,0.7-0.3c0.3,0,0.6,0.1,0.9,0.1C426.2,316.1,426.3,316.5,425.8,317.3z M432.1,322.9c-0.1,0.8-0.2,1.1-0.7,1.8
			c-1,0.1-1.6-0.1-1.6-1.2c0.2-0.5,0.4-0.6,0.8-0.9c0.5,0.1,1,0.1,1.5,0.2C432.1,322.8,432.1,322.9,432.1,322.9z M438.9,332.2
			c-0.1,0-0.3,0-0.4,0c0-0.1,0-0.2,0-0.3c0.1,0,0.3,0,0.4,0C438.9,332,438.9,332.1,438.9,332.2z M384.6,296.1c2-4,0.1-6.1-2.5-8.2
			c-0.7-0.6-0.9-1.3-2-1.6c-0.2,0.2-0.4,0.4-0.7,0.7C379.5,290,382,295.8,384.6,296.1z M370.7,294.5c2.8-0.9,4.2-4.7,5.5-7.1
			c-0.4-0.5-0.9-0.8-1.5-1c-1.2,1.4-5.8,5.5-4.1,8.1C370.6,294.5,370.7,294.5,370.7,294.5z M360.6,296.4c-0.2,6.4,1.7,11.7,3.5,16.5
			c0.6,1.7,1,4,2.2,5.1c1.8,1.8,12.9,3.1,15.8,2.5c2.6-0.5,7-2.6,9.2-3.9c0.7-0.6,1.4-1.2,2.1-1.8c-0.1-1.1,0.2-1.6,0.4-2.5
			c-0.1,0-0.1,0.1-0.2,0.1c-0.3,0.8-1.8,2.2-3,1.6c-0.3-0.3-0.6-0.6-0.9-0.9c0.1-0.3,0.1-0.6,0.2-0.9c1.8-1.1,4.2-2.4,4.7-4.6
			c-0.2,0-0.4,0-0.7,0c-0.7,0.5-1.7,1.8-3,1.4c-0.4-0.1-0.6-0.2-0.8-0.5c-0.1-0.3-0.2-0.6-0.3-0.9c1.3-0.9,3.5-2.6,4.9-3.1
			c0-1.3,0.1-2.6,0.1-3.9c0,0-0.1,0-0.1,0c0,0.1,0,0.1,0,0.2c-1.4,1-1.6,2.5-4.1,2.6c-0.9-0.5-1.2-1.2-0.5-2.1
			c1.8-0.4,2.3-1.2,3.5-2.1c0.4,0.1,0.8,0.2,1.2,0.3c0-0.8,0.2-3.7-0.2-4.2c-0.6,0.9-1.8,1.3-3,1.8c-1,0.6-2,1.2-3.1,1.8
			c-4.4,2.1-10.3,1.9-15.5,1.3c-1.4-0.1-2.8-0.1-4.2-0.2c-2-0.7-3.9-1.4-5.9-2.1c-0.8-0.5-1.4-1.5-2.4-1.9
			C360.7,296.3,360.7,296.4,360.6,296.4z M394.4,317.4c0.1,0.1,0.3,0.3,0.4,0.4c0.3-0.3,0.4-0.2,0.4-0.9c-0.1,0-0.1,0-0.2,0
			C394.8,317.1,394.6,317.3,394.4,317.4z M367,321.8c0,0,0.1,0,0.1,0c0.2-0.2,0.4-0.4,0.5-0.5c0,0,0-0.1,0-0.1
			c-0.5-0.1-1-0.2-1.5-0.3C366.4,321.1,366.7,321.5,367,321.8z M369.5,321.9c0,0-0.1,0-0.1,0c0,0.1,0,0.2,0,0.3
			C369.4,322.1,369.5,322,369.5,321.9z M384.2,322.9c-0.2-0.2-0.2-0.2-0.5-0.3C383.8,322.7,384,322.8,384.2,322.9z M378.8,324.8
			c0.2,0.2,0.2,0.1,0.5,0.2C379.1,324.8,379.2,324.8,378.8,324.8z"/>
	</g>
</g>
<g>
	<g>
		<path class="st1" d="M530.9,361.5c-7.1-1.2-13.3,2.5-18.6,4.9c0.4-1,0.8-2.1,1.8-2.5c0.3-0.6,0.2-1.1,0-1.8
			c-0.5-0.3-0.9-0.4-1.5-0.2c-1.3,0.5-1.6,1.8-3.2,2.2c1.9-5.4,6.5-9.7,10.9-12.6c1.1-0.8,2.7-2.3,4.3-2.2c0.2-0.7,0.7-1.1,0.2-1.9
			c-0.2-0.3-0.3-0.3-0.5-0.4c-4.5,0.2-8.2,4.8-12,5.9c3.2-4.3,6.6-8.2,10-12.3c3.1-3.8,7.3-6.6,9.9-11.1c-0.1-0.5-0.1-1-0.2-1.5
			c-2.3-1.4-4.9,0.3-6.8,1.5c-2.5,1.7-4.9,3.1-7.2,4.9c-1.8,1.5-3.2,3.5-5.1,4.9c0.4-1.8,1.6-3.6,2.5-5c1.9-2.9,3.4-6,4.8-9.2
			c0.7-1.6,2-2.7,2-5c0-0.1-0.1-0.1-0.1-0.2c-2-1.3-3.8,1.3-4.9,2.5c-2.7,3.1-4.9,6.5-7.1,10.1c-0.9,1.4-1.1,3.1-2.3,4.2
			c0.4-5.9,4.2-12.4,1.4-17.3c-0.8-0.2-1.1-0.1-1.9,0.1c-1.7,2.2-3.3,5-4.3,7.8c-0.9,2.5-0.8,4.7-1.8,6.8c-0.1,0.3,0.2,1.7,0.1,2.1
			c-0.3,1.1-0.6,1.3-0.3,2.3c-0.1,0-0.1,0.1-0.2,0.1c0,0.1,0,0.1,0,0.2c-2-1.3-3.9-3.8-5.3-5.7c-0.4,0-0.7-0.1-1.1-0.1
			c-0.2,0.2-0.4,0.4-0.7,0.7c0.8,2.2,1.5,4.5,2.3,6.7c-1.9-1.4-4.2-3.9-6.5-4.6c0.1-0.3,0.1-0.5,0.2-0.8c-2.4,0-4.2-2.4-5.9-3.6
			c-2.9-2-6-3.7-8.9-5.8c-1.5-1.3-3.1-2.6-4.6-3.8c-7.3-5.3-14.5-10.4-22-15.4c-4.5-3-8.4-7-12.8-10c-3.4-2.2-6.8-4.5-10.2-6.7
			c-4.2-3-9-5.4-13.4-8.4c-1.8-1.2-4.1-3.6-6.6-3.8c-0.3-0.9-0.6-1.9-0.9-2.8c-1.2-2.4-4.8-2.4-7.7-2.4c0,0,0-0.1,0-0.1
			c0.8-1.2,4.2-5.4,1.1-6.7c-1.1-0.5-2.9,0.3-3.9,0.7c-1.9-1.2-3.8-2.4-5.9-3.5c0-0.1-0.1-0.2-0.1-0.3c1.8-0.9,6-5.2,6.2-7.6
			c-0.3-0.6-0.5-1-1-1.4c-1.8-0.4-3.2,0.2-4.7,0.4c0,0-0.1,0-0.1,0c-0.4-1.4-0.5-3.3-1.5-4.1c-4.3-3.1-6.9,3.1-6.4,6.5
			c-1.9-1.1-3.4-3.5-6.2-2.7c-0.3,0.4-0.6,0.9-0.9,1.3c0,2.7,2,4.8,3.9,5.5c-0.2,0.6-2.7,1.9-3.5,2.3c0,0-0.1,0-0.1,0
			c-0.3-1.7,0.2-4.3-1.3-4.8c0,0.1,0.1,0.3,0.1,0.4c-0.5-0.3-0.3-0.2-0.2-0.5c-0.4-0.3-0.9-0.5-1.3-0.8c-3.7,0.5-8,7-8.9,10.5
			c-0.1,0.1-0.2,0.1-0.3,0.2c-1.9-1.9-3.5-2.6-6.9-2.5c-1.3,0.9-2,2.1-2,4.3c-0.8,0.4-1.5,0.8-2.3,1.2c0-7.8-0.6-16-0.5-24.7
			c3.5-2,7.6-3.6,11.6-5.3c1.6-0.7,4.5-1.4,5.5-2.7c0.9-1.2,0.3-6,0.7-7.9c0.3-1.6,0.6-4,0.2-5.4c-7.2-4.4-9.9-0.1-17,0.9
			c0-1.8,0.5-8-0.2-9.1c-0.8-1.3-2.7-2.5-4.4-2.8c-0.9-0.2-11,2.1-12,2.5c-0.8,1.4-0.2,3.7-0.5,5.9c-0.5,3.3-1,6.3-1,10.2
			c-1.8,0.4-2.9,1.4-4.4,2c-2.7,1.1-5.3,1.8-7.8,2.8c-1.5,0.6-3.1,0.8-3.7,2.3c0,2.8,0,5.7,0,8.5c0,2.1-0.7,5.8,0.3,7.2
			c0.4,0.6,1.1,0.6,1.9,1c1,0.5,3.2,1.8,4.8,1.3c0.7-0.4,1.5-0.9,2.2-1.3c2-0.9,4-1.3,5.8-2.2c0,4.5,0.1,9.1,0.1,13.6
			c0,2.6-0.3,5.7,0.3,7.8c0,0.1-0.1,0.1-0.1,0.2c-2.8,0.6-5,1.9-7.4,3c-3.7,1.6-7.5,2.8-11.2,4.3c-1.7,0.7-6.4,1.6-7.3,2.8
			c-0.3,1.1,0.8,1.8,0.5,3.7c-0.7,4.3,0.7,9.8,0.9,13.6c0,0.5-0.4,1.1-0.2,1.9c-0.1,0.1-0.1,0.1-0.2,0.2c-1.2-1.1-1.2-3.1-2-4.7
			c-1.9-4.3-3.9-9.4-5.5-14c-0.5-1.4-0.5-2.9-1.2-4.3c0.4-1.2-1.2-1.7-2-1c0.3,2,0.7,4.1,1,6.1c-0.1,0-0.3-0.1-0.4-0.1
			c1.9,4.2,3,13.4,3,18.8c0,0-0.1,0-0.1,0c-2.7-1.4-4.5-8.2-6.7-9.4c-0.1-0.1-0.3-0.1-0.4-0.2c-0.3,0.3-0.6,0.6-0.9,0.9
			c0.3,2.4,2.5,4.8,3.4,6.9c0.9,2.1,1.5,4.2,2.4,6.6c0,0.1,0,0.3,0,0.4c-2.8-0.5-6.2-2.3-8.8-3.6c-0.8-0.4-2.5-1-3.4-0.3
			c-0.2,0.2-0.3,0.5-0.3,0.9c1.6,2.5,5.7,3.7,8.8,4.6c0,0.1,0.1,0.1,0.1,0.2c-2.6,0.9-6.2,0.8-9.1,1.5c-3.1,1-6.3,2-9.4,3
			c-0.1,0.3-0.1,0.6-0.2,0.9c1.3,2,3.4,2.8,6.6,3c0,0,0,0.1,0,0.1c-3.6,0.4-7.2,0.8-10.8,1.2c-3.1,0.5-6.2,1.1-9.3,1.6
			c-1.4,0.1-3.4-0.2-4.8,0.1c-0.2,0.2-0.4,0.4-0.7,0.7c0,0.3,0.1,0.6,0.1,0.9c0.2,0.1,0.4,0.3,0.5,0.4c3.3,0,6.9-0.5,9.4-1.5
			c4.1-0.5,8.2-1.1,12.3-1.6c2.4-0.4,10.7,0.3,11.5-0.5c0.7-0.2,0.6-0.6,0.5-1.2c-2.1-1.4-9.2-1.7-12-2.6c-0.1-0.1-0.1-0.2-0.2-0.3
			c2.7-2.2,7.2-2.2,11.1-3.1c3.3-0.7,6.2,0.3,7.7-2.2c0.8,0.1,1.6,0.6,2.2,0.1c0.3-0.2,0.4-0.3,0.5-0.7c-0.1-1.5-0.6-3.1-1-4.1
			c0-0.1,0-0.2,0-0.3c0.6,0.2,1.2,0.4,1.8,0.5c0.2-0.1,0.4-0.1,0.5-0.2c0.8-1.5,0.1-3.5,0-5.3c-0.5-4.1-0.9-8.2-1.4-12.3
			c0,0,0.1,0,0.1,0c1,4.7,3.4,10,5.3,14.6c0.7,1.1,1.5,2.2,2.2,3.3c0.6,1.9,0.5,6.1-0.1,7.9c0,1.6,3.3,3.4,4.3,4.7
			c2,2.5,4.7,4.2,6.7,6.6c2.8,3.3,5.2,6.5,8.7,9.2c4.9,3.8,8.9,8.6,13.8,12.4c1.6,1.7,3.1,3.4,4.7,5c2.1,1.5,3.6,3.6,5.6,5.1
			c1.9,1.5,4.1,2.9,5.8,4.7c1.6,1.7,3.1,3.6,4.9,5c8,6.3,15.7,12.9,23.7,19.3c1.8,1.4,3.1,3.5,4.9,4.9c3.8,3,7.2,6.3,10.9,9.3
			c1.6,1.3,3.2,4.9,5.7,4.7c0,0,0.6,6.6,0.9,7.3c0,0.1,0,0.3,0,0.4c-1.1-0.5-1.1-1.4-1.9-2.2c-2.3-2.2-6-5.6-9.7-3.7
			c-0.2,4.6,5,5.8,6.2,9.4c-2.2-0.3-4.4-0.7-6.6-1c-3.4-0.6-7.6,0.8-10.7,1.3c-2.1,0.4-4-0.2-5.8,0.3c-0.3,0.4-0.4,0.9-0.1,1.4
			c0.8,1,3.7,1.5,4.9,0.9c0.4-0.2,0.4-0.5,0.4-1c2,0.6,3.6-0.6,5.8-1c3.1-0.6,10.6,0,12.4,1.5c-0.1,0.1-0.3,0.2-0.4,0.3
			c0,0.1,0,0.2,0,0.3c1.3-0.1,1.7-0.6,3,0.2c4.9-0.9-3.2-5.5-2.4-6.7c-0.4-0.8-3.8-4.1-3.8-4.1c-0.1-0.1-0.2-0.2-0.3-0.3
			c0.1-0.1,0.1-0.1,0.2-0.2c1-0.7,2.8,1.5,3.4,2c1.4,1.1,4.7,6.4,7,6.2c-0.1,0.2-0.1,0.4-0.2,0.5c0.1,0,0.3-0.1,0.4-0.1
			c1.3-1,0.1-8.4-0.4-11.4c0.1,0.1,0.3,0.2,0.4,0.3c0.2,0.8,0.4,1,0.1,1.4c2.3,2.8,0.4,7,4.4,9.5c0.3,0,0.6-0.1,0.9-0.1
			c0.2-0.2,0.4-0.4,0.7-0.7c0-1.2-0.3-5.6-0.7-5.8c0.1-0.6,0.1-0.8,0.7-1c0-0.1,0-0.2,0-0.3c-0.4,0.1-0.3,0.1-0.5,0.2
			c-0.1-1.7-0.2-3.4-0.3-5c0-0.1,0-0.1,0-0.2c0.5,0.7,0.3,1.5,0.4,2.3c1.1,4.6,1.5,11.7,7.3,10.4c0.2-0.8,0.4-1.1,0-1.8
			c0.3-0.1,0.6-0.3,0.9-0.4c0-0.1,0-0.2,0-0.3c-0.3,0-0.7,0.1-1,0.1c0-0.2,0-0.4,0-0.5c0.2-0.1,0.4-0.1,0.7-0.2
			c0.4-3.8,2.9-6.5,3.6-9.9c0.1,0,0.2,0,0.3,0c-0.2,1.1-2.1,7.4-2.4,7.6c0.2,0.5,0.3,2.6-0.7,3c0.2,0.5,0,0.3,0.4,0.4
			c0-0.1,0-0.2,0-0.3c0.1,0.3,0.2,0.6,0.3,0.9c-0.5,0.2-0.3,0-0.4,0.4c0.8-0.2,1.1,0.1,2,0.2c1.3-1,5.2-5.4,5.6-6.8
			c0.1-0.1,0.3-0.2,0.4-0.3c0.1,0.4,0,0.2,0.2,0.4c-0.6,1.3-4.5,6.2-4.5,6.9c-0.3,0.5-0.1,0.4-0.4,0.3c0,0-2.3,4.3-2.3,5.3
			c0.4,0.4,0.6,0.7,1.2,1c-0.1,0.3-0.1,0.5-0.2,0.8c0.6-0.2,0.6-0.5,0.4-0.9c0.6,0.1,0.7,0,1.1-0.2c-0.2,0.8-0.3,1.1-0.4,1.9
			c0.9,0.1,0.7,0.8,1.5,1.1c1.7,0.7,3.1-0.8,3.9-1.3c0.3-0.2,0.5-0.3,0.8,0.2c0.4-0.2,0.4-0.7,0.4-1.2c1-0.6,4.6-3.1,5.1-2.6
			c0.5-0.2,0.3,0,0.4-0.4c-0.1-0.1-0.2-0.1-0.3-0.2c0.3-0.1,0.6-0.3,0.9-0.4c0.2,0.4-0.1,0.2,0.4,0.3c0.2-0.3,0-0.2,0.4-0.3
			c-0.1-0.1-0.1-0.3-0.2-0.4c0.7-0.4,1.5-0.8,2.2-1.2c0.2,0,0.4,0.1,0.7,0.1c-1.5,1.9-3.6,2.9-4.9,5c0.1,0.4,0.1,0.7,0.2,1.1
			c3.4,1.2,7-1.8,9.3-2.8c1.2-0.6,2.7,0,3.9-0.7c0,0.3,0,0.7,0,1c1.1-0.1,1.1,0.5,2,0.9c0.9,0.4,1.5-0.2,2.2-0.2
			c-0.2-0.6-0.2-0.7,0-1.5c-0.4-0.5-0.6-0.2-0.5-1c-0.2,0-0.4,0-0.7,0c0.1,0,0.1-0.1,0.2-0.1c-0.9-1.8-4.6-1.7-6-0.8
			c0-0.1,0.1-0.3,0.1-0.4c-1.8,0.5-3.4,1.4-4.9,2.2c0.8-1.9,2.7-1.5,3.1-4.6c-0.8-0.3-0.9-0.6-2-0.7c0.2-0.2,0-0.1,0.3-0.2
			c0-0.1,0-0.2,0-0.3c-1.1,0.3-6.5,1.5-6.7,2.6c-0.2,0-0.4,0.1-0.5,0.1c-0.2-0.5,0-0.3-0.5-0.4c0.1-0.2,2-2.9,2.3-3.1
			c-0.2-0.6-0.4-1.2-0.5-1.8c-3.9-0.5-6.6,1.8-8.2,4.2c-0.6,0-0.7-0.1-1.1,0.1c0-0.1-0.1-0.2-0.1-0.3c0.4-0.5,0.4-0.6,1.2-0.5
			c-0.2-0.4,0-0.3-0.4-0.4c0.3-0.3,0.5-0.2,0.7-0.7c-0.1,0-0.2-0.1-0.3-0.1c1.9-2.4,4.2-2.8,6.9-4.6c3.4-2.3,6.8-4.3,10.6-6.4
			c5.1-2.7,9.7-6.2,14.9-8.9c7.2-3.8,15.5-6.8,21.7-11.2c1.7-1.2,3.6-1.7,5.5-2.7c2.8-1.5,6.1-3.4,8.8-5.3c1.4-1,4.3-1.6,5-3.2
			c0.9-1.8-0.5-4.2-0.1-6.5c0.3-1.7-0.2-4.6-0.3-6.2c0-4.9-0.1-9.8-0.1-14.7c-1.4-0.5-1.5-1.7-2.5-2.5c-0.7-0.6-2.7-1.3-3.2-1.9
			c-0.4-1.2-0.9-2.3-1.3-3.5c0,0,0-0.1,0-0.1c1.6,1.2,2.5,4.4,4.8,4.2c1.5-3.4,0.1-6.5,1.2-11.2c0.4-1.7,0.9-3.4,1.3-5.1
			c0.8-1.5,1.7-3,2.5-4.5c0.1-0.1,0.2-0.1,0.3-0.2c0,0,0.1,0,0.1,0c1,5.8-3.9,14.1-2.5,18.5c0.2,0.6,0.6,0.7,1.1,1
			c2.1-0.8,2.9-3.5,3.8-5.5c1.3-2.7,2.9-5.7,4.6-8.1c1-1.3,2-2.6,3-3.8c0.2-0.2,0.4-0.4,0.7-0.5c0,0,0.1,0,0.1,0
			c-1.1,3.9-4,7.9-6,11.3c-1.5,2.5-2,5.1-3.5,7.8c1,2.6,3.4,0.4,4.5-0.9c4.4-5.1,9.2-9.2,15.7-12.3c0,0,0.1,0,0.1,0
			c-0.8,3.2-4.5,5.3-6.4,7.6c-3.2,4.1-7,7.7-10.2,11.8c-1.4,1.8-2.5,3.6-4.1,5.3c0.2,2.4,3.1,1.2,4.4,0.8c-0.5,0.8-1.1,1.8-2.1,1.9
			c-0.1,3.3-4.5,5-3.8,9.2c0.8,0.3,1.3,0.4,2.4,0.4c-0.1,0.7-0.1,1.4-0.2,2.1c0.3,0.2,0.5,0.4,0.8,0.7c3.1,0.5,5.4-2,7.7-3.2
			c3.2-1.7,7.2-2.3,11.4-2.5c2.1-0.1,4.5-0.4,6,1c1,0,1.5-0.1,1.9-0.7c0-0.4,0-0.7,0-1.1C536.1,361,532.8,361.9,530.9,361.5z
			 M398.7,274.4c2.8,0.4,4.2,0.7,3.9,3.8c-2.9,2.1-8.6,1.3-10.4-1.2C393.9,274.8,396.6,275.5,398.7,274.4z M457.1,328.7
			c-1.2,1.4-3.2,1.6-4.8,2.5c-4.5,2.7-9.4,4.7-14,7.2c-4.9,2.7-10,5.4-15,8c-3.1,1.5-6.3,2.9-9.4,4.4c-5,2.8-9.6,6.3-14.7,9.3
			c-2.2-0.3-3.8-3.1-5.1-4.5c-1.6-1.4-3.2-2.7-4.8-4.1c-2.4-2-4.4-4.8-6.7-7c-2.1-2.1-4.4-4.1-6.8-5.9c-1.5-1.5-2.9-3-4.4-4.5
			c-2.1-1.8-4.2-3.5-6.4-5.3c-2.3-1.9-3.8-4.8-6.1-6.7c-3-2.4-5.8-5.1-8-8.3c-1.1-1.6-3.8-3.3-5.3-4.8c-4-4.4-7.6-8.9-11.5-13.4
			c0.3-1.6,2.9-2.3,4.3-3c3.1-1.6,6.1-4.1,10.1-4.6c-0.5,1.1-0.9,2.2-0.8,3.4c4.9,3.7,8.4-3.3,11.5-4.8c0.2-0.2,0.4-0.4,0.5-0.5
			c-0.5,1-1,2-1.5,3c-0.5,1.8,0.2,9.6,0.5,11.4c-0.9,0.1-1.1,0.5-1.6,1.2c0,0.3,0.1,0.5,0.1,0.8c0.7,0.5,1,0.5,2,0.7
			c0.1,0.4,0.2,0.8,0.3,1.2c-0.2,0.1-0.4,0.3-0.7,0.4c-0.6-0.6-0.7-1-1.6-1.3c-0.6,0.3-0.9,0.4-0.8,1.1c0,0-0.2,1.6-0.2,2.2
			c0.3,0.2,0.5,0.4,0.8,0.5c0.3-0.1,0.6-0.1,0.9-0.2c0.4-0.2,0.4-0.6,0.4-0.9c0,0,1.2,0.5,1.6,0.9c-0.2,0.9,0.4,1.7,0.5,2.6
			c-0.4-0.2-0.5-0.9-0.7-1.3c-0.8-0.4-1.3-0.2-2.1,0c0,0.6,0.1,0.9,0.2,1.5c0.5,0.3,1,0.3,1.8,0.2c0,0.2,0,0.4,0,0.7
			c0.4,0.2,0.6,0.3,1.3,0.3c0.4,0.9,0.7,1.9,1.1,2.8c0,0,0,0.1,0,0.1c-0.2,0-0.4,0-0.5,0c-0.4-0.3-0.7-1.5-0.8-2.1
			c-0.5,0-1,0.1-1.5,0.1c-0.1,0.1-0.1,0.2-0.2,0.3c-0.5,1,1.7,4.8,2.5,5.9c0.7,0,1.5,0,2.2,0c0.5,1,0.9,1.7,1.9,2.2
			c-0.3,0.5-0.6,0.8-0.9,1.5c0.4,0.7,1.7,2.2,2.3,0.7c0.7,0.5,1.4,0.8,1.6,1.8c-0.6,0.1-0.7,0.3-1,0.8c0.1,0.3,0.1,0.7,0.2,1
			c0.3,0.4,0.7,0.6,1.4,0.5c0.4-0.4,0.7-0.5,0.8-1.3c0.8,0.3,1.8,0.4,2.6,0.5c-0.3,0.7-0.3,1.1-0.1,1.9c0.5,0.3,1.5,0.6,2.2,0.4
			c-0.2-0.7-0.1-1-0.3-1.8c-0.4-0.2-0.5-0.4-1.1-0.4c0.6-1.2,1.5-1.9,1.5-3.3c0.5,0,0.9,0,1.4,0c0.1,0,0.1,0.1,0.2,0.1
			c-0.2,0.5-0.3,0.7-0.3,1.5c0.2,0.3,0.4,0.5,0.7,0.8c-0.7-0.3-1.1-0.6-2.1-0.4c-0.1,0.2-0.2,0.4-0.3,0.5c0.1,0.5,0.3,1.1,0.4,1.6
			c0.7-0.1,1.4-0.3,2.1-0.4c1.4,0.1,3.6,0.8,2.6-1.6c0.9-0.3,0.8-1.1,2-0.9c0-0.1,0.1-0.1,0.1-0.2c-0.4-0.1-0.7-0.3-1.1-0.4
			c0,0,0-0.1,0-0.1c0-0.1,0.1-0.1,0.1-0.2c0.6-0.1,1.2-0.1,1.8-0.2c-0.1,0.4-0.1,0.8-0.2,1.2c0.7,0.6,1.3,0.9,2.2,0.2
			c0.2-0.2,0.2-0.5,0.2-1c1.3,0.1,2.3-0.5,1.6-1.6c0.5-0.3,1-0.5,1.5-0.8c0.1,0.5,0.2,0.6,0.5,0.9c1.3,0.9,2.1-0.5,1.5-1.8
			c0.2-0.1,0.4-0.2,0.7-0.3c0.3,0.3,0.3,0.8,1,1.1c0.3,0,0.7,0.1,1,0.1c0.2-0.3,0.4-0.6,0.5-0.9c-0.2-0.4-0.4-0.9-0.7-1.3
			c0.4,0.3,0.7,0.6,0.9,1.2c0.1,0,0.1,0.1,0.2,0.1c1,0,1.5-0.8,1.4-2c0.9,0,1.5,0.2,2.3-0.1c0.2-0.4,0.3-0.9,0.1-1.4
			c0.3-0.1,0.7-0.3,1-0.4c0.3,0.4,0.5,0.7,0.8,1.1c0.8,0,1.1-0.1,1.5-0.3c0.4,0.5,0.8,1.3,1.2,1.8c0.2,0,0.4,0,0.5,0
			c0.4-0.4,0.8-0.7,1.2-1.1c-0.2-0.8-0.7-1.1-1.4-1.3c0.1-0.6,0.8-1.6-0.4-2.1c-0.3,0-0.7-0.1-1-0.1c-0.5,0.6-0.9,1-1.8,1.3
			c-0.1-0.1-0.2-0.3-0.3-0.4c0.6-0.8,1.5-1.6,2-2.6c-0.4-0.7-0.8-0.8-1.4-1.2c-0.3,0.1-0.6,0.1-0.9,0.2c-0.2,0.4-0.3,0.5-0.3,1.2
			c-0.5,0.1-0.7,0.2-1,0.4c0,0.4,0.1,0.8,0.1,1.2c-0.2,0.2-0.4,0.4-0.5,0.7c-0.1,0-0.3-0.1-0.4-0.1c-0.1,0-0.1,0-0.2,0
			c0.3-1.2,0.6-2.4,0.9-3.6c0.6,0,1.2-0.1,1.8-0.1c0.4-0.2,0.6-0.9,1-1.2c-0.2-0.9-1.5-1.3-2.6-1.2c0.5-1.4,0.3-1.9,0.2-3.6
			c0.2,0.1,0.4,0.3,0.5,0.4c-0.3,1.3-0.1,1.8,1.1,2.1c0.9-0.6,2-0.7,3-1.1c0-0.9-0.3-1-0.5-1.5c0.6-0.4,1.3-0.9,1.4-1.9
			c-0.1-0.2-0.2-0.4-0.3-0.7c-0.5-0.2-1.1-0.4-1.6-0.5c-0.3,0.6-0.5,0.6-0.5,1.4c-0.8-0.2-2.3-0.1-2.7,0.3c0,0-0.1,0-0.1,0
			c0-2.6,0-5.2,0-7.8c0.1-1.1,0.2-2.1,0.3-3.2c-0.2-0.8-0.4-1.5-0.7-2.3c-0.1-1.2,1.4-2.2,0.9-4.3c-0.7-1.6-1.3-3.3-2-4.9
			c4.5,0.9,5.8,3.8,8.8,6.1c3.5,2.7,7.1,5.1,10.5,7.9c1.3,1.3,2.6,2.6,3.8,3.9c3.2,2.7,7,4.6,10.3,7.1c0.4,0.5,0.9,1,1.3,1.5
			c6.6,5,13.2,9.8,19.8,14.7c2.2,1.6,4.1,3.9,6.1,5.7c0,0.2,0,0.4,0,0.7C456.7,328.7,456.9,328.7,457.1,328.7z M366.1,320.8
			c0.5,0.1,1,0.2,1.5,0.3c0,0,0,0.1,0,0.1c-0.2,0.2-0.4,0.4-0.5,0.5c0,0-0.1,0-0.1,0C366.7,321.5,366.4,321.1,366.1,320.8z
			 M369.4,322.2c0-0.1,0-0.2,0-0.3c0,0,0.1,0,0.1,0C369.5,322,369.4,322.1,369.4,322.2z M378.8,324.8c0.4,0.1,0.3,0,0.5,0.2
			C379,324.9,379,324.9,378.8,324.8z M383.6,322.6c0.4,0.1,0.3,0.1,0.5,0.3C384,322.8,383.8,322.7,383.6,322.6z M395.2,317
			c-0.1,0.6-0.1,0.6-0.4,0.9c-0.1-0.1-0.3-0.3-0.4-0.4c0.2-0.1,0.4-0.3,0.7-0.4C395.1,317,395.2,317,395.2,317z M395.1,288.7
			c-0.3,0.1-0.6,0.1-0.9,0.2c-1.3-1-3.3-3.5-3.3-5.7c0.5-0.7,1.1-1.5,1.6-2.2c0.1,0,0.2,0,0.3,0
			C394.4,283.3,395.9,285.5,395.1,288.7z M393.9,269.2c0.3-0.4,0.1-0.9,0.5-1.2c0.6-0.3,1.3-0.2,1.8-0.7c0.2,0.1,0.4,0.1,0.5,0.2
			c0,0.1,0.1,0.1,0.1,0.2c-0.9,2.4-2.7,3.3-4.2,5c-0.8-0.1-2.6-0.8-2.8-1.4C391.7,271.3,393.1,270.3,393.9,269.2z M380.1,286.2
			c1,0.3,1.3,1.1,2,1.6c2.6,2.2,4.6,4.3,2.5,8.2c-2.6-0.3-5.1-6.1-5.1-9.2C379.7,286.6,379.9,286.4,380.1,286.2z M379,279.8
			c-1.1-2.1,0.1-5.6,1.2-7.1c0.8-0.6,1.7-1.2,2.5-1.8c0.4,0,0.8,0.1,1.2,0.1c0.7,2.5-2.4,8.5-4.3,9
			C379.5,279.9,379.2,279.8,379,279.8z M383,284.8c-0.7-0.3-1.2-0.2-1.5-0.9c-0.3-0.4-0.1-0.9-0.1-1.6c0.9-1.3,2.6-2.3,4.3-2.8
			c0.9-0.1,1.9-0.2,2.8-0.3c0.6,0,1.2,0,1.9,0c0.2,0.3,0.4,0.6,0.5,0.9C389.2,282.6,386.8,286.4,383,284.8z M386.3,270.8
			c0.3,0.1,0.6,0.1,0.9,0.2c0.2,0.3,0.4,0.7,0.5,1c0,0.1,0,0.3,0,0.4c-0.4,0.2-0.8,0.4-1.2,0.5c0,0-0.1,0-0.1,0
			C386.3,272.2,386.3,271.5,386.3,270.8z M392,267.8c-1.8,3.7-9.8-0.7-7.3-4.2C387,263.8,391.6,265.6,392,267.8z M390.2,254.9
			c0.5,0,1,0,1.5,0c0,0,0.1,0.1,0.1,0.1c0,0.1,0,0.2,0,0.3c-1.9,2-3.5,4.5-6.1,5.8c-0.2,0-0.4,0-0.7,0c-0.1-0.3-0.2-0.6-0.3-0.9
			C385.3,256.9,388,256.4,390.2,254.9z M383.8,251.3c0-0.1,0-0.3,0-0.4c0.3,0,0.7,0,1,0c0.1,0,0.1,0.1,0.2,0.1
			c2.6,3.5-1.1,4.3-1.8,6.9c-0.1,0-0.2-0.1-0.3-0.1C382.6,256.1,381.8,251.7,383.8,251.3z M380.6,265.6c1.3,0.6,1.7,2.1,2.8,2.8
			c0,0.1,0.1,0.2,0.1,0.3c-2.5,0-3.3,1.1-4.7,2.1c-0.6-0.8-1.1-1.3-2.2-1.5c0,0,0-0.1,0-0.1C377.6,267.8,380.1,267.1,380.6,265.6z
			 M375.9,255.4c1.3,0.6,3,1.9,3.6,3.2c0.1,0.1,0.1,0.1,0.2,0.2C378.1,258.7,375.9,257.1,375.9,255.4z M378,262.8
			c0.2,0,0.4,0.1,0.7,0.1c0.1,0.4,0.1,0.7,0.2,1.1c-0.8,1.8-2.9,2.2-3.9,3.6c0,0-0.1,0-0.1,0c-0.1-0.1-0.2-0.3-0.3-0.4
			C373.8,264.8,376.9,263.7,378,262.8z M373.9,271.3c0.8,0,1.6,0.1,2.4,0.1c0.1,0.1,0.1,0.2,0.2,0.3c-1.3,2.3-7.2,6.1-10.2,5.4
			c0.1-0.8,0.3-1,1-1.2C366.7,272.1,370.9,272.4,373.9,271.3z M374.6,286.4c0.7,0.2,1.2,0.5,1.5,1c-1.3,2.4-2.7,6.2-5.5,7.1
			c0,0-0.1,0-0.1,0C368.9,292,373.5,287.8,374.6,286.4z M369,279.5c0.9-0.5,1.8-1,2.6-1.5c2,1,3.3,2.8,2.6,5.5
			c-0.8,0.4-2,0.7-3.2,0.8C370.8,282.3,369.6,281.1,369,279.5z M375.1,277.6c-0.4-0.3-0.8-0.7-1.2-1c0.9-0.6,1.8-1.2,2.6-1.9
			c0,1.5-0.1,3.1-0.1,4.6c0,0.2,0,0.4,0,0.7C376,279.2,375.5,278.4,375.1,277.6z M372.8,269.7c-0.7,0.1-1.5,0.3-2.2,0.4
			c0-0.1-0.1-0.2-0.1-0.3c0.4-0.7,0.7-1.5,1.1-2.2C372,267.9,372.7,269.2,372.8,269.7z M366.2,264c0.5-0.9,0.4-1.8,1-2.5
			c0.3-0.4,1.1-0.6,1.3-1c0-0.2-0.1-0.4-0.1-0.7c0.5-0.5,1.6-0.6,2.1-1.1c0.3,0,0.5,0.1,0.8,0.1c1.1,4.7-1.2,9.4-4.3,12
			c-0.9-0.7-2.6-1.5-3.4-2.4C364.3,267,365.5,265.2,366.2,264z M364.5,278.7c2.4,0.8,6.8,6.7,3,8.8c-1.3-0.6-3.2-3-3.6-4.3
			c-0.1-1.2-0.1-2.4-0.2-3.6C363.9,279.2,364.2,278.9,364.5,278.7z M363.2,298.1c2,0.7,3.9,1.4,5.9,2.1c1.4,0.1,2.8,0.1,4.2,0.2
			c5.3,0.5,11.2,0.8,15.5-1.3c1-0.6,2-1.2,3.1-1.8c1.1-0.5,2.4-0.8,3-1.8c0.4,0.4,0.2,3.4,0.2,4.2c-0.4-0.1-0.8-0.2-1.2-0.3
			c-1.2,0.9-1.7,1.7-3.5,2.1c-0.7,0.9-0.4,1.6,0.5,2.1c2.4-0.1,2.7-1.6,4.1-2.6c0-0.1,0-0.1,0-0.2c0,0,0.1,0,0.1,0
			c0,1.3-0.1,2.6-0.1,3.9c-1.5,0.4-3.6,2.2-4.9,3.1c0.1,0.3,0.2,0.6,0.3,0.9c0.2,0.3,0.3,0.4,0.8,0.5c1.3,0.4,2.2-0.9,3-1.4
			c0.2,0,0.4,0,0.7,0c-0.5,2.2-2.9,3.5-4.7,4.6c-0.1,0.3-0.1,0.6-0.2,0.9c0.3,0.3,0.6,0.6,0.9,0.9c1.2,0.5,2.7-0.8,3-1.6
			c0.1,0,0.1-0.1,0.2-0.1c-0.2,0.9-0.5,1.5-0.4,2.5c-0.7,0.6-1.4,1.2-2.1,1.8c-2.2,1.3-6.6,3.4-9.2,3.9c-2.9,0.6-14-0.8-15.8-2.5
			c-1.2-1.2-1.6-3.4-2.2-5.1c-1.8-4.8-3.7-10.1-3.5-16.5c0,0,0.1-0.1,0.1-0.1C361.8,296.6,362.3,297.6,363.2,298.1z M350.3,290.7
			c-1.2-0.6,0.3-2.8,1-3.7c2.2-3.1,5.2-5.5,8.2-7.9c0.6,0.2,1.2,0.4,1.9,0.7C360.6,283.6,354.1,289.6,350.3,290.7z M358.4,276.7
			c-0.4,1.4-3.6,2.7-5.5,2.6c0,0-0.1-0.1-0.1-0.1c0.4-1.7,3.4-4.1,5.4-4.2C358.2,275.9,358.2,275.8,358.4,276.7z M355.4,266.3
			c2.8,0,4,1,5.1,2.6c-0.5,1.2-1,2.4-1.5,3.6C355.1,271.9,354.2,270.1,355.4,266.3z M351.5,228c3.4-1.1,6.9-2.1,10.3-3.2
			c0.1,0,0.2,0.1,0.3,0.1c0,0.1,0.1,0.1,0.1,0.2c-3.7,0.4-6.5,3.2-10.7,3.5C351.5,228.4,351.5,228.2,351.5,228z M339.1,217.4
			c2.3-0.5,4.5-0.9,6.8-1.4c0.4,0.1,0.8,0.2,1.2,0.3c-1,0.9-6.9,2.1-8,1.2C339.1,217.5,339.1,217.5,339.1,217.4z M335.3,229.2
			c0.3-2.3,0.7-4.6,1-6.9c0-1.1,0.1-2.1,0.1-3.2c0.7,0.4,1.4,0.7,2.1,1.1c-0.2,4.2-0.4,8.5-0.7,12.7c-0.7-0.3-1.5-0.5-2.2-0.8
			C335.2,231.8,335.2,230,335.3,229.2z M322.6,246.4c0.1,0.9,0.4,1.1,0.4,2.2c0,0-0.1,0-0.1,0c0-0.4-0.1-0.7-0.1-1.1
			c-0.8,0.3-0.5,1.7,0.1,2c-0.2,0.2,0,0.1-0.4,0.2c0.1,1.6,0,2.7-0.4,4.1c-1.1,0.2-1.9-0.1-2.6-0.4c0-4.1,0-8.3,0-12.4
			c1,0.4,2,0.8,3.1,1.2c0,0,0.5,4.3,0.5,4.6c0,0-0.1,0-0.1,0c0-0.1,0-0.2,0-0.3C322.9,246.4,322.7,246.4,322.6,246.4z M322.1,239.1
			c-0.1,0-0.1,0-0.2,0c1.8-1.8,8.9-3.2,11.6-4.7c0.5,0.1,1,0.1,1.5,0.2c0,0,0,0.1,0,0.1C333.7,235.6,323.3,239.7,322.1,239.1z
			 M325.4,253.5c0.2-3.8,0.1-8,0.1-11.9c0.8-0.8,2-0.8,3.2-1.3c3.5-1.5,7.2-3.1,11.3-4.2c1.7-2.8,0.7-10.7,1.1-15.4
			c2.5-0.6,5-1.2,7.4-1.8c0,3.9-0.4,11.5,2,12.7c5.7-0.3,9.3-3.9,14.9-4.4c-0.2,3-0.4,6-0.7,9c-4.2,1.7-14.6,5.3-17.1,8.3
			c0,2.6-0.1,5.3-0.1,7.9c0.1,6.8,0.3,13.7,0.4,20.5c-3,1.1-5.2,2.5-8.1,3.6c0,0-0.1,0-0.1,0c0.2-6.4,1.1-14.7,0-21.4
			c-0.4-2.5,1-7.1-0.8-8c-1.5-0.5-3,1.5-3.9,2.1C331.9,250.9,328.6,252.2,325.4,253.5z M336.9,276.8c-3.1-2.1-2-12.6-2.4-17.7
			c0.1-2.2,0.1-4.5,0.2-6.7c0.4-0.6,1.4-0.8,2-1.2c0.4,1.3-0.3,3-0.1,4.5C337.5,263,336.5,271.2,336.9,276.8z M419.3,414.1
			c-1.4-1.2-1.2-3.7-1.8-5.7c-0.9-3.9-1.8-7.8-2.6-11.7c-0.2-0.1-0.4-0.2-0.7-0.3c-0.4,0-0.7,0-1.1,0c-2,1-0.4,8.6-0.3,10.1
			c0,1.1-0.3,3.2-0.2,3.4c0,0,0,0.1,0,0.1c-0.1,0-0.3,0-0.4,0c-1-3.2-2-6.4-3.1-9.6c-0.7-0.2-1.2-0.2-1.9,0
			c-0.7,1.1-0.7,2.5-0.7,4.2c-0.8-0.9-1.6-1.8-2.4-2.6c-6-3.9-10.7-9.4-16-14c-8.4-7.4-17.8-14.4-26.5-21.8
			c-1.7-1.4-3.1-3.2-4.7-4.7c-3.1-2.8-6.4-5.2-9.4-8.1c-2.9-2.7-5.4-5.9-8.5-8.3c-7.7-5.9-14.9-12.9-21-20.4
			c-0.9-0.7-1.8-1.4-2.7-2.1c-1-1.3-2-2.6-3.1-3.8c-0.7-0.7-2-1.5-2.3-2.4c-0.1-3.2-0.3-6.4-0.4-9.5c-0.3-3.6-0.5-7.2-0.8-10.7
			c-0.1-0.9,0.3-2.3,0.1-3.1c-0.2-1.3-0.6-3.1-0.5-4.8c2.4,0.9,3.8,4,5.3,5.9c0.7,0.9,1.9,1.6,2.6,2.5c2.4,3,6,5.1,8.4,8.1
			c2.3,2.9,5.3,5.4,7.4,8.3c1.5,2,2.9,4,4.5,5.8c3.7,4.3,8.4,7.7,12.5,11.6c2.2,2.2,4.2,4.6,6.5,6.8c0.4,0.5,0.9,1.1,1.3,1.6
			c4.6,3.2,8.4,7.2,12.7,10.6c1.5,1.2,3.5,2.9,4.8,4.4c0.7,0.8,1.3,1.7,2,2.5c6.4,5.1,11.4,11.3,17.6,16.3
			c6.3,5.1,11.5,11.4,18.2,16.2c2,1.4,3.5,4.7,6.1,5c0.6,6.3,1.4,14.6,1.5,20.1C419.3,413.8,419.6,413.7,419.3,414.1z M502.1,350.4
			c0.1,1,0,1.9,0.1,2.6c-1.8,1.8-5.2,2.1-6.9,4.1c0,0.2-0.1,0.4-0.1,0.7c0.2,0.3,0.4,0.6,0.7,0.9c1.1-0.4,1.6-1.2,2.5-1.5
			c0.8-0.4,1.4,0.2,2.2-0.2c0.6-0.3,0.9-0.8,1.6-1c0,0,0.1,0,0.1,0c0,1,0,2,0,3c-2.6,0.2-3.4,2.8-6.6,2.7c-0.2,0.6-0.5,0.8-1,1.3
			c0,0.3,0,0.5,0,0.8c0.1,0.2,0.3,0.4,0.4,0.5c3.2,0.4,4.3-2.4,7.1-3.1c0,1.2,0.1,2.3,0.1,3.5c0,0.1,0,0.2,0,0.3
			c-2.8,0.2-5.7,2.8-7.4,4.3c0,0.1,0,0.3,0,0.4c0.4,0.3,0.8,0.5,1.2,0.8c1.3-0.1,4.7-2.8,6.4-3.4c-0.1,0.8,0,1.5,0.1,2.2
			c-3,0.6-4.9,2.2-7.7,3.1c-0.2,0.5-0.2,0.7-0.4,1.2c0.3,0.3,0.6,0.6,0.9,0.9c2.4-0.3,4.7-1.7,6.8-2.6c-0.2,0.6-0.3,0.5,0,1.2
			c-0.4,0.4-0.7,0.2-1.3,0.5c-0.5,0.6-1.1,1.2-1.6,1.8c-2,1.3-4.1,2.1-6.2,3.3c-4.1,2.3-8.2,5.3-12.4,7.7
			c-5.1,2.8-10.6,4.6-15.3,7.7c-1.1,0.5-2.3,0.9-3.4,1.4c-5.5,3.9-10.9,6.2-17,9.7c-2.6,1.6-5.6,4.4-8.8,5.3c0.5-1.3,1.1-2,1-3.8
			c-2.9-1.6-8.6,4.7-9.5,6.7c-0.1,0-0.2,0-0.3,0c0.3-1.7,1.1-4.1,1.8-5.9c0.4-0.9,0-2.1,0.4-3.2c0.8-2.3,1.5-5.5,2.7-7.4
			c0.6-0.9,1.4-4.7,0.5-5.4c-0.5-0.5-1.3-0.1-1.9,0.1c-0.2,1.8-1.5,3.2-2.2,4.7c-1.5,3.8-3.1,7.5-4.6,11.3c-0.6,1.3-1.7,2.4-2,4.1
			c-0.6-1.1-0.3-5.6-0.4-5.8c-1.2-1.9-0.6-5.3-1-7.4c-0.2-1.2,0.2-2.5-0.2-3.6c0.2-1.3,5.7-4.6,7.3-4.5c-0.1-0.2-0.1-0.4-0.2-0.5
			c2-0.6,4.2-2.5,5.9-3.6c3.2-1.4,6.4-2.8,9.6-4.3c2.7-1.5,5.6-3.2,8.3-4.7c6.5-3.6,13-6.9,19.3-10.6c2.3-1.4,5-2,7.3-3.5
			c2.3-1.5,4.8-3.2,7.2-4.6c1.1-0.6,2.3-0.6,3.3-1.3c0.9-0.6,1.8-1.6,2.7-2.1c3.3-1.8,6.9-2.7,10.2-4.5
			C501.7,350.3,501.9,350.3,502.1,350.4z M500.9,347.2c-6.4,4.2-14.3,7.2-21.1,11.4c-5.6,3.4-11.8,6.7-17.4,10.1
			c-1.4,0.7-2.8,1.3-4.3,2c-3.3,2.6-8.1,4.7-11.8,6.5c-0.7,0.5-1.4,1-2.1,1.5c-2.9,1.5-5.8,2.6-8.8,3.9c-3,1.3-6,3.5-8.8,5.1
			c-2.2,1.3-4.6,2-6.1,3.9c-4-0.9-6.5-4.5-9.3-6.8c-9.3-7.5-18.1-15.4-26.4-23.9c-1.4-1.4-3.3-2.4-4.7-3.8c-1.7-1.8-3.2-4.2-5.1-5.7
			c-3.6-2.7-6.6-6.2-10.1-9c-2.4-1.9-4.8-3.6-7.1-5.6c-0.6-0.5-1.1-1.5-1.6-2.2c-2.3-2.3-4.5-4.6-6.8-6.9c-2.9-2.6-5.6-5.2-8.3-7.9
			c-1.4-1.2-2.7-2.4-4.1-3.6c-4.3-5.4-9-10.2-13.2-15.5c-1.4-1.8-4.1-3.1-5.6-4.8c-2.4-2.9-6-7.2-8.9-9.4c0-0.1,0-0.3,0-0.4
			c2.5-0.3,5.3-2.2,7.3-3.2c0.6-0.3,1.6,0,2.3-0.4c0.1-0.2,0.3-0.4,0.4-0.7c0,0,1.1,0.3,1.6,0c2.7-1.4,4.7-2.4,7.4-3.1
			c0-0.2-0.1-0.4-0.1-0.5c1.8,0.2,3.4-0.3,4.9-1.1c1.7,0.5,2.1,3.3,4.9,3.1c0.9-0.1,10.7-4.6,11.6-5.3c0.6-0.4,0.9-1.4,0.7-2.4
			c0.9-0.4,1.8-0.8,2.7-1.2c0.1,0,0.2,0,0.3,0c0.8,0.7,1.4,1.5,2.2,2.2c0,0,0,0.1,0,0.1c-2.6,1.6-3.8,3.6-5.7,5.9
			c0,0.3,0.1,0.7,0.1,1c0.9,0.6,1.7,0.5,3,1c0.1,0,0.1,0,0.2,0c-2.4,4.4-7.1,3.9-11.3,6.8c-1.1,0.8-2.5,1.9-3.7,2.5
			c-1.2,0.6-2.5,0.7-3.5,1.4c-0.6,0.6-1.2,1.2-1.9,1.9c-0.2,0-0.4-0.1-0.7-0.1c-0.6,0.7,1.8,4.5,2.2,5c3.2,4.5,7.6,8.1,11.1,12.4
			c0.9,1.1,2.5,1.9,3.3,3.1c5.7,7.7,13.2,14.1,20.4,20.5c1.7,1.8,3.4,3.5,5.1,5.3c3.1,2.8,6.4,5.3,9,8.5c2.9,3.7,11.2,8.5,12.5,12.8
			c0,0,2.3,2.1,3.2,1.9c0.8,0.1,2.8-2.2,3.6-2.7c4.2-2.9,8.5-5.6,12.7-8.3c1.9-1.2,4-1.5,6.1-2.5c5.7-2.7,11.6-6,17.5-9
			c1.4-0.8,2.7-1.5,4.1-2.3c3.2-1.2,5.9-3,8.8-4.5c3-1.5,6.2-2.6,8.9-4.5c0-2.9-2.8-4.3-4.8-5.6c-0.7-0.5-0.7-1.7-1.3-2.2
			c-0.9-0.7-1.9-1-3-1.6c-1.8-1.1-3.6-2.7-5.5-3.9c-5.7-3.9-10.9-8.6-16.4-12.6c-3.2-2.3-6.5-4.2-9.6-6.6c-1.1-1.1-2.1-2.2-3.2-3.3
			c-3.2-2.7-6.7-5-10.1-7.6c-1.9-1.6-3.7-3.2-5.6-4.8c0-0.1-0.1-0.2-0.1-0.3c1.4-0.1,3-0.6,3.4-1.8c3.1,0.4,5.2,3,7.4,4.4
			c5.8,3.5,11.4,7.1,16.8,10.9c2.3,1.7,5,2.8,7.2,4.7c5.6,4.8,11.6,8.7,17.7,13c2,1.4,3.7,3.5,5.8,4.8c0.8,0.3,1.5,0.7,2.3,1
			c0.5,0.6,1,1.2,1.5,1.8c3.7,2.4,6.8,5.1,10.3,7.7c1.8,1.1,3.5,2.2,5.3,3.3c5.6,4.2,11,8.5,17,12.3
			C497.5,344.5,499.2,345.9,500.9,347.2z M405.2,296.7c-0.3-0.8-0.6-1.2-1.5-1.3c-0.6,0.4-0.8,0.4-0.8,1.4c0.3,0.3,0.6,0.5,0.9,0.8
			C404.5,297.4,404.8,297.3,405.2,296.7z M400.4,296.7c-0.1,0.2-0.3,0.4-0.4,0.5c0,1,0.8,1.6,1.9,1.1c0.1,0,0.2-0.1,0.3-0.1
			c0-0.3,0.1-0.5,0.1-0.8c-0.1-0.2-0.2-0.4-0.3-0.5C401.4,296.9,400.9,296.8,400.4,296.7z M398.6,301.3c0.3,0.2,0.6,0.4,0.9,0.7
			c1-0.1,0.7-0.6,1.3-1.1c0-0.1,0.1-0.1,0.1-0.2c-0.7-0.3-0.8-0.6-1.9-0.7C398.8,300.5,398.7,300.6,398.6,301.3z M411.4,303.2
			c0.3-0.3,0.7-0.6,1-0.9c0-0.2-0.1-0.4-0.1-0.5c-0.4-0.2-0.8-0.4-1.2-0.5c-0.6,0.3-1,0.6-0.5,1.4C410.8,303,411,303.1,411.4,303.2z
			 M403.7,302c-0.1,0.1-0.3,0.1-0.4,0.2c-0.2,0.7-0.1,1.1,0.1,1.8c0.3,0.2,0.5,0.3,1,0.1c0.6-0.2,0.6-0.5,0.8-1.1
			C404.9,302.3,404.4,302,403.7,302z M417.5,302.9c-0.1,0.2-0.3,0.4-0.4,0.5c0,0.3,0,0.5,0,0.8c0.2,0.2,0.4,0.4,0.5,0.5
			c0.4-0.1,0.9-0.1,1.3-0.2c0.1-0.3,0.2-0.5,0.3-0.8C418.8,303.2,418.4,302.9,417.5,302.9z M408.9,305.7c0-0.3,0-0.7,0-1
			c-0.3-0.5-1-0.7-1.8-0.7c-0.4,0.5-0.3,0.4-0.7,0.2c-0.1,0.1-0.1,0.1-0.2,0.2c0.4,0.5,0.8,1.1,1.2,1.6
			C408,306,408.4,305.8,408.9,305.7z M352.3,307.6c0.1,0,0.3,0,0.4,0c0.3-0.4,0.5-0.8,0.8-1.2c-0.2-0.4-0.4-0.8-0.7-1.2
			c-0.3,0-0.7-0.1-1-0.1c-0.3,0.1-0.5,0.2-0.8,0.3C350.8,306.8,351.6,306.9,352.3,307.6z M403,308.7c0.3-0.5,0.5-0.9,0.8-1.4
			c0-0.1-0.1-0.2-0.1-0.3c-0.5-0.1-1-0.2-1.5-0.3c-0.3,0.3-0.5,0.6-0.8,0.9c0.1,0.4,0.3,0.9,0.4,1.3
			C402.4,308.8,402.4,308.8,403,308.7z M412.5,308c-0.1-0.3-0.1-0.5-0.2-0.8c-0.5-0.1-1-0.3-1.5-0.4c-0.2,0.4-0.4,0.7-0.7,1.1
			c0.1,0.3,0.2,0.6,0.3,0.9c0.1,0.1,0.3,0.2,0.4,0.3c0.4-0.1,0.8-0.1,1.2-0.2C412.2,308.6,412.4,308.3,412.5,308z M356.6,309.3
			c0.1-0.1,0.3-0.3,0.4-0.4c-0.1-0.4-0.1-0.8-0.2-1.2c-0.3-0.1-0.7-0.3-1-0.4c-0.2,0-0.4,0.1-0.5,0.1c-0.3,0.2-0.5,0.4-0.8,0.7
			c-0.3,0.6-0.1,1,0.5,1.2C355.6,309.4,356,309.4,356.6,309.3z M403.7,308.7c-0.1,0.2-0.3,0.4-0.4,0.7c0,0.3-0.1,0.6-0.1,0.9
			c0.2,0.2,0.4,0.4,0.7,0.5c1,0,1-0.3,1.6-0.7c0-0.1,0.1-0.1,0.1-0.2C405.1,309.2,404.6,308.9,403.7,308.7z M402.4,309.4
			c-0.4-0.2-0.9-0.4-1.3-0.7c-0.3,0.1-0.7,0.2-1,0.3c0.1,0.5,0.2,1,0.3,1.5c0.4,0.3,0.8,0.6,1.5,0.3c0,0,0.1,0,0.1,0
			c-0.3,0.8-0.2,0.8,0,1.6c0.4,0.2,0.7,0.3,1.4,0.3c0.2-0.1,0.4-0.3,0.5-0.4c0.1-0.3,0.1-0.7,0.2-1c-0.7-0.3-1-0.8-1.9-0.9
			C402.4,310.2,402.4,309.8,402.4,309.4z M357.7,309.5c-0.2-0.2-0.1-0.2-0.5-0.3C357.4,309.5,357.2,309.4,357.7,309.5z M412.3,309.8
			c-0.3,0.1-0.5,0.3-0.8,0.4c0,0.3-0.1,0.7-0.1,1c0.8,0.7,1.4,0.5,2.1-0.1c0-0.1,0-0.3,0-0.4c-0.2-0.2-0.4-0.4-0.5-0.7
			C412.8,309.7,412.8,309.8,412.3,309.8z M356.3,312.4c1,0,1.3-0.3,1.2-1.4c-0.3-0.2-0.5-0.4-0.8-0.7c-0.3,0-0.7-0.1-1-0.1
			c-0.1,0.2-0.3,0.4-0.4,0.7c0,0.5,0,0.6,0.2,0.9C355.7,311.9,356,312.2,356.3,312.4z M351.4,311.4c-0.1,0.1-0.3,0.1-0.4,0.2
			c0,0.8,0,1-0.3,1.4c0.3,0.2,0.7,0.4,1,0.7c0.5,0,1-0.1,1.3-0.3c0.3-0.2,0.5-0.7,0.7-1c-0.1-0.1-0.1-0.3-0.2-0.4
			C352.7,311.8,352.1,311.6,351.4,311.4z M420,311.6c-0.3,0.3-0.5,0.7-0.8,1c0.1,0.2,0.1,0.4,0.2,0.7c0.5,0.4,0.7,0.4,1.5,0.3
			c0.3-0.4,0.5-0.5,0.5-1.1c0-0.2,0-0.4,0-0.5c-0.3-0.1-0.6-0.3-0.9-0.4C420.4,311.5,420.2,311.6,420,311.6z M408.4,313
			c0-0.2,0.1-0.4,0.1-0.5c-0.1-0.2-0.2-0.4-0.3-0.7c-0.3-0.1-0.7-0.1-1-0.2c-0.5,0.3-0.7,0.2-1,0.8C405.3,314,407.8,314,408.4,313z
			 M356.1,313.8c-0.2,0.2-0.4,0.4-0.7,0.7c-0.1,0.4,0.1,0.7,0.2,1.2c1,0.6,1.4,0.3,2.3-0.2C357.6,314.6,357.4,313.8,356.1,313.8z
			 M425.5,315.6c-0.3,0-0.6-0.1-0.9-0.1c-0.2,0.1-0.4,0.2-0.7,0.3c-0.1,0.2-0.1,0.4-0.2,0.5c0.4,0.4,0.8,0.8,1.2,1.2
			c0.3-0.1,0.6-0.1,0.9-0.2C426.3,316.5,426.2,316.1,425.5,315.6z M407.8,317c0.1-0.1,0.2-0.1,0.3-0.2c-0.1-0.3-0.2-0.7-0.3-1
			c-0.5-0.1-1.1-0.1-1.6-0.2c-0.2,0.1-0.4,0.2-0.5,0.3c0.1,0.3,0.1,0.7,0.2,1c0.2,0.2,0.4,0.4,0.7,0.5
			C407.2,317.4,407.5,317.3,407.8,317z M416,318.4c0-0.3,0-0.5,0-0.8c-0.5-0.1-0.9-0.3-1.4-0.4c-0.5,0.4-0.7,0.6-1,1.2
			c0.6,0.4,0.7,0.7,1.6,0.8C415.5,318.9,415.8,318.7,416,318.4z M360.4,318.2c-0.3,0.1-0.5,0.1-0.8,0.2c-0.1,0.1-0.1,0.2-0.2,0.3
			c0.1,0.8,0.3,1.3,0.9,1.5c0.3,0.2,0.7,0.1,1.3,0c0-0.5-0.1-0.9-0.1-1.4C361.1,318.6,360.8,318.4,360.4,318.2z M399.8,320.3
			c0-0.4-0.1-0.9-0.1-1.3c0-0.1,0-0.1,0-0.2c-0.4,0-0.7,0-1.1,0c-0.3,0.3-0.5,0.6-0.8,0.9c-0.1,0.3-0.1,0.5,0.1,0.8
			c0.2,0.2,0.4,0.4,0.5,0.5c0.3,0,0.5,0,0.8,0C399.5,320.7,399.7,320.5,399.8,320.3z M395.9,321.5c0.4-0.3,0.8-0.6,1.2-0.9
			c-0.1-0.2-0.1-0.4-0.2-0.7c-0.3-0.2-0.7-0.4-1-0.5c-0.4,0-0.7,0.1-1.1,0.1c0,0.6,0.1,1.2,0.1,1.8
			C395.2,321.3,395.6,321.4,395.9,321.5z M402.5,319.7c-0.2,0.1-0.4,0.2-0.5,0.3c-0.1,0.3-0.2,0.6-0.3,0.9c0.6,1.1,1.3,0.8,2.4,0.4
			c0-0.5-0.1-0.9-0.1-1.4C403.4,319.9,402.9,319.8,402.5,319.7z M408,320c-0.1,0.3-0.2,0.7-0.3,1c0.3,0.6,0.5,1,1.4,1.1
			c0.5-0.5,0.5-0.8,0.4-1.8c-0.4-0.3-0.4-0.4-1-0.4C408.4,320,408.2,320,408,320z M362.1,321.4c-0.1,0.1-0.1,0.3-0.2,0.4
			c-0.2,0.6,0.2,1,0.5,1.4c0.4-0.1,0.7-0.1,1.1-0.2c0.1-0.4,0.3-0.7,0.4-1.1c-0.4-0.2-0.8-0.4-1.2-0.7
			C362.5,321.3,362.3,321.3,362.1,321.4z M396.9,321.7c-0.1,0.3-0.3,0.7-0.4,1c0.3,0.2,0.5,0.4,0.8,0.7c0.2,0,0.4,0.1,0.7,0.1
			c0.2-0.2,0.4-0.4,0.5-0.5c0-0.2,0-0.4,0-0.7c-0.3-0.3-0.7-0.5-1-0.8C397.2,321.5,397.1,321.6,396.9,321.7z M429.8,323.4
			c0,1.1,0.6,1.3,1.6,1.2c0.4-0.6,0.5-0.9,0.7-1.8c0,0,0-0.1,0-0.1c-0.5-0.1-1-0.1-1.5-0.2C430.2,322.9,430.1,323,429.8,323.4z
			 M387.2,322.8c-0.6,0.5-0.6,1.3-1.1,1.9c0,0.1,0.1,0.1,0.1,0.2c0.6,0,1.2,0,1.8,0c0.5-0.1,0.5-0.2,0.7-0.5
			C389.1,323.4,388.2,322.8,387.2,322.8z M392.6,324.2c-0.1-0.7-0.3-1-0.9-1.2c-0.2,0-0.4-0.1-0.7-0.1c-0.4,0.4-0.5,0.5-0.7,1
			c-0.1,0.2,0.2,0.8,0.8,1c0.2,0,0.4,0.1,0.7,0.1C392.1,324.7,392.4,324.5,392.6,324.2z M395.7,323.8c-0.3,0.1-0.7,0.1-1,0.2
			c-0.1,0.5-0.1,1.1,0.1,1.4c0.9,1.4,2.3-0.1,1.5-1.4C396.1,323.9,395.9,323.8,395.7,323.8z M415.4,324.5c-0.3,0.4-0.6,0.9-0.9,1.3
			c0.4,0.5,0.6,0.8,1.4,0.9c0.3-0.3,0.7-0.5,1-0.8c0-0.3-0.1-0.5-0.1-0.8C416.3,325,415.9,324.8,415.4,324.5z M365.8,325.2
			c-0.1,0.6,0.1,1-0.1,1.5c0.3,0.5,0.9,0.2,1.5,0.1c0.2-0.4,0.3-0.6,0.3-1.3c0,0,0-0.1,0-0.1c-0.4-0.3-0.5-0.4-1.3-0.4
			C366.1,325,365.9,325.1,365.8,325.2z M407.1,326.5c-0.2,0.1-0.4,0.2-0.5,0.3c-0.2,1.1,0,1.7,1.4,1.6c0.2-0.2,0.4-0.4,0.5-0.7
			c0.1-0.1,0.2-0.2,0.3-0.3C408.2,327,408.1,326.6,407.1,326.5z M377,327.3c-0.2,0-0.4-0.1-0.7-0.1c-0.7,0.9-2.5,4.4,0.4,3.9
			c0.5-0.7,1.1-2.1,1.1-3.1C377.5,327.8,377.2,327.5,377,327.3z M399.6,327.8c-0.3,0.6,0.3,1.3,0.1,1.6c0,0.1,0,0.2,0,0.3
			c0.5-0.3,1.1-0.5,1.6-0.8c0.1-0.3,0.1-0.7,0.2-1c0,0,0-0.1,0-0.1c-0.4-0.3-0.6-0.5-1.3-0.7C400,327.5,399.8,327.5,399.6,327.8z
			 M391.6,327.4c-0.1,0.6-0.3,1.1,0,1.6c0.3,0.4,0.6,0.5,1.3,0.5c0.2-0.2,0.4-0.4,0.5-0.7c0-0.2,0.1-0.4,0.1-0.7
			c0-0.1-0.1-0.1-0.1-0.2C392.9,327.6,392.5,327.5,391.6,327.4z M386.9,328.5c-0.4-0.7-0.6-0.9-1.6-1c-1.2,0.8-0.5,2.4,1.1,2.2
			C386.5,329.3,386.7,328.9,386.9,328.5z M372.5,328.1c-0.3-0.2-0.8-0.3-1.3-0.3c-0.1,0.3-0.2,0.6-0.3,0.9c-0.4,0.4,0,0.6,0.2,1.3
			c1.1,0,1.1,0.2,1.5,0.8c0,0,0.1,0,0.1,0c-0.1-0.3-0.3-0.5-0.4-0.8c0.6-0.2,0.5-0.3,1.2-0.2C373.3,329.2,372.9,328.5,372.5,328.1z
			 M379.5,329.4c0,0.2,0.1,0.4,0.1,0.7c0.2,0.5,0.2,0.5,0.7,0.7c0.4,0,0.9,0,1.3,0c0-0.4,0.1-0.8,0.1-1.2c0,0,0-0.1,0-0.1
			c-0.5-0.3-1-0.5-1.6-0.7C379.8,328.9,379.7,329.1,379.5,329.4z M409,331.9c-0.2,0.7-0.4,1.1-0.1,1.9c0.4,0,0.7,0.1,1.1,0.1
			c0.2-0.2,0.4-0.4,0.7-0.5c0-0.2,0.1-0.4,0.1-0.5c-0.1-0.2-0.2-0.4-0.3-0.7C410,332,409.5,331.9,409,331.9z M438.5,332.2
			c0.1,0,0.3,0,0.4,0c0-0.1,0-0.2,0-0.3c-0.1,0-0.3,0-0.4,0C438.5,332,438.5,332.1,438.5,332.2z M386.5,332.1
			c-0.4,0.4-0.5,0.6-0.5,1.4c0.2,0.2,0.4,0.4,0.7,0.5c0.7,0.3,1-0.1,1.4-0.3c0-0.4-0.1-0.8-0.1-1.2
			C387.4,332.4,387,332.2,386.5,332.1z M377.4,332.5c-0.1,0.1-0.3,0.2-0.4,0.3c0,0.5-0.1,1.1-0.1,1.6c0.6,0.2,0.5,0.2,1,0.5
			c0.4-0.4,0.8-0.9,1.2-1.3c-0.1-0.2-0.1-0.4-0.2-0.7C378.4,332.8,378.1,332.6,377.4,332.5z M399,337.1c-0.1,0.4-0.2,0.7-0.3,1.1
			c0.1,0.2,0.2,0.4,0.3,0.5c0.6,0.1,1.1,0.1,1.5-0.2c0.4-0.3,0.5-0.8,0.8-1.2c-0.3-0.1-0.6-0.3-0.9-0.4
			C399.9,337,399.4,337.1,399,337.1z"/>
	</g>
</g>
</svg>
