<?xml version="1.0" encoding="utf-8"?>
<!-- Generator: Adobe Illustrator 21.0.0, SVG Export Plug-In . SVG Version: 6.00 Build 0)  -->
<svg version="1.1" id="Calque_1" xmlns="http://www.w3.org/2000/svg" xmlns:xlink="http://www.w3.org/1999/xlink" x="0px" y="0px"
	 viewBox="0 0 841 595" style="enable-background:new 0 0 841 595;" xml:space="preserve">
<style type="text/css">
	.st0{fill:#DADADA;}
	.st1{fill:#1D1D1B;}
</style>
<g>
	<polygon class="st0" points="475.9,338.9 471.9,338.9 514,290.3 454.2,338.9 450.3,338.9 474.7,290.3 432.6,338.9 428.6,338.9 
		472.7,288 480.2,288 457.8,332.5 512.6,288 520.1,288 	"/>
	<path class="st0" d="M533.1,317.2l-4.7,5.4c-4,4.6-9.2,8.6-15.4,12c-5.9,3-11.2,4.5-15.8,4.5c-4.6,0-7.3-1.5-8.1-4.5
		c-0.4-3.3,1.4-7.3,5.4-12l4.7-5.4c4-4.6,9.1-8.6,15.3-11.9c6.3-3.4,11.7-5,16.4-5c4.7,0,7.2,1.7,7.7,5
		C539,308.6,537.1,312.5,533.1,317.2 M529,317.2c3.1-3.6,4.4-6.6,4.1-9.1c-0.3-2.5-2.2-3.8-5.8-3.8s-7.7,1.3-12.5,3.8
		c-4.7,2.5-8.6,5.5-11.7,9.1l-4.7,5.4c-3.1,3.6-4.5,6.7-4.2,9.2c0.5,2.5,2.4,3.8,5.9,3.8c3.6,0,7.7-1.3,12.4-3.8
		c4.7-2.5,8.7-5.6,11.7-9.1L529,317.2z"/>
	<path class="st0" d="M564.4,292.1l-7.7,8.9h6.1l-3.5,4h-6.1l-23.1,26.6c-1.9,2.2-1.8,3.3,0.4,3.3h2.1l-3.5,4H527
		c-2,0-3.1-0.7-3.2-2.1c-0.2-1.4,0.6-3.1,2.4-5.1l23.1-26.6h-5.9l3.5-4h5.9l7.7-8.9L564.4,292.1L564.4,292.1z"/>
	<path class="st1" d="M307.8,267.7c-0.3-5.7-0.7-12.6-0.7-17.6H307c-1.5,4.7-3.1,9.9-5.1,15.5l-7.2,19.8h-4l-6.7-19.4
		c-1.9-5.8-3.5-11-4.7-15.9h-0.1c-0.1,5.1-0.4,11.9-0.8,18l-1.1,17.5h-5l2.8-40.8h6.7l7,19.7c1.7,5,3,9.5,4.1,13.7h0.1
		c1.1-4.1,2.5-8.6,4.4-13.7l7.3-19.7h6.7l2.5,40.8h-5.2L307.8,267.7z"/>
	<path class="st1" d="M357,264.8c0,14-8.5,21.5-19,21.5c-10.8,0-18.3-8.4-18.3-20.8c0-13,8-21.4,18.9-21.4
		C349.8,244,357,252.6,357,264.8 M325.3,265.4c0,8.8,4.7,16.6,13.1,16.6c8.4,0,13.1-7.7,13.1-17c0-8.2-4.2-16.7-13-16.7
		C329.6,248.3,325.3,256.5,325.3,265.4"/>
	<polygon class="st1" points="370.1,249.3 357.7,249.3 357.7,244.8 387.9,244.8 387.9,249.3 375.4,249.3 375.4,285.6 370.1,285.6 	
		"/>
	<path class="st1" d="M301.6,308.3c0,10.7,1.8,16.3,2.8,16.3c0.4,0,0.5-0.5,0.8-0.5c0.2,0,0.3,0.1,0.3,0.3c0,0.4-0.4,1-1,1
		c-2.3,0-5.2-5.5-5.2-15.9c0-7.2,0.8-14.1,1-20.7c-4.5,23.1-6.9,34.4-11,34.4c-4.2,0-5.7-10.7-5.9-32.4c-4,24.4-11.4,36.6-22.3,36.6
		c-5.9,0-10.4-4.5-10.4-10.2c0-3.7,1.9-7,2.8-7c0.4,0,0.6,0.2,0.6,0.6c0,0.6-2.5,1.5-2.5,6.4c0,4.9,3.5,8.4,8.6,8.4
		c5,0,10.2-3.2,14.1-9c2.9-4.5,4.7-10.4,6.3-17.5c1.5-6.4,2.1-10.8,2.2-12.9c0.1-0.8-0.1-1.3,1.6-1.3c0.8,0,1.8,0.7,1.8,1.1
		c0,0.3-0.4,2.6-0.4,9c0,16.5,2.3,26,3.9,26c2.2,0,6.7-12.6,10.2-37c0-0.8,0.5-1.2,1.7-1.2c1.3,0,2.2,0.8,2.2,1.6
		c0,0.2-0.1,0.5-0.2,0.9C302,295.4,301.6,303.3,301.6,308.3"/>
	<path class="st1" d="M318.1,302.8c2.4,0,4.2,4.2,4.2,10.9c0,8-2.6,12.2-7.3,12.2c-3.9,0-6.8-3.7-6.8-10c0-8.8,3.9-14.7,6.8-14.7
		c0.8,0,1.6,0.5,2.5,1.7C317.8,302.8,318,302.8,318.1,302.8 M315.8,303.3c-2.4,0-5.4,5.5-5.4,13.7c0,5,1.9,7.8,4.9,7.8
		c3.3,0,5.3-3.4,5.3-9.9c0-6.9-1.6-10.8-3.2-10.8h-0.1C317,303.6,316.5,303.3,315.8,303.3"/>
	<path class="st1" d="M332.7,305.9h0.7c0.7,0,1.2,0.1,1.2,0.4c0,0.5-1,0.5-2.8,0.5h-1.3c-0.1,0-0.4,0.1-0.8,0.1
		c-0.5,5.5-0.7,9.4-0.7,11.4c0,4.5,1,6.7,2.9,6.7c1.8,0,1.9-1.9,2.3-1.9c0.2,0,0.5,0.3,0.5,0.7c0,0.8-1.4,2.1-3.1,2.1
		c-3.1,0-4.6-2.6-4.6-7.9c0-2.4,0.2-6.1,0.7-11.3c-1.4-0.1-2.1-0.1-2.1-0.6c0-0.4,0.7-0.3,2.2-0.4c0.1-0.4,0.5-4.2,1-11.4
		c-0.1-0.2-0.1-0.3-0.1-0.4c0-0.3,0.3-0.4,0.9-0.4c1.1,0,1.8,0.5,1.8,1c0,0.3-1,3.5-1.4,11.2C330.6,305.9,331.5,305.9,332.7,305.9"
		/>
	<path class="st0" d="M368.3,267.1h13.4c1.8,0,3,1.3,3,2.7V308c0,1.1-0.7,1.8-1.4,1.8h-1.6c-0.8,0-1.3-0.5-1.3-1.7v-34.6
		c0-1.2-0.5-1.7-1.3-1.7h-9.2c-1.8,0-2.7,1-2.7,3v33.3c0,1.2-0.5,1.7-1.6,1.7h-1.8c-0.9,0-1.7-0.7-1.7-1.8v-33.2c0-1.9-1-3-2.8-3
		h-8.5h-1c-1.5,0-2,0.2-2,2.2v8.3c0,0.4-0.1,0.8-0.1,1.2c0,0.8,0.2,1.6,1,2.9l1.8,2.8c0.8,1.3,0.9,2.3,0.9,3.5v15.4
		c0,1-0.8,1.8-2,1.8h-5.3c-0.8,0-1.5-0.7-1.5-1.8v-38.2c0-1.8,1.1-2.7,3.1-2.7h15c2.5,0,3.6,0.8,3.8,3.1
		C364.7,267.9,365.7,267.1,368.3,267.1"/>
	<path class="st0" d="M414.5,309.8h-22.4c-1.4,0-2.1-0.5-2.1-1.7v-25.9c0-1.5,0.8-1.9,2.5-1.9h21.7c1.5,0,2.2,0.7,2.2,2.1v25.4
		C416.6,309.3,416,309.8,414.5,309.8 M407.9,299.3v-0.4c0-1.6,0.1-3,1.2-4.9l1.4-2.3c0.4-0.7,0.9-1.2,0.9-2.4v-3
		c0-0.7-0.2-1.1-0.9-1.1h-14.4c-0.7,0-0.8,0.4-0.8,1.1v17.7c0,0.7,0.1,1.1,0.8,1.1h11c0.7,0,0.8-0.4,0.8-1.1V299.3z"/>
	<path class="st0" d="M435.9,307.7v-33.9c0-1.7-0.5-2.4-1.9-2.4H422c-1.2,0-1.8-0.5-1.8-1.5v-1.8c0-0.7,0.6-1,1.8-1h32.3
		c1.8,0,2.8,1,2.8,2.3v4.5c0,1.8-0.7,2.2-2.6,2.2h-10.2c-2,0-3.1,0.2-3.1,2v29.6c0,1.4-0.6,2.1-1.7,2.1h-2.1
		C436.5,309.8,435.9,309.1,435.9,307.7"/>
	<polygon class="st1" points="476.2,338.9 472.1,338.9 472.1,290.3 454.4,338.9 450.5,338.9 432.8,290.3 432.8,338.9 428.8,338.9 
		428.8,288 436.3,288 452.5,332.5 468.7,288 476.2,288 	"/>
	<path class="st1" d="M514.5,317.2v5.4c0,4.6-1.7,8.6-5,12c-3.4,3-7.3,4.5-11.9,4.5c-4.6,0-8.6-1.5-12-4.5c-3.3-3.3-5-7.3-5-12v-5.4
		c0-4.6,1.7-8.6,5-11.9c3.4-3.4,7.3-5,12-5c4.7,0,8.7,1.7,12,5C512.8,308.6,514.5,312.5,514.5,317.2 M510.4,317.2
		c0-3.6-1.3-6.6-3.8-9.1c-2.5-2.5-5.5-3.8-9.1-3.8c-3.6,0-6.6,1.3-9.1,3.8c-2.5,2.5-3.8,5.5-3.8,9.1v5.4c0,3.6,1.3,6.7,3.8,9.2
		c2.6,2.5,5.7,3.8,9.1,3.8c3.6,0,6.6-1.3,9.1-3.8c2.5-2.5,3.8-5.6,3.8-9.1V317.2z"/>
	<path class="st1" d="M524.1,292.1v8.9h6.1v4h-6.1v26.6c0,2.2,1.1,3.3,3.2,3.3h2.1v4h-2.2c-2,0-3.7-0.7-5.1-2.1
		c-1.4-1.4-2.1-3.1-2.1-5.1V305h-5.9v-4h5.9v-8.9L524.1,292.1L524.1,292.1z"/>
</g>
<g>
	<path d="M372.2,313c1.6,0,3.2,0.2,4.8,0.2c1.3,0,2.6-0.2,3.9-0.2c0.8,0,0.9,0.2,0.9,0.4v0.8c0,0.4-0.2,0.6-0.4,0.6
		c-0.4,0-0.9-0.1-1.5-0.1c-2.9,0-2.9,1.5-2.9,4.8c0,2.9,0.6,21.8,0.6,24.6c0,1.4,0.7,3,2.9,3c2,0,2.3,0.1,2.3,0.6
		c0,0.6-0.3,1.1-0.5,1.1c-2.7,0-4.8-0.3-6.9-0.3s-4.3,0.3-6.5,0.3c-0.4,0-0.4-0.2-0.4-0.5v-0.5c0-0.5,0.5-0.7,2.8-0.7
		c1,0,1.9-1.2,1.9-3c0-5.5-0.2-17.3-0.4-25.9l-0.2-0.1c-2.8,5.8-6.5,14.3-8.3,18.8l-4.8,12.5c-0.1,0.2-0.2,0.3-0.5,0.3
		c-0.3,0-0.5-0.3-0.6-1c-0.3-1.3-0.8-2.5-1.3-3.7l-9.6-23.3c-0.4-0.9-0.7-1.5-0.9-1.5c-0.2,0-0.2,1-0.2,1.6c0,4-0.6,19.3-0.6,21.8
		c0,2.2,0,3.4,4.5,3.4c0.3,0,0.4,0.3,0.4,0.9c0,0.2-0.1,0.8-0.3,0.8c-0.7,0-3.2-0.3-5.9-0.3c-2.9,0-5.7,0.3-6.4,0.3
		c-0.2,0-0.3-0.2-0.3-0.4v-0.8c0-0.5,0.4-0.5,1-0.5c4.2,0,4.8-1.3,4.8-5.7c0-2.5,0.9-21.1,0.9-23c0-2.7-1.3-3.8-5.9-3.8
		c-0.2,0-0.3-0.3-0.3-0.6v-0.7c0-0.3,0.2-0.5,0.4-0.5c1.9,0,3.7,0.3,5.8,0.3c1.3,0,2.6-0.3,3.9-0.3c0.4,0,0.7,0.8,1,1.5l10.9,26.2
		h0.3L372.2,313z"/>
	<path d="M399.1,326.1c6,0,11.3,5.3,11.3,11.4c0,7.3-6,12.1-12.7,12.1c-6.1,0-11-5.2-11-11.4C386.8,331.4,392.4,326.1,399.1,326.1z
		 M398,327.8c-5.1,0-6.6,4.8-6.6,9.7c0,4.5,2.4,10.4,7.6,10.4c5,0,6.9-4.4,6.9-8.8C405.9,334,404.1,327.8,398,327.8z"/>
	<path d="M417.4,330.8c0-1.7-0.7-1.7-2.4-1.7c-0.5,0-0.9,0-0.9-0.7c0-0.5,0.6-0.9,1.1-1.3c1.7-1.3,4.4-3.4,5.7-5
		c0.5,0,0.7,0.1,0.7,0.6c0,1.3-0.2,2.7-0.2,4h6.4c0.6,0,0.6,0.1,0.6,1.1c0,1-0.1,1.2-0.6,1.2h-6.5v13.3c0,2.2,0.6,4.2,3.1,4.2
		c1.7,0,2.9-1.1,3.6-2.6l0.9,0.7c-0.9,2.8-3,4.8-6,4.8c-2.8,0-5.4-1.5-5.4-4.6L417.4,330.8L417.4,330.8z"/>
</g>
</svg>
