<?xml version="1.0" encoding="utf-8"?>
<!-- Generator: Adobe Illustrator 21.0.0, SVG Export Plug-In . SVG Version: 6.00 Build 0)  -->
<svg version="1.1" id="Calque_1" xmlns="http://www.w3.org/2000/svg" xmlns:xlink="http://www.w3.org/1999/xlink" x="0px" y="0px"
	 viewBox="0 0 841.9 595.3" style="enable-background:new 0 0 841.9 595.3;" xml:space="preserve">
<style type="text/css">
	.st0{fill:#DADADA;}
	.st1{fill:#1D1D1B;}
</style>
<path class="st0" d="M384.7,380.1c7.6-0.8,16.1-1.3,25.2-1.3c31.5,0,57.1,5.5,57.1,12.3s-25.6,12.3-57.1,12.3
	c-23.4,0-43.6-3.1-52.4-7.4c0,0,11.2-1.4,27.1-15.3"/>
<g>
	<g>
		<path class="st1" d="M475.1,217.5c-1.1-0.9-1.6-0.5-2.6-1c0-1.2-0.1-1.7-0.9-2.8c-0.2-0.3-0.9-0.5-1.2-1c-0.3-0.4-0.5-1.1-0.8-1.4
			c-0.5-0.5-1-0.9-1.5-1.4c-1.3-1.6-3.2-2.6-4.7-3.6c-0.9-0.6-2.2-1.9-3-2.3c-1-0.8-1.9-1.6-2.9-2.4c-0.8-0.5-1.9-1.3-2.8-1.7
			c-0.3-0.2-0.6-0.5-0.9-0.7c-1-0.4-1.9-0.6-2.7-1.1c-0.5-0.3-1-1-1.8-1.3c-1.9-0.9-3.6-1.9-5.5-2.8c-1.3-0.9-2.6-1.7-3.9-2.6
			c-0.9-0.3-2.1-0.9-3-1.2c-0.3-0.2-0.6-0.4-0.9-0.6c-2.9-1-6.2-2.5-8.9-3c-0.2-0.2-0.4-0.3-0.6-0.5c-0.2,0-0.4,0.1-0.6,0.1
			c-0.5-0.1-0.7-0.5-1.2-0.7c-1.1-0.3-2.4-0.5-3.5-0.8c-0.5-0.2-0.8-0.5-1.4-0.7c-4.8-1.2-9.7-1.8-14.4-1.7c-0.1-0.3-0.1-0.3,0-0.6
			c-0.3-0.2-0.4-0.3-0.7-0.4c-0.3,0.4-0.3,0.7-0.5,1c-0.4,0.2-1.1,0.4-1.4,1.1c-0.2,0.4-0.4,1.3-0.6,1.6c-0.1,0.2-0.4-0.1-0.5,0.2
			c0,0.1,0.2,0.5,0.1,0.6c-0.2,0.2-0.4,0.4-0.6,0.7c0,0.2,0,0.4,0,0.5c-0.2,0.8-0.9,1.4-1.1,1.9c-0.6,1.8-1.4,3.8-2.2,5.5
			c-0.4,0.8-1.2,1.4-1.5,2.2c-0.1,0.3,0,0.9-0.2,1.2c-0.5,1.1-1.5,1.7-1.8,2.4c-0.2,0.4-0.8,1.7-1,2l-1.6,2.1
			c0.1,0.1,0.1,0.1,0.2,0.2c0,0.3-0.5,0.7-0.5,0.8c-0.1,0.2-2,1.1-2.3,1.4c-0.3,0.2-0.3,0.6-0.4,0.7c-0.9,0.8-2.1,2-3,2.9
			c-0.8,0.7-1.6,2.3-2.9,3.1c-1.6,1.1-3.6,2.4-5.3,3.2c-0.2,0.2-0.5,0.5-0.7,0.7c-0.6,0.3-1.5,0.5-2,0.8c-0.3,0.3-0.5,0.6-0.8,1
			c-0.2,0.1-0.7,0.2-0.9,0.4c-0.2,0.2-0.3,0.4-0.5,0.6c-0.5,0.3-1.4,0.5-2,0.8c-0.4,0.3-0.8,0.7-1.2,1c-0.4,0.2-1.2,0.3-1.6,0.6
			c-0.2,0.2-0.4,0.4-0.6,0.7c-0.2,0.1-0.7,0.1-1,0.2c-0.6,0.3-1,0.9-1.6,1.1c-0.2,0-0.5,0-0.7,0.1c-0.4,0.2-0.9,0.7-1,0.8
			c-0.4,0.2-1.1,0.1-1.5,0.2c-0.3,0.2-0.6,0.4-0.8,0.6c-1,0.4-2.3,0.7-3.3,1c-0.8,0.3-1.2,0.9-2,1.3c-0.5,0.2-1.4,0.3-2,0.5
			c-0.4,0.1-0.4,0.4-0.8,0.6c-0.7,0.3-1.7,0.3-2.4,0.6c-1,0.3-1.7,0.9-2.7,1.1c-0.4,0-0.8,0-1.2,0c-0.6,0.2-1,0.5-1.5,0.7
			c-0.4,0-0.9,0-1.3,0c-0.2,0.1-0.3,0.3-0.5,0.4c-0.7,0.3-1.7,0.2-2.4,0.4c-0.5,0.1-0.8,0.5-1.3,0.6c-0.4,0-0.7-0.1-1.1-0.1
			c-3.1,1-6,1.8-9.2,2.6c-0.9,0.2-2,0.1-2.9,0.4c-0.2,0.2-0.4,0.3-0.6,0.5c-0.7,0.3-1.5,0-2.2,0.1c-0.6,0.1-1.1,0.6-1.7,0.7
			c-0.5,0.1-1.1,0-1.6,0.1c-0.9,0.3-1.8,0.5-2.6,0.8c-0.2,0.2-0.5,0.3-0.8,0.5c-0.9,0.3-2,0.1-2.9,0.4c-1.9,0.5-3.7,0.9-5.6,1.4
			c-0.5,0.1-0.8,0.5-1.3,0.7c-0.7,0.4-1.8,0.5-2.5,0.9c-0.5,0.2-0.7,0.7-1.2,0.9c-0.6,0.3-1.6,0.4-2.2,0.7c-0.3,0.3-0.6,0.6-0.9,0.9
			c-1.1,0.7-2.7,1.8-3.9,2.5c-0.9,0.5-1.3,1.8-2.1,1.8c-0.2,0.5,0,1.1-0.2,1.6c-0.2,0.5-0.7,0.9-0.8,1.1c-0.1,0.5-0.1,1.3-0.3,1.7
			c-0.2,0.5-0.8,1.2-0.8,1.4c-0.1,0.3,0.1,0.9,0,1.2c-0.1,0.6-0.4,0.9-0.4,1.5c0,0.3,0.3,0.5,0.3,0.8c0,0.4-0.3,0.8-0.2,1.3
			c0.1,1.2,0.1,2.6,0.4,3.8c0.1,0.2,0.3,0.3,0.4,0.5c0,0.3,0,0.5,0,0.8c0.2,0.2,0.5,0.5,0.7,0.7c0.1,0.2,0.1,0.8,0.2,1
			c0.2,0.2,0.4,0.3,0.6,0.5c0.7,1.3,0.9,2.5,2.4,3.6c-0.1,0.1-0.2,0.2-0.2,0.3c0.4,0.2,2.2,1.3,2.5,1.7c0.2,0.3,0.2,1,0.6,1.2
			c0.1,0,0.6,0.1,0.7,0.1c0.4,0.3,0.8,0.6,1.2,1c0.6,0.2,1.4,0.4,1.9,0.6c0.7,0.3,0.9,0.7,1.5,0.9c0.5,0.2,1.3,0.2,1.8,0.4
			c0.8,0.2,0.7,0.6,1.5,0.8c1.2,0.3,2.4,0,3.6,0.7c0.7-0.6,1.4,0.2,2.2,0.3c0.8,0.2,1.9,0,2.7,0.1c1.1,0.2,1.9,0.5,3,0.5
			c0.6,0,1.3-0.4,1.9-0.4c1,0,2.1,0.1,3.1-0.2c0.5-0.1,0.8-0.5,1.3-0.6c0.5-0.1,1.6,0,2.1-0.2c0.9-0.3,1.6-0.9,2.5-1
			c0.2,0,0.4,0.2,0.5,0.1c0.6-0.1,1.2-0.6,1.9-0.7c0.4,0,0.8,0.1,1.2,0c0.7-0.2,1.3-0.6,2.1-0.7c0.1-0.1,0.1-0.1,0.2-0.2
			c0,0.1,0,0.1,0,0.2c0.9,0.2,2.5-0.9,3.4-1.2c0.6-0.2,1.4,0.4,2,0.2c0.1-0.2,0.3-0.3,0.4-0.5c0.3-0.1,0.9,0.1,1.2,0.1
			c0.9-0.1,1.6-1,2.5-1c0.1,0.1,0.2,0.2,0.3,0.2c0.5,0.1,1.1-0.2,1.7-0.2c0.4,0,0.7,0.3,1.1,0.3c0.9,0.7,1,1.1,1.2,1.8
			c-0.5,0.9-0.3,1.5-0.5,2.2c-0.2,0.9-1,1.4-1.2,2.2c-0.9,0.6-1.7,2.1-2.1,2.9c-0.2,0.3-0.5,0.5-0.7,0.6c-0.5,0.4-0.7,1.1-1,1.4
			c-0.3,0.3-0.7,0.5-1.1,1c-1.2,1.6-2.5,3.1-3.7,4.7c-2.5,2-4.9,6.2-6.9,8.1c-0.5,0.5-0.8,1.6-1.1,1.9c-1.8,1.5-3.3,3.7-4.8,5.9
			c-0.5,0.7-1.4,1.1-1.9,2c-0.3,0.7-1,1.8-1.5,2.5c-0.4,0.4-0.8,0.8-1.1,1.2c-0.2,0.4-1,1.5-1.4,2.1c-0.2,0.3-0.7,0.5-1,1
			c-1,2-2.4,3.9-3.2,6c-0.4,1-1,1.1-1.1,2.1c-0.3,0.1-0.8,0.5-1,1c-0.7,1.6-1.1,3.6-1.6,5.2c-0.2,0.3-0.5,0.7-0.7,1
			c-0.4,0.9-1.1,2.2-1.3,3c-0.2,0.3-0.4,0.5-0.6,0.8c-0.6,1.6-0.8,3.5-1,5.2c-0.1,0.9-0.5,1.6-0.7,2.5c-0.4,3.5-0.1,6.8-0.5,10.4
			c0.1,0.3,0.2,0.6,0.3,0.9c0,0.5-0.2,0.8-0.2,1.3c0,0.7,0.3,1.4,0.2,2.1c0.1,0.1,0.2,0.2,0.3,0.2c-0.6,1,0,2.2,0.3,3.2
			c0.1,0.4-0.1,1.2,0,1.6c0.2,0.8,0.9,1.7,0.7,2.5c0.1,0.1,0.3,0.2,0.4,0.3c-0.1,0.1-0.2,0.2-0.2,0.3c1.1,1,0.9,1.8,1.3,2.7
			c0.1,0.4,0.5,0.5,0.6,0.8c0,0.4,0.1,0.7,0.1,1.1c0.2,0.6,1.4,2.5,1.8,2.9c-0.1,0.1-0.2,0.2-0.2,0.3c0.6,0.7,0.9,1.9,1.4,2.6
			c0.2,0.2,0.5,0.3,0.8,0.5c0.2,0.3,0.6,0.9,0.8,1.2c0.2,0.1,0.3,0.1,0.5,0.2c0.1,0.1,0.2,0.8,0.3,0.9c0.3,0.4,0.9,0.2,1.1,0.4
			c0.1,0.2,0.1,0.6,0.2,0.8c0.8,1.4,2,1.5,3,2.8c0.4,0.5,1.1,1.5,1.4,1.8c0.4,0.4,0.7,0.7,1,1.2c0.2,0.3,0.5,0.1,0.5,0.1
			c0.1,0.2,0.1,0.8,0.2,1c0.2,0.3,2.1,1.4,2.3,1.6c0.6,0.7,3.7,2.8,4.2,2.7c0,0.9,2.4,1.7,3,2c1.1,0.5,1.7,1.6,2.8,2
			c1.1,0.4,2.3,0.1,3.4,0.6c0.9,0.4,1.5,1,2.4,1.2c0.5,0.1,1.3,0.1,1.8,0.2c2,0.4,3.7,1.3,5.6,1.4c0.5-0.1,1-0.2,1.6-0.3
			c0.6,0,1.1,0.2,1.7,0.3c0.3-0.1,0.7-0.2,1-0.3c0.4,0.1,0.7,0.3,1.1,0.4c0.8,0.1,1.9,0,2.8,0c0.4,0,0.7-0.5,1.1-0.5
			c0.8-0.1,1.6,0.1,2.4-0.1c2.6-0.9,4.9-3.1,7.5-4.5c1-0.6,2.4-0.3,3.6-1c0.4-0.2,0.7-0.5,1.1-0.7c0.3-0.4,0.6-0.7,0.9-1.1
			c2.2-1.3,4.7-3.3,6.8-4.6c0.2-0.3,0.3-0.5,0.5-0.8c1.3-1,2.3-2.6,3.7-3.4c0.6-0.4,1.6-0.3,2.2-0.6c0.2-0.2,0.1-0.4,0.2-0.5
			c0.4-0.3,1-0.6,1.4-0.9c0.8-0.6,1.1-2,2.1-2.7c3-2.2,5.5-5.2,8.5-7.4c0.5-0.4,0.9-1.2,1.1-1.5c0.4-0.7,1.3-1.6,1.6-1.9
			c0.6-0.5,1.2-1.7,2-2.4c0.8-0.6,1.6-2.4,1.9-3.1l1-1.2l0-0.4c2.3-2.8,4.8-5.7,6.2-8.7c0.4-0.5,0.9-1,1.3-1.5
			c0-0.1,0.1-0.4,0.1-0.5c0.2-0.1,0.3-0.3,0.5-0.4c0.5-1.1,1.3-2.5,1.7-3.4c0.5-0.6,1-1.2,1.5-1.8c0.5-1.5,1.5-3.2,2.7-4.6l0.3,0.2
			c0.1-0.1,0.2-0.2,0.2-0.3c-0.2-0.1-0.2-0.1-0.4-0.1c0-0.3,0-0.3-0.1-0.6c1.7-1.4,1.2-2,2-3.4c0.2-0.2,0.4-0.4,0.7-0.6
			c0.2-0.4,0.2-1.1,0.4-1.5c0.2-0.3,0.5-0.6,0.7-0.9c0.4-0.9,0.9-2.2,1.1-3.1c0.2-0.1,1.7-2.4,1.8-2.9c0.8-0.5,1.4-2,1.4-2.7
			c0.4-0.1,1.8-3.5,2-4c0.2-0.2,0.4-0.3,0.6-0.5c0.3-1.3,0.6-2.3,1.4-3.6c0.2-0.2,0.4-0.3,0.6-0.5c0-0.1-0.2-0.5-0.1-0.6
			c0.1-0.5,0.5-0.7,0.7-1.2c0.3-1.2,0.8-2.6,1.3-3.8c0.5-1.1,1.7-3.1,2.1-3.7c0.2-0.2,0.9-0.6,1.1-1.1c0-0.2-0.2-0.4-0.1-0.6
			c0.3-0.4,0.5-0.8,0.8-1.1c0-0.2,0-0.5-0.1-0.7c0.2-0.7,1.3-1.7,1.4-2.4c0.3-1.5,1.4-3.2,1.8-4.9c0.2-0.1,0.8-0.6,0.9-0.9
			c0,0-0.1-0.7-0.1-0.7c0.1-0.6,0.6-1,0.7-1.7c0-0.1-0.1-0.2-0.1-0.3c0.2-0.5,0.9-0.6,1-1.2c0.1-0.2-0.1-0.7,0-1
			c0.2-0.7,0.8-1.8,1-2.4c0.4-0.6,0.8-1.2,1.2-1.8c-0.1-0.2-0.1-0.3-0.2-0.5c0-0.3,0.3-0.5,0.4-0.8c-0.1-0.1-0.1-0.1-0.2-0.2
			c0.3-0.5,0.6-0.9,0.8-1.4c0.1-0.5,0.2-1.2,0.5-1.7c0.5-1,1-1.5,1-2.4c0.9-0.1,0.9-1.8,1.2-2.4c0.2-0.4,0.4-0.2,0.5-0.6
			c0-0.2,0-0.1-0.2-0.3c1-1.3,0.9-3.1,1.4-4.6c0.2-0.3,0.4-0.6,0.6-0.9c0.2-0.5,0.3-1.5,0.5-2c0.2-0.2,0.3-0.4,0.5-0.6
			c0.1-0.4,0-1,0.1-1.3c0.2-0.3,0.4-0.6,0.6-0.9c0-0.1-0.1-0.2-0.1-0.3c0.2-0.5,1.4-1.6,1.5-2.2c0.1-0.7,0.1-1.6,0.2-2.2
			c0.1-0.3,0.4-1,0.4-1.1c0.2-0.1,0.3-0.3,0.5-0.4c0.2-0.5,0.3-1.5,0.5-2c0.2-0.3,0.5-0.7,0.7-1c0.4-2.2,1.4-4.3,2-6.3
			c0.3-0.9,1.1-1.5,1.4-2.4c0.2-0.7,0.3-1.6,0.5-2.4c0.1-0.4,1.1-1.3,1.1-1.3c0-0.1-0.2-0.4-0.2-0.5c0.1-0.5,0.8-0.8,0.9-1.3
			c0.1-0.2,0-0.9,0.2-1.2c0.3-0.4,0.6-0.7,0.9-1.1c0.6-1.2,0.9-1.8,1.4-2.9c0.3-0.7,0.9-0.9,1.1-1.3c1.2-2.5,3.6-8.5,5.3-9.7
			c-0.1-0.2-0.1-0.2-0.3-0.4C474.4,220.2,474.9,218.6,475.1,217.5z M406.8,184.1c1-0.1,2-0.2,3-0.3c0.7,0.1,2.2,0.6,2.8,0.5
			c0.2,0,0.2-0.3,0.4-0.3c0,0,0.8,0.5,1.1,0.6c0.8,0.2,1.8,0,2.6,0.2c0.5,0.1,0.8,0.4,1.3,0.6c1.4,0.4,3.1,0.6,4.4,0.9
			c1.6,0.4,3.1,1,4.7,1.4c0.3,0.2,0.5,0.3,0.8,0.5c0.3,0,1.2,0.1,1.7,0.3c0.3,0.2,0.7,0.5,1,0.7c1.8,0.5,4.1,1.5,6,2
			c0.8,0.5,1.5,0.9,2.3,1.4c0.3,0.1,1.1,0.3,1.5,0.6c0.2,0.3,0.3,0.5,0.5,0.8c0.7,0.1,1.3,0.8,1.8,1c0.6,0.3,1.5,0.5,2,0.9
			c0.5,0.4,1.6,1.3,2.5,1.7c5.6,2.5,11,6.1,15.3,9.9c0.8,0.8,2.3,1,3.1,1.9c1.8,2.2,3.8,4.5,4.9,6.8c-0.7,0.6-3,0.7-3.8,0.6
			c-0.3-0.1-0.7-0.2-1-0.4c-3,0.5-6,0-9-0.9c-1-0.3-1.7-0.8-2.8-1c-0.8-0.1-2.4-0.8-3.6-1c-0.4-0.1-0.4-0.5-0.7-0.6
			c-0.1,0.1-0.2,0.1-0.3,0.2c-0.2-0.2-0.4-0.4-0.7-0.6c-0.7-0.3-2.1-1.3-2.6-1.4c-0.1,0.1-0.2,0.1-0.3,0.2c-0.1-0.1-0.1-0.2-0.2-0.3
			c-0.5-0.1-1.4-0.4-1.9-0.6c-0.2-0.2-0.4-0.3-0.6-0.5c-1.7-0.5-4.3-1.9-6.2-2.7c-0.6-0.3-1.6-1.3-2.1-1.4c-1.6-0.3-3.6-2.3-5.5-3.1
			c-1.5-0.6-4-2.3-5.6-2.7c-0.4-0.6-1.7-1.2-2.2-1.3c-0.3-0.5-0.6-0.6-1-0.7c-0.6-1-2-1.7-2.9-2.2c-0.5-0.3-1.4-1.4-1.5-1.6
			c-1.3-0.6-2.1-2.1-3.2-3c-0.9-0.7-2.6-2.1-3.4-3.1c-0.2-0.3-0.7-0.4-0.8-0.5c-0.8-1-1.3-1.7-2.3-2.4
			C406.8,185,406.7,184.6,406.8,184.1z M452.6,239.2c-0.1,0.5-0.4,0.8-0.4,1.3c0,0.2,0,0.1,0.2,0.3c-0.2,0.5-0.4,0.9-0.6,1.5
			c-0.7-0.1-1.7,0.1-2.3,0c-0.4-0.1-0.7-0.4-1.1-0.4c-0.1-0.3,1.1-2.7,1.2-3.2c0.1-0.2-0.2-0.4-0.1-0.6c0.2-0.2,0.3-0.5,0.5-0.8
			c0.5-1.8,1.3-3.9,1.9-5.8c0.2-0.5,0.5-0.5,0.6-0.8c0-0.1-0.1-0.2-0.1-0.3c0.2-0.2,0.4-0.3,0.6-0.5c0-0.1-0.1-0.2-0.1-0.3
			c0.2-0.2,0.4-0.4,0.6-0.7c0.1-0.1,0-0.5,0-0.6c0.4-1.2,1.3-1.5,1.6-2.5c0-0.1-0.1-0.3-0.1-0.4c0.1-0.3,0.5-0.8,0.5-0.8
			c0.5-0.6,0.6-1.4,0.9-1.9c0.3-0.5,1.2-1.1,1.4-1.9c0.1-0.5,0.7-2.1,1-2.2c0.9-1,2.1-0.1,3.1-0.2c0.4,0.8-0.3,1.5-0.7,2.4
			c-0.6,1.6-1.1,2.8-2.2,4.5c-0.5,0.9-1.2,2.9-2.1,4.3c-0.1,0.1-0.4,0.1-0.5,0.4c-0.3,0.9-0.8,2.6-1.3,3.8c-0.2,0.2-0.4,0.3-0.6,0.5
			c-0.4,0.7-0.5,1.7-0.8,2.3c-0.4,0.5-0.8,1.1-1.2,1.6C452.5,238.5,452.7,239,452.6,239.2z M434.6,236.1c0.3-0.6-0.1-0.3-0.1-0.7
			c0-0.4,0.9-1.1,0.9-1.3c-0.1-0.2-0.1-0.3-0.2-0.5c0-0.3,0.5-1.5,0.6-1.7c0.6-1.3,1.4-2.2,2.1-3.7c0.7-1.7,1.3-3.6,1.9-5.2
			c0.3-0.8,0.8-1.5,1.1-2.1c0.2-0.2,0.5-0.5,0.7-0.7c0.9-2.2,2.4-4.4,3.2-6.6c0.3,0,0.6-0.1,0.9-0.1c0.7,0.1,1.2,0.8,1.9,0.9
			c0.2,0.2,0.4,0.4,0.7,0.6c0.1,0.4-0.5,0.8-0.6,1.3c-0.2,0.7-0.4,1.3-0.6,2.1c-0.3,1-1.2,1.5-1.5,2.5c-0.3,1-1.1,1.9-1.5,3
			c-0.8,2.2-1.9,4.3-2.8,6.5c-0.3,0.5-0.7,1-1,1.4c0,0.1,0.2,0.8,0.2,0.8c-0.1,0.6-0.8,1-0.9,1.2c-0.2,0.4-0.1,1.3-0.3,1.7
			c-0.3,0.9-0.8,1.8-0.8,2.4c-0.9,0.9-2.9-0.8-3.6-0.9c0-0.2,0-0.1,0.1-0.4C434.8,236.3,434.7,236.2,434.6,236.1z M412.8,223.4
			c-0.1,0.2-0.2,0.3-0.5,0.4c-0.4-0.1-1.4-1.3-1.8-1.3c-0.5-0.5-0.3-0.5-0.5-0.9c0.8-0.6,0.6-2,1.3-2.5c0.7-0.5,1.5-2.9,1.9-4
			c0.3-0.7,0.9-1.1,1.2-1.9c0.6-1.2,1-2.4,1.5-3.5c0.4-0.5,0.7-1,1.1-1.5c0.2-0.5,0.4-1.3,0.6-1.9c0.2-0.4,0.6-0.7,0.6-0.8
			c0.4-1.3,0.7-3.2,1.7-4c0-0.2,0-0.4,0-0.5c0.2-0.2,0.3-0.4,0.5-0.6c0.6,0.3,1.6,1,2.2,1c0.3,0.3,0.6,0.6,0.8,0.8
			c-1,1.8-1.9,3.1-2.6,4.9c-0.1,0.3,0,0.9-0.2,1.2c-0.4,1-0.9,1-1.3,2c-1,2.2-2.3,4.3-3.2,6.6c-0.2,0.5-0.6,0.6-0.7,0.9
			c-0.3,0.6-0.5,1.4-0.7,2c-0.5,0.7-1.1,1.4-1.6,2.1C412.9,222.3,413.2,222.7,412.8,223.4z M407.3,196.6c0.4-1.3,0.8-2.1,1.4-3.6
			c0.3-0.7,0.8-1,0.7-1.6c0.1-0.1,0.1-0.1,0.2-0.2c0.7,0.5,1.3,0.9,2.2,1.8c-0.4,1.8-1.1,3.9-1.8,5.7c-0.3,0.4-0.6,0.8-0.9,1.2
			c-0.1,0.3-0.2,1.1-0.3,1.4c-0.1,0.2-0.5,0.2-0.7,0.7c-0.6,1.7-1.2,3.5-2,5.3c-0.3,0.3-0.5,0.6-0.8,1c-0.7,1.5-1.7,3.3-2.2,4.8
			c-0.3,0.8-0.9,1.3-1,1.8c-0.3,0.3-0.5,0.6-0.7,0.7c-0.6-0.6-1.3-1.7-2-2.1c0.5-1.4,1.7-3.2,2.4-4.8c0.3-0.4,0.6-0.8,1-1.2
			c0.1-0.3,0.2-0.9,0.3-1.2c0.2-0.2,0.4-0.4,0.6-0.7c0.5-1.4,1-2.8,1.6-4.2c0.4-0.5,0.8-1.1,1.2-1.6c0.3-1,0.4-1.9,1.3-3
			C407.5,196.7,407.4,196.6,407.3,196.6z M403.2,215.6c0.1-0.3,0.7-0.4,0.7-0.7c-0.1-0.1-0.1-0.1-0.2-0.2c0.8-0.2,1-2,1.1-2.5
			c0.2-0.3,0.5-0.6,0.7-0.9c0.2-0.7,0.6-1.7,0.9-2.3c0.2-0.3,0.5-0.6,0.7-0.9c0-0.1,0.2-0.5,0.2-0.6c-0.1-0.1-0.1-0.1-0.2-0.2
			c0.4-0.6,0.7-1.1,1.1-1.7c0.5-1.7,1.8-3.9,2.6-5.5c0.8-1.7,0.9-3.8,2.3-5.5c0.7,0.4,2,1.1,2.1,1.8c0.4,1-1.8,3.8-2.2,5
			c0,0.2,0,0.4,0,0.5c-0.3,0.4-0.5,0.9-0.8,1.3c0.1,0.1,0.1,0.1,0.2,0.2c-0.1,0.1-0.3,0.2-0.4,0.3c-0.3,0.8-0.6,2.2-1.4,2.7
			c-0.1,0.4-0.2,1.2-0.4,1.6c-0.3,0.3-0.5,0.6-0.8,1c-0.3,0.6-0.4,1.7-0.7,2.4c-0.2,0.3-0.5,0.6-0.7,0.9c-0.3,0.6-0.6,1.5-0.9,2
			c-0.2,0.2-0.4,0.4-0.7,0.6c-0.5,0.9-1.4,1.9-1.3,2.8c-0.3,0.3-0.5,0.5-0.7,0.7c-1-0.8-1.3-1-1.9-1.6
			C403.1,216.3,403.1,215.9,403.2,215.6z M407.6,216.3c0.2-0.2,0.4-0.3,0.6-0.5c0.7-1.3,1.5-2.2,2-3.6c0.2-0.7,0.7-2,1-2.9
			c0.8-0.6,1.2-2,1.3-2.8c0.1-0.7,0.8-1,1-1.4c0.2-0.4,0.4-1.2,0.5-1.6c0.3-0.4,0.6-0.8,0.9-1.2c0.5-1.3,1-3,2.1-4.5
			c0.4,0.3,1.7,0.8,1.9,1.4c0.1,0.2,0.1,0.1,0.1,0.3c0,0.6-0.6,0.9-0.8,1.6c0,0.1,0.1,0.3,0.1,0.4c0,0.1-0.3,0.1-0.4,0.3
			c-0.2,0.4-0.3,1.1-0.5,1.6c-0.2,0.3-0.4,0.6-0.6,0.9c-1.2,3.8-4.7,8.4-5.4,11.4c-0.4,1.5-2,2.4-1.9,4.1c-0.4,0.5-0.7,0.6-1.1,0.9
			c-0.6-0.5-1.2-0.8-1.8-1.2C406.7,218.7,407.3,216.9,407.6,216.3z M415,222.6c0.4-1.3,1.4-2.9,2.2-4.5c0.6-1.3,0.8-2.5,1.4-3.9
			c0.2-0.4,1.1-0.9,1.4-1.5c0.1-0.2,0.1-0.8,0.2-1c0.2-0.6,1.1-1.4,1.4-1.9c0.5-0.7,0.6-2.2,0.9-2.8c0.3-0.9,1.5-2.4,1.5-3.3
			c0.2-0.3,0.4-0.5,0.6-0.8c0.3,0.1,0.5,0.1,0.8,0c0.3,0.4,1,1,1.6,1c0.2,0.2,0.2,0.2,0.2,0.3c0,0.3-0.4,0.5-0.5,0.8
			c-0.2,0.6-0.5,1.6-0.8,2.3c-0.4,0.7-0.8,1.4-1.2,2.1c-0.3,0.9-0.9,2.8-1.5,4.1c-0.3,0.7-0.7,0.6-1,1.2c-0.3,0.7-0.6,1.6-0.9,2.2
			c-0.3,0.5-0.7,1-1,1.4c-0.9,2.6-2.4,5.6-3.9,8.3c-0.5-0.2-1.3-0.6-1.4-1.2C413.5,224.4,414.6,223.8,415,222.6z M419.7,223.7
			c0.1-0.3,0-0.8,0.1-1.1c0.4-1.1,1.2-1.8,1.6-2.9c0-0.2,0-0.4,0-0.5c0.1-0.3,0.5-0.6,0.6-0.7c-0.1-0.1-0.1-0.1-0.2-0.2
			c0.2-0.7,0.8-0.8,1-1.2c0-0.1,0-0.2,0-0.4c0.2-0.2,0.4-0.3,0.6-0.5c1-2.2,2.5-5.3,3.2-7.4c0.2-0.6,0.9-1.1,1-1.4
			c0.2-0.6,0.8-1.8,0.9-2.5c0.3,0.1,1.8,0.9,2.2,0.9c0.3,0.2,0.5,0.4,0.6,0.7c-0.1,0.7-1,1.2-1.2,1.9c-0.1,0.3,0,0.8-0.1,1.1
			c-0.2,0.6-0.6,0.8-0.8,1.4c-1.2,3.1-3.2,6.3-4.2,9c-0.3,0.7-1.2,1.6-1.5,2.4c0,0.2,0,0.4,0,0.5c-0.2,0.4-0.8,0.5-0.9,1.1
			c-0.1,0.6-0.6,0.9-0.7,1.5c0,0.2,0.1,0.6,0,0.8c-0.3,0.8-1.1,1.4-1.2,1.9c-0.3,0.3-0.5,0.6-0.7,0.7c-0.7-0.4-1.4-0.8-2.1-1.2
			C418.4,226.6,419.4,224.7,419.7,223.7z M422.5,228.2c0.1-0.3,0.4-1.3,0.7-1.6c0.1-0.1,0.6-0.3,0.7-0.6c0.1-0.2-0.1-0.7,0-1
			c0.3-0.4,0.5-0.8,0.8-1.1c0.4-1.2,0.8-2.4,1.4-3.6c0.4-0.8,0.9-0.7,1.2-1.3c0.2-0.5,0.4-1.5,0.6-2.1c0.2-0.2,0.4-0.3,0.6-0.5
			c0.3-0.7,0.8-2,1.2-2.8c0.2-0.4,0.6-0.5,0.8-1.1c0.1-0.2,0-0.7,0.1-0.9c0.5-1.3,1.8-2.8,1.9-4.1c0.6-0.3,1.3,0.3,2,0.4
			c0.2,0.2,0.4,0.4,0.7,0.6c0,0.1-1.2,3.3-1.4,3.4c-0.4,0.3-1.4,4-1.8,4.9c-0.3,0.4-0.6,0.9-0.9,1.3c-0.1,0.2-0.1,0.8-0.3,1.1
			c-0.1,0.3-0.5,0.3-0.6,0.5c-0.7,2-1.9,4.7-2.7,6.6c-0.3,0.8-1.9,4.7-2.5,4.9c-0.4,0.2-3-1.4-3.1-1.6
			C421.5,228.9,422.3,228.7,422.5,228.2z M427.3,230.7c0.1-0.2,0.1-0.9,0.2-1.2c0.3-0.4,0.6-0.8,0.9-1.2c0-0.2-0.1-0.6,0-0.8
			c0.2-0.3,0.5-0.6,0.7-0.9c0.6-1.7,1-3.7,1.8-5.5c0.3-0.7,0.7-1.2,0.9-1.7c0.4-0.5,0.8-1,1.2-1.4c0.1-0.3-0.1-0.7,0-1
			c0.2-0.5,0.7-0.7,0.8-1c0.1-0.3,0-1,0.1-1.3c0.4-1.1,2-3.2,1.8-4.2c1.5-1.9,1.7-0.5,3.3-0.2c0.1,0.2,0.1,0.1,0.1,0.3
			c0,0.8-0.7,1.3-1,2.2c-0.4,0.9-0.9,2.3-1.1,3.3c-0.4,0.6-0.8,1.2-1.2,1.8c0,0.1-0.2,0.5-0.2,0.6c0.1,0.1,0.1,0.1,0.2,0.2
			c-0.2,1.1-1,1.8-1.4,2.9c-0.4,1.2-0.8,2.8-1.3,3.9c-0.2,0.2-0.4,0.3-0.6,0.5c0,0.1,0.1,0.3,0.1,0.4c-0.2,0.7-0.8,0.9-1,1.6
			c-0.1,0.3,0,0.8-0.1,1.1c-0.2,0.7-0.7,0.9-1,1.6c-0.4,1-0.8,2-1.8,3.1c-0.5-0.3-1.2-0.8-1.4-0.7c-0.3-0.3-0.8-0.6-0.9-0.9
			C426.6,231.8,427.2,231.3,427.3,230.7z M432.2,231.7c0.3-1.2,0.7-2.5,1.2-3.8c0.3-0.4,0.5-0.8,0.8-1.1c0.2-0.5,0.2-1.2,0.5-1.7
			c0.2-0.3,0.4-0.5,0.6-0.8c0.2-0.7,0.6-2.2,0.9-3c0.3-0.8,0.7-1.1,1-1.8c0.2-0.5,0.2-1.3,0.5-1.7c0.2-0.1,0.3-0.3,0.5-0.4
			c0-0.2,0-0.4,0-0.5c0.2-0.7,0.7-1,1-1.8c0.1-0.3,0-0.9,0.2-1.2c0.3-0.8,1-1.4,1.3-2.2c0.3,0,0.6-0.1,0.9-0.3
			c0.5,0.3,1.2,0.9,1.7,0.9c0.9,0.9-0.9,2.8-1.4,4c-0.5,1.2-1.2,2.1-1.6,3.3c-0.1,0.1-0.5,0.2-0.6,0.5c-0.6,1.8-1.6,4-2.6,5.7
			c0.1,0.1,0.2,0.2,0.3,0.2c-0.6,0.2-3,5.7-3.5,7c-0.3,0.8-1.1,1.5-1,2.2c-0.2,0.2-0.3,0.3-0.5,0.4c-0.4,0-1.1-0.6-1.5-0.8
			C431,233.8,431.9,233.1,432.2,231.7z M440.5,237.2c0.2-1,0.3-2.2,0.7-3.2c0.2-0.3,0.5-0.7,0.7-1c0.1-0.4,0.6-2.5,0.9-2.8
			c0.4-0.4,1.1-1.2,1.3-2c0.2-0.6,0.2-1.5,0.5-2.2c0.3-0.3,0.5-0.6,0.8-1c0.6-1.4,1.6-3.4,2.1-4.6c0.7-0.6,2-3.3,1.9-4.1
			c0.2-0.3,0.4-0.5,0.7-0.6c0.4-0.2,2.6,0.3,2.6,0.7c0.5,1.3-1.6,3.2-2.2,4.6c-2,4.8-5.4,9-6.2,13.7c-0.1,0.4-0.6,0.5-0.7,0.7
			c-0.4,0.8-1.1,3.9-2,4c-0.6,0-1.4-0.4-1.5-0.9C439.8,238,440.4,237.7,440.5,237.2z M445.7,235.1c1.2-3.4,2.8-6.8,4.5-10.3
			c0.3-0.4,0.6-0.7,0.9-1.1c0.7-1.5,1.6-3,2.2-4.4c0.2-0.5,0.9-1.1,1-1.6c0.2-0.3,0.4-0.5,0.6-0.8c0.5,0.1,1.2,0.4,1.7,0.3
			c1.3,1.3-1.2,3.4-1.7,4.9c0,0.1,0,0.8-0.1,0.9c-0.3,0.4-0.6,0.9-0.9,1.3c0,0.1,0.1,0.2,0.1,0.3c-0.3,0.9-1.4,1.8-1.6,2.4
			c-0.5,1.1-1.1,2.6-1.5,3.6c-0.3,0.4-0.6,0.8-0.9,1.2c-0.2,0.8-0.5,1.9-0.8,2.7c-0.2,0.2-0.3,0.4-0.5,0.6c-0.6,1.9-0.7,4.5-2.4,6
			c-0.6-0.2-1.6-0.7-2.1-0.8C443.3,239.4,445.2,236.4,445.7,235.1z M406.1,189c0.1-0.2,0.3-0.3,0.4-0.5c0.1,0,0.1,0,0.2,0
			c0.7,0.5,1.7,1.1,1.8,1.7c0,0.1,0.1,0.2,0.1,0.3c-1.6,1.5-3.1,6.4-3.7,8.3c-0.2,0.5-0.8,1.2-1,1.4c-0.1,0.9-0.5,0.7-0.8,1.6
			c-0.5,1.3-1,2.4-1.5,3.8c-0.5,1.3-1.5,3-2,4.2c-0.2,0.5-0.9,1.5-1.2,1.6c-0.2,0.3-0.4,0.4-0.6,0.5c-0.5-0.4-1.4-1-1.6-1.5
			c-0.2-0.1-0.3-0.3-0.5-0.4c1-1,2.7-4.6,3.1-5.9c0.7-0.5,0.9-1.6,1.1-2.1c0.2-0.6,0.7-0.5,1-1.2c0.3-0.6,0.3-1.3,0.5-1.8
			c0.3-0.4,0.6-0.8,1-1.2c0.5-1.6,1.4-3.8,2.1-5.4c0.2-0.4,0.6-0.7,0.6-0.8c0-0.2,0-0.5-0.1-0.7C405.4,190.1,406,190,406.1,189z
			 M396.1,201.2c0.5-0.9,1.2-1.2,1.7-2.3c0.6-1.4,1.6-3.6,2.3-5.3c0.3-0.8,0.9-1.3,1.2-2.1c0.5-1.2,1.2-2.9,1.7-4.1
			c0.3-0.7,0.7-1,0.7-1.7c0.1-0.1,0.2-0.3,0.3-0.4c0.1,0.2,0.3,0.6,0.4,0.8c0.1,0.2,0.5,0.3,0.6,0.3c0.5,1.3-1.5,3.9-2,5.2
			c-0.1,0.2,0,0.7-0.1,0.9c-0.1,0.5-0.6,0.8-0.7,1c-0.3,0.7-0.6,2-0.9,2.8c-0.4,0.5-0.7,1-1.1,1.5c-0.7,1.7-1.9,4.1-2.6,5.8
			c-0.5,0.4-1.8,3-1.9,3.5c-0.4,0.5-0.9,1.3-1.4,1.5c-0.5-0.1-1.1-1.8-1.8-2.3C394.4,205,395.2,202.8,396.1,201.2z M418.7,335.8
			c-0.1,0.2-0.3,0.3-0.4,0.5c-0.7-0.4-1.4-0.4-2.3-0.8c-0.2,0.2-0.4,0.4-0.7,0.6c0,0.2,0,0.3,0,0.4c0.5,0.7,0.9,1.6,1.8,1.3
			c0.2,0.2,0.2,0.2,0.3,0.4c-0.3,0.7-0.7,1.4-1.2,2.1c-1-0.6-2-0.5-2.9-0.6c-0.4,0.4-0.4,0.3-0.5,0.6c-0.1,0.4,0.1,0.4,0.2,0.8
			c0.5,0.6,1.4,0.9,2.1,0.8c0.1,0.1,0.1,0.1,0.2,0.2c-0.2,0.3-0.6,0.6-0.6,1.1c-1.8,2.3-2.2-0.1-4-0.1c0,0-0.1-0.1-0.1-0.1
			c-0.2,0.2-0.1,0.2-0.1,0.3c-0.4,0.5-0.2,0.7-0.3,1.2c0.7,0.9,1.6,1.4,2.5,1.5c-0.2,0.6-1.7,2.8-1.9,2.8c-0.1,0.1-0.1,0.1-0.2,0.2
			c0,0-0.1-0.1-0.1-0.1c-0.1,0-0.2-0.5-0.5-0.6c-0.4-0.1-1.2,0-1.4-0.5c-0.5-0.4-0.8-0.4-1.2-0.2c-0.7,0.3-0.1,1.3-0.1,1.9
			c0.9,0.6,1.3,0.5,2.2,1.2c-0.4,0.6-0.3,0.6-0.6,1.1c-1.4,0.1-2.2-0.5-3.6-1c-0.2,0.1-0.4,0.2-0.5,0.2c-1,1.4,1,2.7,2.2,2.6
			c0,0,0.1,0.1,0.1,0.1c-0.4,0.8-1.4,2.3-2.1,2.5c-0.7,0.2-0.8-0.5-1.5-0.8c-0.7-0.3-1.6-0.4-2.4-0.6c-0.2,0.3-0.4,0.5-0.6,0.8
			c0.3,0.4,0,0.4,0.1,0.6c0.2,0.4,1.3,0.5,1.4,0.7c0.4,0.4,0.9,0.7,1.3,1.1c-0.1,0.3-0.6,1-0.7,1.4c-0.4,0.3-0.6,0.3-0.9,0.5
			c-0.5-0.5-1-1-1.1-1.6c-0.7-0.6-0.8-0.5-1.4-0.5c-1.1,1.3,0.3,1.7,0.2,2.6c-0.1,0.2-0.3,0.3-0.4,0.5c-0.1,0.5,0.4,1.1,0.9,1.5
			c-0.5,0.6-1,0.9-1.5,1.4c-0.7-1.1-1.7-1.9-2.7-2.1c-0.6,0.7-0.5,1-0.6,1.6c0.5,0.5,1.3,1.6,2,1.7c0.1,0.1,0.1,0.2,0.2,0.3
			c-0.5,0.6-1,1.4-1.5,1.6c-0.3,0.3-0.4,0.3-0.7,0.4c-1.4-1.2-1.5-1.8-2.9-1.9c-0.2,0.3-0.3,0.6-0.4,0.9c0.2,0.5,1,2.1,1.8,1.8
			c0.5,0.4,0.3,0.4,0.4,0.8c-0.5,0.5-0.9,1.1-1.4,1.6c-0.4-0.5-1-0.9-1.1-1.6c-0.8-0.7-0.9-0.6-1.6-0.5c-0.9,1.2,0.2,2.4,1.2,3.3
			c-0.3,0.6-0.7,1.3-1.5,1.6c-1.1,0.5-1.5-0.9-2.3-0.9c-0.4-0.1-0.6,0-1,0c-0.2,0.2-0.2,0.3-0.2,0.5c-0.2,0.4-0.1,0.3-0.2,0.6
			c0.5,0.6,1.2,1,1.6,1.5c0,0.1,0,0.1,0,0.2c-0.6,1-1.6,2-2.5,2.8c-0.2-0.1-0.4-0.1-0.6-0.2c0,0-0.9-1.3-1-1.7
			c-0.5-0.4-0.5-0.2-1-0.2c-1.1,1.3-0.2,2.7,0.5,3.9c-0.6,0.7-1.2,1.2-1.7,1.7c-0.7-1.1-0.7-1.6-2.2-2.3c-0.2,0.1-0.1,0.1-0.3,0.1
			c-0.9,1.2,0,2.6,0.9,3.4c0,0.1,0,0.1,0,0.2c-1.2,1.4-1.7,1.3-2.8,2c-0.1-0.2-0.1-0.1-0.1-0.3c-0.6-0.5-0.6-1-0.5-1.6
			c-0.5-0.3-0.7-0.2-1.1-0.4c-0.5,0.4-0.7,0.7-1,1.2c0.1,1.1,0.1,1.3,0.9,2.4c-0.6,0.8-1.5,1.1-2.2,1.4c-0.7-0.6-0.8-1.4-0.7-2.1
			c-0.5-0.4-0.6-0.3-1-0.4c-0.2,0.1-0.1,0.1-0.3,0.1c-1.3,1.5-0.3,2-0.3,3.3c-0.1,0.6-2.1,1.6-2.6,1.6c-0.3,0-0.2-0.1-0.5-0.4
			c0.1-0.1,0.2-0.2,0.2-0.3c-0.2-0.4-0.2-0.6-0.2-1c-0.9-0.8-1.4-0.6-2.1,0.4c0.1,0.8-0.1,1.5,0.6,2.3c-0.5,0.9-1.3,0.9-2.1,1.7
			c-0.2-0.2-0.3-0.2-0.5-0.2c0.1-0.5,0-0.8,0-1.3c-0.5-0.3-0.6-0.2-1.1-0.6c-0.3,0.3-0.4,0.4-0.7,0.4c-0.7,1-0.2,1.6-0.1,2.5
			c0,0.2,0,0.1-0.1,0.3c-0.6,0-1.6,0.1-2.2,0.5c-0.3-0.2-0.4-0.2-0.6-0.3c0.1-0.3,0-0.4,0.1-0.7c-0.1-0.1-0.2-0.2-0.3-0.2
			c0.2-0.4,0.1-0.6,0.2-1c-0.4-0.4-0.7-0.6-1.1-0.6c-0.1,0-0.2,0-0.3-0.1c-0.8,0.9-0.8,1.7-0.8,2.7c-0.9-0.1-1.4,0-2.4-0.4
			c-0.1-0.4-0.3-0.6-0.1-1.1c-0.7-0.6-1-0.6-1.5-0.8c-0.6,0.6-1.1,1.1-0.6,1.7c-1.1,1-2.4,0.1-3.5,0.1c-0.3-0.6,0.2-1.2,0.2-1.8
			c0-0.2-0.2-0.5-0.2-0.7c-0.4-0.3-0.5-0.3-0.9-0.3c-0.9,0.2-1,1.2-0.9,1.9c-0.8,0.8-1.7-0.2-2.5-0.3c0-0.2,0-0.1,0.1-0.4
			c-0.1-0.1-0.2-0.2-0.3-0.2c0.4-0.7,0-0.7,0-1.3c-0.6-0.3-0.8,0-1.3,0c-0.4,0.5-0.5,0.8-0.7,1.2c-0.7-0.2-1.7-0.8-2.4-0.7
			c-0.4-0.4-0.2-0.8-0.1-1.2c-0.3-0.2-0.6-0.5-0.9-0.7c-0.5,0.4-0.9,0.6-1.4,1.3c-1.8-1.4-3.3-2.1-5.1-3.1c-0.3-0.2-0.5-0.7-0.9-0.9
			c-0.9-0.5-3.2-1.7-4-2.7c-0.6-0.8-2-2.1-2.8-2.9c-0.3-0.2-0.5-0.3-0.8-0.5c-1.5-1.9-3-3.6-4.5-5.5c-0.4-0.3-0.9-0.6-1.3-0.9
			c-0.3-0.4-0.8-1-1-1.5l0-0.4c-0.2-0.3-0.8-0.4-1.1-0.9c-0.5-1-0.8-2.2-1.3-3.2c-0.3-0.6-0.8-1-1.1-1.6c-0.2-0.4,0.1-1,0-1.3
			c-0.1-0.1-0.3-0.2-0.4-0.3c-0.2-0.5-0.5-1.4-0.7-1.9c-0.1-0.1-0.3-0.2-0.4-0.3c-0.3-1.2-0.2-3.1-1.2-4.2c0.3-0.5,0.1-3.8,0-4.5
			c0-0.5-0.5-0.8-0.3-1.4c-0.1-0.1-0.2-0.2-0.3-0.2c0.1-0.1,0.2-0.3,0.3-0.4c-0.1-1,0.2-1.8,0.3-2.9c0-1.4-0.2-3.1-0.3-4.3
			c-0.1-0.8,0.7-2.5,0.6-3.4c0.4-0.2,0.5,0,0.9-0.4c-0.4-0.3-0.6-0.6-0.7-0.9c-0.2-0.4,0-1.5,0.1-1.9c0.1-0.3,0.4-0.2,0.4-0.3
			c-0.1-0.1-0.1-0.2-0.2-0.3c0.1-0.2,0.2-0.4,0.3-0.6c0.2-1.1,0.4-2.4,0.7-3.6c0.3-0.9,0.9-1.7,1.3-2.5c0.2-0.3,0.5-0.6,0.7-0.9
			c0.1-0.3,0.6-1.1,0.7-1.7c0.1-0.2,0-0.8,0.1-1.1c0.2-0.3,0.4-0.6,0.5-0.9c0.1-0.4,0.2-1.4,0.4-1.8c0.2-0.5,1.3-2.7,1.5-3
			c0.1-0.1,0.2-0.1,0.3-0.2c0.2-0.4,0.2-0.9,0.5-1.4c0.2-0.3,1.3-1.5,1.4-1.6c0.2-0.8,0.9-2.4,1.3-3.1c0.2-0.4,0.7-0.4,1-1
			c0.3-0.6,0.9-1.6,1.4-2.1c0.3-0.3,0.6-0.6,0.9-0.9c0.4-0.8,1.6-1.9,2-2.6c0.9-1.6,1.9-2.8,2.9-4.1c0.1-0.1,0.2-0.6,0.2-0.6
			c0.4-0.4,0.7-0.7,1.1-1.1c1.2-1.3,2.8-3.4,3.4-4.1c0.3-0.4,0.6-1.2,0.9-1.3c0.2-0.2,0.3-0.4,0.5-0.6c0,0.1,0,0.1,0,0.2
			c0.4,0.8,0.1,1.9,0.2,2.7c0,0.3,0.3,0.5,0.3,0.8c0.3,1.8,0.2,4.3-0.1,6.1c-0.2,1.1,0.8,2.5,0.9,3.6c-0.1,0.3-0.1,0.7-0.2,1
			c0,0.3,0.4,0.5,0.3,0.8c-0.1,0.1-0.2,0.2-0.2,0.3c0,0.2,0.2,0.2,0.3,0.4c0.1,0.3-0.1,0.6-0.1,0.9c0,0.7,0.3,1.5,0.5,2.2
			c0,0.4-0.1,0.7-0.1,1.1c0.4,1.9,0.3,3.6,0.4,5.6c0,0.4,0.4,0.7,0.5,1.1c0.2,0.8,0.2,2.1,0.2,2.9c0.6,0.5,1,0.7,1.4,1.2
			c0.1-0.2,0.2-0.8,0.2-0.8c1-0.1,1.8-0.8,2.8-1.4c0.3-0.1,0.8-0.2,1-0.3c0.3-0.3,0.5-0.5,0.8-0.8c0.2-0.1,0.6,0.1,0.8,0
			c0.5-0.2,0.6-0.5,1.1-0.7c1.3-0.6,3-1.2,4.4-1.4c0.6-0.1,1-0.6,1.5-0.9c0.8-0.3,1.9-0.6,2.7-0.9c0.4-0.1,1.3-0.9,1.4-0.9
			c0.4-0.1,0.9,0.1,1.3,0c0.1-0.1,0.2-0.3,0.3-0.4c0.2-0.1,0.7,0,0.9-0.1c0.2-0.2,0.5-0.5,0.7-0.7c0.6-0.2,1.3-0.2,2-0.8
			c0.1,0.1,0.2,0.2,0.3,0.2c0.7-0.3,1.3-0.3,1.9-0.5c1-0.4,1.7-1.1,2.6-1.4c0.6-0.2,1.6-0.2,2.2-0.5c0.5-0.2,0.6-0.7,1.1-0.9
			c0.4-0.2,1.2,0,1.6-0.1c0.1-0.2,0.3-0.3,0.4-0.5c0.1-0.1,1.8-0.6,2-0.6c0.3,0,0.5,0.3,0.8,0.2c0.8-0.2,1.4-0.6,2.2-0.6
			c0.1,0,0.5,0.4,0.6,0.5c0.9,0.9,0.6,1.9,0.8,2.8c0.1,0.4,0.5,0.9,0.6,1.3c0,0.1-0.2,0.6-0.2,0.8c0.1,0.7,0.6,1.4,0.5,2.1
			c0,0.8-0.4,1.5-0.4,2.3c0,0,0.2,0.7,0.2,0.8c0,0.4-0.4,0.6-0.4,0.9c0,0.7,0.4,1.7,0.5,2.4c0,0.5-0.3,0.9-0.1,1.3
			c0.2,0.6,0.4,1.2,0.4,1.8c0.2,1.9-0.1,3.9-0.2,5.9c0,0.7,0.4,1.6,0.5,2.4c0,0.7,0.1,1.5,0,2.1c-0.1,0.2-0.3,0.4-0.4,0.7
			c0.2,0.3,0.5,0.6,0.7,0.9c0.1,0.4,0.2,1.5,0.2,1.9c-0.1,0.6-0.7,1.5,0.2,1.8c0.9,0.6,2.2,0.5,2.9-0.2c0.1,0.1,0.2,0.2,0.3,0.2
			c0.8-0.7,4.1-2.2,5.1-2.4c0.2-0.1,0.5,0.2,0.7,0.1c0.4-0.1,0.7-0.5,1.1-0.7c1-0.4,2.2-0.6,3.3-0.8c0.2-0.1,0.3-0.3,0.5-0.4
			c0.3-0.1,0.8,0.1,1.1,0.1c0.6-0.1,4.3-1.8,4.5-2.1c0.1,0.1,0.2,0.2,0.3,0.2c1.6-1.3,3.7-1.3,5.3-1.9c0.3-0.1,0.4-0.4,0.8-0.5
			c1.4-0.4,3-0.9,4.4-1.4c0.4-0.1,0.6-0.5,1-0.6c0.3-0.1,0.8,0.1,1.2,0c0.6-0.2,1-0.6,1.6-0.8c0.1,0,0.2,0.1,0.4,0.1
			c0.1-0.1,0.2-0.3,0.3-0.4c0.1,0,0.8,0,1,0c0.5-0.1,0.7-0.5,1.2-0.6c0.8-0.3,1.7-0.3,2.4-0.8C420,334.2,418.8,334.7,418.7,335.8z
			 M421.4,330.5c-0.2,0.1-0.4-0.1-0.6,0c-1,0.2-3.7,1.3-4.6,2.2c-1-0.5-2.2,0.5-3.1,0.8c-0.6,0.2-1.3,0.2-1.9,0.4
			c-0.3,0.2-0.5,0.3-0.8,0.5c-0.1,0-0.4-0.2-0.5-0.1c0,0.1-0.1,0.2-0.1,0.4c-0.6,0.2-1.3,0.3-1.9,0.5c-0.5,0.2-0.8,0.6-1.3,0.7
			c-1,0.3-2.2,0.4-3.2,0.7c-1.9,0.8-3.7,1.6-5.6,2.2c-0.5,0.1-0.6,0.7-1.1,0.9c-0.6,0.3-1.6,0-2.2,0.1c-0.4,0.1-0.7,0.5-1.2,0.6
			c-0.6,0.2-1.2,0.1-1.6,0.5c-0.1-0.1-0.2-0.2-0.3-0.2c0,0-0.3,0.4-0.6,0.5c-0.2,0-0.4-0.2-0.5-0.1c-0.5,0.1-0.8,0.6-1.3,0.7
			c-0.5,0.2-1.4,0.1-1.9,0.4c-1.5,0.7-2.8,1.9-4.4,1.7c-0.2,0-0.1,0-0.3-0.1c0-0.4-0.1-0.9,0-1.3c-0.1-0.1-0.2-0.2-0.3-0.2
			c0.1-0.1,0.2-0.2,0.2-0.3c-0.2-0.4-0.3-0.6-0.2-1c-0.1-0.1-0.2-0.2-0.3-0.2c0.3-0.6,0.1-3.5-0.1-4.2c-0.1-0.3-0.4-0.5-0.4-0.8
			c-0.1-0.4,0.3-0.7,0.3-1.2c0-0.3-0.2-0.8-0.2-1.1c-0.1-1.4,0.2-2.9,0.1-4.3c-0.1-1.3-0.9-3.2-0.7-4.5c0.3-2.1,0.8-4.7,0.4-6.7
			c-0.3-1.3-1.2-6.3-2.9-6.3c-1.2-0.9-1.5,0.2-2.6,0.1c-0.2-0.1-0.4-0.2-0.6-0.3c-0.4,0.1-0.7,0.5-1.1,0.7c-0.3,0.1-0.7,0-1,0
			c0,0.2-0.7,0.5-1,0.6c-0.4,0.1-1,0.1-1.3,0.2c-0.8,0.3-1.3,0.7-2.1,1c-3.8,1.6-7.3,2.8-11.2,4.1c-0.6,0.2-1,0.7-1.6,0.9
			c-0.2,0-0.4,0-0.6,0c-1,0.4-1.6,0.9-2.5,1.3c-1.7,0.7-3.8,1.2-5.6,1.9c-0.7,0.3-1.5,1-1.9,1.2c-1.3,0.4-2.7,0.8-4,1.7
			c-0.3-0.1-0.4-0.1-0.6-0.2c0-1.1-0.7-2.4-0.3-3.5c-0.1-0.1-0.3-0.2-0.4-0.3c0.6-1.2-0.1-2.8-0.5-4c-0.1-0.3,0.2-0.8,0.2-1.2
			c-0.1-1.1-0.4-2.1-0.6-3.1c-0.1-0.8,0.1-1.6,0-2.4c-0.1-1.2-0.8-2.3-0.9-3.5l0.3-0.7c0-0.6-0.3-1.3-0.3-1.8
			c0.1-0.9,0.3-1.8,0.1-2.7c-0.1-0.3-0.4-0.5-0.4-0.8c-0.1-0.5,0.2-0.9,0.2-1.4c-0.1-0.3-0.2-0.7-0.3-1c0-0.2,0.2-0.2,0.2-0.5
			c0.1-1-0.4-2.2,0-3.3c0.1-0.9,2.4-2.8,2.7-3c0.3,0.6,0,1.2,0.2,1.8c0.2,0.8,0.4,1.6,0.6,2.4c-0.1,0.1-0.1,0.1-0.2,0.2
			c0.1,0.2,0.3,0.3,0.4,0.5c0.2,0.5-0.1,1.2,0,1.8c0.1,0.6,0.4,1,0.5,1.6c0.1,0.6-0.1,1.2,0,1.8c0.4,1.9,0.7,3.6,0.9,5.4
			c0.1,1.3,0.7,2.7,0.4,4c0.1,0.1,0.2,0.2,0.3,0.2c-0.6,1-0.1,1.5,0.1,2.4c0.1,0.3-0.1,0.6-0.1,0.9c0.1,1.2,0.5,2.4,0.7,3.7
			c1,0.3,3.1-0.7,4.2-1.1l0.4,0c0.6-0.2,1.1-0.7,1.7-0.9c0.1,0.1,0.1,0.1,0.2,0.2c0.6-0.2,1-0.7,1.6-0.9c0.5-0.2,1.4-0.2,1.9-0.4
			c0.1-0.1,0.2-0.2,0.2-0.3c0.6-0.3,1.3-0.6,2-0.8c0.9-0.3,2.8-0.7,3.5-1.3c1.1,0.5,3.4-1,4.6-1.2c2.1-0.5,4.2-1.5,6.3-2.3
			c0.2-0.2,0.5-0.3,0.8-0.5c0.5-0.2,1.2-0.1,1.7-0.2c0.4-0.1,0.6-0.6,1.1-0.7c0.1,0,0.4,0.2,0.5,0.1c0.8-0.2,4-1.5,4.6-2
			c0.2,0.1,0.5,0.3,0.7,0.3c0.6,0.7,1.1,5.5,0.8,6.3c0.1,0.1,0.2,0.2,0.3,0.2c-0.1,0.1-0.2,0.2-0.2,0.3c0.6,0.8,0.2,1.8,0.4,2.6
			c0.1,0.5,0.6,0.7,0.6,1.2c0.2,0.8,0,2,0.1,2.8c0,0.5,0.3,0.8,0.4,1.3c0,0.4-0.1,0.7-0.1,1.1c0.1,0.9,0.3,1.8,0.5,2.7
			c0.1,0.4-0.1,0.9-0.1,1.2c0,0.4,0.3,0.8,0.3,1.2c0,0.6-0.2,1.1-0.2,1.8c0,0.6,0.3,1.3,0.4,1.9c0,0.2-0.2,0.5-0.2,0.6
			c0.1,0.1,0.2,0.2,0.3,0.2c0.1,0.5,0.2,1.6,0.2,2.1c0,0.5-0.3,1.2-0.3,1.7c0,1.2,0.6,2.2,0.1,3.5c0.3,0.2,0.4,0.3,0.6,0.3
			c0.8,0.3,2.4-0.5,2.8-1c0.1,0.1,0.2,0.2,0.3,0.2c1.4-1.2,4.1-2,5.6-2.5c1.1-0.3,1.9-0.9,3-1.3c0.3-0.1,1,0.2,1.2,0.1
			c0.4-0.2,0.1-0.4,0.5-0.6c1.5-0.6,3.4-0.5,4.8-1.1c0.2-0.2,0.4-0.4,0.7-0.6c0.4,0,0.7-0.1,1.1-0.1c0.9-0.3,1.6-0.8,2.5-1.2
			c1-0.4,2.2-0.6,3.2-1.3c0.1,0.1,0.2,0.2,0.3,0.2c1.1-0.9,2.8-0.8,4-1.3c1.3-0.5,2.5-1,3.8-1.4c0.1-0.1,0.2-0.2,0.2-0.3
			c0.1,0,0.2,0.1,0.4,0.1c0.7-0.1,1.7-0.2,2.4-0.5c0.8-0.3,1.6-0.5,2.3-0.8c0.2-0.3,0.1-0.3,0.5-0.4
			C423.5,326.7,422.6,329.7,421.4,330.5z M426.2,321.7c-0.2,0.5-0.8,1-0.9,1.5c-0.8,0.8-1.9,0.6-2.8,1c-0.8,0.4-1.1,1-1.8,1.2
			c-0.6,0.2-1.3,0-1.9,0.5c-0.7-0.4-0.9,0.1-1.6,0.3c-0.4,0.1-1.1,0.1-1.5,0.2c-0.7,0.2-1.2,0.7-1.9,0.9c-0.2,0-0.5-0.1-0.6,0
			c-0.5,0.2-0.8,0.7-1.3,0.7c-0.1-0.1-0.2-0.2-0.3-0.2c-0.2,0-0.4,0.3-0.6,0.3c-0.9,0.2-1.9,0.5-2.8,0.9c-0.5,0.2-0.9,0.6-1.4,0.8
			c-0.2,0.1-0.7-0.1-1,0c-0.4,0.1-0.9,0.9-1.3,1c-3.5,1.1-7.2,2.1-10.8,3c-0.3,0.1-0.4,0.4-0.8,0.5c-1.2,0.4-2.8,0.8-4,1.4
			c-0.5,0.3-0.7,0.7-1.2,0.8c-0.5,0.2-1.1,0.1-1.7,0.2c-0.5-0.5-0.5-2.6-0.4-3.4c0.1-0.1,0.2-0.2,0.2-0.3c0-1-0.6-2.5-0.8-3.6
			c-0.1-0.8,0.2-1.6,0.2-2.4c0-0.7-0.3-2.2-0.6-3.2c-0.1-0.3,0.1-0.4,0.1-0.7c0-0.5-0.2-1-0.3-1.6c-0.1-0.3,0.1-0.8,0.1-1.1
			c-0.1-0.1-0.2-0.2-0.3-0.2c-0.1-0.5,0.2-1,0.1-1.5c-0.1-0.6-0.3-1.2-0.4-1.8l0.1-0.4c-0.1-0.2-0.3-0.3-0.4-0.5
			c-0.1-0.2,0.1-0.5,0.1-0.7c-0.1-0.2-0.3-0.4-0.4-0.7c-0.1-0.3,0-0.8,0-1.2c-0.1-0.8-0.4-1.6-0.6-2.4c-0.3-1.4,0-3-0.2-4.4
			c-0.2-0.9-0.7-1.6-0.9-2.5c-0.3-0.2-0.5-0.3-0.8-0.5c-0.3,0-0.7-0.1-1.1-0.1c-0.5,0.1-0.8,0.6-1.3,0.8c-0.3,0.1-0.8,0-1.1,0.1
			c-0.9,0.2-1.9,1.2-2.8,1.4c-0.1,0-0.2-0.1-0.4-0.1c-0.6,0.3-1.1,0.7-1.7,1c-0.7,0.2-1.7,0.3-2.4,0.6c-0.6,0.3-1.4,1.1-2,1.2
			c-0.2,0-0.6-0.2-0.7-0.1c-0.6,0.2-1.5,0.6-2,0.9c-0.1,0.1-0.2,0.3-0.3,0.4c-0.1,0-1,0-1.2,0c-0.2,0.1-0.3,0.3-0.5,0.4
			c-0.6,0.1-1.3,0.1-1.9,0.4c-0.2,0.1-0.3,0.3-0.5,0.4c-1,0.2-2.1,0.2-3.1,0.5c-0.2,0.2-0.4,0.3-0.6,0.5c-1,0.5-2,0.4-3.1,0.8
			c-0.6,0.2-1,0.7-1.6,0.9c-1.3,0.5-3,0.7-4.2,1.2c-0.2,0.2-0.4,0.4-0.7,0.6c-0.6,0.2-1.3,0.1-1.8,0.4c-0.5-0.7-0.3-1.4-0.4-2.1
			c-0.1-0.6-0.5-1.4-0.5-2c0-1,0.2-1.9,0.1-2.8c-0.1-0.9-0.5-1.7-0.6-2.6c-0.1-1.1,0.3-2.3,0-3.3c-0.3-0.9-0.8-1.8-0.9-2.7
			c0.1-0.2,0.1-0.3,0.2-0.5c0-0.5-0.3-0.8-0.4-1.3c0.1-0.1,0.1-0.1,0.2-0.2c0-0.4-0.3-0.7-0.4-1.1c0-0.3,0.1-0.7,0.1-1.1
			c-0.1-1.2-0.8-2.3-0.9-3.5c0-0.2,0-0.1-0.2-0.3c0.6-1-0.4-1.8-0.2-2.7c0.1-0.6,1.6-2.4,2-3c0.8,0.9,0.4,1.9,0.6,2.6
			c0.1,0.1,0.2,0.2,0.3,0.2c0,0.2-0.2,0.4-0.1,0.5c0.2,0.2,0.3,0.4,0.5,0.6c0.3,0.8,0.1,1.8,0.3,2.5c0.1,0.6,0.3,1,0.7,1.4
			c0.1,0.3-0.1,0.7,0,1c0.2,0.3,0.4,0.6,0.5,0.9c0,0.2-0.2,0.5-0.1,0.7c0.2,0.8,0.5,1.5,0.6,2.3c0,0.3-0.1,0.6-0.1,0.9
			c0.1,0.1,0.3,0.2,0.4,0.3c0.1,0.2-0.1,0.4-0.1,0.5c0,0.6,0,1.7,0.1,2.2c0.1,0.3,0.3,0.5,0.3,0.9c0,0.3-0.2,0.5-0.1,0.7
			c0.6,1.7,1,3.6,0.9,5.4c0.3,0.3,0.6,0.5,1,0.8c0,0,2.3-1.2,2.4-1.3c0.7,0.3,3.9-1.2,5-1.5c0.5-0.2,1.6-0.4,2.2-0.5
			c0-0.1,0-0.2,0.1-0.3c0.3,0,0.5,0,0.8,0c0.1-0.2,0.3-0.3,0.4-0.5c0.5-0.2,1.2-0.2,1.7-0.3c0.6-0.2,0.9-0.7,1.5-0.9
			c0.5-0.2,1.3,0,1.8-0.3c1-0.4,1.7-1.1,2.7-1.3c0.1,0.1,0.1,0.1,0.2,0.2c0.3,0,0.8-0.2,1-0.3c0.3-0.1,0.4-0.4,0.8-0.5
			c0.1,0,0.2,0.1,0.4,0.1c0.5-0.2,0.8-0.6,1.3-0.8c0.9-0.3,2-0.3,2.8-1.1c0.1,0.1,0.2,0.2,0.3,0.2c0.6-0.5,1.3-0.7,1.9-0.7
			c0.1,0,0.2,0.1,0.4,0.1c0.3-0.1,0.5-0.4,0.8-0.5c1-0.3,2.7-0.3,3.7-0.5c0.8-0.2,1.4-0.8,2.2-1.3l0.2,0.2c0.2,1.6,0.7,3.2,0.9,4.8
			c0.1,0.8-0.3,1.9-0.1,2.7c0.2,0.7,0.7,3.4,0.5,4c0.1,0.1,0.2,0.2,0.3,0.2c-0.5,1,0.1,4,0.4,5c0.1,0.5-0.2,1-0.1,1.5
			c0,0.4,0.4,0.8,0.5,1.2c0.1,0.9-0.2,1.8-0.3,2.7c-0.1,0.8,0.2,1.7,0.1,2.6c0,0.4-0.3,0.8-0.3,1.2c0,0.5,0.3,1.1,0.3,1.6
			c0,0.3-0.2,0.5-0.2,0.8c0.1,0.1,0.1,0.2,0.2,0.3c0,1.3-0.3,3.1,1,3.7c2.5,1.3,6.6-1.2,9.1-1.9c2-0.5,4.3-0.8,6.3-1.5
			c1.1-0.4,1.8-0.9,2.9-1.3c0.2-0.1,0.7,0,1-0.2c0.2-0.2,0.4-0.4,0.7-0.6c0.1,0,0.2,0.1,0.4,0.1c1.1-0.3,2-1.1,3.2-1.3
			c0.1,0,0.2,0.1,0.4,0.1c0.1-0.1,0.2-0.3,0.3-0.4c0.7-0.3,4.6-1.3,4.7-1.8c0.2,0,0.3,0.3,0.5,0.2c0.9-0.2,1.5-1,2.4-1.3
			c1.6-0.5,4.6-0.7,5.9-2.1c0.1,0.1,0.2,0.2,0.3,0.2c0.3-0.4,0.6-0.8,1.2-0.6c0.2-0.1,0.1-0.1,0.3-0.1
			C426.7,320.4,426.4,321.2,426.2,321.7z M456.4,248.4c-0.2-0.1-1-0.5-1.3-0.6c-0.6-0.1-1.2,0.4-1.8,0.3c-0.1,0.2-0.3,0.4-0.4,0.7
			c0.3,0.3,0.2,0.6,0.6,0.8c0.7,0.4,1.3,0.1,2.2,0.7c-0.3,0.6-0.4,0.8-0.9,1.3c-0.9-0.4-2.3-0.3-3.2-0.4c-0.3,0.4-0.2,0.3-0.5,0.6
			c0,0.2,0,0.5,0.1,0.7c0.2,0.2,0.3,0.3,0.4,0.5c0.7,0.4,2,0.5,2.6,0.2c0.3,1-0.9,2-0.7,3c-0.3,0.1-0.6,0.2-0.9,0.3
			c-0.5-0.1-0.7-0.6-1.1-0.8c-0.3-0.1-0.9,0-1.2-0.1c-0.4,0.6-0.5,0.8-0.8,1.3c0.6,0.4,1.6,1,2.2,0.9c0.3,0.2,0.4,0.4,0.5,0.6
			c0,0.5-0.4,1-0.4,1.5c-0.2,0.3-0.4,0.5-0.6,0.8c-0.2,0.1-3.1-0.2-3.2-0.2c-0.3,0.5-0.2,0.5-0.3,0.9c0.8,0.8,1.4,1.2,2.3,0.9
			c0.8,0.9-0.9,2.7-1,3.4c-0.4,0-0.5-0.4-0.9-0.4c-0.2,0-0.4,0.3-0.6,0.3c0,0-0.8-0.4-0.8-0.4c-0.4,0.3-0.4,0.4-0.7,0.9
			c0.1,0.3,0.2,0.3,0.1,0.6c0.7,0.4,1.5,0.5,2.2,0.5c0.3,0.8-0.9,1.9-1,2.8c-1.1,1.4-1.5,0.4-2.6,0.2c-0.2,0-0.2,0.2-0.5,0
			c-0.4,0.4-0.6,0.5-0.7,1c0.1,0.2,0.2,0.4,0.2,0.5c0.5,0.3,1.3,0.4,1.8,0.4l0.6,0.5c0.1,0.2-1.1,3-1.7,3.6c-1.3-1-1.7-0.6-2.8-1
			c-0.2,0.2-0.2,0.2-0.3,0.2c-0.3,0.5-0.2,0.6-0.3,1.1c0.8,0.4,1.4,0.8,2.1,0.6c0.4,0.4,0.6,0.9,0.7,1.4c0,0.4-0.6,2.5-1.1,2.7
			c-0.7,0.4-1.1-0.3-1.9-0.6c-0.3-0.1-0.6,0.1-1,0c-0.2,0.3-0.3,0.5-0.5,0.8c0.6,0.8,1.6,1.8,2.6,1.8c0.4,0.8-0.7,1.8-0.6,2.6
			c-0.2,0.3-0.5,0.6-0.7,0.9c-0.3,0.1-0.8-0.3-1.2-0.3c-0.6,0-1.3,0.1-1.9,0.1c-0.1,0.1-0.2,0.3-0.3,0.4c0.4,0.5,0.2,0.5,0.2,0.7
			c0.2,0.4,2.2,1,2.4,1c0.3,0.4,0.2,0.5,0.3,0.9c-0.2,0.3-0.4,0.4-0.4,0.7c-1.1,1.3-1.5,0.6-2.6,0.4c-0.3,0-0.6,0.2-1,0.2
			c-0.1,0.2-0.1,0.1-0.1,0.3c-0.3,0.5-0.1,0.6-0.1,1.1c0.5,0.3,0.8,0.3,1.3,0.6l0.2-0.3c0.3,0.1,0.5,0.2,0.8,0
			c0.5,0.9-0.5,2.5-1,3.2c-1.3-0.8-1.7-0.5-2.7-0.9c-0.5,0.6-0.6,0.8-0.6,1.3c1.1,0.9,1.6,0.7,2.5,1.1c0,0.2,0.1,0.3,0.2,0.5
			c-0.3,0.4-0.7,1.2-0.7,1.7c-0.2,0.3-0.4,0.5-0.6,0.8c0,0-2.2-0.5-2.4-0.5c-0.3,0.2-0.6,0.5-0.9,0.7c0.1,0.2,0.2,0.4,0.1,0.6
			c0.9,0.8,1.6,0.9,2.4,0.7c0.6,0.8-0.4,1.7-0.5,2.5c-0.2,0.2-0.3,0.4-0.5,0.6l-2.1-0.6c-0.3,0.2-0.9,0.4-0.9,0.9
			c-0.1,0.1-0.1,0.1-0.2,0.2c0.1,0.2,0.1,0.1,0.1,0.3c0.9,0.8,1.8,0.5,2.3,0.8c0.3,0.5-0.2,2.3-0.9,2.5c-0.1,0.1-0.1,0.1-0.2,0.2
			c-0.2-0.2-0.4-0.4-0.7-0.6c-0.6-0.2-1.2,0.1-1.8-0.2c-0.6,0.7-0.5,0.8-0.5,1.4c0.8,0.5,1.5,0.8,2.3,0.8c0.3,0.7-0.3,2-1,2.8
			c-0.9-0.6-1.6-0.6-2.3-0.9c-0.3,0.3-0.5,0.3-0.6,0.7c-0.2,0.4,0,0.4-0.2,0.8c0.7,0.5,1.5,0.9,2.2,0.9c0.6,1.1-0.7,2.5-0.9,3.3
			c-0.9,0.1-2.1,0-2.9,0.5c-0.8,0.5-1,1.2-1.8,1.4c-0.1-0.1-0.1-0.1-0.2-0.2c-0.1,0.1-0.2,0.2-0.2,0.3c-0.3,0-0.5,0-0.8,0
			c-0.1,0.1-0.2,0.3-0.3,0.4c-0.2,0.1-0.7-0.1-1,0c-1.2,0.3-2.3,0.9-3.4,1.4c-0.3,0.1-0.4,0.4-0.8,0.5c-1.8,0.5-3.6,1.3-5.4,1.7
			c-0.8,0.2-1.3,0.8-2.1,1c-0.6,0.2-1.4,0.3-2,0.5c-0.9,0.3-1.6,0.9-2.5,1.3c-0.8,0.3-1.4,0.2-2.2,0.9c-0.1-0.1-0.2-0.2-0.3-0.2
			c-1,0.8-2.1,0.4-3,0.7c-0.3,0.1-0.4,0.4-0.8,0.5c-0.4,0.1-1-0.1-1.3,0l-0.3,0.4c-0.9,0.4-2.5,1-3.4,1.2c-0.2,0-0.5-0.1-0.7-0.1
			c-0.7,0.2-1.3,0.6-2,0.8c-0.5,0.1-1.1-0.2-1.7,0.1c-1-0.9-0.3-1.7-0.4-2.6c0-0.4-0.3-1-0.3-1.4c0-0.5,0.4-0.8,0.4-1.3
			c0-0.7-0.4-1.5-0.4-2.3c0.1-0.9,0.3-1.7,0.4-2.6c0.1-1-0.2-2.1-0.4-3.1c-0.1-0.3,0.2-0.6,0.1-0.9c-0.1-0.3-0.4-0.4-0.4-0.7
			c0-0.3,0.2-0.5,0.2-0.8c0-0.7-0.3-1.5-0.4-2.3c0-0.6,0.1-1.2,0-1.8c-0.1-0.6-0.4-1.2-0.4-1.8c0.1-0.2,0.1-0.3,0.2-0.5
			c0-0.2-0.3-0.4-0.3-0.6c0-0.3,0.3-0.5,0.3-0.7c0-0.4-0.3-0.8-0.4-1.1c-0.1-1.4,0-2.9-0.2-4.2c-0.3-1.4-1-2.9-1.2-4.1
			c-0.2-0.1-0.2-0.1-0.4-0.1c-1.1-0.3-1.8,0.7-2.8,1.1c-0.1,0-0.2-0.1-0.4-0.1c-0.8,0.2-1.4,0.6-2.1,0.8c-0.2,0-0.4-0.1-0.5-0.1
			c-0.4,0.1-0.6,0.5-1,0.6c-0.3,0.1-0.7-0.1-1.1-0.1c-0.1,0.1-0.2,0.2-0.2,0.3c-0.7,0.1-1.3,0.5-2,0.6c-0.1,0-0.2-0.1-0.4-0.1
			l-1,0.6c-0.2,0-0.4-0.1-0.5-0.1c-0.2,0.2-0.4,0.3-0.6,0.5c-0.5,0.3-1.3,0.3-1.8,0.4c-0.3,0.2-0.6,0.5-0.9,0.7
			c-0.3,0.1-0.8,0-1.1,0.1c-0.7,0.1-2.2,0.8-2.8,1.1c-0.4,0.2-0.5,0.6-0.9,0.7c-0.5,0.1-1.1-0.1-1.6,0c-0.4,0.3-0.9,0.6-1.3,0.8
			c-0.4,0-0.8,0.1-1.2,0.1c-0.9,0.3-1.6,0.9-2.5,1.2c-0.7,0.3-1.8,0.3-2.5,0.5c-0.4,0.1-0.7,0.5-1.2,0.6c-1.1,0.3-2.4,0.5-3.6,1
			c-1-1-0.6-2.1-0.7-3.2c-0.1-0.7-0.6-1.4-0.7-2.1c-0.2-0.9,0.1-1.9,0-2.8c-0.4-3.4-1.8-6.7-2.5-10.1c-0.4-1.8-0.4-3.6-1.1-5.3
			c2.6-3.1,5.7-6.3,5.8-9.5c0.4-0.2,0.4-2,0.1-2.5c-0.9-1.8-3.1-2.1-3.8-4.1c-0.6-0.6-1.5-0.8-1.6,0.1c-0.2,0.5,0.1,0.9,0.5,1.4
			c-0.6,0.4-1.3,0.2-1.9,0.4c-0.4-0.5-0.7-1.2-0.7-1.7c-0.3-0.2-0.5-0.4-0.8-0.5c-0.6,0.1-0.7,0.6-1,1.2c0.2,0.5,0.1,0.9,0.6,1.5
			c-0.5,0.3-1.6,0.4-2.1,0.2c-0.8-0.3-0.6-1.8-1.6-2c-0.2-0.2-0.3-0.2-0.5-0.2c-0.3,0.1-0.5,0.2-0.6,0.5c-0.3,0.8,0.2,1.7,0.7,2.2
			c-0.6,0.4-1.6,0.9-2.2,0.9c-0.3-0.1-1.8-3-2.1-3.1c-0.4-0.1-0.4-0.1-0.7,0.1c-0.7,0.3,0.2,2.8,0.3,3.5c0,0,0.1,0.1,0.1,0.1
			c-0.9,0.6-2.2,0.4-3.2,0.7c-0.7-0.7-0.9-2.1-1-2.9c-0.6-0.4-0.8-0.4-1.3-0.2c-0.2,0-0.1,0-0.3,0.1c0.1,0.6-0.1,1.3,0.1,1.9
			c0.2,0.6,0.6,1,0.7,1.5c0,0.2,0,0.1-0.1,0.3c-0.7,0.1-1.5,0.6-2.3,0.6c-0.8-0.2-1.5-1.8-1.6-2.8c-0.5-0.4-0.6-0.3-1-0.4
			c-1,1.2-0.1,2.4,0.2,3.4c-0.9,1-1.6,0.5-2.5,0.9c-1-1-1.6-2.6-1.5-3.7c-0.2-0.1-0.4-0.2-0.6-0.2c-0.2,0-0.4,0-0.5,0
			c-0.6,0.8-0.2,3.2,0.5,4c-0.2,0.1-0.2,0.1-0.4,0.3c-0.7-0.2-1.3-0.4-2-0.5c-0.9-0.8-1.2-2-1.2-2.8c-0.7-0.6-0.9-0.3-1.5-0.4
			c-0.6,0.8,0,2.2,0.5,2.9c0,0-0.1,0.1-0.1,0.1c-0.8-0.1-2-0.5-2.9-0.4c-0.8-0.6-2.1-3-2-3.6c-0.6-0.5-0.9-0.4-1.4-0.5
			c-0.3,0.4-0.3,0.4-0.3,0.7c-0.2,0.6,0.6,2,0.8,2.6c-0.7,0.5-1.7-0.4-2.4-0.4c-0.1-0.3-0.1-0.7,0-1c-1.5-1.2-2-2.2-2.1-3.7
			c-0.6-0.5-0.7-0.5-1.3-0.4c-0.9,1.3-0.3,2.5,0.4,3.6c0,0.1,0,0.1,0,0.2c-0.5,0-2.1-0.6-2.3-1.3c-0.2-0.4-0.1-0.8-0.3-1.2l0.2-0.3
			c-0.7-0.8-1.9-3.4-2.5-3.4c-0.3-0.1-0.4,0.1-0.7,0.2c-0.1,0-0.3,0.5-0.5,0.8c0.5,0.6,0.5,0.8,1.1,1.2c-0.1,0.1-0.1,0.1-0.2,0.2
			c-0.1,0-0.1,0-0.2,0c-1.9-1.6-2.3-3-3.1-4.5c-0.2-0.2-0.4-0.4-0.6-0.7c-0.2-0.5-0.4-1.2-0.7-1.7c-0.2-0.1-0.3-0.3-0.5-0.4
			c-0.2-0.8,0.1-1.9,0.1-2.7c0.1-1.3-0.4-2.8-0.1-4.2c0.4-2.1,1.4-3.6,2-5.7c0.4-0.2,0.8-1.1,1-1.2c0.5-0.3,2.7-1.6,3-2.2
			c0.1-0.1,1.2-0.7,1.6-0.9c0.3-0.7,1.5-0.7,2.1-1c0.3-0.3,0.5-0.5,0.8-0.8c0.2-0.1,0.7,0.2,0.9,0.1c0.2-0.1,0.1-0.5,0.6-0.7
			c0.3-0.1,0.9-0.1,1.1-0.2c0.5-0.2,0.9-0.6,1.4-0.8c0.2,0,0.4,0,0.6,0c0.6-0.2,0.9-0.7,1.5-0.9c0.3-0.1,0.7,0.1,1.1,0.1
			c0.9-0.1,1.7-0.7,2.6-0.9c0.9-0.3,2.1,0,3.1-0.4c0.2-0.1,0.3-0.3,0.5-0.4c0.7-0.2,1.5-0.2,2.2-0.5c0.2-0.1,0.3-0.3,0.5-0.4
			c0.1,0,0.2,0.1,0.4,0.1c0.6-0.1,1.2-0.5,1.8-0.6c0.4,0,0.7,0.1,1.1,0.1c0.2-0.2,0.5-0.3,0.8-0.5c0.7-0.2,1.5,0.1,2.2-0.1
			c0.6-0.2,1-0.5,1.6-0.8c0.6,0,1.1,0,1.7-0.1c2.3-0.9,4.7-1.4,7.1-1.9c0.2,0,0.4,0.2,0.7,0.4c0-0.2,0-0.4,0-0.5
			c0.9-0.5,2-0.4,2.9-0.5c0.4-0.1,0.5-0.4,0.9-0.5c0.3-0.1,0.6,0.2,0.9,0.1c0.5-0.1,0.8-0.5,1.3-0.6c0.2,0,0.4,0.2,0.5,0.1
			c0.5-0.1,1-0.3,1.4-0.5c0.1,0.1,0.2,0.2,0.3,0.2c1.1-1,2.5-0.9,3.6-1.2c1.2-0.4,2.3-1.3,3.5-1.7c0.8-0.2,1.9-0.2,2.7-0.5
			c0.1,0,0-0.3,0.2-0.5c0.1,0,0.3,0,0.4,0c0.8-0.4,1.3-0.9,2.1-1.2c2.5-0.8,5.4-1.8,7.5-2.7c1-0.5,1.5-1.1,2.6-1.7
			c1.2-0.7,2.6-1.1,3.9-2c2.1-1.4,4.5-3.1,7.1-4.7c1.4-0.8,3-2,4.3-2.8c0.9-0.6,1.3-1.5,1.7-1.8c0.8-0.7,2-1.7,2.4-2.3
			c0.4-0.7,2.7-2.9,2.7-2.9c0.1-0.1,0.1-0.1,0.2-0.2c0.1,0.1,0.2,0.2,0.3,0.2c0.1,0.1,0.2,0.9,0.3,1c0.2,0.2,0.5,0.5,0.7,0.7
			c0.5,0.9,2,2.6,3.6,3.5c0.3,0.2,0.5,0.6,0.7,0.9c0.7,1,1.5,0.9,2.1,1.8c0.3,0.5,1,1.5,1.4,2c0.7,0.7,1.8,1.2,2.5,1.6
			c0.2,0.1,0.5,0.6,0.6,0.7c0.5,0.6,0.9,0.6,1.5,0.9c0.4,0.3,0.7,0.6,1.1,0.9c0.1,0,0.2-0.1,0.3-0.1c0.4,0.3,0.8,0.6,1.2,1
			c0.7,0.6,1.3,1,2.1,1.2c0.6,0.2,0.9,1,1.2,1.3c0.3,0.4,2.4,2.1,3.1,2.4c0.6,0.3,1.3,1.1,2.1,1.4c2.9,1.2,4.7,2.4,7.4,3.7l1.6,1.4
			c0.7,0.3,1.4,0.6,2.1,1c0.6,0.5,1.3,1.1,1.9,1.6c0.1,0.1,0.5,0,0.6,0c1.1,0.3,1.8,1.2,2.9,1.6c0.9,0.3,2.2,0.6,3.2,0.9
			c0.5,0.3,1,0.6,1.5,0.9c1.9,0.6,4,1.5,5.9,1.9c0.3,0.2,0.6,0.4,0.9,0.5c0.4,0.2,1.5,0.7,1.8,0.8c0.1-0.1,0.2-0.1,0.3-0.2
			c0.4,0.3,0.9,0.5,1.3,0.8c0.1,0,0.3-0.1,0.4-0.1c1.2,0.2,2,0.9,3.4,1c0.3,0,0.7-0.3,1-0.3c0.6,0,1.4,0.5,2.1,0.6
			c1.2,0.2,2.7,0.4,3.8,0.3c0.1,0.1,0.2,0.2,0.3,0.2C457.8,246.3,457.3,247.3,456.4,248.4z M456.3,242.6c-0.7,0.7-2,0.4-2.8-0.4
			c0.6-1,1-3,1.2-4.2c0.2-0.3,0.5-0.7,0.7-1c0.3-0.9,0.9-2.2,1.4-3.4c0.3-0.5,0.6-1,0.9-1.5c0.2-0.5,0.2-1.1,0.3-1.5
			c0.2-0.3,0.5-0.6,0.7-0.9c0.4-1,1.1-1.8,1.6-2.7c0.2-0.4,0.3-1.1,0.5-1.6c0.6-1.5,1.5-3,2-4.4c0.3-0.8,0.9-1.1,1-1.8
			c1-0.9,2-0.3,3.1-0.6c0.1,1.5-1.2,2.6-1.8,4.1c-0.6,1.6-1.9,4-2.6,6c-0.3,0.5-0.7,1.1-1,1.6c-0.3,0.8-0.5,2-0.9,2.8
			c-0.2,0.3-0.5,0.6-0.7,0.9c-0.3,0.7-0.3,1.7-0.5,2.4c-0.1,0.4-0.8,1.5-0.8,1.5C458.4,238.6,456.8,242.4,456.3,242.6z M470,220.9
			c-0.2,0.9-0.9,2.7-1.8,3.7c-0.2,0.9-0.6,1.8-0.9,2.8l-0.8,0.8c-0.1,0.2,0,0.8-0.1,1.1c-0.3,0.8-0.9,1.1-1.1,1.7
			c0.1,0.1,0.1,0.1,0.2,0.2c0,0.1-0.5,0.4-0.6,0.7c-0.1,0.4-0.2,1.3-0.4,1.6c-0.2,0.4-1,0.9-1.3,1.5c-0.7,2-2.8,4.4-3,6.3
			c-0.5,0.6-0.7,0.7-1.3,0.7c-0.2,0-0.1,0-0.3-0.1c0.1-0.3,0.3-1,0.4-1.3c0.2-0.2,0.4-0.3,0.6-0.5c0.4-0.8,0.6-1.8,0.8-2.6
			c0.2-0.2,0.3-0.5,0.5-0.8c0.1-0.5-0.2-1.1,0-1.6c0.3-0.4,0.7-0.8,1-1.2c0.5-1.4,1.3-3.3,1.6-4.7c0.2-0.3,0.5-0.6,0.7-0.9
			c0.1-0.2,0.5-0.9,0.5-1.2c-0.1-0.1-0.1-0.1-0.2-0.2c0.1-0.6,1.1-1.3,1.3-2c0.2-0.6,0.4-1.5,0.8-2.1c0.2-0.1,0.3-0.3,0.5-0.4
			c0.1-0.3,0.3-1.2,0.4-1.5c0.3-0.8,1.1-0.7,1.1-1.7c0.4-0.5,0.5-0.4,0.9-0.5c0.1,0.1,0.2,0.2,0.3,0.2l0.2-0.3
			c0.4,0.1,0.2,0.1,0.5,0c0.1,0.2,0.1,0.1,0.1,0.3C470.9,219.7,470.1,220.2,470,220.9z M355.4,276.1c0.5-0.6,0.5-0.8,0.6-1.3
			c-0.3-0.2-0.4-0.4-0.7-0.4c-0.5-0.3-0.5-0.3-0.9-0.1c0,0.2-0.3,0.3-0.3,0.6c0,0.2,0.2,0.6,0.3,0.9
			C354.8,276,354.9,275.9,355.4,276.1z M361.5,272.2c0.5,0.3,0.5,0.1,0.9,0.3c0.3-0.4,0.3-0.5,0.4-0.8c-0.3-0.2-0.5-0.4-0.6-0.7
			c-0.6-0.5-0.7-0.2-1.3-0.2c-0.1,0.2-0.3,0.3-0.4,0.5c0,0.2,0,0.1-0.1,0.3C360.8,271.9,361,272.2,361.5,272.2z M368,266.6
			c0.3,0,0.5,0,0.8,0c0.4-0.5,0.5-0.8,0.2-1.3c-0.3,0-0.6,0-0.9-0.1c-0.2,0.1-0.3,0.3-0.5,0.4c0.1,0.3,0.2,0.5,0.2,0.8
			C367.9,266.5,367.9,266.5,368,266.6z M361.8,273.6c-0.2,0.1-0.2,0.2-0.4,0.3c0,0.3,0,0.5,0,0.8c0.3,0.3,0.2,0.3,0.4,0.3
			c0.4,0.2,0.4,0.1,0.7,0.1c0.2-0.2,0.2-0.3,0.4-0.3c0.4-0.5,0.5-0.7,0.5-1C362.8,273.3,362.4,273.5,361.8,273.6z M357.7,281.1
			c0.6-0.3,1.2-0.8,1.7-1.3c0-0.2,0-0.1,0.1-0.3c-0.2-0.2-0.3-0.2-0.3-0.4c-0.8-0.4-1.2,0.2-1.9,0.2c-0.2,0.2-0.4,0.4-0.6,0.7
			c0,0.2,0,0.1-0.1,0.3c0.1,0.2,0.1,0.1,0.1,0.3C357.1,280.8,357.4,281,357.7,281.1z M354.1,286.2c0.1-0.1,0.1-0.1,0.2-0.2
			c-0.5-0.4-0.8-0.5-1.2-0.5c-0.4-0.1-0.5-0.1-0.8,0.2c0,0.2,0,0.3,0,0.4c0.1,0.2,0.2,0.4,0.2,0.5c0.7,0.5,0.8,0.1,1.4,0
			C354,286.5,354.1,286.4,354.1,286.2z M354.8,285.4c0.4,0.1,0.8-0.4,1.2-1c-0.1-0.2-0.1-0.3-0.1-0.4c-0.6-0.5-0.7-0.3-1.2-0.3
			c-0.2,0.2-0.4,0.4-0.6,0.7C354.2,284.7,354.1,285.3,354.8,285.4z M360.6,279.3c0.2-0.1,0.5-0.2,0.7-0.2c0.5-0.6,0.2-0.7,0.2-1.3
			c-0.5-0.4-0.6-0.3-1-0.4c-0.2,0.2-0.4,0.4-0.6,0.7C360.1,278.7,359.9,278.8,360.6,279.3z M356.8,287.2c1,0.3,1.8-1.2,2.3-1.6
			c-0.1-0.4,0-0.8,0.2-1.2c-0.5-0.5-1.2-1.4-1.9-1.4c-0.8-0.1-0.8,0.6-1.1,1.1c0.3,0.2,0.6,0.5,0.7,0.7c0.1,0.1,0.3,0.2,0.4,0.3
			c0,0-0.1,0.1-0.1,0.1c-0.4-0.1-0.6-0.1-0.9-0.1c-0.3,0.5-0.4,0.9-0.5,1.4C356.2,286.7,356.7,287.1,356.8,287.2z M367.7,292.8
			c0.9,0.5,1.3-0.4,1.8-1.1c-0.3-0.4-0.2-0.5-0.5-0.6c-0.4-0.3-0.5-0.2-0.8-0.4c-0.5,0.4-1.2,0.6-1.3,1.2c-0.3,0.4-0.3,0.5-0.7,0.4
			c-1.4-0.3-0.5-1.4-0.7-2.1c-0.5-1.3-1.5-0.9-1.4-2.6c-0.5-0.3-0.8-0.3-1.2-0.5c-0.7,0.7-0.6,1.2,0.2,1.8c-0.1,0-0.1,0-0.2,0
			c-0.5,0.2-1.3-0.2-1.9-0.4c0-0.3,0-0.4,0.1-0.7c0.1-0.3,0.7-0.8,1-1.2c-0.4-0.4-0.3-0.4-0.5-0.8c-0.3,0-0.5,0-0.8,0
			c-0.9,0.2-0.3,0.9-0.8,1.3c-1,0.9-1.9,2-3.4,1.9c-0.1,0.1-0.1,0.1-0.2,0.2c0,0-0.1-0.1-0.1-0.1c0.4-0.4,0.5-0.5,0.8-1
			c-0.4-0.3-0.7-0.5-1-0.5c-0.2,0-0.4,0-0.6,0c-0.5,0.4-0.8,0.7-0.9,1.2c-0.3,0-0.4,0-0.7-0.1c-0.4,0.5-0.5,0.7-0.6,1.1
			c0.2,0.2,0.4,0.4,0.6,0.7c0.1,0,0.2,0,0.4,0c0.4-0.1,0.6-0.5,0.9-0.7c-0.1-0.2-0.1-0.2-0.3-0.4c0.4,0,0.3,0.1,0.7-0.1
			c0.3,0.7-1.2,1.7-1.5,2.6c-0.6,1.7-0.4,4.1,0.1,5.8c0.2,0.6,0.7,0.8,1.1,1.4c2.2,3.7,8,2.4,10.9-1c0.6,0.4,0.8,0.2,1.3,0.1
			c0.2-0.3,0.3-0.4,0.3-0.6c0-0.1,0.1-0.2,0.1-0.4c-0.3-0.2-0.9-0.6-1.2-0.7c-0.4-0.6-0.1-1.4-0.3-2
			C367.3,293.8,367.1,293.7,367.7,292.8z M363.9,297.5c-0.6,1.2-2.2,1.2-3,1.4c-0.4,0.1-0.9,0.5-1.4,0.5c-1.2-0.1-3.1-1.2-3.7-2.4
			c-0.3-0.6-0.4-3-0.5-3.9c0.2,0,0.6-1.2,0.7-1.6c1-0.5,2.1-1.4,3.2-1.4c0.5,0,1,0.3,1.5,0.4c0.3,0,2.5,0.7,2.7,0.9
			C364.6,293.1,364.9,295.6,363.9,297.5z M363,285.5c0.2-0.3,0.4-0.5,0.5-0.8c-1.1-2.1-1.4-2.6-4-2.8c-0.2,0.3-0.5,0.6-0.7,0.9
			c0.1,0.2,0.2,0.4,0.1,0.6c1.1,0.9,0.6,0.1,1.4,0c0.2,0.2,0.5,0.3,0.8,0.5c0.3,0.1,0.7,0,1,0c-0.1,0.4-0.1,0.7-0.3,1.1
			C362.4,285.5,362.5,285.5,363,285.5z M367.3,275.3c0.2-0.1,0.3-0.3,0.3-0.6c0.1-0.9-0.8-0.8-1.2-0.9c-0.2,0.2-0.3,0.4-0.5,0.6
			c0,0.2,0.1,0.5,0.2,0.8C366.6,275.6,366.8,275.6,367.3,275.3z M371.9,269.7c0.5-0.6,0.4-0.7,0.5-1.2c-0.4-0.3-0.4-0.2-0.7-0.3
			c-0.3,0.3-0.6,0.6-0.9,0.9c0.1,0.2,0.1,0.1,0.1,0.3C371.4,269.7,371.5,269.6,371.9,269.7z M363.8,282.6c0.8-0.1,1.8-0.1,2.5-0.3
			c0.3-0.1,0.1-0.2,0.3-0.2c0.4-0.5,0.4-0.6,0.5-1c-0.5-0.4-0.8-0.5-1.2-0.7c-0.5,0.5-0.4,0.5-0.8,1.1c-0.5-0.4-0.9-0.6-1.3-0.6
			c-0.1,0-0.2,0-0.3-0.1c-0.1,0.2-0.1,0.2-0.1,0.4c-0.3,0.4-0.2,0.4-0.3,0.7C363.5,282.2,363.7,282.4,363.8,282.6z M377.9,265.2
			c0.3,0.1,0.4,0,0.7-0.1c0.2-0.3,0.4-0.4,0.4-0.7c0.1-0.3,0-0.4-0.2-0.7c-0.3,0-0.6,0-0.9-0.1c-0.2,0.3-0.4,0.5-0.6,0.8
			C377.4,264.8,377.5,265.2,377.9,265.2z M368.7,275.5c0,0.3,0,0.4-0.1,0.7c0.3,0.2,0.5,0.4,0.8,0.5c0.1,0,0.2,0.1,0.4,0.1
			c0.2-0.1,0.1-0.1,0.3-0.1c0.5-0.5,0.6-0.7,0.5-1.2c0-0.1-0.2-0.5-0.6-0.5c-0.4-0.1-0.5,0-0.8,0C369,275.2,368.9,275.3,368.7,275.5
			z M374.1,272.8c0.3-0.1,0.5,0,0.9-0.3c0.3-0.2,0.2-0.7,0.3-1.1c-0.7-0.6-0.9-0.4-1.4,0c0,0.1-0.1,0.3,0,0.4c0,0.1-0.1,0.2-0.1,0.4
			C373.8,272.4,373.9,272.6,374.1,272.8z M363.8,284.7c0,0.3-0.1,0.6-0.3,0.7c-0.1,0.3,0.1,0.4,0.1,0.7c0.2,0,0.4,0.1,0.5,0.1
			c0.3,0.1,0.3,0,0.6,0c0.4-0.4,0.5-0.7,0.6-0.8c0.1-0.4-0.2-0.8-0.6-0.8C364.3,284.4,364.2,284.5,363.8,284.7z M380.6,269.4
			c0.4-0.6,0.3-0.6,0.3-1.1c-0.5-0.4-0.7-0.5-1-0.5c-0.2,0.2-0.3,0.4-0.5,0.6c0.1,0.3,0.1,0.6-0.1,0.9c0.2,0.1,0.4,0.2,0.6,0.2
			C380.2,269.6,380.3,269.4,380.6,269.4z M371.6,280.3c-0.7-0.6-0.9-0.4-1.6-0.5c-0.3,0.5-0.4,0.6-0.1,1.1c-0.1,0.1-0.2,0.2-0.2,0.3
			c0.9,0.6,0.7,0.1,1.3,0.2c0.2,0,1.5,0.9,1.7,1.1c0.3-0.3,0.5-0.6,0.5-0.8c0-0.1,0.1-0.2,0.1-0.4
			C372.8,280.9,372.1,280.1,371.6,280.3z M369,284c0.2-0.4,0.1-0.4,0.2-0.6c-0.3-0.2-0.4-0.4-0.5-0.6c-0.4,0.1-0.7,0.2-1.2,0.5
			c0,0.3-0.1,0.6-0.1,0.9c0.4,0.3,0.6,0.3,1,0.4C368.6,284.2,368.8,284,369,284z M376.7,273.9c0.3,0.1,0.4,0,0.7-0.1
			c0.3-0.1,0.1-0.2,0.3-0.2c0.1-0.2,0.1-0.2,0.1-0.4c0-0.2-0.3-0.5-0.3-0.8c-0.5-0.3-0.6-0.1-1-0.2c-0.2,0.2-0.4,0.4-0.6,0.7
			c0,0.2,0,0.1-0.1,0.3C376.2,273.5,376.4,273.8,376.7,273.9z M370,286.9c-0.3-0.2-0.5-0.4-0.8-0.5c-0.7-0.2-1,0.2-1.3,0.8
			c-0.1-0.3-0.4-0.6-0.4-0.7c-0.5-0.2-0.5,0-1,0c-0.1,0.1-0.2,0.3-0.3,0.4c0.1,0.5,0.3,1.1,0.2,1.7c1.1,0.9,1.4,1,2.3,0.9
			c0.4-0.6,0.3-0.9,0-1.4c0.3-0.2,0.6-0.3,0.9-0.4C369.9,287.4,369.9,287.3,370,286.9z M377.6,276.5c-0.6-0.5-1-0.4-1.5,0
			c0.1,0.3,0.3,0.7,0.4,1.1c0.4,0.2,0.5,0.1,0.8,0.2C377.8,277.2,377.7,277.1,377.6,276.5z M377.7,280.5c0.3-0.3,0.6-0.7,0.6-0.9
			c0.1-0.1,0.1-0.1,0.2-0.2c-0.8-0.7-1.3-0.4-1.9,0.2c0,0.2,0,0.1-0.1,0.3C376.9,280.3,377.1,280.4,377.7,280.5z M372.4,288.6
			c0.1-0.3-0.2-0.6-0.5-0.9c0.3-0.1,0.5-0.2,0.8-0.2c0.2-0.4,0.2-0.6,0.3-0.9c-0.5-0.4-0.8-0.5-1.2-0.7c-0.2,0.2-0.4,0.3-0.6,0.5
			c0,0.5-0.2,0.6,0.4,1.1c-0.4,0.2-0.7,0.7-0.9,1.1c0.2,0.2,0.2,0.3,0.2,0.5c0.2,0.2,0.4,0.3,0.6,0.5
			C371.8,289.4,372.4,289.1,372.4,288.6z M381.4,274.3c-0.2,0.2-0.4,0.4-0.6,0.7c0.1,0.2,0,0.2,0.1,0.4c0,0.2,0,0.1,0.1,0.3
			c0.3-0.1,0.5-0.1,0.8,0c0.2-0.2,0.6-0.6,0.6-0.9C382.4,274.5,381.8,274.4,381.4,274.3z M370,290.7c-0.1,0.1-0.2,0.3-0.3,0.4
			c0,0.1-0.1,0.3,0,0.4c-0.1,0.3,0,0.2,0,0.4c0.5,0.4,0.9,0.4,1.3,0.1c0.2,0,0.1,0,0.3-0.1c0-0.3,0-0.5,0-0.8
			C370.7,290.8,370.5,290.8,370,290.7z M377.1,283.1c-0.7-0.2-1,0.4-1.3,1c0.2,0.2,0.3,0.2,0.3,0.4c0.6,0.5,0.6,0.2,1.2,0.2
			c0.2-0.3,0.4-0.7,0.5-1C377.5,283.3,377.4,283.1,377.1,283.1z M368.5,293.2c-0.1,0.3-0.1,0.7-0.2,1c0.6,0.5,0.8,0.4,1.3,0.4
			c0.3-0.2,0.9-0.5,0.9-0.7c0.2-0.3,0.3-0.4,0.4-0.7C370,292.6,369.3,292.7,368.5,293.2z M377.5,286.2c-0.3-0.2-0.4-0.3-0.6-0.3
			c-0.4,0.1-0.8,0.4-1.1,0.7c0,0.3,0,0.6-0.1,0.9c0.3,0.2,0.4,0.2,0.5,0.4c0.5,0.2,0.6-0.2,1.1-0.1
			C377.8,287.1,377.5,286.8,377.5,286.2z M372.9,291.3c-0.5-0.3-0.8,0-1.3,0.6c0,0.2,0,0.1-0.1,0.3c0.5,0.6,2.2,1.2,2.4,2
			c0.5,0.4,1.4,0.4,1.5-0.4c0-0.1,0.1-0.2,0.1-0.4C375.1,293,373,291.6,372.9,291.3z M380.6,281.1c-0.2,0.3-0.4,0.5-0.6,0.8
			c0,0.2,0,0.4,0,0.5c0,0.1,0,0.1,0,0.2c0,0,0.1-0.1,0.1-0.1c0.8,0.7,1.3,0,1.7-0.7c0-0.1,0-0.1,0-0.2
			C381.2,281.2,381.1,281.2,380.6,281.1z M369.3,296.6c-0.3,0.4-0.2,0.3-0.4,0.5c0,0.2,0,0.1-0.1,0.3c0.1,0.2,0.1,0.1,0.1,0.3
			c0.3,0.3,0.7,0.5,0.9,0.6c0.3-0.2,0.6-0.4,0.6-0.8c0.1-0.3,0-0.3,0-0.6C369.9,296.4,369.8,296.6,369.3,296.6z M382.4,285.1
			c0,0.2,0,0.3,0,0.4c0.2,0.3,0.4,0.6,0.5,0.9c0.1,0,0.2,0,0.3,0.1c0.2-0.1,0.4-0.2,0.5-0.2c0.5-0.6,0.4-0.8,0.5-1.4
			c-0.5-0.3-0.6-0.3-1-0.5C382.8,284.6,382.6,284.9,382.4,285.1z M378.9,290.6c-0.1-0.1-0.1-0.1-0.2-0.2c-0.2,0.3-0.4,0.5-0.8,1
			c0.1,0.2,0.4,0.6,0.4,0.8c0.4,0.1,0.5-0.1,0.9-0.1c0.2-0.3,0.4-0.4,0.4-0.7c0.1-0.3,0-0.4-0.1-0.7
			C379.2,290.6,379.2,290.6,378.9,290.6z M353.5,333.1c0.1,0,0.2,0,0.4,0c0.3-0.1,0.5-0.2,0.5-0.4c0.3-0.5,0.2-0.5,0.3-0.9
			c-0.7-0.6-1.1-0.5-1.7,0.1c0.1,0.3,0,0.4,0.2,0.8C353.2,332.8,353.3,332.8,353.5,333.1z M357.7,329.1c-0.2-0.3-0.4-0.6-0.8-0.6
			c-0.4-0.1-0.6,0.1-0.9,0.4c0,0.3,0.1,0.2,0,0.4C356.7,330.1,357.4,330.2,357.7,329.1z M346.4,341.3c-0.3,0.2-0.6,0.4-0.9,0.5
			c0.1,0.2,0.1,0.6,0.2,0.8c0.3,0.1,0.4,0.1,0.5,0.4c0.2,0,0.2,0,0.4,0c0.2-0.2,0.2-0.3,0.4-0.3
			C347.7,341.9,347.1,341.5,346.4,341.3z M353.3,334.5c0.3-0.6,0.2-0.8,0.2-1.3c-0.2-0.2-0.3-0.2-0.5-0.2c-0.1-0.1-0.1-0.1-0.2-0.2
			c-0.3,0.3-0.5,0.6-0.8,1C352.4,334.5,352.7,334.5,353.3,334.5z M372.4,331.9c0.1-0.1,0.2-0.2,0.2-0.3c-0.7-0.8-0.2-1.2-0.4-1.8
			c-0.2-0.5-0.8-1.5-1.1-1.9c-0.2-0.2-0.4-0.1-0.5-0.2c-0.2-0.3-0.3-0.9-0.6-1.3c-0.4-0.4-1.3-0.9-1.8-1.2c-0.6-0.3-1.3-1-2.1-1.1
			c-0.9-0.1-2.2,0.2-3.1,0.4c-0.6,0.2-1.2,0.7-1.9,0.7c-0.1-0.4-0.7-0.3-1-0.4c-0.2,0.3-0.3,0.4-0.3,0.6c-0.1,0.4,0,0.6,0.2,1
			c-0.5,0.6-1.2,1.5-1.2,2.1c-0.6,0.8,0,1.2-0.2,2c-0.4,0.2-0.6,0.8-0.7,1.2c0.4,0.6,0.8,0.7,1,1.3c0.2,0.4-0.2,1.1-0.3,1.5
			c0.5,0.7,1.2,1.3,1.6,1.5c0.1,0,0.5,0.1,0.7,0.4c0.3,0.4,0.3,0.7,0.8,1.2c0.8-0.1,1.7-0.3,2.6,0c0.2,0.1,0.3,0.4,0.2,0.7
			c0.5,0.4,0.6,0.4,1,0.5c0.5-0.4,0.6-0.7,0.8-1.3c0.3,0,0.2,0,0.4-0.1c0.6,0.5,0.7,0.6,1.2,0.9c0.3-0.4,0.5-0.9,0.9-1.1
			c0.2,0,0.1,0,0.4,0.1c0.1-0.1,0.2-0.2,0.2-0.3c0.1,0.1,0.2,0.2,0.3,0.2c0.1,0,0.1,0,0.2,0c0.5-0.7,0.1-1.7,1-2
			c0.1-0.1,0.2-0.3,0.3-0.4c0.5,0.6,0.7,0.5,1.3,0.6c0.3-0.3,0.6-0.7,0.6-0.9c0.1-0.1,0.1-0.1,0.2-0.2c-0.4-0.2-0.7-0.3-1.2-0.7
			C372.8,333.1,372.8,332.4,372.4,331.9z M370.6,332.7c-0.4,1-1.3,1.3-1.9,1.7c-0.3,0.3-0.6,0.6-0.9,0.9c-1,0.6-2.2,0.3-3.3,0.2
			c-0.8-0.1-2.4-0.3-2.7-1.1c-1-1-1.3-4.2-0.9-5.3c0.2-0.7,0.6-0.5,0.4-1.1c0.9-0.9,3.3-2.4,5-1.9c0.4,0.3,0.8,0.6,1.2,0.9
			c0.4,0.1,1.7,0.6,1.9,1.4c0.8,0.7,0.5,1.2,0.7,1.9C370.5,331,371,331.8,370.6,332.7z M358.3,332.5c-0.7-0.9-0.9-1.1-1.7-1.6
			c-0.3,0.3-0.3,0.4-0.7,0.9c0.5,0.5,0.7,1.1,0.7,1.7c0.3,0.2,0.4,0.2,0.6,0.2c0.3-0.1,0.8-0.5,1.1-0.7
			C358.2,332.7,358.2,332.8,358.3,332.5z M353.3,337.7c-0.2,0-0.4,0-0.5,0c-0.4,0.5-0.5,0.6-0.3,1.1c0.1,0.2,0.3,0.4,0.6,0.7
			c0.3-0.3,0.2-0.2,0.5-0.2c0.3-0.5,0.2-0.5,0.3-0.9C353.7,338.2,353.5,337.9,353.3,337.7z M356.9,336.9c0.2-0.2,0.4-0.3,0.6-0.5
			c0-0.2,0.1-0.5,0.1-0.7c-0.6-0.5-0.9-0.6-1.4-0.3c0,0.1-0.1,0.4-0.1,0.5c0,0.1-0.1,0.2-0.1,0.4c0.3,0.2,0.5,0.4,0.8,0.5
			C356.8,336.7,356.8,336.8,356.9,336.9z M353.2,340.5c0,0.3,0.1,0.6,0.1,0.9c0.4,0.2,0.5,0.1,0.8,0.2c0.3-0.3,0.4-0.5,0.7-0.6
			c0-0.2,0-0.5-0.1-0.7c-0.2-0.2-0.3-0.2-0.5-0.2C353.9,339.9,353.6,340.1,353.2,340.5z M357.3,338.7c-0.2-0.2-0.3-0.2-0.3-0.4
			c-0.5-0.4-0.7-0.3-1.2-0.2c0,0.4-0.1,0.8-0.2,1.2c0.5,0.4,0.7,0.4,1.1,0.4C357.2,339.2,357.3,339,357.3,338.7z M359.9,337.2
			c0.5-0.5,0.5-1.3-0.3-1.4l-0.4-0.1c-0.3,0.2-0.4,0.3-0.7,0.7c0.1,0.3,0.1,0.4,0,0.8C358.9,337.6,359.9,337.7,359.9,337.2z
			 M351.7,347c0.1-0.1,0.1-0.1,0.2-0.2c-0.3-0.2-0.7-0.5-1-0.7c-0.3,0.3-0.4,0.3-0.5,0.6C349.9,347.9,351.7,348.1,351.7,347z
			 M359.6,340.5c0.1-0.1,0.1-0.1,0.2-0.2c-0.2-0.2-0.3-0.3-0.4-0.5c-0.3-0.2-0.4-0.3-0.7-0.4c-0.3,0.2-0.5,0.3-0.8,0.6
			c0.2,0.3,0.2,0.3,0.1,0.6C358.6,341.2,359.5,341.4,359.6,340.5z M356.4,343.7c-0.2,0.2-0.4,0.4-0.6,0.7c0,0.2,0,0.3,0,0.4
			c0.2,0.2,0.4,0.4,0.6,0.7c0.2,0,0.1,0,0.3,0.1c0.3-0.2,0.5-0.4,0.8-0.5c0.3-0.5,0.2-0.7,0.3-1.1C357,343.6,357,343.9,356.4,343.7z
			 M359.9,341.9c-0.1-0.2-0.2-0.2-0.4-0.5c-0.2,0-0.4,0-0.5,0c-0.3,0.3-0.5,0.6-0.8,1c0.3,0.5,0.8,0.5,1.3,0.2
			c0.3-0.1,0.1-0.2,0.3-0.2C359.9,342.1,359.9,342.2,359.9,341.9z M352,350.3c-0.5,0.8-0.3,1.2-0.3,1.9c0.4,0.2,0.4,0.1,0.7,0.1
			c0.3-0.3,0.4-0.4,0.5-0.6c0.4-0.5,0.4-0.6,0.5-1c-0.3-0.2-0.6-0.4-0.9-0.5C352.3,350.5,352.4,350.4,352,350.3z M363.4,339
			c-0.6-0.5-0.9-0.4-1.4,0c0,0.4-0.8,1.5-1,1.8c0.3,0.2,0.3,0.1,0.4,0.3c0.2,0.2,0.3,0.2,0.5,0.2c0.3-0.4,0.7-0.9,1-1
			c0.3-0.4,0.6-0.7,0.7-1C363.4,339.1,363.4,339.2,363.4,339z M355.9,348.7c-0.3-0.1-0.3,0-0.6,0c-0.2,0.2-0.3,0.4-0.5,0.6
			c0.2,0.5,0.6,1,1.2,1c0,0,0.1,0.1,0.1,0.1c0.2-0.2,0.1-0.2,0.1-0.3c0.3-0.3,0.5-0.6,0.5-0.8C356.6,349,356.2,348.7,355.9,348.7z
			 M397,302.1c0.5-0.5,0.7-1.2,0-1.3c-0.3-0.1-0.3,0-0.6,0c-0.4,0.5-0.4,0.7-0.4,1.1l0.6,0.5C396.8,302.1,396.7,302.1,397,302.1z
			 M352,356.5c-0.4-0.2-0.5-0.1-0.9-0.1c-0.1,0.2-0.3,0.3-0.4,0.5c0.1,0.2,0.2,0.4,0.1,0.6c0.3,0.2,0.4,0.2,0.6,0.5
			c0.2,0,0.4,0,0.5,0c0.2-0.3,0.4-0.5,0.5-0.8C352.5,356.8,352.3,356.5,352,356.5z M406.1,292.4c-0.3-0.3-0.6-0.5-0.9-0.5
			c-0.1,0-0.2-0.1-0.4-0.1c-0.2,0.2-0.3,0.4-0.5,0.6c0,0.1-0.1,0.3,0,0.4c-0.1,0.1-0.1,0.1-0.2,0.2c0.6,0.5,1.2,1.1,1.8,1.2
			C406.5,293.3,406.2,293,406.1,292.4z M401.8,300.6c0,0.1-0.2,0.5-0.2,0.6c0,0.6,0.5,0.8,1.1,1.2c0.2-0.3,0.6-0.6,0.6-0.9
			c0.1-0.4-0.2-0.8-0.5-1.2c0.4-0.4,0.7-0.5,1.2-0.8c0-0.2,0-0.3,0-0.4c-0.1-0.2-0.2-0.4-0.2-0.5c-0.7-0.5-0.7-0.2-1.3-0.2
			c-0.2,0.2-0.3,0.4-0.5,0.6c-0.4-0.3-0.4-0.2-0.4-0.7c-0.7-0.6-0.8-0.5-1.4-0.5c-0.3,0.5-0.3,0.5-0.4,0.9
			C399.9,298.7,401.8,300.6,401.8,300.6z M361.1,348c0-0.3-0.1-0.1,0-0.4c-0.1-0.2-0.3-0.3-0.4-0.5c-0.3,0-0.4-0.1-0.8,0.2
			c0,0.4-0.3,0.9-0.3,1.2c0.5,0.3,0.5,0.3,0.9,0.1C360.8,348.4,360.9,348.2,361.1,348z M368.4,338.6c-0.2-0.2-0.3-0.2-0.5-0.2
			c-0.4,0.2-0.6,0.4-1,0.8c0,0.2,0,0.3,0,0.4c0.3,0.2,0.5,0.4,0.8,0.5c0.2-0.1,0.1-0.1,0.3-0.1C368.5,339.3,368.5,339.2,368.4,338.6
			z M364.6,344.8c-0.2-0.3-0.2-0.3-0.5-0.4c-0.3-0.1-0.5,0-0.8,0.2c0,0.2-0.2,0.5-0.2,0.6c0,0.1,0.1,0.3,0.1,0.4
			c0.4,0.1,0.5,0.1,0.9,0.1C364.5,345.3,364.4,345.2,364.6,344.8z M405,297c0.4-0.1,0.8-0.3,1.2-0.8c-0.5-0.5-0.6-0.8-1.2-1.3
			c-0.3,0.3-0.2,0.2-0.5,0.2c-0.7,0.9,0,1.1,0.3,1.8C404.9,297,404.8,297,405,297z M396.2,307.7c0.2-0.1,0.1-0.1,0.3-0.1
			c0.6-0.7,0.4-0.8,0.3-1.4c-0.4-0.2-0.5-0.1-0.8-0.2c-0.2,0.2-0.4,0.4-0.7,0.6c0.1,0.3,0.1,0.2,0,0.5
			C395.6,307.4,395.9,307.6,396.2,307.7z M409.4,293.5c0.2-0.2,0.2-0.3,0.2-0.5c0-0.1,0.1-0.2,0.1-0.4c-0.4-0.4-0.7-0.6-1.1-0.6
			c-0.3,0-0.4,0-0.7,0.2c0,0.2,0,0.6,0,0.8C408.6,293.6,408.7,293.3,409.4,293.5z M369.6,341.4c0.2-0.2,0.2-0.2,0.3-0.2
			c0.5-0.6,0.4-0.7,0.5-1.2c-0.3-0.2-0.6-0.4-0.9-0.5c-0.2,0.1-0.4,0.2-0.6,0.1c-0.1,0.2-0.3,0.3-0.4,0.5
			C368.9,340.5,368.9,340.8,369.6,341.4z M354.2,358.3c-0.2,0-0.1,0-0.3,0.2c0,0.3-0.1,0.6-0.3,0.9c0.6,0.5,0.6,0.4,1.1,0.4
			c0.2-0.3,0.4-0.6,0.6-0.9c-0.1-0.2-0.1-0.1-0.1-0.3C354.7,358.3,354.6,358.3,354.2,358.3z M364.8,346.2c-0.4-0.1-0.5,0-0.8,0.3
			c0,0.2-0.1,0.4,0,0.6c0,0.1,0.2,0.3,0.3,0.6c0.2,0.2,0.3,0.2,0.5,0.2c0.2-0.1,0.1-0.1,0.3-0.1c0.4-0.5,0.4-0.6,0.5-1
			C365.3,346.5,365.1,346.2,364.8,346.2z M344.9,370.3c0.3,0.3,0.7,0.5,0.9,0.6c0.2-0.4,0.2-0.5,0.3-0.9c-0.3-0.2-0.5-0.4-0.8-0.6
			C345,369.8,345,369.9,344.9,370.3z M400.2,304.7c-0.1,0.1-0.1,0.1-0.2,0.2c0.6,0.5,0.7,0.3,1.2,0.5c0.2-0.2,0.2-0.2,0.3-0.2
			c0.2-0.3,0.3-0.4,0.4-0.7c-0.3-0.2-0.7-0.5-1-0.7C400.6,304.1,400.2,304.3,400.2,304.7z M398.7,308.8c0.2,0.2,0.3,0.2,0.5,0.2
			c0.2-0.1,0.1-0.1,0.3-0.1c0.8-0.9,0.3-1.1,0.4-1.9c-0.3-0.2-0.4-0.3-0.6-0.3c-0.1,0-0.2-0.1-0.4-0.1l-0.5,0.6
			c0,0.3-0.1,0.8-0.2,1.2C398.5,308.6,398.6,308.7,398.7,308.8z M404.3,303.3c0.2-0.4,0.2-0.4,0-0.8c-0.1-0.2-0.4-0.5-0.7-0.7
			c-0.2,0.2-0.2,0.3-0.4,0.3c-0.9,1.1-0.3,1.3,0.5,1.7C404,303.5,404.1,303.3,404.3,303.3z M360.8,353.7c0,0.3,0.1,0.9,0,1.2
			c0.2,0.2,0.3,0.2,0.5,0.2c0.2-0.2,0.3-0.3,0.5-0.4c0.4-0.5,0.4-0.6,0.5-1c-0.5-0.3-0.6-0.3-1-0.4
			C361.1,353.4,360.9,353.6,360.8,353.7z M408.5,298.6C408.5,298.6,408.6,298.7,408.5,298.6c-0.5,0.7-0.5,1-0.7,1.6
			c0.8,0.6,1,0.1,1.7,0.3c0.6-0.6,0.7-0.7,0.8-1.3c-0.3-0.3-0.6-0.5-0.8-0.5c-0.1-0.1-0.1-0.1-0.2-0.2c0.3-0.3,0.7-0.8,0.7-0.9
			c0.3-0.4,0.2-0.4,0.3-0.7c-0.3-0.2-0.6-0.5-0.9-0.7c-0.4,0.4-1,1.1-1.5,1.2c-0.2,0.3-0.4,0.4-0.4,0.7c0,0.1,0.1,0.3,0.1,0.4
			C408.1,298.6,408.2,298.7,408.5,298.6z M370.5,343.4c-0.5-0.1-0.7,0.2-1,0.5c0,0.4,0,1.3,0.8,1.3c0.1,0,0.2,0.1,0.4,0.1
			C371.3,344.7,371.6,343.5,370.5,343.4z M410.7,312.4c-0.2,0.1-0.2-0.8-0.8-1c-0.2-0.1-0.6,0-0.8,0c-0.4,0.5-0.6,0.7-0.4,1.1
			c0,0-0.1,0.1-0.1,0.1c-0.1-0.1-0.2-0.2-0.3-0.2c0.2-0.5,0.3-1.2,0.8-1.4c0.7-0.8,0.5-0.8,0.4-1.5c-0.5-0.3-0.6-0.3-1-0.4
			c-0.4,0.5-0.6,1.2-0.9,1.3c-0.4,0.3-0.3,0.2-0.7,0.4c-0.7-0.9-1.8-1.7-3.1-2.4c-1.4-0.8-0.5-1.6-2.1-1.9c-0.6,0.7-0.5,0.9-0.2,1.4
			c-0.8,0.8-1.9,0.8-2.8,1.4c-0.5,0.3-0.8,0.9-1.2,1.1c-0.8,0.9-0.4,1.1-0.5,1.8c-0.2,0.3-0.5,0.7-0.7,1c0,0.1,0.2,0.4,0.2,0.5
			c0.1,2.4,0.4,4,3.1,5.2c0.8,0.4,1.3,0.9,2.1,1c1.5,0.2,4.3-1.4,5.6-2.3c1.1-0.7,1.4-4,1.2-4.7c0.7,0,1.2,0.4,1.9-0.1
			c0.1,0.2,0.2,0.4,0.2,0.5c0.7,0.6,0.9,0.3,1.5,0.4c0.3-0.4,0.1-0.4,0.4-0.8c-0.4-0.3-0.8-0.6-1.2-1
			C411,312.4,410.9,312.4,410.7,312.4z M406.8,314.4c-0.1,1.4-0.8,1.7-1.7,2.3c-0.2,0.2-0.4,0.4-0.6,0.7c-1.7,1-3.7,0.8-5.7-1
			c-0.1-1.1-0.9-1.9-0.4-3.1c0-0.3,0.3-0.6,0.3-0.9c0.4-0.3,0.8-1,1.1-1.3c0.3-0.4,2.5-0.9,3-1.1
			C404.3,310.8,406.9,312.4,406.8,314.4z M413.8,292c0.4,0.2,0.3,0.1,0.6,0.2c0.2-0.2,0.7-0.6,0.7-0.7c0.1-0.2,0.1-0.2,0.1-0.4
			c-0.1-0.3-0.2-0.5-0.4-0.5c-0.2-0.2-0.3-0.2-0.5-0.2c-0.3,0.1-0.6,0.3-0.9,0.7c0,0.3,0.1,0.2,0,0.4
			C413.7,291.8,413.8,291.8,413.8,292z M369.7,348.3c-0.4-0.3-0.7-0.5-1-0.5c-0.2,0.1-0.2,0.2-0.5,0.4c0,0.4,0.1,0.7,0.1,1.1
			c0.2,0.1,0.4,0.2,0.6,0.3c0.1,0,0.1,0,0.2,0c0.2-0.2,0.3-0.3,0.5-0.4C369.8,348.6,369.6,348.7,369.7,348.3z M404.8,305.6
			c-0.5-0.3-0.6-0.1-1-0.2c-0.4,0.5-0.3,0.6-0.4,1c0.8,0.6,1.2,0.4,1.3,1.1l0.6,0.5c0.1,0,2.4-1.2,2.5-1.3c-0.3-0.3-0.3-0.3-0.3-0.6
			c-1-0.9-1.4-0.5-2.2,0.1C405.1,306,404.9,305.7,404.8,305.6z M414.6,293.4c-0.1,0.1-0.1,0.1-0.2,0.2c0.8,0.6,1,0.3,1.7,0.6
			c0.5-0.4,0.6-0.4,1.1-1.1c-0.4-0.4-0.5-0.4-1-0.8c-0.4,0.2-0.8,0.3-1.2,0.3C414.8,293,414.6,293.2,414.6,293.4z M412.5,296.9
			c0.7,0.6,0.8,0.3,1.4,0.3c0.3-0.5,0.2-0.7,0.3-1.2c-0.2-0.2-0.3-0.2-0.5-0.2c-0.4-0.3-0.4-0.2-0.7-0.3c-0.2,0.2-0.4,0.4-0.7,0.6
			c0,0.3,0.1,0.2,0,0.4C412.5,296.8,412.5,296.8,412.5,296.9z M412.1,300.1c0.2-0.3,0.4-0.6,0.6-0.9c-0.2-0.2-0.2-0.2-0.2-0.3
			c-0.3-0.3-0.6-0.4-0.9-0.5c-0.2,0.1-0.1,0.1-0.3,0.1c-0.2,0.2-0.4,0.4-0.6,0.7c0.2,0.2,0.2,0.3,0.2,0.5
			C411.6,300,411.7,300,412.1,300.1z M408.9,302.7c-0.1,0-0.1,0-0.2,0c-0.2,0.2-0.4,0.4-0.7,0.6c0.2,0.4,0.6,0.9,1.2,1.1
			C409.9,303.5,409.7,303.2,408.9,302.7z M416.4,296.6c0.3-0.2,0.5-0.4,0.8-0.8c-0.4-0.5-0.3-0.5-0.9-0.9c-0.4,0.3-0.7,0.3-0.8,0.8
			c-0.1,0.3,0,0.2,0,0.4C415.9,296.4,416,296.4,416.4,296.6z M406.4,307.8c-0.2,0.3-0.5,0.6-0.7,0.9c0.1,0.4,0,0.7,0.5,0.8
			c0.5,0.3,0.4,0.2,0.8,0.2c0.2-0.3,0.4-0.7,0.5-1c-0.2-0.3-0.4-0.6-0.8-0.6C406.7,307.9,406.5,307.8,406.4,307.8z M415.5,305.7
			c0.1-0.3,0.1-0.3,0.1-0.5c-1-0.8-0.8-0.2-1.5-0.4c-0.6-0.4-1.2-0.8-1.8-1.2c-0.2-0.1-0.7-0.1-1-0.2c-0.3,0.2-0.7,0.3-0.7,0.7
			c-0.1,0.5,0.3,0.9,0.6,1c0,0.1,0,0.1,0,0.2c0,0,0.1-0.1,0.1-0.1c0.8,0,0.8,0.8,1.9,1.8C413.9,306.4,415.3,306.8,415.5,305.7z
			 M410.1,307.4c0.2-0.1,0.1-0.1,0.3-0.1c0.5-0.6,0.5-0.7,0.4-1.3c-0.5-0.4-0.7-0.5-1.1-0.6c-0.2,0.2-0.4,0.3-0.6,0.5
			c0,0.2,0,0.1-0.1,0.3c0.2,0.2,0.5,0.5,0.5,0.8C409.7,307.1,409.9,307.3,410.1,307.4z M417.2,300.3c0.2-0.3,0.4-0.6,0.5-0.8
			c0-0.1,0-0.1,0-0.2c-0.9-0.6-1.3-0.2-1.9,0.4c0.4,0.4,0.3,0.7,0.9,0.7C416.8,300.3,417,300.3,417.2,300.3z M409.7,318
			c0,0.2,0,0.5-0.1,0.7c0.2,0.1,0.4,0.3,0.7,0.4c0.3-0.2,0.5-0.3,0.6-0.7l0.1-0.4c-0.4-0.3-0.6-0.3-0.9-0.4
			C409.9,317.7,409.8,317.8,409.7,318z M414,312.9c-0.4,0.5-0.4,0.5-0.7,0.9c0.1,0.3,0.2,0.4,0.1,0.7c0.4,0.4,0.7,0.6,1.1,0.6
			c0.1,0,0.2,0,0.3,0.1c0.7-0.8,0.7-0.9,0.9-1.7c-0.3-0.3-0.5-0.4-0.6-0.5C414.5,312.7,414.5,312.9,414,312.9z M417.3,311.6
			c-0.1-0.1-0.1-0.1-0.2-0.2c-0.2,0.3-0.5,0.6-0.7,0.9c0.4,0.4,0.6,0.6,1.1,0.9c0.2-0.2,0.4-0.3,0.6-0.5c-0.1-0.3,0-0.5,0-0.8
			C417.8,311.7,417.6,311.7,417.3,311.6z"/>
	</g>
</g>
</svg>
