<?xml version="1.0" encoding="utf-8"?>
<!-- Generator: Adobe Illustrator 21.0.0, SVG Export Plug-In . SVG Version: 6.00 Build 0)  -->
<svg version="1.1" id="Calque_1" xmlns="http://www.w3.org/2000/svg" xmlns:xlink="http://www.w3.org/1999/xlink" x="0px" y="0px"
	 viewBox="0 0 841.9 595.3" style="enable-background:new 0 0 841.9 595.3;" xml:space="preserve">
<g>
	<g>
		<path d="M317.1,336.4c0.4,0.6,0.5,1.3,0.9,1.9c0.6,1,1.8,1.5,2.7,2.1c0.6,0.4,1.5,1.1,2.7,0.9c0.8-0.2,1.8-0.3,2.7-0.5
			c0.7-0.2,2.4-0.2,3-0.7h0.1c0-0.1-0.1-0.1-0.1-0.2c1,0.5,4.6-0.9,5.3-1.5c0.1-0.1,0.1-0.1,0.1-0.3c0.5-0.1,1.1-0.5,1.4-0.9
			c0.1-0.1,0.1-0.1,0.1-0.3c0.5-0.1,1.5-0.9,1.5-1.2c0.4-0.3,0.8-0.3,1.2-0.6l1-1c0.4-0.2,0.7-0.2,1-0.4c0.3-0.2,0.4-0.6,0.6-0.8
			c0.6-0.5,0.9-0.9,1.4-1.5c0.3-0.5,1-0.8,1.3-1.3c0.2-0.3,0.1-0.4,0.3-0.7c0.6-0.9,2-1.6,2.5-2.6c0.3-0.5,0.3-1,0.5-1.5
			c0.3-0.5,0.8-0.9,1-1.4c0.1-0.3,0-0.6,0.1-0.8c0.3-0.5,0.8-1,1-1.5c0-0.3,0.1-0.7,0.1-1c0.1-0.4,0.4-0.9,0.5-1.4
			c0.1-0.5,0-1-0.1-1.2c-0.1-0.4,0.2-0.7,0.3-0.9c0.1-0.3-0.1-0.8-0.1-1.2c0.2,0,0.4-0.1,0.5-0.2c0.3-0.2,0.4-0.5,0.4-1
			c0.3-0.1,0.4-0.1,0.7-0.2c0-0.2-0.2-0.3-0.2-0.3c-0.1-0.4,0.4-0.6,0.4-0.9c-0.1-0.4-0.1-0.7-0.2-1.1c0.3-1.2,0.4-3.4,0.3-4.6
			c0-0.3,0.3-0.9,0.3-1.3c-0.2-2.5-0.1-5.6,0.3-7.4c0.1-0.7-0.1-1.4,0-1.9c0-0.1,0.2-0.4,0.3-0.4c0-0.2-0.1-0.5-0.1-0.7
			c0.1-0.5,0-1.4,0.1-1.8c0.1,0,0.1-0.1,0.2-0.1c0-0.2-0.2-0.3-0.2-0.4c0-0.1-0.1-0.8,0-0.9l0.3-0.3c0-0.5-0.1-1.1-0.1-1.6
			c0.1-0.6,0.3-1.2,0.3-1.7c0-0.1-0.2-0.4-0.2-0.4c-0.1-0.4,0.2-1.9,0.3-2.1c0-0.6-0.1-1.1-0.1-1.7c0-0.1,0.2-0.3,0.3-0.3
			c-0.1-0.5-0.1-0.9-0.2-1.4c0-0.2,0.3-0.5,0.3-0.7c0-0.2,0-0.8,0-0.9l-0.2-0.1c-0.2-0.6,0.2-1,0.3-1.3c0.1-0.5-0.4-1.4-0.3-1.9
			c0-0.1,0.2-0.3,0.3-0.3c0.1-0.4-0.1-0.7-0.2-0.9c-0.1-0.5-0.1-1.8,0-2.1c0.3-0.8-0.6-2.7,0-3.4c0.2-0.6,0.7-0.2,1-0.3
			c0.1-0.1,0.3-0.3,0.4-0.4c0.2,0,0.3-0.1,0.5-0.1c0.3-0.2,0.5-0.7,0.8-0.9c0.2,0,0.4-0.1,0.6-0.1c0.2-0.1,0.4-0.4,0.6-0.6
			c0.1,0.1,0.8,0,1-0.1c0.6-0.4,1-1,2.1-0.9c0-0.5,1.1-1.3,1.5-1.5v-0.3c0.8-0.2,2-1.5,2.7-2c0.3-0.2,0.7-0.2,0.9-0.4
			c0.1-0.1,0.1-0.4,0.2-0.4h0.4c0.4-0.2,0.9-0.6,1.3-0.9c0.1,0,0.3-0.1,0.4-0.1v-0.2c0.2-0.1,0.6-0.1,0.6-0.1
			c0.1-0.1,0.5-0.6,0.6-0.7c0.2-0.1,0.6-0.2,0.8-0.3c0.1-0.1,0.2-0.4,0.3-0.5c0.2-0.1,0.5,0,0.7-0.2c0.1-0.1,0-0.3,0.1-0.3
			c0.2-0.1,0.3-0.1,0.5-0.2c0.7-0.5,1.5-1.2,2.2-1.6c0.3-0.2,0.5-0.1,0.9-0.3c0.3-0.2,0.6-0.5,0.9-0.7c0.2,0,0.4-0.1,0.6-0.1
			c0.2-0.1,0.3-0.5,0.5-0.6c0.5-0.3,0.9-0.2,1.4-0.5c0.1-0.1,0.2-0.3,0.3-0.4c0.4-0.2,0.9-0.2,1.3-0.5c0.2-0.2,0.3-0.5,0.5-0.6h0.3
			c0.1-0.1,0.2-0.4,0.3-0.5c0.2,0,0.3-0.1,0.5-0.1c0.1-0.1,0.3-0.4,0.4-0.5h0.5c0-0.1,0.1-0.2,0.1-0.3l0.7-0.5
			c0.4-0.2,0.9-0.2,1.3-0.4c0.2-0.1,0.5-0.6,0.7-0.8c0.3-0.2,0.5-0.1,0.8-0.3c0.3-0.2,0.6-0.4,0.9-0.6v-0.3c1.4-0.1,2-1.1,3-1.8
			v-0.5c0.6,0,0.6-0.2,1.1-0.3c0.2-0.6,0.8-0.8,1.3-1.1c0.7-0.5,1.1-1.6,2.3-1.7v-0.3c0.5-0.2,0.8-0.7,1.1-1h0.1
			c0.1,0,0.7-0.1,0.9-0.3c0-0.1,0.1-0.2,0.1-0.3h0.3c0.1-0.1,0.1-0.3,0.3-0.4c0.5-0.4,1-0.7,1.5-1.1c0.1-0.1,0.1-0.2,0.2-0.3h0.3
			c0-0.1,0.1-0.2,0.1-0.3c0.2-0.2,0.5-0.2,0.7-0.3c0.2-0.2,1.4-1.2,1.5-1.4h0.2c-0.1,0.4-0.1,0.8-0.2,1.2c0,0.1,0.2,0.3,0.2,0.5
			c-0.1,0.5-0.4,1-0.2,1.5c0.1,0.2,0.4,0.4,0.4,0.6c0.1,0.3-0.1,0.8-0.1,0.9c-0.1,0.7,0.1,1.6,0.1,2.4c0,0.5-0.1,0.9-0.1,1.1
			c0.1,0.7,0.2,1.6-0.3,1.8c0.1,0.4,0.3,0.5,0.4,0.8c0.2,0.4,0,1,0,1.3c0.1,0.4-0.1,1.3,0.1,2.1l0.2,0.3c0,0.3-0.2,0.8-0.3,0.9
			c-0.1,0.4,0.2,0.9,0.1,1.4c0,0.2-0.3,0.6-0.2,0.9c0.1,0.4,0.5,1,0.5,1.5c0,1-0.1,2.2-0.1,3.5l-0.3,2.8c0.1,0.3,0.4,1.7,0.3,2.1
			c0,0.1-0.3,0.3-0.3,0.4c-0.2,0.6,0.1,1.4,0.1,2c-0.1-0.1-0.1-0.1-0.2-0.3h-0.2c0,0.9,0,1.4,0.2,2.1v1.5c0.2,1,0.4,1.9,0.1,2.7
			c-0.4,0.1-0.7,0.1-1.1,0.2c-0.4,0.2-0.8,0.5-1.1,0.7c-0.9,0.4-1.7,0.6-2.6,0.9c-0.1,0.1-0.2,0.2-0.3,0.3h-0.5
			c-0.7,0.3-1.4,0.9-2,1.3c-0.3,0.1-0.5,0.1-0.8,0.2c-0.3,0.2-0.7,0.5-1,0.7H392c0,0.1-0.1,0.2-0.1,0.3c-0.3,0.2-0.6,0.2-0.9,0.4
			l-0.8,0.8c-0.2,0.1-0.5,0.1-0.7,0.3c-0.2,0.1-0.2,0.4-0.3,0.6c-0.2,0.3-0.6,0.4-0.9,0.6c-0.4,0.3-0.7,1.1-1.2,1.4h-0.6
			c-0.4,0.2-0.6,0.9-0.9,1.2c-0.1,0-0.3,0.1-0.4,0.1c-0.2,0.2-0.2,0.4-0.3,0.7c-0.2,0.3-0.6,0.5-0.9,0.7c-0.7,0.7-1.6,1.7-2.1,2.6
			h-0.3c-0.1,0.7-1.4,1.8-1.9,2.4c-0.3,0.4-0.4,3.3-0.3,3.6c0.3,1.4,1.3,1.9,2.3,2.7c0.3,0.3,0.5,0.6,0.8,0.9
			c0.3,0.2,0.5,0.1,0.8,0.3c0.2,0.2,0.4,0.5,0.7,0.7h0.4c0.1,0.2,0.2,0.3,0.3,0.5h0.4c0.1,0.1,0.2,0.2,0.3,0.3
			c0.4,0.2,0.5-0.2,0.8-0.1c0.2,0,0.6,0.4,0.8,0.4c0.2,0,0.5-0.2,0.6-0.3c0.4-0.1,1.2,0.2,1.8,0c0.3-0.1,0.8-0.4,1-0.5
			c0.2,0,0.4,0.1,0.6,0.1c0.5-0.2,1.2-0.5,1.7-0.6c0.3,0,0.5,0.1,0.8,0.1c0-0.1,0.1-0.2,0.1-0.3c0.1,0.1,1.5-0.3,1.7-0.4
			c0.1-0.2,0-0.1,0-0.3c1.3-0.5,2.3-1.2,3.3-2c0.3-0.2,0.8-0.1,1.2-0.3c0.3-0.2,0.4-0.8,0.8-1c0.1,0,0.3-0.1,0.4-0.1
			c0.1-0.2,0.1-0.3,0.2-0.5c0.3-0.2,0.7-0.1,1-0.3c0.4-0.3,0.9-1,1.2-1.2c0.2-0.1,0.4-0.1,0.6-0.2c0.1-0.1,0.1-0.4,0.3-0.5
			c0.2-0.1,0.5-0.2,0.7-0.3c0.2-0.2,0-0.5,0.1-0.8c0.1-0.3,0.7-0.3,0.9-0.6c0.2-0.2,0-0.5,0.3-0.6c0.2-0.1,0.5-0.1,0.6-0.3V290
			c0.1-0.1,0.4-0.4,0.4-0.5c0-0.2-0.1-0.3-0.1-0.5c0.1-0.5,0.7-0.9,0.9-1.4c0.6-1.3,0.7-3.1,0.9-4.2c0.1-0.4-0.3-0.6,0-1
			c0-0.6,0.5-0.7,0.9-0.8c0-0.3-0.1-0.5-0.1-0.7l0.3-0.3c0.2-0.5-0.2-1.8-0.1-2.1c0.1,0,0.2-0.1,0.3-0.1c0.2-0.4-0.1-0.8,0-1.1
			c0.1-0.3,0.3-0.6,0.3-0.8c0,0-0.1-0.1-0.1-0.1c-0.2-0.6-0.1-2.1,0-2.6c0.2-1.1,0-2.8-0.1-3.4c-0.1-0.5,0.4-1,0.2-1.6
			c-0.1-0.4-0.5-1-0.3-1.5c0.6-1.9,0-4.3,0.3-5.7c0.1-0.6-0.4-0.9-0.3-1.5c0-0.1,0.3-0.4,0.3-0.6c-0.1-0.5-0.2-0.9-0.3-1.4
			c0.5-2-0.2-4.3-0.4-6.2c0.1-0.5,0.1-1.1,0.2-1.6c-0.1-1.8-0.1-4.1-0.3-5.6c-0.1-0.3,0.1-0.4,0.2-0.6c0.3-1-0.2-1.7,0-2.6
			c0.1-0.4,0.4-2.1,0.3-2.6c-0.1-0.3-0.3-1.4-0.1-2c0-0.2,0.2-0.3,0.2-0.6c-0.2-1.2-0.1-2.7,0.1-3.9c0.1-0.5-0.4-0.9-0.3-1.5
			c0.3-1.2,0.2-2.6,0.1-3.6c0-0.1,0.1-0.7,0.2-0.8c0-0.4-0.1-0.8-0.1-1.2c0.1-0.5,0.3-1.5,0.3-1.8c0.1-0.4-0.2-1-0.1-1.5
			c0-0.3,0.2-0.5,0.2-0.9c-0.2-1.1,0.1-2.5,0-3.8c-0.1-0.6-0.2-1.5-0.1-2.4c0-0.2,0.2-0.4,0.1-0.8c-0.1-0.3-0.2-1.2-0.2-1.5
			c0.1-0.5,0.2-1.2,0.3-1.6c0-0.2-0.1-0.4-0.1-0.6c-0.1-0.7,0-2.6,0.2-2.9c0-0.2-0.2-0.7-0.1-1c0.2-0.6,0.3-2.3,0.2-2.9
			c-0.1-0.5-0.6-0.9-0.8-1.4c-0.1,0-0.3-0.1-0.3-0.2c-0.4,0-0.3,0-0.4,0.3c-0.4-0.1-0.7-0.6-1.1-0.4c-0.5,0-0.6,0.1-0.7,0.4
			c-0.3,0-0.5-0.1-0.6-0.2c-0.3,0.1-0.7,0.1-1,0.2c-0.4,0.4-0.9,0.6-1.1,1.3c-0.4,0-0.4-0.1-0.6-0.3c-1,0.1-0.7,0.9-1,1.5l-0.5,0.7
			c-0.2,0.2-0.6,0.1-0.9,0.3c-0.2,0.2-0.4,0.6-0.6,0.8c-0.4,0.4-1,0.5-1.5,0.9c-0.3,0.2-0.7,1-0.9,1.2c-0.1,0-0.3,0.1-0.4,0.1
			c-0.9,0.6-1.8,1.8-2.7,2.4c-0.1,0-0.3,0.1-0.4,0.1c-0.1,0.1-0.1,0.3-0.2,0.3c-0.5,0.5-1,0.9-1.5,1.5c-0.3,0.4-0.9,0.5-1.3,0.8
			c-0.3,0.2-0.4,0.6-0.6,0.8c-2.4,2-5,3.8-7.4,5.7c-0.3,0.3-0.8,0.3-1.1,0.6c-0.1,0.1-0.2,0.4-0.3,0.5c-0.7,0.5-1.4,0.9-2.1,1.4
			l-0.8,0.8c-0.4,0.2-0.7,0.3-1.1,0.5c-0.6,0.3-1.1,0.9-1.7,1.3c-0.3,0.1-0.7,0.2-1,0.3c-0.1,0.2-0.3,0.4-0.4,0.6
			c-0.5,0.4-1.3,0.5-1.8,0.9c-0.2,0.1-0.3,0.5-0.5,0.6c-0.5,0.3-1.1,0.3-1.5,0.6c-1.6,1-3.2,2.1-4.9,3.1c-0.4,0.2-0.8,0.1-1.2,0.3
			c-0.3,0.2-0.7,0.5-0.9,0.7c-0.9,0.5-1.9,0.7-2.6,1.5c-0.1-0.1-0.7,0.1-0.9,0.3c-0.2,0.1-1.8,1.1-2.1,1c-0.5-0.1-2,1-2.6,1.2
			c-2.1,0.8-3.9,1.7-5.7,2.7c-0.5,0.3-1.4,0.4-1.8,0.7c-0.2,0.1-0.1,0.4-0.3,0.6c-0.1,0.1-0.3,0.2-0.4,0.3c-0.3-0.1-0.4-0.2-0.6-0.4
			c-0.3,0-0.3,0.1-0.5,0.2c0,0.6-0.5,2.1-0.3,2.5c-0.1,0.3-0.5,0.4-0.7,0.8c-0.2,0.4,0.2,0.8,0.1,1.5c0,0.2-0.2,0.7-0.3,0.9v1.3
			c-0.1,0.1-0.3,0.3-0.4,0.4c-0.1,0.2,0.2,1,0.3,1.1v0.4c-0.1,0-0.3,0.1-0.4,0.1c0,0.4,0.1,0.4,0.4,0.5c-0.1,0.1-0.1,0.1-0.3,0.2
			c0.2,0.8,0.4,1.7-0.1,2.3c-0.1,0.2,0,0.1-0.3,0.2c0,0.3,0,0.6-0.1,0.8c0,0.1,0.1,0.2,0.1,0.3c0.3-0.1,0.2-0.1,0.3-0.2
			c0,0.2,0.1,0.2,0,0.4c-0.1,0.3-0.4,0.2-0.5,0.5c-0.1,0.1,0,0.5,0.1,0.7c0.1,0.1,0.1,0.1,0.3,0.1v0.3h-0.2c0,0.2,0.1,0.3,0.1,0.5
			c-0.1,0.1-0.4,0.1-0.4,0.3c0,0.2,0.1,0.3,0.1,0.5h-0.2v0.6c-0.2,0.6-0.2,1.6-0.3,2.2v1.6c-0.4,1.7,0,4-0.2,5.8
			c0,0.6-0.3,1.9-0.2,2.6c0.1,0.6,0.6,2.4,0.4,3c-0.3,1.1,0.1,2.4,0.1,3.3c0,0.4-0.2,1.2-0.1,1.7c0.1,0.4,0.3,2,0.2,2.4
			c-0.4,1.2-0.3,2.4-0.4,3.9c0,0.2,0.1,0.4,0.1,0.6c-0.1,0.6-0.2,1-0.2,1.8c0,0.3,0.1,0.5,0.1,0.7c0,0.2-0.3,1-0.3,1.3
			c0,0.3,0.3,0.8,0.2,1.3c-0.5,1.8-0.3,4.9-0.7,6.8c-0.2,0.8-0.1,1.9-0.1,2.6c0,0.3-0.1,0.6-0.1,0.9c0.1,0.2,0.4,0.2,0.3,0.7
			c-0.6,2.6-0.4,6.2-0.7,9c-0.1,0.5,0.1,0.9,0.2,1.2c0.1,0.6-0.2,2.1-0.4,2.7c-1.1,0.4-2.1,0.7-3.3,1.1c-0.8,0.3-1.7,1.1-2.7,1.4
			c-0.1,0-0.3-0.1-0.6,0c-0.6,0.2-1.5,0.5-2.1,0.9c-1,0.5-2.1,1.3-3.3,1.8c-0.8,0.3-1.8,0.3-2.6,0.7l-0.5,0.5
			c-0.5,0.2-0.9,0-1.3,0.3c-0.9,0.4-1.5,1.2-2.3,1.7c-0.2,0.1-0.4,0.1-0.6,0.2c-0.5,0.3-1,0.8-1.5,1.2c-0.5,0.4-1.2,0.7-1.6,1.1
			c-0.4,0.4-0.8,1-1.3,1.4c-0.3,0.3-0.8,0.5-1.1,0.9c-0.2,0.3-0.3,0.6-0.5,0.9c-0.4,0.4-0.7,0.7-1.1,1.1c-0.2,0.3-0.4,0.8-0.3,1
			c0,0,0.1,0.1,0.1,0.3c-0.1,0.1-0.5,0.6-0.6,0.8c-0.1,0.2,0.1,0.7,0,1.2C315.6,333.6,316.4,335.2,317.1,336.4z M357,268.2h-0.3
			v-0.1c0.2-0.1,0.1,0,0.3-0.2c0.1,0.1,0.1,0,0.2,0.1C357.1,268.1,357,268.1,357,268.2z M367.9,260.4h0.3
			C368,260.5,368.1,260.5,367.9,260.4z M400,296.1c0-0.1,0.1-0.1,0.1-0.2C400.1,296,400.2,296,400,296.1z M403.5,283.7
			c0,0.1,0.1,0.2,0.1,0.3h0.3c0.3,0.1,1.2,0.6,1.3,0.7c0.1,0.1-0.2,0.4-0.1,0.8c0.1,0.3,0.4,0.5,0.3,0.9c-0.1,0.3-0.3,0.7-0.3,0.9
			c0.3,1.2-0.3,1.7-0.7,2.5c-0.2,0.4-0.2,0.8-0.5,1.2c-0.3,0.4-0.7,0.4-0.8,1h-0.3c0,0.1-0.1,0.3-0.1,0.4c-0.8,0.1-1.1,0.9-1.7,1.3
			c-1.5,1-4,1.9-4.9,3.1c-0.1-0.1-0.1-0.1-0.1-0.3c-0.1,0-0.4,0-0.5,0.1c-0.1,0.1-0.2,0.4-0.3,0.4c-0.2,0-0.3-0.1-0.5-0.1
			c-0.2,0-0.4,0.3-0.6,0.3h-0.5c-0.1,0.1-0.2,0.3-0.3,0.3c-0.5-0.4-2.9,0.7-3.5,0.9c-0.3,0.1-0.9-0.1-1.1-0.1
			c-1.5,0.3-3.5,0-4.5-0.6c-1.2-0.7-1.7-1.8-2.1-3.3c-0.1-0.2,0.2-0.5,0.2-0.6c0-1.1,0.5-2.1,1-2.9c0.2-0.2,0.4-0.3,0.6-0.5
			c0.5-0.8,1.6-1.8,2.5-2.5c0.2-0.2,0.2-0.7,0.5-0.9h0.3c0.7-0.5,1.3-1.4,2-1.9c0.2-0.1,0.3-0.1,0.5-0.2c0.2-0.2,0.5-0.5,0.7-0.7
			c0.2-0.1,0.5,0,0.7-0.2c0.1-0.1,0.2-0.3,0.3-0.4c0.4-0.3,0.9-0.4,1.3-0.7c0-0.1,0.1-0.2,0.1-0.3c0.5-0.3,1-0.1,1.5-0.3
			c0.4-0.2,1.1-0.6,1.5-0.8l2.6-0.3c0.2,0.1,0.6,0.2,0.7,0.3h0.2v-0.3c1.4,0.1,2.1,0.6,3.3,1.1c0,0.2-0.1,0.3-0.2,0.4v0.1
			c0.3-0.1,0.1,0,0.3-0.2C402.8,283,403.2,283.4,403.5,283.7z M353.6,257.8c0.2-1.4,0.1-3,0.3-4.2c0.4-1.7,0.1-3.1,0.3-4.3
			c0-0.3-0.1-0.6-0.1-0.9c0.1-0.3,0.2-1,0.3-1.3c0-0.2-0.1-0.4-0.1-0.6c0.3-1.2,0.4-2.7,0.6-3.5c0.1-0.6,0.1-1.7,0.3-2.1
			c0.1-0.9,0.7-0.8,1.3-1.1c0.7-0.4,1.5-1,2.1-1.5c0.3-0.2,0.5-0.1,0.8-0.3c1.6-1,3.2-2.1,4.9-3c0.3-0.1,0.6-0.6,0.9-0.7
			c2.3-1.1,4.3-2.1,6.2-3.6c0.3-0.2,0.7-0.2,0.9-0.4c0.1-0.1,0.1-0.1,0.1-0.3c1.5-0.2,3.4-2.1,4.4-2.9c0.5-0.4,1.2-0.4,1.7-0.8
			c0.1-0.1,0.1-0.3,0.3-0.3h0.3c0.2-0.1,0.3-0.5,0.5-0.6c1.4-0.9,2.7-1.7,3.9-2.7c0.1-0.1,0.2-0.3,0.3-0.4c1-0.7,1.9-1.3,3-1.9
			c0.2-0.1,0.2-0.4,0.3-0.5c0.4-0.3,1-0.7,1.5-0.9V219h0.3c0.2-0.4,0.4-0.3,0.7-0.5c0.6-0.4,1.4-1.5,2-1.9c0.2,0,0.4-0.1,0.6-0.1
			c0.2-0.1,0.3-0.5,0.5-0.7c0.6-0.6,1.2-1,1.9-1.5c0.3-0.2,0.4-0.7,0.7-0.9c0.6-0.4,1-0.9,1.5-1.4c0.3-0.2,0.7-0.3,0.9-0.5
			c0.3-0.2,0.4-0.7,0.7-0.9c0.7-0.5,1.3-0.8,1.9-1.3c0.2-0.2,0.4-0.6,0.6-0.8c0.3-0.2,0.7-0.3,0.9-0.5c0.4-0.3,0.4-0.7,0.9-0.9
			c0,0,0.1-0.1,0.1-0.1l0.3,0.3c0,1.8-0.4,2.9-0.7,4.4c-0.1,0.6,0.2,1,0.3,1.5c0.3,0.9-0.3,1.6-0.4,2c-0.2,0.7,0.4,1.1,0.3,1.5
			c0,0.5,0.2,1.5,0,2.2c0,0.1-0.1,0.4-0.1,0.6c0.1,0.3,0.2,0.9,0,1.5c-0.1,0.1-0.3,0.3-0.4,0.4v1.8c0,0.1,0.3,0.3,0.3,0.5
			c0,0.5-0.1,1.1-0.1,1.6c0.2,0.9-0.1,2.4-0.3,3.5c0,0.3,0.1,0.6,0.1,0.9c0,0.1-0.3,0.1-0.3,0.2c-0.1,0.3,0.3,0.7,0.3,0.9
			c-0.3,1.7,0.3,2.6-0.4,3.9c-0.2,0.3,0.2,0.9-0.1,1.2c-0.1,0.1-0.3,0-0.3,0.1v0.4c-0.1,0-0.2,0.1-0.3,0.1c-0.2,0.2-0.3,0.5-0.5,0.7
			c-0.3,0.2-0.6,0.1-0.9,0.3c0,0.1-0.1,0.2-0.1,0.3c-0.3,0.3-0.7,0.6-1,0.9c-0.4,0.3-0.8,0.3-1.2,0.6c-0.2,0.3-0.4,0.5-0.6,0.8
			c-0.5,0.3-1.1,0.5-1.6,0.9c-0.1,0.2-0.2,0.4-0.3,0.6c-0.6,0.5-1.3,0.7-2,1.2c-0.1,0.1-0.2,0.3-0.3,0.4c-0.3,0.2-0.5,0.2-0.8,0.4
			c-0.2,0.1-0.2,0.4-0.3,0.5h-0.3c-0.3,0.2-0.6,0.6-0.9,0.9c-0.2,0-0.3,0.1-0.5,0.1c-0.2,0.1-0.4,0.4-0.6,0.6
			c-0.2,0.1-0.4,0.1-0.6,0.3c-0.4,0.3-0.8,0.7-1.2,1c-0.2,0.1-0.5,0.2-0.7,0.3c-0.3,0.2-0.7,0.7-1,0.9c-1.6,0.9-3.1,1.6-4.5,2.7
			c-0.2,0.1-0.4,0.1-0.6,0.2c-0.2,0.1-0.2,0.4-0.3,0.5c-0.2,0.1-0.5,0-0.7,0.2c-1,0.6-2.8,2.2-4,2.2v0.3c-0.4,0.1-0.5,0.3-0.8,0.4
			c-0.4,0.2-0.9,0.2-1.4,0.4c-0.4,0.2-0.9,0.6-1.3,0.8h-0.4c-0.3,0.1-0.6,0.5-0.9,0.6c-0.5,0.2-0.9,0.2-1.4,0.4
			c-0.4,0.2-0.7,0.6-1.1,0.8c-0.4,0.2-0.7,0.1-1,0.3c-0.1,0.1-0.1,0.3-0.2,0.3c-0.2,0.2-0.5,0.1-0.8,0.3v0.2
			c-0.1,0.1-0.5,0.4-0.6,0.4c-0.1,0-0.3,0.1-0.4,0.1c0,0.1-0.1,0.2-0.1,0.3c-0.2,0.1-0.4,0.1-0.6,0.3c0,0.1-0.1,0.2-0.1,0.3
			c-0.4,0.3-0.9,0.3-1.3,0.6c-0.4,0.2-0.8,0.6-1.2,0.8c-0.5,0.2-0.9,0.1-1.4,0.3c-0.2,0.1-0.3,0.5-0.5,0.6c-0.1,0-0.3,0.1-0.4,0.1
			c-0.3,0.2-0.7,0.6-1,0.8c-0.4,0.1-0.6,0.1-0.9,0.3c-0.2,0.1-0.4,0.5-0.7,0.6c-0.6,0.3-1.5,0.3-2,0.5c-0.2,0.1-0.2,0.2-0.3,0.5
			c-0.5,0-0.9,0.1-1.2,0.3c-0.2-0.1-0.2-0.1-0.3-0.2C353.2,262.8,353.2,260.3,353.6,257.8z M323.7,339.5c-0.2,0-0.4,0.1-0.8,0.1
			v-0.3C323.2,339.4,323.5,339.4,323.7,339.5L323.7,339.5z M324.7,339.5C324.7,339.5,324.7,339.6,324.7,339.5
			c-0.4,0.1-0.6,0.1-0.8-0.1L324.7,339.5L324.7,339.5z M341.6,315.9c0.1,0,0.2,0.1,0.3,0.1c-0.1,0.1,0,0.1-0.1,0.2
			c-0.4,0.2-1,0.2-1.4,0.2C340.8,316.1,341.3,316.1,341.6,315.9z M319,333.8c0.1-0.3-0.1-0.8,0-1c0.1-0.1,0.3-0.3,0.4-0.4
			c0.1-0.4,0.1-1.1,0.4-1.5c0.2-0.1,0.4-0.2,0.6-0.3c0.3-0.4,0.3-1.1,0.6-1.5c0.2-0.1,0.4-0.2,0.6-0.3c0.4-0.5,0.6-1,1-1.5
			c0.1-0.1,0.3,0,0.4-0.2v-0.3c0.1-0.1,0.3-0.2,0.4-0.3c0.4-0.3,0.7-0.8,0.9-1.2h0.3c0-0.2,0-0.2,0.1-0.3c0.2-0.5,0.9-0.7,1.3-1
			c0.2-0.2,0.3-0.7,0.4-0.9c0.3-0.4,1-0.4,1.5-0.7c0.5-0.3,1.1-0.8,1.6-1.1c0.8-0.4,1.5-0.4,2.4-0.7c1.5-0.6,3.4-1.1,5-1.6
			c0.7-0.2,1.6-0.2,2.3-0.3c0.4,0.1,0.8,0.1,1.2,0.2c0.3-0.1,1-0.5,1.2-0.6h0.9c1.3-0.3,3.2-0.4,4.5,0c0,1.2-0.5,3.6-1,4.7
			c-0.2,0.4-0.7,0.7-0.9,1c-0.3,0.6-0.3,1.2-0.7,1.9c-0.4,0.8-1.2,1.2-1.6,1.9c-0.2,0.3-0.5,0.7-0.7,1v0.3c0,0.1-0.3,0.1-0.3,0.2
			c-0.5,0.7-0.7,0.6-1.3,1.1c-0.3,0.3-0.9,0.8-1.1,1.1c-0.1,0.1,0,0.3-0.1,0.3c-0.2,0.1-0.3,0.1-0.5,0.2c-0.2,0.2-0.3,0.4-0.5,0.6
			c-0.5,0.4-1.1,0.5-1.6,0.9c-0.3,0.2-0.6,0.6-0.9,0.8c-1.1,0.6-2.5,0.6-3.8,1.1c-0.3,0.1-0.6,0.3-0.9,0.5c-1.3,0.6-2.6,1.1-4.2,1.4
			c-0.6,0-1.1-0.1-1.7-0.1c-0.4,0.1-0.9,0.2-1.2,0.1c-1.5-0.3-3,0.2-3.8-0.7c-1.2,0-0.7-0.4-1.5-0.7
			C318.7,334.9,318.8,334.4,319,333.8z M533.2,320.9c-0.2-1.1,0.2-3-0.1-4.2c0-0.2,0.1-0.4,0.1-0.6c-0.1-0.7-0.1-1.5-0.2-2.2
			c-0.2-0.7-0.7-1.8-1.1-2.4c-0.1-0.2-0.4-0.2-0.5-0.4c-0.3-0.5-0.3-1.1-0.7-1.5c-0.1-0.1-0.3-0.1-0.4-0.3c-0.3-0.5-0.5-1.1-0.9-1.5
			c-0.1-0.1-0.3-0.1-0.4-0.3c-0.1-0.2-0.1-0.7-0.2-0.8c-0.3-0.5-1.3-1.3-1.8-1.6c0-0.1-0.1-0.2-0.1-0.3c-0.2-0.2-0.5-0.1-0.7-0.3
			c-0.1-0.1-0.2-0.2-0.3-0.3c-0.4-0.2-0.7-0.1-1.3-0.3c-1-0.3-2.3-0.9-3.3-1.2h-0.9c-1.8-0.8-5.4-1.3-7.1-0.8
			c-1.1,0.3-2.4-0.1-3.3,0.2c-0.9,0.3-1.8,0.8-2.7,1.1c-0.5,0.1-1,0.2-1.5,0.3c-0.3,0.2-0.7,0.5-1,0.7c-0.4,0.2-0.8,0.2-1.1,0.4
			c-0.1,0.1-0.2,0.2-0.3,0.3c-0.4,0.2-0.8,0.1-1.1,0.3c-0.4,0.3-1.2,1.3-1.5,1.8c-0.1,0-0.3,0.1-0.4,0.1v0.3
			c-0.6,0.5-1.2,1.7-2.1,1.9c0,0.3,0,1.1,0,1.2c-0.1,0.2-0.5,0.3-0.6,0.5c-0.6,1.2-0.8,2.6-1.1,4c0,0.3,0.1,0.6,0.1,0.9
			c0,0.2-0.1,0.6-0.1,0.9c0.4,1.8,0.4,3.7,1.3,5l0.3,0.2c0.3,0.3,0.3,0.5,0.5,0.9c0.1,0.2,0.5,0.3,0.6,0.4c0.4,0.6,0.4,1.5,0.9,2.1
			c0.2,0.3,2.2,1,2.7,1.3c0.3,0.2,0.8,0.8,1.1,0.9c0.4,0.3,1,0.1,1.5,0.3c0.1,0,0.2,0.3,0.3,0.3c0.2,0,0.3-0.1,0.5-0.1
			c1.2,0.2,2.8,0.5,4,0c0.2-0.1,0.4-0.4,0.6-0.4c0.6-0.2,1.1,0.1,1.5-0.1h0.2v-0.3c0.6-0.1,0.6-0.4,0.9-0.5c0.6-0.2,0.8,0.2,1.3-0.1
			c0.1-0.1,0.1-0.3,0.2-0.3c0.3-0.1,0.7-0.2,1-0.3c0,0,1.4-1.2,1.4-1.2c0.1-0.2,0-0.4,0.2-0.6c0.1-0.1,0.3-0.1,0.3-0.2
			c0-0.2,0.1-0.3,0.1-0.5l0.3-0.3v-1.2c0-0.2,0.3-0.4,0.2-0.7c-0.1-0.3-0.4-0.6-0.5-0.9c-0.2-0.6,0.2-1,0-1.5
			c-0.3-1-1.2-1.1-1.5-1.7c-0.2-0.3-0.2-0.5-0.4-0.8c-1-0.4-4-0.4-5.5-0.1c-0.6,0.1-1.2,0-1.6,0.3c-0.3,0.1-0.3,0.4-0.5,0.6
			c0,1,0.9,1.4,2,1.3c0.1,0,0.3-0.1,0.5-0.1c0.2,0,0.8,0.2,1.1,0.1c0.2-0.1,0.6-0.3,1-0.2c0.1,0,1.1,0.4,1.3,0.5
			c0.4,0.5,0.6,2.8,0.3,3.5c-0.1,0.2-0.4,0.4-0.5,0.7c-0.1,0.3,0,0.6-0.1,0.9c-0.4,0.9-1.6,0.8-2.7,1.1c-2.1,0.6-5.1,0.6-6.4-0.9
			c-0.2-0.2-0.6,0.2-1,0.1c-0.4-0.1-0.8-0.4-0.9-0.9h-0.4c-0.1-0.6-0.7-0.6-0.9-1c-0.3-0.4-0.6-1.1-0.7-1.5c0-0.3,0.1-0.6,0.1-0.9
			c-0.1-0.4-0.3-1.4-0.3-1.9c0.1-0.3,0.3-0.9,0.2-1.2c0-0.6,0.3-0.8,0.7-1V316c-0.2,0-0.2,0-0.3,0.1h-0.2c0.1-0.5,0.3-0.8,0.3-1.1
			c0.2-0.7,0-1.5,0.3-2.2c0.1-0.3,0.4-0.5,0.5-0.7v-0.4c0.1,0,0.2-0.1,0.3-0.1c0.2-0.3,0.4-0.8,0.7-1c0.3-0.2,0.7-0.3,0.9-0.6
			c0.5-0.5,0.9-1.1,1.4-1.7c0.3-0.3,0.7-0.4,1-0.7c0.2-0.2,0.4-0.5,0.6-0.7c0.5-0.4,1-0.5,1.6-0.9c0-0.1,0.1-0.2,0.1-0.3
			c0.2-0.1,0.4,0.1,0.4,0.1c0.5-0.2,1.2-0.6,1.8-0.8c0.2,0,0.5,0.1,0.8,0c1.4-0.4,2.7-1.1,4.4-1c0.2,0,0.3-0.1,0.5-0.1
			c0.2,0.1,0.5,0.4,0.8,0.4c0.2,0,0.3-0.1,0.5-0.1c0.4,0.1,0.9,0.4,1.2,0.5c0.1,0,1,0.1,1.3,0.2c0.2,0.1,0.6,0.4,0.9,0.5h0.7
			c0.7,0.2,1.2,0.9,1.8,1.2v0.4c0.3,0,0.4,0,0.5,0.2c0.4,0.2,0.2,0.4,0.4,0.8c0.4,0.6,1.1,1,1.5,1.7c0.3,0.5,1.2,1.2,1.5,1.8
			c0.3,0.5,0.2,0.9,0.3,1.5c0.1,0.3,0.4,0.7,0.5,1c0.1,0.5,0.1,1,0.2,1.5c0,0.1,0.2,0.4,0.3,0.5c0.1,0.3-0.2,0.9-0.2,1.2
			c0.1,0.7,0.3,1.7,0.5,2.5c0.1,0.2,0.2,0.4,0.3,0.6c-0.2,0.4-0.5,1.8-0.7,2.4c0,0.5-0.1,0.9-0.1,1.4c-0.5,1.4-0.7,2.9-1.5,4.4
			c-0.2,0.5-0.2,1-0.5,1.5c-0.1,0.2-0.4,0.2-0.5,0.3l-0.3,0.8c-0.2,0.3-0.7,0.5-0.9,0.8c-0.6,0.9-0.7,2.2-1.3,3.1
			c-0.2,0.3-0.8,0.5-1,0.9c-0.3,0.4-0.4,0.8-0.7,1.1c-0.1,0.1-0.3,0.2-0.4,0.3v0.4c-0.1,0.2-1,0.7-1.2,0.9c-0.2,0.2-0.1,0.4-0.3,0.6
			c-0.3,0.2-0.6,0.4-0.9,0.6c-0.2,0.3-0.1,0.6-0.3,0.8c-1.1,0.8-2.3,1.4-3.6,2.1c-0.3,0.1-0.6,0.6-0.9,0.7c-0.2,0-0.3-0.1-0.5-0.1
			c-0.5,0.1-1.2,0.5-1.7,0.6h-0.9c-1.5,0.4-3.3,0.8-4.8,1.1c-0.7,0.1-1.9-0.3-2.7,0c-1,0.3-3.5,0.1-4.8-0.2c-0.6,0-1.1,0.1-1.7,0.1
			c-1-0.3-2-0.2-3-0.4c-0.6-0.1-1.4,0-1.8,0c-1.6-0.1-3.1-0.2-4.7-0.3c-0.4-0.1-1-0.3-1.3-0.3h-0.8c-0.5-0.2-1.3-0.6-1.8-0.7
			c-0.4-0.1-1,0.2-1.4,0.1c-0.3-0.1-0.6-0.2-0.8-0.2c-0.4,0.1-0.7-0.1-0.9-0.2c-0.6-0.2-1.7,0-2.2-0.2c-0.5-0.2-1,0.2-1.5,0.2
			c-1.2-0.1-2.5,0.2-3.6,0.5c-1.3,0.3-3,0-3.8,0.6c-0.4,0-0.8,0-1.1-0.1c-0.2-0.9-0.5-2.1-0.5-3c0-0.4,0.3-0.8,0.2-1.4
			c-0.1-0.4-0.3-1.2-0.3-1.5c0-0.2,0.2-0.2,0.2-0.5c-0.1-0.2-0.4-0.4-0.4-0.6c0-0.3-0.1-0.6-0.1-0.9c0-0.1-0.3-0.3-0.3-0.4
			c0-0.7-0.1-1.2-0.1-2.1c0-0.2,0.1-0.8,0.1-0.9c-0.2-0.9-0.5-2-0.7-2.8c-0.1-0.2,0.1-0.4,0.1-0.5c-0.1-0.6-0.3-1.4-0.4-1.9
			c0-0.3,0.1-0.5,0.1-0.8c-0.1-0.6-0.5-0.9-0.4-1.6c0.7-0.3,1.4-0.6,2.1-1c0.5-0.3,1.3-1.4,1.9-1.8c0.5-0.4,1.1-0.7,1.6-1
			c0.3,0.1,0.9-0.1,1.2-0.3c0.5-0.4,0.8-1.2,1.2-1.7c0.1-0.2,0.4-0.2,0.6-0.3c0.3-0.2,0.4-0.8,0.7-0.9c0.2-0.1,0.5,0,0.7-0.1
			c1-0.5,2-3.2,2.9-3.3c0.1-0.4,0.2-0.9,0.4-1.2c0.1,0,0.2-0.1,0.3-0.1v-0.3c0.1-0.2,0.3-0.1,0.4-0.2c0,0,1.4-1.7,1.5-1.7
			c0-0.2,0.1-0.4,0.1-0.6c0.2-0.5,0.5-0.9,0.7-1.4c0.2,0,0.3,0,0.5-0.1c0-0.2,0.1-0.1-0.1-0.2c0.2-0.5,0.6-0.7,0.9-1.1
			c0.2-0.3,0.1-0.7,0.3-1c0.2-0.5,0.6-1.2,0.8-1.7c0.1-0.3,0-0.6,0.2-0.9c0.5-1.4,1.3-2.8,1.7-4.3v-0.9c0.1-0.4,0.3-0.8,0.3-1.3
			c0-0.1-0.2-0.3-0.1-0.5c0.1-0.4,0.4-1.1,0.3-1.5c0,0-0.2-0.4-0.2-0.4c0.3-2.1,0.2-4-0.3-6c0-0.5-0.1-0.9-0.1-1.4
			c-0.2-0.5-0.4-0.8-0.6-1.4c-0.2-0.8,0-1.4-0.2-2.1c-0.2-0.8-0.6-1.3-0.8-2.1c0-0.7-0.1-1.5-0.1-2.2c-0.1-0.2-0.3-0.4-0.4-0.6
			c-0.6-1.1-1-2.2-1.6-3.3c-0.2-0.1-0.4-0.3-0.6-0.4c0-0.2-0.1-0.4-0.1-0.6c-0.2-0.4-0.8-0.7-1-1.1c-0.9-1.2-1.8-2.5-2.9-3.4
			c-0.5-0.4-1-0.5-1.5-0.9c-0.4-0.3-0.8-0.7-1.2-0.9c-0.5-0.3-1-0.3-1.5-0.5c-0.2-0.1-0.4-0.5-0.6-0.7c-0.3-0.2-0.7-0.2-1-0.4
			c0,0-0.1-0.2-0.2-0.3c-0.6-0.2-1.1-0.1-1.7-0.3c-0.5-0.2-1.3-0.9-2-0.8c-1.2,0.2-2,0.1-3,0.3c-0.6,0.1-1.3-0.1-1.8,0.1
			c-0.6,0.2-1.1,0.7-1.6,1c-0.4,0.3-1.2,0.3-1.8,0.4c-1,0.3-2.4,0.9-3.3,1.5c-0.6,0.4-1.5,0.8-2.1,1.2c-0.2,0.2-0.4,0.5-0.6,0.7
			c-0.5,0.4-1.2,0.4-1.8,0.7c-0.4,0.2-0.9,0.6-1.3,0.9c-0.5,0.3-1,0.4-1.5,0.7c-0.2,0.1-0.3,0.5-0.5,0.6c-0.3,0.2-0.7,0.2-0.9,0.3
			c-0.4-0.8-0.5-1.7-0.9-2.5c-0.6-1.1-1.3-2.3-1.8-3.5c-0.2-0.4-0.1-1-0.3-1.5c-0.1-0.3-0.5-0.8-0.8-1c-0.4-0.4-0.2-1.1-0.4-1.7
			c-0.1-0.1-0.2-0.2-0.3-0.3c-0.3-0.5-0.5-1.8-0.4-2.4c0.1-0.4,0.7-0.9,1-1.1c0.3-0.2,0.3-0.6,0.5-0.9c0.2-0.1,0.3-0.1,0.5-0.2
			c0.4-0.3,0.9-0.8,1.3-1.1c0.4-0.4,0.6-1,0.9-1.4c0.2-0.1,0.5-0.3,0.7-0.4c0-0.1,0.1-0.3,0.1-0.4c0.2-0.2,0.5-0.5,0.7-0.7
			c0.2-0.2,0.2-0.6,0.3-0.8c0.1-0.1,0.3-0.1,0.3-0.2c0.2-0.3,0.1-0.6,0.3-1c0.1-0.1,0.2-0.2,0.3-0.3c0.1-0.2,0.1-0.4,0.2-0.6
			c0.1-0.1,0.3-0.2,0.4-0.3c0.2-0.3,0.1-0.6,0.3-0.9c0.1-0.2,0.5-0.2,0.7-0.3c0.3-0.3,0.4-0.9,0.6-1.2c0.1-0.1,0.4-0.1,0.5-0.3
			c0.2-0.3,0.1-0.7,0.3-1c0.3-0.5,0.7-0.5,0.8-1.3c0.2,0,0.2,0,0.3-0.1c0.2-0.1,1.3-1.6,1.4-1.9c0-0.3,0.1-0.6,0.1-0.9
			c0.4-1.2,1.3-2.6,1.7-3.8v-0.7c0.1-0.3,0.5-0.6,0.6-0.9c0.1-0.5,0.2-1,0.3-1.5c0.4-1.2,0.9-2.7,0.9-3.8c0-0.6,0.4-1.7,0.2-2.2
			c0.1-0.8,0.4-1.8,0.1-2.7c-0.4-1.1-2.3-4.3-3.1-4.8c-0.4-0.3-0.9-0.3-1.3-0.6c-0.4-0.3-0.7-0.7-1.1-0.9c-0.7-0.4-3.6-1-4.4-0.8
			c-3.8,0.9-5.2,3.3-6.7,6.4c-0.2,0.4-0.1,0.8-0.3,1.2c-0.1,0.3-0.4,0.9-0.5,1.4c0,0.3-0.1,0.6-0.1,0.9c-0.1,0.1-0.2,0.2-0.3,0.3
			c-0.3,0.7-0.2,1.5-0.5,2.2c-0.2,0.5-0.6,1.2-0.8,1.7c-0.2,0.6-0.1,0.9-0.3,1.5c-0.2,0.6-0.8,2.6-0.8,3.3c0.1,1,0.1,2,0.2,2.9
			c0,0-0.3,2-0.3,2.2c0,0.1-0.2,0.3-0.3,0.3v1.5c-0.1,0.4-0.3,1.2-0.3,1.6c0.1,0.4,0.3,0.8,0.3,1.2c-0.1,0.3-0.1,0.5-0.2,0.8
			c0,0.3,0.3,0.9,0.3,1.1c0,0.4-0.1,1.7,0.1,2.1c0,0.1,0.3,0.3,0.3,0.4c0.3,0.6,0.2,1.2,0.4,1.9c0.2,0.4,0.5,0.8,0.7,1.1
			c0.1,0.8,0.2,1.7,0.3,2.5c-0.7,0.6-1.2,1.5-1.8,2.3c-0.4,0.5-1,0.8-1.4,1.2c-0.3,0.4-0.5,0.8-0.9,1.2c-0.2,0.2-0.7,0.4-0.9,0.7
			c-0.1,0.2-0.1,0.4-0.3,0.5c-0.1,0-0.2,0.1-0.3,0.1c-0.1,0.1-0.1,0.3-0.2,0.4c-0.4,0.5-0.9,0.9-1.4,1.4c-0.1,0.1-0.1,0.4-0.3,0.5
			c-0.1,0.1-0.3,0.1-0.4,0.3c-0.3,0.5-0.5,1-0.9,1.5c-0.2,0.3-0.7,0.6-0.9,0.9c-0.3,0.4-0.3,1-0.5,1.5c-0.2,0.2-0.5,0.4-0.7,0.6
			c-0.4,0.6-0.8,1.3-1.2,1.9c-0.1,0.2-0.2,0.5-0.3,0.7c-0.3,0.3-0.6,0.6-0.9,1c-0.1,0.2,0,0.4-0.2,0.6c-0.2,0.2-0.4,0.2-0.5,0.4
			c-0.2,0.4-0.1,0.7-0.3,1.1c-0.1,0.2-0.4,0.4-0.5,0.6c-0.6,1-1.3,2.8-1.6,3.8c-0.2,0.6-0.6,1.4-0.5,2.1c0.1,0.4-0.5,1.3-0.6,1.6
			c-0.2,0.4-0.1,1-0.2,1.4c0,0.3,0.1,0.5,0.1,0.8c-0.4,2-0.6,4.1-0.3,6.1c0.1,0.3-0.1,0.4-0.2,0.7c-0.1,1,0.1,2,0.3,2.7
			c0,0.2-0.1,0.4-0.1,0.6c0,0.2,0.2,0.8,0.3,1c0,0.1-0.2,0.5-0.1,0.8c0.3,1.4,0.7,3.4,1.2,4.8c0.3,0.7,0.1,1.4,0.4,2.1
			c0.2,0.5,0.9,1.1,1.1,1.7v0.5c0.4,0.9,1.1,2.1,1.6,2.8c0.1,0.1,0.3,0.1,0.3,0.2c0,0.2,0.1,0.3,0.1,0.5c0.1,0.3,0.6,0.8,0.7,1.1
			c0,0.1-0.1,0.3-0.1,0.4c0.1,0.2,0.4,0.4,0.5,0.6c0.1,0.4,0.2,0.7,0.3,1.1c0.2,0.3,0.6,0.6,0.8,0.9c0.1,0.2,0,0.4,0.2,0.5
			c0.8,0.9,2,1.5,2.6,2.6h0.3v0.3c0.7,0.5,1.2,1.4,1.9,1.9c1,0.7,1.9,1.5,2.9,2.2c0.2,0.2,0.4,0.6,0.7,0.8c0.5,0.3,1.3,0.4,1.8,0.8
			c0.1,0.1,0.3,0.5,0.3,0.5c0.2,0.1,0.4,0.1,0.7,0.2c0.4,0.2,0.9,0.6,1.4,0.8h0.7c0.3,0.1,1.5,0.4,2.1,0.3c0.2,0,0.6-0.2,0.9-0.1
			c0.1,0,0.1,0.2,0.3,0.2c0.6-0.1,1.4-0.2,2.1,0.1l0.3,0.3c0.4,0.1,0.6-0.1,0.8-0.2c0.2-0.1,0.3,0.1,0.4,0.2
			c0.3-0.1,0.6-0.2,0.8-0.3c0.7,0.3,1.3,0,1.9-0.3h0.9c0.2-0.1,0.6-0.2,0.8-0.3h0.9c0.5-0.2,1-0.7,1.7-0.9c0.3,0,0.5,0.1,0.8,0.1
			c0.5-0.1,1.4-0.3,1.7-0.6c0.8,0.2,1.4,3.6,1.6,4.6c0.1,0.4-0.2,0.8,0,1.5c0.1,0.2,0.4,0.6,0.4,0.8c-0.1,0.2-0.1,0.4-0.2,0.6
			c0,0.1,0.2,0.3,0.3,0.4c0.1,0.3-0.1,0.7,0.1,1.1c0,0.1,0.3,0.4,0.3,0.5c0,0.3-0.1,0.5-0.1,0.8c0,0,0.3,0.2,0.3,0.2
			c0.1,0.1-0.1,1.3,0,1.5c0.1,0.3,0.4,0.6,0.5,0.9c0.2,0.5-0.1,1.1-0.2,1.3c0,0.1,0,1.7,0,1.8c0,0.1,0.2,0.5,0.3,0.5
			c0,0.3-0.3,0.6-0.1,0.9c-0.1,0.1,0,0.1-0.1,0.2c-0.4,0.3-1.3,0.2-2,0.3c-0.2,0-0.4-0.2-0.8-0.1c-1.2,0.2-2.1,0.2-3.3,0.4
			c-1.9,0.4-3.6,0.7-5.8,0.3c-0.5-0.1-0.8,0.2-1.2,0.1c-1.3-0.2-2.9-0.3-3.8-0.5c-0.6,0-1.1-0.1-1.7-0.1c-0.2-0.1-0.5-0.4-0.8-0.4
			c-0.8-0.2-1.9-0.2-2.7-0.6c-0.3-0.1-0.5-0.4-0.8-0.5c-0.4-0.2-1-0.2-1.4-0.4c-0.1-0.1,0-0.2-0.1-0.3c-0.2-0.3-0.9-0.7-1.2-0.9
			c-5.5-2.2-10.3-4.6-15.1-7.4c-0.3-0.2-0.4,0-0.8-0.2l-0.8-0.8c-0.4-0.2-0.7-0.2-1.1-0.3c-0.1-0.1-0.2-0.2-0.3-0.3
			c-0.9-0.5-2.1-0.7-3-1h-0.9c-0.3-0.1-0.8-0.3-1.1-0.4h-0.8c0-0.1-0.1-0.2-0.1-0.3c-0.2-0.2-2-0.9-2.2-0.9
			c-0.3,0.1-0.5,0.1-0.8,0.2c-0.1,0-0.3-0.3-0.4-0.3c-0.4,0-0.9,0.1-1.3,0.1c-1.7-0.4-4-0.3-5.4,0c-0.3-0.1-0.5-0.1-0.8-0.2
			c-1,0.2-1.8,0.1-2.5,0.3c-0.6,0-1.3,0.1-1.9,0.1c-0.2,0.1-0.8,0.3-1,0.3c-0.5,0.1-1.9-0.2-2.3,0c-0.5,0.2-1.3,0.3-1.7,0.4h-0.7
			c-0.3,0.1-0.5,0.3-1,0.3c0-1.8,0.2-3.6-0.3-5c0.1,0,0.1-0.1,0.3-0.1c0-0.8-0.3-2.2,0-2.6c0-0.9,0.4-0.6,0.9-0.9
			c0.3-0.2,0.7-0.6,1-0.8h0.3c0-0.1,0.1-0.2,0.1-0.3c0.2-0.1,0.5,0,0.7-0.2c0.1-0.1,0.1-0.4,0.3-0.4c0.2-0.1,0.4,0,0.6-0.2
			c0.4-0.3,0.7-0.7,1.3-0.9v-0.3h0.3c0.2-0.3,0.6-0.4,0.9-0.6c0.1-0.1,0.1-0.3,0.2-0.3c0.1,0,0.3-0.1,0.4-0.1c0.1,0,0.1-0.3,0.2-0.3
			c0.3-0.2,0.6-0.1,0.9-0.3l0.3-0.5c0.3-0.2,0.3,0.1,0.7,0c0.2-0.1,0.5-0.5,0.8-0.6c0.6-0.3,1.1-0.5,1.7-0.9
			c0.1-0.1,0.1-0.3,0.2-0.3c0.1-0.1,0.9-0.2,1.1-0.3c0.6-0.4,1.2-1.1,1.9-1.4v-0.3c0.6,0,1.1-0.1,1.4-0.4c0.1-0.2,0.2-0.4,0.3-0.6
			c0.3-0.2,0.6-0.1,0.8-0.3c0.2-0.2,0.1-0.6,0.3-0.7c0.5-0.3,0.8-0.4,1-0.9c0.1-0.2-0.2-0.6,0.1-0.9c-0.1-0.3-0.1-0.3-0.3-0.4
			c0.1-0.4,0.6-0.7,0.9-0.8c0-0.3,0-0.5,0.1-0.6c-0.1-0.4-0.2-0.6-0.4-0.9c-0.2-0.1-0.6-0.1-0.7-0.1c-0.9,0-1.4,0.8-2,1.1h-0.5
			c-0.8,0.4-1.7,1.2-2.3,1.8c-0.6,0.6-1.6,0.8-2.3,1.3c-0.2,0.2-0.5,0.5-0.8,0.7c-0.4,0.2-0.8,0.3-1.2,0.5c-0.5,0.3-1,0.8-1.5,1.1
			c-0.3,0.2-0.7,0.1-1.1,0.3c-0.4,0.2-0.8,0.7-1.2,0.9h-0.3c-0.1,0.2-0.3,0.3-0.4,0.5c-0.8,0.5-1.7,0.7-2.6,1.2
			c-0.3,0.2-0.6,0.5-0.9,0.7c-0.3,0.2-0.7,0.2-0.9,0.3c-0.2,0.1-0.5,0.5-0.7,0.6h-0.4c-0.3,0.1-0.6,0.5-0.9,0.6h-0.4
			c-0.3,0.1-0.6,0.6-0.9,0.7c-0.3,0.1-0.5,0.1-0.8,0.2c-0.2,0.1-0.5,0.3-0.8,0.4h-0.7c-0.4,0.2-0.9,0.9-1.3,1.1h-0.7
			c-0.2,0.1,0,0.4-0.2,0.6c0,0.1-0.4,0.2-0.5,0.3c0,0.6,0,1.1-0.2,1.5v1.1c-0.1,0.4-0.5,0.7-0.3,1.2c-0.2,0.1-0.4,0.2-0.5,0.3
			c0,1.8,0,3.4,0.1,5.2c0,0.7-0.3,2.2,0,2.6c-0.1,0.6-1.5,1.1-2.1,1v0.3c-1.1,0.1-1.8,0.8-2.7,1.2c-1.1,0.5-2.4,0.8-3.4,1.5
			c-0.3,0.2-0.6,0.5-0.9,0.7c-0.4,0.2-0.7,0.1-1,0.3c-0.3,0.3-0.6,0.6-0.9,0.9h-0.5c-0.4,0.1-0.8,0.7-1,0.9c-0.4,0-0.3,0-0.4-0.3
			c-0.1,0.2,0,0.4-0.2,0.6c-0.2,0.3-1.3,0.7-1.7,0.9c-0.3,0.2-0.7,0.6-0.9,0.7c-0.2,0-0.4,0.1-0.6,0.1c0,0.1-0.1,0.2-0.1,0.3
			c-0.1,0.1-0.5,0-0.8,0.1c-0.1,0.1-0.3,0.3-0.4,0.4c-0.4,0.2-0.7,0.1-1,0.3c-1,0.6-2.1,1.5-3.1,2.1c-0.4,0.3-0.8,0.3-1.2,0.6
			c-0.2,0.2-0.4,0.5-0.6,0.7c-0.4,0.3-0.8,0.3-1.2,0.5c-0.2,0.1-0.3,0.5-0.5,0.6c-0.5,0.3-1,0.4-1.5,0.8c-0.1,0.1-0.1,0.2-0.2,0.3
			c-0.3,0.2-0.6,0.1-0.9,0.3c-0.1,0.1-0.1,0.3-0.2,0.4c-0.2,0.2-0.6,0.3-0.9,0.4c-0.3,0.4-0.7,0.8-1,1.2c-0.1,0.1-0.2,0.1-0.3,0.2
			c0,0.1-0.1,0.3-0.1,0.4c-0.2,0.4-0.8,0.5-1.1,0.8c-0.4,0.3-0.6,0.8-0.9,1.3c-0.2,0.1-0.5,0.3-0.7,0.4c-0.6,0.6-1.1,1.2-1.6,1.9
			h-0.2v0.3c-0.2,0.3-0.7,0.2-0.9,0.6c-1.8-0.1-3.3-0.6-5-1c-0.4,0-0.8,0.1-1.2,0.1c-0.5-0.1-1.3-0.4-1.8-0.5
			c-0.3,0-0.6,0.1-0.9,0.1c-0.4-0.1-1.1-0.2-1.4-0.3c-1.1,0.1-2.3,0.1-3.4,0.2c-1.7-0.4-4.1,0.1-5.7,0.4H327c0,0.1-0.1,0.1-0.1,0.2
			c-0.5,0.1-1.5-0.5-2.3-0.3c-0.6,0.2-1.7,0.4-2.3,0.6c-0.4,0-0.7-0.1-1.1-0.1c-0.8,0.2-1.8,0.8-2.6,1c-0.3,0-0.6,0.1-0.9,0.1
			c-0.2,0.1-0.6,0.3-0.8,0.3c-0.5,0.1-1,0.1-1.5,0.2c-1,0.3-2.2,0.8-3.3,1.1c-0.4,0.1-0.7,0-1.1,0.2c-1.5,0.6-3.1,1-4.4,1.8
			l-0.6,0.6c-0.5,0.3-1,0.3-1.5,0.6c-0.7,0.5-1.3,1.4-2.1,1.8c-0.4,0.2-0.8,0.2-1.1,0.5c-0.1,0.1-0.1,0.3-0.2,0.3
			c-0.5,0.3-1,0.3-1.5,0.7c-0.4,0.3-0.3,1-0.6,1.3c-0.4,0.3-1,0.3-1.4,0.6c-0.2,0.3-0.4,0.5-0.6,0.8c-0.4,0.3-0.8,0.3-1.1,0.6
			c-0.1,0.2-0.3,0.4-0.4,0.6c-0.6,0.4-1,0.7-1.6,1.1c-0.3,0.2-0.3,0.6-0.4,0.9c-0.6,0.9-1.3,1.8-2.1,2.6c-0.1,0.1-0.3,0.1-0.3,0.2
			c-0.3,0.4-0.2,0.7-0.6,0.9v0.3c-1,0.2-2.4,3.1-3,4c-0.6,1-1.4,1.8-2.1,2.7l-0.3,0.5c0,0.1,0.1,0.2,0.1,0.3
			c-0.1,0.1-0.3,0.1-0.4,0.2c-0.2,0.3-0.2,0.7-0.3,0.9c-0.1,0.2-0.5,0.5-0.6,0.7c-0.2,0.3-0.2,0.6-0.3,0.9c-0.2,0.4-0.7,0.6-0.9,1
			l-0.3,0.8c-0.5,0.7-1.9,2.2-2,3.3c-0.1,0-0.3,0.1-0.4,0.1c-0.1,1.3-1.8,3.3-2.4,4.3c-0.5,0.8-0.7,1.6-1.2,2.4
			c-0.2,0.3-0.8,0.5-1,0.9c-0.1,0.2-0.1,0.3-0.2,0.5c-0.3,0.4-0.8,0.9-1,1.3l-0.3,0.8c-0.2,0.4-0.9,0.6-1.1,1c0,0.1-0.1,0.3-0.1,0.4
			c-0.2,0.2-0.6,0.3-0.8,0.6c-0.3,0.4-0.5,0.8-0.9,1.2c0.1,0.5,0.4,0.5,0.4,0.9c0,0.1-0.2,0.5-0.2,0.6c0,0.3,0.1,0.3,0.2,0.6
			c1.3,0,1.9-1.9,2.6-2.7c0.2-0.2,0.7-0.4,0.9-0.7v-0.4c0.2-0.4,0.7-0.7,0.9-1.1c0.1-0.2,0-0.5,0.2-0.7c0.6-1,1.6-1.8,2.2-2.7
			c0.4-0.6,0.5-1.3,0.9-2c0.3-0.4,0.8-1,1-1.5c0.2-0.5,0.2-1,0.4-1.5c0.4-0.9,1.4-1.4,1.9-2.3h0.5c0.1-0.3,1.2-1.8,1.5-2.1
			c0.1-0.1,0.2-0.1,0.3-0.2v-0.4c0.3-0.5,1-0.9,1.2-1.5c0-0.1-0.1-0.3-0.1-0.4l0.4-0.4c0-0.2-0.1-0.3-0.1-0.5
			c0.1-0.3,0.4-0.6,0.5-0.9c0,0,0.2-1.1,0.4-1.3c0.2-0.2,0.5-0.1,0.7-0.3c0-0.1,0.1-0.3,0.1-0.4c0.1-0.2,0.4-0.5,0.5-0.8v-0.5
			c0.1-0.1,0.4-0.2,0.5-0.3c0.2-0.3,0.3-0.6,0.5-0.9c0.1,0,0.2-0.1,0.3-0.1c0-0.1-0.1-0.3-0.1-0.4h0.2c0-0.1-0.1-0.2-0.1-0.3
			c0-0.1,0.3-0.4,0.3-0.5c0.1-0.2,0.3-0.1,0.5-0.2c0.3-0.2,0.5-0.9,0.8-1.2c0.2-0.2,0.6-0.3,0.8-0.5c0.7-0.9,1.4-1.8,2-2.7
			c0.1-0.2,0.5-0.3,0.7-0.4c0.3-0.3,0.5-0.6,0.8-0.9c0.1-0.1,0.3-0.2,0.4-0.3c0.6-0.7,1.2-1.6,2-2.1c1.2-0.9,2.5-1.5,3.6-2.4
			c0.2-0.1,0.1-0.4,0.1-0.4c0.5-0.5,1.4-0.9,2-1.3c0.4-0.3,0.5-0.7,0.9-1c0.4-0.3,1-0.3,1.5-0.6c0.6-0.4,1.3-0.9,1.9-1.3
			c0.6-0.4,1.2-0.5,1.8-0.9l0.5-0.5c0.4,0,0.7-0.1,1.1-0.1c0.5-0.2,1.3-0.7,1.8-0.9c0.2,0,0.3,0.1,0.5,0.1c0,0,1.6-0.3,1.6-0.3
			c0.2-0.1,0.4-0.4,0.6-0.5h0.9c1.2-0.5,2.6-0.7,3.8-1c0.7-0.2,1.2,0.2,1.9,0c0.4-0.1,0.9-0.3,1.4-0.3c0.2,0,0.3,0.2,0.6,0.2
			c2.8-0.6,8.1-1,10.9-0.3c0.7,0.1,1.5,0.1,2.2,0.2c0,0,0.2-0.2,0.3-0.2c0.6,0.2,1.5,0.5,2.1,0.7c0.5,0.1,1.4,0,1.6,0.1
			c0.2,0.1,0.4,0.5,0.6,0.4l0.3-0.2c0.8-0.1,1.6,0.6,2.1,0.3c0.5,0,0.5,0.1,0.8,0.3c-0.3,1.3-1.7,1.8-2.4,2.8
			c-0.4,0.5-0.7,1.3-0.9,1.9c-0.1,0.4,0,0.6-0.2,0.9c-0.5,0.8-1.2,1.6-1.6,2.4c-0.4,0.7-0.4,1.4-1.3,1.7c0,1.1,0.5,1.2,1,1.6
			c1.2,0,1-0.6,1.5-1.3c0.1-0.2,0.7-0.3,0.7-0.7c-0.2-1.4,0.7-1.7,1.4-2.8c0.1-0.2,0.2-0.5,0.3-0.7c0.2-0.3,0.6-0.7,0.8-1
			c0.1-0.2-0.1-0.5-0.1-0.5c0.1-0.2,0.5-0.4,0.7-0.6c0.3-0.4,0.4-1,0.8-1.4c0.5-0.6,1.1-1.1,1.5-1.8c1.4-0.2,2.4,0.2,3.4,0.3
			c0.3,0.1,0.7-0.1,1.2,0.1c0.2,0.1,0.4,0.4,0.6,0.4c0.6,0.2,1.2-0.1,1.9,0.2c0.4,0.1,0.9,0.6,1.4,0.8c0.4,0.1,1.2,0,1.5,0.2
			c0.1,0,0.1,0.3,0.3,0.3c0.3,0,0.5,0.1,0.8,0.1c0.7,0.2,1.6,0.4,2.3,0.6c0.1,0,0.3-0.1,0.4-0.1c0.3,0.1,0.6,0.3,0.9,0.4h0.6
			c0.5,0.2,1.1,0.4,1.6,0.7c0.4,0.2,0.8,0.5,1.2,0.7c0.4,0.1,1.7,0.4,2.1,0.3c0.2,0,0.8-0.2,1.2-0.1c2,0.5,5.1,0.8,6.9,0.3
			c0.2-0.1,0.9,0.6,1.2,0.5c0.2,0,0.8-0.3,1.2-0.3c0.1,0,1.4,0.2,1.7,0.3c1.1,0.2,3.2-0.1,3.9-0.3c0.3-0.1,0.7,0.1,0.9-0.1h0.2
			c0,0.5-0.1,1,0,1.5c0,0.1,0.2,0.4,0.3,0.5c0.1,0.3-0.4,1.9-0.3,2.4c0,0,0.2,0.3,0.3,0.3l-0.2,0.2v1.5c0.1,0,0.2,0.1,0.3,0.1
			c0.3,0.5,0.1,1.6,0.2,1.9c0.1,0.1,0.2,0.1,0.3,0.2c0.1,0.3-0.1,0.5-0.2,0.6c-0.1,0.5,0.1,1.4,0.3,1.5c-0.2,0.7-2.4,1.3-3.2,1.6
			c-0.3,0-0.6,0.1-0.9,0.1c-0.1,0.1-0.4,0.4-0.5,0.4c-0.1,0-0.2-0.1-0.3-0.1c-0.1,0.1-0.2,0.2-0.3,0.3h-1.1c-0.3,0.1-0.8,0.3-1,0.4
			c-0.5,0.1-1.2,0.1-1.5,0.2c-0.4,0.1-0.5-0.2-0.8-0.2c-0.5,0-1.5,0.3-2.1,0.4c-0.3,0-0.6-0.1-0.9-0.1c-0.9,0.3-2,0.3-2.8,0.4
			c-0.4,0-1.4-0.1-1.8-0.2c-0.4-0.1-0.5,0.1-0.7,0.2c-0.2,0-0.3-0.1-0.5-0.1c-0.5,0-0.7,0.1-1.1,0.2c-0.6,0.1-1.5-0.2-2.2,0
			c-0.6,0.1-2-0.2-2.6-0.3c-0.9-0.2-1.4,0.4-2.2,0.3c-0.6-0.1-2.1-0.6-2.6-0.3c-0.2-0.1-0.1,0-0.2-0.3c-2.2,0-3.7-0.1-5.5-0.7
			c-0.9,0-1.7-0.1-2.6-0.1c-0.1,0-0.4,0.2-0.5,0.2c-0.1-0.1-0.1-0.2-0.2-0.3c-0.2-0.1-0.8-0.1-1-0.2c-0.3,0-0.6,0.1-0.9,0.1
			c-1-0.2-2.6-0.3-3.5-0.3c-0.3,0.1-0.5,0.1-0.8,0.2c-1.3-0.2-3-0.5-4.3-0.3c-0.4,0.1-1.1,0-1.4-0.1c-0.5-0.1-1.9,0.1-2.2,0.2
			c-0.3,0.1-0.5-0.1-0.7-0.1c-1.1,0.2-2.5,0.2-3.5,0.3c-0.4,0-0.8-0.1-1.2-0.1c-0.8,0.2-2.2,0.4-2.9,0.6h-0.7
			c-0.3,0.1-0.7,0.4-1,0.5h-0.7c-0.4,0.1-1,0.3-1.5,0.5c-0.8,0.3-1.8,1-2.7,1.3c-0.9,0.3-1.8,0.2-2.6,0.6c-0.5,0.2-1,0.8-1.5,1
			c-0.8,0.4-2,0.8-2.7,1.4c0,0.1-0.1,0.2-0.1,0.3c-0.3,0.2-0.7,0.2-1,0.4c-0.3,0.2-0.5,0.7-0.9,0.9c-0.4,0.3-1,0.4-1.4,0.7
			c-0.1,0.1-0.2,0.3-0.3,0.4c-0.2,0.1-0.4,0.1-0.6,0.3c0,0.1-0.1,0.2-0.1,0.3c-0.4,0.2-1,0.3-1.3,0.6c-0.1,0.2-0.2,0.5-0.3,0.7
			c-0.3,0.3-0.8,0.3-1,0.6c-0.7,0.8-1.4,1.6-2.2,2.3c-0.3,0.2-0.3,0.7-0.6,0.9h-0.3c-0.2,0.1-0.5,0.3-0.7,0.5c-0.6,0.4-1,1.4-1.6,2
			c-2,1.8-3.5,3.9-5.2,6.1c-0.1,0.1-0.3,0.1-0.4,0.2c-0.2,0.2-0.3,0.5-0.5,0.8c-0.1,0-0.2,0.1-0.3,0.1c0,0.1-0.1,0.3-0.1,0.4
			c-0.4,0.6-1.1,1-1.5,1.6l-0.3,0.8c-0.2,0.4-0.6,0.8-0.9,1.2c-0.2,0.3-0.3,0.7-0.5,1c-0.2,0.1-0.4,0.2-0.6,0.3
			c-0.1,0.1,0,0.4-0.2,0.5c-0.1,0-0.2,0.1-0.3,0.1c-0.3,0.3-0.5,0.6-0.8,0.9c-0.2,0.1-0.4,0.1-0.5,0.3c-0.2,0.2-0.2,0.5-0.4,0.7
			c-0.2,0.1-0.5,0.2-0.6,0.3c-0.6,0.7-0.8,1.7-1.5,2.2c-1.3,1-2.7,1.8-3.9,2.9c-0.3,0.3-0.8,0.3-1.2,0.4c-0.8,0.3-1.5,1-2.2,1.4
			c-0.1,0-0.3,0.1-0.4,0.1c-0.2,0.2-0.9,0.6-1,0.9c-0.1,0.2,0,0.3-0.2,0.4c-0.3,0.3-0.9,0.4-1.3,0.6c0,0.5,0.1,0.5,0.3,0.8
			c1.9-0.1,2.7-0.7,4-1.4c0.4-0.2,0.7-0.2,1-0.3c1.1-0.5,2.2-1.2,3.1-2c0.2-0.2,0.5-0.2,0.8-0.3c0.5-0.4,0.9-1.1,1.4-1.5
			c0.6-0.4,1.5-0.9,1.9-1.5c0.2-0.3,0.3-0.7,0.5-0.9c0.4-0.5,1-0.8,1.4-1.3c0.1-0.2,0-0.4,0.2-0.5c0.3-0.2,0.6-0.4,0.9-0.6
			c0.4-0.5,0.7-0.9,1-1.5c0.3-0.4,0.8-0.6,1.1-0.9c0.2-0.3,0.2-0.6,0.3-0.9c0.4-0.3,0.7-0.7,1.1-1c0.7-0.9,1.4-1.6,2-2.7
			c0.1-0.2,0.4-0.2,0.5-0.3c0.2-0.2,0.2-0.4,0.3-0.6c0.6-0.7,1.4-1.3,2-2.1c0.4-0.6,0.7-1.3,1.1-1.8c0.8-0.9,1.9-1.6,2.7-2.5
			c0.4-0.4,0.6-1.1,1-1.4c0.2-0.2,0.5-0.2,0.7-0.3l0.8-0.8c0.3-0.2,0.7-0.2,1-0.4c0.3-0.3,0.6-0.7,0.9-1c0.6-0.4,1.3-0.6,2-1
			c0.5-0.3,1-0.9,1.5-1.3c0.7-0.5,1.4-0.7,2.1-1.1c0.2-0.2,0.3-0.4,0.5-0.6c0.3-0.2,0.7-0.3,1-0.6c0.1-0.2,0.2-0.3,0.3-0.5h0.4
			c0.4-0.1,0.8-0.6,1.1-0.8c0.2-0.1,0.5-0.2,0.7-0.3c0.6-0.4,1-1,1.5-1.4c0.8-0.5,1.7-0.7,2.3-1.4c0.2-0.1,0.6,0.1,1-0.1
			c0.2-0.1,0.2-0.4,0.3-0.4h0.5c0.4-0.1,0.6-0.4,0.9-0.5c0.3,0,0.6-0.1,0.9-0.1l0.5-0.5c0.4-0.1,0.8-0.2,1.2-0.3
			c0.8-0.3,1.9-0.6,2.7-0.8c0.2,0,0.4,0.1,0.6,0.1c0.5,0,1.2-0.2,1.9-0.1c0.1,0,0.4,0.1,0.7,0.1c0.2,0,0.7,0,0.9-0.1l0.3-0.3
			c0.5,0,1.4,0.4,2,0.2c0.1,0,0.3-0.3,0.3-0.3c0.2-0.1,0.9,0.3,1.1,0.3c0.5,0.1,0.7-0.2,0.9-0.3c0.1,0,1.7,0.3,1.9,0.3
			c0.9,0.2,1.6-0.2,2.4-0.1c0.6,0.1,1.2,0,1.8,0.1c0.6,0.1,1.5,0.3,2.1,0.3c0.3,0,0.9-0.2,1.3-0.2c0.8,0.1,1.6,0.1,2.4,0.3h1.2
			c0.4,0.2,0.9,0.3,1.5,0.4c0.5,0.1,0.8-0.2,1.4,0c0.7,0.2,1.1,0.5,2.1,0.4v-0.3c0.3,0.1,0.6,0.3,0.9,0.4c0.6,0.2,0.7-0.2,1.4-0.1
			c0.8,0.2,1.9,0.3,2.7,0.3c0.7,0,1.8-0.2,2.3-0.1c1.9,0.3,4.1-0.1,5.9-0.2c0.9,0.4,2.6,0.4,3.8,0.4c0.5,0,1.2,0.3,1.6,0.1
			c0.2,0.2,0.1,0.3,0.5,0.4v-0.3c0.5,0,1.4-0.1,1.6-0.3c0.2,0.1,0.1,0,0.2,0.3c1-0.3,3-0.4,3.8-0.7c0.5-0.1,2-0.1,2.5-0.2
			c0.2,0,0.5,0.1,0.5,0.1c0.4-0.1,0.8-0.2,1.1-0.3c0.3-0.1,0.7,0.1,0.8,0.1c0.3-0.1,0.5-0.3,0.9-0.3c0,0.6,0.1,0.3,0.3,0.6
			c0.1,0.1-0.3,0.8-0.3,0.9c-0.1,0.3,0.1,0.8,0.1,0.9c0.1,0.6-0.1,1.5-0.2,1.7c-0.1,0.6,0.1,1-0.3,1.3c0,0,0,0.3,0.1,0.2l0.1-0.1
			c0,0.4,0.1,1,0.3,1.1c0,0.2,0,0.5-0.1,0.6c-0.1,0.1-0.2,0.1-0.3,0.2c0,0-0.1-0.1-0.1-0.1c0-0.4,0.1-0.7,0.3-0.9
			c-0.1-0.2-0.1-0.3-0.3-0.4h-0.3v0.3c-1.5,0.3-3.2,0.7-4.4,0.9c-0.6,0-1.1-0.1-1.7-0.1c-0.3,0.1-0.9,0.3-1.1,0.3
			c-0.1,0-0.6-0.2-0.9-0.1c-0.1,0.1-0.1,0.2-0.2,0.3c-0.3-0.1-1,0-1.5,0.1c-0.2,0.1-0.4,0.3-0.6,0.3h-0.9l-0.3,0.3
			c-0.5,0.2-0.9,0.1-1.5,0.3c-0.5,0.1-1,0.4-1.5,0.6c-0.4,0.2-0.9,0.6-1.4,0.8c-0.3,0.1-0.7,0.2-1,0.3c-0.2,0.1-0.4,0.5-0.7,0.6
			c-0.4,0.2-0.8,0.1-1.2,0.3c-0.1,0.1-0.2,0.3-0.3,0.4c-0.1,0-0.3-0.1-0.4-0.1c0,0-0.8,0.3-0.9,0.3c-0.1,0.1-0.2,0.3-0.3,0.4
			c-0.3,0.1-0.7,0.2-1,0.3c-0.4,0.3-0.7,0.8-1,1.2c-0.4,0.4-1,0.7-1.4,1.2c-0.4,0.5-0.6,1-1,1.5c-0.1,0.1-0.2,0.1-0.3,0.2
			c0,0.2-0.1,0.3-0.1,0.5c-0.2,0.2-0.5,0.4-0.7,0.6c0,0.1-0.1,0.3-0.1,0.4c-0.2,0.2-0.5,0.3-0.7,0.6c0,0.2-0.1,0.3-0.1,0.5
			c-0.2,0.3-0.7,0.6-0.9,0.9c-0.3,0.7-0.1,1.5-0.3,2.2c-0.1,0.4-0.2,0.8-0.2,1.3c-0.2,0-0.2,0-0.3-0.1v0.1c-0.1,0.2,0.3,0.7,0.3,0.8
			c-0.1,0.2,0,0.1-0.2,0.2c0.1,0.3,0,0.2,0.3,0.3c0.1,0.8,0.5,2.1,1.2,2.6c0.3,0.2,0.6,0.1,0.9,0.3c0.4,0.2,0.8,0.7,1.2,0.9
			c0.8,0.4,1.9,0.2,2.7,0.3c0.2-0.1,0.8-0.4,0.9-0.3c0,0,0.6,0.2,0.9,0.1c0.1-0.1,0.4-0.4,0.7-0.3c0,0.1,0.1,0.2,0.1,0.3
			c0.4,0.2,0.5-0.2,0.8-0.2c0.1,0.1,0.1,0.1,0.2,0.2c0.6,0.1,1.8-0.2,2.2-0.5c0.3-0.2,0.5-0.6,0.9-0.7c0.6-0.2,1.2-0.2,1.8-0.5
			c0.1-0.1,0.1-0.2,0.2-0.3c0.1,0.1,0.1,0.1,0.2,0.2c0,0,0.5-0.1,0.6-0.2c0.3-0.2,0.6-0.7,0.9-0.8c0.5,0,0.9-0.1,1.4-0.1
			c0.6-0.3,1-0.9,1.5-1.3c0.1,0,0.3-0.1,0.4-0.1c0.1-0.1,0-0.3,0.1-0.3c0,0,1.2,0,1.5-0.2c0.1-0.1,0.1-0.3,0.3-0.4
			c0.4-0.3,1.1-0.6,1.5-0.9c0.3-0.2,0.6-0.6,0.9-0.9c0.4-0.3,0.5-0.8,0.9-1.1c0.1,0,0.3-0.1,0.4-0.1l1.3-1.3
			c0.5-0.3,0.9-0.7,1.4-0.9c0.4-0.2,0.9-0.3,1.2-0.6c0.7-0.6,1-1.5,1.5-2.2c0.1-0.2,0.4-0.2,0.5-0.3c0.2-0.1,0.2-0.2,0.3-0.6
			c0.3,0,0.3,0.1,0.5,0c0.4-0.1,1.7-2.1,2-2.6c0.2-0.2,0.6-0.1,0.8-0.3c0.3-0.3,0.2-0.6,0.4-1c0.1-0.2,0.4-0.2,0.5-0.3
			c0.2-0.3,0.1-0.7,0.3-1c0.3-0.4,1-0.6,1.2-1.1v-0.6c0.2-0.4,0.6-0.9,0.8-1.4c0.3-0.8,0.2-1.8,0.4-2.4c0.3-0.8-0.3-1.9-0.1-2.7
			c0.1-0.2,0.2-0.3,0.3-0.5c0-0.4-0.1-0.7-0.1-1.1H395c0-0.2,0.1-0.3,0.2-0.5h-0.3c0.1-0.4,0.4-2.7,0.2-3.2c0-0.1,1-1,1.1-1.1
			c0.2,0,0.3-0.1,0.5-0.1c0.1-0.2,0.3-0.4,0.4-0.6c0.2-0.2,1-0.6,1.2-0.7c0.2-0.1,0.2,0,0.3,0.2h0.2c-0.1-0.1,0-0.1-0.1-0.2
			c0.1-0.7,0.5-0.5,0.9-0.8c0.2-0.1,0.5-0.6,0.6-0.7c0.6-0.4,1.1-0.6,1.6-1c0.2-0.1,0.6-0.5,0.4-0.7c0.1,0,0.2,0.1,0.3,0.1l0.8-0.8
			c0.4-0.3,0.8-0.3,1.1-0.6c0.1-0.1,0.2-0.3,0.3-0.4c0.2-0.1,0.5,0,0.7-0.2c0.1-0.2,0.2-0.3,0.3-0.5h0.2c0-0.2,0.1-0.3,0.1-0.5h0.3
			c0.3-0.2,0.4-0.6,0.7-0.9c1-0.8,2.1-1.7,2.8-2.9c0.2,0,0.2,0,0.3,0.1h0.2c-0.1-1,0.6-1.1,1-1.7c0.2-0.3,0.2-0.7,0.4-0.9
			c0.1-0.1,0.4-0.1,0.5-0.3c0.1-0.1,0.7-0.8,0.8-0.9c0.4-0.6,0.6-1.3,1.1-1.8c0.1,0,0.3-0.1,0.4-0.1c0.1-0.2,0.1-0.3,0.2-0.5
			c0.1,0,0.2-0.1,0.3-0.1c0.1-0.1,0.7-0.9,0.8-1c0.3-0.6,0.1-0.8,0.4-1.4c0.4-0.4,0.8-0.7,1.2-1.1c0.5-0.8,0.7-1.7,1.2-2.5
			c0.2-0.1,0.4-0.3,0.6-0.4c0-0.1,0.1-0.3,0.1-0.4c0.2-0.3,0.5-0.6,0.7-0.9v-0.3c0.1-0.2,0.5-0.3,0.6-0.5c0.2-0.4,0-0.7,0.2-1.1
			c0.1-0.3,0.8-0.4,0.5-1.1c-0.1-0.2-0.4-0.3-0.5-0.4c-0.1-0.2-0.1-0.4-0.2-0.6c-0.5,0-0.8,0.1-1.2,0.3c-0.1,0.3-0.4,0.7-0.4,0.9
			c-0.1,0.4,0.3,0.9,0.1,1.2c-0.1,0-0.2,0.1-0.3,0.1c-0.2,0.3-0.2,0.8-0.4,1.2c-0.1,0.1-0.3,0.2-0.4,0.3l-0.3,0.8
			c-0.1,0.1-0.4,0.2-0.5,0.3c-0.3,0.5-0.4,1.1-0.7,1.5c-0.4,0.7-1.1,1.3-1.6,1.9c-0.2,0.2-0.2,0.5-0.3,0.8c-0.2,0.3-0.6,0.6-0.9,0.9
			v0.3c-0.3,0.6-1.2,1-1.5,1.5c-0.3,0.4-0.4,0.9-0.7,1.3c-0.1,0.1-0.8,0.6-0.9,0.8c0,0.2-0.1,0.3-0.1,0.5c0,0.1-0.8,0.9-0.9,0.9
			c-0.1,0.1-0.3,0.1-0.3,0.2c-0.3,0.4-0.4,0.8-0.7,1.2c-0.3,0.3-0.8,0.5-1.1,0.8c-0.1,0.1-0.2,0.4-0.3,0.5c-0.3,0.3-0.7,0.6-1,0.9
			c-0.1,0.1-0.1,0.1-0.1,0.3c-0.9,0.1-1.2,0.8-1.8,1.2c-0.3,0.2-0.6,0.2-0.9,0.3c-0.1,0.1-0.2,0.3-0.3,0.4c-0.3,0.2-0.7,0.3-1,0.6
			c-0.3,0.2-0.5,0.8-0.9,0.9c-0.4,0.2-0.7,0.2-1,0.4c-0.1,0.2-0.3,0.3-0.4,0.5c-0.5,0.3-0.9,0.2-1.4,0.5c-0.3,0.2-0.5,0.6-0.9,0.8
			c-0.9,0.6-2,0.9-2.8,1.6c-0.6-0.7,0.2-1.8-0.2-2.9c0-0.1-0.2-0.3-0.3-0.3c0-0.3,0.1-0.6,0.1-0.9c-0.1-0.3-0.3-0.9-0.3-1.3
			c0.1-0.6,0.2-2,0-2.8c-0.2-0.7,0.5-1.7,0.1-2.3c0-1.3,2.3-1.9,2.9-2.7h0.3v-0.3c0.6-0.3,1.2-0.8,1.7-1.2c0.1-0.2,0.2-0.3,0.3-0.5
			c0.2,0,0.4-0.1,0.6-0.1c0.1-0.1,0.1-0.4,0.3-0.5c0.4-0.3,0.8-0.4,1.1-0.8c0.2-0.2,0.2-0.5,0.4-0.7c0.5-0.5,1.1-0.8,1.5-1.4
			c0-0.1,0.1-0.2,0.1-0.3c0.3-0.4,0.9-0.6,1.2-1c0.2-0.4,0.4-0.7,0.7-1c0.1-0.1,0.4-0.1,0.5-0.3c0.2-0.3,0.2-0.5,0.4-0.8
			c0.3-0.2,0.5-0.4,0.8-0.6c0.4-0.5,0.5-1.7,0.9-2.1c0.2-0.2,0.5-0.3,0.7-0.5c0.1-0.2,0.2-0.5,0.3-0.6c0.2-0.1,0.3,0,0.4-0.2
			c0.3-0.4,0.4-0.7,0.7-1.1h0.2c0.1-0.3,0.1-0.5,0.2-0.8c0.1-0.1,0.3-0.1,0.3-0.2c0.4-0.5,0.8-1.1,0.9-1.9c0.3,0,0.7-0.2,0.9-0.3
			h0.1v-0.2c-0.4,0.1-0.7,0.2-1.1,0.3c-0.1,0-0.9-1.4-1.5-1.6c-0.4-0.2-0.7,0.1-1.2,0.2c-0.1,0.6-0.5,0.9-0.7,1.3
			c-0.2,0.4-0.2,0.9-0.4,1.3c-0.1,0.1-0.4,0.2-0.5,0.3c0,0.3,0.1,0.7,0.1,1c-0.1-0.1-0.1,0-0.2-0.1h-0.3c0.1,0.2,0.1,0.2,0.2,0.3
			v0.3c-0.1-0.1-0.1-0.1-0.1-0.3h-0.3c-0.1,0.4-0.6,1.3-0.3,1.5v0.3c-0.1-0.1-0.1-0.1-0.3-0.2c-0.4,0.8-0.9,1.5-1.4,2.2h-0.3v0.3
			c-0.9,0.5-1.4,2-2.1,2.7c-0.2,0.2-0.5,0.2-0.8,0.4c-0.3,0.2-0.4,0.7-0.7,0.9h-0.3c-0.1,0.2-0.2,0.4-0.3,0.6
			c-0.3,0.2-0.6,0.1-0.9,0.3c-0.1,0.2-0.1,0.3-0.2,0.5c-0.2,0.3-0.9,0.5-1.2,0.8c-0.3,0.4-0.6,0.7-0.9,1.1c-0.6,0.4-1.5,0.7-1.7,1.5
			c-0.2,0-0.2,0-0.3,0.1c-0.3,0-0.5,0-0.6-0.1c-0.4-0.7-0.1-1.9-0.3-2.8c-0.1-0.6-0.1-1.3-0.3-2.1v-1.1c-0.2-0.6-0.3-2-0.3-2.7
			c0-0.2,0.3-0.6,0.3-0.9c0-0.1-0.2-0.4-0.3-0.4c-0.2-0.6,0.3-0.8,0.2-1.4c-0.3-1.4-0.5-3.8-0.3-5c0-0.2-0.2-0.2-0.3-0.3
			c0-0.3,0.1-0.7,0.1-1c-0.1-0.3-0.2-0.8-0.3-1c0,0,0.1-0.1,0.1-0.1c0.2-1.1-0.2-1.9-0.3-2.7c0.1-0.3,0.1-0.5,0.2-0.8
			c-0.1-0.4-0.3-0.6-0.2-1c0.1-0.6-0.5-0.9-0.3-1.4c0.1-1.3,2.3-1.1,3.3-1.5c0.7-0.3,2.1-0.3,3.3-0.6c0.7,0,1.4-0.1,2.1-0.1
			c0.2,0,0.6,0,0.8,0c0.1,0,0.2-0.3,0.4-0.3c0.4,0.1,1.7,0.3,2.3,0.2c1.4-0.3,3.8-0.1,4.7,0.1c0.8,0.2,1.3,0,2.1,0.3
			c0.5,0.1,0.9,0.5,1.4,0.6c0.4,0.1,0.8-0.1,1,0c0.1,0.1,0.2,0.2,0.3,0.3h0.5c0.2,0.1,0.6,0.4,0.9,0.5c0.6,0.2,1.2,0.1,1.9,0.3
			c0.8,0.2,1.6,0.5,2.3,0.9c0.2,0.1,0.2,0.3,0.3,0.4c0.3,0.1,0.6,0.2,0.9,0.3c0.3,0.2,0.6,0.6,0.9,0.8c0.2,0.1,0.4,0.1,0.6,0.2
			c0.5,0.3,1,0.7,1.5,1c0.1,0,0.3,0.1,0.4,0.1c0.4,0.3,1,0.7,1.5,0.9c0.2,0,0.4,0.1,0.6,0.1c0.2,0.1,0.3,0.4,0.5,0.4
			c0.1,0,0.2-0.1,0.3-0.1c0,0.1,0.1,0.2,0.1,0.3c0.2,0.1,1.2,0.7,1.4,0.8c0.4,0.2,0.8,0.2,1.2,0.4l0.5,0.5c0.3,0,0.5,0.1,0.8,0.1
			c0.3,0.1,0.5,0.5,0.8,0.6c0.5,0.3,1.1,0.4,1.6,0.6c0.3,0.1,0.5,0.5,0.9,0.6c0.6,0.2,1.3,0.4,1.9,0.6h0.4c0.2,0.1,0.3,0.4,0.4,0.5
			c0.3,0.2,0.7,0.1,1,0.3c0.1,0.1,0.1,0.3,0.2,0.3h0.3c0.1,0.1,0.2,0.3,0.3,0.4c0.2,0,0.4,0.1,0.6,0.1c0.1,0.1,0.1,0.3,0.2,0.3
			c0.4,0.3,1.1,0.6,1.5,0.7h0.6c1.1,0.4,2.5,1,3.8,1.5c0.9,0.3,2.2,0.1,2.8,0.3c0.5,0.1,1.3-0.2,1.7-0.1c4.2,1.3,9-0.2,13.4-0.2
			c0,1.3,0,2.1,0.3,3.2c0.2,1-0.3,3.8-0.5,4.7c0,0.4,0.1,0.8,0.1,1.2c-0.2,0.8-0.2,1.5-0.4,2.1v0.9c-0.1,0.5-0.5,0.9-0.6,1.4
			c-0.2,0.5-0.1,0.9-0.3,1.5l-0.8,1c-0.2,0.4-0.1,0.8-0.3,1.2c0,0.1-0.3,0.6-0.4,0.7c-0.1,0-0.2,0.1-0.3,0.1c-0.3,0.4-0.1,0.7-0.5,1
			v0.1c-0.2-0.1-0.1,0-0.2-0.3c-0.4,0.1-0.8,0.3-1.1,0.5c-0.2,0.3-0.5,0.5-0.7,0.8c-0.3,0.2-0.6,0.1-0.9,0.3c-0.4,0.3-0.7,0.8-1.2,1
			c-1.5,0.6-4.4,0.6-6.3,0.5c-0.1-1-1.3-1.2-1.7-2c-0.2-0.4-0.2-0.8-0.4-1.1c-0.2-0.3-0.8-0.4-0.9-0.7c-0.2-0.3-0.1-0.7-0.3-0.9
			l-1.5-0.5l-0.3-0.5c-0.5-0.4-1.6-1-2.2-1.2c-0.5-0.1-0.8,0.2-1,0.3c-0.2,0-0.4-0.1-0.6-0.1c-0.2,0.1-1,0.4-1.2,0.5
			c-0.1,0.1-0.1,0.2-0.2,0.3c-0.3,0.1-0.5,0-0.7,0.2c-0.1,0.2-0.1,0.3-0.2,0.5c-0.2,0.2-0.9,0.1-1.2,0.3c-0.5,0.3-0.8,1-1.2,1.5
			c-0.2,0.2-0.6,0.3-0.8,0.5c-0.1,0.2-0.1,0.4-0.2,0.6v0.5c0.1,0,0.2-0.1,0.3-0.1c0,0,0.1,0.1,0.1,0.1l-0.7,0.7c0,0.5,0.3,0.8,0.3,1
			c-0.1,0.8-0.5,1.9-0.3,2.6c0.3,0.8,0.7,1.9,1.2,2.6c0.2,0.3,0.7,0.4,0.9,0.7c0.4,0.4,0.5,0.9,1,1.2h0.4c0.2,0.1,0.7,1,0.9,1.2
			c0.8,0.5,1.5,0.9,2.5,1.3c0.3,0.1,0.5,0.6,0.9,0.7c0.4,0,0.7,0.1,1.1,0.1c0.9,0.3,2.9,0.8,4.1,0.5c0.8-0.2,1.5-0.6,2.2-0.9
			c0.6-0.2,1.6,0.1,2,0c0.3-0.1,1.1-0.3,1.4-0.5c0.3-0.2,0.4-0.5,0.8-0.6v-0.3c1-0.1,1.6-0.8,2.4-1.1c0.3-0.1,0.9,0,1.4-0.2
			c1.1-0.5,2.2-1.4,3-2.2c0.2-0.2,0.3-0.5,0.5-0.7c0.4-0.4,1.5-0.6,1.9-1c0.8-0.9,0.8-2.5,1.7-3.3c-0.1-0.2-0.2-0.2-0.4-0.3
			c0.2-0.8,0.9-1.5,1.3-2.1v-0.5c0.1-0.3,0.4-0.6,0.5-0.9c0-0.2,0.1-0.5,0.1-0.7c0.2-0.1,0.3-0.3,0.5-0.4c0.4-0.6,0.8-2.4,0.9-3.3
			c0.2,0,0.3,0,0.4,0.1h0.3V360c-0.2-0.1-0.3-0.2-0.6-0.3c0-1.4,0.3-2.1,0.4-3.3c-0.1-0.2-0.1-0.4-0.2-0.6c0.2-1.4,0.2-2.7,0.5-4.1
			c0.1-0.7-0.1-1.2-0.1-1.6c0.2-1.6,0.1-3,0.8-4.3c1.9-0.4,4.9-0.1,6.3-0.8c0.4,0.1,1.5,0.5,2,0.4c0.9-0.1,2.6-0.2,3.3-0.1
			c0.8,0.1,1.8-0.1,2.7,0.1c0.8,0.2,2.1-0.1,2.5,0c0.1,0,0.3,0.2,0.3,0.3c0.6,0.2,1.5,0.2,2,0.3c0.2,0,0.4-0.1,0.6-0.1
			c0.7,0.1,1.4,0.4,2.1,0.3c0.5,0,1.1-0.2,2-0.2c0.6,0,0.9,0.2,1.3,0.3c0.4,0.1,0.7-0.2,0.9-0.2c0.3,0,0.5,0.3,0.7,0.3h1
			c0.7,0.2,1.7,0,2.6,0.3c0.6,0.2,1.2,0.6,2.1,0.3c1-0.2,2.4-0.3,3.3-0.5c0.6-0.2,1.4,0.2,1.9,0.1c1.7-0.3,2.7-0.5,4.1-0.9h0.8
			c0.2-0.1,0.6-0.3,0.8-0.3h1c0.2-0.1,0.6-0.4,0.9-0.5c0.2,0,0.4,0.1,0.6,0.1c0.1-0.1,0.2-0.3,0.3-0.4c0.7-0.5,1.8-0.6,2.6-1.1
			c0.2-0.1,0.4-0.4,0.6-0.5c0.5-0.2,1.1,0.2,1.6-0.1c0.5-0.3,0.6-0.9,1-1.3c0.5-0.5,1.3-0.6,1.9-1l1.5-1.5c0.1-0.1,0-0.3,0.1-0.3
			c0.4-0.3,1-0.5,1.3-0.9c0.7-0.9,1-2,1.6-3c0.3-0.4,0.8-0.8,1-1.3c0.2-0.4,0.2-0.8,0.4-1.2c0.2-0.3,0.6-0.6,0.8-0.9
			c0.3-0.6,0.2-1.1,0.4-1.7c0.2-0.6,0.7-1.2,0.9-1.8v-0.3c0.1-0.1,0.2-0.1,0.3-0.2c0.2-0.3,0.6-1,0.7-1.3l0.3-1.8
			c0.1-0.3,0.6-2,0.6-2.6C533.4,321.6,533.2,321,533.2,320.9z M340.1,357.2L340.1,357.2l-0.1-0.2h0.1V357.2z M341.6,357.5h-0.3v-0.2
			C341.4,357.3,341.5,357.4,341.6,357.5L341.6,357.5z M342.1,357.5h0.3C342.3,357.6,342.3,357.6,342.1,357.5z M385,362.4
			c-1.3,0.5-2.9,0.2-4.4,0.6c-0.6,0.2-1.4,0.4-2.1,0.7c-0.2,0.1-0.3,0.3-0.5,0.4c-0.7-0.2-2-0.1-3.1-0.1c-0.4-0.1-0.9-0.1-1.3-0.2
			c-0.1,0-0.4,0.3-0.4,0.3c-0.1-0.1-0.1-0.1-0.2-0.2c-0.2,0-0.3,0.2-0.3,0.2c-0.3,0-0.2-0.1-0.3-0.2c-0.3,0-0.6,0.1-0.9,0.1
			c-3.1-0.6-5.6-1.1-8.3-2.1c-0.3,0-0.6-0.1-0.9-0.1c-1.6-0.5-3.4-0.7-5.1-1.2c-0.9-0.3-1.7-0.7-2.5-1c-0.9-0.3-1.9-0.1-2.7-0.5
			c-0.6-0.3-1.2-1-1.9-1.1c-0.1-0.1,0-0.1-0.1-0.2c0.2-0.8,2-2,2.7-2.5c0.6-0.6,1.1-1.2,1.7-1.8c1.2-0.9,2.3-1.6,3.6-2.4
			c0.2-0.2,0.4-0.5,0.6-0.7c0.4-0.3,1.7-1.4,2.1-1.5c0-0.1,0.1-0.3,0.1-0.4h0.3c0.5-0.7,1.4-1.1,2.1-1.6c0.5-0.3,0.8-0.9,1.3-1.2
			c0.4-0.3,0.9-0.4,1.4-0.7c0.1-0.1,0.2-0.2,0.3-0.3c0.2-0.1,0.4-0.1,0.6-0.2c0-0.1,0.1-0.2,0.1-0.3c0.2-0.2,0.6-0.4,0.8-0.5
			c0.3-0.2,0.5-0.1,0.9-0.3c0.4-0.2,0.8-0.7,1.2-0.9c0.4-0.1,0.9,0.1,1,0c0-0.1,0-0.1-0.2-0.2c0.3-0.7,1.9-1.3,2.5-1.8
			c0.1-0.1,0.1-0.2,0.2-0.3c0.1,0,0.3-0.1,0.4-0.1c0-0.1,0.1-0.2,0.1-0.3c0.2,0,0.3-0.1,0.5-0.1c0-0.1,0.1-0.2,0.1-0.3
			c0.3-0.2,0.6-0.1,0.9-0.3c0.1-0.1,0.2-0.3,0.3-0.3c0.3-0.2,0.7-0.1,1-0.3c0.1-0.2,0.3-0.3,0.4-0.5c0.3-0.1,0.6-0.2,0.9-0.3
			c0.4-0.2,0.9-0.5,1.3-0.8c0.3-0.1,0.6-0.1,0.9-0.2c0.4-0.2,1.1-0.7,1.5-0.9h0.8c0,0,0.3-0.2,0.3-0.3c0.4-0.1,0.8,0,1-0.2
			c0.2,0,0.2,0,0.3,0.1c0.6,0.9,0.1,4.2,0.8,4.7c-0.2,0.9-0.1,1.4,0.1,2.1c0.1,0.3-0.2,1,0,1.7c0,0.2,0.1,0.6,0.1,0.9
			c-0.1,0.3-0.3,1.4-0.1,1.9c0.1,0,0.2,0.1,0.3,0.1c0.1,0.2-0.2,1.2-0.1,1.7c0,0.3-0.2,1.1-0.1,1.6c0.2,1.3,0.3,3.6,0.1,4.6
			c-0.1,0.3,0.1,1,0.2,1.3c0.1,1.1,0.4,2.4,0.3,3.2c-0.1,0.4,0.2,0.6,0,0.9C385.1,361.1,385.2,361.9,385,362.4z M341.2,379.7
			c0.1,0.1,0.1,0,0.2,0.1C341.3,379.7,341.3,379.8,341.2,379.7z M385.6,378.9c-0.4,0.2-0.9,0.4-1.4,0.5v-0.1c0,0-0.1-0.1-0.1-0.1
			c0.3-0.1,0.9-0.2,1.1-0.4L385.6,378.9L385.6,378.9z M385.2,397.9c0.1,0.1,0.1,0,0.2,0.1C385.2,398,385.3,398,385.2,397.9z
			 M386,397.4c0.1,0.1,0.1,0,0.2,0.1C386,397.5,386.1,397.5,386,397.4z M385.8,392.6l0.3,0.3c-0.9,0.7-1.4,1.9-2.1,2.8
			c-0.7,0.9-1.8,1.3-2.7,2c-0.6,0.4-1.1,1-1.6,1.5c-0.4,0.3-1,0.4-1.4,0.8c-0.2,0.2-0.3,0.6-0.6,0.8c-0.9,0.6-3.5,1.3-3.7,2.4
			c-1.3-0.2-3.6,1.9-4.7,2.5h-0.4c-1,0.4-2.3,0.6-3.4,0.9h-1.2c-0.7,0.2-1.2,0.8-2.1,0.7c-1.4-0.2-2.3-1.1-3.2-1.8
			c0.1-0.2,0.3-0.3,0.3-0.5c0-0.1-0.3-0.3-0.3-0.4c-0.1-0.1-0.1-1.2-0.1-1.4l0.3-0.3c0.1-0.3-0.1-0.5,0-0.8c0-0.2,0.3-0.4,0.3-0.6
			c0-0.1-0.1-0.2-0.1-0.3c0.1-0.4,0.6-0.7,0.8-0.9c0.3-0.4,0.3-0.8,0.6-1.1c0.4-0.5,0.9-0.9,1.4-1.3c0.9-0.9,1.8-2.1,3-2.7
			c0.4-0.2,0.6-0.1,1.1-0.3c0.8-0.2,1.7-0.6,2.5-0.9h0.5c0-0.1,0.1-0.2,0.1-0.3h0.3c0.1,0,0.1-0.3,0.2-0.3c0.3,0,0.6,0.1,0.9,0.1
			c0.2-0.1,0.7-0.5,0.9-0.5c0.2-0.1,0.6,0.1,0.8,0.1c0.3-0.1,0.9-0.3,1.3-0.4c0.1,0,0.3-0.3,0.4-0.3c0.2,0,0.4,0.1,0.6,0.1
			c0.2,0,0.5-0.3,0.7-0.3h1c1.1-0.4,2.4-1,3.4-1.5c0.3,0,0.6-0.1,0.9-0.1c0.2-0.1,0.7-0.4,0.9-0.4c0.3-0.1,0.2,0.1,0.4,0.2
			c0.8,0.1,2.1-0.1,2.5-0.3c0.4,0.2,1,0.4,1.5,0.4c0.1,0.5-0.1,1,0.3,1.4C386.2,391.8,386.1,392.4,385.8,392.6z M438.8,373.3
			c-0.3,0-0.2-0.1-0.4-0.2V373C438.6,373,438.6,373.1,438.8,373.3L438.8,373.3z M441.8,363.5h0.3c0,0,0.1,0.1,0.1,0.1
			c0,0.2,0,0.2-0.1,0.3c-0.1,0.1-0.3,0-0.4-0.2h-0.1C441.7,363.7,441.8,363.6,441.8,363.5z M443.8,376.2c-1.1-0.1-1.8-0.8-2.7-0.9
			v-0.3c0.7,0.1,1.3,0.6,1.8,0.9c0.3,0.1,0.7,0,0.9,0.2h0.2C443.9,376.1,443.9,376.1,443.8,376.2z M444.2,376.1
			c0.1,0.1,0.1,0,0.2,0.1C444.3,376.2,444.3,376.2,444.2,376.1z M448.8,377.1c-0.2,0.2-0.7,0.1-0.9,0.3c-0.2,0-0.2,0-0.3-0.1h-0.1
			c0.2-0.4,1-0.2,1.2-0.4h0.1C448.8,377,448.8,377,448.8,377.1z M450.1,376.9h-0.2v-0.1c0.2-0.1,0.2-0.1,0.3-0.3h0.2
			C450.3,376.7,450.2,376.7,450.1,376.9z M467.4,322.7c-0.3,0.1-0.4,0.2-0.6,0.4h-0.1v-0.2l0.3-0.3c0.2,0,0.2,0,0.3-0.1L467.4,322.7
			L467.4,322.7L467.4,322.7z M446.3,293.8c0-0.1,0.1-0.8,0.3-1.1c0.1-0.1,0.3-0.1,0.3-0.2c0.2-0.3,0.1-0.8,0.2-1.2
			c0.1-0.4,0.5-0.9,0.6-1.2c0-0.2,0.1-0.5,0.1-0.7c0.1-0.2,0.4-0.3,0.5-0.5c0.1-0.3,0.1-0.5,0.2-0.8c0.1-0.1,0.4-0.1,0.4-0.3
			c0.2-0.4,0.4-0.9,0.4-1.5c0.8,0.7,1.5,3.6,1.9,4.8c0,0.2,0.1,0.5,0.1,0.7c0.1,0.1,0.2,0.2,0.3,0.3c0.2,0.5,0.1,0.9,0.3,1.4
			c0.1,0.3,0.5,0.8,0.6,1.2c0.1,0.4,0.1,0.8,0.2,1.2c0.4,0.8,1.2,1.8,1.5,2.7c0,0.3,0.1,0.6,0.1,0.9l0.3,0.3c0,0.4,0.1,0.9,0.1,1.3
			c0.1,0.2,0.3,0.5,0.4,0.7c0.1,0.5,0.2,1,0.3,1.5c0.1,0.2,0.3,0.6,0.4,0.9v0.8c0.2,0.5,0.6,1.3,0.9,1.8c0.2,0.5,0.2,1,0.4,1.4
			c-0.1,1-0.9,1.5-1.5,2c0,0.1-0.1,0.2-0.1,0.3H455c-0.5,0.2-1.1,0.3-1.6,0.5c-0.3,0.1-1.1,0.5-1.5,0.3c-0.2-0.1-0.7-0.2-0.9-0.3
			c-0.1-0.2-0.3-0.3-0.4-0.5c-0.2-0.1-0.5,0-0.7-0.1c-0.4-0.3-0.6-1-1-1.3c-0.3-0.2-0.6-0.3-0.8-0.6c-0.2-0.2-0.2-0.5-0.3-0.8
			c-0.2-0.2-0.6-0.3-0.8-0.5c-0.1-0.2,0-0.4-0.2-0.6c-0.2-0.2-0.5-0.1-0.7-0.3c-0.2-0.2-0.4-0.8-0.5-1h-0.1
			c-0.2-0.6-0.1-2.5-0.1-3.3c0-2,0-4.4,0.3-6.1c0.1-0.6,0.4-0.7,0.4-1.5c0.1,0,0.2-0.1,0.4-0.1L446.3,293.8z M441.8,245.2
			c0-0.9,0.1-1.8,0.1-2.7c0.2-0.5,0.4-1,0.6-1.5c0.1-0.3-0.1-0.4-0.1-0.7c0.1-0.3,0.2-0.9,0.3-1.3V238c0.2-0.6,0.6-1.3,0.9-1.9
			c0-0.2,0.1-0.5,0.1-0.7c0.2-0.4,0.5-0.9,0.7-1.4c0.1-0.4,0-0.7,0.2-1c0.2-0.4,0.6-0.7,0.9-1c0.3-0.4,0.3-1,0.6-1.5
			c0.1-0.2,0.4-0.3,0.5-0.4c0.2-0.3,0.2-0.8,0.4-1.1c0.1-0.1,0.3-0.1,0.3-0.2c0.2-0.2,0.2-0.5,0.3-0.7c0.2-0.2,0.5-0.3,0.7-0.4
			c0.3-0.2,0.4-0.6,0.6-0.8c0.3-0.3,0.9-0.3,1.2-0.6c3.3,0,5,1.3,6.1,3.8c0.2,0.3-0.1,0.7,0,1.2c0.1,0.4,0.5,1.2,0.4,1.8
			c-0.1,0.7-0.3,1.3-0.5,1.9c0.1,0.2,0,1.2-0.2,1.6c-0.2,0.5-0.6,1.1-0.4,1.9c0.1,0.4-0.3,1.2-0.5,1.6c-0.5,1.1-0.8,2.2-1.5,3.3
			c-0.2,0.3-0.6,0.6-0.8,0.9c-0.4,0.7-0.5,1.6-0.9,2.3c-0.2,0.2-0.5,0.5-0.7,0.7c-0.5,0.8-0.8,1.6-1.4,2.4c-0.2,0.3-0.6,0.6-0.9,0.9
			c-0.1,0.2-0.1,0.3-0.2,0.5c-0.3,0.5-0.9,0.9-1.3,1.4c-0.2,0.3-0.3,0.7-0.6,1c-0.2,0.1-0.4,0.2-0.6,0.3c-0.4,0.3-0.6,1-0.9,1.5
			c-0.2,0.1-0.4,0.3-0.6,0.4c-0.2,0.3-0.2,0.6-0.4,0.9c-0.3,0.5-0.9,0.9-1.2,1.4c-0.1,0-0.2-0.1-0.3-0.1c-0.5-1.3-0.1-3.2-0.6-4.8
			c0-0.1-0.2-0.3-0.3-0.4c-0.1-1.1-0.1-2.1-0.2-3.2C441.6,248.4,441.6,246.3,441.8,245.2z M442.5,325.3c0.1,0.1,0.1,0,0.2,0.1
			C442.6,325.3,442.6,325.4,442.5,325.3z M443.3,325.6c0.2,0.1,0.2,0.1,0.3,0.3C443.2,325.7,443.3,325.9,443.3,325.6z M459.8,320.3
			c-0.2,0.1-0.6,0.4-0.8,0.5c-0.4,0.1-0.9,0.1-1.3,0.2c-0.6,0.3-1.1,0.7-2,0.8c-0.2,0.3-0.2,0.3-0.2,0.6c-1.6,0-2.6-0.1-3.9,0.2
			c-0.5,0.1-1.3-0.2-1.6-0.1c-0.4-0.1-1-0.4-1.3-0.5c-0.7-0.2-2.1-0.1-2.7-0.3c-1-0.2-1.9-0.8-2.7-1.1c-0.4-0.1-0.6,0-1-0.2
			c-0.2-0.1-0.4-0.3-0.5-0.4c-0.2,0-0.5-0.1-0.7-0.1c-0.3-0.2-0.7-0.6-1-0.8c-0.3-0.2-0.7-0.2-0.9-0.4c-0.2-0.2-0.4-0.4-0.6-0.6
			c-0.2-0.1-0.4-0.1-0.6-0.2c-0.2-0.2-0.4-0.5-0.6-0.7c-0.6-0.4-1.1-0.9-1.6-1.3c-0.6-0.4-1-1-1.5-1.5c-0.2-0.2-0.6-0.3-0.7-0.5
			c-0.1-0.1,0.1-0.3,0.1-0.3h-0.3c-0.2-0.1-0.6-0.4-0.7-0.6c-0.2-0.3-0.2-0.5-0.3-0.8c-0.1-0.1-0.4-0.2-0.5-0.3
			c0-0.2-0.1-0.3-0.1-0.5c-0.1,0-0.2-0.1-0.3-0.1c-0.1-0.2-0.1-0.3-0.2-0.5c-0.1-0.2-0.4-0.3-0.5-0.4c0-0.1-0.1-0.3-0.1-0.4
			c-0.1-0.1-0.3-0.1-0.4-0.3c-0.2-0.2-0.2-0.5-0.3-0.7v-0.2h-0.3c-0.2-0.2-0.4-0.4-0.6-0.6c-0.5-1-1-2.1-1.5-3.1
			c-0.1-0.3-0.1-0.5-0.2-0.8c-0.1-0.1-0.2-0.1-0.3-0.2c-0.2-0.3-0.3-1-0.4-1.3c-0.2-0.5,0-0.9-0.2-1.4c-0.1-0.3-0.4-0.7-0.5-0.9
			c-0.2-0.5-0.1-0.8-0.3-1.2c0.1-0.3,0.2-1.1,0-1.5c-0.1-0.1-0.2-0.1-0.3-0.2c-0.1-0.2,0.1-0.4,0.1-0.5c-0.2-1.1-0.7-2.6-0.3-3.4
			c0.1-0.2-0.1-0.6-0.1-0.7c-0.1-0.7,0-2.9,0.3-3.3c0-0.4,0-0.5,0.3-0.6c-0.4-1.2,0.1-1.8,0.4-2.8c0.1-0.3-0.1-0.7,0-1.2
			c0.3-1.2,0.6-2.6,1.3-3.7h0.3c0-0.9,0.6-0.9,0.8-1.4c0-0.3-0.1-0.5-0.1-0.8c0.1-0.1,0.2-0.1,0.3-0.2c0.1-0.3,0-0.5,0.2-0.8
			c0.1-0.2,0.5-0.3,0.6-0.5c0-0.1-0.1-0.2-0.1-0.3c0,0,1.1-2,1.1-2h0.3l0.3-0.8c0.2-0.3,0.5-0.6,0.7-0.9c0.2-0.3,0.1-0.7,0.3-0.9
			c0.2-0.3,0.7-0.4,0.9-0.7c0.2-0.3,0.2-0.7,0.4-1c0.4-0.6,1-1.3,1.5-1.9c0.4-0.5,1.1-0.9,1.5-1.5c0.2-0.2,0.3-0.6,0.5-0.8
			c0.1-0.1,0.3,0,0.3-0.1c0.5-0.6,0.9-1.6,1.5-2c0.5-0.3,0.9-0.4,1.4-0.7c0.4-0.2,0.4-0.7,0.9-0.9v-0.3c0.1,0,0.3-0.1,0.4-0.1
			c0,0,0.1,0.1,0.1,0.1c0.2,0.4,0.2,0.9,0.3,1.4c0.1,0.2,0.4,0.5,0.5,0.8c0.1,0.3,0.1,0.7,0.2,1c0.1,0.3,0.5,0.8,0.6,1.1
			c0.3,0.9,0.2,1.7,0.6,2.5c0.1,0.2,0.4,0.4,0.4,0.5v0.5c0.1,0.3,0.4,0.9,0.5,1.2c0,0.4,0.1,0.8,0.1,1.2c0.2,0.5,0.7,1,0.9,1.5
			c0.1,0.2,0,0.5,0.1,0.6v0.5h-0.1c-0.1,0.1-0.3,0.1-0.3,0.3c-0.2,0.3-0.1,0.7-0.3,0.9c-0.1,0.8-0.9,0.6-1.2,1.1
			c-0.1,0.3-0.1,0.5-0.2,0.8c-0.2,0.3-0.7,0.4-0.9,0.7c-0.2,0.2-0.2,0.5-0.3,0.8c-0.2,0.3-0.6,0.6-0.8,0.9v0.3
			c-0.3,0.2-0.6,0.5-0.9,0.7c-0.2,0.3-0.2,0.8-0.5,1c-0.2,0.2-0.6,0.4-0.8,0.7c-0.4,0.7-0.8,1.8-1,2.3c-0.1,0.6-0.1,1.1-0.2,1.7
			c-0.3,0.8-0.7,1.8-0.9,2.7c0,0.3,0.1,0.6,0.1,0.9c-0.1,0.2-0.4,0.3-0.4,0.5c-0.1,0.6-0.1,1.3-0.2,1.9c0,0.1,0.3,0,0.2,0.3
			c0,0-0.3,0.2-0.3,0.3c0,0.3,0.1,0.5,0.1,0.8c-0.3,1.1-0.3,2.5-0.2,3.5c0.2,1.6-0.6,2.7-0.3,4.3c0.2,0.9,0.7,1.9,0.9,2.8
			c0,0.2-0.1,0.5-0.1,0.7c0.1,0.2,0.4,1.4,0.5,1.6c0.1,0.2,0.5,0.4,0.6,0.7c0.1,0.3,0,0.5,0.2,0.7c0.4,0.3,1.2,0.8,1.5,1.4v0.3
			c0.3,0.6,1.2,1,1.6,1.5c0.1,0.1,0.1,0.6,0.1,0.6h0.3c0.1,0.1,0.1,0.2,0.2,0.3c-0.1,0.1,0,0-0.2,0.1c0.2,0.4,0.5,0.3,0.6,0.4
			c0,0.1,0.1,0.3,0.1,0.4c0.2,0.1,0.5,0.2,0.7,0.3c0.7,0.5,1.2,1.1,2.1,1.5c0.2,0,0.5,0.1,0.7,0.1c0.4,0.2,1,0.7,1.5,0.9
			c0.2,0,0.5,0.1,0.7,0.1c0.2,0.1,0.4,0.4,0.6,0.4c0.5,0.1,1.3,0,1.9,0.2c0.4,0.1,1.5,0.5,2.1,0.3c0.1,0,0.3-0.2,0.3-0.3
			c0.3,0,0.6,0.1,0.9,0.1c0.4-0.1,0.9-0.2,1.4-0.3c0.3-0.1,0.7-0.4,1-0.5c0.4-0.1,0.7,0.1,0.9,0c0.3-0.1,0.7-0.3,1-0.4
			c0.3-0.1,0.6,0,0.8-0.1c1.3,0,1,1.9,1.5,2.7C460.8,320.4,460.4,320.1,459.8,320.3z M464.1,318.7c-0.7-0.2-0.9-2.4-1.4-3
			c0.1-0.9,1.2-1.2,1.6-1.8c0.5-0.7,0.9-1.6,1.5-2.1c0.1-0.1,0,0,0.3,0c0.6-1.4,1.9-2.7,2.1-4.5h0.3c0-0.9,0.3-2.1,0.6-2.9
			c0-0.1-0.1-0.2-0.1-0.3c0.2-1.1,0.1-2.2,0.3-3.3c0.3-1.4-0.8-3.5-0.1-4.4v-0.1c-0.2,0.1-0.2,0.1-0.3,0.2c-0.4-0.5-0.4-1.2-0.8-1.8
			c-0.3-0.7-1-1.1-1.5-1.7c-0.1-0.1,0-0.3-0.2-0.4c-0.6-0.4-1.2-0.1-1.7-0.4c-0.1-0.1-0.1-0.2-0.2-0.3c-0.5-0.3-1.2-0.1-1.7-0.4
			c0-0.1-0.1-0.2-0.1-0.3c-0.1-0.1-0.5-0.2-0.6-0.3c-1-0.3-4.2-0.2-4.9,0c-0.7,0.2-1.2-0.1-1.7,0.4c-0.3,0.3-0.3,0.8-0.3,1
			c0,1.1,0.9,1.5,1.3,2.2c0.2,0.3,0.1,0.6,0.3,0.8l-0.3,0.3c0.8,0.6,2.5,0.8,3.1,1.7c0.8,1.1,1,3.6,0.7,5v1.2
			c-0.2,0.6-0.7,1.3-1,1.9c-0.7-0.2-0.5-1.1-0.7-1.8c-0.2-0.8-0.7-1.6-1-2.2c-0.2-0.4-0.1-0.7-0.3-1c-0.1-0.1-0.2-0.1-0.3-0.2
			c-0.1-0.2,0-0.5-0.1-0.7c-0.1-0.1-0.4-0.5-0.4-0.6v-1c-0.1-0.2-0.4-0.5-0.4-0.7c0-0.5-0.1-0.9-0.1-1.4c-0.1-0.4-0.3-0.6-0.4-0.9
			c0-0.1,0.1-0.2,0.1-0.3c-0.2-0.6-1-1-1.2-1.5c-0.5-1.2-0.4-2.8-0.9-4c-0.8-2.1-1.9-3.9-2.3-6.3c0.1-0.2,0.3-0.4,0.4-0.6
			c0.3-0.2,0.6-0.3,0.8-0.5c0.1-0.1,0.1-0.2,0.2-0.3c0.3-0.1,0.6-0.2,0.9-0.3c0.3-0.1,0.8-0.4,1.1-0.6c0.1-0.1,0.1-0.3,0.3-0.4
			c0.6-0.5,1.3-0.4,1.8-1.1c0.3,0,0.3,0.1,0.5,0.2c0.6-1.1,2.4-1.5,3.7-1.8c0.6,0.1,1.1,0.1,1.7,0.2c0.7,0,1.2-0.1,1.9,0
			c0.5,0,1-0.1,1.5-0.1c0.7,0.2,1.7,0.5,2.4,0.7h0.9c0.3,0.1,0.6,0.5,0.9,0.6h0.4c0.7,0.4,1,1.4,1.5,2.1c0.3,0.4,0.8,0.7,1,1.1
			c0.2,0.3,0.2,0.7,0.4,1c0.7,1.2,1.4,2.6,2.1,3.8c0.3,0.7,0.2,1.4,0.4,2.1c0.1,0.2,0.5,1.3,0.7,1.5c0.1,0,0.2,0.1,0.3,0.1v0.9
			c0.2,1,0.2,1.9,0.3,3c0.1,1.3-0.3,2.9-0.6,4c-0.2,0.7,0,1.2-0.2,1.9c-0.2,0.6-0.4,1.5-0.5,2.1c0,0.1,0.1,0.4,0,0.7
			c-0.3,0.8-0.8,1.6-1,2.3c-0.1,0.4,0,0.9-0.1,1.1c-0.1,0.2-0.4,0.4-0.5,0.6c-0.4,1.1-0.4,2.5-0.7,3.4c-0.4,1.2-1.5,2.2-2.4,2.9
			c-0.5,0.4-0.8,1-1.5,1.1v0.3c-1.1,0.4-2.4,2-3.5,2.7C465.8,317.9,464.5,318.2,464.1,318.7z M457.8,294.9v0.2h-0.2v-0.2H457.8z
			 M529.8,346.4c-0.4,0.5-0.8,0.6-1.4,0.9c-0.1,0.1-0.2,0.3-0.3,0.4c-0.4,0.4-0.9,0.7-1.3,1.1c-0.2,0.2-0.1,0.6-0.3,0.7
			c-1.3,0.9-2.7,1.5-4.3,2.1c-0.3,0.1-0.5,0.5-0.9,0.7c-0.8,0.3-1.4,0.3-2.1,0.6c-0.1,0.1-0.2,0.3-0.3,0.3c-0.4,0.1-0.7,0.2-1.1,0.3
			c-0.9,0.4-1.8,1-2.7,1.3c-0.3,0.1-0.5,0-0.9,0.2c-0.6,0.3-1.3,1-2.1,0.8c-0.2,0.2-0.3,0.4-0.5,0.6h-0.3c-0.4,0.2-0.7,0.6-1.1,0.7
			c-0.1,0-0.3-0.1-0.4-0.1c-0.4,0.1-0.8,0.1-1.2,0.3h-0.9c-0.5,0.2-1.3,0.5-2,0.6c-0.3,0-0.2-0.2-0.5-0.2c-0.9,0.1-0.6,0.3-1.5,0
			c-0.5-0.1-2.7,0.2-3.1,0.3c-0.3,0-0.6-0.1-0.9-0.1c-0.7,0.1-2.3,0.1-3,0c-1-0.2-2.4,0.3-3.2,0.2c-1.1-0.2-2.5-0.4-3.8-0.9
			c-0.2,0-0.4,0.1-0.6,0.1c-0.1-0.1-0.1-0.2-0.2-0.3c-0.3,0-0.6-0.1-0.9-0.1c-0.1-0.1-0.2-0.2-0.3-0.3c-0.3-0.1-0.6-0.1-0.9-0.2
			c0-0.1-0.1-0.1-0.1-0.2c-0.9-0.4-3.1-0.5-3.7-1.1c-0.3,0.1-0.3,0.1-0.5,0.3c0,0.3,0.1,0.2-0.1,0.4c0,1.1,0.9,0.8,1.5,1
			c0.3,0.1,0.5,0.4,0.8,0.5h0.9c0.8,0.3,1.7,1,2.6,1.3c0.9,0.3,2,0.4,2.8,0.7c0.2,0.1,2.2,0.3,2.3,0.3c0.1-0.1,0.2-0.1,0.3-0.2
			c0.6,0.2,1.3,0.3,2.2,0.2c3-0.6,6,0.1,8.7-0.3c0.3,0,0.8,0.1,0.9,0.1c0.5-0.1,0.9-0.1,1.4-0.3c0.4-0.1,1,0.2,1.2,0.1
			c0,0,0.1-0.2,0.2-0.3c0.3,0,0.7-0.1,1-0.1c0.7-0.2,1.2-0.3,1.9-0.5c1.2-0.5,2.7-1.2,3.8-1.9c0.4,0.2,2.9-1.2,3.3-1.4
			c1.3-0.6,2.9-0.7,4.1-1.5c0.3-0.2,0.6-0.5,0.9-0.7h0.4c0.1-0.2,0.2-0.3,0.3-0.5c0.4-0.2,0.9,0,1.3-0.3c0.1-0.1,0.1-0.3,0.2-0.3
			c0.6-0.4,1.3-0.6,1.9-1c0.7-0.5,1.1-1.4,1.8-1.9c0.5-0.4,1.5-1,1.2-1.8C530.4,346.7,530.2,346.5,529.8,346.4z M527.9,358
			c-0.4,0.2-0.8,0.1-1.1,0.3c-0.8,0.5-1.4,1.4-2.2,1.9h-0.3l-0.5,0.5c-0.2,0-0.4,0.1-0.6,0.1c-0.1,0.1,0,0.3-0.1,0.4
			c-0.3,0.2-0.6,0.4-0.9,0.6c0,0.1-0.1,0.3-0.1,0.4c-0.6,0.1-0.8,0.3-1.2,0.6c-0.3,0.2-0.8,0.2-1.1,0.4c0,0.1-0.1,0.2-0.1,0.3
			c-0.2,0.2-0.6,0.2-0.9,0.3c-0.5,0.4-1.2,1-1.8,1.3c-1.5,0.8-3,1.2-4.8,1.9c-0.6,0.2-1.5,0.7-2.1,0.9c-0.3,0.1-0.8-0.2-1-0.1
			c-0.1,0-0.3,0.2-0.3,0.3c-0.3,0.1-0.7-0.1-0.9-0.1c-0.5,0.1-1.4,0.4-2,0.5c-0.3,0.1-0.7-0.1-1-0.1c-0.2,0-0.6,0.2-0.8,0.3
			c-0.7,0.2-1-0.6-1.6-0.1c-0.6,0.3,0,0.7-0.3,0.9c0.1,0.3,0.3,0.3,0.4,0.5c0.7,0,1,0,1.7,0.1v0.3c0.3-0.1,0.4-0.4,0.6-0.4
			c0.3-0.1,1,0.2,1.4,0.1c0.8-0.3,2.2-0.4,3.3-0.7c0.1,0,0.3,0.1,0.4,0.1c0.5-0.1,1.3-0.4,1.8-0.6c0.4-0.1,0.7-0.1,1.1-0.2l0.5-0.5
			c0.4,0,0.7-0.1,1.1-0.1c0.3-0.1,0.6-0.5,0.9-0.6c0.8-0.3,1.6-0.4,2.2-0.9c0.1-0.1,0-0.3,0.1-0.3c0.3-0.1,0.6-0.2,0.9-0.3
			c0.6-0.3,1.3-1,1.9-1.4c0.5-0.3,1-0.3,1.5-0.6c0.7-0.4,1.3-1.3,2.1-1.5c0.1-0.1,0.1-0.1,0.3-0.1c0.1-0.6,0.3-0.3,0.8-0.5
			c0.7-0.4,1.3-1.1,2.1-1.5v-0.3h0.3c0.9-1,2.8-1.6,2.7-3.3C529,356.8,528.7,357.7,527.9,358z"/>
	</g>
</g>
</svg>
