<?xml version="1.0" encoding="utf-8"?>
<!-- Generator: Adobe Illustrator 21.0.0, SVG Export Plug-In . SVG Version: 6.00 Build 0)  -->
<svg version="1.1" id="Calque_1" xmlns="http://www.w3.org/2000/svg" xmlns:xlink="http://www.w3.org/1999/xlink" x="0px" y="0px"
	 viewBox="0 0 841 595" style="enable-background:new 0 0 841 595;" xml:space="preserve">
<style type="text/css">
	.st0{fill:#DADADA;}
	.st1{fill:#1D1D1B;}
</style>
<g>
	<g>
		<path class="st0" d="M477.4,307.8c-0.1-0.7-0.2-1.3-0.3-2h-0.3c0-0.2,0-0.4,0.1-0.4c-0.3-0.2-0.6-0.5-0.7-0.9
			c-0.3-0.8,0.1-4,0.2-4.5c0.2-0.8,1.3-3.6,1.1-4.3c-0.2-1-1.4-2.1-1.8-3.3c-0.2-0.4,0.2-1.7,0.3-2.2c0.2-0.9-0.1-1.8-0.3-2.4
			c-0.1,0-0.1,0.1-0.2,0.1v-0.1c-0.5-0.4-1.7-1.2-2.1-1.9c-0.4-0.7-0.6-2-0.6-3c0-0.2,0.3-0.7,0.1-1.1c-0.2-0.4-0.6-1-0.8-1.4
			c-0.1-0.3,0-0.5-0.2-0.8c-0.4-0.7-1.2-1.6-1.9-2.1c-0.6-0.4-1.3-0.6-1.7-1.1c-0.8-1-1.4-2.1-1.9-3.1c-0.1-0.2-0.1-0.9-0.4-1.3
			c-0.1,0.2,0,0.1-0.1,0.2c-0.1-0.5,0-0.6-0.5-0.6c-0.2-0.2-0.9-0.2-0.9-0.2c-0.2-0.1-1.5-1.5-1.6-1.7c-1-1.6-1.9-3.8-3.4-4.9
			c-0.6-0.5-1.6-0.2-2-0.5c-0.1,0.1,0.1,0.3-0.2,0.2c-0.2,0-0.4-0.3-0.7-0.4c-0.3-0.1-0.6,0-0.8-0.1c0.2-0.1,0.1,0,0.2-0.1
			c-0.4-0.1-0.5-0.2-1-0.3c0-0.2,0-0.2-0.1-0.3c-0.9-0.8-2.6-1.3-2.8-2.8c-0.1-0.2-0.1-1.7-0.7-2c-0.6-0.3-2.4-0.7-2.6-1.8h-0.3
			v-0.5c-0.1,0-0.2,0.1-0.3,0.1c-0.1-0.4-0.4-0.8-0.6-0.8v-0.4c-1-0.4-1.4-1.9-2.3-2.5c-0.3-0.2-0.7-0.3-1-0.6
			c-0.3-0.3-0.5-0.8-0.8-1.1h-0.4c-0.2-0.2-0.3-0.6-0.6-0.8c-1.6-1-5-0.5-6.7,0.2c0-0.1,0.1-0.1,0.1-0.2c0,0-0.8-0.1-1-0.2
			c-0.9-0.5-1.4-1.4-2.6-1.6v-0.3c-0.4-0.1-0.2-0.1-0.6-0.1c0-0.3-1.2-1.6-1.6-1.7c0-0.2,0-0.2-0.1-0.3c-0.1-0.1-0.2,0-0.3-0.1
			c0-0.1-0.1-0.3-0.1-0.4c-0.2,0-0.3,0.1-0.5,0.1c-0.2-0.1-0.2-0.3-0.3-0.4c-0.3-0.2-2.1,0.1-3,0c-1.2-0.2-1.8-1.1-2.8-1.2v-0.3
			c-0.5,0.1-3.7-1.8-3.8-1.9c-0.1-0.2,0-0.1,0-0.3c-0.4,0-0.5-0.1-0.7-0.3c0.2-0.1,0.1,0,0.2-0.1l-0.1-0.1c-0.6,0-0.7-0.3-1.2-0.4
			c-0.3,0-0.1,0.3-0.5,0.2c-0.1,0-0.1-0.3-0.4-0.2c-1.4,0.4-4.4,1.3-6.1,0.8v-0.2c-0.3-0.1-1.6,0.1-2.1,0c-0.2,0-0.5-0.4-0.7-0.5
			h-0.5c-0.4-0.2-0.6-0.4-1.2-0.5c-0.1-0.3,0-0.2-0.2-0.3c-0.1,0.1,0,0-0.2,0.1v-0.3c-0.7-0.1-1.4-0.4-1.8-0.3v0.2
			c-0.1,0-0.9,0.1-1,0c-0.3,0.2-1.3,0.6-1.6,0.7c-0.1,0-0.8-0.2-1.1,0c0,0-0.2,0.3-0.3,0.3c-0.2,0-0.3-0.1-0.5-0.1
			c-0.1,0-0.1,0.4-0.2,0.4c-0.2,0.1-1.1,0.3-1.2,0.2c-1,0.9-2.6,1.5-3.9,2c-0.3,0.1-1,0-1.1,0c-1.2,0.6-3.9-0.1-5-0.7
			c-0.1-0.1-1.2,0.2-1.3,0.2c-0.2,0-1.2,0-1.6,0.2v0.2c-0.3,0.2-0.7,0.3-1,0.5c0,0.1,0.1,0.1,0.1,0.2c-0.9,0.1-2.1,1-2.8,1.4h-0.4
			c-0.1,0.1-0.3,0.4-0.5,0.5c-0.4,0.2-0.9,0-1.1,0.1v0.2c-0.1,0.1-0.4,0.2-0.4,0.2c-0.3,0.1-1.1-0.1-1.6,0c-1.1,0.1-1.8,0.4-2.5,0.3
			v0.2h0.1c0,0-0.1,0.1-0.1,0.1c-0.2,0.3-0.7,0.4-0.7,0.5c0.1,0.1,0,0,0.1,0.2c-0.8-0.1-1.7,1.2-2.7,1.4v0.3c-0.6,0.1-1,0.4-1.4,0.6
			c-0.2,0.1-1.7-0.1-2,0v0.2c-0.2,0-0.4,0.1-0.6,0.1c-0.1,0.1-0.2,0.5-0.3,0.5c-0.1,0-0.2-0.1-0.3-0.1c-0.1,0.8-0.6,0.7-0.7,1.5
			h-0.3v0.1c0.3,1-2.5,3.5-3.2,3.9c-0.6,0.3-1.7,0.2-1.9,0.6c0.1,0.1,0.1,0,0.1,0.1v0.1c-0.6-0.3-1.5,0.2-2.1,0.3
			c-1.2-0.3-3.4,0.6-4.9,1.3v0.3c-0.3,0-0.4,0-0.5,0.1h0.3c-0.1,0.6-0.2,0.6,0,1.1c0,0.1,0.1,0.1,0.1,0.2c-0.1,0.2-0.2,0-0.2,0.2
			c0.1,0.2,0.1,0.1,0.2,0.4c0,0-0.1,1.2,0,1.4c-0.2,0.3-0.4,0.6-0.5,1.1c-0.6,0.2-0.7,0.6-1.3,0.8v0.4c-1,0.1-1.4,0.9-2.1,1.3
			c-0.4,0.2-0.9,0-1.3,0.2c-0.8,0.5-1.1,1-1.9,1.4v0.3h-0.3c-0.3,0.9-1.9,1.7-2.4,2c0.1,0.1,0,0,0.1,0.2c-0.2,0-0.6,0.1-0.8,0.2
			c0,0.1-0.1,0.3-0.1,0.4c-0.2,0.2-0.6,0.1-0.8,0.2l-0.6,0.6c-0.1,0-0.2-0.1-0.3-0.1c-0.8,0.7-1,1.9-1.6,3c-0.1,0.1-0.2,0.1-0.3,0.2
			c0,0.1,0.2,0.2,0.1,0.4c-0.1,0.4-0.3,1.2-0.5,1.5c-0.1,0.1,0.3,0.2,0.2,0.4c0,0-0.3,0.2-0.3,0.2c0,0.3-0.1,0.6-0.1,0.9
			c-0.1,0.2-0.2,0.1-0.3,0.5c-0.7,0.1-1,0.5-1.8,0.6v0.3c-0.5,0.1-0.6,0.4-1.1,0.5v0.4H336c-0.1,0.3-0.1,0.3-0.4,0.4
			c0,0.9-0.3,1.2-0.4,1.7c-0.1,0.3,0.2,0.4,0.2,0.5c0.1,0.5-0.2,0.4-0.2,0.5c0,0.3,0.1,0.7,0.1,1c-0.2,0,0-0.1-0.3,0
			c0.5,1,0.1,2.8-0.5,4c0,0.1,0.1,0.3,0.1,0.4c-0.1,0.3-0.2,1-0.4,1.4c-0.7,1.7-1.7,3.6-2.5,5.3c-0.2,0.5,0.9,3.1,1,3.6
			c0.2,0.8-0.4,2.3-0.1,2.9c0.4,1,1.6,0.7,1.7,2c0.5,0.7-0.2,1.6-0.4,2c0,0.5-0.5,1.1-0.8,1.6c-0.1,0.2,0.1,0.5,0.1,0.5h-0.3
			c0.1,0.1,0.3,0.2,0.2,0.4h-0.2c-0.2,0.5,0,1-0.2,1.6c0,0.1-0.3,0.5-0.3,0.6c0.1,0.5,0,1.1,0.1,1.7c0,0.2-0.1,0.4-0.1,0.6
			c0.4,1.4,1,3.3,1.5,4.8c0.2,0.6-0.3,2.3-0.4,3c-0.2,1,0.1,1.9,0.1,2.8c0.6,0.4,0.8,1.3,1.7,1.4v0.3c0.7,0.2,1.2,0.9,1.2,1.8
			c-0.2,0.2-0.4,0.6-0.5,0.9h-0.3c-0.1,0.2-0.2,0.3-0.2,0.7c-0.2,0-0.2,0-0.3,0.1c-0.6,0.8-0.8,1.3-1,2.5c0.5,0.3,0.9,0.8,1.4,1
			c1.3,0.6,3,0.6,4,1.4c1.4,1.2,0.4,5.1,0.6,6.8c0,0.2-0.2,0.5-0.1,0.9c0.3,1.1,1.6,1.6,1.9,2.6c0.7,0.1,1.3,0.8,1.8,1.2
			c0.4,0.3,0.9,0.2,1.4,0.5c1.4,0.7,2.5,1.8,3.2,2.9c0.8,1.3,0.4,2.8,1.1,4.4c0.1,0.2,0,0.5,0,0.6c0.1,0.2,0.4,0.2,0.5,0.3
			c0.3,0.4,0.2,0.8,0.6,1.1c0.6,0.4,1.6,0.5,2.3,0.9c0.5,0.3,1,0,1.8-0.1c0.8,0.9,2.3,1.5,2.8,2.7c-0.2,0.1-0.1,0-0.2,0.2
			c0.4,0,0.1,0.5,0.5,0.7c0.2,0.1,0.9,0.2,1.1,0.4c0.4,0.3,0.4,0.6,0.9,0.8c1-1.4,2,0.1,2.9,0.7c0.5,0.3,1.4,0.1,1.8,0.1
			c0.1-0.3,0.2-0.3,0.3-0.6c-0.6-0.3-0.4-1.2-0.9-1.8c-0.2-0.3-0.6-0.5-0.8-0.8c-0.1-0.4-0.1-0.8-0.2-1.2c0.4-0.3,0.4-0.7,1.2-0.7
			c0,0,0.7,0.1,0.9,0.3c0,0,0.7,0.8,0.7,0.8v0.3c0.2,0.3,0.8,0.4,1.1,0.7c0.2,0.2,0.3,0.5,0.5,0.7c0,0.7,0.2,1.3,0,1.8
			c-0.2,0.4-0.5,0.3-0.6,0.9c0.1,0.1,0.7,0.8,0.8,1c1.6-0.7,1.6,0.5,3.2,0.9v-0.3c-0.6-0.6-0.9-1.4-0.7-2.5c0.2-0.1,0.4-0.3,0.6-0.5
			c1.3,0.1,1.7,0.5,2.4,1.5c0,0.1-0.1,0.2-0.1,0.3c0.1,0.2,0.4,0.2,0.2,0.6c0.5,0.7,0.8,1.2,0.7,2c-0.1,0.7,0.4,1,0,1.7h0.1
			c0.3-0.4,1.5,0.1,1.7,0.4c0.2,0.2,0.4,0.6,0.7,0.8v-0.2c0.1-0.2,0.2-0.9,0.3-1.3c2.1-0.6,2.8,0,3.3,2c0.2,0.1,0.4,0.2,0.7,0.3
			c0.2-0.6,0.3-1.1,0.3-2.1c-0.2-0.3-0.1-0.7-0.1-1.4c1.1-0.8,1.5,0.2,1.8,0.1c0.3-0.1,0.5,0.6,0.5,0.7c0.2,0.2,0.8,0.3,1-0.1
			c-0.4-0.3-0.4-1-0.7-1.6c0.5-0.5,0.2-1,1.1-1.4c0.7,0.4,1.6,0.1,1.7,1.3c0.3,0.4,0.2,0.8,0.2,1.3c-0.3,0.1-0.4,0.5-0.7,0.6
			c-0.4,0.2-0.8-0.3-1.1,0.2c0.1,0.1,0.1,0.2,0.2,0.3c0.1,0,0.1-0.1,0.2-0.1v0.1c0.5,0.4,1,1.7,1.3,1.9c0.1-0.1,0.3,0,0.4-0.1
			c0.4-0.4,0-1.3,0.9-1.6c0.2-0.1,0.5,0,0.7,0c0.7,0.1,1.4-0.3,1.6-0.6c0-0.1,0.4-1.7,0.4-1.7c0.8-0.2,1.6-0.7,2.2-0.9
			c0.8-0.2,1.3,0.1,2,0.2c0.2,0.3,0.6,0.3,0.8,0.6c0.2,0.3,0.4,0.9,0.3,1.1c0.1,0.2,0.5,1.4,0.7,1.5c0.2,0.2,0.3,0.1,0.6,0.2
			c0.2-0.5,0.8-0.9,1.6-0.9c0.2,0.2,0.4,0.2,0.7,0.4c0.4,0.3,1.2,1.9,0.8,2.5c-0.1,0.4-0.5,0.7-0.9,0.8v0.1c0.3,0.1,0.2,0.1,0.4,0.2
			c0.3-0.2,0.4,0,0.7-0.2c0.2-0.2,0.3-0.8,1-0.9c0.6,0.3,2.1,0.4,2.6,0.8c0.1-0.5,0.2-0.6,0.3-1.1c0.3-0.1,0.3-0.2,0.5-0.3
			c0.2-0.1,1,0,1.3,0c0.3,0.4,0.6,0.6,0.6,1.4h0.6c-0.1-0.7,0.3-0.8,0.8-1.3c0.6,0,0.7,0.1,1.4,0.1c0.4-0.8,0.9-1.9,1-3
			c0.1,0,0.1,0.1,0.2,0.1v-0.1c-0.2-0.2,0.4-1,0.5-1.2c0.3,0.1,0.6,0.2,0.9,0.1c0.4,0.1,1.8,1,2,1.3c0.1,0.3,0.1,0.6,0.2,0.9
			c0.2,0.3,0.5,0.7,0.8,1c0.2-0.2,1.1-0.2,1.4-0.7c-0.3-0.3-0.9-1.1-1-1.5c-0.6-0.1-1.4-0.4-1.5-1c-0.2-0.4-0.1-0.8-0.1-1.2
			c0.2-0.1,0.2-0.1,0.4-0.2c0.5-0.4,1.1-0.3,1.7-0.2c0.1,0.4,0.2,0.3,0.3,0.7c0.4,0,0.3-0.1,0.7,0c0.2-0.5,0.5-0.8,0.9-1.2
			c0.9,0,1.5,0.5,1.9,0.8c0.1-1.3,0.2-2,0.3-3c0.4-0.1,0.5-0.3,1-0.4c1.1,0.8,1.8,1.1,1.4,2.6c-0.2,0.5,0.1,0.9-0.1,1.5
			c-0.3,0.1-0.7,0.3-0.9,0.5c0.2,0.2,0.1,0,0.1,0.3h0.3v0.3c0.6,0,0.9-0.4,1.7-0.2c0.4,0.1,0.8,0.2,1.4,0.2c0-0.1-0.1-0.1-0.1-0.2
			h0.3c0.2-0.2,0.2-0.4,0.3-0.6h0.2c0.2-0.3,0-0.5,0.2-0.8c0.2-0.4,0.7-0.4,0.8-1c-0.2-0.3,0-0.9,0-1.3c0.5-0.1,0.3-0.3,0.6-0.5
			c0.6-0.4,1.4-0.3,2.1-0.2c0.2,0.3,0.3,0.2,0.3,0.7c-0.1,0.1-0.1,0.2-0.1,0.5h-0.3c-0.2,0.7-1,1.2-1.1,2c-0.2,1.4-0.1,3.5,0.4,4.2
			v0.1c0.2-0.1,0.1,0,0.2-0.1c0.5-0.5,0.7-1.2,1.4-1.2v-0.1h-0.1l0.1-0.1c0.4-0.2,0.8-0.2,0.8-1.1c0.2-0.4-1-1.4-0.5-2
			c0.4-0.4,0.9-0.7,1.7-0.7c0.3,0.5,0.9,0.6,1.3,1c0.2,0.2,0.5,1.1,0.5,1.1h0.3c0.1,0.1,0,0,0.2,0.1c-0.1-0.6,0.2-1.6,0.5-1.7
			c0.4-0.6,1.7-0.7,2.1-0.1c0.3,0.3,0.1,1,0.4,1.5c0.1,0.2,0.5,0.2,0.7,0.4c0.1,0.1,0.1,0.4,0.2,0.5h0.3c0.5,0.5-0.2,1.3,1,1.4
			c0.2-0.4,0.2-1,0.2-1.7c0.4-0.6,0.2-1.1,1-1.2c0.5-0.3,0.9,0.1,1.2,0.2c0.2,0.1,0.5-0.1,0.6-0.1c0.4-0.1,0.8,0.5,1,0.7
			c-0.1,0-0.1,0.1-0.2,0.1c0.2,0.6,0,0.9-0.2,1.5c0.6,0.1,1,0,1.3-0.2c0.2-0.2,0.4-0.5,0.3-0.6c0.1,0,0.2-0.1,0.3-0.1
			c0.2-0.4-0.2-0.8-0.2-1c0-0.6,0.2-1,0.1-1.6c0.5-0.2,0.3-0.6,0.9-0.7c0.2,0.1,0.8,0.3,1.3,0.4v0.3h0.3c0.1,0.4,0.3,0.5,0.8,0.5
			c0.7-0.5,1.6-0.4,2.1-0.6c0.1-0.1,0.1-0.2,0.2-0.3c0.3-0.1,0.7,0.4,1.1,0.3c0.2-0.1,0.5-0.3,0.9-0.2v-0.1h-0.1l0.1-0.1
			c0.6-0.7,1.2-1.2,2.6-1.2c0.4,0.2,0.8,0.1,1.2,0.2v-0.4c-0.2-0.2-0.5-0.6-0.7-0.9c-0.3,0.2-0.6,0.2-1,0.3
			c-0.2-0.4-0.4-0.2-0.7-0.4c-0.5-0.6-0.7-0.9-0.8-1.8c0.5-0.4,0.4-0.9,1.3-1c0.1-0.1,0,0,0.2-0.1c0.4,0.4,1.3,0.7,1.2,1.3
			c0.5,0,1.3-0.2,1.8,0.1c0.3,0.2,0.9,0.6,1.3,0.7c0.6,0.1,0.7-0.2,1.2,0.1c0-0.2,0.3-1.4,0.6-1.7c0,0,1.1-0.5,1.3-0.7
			c0-0.1,0.1-0.3,0.1-0.4c0.1,0,0.2,0.1,0.3,0.1c0.3-0.1,0.5-0.5,0.7-0.7h0.3c0.1-0.1,0.5-0.7,0.3-0.8c0.3-0.3,0.5-0.7,0.9-1.2v-0.3
			c0.5-0.6,1.3-0.7,1.3-1.8c-0.4-0.8-0.3-1.7-1.4-2.4c0.1-0.3,0.1-1.1,0-1.4c0.4-0.2,0.8-0.8,1.3-0.6c0.9,0.2,1.5,1,1.6,2.1
			c0.3,0.1,0.7,0.4,0.9,0.6c0.2-0.1,0.3-0.2,0.7-0.2c0.3-0.8,2-2.2,2.1-3c0-0.4-0.7-1-0.2-1.7c0.2-0.7,0.8-0.7,1.2-0.9
			c0.6-0.8,0-1.8,0.1-2.7c0.1-1,0-1.8,0.3-3.1c0-0.2-0.1-0.3-0.1-0.5c0,0,0.2-0.3,0.2-0.4h0.2c0-0.1-0.1-0.2-0.1-0.3
			c0.1-0.4,0.4-1,0.6-1.4v-0.5c0.1-0.1,0.3-0.2,0.4-0.3c0.1-0.3,0.1-0.4,0.2-0.7c0.2-0.4,0.6-0.8,0.9-1.1c0.2-0.2-0.1-0.3,0-0.5
			c0.1-0.1,0.4-0.2,0.5-0.3c0-0.2,0.1-0.5,0.1-0.7c0.1-0.1,0.4-0.5,0.5-0.7c0.1-0.2-0.1-0.4,0-0.8c0.1-0.5,0.4-1,0.6-1.4
			c0-0.3,0.2-1.8,0.3-2c0.2-0.5,0.8-1.7,0.7-2.5c0-0.3-0.3-0.5-0.4-0.7c0.1-0.7-0.3-1.6-0.7-2.4c0-0.4,0-1.1-0.1-1.5
			c0-0.2-0.3-0.7-0.3-1c0.2-1.7,0.8-3.8,1.1-5.2c0.1-0.3-0.2-0.1-0.2-0.3c0-0.1,0.3-1.8,0.3-1.8
			C477.1,310.2,477.3,308.9,477.4,307.8z"/>
	</g>
</g>
<g>
	<g>
		<path class="st1" d="M573.7,375.1c-0.1-0.5-0.4-0.6-0.4-1.2c-0.4-0.1-0.5-0.3-0.8-0.4h-0.7c-0.4-0.1-0.9-0.2-1.2-0.3
			c-0.7,0.2-1.6,0.3-2,0c-0.2,0.1-0.1,0-0.2,0.3c-0.2,0-0.2,0-0.3,0.1c0,0-0.4,0-0.2-0.1l0.1-0.1c-0.9,0.2-2.8,1.1-3.8,0.4
			c-0.1,0.1-0.1,0.1-0.1,0.3c-0.4-0.3-0.8-0.1-1.1-0.6c-0.3,0.1-0.2-0.1-0.2,0.3c-0.5-0.2-2.7-0.4-3.2,0.1c-0.2-0.2-2.5-0.1-2.5-0.1
			H557c-0.1,0-0.2,0.3-0.4,0.3c-0.6,0.1-1.2-0.6-1.8-0.3c-0.1-0.1-0.1-0.1-0.1-0.3c-0.4,0-0.3,0.1-0.5,0.2c-0.1-0.2-0.2-0.2-0.3-0.4
			c-0.3,0.1-0.2,0.1-0.5,0.2c-0.1-0.1,0,0-0.2-0.1v-0.3c-1.7-0.1-3.6-1.1-5.1-0.1c-0.1-0.1-0.3-0.3-0.4-0.3c-0.2,0-0.4,0.3-0.6,0.3
			c-0.6,0.2-1-0.2-1.6-0.1h-0.1c-0.2,0.1-0.4,0.3-0.6,0.4c-0.2-0.2-2.2,0.2-2.2,0.2c-0.4,0.2-1.2,0.7-1.7,0.6
			c-0.2,0.1-0.1,0-0.1,0.2c-0.6,0-1.8,0.1-2,0.2c-0.4,0-0.3-0.1-0.3,0.2c-0.3-0.1-0.3-0.3-0.5-0.3c-0.2,0-0.9,0.2-1,0.2
			c-0.2-0.1-0.1,0-0.2-0.3c-0.3,0.1-0.2,0-0.3,0.3c-0.1-0.1-0.1-0.1-0.1-0.3c-0.2,0-0.5-0.1-0.7-0.1c-0.1-0.5-0.2,0-0.3-0.6
			c-0.2,0-0.2,0-0.3,0.1c-0.3-0.1,0,0-0.2-0.2c-0.3-0.5-1.8-1.1-2.6-0.7c-0.5,0.3-2.9,1-3.4,0.5c-0.4,0.5-1.3,0.4-2.1,0.3
			c-0.6-0.1-2.1,0.2-2.4,0.1c-0.3-0.1-0.2,0.1-0.2-0.2c-0.5,0.1-1.2,0.4-1.7-0.1h-0.1c0.1,0.2,0,0.1,0.2,0.2v0.1
			c-0.5-0.1-0.5-0.2-0.9,0.1c0-0.1-0.1-0.2-0.1-0.3c-0.3,0.2-1.7,0.4-1.9,0h-0.9c0.1-0.2,0-0.1,0.1-0.2c-0.6-0.4-0.5,0.2-0.9-0.4
			c-0.2,0.1-0.1,0-0.2,0.2h-0.2c0-0.3,0-0.2,0-0.4c-1-0.4-2.1-0.9-3.1-0.6c-0.5,0.1-1.6,0.8-2.1,0.6c-0.2,0.1-0.1,0-0.2,0.3
			c-0.1,0-1.1-0.1-2.1-0.1v0c0,0-0.1,0-0.1,0c-1,0-1.9-0.1-1.9-0.1c-0.2-0.1-0.1,0-0.2-0.3c-0.4,0.1-1.3,0-1.7-0.2
			c-0.5,0.2-1.6,0.1-2.2,0.2c-0.3,0-0.7-0.1-1-0.1c-0.5,0.2-1,0-1.4,0.1c-0.1,0-0.2,0.2-0.4,0.2c-0.6-0.1-1.5-0.3-2-0.2v0.2
			c-0.3,0.1-0.9-0.3-1.3-0.1c0,0.1-0.1,0.2-0.1,0.3c-0.2-0.2-0.6,0.1-1,0.1c0,0.1,0.1,0.2,0.1,0.3c-0.5,0.1-0.6,0.2-0.8,0
			c-0.1,0.1-0.1,0.1-0.1,0.3c-0.7-0.2-2,0.3-2.8,0.6c-0.7,0-1.4,0.1-2.1,0.1c-1.6,0.5-5.2,0.6-6.6,0.1c-0.3-0.1-0.8,0.1-1,0
			c-0.5-0.2-1.8-0.8-2.2-0.4h-0.2c0.1-0.2,0-0.1,0.2-0.2v-0.1c-1.2,0.2-2.2,0.1-3.3-0.2c-0.5-0.2-1.1,0.3-1.6-0.2c0,0-0.4,0-0.2,0.1
			l0.1,0.1c-1-0.3-1.9,0.1-3.3,0.2c-0.3,0-0.6-0.2-0.6-0.2c-0.2-0.1-1.9,0.1-2,0.1c-0.7,0.2-1.1-0.3-1.5,0c-0.3-0.1-0.2,0.1-0.2-0.2
			c-0.8,0.1-2.6,0.1-3.1,0.2c-0.9,0.3-1.5-0.7-2.3-0.5c-0.9,0.2-1.9,0.8-2.8,1.1c-0.5,0.2-1.2,0-1.5,0.1c-1.4,0.5-2.9,0.2-4.2,0.3
			c-0.6,0-2.1-0.5-2.8-0.6c-0.2,0-0.6,0.2-0.6,0.2c-1-0.1-3-0.2-3.9-0.1c-0.2,0-0.3-0.1-0.5-0.1v0.2c-0.2-0.2-0.6,0-0.7,0
			c-0.5,0-1.1-0.2-1.5-0.1c-0.3,0.1-0.9,0.3-1.4,0.3c-0.2,0-1.9-0.1-2,0l-0.1,0.1c-0.4-0.1-1-0.4-1.4-0.3c0.2-1.4,1.3-2.2,2.1-3.2
			c0.2-0.2,0.1-0.4,0.3-0.6c0.7-0.5,1.5-0.6,2.4-0.9c-0.4-0.3,1.3-0.7,1.6-0.8c0.6-0.3,1.2-0.9,1.7-1.2h0.4c0,0,0.4-0.4,0.4-0.4h0.5
			l0.5-0.5h0.5c0-0.1,0.1-0.2,0.1-0.3c0.2,0.1,2.2,0.2,2.5,0.2c0.9,0,3-1.5,3.8-1.3c0.2-0.1,0.1,0,0.2-0.3c0.8-0.1,1.5-0.8,2.2-1
			c1.2-0.4,4.3-0.4,5.3-1.6c0.5-0.6,0.7-1.5,1-2.3c0.1-0.4-0.1-1,0.1-1.5c0.2-0.6,0.8-1,0.9-1.7l0.1,0.1c0.3-0.1,0.1-0.3,0.3-0.5
			c0.2,0,0.4-0.1,0.6-0.1c-0.1-0.1,0-0.2,0-0.4h0.3c0.2-0.9,1.9-1.6,2.5-2.5h0.3v-0.3c0.9-0.2,0.8-1.8,1.4-2.6
			c0.3-0.4,0.9-0.5,1.2-0.9v-0.3c0.1,0,0.2,0.1,0.3,0.1c0.4-0.3,0.8-0.9,1-0.8c0.4-0.2,0.5-0.7,0.6-0.8c1.2-1.3,0.4-1.4,0.8-3.2
			c0-0.2,0.2-0.7,0.1-1.1c-0.4-1.5-0.7-4.6-0.2-6.4c0,0,0.1-0.4,0.2-0.5h0.2c-0.2-0.3,0.2-0.8,0.3-1c0.4-0.8,0.8-1.5,1.3-2.2
			c0.2-0.2,0.4-0.3,0.6-0.5c0.6-0.8,1-1.8,1.5-2.6c0.2-0.3,0.5-1.3,0.5-1.5c0-0.1-0.2-0.2-0.1-0.4c0.3-0.9,0.9-2,1.3-2.9
			c0.2-0.5,0-0.8,0.1-1.1c0-0.1,0.3-0.3,0.3-0.4v-0.8c0.1,0,0.1-0.1,0.2-0.1c0.5-1.4-1.9-3.6-2.1-4.9c0-0.2,0.2-0.3,0.2-0.5
			c-0.7-2.8,0.9-7.2,2.3-9.7c0-0.1,0.1-0.9,0.2-1.1c-0.2-0.7-0.8-1.3-1.3-2.1c-0.3-0.5-0.3-0.9-0.6-1.3c-0.4-0.5-0.7-0.4-0.9-1.2
			c-0.2-0.7,0.1-1.3,0.2-1.9c0.1-0.3-0.1-1.1,0-1.5c0.2-1,0.9-2.1,1.2-3.2c0.2-0.8-0.3-1.3-0.4-1.7c-0.1-0.4,0-0.9-0.1-1.3
			c-0.1-0.4-0.4-0.9-0.6-1.3c0-0.1,0-0.4,0-0.6c0-0.1-0.3-0.2-0.3-0.4c0,0,0.2,0,0.2-0.1c-0.7-0.8-0.2-1.7-0.5-2.7
			c-0.1-0.4-0.5-1-0.6-1.4c0.1-0.1,0.1-0.1,0.2-0.2c0,0-0.2-0.8-0.2-0.9c-0.5-1.2-1.6-1.7-2.5-2.6c-0.6-0.8-0.3-1.9-0.3-2.8
			c0.1-0.2,0.1-0.3,0.2-0.5c-0.1,0-0.2-0.1-0.3-0.1c0.3-0.5-0.3-0.6-0.4-0.9c-0.1-0.2,0.1-0.5,0-0.6h-0.1c0-0.1-2.1-1.9-2.2-2v-0.3
			c-1.2-0.3-2-1.9-2.7-2.7l-0.1-0.1v0.1c-1-1.1-0.4-2.3-0.5-4h-0.3c-0.1-0.5-0.2-0.4-0.3-0.7c-1-0.1-1.9-0.4-2.7,0.3
			c-1.5,0-1.5-1.2-2.1-2c-0.3-0.5-1-0.8-1.2-1.4c-0.1-0.1-0.1-0.2-0.1-0.4c-0.5-0.1-1.2-1.4-1.6-1.8c-0.3-0.2-1.6-0.7-1.8-0.7
			c-0.4-0.3-0.8-0.8-1.3-1c-1.1-0.4-1.6,0.1-2.5-0.6c-0.3-0.3-0.3-0.9-0.6-1.2c-0.3-0.4-1-0.3-1.4-0.6c-1-0.7-1-1.6-2.6-1.6
			c-0.4-0.3-1.6-1-1.9-1c0-0.2-0.1-0.3-0.1-0.5c-0.3-0.5-0.9-0.7-1-1.2c-0.1-0.1-0.4-0.1-0.5-0.2c-0.2-0.2,0-0.5-0.2-0.7
			c-0.1,0-0.2-0.1-0.3-0.1c-0.6-0.8-1.3-1.6-2.1-2.3c-0.2,0-0.3-0.1-0.5-0.1c-0.2-0.1-0.2-0.5-0.4-0.6c-0.9-0.7-1.7-1.6-2.7-2.1
			c0,0-2-0.2-2.1-0.2c0,0-0.1,0.3-0.6,0.2c-0.4-0.1-1.1-0.2-1.8-0.2c-0.4,0-0.7,0.1-1.1,0.1c-0.6-0.1-1-0.4-1.6-0.5v-0.3
			c-1,0-2.8-1.1-3.5-2.1c-0.3-0.5-0.4-1-0.9-1.3v-0.3c-0.4-0.1-1.2-0.3-1.6-0.2c-0.4,0.1-1.8,0.5-2.2,0.3c-0.3-0.1-0.9-0.4-1.2-0.5
			c-0.1,0-0.2,0.1-0.3,0.1c-1.4-0.5-2.4-1.9-4.4-2.1c0-0.2,0-0.2-0.1-0.3c-0.4-0.4-1.5-1.5-2.3-1.8c-0.8,0.2-1.5,0.2-2,0.2
			c-0.2,0-0.4-0.1-0.6-0.1c-1.3,0.3-2.9,0.6-4.4,0.5c-0.9-0.1-1.9,0.3-2.3,0.2c-0.8-0.2-1.5-0.7-2.1-1.2c-0.5-0.4-0.8-0.2-1.2-0.8
			c-2.7,0-5.6,0.8-7.8,1.8c-0.1,0-0.3-0.1-0.4-0.1l-0.4,0.4h-0.4v0.2c-0.1,0-0.3-0.1-0.4-0.1c-0.8,0.5-1.8,1.1-2.8,1.5
			c-0.8,0.3-2.8,0.3-3.7,0c-1-0.4-2.3-0.9-3.2-0.7c-1.1,0.2-2.3,0.7-3.2,1.4c-0.3-0.2-0.7,0-1,0.2c-0.2,0.1-0.6,0.8-0.8,0.9
			c0,0-1,0.2-1.3,0.3c-0.4,0.1-0.5,0.3-0.8,0.4c-0.1,0-0.3-0.2-0.5-0.1c-0.1,0.1,0,0.3-0.3,0.2l-0.1-0.1l-0.4,0.4
			c-0.6,0.3-2.4-0.1-3.4-0.1c-0.5,0.6-3.1,2.6-3.2,2.7c-0.9,0.1-1.3,0.6-2,0.8c-0.2,0.1-2.1,0.1-2.1,0.1c-0.9,0.5-2.4,1.9-2.8,2.8
			c0,0.3-0.1,0.5-0.1,0.8c-0.2,0.5-0.8,0.8-0.9,1.4c-0.6,0.1-0.7,0.6-1.1,0.9c-0.2,0.2-0.5,0.1-0.6,0.1c-0.2,0.2-0.8,0.7-1.3,0.9
			c-0.6,0.3-1.8,0.4-2.6,0.6h-1c-1.3,0.4-3.9,1.6-4.5,1.6c-0.1,0.2-0.1,0.4-0.4,0.5c0.1,0.5,0.2,0.9,0.3,1.5h0.3
			c-0.1,0.2,0,0.1-0.3,0.2c0.3,0.8-0.1,2-0.2,2.9c-0.7,0.2-1.1,1-1.6,1.4c-0.6,0.5-1.1-0.1-1.6,0.1c-0.3,0.1-0.4,0.6-0.6,0.8h-0.3
			c-0.3,0.2-0.6,0.5-0.9,0.6c-0.3,0.1-0.5,0-0.7,0.2c-0.9,0.7-2,2.3-3,2.8c-0.4,0.2-0.8,0.1-1.1,0.3c-0.1,0-0.1,0.4-0.2,0.4
			c-0.3,0.2-0.6,0-0.9,0.2c-0.4,0.2-1.8,1.1-2.2,1.6c0,0.2-0.1,0.3-0.1,0.5c-0.6,0.8-1.2,2.3-1.5,3.2c-0.3,0.9,0.1,1.3-0.3,1.9
			c-0.3,0.4-0.7,0.4-1.1,0.7c-0.2,0.1-0.3,0.5-0.5,0.6c-0.3,0.2-0.6,0.3-0.9,0.5c-0.1,0.1-0.2,0.4-0.3,0.5c-0.1,0-0.2-0.1-0.3-0.1
			c0,0-0.7,0.9-0.7,0.9c-0.2,0.4,0,0.7-0.2,1.2c-0.3,0.9-0.7,2.3-0.7,3.3c0,0.5,0.2,1,0.1,1.3c-0.3,1.4-0.7,3.3-1,4.5
			c-0.1,0.7-1,1.2-1.3,1.8c-0.2,0.4-0.2,1.5-0.2,1.6c0,0-0.5,0.4-0.5,0.4v0.4c-0.3,0.6-0.9,1.1-1,1.9c-0.1,0.3,0.3,0.8,0.3,0.9
			c0.1,0.3-0.1,0.9,0.1,1.4c0.2,0.5,0.8,1.2,0.9,1.7c0.2,0.7-0.4,1.9-0.2,2.4c0.4,0.7,1,1.6,1.7,1.9c-0.1,0.4-0.3,0.9-0.1,1.1
			c-0.8,1.4-2,4.6-1.6,6.6c0.1,0.3-0.1,0.7-0.1,0.8c0.5,1.7,1.1,3.1,1.5,4.8c0.2,0.8-0.2,1.8-0.4,2.6c-0.1,0.3,0.1,0.7,0.1,1
			c-0.3,1.9,0.8,3.8,2.1,5.2c-0.1,0.7-0.3,1.3-0.6,1.8c-0.1,0.1-0.2,0.1-0.3,0.2c-0.3,0.9-0.6,1.9-0.6,3.1c0.5,0.4,0.8,1.2,1.4,1.5
			c1,0.6,2.3,0.8,3.1,1c0.6,0.2,1,0.7,1.5,1c0.1,1.9-0.6,4.5-0.2,6.1c0.1,0.6,0.4,0.8,0.6,1.2c0.2,0.4,0.1,0.8,0.3,1.1
			c0.1,0.1,0.4,0.1,0.5,0.2v0.4c0.2,0.4,1.4,1,1.8,1.3c0.8,0.6,1.6,1.6,3,1.7v0.3c3.2,0.5,2.4,5.7,4,8c0.6,0.9,3,2.2,3.8,2.6h0.6
			c0.4,0.2,1.2,0.4,1.6,0.7c0.3,0.2,1.7,2.9,1.7,3.4c0,0,1.6,2.3,1.7,2.7c0.9,0.2,1.8,1.6,3.2,1.2c0.6-0.2,1.4-0.7,2-0.9h1.6
			c0.1,0,0.5-0.2,0.7-0.1v0.2c0.1,0,0.4,0.1,0.4,0.1c0.2,0.1,0.4-0.1,0.4-0.1c0.9,0.6,1,1.8,1.4,2.9c0,0.2,0.1,0.5,0.1,0.7
			c0.4,0.4,1.2,1.5,1.9,1.9c0.6,0.3,1.3,0.5,1.8,0.6c0.3,0,0.6,0.1,0.9,0.1c0.7,0.4,1.3,1.1,2.2,1.1c0,0-0.1,0.1-0.1,0.1
			c0.1,0.2,0,0.2,0.4,0.2c-0.1,0.2,0,0.2-0.4,0.2v0.3c-1,0.1-2.3,0.6-2.8,0.6c-0.4,0-0.9,0.1-1.3,0.2c-0.3,0.1-0.3-0.2-0.4-0.2
			c-0.4,0.1-1,0.3-1.5,0.2c-1.8-0.3-3.9-0.9-5.2-0.8c-0.2,0-1-0.2-1.1-0.1v0.2H361c-0.5,0.1-1.1,0.2-1.6,0.3c-0.3,0-0.5-0.1-0.8-0.1
			c-0.9,0.2-2.1,0-3.4-0.2c-0.7-0.1-2,0.1-2.6,0c-1.2-0.3-1.8-0.2-2.6-0.3c-1.4-0.2-2.7,0.5-3.9,0.3v0.1c0,0-0.1,0.1-0.1,0.1h0.1
			v0.1c-0.7-0.2-3.9,0.9-5.1,1.1c-0.2-0.2-2.4-0.3-3-0.4c-0.4-0.1-1.7-0.1-2-0.4c-0.3-0.1-0.7,0.1-1,0.1c-1.1-0.1-2.2-0.8-3.2-0.9
			c0,0,0.1-0.1,0.1-0.1c-0.6-1-3.4-0.4-4.3-0.1c-3.3,1-7.3,2.6-11.5,2.3c-1-0.1-3.1-0.4-3.6-0.9c-0.9-0.9-1.5-1.8-3.3-1.6
			c-0.5,0-0.8-0.1-1.1,0.1c-0.6,0-0.4,0.1-0.6,0.2c-0.1,0.1-0.7,0-1.2,0.2c-0.8,0.3-2,0.7-2.7,1c-0.1,0-1.5,0-2.1-0.1
			c-0.5,0.3-3.6,0-4.3-0.1c-0.6-0.1-1,0.1-1.5,0.2c-0.6,0-1.2-0.1-1.8-0.1c0,0-0.2,0.2-0.4,0.1c-0.1,0-0.4-0.3-0.6-0.4
			c-0.8-0.2-1.9-0.3-2.6-0.4c-0.5-0.1-1.6,0-2.1,0.1c-0.8,0.1-1.3-0.2-1.9-0.1c-1,0.2-1.9,0.6-2.9,0.4c-0.6-0.1-2.4-0.6-2.9-0.7
			c-0.5-0.1-1.5,0.1-2,0c-0.1,0-0.3-0.2-0.5-0.2c0,0-0.2,0.2-0.3,0.2v-0.2c-0.1,0-0.9,0-1.3,0.1c-0.6,0.1-2.5,0.9-3.3,0.5v-0.2
			c-0.3-0.2-0.4,0.1-0.7-0.1c-0.8-0.4-1.1-1.4-2.2-1.5c-0.9-0.1-2.7,1.1-3.5,1.5c-1.7,0.9-5.2,2.2-6.9,2.4c-0.4,0.1-1.1,0-1.5-0.2
			c-0.3-0.1-0.9,0.1-1.1,0.1c-1.4-0.2-3.1-0.3-4.8-0.1c-0.1,0-0.3-0.2-0.3-0.2c-0.5-0.1-3,0-3.3,0.2c-0.7,0-3.4-0.4-3.8-0.2h-0.1
			l0.1-0.2c-1.5,0.1-2.5-0.2-3.7,0c-0.5,0.1-1.6-0.3-1.9,0.2c-0.6-0.5-2.4-0.5-2.8-0.3h-0.2v0.3h-0.3c0.1,0.3,0.2,0.2,0.3,0.5
			c1.3,0.1,3.1,0.4,4.4,0.6c0.7,0.1,1.1-0.2,1.7-0.1c1.9,0.4,3.6,0.1,5.5,0.5c0.8,0.2,1.8-0.4,2.6-0.2c1.2,0.2,3,0.2,4.3,0.1
			c1.3-0.1,2.4,0.1,3.2,0.2c3.3,0.3,5.7-0.7,7.6-1.8c0.3-0.2,1.1-0.2,1.4-0.4l0.4-0.4c0.9-0.3,2-0.5,2.7-1c0.1,0.2,0,0,0,0.3
			c0.1-0.1,0.2-0.1,0.3-0.2c0.4,0.4,0.9,0.9,1.4,1.2v0.3c0.4,0.1,0.9,0.4,1.3,0.5c0.4,0.1,1.1-0.2,1.3-0.3c0.4,0.3,0.8-0.3,1.3-0.2
			c1,0.1,2.5-0.6,3.6-0.4c1.4,0.2,4.2,1.3,5.7,0.9c1.2-0.3,3.2-0.3,4.4-0.1c0.3,0.1,1-0.2,1.5-0.1c0.6,0.2,1.5,0.1,2,0.4
			c0.1,0.1,0.1,0.2,0.2,0.3c0.2,0.1,0.5-0.1,0.6-0.1c1.4,0.2,3.2-0.3,4.1-0.1c0.7,0.1,1.5,0.3,2.1,0.3c0.1,0,0.3-0.2,0.3-0.2
			c0.8-0.2,1.9,0.2,2.9-0.2c0.2,0.1,0.6,0.2,0.8,0.1c0.3-0.1,0.8-0.4,1-0.5c0.2,0,0.3,0.1,0.5,0.1v-0.2c0.3-0.1,0.7,0,0.8,0
			c0.6-0.2,1.7-0.9,2.6-0.8c0.3,0.1,1.3,0,1.7,0.3c0.1,0.2,0.3,0.3,0.4,0.5c0.3,0.1,0.6,0,0.8,0.2c0.5,0.4,0.8,0.9,1.4,1.2
			c0.5-0.2,0.9,0.3,1.6,0.2c0.7-0.1,1.6,0.2,2.5,0.1c0.5-0.1,1-0.2,1.5-0.1c0.1,0,0.5,0.2,0.9,0.1c0.7-0.2,1.8-0.3,2.4-0.5h1v-0.2
			h0.6v-0.2c0.3-0.1,0.6-0.1,0.9-0.2V375c0.3,0,0.5-0.1,0.8-0.1c0.4-0.2,0.6-0.3,1-0.5c0.1,0,0.1,0.1,0.2,0.1c0.7-0.3,3.2-1,3.8-0.8
			c0.1,0.1,0.1,0.2,0.2,0.3c0.1,0,0.3-0.1,0.4-0.1c0.1,0.1,0.1,0.2,0.2,0.3c0.5,0.2,1.2,0.1,1.5,0.2c0.4,0.1,1,0.5,1.2,0.6
			c0.4,0.2,0.6-0.1,0.9,0c0.5,0.1,0.9,0.3,1.3,0.4c0.3,0.1,0.1-0.2,0.2-0.2c0.3,0,0.6,0.2,0.9,0.3c0.2,0.1,0.3-0.1,0.4-0.1
			c1,0.2,2.4,0.9,3.8,0.5c2.2-0.6,4.6-1.3,6.7-1.6c1.7-0.3,3,0,4.2,0.3c1.1,0.2,1.9-0.3,3.1,0c0.9,0.2,3.2,0.4,4.2,0.3
			c1.3-0.1,3.2-0.7,4.5-0.4c0.6,0.2,1.4,0.5,1.9,0.7c0.3,0,0.7-0.1,1-0.1c1.6,0.4,3.5,0.3,5.2-0.1c0.2,0,0.4,0.1,0.5,0.1
			c0.4-0.1,1.3-0.3,1.7-0.5c0.8,0.3,1.9-0.2,2.7-0.1c0.4,0,1.2,0.2,1.6,0.3c0.4,0.1,0.8,0.4,1.2,0.2c0.1,0.2,0,0.1,0,0.3
			c2.1-0.3,3.6,1.1,5.9-0.4c0.4,0.5,1.1,0.7,1.6,1l0.7,0.7c0.2,0,0.4,0.1,0.6,0.1c0,0.1,0.1,0.2,0.1,0.3c0.3,0.2,0.5,0.1,0.9,0.3
			c0.1,0.1,0.4,0.4,0.5,0.4h1.7c0.7,0.1,2.4-0.1,2.9-0.3c0.1,0,0.2-0.3,0.2-0.3c0.1-0.1,0.8,0.1,0.9,0c0.4-0.3,1.1-0.6,1.6-0.9
			c0.2,0.1,0.5,0.1,0.6,0.1c0.1,0,0.9-0.4,1-0.4c1.3,0.4,2.1,0.6,3.4,0.3c0.4-0.1,0.7,0.2,0.9,0.1c0.3-0.1,0.8-0.2,1.2-0.3
			c0.2,0,0.4,0.1,0.6,0.1c0.1,0,0-0.3,0.3-0.2c0.6,0.2,1.7,0.7,2.6,1.1c1-0.3,2,0.2,3.2-0.1c1.5-0.4,3.8-0.3,5.2-1
			c0.4,0.2,1,0,1.3,0c1.4,0.1,2.2,0,3.7-0.4c0.3-0.1,2.7,0.3,2.7,0.3c0.2,0.1,0.7,0.4,1,0.3c1.5-0.3,2.4-0.3,3.7-0.8
			c0.7,0.3,1.5,0.4,2.2,0.3c0.8-0.1,2,0.1,2.8,0.3c0.1,0,0.7,0.3,0.7,0.3c0.2-0.4,0.7,0.1,1.1,0c0.7-0.1,1.7-0.4,2.7-0.3
			c1.3,0.1,2.1-0.2,3-0.2h0.2v0.2c0.3,0.1,1.6,0,1.7,0c0.2,0,0.6-0.2,0.8-0.2c0.3,0,2,0.3,2.3,0.2c0.2-0.1,1.7-0.3,1.8-0.3v0.2
			c0.2,0,0.2-0.1,0.2-0.1c0.3,0,1.8,0,2,0c0,0,0.2,0.2,0.3,0.2c0.2-0.1,1.7-0.3,1.8-0.2c0.6,0.3,0.7,0.2,1.2,0.2
			c0.3,0,0.6,0.3,0.9,0.4c0.9-0.2,3.3,0.5,3.7,0c0.3,0.2,0.1,0,0.1,0.3c0.9-0.4,1.6-0.2,2.6-0.3c0.2,0,0.4,0.1,0.6,0.1
			c0.3-0.1,0.8-0.5,1.2-0.6c0.7-0.1,0.9,0.4,1.7,0.2c0.6-0.2,2-0.5,2.5-0.6c0.3-0.1,2.6,0.2,2.8,0.3c0.1-0.1,0.1-0.1,0.1-0.3
			c2.6,0.1,5.6-0.2,7.9,0.2c0.5,0.1,0.9-0.1,1.3-0.1c0.9,0.1,3,0.4,3.2,0.5c0,0,0.4,0,0.2,0.1l-0.1,0.1c1.6-0.2,4,0.8,5.8,0.5
			c0.8-0.1,1.6,0.4,1.9-0.2c0.1,0.1,0.1,0.1,0.1,0.3c0.8-0.3,2.6-0.4,3.2-0.6c0.5-0.1,1.4,0.2,1.8,0c0.2-0.1,0.4-0.3,0.6-0.4
			c0.2,0,0.3,0.1,0.5,0.1c0.5-0.1,1.1-0.4,1.4-0.7c0.3,0.3,1-0.1,1.2-0.3c0.1,0.1,2.1-0.1,2.3-0.2c0.2,0.1,0.1,0,0.1,0.2
			c0.9,0,1.6,0,2.3-0.2c0.4-0.1,0.7,0.3,0.9,0.2c0-0.1,0.1-0.2,0.1-0.3c0.2-0.1,1.5,0.1,1.7,0.2c0.2-0.1,0.2-0.1,0.3-0.3
			c0.1,0.1,0,0.1,0.1,0.3c0.1,0.1,0.4-0.3,0.8-0.1c0,0.1,0.1,0.2,0.1,0.3c0.2,0,0.3-0.1,0.5-0.1c2,0.4,4.1,0.8,6.1,0.1
			c0.2,0,0.2,0.3,0.4,0.2c0.1-0.1,0.2-0.3,0.3-0.4c0.4-0.1,0.7,0.2,1.1-0.1c0.3,0.2,0,0.1,0.2,0.3c0.3,0.2,2.5,0.8,2.5,0.8
			c0.3,0.1,0.2,0,0.2,0.3h0.5c-0.1-0.1-0.1-0.1-0.3-0.1v-0.1c0.4,0.1,0.9,0.3,1.2,0.4c0.1,0,0.6,0,0.8,0v-0.2c0.2,0,0.4,0.2,0.5,0.2
			c1.5,0.4,2.5-0.4,3.3,0c0.4-0.1,0.3,0,0.3-0.3c0.3,0.1,0.2-0.1,0.2,0.3c0.2,0.1,0.1,0,0.2,0.1c0.3-0.2,0.1,0,0.1-0.3
			c0.2,0,0.1,0.1,0.3,0h0.3c-0.1,0.1-0.1,0.1-0.2,0.2v0.1c0.8-0.2,3.1-0.4,3.7-0.1v-0.1h0.1c0.2-0.1-0.2-0.1-0.2-0.1v-0.2
			c0.6,0.1,1.3-0.1,1.6-0.2h0.1c0,0.1-0.1,0.1-0.1,0.2c0.5,0,1.5-0.2,1.8-0.5c0.8,0.3,1,0.8,1.9,0.9c0.1,0.3,0.1,0.3,0.2,0.5
			c0,0,0.4,0,0.2-0.1l-0.1-0.1c0.2,0.1,0.3,0.1,0.6,0.1v0.3c0.8,0.3,1.7,0.2,2.5,0.6c0.1-0.3,0-0.1,0-0.3c0.2,0.1,0.2,0,0.3,0.2
			c0.3-0.2,0.1,0,0.1-0.3c0.1,0,1.5,0.1,1.5,0.1c0-0.1,0.1-0.2,0.1-0.3c0.4-0.2,1,0,1.2,0c0.4,0,0.2-0.2,0.4-0.3
			c0.2-0.1,0.3,0.1,0.3,0.1c0.5,0,1.1-0.1,1.3-0.4c0.3,0.1,0,0,0.2,0.2v0.1c0.1-0.1,0.1-0.1,0.1-0.3c0.5,0,0.5-0.2,0.6,0
			c0.4-0.1,0.3-0.1,0.5-0.3c0.2-0.1,0.4,0,0.8,0.1v-0.3c0.2,0.1,0.1,0,0.2,0.1c0.4-0.1,0.3,0,0.3-0.3c0.3,0.1,0.6,0.2,0.8-0.1
			c0.2,0.1,0.1,0,0.1,0.2c1.1,0,1.8-0.4,2.5,0c0-0.1,0.1-0.2,0.1-0.3h0.3c0.1,0,0.6,0.2,0.9,0.1v-0.2h0.2c0,0,0.3,0.4,0.4,0.4
			c0.1,0,1.1,0.1,1.4,0.2c0.3,0.1,0.8,0.5,1,0.6c0.4,0.2,0.8,0,1.1,0v0.2c0.1,0.1,0.4,0.2,0.6,0.3c0-0.1,0.1-0.2,0.1-0.3
			c0.2,0.1,0.1,0,0.2,0.3c0.6-0.1,1.2-0.2,1.5-0.1c0.1,0.1,0.1,0.1,0.2,0.2c1.4-0.4,4.2-0.6,5.7,0.2c0.7,0.4,0.7-0.3,1.3,0.2
			c0.1-0.1,0.1-0.1,0.1-0.3c0.1,0.1,0.2,0.3,0.2,0.3c0.1,0.1,0.6-0.2,0.7-0.2c0.1,0,0.3,0.2,0.6,0.2v-0.3c0.2,0.1,0.5,0.1,0.9,0.1v0
			c0,0,0,0,0,0c0.5,0,1-0.1,1.4-0.1V377c0.4,0.2,0.5-0.1,0.8,0.2c0.1-0.1,0.1-0.1,0.1-0.3c0.3,0,1-0.1,1-0.1c0,0.1,0.1,0.2,0.1,0.3
			c0.2,0,0.4-0.1,0.6-0.1c0.1,0.1,0.1,0.1,0.2,0.2c0.3,0.1,0.5-0.1,0.8,0l0.1,0.1c0.3-0.1,0.4-0.3,0.9-0.3v-0.3
			c0.8-0.1,0.5-0.5,0.9-0.9c0,0,0.2,0.1,0.3,0c0.1-0.2,0-0.3-0.2-0.5C573.5,375,573.4,375.1,573.7,375.1z M368,249.8
			c0.2,0.1,0.1,0,0.2,0.1h-0.1c0,0-0.1,0.1-0.1,0.1L368,249.8L368,249.8z M373.4,366.6c0,0.4-0.1,0.4-0.3,0.7c-0.4,0-0.3,0-0.5-0.3
			c-0.1-0.1,0-0.3,0-0.4c0.1-0.4-0.1-0.3,0.3-0.3v-0.2h0.4c0,0,0.1,0.1,0.1,0.1c-0.1,0.2,0,0.1-0.2,0.2
			C373.3,366.4,373.4,366.5,373.4,366.6z M373.4,366h-0.2v-0.2h0.2V366z M384.1,365.1L384.1,365.1l-0.1-0.2h0.1V365.1z M395.4,368.5
			c-0.3-0.1-0.1-0.1-0.4-0.1c0.1-0.2,0.3-0.3,0.4-0.5c0.2,0.1,0.1,0.1,0.3,0.2C395.6,368.4,395.6,368.4,395.4,368.5z M406.5,369.3
			L406.5,369.3l-0.1-0.2h0.1V369.3z M411.6,371.1c-0.3-0.1-0.2-0.1-0.4-0.2c0.1-0.1-0.1-0.2,0.2-0.2v0.1c0.2-0.1,0.1,0,0.2-0.3h0.2
			C411.7,370.7,411.6,370.9,411.6,371.1z M411.2,370.4c0.2,0.1,0.1,0,0.2,0.1C411.2,370.5,411.3,370.5,411.2,370.4z M419.2,366
			c-0.2-0.1-0.6-0.3-0.8-0.2h-0.1c0-0.8,0.1-0.6,0.4-1.2c0.1,0.1,0.1,0.1,0.2,0.2c0.1,0.1,0,0.1,0.2,0c0.3,0.2,0.2,0.5,0.4,0.8
			C419.3,365.7,419.3,365.7,419.2,366z M419.8,363.5h-0.3c0.1-0.2,0.1-0.2,0.1-0.4C419.7,363.1,419.8,363.3,419.8,363.5L419.8,363.5
			L419.8,363.5z M421.7,367.5c-0.2,0.1-0.3,0-0.5,0.1c-0.1-0.2-0.2-0.3-0.4-0.4c0-0.3,0-0.4-0.1-0.5c0.1-0.1,0.2-0.2,0.4-0.3
			c0.1-0.1,0.5-0.1,0.6-0.2C422.2,366.6,422.3,367.2,421.7,367.5z M433.8,366c-0.4-0.1-0.2-0.2-0.5,0h-0.1c0-0.3,0-0.7,0.1-0.9
			c0.1-0.2,0.1-0.1,0.3-0.3c0.1,0,0.1,0.1,0.2,0.1c-0.1,0.1-0.1,0.1-0.2,0.2c0.1,0.1,0.2,0.2,0.4,0.3
			C433.9,365.6,433.8,365.6,433.8,366z M433.3,364.1c0.1,0,0.2,0.1,0.3,0.1v0.3h-0.2C433.4,364.3,433.3,364.2,433.3,364.1z
			 M439.3,364.4c0,0.7,0,1.3-0.2,1.7c-1.2-0.1-0.5-0.9-1-1.4h-0.3c-0.1-0.1-0.1-0.4-0.2-0.5c-0.2-0.2-0.6-0.2-0.7-0.4
			c-0.3-0.5-0.1-1.2-0.4-1.5c-0.4-0.6-1.7-0.5-2.1,0.1c-0.3,0.1-0.6,1.1-0.5,1.7c-0.2-0.1-0.1,0-0.2-0.1h-0.3c0,0-0.3-0.9-0.5-1.1
			c-0.4-0.4-1-0.5-1.3-1c-0.8,0-1.3,0.3-1.7,0.7c-0.5,0.6,0.7,1.6,0.5,2c0,0.9-0.4,0.9-0.8,1.1l-0.1,0.1h0.1v0.1
			c-0.7,0-0.9,0.7-1.4,1.2c-0.1,0.1,0,0-0.2,0.1V367c-0.5-0.7-0.6-2.8-0.4-4.2c0.1-0.8,0.9-1.3,1.1-2h0.3c0-0.3,0-0.4,0.1-0.5
			c0-0.4-0.1-0.4-0.3-0.7c-0.7-0.1-1.5-0.2-2.1,0.2c-0.3,0.2-0.1,0.4-0.6,0.5c0,0.4-0.2,1,0,1.3c-0.1,0.6-0.5,0.6-0.8,1
			c-0.2,0.3,0,0.5-0.2,0.8h-0.2c-0.1,0.2-0.1,0.4-0.3,0.6h-0.3c0,0.1,0.1,0.1,0.1,0.2c-0.6,0-1-0.1-1.4-0.2
			c-0.8-0.2-1.1,0.2-1.7,0.2V364H421c0-0.3,0.1-0.1-0.1-0.3c0.2-0.2,0.6-0.4,0.9-0.5c0.2-0.6-0.1-1,0.1-1.5c0.4-1.5-0.3-1.8-1.4-2.6
			c-0.5,0.1-0.6,0.3-1,0.4c-0.1,0.9-0.2,1.7-0.3,3c-0.4-0.3-1-0.8-1.9-0.8c-0.3,0.4-0.7,0.7-0.9,1.2c-0.3-0.1-0.3,0-0.7,0
			c-0.1-0.4-0.2-0.3-0.3-0.7c-0.6-0.1-1.2-0.2-1.7,0.2c-0.2,0.1-0.2,0.1-0.4,0.2c0,0.4-0.1,0.8,0.1,1.2c0.1,0.6,0.9,0.9,1.5,1
			c0.1,0.4,0.7,1.2,1,1.5c-0.3,0.5-1.2,0.5-1.4,0.7c-0.3-0.3-0.6-0.7-0.8-1c-0.1-0.3-0.1-0.6-0.2-0.9c-0.2-0.3-1.6-1.1-2-1.3
			c-0.3,0.1-0.6,0-0.9-0.1c-0.1,0.2-0.7,1-0.5,1.2v0.1c-0.1,0-0.1-0.1-0.2-0.1c-0.1,1.1-0.6,2.2-1,3c-0.7,0-0.8-0.1-1.4-0.1
			c-0.5,0.5-0.9,0.6-0.8,1.3h-0.6c0-0.7-0.3-1-0.6-1.4c-0.3,0-1-0.1-1.3,0c-0.2,0.1-0.2,0.2-0.5,0.3c-0.1,0.5-0.2,0.6-0.3,1.1
			c-0.5-0.4-2-0.5-2.6-0.8c-0.7,0.1-0.8,0.7-1,0.9c-0.3,0.2-0.4,0-0.7,0.2c-0.2-0.1-0.1-0.1-0.4-0.2V369c0.4-0.1,0.7-0.4,0.9-0.8
			c0.4-0.6-0.4-2.2-0.8-2.5c-0.3-0.2-0.5-0.2-0.7-0.4c-0.8,0-1.4,0.4-1.6,0.9c-0.3-0.1-0.4,0-0.6-0.2c-0.2-0.1-0.6-1.2-0.7-1.5
			c0.1-0.2-0.1-0.8-0.3-1.1c-0.2-0.2-0.6-0.3-0.8-0.6c-0.7-0.1-1.2-0.4-2-0.2c-0.6,0.2-1.4,0.7-2.2,0.9c0,0-0.4,1.6-0.4,1.7
			c-0.2,0.3-0.9,0.7-1.6,0.6c-0.2,0-0.5-0.1-0.7,0c-0.9,0.3-0.5,1.2-0.9,1.6c-0.1,0.1-0.3,0-0.4,0.1c-0.3-0.2-0.8-1.4-1.3-1.9v-0.1
			c-0.1,0-0.1,0.1-0.2,0.1c-0.1-0.1-0.1-0.2-0.2-0.3c0.3-0.5,0.7,0,1.1-0.2c0.3-0.1,0.4-0.5,0.7-0.6c0-0.5,0.1-0.9-0.2-1.3
			c0-1.1-1-0.9-1.7-1.3c-0.9,0.4-0.6,0.9-1.1,1.4c0.3,0.6,0.3,1.3,0.7,1.6c-0.2,0.4-0.8,0.3-1,0.1c0-0.1-0.2-0.8-0.5-0.7
			c-0.3,0.1-0.7-0.9-1.8-0.1c0,0.7-0.1,1.1,0.1,1.4c0,1-0.1,1.5-0.3,2.1c-0.3-0.1-0.5-0.2-0.7-0.3c-0.5-2-1.2-2.6-3.3-2
			c-0.1,0.4-0.2,1.1-0.3,1.3v0.2c-0.3-0.2-0.5-0.6-0.7-0.8c-0.2-0.3-1.4-0.8-1.7-0.4h-0.1c0.4-0.7-0.1-1,0-1.7
			c0.1-0.8-0.2-1.3-0.7-2c0.2-0.4-0.1-0.4-0.2-0.6c0-0.1,0.1-0.2,0.1-0.3c-0.7-1-1.1-1.4-2.4-1.5c-0.2,0.2-0.4,0.4-0.6,0.5
			c-0.2,1.1,0.1,1.9,0.7,2.5v0.3c-1.6-0.4-1.6-1.6-3.2-0.9c-0.1-0.2-0.7-0.9-0.8-1c0.1-0.6,0.4-0.5,0.6-0.9c0.2-0.5,0-1.1,0-1.8
			c-0.2-0.2-0.3-0.5-0.5-0.7c-0.3-0.3-0.8-0.4-1.1-0.7v-0.3c0,0-0.7-0.8-0.7-0.8c-0.2-0.2-0.9-0.3-0.9-0.3c-0.8,0-0.8,0.4-1.2,0.7
			c0.1,0.4,0.1,0.8,0.2,1.2c0.2,0.3,0.6,0.5,0.8,0.8c0.5,0.5,0.3,1.5,0.9,1.8c-0.1,0.3-0.2,0.3-0.3,0.6c-0.4,0-1.3,0.2-1.8-0.1
			c-0.9-0.6-1.9-2.1-2.9-0.7c-0.5-0.2-0.5-0.5-0.9-0.8c-0.2-0.2-0.9-0.3-1.1-0.4c-0.4-0.2-0.1-0.7-0.5-0.7c0.1-0.2,0-0.1,0.2-0.2
			c-0.5-1.2-2-1.8-2.8-2.7c-0.8,0.1-1.3,0.4-1.8,0.1c-0.6-0.4-1.7-0.4-2.3-0.9c-0.4-0.3-0.3-0.7-0.6-1.1c-0.1-0.1-0.4-0.1-0.5-0.3
			c0-0.1,0.1-0.4,0-0.6c-0.7-1.5-0.3-3.1-1.1-4.4c-0.7-1.1-1.8-2.2-3.2-2.9c-0.5-0.3-1-0.2-1.4-0.5c-0.5-0.4-1.1-1.1-1.8-1.2
			c-0.3-1-1.5-1.5-1.9-2.6c-0.1-0.4,0.1-0.7,0.1-0.9c-0.2-1.6,0.8-5.6-0.6-6.8c-1-0.8-2.7-0.8-4-1.4c-0.5-0.2-0.9-0.7-1.4-1
			c0.2-1.2,0.4-1.7,1-2.5c0.1-0.1,0.1-0.1,0.3-0.1c0-0.4,0.1-0.5,0.2-0.7h0.3c0.1-0.3,0.3-0.7,0.5-0.9c0-0.9-0.5-1.6-1.2-1.8v-0.3
			c-0.9-0.1-1-1-1.7-1.4c0-0.9-0.3-1.8-0.1-2.8c0.1-0.7,0.6-2.4,0.4-3c-0.5-1.5-1.1-3.4-1.5-4.8c0-0.2,0.1-0.4,0.1-0.6
			c-0.1-0.6,0-1.2-0.1-1.7c0-0.1,0.3-0.5,0.3-0.6c0.2-0.6,0-1.1,0.2-1.6h0.2c0.1-0.2-0.1-0.3-0.2-0.4h0.3c0,0-0.2-0.3-0.1-0.5
			c0.3-0.5,0.8-1,0.8-1.6c0.2-0.4,0.9-1.3,0.4-2c0-1.3-1.3-1-1.7-2c-0.3-0.6,0.3-2.1,0.1-2.9c-0.1-0.5-1.2-3-1-3.6
			c0.8-1.7,1.8-3.6,2.5-5.3c0.2-0.4,0.3-1.1,0.4-1.4c0-0.1-0.1-0.3-0.1-0.4c0.6-1.2,1-3,0.5-4c0.3-0.1,0.1,0,0.3,0
			c0-0.3-0.1-0.7-0.1-1c0-0.1,0.3,0,0.2-0.5c0-0.1-0.3-0.2-0.2-0.5c0.1-0.5,0.4-0.8,0.4-1.7c0.3-0.1,0.3-0.1,0.4-0.4h0.3v-0.4
			c0.5-0.1,0.5-0.4,1.1-0.5v-0.3c0.8-0.1,1.1-0.5,1.8-0.6c0.1-0.4,0.2-0.3,0.3-0.5c0-0.3,0.1-0.6,0.1-0.9c0,0,0.3-0.2,0.3-0.2
			c0.1-0.2-0.3-0.3-0.2-0.4c0.2-0.3,0.4-1.1,0.5-1.5c0.1-0.2-0.1-0.3-0.1-0.4c0.1-0.1,0.2-0.1,0.3-0.2c0.5-1.1,0.7-2.3,1.6-3
			c0.1,0,0.2,0.1,0.3,0.1l0.6-0.6c0.2-0.1,0.6,0,0.8-0.2c0-0.1,0.1-0.3,0.1-0.4c0.2-0.1,0.5-0.2,0.8-0.2c-0.1-0.2,0-0.1-0.1-0.2
			c0.5-0.3,2.1-1.1,2.4-2h0.3v-0.3c0.8-0.4,1.1-0.9,1.9-1.4c0.4-0.2,0.9,0,1.3-0.2c0.7-0.4,1.1-1.2,2.1-1.3V264
			c0.6-0.2,0.7-0.6,1.3-0.8c0.1-0.5,0.3-0.8,0.5-1.1c-0.1-0.2,0-1.4,0-1.4c-0.1-0.3-0.1-0.2-0.2-0.4c0-0.2,0.1,0,0.2-0.2
			c0-0.1-0.1-0.1-0.1-0.2c-0.2-0.5-0.1-0.5,0-1.1h-0.3c0.1-0.1,0.2-0.1,0.5-0.1v-0.3c1.5-0.7,3.7-1.6,4.9-1.3
			c0.6-0.1,1.5-0.6,2.1-0.3v-0.1c0-0.1,0,0-0.1-0.1c0.2-0.4,1.3-0.3,1.9-0.6c0.7-0.4,3.5-2.9,3.2-3.9V252h0.3
			c0.1-0.8,0.6-0.7,0.7-1.5c0.1,0,0.2,0.1,0.3,0.1c0.1,0,0.2-0.4,0.3-0.5c0.2,0,0.4-0.1,0.6-0.1v-0.2c0.2-0.1,1.7,0.1,2,0
			c0.4-0.2,0.8-0.5,1.4-0.6v-0.3c1-0.2,1.8-1.5,2.7-1.4c-0.1-0.2,0-0.1-0.1-0.2c0-0.1,0.5-0.2,0.7-0.5c0,0,0.1-0.1,0.1-0.1h-0.1
			v-0.2c0.7,0.1,1.4-0.2,2.5-0.3c0.5-0.1,1.2,0.1,1.6,0c0,0,0.3-0.1,0.4-0.2v-0.2c0.2-0.1,0.7,0.1,1.1-0.1c0.2-0.1,0.4-0.4,0.5-0.5
			h0.4c0.7-0.4,1.9-1.3,2.8-1.4c0-0.1-0.1-0.1-0.1-0.2c0.3-0.2,0.7-0.3,1-0.5V243c0.4-0.2,1.4-0.2,1.6-0.2c0.1,0,1.2-0.3,1.3-0.2
			c1.1,0.6,3.8,1.3,5,0.7c0.1,0,0.8,0.1,1.1,0c1.3-0.5,2.9-1.1,3.9-2c0.1,0.1,1-0.1,1.2-0.2c0.1,0,0.1-0.4,0.2-0.4
			c0.2,0,0.3,0.1,0.5,0.1c0.1,0,0.3-0.3,0.3-0.3c0.3-0.2,1,0,1.1,0c0.3-0.1,1.3-0.5,1.6-0.7c0.1,0.1,0.9,0,1,0v-0.2
			c0.4-0.1,1.1,0.2,1.8,0.3v0.3c0.2-0.1,0.1,0,0.2-0.1c0.2,0.1,0.1,0,0.2,0.3c0.6,0.1,0.8,0.3,1.2,0.5h0.5c0.2,0.1,0.5,0.4,0.7,0.5
			c0.5,0.1,1.8-0.1,2.1,0v0.2c1.7,0.5,4.6-0.4,6.1-0.8c0.3-0.1,0.3,0.2,0.4,0.2c0.4,0.1,0.2-0.2,0.5-0.2c0.5,0.1,0.6,0.4,1.2,0.4
			l0.1,0.1c-0.1,0.1,0,0-0.2,0.1c0.2,0.2,0.3,0.3,0.7,0.3c0,0.2-0.1,0.1,0,0.3c0.1,0.1,3.3,1.9,3.8,1.9v0.3c1,0.1,1.6,1,2.8,1.2
			c0.9,0.1,2.6-0.2,3,0c0.1,0.1,0.1,0.3,0.3,0.4c0.2,0,0.3-0.1,0.5-0.1c0,0.1,0.1,0.3,0.1,0.4c0.1,0.1,0.2,0,0.3,0.1
			c0.1,0.1,0.1,0.1,0.1,0.3c0.4,0.1,1.5,1.4,1.6,1.7c0.4,0,0.2,0,0.6,0.1v0.3c1.2,0.1,1.7,1.1,2.6,1.6c0.2,0.1,1,0.2,1,0.2
			c0,0.1-0.1,0.1-0.1,0.2c1.7-0.7,5.1-1.2,6.7-0.2c0.3,0.2,0.4,0.6,0.6,0.8h0.4c0.3,0.3,0.5,0.8,0.8,1.1c0.3,0.3,0.7,0.4,1,0.6
			c0.8,0.6,1.3,2.1,2.3,2.5v0.4c0.2,0,0.5,0.4,0.6,0.8c0.1,0,0.2-0.1,0.3-0.1v0.5h0.3c0.2,1.1,2,1.4,2.6,1.8c0.6,0.3,0.6,1.8,0.7,2
			c0.1,1.5,1.9,2,2.8,2.8c0.1,0.1,0.1,0.1,0.1,0.3c0.5,0.1,0.6,0.2,1,0.3c-0.1,0.1,0,0-0.2,0.1c0.2,0.1,0.5,0,0.8,0.1
			c0.3,0.1,0.5,0.4,0.7,0.4c0.3,0.1,0.1-0.1,0.2-0.2c0.4,0.3,1.4,0,2,0.5c1.5,1.1,2.4,3.3,3.4,4.9c0.1,0.2,1.4,1.6,1.6,1.7
			c0,0,0.7,0,0.9,0.2c0.5,0,0.4,0.1,0.5,0.6c0.1-0.1,0,0,0.1-0.2c0.3,0.4,0.3,1.1,0.4,1.3c0.5,0.9,1.1,2.1,1.9,3.1
			c0.4,0.5,1.1,0.7,1.7,1.1c0.7,0.5,1.5,1.4,1.9,2.1c0.2,0.3,0,0.5,0.2,0.8c0.2,0.4,0.6,1,0.8,1.4c0.2,0.4-0.1,0.9-0.1,1.1
			c0,1,0.2,2.3,0.6,3c0.4,0.7,1.6,1.5,2.1,1.9v0.1c0.1,0,0.1-0.1,0.2-0.1c0.2,0.6,0.5,1.5,0.3,2.4c-0.1,0.5-0.5,1.8-0.3,2.2
			c0.4,1.2,1.5,2.3,1.8,3.3c0.2,0.6-0.9,3.5-1.1,4.3c-0.1,0.5-0.4,3.7-0.2,4.5c0.1,0.4,0.4,0.7,0.7,0.9c-0.1,0-0.1,0.2-0.1,0.4h0.3
			c0.1,0.7,0.2,1.3,0.3,2c-0.1,1.1-0.3,2.4-0.8,3.1c0,0-0.3,1.7-0.3,1.8c0,0.2,0.3,0,0.2,0.3c-0.3,1.4-0.9,3.5-1.1,5.2
			c0,0.3,0.2,0.8,0.3,1c0.1,0.4,0.1,1.1,0.1,1.5c0.4,0.8,0.8,1.7,0.7,2.4c0.1,0.2,0.4,0.4,0.4,0.7c0.1,0.8-0.5,2-0.7,2.5
			c-0.1,0.2-0.3,1.7-0.3,2c-0.2,0.4-0.5,0.9-0.6,1.4c-0.1,0.4,0.1,0.6,0,0.8c-0.1,0.2-0.4,0.6-0.5,0.7c0,0.2-0.1,0.5-0.1,0.7
			c-0.1,0.1-0.4,0.2-0.5,0.3c-0.1,0.2,0.2,0.3,0,0.5c-0.3,0.3-0.7,0.7-0.9,1.1c-0.1,0.3,0,0.4-0.2,0.7c-0.1,0.1-0.3,0.2-0.4,0.3v0.5
			c-0.2,0.4-0.5,1-0.6,1.4c0,0.1,0.1,0.2,0.1,0.3H472c0,0.1-0.2,0.4-0.2,0.4c0,0.2,0.1,0.3,0.1,0.5c-0.3,1.3-0.2,2.1-0.3,3.1
			c-0.1,0.9,0.5,1.9-0.1,2.7c-0.4,0.2-1,0.2-1.2,0.9c-0.5,0.7,0.2,1.3,0.2,1.7c-0.1,0.8-1.8,2.2-2.1,3c-0.4,0-0.5,0.1-0.7,0.2
			c-0.2-0.2-0.6-0.5-0.9-0.6c-0.1-1-0.7-1.9-1.6-2.1c-0.5-0.2-0.9,0.4-1.3,0.6c0.1,0.3,0.1,1.1,0,1.4c1.1,0.7,0.9,1.6,1.4,2.4
			c0,1.1-0.8,1.2-1.3,1.8v0.3c-0.4,0.5-0.6,0.9-0.9,1.2c0.2,0.1-0.2,0.7-0.3,0.8h-0.3c-0.2,0.2-0.4,0.6-0.7,0.7
			c-0.1,0-0.2-0.1-0.3-0.1c0,0.1-0.1,0.3-0.1,0.4c-0.2,0.1-1.3,0.7-1.3,0.7c-0.3,0.3-0.6,1.5-0.6,1.7c-0.5-0.3-0.6,0-1.2-0.1
			c-0.4-0.1-1-0.5-1.3-0.7c-0.5-0.3-1.3-0.1-1.8-0.1c0.1-0.6-0.8-0.9-1.2-1.3c-0.2,0.1-0.1,0-0.2,0.1c-0.9,0-0.8,0.6-1.3,1
			c0.1,0.8,0.3,1.2,0.8,1.8c0.3,0.2,0.5,0,0.7,0.4c0.4-0.1,0.7-0.1,1-0.3c0.2,0.3,0.5,0.7,0.7,0.9v0.4c-0.4-0.1-0.8,0-1.2-0.2
			c-1.4,0-2,0.5-2.6,1.2l-0.1,0.1h0.1v0.1c-0.4-0.1-0.7,0.1-0.9,0.2c-0.4,0.1-0.8-0.4-1.1-0.3c-0.1,0.1-0.1,0.2-0.2,0.3
			c-0.5,0.2-1.4,0.1-2.1,0.6c-0.5,0-0.7-0.1-0.8-0.5h-0.3v-0.3c-0.5-0.1-1.1-0.3-1.3-0.4c-0.6,0.1-0.4,0.5-0.9,0.7
			c0.1,0.6-0.1,1-0.1,1.6c0,0.2,0.4,0.6,0.2,1c-0.1,0-0.2,0.1-0.3,0.1c0.1,0.1-0.1,0.4-0.3,0.6c-0.2,0.2-0.7,0.3-1.3,0.2
			c0.2-0.6,0.4-0.9,0.2-1.5c0.1,0,0.1-0.1,0.2-0.1c-0.2-0.2-0.6-0.8-1-0.7c-0.1,0-0.4,0.2-0.6,0.1c-0.3-0.1-0.7-0.5-1.2-0.2
			C439.5,363.2,439.6,363.8,439.3,364.4z M491.5,374.6c0.2,0.1,0.1,0,0.2,0.1C491.5,374.7,491.6,374.7,491.5,374.6z M501.1,374.8
			L501.1,374.8l-0.1-0.2h0.1V374.8z M519.7,376c0.2,0.1,0.1,0,0.2,0.1C519.8,376,519.8,376.1,519.7,376z M535.2,373.9
			c0.2,0.1,0.1,0,0.2,0.1C535.2,374,535.3,374,535.2,373.9z M536,374.4c0.2,0.1,0.1,0,0.2,0.1C536,374.5,536.1,374.5,536,374.4z
			 M548.2,375.3c0.2,0.1,0.1,0,0.2,0.1C548.3,375.4,548.3,375.4,548.2,375.3z M564.9,374.2L564.9,374.2l-0.1-0.1
			c0.2,0.1,0.1,0,0.2,0.1L564.9,374.2L564.9,374.2z M408,241.2L408,241.2l-0.2-0.1C407.9,241.1,407.8,241.1,408,241.2z M418.4,241.3
			L418.4,241.3l-0.2-0.1C418.3,241.2,418.2,241.2,418.4,241.3z M367.2,327.1c-0.3,0-0.4,0-0.5,0.1c-0.5,0.1-0.5,0.3-0.8,0.5
			c0,1,0.3,1.8,0.9,2.1c0.4,0.2,0.4-0.1,0.6,0.3c0.5-0.1,0.6-0.2,1-0.3C368.6,327.9,368.1,328.2,367.2,327.1z M397.7,327.3
			c-0.2,0.2-0.3,0.4-0.6,0.5c0,0.6,0.1,0.8-0.1,1.3c0.2,0.4,0.6,0.8,0.8,1.2c0.6,0.1,1.7,0.8,2.2,0.1c0.8-1.1-1.1-2.6-1.4-3.1
			L397.7,327.3L397.7,327.3z M467.7,340.2c0.8,0,0.9-0.3,1.4-0.4v-0.4h0.3c-0.1-0.9-1.1-2-1.8-1.9c-0.8,0-0.6,0.3-1,0.7
			c0.1,0.6,0.2,0.8,0.3,1.5C467.2,339.8,467.4,339.9,467.7,340.2z M349.7,337.9c-0.3-0.1-0.6,0.1-0.9,0c-0.1,0.2-0.3,0.5-0.4,0.7
			c-0.2,0.4,0,1,0,1.2c0.5,0.4,1.2,1.6,2,1.3c0.6,0,0.7-0.2,1.1-0.4C351.5,339.1,350.6,338.2,349.7,337.9z M373.5,343.6
			c-0.1,0.1-0.1,0.1-0.3,0.1c-0.1,0.2-0.2,0.4-0.4,0.5c0,0.4-0.2,0.8,0,1.1c0.1,1,0.9,1.1,1.5,1.6c0.6,0,0.9-0.1,1.3-0.2
			C376.1,344.9,374.8,344.2,373.5,343.6z M433.4,345L433.4,345l-0.1,0.1h-0.1c-0.1-0.2-0.1-0.1-0.3-0.2c-0.1,0.1-0.2,0.1-0.4,0.2
			c-0.1,0.3-0.4,1-0.1,1.4c0,0.5,0.5,1,0.8,1.1c0,0,0.5,0.1,0.7,0.1c0.2-0.3,0.4-0.5,0.6-0.9C434.8,346.2,433.9,345.3,433.4,345z
			 M454.9,347.8c0.4,0.3,0.8,0.3,1,0.5c0.3-0.1,0.5-0.2,0.7-0.5c0.7-0.8-0.5-1.8-0.5-2.4c-0.4-0.1-0.8-0.1-1.1-0.2l-0.5,0.5
			c-0.3,0.4-0.1,1-0.1,1.4C454.6,347.3,454.7,347.7,454.9,347.8z M358.8,346.1c-0.2,0.4-0.2,0.1-0.4,0.3c-0.4,0.4-0.2,1.1-0.2,1.7
			c0.3,0.3,0.5,0.7,0.8,0.9c0.3,0.2,0.7,0.1,0.9,0.3c1,0,0.8-0.4,1.2-0.4C361.1,347.3,360.2,346.3,358.8,346.1z M443.9,352.8
			c0.4,0.2,0.8,0.1,1.1-0.3c0.2-0.1,0.2-0.3,0.2-0.4c0.1-1.6-1.1-2-2.2-2.2c-0.1,0.4-0.2,0.5-0.3,0.7c-0.3,0.8,0.8,2,1,2.4
			C444,352.9,443.9,353.1,443.9,352.8z M462,353.4c1.5-0.2,1-1.3,1-2.2c-0.4-0.2-0.9-0.5-1.4-0.6c-0.2,0.2-0.7,0.4-0.8,0.7
			c-0.1,0.1,0,0.6-0.1,0.7c0.2,0.4,0.5,0.8,0.6,1.2C461.5,353.3,462,353.4,462,353.4z M397.1,354.7c0.1-0.2,0.2-0.5,0.4-0.6
			c0-0.5-0.1-1.4-0.3-1.7c-0.2-0.4-0.9-0.8-1.5-0.8c-0.1,0.2-0.2,0.2-0.4,0.4c-0.4,0.5,0.6,2.1,1,2.5
			C396.6,354.7,396.9,354.6,397.1,354.7z M387.2,352.1c-0.2,0.3-0.4,0.5-0.6,0.8c-0.3,0.5,0.2,1.6,0.6,2.2l0.9,0.3
			c0.6,0,0.9-0.1,1.2-0.4c0,0,0.2-0.7,0.2-0.8h-0.2C388.8,352.7,388.6,352.3,387.2,352.1z M408.9,353.1c-0.2,0.3-0.7,1.3-0.7,1.3
			c0.2,0.3,0.5,0.5,0.6,0.8c0.4,0,0.5,0.1,0.7,0c0.4-0.2,0.4-0.5,0.7-0.8c-0.1-0.5-0.2-0.5-0.2-0.8
			C409.6,353.5,409.4,353.2,408.9,353.1z M456.2,353.9c0,0.4-0.1,1.4,0,1.6h0.2c0.1,0.2,0.2,0.4,0.3,0.6c0.3,0.1,0.5,0.2,0.8,0.3
			c0.4-0.1,0.6-0.3,1-0.4c0.2-0.7,0.2-1.1,0.3-1.6c-0.6-0.4-1-0.9-1.9-1.1C456.8,353.7,456.4,353.9,456.2,353.9z M377.5,357.9
			c-0.4-1-1.1-1.6-2-2.1c-0.2,0.2-0.3,0.1-0.4,0.2c-0.2,0.2-0.3,0.3-0.5,0.5c-0.3,0.2-0.1,0.7-0.2,1.2c0.2,0.2,0.1,0.3,0.3,0.6
			c0.3,0.5,1.1,0.7,1.3,1.2c0.2,0.4,0,0.7,0.2,1c0.3,0.5,0.9,0.7,1.2,1.3c0.3,0,0.6-0.1,0.9-0.1v-0.1c0.6-0.8-0.2-1.7-0.5-2.2
			C377.5,358.8,377.8,358.6,377.5,357.9z M448.1,360.7c0.7-0.1,0.9-0.6,1.5-0.8c0-0.3,0-0.8,0.1-1.1c-0.2-0.2-0.2-0.5-0.4-0.6
			c-0.3-0.3-0.8-0.5-1.1-0.7c-0.2,0.2-0.8-0.1-1.1,0.1c-0.6,0.4-1.1,1.4-0.7,2C446.8,360.5,447.8,360.3,448.1,360.7z M444.7,361.3
			c0-0.4-0.1-0.6,0-0.9c0-1.1-0.6-1.2-1-1.9c-0.3-0.1-0.5-0.1-0.9-0.1c-0.4,0.4-1.5,0.7-2.1,0.9c-0.1,0.6-0.1,1.2,0.2,1.6
			C441.7,362.7,443.8,361.3,444.7,361.3z M396.9,361c-0.2,0.2-0.4,0.2-0.6,0.4c-0.8,1,0.3,1.7,0.7,2.3c0.3,0,0.4,0,0.5-0.1
			c0.6-0.2,0.8-1.2,0.8-1.5c-0.1-0.6-0.3-0.6-0.5-1C397.3,361.1,397.2,361.1,396.9,361z M402.5,362.4c-0.1-0.7-0.5-0.7-0.8-1.1
			c-0.2,0-0.2,0-0.4-0.1c-0.2,0.2-0.3,0.3-0.5,0.5c-0.1,0.1,0,0.2-0.2,0.4c0.1,0.5,0.3,0.9,0.7,1.1c0.3,0.2,0.6,0,1-0.1
			C402.4,362.7,402.5,362.5,402.5,362.4z M373.5,363.1L373.5,363.1c0-0.2,0.1-0.1,0-0.2V363.1z M405.6,364.2v-0.3
			c-0.4-0.2-0.7-0.3-1.2-0.5c-0.5,0.5-1.4,1-2,1.3c0.1,0.2,0,0.1,0.2,0.2c-0.1,0.1-0.1,0.1-0.3,0.1c0,1.2,0.5,1.4,0.8,2.2
			c1.3,0.1,2.6-0.2,3.1-1.5c0.2-0.3-0.2-1-0.3-1.5L405.6,364.2L405.6,364.2z M510.3,372.8h-0.2C510.2,372.9,510.1,372.9,510.3,372.8
			C510.2,372.9,510.3,372.9,510.3,372.8L510.3,372.8z M540.2,374v0.2h0.1C540.2,374.1,540.2,374.1,540.2,374z M236.8,374.5h-0.2
			C236.7,374.6,236.6,374.6,236.8,374.5L236.8,374.5z M544.1,376.3L544.1,376.3c0.2,0.2,0.2,0.1,0.5,0.1v-0.1
			c-0.1,0-0.2-0.1-0.3-0.1C544.2,376.3,544.3,376.3,544.1,376.3z M492.9,376.3c0.1,0.2-0.1,0.1,0.1,0.3
			C493.1,376.4,493,376.3,492.9,376.3z M542.6,376.9v-0.2h-0.2C542.5,377,542.4,376.8,542.6,376.9z M540.9,377.2
			c-0.1-0.1-0.1-0.1-0.3-0.1C540.7,377.2,540.6,377.2,540.9,377.2z M572.1,377.1v0.3c0.1,0,0.2-0.1,0.3-0.1
			C572.3,377.1,572.5,377.2,572.1,377.1z M536.3,377.4c0.1,0.2,0.1,0.1,0.3,0.2C536.4,377.4,536.6,377.5,536.3,377.4z M566.4,377.6
			h0.3c-0.1-0.2,0-0.1-0.3-0.2c0,0,0,0,0,0L566.4,377.6L566.4,377.6z"/>
	</g>
</g>
</svg>
