<?xml version="1.0" encoding="utf-8"?>
<!-- Generator: Adobe Illustrator 21.0.0, SVG Export Plug-In . SVG Version: 6.00 Build 0)  -->
<svg version="1.1" id="Calque_1" xmlns="http://www.w3.org/2000/svg" xmlns:xlink="http://www.w3.org/1999/xlink" x="0px" y="0px"
	 viewBox="0 0 841 595" style="enable-background:new 0 0 841 595;" xml:space="preserve">
<style type="text/css">
	.st0{fill:#FFFFFF;}
	.st1{fill:#1D1D1B;}
</style>
<g>
	<g>
		<path class="st0" d="M365.2,291.4c2,8.9,4.5,17.7,8.9,25.1c0.9,1.5,2.3,2.8,3.5,4c2.5,2.7,4.9,5.7,7.8,7.8c2.7,2,5.7,3.7,8.4,5.5
			c0.6,0.1,1.2,0.3,1.8,0.4c2.9,1.7,5.3,3.5,8.9,4.6c7.9,2.3,23.4-2.6,28.6-5.8c7.6-4.7,12.6-11.2,17.4-18.7c1-1.6,1.8-4.1,2.8-6
			c1.3-2.3,1.4-5.8,2.3-8.1c0.5-1.2,1.2-3.1,1.7-4.8c0.4-1.5,0-2.3,0.6-3.8c0.2-0.6,0.9-3.9,0.6-4.2c2.4-3.3,2.3-10.1,3.3-14.8
			c0.6-2.5-0.1-5.1,0.5-6.9c-0.3-0.5-0.5-1-0.8-1.5c-0.5-1.9,0.3-4.5-0.1-6.8c-0.3-0.2-0.7-0.5-1-0.7c-0.3-1.7,0.2-4-0.8-5.3
			c-0.5,0.3-0.6,0.4-1.3,0.2c-0.7-1.7,0.4-5.1-0.3-7.4c-0.5-1.5-0.6-3.6-1.2-5.4c-0.9-2.7-3.2-5.1-4.7-7.3c-0.6-0.9-1-2-1.9-2.6
			c0,0.2,0,0.3,0,0.5c1.3,3.5,1.8,7.5,2.5,11.3c0.3,1.5,1.2,4,0.9,5.9c-0.2,0-0.5,0.1-0.7,0.1c0.1-0.6,0.2-1.1,0.3-1.7
			c0,0-0.1,0-0.1,0c-0.6,0.2-0.7,0.2-1.1-0.2c1.1-1.8-1.1-9-1.7-11.2c-0.7-2.6-1.2-5.5-2.5-7.6c-1.1-1.2-2.2-2.5-3.3-3.7
			c-2.6-3.2-4.9-6.3-8.6-8.5c-1.4-0.8-4.9-3.8-6.5-3.6c-1,1.7-5.6,7.3-7.2,8.4c-2.2,1.5-4.8,2.1-7.1,3.6c-1.6,1.1-3.3,2.9-4.7,4.3
			c-1.5,1.5-3.7,2.4-5.4,3.7c-0.5,0.6-1,1.3-1.5,1.9c-1.1,1.1-2.8,1.8-4,2.8c-2.7,2.2-6,9.1-9.8,9.4c-0.1-0.1-0.1-0.1-0.2-0.2
			c-0.1,0-0.1,0-0.2,0c-0.3-1.9,1.3-3.5,2.1-4.7c2-3,3.1-6.5,5.3-9.2c-0.1-0.1-0.2-0.3-0.3-0.4c0,0-0.1,0-0.1,0
			c-1.9,0.2-3,2.3-4.1,3.4c-3.4,3.2-6.3,7.5-9.5,11.3c-0.1,0-0.2-0.1-0.3-0.1c-0.4-0.1-0.2,0-0.4-0.3c-0.2-0.2-0.2-0.2-0.2-0.6
			c1.5-1.7,2.6-5,3.1-7.3c-0.1-0.1-0.2-0.1-0.3-0.2c-1.3-0.7-2.6,0.9-3.1,1.4c-0.6,0.6-1,0.6-1.9,1c-1.1,1-2.1,2.1-3.2,3.1
			c-0.9,1.1-0.9,2.6-2.1,3.2c-0.2-0.1-0.4-0.3-0.6-0.4c0.1-1.6,1.3-3,1.8-4.3c0-0.6,0.1-1.2,0.1-1.8c-0.1,0-0.1-0.1-0.2-0.1
			c-0.2,0-0.3-0.1-0.5-0.1c-1.5,1-2.4,2.6-3.9,3.6c-0.1,0-0.2,0-0.3,0c0-0.1,0-0.3,0-0.4c0.1-0.2,0.3-0.5,0.4-0.7
			c-0.6-0.9-1.9-0.8-2.5-1.7c0.9-3.9,4.1-6.5,6-9.9c0.5-0.9,0.6-3.4-0.1-3.9c-1.5-0.5-3.4,3-4.1,4c-1,1.5-2.3,3.5-3.2,5.3
			c-1.1,2.3-1.3,4.5-2.5,6.5c0.1,0.7-1.4,5.7-1.9,6c0,0-0.1,0.1-0.1,0.1c-0.2-0.1-0.5-0.2-0.7-0.3c0-2.8,2.6-5.3,2.1-8
			c-0.2-0.3-0.3-0.7-0.5-1c0,0-0.1,0-0.1,0c-3.9,2.6-4.6,10.8-3.8,15.3c0.6,3.3-0.5,6.2,0.6,9.1c1.2,2.9,2.5,6.2,2.3,10
			c-0.3,5.6,1.1,10.9,2.4,16.6C365.1,289.5,365.2,290.5,365.2,291.4z M479.6,377.7c-1-1.3-10.2-3.9-12.4-5.2
			c-3.1-1.8-6.1-3.8-8.5-6.3c-1.7-1.8-3.3-4.7-5.5-5.9c-0.1,0-0.2,0-0.3,0c0,0,0,0.1,0,0.1c0.5,1.7,2.7,7.9,1.8,9.4
			c-0.1,0.1-0.1,0.1-0.2,0.2c-0.2,0.1-0.4,0.1-0.6,0.2c-1.4-1.4-0.5-4.4-1.3-6.4c-3.3-8.4-3.6-19.4-5.4-28.6
			c-0.3-1.7,0.4-10.6-0.7-11.7c-0.2-0.2,0-0.1-0.3-0.2c-0.9,1.7-2.8,3.1-4.2,4.5c-3,3-6,5.8-10,7.9c-3.9,2-8.4,2.6-13.1,3.7
			c-5.5,1.3-11,2.3-16.7,0.2c-3.2-1.2-5.8-3.4-8.5-5.2c-1.9-0.9-3.7-1.8-5.6-2.7c-1.5-1-2.9-1.9-4.4-2.9c-0.7,2,0.3,5.1,0.6,7.4
			c0.3,2.6-0.2,4.5,0.3,6.9c0.3,1.1,0.6,2.2,0.9,3.3c0.1,1.1-0.4,2.5-0.4,3.7c-0.1,1.4,0.5,3.9,0.4,5.2c-0.2,2.2,0.4,8.4-1.1,9.5
			c-0.1-0.1-0.2-0.1-0.3-0.2c0-2.6,1.1-10.2-0.2-11.8c-2.5,2-2.9,6.3-4.6,9.1c-1.5,2.5-3.9,4.1-5.9,6.2c-0.8,0.9-1.4,2-2.4,2.7
			c-1.9,1.4-6.1,3.2-6.3,6c3.2,7,11.3,8.3,19.3,10.6c6.8,2,19.1,4.5,26,2.6c10.3,2.6,24.2,0.7,34.1-0.6c2.5-0.2,4.9-0.4,7.4-0.6
			c8.7-1.4,16.2-4.7,23.3-7C476.3,381.3,480.4,380,479.6,377.7z"/>
	</g>
</g>
<g>
	<g>
		<path class="st1" d="M521.7,388.9c-5.6-2.4-11.8-3.7-17.9-5.6c-1.6-0.5-3.2-0.9-4.8-1.4c-3.7-1.7-7.3-4.1-10.7-6.1
			c-2.3-1.2-4.5-2.5-6.8-3.7c-1.2,0.1-1.3,0.8-2,1.4c-2.8-0.2-5.5-2-7.7-3c-6-2.6-9.8-5.8-13.5-10.6c-0.9-1.2-2.3-2.2-2.9-3.7
			c-0.2-1.3-0.4-2.7-0.6-4c-1-3.3-1.2-8.2-2.2-12.3c0-1.2-0.1-2.3-0.1-3.5c-0.4-2.8-0.8-5.7-1.2-8.5c0-1.2-0.1-2.3-0.1-3.5
			c-0.1-1-0.2-1.9-0.3-2.9c1.5-2.6,2.9-5.3,4.4-7.9c-0.3-0.5,1.8-4.6,2.1-5.4c1.9-5.7,3.3-10.7,4.5-16c1.3-0.7,3.4-0.2,4.3-1.2
			c4.1-4.8,5.8-13.9,6.2-20c0.3-4,0-7.6-1.9-9.9c0.7-1.7,1.6-4.2,2-5.8c0.2-1.5,0.3-2.9,0.5-4.4c4.4-11.4,2.3-26.1,0-38
			c-0.4-1.9-2.3-3.6-3.1-5.3c-1.8-3.8-3.2-8.1-5.6-11.4c-1-1-2.1-2-3.1-3c-1.9-2.1-4.2-6-6.6-7.4c-0.7-0.5-2.2-1.5-3.2-1.4
			c-0.6,0-1,0.3-1.7,0c-1.3-0.6-2.5-1.3-3.8-1.9c-2.1-0.7-5.6,0-7.8,0.5c-0.9,0.2-0.9-0.7-1.9-0.4c-2.3,0.8-4.4,3.1-5.7,5
			c-0.1,0-0.2,0.1-0.3,0.1c-1.2-1.2-2.1-3.4-3.7-4.2c-0.2,0.1-0.4,0.1-0.6,0.2c0,0.2-0.1,0.3-0.1,0.5c0.8,0.4,0.7,1,1.2,1.8
			c0.9,1.2,1.9,2.4,2.8,3.6c2,3.3,1.6,7.8,1.3,12c0,0-0.1,0-0.1,0c-1.1-1-0.6-4.8-1.2-6.8c-0.4-1.1-0.8-2.2-1.2-3.3
			c-0.1-0.7,0.5-0.6,0.3-1.3c-0.5-1.5-2.5-2.7-3.5-3.8c-0.8-0.9-0.3-2-1.2-2.7c-2.3-1.8-5.3-1.7-8.5-2.7c-1.8-0.6-3.7-1.6-5.7-2.1
			c-1.8-0.1-3.6-0.2-5.4-0.3c-0.4,0.6-5.1,0.8-6.5,1.3c-6.7,2.3-15.6,2.6-21.4,4.8c0,0.1,0,0.2,0,0.3c1.8-0.2,2.9-0.7,4.4-1.2
			c2.3-0.7,4.9,0,7.4-0.6c4.2-1.1,8.8-1.7,12.2-3.2c1,0.6,5-0.4,6-0.6c1,0.5,3.1,0.8,4.3,0.9c0.2,0.2,0.3,0.4,0.5,0.6
			c-9.1,1.5-19,0.4-26.3,4c-0.7,0.1-1.4,0.2-2.1,0.3c-1.4,0.5-7,2.7-7.8,3.9c-0.1,0.1-0.3,0.1-0.4,0.2c0,0.1,0,0.2,0,0.3
			c1.2-0.1,2.3-1.1,3.2-1.7c1.6-1.1,4.5-1.5,6.5-2c-0.4,1.3-3,1.8-4.1,2.5c-2.8,1.7-6.2,3.5-8.4,5.9c0,0.1,0,0.1,0,0.2
			c0.3,0,0.5,0.1,0.8,0.1c1.8-2.2,4.9-3.6,7.5-5c4.9-2.7,12.7-7.5,19.9-6.3c-2.9,2-8.9,2-10.7,5c0.1,0.1,0.2,0.3,0.3,0.4
			c4.8-2.1,14-7.8,21-5.1c-1.6,1.4-4.8,0.7-6.9,1.6c-5.6,2.4-11.1,4.1-16.1,7c-7.6,4.5-14.5,9.5-21.3,14.7c-3,3-6.1,6-9.1,9
			c0-2,2.1-6.4,3.7-6.8c0.3,0.3,0.4,0.6,0.5,1.1c0.3,0,0.1,0.1,0.4-0.1c0.6-0.7,0.3-1.7,0.6-2.6c0.3-1,1.4-2.6,2.2-3.3
			c3-2.9,6-5.6,9.5-8c0.6-0.4,1.3-1.5,1.9-1.8c4.1-2.2,7.8-3.8,12.5-5.4c0-0.1,0-0.2,0-0.3c-5.4,0.9-10.9,3.3-14.7,6.3
			c-2.4,1.9-4.7,4.3-7.2,6.2c-0.1,0-0.2-0.1-0.3-0.1c-0.1-0.7,4-5.3,4.9-5.5c0.2-0.3,0.5-0.5,0.7-0.8c0,0,0-0.1,0-0.1
			c-2.3,0-5.1,4.5-6.4,6c-1.5,1.7-2.1,3.3-3.4,5.2c-1.6,2.2-3.6,3.9-5,6.5c-0.8,2.1-1.7,4.2-2.5,6.3c-1.1,2-3.2,3.5-4,5.5
			c-0.2,0.1-0.4,0.1-0.6,0.2c-2.6-2.6,0-6.5-0.1-10.3c0-0.6,2.1-3.7,2.8-4.4c0-0.2,0-0.5,0-0.7c0.3-0.6,1.4-1.2,1.9-1.7
			c1.8-1.9,3.2-4.6,5.3-6.2c0.7-0.5,1.4-0.8,2-1.4c0.1-0.3,0.3-0.6,0.4-0.9c1.3-1,4.2-2.5,5-4.2c-0.1-0.1-0.3-0.1-0.4-0.2
			c-0.5,0.9-4.8,4-5.9,4.9c-4.1,3.3-7.8,7.9-10.7,12.4c-1.4,2.1-3,8.3-2.1,12.2c0.3,0.6,0.7,1.2,1,1.8c-0.3,0.7-0.6,1.4-0.9,2.1
			c-1,2-2.3,3.8-2.8,6.3c-0.4,1.9,0.3,3.3-0.2,5c0,0.1,0.1,0.2,0.1,0.3c0.9-0.1,1.9-1.8,1.7-2.8c-0.2-0.3-0.5-0.6-0.7-0.9
			c-0.6-1.9,2.2-7.1,3.1-8.5c0.5-0.8,2.4-3,2.3-3.9c0.5-0.1,0.4-0.1,0.7-0.3c0.1,0,0.2,0.1,0.3,0.1c0.2,2.5-1.7,6.1-2.3,8.8
			c-0.7,3.6-1.2,6.7-1.9,10.5c-0.2,0.9-0.4,4.2-0.5,4.3c-0.9,1.2-1.5,2.8-1.7,4.7c0.1,0.2,0.3,0.4,0.4,0.6c0.6,0.1,1.2,0.1,1.8,0.2
			c0.2,2.5-0.2,5.8,2.1,6.8c0.2,0,0.5-0.1,0.7-0.1c0.1-0.9-1.1-1.9-0.8-2.4c0.3-0.6,1.1-1.1,1.4-1.6c0.8-1.3,0.9-3.4,2.3-4.4
			c0.2-0.2,0.2-0.1,0.5-0.2c0.1,0.1,0.1,0.1,0.2,0.2c-0.4,0.5-1.7,8.3-1.3,9c0.2,0.3,0.3,0.3,0.6,0.5c0.4-0.2,0.7-0.4,0.9-0.9
			c0.4-1-0.5-2.4,0-4c0.3-0.9,0.7-1.7,1-2.6c0,0-0.1-0.1-0.1-0.1c0,0,0-0.1,0-0.1c0.1,0,0.1-0.1,0.2-0.1c0.4,0.6,0.2,3.8,0,5
			c0.6,0.8,1,0.4,1.7,0c0,0,0.1,0,0.1,0c0.1,0.4,0.2,0.7,0.3,1.1c0,0.8-0.1,1-0.5,1.3c0.1,0.6,0.3,1.1,0.4,1.7c0,0,0,0.1,0,0.1
			c-1.5-0.2-2.9-0.3-4.4-0.5c-3.2,1.9-2,7.3-1,10.8c0.4,2.4,0.7,4.7,1.1,7.1c0.8,3.9,2.2,7,4.3,9.7c0.2,0.4,0.4,0.7,0.6,1.1
			c1.1,1,3.1,1.3,4.5,1.9c0.5,0.3,1.5,5.1,1.9,6.7c1.3,5.3,3,10.6,5.3,15.1c1.9,3.7,4.4,6.8,6.9,9.9c1.2,1.4,3.5,2.3,4.2,4.1
			c0.4,3.8,0.7,7.5,1.1,11.3c0.2,3.3,0.4,6.7,0.6,10c-0.4,2.8-2.3,5.4-3.5,7.6c-1.3,2.3-1.8,4.8-3.3,6.8c-1.2,1.6-2.9,2.6-4.2,4
			c-0.7,0.8-1.5,1.7-2.2,2.5c-1.8,1.3-4.8,1.1-6.9,2c-1.7,1-3.4,1.9-5.1,2.9c-1.8,0.9-3.7,1.4-5.3,2.3c-0.9,0.2-1.8,0.5-2.7,0.7
			c-2.4,1-5.2,1.9-7.6,2.8c-5.1,1.8-10.2,3.6-15.3,5.4c-1.5,0.6-4.1,0.5-4.9,1.7c0,0.1,0.1,0.3,0.1,0.4c4,0.8,9.9-2.9,13.3-4.1
			c1.7-0.6,2.9-0.8,4.1-1.8c1.1-0.2,2.3-0.5,3.4-0.7c3-1,6.8-2.1,9.9-3.4c3.6-1.6,7.2-3.2,10.8-4.8c0,0,0.1,0,0.1,0
			c-0.4,1.3-1.2,2.3-1.5,3.5c3,8.2,12,10.1,20.9,12.5c3.5,0.9,8.6,1.8,13.1,2.6c4.7,0.8,9,0.2,14,1.2c2.2,0.5,6.8,0.2,9.2,0.8
			c6.1,1.7,15.9,1.8,22.9,0.7c4-0.6,7.6,0.1,11.1-1c1.9-0.6,4.5-1.8,6.6-2.5c7.3-2.3,20.7-4.2,22.1-11.7c2.1-0.2,9.2,3.9,11.1,4.9
			c4.9,2.7,12,3.4,17.7,5.6c1.7,0.6,8.8,3,10.1,1.2C522.1,390.2,521.9,389.5,521.7,388.9z M385.1,185.7c0.1,0,0.3,0.1,0.4,0.1
			C385.2,185.9,385.3,185.9,385.1,185.7z M468.6,270.3c-1,5.2-1.1,15.3-5.4,18c-0.2,0.1-0.1,0.2-0.4,0.1c-0.4-0.2-0.3-0.4-0.4-0.8
			c-0.8-0.4-1.3,0-2.4,0.1c-0.3-1.2,1-3.8,1.7-5.1c1.4,0.1,2-0.3,3.2-0.6c1.1-1.7,3.6-7.7,3-10c-0.3-1.2-1.1-2.5-1.4-3.7
			c-1.3-0.1-1.8-0.4-3,0c0,0-0.1,0-0.1,0c-0.9-3.2,0.8-4.1,3-4.9c0.4,0,0.9,0.1,1.3,0.1C468.5,264.8,469,268.2,468.6,270.3z
			 M462.1,253.7c-1.2-0.9-0.1-6.5,0.2-8.2c0.7-4.2-1.9-11.1-3.2-14.5c1.2,0.8,2,2,3.8,1.9c0.1-0.2,0.2-0.4,0.3-0.6
			c-0.2-0.9-0.4-1-0.9-1.7c-0.8-0.1-1-0.1-1.7-0.4c-0.3-0.3-0.5-0.6-0.8-0.9c0,0,0-0.1,0-0.1c0.6,0.2,1.1,0.3,1.7,0.5
			c0.2-0.1,0.3-0.2,0.5-0.3c0.1-0.6,0-0.9-0.2-1.5c-0.8-0.5-1.1-0.1-1.9-0.4c-1.7-0.7-3.6-2.3-3.7-4.6c1.7,0.7,2.8,1.7,4.8,1.2
			c1.7,1.6,5.3,12.1,4.3,15.3c0,0.1,0,0.1,0,0.2c0,0-0.1,0-0.1,0c-0.3-0.3-0.5-0.9-0.5-1.5c-0.2-0.1-0.5-0.3-0.7-0.4
			c-0.6,0.8,0.1,2.4,0.1,3.3c-0.8,0.5-1.2,1.1-1.3,2.1c0,0.1-0.1,0.1-0.1,0.2c0.1,0.1,0.3,0.1,0.4,0.2c0.1-0.3,0.2-0.4,0.2-0.6
			c0.1,0,0.3,0,0.4,0c0.1,0,0.1,0.1,0.2,0.1c0.6,2.8,0.7,11.8,0.2,13.5c-0.4,1.4,0.1,3.5-1.1,4c-0.3-2.4-0.8-4.4-1-6.5
			c0.4,0,0.7-0.1,1.1-0.1C462.7,253.8,462.4,253.8,462.1,253.7z M460,249.9c0.1,0.1,0.3,0.3,0.4,0.4c0,0,0,0.1,0,0.1
			c-0.2,0-0.3-0.1-0.5-0.1C459.9,249.9,459.8,250.2,460,249.9z M458.9,239.1c-0.6-0.4-0.8-2.3-0.7-3.1
			C458.8,236.9,458.9,237.8,458.9,239.1z M453.7,226.8c-1.1-0.6-1.7-1.6-2.7-2.4c-3.3-2.7-5.5-5.5-8.1-9c-2.8-3.8-6.7-6.5-8.4-11.4
			c1.1,0.7,3.3,4.9,4.3,6.2c2.6,3.2,7.3,8,10.6,10.5c2,1.5,4.7,3,5.4,5.7c0,0,0,0.1,0,0.1C454.4,226.6,454.1,226.7,453.7,226.8z
			 M454.8,230.9c-0.4-0.3-0.8-0.7-0.9-1.3C454.4,230,454.6,230.3,454.8,230.9z M450.8,211.6c1.7,0.8,8,9.5,9.3,11.5c0,0,0,0.1,0,0.1
			c-0.9,0.2-4.6-1.5-5-2.1C453.6,218.8,450.9,214.8,450.8,211.6z M467.2,245.6c0,0.1,0,0.1,0,0.2c-0.1,0-0.3,0-0.4,0
			c-0.7-1.9-0.8-3.8-0.2-5.8c-0.9-3.4-0.2-7-1.6-10.3c0-0.1,0-0.3,0-0.4c0.7,0.2,1.3,0.7,1.6-0.3c0.2-1.5-1.9-2.3-2.6-3.3
			c-0.6-1.4-1.2-2.7-1.8-4.1c-3.1-8.6-7.9-15.6-12.9-22.3c-2.4-3.2-6.2-5.4-8.6-8.6c0-0.1,0.1-0.1,0.1-0.2c6,0.7,8.5,6.3,11.3,10.2
			c4.9,6.9,9.6,14,12.9,22.3c0.5,1.2,1.5,2.5,2,3.8c1.1,2.7,1.4,6.6,1.1,9.1C467.7,239.4,468.6,242.5,467.2,245.6z M465.6,247.9
			c-0.1-0.1-0.3-0.2-0.4-0.3c0.2,0,0.3,0,0.5,0C465.6,247.7,465.6,247.8,465.6,247.9z M466,251.7c-0.1,0.1-0.1,0.1-0.2,0.2
			c-0.6-0.6-0.4-3-0.1-3.9C466.6,248.8,466,250.9,466,251.7z M466.3,253.7c1.3,0.8-0.4,7.5-0.3,8c-0.6,0.3-1.2,0.5-1.8,0.8
			c0,0-0.1,0-0.1,0C464.9,260.1,465.5,256,466.3,253.7z M445.4,197.5c0.9,0.8,1.8,1.7,2.7,2.5c1.1,1.3,2.1,2.7,3.2,4
			c3.5,4.8,6.3,10.5,8.9,16.2c-0.1,0-0.1,0.1-0.2,0.1c-5.1-6.6-10.8-12.7-15.6-19.6c-1.7-2.4-5.1-5.9-5-9.3
			C440.3,191.7,444.7,196.6,445.4,197.5z M464,262.5C464,262.5,464,262.6,464,262.5c-0.1,0.2-0.1,0.2-0.2,0.3c0,0-0.1-0.1-0.1-0.1
			c0-0.1,0.1-0.1,0.1-0.2C463.8,262.5,463.9,262.5,464,262.5z M461.9,280.6c0.7-3.3,1.1-7.3,1.3-11c0.4-0.1,0.9-0.1,1.3-0.2
			c4.2,2,0.3,8.5-0.5,11.2c-0.6,0.3-0.7,0.1-1.2-0.2c-0.2,0.2-0.1,0.1-0.2,0.5c-0.2,0-0.3-0.1-0.5-0.1
			C462,280.7,461.9,280.7,461.9,280.6z M467.9,256.7c-0.3-0.4-0.3-6.9-0.2-7.9c0.6,0.2,0.8,0.6,1.4,0.5c0.1,0.1,0.2,0.2,0.3,0.3
			C468.7,251.8,469.2,255.4,467.9,256.7z M468.6,244.2c0-0.4,0-0.2,0.1-0.5c0.1,0,0.1,0,0.2,0c0.1,0.1,0.1,0.2,0.2,0.3
			c0,0.1-0.1,0.2-0.1,0.3C468.8,244.3,468.7,244.2,468.6,244.2z M469.7,236.3c0-0.2,0.1-0.3,0.1-0.5c0.1,0.2,0.2,0.4,0.3,0.6
			C469.9,236.4,469.8,236.3,469.7,236.3z M469.9,235.4c-0.1,0-0.1-0.1-0.2-0.1c-0.2-1.8,0-4.8-0.9-6.9c-0.4-0.8-1.4-2.9-1.6-3.8
			c-0.1-0.5,0.5-0.2,0.2-0.8c-0.6-1.3-1.8-2.6-2.5-3.9c-2.8-5.1-5.4-9.9-8.2-14.9c-2.3-3.2-4.6-6.4-6.9-9.6c2.1,1,3.6,3.1,5,4.9
			c2.4,3.1,4.8,6.3,6.9,10c1.3,2.9,2.7,5.7,4,8.6c1,1.8,2.4,9,4.4,8.4c0.7,2.2-0.6,6,0.1,7.7C470.1,235.1,470,235.3,469.9,235.4z
			 M471.4,237c-0.6,2.2,0.3,4.9-0.7,7.4c-0.1,0.1-0.1,0.2-0.2,0.3c-0.7-0.9,0.3-6.5,0.5-8.2C471.1,236.7,471.2,236.8,471.4,237z
			 M469.1,213.1c0,0.1-0.1,0.2-0.1,0.3c-0.1-0.1-0.1-0.2-0.2-0.3C468.9,213.1,469,213.1,469.1,213.1z M443.3,183.8
			c7.3,1.4,11.2,6.5,15.2,11.5c0.8,0.7,1.7,1.5,2.5,2.2c1.4,1.8,2.3,4,3.2,6.3c-0.1,0-0.1,0.1-0.2,0.1c-6.2-7.9-8.8-13.4-19.3-17.3
			c-1.5-0.6-2.9-1.7-4.9-2c0-0.1-0.1-0.1-0.1-0.2C440.5,184.2,442.8,184.3,443.3,183.8z M436.4,185.2c1,0.4,2.1,0.1,3.1,0.4
			c1.5,0.7,3.1,1.5,4.6,2.2c2.7,0.9,5,1.9,7.2,3.4c6.6,4.5,14.8,17,17.6,25.5c1.1,3.5,0.9,6.4,1.4,9.8c0,0-0.1,0-0.1,0
			c-0.9-0.8-1.8-3.2-2.2-4.5c0-0.3,0.1-0.5,0.1-0.8c-2-3.8-3.6-8.2-5.8-12.4c-2.7-5-6.3-10.4-10.6-13.8c-1.6-1.2-3.4-2.1-5-3.4
			c-1.3-1-1.7-2.9-3.1-3.8c0,0-0.1,0-0.1,0c0.2,0.5,0.3,1,0.5,1.5c0,0.2,0,0.5,0,0.7c-0.8-0.3-1.6-0.5-2.4-0.8
			c-0.9,0.1-1.8,0.3-2.7,0.4c-0.4-0.6-0.7-1.4-1-2.3c-0.1-0.1-0.3-0.2-0.4-0.3c-0.1,0.2,0.4,6.5,0.5,6.9c0.3,0.9,1,1.4,1.5,2.1
			c2.4,3.5,4.6,7,7,10.4c1,1.4,3,2.5,3.6,4.2c0.3,0.8,0.1,2.2,0.3,3.2c-0.7-0.5-1.2-0.9-1.2-2c-0.1,0-0.1-0.1-0.2-0.1
			c-0.1,0.2-0.2,0.4-0.3,0.6c0.8,2.9,3,4.6,4,7.5c0,0,0,0.1,0,0.1c-2-0.8-3.1-3.6-4.5-5.1c-1.7-1.8-2.7-3.9-4.2-6
			c-3-4.1-8-9.9-8.8-16c0.4,0.1,0.3,0.1,0.5,0.4c0.1,0,0.2,0,0.3,0c-0.4-1.2-0.7-2.4-1.1-3.6c0,0-0.1,0-0.1,0
			c-0.5,0.3-1,0.8-1.1,1.2C432.8,189.6,435.6,186,436.4,185.2z M433.4,191.1c0.6,0.7,0.5,3.4,0.9,4.7c0.7,2,2,4.2,3.1,6.1
			c2.2,3.7,4.4,7.5,6.9,11c1.7,1.9,3.3,3.7,5,5.6c-2-0.7-3.7-3.5-5.1-4.9C440,209.5,430.2,199.4,433.4,191.1z M432.6,187
			c0.1,0,0.2,0,0.3,0c0.1,1.3-0.5,1.9-0.7,3.1c-0.1,0.1-0.1,0.2-0.2,0.3C430,189.6,432.2,188,432.6,187z M432.2,205.9
			c1.3,0.3,4.2,5.1,4.5,6.6c-2-0.5-4.2-2.4-5.8-3.5C431.3,208,431.8,207,432.2,205.9z M430.6,203.5c0.5,0.8,0,1.7,0,3
			c-0.1,0.1-0.2,0.1-0.3,0.2C430.4,205.7,430.5,204.6,430.6,203.5z M427.7,193.1c1.3,0.9,1.1,3.7,1.6,5.1c0,0.2,0,0.5,0,0.7
			C427.4,198.2,427,195.1,427.7,193.1z M429,207.2c-0.1,0.1-0.1,0.2-0.2,0.3c0,0-0.1,0-0.1,0c-2.6-1.4-0.9-1.8-1.3-3.9
			c-0.2-1-1-1.4-1.4-2.1c-0.5-1.1,0.4-3,0.8-3.9c0.1,0,0.3,0.1,0.4,0.1C429.6,201.8,429.8,202,429,207.2z M391.6,232
			c-0.5,0.6-0.9,1.3-1.4,1.9c-1.4,1.4-2.9,4.3-4.6,5.2c-0.3-0.5,0.6-2.8,0.4-3.9c-1.5-0.5-3.3-0.6-4.3,0.6c-0.1,0-0.3,0-0.4,0
			c-0.7-2.2,5.5-7.7,6.5-9.5c1.7-3,5.2-5.3,7.8-8c3.6-3.8,7.5-7.4,11.9-10.4c1.8-1.2,8.1-4.3,8.7-6c-2.3,0.3-5.3,3.3-7.2,4.4
			c-7.4,4.1-13.1,10.1-18.8,16c-1.3,1.3-6.2,5.8-6.7,7.3c-0.1,0-0.2,0-0.3,0c1.1-3.6,6.9-8.5,9.4-11.2c5.1-5.7,10.8-10.2,16.8-14.8
			c2.3-1.8,4.8-4.1,7.4-5.3c1.8-0.8,4.9-0.7,6.7-1.1c0-0.1,0-0.3,0-0.4c-0.4,0-0.9,0-1.3,0c-0.1-0.3-0.3-0.6-0.4-0.9
			c-2-0.3-9.2,1.9-11,2.8c-0.1-0.1-0.2-0.2-0.3-0.3c1.1-0.3,1.9-1.3,2.9-1.7c2.7-1.2,6.5-2.3,9.1-4c1.3,0,2.9,0.6,3.5,1.3
			c0.7,1.2-1.7,6.7-2,8c-0.6-0.4-0.4-0.7-0.3-1.5c-0.1,0-0.3,0-0.4,0c-0.4,1-0.2,1.8,0,2.8c-0.2,0.1-0.4,0.2-0.6,0.3
			c0.1,0.2,0.2,0.3,0.3,0.5c-2.2,2.9-5.6,5.2-8.4,7.8c-2.3,2.1-4.9,4.5-6.8,7c-0.5,0.6-1.6,1-2.1,1.6c-1.2,1.7-3,3.6-4.7,4.8
			c-0.1,0-0.3,0.1-0.4,0.1c1.5-5.3,7.6-9.9,11-13.6c0.5-0.5,1.3-0.7,1.8-1.3c-0.2-0.2-0.5-0.5-0.7-0.7c0.8-1.1,8.1-5.5,9.6-5.7
			c0-0.1,0-0.2,0-0.3c-2.7,0.3-5.3,1.8-7.6,3.2c-0.1,0-0.2,0-0.3,0c1.4-2.2,4.6-4.5,6.9-6.1c1.1-0.7,2.9-1.3,3.2-2.8
			c-2-0.5-8.3,5.5-9.7,6.8c-5.7,5-11.8,10.2-16.6,16.1c-2.2,2.7-5.6,5.4-6.7,8.9C391.3,230.7,391.6,231.5,391.6,232z M366.5,234.5
			c-0.5,1-1.4,2-1.6,3.2c-0.3-0.4-0.1-0.8,0-1.5c-1.3-1-3.9,1.5-4.2,2.7c-0.2,0.1-0.5,0.1-0.7,0.2c0.1-2.8,2-5.5,3.1-7.8
			c0.9-2.1,1.7-4.1,2.6-6.2c0.6-0.9,2.5-0.6,3.1-1.5c5.3-7.6,12.5-13.7,19.7-19.5c-0.5-0.3,2.2-1.9,2.7-2.3c3-2.3,6.1-4.8,9.9-6.2
			c0,0.1,0.1,0.1,0.1,0.2c-1.7,1.6-4.1,2.4-5.7,4.1c-1.5,1.6-2.8,3.5-4.5,4.8c-2.8,2.1-6.1,3.5-8.6,5.9c-3.3,3.1-6.2,6.4-8.9,10.1
			c-0.6,1-1.2,1.9-1.8,2.9c-1.5,1.6-4.4,6-5,7.9C366.4,232.6,367,233.4,366.5,234.5z M369.2,220c0-0.1,0.1-0.1,0.1-0.2
			c0.1,0,0.1,0,0.2,0c0,0.1-0.1,0.2-0.1,0.3c0,0-0.1,0-0.1,0C369.3,220.1,369.3,220.1,369.2,220z M369.5,219.2
			c0.1,0,0.2-0.1,0.3-0.1c0.1,0,0.1,0,0.2,0c-0.2,0.4,0,0.2-0.4,0.4C369.6,219.4,369.6,219.3,369.5,219.2z M374.6,211.9
			c2.3-4.4,6.7-8.3,10.6-11.1c1.9-1.3,4.9-1.6,7.3-2.7c0.3,0.5-3.6,2.8-4.4,3.3c-4.4,3.6-8.9,7.1-13.3,10.7
			C374.8,212.1,374.7,212,374.6,211.9z M402.3,196.1c0.9-0.4,2.8-1.2,3.2-0.5c0.5-0.5,1-0.9,1.5-1.4c1.9-1.2,5.7-1.3,7.8-1.8
			c1-0.1,1.9-0.2,2.9-0.3c0.9,0.2,2.4,0.3,2.8,0c0,0.1,0.1,0.1,0.1,0.2c0,0.1,0,0.3,0,0.4c-4.5,1.8-8.8,4.4-12.7,6.6
			c-0.1-0.1-0.3-0.3-0.4-0.4c0-0.1,0-0.1,0-0.2c0.9-1.1,3.2-1.9,3.6-3.4c-1.8,0.2-3,1.8-4.5,2.6c-0.4,0.3-1.7,0-2.4,0.1
			c0,0-0.1,0-0.1,0c0-0.3-0.1-0.5-0.1-0.8c0,0-0.1,0-0.1,0c-0.6,0.4-0.8,1.1-1.4,1.5c-2.3,1.6-5.7,2-7.7,4c-0.1-0.2-0.2-0.3-0.3-0.5
			C397.2,200.2,399.1,197.8,402.3,196.1z M402,195.2c0.1-0.1,0.1-0.2,0.2-0.3c0.2,0,0.4,0,0.6,0C402.6,195.1,402.3,195.2,402,195.2z
			 M405.8,201.7c0.1,0,0.2,0,0.3,0c0.1,0.1,0.1,0.1,0.2,0.2c0,0.1-0.1,0.1-0.1,0.2c-1.9,0.3-6.1,3.6-7.8,4.9
			c-0.1-0.1-0.1-0.1-0.2-0.2c1.1-1,2.1-2,3.2-3C402.9,203.1,404.3,202.4,405.8,201.7z M405.4,200.7c0.1-0.5,0.2-0.5,0.6-0.8
			c0.1,0,0.2,0,0.3,0c0.1,0.1,0.1,0.2,0.2,0.3C406.2,200.5,405.9,200.6,405.4,200.7z M404,199.8c-2.9,3.7-7.9,5.5-11.4,8.7
			c-1.6,1.5-3.5,3.2-4.9,4.8c-1,1.1-2,2.2-3,3.3c-0.1-0.1-0.2-0.2-0.3-0.3c1.1-2,2.1-3.8,3.3-5.7c0.9-1,1.7-1.9,2.6-2.9
			c0.7-1,1-1.9,2-2.6c3.5-2.3,7.8-3.2,11-5.4C403.5,199.7,403.8,199.7,404,199.8C404,199.8,404,199.8,404,199.8z M397.4,208
			c-0.3,0.2-0.2,0.2-0.5-0.1C397.1,208,397.2,208,397.4,208z M397.7,208.9c0.3-0.4,0.6-0.9,0.9-1.3c0.8-0.4,1.5-0.8,2.3-1.2
			c3.4-2.3,6.8-4.5,10.5-6.3c0.1,0,0.2,0,0.3,0c0,0.1,0,0.1,0,0.2c-1.6,0.8-3.1,2.4-4.5,3.6c-2.3,2-4.9,3.6-7.2,5.5
			c-2.4,2-4.3,4.5-6.5,6.7c-1.5,1.5-4.1,3.2-5,5.2c-0.2,0-0.5-0.1-0.7-0.1c0-0.1-0.1-0.2-0.1-0.3c1-1,1.6-2.6,2.3-3.6
			C391.9,214.4,394.9,211,397.7,208.9z M384.7,209.9c1.1-0.7,2.3-1.5,3.4-2.2c0.1,0,0.3,0.1,0.4,0.1c0.1,0,0.1,0,0.2,0
			c-0.2,1.8-2.6,3.4-3.4,4.8c-1.8,3.2-3.3,6.2-5.1,9.5c-1,1.9-2.6,2.7-3.7,4.4c-0.1,0-0.1,0-0.2,0c0,0-0.1,0-0.1,0
			c-0.2-0.8-0.3-1.6-0.5-2.4c-1.2-0.7-1.6-0.2-2.9,0.1c0-0.1-0.1-0.1-0.1-0.2C373.9,220.7,381.9,211.9,384.7,209.9z M376.6,230.4
			c0.3-0.1,0.5-0.1,0.8-0.2c0.1-0.6,0.2-1.1,0.3-1.7c0.8-2.3,2.3-4.5,3.7-6.2c3.9-4.7,9.3-8,13.5-12.4c0.3,0.5-4.3,5.1-4.9,6
			c-2.3,3.4-3.8,7-6.1,10.4c-0.9,1.3-1.7,2.5-2.6,3.8c0,0.6,0,1.1,0,1.7c-0.7,2.4-2,5.9-3.8,7c-0.1,0-0.1-0.1-0.2-0.1
			c-0.1-0.7-0.2-1.4-0.5-1.9c-0.3-0.6-0.8-0.5-1.6-0.5c-0.7,0.6-1.5,1.2-2.2,1.8c-0.1-0.1-0.2-0.2-0.3-0.3c0-0.2,0-0.4,0-0.6
			c0.3-0.8,1.4-1.1,1.9-1.8C375.3,233.7,376,232.1,376.6,230.4z M412,199.9c0-0.1,0.1-0.3,0.1-0.4c0.1,0,0.1,0,0.2,0
			c0.1,0.3,0.1,0.2,0.1,0.4C412.3,199.9,412.1,199.9,412,199.9z M426.5,193.2c-0.1,0-0.2,0-0.3,0c-0.5-0.3-0.7-0.4-0.8-1.1
			c0.1,0,0.2-0.1,0.3-0.1c0.3,0.1,0.4,0.2,0.6,0.4c0.2,0.3,0.1,0.2,0.1,0.5C426.4,193,426.5,193.1,426.5,193.2z M407.4,223
			c-0.9,0.6-4.6,3.4-5.8,3c-0.1,0-0.1,0-0.2,0c0.6-1.4,3.6-3.5,4.9-4.4c0.5-0.7,1-1.3,1.5-2c4.2-3.5,8.4-7,12.2-10.9
			c0,0,0.1,0.1,0.1,0.1c0.1,0,0.1,0.1,0.2,0.1C418,214.2,411.9,219.8,407.4,223z M417.1,215.9c-0.1,0.1-0.1,0.1-0.2,0.2
			C416.9,216.1,417,216,417.1,215.9C417,215.9,417.1,215.9,417.1,215.9z M419.2,213c1.5-2.8,3.5-5.2,5-8.1c0.5,0.3,0.8,0.7,1.1,1.3
			c-1.5,2.9-5.6,7.8-8.2,9.6C417.6,214.6,418.6,214.1,419.2,213z M424.9,203.6c0.2-0.5,0.3-1,0.5-1.5c0.1,0,0.2,0,0.3,0
			c0.2,0.8,0.4,1.6,0.3,2.5C425.4,204.4,425.3,204,424.9,203.6z M395.3,226.3C395.3,226.3,395.2,226.3,395.3,226.3
			c0.5-2,6.7-8.3,8.6-9.9c0.8-0.6,1.5-1.3,2.3-1.9c0,0,0.1,0,0.1,0C406,217.6,397.6,223.3,395.3,226.3z M395.1,226.7
			c-0.1,0.1-0.1,0.3-0.2,0.4c-0.1,0-0.3,0-0.4,0c0.1-0.2,0.3-0.4,0.4-0.6c0,0,0.1,0,0.1,0C395,226.6,395.1,226.7,395.1,226.7z
			 M393,229.2c0.4-0.7,1-0.4,1.8-0.4c1-2.5,3.8-4.1,5.4-6c0.4,0.2,0.3,0.1,0.4,0.5c-1.4,0.8-1.4,3.5-2.7,4.4
			c-0.7,0.5-1.7,0.5-2.5,0.9c-0.8,0.7-1.6,1.4-2.4,2.1c-0.1,0-0.3,0.1-0.4,0.1C392.6,230.4,392.7,229.6,393,229.2z M410.6,223.4
			c5.3-4.1,11.3-10.5,15.4-15.9c0-0.1,0-0.2,0-0.3c0.9,0.2,1.4,1,2.1,1.5c0,1.8-4.9,7.7-6.3,8.7c-1.9,1.3-3.9,1.9-5.9,3
			c-5,2.8-9,7.4-13.4,11c-1.1,0.9-2.3,1.4-3.4,2.3c-2.2,1.8-4.2,4.5-5.8,6.9c-0.4,0.6-1.2,1-1.5,1.7c-0.1,0-0.3,0.1-0.4,0.1
			c-0.5-0.6,0.4-2,0.8-2.8c0.6-1.3,1.9-2.4,2.5-3.5c1-1.8,1.6-3.4,2.6-5.1C400,226.6,406.6,226.5,410.6,223.4z M426.8,191.3
			c-0.4,0.2-0.2,0-0.4,0.4c-2,0.4-3.6-0.6-5.6-1c-2.2-0.4-4.8-0.2-7.1-0.2c-0.1,0-0.1-0.1-0.2-0.1c0-0.3,0.1-0.6,0.1-0.9
			c-0.4,0.1-0.9,0.1-1.3,0.2c0,0-0.1,0-0.1,0c0.5-1.1,2.9-3.7,4.6-3.4c1.2,0.6,2.4,1.2,3.6,1.8c0.9,0.6,1.4,2.3,2.7,2.4
			c0.1-0.1,0.1-0.3,0.2-0.4c0-0.4,0.1-0.7,0.1-1.1c-1.6-1.7-4.6-2.2-6-3.6c0.6-0.4,1.2-0.7,1.8-1.1
			C421.9,184.5,426.3,188.8,426.8,191.3z M413.1,181.6c1.4,0.1,2.9,0.5,3.8,1.2c0.4,0.3,0.2,0.7,0.7,1c0,0.1,0.1,0.3,0.1,0.4
			c-0.5,0.3-1,0.7-1.5,1c-0.7-0.1-1.5-0.2-2.2-0.3c-0.2,0.1-0.3,0-0.6-0.1c1-0.6,2-1.3,3.4-1.1c0-0.1,0.1-0.3,0.1-0.4
			c-2.8,0-3.8-0.3-5.8-0.8c0-0.1-0.1-0.1-0.1-0.2C411.7,182,412.3,182,413.1,181.6z M410.3,185.7c1,0,2-0.1,2.9,0.2
			c0.5-0.1,1,0.1,1.5,0.3c-0.4,0.9-1.7,1.3-2.3,2c-2.1,2.4-4.1,2.9-7.3,4.1c-4.5,1.7-9.4,3.8-13.9,5.4c-2.8,1-6,1.4-8.6,3
			c-1.4,0.9-3.1,1.4-4.6,2.3c-1.5,0.9-4.8,3.7-6.4,3.8c1.4-2.2,7.4-5.6,9.6-7.1c7-4.9,13.5-8.3,21.4-12.3
			C405.2,186.1,407.9,186.7,410.3,185.7z M389.5,192.5c0.7,0,0.8-0.1,1.2-0.4c0.1,0.1,0.2,0.2,0.3,0.3c-0.5,0.3-1,0.5-1.5,0.8
			c0-0.1,0-0.1,0-0.2C389.1,192.8,389.5,193,389.5,192.5z M370,206.3c0.6-0.7,1.1-1.4,1.7-2.1c0.8-0.6,1.8-0.9,2.6-1.6
			c2.8-2.4,6.4-4.9,9.6-6.9c2-1.2,3.2-1.3,4.9-2.7c0.1,0,0.3,0.1,0.4,0.1c-0.4,1-4.4,2.9-5.6,3.9c-4.6,3.7-9.8,6.6-14.4,10.2
			c-0.3,0.2-0.2,0.1-0.5,0.1c-0.1,0-0.3,0.1-0.4,0.1C368.8,206.5,369.3,206.9,370,206.3z M371.1,207.2c-0.2,0.4,0,0.2-0.4,0.3
			C370.8,207.4,370.9,207.3,371.1,207.2C371.1,207.2,371.1,207.2,371.1,207.2z M352.5,229.9c-0.1-0.6,0.7-2.1,0.9-2.9
			c0.7-2.7,0.8-5,2.2-7.3c1.4-2.2,3.7-3.4,5.1-5.4c0.8-1.1,3.2-3.9,4.5-3.9c-0.1-0.2-0.1-0.4-0.2-0.6c0.2,0,0.3,0.1,0.5,0.1
			c0.1,0,0.1,0,0.2,0c-0.7,1.4-2.7,1.7-1.5,3.5c-3.9,4.1-6.5,10.8-9,15.4c-1,1.8-2.8,7.9-4,8.9c0,0.1,0,0.2,0,0.3
			C350.1,235.4,352.9,232.5,352.5,229.9z M351.2,254.2c0,0.1,0,0.1,0,0.2c-1.9-1.5-0.3-5.2-0.3-7.4c-0.1-3.1,1.6-7,2.6-10.1
			c0.3-1.2,0.7-2.5,1-3.7c1.1-2,2.3-3.9,3.4-5.9c0.1,0,0.2,0,0.3,0c0.2,0.2,0.4,0.3,0.6,0.5c0.4-0.1,0.2,0,0.4-0.2
			c0.1-0.1,0.2-0.1,0.3-0.2c-1-1.6,0.8-3.1,1.5-4c1.5-2,3.2-4.7,5.2-6.3c0.9-0.8,2.1-0.8,2.7-1.9c-0.1-0.4,0-0.2-0.2-0.4
			c-0.1-0.1-0.1-0.1-0.2-0.2c-1.9,0-5.2,3.6-5.8,5.1c-0.1,0-0.2,0.1-0.3,0.1c0-0.1,0-0.1,0-0.2c-0.1,0-0.1-0.1-0.2-0.1
			c0.9-0.6,1.4-1.9,2.1-3c1.7-2.2,3.3-4.4,5-6.6c2.9-2.8,6.8-4.5,10.4-6.5c0.1,0,0.1,0,0.2,0c0,0.1,0.1,0.2,0.1,0.3
			c-2,2.4-4.1,4.7-6.1,7.1c-1.8,2.4-3.3,4.9-5,7.4c-1.8,2.7-4.7,4.7-6.5,7.5c-1,1.6-1.7,3.2-2.7,4.8c-1,1.5-4.7,9.3-3.9,11
			C353,242.6,352.9,253.4,351.2,254.2z M356.8,244.1c-0.5,1.3-0.7,4.8-2.1,4.7c-0.3,0.1-0.3,0.1-0.5-0.1c-0.6-0.9,1.4-5.2,1.8-6.3
			c1.4-3.6,2.7-7.1,4.2-10.6c0.3-0.9,0.7-1.7,1-2.6c0.9-1.2,1.7-2.3,2.6-3.5c0.1,0.1,0.3,0.1,0.4,0.2c-1.3,3.4-2.9,6.6-4.4,9.6
			C358.8,238.4,357.8,241.2,356.8,244.1z M359.9,239.7c-0.1,0.1-0.1,0.3-0.2,0.4C359.8,240,359.8,239.8,359.9,239.7
			C359.9,239.7,359.9,239.7,359.9,239.7z M357.6,249.7c-0.2,0.3-0.1,0.3-0.5,0.2c-0.4-2.1,0.5-4.9,1.5-6.6c0.1,0,0.1,0,0.2,0
			C359,244.8,358.4,248.1,357.6,249.7z M363.7,290.1c-1-0.2-1.3-1.4-2.1-1.9c-0.6-0.2-1.3-0.4-1.9-0.6c-3.9-3.2-3.9-10.4-4.9-14.9
			c-0.7-3.1-2.1-8.7,0.2-10.4c2.9,0,2.8,2.1,4.7,2c1.2,2.4,1.8,5.3,1.7,8.2c-0.1,0-0.1,0.1-0.2,0.1c-0.5-2.1-1.7-6.1-5.1-4.8
			c-0.7,2.9,0.6,6.2,1.4,8.9c0.9,3,0.8,7.2,4.8,7.1c0.9,1.5,0.7,4,1.4,5.6C363.7,289.6,363.7,289.9,363.7,290.1z M362.3,282.3
			c-2.6-0.1-5.8-10.5-4.9-13.2c0.2,0,0.5,0.1,0.7,0.1c2,1,1,5.8,3.4,6.2c0.4,0.8,1,5.5,0.7,6.7C362.3,282.2,362.3,282.2,362.3,282.3
			z M377.6,320.5c-1.2-1.2-2.6-2.5-3.5-4c-4.4-7.4-6.9-16.2-8.9-25.1c-0.1-0.9-0.1-1.9-0.2-2.8c-1.3-5.7-2.7-10.9-2.4-16.6
			c0.2-3.8-1.1-7.1-2.3-10c-1.1-2.8,0-5.8-0.6-9.1c-0.8-4.5-0.1-12.7,3.8-15.3c0,0,0.1,0,0.1,0c0.2,0.3,0.3,0.7,0.5,1
			c0.5,2.7-2.1,5.2-2.1,8c0.2,0.1,0.5,0.2,0.7,0.3c0,0,0.1-0.1,0.1-0.1c0.5-0.3,2-5.3,1.9-6c1.2-2,1.4-4.2,2.5-6.5
			c0.9-1.8,2.2-3.8,3.2-5.3c0.7-1,2.6-4.5,4.1-4c0.7,0.5,0.6,3,0.1,3.9c-1.9,3.4-5.1,6-6,9.9c0.6,0.9,1.9,0.8,2.5,1.7
			c-0.1,0.2-0.3,0.5-0.4,0.7c0,0.1,0,0.3,0,0.4c0.1,0,0.2,0,0.3,0c1.5-1,2.4-2.6,3.9-3.6c0.2,0,0.3,0.1,0.5,0.1
			c0.1,0,0.1,0.1,0.2,0.1c0,0.6-0.1,1.2-0.1,1.8c-0.5,1.3-1.7,2.7-1.8,4.3c0.2,0.1,0.4,0.3,0.6,0.4c1.2-0.6,1.2-2.1,2.1-3.2
			c1.1-1,2.1-2.1,3.2-3.1c0.9-0.4,1.3-0.4,1.9-1c0.5-0.5,1.8-2.1,3.1-1.4c0.1,0.1,0.2,0.1,0.3,0.2c-0.5,2.2-1.6,5.6-3.1,7.3
			c0,0.4,0,0.4,0.2,0.6c0.2,0.3,0,0.2,0.4,0.3c0.1,0,0.2,0.1,0.3,0.1c3.2-3.8,6.1-8,9.5-11.3c1.1-1.1,2.2-3.2,4.1-3.4
			c0,0,0.1,0,0.1,0c0.1,0.1,0.2,0.3,0.3,0.4c-2.2,2.7-3.3,6.2-5.3,9.2c-0.8,1.2-2.4,2.8-2.1,4.7c0.1,0,0.1,0,0.2,0
			c0.1,0.1,0.1,0.1,0.2,0.2c3.8-0.3,7.1-7.2,9.8-9.4c1.2-1,2.8-1.7,4-2.8c0.5-0.6,1-1.3,1.5-1.9c1.7-1.3,3.9-2.1,5.4-3.7
			c1.4-1.4,3.1-3.2,4.7-4.3c2.3-1.5,4.9-2.1,7.1-3.6c1.6-1.1,6.2-6.6,7.2-8.4c1.6-0.2,5.1,2.8,6.5,3.6c3.7,2.1,6,5.2,8.6,8.5
			c1.1,1.2,2.2,2.5,3.3,3.7c1.3,2.1,1.8,5,2.5,7.6c0.6,2.2,2.8,9.3,1.7,11.2c0.4,0.4,0.5,0.4,1.1,0.2c0,0,0.1,0,0.1,0
			c-0.1,0.6-0.2,1.1-0.3,1.7c0.2,0,0.5-0.1,0.7-0.1c0.3-1.9-0.6-4.3-0.9-5.9c-0.7-3.8-1.2-7.8-2.5-11.3c0-0.2,0-0.3,0-0.5
			c0.9,0.6,1.3,1.7,1.9,2.6c1.5,2.2,3.7,4.6,4.7,7.3c0.6,1.8,0.7,3.9,1.2,5.4c0.7,2.3-0.4,5.7,0.3,7.4c0.7,0.2,0.8,0.1,1.3-0.2
			c1,1.3,0.5,3.6,0.8,5.3c0.3,0.2,0.7,0.5,1,0.7c0.4,2.3-0.4,4.9,0.1,6.8c0.3,0.5,0.5,1,0.8,1.5c-0.6,1.8,0.1,4.4-0.5,6.9
			c-1,4.6-0.9,11.5-3.3,14.8c0.3,0.3-0.4,3.6-0.6,4.2c-0.6,1.5-0.2,2.3-0.6,3.8c-0.5,1.7-1.2,3.6-1.7,4.8c-0.9,2.3-1,5.8-2.3,8.1
			c-1,1.9-1.8,4.4-2.8,6c-4.8,7.5-9.8,14-17.4,18.7c-5.2,3.2-20.7,8.1-28.6,5.8c-3.6-1-6-2.9-8.9-4.6c-0.6-0.1-1.2-0.3-1.8-0.4
			c-2.7-1.8-5.7-3.5-8.4-5.5C382.5,326.1,380.1,323.1,377.6,320.5z M372.3,234.6c-0.4,1-0.7,2.1-1.1,3.1c-0.2,0.1-0.5,0.1-0.7,0.2
			c-0.1-0.1-0.2-0.3-0.3-0.4c0.4-0.7,1.6-2,1.8-2.9C372.1,234.6,372.2,234.6,372.3,234.6z M474.8,381.8c-7.1,2.3-14.6,5.6-23.3,7
			c-2.5,0.2-4.9,0.4-7.4,0.6c-9.9,1.3-23.7,3.2-34.1,0.6c-6.9,1.9-19.2-0.6-26-2.6c-8-2.3-16.1-3.6-19.3-10.6c0.2-2.8,4.4-4.6,6.3-6
			c1-0.7,1.6-1.8,2.4-2.7c2-2.1,4.4-3.7,5.9-6.2c1.7-2.8,2.1-7.1,4.6-9.1c1.3,1.6,0.2,9.2,0.2,11.8c0.1,0.1,0.2,0.1,0.3,0.2
			c1.5-1.1,0.9-7.3,1.1-9.5c0.1-1.3-0.5-3.8-0.4-5.2c0-1.2,0.5-2.6,0.4-3.7c-0.3-1.1-0.6-2.2-0.9-3.3c-0.5-2.4,0-4.3-0.3-6.9
			c-0.3-2.3-1.3-5.4-0.6-7.4c1.5,1,2.9,1.9,4.4,2.9c1.9,0.9,3.7,1.8,5.6,2.7c2.6,1.8,5.3,4,8.5,5.2c5.7,2.1,11.2,1.1,16.7-0.2
			c4.7-1.1,9.2-1.7,13.1-3.7c4-2.1,7-4.9,10-7.9c1.4-1.4,3.3-2.7,4.2-4.5c0.3,0.1,0.1,0,0.3,0.2c1.1,1.1,0.4,10,0.7,11.7
			c1.8,9.2,2.1,20.2,5.4,28.6c0.8,2-0.1,5,1.3,6.4c0.2-0.1,0.4-0.1,0.6-0.2c0.1-0.1,0.1-0.1,0.2-0.2c0.9-1.4-1.3-7.7-1.8-9.4
			c0,0,0-0.1,0-0.1c0.1,0,0.2,0,0.3,0c2.2,1.2,3.8,4.1,5.5,5.9c2.4,2.5,5.4,4.5,8.5,6.3c2.2,1.3,11.4,3.9,12.4,5.2
			C480.4,380,476.3,381.3,474.8,381.8z M376.6,185.5c-0.1-0.4,0-0.3-0.2-0.5c-0.2,0.2-0.2,0.2-0.6,0.3c-0.1,0.1-0.1,0.2-0.2,0.3
			c0,0,0,0.1,0,0.1c0.2,0,0.5-0.1,0.7-0.1C376.4,185.6,376.5,185.6,376.6,185.5z M375.1,185.9c-0.1,0-0.2,0-0.3,0
			c-0.1,0-0.1,0.1-0.2,0.1c0,0.1,0,0.2,0,0.3c0.2,0,0.3-0.1,0.5-0.1C375.1,186.1,375.1,186,375.1,185.9z M373.7,186.9
			c0.1,0,0.1,0,0.2,0c0-0.1,0-0.2,0-0.3c-0.1,0-0.3,0-0.4,0c0,0.2-0.1,0.3-0.1,0.5C373.7,187,373.5,187.1,373.7,186.9z M372.6,187.6
			c-0.2,0-0.4,0-0.6,0c0,0.2,0,0.4,0,0.6c0,0,0.1,0,0.1,0C372.5,188,372.5,188.1,372.6,187.6z M374.9,189.9
			c-0.1-0.1-0.3-0.1-0.4-0.2c-2,1.6-5,2.6-6.9,4.6c0,0.1,0.1,0.2,0.1,0.3C368.8,194.5,374.6,190.5,374.9,189.9z M437.4,195
			c-0.2-0.2-0.4-0.4-0.6-0.6c0.2,0.2,0.3,0.4,0.5,0.6C437.3,195,437.4,195,437.4,195z M404.9,196.3c-0.1,0-0.3,0-0.4,0
			c0,0.1,0,0.3,0,0.4C404.9,196.6,404.8,196.8,404.9,196.3z M432.9,243.8c-0.1,0.1-0.2,0.1-0.3,0.2C432.8,244.2,433,244,432.9,243.8
			z M423.2,249.5c0.7-0.4,1.3-0.9,2-1.3c1.7-1,5.2-2.1,8-1.6c3.7,0.6,5.6,1.4,8.6,1.9c0.8,0.1,2-0.2,2.8,0c1.2,0.2,2.2,0.8,4,0.8
			c0,0,0.1,0,0.1,0c0.1-0.2,0.3-0.3,0.4-0.5c0-0.2,0-0.3,0-0.5c-2.5-1-5.1-0.9-7.8-1.5c-1.4-0.3-3.1-1-4.5-1.4
			c-2.3-0.7-4.8-0.2-7.3-0.2c0.1-0.1,0.1-0.3,0.2-0.4c-0.3-0.5-0.4-0.5-1.2-0.5c-1.2,0.3-2.4,0.7-3.6,1c-1.4,0.8-2.9,1.5-4.3,2.3
			c-0.1,0.1-0.1,0.3-0.2,0.4c0,0.2,0.1,0.3,0.1,0.5C420.9,248.7,422.9,249.6,423.2,249.5z M380.9,248.8c2-0.5,4.1-1.3,6.2-1.7
			c4.7-1,9.1,0.9,12.4,2.7c1-0.1,1.6-0.5,2.5-0.8c0.2-0.4,0.3-0.6,0.1-1c-1-1.3-6.5-3.5-9-3.4c0,0.3,0,0.5,0,0.8c0,0,0,0.1,0,0.1
			c-2.7,0-4.9-0.4-7,0.1c-1.5,0.4-3.3,1.2-4.8,1.5c-2.6,0.6-5.8,0.3-7.8,1.6c0.1,0.5,0.3,0.6,0.6,0.9c1.4,0.2,2.7-0.4,3.8-0.7
			C378.9,248.9,379.9,248.8,380.9,248.8z M434.1,254.6c-2.6,1.1-7.3,0.1-10.1,0.8c-0.4,0.6,0.1,1-0.1,1.6c-0.3,0.4-0.5,0.8-0.8,1.2
			c0.4,0.2,0.5,0.5,1.1,0.6c0.1,1.3,0.2,2.5,0.3,3.8c1.4,5,5.4,7.8,11.1,6.6c1.5-0.3,3.3,0.5,4.7-0.2c0.2-0.2,0.5-0.5,0.7-0.7
			c0-0.1-0.1-0.2-0.1-0.3c-0.8-0.4-1.5-0.1-2.6-0.1c1.7-2.1,4.2-5.2,3.1-8.7c1.9-0.2,3.2,0.9,5,0.5c0.1-0.2,0.3-0.4,0.4-0.6
			c0-0.1,0-0.2,0-0.3c-0.6-0.4-2.2-0.5-2.7-1C442,255.7,438.3,254.6,434.1,254.6z M431.4,267.8c-1.5-0.4-3-1.2-3.9-2.2
			c-1.2-1.4-2.4-5.5-1.1-7.6c0.6-1,2.7-0.9,3.9-1.4c4,0,6.8,0.9,9.6,1.9C442.2,262.5,436.8,269.4,431.4,267.8z M394.6,268.2
			c0.7-0.4,1.5-0.7,1.9-1.3c0.9-1.3,2.1-4,2-5.7c0-0.6,0-1.3,0-1.9c0.4-0.3,0.7-0.5,1.1-0.8c-0.1-0.1-0.1-0.3-0.2-0.4
			c-0.4-0.9-0.4-0.8-0.4-2.1c-1.7-1.1-8.6-1.1-11.3-1.1c-1.5,0.2-3.1,0.4-4.6,0.6c-2.3,0.9-4.2,2.5-6.8,3.2
			c-0.4,0.5-0.4,0.5-0.2,1.1c1.6,0.9,3.3-0.5,5.2-0.3c-0.8,2.5,0.7,7.3,2.8,8.3c0.1,0.1,0.2,0.3,0.3,0.4c-0.8,0-1.6-0.1-2.4-0.1
			c-0.1,0.1-0.2,0.3-0.3,0.4c0,0,0,0.1,0,0.1c0.2,0.2,0.3,0.5,0.5,0.7c1.1,0.3,2.7,0,3.7,0.1C390.1,269.9,391.4,270.1,394.6,268.2z
			 M382.6,259c1.3-0.8,3.2-1.4,4.6-1.7c1.3-0.3,2.4,0,3.5-0.4c1.9,0,4.9,0.3,5.6,1.4c1.9,3-0.7,7.9-3,9.1
			C386.6,270.8,381.8,264.8,382.6,259z M433.5,258.2c-0.7,0.2-1.3,0.4-2,0.6c-1.4,0.9-1.8,4,0,4.8
			C435.6,265.3,436.9,260,433.5,258.2z M391.2,263.9c1.9-0.7,1.4-3.9,0-4.8c-0.6-0.4-1.3-0.4-2.1-0.6c-0.6,0.5-1.3,0.6-1.7,1.3
			C385.9,262.3,388.6,265,391.2,263.9z M401.3,291.8c0,0.1,0.1,0.1,0.1,0.2c4.3,1.1,9.5,2.2,14.4,1c1.6-0.4,3.9-0.8,4.1-2.2
			c0-0.2,0-0.3,0-0.5c-0.3,0-0.6-0.1-0.9-0.1c-3.5,1.9-9.4,2.9-14.4,1.6c-0.9-0.3-1.9-0.6-2.8-0.9
			C401.6,291.2,401.5,291.5,401.3,291.8z M412,308c-2.5-0.6-4.6-1.4-7.6-1.4c-0.8,0-1.7,0.1-2.5,0.1c-2.4,0.7-5.3,2.3-7.9,3.1
			c-1.6,0.5-4.5,0.4-5.4,1.6c-0.1,0-0.1,0-0.2,0c0.1,0.6,0.2,0.6,0.6,0.8c1.6-0.3,3.1-0.7,4.7-1c2.5-0.7,5.1-2.2,7.4-3.1
			c0.6,0,1.1,0.1,1.7,0.1c3.3-0.1,5.8,0.7,9.2,1.3c2.5-0.3,4.9-0.5,7.4-0.8c3.2,0.6,9.3,3.2,10.9,5.3c1,0,1.8,0.1,2.4-0.2
			c0.2-0.2,0.4-0.3,0.6-0.5c0-0.1,0-0.3,0-0.4c-4.4-2.2-8.3-4.4-13.6-5.7C417.2,306.6,415,308.6,412,308z M423,313.6
			c0-0.1,0.1-0.3,0.1-0.4c0-0.1-0.1-0.1-0.1-0.2c-3.3-0.6-6.4,2-9.5,1.5c-2.8-0.4-6.6-0.7-9.3-1.5c-1.2-0.3-2.1-1.1-3.7-1.1
			c-0.1,0-0.1,0.1-0.2,0.1c0,0.3,0,0.7,0,1c2.1,1.1,4.6,1.3,7.3,1.8C413.3,315.8,418,315.9,423,313.6z M412.4,319.5
			c-4.4,0.7-9.6-1.9-12.6-3.1c-0.2,0-0.4,0.1-0.6,0.1c-0.1,0.2-0.2,0.5-0.3,0.7c0.8,1.2,2.3,1.3,3.8,1.9c7,2.6,13.8,1.6,20.6-0.5
			c0.1-0.3,0.2-0.6,0.3-0.9c0-0.1-0.1-0.1-0.1-0.2C422.3,316.9,414.5,319.1,412.4,319.5z"/>
	</g>
</g>
<path d="M318,283.8l13.4,9.6l-8.1,0.4c0,0,9.2,13,35.8,8.5c-8.6,7.7,0.4,18.8,0.4,18.8s-33-1.5-43.5-25.6c-7.3,0.9-7.3,0.9-7.3,0.9
	L318,283.8z"/>
<path d="M505.1,283.8l-13.4,9.6l8.1,0.4c0,0-9.2,13-35.8,8.5c8.6,7.7-0.4,18.8-0.4,18.8s33-1.5,43.5-25.6c7.3,0.9,7.3,0.9,7.3,0.9
	L505.1,283.8z"/>
</svg>
