<?xml version="1.0" encoding="utf-8"?>
<!-- Generator: Adobe Illustrator 21.0.0, SVG Export Plug-In . SVG Version: 6.00 Build 0)  -->
<svg version="1.1" id="Calque_1" xmlns="http://www.w3.org/2000/svg" xmlns:xlink="http://www.w3.org/1999/xlink" x="0px" y="0px"
	 viewBox="0 0 841.9 595.3" style="enable-background:new 0 0 841.9 595.3;" xml:space="preserve">
<style type="text/css">
	.st0{fill:#DADADA;}
	.st1{fill:#FFFFFF;}
</style>
<ellipse class="st0" cx="410" cy="384.4" rx="84.4" ry="21.6"/>
<circle class="st0" cx="408.8" cy="304.8" r="32.1"/>
<circle class="st1" cx="396.3" cy="293.9" r="7.4"/>
<g>
	<g>
		<path d="M492.2,302.2c-0.5-0.8-1.2-0.6-2-1.1c-0.7-0.9-1.3-1.7-2-2.6c-2.8-2.1-5.8-4.4-8.3-6.8c-0.8-0.8-1.4-2.2-2.3-2.8
			c-6.9-5.1-15.2-7.1-16.5-17.9h0.6c0.8,0.8,1.9,0.7,2.8,1.4c0.3,0.2,0.3,0.9,0.6,1.1c3.2,2.2,6.8,3.5,9.7,6
			c1.5,1.3,2.2,3.2,4.8,3.4v-0.3h-0.3c-2.1-4-10-8.3-13.4-10.5c-1.7-1.2-4.6-1.9-5.4-4c-1.7-2.7-0.8-6.2-1.4-9.7h-0.6v0.6
			c-1.8,1.9-0.5,5.4-0.3,8.3h-0.6c-1.7-1.5-4.6-2.6-6.5-3.7c-0.3,0.1-0.6,0.2-0.9,0.3c-1.1-0.6-2.5-2-3.7-2.6
			c-0.9-0.1-1.7-0.2-2.6-0.3c-0.5-0.3-1.1-1.2-1.7-1.4c-1.5-0.7-7.2-1.6-8-2.6l-1.7-6h-0.6v0.3c-0.7,0.4-0.2-0.1-0.6,0.6
			c-0.7,1.2,0.6,3.3,0.6,4.6h-0.6c-1.4-0.8-3.5-0.7-5.1-1.1c-5-1.4-14.2-2.2-19.6-2.3c-0.7-1.3-1.5-4.8-3.1-5.1
			c-0.9,2,0.3,3,0.9,5.1H404c-0.8-0.4-6-0.1-7.7,0.3h-4.6c-2,0.4-6.9,1.3-9.7,0.9c-0.6-1.2-1.5-2.7-3.1-2.8
			c-0.3,0.7-0.3,0.5-0.6,1.1c0.8,0.6,1.5,1.4,1.7,2.6c-2,0-3,0.1-4.6,0.9l0.3,0.3c0.3,0.2,0.3,0.2,0.9,0.3c1.1-0.8,2.7-0.9,4.6-0.9
			c0.9,1.8,4.6,5,6.3,6.3v0.3c-1,0.3-0.8,0.6-1.1,0.9c-0.1,0-0.9-0.4-1.4-0.3c-1.8,0.5-7.2,1.7-8.5,2.6c-1.6,1-3.1,2.5-5.4,2.8
			c-1.1-1.4-3.1-1.8-4.6-2.8c-2-1.4-6.9-6.7-8.8-6.5l-0.6,0.6c0.2,0.5,0.1,0.3,0.3,0.6c1.5,2,9,7.6,12,9.1l-0.3,0.3
			c-0.5,0.4-1.3,0.2-2,0.6c-0.3,0.2-1.7,1.4-2,1.7v0.9c0,0-5,2.3-5.1,2.3c0,1.1,0.1,1.6,0.9,2c2.4-2.8,7.3-4.2,10.2-6.5
			c5.3,1.1,9.1,4.4,15.7,3.7v-0.9h-0.6c-0.8-0.4-2,0-3.1-0.3c-1.8-0.5-8.1-2.4-8.8-3.7c4-2.5,9.8-5,15.9-5.1c1.2,1.8,8.3,6,10.5,7.1
			v0.6c-1.8,0.2-4,0.8-5.4,1.1c-1.2,0.3-1.4-0.5-2-0.6c-0.9-0.1-2.6,1.2-3.4,1.4h-2.3c-1.1,0.4-2.7,2.3-4,1.7
			c-2.6,1.6-10.5,6.7-13.4,7.1c-0.9-1.9-10.6-1.3-12.8-2.8l-0.3-0.3c0.9-0.6,2.2-1.5,2.6-2.6H359c-1.6-0.7-2.8,1.4-4.8,1.7
			c-1.6-1.3-3.9-1.5-5.7-2.6c-2.7-1.7-6.2-5.4-9.4-5.4v0.9h1.1c-0.2,1.6,6.9,6,8.8,6.8c1.5,0.7,3.5,0.6,4,2.3
			c-3.8,2.1-7.4,7.9-12,8.8c-1.5-1.2-7.6-2-10.2-3.1c-1.4-0.6-3.4-1.6-4.6-2.6c-0.9-0.8-0.4-1.4-2-1.7c-0.2,0.7-0.1,0.5-0.6,0.9
			c1.8,3.3,6.8,5.2,10.5,6.5c1.7,0.6,4.3,0.3,5.1,1.7h-0.6c-1.4,1.8-6.6,4-9.1,4.8c-1.3,0.4-2.5,0.2-3.4,0.9
			c-0.5,0.5-0.9,0.9-1.1,1.7c0.5,0.3,0.9,0.6,1.4,0.9v0.3H326c-1-0.8-4.7-1.5-7.4-1.4v1.1c3.4,1.3,6.7,2.6,10,4
			c0,0.8,0.1,1.2,0.3,1.7c0.7-0.2,1.3-0.4,2-0.6c2.2,0.9,11,7.2,12.2,9.1c-1.2,0-1.3,0.2-2,0.6c0.1,0.4,0.3,0.9,0.6,1.1
			c0.4,0.3,0.7,0.3,1.4,0.3c0.6-0.4,2.1-0.3,3.1-0.3c2.4,3,11.8,8,12.8,10.8c-1.7,0-2.2,0.1-2.3,1.7c1.4,0.7,3.2-0.2,5.7-0.3
			c2.1,3,11.4,6.4,15.1,8.5c-0.6,0.7-0.7,0.4-0.9,1.7c0.7,0.4,0.6,0.7,1.7,0.9c1.5-1.3,3.9,0.5,5.4,1.1c4.2,1.9,8.3,3,13.4,4.6
			c2.9,0.9,11.3,1.1,14.5,0.3h2.6c1.2-0.3,3-1.1,4.3-1.4c1.3-0.3,3.2,0.2,4.8-0.6c0.9-0.4,2-1.5,2.8-2c2-1,3.8-1.1,6-2
			c1.9-0.8,2.8-1.8,4.6-2.6c2.6-1.1,11.5-4.1,11.7-6.8c-0.5,0.1-0.9,0.2-1.4,0.3c-0.1,0.4-0.3,0.9-0.6,1.1c-1-0.7-2.1,0.3-3.1,0.6
			v0.9c-1.5,0.1-3.6,0.6-4.6,1.4c-0.3,0.2-0.2,1-0.6,1.1h-1.7c-3.3,1.8-7.7,3.2-10.8,5.1c-3.6,2.2-16,4.1-20.5,3.1
			c-2.2-0.5-4.8,0.5-6.3,0c-1.5-0.5-3.6-1.5-5.1-2c-2.3-0.8-10.2-2.4-10.8-3.4l-0.6-0.6l0.3-0.3c2.3-0.1,8.1-2.2,10-1.7
			c1.9,0.5,4.3,2.4,6,2.8c0.9-0.1,1.9-0.2,2.8-0.3c3.6,0.8,7.6,2.1,11.7,1.1h4c1-0.3,2.2-1.1,3.1-1.4c2.8-0.9,5-0.2,7.7-1.1
			c4.8-1.6,11.3-3.4,15.7-5.7c0.3-0.4,0.6-0.8,0.9-1.1c1.8-1.2,3.9-1.4,5.7-2.6c1.9-1.2,3.3-2.9,6.3-3.1v0.6
			c-1.9,0.4-3.1,2.2-5.4,2.8v0.9c-1,0.1-1.1,0.3-2,0.6v1.7h0.6c1.3-1.5,3-1.9,4.8-2.8c1.3-0.7,2-2.1,3.1-2.8c0.6-0.4,1.4-0.1,2-0.6
			c1.4-1,3-2.6,4.6-3.4c0.6-0.1,1.1-0.2,1.7-0.3c3.8-2.7,7.4-6.7,12.2-8.3c4.9-1.5,14.8-1.5,14.8-7.7
			C492.5,303.4,492.5,302.6,492.2,302.2z M466.6,283.4c2.8,2.6,6.2,4.4,9.4,6.5c1,0.7,1.6,2.1,2.6,2.8c1.1,0.9,2.3,1.3,3.1,2.6h-1.1
			c-2.2-2.2-6.6-3-9.7-4.3C470.5,289.8,466.3,283.8,466.6,283.4z M467.7,286.8v0.6h-0.6v-0.6H467.7z M464.9,284.5
			c0.6,0.1,0.5,0.1,0.9,0.3c-0.3,0.4-0.3,0.7-0.3,1.4c0.9,0,0.8-0.2,1.1,0h0.3v0.3c-0.9,0.2-0.4-0.1-0.9,0.6
			c1.1,0.7,1.9,1.7,2.6,2.8h-1.1c-2-1.7-9.4-3.6-12.2-4.8c-2.7-1.2-4.6-3.4-6.3-5.7c-2.9-3.8-7.7-6.4-9.1-11.7h0.3
			c1.2,1.2,3.4,2.2,5.7,2.3v0.9c1.7,0.4,2.3,1.7,3.7,2.3h1.7v0.6c0.7,0.8,2.3,2,3.1,2.6c0.9,0.5,5.3,2.2,5.4,2
			C461.4,280.3,464.2,281.6,464.9,284.5z M432.5,321.2c-0.4-0.7-0.1-0.4-1.1-0.6c-0.3,0.2-0.1,0.1-0.6,0.3c-0.4,1-0.2,1.2-1.4,1.4
			c-0.5-0.6-1.2-0.8-1.7-1.4c0.8-0.6,1-1,1.1-2.3c-0.5-0.2-0.7-0.2-1.4-0.3c-0.6,0.9-1.1,0.9-2.6,0.9c-0.1-0.3-0.2-0.6-0.3-0.9
			c-0.1-0.2-0.1-1.2-0.3-1.7c-0.4-0.2-0.5-0.2-1.1-0.3c-0.4,0.3-0.7,0.3-1.4,0.3c-0.6-1-1.1-2.3-1.7-3.4c-0.8,0.2-1,0.5-1.4,0.3
			c-1.4-0.7-2.2-1.8-3.4-2.6c0.3-0.2,0.1-0.1,0.6-0.3c1.3,0.9,2.9,1.1,4.3,2c1.8,1.1,3.8,3,5.7,4c1.3,0.7,2.8,0.7,4,1.4l1.7,1.7
			c1,0.6,2.5,0.5,3.1,1.4c-1,1.1-1.4,2.7-2.6,3.7c-0.3-0.2-0.1-0.1-0.6-0.3v-0.6C432,323.4,432.8,322,432.5,321.2z M410.5,287.1h0.6
			c0.3,0.2,0.3,0.2,0.9,0.3c-0.1,1.3-0.6,2.1-0.9,3.4c-0.2-0.3-0.1-0.1-0.3-0.6c-0.5-0.4-0.3-0.2-0.6-0.9
			C410.6,288.9,410.6,288,410.5,287.1z M414.5,277.4c-0.9,0.1-1.5,0.3-2.3-0.3c1.9-0.1,2.5-0.3,4,0.3c-0.5,1.1-0.9,2.8-1.4,4
			c-1.4-0.2-1.6-0.1-2.8-0.3v-1.7c1,0.2,1.7,0.6,2.3,0.3c0.7-0.5,0.7-0.5,0.9-1.7L414.5,277.4z M420.8,281.7c0.2-0.5,0.9-1.4,1.1-2
			h0.6c0.6,1,1,1.4,2.6,1.4c0-1.9-0.7-1.7-1.1-3.4c1,0.1,1.4,0.4,2.3,0.6c0.4,0.6,0.6,0.7,0.9,1.4c-3.1,2.1-4.5,6.4-7.7,8.5
			c0-1.4-0.3-1.5-0.9-2.3c0.5-0.4,0.6-0.6,0.9-1.1c0.9,0.4,0.3,0.3,1.4,0.3C421.1,284,420.4,282.9,420.8,281.7z M430.2,289.9
			c0.4,0.9,1.5,2.3,2.3,2.8v0.3c-2.4,0.7-4.6,1.9-7.1,2.8c-0.1-1.6-0.5-1.7-0.9-2.8c-0.1-0.3-0.2-0.1,0-0.3l1.1-1.1
			c0.5,0.2,0.3,0.1,0.6,0.3c0.6,0.7,1.1,1.6,1.7,2.3h0.6c0.3-0.9,0.5-0.8,0.6-2c-0.7-0.5-1.1-1.4-1.4-2.3c0.9-0.7,1.7-1.3,2.6-2
			C430,288.7,429.7,289.2,430.2,289.9z M432.7,307.6c-0.4-0.2-0.7-0.3-1.4-0.3v-1.4c0.5-0.2,0.9-0.3,1.7-0.3
			c0.3,0.2,0.3,0.2,0.9,0.3C433.8,307.4,434.1,307.4,432.7,307.6z M434.2,312.7c-1.2,0-1.9-0.1-2.6-0.6c-0.4-0.6-0.3-1.9-0.3-2.8
			h0.6c0.4,0.3,0.9,0.3,1.7,0.3c0.2,0.6,0.3,1.3,0.3,2.3C434.1,312.1,434,312.1,434.2,312.7z M433.6,304.1c-0.7-0.2-1.3-0.4-2-0.6
			v-0.3c0.4-0.6,0.1-0.9,0.3-1.4c0.7,0.2,0.8,0.2,2,0.3C433.9,303,433.8,303.6,433.6,304.1z M433,300.4c-0.7-0.1-1.3-0.2-2-0.3
			c0.2-1.9-0.5-2.4-0.9-4.3c1-0.2,1.8-0.9,2.3-0.6c0.4,0.9,1.1,2.9,1.1,4.8C433.1,300.3,433.3,300.2,433,300.4z M427.9,307
			c-0.4-0.2-0.7-0.3-1.4-0.3v-1.1c0.9-0.1,1.7-0.2,2.6-0.3c0.2,0.5,0.2,0.7,0.3,1.4C428.9,306.9,428.6,306.9,427.9,307z M429.3,309
			c-0.1,1,0,1.2-0.3,1.7c-0.3,0.2-0.3,0.2-0.9,0.3c-0.7-0.6-1.1-0.5-1.1-1.1c0.2-0.6,0.2-0.8,0.6-1.1C428,309,428.5,309,429.3,309z
			 M425.9,303.6v-0.9c1.7-0.2,1.7-0.5,3.7-0.6v1.4H425.9z M426.8,300.7c0-1.6-0.3-2.1-0.6-3.1c0.3-0.1,0.6-0.2,0.9-0.3
			c0.3-0.2,0.5-0.2,1.1-0.3c0.5,1.2,1.2,1.9,1.4,3.4C428.7,300.5,427.7,300.6,426.8,300.7z M421.4,289.1c0.3-0.9,0.6-1.4,1.4-1.7
			c0.5,0.6,1.1,1.4,1.7,2v1.1c-2.5,0.7-3,3.2-5.7,3.7c-0.3-0.4-1.3-1.2-0.9-1.4c0.3-0.9,0.8-1.1,1.7-1.4c0.5,0.8,0.3,0.7,1.4,0.9
			c0.3-0.6,0.5-0.6,0.6-1.7C421.2,289.9,421.1,289.5,421.4,289.1z M425.1,300.7c-1.2,0.1-3.3,0.6-4,0.3h-0.3l0.3-0.3
			c0.4-1.5,1.6-2,3.4-2v0.6C424.9,299.8,424.9,299.9,425.1,300.7z M425.1,309.6h-1.1c-0.9-0.7-2.5-1.4-3.7-1.7v-0.3h1.1
			c0.8,0.5,2.6,0.7,3.7,0.9C425,309.1,425,308.7,425.1,309.6z M419.6,300.7l0.3,0.3v0.6h-2.3l-0.3,0.3V301
			C418.1,300.9,418.9,300.8,419.6,300.7z M417.9,299v-0.6c0.5-0.4,0.5-0.6,1.1-0.9C419.5,298.6,419.5,298.8,417.9,299z M420.5,303.3
			c0.7-0.5,1.9-0.6,3.1-0.6l0.3,0.3v0.9c-1.6,0.1-5.3,0.5-6-0.6H420.5z M424.2,305.3c-0.2,0.9,0.1,0.4-0.6,0.9c-0.7-0.4-1.2,0-2-0.6
			C422.5,305.5,423.3,305.4,424.2,305.3z M421.1,297.6c-0.1-1-0.3-1.1-0.6-2c0.9-0.3,1.3-0.7,1.7-1.4l0.3,0.3c0.8,0.6,1,0.9,1.1,2.3
			C422.7,297.1,422.3,297.5,421.1,297.6z M413.7,294.8v-0.6c1.3-1.6,2.1-5,4-6c0.3,0.8,0.6,0.7,0.6,1.1
			C417.2,290.9,415.5,294,413.7,294.8z M416.5,294.8c0.4,0.7,0.7,0.6,0.9,1.7c-0.7,0.4-1,1-1.7,1.4v0.3l-0.3-0.3
			c-0.7-0.5-0.7-0.4-0.9-1.4C415.5,296.1,415.7,295.3,416.5,294.8z M416.2,308.1c1.7,0.2,8.3,3,9.4,4h-0.3c-0.5,0.7-0.5,0.8-1.7,0.9
			c-1.3-1.2-5.6-3.5-7.4-4V308.1z M427.6,287.6c-0.6,0.4-0.7,0.6-1.4,0.9v-0.3c-0.5-0.5-1.9-2.4-1.7-2.6c0.3-0.8,0-0.5,0.9-0.9
			c0.5,0.9,1.4,1.8,2.3,2.3V287.6z M419.6,279.7c-0.6-1.4-1.6-0.7-2-2.3h0.6c0.5,0.3,1.4,0.3,2.3,0.3
			C420.5,278.8,420.4,279.3,419.6,279.7z M419.4,280.8v0.6c-0.6,0.4-0.8,0.7-1.1,1.4h-0.6c-0.2-1,0-0.8-0.9-1.1v-1.1
			C417.7,280.6,418.5,280.7,419.4,280.8z M417.4,284.2v0.6c-1.4,1.5-1.9,4.6-4,5.4v-1.4c1.3-1.2,1.4-3.5,2.6-4.8
			C416.3,284.2,416.6,284.2,417.4,284.2z M413.7,283.4c-0.1,0.7-0.2,1.3-0.3,2h-0.6c-0.7-0.8-1.1-0.4-2,0v-0.6
			c0.4-0.6,0.4-1.7,0.9-2.3C412.1,283.3,412.5,283.3,413.7,283.4z M411.7,319.2v1.1h-0.6c-0.3,0.2-0.5,0-1.4,0v-1.1h0.6
			C410.8,319.6,411.1,319.4,411.7,319.2z M410,322.9c0.4-0.7-0.1-0.2,0.6-0.6c1,0.8,1.2,0.2,2.3-0.3c0.2,0.9,0.4,1,0.6,2h-0.6
			c-1.1-0.6-1.9,0.1-2.8-0.6c-0.2-0.3-0.1-0.1-0.3-0.6H410z M410,324.6c0.6,0.9,1.6,1.1,3.1,1.1c0.1-0.4,0.3-0.9,0.6-1.1v0.6
			c0.5,0.5,0.7,0.9,0.9,1.7h-2.3c-0.4,0.2-1.5,0-2.6,0v-2.3H410z M413.1,316.1c1.1,1.7,2.3,3.4,3.4,5.1c-0.9,0.1-1.3,0.5-1.7,0.3
			C414.1,320.6,412.7,317,413.1,316.1z M415.7,316.4c-1.1-1.7-2.9-2.9-4-4.6l0.3-0.3h1.4c1.1,1.6,3.6,2.3,4.3,4.3
			C416.8,316,416.7,316.2,415.7,316.4z M433.9,318.1v-1.4c0.2-0.3,0.2-0.3,0.3-0.9l-0.6-0.6c-0.5,0.2-0.3,0.1-0.6,0.3
			c-0.7,0.3-1,0.8-1.4,1.4c-1.7-0.7-2.6-0.8-2.6-3.4c-1.5,0.1-1.7,0.7-2.8,1.1v-0.6c0.4-0.6,0.2-1.4,0-2h0.6c2.9,2,7.1,2.3,9.7,4.6
			c-0.2,0.9-0.4,1-0.6,2C434.9,318.5,434.7,318.3,433.9,318.1z M436.2,313.8c-0.5-0.7-0.3-2.5-0.3-3.7c0.6,0.1,0.5,0.1,0.9,0.3
			c0.7,0.9,0.4,1.8,0.3,3.4h-0.6C436.2,313.9,436.3,314.1,436.2,313.8z M435.9,308.1v-1.7c0.4-0.2,0.5-0.2,1.1-0.3
			c0.3,0.3,0.5,0.4,0.9,0.6c-0.1,0.4-0.3,0.9-0.6,1.1C436.9,308.1,436.6,308.1,435.9,308.1z M437,304.1c-0.3-0.1-0.6-0.2-0.9-0.3
			c-0.1-0.7-0.2-1.3-0.3-2h0.6c0.3-0.2,0.3-0.2,0.9-0.3c0.2,0.5,0.3,1.1,0.3,2L437,304.1z M437,299c-0.4,0.3-0.8,0.4-1.4,0.6
			c-0.1-2.3-1-3.2-1.1-5.7h0.6c0.3-0.2,0.3-0.2,0.9-0.3C436,294.1,437.7,298.3,437,299z M434.7,291.9c-0.4,0.3-0.8,0.4-1.4,0.6v-0.3
			c0.5-0.2,0.3-0.1,0.6-0.3c-0.6-0.6-3.1-3.9-3.4-4.6c0.7-0.5,0.8-1.1,1.7-1.4C432.7,287.6,435.5,290.4,434.7,291.9z M429.3,285.9
			l-0.3-0.3c-1.1-0.7-2-1.6-2.3-3.1c0.4-0.4,0.8-0.9,1.1-1.4h0.9c0.6,1.6,1.6,1.8,1.7,4C429.7,285.3,429.7,285.4,429.3,285.9z
			 M427.9,274.8c-1.4-0.2-2.8-0.4-4.3-0.6c-2-1-10.4-10.5-11.1-12.8h3.7c1.5,0.9,4.5,0.4,6.3,0.9c3.5,0.9,7.5,1.4,11.4,2.8
			c3.7,1.4,4.8,5.2,7.7,7.4c-0.3,0.9-0.6,0.5-0.3,1.1v0.3c0.6-0.3,0.4-0.2,0.9-0.6c-0.2,2.9,2.3,3.4,3.7,5.4h1.1v1.1
			c1,0.6,1.9,1.6,2.6,2.6h-0.3c-1.6-1.1-3.5-1.2-5.4-2C438.9,278.5,433.1,276.6,427.9,274.8z M447,270.6h0.9
			C447.3,270.8,447.5,270.8,447,270.6z M436.4,258.9c1.8,1.1,3.9,1.1,6,2c3.6,1.5,10.5,4,13.1,6.5c0.7-0.3,0.5-0.3,1.1-0.6
			c-0.1,1.8,1.5,1.1,2.3,2.6c1.4,2.6,1.8,5.2,2,8.5h-0.3c-0.7-2.1-3.8-2.3-5.1-2.3c-0.2-1.5-2.9-3.4-4-4c-0.5-0.2-1.1,0.4-1.1,0.3
			v-0.9c-2-2-5.4-2.3-8-3.7c-0.2-0.3-0.4-0.6-0.6-0.9c-1.1-0.6-2.8-0.3-3.7-1.1c-1-0.8-2.5-5.1-3.1-6.5H436.4z M408,253.8
			c1.2,1.2,7.2,0.5,10,1.1c5.4,1.2,9.9,1.9,15.1,3.1c0.3,2.3,1.6,3.6,2,5.7c-2.5-0.3-4.2-1.7-6.3-2.3c-5.1-1.5-13-1.8-18.2-2
			c-0.9-1.9-2.7-3.5-3.1-5.7H408z M389.5,261.5c-1.6-2.3-5.3-3.9-6.3-6.5c4.8-0.2,10-0.5,14.2-1.1c2.3-0.4,5.6,0.7,7.7,0
			c1,2,2.5,3.5,3.1,5.7h-0.6c-1.3,0.7-4.3,0-6,0.3C397.9,260.5,393.8,261.3,389.5,261.5z M392,263.4v-0.3l10.2-1.7
			c2.7-0.6,5.5,0,7.4-0.3c1.7,2.6,4.4,6.1,6.5,8.3c1.3,1.3,3.6,2.4,4.3,4.3h-0.6c-2.1-1.3-11.2-2-14.2-2.6c-0.6,0.1-1.1,0.2-1.7,0.3
			c-1.1-0.4-2.2-1.9-3.1-2.6C398.1,266.9,395.1,265,392,263.4z M406.8,294.8h-0.6v-0.6c-0.3-0.4-0.3-0.7-0.3-1.4
			c0.4-0.1,0.8-0.2,1.1-0.3c0.1,0.7,0.2,1.3,0.3,2C406.9,294.7,407.1,294.5,406.8,294.8z M407.7,313.8v2.8c-0.6-0.1-0.5-0.1-0.9-0.3
			c-0.2-0.3-0.2-0.3-0.3-0.9c0.4-0.4,0.6-1.1,0.9-1.7H407.7z M407.4,318.7l0.3,0.3c0.1,1.8,0.3,3.8,0.3,6c-0.5,0.2-1.1,0.3-2,0.3
			c-0.6-0.3-1.4-0.1-2.6,0c0.1-1.4,0.5-1.7,0.9-2.8c1.1,0,2.2,0.1,2.8-0.3c0.2-0.4,0.3-0.7,0.3-1.4c-1.1-0.6-1.6-0.5-1.7-2.3h0.3
			C406.3,318.6,406.7,318.6,407.4,318.7z M388.9,316.7h-1.1c-0.3-1.4-0.8-2.6-2.3-2.8c-0.1,2.2,0.6,2.6,0.9,4.8h-1.1
			c-0.8-1.4-1.8-3.4-3.7-3.7c-0.1,0.3-0.2,0.6-0.3,0.9h-0.3l0.3,0.3c0.3,0.9,0.7,0.8,1.1,1.4c0.3,0.9,0.6,1.9,0.9,2.8
			c0.8-0.1,0.4-0.5,0.9,0.3c-0.7,0.4-3.1,2.1-3.1,2c-0.3-0.6,0.4-0.8,0-1.7c-0.1-0.3-0.9-1-1.1-1.4h0.3c0.5,0.6,1,0.7,2,0.9
			c0.2-0.5,0.1-0.3,0.3-0.6c-0.1-0.3-0.2-0.6-0.3-0.9c-1.1-0.7-1.5-1.8-2.8-2.3c-0.5,0.7-0.4,0.7-1.4,0.9c-0.5-0.8-0.8-1.2-0.9-2.6
			c5.3-1.2,9.6-3.6,15.4-4.8c0,1.5,0.3,1.9,0.6,2.8c-0.9,0.6-1.2,1.3-2.3,1.7c-0.1-1.4-0.6-2.9-2-3.1c-0.4,0.7-0.5,0.8-0.6,2
			C388.7,314.3,388.9,315.2,388.9,316.7z M375.8,306.4c3.5-0.2,7-0.4,10.5-0.6v0.3c-0.4,0.7,0.1,1.4,0.3,2.3c-1,0.3-0.9,0.1-1.1,1.1
			c0.2,0.3,0.2,0.3,0.3,0.9c-0.4,0.1-0.8,0.2-1.1,0.3c0.1-2,0-3.1-1.7-3.4c-0.3,1.4-0.4,2.5-0.6,4.3h-0.9v-2
			c-0.5-0.2-0.7-0.2-1.4-0.3c-0.2,0.8-0.4,0.7-0.6,1.7c0.2,0.3,0.2,0.3,0.3,0.9c-0.4,0.2-0.8,0.5-1.1,0.9h-0.6
			c-0.1-0.8-0.2-1.9-0.9-2.3c-0.5-0.3-0.5-0.1-1.4,0v-0.3C376.3,309.3,375.9,307.8,375.8,306.4z M381.5,288.2
			c-0.8-0.5-0.7-0.2-0.6-0.9c0.2-0.8,0.5-1.1,0.9-1.7c0.5,0.2,0.3,0.1,0.6,0.3c1.2,0.4,9.7,5.7,10,6.5c-0.8,0.7-0.9,2.1-1.7,2.8V295
			c-0.7-0.4-0.8-0.3-1.1-1.1c0.4-0.6,0.4-2,0-2.6c-0.3-0.2-0.3-0.2-0.9-0.3l-0.9,0.9v1.4h-1.4l-0.3-0.3c0.4-1.1,0.5-1.9,0.3-3.1
			c-0.4-0.2-0.5-0.2-1.1-0.3l-0.9,2.6h-0.6c0.2-1.5,0.2-2.2-0.3-3.4c-0.5,0.2-0.3,0.1-0.6,0.3c-0.8,0.3-0.5,0.1-0.9,0.9
			c-0.3,0.4-0.3,0.7-0.3,1.4c-0.6-0.1-1.1-0.2-1.7-0.3v-0.3C381.5,290.4,381.6,290,381.5,288.2z M388.1,305.9c0.9-0.1,0.9-0.3,1.4,0
			c0.4,0.6,0.4,2.7,0.3,2.8c-0.4,0.3-0.8,0.4-1.4,0.6v-2.6C388.1,306.4,388.2,306.4,388.1,305.9z M388.3,303.9
			c0.2-1.7-0.1-1.9-0.6-3.4h0.6c0.6,0.5,1.4,0.6,2.6,0.6c-0.1,0.9-0.2,1.9-0.3,2.8H388.3z M390.3,299.3c-0.7-0.2-1.3-0.4-2-0.6v-1.1
			c0.3-0.6-0.1-1.1,0.3-1.7c1,0.9,2.1,0.4,2.3,2.3C390.7,298.5,390.5,299,390.3,299.3z M387.2,295.9c0.1,0.3,0.2,0.1,0,0.3
			c-0.3,0.6-0.8,1.4-1.4,1.7c-1.3-1-1.4-0.1-1.4-2.8h-0.3c-0.3-0.2-0.5-0.2-1.1-0.3v0.6c-0.3,0.4-0.3,0.9-0.3,1.7
			c-0.5-0.1-0.9-0.2-1.4-0.3c-0.1-1.6-0.4-1.7-2-1.7v0.9h-1.7c0.1-1.2,0.2-2.9,1.1-3.4C380.6,293.8,386.2,294,387.2,295.9z
			 M377.8,297.6c1.2,0.8,7.2,2.1,8.8,2.3c-0.1,2-0.3,2.1-0.3,4.3h-0.3c-0.3-0.2-0.5-0.2-1.1-0.3c0.2-1.8-0.1-2.8-0.9-4.3h-0.6
			c-0.3,1.8-0.5,2.4-0.6,4.6h-1.1c0.2-1.4,0.3-2.4-0.6-3.4l-0.6-0.6c-0.5,0.2-0.3,0.1-0.6,0.3l-0.6,0.6l0.9,3.4h-1.7
			c-0.1-0.7-0.2-1.3-0.3-2c-1.2-0.7-2-0.9-2-2.8c0.3-0.4,0.3-0.9,0.3-1.7C377.1,297.7,377.1,297.7,377.8,297.6z M376.7,303.9
			c-0.1,0.7,0.2,0.4-0.6,0.6v-0.6H376.7z M392.6,308.1c-0.3,0.2-0.1,0.1-0.6,0.3v-2.3c-0.2-0.3-0.1-0.1-0.3-0.6h2
			c0.3-0.2,0.3-0.2,0.9-0.3c0.1,0.6,0,0.9,0,2C393.8,307.8,393.9,308,392.6,308.1z M392.9,298.2h0.6c0.6,0.8,1.8,0.7,2.3,1.7h-0.3
			c-0.4,0.7-0.1,0.4-1.1,0.6c-0.5-0.6-1-0.6-1.4-1.4C393.1,298.5,393,298.8,392.9,298.2z M394.3,293.3c0.2,0.6,0.3,1.5,0.3,2.6
			c-0.4,0.2-0.5,0.2-1.1,0.3c-0.2-0.4-0.2-0.5-0.3-1.1C393.6,294.5,393.8,293.8,394.3,293.3z M393.5,288.8h0.3
			c0.7,1.2,2,1.4,2.6,2.8h-1.1C394.6,290.2,393.6,290.8,393.5,288.8z M393.5,301.9c1.1,0.4,2.3,0.8,3.4,1.1v0.3
			c-1.4,0.1-2.8,0.2-4.3,0.3v-0.3c0.2-0.4,0.3-0.7,0.3-1.4H393.5z M397.2,289.1h0.3c0.4,0.6,0.6,0.7,0.9,1.4H398v-0.3
			C397.7,289.9,397.4,289.5,397.2,289.1z M400,291.9c0.8,0.8,1.5,1.5,2.3,2.3c0.1,1.9,0.1,2.4-0.3,4c-0.3,0.1-0.6,0.2-0.9,0.3
			c-0.9,0.5-2.8,0.2-3.7,0c-0.5-1.8-1-2.7-0.9-4.8C397.7,292.9,398.5,292.5,400,291.9z M403.4,316.4c-0.9-0.2-0.4,0.1-0.9-0.6
			c0.6-0.8,0.5-1.5,1.4-1.1c0.7,0.4,0.2-0.1,0.6,0.6c0,0.4-0.3,1.7-0.9,2.3v-0.3C403.5,316.9,403.5,317,403.4,316.4z M401.7,312.4
			v-1.1c0.5-0.4,0.9-0.8,1.4-1.1C402.9,311.1,402.6,312,401.7,312.4z M398.3,301.6c-0.3-0.2-0.3-0.2-0.9-0.3v-0.9h2.6v0.6
			C399.4,301.4,399.5,301.5,398.3,301.6z M399.7,305.3v0.3h-0.3c-0.7,0.7-1.3,1-2.6,1.1v-1.1C397.6,305.3,398.6,305.3,399.7,305.3z
			 M397.4,308.4v0.6c-1,0.3-1.9,1.3-2.6,2h-0.6v-0.6c-0.2-0.3-0.2-0.3-0.3-0.9C395.2,309.2,396.3,308.8,397.4,308.4z M396.3,312.7
			c0.7,0.7,1.3,0.6,1.7,1.7l-1.1,1.1c-0.5-0.2-2.1-1.1-2.6-1.4C395.1,313.4,395,312.9,396.3,312.7z M397.2,323.2
			c-0.4,0.4-0.2,0.5-0.9,0.9c-1.1-1.4-1.9-0.2-2.6-1.1c0.7-0.5,0.9-1.1,1.4-1.7c0.3,0.2,0.3,0.2,0.9,0.3
			C396.6,322.3,396.9,322,397.2,323.2z M396.6,318.7c0.6-0.4,0.7-0.6,1.4-0.9c0.4,0.5,0.6,0.6,1.1,0.9c-0.4,0.9-0.6,1.4-1.7,1.7
			C397,319.7,396.8,319.7,396.6,318.7z M398.9,312.1l-0.3,0.3c-0.1-1.2-0.3-1.1-0.6-2c1.2-0.7,1.6-1.8,3.1-2.3
			C401.3,309.2,399.9,311.3,398.9,312.1z M399.2,315l0.9-0.9h1.1c-0.2,0.7-0.4,1.3-0.6,2h-0.9c-0.3-0.2-0.1-0.1-0.6-0.3V315z
			 M401.1,318.7h1.1c0.8,0.8,1,0.4,1.1,2c-0.6,0.5-0.6,1.1-1.4,1.4c-0.5-0.4-1.5-0.5-2-0.9l-0.3-0.3
			C400.5,320.4,400.9,319.7,401.1,318.7z M405.7,312.4c-0.4,0.3-0.8,0.4-1.4,0.6v-0.9c0.2-0.3,0.1-0.1,0.3-0.6h0.9
			c0.3,0.4,0.3,0.2,0.6,0.9H405.7z M399.7,277.7h0.6c0.7-0.5,2.5-0.3,3.7-0.3v0.6c-0.7,1.1,0.2,2.5,0,3.7c-0.6,3.2-0.2,5.4,0,9.4
			h-0.6c-0.1-2.8-1.2-4.1-1.7-6.3h1.1c0.4-0.7,0.5-0.8,0.6-2l-0.3-0.3c-1.2-0.1-1-0.1-2.3,0c-0.1-0.5-0.2-0.9-0.3-1.4
			c1.2,0.1,1.8,0.2,2.3-0.6c0.2-0.3,0.2-0.5,0.3-1.1c-0.9-0.5-1.8-0.6-3.4-0.6V277.7z M394.6,278c1.2-0.1,1.5,0,3.1,0
			c0.5,4.4,3.4,8.7,3.7,12.8h-0.3c-0.3-0.2-0.1-0.1-0.6-0.3c-0.4-1.4-1.5-1.6-2-2.6v-2c-0.4-0.9-1.1-0.5-1.4-2
			c0.6-0.5,0.6-0.8,0.6-2H396c-0.1-1.2,0-1.3,0-2.8c-0.7-0.2-1.3-0.2-1.7-0.9L394.6,278z M388.6,279.4l3.4-0.9
			c1.5,1.8,4.2,7.4,4.6,10H396l-2-2c-0.3-0.5,0.5-1.7-0.3-2.3h-1.4c-0.6,0.2-0.7,0-1.4-0.3v-0.3c0.6-0.5,0.7-0.7,0.9-1.7
			c-0.6-0.3-0.5-0.4-1.4-0.6c-0.3,0.6-0.5,0.8-1.1,1.1v-0.3c-0.9-0.3-0.8-0.3-1.1-1.1C388.3,280.7,388.5,280,388.6,279.4z
			 M385.2,281.1c2,3,5.9,4.4,8,7.4c-0.7-0.2-2,0.4-2,0.3c-0.7-0.2-0.9-0.3-1.4-0.6c0-1.1-0.1-1.8-0.3-2.6h-1.1
			c-0.3,0.6-0.5,0.8-1.1,1.1c-0.7-0.7-1-0.3-1.1-1.7c0.2-0.4,0.3-0.7,0.3-1.4l-0.6-0.6h-0.6c-0.4,0.6-0.8,0.8-1.1,1.4
			c-0.3-0.1-0.6-0.2-0.9-0.3c-0.1-0.2-0.2-0.4-0.3-0.6C384,283,384.2,281.8,385.2,281.1z M382.4,281.4c-1.6,2.5-4.3,5.6-5.4,8.3
			c-0.1,1-0.2,2.1-0.3,3.1c-2.3,4.4-3.1,12.4-2.3,17.9c0.5,3.5,0.4,9.6,4,10.8v0.3h-0.6c-2.2-2.8-7.2-4.7-10.2-6.8
			c-1.1-0.8-2.1-2.1-3.1-2.8c-2.2-1.5-4.6-2.4-6.8-4c-1.8-1.3-3.5-3.3-5.4-4.6c-2.5-1.6-7.9-4.6-8.8-7.4c3.1-0.1,5.4-1.3,7.7-2
			c3.9-1.2,7.1-2.2,10.2-3.7h1.1C367.9,287,374.3,282,382.4,281.4z M334.8,295.3c1.7-0.7,3.4-1.3,5.1-2.3c0.8-0.5,1.7-1.9,2.6-2.3
			c2.2-1.1,5.1,0,6.5-0.9l0.6-0.6c-1.6-0.5-2.2-0.2-4-0.3v-0.3c2.3-1.8,4.5-4.3,6.8-6c1.1-0.8,2.1-0.9,2.8-2h1.1
			c2.8,2.2,8.8,0.7,12.5,2c-0.1,0.2-0.2,0.4-0.3,0.6c-2.8,1.3-5.2,3.2-7.7,4.6c-1.6,0.9-3.8,1.1-5.1,2.3v0.9
			c-0.5,0.3-0.8-0.5-1.1-0.6c-1.4,0.5-2.9,1.1-4.8,1.7c-4.4,1.4-9.7,3-15.1,3.4V295.3z M330.8,300.7c-1.3-0.1-3.5-0.7-4-1.7h3.1
			c1.7-1.2,6-1.4,8.5-1.4c1.6,2.3,5.8,3.5,6.8,6.3h-1.1c-1.5-0.9-10.1-1.4-12.8-1.4C331.2,301.9,331,301.3,330.8,300.7z
			 M341.4,308.7c-1.9-1.6-6-2.5-7.1-4.8h1.1c1.8,1.2,10.2,1.7,12.5,1.7c1.2,1.8,8.1,6.6,10.2,7.7v0.6h-2c-2.9-0.1-5.9-0.2-8.8-0.3
			C344.8,312.7,343.2,310.3,341.4,308.7z M362.2,324.9c-4.1-1.3-8.8-7.1-12.2-9.4v-0.3h6.3c0.5,0.2,0.7,0.1,1.7,0
			c1,0.6,2.6,0,3.4,0.3c1.7,0.6,5.2,4.1,6.8,5.1c1.6,1,3.7,1.4,4.8,2.8l0.3,0.3c-1.7,0.1-4.1,0.3-5.7,0.3
			C366.2,324.1,364,325.5,362.2,324.9z M388.6,333.5c-0.8,0.5-2.1,0.3-2.6,1.1l0.3,0.3h-0.6c-0.2-0.9,0.1-0.4-0.6-0.9
			c-4.3,3.3-12.7-3.3-15.7-4.8c-1.7-0.9-4-1.1-4.6-3.1h0.3c1,0.5,7.8-0.5,10.2-0.6c2.4,2.2,5.7,4.3,8.8,5.7c1.5,0.7,4.1,0.9,4.8,2.3
			H388.6z M387.2,324.4c1.3,0.2,1.8,1,2,2.3c-0.8,0.2-0.7,0.4-1.7,0.6c-0.2-0.2-1.6-1.9-1.7-2c-1.4-0.9-2.1,0.5-2.8-1.1
			c3.8-2,6.7-7.6,10.8-9.1v1.1c0.9,0.6,1.3,0.8,1.4,2.3h-0.6c-0.7,0-1.3-0.8-2.6-1.1c-0.3,0.6-0.4,0.5-0.6,1.4
			c0.9,0.6,1.4,1.4,1.7,2.6h-0.6v0.3l-0.3-0.3c-1.2-0.5-0.8-1-2.6-1.1c-0.2,0.5-0.1,0.3-0.3,0.6c0.4,1.5,1.4,1.7,1.7,3.1
			c-0.5,0.3-0.5,0.4-1.1,0.6c-0.6-0.9-1.3-1.5-2.6-1.7c-0.2,0.7-0.1,0.5-0.6,0.9C387,323.8,387.1,324.1,387.2,324.4z M395.2,326.6
			v0.3c-0.8-0.2-1.5-0.3-2.6-0.3c-0.1,0.9-0.3,0.9,0,1.4c0.5,0.9,1.1,0.5,1.4,1.7c-0.5,0.4-0.2,0.4-1.1,0.6c-0.7-0.7-2.2-1-3.1-1.4
			l0.3-0.3c0.4-1.3,1.8-3.5,3.4-3.7v-0.3l0.3,0.3c0.7,0.5,1.4,0.7,1.7,1.7H395.2z M398.3,331.8H398c-0.3,0.2-0.3,0.2-0.9,0.3
			c-0.4-0.3-0.8-0.4-1.4-0.6v-0.9c0.2-0.1,0.4-0.2,0.6-0.3c0.5,0.4,1.3,0.7,2,0.9V331.8z M399.7,328.9l-0.6,0.6
			c-1.1-0.5-2-0.5-2.3-2c0.6-0.3,0.5-0.4,1.4-0.6c0.5,0.7,0.4,0.7,1.4,0.9V328.9z M398.6,324.6c0.3-0.5,0.5-1.3,0.9-1.7
			c0.7,0.5,1.3,0.9,2,1.4l-0.3,0.3c-0.2,0.4-0.4,0.8-0.6,1.1c-0.5-0.2-0.3-0.1-0.6-0.3C399.3,325.3,399,325.1,398.6,324.6z
			 M407.1,332.6c-0.6-0.4-2.7-0.4-2.8-0.3c-0.2,0.3-0.2,0.3-0.3,0.9c-1.2-0.2-2.5-0.4-3.7-0.6v-0.9c0.6-0.7,1-1.8,1.4-2.6
			c1,0.7,3.8,1.6,5.4,1.7c0.3-0.6,0.5-0.6,0.6-1.7c-0.3-0.1-0.6-0.2-0.9-0.3c-1-0.8-3.4-1.1-4.8-0.6c0.2-0.6,0.5-1.5,0.9-2
			c0.6,1,3.5,1.1,5.1,1.1C408.1,329.4,408.3,331.9,407.1,332.6z M408.5,289.3c-0.4,0.4-0.6,1.1-0.9,1.7h-0.6
			c-0.4-0.9-0.3-0.7-1.4-0.9v-2.8h0.3c1.1,0.8,2,0,2.6-0.6V289.3z M407.4,285.1c-0.6,0.1-1.1,0.2-1.7,0.3v-0.9h2.3v-0.6
			c0.2-0.3,0.2-0.5,0.3-1.1c-1.6-0.7-2.6-0.3-2.6-2.8c0.6,0.1,1.1,0.2,1.7,0.3c0.2-0.9,0.6-1.1,0.3-1.7c-0.4-0.7-0.4-0.5-1.4-0.6
			c-0.3,0.2-0.1,0.1-0.6,0.3v-1.1c1.5,0,2.3,0,4.3,0c0.3,0.9,0.3,2.4,0.3,3.7c-1.1,1.5-0.7,4.1-1.7,5.7
			C408.2,285.6,407.9,285.7,407.4,285.1z M409.1,291.9c1.2-0.1,1-0.3,1.7-0.9v0.9c-0.6,0.5-0.6,1.7-0.9,2.6
			c-0.5-0.2-0.3-0.1-0.6-0.3C409.1,293.7,409.1,292.8,409.1,291.9z M409.7,312.4c0.6,1.6,1.1,3,1.1,4.8h-0.6v0.3l-0.3-0.3
			c-0.7-0.9-0.7-3.5-0.9-4.8H409.7z M416.8,333.2c-1.4,0.9-4.6,0.6-6.8,0.6c0-1.8-0.1-3.7-0.3-5.1c1.8,0.2,2.5,0.3,4.6,0.3
			c0.3-0.6,0.2-0.8,0.9-1.1v0.3c0.5,0.5,1,1.9,0.9,2.3c-1.5,1.3-3,0.6-5.4,0.6v0.6c0.4,0.3,0.2,0.3,0.9,0.6c1.2,0.9,4.4,0.3,6,0.9
			C417.1,333.1,417.3,333,416.8,333.2z M415.4,323.2c1.2,0.2,1.1-0.2,2-0.9c0.7,1.1,1.8,1.8,2.3,3.1c-0.6-0.1-1.2-0.3-1.7,0.6
			c-0.2,0.3-0.2,0.5-0.3,1.1c0.5,0.3,0.5,0.4,1.1,0.6c0.4-0.7,1-1.4,1.7-1.7v0.3c0.9,0.3,2,2.1,1.7,2.6c-0.8,0.9-1.4,1.2-3.1,1.1
			c-0.3,0.2-0.1,0.1-0.6,0.3C417.7,327.9,415.8,325.8,415.4,323.2z M423.9,332.6c-1.1,0.8-3.1,0.4-4.6,0.6c-0.2-0.5-0.3-0.9-0.3-1.7
			h0.3c1.4,1,3.1-0.3,4.3-0.9c0.3,0.4,0.3,0.2,0.6,0.9c0.2,0.3,0.2,0.5,0.3,1.1H423.9z M426.2,330.9v-0.3c-0.4-0.4-0.4-0.5-0.6-1.1
			c0,0,2.5-2.5,2-3.7c-0.4-0.7-0.1-0.4-1.1-0.6c-0.3,0.6-0.5,1.4-1.1,1.7c-1.1,0.6-2.2-0.6-2.6-1.7c0.9-0.6,1.3-1.2,1.4-2.6
			c-0.5-0.3-0.5-0.4-1.1-0.6c-0.5,0.8-0.7,1-2,1.1c-0.8-0.8-1.3-1-1.7-2.3c1.2-0.2,1-0.5,1.7-1.1c-0.2-0.7-0.3-0.9-0.6-1.4
			c-0.5,0.2-0.3,0.1-0.6,0.3c-0.9,0.3-1,0.6-1.4,1.4c-0.6-0.6-0.9-0.9-1.1-2c0.7-0.5,0.6-1.3,1.1-2c2.4,3,11.3,7.5,11.7,11.4
			C428.8,328.6,428.1,330.3,426.2,330.9z M488.8,305.3c-1.6,1-3.9,0.4-6,1.1c-3.8,1.4-8,3-11.7,4.8c-4.1,2-8,5.5-12,7.7
			c-0.8,0.4-1.6,0.2-2.3,0.6c-5,2.9-10.3,5.1-15.9,7.4c-3.3,1.4-7.1,3.8-11.1,4v-0.3c5.7-4.1,10.8-16.5,9.4-25.9
			c-0.5-3.5,0.3-6.5-0.9-9.4c-1.8-4.2-3.4-8.2-5.7-12c-0.9-1.5-2.5-2.3-3.4-4.3h0.6c0.8,0.5,1.6,0.2,2.8,0.6c2,0.6,4.3,1.6,6.3,2.3
			c1.3,0.3,2.7,0.6,4,0.9c4.1,2.6,9.2,3.5,14.2,5.4c3.9,1.4,8,3.6,12,4.8c1,0.1,2.1,0.2,3.1,0.3c5.2,2.2,16.3,5.7,17.4,11.7
			C489.4,305.1,489.1,305.2,488.8,305.3z M490.5,305.9h-0.3v-0.6h0.3V305.9z M482.5,314.1c-2.1,1.4-4.7,1.6-6.8,2.8
			c-3.6,2-6.4,5.9-9.7,8.3c-0.9,0.6-4.7,2.8-5.1,3.4v1.1c0,0-1.4-0.2-1.7,0c-1.3,0.9-9.7,6.6-10,7.4c-4,0.3-7.1,4.9-10.8,4.3
			c-1.1-0.2-2.6,1.5-2.8,1.1c-0.8,0-4,1-4.3,1.4c-0.2,0.3-0.2,0.3-0.3,0.9h0.6c1.7-1.1,4.1-0.8,6-1.7c3.3-1.6,7.9-2.7,12-4.8
			c3.1-1.6,5.9-4.4,8.8-6.3c3.7-2.4,7.2-4.4,10.5-7.1c4.5-3.7,8.5-8.7,15.7-9.7c-0.1-0.6-0.1-0.5-0.3-0.9
			C483.9,314.1,483.3,314.1,482.5,314.1z M425.3,346c1.4-0.9,3.2-0.7,4.8-0.9v-0.9c-2.2,0.2-3.6,0.7-5.4,0.9
			C425,346.1,424.6,345.6,425.3,346z M422.5,346.6c0.8-0.5,1.5-0.2,2-1.1c-1.3,0-3.2,0.2-3.7,1.1H422.5z M417.4,347.1h0.9v-0.6
			c-0.3,0.1-0.6,0.2-0.9,0.3V347.1z"/>
	</g>
</g>
</svg>
