<?xml version="1.0" encoding="utf-8"?>
<!-- Generator: Adobe Illustrator 15.0.0, SVG Export Plug-In . SVG Version: 6.00 Build 0)  -->
<!DOCTYPE svg PUBLIC "-//W3C//DTD SVG 1.1//EN" "http://www.w3.org/Graphics/SVG/1.1/DTD/svg11.dtd">
<svg version="1.1" id="Calque_1" xmlns="http://www.w3.org/2000/svg" xmlns:xlink="http://www.w3.org/1999/xlink" x="0px" y="0px"
	 width="841.89px" height="595.28px" viewBox="0 0 841.89 595.28" enable-background="new 0 0 841.89 595.28" xml:space="preserve">
<path fill-rule="evenodd" clip-rule="evenodd" fill="#DADADA" d="M329.736,352.018c11.769,1.662,24.915,2.591,38.783,2.591
	c50.359,0,91.184-12.254,91.184-27.37c0-10.618-20.146-19.824-49.592-24.363c0,0-28.075,29.117-37.014,34.158"/>
<g>
	<g>
		<path fill-rule="evenodd" clip-rule="evenodd" d="M442.365,229.209c0.086-0.354,0.168-0.708,0.252-1.062
			c-0.068-0.124-0.137-0.249-0.207-0.372c-0.025-0.318,0.133-0.693,0.045-1.029c-0.09-0.146-0.18-0.291-0.268-0.437
			c-0.066-0.529,0.207-1.283,0.047-1.835c-0.174-0.194-0.344-0.388-0.514-0.582c-0.031-0.1,0.066-0.393,0.02-0.514
			c-0.076-0.211-0.305-0.341-0.322-0.5c-0.037-0.288,0.279-0.495,0.273-0.772c-0.012-0.46-0.316-1.016-0.225-1.466
			c0.068-0.328,0.348-0.756,0.461-1.093c0.057-0.163-0.186-1.529-0.236-1.755c0.104-0.063,0.201-0.128,0.303-0.192
			c-0.615-0.869-0.352-1.87-0.695-2.674c-0.08-0.049-0.16-0.097-0.244-0.146c-0.057-0.243,0.266-0.538,0.27-0.771
			c0.006-0.494-0.406-0.664-0.607-1.225c-0.104-0.289,0.098-0.688,0.104-0.966c0.002-0.661-0.285-1.288-0.414-1.95
			c-0.141-0.713-0.447-2.493-1.479-2.886c-0.559-0.596-0.271-0.573-0.09-1.046c-0.057-0.801-0.812-1.544-1.021-2.37
			c-0.145-0.564,0.195-1.342,0.201-1.932c0.004-0.589-0.506-0.877-0.76-1.531c-0.072-0.188,0.049-0.513-0.014-0.693
			c-0.156-0.172-0.307-0.345-0.459-0.516c-0.201-0.636-0.465-1.542-0.773-2.224c-0.383-0.851-1.443-1.792-1.613-2.5
			c0.039-0.092,0.08-0.183,0.117-0.274c-0.107-0.399-0.533-0.375-0.629-0.71c0.051-0.167,0.104-0.332,0.154-0.498
			c-0.17-0.193-0.34-0.388-0.514-0.581c-0.373-0.797-1.234-2.183-1.801-2.984c-0.182-0.258-0.555-0.278-0.779-0.614
			c-0.18-0.263-0.682-1.372-0.836-1.484c-0.219-0.159-0.688-0.108-0.914-0.228c-0.574-0.302-0.611-0.781-1.238-1.13
			c-0.191-0.108-0.609-0.105-0.781-0.213c-0.525-0.323-0.656-1.285-1.33-1.774c-0.539-0.431-1.078-0.862-1.617-1.293
			c-0.225-0.028-0.445-0.056-0.668-0.083c-0.229-0.257-0.457-0.517-0.686-0.775c-0.469-0.283-1.116-0.166-1.564-0.423
			c-0.356-0.203-0.364-0.506-0.571-0.646c-0.335-0.226-1.044-0.487-1.429-0.81c-0.253-0.21-0.354-0.777-0.913-1.032
			c-0.203-0.005-0.408-0.012-0.612-0.018c-1.209-0.352-2.311-0.969-3.526-1.299c-0.257,0.026-0.511,0.052-0.766,0.079
			c-0.427-0.063-0.781-0.468-1.2-0.551c-0.256,0.025-0.511,0.052-0.765,0.077c-0.506-0.138-0.808-0.513-1.316-0.679
			c-1.025-0.339-2.119-0.562-3.187-0.912c-0.293-0.017-0.586-0.034-0.879-0.052c-0.273-0.104-0.297-0.29-0.552-0.354
			c-0.393-0.102-0.825,0.072-1.242,0.076c-0.534-0.066-1.069-0.132-1.604-0.198c-0.191,0.053-0.382,0.106-0.573,0.158
			c-0.645,0.023-1.288-0.398-1.908-0.407c-0.428-0.006-0.834,0.211-1.263,0.189c-0.186-0.009-0.467-0.204-0.648-0.195
			c-0.269,0.101-0.536,0.203-0.804,0.303c-0.466,0.035-1.087-0.321-1.584-0.312c-0.263,0.064-0.523,0.128-0.784,0.191
			c-0.697,0.034-1.456-0.123-2.235-0.104c-0.841,0.021-1.844-0.319-2.692-0.216c-0.269,0.101-0.537,0.201-0.804,0.304
			c-0.961,0.06-2.087-0.137-3.057-0.091c-0.286,0.08-0.573,0.16-0.86,0.24c-0.332-0.061-0.662-0.12-0.993-0.18
			c-0.971,0.091-1.735,0.505-2.695,0.587c-0.348,0.029-0.743-0.142-1.07-0.131c-0.452,0.012-0.826,0.264-1.281,0.301
			c-0.358,0.03-0.87-0.114-1.222-0.036c-0.129,0.08-0.256,0.161-0.384,0.24c-0.292,0.052-0.717-0.14-1.012-0.067
			c-0.229,0.145-0.46,0.29-0.69,0.432c-0.118,0.027-0.471-0.057-0.61-0.018c-0.23,0.144-0.461,0.288-0.689,0.433
			c-0.261-0.07-0.522-0.14-0.783-0.211c-0.427,0.047-0.583,0.34-1.033,0.448c-0.265,0.063-0.616-0.118-0.879-0.052
			c-0.229,0.145-0.46,0.289-0.689,0.433c-0.823,0.233-1.837,0.16-2.581,0.314c-0.938,0.194-1.577,0.749-2.354,0.975
			c-0.637,0.185-1.582,0.225-2.256,0.411c-0.577,0.159-0.943,0.509-1.454,0.511c-0.494,0.36-0.218,0.452-0.482,0.804
			c-0.25,0.572-1.557,0.666-2.257,0.813c-1.065,0.224-2.13,0.531-3.156,0.876c-0.362,0.121-0.693,0.499-0.862,0.642
			c-0.587,0.494-1.173,0.478-1.684,0.655c-0.229,0.144-0.46,0.289-0.69,0.433c-0.261,0.051-0.742-0.101-0.992-0.181
			c-0.43,0.37-0.856,0.737-1.286,1.107c-0.453,0.174-1.099,0.311-1.587,0.494c-0.309,0.115-0.36,0.36-0.556,0.448
			c-1.721,0.782-3.348,1.691-5.034,2.254c-0.422,0.331-0.845,0.663-1.266,0.994c-0.486,0.214-1.768,0.874-2.299,1.442
			c-0.25,0.123-0.498,0.245-0.747,0.368c-1.117,0.668-2.234,1.335-3.352,2.002c-0.377,0.391-0.983,1.119-1.343,1.445
			c-0.248,0.222-1.051,0.316-1.437,0.8c-0.134,0.167-0.077,0.481-0.252,0.66c-0.359,0.365-0.902,0.123-1.321,0.527
			c-0.803,0.776-2.212,1.486-3.123,2.26c-0.37,0.165-0.741,0.331-1.11,0.496c-0.144,0.177-0.094,0.661-0.29,0.884
			c-0.357,0.403-0.954,0.198-1.32,0.527c-0.439,0.395-0.938,1.08-1.344,1.444c-0.229,0.206-0.845,0.347-1.149,0.721
			c-0.098,0.121-0.1,0.418-0.231,0.547c-0.346,0.148-0.688,0.298-1.034,0.448c-0.299,0.287-0.51,0.708-0.711,0.947
			c-0.556,0.314-1.11,0.63-1.665,0.944c-0.337,0.406-0.523,1.131-0.887,1.56c-0.546,0.643-1.871,1.158-2.262,1.618
			c-0.18,0.212-0.562,0.812-0.807,1.108c-0.448,0.347-0.896,0.695-1.342,1.042c-0.146,0.193-0.223,0.557-0.404,0.754
			c-0.317,0.346-0.705,0.19-0.92,0.578c0.032,0.08,0.062,0.161,0.094,0.241c-0.031,0.186-0.26,0.672-0.347,0.82
			c-0.358,0.605-1.045,0.421-1.532,0.96c-0.288,0.318-0.235,0.803-0.54,1.142c-0.308,0.343-0.869,0.471-1.093,0.786
			c-0.147,0.326-0.296,0.653-0.443,0.98c-0.009,0.131,0.127,0.232,0.074,0.354c-0.224,0.52-0.845,0.481-1.265,0.994
			c-0.401,0.49-0.555,1.201-0.981,1.72c-0.688,0.831-1.604,1.525-2.303,2.246c-0.313,0.229-0.626,0.46-0.938,0.69
			c-0.222,0.277-0.231,0.723-0.444,0.981c-0.301,0.154-0.6,0.308-0.899,0.464c-0.261,0.274-0.295,0.817-0.463,1.092
			c-0.372,0.299-0.742,0.599-1.112,0.898c-0.033,0.188-0.066,0.375-0.099,0.563c-0.075,0.121-0.588,0.338-0.785,0.593
			c-0.457,0.589-0.854,1.343-1.289,1.911c-0.71,0.928-1.63,1.54-2.208,2.489c-0.357,0.586-0.558,1.382-0.888,1.961
			c-1.07,1.876-2.45,3.601-3.539,5.43c-0.856,1.442-2.429,2.538-3.283,3.966c-0.151,0.251-0.173,0.654-0.291,0.884
			c-0.303,0.596-0.835,1.006-1.095,1.59c-0.177,0.399-0.301,0.979-0.579,1.367c-0.491,0.682-1.02,1.146-1.346,1.846
			c-0.13,0.279-0.109,0.677-0.232,0.949c-0.25,0.544-0.777,0.892-1.001,1.431c-0.324,0.78-0.805,1.704-0.985,2.523
			c-0.071,0.33,0.073,0.769-0.118,1.079c-0.264,0.421-0.719,0.524-0.846,0.931c-0.082,0.263-0.214,0.742-0.176,1.014
			c0.033,0.244,0.229,0.495,0.149,0.709c-0.243,0.219-0.486,0.438-0.729,0.658c-0.366,0.513-0.615,1.201-0.981,1.72
			c-0.326,0.305-0.652,0.609-0.977,0.915c-0.102,0.163-0.107,0.551-0.194,0.723c-0.184,0.355-0.559,0.584-0.713,0.948
			c-0.045,0.262-0.091,0.525-0.136,0.789c-0.346,0.418-0.692,0.835-1.038,1.253c0,0.133-0.001,0.267-0.002,0.402
			c-0.141,0.154-0.281,0.31-0.422,0.465c-0.177,0.362-0.172,0.873-0.349,1.223c-0.205,0.402-0.701,0.695-0.809,1.108
			c-0.119,0.46-0.066,1.015-0.255,1.465c-0.324,0.772-0.865,1.346-1.116,2.104c-0.129,0.39,0.13,0.948-0.025,1.321
			c-0.151,0.366-0.779,0.623-0.921,0.979c-0.316,0.797-0.299,1.777-0.585,2.574c-0.305,0.853-0.802,1.592-1.176,2.443
			c-0.231,0.527-0.002,1.218-0.103,1.771c-0.073,0.402-0.498,0.796-0.482,1.205c0.013,0.399,0.273,0.739,0.147,1.112
			c-0.193,0.568-0.641,1.105-0.771,1.688c-0.081,0.353,0.206,0.756,0.147,1.111c-0.041,0.248-0.243,0.462-0.327,0.707
			c-0.113,0.324-0.027,0.69-0.042,1.03c-0.028,0.556-0.397,1.127-0.429,1.673c-0.017,0.285,0.148,0.539,0.13,0.821
			c-0.045,0.682-0.579,1.375-0.562,2.059c0.011,0.431,0.272,0.819,0.262,1.24c-0.009,0.247-0.265,0.531-0.271,0.772
			c-0.008,0.258,0.154,0.458,0.149,0.71c-0.004,0.256-0.185,0.519-0.271,0.771c-0.181,0.532-0.015,1.048-0.007,1.61
			c-0.059,0.203-0.117,0.407-0.175,0.61c0.009,0.612,0.588,1.414,0.469,2.015c-0.074,0.365-0.579,0.582-0.578,0.965
			c0.003,0.555,0.496,1.113,0.528,1.676c0.019,0.322-0.192,0.74-0.119,1.075c0.298,1.375,0.499,2.46,0.767,3.837
			c0.081,0.416-0.392,0.764-0.405,1.157c-0.016,0.374,0.199,0.688,0.224,1.062c0.032,0.507-0.032,1.167,0.05,1.673
			c0.095,0.602,0.669,1.106,0.795,1.711c0.073,0.35-0.111,0.854-0.005,1.207c0.216,0.731,0.589,1.154,0.908,1.839
			c0.115,0.129,0.229,0.259,0.343,0.388c0.129,0.414,0.275,1.093,0.414,1.547c0.051,0.167,0.522,0.512,0.664,0.888
			c0.089,0.232-0.009,0.634,0.054,0.867c0.216,0.336,0.43,0.669,0.646,1.001c0.304,0.816,0.409,2.15,0.713,2.964
			c0.197,0.527,0.62,1.054,0.836,1.483c0.303,0.346,0.607,0.69,0.911,1.034c0.351,0.761,0.749,1.591,1.04,2.257
			c0.216,0.495,0.977,1.277,1.103,1.518c0.824,0.886,1.647,1.776,2.472,2.664c0.224,0.151,0.623,0.191,0.801,0.499l0.074,0.355
			c0.159,0.242,0.89,0.812,1.123,1.003c0.164,0.23,0.329,0.463,0.493,0.691c0.15,0.117,0.644,0.439,0.762,0.727
			c0.065,0.158,0.07,0.537,0.149,0.711c0.264,0.576,0.934,0.779,1.314,1.084c0.352,0.279,0.072,0.516,0.472,0.805
			c0.591,0.425,1.4,0.604,1.965,0.875c0.477,0.405,0.952,0.809,1.429,1.211c0.08,0.139,0.274,0.588,0.55,0.758
			c0.373,0.232,0.997,0.508,1.373,0.747c0.196,0.175,0.394,0.354,0.589,0.533c0.21,0.104,0.579,0.114,0.782,0.21
			c0.344,0.253,0.686,0.507,1.028,0.76c0.292,0.104,0.693,0.024,0.993,0.182c0.196,0.178,0.393,0.355,0.59,0.531
			c0.379,0.23,0.959,0.383,1.335,0.568c0.623,0.309,1.093,0.977,1.694,1.246c0.405,0.181,0.981,0.065,1.395,0.229
			c0.831,0.33,1.426,0.797,2.269,1.086c0.428,0.148,1.022,0.154,1.45,0.295c0.934,0.304,1.752,1.139,2.688,1.424
			c0.232,0.072,0.618-0.034,0.878,0.051c0.33,0.194,0.66,0.389,0.991,0.582c0.513,0.168,1.21,0.18,1.718,0.329
			c0.605,0.177,1.062,0.503,1.66,0.665c0.681,0.187,1.4-0.029,2.12-0.025c0.39,0.002,0.723,0.229,1.107,0.309
			c0.646,0.136,1.427,0.042,2.08,0.199c0.516,0.125,1.037,0.357,1.565,0.425c0.35,0.044,0.749-0.077,1.088,0.019
			c0.34,0.098,0.531,0.346,0.878,0.455c0.4,0.047,0.802,0.098,1.202,0.147c0.218,0.06,0.264,0.214,0.496,0.292h0.955
			c0.562,0.161,0.962,0.545,1.545,0.539c0.395-0.006,0.729-0.188,1.129-0.207c0.435-0.022,0.969,0.145,1.412,0.117
			c0.697-0.046,1.223-0.307,1.912-0.396c0.777-0.101,1.749,0.099,2.521,0.023c0.446-0.042,0.922-0.326,1.358-0.35
			c0.25-0.012,0.604,0.164,0.86,0.164c0.396-0.002,0.778-0.164,1.184-0.143c0.157,0.007,0.144,0.162,0.306,0.213
			c0.297,0.088,0.989,0.01,1.298-0.014c0.27-0.101,0.535-0.202,0.803-0.303c1.107-0.256,2.436-0.186,3.576-0.538
			c0.376-0.202,0.753-0.404,1.13-0.608c0.082,0.049,0.164,0.099,0.247,0.147c0.198,0.026,0.717-0.02,0.898-0.062
			c0.678-0.16,1.119-0.564,1.742-0.592c0.516-0.023,1.172,0.137,1.699,0.039c0.555-0.104,1.263-0.32,1.722-0.479
			c0.237-0.182,0.473-0.364,0.71-0.545c0.396-0.109,0.979,0.11,1.432,0.004c0.835-0.194,1.658-0.695,2.277-0.926
			c0.197-0.073,0.562-0.018,0.766-0.077c0.3-0.157,0.6-0.312,0.899-0.468c0.734-0.237,1.537-0.531,2.334-0.858
			c0.313-0.231,0.626-0.461,0.939-0.69c0.277-0.076,0.687,0.027,0.955,0.004c0.696-0.062,1.608-0.307,2.258-0.413
			c0.62-0.104,1.062-0.553,1.702-0.767c1.137-0.387,2.605-0.881,3.732-1.438c0.172-0.21,0.346-0.419,0.518-0.625
			c0.523-0.197,1.81-0.432,2.354-0.976c0.317-0.316,0.585-0.93,1.361-1.154c0.337-0.1,0.84-0.031,1.186-0.141
			c0.719-0.23,0.629-0.797,1.341-1.045c1.664-0.576,3.984-1.793,5.151-2.928c0.648-0.633,1.888-0.551,2.624-1.348
			c1.257-1.354,3.998-2.846,5.388-4.279c0.645-0.439,1.289-0.875,1.935-1.314c0.094-0.1,0.274-0.449,0.365-0.529
			c0.197-0.092,0.396-0.181,0.593-0.273c0.058-0.078-0.029-0.328,0.003-0.402c0.129-0.304,0.489-0.346,0.728-0.658
			c0.111-0.145,0.079-0.476,0.175-0.609c0.23-0.144,0.46-0.291,0.69-0.434c0.147-0.163,0.269-0.533,0.462-0.689
			c0.259-0.216,0.861-0.399,1.226-0.77c0.321-0.328,0.582-0.749,0.864-1.043c0.606-0.348,1.212-0.693,1.82-1.041
			c0.259-0.333,0.08-0.862,0.35-1.223c0.558-0.751,1.648-0.584,2.144-1.348c0.094-0.141,0.069-0.456,0.176-0.607
			c0.453-0.388,0.907-0.771,1.36-1.156c0.083-0.115,0.184-0.46,0.309-0.597c0.352-0.184,0.702-0.371,1.053-0.559
			c0.185-0.231,0.399-0.734,0.579-0.964c0.127-0.08,0.255-0.16,0.382-0.24c0.129-0.166,0.184-0.555,0.328-0.709
			c0.352-0.186,0.702-0.372,1.054-0.56c0.197-0.261,0.377-0.736,0.653-1.011c0.376-0.205,0.753-0.406,1.13-0.608
			c0.15-0.187,0.184-0.538,0.404-0.757c0.223-0.106,0.447-0.213,0.671-0.32c0.311-0.321,0.355-0.822,0.539-1.141
			c0.307-0.191,0.614-0.383,0.919-0.575c0.649-0.687,1.096-1.626,2.208-2.089c0.058-0.109,0.062-0.383,0.154-0.498
			c0.396-0.314,0.792-0.63,1.188-0.943c0.234-0.361,0.137-0.916,0.426-1.273c0.341-0.42,0.903-0.5,1.111-0.896
			c0.167-0.318-0.093-0.749,0.254-1.063c0.189-0.173,0.77-0.278,1.054-0.56c0.868-0.861,2.41-1.795,2.055-2.793
			c0.341-0.176,0.352-0.176,0.632-0.094c0.222-0.164,1.24-1.246,1.344-1.445c0.043-0.084-0.032-0.331,0.001-0.403
			c0.21-0.45,0.829-0.792,1.172-1.237c0.239-0.311,0.249-0.834,0.406-1.157c0.158-0.134,0.318-0.267,0.479-0.401
			c0.408-0.526,0.627-1.284,1.135-1.816c-0.107-0.167-0.215-0.333-0.323-0.501c0.008-0.036,0.012-0.074,0.021-0.11
			c0.309-0.129,0.298-0.121,0.554-0.048c0.742-0.519,0.544-0.957,0.677-1.526c0.176-0.771,0.885-1.328,1.25-2.09
			c0.115-0.243,0.168-0.658,0.289-0.884c0.266-0.496,1.273-1.199,1.441-1.605c0.037-0.094,0.012-0.55,0.041-0.627
			c0.143-0.419,0.631-0.699,0.807-1.109c0.039-0.225,0.078-0.45,0.117-0.675c0.158-0.134,0.318-0.268,0.48-0.402
			c0.045-0.263,0.092-0.524,0.137-0.788c0.215-0.405,0.545-0.318,0.805-0.705c0.252-0.374,0.451-1.001,0.656-1.415
			c0.422-0.865,0.996-1.649,1.387-2.476c0.121-0.258,0.477-0.47,0.537-0.74c0.104-0.447-0.092-0.989,0.045-1.431
			c0.107-0.101,0.219-0.204,0.326-0.305c0.156-0.288,0.184-0.711,0.309-0.998c0.189-0.436,0.559-0.744,0.75-1.173
			c0.18-0.395,0.115-0.896,0.428-1.27c-0.318-0.284-0.387-0.197-0.688-0.373c0.375-0.646,0.121-1.309,0.334-1.914
			c0.047-0.136,0.799-1.069,0.885-1.157c0.119-0.043,0.24-0.083,0.363-0.127c0.268-0.346,0.264-1.107,0.465-1.496
			c0.096-0.186,0.395-0.278,0.422-0.466c0.02-0.134-0.188-0.336-0.113-0.53c0.193-0.503,0.602-0.896,0.791-1.399
			c0.191-0.51-0.07-1.226,0.16-1.706c0.107-0.102,0.215-0.204,0.324-0.305c0.166-0.588,0.207-1.335,0.469-1.897
			c0.107-0.103,0.219-0.204,0.326-0.306c0.051-0.433,0.105-0.867,0.158-1.303c0.156-0.394,0.582-0.722,0.672-1.125
			c0.037-0.164-0.088-0.423-0.033-0.579c0.115-0.36,0.502-0.607,0.576-0.965c0.027-0.148-0.119-0.322-0.055-0.468
			c0.09-0.212,0.389-0.293,0.498-0.513c0.127-0.261,0.002-1.441,0.062-1.545c0.227-0.388,0.771-0.462,0.924-0.98
			c0.119-0.398-0.068-1.078-0.014-1.498c0.035-0.279,0.254-0.545,0.348-0.819c0.039-0.115,0.189-1.691,0.178-1.818
			c-0.014-0.198-0.318-0.411-0.301-0.613c0.012-0.176,0.352-0.348,0.365-0.53c0.02-0.227-0.199-0.489-0.15-0.708
			c0.082-0.368,0.641-1.014,0.789-1.398c0.061-0.473,0.121-0.944,0.18-1.416c0.242-0.576,0.547-1.003,0.752-1.575
			c0.17-0.477,0.371-1.489,0.273-1.979c-0.049-0.256-0.281-0.325-0.242-0.549c0.156-0.268,0.316-0.536,0.479-0.802
			c0.051-0.217-0.088-0.481-0.018-0.693c0.104-0.298,0.297-0.582,0.293-0.885c-0.004-0.251-0.164-0.459-0.15-0.709
			s0.271-0.515,0.271-0.772c0.002-1.286,0.143-2.5,0.111-3.783c-0.01-0.341,0.342-0.705,0.389-1.044
			c-0.064-0.161-0.127-0.322-0.189-0.483c0.102-0.333,0.205-0.665,0.311-0.998C442.449,230.419,442.365,229.848,442.365,229.209z
			 M404.522,175.983c0.222,0.161,0.444,0.323,0.667,0.484c-0.128,0.081-0.256,0.161-0.384,0.24
			c-0.578-0.191-1.148-0.432-1.775-0.391c-0.018-0.022-0.037-0.043-0.057-0.065C403.527,176.013,403.879,176.231,404.522,175.983z
			 M289.653,244.916c0.218-0.045,0.161-0.014,0.343-0.014c0.008,0.095,0.014,0.192,0.019,0.289
			c-0.088-0.012-0.179-0.023-0.268-0.034c-0.043-0.006-0.088-0.012-0.132-0.016C289.626,245.064,289.639,244.99,289.653,244.916z
			 M332.788,346.195c-0.187,0.128-0.276,0.186-0.324,0.303c-0.527,0.197-0.629-0.133-1.068-0.13c-0.19,0-0.4,0.16-0.575,0.16
			c-0.711,0.454-0.568,0.78-0.368,1.335c-0.28,0.125-0.587,0.188-0.691,0.432c-0.152,0.096-0.306,0.193-0.458,0.288
			c0.467,1.009,0.982,1.212,1.962,1.278c0.186,0.334,0.032,0.396,0.149,0.709c-0.81,0.512-1.522,0.306-2.217,0.186
			c-0.026,0.018-0.051,0.031-0.076,0.048c-0.065-0.378,0.351-0.548,0.232-0.948c-0.035-0.127,0.071-0.088-0.113-0.129
			c-0.19-0.215-0.381-0.43-0.57-0.645c-0.328-0.172-1.579-0.094-1.779,0.412c-0.275,0.354-0.001,1.371,0.701,1.467
			c0.018,0.021,0.038,0.043,0.057,0.064c-0.743,0.3-1.718,0.008-2.465,0.041c-0.307-0.284-0.424-0.263-0.724-0.551
			c0.716-0.45,1.286-0.922,1.61-1.411c-0.091-0.343-0.403-1.241-1.007-1.272c-0.018-0.023-0.037-0.046-0.057-0.067
			c0.66-0.264,1.094-0.042,1.779-0.413c0.568,0.736,0.541,1.305,1.599,1.407c0.102,0.002,0.317-0.065,0.42-0.065
			c1.036-0.623,0.584-1.221-0.144-1.914c0.259-0.098,0.666-0.234,0.766-0.481c0.481-0.169,0.604,0.092,1.012,0.067
			c0.198-0.093,0.396-0.181,0.595-0.271c0.849-0.213,1.783,0.039,2.676-0.475c0.638,0.353,0.767,0.376,1.432,0.406
			c0.647-0.547,0.826-0.93,1.764-1.506c0.372,0.308,0.609,0.312,0.972,0.693c-0.825,0.439-1.015,1.049-2.072,1.701
			C334.777,346.799,333.76,346.615,332.788,346.195z M338.217,349.914c-0.356,0.238-0.213,0.142-0.593,0.273
			c-0.173-0.18-0.139-0.062-0.171-0.193c-0.801-0.963-1.946-0.738-2.941-0.365c-0.121-0.09-0.24-0.184-0.36-0.275
			c0.056-0.102,0.096-0.169,0.115-0.271c0.82-0.547,2.343-0.771,3.349-1.197c0.551,0.373,0.525,0.395,0.933,0.92
			c-0.212,0.166-0.423,0.332-0.634,0.498C338.034,349.537,338.048,349.671,338.217,349.914z M340.686,349.068
			c-0.018-0.002-0.463-1.074-0.452-1.32c0.033-0.605,0.873-0.543,1.397-0.575c0.235,0.324,0.23,0.546,0.129,0.821
			c0.737,0.854,1.989,0.83,2.941,0.362c0.07,0.124,0.139,0.249,0.208,0.372C344.351,349.041,341.153,349.334,340.686,349.068z
			 M347.627,347.627c-0.786-0.863-1.441-0.645-2.328-0.751c-0.253,0.128-0.391,0.242-0.766,0.483
			c-0.216-0.483,0.346-1.266,0.257-1.867c0.611-0.354,1.736-0.783,2.295-0.637c0.261-0.029,0.355,0.092,0.591,0.131
			c0.053,0.51-0.496,0.305-0.728,0.658c-0.146,0.216,0.238,0.701,0.244,0.95c0.734,0.401,1.355-0.245,2.159-0.251
			c0.169-0.003,0.397,0.222,0.572,0.243c0.211,0.024,0.415-0.101,0.63-0.097c0.298,0.012,0.685,0.283,0.954,0.407
			C350.984,347.645,347.197,348.899,347.627,347.627z M353.076,342.604c-0.087-0.15-0.093-0.137-0.096-0.242
			c0.031-0.1-0.003-0.033,0.096-0.159c0.125,0,0.04,0.013,0.211-0.032c-0.007,0.038-0.014,0.076-0.02,0.113
			c0.037,0.041,0.075,0.085,0.115,0.128C353.279,342.477,353.176,342.539,353.076,342.604z M354.016,341.513
			c-0.045-0.007-0.09-0.013-0.135-0.017c-0.038-0.044-0.075-0.088-0.114-0.131c0.052-0.031,0.104-0.064,0.153-0.096
			c0.057,0.066,0.114,0.131,0.172,0.193C354.066,341.48,354.042,341.496,354.016,341.513z M358.178,341.91
			c-0.124,0.212,0.026,0.752,0.034,0.982c-0.315,0.127-0.903,0.461-1.243,0.48c-0.44,0.229-0.602,0.158-0.957-0.004
			c0.051-0.158,0.038-0.232,0.003-0.401c0.399-0.338,0.724-0.269,1.34-0.64c0.041-0.271,0.164-0.888,0.329-1.113
			c0.138-0.229,0.786-0.387,1.111-0.492c0.088,0.152,0.09,0.135,0.095,0.242C358.979,341.451,358.443,341.464,358.178,341.91z
			 M361.879,343.404c-0.02-0.022-0.038-0.044-0.057-0.063c0.17-0.075,0.343-0.151,0.516-0.226
			C362.242,343.302,362.147,343.268,361.879,343.404z M363.806,339.387c-0.174-0.28-0.137-0.362-0.17-0.6
			c0.486-0.302,0.972-0.606,1.457-0.91c0.266,0.207,0.317,0.294,0.513,0.58c-0.537,0.381-1.037,0.584-1.666,0.945
			C363.895,339.396,363.85,339.389,363.806,339.387z M364.158,342.074c-0.051,0.031-0.102,0.064-0.153,0.096
			c-0.019-0.02-0.037-0.043-0.056-0.064c0.471-0.275,1.294-0.545,1.454-0.912c0.417-0.271,0.701-0.406,1.035-0.447
			C366.279,341.267,364.809,342.156,364.158,342.074z M369.876,336.281c-0.03,0.068-0.661,0.566-0.92,0.578
			c-0.2,0.113-0.291,0.169-0.438,0.174c-0.461-0.134-0.786-0.585-1.24-0.729c-0.248-0.352-0.131-0.409-0.148-0.709
			c0.458-0.295,0.831-0.729,0.956-0.802c0.545-0.048,0.972,0.473,1.565,0.423C369.916,335.571,370.032,335.971,369.876,336.281z
			 M371.677,334.949c-0.082-0.047-0.165-0.097-0.246-0.145c0.081-0.166,0.151-0.318,0.154-0.498
			c0.076-0.049,0.153-0.096,0.229-0.145c0.061,0.156,0.205,0.307,0.208,0.37c0.038,0.043,0.076,0.088,0.114,0.128
			C371.984,334.759,371.83,334.854,371.677,334.949z M374.387,335.456c0.04-0.099,0.034-0.085,0.174-0.207
			c0.019,0.021,0.039,0.044,0.058,0.063C374.542,335.362,374.465,335.41,374.387,335.456z M376.177,332.631
			c0.02-0.217,0.262-0.027,0.421-0.062c0.591-0.146,1.67-1.002,1.915-1.203c0.122,0.049,0.201,0.081,0.325,0.096
			c-0.007,0.038-0.015,0.076-0.021,0.115c-0.097,0.189-2.085,1.162-2.526,1.182C376.156,332.693,376.17,332.791,376.177,332.631z
			 M381.928,332.535c-0.136,0.252-0.052,0.616-0.291,0.884c-0.149,0.167-0.518,0.237-0.593,0.272
			c-0.248,0.117-0.46,0.547-0.653,0.609c-0.59,0.195-1.459,0.586-1.992,1.249c-0.045-0.004-0.089-0.011-0.133-0.017
			c-0.082-0.574,2.126-2.074,2.438-2.631c0.387-0.301,0.276-0.506,0.213-0.838c0.688-0.415,1.019-0.236,1.605-0.205
			C382.455,332.139,382.082,332.248,381.928,332.535z M392.841,318.465c0.038-0.098,0.033-0.084,0.172-0.207
			c0.019,0.019,0.038,0.043,0.058,0.064C392.994,318.37,392.917,318.419,392.841,318.465z M395.433,319.648
			c-0.02-0.02-0.037-0.041-0.057-0.063c0.331-0.364,0.247-0.464,0.672-0.722c0.038,0.043,0.075,0.087,0.114,0.128
			C395.92,319.211,395.676,319.43,395.433,319.648z M395.85,316.076c0.078-0.211,0.366-0.43,0.652-0.608
			c0.037,0.042,0.076,0.085,0.114,0.129C396.361,315.757,396.106,315.916,395.85,316.076z M396.681,318.367
			c-0.121-0.094-0.241-0.186-0.362-0.276c0.019-0.146,0.008-0.182-0.074-0.355c0.431-0.432,0.943-1.304,1.592-1.296
			c0.256-0.07,0.256-0.062,0.477,0c0.044,0.006,0.088,0.009,0.134,0.016C398.132,317.072,397.468,317.829,396.681,318.367z
			 M400.414,312.211c-0.045-0.006-0.09-0.013-0.134-0.016c0.439-0.348,1.036-0.703,1.439-1.202c0.109-0.139,0.132-0.436,0.231-0.548
			c0.272-0.314,0.701-0.259,1.109-0.496C402.951,310.92,401.76,312.191,400.414,312.211z M403.789,309.291
			c-0.076,0.048-0.152,0.096-0.229,0.146c-0.021-0.315,0.003-0.346,0.288-0.484C403.885,309.152,403.822,309.12,403.789,309.291z
			 M407.373,302.428c-0.35,0.098-0.701,0.035-1.012-0.065c-0.419,0.376-0.365,0.63-1,1.026c0.204,0.577,0.562,0.861,0.646,1.402
			c-0.405,0.422-1.54,2.122-2.015,2.167c-0.261,0.03-0.299-0.019-0.517-0.179c0.147-0.222,0.517-0.439,0.672-0.723
			c0.241-0.438-0.346-0.904,0.256-1.464c-0.086-0.155-0.188-0.341-0.189-0.483c-0.661-0.748-0.16-0.947-0.202-1.578
			c0.373-0.15,0.761-0.088,1.088,0.02c0.504-0.312,0.851-0.616,0.922-0.978c0.604,0.101,0.909,0.5,1.563,0.421
			c0.058,0.064,0.113,0.129,0.172,0.193C407.524,302.342,407.48,302.42,407.373,302.428z M411.577,297.885
			c-0.382,0.241-0.471,0.281-0.784,0.191c-0.026,0.016-0.051,0.033-0.077,0.049c-0.03-0.082-0.063-0.162-0.096-0.244
			c0.221-0.302,0.619-0.679,0.655-1.011c0.4-0.228,0.389-0.165,0.708-0.144C411.984,297.139,411.57,297.466,411.577,297.885z
			 M415.391,294.791c-0.203,0.385-0.52,0.243-0.614,0.788c-0.52,0.258-0.971-0.118-1.375-0.343c0.017-0.104,0.004-0.178-0.018-0.29
			c0.615-0.617,1.11-1.188,2.015-1.765c0.075,0.086,0.15,0.172,0.228,0.26c-0.115,0.272-0.231,0.546-0.347,0.819
			C415.277,294.413,415.462,294.656,415.391,294.791z M424.137,282.583c-0.018-0.021-0.039-0.043-0.057-0.064
			c-0.047-0.005-0.09-0.011-0.133-0.017c0.051-0.031,0.102-0.064,0.154-0.096C424.148,282.548,424.143,282.478,424.137,282.583z
			 M425.857,282.508c-0.123,0.166-0.344,0.223-0.402,0.353c-0.223,0.063-0.232,0.04-0.422,0.063c-0.365-0.727,0.715-0.5-0.088-1.45
			c0.455-0.428,0.783-0.602,1.475-1.024C426.488,280.82,426.08,282.209,425.857,282.508z M440.227,232.856
			c-0.291,0.213-0.508,0.45-0.896,0.463c-0.738,0.958,0.086,2.278,0.232,3.366c-0.061,0.204-0.117,0.407-0.176,0.611
			c0.078,0.085,0.152,0.172,0.229,0.258c0.107,0.524-0.041,1.276-0.045,1.834c-0.092,0.391-0.184,0.783-0.273,1.175
			c0.021,0.333,0.238,0.573,0.189,0.886c-0.039,0.218-0.279,0.434-0.252,0.659c0.068,0.124,0.141,0.247,0.207,0.371
			c-0.008,0.186-0.225,0.233-0.344,0.418c-0.23,0.351-0.324,0.898-0.295,1.286c-0.471,0.275-0.723,0.225-1.105,0.094
			c-0.371,0.377-0.049,0.631-0.178,1.014c-0.156,0.471-0.33,0.771-0.561,1.254c-0.191,0.406,0.018,0.952-0.1,1.368
			c-0.135,0.463-0.713,0.819-0.902,1.27c-0.016,0.208-0.029,0.418-0.043,0.627c-0.154,0.42-0.459,0.765-0.617,1.19
			c-0.211,0.575-0.135,1.271-0.256,1.866c-0.047,0.23-0.334,0.411-0.387,0.642c-0.072,0.337,0.195,0.775,0.016,1.095
			c-0.16,0.134-0.318,0.267-0.479,0.4c0.102,0.205,0.201,0.41,0.303,0.613c-0.133,0.252-0.27,0.503-0.404,0.756
			c-0.035,0.373,0.326,0.936,0.186,1.288c-0.174,0.208-0.348,0.417-0.518,0.626c0.018,0.155,0.035,0.311,0.057,0.467
			c-0.156,0.448-0.439,0.808-0.561,1.254c0.004,0.23,0.008,0.461,0.014,0.692c-0.131,0.321-0.443,0.534-0.557,0.851
			c-0.158,0.438-0.074,1.019-0.254,1.464c-0.176,0.426-0.59,0.745-0.75,1.172c-0.123,0.32,0.098,0.662,0.031,0.983
			c-0.189,0.95-0.734,1.938-1.576,2.796c0.148,0.139,0.176,0.173,0.305,0.211c0.209,0.098,0.254,0.057,0.457,0.114
			c0.1-0.064,0.205-0.128,0.307-0.192c0.217,0.403-0.035,0.892-0.348,1.222c0,0-0.779,0.135-0.92,0.175
			c-0.047,0.272-0.221,0.558-0.48,0.803c0.162,0.235,0.102,0.144,0.34,0.387c0.213-0.166,0.424-0.331,0.635-0.497
			c0.287,0.442,0.039,0.647,0.09,1.048c-0.141,0.155-0.281,0.31-0.422,0.465c-0.424,0.166-1.279,0.088-1.492,0.736
			c-0.033,0.053-0.064,0.107-0.096,0.161c0.146,0.113,0.127,0.112,0.248,0.145c0.305,0.153,0.348,0.093,0.707-0.142
			c0.137,0.403-0.162,0.524-0.291,0.884c-0.148,0.403,0.135,0.929-0.025,1.32c-0.088,0.216-0.373,0.293-0.5,0.513
			c-0.158,0.274-0.131,0.64-0.365,0.933c-0.162,0.133-0.32,0.268-0.48,0.401c-0.184,0.362,0.25,0.839-0.004,1.208
			c-0.477,0.686-1.193,1.087-1.268,1.799c-0.053,0.031-0.104,0.064-0.156,0.096c-0.012-0.227,0.18-0.412,0.176-0.61
			c-0.004-0.239-0.328-0.439-0.225-0.661c0.363-0.804,1.566-1.618,1.25-2.493c0.008-0.111-0.037-0.106-0.15-0.306
			c-0.252,0.014-0.562,0.029-0.822,0.013c-0.699,0.499-2.346,3.069-2.479,3.663c-0.375,0.106-0.883,0.054-1.225-0.036
			c-0.254,0.262-0.58,0.517-0.766,0.883c0.166,0.323,0.516,0.895,0.932,0.92c0.357,0.639-0.609,1.6-0.793,2.203
			c-0.953,0.443-1.471-0.068-2.274,0.123c-0.263,0.062-0.651,0.422-0.881,0.351c-0.401-0.125-0.415-0.558-1.049-0.647
			c-0.327-0.015-0.811,0.175-1.147,0.319c-0.02,0.129-0.072,0.26-0.135,0.385c0.196,0.371,0.272,0.52,0.608,0.823
			c0.516-0.072,0.921-0.076,1.511-0.446c0.23,0.269,0.386,0.479,0.513,0.582c-0.228,0.247-0.697,0.273-0.997,0.624
			c-0.359,0.424-0.042,0.798-0.081,1.255c-0.309,0.663-0.911,0.571-0.865,1.446c-0.271-0.068-0.643-0.337-0.877-0.454
			c-0.208,0.066-0.244,0.08-0.422,0.063c-1.016,0.645-0.858,1.017-1.438,1.606c-0.216-0.027-0.481,0.075-0.689,0.03
			c-0.414-0.092-0.691-0.22-1.125-0.197c-0.653-0.794-0.769-0.529-1.564-0.423c-0.951,0.125-0.879-0.047-1.494,0.735
			c0.571,0.729,0.988,1.209,1.829,1.261c0.194,0.013,0.58-0.041,0.745,0.035c0.113,0.129,0.228,0.258,0.342,0.387
			c0.47,0.25,1.347-0.079,1.873-0.172c0.133,0.152,0.267,0.303,0.398,0.453c-1.226,0.875-3.242,2.282-3.548,3.127
			c-0.968,0.216-1.019-0.734-2.406,0.106c-0.072-0.216-0.285-0.567-0.438-0.628c-0.342-0.385-0.46-0.391-0.8-0.503
			c-0.189,0.13-0.278,0.186-0.327,0.306c-0.274,0.344,0.001,0.934,0.437,1.031c0.074,0.087,0.15,0.172,0.228,0.259
			c0.389-0.132,0.517-0.138,0.822-0.416c0.07,0.295,0.132,0.724,0.302,1.014c0.148,0.257,0.414,0.232,0.457,0.517
			c-0.345,0.859-1.67,1.484-1.979,2.346c-0.356,0.156-0.854,0.262-1.205,0.25c-0.098-0.014-0.229-0.079-0.324-0.096
			c-1.059-1.235,1.105-1.96,0.739-3.072c0.008-0.038,0.013-0.076,0.02-0.114c-0.587-0.063-1.211-0.23-1.834-0.054
			c-0.177,0.006-0.374,0.13-0.593,0.272c-0.101,0.667-0.387,1.347-0.085,2.061c0.028,0.179,0.292,0.348,0.552,0.356
			c0.038,0.042,0.076,0.085,0.114,0.128c-0.157,0.14-0.577,0.44-0.652,0.61c-0.244,0.301-0.166,0.63,0.034,0.983
			c0.171,0.026,0.208,0.043,0.381,0.16c0.593-0.193,0.794-0.262,1.416-0.688c0.039,0.041,0.077,0.084,0.115,0.129
			c-0.134,0.438-0.381,0.991-0.389,1.446c-0.158,0.131-0.163,0.15-0.249,0.259c-0.496-0.277-0.857-0.525-1.315-0.682
			c-0.48,0.334-0.854,0.766-0.749,1.173c-0.521,0.291-0.633,0.124-0.995,0.224c-0.289,0.211-0.574,0.427-0.863,0.641
			c-0.059,0.338-0.117,0.677-0.176,1.014c-0.581,0.023-1.342-0.455-1.869-0.635c-0.244,0.143-0.345,0.157-0.384,0.244
			c-0.321,0.303-0.165,0.449-0.404,0.754c0.521,0.701,1.181,0.496,1.831,0.858c0.242,0.134,0.325,0.402,0.531,0.47
			c0.447,0.566,0.075,0.664,0.148,1.109c0.12,0.227,0.24,0.451,0.36,0.678c-0.256,0.236-0.42,0.314-0.767,0.479
			c-0.663-0.876-0.483-1.544-1.711-1.936c-0.489,0.336-0.413,0.514-0.614,0.787c-0.307,0.191-0.613,0.385-0.919,0.577
			c-0.645,0.409-1.337,0.877-1.745,1.395c-0.378,0.476-0.568,1.102-0.887,1.56c-0.363,0.395-0.729,0.792-1.094,1.188
			c-0.327,0.458-0.622,1.048-0.942,1.494c-0.214,0.299-0.612,0.936-1.074,1.074c-0.379,0.115-1.093-0.092-1.377,0.463
			c-0.274,0.264-0.192,0.873,0.167,0.999c0.46,0.499,0.66,0.357,1.145,0.487c0.796-0.537,1.444-0.984,2.091-1.812
			c0.155-0.201,0.176-0.608,0.347-0.82c0.153-0.098,0.306-0.191,0.46-0.287c0.473-0.533,1.226-1.524,1.461-2.123
			c0.173-0.074,0.344-0.148,0.517-0.223c0.331,0.229,0.596,0.311,0.915,0.631c0.201-0.027,0.288-0.043,0.478,0.002
			c0.611-0.596,0.622-1.211,0.867-1.848c-0.246-0.252-0.486-0.399-0.515-0.583c-0.074-0.226-0.014-0.211,0.003-0.403
			c0.791-0.444,1.312,0.202,1.985,0.361c0.197,0.289,0.175,0.234,0.055,0.467c-0.065,0.156-0.833,0.346-1.015,0.738
			c-0.154,0.189-0.127,0.25-0.212,0.434c0.385,0.422,0.423,0.583,0.454,0.919c-0.177,0.167-0.425,0.437-0.557,0.448
			c-0.676,0.238-1.27,0.036-1.873,0.172c-0.875,0.193-2.514,1.752-2.779,2.247c-0.2,0.369,0.078,0.789-0.272,1.173
			c-0.726,0.789-1.635,0.188-2.239,0.699c-0.277,0.236-0.371,0.65-0.558,0.854c-0.325,0.17-0.65,0.342-0.977,0.513
			c-0.562,0.632-1.059,1.579-1.613,2.216c-0.643,0.738-1.694,1.092-2.034,1.878c-0.27,0.358-0.092,0.807-0.005,1.206
			c-0.625,0.383-1.386,0.834-1.592,1.299c-0.248,0.164-0.535,0.36-0.746,0.368c-0.025,0.018-0.051,0.032-0.077,0.048
			c-0.143-0.375-0.023-0.605-0.301-1.016c0.175-0.105,0.838-0.29,1.204-0.254c0.654-0.455,0.362-0.723,0.961-1.202
			c-0.05-0.144-0.042-0.073-0.038-0.179c-0.289-0.268-0.397-0.248-0.686-0.373c-0.191-0.014-0.082-0.412-0.035-0.58
			c-0.265-0.245-0.362-0.247-0.609-0.42c-0.887,0.372-2.363,1.791-2.568,1.812c-0.462,0.424-0.031,0.688-0.062,1.143
			c-0.097,0.301-0.436,0.414-0.672,0.723c-0.212,0.273-0.248,0.736-0.444,0.98c-0.28,0.178-0.561,0.352-0.842,0.529
			c-0.098,0.122-0.084,0.353-0.155,0.498c0.553,0.621,0.812,0.48,1.392,0.633c0.723-0.471,0.771-0.769,1.418-1.091
			c0.02,0.021,0.038,0.044,0.058,0.063c-0.146,0.224-0.421,0.5-0.672,0.724c0.247,0.288,0.391,0.44,0.666,0.483
			c-0.341,0.932-1.91,1.639-3.046,2.213c-0.421,0.213-0.901,0.906-1.265,0.996c-0.235,0.041-0.265-0.009-0.479-0.002
			c-0.137-0.17-0.201-0.246-0.209-0.373c0.124-0.287,0.69-0.514,0.939-0.689c-0.049-0.141-0.041-0.072-0.038-0.176
			c-0.311-0.316-0.38-0.271-0.687-0.373c-0.354,0.133-0.884,0.215-1.263,0.592c-0.131,0.129-0.462,0.475-0.785,0.594
			c-0.117,0.041-0.498,0.135-0.669,0.32c-0.378,0.401-1,1.059-1.46,1.316c-0.714,0.395-1.848,0.592-2.22,0.99
			c-0.327-0.121-0.66-0.192-0.974-0.293c-0.414,0.211-1.108,0.771-1.724,0.881c-0.283,0.05-0.729-0.089-1.012-0.068
			c-0.172,0.075-0.345,0.146-0.517,0.224c-0.222,0.028-0.753-0.052-1.013-0.068c-0.139,0.093-1.345,1.191-1.38,1.268
			c-1.312,0.78-0.396,1.299-0.449,2.188c-0.166,0.505-2.444,1.471-3.12,1.454c-0.616,0.106-0.922-0.374-1.489-0.472
			c-0.271-0.045-1.384-0.137-1.623-0.085c-0.322,0.072-0.521,0.292-0.804,0.304c-0.307,0.277-0.17,0.465-0.326,0.709
			c-0.186,0.148-0.373,0.298-0.558,0.448c-0.075,0.2,0.128,0.671,0.188,0.886c-0.603,0.375-1.162,0.604-1.685,0.656
			c-0.612-0.723-0.804-0.561-1.447-0.698c-0.412,0.231-0.433,0.254-0.844,0.529c0.233,0.44-0.093,0.608,0.09,1.048
			c-0.708,0.039-1.57,0.24-2.332,0.459c-0.274,0.139-0.549,0.275-0.822,0.415c-0.488,0.064-0.836-0.376-1.395-0.229
			c-1.114,0.148-0.887,1.518-2.301,1.846c-0.544,0.125-1.306,0.207-1.932,0.51c-0.253-0.311-0.342-1.516-1.235-1.535
			c-0.193-0.32-0.15-0.534,0.003-0.805c-0.284-0.41-0.349-0.855-0.854-0.968c-0.322-0.185-0.529-0.118-0.858-0.163
			c-0.356,0.322-0.566,0.917-0.637,1.301c-0.024,0.854,1.199,2.075,2.126,3.081c-0.514,0.386-0.907,0.396-1.511,0.446
			c-0.086-0.152-0.092-0.137-0.094-0.241c-0.618-0.682-0.957-0.312-1.644-0.376c-0.451,0.277-0.702,0.5-0.689,0.834
			c-0.289,0.03-0.391-0.13-0.649-0.195c-0.038-0.041-0.076-0.087-0.114-0.127c0.257-0.234,0.736-0.557,0.825-0.82
			c0.233-0.564-0.13-1.129-0.737-1.645c-0.322,0.078-0.62,0.204-0.919,0.174c-0.253-0.121-0.16-0.467-0.493-0.691
			c-0.17-0.115-0.459-0.134-0.648-0.197c-1.066,0.611-1.04,0.806-0.752,1.576c-0.698,0.337-1.335,0.158-1.97,0.332
			c-0.444,0.12-0.586,0.353-0.957,0.401c-0.379,0.045-0.688-0.051-1.108,0.093c-0.11-0.199-0.192-1.82-0.125-2.031
			c-0.824-0.573-1.803-0.35-2.691-0.619c-0.421,0.211-0.932,0.365-1.015,0.736c-0.174,0.24-0.083,0.374-0.175,0.611
			c0.701,0.844,1.189,1.255,2.06,1.119c0.17,0.193,0.342,0.387,0.512,0.58c-1.236,0.746-2.239,0.733-3.306,0.569
			c-0.107,0.214-0.105,0.042,0.017,0.29c-0.661,0.412-1.245,0.627-1.78,0.816c-0.426,0.148-0.525,0.446-0.709,0.545
			c0.037,0.227,0.046,0.322,0.303,0.613c-0.393,0.062-0.859,0.184-1.262,0.189c-1.069,0.656-0.566,1.082-0.792,1.799
			c0.256,0.257,0.457,0.394,0.744,0.438c0.019,0.021,0.036,0.043,0.058,0.064c-0.052,0.03-0.103,0.062-0.155,0.096
			c-0.979-0.16-2.007-0.354-2.977-0.539c-0.296-0.058-0.521-0.34-0.82-0.39c-0.661-0.108-1.433-0.01-2.082-0.199
			c-0.568-0.167-1.023-0.522-1.602-0.603c-0.255,0.029-0.51,0.055-0.764,0.082c-0.449-0.109-0.765-0.43-1.202-0.553
			c-0.755-0.218-1.682-0.213-2.482-0.251c-0.261-0.071-0.521-0.142-0.782-0.21c-0.214-0.018-0.487,0.1-0.688,0.029
			c-0.248-0.146-0.495-0.293-0.744-0.438c-0.166-0.059-0.575-0.072-0.724-0.147c-0.153-0.172-0.305-0.345-0.457-0.517
			c-0.293-0.017-0.586-0.033-0.879-0.051c-0.229-0.125-0.458-0.25-0.686-0.372c-0.322-0.101-0.799-0.113-1.127-0.196
			c-0.514-0.131-1.038-0.657-1.543-0.938c-0.825-0.458-1.915-0.57-2.805-0.75c-0.387-0.079-0.686-0.425-1.069-0.535
			c-0.038-0.043-0.075-0.087-0.113-0.127c0.61-0.242,1.805-0.961,2.032-1.477c0.15-0.237,0.07-0.434,0.117-0.676
			c-0.149-0.141-0.177-0.174-0.306-0.211c-0.037-0.043-0.076-0.084-0.113-0.13c-0.775,0.29-1.772,0.717-2.604,1.231
			c-0.047,0.285-0.039,0.566-0.08,0.854c-0.307-0.105-0.75-0.195-1.03-0.355c-0.199-0.115-0.261-0.291-0.419-0.34
			c0.064-0.145,0.432-0.371,0.5-0.514c-0.002-1.076-1.955-0.809-2.094-2.099c-0.532-0.385-1.319-0.162-1.831-0.458
			c-0.223-0.295-0.444-0.592-0.665-0.887c-0.187-0.092-0.627-0.051-0.859-0.164c-0.545-0.262-0.828-0.652-1.409-0.922
			c-0.406-0.188-1.039-0.331-1.47-0.585c-0.277-0.226-0.559-0.451-0.836-0.679c-0.303-0.17-0.878-0.229-1.164-0.374
			c-0.293-0.286-0.584-0.57-0.875-0.855c-0.217-0.146-0.62-0.312-0.686-0.371c-0.596-0.545-1.213-1.511-1.482-2.081
			c-0.532-0.604-1.063-1.205-1.596-1.809c-0.013-0.025,0.001-0.402,0.001-0.402c-0.29-0.371-1.169-0.869-1.351-1.262
			c-0.064-0.137-0.09-0.568-0.15-0.707c-0.243-0.562-0.863-1.076-1.101-1.518c-0.159-0.291-0.592-0.6-0.762-0.727
			c-0.117-0.09-1.236-1.702-1.31-1.887c-0.51-1.25-0.56-2.637-1.111-3.818c-0.247-0.281-0.495-0.561-0.741-0.84
			c-0.168-0.345-0.157-0.808-0.281-1.127c-0.145-0.371-0.384-0.479-0.476-0.809c-0.125-0.446,0.082-0.965-0.031-1.384
			c-0.238-0.88-1.379-1.811-1.649-2.677c-0.06-0.188-0.034-0.593-0.132-0.821c-0.176-0.29-0.353-0.582-0.53-0.871
			c-0.106-0.669-0.129-1.467-0.105-2.14c0.009-0.248,0.286-0.518,0.271-0.775c-0.013-0.234-0.32-1.479-0.394-1.658
			c-0.113-0.127-0.228-0.258-0.342-0.387c-0.109-0.316,0.135-0.671,0.101-0.968c-0.045-0.361-0.304-0.583-0.38-0.966
			c-0.138-0.703,0.042-1.624-0.142-2.317c-0.114-0.264-0.229-0.528-0.341-0.79c-0.04-0.341,0.126-0.746,0.119-1.078
			c-0.024-0.997-0.271-1.918-0.312-2.916c0.084-0.354,0.168-0.708,0.253-1.063c-0.008-0.523-0.004-0.938,0.044-1.432
			c0.093-0.938-0.341-1.914-0.388-2.866c-0.078-1.56,0.518-3.096,0.802-4.618c0.04-0.493,0.081-0.987,0.122-1.48
			c0.091-0.27,0.268-0.499,0.271-0.772c0.003-0.538-0.064-1.143,0.083-1.658c0.198-0.698,0.597-1.131,1.001-1.832
			c0.296-0.511,0.301-1.19,0.504-1.721c0.146-0.376,0.633-0.631,0.788-0.996c0.186-0.441,0.047-0.979,0.179-1.416
			c0.076-0.048,0.152-0.096,0.229-0.144c0.284-0.599,0.603-1.208,0.868-1.85c0.751-1.82,1.205-3.787,2.067-5.611
			c-0.106-0.167-0.216-0.333-0.322-0.5c-0.714,0.59-0.827,1.199-1.191,1.751c-0.25,0.378-0.619,0.609-0.788,0.996
			c-0.147,0.337-0.351,0.975-0.54,1.14c-0.261,0.033-0.028,0.065-0.268-0.033c0.212-0.919,0.709-1.78,0.949-2.701
			c0.11-0.428,0.099-0.93,0.234-1.352c0.167-0.521,0.549-0.883,0.522-1.43c0.209-0.13,0.353-0.217,0.517-0.224
			c0.095-0.027,0.19-0.052,0.286-0.08c0.133,0.151,0.266,0.301,0.399,0.453c-0.001,0.268-0.003,0.536-0.003,0.804
			c-0.077,0.049-0.153,0.097-0.23,0.145c0.095,0.108,0.189,0.215,0.286,0.323c1.168-0.839,1.425-3.185,2.119-4.34
			c-0.239-0.24-0.518-0.375-0.531-0.469c-0.616-0.76,0.184-1.188,0.522-1.833c0.128-0.246,0.119-0.688,0.233-0.949
			c0.169-0.385,0.473-0.562,0.711-0.948c0.173-0.283,0.221-0.758,0.387-1.045c0.356-0.616,1.034-0.918,1.497-1.541
			c0.662-0.891,1.101-1.852,1.502-2.748c0.156-0.35,0.464-0.411,0.749-0.771c0.199-0.252,0.198-0.621,0.291-0.885
			c0.146-0.42,0.591-0.696,0.807-1.107c0.323-0.625,0.423-1.472,0.772-2.091c0.3-0.532,0.896-0.875,1.133-1.412
			c0.061-0.338,0.118-0.676,0.178-1.014c0.118-0.278,0.442-0.308,0.65-0.609c0.123-0.177,0.164-0.589,0.272-0.773
			c0.308-0.523,0.749-0.787,1.113-1.3c0.601-0.849,1.024-2.102,2.075-2.908c-0.075-0.085-0.152-0.171-0.228-0.257
			c-0.371,0.116-1.225,0.215-1.417,0.688c-0.22,0.064-0.23,0.041-0.42,0.063c-0.038-0.043-0.076-0.087-0.113-0.129
			c0.21-0.323,0.506-0.679,0.52-1.029c0.323-0.229,0.643-0.372,1.071-0.27c0.588-0.582,0.747-1.245,1.136-1.816
			c0.19-0.186,0.384-0.374,0.574-0.561c0.648-0.983,1.048-2.186,1.58-3.199c0.494-0.938,1.681-1.722,2.171-2.666
			c0.1-0.193-0.021-0.545,0.062-0.74c0.347-0.84,1.511-1.279,2.205-2.086c0.543-0.631,0.972-1.398,1.309-2.025
			c0.232-0.433,0.859-0.567,1.131-1.011c0.136-0.224-0.012-0.631,0.08-0.853c0.148-0.359,0.767-0.595,0.979-0.916
			c0.155-0.235,0.294-0.663,0.501-0.915c0.277-0.339,0.862-0.641,0.959-0.802c0.243-0.407,0.398-0.969,0.712-1.35
			c0.734-0.896,1.702-1.667,2.477-2.456c0.255-0.161,0.51-0.321,0.765-0.482c0.642-0.673,1.325-1.459,1.806-2.135
			c0.205-0.068,0.696-0.488,0.959-0.802c0.283-0.339,0.299-0.751,0.463-1.093c0.29-0.603,0.962-1.316,1.346-1.848
			c0.154-0.096,0.307-0.192,0.459-0.287c0.117-0.146,0.312-0.548,0.463-0.693c0.272-0.259,0.717-0.286,0.995-0.624
			c1.202-1.462,2.601-3.052,3.993-4.511c0.648-0.679,1.649-1.04,2.128-1.635c0.146-0.182,0.161-0.519,0.328-0.707
			c0.351-0.188,0.702-0.375,1.054-0.561c0.324-0.316,0.969-0.79,1.228-1.171c0.019-0.114,0.038-0.226,0.058-0.338
			c0.302-0.411,2.048-0.77,2.547-1.295c0.514-0.542,1.056-1.244,1.536-1.767c0.466-0.326,0.933-0.652,1.399-0.978
			c0.122-0.128,0.339-0.468,0.442-0.577c0.397-0.43,1.426-0.948,1.762-1.105c0.319-0.15,0.551-0.687,0.748-0.771
			c0.164-0.071,1.7-0.692,1.857-0.863c0.124-0.136,0.133-0.426,0.231-0.547c0.649-0.796,1.848-0.653,2.566-1.409
			c0.575-0.605,1.271-1.409,2.073-2.103c0.221-0.192,0.681-0.304,1.032-0.448c0.72-0.294,1.372-1.131,2.089-1.41l0.42-0.063
			c0.262-0.163,0.627-0.769,0.979-0.914c0.137-0.058,0.585-0.095,0.707-0.144c0.714-0.286,1.373-1.111,2.299-1.44
			c1.29-0.461,2.438-1.523,3.83-2.002c0.91-0.312,2.103-0.693,3.042-1.004c0.262-0.197,0.522-0.395,0.785-0.593
			c0.449-0.18,1.057-0.455,1.607-0.606c0.623-0.172,1.31-0.403,2.009-0.557c0.207-0.046,0.574,0.067,0.745,0.034
			c0.307-0.192,0.613-0.384,0.919-0.576c3.149-0.717,6.522-2.07,9.698-2.771c0.65-0.145,0.802-0.717,1.533-0.961
			c0.848-0.285,1.759-0.45,2.581-0.716c0.231-0.144,0.46-0.289,0.69-0.433c0.285,0.054,0.572,0.109,0.858,0.164
			c0.213-0.428,2.391-0.711,2.87-0.796c1.315-0.237,2.37-0.114,3.611-0.359c1.284-0.253,2.476-0.621,3.729-0.633
			c0.156-0.002,0.224,0.127,0.381,0.163c0.293,0.064,0.867-0.006,1.167-0.029c0.056,0.064,0.113,0.129,0.171,0.194
			c1.146-0.606,2.398-0.303,3.478-0.376c0.408-0.027,0.731-0.201,1.128-0.206c1.342-0.017,2.769,0.356,4.106,0.335
			c0.737-0.012,1.493-0.167,2.177,0.038c0.637,0.19,1.075,0.656,1.697,0.843c1.173,0.352,4.69,0.809,5.9,0.613
			c0.377-0.06,0.489-0.312,0.823-0.415c-0.068-0.284-0.157-0.505-0.494-0.694c0.592-0.148,0.897,0.23,1.433,0.407
			c0.488,0.162,1.104,0.149,1.584,0.311c0.653,0.22,1.105,0.721,1.754,0.908c0.552,0.157,1.27-0.114,1.833,0.053
			c0.443,0.131,0.725,0.533,1.183,0.664c0.344-0.016,0.688-0.031,1.031-0.045c0.38,0.296,0.762,0.592,1.143,0.889
			c1.555,0.776,3.412,1.659,4.88,2.559c0.646,0.397,0.719,0.959,1.199,1.356c0.291,0.242,0.789,0.337,1.01,0.471
			c0.264,0.159,0.307,0.673,0.396,0.854c0.152,0.172,0.305,0.344,0.457,0.516c0.234,0.527,0.787,2.112,1.461,2.597
			c0.619,0.446,1.096,0.993,1.807,1.374c0.223,0.027,0.445,0.055,0.67,0.083c0.697,0.292,2.838,1.678,3.217,2.296
			c0.145,0.477,0.289,0.954,0.434,1.434c1.219,1.364,1.748,3.197,2.406,4.611c0.24,0.52,0.832,0.887,1.084,1.227
			c-0.17,0.214-0.461,0.481-0.596,0.674c0.314,0.562,0.277,0.97,0.434,1.434c0.225,0.674,0.744,1.277,0.756,1.935
			c0.004,0.238-0.346,0.757-0.445,0.979c2.773,3.685,2.871,7.568,3.447,11.184c-0.127,0.08-0.254,0.16-0.383,0.241
			c0.277,0.411,0.797,1.229,0.873,1.66c0.049,0.274-0.385,0.64-0.367,0.933c0.148,0.439,0.303,0.881,0.453,1.322
			c-0.008,0.1-0.193,0.213-0.193,0.321c0,0.25,0.166,0.46,0.148,0.708c-0.049,0.032-0.102,0.065-0.152,0.096
			c-0.014,0.44,0.336,0.804,0.396,1.258c-0.053,0.165-0.104,0.333-0.154,0.498c0.062,0.632,0.037,1.308,0.145,1.917
			c0.209,0.37,0.416,0.741,0.625,1.112c-0.039,0.226-0.078,0.45-0.117,0.676c0.055,0.564,0.328,1.047,0.336,1.595
			c-0.051,0.165-0.105,0.332-0.156,0.498c0.033,0.221,0.252,0.339,0.248,0.548c-0.086,0.22-0.168,0.439-0.252,0.659
			c0.037,0.776,0.295,1.462,0.295,2.224C440.375,232.031,440.301,232.443,440.227,232.856z M431.607,256.125
			c-0.43,0.257-0.664,0.448-0.805,0.705c0.318,0.389,0.41,0.54,0.74,0.839c0.225-0.027,0.467-0.047,0.689-0.029
			c0.961-0.571,0.354-1.061-0.262-1.643C431.777,256.093,431.742,256.12,431.607,256.125z M426.719,268.923
			c0.02,0.113,0.033,0.186,0.018,0.29c0.24,0.182,0.482,0.367,0.723,0.549c0.168-0.041,0.086-0.034,0.211-0.031
			c1.018-0.613,0.5-0.549,0.809-1.108c-0.078-0.086-0.154-0.172-0.23-0.258C427.764,268.552,427.234,268.54,426.719,268.923z
			 M425.086,270.851c-0.582,0.226-0.871,1.166-0.102,1.368c0.26,0.136,0.338,0.068,0.592,0.13c0.434-0.245,0.68-0.281,0.787-0.594
			c0.055-0.256-0.207-0.539-0.398-0.853C425.699,270.865,425.371,270.74,425.086,270.851z M422.359,269.65
			c0.002-0.233-0.174-0.476-0.417-0.741c-0.37,0.176-0.78,0.381-1.207,0.656c-0.021,0.162-0.083,0.343-0.154,0.498
			c0.492,0.545,0.737,0.374,1.297,0.391c0.165-0.126,0.204-0.149,0.249-0.257C422.451,269.958,422.475,269.939,422.359,269.65z
			 M422.836,274.37c-0.291,0.192-0.377,0.258-0.424,0.464c-0.115,0.177-0.066,0.214-0.135,0.386c0.133,0.178,0.16,0.24,0.207,0.371
			c0.092,0.012,0.18,0.022,0.27,0.033c0.211-0.128,0.354-0.217,0.516-0.223c0.516-0.312,0.604-0.456,0.748-0.771
			c-0.094-0.108-0.189-0.215-0.283-0.323C423.459,274.331,423.113,274.381,422.836,274.37z M420.341,280.849
			c-0.311-0.039-0.623-0.078-0.936-0.117c-0.319,0.218-0.42,0.348-0.574,0.563c0.083,0.186,0.344,0.713,0.358,1.08
			c0.597,0.51,1.062,0.383,1.68,0.552c0.437-0.381,0.297-0.692,0.462-1.094c-0.096-0.107-0.191-0.215-0.285-0.323
			C420.532,281.456,420.745,281.092,420.341,280.849z M416.79,280.87c-0.424,0.222-0.763,0.325-0.9,0.464
			c-0.392,0.333-0.354,0.572-0.5,0.916c0.348,0.239,0.612,0.259,0.935,0.519c0.592-0.2,1.165-0.39,1.321-0.93
			c0.119-0.335-0.087-0.458-0.283-0.726C417.145,281.084,416.99,281.013,416.79,280.87z M408.143,274.452
			c0.17-0.041,0.086-0.035,0.211-0.032c0.566-0.35,0.581-0.551,0.443-0.98c-0.34-0.072-0.78-0.312-1.087-0.421
			c-0.572,0.379-0.35,0.517-0.5,0.916C407.572,274.116,407.785,274.076,408.143,274.452z M412.256,282.208
			c-0.449,0.27-0.627,0.417-0.672,0.724c-0.017,0.226,0.229,0.553,0.569,0.645c0.877,0.5,1.252-0.426,1.457-0.913
			c-0.09-0.144-0.178-0.289-0.267-0.435C413.004,282.217,412.596,282.253,412.256,282.208z M409.511,289.751
			c0.099-0.18,0.053-0.332,0.021-0.517c-0.119-0.037-0.201-0.209-0.362-0.274c-0.464-0.188-2.418,0.503-2.966,0.956
			c0.042,0.212,0.059,0.319-0.021,0.516c0.314,0.429,0.409,0.585,0.915,0.631C407.828,291.115,409.301,290.429,409.511,289.751z
			 M409.569,293.727c0.046,0.006,0.09,0.011,0.135,0.017c0.55-0.303,1.051-0.515,1.322-0.929c-0.107-0.338-0.231-0.45-0.418-0.743
			c-0.178-0.021-0.356-0.044-0.534-0.067c-0.273,0.151-0.42,0.214-0.651,0.208C408.735,292.679,409.055,293.277,409.569,293.727z
			 M399.168,286.804c-0.218-0.029-0.35-0.197-0.572-0.243c-0.178-0.036-0.362,0.087-0.555,0.046
			c-0.629,0.413-0.388,0.591-0.521,1.029c0.157,0.176,0.265,0.294,0.419,0.339c0.242,0.224,0.272,0.204,0.496,0.292
			c0.192-0.07,0.328-0.117,0.498-0.111c0.493-0.277,0.757-0.413,0.614-0.786C399.541,287.206,399.352,286.998,399.168,286.804z
			 M401.011,297.789c-0.389,0.141-0.569,0.163-0.67,0.321c-0.367,0.337-0.241,0.63-0.31,0.996c0.387,0.435,0.562,0.426,0.913,0.631
			c0.402-0.182,0.837-0.342,0.941-0.689c0.206-0.268,0.167-0.551-0.055-0.87C401.577,298.114,401.234,297.897,401.011,297.789z
			 M393.675,302.29c-0.02,0.112-0.039,0.224-0.06,0.338c0.498,0.591,1.676,0.558,1.874-0.171c0.154-0.189,0.126-0.252,0.212-0.435
			l-0.17-0.194C394.999,301.742,393.936,301.398,393.675,302.29z M390.289,303.312c-0.197,0.086-0.396,0.179-0.593,0.27
			c-0.03,0.22-0.111,0.514-0.194,0.723c0.283,0.246,0.561,0.393,0.877,0.453c0.12,0.006,0.294-0.037,0.421-0.062
			c-0.014-0.258,0.071-0.544,0.271-0.771c-0.107-0.167-0.215-0.334-0.321-0.5C390.591,303.409,390.436,303.361,390.289,303.312z
			 M393.419,308.471c-0.297-0.162-0.432-0.078-0.727-0.146c-0.524,0.382-0.631,0.707-0.807,1.107
			c0.392,0.404,0.542,0.42,1.048,0.646c0.207-0.066,0.244-0.077,0.42-0.061c0.721-0.438,0.724-0.893,0.389-1.448
			C393.646,308.551,393.515,308.488,393.419,308.471z M389.192,309.616c-0.503,0.593-0.578,1.092-0.313,1.804
			c-0.461,0.2-1.347,0.271-1.531,0.558c-0.75,0.569-0.068,1.343-0.142,1.997c0.418,0.32,1,0.419,1.469,0.584
			c0.197-0.092,0.396-0.184,0.593-0.272c-0.058-0.065-0.114-0.13-0.172-0.194c0.122-0.678-0.107-1.52,0.239-2.154
			c0.135-0.249,0.562-0.195,0.843-0.529c0.303-0.364,0.389-0.966,0.713-1.351c-0.524-0.482-0.892-0.233-1.412-0.52
			C389.299,309.61,389.317,309.613,389.192,309.616z M386.999,317.516c-0.035-0.604,0.78-0.626,0.332-1.512
			c-0.132-0.041-0.246-0.281-0.419-0.341c-0.206-0.07-0.596,0.04-0.821,0.015c-0.575,0.314-1.049,1.064-0.482,1.207
			c0.359,0.379,0.666,0.447,1.087,0.419c0.03,0.452-0.794,0.565-0.979,0.915c-0.26,0.257-0.22,0.561-0.08,0.854
			c0.08,0.238,0.678,0.438,1.047,0.646c0.408-0.223,1.831-0.751,1.953-1.025c0.252-0.3,0.224-0.561,0.023-0.918
			C388.102,317.724,387.561,317.541,386.999,317.516z M370.056,299.143c0.538-0.335,0.673-0.531,0.902-0.867
			c-0.089-0.146-0.178-0.292-0.267-0.436c-0.28-0.023-0.596-0.02-0.878-0.051c-0.57,0.391-0.369,0.607-0.387,1.046
			C369.72,299.104,369.77,299.047,370.056,299.143z M382.319,317.34c-0.614,0.365-0.831,1.432,0.05,1.674
			c0.139,0.092,0.927-0.08,1.071-0.271c0.273-0.246,0.262-0.391,0.386-0.641c-0.19-0.216-0.381-0.432-0.571-0.646
			C382.942,317.416,382.63,317.378,382.319,317.34z M380.338,320.488c-0.332-0.072-0.635,0.109-0.977,0.109
			c-0.197,0.16-0.293,0.25-0.345,0.418c-0.162,0.436,0.286,0.728,0.338,1.192c0.22,0.132,0.353,0.147,0.574,0.243
			c0.521-0.186,1.075-0.352,1.168-0.832c0.164-0.254,0.092-0.471-0.071-0.756C380.721,320.809,380.466,320.535,380.338,320.488z
			 M377.74,320.514c0.292,0.167,0.542,0.158,0.878,0.049c0.412-0.014,0.663-0.279,0.977-0.51c-0.513-0.609-1.188-1.292-2.021-0.942
			C376.644,319.217,376.949,320.346,377.74,320.514z M369.372,311.712c0.218-0.222,0.127-0.219,0.212-0.433
			c-0.133-0.15-0.267-0.301-0.399-0.453c-0.211-0.002-0.397-0.059-0.591-0.13c-0.274,0.126-0.612,0.207-0.671,0.319
			c-0.603,0.438-0.282,0.767,0.205,1.176C368.468,312.143,369.21,312.086,369.372,311.712z M379.503,323.721
			c-0.447-0.055-0.894-0.109-1.338-0.163c-0.55,0.36-0.537,0.784-0.217,1.238c-0.157,0.132-0.163,0.148-0.248,0.256
			c-0.046-0.007-0.091-0.011-0.135-0.017c-0.346-0.507-0.578-1.026-1.196-1.355c-0.31,0.104-0.771,0.156-0.9,0.465
			c-0.132,0.176-0.059,0.146-0.192,0.32c0.283,0.359,0.378,0.438,0.741,0.839c0.312,0.009,0.561,0.038,0.858,0.164
			c0.024-0.017,0.051-0.032,0.077-0.047c-0.062,0.322-0.13,0.565-0.158,0.9c0.387,0.374,0.541,0.277,0.915,0.63
			c1.037-0.219,1.724-0.148,2.676-0.071c0.763-0.693-0.52-1.018-0.643-1.807C379.662,324.545,380.12,324.398,379.503,323.721z
			 M372.387,321.059c-0.594,0.209-1.465,0.569-1.629,1.121c-0.105,0.19-0.021,0.266-0.078,0.453c0.616,0.664,1.204,0.021,1.91,0.004
			c0.803-0.465,0.774-0.797,0.446-1.381C372.833,321.217,372.573,321.123,372.387,321.059z M375.63,326.752
			c-0.276,0.139-0.551,0.276-0.824,0.417c0.006,0.097,0.012,0.191,0.018,0.289c-0.312,0.388-0.777,0.108-0.977,0.513
			c-0.286,0.412,0.136,1,0.09,1.448c0.443,0.495,0.771,0.491,1.277,0.503c0.992,0.021,1.08-0.893,1.382-1.267
			c0.14-0.174,0.344-0.206,0.401-0.354c0.085-0.232-0.031-0.34-0.034-0.578c0.071-0.25,0.312-0.431,0.498-0.514
			c-0.048-0.131-0.072-0.194-0.209-0.373C376.867,327.023,375.981,326.848,375.63,326.752z M371.787,327.658
			c0.98-0.769,0.35-1.172,0.353-2.029c-0.366-0.338-0.583-0.302-0.934-0.518c-0.951,0.608-0.685,1.111-1.06,1.77
			c0.108,0.184,0.458,0.609,0.475,0.806c0.15,0.461-0.265,0.465-0.424,0.87c-0.096,0.242,0.104,0.609,0.054,0.869
			c-0.122,0.344-0.844,0.976-1.172,1.233c0.223,0.349,0.45,0.767,0.876,0.856c0.221,0.027,0.443,0.056,0.668,0.082
			c0.611-0.391,0.681-0.686,0.998-1.027c0.452-0.486,1.179-0.79,1.342-1.041c0.046-0.132,0.091-0.258,0.135-0.388
			c-0.271-0.317-0.342-0.589-0.474-0.805C372.345,328.109,372.065,327.884,371.787,327.658z M360.884,317.338
			c-0.015-0.158-0.253-0.445-0.552-0.76c-0.119-0.029-0.042,0.001-0.189-0.081c-0.756,0.425-0.812,0.835-1.46,1.316
			c0.05,0.143,0.042,0.072,0.038,0.179c0.432,0.427,0.91,0.473,1.393,0.63c0.169-0.042,0.086-0.034,0.211-0.03
			C360.833,318.236,361.06,317.773,360.884,317.338z M368.134,328.241c-0.271,0.054-0.636,0.105-0.747,0.371
			c-0.264,0.275-0.154,0.481-0.271,0.771c0.127,0.188,0.253,0.375,0.381,0.564c-1.853,0.79-1.133,0.479-1.347,1.848
			c0.392,0.444,0.472,0.356,0.876,0.451c0.818-0.555,0.974-0.986,1.23-1.572c-0.107-0.167-0.216-0.334-0.322-0.502
			c0.399-0.209,0.993-0.328,1.13-0.605c0.057-0.07,0.114-0.141,0.173-0.211C368.927,328.787,368.667,328.483,368.134,328.241z
			 M343.294,307.4c0.729,0.013,1.151-0.674,0.882-1.159c-0.278-0.034-0.655-0.142-0.915-0.228c-0.29,0.1-0.559,0.109-0.67,0.318
			c-0.402,0.309-0.294,0.438-0.404,0.757C342.544,307.414,342.858,307.525,343.294,307.4z M363.573,331.706
			c0.456-0.29,0.463-0.388,0.595-0.675c-0.139-0.247-0.277-0.494-0.417-0.744c-0.554-0.06-1.221,0.026-1.758-0.102
			c-0.427,0.321-0.718,1.062-1.418,1.092c-0.107,0.215-0.104,0.04,0.018,0.29c0.204-0.128,0.41-0.255,0.614-0.386
			c0.211,0.211,0.327,0.309,0.552,0.357C362.384,332.186,362.858,331.71,363.573,331.706z M363.97,332.562
			c-0.203,0.025-0.29,0.042-0.478-0.003c-0.803,0.502-1.28,1.055-1.517,1.654c-0.21,0.204-0.223,1.084-0.103,1.367
			c0.093,0.427,0.83,0.51,1.183,0.663c0.912-0.587,1.8-2.521,1.657-3.247C364.468,332.938,364.177,332.749,363.97,332.562z
			 M358.37,332.961c-0.27-0.142-0.585-0.12-0.896-0.342c-0.229,0.092-0.396,0.15-0.671,0.32c-0.078,0.639-0.21,1.217-0.255,1.866
			c0.075,0.087,0.152,0.173,0.228,0.259c0.351,0.082,0.698,0.164,1.049,0.244c0.482-0.004,0.931-0.226,1.396-0.172
			c0.188-0.129,0.276-0.186,0.327-0.305c0.319-0.41,0.057-0.715-0.092-1.047C358.831,333.764,358.91,333.244,358.37,332.961z
			 M348.745,327.859c0.246-0.056,0.558-0.191,0.651-0.207c0.678-0.379,0.765-0.471,0.578-0.963c-0.13-0.037-0.158-0.07-0.307-0.211
			c-0.204-0.026-0.458-0.123-0.647-0.195c-0.457,0.235-0.71,0.178-0.845,0.527c-0.253,0.264-0.128,0.345-0.174,0.613
			C348.313,327.745,348.433,327.75,348.745,327.859z M353.437,333.848c-0.206,0.133-0.349,0.223-0.402,0.352
			c-0.195,0.246-0.146,0.412-0.25,0.66c0.16,0.2,0.101,0.216,0.227,0.258c0.489,0.445,0.798,0.177,1.317,0.279
			c0.676-0.403,0.695-0.772,0.426-1.271C354.243,333.988,353.935,333.92,353.437,333.848z M341.969,322.076
			c-0.202-0.037-0.463-0.131-0.648-0.195c-0.512,0.277-0.571,0.327-0.806,0.705c0.063,0.229,0.124,0.535,0.437,0.633
			c0.394,0.401,1.044,0.258,1.128-0.209c0.173-0.227,0.156-0.369,0.041-0.629C342.115,322.268,342.086,322.234,341.969,322.076z
			 M352.373,337.225c-0.603,0.345-0.968,1.302-0.198,1.527c0.326,0.182,0.471,0.069,0.802,0.1c0.591-0.479,0.473-0.885,0.255-1.461
			C352.966,337.362,352.623,337.294,352.373,337.225z M348.398,337.309c-1.63,0.634-0.637,1.225-0.583,2.172
			c0.686,0.748,1.138,0.434,1.87,0.634c0.495-0.319,0.668-0.554,1.034-0.849C349.981,338.373,349.314,337.701,348.398,337.309z
			 M346.267,335.033c0.118-0.197,0.017-0.189,0.136-0.386c-0.075-0.087-0.151-0.173-0.228-0.257
			c-0.343-0.112-0.574-0.479-0.914-0.633c-0.395-0.184-1.444-0.236-1.891-0.119c-0.556,0.025-0.717,0.557-0.825,0.819
			c0.805,0.909,1.803,0.954,2.555,1.407C345.622,335.623,346.122,335.438,346.267,335.033z M326.153,312.93
			c-0.204,0.275-0.108,0.502-0.139,0.791c0.507,0.405,0.956,0.057,1.225-0.366c-0.064-0.221-0.104-0.362-0.303-0.612
			C326.644,312.713,326.312,312.59,326.153,312.93z M344.832,340.147c-0.152,0.095-0.307,0.194-0.46,0.29
			c-0.058,0.354-0.185,0.576-0.099,0.963c-0.007,0.037-0.013,0.076-0.02,0.115c0.024-0.018,0.051-0.033,0.077-0.05
			c0.435,0.521,0.81,0.632,1.354,0.456c0.019,0.02,0.039,0.041,0.057,0.063c0.91-0.513,0.821-0.976,0.218-1.642
			C345.566,340.272,345.218,340.208,344.832,340.147z M338.113,334.428c-0.114-0.129-0.228-0.26-0.342-0.387
			c-0.2-0.008-0.33-0.169-0.515-0.179c-0.243-0.015-0.318,0.101-0.554,0.045c-0.425,0.424-0.396,0.716-0.541,1.143
			c0.471,0.493,0.819,0.528,1.314,0.68c0.228-0.139,0.422-0.259,0.48-0.399C338.277,334.993,338.028,334.773,338.113,334.428z
			 M333.03,330.291c-0.209-0.098-0.255-0.059-0.458-0.115c-0.444,0.338-0.351,0.523-0.69,0.836c0.082,0.184,0.162,0.365,0.246,0.549
			c0.367,0.051,0.521,0.227,0.935,0.117c0.652-0.098,0.489-0.992,0.292-1.291C333.256,330.371,333.125,330.307,333.03,330.291z
			 M338.785,338.423c-0.249-0.097-0.492-0.028-0.767,0.079c-0.058,0.201-0.115,0.406-0.173,0.609
			c0.026,0.203,0.192,0.308,0.189,0.484c0.496,0.39,1.021,0.381,1.543,0.537c0.191-0.098,0.228-0.124,0.364-0.131
			c0.245-0.219,0.172-0.246,0.422-0.465c-0.148-0.248-0.283-0.359-0.38-0.562C339.502,338.829,339.29,338.423,338.785,338.423z
			 M322.338,328.969c0.439-0.301,0.458-0.474,0.614-0.785c-0.076-0.088-0.152-0.173-0.229-0.26c-0.454-0.141-0.448-0.406-0.992-0.18
			c-0.203,0.025-0.592,0.387-0.652,0.61c-0.021,0.112-0.039,0.228-0.06,0.339c0.147,0.112,0.129,0.111,0.249,0.146
			C321.66,329.061,321.928,328.932,322.338,328.969z M331.164,337.884c-0.602-0.077-0.876-0.286-1.567-0.021
			c-0.052,0.298-0.104,0.6-0.156,0.9c0.357,0.295,0.69,0.364,1.067,0.535c0.46-0.096,0.76-0.25,1.11-0.496
			c-0.019-0.021-0.039-0.042-0.057-0.063C331.583,338.457,331.457,338.204,331.164,337.884z M321.87,339.898
			c0.783,0.863,1.487,0.357,2.387,0.411c0.328-0.246,0.362-0.379,0.518-0.627c-0.106-0.167-0.213-0.334-0.323-0.501
			c-0.657-0.021-1.438-0.125-2.06-0.312C321.865,339.244,322.038,339.496,321.87,339.898z M324.059,341.838
			c-0.201-0.012-0.125,0.016-0.325-0.098c-0.589,0.295-1.087,0.351-1.684,0.656c0.286,0.318,0.95,1.024,0.97,1.098
			c0.263,0.184,0.26,0.105,0.516,0.178c0.616-0.378,1.062-0.589,1.531-0.963C324.657,342.368,324.306,342.248,324.059,341.838z
			 M324.529,343.449c-0.164,0.125-0.204,0.146-0.249,0.257c-0.261,0.334-0.041,0.563-0.158,0.902
			c0.45,0.437,0.792,0.472,1.259,0.614c0.471-0.328,0.408-0.508,0.558-0.85c-0.145-0.317-0.13-0.512-0.396-0.854
			C325.24,343.516,324.835,343.485,324.529,343.449z M317.952,340.45c0.461-0.341,0.434-0.708,0.195-1.124
			c-0.331-0.061-0.661-0.123-0.993-0.18c-0.405,0.303-0.419,0.695-0.253,1.06C317.25,340.288,317.601,340.369,317.952,340.45z
			 M317.621,341.56c0.769,0.888,0.656,0.645,1.448,1.101c0.728-0.467,0.362-0.747,0.559-1.255c-0.164-0.231-0.33-0.462-0.494-0.692
			c-0.309-0.062-0.692-0.203-0.972-0.293C317.772,340.796,317.892,341.212,317.621,341.56z M323.6,346.04
			c-0.724-0.504-0.986,0.38-1.701,0.362c-0.121-0.059-0.294-0.494-0.283-0.725c-0.394-0.395-0.613-0.354-0.991-0.583
			c-0.44,0.144-0.926,0.194-0.863,0.642c-0.958,0.521-1.284-0.252-2.081-0.199c-0.454,0.031-0.761,0.19-1.185,0.139
			c-0.9,0.547-0.802,0.746-0.979,1.318c0.462,0.629,0.631,0.597,1.315,0.682c0.32-0.232,0.333-0.574,0.594-0.674
			c0.123-0.047,0.285,0.061,0.557-0.049c0.227,0.193,0.646,0.23,0.778,0.614c0.104,0.306-0.128,0.94,0.55,1.161
			c0.377,0.408,0.492,0.34,0.876,0.455c0.917-0.565,0.634-1.049,0.506-1.723c0.401-0.277,0.514-0.467,0.899-0.463
			c0.069-0.012,0.139-0.021,0.21-0.03c0.181,0.194,0.37,0.399,0.379,0.563c0.306,0.235,0.341,0.15,0.649,0.196
			c0.71-0.513,0.86-0.943,1.075-1.479C323.755,346.11,323.729,346.074,323.6,346.04z M310.422,331.928
			c-0.648,0.117-0.96,0.49-1.188,0.945c0.189,0.168,0.295,0.25,0.495,0.292c0.231,0.104,0.357,0.065,0.591,0.131
			c0.188-0.131,0.276-0.187,0.326-0.306c0.226-0.276,0.189-0.598,0.023-0.916C310.55,332.039,310.569,332.043,310.422,331.928z
			 M303.222,327.012c-0.105,0.188-0.022,0.264-0.077,0.449c0.255,0.266,0.363,0.308,0.609,0.421
			c0.593-0.132,1.103-0.681,1.512-0.847c0.004-0.303,0.111-0.409-0.073-0.76C304.544,326.243,303.474,326.136,303.222,327.012z
			 M308.307,339.776c-0.153-0.171-0.305-0.345-0.457-0.517c-0.236-0.001-0.506-0.072-0.726-0.146
			c-0.727,0.308-1.338,1.34-0.983,2.123c0.009,0.276,0.337,0.502,0.589,0.533C307.397,341.624,307.842,340.318,308.307,339.776z
			 M311.608,344.729c-0.224,0.139-0.421,0.26-0.479,0.403c-0.181,0.231-0.263,0.628-0.157,0.899c0.017,0.083,0.116,0.27,0.344,0.389
			c0.829,0.426,1.088-0.888,1.38-1.27c-0.088-0.145-0.177-0.288-0.266-0.434C312.179,344.729,311.867,344.744,311.608,344.729z
			 M307.37,344.378c-0.318,0.362-0.43,0.715-0.598,1.077c0.172,0.205,0.349,0.413,0.534,0.467c0.231,0.107,0.357,0.066,0.591,0.132
			c0.686-0.458,0.875-1.226,0.523-1.836C308.099,344.326,307.688,344.391,307.37,344.378z M296.204,337.535
			c-0.059,0.328-0.229,0.737-0.386,1.045c0.402,0.332,1.426,0.368,1.548-0.27c0.211-0.384-0.204-0.741-0.568-1.047
			C296.599,337.353,296.401,337.444,296.204,337.535z"/>
	</g>
</g>
</svg>
