<?xml version="1.0" encoding="utf-8"?>
<!-- Generator: Adobe Illustrator 21.0.0, SVG Export Plug-In . SVG Version: 6.00 Build 0)  -->
<svg version="1.1" id="Calque_1" xmlns="http://www.w3.org/2000/svg" xmlns:xlink="http://www.w3.org/1999/xlink" x="0px" y="0px"
	 viewBox="0 0 841 595" style="enable-background:new 0 0 841 595;" xml:space="preserve">
<style type="text/css">
	.st0{fill:#DADADA;}
	.st1{fill:#FFFFFF;}
	.st2{fill:#1D1D1B;}
</style>
<ellipse class="st0" cx="406.8" cy="418.9" rx="43.3" ry="8.9"/>
<path class="st1" d="M377.4,411c0,0,9.3,5.7,13.6,6.8c-1.8-3.4-2.4-5.3-0.6-5.7c1.8-0.4,9.5-1.2,9.5-1.2l-4.2-5.5
	c0,0,13.3-1.4,16.1,0.1c2.8,1.4,2.4,5.5,2.4,5.5s0.7,2.4,1.2,1.6c0.5-0.8,1-4.1,4.8-5.1"/>
<g>
	<g>
		<path class="st2" d="M509.3,248.4H509c-0.1-0.1-0.1-0.2-0.2-0.3c-0.2-0.3-0.8-0.6-1-0.8c-0.3-0.2-0.5-0.3-0.8-0.5h-0.2
			c-0.1-0.1-0.1-0.3-0.2-0.4c-0.3-0.2-0.7-0.5-1-0.6c-0.6-0.3-1.2-0.4-1.7-0.8c-0.3-0.2-0.6-0.7-1-0.9c-0.3-0.2-0.5-0.1-0.7-0.2
			c-0.2-0.2-0.3-0.4-0.5-0.6c-0.1,0-0.3-0.1-0.4-0.1c-0.1-0.1-0.1-0.3-0.2-0.4c-0.3-0.2-0.7-0.3-1-0.6c-1-0.9-1.8-2.1-2.7-3
			c-0.3-0.3-0.7-0.5-1-0.9c-0.1-0.2-0.2-0.5-0.4-0.6c-0.1,0-0.3-0.1-0.4-0.1c-0.2-0.2-0.3-0.5-0.5-0.7c-0.3-0.4-0.8-0.7-1-1.2
			c-0.1-0.1,0-0.1-0.1-0.2h-0.2c-0.1-0.5-0.3-0.4-0.5-0.6c-0.3-0.4-0.4-0.9-0.7-1.3c-0.3-0.3-1.2-1-1.4-1.4v-0.9
			c-0.1-0.5-0.5-0.9-0.7-1.4c0-0.1,0.1-0.4,0.1-0.6c-0.1-0.2-0.4-0.5-0.5-0.7c-0.3-0.7-0.2-1.2-0.5-1.8c-0.1-0.2-0.4-0.4-0.5-0.6
			c-0.3-0.5-0.3-1-0.6-1.5l-0.4-0.4c-0.4-0.7-0.3-1.4-0.7-2.1c-0.2-0.4-0.6-0.8-0.8-1.2c-0.2-0.3-0.2-0.7-0.4-1
			c-0.1-0.1-0.5-0.2-0.5-0.2c-0.8-1.1-1.6-1.9-2.7-2.7c-0.6-0.5-1-1.3-1.8-1.7c-0.4-0.2-0.9-0.1-1.3-0.3c0-0.1-0.1-0.2-0.1-0.2
			c-0.3-0.2-0.6-0.1-0.9-0.2c-0.1,0-0.2-0.3-0.2-0.3c-0.3,0-0.5-0.1-0.8-0.1c-0.3-0.1-0.7-0.4-1.1-0.6c-0.1,0-0.3,0.1-0.4,0.1
			c-0.7-0.2-1.3-0.4-2.2-0.6c-0.2,0-0.5,0.1-0.7,0.1c-0.2,0-0.7-0.3-1.1-0.1c-0.2,0.1-0.4,0.3-0.6,0.4c-0.5,0.2-0.9,0-1.4,0.2
			c-1,0.4-2.2,0.9-3.1,1.4c-0.5,0.3-0.8,0.8-1.3,1.1c-0.6,0.5-1.3,0.8-1.9,1.2c-1,0.6-1.6,2-2.4,2.8c-0.1,0.1-0.1,0-0.2,0.1v0.2
			c-0.3,0.2-1.6,1.9-1.9,2.3c-0.1,0-0.2,0.1-0.2,0.1c-0.1,0.2-0.1,0.7-0.2,0.9c-0.3,0.5-0.8,0.9-1.1,1.4c-0.3,0.4-0.3,0.7-0.6,1.1
			c-0.1,0.2-0.7,0.5-0.8,0.7c-0.4,0.7-0.6,1.4-1,2.2c-0.7,1.2-1.5,2.5-2.2,3.8c-0.1,0.3-0.2,0.7-0.3,1c0,0.1-0.3,0.1-0.3,0.2
			c-0.2,0.4-0.1,0.8-0.4,1.2c-0.5,0.6-0.7,1.4-1.1,2.1c-0.1,0.1-0.2,0.1-0.2,0.2c-0.3,0.6-0.3,1.3-0.6,1.8c-0.2,0.4-0.8,1-1,1.4
			c-0.2,0.4,0,0.7-0.2,1c-0.1,0.2-0.4,0.3-0.5,0.5c-0.1,0.3-0.1,0.5-0.2,0.8c-0.4,0.8-0.6,1.5-1,2.4c-1.2,2.9-2.6,6.1-4,9.1
			c-1.2,2.8-2.1,5.7-3.4,8.2c-0.2,0.4-1.1,2.7-0.9,2.8c-0.2,0.8-0.9,1.7-1.4,2.3c-0.3,0.5-0.4,1.1-0.7,1.6c-0.2,0.3-0.6,0.6-0.8,1
			c-0.5,0.8-0.9,1.7-1.4,2.5c-0.1,0.2-0.5,0.4-0.6,0.6c0,0,0.1,0.2,0.1,0.3c-0.2,0.4-0.7,0.8-1,1.1c-0.4,0.5-0.6,1.1-1,1.7
			c-0.3,0.4-0.7,0.8-1,1.1c-0.1,0.2-0.1,0.3-0.2,0.5c-0.3,0.3-0.9,0.6-1.1,1v0.3c-0.1,0.1-0.2,0.1-0.3,0.2c-0.1,0.2-0.2,0.5-0.2,0.7
			c-0.1,0.1-0.3,0.2-0.4,0.2c-0.4,0.4-0.9,0.9-1.3,1.4c-1.2,1.3-2.3,2.4-3.8,3.4h-0.3c-0.5,0.2-1.2,0.7-1.7,0.9h-0.7
			c-0.3,0.1-0.9,0.2-1.3,0.4c-3,1.2-6.3,2.2-9.3,3.2c-0.6,0.2-1.1,0.1-1.7,0.3c-1.7,0.6-3.5,1.2-5.2,1.8c-0.3,0-0.6,0.1-0.9,0.1
			c-0.5,0.1-1.2,0.4-1.7,0.6c-0.7,0.3-1.2,0.1-1.9,0.3c-1.1,0.3-2.5,0.6-3.6,1h-0.6c-1.7,0.6-3.7,1.2-5.4,1.4c-0.3,0-0.7,0.4-1,0.5
			c-0.5,0.2-0.9,0.1-1.4,0.3c-0.1,0-0.3,0.3-0.4,0.3c-0.4,0.2-0.6,0-1,0.2c-1.3,0.5-2.9,1.1-4.2,1.7c-1.1,0.5-2.2,0.6-3.3,1
			c-3.4,1.3-6.8,2.7-9.8,4.5c-3.4,2-6.8,4.1-9.9,6.3c-1.8,1.3-3,2.7-4.7,4.1c-0.9,0.7-1.6,1.7-2.2,2.6c-0.4,0.6-1.1,1.1-1.6,1.7
			c-0.5,0.6-1.4,1.1-1.9,1.7c-0.4,0.5-0.8,1-1.1,1.5c-0.2,0.1-0.4,0.3-0.6,0.4c-0.6,0.8-1.1,1.7-1.8,2.3c-0.2,0.2-0.5,0.2-0.6,0.4
			c-0.1,0.1-0.1,0.3-0.2,0.5l-1,1c-0.2,0.3-0.3,0.6-0.5,0.9c-0.2,0.3-0.6,0.5-1,0.8c-0.4,0.3-0.7,0.9-1.2,1.3
			c-0.2,0.2-0.6,0.3-0.8,0.5c-0.3,0.3-0.4,0.7-0.7,0.9c-0.4,0.3-0.7,0.5-1,0.8c-0.3,0.3-0.5,0.7-0.8,0.9c-0.2,0.1-0.5,0.4-0.7,0.5
			c-0.2,0-0.4,0.1-0.6,0.1c-1.1,0.8-2.4,1.5-3.6,2.2c-0.3,0.2-0.7,0.2-1,0.4c-1,0.5-2.1,1.3-3.2,1.8c-0.4,0.1-0.6,0.1-1,0.2
			c-0.3,0.1-0.6,0.5-0.9,0.6c-1.9,0.9-3.8,1.7-5.7,2.5c-0.6,0.2-1,0.2-1.6,0.4c-0.8,0.3-1.8,0.8-2.6,1c-2.3,0.7-4.4,1-6.6,1.6
			l-1.2,0.1c-1.7,0.7-4,1-5.7,1.4c-1.5,0.3-3.7-0.3-4.1,1c-0.2,0.2-0.2,0.5,0,0.7c0.2,0.5,1.1,0.6,1.7,0.8c2.3,0.8,6.7,0.5,8.9,0.1
			c0.8-0.2,3.5,0,4-0.2h0.2v0.1c-1,0.5-2.4,1-3.7,1.4H309c-0.5,0.1-1.4,0.4-1.9,0.6c-0.5,0.1-0.8,0-1.3,0.2
			c-0.3,0.1-1.9,0.7-2.1,0.7c-1.1,0-2.6,0.5-3.5,1c-0.3,0-0.7,0.1-1,0.1c-0.8,0.3-1.8,0.5-2.5,0.7c-0.3,0-0.6,0.1-0.9,0.1
			c-0.3,0.1-0.9,0.3-1.3,0.5c-0.2,0.1-0.2,0.2-0.4,0.3c0,0.2,0,0.4,0.1,0.5c0.4,1,2.8,1,4.1,0.7c1.4-0.4,3-0.4,4.3-0.6
			c0.2,0,0.5,0.1,0.8,0.1c0.9-0.1,1.6-0.2,2.3-0.2c1.2,0.1,3.1-0.7,4-0.3h0.2c-0.2,0.4-0.9,0.4-1.4,0.6c-0.3,0.2-0.8,0.5-1,0.6
			c-0.6,0.3-1.1,0.2-1.7,0.5c-0.6,0.3-1.3,0.8-1.9,1c-0.5,0.1-0.9,0.2-1.4,0.3c-0.7,0.3-1.8,0.7-2.5,1c-0.2,0.1-0.4,0.4-0.6,0.6v0.2
			h-0.1c-0.1,0.1-0.3,0-0.5,0.1c-0.1,0.1-0.2,0.3-0.4,0.4c0,0.3,0,0.5,0.2,0.7v0.2c1.8,0.1,3.1-0.5,4.6-1c0.4,0,0.7-0.1,1.1-0.1
			c0.5-0.1,1.4-0.6,1.9-0.3c0.6,0,0.6,0.1,1,0.3c-0.8,1.2-2.6,1.7-3.3,3h-0.3v0.2c-0.8,0.4-1.4,1.3-2.2,1.8c0,0.5,0.2,0.6,0.4,0.9
			c1.6,0,2.6-0.9,3.8-1.4c0.5-0.1,1-0.2,1.4-0.3c0.2-0.1,0.6-0.4,0.9-0.5c0.1,0,0.3,0.1,0.6,0c0.9-0.4,1.8-1,2.7-1.4
			c0.6-0.2,1.8-0.2,2.2-0.3h3c0.6-0.1,2.1-0.2,2.6,0c0.5-0.1,1.5-0.2,1.8-0.1c0.2,0,0.5,0.2,1,0.2c0.5-0.1,1.9-0.1,2.5,0
			c0.3,0.1,0.5-0.1,0.7-0.1c0.1,0,0.6,0.2,0.7,0.2c1,0,2.3,0.1,3.3,0.4c0.9,0.2,1.7,0.1,2.5,0.3c0.4,0.1,1.1,0.3,1.5,0.5
			c0.6,0.2,1.2,0,1.8,0.2c0.7,0.3,1.7,0.7,2.4,1c0.7,0.3,1.5,0.2,2.3,0.5c0.4,0.1,0.7,0.4,1.2,0.6c0.5,0.1,1,0.2,1.4,0.2
			c0.8,0.3,1.9,0.8,2.8,1c0.3,0.1,0.4-0.1,0.7,0v0.2c0.2,0,0.3-0.1,0.5-0.1c1.1,0.2,2,0.8,3,1.2c0.6,0.2,1.3,0.3,1.8,0.4l0.4-0.1
			c1.1,0.4,2.5,0.8,3.5,1.1c0.7,0.2,1.2,0.2,1.8,0.3h1c1.7,0.5,3.6,0.9,5.3,1.4h1c1.1,0.3,2.6,0.4,3.6,0.7h0.6c1.1,0.3,2,0.2,3,0.4
			c0.3,0.1,0.6,0,0.8,0.1c0.7,0.1,0.3,1,0.6,1.5c0.1,0.2,0.3,0.5,0.4,0.6c0.2,0.6,0.1,0.9,0.5,1.4c0,0,0.2,2,0.3,2.4
			c0.4,1.8,0.5,4.2,0.9,5.7c0.1,0.5-0.2,1.1-0.1,1.5c0,0.2,0.2,0.7,0.2,0.9c0,0.3-0.1,0.6-0.1,0.9c0.1,0.3,0.2,1,0.2,1.4
			c0,0.9-0.3,2.1,0.2,3.3c-0.1,0.3-0.1,0.9,0,1.3c0.1,0.5-0.1,1-0.1,1.4c0.1,0.3,0.1,0.7,0.2,1c-0.1,0.6-0.2,1.6-0.1,2.5
			c-0.4,0.1-0.7,0.3-1.2,0.4c-0.7,0.2-1.5-0.1-2,0.2c-0.6,0-0.4,0.2-0.6,0.6c0,0.3,0,0.6,0.2,0.7c0.1,0.1,0.4,0.1,0.6,0.2
			c0.1,0.1,0.1,0.3,0.2,0.3h0.3c0.8,0.5,1.5,1.2,2.6,1.5c0,1.4-0.5,2.7-0.7,3.9c-0.1,0.3,0.2,0.1,0.2,0.4c-0.2,1.9-0.3,3,0.5,4.3
			c0,0.2,0.1,0.5,0.1,0.7c0.2,0.3,0.8,0.5,1,0.8c0.5,0.5,0.8,1.1,1.6,1.4v0.2h0.2v0.5c0.5,0.1,0.5,0.2,0.9,0.2v0.2
			c1.6,0.2,2.6,1.4,4.1,1.8v0.2h0.2v0.2c1.1-0.1,2.2,1.1,3.5,1.2v0.2c0.6,0.1,0.7,0.4,1.4,0.4v0.2c0.7,0.1,2.3,1,2.7,0.7
			c0.1,0.1,0,0.1,0.1,0.2c0.4,0,0.4,0.2,0.6,0.3c0.5,0.2,1-0.2,1.4-0.3c0.1-0.3,0-0.1,0.2-0.2c0-1-0.4-0.8-0.9-1.3
			c-0.5-0.4-1.2-1.5-1.3-2.3h-0.2v-0.1c-0.2-0.2-0.5-1.2-0.2-1.6c0.3-0.6,2.2-1,3-1.2h0.8c0.3-0.1,1.4-0.3,1.8-0.5h1.4
			c0.7,0,1.3-0.1,1.8-0.2c0.4-0.1,0.4,0.1,0.5,0.2c0.1,0,1.5,0,1.5,0c0.3-0.1,0.4-0.4,0.8-0.6c0-0.3,0-0.2,0-0.5
			c-0.3-0.2-0.6-0.6-0.9-0.8c-0.2-0.1-0.4-0.1-0.6-0.2c-1.1-1-2-2.2-3.3-3c0.2-1.5,1.2-1.7,2-2.7h0.3v-0.2c1.1-0.2,2.1-0.9,3.1-1.3
			c0.4-0.2,0.6,0.1,1,0c0.5-0.1,0.8-0.4,1.4-0.3c0.1-0.2,0.2-0.3,0.5-0.4c0-0.3,0.1-0.5,0-0.7c0-0.2,0-0.3-0.1-0.4
			c-0.5-0.3-0.8,0-1.3-0.1c-0.4-0.1-1-0.5-1.5-0.6c-0.3-0.1-0.8,0-1,0.1c-0.3,0-0.5-0.1-0.8-0.1c-0.5,0.1-1.6,0.3-2.2,0.2
			c-0.7-0.1-2.4-0.1-3.1-0.1c-0.3,0-0.5,0.1-0.6,0.1c0-0.1-0.1-0.1-0.1-0.2c-0.3-0.1-1,0.1-1.3,0c-0.3-0.1-0.9-0.3-1.3-0.3
			c-0.1,0-0.1,0.1-0.3,0.1c-0.6-0.2-1.5-0.5-2.1-0.7h-1v-0.2h-0.6c-0.4-0.1-0.8-0.2-1.1-0.4h-0.7c-0.5,0-1.5-0.1-1.9-0.4
			c-0.6,0-1.7,0.2-1.8-0.3c-0.1-0.2,0.1-0.7-0.1-1.2c-0.1-0.5-0.4-1.2-0.5-1.8c-0.1-0.4,0.1-0.9,0.1-1.3c-0.1-1.2,0.1-3.6-0.3-5.4
			c0-0.6,0.1-1.2,0.1-1.8c-0.5-1.9-0.5-4.9-0.1-6.4c0.2-0.9,0.1-2.1,0.3-2.7c0.2-0.5,0.3-1.4,0.5-1.8c0.1-0.1,0.2-0.2,0.3-0.3
			c0.2-0.4,0-0.5,0.2-1c0.3-0.6,0.9-1.2,1-1.9c1.1-0.1,2.8-0.1,3.8,0.2c0.2-0.2,1.4-0.1,1.8-0.2c0.7-0.1,2.2,0,3.4-0.2
			c0.3,0,1.2-0.2,1.6-0.1c0.1,0,0.5,0.1,0.8,0.1c0.4-0.1,1.2-0.2,1.5-0.2c0.2,0,0.4,0.1,0.6,0.1c2-0.5,4.7-0.4,6.6-1.1h0.7
			c0.7-0.2,1.7-0.3,2.2-0.6c0.4-0.2,0.9,0,1.1-0.1c0-0.1,0.1-0.1,0.1-0.2c0.4-0.2,0.7-0.1,1-0.2c0.2-0.1,0.8-0.1,0.9-0.1
			c0.2,0,0.7-0.3,0.8-0.2c0.3-0.1,0.9-0.5,1.1-0.3c0.5-0.1,1.7-0.6,1.8-0.5c0.2,0,0.3,0,0.4,0.1c0,1.2,0,2,0.1,2.7
			c-0.1,0.4-0.1,0.7-0.2,1.1c0.1,0,0.1,0.1,0.2,0.1c0.2,0.5-0.2,0.8-0.1,1.2c0.2,0.9,0.3,2.2,0.3,3c-0.1,2.5,0,5,0,6.9
			c0,2.2,0.7,4.7,0.5,6c-0.1,0.5,0.2,1.3,0,1.7c-0.1,0.7-0.9,0.6-1.4,0.8c-1.6,0.5-3.3,0.8-4.6,1.5c0,1.5,0.8,1.3,2,1.6
			c0.6,0.1,1.3,0.5,1.9,0.8c0.3,0.1,1,0,1.2,0.1c0.1,0.1,0.3,0.3,0.5,0.4c-0.1,0.4-0.3,0.9-0.4,1.2c0,0.3-0.1,0.6-0.1,1
			c-0.2,0.8-0.4,1.9-0.6,2.5c0,0.2,0.1,0.5,0.1,0.7c-0.1,0.3-0.2,0.8-0.2,1.1c-0.1,0.3,0.1,1.2,0.1,1.4c-0.2,1.8-0.5,4.1,0,5.8
			c-0.1,0.8-0.2,1.6-0.2,2.4c0.1,0.4,0.4,0.7,0.6,1c2.3-0.1,1.9-1.2,2.9-2.7c0.7-1,2.4-1.3,3.8-1.4c0.5-0.1,2.1,0.4,2.6,0.6h0.7
			c0.9,0.2,2,0.7,2.9,1c0.4,0.1,1.1,0,1.4,0.2c0,0,0.2,0.3,0.2,0.3c0.2,0,0.4-0.1,0.6-0.1c0.2,0,0.4,0.3,0.6,0.3
			c0.3,0,0.8-0.1,1.2,0.1c0.2,0.1,0.2,0.2,0.3,0.3c0.3,0.2,1.2,0.2,1.7,0.2c0.2-0.2,0.6-0.5,0.8-0.6c0-0.5,0-0.9-0.3-1.1
			c-0.1,0-0.2-0.1-0.2-0.1c-0.3-0.6-0.3-1.7-0.3-2.2c2.6-2.4,8.3-2.8,11.6-4.2c0.1,0,0.3,0.1,0.4,0.1c0.1,0,0.4-0.2,0.4-0.2
			c0.3-0.1,0.8,0.2,1,0.1c0.4-0.1,0.6-0.5,0.9-0.7c0-0.6-0.2-0.7-0.5-1c-0.2-0.1-1.7-0.5-2.1-0.5c0-0.2,0.1-0.3,0.1-0.5
			c-0.1,0-0.3,0.2-0.3,0.2c-0.6-0.5-0.8,0-1.4-0.4h-0.2V401c-0.2,0-0.3-0.1-0.4-0.2c-0.2,0-0.3,0.2-0.7,0c-0.1,0-0.3-0.4-0.4-0.4
			c-0.3-0.1-0.2,0.2-0.4,0.2c-0.3-0.1-1.1-0.2-1.4-0.3c-0.9-0.3-1.6-0.8-2.5-1.3c-0.4-0.3-0.9-0.2-1.3-0.5c-0.1,0-0.1-0.3-0.2-0.3
			c-0.2-0.2-0.5-0.2-0.8-0.3c-0.3-0.1-0.5-0.5-0.7-0.7c-0.2-0.2-0.6-0.1-0.9-0.2c-0.3-0.2-0.5-0.6-1-0.6c-0.2-0.8-1.4-1.5-2.1-1.9
			c-0.5-0.4-1.1-0.9-1.6-1.2h-0.2c-0.5-0.4-1-1-1.6-1.4c-0.6-0.3-1.5-0.6-1.8-1.1c-0.4-0.6-0.3-1.1-0.6-1.7
			c-0.1-0.3-0.4-0.8-0.6-1.1c0-0.2-0.1-0.4-0.1-0.6h-0.2c0-0.1-0.1-0.3-0.1-0.4h-0.2c0-0.3-0.1-0.6-0.1-1c-0.3-0.8-0.5-1.9-0.7-2.9
			c-0.1-0.2,0.1-0.6,0.1-0.7c-0.2-0.7-0.1-1.4-0.2-2.2l0.1-0.8c-0.7-2-1-6.3-0.7-8c0.1-0.4-0.1-0.6-0.1-0.9c0.2-1.2,0.2-2.6,0.7-3.2
			c-0.1-0.1-0.2-0.6-0.4-0.8c0.1-0.7,0.9-0.6,1.5-0.8c0.7-0.2,1.5-0.7,2.1-1c0.2,0,0.4-0.1,0.6-0.1c0.4-0.2,0.7-0.5,1-0.7
			c0.4-0.3,0.9-0.2,1.4-0.4c0.4-0.2,0.9-0.6,1.3-0.9c1.1-0.7,2.3-1.1,3.4-1.8c0.3-0.2,0.6-0.6,0.9-0.8c0.2-0.1,0.4,0,0.6-0.2v-0.2
			c0.2-0.2,0.7-0.6,1-0.8c0.2-0.1,0.5,0,0.6-0.2c0.1-0.1,0.1-0.3,0.2-0.3c0.2,0,0.3-0.1,0.5-0.1c0.1-0.1,0.1-0.3,0.2-0.4
			c0.4-0.3,0.7-0.5,1.1-0.7v-0.2c0.9-0.1,1.9-1.6,2.6-2.1c1.6-1.2,3-2.6,4.3-4.1c0.1-0.1,0.3,0,0.4-0.1c0.3-0.2,0.8-0.8,1-1
			c0.8-1.1,1.5-2.1,2.2-3.1c0.1-0.2,0.3-0.2,0.5-0.3c0.4-0.4,0.5-1,0.9-1.4c0.2-0.2,0.6-0.4,0.7-0.6v-0.2c0.1-0.1,0.3-0.1,0.3-0.2
			c0.1-0.2,0.2-0.5,0.2-0.7c0.1-0.1,0.3-0.3,0.4-0.5v-0.3c0.4-0.6,1-1.2,1.4-1.8c0.6-1,0.9-2,1.4-3.1c0.2-0.4,0.6-0.8,0.8-1.1
			c0-0.2,0.1-0.3,0.1-0.5c0.4-0.6,0.9-1.6,1.2-2.3c0.2-0.4,0.1-0.7,0.3-1.2c0.1-0.3,0.4-0.7,0.6-1c0-0.3,0.1-0.5,0.1-0.8
			c0.6-1.8,1.5-3.9,1.9-5.9c0.1-0.5,0.2-1.4,0.3-2c0-0.6-0.1-1.2-0.1-1.8c0.1-0.4,0-2.1-0.2-2.9c-0.1-0.2,0.1-0.6,0.1-0.7
			c0-0.6,0.1-2.5-0.2-3.5c-0.2-0.7-0.1-1.8-0.2-2.4c0-0.1-0.2-0.5-0.2-0.6c0-0.2,0.2-0.6,0.1-0.9c-0.1-0.5-0.4-1.4-0.4-1.8
			c0-0.9,0-1.7-0.2-2.6c-0.3-1.1,0.2-2.5-0.1-3.8c-0.1-0.6,0-1.5-0.1-1.7c-0.1-0.5-0.3-1.4-0.4-2.1c-0.1-0.6,0.2-1.2,0.2-1.7
			c-0.1-0.6-0.1-1.8,0.1-2.7c0-0.3-0.1-0.5-0.1-0.8c0.1-0.4,0.1-0.8,0.2-1.2c0.1-0.7-0.1-1.2,0-1.6c0.2-1.1,0.2-2.4,0.5-3.3
			c0.1-0.2-0.1-0.4-0.1-0.5c0.1-0.9,0.2-2,0.5-2.9v-0.8c0.6-2.3,1.2-4.6,2.2-6.6c0.1-0.1,0.3-0.3,0.4-0.4c0.4-0.8,0.6-1.6,1.1-2.3
			c0.2-0.3,0.5-0.6,0.7-0.9c0.3-0.6,0.4-1.2,0.8-1.8c0.2-0.3,0.6-0.8,0.8-1.2v-0.4c0.2-0.4,0.6-0.8,0.9-1.2c1-1.8,1.8-3.8,2.7-5.6
			c0.2-0.5,0.2-1,0.5-1.5c0.5-0.9,1.2-1.9,1.6-2.9c0.2-0.6,0.1-0.8,0.4-1.4c0.1-0.3,0.3-0.4,0.4-0.8c2.2,0,3.6-1.1,5-2.1
			c0.3-0.2,0.7-0.2,1.1-0.4c0.2-0.1,0.5-0.4,0.8-0.5h0.7c0.2-0.1,0.6-0.4,0.8-0.6c0.8-0.4,2.5-0.9,2.5-1.8c0.3,0.1,0.3,0.2,0.6,0.2
			c0.1,0.5,0.4,0.4,0.6,0.6c-0.1,0.2,0.3,0.5,0.5,0.7c0.5,0.7,1.3,1.2,1.8,2h0.4c0.1,0.6,1.1,1.1,1.6,1.2v0.2
			c0.8,0.2,1.3,1.1,1.8,1.6c0.1,0,0.2,0.1,0.3,0.1c0.5,0.4,1,0.9,1.5,1.3c0.2,0.1,0.5,0.2,0.7,0.2c0.4,0.3,0.7,0.7,1.4,0.8
			c0.1,0.4,1.9,1.3,2.4,1.4c0,0-0.1,0.1-0.1,0.1c0.2,0.4,1.1,0.6,1.7,0.6v0.2c0.8,0.1,0.9,0.4,1.4,0.6c0.2,0.1,1.2-0.1,1.5-0.1
			c0.4,0.1,1,0.2,1.4,0.3c0.3,0.1,0.8,0,1-0.1c0.1,0.1,2.7-0.7,3-1V261c0.2-0.3,0.5-0.5,0.7-0.8c0.2-0.3,0.6-0.7,0.7-1.2v-1.3
			c0.1-0.3,0.2-0.6,0-0.9c0.8-1,2-1.6,2.6-2.8c0-0.2,0.1-0.4,0.1-0.6C510.9,251.8,510.4,249.3,509.3,248.4z M423.6,286.9h0.2v0.1
			l-0.1,0.1h-0.2V286.9z M319.1,342.4L319.1,342.4c0.1-0.1,0.3-0.1,0.3-0.2h0.3c0,0.2-0.1,0.4-0.1,0.6c-0.3-0.1-0.3-0.1-0.6-0.2
			L319.1,342.4L319.1,342.4z M316.5,343.4c0.2-0.3,0.6-0.3,0.8-0.5h0.6c0.3,1.2,1.3,1.2,1.9,2c-0.2-0.1-0.7,0-0.9-0.1
			c-0.3-0.1-0.1-0.2-0.3-0.5C318.1,343.7,317.6,343.4,316.5,343.4z M318.9,355.8c-0.2-0.1-0.1,0-0.2-0.2h0.2V355.8z M319.2,357.6
			c-0.3,0-0.2,0-0.2-0.2C319.1,357.4,319.2,357.5,319.2,357.6L319.2,357.6z M319.5,352.1c-0.1,0-0.1-0.1-0.3-0.1v-0.2
			c-0.2,0-0.2,0-0.2-0.1c-0.1-0.2,0.1-0.3,0.1-0.6c0,0,0.1,0.1,0.1,0.1c0.3,0.2,0.2,0.5,0.4,0.8L319.5,352.1L319.5,352.1z
			 M319.6,355.8c0.1,0,0.1,0,0.2,0.1C319.7,355.8,319.7,355.9,319.6,355.8z M319.7,350h-0.3c0.1-0.3,0.1-0.3,0.2-0.6
			c0.1,0.1,0.2,0.3,0.2,0.5C319.7,349.9,319.8,349.8,319.7,350z M320.4,355.1c-0.1,0.1-0.1,0-0.2,0.1c-0.2-0.1-0.2-0.1-0.4-0.2v-0.2
			C320.1,354.9,320.1,355,320.4,355.1L320.4,355.1z M319.9,348.4C319.9,348.4,319.8,348.3,319.9,348.4L319.9,348.4
			c0.1-0.3,0.5-0.3,0.6-0.5h0.2c0,0.2,0.1,0.3,0.1,0.5C320.5,348.4,320,348.5,319.9,348.4z M322.9,359.2c-0.2,0-0.4,0-0.6,0.1
			c-0.2,0-0.4,0-0.6-0.1c-0.1-0.2,0.1-0.3,0-0.6c-0.1-0.3-0.4-0.6-0.6-0.8c0-0.9,0.3-0.4,0.8-0.6c0,0,0.2-0.3,0.3-0.3v-0.3h0.2
			c-0.1,0.3-0.3,0.8-0.5,1.1C322,358.3,322.4,358.8,322.9,359.2L322.9,359.2L322.9,359.2z M321.2,354.4v-0.2c0.2,0.1,0.6,0.8,0.7,1
			h0.2c0,0.2,0.1,0.3,0.1,0.3c-0.2,0.2-0.7-0.2-1-0.4C321.2,354.9,321.1,354.6,321.2,354.4z M322.8,353.5h-0.2
			c-0.5-0.7-0.9-2-1.6-2.5c0.1-0.5,0.5-0.5,0.8-0.7c0.2,0.3,0,0.6,0.2,1c0.2,0.6,0.8,1.4,1.5,1.5v0.1
			C323.2,353,322.9,353,322.8,353.5z M323.7,355.3h-0.2c0-0.3,0.1-0.4,0.2-0.6h0.2c0,0.2-0.1,0.3-0.2,0.4V355.3z M323.7,352.9h0.2
			c0,0,0.1,0.1,0.1,0.1v0.2C323.9,353,323.8,353,323.7,352.9z M323.9,359.1h0.3C324.1,359.2,324,359.2,323.9,359.1z M400.4,401.5
			c-0.1,0.1-0.1,0.1-0.2,0H400.4z M388.4,400.2v0.2l2.7,0.5c0.1,0,0.3,0.3,0.4,0.3c0.3,0.1,1.2-0.1,1.4,0c0.8,0.3,2.7,0.4,3.8,0.3
			c0.8-0.1,2.4,0.3,3-0.1c0.2,0,0.3,0,0.5,0.1c-0.4,0.4-1,0.4-1.6,0.7c-1.3,0.7-4.1,3.1-3.1,5.1c0.2,0.5,0.9,0.6,1.3,1
			c0.4,0.4,0.8,1.1,1.3,1.3v0.2c-2,0-4,0.3-5.4,0.8h-0.7c-0.1,0.1-0.1,0.2-0.2,0.2c-0.2,0.1-0.6,0.1-0.8,0.2h-0.5
			c0,0.1-0.1,0.2-0.1,0.2c-0.2,0-0.5,0.1-0.7,0.1c-0.3,0.2-0.7,0.6-1,0.6c-0.1,0.3-0.5,0.8-0.5,1.2c0,0.6,0.4,1.5,0.6,2
			c0.1,0.3,0,0.6,0,1c0,0,0,0,0,0h0.3v0.2c-0.1,0-0.2-0.1-0.3-0.2h0v0c-0.7-0.3-1.3-0.7-2-1c-0.1,0-0.3,0.1-0.4,0.1
			c-0.4-0.2-0.8-0.6-1.4-0.6v-0.2c-1.6-0.3-2.9-1.9-4.5-1.9v-0.2c-0.5,0-0.6-0.3-1.1-0.3c-0.1-0.2-0.2-0.4-0.4-0.5v-0.2
			c-0.8-0.1-1.3-1-1.9-1.4v-0.2c-0.7-0.2-0.5-1-0.8-1.5h-0.2V407c0-0.1-0.1-2.5,0.1-3.1c0.5-1.5,1-3.9,0.6-5.5v-1.5
			c0-0.9-0.1-1.3-0.1-2.2c0-0.2,0.1-0.5,0.1-0.7c-0.1-0.6-0.2-1.7-0.2-2.3c0-0.3,0.2-0.8,0.2-1.1c0.1-0.5-0.1-1.3,0-1.7
			c0-0.3-0.1-0.6-0.1-1c0.3-1,0.4-1.8,0.1-3.1c-0.1-0.4,0.1-0.8,0.1-1.2c0.4-0.2,0.9-0.2,1.3-0.6h0.4c0,0.2-0.1,0.3-0.2,0.4
			c-0.1,0.1-0.2,0-0.5,0.1c-0.1,0.1-0.2,0.2-0.4,0.3c0,0.9,0.4,1.1,1,1.2c-0.1,0.3-0.4,0.5-0.7,0.6c0,0.2,0.1,0.4,0.1,0.6
			c0.2,0.1,0.4,0.2,0.6,0.3c-0.1,0.3-0.2,0.2-0.3,0.3c-0.2,0.3-0.1,0.7-0.1,1.2c-0.3,0-0.5,0.1-0.8,0.1c-0.1,0.1-0.2,0.2-0.3,0.2
			c0,0.4,0.1,0.5,0,0.6c0.2,0.4,0.9,0.3,1.3,0.3c0.2-0.2,0.4-0.4,0.6-0.6c0.1-0.1,0,0,0.2-0.1c0,0,0.1,0.1,0.1,0.1
			c0,0.4-0.3,0.5-0.6,0.6c-0.1,0.3-0.1,0.6,0.1,0.8c0.1,0.2,0.3,0.2,0.5,0.4c-0.4,0.2-0.5,0.5-0.9,0.6c0.1,0.4,0.2,0.3,0.2,0.7
			c0.4,0.1,0.6,0.2,1,0.2c0,0.3,0,0.4,0.1,0.6v0.7c-0.3-0.1-0.7-0.1-0.8-0.2c-0.4,0.1-0.5,0.3-0.8,0.5c0.1,0.6,0.7,0.7,0.8,1.1
			c0.1,0.5-0.4,0.8-0.2,1.3c0.1,0.4,0.2,0.4,0.4,0.6c0.4,0,0.4,0,0.9,0c-0.2,0.2-0.2,0.5-0.4,0.7c0.1,0.4,0.4,0.6,0.6,0.9
			c-0.1,0.1-0.2,0.2-0.3,0.2c-0.1,0.3,0,0.4-0.1,0.5c0.1,0.3,1.1,0.7,1.5,0.6C383.2,398.9,386.6,400.2,388.4,400.2z M378.4,379.5
			c0.2,0,0.3,0,0.4,0.1c-0.1,0.3-0.8,0.6-1,0.7v0.4c-0.3,0-0.2,0.1-0.5,0.2c0,0.4,0,0.5-0.2,0.6c0.1,0.2,0.3,0.4,0.5,0.5
			c-0.2,0.2-0.3,0.1-0.6,0.1c0-0.4,0-1.8-0.4-2.1c0-0.2,0-0.4,0.1-0.6C376.7,379.5,378.1,379.9,378.4,379.5z M377.8,378.2h0.4
			C378,378.3,377.9,378.3,377.8,378.2z M378.3,376.2c0.1,0,0.1,0,0.2,0.1C378.4,376.2,378.4,376.2,378.3,376.2z M376.7,378.4
			c-0.1-0.2-0.1-0.3-0.1-0.5c0.5,0,0.6,0.1,1,0.2C377.6,378.3,377,378.2,376.7,378.4z M421.5,390.5c0,0.1,0.1,0.3,0.2,0.4
			c0.2,0.2,0.9,0.2,1,0.4c0,0.2,0.1,0.3,0.1,0.5c0.5,0.5,1,0.3,1.2,1.1c0.5,0.1,0.5,0.4,0.9,0.5c0.4-0.1,0.7-0.1,1.1-0.2
			c0.5,0.1,1.5,0.9,1.7,1.4h0.3v0.3c1,0.2,2.2,1.3,2.9,1.9c0.1,0.1,0.2,0.4,0.3,0.6c0.2,0.2,0.7,0.2,0.9,0.4c0.6,0.4,1.2,1,1.8,1.4
			h0.3c0.1,0,0.1,0.3,0.2,0.3c0.3,0.2,0.6,0.3,0.9,0.5c0.1,0.1,0.2,0.2,0.2,0.3h0.5c0.1,0.1,0.2,0.2,0.2,0.3
			c0.2,0.2,0.6,0.3,0.8,0.4c0.2,0,0.3,0.1,0.5,0.1c0.9,0.4,2.1,0.8,2.9,1.1l0.4-0.1c0.7,0.2,1.5,1.1,2.3,0.8
			c-0.2,0.2-0.3,0.2-0.6,0.2v0.2c-1.8,0-3.2,1.1-4.4,0.9v0.2c-1.2-0.3-4.3,1.5-5.3,2c-0.5,0.3-1.2,0.4-1.5,1
			c-0.4,0.7,0.3,2.1-0.1,2.8c0,0-1-0.2-1.3-0.2c-0.7,0.1-1.9-0.3-2.7-0.6c-0.2-0.1-0.4-0.3-0.7-0.2c-0.5,0.1-2.7-0.7-3.4-1
			c-0.5-0.2-1.5,0-1.9-0.1c-2.6-0.5-5.2,1-6,3.1c0,0-0.1,0.1-0.1,0.1H415c0.1-2.8-0.4-5.5,0-8.3c0-0.2,0.3-0.8,0.3-1
			c0-0.2-0.1-0.5-0.1-0.7c0.1-0.4,0-1.1,0.2-1.5c0-0.1,0.2-0.3,0.2-0.3c0-0.1-0.2-0.1-0.1-0.3c0.4-0.8,0.7-1.6,0.9-2.2
			c0.2-0.7-0.4-1.1-0.6-1.5h-0.2v-0.2c-0.9-0.2-2.6-0.6-3.3-1h-0.2c0.2-0.3,0.9-0.3,1.1-0.2c0.1-0.1,0.2-0.2,0.2-0.2
			c0.3,0,0.7-0.1,1-0.1c0-0.1,0.1-0.1,0.1-0.2c0.1,0,0.3,0.2,0.5,0.1v-0.2h1.1c0.3-0.1,0.4-0.5,0.6-0.6c-0.1-2.3-0.3-5.1-0.6-7.1
			c0.4-0.1,0.9,0.2,1.4-0.1c0.1-0.1,0.3-0.3,0.4-0.4c0-0.2,0-0.2-0.1-0.3c-0.1-0.4-0.6-0.5-1-0.6c-0.2,0.2-0.5,0.5-0.7,0.7
			c-0.3-1,0.2-2.7-0.2-3.5v-0.7c0.4,0.1,1,0.2,1.4-0.1c0.1,0.1,0.2,0.3,0.2,0.5h0.3v0.4c-0.4-0.2-0.8-0.1-1.2-0.2
			c-0.1,0.2-0.3,0.4-0.5,0.5c0,0.5,0.3,0.5,0.5,0.8c1.3,0,1.2-0.7,2.2-0.5c-0.3,0.2-0.5,0.2-0.7,0.6l-0.1,0.1h0.1
			c0,0.3,0,0.5,0.1,0.6c0.3,0.1,0.8,0.3,1.1,0c0.4,0.2,0.5,1,0.6,1.3c-0.3,0.1-0.7,0.2-0.9,0.3c-0.3,0.2-0.4,0.5-0.4,1
			c-0.7,0.1-1,0.6-0.9,1.2c0.2,0.1,0.2,0,0.2,0.2c0.8,0,1.9,0.2,2.2-0.2c0.8,0.1,0.3,0.7,0.8,1.1c0,0.2,0,0.2-0.1,0.2
			c-0.2,0.4-1,0.6-1.5,0.7c0,0.2,0.1,0.4,0.1,0.6C420.2,390.1,420.6,390.5,421.5,390.5z M416,378.1c0.1-0.2,0-0.1,0.2-0.2v-0.2h1.2
			c0.1-0.2,0.2-0.4,0.3-0.5c-0.1-0.8-0.7-0.8-0.9-1.4c0.1-0.1,0,0,0.1-0.2c0.5,0,0.8,0,1.3-0.1c0.5,0.8,0.2,1.1-0.4,1.7
			c0,0.2,0,0.3,0.1,0.4c0.1,0.3,0.6,0.5,0.9,0.6c-0.4,0.5-1.1,0.3-1.3,1.1c-0.6-0.1-1.1-0.2-1.4,0.2H416
			C416,379.3,416.1,378.3,416,378.1z M419.1,382.1h0.2C419.2,382.2,419.2,382.2,419.1,382.1z M449.2,343.4c-0.2,0.1-0.3,0.3-0.4,0.5
			h-0.1c-0.1-0.2-0.3-0.5-0.6-0.6v-0.2C448.5,343.3,448.8,343.4,449.2,343.4L449.2,343.4L449.2,343.4z M452.6,335.6
			c-0.4-0.2-0.4-0.5-0.8-0.6v-0.1c0.3-0.1,0.6,0,1,0C452.7,335.1,452.6,335.4,452.6,335.6z M453.8,331.5c-0.1,0.1-0.1,0-0.2,0.1
			c-0.3-0.1-0.2-0.3-0.5-0.6v-0.2h0.1c0.1,0.1,0.2,0.3,0.2,0.4h0.3L453.8,331.5L453.8,331.5z M455.1,326.8h-0.7v-0.1
			c0.1-0.1,0.1,0,0.2-0.1C454.8,326.6,455,326.6,455.1,326.8L455.1,326.8z M455.5,325.2c-0.1-0.1-0.2-0.1-0.2-0.2h0.2V325.2z
			 M455.6,314.5c-0.1,0-0.4,0.1-0.6,0c0-0.1,0.1-0.2,0.2-0.4h0.3C455.6,314.3,455.7,314.3,455.6,314.5z M455.8,323.5
			c0.1,0,0.1,0,0.2,0.1C455.8,323.5,455.9,323.5,455.8,323.5z M456,317.9c-0.2,0-0.2-0.1-0.3-0.2h0.2L456,317.9L456,317.9z
			 M461.1,266.5c-0.2,0-0.2,0.1-0.3,0.2h-0.1c0.1-0.2,0.1-0.2,0.2-0.6h0.2L461.1,266.5L461.1,266.5z M465.5,259.3h0.2
			C465.6,259.4,465.7,259.4,465.5,259.3z M480.7,249.5c-0.3,0.1-0.8,0.6-1,0.9c-0.2-0.1-0.1,0-0.2-0.3c-0.5-0.1-1-0.3-1.5-0.3
			c-0.2,0.1-0.4,0.3-0.6,0.4c0.1,0.4,0.3,0.5,0.3,0.9c-0.3,0-1,0.3-1.3,0.2c-0.1-0.1-0.1-0.2-0.2-0.2c-0.6-0.2-1.2,0.2-1.4,0.4
			c0,0.3,0.1,0.4,0.2,0.6c-0.1,0.2-0.3,0.3-0.6,0.3c-0.1,0.1-0.7-0.3-1-0.4c-0.6-0.2-1.1,0.2-1.4,0.4c0,0.4,0,0.6,0.2,0.8v0.1
			c-0.6,0-1-0.6-1.7-0.4c-0.2,0.1-0.8,0.3-0.9,0.5c-0.1,0.1,0,0.2-0.1,0.3c-0.2,0.2-0.6,0-0.9,0.2c-0.1,0.1-0.2,0.3-0.2,0.4
			c-0.2,0.1-0.7-0.2-1-0.1c-0.3,0.1-0.6,0.3-0.9,0.5c0,0.2-0.1,0.2,0,0.3c-0.1,0.2-0.8,0.5-1,0.6c-0.1,0.1-1.2-0.7-1.8-0.3
			c-0.2,0.1-0.3,0.3-0.3,0.6c0.3,0.3,0.8,0.9,1,1.3c0.5,0,0.9,0.1,1.2-0.3c0.4,0.1,0.5,0.4,0.6,0.7c-0.2-0.1-0.5-0.2-0.6-0.3
			c-0.7,0.1-0.9,0.5-1.4,0.8c0.1,0.3,0.2,0.6,0.4,0.8c-0.3,0.2-1.1,0.3-1.4,0.5c-0.1,0.1-0.1,0.3-0.1,0.6c-0.4,0.1-0.7,0.2-1,0.4
			c0,0.5,0.2,0.8,0.4,1c-0.2,0.4-0.7,0.5-1,0.8c-0.1,0.1-0.1,0.6-0.1,0.6c-0.1,0.1-0.3,0.1-0.6,0.1c-0.3,0.7-0.5,0.8-1,1.4
			c0.2,0.5,0.5,0.6,0.6,1.2c-1.3-0.1-1.1-0.8-2.5,0.1c0,0.8,1.2,1.9,1.8,1.5h0.2c-0.1,0.2-0.6,0.4-0.8,0.5c0,0.1-0.1,0.5-0.2,0.6
			c-0.2,0.1-0.5,0.2-0.7,0.2c-0.1,0.1-0.1,0.2-0.2,0.3c0.1,0.7,0.8,1.4,1.5,1.5c0,0.3-0.1,0.3-0.2,0.6c-0.3,0-0.5-0.1-0.6,0
			c-0.5,0-0.6,0.1-0.9,0.2c0,0.2,0,0.4,0.1,0.5v0.2c-0.4-0.2-1-0.5-1.4-0.2c-0.2,0.1-0.2,0.1-0.4,0.2c0,0.4,0.5,1.1,0.7,1.4
			c-0.1,0.1-0.9,0.5-1.1,0.6c0,0.3,0.1,0.3,0.2,0.5c0,0.2,0,0.3-0.2,0.4c-0.1,0.3-0.8,0.5-1.1,0.6c0,0.4-0.1,0.7-0.3,1
			c0,0.2,1,1.8,1.2,1.9v0.1c-0.3,0-0.5,0-0.7-0.1v-0.3c-1.2-0.3-1.4-1.2-2.3,0.2c0.1,0.3,0.6,0.8,1,0.9l-0.4,0.4
			c0.1,0.5,0.5,0.8,0.7,1.2c0.6,0,0.8,0.1,1.4,0.1c0,0.3-0.1,0.3,0,0.5v0.2c-0.6,0-1.2-0.1-1.6,0.3c-0.1,0.1-0.1,0.3-0.2,0.4
			c0,0-0.8,0.3-1,0.3c0,0.3,0,0.5,0.2,0.6c0,0.1,0,0.1-0.1,0.2c-0.3,0.2-0.9-0.4-1.4-0.1c-0.3-0.2,0-0.4-0.2-0.7
			c-0.1-0.3-0.9-0.9-1.3-0.7c-0.4,0-0.6,0.1-0.8,0.3c-0.1,0.1-0.1,0.4-0.2,0.5c0,0.4,0.2,0.9,0.6,1c0.5,0.5,1.7,0,1.9,1.2
			c0.1,0.2-0.1,0.2,0,0.3c0.1,0.7,0.5,0.3,0.8,0.6v0.4c0.1,0.2,0.4,0.3,0.6,0.4c-0.1,0.3-0.2,0.5-0.4,0.7c0,0-1,0.4-1.2,0.3
			c-0.8-0.2-2.3-1.2-2.8,0h-0.1c0.1,0.4,0.7,1.1,1.3,1.2c-0.1,0.2-0.2,0.4-0.3,0.5c0.3,1.1,0.8,0.4,1.6,0.9c0.5-0.2,0.4-1,0.9-1.4
			v-0.1c0.2,0.1,0.3,0.1,0.5,0.2c-0.1,0.1-0.2,0.2-0.4,0.3c0,0.5,0.2,0.7,0.5,0.9l-0.1,0.1c-0.1,0.1-0.6,0.2-0.9,0.3
			c0,0.2,0,0.3,0,0.4c0,0.4,0.2,0.5,0.5,0.6c-0.1,0.2-0.2,0.3-0.5,0.3c-0.1,0.8,0.3,0.7,0.7,1.1c-0.5,0.3-0.8,0.6-1.3,0.9
			c-0.3-0.4-0.7-0.7-1.4-0.6l-0.7,0.5c0,0.2,0,0.3-0.1,0.4c0.3,0.3,0.6,0.6,1.2,0.7c0.1,0.1,0.6-0.2,0.8-0.3c0.2,0.4,1,1,1.4,1.1
			c0,0.2,0,0.2-0.1,0.3c-0.3,0.2-0.7,0.1-1,0.2h-0.9c0.1-0.2,0.1-0.3,0.2-0.5c-0.1-0.4-0.2-0.4-0.3-0.7c-0.3,0-0.7-0.3-1-0.2
			c-0.4,0.1-0.3,0.2-0.9,0.2c0.1,0.2,0.2,0.3,0.1,0.5c0.1,0.6,0.7,0.5,0.9,1h0.3v0.4c0.2,0.2,0.4,0.4,0.7,0.6
			c-0.3,0.2-0.9,0.4-0.6,0.9c0.2,0.5,2,1,2.5,1v0.1c-0.3,0.1-0.5,0.3-0.7,0.4h-1c-0.3,0.1-0.5,0.4-0.7,0.6c0,0.3,0,0.4,0.2,0.6
			c0.2,0.2,0.8,0.4,1.3,0.2c0.1-0.1,0.2-0.2,0.3-0.3c0.3-0.1,0.6,0.1,0.8,0.2c-0.1,0.4-0.4,0.9-0.6,1.3c-0.5-0.1-0.9-0.4-1.4-0.2
			c-0.2,0.1-0.3,0.4-0.6,0.4c-0.3,0.1-0.6-0.2-0.9,0c-0.5,0-0.6,0.3-0.7,0.7c0.1,0.1,0.2,0.3,0.2,0.4c0.3,0.1,0.8,0.2,1,0.4
			c0.6,0,0.8-0.2,1-0.6c0.3,0,0.4,0.1,0.6,0c0.4,0.1,0.3,0.9,1.4,1v0.1c-0.5,0.2-0.6-0.1-1.1,0.1c-0.2,0.1-0.1,0.2-0.5,0.2v0.2
			c0,0-0.1,0.1-0.1,0.1c-0.3,0-0.8-0.1-1-0.2c-0.3,0.1-0.5,0.3-0.8,0.4c0,0.7,0.4,0.8,0.9,1c-0.1,0.2-0.1,0.2-0.2,0.4
			c-0.1,0.1,0,0.2,0.1,0.4c0.2,0.3,0.5,0.5,1,0.6c-0.1,0.1-0.2,0.3-0.3,0.5c0.1,0.5,0.3,0.9,0.7,1.1c-0.2,0.1-0.4,0-0.6,0
			c-0.5,0.1-0.7,0.4-1,0.7c0,0.3,0,0.2,0,0.5c0.3,0.2,0.7,0.4,1,0.4c0.7,0,0.8-0.3,1.3-0.5c0.1,0.1,0.1,0.1,0.2,0.2
			c0,0.4-0.3,1-0.1,1.4c0,0.5-0.3,0.5-0.4,0.9c-0.6-0.1-1.2-0.2-1.8-0.2c-0.1,1.1-0.4,0.8,0.4,1.5c0.9,0,1-0.3,1.6-0.5v-0.2
			c0.2,0,0.3,0,0.4,0.2c1.7,0,1-0.8,1.9-1.2c0.3-0.1,0.8,0,1.2-0.2h0.2c0.1,0.3,0.1,0.7,0,0.8c0,0.1-0.4-0.2-0.6-0.2
			c-0.2-0.1-0.5,0.1-0.9,0.1c-0.2,0.2-0.4,0.4-0.6,0.6c0,0.3,0,0.3,0.2,0.4c-0.1,0.1-0.1,0.2-0.2,0.2c-0.6,0.1-0.9,0.1-1.5,0
			c-0.2,0.2-0.4,0.3-0.6,0.5c0,0.4,0.1,0.5,0.2,0.8c0.6,0.1,1,0.3,1.4,0.5c-0.1,0.3-0.3,0.6-0.6,0.8c0,0.2,0,0.2,0.1,0.2
			c0.2,0.5,1,0.7,1.5,0.8c-0.1,0.3-0.1,0.1-0.1,0.3c-1.4-0.2-1-0.7-2.2,0.2c0,0.1-0.1,0.2-0.1,0.2c0.1,0.2,0.3,0.4,0.4,0.6
			c0.6,0.1,1.2,0.4,1.6,0h0.7c-0.1,0.3-0.3,0.3-0.4,0.7c-0.3,0-0.7,0.1-0.9,0.2c-0.6,0.1-0.7,0.8-1,1.1c0,0.4,0.1,0.4,0.3,0.8
			c0.5,0,0.7,0.2,1,0.2c0.3-0.1,0.6-0.1,0.9-0.2c0-0.1,0.1-0.1,0.1-0.3c0.2,0.1,0.4,0.2,0.5,0.3c0,0,0,0.3,0.1,0.5
			c-0.2,0.1-0.3,0.2-0.5,0.3c-0.4-0.1-1.2-0.6-1.8-0.2c-0.3,0.1-0.3,0.3-0.5,0.5c0.1,0.8,0.8,0.5,1.4,0.9h0.2c0,0-0.1,0.4-0.1,0.6
			c0,0.1,0.2,0.3,0.2,0.4c0.4,0.1,0.9,0.2,1.1,0.4c-0.5-0.1-1,0.1-1.1,0.6c-0.2,0-0.2,0-0.2-0.1h-0.2c0-0.3,0.2-0.4,0.2-0.6
			c0.2-0.6-0.8-0.9-1-1.2c-0.3,0-0.6,0.1-0.7,0.2c-0.4-0.1-0.8-0.4-1-0.7c-0.3,0-2,0.2-2,0.2c-0.5,0-0.5,0.1-0.8,0.3
			c0,0.4,0.1,0.4,0.2,0.6c0.4,0.2,1.2,0.5,1.5,0.2c0.9,0,0.8,0.8,1.5,1c0.8,0.3,1.3-0.3,1.9-0.3c-0.3,0.2-0.6,0.4-0.9,0.6
			c0,0.3,0,0.3,0.2,0.5c-0.1,0.2-0.3,0.5-0.5,0.6c0,0.3,0,0.3,0.2,0.5c-0.2,0.3-0.3,0-0.7,0.1c-0.3,0.1-0.6,0.5-0.8,0.7
			c-0.3-0.1-0.6-0.4-0.7-0.6c-0.8,0-1,0.2-1.4,0.5c0,0.1,0,0.1-0.1,0.2c0.1,0.6,0.8,1,1.7,0.8c0.2,0,0.4-0.3,0.6-0.2
			c0.3,0.1,0.7,0.5,1,0.6c0.3,0,0.5-0.1,0.8-0.1c0.4,0.2,0.3,0.5,0.9,0.4c0,0,0.1,0.1,0.1,0.1c-0.1,0.2-0.4,0.5-0.6,0.6
			c-0.2,0.1-0.8-0.1-1.1,0.1c-0.4,0-0.8-0.3-1-0.6c-0.9,0-1,0.1-1.5,0.5c0.1,0.5,0.4,0.7,0.8,0.8c-0.1,0.2,0,0.1-0.2,0.2
			c0.1,0.3,0.2,0.5,0.4,0.6c0.2,0.2,1.1,0.3,1.4,0.2c0.4,0.1,0.4,0.4,0.6,0.6c0.3,0.1,0.6,0.2,1,0.3c0,0.2,0,0.3-0.2,0.4v0.1
			c-0.1-0.1-0.1-0.2-0.2-0.3c-0.8-0.1-1.5,0-2.4,0c-0.2,0.2-0.4,0.4-0.7,0.6c0,0.1,0,0.1-0.1,0.2c0,0.5,0.1,0.6,0.4,0.8
			c-0.1,0.1-0.1,0.4-0.2,0.6c0.1,0.6,0.5,0.5,0.9,0.8c0.3,0.2,0,0.4,0.2,0.7c0.2,0.1,0.4,0.3,0.6,0.4c0.2,0.2,0.1,0.3,0.1,0.6
			c-0.4-0.1-0.5-0.3-0.7-0.4c-0.5-0.2-0.9,0.1-1.3,0.2l-0.3-0.3c-0.6,0-0.9,0.2-1.3,0.4c0,0.3,0,0.1,0,0.4c0.1,0.1,0.2,0.3,0.3,0.5
			c0.8,0,2.3,0,2.8,0.4c0.2,0.1,0.2,0.1,0.3,0.2c0,0.4-0.1,0.5-0.2,0.7v0.2c-0.3-0.3-0.6-0.6-0.9-0.9c-0.6,0-0.8,0.2-1.1,0.4
			c-0.1,0.3-0.1,0.4,0.1,0.6c-0.1,0.2-0.4,0.4-0.6,0.5c0,0.5,0.1,0.8,0.6,0.9c0.1,0,0.2-0.1,0.2-0.1c0.1,0.1,0.3,0.3,0.5,0.3
			c-0.1,0.3-0.2,0.4-0.3,0.7h-0.2c0,0-0.1-0.1-0.1-0.1c0-0.2,0.1-0.4,0.1-0.6c-0.6,0-1-0.3-1.3-0.1c-0.5,0.1-0.5,0.3-0.8,0.5
			c0,0.4,0.2,0.6,0.5,0.7c-0.3,0.2-0.6,0.1-0.8,0.1c-0.2,0.1-0.4,0.3-0.6,0.4c0,0.4,0,0.6,0.2,0.8c0.2,0.2,0.7,0.3,1.1,0.3v0.2
			c-0.2,0.2-0.5,0.6-0.6,0.9c-0.5-0.1-1-0.6-1.5-0.4c-0.5,0-0.6,0.3-0.9,0.5c0.1,0.9,0.7,0.8,1.4,1.1c-0.5,0.7-1,1.6-1.6,2.2
			c-0.4,0.4-0.9,0.6-1.2,1c-0.1-0.1-0.1-0.2-0.2-0.3c-0.4-0.1-1-0.5-1.4-0.2c-0.6,0-0.5,0.2-0.8,0.6c0.1,0.7,0.6,0.9,1.2,0.9
			c-0.2,0.7-0.6,0.6-1,1c-0.9,0.9-1.8,2-3,2.6v0.1c-0.1-0.1-0.4-0.3-0.5-0.5c-0.5,0-0.9-0.1-1.3,0.2c-0.3,0.1-0.3,0.4-0.5,0.6
			c0.1,0.4,0.5,0.6,0.9,0.8c-0.5,0.7-2.2,1.6-3.1,2.2c-0.4,0.3-0.8,0.8-1.3,1.2c-0.2,0.1-0.5,0.2-0.7,0.2c-0.2,0.1-0.4,0.4-0.6,0.6
			c-0.4,0.2-0.8,0.3-1.2,0.6c-0.3,0.2-0.7,0.5-1,0.7c-0.5,0.3-1.1,0.4-1.7,0.7c-0.1,0-0.1,0.3-0.2,0.3c-0.3,0.2-1.6,0.7-1.9,0.6v0.2
			c-0.4,0.3-1,0.3-1.4,0.6c-0.1,0.1-0.2,0.2-0.2,0.3c-0.4,0.2-0.7,0.1-1.1,0.2c-0.3,0.1-0.6,0.4-0.9,0.5c-0.8,0.3-1.4,0.2-2.1,0.5
			c-1.6,0.6-3.4,1.3-5.1,1.9c-0.5,0.2-1,0-1.5,0.2c-1.4,0.6-3.5,0.9-4.8,1.4c-0.3,0-0.6,0.1-1,0.1c-1,0.3-2.2,0.5-3.2,0.7
			c-0.4,0-0.7,0.1-1.1,0.1c-1.5,0.4-3.4,0.5-4.9,0.9h-1.4c-0.3,0-0.9,0.1-1.1,0.2c-0.7,0.2-0.9-0.2-1.4-0.1
			c-0.4,0.1-1.4,0.1-1.8,0.1c-0.5-0.1-1.9,0.2-2.5,0.2c-0.7,0.1-1.9-0.2-2.6-0.1c-1,0.1-4.1,0.1-5.3-0.2c-0.3-0.1-0.8,0-1.1,0.1
			c-0.5,0.1-1.2-0.1-1.6-0.2c-0.5-0.1-1,0.1-1.6,0c-0.5-0.1-1.6-0.2-2.2-0.3c-0.2,0-0.6,0.2-0.9,0.1c-0.7-0.2-1.8-0.3-2.5-0.4
			c-0.5-0.1-0.8,0.2-1.2,0.1c-1.3-0.3-2.1-0.4-3.4-0.7c-0.7-0.2-1.5-0.2-2.2-0.3L365,369c-1.7-0.4-3.3-0.7-4.9-1.3h-0.7
			c-1-0.2-1.8-0.3-2.7-0.5c-0.3,0-0.7-0.1-1-0.1c-1-0.4-2.2-0.6-3.2-1c-0.6-0.1-1.1-0.2-1.7-0.2c-1.2-0.5-2.6-1-3.8-1.4
			c-0.7-0.2-1.2-0.1-1.9-0.3c-0.6-0.2-1.2-0.5-1.8-0.6h-0.6c-0.7-0.3-1.6-0.6-2.3-0.9c-0.2,0-0.3,0.1-0.5,0.1
			c-0.1,0-0.3-0.3-0.5-0.3c-0.2,0-0.5-0.1-0.7-0.1c-2.3-1-5.1-2-7.9-2.3c0.1-0.2,0.5-0.4,0.7-0.6c-0.1-0.4-0.2-0.6-0.2-1
			c-0.3-0.1-0.7-0.6-1.1-0.3c-0.2,0.1-0.2,0.1-0.4,0.2c0,0.6,0.1,0.5,0.2,1h0.2c0.1,0.2,0,0.2,0.2,0.3v0.1c-0.4,0.1-3.2-0.1-3.7-0.4
			c-0.4,0-1.1,0.1-1.3-0.2c-0.1-0.1,0.1-0.2,0.2-0.3c0-0.5-0.1-0.6-0.2-1h-0.2v-0.2c-0.4-0.2-0.7-0.2-1.1-0.3c0-0.2,0.3-0.8,0.5-1
			c0.2-0.2,0.8-0.3,1.1-0.3c-0.1-0.7-0.4-1.2-0.9-1.8h-0.1c0.3-0.2,0.5,0,0.8-0.2c0.3-0.1,0.3-0.4,0.1-0.6c-0.1-0.8-0.6-0.6-1.1-1
			c-0.4-0.2-0.2-0.4-0.4-0.6l0.6-0.6h0.3c-0.1-0.7-0.4-1.4-1-1.6c-0.2-0.1-0.6-0.1-0.7,0c-0.5-0.3-0.5-1.2-1.1-1.4
			c0-0.3,0.1-0.6,0-0.8c-0.1-0.8-0.8-0.8-1.4-1.1c-0.2-0.3-0.1-0.8-0.4-1c0.1-0.3,0.2-0.2,0.4-0.4c0.3,0.1,0.2,0.1,0.4,0.2v0.2
			c0.3,0.1,0.2,0.1,0.4,0.2v0.2c0.4,0,0.8,0.4,1.1,0.2c0.4,0,0.3-0.2,0.6-0.4c0-1.4-1.1-1.3-1.6-2.1c0,0,0.1-0.2,0.1-0.3
			c-0.2-0.6-0.7-1-1.6-1V342c0.7-0.2,2.1-0.6,2.6-1h0.2c-0.1,0.2-0.4,0.4-0.6,0.5c0.4,1,1,1.7,1.6,2.6c0.5,0,0.7-0.1,1-0.2
			c0-0.5,0-0.5,0-1c-0.2-0.2-0.6-0.5-0.7-0.7c-0.1-0.2-0.1-0.4-0.2-0.6c-0.2-0.2-0.6-0.3-0.9-0.5h-0.2c0.3-0.5,3-1.3,3.7-1.8
			c2.5-1.6,5.5-2.6,7.8-4.2c0.7-0.5,1.7-0.6,2.3-1.2h0.3c0.1,0.2,0.2,0.4,0.2,0.6c0.2,0.3,0.6,0.5,0.8,0.7c0.3,0,0.4-0.1,0.6-0.2
			c0.2-0.7-0.2-1.5-1-1.6v-0.2c0.5-0.1,3.1-2.1,3.4-2.5c0.1-0.2,0-0.4,0.2-0.6c0.1-0.1,0.4-0.1,0.5-0.2c0.4-0.3,0.6-0.8,1-1.1
			c0.1,0,0.2,0.1,0.2,0.1c0.1-0.1,1.1-1.3,1.2-1.4v-0.2c0.2-0.3,0.6-0.5,0.8-0.8c0.4,0.1,0.6,0.8,0.7,1.1h0.8
			c0.3-0.1,0.4-1.5,0.1-1.8c-0.2-0.2-0.3-0.2-0.6-0.2c0.3-1,1.5-1.7,2-2.4c0.7-1,1.5-1.9,2.3-2.8c0.4-0.5,1.2-0.8,1.4-1.4h0.2
			c0.1-0.5,0.5-0.6,0.8-1c0.4-0.6,0.8-1.2,1.3-1.8c0.3-0.3,0.6-0.5,0.8-0.8h0.2c0.1-0.4,0.3-0.3,0.4-0.7c0.1,0,0.2,0.1,0.2,0.1
			c0-0.1,0.1-0.1,0.1-0.3h0.2v-0.2h0.2v-0.2c0.4-0.1,1.6-1.1,1.8-1.4h0.2c0.1-0.3,0.2-0.4,0.5-0.5v-0.2c0.6-0.1,0.9-0.6,1.3-1
			c0.1,0,0.3-0.1,0.4-0.1c0.1-0.1,0.2-0.3,0.3-0.4c0.1,0,0.3-0.1,0.4-0.1c0.3-0.2,0.4-0.7,0.7-0.9c0.2-0.2,0.5-0.1,0.7-0.2
			c0.5-0.3,1-0.8,1.4-1.1c0.4-0.3,0.9-0.3,1.3-0.6c0,0,0.3-0.4,0.3-0.4h0.4c0.3-0.2,0.5-0.6,0.8-0.7c0.2-0.1,0.5,0,0.6-0.2
			c0-0.1,0.1-0.2,0.1-0.3c0.2-0.1,0.5,0,0.6-0.2c0.5-0.3,1-0.9,1.6-1.1c0.3-0.1,0.6-0.1,0.9-0.2c0.4-0.2,0.8-0.6,1.1-0.8
			c0.5-0.3,1.2-0.4,1.8-0.6c0.4-0.2,0.8-0.6,1.1-0.8c0.3-0.2,0.8-0.2,1.2-0.3c0.6-0.2,1.2-0.7,1.8-1c0.8-0.4,1.9-0.3,2.7-0.7
			c2.5-1.2,5.2-1.8,7.9-3c0.1,0,0.3,0.1,0.4,0.1c0.7-0.2,1.4-0.5,2.2-0.7c0.3,0,0.6-0.1,0.9-0.1c0.2-0.1,0.4-0.3,0.6-0.4h0.8
			c0.6-0.2,1.5-0.6,2.2-0.8c0.3-0.1,0.8,0.1,1,0c0.1,0,0.3-0.3,0.4-0.3c0.5-0.1,1-0.1,1.4-0.2v-0.2c0.4,0,0.9-0.1,1.3-0.1
			c0-0.1,0.1-0.2,0.1-0.2c0.4,0,0.9-0.1,1.3-0.1c0.6-0.2,1.3-0.4,1.9-0.6c0.5-0.2,1,0,1.4-0.2V293c0.2-0.1,0.4,0.1,0.7,0
			c1.1-0.4,2.5-0.9,3.6-1.3c1.3-0.4,2.7-0.6,3.8-1.2c0.2,0.1,2.2-0.5,2.7-0.7c1.4-0.5,3-1.1,4.4-1.6h0.6c0.3-0.1,0.8-0.4,1.1-0.5
			c0.3,0.1,1.9-0.4,2.2-0.6h0.3c-0.2,0.6-0.9,0.8-1.4,1.2c-0.1,0.1-0.1,0.3-0.2,0.4c-0.1,0-0.3,0.1-0.4,0.1
			c-0.3,0.2-0.5,0.6-0.8,0.8c-0.1,0-0.3,0.1-0.4,0.1c-0.2,0.1-0.2,0.4-0.4,0.6c-0.5,0.4-1.1,0.8-1.6,1.2c0.1,0.1,0.2,0.2,0.2,0.3
			c1.3,0,1.8-0.9,2.6-1.4c0.7-0.4,1.4-0.7,2.2-1.1c0.2-0.3,0.5-0.5,0.7-0.8c0.7-0.5,1.3-1,1.8-1.6c0.1-0.1,0.2-0.4,0.3-0.5
			c0.3-0.2,0.6-0.4,0.9-0.6c0.2-0.2,0.3-0.5,0.5-0.7c0.1-0.1,0.3-0.2,0.4-0.2c0-0.2,0.1-0.4,0.1-0.6c0.1-0.2,0.8-1,1-1.2
			c0.5-0.5,1.2-1,1.7-1.6c0.2-0.3,0.2-0.6,0.4-0.9c0.4-0.5,1-0.9,1.1-1.6c0.6-0.1,0.7-0.8,1-1.2c0.5-0.8,1.3-1.5,1.8-2.2
			c0.2-0.3,0.2-0.7,0.4-1c0.2-0.3,0.6-0.6,0.8-0.9c0.4-0.7,0.6-1.4,1-2.1c0.3-0.4,0.8-0.8,1-1.2c0.1-0.2,0.2-0.5,0.2-0.7
			c0.1-0.2,0.4-0.4,0.5-0.6v-0.2c0.9-1.3,1.6-2.9,2.4-4.2v-0.3c0.2-0.4,0.5-1.1,0.6-1.5v-0.6c1.7-5.2,4.2-10.4,6.5-15.2
			c0-0.2,0.1-0.5,0.1-0.7c0.2-0.4,0.5-0.9,0.7-1.3c0.3-0.7,0.4-1.3,0.7-2c0.3-0.6,0.9-1.4,1.2-2c0.3-0.7,0.4-1.3,0.7-2
			c0.3-0.5,0.7-1.2,1-1.7c0.2-0.3,0.2-0.7,0.4-1c0.4-0.7,0.9-1.6,1.3-2.2c0.1-0.3,0.2-0.5,0.2-0.8c0.1,0,0.2-0.1,0.2-0.1
			c0.4-0.5,0.5-1.1,0.8-1.7c0.1-0.1,0.3-0.3,0.4-0.4v-0.3c0.2-0.5,0.7-1.1,1-1.6c0.1-0.2,0.2-0.5,0.2-0.7c0.1,0,0.2-0.1,0.2-0.1V228
			c0.1-0.1,0.4-0.3,0.6-0.5c0.2-0.3,0.3-0.7,0.6-1c0.3-0.2,0.5-0.5,0.8-0.7c0.3-0.5,0.5-1.2,0.8-1.6h0.2c0.1-0.1,0.3-0.4,0.4-0.6
			c0.1-0.1,0-0.4,0.2-0.6c0.2-0.2,0.7-0.4,0.9-0.6c0-0.1,0.1-0.3,0.1-0.4c0.1-0.1,0.3-0.1,0.4-0.2c0-0.1,0.1-0.3,0.1-0.4h0.2
			c0.2-0.2,0.4-0.5,0.6-0.7c0.3-0.3,0.4-0.8,0.7-1.1c0.2-0.2,0.5-0.3,0.7-0.6c0.1-0.1,0.1-0.3,0.2-0.4c0.2-0.1,0.8-0.3,1-0.4
			c0.3-0.2,1-1.2,1.2-1.3c0.1,0,0.2,0.1,0.4,0c0.1-0.1,0.1-0.3,0.2-0.4h0.1c0.1-0.1,0.2,0,0.3-0.1c0-0.1,0.1-0.2,0.1-0.2
			c0.2-0.1,0.3,0.2,0.5,0V216c0.1,0,0.6,0,0.8-0.1c0.4-0.2,0.5-0.4,1.1-0.5v-0.3c0,0,0.1-0.1,0.1-0.1c0.1,0.1,0,0,0,0.2
			c0.6,0,1.6-0.5,2.2-0.7c0.2-0.1,0,0.1,0.1,0.2c0.4,0,0.7-0.1,1.1-0.1c0.1,0,0.3,0.2,0.5,0.2l0.1-0.2c0.2,0.2,2.5,0.8,2.6,0.7
			c0.2,0.1,0.1,0.1,0.2,0.2c0.1,0,0,0.1,0.2-0.1c0.1,0.1,0,0.1,0.1,0.2c1.4,0.1,2,1.2,3.4,1.3c0.1,0.3,0.2,0.3,0.3,0.5h0.2v0.2
			c0.7,0.3,1.2,1.1,1.7,1.7c0.2,0.2,0.7,0.3,0.8,0.5c0.3,0.3,0.4,0.8,0.6,1.2c0.1,0.1,0.3,0.2,0.4,0.3c-0.1,0.2,1.1,2.4,1.4,2.8
			c0,0,0,0.7,0,0.7c0.2,0.5,0.7,0.8,0.8,1.4h0.2c0.1,0.9,0.5,1.5,0.8,2.2c0.1,0.3,0.1,0.6,0.2,1c0.2,0.6,0.7,1.3,0.9,1.9
			c0.2,0.7-0.4,1.5-0.2,2c0.1,0.1,0.2,0.2,0.3,0.2c0.4,0.6,0.5,1.6,0.5,2.4c-0.8-0.1-1.4-0.5-2-0.7c-0.1,0-0.5,0.1-0.6,0v-0.2
			c-0.2-0.1-0.4-0.1-0.6-0.2c0-0.1-0.1-0.2-0.1-0.2h-0.4c-0.3-0.1-0.6-0.5-0.9-0.6c-0.2,0-0.3-0.1-0.5-0.1c-0.2-0.1-0.4-0.4-0.6-0.6
			c-0.4-0.2-1.8-0.8-2.3-0.4c-0.8,0.3-0.2,0.7-0.4,1.3c-0.1,0.2-0.3,0.3-0.4,0.4c0.2,0.2-0.1,2.1-0.2,2.6c-0.6,1.5-1.6,2.7-2.4,3.9
			c-0.1,0.2-0.2,0.5-0.4,0.6c-0.3,0.2-0.7,0.2-1,0.4c-0.3,0.2-0.5,0.5-0.8,0.7c0,1.3,2.2,2.7,2.9,3.8h0.2c0.1,0.7,0.9,1,1.2,1.6h0.2
			c0.1,0.3,0.4,0.6,0.6,0.8C481.4,249.6,481.1,249.4,480.7,249.5z M453.7,305.5c0.2,0,0.3,0,0.4,0.2c0.2,0.1,0.1,0,0.2,0.2
			c0,0,0.1,0.1,0.1,0.1c0,0-0.1,0.1-0.1,0.1c-0.7,0-0.9-0.2-1.6-0.2c0-0.1,0-0.1,0.1-0.2C453,305.6,453.5,305.7,453.7,305.5z
			 M453.5,300.1c0.1,0.1,0.1,0,0.2,0.1C453.6,300.1,453.6,300.1,453.5,300.1z M453.9,309.1c0.1-0.1,0.5-0.1,0.9-0.1v0.3
			c-0.3,0-0.3,0-0.5,0.2c-0.2,0-0.3,0-0.5-0.1C453.9,309.2,453.9,309.2,453.9,309.1z M451.8,297.3L451.8,297.3l-0.3,0.1v-0.2
			C451.6,297.2,451.7,297.2,451.8,297.3z M452.2,306L452.2,306c-0.3,0.1-1,0.1-1.2,0c-0.2-0.1-0.1,0-0.2-0.2
			C451.3,305.8,451.6,306,452.2,306z M453.3,328.2v0.2h-0.4c0-0.1,0-0.1-0.1-0.2v-0.1H453.3z M506.2,255.1c-0.6,0.2-1.4,0.6-2.5,0.4
			c-1.2-0.2-2.3-0.2-3.9-0.6c-1.8-0.4-4-1-5.7-1.8c-0.3-0.2-0.6-0.5-1-0.7c-0.5-0.3-1.1-0.5-1.6-0.7h-0.3c-0.6-0.4-1.1-1.1-1.8-1.4
			c-0.6-0.3-1.3-0.4-1.9-0.8c-0.6-0.3-1.1-0.9-1.7-1.3c-0.4-0.2-0.8-0.3-1.1-0.6c-0.2-0.2-0.2-0.4-0.4-0.6c-0.5-0.3-0.9-0.5-1.4-0.8
			c-0.4-0.2-0.6-0.8-1-1c-0.3-0.2-0.6-0.2-1-0.4c-0.7-0.4-1-1.3-1.8-1.6V243c0.7-0.7,1.4-1.7,1.9-2.6c0.1-0.2,0-0.4,0.2-0.6
			c0.8-1.3,2-3.2,1.9-5.1c0.1,0,0.7,0,0.9,0.1c0.1,0,0.1,0.3,0.2,0.3c0.3,0.2,0.8,0.5,1,0.4c0.1,0.1,0,0.1,0.1,0.2
			c0.4,0.1,0.4,0.2,0.9,0.2c0.1,0.5,0.9,0.6,1.4,0.6v0.2c0.3,0.1,2.2,0.9,2.8,0.7c0.5-0.1,0.8-0.5,1.3-0.7c0-0.2,0.3-0.7,0.3-0.9
			H492c-0.1-0.2-0.1-0.2-0.2-0.5c0.6,0.2,1.4,1.7,1.8,2.2c0.3,0.3,0.6,0.5,0.9,0.7c0,0.1,0.1,0.2,0.1,0.3c0.1,0.1,0.4-0.1,0.5,0.1
			v0.3c0.1,0.2,0.4,0.2,0.5,0.3c0,0.1,0.1,0.3,0.1,0.4c0.1,0.1,0.7,0.4,0.8,0.6v0.3c0.1,0.1,0.4,0.2,0.5,0.3c0.1,0.2,0.4,0.8,0.6,1
			c0.1,0,0.3,0.1,0.4,0.1c0,0.1,0.1,0.2,0.1,0.3c0.1,0.1,0.3,0.1,0.4,0.2c0.7,0.5,1,1.5,2.1,1.6c-0.1,0.6,1.4,1,1.8,1.4
			c0.1,0.1,0.1,0.2,0.2,0.3c0.3,0.2,0.5,0,0.6,0.2c0.1,0.1,0,0.3,0.2,0.4c0.2,0.1,0.4,0,0.6,0.2v0.2c0.2,0.1,0.4,0.1,0.6,0.2
			c0,0.1,0.1,0.2,0.1,0.2c0.1,0.1,0.3-0.1,0.3-0.1c0.1,0.1,0.2,0.4,0.3,0.5c0.1,0.1,0.3,0,0.5,0.2v0.2h0.3c0.4,0.3,0.7,0.8,1.4,0.9
			v0.2h0.2c0.3,0.5,1.1,1,1.1,1.6C508.8,253.2,508.2,254.5,506.2,255.1z M469.4,223.2c-0.3,0.3-1.7,0.2-2.2,0.4
			c-0.7,0.2-1.6,0.6-2.2,1c-0.3,0.2-0.6,0.6-1,0.8c0,0.4,0,0.6,0.2,0.7c0,0.4,0.1,0.5,0.5,0.6c0.3,0.1,2.6-0.9,3-1.2h0.2
			c-0.2,0.7-0.9,1.3-1.1,2c-0.5,1.3,1.5,3,2.5,3.3c0.7,0.2,0.9-0.1,1.3-0.3c0.4-0.2,0.8-0.2,1.2-0.4c1-0.5,1.4-2.7,0.6-3.7v-0.1
			c0.5,0.1,1.2,0.8,1.6,0.6c0.7-0.4-0.3-1.5-0.4-2.2C472,224.4,471,223.2,469.4,223.2z M487.1,238.8h-0.8c-0.1,0.1-0.3,0.1-0.6,0.1
			c-0.2,0.2-0.5,0.5-0.8,0.6c0,0.4-0.4,1.1-0.1,1.5c0.2,1.7,2.8,1,3.2-0.2c0.2-0.2,0.1-0.7-0.1-0.9
			C487.9,239.3,487.4,239.3,487.1,238.8z M470.9,249.8c-0.1,0,0-0.2-0.2-0.2c-0.1,0.1-0.1,0.2-0.2,0.2c-0.8,0.3-1.6-0.1-2.5,0.1
			c-2.3,0.5-5.6,0.1-8.3-0.6c-0.3,0-0.7-0.1-1-0.1c-0.4-0.1-0.8-0.4-1.1-0.5h-0.6c-0.8-0.3-1.4-0.8-2.2-0.4c0,0.1,0,0.1,0.1,0.2
			c0,0.9,0.6,0.5,0.7,1c0.7,0.1,1.1,0.6,1.9,0.6c-0.1,0.1,0,0-0.2,0.1c0.1,0.1,1.8,0.6,1.9,0.6c0.2,0.1,0.1-0.2,0.4-0.2
			c0.2,0.1,0.4,0.3,0.5,0.3c0.2,0,0.3-0.1,0.5-0.1c0.1,0.1,0.1,0.2,0.2,0.2l0.7-0.1c0.2,0.1,0.4,0.3,0.6,0.3c0.4,0.1,0.7-0.2,1.3,0
			c1.9,0.5,3.1,0.3,5.2,0c1.3-0.2,2.3-0.2,3.4-0.9C471.8,249.7,471.5,250,470.9,249.8z M463.4,255.9c-0.2-0.1-0.8-0.1-1.1-0.1
			c-0.1,0.1-0.3,0.2-0.4,0.3c0.1,0.5,0.4,0.8,0.6,1.2c0.4,0.1,0.6,0.2,1.1,0.2c0.2-0.2,0.4-0.2,0.5-0.5
			C464.3,256.8,463.8,256,463.4,255.9z M460.7,257.7c-0.1,0.1-0.3,0.2-0.5,0.3c0,0.7,0.5,1.3,1.1,1.4c0.1,0.1,0.5,0.1,0.6,0
			c0.2-0.1,0.2-0.2,0.4-0.3c0-0.8-0.3-0.9-0.6-1.4C461.5,257.7,461.1,257.7,460.7,257.7z M460,261.1c-0.2-0.1-0.6-0.2-0.9-0.2
			c-0.2,0.1-0.4,0.3-0.6,0.3c0,0.7,0.3,0.7,0.5,1.2c0.3,0.1,0.7,0.2,0.9,0.3c0.5,0,0.7-0.3,0.8-0.6
			C460.8,261.8,460.4,261.2,460,261.1z M456.7,266c-0.2,0.2-0.5,0.1-0.7,0.3c-0.1,0.1-0.2,0.4-0.2,0.5c0,0.9,0.8,0.8,1.4,1.2
			C458.9,267.8,458.1,266.2,456.7,266z M454.6,269.5c-0.1,0.2-0.2,0.2-0.3,0.3c0,1,0.6,1,1.1,1.4c0.7,0,0.7-0.2,1-0.5
			C456.4,269.9,455.4,269.6,454.6,269.5z M451.9,274.5c-0.1,0.1-0.4,0.2-0.6,0.3c0,0.2-0.1,0.1,0,0.2c0.1,0.6,1.1,1.5,1.7,1.2
			c0.5,0,0.5-0.3,0.8-0.5C453.8,274.6,453.1,274.4,451.9,274.5z M452,280.1c0,0.1,0,0.1-0.1,0.2c0.1,0.5,0.3,0.8,0.6,1
			c0.2,0.1,0.6,0.1,0.8,0.2c0.5-0.1,0.6-0.3,0.9-0.6c-0.1-0.6-0.4-0.7-0.7-1c-0.3,0-0.6-0.1-1-0.1C452.5,280,452.2,280.1,452,280.1z
			 M451,286c0.1-0.1,0.3-0.2,0.5-0.3c0-0.1,0-0.1,0.1-0.2c0-0.5-0.2-0.6-0.4-1c-0.3-0.1-0.6-0.2-0.9-0.2c-0.4,0.3-0.6,0.5-1,0.8
			C449.4,285.7,450.4,285.9,451,286z M449.6,291.4c0.3-0.3,0.7-0.3,0.9-0.7l0.1-0.1h-0.1c0-0.4,0-0.5-0.2-0.7
			c-0.2-0.2-0.5-0.3-0.9-0.3c-0.3,0.3-0.8,0.5-1.1,0.8C448.3,291,449.1,291.3,449.6,291.4z M447,294.4c0.1-0.1,0.2-0.2,0.2-0.2
			c0-1-0.5-1.1-0.9-1.7c-0.2,0-0.5-0.1-0.7-0.1c-0.2,0.2-0.6,0.3-0.9,0.5c0,1.2,0.8,1.2,1.5,1.8C446.6,294.6,446.8,294.6,447,294.4z
			 M447.8,299.6c-0.2-0.1-0.5-0.2-0.8-0.2c-0.2,0.2-0.5,0.5-0.8,0.7c0.1,0.7,0.7,0.6,1.1,1c0.5-0.1,0.8-0.3,1.1-0.6
			c0-0.2,0.1-0.2,0-0.3C448.4,299.9,448.1,299.7,447.8,299.6z M447,308.4h-0.9c-0.3,0.2-0.6,0.3-0.7,0.7h-0.1
			c0.1,0.3,0.3,0.4,0.5,0.6c1,0,1.1-0.1,1.7-0.3C447.4,309,447.2,308.7,447,308.4z M447.3,313.7c-0.2,0.2-0.4,0.4-0.6,0.6
			c0.1,0.4,0.2,0.4,0.3,0.6c0.3,0.1,0.6,0.3,0.8,0.2c0.6,0,0.6-0.2,0.9-0.4c0-0.6-0.2-0.7-0.4-1h-0.6
			C447.6,313.7,447.5,313.7,447.3,313.7z M380.6,328.6c-0.2,0-1.9-0.5-2.1-0.6c-0.1,0-0.1-0.3-0.2-0.3c-0.2-0.1-0.5-0.2-0.6-0.4
			c-0.2-0.3-0.3-0.7-0.6-0.9c0-2.6,0.5-4.3,1.6-6.1c0.4-0.7,1.3-1.3,1.7-2.1c0.1-0.1,0-0.1,0.1-0.2c0.7-0.2,1.9-1.9,2.5-2.4
			c0-0.1-0.1-0.3-0.1-0.4c-0.2,0-0.1-0.1-0.2,0c-0.5,0.1-0.5,0.4-0.8,0.6c-0.2,0.1-0.4,0.1-0.6,0.2c-0.4,0.3-0.6,0.8-1,1.1
			c-1.5,1.4-2.9,3.3-3.8,5.6c-0.2,0.6-0.6,1.5-0.5,2.1c0.1,0.8-0.2,1.4,0.1,2.2c0.7,1.8,3.2,3,5.7,2.6c0.7-0.1,2.2,0.2,2.8-0.3
			c0.2-0.1,0.2-0.3,0.4-0.5c0-0.2,0-0.4-0.1-0.5C384.1,327.7,381.9,328.9,380.6,328.6z M450.8,317.5c0.5,0,1-0.3,1.1-0.7
			c0.1-0.1,0-0.2-0.1-0.4c-0.1-0.4-0.5-0.4-1-0.4c-0.1,0.1-0.4,0.1-0.5,0.2c-0.2,0.1-0.2,0.2-0.4,0.3
			C450,317.3,450.5,317,450.8,317.5z M360.2,319.6c0.2-0.2,0.4-0.4,0.6-0.6c0-0.3-0.1-0.7-0.2-1c-0.1-0.3-0.3-0.4-0.6-0.5
			c-0.1,0.1-0.4,0.1-0.5,0.2c0,0.2-0.1,0.6-0.2,0.8c0,0.6,0.3,0.6,0.4,1C359.9,319.6,359.9,319.6,360.2,319.6z M371.1,318.8v-0.2
			c-0.2,0.1-0.1,0-0.2,0.2L371.1,318.8C371.2,318.9,371.2,318.9,371.1,318.8z M369.5,319.8c-0.2,0.2-0.3,0.4-0.5,0.6
			c-1,0.7-1.8,1.6-2.6,2.4c-0.8,0.7-1.3,2-2.2,2.6v0.2h-0.2c-0.3,0.6-1,1-1.3,1.7c-0.1,0.1,0,0.1-0.1,0.2c-0.6,0.2-0.5,0.6-0.8,1.1
			c-0.1,0.2-0.5,0.3-0.6,0.5c-0.1,0.1,0,0.3,0.1,0.3h-0.2c-0.3,0.2-0.4,0.7-0.6,1.1c-0.3,0.5-0.8,1.1-1.1,1.5
			c-0.9,1.6-1.6,3.2-2.6,4.7c-0.6,0.9-1.4,2.4-1.2,3.8c0.1,0.5,0.4,0.7,0.6,1c0.2,0.3,0.6,0.8,0.7,1.1v0.3c0.2,0.2,0.6,0.4,0.8,0.6
			c0.1,0.1,0.1,0.2,0.2,0.3c0.2,0.2,0.5,0.3,0.7,0.5c0.2,0.2,0.3,0.5,0.5,0.6c0.2,0.2,0.6,0.3,0.8,0.6c0.3,0.3,1.3,2,1.9,1.6
			c0.1,0,0.2-0.1,0.2-0.1c0-0.5,0.1-0.8,0.1-1.2c-0.3-0.3-0.7-0.7-1-1h-0.2c-0.1-0.1-0.1-0.3-0.2-0.4c-0.2-0.2-0.7-0.3-1-0.6
			c-0.1-0.1-0.1-0.4-0.2-0.5c-0.3-0.2-0.6-0.2-0.9-0.4c-0.2-0.2-0.2-0.3-0.2-0.5c-0.3-0.4-0.9-0.7-1.1-1.1c-0.1-0.2-0.1-0.4-0.2-0.6
			l-0.3-0.3c0,0,0.1-0.2,0.1-0.3c-0.1-0.6,0-1.1,0.2-1.7c0-0.1,0.1-0.4,0-0.6c0.1-0.1,0.2,0,0.3-0.1c0.2-0.2,0.1-0.5,0.2-0.8
			c0.1-0.2,0.5-0.5,0.6-0.7v-0.5c0.1,0,0.2-0.1,0.2-0.1c0-0.2,0.1-0.4,0.1-0.6c0.1-0.1,0.3-0.2,0.4-0.3c0-0.1-0.1-0.2-0.1-0.2
			c0.1-0.2,0.4-0.2,0.6-0.4c0.1-0.2,0.1-0.5,0.2-0.7c0.2-0.4,0.6-0.7,0.7-1c0.2-0.3,0.1-0.6,0.3-0.9c0.2-0.4,0.7-0.8,0.6-1.2
			c1.2-1,1.9-2.5,2.8-3.8c0.2-0.1,0.4-0.2,0.6-0.3c0.2-0.2,0.1-0.5,0.2-0.6c0.1-0.1,0.3,0,0.4-0.1l0.6-0.7c0.1-0.2,0-0.3,0.2-0.5
			h0.2c0.2-0.2,0.4-0.4,0.6-0.6c0-0.1,0.1-0.2,0.1-0.3c0.2-0.2,0.5-0.2,0.7-0.4c0.3-0.4,0.4-0.7,0.9-1V322c0.8-0.1,0.8-0.9,1.5-1.1
			v-0.2c0.7-0.1,0.8-0.7,1.3-1v-0.2c0.3-0.1,0.3-0.1,0.5-0.2v-0.1l-0.8-0.1C370.3,319.4,369.9,319.5,369.5,319.8z M449.6,322.5
			c0.6,0,0.7-0.2,1-0.5c0-0.3,0-0.4-0.2-0.6c-0.2-0.4-0.8-0.5-1.5-0.5c-0.2,0.2-0.4,0.4-0.6,0.6
			C448.5,322.5,449.1,322.2,449.6,322.5z M357.2,324.7c-0.1-0.1,0,0-0.1-0.2c-2,0.7-3.4,1.7-5,2.7c-0.4,0.2-0.8,0.3-1.1,0.6
			c-0.2,0.2-0.1,0.4-0.2,0.5c-0.6,0.5-1.6,0.8-2.2,1.3c-1.7,1.4-3.6,2.7-5.3,4.2c-0.2,0.1-0.4,0-0.6,0.2c-0.2,0.2-0.5,0.7-0.8,0.9
			c-1.2,0.9-2.5,1.7-3.7,2.7c-0.2,0.1-0.2,0.4-0.4,0.6c-0.7,0.7-1.5,1.2-2.2,1.8c-0.1,0.1-0.1,0.3-0.2,0.5c0,0.1,0,0-0.1,0
			c-0.7,0-1.7,1.2-2,1.7c0,0.1,0.1,0.2,0.1,0.2c-0.1,0-0.2,0.1-0.2,0.1c-0.2,0.3-0.3,1.2-0.2,1.4c0,1.3,1.7,1.5,2.6,1.9
			c0.4,0,0.8,0.1,1.2,0.1c2.1,0.6,4.1,0.7,6,1.2c1.1,0.3,2,0.1,3,0.4c0.5,0,1,0.1,1.4,0.1c0.4,0.1,2.7,0.4,3.1,0.2h0.3
			c0.1-0.1,0-0.1,0.1-0.2v-0.2c-1.9-0.4-4.7-0.6-6.9-1.2c-0.5-0.1-1.1-0.1-1.6-0.2c-0.1,0-0.1-0.2-0.2-0.2H341
			c-0.3-0.1-0.6-0.3-0.9-0.3h-0.8c-0.4-0.1-1.1-0.4-1.4-0.4c-0.2,0-0.5,0.1-0.6,0.1c-1-0.3-2.2-0.7-3.2-1c0-0.2-0.1-0.2-0.2-0.3
			c0-0.5,0.2-0.5,0.3-1c0.3,0.2,0.2,0.3,0.6,0.3c0-0.4-0.1-0.5-0.2-0.7c0.8-0.6,1.4-1.5,2.1-2.2c0.3-0.3,0.8-0.5,0.8-0.9h0.4
			c0-0.2,2.5-2.3,2.9-2.6c0.2-0.1,0.4-0.1,0.6-0.2c0.4-0.3,0.6-0.5,1-0.8c0.2-0.1,0.3-0.4,0.5-0.6c0.6-0.4,1.1-0.6,1.6-1
			c0-0.1,0.1-0.2,0.1-0.2c0.4-0.4,1.1-0.5,1.5-1v-0.2c0.2-0.2,0.7-0.3,1-0.5c0.8-0.5,1.5-1.3,2.2-1.9c0.4-0.3,0.8-0.4,1.1-0.8h0.3
			V329c0.1,0,0.2,0.1,0.2,0.1c0.1-0.3,3.1-2.5,3.8-2.6v-0.2c0.8-0.3,1.9-0.7,2.5-1.4C357.2,324.8,357.1,324.8,357.2,324.7z
			 M447.2,334.2c0,0.1,0.1,0.2,0.2,0.3c0.2,0.5,0.6,0.4,1,0.7c0.5,0,0.7,0,1-0.2c0.2-0.3,0.1-0.4,0.1-0.7c-0.3-0.2-0.5-0.4-0.7-0.6
			H448C447.8,333.8,447.5,334,447.2,334.2z M368.9,334.2h-0.6c-0.1,0.2-0.4,0.6-0.2,0.9c0,0.7,0.3,0.8,0.7,1.1
			c0.3-0.1,0.5-0.3,0.7-0.5c0-0.4,0-0.7-0.2-1C369.3,334.4,369.1,334.4,368.9,334.2z M349.7,335.2c-0.2-0.2-0.4-0.4-0.5-0.6
			c-0.2-0.1-0.4-0.1-0.6-0.2l-0.3,0.3v0.7c0.2,0.2,0.4,0.5,0.7,0.6c0.2,0.1,0.5-0.1,0.6-0.2C349.6,335.9,349.6,335.4,349.7,335.2z
			 M349.6,338.9c-0.1,0.1-0.3,0.2-0.4,0.2v0.6c0.3,0.3,0.4,0.8,1,1c0.2,0.1,0.4,0,0.6-0.1c0.1-0.3,0.1-0.6,0.1-1
			c-0.2-0.2-0.4-0.5-0.6-0.7C350.1,338.9,349.8,338.9,349.6,338.9z M342.1,339c-0.3,0-0.4,0.1-0.6,0.2c0,0.4,0,0.5-0.1,1
			c0.4,0.1,0.5,0.4,1,0.5c0.1-0.1,0.3-0.2,0.4-0.2c0-0.1,0-0.1,0.1-0.2C342.8,339.4,342.5,339.4,342.1,339z M446.5,339.5
			c0,0.1,0,0.1-0.1,0.2c0,0.7,1,1.4,1.4,1.1c0.7,0,0.8-0.1,1.1-0.4c0-1-0.7-1.3-1.5-1.4C447.2,339.2,446.8,339.4,446.5,339.5z
			 M332.5,340.9c0.6,0,0.6-0.2,0.9-0.6c0,0,0-0.3-0.1-0.2c0,0-0.1,0.1-0.1,0.1c0.1-0.2,0.2-0.2,0.1-0.2c-0.1-0.4-0.5-0.6-0.6-1h-0.7
			c-0.1,0.1,0,0.1-0.2,0.2c0,0.2,0,0.5-0.1,0.6C331.7,340.4,332.1,340.6,332.5,340.9z M326.8,341.6c-0.2-0.5-0.3-0.7-0.6-1.2
			c-0.2-0.1-0.4-0.1-0.6-0.2c-0.1,0.1-0.3,0.2-0.5,0.3c0,0.3,0,0.5,0.2,0.7c0.1,0.5,0.5,0.5,0.8,0.7
			C326.4,341.9,326.4,341.7,326.8,341.6z M328.3,343.8c0.2-0.1,0.2-0.1,0.3-0.2c0-0.2,0-0.4,0.1-0.5c-0.1-0.7-0.5-0.7-0.7-1.1h-0.7
			c-0.1,0.1-0.1,0-0.2,0.1c0,0-0.1,0.1-0.1,0.1C327,342.9,327.5,344.4,328.3,343.8z M325.8,345.1c-0.1,0.2-0.2,0.4-0.1,0.6
			c0,0.6,0.6,1,1,1.3c0.2,0.2,0.8-0.4,1-0.6c-0.1-0.8-0.4-1-0.8-1.4H326C326,345,325.9,345.1,325.8,345.1z M443.2,346.1
			c-0.2,0.1-0.2,0.3-0.3,0.5c0.1,0.7,0.3,0.3,0.5,0.6c0,0.1,0.1,0.7,0.2,0.8c0.3,0.1,0.8,0.1,1,0.3c0.5,0,0.6-0.2,1-0.3
			c0-0.1,0-0.1,0.1-0.2c-0.1-0.9-0.7-1.9-1.8-2C443.6,345.9,443.3,346,443.2,346.1z M332.7,348.6v-0.7c-0.2-0.2-0.2-0.5-0.4-0.6
			c-0.3-0.3-1.1-0.6-1.4-1c-0.5,0-0.7,0-0.8,0.3c-0.1,0.1,0.1,0.2,0.1,0.2c-0.5,0.6,0.7,1.2,0.9,1.6h0.2v0.2
			c0.2,0.1,0.4,0.1,0.6,0.2C332.4,348.9,332.4,348.8,332.7,348.6z M323.6,346.5c-0.1,0.1-0.2,0.1-0.2,0.2c-0.1,0-0.2,0.1-0.2,0.1
			c0,1.1,0.5,1.1,0.8,1.7c0.2,0,0.5,0,0.6-0.1c0.2-0.1,0.2-0.1,0.4-0.2c0-0.2,0-0.2,0.1-0.3c-0.1-0.4-0.4-0.8-0.6-1.1
			C324.2,346.5,324,346.5,323.6,346.5z M327.7,349.8c0.2,0,0.3,0,0.4-0.1c0.3-0.7-0.5-1.1-0.6-1.8c-0.1,0-0.1,0-0.2-0.1
			c-0.4,0-0.6,0-0.8,0.2c-0.3,0.4-0.3,0.7-0.2,1.1h0.2v0.2C327,349.6,327.3,350.1,327.7,349.8z M343.9,350c-0.1,0.1,0,0-0.2,0.1
			c-0.3,1,0.1,1.3,0.2,2c0.3,0.1,0.6,0.1,1.1,0.1c0.1-0.1,0.2-0.2,0.4-0.2c0-0.3,0-0.7,0-0.7C345.4,350.3,344.7,350.1,343.9,350z
			 M326.6,352.1c0.4,0,0.6,0,0.7-0.2c0-0.3-0.4-0.9-0.4-1.2c-0.3-0.1-0.5-0.3-1-0.3c-0.1,0.1-0.2,0.2-0.3,0.2c0,0.7,0.2,1,0.5,1.4
			C326.3,352.1,326.5,352.1,326.6,352.1z M329.4,350.6c-0.4-0.3-1,0.1-1.2,0.2c0.1,0.9,0.6,1.2,1,1.7c0.3,0,0.6-0.1,0.9-0.1
			c0.1-0.5,0.2-0.5,0.2-1C329.9,351.1,329.8,350.8,329.4,350.6z M337,352.5c-0.1-0.6-0.3-0.9-0.3-1.5c-0.5-0.1-0.7-0.1-1.3-0.1
			c-0.2,0.9,0.2,1.1,0.6,1.6H337z M335.4,355.4c0-0.9-0.3-1.1-0.6-1.6c-0.3-0.1-0.5-0.2-1-0.2c-0.1,0.1,0,0.1-0.2,0.2
			c-0.1,0.7-0.1,1,0.2,1.4c0.2,0.3,0.6,0.3,0.9,0.5C335,355.7,335.1,355.6,335.4,355.4z M328.7,354c-0.3,0.1-0.3,0.1-0.4,0.3h-0.1
			c-0.2,0,0.2,0.1,0.2,0.1c-0.2,0.4-0.4,0-0.8,0.1c-0.2,0.2-0.4,0.3-0.6,0.5c0,0.8,0.5,1.4,1.1,1.5c-0.1,0.1-0.1,0-0.2,0.1
			c0,0.4-0.2,0.3-0.2,1c-0.4-0.2-0.9-0.6-1.2-1c-0.2,0-0.4,0-0.5,0.1c-0.3,0-0.3,0-0.5,0.2c-0.2,0.2-0.1,0.6-0.1,0.7
			c0.1,0.5,0.4,0.5,0.6,0.9h0.3c0.1,0.5,0.3,0.5,0.6,0.8c0.5,0,0.8-0.1,1-0.3c0.1-0.2,0.1-0.8,0.1-1c0.4,0.1,0.7,0.2,1,0
			c0.2-0.3,0.1-0.5,0.3-0.6c-0.1-0.4-0.3-0.9-0.9-1v-0.1c0.1,0,0.1-0.1,0.3-0.1c0-0.4-0.1-0.7-0.3-1v-0.2c0.2,0,0.3,0.1,0.5,0.1v0.2
			c0.3-0.1,0.4,0,0.7,0c0-0.2,0-0.2,0.1-0.2c0-0.7-0.2-0.8-0.4-1.2C329.1,354,328.9,353.8,328.7,354z M333.3,355.3
			c-0.2-0.2-0.6-0.4-1-0.5c-0.1,0.1-0.4,0.2-0.6,0.2c0,1,0.3,1.1,0.6,1.6c1.1,0,0.9-0.5,1.1-1c-0.2-0.1-0.1-0.1-0.4-0.2
			C333.2,355.4,333.2,355.3,333.3,355.3z M338,355.3c-0.1,0.1-0.3,0.2-0.4,0.3c0,0.4,0.1,0.4,0,0.6c0.2,0.2,0.5,0.4,0.6,0.7
			c0.3,0,0.6,0.2,0.9,0c0.2-0.1,0.2-0.1,0.3-0.2c-0.1-0.7-0.3-0.9-0.6-1.4C338.5,355.3,338.3,355.3,338,355.3z M348.7,356.1
			c-0.2-0.1-0.5-0.1-0.8-0.1c-0.1,0.1,0,0.1-0.2,0.2c0,0.2-0.1,0.5,0,0.7c0,0.6,0.3,1,0.7,1.1c0.3,0.2,0.8,0,1-0.2
			c0.2-0.2,0.1-0.5,0.2-0.9C349.3,356.7,349.2,356.3,348.7,356.1z M343.9,357.2c-0.3,0-0.5-0.1-0.8-0.1c-0.1,0.1-0.3,0.4-0.4,0.5
			c0,0.5,0.2,0.7,0.1,1c0.2,0.1,0.8,0,1,0.2c0.4,0,0.3-0.1,0.6-0.2c0-0.5-0.1-0.8-0.2-1C344.1,357.4,344,357.4,343.9,357.2z
			 M335.7,358.5c-0.2-0.1-0.2-0.4-0.3-0.6c-0.1-0.1-0.3-0.1-0.4-0.2c-0.2,0-0.4,0-0.6,0.1c-0.2,0.1-0.2,0.1-0.3,0.2
			c0,0.7,0.2,1.2,0.6,1.4c0.2,0,0.4,0.1,0.6,0.1c0.7,0.4,0.5,0.9,1.6,0.8c0-0.3,0-0.5,0.2-0.6C337.1,358.5,336.3,359,335.7,358.5z
			 M341.8,359.7c-0.2,0.2,0,0.2-0.3,0.3c0.1,0.3,0.3,0.7,0.2,0.9c0.2,0.2,0.5,0.3,0.7,0.5c0.2,0,0.3,0,0.4-0.1
			c0.3-0.1,0.3-0.2,0.5-0.4c0-0.3,0.1-0.5,0.1-0.8c-0.1,0-0.9-0.5-1-0.6C342.1,359.5,342,359.5,341.8,359.7z M353.7,361.2h-0.6
			c-0.1,0.1-0.1,0.1-0.2,0.2c-0.1,0.2-0.3,0.6-0.1,0.9c0.1,0.4,0.2,0.4,0.3,0.7c0.3,0.1,0.4,0.1,0.8,0.2c0.4-0.4,0.4-0.5,0.4-1.3
			C354.2,361.6,354,361.4,353.7,361.2z M424.8,401.1c0.1,0.1,0.1,0,0.2,0.1c0.1,0.5,0.3,0.6,0.6,0.9c0.1,0.2,0.2,0.5,0.2,0.7
			c0.4,0.4,1.5,1.9,1.6,2.5c0.3,0,0.7,0.2,0.7,0.2c0.2,0,0.3,0,0.4-0.1c0-0.1,0-0.1,0.1-0.2c0-0.8-0.6-1.4-1-1.8
			c0.1-0.1-0.6-1.6-0.8-1.8c-0.2-0.3-0.4-0.7-0.6-1c-0.9-1.1-2.6-2.2-2.4-3.9h-0.2v-0.3c0.1,0,0.1,0,0.2-0.1c0.4,0.3,1,0.5,1.3,1
			h0.4v0.2c0.6,0.1,0.9,0.5,1.4,0.7h0.4c0.1,0,0.1,0.3,0.2,0.3c0.2,0.1,0.8,0.4,1,0.3l0.1-0.1c0.4,0.2,0.9,0.5,1.3,0.6
			c0.2,0.1,0.3,0,0.4,0c0.6,0.3,1.1,1.2,2.2,0.8c0.4-0.2,0.4-0.6,0.3-1c-1.2-0.5-1.9-1.1-3-1.5c-0.2,0-0.4-0.1-0.6-0.1
			c-0.7-0.4-1.5-0.8-2.3-1.2c-0.4-0.2-1.2-1-1.5-1c-0.7-0.2-1.7-1.3-2.6-0.7c-0.3,0.1-0.4,0.4-0.6,0.6c-0.1,0.5,0,1-0.1,1.5
			c0.3,0.1,0.3,1.2,0.6,1.6C423.3,399.3,423.9,400.2,424.8,401.1z M417.2,396.7c0.2,0.3-0.2,0.8-0.3,1.1c-0.1,0.3-0.1,1.7-0.2,2
			c-0.1,1.3,0,2.4-0.3,3.5c-0.2,0.6,0.1,1.2-0.2,1.7c0,0.7,0.1,0.7,0.4,1c0.1,0,0.1,0,0.2-0.1c0.3,0,0.3-0.1,0.6-0.2
			c0.3-1.3,0.6-3,0.8-4.2c0-0.2-0.1-0.4-0.1-0.6c0-0.5,0.2-0.8,0.2-1.3c0-0.3-0.1-0.8,0-1.3c0.1-0.5,0.4-0.8,0.6-1.3
			c0.3-0.1,0.2-0.1,0.5-0.2c0.1,0.1,0.1,0,0.2,0.1c-0.1,0.4,0.5,1,0.7,1.4c0.2,0.3,0.1,0.5,0.2,0.8c0.1,0.3,0.5,0.5,0.6,0.8v0.3
			c0.1,0.1,0.4,0.2,0.5,0.3c0.2,0.3,1.1,1.8,1.1,2.2c0.1,0,1,1,1,1.1v0.4c0.3,0.4,0.8,0.6,1.1,1c0.1,0.1,0,0.1,0.1,0.2
			c0.5,0.1,0.5,0.5,1.4,0.5l0.1-0.8c-0.2-0.4-0.7-0.5-0.5-1.1c-0.4-0.2-1.1-0.6-1.3-1c0-0.2-0.1-0.4-0.1-0.6c-0.1-0.1-0.2,0-0.3-0.1
			c0,0-0.5-0.6-0.6-0.6c-0.2-0.4-0.2-0.8-0.4-1.2c-0.1,0-0.2-0.1-0.2-0.1c-0.1-0.2,0-0.4-0.2-0.6c-0.3-0.5-0.9-1.1-1.2-1.7
			c-0.6-1.4-1-3-3-3C418.2,395.8,417.6,396.2,417.2,396.7z M383.6,403.6c0.2,0.8,1.8,0.7,1.8,1.4c0.2-0.1,0.2-0.1,0.3-0.2
			c0.2,0.4,0.5,0.4,1,0.6c0.9,0.4,2.3,1,3.3,1.4c0.2-0.1,0.3-0.3,0.5-0.4c0-0.2,0-0.2,0.1-0.3c-0.1-1.3-2.7-1.4-3.7-2
			c-0.4-0.3-0.8-0.8-1.3-0.7c0,0-0.1-0.1-0.1-0.1v-0.2c1.4-0.2,3.1,0.6,4.4,1c0.8,0.2,1.7,0.2,3,0.2c0.1-0.1,0.3-0.2,0.4-0.3
			c0-0.5-0.2-0.5-0.2-0.9c-0.9,0-1.4-0.3-1.9-0.5c-0.2-0.1-1.2-0.2-1.2-0.2c-0.1,0-0.2-0.3-0.2-0.3c-0.2-0.1-0.6,0-0.7,0
			c-0.6-0.1-1.1-0.3-1.4-0.5c-0.2-0.1-0.5,0.1-0.6,0.1c-0.6-0.1-1.1-0.2-1.6-0.3c-0.6,0.1-1.5,0.3-2,0.1l-0.6,0.6
			c0.1,0.7,0.4,1.1,0.6,1.6L383.6,403.6L383.6,403.6z M379.1,402.3c-1.3,0.4-1.1,1.2-1.4,2.4v0.6c-0.1,0.4-0.3,1-0.2,1.4
			c-0.1,0.4-0.3,1-0.2,1.4c0.2,0.6,0.8,0.9,1.1,1.4h0.2v0.2c1.1,0.5,1.5,1.1,3,1.1c0.1-0.1,0.3-0.2,0.4-0.3c0-0.3,0-0.6,0.2-0.8
			v-0.1h-0.3v-0.2c-0.3,0.1-0.4,0.1-0.7,0.2c0-0.1-2.1-1.5-2.1-1.5c0-0.3-0.2-0.4-0.1-0.8c0.2-1.2,0.5-2.2,0.6-3.2
			c0.3,0.1,0.8,0.2,1,0.4c0.1,0,0.1,0.3,0.2,0.3c0.2,0.1,0.5,0,0.6,0.2c0.1,0.1,0.1,0.3,0.2,0.3c0.1,0.1,0.4,0,0.4,0v0.2
			c0.4,0.5,1.1,0.8,1.6,1.1c0,0.1,0.1,0.2,0.1,0.2c0.2,0,0.4,0.1,0.6,0.1c0.1,0.1,0.3,0.3,0.5,0.4c0.1,0,0.2-0.1,0.2-0.1
			c0,0,0,0.5,0.1,0.3c0,0,0.1-0.1,0.1-0.1v0.2h0.2c0.1,0.3,0.1,0.3,0.2,0.5h0.2c0,0.2,0,0.2,0.1,0.2c0.2,0.3,0.5,0.3,0.8,0.6
			c0.6,0,0.5-0.1,0.8-0.3c0-0.5-0.1-0.8-0.4-1.1c-0.1,0-0.2-0.1-0.3-0.1c-0.1-0.2-0.3-0.7-0.4-0.9c-0.1-0.1-0.2-0.1-0.4-0.2
			c-0.2-0.2-0.4-0.5-0.6-0.7c-0.4-0.3-0.9-0.3-1.4-0.6c-0.1-0.1-0.2-0.4-0.3-0.5c-0.3-0.2-0.6-0.3-0.9-0.5c-0.1-0.1-0.2-0.4-0.3-0.5
			c-0.3-0.2-0.8-0.3-1-0.5c-0.1-0.1-0.1-0.3-0.2-0.4C380.9,402.5,379.6,402.1,379.1,402.3z"/>
	</g>
</g>
</svg>
