<?xml version="1.0" encoding="utf-8"?>
<!-- Generator: Adobe Illustrator 21.0.0, SVG Export Plug-In . SVG Version: 6.00 Build 0)  -->
<svg version="1.1" id="Calque_1" xmlns="http://www.w3.org/2000/svg" xmlns:xlink="http://www.w3.org/1999/xlink" x="0px" y="0px"
	 viewBox="0 0 841 595" style="enable-background:new 0 0 841 595;" xml:space="preserve">
<style type="text/css">
	.st0{fill:#DADADA;}
</style>
<path class="st0" d="M483,409.3c-15.9,5.1-44.6,8.5-77.4,8.5c-50,0-90.6-7.9-90.6-17.7c0-9.8,40.6-17.7,90.6-17.7
	c15.3,0,33.4,0.5,46.1,1.8c0,0,11,7.6,13.3,10.4c2.3,2.8,12.1,8.6,11.5,9.3C475.9,404.7,483,409.3,483,409.3z"/>
<g>
	<g>
		<path d="M538.8,359.3c-0.6-0.9-2.2-1.1-3.1-1.7c-0.9-0.6-2-1.3-2.8-1.8c-0.3-0.2-0.6-0.1-0.9-0.3c-0.2-0.2-0.4-0.4-0.6-0.6
			c-0.4-0.3-1-0.2-1.5-0.5c-0.9-0.4-1.8-1-2.7-1.5c-1-0.5-1.9-0.7-2.9-1.1c-0.8-0.3-1.5-1-2.4-1.4c-0.6-0.2-1.2-0.2-1.7-0.5
			c-0.1-0.2-0.2-0.3-0.3-0.5c-0.6-0.3-1.4-0.2-2-0.5c-0.2-0.2-0.3-0.3-0.5-0.5h-0.8c-0.2-0.1-0.3-0.3-0.5-0.5
			c-0.3-0.1-0.7-0.2-1-0.4c-0.2-0.2-0.3-0.3-0.5-0.5l-1.4-0.3c-0.2-0.1-0.4-0.4-0.6-0.6c-0.5-0.3-1-0.4-1.6-0.6
			c-0.3-0.1-0.5-0.4-0.7-0.6c-0.4-0.2-1,0-1.3-0.1c-0.1-0.1-0.1-0.2-0.2-0.3c-0.2-0.1-0.4-0.1-0.6-0.2c-0.3-0.2-0.7-0.6-1-0.8
			c-0.2,0-0.5-0.1-0.7-0.1c-0.2-0.2-0.3-0.4-0.5-0.6c-0.5-0.3-1.1-0.4-1.7-0.7c-0.2-0.3-0.5-0.6-0.7-0.9c-0.4-0.2-0.7-0.1-1.1-0.3
			c-0.2-0.2-0.4-0.5-0.6-0.7c-1.3-0.9-2.8-1.5-4.3-2.1c-0.4-0.2-0.7-0.6-1-0.7c-0.9-0.4-2.3-0.3-3.2-0.7c-0.2-0.1-0.5-0.3-0.6-0.5
			c-0.2,0-0.3-0.1-0.5-0.1c-0.1-0.2-0.2-0.3-0.4-0.5h-0.4c-0.4-0.2-0.8-0.6-1.1-0.7c-0.3-0.1-0.5,0-0.6-0.1
			c-0.3-0.1-0.5-0.4-0.7-0.6c-0.2,0-0.4-0.1-0.6-0.1c-0.5-0.2-1.1-0.6-1.7-0.8c-0.4-0.1-0.5,0.1-0.7,0c-1.1-0.3-2.2-1.2-3.2-1.7
			c-0.5-0.2-1.2-0.3-1.5-0.5c-0.2-0.3-0.4-0.6-0.6-0.9c-0.3-0.1-0.8-0.3-1.1-0.1c-0.7,0.1-0.6,0.6-0.9,1c-0.4,0.2-1-0.4-1.4-0.6
			c-0.2,0-0.4-0.1-0.6-0.1c-0.4-0.2-0.9-0.7-1.3-0.9c-0.3-0.1-0.4,0.1-0.6,0c-0.2-0.1-0.3-0.4-0.5-0.6c-0.3-0.1-0.6-0.1-0.8-0.2
			c-0.2-0.3-0.4-0.6-0.6-0.8c-0.4-0.3-0.9-0.3-1.4-0.6c-0.1-0.2-0.2-0.4-0.4-0.6c-0.3-0.2-0.7-0.2-1-0.5c-0.2-0.2-0.3-0.6-0.6-0.7
			c-0.3-0.2-0.8-0.2-1.1-0.5c-0.8-0.5-1.6-1.5-2.5-1.9c-0.5-0.3-0.9-0.3-1.5-0.6c-0.6-0.3-1-1.1-1.6-1.5c-0.3-0.2-0.7-0.2-1-0.5
			c-0.2-0.1-0.2-0.6-0.4-0.7c-0.2-0.2-0.5-0.1-0.6-0.3c-0.2-0.2-0.3-0.5-0.6-0.6c-0.2,0-0.4-0.1-0.6-0.1c-0.3-0.2-0.4-0.7-0.6-0.9
			c-0.2-0.2-0.6-0.2-0.8-0.4c-0.2-0.1-0.2-0.4-0.4-0.6c-0.8-0.7-1.6-1.1-2.5-1.7c-0.6-0.5-0.9-1.4-1.6-1.8c-0.3-0.2-0.7-0.3-1-0.6
			c-0.7-0.5-1.2-1.4-1.7-2c-0.3-0.2-0.7-0.5-1-0.7c-0.2-0.3-0.2-0.6-0.4-0.8c-0.3-0.3-0.7-0.7-1-1c-0.3-0.5-0.4-0.9-0.7-1.4
			c-0.4-0.4-0.9-0.9-1.3-1.3l-0.3-0.8c-0.2-0.3-0.8-0.4-0.9-0.6v-0.5c-0.3-0.6-1.1-1.1-1.3-1.7c0-0.2-0.1-0.5-0.1-0.7
			c-0.1-0.1-0.2-0.2-0.4-0.4c-0.3-0.4-0.3-0.9-0.6-1.4c-0.1-0.2-0.6-0.3-0.7-0.6v-0.8c-0.2-0.4-0.9-0.7-1-1.1c0-0.2,0.1-0.3,0.1-0.5
			c-0.1-0.2-0.7-1.2-0.8-1.5c-0.4-0.6-1-1.2-1.4-1.8c-0.2-0.3,0.1-0.4,0-0.6c-0.3-0.7-1.1-1.5-1.5-2.2c-0.3-0.5-0.1-1-0.5-1.5
			c-0.2-0.2-0.4-0.3-0.6-0.5c-0.6-1-0.9-2.1-1.6-3c-0.7-1-1.7-2.1-2.4-3.1c-0.6-1-0.9-2-1.6-2.9c-0.5-0.8-1.2-1.6-1.8-2.4
			c-0.2-0.2-0.4-0.4-0.6-0.6v-0.6c-0.1-0.1-0.2-0.1-0.4-0.2c-0.2-0.3,0-0.5-0.3-0.7c-0.2-0.1-0.4-0.1-0.6-0.2c0-0.2-0.1-0.3-0.1-0.5
			c-0.2-0.2-0.4-0.4-0.6-0.6c-0.3-0.5-0.5-0.8-0.8-1.3c-0.3-0.2-0.6-0.5-0.8-0.7c-0.3-0.5-0.4-0.9-0.7-1.4c-0.4-0.5-1-0.9-1.4-1.4
			c-0.2-0.3-0.1-0.9-0.4-1.2c-0.2-0.4-1.5-0.9-1.7-1.2c-0.1-0.2,0.1-0.7-0.2-1.1c-0.3-0.5-1-1.1-1.2-1.7c-0.3-0.7-0.2-1.4-0.6-2.1
			c-0.4-0.9-1.2-1.6-1.7-2.4c-0.2-0.3,0.1-0.5,0-0.8c-0.1-0.2-0.4-0.4-0.5-0.6v-0.5c-0.2-0.4-0.5-0.8-0.6-1.3
			c-0.1-0.2,0.1-0.3,0.1-0.4c-0.1-0.3-0.5-0.7-0.6-1.1c0.1-0.3,0.1-0.5,0-0.8c-0.3-0.7-0.7-1.2-0.8-2c0,0,0.1-0.1,0.1-0.1
			c0.4,0.1,1.1,0.3,1.4,0.2c0.2-0.1,0.1,0,0.2-0.1c-0.4-0.2-1-0.3-1.6-0.4c-1.3-3.1-1.8-6.8-2.7-10v-1.6c-0.1-0.6-0.4-1.4-0.5-2
			c0-0.1,0.2-0.5,0.1-0.8c-0.3-1.2-1-2.4-1.4-3.6c-0.1-0.4,0.2-0.4,0.2-0.6c-0.1-0.1-0.2-0.2-0.4-0.4c0-0.2-0.1-0.5-0.1-0.7
			c-0.1-0.3-0.4-1.1-0.6-1.4c-0.1-0.1-0.2-0.1-0.3-0.2c0-0.2-0.1-0.5-0.1-0.7c-0.1-0.3-0.4-0.5-0.6-0.7c-0.5-0.9-0.5-2-0.9-3
			c-0.2-0.2-0.4-0.4-0.6-0.6c-0.3-0.5-0.3-1.1-0.6-1.7c-0.2-0.6-0.8-1.2-1.1-1.8c-0.2-0.5-0.1-1.1-0.3-1.6c-0.2-0.4-0.7-0.9-0.8-1.3
			c0-0.1,0.2-0.2,0.1-0.4c-0.2-0.4-0.5-1.2-0.6-1.6c0-0.3-0.1-0.6-0.1-0.9c-0.3-0.8-0.9-1.7-1.1-2.4c-0.3-1-0.2-1.9-0.5-2.8v-1.5
			c-0.1-0.4-0.4-0.8-0.6-1.2c-0.2-0.6,0.1-0.9,0-1.5c-0.2-0.7-0.1-1.4-0.4-2.1c-0.4-1.1-0.9-2.3-1.3-3.2c-0.2-0.6-0.1-0.9-0.4-1.5
			c-0.2-0.5-0.7-1-0.9-1.5c0-0.2-0.1-0.4-0.1-0.6c-0.1,0-0.2-0.1-0.4-0.1c-0.3-0.4-0.7-0.8-1-1.2c-0.4-0.3-0.8-0.4-1.3-0.7
			c-0.2-0.1-0.4-0.4-0.6-0.5c-0.2-0.1-0.2,0.1-0.4,0.1c-0.5-0.2-1.4-0.6-1.8-0.9c-0.4,0.1-0.4,0.1-0.5,0.5c-0.3-0.1-0.7,0.1-1.1,0.1
			v0.3c-0.6-0.1-1.5,0.5-2.1,0.7c-0.1,0.1-0.3,0-0.5-0.2c-0.3,0.2-0.2,0.1-0.1,0.4c-0.5,0.5-1,0.6-1.6,1.1c-0.1,0.2-0.1,0.5-0.3,0.7
			c-0.3,0.3-0.8,0.5-1.2,0.7c-0.2,0.2-0.3,0.5-0.5,0.7c-0.2,0.2-0.6,0.3-0.7,0.6c-0.2,0.3,0,0.7-0.1,0.9c-0.1,0.2-0.4,0.6-0.5,0.8
			c-0.2,0.5,0.1,0.8,0,1.2c-0.1,0.5-0.6,1.1-0.3,1.7c-0.1,0.3,0,0.1-0.2,0.3c-0.2,0.1-0.1,0.1-0.3-0.1h-0.2c0.1,0.5,0.7,0.7,0.7,1.2
			c0,0.3-0.2,0.2-0.3,0.4c0.2,0.5,0.1,1.8-0.1,2.2c-0.3,0.9,0.4,1.9,0.6,2.5c0.1,0.4-0.2,0.6-0.2,0.7c-0.1,0.3,0.2,0.4,0.3,0.6
			c0.2,0.6-0.2,1.5-0.1,2c0.1,0.3,0.3,0.8,0.4,1c0,0.4,0.1,0.9,0.1,1.3c0.2,0.6,0.8,1.5,0.8,2.2c0,0.4-0.3,1.4-0.1,2
			c0.6,1.8,1.2,3.7,1.6,5.3c0,0.5-0.1,1-0.1,1.5c0.1,0.3,0.4,0.9,0.5,1.4c0,0.4-0.1,0.8-0.1,1.2c0.3,1,0.9,1.9,1.2,2.8v0.7
			c0,0.2,0.2,0.5,0.3,0.7v1.5c0.4,1.4,0.6,3.9,0.4,5.2c-0.1,0.6,0.5,1.3,0.4,1.7c-0.1,0.1-0.2,0.1-0.3,0.2c-0.2,0.5,0.1,0.8,0,1.3
			c0,0.2-0.2,0.6-0.3,0.7c-0.1,0.5,0.2,0.9,0.1,1.4c-0.1,0.4-0.5,0.6-0.6,1.2c-0.3-0.1-0.3-0.2-0.5-0.4H388c0.1,0.3,0.4,0.6,0.6,0.8
			c-0.1,0.6-0.6,1-0.8,1.5c-0.1,0.3-0.1,0.9-0.3,1.2c-0.1,0.1-0.4,0.1-0.5,0.2c0,0.2,0.1,0.4,0.1,0.6c-0.1,0-0.2,0.1-0.3,0.1v0.5
			c-0.1,0-0.2,0.1-0.3,0.1c-0.1,0.2-0.1,0.4-0.2,0.6c-0.2,0.4-0.8,0.8-1,1.2c0,0.2-0.1,0.4-0.1,0.6c-0.1,0.2-0.5,0.2-0.6,0.4v0.7
			l-0.8,0.8h-0.4c-0.9,0.5-1.7,1.7-2.7,2.2v0.3c-0.7-0.1-1.1-0.8-1.7-0.6c-0.2,0-0.6,0.4-0.8,0.5c-0.3,0-0.6,0.1-0.9,0.1l-0.3,0.3
			c-0.3,0-0.6-0.1-0.8-0.1c-0.5,0.1-1.1,0.4-1.6,0.6c-0.4,0.1-0.6-0.3-1-0.2c-0.4,0.1-0.8,0.4-1.1,0.5c-0.5,0-1-0.1-1.6-0.1
			c-0.3,0.1-0.6,0.2-0.9,0.3c-0.2,0-0.5-0.3-0.6-0.4c-0.2,0-0.3,0.2-0.5,0.2c-0.3,0-0.6-0.2-1-0.1c-0.1,0-0.4,0.3-0.5,0.3
			c-0.7,0.3-2.1-0.2-2.5-0.6c-0.1,0.1-0.1,0.1-0.1,0.3c-0.8,0-1.2-0.3-1.9-0.5c-1-0.2-1.7,0.2-2.7,0c-1-0.2-2.3-0.7-3.3-0.9
			c-0.6-0.1-1.6,0.4-2.1,0.3c-0.2,0-0.4-0.3-0.6-0.4c-0.6-0.2-1.1,0-1.7-0.3c-0.3-0.1-0.9-0.4-1.2-0.6c-0.5-0.2-0.9,0.3-1.3,0.2
			c-0.4-0.1-0.9-0.6-1.3-0.7c-0.6-0.2-1,0-1.6-0.2c-0.8-0.3-1.6-0.8-2.4-1.1c-0.6-0.2-1.2-0.1-1.8-0.4c-0.5-0.2-1.1-0.6-1.7-0.7
			c-0.4,0-0.8-0.1-1.2-0.1c-0.4-0.2-0.8-0.6-1.3-0.7h-0.9c-0.4-0.1-0.9-0.4-1.3-0.5h-0.6c-0.4-0.2-0.8-0.7-1.3-0.8
			c-0.4-0.1-0.5,0.1-0.8,0c-0.4-0.1-0.8-0.4-1.2-0.6c-0.4,0-0.8-0.1-1.2-0.1c-0.9-0.3-2.2-0.8-3.1-1.1c-0.6-0.2-1.4-0.1-1.9-0.2
			c-0.3,0-0.6,0.2-0.8,0.3c-0.8,0-1.7-0.1-2.5-0.1c-0.1,0-1.2-0.1-1.3,0c-0.2,0.1-0.8,0.4-1,0.5c-0.2,0-0.5-0.2-0.8-0.1
			c-0.2,0.1-0.2,0.2-0.6,0.3c-0.2,1.4-1.5,1.6-2,2.6c-0.2,0.3-0.5,1.2-0.6,1.5c-0.1,0.4,0.2,0.6,0.2,0.8c0.1,0.6-0.2,1.3,0.1,1.9
			c0.2,0.4,0.8,1.1,0.9,1.6c0.2,0.6-0.4,1.2-0.3,1.7c0.1,0.1,0.2,0.2,0.4,0.4c0.1,0.3,0.1,0.6,0.2,0.8c0.2,0.2,0.5,0.3,0.6,0.5
			c0.4,0.6,0.8,1.1,1.4,1.6c0.3,0.2,0.7,0.2,1,0.5c0.2,0.2,0.3,0.6,0.5,0.7c0.3,0.3,0.7,0.3,1,0.6c0.4,0.3,0.8,1.2,1.2,1.4
			c0.3,0.1,0.6,0.1,0.8,0.2c0.6,0.4,1.2,1,1.8,1.3c0.4,0.1,0.8,0.2,1.2,0.4c0.7,0.4,1.4,1,2,1.5c0.6,0.4,1.4,0.6,2,1
			c0.6,0.4,1,1,1.7,1.4c0,0-0.1,0.1-0.1,0.1c-0.3,0.1-3.4-0.6-3.9-0.8c-0.2-0.1-0.4-0.4-0.6-0.5c-0.6-0.3-1.5,0.1-2.1-0.1
			c-0.3-0.1-0.5-0.4-0.7-0.6c-0.5-0.3-1.3-0.2-1.9-0.3c-0.6-0.1-2.2-0.5-3-0.4c-0.6,0-1.1-0.1-1.7-0.1c-0.9,0.3-2.1,0.4-2.8,0.8
			c-0.2,0.1-0.3,0.5-0.5,0.6H316c0,0-1.7,1.3-1.7,1.3c-0.1,0.1-0.1,0.3-0.2,0.5c-0.2,0.1-0.5,0.1-0.6,0.3c-0.6,0.8-0.7,2.2-1.5,2.9
			c0,0.4,0.2,0.6,0.3,0.8c0.1,0.3-0.2,0.5-0.2,0.6c-0.1,0.6,0.4,1.3,0.8,1.5c0,0.3,0.1,0.5,0,0.8c-0.1,0.2-0.5,0.4-0.4,0.8
			c0.3,1,1.8,1.9,2.6,2.5c0.7,0.5,1.5,1.3,2.2,1.7c0.5,0.4,1.3,0.4,1.8,0.7c0.1,0.2,0.2,0.3,0.4,0.5c0.4,0.3,0.9,0.3,1.3,0.6
			c0.3,0.2,0.7,0.6,1,0.8c0.4,0.1,0.7,0.2,1.1,0.4l1.1,1.1c0.8,0.5,1.6,0.5,2.1,1.3c-1.6-0.6-4.4-1.4-6.1-1.1
			c-0.4-0.1-0.9-0.2-1.3-0.3c-0.9,0.1-1.7,0.5-2.5,0.7c-0.8,0.3-2.1,0.2-2.7,0.7c-0.2,0.2-0.2,0.6-0.4,0.7c-0.5,0.4-1.3,0.5-1.7,1
			c-0.2,0.2,0,0.5,0,0.7c0,0.2-0.3,0.4-0.4,0.5c-0.2,0.5,0.3,1,0.3,1.5c0,0.1,0.2,0.4,0.1,0.6c0,0.2-0.3,0.7-0.2,1.1
			c0.1,0.3,0.5,0.5,0.6,0.7c0.4,0.8,0.4,1.1,1.1,1.6c-0.2,0.3-0.3,0.6-0.3,1.2c0.2,0.2,0.7,0.5,0.8,0.7c0.1,0.2,0,0.3,0.1,0.5
			l0.6,0.3c0.2,0.3,0.1,0.7,0.4,0.9c0.2,0,0.3,0.1,0.5,0.1c0.7,0.4,1.2,1.2,1.9,1.7c0.2,0.1,0.4,0.1,0.6,0.2
			c1.2,0.7,2.5,1.5,3.7,2.2c0.8,0.5,2,0.7,2.8,1.2c0.2,0.2,0.5,0.5,0.7,0.7c0.3,0.2,0.6,0.2,0.9,0.4c0.3,0.2,0.5,0.6,0.8,0.7
			c0.4,0.2,0.9-0.1,1.3,0.1c0.4,0.1,0.9,0.6,1.3,0.7c0.3,0.1,0.4-0.1,0.6,0c0.6,0.2,1.4,0.7,1.9,1c0.2,0,0.4,0.1,0.6,0.1
			c0.1,0.1,0.2,0.4,0.4,0.5c0.3,0.1,0.6,0.1,0.8,0.2c0.2,0.1,0.4,0.5,0.7,0.6h0.6c0.6,0.2,1,0.7,1.6,1v0.1c-1.3,0.2-3.2-0.6-4.4-0.9
			c-0.8-0.2-2.2,0.1-3.3-0.2c-1.3-0.3-2.7-0.5-3.9-0.2h-2.8c-0.5,0.1-1,0.4-1.5,0.6c-1.2,0.3-2.3-0.3-3.4,0.1
			c-0.1,0-1.3,0.9-1.3,0.9c-0.1,0.2,0,0.3-0.1,0.5c-1.2,1.2-2.6,1.7-3,3.8c-0.2,1.1,0.3,1.5,0.6,2.2c0.2,0.5,0,1,0.2,1.5
			c1,2.6,4.4,4.5,6.9,5.6c0.8,0.4,1.6,1,2.5,1.3c0.5,0.2,1.1-0.2,1.6,0c0.2,0.3,0.5,0.6,0.7,0.8c0.2,0,0.5,0.1,0.7,0.1
			c0.3,0.1,0.5,0.5,0.7,0.6h1c0.1,0.1,0.4,0.3,0.6,0.4c0.5-0.1,1-0.1,1.6-0.2c0.3,0.1,0.6,0.4,0.9,0.5c0.6,0,1.2,0.1,1.7,0.1
			c0.3,0.1,0.6,0.5,0.8,0.6c0.1,0,1.7,0.2,1.7,0.2c0.2,0,0.8-0.3,1.1-0.2c0.1,0.1,0.2,0.2,0.4,0.4c1.1,0.5,4,0.7,5,0.6
			c0.7-0.1,1.4,0.2,1.9,0.3c0.6,0.1,1.1-0.2,1.5-0.1c0.2,0.1,0.7,0.3,1,0.4c0.5,0.1,0.7-0.3,1.1-0.2c0.5,0.1,0.8,0.5,1.5,0.4
			c0.5-0.1,0.6,0.3,1.2,0.2c1.4-0.3,2.6,0,3.9-0.3c0.5,0,1-0.1,1.5-0.1c0.1,0,0.4-0.3,0.5-0.4c0.4-0.1,0.7,0.3,1.2,0.2
			c0.5-0.2,0.8-0.7,1.2-0.8c0.2-0.1,0.5,0,0.6-0.1c0.2,0,0.3,0,0.4,0.1c0.5,0.6,0.2,1.3,0.6,2c0.3,0.1,0.9,0,1.3,0.2
			c0.6,0.2,1.3,0.8,1.8,1.1c0.2,0.1,0.5,0,0.7,0.2c0.2,0.2,0.5,0.5,0.7,0.7c0.9,0.6,1.9,0.9,2.8,1.5c0.4,0.3,1.1,0.8,1.6,1h0.6
			c0.3,0.1,0.5,0.5,0.7,0.6c0.5,0.2,0.8,0,1.3,0.3c0.3,0.1,0.5,0.5,0.9,0.6c0.2,0.1,0.6-0.1,0.6-0.1c0.5-0.1,0.4,0.2,0.6,0.3
			c0.5,0.2,0.7-0.3,1.2-0.1c0.1,0.1,0.2,0.2,0.4,0.4c0.4,0.2,1.2,0.1,1.4,0.2c0.6,0.2,1.3,0.7,1.9,0.9h0.6c0.3,0.2,0.8,0.6,1.2,0.7
			c1.1,0.4,2.4-0.1,3.5,0.2c0.3,0.1,0.8,0.3,1,0.4c0.2,0.1,0.3-0.1,0.5-0.1c0.6-0.1,1.1,0,1.7,0.2c0.9,0.3,2,0.8,2.9,1
			c0.4,0.1,1.1-0.3,1.6-0.1c0.3,0.1,0.7,0.4,1.1,0.6c0.7,0.2,1.4,0,2.1,0.3c0.1,0.1,0.2,0.2,0.4,0.4c0.3,0,0.7,0.1,1,0.1
			c0.1,0.1,0.3,0.3,0.5,0.4c0.5,0.2,0.9-0.2,1.5,0c0.4,0.1,1,0.6,1.5,0.6c0.2,0,0.5-0.2,0.7-0.2c0.5,0.1,1.1,0.5,1.6,0.6
			c0.6,0.1,1.3,0.1,1.9,0.2c0.9,0.2,1.5,0.2,2.5,0.6c0.2,0.1,0.6,0.3,0.8,0.4c0.4-0.1,0.9-0.2,1.3-0.3c0.8,0.2,2,0.6,2.8,0.9
			c0.3,0.1,0.5,0.4,0.7,0.6c0.5,0.2,0.8,0.1,1.3,0.3c0.6,0.2,1.4,0.6,2,0.8c0.2,0,0.5,0.1,0.7,0.1c0.7,0.3,1.6,0.9,2.3,1.2
			c0.2,0,0.5,0.1,0.7,0.1c0.3,0.1,0.8,0.4,1.1,0.6c0.3,0,0.6,0.1,0.8,0.1c0.2,0.1,0.5,0.4,0.7,0.6c0.7,0.3,1.3,0.2,2,0.6
			c0.1,0.1,0.2,0.2,0.4,0.4h0.6c0.4,0.1,0.8,0.3,1.2,0.5c0.4,0.2,0.4,0.7,0.7,0.8c0.4,0.1,0.9,0.1,1.3,0.2c0.7,0.4,1.5,1.1,2.2,1.5
			c0.7,0.4,1.3,0.5,1.9,0.9c0.3,0.2,0.4,0.6,0.6,0.7c0.3,0.2,0.6,0.2,1,0.4c0.9,0.4,1.9,1.1,2.5,1.8h0.6v0.3c0.6,0.3,0.7,0.7,1.2,1
			c0.3,0.2,0.8,0.2,1.1,0.5c0.4,0.2,0.7,0.7,1,0.9c0.5,0.4,1.4,0.5,1.9,0.8c0.2,0.2,0.5,0.5,0.7,0.7c0.4,0.2,0.8,0.6,1.2,0.7h0.4
			c0.3,0.2,0.4,0.8,0.6,1l0.8,0.3c0.7,0.4,1.4,0.9,2,1.3c-0.1,1-1.2,1.3-1.7,2c-0.3,0.5,0.1,0.8-0.2,1.4c-0.2,0.2-0.4,0.3-0.6,0.5
			c-0.3,0.7,0,1.3-0.3,1.9c-0.2,0.4-1.2,2-0.8,2.6c0,1.4,1,1.6,1.8,2.2c0.2,0.3,0.4,0.6,0.6,0.8l0.8,0.3c0.3,0.2,0.5,0.7,0.7,1
			c0.3,0.3,0.8,0.4,1.1,0.6c0.1,0.1,0.1,0.3,0.2,0.4c0.5,0.4,1.3,0.5,1.7,1c0.3,0.3,0.4,0.9,0.7,1.1c0.3,0.1,0.6,0.1,0.8,0.2
			c0.2,0.1,0.8,1.1,1.1,1.4c1.3,0.9,2.6,1.8,3.9,2.8c0.5,0.3,0.7,1.3,1.2,1.6h0.5c0.3,0.2,0.5,0.7,0.8,0.9c0.7,0.4,1.5,0.6,2.2,1.1
			c0.2,0.2,0.4,0.4,0.6,0.6c0.5,0.4,1.1,0.5,1.7,0.9c0.4,0.3,0.7,1,1.1,1.3c0.5,0.4,1.2,0.6,1.7,0.9c0.1,0.2,0.2,0.3,0.3,0.5
			c0.5,0.5,1.6,1.6,2.1,1.9c0.7,0.5,1.3,0.9,1.9,1.4c0.1,0,0.2,0.1,0.4,0.1c0.1,0.1,0.1,0.3,0.2,0.5h0.1c0.3,0.3,0.7,0.8,1.1,1v0.1
			h0.6c0.7,0.3,1.4,1.1,2,1.6c0.2,0.2,0.5,0.2,0.7,0.4c0.2,0.2,0.2,0.4,0.4,0.6c0.3,0.3,0.8,0.4,1,0.7c0.1,0.1,0.1,0.4,0.2,0.5
			c0.4,0.4,1,0.5,1.3,0.9c0.2,0.3,0.2,0.6,0.5,0.8c0.3,0.2,0.7,0.4,0.9,0.6c0.2,0.3,0.2,0.6,0.5,0.8c0.3,0.2,0.8,0.3,1.1,0.6
			c0.4-0.1,0.5-0.2,0.8-0.4c0.1-0.4,0.4-1.4,0.2-1.7c-0.2-0.5-1.7-1.6-2.1-2l-1.7-1.7c-0.3-0.2-0.8-0.3-1-0.6c-0.6-0.8-1.2-1.3-2-2
			c-0.2-0.2-0.3-0.4-0.5-0.6h-0.6c-0.3-0.3-0.6-0.6-0.9-0.9c-0.3-0.2-0.7,0-0.9-0.2c-0.4-0.3-0.6-0.9-1-1.2
			c-0.4-0.3-0.9-0.3-1.3-0.6c-0.3-0.3-0.7-0.7-1-1c-0.2-0.1-0.4-0.1-0.6-0.2c-0.3-0.2-0.5-0.7-0.7-1c-0.2-0.3-1.4-1.3-1.7-1.5
			c-0.3-0.2-0.8-0.3-1.1-0.6c-0.2-0.2-0.3-0.5-0.5-0.6c-0.9-0.7-1.7-1.3-2.5-2c-0.4-0.4-1.3-0.4-1.7-0.7c-0.2-0.2-0.3-0.4-0.5-0.6
			c-0.5-0.3-1.2-0.5-1.6-1c-0.1-0.2-0.1-0.4-0.3-0.6c-0.4-0.4-1-0.3-1.5-0.6c-0.1-0.1-0.1-0.3-0.1-0.6c-2.6-1.3-4.2-3.8-6.4-5.4
			c-0.9-0.7-2.8-1.7-3.2-2.8c-0.1-0.1,0,0-0.1-0.2c0.2-0.1,0.5-0.2,0.7-0.4c0.3-0.3,0.5-0.8,0.9-1h0.5c0.3-0.1,0.4-0.5,0.6-0.6
			c0.3-0.3,0.9-0.2,1.2-0.5c0.5-0.4,0.9-1.1,1.5-1.5c0.3-0.2,0.6-0.2,0.9-0.5c0.2-0.2,0.3-0.4,0.5-0.6c2-1.2,3.2-2.6,4.7-4.6
			c0.3-0.4,1.1-0.6,1.3-0.9c0.2-0.3,0.1-0.5,0.4-0.7c0.1-0.1,0.4-0.1,0.6-0.3c0.1-0.2,0.1-0.5,0.2-0.7c0.4-0.7,0.9-1.2,1.4-1.8
			c0.3-0.4,1.1-0.6,1.4-1c0-0.2,0.1-0.3,0.1-0.5c0.3-0.3,0.7-0.7,1-1v-0.4c0.2-0.3,0.7-0.5,0.9-0.8c0-0.2,0.1-0.4,0.1-0.6
			c0.1-0.1,0.2-0.1,0.4-0.2c0.1-0.2,0.1-0.4,0.3-0.6h0.4c0.1-0.1,0.1-0.3,0.2-0.5h0.2v-0.6c0.1-0.1,0.4-0.2,0.5-0.3
			c0.4-0.5,0.7-1.2,1.2-1.6c0.2-0.1,0.5-0.2,0.6-0.4v-0.6c0.1-0.1,0.3-0.4,0.5-0.6c0.2-0.3,0.7-0.4,0.8-0.6c0.2-0.2-0.1-0.2,0-0.5
			c0-0.1,0.3-0.4,0.4-0.5c0.1-0.2-0.1-0.4-0.1-0.5c0.2-0.7,0.9-1.2,1.3-1.7v-0.3c0.2-0.2,0.6-0.4,0.7-0.6c0.2-0.3,0.1-0.5,0.3-0.8
			c0.1-0.2,0.4-0.3,0.6-0.5c0.2-0.2,1-2,1-2.3c0.3,0,0.2,0,0.6,0.1c0,0,0.1-0.1,0.1-0.1c0-0.4-0.3-0.6-0.2-1
			c0.1-0.3,0.5-0.5,0.6-0.7c0.3-0.3,0.2-1,0.5-1.4c0.1-0.2,0.5-0.4,0.6-0.6c0.1-0.5,0.2-1,0.4-1.6c0.1-0.1,0.4-0.1,0.5-0.3
			c0.2-0.3,0.2-0.7,0.4-0.9h0.1c0-0.2-0.1-0.4-0.1-0.6c0.1-0.1,0.5-0.1,0.6-0.3c0.2-0.3,0-0.5,0.2-0.7c0.1-0.1,0.2-0.2,0.4-0.3
			c0.5-0.9,0.6-2.2,1.2-2.9c0-1.2,0-1.5,0.8-1.8c0.5,0.7,2,0.5,2.4,1.4c0.4,0.7-0.5,2.3,0.6,3.3c-0.2,0.5-0.6,1.1-0.8,1.7
			c-0.1,0.3,0.1,0.8,0,1c0,0.1-0.4,0.4-0.5,0.6c-0.2,0.4-0.5,1-0.6,1.3c0,0.2,0.1,0.3,0.1,0.5c-0.2,0.5-0.6,0.8-0.6,1.5
			c0.6-0.1,0.5-0.4,0.8-0.6h0.4c0.2-0.1,1.4-2.1,1.6-2.5c0-0.3,0.1-0.6,0.1-0.9c0.2-0.5,1.1-1.5,0.5-2c0.1-0.2,0.1-0.2,0.4-0.3
			c0.1-0.6,0.1-1.9,0.5-2.5c0.3-0.1,1.1,0.2,1.4,0.4c0,0,0.6-0.1,0.8,0c0.1,0.2,0.2,0.3,0.3,0.5c0.2,0,0.5,0.1,0.7,0.1
			c0.3,0.1,0.4,0.4,0.6,0.5c0.3,0.1,0.6,0.1,0.8,0.2c0.1,0.1,0.2,0.3,0.4,0.5c0,0.6-0.3,0.7-0.5,1.1c-0.2,0.8,0.2,1.5,0.1,2.2
			c0,0.1-0.2,0.2-0.2,0.5c0,0.2,0.3,1,0.3,1.1c-0.1,0.4-0.4,1.3-0.6,1.7c0,0.3,0.1,0.7,0.1,1c-0.1,0.2-0.5,0.5-0.6,0.6
			c-0.1,0.4,0.2,1.3-0.1,1.7c0,0.4,0.1,0.5,0.3,0.7c1.2,0.2,1.2-0.7,1.6-1.6c0.3-0.8,1-2,1.2-3.3c0-0.3-0.3-1.3-0.2-1.7
			c0.2-1,0.3-1.1,0.1-1.9c-0.2-0.8,0.4-1-0.2-1.6v-0.2c0.5,0.1,1,0.5,1.5,0.6c0.7,0.3,1.4,0,2,0.5c0.7,0.4,1.4,1.2,2.4,1.4
			c0,0.5-0.3,0.7-0.6,0.9c0.1,0.3,0.2,0.6,0.3,0.8c0.1,0.4-0.2,1.1-0.1,1.7c0.3,1.3,0.1,2.9,0,4.2c0,0.2,0.1,0.3,0.2,0.5
			c0,0.2-0.3,0.7-0.2,1.1l0.2,0.3c0,0.2-0.2,0.2-0.2,0.3c-0.1,0.3,0.1,2,0.2,2.1c0.1,0.3,0,0.2,0.3,0.3c0.1,0.1,0.6-0.1,0.8-0.3
			c0.6-0.5,0.2-1.1,0.5-2c0.2-0.9,0.3-1.9,0.6-2.7c0-0.7,0.1-1.4,0.1-2.1c0.1-0.3,0.4-0.4,0.6-0.6c-0.2-0.1-0.3-0.1-0.4-0.4
			c-0.3-0.4,0-1.9,0-2.6c0.4,0.2,0.7,0.5,1,0.7c0.4,0.3,0.9,0.3,1.4,0.6c0.4,0.3,0.5,0.7,1.1,0.8c0.2,1,0.6,2.6,0.7,3.4
			c0,0.3-0.1,0.6-0.1,0.9c0,1.4-0.1,2.9,0,3.9c0,0.2-0.1,0.5-0.1,0.7c0.1,0.4,0.4,0.8,0.6,1v0.7c0.1,0.2,0.3,0.6,0.5,0.8
			c0.3,0.4,0.7,0.6,1,1h0.7c0-1.1-0.1-1.9-0.5-2.8c-0.1-0.3-0.5-0.9-0.4-1.4c0-0.1,0.3-0.2,0.3-0.2c0.2-0.4-0.1-0.5,0-0.9
			c0.1-0.6,0.7-2.1,0.5-2.8c-0.1-0.1-0.2-0.2-0.4-0.4c-0.2-0.6,0.4-1.2-0.2-1.8c0-0.2,0-0.3,0.1-0.4c0.1,0,2.5,0.6,2.8,0.8
			c0.2,0.2,0.3,0.5,0.5,0.7c0,0,1.2,0,1.5,0.1c0.3,0.1,0.8,0.5,1.2,0.7c0.1,0.6-0.2,0.8-0.3,1.3c-0.1,0.7,0.2,1.7,0,2.5
			c-0.6,2.4-0.9,4.4,0.6,6.7c0.2,0.1,0.1,0,0.2,0.1c0.6-0.1,0.9-0.8,0.8-1.5c0-0.3-0.3-0.9-0.4-1.2c-0.2-0.7,0.2-1.2,0.3-1.7
			c0-0.2-0.1-0.3-0.1-0.5c0.1-0.5,0.6-1,0.7-1.3c0.2-0.5,0.5-2.5,0.2-2.9c0-0.2,0-0.2,0.1-0.3c0.3-0.1,0.7,0.2,1,0.4
			c0.4,0,0.7,0.1,1.1,0.1c0.3,0.1,0.5,0.5,0.8,0.6c0.7,0.4,1.6,0.5,2.3,0.9c0,0.3-0.1,0.7-0.1,1c0,0.2,0.3,0.7,0.3,0.9
			c-0.1,0.6-0.3,1.5-0.5,2.2c-0.1,0.5,0.2,1.5,0.1,2.1c-0.2,0.8-0.2,1.4-0.2,1.8c0,0.7,0,1.8,0.3,2.6c0.2,0.5,0.7,0.8,1,1.2h0.5
			c0-0.5,0-0.6,0.4-0.7c0-0.6,0-0.9-0.4-1.1c0.1-1.3,0.3-3,0.7-4.4c0-0.7-0.1-1.5-0.1-2.2c0.2-0.7,0.3-1.5,0.3-2.4
			c0.9,0.1,1.1,0.5,1.7,0.8l0.8,0.3c0.9,0.6,2,1.1,2.9,1.7c0,0.6-0.3,0.8-0.4,1.2c-0.1,0.8,0.2,2.4,0.1,3.3
			c-0.2,1.2-0.7,1.8-0.3,3.2c0.1,0.3,0.4,0.5,0.5,0.7c0.1,0.2-0.2,0.9,0,1.3c0.2,0.2,0.4,0.4,0.6,0.6c1.1-0.1,1-1.7,0.8-2.5
			c0,0-0.1,0-0.1-0.2c0-0.2,0.3-0.3,0.3-0.6c0-0.1-0.3-0.5-0.3-0.6c0-0.1,0.4-0.3,0.5-0.4c0-0.2-0.1-0.4-0.1-0.6
			c0.2-0.8,0.3-1.9,0.5-2.6c0.2-1-0.4-1,0.1-1.7c0.1-0.1,0.1-0.1,0.3-0.2c1,1,2.4,1.3,3.6,2c0.4,0.2,0.7,0.7,1.1,0.9
			c0.4,0.2,0.9,0.3,1.3,0.5c0.1,0.2,0.2,0.3,0.4,0.5c0.3,0.2,1.5,0.3,1.9,0.1c0.1,0,0.2-0.1,0.3-0.1
			C539.4,360.7,539,359.6,538.8,359.3z M333.3,271.3c-0.2-0.1-0.4-0.1-0.6-0.2c-0.4-0.5-0.9-1-1.3-1.5c-0.4-0.2-0.6,0.2-1,0
			c-0.7-0.3-1.3-0.8-1.9-1.2c-0.3-0.2-0.7-0.1-1.1-0.3c-0.5-0.3-1-0.9-1.5-1.2c-0.6-0.4-1.5-0.7-2-1.2c-0.3-0.3-0.5-0.8-0.9-1.1
			c-0.7-0.6-1.8-1.1-2.3-1.8c-0.1-0.2,0.2-0.7,0-1.1c-0.1-0.3-0.6-0.8-0.7-1.1c0-0.3,0.1-0.6,0.1-0.9c-0.1-0.2-0.4-0.6-0.5-0.9
			c0-0.4,0.1-0.7,0.1-1.1c0-0.1-0.3-0.3-0.4-0.5c0-0.3,0.1-0.6,0.1-0.9c0,0-0.2-0.2-0.2-0.3c0.1-0.4,0.4-0.6,0.5-1.1h0.3v-0.3
			c0.5,0,0.6-0.2,0.6-0.6c1.1,0,1.8-0.2,2.8-0.4c0.9-0.2,1.9,0.3,2.8,0.1c0.4-0.1,0.9-0.2,1.2-0.2c0.6,0.1,1.6,0.4,2.1,0.6
			c0.5,0.1,0.6-0.2,1,0c0.3,0.1,0.8,0.5,1.2,0.6c0.4,0.1,0.4-0.1,0.8,0c0.3,0.1,0.7,0.5,1,0.6h1.8c0.6,0.2,1.2,1,1.7,1.3h0.6
			l0.6,0.6c0.3,0.2,1,0.4,1.3,0.6c0.4,0,0.9,0.1,1.3,0.1c0.6,0.2,1.4,0.6,2,0.7h0.8c0.2,0.2,0.3,0.4,0.5,0.6
			c0.7,0.4,1.5,0.4,2.3,0.7c0.7,0.3,1.2,0.8,1.9,1.1c0.5,0.2,1,0,1.5,0.3c0.2,0.1,0.3,0.6,0.5,0.7c0.3,0.2,1.6,0.3,1.9,0.6
			c0.8,0.5,1.9,1.2,2.8,1.6h0.5c0.2,0.2,0.3,0.4,0.5,0.6c0.4,0.3,1,0.4,1.4,0.6c0,0.2,0.1,0.4,0.1,0.6c1-0.2,1.1,0.2,1.8,0.6
			c0.1,0.1,0.4,0.1,0.5,0.2v0.3c0.2,0.2,1.3,0.4,1.6,0.6c0.4,0.3,1.2,1.2,1.6,1.4c0.4,0.1,0.7,0.1,1.1,0.2c0.2,0.1,0.3,0.4,0.5,0.6
			c0.3,0.2,0.8,0.2,1.1,0.4c0.3,0.1,0.2,0.3,0.4,0.6c0.3,0.4,0.8,0.2,1.2,0.5l1.4,1.2c0.1,0.2,0.1,0.4,0.3,0.6
			c0.2,0.2,0.6,0.2,0.8,0.4c1.1,1.3,2.1,2.8,3.1,4.2c0.3,0.3,0.3,1,0.6,1.3c0,0.4,0,0.4-0.3,0.6c0.1,0.6,0.4,0.9,0.6,1.4
			c0.2,0.4-0.2,0.4-0.3,0.6c0,0.4-0.1,0.7-0.1,1.1c-0.4,0.8-1.7,1.9-2.5,2.3c-0.7,0.3-1.8-0.1-2.5,0.1c-0.4,0.1-1.2-0.2-1.5-0.2
			c-0.2,0-0.6,0.3-0.7,0.4c0,0-2-0.3-2.1-0.3c-0.5-0.1-0.6,0.2-1.1,0c-0.2-0.1-0.7-0.5-0.9-0.6c-0.2-0.1-0.6,0.1-0.9,0
			c-0.2-0.1-0.5-0.4-0.7-0.5c-0.5-0.2-1.3-0.1-2-0.3c-2.1-0.6-4.2-1.3-5.8-2.2c-0.1-0.3-0.3-0.6-0.1-0.8c0-0.7-0.2-0.6-0.5-0.9
			c-0.2,0-0.4,0-0.6,0.1c-0.4,0.1-0.5,0.4-0.6,0.9c-1.2-0.1-1.5-0.8-2.3-1.1c-0.7-0.2-1,0-1.2-0.6c-0.2-0.1,0.3-0.4,0.2-0.9
			c-0.1-0.2-0.2-0.7-0.4-0.9c-0.4-0.5-1.2-0.2-1.6-0.5c-0.6,0.1-0.8,0.4-1.3,0.6v0.4c-1.2-0.2-2.5-0.9-3.4-1.5
			c-0.1-0.4-0.2-1-0.5-1.3c-0.1-0.4-0.5-0.4-0.7-0.6c-0.7,0-1.2,0-1.5,0.5c-1-0.3-1.8-1.1-2.6-1.7c-0.5-0.3-0.9-0.4-1.5-0.6
			C333.8,271.9,333.5,271.5,333.3,271.3z M324.2,288.6c-0.1-0.1-0.2-0.2-0.3-0.4c-0.2,0-0.4-0.1-0.6-0.1c-0.2-0.2-0.3-0.3-0.5-0.5
			h-0.4c-0.1-0.1-0.1-0.3-0.2-0.4c-0.5-0.4-1.1-0.5-1.7-0.8c-0.3-0.2-0.5-0.6-0.8-0.7c-0.7-0.4-1.6-0.5-2.2-0.9
			c-0.4-0.3-0.6-0.8-1-1.1c-0.2-0.2-0.5-0.2-0.6-0.4c-0.3-0.4-0.3-0.8-0.5-1.3c-0.2-0.5-0.7-1-0.8-1.5c-0.2-0.6-0.1-1.3-0.5-1.8
			c-0.1-1.5,0.2-2.1,1.3-2.4c0-0.2,0-0.2-0.1-0.3c0.1-0.4,1.1-1.1,1.7-1.1v-0.3c0.3-0.1,0.8-0.1,1-0.3c0.1-0.1,0.1-0.2,0.2-0.3
			c0.5-0.3,1,0.1,1.4-0.1c0.2-0.1,1.1-0.4,1.5-0.5c0.2,0,0.5,0.2,0.6,0.3h0.9c0.4,0.1,0.9,0.3,1.3,0.4c0.5,0,0.9-0.1,1.4-0.1
			c0.2,0.1,0.4,0.3,0.6,0.4c0.7,0.3,1.5,0.2,2.3,0.5c0.4,0.2,1.1,0.6,1.6,0.7c1.3,0.5,2.5,0.6,3.9,1h0.6c0.1,0.1,0.3,0.3,0.5,0.4
			c0.5,0.2,0.9,0.1,1.3,0.3c0.6,0.3,1.2,0.8,1.8,1c0.3,0,0.6,0.1,0.9,0.1c0.7,0.2,1.3,0.6,1.9,0.8c0.3,0,0.6,0.1,0.8,0.1
			c0.2,0.2,0.4,0.4,0.6,0.6c0.5,0.3,1.1,0.2,1.6,0.5c0.2,0.1,0.2,0.4,0.4,0.6c0.2,0.2,0.5,0,0.7,0.2l0.6,0.6
			c0.5,0.3,1.2,0.3,1.7,0.6c0.3,0.2,0.6,0.7,0.9,0.8c0.9,0.4,1.6,0.5,2.5,0.8c0.3,0.1,0.6,0.6,0.9,0.7l1.4,0.3
			c0.6,0.3,1.3,0.8,1.8,1.1c0.8,0.4,1.5,0.6,2.3,1c0.5,0.3,1,0.9,1.6,1.2c0.3,0.1,0.6,0.1,0.8,0.2c0.2,0.1,0.3,0.4,0.5,0.6
			c0.2,0,0.3,0.1,0.5,0.1c0.2,0.1,0.4,0.4,0.6,0.6h0.4c0.2,0.1,0.3,0.5,0.5,0.7c0.2,0.3,1.1,1,1.4,1.2c1.2,0.8,2.4,1.5,3.6,2.3
			c0.2,0.2,0.4,0.5,0.6,0.7c0.3,0.2,0.7,0.4,0.9,0.6c0.6,0.7,0.8,1.8,1.5,2.4c0.1,0.5,0.1,0.9,0.2,1.4c-0.1,0.5-0.4,0.8-0.6,1.1
			c-0.2,0.2-0.1,0.6-0.3,0.7h-0.3c-0.2,0.3-0.3,0.6-0.5,0.8c-0.4,0.4-1.6,0.7-2.2,0.8c-0.9-0.1-1.7-0.1-2.6-0.2
			c-3.3,0.7-6.9,0.1-9.6-1.2c-0.4,0-0.8-0.1-1.2-0.1c-1.2-0.5-2.6-1.1-3.8-1.7c0-0.7-0.1-0.9-0.4-1.3c-0.4-0.1-0.9-0.3-1.2,0
			c-0.6-0.1-0.8-0.6-1.2-0.8v-0.2c0.2,0,0.7,0,0.9-0.1c0.1-0.1,0.2-0.4,0.3-0.5c0-0.7-0.2-0.9-0.4-1.4c-0.8-0.2-1.1,0-1.8,0.3
			c-0.1,0.2-0.1,0.2-0.2,0.4c0,1.2,1,1.5,1.7,2.1c0.2,0.2,0.6,0.6,0.5,0.7c-0.1,0.2-0.1,0.1-0.3,0.3c-1.2-0.1-1.6-0.8-2.4-1.1
			c-0.4-0.1-0.7-0.1-1.1-0.2c-0.7-0.3-1.6-0.8-2.3-1.1c-0.2-0.1-0.5-0.1-0.6-0.2c-0.6-0.4-0.2-0.6-0.4-1.1c-0.1-0.4-0.7-0.8-1-1.1
			c-0.8,0-0.9,0.4-1.5,0.7c-0.1,0.1-0.9-0.2-1.2-0.4c-0.6-0.3-1.3-0.9-1.9-1.2c-0.6-0.3-1.2-0.4-1.7-0.8c-0.1-0.1,0,0-0.1-0.2
			c0.3-0.1,0.6-0.2,0.8-0.4c0.1-0.6-0.1-2-1-1.5c-0.6,0.3-0.6,0.9-0.8,1.6c-0.9-0.1-0.6-0.5-1.1-0.7h-0.7c-0.7-0.2-1.6-0.5-2.2-0.8
			c-0.4-0.3-0.8-0.8-1.3-1C325.4,289.2,324.8,289.1,324.2,288.6z M336,312.4c-0.1,0.1-0.2,0.2-0.4,0.4c-1.4-0.1-2.1-0.9-3-1.5
			c-0.5-0.3-0.9-0.2-1.6-0.4c-0.3-0.1-0.7-0.4-0.9-0.6c-0.3-0.1-0.6-0.1-0.8-0.2c-0.4-0.2-0.8-0.6-1.3-0.8c-0.6-0.2-1.2-0.4-1.8-0.6
			c-0.3-0.2-0.7-0.6-1-0.8c-0.4-0.3-1-0.3-1.4-0.6c-0.4-0.3-0.9-0.8-1.4-1c-0.2,0-0.5-0.1-0.7-0.1c-0.6-0.3-1.4-0.9-2-1.2
			c-0.2,0-0.4-0.1-0.6-0.1c-0.2-0.2-0.5-0.5-0.7-0.7c-1.1-0.7-2.3-1.1-3.1-2c-0.4-0.4-0.4-0.9-0.7-1.4c-0.2-0.2-0.5-0.5-0.7-0.7
			c-0.1-0.3,0.1-0.6,0.1-0.8c-0.1-0.3-0.5-0.8-0.6-1c-0.2-0.6,0.7-1.8-0.4-2.4c0.1-1,1.6-1.5,2.1-2.2c0.5,0.1,1,0.2,1.5,0
			c0.2-0.1,0.5-0.4,0.8-0.4c0.2,0,0.3,0.3,0.6,0.1c0.1,0,0.2-0.3,0.3-0.4c0.4,0,0.7,0.1,1.1,0.1c1.2-0.3,2.2,0.4,3.4,0.4
			c0.1,0,0.2-0.1,0.4-0.1c0.4,0.1,0.6,0.4,0.8,0.6c0.3,0,0.6,0.1,0.9,0.1c0.3,0.1,0.8,0.4,1.1,0.6c0.6,0,1.1,0.1,1.7,0.1
			c0.7,0.2,1.8,0.6,2.5,0.8c0.2,0,0.4-0.1,0.6-0.1c0.2,0.1,0.5,0.5,0.8,0.6c0.8,0.3,1.2,0.3,2,0.6c0.9,0.3,1.9,0.8,2.8,1.1
			c0.5,0.2,0.8,0,1.5,0.3c0.3,0.1,0.5,0.5,0.8,0.6c0.6,0.3,1.4,0.5,1.9,0.6h0.6c0.2,0.2,0.3,0.3,0.5,0.5c0.3,0.1,0.6,0.1,0.9,0.2
			c0.3,0.1,0.5,0.5,0.8,0.6c0.5,0.2,0.8,0.1,1.3,0.3c0.3,0.1,0.6,0.4,0.8,0.6c0.2,0,0.3,0.1,0.5,0.1l0.3,0.6h0.5
			c0.5,0.2,1.1,0.4,1.7,0.7c0.1,0.1,0.2,0.2,0.3,0.4h0.5c0.3,0.1,0.6,0.4,0.8,0.6c0.2,0,0.4,0.1,0.6,0.1c0.4,0.2,0.8,0.7,1.2,0.8
			c0.4,0.1,0.7,0,1,0.2c0.1,0.1,0.1,0.3,0.3,0.4h0.6c0.2,0.1,0.5,0.4,0.7,0.6c0.3,0.2,0.7,0.1,1,0.3c0.5,0.2,1.1,0.7,1.6,1l0.8,0.3
			c0.7,0.4,1.2,1.4,1.9,1.7c0.3,0.1,0.6,0.1,0.8,0.2c0.6,0.6,1.2,1.3,1.8,1.9c1.1,0.8,2.8,2.3,2.9,3.9c-0.2,0.2-0.3,0.5-0.5,0.7
			c-0.2,0.2-0.7,0.2-0.9,0.4c-0.1,0.1-0.1,0.2-0.2,0.4c-0.2,0.2-0.5,0.2-0.7,0.5c0,0.1-0.1,0.2-0.1,0.3h-0.4v0.2
			c-0.6,0.3-1.8,0.2-2.6,0.5c-0.5,0.2-1.4,0.4-1.8,0.3c-0.2,0-0.6-0.3-1.1-0.2c-1.1,0.3-2.3,0.3-3.3,0.1c-0.4-0.1-0.7,0.3-1,0.2
			c-0.4-0.1-0.8-0.5-1.2-0.6c-0.8-0.3-2-0.1-2.6-0.6c-0.1-0.3,0.4-0.9,0.1-1.4v-0.2c-0.6-0.1-1.2-0.1-1.7-0.2c0.1,0.5,0,0.9-0.3,1.3
			v0.2c-1,0-1.6-0.5-2.4-0.8c0-0.4,0-0.6,0.2-0.8c-0.1-0.5-0.4-0.9-0.6-1.4c-0.2-0.1-0.1,0-0.2-0.1c-0.5,0-0.6,0.1-0.7,0.6
			c-0.2,0-0.3,0.1-0.5,0.1c0,0.3-0.1,0.5-0.2,0.6v0.2c-1.7-0.1-2.9-0.9-4.4-1.1c-0.1-0.3-0.3-1.9-0.2-2c0-0.1,0.1-0.2,0.1-0.3
			c0.9,0.2,1.1,1.5,1.5,2.2c0.6,0,0.9,0,1.5,0c0-1.1-0.4-1.4-0.7-2c0.2-0.2,0.3-0.3,0.5-0.5v-0.4c-0.4-0.4-0.8-1.2-1.5-1.4
			c-0.4-0.2-1.1,0.3-1.5,0.5c-0.2,0.1-0.9-0.2-1.2,0C336.1,310.6,336.3,311.8,336,312.4z M324.6,315.5c0,0,0.1,0.1-0.1,0.2
			C324.6,315.6,324.6,315.5,324.6,315.5z M349.8,333.9L349.8,333.9c0.2-0.2,0.1-0.1,0.2-0.2c0.1,0.1,0,0,0.1,0.2H349.8L349.8,333.9z
			 M359,331.6c-0.5,0.3-1.3,0-1.9,0.3c-0.3,0.1-0.4,0.6-0.7,0.6c-0.2,0-0.3-0.1-0.5-0.1c-0.4,0.1-1.2,0.5-1.6,0.6
			c-0.3,0.1-1-0.1-1.2-0.2c-0.4-0.1-1.5,0.2-1.7,0.3c-0.2,0-0.4-0.2-0.5-0.2c-1.1-0.3-2.4,0.6-3.3-0.1h-0.2c0-0.4,0.3-0.8,0.1-1.1
			c0-1.2-1-1.7-1.7-2.3c-0.2,0-0.3,0-0.4,0.1c-0.7,0-0.9,0.2-1,0.7c-0.1,0.1-0.1,0.4-0.1,0.6c0.4,0.4,0.6,1,1,1.3
			c0.2,0.2,0.5,0.2,0.7,0.5c0,0-0.1,0.1-0.1,0.1c-1.3,0-2.1-0.1-3.3-0.4c-0.5-0.1-1.1,0.1-1.4-0.1h-0.2c0-0.7,0.3-1.1,0.4-1.7
			c-0.4-0.1-1.1-0.4-1.4-0.3c-0.9,0-1.7,0.9-2,1.7c-1.4,0.3-4-0.6-5.2-1c-0.3-0.1-1.8-0.3-1.8-0.3c-0.2,0-0.6,0.2-0.9,0.2
			c-0.4-0.1-0.9-0.4-1.3-0.5c-1.2-0.3-3-0.2-3.4-1.2c-0.1-0.3,0.3-0.6,0.2-0.8c-0.1-0.8-0.9-1-1.7-1c-0.3,0.3-0.7,0.6-0.9,1
			c-1.2-0.1-1.8-0.7-2.6-1.2c-0.4-0.1-0.7-0.2-1.1-0.4c-1.7-1-3.2-2.3-4.3-3.9c-0.3-0.5-0.1-1.3-0.4-1.7c0-0.5,0-0.9,0.2-1.2
			c0.3,0,0.5,0,0.7,0.1c0.1-0.2,0.4-0.2,0.5-0.4c0.4-0.6,1.2-1.7,1.7-2c0.6-0.4,1.3-0.4,2.3-0.4h0.9V317c0.6-0.3,1,0.1,1.7-0.1
			c0.6-0.2,1.7-0.4,2.4-0.3c0.8,0,1.5-0.1,2.3-0.1c0.6,0.1,1.4,0.3,2.2,0.2c0.2,0,0.9,0.3,1.4,0.4c0.3,0,1.3-0.2,1.8,0
			c1.8,0.6,4,0.9,6,1.5h1.7c0.2,0.1,0.6,0.5,0.9,0.6c0.8,0.3,1.7,0.4,2.4,0.6c0.4,0,0.8,0.1,1.2,0.1c0.5,0.2,1,0.7,1.6,0.8
			c0.5,0,0.9,0.1,1.4,0.1c1,0.3,2.3,1,3.3,1.4c0.6,0.2,1.1,0.1,1.7,0.3c0.1,0.1,0.2,0.2,0.4,0.4c0.7,0.4,1.5,0.2,2.2,0.6
			c0.5,0.3,1,0.9,1.6,1.1c0.3,0.1,0.5-0.1,0.7,0c0.2,0.1,0.4,0.6,0.6,0.8c0.3,0.3,0.7,0.6,1,0.8c0.1,0.2,0.1,0.4,0.2,0.6
			c0.4,0.6,1.3,0.9,1.7,1.7c0.2,0.3-0.1,0.8,0.2,1.1v0.7c-0.2,0-0.4,0.1-0.6,0.1v0.3C360.1,330.8,359.5,331.3,359,331.6z
			 M450.7,374.1c-0.1,0.2-0.2,0.4-0.4,0.6H450l-0.6,0.6c-0.2,0-0.4,0.1-0.6,0.1c-0.7,0.4-1.4,1.2-2.3,1.4c0-0.7,0.6-2.6,1.3-2.8
			c0-0.2-0.2-0.4-0.2-0.5c0.1-0.4,0.5-0.6,0.6-0.8c0.3-0.4,0.4-1,0.6-1.5c1,0.1,1,0.9,1.6,1.3c0.3,0.2,0.7,0.4,1.1,0.6
			C451.6,374,451.3,373.8,450.7,374.1z M478.8,335.6c-0.1,0.1-0.2,0.1-0.3,0.2c-0.2,0.4,0.2,0.6,0,1.1c-0.1,0.2-0.5,0.5-0.6,0.6
			c0,0.2-0.1,0.5-0.1,0.7c-0.1,0.2-0.5,0.1-0.6,0.3c0,0.1-0.5,1.1-0.6,1.2h-0.1c-0.3,0.6-0.5,1.2-0.6,1.7c0,0.3-0.1,0.6-0.1,0.9
			c-0.1,0-0.2,0.1-0.3,0.1c-0.3,0.4-0.4,1-0.6,1.4c-0.4,0-0.8-0.2-1-0.4c-1,0-0.6,0.4-1,0.9c0.1,0.8,0.7,0.7,1,1.2
			c0.1,0.3-0.4,0.8-0.6,1.2v0.5c-0.2,0.2-0.5,0.3-0.7,0.5c-0.2,0.3-0.1,0.6-0.3,0.9c-0.2,0.3-0.5,0.7-0.6,1.1
			c-0.5-0.1-0.6-0.3-1.2-0.3c-0.1,0.1-0.2,0.1-0.3,0.2c-0.1,0.2-0.1,0.4-0.3,0.6c0.1,0.5,0.5,0.7,0.4,1.3c-0.3,1.3-2.1,4.2-3.2,4.6
			c-0.1,0.3-0.1,0.7,0,1c-1,0.5-1.5,1.7-2.2,2.6c-0.2,0.1-0.3,0.2-0.5,0.3c-0.1,0.2,0.1,0.4,0.1,0.5c-0.1,0.2-1.2,0.7-1.5,1.1
			c-0.3,0.4-1,1.6-1.5,1.8h-0.4c-0.6,0.4-0.7,1.5-1.1,2.1c-0.2,0.3-0.6,0.4-0.7,0.6c-0.4,0-0.6-0.2-0.8-0.4c-0.3,0-1.1,0.7-1.3,0.9
			c0,0-0.1,0.1-0.1,0.1c0.3,0.3,0.5,0.5,0.9,0.6v0.2c-0.4,0.4-0.9,1.2-1.4,1.6c-0.2,0.2-0.4,0.1-0.6,0.3c-0.2,0.3-0.6,1.1-1.3,0.8
			c-0.4-0.1-0.5-0.5-1-0.6v0.3c-0.1-0.2-0.3-0.5-0.4-0.7c-0.9,0-1.5,0.1-1.8,0.6c-0.6,0-0.9-0.2-1-0.6c-0.1-0.1,0,0-0.1-0.2
			c0.3-0.1,0.6-0.1,0.8-0.2c0-0.2,0-0.3,0.1-0.5c-0.3-0.3-0.6-0.6-0.8-0.9h-0.4c0,0.3,0.1,0.4,0.3,0.6v0.1c-0.5-0.1-0.7-0.5-0.9-0.8
			h-0.4c0,0.3,0,0.3,0.2,0.5c0,0.3,0,0.5-0.1,0.6c-0.8-0.1-2.2-1-2.8-1.5c-0.3-0.2-0.4-0.7-0.6-0.9c-0.5-0.5-1.7-0.6-2.3-0.9
			c-0.6-0.4-0.9-1.2-1.6-1.7c-0.4-0.3-1-0.3-1.5-0.6c-0.2-0.2-0.4-0.5-0.6-0.7c-0.3-0.2-0.6,0-0.9-0.2c-0.2-0.3-0.4-0.6-0.6-0.8
			c-0.2,0-0.5-0.1-0.7-0.1l-0.6-0.6c-0.3-0.2-0.7-0.2-0.9-0.5c-0.4-0.4-1-0.8-1.4-1.2c-0.1-0.2-0.2-0.3-0.3-0.5
			c-0.3-0.1-0.6-0.1-0.8-0.2c-0.7-0.4-1.5-1.1-2.2-1.5c-0.4-0.2-0.8-0.2-1.2-0.5c-0.4-0.2-0.7-0.7-1.1-0.9c-0.4-0.1-0.7-0.2-1.1-0.4
			c-0.9-0.5-1.9-1.1-3-1.5c-0.9-0.3-1.9-0.3-2.6-0.6c-0.4-0.2-1-0.7-1.5-0.9c-0.7-0.3-1.3-0.2-1.9-0.6c-0.1-0.1-0.2-0.2-0.3-0.4
			c-0.5-0.3-0.9,0.1-1.4-0.2c-0.1-0.1-0.2-0.4-0.3-0.5c-0.2,0-0.4-0.1-0.6-0.1c-0.5-0.3-1.3-0.7-1.8-0.9c-0.7-0.3-1.5-0.1-2.3-0.4
			c-0.4-0.2-1-0.6-1.4-0.7c-0.2,0-0.5-0.1-0.7-0.1c-0.2-0.1-0.4-0.4-0.6-0.5c-0.3-0.1-2.1-0.3-2.3-0.3c-0.1,0-0.2,0.2-0.4,0.2
			c-0.3-0.1-0.7-0.6-1.1-0.7c-0.7-0.2-1.5-0.2-2.1-0.4h-1.3c-0.3-0.1-0.9-0.3-1.3-0.4c-0.4-0.1-0.9,0.2-1.5,0
			c-0.6-0.2-1.7-0.5-2.4-0.6c-0.2-0.1-0.5,0.1-0.6,0.1c-0.6-0.1-1.4-0.6-1.9-0.8l-1.7-0.3c-0.1-0.1-0.1-0.2-0.2-0.3H392
			c-0.4-0.1-0.9-0.4-1.5-0.5c-0.3,0-0.6,0.1-0.9,0.1c-0.2-0.2-0.3-0.3-0.5-0.5c-0.7,0.3-3.1-0.6-3.6-0.7h-1.2
			c-0.6-0.2-1.5-0.2-2.1-0.4c-0.6-0.1-0.5,0.4-1,0.3l-0.3-0.3h-0.6c-0.2-0.1-0.4-0.4-0.6-0.6c-0.4-0.2-0.8,0-1.2-0.2
			c-0.6-0.2-0.7-0.6-1.7-0.6v-0.3c-0.2-0.1-0.5-0.4-0.8-0.3v0.2h-0.2c-0.5-0.1-1.4-0.6-1.9-0.7c-0.8-0.3-1.4,0.1-2-0.2
			c-0.4-0.2-0.9-0.7-1.4-0.8c-0.4-0.1-0.3,0.3-0.6,0.2c-0.2,0-0.2-0.4-0.4-0.5c-0.6-0.4-1.4-0.7-1.9-1.1c-0.5-0.3-1.6-0.7-2.1-0.9
			c-0.2,0-0.4,0.1-0.6,0.1c-0.2-0.1-0.3-0.7-0.6-0.8c-0.2-0.1-0.6-0.4-0.7-0.5h-0.5c-0.2-0.2-0.3-0.3-0.5-0.5
			c-0.5-0.3-1.1-0.3-1.6-0.6c-0.2-0.1-0.4-0.4-0.6-0.6c0.1-0.5,1.9-1.3,2.4-1.6c0.2-0.8,0.9-2.1,0.6-3.3c-0.3-0.7-0.6-1.4-0.9-2.1
			c-0.2-0.2-0.6-0.1-0.7-0.4c-0.2-0.3-0.2-0.6-0.5-0.8c-0.3-0.2-0.6-0.2-0.7-0.5c-0.4-0.6-0.7-1.2-1.3-1.7c-0.7-0.5-1.7-0.7-2.4-1.2
			c-0.3-0.2-0.4-0.7-0.7-0.9c0.2-0.4,1.1-0.8,1.7-0.7c0,0,2.8-0.1,2.9-0.2c0-0.1,0.1-0.2,0.1-0.3c0.2-0.1,0.6-0.2,0.6-0.2h1
			c0.1-0.1,0.1-0.2,0.2-0.3h0.6c0.2-0.1,0.2-0.2,0.6-0.3c0-0.2,0-0.2,0.1-0.3c0.3-0.5,1.5-1.2,2.3-1.2c0.1-0.2,0.1-0.6,0.2-0.7
			c0.3-0.4,0.7-0.4,0.8-1c0.1-0.2-0.1-0.4-0.1-0.7c0.1-1.1-0.2-1.8-0.7-2.7c-0.2-0.2-0.4-0.4-0.6-0.6c0-0.2-0.1-0.4-0.1-0.6
			c-0.2-0.3-0.8-0.4-1-0.7c-0.1-0.2-0.1-0.4-0.2-0.6c-0.2-0.2-0.4-0.3-0.6-0.5c-0.2-0.3-0.5-0.6-0.7-0.9c-0.7-0.5-1.4-0.9-2.1-1.4
			c-0.5-0.3-0.7-1-1.2-1.3c-0.5-0.4-1.2-0.5-1.6-0.9c-0.2-0.1-0.1,0-0.2-0.1c0.7-0.2,1.1,0.2,1.8,0c0.6-0.1,1.6-0.2,1.9-0.3
			c0.6-0.1,1,0.3,1.4,0.2c0.2,0,0.5-0.3,0.7-0.4c0.6-0.1,1.1,0.2,1.7,0.1c1.1-0.2,2.8-0.7,3.8-1.3v-0.5c0.4-0.1,0.5-0.3,0.8-0.4
			c0-0.2,0.1-0.3,0.1-0.5c0.6-0.1,1.7-2.2,1.8-2.8c0.1-0.1-0.4-1.5-0.6-1.7c0.1-0.1,0.1-0.1,0.3-0.1c-0.2-0.4-0.7-0.6-0.9-1
			c-0.3-0.5-0.2-1.1-0.6-1.6c-0.7-1-2.1-2.1-3.1-2.8c-0.3-0.2-0.5-0.8-0.8-1c-0.2-0.1-0.4,0-0.6-0.2c-0.5-0.3-1-1.1-1.6-1.4
			c-0.2,0-0.4-0.1-0.6-0.1c-0.6-0.4-1.1-1.2-1.7-1.7c-0.6-0.4-1.4-0.5-2.1-0.9c-0.4-0.2-0.6-0.7-1-0.8v-0.3c0.7,0,1.1,0,1.6,0.1
			c0.2,0,0.3-0.1,0.5-0.1c0.8,0.3,2,0.9,2.9,1c0.3,0,0.4-0.2,0.6-0.2c1.2,0.1,3.5,0,4.3,0.1c0.3,0,0.6,0.1,0.8,0.1
			c1.1-0.2,1.4-0.8,2.7-0.8c0.5-1.1,1.9-1.4,2.3-2.7c0.1-0.1,0.1-0.3,0.1-0.6c0.5,0,0.5-0.1,0.6-0.4c0.1-0.2-0.1-0.6,0-0.8
			c0-0.5,0.1-0.7,0.6-0.8c-0.1-0.2-0.5-0.3-0.6-0.5c-0.2-0.4,0.2-1,0-1.5c-0.1-0.1-0.2-0.1-0.3-0.2c-0.1-0.3-0.1-0.6-0.2-0.9
			l-0.3-0.3c-0.1-0.4,0.2-0.4,0-0.7c-0.2-0.4-0.5-0.8-0.6-1.2h-0.2c-0.2-0.1,0.2-0.1,0.2-0.1c-0.5-1.6-2-2.6-3.1-3.7
			c-0.6-0.6-1.2-1.5-1.9-2c-2.6-1.9-5.6-3.3-8.3-5.1c-0.6-0.4-1.1-0.5-1.8-0.7c-0.5-0.2-0.8-0.7-1.2-0.9c-0.8-0.5-1.8-0.7-2.5-1.4
			h-0.1c0.4-0.6,2.5,0,3.3,0.2c1.9,0.5,5.4,0.7,7.5,1.2c0.3,0.1,0.3-0.2,0.5-0.2c0.5-0.1,1.1,0.1,1.6,0.2c0.5,0,0.8-0.4,1.3-0.2
			c0.5,0,0.6,0.3,0.8,0.6h0.2c-0.1-0.1-0.1-0.2-0.2-0.3v-0.2c0.6,0,1.2,0.1,1.8,0.1c0.1,0,0.6-0.1,0.7-0.2c0.1-0.1,0.1-0.2,0.2-0.4
			c0.3-0.1,0.2,0.3,0.6,0.2c0-0.1,0.1-0.1,0.1-0.2c0.6-0.2,1.4,0.5,2.1,0.2c0.2-0.2,0.3-0.3,0.5-0.5c1-0.4,1.1,0.3,1.7-0.7
			c0.7,0,1.2,0,1.7,0v-0.4c0.4-0.1,0.3-0.1,0.6-0.3c0,0.3-0.1,0.3-0.2,0.6c0.1,0.1,0.1,0.2,0.2,0.3c1.7-0.3,2.3-1.4,3.7-1.9v-0.4
			c0.9,0,1.2-0.7,1.7-1.3c0.1-0.1,0.3-0.1,0.4-0.2c0.3-0.5-0.4-0.7,0.5-0.7c-0.1-0.4-0.2-0.4,0-0.7c0.2-0.3,0.3,0,0.6-0.2
			c0.3-0.2,0.3-0.7,0.6-1c0.2-0.2,0.5-0.4,0.7-0.6c0.4-0.6,0.6-1.7,0.9-2.3c0.6-1.1,1.6-2.5,1.8-3.4c0.2-0.8,0.3-1.7,0.5-2.4
			c0.2-0.6-0.1-1.3,0-1.7c0.1-0.3,0.2-0.7,0.2-1c-0.1-0.9,0.2-1.9,0.1-2.5c0-0.1-0.3-0.3-0.3-0.4c-0.2-0.7,0.4-1.6,0.2-2.4
			c-0.1-0.5,0-1.4-0.1-1.8c-0.1-0.5-0.4-1.4-0.6-1.8v-1c-0.3-1.1-0.6-2.2-0.9-3.3c-0.1-0.3-0.4-0.6-0.5-0.8c0-0.4,0.1-0.7,0.1-1.1
			c0-0.1-0.2-0.4-0.2-0.6c0-0.1,0.1-0.3,0.1-0.6c-0.1-0.3-0.3-0.5-0.4-0.6c0.3-0.7-0.2-1.6-0.4-2.3c-0.1-0.3,0.1-0.5,0.1-0.7
			c-0.1-0.4-0.4-1.1-0.6-1.5V222c-0.1-0.2-0.3-0.4-0.4-0.6c-0.1-0.3,0.1-0.8,0.1-0.9c0-0.2-0.3-0.7-0.4-0.9c-0.1-0.4,0.1-1.2,0-1.7
			c-0.2-0.8-0.7-2-1-2.8c-0.2-0.5,0.3-1,0.2-1.5c-0.2-0.7-0.3-1.9-0.5-2.9c0-0.4,0.1-0.8,0.1-1.2c-0.1-0.4-0.4-0.9-0.6-1.4
			c0,0,0.2-1.9,0.3-1.9c0.1,0,0.2-0.1,0.3-0.1c0-0.7-0.1-1.4-0.1-2.1c0.2-0.1,0.1-0.1,0.4-0.2c-0.4-1.3,0.5-2.8,1.4-3.3v-0.4
			c0.6-0.1,0.6-0.6,1-0.8c0.3-0.1,0.6-0.1,0.8-0.2c0.6-0.2,1-0.7,1.7-0.9v-0.3c0.4,0,0.8-0.2,1.2-0.3c0.4,0,0.6,0.3,0.9,0.1
			c0.8,0.1,2,1.2,2.5,1.7c0.6,0.7,1.7,1.8,2,2.7c0.3,0.7,0.1,1.4,0.4,2.2c0.1,0.4,0.5,0.8,0.6,1.2c0.1,0.7,0.1,1.3,0.2,2
			c0,0.1,0.3,0.4,0.4,0.5c0.1,0.3-0.1,0.6,0.1,1c0.1,0.1,0.3,0.3,0.4,0.5c0.1,0.4-0.3,0.4-0.2,0.9c0,0.2,0.3,0.4,0.4,0.6
			c0.2,0.5-0.3,0.7-0.2,1.3c0.2,0.7,0.2,1.7,0.5,2.4c0.2,0.5,0.7,1,0.8,1.5c0.1,0.3,0,0.6,0.2,0.9c0.1,0.1,0.2,0.1,0.3,0.2
			c0,0.3,0.1,0.6,0.1,0.9c0.2,0.4,0.8,1.3,0.9,1.7c0,0.2-0.2,0.2-0.2,0.3c0.1,0.4,0.1,0.9,0.2,1.3c0.1,0.3,0.5,0.6,0.6,0.9
			c0.2,0.3,0.1,0.7,0.3,1.1c0.3,0.7,0.9,1.5,1.2,2.1c0,0.2,0.1,0.5,0.1,0.7c0.1,0.2,0.4,0.3,0.5,0.6c0.6,1.5,0.9,2.8,1.6,4.3
			c0.1,0.3,0.5,0.6,0.6,0.8c0.2,0.5,0.3,1,0.5,1.5c0.1,0.1,0.2,0.2,0.4,0.4c0,0.4,0.1,0.7,0.1,1.1c0.1,0.2,0.3,0.5,0.4,0.7v1.1
			c0.1,0.5,0.5,0.9,0.6,1.2c0.2,0.3-0.1,0.8-0.1,1c0.1,0.3,0.4,0.7,0.5,0.9c0,0.2-0.1,0.5-0.1,0.7c0.1,0.2,0.3,0.7,0.4,0.9v0.7
			c0.1,0.3,0.6,0.9,0.6,1.4c-0.1,0.4-0.2,0.8-0.3,1.2c0.1,0.5,0.4,0.8,0.6,1.2c0.1,0.3-0.1,0.6,0,0.9l0.3,0.3c0,0.2-0.1,0.4-0.1,0.6
			c0.1,0.5,0.1,1.2,0.3,1.7c0.2,0.6,1,1,1.1,1.7c-0.1,0.2-0.1,0.4-0.2,0.6c0,0.2,0.4,0.6,0.5,0.7c0.2,0.5,0,0.9,0.2,1.5
			c0.1,0.2,0.4,0.4,0.5,0.6v1.1c0.2,0.8,0.7,1.4,0.9,2v0.7c0.1,0.3,0.5,0.6,0.6,0.9c0.2,0.5,0.4,0.9,0.6,1.3c0,0.2,0.1,0.5,0.1,0.7
			c0.2,0.5,0.8,0.8,0.9,1.3c0,0-0.2,0.5,0,0.8c0.2,0.5,0.5,1.1,0.8,1.6c0.1,0.2,0.4,0.4,0.6,0.6c0.1,0.3,0.1,0.7,0.2,1
			c0.2,0.4,1.1,1.7,1.5,1.9c0.2,0.1,0.4,0.1,0.6,0.3c0.3,0.4,0.4,1,0.7,1.5c0.2,0.2,0.4,0.3,0.6,0.5c0.1,0.3,0.2,0.7,0.3,1
			c0.3,0.5,1.3,1,1.7,1.7c0.1,0.3,0.1,0.6,0.2,0.8c0.2,0.4,0.7,0.5,0.9,0.7c0.1,0.2,0.1,0.4,0.2,0.6c0.2,0.2,0.5,0.4,0.7,0.6
			c0.1,0.2,0.1,0.4,0.2,0.6c0.4,0.3,0.8,0.6,1.2,0.9c0.2,0.3,0.2,0.8,0.4,1.1c0.4,0.6,1.2,1.1,1.6,1.7c0.3,0.4,0.3,0.9,0.6,1.3
			c0.2,0.2,0.5,0.5,0.7,0.7c0,0.2,0.1,0.3,0.1,0.5c0.1,0.2,0.4,0.4,0.5,0.6c0.1,0.3-0.1,0.5,0.1,0.7c0.4,0.5,1.3,0.7,1.6,1.3
			c0.4,0.9,0.7,1.8,1.2,2.6c0.3,0.5,0.9,1.1,1.2,1.7c0.1,0.3,0,0.5,0.2,0.7c0.3,0.4,0.8,0.7,1,1.1c0.2,0.3,0.1,0.5,0.2,0.8
			c0.1,0.4,0.5,0.6,0.6,1.1c0,0.3,0.1,0.6,0.1,0.8c0.2,0.3,0.7,0.4,0.8,0.7v0.5c0.1,0,0.2,0.1,0.3,0.1c0.1,0.2,0.2,0.5,0.3,0.7
			c0.2,0.3,0.6,0.5,0.8,0.7c0.1,0.2,0.2,0.5,0.3,0.7l0.6,0.6c0,0.1,0.7,2.4,0.7,2.6c1.2,0.5,0.8,0.7,1.4,1.7
			c0.2,0.2,0.3,0.3,0.5,0.5c0.1,0.3,0.1,0.7,0.2,1c0.6,1,1.6,1.5,2.3,2.4c0.3,0.3,0.2,0.8,0.5,1.2c0.4,0.6,1,1.2,1.4,1.7
			c0.5,0.8,0.8,1.8,1.6,2.3c0.4,0.3,1.4,0.9,1.7,1.3c0.2,0.3,0.4,0.8,0.6,1c0.4,0.3,1,0.3,1.4,0.6c0.3,0.2,0.4,1,0.6,1.3
			c0.4,0.5,1.1,0.7,1.7,1.1c0.4,0.3,0.5,1,0.9,1.3c0.6,0.5,1.3,1,1.9,1.4c0.2,0.1,0.4,0,0.6,0.2c0.2,0.3,0.5,0.7,0.7,1
			c0.2,0.1,0.5,0.2,0.7,0.3c0.6,0.4,1,1.1,1.6,1.6c0.4,0.3,0.9,0.3,1.3,0.6c0.6,0.4,1.3,1.4,1.9,1.8c0.6,0.4,1.3,0.6,1.9,1
			c0.6,0.4,1.1,1.1,1.7,1.5c0.4,0.3,0.9,0.4,1.3,0.6c0.2,0.2,0.4,0.5,0.6,0.7c0.3,0.1,0.6,0.1,0.8,0.2c0.2,0.2,0.4,0.4,0.6,0.6
			c0.4,0.3,0.8,0.4,1.2,0.6c0.2,0.2,0.3,0.4,0.5,0.6c0.6,0.3,1.1,0.3,1.7,0.6c0.4,0.2,0.7,0.6,1,0.7c0.2,0,0.4,0.1,0.6,0.1
			c0.2,0.2,0.4,0.4,0.6,0.6c0.6,0.4,1.4,0.8,2,1.1C478.8,335.1,478.7,335.3,478.8,335.6z M329.8,263c-0.3-0.2-0.4,0-0.6-0.1
			c-0.6,0.1-0.7,0.6-1.1,0.9c0,0.1,0.1,0.4,0.2,0.6c0.1,0.2,0.1,0.3,0.2,0.4c0.2,0.1,0.5,0,0.7,0.1c0.5,0.2,0.8,0.8,1.5,0.9
			c0.3,0,0.5-0.2,0.8-0.2c0-0.2,0.1-0.4,0.1-0.6C331.4,264.5,330.2,263.2,329.8,263z M333.1,265.6c-0.2-0.1-0.5-0.1-0.8-0.1
			c-0.1,0.4-0.4,0.7-0.6,0.9c0.1,0.3,0.1,0.4,0.2,0.7c0.3,0.2,0.6,0.3,0.8,0.5c0.5,0,0.8-0.4,1-0.7c0.1-0.1,0.1-0.4,0.1-0.7
			C333.5,265.9,333.4,265.7,333.1,265.6z M338.8,272.4c0.1-0.3,0.3-0.8,0-1.2c-0.1-0.2-0.2-0.3-0.5-0.4c-0.2-0.1-0.4-0.2-0.7-0.2
			c-0.4,0.3-0.7,0.6-1,0.9c0.1,0.4,0.2,0.7,0.4,1C337.7,272.7,338,272.5,338.8,272.4z M348.2,273.6c1.3-0.2,0.8-1.3,0.4-1.9
			c-0.2,0-0.5-0.1-0.7-0.1c-0.2,0.3-0.5,0.7-0.7,0.9C347.2,273.4,347.7,273.2,348.2,273.6z M346.5,274.4c0-1.4-0.3-1.4-1-2
			c-0.7,0-1.3,1.1-0.9,1.7C344.9,274.7,345.8,274.5,346.5,274.4z M358.1,277c0.7,0,0.6-0.2,1-0.5c0.1-0.2,0.1-0.4,0-0.6
			c0-0.2,0-0.3-0.1-0.5c-0.3-0.2-0.8-0.4-1.3-0.4C357.3,276.1,357.3,276.4,358.1,277z M412.4,318.8c-2.3-2.1-5.3-3.5-7.2-6
			c-0.4-0.5-1.1-0.8-1.5-1.4c-0.2,0.1-0.1,0.1-0.3,0.2v0.2h-0.1c0-0.3,0-0.2,0.2-0.4c-0.1-0.4-0.4-0.3-0.6-0.6
			c-0.4-0.6-0.5-1.3-0.9-1.9c-0.5-0.8-1.5-1.4-2.2-2.1c-0.4-0.5-0.5-1.2-0.9-1.7c-0.2-0.2-0.5-0.4-0.7-0.6c-0.5-0.7-1-1.6-1.4-2.3
			l-0.6-1.7c-0.2-0.2-0.4-0.4-0.6-0.6c-0.3-0.4-1-1.7-1.1-2.1c-0.1-0.2,0.1-0.2,0-0.6c-0.1-0.2-0.4-0.4-0.5-0.6
			c-0.2-0.4,0.1-0.8,0-1.1c-0.1-0.1-0.2-0.2-0.4-0.4v-0.6c-0.1-0.3-0.4-0.8-0.6-1.1c0-0.2,0.1-0.4,0.1-0.6c-0.1-0.4-0.4-0.9-0.6-1.3
			c0-0.2,0.1-0.5,0.1-0.7c-0.1-0.4-0.1-1-0.3-1.6c-0.3-1-0.7-2.8-0.9-3.7c-0.2-0.7,0.1-1.5,0-2.3c-0.2-1-0.2-1.8-0.4-2.9
			c-0.1-0.7,0.2-1.9-0.2-2.5c-0.1-0.1,0,0-0.2-0.1c-0.3,0.4-0.8,0.3-1.2,0.6c-0.6,0.8-0.1,4.1,0.1,4.7c0.3,0.7-0.2,1,0.4,1.4
			c-0.1,0.2-0.2,0.2-0.4,0.3c0,1.3,0.3,2.1,0.5,3.1c0,0.2-0.1,0.4-0.1,0.6c0.1,0.4,0.6,1.1,0.7,1.6c0,0.4-0.1,0.8-0.1,1.2
			c0.4,1.3,0.8,2.8,1.1,3.9c0,0.3-0.1,0.6-0.1,0.8c0.1,0.4,0.3,0.8,0.5,1.1c0,0.3,0.1,0.6,0.1,0.8c0.2,0.5,1,0.9,1.2,1.5
			c-0.3,0.8-0.1,0.5,0.2,1c0,0.3,0.1,0.6,0.1,0.9c0.3,0.5,0.8,1,1.1,1.5c0.2,0.4,0.1,0.8,0.4,1.2c0.4,0.4,0.8,0.8,1.2,1.2
			c0.3,0.4,0.4,0.9,0.6,1.2c0.2,0.4,1.8,2.6,2.1,2.8c0.3,0.2,0.7,0.3,0.9,0.6c0.1,0.2,0.4,1,0.6,1.2c0.2,0.4,1,1.2,0.8,1.6
			c0.2,0.5,0.8,0.4,1.2,0.6c0.3,0.2,0.6,0.8,0.8,1.1c0.2,0.3,0.6,0.4,0.9,0.6c0.6,0.5,0.9,1.4,1.5,1.8c0.5,0.4,1.3,0.6,1.7,1.1
			c0.2,0.1,0.2,0.4,0.4,0.6c0.1,0,0.3-0.1,0.5,0c0.2,0.1,0.6,0.4,0.9,0.6c0.6,0.4,0.9,1.1,1.5,1.5v0.3c0.5,0.1,0.7,0.4,1.1,0.6v0.4
			c0.5,0,0.8,0.2,1.1,0.3c0.7,0.2,1.2-0.2,1.7-0.3c0.1-0.5-0.4-1.8-0.7-2.1C413.7,319.3,412.8,319.2,412.4,318.8z M358.8,281.4
			c0.1-0.2,0.1-0.2,0.2-0.4c0-0.7-0.3-0.7-0.6-1.1c-0.5,0.1-0.7,0.2-1.1,0.3c-0.1,0.4-0.1,0.3-0.3,0.6l0.8,0.8
			C358.4,281.6,358.4,281.5,358.8,281.4z M339,287.5c0.1-0.6,0.1-1.1-0.2-1.6c-0.1-0.1-0.2-0.1-0.3-0.2c-0.9,0-1,0.4-1.5,0.8v0.5
			C337.9,287.9,337.7,287.8,339,287.5z M326.7,289.2c0,0.2,0,0.2,0.1,0.3c0,0.1,0.1,0.2,0.1,0.3c0.3,0.2,0.3-0.1,0.6,0
			c0.3,0.1,0.5,0.4,0.8,0.6c0.1-0.1,0.3-0.3,0.5-0.4c0.1-0.9,0-1.3-0.6-2c-0.6,0-0.6,0.1-1.2,0.2c0,0-0.1,0.1-0.1,0.1
			c0,0.4,0.1,0.5,0.2,0.8c-0.1,0.1,0,0-0.1,0.2H326.7z M337.9,293.1c0.2,0.2,0.6,0.4,0.7,0.6h0.6c0.8-0.8,0.9-0.8,0.6-2
			c-0.3-0.1-0.3-0.1-0.6-0.2c-0.2,0.1-0.5,0.2-0.6,0.3C338.1,292,337.9,292.6,337.9,293.1z M351.7,298.3c0.3,0,0.6,0,0.8-0.2h0.2
			c0.1-0.3,0.2-1.2,0-1.6c-0.1-0.3-0.3-0.4-0.7-0.5c-0.2,0.2-0.4,0.3-0.6,0.5c-0.2,0.2-0.2,0.5-0.4,0.7c0,0.2,0,0.3,0.1,0.4
			C351.2,298,351.4,298.1,351.7,298.3z M359.8,300.6C359.8,300.6,359.9,300.5,359.8,300.6c0.1-0.3,0.2-0.6,0.1-0.8
			c0-0.6-0.2-0.6-0.5-0.9h-0.3c-0.2,0.3-0.4,0.6-0.7,0.7c0,0.6,0.2,0.7,0.4,1C359.2,300.6,359.4,300.6,359.8,300.6z M324.6,302.1
			c-0.1-0.1-0.4-0.1-0.6-0.1c-0.2,0.2-0.4,0.4-0.6,0.6c0,0.4,0.1,0.5,0.3,0.7c0.1,0.3,0.2,0.3,0.6,0.4c0.1,0,0.6-0.1,0.8-0.3h0.2
			C325.3,302.7,325.2,302.3,324.6,302.1z M337.2,304.9c0.2,0.1,0.1,0,0.2,0.1c1,0,1.1-0.2,1.7-0.6c0-0.3-0.1-0.6-0.1-0.8
			c-0.4-0.2-0.6-0.5-1.2-0.6c-0.1,0.1-0.2,0.1-0.3,0.2c-0.3,0.1-0.3,0.4-0.6,0.6c0,0.3,0,0.6,0.1,0.7
			C337.1,304.7,337.1,304.7,337.2,304.9z M334.7,305.5c-0.8,0.4-1.3,0.1-1.3,1.4c0.1,0.1,0.2,0.4,0.4,0.6c0.2,0.1,0.4,0.1,0.6,0.3
			c0.4,0,1-0.3,1.3-0.6c0.1-0.1,0.1-0.2,0.2-0.3C335.7,306.2,335.3,305.8,334.7,305.5z M329.5,305.7c-0.1,0.4-0.2,0.5-0.5,0.6
			c0.1,0.7,0.4,1,0.8,1.4c0.8,0,0.8-0.3,1.2-0.7c0-0.7-0.3-0.9-0.6-1.3L329.5,305.7L329.5,305.7z M341.1,308.7
			c0.5,0,0.8-0.1,1.1-0.2c0-0.8-0.4-1.6-0.7-2.1h-0.3c-0.2,0.3-0.6,0.3-0.8,0.6c-0.1,0.2-0.1,0.5-0.3,0.6
			C340.2,308.3,340.7,308.3,341.1,308.7z M344.7,310.4c0.4-0.2,0.4-0.5,0.6-0.7c-0.1-0.7-0.4-1.1-0.9-1.4c-0.1,0.1-0.3,0.1-0.4,0.2
			c-0.5,0.1-0.5,0.5-0.8,0.8c0.1,0.5,0.3,0.7,0.5,1C344,310.4,344.4,310.6,344.7,310.4z M438,311.5c-0.1,0.1-0.2,0.1-0.3,0.2
			c-0.3,0.2-0.3,0.4-0.6,0.6c0,0.4,0,0.6,0.2,0.8c0.2,0.3,0.6,0.2,0.9,0.5c0.8-0.1,0.6-0.7,0.8-1.1
			C439.1,311.8,438.5,311.7,438,311.5z M348.3,314.5c0.3-0.1,0.2-0.4,0.6-0.5c0-0.2-0.1-0.5-0.1-0.7c-0.2-0.3-0.5-0.6-0.7-0.8
			c-0.4,0-0.3,0-0.6-0.1c-0.2,0.4-0.5,0.8-0.9,1.1C346.8,314.2,347.4,315,348.3,314.5z M356.2,315.6c0.7-0.1,0.8-0.5,1.2-0.8
			c0-0.6-0.2-0.7-0.4-1c-0.5-0.1-1-0.2-1.7-0.2c-0.1,0.2,0,0.1-0.2,0.2c0,0.7,0.2,1.1,0.5,1.6C355.8,315.4,356.1,315.5,356.2,315.6z
			 M335.1,323.2c-0.2,0.3-0.4,0.1-0.6,0.3c-0.2,0.2-0.3,0.7-0.1,0.9c0.1,0.2,0.1,0.2,0.2,0.4c0.2,0.1,0.1,0,0.2,0.1h1.4
			c0.4-0.2,0.4-1,0.2-1.3C336.1,323.2,335.5,323.2,335.1,323.2z M348.8,325c-0.2,0-0.4-0.1-0.6-0.1c-0.1,0.2-0.2,0.2-0.5,0.3
			c0,0.2,0,0.2-0.1,0.4c0.2,0.2,0.3,0.4,0.4,0.6c0.2,0.1,0.1,0,0.2,0.1c0.5,0,0.6-0.1,0.7-0.4c0.1-0.1,0.1,0,0-0.2
			C349,325.3,348.9,325.2,348.8,325z M331.8,327.9c-0.2,0.3-0.9,1-0.5,1.6c0.1,0.3,0.2,0.3,0.4,0.5c0.9,0.1,1.1-0.1,1.6-0.6
			c0-0.7-0.3-0.8-0.5-1.3C332.5,327.9,332.2,327.9,331.8,327.9z M339.1,328c-0.1-0.1-0.3-0.1-0.6-0.1c-0.2,0.3-0.6,0.6-0.8,0.8
			c0,0.8,0.2,0.7,0.6,1c0.8,0,0.8-0.3,1.3-0.6c0-0.5,0.1-0.6-0.1-0.8C339.4,328.1,339.4,328.1,339.1,328z M451.4,331.3
			c0.4,0,0.7,0,0.9-0.2c0.3-0.2,0.3-0.5,0.5-0.8c-0.3-0.3-0.8-0.9-0.9-1.4h-0.3c-0.2,0.4-0.4,0.6-0.9,0.7c0,0.3-0.1,0.4,0,0.6
			C450.7,331,451.1,330.9,451.4,331.3z M354.5,329.6c-0.3,0.3-0.8,0.4-1.2,0.6c0.1,0.4,0.4,1.1,0.6,1.4c0.4,0,0.6,0,0.8-0.2
			c0.4,0,0.6-0.3,0.7-0.6c0.1-0.1,0.1,0,0-0.2C355.3,329.9,354.9,329.8,354.5,329.6z M400.8,331.4c-0.1,0.5-0.3,0.7-0.5,1.1
			c0.1,0.1,0.2,0.2,0.3,0.4c0.2,0,0.6,0.1,0.7,0.2c0.6-0.1,0.6-0.4,1-0.6c0-0.2,0-0.3-0.1-0.5C402.1,331.6,401.4,331.5,400.8,331.4z
			 M461.6,338.9c0.9,0,1.4-0.7,1.9-1.2c0.6-0.8-0.4-1.7-1.3-1.7c-0.2,0.3-0.6,0.3-0.8,0.6c-0.4,0.5,0.1,0.8-0.6,1
			c0.1,0.5,0.3,0.8,0.6,1.2C461.6,338.8,461.5,338.8,461.6,338.9z M430.8,336.9c-0.2,0.2-0.4,0.4-0.6,0.6c0.1,0.3,0,0.5,0.2,0.7
			c0.2,0.3,0.5,0.2,0.8,0.5c0.6,0,0.6-0.2,0.9-0.6c0-0.6-0.1-0.8-0.3-1.1C431.5,337,431.1,337,430.8,336.9z M467.5,341.4
			c0-0.2,0-0.3,0.1-0.4c0-0.7-0.3-1.2-0.9-1.4v-0.6h-0.3c0,0.1-0.7,1.6-0.7,1.7c0.1,0.5,0.3,0.7,0.6,0.8
			C466.6,341.7,467.2,341.4,467.5,341.4z M409.9,343.3c-0.2,0.3-0.4,0.2-0.6,0.4c-0.2,0.2-0.2,0.5-0.4,0.7c0.1,0.4,0.3,0.5,0.5,0.8
			c0.6,0,1.2,0,1.5-0.3c0-0.1,0.1-0.8,0-0.9C410.8,343.4,410.5,343.4,409.9,343.3z M447.9,345.9c0-1.1-0.1-0.6-0.6-1
			c-0.3-0.2-0.3-0.5-0.6-0.6c-0.1,0.1-0.4,0.1-0.5,0.2c-0.4,0.2-0.5,0.6-0.6,1c0.3,0.3,0.8,0.5,1.1,0.8
			C447.2,346.3,447.4,346.1,447.9,345.9z M426,347.3c-0.1,0.1-0.4,0.2-0.6,0.3c-0.4,0.2-0.1,0.5-0.2,0.7c0,0.3,0,0.5,0.1,0.7
			c0.9,0,1.2-0.1,1.7-0.5c-0.1-0.3-0.2-0.8-0.4-1.1C426.5,347.4,426.3,347.4,426,347.3z M459.3,349.6c0.6,0.1,0.6-0.3,1-0.2h0.2
			c0-0.6-0.1-0.8-0.4-1.4c-0.2-0.1-0.6,0-0.8-0.1c-0.3-0.1-0.3-0.4-0.7-0.5c-0.7,0.7-0.7,1-0.1,1.8L459.3,349.6z M451.4,351.1
			c0.2,0.2,0.4,0.5,0.6,0.7c0.6,0,1-0.1,1.4-0.4c0.1-0.2,0.2-0.4,0.1-0.6c-0.2-0.5-0.6-0.8-1.3-0.8
			C452,350.5,451.6,350.6,451.4,351.1z M467.2,350.5h-0.5c-0.2,0.4-0.3,0.7-0.6,0.9c0,0.3,0,0.4,0.2,0.6c0.2,0.4,0.6,0.4,0.8,0.6
			c0.9,0,0.8-0.4,1.3-0.7c0-0.2,0-0.3-0.1-0.5C468.1,350.9,467.6,350.9,467.2,350.5z M455.1,354.9c0.2-0.1,0.4-0.2,0.6-0.3
			c0.2-0.4,0.3-1.2-0.1-1.6c-0.1-0.3-0.3-0.3-0.6-0.4c0,0.2-0.1,0.3-0.1,0.5c-0.1-0.1-0.3-0.2-0.4-0.3h-0.5c-0.1,0.3-0.3,0.7-0.1,1
			C454.1,354.7,454.6,354.5,455.1,354.9z M443.1,353.7c-0.1,0.2-0.2,0.3-0.4,0.5c0.1,0.4,0.6,0.7,0.9,0.8v0.1c0.7,0,0.6-0.2,0.9-0.6
			c0-0.2,0-0.3-0.1-0.4C444.1,353.9,443.6,353.7,443.1,353.7z M462.9,354.4c-0.2-0.5-0.7-0.6-1.3-0.6c-0.3,0.4-0.9,0.9-0.6,1.5
			c0.2,0.5,1.2,0.6,1.6,0.9C462.6,356.1,463,354.6,462.9,354.4z M434.5,354.4c-0.2,0.2-0.6,0.6-0.8,0.7c0.1,0.7,0.6,0.8,0.9,1.3
			c0.3,0,0.4-0.1,0.6-0.2c0.5,0,0.5-0.2,0.8-0.4C435.8,355,435.2,354.7,434.5,354.4z M463.3,356.2h-0.4c0.1,0.2,0,0.2,0.2,0.3
			c-0.1,0.2,0,0.1-0.3,0.2c0,0.5,0,0.9,0.2,1.1c0.2,0.4,0.6,0.5,1.1,0.6c0.3-0.2,0.6-0.2,0.7-0.6c0.2-0.4-0.3-1-0.6-1.3
			C463.9,356.4,463.5,356.4,463.3,356.2z M458.9,358.6c0.6,0,1-0.3,1.3-0.6c0.1-0.2,0.1-0.3,0-0.5c-0.1-0.6-0.7-1.1-1.4-1.1
			c-0.5,0.4-0.5,0.6-0.9,1c0,0.4,0,0.5,0.2,0.7C458.3,358.5,458.6,358.4,458.9,358.6z M442.4,357.9c-0.1-0.1-0.3-0.1-0.6-0.1
			c-0.1,0.1-0.3,0.2-0.5,0.3c-0.3,0.1-0.5,0.7-0.4,0.9c0.1,0.6,0.5,0.5,0.9,0.8c0.8,0,0.8-0.4,1.4-0.6
			C443.4,358.5,443,358.1,442.4,357.9z M447.4,358.3c-0.2,0.4-0.6,0.6-1,0.8c0.1,0.5,0.4,0.9,0.9,1c0.2,0.1,0.6,0,0.8-0.2
			c0.2-0.1,0.2-0.2,0.4-0.3c0-0.7-0.2-0.9-0.4-1.4H447.4L447.4,358.3z M454,358.3v0.4h0.4c-0.1-0.2-0.1-0.2-0.2-0.4H454z M454.4,360
			c0.2-0.1,0.3-0.3,0.6-0.5c0-0.9-0.8-0.9-1.6-1c-0.1,0.1-0.2,0.1-0.3,0.2c-0.2,0.1-0.2,0.3-0.4,0.6c0.1,0.4,0.2,0.5,0.4,0.7
			C453.4,360.1,454.1,360.2,454.4,360z M458.4,361.3c0,0.1-0.1,0.2-0.1,0.3c-0.7-0.1-1,0-1.5,0.3c-0.2,0.7-0.2,1.1,0.2,1.7
			c0.2,0,0.4,0.1,0.6,0.2c0.7,0,1-0.3,1.2-0.7c0.3,0,0.6,0.1,0.7,0.2c0.9,0,0.8-0.2,1.2-0.6c0-0.7-0.3-0.8-0.6-1.2
			C459.5,361.4,459.1,361.4,458.4,361.3z M451.8,364c0.3,0.2,1.5,0.3,1.7,0h0.2c0.1-0.8-0.3-1.5-0.6-2.1c-0.3-0.1-0.6-0.1-1-0.1
			c-0.2,0.1-0.4,0.3-0.6,0.4c0,0.4,0,0.7-0.2,0.9C451.3,363.7,451.4,363.9,451.8,364z M447.1,362.5c-0.1,0.1-0.1,0.1-0.3,0.1
			c-0.2,0.3-0.3,1-0.7,1.1c0.2,0.4,0.5,0.5,0.7,0.9c0.6-0.1,1-0.2,1.4-0.5c0.1-0.2,0.1-0.3,0.3-0.5c-0.1-0.4-0.2-0.4-0.2-0.9
			C447.9,362.6,447.7,362.5,447.1,362.5z M451.7,365c-0.6-0.3-0.9-0.6-1.4-1c-0.9,0-0.8,0.3-1.6,0.3c0.2,0.9,0.8,1.6,1.9,1.6
			c0.3-0.3,0.4-0.6,1-0.6L451.7,365L451.7,365z M454.6,366c-0.1-0.3-0.2-0.4-0.4-0.6c-0.3-0.1-0.6-0.2-1.1-0.2
			c-0.3,0.4-0.8,1-1.5,0.8c0,0-0.1,0.1-0.1,0.1c0.1,0.1,1.5,0.6,1.7,0.9c0.2,0,0.3,0,0.4-0.1C454.2,366.7,454.1,366.2,454.6,366z
			 M455.4,365.2c-0.4,0-0.4,0-0.6,0.4c-0.2,0.4,0.3,1.1,0.6,1.4v0.1c-0.9,0-1.1,0.1-1.6,0.5c0,0.3,0.1,0.9,0.3,1.1
			c0.1,0.4,0.4,0.6,0.8,0.7v0.1c0.6,0,0.9-0.1,1.2-0.3c0-0.5,0.4-1,0.2-1.6c0-0.1-0.2-0.2-0.2-0.5c0.2,0,0.2,0,0.3-0.1
			c0.5-0.2,0.5-0.5,0.7-0.8c0-0.5-0.2-0.5-0.4-0.8C456.4,365.3,455.8,365,455.4,365.2z"/>
	</g>
</g>
</svg>
