<?xml version="1.0" encoding="utf-8"?>
<!-- Generator: Adobe Illustrator 21.0.0, SVG Export Plug-In . SVG Version: 6.00 Build 0)  -->
<svg version="1.1" id="Calque_1" xmlns="http://www.w3.org/2000/svg" xmlns:xlink="http://www.w3.org/1999/xlink" x="0px" y="0px"
	 viewBox="0 0 841.9 595.3" style="enable-background:new 0 0 841.9 595.3;" xml:space="preserve">
<style type="text/css">
	.st0{fill:#DADADA;}
</style>
<ellipse class="st0" cx="449.2" cy="408.1" rx="102.9" ry="7.9"/>
<g>
	<g>
		<path d="M547.5,254.9h0.1c-0.2-0.2-1-0.2-1.3-0.2c0.2-2.2,0.5-4.3-0.1-6.2c0-0.3,0.1-0.6,0.1-0.8c-0.1-0.4-0.9-0.9-1-1.1
			c-0.1-0.4-0.2-0.8-0.2-1.2c-0.3-0.6-0.9-1.3-1.2-1.9c-0.3-0.6-0.3-1.2-0.6-1.8c-0.1-0.2-0.6-0.3-0.7-0.5c-0.2-0.3-0.1-0.7-0.2-1
			c-0.4-0.5-1.1-1-1.5-1.6c-0.3-0.4-0.2-0.9-0.5-1.3c-0.2-0.2-0.6-0.3-0.7-0.5c-0.5-0.8-1.1-1.6-1.7-2.2c-0.3-0.3-0.8-0.3-1.1-0.5
			c-0.2-0.2-0.2-0.6-0.4-0.7c-1.9-1.5-4.1-3-6.4-4c-1-0.4-1.9-0.6-3-0.8h-1.2c-0.6-0.2-1.5-0.6-2.2-0.7c-0.7-0.1-2.7,0.2-3.3-0.1
			c-0.3-0.6,0.6-1.5,0.8-2.1v-0.8c0.2-0.5,0.7-1.2,0.8-1.7c0-0.3,0.1-0.6,0.1-1c0.1-0.3,0.6-0.8,0.7-1.1l0.1-1.8l-0.4-0.4v-0.8
			c-0.1-0.3-0.5-0.2-0.4-0.7c0.2-1.1-1-2.8-1.5-3.9c0.2-1.1-0.8-2-1.3-2.8c-0.1-0.4-0.2-0.7-0.4-1.1c-0.8-1.2-1.8-2.3-2.9-3.3
			c-0.2-0.2-0.3-0.6-0.5-0.7c-0.4-0.3-1.1-0.7-1.4-0.8h-0.7c-0.2-0.1-0.4-0.6-0.6-0.7c-0.3-0.2-1.2,0-1.3-0.1
			c-0.1-0.1-0.2-0.5-0.4-0.6c-0.3-0.2-1.5-0.5-1.8-0.6c-0.3-0.1-0.6,0.1-0.7,0.1c-0.7-0.2-1.7-1-2.4-1.2h-1.2
			c-0.1-0.2-0.2-0.3-0.2-0.5c-0.6-0.4-2.5-0.9-3.3-1.1c-1.4-0.3-3.1,0.1-4.2,0.4c-1,0.2-2-0.4-3.4-0.1c-1.2,0.3-2.5,0.4-3.4,0.7
			c-0.5,0-1,0.1-1.6,0.1l-0.4,0.4c-0.5,0.2-0.9-0.3-1.5,0c-2.5,1.2-5.1,2.3-7.1,4c-0.6,0.5-1.4,0.5-2.1,1c-0.5,0.4-1.1,1.4-1.6,1.8
			c-0.4,0.4-1.1,0.6-1.6,1c-1.2,1-2.3,2.3-3.4,3.4c-1.6,1.6-4.3,4.1-5.2,6.3c-0.2,0.6-0.1,1-0.4,1.6c-0.2,0.4-0.7,0.7-0.8,1.1
			c-0.2,0.6,0.2,1.1,0.2,1.3c0.2,0.5-0.3,2.7-0.4,3.4v1.9l-0.4,0.4c0.1,0.5,0.4,2,0.2,2.5c0,0.2-0.3,0.3-0.2,0.7
			c0,0.2,0.3,0.3,0.2,0.6c0,0-0.3,0.4-0.4,0.5c-0.3,1-0.1,2.5-0.1,3.8c0,0.8,0.7,1.7,0.5,2.3c-0.1,0.3-0.4,0.3-0.4,0.5
			c0,0.2,0.9,1.6,1,1.6c-0.7,0.7-1.5,0.7-2.5,1.1c-0.7,0.3-1.5,1-2.2,1.2c-1,0.4-1.9,0.3-2.8,0.8c-0.1,0.2-0.2,0.3-0.4,0.5
			c-0.4,0.2-0.8,0.1-1.2,0.4c-0.1,0.2-0.2,0.3-0.4,0.5h-0.7c-0.3,0.1-0.6,0.6-0.8,0.7c-0.4,0.2-0.8,0.1-1.2,0.4
			c-0.2,0.1-0.4,0.6-0.6,0.7h-0.8v0.2c-0.6,0.1-1.1,0.2-1.7,0.4c-1,0.4-2.1,1.3-3,1.8c-0.6,0.3-1.3,0.3-1.9,0.6
			c-0.6,0.3-1.4,0.8-1.9,1.2c-0.1,0.1-0.2,0.4-0.2,0.5c-0.2,0-0.4-0.1-0.6-0.1c-0.3,0.1-0.7,0.8-1,1l-1,0.2c-0.5,0.3-1,0.8-1.5,1.1
			c-0.8,0.5-1.8,0.6-2.5,1.1c-0.7,0.5-1.4,1.3-2.2,1.8l-1.1,0.4c-0.1,0.2-0.2,0.4-0.4,0.6c-0.4,0.1-0.9,0.2-1.3,0.4
			c-0.5,0.3-1.1,1-1.6,1.3c-0.7,0.5-1.6,0.6-2.3,1.1c-0.5,0.3-0.9,0.9-1.3,1.2c-0.5,0.3-1.1,0.4-1.6,0.7c-0.2,0.2-0.4,0.5-0.6,0.7
			c-0.4,0.2-0.7,0.1-1.1,0.4l-0.8,0.8c-0.3,0-0.6,0.1-0.8,0.1c-1,0.6-1.8,1.6-2.8,2.2c-0.4,0.2-0.8,0-1,0.1
			c-0.2,0.3-0.3,0.6-0.5,0.8c-0.7,0.6-1.7,0.6-2.4,1.2c-0.2,0.2-0.3,0.7-0.6,0.8c-1.2,0.8-2.4,1.2-3.3,2.3c-0.3-0.5-1.2,0.9-1.6,0.8
			c-0.6-0.1-1.5,0.8-2.1,1.2c-0.8,0.6-2.1,0.9-2.9,1.5c-0.2,0.2-0.8,0.8-1,1c-0.3,0.1-0.6,0.2-0.8,0.2c-1.7,1.4-3.5,2.4-5.3,3.6
			c-0.4,0.3-0.6,0.8-1,1.1c-0.8,0.7-1.8,1-2.7,1.6c-0.5,0.4-1,1.1-1.6,1.5c-1.1,0.7-2.1,1-3.1,1.7c-2.7,1.9-5.1,4.3-8,6.1
			c-0.9,0.5-1.8,2-2.5,2.7c-2.1,1.9-4.1,3.9-6.2,5.8c-0.4,0.4-0.6,0.8-1,1.2c-0.4,0.3-0.8,0.6-1.2,1l-0.2,0.5
			c-0.2,0-0.4,0.1-0.6,0.1c-0.2,0.2-0.3,0.5-0.5,0.7c-0.6,0.6-1.4,1.2-2.1,1.8c-0.3,0.3-0.4,0.7-0.7,1c-0.4,0.3-1,0.6-1.3,1
			c-0.3,0.4-0.6,1-1,1.3c-2.1,1.7-4.1,3.3-6.2,5c-1.6,1.3-2.9,3-4.6,4.2c-0.8,0.6-1.3,1.6-2.1,2.2c-0.4,0.3-0.8,0.4-1.1,0.7
			c-0.2,0.3-0.5,0.6-0.7,1c-0.4,0.3-0.7,0.2-1.1,0.5c-0.7,0.4-1.2,1.5-1.8,2.1c-0.2,0.1-0.5,0.1-0.6,0.2c-1.6,1.6-3,3.4-4.6,5
			c-0.8,0.8-1.9,1.3-2.5,2.2c-0.7,0.9-2.1,2.8-3.3,3.1v0.1c-0.7-0.3-0.9-1-1.5-1.5c-0.4-0.3-0.7-0.7-1.1-1c-0.3-0.2-0.6-0.1-0.8-0.2
			c-0.2-0.2-0.3-0.4-0.5-0.6c-0.6-0.4-1.9-0.8-2.5-1h-0.8c-1-0.4-2.6-0.8-3.6-1.1c-0.6-0.1-1.6,0.1-2.1,0.2c-0.6,0-1.2-0.1-1.8-0.1
			c-0.3,0.1-1,0.4-1.3,0.5c-0.7,0.1-1.7-0.1-2.4,0.1c-1,0.3-2.1-0.1-2.8,0.6c-0.4-0.7-1.6,0.2-2.1,0.1c-3-0.4-5.1,0.7-7.7,1.5
			c-2.5,0.7-4.8,1.7-6.7,3c-0.6,0.4-1.7,0.6-2.2,1.1c-0.4,0.4-0.4,1-0.7,1.6c0-0.2-0.6-0.1-0.7,0l-0.2,0.5c-0.3,0.2-0.6,0.2-0.8,0.5
			c0,0.2-0.1,0.4-0.1,0.6c-0.3,0.2-0.6,0.3-1,0.5c-0.1,0.1-0.7,0.7-0.7,0.7c-0.2,0.3-0.1,0.8-0.4,1h-0.5c0,0.2-0.1,0.3-0.1,0.5
			c-0.3,0.4-1.1,0.7-1.3,1c-0.4,0.5-0.5,1.2-0.8,1.7c-0.3,0.5-1,0.8-1.3,1.3c-0.3,0.4,0,0.9-0.2,1.5c-0.2,0.5-0.7,1.1-1,1.6
			c-0.3,0.6-0.9,3.9-0.8,4.7c0,0.3,0.3,0.2,0.2,0.6c0,0.1-0.3,0.5-0.4,0.6c-0.1,0.3,0.1,0.8,0.1,1c-0.3,1.8-0.2,2.5,0.2,4.2
			c0,0.7,0.1,1.4,0.1,2.1c0.3,0.8,2.7,3.9,2.3,4.6c0.2,0.3,0.1,0.2,0.5,0.2c0,0-0.1,0.1-0.1,0.1c0.1,0.5,0,0.3,0.6,0.2
			c0.4,0.9,0.9,1.3,1.3,1.9c0,0.2,0.1,0.4,0.1,0.6c0.2,0.2,0.7,0.2,0.8,0.4c0.3,0.4,0.6,1,1,1.3c0.4,0.3,1.2,0.5,1.6,0.8
			c0,0.2,0.1,0.4,0.1,0.6c0.2,0.2,0.6,0.2,0.8,0.4c0.9,0.6,1.8,1.6,2.8,2.1h0.6c0.3,0.1,0.5,0.6,0.8,0.7c0.5,0.2,1.1-0.2,1.3-0.1
			c0.2,0.2,0.3,0.5,0.5,0.7c0.8,0.5,2.3,0.7,3.4,0.8c0.9,0.1,2.9-0.1,3.8-0.4c1.2,0,2.4-0.1,3.6-0.1c1.9-0.7,4.8-1.3,7.5-1.5
			c-0.5,3.6-1.4,6.8-0.7,10.2c0,0.1-0.2,0.3-0.1,0.6c0.1,0.5,0.2,1,0.4,1.6v1c0.3,0.8,0.9,2.1,1.5,2.9c0.2,0.2,0.6,0.4,0.7,0.6
			c0.3,0.5,0.3,1.2,0.7,1.6c0.2,0.2,0.6,0.2,0.8,0.5c0.2,0.3,0.3,0.8,0.6,1c0.3,0,0.6,0.1,0.8,0.1c0.3,0.2-0.2,0.3,0,0.6
			c0.2,0.3,0.8,0.3,1.1,0.5c0.2,0.1,0.2,0.5,0.4,0.7c0.2,0.2,0.6,0.2,0.8,0.4c0.1,0.2,0.2,0.4,0.4,0.6c0.3,0.2,0.6,0.1,0.8,0.2
			c0.2,0.1,0.5,0.5,0.7,0.6h0.7c0.5,0.2,1.1,1,1.6,1.2c0.4,0,0.7,0.1,1.1,0.1c0.4,0.2,0.8,0.8,1.2,1c0.3,0,0.6,0.1,0.8,0.1
			c0.2,0.2,0.4,0.4,0.6,0.6c0.6,0.4,1.3,0.4,1.8,0.5v0.4c0.4,0,0.7-0.3,1-0.2c0.2,0.1,0.7,0.7,1,0.8h0.6c0.2,0.1,0.4,0.4,0.6,0.5
			c0.3,0.1,1-0.2,1.2-0.1c0.2,0.1,0.5,0.5,0.8,0.6c0.6,0.2,2.8,0,3.1,0.4c0.5-0.1,0.2-0.2,0.5-0.4c0,0,0.8,0.5,1.6,0.2
			c0,0,0.4-0.1,0.5-0.1v-0.2c0.4,0,0.7,0.1,1.1,0.1c0.1-0.1,0.2-0.2,0.2-0.4c0.4-0.2,1.2-0.2,1.7-0.2v-0.4c0.7-0.2,1.1,0,1.8-0.2
			c0.9-0.4,2-1.1,2.9-1.5c3.1-1.1,6.3-2.5,9.1-4.2c1.7-1.1,4.1-1.6,5.2-3.3c0.6-0.8,1.5-1.5,1.9-2.3c1.1-1.9,2.1-3.4,3.1-5.2
			l0.7-0.7c0.6-1.2,2.1-3.8,3.1-4.4c-0.2-0.3,0-0.1-0.4-0.2l0.4-0.4c0-0.3-0.1-0.6-0.1-1c0.1,0,0.2-0.1,0.4-0.1
			c0.3-0.5,0.1-0.8,0.2-1.5c0.4-1.3,1.5-2.9,1.5-4.5c0.3-0.1,0.3,0,0.5-0.1h0.1c-0.1-0.1-0.1-0.1-0.4-0.1c0-0.9,0.2-1.8-0.4-2.4
			c0.2-0.3,0.1-0.2,0.6-0.2c0.2-0.5-0.2-0.8,0.5-1c-0.2-0.6-0.3-1.9-0.5-2.5c0-0.4,0.1-0.8,0.1-1.2c-0.1-0.3-0.4-0.7-0.5-1
			c-0.1-0.7-0.2-1.4-0.2-2.1c-0.2-0.6-0.9-1.2-1.1-1.8c-0.1-0.3,0.2-0.3,0.1-0.7c-0.1-0.4-0.7-1.2-1.2-1.3c0-1.1-1.5-3.2-2.3-3.6
			c0.1-1.9,2-2.4,3-3.4c1.3-1.2,2.5-2.4,3.9-3.5c0.2-0.2,0.2-0.6,0.4-0.7c0.2,0,0.4-0.1,0.6-0.1c0.1-0.2,0.2-0.4,0.4-0.6
			c0.6-0.5,1.2-0.7,1.8-1.2c1.3-1.1,2.2-2.5,3.9-3.1v-0.6c1.5-0.2,3.6-2.7,4.6-3.6c1.4-1.4,3.2-2.6,4.8-3.8c1.2-0.9,2.3-2.1,3.5-3
			c1.8-1.3,3.7-2.4,5.6-3.8c0.3-0.2,0.4-0.6,0.6-0.8c0.3-0.1,0.6-0.2,0.8-0.2c0.6-0.4,1.1-1.1,1.7-1.5c0.3-0.2,0.5-0.1,0.7-0.2
			c0.4-0.3,0.9-1,1.3-1.3c0.7-0.5,1.5-0.7,2.3-1.2c0.3-0.2,0.6-0.9,0.8-1.1c0.4-0.3,0.7-0.1,1.1-0.4c0.3-0.2,0.5-0.6,0.7-0.8
			c0.3-0.1,0.6-0.2,0.8-0.2c0.3-0.2,0.5-0.7,0.7-0.8h0.5c0.1-0.1,0.1-0.4,0.2-0.5c0.2-0.1,0.5-0.1,0.6-0.2c0.2-0.2,0.1-0.5,0.2-0.7
			c0.2-0.1,0.5-0.2,0.7-0.2c0.3-0.2,0.4-0.7,0.6-0.8h0.6c0.3-0.2,0.2-0.7,0.5-0.8c0.3-0.2,1-0.3,1.3-0.5c0.4-0.3,0.4-1.2,0.8-1.5
			h0.5c0.1-0.1,0.1-0.4,0.2-0.5c0.4-0.3,0.8-0.1,1.1-0.5v-0.4l1.1-0.4c0.4-0.3,0.8-1,1.2-1.3c0.6-0.4,1.9-0.9,2.3-1.3v-0.5h0.1
			c0.4-0.3,0.8-0.3,1.2-0.6c0.2-0.1,0.2-0.5,0.4-0.6c0.2,0,0.5-0.1,0.7-0.1c0.2-0.2,0.3-0.6,0.5-0.7c0.4-0.3,1.1-0.7,1.5-1.1
			c0.1-0.2-0.1-0.4,0.1-0.5c0.2,0,0.4,0.1,0.6,0.1c0.6-0.2,1.1-0.9,1.6-1.2c1.4-1,2.8-1.8,4.2-2.8c1.1-0.8,2.2-2.4,3.8-2.7v-0.4
			c0.8-0.1,0.6-0.5,1.1-0.8c0,0,1.5-0.4,1.8-0.6c0.2-0.1,0.3-0.6,0.5-0.7c0.3-0.3,1-0.1,1.6-0.4c0.4-0.2,0.5-1,0.8-1.2
			c0.7-0.4,1.3-0.1,1.6-0.8c0.3,0.1,0.3,0.2,0.7,0.2c0-0.3-0.1-0.3-0.1-0.5c0.9-0.5,2-1.1,2.8-1.8c0.1-0.1,0.1-0.1,0.1-0.4
			c1.3-0.1,2.2-1.3,3-1.9c1-0.7,2.4-0.8,3.4-1.5c0.4-0.2,0.4-0.9,0.7-1.1c0.5-0.4,1.1-0.4,1.7-0.7l0.7-0.7c0.4-0.3,0.8-0.2,1.2-0.5
			c0.2-0.1,0.1-0.4,0.2-0.6c0.3-0.3,0.9-0.2,1.2-0.4c0.4-0.2,0.7-0.6,1.1-0.8c0.1-0.4,0.3-0.9,1-1.1c0.1-0.2,0.2,0,0.5,0.1
			c0.3-0.3,0.6-0.2,1.1-0.5c0.3-0.2,0.2-0.6,0.5-0.8c0.6-0.2,1.2-0.3,1.8-0.5c1-0.6,2.2-1,3.3-1.7c0.2-0.2,0.4-0.6,0.6-0.7
			c0.2-0.2,2.2-0.5,2.2-0.5c0-0.1,0.1-0.2,0.1-0.4c0.6-0.4,1.4-0.5,2.1-0.8c0-0.1,0.1-0.2,0.1-0.4c0.4,0,0.7-0.1,1.1-0.1
			c0.7-0.3,0.7-0.9,1.9-1c0.1,1.7,1,2.4,1.5,3.6l0.1,0.1h-0.1c-0.1,0.1-0.2,0-0.6,0c0.3,0.4,0.9,0.4,1.2,0.7c1,1.2,1.6,2.5,2.8,3.5
			c0.1,0.2,0,0.2-0.1,0.4c0.3,0.4,0.9,0.6,1.3,0.8c0.3,0.2,0.1,0.5,0.4,0.8c0.2,0.2,0.6,0.3,0.8,0.5c0.1,0.2,0.2,0.4,0.4,0.6
			c0.3,0.2,1.5,0.3,1.7,0.5c0.1,0.1,0.6,0.9,0.7,1c0.5,0.3,0.9,0.1,1.5,0.4c0.9,0.4,2.1,1,3.3,1.3c0.6,0.2,1.6,0.3,2.1,0.2
			c0.2,0,0.3-0.2,0.6-0.1l0.4,0.4c1.1,0.2,2.1-0.3,3.1-0.1c1.1,0.2,2.3,0.7,3.5,0.4c1.6-0.4,3.2-1.3,4.6-1.9c0.5-0.1,1-0.2,1.5-0.2
			c1.2-0.4,2.3-1.1,3.3-1.7c0.6-0.3,1.3-0.6,1.9-0.8c1.3-0.8,3.8-2.3,4.6-3.5c0.3,0,0.3,0,0.5,0.1c0.4-0.2,0.4-0.7,0.7-1
			c0.5-0.4,1.2-0.6,1.7-1.1c0.2-0.2,0.2-0.5,0.4-0.6c2.9-1.7,5.4-3.8,7.5-6.3c0.4-0.4,1.1-0.7,1.4-1.1c0.2-0.2,0.1-0.6,0.4-0.7h0.4
			l1.7-1.7c0-0.2,0.1-0.4,0.1-0.6c0.4-0.4,1.1-0.7,1.5-1.2c0.7-1.1,1.2-2.5,1.7-3.8h0.5c-0.1-0.9,0.3-1.1,0.6-1.8
			c0.2-0.6,0.1-1,0.4-1.6c0.9-1.9,2.1-3.9,1-6.2c0.3-0.1,0.5-0.2,0.7-0.4h0.1c-0.3-0.2-0.3-0.1-0.6,0c-0.1-0.2-0.1-0.6-0.2-0.7v-0.2
			C546.6,255,547.3,255,547.5,254.9z M466.3,234.5c0-0.4,0-0.6,0.1-0.8c0.5,0.1,0.4,0.2,0.7,0.4c0,0.3,0,0.6-0.1,0.7
			c0.1,0.4,0.2,0.4,0.4,0.7h0.4v0.4c-0.1,0.1-0.2,0.2-0.2,0.2c-0.5,0-0.7,0-1,0.2h-0.2C466.3,235.7,466.4,234.7,466.3,234.5z
			 M469.2,239.1c0.7-0.1,0.9-0.4,1.2-0.8c0.4,0.2,0.2,0.3,0.7,0.4c-0.4,0.8-2,0.8-2.5,1.5c-0.7-0.2-0.4-0.8-1.1-1.1v-0.4
			C467.9,238.8,468.7,239.4,469.2,239.1z M468.7,231c0.1,0,0.2,0.1,0.2,0.1v0.2C468.6,231.2,468.8,231.4,468.7,231z M470.2,235.4
			c-0.1-0.3-0.2-0.4-0.4-0.7c0.2,0,0.2,0,0.4,0.1c0.3,0.1,0.3,0.2,0.5,0.4c-0.1,0.3-0.2,0.4-0.4,0.7c-0.1,0-0.2,0.1-0.4,0.1v-0.1
			C469.8,235.7,470,235.5,470.2,235.4z M467.1,238.3v0.2c-0.4-0.1-0.3-0.1-0.5-0.4c-0.1-0.2,0,0,0-0.4
			C466.9,238,466.8,238.1,467.1,238.3z M369.9,389.3v0.1h-0.1c0-0.1,0.1-0.2,0.1-0.4C370,389.3,370.1,389.1,369.9,389.3z
			 M398.9,328.9c-0.2,0-0.4,0.1-0.6,0.1c-0.1,0.1-0.1,0.5-0.2,0.6c-0.2,0-0.3-0.1-0.5-0.1c-0.2,0.3-0.3,0.6-0.5,0.8h-0.5
			c-0.4,0.2-1.1,0.7-1.5,1.1c-0.3,0-1.6-0.2-1.7-0.2c-0.5-0.3-0.4-0.5-0.5-1c-0.1,0-0.2-0.1-0.4-0.1c-0.4,0.5-0.7,0.5-1.3,0.8
			c-0.2,0.1-0.4,0.5-0.6,0.7c0.1,0.4,0.1,0.8,0.4,1.1c0.1,0.6,0.8,0.8,1.3,1c-0.2,0.7-0.9,0.8-1.3,1.2c-0.6-0.1-0.9-0.8-1-1.3
			c-0.3,0-0.9,0.1-1.1,0c-0.6-0.2-0.4-0.6-1.6-0.6c-0.1-0.4-0.1-0.4-0.2-0.6c-0.2-0.3-0.6-0.5-1-0.6c0.1-0.4,0.2-0.3,0.2-0.8h0.6
			c0.1-0.3,0.2-0.7,0.4-0.8c0.4-0.1,0.7-0.2,1.1-0.4c0.5-0.4,1-1.3,1.6-1.6c0.5-0.3,1.1-0.1,1.5-0.5c0-0.2,0.1-0.5,0.1-0.7
			c0,0,1-0.7,1.1-0.7c0.4,0.4,0.9,1.1,1.1,1.7c0.4,0.2,0.9,0.3,1.3,0.5c0.1,0,0.2-0.3,0.2-0.4c0.4,0,0.7-0.1,1.1-0.1
			c0.6-0.2,0.9-0.6,1.7-0.6c0.1-0.3,0.1-0.6,0.1-1.1h0.6c0.3,0.7,0.9,0.7,1.5,1.1c0.2,0.1,0.1,0,0.2,0.1
			C399.8,327.9,399.5,328.6,398.9,328.9z M402,326.3v-0.1c0.2-0.1,0.1,0,0.2-0.1c0.1,0.1,0,0,0.1,0.2L402,326.3L402,326.3z
			 M407.8,322h-0.1c0-0.2,0-0.2,0.1-0.4c0.1-0.4,0.1-0.4,0.2-0.6c0.2,0,0.2,0,0.4,0.1h0.2C408.5,321.8,408.1,321.5,407.8,322z
			 M465.1,285.8c0,0-0.5,0-0.2-0.1l0.1-0.1c0.2,0.1,0.1,0,0.2,0.1L465.1,285.8z M468.6,278.8v0.2c0,0-0.1-0.1-0.1-0.1h-0.2v-0.4h0.4
			C468.6,278.8,468.5,278.6,468.6,278.8z M490.2,274.7c0,0-0.1-0.1-0.1-0.1c-0.1-0.1-0.2-0.2-0.4-0.2v-0.2c0.2,0.1,0.2,0.1,0.5,0.1
			V274.7z M509,290c0.2-0.1,0.3-0.2,0.5-0.4c0.1,0,0.2,0.1,0.4,0.1C509.7,290,509.5,290,509,290z M521.1,284.6l-0.1,0.1
			c-0.3-0.1-0.2,0.1-0.2-0.2h0.4L521.1,284.6L521.1,284.6z M523.3,283.8c-0.3,0.1-0.5,0.2-0.7,0.4h-0.5V284c0.3-0.2,0.6-0.3,0.8-0.6
			h0.5C523.4,283.5,523.3,283.7,523.3,283.8z M528.3,279.8c-0.5,0.3-1.3,0.8-1.7,1.3h-0.2v-0.2c0.4-0.3,1.3-0.8,1.6-1.2h0.4
			L528.3,279.8L528.3,279.8z M529.1,279.1c0,0-0.1-0.1-0.1-0.1c0.4-0.9,2.4-1.9,3.1-2.9c0.2,0.1,0.3,0.1,0.4,0.2
			C531.2,277,530.5,278.4,529.1,279.1z M532.7,276.2h-0.1c0.1-0.3,0.5-0.4,0.6-0.6v-0.6c0.1-0.2,0.7-0.2,0.8-0.4
			c0.5-0.4,1-1.2,1.5-1.7h0.2C535.5,274.2,533.6,275.3,532.7,276.2z M538.3,270.7c-0.4-0.1-0.8-0.1-1-0.4c-0.3,0-0.3,0-0.5-0.1
			c0,0,0.1-0.1,0.1-0.1h-0.1c0-0.3,0.1-0.3,0.1-0.5h0.6v0.4c0.3,0.1,0.6,0.2,1,0.4C538.5,270.5,538.4,270.6,538.3,270.7z
			 M543.6,260.8c-1.4-0.2-0.7-1.2-2.7-0.6c-0.4,0.1-0.9-0.1-1.2,0.1c-0.4,0.2-0.5,0.7-0.6,1.1c-0.2,0.1-0.1,0-0.2,0.1h-0.1
			c0-0.4-0.1-0.7-0.1-1.1c-0.5-0.1-1.7-0.3-2.1-0.6c-1.2,0.1-1.2,0.8-1.9,1.3c0,0.4-0.1,0.7,0,0.8c-0.1,0.7-0.6,0.7-1,1.2h-0.1v0.1
			c0.5-0.1,1.1-0.5,1.5-0.8c0.5,0.1,1.2,0.6,1.5,1c1,0,1.3,0.2,1.7-0.5c0.3,0.1,0.4,0.2,0.6,0.4v0.7c0.5,0.1,0.5,0.2,1,0.2v0.4
			c0.7,0,1.1,0.2,1.6-0.2c0.5,0,0.5,0.1,0.7,0.2c-0.2,1.1-0.9,1.7-1.2,3c-1.3,0-1.4-0.5-2.3-0.7c0-0.6-0.2-0.9-0.5-1.2
			c-0.4-0.4-0.8-0.3-1.3-0.4c-0.2,0.3-0.4,0.6-0.7,0.8c0.1,0.7,0.4,1.3,1.2,1.5c-0.3,0.5-0.4,0.8-0.4,1.7h-0.7
			c0.1-0.3,0.1-1.4,0.2-1.6c-0.1-1-0.5-0.6-1-0.8c-0.1-0.1-0.1-0.1-0.1-0.4c-1.7-0.1-1.3,0.2-2.4,0.8v-0.1c-0.2-0.2,0.2-0.4-0.1-0.7
			c0.1-0.4,0.2-0.4,0.5-0.6v-0.2c-0.2,0-0.2,0-0.4,0.1c-0.5-0.1-0.8-0.4-1.1-0.7c-0.9,0-0.8,0.3-1.5,0.5c0-0.5-0.1-0.7,0.2-0.8
			c-0.2-0.8-1.7-0.8-2.3-1.5c-0.8,0.1-1.1,1.2-1.1,2.1c0.2,0.2,0.3,0.6,0.6,0.7c0.5,0.6,1.1,0.5,1.9,0.5c-0.2,0.4-0.1,0.9,0.2,1.5
			c0.2,0.5,0.7,0.5,1,0.8c0.7,0,1.2,0,1.6-0.4c1,0.2,0.7,1,1.8,1.1c-0.3,0.7-1,1.7-1.6,2.1c0,0-0.1,0.1-0.1,0.1v-0.1
			c-0.3-0.2-0.1,0.1-0.2-0.2c-0.1-0.2,0-0.3,0-0.7c-0.2,0-0.2,0-0.4,0.1c-0.1-0.1,0-0.4-0.1-0.6c-0.1-0.1-0.4-0.2-0.5-0.4
			c-0.7,0-1.4-0.5-1.9-0.1c-0.6,0.2-0.6,0.6-1,1c0.1,0.9,0.4,0.8,0.6,1.5c0.1,0.2-0.1,0.7-0.4,1c0.2,0.4,0.6,0.1,1,0.4
			c0.1,0,0.2,0.1,0.4,0.1c-0.4,1-4.5,3-5.4,3.9c-0.6-0.2-1-1.2-1.3-1.7c-0.6,0-0.8,0.2-1.1-0.1c-1,0-1.6,0.3-1.8,1
			c-0.3-0.2-0.5-0.8-0.6-1.1c-0.4-0.1-0.6-0.2-0.8-0.4c-0.5,0.1-0.9,0.4-1.1,0.8c-0.1,0.2-0.1,0.8,0,1c0.3,1,1.6,1,2.9,1v0.4
			c0.5,0.3,0.7,0.8,1.5,0.8v0.1c-0.7,0.2-1.5,0.7-1.8,1.2h-0.5c0.1-0.3,0-0.2,0.2-0.4c-0.1-1.3-1.1-0.9-1.7-1.6
			c-1.2,0.1-1.4,0.8-2.2,1.3l-0.1,0.1c-0.2-0.4-0.4-0.6-0.6-1.1c-0.3-0.1-0.6-0.1-0.7-0.2c-1,0-1.1,0.7-1.7,1.1c0,0.4,0,0.8,0.1,1
			c0.4,0.9,2.6,1.2,3.1,0.2c0.8,0.2,0.8,0.7,1.6,0.8v0.1c-0.7,0.4-3.5,2-4.1,1.8c-0.7-0.1-1.3-0.6-1.8-1c-1.3,0.1-1,1-1.8,1.3
			c0.1,0.3,0,0.2,0.2,0.4c-0.2,0.3,0,0.1-0.4,0.2v0.4c-1,0-3.2-0.5-4,0h-1.3c0.2-0.5,0.3-0.3,0.2-0.8c0.8-0.2,0.9-0.1,1.7-0.6
			c0-0.5-0.1-0.7-0.2-1.1c0.2-0.1,0.3-0.2,0.5-0.4c-0.2-1.6-2.9-1.7-4.5-1.9c-0.6,0.6-1.1,1.4-1.7,2.1c0.4,0.6,0.5,0,0.7,0.1
			c0.6,0.3,0.5,1.2,1.7,0.7c-0.3,0.5-0.2,0.1-0.7,0.4c-0.4,0.2-0.5,0.9-0.7,1.3c-1.4,0-2.5-0.1-3.4-0.7c-0.2-0.1-0.2-0.6-0.4-0.7
			c-0.5-0.3-0.6,0.3-1.1-0.4l-0.1-0.1h0.1c0.2-0.4,0.2-0.3,0.7-0.4c0.1-0.5,0.1-0.5,0.5-0.6c-0.2-0.4-0.3-0.8-0.4-1.5
			c-0.2,0.1-0.1,0-0.2,0.1c-0.4-0.1-0.4-0.5-0.4-0.8H497c-0.3-0.1-0.7,0.2-1.2-0.2c-1.4,0-1.3,0.8-2.2,1.2v0.1
			c-1.3-0.6-1.7-3.3-2.7-4.2v-0.1h0.6c0.2,0.2,0.6,0.3,0.7,0.5c0.3,0.4,0.2,1,0.5,1.3c0.4,0.4,0.9,0.4,1.2,0.8
			c0.7-0.1,1-0.6,1.7-0.4c0.6,0.2,1.1,0.7,1.9,0.8c0.3-0.3,0.7-0.4,1.1-0.6c0.2-0.7,0.3-0.8,0.2-1.5c-0.6-0.1-0.6-0.2-0.6-0.8
			c-0.6-0.2-1.7-0.6-2.2-0.1c-0.7-0.1-0.6-0.6-1.1-0.8c-0.5-0.3-1.2-0.1-1.6-0.5c-0.2-0.3,0-1.4,0.1-1.6c0-0.2-0.8-1.3-0.8-1.3
			c-0.2,0-0.4,0.1-0.6,0.1c-0.4-0.2-0.6-0.9-1.2-0.6c-1,0.1-1.2,0.9-1.7,1.5v0.1c-0.4-0.2-0.4-0.7-0.6-1.1c0.2-0.7,1-0.7,1.6-1
			c0.4-0.2,0.7-0.7,1.1-0.8c0.4,0,0.7-0.1,1.1-0.1c0.3-0.1,0.8-0.6,1.2-0.7c0.2,0,0.4,0.1,0.6,0.1c0.1-0.2,0.2-0.3,0.4-0.5
			c0.6-0.2,1.1,0.2,1.5,0c1.6-0.1,2-2.2,2.8-3.1v-0.4l-0.5,0.2c-0.2-0.3-0.4-0.6-0.8-0.7c-0.5-0.4-2,0.6-2.4,0.8
			c-0.3-0.2-0.2-0.2-0.5-0.1c-0.8,0-0.8,0.3-1.2,0.6c0,0.3-0.1,0.6-0.1,1h-0.5v0.4c-0.3,0.1-0.4,0.1-0.6,0.4h-0.7
			c0-1.6-1.3-1.2-2.2-1.9c-0.7,0.1-1.6,0.9-1.8,1.6c-0.1,0.2-0.1,0.3-0.1,0.6c-1,0-1,0.2-1.6,0.6c0.1,1,0.6,1,0.7,1.8
			c-0.4,0.1-0.6,0.2-0.8,0c-1.1,0-1.4-0.4-1.3-1.1c-0.4-0.1-1.1-0.6-1.6-0.2c-0.3,0.2-0.1,0-0.2,0.4c-0.2-0.1-0.4-0.2-0.6-0.4
			c-0.2,0.2-0.4,0.4-0.6,0.6c-0.1,0.8,0.7,1.8,1.3,2.2c-0.8,0.8-2.6,1-3.5,1.6c-0.1-0.2-0.1-0.2-0.1-0.5c-0.3-0.1-0.6-0.1-0.7-0.2
			c-0.8,0.1-0.9,0.4-1.4,0.7c-0.1,0.4-0.1,0.5,0,0.8c-0.5,0.2-0.6,0.5-1.3,0.5c0-0.6,0.1-0.8,0.2-1.2h-0.1c-0.2-0.1-0.5,0-0.7,0.2
			c-0.8-0.1-0.8-0.5-1.3-0.6c-1.1-0.2-1.4,1-1.8,1.5c0.1,0.4,0.4,0.4,0.5,0.7c0.2,0.6-0.1,0.6,0.1,1.1c0.7,0,1.2-0.1,1.5,0.1
			c0.2,0.1,0.1,0,0.2,0.1c-0.7,0.2-2-0.2-2.4,0.8c-0.4-0.1-0.4-0.5-0.7-0.6c-0.7,0-1.5,0.1-2.2,0.1c0.1,0.1,0.1,0.1,0.4,0.1v0.1
			c-0.2,0-0.3,0.1-0.5,0.1c-0.2,0.3-1.6,0-1.9-0.5c-0.8,0.2-0.9,0.9-1.5,1.3c0.3,0.7,0.8,1.1,1.5,1.5c-0.1,0.2-0.1,0.2-0.1,0.5
			c-0.8,0.4-2.3,0.1-2.5,1.1h-0.1c-0.2-0.4-0.4-0.6-0.6-1c-0.9,0-1.7-0.3-2.3,0.1c-0.7,0.5-0.2,0.9-0.6,1.6
			c-0.2,0.2-0.9,0.3-1.1,0.4c-0.1,0.2,0,0.1-0.1,0.2c0,0.8,0.3,1.3,0.8,1.5v0.2c-0.1,0.1,0,0-0.1,0.2c-0.3,0-0.3,0-0.5,0.1
			c-0.3,0-0.3,0-0.5-0.1c-0.1-0.1-0.1-0.1-0.1-0.4c-0.5,0-1.5-0.1-1.8,0.1c-0.3,0-0.4,0.1-0.6,0.1c-0.1,0.2-0.1,0.4-0.2,0.5
			c0.1,0.7,0.3,0.8,0.8,1c-0.1,0.2-0.2,0.6-0.4,0.7h-0.7c-0.4,0.2-0.8,0.8-1.2,1c-0.3-0.1-0.9-0.2-1.3,0l-0.8,0.8
			c-0.1,0.2,0.1,0.6,0.1,0.6c-0.3,0.4-1.6,0.7-2.1,1.1c-1.1,0.7-2.1,2.2-3.5,2.4c0-0.2-0.1-0.4-0.1-0.6c0.2-0.1,0.3-0.2,0.5-0.4h0.1
			v-0.1c-0.2,0.1-0.1,0-0.2,0.1c-0.7,0-0.7-0.2-0.8-0.7c-0.2,0-0.2,0-0.4-0.1c-1.5,0-1.7,0.3-2.5,0.8c0.2,1,1.2,1.3,2.1,1.7
			c-0.2,0.5-1.7,1.3-2.2,1.8c-0.7,0-1.8-0.2-2.2-0.8h-0.1c0.1,0.3,0.2,0.3,0.2,0.7c-0.3,0-0.6,0-0.7,0.1c-0.3,0.2-0.3,0.4-0.6,0.6
			c0,0.7-0.1,0.9,0.5,1v0.1c-1,0.6-1.9,1.3-2.9,2.1c-0.2,0.2-0.4,0.5-0.6,0.7c-0.2,0-0.5,0.1-0.7,0.1c-0.8,0.5-2.6,1.8-3.1,2.5h-0.5
			c-0.2-0.9-0.8-1.1-1.3-1.7c-0.9,0-1.4,0.4-2.1,0.6c0,0.4-0.1,0.7,0,0.8c0.2,0.6,1.5,0.9,2.1,1.2c-0.9,1-4.2,3.6-5.6,4
			c-0.3,0.1-1.2-0.4-1.6-0.2c-0.7,0-0.7,0.2-1.1,0.5c-0.1,0.5-0.1,0.9,0.4,1.2c-0.1,0.3-0.1,0.4-0.2,0.6c-0.1,0.1-1,0.9-1.1,1h-0.2
			l-0.6-0.6c-0.4-0.2-0.8-0.1-1.2-0.4v-0.1c-1.1,0.3-1.7,1.6-0.7,2.5c0.2,0.3,0.3,0.1,0.6,0.2c-0.5,0.5-1.2,0.7-1.6,1.3
			c-0.5-0.1-2.1-1-2.4-1.3c-0.5,0.2-0.6,0.4-1.1,0.6c-0.1,0.4-0.2,0.7,0,1c0,0.8,0.5,1.2,1.1,1.3l-0.1,0.1c-0.3,0.7-2.7,2.3-3.4,2.9
			c-0.2,0.1-0.2,0.5-0.4,0.6c-0.4,0.4-0.9,0.3-1.2,0.7h-0.4c0.4-0.8,0.2-1.5,1-1.9c-0.2-1-1.7-1-2.4-1.6c-0.7,0.1-0.8,0.4-1.2,0.7
			c0,0.4-0.1,0.8-0.1,1.2c0,0.1,0.4,0.1,0.2,0.5c-0.1,0-0.2,0.1-0.4,0.1c-0.2,0.3-0.2,0.6-0.4,1c-0.8,0-1.2-0.3-1.7-0.7
			c-0.8,0.1-0.7,0.6-1.5,0.7c0.1,0.4,0.3,1,0.5,1.3c0.2,0.9,1.4,1,2.5,1l0.1,0.1c-0.2,0.6-3.3,2.7-4,3.4c-0.1,0.1-0.2,0-0.5,0.1
			c-0.2-0.6-0.3-1-1-1.2c0.1-0.4,0.2-0.4,0.2-1c-0.7-0.1-1.5-0.5-1.9-1c-1,0-1.4,0.2-1.6,1c-0.1,0.2,0.1,1.6,0.1,2.3
			c-0.6-0.1-0.6-0.4-1.3-0.5c0-0.9-0.6-1.1-1.5-1.1v-0.1c0.6-0.3,0.9-0.8,1.5-1.2c0.2-0.1,0.5-0.2,0.7-0.2c0.2-0.3,0.2-0.7,0.5-0.8
			h0.6c0.3-0.2,0.6-0.7,0.8-0.8c0.6-0.4,1.2-0.5,1.8-0.8c0.3-0.2,0.5-0.7,0.7-0.8h0.5c0-0.2,0.1-0.3,0.1-0.5
			c0.4-0.4,1.6-0.7,2.2-1.2h0.1c0-0.1-0.1-0.2-0.1-0.2c2.1-0.9,4.4-2.2,5.6-4h1.1c0-0.3,0-0.2-0.1-0.4c0.2-0.5,3.8-2.5,4.5-2.9
			c0.2-0.2,0.3-0.4,0.5-0.6c0.6-0.3,1.3-0.3,1.7-0.7c0.2-0.2,0.2-0.6,0.4-0.7c0.5-0.3,1.3-0.4,1.8-0.7c0.2-0.3,0.5-0.6,0.7-0.8
			c0.4-0.3,1-0.4,1.3-0.7c0.1-0.1,0-0.4,0.1-0.5c0.3-0.2,0.7,0,1-0.1c1.2-0.7,2.3-2,3.5-2.7c0.2,0,0.5-0.1,0.7-0.1
			c0.1-0.2,0.2-0.3,0.4-0.5c0.6-0.3,1.2-0.6,1.8-1c0.2-0.2,0-0.5,0.2-0.6c1-0.8,2-1.3,3.1-1.9c0.5-0.3,0.9-0.9,1.3-1.2
			c1.5-1.1,3.2-1.7,4.7-2.8c2.4-1.6,4.5-3.7,6.8-5.4c0.9-0.7,2-1.1,2.9-1.7c0.5-0.4,0.9-1.1,1.5-1.5c1.8-1.3,3.7-2.4,5.6-3.6
			c0.6-0.4,1.3-1.3,1.9-1.7c2-1.2,3.6-2.4,5.6-3.5v-0.4c1.4-0.1,1.7-1.2,3.1-1.5v-0.5l1-0.2c0.8-0.5,1.6-1,2.4-1.5
			c0.2-0.1,0.3-0.5,0.5-0.6c0.3,0,0.6-0.1,0.8-0.1c1.8-1.1,3.7-2.2,5.4-3.3c0.2,0.1,0.3,0.1,0.6,0c0.9-0.4,1.8-1.2,2.9-1.5v-0.4
			c1.5-0.1,2.6-1,3.6-1.6h0.6c1.7-0.8,3.5-1.9,5.2-2.8c1.3-0.7,2.4-0.6,3.1-1.8h0.4c0-0.8-0.3-1-0.6-1.5c-0.4,0.1-1.1,0.1-1.3,0.2
			c-0.2,0.2-0.4,0.4-0.6,0.6h-0.5c-0.1,0.2-0.2,0.4-0.4,0.6c-0.5,0.3-1.2,0.3-1.7,0.5c-0.7,0.3-1.4,0.9-2.1,1.3
			c-0.6,0.4-1.1,0.3-1.8,0.6c-0.7,0.2-1.4,0.9-2.1,1.2c-0.4,0-0.7,0.1-1.1,0.1c-0.5,0.2-0.8,0.7-1.2,1c-0.4,0.2-0.9,0.1-1.3,0.4
			c-0.9,0.5-3.5,2.2-4.4,2.3v0.4c-0.7,0.3-1.1,0.2-1.9,0.6c-0.5,0.2-0.9,0.8-1.3,1.1c-0.3,0.2-0.6,0.1-1,0.2c-0.5,0.2-1,0.8-1.4,1.1
			c-0.2,0-0.4,0.1-0.6,0.1c-0.5,0.3-1.1,1.2-1.6,1.5c-0.2,0-0.3-0.1-0.5-0.1c-0.9,0.3-1.8,1.4-2.5,1.9c-0.2,0-0.5,0.1-0.7,0.1
			c-0.5,0.2-1.5,0.8-1.9,1.1c-0.8,0.6-1.5,1.4-2.4,1.9v0.4c-1.1,0.1-1.3,0.8-2.3,1c-0.2,0.9-1.5,1.4-2.2,1.8
			c-0.7,0.5-1.4,1.2-2.1,1.7c-0.3,0.1-0.6,0.2-1,0.4c-0.6,0.4-1,1.1-1.6,1.5c-0.3,0.2-0.6,0.2-0.8,0.4c-2.4,1.7-4.8,3.4-7.3,5.2
			c-0.3,0.3-0.6,0.6-0.8,1c-0.7,0.4-1.4,0.9-2.1,1.2c-0.4,0.2-0.7,0.1-1.1,0.4c-0.2,0.2-1,1.1-1.2,1.3c-0.4,0.4-1.1,0.4-1.6,0.7
			l-1.1,1.1c-1.2,0.9-2.4,1.4-3.6,2.3c-0.2,0.2-0.3,0.6-0.5,0.7H429c-0.3,0.2-1.1,0.8-1.5,1.1c-0.8-0.4-0.6-1.4-1.5-1.7
			c-0.6-0.3-1.8-0.2-2.4,0.1c-0.1,0.3-0.1,0.3-0.2,0.5c0,1.5,1.3,1.5,2.2,2.1l0.1,0.1h-0.1c0,0.2-0.1,0.3-0.1,0.5
			c-0.2,0.2-1,0.2-1.3,0.5c-0.6,0.5-1.2,1.3-1.9,1.7h-0.5c-0.9,0.5-1.7,1.4-2.5,1.9c-0.6,0.3-1.1,0.4-1.6,0.7
			c-0.1,0.2-0.2,0.4-0.4,0.6c-0.2,0.2-0.6,0.1-0.8,0.4c0,0.1-0.1,0.2-0.1,0.4c-0.3,0.2-0.6,0.1-0.8,0.2c-0.9,0.6-1.8,1.2-2.8,1.8
			c-0.5,0.3-1,0.9-1.5,1.2c-0.2,0-0.4,0.1-0.6,0.1c-0.2,0.3-0.4,0.6-0.6,0.8c-0.2,0.2-0.5,0.1-0.7,0.2c-0.2,0.1-0.1,0.5-0.2,0.6
			c-0.2,0.1-0.5,0.2-0.7,0.2c-0.4,0.2-0.7,0.8-1.1,1c-0.6,0.4-1.2,0.5-1.8,0.8c-0.2,0.2-0.3,0.4-0.5,0.6c-0.9,0.5-1.6,1.1-2.4,1.6
			c-0.3,0.2-0.6,0.2-0.8,0.4c0,0.1-0.1,0.2-0.1,0.4c-0.2,0-0.4,0.1-0.6,0.1c-0.5,0.3-1,1-1.5,1.2c-0.4,0.2-0.6,0-1,0.2
			c-0.3,0.4-0.6,0.7-1,1.1c-1,0.6-1.8,1-2.7,1.7c-0.2,0.3-0.5,0.6-0.7,0.8c-0.2,0.1-0.5,0.2-0.7,0.2c0,0.1-0.1,0.2-0.1,0.4h-0.5
			c-0.5,0.4-0.9,1.1-1.5,1.5c-0.4,0.2-0.9,0.2-1.2,0.5c-0.3,0.2-0.4,0.8-0.7,1c-0.5,0.3-1,0.3-1.5,0.6c-1.5,1.1-2.9,2.6-4.4,3.8
			c-0.6,0.5-1.4,0.5-1.9,1c-0.6,0.6-1.3,1.4-1.9,1.9c-0.2,0.2-0.7,0.1-0.8,0.4v0.5c-0.1,0.1-0.7,0.3-0.8,0.4v0.4
			c-1.6,0.2-2.1,2.3-3.4,2.8v0.5c-0.5,0-1.5,0.9-1.7,1.2c-0.3,0.5,0.1,0.6-0.4,1c0.2,0.2,0.4,0.4,0.6,0.6c0.7,0,0.8-0.2,1.2-0.5
			c0.5,0.3,1.6,0.4,2.1,0.8c1.3,0,0.6-0.7,1.5-1.5c0-0.5,0-0.7-0.2-1c-0.2-0.3-0.5-0.4-1-0.5c0-0.3,0-0.3,0.1-0.5
			c0.3-0.3,1.2,0.8,1.6,1c0.4,0.3,0.9-0.1,1.6-0.1c0-0.6,0-1,0.2-1.3c-0.1-0.7-0.5-0.9-1-1.1c0.3-1.3,2.2-1.5,2.7-2.7h0.6
			c0.1-0.7,0.5-0.8,0.8-1.2c0.7,0.3,0.7,1,1.2,1.3c0.3,0.3,1.2,0.5,1.6,0.6c0.1,0.1,0.4-0.2,0.7-0.2c0.4,0.7,0.6,1.6,1,2.2
			c0.2,0,0.2,0,0.4-0.1h0.2c-0.2,0.4-0.7,0.5-1,0.8c-1.1,0-0.9-0.1-1.2-0.6c-1.5,0-2.1,0.6-1.9,1.9c0.3,0.3,0.4,0.4,0.8,0.6
			c-0.2,0.5-1.7,1.6-2.1,1.5c-0.5,0.2-0.4,1.1-1.5,1.5l-0.1,0.1c-0.1-0.2-0.2-0.3-0.4-0.5c-0.5,0-0.8,0-1.1,0.2
			c-0.8,0-0.8,0.4-1.3,0.7c0,0.4,0.1,1,0.4,1.3c-0.1,0.7-0.7,0.8-1.1,1.3c-1.6-0.2-1.3-1.2-2.9,0c0,1.1,0.3,1.3,0.6,1.9
			c-0.4,0.2-0.7,0.4-1,0.7c-1.1,0-2.5-0.4-3.1-1h-0.1c0.1,0.3,0.1,0.3,0.4,0.5c-0.1,0.3-0.4,0.5-0.6,0.7c0,0.3,0,0.3,0.1,0.5
			c0.1,0.5,0.1,0.4,0.4,0.7h0.6c-0.1,1.1-1.4,1.4-1.9,2.2c-0.8-0.1-1.4-0.1-1.9-0.6c-1.1,0-1,0.4-1.7,0.7c0,0.8,0.2,1.2,0.7,1.6v0.2
			c-1-0.2-2.2-1-3.1-0.2c-0.4,0.2-0.4,0.4-0.7,0.6c0.1,0.8,0.3,1.3,0.6,1.8c0.2,0,0.4,0.1,0.6,0.1c-0.2,0.9-1.2,1.4-1.8,1.9
			c-0.3,0.4-0.6,0.8-1,1.2c-0.6,0.6-1.3,1-2.1,1.6c-0.6,0.4-1,1.1-1.7,1.6c0,0.3,0,0.6-0.1,0.7c0.1,0.5,0.2,0.4,0.5,0.7
			c1.7-0.3,3-1.5,3.9-2.7c0.1,0.2,0.5,1.7,0.8,1.9c0.2,0.1,2.8,0.1,2.8,0.1c0.1,0,0.7-0.5,0.8-0.6c0.5,0.2,0.6,0.5,1.1,0.7
			c0,0.6,0.1,0.7-0.1,0.8c0.2,0.8,0.9,1.4,1.9,1.3l-0.1,0.1c-0.2,0.5-0.9,0.8-1.3,1.1c0,0.2-0.1,0.4-0.1,0.6c-1.3,0-1.4,0.4-2.2,0.7
			c-0.1,0.2,0,0.1-0.1,0.2c0.1,0.1,0.1,0.1,0.4,0.1c-0.1,0.3-0.1,0.3-0.2,0.5c0.2,0.2,0.4,0.4,0.6,0.6v0.1c-0.5-0.1-0.6-0.5-1-0.6
			c-0.3-0.1-0.4,0.2-0.5,0.2c-0.1,0-0.3-0.2-0.5-0.2c-0.1,0.3-0.1,0.3,0,0.6c-0.3,0-0.7,0.1-0.8,0.2c-0.2,0.3,0.3,0.8,0,1.2
			c0.2,0.8,0.9,1.3,1.3,1.8c1.1,0,0.8-0.3,1.3-0.6l0.1,0.1c0.7,0,0.9-0.2,1.3-0.4c-0.1-0.5-0.5-0.7-0.4-1.2c0.2-1,1.8-0.5,2.2-2.1
			c0.6,0,1.7-0.1,1.9-0.2c0.4-0.2,0.3-0.1,0.4-0.6c0.3,0.1,0.6,0.2,0.8,0h0.5c-0.1,0.7-0.2,2.7,0,2.9c-0.1,0.2,0,0.1-0.1,0.2
			c-0.1,0.2,0,0.1-0.2,0c-0.4-0.1-0.7-0.6-1.1-0.7c-0.6-0.2-1.7,0.1-2.1,0.4c-0.6,0.4-0.8,1.5-0.1,1.9c0,1.6,0.8,1.4,1.7,2.1
			c0.3-0.1,1.4-0.6,1.6-0.7c0.8,0.5,0.3,2.9-0.2,3.5c-0.3,0.4-0.8,0.5-1.5,0.5v-0.4l-0.1-0.1c-0.6,0.2-1.4,0.6-1.8,0.4
			c-0.5,0.5-0.6,0.9-1,1.5c0.4,1.1,1.2,0.5,1.9,1.2c0.6-0.1,0.8-0.3,1.1-0.6c0.6,0.1,0.7,0.3,1.1,0.6c-0.2,0.4-0.8,0.7-1.2,0.8
			c0,0.5,0,0.8,0,1.4c0.4,0.1,0.4,0.1,0.6,0.2h0.2c-0.1,0.5-0.3,0.5-0.4,0.8c0.2,0.2,0.2-0.1,0.2,0.4h0.4c-0.5,1.2-1.7,2.1-2.1,3.4
			c-0.7-0.3-0.5-0.7-1.6-0.7c0-0.3-0.1-0.5,0.1-0.8v-0.2c-0.3,0-0.3,0.1-0.5,0.1c-0.1,0.3-0.2,0.5,0,0.7v0.1l-0.1-0.1
			c-0.5,0.2-1,0.7-1.6,1c0.1,1-0.2,1.4-0.4,2.3c0.5-0.1,0.5-0.3,0.7-0.6c0.6,0,1.2,0.1,1.6,0.4h0.2c-1.2,2.5-3.1,4.6-5.3,6.1
			c-0.6,0.4-1.7,0.3-2.3,0.7c-0.1,0.1-0.2,0.5-0.4,0.6c-0.3,0.2-0.6,0.3-0.8,0.5v0.2c-0.4,0.1-0.7,0.2-1.1,0.2
			c-0.5,0.3-1.3,0.8-1.8,1c-0.5,0.2-0.9,0-1.3,0.2c-0.1,0.2-0.2,0.3-0.4,0.5c-0.3,0-0.6,0.1-0.8,0.1l-0.2,0.5
			c-0.4,0-0.9,0.1-1.3,0.1c-0.9,0.5-2.2,1.2-3.1,1.7c-0.7,0.3-1.4,0.2-2.1,0.5l-0.5,0.5c-0.2,0.1-0.2-0.4-0.6-0.2
			c0,0.1-0.1,0.2-0.1,0.4c-0.3,0.1-2.9,0.5-3,0.5c-1.5-0.2-3.5-0.3-4.8-0.8c-0.3-0.1-0.6-0.5-0.8-0.6H337c-0.3-0.1-0.6-0.5-1-0.6
			c-1.2-0.4-2.1-0.2-3.1-0.7c-1.5-0.7-2.6-1.9-4.4-2.3v-0.4c-0.3,0-0.2,0-0.4,0.1c-0.7-0.3-2-1.2-2.4-1.8H325c0-0.3,0-0.3-0.1-0.5
			c-0.2-0.1-0.1,0-0.5,0c-0.5-1-1.6-2.1-2.4-2.7v-0.4h-0.5c-0.1-1.4-1.3-2.1-1.8-3.1c-0.9-1.7-1-7.2-0.4-9c0.4-0.9,0.1-1.3,0.8-1.8
			c-0.2-0.3,0-0.1-0.4-0.1c0.4-1.9,0.6-4.1,1.9-5c-0.1-0.4-0.1-0.4-0.5-0.5c0-2,1-2.1,1.8-3.1c0.7-0.9,1.4-1.8,2.2-2.5
			c0.5-0.5,1.1-0.8,1.3-1.6c0.1-0.1,0-2-0.2-2.3c-0.2-0.6-0.8-0.6-1.1-1.1c-1.4,0-1.7,0.5-2.7,0.8c-0.2,1.3,0.8,1.7,1.8,2.2
			c-0.1,1-1.2,1.2-1.8,1.7c-0.4,0.3-0.2,0.5-0.5,1c0,0-1.7,1.4-1.7,1.4c-0.1,0.2-1.4-0.6-1.7-0.5c-0.7,0.1-1,0.7-1.6,1
			c0,1.4,0.6,1.4,1.7,1.7c-0.7,0.5-2.2,0-2.9,0.5c-0.2,0.3-0.4,0.8,0,1c-0.6,1.5-3,1-4.2,1.8h-0.5c0.2-0.5,0.5-0.9,0.1-1.4
			c-0.2-0.4-1.1-0.9-1.7-0.5c-0.7,0.1-0.8,0.4-1.3,0.7c0,0.3,0.1,0.8,0.2,1c0.2,0.4,0.3,0.4,0.7,0.5v0.1c-1.6,0.3-4.6,0.4-5.8,0.1
			c-0.5-0.1-1.4,0.3-1.9,0c0-0.1-0.1-0.2-0.1-0.4c-0.2,0-0.4,0.1-0.6,0.1c-0.2,0-0.6-0.3-0.7-0.4h-0.8l-0.7-0.7h-0.6
			c0-0.1-0.1-0.2-0.1-0.4c-0.2-0.2-0.5-0.1-0.7-0.2c0-0.1-0.1-0.2-0.1-0.4c-0.3-0.2-0.7,0-1-0.2c-0.4-0.3-0.7-1-1.1-1.3
			c-0.4-0.4-0.9-0.5-1.3-0.8c-0.1-0.2-0.2-0.4-0.4-0.6c-0.2,0-0.3,0.1-0.5,0.1c-0.1-0.2-0.2-0.4-0.4-0.6c-0.4-0.3-1-0.5-1.3-1
			c-0.3-0.4-0.4-0.8-0.7-1.2c-0.2-0.1-0.3-0.2-0.5-0.2c0-0.1,0.2-0.5,0-0.7c-0.1-0.1-0.5-0.1-0.6-0.2c-0.3-0.4-0.3-0.8-0.6-1.2
			c-0.3-0.3-0.6-0.6-1-0.8c-0.3-0.5-0.7-1.4-0.8-1.8v-0.7c-0.2-0.1-0.3-0.2-0.5-0.4c0,0,0.1-0.1,0.1-0.1c0-0.7-0.3-1.9-0.5-2.8
			c0-0.4,0.1-0.9,0.1-1.3c0,0-0.2-0.3-0.1-0.5c0.2-0.2,0.4-0.4,0.6-0.6c0.1-0.3-0.4-0.8-0.4-1.2c0.1-0.3,0.3-1.2,0.4-1.6
			c0-0.4-0.1-0.8-0.1-1.2c0.2-0.8,0.8-1.8,1-2.5c0.1-0.6-0.4-0.4-0.1-1.1c0.2-0.6,1-1.1,1.3-1.6c0.1-0.3,0.2-0.6,0.2-0.8
			c0.2-0.1,0.3-0.2,0.5-0.2c0.4-0.5,0.6-1.3,1.1-1.7c0.2-0.1,0.5-0.1,0.6-0.2c1.1-1.3,1.8-2.7,3.3-3.6c-0.2-0.3,0.1-0.1-0.2-0.2
			c0.2-0.1,0.7-0.1,0.8-0.2c0.1-0.2-0.1-0.5,0.1-0.6h0.6c0-0.1,0.1-0.2,0.1-0.4c0.1-0.2,0.3-0.1,0.5-0.2c0.5-0.4,0.7-1.2,1.2-1.5
			h0.7c0-0.1,0.1-0.2,0.1-0.4c0.5-0.3,1-0.2,1.5-0.5c0.9-0.4,1.2-1.1,2.5-1.1v-0.4c0.7-0.1,1-0.4,1.7-0.6c0.3-0.1,1.1,0.1,1.6-0.1
			c0.7-0.3,1.5-0.9,2.3-1.1h1.5c0.9-0.3,5.8-0.8,7-0.6c0.1-0.2,0.2-0.3,0.4-0.5h0.2v0.2c0.5,0.1,0.7-0.1,0.8-0.1
			c0,0,0.1,0.1,0.1,0.1c1,0.2,2.2-0.4,2.9-0.6h0.1c0.4-0.1,0.4,0.2,0.6,0.2c0.6,0.1,0.8-0.3,1.3-0.2v0.1c0.5,0.1,1.8,0.2,2.1,0.2
			c0.2,0,0.5-0.1,0.7-0.1c1.2,0.5,2.6,0.7,3.9,1.2c1,0.4,1.7,1.3,2.5,1.9c0.3,0.2,0.9,0.5,1.1,0.8c0.3,0.6-0.1,1.3,0.2,1.9
			c0.1,0.1,0.4,0.5,0.5,0.7c0.7,0.1,1,0.2,1.3-0.2c0.3-0.2,0.4-1.6,0.4-2.2c0.7-0.9,1.7-1.1,1.8-2.4c0.3,0,0.4,0,0.6-0.1
			c0.3-0.2,0.1-0.4,0.4-0.6c0.3-0.2,0.6-0.1,1-0.2c0.2-0.3,0.4-0.6,0.6-0.8c0.7-0.5,1.3-0.5,1.8-1.2h0.1c-0.1-0.1-0.2-0.2-0.2-0.2
			c0.5-0.4,1.1-0.5,1.5-1c0.1-0.2,0.1-0.5,0.2-0.6c0.3-0.2,0.6-0.3,0.8-0.5c0.2-0.2,0.1-0.5,0.2-0.7c0.2-0.1,0.5-0.2,0.7-0.2
			c0.3-0.2,2.4-2.2,2.5-2.4c0.2-0.3-0.1-0.6,0-0.7c0.2,0,0.5-0.1,0.7-0.1c0.1-0.1,0.1-0.5,0.2-0.6c0.2-0.2,0.6-0.1,0.8-0.2
			c0.2-0.2,0.3-0.6,0.5-0.7c0.2,0,0.4-0.1,0.6-0.1c0.1-0.2,0.2-0.4,0.4-0.6h0.4c0.3-0.2,0.3-0.7,0.5-0.8c0.2-0.2,0.5-0.1,0.7-0.2
			c0.9-0.7,1.3-2,2.5-2.4c-0.1-0.4-0.1-0.3-0.2-0.5c0.2-0.1,0.4,0.1,0.7,0c0.1,0,2.9-2.5,3-2.7c0-0.2,0.1-0.3,0.1-0.5
			c0.3-0.3,1.2-0.6,1.6-0.8c1.1-0.8,1.8-1.8,3-2.5c0.4-0.4,0.8-0.9,1.2-1.3c0.5-0.4,0.6-1,1.1-1.3c0.3-0.2,1.2-0.5,1.3-0.8v-0.7
			c1.2-0.5,1.5-1.1,2.4-1.8c0.3-0.2,0.9-0.3,1.1-0.6v-0.7c0.2,0,0.5-0.1,0.7-0.1c0.5-0.3,1-1.1,1.3-1.6h0.4c0.2-0.7,0.5-0.3,0.8-0.7
			c0-0.3,0.1-0.6,0.1-0.8c0.3-0.4,0.9-0.3,1.1-1h0.4v-0.4c0.4-0.2,2.6-1.9,2.8-2.2c0-0.2,0.1-0.4,0.1-0.6c0.2-0.3,0.8-0.3,1.1-0.5
			c0.6-0.5,1.3-1.2,1.8-1.7c0.3-0.3,0.3-0.8,0.6-1.1c0.4-0.4,1.4-0.6,1.8-1c0.3-0.2,0.4-0.8,0.7-1c0.3-0.2,0.6,0,0.8-0.2
			c0.7-0.6,1.4-1.5,2.2-2.1c0.2,0,0.4-0.1,0.6-0.1l0.8-0.8c0.2-0.1,0.5-0.2,0.7-0.2c0.1-0.1,0.1-0.4,0.2-0.5
			c0.4-0.2,0.8-0.1,1.2-0.4c0.3-0.2,0.3-0.8,0.6-1h0.6c0.3-0.1,0.8-0.6,1.1-0.8v-0.2c0.3-0.2,0.7,0,1-0.2v-0.4
			c0.3-0.3,1.2-0.4,1.6-0.6c0.4-0.2,0.7-0.9,1.1-1.2c0.9-0.6,1.8-1,2.7-1.6c0.7-0.5,1.5-1.5,2.2-1.9l1.1-0.4
			c0.6-0.4,1.5-1.3,2.1-1.6c0.4-0.1,0.8-0.2,1.2-0.2c0,0,1.6-1.1,1.6-1.1c0.2-0.2,0.1-0.6,0.4-0.7h0.6c0.9-0.4,1.7-1.3,2.7-1.6v-0.4
			c1.6-0.3,3.6-2,4.8-2.9c0.1-0.2,0.2-0.3,0.4-0.5c1.1-0.6,2.4-1.1,3.3-1.9c0.2-0.2,0.2-0.6,0.5-0.7c0.7-0.4,1.4-0.4,2.1-0.8
			c0.5-0.3,0.9-1,1.3-1.3h0.6c0.2-0.1,0.2-0.4,0.4-0.5c0.4-0.3,0.9-0.2,1.3-0.5c1-0.6,1.6-1.7,2.9-1.9c0.1-1,0.7-0.6,1.5-1v-0.1
			c0.3-0.2,1.3-0.6,1.6-0.8c0-0.2,0.1-0.3,0.1-0.5h0.5c0.8-0.3,2.3-1,2.5-1.8c0.4,0.1,0.5,0.2,1,0.2V258c0.5-0.1,0.4-0.3,1-0.4v-0.4
			c1-0.4,1.8-0.7,2.7-1.2c1-0.5,1.6-1.4,2.9-1.7V254c0.5,0,2.6-0.9,2.8-1.1c0.2-0.2,0.1-0.5,0.4-0.6c0.1-0.1,0.4,0.1,0.7,0
			c0.8-0.3,1.6-1.1,2.3-1.5c0.4-0.2,1.1-0.2,1.5-0.5c0.1-0.1,0.1-0.4,0.2-0.5c0.5-0.3,1.1-0.1,1.7-0.4c0.6-0.3,1.4-0.9,1.9-1.2
			c1-0.6,2.7-1.1,3.8-1.6v-0.5c1.5,0,0.7-0.5,1.3-0.8c0.3,0,0.6,0.1,0.8,0.1c0.3-0.1,0.9-0.2,1.2-0.4c0.3-0.1,0.6-0.5,0.8-0.6
			c0.7-0.3,1.2-0.2,1.8-0.5c0.3-0.2,0.7-0.6,1.1-0.7c0.1,0,0.2,0.1,0.4,0.1c0.5-0.2,1.1-0.6,1.7-0.7h1.1c0.6-0.2,0.9-1,1.3-1.2
			c0.4,0,0.9-0.1,1.3-0.1c1.7-0.7,3.9-1.5,5.6-2.3c1-0.5,2.3-0.4,3.1-1c0.4-0.2,0.4-0.2,0.4-0.7c0.3-0.1,0.6-0.2,0.8-0.2
			c-0.1-0.6-0.2-0.6-0.2-1.2c-1.1-0.3-2.5,0-3.1,0.8c-0.6,0-0.6,0.2-0.8-0.1c-0.6,0.2-0.4,0.8-0.8,1c-0.6,0.3-1-0.1-1.6,0.5h-0.5
			c0.3-1.2,0.9-1.8,1-3.1c0.9,0.1,1.3,1,1.9,0.4c0.6-0.9,0.3-2.5-0.2-3.4c-0.3-0.1-0.6-0.1-1.1-0.1c-0.3-0.6-0.6-0.9-0.8-1.5
			c-0.6-0.1-1.3-0.3-2.2-0.2c0-0.5,0.1-0.7,0.2-1c-0.5-0.4-0.6-0.9-1.2-1.1c-1.2-0.8-2.3,0.5-3.6,0.7c-0.1,0.3-0.2,0.4-0.4,0.6
			c0.1,0.3,0.3,0.5,0.6,0.7c-0.3,0.2-0.5,0.4-1,0.5c0.2-2.2,0.2-5.3,0.7-7.5c0.1-0.6-0.1-1.3,0.1-1.9c0.1-0.3,0.6-0.7,0.7-1
			c2.5-4.8,5.6-7.9,9.8-11c0.2-0.2,0.3-0.6,0.5-0.7c0.3-0.1,0.6-0.2,0.8-0.2c0.9-0.6,1.8-1.4,2.7-1.9c0.9-0.5,2-0.7,2.8-1.3
			c0.3-0.2,0.2-0.3,0.2-0.7c0.7-0.2,1.4,0,2.2-0.2c0.7-0.2,2.4-1.3,3-0.5c0.5-0.3,1-0.9,1.7-1.1c1.1-0.4,2.8,0.3,3.8,0
			c0.4-0.1,0.7-0.4,1.1-0.5c0.4-0.1,0.4,0.2,0.6,0.2h1.9c0.5,0.1,1.3,0.3,1.7,0.4c0.3,0.1,0.8-0.2,1-0.1c0.6,0.1,2.1,1,2.7,1.3
			c0.4,0.2,0.7-0.2,0.8-0.1c0.8,0.3,1.8,0.9,2.5,1.2c0.7,0.3,1.4,0.1,2.1,0.5c0.5,0.2,1.1,0.7,1.6,0.8c0.6,0.2,1.2,0.2,1.7,0.5
			c0.3,0.2,0.3,0.3,0.4,0.7c0.5,0.1,0.5,0.2,1,0.2c-0.2,0.4-0.3,0.3-0.7,0.4v0.2c1.8,0,1.6,1.2,2.7,1.8v0.4c0.4,0.1,2.1,2.9,2.4,3.6
			c0.2,0.4,0.1,0.9,0.2,1.2c0.1,0.1,0.1,0.1,0.4,0.1c0,0.9,0.4,1,0.5,1.5c-0.1,0.3-0.2,0.6-0.2,0.8c0.2,0.3,0.4,0.8,0.5,1.3
			c0.2,1-0.4,2.1,0.1,2.5c-0.2,0.3-0.6,0.6-0.7,0.8c-0.4,0.7-0.2,1.2-0.5,1.8c-0.1,0.3-0.5,0.5-0.6,0.7c-0.4,1.2-0.5,3.1-1.5,3.6
			c-0.7,0.4-1.3,0.1-2.2,0.4c-0.6,0.2-1.3,0.7-1.9,0.8c-0.6,0-1.3,0.1-1.9,0.1c-0.8,0.3-1.3,0.6-2.1,1c-0.1,0.4,0,0.6-0.2,1
			c0.1,0.5,0.1,0.4,0.2,0.7c1,0,1.8-0.4,2.7-0.6h1.3c0.7-0.2,1.7-0.6,2.4-0.7c0.2,0,0.3,0.1,0.5,0.1c0.9-0.2,1.9-0.8,2.7-1.1
			c0.4-0.1,1.6-0.2,2.1-0.2c1.2-0.3,5.1,0.6,5.8,0.8c0.8,0.3,1.5,0,2.2,0.4c1.1,0.6,2.2,1.7,3.5,1.6c0.2,1,1.2,1,1.7,1.7h0.4
			c0.2,1,2.3,2,2.9,2.9h0.4v0.6c0.4,0.4,0.6,0.8,1.2,1.1v0.6c0.2,0,0.2,0,0.4,0.1c0.6,0.3,0,0.4,0.2,0.7c0.2,0,0.3,0.1,0.5,0.1
			c0.2,0.2,0.5,0.7,0.7,1c0,0.1,0.4,1.4,0.6,1.8l0.7,0.7c0.4,0.6,0.3,1.3,0.6,2.1c0.3,0.7,1,1.5,1.3,2.3c0.4,1,0.7,3.1-0.1,3.4
			c0.1,0.4,0.4,0.9,0.5,1.5c0.1,0.7-0.4,1.4-0.2,2.2c0,0.2,0.4,1.2,0.4,1.6c0,0.5-0.1,1,0.2,1.5C544.5,259.5,544,260.2,543.6,260.8z
			 M371.6,364.2c-0.1-0.2-0.4-0.4-0.5-0.6c-0.5-0.1-1.9-0.5-2.5,0c-0.3,0-0.2,0-0.4-0.1h-0.1c0.2-0.4,0.4-0.6,0.6-1
			c0.6,0.1,0.6,0.5,1,0.6c0.5-0.1,1-0.2,1.5-0.2c0.5,0.1,0.2,0.4,1.1,0.4c0.3,0.6,0.6,1.9,1.1,2.4v0.2c-0.6-0.2-0.9-0.2-1.6-0.2
			C371.6,365.3,371.8,364.5,371.6,364.2z M366.3,358.5c-0.1,0.6-0.3,0.9-0.5,1.3c-1,0.3-0.8,0.3-1.6,1v0.4h-0.8
			c0.3-0.9,1.9-1.6,2.5-2.7L366.3,358.5L366.3,358.5z M473.5,234.3c-1.1-0.1-1.8-0.2-2.3,0.6h-0.1c0.3-0.9,0.6-1.4,0.8-2.3
			c0.5,0,0.6,0.1,1.3,0.1C473.2,233.5,473.4,233.6,473.5,234.3z M488.1,212.2c0,0.3,0.1,0.4,0.1,0.6c0.5,0,0.6-0.1,1-0.2
			c0.1-0.5,0-0.8,0.2-1.1c-0.1-0.4-0.4-0.5-0.7-0.7v-0.5c-0.3,0-0.3,0-0.5,0.1c-0.3-0.2-0.2,0-0.1-0.4l-0.1-0.1
			c-0.4,0-0.7,0-0.8,0.1c-0.4,0.1-0.4,0.3-0.7,0.5c0.2,0.6,0.7,1,0.8,1.6C487.5,212.2,487.8,212.2,488.1,212.2z M473.8,219.9v0.4
			c0.2-0.1,0.2-0.2,0.6-0.2v0.4c0.7,0.2,0.7,0.7,1.3,0.2h0.1c-0.1,0.4-0.1,0.5-0.4,0.7v0.1c0.6-0.2,1-0.8,1.2-1.3
			c0.6-0.9-0.2-1.9-0.6-2.5c-0.6,0.1-1,0.3-1.3-0.1c-0.5,0.2-0.8,0.6-1,1.1C473.5,219,473.9,219.6,473.8,219.9z M481,222.1
			c0.3,0,0.5-0.1,0.7-0.2c0.2-0.2,0.1-0.1,0.2-0.4c0.1-0.4-0.2-0.5,0.1-1c-0.1-0.8-0.9-1.3-1.6-1.6c-0.3,0.2-0.8-0.1-1.2,0.1
			c-0.2,0.1-0.3,0.5-0.5,0.6c0.1,0.7,0.3,0.6,0.6,1c0.2,0.3,0,0.5,0.2,0.7C480.2,221.7,480.8,221.4,481,222.1z M489.5,222.9
			c0.3-0.3,0.5-0.4,0.6-1c-0.6-0.4-1-0.7-2.1-0.7c-0.2,0.2-0.6,0.2-0.8,0.4l-0.4,0.4c0,0.1-0.1,0.2-0.1,0.4c1.4,0.6,0.5,0.7,1,1.3
			c0.3,0.4,0.8,0.3,1.1,0.8c0.4,0,0.6-0.1,0.8-0.2c0.3-0.2,0.4-0.6,0.7-0.8C490.2,223,490,222.9,489.5,222.9z M470.3,222.8h-0.4
			c-0.3,0.2-1,0.2-1.6,0.2c-0.1,0.2-0.2,0.4-0.4,0.6c0,0.2,1.1,1.9,1.2,1.9c0.6,0.3,0.7-0.1,1.2,0.6c0.4-0.1,0.6-0.4,1-0.6
			c-0.1-0.6-0.1-0.6,0.2-1C471.4,223.5,470.6,223.7,470.3,222.8z M475.8,224c-0.2,0.2-0.5,0.3-1,0.2c-0.1,0.3-0.1,0.3-0.4,0.5
			c0.1,0.6,0.4,0.4,0.6,0.7v0.5c0.3,0.6,1.3,0.6,1.7,1.2c0.3-0.1,0.5-0.3,0.7-0.5c0.1-0.2-0.2-0.5,0-1c0.1-0.1,0.2-0.2,0.4-0.2v-0.2
			c0,0-0.3-0.6-0.4-0.6C477.1,224,476.4,224.1,475.8,224z M491.3,226c-0.1,0.3-0.2,0.5-0.5,0.7c0,0.3,0.1,0.3,0.1,0.5
			c0.2,0,0.4,0.1,0.6,0.1c0,0.9,1,1.2,1.6,1.6c0.2,0.1,0.3,0,0.6-0.1c0-1,0.1-1.6-0.2-2.1C493,226,492.4,226.2,491.3,226z
			 M476.9,228.9c-0.2-0.3-0.1-0.6-0.2-0.8c-0.5-0.4-1.9-0.7-2.4-0.2c-0.3,0.1-0.3,0.3-0.5,0.5c0.2,1.5,1.6,1.4,2.2,2.4
			c0.7-0.1,0.5-0.3,1-0.5v-0.8c0.2,0,0.2,0,0.4-0.1h0.1C477.3,229,477.1,229.2,476.9,228.9z M486.5,231.5c-0.4,0-0.7-0.1-1.1-0.1
			v0.4c-0.6-0.1-0.6-0.1-1,0.2h-0.2c0.2-0.7,0.4-1.1,0.2-1.9h-0.4c-0.1-0.3-0.2-0.6-0.2-0.8c-0.7-0.2-1.2-0.3-2.2-0.2
			c-0.2,0.2-0.4,0.4-0.6,0.5c-0.1,0.2,0,0.1-0.1,0.2c0.1,1,0.8,1.3,1.3,1.9h0.8v0.4c0.3,0.1,0.6,0.1,1.1,0.1
			c0.1,0.8,0.8,0.7,1.1,1.3c0.6-0.1,1.1-0.4,1.7-0.6c-0.1-0.4-0.2-0.8-0.2-1C486.7,231.7,486.6,231.6,486.5,231.5z M540.7,251v0.4
			c0.5,0,0.7,0,1,0.2c0.1-0.1,0.2-0.4,0.2-0.6c0.3-0.1,0.8-0.1,0.8-0.1c0.1,0,0.2-0.1,0.4-0.1c-0.1-0.8-0.4-0.9-0.6-1.6
			c-0.4,0-1-0.2-1.3-0.4c-0.8,0.1-0.9,0.5-1.3,0.8C539.9,250.4,540.2,250.7,540.7,251z M532,250.3c0.2,0.6,0.3,1,1,1.2
			c0.3,0.1,0.6-0.2,1-0.4c0.1-0.3,0.1-0.5,0.1-1C533.2,250.1,532.8,250.1,532,250.3z M538.7,251.9c0-0.7-0.2-0.9-0.5-1.3
			c-0.4-0.2-0.9-0.3-1.6-0.2c-0.2,0.3-0.4,0.4-0.7,0.6c0.4,0.6,0.8,1,1.2,1.5c0.8-0.1,0.8-0.3,1.5-0.4L538.7,251.9z M542.1,252.1
			c-0.3-0.2-0.1,0-0.2-0.4c-0.8,0.1-1,0.7-1.6,1.1c0.1,1,0.7,1.1,1,1.8c0.6,0.1,1.2,0.3,1.6,0l0.1-0.1h-0.1c0.2-0.3,0.1-0.2,0.6-0.2
			c-0.2-0.6-0.2-1.1-0.2-1.8C542.6,252.3,542.5,251.9,542.1,252.1z M538.7,254.7c-0.5,0.6-0.9,1.2-1.5,1.8c0.1,1,0.8,1,1.1,1.8
			c0.3,0,0.8,0.1,1.1-0.1c0.3,0.1,0.2,0.2,0.4,0.4v0.1h0.2c0-0.4,0-0.2,0-0.6c1.3-0.6,0.6-1.7,1.2-2.3c-0.1-0.3-0.2-0.4-0.4-0.6
			C539.9,255.2,539.6,254.8,538.7,254.7z M522.1,260.8c0,0.1-0.1,0.2-0.1,0.4l0.4,0.4c0.7,0,0.8,0,1.5,0v0.5
			c0.8-0.2,1.2-0.6,2.2-0.4c0.2-0.4,0.8-0.8,0.5-1.3c0-0.9-0.2-1.2-0.8-1.5c-0.2,0-0.4,0.1-0.6,0.1c-0.1-0.1-0.2-0.2-0.2-0.2
			c-0.2,0-0.4,0.1-0.6,0.1c-0.3-0.1-1.2-0.7-1.6-0.6c-0.7,0.2-1,1-1.3,1.6C521.3,260.9,521.7,260.3,522.1,260.8z M507.2,260.9
			c0.6,0,0.6,0.1,0.8,0.5c0.5-0.1,0.4,0,0.6-0.4c1,0,0.6,0.2,1,0.5v0.1c0.3-0.1,0.5-0.3,0.7-0.5c0-1.2-0.4-1.4-0.8-2.3
			c-0.4,0-2-0.2-2.4,0c-0.1,0.1-0.2,0.2-0.2,0.4c-0.6,0.2-1.5-0.5-1.8-0.7c-0.8,0-0.8,0.4-1.3,0.7c-0.1,0.4-0.3,1.2,0,1.6v0.6
			c0.4,0.1,1.4,0.1,1.8,0.4c0.5-0.1,0.9-0.3,1.2-0.6c0.1-0.1,0.1-0.4,0.1-0.7h0.4L507.2,260.9L507.2,260.9z M518.2,263.6
			c0.6,0,0.8-0.2,1.1,0.1c0.6-0.1,0.9-0.9,0.8-1.3c0-0.7-0.2-1-0.5-1.3c-0.3-0.2-0.6,0.1-0.8,0c-0.5-0.2-0.7-0.9-1.2-1.1
			c0.1,0.2,0.1,0.5,0.2,0.6c-0.3,0.9-0.8,0.6-0.7,2.1C517.6,262.8,517.9,263.2,518.2,263.6z M480.6,261c-0.2,0.3-1.1,0.3-1.5,0.5
			c0,1.5,0.6,1.6,1,2.9c0.5,0,0.8,0.1,1.1,0.4c0.5-0.1,0.8-0.3,1.2-0.5c-0.1-0.9-0.3-1.4,0-2.1C481.7,261.8,481.5,261.3,480.6,261z
			 M503.6,266.8c0.6-0.1,0.6-0.2,1-0.5c0-0.9,0.1-1.7-0.4-2.2c-0.2-0.4-0.4-0.5-0.8-0.6c-0.3,0.2-0.8,0-1.2,0.1
			c-0.2,0.1-0.5,0.5-0.7,0.6c0.1,1.3,0.9,1.4,1.2,2.3C503.2,266.5,503.3,266.4,503.6,266.8z M524.9,268.3v-0.4
			c0.3-0.1,0.5-0.2,0.7-0.4c0.1-0.4-0.2-0.2-0.2-0.5c0.1-0.4,0.2-0.7,0.4-1.1c-0.4-0.1-0.7-0.2-1.2-0.2v-0.4c-1.5-0.5-2.9,1-4.2,1.6
			c-0.8,0.3-1.7,0.3-2.4,0.7h-0.1v0.1c2.1-0.1,3.1-1.2,4.7-1.6c0.2,0.9,0.4,1.6,1.5,1.9C524.1,268.3,524.5,268.3,524.9,268.3z
			 M510.3,270c0.1-0.1,0,0,0.1-0.2c-0.2-0.2-0.1-0.2-0.5-0.2c0-0.2,0.1-0.3,0.1-0.5h0.4v0.4c0.2,0,0.2,0,0.4-0.1
			c0.6-0.3,0.3-0.9,0.6-1.3c-0.2-0.4-0.3-0.4-0.8-0.4l0.4-0.4c-0.1-0.6-0.3-0.7-0.5-1.1c-0.5,0-1,0.2-1.3,0
			c-0.7,0.1-0.7,0.7-1.1,1.1c0.1,0.6,0.1,0.6,0.7,0.6c-0.3,0.5-0.5,0.3-0.8,0.1c-0.2,0.3-0.5,0.6-0.8,0.7c-0.1,0.7,0.3,1.4,0.1,1.8
			v0.2c0.6,0,1,0,1.3,0.2C509.7,271,510.1,270.8,510.3,270z M524.5,271c0,0.7,0.1,1.3,0.2,1.5c0.2,0.5,1.6,1,2.2,0.6
			c0.5-0.3,0.5-1.2,0.6-1.7c-0.5-0.6-1-1.1-2.1-1.2C525.2,270.4,524.8,270.7,524.5,271z M523.5,271.1c-0.3-0.1-0.4-0.1-0.6,0
			c-0.3-0.2-0.1,0-0.2-0.4c-0.7,0-0.7-0.2-1.1-0.5c-0.3,0.4-0.8,0.8-1.2,1.1c0,0.5,0,0.7,0.2,1c0,0.6,0.1,0.7,0.6,0.8
			c1.2,0.9,3.2-0.6,2.3-1.8V271.1z M515.2,273.6c0.1-0.7-0.1-2-0.7-2.5c-0.3-0.3-1.1-0.3-1.3-0.2c-0.9,0-0.8,0.4-1.2,0.8
			c0,0.6,0.1,0.7,0.2,1.1h0.4c-0.1,0.4,0,0.3-0.2,0.5c0.2,0.3,0.3,0.3,0.6,0.4c-0.2,0.6-0.5,1,0,1.6v0.2c-1.2,0-2.8-0.4-3.5,0.2
			c-0.1,0.2-0.2,0.3-0.2,0.6c0.4,0.3,0.5,0.4,0.5,1.1c0.4,0.1,1,0.2,1.3,0.5c0.4-0.2,0.6-0.6,1-0.8c-0.1-0.6-0.1-0.9-0.6-1.1v-0.1
			c1.2,0,3.6,0.4,4,0.1c0.9-0.4,0.4-1.4,0.4-2.3L515.2,273.6L515.2,273.6z M505.4,272.9c-0.9-0.2-1.6-0.4-2.8-0.4
			c-0.3,0.5-0.3,1.1-0.5,1.5c0.1,0.5,0.3,0.6,0.5,1c0.7-0.1,1.9,0.2,2.1,0.1c0.3,0,0.6,0,0.7-0.1c0.2-0.2,0.3-0.6,0.1-0.8
			C505.5,273.6,505.5,273.2,505.4,272.9z M500.9,273.9c-0.2-0.2-0.4-0.2-0.7-0.2c0-0.2,0-0.2,0.1-0.4V273l-0.4,0.4
			c-0.5-0.1-1-0.2-1.5-0.6c-1.2,0.1-1.6,1.4-2.2,2.2c0.3,0.5,0.5,0.2,0.8,0.5c0.1,0.1,0.1,0.1,0.1,0.4c1.2,0.2,2.5,1,3.8,0.1
			C501.8,275.4,501.5,274.4,500.9,273.9z M413.9,301c-0.2,0.2-0.3,0.3-0.6,0.1c-0.3,0-0.4,0-0.6,0.1c-0.2,0.2-0.3,0.6-0.5,0.8
			c0.1,1.5,1.9,1.2,2.5,2.1c1-0.2,1.2-1.5,1.3-2.2c-0.5-0.3-0.7-0.7-1.3-0.8C414.5,301,414.2,301,413.9,301z M332.5,340.9
			c0.1-0.4,0.3-0.9,0.1-1.2v-0.5c-0.6,0.2-0.9,0.4-1.1,1c0,0.3-0.1,0.1,0.1,0.2c-0.2,0.3,0,0.1-0.4,0.2c0,0.5-0.1,1-0.1,1.6
			c0.5,0.1,0.5,0.3,1,0c0.2-0.3,0.2-0.8,0-1.3C332.5,340.8,332.2,340.9,332.5,340.9z M332.5,341.3c0,0,0.1,0.1,0.1,0.1v-0.1
			c0,0,0.1-0.1,0.1-0.1c-0.1,0-0.2-0.1-0.4-0.1C332.5,341.2,332.4,341.2,332.5,341.3z M365.3,346.5c-0.8,0.1-0.7,0.6-1.1,1.1
			c0.2,0.3,0.1,0.2,0.5,0.2c-0.2,0.3,0.1,0.1-0.2,0.2c0.1,0.3,0.1,0.4,0.2,0.6c0.6,0.7,1.4,0.5,2.7,0.5c0.2-0.2,0.3-0.2,0.4-0.6h0.5
			c0-0.8-0.1-1.1-0.4-1.6C367,346.8,365.9,346.8,365.3,346.5z M328.4,358.6c-0.2-0.1-0.3-0.1-0.6-0.1c-0.3,0.3-1.3,0.7-1.7,0.8
			c0,0.3,0,0.6,0.1,0.7c0.1,1.7,2.5,1.2,3.3,0.6c0.1-0.3,0.1-0.6,0.2-0.7C329.7,359.2,329,358.8,328.4,358.6z M309.4,364.2
			c-1.7-0.7-1.6-1.4-3.4-0.2c-0.1,0.3-0.2,0.7,0,1c0.2,0.6,1,0.9,1.8,0.8c0.1,0.2,0.1,0.4,0.2,0.5c0,0,0.1,0.1,0.1,0.1v-0.1
			c0.3-0.2,0.3-0.3,0.5-0.6c0.3,0,0.6-0.1,0.8-0.1C309.4,364.9,309.3,364.8,309.4,364.2z M356.9,367.1v0.1c-0.3,0.1-0.1-0.1-0.2-0.2
			c-0.5,0-0.7,0.1-1,0.4c-0.1,0.2-0.2,0.4-0.4,0.6c0.3,1.5,1.3,0.5,1.8,1.2c0.4-0.1,0.5-0.1,0.7-0.4h0.1c0,0.2-0.4,1.1-0.5,1.3
			c0.2,0.8,1.5,1.4,2.2,1.1c0.5,0,0.7-0.1,1-0.2c0-0.7-0.1-1.6,0-1.9c-0.4-0.1-0.4-0.1-0.6,0.2c-0.3-0.1-0.4-0.5-0.5-0.7
			c-0.4,0-0.7,0-0.8,0.1h-0.2l0.4-1.1c-0.3-0.3-0.6-0.6-0.8-1l0.1-0.1c0.7,0.1,0.6,0.5,1.1,0.7c0.5,0.2,1.1,0,1.6,0
			c0.3-0.3,0.5-0.6,1-0.7c-0.1-0.7-0.3-1-0.6-1.5c-0.5-0.2-1-0.3-1.5-0.5c-0.2,0.2-0.7,0.1-1.1,0.1
			C357.9,365.3,357.9,366.7,356.9,367.1z M364.1,367.8c0.5,0,0.8,0.1,1.1,0.1c0.3-0.3,0.8-0.4,1-0.7c0.1-0.2,0.1-0.4,0.2-0.6
			c0.1-0.1,0.1-0.1,0.4-0.1c0.1-0.6,0.2-0.5,0.4-1c-0.3-0.3-0.5-0.8-1-0.8c-0.3-0.1-0.6,0.2-1,0c-0.4,0-1.5,0.8-1.8,1.1
			c-0.2,0.2-0.2,0.5-0.4,0.7C363.1,367.3,363.7,367.2,364.1,367.8z M313.6,365.9c-0.3,0.4-0.9,0.8-1.2,1.1c0,0.1-0.1,0.2-0.1,0.4
			c0.2,0.2,0.4,0.4,0.5,0.7c1,0,0.9,0.1,1.5,0.4c0.3-0.3,0.8-0.5,1.1-0.7c0-0.3,0-0.3,0.1-0.5C315.4,366.3,314.3,366,313.6,365.9z
			 M319.3,367.1H319c-0.2,0.1-0.7,0-1,0.1c-0.2,0.1-0.4,0.5-0.7,0.6c0,0.9,0.2,1,0.5,1.5c1.2,0.3,2,0.4,3-0.2
			C320.7,367.8,319.9,367.8,319.3,367.1z M313.9,371.7c0.1-0.2,0.2-0.5,0.2-0.7c-0.6-0.6-1.2-1.2-2.4-1.2c-0.5,0.4-1.2,0.4-1.5,1.1
			c-0.4,0.8,1.6,2.4,2.8,1.9c0.3-0.1,0.6-0.4,1.1-0.5c0-0.3,0.2-0.3,0-0.6H313.9z M380,371.5h0.2c-0.1-0.1-0.1-0.1-0.4-0.1
			C379.9,371.6,379.9,371.5,380,371.5z M359.9,372.9c0,0.3-0.1,0.2,0,0.4c0,1,0.6,1.4,1.5,1.5v0.4c-0.4,0.1-0.4,0.1-0.6,0.2
			c0,0.5,0.1,0.6-0.1,1c0.2,0.5,0.8,0.7,1.1,1.1c0.8-0.1,1.5-0.2,2.3-0.2c0.1-0.5,0.5-1.3-0.1-1.7c0.2-0.3,1-0.6,1.3-0.7
			c0-1.9-3.5-3.3-5-2.1C360,372.7,360.1,372.7,359.9,372.9z M361.7,374.8h0.2v0.2h-0.2V374.8z M303.1,373.5l-0.7,0.7
			c0,0.9,0.1,0.9,0.5,1.3c0.3,0,0.6,0,0.7,0.1c0.7,0,0.7-0.1,1.1-0.4c0.1-0.6,0.3-0.9,0.4-1.6C304.1,373.7,304,373.4,303.1,373.5z
			 M353.1,376.3c0.7-0.1,0.8-0.7,1-1.2c-0.2-0.2-0.2-0.2-0.2-0.5c-0.2,0-0.5-0.1-0.7-0.1c0-0.3-0.1-0.4-0.1-0.6
			c-0.4,0-0.8,0.1-1.1,0.2h-0.2v0.4h-0.4v-0.4h-0.4v0.4c-0.2,0-0.4,0.1-0.6,0.1v0.8c0.2,0.2,0.4,0.5,0.6,0.7c0.7,0,1,0.2,1.5,0.4
			c0.2-0.3,0.3-0.2,0.4-0.6C353.1,376,353,375.9,353.1,376.3z M367.5,377.6c1,0.1,1.9,0.7,3.1,0.1c0.1-0.2,0.1-0.7,0.2-0.8l0.1-0.1
			v0.1h0.2c-0.1-1-0.4-1.3-0.8-2.1c-0.4-0.1-0.5-0.2-1.1-0.2c-0.2,0.2-0.7,0.5-1,0.6c-0.1,0-0.2-0.1-0.4-0.1c-0.3,0.2-0.6,0.8-1,1.1
			c0,0.2,0,0.2,0.1,0.4C367.2,377.2,367.3,377.1,367.5,377.6z M346,375.4c-0.5,0.4-1.2,0.4-1.6,0.8c-0.2,0.2-0.2,0.6-0.2,1
			c0.8,0.1,1.2,1.6,2.5,0.7c0.6-0.2,0.6-0.9,1.2-1.2c-0.1-0.4-0.2-0.4-0.2-0.8C347.1,375.8,346.4,375.5,346,375.4z M357.3,375.4
			c-0.4,0.5-1.2,1.1-1.8,1.5c0,0.6,0,1.1,0.2,1.5c0.2,0.2,0.4,0.2,0.6,0.4c1.1,0,1.3-0.5,2.1-0.7c0-1-0.4-1.7-1.1-1.9
			c0.1-0.3,0.1-0.4,0.2-0.6H357.3z M364.6,379.3c-0.1-0.1-0.7-0.2-1.1-0.2c-0.5,0.5-1.3,0.7-1.7,1.2c-0.2,0.2,0,0.8,0,1.3
			c0.4,0.2,1.3,0.4,1.6,0.7c0.8-0.3,1.2-1.2,1.9-1.7C365.3,379.9,365,379.6,364.6,379.3z M370.9,381.2l-0.1-0.1h-0.5v0.6
			c0.4-0.1,0.4-0.1,0.6-0.2V381.2z M369.6,384.3c-0.1,0.1-0.2,0.2-0.2,0.2c0.1,0.2,0,0.1,0.1,0.2c0.1,0.1,0.1,0.1,0.4,0.1
			c0.1-1.1,0.5-0.9,0.5-2.3c0.2-0.1,0.2,0,0.4-0.1c0.1-0.3,0-0.2-0.1-0.6c-0.8,0-2.2-0.4-2.9,0.2c-0.7,0.3-0.4,0.9-0.8,1.3
			c0,0.3,0.1,0.3,0.1,0.5C367.7,384.1,368.5,384.6,369.6,384.3z M358.1,383.3c-0.6-0.1-1.7-0.3-2.1-0.5c-1.1,0-1.6,0.7-1.9,1.6
			c0.4,0.3,0.9,0.7,1.2,1.1c0.5,0,0.9,0.2,1.2,0c0.9-0.1,0.9-0.5,1.7-0.7C358.1,384.3,358.1,383.8,358.1,383.3z M363,385.8
			c0-0.7,0.1-0.5-0.5-0.5c0-0.3-0.1-0.6-0.1-0.8c-1.4,0-2.1,0.4-2.9,0.8c0.1,0.4,0.2,0.9,0.4,1.2c0.8,0.6,2.5,0.5,3.3,0.2
			C363.1,386.3,362.8,386.2,363,385.8z M369.2,385c-0.1,0.3-0.2,0.6-0.2,0.7v0.2c0.3-0.1,0.4-0.2,0.6-0.4h0.1
			C369.6,385.2,369.5,385.1,369.2,385z M354.9,386.8c0.1-0.4,0.3-0.5,0.7-0.6c0-0.2,0-0.2-0.1-0.4c-0.4,0.4-1.3,0.8-1.9,1
			c0,0.2,0,0.2-0.1,0.4c0.1,0.9,0.5,0.9,0.8,1.5c0.6,0,1.3,0.1,1.7-0.2c0.3-0.2,0.6-0.8,0.2-1.2C356,386.8,355.5,386.8,354.9,386.8z
			 M358.5,391.3c-0.3,0.2-1,0.4-1.3,0.5c0,0.3,0,0.5-0.1,0.6c0.2,0.8,1.1,1.2,1.8,1.5c0.3-0.4,1-0.9,1.5-1.2c0-0.3-0.1-0.6-0.1-0.8
			C359.7,391.5,359.3,391.3,358.5,391.3z M364.7,391.9c-0.3-0.1-0.4,0.2-0.5,0.1c-0.3-0.1-0.5-0.3-1-0.4c-0.3,0.2-1,0.4-1.3,0.6
			c0,0.3,0,0.3-0.1,0.5c0,0.8,0.6,1.2,1.2,1.3c0.5,0.3,0.5-0.2,1,0.1c0.4-0.1,0.6-0.3,0.8-0.6c0.2-0.1,0.4-0.9,0.7-1.2v-0.2
			C364.7,392.4,365.3,392.1,364.7,391.9z M353.9,394.9c-0.3,0.2-0.6,0.3-1,0.5c-0.1,0.2-0.1,0.4-0.2,0.5c0,0.5,0,0.9,0.1,1.2
			c0.4,0.1,1.2,0.2,1.5,0.5c0.8,0,0.6-0.2,1-0.6c0.3-0.1,0.4,0,0.7,0.1c0.1-0.1,0.2-0.2,0.2-0.2c0-0.4,0-0.7,0.1-0.8
			C356.2,395,355.2,394.8,353.9,394.9z M346.2,397.9c-0.3,0.4-0.9,0.4-1.2,0.8c0,0.1-0.1,0.4-0.1,0.7c0.1,0.1,0,0,0.1,0.2
			c0.4,0.1,0.9,0.2,1.3,0.4c0.5-0.1,0.6-0.2,1-0.4c0.1-0.4,0.1-0.8,0.4-1c-0.1-0.4-0.2-0.5-0.4-0.8L346.2,397.9L346.2,397.9z"/>
	</g>
</g>
</svg>
