<?xml version="1.0" encoding="utf-8"?>
<!-- Generator: Adobe Illustrator 21.0.0, SVG Export Plug-In . SVG Version: 6.00 Build 0)  -->
<svg version="1.1" id="Calque_1" xmlns="http://www.w3.org/2000/svg" xmlns:xlink="http://www.w3.org/1999/xlink" x="0px" y="0px"
	 viewBox="0 0 841.9 595.3" style="enable-background:new 0 0 841.9 595.3;" xml:space="preserve">
<style type="text/css">
	.st0{fill:#DADADA;}
	.st1{fill:#1E1E1C;}
	.st2{fill:#FFFFFF;}
</style>
<path class="st0" d="M461.5,305.9c0,0,0.5-2.2,1.3-2.3c0.7-0.1,15.4-1.6,15.4-1.6l1.1,1.6C479.2,303.7,462,305.5,461.5,305.9z"/>
<g>
	<g>
		<path class="st0" d="M404.5,385.5c-1.6,0.9-3.5,1.4-5.3,2.1c-0.4,0.2-0.8,0.6-1.3,0.8h-0.4c-0.5,0.2-1.2,0.6-1.8,0.7v0.2
			c-0.7,0-2.8,0.8-3.3,1.1c0,0.1,0,0.1-0.1,0.2c-0.1,0-0.2,0-0.3-0.1c-0.1,0.1-0.2,0.2-0.3,0.3c-0.2,0-0.4,0.1-0.7,0.1
			c-0.1,0.1-0.2,0.2-0.3,0.4c-0.2,0.1-0.4,0.1-0.6,0.1c-0.4,0.2-0.9,0.5-1.3,0.7h-0.4c0,0.1,0,0.1-0.1,0.2c-0.2,0-0.4,0-0.7,0.1
			c-0.8,0.3-1.9,1.6-2.9,1.3c0.1,0.2,0,0.2,0.1,0.3c-0.3,0.1-0.8,0.1-1,0.3v0.1c-0.1,0.1-0.5,0.4-0.6,0.4c-0.5,0.3-1,0.3-1.6,0.5
			c-0.3,0.1-0.6,0.5-0.8,0.6c-0.4,0.2-0.6,0.1-1,0.3c-0.3,0.2-0.6,0.5-1,0.7c-0.9,0.4-1.9,0.7-2.7,1.3c-0.2-0.1-0.1-0.3-0.2-0.5
			c-0.1-0.2-0.5-0.2-0.7-0.4c-0.5-0.3-0.5-0.7-1.3-0.9V396c-0.6,0.1-1.3,0.1-1.8-0.2h-0.1v-0.2c0.4-0.1,1.3-0.5,1.6-0.7
			c0.1-0.1,0.1-0.2,0.2-0.3c0.3,0,0.5,0,0.8-0.1c1.7-0.8,3.7-1.8,5.5-2.6c0.3-0.1,0.5,0,0.8-0.1c0.6-0.2,1.2-0.6,1.8-0.8
			c0.3-0.1,0.5,0,0.8-0.1c2.5-1.1,5.2-2.1,7.6-3.3c0.4-0.2,0.7-0.1,1.1-0.3c0.6-0.3,1.4-0.6,2-0.9c0.2-0.1,0.3,0,0.4,0
			c1.1-0.7,2.5-1,3.8-1.6c0.9-0.4,2-1.1,3.1-1.3c0,0.1,0,0.3-0.1,0.4c1.4,0,1.5,1.1,2.6,1.4L404.5,385.5L404.5,385.5z M391.8,390.3
			C391.8,390.4,391.8,390.4,391.8,390.3c0.3,0,0.2,0.1,0.2-0.1h-0.2L391.8,390.3L391.8,390.3z M422,335.8v-0.2h-0.2
			c-0.5-1-1.5-1.7-2.1-2.7c-0.4-0.6-0.4-1.6-0.7-2.2v-1.8c0.2,0.4,0.7-0.3,0.7-0.3c0.2-0.1,0.5,0,0.7-0.1h0.5
			c-0.2,0.4-0.5,1.8-0.2,2.5c0.1,0.2,0.4,0.4,0.4,0.6c0.1,0.3,0.1,0.6,0.3,0.9c0.1,0,0.1,0.1,0.2,0.1c0.1,0.2-0.1,0.2,0.1,0.5h0.3
			v0.3c0.7,0.6,1,1.6,1.8,2.1c1.3,1,2.5,2.1,3.8,3.1c0.2,0.2,0.3,0.6,0.5,0.7c0.4,0.3,0.9,0.3,1.3,0.7c0.4,0.4,0.7,0.7,1.1,1.1
			c0.1,0.1,0,0,0.1,0.1c-0.2,0.2-0.7,0.3-0.9,0.6c-1-0.3-1.6-1.3-2.4-1.9c-1.1-0.8-2.1-1.6-3.2-2.4
			C423.2,337.1,422.7,336.3,422,335.8z M426.5,315h0.1v0.1L426.5,315L426.5,315z M431.9,313.9c-0.4,0.1-0.7,0.1-1,0.2
			c-0.6,0.3-1.3,0.8-1.9,1c-0.4,0.2-0.7,0-1.1,0.2c-0.4,0.2-0.9,0.5-1.3,0.7c-1,0.6-2.3,1.1-2.7,2.3c-0.4,0-1.2-0.2-1.4-0.4
			c-0.4,0-0.4-0.1-0.7-0.2c0.2-0.5,1.2-1.4,1.6-1.6h0.4c0.2-0.1,0.4-0.4,0.6-0.5c0.1,0,0.3,0,0.4-0.1h0.1c0-0.1,0-0.2,0.1-0.3h0.2
			c-0.1,0.2,0,0.1-0.1,0.1v0.2c0.3-0.1,0.4-0.3,0.7-0.4c0,0,0,0,0.1,0.1c0.1,0.1,0.7-0.1,0.9-0.1h0.1c0-0.1,0-0.2-0.1-0.4
			c0,0,0,0,0.1-0.1c0.5,0.1,0.8,0.4,1.3-0.1c0.1-0.2,0.1-0.1-0.1-0.2v-0.1c0.3,0,0.2-0.1,0.4,0.1c0.6-0.1,0.2-0.2,0.5-0.4h0.4
			c0.2-0.1,0.4-0.4,0.5-0.4c0.4-0.2,0.8-0.1,1.1-0.2l0.1-0.1v0.1h0.5v-0.1c-0.1,0-0.3-0.1-0.5-0.1v-0.1c0.6-0.2,1.2-0.4,1.8-0.6
			c0.2,0,0.4,0,0.6,0.1v-0.1c0.1,0,0.3-0.1,0.3-0.1c0.1,0,0.2,0,0.4,0.1c0.5-0.1,1-0.3,1.5-0.5c0.6-0.2,1.2-0.1,1.6-0.4
			c0.5,0,0.6,0.1,0.9,0.2c0,0.2,0,0.2-0.1,0.3c-0.6,0.4-1.9,0.3-2.7,0.6C434.4,313.1,433.2,313.5,431.9,313.9z M426.8,373.5
			c-0.4-0.4-0.8-0.4-1.4-0.7c-0.5-0.2-1-0.7-1.4-1.1c-0.1-0.1,0-0.1-0.1-0.2c0.9-0.1,1.6-0.8,2.2-1.1c0.3-0.1,0.9-0.2,1.1-0.1
			c0.9-0.5,2-1,2.9-1.6c0.3-0.2,0.7-0.7,1-0.8c0.1,0,0.2,0,0.4,0.1c0.1,0,0.8-0.3,1-0.4l0.6-0.6c0.4-0.3,0.8-0.4,1.2-0.7
			c0.2-0.2,0.3-0.4,0.5-0.6h0.4c0.3-0.1,0.5-0.5,0.7-0.7h0.2c0.3-0.2,1.1-0.8,1.3-1.1c0.1-0.1,0.2-0.4,0.3-0.4
			c0.2-0.2,0.5-0.2,0.7-0.4c0.3-0.4,0.7-1,1.2-1c-0.1-0.5,0.2-0.6,0.4-1c0.1-0.3,0.1-0.6,0.2-0.8c0.5-0.9,0.8-1.4,0.6-2.6
			c0-0.3,0.1-0.6,0-0.7c0.2-0.2,0.5-0.1,0.7-0.2c0.3-0.1,0.6-0.4,0.9-0.6c0.6,0.2,1.5,2,1.7,2.7c0,0.2-0.1,1.5-0.2,1.8
			c-0.1,0.3-0.3,0.5-0.4,0.7c-0.2,0.4-0.1,0.9-0.4,1.3c-0.6,1-1.6,1.8-2.3,2.9c-0.4,0.6-1.3,0.8-1.6,1.5h-0.2
			c-0.1,0.4-0.3,0.6-0.7,0.6v0.2c-0.9,0.2-1.2,1-1.9,1.3C433.1,370.4,430.7,372.9,426.8,373.5z M424.8,315.7v0.2
			c0.1,0,0.1,0,0.1-0.1h0.1C425,315.7,425.1,315.8,424.8,315.7z M429.7,313.9v0.2c0.3,0,0.7-0.1,0.9-0.3h0.1v-0.1c0,0,0,0-0.1-0.1
			C430.2,313.7,430.2,313.9,429.7,313.9z M432.9,313h0.2v-0.2h-0.2V313z M505.5,297.5c1.2-0.3,2.7-0.2,3.8-0.4c0.7,0,1.3,0,2-0.1
			c0.7-0.2,3-0.5,3.6-0.3c0.7,0,0.6,0.2,0.9,0.5v0.1c-3.2,0.1-6.7,0.7-9.2,1c-0.4,0-1.1,0.2-1.3,0.2c-0.3,0-0.6,0-0.9-0.1
			c-0.5,0.1-1.5,0.4-2.2,0.1c0-0.3,0.2-0.8,0.4-1C502.8,297.4,505.1,297.6,505.5,297.5z"/>
	</g>
</g>
<g>
	<g>
		<path class="st1" d="M427.4,294.1h0.8c0.9-0.2,1.7-0.2,2.7-0.4c4.2-1.1,9.4-1.1,14.1-2.2h1c0.9-0.2,2.2-0.2,3.2-0.4
			c0.5,0,1,0,1.6-0.1c0.7-0.1,1.4-0.1,2.1-0.2c2.8-0.6,5.4-0.3,8.1-1c1.3-0.3,2.5-0.1,3.8-0.4c0.4-0.1,0.9,0,1.1,0
			c0.6,0,1.3-0.2,1.8-0.3c0.3-0.1,1.4-0.2,1.6-0.1c0.1,0,0,0.2,0.2,0.1v-0.1c0,0,0.2-0.1,0.2-0.1c0.7-0.2,1.8-0.2,2.5-0.3
			c0.4-0.1,0.4,0.2,0.6,0.2c0.1,0,0.5-0.2,0.7-0.2c0.5,0,1.1,0.1,1.7-0.3c0.2,0.1,0.3,0.3,0.4,0.4c0.5-0.1,0.4-0.2,0.7-0.4
			c0.5-0.3,1.4-0.3,2-0.3c0,0.4,0.1,0.4,0.2,0.6c0.2,0,0.5-0.1,0.6-0.1c0.3,0.1,0.5,0.4,0.7,0.3c0.3,0,0.3-0.1,0.4-0.1
			c0-0.3-0.1-0.4-0.2-0.6c-0.4,0-0.5,0-0.7,0.3c-0.3-0.1-0.3-0.1-0.5-0.2V288c0.6-0.3,1.6-0.3,2.4-0.3c0.2,0,0.4,0,0.7,0.1
			c0.4-0.1,0.9-0.3,1.3-0.4c0.8-0.2,1.6-0.1,2.4-0.2c0.6,0,1.2,0,1.8-0.1c1.5-0.4,4-0.3,5.8-0.7c0.5,0,1,0,1.5-0.1
			c1-0.2,1.8-0.2,2.8-0.4h0.9c0.9-0.2,1.7-0.2,2.9-0.4c0.1,0,0.2,0,0.4,0.1c3.3-0.7,7.6-0.7,10.9-1.2c2.1-0.3,4.5,0,6.5-0.3
			c1.1-0.1,3,0.4,3.7-0.1c0,0,0.1,0,0.1-0.1c0-0.2,0-0.4-0.1-0.5c-1-0.4-3.5-0.2-4.6,0c-0.5,0.1-1.2-0.1-1.6-0.1
			c-0.2,0-0.9,0.2-1.1,0.1c-0.8-0.1-2.4,0-3.3,0.2h-1.2c-0.8,0.2-1.8,0.1-2.7,0.3c-0.5,0.1-1.2-0.1-1.8,0.1
			c-3.6,0.9-8.2,0.6-11.5,1.4c-0.8,0.2-1.5-0.1-2.3,0.1c-1.4,0.3-3.3,0.3-4.4,0.6c-0.7,0.2-1.6-0.1-2.1,0.2h-0.4v-0.1
			c0.4-0.1,0.7-0.6,1-0.7c0.3-0.1,0.5,0.3,0.9,0.1c0.2-0.1,0.4-0.3,0.6-0.4c0.6-0.2,1.2,0,1.8-0.1c1.4-0.5,3.3-0.3,4.8-0.9
			c0.5,0,1,0,1.6-0.1c0.7-0.2,1.5-0.6,2.2-0.8c0-0.1,0-0.1,0.1-0.1v-0.4c-1-0.2-1.6,0.3-2.3,0.5c-1.3,0.4-3.2,0.5-4.4,0.6
			c-0.4,0-1,0.3-1.3,0.2c-1-0.1-1.7,0.4-2.2-0.2c-1.2,0.1-3,1.8-4.1,2.3c-0.4,0.2-1.1,0.3-1.5,0.4c-0.5,0.1-1-0.1-1.3,0.1h-0.2
			c-0.1-0.4-0.3-1-0.1-1.3c0.3-0.9,1.4-2.6,2-3.2c0-0.3-0.1-0.4-0.2-0.6c-0.8,0-0.7,0.5-1.2,0.8c-0.6,0.4-1,1-1.4,1.6
			c-0.3,0.4-0.9,0.7-1.2,1.2H479c-0.2,0.8-1.5,1.5-2.1,2h-0.1c0-0.3-0.1-0.6-0.1-0.8c0.1-0.8,0.1-1.5,0.2-2.3c0-0.3,0.2-1,0.1-1.2
			c0-0.4-0.2-0.4-0.3-0.7c-0.1,0-0.3,0-0.4,0.1c-0.4,1.9-0.5,3.1-1.5,4.7c-0.1,0-0.1,0-0.1,0.1h-0.1c-0.3-1.6,0.2-4.8-0.5-5.8
			c-0.1-0.2-0.2-0.2-0.4-0.3c-0.1,0.1-0.1,0.1-0.2,0.1c-0.3,0.7-0.2,2-0.1,2.5c0.1,0.5-0.1,0.9,0.1,1.3c0,0.2,0,0.2-0.1,0.3v0.1
			c-0.2-0.2,0-0.5-0.1-0.8c-0.2-0.5-0.7-1.3-0.4-1.6c-0.1-0.2-0.2-0.1-0.3-0.2c-0.1-0.2,0-0.5-0.1-0.7c-0.1-0.2-0.3-0.5-0.4-0.7
			c-0.1,0-0.1,0-0.1-0.1c-0.2,0-0.3,0-0.4,0.1c-0.3,0.4-0.1,1,0.1,1.4c0.2,0.6,0.2,1.4,0.4,2c0,0.1,0.2,0.2,0.2,0.3
			c0.3,0.9,0,1.9,0.5,2.6c0,0.2,0,0.2-0.1,0.3c-1.2,0-2.1,0.3-3.3,0.3c0-0.4,0-0.5-0.4-0.6c-0.4-0.2-0.9,0.1-1.3,0.1
			c-0.6,0.1-2.1-0.2-2.4-0.6c-0.2,0-0.3,0-0.4,0.1c-0.1,0.3-0.1,0.5,0.1,0.7c0.4,0.5,1.2,0.6,2.1,0.5c-0.5,0.3-2.1,0.2-2.7,0.3
			c-1.7,0.2-3.5,0.3-5.2,0.5c-0.8,0.2-2,0.2-2.8,0.4c-0.2,0-0.3,0-0.5-0.1c-1,0.3-3,0.4-4.2,0.6c-0.3,0-0.7-0.1-1.2,0
			c-0.9,0.3-2.3,0.3-3.3,0.4c-0.1,0-0.3,0-0.4-0.1c-2,0.5-5,0.6-7,1c-2.2,0.5-4.5,0.4-6.6,1c-0.6,0.1-2,0.5-2.3,0.1
			c-0.2,0.1-0.1,0-0.1,0.3c-0.8-0.2-3.5,0.6-4.4,0.8c-0.5,0.1-0.9-0.1-1.2,0c-1,0.3-2.2,0.6-3.3,0.9c-0.5,0.2-1.3,0.1-1.6,0.1
			c-1.1,0.3-2.4,0.7-3.5,1c-4.3,1.1-8.3,1.9-11.9,3.4c-0.3,0.1-0.6,0-1,0.1c-0.6,0.2-1.4,0.6-2.1,0.8c-0.3,0-0.7,0.1-1,0.1
			c-1.1,0.5-2.4,1-3.5,1.6c-0.7,0.3-1.4,0.3-2.1,0.6c-1,0.5-2.3,1.2-3.3,1.6c-0.7,0.3-1.4,0.5-2,0.7c-0.1,0-0.1,0-0.2-0.1
			c-0.9,0.5-2,1.1-3,1.5c-1,0.5-2,0.7-3,1.3c-0.1,0.1-0.2,0.2-0.3,0.4c-0.2,0-0.3,0-0.5,0.1c-0.3,0.2-0.7,0.6-1.1,0.8
			c-0.5,0.2-1,0.2-1.4,0.5c-2.7,1.8-5.4,4.1-7,7c-0.4,0.8-1.1,2.2-1,2.7c0,0.3-0.3,0.4-0.1,0.8c0.2,1,0.3,3.1,1.3,3.5
			c0,0.1,0,0.2-0.1,0.4c0.1,0,0.3,0,0.4,0.1v0.2c0.6,0.2,0.9,0.7,1.3,1c0.4,0.2,0.8,0.3,1.2,0.5c0.3,0.2,0.6,0.5,0.9,0.7
			c0.2,0,0.3,0,0.5,0.1c0.2,0.1,0.4,0.4,0.6,0.4h0.4c0.2,0.1,0.3,0.3,0.4,0.4c0.3,0.1,0.5,0.1,0.8,0.2c0.1,0.1,0.2,0.2,0.4,0.3
			c0.3,0,0.6,0.1,0.9,0.1c0.8,0.3,1.8,0.8,2.7,1c0.6,0.2,1.4,0.2,1.8,0.4c3.7,1.7,6.8,2.5,9.3,5.5c0.9,1,1.3,2.6,1.8,4.1
			c0.2,0.7-0.1,1.7,0,2.1c0.2,0.5,0.2,1.5,0,2.1v1.3c-0.2,0.8-0.5,1.8-1,2.6c-0.2,0.2-0.4,0.3-0.6,0.5c-0.8,1-1.8,1.7-3,2.4
			c-0.3,0.2-0.7,0.2-1,0.4c-0.5,0.4-1.2,0.8-1.8,1c-0.3,0.1-0.6,0.1-0.9,0.2c-0.3,0.1-0.6,0.5-0.9,0.6c-0.6,0.3-1.2,0.3-1.8,0.6
			c-1.6,0.8-3.4,1.3-5.2,1.9c-2.9,1.1-6.1,2.3-9.2,3.3c-0.9,0.3-1.6,0.3-2.5,0.6c-2.2,0.8-4.9,1.4-7.1,2.1c-0.4,0-0.8,0.1-1.2,0.1
			c-1.5,0.5-3.4,0.9-5,1.3c-1,0.3-2,0.3-2.9,0.6c-0.2,0.1-0.4,0-0.5,0.1h-0.2c0.2-0.4,1.2-1.3,1.6-1.7c-0.1-0.2-0.2-0.3-0.3-0.4
			c-1.4,0.1-2.7,2.3-4,2.7c-0.6,0.2-2.1,0.2-2.7,0.6h-0.1c0.1-0.4,0.7-1.7,0.9-2c0-0.4-0.1-0.4-0.3-0.6c-0.4,0-0.7,0.1-0.9,0.3
			c-0.1-0.1-0.2-0.3-0.3-0.5c-1.4,0-2,1-2.7,1.8c-0.1,0.1-0.2,0.1-0.4,0.2c-0.5,0.5-0.9,1.1-1.4,1.5c-0.2,0.1-0.4,0.2-0.6,0.4h-0.7
			c0.6-1,0.9-2.4,1.3-3.4c0.2-0.4,0.2-0.8,0.4-1.1c0-0.4-0.3-0.7-0.6-0.4c-0.5,0.2-0.4,0.9-0.7,1.4c-0.1,0-0.1,0.1-0.2,0.1
			c-0.2,0.4-0.1,0.8-0.4,1.3c-0.1,0.1-0.2,0.1-0.4,0.2c-0.1,0.2,0.2,0.1,0.1,0.3c0,0.2-0.2,0.6-0.3,0.9c-0.1,0.3-0.3,0.5-0.3,1
			c-0.4,0.1-1.8,0.4-2,0.3c-0.5-0.3-0.1-1.5-0.4-2.1c0.1-0.5,0.3-0.4,0.6-0.7h0.1v-0.1c-0.2,0.1-0.5,0.1-0.7,0.2
			c0-1.4-0.2-2.1-0.5-3.3c-0.2-1,0-1.9-0.3-2.9c-0.1-0.5-0.6-2.7-0.6-3c0.1-0.3,0.3-0.3,0.4-0.7c1.7,0.2,1.9-0.8,2.7-1.6
			c0-1.3-2-1.5-3.1-1.1c0,0-1.3,1-1.3,1c-0.1,0.2,0,0.5-0.1,0.7c0,0.1-0.3,0.1-0.3,0.1c0,0.1-0.2,0.9-0.1,1.1
			c0.2,0.6,0.6,0.2,1.1,0.5c0.1,0.1,0,0.1,0,0.3h-0.2v0.2h0.3c0,0.6,0.3,2.9,0.5,3.2c0,0.7-0.1,0.9-0.5,1.1v0.1
			c0.2-0.1,0.4-0.1,0.5-0.3c0.3,0.4,0.1,1,0.3,1.5c0.3,1,0.3,1.9,0.5,2.8c0.2,0.7-0.2,1.1,0.1,1.6v0.7c-0.7-0.2-1-1.2-1.4-1.7
			c-0.1-0.1-0.3-0.1-0.4-0.1c-0.2-0.2-0.3-0.6-0.6-0.7c-0.2-0.1-0.4-0.1-0.6-0.3c-0.2,0-0.4,0-0.5,0.1c0,0.6,0.2,1,0.4,1.3v0.1
			c-0.6,0-1.1-0.2-1.6-0.4c-0.7-0.2-1.7-0.2-2.1-0.4l-2.9-0.2c-0.7-0.2-2.2-0.5-2.6-0.3c-0.2,0-0.4,0-0.5,0.1c0,0.3,0,0.5,0.1,0.7
			c0.1,0,0.3,0.1,0.4,0.1c0.2,0,0.4,0,0.6-0.1c0.7,0.2,1.3,1,2,1.3c0.1,0.1,0,0,0.1,0.1c0.1-0.1,0,0,0.1-0.1c0-0.2-0.1-0.1,0-0.2
			c-0.1-0.3-0.1-0.3-0.3-0.4V363c-0.2,0-0.3,0-0.4-0.1c0-0.1,0-0.1-0.1-0.1v-0.1c2.3,0.1,4.3,0.5,6.2,1.1c0.5,0.2,1,0.1,1.5,0.3
			c0.5,0.2,0.6,1,1.2,1.2c-0.3,0.4-2.4,0.4-3,0.6c-2.2,0.5-4.9,0.6-7.2,1.2c-0.5,0-0.9,0.1-1.4,0.1c-1.5,0.5-3.2,0.4-5,0.8
			c-3.7,0.9-7.9,1.1-11.6,2.1c-0.6,0-1.2,0.1-1.8,0.1c-0.3,0.1-0.9,0.3-1.3,0.4H303c-1,0.3-2.4,0.5-3.4,0.7h-0.7
			c-2.1,0.5-4.7,0.8-6.7,1.3c-0.4,0-0.8,0-1.3,0.1c-1.7,0.5-5,1-7.1,0.6c-0.1,0.2-0.2,0.1-0.3,0.4c-0.1,0,0,0,0,0.1
			c0,0.4,0.1,0.4,0.2,0.6c3.9-0.2,8-0.7,11.2-1.6c0.6-0.2,1.1,0,1.7-0.1c1.4-0.4,3.1-0.6,4.4-1h0.9c0.5-0.2,1.2-0.3,1.8-0.4
			c0.4,0,0.7,0,1.1-0.1c0.2-0.1,0.6-0.3,0.7-0.3c1-0.2,2.2-0.1,3.3-0.4c1.1-0.3,2.5-0.4,3.5-0.7c0.9-0.2,1.6-0.1,2.4-0.3
			c0.7-0.2,1.4-0.2,2.2-0.4c0.7-0.2,1.3-0.5,2.1-0.4v-0.2c1.6,0,3.1-0.2,4.4-0.6h0.7c0.9-0.2,2-0.4,3-0.6c0.7-0.2,2.3-0.1,2.7-0.4
			h0.1c-0.1,0.2,0,0.1-0.1,0.2c0,0.5,0.2,0.4,0.4,0.7h0.2c0.1-0.4,0.3-0.5,0.1-0.8c0.2-0.3,0.7-0.2,1.2-0.3c1.2-0.3,2.7-0.7,3.8-0.6
			c0,0.2-0.1,0.3,0,0.5c0.1,0.2,0.2,0.2,0.4,0.3c0.1,0.1,0,0.1,0.1,0.2h0.2c0,0.5-0.2,0.8-0.3,1.3c-0.1,0.8,0.4,1.4,0.5,2.2
			c0.3,0.1,0.4,0,0.8-0.1c0-0.7,0-1.4-0.2-1.7v-1.4h0.1c0.2,0.4,0.3,0.8,0.4,1.2c0.6,0,1-0.2,1.1-0.6c2,0.1,5.1-1.2,6-2.6
			c0.2,0.1,0.1,0.2,0.2,0.4c0.4,0,0.5-0.1,0.7-0.4c-0.2-0.1-0.3-0.2-0.5-0.1H345v-0.1c0.6-0.3,0.9-0.9,1.4-1.1
			c0.5-0.2,1.3-0.1,1.8-0.4h0.3c-0.3,0.4-0.9,0.6-1.2,1c-0.2,0.3-0.2,0.7-0.3,0.9v0.2c0.5-0.1,0.8-0.5,1-0.8c0.1,0.1,0,0.1,0.1,0.2
			c0.3-0.2,0.1-0.3,0.3-0.6h0.1c0.1-0.1,1.4-1.1,1.6-1.2c0.3,0,0.6,0,1-0.1c1.6-0.6,4.1-0.9,5.9-1.5c1.1-0.4,3.5-0.4,4-1.1
			c0.3,0.2,0.5,0,1-0.1c0.4-0.1,1.2-0.3,1.8-0.4h0.5c2.9-1.2,5.9-1.6,8.7-2.7c0.5-0.2,1.3-0.4,1.7-0.5c0.1,0,0.3,0,0.4,0.1
			c0-0.1,0-0.1,0.1-0.2c0.3-0.2,0.8-0.1,1.2-0.3c0.6-0.3,1.4-0.6,2.1-0.9c0.2,0,0.5,0,0.7-0.1c3.3-1.3,6.8-2.6,10.1-4
			c2.4-1,5.7-2.4,7.1-4.3c1.2-1.6,1.9-4.4,1.6-6.7c0-0.3,0-0.6,0.1-1c0-0.1-0.2-0.4-0.1-0.5c0,0,0.1-0.2,0.1-0.4
			c-0.6-2.8-1.5-4.9-3.6-6.4c-0.2-0.1-0.2-0.4-0.3-0.5c-0.3-0.3-0.8-0.5-1.1-0.7c-0.1-0.1-0.1-0.2-0.2-0.4h-0.3
			c-0.2-0.1-0.4-0.4-0.6-0.5c-0.9-0.4-1.7-0.6-2.6-1c-0.5-0.2-1.1-0.6-1.6-0.8c-0.4-0.2-0.7-0.1-1.2-0.2c-0.9-0.3-2.1-0.7-3.2-1.1
			c-0.3-0.1-0.6,0-1-0.1l-0.3-0.3c-0.8-0.3-1.7-0.4-2.2-1c0,0-0.1,0-0.1,0.1c-0.3-0.2-0.7-0.4-1-0.6c-0.3-0.1-0.6-0.1-0.8-0.2
			c-0.8-0.5-1.7-1.1-2.6-1.6v-0.3c-0.5-0.1-0.8-0.5-1-0.8c-0.1-0.1-0.2-0.3-0.2-0.6h-0.3c0.1-0.4-0.1-0.9-0.4-1.2
			c0-0.2,0-0.4,0.1-0.6c0.1,0.1-0.1,0.1,0,0.3c0.1,0.2,0.4,0.3,0.6,0.5c0,0,0.1-0.1,0.1-0.1h0.1c-0.2-0.5-0.6-0.7-0.7-1.2
			c-0.4-2,1.6-4.5,2.4-5.7h0.3c0.1-0.7,0.7-0.9,1.2-1.3c0.2-0.2,0.3-0.4,0.5-0.6c0.6-0.4,1.1-0.8,1.7-1.2c1.9-1.4,4.2-2.6,6.4-3.7
			c0.4-0.2,0.7-0.2,1.2-0.4c0.9-0.4,2-1,2.9-1.4c1.6-0.6,2.6-0.9,4.1-1.6c2.4-1.1,5.1-2.1,7.7-3c0.3,0,0.6-0.1,1-0.1
			c1.1-0.4,2.3-0.8,3.4-1.3l0.2-0.2c0.1,0,0.2,0,0.3,0.1c0.4-0.1,0.9-0.2,1.4-0.4c0.7-0.2,1.4-0.5,2.2-0.8c0.3,0,0.7-0.1,1-0.1
			c1.5-0.6,3.1-0.8,4.6-1.3c0.3-0.1,0.7-0.2,1-0.2c0.1,0,0.3,0,0.4,0.1c0.1-0.1,0.4-0.3,0.6-0.4c1-0.3,1.9-0.2,2.9-0.5
			C422.7,294.9,425.3,294.6,427.4,294.1z M479.5,286.3c0.2-0.2,1-1.2,1.2-1.5h0.1c-0.3,0.6-0.4,1.4-0.3,2.1c-0.4,0-1.3-0.1-1.6,0.1
			h-0.3C478.8,286.7,479.2,286.5,479.5,286.3z M475.6,287.2C475.7,287.2,475.7,287.1,475.6,287.2l0.1-0.1c0,0.2,0,0.2-0.1,0.3
			L475.6,287.2L475.6,287.2z M336.2,350.3c0.2-0.1,0.7-0.3,1-0.1c0.5,0,0.6,0.1,0.9,0.2c-0.2,0.8-0.9,0.9-1.4,1.3
			c-0.5,0-0.4-0.2-0.7-0.3C336.1,351.2,336.1,350.6,336.2,350.3z M334.7,352.5h-0.2c0-0.2,0-0.1,0.1-0.2V352c0.2,0.1,0.1,0,0.1,0.1
			c0.1,0.1,0,0,0.1,0.1C334.7,352.4,334.8,352.3,334.7,352.5z M335.2,351.5c0-0.1,0-0.1,0.1-0.1
			C335.3,351.5,335.3,351.4,335.2,351.5z M335.2,351.3h-0.4v-0.2h0.3c0.1-0.1,0.1-0.2,0.2-0.3h0.1C335.3,351,335.2,351,335.2,351.3z
			 M340.4,365.2h0.1c-0.1,0.2,0,0.1-0.2,0.1L340.4,365.2z M338.9,366.1c-0.2,0-0.2-0.1-0.4,0c0,0,0,0-0.1,0.1c0.1,0,0.1,0.1,0.3,0.1
			c-0.1,0.4-0.2,0.5-0.3,1h-0.1l-0.4-0.4c-0.2-0.3-0.1-0.6-0.3-0.8c0.1-0.2,0.1-0.2,0.1-0.3c0.4,0,0.9,0,1.1-0.1h0.3
			C339.1,365.7,339,365.8,338.9,366.1z M342.6,365.4c0,0.2,0.1,0.4,0.2,0.5c-0.2,0.8-2.8,1.6-3.6,1.5c0.2-0.4,0.7-0.4,1-0.7
			c0.6-0.4,1-1.3,1.6-1.7c0.4-0.2,0.8,0,1.2-0.2h0.1C343,365.1,342.8,365.3,342.6,365.4z M344,363.9c-0.2,0.2-0.7,0.1-1,0.2h-0.1
			c0.2-0.4,0.7-0.8,1-1.2h0.1c0,0.1,0,0.1-0.1,0.1c0.1,0.2,0,0.1,0.2,0.1v-0.4c0.4-0.4,0.8-0.7,1.2-1.1h0.1
			C345.2,362.3,344.4,363.7,344,363.9z M345.4,363.6c0.1-0.3,0.4-0.6,0.6-0.9h0.1C346.1,363.1,345.8,363.5,345.4,363.6z
			 M313.3,374.6c-0.1,0.1-0.2,0.2-0.3,0.2v0.6c0.2,0.1,0.1,0,0.2,0.1c0.2,0,0.3,0,0.4-0.1c0-0.2,0-0.3,0.1-0.4
			C313.7,374.7,313.6,374.7,313.3,374.6z M322.7,373.5c0.2,0,0.2,0,0.3-0.1c0.1,0,0.1,0,0.2-0.1v-0.3h-0.4
			C322.7,373.2,322.7,373.4,322.7,373.5z M323.8,370.6c-0.4,0.1-0.6,0.3-0.7,0.7c0.4,0.1,0.6-0.1,1-0.1c0-0.2,0-0.2-0.1-0.3
			C324,370.7,323.9,370.7,323.8,370.6z M327.2,369.1c0,0.1,0,0.3-0.1,0.4c0.3,0.2,0.5,0.1,0.8-0.1c0-0.3-0.1-0.4-0.2-0.6
			C327.4,368.9,327.4,369,327.2,369.1z M329.5,369.8c-0.2,0-0.2,0.1-0.4,0.1c0,0.1,0,0.3-0.1,0.4c0.1,0.1,0.1,0,0.1,0.2
			c0.3,0,0.3-0.1,0.6-0.2C329.7,369.9,329.6,370,329.5,369.8z M332,348.1c1.2,0.1,1.7-0.5,2.4-1.2v-0.6c-0.1-0.1-0.2-0.3-0.3-0.4
			c-0.1-0.1-0.3-0.1-0.4-0.2c-0.8,0-1.4,0.3-1.7,0.8h-0.1c0-0.4,0.1-0.7,0.4-0.9c0-0.2,0-0.2-0.1-0.3v-0.1c-0.1,0-0.1,0-0.1,0.1
			c-0.3,0-0.4,0-0.5,0.1c-0.2,0.1-0.4,1-0.4,1.6c0.1,0.1,0.1,0.3,0.2,0.4C331.4,347.9,331.7,347.9,332,348.1z M332.9,346.5
			c0.3,0,0.4,0,0.6,0.1c0,0.1,0,0.1,0.1,0.3c-0.3,0.1-0.7,0.3-1,0.4c-0.3,0-0.3-0.1-0.5-0.2C332.3,346.9,332.6,346.7,332.9,346.5z
			 M331.8,368.1c-0.1,0-0.1,0-0.2,0.1c0,0.2,0,0.3-0.1,0.5c0.1,0,0.1,0,0.1,0.1c0.3,0,0.4-0.1,0.6-0.2h0.1c-0.1-0.2-0.1-0.2-0.1-0.4
			C331.9,368,331.9,368,331.8,368.1z M332.9,367.6c-0.4,0.1-0.5,0.5-0.5,1c0.2,0,0.2,0,0.3,0.1c0.2-0.1,0.3-0.2,0.5-0.4
			c0-0.1,0-0.1,0.1-0.1c0-0.2,0-0.3-0.1-0.4C333.1,367.7,332.9,367.7,332.9,367.6z M334.5,366.9c0-0.3-0.1-0.3-0.1-0.5
			c-0.7,0-0.6,0.4-0.7,0.9c0.2,0,0.3,0.1,0.4-0.1C334.3,367.1,334.3,367,334.5,366.9z M334.7,369.6c-0.4,0-0.4,0.1-0.6,0.2v0.6
			c0.4,0,0.6,0,0.8-0.1h0.1c0-0.2,0-0.2-0.1-0.3C334.9,369.7,334.8,369.7,334.7,369.6z M335.2,367.3c0-0.3,0-0.3-0.1-0.4v-0.1
			c-0.1,0-0.1,0-0.1,0.1c-0.5,0-0.6,0.3-0.7,0.6c0.3,0.2,0.7,0.3,1-0.1h0.1C335.3,367.3,335.3,367.4,335.2,367.3z M337.2,355.8
			c-0.1,0.1-0.2,0.3-0.3,0.4c0,0.4,0.1,0.7-0.1,1c0.1,0.1,0,0.4,0.1,0.6c0.2,0.5,0.8,0.6,1.1,0.9c1.1,0,1.6-0.6,1.9-1.3
			c0.1-0.1,0.1-0.6-0.1-0.8C339.8,355.7,338,355.2,337.2,355.8z M339.2,356.6c0,0.3,0,0.4-0.1,0.6c0,0.4-0.2,0.6-0.5,0.7
			c-0.1,0-0.2,0-0.4,0.1c-0.2-0.2-0.5-0.5-0.6-0.8c-0.1-0.4,0.1-0.4-0.1-0.7c0.1-0.2,0.2-0.2,0.3-0.4c0.2,0,0.4,0,0.5-0.1
			C338.9,356.1,338.9,356.3,339.2,356.6z M337.7,372.1c0,0.2,0,0.2-0.1,0.3c0,0.4,0.1,0.4,0.2,0.7c0.2,0,0.1,0,0.2-0.1
			c0.2-0.1,0.3-0.3,0.4-0.4c0-0.2-0.1-0.2-0.1-0.4C338.1,372.1,338.1,372.1,337.7,372.1z M339.9,376.2c-0.2,0-0.3,0-0.4,0.1
			c-0.2,0.2-0.1,0.3-0.2,0.6c0.1,0.1,0,0.1,0.1,0.2c0.2,0,0.6-0.1,0.7-0.2c0.1-0.1,0.1-0.2,0.1-0.2
			C340.1,376.3,340,376.4,339.9,376.2z M339.9,368.6c0,0.1-0.1,0.3-0.1,0.4c0.1,0.1,0.1,0.1,0.1,0.4c0.1,0,0.1,0,0.1,0.1
			c0.3-0.1,0.3-0.2,0.5-0.4c0-0.4-0.1-0.4-0.2-0.7C340.1,368.5,340,368.5,339.9,368.6z M342.8,369.7c0.2-0.2,0.4-0.5,0.4-0.7
			c0.1-0.1,0-0.2-0.1-0.3c0-0.1,0-0.1-0.1-0.2c-0.2,0-0.4,0-0.5,0.1c-0.1,0.2-0.3,0.7-0.4,1.2c0.1,0,0.1,0,0.2,0.1
			C342.5,369.8,342.6,369.8,342.8,369.7z M343.2,371.8c-0.5,0-0.5,0.2-0.7,0.4c0,0.1,0,0.3-0.1,0.4c0.4,0,0.4,0.1,0.6,0.3
			c0.3,0,0.3-0.1,0.4-0.1C343.4,372.3,343.3,372.2,343.2,371.8C343.3,371.8,343.2,371.8,343.2,371.8z M343.7,368
			c0.3,0.2,0.5,0.3,0.9,0.1c0-0.6-0.2-0.6-0.4-1C343.9,367.3,343.7,367.6,343.7,368z M346.5,367.6
			C346.6,367.6,346.6,367.6,346.5,367.6c0.3,0,0.5-0.1,0.7-0.2c0-0.2,0-0.3,0.1-0.5c-0.3-0.1-0.4-0.1-0.8-0.1
			C346.5,367.1,346.6,367.3,346.5,367.6z M350.7,367.5v-0.2c-0.3,0.1-0.2,0.2-0.5,0.2c0,0.2-0.1,0.3,0,0.5c0,0.1,0,0.1,0.1,0.2
			c0.2,0,0.3-0.1,0.4-0.1c0.2,0.1,0.2,0.2,0.2,0.4c0.2-0.1,0.3-0.2,0.4-0.4C351.2,367.8,350.9,367.6,350.7,367.5z M350.3,371.9v0.4
			c0.4,0.1,0.6-0.1,0.9-0.3c-0.1-0.3-0.1-0.3-0.3-0.5C350.5,371.6,350.5,371.7,350.3,371.9z M351.6,364.7c-0.1-0.3-0.2-0.2-0.4-0.4
			c-0.3,0.1-0.3,0.1-0.4,0.2v1.2c0.4,0.1,0.5-0.1,1-0.1v-0.1c-0.1,0-0.2,0-0.4-0.1C351.4,365.1,351.5,364.8,351.6,364.7z
			 M352.9,363.8c0,0.3,0,0.4,0,0.6c0.2,0.2,0.1,0.3,0.4,0.4v0.1c0.1,0,0.1,0,0.2-0.1c0-0.2,0.1-0.2,0.1-0.3c0-0.4,0-0.5-0.1-0.7
			H352.9z M355.1,372c-0.1,0-0.1,0-0.1-0.1c-0.3,0.1-0.3,0.2-0.5,0.3v0.4c0.4,0.1,0.6,0,1,0C355.4,372.4,355.2,372.2,355.1,372z
			 M356,373.9c-0.2,0-0.2,0-0.3,0.1c-0.3,0.1-0.4,0.3-0.4,0.6c0.1,0.1,0.1,0,0.1,0.2c0.3,0,0.6-0.1,0.9-0.1c0-0.1,0.1-0.2,0.1-0.2
			C356.4,374.1,356.2,374.1,356,373.9z M356.2,364.2c-0.1-0.3-0.2-0.3-0.3-0.5c-0.2,0-0.3,0-0.4,0.1c0,0.1,0,0.2-0.1,0.4
			c0.1,0.1,0.2,0.2,0.3,0.4C356.1,364.5,356.1,364.4,356.2,364.2z M357,366.7C356.9,366.7,356.9,366.7,357,366.7L357,366.7
			c-0.5,0-0.5,0.2-0.7,0.4c0,0.1,0,0.2,0.1,0.4c0.2,0.1,0.4,0,0.6,0.1c0.3,0,0.3-0.1,0.4-0.1V367h-0.2
			C357.1,366.8,357.1,366.9,357,366.7z M365,365.6c0,0.2,0,0.3,0.1,0.5c0.3,0,0.5-0.1,0.7-0.3c0,0,0.1,0,0.1-0.1
			c-0.1-0.2-0.1-0.3-0.1-0.6C365.1,365.1,365.3,365.3,365,365.6z M405.2,384.6c-0.1,0-0.2,0-0.4-0.1v-0.1c-0.1-0.1-0.5-0.4-0.6-0.4
			h-0.3c-0.1-0.1-0.1-0.3-0.1-0.4c-0.1-0.1-0.3,0-0.4-0.1c-0.2-0.1-0.1-0.3-0.4-0.4c0.1-0.5-0.1-0.6-0.6-0.7
			c-0.9,0.9-3.3,1.1-4.5,1.8c-2.8,1.6-6.2,2.3-9.2,3.7c-1.7,0.8-3.4,1.6-5.3,2.3c-0.6,0.2-0.9,0.5-1.6,0.5v-0.2c0,0,0,0-0.1,0.1
			c-0.1,0.1-0.1,0.1-0.1,0.4c-1.2,0.3-3,1.5-4,1.4v0.2c-0.7,0.3-1.4,0.8-2.1,1c-0.6,0.2-1,0.3-1.6,0.5c-0.3,0.1-1.1,0.8-1.4,0.6
			c-0.4,0-0.9,0.6-1.3,0.4c-0.3,0-0.3,0.1-0.5,0.1c0,0.1-0.2,0.5-0.1,0.6c0.1,0.3,0.6,0.4,0.9,0.6l0.4,0.4c0.8,0.4,1.9,0.3,2.6,0.7
			l1.1,1.1c-0.1,0.2-0.1,0.2-0.3,0.3c0,0.2,0,0.2,0.1,0.3c0,0.2,0,0.3,0.1,0.4c0.9,0,0.6-0.1,1.1-0.4c0.3-0.2,0.6-0.1,0.9-0.2
			c0.1-0.1,0.2-0.3,0.4-0.4c0.2,0,0.4-0.1,0.7-0.1c0.5-0.2,1-0.7,1.6-1c1.4-0.7,2.7-1.4,4.1-2.1c1-0.5,2-0.7,3-1.3
			c0.1-0.1,0.2-0.4,0.4-0.5c0,0,0.8-0.1,1-0.1c0.5-0.2,1.1-0.7,1.6-1c0.3-0.2,0.6-0.1,0.9-0.2c0.9-0.4,1.7-1,2.6-1.4
			c0.1,0,0.1,0,0.2,0.1c0.1-0.1,0.3-0.3,0.4-0.4c0.2,0,0.4,0,0.6-0.1c0.5-0.2,0.9-0.6,1.6-0.6c0-0.2,0-0.2,0.1-0.3
			c0.5-0.3,0.9,0,1.4-0.2c0.1-0.1,0.4-0.3,0.5-0.4c0.1,0,0.3,0,0.4-0.1c0.3-0.1,0.7-0.5,1-0.6c0.3-0.1,0.3,0.1,0.6-0.1
			c0.3-0.2,0.6-0.6,0.9-0.7c0.2-0.1,0.3,0.1,0.4,0.1c0.1,0,0.3-0.2,0.3-0.2h0.4c0.3-0.1,0.8-0.3,1.2-0.4c0.2-0.1,0.2-0.3,0.4-0.4
			c0.1,0.1,1.7-0.5,2.1-0.5C405.9,385.4,405.8,385,405.2,384.6z M404.5,385.5c-1.6,0.9-3.5,1.4-5.3,2.1c-0.4,0.2-0.8,0.6-1.3,0.8
			h-0.4c-0.5,0.2-1.2,0.6-1.8,0.7v0.2c-0.7,0-2.8,0.8-3.3,1.1c0,0.1,0,0.1-0.1,0.2c-0.1,0-0.2,0-0.3-0.1c-0.1,0.1-0.2,0.2-0.3,0.3
			c-0.2,0-0.4,0.1-0.7,0.1c-0.1,0.1-0.2,0.2-0.3,0.4c-0.2,0.1-0.4,0.1-0.6,0.1c-0.4,0.2-0.9,0.5-1.3,0.7h-0.4c0,0.1,0,0.1-0.1,0.2
			c-0.2,0-0.4,0-0.7,0.1c-0.8,0.3-1.9,1.6-2.9,1.3c0.1,0.2,0,0.2,0.1,0.3c-0.3,0.1-0.8,0.1-1,0.3v0.1c-0.1,0.1-0.5,0.4-0.6,0.4
			c-0.5,0.3-1,0.3-1.6,0.5c-0.3,0.1-0.6,0.5-0.8,0.6c-0.4,0.2-0.6,0.1-1,0.3c-0.3,0.2-0.6,0.5-1,0.7c-0.9,0.4-1.9,0.7-2.7,1.3
			c-0.2-0.1-0.1-0.3-0.2-0.5c-0.1-0.2-0.5-0.2-0.7-0.4c-0.5-0.3-0.5-0.7-1.3-0.9V396c-0.6,0.1-1.3,0.1-1.8-0.2h-0.1v-0.2
			c0.4-0.1,1.3-0.5,1.6-0.7c0.1-0.1,0.1-0.2,0.2-0.3c0.3,0,0.5,0,0.8-0.1c1.7-0.8,3.7-1.8,5.5-2.6c0.3-0.1,0.5,0,0.8-0.1
			c0.6-0.2,1.2-0.6,1.8-0.8c0.3-0.1,0.5,0,0.8-0.1c2.5-1.1,5.2-2.1,7.6-3.3c0.4-0.2,0.7-0.1,1.1-0.3c0.6-0.3,1.4-0.6,2-0.9
			c0.2-0.1,0.3,0,0.4,0c1.1-0.7,2.5-1,3.8-1.6c0.9-0.4,2-1.1,3.1-1.3c0,0.1,0,0.3-0.1,0.4c1.4,0,1.5,1.1,2.6,1.4L404.5,385.5
			L404.5,385.5z M376.6,311.4c-0.1,0-0.2,0-0.4-0.1v0.2c0.1,0,0.2,0,0.4,0.1V311.4z M391.8,390.3
			C391.8,390.4,391.8,390.4,391.8,390.3c0.3,0,0.2,0.1,0.2-0.1h-0.2L391.8,390.3L391.8,390.3z M400.6,338.3c0.2-0.1,0.2-0.1,0.3-0.2
			c-0.1-0.3-0.1-0.3-0.3-0.5c-0.2,0-0.2,0.1-0.4,0.1c0,0.1,0,0.2-0.1,0.4c0.1,0.1,0.2,0.1,0.2,0.3
			C400.5,338.3,400.5,338.3,400.6,338.3z M423,337.8c0.1,0.1,0.2,0.4,0.4,0.5c0.3,0.3,0.7,0.4,1,0.7c0.2,0.2,0.5,0.5,0.7,0.7
			c0.2,0.1,0.4,0.1,0.6,0.3c0.1,0.1,0.1,0.2,0.1,0.3c0.1,0,0.3,0.1,0.4,0.1c0.7,0.6,1.3,1.2,2.1,1.8l0.6,0.6c0.2,0.1,0.6,0,0.7,0.1
			c0.7-0.1,0.3-0.2,0.6-0.4c0.2-0.1,0.5,0,0.6-0.1c0.2-0.2,0.5-0.5,0.7-0.7c0-0.3,0-0.5,0.1-0.8c-0.5-0.1-0.4-0.4-0.7-0.7
			c-0.3-0.2-0.7-0.3-1-0.5c-0.4-0.3-0.7-0.8-1-1c-0.7-0.5-1.2-0.9-1.8-1.3c-0.5-0.3-0.9-1.1-1.4-1.5c-0.9-0.6-1.9-1.3-2.5-2.1
			c-0.1-0.1,0-0.2,0.2-0.3v-0.1c-0.2,0-0.1,0-0.2,0.1c-0.6-0.2-0.9-0.9-1.1-1.5c-0.5-1.2-1-1.5-0.4-3c0.1-0.4,0-0.6,0.2-0.8
			c-0.1-0.2-0.2-0.4-0.4-0.4c-0.2-0.1-2,0.1-2.1,0.2c-0.2-0.1-0.1,0-0.1-0.2c-0.2,0.2-0.6,0.4-0.8,0.6c-0.5,0.7-0.5,2.1-0.2,2.9v0.7
			c0.1,0.3,0.3,0.9,0.4,1.3c0.4,0.7,0.9,1.4,1.4,2.1c0.1,0.2,0.3,0.3,0.4,0.5c0.1,0.1,0,0.1,0.1,0.2c0.7,0.1,1.5,1.5,2,1.9
			C422.7,337.9,422.9,337.7,423,337.8z M422,335.8v-0.2h-0.2c-0.5-1-1.5-1.7-2.1-2.7c-0.4-0.6-0.4-1.6-0.7-2.2v-1.8
			c0.2,0.4,0.7-0.3,0.7-0.3c0.2-0.1,0.5,0,0.7-0.1h0.5c-0.2,0.4-0.5,1.8-0.2,2.5c0.1,0.2,0.4,0.4,0.4,0.6c0.1,0.3,0.1,0.6,0.3,0.9
			c0.1,0,0.1,0.1,0.2,0.1c0.1,0.2-0.1,0.2,0.1,0.5h0.3v0.3c0.7,0.6,1,1.6,1.8,2.1c1.3,1,2.5,2.1,3.8,3.1c0.2,0.2,0.3,0.6,0.5,0.7
			c0.4,0.3,0.9,0.3,1.3,0.7c0.4,0.4,0.7,0.7,1.1,1.1c0.1,0.1,0,0,0.1,0.1c-0.2,0.2-0.7,0.3-0.9,0.6c-1-0.3-1.6-1.3-2.4-1.9
			c-1.1-0.8-2.1-1.6-3.2-2.4C423.2,337.1,422.7,336.3,422,335.8z M438.2,313.1c0.3-0.1,0.6-0.2,1.1-0.2c0-0.2,0.1-0.4,0.2-0.5
			c-0.1-0.4-0.4-0.7-0.7-0.8c0-0.4,0-0.4,0-0.7c-0.5-0.1-1.5-0.1-2,0.1c0,0.1,0,0.1-0.1,0.2h-0.6c-0.5,0.1-1.3,0.2-1.8,0.4
			c-0.3,0.1-0.9,0.4-1.2,0.4c-1.4,0-3,0.9-4.2,1.4c-0.3,0.1-0.9,0.3-1.1,0.4h-0.4c-1.1,0.6-2.4,0.9-3.5,1.4c-0.1,0-0.4,0.2-0.5,0.3
			v0.1c-0.2,0.2-0.5,0.1-0.7,0.2c-0.1,0.1-0.1,0.2-0.2,0.3H422c-0.1,0.1-0.1,0.2-0.2,0.4h-0.3c-0.2,0.2-0.2,0.6-0.6,0.8
			c0,0.7,0.2,0.6,0.1,1c0.4,0.2,0.9,0.6,1.3,0.7h0.7c0,0,0.7,0.4,0.7,0.4c0.5,0,0.7-0.3,0.6-0.7c0.1-0.1,0.3-0.1,0.4-0.2
			c0.1-0.2,0.2-0.3,0.3-0.5c0.3-0.4,0.9-0.5,1.3-0.8l0.6-0.6c0.5-0.3,1.1-0.5,1.7-0.5c0.4-0.2,0.9-0.3,1.3-0.5c0.6-0.3,1.4-0.8,2-1
			c0.2,0,0.5,0,0.7-0.1c0.1-0.1,0.1-0.2,0.2-0.3c0.1,0,0.1,0.1,0.3,0.1c0.2-0.1,0.8-0.2,1-0.4c0.3,0,0.4,0.1,0.6,0.4h0.1
			c-0.1-0.2-0.1-0.2-0.2-0.4c0.5-0.3,1.1-0.5,1.7-0.7C437.2,313,437.6,313.2,438.2,313.1z M426.5,315h0.1v0.1L426.5,315L426.5,315z
			 M431.9,313.9c-0.4,0.1-0.7,0.1-1,0.2c-0.6,0.3-1.3,0.8-1.9,1c-0.4,0.2-0.7,0-1.1,0.2c-0.4,0.2-0.9,0.5-1.3,0.7
			c-1,0.6-2.3,1.1-2.7,2.3c-0.4,0-1.2-0.2-1.4-0.4c-0.4,0-0.4-0.1-0.7-0.2c0.2-0.5,1.2-1.4,1.6-1.6h0.4c0.2-0.1,0.4-0.4,0.6-0.5
			c0.1,0,0.3,0,0.4-0.1h0.1c0-0.1,0-0.2,0.1-0.3h0.2c-0.1,0.2,0,0.1-0.1,0.1v0.2c0.3-0.1,0.4-0.3,0.7-0.4c0,0,0,0,0.1,0.1
			c0.1,0.1,0.7-0.1,0.9-0.1h0.1c0-0.1,0-0.2-0.1-0.4c0,0,0,0,0.1-0.1c0.5,0.1,0.8,0.4,1.3-0.1c0.1-0.2,0.1-0.1-0.1-0.2v-0.1
			c0.3,0,0.2-0.1,0.4,0.1c0.6-0.1,0.2-0.2,0.5-0.4h0.4c0.2-0.1,0.4-0.4,0.5-0.4c0.4-0.2,0.8-0.1,1.1-0.2l0.1-0.1v0.1h0.5v-0.1
			c-0.1,0-0.3-0.1-0.5-0.1v-0.1c0.6-0.2,1.2-0.4,1.8-0.6c0.2,0,0.4,0,0.6,0.1v-0.1c0.1,0,0.3-0.1,0.3-0.1c0.1,0,0.2,0,0.4,0.1
			c0.5-0.1,1-0.3,1.5-0.5c0.6-0.2,1.2-0.1,1.6-0.4c0.5,0,0.6,0.1,0.9,0.2c0,0.2,0,0.2-0.1,0.3c-0.6,0.4-1.9,0.3-2.7,0.6
			C434.4,313.1,433.2,313.5,431.9,313.9z M434.8,370.7h0.4c0.3-0.2,0.7-0.6,1-0.7c0.2-0.1,0.4,0,0.6-0.1c0.6-0.4,1.2-1,1.8-1.3
			c0.3-0.1,0.5-0.1,0.7-0.2c0.4-0.3,0.3-0.8,1-0.8c0-0.5,1.7-1.8,2.1-2.4c1.7-2.3,3.7-5.3,1.8-8.2c-0.2-0.3-0.2-0.6-0.4-0.8
			c-0.1-0.1-0.2-0.1-0.4-0.2c-0.2-0.4,0.1-0.6-0.4-0.7c-0.4-0.2-0.7,0.3-0.9,0.4c-0.3,0-0.6,0.1-0.9,0.1c-0.4,0.2-0.6,0.4-1.1,0.5
			v-0.4c-0.2,0.1-0.4,0.2-0.5,0.3l-0.2,0.2c0,0.6,0.3,1,0.4,1.6c0.3,1.3-1.4,3.5-2.1,4v0.3c-0.1,0-1.2,0.7-1.3,0.8
			c-0.1,0.1,0,0.3-0.1,0.4c-0.1,0-0.3,0-0.4,0.1c-0.1,0.1-0.1,0.3-0.1,0.4c-0.1,0-0.3,0.1-0.4,0.1c-0.5,0.3-0.9,0.9-1.3,1.3
			c-0.2,0.1-0.4,0.1-0.6,0.2c-0.5,0.4-1.1,0.9-1.6,1.2c-0.5,0.3-0.9,0.3-1.4,0.6c-1.1,0.6-2.3,1.3-3.2,2.1c0,0-0.5-0.1-0.7,0
			c-0.2,0.1-0.5,0.2-0.8,0.3c-0.3,0.1-0.6,0.5-0.9,0.6c-0.1,0-0.3,0-0.4,0.1c0,0.1,0,0.2-0.1,0.3H424c-0.4,0.1-0.9,0.4-1.3,0.5
			c0,0.9,0.3,1,1,1.4c0,0.1,0,0.1,0.1,0.2c0.4,0.5,0.7,0.5,1,1.2h0.1c0-0.2-0.1-0.2-0.1-0.3v-0.1c0.6,0.1,1,0.7,1.6,0.9
			c1,0.4,1.7-0.7,2.4-0.6c0.2,0,0.3-0.2,0.6-0.3c0.2,0,0.5,0,0.7-0.1c0.4-0.1,0.8-0.5,1.1-0.7c1-0.4,1.9-0.8,2.8-1.3
			C434.2,371.3,434.5,370.8,434.8,370.7z M426.8,373.5c-0.4-0.4-0.8-0.4-1.4-0.7c-0.5-0.2-1-0.7-1.4-1.1c-0.1-0.1,0-0.1-0.1-0.2
			c0.9-0.1,1.6-0.8,2.2-1.1c0.3-0.1,0.9-0.2,1.1-0.1c0.9-0.5,2-1,2.9-1.6c0.3-0.2,0.7-0.7,1-0.8c0.1,0,0.2,0,0.4,0.1
			c0.1,0,0.8-0.3,1-0.4l0.6-0.6c0.4-0.3,0.8-0.4,1.2-0.7c0.2-0.2,0.3-0.4,0.5-0.6h0.4c0.3-0.1,0.5-0.5,0.7-0.7h0.2
			c0.3-0.2,1.1-0.8,1.3-1.1c0.1-0.1,0.2-0.4,0.3-0.4c0.2-0.2,0.5-0.2,0.7-0.4c0.3-0.4,0.7-1,1.2-1c-0.1-0.5,0.2-0.6,0.4-1
			c0.1-0.3,0.1-0.6,0.2-0.8c0.5-0.9,0.8-1.4,0.6-2.6c0-0.3,0.1-0.6,0-0.7c0.2-0.2,0.5-0.1,0.7-0.2c0.3-0.1,0.6-0.4,0.9-0.6
			c0.6,0.2,1.5,2,1.7,2.7c0,0.2-0.1,1.5-0.2,1.8c-0.1,0.3-0.3,0.5-0.4,0.7c-0.2,0.4-0.1,0.9-0.4,1.3c-0.6,1-1.6,1.8-2.3,2.9
			c-0.4,0.6-1.3,0.8-1.6,1.5h-0.2c-0.1,0.4-0.3,0.6-0.7,0.6v0.2c-0.9,0.2-1.2,1-1.9,1.3C433.1,370.4,430.7,372.9,426.8,373.5z
			 M424.8,315.7v0.2c0.1,0,0.1,0,0.1-0.1h0.1C425,315.7,425.1,315.8,424.8,315.7z M429.7,313.9v0.2c0.3,0,0.7-0.1,0.9-0.3h0.1v-0.1
			c0,0,0,0-0.1-0.1C430.2,313.7,430.2,313.9,429.7,313.9z M432.9,313h0.2v-0.2h-0.2V313z M547.1,306.4c-0.9,0-2-0.3-2.7-0.1
			c-0.9,0.1-2.4,0.2-3.5,0.1c-0.5-0.1-1.2-0.5-1.8-0.3c-0.3,0.1-0.6,0.2-0.9,0.3c-0.7,0.1-2.7-0.1-3.1,0.1c-0.5,0-1.9,0.2-2.1-0.1
			c-0.1-0.2,0.1-0.8,0.3-1c0-0.5-0.1-0.6-0.2-0.9c-1,0-0.7,1.1-1,1.7c-0.2,0.2-0.3,0.3-0.5,0.5c-0.4,0-1.1,0.1-1.3,0h-0.1
			c0.1-1.6,0.5-3.2,0.2-4.7c-0.2,0-0.4-0.1-0.6,0c-0.7,0.4-0.2,1.8-0.6,2.5v1.9c-0.2,0-0.3,0.1-0.4,0.1h-0.6
			c-0.2-1.1-0.4-2.2-0.7-3.3c-0.1-0.5,0.2-0.7,0.1-1c-0.1-0.2-0.5-1-0.3-1.3c0.1-0.1,0.1,0.1,0.2-0.3h-0.3c0-0.5-0.1-0.6-0.2-0.9
			c-0.3,0-0.4,0-0.6,0.1c0,0.9-0.2,2.1,0.1,3c0.1,0.5,0.3,1.2,0.4,1.7c0.1,0.7,0.4,1.6,0.1,2.1c-0.2,0.5-0.9,0.2-1.5,0.3
			c-1.1,0.3-2.4,0.1-3.5,0.4c-0.9,0.2-2.3,0.1-3.4,0.4h-1.2c-2,0.5-4.7,0.6-6.7,1c-1.3,0.3-2.6,0-3.9,0.4c-0.7,0.2-1.7,0.2-2.4,0.4
			c-0.5,0.2-1.2,0-1.6,0.1c-2.4,0.6-5.5,0.8-7.7,1.3c-0.3,0.1-0.5,0-0.7,0c-0.6,0.1-1.4,0.3-2,0.4H492c-2.8,0.9-6.6,1.1-9.4,1.9
			c-0.7,0.2-1.2,0.1-1.9,0.3c-1.6,0.5-3.5,0.9-5,1.4c-0.6,0.2-1.3,0.1-1.8,0.2c-0.9,0.3-2,0.7-2.9,1c-0.5,0.2-1,0.1-1.5,0.3
			c-0.6,0.2-1.3,0.5-1.8,0.7c-0.2,0-0.4,0-0.6,0.1c-0.1,0-0.3,0.3-0.4,0.3c-0.1,0-0.2,0-0.4-0.1c-0.3,0.1-0.7,0.3-1,0.4
			c-1.3,0.4-2.4,0.7-3.6,1.3c-0.5,0.2-1.1,0.6-1.7,0.9c-1.1,0.5-2.4,0.9-3.3,1.6c-0.3-0.1-0.3-0.1-0.4-0.3c-0.3,0-0.3,0.1-0.5,0.2
			c0,0.2,0,0.5,0,0.5c-0.3,0.7-1.5,0.8-2,1.4c-0.2-0.1-0.3-0.1-0.4-0.3c-0.2,0-0.5,0-0.6,0.1h-0.1c0,0.4,0.2,0.5,0.3,0.8
			c-0.7,0.4-1.6,0.9-2.1,1.5c-0.3,0.3-0.4,0.7-0.8,0.8c-0.2,0.1-0.4-0.1-0.7-0.1c0,0.3,0,0.5,0.1,0.7c-0.1,0.2-0.2,0.3-0.4,0.4
			c0,0-0.3-0.3-0.4-0.4c-0.3,0-0.3,0.1-0.5,0.2c0,0.3-0.1,0.3,0.1,0.4c0.1,0.2,0.1,0.2,0.4,0.2c-0.3,0.8-1.1,1.2-1.3,2.1
			c-0.1,0-0.1,0-0.1,0.1c-0.2-0.3,0-0.8-0.2-1.3c-0.2-0.3-0.6-0.5-0.8-0.7c-1.5,0-1.5,3-0.8,3.9v0.4c0,0,0,0-0.1-0.1
			c-0.7-0.3-1.1-2.5-1.4-3.4c-0.3-1.1-0.8-2.2-1.2-3.4c-0.3-0.9-0.2-2.1-0.6-2.9c-0.1-0.2-0.4-0.6-0.5-0.8c0-0.2-0.1-0.4-0.1-0.7
			c-0.1-0.2-0.3-0.1-0.4-0.4c-0.3,0-0.3,0.1-0.5,0.1c0,1,0.4,3.1,0.9,3.9c-0.1,0.1-0.1,0.2-0.2,0.3c0.1,0.1,0.2,0.1,0.3,0.1
			c0.2,0.3,0.3,0.9,0.4,1.2c0.3,0.7,0.3,1.7,0.7,2.4c0.1,0.2,0.4,0.5,0.5,0.7c0.4,0.8,0.4,1.7,1,2.3v0.2c-0.2-0.1-0.5-0.2-0.7-0.2
			c-0.5-0.1-0.8,0.1-1.3,0.1c-0.1,0.1-0.1,0.1-0.1,0.3c-0.1,0.1,0,0.1,0.1,0.2c0.1,0.2,0.8,0.7,1.1,0.7c0.2,0,0.7-0.1,1,0
			c0.3,0,0.6,0,0.7,0.1c0.2,0.7,1,2.4,0.5,3.1v0.2c0.2,0,0.2-0.1,0.4,0c0.4,0,0.6-0.2,0.7-0.6c0.4,0.2,0.7,0.8,1,1.1
			c0.2,0.1,0.4,0.1,0.5,0.3c0.1,0.1,0,0.3,0.1,0.4c0.2,0.2,0.5,0.1,0.7,0.3c0.8,0.5,1.6,1,2.4,1.4c0.2,0.1,0.9,0.1,1,0.1
			c0,0.1,0,0.1,0.1,0.2h0.6c0.4,0.1,1.1,0.4,1.6,0.5h0.5c1.9,0.6,4,0.6,6.1,1c0.4,0.1,1.2-0.1,1.8,0.1c2.1,0.5,4.4,0.8,6.4,1.6
			c0.7,0.3,1.5,0.8,2.1,1.2c0.2,0,0.4,0.1,0.7,0.1c0.3,0.2,0.5,0.6,0.8,0.7c0.5,0.3,1,0.5,1.4,0.9c0.2,0.2,0.4,0.5,0.6,0.7
			c0.9,0.7,2.5,2,2.9,3.1c0.1,0.1,0,0.2-0.1,0.4v0.1c0.3,0,0.3,0,0.4-0.2c0.6,0.5,0.9,1.3,1.3,1.9c0.5,0.7,1.2,1.4,1.6,2.1
			c0.3,0.6,0.9,1.6,0.4,2v0.1c0.2-0.1,0.3-0.1,0.5-0.1c0.1,0.6,0.5,1.1,0.7,1.6c0.3,0.6,0.3,1.4,0.6,2.1c0.1,0.3,0.4,0.7,0.5,1
			c0.8,2.4,0.4,6.3-0.4,8.1c-1.6,3.5-4.5,7.3-7.4,9.5c-0.3,0.2-0.4,0.7-0.7,0.9c-1.4,1.1-2.7,2.4-4.1,3.5c-0.5,0.4-0.9,1-1.4,1.3
			c-1.8,1.3-3.5,2.7-5.3,4c-0.5,0.4-0.9,0.9-1.4,1.3c-3.8,2.8-7.7,5.5-11.7,8.1c-1.1,0.7-2.2,1.2-3.3,1.8c-3.4,2-6.8,4-10.6,5.6
			c-0.8,0.4-2.4,1.4-3.3,1.6c0-0.2,0-0.2-0.1-0.3c-0.1-0.1-0.1,0-0.2-0.1c0,0.2,0,0.3,0.1,0.4c-0.1,0.2-0.3,0.2-0.6,0.2
			c-0.2,0.4-0.2,0.6-0.1,1.1c0.8-0.1,1.4-0.7,2-1c1.3-0.7,2.7-1.1,3.9-1.8c0.7-0.4,1.5-0.5,2.1-1c1.6-1,3.3-1.8,5-2.7
			c2.7-1.4,5.2-3.3,7.7-4.9c2.1-1.3,4-2.6,6.1-3.9c0.3-0.2,0.5-0.5,0.7-0.7c0.7-0.6,1.5-1,2.2-1.5c1-0.6,1.8-1.6,2.7-2.2
			c0.9-0.6,1.6-1.3,2.4-1.9c0.4-0.3,1-0.5,1.4-0.9c1-0.9,2-1.9,3.2-2.7c0.1-0.2,0.3-0.3,0.4-0.5c2-1.5,4-3.2,5.5-5.2
			c0.3-0.3,0.6-0.5,0.9-0.8c1-1.3,2.3-2.5,3.1-4c1-1.7,1.7-3.5,2.3-5.7c0.2-0.6,0.2-2.3,0.1-2.7c0-0.1-0.2-0.3-0.1-0.5
			c0.1-1.4-0.6-3.1-1-4.4c0-0.1,0-0.1,0.1-0.2c-0.3-0.9-1-1.8-1.3-2.7c0-0.1,0-0.2,0.1-0.4c-0.1-0.2-0.6-0.7-0.7-0.9
			c-0.4-0.6-0.4-1.2-0.8-1.7c-0.1-0.1-0.3-0.2-0.4-0.4c0-0.1,0-0.1,0.1-0.2c-0.1-0.3-0.5-0.5-0.7-0.7v-0.2c-0.1-0.1-0.3-0.1-0.4-0.1
			c-0.4-0.4-0.5-1-0.8-1.5c-0.4-0.6-1-1.3-1.6-1.8c-0.2-0.2-0.4-0.3-0.7-0.5c-0.2-0.3-0.4-0.7-0.7-0.9c-0.5-0.4-1-0.9-1.5-1.3
			c-0.3-0.2-0.7-0.3-1-0.6c-0.1-0.1,0-0.1-0.1-0.2c-0.6-0.1-1-0.7-1.5-0.9c-1.2-0.5-2.4-1.1-3.6-1.6c-0.2,0-0.5,0-0.7-0.1
			c-1.1-0.3-2.1-0.5-3.2-0.8c-0.4-0.1-0.5,0-0.8-0.1c-0.2-0.1-0.1-0.1-0.3-0.1v-0.4H463v0.5c-1.3-0.2-2.2-0.2-3.2-0.4
			c-0.4-0.1-0.7,0.1-1,0c-0.1,0-0.2-0.1-0.4-0.1h-0.7c0,0,0-0.1-0.1-0.1c-0.6-0.2-1.6,0-2.3-0.2c-1.3-0.4-2.9-0.7-4.2-1.2
			c-0.4-0.1-0.5-0.4-1-0.5c0-0.1,0-0.1-0.1-0.1c0.1-0.1,0.2-0.1,0.4-0.1v-0.1c-0.2-0.1-0.6,0.1-0.8,0.1c-0.5-0.2-0.8-0.7-1.2-1
			c-0.1,0-0.2,0-0.4-0.1c-0.1-0.1-0.1-0.4-0.3-0.5c-0.1-0.1-0.4-0.1-0.5-0.2c0-0.1,0-0.1,0.1-0.2c-0.1-0.2-0.4-0.4-0.5-0.6v-0.1
			c0.6,0.4,0.6,0.6,1.4,0.5c0-0.2,0-0.1,0.1-0.2c-0.1-0.2-0.7-0.5-0.9-0.6c0.1-0.3,0.2-0.3,0.3-0.5c0.3,0,0.9,0.1,1.1,0.2
			c0.5,0,0.7,0,0.7-0.5c0,0,0,0,0.1-0.1c0.2,0,0.1,0,0.2,0.1h0.2c-0.1-0.2-0.2-0.3-0.4-0.4c0-0.3,0.9-1.9,1-2.1c0-0.1,0-0.1-0.1-0.2
			c-0.2-0.1-0.3-0.2-0.5-0.2c-0.4,0.4-0.9,1.2-1.3,1.6c-0.3,0.2-0.7,0.4-1,0.7c-0.2,0-0.2,0.1-0.3,0c-0.6,0-0.6-0.8-0.4-1.3
			c0.2-0.4,0.6-0.8,0.8-1.1c0.1-0.2,0-0.5,0.1-0.8c0.3-0.8,1.2-1.3,1.6-1.9c0.1-0.1,0.1-0.3,0.1-0.4c0.2-0.2,0.6-0.4,0.7-0.6
			c0.5-0.7,1.3-1.4,2-1.9c0.2-0.1,0.4-0.1,0.7-0.3c0.3-0.2,0.6-0.6,0.9-0.8c0.7-0.5,1.5-0.8,2.3-1.3c0.3-0.2,0.5-0.5,0.8-0.7
			c2.4-1.2,4.7-2.2,7.2-3.3c0.4-0.2,1-0.4,1.3-0.4c0.1,0,0.2,0,0.3,0.1c0.1,0,0.5-0.3,0.6-0.4h0.4c0.5-0.2,1.2-0.5,1.7-0.7
			c0.4-0.1,0.6,0,1-0.1c1.3-0.4,2.7-1,4-1.4c0.6-0.2,1.1,0,1.7-0.2c0.7-0.2,1.5-0.6,2.1-0.7c0.2-0.1,0.5,0.2,0.5,0.1
			c0.8-0.6,1.6-0.4,2.6-0.7c1.9-0.6,4.2-0.9,6.1-1.4c0.8-0.2,1.5,0,2.3-0.2c1.6-0.5,3.7-0.6,5.3-1.2c0.5,0,0.9,0,1.4-0.1
			c1.1-0.3,2.4-0.4,3.3-0.7c0.9,0.2,3.6-0.5,4.7-0.7c1.3-0.2,3.2-0.3,4.6-0.6c0.6,0,1.3,0,1.9-0.1c0.1-0.1,0.2-0.2,0.3-0.3
			c0.2,0,0.5,0.2,0.8,0.1c2.3-0.6,4.9-0.5,7.3-1c0.6-0.1,1,0.2,1.5,0.1c0.7-0.2,1.8-0.2,2.5-0.4h0.7c1.2-0.3,2.7-0.5,4.1-0.4
			c0,0.7-0.7,2-0.5,2.3c0,0.3,0,0.4,0.1,0.6c0.2,0,0.5,0,0.7-0.1c0.1-0.4,0.2-0.6,0.2-1.2c0.3,0.1,0.6,0.2,0.8,0
			c0.2-0.1,0.4-0.6,0.5-0.9c0.2,0.1,0.3,0.3,0.4,0.4c1,0,1-0.6,1.6-0.8c0.2-0.1,1.1,0.2,1.3,0.1c0.8-0.1,0.3-0.7,1-0.9
			c0.9-0.2,1.9,0.1,2.7,0c1.9-0.3,4.1-0.1,6.1-0.1h2.6c0.4,0.1,1.3,0.3,1.9,0.1c0.2,0,0.3-0.2,0.4-0.3
			C547.4,306.6,547.3,306.6,547.1,306.4z M446.4,331.7c-0.1,0.3-0.2,0.7-0.3,1c-0.4-0.5-0.7-2.9-0.2-3.4c0.1-0.1,0.1,0,0.2-0.1
			c0.1,0.3,0.2,0.3,0.3,0.5C446.3,330.2,446.5,331.2,446.4,331.7z M528.4,308v-0.2c0,0,0.1-0.1,0.1-0.1h0.1
			C528.6,308,528.6,308,528.4,308z M444.1,325c-0.1,0.1-0.1,0.2-0.1,0.4c0.1,0.1,0.2,0.2,0.2,0.3c0.1,0,0.3,0,0.4-0.1
			c0.1-0.1,0.1-0.2,0.2-0.3v-0.1c-0.2-0.1-0.2-0.2-0.4-0.3c-0.1-0.1,0,0-0.1-0.1C444.2,324.9,444.2,324.9,444.1,325z M447.3,327.4
			c0.4-0.1,0.6-0.3,0.9-0.4c-0.1-0.3-0.1-0.3-0.2-0.5c-0.4,0-0.4,0.1-0.7,0.3C447.3,327.1,447.3,327,447.3,327.4z M449.5,325.3
			c-0.4,0-0.4,0.1-0.5,0.4c0.2,0.1,0.2,0.2,0.3,0.4c0.2,0,0.1,0,0.2-0.1c0.3-0.1,0.2-0.2,0.3-0.4c0-0.2,0-0.1-0.1-0.2
			C449.6,325.4,449.5,325.3,449.5,325.3z M450.7,320.3c-0.4,0-0.5-0.1-1-0.1c-0.1,0.1-0.2,0.2-0.3,0.2c0,0.5,0.1,0.4,0.3,0.7
			c0.3-0.1,0.6-0.2,1-0.3C450.7,320.6,450.7,320.5,450.7,320.3z M450.6,324.9c0.4,0,0.3-0.1,0.5-0.3c-0.1-0.4-0.2-0.4-0.4-0.6
			c-0.4,0-0.4,0.1-0.6,0.3v0.4c0.1,0.1,0.2,0.2,0.2,0.3C450.5,324.9,450.5,324.9,450.6,324.9z M455.4,300.9c-0.4,0-0.5,0.1-0.7,0.2
			v0.4c0.1,0.1,0,0,0.1,0.1c0.2,0,0.1,0,0.2,0.1c0.4,0,0.5-0.2,0.8-0.4C455.7,301,455.6,301.1,455.4,300.9z M454.9,318.7
			C454.9,318.7,454.9,318.7,454.9,318.7c-0.1,0.5,0,0.6,0.1,0.8c0.3,0,0.3-0.1,0.6-0.1c0-0.2,0-0.3-0.1-0.4
			C455.5,318.8,455.2,318.8,454.9,318.7z M459.8,320c0.3-0.1,0.4-0.2,0.6-0.4v-0.4c-0.2,0-0.5-0.1-0.7-0.1c-0.1,0.4-0.1,0.3-0.1,0.7
			C459.7,319.9,459.8,319.9,459.8,320z M460.6,299.2c0-0.3-0.1-0.3-0.1-0.4c-0.3,0-0.5,0-0.7,0.1c-0.1,0.1-0.2,0.2-0.3,0.3v0.5
			l0.4,0.4c0.2,0,0.4-0.1,0.5-0.1C460.5,299.9,460.3,299.5,460.6,299.2z M459.9,307.4c0.2,0,0.2-0.1,0.3-0.1h0.1v-0.1
			c-0.1,0-0.1,0-0.1,0.1C459.9,307.3,460,307.2,459.9,307.4z M460,318.5c0.1,0.1,0.1,0.1,0.1,0.3c0.1,0,0.1,0,0.1,0.1
			c0.4,0,0.5-0.1,0.7-0.3C461,317.8,460.2,318,460,318.5z M468.5,305.6h0.1v-0.3c0.7-0.1,1.7-0.3,2.5-0.4c0.2,0,0.4,0,0.6,0.1
			c1.1-0.2,2.1-0.3,3.2-0.5c0.2,0,0.3,0,0.5,0.1c0.4-0.1,1.3-0.3,1.7-0.4c0.2,0,0.8,0.2,1.1,0.1c0.3-0.1,0.6-0.4,0.9-0.5
			c0-0.8-0.3-1.6-0.6-2.1c-1.7-0.1-4.4,0.6-6.1,1h-0.9c-1.5,0.4-3.1,0.3-4.5,0.6c-1.3,0.3-2.5,0.2-3.7,0.4c-0.3,0.1-0.6,0-0.7,0.1
			c-0.5,0-0.5,0.1-0.7,0.3c0,0.5,0.2,0.3,0.4,0.6c0.6,0,1.4-0.3,1.8-0.4c0.2-0.1,0.8,0.1,1.3,0c0,0,0.2-0.1,0.3-0.1
			c0.2,0,0.3,0,0.5,0.1c0.3-0.1,1.1-0.4,1.4-0.4c1.3,0,3-0.1,4.2-0.4h1c0.9-0.2,1.8-0.3,2.5-0.5c0.7-0.2,1.7-0.1,2.2-0.4
			c0.3,0.1,0.3,0.4,0.5,0.7v0.2c-1.4,0.3-2.9,0.5-4.5,0.7c-0.2,0-0.4-0.1-0.7-0.1c-3.6,0.8-7.4,1.1-10.8,1.8v-0.1
			c-0.1-0.1,0-0.4,0.1-0.6c0-0.5-0.2-0.4-0.4-0.7c-0.2,0-0.2,0-0.3,0.1c-0.7,0.4-0.2,2-1.1,2.6v0.1c0.3-0.1,0.5-0.4,0.8-0.5
			c0.6,0.2,0.2,0,0.7-0.1c0.2,0,0.3,0,0.5,0.1v-0.1c0.3-0.1,1.2-0.2,1.3-0.1c1-0.3,2.6-0.4,3.6-0.7
			C467.9,305.4,468.4,305.3,468.5,305.6z M468.2,290.7c-0.1-0.1-0.2-0.1-0.3-0.2c-0.3,0-0.4,0-0.5,0.1l-0.1,0.1v0.4
			c0.1,0.1,0.3,0.1,0.4,0.2C467.9,291.3,468.1,291,468.2,290.7z M467.5,314.5c-0.1,0-0.1,0-0.2,0.1v0.4c0.1,0.1,0.2,0.2,0.3,0.4
			c0.3,0,0.3-0.1,0.5-0.2v-0.5C467.9,314.6,467.7,314.4,467.5,314.5z M471.4,289.3c0-0.2,0-0.1-0.1-0.2c-0.1-0.2-0.3-0.2-0.5-0.3
			l-0.4,0.4v0.3c0.1,0.1,0.1,0.1,0.1,0.2C471.2,289.7,471.2,289.6,471.4,289.3z M473.7,290.1c0.1-0.2-0.1-0.4-0.2-0.6
			c-0.3,0-0.4,0.1-0.6,0.1c0,0.2,0,0.3-0.1,0.5c0.2,0.1,0.3,0.1,0.4,0.2c0.2,0,0.1,0,0.2-0.1C473.6,290.2,473.6,290.3,473.7,290.1z
			 M475.2,289.5c-0.1-0.3-0.2-0.3-0.3-0.5c-0.3,0-0.3,0.1-0.4,0.1v0.6C474.9,290,474.9,289.8,475.2,289.5z M476.5,289.2
			c-0.2,0-0.3,0-0.4,0.1c-0.1,0.2-0.2,0.4-0.1,0.7c0.2,0.1,0.3,0.2,0.5,0.1c0.2-0.1,0.2-0.2,0.4-0.3c0-0.2-0.1-0.3-0.1-0.4
			C476.6,289.2,476.6,289.2,476.5,289.2z M476.2,293.4c0,0.2,0,0.3-0.1,0.4c0,0.2,0,0.3,0.1,0.4c0.4,0,0.6-0.1,0.9-0.1
			c0.1-0.3,0-0.4,0-0.7c-0.3,0-0.6,0-0.7,0.1L476.2,293.4L476.2,293.4z M477.6,279.9c0.2-0.2,0.9-0.8,1.2-1c0-0.8-0.2-0.8-0.5-1.1
			c-0.5,0-0.9,0.3-1.1,0.1c-0.5,0-0.5,0.1-0.8,0.3c-0.1,0.3-0.2,0.5-0.1,1c0.2,0.2,0.3,0.4,0.4,0.7
			C476.9,279.9,477.2,279.9,477.6,279.9z M476.8,278.8c0.3,0,0.4,0,0.5-0.1h0.2c0,0.1,0,0.1-0.1,0.2c-0.2,0.1-0.4,0.2-0.7,0.1
			L476.8,278.8L476.8,278.8z M478.8,291.4c0-0.2,0-0.1-0.1-0.2c-0.1-0.1-0.3-0.2-0.5-0.1c-0.2,0.1-0.2,0.1-0.4,0.2
			c0,0.2,0,0.3,0.1,0.5c0.4,0,0.5-0.2,0.8-0.3C478.8,291.4,478.8,291.5,478.8,291.4z M481.2,293v0.4c0.1,0.1,0.1,0,0.1,0.2
			c0.2,0,0.1,0,0.2-0.1h0.5c0.1-0.3,0-0.4,0.1-0.7c-0.1-0.1-0.2-0.1-0.3-0.2C481.4,292.7,481.4,292.9,481.2,293z M481.6,278.4
			c0.1,0.1,0.3,0.2,0.4,0.3c0.9,0,2-0.6,2.2-1.3c0.1-0.1,0,0,0.1-0.1c-1-1.1-1.8-1.1-3.1-0.2v0.6
			C481.6,277.8,481.4,278.1,481.6,278.4z M482.7,277.1c0.2,0,0.4,0,0.5,0.1c0,0.1,0,0.1,0.1,0.2c0,0-0.1,0.1-0.1,0.1
			c-0.2,0-0.4,0-0.7-0.1C482.6,277.3,482.7,277.3,482.7,277.1z M482.3,309.5v0.4c0,0,0.1,0.1,0.1,0.1c0.1,0,0.2,0.1,0.3,0.1
			c0.4,0,0.3-0.2,0.5-0.4c0-0.4-0.1-0.3-0.2-0.5C482.7,309.3,482.5,309.4,482.3,309.5z M482.4,279.3c0,0.1,0,0.2-0.1,0.4
			c0.2,0.1,0.2,0.2,0.3,0.4c0.1,0.2-0.1,0.7,0.1,1c0.1,0.3,0.8,0.5,1.1,0.2c1,0,1.4-0.6,1.8-1.1c0-0.6-0.2-0.7-0.4-1
			C483.9,279.1,483.6,278.9,482.4,279.3z M484.4,279.8c0.1,0.1,0.1,0.2,0.1,0.2c-0.1,0.5-0.8,0.5-1.3,0.7c0.1-0.3,0.3-0.6,0.4-0.9
			c0.2,0,0.1,0,0.2-0.1C484.1,279.7,484.3,279.7,484.4,279.8z M483.5,290.1c-0.1-0.2,0-0.1-0.2-0.2c-0.1-0.1-0.2,0-0.4,0.1
			c-0.2,0.1-0.2,0.5-0.2,0.7c0.3,0.2,0.4,0.3,0.8,0.1C483.5,290.5,483.6,290.3,483.5,290.1z M487.3,289.5c-0.1,0.1,0,0.1-0.1,0.2
			c0,0.1,0.1,0.2,0.1,0.3c0,0.1,0,0.1,0.1,0.2c0.3,0,0.4,0,0.6,0c0.1-0.1,0,0,0.1-0.1c0-0.4-0.1-0.6-0.2-0.8
			C487.8,289.3,487.6,289.4,487.3,289.5L487.3,289.5z M490.3,287.4L490.3,287.4c-0.4,0.2-0.7,0.6-0.7,1.1c0.5-0.1,0.7-0.2,1.1-0.4
			C490.7,287.7,490.7,287.6,490.3,287.4C490.3,287.4,490.3,287.4,490.3,287.4z M494.9,287.9c0.1,0.1,0.1,0.1,0.1,0.3
			c0.4,0.1,0.4,0,0.7-0.1c0-0.4,0-0.5-0.1-0.7c-0.3,0-0.5,0-0.7,0.1C494.9,287.7,494.9,287.8,494.9,287.9z M501.2,296.8
			c-0.1,0.1-0.2,0.2-0.4,0.3v0.4c0.3,0.4,0.1,0.7,0.3,1.3c0.1,0.3,0.3,0.5,0.4,0.8c1.2-0.1,2.6-0.2,3.6-0.4h1.7
			c0.7-0.1,1.5-0.3,2.1-0.4c1-0.2,1.6-0.1,2.5-0.3h0.4c0-0.1,0.1-0.1,0.1-0.2c0.2-0.1,0.4,0.2,0.8,0.1c0.7-0.1,3.2-0.1,3.6-0.4
			c0.2-0.1,0.2-0.2,0.4-0.3c0-0.8-0.4-1.1-0.6-1.6c-0.1,0-0.3,0-0.4-0.1c0-0.1,0-0.1-0.1-0.2c-0.1,0-1.7,0.2-1.8,0.2
			c-0.5,0.1-0.9-0.1-1.3,0c-1.1,0.3-2.4,0.3-3.3,0.4c-0.6,0-1.2,0-1.8,0.1c-1,0.2-2.7,0.4-3.5,0.2c-0.2,0-0.4,0.1-0.5,0.1
			C502.5,296.9,501.8,297,501.2,296.8z M505.5,297.5c1.2-0.3,2.7-0.2,3.8-0.4c0.7,0,1.3,0,2-0.1c0.7-0.2,3-0.5,3.6-0.3
			c0.7,0,0.6,0.2,0.9,0.5v0.1c-3.2,0.1-6.7,0.7-9.2,1c-0.4,0-1.1,0.2-1.3,0.2c-0.3,0-0.6,0-0.9-0.1c-0.5,0.1-1.5,0.4-2.2,0.1
			c0-0.3,0.2-0.8,0.4-1C502.8,297.4,505.1,297.6,505.5,297.5z M503.2,287.6C503.1,287.6,503.1,287.6,503.2,287.6
			c-0.4-0.1-0.5-0.1-0.6,0.1c-0.1,0.1-0.3,0.4-0.3,0.7h0.6c0.1-0.1,0.2-0.2,0.4-0.3C503.2,288,503.2,287.8,503.2,287.6z"/>
	</g>
</g>
<g>
	<g>
		<path class="st2" d="M408.9,347.5c-0.2-0.3-0.4-0.5-0.4-1c0.1-0.1,0-0.1,0.1-0.2c-0.5-0.2-0.8-0.4-0.8-1c0.3-0.3,0.4-0.7,1-0.7
			c0.3-0.2,0.8-0.1,1.1,0c0.2,0.4,0.3,0.6,0.3,1.1c0.5,0,0.5,0.2,1.1,0.2c0.1-0.3,0.2-0.3,0.3-0.6c-0.5-0.6-0.1-1.4-1.3-1.3
			c-0.1,0.1-0.2,0-0.4,0c-0.1-0.2-0.3-0.2-0.4-0.4c-0.2-0.3-0.1-0.6,0-0.9c0.2-0.1,0.6-0.4,0.7-0.6c-0.1-0.1-0.4-0.4-0.4-0.6
			c0-0.2,0-0.5-0.1-0.7c-0.3-0.4-1.9-1.3-2.4-1.5c0,0.1,0,0.2,0,0.3c0.2,0.2,0.1,0.6,0.3,0.8c0.2,0.2,0.5,0.3,0.8,0.4
			c0.2-0.2,0.5-0.2,0.9-0.1c0.1,0.4,0.4,0.6,0.4,1.1c-0.2,0.2-0.2,0.3-0.5,0.4c-0.3,0.2-1.3,0-1.5,0.6c0.2,0.3,0.2,0.6,0.1,1
			c-0.5,0.2-0.5,0.6-1,0.7c-0.2-0.2-0.4,0-0.7-0.1c-0.3-0.1-0.2-0.4-0.8-0.4c-0.2,0.3-0.4,0.4-0.8,0.4c-0.1-0.1-0.7-0.1-1-0.3
			c-0.2-0.2-0.3-0.4-0.4-0.7c0.4-0.3,0.4-0.8,1.1-0.8c0.2-0.1,0.8,0,0.8,0c0.2,0.2,0.4,0.5,0.9,0.5c0.2-0.2,0.5-0.1,0.5-0.5
			c-0.4-0.5-0.4-1.1-0.1-1.6c-0.4,0-0.6,0-0.9-0.1c-0.1-0.3-0.2-0.4-0.2-0.9c0.4-0.1,1.2-0.4,1.3-0.7c-0.1-0.1-0.1-0.1-0.1-0.2
			c-0.5-0.1-1.4-0.3-1.6-0.1c-0.1,0.1,0,0.1-0.1,0.2c-0.2,0.2-0.4,0.2-0.6,0.4c-0.6,0-1-0.1-1.3-0.2c-0.1-0.2-0.2-0.3-0.3-0.4
			c0-0.2,0.1-0.4,0-0.6c-0.2-0.1-0.6-0.1-0.9-0.1c-0.2,0.1-0.7,0-0.8,0.1c-0.2,0.2-0.1,0.6-0.3,0.9c-0.3,0.3-1.5,0.6-1.8,0.3
			c-0.3-0.2-0.4-0.6-0.8-0.7c-0.4,0.3-0.8,0.1-1.2,0.2c-0.7,0.3-1.7,0.5-2.4,0.8c-0.3,0.1-1,0.1-1.4,0.2c0,0,0,0,0,0.1
			c0.1,0,0.1,0,0.2,0c0.3-0.1,1,0.6,1,1.1c-0.1,0.2-0.1,0.4-0.1,0.6c-0.2,0.1-0.4,0.3-0.6,0.4c-0.4-0.1-0.9-0.2-1.3-0.3
			c-0.1-0.3-0.3-0.4-0.4-0.7c0.2-0.2,0.1-0.4,0.3-0.7c0.1-0.2,0.4-0.2,0.5-0.4c0,0,0-0.1,0.1-0.1c0,0,0,0-0.1,0
			c-0.5,0.4-2.1,0.2-3,0.6c-0.2,0.1-0.5,0.4-0.7,0.5c-1.4,0.1-3.1,1-4.2,1.6c-0.3,0.2-0.8-0.1-1.2,0.1c-0.5,0.3-1,0.7-1.5,1
			c-0.4,0.2-0.8,0.3-1.2,0.5c-0.1,0.1-0.1,0.2-0.1,0.3c-0.3,0.2-0.7,0.3-1,0.6c0,0.1,0,0.1-0.1,0.2c-0.1,0-0.3,0-0.4,0.1
			c-0.1,0.1-0.1,0.2-0.2,0.3c-0.3,0.2-0.5,0.2-0.8,0.4c-0.2,0.2-0.3,0.6-0.5,0.7c-0.4,0.3-0.9,0.4-1.3,0.7c-0.6,0.4-1,1.1-1.6,1.6
			c-0.2,0.1-0.4,0.1-0.5,0.2c0,0.1,0,0.1,0,0.2c-0.1,0-0.1,0-0.2,0.1c-0.2,0.3-0.6,0.6-0.8,0.9c0,0.1,0,0.1,0,0.2
			c-0.1,0.1-0.3,0.1-0.4,0.2c-0.1,0.2-0.1,0.4-0.2,0.7c-0.1,0.1-0.3,0.2-0.4,0.4c-0.3,0.3-0.3,0.7-0.5,1c-0.1,0.1-0.2,0-0.3,0.1
			c0,0.1-0.1,0.3-0.1,0.4c-0.1,0-0.1,0-0.2,0.1l-0.4,0.9c0,0.2,0,0.4,0.1,0.6c-0.4,1.1-0.1,1.7,0,3c0,0.1-0.1,0.3-0.1,0.4
			c0,0.2,0.3,0.4,0.3,0.5c0.1,0.3-0.1,0.7-0.1,0.8c0,0.2,0.2,0.3,0.3,0.4c0.7,1.8,1.9,3,3.6,3.8c0.4,0.2,0.6,0.6,1.2,0.6
			c0.1-0.1,0.1-0.2,0.4-0.2c0,0.2,0.1,0.3,0.1,0.5c0.9,0.4,1.8,0.3,2.7,0.5c0.2,0,0.5,0,0.7,0c0.5,0.1,1.4,0.6,2.1,0.4
			c0.5-0.1,1.6,0,2.2-0.1c0.4-0.1,1-0.4,1.6-0.4c0.5,0,1.1-0.3,1.6-0.4c0.1,0,0.1,0,0.2,0.1c0.6-0.2,1.3-0.3,2-0.5
			c0.8-0.3,1.7-0.8,2.4-1.1c0.5-0.2,1-0.1,1.6-0.4c0.1-0.1,0.3-0.3,0.5-0.4c0.2-0.1,0.5,0,0.9-0.1c0.5-0.2,0.9-0.5,1.3-0.7
			c0.3-0.2,0.5-0.1,0.9-0.2c0.5-0.2,1-0.6,1.4-0.8c0.3-0.2,0.7,0,1.1-0.2c0.2-0.1,0.3-0.4,0.6-0.5c0.3-0.1,0.5-0.1,0.8-0.1
			c0.3-0.2,0.3-0.8,0.6-1c0.2,0,0.4-0.1,0.6-0.1c0.9-0.4,1.9-1.2,2.6-1.8c-0.3-0.2-0.9-0.7-1.1-0.6c-0.3,0.3-0.5,0.4-1.3,0.4
			c-0.2-0.3-0.3-0.3-0.4-0.7c0.1-0.1,0.1-0.2,0.1-0.4c0.3-0.3,0.6-0.6,0.9-0.9c0.9,0,0.9,0.5,1.6,0.7c0.1,0.1,0.3-0.1,0.4-0.2
			c0.1,0,0.3,0.1,0.5,0.1c0.1,0.2,0.4,0.4,0.7,0.4c0.7-0.6,2.7-2,2.9-3c0,0-0.1,0-0.1,0c-0.1-0.1-0.3,0-0.4-0.1
			c-0.1-0.1-0.3-0.3-0.4-0.4c0.1-0.3,0.1-0.6,0.1-1c0.2-0.2,0.5-0.5,0.7-0.6c0.1-0.1,0.3,0,0.4-0.1c-0.1,0-0.3,0-0.4,0
			c-0.1-0.3-0.3-0.3-0.3-0.7c0-0.1,0-0.2,0-0.4c0.3-0.2,1-0.8,1.5-0.5c0.4,0.2,0.4,0.7,0.7,0.9c0,0,0-0.1,0-0.1
			c0.4-0.3,0.8-1.5,0.8-2.2c-0.1,0-0.1,0-0.1-0.1C410.7,347.6,409.5,347.7,408.9,347.5z M385.4,349c-0.2-0.3-0.3-0.4-0.3-1
			c0.3-0.2,0.5-0.6,1-0.7c0.1,0,0.2-0.1,0.3-0.1c0.6,0,0.9,0.3,1.3,0.5c-0.1,0.3-0.3,1.1-0.6,1.3C386.7,349.3,386,349.1,385.4,349z
			 M387.8,353.4c-0.6,0.3-0.8,0.6-1.6,0.7c-0.2-0.2-0.5-0.3-0.6-0.7c-0.1-0.1-0.1-0.2-0.1-0.4c0.3-0.2,0.9-0.6,1.1-0.8
			c0.6,0.1,1.1,0,1.1,0.7C387.7,352.9,387.8,353.2,387.8,353.4z M390.1,358.7c-0.6,0.2-1.1,0.7-1.8,0.2c-0.2-0.2-0.2-0.5-0.2-0.9
			c0.4-0.1,0.8-0.4,1-0.7c0.4,0,0.7,0.2,0.8,0.4C390.1,358,390.1,358.3,390.1,358.7z M394.9,350c-0.3,0.1-0.3,0.5-0.6,0.7
			c-0.2,0.1-0.4,0.1-0.5,0.3c-0.4,0-0.5,0-1,0c-0.4-0.5-0.8-0.3-0.8-1.3c0.1-0.2,0-0.2-0.1-0.4c0.5,0,0.9-0.1,1.2-0.4
			c0.4,0,0.9,0,1,0.1c0.2,0.2,0.7,0.4,0.7,0.7C394.7,349.8,394.8,349.7,394.9,350z M396.2,360.5c-0.2,0.2-0.5,0-0.7-0.1
			c-0.3-0.5-0.3-0.8-0.1-1.3c0.3-0.1,0.6-0.2,0.8-0.4c0.8,0,1.1,0.3,1,1.2C396.8,360.1,396.8,360.5,396.2,360.5z M397.2,356
			c-0.4,0.2-0.9,0-1.3-0.1c-0.1-0.3-0.3-0.6-0.2-1c0.2-0.6,1.6-1.1,2.2-0.7c0.1,0.1,0.1,0.2,0.2,0.3
			C398.1,355.2,397.9,356,397.2,356z M397.3,347.1c-0.2,0.3-0.4,0.4-0.9,0.4c-0.3-0.2-0.5-0.2-0.7-0.6c-0.1-0.1-0.1-0.2-0.1-0.4
			c0.3-0.2,1.1-1,1.4-1.3c0.7,0.1,1.4,0.2,1.4,1C398,346.5,397.9,347.1,397.3,347.1z M398.7,342.6c0,0-0.1,0-0.1,0
			c-0.4,0.2-1.2,0.1-1.6,0c-0.3-0.4-0.6-0.5-0.5-1c0.2-0.1,0.9-0.7,1-0.9c0.3,0,0.7,0.1,1,0.1c0,0.1,0.1,0.2,0.1,0.2
			C398.8,341.6,398.9,341.9,398.7,342.6z M405,344.3c0.5,0.1,1.1,0.3,1.2,0.9c-0.2,0.2-0.1,0.2-0.2,0.4c-0.2,0.3-0.7,0.6-1.3,0.6
			c-0.2-0.2-0.3-0.2-0.4-0.4c-0.1-0.2-0.1-0.3-0.1-0.6C404.4,344.8,404.6,344.6,405,344.3z M401.6,349.9c-0.5,0.1-0.9-0.1-1.2-0.2
			c-0.1-0.3-0.1-0.3-0.1-0.7c0.2-0.2,0.2-0.6,0.4-0.7c0.3-0.2,1-0.2,1.3-0.1c0.2,0.7,0.3,0.7,0.4,1.5
			C402,349.6,401.9,349.8,401.6,349.9z M401.3,340.6c-0.1-0.3-0.3-0.4-0.4-0.7c0.2-0.2,0.3-0.5,0.4-0.7c0.3,0,0.6-0.1,0.7-0.2
			c0.5,0.1,1.1,0.4,1.1,1.2C402.6,340.5,402.1,340.7,401.3,340.6z M406.2,350.5c-0.5,0.2-0.8,0.4-1.6,0.4c-0.1-0.1-0.1-0.2-0.2-0.4
			c-0.2,0.1-0.4,0.2-0.7,0.1c-0.4-0.1-0.5-0.5-0.7-0.7c0-0.1,0-0.1,0.1-0.1c0.1-0.4,0.5-0.7,0.8-1c0.3,0,0.6,0,0.9,0.1
			c0,0.2,0,0.3,0.2,0.4c0.2,0.1,0.7,0,1.1,0c0.1,0.1,0.1,0.1,0.1,0.3C406.4,349.7,406.3,350.2,406.2,350.5z M409.7,351
			c0.1,0,0.1,0,0.2,0c0-0.1,0-0.2,0-0.3c-0.2,0-0.2,0-0.3,0.1C409.6,350.8,409.7,350.9,409.7,351z"/>
	</g>
</g>
<path class="st2" d="M382.7,289c0,0-10.3,13.4-11.2,23.9c-1,10.5-0.2,18.1-0.2,18.1s17.2-1.2,35.6-7.1c3.7-13.6,6-38.7,6-38.7"/>
<g>
	<g>
		<path d="M411.8,261.4c0.3-0.2,0.2-0.4,0.4-0.7c-0.1-0.3-0.2-0.3-0.3-0.5c-0.2,0-0.4,0-0.7-0.1c-0.6,0.6-1.2,0.6-0.6,1.6
			C411.1,261.7,411.6,261.6,411.8,261.4z M406.1,272.9c-0.7,0-1.2,0.4-1.7,0.7c-0.2,0.4-0.1,0.6-0.1,1c0.8,0.1,1.6,0,2.2-0.4
			C406.5,273.6,406.4,273.3,406.1,272.9z M392.5,286.1c0.6-0.1,1.3-0.4,1.8-0.5c0-0.1,0-0.1,0.1-0.1c0-0.8-1-1.1-1.6-1
			c-0.2,0.2-0.7,0.5-1,0.7c0,0.2,0,0.3,0.1,0.4C392.1,285.9,392.4,285.9,392.5,286.1z M403.3,289.2c-0.3,0.1-0.3,0.3-0.5,0.5
			c0,0.4,0,0.7,0.1,0.9c0.9,0.2,0.8-0.1,1.6-0.2c0.1-0.3,0.3-0.5,0.4-0.8c-0.4-0.3-0.6-0.5-1.2-0.5
			C403.6,289.1,403.3,289.1,403.3,289.2z M404.4,295c0.4,0.1,1.1,0.1,1.5,0.1c0.1-0.2,0.2-0.6,0.4-0.8c0-0.6-0.4-0.9-1-1
			C404.8,294,404,294,404.4,295z M396.3,296.6c-0.1-0.2-0.1-0.2-0.2-0.4c-0.2,0-0.3,0-0.5,0c-0.1,0.1-0.3,0.1-0.4,0.2
			c-0.3,0.1-0.3,0.2-0.4,0.4c0,1.2,0.7,0.9,1.5,0.7C396.2,297.2,396.3,296.7,396.3,296.6z M403,299.7c1.2,0,1.8-0.2,2-1.2
			c-0.3-0.3-0.4-0.5-0.9-0.7c-0.2,0.1-0.5,0.1-0.8,0.1c-0.3,0.3-0.6,0.6-0.9,0.9C402.5,299.2,402.7,299.3,403,299.7z M385.3,301.2
			c0-0.2,0-0.3-0.1-0.4c-0.5-0.1-0.7-0.4-1.5-0.4c-0.2,0.2-0.4,0.3-0.6,0.4c-0.1,0.2-0.2,0.4-0.4,0.5c0,0.5,0,0.7,0.4,0.8
			c0.7,0.5,1.7-0.2,2.1-0.4C385.3,301.5,385.4,301.4,385.3,301.2z M399.3,303.2c0.9,0,1.4-0.2,1.8-0.7c0-0.6-0.5-0.8-0.7-1.2
			c-0.1,0-0.2,0-0.4,0c-0.2,0.3-0.9,0.7-1.3,0.8c0,0.3,0.1,0.5,0.2,0.7C399.1,303.1,399.1,303.1,399.3,303.2z M377.1,306.1
			c0-0.6-0.4-0.9-1-1c-0.2,0.1-0.4,0.1-0.6,0.2c-0.2,0.2-0.4,0.5-0.6,0.7c0.1,0.3,0.2,0.4,0.3,0.7c0.4,0,0.6,0,0.8-0.1
			C376.7,306.5,376.7,306.3,377.1,306.1z M394.4,306.9c-0.1-0.2-0.1-0.2-0.1-0.4c-0.4,0-0.8,0-1-0.1c-0.4,0.3-0.7,0.5-1,0.8
			c0,0.2,0,0.3,0.1,0.4c0.1,0.2,0.2,0.2,0.3,0.4c0.4,0,1,0,1.3-0.2C394.3,307.7,394.2,307.3,394.4,306.9z M401.3,307.1
			C401.3,307.2,401.3,307.2,401.3,307.1C401.3,307.2,401.3,307.2,401.3,307.1c0,1-0.8,0.7-1.1,1.4c-0.1,0.1-0.1,0.2,0,0.3
			c0,0.3,0,0.7,0.1,0.9c0.2,0.1,0.5,0.2,0.7,0.1c0.7,0,0.9-0.8,1-1.5c0.3-0.1,0.7-0.3,1-0.4c0.1-0.4,0.1-0.6,0.1-1
			c-0.3-0.1-0.6-0.2-0.9-0.3C401.8,306.8,401.5,306.9,401.3,307.1z M397.1,310.2c0.4,0,0.8-0.1,1.1-0.2c0-0.2,0.1-0.4,0.2-0.5
			c0-0.6-0.1-0.6-0.4-1c-0.1,0-0.2,0-0.4,0c-0.1,0.2-0.1,0.2-0.1,0.4c-0.3,0-0.6,0.1-1,0.1c0,0.3,0.1,0.2-0.1,0.4
			C396.6,310,396.8,310,397.1,310.2z M403.2,311.1c0.2,0,0.1,0,0.2-0.1c0.1-0.1,0-0.1,0.1-0.2c0.2,0,0.1,0,0.2-0.1
			c0.5-0.1,0.5-0.5,0.8-0.8c0-0.4-0.1-0.5-0.2-0.7c-0.3-0.1-0.6-0.1-0.8-0.1c-0.4,0.4-0.8,0.5-1,1.2
			C402.7,310.5,403,310.8,403.2,311.1z M399.7,314.9c0-0.2,0.1-0.5,0.1-0.6c0-0.2,0-0.2-0.1-0.3c-0.3-0.1-0.6-0.1-1-0.2
			c-0.2,0.1-0.4,0.3-0.6,0.4c0,0.6,0.1,0.8,0.4,1.1C399.1,315.2,399.4,315.1,399.7,314.9z M387.7,314.5c-0.2,0.2-0.3,0.6-0.6,0.7
			c0,0,0,0,0.1,0.1c0.1,0.5,0.3,0.5,0.5,0.8c0.3,0,0.8-0.1,1-0.3c0.3-0.2,0.3-0.7,0.5-1c0-0.3-0.1-0.3-0.1-0.4
			c-0.2,0-0.5-0.1-0.8-0.1C388.1,314.4,387.8,314.4,387.7,314.5z M399.4,317.5c1,0,0.9-0.4,1.3-1c0-0.5-0.3-0.7-0.5-1
			c-0.1,0-0.2,0-0.4,0c-0.2,0.2-0.4,0.2-0.6,0.4c-0.2,0.1-0.2,0.4-0.4,0.5c0,0.5,0.2,0.6,0.4,1C399.4,317.5,399.3,317.4,399.4,317.5
			z M384.5,315.9c-0.2-0.1-0.4-0.1-0.7-0.1c-0.1,0.1-0.3,0.1-0.5,0.2c-0.2,0.2-0.5,0.5-0.7,0.7c0.1,0.6,0.4,0.7,0.7,1
			c1.2-0.1,1.1-0.6,1.7-1C384.9,316.3,384.7,316.1,384.5,315.9z M394.1,318.4c0.6,0,1.1,0,1.3-0.2c0.1-0.1,0.3-0.5,0.5-0.7
			c0-0.9-0.3-1.1-0.9-1.1c-0.2,0.2-0.4,0.2-0.7,0.4c-0.3,0.2-0.5,0.6-0.7,0.8c0,0.2,0,0.4,0.1,0.6
			C393.9,318.2,394,318.2,394.1,318.4z M391.6,321.6c0.1,0.5,0.3,0.4,0.6,0.7c0.7-0.1,0.9-0.6,1.3-1c0-0.4-0.1-0.4-0.2-0.7
			c-0.2-0.1-0.4-0.2-0.8-0.1c-0.2,0.3-0.6,0.6-1,0.8C391.6,321.5,391.6,321.5,391.6,321.6z M373.1,323.8c0,0.3,0.1,0.6,0.2,0.7
			c0.1,0.2,0.1,0.2,0.2,0.3c0.8,0,2.5-0.7,1.8-1.5c-0.3-0.4-0.8-0.3-1.4-0.4C373.7,323.3,373.5,323.6,373.1,323.8z M383.7,325.7
			c-0.2,0.3-0.6,0.3-0.9,0.5c-0.2,0.2-0.3,0.5-0.5,0.7c0.1,0.2,0.1,0.4,0.2,0.7c0.6,0.2,1.1,0.4,1.8,0c0.2-0.1,0.3-0.5,0.5-0.6
			c0-0.3,0.1-0.7-0.1-0.9C384.5,325.7,384.1,325.7,383.7,325.7z M423.1,335.8c-0.1-0.1-0.2-0.2-0.3-0.3c0-0.1,0.1-0.4,0-0.6
			c-0.2-0.4-0.7-0.8-0.9-1.2c-0.4-0.7-0.5-1.4-1-1.9c-0.3-0.4-0.9-0.7-1.3-1c-0.3-0.2-0.6-0.7-0.9-0.9c-0.2-0.1-0.4,0.1-0.4,0.1
			c-0.1-0.1-0.1-0.2-0.2-0.3c-0.1,0-0.1,0-0.2,0.1c-0.2-0.1-0.6-0.3-0.8-0.4c-0.3,0-0.6,0-1,0.1c-0.6-0.1-1.2-0.2-1.8-0.3
			c-0.5-0.1-0.8,0.2-1.1,0.1c-1.4-0.3-2.7-0.1-3.9,0.1c-0.6,0.1-1-0.2-1.6,0c-0.1,0.1-0.4,0.3-0.5,0.4c-0.2,0.1-1.9,0.5-1.9,0.5
			c-0.3,0-0.5,0.2-0.7,0.3c-0.2,0.1-0.3-0.1-0.6,0c-0.1,0.1-0.4,0.3-0.5,0.4c-0.2,0-0.4-0.1-0.6-0.1c-0.2,0.1-0.6,0.3-0.9,0.4
			c-0.1,0-0.2,0-0.4,0c-0.1,0.1-0.3,0.3-0.4,0.4c-0.5,0.2-1.1,0.2-1.6,0.5c-0.1,0.1-0.3,0.3-0.4,0.4c-0.4,0.1-0.7,0-1,0.2
			c-0.2,0.1-0.4,0.4-0.6,0.4c-0.2,0-0.4,0-0.6,0.1c-0.2,0.1-0.5,0.4-0.7,0.6c-0.2,0-0.5,0.1-0.7,0.1c-0.4,0.2-0.8,0.6-1.2,0.7
			c-0.2,0-0.3,0-0.5,0.1c-0.5,0.2-0.9,0.7-1.4,0.9c-0.4,0.2-0.8,0.1-1.1,0.4c-0.2,0.2-0.3,0.4-0.5,0.6c-0.1,0-0.2,0-0.3,0
			c-0.2,0.1-0.5,0.4-0.7,0.5c-0.4,0.2-1.1,0.2-1.4,0.4c-0.1,0.1-0.2,0.4-0.4,0.4c-0.6,0.4-1.2,0.7-1.8,1.1c-0.2,0.1-0.4,0-0.6,0.1
			c0,0.1,0,0.1-0.1,0.2c-0.3,0.3-0.7,0.3-1.1,0.5c-0.1,0.2-0.3,0.3-0.4,0.5c-0.3,0.2-0.6,0.2-1,0.4c-0.3,0.1-0.5,0.4-0.7,0.6
			c-0.3,0.2-0.7,0.2-1,0.4c-0.3,0.2-0.5,0.6-0.7,0.7c-0.1,0.1-0.4,0-0.5,0.1c-0.6,0.4-1.2,0.9-1.8,1.3c-0.2,0.1-0.5,0.1-0.7,0.3
			c-0.2,0.2-0.3,0.5-0.5,0.7c-0.3,0.3-0.8,0.6-1.1,0.8c-0.6,0.4-1.2,0.8-1.8,1.3c-0.2,0.1-0.4,0.5-0.6,0.7c-0.2,0.1-0.4,0.2-0.5,0.3
			c-0.1,0.1-0.1,0.3-0.2,0.4c-0.5,0.4-1.7,1.3-1.9,1.8c0,0.2,0,0.4-0.1,0.6c-0.2,0.1-0.3,0.2-0.5,0.4c-0.2,0.4,0,0.8-0.1,1.2
			c-0.2,0.3-0.9,1-1.1,1.3c-0.5,1-0.3,2.6-0.1,3.5c0,0.5,0,1-0.1,1.6c0.1,0.2,0.3,0.3,0.4,0.4c0.2,0.4,0.1,1,0.1,1.3
			c0.1,0.1,0.2,0.2,0.4,0.4c0.3,0.7,0.5,1,0.8,1.6c0,0.1,0,0.1,0,0.2c0.1,0.1,0.4,0.2,0.5,0.4c0.1,0.1,0.4,0.8,0.4,0.8
			c0.2,0,0.4,0.1,0.7,0.1c0.1,0.2,0.2,0.4,0.4,0.6c0.3,0.1,0.6,0.2,0.9,0.3c0.3,0.2,0.5,0.6,0.8,0.7c0.3,0.2,0.6,0.1,1,0.3
			c0.1,0.1,0.2,0.2,0.4,0.3c0.8,0.3,2.1,0.3,2.9,0.5c0.4,0.1,0.9-0.3,1.2-0.1c0,0,0.8,0.6,0.8,0.7c0,0,0.1,0,0.1,0
			c0-0.1,0-0.2,0-0.3c2.5,0.3,4.9-0.2,7.3-0.9c1-0.3,2.2-0.4,2.9-1c0.1-0.1,0-0.1,0.1-0.2c1,0,1.7-0.5,2.4-0.8c0.2,0,0.9,0,1.1-0.1
			c0.1,0,0.1-0.3,0.1-0.3c0.1,0,0.3,0,0.4,0.1c0.6-0.1,1-0.5,1.3-0.6c0.2-0.1,0.2,0.1,0.3,0.1c0.6-0.2,0.9-0.8,1.8-0.8
			c0-0.2,0-0.2,0.1-0.3c0.2-0.2,0.6-0.1,0.9-0.2c0-0.1,0-0.1,0-0.1c0.2-0.1,0.4,0,0.6-0.1c0.2-0.1,0.4-0.4,0.7-0.4
			c0.3-0.1,0.5-0.1,0.7-0.2c0.2-0.1,0.4-0.4,0.7-0.6c0.4-0.3,0.9-0.4,1.3-0.7c0.2-0.2,0.4-0.5,0.6-0.6c0.3-0.2,0.5-0.1,0.7-0.3
			c0.1-0.1,0.2-0.3,0.3-0.4c0.3-0.2,0.7-0.4,1-0.7c0.1-0.1,0.1-0.2,0.1-0.3c0.4-0.2,0.7-0.2,1.1-0.4c0.3-0.2,0.5-0.5,0.7-0.7
			c0.6-0.3,1.2-0.5,1.7-0.9c0.8-0.5,1.5-1.4,2.3-1.9c0.8-0.5,1.6-0.8,2.4-1.4c0.2-0.2,0.3-0.6,0.6-0.7c0.2-0.1,0.4-0.1,0.7-0.2
			c0.2-0.1,0.2-0.4,0.4-0.5c0.3-0.3,0.7-0.5,1-0.7c0.1-0.2,0.1-0.3,0.2-0.5c0.1,0,0.3,0,0.4,0c0.3-0.3,0.7-0.7,1-1
			c0.3-0.3,0.8-0.4,1-0.7c0.2-0.2,0.1-0.6,0.3-0.7c0.1,0,0.1,0,0.2,0c0.2-0.2,0.2-0.7,0.4-0.9c0.6-0.7,1.2-1.3,1.7-2.1
			c1.2-1.9,1.9-5.1,1.1-7.5C423.1,336.4,423.1,336.1,423.1,335.8z M409.9,351c-0.1,0-0.1,0-0.2,0c0-0.1,0-0.1-0.1-0.2
			c0.1,0,0.1-0.1,0.3-0.1C409.9,350.8,409.9,350.9,409.9,351z M408.5,346.3c0,0.2,0,0.1-0.1,0.2c0,0.5,0.2,0.6,0.4,1
			c0.6,0.2,1.8,0.1,2.4,0c0.1,0.1,0,0,0.1,0.1c0,0.7-0.5,1.9-0.8,2.2c0,0,0,0,0,0.1c-0.4-0.2-0.3-0.7-0.7-0.9
			c-0.5-0.3-1.2,0.3-1.5,0.5c0,0.2,0,0.4,0,0.4c0,0.4,0.2,0.4,0.3,0.7c0.1,0,0.3,0,0.4,0c-0.1,0.1-0.3,0-0.4,0.1
			c-0.2,0.1-0.5,0.4-0.7,0.6c0,0.4,0,0.7-0.1,1c0.1,0.1,0.2,0.4,0.4,0.4c0.1,0.1,0.3,0,0.4,0.1c0,0,0.1,0,0.1,0
			c-0.2,0.9-2.2,2.4-2.9,3c-0.3-0.1-0.5-0.2-0.7-0.4c-0.2,0-0.4-0.1-0.5-0.1c-0.2,0.1-0.3,0.3-0.4,0.2c-0.6-0.1-0.6-0.7-1.6-0.7
			c-0.3,0.3-0.6,0.6-0.9,0.9c0,0.2,0,0.3-0.1,0.4c0,0.5,0.2,0.5,0.4,0.7c0.7,0,0.9-0.1,1.3-0.4c0.2-0.1,0.9,0.4,1.1,0.6
			c-0.7,0.6-1.7,1.5-2.6,1.8c-0.2,0-0.4,0-0.6,0.1c-0.3,0.2-0.3,0.8-0.6,1c-0.3,0-0.5,0.1-0.8,0.1c-0.2,0.1-0.4,0.4-0.6,0.5
			c-0.4,0.2-0.8,0.1-1.1,0.2c-0.4,0.2-0.9,0.6-1.4,0.8c-0.3,0.1-0.6,0.1-0.9,0.2c-0.4,0.2-0.8,0.6-1.3,0.7c-0.4,0.1-0.7,0-0.9,0.1
			c-0.2,0-0.4,0.3-0.5,0.4c-0.5,0.2-1,0.2-1.6,0.4c-0.8,0.3-1.7,0.8-2.4,1.1c-0.7,0.2-1.4,0.3-2,0.5c-0.1,0-0.1-0.1-0.2-0.1
			c-0.5,0.2-1,0.5-1.6,0.4c-0.6-0.1-1.2,0.3-1.6,0.4c-0.6,0.2-1.7,0-2.2,0.1c-0.7,0.1-1.6-0.3-2.1-0.4c-0.2,0-0.5,0-0.7,0
			c-1-0.2-1.9-0.1-2.7-0.5c0-0.2-0.1-0.3-0.1-0.5c-0.2,0.1-0.2,0.1-0.4,0.2c-0.6,0-0.8-0.4-1.2-0.6c-1.7-0.8-2.9-2-3.6-3.8
			c-0.1-0.1-0.3-0.3-0.3-0.4c0-0.1,0.2-0.6,0.1-0.8c0-0.1-0.3-0.4-0.3-0.5c-0.1-0.2,0.1-0.4,0.1-0.4c-0.1-1.2-0.4-1.9,0-3
			c0-0.2,0-0.4-0.1-0.6l0.4-0.9c0.1,0,0.1-0.1,0.2-0.1c0-0.1,0.1-0.3,0.1-0.4c0.1-0.1,0.2,0,0.3-0.1c0.2-0.3,0.3-0.7,0.5-1
			c0.1-0.1,0.3-0.2,0.4-0.4c0.1-0.2,0.1-0.4,0.2-0.7c0.1-0.1,0.3-0.1,0.4-0.2c0-0.1,0-0.1,0-0.2c0.2-0.3,0.6-0.6,0.8-0.9
			c0.1,0,0.1-0.1,0.2-0.1c0-0.1,0-0.1,0-0.2c0.1-0.1,0.4-0.1,0.5-0.2c0.6-0.4,1-1.2,1.6-1.6c0.4-0.3,1-0.3,1.3-0.7
			c0.2-0.2,0.3-0.6,0.5-0.7c0.3-0.2,0.5-0.2,0.8-0.4c0.1-0.1,0.1-0.2,0.2-0.3c0.1,0,0.3-0.1,0.4-0.1c0-0.1,0-0.1,0.1-0.2
			c0.3-0.3,0.6-0.4,1-0.6c0.1-0.1,0.1-0.2,0.1-0.3c0.4-0.2,0.8-0.3,1.2-0.5c0.5-0.3,1-0.8,1.5-1c0.4-0.2,0.8,0.1,1.2-0.1
			c1.1-0.6,2.8-1.6,4.2-1.6c0.2-0.1,0.5-0.4,0.7-0.5c0.8-0.3,2.4-0.2,3-0.6c0,0,0,0,0.1,0c0,0,0,0-0.1,0.1c-0.1,0.2-0.4,0.2-0.5,0.4
			c-0.2,0.2-0.1,0.5-0.3,0.7c0.1,0.3,0.3,0.5,0.4,0.7c0.4,0.1,0.9,0.2,1.3,0.3c0.2-0.2,0.4-0.3,0.6-0.4c0-0.2,0-0.4,0.1-0.6
			c0-0.5-0.7-1.2-1-1.1c-0.1,0-0.1,0-0.2,0c0,0,0-0.1,0-0.1c0.4-0.1,1.1-0.1,1.4-0.2c0.7-0.3,1.7-0.6,2.4-0.8
			c0.4-0.2,0.8,0.1,1.2-0.2c0.4,0.1,0.5,0.5,0.8,0.7c0.3,0.3,1.6,0,1.8-0.3c0.2-0.2,0.1-0.7,0.3-0.9c0.1-0.1,0.6,0.1,0.8-0.1
			c0.3,0,0.7,0,0.9,0.1c0.1,0.2,0,0.4,0,0.6c0.1,0.1,0.2,0.3,0.3,0.4c0.4,0.2,0.7,0.2,1.3,0.2c0.2-0.2,0.4-0.3,0.6-0.4
			c0.1-0.1,0-0.1,0.1-0.2c0.2-0.2,1.2,0.1,1.6,0.1c0,0.1,0.1,0.2,0.1,0.2c-0.1,0.3-0.9,0.7-1.3,0.7c0,0.5,0.1,0.6,0.2,0.9
			c0.3,0.1,0.5,0.2,0.9,0.1c-0.3,0.5-0.4,1.1,0.1,1.6c-0.1,0.4-0.3,0.3-0.5,0.5c-0.5,0-0.6-0.3-0.9-0.5c0,0-0.6-0.1-0.8,0
			c-0.7,0-0.7,0.5-1.1,0.8c0.1,0.3,0.2,0.6,0.4,0.7c0.2,0.2,0.8,0.2,1,0.3c0.4,0,0.6-0.1,0.8-0.4c0.6,0,0.5,0.3,0.8,0.4
			c0.3,0.1,0.5,0,0.7,0.1c0.5-0.1,0.5-0.5,1-0.7c0.1-0.4,0.1-0.8-0.1-1c0.1-0.6,1.2-0.4,1.5-0.6c0.3-0.1,0.3-0.3,0.5-0.4
			c-0.1-0.5-0.3-0.7-0.4-1.1c-0.4-0.1-0.7-0.1-0.9,0.1c-0.3-0.1-0.6-0.2-0.8-0.4c-0.2-0.2-0.1-0.6-0.3-0.8c0-0.1,0-0.2,0-0.3
			c0.5,0.2,2.2,1.1,2.4,1.5c0,0.2,0,0.5,0.1,0.7c0.1,0.2,0.3,0.5,0.4,0.6c-0.1,0.2-0.5,0.5-0.7,0.6c-0.1,0.3-0.2,0.6,0,0.9
			c0.1,0.2,0.2,0.3,0.4,0.4c0.3,0,0.3,0.1,0.4,0c1.2,0,0.9,0.7,1.3,1.3c-0.1,0.3-0.2,0.3-0.3,0.6c-0.6,0-0.6-0.2-1.1-0.2
			c0-0.5-0.1-0.7-0.3-1.1c-0.3-0.1-0.8-0.2-1.1,0c-0.5,0.1-0.7,0.4-1,0.7C407.7,346,408,346.1,408.5,346.3z M402.1,338.9
			c-0.2,0.1-0.5,0.2-0.7,0.2c-0.1,0.2-0.3,0.6-0.4,0.7c0.1,0.3,0.3,0.4,0.4,0.7c0.8,0.2,1.2-0.1,1.8-0.4
			C403.2,339.4,402.5,339,402.1,338.9z M398.6,340.8c-0.3-0.1-0.7-0.1-1-0.1c-0.2,0.2-0.8,0.7-1,0.9c-0.1,0.5,0.3,0.7,0.5,1
			c0.4,0.1,1.2,0.2,1.6,0c0,0,0.1,0,0.1,0c0.1-0.6,0-1,0-1.6C398.7,340.9,398.6,340.9,398.6,340.8z M404.7,346.2
			c0.5,0,1-0.2,1.3-0.6c0.1-0.2,0-0.3,0.2-0.4c0-0.6-0.7-0.8-1.2-0.9c-0.4,0.3-0.6,0.5-0.9,0.9c0,0.3,0,0.4,0.1,0.6
			C404.3,346,404.5,346,404.7,346.2z M397.1,345.2c-0.3,0.3-1.1,1-1.4,1.3c0,0.2,0,0.3,0.1,0.4c0.1,0.4,0.4,0.4,0.7,0.6
			c0.5,0,0.7-0.1,0.9-0.4c0.6,0,0.7-0.6,1.2-1C398.5,345.4,397.8,345.3,397.1,345.2z M387.1,349c0.3-0.1,0.5-1,0.6-1.3
			c-0.4-0.2-0.7-0.5-1.3-0.5c-0.1,0-0.2,0.1-0.3,0.1c-0.4,0.1-0.6,0.5-1,0.7c0,0.5,0.1,0.6,0.3,1C386,349.1,386.7,349.3,387.1,349z
			 M400.7,348.2c-0.3,0.2-0.2,0.5-0.4,0.7c0,0.4,0.1,0.4,0.1,0.7c0.3,0.1,0.7,0.4,1.2,0.2c0.3-0.1,0.3-0.3,0.8-0.3
			c0-0.8-0.2-0.8-0.4-1.5C401.7,348,401,347.9,400.7,348.2z M406.1,349.2c-0.4,0-0.9,0.1-1.1,0c-0.2-0.1-0.2-0.2-0.2-0.4
			c-0.2-0.1-0.5-0.1-0.9-0.1c-0.3,0.2-0.7,0.6-0.8,1c-0.1,0.1,0,0-0.1,0.1c0.3,0.3,0.3,0.6,0.7,0.7c0.3,0.2,0.4,0,0.7-0.1
			c0.1,0.1,0.1,0.2,0.2,0.4c0.8,0,1.1-0.1,1.6-0.4c0.1-0.4,0.2-0.8,0.1-1C406.2,349.3,406.2,349.3,406.1,349.2z M394.9,349.7
			c-0.1-0.3-0.5-0.5-0.7-0.7c-0.1-0.1-0.7-0.1-1-0.1c-0.3,0.2-0.6,0.4-1.2,0.4c0.1,0.2,0.1,0.2,0.1,0.4c0,1,0.4,0.9,0.8,1.3
			c0.4,0,0.6,0,1,0c0.2-0.2,0.3-0.2,0.5-0.3c0.2-0.2,0.3-0.5,0.6-0.7C394.8,349.7,394.7,349.8,394.9,349.7z M386.7,352.2
			c-0.2,0.2-0.8,0.6-1.1,0.8c0,0.2,0,0.3,0.1,0.4c0.1,0.4,0.4,0.4,0.6,0.7c0.8,0,1-0.4,1.6-0.7c0-0.3-0.1-0.5,0-0.6
			C387.7,352.2,387.3,352.2,386.7,352.2z M395.7,355c-0.1,0.3,0.2,0.7,0.2,1c0.3,0,0.9,0.3,1.3,0.1c0.8,0,0.9-0.8,1-1.5
			c-0.1-0.1-0.1-0.2-0.2-0.3C397.3,353.9,395.9,354.3,395.7,355z M389.1,357.4c-0.2,0.3-0.7,0.5-1,0.7c0,0.4,0.1,0.7,0.2,0.9
			c0.7,0.5,1.2,0,1.8-0.2c0-0.4,0-0.7-0.1-0.9C389.8,357.6,389.5,357.4,389.1,357.4z M396.2,358.7c-0.2,0.2-0.5,0.3-0.8,0.4
			c-0.2,0.6-0.2,0.9,0.1,1.3c0.2,0.1,0.5,0.2,0.7,0.1c0.7,0,0.6-0.4,1-0.7C397.2,359,397,358.7,396.2,358.7z M437.3,236.1
			c-0.1,0-0.1,0-0.1,0c-0.3-0.6-0.3-1.2-0.4-1.8c-0.1-0.4,0.2-1,0.1-1.6c-0.2-0.8-0.2-2.1-0.4-3c-0.4-1-1-1.8-1.6-2.7
			c-0.2-0.3-0.1-0.5-0.2-0.8c-0.1-0.3-0.4-0.6-0.5-0.8c-0.2-0.4-0.2-0.7-0.4-1.1c-0.1-0.2-0.4-0.5-0.5-0.7c0,0-0.1,0-0.1,0
			c0,0,0-0.4-0.1-0.6c-0.1-0.1-0.3-0.2-0.4-0.4c-0.5-0.7-0.8-1.3-1.3-1.9c-0.3-0.3-0.7-0.5-1-0.8c-1.2-1.5-2.7-2.9-4.4-4
			c0.1-0.2,0.1-0.3,0.2-0.4c0,0,0,0,0-0.1c-0.2,0-0.2,0-0.4,0.1c-1,0-0.5-0.2-1-0.4c-0.2-0.1-0.4-0.1-0.7-0.2
			c-0.2-0.2-0.4-0.5-0.6-0.7c-0.1,0-0.3,0-0.4-0.1c-0.2-0.1-0.3-0.3-0.4-0.4c-0.1,0-0.2,0-0.4-0.1c-0.2-0.1-0.3-0.3-0.5-0.4
			c-0.1,0-0.3,0-0.4,0c-0.2-0.1-0.3-0.4-0.4-0.5c-0.4-0.2-0.6-0.2-1-0.4c-0.1-0.1-0.3-0.3-0.5-0.4c-0.2,0-0.4,0-0.7,0
			c-0.2-0.1-0.5-0.4-0.7-0.5c-0.3-0.1-0.6-0.1-1-0.2c-0.1-0.1-0.1-0.1-0.2-0.2c-0.4-0.2-0.8,0-1.3-0.2c-0.1-0.1-0.2-0.4-0.3-0.4
			c-0.2-0.1-0.3,0.2-0.6,0.1c-0.2,0-0.4-0.3-0.5-0.4c-0.3-0.1-0.5,0-0.7-0.1c-0.1-0.1-0.5-0.3-0.7-0.4c-0.1,0-0.2,0-0.3,0.1
			c-0.5-0.2-1-0.6-1.5-0.8c-0.3,0-0.5,0-0.8,0c-0.1,0-0.4-0.2-0.4-0.2c-0.3,0-0.6,0-0.9,0c-0.1,0-0.3-0.2-0.4-0.3
			c-0.6-0.2-1.1-0.1-1.8-0.2c-0.6-0.1-1.3-0.3-1.8-0.4c-0.9-0.3-2.5,0.3-3.3,0.1c-0.4-0.1-0.8-0.5-1.2-0.5c-0.2,0-0.5,0.1-0.7,0.1
			c-0.1-0.1-0.5-0.2-0.7-0.3c-0.4,0-0.8,0-1.2,0c-1.1-0.2-2.3-0.2-3.3,0c-0.6,0-1.1,0-1.7-0.1c-0.1,0.1-0.1,0.1-0.2,0.2
			c-0.5,0-1.1,0-1.6,0c-0.4-0.1-0.7,0.1-1.1,0.2c-0.4,0.1-0.7-0.1-1.2,0c-0.4,0.1-1.1,0.4-1.5,0.5c-0.2,0-0.4,0-0.6-0.1
			c-0.5,0.1-1,0.3-1.5,0.4c-0.6,0-1.2,0-1.8,0.1c-0.6,0.2-1.4,0.5-2,0.7c-0.4,0.1-1.2,0-1.3,0.1c-0.2,0.2-0.3,0.3-0.5,0.5
			c-0.2,0-0.5,0-0.7,0c-0.2,0.1-0.4,0.1-0.7,0.2c-0.5,0.2-1,0.6-1.4,0.7c-0.8,0.3-1.5,0.3-2.3,0.7c-0.2,0.1-0.6,0.4-0.8,0.5
			c-0.4,0.2-0.8,0.1-1.3,0.3c-0.5,0.2-1.2,0.6-1.6,0.8c-0.2,0-0.4,0-0.6,0c-0.2,0.1-0.3,0.4-0.4,0.4c-0.2,0-0.3,0-0.5,0.1
			c-0.4,0.2-0.8,0.7-1.1,0.9c-0.1,0-0.3,0-0.4,0.1c-0.3,0.2-0.6,0.6-0.9,0.7c-0.3,0.2-0.5,0.1-0.7,0.3c-0.2,0.2-0.4,0.4-0.7,0.7
			c-0.3,0.2-0.6,0.2-0.9,0.4c-0.1,0.2-0.3,0.3-0.4,0.5c-0.1,0-0.2,0-0.3,0c-0.3,0.1-0.6,0.5-0.9,0.7c-0.2,0.1-0.4,0.1-0.6,0.2
			c-0.4,0.3-0.7,0.9-1.1,1.2c-0.1,0-0.2,0-0.4,0.1c-0.3,0.3-0.6,0.6-1,1c-0.3,0.2-0.6,0.3-0.8,0.4c-0.1,0.1-0.2,0.3-0.4,0.4
			c-0.4,0.2-0.7,0.3-1,0.5c-0.6,0.4-1.1,1.5-1.7,1.9c-0.2,0.2-0.5,0.2-0.7,0.4c-0.4,0.5-0.9,0.9-1.3,1.4c-0.6,0.4-1.1,0.9-1.6,1.3
			c-0.4,0.3-0.8,0.5-1.3,0.8c-0.7,0.7-1.4,1.4-2.1,2.1c0,0.1,0,0.2-0.1,0.3c-0.1,0.2-0.4,0.1-0.5,0.3c-0.3,0.3-0.4,0.7-0.7,1
			c-0.2,0.1-0.3,0.2-0.5,0.4c-0.1,0.1-0.1,0.3-0.2,0.4c-1,1-2.2,2-3,3.2c-0.4,0.5-0.6,1.1-1,1.6c-0.2,0.1-0.3,0.2-0.5,0.3
			c-0.3,0.4-0.5,0.9-0.7,1.3c-0.4,0.5-1.1,0.9-1.5,1.4c-0.3,0.4-0.5,0.8-0.8,1.3c-0.1,0.1-0.2,0.2-0.4,0.3c-0.3,0.4-0.4,0.9-0.7,1.4
			c-0.2,0.4-0.6,0.7-0.8,1.1c0,0.2-0.1,0.4-0.1,0.7c-0.2,0.1-0.3,0.3-0.5,0.4c-0.2,0.3-0.2,0.7-0.4,1c-0.1,0.1-0.3,0.3-0.4,0.4
			c-0.1,0.3-0.1,0.5-0.2,0.8c-0.4,0.7-1,1.4-1.3,2.2c-0.2,0.4-0.1,0.8-0.3,1.1c-0.4,0.8-0.9,1.7-1.3,2.5c-0.1,0.4,0,0.7-0.2,1
			c-0.1,0-0.1,0-0.2,0.1c-0.2,0.2-0.1,0.6-0.2,0.9c-0.1,0.2-0.4,0.5-0.4,0.7c0,0.2,0,0.4-0.1,0.7c-0.1,0.4-0.5,0.9-0.7,1.3
			c0,0.2,0,0.5-0.1,0.7c-0.1,0.1-0.2,0.2-0.3,0.3c0,0.3-0.1,0.6-0.1,0.9c-1.1,2.9-1.5,6-2.4,9.2c0,0.5,0,0.9,0,1.4
			c-0.2,0.9-0.2,2.2-0.4,3c-0.2,0.6,0.2,1.2,0.1,1.7c0,0.1-0.2,0.3-0.2,0.4c0,0.4-0.1,0.8-0.1,1.2c-0.1,0.2-0.3,0.4-0.4,0.7
			c-0.1,0.4,0.3,0.9,0.1,1.5c-0.4,1.7-0.5,3.5-0.7,5.3c-0.1,0.7,0.5,1.9,0.1,2.4c0,0.4,0.1,0.4,0.2,0.6c1.2,0,1.4-1.5,1.2-2.6
			c-0.1-0.6,0-1.6,0.1-2.3c0.1-0.5-0.3-1.2-0.1-1.8c0.1-0.4,0.4-1.1,0.4-1.4c0.1-0.7-0.1-1.4,0.1-2.1c0.2-0.6,0.6-1.9,0.6-2.5
			c0-0.4-0.1-1.1-0.1-1.3c0-0.2,0.3-0.7,0.3-1c0-0.3-0.2-0.8-0.1-1.3c0.2-0.7,0.2-1.4,0.4-2.1c0.1-0.4-0.1-0.6-0.1-0.9
			c0.3-1.6,0.7-2.9,1.1-4.4c0-0.4,0-0.8,0.1-1.2c0.3-0.9,0.7-1.7,1-2.5c0.1-0.2-0.1-0.3,0-0.6c0.6-1.6,1.1-3.3,1.8-4.7
			c0.1-0.3,0.1-0.6,0.2-0.9c0.1-0.1,0.2-0.2,0.4-0.4c0-0.3,0.1-0.6,0.1-0.9c0.1-0.5,0.4-1,0.6-1.4c0-0.1,0-0.2,0-0.3
			c0-0.1,0.2-0.2,0.3-0.2c0.1-0.4,0.2-0.7,0.4-1.1c0.2-0.3,0.5-0.6,0.6-0.9c0.2-0.3,0.1-0.7,0.3-1c0.2-0.2,0.3-0.3,0.5-0.5
			c0.2-0.3,0.4-1,0.4-1.3c0.6-0.1,0.2-0.5,0.5-0.9c0.1-0.1,0.4-0.2,0.5-0.4c0.1-0.2,0-0.4,0.1-0.6c0.2-0.2,0.5-0.4,0.6-0.7
			c0.1-0.2-0.1-0.5,0.1-0.7c0.1,0,0.2,0,0.3-0.1c0.2-0.2,0.2-0.4,0.3-0.6c0.2-0.1,0.3-0.2,0.5-0.4c0.4-0.6,0.8-1.3,1.3-1.7
			c0-0.1,0-0.1,0-0.2c0.5-0.1,1.5-1.6,1.6-2.1c0.1,0,0.1,0,0.2,0c0-0.1,0-0.1,0-0.2c0.1,0,0.1,0,0.2,0c0.1-0.8,1-1.1,1.5-1.6
			c0.4-0.4,0.5-1.1,0.9-1.4c0.1,0,0.1,0,0.2,0c0.2-0.1,0.6-0.5,0.7-0.7c0.8-1.1,1.7-2.1,2.7-3c0.1-0.1,0.4-0.2,0.5-0.3
			c0.3-0.3,0.5-0.7,0.8-1c0.1-0.1,0.3-0.2,0.4-0.3c0.1-0.2,0.2-0.5,0.4-0.6c0.2-0.1,0.4,0,0.6-0.1c0.3-0.2,1.7-1.2,1.8-1.5
			c0-0.1,0-0.1,0-0.2c0.2-0.1,0.4-0.1,0.6-0.2c0.3-0.2,0.4-0.6,0.7-0.8c0.5-0.4,1.1-0.7,1.6-1.1c0.4-0.4,0.7-0.8,1-1.2
			c0.3-0.3,0.7-0.3,0.9-0.7c0.2,0,0.3,0,0.5-0.1c0.1-0.3,1.3-1.2,1.6-1.4c0.3-0.3,0.5-0.5,0.8-0.8c0.4-0.3,0.9-0.5,1.3-0.8
			c0.2-0.2,0.3-0.3,0.5-0.5c0.4-0.2,0.7-0.2,1.1-0.4c0.1-0.2,0.3-0.4,0.4-0.6c0.2-0.2,0.5-0.1,0.7-0.3c0.5-0.3,0.8-0.8,1.4-1
			c0.1-0.6,1-0.7,1.5-1c0.4-0.3,0.8-0.3,1.3-0.6c0.4-0.2,0.9-0.6,1.3-0.8c0.7-0.3,1.4-0.1,2.1-0.4c0,0,0.3-0.4,0.3-0.4
			c0.2,0,0.3,0,0.5,0c0.2-0.1,0.5-0.4,0.7-0.4c0.1,0,0.4,0,0.6-0.1c0.2-0.1,0.5-0.5,0.7-0.5c0.2-0.1,0.6,0,1-0.1
			c0.2-0.1,0.4-0.4,0.7-0.5c0.6-0.2,1,0,1.6-0.1c0.3-0.1,0.6-0.4,0.8-0.5c0.1,0,0.3,0,0.4,0c0.3-0.1,0.5-0.2,0.7-0.3
			c0.5-0.2,1.1-0.2,1.6-0.3c0.3,0,0.5,0,0.8,0c0.9-0.3,1.9-0.3,2.7-0.5c0.3,0,0.5,0,0.8,0c0.7-0.2,1.3-0.4,2-0.6
			c0.5-0.1,0.8,0.1,1.2,0c0.7-0.1,1.5-0.1,2.2-0.3c0.7-0.2,1.6,0.1,2.1-0.1c0.2-0.1,0.6,0.1,0.7,0.1c0.4,0,0.8,0,1.3-0.1
			c0.3,0.1,0.7,0.2,1.1,0.1c0.5,0,2,0.3,2.5,0.5c0.3,0.1,0.7-0.1,0.9-0.1c1.1,0.2,3.3,0.4,4.3,0.1c0,0.1,0.1,0.1,0.1,0.3
			c0.2,0,0.5,0.1,0.6,0.1c0.1,0,0.3-0.3,0.6-0.1c0.1,0.1,0.1,0.2,0.2,0.3c0.3,0.2,0.6,0,1,0.1c0.8,0.2,1.6,0.6,2.3,0.8
			c0.2,0,0.5,0,0.7-0.1c0.1,0,0.9,0.3,0.9,0.3c0,0.1,0,0.1,0.1,0.2c0.3,0.2,0.6,0,1,0.1c0.1,0.1,0.2,0.2,0.3,0.3
			c0.4,0.2,0.8,0.3,1.1,0.4c0.4,0.2,0.6,0.1,1,0.2c0.5,0.2,0.9,0.4,1.5,0.6c0.2,0,0.4,0,0.7,0c0.1,0,1.2,0.5,1.3,0.5
			c0.1,0.1,0.2,0.3,0.3,0.4c0.1,0,0.3,0,0.4,0c0.5,0.2,0.9,0.8,1.3,1.1c0.7,0.4,1.5,0.4,2.1,0.9c0.1,0.1,0.1,0.2,0.1,0.3
			c0.4,0.3,0.9,0.5,1.3,0.8c0.3,0.2,0.6,0.6,0.9,0.8c0.1,0,0.3,0,0.4,0.1c0.1,0.1,0.3,0.5,0.4,0.5c0.3,0.2,0.9,0.4,1.1,0.7
			c0.5,0.6,1,1.3,1.6,1.8c0.2,0.1,0.3,0.2,0.5,0.3c0.3,0.4,0.5,0.9,0.8,1.3c0.1,0.1,0.3,0.1,0.4,0.2c0.2,0.2,0.2,0.4,0.3,0.6
			c0.2,0.2,0.6,0.4,0.7,0.6c0.2,0.3,0.2,0.8,0.4,1.2c0.1,0.2,0.4,0.4,0.4,0.6c0,0.1,0,0.2,0,0.4c0.1,0.1,0.5,0.4,0.6,0.5
			c0.1,0.2,0.1,0.4,0.2,0.7c0.1,0.1,0.3,0.3,0.4,0.4c0,0.2,0,0.3,0,0.5c0.4,1,0.9,2,1.3,3.2c0.3,0.9-0.1,1.8,0.1,2.7
			c0.1,0.3,0.3,1.2,0.4,1.6c0.1,0.3-0.2,0.8-0.1,1.2c0,0.1,0.2,0,0.1,0.2c0,0.2-0.2,0.8-0.3,1.1c-0.2,0.8-0.1,1.9-0.1,2.5
			c0,0.3-0.4,0.7-0.4,1c-0.1,0.3,0.1,0.5,0,0.9c-0.2,0.6-0.5,1.1-0.7,1.6c-0.2,0.6-0.3,1-0.4,1.5c0,0.1,0,0.2,0,0.4
			c-0.4,0.7-1.4,1.7-1.6,2.5c-0.1,0-0.1,0-0.2,0c-0.1,0.5-0.5,0.9-0.7,1.3c-0.2,0.3-0.1,0.6-0.3,0.9c-0.1,0.1-0.2,0.1-0.3,0.2
			c0,0.1,0,0.2-0.1,0.4c-0.1,0.1-0.2,0.1-0.3,0.1c-0.1,0.2-0.1,0.4-0.2,0.6c-0.1,0.1-0.3,0.1-0.4,0.2c0,0.1,0,0.2-0.1,0.4
			c-0.1,0.1-0.3,0.2-0.4,0.3c0,0.1,0,0.3-0.1,0.4c-0.1,0.2-0.3,0.4-0.4,0.7c0,0.1,0,0.1,0,0.2c-0.1,0-0.1,0-0.2,0.1
			c-0.2,0.2-0.5,0.6-0.7,0.8c-0.1,0.2-0.1,0.4-0.2,0.7c-0.2,0.1-0.3,0.2-0.5,0.3c-0.3,0.4-0.5,0.9-0.8,1.4c-0.1,0.2-0.4,0.2-0.6,0.4
			c0,0.1-0.1,0.3-0.1,0.4c-0.2,0.3-0.9,0.8-1,1.1c0,0.1,0,0.2,0,0.3c-0.4,0.8-1.3,1.5-1.8,2.2c-0.5,0.7-0.7,1.4-1.2,2.1
			c-0.2,0.2-0.4,0.4-0.7,0.7c-0.4,0.6-0.6,1.2-1,1.8c-0.1,0.1-0.3,0.2-0.4,0.3c-0.4,0.4-0.6,1.1-0.9,1.6c-0.4,0.7-1.1,1.4-1.6,2.1
			c-0.3,0.5-0.5,1-0.7,1.5c-0.4,0.8-1.1,1.5-1.6,2.3c-0.3,0.5-0.4,1-0.7,1.5c-0.3,0.5-0.9,1-1.2,1.6c0,0.1,0,0.3,0,0.4
			c-0.2,0.4-1.1,2.5-1.6,2.8c-0.1,0.1-0.2-0.1-0.3-0.2c-0.8,0-0.9,0.5-1.5,0.7c0,0.2,0,0.2,0.1,0.3c0,0.6,0.2,0.6,0.4,0.9
			c0.3,0,0.6-0.1,0.7,0.1c0.1,0.3-0.2,0.9-0.3,1.2c0,0.3,0,0.5-0.1,0.8c-0.1,0.3-0.5,0.8-0.6,1.1c-0.1,0.2,0.1,0.2,0,0.5
			c-0.1,0.4-0.4,0.9-0.6,1.3c-0.6,1.3-0.6,2.8-1,4.1c-0.1,0.2-0.3,0.4-0.4,0.5c0,0.3,0,0.6-0.1,1c-0.1,0.2-0.3,0.5-0.4,0.7
			c-0.2,0.6-0.1,1.8-0.2,2.3c-0.4,1-0.8,2.6-0.8,3.8c-0.6,0.3-1,0.8-1.6,1.1c0,0.9,0.5,1.2,1,1.6c0,0.3,0,0.7-0.2,1l-1.8,1
			c-0.1,0.3-0.1,0.5,0.1,0.7c0.1,0.3,0.4,0.4,0.7,0.6c0.3,0,0.4-0.2,0.5-0.1c0.1,0,0.1,0,0.2,0c0.1,0.7-0.2,1.7,0,2.4
			c0.1,0.4,0.3,1.3,0.1,2c-0.1,0.2-0.2,0.8-0.1,1.1c0.1,0.6,0.2,1.3,0.1,1.8c-0.1,0.7,0.6,1.3,0.2,1.9c0,0.3-0.1,0.3-0.1,0.4
			c-0.1,0-0.1,0-0.1,0.1c-0.5,0-1-0.2-1.2-0.5c-0.1-0.3,0.2-0.5,0.2-0.9c-0.1-0.1-0.3-0.3-0.4-0.5c-0.9-0.1-1.4,0.4-2,0.8
			c0,0.3,0,0.4,0.2,0.7c0.1,0.3,0.4,0.3,0.6,0.5c0.3-0.1,0.3-0.2,0.4-0.4c0.2,0,0.1,0,0.2,0.1c0,0,0.1,0,0.1,0c0,0.1,0,0.2,0,0.3
			c-0.6,0.1-0.5,0.4-0.7,0.7c0.1,0.2,0.1,0.4,0.2,0.7c0.3,0.1,0.7,0.2,1,0.1c0.5,0,0.5,0.4,0.7,0.7c0.4,0.1,0.7,0.1,1,0.1
			c0,0.1,0,0.1,0.1,0.2c0.1,0.1-0.2,0.3-0.2,0.4c-0.1,0-0.1,0-0.1,0.1c-0.6-0.1-0.6-0.4-1-0.5c-0.3-0.1-2.2,1.1-2.4,1.5
			c-0.4,0-0.6-0.3-0.7-0.5c-0.8,0-1,0.5-1.5,0.8c0,0.5,0.1,0.6,0.4,0.8c-0.1,0.5-0.7,0.8-1,1c-0.2,1.2-0.1,1.3-1,1.8
			c0,0.6,0.2,0.9,0.6,1c-0.2,0.4-1.8,1-2.4,1.1c-0.3,0-0.8,0.3-1,0.1c-0.3-0.1-0.4-0.4-0.7-0.5c0.1-0.6,0.9-0.3,1.1-1
			c0-0.1-0.2-0.7-0.3-0.9c-0.1-0.3-0.2-0.2-0.4-0.3c-0.6,0.1-1.1,0.7-1.6,1c0,0.4,0.1,0.6,0.4,0.8c-0.1,0.8-0.5,0.5-0.7,0.9
			c0,0.3-0.1,0.7-0.1,1c-1.1,0.2-2.3,0.9-3.3,1.3c-0.6,0.2-1.1,0.2-1.5,0.5c-1.1,0-0.4-0.3-0.8-0.7c-0.2-0.2-0.4,0-0.5-0.2
			c-0.7,0.1-0.9,0.5-1.3,0.7c0,0.4,0.1,0.5,0.3,0.7c-0.1,0.6-0.5,0.4-1,0.6c-0.4,0.2-1,0.5-1.3,0.7c-0.5,0.2-0.8,0-1.3,0.2
			c-0.3,0.1-0.5,0.5-0.7,0.7c-0.4,0-0.8,0-1.2,0.1c-0.3,0.1-0.7,0.5-1,0.6c-0.5,0.2-0.9,0.2-1.5,0.4c-0.6,0.2-1.4,0.7-2,1
			c-0.3,0-0.5,0.1-0.8,0.1c-0.4,0.2-0.8,0.6-1.2,0.7c-0.2,0-0.3,0-0.5,0c-0.5,0.2-1,0.7-1.6,0.9c-0.4,0.2-0.6,0.1-1,0.3
			c-0.6,0.3-1.3,0.9-1.9,1.2c-0.6,0.2-0.8,0.1-1.3,0.4c-0.5,0.2-1.2,0.7-1.8,0.7c0-0.1,0-0.3,0-0.4c0.1-0.1,0.3-0.2,0.4-0.3
			c0,0,0-0.1,0-0.1c0.1-0.3-0.1-0.6-0.1-0.8c0-0.2,0.2-0.5,0.1-0.7c0-0.1-0.1-0.3-0.1-0.4c0.1-0.5,0-0.8-0.1-1.3
			c-0.1-0.5,0.2-1.9,0.3-2.4c0-0.3,0-0.6,0-1c0.1-0.4,0.1-0.9,0.1-1.3c0-0.2,0-0.5-0.1-0.7c0-0.1,0.2-0.4,0.2-0.5
			c0.1-0.4-0.3-0.8-0.1-1.3c0-0.1,0.2-0.5,0.2-0.6c0.1-0.5-0.2-1.3-0.1-1.9c0.5-2.7,0.8-6.1,1.5-8.7c0.2-0.6-0.2-1.4-0.1-2
			c0.1-0.7,0.5-1.8,0.7-2.4c0.1-0.5,0-1,0.1-1.3c0.1-0.3,0.3-0.7,0.4-1c0-0.3,0-0.7,0.1-1c0.1-0.2,0.3-0.4,0.4-0.6
			c0.2-0.5-0.1-1,0.1-1.6c0.3-0.6,0.7-1.3,1-1.9c0.1-0.3-0.1-0.6,0-0.7c0.4-0.7,0.8-1.5,1.1-2.3c0.1-0.3,0.2-1,0.3-1.2
			c0.1-0.1,0.5-0.3,0.6-0.4c0.1-0.2,0-0.3,0.1-0.5c0.4-0.8,0.7-1.7,1.2-2.4c0.2-0.2,0.3-0.3,0.5-0.5c0.2-0.3,0.2-0.6,0.4-1
			c0.1-0.1,0.3-0.3,0.4-0.4c0-0.1,0-0.2,0-0.3c0.1-0.3,0.5-0.6,0.7-0.9c0.1-0.2,0.1-0.5,0.3-0.7c0.1-0.1,0.2-0.1,0.3-0.1
			c0.2-0.3,0.2-0.6,0.4-0.9c0.1-0.1,0.3-0.2,0.4-0.4c0.3-0.4,0.3-0.8,0.6-1.2c0.1-0.1,0.3-0.2,0.4-0.3c0.4-0.4,0.5-1.1,0.9-1.5
			c0.1-0.1,0.3-0.1,0.4-0.2c0.3-0.4,0.5-0.9,0.8-1.3c0.1-0.1,0.4-0.2,0.5-0.4c0.5-0.7,0.8-1.5,1.3-2.1c0.2-0.3,0.7-0.5,1-0.7
			c0.2-0.2,0.2-0.7,0.4-0.9c0.3-0.3,0.8-0.5,1-0.8c0.7-1,1.7-1.6,2.6-2.4c0.3-0.3,0.8-0.7,1-1c0.1-0.2,0.1-0.4,0.3-0.6
			c0.3-0.2,0.7-0.4,1-0.7c0.5-0.6,1.8-2.6,2.4-2.8c0-0.1,0-0.1,0-0.2c0.6-0.1,1-0.9,1.3-1.3c0.2-0.3,0.6-0.4,0.8-0.7
			c0.5-0.6,0.9-1.2,1.3-1.9c0.4-0.6,1.1-1.2,1.5-1.8c0.2-0.2,0.2-0.6,0.4-0.8c0.2-0.2,0.5-0.4,0.7-0.7c0.4-0.6,0.5-1.2,0.9-1.8
			c0.1-0.1,0.2-0.2,0.3-0.3c0-0.1,0-0.2,0-0.4c0.1-0.3,0.5-0.6,0.7-0.8c0-0.2,0-0.4,0-0.6c0.1-0.3,0.4-0.5,0.5-0.8
			c0-0.3,0.1-0.6,0.1-0.9c0.4-1.1,0.9-3.2,0.5-4.6c-0.2-0.6-0.6-1-0.9-1.5c-0.1-0.2,0-0.4-0.1-0.5c-0.1-0.1-0.3-0.2-0.4-0.3
			c-1.4-2.2-3.7-2.8-6.4-3.7c-0.6-0.2-1.3,0-1.8-0.1c-2.1-0.4-5.3,0.2-7.1,0.9c-0.7-0.2-0.9,0.4-1.5,0.7c-0.4-0.2-0.7,0.3-1,0.4
			c-0.8,0.6-2.3,1-3,1.7c0,0.1,0,0.2-0.1,0.4c-0.2,0.2-0.6,0.3-0.9,0.5c-0.5,0.4-0.8,1-1.3,1.4c-0.4,0.3-1,0.7-1.3,1.1
			c-0.2,0.3-0.4,0.6-0.6,0.9c-0.2,0.1-0.3,0.2-0.5,0.4c-0.2,0.2-0.2,0.5-0.4,0.7c-0.3,0.3-0.8,0.4-1,0.7c-0.4,0.4-0.6,1-1,1.5
			c-0.2,0.3-0.6,0.5-0.8,0.7c-0.3,0.4-0.4,0.8-0.7,1.2c-0.1,0.2-0.4,0.3-0.6,0.5c-0.2,0.3-0.1,0.8-0.4,1.1c-0.1,0.1-0.3,0.1-0.4,0.2
			c-0.2,0.3-0.2,0.6-0.4,0.9c-0.1,0.1-0.3,0.3-0.4,0.5c-0.1,0.3-0.1,0.6-0.2,1c-0.1,0.1-0.3,0.3-0.4,0.4c-0.3,0.8-0.4,1.5-0.8,2.1
			c-0.5,0.9-0.8,1.9-1.3,2.9c-0.1,0.1-0.2,0.2-0.3,0.3c0,0.3,0,0.5-0.1,0.8c-0.1,0.3-0.4,0.6-0.5,0.9c0,0.1,0,0.4-0.1,0.6
			c-0.1,0.2-0.5,0.4-0.7,0.6c-0.3,0.3-0.6,1.1-0.7,1.5c-0.2,0.5,0,0.9-0.1,1.3c-0.2,0.4-0.6,1-0.7,1.5c-0.1,0.4,0,1.1,0.1,1.3
			c0,1.3-0.7,0.6-1.5,0.9c-0.1,0.1-0.1,0.1-0.2,0.2c-0.4,0.1-1-0.1-1.4-0.1c-1.3,0.3-2.6,0.3-3.5,0.6c-0.5,0.2-0.9,0-1.3,0.1
			c-1.1,0.5-2.5,0.2-3.7,0.3c-0.6,0.1-1.5,0.2-2.4,0.4c-0.4,0.1-0.9-0.1-1.2-0.1c-0.2,0-0.9,0.1-1.3,0.1c-0.9,0-1.8,0-2.7,0.1
			c-0.4,0.1-0.8,0.4-1.2,0.5c-0.7,0.2-1.5-0.2-2.1,0c-0.5,0.1-1.1,0.4-1.6,0.5c-0.4,0.1-0.9,0-1.1,0c-0.6,0.1-1.1,0.1-1.5,0.2
			c-0.2,0-0.4,0-0.6-0.1c-1,0.2-2.2,0.8-3.2,1c-0.3,0-0.5,0-0.8,0c-0.5,0.2-1.1,0.5-1.6,0.7c-0.4,0-0.7,0.1-1.1,0.1
			c-0.2,0.1-0.4,0.3-0.6,0.4c-0.3,0-0.7,0.1-1,0.1c-0.4,0.1-0.6,0.5-1,0.6c0,0.3-0.1,0.4,0,0.5c0,0.1,0,0.1,0.1,0.2
			c0.8,0,1.8-0.2,2.4-0.4c0.1,0,0.3-0.3,0.4-0.3c0.1,0,0.2,0,0.3,0.1c0.1,0,0.5-0.3,0.7-0.3c0.2,0,0.3,0,0.5,0.1
			c0.5-0.2,1.1-0.6,1.6-0.7c0.4,0,0.8,0,1.3-0.1c0.5-0.2,1.1-0.5,1.6-0.6c1-0.3,2.1,0.1,3-0.1c0.9-0.3,2.1-0.3,2.9-0.7
			c0.3,0.1,1,0.2,1.4,0.1c0.2-0.1,0.3-0.3,0.5-0.4c0.3,0,0.6,0,0.9,0l0.3-0.1c0.2,0,0.5,0.2,0.8,0.1c0.1,0,0.4-0.2,0.4-0.2
			c0.1,0,0.4,0.1,0.6,0.1c0.7,0,1.3,0,1.8-0.1c0.6,0,1.2,0,1.8,0c0,0,0.1-0.2,0.1-0.2c0.4-0.2,0.6,0.1,0.9,0.1
			c0.4,0,1.5-0.3,1.8-0.2c0.3,0,0.7,0.3,1,0.1c0.3-0.1,0.7-0.4,1-0.4c0.2,0,0.4,0,0.6,0.1c0.7-0.2,1.6-0.3,2.4-0.4
			c0.5-0.1,0.9,0.1,1.1,0.1c0.2,0,0.5-0.3,0.7-0.3c0.5-0.1,1.3,0.3,1.9,0.1c0.7-0.2,1.6-0.2,2.2-0.4c0.1-0.4,0.6-1.5,0.9-1.7
			c0.5-0.4,1-0.5,1.4-1c0.5-0.5,0.8-1.2,1.3-1.7c0.1-0.1,0.2-0.1,0.3-0.1c0.2-0.2,0.3-0.6,0.5-0.7c0.1,0,0.2,0,0.3-0.1
			c0.5-0.6,0.8-1.4,1.6-1.7c0.1-0.1,0.1-0.1,0.3-0.1c0,0,1.4-2,1.4-2c0.4-0.3,0.8-0.4,1.1-0.7c0.2-0.2,0.3-0.5,0.4-0.7
			c0.2-0.2,0.5-0.2,0.8-0.4c0.2-0.1,0.3-0.4,0.4-0.6c0.2-0.2,0.5-0.2,0.7-0.4c0.1-0.1,0.5-0.6,0.6-0.7c0.2-0.1,0.9-0.2,1.1-0.3
			c0.3-0.2,0.8-0.4,1.1-0.6c0.1-0.1,0.2-0.4,0.4-0.4c0.3-0.2,0.6-0.1,0.9-0.2c0-0.1,0.1-0.1,0.1-0.2c0.1,0,0.4,0,0.7-0.1
			c0.4-0.2,0.7-0.7,1-0.9c0.3-0.2,0.8-0.1,1.1-0.3c0.6-0.2,0.6-0.9,0.7-1.6c0.1-0.4,0-1-0.1-1.5c0-0.3,0.2-0.9,0.2-1.2
			c0.2-0.8-0.1-1.2,0.1-2c0.1-0.5,0.3-1,0.4-1.4c0.1-0.3-0.1-0.3,0-0.7c0.3-0.8,0.9-1.7,1.3-2.7c0-0.2,0-0.3,0-0.5
			c0.1-0.3,0.3-0.5,0.4-0.7c0-0.1,0-0.3,0.1-0.4c0.1-0.1,0.3-0.1,0.4-0.2c0.3-0.4,0.5-0.8,0.7-1.2c0.2-0.2,0.4-0.4,0.7-0.6
			c0.4-0.6,1.3-1.6,1.9-1.8c0.9-0.4,2.4,0.1,3.1,0c0.8-0.1,1.9,0.3,2.6,0.6c0.5,0.2,0.9,0.1,1.3,0.3c1.8,0.8,3.9,2.8,4.4,4.9
			c0.1,0.5-0.3,1.5-0.4,1.9c0,0.2,0,0.4,0,0.7c-0.1,0.5-0.1,1-0.4,1.6c-0.3,0.8-0.9,1.8-1.4,2.5c0,0.1,0,0.2-0.1,0.4
			c-0.3,0.6-0.6,1.2-1,1.8c-0.3,0.5-0.9,0.9-1.3,1.4c-0.8,1.1-1.4,2.1-2.2,3.2c-0.3,0.4-0.9,0.6-1.2,1c-0.2,0.3-0.3,0.5-0.4,0.8
			c-0.2,0.4-0.8,0.6-1,0.9c-0.1,0.2-0.2,0.4-0.3,0.6c-0.1,0.2-0.4,0.3-0.6,0.4c-0.2,0.2-0.2,0.5-0.4,0.7c-0.1,0.1-0.3,0.1-0.4,0.2
			c0,0.1,0,0.1,0,0.2c-0.2,0.2-0.4,0.3-0.6,0.5c-0.1,0.1,0,0.3-0.1,0.4c-0.1,0.2-0.4,0.1-0.6,0.2c-0.3,0.2-0.3,0.8-0.6,1
			c-0.3,0.2-1.3,0.7-1.5,1c0,0.1,0,0.1,0,0.2c-0.2,0.3-0.5,0.3-0.7,0.5c-0.1,0.1-0.1,0.4-0.3,0.6c-0.1,0.1-0.3,0.1-0.4,0.1
			c-0.1,0.1-0.2,0.3-0.3,0.4c-0.3,0.3-0.7,0.5-1,0.8c-0.2,0.2-0.2,0.4-0.3,0.7c-0.2,0.3-0.6,0.5-0.8,0.7c-0.4,0.5-0.6,1.2-1,1.7
			c-0.1,0.2-0.4,0.2-0.6,0.4c-0.1,0.1-0.1,0.4-0.2,0.5c-0.1,0.1-0.3,0.2-0.4,0.3c-0.2,0.2-0.2,0.5-0.4,0.7c-0.2,0.2-0.5,0.4-0.7,0.7
			c-0.1,0.2-0.1,0.4-0.2,0.6c-0.1,0.1-0.4,0.1-0.4,0.2c-0.1,0.2-0.1,0.4-0.2,0.7c-0.1,0.1-0.3,0.2-0.4,0.4c-0.3,0.4-0.3,0.8-0.6,1.2
			c-0.3,0.2-0.5,0.5-0.8,0.7c-0.1,0.2,0,0.3-0.1,0.5c-0.3,0.4-0.8,0.9-1,1.3c-0.1,0.2-0.1,0.5-0.2,0.7c-0.7,0.9-1.2,1.9-1.9,2.8
			c-0.3,0.4-0.3,1-0.6,1.4c-0.1,0.2-0.4,0.3-0.4,0.4c-0.2,0.3-0.1,0.6-0.2,0.9c-0.3,0.6-0.9,1.2-1.1,1.8c-0.2,0.5-0.1,1-0.3,1.4
			c-0.4,0.8-1,1.9-1.3,2.8c-0.2,0.5,0,0.9-0.2,1.5c-0.2,0.6-0.6,1.3-0.8,1.9c-0.2,0.8,0,1.5-0.2,2.4c-0.1,0.6-0.3,1.3-0.5,2
			c-0.2,0.6,0,1.2-0.1,1.6c-0.2,0.9-0.4,2.4-0.7,3.2c0,0.1,0.1,0.2,0.1,0.4c-0.3,1.4-0.4,2.7-0.7,3.8c-0.2,0.6,0,1-0.1,1.6
			c-0.1,0.3-0.3,0.7-0.4,1c-0.2,0.7,0.3,1.1,0.1,1.8c0,0.1-0.2,0.5-0.1,0.9c0.1,0.3,0.3,0.8,0.1,1.2c-0.1,0.2-0.3,0.4-0.3,0.6
			c0,0.2,0,0.3,0.1,0.5c0,0.3-0.1,0.8-0.1,1.1c0,0.5,0,1.1-0.1,1.6c-0.1,0.3-0.3,0.8-0.2,1.3c0,0.1,0.1,0.4,0.1,0.4
			c0,0.7-0.3,1.6,0,2.2c0,0.3-0.3,0.9-0.2,1.3c0.1,0.2,0.7,0.7,0.9,1c-0.1,0.1-0.2,0.3-0.4,0.4c0,0.2,0,0.4,0.1,0.5
			c0.2,0,0.4,0.1,0.6,0.1c0.1,0,0.3-0.3,0.4-0.3c0.4-0.1,0.5,0.1,0.8-0.1c0.3-0.2,0.5-0.5,0.9-0.7c0.4-0.1,1.3-0.3,1.6-0.4
			c0.1,0,0.1-0.3,0.1-0.3c0.1,0,0.3,0,0.4,0c0.5-0.2,1-0.7,1.5-0.9c0.2,0,0.4-0.1,0.6-0.1c0.4-0.2,0.9-0.7,1.3-0.8
			c0.3,0,0.5-0.1,0.8-0.1c0.1,0,0.1-0.3,0.2-0.3c0.1,0,0.3,0,0.4,0.1c0.3-0.1,0.6-0.5,1-0.7c0.6-0.2,1.4-0.4,1.8-0.7
			c0.3-0.2,0.7-0.5,1-0.6c0.2,0,0.4-0.1,0.7-0.1c0.2-0.1,0.3-0.4,0.5-0.4c0.2,0,0.5-0.1,0.7-0.1c0.4-0.2,0.9-0.6,1.3-0.7
			c0.4-0.1,0.8-0.1,1.2-0.2c0.1-0.1,0.2-0.2,0.3-0.4c0.2-0.1,0.6-0.2,0.7-0.3c0.6,0.2,1.1-0.2,1.6-0.4c0.2,0,0.4,0,0.6,0
			c0.5-0.2,1.1-0.6,1.6-0.8c0.1,0,0.3,0,0.4,0c0.4-0.1,0.9-0.4,1.3-0.6c0.2,0.1,0.9-0.1,1.2-0.2c0.2-0.1,0.4-0.4,0.7-0.5
			c0.1,0,0.3,0,0.4,0c0.3-0.1,0.4-0.3,0.6-0.4c0.1,0,0.2,0,0.4,0c0.1-0.1,0.2-0.2,0.4-0.4c0.3-0.2,0.7,0,0.9-0.1
			c0.3-0.1,0.8-0.4,1.1-0.5c0.3,0,0.6-0.1,0.9-0.1c0.6-0.2,1.2-0.5,1.7-0.8c0.7,0.3,2.8-1,3.5-1.2c0.6-0.2,1.4,0,1.8-0.1
			c0.5-0.1,0.9-0.3,1.3-0.4c0.5-0.1,0.8,0.2,1.3-0.1c0.2-0.1,0.6-0.2,0.8-0.4c0.1-0.1,0.1-0.3,0.3-0.4c0.2,0,0.5-0.1,0.7-0.1
			c0.1,0,1.1-1.1,1.1-1.2c0.1-0.2,0-0.4,0.1-0.6c0.1,0,0.1-0.1,0.2-0.1c0.2-0.2,0.2-0.5,0.4-0.7c0.2-0.3,0.5-0.5,0.7-0.8
			c0.2-0.3,0.4-0.7,0.6-1c0-0.2,0-0.3,0.1-0.5c0.1-0.1,0.2-0.1,0.4-0.2c0.4-0.5,0.6-1,1-1.6c0.3-0.4,0.8-0.7,1.2-1.1
			c0.2-0.2,0.2-0.5,0.4-0.7c0.2-0.2,0.7-0.5,0.8-0.8c0.1-0.2,0-0.4,0.1-0.5c0.2-0.1,0.3-0.3,0.5-0.4c0.6-0.8,1.2-1.5,1.8-2.1
			c0.3-0.3,0.5-0.9,0.7-1.3c0.2-0.3,0.6-0.4,0.8-0.6c0.3-0.3,0.2-1.2,0.6-1.6c0-0.9-0.4-0.8-0.9-1.2c-0.1-0.2,0-0.6-0.1-0.9
			c-0.2-0.6-0.8-1.3-1-2c-0.2-0.6-0.1-1.3-0.2-1.9c0-0.3,0-0.6,0-0.9c-0.2-0.5-0.7-1.7-0.4-2.6c0.1-0.2,0.3-0.8,0.3-1
			c0-0.4-0.1-0.8-0.1-1.3c0.1-0.5,0.4-1.2,0.4-1.6c0-0.2,0-0.3-0.1-0.5c0-0.1,0.3-0.3,0.3-0.4c0-0.1,0-0.3-0.1-0.4
			c0.1-0.4,0.3-1.1,0.2-1.5c0-0.1-0.2-0.6-0.1-0.8c0-0.1,0.3-0.2,0.3-0.4c0-0.2-0.2-0.8-0.1-1.1c0.2-0.4,0.4-1.2,0.5-1.6
			c0.1-0.4-0.1-0.6,0-1c0.1-0.4,0.6-1.1,0.6-1.6c0-2.2,1.1-4.3,1.6-6.2c0-0.2-0.1-0.2,0-0.5c0.1-0.2,0.4-0.6,0.4-1
			c0-0.1,0-0.1-0.1-0.2c0-0.1,0.2-0.3,0.3-0.4c0.1-0.2,0.2-0.6,0.2-0.7c0-0.3,0-0.6,0.1-0.9c0.1-0.2,0.4-0.2,0.4-0.4
			c0-0.2,0-0.4,0-0.6c0.1-0.2,0.2-0.5,0.3-0.7c0-0.2,0-0.4,0.1-0.7c0.2-0.5,0.7-1.1,0.9-1.5c0.2-0.3,0.1-0.6,0.3-1
			c0.1-0.1,0.2-0.2,0.4-0.3c0-0.2,0-0.4,0.1-0.7c0.2-0.5,0.5-0.9,0.7-1.3c0.2-0.5,0.2-0.9,0.4-1.4c0.1-0.3,0.6-0.5,0.7-0.8
			c0-0.2,0-0.3-0.1-0.5c0.1-0.1,0.4-0.2,0.4-0.4c0.1-0.3,0.1-0.6,0.2-0.8c0.1-0.1,0.2-0.1,0.4-0.2c0.2-0.3,0.1-0.7,0.2-1
			c0.1-0.2,0.4-0.4,0.4-0.6c0-0.2,0-0.4,0.1-0.7c0.1,0,0.2,0,0.3-0.1c0.4-0.5,0.4-1.2,0.7-1.7c0.1-0.1,0.3-0.3,0.4-0.4
			c0.1-0.3,0.2-0.6,0.3-0.9c0.2-0.2,0.5-0.1,0.6-0.4c0-0.2,0-0.4,0-0.7c0.3-0.9,0.9-1.9,1.3-2.7c0.1-0.2,0-0.4,0.1-0.6
			c0.2-0.3,0.5-0.6,0.7-1c0.2-0.3,0.2-0.7,0.4-1c0.1-0.1,0.4-0.2,0.4-0.3c0-0.1,0-0.3,0.1-0.4c0.4-0.7,0.9-1.5,1.2-2.3
			c0-0.1,0-0.3,0-0.4c0.1-0.2,0.4-0.4,0.5-0.7c0-0.2,0-0.3,0.1-0.5c0.2-0.5,0.6-1,0.8-1.6c0-0.2,0-0.3,0-0.5
			c0.3-0.8,0.9-1.6,1.2-2.4c0.2-0.6,0.2-1.1,0.4-1.7c0.3-0.9,0.3-2.1,0.5-2.9c0.1-0.3-0.2-0.5-0.1-0.7
			C437,237.9,437.3,236.3,437.3,236.1z M366.3,277.8C366.3,277.8,366.2,277.8,366.3,277.8c-0.1,0-0.1,0-0.1,0
			c0.1-0.2,0.1-0.1,0.1-0.2C366.3,277.7,366.3,277.7,366.3,277.8z M400.4,320.8c0,0.1,0,0.1,0.1,0.1c0,0,0,0.1,0,0.1
			c-0.1,0-0.1,0-0.2,0c0-0.1,0-0.2-0.1-0.3C400.2,320.8,400.3,320.8,400.4,320.8z M403.6,321c-0.2,0.3,0,0.6-0.2,1
			c-0.2,0.2-0.4,0.4-0.7,0.7c0.1,0.2,0.1,0.5,0.4,0.7c0,0,0,0.1,0,0.1c-0.6,0.1-1.3,0.1-2,0.2c-0.1-0.2-0.3-0.7-0.5-0.8
			c-0.3-0.1-0.5,0-0.7-0.1c0,0,0,0-0.1,0c0.1-0.2,0-0.1,0.1-0.2c0.3-0.1,0.7,0.2,1.1,0.1l0.2-0.1c0,0,0,0,0.1,0.1
			c0.4-0.1,0.4-0.3,0.6-0.5c0-0.8-0.2-1.4-1-1.3c0.1-0.2,0.3-0.5,0.4-0.7c0.4,0.1,0.6,0.7,1,0.7c1.3,0,1.7-1,2.6-1
			c0,0.2,0,0.3,0.1,0.4C404.9,320.4,403.9,320.6,403.6,321z M405.9,321.4C405.9,321.4,405.9,321.5,405.9,321.4
			c-0.2-0.2-0.3-0.7-0.3-0.9c0.2,0.1,0.2,0.2,0.4,0.3C406,321,406,321.3,405.9,321.4z M417.2,307.9c0,0.1,0,0.1,0,0.2c0,0,0,0-0.1,0
			c0-0.1,0-0.1-0.1-0.2C417.1,307.9,417.2,307.9,417.2,307.9z"/>
	</g>
</g>
</svg>
