<?xml version="1.0" encoding="utf-8"?>
<!-- Generator: Adobe Illustrator 21.0.0, SVG Export Plug-In . SVG Version: 6.00 Build 0)  -->
<svg version="1.1" id="Calque_1" xmlns="http://www.w3.org/2000/svg" xmlns:xlink="http://www.w3.org/1999/xlink" x="0px" y="0px"
	 viewBox="0 0 841 595" style="enable-background:new 0 0 841 595;" xml:space="preserve">
<style type="text/css">
	.st0{fill:#DADADA;}
	.st1{fill:#1D1D1B;}
</style>
<g>
	<g>
		<path class="st0" d="M469.5,324.8c-0.1-0.2-0.4-0.6-0.6-0.9c-0.1-0.4-0.1-0.7-0.2-1c-0.5-0.8-1.7-2.4-2.5-3
			c-0.5-0.3-0.7-1-1.3-1.2v-0.2h-0.2c-0.2-0.3-0.5-0.5-0.8-0.7c-0.3-0.3-0.5-0.8-0.8-1.2c-0.1,0-0.2-0.1-0.2-0.1
			c-0.2-0.1-0.2-0.3-0.3-0.5c-0.2-0.3-0.6-0.5-0.9-0.7c-1-1.1-2-2.2-3.1-3.1c-0.4-0.3-0.5-0.9-0.9-1.1c-2.2-1.6-4.2-4-6.1-6.2
			c-0.3-0.3-1-1.2-1.4-1.4c-0.2-0.1-0.4-0.1-0.6-0.2c-0.1-0.1-0.1-0.3-0.2-0.5c-0.3-0.3-1-0.7-1.2-1c-0.1-0.2,0-0.3-0.2-0.5
			c-0.5-0.5-1.4-0.8-1.5-1.5h-0.2c-0.3-0.4-0.9-0.6-1.1-1c-0.2-0.2-0.1-0.7-0.3-0.8c-0.4-0.3-0.9-0.3-1.2-0.6
			c-0.1-0.1,0-0.3-0.1-0.5c-0.1-0.2-0.8-0.7-1-0.8c-0.3-0.2-0.4-0.6-0.6-0.8h-0.2c-0.1-0.1,0-0.3-0.2-0.5c-0.1-0.1-0.3-0.1-0.4-0.2
			c-0.4-0.4-0.8-1-1.2-1.4c-0.4-0.4-1-0.7-1.4-1.1c-0.1-0.1,0-0.2-0.1-0.3c-0.3-0.4-0.8-0.6-1.1-1c-0.2-0.3-0.3-0.7-0.6-1
			c-0.1-0.2-0.5-0.2-0.6-0.4c-0.6-1-1.3-1.9-2-2.9c-0.3-0.5-0.5-1.2-1.2-1.4c-0.2-1.5-1.5-2.2-2-3.6c-0.2-0.7,0-1.9,0-2.6
			c0-0.2-0.3-0.6-0.2-1c0-0.1,0.3-0.9,0.5-1.2c0.1-0.1,0.3-0.2,0.4-0.3c0.2-0.3-0.1-0.6,0.2-1c0.2-0.1,0.4-0.3,0.6-0.4
			c0.7-1,2.4-2.3,3.6-2.8c1-0.4,2.8-0.4,3.8-0.2c0,0,2.3-0.2,2.4-0.2c0.3,0,0.6,0.1,0.9,0.1c1.7-0.4,3.6-0.5,5.4-1
			c0.5-0.1,1.1,0,1.6-0.2c0.1,0,0.3-0.3,0.5-0.3c0.7-0.2,1.3,0,1.9-0.2c0.2-0.1,0.5-0.3,0.7-0.4c0.4-0.2,0.5,0.1,1-0.2
			c0.1-0.1,0.2-0.2,0.2-0.3c0.2,0,0.5-0.1,0.7-0.1c0.6-0.2,1.1-0.8,1.7-1.1c1.5-0.8,2.6-1.6,3.6-3c0.2-0.3,1.2-1.2,1.1-1.4
			c-0.1-0.7,0.8-1.2,1-1.6c0.4-0.6,0.2-0.9,0.5-1.5c0.3-0.6,0.9-1.4,1.2-2c0.9-1.6,0.8-5.9,0.5-7.8c0.1-0.2,0.1-0.3,0.2-0.5
			c0-0.2-0.3-0.5-0.3-0.6c0.1-0.3,0.1-0.6,0.2-0.9c-0.1-1-0.6-3.3-1.4-3.6c-0.1-0.1-0.2-0.1-0.4-0.1v0.2c-0.2,0.4,0.3,0.7,0.2,1.1
			c-0.1,0.4-0.4,1.1-0.6,1.5v0.6c-0.3,0.9-1,1.8-1.5,2.6c0.1,0.5-0.5,1-0.7,1.4c0,0.2-0.1,0.3-0.1,0.5c-0.1,0.2-0.6,0.4-0.7,0.6v0.2
			c-0.1,0.2-1.1,1.3-1.3,1.4h-0.4c-0.5,0.2-1.3,1-2.2,0.6c-1.2-0.4-1.8-2.3-2.9-2.5c-0.3,0.3-0.8,0.4-1.2,0.6
			c-0.2,0.1-0.4,0.4-0.6,0.6c-0.4,0.2-0.8,0.1-1.1,0.3c-0.6,0.4-1.3,0.9-2.1,1.2c-0.7,0.2-1.2-0.1-2,0.2c-0.6,0.2-1.3,0.5-1.8,0.7
			c-0.5,0.2-1,0-1.5,0.1c-0.4,0-1,0.3-1.3,0.4h-0.6c-1.5,0.3-2.9,0.2-4.4,0c-0.1,0-0.6,0.1-0.6,0.2h-1.3c-1,0.2-2.9,0.3-3.9,0
			c-0.3-0.1-1.1-0.3-1.4-0.5c-0.5-0.3-0.7-1-1.3-1.4c-0.3-0.2-1.6-0.3-1.8-0.2c-0.5-0.2-1-0.5-1.4-0.7c-0.7-0.3-1.4-0.2-2.1-0.6
			c-0.9-0.4-1.8-1.1-2.7-1.4c-0.3-0.1-0.9-0.1-1.2-0.2c0-0.1-0.1-0.2-0.1-0.2c-0.4-0.3-0.9-0.2-1.3-0.4l-0.5-0.5
			c-0.6-0.4-1.2-0.5-1.8-0.9c-0.1-0.1-0.2-0.4-0.3-0.5c-0.3-0.2-0.8-0.2-1-0.5c-0.2-0.1-0.2-0.4-0.4-0.6c-0.3-0.2-0.5-0.2-0.8-0.4
			c-0.2-0.2-0.3-0.5-0.6-0.6c-0.4-0.3-1.1-0.4-1.4-0.7c-0.2-0.2-0.3-0.5-0.6-0.6c-0.2-0.2-0.5-0.1-0.7-0.3c-0.3-0.3-0.5-0.7-0.8-1
			c-0.2-0.1-0.4-0.1-0.6-0.2c-0.2-0.2-0.4-0.5-0.6-0.7c-0.2-0.2-0.6-0.2-0.8-0.3c-0.1-0.1-0.1-0.3-0.2-0.4c-0.4-0.3-0.9-0.4-1.3-0.7
			c-0.1-0.1-0.2-0.3-0.2-0.4c-0.3-0.2-0.5-0.1-0.7-0.3c0-0.1-0.1-0.2-0.1-0.3c-0.2-0.2-0.7-0.1-1-0.2c-0.7-0.4-1.5-1.1-2.3-1.4
			c-0.2,0-0.4-0.1-0.6-0.1c-0.2-0.2-0.4-0.4-0.6-0.6c-0.3,0-0.5-0.1-0.8-0.1c-0.1-0.1-0.2-0.3-0.3-0.4l-0.7-0.2v-0.2h-0.4
			c-0.5-0.2-1.3-0.7-1.8-0.9h-0.6c-1-0.3-1.9-0.9-3-1.2c-0.5-0.1-0.7,0.1-1.1,0c-0.2,0-0.5-0.3-0.6-0.3c-0.6-0.2-1.4-0.2-1.9-0.1
			c-0.6,0.1-1.4-0.2-2.1-0.1c-1.1,0.3-2.4,0.6-3.4,1h-0.4c-0.3,0.1-0.7,0.3-1,0.4c-0.2,0-0.4-0.1-0.6-0.1c-0.1,0.1-0.1,0.3-0.2,0.4
			c-0.2,0.2-0.5,0.1-0.8,0.2c-0.3,0.2-0.6,0.6-0.9,0.8c-0.3,0.2-0.7,0.1-1.1,0.2c-0.2,0.1-0.6,0.4-0.8,0.5c-0.2,0-0.4-0.1-0.6-0.1
			c-0.3,0.2-1,0.9-1.4,1.2c-0.4,0.3-0.9,0.4-1.3,0.7c-0.1,0.1-0.2,0.4-0.3,0.5c-0.2,0-0.3,0.1-0.5,0.1c-0.4,0.2-0.6,0.7-1,1
			c-0.3,0.2-0.6,0.2-0.9,0.4c-0.1,0.2-0.3,0.4-0.4,0.6c-0.2,0.1-0.4,0.2-0.6,0.2c-0.2,0.2-0.3,0.4-0.6,0.6h-0.3
			c-0.1,0.1-0.1,0.4-0.2,0.5c-1.2,0.8-2.3,1.6-3.4,2.4c-0.1,0.1-0.2,0.3-0.2,0.4h-0.2c-0.2,0.2-0.3,0.6-0.6,0.8
			c-0.4,0.3-1.3,0.7-1.6,1v0.2c-0.1,0-0.2,0.1-0.2,0.1c-0.2,0.1-0.2,0.4-0.4,0.6c-0.3,0.3-0.9,0.5-1.2,0.8c-0.1,0.1-0.1,0.3-0.2,0.5
			c-0.3,0.3-0.7,0.3-0.9,0.8h-0.2v0.2c-0.3,0.2-0.7,0.5-0.8,0.9c-0.2,0-0.2,0-0.2,0.1c-0.4,0.3-0.9,0.7-1,1.3h-0.2
			c-0.3,0.5-1,0.8-1.4,1.3c-0.2,0.2-0.1,0.6-0.3,0.8c-0.1,0-0.2,0.1-0.3,0.1c-0.1,0.2-0.2,0.4-0.3,0.6c-0.1,0.1-0.3,0.1-0.4,0.2v0.2
			c-0.2,0.2-0.4,0.4-0.6,0.6c-0.7,0.9-1.4,1.7-2.1,2.6c-0.1,0.2-0.4,0.2-0.5,0.3c-0.6,0.6-1.2,1.5-1.6,2.3h-0.2
			c-0.2,1.1-1.8,2-1.9,3.2c-0.2,0-0.2,0-0.2,0.1c-0.1,0.2-0.1,0.4-0.2,0.6c-0.3,0.6-1,1-1.4,1.6v0.3c-0.1,0.1-0.4,0.2-0.5,0.3
			c-0.4,0.6-1.1,1.3-1.2,2h-0.2c-0.1,0.3-0.7,1.4-0.9,1.7c-0.1,0.1-0.4,0.1-0.5,0.2v0.4c-0.1,0.3-0.4,0.6-0.6,0.9v0.3h-0.2
			c-0.1,0.2-0.2,0.4-0.3,0.6c-0.1,0-0.2,0.1-0.2,0.1v0.3c-0.1,0.1-0.4,0.2-0.5,0.3c-0.1,0.2,0,0.4-0.2,0.6c-0.1,0.2-0.5,0.3-0.6,0.5
			c0,0.1-0.1,0.3-0.1,0.4c-0.1,0.2-0.4,0.3-0.5,0.5c-0.2,0.3-0.2,0.6-0.3,0.9c-0.1,0.2-0.5,0.4-0.6,0.6c0,0.2-0.1,0.4-0.1,0.6
			c-0.1,0-0.2,0.1-0.3,0.1c-0.2,0.2-0.1,0.5-0.2,0.7c-0.1,0.1-0.5,0.4-0.6,0.5v0.2c-0.1,0-0.2,0.1-0.2,0.1v0.3
			c0,0.1-0.4,0.3-0.4,0.3v0.2h-0.2v0.3h-0.2c-0.1,0.1-0.2,0.4-0.3,0.5c-0.1,0-0.2,0.1-0.3,0.1c-0.2,0.2-0.2,0.6-0.4,0.9
			c-0.1,0.2-0.5,0.3-0.6,0.6c0,0.1,0.2,0.2,0.1,0.3l-0.5,0.5c-0.1,0.3,0,0.4-0.2,0.6c-0.1,0.2-0.4,0.3-0.5,0.6
			c-0.1,0.2,0,0.4-0.2,0.6c-0.1,0.1-0.4,0.2-0.5,0.3c0,0,0.1,0.4,0.1,0.6c-0.2,0.6-1.1,1-1.4,1.6c-0.1,0.3,0.1,0.4,0,0.6
			c-0.2,0.6-0.8,1.2-1.1,1.7c0,0.1,0.1,0.2,0.1,0.2c-0.4,0.5-1.8,0.7-2,1.2c-0.4,0.5,0.6,2.8,1,2.9c0.1,0.8,0.9,1.2,1,2
			c0,0-0.3,0-0.2,0.1h0.2c0.1,0.2,1.1,2,1.1,2.1c0.1,0.1,0.1,0,0.2,0.1c0,0.6,1.4,2.8,1.8,3.3c0.2,0.2,0.5,0.4,0.6,0.6
			c0.1,0.2,0,0.4,0.2,0.6c0.1,0.2,0.4,0.2,0.5,0.3c0.3,0.3,0.4,0.8,0.6,1.1c0.2,0.2,0.5,0.3,0.7,0.6v0.2c0.2,0.2,0.6,0.4,0.8,0.6
			c0.1,0.2,0.2,0.4,0.3,0.6c0.3,0.2,0.6,0.3,0.8,0.6c0,0.1,0.1,0.3,0.1,0.4c0.1,0.1,0.3,0.1,0.4,0.2c0.4,0.4,0.7,1,1.1,1.4
			c0.8,0.7,1.7,1.2,2.5,1.9c0.3,0.2,0.7,0.2,1,0.5c0.3,0.3,0.6,0.6,0.9,0.9c0.1,0,0.2,0.1,0.3,0.1c0.1,0.1,0.1,0.3,0.2,0.3
			c0.1,0.1,0.3,0.1,0.4,0.2c0.1,0.1,0.1,0.3,0.2,0.3c0.5,0.3,1.5,0.8,1.7,1.4c0.1,0,1.2,0.3,1.3,0.4c0.1,0.1,0.1,0.3,0.2,0.3
			c1.2,0.7,2.4,1.3,3.7,2.1c0.1,0.1,0.1,0.3,0.2,0.3c0.2,0.1,0.5,0,0.6,0.1c0,0.1,0.1,0.2,0.1,0.2c0.2,0.1,0.5,0.3,0.7,0.4
			c0.5,0.2,1,0.2,1.4,0.4c0.2,0.1,0.2,0.4,0.3,0.5c0.3,0.2,0.6,0.1,1,0.2c0.6,0.2,1.4,0.7,2,1c0.4,0.2,0.6,0.1,1,0.2
			c0.6,0.2,3.1,1.6,3.8,1.3c1.4-1.3,2-3.3,3.1-5c0.3-0.4,0.7-0.9,1-1.3v-0.3c0.2-0.4,0.6-0.6,0.8-1c0.1-0.2,0-0.3,0.2-0.5
			c0.2-0.1,0.4-0.2,0.6-0.3c0-0.2,0.1-0.4,0.1-0.6c0.2-0.4,0.6-0.8,0.8-1.2c0.1-0.2,0.1-0.4,0.2-0.6c0.1-0.1,0.1-0.4,0.2-0.6
			c0-0.1,0.3-0.1,0.3-0.2c0.1-0.2,0.1-0.7,0.2-0.9c0.4-0.5,1-0.7,1-1.5c-0.3-0.3-0.2-0.5-0.4-0.9c-0.1-0.2-0.4-0.4-0.6-0.6
			c-0.2-0.3-0.1-0.6-0.3-1c-0.4-0.8-1-1.6-1.4-2.4c-0.2-0.5-0.2-0.9-0.4-1.4c-0.1-0.2-0.4-0.4-0.6-0.6c-0.4-0.4-0.3-1.1-0.6-1.6
			c-0.1-0.2-0.4-0.4-0.6-0.6c-0.5-0.6-0.5-1.4-1-2.1c-0.1-0.1-0.2-0.2-0.3-0.2c-0.3-0.5-0.2-0.9-0.4-1.4c-0.4-0.9-1-1.8-1.4-2.6
			c-0.2-0.4-0.2-0.7-0.4-1.1c-0.2-0.4-0.7-0.7-0.9-1c-0.3-0.4-0.3-0.8-0.6-1.3c-0.1-0.2-0.5-0.4-0.6-0.6v-0.4
			c-0.1-0.2-0.5-0.5-0.6-0.7c-0.1-0.2-0.1-0.5-0.2-0.7c-0.1-0.2-0.5-0.5-0.6-0.7c-0.1-0.3,0.2-0.6,0.2-0.8c0-0.2-0.1-0.4-0.1-0.6
			c0.4-0.1,0.3-0.2,0.7-0.2c0.6,1.6,1.6,2.8,2.4,4.1l0.2,0.7c0.2,0.1,0.4,0.3,0.6,0.4c0.2,0.2,0.4,0.6,0.5,0.8
			c0.9,1.6,1.5,3.2,2.3,4.9c0.2,0.3,0.6,0.7,0.7,1c0.2,0.3,0,0.6,0.2,0.8h0.2c0.3,0.5,0.4,1,0.7,1.5c0.1,0.2,0.4,0.4,0.6,0.6
			c0.1,0.2,0.1,0.5,0.2,0.7c0.2,0.3,0.5,0.7,0.6,1c0.2,0.3,0.1,0.6,0.2,0.9c0.2,0.3,0.5,0.6,0.6,1c0.1,0.3,0.1,0.6,0.2,0.9
			c0.2,0.3,0.5,0.6,0.7,0.9c0.2,0.4,0.3,1,0.5,1.4c1.4,2.4,3,4.7,4.4,7.1c0.4,0.8,0.7,1.6,1.1,2.4c0.4,0.8,1.1,1.6,1.6,2.4
			c0.2,0.4,0.2,0.8,0.4,1.2c0.1,0.1,0.3,0.1,0.3,0.2v0.2c0.5,0.8,0.9,1.5,1.4,2.3c0.5,0.8,1.2,1.6,1.8,2.5c0.2,0.3,0.2,0.7,0.4,1
			c1.3,1.8,2.4,4.1,3.6,5.9c0.3,0.4,0.4,0.8,0.6,1.2l0.4,0.4l0.2,0.7c0.1,0.1,0.3,0.1,0.4,0.2c0.2,0.2,0.2,0.5,0.4,0.8
			c0.2,0.3,0.6,0.7,0.8,1c0.2,0.3,0.2,0.7,0.5,1c0.2,0.1,0.3,0.1,0.5,0.2c0,0.6,0.5,1.3,0.9,1.8c0.3,0.6,1,1.1,1.4,1.6
			c0.4,0.5,0.6,1.1,1,1.7c0.2,0.3,0.6,0.6,0.9,0.9c0.2,0.2,0,0.6,0.2,0.9c0.1,0.2,0.5,0.3,0.6,0.5c0.4,0.6,0.6,1.2,1,1.8
			c0.2,0.3,0.6,0.5,0.8,0.9v0.3c0.2,0.2,0.4,0.4,0.6,0.6c0.1,0.2,0,0.4,0.2,0.6c0.2,0.3,0.6,0.6,0.8,0.9c0.4,0.5,0.6,1,1,1.5
			c0.2,0.3,0.7,0.5,0.9,0.8c0.2,0.4,0.2,0.8,0.5,1.1c0.4,0.6,1,1.1,1.4,1.6c0.2,0.2,0.2,0.5,0.4,0.7c0.2,0.2,0.6,0.4,0.8,0.6v0.3
			c0.1,0.1,0.4,0.2,0.6,0.3c0.3,0.3,0.5,0.8,0.9,1.1c0.4,0.5,1,0.8,1.4,1.4c0.3,0.4,0,0.9,0.2,1.3c0.2,0.2,0.4,0.2,0.6,0.3
			c0.1,0.1,0.2,0.3,0.2,0.4c0.6,0.5,1.1,1,1.8,1.4c0.3,0.2,0.8,0.2,1.1,0.3c0.2,0.1,0.3,0.5,0.5,0.6c0.1,0,0.4,0,0.6,0V366
			c0.6,0,1.1-0.2,1.7-0.2c0-0.4,0.1-0.5,0.3-0.6c-0.1-0.5-0.2-1.1-0.3-1.7v-0.7c-0.2-0.6-0.7-0.9-1-1.4c0-0.2-0.1-0.3-0.1-0.5
			c-0.2-0.3-0.5-0.6-0.6-0.9c-0.2-0.3-0.2-0.8-0.4-1.2c-0.1-0.3-0.5-0.6-0.6-0.9c-0.3-0.6-0.3-1-0.6-1.6c-0.2-0.3-0.5-0.5-0.7-0.8
			c-0.4-0.7-0.5-1.6-0.9-2.3c-0.7-1.2-1.5-2.3-2.2-3.4v-0.3c-0.1-0.2-0.5-0.9-0.6-1.2c-0.5-0.7-0.9-1.6-1.4-2.4
			c-0.2-0.1-0.3-0.3-0.5-0.4c-0.3-0.6-0.4-1.1-0.8-1.6c-0.2-0.2-0.5-0.5-0.6-0.7h-0.2c-0.2-0.2-0.2-0.7-0.3-1
			c-0.3-0.7-1-1.2-1.4-1.8c-0.2-0.3-0.1-0.6-0.3-0.9c-0.1-0.1-0.4-0.3-0.5-0.4c-0.2-0.3-0.2-0.8-0.4-1.1c-0.4-0.6-1-1.2-1.4-1.8
			c-0.5-0.7-0.5-1.7-1-2.5c-1.3-2-2.4-4.5-1.8-7.4c0.7-0.2,0.9-0.9,1.4-1.4c0.8-0.7,2.4-0.6,3.5-0.2c1.4,0.5,3.3,2.8,4.2,3.9
			c0.5,0.7,1.3,1.2,1.8,1.8c0.4,0.6,0.9,1,1.3,1.6c0.1,0.2,0.2,0.5,0.3,0.7c0.1,0.1,0.4,0.1,0.5,0.2c0.8,1.2,1.4,2.4,2.2,3.5
			c0.2,0.2,0.4,0.3,0.6,0.5c0.5,0.9,0.9,1.9,1.6,2.7c0.1,0,0.2,0.1,0.2,0.1c0.1,0.2,0.1,0.4,0.2,0.6c0.1,0,0.2,0.1,0.2,0.1
			c0,0.2,0.1,0.3,0.1,0.5c0.2,0.4,0.7,0.6,0.9,1c0.3,0.4,0.4,0.8,0.7,1.2c0.4,0.5,1.1,0.9,1.2,1.6c0.3,0,0.3-0.1,0.5,0
			c0.1,0.1,0.1,0.1,0.1,0.3c-0.2,0.1-0.1,0.1-0.2,0.4c0.4,0.5,0.7,1,1.1,1.5c0.4,0.5,1,1.1,1.4,1.7c0.3,0.5,0.5,1,0.9,1.4
			c0.6,0.6,1.1,1.2,1.6,1.9c0.2,0.2,0.4,0.4,0.6,0.6c0.5,0.8,1,1.7,1.7,2.4c0.7,0.8,1.4,1.6,2.2,2.2c0.1,0.1,0.2,0.3,0.2,0.4
			c0.5,0.4,1.1,0.7,1.2,1.4h0.3c0.6,0.8,2,1.9,3,2.3c0.2,0,0.4,0.1,0.6,0.1c0.3,0.1,1.3,0.6,1.4,0.6c1.6-0.4,1.2-2.3,0.8-3.8
			c-0.4-1.4-1.2-2.1-1.8-3.2c-0.1-0.2,0-0.5-0.2-0.7c-0.1-0.2-0.4-0.4-0.6-0.6c-0.2-0.4-0.3-0.8-0.5-1.2c-0.1-0.2-0.4-0.4-0.5-0.6
			c-0.1-0.3-0.2-0.6-0.2-0.9c-0.2-0.3-0.6-0.6-0.8-0.9c-0.3-0.5-0.4-1-0.7-1.4c-0.1-0.1-0.2-0.2-0.3-0.2c-0.2-0.3-0.1-0.6-0.3-0.9
			c-0.6-1-1.6-2-2.2-3c-0.1-0.2,0-0.4-0.2-0.6c-0.2-0.4-0.9-0.7-1.1-1c-0.2-0.4-0.3-0.8-0.6-1.1l-1.4-1.4c-0.2-0.3-0.3-0.6-0.5-1
			c-0.2-0.3-0.5-0.5-0.7-0.8c-0.1-0.2-0.3-0.9-0.4-1c-0.1-0.1-0.3-0.1-0.4-0.2c-0.1-0.2-0.3-0.5-0.4-0.7c-0.1,0-0.2-0.1-0.2-0.1
			c-0.1-0.2-0.2-0.4-0.2-0.6c-0.2-0.2-0.4-0.3-0.6-0.5c-0.5-0.7-0.8-1.3-1.3-2c-0.2-0.1-0.4-0.3-0.6-0.4c-0.4-0.5-0.5-1.1-0.8-1.7
			c-0.2-0.2-0.4-0.4-0.6-0.6c-0.4-0.7-0.7-1.4-1.2-2.1c-0.1-0.1-0.2-0.1-0.3-0.2c-0.1-0.1-0.7-0.9-0.7-1v-0.4
			c-0.1-0.1-0.3-0.2-0.4-0.3c-0.4-0.6-0.7-1.3-1.2-1.8c-0.1-0.1-0.2,0-0.3-0.1c-0.4-0.5-0.5-1.3-0.7-2c-0.2-0.4-0.6-0.5-0.8-0.9
			c-0.2-0.3,0.1-0.4,0.1-0.7c0-0.1-0.2-0.5-0.2-0.6v-0.6c-0.1-0.3-0.5-0.7-0.6-1c-0.1-0.2,0.1-0.5-0.1-0.8c-0.1-0.1-0.2-0.1-0.2-0.2
			c-0.1-0.3,0.1-1.2,0.2-1.5c0-0.2-0.3-0.6-0.2-1c0.4-1.6,1.4-3.1,3.2-3.2c0.5,0,1.5,0.3,2,0.5c0.4,0.1,1.1,0,1.5,0.2
			c0.7,0.3,1,1.1,1.6,1.4c1.2,0.8,2,1.8,3,2.8v0.2h0.2c0.3,0.9,2.4,2.7,3.1,3.4c1.9,1.9,3.5,4.2,5.2,6.3c0.1,0.2,0.3,0.1,0.5,0.2
			c0.3,0.2,0.4,0.6,0.6,0.9c0.1,0.1,0.3,0.1,0.4,0.2v0.2c0.2,0.2,0.5,0.4,0.7,0.6c0.2,0.3,0.5,0.5,0.6,0.7c0.1,0.2-0.1,0.3,0.1,0.4
			c0.1,0.1,0.8,0.6,0.9,0.6v0.4c0.1,0.2,0.5,0.8,0.7,1l0.3,0.1c0.1,0.1-0.1,0.5,0.1,0.6h0.2v0.2c0.3,0.2,0.3,0.5,0.5,0.7
			c0.2,0.3,0.7,0.4,0.9,0.7c0.6,0.7,1.1,1.5,1.6,2.2c0.2,0.3,0.8,0.6,1.1,0.9c0.2,0.1,0.2,0.5,0.4,0.6c0.5,0.4,1.4,1.1,1.8,1.5
			c1.7,2.2,3.7,4.2,5.9,5.8c0.2,0.2,0.4,0.5,0.6,0.7c1.7,1.2,3.9,3.2,6.6,3.1c1.1-1.4,1.3-1.5,0.4-3.4c-0.2,0-0.4,0-0.5-0.1h0.1
			c0.1-0.1,0.1-0.1,0.3-0.1c0-1.3-0.9-1.9-1.3-2.7c-0.2-0.4-0.2-0.7-0.4-1.1c-0.5-1-1.3-2.1-1.9-3c-0.3-0.4-0.3-0.9-0.6-1.3
			c-0.2-0.3-0.6-0.6-0.8-1c-0.8-1.4-1.6-2.7-2.5-4c-0.3-0.4-1-0.6-1.3-1c-1-1.2-1.9-2.4-2.9-3.7c-0.2-0.2-0.6-0.4-0.8-0.6
			c-0.8-0.8-1.6-1.6-2.3-2.6c-0.2-0.2-0.4-0.3-0.6-0.5c-0.5-0.7-1-1.5-1.6-2.2c-0.3-0.4-0.9-0.7-1.2-1.1v-0.2
			c-0.3-0.2-0.5-0.5-0.8-0.7c-0.1-0.2-0.2-0.4-0.2-0.6c-0.3-0.4-0.8-0.7-1-1.1c-0.2-0.2-0.2-0.4-0.3-0.6c-0.3-0.3-0.7-0.9-1-1.1
			c-0.1-0.1-0.3,0-0.4-0.2c0,0,0-0.6-0.2-0.8c-0.1-0.2-0.5-0.4-0.6-0.6c-0.2-0.2-0.3-0.6-0.5-0.9c-0.1-0.1-0.3-0.1-0.4-0.2
			c-0.2-0.2-0.2-0.5-0.4-0.7c-0.5-0.5-1.1-0.8-1.5-1.3c-0.2-0.3-0.3-0.7-0.6-1c-0.2-0.2-0.5-0.2-0.6-0.4c-0.2-0.2-0.5-0.8-0.6-1
			c-0.2-0.2-0.5-0.4-0.7-0.6c-0.2-0.3-0.3-0.7-0.5-1c-0.4-0.6-1-1.1-1.4-1.8c-0.2-0.5-0.3-1.2-0.4-1.5c-0.1-0.3-0.6-0.9-0.7-1.2
			c-0.3-0.6-0.1-3.1,0.3-3.8c1-1.5,3.5-2.1,5.6-1.4c0.5,0.1,0.9,0.1,1.4,0.2c0.3,0.1,0.5,0.5,0.8,0.6c0.7,0.4,1.4,0.9,2.1,1.4
			c0.3,0.2,0.6,0.7,1,1c0.1,0,0.3,0.1,0.4,0.1c0.2,0.2,0.3,0.6,0.6,0.8c0.3,0.2,0.6,0.3,0.9,0.6c0.3,0.2,0.4,0.6,0.6,0.8
			c0.6,0.4,1.1,0.6,1.6,1c0.4,0.3,0.6,0.8,1,1.1c0.2,0.2,0.5,0.3,0.6,0.5c0.2,0.2,0.3,0.6,0.6,0.8c0.7,0.6,1.4,1.2,2.2,1.8
			c0.6,0.5,1,1.3,1.7,1.8c1.2,0.9,2.4,1.7,3.7,2.6c0.6,0.4,1,1.4,1.5,1.8c1.2,0.9,2.2,1.9,3.4,2.8c0.5,0.4,0.7,1.1,1.4,1.2v0.3
			c0.4,0.3,0.7,0.7,1.1,1c0.6,0.4,1.1,0.8,1.7,1.2c0.2,0.3,0.5,0.6,0.7,0.9c0.2,0.1,0.3,0.1,0.5,0.2c0.2,0.2,0.6,0.7,0.9,0.9
			c0.2,0.1,0.3-0.1,0.5,0c0.6,0.3,1.1,1,1.7,1.4c0.7,0.5,1.7,0.5,2.6,0.9c1,0.5,2,1.1,3,1.7c0.4,0.2,2.3,0.5,2.7,0.2
			c0.2-0.1,0.2-0.1,0.4-0.2v-0.2c0.2,0,0.2,0,0.2-0.1C470.2,327.1,469.9,325.5,469.5,324.8z M456.1,253.8c2-0.5,2.8-3.3,3.6-5h-0.2
			c-0.1,0.1-0.1,0-0.2,0.1c0,0-0.1-0.1-0.1-0.1v-0.6c0.4,0,0.4,0,0.9,0c0.1-0.1,0-0.1,0.1-0.2c-0.1-0.4-0.1-1.2-0.4-1.4
			c-0.2,0.3-0.6,0.4-0.8,0.7c-0.3,0.5-0.5,0.9-0.8,1.4c-0.2,0.2-0.4,0.3-0.6,0.5c-0.2,0.3-0.2,0.7-0.5,0.9c-0.2,0.2-0.5,0.1-0.7,0.3
			c-0.1,0.1-0.1,0.3-0.2,0.5c-0.1,0.1-0.2,0.1-0.3,0.2c-0.3,0.2-0.8,0.9-1,1.3c0.3,0.2,0.2,0.6,0.4,0.9
			C455.5,253.4,455.9,253.6,456.1,253.8z"/>
	</g>
</g>
<g>
	<g>
		<path class="st1" d="M500.3,317.3c-0.1-0.2,0.1-0.9,0.1-1.4c-0.1-0.8,0.1-2.1-0.2-3.3c-0.1-0.7,0.2-1.2,0-2c0-0.5,0.1-0.9,0.1-1.4
			c-0.1-0.1-0.1-0.1-0.2-0.2v-0.2c0,0,0.3-0.2,0.2-0.4c-0.1-0.1-0.2-0.1-0.2-0.2c-0.2-0.6,0.2-1,0.1-1.4c0-0.1-0.3-0.6-0.2-0.7
			c0-0.2,0.3-0.7,0.2-1c-0.5-3.3-0.4-8.1-1-10.4c0-0.5,0.1-1,0.1-1.4c-0.1-0.6-0.2-1.6-0.3-2.2c-0.1-0.3,0-1.2,0.1-1.5
			c0.1-0.6-0.2-3-0.3-3.4c-0.2-0.6,0.1-1.3,0-1.8c-0.4-1.3-0.1-2.8-0.6-4.4c-0.1-0.3,0.1-0.8,0.1-1c0.1-0.5-0.2-1.1-0.3-1.4
			c0.2-0.5,0-1.2-0.2-1.4c0.1-0.2,0.1-0.1,0.2-0.2h0.1c-0.1-0.3-0.1,0.1-0.2-0.2c-0.1-0.2-0.3-1.9-0.3-2.2c0-0.1,0.1-0.3,0.1-0.4
			c-0.6-2.2-0.6-5.7-1.4-7.4c0-0.3,0.1-0.5,0.1-0.8c-0.1-0.6-0.3-1.4-0.6-2c0.3-0.6-0.4-2.1-0.5-2.5c-0.2-0.5-0.1-1-0.2-1.3
			c-0.5-1.3-1-2.9-1.5-4.2c0-0.3-0.1-0.7-0.1-1c-0.1-0.1-0.2-0.1-0.2-0.2c-0.3-0.7-0.3-1.5-0.6-2.2c-0.1-0.2-0.3-0.4-0.4-0.6
			c0-0.2,0.1-0.5,0.1-0.7c-0.1-0.2-0.5-0.3-0.6-0.5c0-0.2,0.1-0.3,0.1-0.5c0-0.1-0.2-0.6-0.3-0.8c-1.1-2.2-1.9-4.8-2.9-6.9
			c-0.1-0.1-0.2-0.1-0.2-0.2c-0.2-0.3-0.1-0.6-0.3-0.9c-0.1-0.1-0.3-0.2-0.4-0.2c-0.1-0.2,0.1-0.3,0-0.6c-0.2-0.5-0.5-1.2-0.8-1.7
			c0-0.1-0.3-0.2-0.3-0.2v-0.4c-0.2-0.5-0.7-1.2-1-1.6c-0.2-0.3-0.1-0.7-0.3-1c-0.1-0.1-0.2-0.2-0.3-0.2c0-0.1-0.1-0.3-0.1-0.4
			c-0.1-0.2-0.4-0.5-0.6-0.7c-0.2-0.4-0.4-1-0.5-1.3c-0.3-0.6-0.7-1.2-1.1-1.8c-0.1-0.1-0.3-0.2-0.4-0.3c-0.3-0.5-0.3-1-0.6-1.5
			c-0.2-0.4-0.7-0.7-0.9-1c-0.2-0.4-0.3-0.8-0.6-1.1c-0.1-0.1-0.4-0.3-0.5-0.4c-0.1-0.2-0.1-0.4-0.2-0.6c-0.2-0.4-0.7-0.8-1-1.2
			c0-0.1-0.1-0.3-0.1-0.4c-0.1-0.1-0.3-0.1-0.4-0.2c-0.2-0.4-0.2-0.8-0.5-1.1c-0.1-0.1-0.3-0.1-0.4-0.2c-0.1-0.2-0.1-0.3-0.2-0.5
			h-0.2c0-0.1-0.1-0.3-0.1-0.4c-0.2-0.3-0.7-0.6-0.9-1c-0.2-0.4-0.3-0.8-0.6-1.1l-0.3-0.1c-0.2-0.2-0.2-0.4-0.3-0.6
			c-0.3-0.5-1-0.9-1.3-1.4c-0.2-0.3-0.3-0.6-0.5-1c-0.2-0.2-0.4-0.3-0.6-0.5c-0.1-0.2-0.2-0.5-0.3-0.6c-0.1-0.1-0.4-0.1-0.5-0.2
			c-0.4-0.4-0.6-0.9-0.9-1.3c-0.5-0.5-1.2-0.9-1.6-1.5v-0.2c-0.2-0.1-0.3-0.1-0.5-0.2c-0.2-0.2-0.3-0.6-0.5-0.8
			c-0.5-0.5-1.1-1.1-1.7-1.6c-0.1-0.1-0.3-0.2-0.4-0.2c-0.2-0.4-0.5-0.9-0.8-1.1h-0.2c-0.1,0-0.6-0.5-0.6-0.6
			c-0.9-1.1-2.2-2.2-3.3-3.1c-1.5-1.2-3.1-2.5-4.8-3.4c-0.7-0.4-1.3-0.8-2-1.1c-0.4-0.2-0.8-0.2-1-0.5c-0.8,0-0.6,0.4-0.9,0.9
			c0.1,0.7,0.5,0.7,1,1c0.2,0.1,0.4,0.5,0.6,0.6h0.4c0.5,0.3,1.6,1.2,2.2,1.3v0.2c0.7,0.2,0.9,0.9,1.6,1.1v0.2c0.2,0,0.4,0,0.5,0.1
			c0.2,0.1,0.1,0.1,0.3,0.2v0.2c1,0.2,1.4,1.3,2.1,1.8c0.2,0.1,0.4,0,0.6,0.2c0.2,0.1,0.2,0.5,0.3,0.6c0.5,0.5,1.2,0.8,1.7,1.4
			c0.4,0.4,0.6,0.9,1,1.4c0.2,0.2,0.5,0.2,0.7,0.5c0.4,0.5,1.2,1.5,1.8,1.8v0.2h0.2c0.5,1.1,1.3,1.1,2.2,1.8c0.1,0.1-0.1,0.3,0,0.6
			c0.1,0.2,0.7,0.4,0.8,0.6c0.1,0.2,0.1,0.3,0.2,0.5c0.1,0.1,0.1,0.1,0.2,0.1c0.1,0.7,0.8,1,1.1,1.4c0.1,0.2,0.1,0.5,0.2,0.6
			c0.1,0.2,0.5,0.2,0.6,0.4c0.2,0.3,0.3,0.6,0.5,1c0.3,0.4,0.8,0.7,1.1,1.1c0.1,0.2,0.1,0.4,0.2,0.6c0.2,0.1,0.4,0.3,0.6,0.4
			c0.3,0.4,0.3,0.8,0.6,1.2c0.2,0.3,0.7,0.5,0.9,0.7l0.2,0.7c0.1,0.2,0.4,0.2,0.5,0.3c-0.1,0.2,0.2,0.6,0.3,0.8
			c0.2,0.4,0.7,0.8,1,1.2c0.2,0.3,0.1,0.6,0.3,0.9c0.2,0.2,0.4,0.4,0.6,0.6c0.2,0.3,0.1,0.5,0.3,0.9c0.2,0.3,0.6,0.6,0.8,1
			c0,0.2,0.1,0.3,0.1,0.5c0.3,0.6,0.8,1.2,1.2,1.7c0.5,0.7,0.6,1.5,1,2.3c0.2,0.5,0.8,1,1,1.4c0.1,0.2,0.1,0.5,0.2,0.7
			c0.1,0.2,0.4,0.4,0.6,0.6c0.2,0.3,0.1,0.6,0.2,0.9l0.3,0.2c0,0.1-0.1,0.2-0.1,0.2c0.1,0,0.2,0.1,0.2,0.1c0.2,0.4,0.3,1.1,0.6,1.5
			c0.4,0.8,0.9,1.7,1.4,2.4c0.1,0.4,0.3,0.8,0.4,1.2c0,0.1,0.3,0.2,0.3,0.2c0.1,0.2-0.1,0.5,0.1,0.8c0.7,1.4,1.3,3,2,4.3
			c0.3,0.7,0.3,1.4,0.6,2.1c0.2,0.6,0.7,1.3,0.9,1.9c0.7,1.9,0.9,3.9,1.8,5.5c-0.3,0.7,0.4,1.7,0.6,2.3c0,0.2-0.1,0.2-0.1,0.3
			c0.4,1.3,0.7,2.6,1,4c0.6,2.9,0.9,6.1,1.4,8.8c0.2,1.4,0.3,2.4,0.4,3.6c0,0.3-0.1,0.5-0.1,0.8c0.3,1,0.1,2.1,0.4,3.2v1.2
			c0.1,0.4,0.3,0.9,0.2,1.4c-0.1,0.6,0.3,1.7,0.2,2.4c-0.1,0.7,0,1.9,0.2,2.6c0.1,0.4-0.2,0.8-0.2,1.1c0,0.4,0.3,0.9,0.3,1.1
			c0.1,0.4-0.2,0.8-0.1,1.2c0.1,0.4,0.2,1.2,0.2,1.5c0,0.2-0.2,0.6-0.1,0.9c0.5,2,0.1,4.6,0.6,6.8c0.2,0.6,0,1,0,1.5
			c0,0.7,0.1,1.4,0.2,2.2c0.1,0.6-0.1,1,0,1.4c-0.1,0.5-0.2,1.5,0.1,1.9c-0.2,0.2-0.3,1.9-0.2,2.6c0.2,0.8,0.3,3.1,0.1,4.2
			c0,0.1,0.1,0.8,0.1,1c-0.3,1.6-0.2,4.1-0.6,5.8c-0.1,0.3,0.1,0.6,0.1,0.8c-0.2,1-0.4,2.5-0.7,3.4c-0.1,0.4,0.1,0.7,0,1
			c-0.3,1.1-1,2.2-1,3.4c0.5,0.1,1,0.4,1.5,0c0.8-0.3,0.7-1.9,0.9-2.6c0-0.2,0.5-1,0.5-1.4c0-1.4,0.4-3.3,0.7-4.7
			c0.1-0.4-0.2-0.3-0.2-0.7c0.2-0.7,0.1-1.5,0.2-2.2C500.1,319.4,500.5,318.2,500.3,317.3z M521.4,287c0,0-0.2-1.2-0.2-1.3
			c-0.2-0.8,0-1.9-0.2-2.8c0-0.3,0.1-0.5,0.1-0.8c-0.2-1.3-0.2-2.9-0.6-4.2c-0.2-0.5,0.2-1.4,0.1-2c-0.5-2-0.9-4.5-0.9-5.8
			c0-0.5-0.2-0.9-0.4-1.3c0.1-0.2-0.1-2-0.2-2.3c-0.1-0.4-0.6-1.5-0.2-2c-0.1-0.2,0-0.1-0.2-0.2c0-1.4-0.4-2.3-0.8-3.6
			c-0.1-0.5,0-0.8-0.2-1.3c-0.4-1.2-0.7-2.2-1-3.4c-0.1-0.2,0.2-0.4,0.2-0.6c-0.1,0-0.2-0.1-0.2-0.1c0-0.2-0.1-0.4-0.1-0.6
			c-0.2-0.5-0.5-1.1-0.6-1.7c0-0.1,0.1-0.2,0.1-0.2c-0.5-1.1-0.9-2.4-1.4-3.5c-0.1-0.4-0.1-0.8-0.2-1.2c-0.2-0.4-0.5-1-0.7-1.5
			c0-0.3-0.1-0.6-0.1-0.9c-0.2-0.3-0.6-0.8-0.7-1.1c-0.2-0.3,0-0.5-0.2-0.9c-0.3-0.8-0.9-1.5-1.3-2.2c0-0.2-0.1-0.3-0.1-0.5
			c-0.1-0.1-0.2-0.2-0.3-0.2c0-0.2-0.1-0.4-0.1-0.6c-0.1-0.1-0.3-0.1-0.4-0.2c-0.1-0.3-0.1-0.5-0.2-0.8c-0.4-0.8-0.9-1.5-1.4-2.2
			c-0.1-0.3-0.2-0.6-0.3-0.9c-0.3-0.5-0.9-1-1.3-1.5c-0.2-0.4,0.1-0.5-0.2-0.9c-0.2-0.2-0.5-0.4-0.6-0.6c-0.2-0.2-0.2-0.5-0.3-0.7
			c-0.2-0.1-0.3-0.3-0.5-0.4c-0.1-0.2,0.2-0.3,0-0.6c-0.2-0.3-0.7-0.4-0.9-0.7v-0.3c-0.2-0.1-0.3-0.3-0.5-0.4
			c-0.2-0.3-0.2-0.6-0.4-0.8c-0.1-0.1-0.3-0.1-0.4-0.2c-0.1-0.2,0-0.4-0.2-0.6c-0.3-0.3-0.5-0.5-0.8-0.8c-0.5-0.7-0.9-1.5-1.4-2.2
			c-0.2-0.2-0.5-0.2-0.7-0.4c-0.2-0.2-0.4-0.6-0.6-0.7c-0.3-0.2-0.6,0-0.8-0.2c-0.4,0.1-0.5,0.2-0.7,0.3c-0.1,0.4-0.2,0.9,0.1,1.2
			c0.1,0.2,1.3,1,1.6,1.4c0.2,0.3,0.3,0.6,0.6,1c0.4,0.6,1.2,0.9,1.5,1.5c0.4,0.6,0.6,1.2,1,1.8c0.1,0.1,0.4,0.1,0.5,0.2
			c0.2,0.2,0.1,0.6,0.2,0.8c0.2,0.4,0.7,0.8,1,1.2c0.2,0.3,0.1,0.7,0.3,1c0.1,0.1,0.3,0.2,0.4,0.2c0.2,0.3,0.2,0.6,0.4,0.9
			c0.1,0.1,0.4,0.2,0.5,0.3c0,0,0.3,0.6,0.3,0.6c0.1,0.2-0.1,0.3-0.1,0.4c0.1,0.3,0.6,0.4,0.8,0.7c0.3,0.5,0.4,0.9,0.6,1.4l0.4,0.4
			v0.4c0.1,0.1,0.3,0.2,0.4,0.2c0,0.2,0.1,0.4,0.1,0.6c0.3,0.4,0.8,1.2,1,1.6v0.4c0.1,0.2,0.5,0.4,0.6,0.6c0.1,0.3-0.1,0.4,0,0.6
			c0.1,0.2,0.4,0.4,0.5,0.6c0,0.2,0.1,0.4,0.1,0.6c0.1,0.2,0.4,0.4,0.5,0.6c0.3,0.7,0.3,1.1,0.6,1.7c0,0.2,0.1,0.4,0.1,0.6
			c0.1,0,0.2,0.1,0.2,0.1c0,0.3,0.1,0.6,0.1,1c0.1,0.2,0.3,0.6,0.4,0.7c0.2,0.4,0.1,0.7,0.2,1c0.1,0.1,0.2,0.1,0.2,0.2
			c0,0.3,0.1,0.5,0.1,0.8c1.3,3.6,2.3,8.4,3.5,12.5c0.1,0.3-0.1,0.5,0,1c0.1,0.4,0.3,1.2,0.4,1.6c0.1,0.3-0.2,0.7,0,1.1h0.2
			c0.2,0.4-0.2,0.5-0.1,0.7h0.2c0.1,0.3,0.1,0.6,0.2,0.8c0,0.1-0.1,0.7-0.1,0.9c0.1,0.7,0.2,2.2,0.6,2.7c-0.2,0.2,0,0.8-0.1,1.1
			c-0.1,0.3,0.1,0.3,0.2,0.6c0,0.3-0.1,0.5-0.1,0.8c0.1,0.1,0.1,0.1,0.2,0.2c0.1,0.3-0.2,1-0.1,1.2c0,0,0.3,0.3,0.3,0.3
			c0.2,0.6-0.1,1.2,0,1.4c0,0.1,0.1,0.5,0.2,0.6c0,0.2-0.1,0.3-0.1,0.5c0.1,0,0.2,0.1,0.2,0.1c0.1,0.3-0.2,0.5-0.1,1
			c0.1,0.2,0.2,0.8,0.2,1.1c0,0.2-0.1,0.4-0.1,0.6c0,0.1,0.2,0.2,0.2,0.4c0,0.1-0.2,0.6-0.1,1c0,0.1,0.3,0.1,0.2,0.3
			c-0.2,0.2-0.3,0.6-0.2,0.9c0.1,0.5,0.3,1.5,0.2,2c0,0.6-0.1,1.4,0,2.2v1.1c0.1,0.1,0.1,0.1,0.2,0.2l-0.2,0.7
			c-0.1,0.4,0.1,0.7,0.1,1.1c0,0.1-0.1,0.3-0.1,0.5c0.3,1,0.2,2.2,0,3c-0.1,0.6,0.2,1.4,0.1,2c-0.1,0.3-0.2,0.6-0.3,0.8
			c0.1,0.2,0.2,0.9,0.1,1.2c0,0.1-0.3,0.2-0.2,0.5c0.1,1,0.2,2.6-0.2,3.7c0,0.5,0.1,1,0.1,1.4c-0.1,0.2-0.2,1-0.2,1.5
			c0,0.3,0.1,0.5,0.1,0.8c-0.2,0.6-0.3,1.5-0.6,2.2c-0.1,0.4,0,0.9,0,1.1c-0.2,0.8-0.3,1.6-0.5,2.3c0,0.2,0.1,0.4,0.1,0.6h-0.2
			c-0.1,0.2,0.1,0.2,0.1,0.3c-0.2,0.6-0.4,1.3-0.5,1.8c0,0.3,0.1,0.8,0,1.2c-0.1,0.4-0.3,0.7-0.5,1c0.2,0.8-0.1,1.5-0.3,2.1
			c0.1,0.2,0.1,0.3,0.2,0.5l-0.4,0.3c0,0.2,0.1,0.4,0.1,0.6c-0.1,0-0.1,0.1-0.2,0.1v0.8c-0.1,0.3-0.3,0.9-0.4,1.3
			c0,0.1,0.1,0.5,0,0.7c0,0.1-0.3,0.3-0.3,0.5c-0.2,0.7,0,1.6-0.2,2.3c-0.8,2.8-1.1,5.6-2.2,7.8c-0.2,0.4,0,1.4-0.2,2
			c-0.1,0.3-0.5,0.8-0.6,1c-0.1,0.2,0.1,0.5,0,0.9c-0.2,0.6-0.4,1.5-0.7,2.3c-0.2,0.4,0,0.8-0.2,1.2c-0.3,0.8-0.7,2.3-1,3.1
			c-0.1,0.5-0.2,2.1-0.3,2.2c-0.3,0.4-0.2,0.9-0.5,1.4c0,0.1-0.3,0.3-0.3,0.4c-0.2,0.5,0,0.9-0.1,1.2c-0.6,2-1.1,3.6-1.8,5.4
			c0,0.3-0.1,0.7-0.1,1c-0.1,0.1-0.3,0.3-0.3,0.5v0.6c-0.1,0.1-0.2,0.1-0.3,0.2c-0.1,0.3-0.1,0.7-0.2,1c-0.2,0.5-0.5,1.2-0.7,1.7
			c-0.3,0.9-0.4,1.9-1,2.5c-0.1,0.2,0,0.5-0.1,0.8c-0.2,0.5-1.2,2-0.8,2.6c0.2,0.4,1.2,0.4,1.4,0.3c0.9-0.1,0.6-0.9,0.9-1.6
			c0.3-0.8,0.8-1.9,1.1-2.8c0.1-0.3,0-0.9,0.2-1.2c1.4-2.4,1.5-5.3,2.7-7.7c0.2-0.3,0-1.3,0.2-1.7c0.3-1,0.7-2.3,1.1-3.3
			c0.1-0.3-0.2-0.5,0-0.8c0.1-0.1,0.4-0.3,0.4-0.5c0-0.1-0.1-0.2-0.1-0.3c0-0.2,0.3-0.4,0.3-0.6c0-0.2-0.1-0.5-0.1-0.7
			c0.1-0.2,0.4-0.6,0.5-0.8c0.1-0.1-0.1-0.4-0.1-0.6c0.2-0.6,0.4-1,0.6-1.5c0-0.4,0.1-0.7,0.1-1.1c0.2-0.5,0.5-1.5,0.6-2.2
			c0.1,0,0.2,0.1,0.2,0.1c0.2-0.5-0.1-0.9,0-1.2c0.1-0.2,0.3-0.4,0.4-0.6c0.2-0.4-0.1-0.9,0.1-1.2c0-0.1,0.3-0.1,0.3-0.2v-0.6
			c0.1-0.4,0.3-0.8,0.4-1.2c0-0.3,0.1-0.7,0.1-1l0.2-0.2c0-0.3,0.1-0.6,0.1-0.9c0.1-0.2,0.3-0.7,0.4-1c0.1-0.3-0.1-0.4,0-0.6
			c0.1-0.2,0.4-0.7,0.4-1c0-1.4,0.5-3.6,1-4.8c0.1-0.6,0.1-1.3,0.2-1.9c0-0.1,0.2-0.3,0.2-0.4c0-0.2-0.1-0.3-0.1-0.5
			c0.1-0.2,0.3-0.5,0.4-0.7v-0.6l0.4-0.4c0.1-0.4-0.4-0.5-0.2-1c0.1,0,0.1-0.1,0.2-0.1c0.1-0.3-0.1-0.5,0-0.7c0.1,0,0.1-0.1,0.2-0.1
			c0-0.2-0.1-0.5-0.1-0.7c0-0.1,0.3-0.4,0.4-0.5c0.2-0.3-0.2-0.5-0.2-0.6c0.2-0.7,0.3-1.3,0.5-1.9v-1c0.1-0.4,0.3-0.7,0.4-1
			c-0.1-0.2-0.1-1.4-0.1-1.4c0.5-1,0.4-2,0.7-3c0-0.2-0.1-1.1,0-1.3c0.3-0.7,0.5-1.9,0.5-2.8c-0.1-3.1,0.8-7,0.6-10.3
			c-0.1-1.7-0.3-4.6-0.1-6.1c0.1-0.6-0.3-0.9-0.2-1.4C521.2,287.3,521.4,287,521.4,287z M471.6,323.5c-0.2-0.4-0.1-0.8-0.3-1.2
			c-0.2-0.3-0.5-1-0.8-1.3c-0.3-0.4-0.8-0.6-1.1-1c-0.6-0.8-1-1.6-1.8-2.3c-0.2-0.2-0.6-0.1-0.7-0.3v-0.2l-0.7-0.5
			c-0.3-0.2-0.6-1-0.9-1.1c-0.2-0.1-0.4,0-0.5-0.2c-0.2-0.2-0.1-0.4-0.2-0.7c-0.1-0.1-0.3-0.1-0.4-0.2c-0.1-0.1-0.1-0.3-0.2-0.5
			c-0.3-0.4-0.9-0.5-1.3-0.9c-0.2-0.2,0-0.3-0.2-0.5c-0.2-0.3-0.8-0.5-1.1-0.7c-0.6-0.4-0.9-1.3-1.4-1.8c-0.2-0.1-0.3-0.1-0.5-0.2
			c-0.4-0.3-0.7-0.9-1-1.3c-0.9-0.9-1.9-1.7-2.7-2.7c-0.4-0.5-1.1-0.8-1.4-1.3c-0.3-0.4-0.6-0.9-1-1.2c-0.1-0.1-0.4-0.2-0.5-0.3
			c-0.4-0.5-0.8-1.1-1.3-1.5c-0.4-0.3-1-0.6-1.3-1c-0.4-0.5-0.6-1-1-1.5c-0.3-0.4-1-0.7-1.4-1c-0.2-0.2-0.2-0.5-0.4-0.6
			c-0.1,0-0.2,0.1-0.2,0.1c-0.4-0.3-0.9-0.8-1.2-1.2c-0.1-0.1-0.1-0.4-0.2-0.5c-0.2-0.2-0.5-0.2-0.7-0.4c-0.3-0.2-0.4-0.7-0.6-0.9
			c-0.4-0.3-0.8-0.3-1-0.6c-0.3-0.4-0.5-0.9-0.9-1.3c-0.2-0.3-0.8-0.4-1-0.6v-0.2l-0.5-0.5V291c-0.1-0.2-0.5-0.2-0.6-0.3
			c-0.2-0.2-0.2-0.5-0.4-0.6c-0.4-0.3-0.9-0.6-1.2-1c-0.4-0.5-0.6-1.1-1-1.5c-0.4-0.5-1-0.8-1.4-1.4c-0.1-0.2,0-0.4-0.2-0.6
			l-0.6-0.3c-0.1-0.1-0.1-0.7-0.2-1c-0.2-0.4-1.5-2-1.9-2.3c0.1-0.6,0.7-0.9,1-1.4c0.1-0.1,0.5-1.8,0.6-1.9c0.5-0.1,0.4-0.3,0.6-0.6
			c0.5-0.4,1.2-0.8,1.8-1c0.4-0.2,0.5,0,0.9-0.1c1.1-0.2,2.1-0.3,3.2-0.5c0.6-0.1,2.5,0.1,3,0.2c0.8,0.2,1.2-0.2,1.9,0
			c1,0.2,4,0.3,5,0.1c0.5,0,1-0.1,1.4-0.1c0.3-0.1,0.6-0.4,0.9-0.5c0.7-0.3,1.2-0.4,1.8-0.7c0.3-0.2,0.5-0.6,0.8-0.7l0.7-0.2
			l0.5-0.5h0.3c0.3-0.1,0.4-0.5,0.6-0.6c0.3-0.2,0.7-0.3,1-0.6c0.3-0.2,0.4-0.6,0.6-0.9c0.2-0.3,0.6-0.3,0.9-0.6
			c0.1-0.1,0-0.3,0.1-0.5c0.1-0.2,0.6-0.4,0.8-0.6v-0.2c0.3-0.4,1.2-0.9,1.5-1.4c0.2-0.2,0.5-0.9,0.6-1.1c0-0.2-0.1-0.3-0.1-0.5
			l0.3-0.2c0.1-0.2,0.2-0.4,0.3-0.6c0.3-0.2,0.8-0.2,1-0.6c0.2-0.3,0.3-0.7,0.4-1.1c0-0.3-0.1-0.5-0.1-0.8c0.1-0.1,0.3-0.1,0.4-0.2
			c0.1-0.2,0.1-0.5,0.2-0.7c0.2-0.3,0.6-0.5,0.7-0.8v-0.6c0.4-1.1,0.6-2.3,1-3.5c0.1-0.5,0.6-1.8,0.6-2.3c0-0.8,0.1-1.6-0.2-2.6
			v-0.9c-0.2-0.5-0.4-0.9-0.3-1.6h-0.2c-0.2-0.3-0.8-2.9-0.6-3.2c-1.3-1.2-1.2-3.9-2.9-4.8c-0.2-0.2-1.5-0.1-1.9-0.1
			c-0.8,0-1.4-0.3-2.2-0.1c-1,0.3-2.6,2.2-3.2,3c-0.3,0.4-0.7,0.6-0.9,1v0.3c-0.2,0.3-0.6,0.4-0.8,0.6v0.2c-0.1,0.2-0.4,0.2-0.6,0.4
			c-0.3,0.3-0.5,0.6-0.7,1h-0.2c-0.2,0.2-0.1,0.4-0.3,0.6c-0.6,0.4-1.2,0.8-1.8,1.2c-0.3,0.2-0.4,0.5-0.6,0.8
			c-0.2,0.2-1.1,0.9-1.4,1c-0.3,0.2-0.7,0.1-1.1,0.3c-0.2,0.1-0.4,0.4-0.6,0.5c-0.5,0.2-1.1,0.1-1.6,0.3c-0.1,0.1-0.4,0.3-0.6,0.4
			c-0.3-0.1-1.2,0-1.6,0.2c-0.9,0.4-1.7,0.8-2.7,1c-0.3,0.1-0.9-0.1-1.4,0c-0.6,0.2-1.4,0.5-2.4,0.3c-0.5-0.1-1.1-0.2-1.6-0.3
			c-0.2,0-0.4,0.1-0.6,0.1c-0.1,0-0.2-0.4-0.6-0.2c0,0-0.1,0.2-0.2,0.2c-0.4,0.1-1.1-0.2-1.4-0.1c-0.7,0.1-1.5,0.4-2.4,0.1
			c-0.8-0.3-1.4-1-2.2-1.3h-0.6c-0.4-0.2-0.9-0.5-1.4-0.6h-0.6c-0.6-0.2-1.1-0.7-1.6-1c-0.4-0.2-0.6-0.1-1-0.3
			c0-0.1-0.1-0.2-0.1-0.2c-0.1-0.1-1.2,0-1.5-0.2l-0.2-0.2c-0.2,0-0.3-0.1-0.5-0.1c0-0.1-0.1-0.2-0.1-0.2c-0.2,0-0.5-0.1-0.7-0.1
			c-0.4-0.2-0.7-0.5-1.1-0.7h-0.4c-0.4-0.2-1-0.6-1.4-0.8c-0.3-0.1-0.6-0.1-0.8-0.2c0-0.1-0.1-0.2-0.1-0.2c-0.4-0.2-1.1-0.3-1.5-0.6
			c-0.3-0.2-0.5-0.6-0.8-0.9c-0.4-0.3-0.9-0.6-1.4-0.9c-0.2-0.1-0.4-0.1-0.6-0.2c-0.1-0.1-0.2-0.4-0.3-0.5c-0.3-0.3-0.8-0.4-1.2-0.7
			c-0.3-0.3-0.5-0.7-0.9-1c-0.2-0.1-0.4-0.2-0.6-0.3c-0.3-0.2-0.5-0.7-0.8-0.9c-0.5-0.3-1-0.5-1.5-0.8c-0.1-0.1-0.2-0.4-0.3-0.5H407
			v-0.2c-0.2-0.1-0.3-0.2-0.5-0.3c-0.1,0-0.3-0.1-0.4-0.1c-0.2-0.2-0.3-0.6-0.6-0.8c-0.9-0.6-1.9-0.8-2.9-1.4
			c-0.4-0.2-0.9-0.7-1.3-1c-0.2,0-0.4-0.1-0.6-0.1c-0.5-0.3-1.2-0.8-1.7-1c-0.3-0.2-0.6,0-0.9-0.2c-0.5-0.2-1.3-0.6-1.8-0.8
			c-0.3-0.1-0.5,0-0.7-0.2l-0.2-0.1v-0.2c-0.4-0.1-0.4-0.2-0.6-0.3c-0.6-0.2-1.2-0.1-1.8-0.3c-0.4-0.2-1-0.5-1.5-0.6
			c-0.6-0.2-1.2,0.1-1.7,0c-0.2,0-0.6-0.1-0.9-0.2l-0.2-0.2c-0.2-0.1-0.5,0.1-0.6,0.1c-0.2,0-0.6-0.1-0.7-0.2
			c-0.4-0.1-1,0.2-1.4,0.2c-1.1,0-2.3,0.2-3.4,0.5h-0.7c-2.3,0.7-4.1,1.9-6,3c-0.3,0.2-0.5,0.6-0.8,0.8c-0.2,0-0.4,0.1-0.6,0.1
			c-0.5,0.2-1.2,0.6-1.7,0.9l-0.6,0.6c-0.5,0.4-1.2,0.6-1.7,1c-0.1,0.1-0.2,0.3-0.2,0.4c-0.5,0.4-1,0.5-1.6,0.8
			c-0.2,0.1-0.4,0.5-0.6,0.6c-0.4,0.3-1,0.5-1.4,0.8c-0.2,0.1-0.3,0.4-0.5,0.6c-0.2,0.2-0.5,0.2-0.7,0.3c-0.1,0.2-0.3,0.3-0.4,0.5
			c-0.2,0.2-0.4,0.2-0.6,0.3c-0.9,0.7-1.6,1.8-2.6,2.4c-1.4,0.8-2.3,2-3.4,3c-2.2,2-4.1,3.8-5.9,6.2c-0.6,0.7-1.4,1.4-2,2.1
			c-0.2,0.2-0.2,0.5-0.4,0.7c-0.2,0.3-0.7,0.4-0.9,0.6c-0.1,0.2-0.2,0.4-0.2,0.6H349c-0.2,0.2-0.2,0.4-0.3,0.6
			c-0.2,0.2-0.5,0.3-0.6,0.6c-0.7,1-1.3,2-2,2.9c-0.4,0.6-0.6,1.3-1,1.8c-0.2,0.2-0.4,0.3-0.6,0.5c-0.2,0.2-0.2,0.5-0.3,0.7
			c-0.2,0.2-0.5,0.4-0.7,0.6c-0.3,0.4-0.3,0.9-0.6,1.3c-0.1,0.1-0.2,0.1-0.3,0.2c-0.5,0.8-0.8,1.6-1.4,2.5c-0.1,0.1-0.2,0.2-0.3,0.2
			v0.3c-0.3,0.5-0.9,0.9-1.2,1.4c-0.3,0.4-0.4,0.9-0.7,1.3c-0.1,0.1-0.3,0.2-0.4,0.3c-0.1,0.2,0,0.4-0.2,0.6
			c-0.3,0.5-0.8,0.9-1.1,1.4c-0.2,0.3-0.2,0.5-0.3,0.8c-0.3,0.4-0.8,0.8-1.1,1.3c-0.3,0.5-0.3,0.9-0.6,1.4c-0.2,0.3-0.7,0.5-0.9,0.7
			c-0.4,0.5-0.5,1-0.9,1.4l-0.8,0.8c0,0.2-0.1,0.3-0.1,0.5h-0.2c-0.1,0.1-0.3,0.5-0.4,0.6c-0.1,0.1-0.1,0.2-0.1,0.4
			c-1.4,0.1-2.7-1.6-4.5-1.3c-0.2-0.2-0.5-0.4-0.6-0.7c-0.2,0-0.3,0-0.4,0c-0.6,0.1-1.5,1.7-1.8,2.2v0.3c-0.1,0.2-0.5,0.3-0.6,0.5
			c-0.2,0.2-0.2,0.5-0.3,0.7c-0.2,0.3-0.6,0.6-0.9,0.9c-0.3,0.3-0.4,0.7-0.6,1c-0.2,0.2-0.6,0.3-0.8,0.6c-1.1,1.8-2.7,3.2-3.8,5
			c-0.2,0.2-0.4,0.3-0.6,0.5c-0.9,1.2-1.7,2.2-2.6,3.4c-0.2,0.3-0.6,0.4-0.8,0.6c-0.2,0.3-0.3,0.6-0.5,0.9c-0.1,0.2-0.5,0.2-0.6,0.4
			c-0.2,0.2-0.2,0.4-0.3,0.6c-0.3,0.4-0.7,0.6-1,1c-0.3,0.3-0.4,0.7-0.6,1c-0.2,0.2-0.4,0.2-0.6,0.4c-0.2,0.3-0.3,0.6-0.5,1
			c-0.2,0.2-0.8,0.6-1,0.9v0.3c-0.1,0.2-0.4,0.2-0.6,0.4c-0.1,0.1,0,0.2-0.1,0.3c-0.2,0.2-0.4,0.3-0.6,0.5v0.2
			c-0.1,0.2-0.5,0.3-0.6,0.5c-0.1,0.2-0.2,0.4-0.2,0.6c-0.1,0.1-0.4,0.2-0.5,0.3c-0.3,0.4-0.5,0.8-0.8,1.2l-0.9,0.9
			c-0.2,0.3-0.2,0.6-0.4,0.8c-0.3,0.3-0.7,0.5-1,0.8c-0.1,0.2-0.1,0.4-0.2,0.6c-0.1,0.1-0.3,0.2-0.4,0.3c-0.1,0.2-0.2,0.6-0.4,0.8
			c-0.4,0.5-1.1,1-1.4,1.5c-0.4,0.7-0.8,1.2-1.3,1.8c-0.2,0.2-0.8,0.7-1,0.9c-0.3,0.5-0.5,1.1-0.9,1.4c-0.1,0.1-0.3,0.1-0.4,0.2
			c-0.3,0.4-0.5,0.9-0.8,1.2c-0.1,0.1-0.3,0.1-0.4,0.2c-0.2,0.2-0.2,0.6-0.4,0.9c-0.1,0.1-0.4,0.2-0.5,0.3c-0.1,0.2,0,0.4-0.2,0.5
			c-0.1,0.1-0.4,0.1-0.5,0.2v0.2c-0.1,0.2-0.8,1-1,1.1c-0.2,0.1-0.3,0.1-0.5,0.2c-0.3,0.3-0.4,0.7-0.8,1v0.2h-0.2
			c-0.1,0.4-2.2,2.4-2.6,2.5c0,0.9,0.5,1.1,1,1.5c0.3,0,0.5-0.1,0.8-0.1c0.4-0.4,1-0.7,1.3-1.1c0.4-0.5,0.6-1.1,1-1.6
			c0.3-0.2,0.6-0.4,0.9-0.6v-0.5c0.2-0.1,0.3-0.3,0.5-0.4c0.2-0.3,0.3-0.8,0.6-1c0.1-0.1,0.4-0.1,0.5-0.2c0.2-0.2,0.1-0.3,0.2-0.6
			c0.1-0.1,0.4-0.2,0.5-0.3c0-0.2,0.1-0.3,0.1-0.5c0.2-0.2,0.5-0.3,0.6-0.5c0.2-0.3,0.4-0.6,0.6-0.9c0.1-0.1,0.3-0.1,0.3-0.2
			c0-0.2,0.1-0.3,0.1-0.5c0.3-0.4,0.6-0.2,0.7-0.8h0.2c0.1-0.6,0.7-1,1.1-1.4c0.4-0.5,0.6-1,1-1.5c0.1-0.1,0.5-0.3,0.6-0.4v-0.5
			c0.2-0.3,0.5-0.2,0.6-0.6h0.2c0.1-0.5,0.5-0.6,0.7-0.9c0.1-0.2,0-0.4,0.2-0.6c0.2-0.4,0.7-0.6,1-1v-0.3c0.2-0.3,0.7-0.5,0.9-0.8
			c0.2-0.3,0.3-0.7,0.6-0.9c0.1-0.1,0.4-0.2,0.5-0.3c0.4-0.7,0.8-1.2,1.2-1.9c0.2-0.2,0.6-0.4,0.7-0.6v-0.3c0.1-0.1,0.4-0.2,0.5-0.3
			c0.4-0.5,0.7-0.9,1-1.4c0-0.1,0.3-0.1,0.3-0.2c0.4-0.6,0.7-1.2,1.1-1.8c0.2-0.2,0.6-0.3,0.8-0.6c0.5-0.6,0.9-1.2,1.4-1.8
			c0.4-0.5,1.1-0.5,1.2-1.4h0.2c0.3-0.6,0.8-0.7,1.1-1.1c0.4-0.5,0.5-1,1-1.4v-0.2c0.6-0.1,1.3-1.5,1.7-1.9c0.2-0.2,0.6-0.4,0.8-0.6
			c0.3-0.3,0.5-0.7,0.7-1c0.1-0.1,0.2-0.2,0.3-0.2v-0.3c0.1-0.2,0.6-0.3,0.7-0.5c0.1-0.2,0.2-0.4,0.2-0.6l0.6-0.3
			c0.6-0.8,1-1.6,1.9-2.1c0-0.1,0.1-0.3,0.1-0.4h0.2c0.1-0.5,0.5-0.7,0.7-1c0.2,0,0.3,0,0.4,0.1c-0.2,1.3,0.1,2.8,0.4,3.8
			c0,0.4,0.1,0.9,0.1,1.3c0.3,1.1,0.3,2,0.7,3.1c0.3,0.8,1.1,1.9,1.4,2.4c0,0.1,0.1,0.3,0.1,0.4c0.2,0.4,0.6,0.8,0.8,1.2
			c0.2,0.5,0.2,0.8,0.4,1.2c0.3,0.5,0.8,0.9,1,1.4c0.2,0.3,0.6,1.1,0.6,1.4v0.4c0.1,0.1,0.7,0.4,0.8,0.6l0.2,0.7
			c0.1,0.1,0.2,0.1,0.3,0.2c0.4,0.4,0.6,0.9,0.9,1.4c0.2,0.4,0.7,0.7,1,1c0.2,0.3,0.2,0.7,0.5,1c0.3,0.3,0.7,0.4,1,0.7
			c0.7,0.7,1.2,1.5,1.9,2.2c0.2,0.2,0.7,0.3,0.9,0.5c0,0.1,0.1,0.2,0.1,0.3c0.2,0.2,0.6,0.3,0.8,0.5c0.3,0.2,0.5,0.7,0.8,0.9h0.3
			c0.5,0.3,0.8,0.8,1.2,1.1c0.4,0.3,0.8,0.4,1.3,0.6c0.3,0.2,0.3,0.5,0.5,0.7c0.2,0.2,0.4,0.1,0.6,0.2c0.3,0.2,0.6,0.6,1,0.8
			c0.6,0.4,1.4,0.5,2,1c0.1,0.1,0.2,0.3,0.3,0.4c0.4,0.3,0.8,0.4,1.2,0.6c0.1,0.1,0.2,0.3,0.3,0.4c0.9,0.6,1.8,0.9,2.8,1.4
			c0.2,0.1,0.4,0.4,0.6,0.5c0.3,0.1,0.5,0,0.8,0.2c0.1,0.1,0.2,0.2,0.2,0.3h0.5c0.2,0.1,0.5,0.5,0.7,0.6c0.5,0.2,1,0.1,1.4,0.4
			c0.5,0.3,1,0.8,1.6,1c1,0.4,1.6,0.4,2.5,0.7c0.7,0.3,1.6,0.9,2.3,1.1h0.6c0.9,0.3,1.8,0.6,2.7,1c-0.2,1-0.9,1.5-1.2,2.3
			c-1,0-3.6-1.2-4.1-1.9h-0.2c0,0.1,0.1,0.4,0,0.6c-0.1,0-0.2,0.1-0.2,0.1l-0.2,0.7c0.4,0.4,1,1.3,1.1,1.8c0.9,0.1,1.5,0.5,2.3,0.6
			c-0.1,0.8-0.9,2-1.3,2.7c-1.1,0-3-0.8-3.3-1.5c-0.6,0-0.7,0.2-1,0.4c0,0.4-0.1,0.4,0,0.6c0.1,1.3,2.1,2.2,3.1,2.5
			c0,0.3-0.2,0.8-0.2,1c-0.2,0.1-0.3,0.3-0.5,0.4c-0.3,0.6-0.4,1.2-0.7,1.8c-0.3,0.6-0.9,1-1.2,1.7c-0.9,0.1-1.8-0.6-2.4-1
			c-0.3-0.1-0.7-0.1-0.8-0.2c-0.6,0-0.9,0.1-1,0.6c-0.4,0.8,0.8,1.2,1.3,1.4c0.1,0.1,0.1,0.3,0.2,0.4c0.3,0.3,1,0.5,1.4,0.6
			c-0.1,0.6-0.5,0.7-0.7,1.1c-0.5,0.7-0.8,1.4-1.1,2.2c-0.6,0.1-2,0.6-2.7,0.4c-0.4-0.1-1-0.9-1.7-0.5c-0.4,0-0.3,0.1-0.6,0.2
			c-0.1,0.1,0,0.1-0.1,0.2c0,0.9,0.3,1,0.9,1.4l0.4,0.4c0.7,0.4,1.7,0.2,2.6,0.2c-0.1,0.4-0.3,0.5-0.4,0.8v0.4
			c-0.6,1.4-1.4,2.8-2.1,4.1c-0.4,0-0.7-0.2-1-0.2c-0.7,0-1.5-0.1-2.2-0.1c-0.1-0.1-0.1-0.2-0.2-0.2c-0.4-0.3-0.8-0.3-1.5-0.3
			c-0.1,0.1-0.1,0.1-0.2,0.2c-0.1,0.3-0.2,0.5,0,0.8c0,0.9,1.1,1.2,1.8,1.4c0.4,0.1,0.9,0,1.2,0.2h1c-0.3,0.7-1.4,3-1.9,3.4
			c0,0-1.4,0-1.6-0.1c0-0.1-0.1-0.2-0.1-0.2c-0.2-0.1-0.3,0-0.4,0c-0.2-0.1-0.3-0.3-0.6-0.4v-0.2c-0.6-0.1-1-0.1-1.4,0.2
			c-0.1,0.5,0.1,1.1,0.2,1.7c0.5,0.2,1.3,0.5,1.5,1c0.3,0,0.4-0.2,0.6-0.2c0.2,0,0.4,0.1,0.7,0.2c-0.1,1.3-1.4,2.8-1.9,3.9
			c-0.3,0.1-0.8,0-1,0.1c-0.4,0.1-1.1,0.8-1.8,0.6c-0.4-0.1-0.8-0.4-1.1-0.6c-0.5-0.2-0.4,0.2-0.8-0.2c-0.2,0-0.3,0-0.4,0.1
			c-0.1,0.1-0.1,0.2-0.2,0.2c0,1.1,2.4,3.1,3.8,2.2h0.1c-0.1,1.4-1.4,2.2-1.8,3.4c-0.8,0.1-1.6,0.2-2.4-0.1
			c-0.3-0.1-0.4-0.3-0.8-0.3c-0.1-0.4-0.2-0.6-0.3-1c-0.7-0.1-0.7,0-1.2,0.2c-0.4,1.9,0.3,2,1.5,2.8c0.1,0.1,0.4,0.4,0.5,0.5
			c0.3-0.1,0.5-0.1,0.8-0.2c0.2,0.1,0.1,0.2,0.5,0.2c-0.1,0.7-0.5,1.3-0.9,1.8c-0.1,0.1-0.3,0.2-0.4,0.2c0,0.2-0.1,0.4-0.1,0.6
			c-0.1,0.3-0.5,0.6-0.6,0.9c-0.2,0.4-0.2,0.6-0.3,1c-1.2-0.1-1.9-1.9-2.9-2.3v-0.2c-0.4-0.1-0.6-0.3-0.9-0.2c-0.3,0-0.5,0-0.6,0.1
			c0,0.3-0.1,0.5-0.1,0.8c0.1,0.3,1.5,2.1,1.8,2.3v0.5c0.9,0.1,1.1,0.7,1.9,0.8c-0.1,0.6-0.6,1.6-1,1.9c0.2,1.3,1.7,1.4,2.1,2.4
			c1.3,0,2-0.3,2.5-1.3c0-0.2,0.1-0.4,0.1-0.6c0.1-0.2,0.4-0.4,0.6-0.6c0.2-0.4,0.3-0.7,0.5-1c0.8-1.4,1.7-2.8,2.5-4.2
			c0.1-0.2,0-0.4,0.2-0.6l0.5-0.5c0-0.2,0.1-0.4,0.1-0.6c0.2-0.3,0.7-0.5,0.9-0.8c0-0.1-0.1-0.3-0.1-0.4c0.1-0.2,0.5-0.3,0.6-0.5
			c0.1-0.2,0-0.4,0.2-0.6c0.6-0.8,0.7-1.2,1.1-2.1c0.4-0.9,0.8-1.6,1.4-2.5v-0.3c0.4-0.5,1-1.1,1.4-1.6c0.1-0.2,0.1-0.4,0.2-0.6
			c0.1,0,0.2-0.1,0.2-0.1c0.3-0.5,0.3-1.1,0.6-1.6c1.7-2.8,3-6,5-8.6c0.2-0.3,0.6-1.1,0.7-1.4V354c0.3-0.4,0.6-0.8,0.9-1.3
			c0.1-0.2,0-0.5,0.2-0.6c0-0.1,0.3-0.1,0.3-0.2c0.2-0.3,0.2-0.6,0.4-0.8h0.2c0-0.2,0.1-0.3,0.1-0.5c0.1-0.3,0.5-0.7,0.6-1
			c0-0.2,0.1-0.3,0.1-0.5c0.1-0.3,0.5-0.5,0.6-0.8c0.6-1.1,1.1-2.2,1.8-3.1c0.4-0.5,0.5-1.3,0.8-1.8c0.6-1,1.4-2,1.9-3
			c0.2-0.4,0.3-1,0.5-1.3c0.1-0.1,0.5-0.5,0.6-0.6c0.2-0.4,0.2-0.9,0.5-1.3c0.3-0.5,0.8-1,1-1.5c0.1-0.3,0-0.5,0.2-0.8
			c0.2-0.5,0.7-1,1-1.4c0.2-0.4,0.1-0.7,0.3-1c0.2-0.4,0.6-0.7,0.7-1.1v-0.4c0.5-1.2,1.3-2.4,1.8-3.5c0.8-1.8-0.4-4.7-1.4-5.8
			c0.3-0.9,1.1-1.7,1.4-2.6h0.1c0.5,0.9,1.1,1.8,1.5,2.7c0.6,1.3,1,2.6,1.8,3.8c1.1,1.8,2.6,3.4,3.7,5.2c2.2,3.5,4.1,7.2,6.3,10.6
			c0.3,0.5,0.7,1,1,1.5c0.2,0.2,0.4,0.4,0.6,0.6c0.3,0.5,0.4,1.1,0.8,1.5c0.9,1.1,1.5,2.3,2.3,3.4c0.1,0.2,0.6,0.5,0.8,0.7
			c1.9,2.6,3.7,5.2,5.6,7.8c0.3,0.4,0.8,0.7,1.2,1.1c0.1,0.2,0.1,0.3,0.2,0.5c0.6,0.8,1.5,1.7,2.3,2.3c0.8,0.6,1.3,1.5,2.2,2.1
			c0.3,0.2,0.7,0.1,0.9,0.2c0.2,0.2,0.3,0.6,0.6,0.7c0.3,0.2,0.7,0,1,0.2c0.1,0.1,0.4,0.3,0.6,0.4c0.3,0.2,0.5,0.7,0.9,1
			c0.3,0.2,0.5,0.2,0.7,0.4c0.1,0.2,0.3,0.4,0.4,0.6h0.3c0.2,0.1,0.3,0.4,0.5,0.6c0.2,0.1,0.3,0.1,0.5,0.2c0.3,0.2,0.5,0.6,0.8,0.7
			c0.2,0.1,0.4,0,0.6,0.2c1,0.6,1.2,0.8,2.6,0.6c0.2,0,0.4,0.1,0.6,0.1c0.4-0.2,1.7-1,2.1-1.4c0.5-0.4,1.1-2.4,0.8-3.5
			c-0.1-0.2-0.2-0.4-0.2-0.7c0.1-0.7-0.7-1.6-1-2.2c-0.6-1.1-1.1-2.2-1.7-3.4l-0.2-0.7c-0.9-1.4-1.5-3.1-2.5-4.4
			c0.1-0.2-0.1-0.7-0.2-0.9c-0.6-1.1-1.5-2.2-2.2-3.3c-0.6-1-1-2.3-1.6-3.4c-0.3-0.4-0.8-0.8-1-1.2c-0.3-0.5-0.4-1.1-0.7-1.5
			c-0.2-0.1-0.4-0.3-0.6-0.4c-0.1-0.2-0.1-0.3-0.2-0.5l-0.5-0.5c-0.2-0.3-0.1-0.7-0.3-1c-0.4-0.7-1.1-1.4-1.6-2.1
			c-0.4-0.5-0.3-1.1-0.6-1.6c-0.2-0.3-0.6-0.6-0.8-1c-0.5-0.9-0.7-1.9-1.3-2.7l-0.6-0.6c0-0.2-0.1-0.4-0.1-0.6
			c-0.2-0.5-0.7-1.8-0.5-2.5l-0.1-0.1c1.2,0.3,1.7,1.6,2.5,2.3c0.3,0.3,0.6,0.4,0.9,0.7c0.2,0.2,0.3,0.5,0.6,0.7
			c0.1,0.1,0.2,0.1,0.3,0.2c1.7,2,3.1,4.1,4.5,6.4c0.2,0.3,0.5,0.6,0.7,0.9c0.8,1.3,1.5,2.5,2.3,3.8c0.2,0.2,0.4,0.3,0.6,0.5
			c0.3,0.5,0.4,0.9,0.7,1.3c0.9,1.2,1.9,2.3,2.8,3.4c2.4,3.3,4.8,6.4,7.4,9.5c0.3,0.3,0.7,0.6,1,0.9c1.9,2,5,5.3,8.2,5.6
			c0.2-0.1,0.3-0.1,0.5-0.2c0.9-0.1,2.5,0.2,3.4-0.3c0.1-0.1,0.1-0.2,0.2-0.3c0.3-0.2,0.5-0.1,0.7-0.2c0.6-0.4,1.3-1.9,1.7-2.1
			c0-1.4-0.2-2.5-0.5-3.6c-0.1-0.5,0-0.8-0.2-1.3c-0.2-0.5-0.7-0.9-1-1.4c-0.5-0.8-0.7-1.7-1.3-2.5c-0.3-0.4-0.7-0.8-1-1.3
			c-0.6-1.4-1.3-2.6-2.1-3.8c-0.1-0.2-0.1-0.4-0.2-0.6l-0.7-0.7c0-0.2-0.1-0.4-0.1-0.6c-0.1-0.2-0.5-0.3-0.6-0.6
			c-0.2-0.3-0.1-0.6-0.3-0.9c-0.2-0.3-0.6-0.5-0.9-0.7c-0.1-0.1-0.1-0.3-0.2-0.4c-0.2-0.2-0.5-0.5-0.6-0.7c-0.2-0.3-0.1-0.6-0.3-0.9
			c-0.3-0.2-0.5-0.5-0.8-0.7c-0.4-0.5-0.6-1-1-1.4c-0.2-0.2-0.5-0.4-0.7-0.6c-1.2-1.7-2.3-3.5-3.5-5.3c-0.2-0.1-0.3-0.2-0.5-0.3
			c-0.1-0.2-0.1-0.5-0.2-0.6c-0.2-0.1-0.4-0.2-0.6-0.3c-0.2-0.3-0.2-0.7-0.4-1c-0.2-0.2-0.5-0.4-0.7-0.6c-0.3-0.5-0.7-1-1-1.4
			c-0.2-0.4-0.2-0.9-0.4-1.4c0,0-1.2-1.4-1.3-1.4c-0.1,0-0.2-0.1-0.2-0.1c-0.1-0.3-0.2-0.6-0.3-1c-0.1-0.2-0.5-0.4-0.6-0.6
			c-0.1-0.2-0.1-0.5-0.2-0.7c-0.3-0.5-1-0.9-1.4-1.4c-0.2-0.3-0.5-0.7-0.6-1c-0.1-0.2,0.1-0.5-0.1-0.6c-0.1-0.1-0.3-0.2-0.4-0.4
			c0-0.1,0.1-0.5,0-0.7c-0.2-0.6-1.4-1.9-0.7-2.9c0-0.1,0.1-0.2,0.1-0.2c2.2,0.5,4,2.5,5.5,3.8c2.6,2.4,4.7,5,6.9,7.9
			c1.1,1.5,2.5,2.9,3.5,4.5h0.2c0.1,0.8,0.7,1.1,1,1.6c0.7,1,1.4,1.9,2.2,2.8c0.2,0.2,0.5,0.3,0.6,0.5v0.2c1.5,1.7,3.1,3.3,4.7,4.9
			c0.4,0.5,1,0.9,1.4,1.3c0.2,0.2,0.3,0.5,0.5,0.6c0.2,0.2,0.5,0.3,0.7,0.6c1.1,1.4,2.5,2.4,3.8,3.5c0.2,0.2,0.4,0.5,0.6,0.7
			c0.4,0.3,0.8,0.4,1.3,0.7c0.1,0.2,0.3,0.3,0.4,0.5c0.3,0.2,0.6,0.2,0.9,0.4c0,0.1,0.1,0.2,0.1,0.2c0.2,0,0.4,0.1,0.6,0.1
			c0.3,0.2,0.8,0.5,1.1,0.7c0.9,0.5,2.4,0.5,3.4,0.2h1.7c0.6-0.1,1.2-0.2,1.8-0.4c0.2,0,0.3-0.1,0.5-0.1c0.3-0.2,0.4-0.5,0.6-0.7
			c0.2-0.2,0.6-0.3,0.9-0.6c0,0,0.7-1.6,0.7-1.6c0.2-0.6-0.3-1.5-0.4-1.8c-0.1-0.3-0.1-0.6-0.2-1c-0.1-0.3-0.5-0.7-0.6-1
			c-0.2-0.5-0.1-0.8-0.3-1.3c-0.3-0.6-0.8-1.2-0.9-1.9c-0.2,0-0.4,0-0.6-0.2c-0.3-0.3-0.2-1-0.4-1.4c-0.2-0.4-0.5-0.8-0.7-1.3
			c-0.1-0.2-0.3-0.3-0.4-0.4c-0.1-0.1,0.1-0.4-0.1-0.6l-0.9-0.9c-0.4-0.7-1-1.9-1.5-2.5c-0.1-0.1-0.3-0.1-0.4-0.2
			c-0.2-0.2-0.1-0.6-0.2-0.9c-0.2-0.4-0.5-0.9-0.8-1.3c-0.2-0.3-0.7-0.4-1-0.6c0-0.1-0.1-0.3-0.1-0.4c-0.1-0.1-0.3-0.1-0.3-0.2
			c-0.3-0.3-0.5-0.6-0.7-1c-0.3-0.2-0.5-0.5-0.8-0.7c-0.1-0.2,0-0.4-0.2-0.6c-0.3-0.4-0.9-0.7-1.2-1.1c-0.3-0.4-0.5-0.8-0.8-1.3
			c-0.3-0.5-1.2-0.7-1.6-1c0-0.1-0.1-0.2-0.1-0.3c-0.5-0.6-0.9-1.3-1.4-1.9c-0.2-0.3-0.7-0.3-0.9-0.6c-0.8-1-1.5-2-2.2-3.1
			c-0.5-0.8-1.5-1.3-2-2.1c-0.4-0.6-0.6-1.2-1-1.8c-0.5-0.5-1-1-1.5-1.4v-0.4c-0.2-0.4-0.5-0.8-0.8-1.2c-0.3-0.4-0.8-0.4-1.1-0.7
			c-0.2-0.1-0.2-0.4-0.3-0.6c-0.2-0.3-0.7-0.4-1-0.7c-0.5-0.5-1-1.1-1.4-1.7c-0.4-0.4-0.7-1.3-1-1.8c-0.1-0.1-0.3-0.1-0.4-0.2
			c-0.1-0.2-0.1-0.3-0.2-0.5l-0.4-0.4c-0.3-0.4-0.3-0.9-0.7-1.2c0-0.2,0-0.2,0.1-0.2c0.2-0.2,1-0.3,1.3-0.1c1.5,0,2.3,1.1,3.1,1.8
			c0.5,0.5,1.3,0.9,1.8,1.4c0.2,0.2,0.2,0.5,0.3,0.6c0.2,0.2,0.5,0.3,0.6,0.5c1,1,1.8,2.1,2.7,3c3.2,3.2,6.6,6.1,10.4,8.7
			c2.2,1.5,4.3,3.5,6.6,5c1.4,0.9,2.9,1.4,4.3,2.2c1.4,0.8,3,1.3,4.7,2c0.8,0.3,1.7,0.9,2.5,1.2c0.9,0,1.7,0.1,2.6,0.1
			c0.2-0.1,0.4-0.4,0.6-0.5c0.1,0,0.6,0.1,0.8,0.1c0.8,0,2.2-0.1,2.7-0.5c0.4-0.3,0.5-0.9,0.8-1.3c0.2-0.3,0.8-0.5,1-0.8
			c0.4-0.8,0-2,0.1-3C472.4,325.1,471.8,324,471.6,323.5z M455.8,251c0.1-0.1,0.3-0.1,0.3-0.2c0.1-0.2,0-0.4,0.2-0.5
			c0.2-0.2,0.5-0.2,0.7-0.3c0.3-0.2,0.3-0.6,0.5-0.9c0.2-0.2,0.4-0.3,0.6-0.5c0.3-0.5,0.5-0.9,0.8-1.4c0.2-0.3,0.6-0.4,0.8-0.7
			c0.3,0.1,0.3,0.9,0.4,1.4c-0.1,0.1,0,0-0.1,0.2c-0.4,0-0.5,0-0.9,0v0.6c0,0,0.1,0.1,0.1,0.1c0.2,0,0.2,0,0.2-0.1h0.2
			c-0.8,1.7-1.6,4.5-3.6,5c-0.2-0.2-0.7-0.4-0.9-0.6c-0.2-0.3-0.1-0.6-0.4-0.9C455,251.9,455.5,251.2,455.8,251z M327.5,292.7
			c-0.1-0.2-0.1-0.2-0.2-0.3c0-0.6,0-0.7-0.2-1.1c0-0.3,0.1-0.5,0.1-0.8c0-0.1-0.3-0.5-0.3-0.6c0.2-0.4,0.4-2.4,0.1-3
			c0.1-0.2,0.1-0.1,0.2-0.2c1,0.4,2.1,1.2,3.1,1.5c0,0.8-1.7,2.9-2.2,3.3c0,0.4-0.1,0.5,0.1,0.8c-0.1,0.3-0.1,0.3-0.2,0.4
			C327.9,292.8,327.7,292.7,327.5,292.7z M366.2,326.6c-0.4,0-0.5-0.2-0.8-0.2c-0.1-0.7,0.2-1.3,0.6-1.7h0.2c0.2,0.3,0.4,0.7,0.6,1
			C366.7,326.2,366.4,326.3,366.2,326.6z M469.6,327.8c-0.1,0.1-0.1,0.1-0.2,0.1v0.2c-0.2,0.1-0.2,0.2-0.4,0.2
			c-0.4,0.2-2.3,0-2.7-0.2c-1-0.5-2-1.2-3-1.7c-0.8-0.4-1.8-0.4-2.6-0.9c-0.6-0.4-1-1.1-1.7-1.4c-0.2-0.1-0.2,0.1-0.5,0
			c-0.3-0.1-0.6-0.6-0.9-0.9c-0.2-0.1-0.3-0.1-0.5-0.2c-0.2-0.3-0.5-0.6-0.7-0.9c-0.6-0.4-1.1-0.8-1.7-1.2c-0.4-0.3-0.7-0.8-1.1-1
			v-0.3c-0.8-0.1-0.9-0.8-1.4-1.2c-1.2-0.9-2.2-1.9-3.4-2.8c-0.5-0.4-0.9-1.4-1.5-1.8c-1.3-0.9-2.4-1.7-3.7-2.6
			c-0.6-0.5-1.1-1.3-1.7-1.8c-0.8-0.6-1.4-1.1-2.2-1.8c-0.2-0.2-0.4-0.5-0.6-0.8c-0.2-0.2-0.4-0.3-0.6-0.5c-0.4-0.3-0.6-0.8-1-1.1
			c-0.5-0.4-1-0.7-1.6-1c-0.3-0.2-0.4-0.6-0.6-0.8c-0.3-0.2-0.6-0.3-0.9-0.6c-0.3-0.2-0.3-0.6-0.6-0.8c-0.1,0-0.3-0.1-0.4-0.1
			c-0.3-0.2-0.6-0.7-1-1c-0.7-0.5-1.3-0.9-2.1-1.4c-0.3-0.2-0.5-0.5-0.8-0.6c-0.5-0.1-0.9-0.1-1.4-0.2c-2.1-0.7-4.6-0.1-5.6,1.4
			c-0.4,0.6-0.6,3.1-0.3,3.8c0.1,0.3,0.6,0.9,0.7,1.2c0.1,0.3,0.2,1,0.4,1.5c0.3,0.6,1,1.2,1.4,1.8c0.2,0.3,0.3,0.7,0.5,1
			c0.2,0.2,0.5,0.4,0.7,0.6c0.2,0.2,0.5,0.9,0.6,1c0.2,0.2,0.5,0.2,0.6,0.4c0.2,0.3,0.3,0.7,0.6,1c0.4,0.5,1.1,0.8,1.5,1.3
			c0.2,0.2,0.2,0.5,0.4,0.7c0.1,0.1,0.3,0.1,0.4,0.2c0.2,0.2,0.3,0.6,0.5,0.9c0.2,0.2,0.5,0.3,0.6,0.6c0.2,0.2,0.1,0.8,0.2,0.8
			c0.1,0.1,0.3,0.1,0.4,0.2c0.4,0.3,0.8,0.8,1,1.1c0.2,0.2,0.2,0.4,0.3,0.6c0.3,0.4,0.8,0.7,1,1.1c0.1,0.2,0.2,0.4,0.2,0.6
			c0.3,0.2,0.5,0.5,0.8,0.7v0.2c0.3,0.4,0.9,0.7,1.2,1.1c0.6,0.7,1.1,1.4,1.6,2.2c0.2,0.2,0.4,0.3,0.6,0.5c0.7,0.9,1.5,1.8,2.3,2.6
			c0.2,0.2,0.6,0.4,0.8,0.6c1,1.2,1.9,2.4,2.9,3.7c0.3,0.4,1,0.6,1.3,1c0.9,1.3,1.6,2.6,2.5,4c0.2,0.3,0.6,0.6,0.8,1
			c0.3,0.4,0.3,0.9,0.6,1.3c0.6,1,1.4,2,1.9,3c0.2,0.4,0.2,0.7,0.4,1.1c0.4,0.8,1.3,1.5,1.3,2.7c-0.2,0-0.2,0-0.3,0.1h-0.1
			c0.1,0.1,0.3,0.1,0.5,0.1c0.9,1.8,0.7,1.9-0.4,3.4c-2.7,0.1-4.8-1.9-6.6-3.1c-0.2-0.2-0.4-0.5-0.6-0.7c-2.2-1.6-4.2-3.7-5.9-5.8
			c-0.3-0.4-1.3-1.1-1.8-1.5c-0.2-0.1-0.2-0.5-0.4-0.6c-0.3-0.2-0.9-0.6-1.1-0.9c-0.5-0.8-1-1.5-1.6-2.2c-0.2-0.3-0.7-0.4-0.9-0.7
			c-0.2-0.3-0.2-0.5-0.5-0.7v-0.2h-0.2c-0.2-0.2,0-0.5-0.1-0.6l-0.3-0.1c-0.2-0.2-0.6-0.8-0.7-1v-0.4c-0.1-0.1-0.8-0.5-0.9-0.6
			c-0.2-0.1,0.1-0.2-0.1-0.4c-0.2-0.2-0.4-0.5-0.6-0.7c-0.2-0.2-0.5-0.4-0.7-0.6v-0.2c-0.1-0.1-0.3-0.1-0.4-0.2
			c-0.2-0.3-0.3-0.7-0.6-0.9c-0.2-0.1-0.4-0.1-0.5-0.2c-1.7-2.2-3.3-4.4-5.2-6.3c-0.7-0.8-2.8-2.5-3.1-3.4h-0.2v-0.2
			c-1-1-1.9-2-3-2.8c-0.6-0.4-0.9-1.1-1.6-1.4c-0.5-0.2-1.2-0.1-1.5-0.2c-0.5-0.2-1.5-0.5-2-0.5c-1.8,0.1-2.8,1.6-3.2,3.2
			c-0.1,0.4,0.2,0.7,0.2,1c-0.1,0.3-0.3,1.2-0.2,1.5c0.1,0.1,0.2,0.1,0.2,0.2c0.1,0.3,0,0.6,0.1,0.8c0.1,0.3,0.5,0.7,0.6,1v0.6
			c0,0.1,0.2,0.4,0.2,0.6c0.1,0.4-0.2,0.4-0.1,0.7c0.2,0.4,0.6,0.4,0.8,0.9c0.2,0.7,0.3,1.5,0.7,2c0.1,0.1,0.2,0,0.3,0.1
			c0.5,0.5,0.8,1.1,1.2,1.8c0.1,0.1,0.3,0.2,0.4,0.3v0.4c0,0.1,0.6,0.9,0.7,1c0.1,0.1,0.2,0.1,0.3,0.2c0.5,0.6,0.8,1.4,1.2,2.1
			l0.6,0.6c0.3,0.6,0.4,1.2,0.8,1.7c0.2,0.1,0.4,0.3,0.6,0.4c0.5,0.7,0.8,1.3,1.3,2c0.2,0.2,0.4,0.3,0.6,0.5
			c0.1,0.2,0.2,0.4,0.2,0.6c0.1,0,0.2,0.1,0.2,0.1c0.1,0.2,0.3,0.5,0.4,0.7c0.1,0.1,0.3,0.1,0.4,0.2c0.1,0.2,0.3,0.8,0.4,1
			c0.2,0.3,0.5,0.5,0.7,0.8c0.2,0.3,0.3,0.6,0.5,1l1.4,1.4c0.3,0.4,0.3,0.7,0.6,1.1c0.2,0.4,0.9,0.6,1.1,1c0.1,0.2,0,0.4,0.2,0.6
			c0.7,1,1.6,1.9,2.2,3c0.2,0.3,0.1,0.6,0.3,0.9c0.1,0.1,0.2,0.2,0.3,0.2c0.3,0.5,0.4,1,0.7,1.4c0.2,0.3,0.6,0.5,0.8,0.9
			c0.1,0.3,0.2,0.6,0.2,0.9c0.1,0.2,0.4,0.4,0.5,0.6c0.2,0.4,0.2,0.8,0.5,1.2c0.1,0.2,0.4,0.4,0.6,0.6c0.1,0.3,0,0.5,0.2,0.7
			c0.6,1.1,1.4,1.8,1.8,3.2c0.4,1.4,0.8,3.4-0.8,3.8c-0.1,0.1-1.2-0.4-1.4-0.6c-0.2,0-0.4-0.1-0.6-0.1c-1-0.4-2.4-1.5-3-2.3h-0.3
			c-0.1-0.7-0.7-1-1.2-1.4c-0.1-0.1-0.2-0.3-0.2-0.4c-0.8-0.7-1.5-1.5-2.2-2.2c-0.6-0.7-1.1-1.6-1.7-2.4c-0.2-0.2-0.4-0.4-0.6-0.6
			c-0.5-0.7-1-1.3-1.6-1.9c-0.4-0.4-0.6-1-0.9-1.4c-0.4-0.6-1-1.1-1.4-1.7c-0.4-0.5-0.7-1.1-1.1-1.5c0-0.3,0-0.3,0.2-0.4
			c0-0.2,0-0.2-0.1-0.3c-0.1-0.1-0.2,0-0.5,0c-0.1-0.7-0.8-1.1-1.2-1.6c-0.3-0.4-0.4-0.8-0.7-1.2c-0.2-0.3-0.7-0.6-0.9-1
			c0-0.2-0.1-0.3-0.1-0.5c-0.1,0-0.2-0.1-0.2-0.1c-0.1-0.2-0.1-0.4-0.2-0.6c-0.1,0-0.2-0.1-0.2-0.1c-0.7-0.8-1-1.8-1.6-2.7
			c-0.2-0.2-0.4-0.3-0.6-0.5c-0.8-1.1-1.5-2.3-2.2-3.5c-0.1-0.1-0.4-0.1-0.5-0.2c-0.2-0.2-0.2-0.5-0.3-0.7c-0.4-0.5-0.9-1-1.3-1.6
			c-0.5-0.7-1.3-1.2-1.8-1.8c-0.9-1.1-2.8-3.4-4.2-3.9c-1.1-0.4-2.7-0.5-3.5,0.2c-0.5,0.4-0.7,1.1-1.4,1.4c-0.7,2.9,0.5,5.4,1.8,7.4
			c0.5,0.7,0.6,1.7,1,2.5c0.4,0.6,1,1.2,1.4,1.8c0.2,0.3,0.2,0.8,0.4,1.1c0.1,0.2,0.4,0.3,0.5,0.4c0.2,0.3,0.1,0.6,0.3,0.9
			c0.3,0.6,1.1,1.2,1.4,1.8c0.1,0.3,0.2,0.8,0.3,1h0.2c0.2,0.2,0.5,0.5,0.6,0.7c0.4,0.5,0.5,1,0.8,1.6c0.2,0.1,0.3,0.3,0.5,0.4
			c0.5,0.8,0.9,1.7,1.4,2.4c0.2,0.3,0.5,1,0.6,1.2v0.3c0.6,1,1.5,2.2,2.2,3.4c0.4,0.7,0.4,1.6,0.9,2.3c0.2,0.3,0.6,0.5,0.7,0.8
			c0.3,0.5,0.3,1,0.6,1.6c0.1,0.3,0.5,0.6,0.6,0.9c0.2,0.4,0.2,0.9,0.4,1.2c0.2,0.3,0.5,0.6,0.6,0.9c0,0.2,0.1,0.3,0.1,0.5
			c0.3,0.4,0.8,0.8,1,1.4v0.7c0.1,0.6,0.2,1.2,0.3,1.7c-0.2,0.2-0.3,0.3-0.3,0.6c-0.6,0-1.1,0.3-1.7,0.2v0.2c-0.1,0-0.5,0-0.6,0
			c-0.1-0.1-0.3-0.5-0.5-0.6c-0.3-0.2-0.8-0.1-1.1-0.3c-0.6-0.4-1.2-1-1.8-1.4c-0.1-0.1-0.2-0.3-0.2-0.4c-0.2-0.2-0.5-0.2-0.6-0.3
			c-0.3-0.4,0-0.9-0.2-1.3c-0.3-0.5-0.9-0.9-1.4-1.4c-0.3-0.3-0.5-0.8-0.9-1.1c-0.1-0.1-0.5-0.2-0.6-0.3v-0.3
			c-0.2-0.3-0.6-0.4-0.8-0.6c-0.2-0.2-0.2-0.5-0.4-0.7c-0.4-0.5-1-1-1.4-1.6c-0.2-0.4-0.3-0.7-0.5-1.1c-0.2-0.3-0.7-0.5-0.9-0.8
			c-0.4-0.5-0.6-1-1-1.5c-0.2-0.3-0.6-0.6-0.8-0.9c-0.1-0.2,0-0.3-0.2-0.6c-0.2-0.2-0.4-0.4-0.6-0.6v-0.3c-0.2-0.3-0.6-0.6-0.8-0.9
			c-0.4-0.6-0.6-1.2-1-1.8c-0.1-0.2-0.5-0.3-0.6-0.5c-0.2-0.3,0-0.6-0.2-0.9c-0.2-0.3-0.7-0.6-0.9-0.9c-0.4-0.6-0.6-1.1-1-1.7
			c-0.4-0.5-1-1-1.4-1.6c-0.3-0.6-0.8-1.3-0.9-1.8c-0.2-0.1-0.3-0.1-0.5-0.2c-0.2-0.3-0.3-0.6-0.5-1c-0.2-0.3-0.6-0.6-0.8-1
			c-0.2-0.3-0.2-0.6-0.4-0.8c-0.1-0.1-0.3-0.1-0.4-0.2l-0.2-0.7l-0.4-0.4c-0.3-0.4-0.4-0.8-0.6-1.2c-1.2-1.9-2.2-4.1-3.6-5.9
			c-0.2-0.3-0.2-0.7-0.4-1c-0.5-0.8-1.2-1.7-1.8-2.5c-0.5-0.8-1-1.6-1.4-2.3v-0.2c-0.1-0.1-0.3-0.1-0.3-0.2
			c-0.2-0.4-0.2-0.8-0.4-1.2c-0.5-0.8-1.2-1.6-1.6-2.4c-0.4-0.8-0.7-1.6-1.1-2.4c-1.4-2.4-3-4.7-4.4-7.1c-0.2-0.4-0.2-1-0.5-1.4
			c-0.2-0.3-0.6-0.6-0.7-0.9c-0.2-0.3-0.1-0.6-0.2-0.9c-0.1-0.3-0.4-0.7-0.6-1c-0.2-0.3-0.1-0.6-0.2-0.9c-0.1-0.3-0.5-0.7-0.6-1
			c-0.1-0.2-0.1-0.5-0.2-0.7c-0.1-0.2-0.4-0.4-0.6-0.6c-0.3-0.5-0.4-1-0.7-1.5h-0.2c-0.2-0.2,0-0.5-0.2-0.8c-0.2-0.3-0.6-0.6-0.7-1
			c-0.9-1.6-1.4-3.3-2.3-4.9c-0.1-0.2-0.3-0.6-0.5-0.8c-0.2-0.1-0.4-0.3-0.6-0.4l-0.2-0.7c-0.8-1.3-1.8-2.5-2.4-4.1
			c-0.4,0.1-0.3,0.2-0.7,0.2c0,0.2,0.1,0.4,0.1,0.6c0,0.2-0.3,0.5-0.2,0.8c0.1,0.2,0.4,0.5,0.6,0.7c0.1,0.2,0.1,0.5,0.2,0.7
			c0.1,0.3,0.4,0.5,0.6,0.7v0.4c0.1,0.2,0.4,0.4,0.6,0.6c0.3,0.4,0.3,0.9,0.6,1.3c0.2,0.3,0.7,0.7,0.9,1c0.2,0.4,0.2,0.7,0.4,1.1
			c0.4,0.8,1,1.7,1.4,2.6c0.2,0.5,0.1,1,0.4,1.4c0.1,0.1,0.2,0.2,0.3,0.2c0.4,0.7,0.5,1.5,1,2.1c0.2,0.2,0.4,0.4,0.6,0.6
			c0.3,0.5,0.3,1.2,0.6,1.6c0.2,0.2,0.5,0.3,0.6,0.6c0.2,0.5,0.2,0.9,0.4,1.4c0.4,0.8,1,1.6,1.4,2.4c0.2,0.4,0.1,0.6,0.3,1
			c0.1,0.2,0.4,0.4,0.6,0.6c0.2,0.4,0.1,0.6,0.4,0.9c-0.1,0.8-0.7,1-1,1.5c-0.2,0.2-0.1,0.7-0.2,0.9c0,0.1-0.3,0.1-0.3,0.2
			c-0.1,0.2-0.2,0.4-0.2,0.6c-0.1,0.3,0,0.4-0.2,0.6c-0.2,0.4-0.6,0.8-0.8,1.2c0,0.2-0.1,0.4-0.1,0.6c-0.2,0.1-0.4,0.2-0.6,0.3
			c-0.1,0.1-0.1,0.3-0.2,0.5c-0.2,0.3-0.6,0.6-0.8,1v0.3c-0.3,0.4-0.7,0.9-1,1.3c-1.1,1.7-1.7,3.6-3.1,5c-0.7,0.3-3.1-1-3.8-1.3
			c-0.4-0.2-0.7-0.1-1-0.2c-0.6-0.3-1.4-0.7-2-1c-0.4-0.1-0.6,0-1-0.2c-0.2-0.1-0.1-0.4-0.3-0.5c-0.5-0.2-0.9-0.2-1.4-0.4
			c-0.2-0.1-0.5-0.3-0.7-0.4c0-0.1-0.1-0.2-0.1-0.2c-0.2-0.1-0.5,0-0.6-0.1c-0.1-0.1-0.1-0.3-0.2-0.3c-1.2-0.8-2.4-1.3-3.7-2.1
			c-0.1-0.1-0.1-0.3-0.2-0.3c-0.1-0.1-1.1-0.4-1.3-0.4c-0.2-0.6-1.2-1.1-1.7-1.4c-0.1-0.1-0.2-0.3-0.2-0.3c-0.1-0.1-0.3-0.1-0.4-0.2
			c-0.1-0.1-0.1-0.3-0.2-0.3c-0.1,0-0.2-0.1-0.3-0.1c-0.3-0.2-0.6-0.6-0.9-0.9c-0.3-0.2-0.7-0.2-1-0.5c-0.8-0.7-1.7-1.2-2.5-1.9
			c-0.4-0.4-0.7-0.9-1.1-1.4c-0.1-0.1-0.3-0.1-0.4-0.2c0-0.1-0.1-0.3-0.1-0.4c-0.2-0.3-0.5-0.4-0.8-0.6c-0.1-0.2-0.2-0.4-0.3-0.6
			c-0.2-0.2-0.6-0.4-0.8-0.6v-0.2c-0.2-0.2-0.6-0.3-0.7-0.6c-0.3-0.3-0.3-0.8-0.6-1.1c-0.1-0.1-0.4-0.2-0.5-0.3
			c-0.1-0.2,0-0.4-0.2-0.6c-0.2-0.2-0.5-0.3-0.6-0.6c-0.4-0.5-1.7-2.7-1.8-3.3c-0.2,0-0.2,0-0.2-0.1c-0.1,0-1-1.9-1.1-2.1h-0.2
			c-0.2-0.1,0.2-0.1,0.2-0.1c-0.2-0.8-0.9-1.2-1-2c-0.3-0.1-1.4-2.4-1-2.9c0.2-0.5,1.6-0.7,2-1.2c0-0.1-0.1-0.2-0.1-0.2
			c0.3-0.5,0.9-1.1,1.1-1.7c0.1-0.2-0.1-0.3,0-0.6c0.3-0.6,1.1-1,1.4-1.6c0.1-0.2-0.1-0.5-0.1-0.6c0.1-0.1,0.4-0.2,0.5-0.3
			c0.1-0.2,0.1-0.4,0.2-0.6c0.1-0.2,0.4-0.4,0.5-0.6c0.1-0.2,0-0.4,0.2-0.6l0.5-0.5c0.1-0.2-0.1-0.3-0.1-0.3
			c0.1-0.2,0.5-0.4,0.6-0.6c0.2-0.3,0.2-0.7,0.4-0.9c0.1,0,0.2-0.1,0.3-0.1c0.2-0.1,0.2-0.3,0.3-0.5h0.2v-0.3h0.2v-0.2
			c0,0,0.4-0.3,0.4-0.3v-0.3c0.1,0,0.2-0.1,0.2-0.1v-0.2c0.1-0.1,0.5-0.4,0.6-0.5c0.2-0.2,0.1-0.5,0.2-0.7c0.1,0,0.2-0.1,0.3-0.1
			c0-0.2,0.1-0.4,0.1-0.6c0.1-0.2,0.5-0.3,0.6-0.6c0.2-0.3,0.1-0.6,0.3-0.9c0.1-0.2,0.4-0.3,0.5-0.5c0-0.1,0.1-0.3,0.1-0.4
			c0.1-0.2,0.5-0.3,0.6-0.5c0.1-0.2,0-0.4,0.2-0.6c0.1-0.1,0.4-0.2,0.5-0.3v-0.3c0.1,0,0.2-0.1,0.2-0.1c0.1-0.2,0.2-0.4,0.3-0.6h0.2
			v-0.3c0.1-0.3,0.4-0.6,0.6-0.9v-0.4c0.1-0.2,0.4-0.1,0.5-0.2c0.2-0.3,0.8-1.4,0.9-1.7h0.2c0.1-0.7,0.8-1.4,1.2-2
			c0.1-0.1,0.4-0.2,0.5-0.3v-0.3c0.3-0.6,1-1,1.4-1.6c0.1-0.2,0.1-0.4,0.2-0.6c0.1-0.1,0.1-0.1,0.2-0.1c0.1-1.2,1.7-2.1,1.9-3.2h0.2
			c0.4-0.8,1-1.7,1.6-2.3c0.1-0.1,0.4-0.2,0.5-0.3c0.7-1,1.4-1.7,2.1-2.6c0.2-0.2,0.4-0.4,0.6-0.6v-0.2c0.1-0.1,0.3-0.1,0.4-0.2
			c0.1-0.2,0.2-0.4,0.3-0.6c0.1,0,0.2-0.1,0.3-0.1c0.2-0.2,0.2-0.6,0.3-0.8c0.3-0.5,1.1-0.7,1.4-1.3h0.2c0.1-0.6,0.6-1,1-1.3
			c0.1-0.1,0.1-0.1,0.2-0.1c0.1-0.4,0.5-0.7,0.8-0.9v-0.2h0.2c0.1-0.5,0.6-0.5,0.9-0.8c0.1-0.1,0.1-0.3,0.2-0.5
			c0.3-0.3,0.9-0.5,1.2-0.8c0.2-0.1,0.2-0.4,0.4-0.6c0.1,0,0.2-0.1,0.2-0.1v-0.2c0.3-0.4,1.2-0.7,1.6-1c0.2-0.2,0.3-0.6,0.6-0.8h0.2
			c0.1-0.1,0.2-0.3,0.2-0.4c1.2-0.8,2.2-1.6,3.4-2.4c0.1-0.1,0.1-0.4,0.2-0.5h0.3c0.3-0.2,0.4-0.4,0.6-0.6c0.2-0.1,0.4-0.2,0.6-0.2
			c0.1-0.2,0.3-0.4,0.4-0.6c0.3-0.2,0.6-0.2,0.9-0.4c0.4-0.2,0.6-0.7,1-1c0.2,0,0.3-0.1,0.5-0.1c0.1-0.1,0.2-0.4,0.3-0.5
			c0.4-0.3,0.9-0.4,1.3-0.7c0.3-0.3,1-1,1.4-1.2c0.2,0,0.4,0.1,0.6,0.1c0.2-0.1,0.6-0.4,0.8-0.5c0.4-0.2,0.8,0,1.1-0.2
			c0.3-0.2,0.6-0.6,0.9-0.8c0.3-0.1,0.6-0.1,0.8-0.2c0.1-0.1,0.1-0.3,0.2-0.4c0.2,0,0.4,0.1,0.6,0.1c0.3-0.1,0.7-0.3,1-0.4h0.4
			c1-0.4,2.2-0.7,3.4-1c0.7-0.2,1.5,0.2,2.1,0.1c0.6-0.1,1.3-0.1,1.9,0.1c0.2,0.1,0.5,0.3,0.6,0.3c0.4,0.1,0.6-0.1,1.1,0
			c1.1,0.3,2,0.9,3,1.2h0.6c0.6,0.2,1.3,0.7,1.8,0.9h0.4v0.2l0.7,0.2c0.1,0.1,0.2,0.3,0.3,0.4c0.3,0,0.5,0.1,0.8,0.1l0.6,0.6
			c0.2,0,0.4,0.1,0.6,0.1c0.8,0.3,1.6,1,2.3,1.4c0.2,0.1,0.8,0.1,1,0.2c0,0.1,0.1,0.2,0.1,0.3c0.2,0.2,0.5,0.2,0.7,0.3
			c0.1,0.1,0.2,0.3,0.2,0.4c0.4,0.3,0.9,0.4,1.3,0.7c0.1,0.1,0.1,0.3,0.2,0.4c0.2,0.2,0.6,0.2,0.8,0.3c0.2,0.2,0.4,0.5,0.6,0.7
			c0.2,0.1,0.4,0.1,0.6,0.2c0.3,0.2,0.5,0.7,0.8,1c0.2,0.2,0.5,0.2,0.7,0.3c0.2,0.2,0.4,0.5,0.6,0.6c0.4,0.4,1,0.4,1.4,0.7
			c0.2,0.2,0.4,0.5,0.6,0.6c0.3,0.2,0.5,0.2,0.8,0.4c0.2,0.1,0.2,0.4,0.4,0.6c0.3,0.2,0.8,0.2,1,0.5c0.1,0.1,0.2,0.4,0.3,0.5
			c0.5,0.4,1.2,0.5,1.8,0.9l0.5,0.5c0.4,0.2,0.9,0.1,1.3,0.4c0,0.1,0.1,0.2,0.1,0.2c0.3,0.2,0.9,0.1,1.2,0.2c0.9,0.3,1.9,1,2.7,1.4
			c0.7,0.3,1.4,0.3,2.1,0.6c0.4,0.2,1,0.5,1.4,0.7c0.3-0.1,1.5,0.1,1.8,0.2c0.6,0.3,0.8,1,1.3,1.4c0.3,0.2,1.1,0.4,1.4,0.5
			c1,0.3,2.9,0.2,3.9,0h1.3c0.1,0,0.6-0.2,0.6-0.2c1.5,0.2,2.9,0.3,4.4,0h0.6c0.3-0.1,0.9-0.4,1.3-0.4c0.5-0.1,1,0.1,1.5-0.1
			c0.6-0.2,1.2-0.6,1.8-0.7c0.8-0.2,1.3,0.1,2-0.2c0.8-0.3,1.4-0.8,2.1-1.2c0.4-0.2,0.7-0.1,1.1-0.3c0.2-0.1,0.4-0.4,0.6-0.6
			c0.4-0.2,0.9-0.3,1.2-0.6c1.1,0.1,1.7,2,2.9,2.5c0.9,0.3,1.7-0.4,2.2-0.6h0.4c0.2-0.1,1.1-1.2,1.3-1.4V254
			c0.2-0.2,0.6-0.4,0.7-0.6c0-0.2,0.1-0.3,0.1-0.5c0.2-0.4,0.9-0.9,0.7-1.4c0.5-0.9,1.2-1.7,1.5-2.6v-0.6c0.1-0.4,0.5-1.1,0.6-1.5
			c0.1-0.4-0.4-0.8-0.2-1.1v-0.2c0.2,0,0.3,0,0.4,0.1c0.8,0.3,1.2,2.6,1.4,3.6c-0.1,0.3-0.1,0.6-0.2,0.9c0,0.1,0.3,0.4,0.3,0.6
			c-0.1,0.2-0.1,0.3-0.2,0.5c0.3,1.8,0.4,6.1-0.5,7.8c-0.3,0.6-0.9,1.4-1.2,2c-0.3,0.6-0.1,1-0.5,1.5c-0.2,0.4-1.2,0.9-1,1.6
			c0.1,0.2-0.9,1.1-1.1,1.4c-0.9,1.4-2.1,2.2-3.6,3c-0.6,0.3-1.1,0.9-1.7,1.1c-0.2,0-0.5,0.1-0.7,0.1c-0.1,0.1-0.2,0.2-0.2,0.3
			c-0.5,0.2-0.5,0-1,0.2c-0.2,0.1-0.5,0.3-0.7,0.4c-0.6,0.3-1.2,0-1.9,0.2c-0.2,0-0.4,0.3-0.5,0.3c-0.5,0.2-1.1,0-1.6,0.2
			c-1.7,0.5-3.7,0.6-5.4,1c-0.3,0-0.6-0.1-0.9-0.1c-0.1,0-2.4,0.2-2.4,0.2c-1.1-0.3-2.9-0.2-3.8,0.2c-1.2,0.5-2.9,1.8-3.6,2.8
			c-0.2,0.1-0.4,0.3-0.6,0.4c-0.2,0.4,0,0.6-0.2,1c-0.1,0.1-0.3,0.2-0.4,0.3c-0.2,0.3-0.4,1.1-0.5,1.2c-0.1,0.4,0.2,0.7,0.2,1
			c0,0.6-0.2,1.9,0,2.6c0.5,1.4,1.8,2.1,2,3.6c0.7,0.1,0.9,0.9,1.2,1.4c0.7,0.9,1.4,1.9,2,2.9c0.1,0.2,0.5,0.2,0.6,0.4
			c0.3,0.3,0.3,0.7,0.6,1c0.3,0.4,0.9,0.6,1.1,1c0.1,0.1,0,0.2,0.1,0.3c0.5,0.4,1,0.7,1.4,1.1c0.4,0.4,0.8,0.9,1.2,1.4
			c0.1,0.1,0.3,0.1,0.4,0.2c0.1,0.1,0,0.4,0.2,0.5h0.2c0.2,0.2,0.4,0.6,0.6,0.8c0.2,0.1,0.9,0.6,1,0.8c0.1,0.2-0.1,0.4,0.1,0.5
			c0.3,0.3,0.8,0.3,1.2,0.6c0.2,0.1,0.2,0.6,0.3,0.8c0.3,0.4,0.8,0.5,1.1,1h0.2c0.1,0.7,1,1.1,1.5,1.5c0.2,0.2,0,0.3,0.2,0.5
			c0.2,0.3,0.9,0.7,1.2,1c0.1,0.1,0.1,0.4,0.2,0.5c0.1,0.1,0.4,0.1,0.6,0.2c0.3,0.2,1.1,1.1,1.4,1.4c1.9,2.1,3.9,4.5,6.1,6.2
			c0.4,0.3,0.5,0.8,0.9,1.1c1.2,0.9,2.1,2,3.1,3.1c0.2,0.3,0.7,0.4,0.9,0.7c0.1,0.2,0.2,0.4,0.3,0.5c0.1,0,0.2,0.1,0.2,0.1
			c0.3,0.4,0.5,0.9,0.8,1.2c0.3,0.3,0.6,0.4,0.8,0.7h0.2v0.2c0.6,0.2,0.8,0.9,1.3,1.2c0.8,0.6,2,2.1,2.5,3c0.2,0.3,0.1,0.6,0.2,1
			c0.1,0.3,0.4,0.6,0.6,0.9C469.9,325.5,470.2,327.1,469.6,327.8z M539.3,286h-0.2c-0.1-0.4,0.2-0.9,0.1-1.4
			c-0.1-0.3-0.3-1.4-0.2-1.8c0.1-0.4,0.2-1.3,0-1.8c-0.1-0.3-0.3-0.9-0.2-1.4c0-0.1,0.1-0.5,0.1-0.6c0-0.1-0.3-0.4-0.3-0.6
			c0-0.1,0.1-0.5,0.1-0.7c0-0.3-0.1-0.3-0.2-0.4c0-0.1,0.1-0.3,0.1-0.3c-0.1-0.5-0.1-0.9-0.2-1.4c-0.1-0.3-0.3-0.8-0.3-1.2
			c0-0.3,0.1-0.9-0.1-1.3c0-0.1-0.3-0.5-0.3-0.6V272c-0.1,0-0.2-0.1-0.2-0.1c0.2-0.2-0.3-1.8-0.5-2.1l-0.5-0.5
			c-0.8,0-0.7,0.1-1.4,0.2c-0.1,0.3-0.3,0.6-0.2,1c0.1,0.3,0.4,0.6,0.6,0.9c0.2,0.5,0.4,1.2,0.6,1.7c0,0,0.1,2,0.2,2.3
			c0,0.1,0.2,0.3,0.2,0.4c0,0.1-0.2,0.4-0.1,0.6c0,0.1,0.2,0.3,0.2,0.3c0.2,0.6,0.1,1.6,0.2,2.5c0.3,1.5,0.5,3.9,0.4,5.6
			c0,0.3,0.2,0.8,0.2,1.1c-0.1,0.6,0.1,2.8-0.1,3.2c-0.3,0.6,0.1,1.1,0,1.8c-0.2,0.8,0.2,1.8-0.1,2.9c-0.1,0.2-0.2,0.8-0.2,1
			c0,0.2,0.1,0.4,0.1,0.6c-0.1,0.4-0.3,1.1-0.2,1.4c0,0.1,0.2,0.3,0.2,0.4l-0.2,0.2c0.2,0.8,0,1.6-0.2,2.2c-0.1,0.4,0.1,0.9,0.1,1.2
			c-0.1,0.6-0.3,1.3-0.4,2c-0.1,0.5,0,1.8,0.1,2.5c0.1,0.4-0.1,0.9-0.2,1.4c0,0.2,0.1,0.4,0.1,0.5c0,0.2-0.2,0.8-0.2,1
			c0,0.3,0.1,0.7,0.1,1c-0.1,0.6-0.2,1.4-0.3,1.7c0,0.2,0.1,0.3,0.1,0.5l-0.2,0.2c-0.1,0.2,0.1,0.2,0.1,0.3c0,0.4-0.1,0.8-0.2,1
			c0,0.1,0.2,2.1,0,2.5c-0.3,0.8-0.3,1.6-0.5,2.2c-0.1,0.2,0.1,0.4,0.1,0.5c-0.2,0.9-0.5,2-0.6,2.5c-0.1,0.5,0,1.1-0.2,1.8
			c-1.4,5.1-2,9.8-4.1,14.4c0,0.1,0.1,0.2,0.1,0.3c-0.1,0.3-0.4,0.8-0.6,1.2v0.4c-0.7,1.2-1.1,2.8-1.8,4c0,0.3-0.1,0.5-0.1,0.8
			c-0.1,0.2-0.4,0.3-0.5,0.5c-0.1,0.3-0.1,0.5-0.2,0.8c-0.2,0.5-0.5,1.2-0.8,1.8v0.5c-0.1,0.2-0.4,0.4-0.5,0.6
			c0,0.2-0.1,0.4-0.1,0.6c-0.3,0.6-0.9,1.4-1.1,2v0.5l-0.3,0.3c0,0.2-0.1,0.5-0.1,0.7c-0.3,0.5-0.8,1.1-1,1.6
			c-0.4,0.8-0.6,1.7-1.2,2.4c0,1.1,0.6,1.4,1,2.2c0.4,0.1,0.8,0.1,1-0.1c0.2-0.1,0.2-0.2,0.4-0.3c0-0.4-0.3-1.4-0.2-1.4
			c1.1-3.2,3.1-5.7,3.8-9h0.2c0.1-0.9,0.6-1.9,1-2.6c0-0.1-0.1-0.2-0.1-0.2c0.1-0.2,0.4-0.5,0.5-0.7c0-0.2,0.1-0.5,0.1-0.7
			c0.1-0.2,0.5-0.7,0.6-0.9v-0.4c0.1-0.3,0.3-0.5,0.4-0.8v-0.4c0.1-0.1,0.2-0.1,0.3-0.2c0-0.3,0.1-0.5,0.1-0.8
			c0.1-0.2,0.3-0.3,0.3-0.5c0.1-0.2,0-0.5,0-0.5h0.2c0.1-0.3,0.2-0.6,0.3-0.9h0.2c0.1-0.2-0.1-0.4,0-0.6c0-0.1,0.3-0.3,0.3-0.4
			c0-0.2-0.1-0.4-0.1-0.6c0.4-1.1,0.8-2.6,1.4-3.8c0.2-0.3-0.2-0.7,0-1.1c0,0,0.4-0.3,0.4-0.3v-0.4c0.1-0.2,0.2-0.4,0.3-0.6
			c0.3-0.7,0-1.5,0.2-2c0.5-1.2,0.8-2.9,1.3-4.2c0.1-0.5,0.1-1.1,0.2-1.6c0-0.1-0.1-0.3-0.1-0.3c0.1-0.2,0.4-0.5,0.4-0.7
			c0-0.3-0.1-0.5-0.1-0.8c0.5-1.6,0.7-4,1-5.4c0.1-0.9,0.1-1.7,0.2-2.6c0-0.1-0.1-0.5-0.1-0.6c0.2-0.6,0.3-1.2,0.4-2.1
			c0-0.4-0.2-1-0.1-1.5c0.2-1.3,0.4-3.1,0.3-4.4c0-0.2,0.1-1.4,0.2-1.6c0.1-0.1,0.2-0.1,0.2-0.2c0.1-0.3-0.3-0.5-0.2-1
			c0.1-0.6,0.4-1.7,0.2-2.6c0-0.2-0.2-0.7-0.1-1c0,0,0.1-0.9,0.2-1c0,0,0.2-0.1,0.2-0.2c0.1-0.4-0.3-1.4-0.2-1.8
			c0.3-1.1,0.5-3,0.2-4.2c-0.1-0.3,0.2-0.2,0.2-0.5c0-1,0.2-1.8,0-2.5C539,286.7,539.5,286.5,539.3,286z"/>
	</g>
</g>
</svg>
