<?xml version="1.0" encoding="utf-8"?>
<!-- Generator: Adobe Illustrator 21.0.0, SVG Export Plug-In . SVG Version: 6.00 Build 0)  -->
<svg version="1.1" id="Calque_1" xmlns="http://www.w3.org/2000/svg" xmlns:xlink="http://www.w3.org/1999/xlink" x="0px" y="0px"
	 viewBox="0 0 841.9 595.3" style="enable-background:new 0 0 841.9 595.3;" xml:space="preserve">
<style type="text/css">
	.st0{fill:#1D1D1B;}
	.st1{fill:none;stroke:#DADADA;stroke-width:10;stroke-miterlimit:10;}
</style>
<g>
	<g>
		<path class="st0" d="M498.2,188.3c-0.9-0.2-1.8-0.5-2.9-0.2c-0.6,0.4-1.2,0.8-1.8,1.2c-2.7,0.5-5.4,1.1-8.1,1.6
			c-2,0.8-4.3,2.4-7,2c-0.6-1.4,0.3-4.4,0.6-6.1c0.9-4.6,1.8-9.7,3.9-13.9c-0.1-0.8-0.3-1-0.8-1.4c-0.8,0-1.7,0.1-2.5,0.1
			c-0.7-0.2-1-0.7-2-0.8c-1.3,1.7-4.8,1.4-7.1,2c-5.2,1.5-11,1.3-16.5,2.6c-2.2,0.5-5.3,0.2-7.8,0.8c-1.6,0.3-4.3,1.1-6.2,0.8
			c-3.4,0-6.8-0.1-10.1-0.1c-2.1,0.3-3.8-0.2-5.9,0c-1.8,0.2-4.2,0.7-6,0.8c-1.7-0.1-3.5-0.2-5.2-0.2c-4.3,0.8-8.2-0.2-12.6,0.2
			c-9.7,0.9-19,0.6-27.8,1.4c-6.9,0.6-13.1,0.4-19.5,1.9c-1.9,0.1-3.8,0.3-5.8,0.4c-0.9,0.6-0.8,2.5-1.1,3.6
			c-0.7,2.1-1.4,4.3-2.1,6.4c-0.5,1.1-2,2.3-2.1,4.1c-3.3,0.9-11.2-0.2-14.6-0.6c-2.9-0.3-5.6,1.2-7.4,0.2
			c-3.1,1.6-0.6,9.7-2.5,11.5c0.2,0.2,0.3,0.3,0.5,0.5c-1.6,3.3-0.8,11.8-1.6,16.1c-0.8,4.2-1.5,8.6-2.5,12.1
			c-0.6,2.2,0.1,4.4-0.4,6.4s-0.9,3.9-1.4,5.9c0,1,0,2,0,3c-1.3,6.4-3.1,12.7-4.6,19.8c-1.2,5.5-1.7,10.4-3.1,15.1
			c-0.6,2-0.2,4.6-0.8,7.1c-0.5,2.4-1.4,4.7-2.1,7.1c0.3,1-2,10.2-2.4,11.6c-1.9,6.5-5.1,12.8-6.9,18.8c-2.1,6.8-2.9,12.8-5.1,19.4
			c-0.5,1.4-1.8,2.8-2.5,4c-3.6,5.8-4.8,10.8-10.1,15.1c0.2,3,12.1,1.6,14.2,1.5c1.3,0,2.6,0.1,3.9,0.1c12-0.7,24.1-1.5,36.1-2.2
			c4-0.6,7.3,0.2,11.1,0c1.4,0,2.8,0.1,4.2,0.1c1.1,1.1-0.9,3.4-0.9,4c0,3.3-2.8,5.9-3.4,9c-0.2,1.1,0.4,1.6,0.6,2.5
			c2.4,1.4,7.5,0.7,10.5,0.1c3.1-0.3,6.3-0.6,9.4-0.9c2.6-0.7,7.8-1.3,11.2-1l9.4-0.1c1,1,3.5-0.1,4.9,0.1c3.1,0.4,8.5,0.2,12.2-0.2
			c1.9-0.2,4.6,0.7,6.5,0.5c3.2-0.3,6.5-0.7,9.8-1c5.6,0.3,12.8,0.6,18.2,0c6.1-0.7,12.2,0,17.5-1.5c2-0.6,3.9-0.1,5.1-0.6
			c0,0.2-0.1,0.3-0.1,0.5c5.9-1.1,13.7-1.4,19.5-0.9c2.4,0,4.8,0,7.2,0c0.2-0.2,0.5-0.5,0.8-0.8c0.4-1.1-0.2-2.1,0.2-3.2
			c-1.9-1.9-0.1-9.1-0.5-12.8c0-6.4,0-12.8,0-19.2c0.3-1.9,0.8-5.4,0.4-7.5c-0.9-4.2,0-10.7,0.5-14.6c0-2.2,0.1-4.4,0.1-6.6
			c-0.1-1.5-0.3-3-0.4-4.5c0.4-1.8,0-4.1,0.4-6.2c0.6-3.9,0.8-7.9,1.2-11.4c0.7-5.2,0-11.6,1-17.1c1.9-10.5,1.7-19.8,4.1-29.6
			c1-4.1,0.8-9.7,1.6-13.1c0.2-0.9-0.3-2.5,0.1-4c0.3-2.2,0.7-4.4,1-6.6c0-1-0.1-2.1-0.1-3.1c1.4-7.5,2-13.6,3.5-21.4
			c0.4-2,1.2-4.4,1-6c0.4-0.4,1.2-0.6,1.6-1.1c0-0.3,0-0.6,0-0.9C498.3,188.5,498.2,188.4,498.2,188.3z M457.7,323.6
			c0.1,0.2,0.2,0.3,0.2,0.5v0.1C457.5,324,457.7,324,457.7,323.6z M453.1,176.1c0.1,0.1,0.2,0.3,0.2,0.4c-0.1,0-0.2,0-0.2,0
			C453.1,176.4,453.1,176.3,453.1,176.1z M343.9,366.4c-2.3-0.5-4.7,0.1-6.9-0.1c-3.2-0.3-7.3-0.3-10.1,0.1c-2.1,0-4.3,0.1-6.4,0.1
			c-5.2,0.5-10.5,0.9-15.8,1.4c-5.1,0.6-10.1,0.6-14.2,0.4c-1.6,0-3.3,0.1-4.9,0.1c-2.2-0.4-5.6-0.5-7.9,0.1h-0.1
			c0.5-1.8,2.6-2.9,3.4-4.5c2.3-4.4,4.9-8.6,7.4-12.8c2.2-3.5,1.6-8.2,3.1-12.6c0.4-1.2,1.2-2.5,1.6-3.5c1.4-3.1,1.1-6.5,2.4-9.5
			c1.1-2.7,2.9-5.6,3.8-8.6c5.6-20.7,8.9-44.3,14.4-65.4c0.9-3.5,0.9-7.4,1.6-11.1c0.1-1.5,0.2-3,0.2-4.5c0.7-3.4,1.5-6.8,2.2-10.1
			c0.9-9.7,1.8-19.4,2.6-29.1c2.7,0,5.5-0.1,8.2-0.1c3.7,0.8,10.2,1.3,13.1,0.8c0.8,0.1,1.6,0.3,2.4,0.4c1.4-0.1,3.3-1,5.1-0.6
			c2,0.1,4,0.3,6,0.4c2.7-0.2,5.4-0.3,8.1-0.5c1.7,0.1,3.5,0.2,5.2,0.2c3-0.5,7.5-1,10.5-1c3.8,0,10,0.1,13.5-0.8
			c0.8-0.2,1,0.4,1.4,0.4c3.7-0.4,5.2,0,8.2-0.9c2.5,0.1,4.9,0.3,7.4,0.4c0.6,0.1,4.2-0.4,4.2-0.4c2.6,0.7,9.6,0.8,12.6-0.1
			c0.5,0.1,1.1,0.3,1.6,0.4c2.6-0.4,7.9,0.4,9.4-0.9c0.4,0.3,0.3,0.2,0.4,0.5c3,0,4.8,0,7.1-0.4c1.2,0.2,2.3,0.3,3.5,0.5
			c0.9-0.2,1.8-0.3,2.8-0.5c-0.5,5.1-1.7,9.3-2.4,13.8c-0.8,5.6-0.7,9.6-2,15.1c-0.9,4.1-2.8,9.4-2.6,13.5c0.1,4,0,10.8-1,14.4
			c0,2.3,0.1,4.6,0.1,6.9c-0.2,1.5-0.3,2.9-0.5,4.4c0.3,5.5-0.1,10.8,1,15.1c1,4.1-0.1,7.6,1.1,11.2c-1.1,2.4,0.2,8.7,0.6,11.4
			c0.4,2.6-0.2,5.7,0.1,7.8c0.4,3,0.8,6.4,0.4,10c0.1,0.5,0.2,1.1,0.4,1.6c-0.3,1.7-0.5,6,0,7.8c0,0.1-0.1,0.3-0.1,0.4
			c-0.8-0.4-1-0.8-2.4-0.8c-0.1,0.4-0.3,0.8-0.4,1.2h-0.1c-0.3-0.4-0.2-0.3-0.1-0.9c-0.9-0.4-1.5-1.1-2.4-1c-0.9-1.2-1.1-3-1.4-4.2
			c-0.5-0.3-0.8-0.4-1.6-0.4c-0.5,0.8-0.5,1.6,0.4,2c-0.4,0.7-0.5,0.8-0.4,1.8h-0.1c-1.3-0.2-1.3,2.1-1.4,3.4h-0.1
			c-0.3-0.8-0.7-0.9-1.4-1.4c-0.4,0.1-0.8,0.2-1.1,0.2c-0.5,0.6-0.7,0.9-0.6,1.9c-0.4,0-0.8-0.1-1.1-0.1c-0.2,0.2-0.3,0.5-0.5,0.8
			c0,0.6,0.3,1.2,0.5,1.9c0,0.1-0.1,0.2-0.1,0.2c-0.1,0.1-0.3,0.2-0.4,0.2c-0.6-0.7-1.1-1.7-1.5-2.6c-0.5-0.3-0.8-0.5-1.8-0.5
			c-0.1,0-0.2,0.1-0.2,0.1c-0.2,0.7-0.3,1.3,0,2c0,0.1,0,0.3,0,0.4c-0.4,0-0.8,0.1-1.1,0.1c-0.8-1-0.8-1.9-2.4-2.1
			c-0.6,0.5-1.2,1.1-1.8,1.6c-0.2-0.1-0.3-0.2-0.5-0.2v-0.1c0.3-0.3,0.5-0.3,1.1-0.4c0.1-0.2,0.2-0.5,0.4-0.8
			c-0.2-0.6-0.4-1.2-0.9-1.5c-0.3-0.4-0.7-0.5-1.4-0.5c-0.7,0.8-0.7,2.2,0.4,2.6c0.1,0.1,0.2,0.3,0.2,0.4c-1.5,0-1.6,0.1-3-0.4
			c-0.3,0.3-0.6,0.7-0.9,1c-0.6-0.3-0.8-0.6-1.8-0.6c-0.2,0.3-0.5,0.6-0.8,0.9c-0.7-0.9-1.3-1.6-2.8-1.4c-0.2,0.7-0.7,0.7-1,1.4
			c-0.2,0.5-0.1,1,0.1,1.4c-1,0.6-1.8,0.8-1.1,2.5c-0.7-0.1-1.3-0.2-2-0.2c-0.2,0.2-0.3,0.4-0.5,0.6c-0.3,1.4,0.2,1.9,1.1,2.4
			c0.5,0,0.9-0.1,1.4-0.1c0.4-0.7,0.5-1.1,0.4-2.1h0.1c0.5,0.4,0.8,0.8,0.9,1.6c-0.2,0.6-0.3,1.1-0.9,1.4c-1.1,1.5-1.1,0.3-2.9,0
			c-0.4,0.7-0.6,1.1-0.5,2c1.2,0.8,3.6,2,5.1,1.4c0,0.6,0.1,1.2,0.1,1.8c-0.7-0.5-1.1-0.9-2.1-1.1c-0.5,0.3-0.6,0.3-0.8,1
			c-0.6-0.1-1.2-0.2-1.8-0.2c-0.6,0.6-0.3,3-0.2,4.2c0.5,0.6,0.7,1.1,1.6,0.9c0.6,0.7-0.1,4.1,1.4,4.5c0.1,0.2,0.2,0.3,0.4,0.5
			c-1.6,1.1-2.5,0.3-4.2,2c0.2,0.5,0.5,1.1,0.8,1.6c0.8,0.5,1.6,0.5,2.4,0.8c0.3,0.6-0.1,1.3,0.4,2.1c0.4,0.7,1.4,0.6,1.9,1.2
			c-0.5-0.1-0.9-0.2-1.4-0.4c-0.5,0-1.2-1.6-1.9-2c-1.3,0-2.3,3-2.1,4c-0.8-0.4-0.8-0.8-2.1-0.8c-0.2,0.2-0.3,0.5-0.5,0.8
			c0,0.9,0.2,1.5,0.9,1.8c0.1,0.8-4.9,1.2-6.9,0.9c-2.4-0.3-7.2,0.1-10,0.6c-2-0.2-4-0.3-6-0.5c-2.2,0-4.4,0-6.6,0
			c-4.8,0.2-9.6,0.3-14.4,0.5c-4-0.5-8-1.1-12.5-0.6C347.8,366.3,345.9,366.3,343.9,366.4z M414.7,340.8c0.1,0.5,0.2,1.1,0.4,1.6
			c-0.5,0-0.9,0-1.4,0c-0.1-0.5-0.3-0.9-0.4-1.4v-0.1C413.8,340.8,414.2,340.8,414.7,340.8z M413.4,334.5c0.2,0,0.3-0.1,0.5-0.1
			c0.3,0.1,0.5,0.7,0.6,1.2h-0.1C414.1,335.3,413.8,334.9,413.4,334.5z M415.6,339.3c0,0.2,0,0.4,0,0.6c-0.1,0-0.3,0.1-0.4,0.1
			c-0.2-0.5-0.3-0.9-0.5-1.4C415,338.8,415.3,339,415.6,339.3z M414.7,335.6c0.3,0.2,0.7,0.4,1,0.6v0.1c-0.1,0-0.2,0.1-0.2,0.1
			c-0.2-0.1-0.3-0.2-0.5-0.2C414.9,336,414.8,335.8,414.7,335.6z M416.3,346.8c-0.2,1.4,0.4,1.9,1.8,2.1c0,0.8-0.1,1.6-0.1,2.4
			c-0.1,0.2-0.2,0.3-0.2,0.5c-0.3-0.1-0.7-0.2-1-0.2c0.2-0.3,0.3-0.7,0.5-1c-0.7-1.6-1.5-3.6-3.6-3.8c0-0.5,0-1,0-1.5
			C414.3,346.2,414.6,346.7,416.3,346.8z M416.4,343.4c0.3-0.2,0.7-0.3,1-0.5c0.2,0.3,0.3,0.7,0.5,1c0,0.1,0,0.3,0,0.4
			C417.3,343.9,417.3,343.6,416.4,343.4z M414.1,349.4v0.1c-0.8-0.1-1.7-0.2-2.5-0.4c-0.2-0.7-0.4-1.4-0.6-2.1
			c0.8,0.3,1.1,0.8,2.1,0.6C413.4,348.3,413.6,348.8,414.1,349.4z M414.3,355c0,0.3,0,0.6,0,0.9c-0.4-0.4-0.4-0.6-0.4-1
			C414.1,354.9,414.2,355,414.3,355z M414.2,363.6c0.2,0,0.5,0,0.8,0c-0.3,0.7-0.6,1.3-0.9,2c-0.1,0-0.2,0.1-0.2,0.1
			C413.8,364.7,414,364.4,414.2,363.6z M414.3,360.9h-0.1c0-0.2,0.1-0.5,0.1-0.8c0.2,0,0.4,0,0.6,0v0.1
			C414.7,360.5,414.5,360.7,414.3,360.9z M414.7,358c-0.5-0.7-0.7-1.1-0.4-2c0.4,0.3,0.8,0.7,1.2,1c0,0.3-0.1,0.6-0.1,0.9
			C415.2,357.9,414.9,358,414.7,358z M415.1,354c-0.2-0.5-0.3-1-0.5-1.5c0.5,0.5,0.9,1,1.4,1.5c0.6,0.3,0.8-0.1,1.4,0.4
			c0.1,0,0.2,0,0.2,0c-0.1,0.2-0.2,0.5-0.2,0.8C416.3,354.8,416.4,354.1,415.1,354z M415.7,360.1c0.1-0.1,0.2-0.2,0.4-0.4
			c0.1,0,0.2,0,0.4,0c0,0.2-0.1,0.4-0.1,0.6c-0.2,0-0.4-0.1-0.6-0.1C415.7,360.2,415.7,360.2,415.7,360.1z M418.3,336.6
			c0-0.2,0-0.5,0-0.8c6.8,1.4,15.6,0.1,21-1.6c2.6-0.8,4.4-0.4,5.6-2.4c1.1,1.4-2.3,10.4-3.5,11.8c-7.4,8.6-13.6,16.7-24.9,21.6
			c0-0.1-0.1-0.2-0.1-0.2C420.4,358.8,421.6,343.6,418.3,336.6z M421.3,334c0.1-0.1,0.2-0.2,0.2-0.4c0.3,0.1,0.7,0.3,1,0.4v0.1
			C422.1,334.1,421.7,334,421.3,334z M425.4,334.1V334c0.3-0.4,0.6-0.8,0.9-1.1c0.2,0.2,0.1,0.5,0.2,1v0.1
			C426.2,334,425.8,334.1,425.4,334.1z M431.9,333.6c0.4,0.2,0.1,0,0.4,0.2C431.9,333.7,432.2,333.9,431.9,333.6z M438.2,332.4
			c-0.2,0.1-0.3,0.2-0.5,0.2c-0.5-0.9-1.1-1.8-1.6-2.6c0.1-0.2,0.2-0.5,0.4-0.8c0.5,0.2,1.1,0.5,1.6,0.8
			C438.2,330.7,438,331.5,438.2,332.4z M439.9,328.4c0.1,0.1,0.2,0.3,0.2,0.4c0.1,0,0.2,0.1,0.2,0.1v0.1c-0.1,0-0.3,0-0.4,0
			C440,328.8,440,328.6,439.9,328.4z M442.6,330c0.5-0.3,0.8-0.4,1-1c0.2,0.2,0.4,0.4,0.6,0.6c-0.4,0.3-0.9,0.5-1.2,0.9h-0.1
			l-0.1-0.1C442.6,330.3,442.6,330.1,442.6,330z M410.6,364.1c0-0.2,0.1-0.4,0.1-0.6c0.8,0.5,0.7,1.2,0.9,2.1c-0.6-0.7-1.1-1-2-0.5
			l-0.1-0.1c0-0.1,0-0.2,0-0.4C409.8,364.5,410.2,364.3,410.6,364.1z M410.3,362.6c0.2,0,0.3,0,0.5,0c0,0.2,0,0.3,0,0.5
			c-0.1,0-0.2,0.1-0.2,0.1C410.5,363,410.4,362.8,410.3,362.6z M480.6,366.6c0-0.1,0-0.2,0-0.2C480.7,366.6,480.7,366.4,480.6,366.6
			z M482.9,293c0-0.2,0-0.3,0-0.5c0,0.2,0.1,0.3,0.1,0.5C483,293,483,293,482.9,293z M487.8,247.6c0-0.1,0.1-0.2,0.1-0.2h0.1
			C488,247.5,487.9,247.5,487.8,247.6z M490.4,223.9c0-0.2,0-0.3,0-0.5c0,0.2,0.1,0.3,0.1,0.5C490.5,223.9,490.5,223.9,490.4,223.9z
			 M493.8,198.4c-0.5,3.5-1,7.8-2,10.2c-0.9,2.2,0,4.3-0.8,6c-0.6,1.5,0.3,4.1-0.6,5.1c0.2,0.6,0,0.4,0.6,0.5c-0.9,1.2-0.4,2-1,3.2
			c0.2,0.6-0.1,0.3,0.4,0.5c-1.7,1.5-0.2,6.1-0.8,8.2c-1.7,6.2-1.5,11.2-2.6,16.6c0.2,0,0.5,0.1,0.8,0.1c-0.2,0-0.3,0-0.5,0
			c0,0.1-0.1,0.2-0.1,0.2c0.1,0.2,0.2,0.3,0.4,0.5c-0.6,0.3-0.7,0.7-0.9,1.4v0.1c0.4-0.2,0.4-0.3,0.6-0.6c0,0.1,0.1,0.3,0.1,0.4
			c-0.3,0.2-0.2,0.2-0.6,0.4c0.2,0.4,0.2,0.3,0.4,0.6c-0.1,0-0.2,0-0.2,0c-0.3,0.2,0,0-0.6-0.1c0.5,2.7-0.2,3.7-0.9,7.5
			c0.2,0,0.4,0,0.6,0c-0.3,0.4-0.5,0.4-0.8,0.9c0.6,0.7-0.7,2.5-0.5,3.5c0.3,1.3,0,8-1,10c0.1,0.6,0.2,0.5,0.4,0.9h-0.1
			c-0.1-0.1-0.3-0.2-0.4-0.2c0.1,0.3,0.6,1.6,0.4,1.8c0,0-1.2,4.5-0.6,5.8c0.3,0.3,0.2,0.1,0.5,0.2c-1.2,1.2-1.2,8-0.8,8.2
			c-0.3,0.5,0.1,0.2-0.5,0.2c0.1,0.9,0.4,2.1-0.5,2.8c0.2,0.5,0.1,0.4,0.5,0.6c-0.4,1.7-0.8,2.9-0.5,5.2h-0.1c0-0.1-0.1-0.2-0.1-0.4
			c-1,1.1-0.1,3.4,0.4,4.2c-0.2,0-0.4-0.1-0.6-0.1c0.6,2.2-0.1,5.4-0.6,6.5c-0.4,1,0.4,2.3,0.4,3.2c0.2,0,0.3-0.1,0.5-0.1
			c-0.2,0.1-0.3,0.2-0.5,0.2c0,2.6,0.8,5-0.2,6.2c0,0.1,0,0.3,0,0.4c0.4-0.2,0.3-0.2,0.6-0.4c0,0.1,0.1,0.2,0.1,0.2
			c-0.4,0.5-0.2,0.8-0.8,1c0.2,0.9-0.1,2.7,0.5,3.1c-0.2,0.5-0.3,0.7-0.8,0.9c0.1,0.6,0.1,0.6,0.4,0.9c-0.2,0.6-0.1,0.7-0.8,0.9
			c0,1.6,0.1,2,0.6,3c-0.2,0.2-0.4,0.4-0.6,0.6c0.1,0.8,0.1,0.6,0.5,1c-0.1,0-0.3-0.1-0.4-0.1c0.1,0.5,0.2,0.9,0.4,1.4
			c-0.1,0.5-0.1,0.3,0.5,0.4c-0.6,1.2-0.7,1.5-0.2,3v0.1c-0.2-0.1-0.4-0.2-0.6-0.2c0,0.1,0,0.3,0,0.4c0.2,0.1-0.1,3.2,0,4.6
			c0.3,3.4-1.7,15.8,0.1,17.8c-0.2,0-0.4,0.1-0.6,0.1c0.9,3.9-0.3,10.6-1.1,14.1c-0.2,0.9,1.1,2.6,1.1,4c-5.3,0.9-14.9,0.8-19.9,0.6
			c-0.8,0-5.3,0.9-5.5,1.1c-0.8-1-2.6-0.1-3.5,0.2c0.1-0.2,0.2-0.3,0.2-0.5c-5.2,0.8-13.8,1.5-20.8,1.9c-4.8-0.1-9.6-0.2-14.4-0.2
			c-2.4,0.2-4.8,0.3-7.1,0.5c-3.9,1.2-13.9,0.5-18.4,0.2c-5.7,0-11.5,0-17.2,0c-2,0.1-4,0.3-6,0.4c-4.8,0.7-10.3,0.2-15.1,1.1
			c-2,0.4-8.3,1.1-10.2,0.2c-0.1,0-0.2,0-0.2,0c-0.5-3.1,4-9.4,4.1-13.8c1-0.5,2.8-0.1,3.9-0.1c1.6-0.1,4.5-0.2,6.1,0.2
			c0.6,0.2,1.8-0.3,2-0.2c1.4,0.4,3.8,0.8,5.4,0.6c3.3-0.4,6.6,0.4,10.2-0.4c1.4-0.3,4-0.6,6-0.2c5.1,0.9,9.4,0.9,14.1,0.1
			c3.4-0.5,7.7,0.7,10.2-0.2c3,0,5.9,0.1,8.9,0.1c5.3-1.1,11-3.4,15.1-7c1.7-1.5,3.1-3.6,5.2-4.4c0.7,0,1.5-0.1,2.2-0.1
			c5.6-1.5,11.7-1.4,17.8-1c2.6,0.2,5.9-0.1,7.4,1.2c0.6,0,0.7,0,1-0.2c2.4-1.3,0.2-6.4,0.6-9.5c0.5-3.7-0.8-9.3-0.2-13.2
			c0.4-2.9,0.5-4.9,0.5-8.1c-0.1-1-0.2-2-0.2-3c0.3-1.2,0.6-3.3,0.5-4.8c-0.1-2.1-0.6-5.4-0.1-8c0.8-4.5-0.2-8,0.6-12.4
			c1.7-9,1.7-21.3,3.9-30.4c0-0.9,0-1.8,0-2.6c0.6-3,0.7-6.3,1.5-9.4c0.3-4.2,0.7-8.5,1-12.8c1.9-10.1,3.6-23,5.5-34.4
			c0.7-4.2,2.2-8.7,2.4-13.2c0.9-0.2,2.1,0.3,3.4-0.1c2-0.7,5.1-2.8,7.8-2.9c1.7-0.1,3.4-0.1,5.1-0.8
			C494.7,191.6,494,197.2,493.8,198.4z M417.9,307.8h0.1c0.6-0.8,0.6-1.8-0.1-2.6c-0.3-0.5-0.9-0.7-1.8-0.8
			c-0.2,0.5-0.5,0.9-0.8,1.4C416.4,306.7,416.1,307.6,417.9,307.8z M481.3,307.6c0.4-0.2,0.2,0.1,0.4-0.4c-0.1,0-0.2,0-0.2,0
			C481.4,307.4,481.4,307.5,481.3,307.6z M439.6,313.5c0.2-0.2,0.4-0.5,0.6-0.8c-0.1-1.7-1.1-2.1-2.5-2.5c-0.2,0.2-0.5,0.3-0.8,0.5
			c0,1,0.2,1.7,0.6,2.2C438,313.7,438.7,313.6,439.6,313.5z M428.2,315c0.4,0.3,0.9,0.3,1.4,0.1c0.1,0,0.2,0,0.2,0
			c0.1-0.2,0.2-0.4,0.4-0.6c-0.1-1.5-1-2.3-2.4-2.5c-0.2,0.3-0.4,0.6-0.6,0.9C427.3,313.8,427.6,314.6,428.2,315z M481.3,317.4
			c0,0.1,0,0.3,0,0.4c0.1,0,0.2,0,0.4,0C481.5,317.3,481.8,317.6,481.3,317.4z M444.1,320.9c0.3-0.5,0.4-0.9,0.5-1.6
			c-0.7-1-0.9-1.5-2.4-1.8c-0.2,0.3-0.4,0.7-0.6,1c0.1,0.5,0.2,1.1,0.2,1.6C442.5,320.6,442.8,320.9,444.1,320.9z M442.8,319.8
			c-0.1-0.1-0.3-0.2-0.4-0.2C442.8,319.7,442.6,319.5,442.8,319.8z M414.3,322.3c0-0.2,0-0.4,0-0.6c-0.4-1.1-0.9-1.4-2.2-1.5
			c-0.1,0.1-0.3,0.3-0.4,0.4c0,0.5,0,1,0,1.5c0,0.1,0.1,0.2,0.1,0.2C412.5,322.8,413.7,323.5,414.3,322.3z M429.7,320.1
			c-0.5,0.5-1,0.5-1.4,1.2c0.1,1.2,0.7,1.7,2,1.6c0.4-0.4,0.8-0.8,1.1-1.2c0-0.2,0.1-0.4,0.1-0.6c-0.1-0.2-0.3-0.5-0.4-0.8
			C430.8,320.2,430.4,320.1,429.7,320.1z M442.9,324.1c0.4,0.3,0.8,0.7,1.1,1c0.3-0.1,0.7-0.2,1-0.4c0.1-0.1,0.2-0.2,0.2-0.2
			c0.3-0.7-0.1-1.2-0.2-1.9c-0.5-0.1-1.1-0.2-1.6-0.4C443.1,322.8,442.9,323.1,442.9,324.1z M421.6,326.8c0.9-1.7-0.7-2.6-2.1-2.8
			c-0.1,0.1-0.3,0.3-0.4,0.4c0,0.5,0,1,0,1.5c0.3,0.4,0.7,0.8,1,1.1C420.6,326.9,421.1,326.8,421.6,326.8z M426.9,327.6
			c0.1-0.2,0.2-0.3,0.4-0.5c-0.1-0.6-0.3-1.2-0.4-1.8c-0.2,0-0.4-0.1-0.6-0.1c-0.8,0.3-0.9,0.3-1.4,0.9c0,0.5,0.1,0.9,0.1,1.4
			C425.8,327.6,426.2,327.8,426.9,327.6z M430.4,325.9c-0.3,0.7-0.7,1.4-1,2.1c0.2,0.3,0.3,0.6,0.5,0.9c0.5,0.1,1,0.3,1.5,0.4
			c1.3-0.2,2.3-1.9,2.4-3.4c-0.1,0-0.2,0-0.2,0c-0.2-0.4-0.2-0.3-0.6-0.5C432.3,325.8,431.1,325.9,430.4,325.9z M417.1,326.1
			c-0.3,0.6-0.4,1.1-0.4,2.1c0.2,0.2,0.5,0.5,0.8,0.8c0.4,0.5,1.5,0.4,1.9-0.2c0.1-0.1,0.2-0.2,0.2-0.4c-0.1-1.3-0.8-2-1.9-2.4
			C417.5,326,417.3,326.1,417.1,326.1z M414.4,329c0-0.5,0-1,0-1.5c-0.8-0.6-1.1-1.1-2.2-1.4c-0.2,0.2-0.3,0.5-0.5,0.8
			c0,0.5-0.1,0.9-0.1,1.4c0.4,0.3,0.8,0.7,1.1,1C413.3,329.2,413.9,329.1,414.4,329z M401.3,329.9c0.1,0,0.2-0.1,0.4-0.1
			c0-0.5,0.1-1,0.1-1.5c-0.7-0.7-1.1-1.1-2.4-1.2c-1.1,1.1-0.4,2,0.5,3C400.4,330,400.9,329.9,401.3,329.9z M406.2,331
			c0.6-0.1,1.2-0.2,1.8-0.2c0.1-0.5,0.2-0.9,0.2-1.4c-0.6-0.9-1.3-1.5-2.6-1.6c-0.2,0.2-0.5,0.5-0.8,0.8
			C404.8,329.9,405.3,330.5,406.2,331z M409.4,334.1c1.3,0.9,1.6-0.9,1.4-1.9c-0.6-0.4-1-0.8-2-0.9c-0.2,0.3-0.3,0.7-0.5,1
			C408.4,333.4,408.7,333.8,409.4,334.1z M377.7,335.1c0.7-0.2,1.3-0.3,2-0.5c0.3-1.5-0.6-2.2-2.5-2.1c-0.3,0.3-0.3,0.2-0.5,0.8
			C376.5,334,377.2,334.7,377.7,335.1z M480.7,334.3c0,0.1,0,0.3,0,0.4c0.1,0,0.2,0,0.4,0C480.8,334.2,481.1,334.5,480.7,334.3z
			 M400.8,337.3c-0.6,1.2,0.7,1.8,1.6,2c0.6-0.4,0.8-0.3,0.9-1.4c-0.2-0.3-0.4-0.6-0.6-0.9c-0.5-0.1-1-0.2-1.5-0.4
			C401.1,336.8,400.9,337,400.8,337.3z M406.6,344.5c0.4-0.8,1.1-2.7,1.2-3.8c-0.1-0.2-0.2-0.5-0.2-0.8c-0.6-0.4-0.8-0.7-1.9-0.8
			c-1,1.1-1.6,2-1.6,4.2C404.8,344.4,405.1,344.9,406.6,344.5z M402.6,343.6c-0.2,0-0.4,0.1-0.6,0.1c-0.1,0.2-0.3,0.3-0.4,0.5
			c0,0.4,0.1,0.8,0.1,1.1c1,0.8,1.7,0.9,2.5-0.1c0-0.2-0.1-0.3-0.1-0.5c-0.4-0.4-0.8-0.8-1.1-1.1
			C402.8,343.6,402.7,343.6,402.6,343.6z M390.9,345.9c0.1-0.6,0-0.7,0.1-1.1c-0.3-0.3-0.7-0.7-1-1c-0.5,0-0.9,0-1.4,0
			c-0.1,0.5-0.2,0.9-0.2,1.4c0.2,0.2,0.4,0.5,0.6,0.8C389.9,346.1,390.1,346,390.9,345.9z M398.4,351c0.2-0.3,0.3-0.7,0.5-1
			c-0.1-0.9-0.4-1.4-0.9-1.8c-0.4-0.1-0.8-0.2-1.2-0.4c-0.2,0.4-0.5,0.8-0.8,1.2c0,1.3,0.4,1.5,1,2.1
			C397.5,351.2,398,351.1,398.4,351z M405.6,351c0.9,0.7,1.9,1.5,3.1,1.8c0.2-0.2,0.5-0.5,0.8-0.8c0-0.6,0-1.3,0-1.9
			c-0.9-0.7-1.5-1.4-3.1-1.4C405.9,349.5,405.5,349.8,405.6,351z M405.2,350.4c-0.3-0.4-0.6-0.8-0.9-1.1c-0.4,0-0.8-0.1-1.2-0.1
			c-0.2,0.2-0.3,0.5-0.5,0.8c0,0.3,0.1,0.6,0.1,0.9c0.6,0.4,1.2,0.7,1.9,0.8C405,351.2,405.1,351,405.2,350.4z M389.6,353.9
			c0.1,1,0.5,1.7,1.2,2c0.5,0,1,0,1.5,0c0.3-0.4,0.4-0.6,0.4-1.4c-0.5-0.5-1-0.9-1.5-1.4c-0.4,0-0.8-0.1-1.1-0.1
			C389.9,353.3,389.7,353.6,389.6,353.9z M405.4,353.6c-0.2,0.3-0.3,0.7-0.5,1c-0.5,0-0.9,0-1.4,0c-0.2,0.4-0.3,0.8-0.5,1.2
			c0.4,0.6,0.7,0.8,1.4,1.1c1.3-0.1,1.2-0.7,2.6-0.8C408.1,355,407.6,353.5,405.4,353.6z M405.8,356.8c-0.6,0.9-0.8,2.4-0.8,3.6
			c0.4,0.4,0.8,0.8,1.1,1.1c0.5-0.1,0.9-0.2,1.4-0.2c0.9-1.4,0.5-3.2-0.1-4.2C406.9,356.9,406.4,356.8,405.8,356.8z M396.3,361.3
			c0.4,0,0.8-0.1,1.2-0.1c0.1-0.2,0.2-0.5,0.4-0.8c-0.2-0.5-0.4-0.9-0.6-1.4c-0.5-0.2-0.9-0.3-1.4-0.5
			C395,359.4,395.2,360.7,396.3,361.3z M401.6,361c-0.8,1.1-0.6,1.9,0.4,2.8c0.4,0,0.8,0,1.1,0c0.8,0.3,1.2-1.4,0.9-2
			C403.6,361.1,402.6,361,401.6,361z M389.2,366.5h0.1c0.3-0.4,0.4-0.7,0.2-1.4c-0.2-0.2-0.5-0.5-0.8-0.8c-0.4,0-0.8-0.1-1.1-0.1
			c-0.2,0.5-0.4,0.7-0.2,1.2C387.8,366.2,388.3,366.4,389.2,366.5z"/>
	</g>
</g>
<path class="st1" d="M344.8,393.2l145.7-4.8c0,0-7.4-85.4,15.1-188.2"/>
</svg>
