<?xml version="1.0" encoding="utf-8"?>
<!-- Generator: Adobe Illustrator 15.0.0, SVG Export Plug-In . SVG Version: 6.00 Build 0)  -->
<!DOCTYPE svg PUBLIC "-//W3C//DTD SVG 1.1//EN" "http://www.w3.org/Graphics/SVG/1.1/DTD/svg11.dtd">
<svg version="1.1" id="Calque_1" xmlns="http://www.w3.org/2000/svg" xmlns:xlink="http://www.w3.org/1999/xlink" x="0px" y="0px"
	 width="841.891px" height="595.281px" viewBox="0 0 841.891 595.281" enable-background="new 0 0 841.891 595.281"
	 xml:space="preserve">
<line fill-rule="evenodd" clip-rule="evenodd" fill="none" stroke="#DADADA" stroke-width="10" stroke-miterlimit="10" x1="386.073" y1="353.394" x2="422.695" y2="345.457"/>
<path fill-rule="evenodd" clip-rule="evenodd" fill="none" stroke="#DADADA" stroke-width="10" stroke-miterlimit="10" d="
	M402.195,382.998c0,0,28.25-30.78,51.625-36.655"/>
<path fill-rule="evenodd" clip-rule="evenodd" fill="none" stroke="#DADADA" stroke-width="10" stroke-miterlimit="10" d="
	M435.445,398.39c3.25-11.75,44.187-77.852,81.634-68.783"/>
<polyline fill-rule="evenodd" clip-rule="evenodd" fill="none" stroke="#DADADA" stroke-width="10" stroke-miterlimit="10" points="
	498.445,127.14 460.07,175.64 473.82,277.14 483.82,318.89 "/>
<polygon fill-rule="evenodd" clip-rule="evenodd" fill="#FFFFFF" points="414.029,353.394 423.612,343.661 426.445,350.015 "/>
<polygon fill-rule="evenodd" clip-rule="evenodd" fill="#FFFFFF" points="445.695,355.894 452.612,344.525 455.695,343.515 
	456.529,351.264 "/>
<g>
	<g>
		<path fill-rule="evenodd" clip-rule="evenodd" fill="#1D1D1B" d="M514.07,319.015c-0.494-0.742-0.648-1.518-1.25-2.125
			c-0.796-0.804-3.44-2.254-3.75-3.25c-1.604,0.264-3.261,0.192-4.875,0.625c-0.416-0.041-0.834-0.083-1.25-0.125
			c-1.922,0.529-3.739,1.533-5.5,2.125c-0.916,0.083-1.834,0.167-2.75,0.25c-3.57,1.277-8.552,1.997-13.25,1.375
			c-0.152-0.695-0.575-0.653-0.875-1.125c-0.166-0.5-0.334-1-0.5-1.5c-0.166-0.125-0.334-0.25-0.5-0.375
			c-0.247-0.408,0.102-1.121-0.125-1.625l-0.625-0.625c-0.35-0.65-0.294-1.291-0.625-2c-0.515-1.101-1.345-2.27-1.75-3.5
			c-0.331-1.006-0.119-2.133-0.5-3.375c-0.107-0.351-0.502-0.68-0.625-1c-0.215-0.555,0.004-1.15-0.125-1.5
			c-0.156-0.421-0.598-1.209-0.75-1.75v-1l-0.375-0.375c-0.551-1.576-0.099-3.584-0.625-5.25c-0.642-2.031-1.055-3.736-1.625-5.75
			v-1.125c-0.672-2.637-0.774-5.982-1.625-8.625v-2.125c-0.541-2.148-0.569-5.443-1.375-7.375c-0.396-0.947,0.093-2.866-0.25-3.5
			c-0.125-0.041-0.25-0.083-0.375-0.125v-1.375c-0.085-0.308-0.443-0.664-0.375-1.125c0.047-0.312,0.433-1.123,0.375-1.375
			c-0.07-0.311-0.355-0.273-0.375-0.875c0.041-0.458,0.084-0.917,0.125-1.375c-0.627-2.777-1.018-5.822-1.75-8.5
			c-0.246-0.898-0.195-1.889-0.375-2.75c0.041-0.25,0.084-0.5,0.125-0.75h-0.25c-0.25-0.478,0.039-1.142-0.125-1.75
			c-0.496-1.84-0.463-4.093-0.375-6.125h-0.375c-0.129-1.078-0.271-2.9-0.5-3.625c-0.188-0.6,0.281-3.098,0.25-3.75
			c-0.043-0.903-0.495-2.49-0.625-3.375c-0.096-0.656,0.148-1.264,0-2c-1.145-5.693-2.594-11.947-4-17.75
			c-0.109-0.451,0.173-0.832,0.125-1.125c-0.105-0.641-0.455-1.595-0.375-2.25c0.022-0.187,0.256-1.054,0.25-1.25l-0.25-0.375
			c-0.189-1.021,0.262-2.32-0.125-3.75c-0.146-0.54-0.56-1.248-0.625-1.875c-0.025-0.242,0.216-0.592,0.25-0.75
			c0.153-0.711-0.334-1.217-0.25-1.75c0.02-0.125,0.316-0.229,0.25-0.5l-0.375-0.375c0.041-0.291,0.084-0.584,0.125-0.875
			c-0.006-0.012-0.355-0.173-0.375-0.25c0.041-0.416,0.084-0.834,0.125-1.25c-0.229-1.607,0.226-3.867-0.125-5.625
			c-0.422-2.115-0.954-5.123-1.5-7.375c-0.227-0.934,0.377-4.339,0-4.75c0.033-1.75,0.91-1.681,1.625-2.625
			c0.309-0.408,0.516-0.896,0.875-1.25c0.166-0.041,0.334-0.084,0.5-0.125v-0.5c0.291-0.25,0.584-0.5,0.875-0.75
			c0.535-0.721,0.855-1.508,1.375-2.25c0.256-0.366,0.771-0.744,1-1.125c0.166-0.277-0.037-0.658,0.125-1
			c0.208-0.166,0.417-0.334,0.625-0.5c0.736-1.223,1.503-2.304,2.5-3.25c0.135-0.095,0.115-0.078,0.375-0.125
			c0.115-1.121,0.924-1.816,1.5-2.5c0.125-0.333,0.25-0.667,0.375-1c0.195-0.367,0.506-0.471,0.75-0.75
			c0.125-0.333,0.25-0.667,0.375-1c0.497-0.734,1.381-1.246,1.875-2c0.291,0.041,0.584,0.084,0.875,0.125
			c-0.081-0.442-0.086-0.423-0.375-0.625c0.3-1.92,2.027-3.166,3-4.5c0.424-0.58,0.385-1.023,0.75-1.75
			c0.03-0.061,1.51-2.011,1.625-2.125c0.166-0.041,0.334-0.084,0.5-0.125c0.316-0.418,0.134-1.152,0.5-1.5
			c0.208-0.041,0.417-0.084,0.625-0.125c0.17-0.222,0.137-0.989,0.375-1.25c0.119-0.129,0.521-0.114,0.625-0.25
			c0.209-0.273,0.287-0.949,0.5-1.25c0.333-0.25,0.667-0.5,1-0.75c0.843-1.145,1.277-3.258,3.125-3.375
			c-0.108-0.895,0.662-1.325,1.125-2h0.375c0.068-0.949,1.633-2.217,2.25-2.75c0.166-0.291,0.334-0.584,0.5-0.875
			c1.561-1.247,2.863-2.455,3.875-4.25c0.407-0.723,1.694-2.617,1.25-3.375v-0.25c-1.521,0.027-1.414,0.905-2.25,1.5
			c-0.567,0.404-1.766,1.227-2.125,1.75c-0.041,0.208-0.084,0.417-0.125,0.625l-0.75,0.375c-0.909,1.078-1.875,2.026-2.625,3.25
			c-0.894-0.188-1.252-1.285-1.625-2c-0.266-0.063-0.452-0.111-0.625-0.25c-0.637,0.063-0.548,0.189-0.875,0.5
			c-0.002,1.045,1.143,2.386,1.875,2.625c0.041,0.125,0.084,0.25,0.125,0.375c-0.778,0.585-1.596,1.552-2.125,2.375
			c-0.854-0.352-1.852-1.693-2.25-2.5c-0.742,0.065-0.801,0.324-1.25,0.625c0.133,1.373,1.493,1.945,2.125,2.875h0.375
			c-0.227,1.16-1.018,0.779-1.375,1.375v0.625c-0.095,0.207-0.453,0.786-0.625,1c-0.129,0.102-0.031,0.046-0.25,0.125
			c-0.555-1.074-1.66-1.815-2.5-2.625c-0.364-0.004-0.682-0.006-0.875,0.125c-0.086,0.096-0.165,0.278-0.25,0.375
			c0.102,1.021,1.789,2.477,2.625,2.75c0.135,0.095,0.115,0.078,0.375,0.125c-0.24,1.057-1.734,1.898-2.125,3.125
			c-0.681-0.11-1.445-0.707-1.875-1.125c-0.109-0.16-0.115-0.309-0.125-0.625c-0.208,0.084-0.417,0.167-0.625,0.25
			c-0.329-0.142-0.48-0.553-1-0.25c-0.301,0.164-0.295,0.255-0.375,0.625c-0.112,0.278,0.047,0.291,0.125,0.75
			c0.799,0.388,1.502,1.005,2.25,1.375c0.31,0.153,0.662-0.039,0.75,0c0.316,0.174-2.018,2.527-2.5,3.25h-0.5
			c-0.146-0.967-1.529-1.868-2.125-2.5c-0.629,0.019-0.799,0.137-1.25,0.25c-0.006,1.061,1.147,2.264,1.875,2.5
			c-0.156,0.322-0.312,0.357-0.625,0.5v0.25c0.268-0.051,0.797-0.114,1-0.25c0.468,0.119,0.426,0.275,0.75,0.5
			c-0.254,0.778-1.924,2.944-2.5,3.625v0.125c-0.104-0.133-0.016-0.307-0.125-0.5c-0.599-1.061-2.039-1.208-2.375-2.625
			c-0.792,0.051-0.733,0.353-1.125,0.75c0.109,1.4,1.395,2.483,2.5,2.875c0.146,0.102,0.209,0.101,0.5,0.125
			c-0.15,0.734-0.763,0.961-1.125,1.5c-0.299,0.017-0.703-0.064-1,0.125c-0.434-0.12-2.203-1.852-2.5-2.25
			c-0.355-0.014-0.534-0.05-0.75-0.125l-0.5,0.5v0.75h0.375c0.135,0.676,2.295,2.137,2.875,2.625l0.125,0.125
			c-0.51,0.286-2.09,2.271-2.25,2.875h-0.25c-0.58-1.201-2.239-2.065-3.25-2.875c-0.466,0.089-0.441,0.184-0.75,0.375
			c0.01,1.526,1.965,3.164,3.625,3.125c-0.425,0.88-1.332,2.336-2.125,2.875v0.125c-1.063-0.346-1.365-1.175-2.125-1.75
			c-0.422-0.32-0.942-0.43-1.375-0.75c-0.6,0.068-0.544,0.223-1,0.375c0.017,1.004,2.566,2.893,3.375,3.125v0.25
			c-0.27,0.257-1.257,1.442-1.375,1.75h-0.125c-0.893-1.347-2.439-1.939-3.625-3c-0.395,0.059-0.472,0.125-0.75,0.25
			c-0.08,0.216-0.024,0.122-0.125,0.25c0.077,1.091,2.765,2.986,3.625,3.5c-0.207,0.768-1.095,1.209-1.5,1.875h-0.125
			c0.041-0.208,0.084-0.417,0.125-0.625c-0.712-0.352-1.992-1.004-2.625-1.5c-0.889,0.021-0.879,0.285-1.375,0.625v0.625
			c0.229,0.502,3.123,1.262,3.5,1.25c-0.312,0.949-1.075,1.396-1.5,2.25c-0.984-0.227-2.606-1.992-3.875-0.75
			c-0.08,0.187-0.155,0.055,0,0.25c0.229,0.896,2.365,1.6,3.125,2.125c-0.311,0.824-1.041,1.009-1.125,2.125
			c-0.797,0.006-1.879-0.044-2.25-0.25c-0.625,0.064-0.723,0.258-1.125,0.5c0.014,0.316,0.016,0.463,0.125,0.625
			c1.023,0.682,2.519,0.586,3.5,1.125c0.041,0.752,0.168,1.648-0.375,1.875c0.105,0.427,0.062,0.318,0.375,0.5
			c-0.041,0.291-0.084,0.584-0.125,0.875c-1.645-0.564-3.395,0.235-4.25,0.875c0.05,0.257,0.031,0.241,0.125,0.375
			c0.129,0.286,0.215,0.271,0.375,0.5c1.014-0.055,2.877,0.174,3.75-0.5h0.25c0.119,0.619,0.059,2.571-0.375,3.125
			c-0.836,1.103-2.064,0.549-3.125,1.25c-0.385,0.264-0.633,0.728-0.75,1.25l0.625,0.625c0.592-0.08,2.762-0.765,3.125-1.125
			c0.257,0.05,0.241,0.031,0.375,0.125c0.259,0.412,0.106,1.26,0.375,1.625c0.041,2.26-0.479,0.915-1.75,1.5
			c-0.208,0.25-0.417,0.5-0.625,0.75c-0.18,0.1-0.383,0.042-0.5,0.125c-0.17,0.225-0.144,0.387-0.125,0.5
			c0.164,0.41,0.35,0.364,0.625,0.625c0.792,0.004,1.239-0.118,1.625-0.5c0.386,0.006,0.641,0.043,0.875,0.125
			c0.055,0.26,0.119,0.57,0.25,0.75c0.016,0.513,0.08,1.315-0.125,1.625l-2.875,0.875c0.028,0.29,0.024,0.353,0.125,0.5
			c0.093,0.29,0.13,0.279,0.25,0.5c0.475,0.1,1.37,0.556,1.875,0.375c0.32-0.115,0.336-0.339,1-0.375c0.034,0.757,0.438,2.347,0,3
			c-0.381,0.568-1.134,0.261-1.625,0.5l-0.75,0.75c0.041,0.288,0.059,0.311,0.125,0.5c0.886,0.368,1.654,0.359,2.625,0
			c0.199,0.555,0.254,1.688,0.625,2.125c-0.153,1.617-2.383,1.317-3.5,1.75c-0.101,0.507-0.067,0.842,0,1.375
			c1.15-0.062,3.178,0.301,3.75-0.625c0.672,0.411,0.229,1.685,0.625,2.375v0.75c-0.272,0.404-0.829,0.184-1.125,0.375
			c-0.346,0.225-0.564,0.702-1,0.875c-0.405,0.16-0.812,0.057-1.125,0.25c-0.337,0.179-0.361,0.366-0.25,0.625
			c0.045,0.469,0.097,0.465,0.25,0.75c1.657,0.151,2.729-0.274,3.25-1.625h0.125c0.508,1.461,0.646,3.436,0.625,5.375
			c-0.877,0.037-2.305,0.083-3,0.625l-0.375,0.375c0.028,0.29,0.024,0.353,0.125,0.5v0.25c1.225,0.305,2.466,0.412,3.375-0.5
			c0.479,0.611,0.195,1.945,0.625,2.625c-0.201,0.682-0.787,0.708-1,1.5c-0.943,0.219-1.836,0.305-2.625,0.75
			c0.014,0.316,0.016,0.463,0.125,0.625v0.25c1.38,0.315,2.872,0.622,3.5-0.625c0.566,0.333,0.445,2.059,0.625,2.375
			c-0.001,1.277-0.861,2.273-1.75,2.625c-0.291-0.041-0.584-0.084-0.875-0.125c-0.288,0.108-0.59,0.577-0.875,0.75
			c0.006,0.386,0.043,0.641,0.125,0.875c0.355,0.079,0.754,0.18,1,0.375c1.102-0.012,2.344-0.656,2.625-1.5
			c0,0,0.49,0.027,0.25,0.125c-0.066,0.749,0.746,3.695,0.375,4.25v0.25h-0.625c-0.039,1.095-1.507,1.312-2.5,1.375
			c-0.124,0.237-0.172,0.344-0.375,0.5c0.028,0.29,0.024,0.353,0.125,0.5c0.041,0.125,0.084,0.25,0.125,0.375h0.25
			c0.416-0.041,0.834-0.084,1.25-0.125l0.25,0.25c0.584-0.188,1.057-0.726,1.75-0.875c0.186,0.955,0.676,2.743,0.25,3.875
			c-0.434,0.172-1.031,0.041-1.625,0.25c-0.29,0.103-0.557,0.467-0.875,0.625c0.041,0.291,0.084,0.584,0.125,0.875
			c0.52,0.082,2.232,0.346,2.75-0.25c0.125,0.084,0.25,0.167,0.375,0.25c0.025,0.858,0.226,1.449,0.375,2.125
			c-0.172,0.197-0.297,0.465-0.375,0.75c-0.725,0.037-2.34,0.305-2.75,0.625c-0.083,0.041-0.166,0.084-0.25,0.125
			c0.08,0.216,0.024,0.122,0.125,0.25c0.072,0.697,0.339,0.811,0.625,1.25c1.035-0.128,1.985-0.461,2.625-1h0.25
			c0.146,0.729,0.252,1.678,0.625,2.25c0,1.604-2.318,1.727-3.375,2.25c0.003,0.341,0.005,0.572,0.125,0.75v0.25
			c0.953,0.117,2.475-0.037,3.125-0.625c0.125,0.041,0.25,0.084,0.375,0.125c0.016,0.832,0.013,1.632-0.25,2.125
			c-1.336,0.049-2.248,0.199-3.125,0.75c0.033,0.637,0.146,0.635,0.375,1c0.6-0.008,1.678,0.163,2.125-0.125
			c0.388-0.008,0.789-0.018,1,0.125c0.233,0.326,0.817,2.21,0.625,2.5c-0.521,1.413-2.291,0.729-3.375,1.5l-0.375,0.375
			c0.057,0.372,0.063,0.422,0.25,0.625c1.393,1.019,2.709-0.339,4-0.5c0.004,0.562-0.012,1.721,0.25,2.125v0.5
			c-0.216-0.08-0.122-0.024-0.25-0.125c-0.789-0.007-0.951,0.107-1.375,0.375c-0.276,1.461,0.205,1.545-1.25,2.125
			c-0.077,0.344-0.207,0.693,0,1c0.303,0.746,2.417,0.812,2.875,0.125h0.25c0.129,0.586,0.439,2.958,0.25,3.25
			c-0.303,0.662-1.465,0.854-2.375,0.875c-0.107,0.406-0.346,0.769-0.125,1.125c0.041,0.125,0.084,0.25,0.125,0.375
			c1.394,0.017,1.808-0.022,2.75-0.5c0.273,0.761,0.661,3.365,0.5,3.625c-0.233,0.516-2.323,0.592-2.75,0.75
			c-0.137,0.322-0.293,0.584-0.125,0.875c0.316,0.75,2.241,0.709,2.875,0.25c0.216,0.08,0.122,0.024,0.25,0.125
			c0.377,0.591,0.129,1.701,0.5,2.25v1.25l-1.875,0.875c-0.041,0.042-0.084,0.084-0.125,0.125c-0.373,0.098-0.625-0.184-1-0.25
			c-0.044,0.508-0.11,0.622-0.375,0.875c0.061,0.622,0.244,0.744,0.375,1.25c1.053-0.319,2.303-0.697,3.25-1.125
			c0.379,0.83,0.451,2.23,0.625,3.25c-0.761,0.315-2.657,0.159-3.125,0.5l-0.5,0.5c0.078,0.535,0.247,0.693,0.375,1.125
			c1.156-0.178,2.091-0.01,3.375-0.5c0.395,0.968,0.419,2.008,0.625,3.125l-1.25,0.625c-0.441,0.125-0.947-0.057-1.25,0.125
			c-0.461,0.182-0.56,0.562-0.875,0.875c0.05,0.257,0.031,0.241,0.125,0.375c0.149,0.388,0.204,0.395,0.625,0.5
			c0.502,0.311,2.295,0.071,2.75-0.625c0.125,0.042,0.25,0.084,0.375,0.125c-0.016,0.538-0.094,1.42,0.125,1.75v1.75
			c-0.142,0.282-2.719,0.768-3.125,0.875c-0.073,0.34-0.193,0.582,0,0.875c0.115,0.337,0.215,0.366,0.375,0.625
			c1.09,0.193,1.812-0.289,2.875-0.375c0.085,0.578,0.276,2.161,0.625,2.625c-0.093,0.29-0.13,0.279-0.25,0.5
			c-0.775-0.017-2.352-0.214-2.875,0.125c-0.329,0.171-0.477,0.54-0.25,0.875v0.375c0.621,0.163,1.293,0.524,2,0.625
			c0.613,0.087,1.146-0.486,1.75-0.125c0.495,0.22,0.346,0.729,0.625,1.125c0.005,0.477-0.019,0.943-0.125,1.25
			c-1.178,0.211-1.56-0.244-2.625,0.25c-0.08,0.216-0.024,0.122-0.125,0.25c0.049,0.678,0.327,1.077,0.875,1.25
			c0.377,0.274,2.068,0.512,2.5,0c0.891,0.338,0.545,1.609,1,2.375c-0.025,0.324-0.055,0.425-0.125,0.625
			c-0.257-0.05-0.241-0.031-0.375-0.125c-2.179-0.053-1.647-0.029-2.75,0.875c0.094,0.654,0.314,0.499,0.625,0.875
			c0.927,0.022,2.736-0.301,3.375,0.125c0.295,0.371,0.339,1.002,0.625,1.375c0.008,0.388,0.018,0.789-0.125,1
			c-0.629,0.434-3.513-0.291-2.875,1.625c0.483,1.451,2.396-0.354,3.5,0.25c0.644,0.283,0.715,1.592,1.125,2.125
			c-0.014,0.316-0.016,0.463-0.125,0.625c-0.475,0.231-2.982,0.33-3.625,0.375c-0.084,0.156-0.136,0.259-0.25,0.375
			c0.05,0.938,0.462,0.866,0.875,1.375c1.168,0.011,2.508-0.059,3.125-0.625h0.75c0.135,0.076,1.135,2.539,1.375,2.875v0.25
			c-1.609-0.054-2.858-0.562-4.125-0.875h-2.75c-0.465-0.112-1.965-0.605-2.375-0.875c-0.393,0.053-0.582,0.133-0.875,0.25
			c-0.083,0.25-0.166,0.5-0.25,0.75c0.497,0.469,1.049,1.135,1.75,1.375c1.083,0.125,2.167,0.25,3.25,0.375
			c1.608,0.393,3.473,0.66,5,1.125c1.442,0.438,2.84-0.086,3.5,1.125c0.62-0.102,0.395-0.341,0.75-0.5
			c0.441-0.197,2.398,0.194,3.25,0c0.93-0.212,1.96,0.238,3,0c0.609-0.14,1.516-0.383,2-0.5c0.651-0.157,1.676,0.298,2.375,0.125
			c1.189-0.294,2.828-0.896,4.125-1.25c2.09-0.57,4.753-0.145,5.25,1.375c0.12,0.176,0.126,0.41,0.125,0.75
			c-0.635-0.068-0.999-0.412-1.375-0.75h-0.75c-0.136,0.54-0.338,0.812,0,1.25v0.25c-0.398-0.037-0.4-0.111-0.625,0
			c-0.879,0.059-0.818,0.704-0.75,1.25c-1.102,0.308-1.422,0.522-1.875-0.625l1.25-0.625v-1c-0.279-0.052-0.905-0.106-1.125-0.25
			c-0.446-0.002-0.845,0.027-1.125,0.125c-0.082,0.316-0.322,0.49-0.25,0.875c0.033,0.176,0.387,0.336,0.25,0.75
			c-0.107,0.326-0.568,0.475-0.25,1c-0.006,0.386-0.043,0.641-0.125,0.875c-0.342,0.146-0.808,0.292-1,0.25h-0.25
			c0.168-0.895,0.809-1.618,0.125-2.625v-0.25c-0.216-0.08-0.122-0.024-0.25-0.125c-0.696,0.014-0.739,0.132-1.125,0.375
			c-0.188,0.943,0.006,1.92,0.125,2.75c-0.257-0.05-0.241-0.031-0.375-0.125c-0.416-0.001-0.744-0.036-1-0.125
			c-0.08-0.216-0.024-0.122-0.125-0.25c0.113-0.956,0.55-0.962,0.5-1.875c-0.156-0.084-0.259-0.136-0.375-0.25
			c-1.376,0.062-0.537,0.616-1,1.25c-0.232,0.318-0.719,0.418-0.875,0.875c0.041,0.458,0.084,0.917,0.125,1.375
			c-0.088,0.164-0.551,0.234-0.625,0.5c-0.019,0.066,0.243,0.702,0.25,0.75c0.078,0.567-0.695,1.138-1,1.375
			c0.084,0.416,0.167,0.834,0.25,1.25c-0.35,0.317-0.838,0.762-1,1.25c-0.324-0.025-0.425-0.055-0.625-0.125
			c0.031-0.436,0.044-0.526,0.25-0.75c-0.066-0.955-0.625-0.883-1-1.5c-0.543,0.355-0.314,1.241-1.125,1.75
			c0.012,0.871,0.219,0.838,0.625,1.25c0.102,0.129,0.046,0.031,0.125,0.25c-0.882,0.418-1.349,1.085-2.125,1.5v0.125
			c-0.246-0.273-0.452-0.949-0.625-1.25c-0.625,0.064-0.723,0.258-1.125,0.5c-0.006,0.783,0.112,0.885,0.625,1.125
			c-0.139,0.284-2.025,1.552-2.375,1.75c-0.127-0.054-0.596-0.266-0.875-0.125c-0.423,0.213-0.321,0.916-0.625,1.25
			c-0.814,0.898-2.182,1.211-2.875,2.25c-0.455-0.094-0.707-0.389-1.125-0.125c-0.662,0.303-0.516,1.396-1,1.875
			c-0.201,0.199-0.489,0.089-0.75,0.25c-0.416,0.458-0.834,0.917-1.25,1.375c-1.584,1.197-2.968,2.622-4.375,4
			c-0.29-0.172-0.316-0.506-0.375-0.875c-0.395-0.113-0.729-0.383-1.125-0.125c-0.125,0.042-0.25,0.084-0.375,0.125
			c0.014,0.316,0.016,0.463,0.125,0.625c0.17,0.538,0.467,0.794,1,0.625c-0.321,0.983-1.652,2.065-2.625,2.375
			c-0.3,0.158-0.279,0.108-0.5-0.125c-0.682,0.018-0.639,0.119-1,0.375c0.003,0.341,0.005,0.572,0.125,0.75
			c-0.146,1.132-1.385,1.299-1.75,2.25h-0.25c-0.226-0.508-0.399-0.537-0.75-0.875c-0.635,0.067-0.613,0.243-1,0.5
			c0.039,0.348,0.09,0.656,0.25,0.875c0.166,0.398,0.104,0.334,0.625,0.375c0.041,0.125,0.084,0.25,0.125,0.375
			c-0.432,0.257-0.74,0.576-1,1c-0.289-0.132-0.635-0.412-0.875-0.625h-0.875c-0.239,0.954-0.227,1.288,0.25,2
			c-0.314,0.244-0.312,0.469-0.75,0.625v0.125c-0.339-0.17-0.463-0.557-0.625-0.875c-1.232,0.201-1.512,1.297-2.375,1.875
			c0.024,0.841,0.25,1.051,0.5,1.625c-0.346,0.234-0.55,0.484-0.625,1c-0.764-0.276-1.205-0.842-1.5-1.625
			c-0.406-0.107-0.769-0.346-1.125-0.125c-0.286,0.129-0.271,0.215-0.5,0.375c0.014,1.136,0.672,2.262,1.625,2.5v0.125l-0.5,0.5
			c-0.102,0.159-0.586-0.316-0.75-0.5c-0.602,0.068-0.629,0.24-1.125,0.375c-0.044,0.352-0.106,0.545,0.125,0.875v0.125
			c-0.39-0.076-0.304-0.021-0.5-0.25c-0.598,0.001-0.791,0.07-1.125,0.25v0.5c-0.372-0.057-0.422-0.063-0.625-0.25
			c-0.646,0.026-0.821,0.164-1.125,0.5c-0.031,0.062,0.201,2.155,0.375,2.375c0.227,0.258,0.363,0.255,0.875,0.25v0.25
			c-0.4,0.309-0.714,0.562-0.875,1.125h-1.125v-0.75c-0.229-0.203-0.322-0.345-0.625-0.5c0.053-0.582,0.099-0.55,0.5-0.75
			c0.01-0.674-0.278-1.104-0.75-1.25c-0.854-0.266-1.353,0.796-0.875,1.25c-0.461,0.871-0.807,0.298-0.625,1.75
			c-0.216-0.08-0.122-0.024-0.25-0.125c-0.763,0.051-0.896,0.301-0.875,1.125c-0.291,0.042-0.584,0.083-0.875,0.125
			c-0.103,1.197,0.891,1.495,1.125,0.5c0.395,0.059,0.472,0.125,0.75,0.25c0.456-0.471,0.818-0.721,1-1.5
			c0.375,0.042,0.75,0.083,1.125,0.125c0.003,0.341,0.005,0.572,0.125,0.75c-0.092,0.856-0.54,0.93-0.875,1.5
			c-0.779-0.021-1.037-0.047-1.75,0c0.092,1.127,0.4,1.345,0.375,2.375c-0.602-0.064-0.715-0.283-1-0.625
			c-0.562,0.09-0.634,0.266-1,0.5c0.057,0.372,0.063,0.422,0.25,0.625v0.125c-1.352-0.775-2.204-1.652-4.375-1.75
			c0.041-0.042,0.084-0.083,0.125-0.125c0.066-1.051,0.665-0.87,1-1.5c0.186-0.348,0.025-0.505,0.25-0.75
			c0.176-0.12,0.41-0.126,0.75-0.125c0.457-1.123,0.847-1.761,1.5-2.625c0.357-0.472,1.047-0.736,1.375-1.25
			c0.26-0.406,0.226-0.87,0.5-1.25c0.111-0.154,0.4-0.183,0.5-0.375c0.041-0.208,0.084-0.417,0.125-0.625
			c0.612-0.94,1.794-1.662,2.375-2.625c0.445-0.736,0.65-1.315,1.125-2c0.51-0.736,1.482-1.281,2-2
			c1.358-1.888,2.515-3.812,3.875-5.625c1.009-1.344,2.634-4.073,2.5-5.625c-0.078-0.912,0.338-1.664-0.125-2.25
			c-0.041-0.125-0.084-0.25-0.125-0.375c-0.338-0.074-0.782-0.327-1-0.375c-0.916,0.166-1.834,0.334-2.75,0.5
			c-0.137-0.312-0.28-0.542-0.375-0.875c-0.216-0.08-0.122-0.024-0.25-0.125c-0.745-0.035-1.064-0.055-1.25,0.5
			c-0.085,0.153,0.117,0.566,0.25,0.875c-0.486,0.229-1.514,0.48-1.875,0.875c-0.607-0.021-0.616-0.011-0.75-0.5
			c-0.101-0.129-0.046-0.031-0.125-0.25c0.041-0.041,0.084-0.083,0.125-0.125c0.377,0.129,0.371,0.252,0.75,0.375
			c0.331,0.15,0.598-0.117,1-0.25c-0.003-0.341-0.005-0.572-0.125-0.75c-0.045-0.469-0.097-0.465-0.25-0.75
			c-0.364-0.004-0.682-0.006-0.875,0.125c-0.372,0.146-0.35,0.292-0.625,0.5v0.375c-1.296-0.008-1.414,0.395-2.125,0.875
			c0.01,0.67,0.104,0.978,0.5,1.25c-0.163,0.345-0.486,0.52-0.875,0.625c-0.146,0.101-0.209,0.101-0.5,0.125
			c-0.043-0.56,0.199-1.739,0.125-1.875c-0.116-0.301-0.137-0.197-0.25-0.5c-0.805-0.069-1.212,0.167-1.875,0.5
			c0.025,0.404-0.114,1.59,0,1.875c0.1,0.248,0.387,0.352,0.5,0.75c-0.186,0.173-0.365,0.405-0.5,0.625h-0.625
			c-0.067-0.635-0.243-0.613-0.5-1c-0.732,0.048-1.162,0.234-1.625,0.5c-0.041,0.25-0.084,0.5-0.125,0.75
			c-0.416,0.042-0.834,0.084-1.25,0.125c-0.041,0.042-0.084,0.084-0.125,0.125c-0.058,0.844,0.002,0.917,0.375,1.5
			c-0.98,0.456-2.137,0.911-2.875,1.625h-0.125c0.08-0.216,0.024-0.122,0.125-0.25c-0.01-0.648-0.124-0.824-0.25-1.25
			c-0.257-0.05-0.241-0.031-0.375-0.125c-1.174,0.039-1.387,0.672-2.125,1.125c0.02,0.862,0.258,0.984,0.375,1.625
			c-0.29,0.028-0.353,0.024-0.5,0.125c-0.385-0.225-0.018-0.144-0.25-0.5c-0.399-0.611-1.015-0.43-1.5-1.5
			c-0.83-0.057-1.802,0.332-1.25,1.125c0.157,0.387,0.261,0.354,0.625,0.5c0.015,1.032-0.172,1.185-0.5,1.75
			c-0.666-0.145-0.581-0.492-1.25-0.625c0.092-0.465,0.211-0.52,0.5-0.75c-0.001-0.598-0.07-0.791-0.25-1.125
			c-0.364-0.004-0.682-0.006-0.875,0.125c-0.104-0.091-0.035-0.389-0.25-0.625c-0.286-0.263-0.974-0.632-1.375-0.375h-0.25
			c-0.08,0.352-0.22,0.805,0,1.125c0.163,0.344,0.384,0.381,0.625,0.625c0.091,0.174,0.04,0.158-0.125,0.375
			c0.018,0.674,0.734,2.101,1.125,2.375c-0.185,0.191-0.439,0.31-0.625,0.5h-0.25c0.028-0.29,0.024-0.353,0.125-0.5
			c-0.045-0.469-0.097-0.465-0.25-0.75c-0.718-0.014-1.217,0.031-1.625,0.25c0.092,0.787,0.312,1.245,0.625,1.75
			c-0.693,0.307-1.701,0.86-2.25,1.375c-0.385-0.132-0.405-0.727-0.5-1.25c-0.541-0.008-1.139,0-1.5,0.125
			c-0.002,0.816,0.145,1.3,0.625,1.625c-0.163,0.344-0.384,0.381-0.625,0.625h-0.375c0.545-0.194-0.755-1.745-0.875-1.875
			c-0.107-0.083-0.393-0.169-0.5-0.25c-0.598,0.001-0.791,0.07-1.125,0.25c0.011,0.578,0.09,0.771,0.25,1.125
			c0.356,0.135,0.619,0.15,0.875,0.125c-0.016,0.905,0.107,1.068,0.5,1.5c-0.367,0.143-0.783,0.577-1,0.875h-0.25
			c-0.394-0.885-1.234-1.205-1.75-2c-0.564,0.066-1.033,0.21-1.375,0.5c-0.301,0.164-0.295,0.255-0.375,0.625
			c0.222,0.229,0.314,0.612,0.625,0.75c0.227-0.061,0.625-0.23,0.875,0c0.432,0.396,0.199,0.765,1,0.875
			c-0.135,0.095-0.115,0.078-0.375,0.125c-0.05,0.257-0.031,0.241-0.125,0.375c-0.041,0.125-0.084,0.25-0.125,0.375
			c-0.648-0.099-1.236-0.494-1.625-0.875c-0.735-0.014-0.86,0.044-1,0.625c-0.188,0.336,0.356,1.193,0.5,1.625
			c-0.101,0.129-0.046,0.031-0.125,0.25c-0.803-0.099-1.931-1.308-2.625-1.75c0.121-0.898,0.854-1.249,1.25-1.875
			c0.426-0.672,0.631-1.391,1.125-2c0.141-0.172,0.504-0.307,0.625-0.5c0.041-0.25,0.084-0.5,0.125-0.75
			c0.428-0.799,2-1.563,2.625-2.25c0.084-0.25,0.167-0.5,0.25-0.75c0.293-0.426,0.926-0.613,1.25-1c0.746-0.891,1.324-1.801,2-2.75
			c0.359-0.506,1.078-0.527,1.625-0.875c0.465-0.295,0.713-0.916,1.125-1.25c0.166-0.041,0.334-0.083,0.5-0.125
			c0.25-0.254,0.226-0.771,0.5-1c0.845-0.705,1.973-1.104,2.75-1.875c0.27-0.267,0.326-0.764,0.625-1
			c0.668-0.528,1.444-0.853,2.125-1.375c0.283-0.218,0.259-0.618,0.5-0.875c0.872-0.93,2.116-1.578,3.125-2.375
			c0.875-0.69,1.535-1.759,2.375-2.5c0.166-0.041,0.334-0.083,0.5-0.125l1.125-1.125h0.375c0.041-0.208,0.084-0.417,0.125-0.625
			c0.418-0.738,1.251-1.199,1.875-1.75c0.072-0.063,0.192-0.467,0.25-0.5c0.166,0.042,0.334,0.084,0.5,0.125
			c0.114-0.071,0.797-1.408,1-1.625c0.212-0.225,0.587-0.081,0.875-0.25c0.896-0.524,1.504-2.156,2.125-3
			c0.25-0.208,0.5-0.417,0.75-0.625c0.57-0.82,1.129-2.259,2.125-2.25c0.105-1.216,0.271-2.349,1-3.25
			c0.363-0.27,1.336-0.333,1.875-0.375c0.08-0.216,0.024-0.122,0.125-0.25c-0.021-0.787-0.407-1.08-1-1.25
			c0.044-0.788,0.327-1.234,0.625-1.75c0.324,0.107,0.637,0.293,0.875,0.5c0.485,0.001,0.565,0.068,0.75-0.25
			c0.318-0.516-0.378-1.677-1-2c0.139-0.947,0.635-1.743,1-2.5c0.521,0.128,1.317,0.524,1.75,0.25
			c0.361-0.179,0.35-0.236,0.375-0.75c-0.506-0.484-0.846-0.885-1.5-1.25c0.075-0.566,0.341-3.09,0.625-3.5
			c0.058-0.033,2.056,0.536,2.375,0.75c0.396-0.07,0.363-0.109,0.625-0.25c-0.016-1.48-1.799-2.209-2.875-2.625
			c-0.008-0.598-0.078-1.051,0.125-1.375c-0.013-0.437-0.042-1.001,0.125-1.25c0.227-0.147,2.451-0.324,2.875-0.375
			c0.047-0.42,0.025-0.261,0-0.75c-0.155-0.016-2.355-0.782-2.5-0.875h-0.25c0.004-0.488,0.176-2.312,0.375-2.625v-0.25
			c0.877,0.002,1.461,0.115,2.125,0.25c0.249-0.272,0.488-0.607,0.75-0.875c-0.028-0.29-0.024-0.353-0.125-0.5
			c-0.557-0.452-1.638-0.341-2.25-0.75c-0.125-0.041-0.25-0.083-0.375-0.125c0.025-0.705,0.286-2.993-0.125-3.375
			c0.05-0.257,0.031-0.241,0.125-0.375c0.613-0.457,0.868,0.219,1.625,0c0.352-0.102,0.371-0.352,1-0.375
			c0.041-0.125,0.084-0.25,0.125-0.375c0.124-0.227,0.032-0.226,0-0.625c-1.162-0.279-2.262-0.266-3.25-0.875
			c-0.135-0.759-0.027-1.86,0-2.625c0.041-0.041,0.084-0.083,0.125-0.125c0.688,0.109,1.582,0.72,2.125,0.375
			c0.629,0.006,0.899-0.061,1.25-0.25v-0.625c-0.208-0.453-2.626-1.206-3.125-0.875c-0.288-0.041-0.311-0.059-0.5-0.125
			c0.021-0.789,0.27-2.195,0-2.625v-0.5c0.895,0.295,1.561,0.479,2.75,0.375c0.041-0.041,0.084-0.083,0.125-0.125
			c-0.014-1.676-1.775-1.592-3.25-1.5c-0.068-0.728,0.344-1.203,0.125-2.125c-0.131-0.552-0.33-1.408-0.375-2.125
			c0.822,0.044,1.92,0.336,2.5-0.125c0.084-0.041,0.167-0.083,0.25-0.125c-0.105-1.438-1.987-1.386-3-1.875
			c-0.014-0.461-0.055-1.106,0.125-1.375c0.345-0.598,2.046-0.346,1.625-1.25c-0.16-0.435-0.38-0.436-0.625-0.75
			c-0.727-0.016-0.933-0.168-1.5-0.25c-0.021-0.746-0.128-2.609-0.375-3v-0.625c0.703,0.145,1.631,0.256,2.125-0.125
			c0.437-0.154,0.467-0.353,0.75-0.625c-0.01-0.562-0.078-0.682-0.25-1c-0.481,0.014-0.735,0.208-1,0.25
			c-0.58,0.092-0.979-0.436-1.5-0.125h-0.375c0.055-0.328,0.146-1.471-0.125-1.875c-0.006-0.509,0.01-1.042,0.125-1.375
			c0.633-0.136,1.618-0.022,2.125-0.375c0.138-0.169,0.193-0.359,0.25-0.625c-0.836-0.676-1.537-0.914-2.75-0.625
			c-0.271-0.471-1-1.9-0.5-2.625c0.028-0.29,0.024-0.353,0.125-0.5c0.514-0.395,1.686-0.151,2.25-0.5h0.25
			c0.068-0.341,0.175-0.471,0-0.75c-0.297-0.471-0.529,0.038-1-0.25c-0.091-0.056-0.119-0.447-0.25-0.5
			c-0.324-0.131-1.23,0.203-1.375,0.25l-0.125-0.125c0.02-0.906,0.133-1.612,0.25-2.5c0.626-0.18,1.917-0.235,2.625-0.625
			c-0.044-0.68-0.213-0.646-0.375-1.125c-0.591-0.035-1.313-0.289-1.75,0c-0.562-0.059-0.534-0.162-0.875-0.375
			c-0.006-0.566,0.097-1.582-0.25-2.125c-0.009-0.606-0.02-1.329,0.125-1.75c0.446,0.117,1.253,0.467,1.75,0.125
			c0.392-0.141,0.371-0.263,0.625-0.5c-0.206-1.575-2.094-0.742-2.75-1.375v-0.25c-0.076-0.14-0.236-2.431-0.375-3.125
			c0.084-0.083,0.167-0.166,0.25-0.25c0.331-0.251,1.562-0.471,2.125-0.625c0.17-0.623,0.277-0.734,0.25-1.375l-0.125-0.125
			c-0.843,0.018-0.786,0.27-1.25,0.5c-0.432-0.195-0.826-0.353-1.5-0.375c-0.018-0.629-0.088-1.477-0.375-1.875
			c-0.065-2.596,0.998-1.035,2.125-2c0.102-0.129,0.046-0.031,0.125-0.25c-0.19-0.192-0.367-0.512-0.5-0.75
			c-0.09-0.031-0.451-0.242-0.5-0.25c-0.258-0.044-0.981,0.363-1.375,0.125c-0.254-0.153-0.286-1.699-0.375-2
			c1.498-0.518,1.217,0.071,2.375-1c-0.059-0.562-0.162-0.534-0.375-0.875c-0.99,0.063-1.437,0.098-2.25-0.25
			c-0.262-0.598-0.643-1.494-0.25-2c0.094-0.219,1.7-1.069,2-1.25c-0.014-0.482-0.028-0.635-0.25-0.875
			c-0.594-0.428-1.723,0.064-2.625,0.125c-0.034-0.344-0.303-3.058-0.5-3.375v-0.5c0.164-0.223,0.743-0.1,1-0.25
			c0.25-0.291,0.5-0.584,0.75-0.875c-0.025-0.324-0.055-0.425-0.125-0.625c-0.477-0.098-1.465-0.101-1.75-0.25
			c-0.725-0.334-0.394-2.153-0.875-2.75v-0.5c1.026-0.235,1.616-0.506,2.625-0.75c0.08-0.216,0.024-0.122,0.125-0.25
			c-0.001-0.598-0.07-0.791-0.25-1.125c-0.417,0.066-0.625,0.33-0.875,0.375c-0.191,0.035-1.401-0.217-1.875-0.25
			c-0.004-1.115-0.197-1.706-0.375-2.625l0.125-0.125c0.426,0.026,0.639,0.061,0.875,0.25c1.055-0.008,1.047-0.35,1.625-0.75v-0.75
			c-0.729-0.17-1.96-0.021-2.625-0.5c-0.248-0.326-0.119-0.637-0.25-0.875c-0.041-1.75,0.838-1.035,1.875-1.625l0.375-0.375
			c-0.041-0.291-0.084-0.584-0.125-0.875c-0.738-0.152-1.83-0.162-2.375,0c-0.352-0.779-0.436-2.083-0.75-2.625
			c0.014-1.703,1.429-1.221,1.875-2.5c0.098-0.178-0.016-0.219-0.125-0.5c-0.771-0.131-1.551,0.217-1.875,0.125h-0.625
			c-0.14-0.719-0.241-1.52-0.625-2c-0.012-0.412-0.029-0.896,0.125-1.125l0.125-0.125v0.125c1.398,0.024,1.311-0.502,1.875-1.25
			c-0.025-0.521-0.087-0.572-0.25-0.875c-1.011,0.084-1.289,0.665-2.375,0.875c-0.273-0.589-0.763-1.677-0.875-2.25
			c-0.079-0.404,0.193-0.533,0.25-1c0.844-0.108,1.355-0.428,2-0.625c0.08-0.216,0.024-0.122,0.125-0.25
			c0.002-0.446-0.027-0.845-0.125-1.125c-0.42,0.02-2.447,0.31-2.75,0.5h-0.25c-0.103-0.549-0.096-1.57-0.375-2
			c0.033-1.641,1.829-0.945,2.375-2.375c0.12-0.176,0.126-0.41,0.125-0.75c-0.744-0.094-1.135-0.062-1.625,0.375
			c-2.023,0.053-1.121-1.027-1.875-2.125c0.307-0.828,0.59-0.271,1.375-0.625c0.354-0.16,0.854-0.661,1.25-0.875
			c-0.049-0.572-0.169-0.646-0.375-1c-0.734-0.003-1.695,0.039-2.125,0.375h-0.625c-0.128-0.607-0.162-1.958-0.5-2.5
			c0.033-0.267-0.041-0.506,0.125-0.625h0.625c0.451-0.183,0.836-0.637,1.25-0.875c0.119-0.447,0.246-0.622,0.25-1.25
			c-0.491,0.055-1.271,0.134-1.625,0.375c-0.412,0.012-0.896,0.029-1.125-0.125c-0.44-0.648-0.18-1.562-0.625-2
			c0.404-0.271,0.98-0.029,1.5-0.25c0.262-0.111,0.56-0.475,0.875-0.625c0.041-0.291,0.084-0.584,0.125-0.875
			c-1.161-0.021-2.164-0.211-2.875-0.625c-0.064-1.354-0.19-2.628-0.125-4c1.225,0.037,2.195,0.283,3,1
			c0.166-0.125,0.334-0.25,0.5-0.375c0.08-0.216,0.024-0.122,0.125-0.25c-0.148-1.195-2.209-1.35-2.875-2.125
			c-0.248-0.436,0.496-1.7,0.75-2.125c0.985,0.112,1.899,0.631,2.75,1c0.142-0.148,0.317-0.269,0.5-0.375
			c-0.052-1.133-1.391-1.793-2.25-2.125c0.172-0.994,0.838-1.656,1-2.625c0.684,0.162,1.862,0.8,2.25,1
			c0.336-0.107,0.459-0.233,0.75-0.375c-0.146-0.971-1.441-1.922-2.25-2.25c0.169-0.836,0.684-1.355,0.875-2.25
			c0.736,0.065,1.523,0.779,1.875,1.25c0.341-0.003,0.572-0.005,0.75-0.125c0.125-0.041,0.25-0.084,0.375-0.125
			c-0.071-0.728-1.34-2.086-2-2.25c0.147-1.252,1.316-2.13,1.875-3.25c0.864,0.309,1.041,1.174,1.625,1.75
			c0.231,0.229,0.645,0.273,0.875,0.5c0.654-0.127,0.752-0.48,1.25-0.75c-0.035-1.154-0.803-0.591-1.25-0.875
			c-0.338-0.3-0.251-0.717-0.5-1.125c-0.174-0.285-0.744-0.748-1-1c0.244-1.176,1.383-1.847,1.875-2.875
			c0.78,0.059,1.482,0.773,1.875,1.25c0.386-0.006,0.641-0.043,0.875-0.125c-0.051-0.69-0.266-0.691,0-1
			c-0.305-0.574-1.013-1.203-1.5-1.625c0.205-1.27,1.849-3.373,2.5-4.5c0.284,0.12,1.291,1.338,1.5,1.625
			c0.521-0.025,0.572-0.087,0.875-0.25c-0.127-0.921-0.604-2.442-1.375-2.75c0.129-1.203,1.154-1.997,1.625-3
			c0.257,0.05,0.241,0.031,0.375,0.125c0.125,0.041,0.25,0.084,0.375,0.125v0.5c0.277,0.477,0.987,0.738,1.375,1.125
			c0.29-0.028,0.353-0.024,0.5-0.125c0.379-0.135,0.37-0.115,0.5-0.5l0.125-0.125c-0.791-0.684-1.561-1.746-1.875-2.875
			c0.534-0.541,2.263-2.813,2.5-3.5h0.25c0.291,0.333,0.584,0.667,0.875,1c0.316-0.014,0.463-0.016,0.625-0.125
			c0.319-0.158,0.271-0.13,0.375-0.5c0,0-0.397-2.195-0.75-2.375c0.082-1.44,1.02-1.66,1.375-2.75c0.614,0.162,1.225,0.754,1.5,1.25
			c0.558-0.104,0.758-0.352,1.25-0.5c-0.154-0.938-1.15-1.127-1.375-2c-0.297-1.154,1.102-2.181,1.375-3
			c1.314,0.11,1.687,0.729,2.75,0.125c-0.062-0.962-1.016-1.24-1.625-1.625c0.223-0.69,1.871-3.087,2.375-3.5
			c0.004-0.364,0.006-0.682-0.125-0.875v-0.25c-2.459,0.247-2.8,2.49-3.875,4.125c-0.167,0.254-0.589,0.386-0.75,0.625
			c-0.53,0.788-0.248,1.518-1.5,1.625c0.277,1.924-2.221,3.55-2.875,5.125c-0.041,0.291-0.084,0.584-0.125,0.875
			c-0.316,0.701-1.371,2.15-1.875,2.875c-0.291,0.25-0.584,0.5-0.875,0.75c-0.268,0.452-0.194,0.964-0.5,1.375
			c-0.208,0.125-0.417,0.25-0.625,0.375c-0.408,0.454-0.935,1.145-1.25,1.625c-0.259,0.395-0.252,0.848-0.5,1.25
			c-0.27,0.439-0.898,0.838-1.125,1.25c-0.537,0.979-0.711,1.801-1.25,2.75c-0.415,0.731-1.182,1.314-1.625,2h-0.375
			c0.086,0.343-0.077,0.202,0.25,0.25c-0.141,0.676-1.905,3.527-2.375,4.125c-0.25,0.166-0.5,0.334-0.75,0.5
			c-0.578,0.762-0.594,1.782-1.125,2.625l-1.375,1.375l-0.375,1.125l-0.625,0.625c-0.516,0.852-0.737,1.68-1.125,2.625
			c-0.262,0.637-0.863,1.26-1.125,1.875c-0.564,1.331-0.837,2.51-1.5,3.625c-0.312,0.064-0.106,0.021-0.5,0
			c0.304,1.921-2.911,4.357-2.125,7.625c0.318,1.321,0.262,2.678,0.5,3.75c0.146,0.658-0.238,0.892,0,1.625
			c0.111,0.342,0.516,0.773,0.625,1.125c0.125,0.916,0.25,1.834,0.375,2.75c0.697,2.277,1.473,5.248,2.25,7.625
			c0.4,1.224,0.02,2.754,0.375,4c0.184,0.641,0.561,1.424,0.75,2v0.875c0.208,0.166,0.417,0.334,0.625,0.5
			c-0.041,0.166-0.084,0.334-0.125,0.5c0.152,0.618,0.554,1.293,0.75,1.875c0.084,0.666,0.167,1.334,0.25,2
			c0.939,2.58,1.553,5.428,2.25,8.25c0.211,0.856,0.113,2.301,0,2.875c-0.156,0.789,0.358,1.864,0.5,2.5v2.375
			c1.311,5.435,1.77,11.105,3.375,16.25c0.426,1.366-0.262,2.602,0.125,3.875c0.653,2.154,0.704,5.406,1.25,7.5
			c0.107,0.412-0.076,1.031-0.125,1.25c-0.162,0.733,0.14,1.441,0.25,1.875v2c0.222,0.951,0.746,4.324,0.5,5.375
			c-0.214,0.914-0.385,3.018-0.125,4.125c0.49,2.085,0.623,4.261,1.125,6.375v4.125c1.057,4.096,0.767,8.876,1.75,13
			c0.041,1.875,0.084,3.75,0.125,5.625c0.018,0.105,0.164,1.004,0.25,1.375c0.121,0.524-0.16,1.312-0.125,1.625
			c0.061,0.543,0.35,1.583,0.5,2.25c0.083,0.368-0.143,0.825-0.125,1c0.24,2.475-0.557,5.862-1,8.125
			c-0.076,0.39,0.14,1.111,0.25,1.625c0.156,0.727-0.283,1.349-0.375,1.875c-0.174,1,0.252,2.318-0.125,3.5
			c-0.215,0.676-0.788,1.47-1,2.125c-0.083,0.541-0.166,1.084-0.25,1.625c-0.403,1.041-1.299,2.225-1.75,3.25
			c-0.083,0.416-0.166,0.834-0.25,1.25c-0.309,0.769-0.927,1.74-1.25,2.5c-0.041,0.291-0.084,0.584-0.125,0.875
			c-0.125,0.042-0.25,0.084-0.375,0.125c-0.383,0.562-0.398,1.302-0.75,1.875c-0.255,0.416-0.729,0.75-1,1.125
			c-0.53,0.734-0.815,1.537-1.375,2.25c-0.094,0.12-1.788,1.598-1.875,1.625c-0.131,0.042-0.227-0.217-0.5-0.125
			c-0.297,0.1-1.264,0.538-1.625,0.75c-0.291,0.333-0.584,0.667-0.875,1c-0.583,0.125-1.167,0.25-1.75,0.375
			c-0.125,0.166-0.25,0.334-0.375,0.5c-0.533,0.312-1.135,0.291-1.625,0.625l-0.875,0.875h-1.25
			c-0.58,0.165-1.174,0.362-1.875,0.625c-0.625,0.234-1.175,0.986-1.75,1.25c-0.842,0.386-2.277,0.34-3.25,0.625
			c-0.9,0.264-1.678,0.834-2.625,1.125c-1.25,0.384-2.859-0.007-4,0.125c-1.187,0.137-3.654,0.412-5.125,0.75
			c-0.5-0.041-1-0.083-1.5-0.125c-1.53,0.334-3.122,0.598-4.375,0.75c-0.168,0.021-0.637-0.217-1-0.125
			c-3.118,0.791-5.865,1.432-8.75,2.25c-0.833,0.042-1.667,0.084-2.5,0.125c-0.041,0.125-0.084,0.25-0.125,0.375
			c-0.535,0.303-1.384-0.104-1.75,0c-0.426,0.121-1.109,0.614-1.5,0.75c-0.625,0.083-1.25,0.167-1.875,0.25
			c-0.125,0.166-0.25,0.334-0.375,0.5c-0.54,0.302-0.957,0.208-1.5,0.5c-0.125,0.166-0.25,0.334-0.375,0.5
			c-0.98,0.522-1.68,0.745-2.625,1.25c-1.615,0.862-2.912,2.383-4.5,3.375c-0.502,0.313-0.466,0.686-0.75,1.125
			c-0.072,0.111-3.076,2.202-3.25,2.25c-0.02,1,0.106,1.895,1.125,1.75c0.365-0.052,0.771-0.405,1-0.5
			c1.183-0.49,2.253-0.451,3.375-1c0.111-0.055,0.292-0.455,0.375-0.5c0.336-0.183,1.043,0.021,1.125,0
			c0.729-0.188,1.566-0.562,2.25-0.75h1c0.33-0.096,0.668-0.409,1-0.5c1.543-0.423,2.329-0.141,3.875-0.625
			c0.439-0.138,0.892-0.604,1.25-0.75h1.125c0.189-0.055,0.663-0.324,0.875-0.375c1.071-0.257,2.49,0.623,3.875,0.25
			c1.229-0.332,2.557-0.805,3.75-1.125c1.045-0.28,2.424-0.262,3.375-0.5c0.833,0.042,1.667,0.084,2.5,0.125
			c0.895-0.217,2.218,0.307,3.375,0c0.489-0.129,0.998-0.273,1.375-0.375c0.291,0.042,0.584,0.084,0.875,0.125
			c1.557-0.253,4.055-0.155,5.5-0.625c1.193-0.388,2.496-0.921,3.625-1c-0.071,0.332-1.855,2.313-2.125,2.5
			c-0.377,0.261-0.953,0.295-1.25,0.625c-0.65,0.724-1.734,1.636-2.25,2.375c-0.262,0.376-0.312,0.812-0.625,1.125
			c-0.236,0.236-0.609,0.287-0.875,0.5c-0.355,0.285-0.465,0.886-0.75,1.25c-0.695,0.891-1.986,1.419-2.625,2.375
			c-0.204,0.306-0.049,0.646-0.25,1c-0.125,0.042-0.25,0.084-0.375,0.125c-0.46,0.553-0.618,1.229-1,1.875
			c-0.517,0.873-1.447,0.77-1.625,2.125c-0.445-0.088-0.68-0.089-1.125,0c-0.203-0.229-0.345-0.322-0.5-0.625h-1.125
			c-0.337,0.171-0.2,0.916-0.5,1.125c-0.25,0.042-0.5,0.083-0.75,0.125c-0.041,0.125-0.084,0.25-0.125,0.375
			c-0.425,0.51-1.119,1.07-1.625,1.5c-1.906,1.621-4.721,5.068-5.875,7.375c-0.63,1.258-1.137,2.732-1.625,4
			c-0.041,0.291-0.084,0.584-0.125,0.875c-0.203,0.381-0.714,0.911-0.875,1.375v0.75c-0.17,0.498-0.599,1.607-0.75,2.125
			c-0.121,0.412,0.102,0.714,0.125,1c0.107,1.3-0.2,2.771-0.75,3.5c0.086,0.558,0.277,0.744,0.5,1.125
			c1.602-0.009,1.768-0.639,2.375-1.625c0.359-0.583,1.214-0.953,1.625-1.5c0.208-0.375,0.417-0.75,0.625-1.125
			c0.899-0.815,1.817-1.596,2.625-2.5c0.309-0.346,0.328-0.896,0.625-1.25c0.145-0.172,0.449-0.104,0.625-0.25
			c0.144-0.12,0.002-0.356,0.125-0.5c0.325-0.378,1.101-0.603,1.375-1c0.041-0.208,0.084-0.417,0.125-0.625
			c0.208-0.125,0.417-0.25,0.625-0.375c1.048-1.38,2.129-2.817,3.375-4c0.279-0.266,0.734-0.35,1-0.625
			c0.156-0.16,0.113-0.44,0.25-0.625c0.504-0.679,1.327-0.849,2-1.375c0.316-0.248,0.375-0.939,0.75-1.125h0.875
			c0.746-0.359,0.055-0.595,1.5-0.625c-0.014-0.461-0.055-1.106,0.125-1.375c0.348-0.731,1.325-0.959,1.875-1.5
			c1.08-1.064,2.406-1.814,3.625-2.75c0.208-0.291,0.417-0.584,0.625-0.875c0.615-0.445,1.461-0.486,2.125-0.875
			c1.005-0.588,2.016-1.51,3-2.125c0.658-0.412,1.385-0.453,2-0.875l0.875-0.875c1.587-0.732,3.126-0.984,4.75-1.625
			c0.612-0.242,1.128-0.808,1.625-1.125c0.305-0.195,0.646-0.09,1-0.25c0.514-0.232,1.092-0.659,1.625-1
			c0.239-0.152,0.368-0.594,0.625-0.75c0.5-0.166,1-0.334,1.5-0.5c0.902-0.552,1.964-1.367,2.875-1.875
			c0.572-0.318,1.114-0.184,1.75-0.5c1.34-0.666,2.992-1.57,4.375-2.25c0.686-0.337,1.662-0.115,2.25-0.5
			c0.477-0.005,0.943,0.019,1.25,0.125c-0.075,2.925-1.684,4.551-3.125,6.125c-0.278,0.304-0.262,0.773-0.5,1.125
			c-0.25,0.208-0.5,0.417-0.75,0.625c-0.424,0.622-0.557,1.277-1,1.875c-0.125,0.042-0.25,0.084-0.375,0.125
			c-0.195,0.211-0.194,0.521-0.375,0.75c-0.125,0.042-0.25,0.084-0.375,0.125l-0.375,1.125c-0.285,0.471-1.042,0.806-1.375,1.25
			c-1.682,2.244-3.148,4.434-4.75,6.75c-0.365,0.527-1.103,0.873-1.5,1.375c-0.405,0.512-0.596,1.105-1,1.625
			c-0.403,0.52-1.133,0.926-1.5,1.5c-0.34,0.532-0.289,1.237-0.625,1.75c-0.756,1.152-2.126,1.919-2.875,3.125
			c-0.658,1.06-0.533,2.727-1.125,3.875c-1.079,2.094-3.184,6-2.875,8.875c0.06,0.557-0.29,1.547-0.375,2
			c0.041,0.25,0.084,0.5,0.125,0.75v3.25c0.089,0.363,0.334,0.924,0.375,1.375c-0.041,1.166-0.084,2.334-0.125,3.5
			c0.18,0.653,0.678,1.173,0.875,1.875c0.216,0.08,0.122,0.024,0.25,0.125h1.125c0.663-0.306,0.493-1.507,0.75-2.25
			c0.26-0.752,0.818-1.572,1.125-2.25c0.213-0.473,0.124-0.913,0.375-1.375c0.726-1.337,1.586-2.95,2.25-4.375
			c0.084-0.5,0.167-1,0.25-1.5c0.135-0.288,0.625-0.645,0.75-1c0.275-0.783,0.138-1.25,0.5-1.875
			c0.551-0.95,1.535-1.753,2.125-2.625c0.277-0.41,0.297-0.905,0.625-1.25c0.122-0.128,0.395-0.099,0.5-0.25
			c0.979-1.414,1.829-2.764,3.5-3.5c0.021-0.704,0.005-1.082-0.375-1.375c0.129-0.604,0.38-0.496,0.625-0.875
			c0.716-1.109,1.098-2.23,1.875-3.25c0.414-0.544,1.341-1.066,1.75-1.625c2.586-3.527,5.776-6.254,8.25-9.875
			c0.223-0.326,0.664-0.389,1-0.625c0.425-0.299,0.679-0.83,1-1.25c0.561-0.731,1.524-0.876,1.875-1.875h0.625
			c0.085-1.084,1.039-1.638,1.625-2.25c1.931-2.017,3.971-3.713,6.125-5.5c1.748-1.451,3.171-3.217,5-4.625
			c0.773-0.596,1.313-1.685,2.125-2.25c2.134-1.486,4.066-3.149,6.125-4.625c1.084-0.776,2.27-1.234,3.375-2
			c0.291-0.333,0.584-0.667,0.875-1c0.702-0.422,1.459-0.542,2.125-1c0.857-0.59,1.689-1.634,2.625-2.125
			c0.5-0.041,1-0.083,1.5-0.125c0.208-0.291,0.417-0.584,0.625-0.875c0.291-0.041,0.584-0.083,0.875-0.125
			c0.275-0.148,0.683-0.609,1-0.75c0.846-0.375,1.647-0.236,2.5-0.625c0.172-0.078,0.855-0.461,1-0.625
			c0.041-0.125,0.084-0.25,0.125-0.375c1.033-0.794,2.531-1.152,3.25-2.25c1.879,0.039,3.617-0.059,5.125-0.5
			c0.973-0.285,1.746-1.015,3-0.625c2.344,0.729,3.997,2.453,6.125,3.375c0.812,0.352,2.076,0.601,2.75,0.125
			c0.125-0.041,0.25-0.083,0.375-0.125C517.217,322.975,515.575,321.271,514.07,319.015z M394.445,343.265
			c-0.201,0.468-0.354,0.945,0,1.375v0.25c-0.717-0.021-0.678-0.121-0.875-0.625c-0.29-0.028-0.353-0.024-0.5-0.125
			c-0.681,0.081-1.256,0.326-1.375,1c-0.344-0.135-0.653-0.229-1.125-0.25c-0.383,0.404-0.71,0.734-1,1.25
			c-0.811,0.139-1.697-0.165-2.375-0.25c-0.109,0.205-0.229,0.662-0.375,0.875c-0.499,0.371-5.074,1.378-6,1.375
			c0.593-1.084,2.123-1.552,2.875-2.5c0.312,0.188,0.254,0.262,0.25,0.75c0.216-0.08,0.122-0.024,0.25-0.125
			c0.161-0.229,0.224-0.79,0.25-1.125c0.514-0.27,0.92-0.726,1.375-1c0.391-0.235,1.08-0.056,1.375-0.375
			c0.172-0.187,0.027-0.483,0.25-0.625l1.125-0.375l0.5-0.5c0.951-0.372,1.941-0.297,2.875-0.625c0.621-0.219,2.447-1.164,3-0.875
			c0.39,0.076,0.304,0.021,0.5,0.25c0.021,0.018-0.08,1.127,0.25,1.5C395.529,342.786,394.71,343.113,394.445,343.265z
			 M400.945,343.515c-0.436-0.031-0.526-0.044-0.75-0.25c-0.34-0.129-0.275-0.18-0.5-0.375v-0.375
			c0.216-0.08,0.122-0.024,0.25-0.125c0.597,0.163,0.593,0.664,1,1V343.515z M402.945,342.89c-0.257,0.05-0.24,0.031-0.375,0.125
			h-0.375c0.212-0.443,0.399-0.891,0.25-1.375c0.29,0.093,0.279,0.13,0.5,0.25V342.89z M408.695,343.265v0.25h-0.625v-0.375
			c0.295-0.109,0.206-0.047,0.375-0.25h0.25C408.711,343.249,408.783,343.072,408.695,343.265z M408.57,342.515v-0.5
			c0.041-0.041,0.084-0.083,0.125-0.125h0.125C408.757,342.156,408.709,342.342,408.57,342.515z M418.82,342.515
			c0.08-0.216,0.024-0.122,0.125-0.25v-0.125c0.041,0.042,0.084,0.084,0.125,0.125c0.041,0.042,0.084,0.084,0.125,0.125
			C419.07,342.432,418.945,342.474,418.82,342.515z M421.945,340.64c-0.669,0.209-0.56,0.416-0.5,1.125
			c-0.26,0.055-0.57,0.119-0.75,0.25h-0.125c0.111-0.379,0.373-0.57,0.5-0.875c-0.045-0.159-0.271-0.68-0.125-1
			c0.191-0.418,0.854-0.582,1.125-1c0.136-0.119,0.015-0.316-0.125-0.5v-0.25c-0.819,0-1.025-0.018-1.625-0.125
			c-0.484,0.573-1.405,2.44-1.5,3.375c-0.216-0.08-0.122-0.024-0.25-0.125c-0.446-0.002-0.845,0.027-1.125,0.125
			c-0.129,0.476-0.279,0.639-0.125,1.125c-0.157,0.069-0.377,0.15-0.5,0.25h-0.625l0.375-0.375c-0.031-0.436-0.044-0.526-0.25-0.75
			c-0.149-0.388-0.204-0.395-0.625-0.5c-0.129-0.101-0.031-0.046-0.25-0.125c-0.122,0.221-0.161,0.207-0.25,0.5
			c-0.184,0.262-0.238,0.846-0.25,1.25c-0.629-0.147-0.453-0.545-0.875-0.75c-0.375-0.041-0.75-0.083-1.125-0.125l-0.5-0.5
			c-0.939-0.296-1.161,0.514-1.875-0.125c-0.396,0.07-0.363,0.109-0.625,0.25c0.067,0.486,0.229,0.96,0.5,1.25v0.375h-0.125
			c-0.426-0.906-0.848-2.002-1.125-3c-0.341-0.068-0.47-0.175-0.75,0c-0.337,0.115-0.366,0.215-0.625,0.375
			c0.044,0.508,0.11,0.622,0.375,0.875v0.125c-1.448-0.188-2.321,0.689-2.875,1.75h-1.125c0.112-0.587,0.704-1.099,1.125-1.375
			c-0.059-0.896-0.466-1.112-0.75-1.875c-0.406-0.107-0.769-0.346-1.125-0.125c-0.787,0.009-0.752,0.144-1.125,0.5
			c-0.041,0.042-0.084,0.084-0.125,0.125c-0.041-0.041-0.084-0.083-0.125-0.125c-0.859-0.171-2.458,0.471-3.125,0.25
			c-0.083-0.083-0.166-0.167-0.25-0.25h-0.25v-0.25c1.942-0.925,5.201-1.273,7.625-1.875c1.582-0.393,3.442-0.22,4.75-0.625
			c1.363-0.423,3.799,0.226,4.875-0.375c1.018,0.013,0.932,0.339,1.625,0.5v-0.5c1.291-0.111,4.236-0.15,5.625-0.625
			c0.422-0.145,0.974-0.618,1.375-0.75h1.25c0.274-0.095,0.587-0.521,0.875-0.625c0.688-0.25,1.127,0.081,1.875-0.25
			c0.438-0.193,0.918-0.779,1.375-1c0.436-0.211,1.248-0.293,1.625-0.5c0.041-0.022,0.157-0.34,0.25-0.375
			c0.718-0.271,1.447-0.079,2.125-0.375c0.658-0.288,0.99-0.992,1.875-1.125c-0.184,0.944-1.101,1.26-1.75,1.75
			c-0.318,0.24-0.455,0.752-0.75,1c-0.583,0.49-1.254,0.67-1.875,1.125c-0.415,0.305-0.637,1.164-1.125,1.375
			c-0.291-0.041-0.584-0.083-0.875-0.125c-0.335,0.095-0.442,0.337-1,0.375c0.475,1.836-0.626,1.461-1.5,2.5h-0.25
			c0.163-0.859,0.609-0.936,0.25-1.75c-0.974-0.171-1.659,0.322-2.375,0.75c-0.041,0.25-0.084,0.5-0.125,0.75
			c0.291,0.333,0.584,0.667,0.875,1c-0.041,0.042-0.084,0.084-0.125,0.125c-1.01-0.025-0.531-0.146-0.875-0.875
			c-0.648-0.267-0.971-0.182-1.625,0c-0.041,0.208-0.084,0.417-0.125,0.625C422.063,340.565,422.08,340.546,421.945,340.64z
			 M403.195,371.39c-0.125-0.042-0.25-0.083-0.375-0.125c0.084-0.156,0.136-0.259,0.25-0.375c0.041,0.042,0.084,0.083,0.125,0.125
			V371.39z M406.07,368.14c-0.041,0.042-0.084,0.083-0.125,0.125h-0.125v-0.5h0.375C406.154,367.89,406.111,368.015,406.07,368.14z
			 M408.07,363.39c-0.5,0.042-1,0.083-1.5,0.125c-0.065,1.678,0.755,1.4,1.75,1.75c0.041,0.042,0.084,0.083,0.125,0.125
			c-0.393,0.262-2.471,0.693-3.125,0.75c-0.105,0.229-0.222,0.56-0.375,0.75c-0.205,0.167-0.396,0.213-0.75,0.25v1
			c0.375,0.4,0.236,0.676,1,0.75c-0.093,0.29-0.13,0.279-0.25,0.5c-0.424-0.144-0.661-0.408-0.875-0.75
			c-0.844,0.062-0.899,0.471-1.375,0.125c-0.67-0.012-0.834-0.004-1,0.5c-0.236,0.346-0.258,1.224-0.25,1.75
			c0.283,0.271,0.311,0.477,0.75,0.625v0.25h-0.125v0.125c-0.362-0.124-0.441-0.216-0.625-0.5c-1.26,0.249-1.697,0.649-2.5,1.25
			c0.04,0.848,0.335,0.833,0.75,1.25c0.442-0.081,0.424-0.086,0.625-0.375h0.25c-0.257,1.512-1.671,2.09-3,2.375
			c0.003,0.341,0.005,0.572,0.125,0.75c-0.025,1.093-1.014,2.117-1.875,2.375v0.125h-0.25c-0.34-1.916,0.803-3.531,1.375-4.875
			c0.958-2.248,1.486-4.156,2.75-6c0.681-0.992,2.404-2.451,2.625-3.75h0.375c0.308-0.42,3-3.103,3.375-3.25
			c0.104-0.11,0.354,0.291,0.875,0.125c0.041-0.083,0.084-0.167,0.125-0.25h0.25c0.189,0.063,0.496,0.553,0.75,0.625
			c0.439,0.125,0.709-0.162,0.875-0.125c0.216,0.08,0.122,0.024,0.25,0.125h0.125C408.981,362.517,408.504,362.341,408.07,363.39z
			 M433.07,349.765c-0.25,0.083-0.5,0.167-0.75,0.25c0.041-0.125,0.084-0.25,0.125-0.375h0.625V349.765z M433.82,376.015
			c0.373,1.114,1.358,0.756,2.125,1.125c0.097,0.243-0.115,0.63-0.375,0.875c0.085,0.596,0.346,0.979,0.75,1.25v0.125
			c-0.953-0.071-1.553-0.635-2.375-0.375c0.109-0.295,0.047-0.206,0.25-0.375c-0.025-0.521-0.087-0.572-0.25-0.875
			c-0.376,0.018-0.348,0.094-0.5,0c-0.682,0.018-0.639,0.119-1,0.375c-0.035,0.925,0.413,1.238,1.125,1
			c-0.079,0.279-0.092,0.33-0.25,0.5c-0.031,0.018-1.149,0.312-1.375,0.375c-0.012,0.412-0.029,0.896,0.125,1.125
			c0.164,0.41,0.35,0.364,0.625,0.625c1.021-0.039,1.564-0.77,2-1.375c0.125,0.042,0.25,0.083,0.375,0.125
			c-0.105,0.996-0.731,1.449-1,2.25c-0.458-0.093-0.615-0.352-1-0.125c-0.444,0.221-0.771,0.79-1.125,1.125
			c0.049,0.77,0.332,0.995,0.875,1.25c-0.041,0.333-0.084,0.667-0.125,1c-0.398-0.037-0.4-0.111-0.625,0
			c-0.609,0.019-0.712,0.129-1.125,0.25c-0.002,0.623,0.02,0.754,0.375,1c0.122,0.074,0.237,0.011,0.625,0
			c0.062,0.561,0.117,0.865-0.25,1.25v0.25c-0.316-0.014-0.463-0.016-0.625-0.125c-0.696,0.014-0.739,0.132-1.125,0.375
			c-0.053,0.896-0.086,1.322,0.625,1.5c-0.071,1.222-0.766,1.915-1.25,2.75h-0.25c0.172-0.997-0.169-2.171-0.375-3.125
			c-0.119-0.551,0.207-0.881,0.25-1.125c0.159-0.906-0.304-2.264-0.125-3.125c0.205-0.984,0.523-1.906,0.75-2.875
			c0.041-0.625,0.084-1.25,0.125-1.875c0.166-0.125,0.334-0.25,0.5-0.375c0.238-0.432,0.635-1.379,0.75-1.75v-0.75
			c0.152-0.385,0.693-0.936,0.875-1.375c0.648-1.561,0.854-3.078,1.75-4.375c0.254-0.367,0.803-0.449,1.125-0.75h0.25
			c0.079,0.605-0.307,1.189,0.125,1.75c0.041,0.125,0.084,0.25,0.125,0.375c0.576-0.109,1.107-0.186,1.375-0.625
			c0.166,0.125,0.334,0.25,0.5,0.375c-0.323,1.217-2.02,0.797-3,1.375c-0.125,0.042-0.25,0.083-0.375,0.125
			C433.691,375.504,433.689,375.822,433.82,376.015z M437.445,378.14c-0.041,0.042-0.084,0.083-0.125,0.125
			c-0.084-0.156-0.136-0.259-0.25-0.375v-0.375c0.199-0.17,0.145-0.076,0.25-0.375c0.041,0.042,0.084,0.083,0.125,0.125
			c0.125,0.042,0.25,0.083,0.375,0.125c0.041,0.125,0.084,0.25,0.125,0.375C437.779,377.89,437.611,378.015,437.445,378.14z
			 M438.32,375.515c-0.205,0.44-0.574,0.506-0.875,0.5c0.204-0.352,0.319-0.602,0.75-0.75c-0.027-0.75-0.288-0.969-0.75-1.25
			c0.093-0.29,0.13-0.279,0.25-0.5c0.562,0.09,0.634,0.266,1,0.5C438.641,374.478,438.549,375.181,438.32,375.515z M447.195,364.64
			c-0.391-0.09-0.262-0.082-0.5-0.25c0.003-0.341,0.005-0.572,0.125-0.75v-0.25c0.325,0.082,0.648,0.19,0.875,0.375h0.125
			C447.668,364.197,447.421,364.3,447.195,364.64z M448.82,362.89c-0.277-0.146-0.188-0.182-0.375-0.375v-0.125h0.625
			C448.977,362.68,448.94,362.669,448.82,362.89z M489.195,326.89v-0.5c0.283-0.204,0.301-0.179,0.375-0.625h0.25
			C489.793,326.443,489.511,326.846,489.195,326.89z M491.57,326.64c0.028-0.29,0.024-0.353,0.125-0.5
			c0.08-0.216,0.024-0.122,0.125-0.25c0.152,0.255,0.08,0.237,0.375,0.375C492.031,326.566,491.94,326.56,491.57,326.64z
			 M494.32,325.64c0.276-0.852,1.015-0.896,1.5-1.5c0.216,0.08,0.122,0.024,0.25,0.125h0.125
			C495.935,325.023,495.037,325.342,494.32,325.64z M498.945,322.39c-0.332-0.188-0.288-0.469-0.5-0.75
			c0.213-0.096,0.504,0.031,0.75,0.25c0.102,0.129,0.046,0.031,0.125,0.25C499.164,322.224,499.061,322.276,498.945,322.39z
			 M515.07,324.765c-0.216,0.08-0.122,0.024-0.25,0.125c-0.994-0.074-2.752-1.586-3.5-2.125c0.057-0.372,0.063-0.422,0.25-0.625
			c-0.002-0.746-0.119-0.845-0.375-1.25c-0.29-0.028-0.353-0.024-0.5-0.125c-0.88-0.023-1.137,0.111-1.125,1
			c-0.375-0.1-0.439-0.193-0.875-0.25c-0.041-0.291-0.084-0.584-0.125-0.875c-0.228-0.109-0.454-0.211-0.625-0.375
			c-0.852-0.012-1.098,0.209-1.25,0.875h-0.625v-0.375c-0.252-0.146-0.641-0.311-0.875-0.5c-0.324,0.025-0.425,0.055-0.625,0.125
			c-0.078,0.446-0.127,0.627-0.125,1.375c-0.041,0.042-0.084,0.084-0.125,0.125c-0.416,0.001-0.744,0.036-1,0.125
			c-0.063-0.164-0.152-0.492-0.25-0.625c0.153-0.109,0.398-0.009,0.625-0.125l0.625-0.625c-0.03-0.57-0.055-0.713-0.5-0.875
			c0.156-0.322,0.312-0.357,0.625-0.5c-0.027-0.645-0.152-0.744-0.375-1.125c-0.495-0.036-0.821-0.185-1.125,0h-0.25
			c-0.088,0.848-0.051,0.83,0.25,1.5c-0.111,0.43-0.304,0.867-0.25,1.25c-0.083-0.041-0.166-0.083-0.25-0.125
			c-0.026-0.502-0.141-0.873,0-1.125c0.013-1.085-0.609-2.059-1.5-2.25v-0.25c0.614-0.347,1.42-0.802,2.125-1
			c0.873-0.246,2.255-0.162,2.625-0.125c0.708-0.083,1.417-0.167,2.125-0.25c1.855,0.366,3.298,2.378,4.25,3.75
			c0.291,0.25,0.584,0.5,0.875,0.75v0.5c0.119,0.234,0.508,0.493,0.625,0.75v0.5c0.143,0.205,0.618,0.388,0.75,0.625
			c0.347,0.623,0.318,1.252,0.75,1.75V324.765z M391.32,342.765h-0.25c-0.041,0.291-0.084,0.584-0.125,0.875
			c0.301,0.219,0.312,0.374,0.75,0.5c0.386,0.17,0.895-0.262,1.25-0.5c-0.057-0.372-0.062-0.422-0.25-0.625
			C392.419,342.771,391.731,342.477,391.32,342.765z M404.32,364.89c-0.562,0.011-0.682,0.078-1,0.25v0.75
			c0.156,0.168,0.177,0.22,0.25,0.5c0.216,0.08,0.122,0.024,0.25,0.125c1.171,0.031,1.118-0.194,1.625-0.75
			C405.27,365.004,404.871,365.234,404.32,364.89z M406.57,339.765c-0.465,0.02-0.818,0.09-1,0h-0.25v1
			c0.208,0.125,0.417,0.25,0.625,0.375c0.041,0.042,0.084,0.084,0.125,0.125v-0.125c0.416-0.001,0.744-0.036,1-0.125
			c0.08-0.216,0.024-0.122,0.125-0.25C407.119,340.055,406.889,340.166,406.57,339.765z M411.195,339.265
			c-0.25,0.042-0.5,0.084-0.75,0.125c-0.07,0.342-0.127,0.646-0.125,1.125c0.25,0.208,0.5,0.417,0.75,0.625
			c0.614-0.06,0.661-0.229,1.125-0.375c-0.014-0.316-0.016-0.463-0.125-0.625C411.885,339.634,411.53,339.594,411.195,339.265z
			 M412.695,339.265c-0.125,0.042-0.25,0.084-0.375,0.125v0.75c1.019,0.739-0.039,0.432,0.25,1.25
			c0.137,0.387,0.588,0.504,0.875,0.75c0.662-0.111,0.878-0.49,1-1.125c-0.194-0.143-0.102-0.138-0.375-0.25
			c0.111-0.452,0.076-0.382,0.5-0.5C414.57,339.284,413.468,338.502,412.695,339.265z M416.445,339.765
			c-0.139,0.135-0.263,0.6-0.25,1.25c0.241,0.144,0.457,0.278,0.625,0.5c0.266-0.063,0.452-0.111,0.625-0.25l0.375-0.375
			C417.868,339.853,417.199,339.189,416.445,339.765z M418.695,352.39c-0.291,0.042-0.584,0.084-0.875,0.125
			c-0.041,0.042-0.084,0.084-0.125,0.125v0.75c0.665,0.66,1.007,1.111,2,0.5C419.621,352.956,419.18,352.871,418.695,352.39z
			 M421.07,351.39v1c0.186,0.173,0.365,0.405,0.5,0.625c0.357-0.045,0.54-0.082,0.75-0.25l0.375-0.375
			c-0.001-0.416-0.036-0.744-0.125-1c-0.216-0.08-0.122-0.024-0.25-0.125C421.844,351.26,421.377,351.284,421.07,351.39z
			 M427.445,346.14v0.5c0.093,0.133,0.011,0.438,0.125,0.625c0.123,0.203,0.693,0.329,0.875,0.5
			c0.324-0.025,0.425-0.055,0.625-0.125C429.174,345.849,428.562,345.355,427.445,346.14z M433.445,345.515
			c-0.488,0.061-0.4,0.121-0.75,0.25v1c0.084,0.083,0.167,0.167,0.25,0.25c0.343,0.282,0.782,0.287,1.125,0
			c0.277-0.146,0.188-0.182,0.375-0.375c-0.06-0.614-0.229-0.661-0.375-1.125C433.672,345.478,433.67,345.404,433.445,345.515z
			 M436.945,343.765c-0.408-0.246-0.939-0.016-1.375,0.25c-0.041,0.291-0.084,0.584-0.125,0.875c0.943,0.641,1.062,0.691,2,0
			c-0.003-0.341-0.005-0.572-0.125-0.75C437.18,343.851,437.203,343.914,436.945,343.765z M439.195,342.765
			c0.08-0.216,0.024-0.122,0.125-0.25c-0.01-0.996-1.161-1.259-1.75-0.875c-0.425,0.141-0.615,0.32-0.75,0.75l1,1
			C438.462,343.251,438.756,343.041,439.195,342.765z M438.945,370.265c0.195,0.188,0.284,0.317,0.375,0.625
			c0.341-0.003,0.572-0.005,0.75-0.125c0.603-0.05,0.628-0.117,0.75-0.625c0.095-0.157,0.01-0.119,0-0.5
			c-0.346-0.146-0.635-0.256-0.875-0.5c-0.562,0.011-0.682,0.078-1,0.25V370.265z M444.07,339.265
			c-0.802,0.016-0.713,0.18-1.125,0.5v0.75c0.656,0.359,1.209,0.235,1.75-0.125c-0.074-0.48-0.209-0.645-0.375-1
			C444.104,339.31,444.198,339.366,444.07,339.265z M446.695,358.39v0.75c0.186,0.239,0.359,0.636,0.5,0.875
			c1.096,0.002,1.11-0.361,1.625-0.875c-0.083-0.872-0.482-0.737-1-1.125C447.219,358.083,447.191,358.255,446.695,358.39z
			 M449.695,340.89c0.727-0.132,0.797-0.518,1.25-0.875c-0.033-0.637-0.146-0.635-0.375-1c-0.216-0.08-0.122-0.024-0.25-0.125h-1
			c-0.107,0.404-0.216,0.486-0.25,1C449.323,340.144,449.537,340.553,449.695,340.89z M450.695,331.765
			c0.023-0.619,0.013-0.581,0-1.25c-0.148-0.142-0.269-0.317-0.375-0.5c-0.77-0.009-0.855,0.096-1.25,0.375
			c0.012,0.705,0.138,0.846,0.375,1.25C449.947,331.844,450.1,331.831,450.695,331.765z M451.195,355.14
			c0.19,0.192,0.367,0.512,0.5,0.75c0.388,0.008,0.789,0.018,1-0.125c0.663-0.389,0.062-1.152-0.25-1.625
			c-0.645,0.027-0.744,0.152-1.125,0.375C451.279,354.723,451.236,354.932,451.195,355.14z M457.695,338.515
			c-0.07,0.342-0.127,0.646-0.125,1.125c0.698,0.351,1.172-0.008,1.875-0.25c0.105-0.594,0.019-0.784-0.25-1.25
			c-0.458,0.083-0.917,0.167-1.375,0.25C457.779,338.432,457.736,338.474,457.695,338.515z M459.195,331.515
			c-0.324,0.025-0.425,0.055-0.625,0.125c-0.114,0.428-0.233,0.549-0.25,1.125c0.22,0.139,0.45,0.313,0.625,0.5
			c0.696-0.014,0.739-0.132,1.125-0.375C460.021,331.826,459.507,332.212,459.195,331.515z M465.32,336.015
			c-0.041,0.291-0.084,0.584-0.125,0.875c0.113,0.116,0.169,0.218,0.25,0.375c0.307,0.063,0.729,0.156,1,0.25
			c0.116-0.113,0.218-0.169,0.375-0.25c-0.083-0.416-0.166-0.834-0.25-1.25c-0.25-0.083-0.5-0.167-0.75-0.25
			C465.652,335.921,465.601,335.942,465.32,336.015z M467.945,330.765c-0.08-0.216-0.024-0.122-0.125-0.25
			c-0.073-1.139-0.973-1.031-1.625-0.625v0.625c0.186,0.173,0.365,0.405,0.5,0.625C467.441,331.138,467.54,331.021,467.945,330.765z
			 M468.57,334.765c-0.124,0.237-0.172,0.344-0.375,0.5v0.5c0.216,0.22,0.369,0.578,0.5,0.875c0.784-0.093,0.674-0.501,1.125-0.875
			c-0.014-0.316-0.016-0.463-0.125-0.625c-0.145-0.354-0.016-0.235-0.375-0.375C469.112,334.651,468.998,334.74,468.57,334.765z
			 M469.32,339.015c-0.227-0.124-0.226-0.032-0.625,0c-0.041,0.042-0.084,0.084-0.125,0.125c-0.041,0.291-0.084,0.584-0.125,0.875
			c0.186,0.173,0.365,0.405,0.5,0.625c0.562-0.059,0.534-0.162,0.875-0.375C469.842,339.55,469.802,339.228,469.32,339.015z
			 M470.945,322.64c-0.164-0.285-0.269-0.194-0.5-0.375c-0.386,0.006-0.641,0.043-0.875,0.125v1.125
			c0.113,0.116,0.169,0.218,0.25,0.375C470.674,323.942,471.461,323.371,470.945,322.64z M470.695,146.265h0.375v-0.25
			C470.668,146.125,470.877,145.947,470.695,146.265z M475.32,328.765c-0.216-0.08-0.122-0.024-0.25-0.125
			c-0.92-0.027-1.009,0.117-1.25,0.75c0.246,0.254,0.325,0.537,0.625,0.75c-0.113,0.34-0.27,0.537-0.5,0.75
			c0.045,0.799,0.308,0.786,0.625,1.25c0.814-0.13,0.988-0.604,1.5-1c0.014-0.735-0.044-0.86-0.625-1
			c0.028-0.29,0.024-0.353,0.125-0.5C475.545,329.12,475.483,329.068,475.32,328.765z M478.32,329.015
			c0.016-1.364-0.914-1.219-1.875-1.25c0.037,1.122,0.41,1.67,0.625,2.5C478.082,330.044,477.854,329.745,478.32,329.015z
			 M480.945,321.89c-0.533,0.062-0.76,0.153-1,0.5c0.158,0.219,0.223,0.664,0.25,1c0.346,0.061,0.361,0.15,0.625,0
			c0.324-0.025,0.425-0.055,0.625-0.125C481.603,322.459,481.405,322.355,480.945,321.89z M482.195,327.515
			c-0.227-0.2-0.652-0.184-0.875-0.375c-0.6,0.104-0.854,0.469-1,1c0.138,0.159,0.277,0.443,0.375,0.625
			c1.192-0.048,1.585,0.043,2,0.75c0.614-0.06,0.661-0.229,1.125-0.375c-0.002-0.746-0.119-0.845-0.375-1.25
			c-0.375,0.042-0.75,0.084-1.125,0.125C482.279,327.849,482.236,327.681,482.195,327.515z M482.695,326.015
			c-0.041,0.042-0.084,0.084-0.125,0.125c0.018,0.802,0.203,0.807,0.5,1.25c0.51-0.098,0.511-0.157,0.625-0.625
			c0.406,0.236,0.713,0.534,1.25,0.625c0.055-0.712,0.275-0.688,0.25-1.25c0.041-0.041,0.084-0.083,0.125-0.125
			c0.084,0.083,0.167,0.167,0.25,0.25c0.637-0.063,0.548-0.189,0.875-0.5c-0.039-0.592-0.135-0.756-0.5-1
			c0.17-0.443,0.772-0.898,0.375-1.5c-0.432-0.854-1.235-0.041-1.625,0.25c0.029,1.076,0.288,1.206,0.25,2.125
			C483.62,325.669,483.861,326.032,482.695,326.015z M505.82,318.515c-0.341,0.003-0.572,0.005-0.75,0.125h-0.25v1.125
			c0.266,0.166,0.562,0.376,0.75,0.625c0.697-0.072,0.811-0.339,1.25-0.625C506.777,318.763,506.349,318.964,505.82,318.515z"/>
	</g>
</g>
</svg>
