<?xml version="1.0" encoding="utf-8"?>
<!-- Generator: Adobe Illustrator 23.0.1, SVG Export Plug-In . SVG Version: 6.00 Build 0)  -->
<svg version="1.1" id="Calque_1" xmlns="http://www.w3.org/2000/svg" xmlns:xlink="http://www.w3.org/1999/xlink" x="0px" y="0px"
	 viewBox="0 0 595.276 841.89" enable-background="new 0 0 595.276 841.89" xml:space="preserve">
<path fill-rule="evenodd" clip-rule="evenodd" fill="#DDDDDD" d="M118.117,543.552C116.332,542.908,167.7,528.7,167.7,528.7
	s70.385,25.858,126.8-4c45.661,16.955,45.661,16.955,45.661,16.955S247.801,590.365,118.117,543.552z"/>
<g>
	<g>
		<path fill-rule="evenodd" clip-rule="evenodd" d="M331.7,537.5c-1.374-3.784-11.62-5.335-16-6.8c-5.158-1.725-9.295-5.379-14-7.2
			c-4.161-1.611-10.077-2.387-14.8-2.8c-3.569-7.836-5.763-17.582-6-28.4c-0.058-2.655-1.365-6.939-0.4-10
			c0.912-2.895,3.116-5.863,4.4-8.4c0.994-1.964,0.862-3.813,1.6-6c1.184-3.509,3.082-7.556,4.4-11.2
			c1.679-4.643,2.964-9.199,4.4-13.6c0.979-3.001,0.694-6.87,2.4-9.2c1.713-5.065,8.945-3.807,14.4-4
			c1.067-0.933,2.133-1.867,3.2-2.8c3.138-4.597,6.15-16.424,3.6-23.6c-1.195-3.363-3.768-5.682-5.6-8.4
			c-1.705-0.347-4.132-0.437-6.4-0.4c1.99-7.435,3.603-15.139,3.6-24.8v-6c-2.666-10.519-11.833-22.583-18.8-29.2v-0.4
			c3.969,0.114,14.173,1.695,16.8,0c0.4-0.133,0.8-0.267,1.2-0.4c-0.34-3.271-2.453-2.464-4.8-3.6c-4.815-2.332-10.362-4.577-16-6
			c0.938-1.405,1.581-1.439,1.6-4c1.6-0.267,3.2-0.533,4.8-0.8c0.133-0.133,0.267-0.267,0.4-0.4c-0.091-0.927-0.079-1.128-0.4-1.6
			c-0.534-1.486-2.614-2.721-4-3.2c-2.223-0.768-3.955-0.127-6-0.8c-2.913-0.958-5.283-3.031-8.8-3.2c0.475-2.451,4.151-4.854,6-6
			v-2.4c-2.717-0.23-8.961,3.03-11.2,2.4c-0.77-0.217-2.377-1.681-3.2-2c-7.872-3.054-15.24-7.643-23.2-9.2
			c-2.799,3.903-23.271,2.284-27.2-0.8c-2.296-0.132-4.515-0.464-5.2,1.2c-0.323,0.411-0.148,0.098-0.4,0.8
			c1.023,0.822,2.021,1.175,3.2,2c1.139,0.798,1.612,2.37,2.8,3.2c-0.133,0.267-0.267,0.533-0.4,0.8
			c-10.524-0.314-22.446,0.008-32,2.8c-2.404,0.703-9.739,1.001-8.4,4v0.8c1.804-0.555,5.763-0.933,8-0.8v0.4
			c-8.229,2.58-23.538,15.382-27.2,22.4c-0.655,1.255-3.897,9.285-4,10c-0.144,0.997,1.399,1.235,1.2,2.4
			c-0.218,1.276-2.777,5.535-3.6,7.2c-2.427,4.908-4.741,11.23-6.4,16.8c-0.454,1.524-0.681,5.461-0.4,6
			c-0.043,2.298,0.101,3.896,0.8,5.2c2.825-0.557,5.173-6.161,6.4-8.4h0.8c0.017,4.714-0.623,19.635,2,23.6v2.4
			c-2.133,0.667-4.267,1.333-6.4,2c-1.95,1.064-4.784,3.742-6,5.6c-6.54,9.993,0.15,25.429,7.2,29.6c3.355,1.985,7.049,0.842,10.8,2
			c2.199,9.693,5.914,21.685,9.6,30.4c2.21,5.225,2.878,10.211,7.2,13.2c-0.628,2.99,1.801,7.238,2.8,11.6
			c1.768,7.722,0.616,18.329-0.8,24.8v6c-0.586,0.944-2.247-0.209-3.2,0.4c-0.286,0.183-0.441,1.365-0.8,1.6
			c-1.803,1.179-3.847,1.295-5.6,2.4c-5.268,3.32-11.466,7.28-17.2,10c-2.417,1.146-4.263,1.038-6.8,2
			c-2.336,0.886-5.238,2.844-7.6,3.6c-0.88,0.281-1.664-0.176-2-0.4c-0.896,0.09-1.718,0.864-2.4,1.2
			c0.091,0.927,0.079,1.128,0.4,1.6c2.581,1.866,6.443-0.893,8.8-2c3.309-1.555,6.676-2.552,10.4-4c3.324-1.292,6.553-4.127,9.6-5.6
			c2.026-0.979,3.5-0.814,4.8-2.4c2.881,0.38,3.658,2.369,5.6,3.6c2.533,1.605,5.867,3.008,8.8,4c9.5,3.211,20.347,0.813,31.2,3.2h6
			c8.04,1.833,17.338,2.002,27.2,2h11.6c2.455-0.542,6.201-0.107,8.8-0.8c4.991-1.332,10.627-3.179,15.6-5.2
			c3.512-1.427,6.002-4.799,10.8-5.2c0.252-1.037,0.575-3.815,1.2-4.8v-0.8c9.123,0.754,12.898,5.773,20,8.4
			c5.682,2.101,11.982,2.332,16,6c0.923-0.13,0.994-0.186,1.6-0.4C331.94,537.878,332.001,537.929,331.7,537.5z M178.1,531.1
			c-0.411,0.323-0.098,0.148-0.8,0.4c-0.994-0.989-2.882-2.03-4.4-2.4c-0.258-0.69-0.078-0.392-0.4-0.8
			c0.7-2.67,3.744-2.864,5.2-4.8h0.8C178.552,525.641,179.012,529.703,178.1,531.1z M159.7,336.3c0.667-0.667,1.333-1.333,2-2h0.4
			c-0.431,1.23-0.977,1.444-1.6,2.4h-0.8L159.7,336.3L159.7,336.3z M154.9,361.9c2.014-6.992,7.608-13.893,12.4-18.4
			c-0.042-1.013-0.049-1.482-0.4-2v-0.4c-2.093,0.729-2.79,2.382-4,4c-2.301,3.079-5.353,6.056-7.2,9.6
			c-2.977,5.714-3.763,12.091-8,16.4v0.4h-0.4c0.114-4.812,1.935-8.164,3.2-11.6c0.533-2.266,1.067-4.534,1.6-6.8
			c4.599-10.963,10.257-16.234,19.2-22.8c1.633-1.199,3.119-3.281,4.8-4.4c2.061-1.371,4.598-1.649,6.8-2.8
			c3.402-1.778,7.069-4.33,10.4-6c2.524-1.265,5.292-1.044,7.2-2.8c0.321-0.387,0.59-1.096,0.8-1.6c-0.4-0.133-0.8-0.267-1.2-0.4
			c-0.178-0.162-8.956,3.241-10.4,4c-10.502,5.518-21.848,8.422-29.6,16.8h-0.4c1.303-5.033,5.601-7.981,8.8-11.2
			c5.25-5.283,11.689-10.711,19.6-13.2c2.266-0.133,4.534-0.267,6.8-0.4c0.633-0.22,1.367-1.384,2-1.6h6.4
			c0.133-0.133,0.267-0.267,0.4-0.4c-0.145-1.5-0.31-1.487-0.8-2.4c-3.014,0.163-8.543,2.266-10.8,0.8h-0.4
			c3.725-2.929,16.597-2.782,22.4-1.6c1.557,0.317,3.367-0.271,4.4,0.4c2.298,0.043,3.896-0.101,5.2-0.8
			c-0.056-1.849-0.122-2.054-1.2-2.8v-0.8c2.765,0.447,5.251,2.005,7.6,2.8c2,0.267,4,0.533,6,0.8c5.206,1.443,8.803,3.065,12,6.4
			c0.927-0.091,1.128-0.079,1.6-0.4c1.366-0.338,1.017-0.199,1.6-1.2c0.133-0.133,0.267-0.267,0.4-0.4
			c-4.567-2.124-7.564-4.911-12.8-6.4c-3.671-1.044-8.272,0.089-10.4-2.4h-0.8v-0.4c7.901,0.013,15.069,0.047,21.6,2.4
			c3.242,1.168,5.932-0.182,7.2,2.8c1.867-0.316,1.615-0.473,1.6-1.6c6.266,1.554,10.004,5.6,16.8,5.2
			c-0.498,1.437-1.746,2.367-3.2,2.8c-0.133,0.933-0.267,1.867-0.4,2.8c3.2,0.533,6.4,1.067,9.6,1.6c2.674,0.888,4.325,2.599,8,2.8
			c0.133,0.133,0.267,0.267,0.4,0.4c-0.884,1.704-3.271,1.974-4.4,3.6c-2.047-0.018-3.298-0.283-4.4-1.2h-0.8
			c0.172,3.258,1.846,1.902,3.2,3.6c0.133,0.533,0.267,1.067,0.4,1.6c2.55,3.425,7.49,1.788,11.6,3.6
			c2.118,0.933,4.198,2.625,6.8,3.2v0.4c-3.743,0.725-8.011,0.179-11.6-1.2c-0.305-0.701-0.39-2.236-1.6-2.8
			c-0.694-0.324-3.473,0.164-5.2-0.4c-2.96-0.966-4.346-3.801-8-4v1.6c1.76,1.23,3.378,3.233,5.6,4c1.652,0.57,2.839,0.018,4,0.8
			c1.177,1.061,1.297,3.259,2.4,4.4c6.866,7.097,13.608,13.985,18.4,23.2c1.471,2.829,1.7,7.407,2.8,9.6v2.4l-0.4-0.4
			c-1.335-1.205-0.893-3.291-1.6-5.2c-1.426-3.851-4.018-7.492-6-10.8c-1.593-0.619-1.603-0.486-3.6-0.4
			c-0.858-1.862-1.305-4.185-2.4-6c-1.679-2.784-4.541-4.984-6.4-7.6c-1.013,0.042-1.482,0.049-2,0.4c-1.7,0.78-5.485,7.888-6,10
			h-0.4l-0.8-0.8c-0.384-6.492-3.536-11.548-5.2-16.4c-0.8-2.333-0.104-4.026-0.8-6.4c-0.704-2.401-2.42-4.123-3.6-6
			c-1.247,0.242-0.973,0.069-1.6,0.8l-0.4,0.4c1.623,1.661,5.45,9.209,4.4,13.2c-0.596,2.265-1.981,4.318-2.4,7.2
			c-0.133,0.133-0.267,0.267-0.4,0.4c-2.355-0.58-8.052-9.867-8.8-12.4c-0.557-1.888,1.169-6.201,2-7.2
			c-0.044-1.139-0.16-1.71-0.4-2.4c-2.115,0.428-4.964,11.895-5.6,14.4h-1.2c-0.863-5.335-6.128-12.988-2-17.2
			c-0.009-1.091-0.016-1.833-0.4-2.4c-0.411-0.323-0.098-0.148-0.8-0.4c-2.388,3.011-3.295,7.688-6,10.4
			c-4.528,4.54-11.646,7.819-15.2,13.2h-0.8c1.109-3.286,3.522-6.051,5.2-8.8c1.784-2.922,2.637-5.991,4.4-8.8
			c1.646-2.623,4.333-4.692,4.4-8.8c-3.746,0.405-8.076,13.006-10.8,16v0.4h-0.4c0.317-5.226,1.686-7.369,1.6-13.6
			c-1.039,0.08-1.359,0.177-2,0.4c-0.486,4-0.116,10.5-2.8,14c-0.258,0.69-0.078,0.392-0.4,0.8c-0.644-5.896-0.888-14.911-4.8-18.8
			l-0.4-0.4v0.4c-0.4,0.133-0.8,0.267-1.2,0.4c0.366,2.342,1.686,4.411,2.4,6.4c1.929,5.377,2.165,12.251,0.8,18.4
			c-0.544,2.451,0.073,4.107-0.8,6c-0.952,2.066-3.667,3.234-5.2,4.8h-0.4c2.748-14.496-1.802-23.756-7.2-32.4
			c-1.139,0.044-1.71,0.16-2.4,0.4c0.224,1.957,3.946,7.493,5.2,8.8c-0.494,4.703-5.312,7.223-7.6,10.4
			c-6.493,9.018-13.615,16.626-20.8,24.8h-0.4c1.904-14.604,5.16-18.815,13.6-26.8c-0.042-1.013-0.049-1.482-0.4-2
			c-0.411-0.323-0.098-0.148-0.8-0.4c-8.91,10.787-18.703,19.323-24.8,33.2c-2.245,5.11-3.774,11.247-5.2,16.8
			c-0.767,2.986,0.134,5.427-1.2,7.6v12.4h-0.4c-4.345-12.595-0.96-28.087,1.6-41.6c-0.133-0.133-0.267-0.267-0.4-0.4
			c-1.267,0.226-1.164,0.351-2,0.8c-0.224,7.182-1.731,14.5-3.2,20.8v5.6c-0.382,1.12-3.481,5.482-4.4,6.4v0.4h-0.4
			c0.585-4.852,1.558-10.235,1.2-14.4c-0.067-0.775-0.879-3.652-0.8-4.4c0.57-5.406,3.788-11.415,3.2-17.2h-1.2
			c-1.951,4.358-2.499,10.705-3.6,15.6c-0.727,3.231,1.089,8.302-0.4,10.8v5.2h-0.4c-0.36-2.467-0.8-6.286-0.8-10.4
			c0-1.47,0.531-4.434,0.4-5.2C155.463,370.12,154.545,363.133,154.9,361.9z M180.5,482.3c-0.133-1.067-0.267-2.133-0.4-3.2
			c-1.026-2.427-3.456-4.575-4.8-6.8c-1.499-2.482-1.553-5.199-2.8-8c-0.399-0.897-1.601-1.858-2-2.8
			c-2.597-6.137-3.016-12.437-5.2-18.8c-1.095-3.191-3.6-7.372-3.2-10.8c-4.642-1.522-9.683-1.477-13.2-4
			c-5.137-3.684-5.496-14.181-1.6-20c0.991-1.48,3.108-2.001,4.4-3.2c1.995-0.006,2.411,0.061,3.2,1.2c1.039-0.08,1.359-0.177,2-0.4
			c-0.042-1.013-0.049-1.482-0.4-2c-0.466-1.19-0.934-1.119-1.6-2c-10.058,0.289-7.838,6.506-11.6,12
			c-0.133,0.133-0.267,0.267-0.4,0.4v-0.4c-3.669-6.275,8.553-18.265,12.8-14.8c3.401-0.51,4.405-7.374,6.4-9.6
			c0.411-0.323,0.098-0.148,0.8-0.4c1.141,3.132,0.573,6.757,1.6,10.4c0.678,2.407,2.375,4.684,3.2,6.8h0.8l0.8-0.8
			c0.609-13.513-0.423-25.891,4.4-37.6c2.123-5.154,4.628-10.945,7.6-15.6c1.252-1.961,3.582-3.195,4.4-5.6h1.2
			c-1.273,6.044-1.924,13.395-5.2,17.6c0.267,0.4,0.533,0.8,0.8,1.2c2.769-0.757,9.347-8.752,11.2-11.2
			c1.867-1.866,3.734-3.733,5.6-5.6c3.778-5.102,7.219-10.285,11.2-15.2c1.404-1.733,3.543-2.866,4.8-4.8
			c0.928,0.297,0.894,0.415,1.6,0.8c1.055,4.212,2.248,11.869,0.8,17.2c-0.395,1.455-1.113,2.108-1.2,4.4h1.6
			c2.741-2.861,5.992-5.192,9.2-7.6c3.669-2.754,6.7-6.851,10.4-9.6c3.646-2.708,7.871-5.422,10.4-9.2
			c0.822,0.159,0.771,0.099,1.2,0.4c2.686,3.47,2.183,11.586,6,14.8l0.4,0.4v-0.4c2.148-0.879,1.697-3.368,3.2-4.8l0.4-0.4
			c2.394,3.809,6.544,7.521,8,12c3.542-0.34,4.203-5.603,5.2-8.4c2.156,0.574,5.282,11.47,5.2,14.8c0.133,0.133,0.267,0.267,0.4,0.4
			c0.927-0.091,1.128-0.079,1.6-0.4c2.752-0.935,5.608-7.199,6.4-10c4.446,0.664,9.123,10.314,10,15.2
			c1.606-0.214,1.906-0.255,2.4-1.6h0.8c4.892,7.352,8.683,15.891,6.4,26.8c0.133,1.333,0.267,2.667,0.4,4
			c-0.116,3.551-1.43,7.166-3.2,9.2c0.133,0.4,0.267,0.8,0.4,1.2c3.897-0.015,5.867,0.008,9.2,0.4c1.693,3.24,3.925,5.317,4.8,9.6
			c-0.303,0.43-0.251,0.37-0.4,1.2c-1.494-0.801-1.865-2.692-3.2-3.6c-2.303-1.567-7.227-1.727-9.6,0h-0.8v2
			c1.969-0.142,5.52-1.116,7.2,0c1.858,0.32,3.094,1.567,3.6,3.2c0,0,0.417,6.232,0.4,8h2c-0.291,5.079-7.271,14.268-12.8,8.8
			c-4.654,0.211-5.515,3.278-8.4,5.2c-0.79,9.516-4.526,17.665-7.6,25.2c-2.101,5.151-2.572,10.365-4.8,15.6
			c-0.933,1.466-1.867,2.934-2.8,4.4c-0.4,0.133-0.8,0.267-1.2,0.4c-1.151,1.848-0.55,4.688-1.6,6.4
			c-5.354,8.728-16.26,21.499-26,25.6c-3.201,1.348-6.781,0.996-10.4,2c-26.462,7.345-38.375-8.019-51.6-21.2
			C186.514,487.923,182.425,485.88,180.5,482.3z M265.7,537.5c-10.458,2.792-35.769,1.807-46.4-0.8
			c-5.156-1.264-11.854,0.181-16.4-0.8h-6.8c-4.884-1.225-10.78-0.711-14.4-3.2c-0.4-0.133-0.8-0.267-1.2-0.4
			c-0.016-10.078,1.581-17.81,2.4-27.2c0.339-3.886-2.348-13.98-0.8-16.8l0.4-0.4c3.282,5.083,9.872,10.395,14.8,14
			c1.6,1.733,3.2,3.467,4.8,5.2c3.966,2.974,8.653,6.234,13.2,8.4c1.2,0.133,2.4,0.267,3.6,0.4c6.567,1.711,12.826,1.201,19.2-0.4
			c4.705-1.182,9.01-0.691,13.2-2.4c10.165-4.146,21.031-16.783,26.4-26c2.324,1.128,0.751,8.347,1.6,12
			c1.585,6.815,2.596,12.955,4.4,18.8c0.976,3.164,0.363,7.152,2,9.6C285.581,533.562,271.341,535.994,265.7,537.5z M290.9,527.9
			c-0.8,0.133-1.6,0.267-2.4,0.4c-0.539-1.294-0.83-2.373-0.8-4.4c1.067,0.133,2.133,0.267,3.2,0.4l0.4,0.4
			c0.044,1.139,0.16,1.71,0.4,2.4L290.9,527.9z M184.9,383.5c6.415-1.574,8.486-7.949,14.4-9.6c0.258-0.69,0.078-0.392,0.4-0.8
			c-0.125-2.322-0.708-2.266-1.6-3.6h-2.8c-2.527,2.028-5.74,2.943-8,5.2c-1.473,1.471-2.163,3.689-3.6,5.2
			c0.042,1.013,0.049,1.482,0.4,2C184.397,382.828,184.515,382.794,184.9,383.5z M194.5,372.3h1.2c-1.351,3.802-6.201,4.964-8.4,8
			h-0.8C187.32,375.99,191.81,374.797,194.5,372.3z M252.5,407.5c1.925,1.049,5.459,0.828,7.6,0.4h4.4
			c5.931-1.647,10.884-7.798,10.8-15.6c2.965,0.77,4.092,2.903,7.2,3.2c-0.885-4.862-5.455-5.931-9.2-8
			c-4.333-2.394-15.436-9.469-18-13.2c-0.323-0.411-0.148-0.098-0.4-0.8c1.334-1.071,2.641-1.63,4.8-2
			c-0.13-0.923-0.186-0.994-0.4-1.6c-1.242-0.026-2.524-0.057-3.2,0.4c-2.601,0.258-2.321,1.393-3.6,2.8
			c0.088,3.647,2.05,5.093,4.4,6.4v1.2C244.205,382.196,242.153,401.86,252.5,407.5z M248.1,389.9c1.628-1.703,2.524-4.156,4.4-5.6
			c6.849-5.271,16.87,4.768,21.6,6.4c-0.409,1.435-2.542,8.19-4,9.2v0.4c-1.182-0.586-3.217-2.939-4-4
			c-4.201-0.054-4.287,1.112-6.4,2.8c-0.307,2.489,0.011,3.862,0.4,6C250.251,405.39,247.806,399.605,248.1,389.9z M290.9,388.7
			c2.382-0.203,2.925-1.051,4.4-2c1.453-7.477-1.812-11.62-4.4-16h-1.6c-0.024,0.084,0.008,14.99,0.4,15.6
			C289.93,388.044,290.178,387.672,290.9,388.7z M291.7,377.5c1.036,0.848,2.133,5.055,1.6,6c-0.08,1.039-0.177,1.359-0.4,2
			c-0.923-0.13-0.994-0.186-1.6-0.4C291.251,381.545,291.469,381.153,291.7,377.5z M279.7,388.7c1.039-0.08,1.359-0.177,2-0.4
			c-0.176-2.393-1.029-1.906-1.6-3.2v-3.2c-0.594-1.421-2.503-2.144-3.2-3.6c-1.191,0.179-1.35,0.202-2,0.8
			c-0.303,0.43-0.251,0.37-0.4,1.2c-4.169-0.527-5.761-4.93-9.2-6.4c-0.411-0.323-0.098-0.148-0.8-0.4
			c-0.133,0.133-0.267,0.267-0.4,0.4C264.479,380.171,276.286,384.419,279.7,388.7z M190.1,407.9c2.02,2.86,12.12,6.259,16.8,4.4
			c13.743-5.459,15.601-23.345,2.4-30.8c0.444-1.798,2.439-4.199,3.6-5.6c-0.091-0.927-0.079-1.128-0.4-1.6v-0.4
			c-2.523,0.899-3.536,4.118-5.6,5.6c-2,1.067-4,2.133-6,3.2c-4.604,3.343-8.867,7.383-14,10.4c-3.769,2.215-9.522,3.012-10.4,8
			c4.577-0.833,5.711-5.196,10.8-5.6C187.221,400.031,187.799,404.642,190.1,407.9z M190.5,393.9c0.97-1.975,3.883-2.349,5.6-3.6
			c0.933-1.067,1.867-2.133,2.8-3.2c2.165-1.61,4.827-2.592,6.8-4.4c4.75,0.469,10.522,8.243,10.4,14
			c-1.401-0.243-2.674-0.829-3.6-1.6c-4.088,0.042-4.6,1.794-6.4,4c-0.036,1.319-0.095,2.865,0.4,3.6
			c0.727,2.23,2.097,2.543,5.2,2.4c-2.098,5.902-14.522,5.531-18.8,1.6c-1.634-1.502-1.631-3.507-2.4-6
			C189.931,398.854,189.115,395.741,190.5,393.9z M202.9,375.5c-3.441,0.597-4.079,3.908-6.4,5.6c-3.029,2.208-6.145,4.386-9.2,6.4
			c-2.014,1.328-5.066,1.585-6,4h-0.4v0.8c9.628-0.295,13.482-10.193,21.2-12.8C202.482,378.069,202.886,377.51,202.9,375.5z
			 M264.9,412.7c0.258-0.69,0.078-0.392,0.4-0.8v-1.6c-10.621,2.443-13.924-1.12-20-5.2c-0.411,0.323-0.098,0.148-0.8,0.4
			C245.088,413.675,257.468,414.771,264.9,412.7z M172.5,408.7c-0.463-1.13-0.051-0.752-1.2-1.2c-1.016,4.7-3.407,15.448,0.4,18.4
			l0.4,0.4v-0.4c1.916-0.142,2.325-0.463,2.8-2c2.868-4.004-1.122-9.264-2-12C172.517,410.708,173.021,409.493,172.5,408.7z
			 M173.3,422.3h-0.8c-0.965-2.141-0.576-4.451-0.4-7.2C174.168,417.19,173.752,419.333,173.3,422.3z M214.1,411.1v-0.8h-1.6
			c-2.44,3.243-13.742,10.307-18.8,6.8c-1.33,0.003-2.38,0.115-3.2,0.4c0.13,0.923,0.186,0.994,0.4,1.6
			C201.537,423.449,208.374,416.252,214.1,411.1z M308.1,418.3c0.923-0.13,0.994-0.186,1.6-0.4c-0.034-1.989-0.074-2.298-1.6-2.8
			c-0.561-0.384-1.312-0.403-2.4-0.4l-2.8,2.8c0.159,0.822,0.099,0.771,0.4,1.2C303.772,419.371,306.342,416.372,308.1,418.3z
			 M257.7,417.5c-2.643-0.747-3.795-2.444-7.6-2.4c-0.133,0.4-0.267,0.8-0.4,1.2c3.23,2.638,8.626,5.041,12.4,1.6
			C261.048,417.203,259.226,417.931,257.7,417.5z M208.9,417.9c-2.708,2.624-8.395,3.623-12,5.2c0.08,1.039,0.177,1.359,0.4,2
			c4.978-0.73,8.143-3.405,12-5.2c0.258-0.69,0.078-0.392,0.4-0.8C209.351,417.813,209.917,418.482,208.9,417.9z M154.9,419.1
			c-0.133,0.133-0.267,0.267-0.4,0.4c0.215,1.931,0.622,3.992,1.6,5.2c0.413,0.915,0.686,0.867,1.2,1.6
			c0.69-0.258,0.392-0.078,0.8-0.4c0.654-1.073-1.698-4.84-2-6.8L154.9,419.1L154.9,419.1z M277.3,434.3
			c-0.598-0.389-1.753-0.658-3.2-0.8c-0.535,5.681-2.105,13.101,0,18c3.6,0.673,4.429-1.616,6.4-3.6
			c-0.271-3.605-2.041-5.862-2.8-8.4C276.98,437.095,278.766,436.059,277.3,434.3z M276.1,448.7h-0.8l-0.4-0.4
			c-0.023-2.74,0.11-4.961,0.8-6.8c1.174,0.931,1.143,2.352,2,3.6C277.517,447.22,276.927,447.416,276.1,448.7z M215.3,436.3v3.6
			c1.215,1.179,2.27,2.982,4,3.6c3.355,1.199,17.059,1.212,19.6-0.8c2.533-0.871,2.252-2.806,3.6-4.8
			c-0.244-1.37-0.466-1.24-0.8-2.4h-1.6c-0.106,2.376-0.743,2.954-1.6,4.4c-3.379,0.818-15.476,2.397-18.8,0
			c-1.636-0.574-2.373-2.324-2.8-4C215.977,436.03,215.906,436.086,215.3,436.3z M154.9,447.9c-0.166,4.785-2.292,7.261-3.2,11.2
			c-1.244,5.397,6.49,11.991,9.2,14c-0.304,3.141-3.454,5.846-5.6,7.2c0.066,4.111,3.117,7.12,5.6,8.8
			c-0.662,2.619-3.746,4.688-2.8,8.4c0.647,2.538,4.133,6.755,2.8,10.8c-0.421,1.277-1.728,2.083-1.6,3.2
			c0.226,1.267,0.351,1.164,0.8,2c0.923-0.13,0.994-0.186,1.6-0.4c0.504-2.471,2.066-5.694,1.2-9.2c-1.032-4.177-3.963-8.344-0.4-12
			c0.103-5.225-1.944-7.117-4.8-9.2c0.385-3.824,3.314-3.453,4.4-6.4c3.22-4.917-3.384-8.564-5.6-10.8
			c-0.926-0.935-1.461-2.279-2.4-3.2c0.087-6.52,2.506-8.885,2.4-14.4L154.9,447.9L154.9,447.9z M305.7,458.7
			c-0.08-2.582-0.779-3.12-1.6-4.8c-0.667-0.133-1.333-0.267-2-0.4c0.015,2.098,1.956,3.642,2.4,6c0.561,2.977-6.258,11.489-8,12.8
			c0.057,5.363,3.643,8.422,6.4,11.2c-0.237,2.878-3.877,7.926-3.6,9.6c0.915,5.536,6.636,10.057,2,16
			c0.13,0.923,0.186,0.994,0.4,1.6c1.039-0.08,1.359-0.177,2-0.4c0.338-1.32,2.408-5.597,2-8c-0.552-3.25-4.815-6.326-4-10
			c0.333-1.503,1.845-3.086,2.4-4.4c0.583-1.38,0.405-2.567,1.2-3.6c-0.159-3.151-4.572-8.053-6.4-10
			C299.305,469.995,308.247,462.796,305.7,458.7z M217.3,478.7c-1.663,2.537-4.315,4.703-4.4,8.8c3.917-0.525,6.415-4.647,10-6
			c4.061-1.533,8.806-2.214,12.8-3.2c2.133-0.133,4.267-0.267,6.4-0.4c3.378-1.258,5.271-4.451,7.6-6.8
			c-0.053-4.431-1.607-5.745-3.2-8.4C229.37,458.162,224.133,468.275,217.3,478.7z M234.9,475.9c-5.191,1.242-13.825,2.694-16.8,6.4
			h-0.8c0.865-3.011,3.106-4.657,4.4-7.2c1.875,0.176,5.764,0.024,7.6-1.2c4.685,0.012,7.996,0.497,11.6,1.2
			C239.332,476.214,237.275,475.332,234.9,475.9z M247.3,470.7c-0.547,1.651-1.91,2.722-3.6,3.2c-0.246,0.284-3.177-1.119-4.4-1.6
			c-3.716-1.462-11.133-2.103-14.4,0.4h-0.8c1.021-2.936,5.775-7.034,8.8-8c1.381-0.441,3.035,0.17,4-0.4
			c2.266,0.133,4.534,0.267,6.8,0.4c1.333,1.333,2.667,2.667,4,4C247.658,469.713,247.651,470.182,247.3,470.7z M210.9,478.3v2.8
			h0.8c1.428-5.175,5.766-8.738,6.4-14C213.574,467.718,212.974,474.988,210.9,478.3z M309.7,502.3c0.816,1.922,0.375,2.175,2.4,2.8
			c0.411,0.323,0.098,0.148,0.8,0.4c0.133-0.267,0.267-0.533,0.4-0.8c0.323-0.411,0.148-0.098,0.4-0.8
			c-1.072-1.106-1.569-2.642-2.8-3.6c0.024-4.019,3.175-5.303,2-9.6c-1.151-4.212-6.797-10.919-1.6-14.4
			c-0.242-1.247-0.069-0.973-0.8-1.6c-0.267,0.267-0.533,0.533-0.8,0.8c-1.742,0.689-3.8,4.467-2.8,7.6
			c0.289,0.905,1.623,2.035,2,2.8c1.078,2.191,0.838,4.801,2,6.8C310.278,497.363,307.466,497.034,309.7,502.3z M148.9,479.5v-1.2
			c-4.561,0.474-5.946,6.767-8,10c0.012,6.004,5.049,7.025,9.2,8.8c-0.42,4.07-3.081,5.812-4,9.2l3.2,3.2
			c0.137,1.783-0.006,3.735-1.2,5.2c0.369,1.079,0.687,1.171,1.2,2h0.8c0.971-2.382,1.688-4.006,1.6-7.6
			c-0.896-0.854-1.41-2.035-2.4-2.8c0.349-4.127,2.822-5.096,2.8-10c-0.466-0.448-0.73-1.625-1.2-2
			c-1.434-1.146-3.973-0.698-5.6-1.6c-1.043-0.578-1.452-2.071-2.4-2.8C142.985,485.505,146.2,481.357,148.9,479.5z M229.3,484.3
			c-2.133,1.067-4.267,2.133-6.4,3.2c0.182,1.424-0.21,1.014,0.8,1.6c1.386,0.516,11.87-3.572,15.2-4
			c0.734-1.457,1.245-1.335,0.4-2.4C236.736,484.487,232.829,483.308,229.3,484.3z"/>
	</g>
</g>
</svg>
