<?xml version="1.0" encoding="utf-8"?>
<!-- Generator: Adobe Illustrator 21.0.0, SVG Export Plug-In . SVG Version: 6.00 Build 0)  -->
<svg version="1.1" id="Calque_1" xmlns="http://www.w3.org/2000/svg" xmlns:xlink="http://www.w3.org/1999/xlink" x="0px" y="0px"
	 viewBox="0 0 841.9 595.3" style="enable-background:new 0 0 841.9 595.3;" xml:space="preserve">
<style type="text/css">
	.st0{fill:#DADADA;}
</style>
<ellipse class="st0" cx="407.9" cy="438.3" rx="114.9" ry="11.7"/>
<g>
	<g>
		<path d="M477.4,233.5c0.1,0.1,0.4,0,0.6-0.1h0.4c0-0.2,0.1-0.4,0.1-0.6c0.2-0.4,0.8-0.7,1.2-1c0.1-0.1,0.1-0.4,0.3-0.4
			c0.3-0.2,0.6-0.1,0.9-0.4c0.4-0.4,0.9-0.9,1.5-1.2c0.4-0.2,1.6-0.4,1.8-0.5c0.1-0.1,0.1-0.4,0.2-0.4c0.2-0.2,0.5-0.1,0.7-0.3
			c0.5-0.4,1.6-1.5,1.8-2.2h0.3c0.1-0.4,0.4-0.5,0.5-0.9c0.2-0.6,0.3-1.7,0.2-2.7c-0.2-0.1-0.3-0.2-0.5-0.3c-0.2-0.2-0.7-0.1-0.9,0
			c-0.4,0.1-0.9,0.1-1.3,0.2c0,0.1-0.1,0.2-0.1,0.3c-0.2,0.2-0.5,0.1-0.7,0.3c-0.3,0.2-0.6,0.6-0.9,0.9c-1,0.8-2.1,1.9-2.8,2.9
			c-0.2,0.3-0.3,0.7-0.4,1c-0.2,0.2-0.6,0.4-0.7,0.6c-0.4,0.7-0.8,1.3-1.2,1.9c-0.1,0.1-0.4,0.2-0.4,0.4c-0.4,0.6-0.9,1.9-1.4,2.6
			c0,0.3,0,0.5,0.1,0.6C476.9,234,477.1,233.7,477.4,233.5z M483.9,225.1c0.4-0.3,1.1-0.6,1.4-1c0.5,0,0.6,0,0.7,0.4
			c0.1,0.2-0.1,0.8-0.3,1.1c-0.1,0.1-0.3,0.2-0.4,0.3c-0.3,0.4-0.5,1-0.9,1.3c-0.4,0.4-2.4,1.5-3.1,1.5
			C481.4,227.8,483.3,225.6,483.9,225.1z M379.1,240.2c0.6,0.7,0.8,1.9,1.6,2.3c0.8,0.5,1.9,0.7,2.5,1.3c0.5,0.5,0.4,1.2,0.7,1.9
			c0.4,0.9,0.9,2,1.4,2.8c0.6,0,0.7-0.2,1.2-0.3c0-0.9-0.1-1.6-0.3-2.3c-0.1-0.5,0.1-1.1,0.1-1.5c-0.1-1-0.2-2.6-0.7-3.6
			c-0.2-0.5-0.7-1-1-1.5c-0.4-0.6-0.4-1.8-1.1-2.1c-0.2,0-0.4-0.1-0.6-0.1c-0.3-0.1-0.5-0.5-0.7-0.6c-0.5-0.3-1.9-0.4-2.8-0.4
			c-0.3,0.3-0.6-0.1-1.1,0.1c-0.5,0.2-1.1,0.7-1.5,1C377,238.9,378.3,239.2,379.1,240.2z M378.9,237c1.8-0.4,3.5,0.4,4.4,1.9
			c0.3,0.5,0.3,1,0.6,1.6c0.4,0.9,0.8,1,0.6,2.1c-0.6-0.1-0.8-0.5-1.2-0.7h-0.7l-0.3-0.3c-0.2,0-0.4-0.1-0.5-0.1
			c-0.6-0.4-1-1.4-1.4-2c-0.6-0.8-1.4-0.6-1.8-2C378.7,237.4,378.8,237.2,378.9,237z M331.6,247.9c0.5,0.1,1.3-0.2,2,0
			c0.6,0.2,1.7,0.6,2.2,0.5c0-0.1,0.1-0.1,0.1-0.2c0.6-0.1,1.9,0.2,2.9,0c1.7-0.4,5.5-0.1,6.5,1.2c1.1,0,0.7-0.1,1.3-0.4
			c0.4-0.1,0.8,0.1,1,0c0.4,0,0.6,0,0.8-0.2c-0.2-1.1-3.5-1.5-4.5-2c-0.8-0.4-1.2-1.1-1.9-1.6c-0.6-0.5-1.8-0.7-2.7-1.1
			c-0.5-0.2-1-0.7-1.5-0.9c-1.8-0.7-3.5-1-6-0.9c-0.4,0.3-0.7,0-1.2,0.3c-0.5,0.3-0.9,0.8-1.4,1.2
			C329.1,246.1,329.7,247.4,331.6,247.9z M330.8,243.9c0.4-0.5,1.1-0.4,1.6-0.7c0.3,0,0.8,0.2,1,0.3c0.1,0,0.3-0.1,0.5-0.1
			c0.8,0.2,1.4,0.2,2.1,0.4c0.2,0,0.5,0.1,0.7,0.1c0.6,0.3,1.4,0.8,2,1.1c0.4,0.1,0.8,0.2,1.2,0.3c0.4,0.2,0.7,0.7,1.2,0.9
			c0,0.2,0,0.2,0.1,0.3v0.2c-2.8,0.1-4.6,0.6-7.6-0.1c-0.8-0.2-1.6,0.2-2.2-0.2c-0.5-0.2-0.8-0.8-0.9-1.2
			C330.4,244.8,330.6,244.1,330.8,243.9z M390.6,291.9c0.1,0.5-0.1,1.1,0,1.4c0.9,4,1.7,8.5,2.7,12.4c0.3,1.2,0.2,2.1,0.5,3.2
			c0.6,2,1,4.1,1.1,6.5c-0.1,1.2-0.2,2.4-0.4,3.6c-0.2,0.7-0.6,0.8-0.4,1.6c0.1,0.6,0,0.9,0.3,1.2c0.1,0.2,0.1,0.1,0.3,0.3
			c0.5,0,0.5-0.1,0.7-0.3c0-3.2,1.1-5.8,0.4-8.9c-0.1-0.5,0.2-0.8,0.2-1.1c-0.4-2-1.2-4.5-1.9-6.6c0-0.4-0.1-0.9-0.1-1.3
			c-0.4-1.2-0.7-2.7-1-3.8c-0.1-0.5-0.1-0.9-0.2-1.4c-0.1-0.1-0.3-0.4-0.4-0.6c-0.1-0.3,0.1-0.3,0.2-0.4c-0.1-0.2-0.1-0.7-0.1-0.8
			c-0.6-2.4-0.7-5.3-1.3-7.7c0-1.4-0.1-2.8-0.1-4.2l0.2-0.4c0-0.3-0.2-1.2-0.2-1.5c0.1-0.4,0.4-1,0.3-1.5c0-0.2-0.2-1.3-0.1-1.6
			c0.1-0.3,0.4-1.2,0.4-1.6c-0.3-1.8,0.2-4,0.7-5.5c0.2-0.6,0-1.2,0.1-1.7l0.2-0.3c0-0.2-0.1-0.4-0.1-0.5c0,0,0.4-0.3,0.4-0.4
			c0.1-0.3,0.1-1.3,0.2-1.3c0.1,0,0.2-0.1,0.3-0.1c0.1-0.3-0.1-0.8,0-1.2c0.1-0.3,0.3-0.5,0.4-0.7c0.2-0.4,0.2-0.9,0.4-1.2
			c0,0,0.1-1.2,0.2-1.4c0.1-0.1,0.4-0.2,0.4-0.4c0.2-0.5,0-0.9,0.2-1.4c0.1-0.3,0.5-0.6,0.6-0.9c-0.2-0.7,0.8-1.8,1.1-2.4
			c0.1-0.2,0-0.6,0-0.6h0.2c0.2-0.3,0.2-0.8,0.4-1.2c0.1-0.2,0.4-0.4,0.4-0.5c0.1-0.3,0.1-0.5,0.2-0.8c0.1-0.1,0.3-0.3,0.4-0.4
			c0-0.2,0.1-0.4,0.1-0.6c0.5-0.7,0.8-1.4,1.3-2.1c0.1-0.1,0.3-0.2,0.4-0.4c0-0.1-0.1-0.2-0.1-0.3c0.1-0.2,0.5-0.2,0.6-0.4
			c0.1-0.2,0.2-0.8,0.4-1c2-2.3,4-3.6,7.8-4.4c0.4-0.1,0.7,0.1,1.2,0.1c0.1-0.3,0.2-0.5,0.4-0.6c0-0.4-0.1-0.5-0.3-0.7
			c-0.4-0.1-0.8-0.1-1.2-0.2c-0.5,0.3-1.3,0.3-1.8,0.6c-0.3-0.1-0.3-0.1-0.4-0.4c-0.3,0.1-0.2,0.5-0.4,0.6h-0.6
			c-0.3,0.2-0.7,0.6-1.1,0.8c-0.4,0.2-0.8,0.2-1.2,0.4c-1,0.9-1.9,1.8-2.8,2.9c-0.1,0.1-0.3,0.2-0.4,0.3v0.3
			c-0.1,0.1-0.3,0.1-0.4,0.2c-0.1,0.1-0.8,1-0.9,1.2c-1.2,2.3-2.3,4.5-3.4,6.9c-0.8,1.7-1.6,3.7-2.4,5.5v0.7
			c-0.1,0.4-0.2,0.8-0.4,1.2c-0.2,0.8-0.6,1.7-0.9,2.5v0.8c-0.4,1.4-0.7,3.2-1.2,4.6v1.2c-0.2,1-0.4,2-0.5,3c0,0.3,0.1,0.7,0.1,1
			c-0.3,1.5-0.5,4.4-0.4,5.7c0,0.8-0.1,1.6-0.1,2.4C390.3,288.7,390.3,290.6,390.6,291.9z M423.4,283.3v0.4
			c-0.1,0.3-0.5,0.5-0.6,0.7c-0.4,0.6-0.4,1.3-0.8,2c-0.8,1.4-1.7,2.9-2.5,4.2c-0.3,0.4-0.3,1.1-0.5,1.6c-0.3,0.7-0.9,1.5-1.2,2.2
			c-0.4,0.8-0.4,1.7-0.8,2.5c-0.4,0.9-1,2-1.4,2.8c-0.1,0.4-0.2,0.8-0.3,1.2c-0.6,1.6-1.4,3.4-2,5c-1.8,5-2.4,10.8-3.8,16.4
			c0,0.5-0.1,1-0.1,1.5c-0.2,0.6-0.3,1.1-0.4,1.7c-0.1,0.5,0.1,1-0.1,1.6c-0.2,0.6-0.2,1.5-0.4,2.1v1.6c-0.8,2.5-0.5,6-0.6,8.9
			c-0.1,2.6-0.7,5.6-0.1,8.4c0.2,0.7-0.1,1.7,0,2.2c0.1,0.7,0.2,1.6,0.4,2.6c-0.1,0.4-0.1,0.8-0.2,1.2c0,0,0.8,1.3,0.9,1.4v0.1
			c1.5-0.7,0.2-3.9,0.4-5.4c0.2-1,0-3.3-0.3-4.4c-0.3-1.5,0.4-3.4,0.2-4.8c-0.1-0.5,0.1-1.1,0.1-1.6c0.1-1.5-0.1-3.5,0.2-4.9
			c0.1-1,0.1-2,0.2-2.9c0.2-0.7,0-1.7,0.3-2.6c0.2-0.6,0.5-1.8,0.4-2.4c0-0.2-0.2-0.5-0.1-0.8l0.3-0.3c0.1-0.3-0.2-1-0.1-1.2h0.2
			c0,0,0.1-0.4,0.1-0.4c0-0.3-0.1-0.5-0.1-0.8c0.5-1,0.7-2.8,1-4c0-0.4,0.1-0.8,0.1-1.2c0.3-1,0.5-2.2,0.7-3.2c0-0.5,0.1-1,0.1-1.5
			c0.1-0.1,0.2-0.1,0.3-0.2c0.1-0.6,0.2-1.2,0.3-1.9c0-0.1,0.2-0.3,0.3-0.4c0-0.3,0.1-0.6,0.1-0.9c0,0,0.2-0.1,0.3-0.2
			c0-0.4,0.1-0.8,0.1-1.2c0.2-0.7,0.6-1.6,0.9-2.3c0-0.3,0.1-0.7,0.1-1c0.2-0.5,0.6-1.2,0.9-1.7c0.3-0.7,0.3-1.5,0.6-2
			c0.1,0,0.2-0.1,0.3-0.1v-0.5c0.1-0.5,0.4-1,0.6-1.4c0.1-0.3,0.1-0.7,0.2-1l0.4-0.4c0.1-0.3,0.1-0.6,0.2-0.9
			c0.1-0.1,0.3-0.3,0.4-0.4v-0.4c0.2-0.6,0.4-1.2,0.7-1.9c0.1-0.3,0.6-0.8,0.7-1.2v-0.4c0.1-0.1,0.3-0.2,0.4-0.4v-0.4
			c0.2-0.4,0.5-0.8,0.7-1.1c0.2-0.3,0.1-0.6,0.3-1.1c0.1-0.2,0.3-0.7,0.4-0.9c0.1-0.1,0.3-0.1,0.4-0.2c0-0.2,0.1-0.4,0.1-0.6
			c0.2-0.4,0.6-0.9,0.9-1.2c0.1-0.3,0.1-0.5,0.2-0.8c0.4-0.7,1-1.4,1.4-2.1c0.1-0.2,0-0.5,0.2-0.7c0.1-0.1,0.3-0.1,0.4-0.2
			c0.2-0.2,0.1-0.8,0.3-1.1c0.1,0,0.5-0.3,0.7-0.4c0.1-1.1,2-3.4,2.7-4.2c0.3-0.4,0.4-0.9,0.7-1.3c0.4-0.5,1.2-1.2,1.5-1.7
			c0.1-0.2,0.1-0.4,0.2-0.6c1-1.6,2.5-2.9,3.4-4.5h0.4c0-0.4,0.3-1.2,0.6-1.4c0.2-0.1,0.3,0,0.4-0.2c0.3-0.4,0.4-0.9,0.9-1.2v-0.4
			c0.8-0.2,0.8-0.8,1.2-1.3c0.4-0.5,1-1,1.3-1.5v-0.4c0-0.1,0.9-1.3,1-1.4c0.3-0.3,0.6-0.4,0.8-0.8h0.3c0.1-1,0.9-1,1.1-2h0.4v-0.3
			c0.6-0.5,0.9-1.3,1.5-1.9c0.5-0.5,1.2-0.6,1.7-1c0.1-0.1,0.1-0.3,0.2-0.4c0.3-0.1,0.6-0.2,0.9-0.3c0.2-0.2,0.4-0.6,0.6-0.7
			c0.4-0.1,0.8-0.1,1.2-0.2c0.1-0.1,0.3-0.4,0.4-0.4c0.6-0.4,1.3-0.5,1.9-0.9c0.3-0.3,0.6-0.7,0.9-1c0.3-0.1,0.7-0.2,1-0.4
			c0.3-0.2,0.4-0.6,0.7-0.9c0.1-0.1,0.4-0.2,0.5-0.4c0.5-0.7,0.6-1.6,0.5-2.6c-0.3-0.3-0.4-0.7-0.8-0.8c-0.2-0.1-1.3-0.1-1.7,0.1
			c-1.6-0.2-3,2-3.9,2.9c-0.6,0.6-1.3,1.2-1.9,1.8c-0.3,0.3-0.4,0.8-0.7,1.1c-0.1,0.1-0.3,0.1-0.4,0.2c-0.6,0.8-1,1.6-1.7,2.3
			c-0.1,0-0.2,0.1-0.4,0.1c-0.3,0.4-0.5,1.1-0.8,1.5c-1,1.1-1.7,2.3-2.6,3.5c-0.2,0.2-0.4,0.4-0.6,0.5c-0.4,0.6-0.7,1.5-1.2,2
			c-0.3,0.4-0.9,0.7-1.2,1.2c-0.1,0.2,0,0.4-0.2,0.6c-0.2,0.2-0.6,0.3-0.8,0.5c0,0.2-0.1,0.4-0.1,0.5c-0.1,0.2-0.4,0.2-0.5,0.4
			c-0.2,0.3-0.3,0.7-0.5,1c-0.1,0.1-0.2,0.1-0.4,0.2c-0.4,0.5-0.6,1-0.9,1.5c-0.3,0.4-0.8,0.8-1.1,1.2c-1.1,1.5-2,3.2-3.2,4.6
			L429,275c-0.2,0.2-0.2,0.5-0.4,0.8c-0.7,1-1.7,2-2.3,3c-0.2,0.3-0.3,0.8-0.5,1.1c-0.1,0.1-0.4,0.1-0.5,0.3c-0.2,0.2,0,0.4-0.2,0.7
			c-0.1,0.3-0.6,0.6-0.7,0.9c-0.2,0.3-0.2,0.6-0.4,0.9L423.4,283.3z M486.6,254.8c-0.2,0.1-0.3-0.1-0.4-0.1
			c-0.3,0.1-0.6,0.6-0.9,0.7l-0.8,0.3c-0.7,0.4-1.7,1.6-2.5,1.9c-0.1,0.1-0.1,0.1-0.4,0.1c-0.2,0.9-1.2,1.3-1.6,2
			c-0.1,0.3-0.2,0.5-0.3,0.8c-0.2,0.2-0.9,0.8-0.7,1.3c0.1,0.1,0.3,0.4,0.4,0.5c0.2,0,0.2,0,0.3-0.1c0.7-0.1,0.9-0.6,1.2-1.1
			c0.4,0,0.6,0.3,1,0.2c0.7-0.2,1.4-1,2.1-1.4c0.2,0,0.5-0.1,0.7-0.1c0.1-0.1,0.1-0.2,0.2-0.3c0.7-0.4,1.3-0.4,2.1-0.6
			c0.4-0.1,0.9-0.5,1.3-0.6c0.4-0.1,0.7,0,1.2-0.2c0.1-0.1,0.2-0.2,0.3-0.4c0.3-0.2,0.6-0.1,0.8-0.3c0.1-0.1,0.1-0.3,0.2-0.4
			c0.4-0.3,0.6,0,1-0.2c0.4-0.2,1.2-0.8,1.4-1.2c0.6-1-0.2-1.7-0.4-2.4c-0.6-0.1-1.8-0.6-2.4-0.4c-0.5,0.2-1.3,0.4-1.8,0.6
			c-0.2,0.1-0.4,0.5-0.6,0.5c-0.2,0-0.4-0.1-0.6-0.1C487.2,254,486.8,254.7,486.6,254.8z M483.5,258.4v0.2h-0.1
			c0-0.1,0.1-0.2,0.1-0.4h0.1C483.6,258.4,483.5,258.4,483.5,258.4z M488.8,254.8c0.2,0,0.4-0.1,0.6-0.1l0.4-0.4
			c0.3-0.1,0.8,0,1-0.1c0.3,0,0.4,0.1,0.5,0.2c0.3,0.1,0.4,0.3,0.3,0.5c-0.2,0.5-1.7,1.3-2.2,1.5c-0.3,0-0.6,0.1-0.9,0.1
			c-0.3,0.1-0.7,0.5-1.1,0.6c-1,0.4-2,0.5-2.8,1.1c-0.4,0-0.5,0-0.6-0.2c-0.1-0.1,0,0-0.1-0.2c1.2-0.9,2.1-1.4,3.6-2.2
			C487.9,255.4,488.3,255,488.8,254.8z M410.4,269.1c-0.2,0.5-0.7,1.1-0.9,1.6c0,0.2-0.1,0.5-0.1,0.7c-1,2.1-1.5,4.8-2.2,6.9v0.6
			c-0.1,0.5-0.3,1-0.4,1.4v0.6c-1.4,4.9-2.7,10.1-3.6,15.2c0,0.2,0.1,0.4,0.1,0.6c-0.3,1.4-0.4,3.2-0.7,4.7v5.2
			c-0.5,2.1-0.3,3.9-0.2,6.2c0.1,1.7-0.4,3-0.2,4.4c0,0.4-0.1,0.8-0.1,1.2c0.1,0.5,0.5,0.9,0.6,1.3c0,0.2,0.1,0.4,0.1,0.6
			c0.4,0.4,0.8-0.3,1.2-0.4c0.1-0.6,0.1-1.4,0.4-1.9c0.2-0.4,0.7-0.2,0.8-1.1c0.1-0.4-0.1-1.2-0.1-1.5c0-0.2,0.4-0.7,0.4-0.9
			c0.1-0.3,0-0.9,0.2-1.4c0-0.1,0.3-0.4,0.4-0.5V312c0.2-0.8,0.5-1.3,0.6-2.1c0.1-0.4-0.1-1.1,0.1-1.7c0-0.1,0.3-1,0.4-1.2
			c0.1,0,0.2-0.1,0.3-0.1c0-0.3,0.1-0.5,0.1-0.8c0.4-1,0.8-2.3,1.3-3.3c0.4-0.8,0.2-1.5,0.5-2.4c0.2-0.5,0.8-0.9,1-1.3
			c0.2-0.3,0-0.6,0.2-0.9c0.3-0.7,0.8-1.5,1.2-2.2c0.2-0.6,0.2-1.1,0.4-1.6c0.3-0.6,0.8-1.3,1-2c0-0.1-0.2-0.2-0.1-0.4
			c0-0.1,0.3-0.2,0.4-0.3c0.1-0.3,0.1-0.5,0.2-0.8c0.1-0.1,0.2-0.2,0.4-0.3c0.2-0.4,0.1-1,0.4-1.4c0.1-0.2,0.5-0.4,0.6-0.6v-0.5
			c0.1-0.1,0.3-0.2,0.4-0.4c0.2-0.3,0.1-0.6,0.3-0.9c0.1-0.1,0.3-0.2,0.4-0.3c0.2-0.2,0-0.5,0.2-0.7h0.2c0-0.2,0.1-0.4,0.1-0.6
			c0.2-0.4,0.7-1.1,0.9-1.4v-0.6c0.1-0.1,0.4-0.2,0.4-0.3c0.2-0.3,0.3-0.6,0.5-0.9c0.1,0,0.2-0.1,0.3-0.1c0.1-0.3,0.1-0.5,0.2-0.8
			c0.3-0.6,1.1-1.1,1.3-1.7c0-0.3,0.1-0.6,0.1-0.9c0.1-0.1,0.3-0.2,0.4-0.3c0.1-0.2,0.1-0.5,0.2-0.7l0.4-0.4
			c0.3-0.6,0.2-1.1,0.4-1.7c0.1-0.3,0.6-0.7,0.7-1c0.2-0.5,0.1-0.9,0.4-1.4c0.2-0.5,0.7-1.4,0.9-2c0-0.7,0.1-1.4,0.1-2
			c0.3-1.1,0.7-2.7,0.4-3.9c-0.3-1.7-0.5-3.7-2-4.2c-0.9-0.4-2.4,0.5-3.1,0.9c-0.3,0.1-1.1,0.1-1.6,0.4c-0.5,0.3-0.8,1-1.2,1.2
			c-0.1,0-0.4-0.1-0.6,0.1c-0.3,0.2-0.5,0.6-0.8,0.7c-0.4,0.2-0.7,0.2-1,0.4c-0.4,0.3-0.5,0.7-0.8,1.1c-0.1,0.1-0.4,0.1-0.5,0.3
			c-0.6,0.8-1.3,1.5-1.9,2.3C410.5,268.7,410.4,268.9,410.4,269.1z M412.4,268.4c0-0.1,0.1-0.2,0.1-0.4h0.3c0.1-0.1,0.2-0.3,0.3-0.4
			h0.3c0-0.1,0.1-0.3,0.1-0.4c0.1-0.2,0.9-0.7,1.1-0.9c0.4-0.4,1.5-0.7,1.9-1.1c0-0.1,0.1-0.2,0.1-0.4c0.5-0.5,1.6-0.6,2-1.2h0.5
			c0.1,0.2,0.1,0.2,0.2,0.4c-0.2,0.4-0.7,0.4-1,0.7c-0.3,0.4-0.6,0.9-0.9,1.3c-0.3,0.3-0.7,0.7-1,1c-0.1,0.2,0,0.4-0.2,0.5
			c-0.1,0.1-0.4,0.1-0.5,0.3c-0.1,0.2-0.1,0.5-0.2,0.7c-0.4,0.6-0.9,1.4-1.4,2c-0.2,0.3-0.2,0.7-0.4,1.1l-0.5,0.5v0.4
			c0,0-0.3,0.3-0.4,0.4v0.4c-0.2,0.4-0.7,0.8-1,1.2c-0.3,0.6-0.4,1.3-0.8,2l-0.6,0.6c-0.1,0.3-0.2,0.7-0.3,1c-0.2,0.5-0.6,1-0.8,1.5
			c0,0.2-0.1,0.4-0.1,0.6c-0.7,1.2-1.6,3.6-1.9,5.6h-0.2c-0.1-1.1,0.3-2.3,0.7-3.3c0-0.4,0.1-0.7,0.1-1.1c0.3-1,0.6-2.2,0.9-3.2
			c0.1-0.2-0.1-0.4-0.1-0.5c0.1-0.4,0.4-1,0.5-1.4v-0.7c0.1-0.3,0.4-0.7,0.5-1.1V274l0.4-0.4c0-0.3,0.1-0.6,0.1-0.9
			C410.9,271,411.5,269.8,412.4,268.4z M356.7,269.1c0.3,0.2,0.7,0.3,1,0.5c0.2,0.2,0.4,0.5,0.5,0.7c0.4,0.3,0.8,0.4,1.2,0.7
			l0.7,0.7c1.2,0.7,2.7,1.2,4,1.8c0.2,0,0.5,0.1,0.7,0.1c1.3,0.6,2.6,1.6,3.9,2.1c1.3,0.6,2.6,0.9,3.8,1.6c0.3,0.1,0.5,0.6,0.8,0.7
			c0.4,0.2,0.8,0.2,1.2,0.4c1.1,0.9,2.2,1.9,3.4,2.8c0.3,0.4,0.7,0.8,1,1.2c0.6,0.4,1.4,0.7,1.8,1.2c0.1,0.2,0,0.5,0.2,0.7
			c0.1,0.1,0.2,0,0.4,0.1c0.4,0.3,1,1.1,1.2,1.5c0.6,1.3,1,2.6,1.8,3.7c0.6,0.9,1.6,1.7,2,2.7c0.3,0.7,0.3,1.6,0.6,2.2
			c0,0,0.2,0.1,0.3,0.2v0.4c0.2,0.4,0.8,0.7,1.1,1c0.3-0.1,0.4-0.1,0.6-0.3c0-0.9-0.3-1.2-0.4-1.7c0-0.3,0.1-0.6,0.1-0.9
			c-0.5-1.8-1.3-3.6-2-5.2c-0.2-0.5-0.1-0.9-0.3-1.4c-0.1-0.1-0.3-0.4-0.4-0.5c0-0.3-0.1-0.6-0.1-0.9c-0.3-0.7-0.9-1.5-1.2-2.2
			c-0.1-0.3,0-0.5-0.2-0.7l-0.5-0.5c-0.1-0.3-0.1-0.7-0.2-1c-0.6-1.2-1.1-2.5-1.8-3.6c-0.2-0.3-0.7-0.6-0.9-1
			c-0.2-0.3-0.2-0.6-0.4-0.9c-0.4-0.6-1.2-0.9-1.6-1.5c-0.1-0.2-0.1-0.4-0.3-0.6l-0.4-0.2c-0.6-0.7-1.1-1.3-1.7-2
			c-0.3-0.4-0.8-0.6-1.1-0.9c-3.7-4-7.6-8.2-14.6-8.9c-0.6,0.3-1.8,0.1-2.5,0.4c-1.2,0.5-4.6,2.3-4.1,4.3
			C354.8,266.8,356,268.6,356.7,269.1z M356,264.5c0.2-0.2,0.4-0.6,0.7-0.8c0.3-0.2,0.7-0.1,1-0.4h0.3c0.1,0.1,0.1,0.1,0.3,0.2
			c-0.1,2.8,0.9,2.6,2.1,4.2c1.2,1.5,2.9,2.2,4.5,3.3c0.1,0.1,0.2,0.3,0.4,0.4c0.3,0.1,0.5,0.2,0.8,0.3c0.8,0.5,1.7,1.2,2.5,1.7
			c0.4,0.3,0.8,0.2,1.3,0.4c0.2,0.1,0.4,0.4,0.6,0.5c0.3,0.2,0.6,0.2,1,0.4l0.7,0.7v0.1c-0.6-0.1-0.8-0.3-1.2-0.5
			c-0.4-0.1-0.7-0.1-1.1-0.2c-0.1-0.1-0.3-0.3-0.4-0.4c-0.7-0.3-1.3-0.4-2-0.8c-0.3-0.2-0.6-0.6-0.9-0.7c-0.8-0.4-1.8-0.7-2.7-1.1
			c-0.4-0.1-0.7,0-1-0.2c-1.1-0.5-2.3-1.2-3.3-1.9c-0.4-0.3-0.7-0.8-1.2-1.1C356.9,267.5,356,267.2,356,264.5z M449.5,274.3
			c-0.3,0.1-0.6,0.1-0.9,0.2c-0.1,0.1-0.1,0.4-0.3,0.4c-0.2,0.1-0.4,0.1-0.5,0.3v0.2h-0.4c-0.1,0.1-0.3,0.4-0.4,0.4h-0.5
			c-0.6,0.3-1,1-1.5,1.3c-0.7,0.6-1.5,1-2.2,1.6c-0.3,0.3-0.5,0.8-0.9,1.1c-0.5,0.3-0.9,0.7-1.3,1.1c-0.4,0.4-0.4,0.9-1.1,1
			c-0.1,0.7-0.8,0.9-1.2,1.3c-0.7,1-1.5,1.8-2.4,2.7c-0.2,0.2-0.3,0.7-0.5,0.9c-0.1,0.1-0.4,0.1-0.5,0.2c-0.1,0.2-0.1,0.4-0.2,0.6
			c-0.3,0.4-0.7,0.7-1,1.1c-0.4,0.6-0.6,1.3-1.1,1.9c-0.2,0.3-0.6,0.4-0.8,0.6c-0.2,0.2-0.1,0.5-0.3,0.7c-0.3,0.4-0.7,0.9-1,1.3
			c-0.2,0.4-0.3,0.8-0.5,1.2c-0.6,0.9-1.5,2-1.8,3.1c-0.1-0.1-0.1-0.1-0.2-0.2c-0.3,0.2-0.1,0.7-0.3,1.1c-0.2,0.5-0.7,1-0.9,1.4
			c-0.3,0.5-0.2,1-0.4,1.6c-0.3,0.7-0.8,1.5-1.1,2.2c0,0.3-0.1,0.6-0.1,0.9c-0.1,0.4-0.5,0.7-0.6,1.2c-0.2,0.7-0.1,1-0.4,1.7
			c-0.3,0.8-0.7,1.8-1,2.6v0.5c-0.1,0.3-0.4,0.6-0.5,0.9v0.8c-0.2,0.5-0.5,1.3-0.6,1.9c0.3,0.3,0.3,0.7,0.5,1c0.2,0.2,0.6-0.4,1-0.4
			c0-1.5,1.6-5,2.2-6c0.1-0.4,0.2-0.8,0.3-1.2c0-0.1,0.3-0.1,0.4-0.2c0.2-0.2,0.4-1.3,0.4-1.4c0.3,0,0.3-0.1,0.4-0.4
			c0.3,0.1,0.2,0.1,0.4,0.4h0.2c-0.1-0.2-0.1-0.4-0.3-0.5c0.1-0.9,2.1-3.7,2.7-4.3c0.1-0.1,0.5-0.1,0.6-0.3c0-0.2,0.1-0.4,0.1-0.6
			c0.4-0.6,1.1-1,1.5-1.6c0-0.1,0.1-0.3,0.1-0.4c0.2-0.4,0.9-0.4,1.2-0.7c0.2-0.2,0.4-0.6,0.6-0.8c0.3-0.2,0.7-0.3,0.9-0.5
			c0.3-0.4,0.4-1,0.8-1.2c0.6-0.4,1.3-0.8,1.8-1.3c0.2-0.3,0.4-0.6,0.6-0.9c0.2-0.2,0.5-0.2,0.7-0.4c0.2-0.2,0.2-0.5,0.4-0.6
			c0.3-0.2,0.6-0.2,1-0.4c0.5-0.3,0.7-0.8,1.3-1c0.1-0.1,0.2-0.1,0.4,0.1c0.3-0.2,0.2-0.5,0.4-0.7c0.3-0.2,0.7-0.3,0.9-0.3
			c0.5-0.4,0.9-0.9,1.7-0.8c0.1-0.5,0.5-0.7,0.9-1c1-0.8,1.9-1.8,3-2.4c0.4-0.2,1.2-0.3,1.3-0.2c0.4-0.1,0.3-0.4,0.5-0.6
			c0.3-0.2,1.1-0.3,1.2-0.4c0.2-0.1,0.2-0.6,0.4-0.7c0.3-0.3,0.9-0.3,1.2-0.5c0.2-0.2,0.6-0.8,0.8-1c0.2,0,0.4-0.1,0.6-0.1
			c0.2-0.2,0.1-0.5,0.2-0.7c0.3-0.7,1-1.2,1.3-1.9c0-0.5,0.1-0.9,0.1-1.4c0.1-0.4,0.2-1.4,0.2-1.6c-0.2-0.9-1.9-3-2.8-3.3
			C453.1,271.9,450.3,273.9,449.5,274.3z M453.7,275c-0.1,0.2-0.3,0-0.5,0.1c-0.3,0.1-0.5,0.6-0.7,0.7c-0.3,0.2-0.7,0.1-1,0.3
			c-0.3,0.3-0.5,0.5-0.8,0.8c-0.2,0.1-0.4,0-0.6,0.2c0,0.1-0.1,0.2-0.1,0.3c-0.9,0.6-1.6,1.4-2.4,2c-0.2,0.2-0.5,0.1-0.7,0.3
			c-0.3,0.2-0.7,1.1-1,1.4c-0.3,0.3-0.9,0.5-1.2,0.8c-0.4,0.3-0.6,0.9-1,1.2c-0.4,0.3-1,0.6-1.3,1c-0.2,0.2-0.2,0.6-0.4,0.7h-0.4
			c-0.6,0.4-1,1.3-1.6,1.7c-0.7,0.4-1.1,0.8-1.8,1.3c-0.2,0.1-0.2,0.4-0.4,0.5c-0.3,0.2-0.7,0.3-0.9,0.6c-0.1,0.1-0.1,0.3-0.2,0.4
			c-0.2,0.2-0.6,0.4-0.8,0.6c-0.3,0.4-0.5,0.9-0.8,1.2c-0.2,0.2-0.5,0.4-0.7,0.5v0.3c-0.1,0.2-0.3,0.2-0.4,0.3
			c-0.2,0.2-0.1,0.5-0.3,0.7c-0.1,0.2-0.4,0.2-0.5,0.4c-0.1,0.3-0.2,0.5-0.3,0.8c-0.2,0.4-0.7,0.9-1,1.2c-0.1,0.1-0.1,0.1-0.3,0.1
			c-0.1,0.7-0.5,1-0.8,1.5c-0.2,0.4-0.2,0.7-0.4,1.2c-0.3,0.6-1.1,1-1.4,1.6H429c0-1.2,1.5-3.7,2.1-4.4c-0.2-0.2,1.5-2.6,1.8-2.9
			c0.1-0.2,0-0.4,0.2-0.6c0.1-0.1,0.3-0.1,0.4-0.2c0-0.1,0.1-0.3,0.1-0.4c0.1-0.2,0.4-0.2,0.5-0.4c0.2-0.2,0-0.5,0.2-0.7
			c0.1-0.2,0.5-0.3,0.6-0.5c0.2-0.3,0.3-0.6,0.5-1c0.2-0.2,0.4-0.2,0.6-0.4c0.2-0.1,0.1-0.4,0.3-0.6c0.2-0.2,0.6-0.4,0.8-0.6
			c0.2-0.2,0.2-0.6,0.4-0.8c0.1,0,0.2-0.1,0.4-0.1c0.3-0.3,0.6-1,0.9-1.4c0.2-0.2,0.4-0.2,0.6-0.5h0.3c0.1-0.7,0.6-0.6,0.7-1.2h0.3
			c0.4-0.7,1.4-1.6,2.1-2c0.1-0.1,0.1-0.3,0.3-0.4c0.2-0.1,0.4-0.1,0.6-0.3c0.3-0.2,0.4-0.8,0.8-1c0.1,0,0.3-0.1,0.4-0.1
			c0-0.1,0.1-0.2,0.1-0.3c0.2-0.2,0.4-0.2,0.6-0.4c0-0.1,0.1-0.2,0.1-0.3h0.3c0-0.1,0.1-0.2,0.1-0.3c0.3-0.2,0.9-0.3,1.2-0.5
			c0.1-0.1,0.3-0.4,0.4-0.5c0.5-0.3,1.1-0.4,1.6-0.7c0-0.1,0.1-0.2,0.1-0.3h0.5c0.2-0.2,0.5-0.5,0.7-0.7c0.3-0.1,0.5,0,0.7-0.2
			c0.1,0,0.2-0.3,0.3-0.4c0.5-0.3,0.9,0.1,1.2-0.4c0.5,0,0.7,0.2,1,0.4V275z M456.8,291.9c-0.1,0-0.2,0.1-0.4,0.1
			c-0.3,0.2-0.5,0.6-0.7,0.8c-0.1,0.1-0.4,0.4-0.5,0.4h-0.4c-0.2,0.2-0.3,0.5-0.5,0.7c-0.3,0.2-0.5,0.2-0.8,0.4
			c-0.1,0.1,0,0.3-0.1,0.4c-0.1,0-0.3,0.1-0.4,0.1l-0.6,0.6c-0.3,0.2-0.6,0.2-0.9,0.4c-0.1,0.2-0.1,0.4-0.2,0.5
			c-0.1,0-0.2,0.1-0.4,0.1c-0.6,0.4-1,1.1-1.6,1.5c-0.2,0.1-0.4,0.1-0.6,0.3c-0.9,0.7-1.6,1.8-2.5,2.5c-0.4,0.3-0.9,0.5-1.2,0.9
			c-0.2,0.3-0.8,1-1.1,1.2c-1.7,1.3-3,2.8-4.4,4.4c-0.1,0.1-0.4,0.2-0.5,0.4c-0.7,0.6-1.3,1.3-1.9,2l-0.4,0.2
			c-1.1,1.3-2.2,2.6-3.2,4c-0.2,0.3-0.6,0.5-0.9,0.7c-0.4,0.4-0.5,0.9-0.8,1.3c-0.2,0.3-0.9,0.6-0.9,0.6c-0.2,0.3,0,0.4-0.3,0.7
			c-0.1,0.1,0,0.1-0.2,0c-1,1.1-1.6,2.5-2.5,3.7c-1.8,2.5-3.6,5.2-5.2,7.9c-0.7,1.2-0.9,2.6-1.7,3.7c-0.1,0.2-0.3,0.3-0.6,0.4
			c0.3,0.7-0.1,1.1-0.4,1.7c-0.2,0.5-0.1,0.8-0.3,1.2c-0.3,0.9-1,1.9-1.3,2.8c-0.2,0.5-0.3,1.4-0.4,1.8c-0.3,0.9-0.8,2-1,2.9
			c0,0.3,0.1,0.5,0.1,0.8c0,0.1-0.3,0.3-0.4,0.4c-0.2,0.6,0,1.2-0.3,2c-0.1,0.2-0.3,0.3-0.4,0.4v1c-0.1,0.6-0.1,1.2-0.3,1.7
			c-0.3,1-0.6,3-0.2,4.2c0.3,0.8,1,1.1,1.6,1.6c0.8,0,0.9-0.2,1.4-0.4c0.1-0.2,0-0.1,0.1-0.2c0-1.2-0.8-0.7-1.4-1.1
			c-0.4-0.4-0.5-1.5-0.4-2.5c0.3-2,0.3-3.8,0.9-5.3c0-0.4,0.1-0.9,0.1-1.3c0.6-1.8,0.8-3.7,1.5-5.5c0.7-1.7,1.5-3.6,2.2-5.4
			c0.2-0.4,0.3-1.4,0.5-1.7c0.1-0.1,0.4-0.2,0.4-0.4V331c0.1-0.1,0.3-0.2,0.4-0.3c0.3-0.4,0.2-0.8,0.4-1.2l0.4-0.4
			c0.1-0.3,0.1-0.5,0.2-0.8c0.1,0,0.2-0.1,0.3-0.1c0-0.2,0.1-0.4,0.1-0.6c0.1-0.2,0.5-0.4,0.6-0.6c0.5-0.9,0.8-1.8,1.3-2.6
			c0.6-0.8,1.4-1.5,1.4-2.5c0.5-0.1,2.3-2.6,2.6-3.3c0.2,0,0.3,0,0.4-0.1c0.2-0.2,0.3-0.3,0.3-0.7l0.1,0.1c0.2-0.1,0.2-0.2,0.3-0.4
			c0.2-0.1,0,0,0.3,0c0.8-1.7,2.5-3,3.6-4.4c0.6-0.7,1-1.8,2-2.1c0-0.1,0.1-0.3,0.1-0.4h0.3c0.1-0.2,0.3-0.6,0.4-0.7
			c0.1-0.1,0.3,0,0.4-0.1c1.1-1.6,2.6-2.8,3.9-4.3c0.5-0.6,1.4-0.9,1.6-1.9c1,0,1.7-1.2,2.1-1.8h0.1c0,0,0.2,0.1,0.3,0.1
			c0.2-0.1,0.2-0.5,0.4-0.7c0.3-0.3,0.8-0.5,1.1-0.8c0.3-0.3,0.5-0.4,0.9-0.6c0.6-0.4,0.9-1.2,1.4-1.6c0.2-0.1,0.4-0.1,0.6-0.3
			c0.4-0.4,0.7-0.7,1.1-1.1c0.2-0.1,0.3,0,0.4,0c0.3-0.2,1-1.1,1.3-1.4c0.3-0.2,0.6-0.2,0.9-0.4c0.1-0.1,0.2-0.4,0.4-0.5
			c0.2-0.1,0.4-0.1,0.6-0.2c0.2-0.1,0.2-0.5,0.4-0.6c0.5-0.5,1.2-0.7,1.8-1.2c0.1-0.2,0.3-0.4,0.4-0.6c0.2-0.1,0.5-0.1,0.7-0.3
			c0.1-0.1,0.1-0.3,0.2-0.4h0.5c0.2-0.2,0.4-0.6,0.6-0.7c0.4-0.2,0.8-0.4,1.2-0.6c0.1-0.1,0.1-0.3,0.2-0.4h0.4
			c0.2-0.1,0.3-0.5,0.4-0.6c0.1,0,0.3-0.1,0.4-0.1c0.4-0.2,0.7-0.8,1.1-1c1.7-1,3.3-2,4.8-3.1c0.3-0.2,0.8-0.2,1.2-0.4
			c0.7-0.5,1.5-1.1,2.3-1.6c0.3-0.1,0.5-0.1,0.8-0.2c0.1,0,0.1-0.3,0.2-0.4c0.4-0.3,0.8-0.2,1.2-0.4c0.1-0.1,0.1-0.2,0.2-0.3
			c0.3-0.2,0.6-0.2,0.9-0.4c0-0.1,0.1-0.2,0.1-0.3c0.4-0.1,0.7-0.2,1.1-0.4c0.6-0.3,1.4-0.9,2-1.2c0.2,0,0.4-0.1,0.6-0.1
			c0.2-0.1,0.3-0.4,0.5-0.4c0.8-0.3,1.4-0.5,2.2-0.8c0.3-0.1,0.6-0.4,0.8-0.5c0.3,0,0.5-0.1,0.8-0.1c1.2-0.4,2.5-1.2,4.1-1.2
			c0.4,0.5,1,0.8,1.4,1.2c0.6-0.2,0.6-0.9,0.9-1.3c0-1.1-0.9-1.5-1.9-1.3c-0.1-0.1,0-0.3-0.4-0.2c-0.9,0.2-1.7,0.8-2.8,0.8
			c-0.7,0.5-1.5,0.8-2.4,1.2c-0.9,0.3-2.5,0.7-2.8,1.3c-0.4,0-0.5-0.1-0.8-0.3c-0.1,0.2-0.2,0.5-0.3,0.7c-0.3,0.3-1.3,0.4-1.7,0.6
			c-0.1,0-0.1,0.3-0.2,0.4c-0.3,0.2-0.7,0-1,0.2c0,0.1-0.1,0.2-0.1,0.3h-0.6c-0.1,0-0.1,0.3-0.2,0.4h-0.4c-0.1,0.1-0.1,0.3-0.2,0.4
			c-0.5,0.3-1.1,0.4-1.6,0.7c-0.2,0.1-0.4,0.4-0.6,0.5c-0.3,0.1-0.5,0.1-0.8,0.2c-0.2,0.1-0.4,0.4-0.6,0.5h-0.4
			c-2.3,1.7-5.1,3.4-7.8,5.1c-0.1,0.2-0.3,0.4-0.4,0.5c-0.2,0.2-0.5,0.1-0.7,0.3c-0.2,0.2-0.3,0.5-0.5,0.7c-0.2,0.1-0.6,0.2-0.8,0.4
			c-0.2,0.2-0.5,0.5-0.7,0.7c-0.9,0.6-1.8,1-2.7,1.6C457,291.6,456.9,291.8,456.8,291.9z M345.4,277.8c-0.1-0.1-0.1-0.2-0.2-0.3
			c-0.7,0-1.4-0.1-2-0.1c-0.1,0-0.4-0.2-0.5-0.3c-0.4-0.1-1,0.1-1.2,0.1c-2.8-0.3-5.4-0.4-8.2-0.4v0.3c2.8,0.3,6.6,0.3,9.5,1.1
			c0.7,0.2,1.6-0.2,2.1,0c1,0.3,2.4,0.8,3.4,1.1c0.3,0,0.7-0.1,1-0.1c1.6,0.4,3.2,1,4.8,1.2c0.2,0,0.6,0.4,0.8,0.4
			c0.2,0.1,0.7,0,1.1,0.2c0.4,0.2,0.9,0.5,1.3,0.7c0.3,0,0.5,0.1,0.8,0.1c0.7,0.3,1.5,0.8,2.1,1.1c0.7,0.3,1.3,0.3,2,0.6
			c0.1,0.1,0.2,0.2,0.3,0.4c0.3,0.2,0.7,0.2,1.1,0.4c0.3,0.2,0.5,0.6,0.8,0.7c0.4,0.2,0.7,0.1,1,0.3c0.3,0.2,0.6,0.6,0.9,0.8
			c1,0.6,2,0.9,2.9,1.5c5.5,3.8,11.2,8.8,14.9,14.4c0.3,0.4,0.8,0.7,1.1,1.2c0.8,1.2,1.3,2.4,2,3.6c0.2,0.2,0.5,0.5,0.6,0.8
			c0.4,0.8,0.4,1.5,0.8,2.3c0.2,0.5,0.6,1,0.8,1.5c0,0.2,0.1,0.5,0.1,0.7c0.1,0.3,0.6,0.7,0.7,1c0,0.4,0.1,0.7,0.1,1.1
			c0.1,0.4,0.4,0.8,0.5,1.1c0.1,0.4,0.1,0.9,0.2,1.3c0.4,1.6,0.8,3.3,1.1,5.2c0.1,0.4-0.2,1-0.1,1.5c0.3,1.2,0.4,3.2,0.5,4.3
			c0.1,0.5-0.1,1-0.2,1.4c-0.2,0.7,0.2,3.6,0.4,4.4c0.3,1.2-0.2,2.2,0.1,3.3c0.2,1.1,0.1,2.4,0.4,3.6c0.5,1.9,0.9,3.1,1.8,4.5
			c0.2,0.1,0.1,0,0.2,0.1h0.5c0.2-1.3-0.7-1.4-0.9-2.4c-0.3-1.7-0.3-3.7-0.8-5.6c-0.1-0.7-0.1-1.4-0.2-2.1c0-0.1,0.1-0.3,0.1-0.5
			c0-0.2-0.3-0.7-0.4-0.9c-0.1-0.5,0.2-1.5,0.1-2c0-0.2-0.2-0.6-0.2-0.9c0-0.3,0.1-0.5,0.1-0.8c-0.3-1.2-0.3-2.8-0.4-3.8
			c0-0.5,0.1-1.2,0.1-1.5c-0.5-3.6-0.8-7.3-2-10.4c-0.2-0.4-0.1-0.9-0.3-1.3c-1.6-3.3-2.9-7-5-9.9c-1.8-2.5-4-4.8-6-7.2
			c-0.3-0.4-1-0.6-1.3-1c-1-1.2-2.1-2.1-3.4-3.1c-0.3-0.3-0.6-0.7-0.9-1c-0.1,0-0.3-0.1-0.4-0.1l-0.2-0.4c-0.2-0.1-0.4-0.1-0.5-0.2
			v-0.2c-0.2-0.1-0.4-0.1-0.6-0.2c-0.3-0.2-0.7-0.7-1-1c-0.6-0.5-1.2-0.7-1.9-1.1c-0.3-0.2-0.5-0.6-0.8-0.7c-0.2-0.1-0.4,0-0.6-0.2
			c-0.3-0.2-0.6-0.6-0.9-0.7c-0.1,0-0.1,0.1-0.2,0.1c-0.4-0.2-0.9-0.7-1.2-1c-0.5-0.3-1.1-0.7-1.6-0.9c-0.1,0-0.3-0.1-0.4-0.1
			c-0.5-0.4-1.1-0.9-1.8-1.2c-0.6-0.2-2.8-1.2-3.1-1.1c-0.4-0.3-0.8-0.7-1.3-0.8c-0.1,0-0.2,0.1-0.3,0.1c-0.4-0.2-1-0.5-1.5-0.6
			c-0.1,0-0.2,0.1-0.4,0.1c-0.4-0.2-1-0.7-1.5-0.8c-0.1,0-0.3,0.1-0.4,0.1c-0.2-0.1-0.5-0.5-0.7-0.5c-0.4-0.1-0.9,0.2-1.7-0.1
			c-1.3-0.5-3.1-0.7-4.4-1.1C346.5,277.8,345.7,277.9,345.4,277.8z M297.5,294c0.4-0.2,0.8-0.6,1.2-0.7c0.2-0.1,0.4,0.1,0.4,0.1
			c0.1,0,0.5-0.3,0.6-0.4c0-0.1,0.1-0.2,0.1-0.3h0.6c0.2-0.1,0.7-0.3,0.8-0.4c0.3,0,0.6-0.1,0.9-0.1c0.2-0.1,0.6-0.4,0.8-0.5
			c0.4-0.1,0.5,0.1,0.8,0c0.1-0.1,0.1-0.2,0.2-0.3c0.3,0,0.5-0.1,0.8-0.1c0.1,0,0.3-0.2,0.4-0.3c0.7,0.2,0.9-0.1,1.6-0.3
			c0.6-0.1,1.7,0,2.4-0.2c0.5-0.1,0.5,0.3,1,0.3c0.5-0.1,1-0.3,1.3-0.4c0.4-0.1,0.6,0.1,0.8,0.2c0.6,0.2,1-0.1,1.5-0.2
			c0.2-1.1,0-1.6-0.4-2.6c-0.3-0.1-0.7-0.3-1-0.4c-0.1,0-0.2,0.1-0.4,0.1c-0.1,0-0.2-0.3-0.3-0.4c-0.2,0-0.5,0.2-0.6,0.3
			c0,0-2.4-0.1-2.6-0.2c-0.1,0-0.5-0.2-0.6-0.3c-0.4-0.1-0.9,0.1-1.4-0.1c-0.5-0.2-0.6,0.3-1.2,0.2c-2.4-0.5-6.4,0-8.5,0.9
			c-0.5,0.2-1.4,0.1-1.7,0.2c-0.2,0.1-0.5,0.4-0.7,0.4c-0.6,0.3-1.2,0.3-1.8,0.6c-0.2,0.1-0.5,0.5-0.7,0.6c-0.2,0-0.4,0.1-0.6,0.1
			c-0.2,0.1-0.4,0.4-0.5,0.5c-0.2,0.1-0.7,0.1-0.9,0.3c-0.4,0.3-0.7,0.8-1.2,1.1v0.4c-0.5,0.1-1.2,1.9-0.7,2.5
			c0.8,1.9,4.9,0.7,6.6,0.1C295.3,294.6,296.5,294.4,297.5,294z M293.8,291.6c-0.3,0.2-1.4,0.2-1.8,0.4c-0.5,0.3-1.2,0.7-1.9,0.9
			l-0.2-0.4c0.5-0.2,0.6-0.7,1-1c0.3-0.2,1.6-0.9,2-1.1h0.5c0.1,0,0.1-0.3,0.2-0.4c0.8-0.4,1.8-0.7,2.7-1c0.4-0.1,1-0.2,1.3-0.3
			c0.2-0.1,0.6,0.1,0.6,0.1l0.4-0.4c0.5,0.2,1.4-0.1,1.9-0.3c0.6-0.2,1.4,0.1,1.9-0.2c0.4,0.1,1.1,0.1,1.5,0.2c0,0.2,0,0.3-0.1,0.4
			c-0.2,0.1-0.7,0-1,0.1c-0.2,0.1-0.8,0.4-1.1,0.4c-0.1,0-0.3-0.1-0.4-0.1c-0.1,0.1-0.2,0.3-0.4,0.4h-0.6c-0.2,0.1-0.6,0.4-0.8,0.5
			c-0.6,0.1-1.1,0.1-1.7,0.2c-0.3,0.1-0.6,0.4-1.1,0.5c-0.2,0.1-0.3-0.1-0.6,0c-0.1,0.1-0.1,0.2-0.2,0.3c-0.6,0.3-1.5,0-2,0.3
			C293.8,291.4,293.8,291.5,293.8,291.6z M302.3,345.6c0.1-0.1,0.3-0.2,0.4-0.4c0.2-0.3,0.2-0.8,0.4-1.1c0.3-0.4,0.8-0.7,1.1-1.2
			c0.7-1,1.3-1.9,2-2.8l0.5-0.3c0.5-0.6,1-1.7,1.6-2v-0.3c0.5-0.1,0.2-0.3,0.4-0.5h0.3c0.5-0.4,0.8-1.1,1.3-1.4
			c0.1,0,0.2-0.1,0.4-0.1c0.3-0.3,0.5-0.8,0.8-1.1c0.2-0.1,0.4-0.1,0.5-0.2c0.2-0.1,0.3-0.5,0.5-0.6c0.1,0,0.3-0.1,0.4-0.1
			c0.2-0.2,0.2-0.5,0.4-0.7c0.2-0.2,0.6-0.2,0.8-0.4c0.1-0.1,0.1-0.3,0.2-0.4c0.3-0.3,0.7-0.4,1-0.6c0.3-0.2,0.4-0.6,0.7-0.8h0.4
			c0.3-0.2,0.6-0.7,0.9-0.9c0.2,0,0.4-0.1,0.5-0.1c0.6-0.3,0.9-1.2,1.4-1.6c0.2-0.2,0.6-0.3,0.8-0.5c0-0.1,0.1-0.3,0.1-0.4
			c0.1-0.1,0.3-0.1,0.4-0.3c0.2-0.2,0.2-0.5,0.4-0.7c0.1,0,0.2-0.1,0.3-0.1c0.2-0.3,0.2-0.9,0.4-1.2c0.1-0.1,0.3-0.1,0.4-0.3
			c0.4-1.4-0.6-3.2-1.8-3.5c-0.5-0.1-0.8,0.3-1.3,0.2c-0.7-0.2-1.2-0.3-2-0.1c-0.7,0.1-1.4-0.4-2-0.1c-0.8,0-0.7-0.6-1.1-1.1
			c0.1-0.3,0.7-1.2,1-1.4c0.3-0.2,0.7-0.2,0.9-0.4c0.2-0.2,0.5-0.8,0.7-0.9h0.5c0.1-0.1,0-0.3,0.1-0.4c0.3-0.1,0.6-0.2,0.9-0.3v-0.2
			c0.2,0,0.4,0.1,0.6,0.1c0.2-0.1,0.2-0.7,0.4-0.8c0.3-0.2,0.5-0.2,0.7-0.4c0-0.1,0.1-0.2,0.1-0.3c0.3-0.2,0.8-0.2,1.1-0.4
			c0.2-0.2,0.3-0.5,0.5-0.6c1.9-1.1,5.3-2.4,5.8-4.8c-0.1-0.1-0.2-0.3-0.4-0.4c-0.3-0.2-1.3-0.4-1.8-0.3c0,0-0.2,0.2-0.3,0.2
			c-1.7-0.3-4.3-0.1-6.1-0.5c-0.3-0.1-0.6,0.1-0.7,0.1c-0.9-0.1-2.8-0.6-3.8-1h-0.8c-0.1,0-0.3-0.3-0.4-0.4c-0.6-0.2-1.1,0-1.8-0.4
			l-0.6-0.6c-0.5-0.3-0.9-0.2-1.3-0.4c-0.3-0.2-0.7-0.7-1.1-0.9c-0.6-0.4-1.2-0.4-1.9-0.7c-0.3-0.1-0.5-0.4-0.8-0.5
			c-0.2,0-0.4-0.1-0.5-0.1c-0.6-0.4-1.1-1.1-1.6-1.6c0-0.2,0-0.4,0.1-0.5c0.2-0.5,2.4-1.8,3-2h0.4c0.2-0.1,0.3-0.4,0.5-0.4
			c0.6-0.3,1-0.5,1.5-0.7c0.3,0,0.5-0.1,0.8-0.1c0.4-0.2,1-0.6,1.4-0.8c0.2-0.1,0.7,0.1,1.1-0.1l0.4-0.4c0.5-0.3,1-0.2,1.5-0.4
			c0.2-0.1,0.5-0.4,0.7-0.4c1.1-0.4,2.1-0.6,3.1-1c0.3-0.1,0.8-0.4,1.2-0.2c0.2-0.1,0.1,0,0.2-0.3c0.7,0,1.1-0.4,1.6-0.5
			c0.4-0.1,1.1,0.2,1.6,0.1c0.9-0.2,1.8-0.5,2.7-0.7c0.6-0.1,1.2,0,1.7-0.3c0-0.1,0.1-0.2,0.1-0.3c0.2-0.1,0.6,0.1,0.6,0.1
			c0.7,0.2,1.5,0,2.1-0.2c0.6-0.2,1.2,0,1.7-0.1c2-0.4,3.7-0.5,5.7-0.8c0.3,0,1.2,0.1,1.5,0.2c0.5,0.1,1.4-0.3,2-0.2
			c0.2,0,1.9,0.3,2,0.3v-0.2c0,0,2.1-0.2,2.1-0.2c0.2,0,0.5,0.3,0.6,0.4c0.1,0,0.6-0.2,0.7-0.2c0.3,0,0.9,0.2,1.2,0.3
			c0.4,0,0.7-0.1,1.1-0.1c0.5,0.1,1.1,0.4,1.6,0.3c0.3-0.1,0.9-0.3,1.4-0.2c0.8,0.3,1.9,0.6,2.8,0.8c0.9,0.2,1.7,0.1,2.6,0.4
			c0.3,0.1,0.7,0.4,1,0.5c0.9,0.3,1.7,0.4,2.7,0.7c0.3,0.1,0.6,0.4,0.9,0.5c1,0.4,2,0.4,2.9,0.9c0.4,0.2,1.2,0.8,1.5,0.9
			c0.1,0,0.2-0.1,0.4-0.1c0.4,0.1,0.7,0.6,1,0.7c0.1,0,0.3-0.1,0.4-0.1l0.4,0.4c0.5,0.3,1,0.2,1.4,0.5c1.4,0.9,2.9,1.9,4.4,2.8
			c0.3,0.3,0.7,0.7,1,1c1.1,0.8,2.8,1.8,3.6,2.8c0.3,0.5,0.6,1.1,0.9,1.5c0.4,0,0.4-0.1,0.6-0.2c0-1.9-2.5-3.9-3.8-4.6
			c-0.6-0.4-1.3-1.4-1.9-1.8h-0.4c-0.2-0.1-0.3-0.4-0.4-0.5c-0.4-0.3-0.8-0.4-1.2-0.6c-0.1-0.1-0.2-0.2-0.3-0.4
			c-0.2,0-0.4-0.1-0.5-0.1c-0.4-0.2-0.9-0.7-1.3-0.9c-0.1,0-0.2,0.1-0.4,0.1c-0.2-0.1-0.5-0.4-0.6-0.5c-0.4-0.2-0.7-0.1-1.2-0.3
			c-0.7-0.3-1.5-0.9-2.2-1.2c-0.5-0.2-0.9-0.1-1.3-0.4c0-0.1-0.1-0.2-0.1-0.3c-0.2-0.1-1.3-0.2-1.8-0.4c-1.2-0.6-2.7-1.1-4.1-1.6
			c-0.4-0.1-0.9-0.1-1.3-0.2c-0.2-0.1-0.5-0.3-0.7-0.4h-0.6c-0.1-0.1-0.1-0.2-0.2-0.3c-0.6-0.2-1.6,0-2.4-0.2
			c-1.9-0.5-3.4-0.4-5.7-0.7c-0.5-0.1-1.5,0.1-2.1,0c-2.8-0.5-6.4-0.2-10,0.3c-0.8,0.1-1.4-0.2-2.4,0c-1.9,0.5-4,0.6-5.9,1
			c-0.3,0.1-0.3-0.2-0.5-0.2c-0.2,0-0.7,0.3-0.9,0.4c-0.8,0.2-1.7,0.2-2.3,0.4c-0.1,0-0.3,0.2-0.4,0.3c-0.1,0-0.3-0.1-0.4-0.1
			c-1.4,0.3-2.8,0.6-4.1,1.2c-0.5,0.2-1.4,0.1-1.8,0.3c-0.8,0.4-1.8,0.9-2.7,1.2c-0.5,0.2-0.8,0.1-1.2,0.3c-0.2,0.1-0.6,0.4-0.8,0.5
			c-0.5,0.2-0.9,0.1-1.2,0.4L310,297c-0.5,0.2-1,0.1-1.4,0.3c-0.6,0.3-1.2,0.7-1.7,1c-0.5,0.2-0.9,0.1-1.4,0.4
			c-0.3,0.1-0.7,0.5-1,0.6c-0.2,0-0.4,0.1-0.6,0.1c-0.2,0.1-0.3,0.7-0.5,0.8c-0.3,0.2-0.6,0.1-0.9,0.3c-0.3,0.2-0.4,0.7-0.7,0.9
			c0.1,2.3,2.6,2.9,4.1,3.8c2,1.2,4.6,2.6,7.1,3.5c0.5,0.2,0.8,0,1.3,0.2c1.1,0.3,2.6,0.7,3.7,1c0.3,0.1,0.3-0.3,0.8-0.2
			c0.5,0.1,2.6,0.5,3.4,0.4c0.7-0.1,2.1-0.2,2.5,0.1c0.2,0.1,0.2,0.1,0.4,0.2c-0.1,0.5-2.1,2-2.7,2c-0.2,0-0.2-0.1-0.4-0.2
			c-0.5,1.1-2,1.6-3.2,2.3c-0.5,0.3-1,0.9-1.7,1.1c-0.2,0.7-1,0.6-1.6,1c-0.2,0.1-0.3,0.6-0.5,0.8c-0.7,0.5-2.1,1.6-2.4,2.4
			c-0.2,0.3-0.1,1.5,0.2,1.9c0.6,1.7,5.2,1.1,7,1.2c0.3,0.3,0.6,0.3,0.7,0.8c0.3,0.5-0.3,1.2-0.4,1.6c-0.4,0.9-0.9,1.8-1.6,2.4
			c-0.1,0.1-0.4,0.1-0.5,0.3c-0.4,0.5-0.8,1.3-1.6,1.4c0,0.2,0,0.2-0.1,0.3c-0.2,0.6-1.8,1.5-2.4,1.9c-0.2,0.1-0.3,0.4-0.4,0.5
			c-0.4,0.4-0.9,0.7-1.4,1.1c-0.3,0.2-0.4,0.7-0.7,1c-0.3,0.3-0.7,0.5-1.1,0.8c-0.2,0.2-0.3,0.5-0.5,0.7c-0.1,0-0.3,0.1-0.4,0.1
			c-0.4,0.3-0.8,0.9-1.2,1.3c-0.4,0.3-0.8,0.7-1.2,1c-0.3,0.4-0.4,0.8-0.6,1.2c-0.1,0.2-0.4,0.2-0.5,0.4c-0.2,0.3-0.3,0.7-0.5,0.9
			c-0.1,0.1-0.3,0-0.4,0.2c-0.1,0.2-0.1,0.4-0.2,0.6c-0.3,0.4-0.7,0.8-1,1.2c-0.1,0.1-0.4,0.2-0.4,0.3c0,0.1-0.1,0.3-0.1,0.4
			c-0.1,0.2-0.5,0.4-0.6,0.6c-0.5,0.7-0.8,1.7-1.3,2.4c-0.1,0.1-0.1,0.1-0.3,0.1c-0.2,0.8-0.8,1.4-1.2,2c-0.1,0.2-0.1,0.4-0.2,0.6
			c-0.1,0.2-0.5,0.5-0.6,0.7c-0.1,0.2-0.1,0.4-0.2,0.6c-0.2,0.4-0.6,0.9-0.8,1.3c0,0.2-0.1,0.4-0.1,0.6c-0.1,0.2-0.4,0.6-0.5,0.8
			v0.4c-0.1,0.1-0.4,0.2-0.4,0.4c-0.6,1.8-1.8,4-2.7,5.8c0,0.3-0.1,0.6-0.1,0.9c-0.2,0.4-0.7,1-0.9,1.4c-0.3,0.7-0.1,1.4-0.4,2.1
			c-0.1,0.3-0.5,0.8-0.6,1.2c0,0.3-0.1,0.7-0.1,1c-0.1,0.1-0.3,0.3-0.4,0.4v0.5c-0.1,0.2-0.5,0.7-0.5,1c-0.1,0.2,0.1,0.8,0,1
			c-0.2,0.4-0.4,1-0.6,1.5c0.1,0.1,0,0,0.1,0.2c0.3,0,0.3,0,0.4-0.2c0.2-0.4,0.2-1.2,0.4-2c0.1-0.2,0.2-0.6,0.4-0.8
			c0.1-0.1,0.3-0.1,0.4-0.2c0.1-0.4,0.1-0.7,0.2-1.1c0.1-0.1,0.2-0.1,0.3-0.2c0.1-0.3-0.1-1,0.1-1.4c0.1-0.3,0.3-0.8,0.5-1.1
			c0.1-0.1,0.3-0.2,0.4-0.4c0.1-0.3-0.1-0.5,0-0.7c0.1-0.1,0.2-0.1,0.3-0.2c0.1-0.3,0.1-0.6,0.2-0.9c0.2-0.1,0.4-0.3,0.6-0.4
			c0.2-0.3,0-1.3,0.1-1.4c0.1-0.1,0.5-0.3,0.5-0.4v-0.7c0.1-0.4,0.5-0.5,0.5-0.9h0.3c1.4-3.5,3.1-6.8,5.1-9.7
			C301.7,347.1,301.9,346.3,302.3,345.6z M525.1,298.6c-0.2-1.9-3.9-2-5.5-2.4c-0.4,0.2-1.1,0-1.6,0.1c-1.1,0.3-2.1,0.4-3,0.7
			c-0.4,0.1-1.3,0-1.6,0.2c-1.1,0.6-2.2,0.8-3.4,1.2c-1.2,0.4-2.6,1.3-3.7,1.8h-0.6c0,0-0.3,0.3-0.4,0.4c-0.2,0-0.4,0.1-0.6,0.1
			c-0.7,0.4-1.5,1.1-2.3,1.5c-0.3,0.1-0.6,0.1-0.9,0.2c-0.6,0.3-1.2,0.7-1.7,1.1c0,0.3,0.1,0.5,0.1,0.8c0.4,0.1,1.4,0.2,1.6,0.4
			c0.6-0.1,1-0.7,1.5-0.9h0.9c0.9-0.3,1.9-0.9,2.7-1.2c0.9-0.3,3.1-0.6,3.6-0.5c0.1,0,0.5,0.2,0.7,0.2c2.1-0.2,5.6-0.4,8,0
			c0.8,0.1,1.8-0.2,2.6-0.2c0.3,0,0.6-0.3,0.8-0.4c0.3-0.1,1-0.1,1.2-0.4c0.4-0.3,0.7-0.9,1.1-1.2
			C524.8,299.7,525.4,299.1,525.1,298.6z M520.3,298.7c-0.1,0-0.4,0.1-0.6,0.1c-0.3,0-1.1,0.2-1.5,0.3c-0.7,0-1.5-0.1-2.2-0.1
			c-0.5,0.1-0.9,0.4-1.3,0.5h-0.7c-0.5,0.1-0.8,0.2-1.2,0.3c-0.4,0.1-1.5,0-1.8,0.3c-0.3,0-0.3,0-0.4-0.2c-0.1-0.1,0,0-0.1-0.2
			c1.5-0.7,3.4-1.3,5.1-1.8c1-0.3,2,0.1,3-0.4c1.3,0.3,2.3,0.2,3.2,0.4C521.7,298.9,521.1,298.6,520.3,298.7z M386.3,338.2
			c0,0.1,0.1,0.2,0.1,0.3c0.5,0.3,0.8-0.1,1.2,0.2c0.3-0.2,0.7-1.3,0.4-1.8c-0.2-0.4-0.9-0.6-0.4-1.2c-0.3-0.6-0.9-1.1-1.2-1.7
			c-0.1-0.5-0.1-0.9-0.2-1.4c-0.1-0.3-0.4-0.5-0.5-0.8c-0.4-0.9-0.6-1.8-1.1-2.6c-2.5-4.1-5.5-7.9-8.9-11.2c-0.6-0.6-1.2-1.4-1.9-2
			c-0.1-0.1-0.3-0.1-0.4-0.2c-0.5-0.3-0.9-0.9-1.4-1.2c-0.2-0.1-0.4,0-0.5-0.2c-0.4-0.4-0.9-1-1.6-1.1c0-0.2,0-0.2-0.1-0.3
			c-0.1-0.2-1.6-1.1-2-1.2c-0.2,0-0.4-0.1-0.6-0.1c-0.1-0.1-0.2-0.3-0.3-0.4c-0.2,0-0.5-0.1-0.7-0.1c-0.2-0.1-0.6-0.4-0.7-0.4h-0.6
			c-2.8-1.2-6.3-2.8-9.6-2.2c-0.3,0.1-0.5-0.1-0.6-0.2c-0.2,0-1.9,0.1-2.3,0.2c-0.6,0.2-1.1,0.4-1.7,0.6c-0.2,0-0.4,0.1-0.6,0.1
			c-0.2,0.1-0.1,0.2-0.4,0.4c-0.7,2.8,2.2,4.7,3.7,5.9c0.6,0.4,1,1.2,1.6,1.5c0.3,0.2,0.5,0.1,0.9,0.3c0.3,0.1,0.6,0.6,0.9,0.8
			c0.2,0.1,0.4,0,0.6,0.2c0.3,0.2,0.4,0.7,0.7,0.8h0.5c1.4,0.6,2.9,1.8,4.2,2.4c0.5,0.2,0.9,0.4,1.3,0.6c0.2,0,0.4,0.1,0.6,0.1
			c0.1,0.1,0.2,0.3,0.4,0.4c0.7,0.4,1.5,0.5,2.2,0.8c0.3,0.1,0.6,0.5,0.9,0.6c0.5,0.2,1,0.2,1.4,0.4c0.2,0.1,0.3,0.5,0.5,0.7
			c0.1,0.2,0.1-0.1,0.2-0.2c2.6,1.5,5.9,2.5,8.4,4.4c0.4,0.3,1.1,0.5,1.5,0.9c0.3,0.3,0.5,0.8,0.9,1.1c0.5,0.4,1.8,1.4,2,1.9
			c0.3,0.6,0.3,1.3,0.7,1.9v0.1c1.6,0,1.3,1.3,2,2.1v0.9C385.9,338.1,386.2,338.1,386.3,338.2z M367.3,313.4
			c0.2,0.1,0.3,0.2,0.4,0.3v0.2c-0.3,0-0.4,0-0.5-0.1c-0.1-0.2,0-0.1-0.1-0.2L367.3,313.4z M378.6,327.3c-0.9-0.2-1.3-0.9-2-1.2H376
			c-0.2-0.1-0.4-0.3-0.6-0.4c-0.1,0-0.1,0.1-0.2,0.1c0-0.1-0.1-0.2-0.1-0.3c-0.1-0.1-0.7-0.4-0.8-0.4c-0.1,0-0.3,0.1-0.4,0.1
			c-0.1-0.1-0.2-0.2-0.3-0.4c-0.4-0.2-0.8-0.1-1.2-0.4c-0.4-0.2-0.4-0.5-1-0.5v-0.3c-0.6,0-2.6-0.8-2.8-1.3c-0.7,0.2-1.3-0.5-2-0.8
			c-0.2,0-0.4-0.1-0.6-0.1c-0.4-0.2-0.8-0.6-1.2-0.8c-0.8-0.3-1.8-0.5-2.3-1.1v-0.3c-0.1,0-0.2,0.1-0.3,0.1c0-0.1-0.1-0.2-0.1-0.4
			c-0.3-0.2-0.5,0.1-0.8,0c-0.1-0.1-0.2-0.3-0.4-0.4c-0.4-0.3-0.9-0.3-1.2-0.5c-0.1-0.1-0.2-0.3-0.4-0.4c-0.2-0.1-0.7,0.2-1,0
			c-0.4-0.2-0.7-0.8-1.1-1.1c-0.5-0.3-1-0.5-1.4-0.8c-0.1-0.2-0.3-0.4-0.4-0.6c-0.2-0.1-0.5,0-0.7-0.2c-0.2-0.1-0.2-0.3-0.3-0.4
			c-0.2-0.2-1.3-1.2-1.5-1.4c-0.4-0.3-0.9-0.5-1.2-1c-0.3-0.4-0.4-0.9-0.7-1.2c0-0.4,0-0.5,0.4-0.6v-0.3c0.3,0,0.6-0.1,0.7-0.4
			c1.5,0,1.1,1.1,1.9,1.7c0.1,0,0.3,0.1,0.4,0.1c0.1,0.1,0.1,0.3,0.2,0.4c0.1,0,0.3,0.1,0.4,0.1c0.4,0.2,0.5,0.7,0.8,1.1
			c0.5,0.7,2,2,2.7,2.4c0.4,0.2,0.7,0.2,1.2,0.4c0.2,0.1,0.6,0.4,0.8,0.5c0.7,0.4,1.3,0.5,2,0.8c0.2,0.2,0.5,0.5,0.7,0.7
			c0.5,0.3,0.9,0.1,1.5,0.4c0.3,0.1,0.6,0.5,0.9,0.6c0.3,0.1,0.7-0.1,0.9,0c0.2,0.1,0.6,0.5,0.8,0.6v0.2c0,0,0.6,0.1,0.8,0.2
			c0.2,0.1,0.5,0.4,0.7,0.5c0.3,0.2,0.7,0.2,1,0.4c0.1,0.1,0.3,0.3,0.4,0.4c0.9,0.4,1.6,0.4,2.3,0.9c0.5,0.3,1.1,0.9,1.6,1.2
			c0.1,0.1,0,0.3,0,0.3c0.2,0.1,0.6,0,0.8,0.1c0.2,0.2,0.4,0.5,0.6,0.7c0.2,0.1,0.3,0,0.4,0c0.2,0.1,0.3,0.5,0.5,0.6v0.3h0.4
			c0.4,0.5,1.3,1.8,1.9,2.1L378.6,327.3L378.6,327.3z M464.5,316.6c0.3-0.4,0.9-0.7,1.2-1.1c0.5-0.5,1.2-2.3,0.8-3.2
			c-0.2-0.5-0.7-0.7-1.1-1.1c-0.3-0.3-0.1-0.6-0.5-0.7c-0.1-0.1-1,0-1.3-0.1c-0.5,0.3-1.1,0.2-1.7,0.5c-0.1,0.1-0.1,0.2-0.2,0.3
			c-0.3,0.1-0.6,0.1-0.9,0.2c-0.1,0.1-0.2,0.3-0.4,0.4c-0.4,0.2-0.9,0.2-1.2,0.4c-0.2,0.1-0.5,0.5-0.7,0.6c-0.6,0.3-1,0.1-1.6,0.5
			c-3.3,2.1-6.5,4.3-9.2,7c-0.9,0.9-1.8,1.7-2.5,2.8c-0.1,0.2-0.1,0.4-0.2,0.6c-0.3,0.5-0.9,0.7-1,1.4c-0.3,0.1-0.3,0.1-0.6,0
			c-0.1,0.8-0.6,1.8-1.2,2.5c-0.1,0.1-0.4,0.2-0.4,0.3v0.4c-0.1,0.3-0.3,0.6-0.4,0.9c-0.6,0.9-1.3,2-1.7,3c-0.3,0.7-0.4,1.2-0.7,1.9
			l-0.4,0.4c-0.2,0.5-0.2,1-0.4,1.6c-0.4,0.8-1.4,4-0.6,5.1c0.1,0.3,0.7,0.3,1,0.4c0.3-0.4,0.5-0.8,0.8-1.2c0-0.3,0.1-0.5,0.1-0.8
			c0.1-0.1,0.3-0.1,0.4-0.2c0.2-0.3,0.2-0.8,0.4-1.2c0.5-0.8,1.1-1.7,1.6-2.5c0.3-0.5,0.4-1.1,0.7-1.5c0.2-0.2,0.6-0.4,0.8-0.6
			l0.3-0.8c0.3-0.4,1.5-2,2-2c-0.1-0.1-0.1-0.2-0.2-0.3c0.2-0.6,0.7-0.8,1.1-1.2c0.2-0.2,0.2-0.5,0.4-0.8c0.1-0.2,0.3-0.1,0.4-0.2
			c0.2-0.1,0.2-0.4,0.4-0.6c0.3-0.4,0.8-0.6,1.2-0.9c0.2-0.2,0.4-0.6,0.6-0.7c0.7-0.5,1.6-0.6,2.4-1.1c0.1-0.1,0.1-0.3,0.3-0.4
			c0.3-0.3,0.6,0.1,0.9-0.1c0.1,0,0.2-0.4,0.3-0.4c0.5-0.4,1.8-0.7,2.1-1.2c0.3,0.1,0.3,0.1,0.4,0.3c0.2-0.1,0.1-0.3,0.3-0.5
			c0.2-0.3,0.9-0.7,1.1-0.7c0.2,0,0.4,0.1,0.5,0.1c0.2-0.1,0.3-0.5,0.4-0.6c0.2-0.1,0.5,0,0.7-0.2c0.4-0.3,0.7-0.7,1.1-1
			c0.2-0.1,0.4-0.1,0.6-0.3c0.2-0.2,0.4-0.6,0.6-0.8h0.4c0.1-0.1,0.2-0.4,0.4-0.5c0.3-0.3,0.9-0.4,1.2-0.7
			C463.8,317.6,464.1,317.1,464.5,316.6z M441.7,332.1L441.7,332.1L441.7,332.1c0-0.7,0.3-1.2,0.6-1.7
			C442.5,330.8,441.9,331.8,441.7,332.1z M462.1,312.6c-0.6,0.4-1,1.1-1.5,1.5c-0.1,0-0.1-0.1-0.2-0.1c-0.3,0.1-0.7,0.6-1,0.8
			c-0.1,0.2-0.3,0.4-0.4,0.5c-0.5,0.3-1,0.3-1.4,0.6c-0.1,0.1-0.1,0.3-0.3,0.4c-0.3,0.3-0.6,0.2-0.9,0.4c-0.1,0.1-0.2,0.3-0.3,0.4
			c-0.2,0.1-0.4,0-0.6,0.2c-0.3,0.2-0.5,0.7-0.8,1c-0.2,0.2-0.5-0.1-0.7,0.2c0,0.2-0.1,0.4-0.1,0.5c0,0-0.8,0.7-0.8,0.7
			c-0.2,0.1-0.2-0.2-0.4,0c-0.3,0.3-0.5,0.7-0.8,1.1c-0.2,0.2-0.6,0.4-0.8,0.6c0,0.1-0.1,0.3-0.1,0.4c-0.1,0-0.3,0.1-0.4,0.1
			c0,0.1-0.1,0.2-0.1,0.4c-0.1,0.2-0.3,0.1-0.5,0.2c-0.3,0.2-0.4,0.7-0.6,1c-0.1,0.1-0.4,0.4-0.5,0.4h-0.3c0,0.1-0.1,0.3-0.1,0.4
			c-0.2,0.3-0.8,0.5-1.2,0.7c-0.2,0.2-0.3,0.5-0.5,0.7c-0.2,0.1-0.4,0.1-0.6,0.3c-0.2,0.2-0.4,0.6-0.6,0.8c-0.1,0-0.2,0.1-0.4,0.1
			c-0.2,0.1-0.1,0.3-0.2,0.4c-0.3,0.3-0.6,0.5-0.9,0.8c-0.5,0.6-0.9,1.1-1.4,1.7h-0.1c0.9-2.4,2.4-4.7,3.9-6.7
			c0.4-0.5,1-0.8,1.4-1.2c0.3-0.3,0.3-0.8,0.6-1.1c0.1-0.1,0.4-0.1,0.5-0.2c0,0,0.9-0.9,0.9-1h0.3v-0.3c0.9-0.2,1.4-1,2.1-1.4
			c0.1-0.1,0.2-0.3,0.3-0.4c0.2,0,0.4-0.1,0.5-0.1v-0.2c0.2-0.2,0.4-0.2,0.6-0.4c0.1-0.1,0.1-0.3,0.2-0.4c0.2-0.1,0.4-0.1,0.6-0.2
			c0.1-0.1,0.3-0.3,0.4-0.4c0.3-0.2,0.7-0.2,1-0.4c0.1-0.2,0.3-0.4,0.4-0.5c0.6-0.4,1.5-0.5,2-0.8c0.1-0.2,0.3-0.4,0.4-0.6
			c0.5-0.3,1-0.3,1.5-0.5c0.2-0.1,0.5-0.5,0.7-0.5c0.4-0.2,0.5,0.5,0.8-0.1L462.1,312.6L462.1,312.6L462.1,312.6z M492.3,318.2
			c-0.1,0-0.3-0.1-0.4-0.1c-0.3,0.2-0.7,0.7-1.1,0.8c-0.3,0-0.7,0.1-1,0.1c0,0.1-0.1,0.2-0.1,0.3c-0.3,0.3-1.2,0.3-1.7,0.4v0.3
			c-1.5,0.3-2.6,1.2-3.9,1.7c-0.7,0.3-1.3,0.3-1.9,0.6c-0.3,0.2-0.9,0.6-1.2,0.8c-0.6,0.3-1.3,0.3-1.9,0.6c-0.2,0.1-0.4,0.6-0.6,0.7
			c-0.2,0.1-0.4,0.1-0.5,0.2l-0.8,0.8c-0.3,0.1-0.5,0.1-0.7,0.3c-0.3,0.2,0,0.6-0.3,1c-0.2,0.1-0.4,0.1-0.5,0.2
			c-0.1,0.1-0.2,0.3-0.3,0.4v0.8c0,0.1,0.3,0.1,0.4,0.2c0,0.2,0.1,0.5,0.1,0.7c0.2,0.3,0.7,0.3,0.9,0.6c0.6,0,1.7,0,2.2-0.3
			c0.3-0.2,0.7-0.6,1.1-0.7c0.4-0.2,0.8-0.1,1.1-0.4c0.1-0.1,0.1-0.4,0.3-0.5c0.4-0.3,0.9-0.3,1.2-0.7c0.3-0.4,0.4-0.8,0.7-1.2
			l0.5-0.3c0-0.3,0.1-0.6,0.1-0.9c0.1-0.3,0.7-0.8,1-1c0.1,0,0.3-0.1,0.4-0.1c0.6-0.3,1.2-1,1.8-1.2c0.3-0.1,0.6,0,0.9-0.2v-0.2
			c0.3-0.1,0.5,0,0.7-0.2c0.1-0.1,0.2-0.3,0.3-0.4c0.3-0.1,0.6-0.2,0.9-0.3c0.8-0.6,2.4-1.5,3.7-1.2c0.3-0.1,0.8-0.3,1.2-0.4
			c0.3,0,0.6,0.1,0.9,0.1c0.1,0,0.2-0.2,0.4-0.2c0.1,0,0.6,0.3,0.8,0.4c0.3,0.1,0.3-0.1,0.5,0h0.3c0.1-0.3,0.1-0.6-0.1-0.8
			c-0.2-0.4-0.5-0.2-0.9-0.4c-0.5-0.3-1-0.8-1.4-1.2c-0.6,0.1-0.9,0.3-1.3,0.4c-0.5,0-0.9,0.1-1.4,0.1L492.3,318.2z M459.9,327.5
			c-0.1,0.2-0.1,0.3-0.2,0.4c0.6,0.5,0.5,1.1,0.9,1.9c0.3,0.6,0.8,1.1,1.1,1.7c0.1,0,0.2,0.1,0.3,0.1l0.3-0.3
			C462.2,330.6,460.4,327.7,459.9,327.5z M510.8,332.6h-0.7c-0.5,0.7-1.4,1.2-1.9,2c-0.2,0.3-0.1,0.7-0.2,1
			c-0.1,0.2-0.9,1.2-1.1,1.3c-0.5,0.4-0.9,0.8-1.4,1.2c-0.3,0.2-0.7,0.3-1.1,0.5c-0.1,0.1-0.2,0.4-0.4,0.5c-0.3,0.1-0.5,0-0.7,0.2
			c-0.7,0.5-1.4,1.1-2.1,1.6c-0.5,0.3-1.6,0.4-2,0.7c-0.5,0.3-1.1,1-1.7,1.2c-0.5,0.2-0.7,0-1.2,0.2c-0.9,0.4-2,0.9-2.9,1.2
			c-0.8,0.3-1.8,0.2-2.6,0.5l-0.4,0.4c-0.3,0.1-1.1-0.1-1.3,0l-0.3,0.3c-0.5,0.2-1,0-1.3,0.1l-0.3,0.3h-1.7c-0.3,0-1.6,0.3-2.3,0.1
			l-0.4-0.2c-0.2,0-0.4,0.1-0.7,0.1c-0.6-0.1-1.2-0.5-1.6-0.6H480c-0.4-0.2-0.7-0.6-1.1-0.9c-0.5-0.4-1-0.5-1.4-0.9
			c-1.1-0.9-1.9-2.1-2.8-3.3c-0.4-0.5-1.1-0.8-1.6-1.2c-0.3-0.2-0.4-0.7-0.7-0.9c-0.4-0.3-0.9-0.3-1.3-0.5c-0.1-0.1-0.2-0.4-0.3-0.4
			c-0.2-0.1-0.3,0.1-0.4,0.1v-0.2c-0.5-0.3-0.9-0.3-1.4-0.5c-1.1-0.5-1.9-1.2-3.3-1.2c-0.1-0.2-0.1-0.3,0-0.4v-0.2
			c-0.3,0.1-0.5,0.2-0.6,0.4c-0.5,0-0.9-0.2-1.3-0.4c-0.2,0-0.3,0.1-0.4,0.1c-0.1-0.1-0.1-0.2-0.2-0.3c-0.3-0.1-0.6,0.1-0.8,0.1
			c-1.7-0.1-3,0.6-3.6,1.9c-0.3,0.6-0.8,1.8-0.4,2.7c0.8,1.6,2.7,2.6,4.3,3.2c1.2,0.4,2.3-0.4,2.8,0.4c0.4-0.2,0.6-0.7,1.1-0.9
			c0-0.2,0-0.4-0.1-0.5c-0.2-0.5-1.5-0.8-2-1.1c0-1.1,0.9-1.7,1.6-1.9c0.2-0.1,1.7,0.4,2,0.6c0.1,0.1,0.1,0.4,0.2,0.6
			c0.6,0,1.2-0.6,1.4-1.1c2.1,0.3,3.4,2.5,4.6,4c0.2,0.2,0.6,0.4,0.8,0.6c0.3,0.3,1,1,1.2,1.2c0,0.1,0.1,0.3,0.1,0.4
			c0.2,0.2,1,0.4,1.2,0.5c0.2,0.1,0.3,0.4,0.4,0.5c0.5,0.4,1.7,0.9,2.3,1.1c2.9,1,7.4,0.2,10-0.5c0.6-0.2,1-0.1,1.5-0.2
			c0.3-0.1,0.6-0.4,0.9-0.4c0.5-0.2,0.9,0,1.3-0.2c0.1-0.1,0.3-0.3,0.4-0.4c0.5-0.2,1-0.1,1.3-0.3c0.1-0.1,0.2-0.2,0.3-0.4
			c0.4-0.1,0.8-0.2,1.2-0.3c0.1-0.1,0.4-0.4,0.5-0.4c0.3-0.1,0.6,0,0.9-0.2c0.7-0.4,1.5-1,2.1-1.3c0.3-0.1,0.5-0.1,0.8-0.2
			c0.7-0.5,1.5-1.1,2.2-1.6c0.4-0.3,0.9-0.4,1.3-0.7c0.1-0.1,0.4-0.5,0.5-0.6c1.9-1.2,3.1-2.4,4.4-4.2c0.3-0.4,1.1-1.2,0.9-1.8
			C511.1,332.8,511,332.8,510.8,332.6z M332.5,344v-0.3c0.7-0.1,0.8-0.4,1.2-0.6c0.4-0.2,0.5,0.2,0.9,0l0.2-0.4h0.6
			c0.2-0.2,0.4-0.4,0.5-0.6c0.1-0.1,0.5,0.1,0.5,0.1c0.6,0,0.9-0.5,1.2-0.9c0.2,0.1,0.4,0.1,0.5,0.2c0.2-0.2,0.4-0.6,0.9-0.6
			c0.1,0,0.3,0.1,0.4,0.1c0.2-0.1,0.2-0.4,0.4-0.4c0.2,0,0.4,0.1,0.5,0.1c0.4-0.2,0.8-0.9,1.2-1c0.3,0,0.6,0.1,0.9,0.1
			c0.2,0,0.6-0.2,0.7-0.4c0-0.1,0.1-0.2,0.1-0.3c0.3-0.2,0.5,0.1,0.9,0c0.3-0.1,0.6-0.4,0.9-0.4h0.4c0.2-0.1,0.5-0.6,0.7-0.6
			c0.2-0.1,0.9,0.1,1.3-0.1c1.7-0.7,3.9-1.1,5.8-1.7c0.6-0.2,1.2,0.1,1.6,0c2-0.5,4.6-0.7,6.6-0.5c0.9,0.1,1.6-0.2,2.3-0.2
			c0.2,0,0.2,0.1,0.4,0.2c0.4,0.1,0.7-0.2,1-0.1c0.1,0,0.5,0.3,0.6,0.3c1,0,1.7,0.1,2.5,0.4c0.6,0.2,1.3,0.1,1.7,0.2
			c1.8,0.4,4.1,1.3,5.1,2.5h0.2c0-0.1,0.1-0.1,0.1-0.4c0.2-0.4-0.3-0.9-0.5-1.2c-0.7-0.9-1.3-1-2.4-1.5H372
			c-0.1-0.1-0.3-0.3-0.4-0.4c-0.2-0.1-0.7,0.1-0.8,0.1c-1.1-0.3-1.6-0.5-2.7-0.7c-0.2,0-0.5,0.1-0.7,0.1c-0.1,0-0.3-0.3-0.4-0.3
			c-0.2,0-0.5,0.2-0.8,0.1c-0.5-0.1-1.5-0.3-2-0.3c-0.5,0.1-1.3-0.1-1.8,0c-0.7,0.2-1.7,0.2-2.5,0.1c-0.1,0-0.7,0.1-1.1,0.2
			c-0.4,0-0.9-0.1-1.3-0.1c-0.1,0-0.3,0.2-0.4,0.3h-1.2c-0.6,0.2-1.1,0.2-1.6,0.3c-0.1,0-0.3-0.1-0.4-0.1c0,0.1-0.1,0.2-0.1,0.3
			c-0.4,0.2-0.9,0-1.3,0.2c-0.8,0.3-2,0.6-2.8,0.9c-0.1,0-0.3-0.1-0.4-0.1c-0.1,0-0.5,0.3-0.7,0.4c-0.1,0-0.2-0.1-0.3-0.1
			c-1.4,0.5-2.8,1-4.1,1.5c-0.3,0-0.5,0.1-0.8,0.1c-0.5,0.2-1,0.7-1.5,0.9c-0.6,0.3-1.2,0.3-1.8,0.5c-0.8,0.3-1.7,1-2.5,1.3h-0.4
			c-0.7,0.3-1.4,0.8-2,1.2c0,0-1.8,0.5-2,0.6c-0.1,0.1-0.2,0.4-0.4,0.4c-0.3,0.1-0.5,0.1-0.8,0.2c-1.5,0.7-2.6,1.5-4.2,2.3
			c-0.3,0.2-0.7,0.5-1.1,0.7c-0.5,0.2-0.9,0.3-1.3,0.5c-0.2,0.2-0.4,0.4-0.5,0.6c-0.2,0.1-0.3-0.1-0.4,0l-0.3,0.5
			c-0.3,0.1-0.5,0.1-0.8,0.2c-0.3,0.2-0.6,0.6-0.9,0.8c-0.4,0.2-0.8,0.2-1.2,0.4c-0.7,0.5-2.3,2.3-3,2.2c-0.2,0.1-0.6,0.6-0.6,0.9
			c0.5-0.1,1-0.3,1.3-0.6c0.1-0.1,0.1-0.1,0.1-0.3c0.4-0.1,0.3-0.2,0.5-0.4c0.3-0.3,0.9-0.4,1.4-0.4c0.1-0.7,0.7-0.6,1-1.1h0.4
			c0-0.2,0-0.2,0.1-0.3c0.1-0.3,0.4-0.5,0.6-0.2c0.6-0.1,1.2-0.8,1.4-1.3c0.3,0,0.5-0.1,0.7,0c0.4-0.2,0.6-0.8,1-1
			c0.3-0.2,0.7,0,1-0.2c0.1,0,0.1-0.3,0.2-0.4c0.2-0.1,0.5-0.1,0.7-0.3c0.1-0.1,0.1-0.1,0.1-0.3c0.8-0.1,0.9-0.7,1.7-0.6
			c0-0.1,0.1-0.1,0.1-0.4c0.3,0,0.3-0.1,0.4,0c0.5-0.1,0.1-0.1,0.4-0.4C331.3,344.4,332.2,344.1,332.5,344z M325.2,362.4
			c1.3-0.9,2.4-2.2,3.7-3c0-0.1,0.1-0.3,0.1-0.4c0.3,0,0.3,0.1,0.4,0.2c0.5-0.9,1.6-1.4,2.5-2c0.3-0.2,0.6-0.4,0.6-0.6
			c0.3-0.2,0.8-0.2,1.1-0.4c0.1-0.1,0.2-0.4,0.4-0.5c0.5-0.4,1.1-0.5,1.7-0.9c0.9-0.6,2.8-2.3,3.7-2.4c0.2-0.1,0.2-0.4,0.4-0.5
			c1.1-0.6,2.1-0.9,3.2-1.5c0.5-0.3,1.1-0.9,1.6-1.1c0.1,0,0.2,0.1,0.4,0.1l0.4-0.4c0.4-0.2,1-0.2,1.4-0.4c0-0.1,0.1-0.2,0.1-0.3
			c0.3-0.1,0.5,0,0.7-0.2c0.2-0.1,0.5-0.4,0.7-0.5c0.9-0.4,1.7-0.5,2.6-0.9c1-0.4,2.1-1,3.1-1.3c0.1,0,0.2,0.1,0.3,0.1
			c0.2,0,0.5-0.3,0.7-0.4c0.1,0,0.2,0.1,0.4,0.1c0.3-0.1,0.7-0.3,1.2-0.4c0.5-0.2,2.1-0.8,2.3-0.6c0.7,0,0.9-0.4,1.5-0.5
			c0.1,0,0.2,0.1,0.4,0.1c1.2-0.3,2.9-0.6,4.2-0.8c0.7-0.1,1.5,0.1,2.2,0c3.6-0.5,7.7-0.3,11,0.6c1.2,0.3,2.4,0.2,3.5,0.6
			c0.2,0.1,0.3,0.3,0.5,0.4c0.5,0.1,1,0.1,1.5,0.2c0.7,0.3,1.6,0.8,2.3,1.2c1.6,0.7,3.9,1.2,5,2.8c0.2-0.1,0.2-0.2,0.4-0.3
			c-0.2-0.9-0.9-1.4-1.5-1.8c-0.3-0.2-0.5-0.7-0.8-0.8c-0.1,0-0.2,0.1-0.4,0.1c-0.4-0.1-0.8-0.5-1.2-0.7c-1.4-0.7-2.8-1.3-4.3-1.9
			c-0.2-0.1-0.4,0.1-0.4,0.1c-0.2,0-1.1-0.2-1.3-0.3c-1.3-0.6-3-0.6-4.5-1.1c-0.6,0-1.2-0.1-1.9-0.1c-1-0.3-3.8-0.5-4.8-0.2
			c0,0-1.5-0.3-2-0.2c-0.7,0.2-1.2,0-2,0.2c-0.1,0-0.2,0.2-0.3,0.2c-0.6-0.3-1.5,0.1-2,0.3c-0.2,0.1-0.5-0.1-0.8-0.1
			c-0.8,0.2-1.9,0.4-2.6,0.6c-0.4,0.1-0.3-0.1-0.7,0c-1.2,0.3-2.4,0.6-3.5,0.9c-2.3,0.6-4.7,1.7-6.7,2.6c-0.5,0.2-0.8,0.1-1.3,0.3
			c-0.4,0.1-0.7,0.6-1.1,0.7c-0.3,0-0.5,0.1-0.8,0.1l-0.5,0.5c-0.4,0.2-0.7,0.2-1.2,0.4c-0.7,0.3-1.4,0.8-2,1.2
			c-0.8,0.5-2.2,0.9-2.7,1.5c-0.2-0.1-0.2-0.1-0.4-0.3c-0.2,0.1-0.2,0.2-0.2,0.5c-0.8,0.3-1.3,0.7-2,1.2c-0.5,0.3-1.1,0.3-1.5,0.7
			c0,0.1-0.1,0.2-0.1,0.3c-0.3,0.2-0.8,0.6-1.1,0.7c-0.5,0.3-1,0.4-1.4,0.7c-0.3,0.3-0.5,0.5-0.8,0.8c-0.4,0.3-0.8,0.3-1.2,0.6
			c-0.3,0.3-0.5,0.5-0.8,0.8c-0.3,0.2-0.6,0.2-0.9,0.4c-0.2,0.2-0.3,0.5-0.4,0.6c-0.2,0.1-0.4,0.1-0.6,0.2c-0.1,0.2-0.3,0.4-0.4,0.5
			c-0.7,0.5-1.4,0.9-2.1,1.4c-0.1,0.1-0.1,0.3-0.2,0.4c-0.2,0.2-0.6,0.2-0.8,0.4c-1.1,1-2.2,2-3.4,2.9c-0.4,0.4-0.8,0.9-1.2,1.3
			h-0.3c-0.1,0.1-0.1,0.3-0.2,0.4c-0.1,0.2-0.7,0.7-0.9,0.8c-0.9,0.6-1.7,1.3-2.4,2c-0.4,0.4-0.8,0.8-1.2,1.2
			c-0.8,0.6-1.3,1.2-2,1.9c-0.2,0.1-0.4,0.3-0.6,0.4c-0.3,0.3-0.7,0.7-1,1.1c0,0.1-0.1,0.2-0.1,0.4c-1.7,1.5-3.1,3.2-4.4,5
			c-0.2,0.3-0.6,0.3-0.8,0.5c-0.2,0.2-0.3,0.6-0.4,0.9c-0.3,0.4-0.7,0.7-1,1.1c-0.2,0.2-0.2,0.6-0.4,0.8c-0.2,0.1-0.4,0.3-0.6,0.4
			c-0.3,0.4-0.3,1-0.6,1.4c-0.2,0.1-0.4,0.3-0.6,0.4c-0.2,0.3-0.2,0.7-0.4,1c-0.4,0.6-1.1,1.3-1.4,2c0,0.2-0.1,0.4-0.1,0.5
			c-0.1,0.1-0.3,0.2-0.4,0.3c-0.2,0.3-1.2,2.7-1.2,3.2c0.8-0.1,1.1-1.9,1.6-2.5c0.1-0.1,0.1,0,0.4,0c0.4-0.9,0.6-1.7,1.2-2.6
			c0.2-0.3,0.7-0.3,0.9-0.6c0-0.2,0.1-0.4,0.1-0.6c0.1-0.2,0.4-0.4,0.5-0.5c0-0.2,0.1-0.4,0.1-0.6c0.1-0.1,0.3,0,0.4-0.1
			c0.2-0.2,0.5-1.2,0.5-1.3c0.2-0.4,1.1-0.6,1.2-0.9c0.3-0.5-0.1-0.6,0.6-1v-0.5c0.5,0,1.4-1,1.7-1.4c0.1-0.2,0.2-0.5,0.3-0.7
			c0.1-0.2,0.5-0.1,0.6-0.4c0.3-0.4,0.2-1,0.6-1.2c0.2-0.1,0.4,0,0.5-0.1c0.1-0.1,0.1-0.1,0.1-0.3c0.7-0.1,1.2-1.1,1.5-1.6
			c0.6-1,2.1-1.2,2-2.6c0.1,0.1,0,0,0.1,0.2c1-0.2,1.4-1.2,2.1-1.8c0.1-0.1,0.4-0.1,0.4-0.3c0.2-0.3,0-0.5,0.2-0.7
			c0.2-0.2,0.5,0,0.7-0.2c0-0.1,0.1-0.2,0.1-0.3c0.2-0.1,0.4-0.1,0.5-0.3v-0.3c0.2-0.2,0.5-0.1,0.7-0.3c0.1-0.1,0.2-0.5,0.4-0.6
			c0.1-0.2,0.3,0,0.5-0.2c0.1-0.1,0.1-0.4,0.3-0.5c0.2-0.2,0.6-0.3,0.8-0.4c0.4-0.3,0.5-0.8,1.1-1c0.1-0.1,0.1-0.1,0.3-0.1v-0.3
			c0.5-0.1,0.4-0.4,0.9-0.5C323.7,363.1,324.7,362.7,325.2,362.4z M372.6,342c0.1,0,0.1,0.1,0.2,0.1c-0.1,0.2,0,0.1-0.1,0.2v0.1
			h-0.1L372.6,342L372.6,342z M478,360.7c-0.4,0.1-0.5,0.2-0.7,0.4c-0.1,0.3,0.1,2.7-0.1,2.9c0,0.1-0.3,0.1-0.4,0.2
			c0,0.2-0.1,0.4-0.1,0.6c-0.2,0.4-0.7,1-1.1,1.2c-1.2,0.7-4,1.9-5.7,1.3h-0.7l-0.4-0.4c-0.4-0.2-0.6,0.1-0.9-0.3
			c-1.7-2.1-3-4.2-4.2-6.8c-0.3-0.8-0.3-1.6-0.5-2.2c-0.1-0.2-0.3-0.5-0.4-0.7c0-0.4-0.1-0.7-0.1-1.1c-1.3-4.3-2.7-8.7-6.1-10.9
			v-0.3c-0.9-0.1-1-0.7-1.5-1c-0.1,0-0.2,0.2-0.4,0.2c-0.1-0.1-0.1-0.2-0.2-0.3c-0.4-0.2-0.9-0.2-1.3-0.4V343
			c-0.2,0-0.4,0.1-0.6,0.1l-0.4-0.4c-0.9-0.4-3.8-0.8-4.5-0.5c-0.1-0.1-0.2-0.2-0.3-0.4c-0.5,0.1-1.2,0.5-1.7,0.6
			c-0.5,0.1-0.9-0.2-1.3-0.1c-2.9,0.9-6.2,1.8-8.8,3.5c-0.2,0-0.4,0.1-0.6,0.1c-0.1,0-0.1,0.3-0.2,0.4c-0.2,0.1-0.6,0.2-0.7,0.3
			h-0.4c-0.1,0.1-0.1,0.4-0.3,0.4c-0.4,0.2-0.8,0.3-1.2,0.5c-0.1,0.1-0.1,0.3-0.2,0.4c-0.2,0.2-0.6,0.2-0.9,0.4
			c-0.1,0.1-0.2,0.3-0.4,0.4c-1.1,0.7-2.1,1.5-3.1,2.3l-0.3,0.5c-0.5,0.4-0.9,0.3-1.2,1.1c-0.1,0.2,0,0.4,0.2,0.6
			c0.4,0.8,1.3,0,1.4-0.5c0.1,0,0.2,0.1,0.3,0.1c0.3-0.6,0.4-0.4,0.9-0.8c0.2-0.2,0.3-0.6,0.5-0.8c0.2-0.2,0.4-0.2,0.7-0.4
			c0.3-0.2,0.4-0.6,0.6-0.8h0.4c0.1-0.1,0.2-0.4,0.3-0.4c0.2-0.2,0.6-0.1,0.8-0.3c0.1-0.1,0.1-0.4,0.3-0.4c0.4-0.3,1-0.3,1.3-0.5
			c0.1-0.1,0.6-0.7,0.7-0.8c0,0,0.7-0.1,0.9-0.2c0.2-0.1,0.6-0.5,0.8-0.7c0.4-0.1,0.8-0.2,1.2-0.3c0-0.1,0.1-0.2,0.1-0.3
			c0.2-0.1,0.4-0.1,0.5-0.2c0-0.1,0.1-0.2,0.1-0.3c0.2-0.1,0.5,0.1,0.8,0c0.2-0.1,0.4-0.4,0.6-0.5h0.6c0,0,0.2-0.3,0.3-0.4
			c0.1,0,0.3,0.1,0.4,0.1c0.2-0.1,0.5-0.3,0.6-0.4c0.2-0.1,0.7,0.1,1.1-0.1c0-0.1,0.1-0.1,0.1-0.2h0.4c0.1,0,0.1-0.3,0.2-0.4
			c0.2,0,0.4,0.1,0.5,0.1c0.8-0.3,1.6-0.4,2.4-0.4c0.7,0.1,1.7-0.2,2.1-0.3c0.3,0,1.1,0.3,1.4,0.4c0.3,0,0.2-0.2,0.4-0.2
			c0.1,0,0.4,0.4,0.5,0.4c0.5,0.2,0.8,0.1,1.3,0.3l0.4,0.4c0.5,0.2,1,0,1.4,0.3c0.5,0.3,0.9,1,1.4,1.2c0.8,0.4,1.9,1,2.2,1.9
			c0.1,0.1,0.1,0.1,0.1,0.3c0.9,0.1,0.7,0.8,1.1,1.4c0.6,1,1.3,2.5,1.7,3.7c0.2,0.7,0.2,1.2,0.4,1.9c1.8,4.8,2.4,10.1,6.5,12.6
			l0.9,0.9c1.3,0.7,3.3,0.4,4.6,0.1c0.2,0,0.4,0.1,0.5,0.1c2.1-0.8,4.7-2.3,5.4-4.6c0.1-0.8,0.1-1.6,0.2-2.4
			c-0.2-0.2-0.3-0.5-0.4-0.7C478.4,360.9,478.2,360.9,478,360.7z M358.8,390.1c1-0.8,2-1.7,3-2.4c0.6-0.4,1.1-0.6,1.6-1
			c0.7-0.6,1.4-1.6,2.7-1.7c0.2-1.2,3.3-1.9,4.3-2.6h1c0.5,0.3,0.9,2.2,1.1,2.8v1.2c0.1,0.5-0.2,1.7-0.2,2c0.5,2.7,0.5,4.4,2,6.1
			c0.1,0.2,0.3,0.5,0.4,0.7c0.6,0.4,2.7,0.8,3.1,0.4c0.4,0,0.5,0,0.6,0.3h0.2c0.3-0.7,1.1-0.9,1.5-1.5c0.1-0.1,0.1-0.3,0.2-0.4
			c0.1,0,0.2-0.1,0.4-0.1c0.4-0.4,0.3-1,0.5-1.6c0.1-0.3,0.4-0.9,0.3-1.5c-0.4-1.4-0.8-1.2-1.8-1.9c-0.2-0.3-0.5-0.6-0.7-0.9
			c-0.3-0.2-0.5-0.1-0.8-0.3c-0.1-0.2-0.3-0.4-0.4-0.6c0,0-0.2,0.1-0.4,0c-0.3-0.2-0.5-0.6-0.7-1c-0.3-0.4-0.8-0.8-1.1-1.2
			c-0.4-0.6-0.5-1.4-1-2h-0.1c-0.2-0.2-1.1-0.9-1.3-1.1c-0.2-0.1-0.5,0-0.6-0.2c-0.1-0.1-0.2-0.4-0.4-0.5c-0.7-0.4-1.4-0.1-1.9,0
			c-0.1,0-0.2-0.1-0.4-0.1c0,0.1-0.1,0.2-0.1,0.3c-0.3,0.2-0.7,0-1,0.2c-0.2,0.1-0.4,0.4-0.5,0.4c-0.9,0.5-1.6,0.7-2.5,1.2
			c-0.7,0.4-1.3,1.2-2,1.7c-0.3,0.2-0.8,0.2-1.2,0.4c-0.2,0.1-0.3,0.5-0.4,0.6c-0.8,0.6-1.6,1.1-2.4,1.7c-0.3,0.3-0.6,0.7-0.9,1
			c-0.3,0.2-0.5,0.4-0.8,0.5H358c0,0.1-0.1,0.2-0.1,0.4h-0.4c-0.4,0.3-0.8,1-1.2,1.2c-0.3,0.1-0.5,0.1-0.7,0.3
			c-0.1,0.1-0.1,0.3-0.2,0.4c-0.2,0.2-0.4,0.2-0.6,0.4c0,0.1-0.1,0.2-0.1,0.3c-0.2,0.1-0.5,0.2-0.7,0.3c-0.8,0.5-1.5,1.3-2.2,1.9
			c-0.1,0-0.3,0.1-0.4,0.1c-0.3,0.2-0.5,0.5-0.8,0.7c-0.3,0.1-0.5,0.2-0.8,0.3c-0.5,0.3-0.9,0.8-1.3,1.2c-0.5,0.4-1.4,0.6-2,1
			c-0.3,0.2-0.6,0.6-0.9,0.8c-0.8,0.5-1.7,0.6-2.4,1.1c-0.1,0.1-0.1,0.3-0.2,0.4h-0.5c-0.2,0.1-0.5,0.4-0.7,0.4h-0.4
			c-1,0.4-2.3,1.1-3.4,1.5c-0.4,0.2-1.2,0-1.8,0.2c-2,0.8-4,1-6.1,0.3c-0.4-0.1-0.8-0.1-1.2-0.2c-0.9-0.4-2.8-2.1-3.2-3
			c-0.9-2-0.8-7.5,0-9.6c0.8-2.3,1.6-4.4,2.8-6.3c0-0.2,0.1-0.4,0.1-0.6c0.2-0.4,0.7-0.8,1-1.2c0.5-0.8,0.8-1.8,1.4-2.5
			c0.1,0,0.2-0.1,0.3-0.1c0.2-0.3,0.2-0.6,0.4-0.8h0.2c0.1-0.2,0.1-0.5,0.3-0.6c0.1-0.1,0.3,0,0.4-0.1v-0.4c0.1-0.3,0.6-0.3,0.8-0.4
			c0.1-0.3,0.3-0.5,0.4-0.8c0.2-0.2,0.6-0.7,0.9-0.9c0.1,0,0.3-0.1,0.4-0.1c0-0.1,0.1-0.2,0.1-0.4c0.2-0.3,0.6-0.3,0.8-0.5
			c0.2-0.2,0.3-0.5,0.5-0.8c0.1-0.2,0.4-0.1,0.5-0.3c0.8-0.6,1.5-1.6,2.2-2.2c0,0,0.7-0.3,0.9-0.4c0.4-0.3,0.7-0.9,1.1-1.2
			c0.4-0.3,0.8-0.3,1.2-0.6c0.1-0.1,0.1-0.1,0.1-0.3c0.2-0.1,1.8-0.9,2-1.1v-0.4c0,0,0.3,0.2,0.4,0.1c0.1-0.1-0.1-0.1,0.4-0.3h0.1
			l0.2-0.4c0.2-0.1,0.4-0.1,0.6-0.2c0.3-0.2,0.5-0.5,0.8-0.7h0.4c0.4-0.2,0.8-0.8,1.2-1c0.6-0.3,1.3-0.4,1.9-0.8h0.1
			c0-0.1-0.1-0.1-0.1-0.2c1.7-0.7,3.3-2,4.9-2.8c0.8-0.4,1.4-0.4,2.1-0.8c0.6-0.3,1.4-1,2-1.2c0.6-0.2,1.1-0.3,1.6-0.5
			c0.3-0.1,0.6-0.5,0.9-0.6c0.1,0,0.3,0.1,0.4,0.1c0.3-0.1,0.9-0.5,1.2-0.7c0.8-0.4,1.6-0.5,2.4-0.9c0.3-0.1,0.6-0.4,0.9-0.5
			c0.5-0.2,1.4-0.1,1.8-0.4c0.1-0.1,0.1-0.3,0.3-0.4h0.5c0.1-0.1,0.2-0.3,0.3-0.4c0.1-0.1,0.6,0.1,0.9,0c0.1,0,0.2-0.3,0.3-0.4
			c0.2,0,0.4,0.1,0.6,0.1c0.8-0.2,0.7-0.6,1.6-0.4v-0.3c0.6-0.1,1.3-0.4,1.9-0.6c0.7-0.3,1,0.1,1.5-0.1c0.7-0.2,1.8-0.5,2.4-0.8
			c0.2,0,0.4,0.1,0.6,0.1c1.5-0.5,3.1-0.6,5-0.9c0.5-0.1,1.2,0.1,1.6,0.2c0.2,0,0.3-0.2,0.4-0.2c0.6,0.3,1.4,0,2.1,0.2
			c0.7,0.2,1.3,0,2,0.3c0.1,0,0.5,0.2,0.6,0.3c0.3,0.1,0.8-0.1,1.1-0.1c0.5,0.1,1.6,0.2,2.1,0.4c0.1,0,0.3,0.3,0.4,0.4
			c0.4,0.3,1.2,0.1,1.6,0.2c0.1,0,0.5,0.2,0.6,0.3c0.2,0,0.8-0.1,1.1-0.1c0.5,0.1,1.8,0.8,2,1.2h0.2c-0.1-0.3-0.3-0.8-0.6-1h-0.4
			c-0.3-0.2-0.4-0.7-0.7-0.9c-0.5-0.3-1.2-0.2-1.6-0.4c-0.1-0.1-0.4-0.3-0.5-0.4c-0.4-0.1-1,0.1-1.2,0c-0.1-0.1-0.2-0.2-0.3-0.4
			c-0.3-0.2-0.7,0-1.2-0.2l-0.4-0.4c-0.2-0.1-0.4,0.2-0.7,0.1c-0.7-0.2-1.5-0.1-2.1-0.2c-1.3-0.2-2.9-0.4-4.7-0.3
			c-0.5,0-1.1-0.3-1.9-0.1c-0.4,0.1-0.8,0.3-1.2,0.4c-0.2,0-0.2-0.1-0.3-0.2c-0.1,0-0.4,0.2-0.5,0.2c-0.1,0-0.2-0.2-0.4-0.1
			c-0.4,0.1-1.5,0.5-2,0.4c-0.9-0.1-2.1,0.5-2.9,0.8c-0.1,0-0.3-0.1-0.4-0.1c-0.8,0.2-1.6,0.5-2.5,0.8c-0.5-0.1-2.9,0.9-3.5,1.1
			c-0.4,0.1-0.9,0-1.2,0.1c-0.1,0.1-0.2,0.2-0.3,0.4c-0.5,0.3-1.5,0.3-1.8,0.4c-1.6,0.7-3.5,1.5-5,2.3c-0.9,0.5-1.5,0.4-2.3,0.8
			c-0.7,0.3-1.7,1.1-2.4,1.4c-0.2,0-0.5,0.1-0.7,0.1c-0.1,0.1-0.2,0.2-0.3,0.4c-1,0.5-1.8,0.8-2.8,1.2c-0.6,0.3-1.2,0.9-1.8,1.2
			c-0.5,0.3-1,0.3-1.5,0.6c-0.8,0.5-1.8,1.1-2.6,1.6c-0.2,0.1-0.4,0-0.6,0.2c-1.6,1.2-3.2,2.2-5,3.2c-0.1,0.2-0.3,0.4-0.4,0.5
			c-1.1,0.7-1.9,1.4-2.8,2.1c-0.1,0.1-0.2,0.3-0.3,0.4c-2.2,1.4-4.3,3.3-5.9,5.4c-0.2,0.3-0.5,0.3-0.8,0.5c-0.3,0.2-0.3,0.6-0.5,0.9
			c-0.3,0.5-0.9,0.8-1.2,1.2c-0.2,0.2-0.1,0.5-0.3,0.8c-0.1,0.2-0.6,0.3-0.7,0.5c-0.3,0.4-0.3,0.8-0.5,1.2c-0.3,0.5-0.9,1.1-1.2,1.7
			c-0.7,1.4-1.3,2.8-2,4.1c-0.2,0.4-0.1,0.8-0.3,1.3c-0.3,0.8-0.7,2-1,2.8v0.9c-0.1,0.4-0.5,2.6-0.4,3.4l0.2,0.4
			c0,1.7,0.2,3.7,1.1,5c0.5,0.8,1.8,2.1,2.7,2.6c0,0,0.3,0.4,0.4,0.4h0.6c0.4,0.1,1.1,0.5,1.5,0.6c0.2-0.1,1-0.1,1.6,0.1
			c1.3,0.3,3.2-0.1,4.4-0.4c0.4,0,0.9-0.1,1.3-0.1c0.2-0.1,0.3-0.4,0.5-0.4c0.7-0.3,1.1-0.3,1.6-0.5c0.3-0.1,0.9,0,1-0.1
			c0,0,0.4-0.5,0.4-0.5h0.5c0.1-0.1,0.1-0.2,0.2-0.3c0.4-0.2,0.9-0.2,1.2-0.4v-0.3c1.2-0.1,2.5-1.2,3.4-1.8c0.4-0.2,0.7-0.2,1.2-0.4
			c0.5-0.3,1-0.9,1.5-1.2c0.8-0.4,1.7-0.8,2.4-1.3c0.1-0.1,0.2-0.4,0.3-0.4c0.4-0.3,1-0.4,1.4-0.7c0-0.1,0.1-0.2,0.1-0.3
			c0.1,0,0.3-0.1,0.4-0.1c0.2-0.1,0.3-0.6,0.5-0.7c0.2-0.1,0.4-0.1,0.5-0.2c0.1-0.1,0.2-0.4,0.3-0.4c0.2-0.1,0.4,0,0.6-0.2
			c0-0.1,0.1-0.2,0.1-0.3c0.3-0.3,0.9-0.7,1.3-0.9v-0.3C357.7,391.5,358.2,390.6,358.8,390.1z M317.3,352.6
			c-1.3,1.3-2.9,2.2-4.4,3.3c-0.3,0.3-0.5,0.8-0.9,1.1c-0.3,0.2-0.7,0.3-1,0.5c-0.2,0.3-0.3,0.7-0.6,0.9c-0.8,0.6-1.5,0.9-2,1.9
			c-0.2,0-0.4-0.1-0.6-0.1c-0.6,1.5-1.8,2.2-2.8,3.2c-0.4,0.4-0.6,0.9-1,1.3c-0.5,0.5-1.2,0.8-1.4,1.5c-0.1,0.1-0.1,0.1-0.1,0.3
			c0.9-0.2,2.1-2,2.7-2.7c0.5-0.6,1.4-1.1,2-1.7c0.1-0.1,0.1-0.3,0.2-0.4c0.1-0.1,0.3-0.1,0.4-0.2c0.1-0.1,0-0.3,0.1-0.4
			c0.2-0.1,0.5,0,0.6-0.2c0.1-0.1,0.1-0.4,0.2-0.5c0.2-0.3,0.7-0.3,1-0.5c0.1-0.2,0.2-0.5,0.3-0.7c0.2-0.3,0.6-0.2,0.9-0.4
			c0.1-0.1,0.1-0.4,0.3-0.5h0.4c0-0.1,0.1-0.3,0.1-0.4c0.4-0.4,1-0.6,1.4-0.9c0.7-0.5,0.7-1.3,1.9-1.3c0.2-0.4,0.3-0.9,0.7-1.1
			c0.1,0,0.3-0.1,0.4-0.1c0.2-0.1,0.2-0.5,0.4-0.6c0.2-0.1,0.3,0.2,0.5,0v-0.2c0.3-0.2,0.4-0.4,0.8-0.5c0-0.1,0.1-0.3,0.1-0.4
			C317.6,352.7,317.6,352.7,317.3,352.6z M465.9,386.4c0-0.2-0.3-0.8-0.3-1.1c0.1-0.6,0-1.7-0.2-2.1c-0.2-0.5,0-1.7-0.3-2.4
			c-0.1-0.2-0.4-0.6-0.5-0.9c-0.6-1.1-0.7-2.2-1.4-3.2c-0.2-0.2-0.5-0.4-0.6-0.6c-0.2-0.3-0.2-0.6-0.4-0.9c-0.2-0.3-0.7-0.6-0.9-1
			c-0.2-0.3-0.3-0.9-0.5-1.2c-0.3-0.4-0.9-0.6-1.2-1c-0.5-0.6-1-1.5-1.7-2c-0.1,0-0.2-0.1-0.4-0.1c-0.1-0.1-0.1-0.3-0.3-0.4
			c-0.3-0.2-0.7-0.4-1-0.7c-0.1-0.1-0.1-0.3-0.2-0.4c-0.3-0.2-0.7-0.2-1.1-0.4l-0.7-0.7c-0.3-0.2-0.7-0.2-1-0.4
			c-0.5-0.3-1.1-0.8-1.7-1h-0.5c-0.2-0.1-0.3-0.4-0.5-0.5H450c-0.2-0.1-0.7-0.3-0.8-0.4c-0.2,0-0.3,0.2-0.4,0.2
			c-0.2,0-1-0.2-1.2-0.3c-0.5,0-0.5,0.1-0.8,0.3c0,0.2,0,0.3,0.1,0.4c0.5,0.8,3.9,0.9,5.1,1.4c0.2,0.1,1.4,0.9,1.5,1.1
			c0,0.1,0.1,0.2,0.1,0.4c0.3,0.1,0.5,0.1,0.8,0.2c0.6,0.3,1.6,1.1,2.2,1.5c0.4,0.3,0.8,1,1.2,1.4c0.6,0.6,1.2,1,1.8,1.6
			c0.5,0.5,0.7,1.4,1.2,2c0.3,0.4,0.9,1,1.2,1.4c0.8,1.7,1.7,3.4,2.3,5.3c0.1,0.6,0.1,1.2,0.2,1.8c0.5,2,0.2,4.4-0.2,6.3
			c0,0.2,0.1,0.5,0.1,0.7c-0.1,0.4-0.3,0.9-0.4,1.4v0.8c-2.3,7-7.7,13.1-14.8,15.3c-0.3,0.1-0.7-0.1-1.2-0.1c-0.1,0-0.4,0.3-0.5,0.4
			c-0.1,0-3.3,0.1-3.5,0c-1-0.4-2.1-1-3.1-1c-0.1-0.5-2.2-1.9-2.7-2.5c-1.6-2.1-3.2-4.4-4.4-6.9c-3-6.7-3.7-15.3-5.8-22.9
			c0-0.4-0.1-0.8-0.1-1.2c-0.5-1.7-0.7-3.7-1.3-5.3c-0.2-0.4-0.6-0.9-0.8-1.2c-0.1-0.3-0.1-0.5-0.2-0.8l-0.8-0.8v-0.4
			c-0.2-0.3-1.1-1.3-1.4-1.5c-0.5-0.3-0.6,0-1.2-0.3c-0.1,0-0.3-0.3-0.4-0.4l-1.6-0.2c-0.1,0-0.3,0.2-0.4,0.2
			c-0.1,0-0.2-0.2-0.4-0.2l-0.3,0.3c-0.4-0.1-0.8,0.1-1.2,0.2c-0.4,0.1-0.8-0.1-1.2,0l-0.3,0.3c-0.2,0.1-0.5,0-0.6,0
			c-0.2,0.1-0.4,0.4-0.5,0.4h-0.4c-0.1,0-0.3,0.3-0.4,0.4c-0.2,0-0.4,0.1-0.5,0.1v0.2c-0.2,0-0.5,0.1-0.7,0.1
			c-0.3,0.1-0.8,0.5-1.2,0.6c-0.3,0.1-0.7,0.1-1,0.2c-0.4,0.2-1,1.2-1.6,0.9c-0.3,0.2-0.1,0.4-0.3,0.5c-0.1,0.1-0.5,0.1-0.6,0.2
			c-0.1,0.1-0.1,0.2-0.2,0.4c-0.2,0.1-0.9,0.3-1.1,0.4c-0.1,0.1-0.1,0.4-0.3,0.4c-0.3,0.2-0.5,0.1-0.8,0.3c-0.5,0.3-1,0.9-1.4,1.2
			c-0.9,0.7-1.9,1.2-2.7,2c-0.2,0.2-0.2,0.6-0.4,0.8c-0.3,0.3-1,0.7-1.2,1c-0.3,0.4-0.2,0.6-0.8,0.7c-0.1,0.6-1.7,2.3-2.1,2.8
			c-0.3,0.3-0.3,0.8-0.5,1.2c-0.6,1-1.3,1.9-1.8,3c-0.2,0.4,0.1,1.1,0.1,1.3c0,0.7-0.2,1.5-0.1,2.3c0.2,0.1,0.4,0.2,0.7,0.2
			c0.3-0.1,0.5-0.2,0.8-0.3l0.4,0.4c0.6,0.3,1.3,0.4,2,0.2c0.6-0.2,2.3-1.9,2.6-2.5v-0.4l0.4-0.4l0.3-0.8c0.1-0.1,0.3-0.2,0.4-0.3
			c0.3-0.6,0.3-1.2,0.5-1.8c0.4-0.9,1.2-1.7,1.2-2.8h0.3c0.2-0.4,0.3-1,0.5-1.3c0.2-0.3,0.6-0.6,0.8-1c0.2-0.4,0.2-0.9,0.4-1.2
			c0.2-0.1,0.4-0.2,0.6-0.4c0.3-0.5,0.4-0.9,0.8-1.2v-0.4c0.4-0.1,0.3-0.1,0.5-0.1c0.2-0.4,0.7-1.2,1.1-1.1c0.4-0.3,0-0.3,0.2-0.5
			c0.1-0.2,0.5-0.1,0.6-0.2c0.2-0.2,0.4-0.5,0.5-0.7c0.4-0.3,0.7-0.4,1.1-0.6c0.2-0.1,0.1-0.4,0.3-0.5c0.3-0.4,1.4-1.3,1.8-1.5
			c0.4-0.2,1-0.5,1.4-0.6h0.5c0.2-0.1,0.5-0.4,0.7-0.4c0.2,0,0.5-0.1,0.7-0.1c0.1-0.1,0.1-0.3,0.4-0.4h1.2c0.2-0.1,1.3-0.3,1.7-0.2
			c0.7,0.1,1.8,0.4,2.3,0.7l1.1,1.1v0.5c0.2,0.2,0.4,0.4,0.6,0.5c0.2,0.4,0.2,0.7,0.4,1.2c0.3,0.7,0.8,1.7,1.1,2.5v0.8
			c0.1,0.3,0.1,0.8,0.3,1.2c0.1,0.3,0.3,0.8,0.4,1.1c0.1,0.4-0.2,0.6,0,1.1c0.1,0.3,0.4,0.8,0.5,1.2v1.2c0.1,0.6,0.1,1.2,0.3,1.9
			c0.1,0.4,0.5,1.1,0.6,1.6c0,0.4,0.1,0.8,0.1,1.2c0.2,0.6,0.5,1.4,0.6,2v1.1c0.2,0.8,0.5,1.8,0.7,2.7c0.2,0.6,0,1.1,0.2,1.7
			c0.3,1.1,0.8,2.6,1.2,3.7c0.2,0.7,0,1.1,0.3,1.8c0.1,0.2,0.4,0.5,0.4,0.7c0.1,0.3,0.1,0.6,0.2,0.9c0.3,0.9,0.8,1.8,1.2,2.8
			c0.6,1.4,1.6,2.7,2.4,3.9c0.2,0.3,0.2,0.6,0.4,0.9c0.2,0.3,0.6,0.4,0.8,0.7c0.6,0.7,0.9,1.6,1.6,2.2c1.3,1.2,2.9,2.3,4.7,2.8
			c5.1,1.3,9.6-0.7,13.2-3.2c0.1-0.1,0.2-0.3,0.3-0.4c0.6-0.6,1.4-0.9,2-1.5c0.4-0.4,0.7-0.9,1.1-1.2c1.3-1.2,2.2-2.6,3.1-4.1
			c0.3-0.5,0.9-1.1,1-1.8h0.3c0.1-1,0.9-2.1,1.2-2.9c0-0.4,0.1-0.9,0.1-1.3c0.1-0.2,0.4-0.5,0.4-0.8c0.4-1.2,0.4-3,0.6-4.3
			c0-0.3-0.1-0.5-0.2-0.6C465.9,387.1,465.9,386.8,465.9,386.4z M464.1,417c-0.7-0.2-0.4-0.6-0.7-1.2v-0.1h-0.2
			c0,0.5,0.2,1.1,0.1,1.3c-0.3,0.6-1,0.6-1.6,0.9c-1.3,0.7-3,1.2-4.4,1.8h-0.5c-0.1,0-0.5,0.2-0.5,0.3c-0.1,0-0.3-0.1-0.4-0.1
			c-0.1,0.1-0.3,0.4-0.5,0.4c-0.3,0.1-0.9,0.2-1.2,0.4l-2.3,0.3c-0.2,0-0.1-0.2-0.4-0.2c-0.2,0-0.4,0.4-0.5,0.4h-0.6
			c-0.1,0-0.4,0.2-0.5,0.3c-0.3,0-0.6-0.1-0.9-0.1c-0.1,0.1-0.1,0.1-0.2,0.2c-0.2,0-0.7-0.1-1.1,0c-0.2,0.1-0.3,0.2-0.5,0.3
			c-0.1,0-0.3-0.1-0.4-0.1c-0.4,0.1-1.3,0.3-1.7,0.3c-2.3-0.3-5.4-1.8-7.1-3.5c-0.3-0.3-0.3-0.7-0.5-1.1c-0.2-0.3-0.6-0.4-0.7-0.7
			c-0.3-0.8,0-1.8-0.4-2.4c0-0.4-0.1-0.4-0.3-0.6h-0.8c-0.2,0.1-0.3,0.6-0.5,0.8c-0.6,0.5-2.1,1.4-2.4,2.4c-0.2-0.1-0.1,0-0.2-0.1
			c-0.3,0.1-1.9,1.9-2.2,2.2c-0.2,0.1-0.4,0.1-0.5,0.2c-0.1,0.1-0.1,0.2-0.2,0.4c-0.2,0.2-0.7,0.6-1,0.8c-0.4,0.2-0.8,0.3-1.2,0.5
			c-0.5,0.3-0.9,0.9-1.3,1.2c-0.2,0.1-1,0.7-1.2,0.7c-0.1,0-0.2-0.1-0.3-0.1c-0.1,0.1-0.2,0.3-0.3,0.4c-0.4,0.3-0.9,0.4-1.4,0.6
			c-0.3,0.2-0.6,0.6-0.9,0.8c-0.5,0.3-1,0.3-1.5,0.6l-0.4,0.4h-0.5c0,0.1-0.1,0.2-0.1,0.3c-0.4,0.3-0.8,0.3-1.3,0.5
			c-0.3,0.1-0.7,0.5-1,0.6c-0.4,0.2-0.8,0.2-1.2,0.4l-0.3,0.3h-0.7c-0.2,0.1-0.4,0.4-0.6,0.4c-0.6,0.2-0.8,0-1.2,0.4
			c-0.4-0.1-0.6-0.2-0.7-0.6c-0.2,0.1-0.2,0.3-0.4,0.4c-0.2,0.1-1.2,0.4-1.8,0.3c-0.1,0-0.2-0.2-0.4-0.2c-1.1,0.2-5-1.5-5.9-2.1
			c-0.2-0.2-0.4-0.5-0.6-0.7c-1.3-0.9-2.1-1.6-3-2.8c-0.2-0.1-0.4-0.3-0.5-0.4c-0.3-0.5-0.2-1-0.4-1.5c-0.2-0.4-0.5-0.8-0.7-1.2
			c-0.4-1-0.7-2.4-1-3.4v-1.1c-0.2-0.7-0.3-2-0.4-2.8c-0.1-0.4,0.3-0.7,0.4-1v-1.7c0-0.2,0.2-0.5,0.3-0.7c0.1-0.5-0.1-1.2,0-1.5
			c0.1-0.3,0.4-0.9,0.4-1.3c-0.1-3.1,0.2-6.3-0.6-9.2c-0.2-0.7-0.1-1.3-0.4-1.9c-0.2-0.5-0.6-1.3-0.9-1.8c-0.2-0.3-0.7-0.4-1-0.8
			c-1.8,0.1-2.9,1.3-4.1,2c-0.4,0.3-0.9,0.3-1.2,0.6c-0.2,0.1-0.2,0.5-0.4,0.6c-0.3,0.1-0.5,0.2-0.8,0.3c-0.6,0.4-1,1.3-1.7,1.7
			c-0.4,0.2-0.9,0.3-1.2,0.5c-0.1,0.1-0.1,0.3-0.2,0.4c-0.3,0.3-0.5,0.1-0.7,0.3c-0.1,0.1-0.1,0.3-0.2,0.4c-0.2,0.2-0.7,0.7-1,0.9
			c-1,0.6-1.7,1.1-2.6,1.8c-0.2,0.2-0.4,0.4-0.5,0.6c-0.8,0.5-1.4,0.8-2.1,1.3c-0.2,0.1-0.2,0.5-0.4,0.6c-0.2,0.2-0.8,0.2-1.1,0.4
			c-0.2,0.2-0.4,0.5-0.6,0.7c-0.4,0.3-0.8,0.3-1.2,0.6c-0.1,0.1-0.1,0.3-0.2,0.4c-0.3,0.2-0.8,0.2-1.1,0.4c-0.1,0.1-0.2,0.3-0.3,0.4
			c-0.3,0.2-0.6,0.2-0.8,0.4c-0.4,0.2-0.7,0.7-1.1,0.9c-0.2,0.1-0.4,0.1-0.6,0.2c-2.4,1.4-5.8,4.7-9.3,3.6c0-0.1-0.1-0.2-0.1-0.3
			c0.1-0.1,0.2-0.1,0.3-0.2c-0.1-0.6-0.4-0.6-0.6-1c-0.5-0.9,0.7-3.4,1.1-3.8c0.2-0.2,0.6-0.2,0.7-0.4c0.3-0.4,0.6-1.1,0.9-1.4
			c0.2,0.2,0.4-0.1,0.6-0.2c0.5-0.3,0.8-0.7,1.2-1c0.3-0.2,0.7-0.2,1-0.4c2-1.4,5.6-4.2,3.3-7.1c-0.4-0.5-1-0.3-1.6-0.5
			c-0.2-0.1-0.4-0.4-0.6-0.4c-0.6,0.3-1.2-0.1-1.7,0.1l-0.3,0.3h-0.4c-0.4,0.2-0.6,0.7-0.9,1c-0.2,0.2-0.4,0.1-0.6,0.3
			c-0.5,0.3-0.8,1.2-1.2,1.4c-0.2,0-0.4,0.1-0.5,0.1v0.4c-0.2,0.3-0.6,0.6-0.8,0.9c-0.1,0.2-0.1,0.4-0.2,0.5c-0.1,0-0.2,0.1-0.3,0.1
			c-0.5,0.5-0.6,1.3-1,2c-0.2,0.3-0.6,0.7-0.7,1c-0.2,0.5-0.2,1.6-0.4,2c-0.1,0.2-0.4,0.5-0.5,0.8c0,0.4-0.1,0.8-0.1,1.2l-0.3,0.3
			c0.1,0.5-0.2,0.8-0.1,1.2c0.1,0.4,0.3,1,0.4,1.3v0.5c0.2,0.5,0.7,0.8,1,1.2c0.2,0.2,0.2,0.5,0.4,0.7c0.1,0.2,0.4,0.1,0.6,0.3
			c0.2,0.2,0.4,0.4,0.5,0.6c0.7,0.4,1.3,0.1,2,0.2c0.2,0,0.6,0.2,0.8,0.2c1.7-0.4,3.3-1.4,4.6-2.2c0.6-0.3,1.3-0.5,1.8-0.9
			c0.1-0.1,0.1-0.3,0.3-0.4c1.1-0.6,2.1-1.1,3.1-1.8c0.1-0.2,0.3-0.4,0.4-0.5c0.3-0.2,0.6-0.2,0.9-0.4c0.2-0.2,0.3-0.6,0.5-0.7h0.5
			c0.1-0.1,0.1-0.4,0.2-0.4c0.2-0.2,0.6-0.2,0.9-0.4c0.7-0.5,1.4-1.2,2-1.7c0.2-0.2,0.5-0.2,0.8-0.4c0.3-0.3,0.5-0.5,0.8-0.8
			c0.2-0.2,0.5-0.1,0.7-0.3c0.3-0.2,0.6-0.7,0.9-1c0.2-0.2,0.6-0.2,0.9-0.4c0.2-0.2,0.3-0.6,0.4-0.7c0.2-0.2,0.5-0.1,0.7-0.3
			c0.2-0.2,0.4-0.6,0.6-0.7c0.3-0.1,0.7-0.2,0.9-0.4c0.2-0.1,0.2-0.5,0.4-0.6c0.4-0.4,1-0.5,1.4-0.9c0.1-0.1,0.2-0.4,0.4-0.5
			c0.9-0.6,1.7-1.1,2.6-1.7c0-0.1,0.1-0.2,0.1-0.3c0.1,0,0.2-0.1,0.4-0.1c0.3-0.3,0.6-0.7,0.9-0.9c0.7-0.5,1.7-0.6,2.3-1.2
			c1.2,0.2,1.6,3.4,2,4.7v0.8l0.3,0.8c-0.1,0.4-0.3,1.2-0.2,1.6c0.5,2,0.2,5.5-0.4,7.3c-0.3,0.8-0.1,2-0.4,2.7
			c-0.1,0.2,0.1,2.1,0.2,2.6c0.2,0.9,0,1.6,0.3,2.5c0.3,1.1,0.6,2.3,1.1,3.2c0,0.3,0.1,0.5,0.1,0.8c0.1,0.1,0.3,0.3,0.4,0.4
			c0.2,0.4,0.1,0.7,0.4,1c0.1,0.1,0.2,0.2,0.4,0.3c0.3,0.6,0.4,1.3,0.9,1.8c0.1,0.1,0.4,0.1,0.4,0.3c0.1,0.2,0.1,0.5,0.3,0.6
			c0.4,0.3,0.8,0.5,1.2,0.8c0.6,0.4,1,1.1,1.6,1.5c0.5,0.3,1,0.5,1.5,0.8c0.1,0.1,0.2,0.3,0.4,0.4c0.2,0.1,0.3-0.1,0.4-0.1
			c0.3,0.1,0.6,0.3,0.8,0.4h0.4c0.2,0.1,0.4,0.4,0.6,0.4c0.6,0.2,1,0,1.5,0.2c4.6,1.2,9.4-1.3,12.4-3.3c0.2,0,0.5-0.1,0.7-0.1
			c0.5-0.3,1-0.8,1.5-1.1h0.3c0.1-0.1,0.1-0.3,0.2-0.4c0.1,0,0.2,0.1,0.3,0.1c0.2-0.1,0.6-0.3,0.8-0.4c3.8-2.5,7.1-5.1,10.2-8.4
			c0.5,0.4,0.5,1.7,0.8,2.3c0.2,0.5,0.7,0.7,1.2,1.1c0.2,0.2,0.2,0.5,0.4,0.7c0.4,0.3,0.8,0.4,1.3,0.7c0.2,0.1,0.2,0.4,0.4,0.5
			c0.3,0.2,0.6,0,0.8,0.2c0.2,0.2,0.3,0.6,0.5,0.7c0.2,0.1,0.3-0.1,0.5,0c0.7,0.4,1.7,0.8,2.5,1.1h1c0.1,0,0.3,0.3,0.4,0.3
			c0.5-0.3,1.3-0.3,2.2-0.4c0.2,0,0.4,0.1,0.5,0.1c1-0.2,2.4-0.6,4.1-0.6v0.3c0.5-0.2,0.7-0.7,1.4-0.8l1.5-0.2
			c0,0.2,0.1,0.2,0.3,0.2c0.3-0.1,0.6-0.6,0.9-0.7c0.6-0.3,1.1,0,1.7-0.3c0-0.1,0.1-0.2,0.1-0.3h0.7c0.5-0.2,1.1-0.8,1.6-1
			c0.5-0.2,0.9,0.1,1.3-0.2c0.3-0.1,0.3-0.6,0.5-0.7c0.4-0.1,0.8-0.2,1.2-0.3c0.3-0.1,0.4-0.5,0.6-0.7c0.6-0.5,2.3-1.2,2.7-1.9
			c0.1-0.1,0,0,0.1-0.2l-0.1-0.1C465.6,416.2,464.4,416.7,464.1,417z"/>
	</g>
</g>
</svg>
