<?xml version="1.0" encoding="utf-8"?>
<!-- Generator: Adobe Illustrator 19.2.1, SVG Export Plug-In . SVG Version: 6.00 Build 0)  -->
<svg version="1.1" id="Calque_1" xmlns="http://www.w3.org/2000/svg" xmlns:xlink="http://www.w3.org/1999/xlink" x="0px" y="0px"
	 viewBox="0 0 841.9 595.3" style="enable-background:new 0 0 841.9 595.3;" xml:space="preserve">
<style type="text/css">
	.st0{fill:#C6C6C6;}
</style>
<g>
	<g>
		<path d="M330,225.7c33.7,0.3,69.4,5.1,98.9-11.6c3.6-2,5.3-7.1,6.3-10.8c0.2-0.6,1.8-9.7-1.4-7.9c-28.9,16.4-64,11.8-97.1,11.5
			C330.9,206.8,327.1,225.6,330,225.7L330,225.7z"/>
	</g>
</g>
<g>
	<g>
		<path d="M369.2,168.9c7.2,32.5,7.2,65.8,5.4,98.9c-0.2,4,2.9,8.1,7.2,6.4c4.7-1.9,6.6-7.5,6.8-12.1c1.9-34.6,1.5-69.4-6-103.4
			c-1-4.4-5.2-5.8-8.7-3.1C370.1,158.5,368.1,164.2,369.2,168.9L369.2,168.9z"/>
	</g>
</g>
<ellipse class="st0" cx="382.4" cy="288" rx="53.8" ry="4"/>
</svg>
