<?xml version="1.0" encoding="utf-8"?>
<!-- Generator: Adobe Illustrator 21.0.0, SVG Export Plug-In . SVG Version: 6.00 Build 0)  -->
<svg version="1.1" id="Calque_1" xmlns="http://www.w3.org/2000/svg" xmlns:xlink="http://www.w3.org/1999/xlink" x="0px" y="0px"
	 viewBox="0 0 841.9 595.3" style="enable-background:new 0 0 841.9 595.3;" xml:space="preserve">
<style type="text/css">
	.st0{fill:#DADADA;}
	.st1{fill:#1D1D1B;}
</style>
<ellipse class="st0" cx="407.8" cy="395.9" rx="114.7" ry="8.4"/>
<g>
	<g>
		<path class="st1" d="M526.5,359c-1.1-0.4-2-2.5-2.9-3.3c-1-0.9-2.4-1.5-3.2-2.8c-1.4-2.2-2.7-5.8-4.6-8.5l0.1-0.1
			c-0.3-0.7-0.9-2.7-1.4-3.3c-0.9-1.2-1.2-3.2-1.9-4.9c-0.7-1.8-1.3-3.7-1.9-5.4c0.1-0.3-0.2-2-0.3-2.4c-0.2-0.6-0.5-1.3-0.7-1.9
			c0.1-2.5-0.4-4.1-1-6.2c-0.1-2.6-0.2-5.3-0.3-7.9c-0.7-2.1,0-4.4,0.2-6.2c0.2-1.7-0.2-4.1,0-5.7c0.1-0.5,0.2-1,0.3-1.5
			c-0.4-2.7,0.6-9.3,1.8-12.9c-0.8-2.2,1.1-5,0.8-7.5c-0.3-2.6,0.8-5.5,1.7-8.1c0.8-2.4,0.9-5.4,1.5-7.6c1.5-5.4,3.7-10.5,5.6-15.2
			c0.6-1.7,1.3-3.3,1.9-5c1.6-2.2,3.8-6.5,2.1-9.4c-3.1-1-10.8,2.8-13.1,4.1c-11.6,6.7-17.7,20.4-22.1,32.6
			c-1.7,4.6-7.6,14-13.9,12.7c-7-1.5-11.1-6.4-14.4-12c-1.2-2.3-2.4-4.7-3.6-7c-4.3-5.3-7.3-11.7-10.7-17.6
			c-5.3-9.2-17.6-18.6-30.4-20c0-0.1-0.1-0.1-0.1-0.2c1.9-2.3,8.8-11.4,4.8-14.2c-1.7-1.1-5.2-0.5-7-0.7c-2.5,0.3-4.9,0.6-7.4,0.9
			c-7,1.7-14.1,2.5-20.6,5.3c-4.9,2.2-9.9,6.6-14.1,9.7c-1,0.7-1.5,2.1-2.4,2.8c-0.9,0.2-1.8,0.5-2.7,0.7
			c-5.5,3.1-11.7,5.3-17.1,8.6c-6.8,4.2-13.3,8.4-19.6,13c-3.1,2.6-6.1,5.2-9.2,7.8c-1.8,1.8-3.6,3.6-5.4,5.4
			c-5.8,5.8-11.9,12.6-16.3,20.1c-0.9,1.5-4,8-5.1,8.6c-1.4,0.8-2.5,1.2-3.7,2c-1.3,0.9-2.3,2.6-4.3,2.8c0,1-0.6,1.4-0.8,2.3
			c-0.6,2.6,1.9,3.1,3.9,3.2c0,0.1,0.1,0.1,0.1,0.2c-2.6,4.8,2.1,8.7,5.3,10c0.9,0.4,3.3,0.1,4.1,0.6c0.3,1,0.6,2,0.9,3
			c1.5,2.2,3.9,4.3,6.1,5.8c4.4,3.1,8.2,7.4,12.7,10.4c11,7.3,22.4,14,35.5,18c2.7,0.8,6.4,2,8.8,2.6c2,0.5,4,0.3,6.1,0.9
			c2.5,0.7,6.4,1.5,9.2,0.6c0.5,0.5,0.4,1.5,0.8,2.4c0.9,1.3,1.7,2.6,2.6,3.9c1.2,1.1,2.6,2,3.8,3.1c0.1,0.3,0.3,0.7,0.4,1
			c2,1.3,4.9,2.9,6.8,4.3c2,1.5,6.1,3.6,9.1,1.5c1.5-1.1,3.7-2.5,4.5-4.4c0.5-1.2,0.4-2.5,1.1-3.6c0.8-1.3,1-2.5,1.2-4.3
			c6.2,0.1,16.1-5,20.5-7.7c1.5-0.9,2.6-1.8,4-2.6c0.3,0,0.5,0.1,0.8,0.1c1.3-1.4,3.1-1.9,4.7-3c0.9-0.7,1.4-1.6,2.6-2
			c0.1,0.2,0.3,0.4,0.4,0.6c7.9-0.5,13.7-2.1,19.5-4.3c1.4-0.5,3.4-0.9,4.7-1.8c1.4-1,2.5-2.6,3.9-3.6c1.1-0.8,2-0.8,2.9-1.8
			c1.1-1.2,2.2-3.5,3.7-4c0.1-1.3-0.1-1.9-1.3-2.1c-3.1,1.7-7.7,4.4-12.3,3.3c0,0.1,0,0.3,0,0.4c-1.1,0.2-5.1,0.8-6.8,0.1
			c-0.1,0-0.1,0-0.2,0c0.8-1.5,2.6-2.3,3.7-3.5c0.6-1,1.2-1.9,1.8-2.9c1-1.2,2-2.4,2.8-3.5c2.6-3.6,4.9-6.9,7.3-10.5
			c2.7-4,9.1-6.7,13.7-4c1.2,1,2.5,2.1,3.7,3.1c5.8,5.3,6.6,12.4,8.9,20.1c1.2,4,3.4,9.2,5.7,12.8c0.7,1.5,1.4,3,2.1,4.5
			c3.1,5.4,8,11.1,14,13.3c1.4,0.5,4.9,3.2,6.6,2.3c0.4-0.5,0.9-0.9,1.3-1.4C526.6,360.9,526.4,360,526.5,359z M520.7,235.7
			c0.3-0.1,0.5-0.3,0.8-0.4c0.1,0,0.2,0,0.3,0c-0.1,0-0.1,0.1-0.2,0.1c-0.1,0.2-0.1,0.3-0.2,0.5c-0.2,0-0.3-0.1-0.5-0.1
			C520.9,235.8,520.8,235.8,520.7,235.7C520.7,235.8,520.7,235.7,520.7,235.7z M419.5,212.7c0.1,0.1,0.3,0.1,0.4,0.2
			c0,0.1,0,0.3,0,0.4c-0.1,0-0.1,0.1-0.2,0.1c-0.1-0.1-0.1-0.1-0.2-0.2c-0.1-0.1-0.1-0.3-0.2-0.4
			C419.4,212.8,419.5,212.7,419.5,212.7z M419.6,215.9c0.1,0,0.2,0,0.3,0c0,0.7-0.2,0.9-0.6,1.2c-0.1,0-0.2-0.1-0.3-0.1
			C419.1,216.4,419.3,216.3,419.6,215.9z M418.3,218.7c0.2,0.2,0.1,0,0.2,0.3c-0.1,0.1-0.3,0.3-0.4,0.4c0,0.1-0.1,0.1-0.1,0.2h-0.1
			C418.1,219.3,418.2,219,418.3,218.7z M416.3,212.4c0.3,0,0.5,0,0.8,0c0.1,0.1,0.1,0.2,0.2,0.3c-0.4,0-0.7,0-1.1,0
			C416.3,212.6,416.3,212.5,416.3,212.4z M416.6,215.4c0,0.3,0.1,0.6,0.1,0.9c-0.1,0.1-0.1,0.2-0.2,0.3c-0.5-0.2-0.4-0.3-0.5-0.7
			C416.2,215.7,416.4,215.6,416.6,215.4z M470.6,331.9c0.1,0,0.2,0,0.3,0c-0.1,0.2-0.2,0.3-0.3,0.5c-0.1,0-0.3,0.1-0.4,0.1
			c0-0.1-0.1-0.3-0.1-0.4C470.3,332,470.5,332,470.6,331.9z M466.9,332.8c-0.1,0.4-0.1,0.3-0.3,0.5c-0.4-0.2-0.4-0.2-0.5-0.5
			C466.4,332.8,466.7,332.8,466.9,332.8z M463.6,334.2c-0.1-0.3-0.1-0.6-0.2-0.9c0.2,0,0.3,0,0.5,0c0.1,0.4,1.5,2.9,1.6,2.9
			c-0.1,0.4-0.2,0.4-0.5,0.6c-0.6-0.6-0.6-0.8-1.6-1.1c-0.6,0.3-0.6,0.3-0.6,0.9h-0.1c-0.1-0.4-0.1-0.8-0.2-1.2
			C463.3,335.3,464,335,463.6,334.2z M462.8,337.5c0.1,0.2,0.3,0.3,0.4,0.5c-0.2,0.3-0.5,0.4-0.9,0.5
			C462.7,338,462.8,338.2,462.8,337.5z M514.9,347.6c0.1,0,0.2,0,0.3,0c0,0.1,0.1,0.3,0.1,0.4c-0.1,0-0.2,0.1-0.3,0.1
			s-0.2-0.1-0.3-0.1C514.8,347.9,514.9,347.7,514.9,347.6z M509.7,276.8c0,0.1-0.1,0.2-0.1,0.3c-0.4-0.3-0.6-0.4-1-0.4
			c-0.1-0.1-0.1-0.2-0.2-0.3c0.3-0.3,0.7-0.5,1-0.8c0.2,0,0.3,0,0.5,0C509.9,276,509.8,276.4,509.7,276.8z M508.5,268.7
			c0.1,0.1,0.3,0.2,0.4,0.3c0,0.1,0.1,0.3,0.1,0.4s-0.1,0.2-0.1,0.3c-0.1,0-0.1,0-0.2,0C508.7,269.4,508.6,269,508.5,268.7z
			 M509.5,271.5c0.4-0.1,0.9-0.3,1.3-0.4h0.1C510.7,271.8,509.9,271.8,509.5,271.5z M512.3,264.8c-0.5,0.3-0.3,0.2-1,0.1
			c0-0.2,0-0.5,0-0.7c-0.2-0.2-0.3-0.2-0.7-0.3c-0.3-0.5,0-0.6,0.3-1.4c0.5,0.6,1.1,1.1,1.6,1.7
			C512.5,264.4,512.4,264.6,512.3,264.8z M519.2,244.8c-0.3-0.1-0.5-0.2-0.8-0.3c-0.1-0.2-0.1-0.3-0.2-0.5c0.3,0.1,0.7,0.1,1,0.2
			c0.1,0,0.1,0,0.2,0C519.4,244.4,519.3,244.6,519.2,244.8z M517,242c-0.1-0.6-0.3-0.8-0.9-1c0-0.3,0.1-0.6,0.1-0.9
			c0.3,0.2,0.2,0.2,0.3,0.5c0.8,0.6,1.2,0.5,2.3,0.4c0.1,0.1,0.3,0.3,0.4,0.4C518.6,241.7,517.6,241.7,517,242z M413,217.4
			c0.4-0.3,0.6-0.2,0.8-0.7h0.1c0.4,0.2,0.3,0.1,0.4,0.6C413.9,217.4,413.5,217.4,413,217.4C413.1,217.5,413.1,217.5,413,217.4
			C413,217.5,413,217.4,413,217.4z M412.6,218.7c0.4,0.2,0.7,0.6,1,0.9c0.3-0.1,0.7-0.2,1-0.3c-0.3,0.8-0.6,0.6-1.1,1.3
			c-0.1,0.1-1.1-0.4-1.8-0.1c0.4-0.6,0.5-0.9,0.1-1.5C412.1,218.9,412.4,218.8,412.6,218.7z M409.3,212.7c0.1,0.1,0.1,0.1,0.2,0.2
			c0,0.1-0.1,0.2-0.1,0.3c-0.1-0.1-0.1-0.1-0.2-0.2c-0.1,0-0.1,0-0.2,0C409.1,212.9,409.2,212.8,409.3,212.7z M405.7,213.4
			c0.1,0,0.2,0,0.3,0c0,0.1,0,0.3,0,0.4c-0.1-0.1-0.3-0.1-0.4-0.2C405.7,213.5,405.7,213.5,405.7,213.4z M307.2,274.7
			c0.1,0.1,0.2,0.1,0.3,0.2c-0.1,0.1-0.1,0.1-0.2,0.2h-0.1C307.2,275,307.2,274.8,307.2,274.7z M305.5,278.2c0.1,0.2,0.1,0,0,0.2
			C305.5,278.3,305.5,278.3,305.5,278.2z M287.3,302.1V302c7.8-14.5,24.3-1.2,37.8-1.6c-1.8,2.1-5.8,1.9-9,2.7
			c0.1-0.4,0.2-0.9,0.3-1.3c0-0.1-0.1-0.1-0.1-0.2c-0.4-0.1-0.9-0.1-1.3-0.2c-0.7,0.5-0.9,0.9-1,1.8c-1.2-0.1-2.5-0.2-3.7-0.3
			c0-0.1,0-0.2,0-0.3c0.4-0.5,0.8-0.8,0.6-1.7c-0.5-0.3-0.9-0.5-1.5-0.2c-0.5,0.2-0.8,1.3-1.3,1.8c-0.4-0.1-0.9-0.2-1.3-0.3
			c-0.1-0.1-0.2-0.1-0.3-0.2c0.6-0.6,1.3-1.2,1.9-1.8c-0.3-0.6-0.5-0.8-1-1.2c-0.9,0.1-2,1.5-2.1,2.5c-0.7,0.2-1.7-0.2-2.2-0.6
			c-0.3-0.2-0.3-0.2-0.4-0.5c0.3-0.4,0.5-0.9,0.8-1.3c-0.1-0.4-0.2-0.7-0.3-1.1c-0.5-0.1-0.8-0.2-1.3-0.1c-0.5,0.7-1,1.3-1,2.4
			c-0.4-0.1-0.8-0.2-1.2-0.3c-0.4-0.3-0.2-1-0.3-1.6c-0.6-0.4-0.9-0.5-1.7-0.3c-0.2,0.5-0.2,1-0.1,1.7c-0.6,0.1-1.1,0.2-1.7,0.3
			c-0.2-0.5-0.3-1-0.5-1.5c-0.5-0.4-0.7-0.4-1.5-0.3c-0.2,0.9-0.1,1.4,0.2,2.2v0.1c-0.6,0.2-1.2,0.4-1.8,0.6
			c0.1-0.7-0.1-1.1-0.5-1.6c-0.6,0.1-0.9,0.3-1.2,0.7c0,0.1-0.1,0.1-0.1,0.2c0.3,0.5,0.4,0.7,0.9,0.9v0.1
			C290.4,302.3,288.4,302.3,287.3,302.1z M297,312.9c-3.5-0.8-7.4-3.1-6.3-6.9c0.3-1.1,0.3-1.7,1.2-2.2h0.1c-0.3,1-0.9,2.3,0.8,2.1
			c0.6-0.9,0.9-1.8,1.1-3.1c0.7-0.2,1.3-0.3,2-0.5c-0.2,1-0.4,1.9-0.5,2.8l0.1,0.1c0.3,0,0.5,0.1,0.8,0.1c0.3,0.7,1.3-2.5,1.5-3
			c0.1-0.1,0.3-0.3,0.4-0.4c0.8,0.2,1.6,0.3,2.4,0.5c0.5,0.4-0.6,1.5-0.8,2.2c0.2,0.5,0.3,0.7,0.7,1c0.9-0.4,1.8-1.7,2.3-2.5
			c0.8,0.1,1.7,0.4,2.2,0.8c-0.4,0.6-0.8,0.9-0.8,1.8c0,0.1,0.1,0.1,0.1,0.2c0.4,0.2,0.6,0.1,1.2,0.1c1.2-1.1,1.5-1.7,3.6-1.3
			c-0.4,1-1.1,1.6-0.9,2.8c0.3,0.2,0.7,0.3,1,0.5c0.7-1,1.5-1.9,2.2-2.9c0.3,0.1,0.6,0.1,0.9,0.2c0.6,0.7,0.3,1.5,1.2,2.2h0.1
			c0.6-0.5,0.8-1.1,0.9-2.1c1.7-0.8,4.8-0.4,6.7-1l0.1,0.1c-2.7,3.6-11.9,6.6-17,7.9C302.4,312.9,298.9,313.3,297,312.9z M395.8,369
			h-0.1v-0.1c0.1-0.1,0.2-0.2,0.3-0.3l0.1,0.1C396,368.8,395.9,368.9,395.8,369z M397.6,371.1c0.1-0.1,0.1-0.2,0.2-0.3
			c0.1,0,0.3,0.1,0.4,0.1C398,371,397.8,371,397.6,371.1z M398.3,368.2c-0.2-0.5-0.4-0.4-0.9-0.5c-0.1-0.6-0.1-0.7,0.1-1.3
			c0.2,0.1,0.3,0.2,0.5,0.3c0.4,0.4,1.3-0.1,1.8,0c0.1,0,0.2,0,0.3,0C399.5,367.3,399,367.8,398.3,368.2z M396.2,365.4v-0.1
			c0.2-0.1,0.3-0.3,0.5-0.4c0.1,0,0.3,0,0.4,0c0.1,0.4,0.2,0.7,0.3,1.1C397,365.8,396.6,365.6,396.2,365.4z M403.4,367.9
			c-0.1,0.1-0.1,0.3-0.2,0.4c-0.2-0.2-0.4-0.3-0.6-0.5c0.1-0.4,0.1-0.7,0.2-1.1c0.3,0.3,0.7,0.6,1,0.9
			C403.7,367.7,403.6,367.8,403.4,367.9z M443.5,343.3c-0.3,0-0.5,0-0.8,0v-0.1c0.4-0.1,0.5-0.3,0.8-0.6c0.1,0.1,0.2,0.2,0.3,0.3
			c0.1,0,0.1,0.1,0.2,0.1C443.9,343.1,443.7,343.2,443.5,343.3z M459.4,339.7c0.3-0.6,0.2-1.4-0.1-1.9c0.4-0.1,0.5-0.1,0.7-0.3
			c0.7,0.3,0.8,1,1.1,1.6C460.6,339.3,460,339.5,459.4,339.7z M461.8,338.7c-0.2,0-0.3,0-0.5,0c-0.1,0-0.1,0-0.2,0
			c0.3-0.1,0.6-0.1,0.9-0.2C462,338.6,461.9,338.6,461.8,338.7z M460.3,333.5c0.4,0,0.9,0.1,1.3,0.1c-0.1,0.7,0,1,0.3,1.5
			c-1-0.2-1.3,0.1-1.8,0.6c-0.4-0.4-0.3-0.4-0.9-0.3c-0.1-0.2-0.1-0.5,0-1.2c-0.4-0.1-0.2-0.1-0.6-0.1
			C458.9,333.6,459.8,333.8,460.3,333.5z M457.6,333.8c-0.4,0.7-0.6,1-0.5,2c0.4,0,0.7,0,1.1,0c0.1,0.7,0.1,1,0.4,1.5
			c-0.2,0.3-0.2,0.1-0.2,0.5c-0.4-0.1-0.7-0.2-1.1-0.3c-0.2,0.4-0.1,0.3,0,0.7c-0.4,0.4-0.9,0.5-1.2,1c-0.6-0.3-0.8-0.4-1.5-0.5
			c-0.2,0.1-0.4,0.3-0.6,0.4c-0.1,0.6,0,1,0.2,1.5c0.5,0.1,1,0.1,1.5,0.2c0.1,0,0.3,0,0.4,0c-0.6,0.6-3.2,1.2-4.1,1
			c-0.1-0.4-0.3-0.9-0.4-1.3c-0.7-0.3-1-0.2-1.8-0.1c-0.1,0.7-0.2,1.1,0,1.8c-1.3,0.3-2.5,0.5-3.8,0.8c0-0.7,0-1.1-0.4-1.4
			c-0.1-1.5,6.4-6.5,7.7-8C454.8,333.7,456.2,333.7,457.6,333.8z M515.7,356.9c-4-2.6-6.3-6.6-9.3-10.5c-1-1.3-1.2-3.3-2-4.5
			c-2.5-3.9-3.9-8-5.2-12.2c-0.3-0.7-0.7-1.5-1-2.2c-0.5-3.3-1.3-6.7-3-10.1c-0.1-0.5-0.1-0.9-0.2-1.4c-3.1-5.1-8-10.9-14.6-12
			c-0.9-0.1-2,0.4-2.8,0.6c-5.1,1.1-6.7,3.8-9.5,7.2c-3.9,4.8-6.3,10.4-10.5,14.8c-4.5,4.8-9.5,9.2-14.4,13.6
			c-2.5,2.3-5.4,4.3-8.3,6.2c-0.8,0.5-2.5,1.8-3.4,1.5c-0.9,1.7-4.1,2.7-6,3.8c-3.8,2.1-11.8,6.3-17,6.2c-0.5-2,0.7-5.7-1.3-7.2
			c0,0-2.4,0.4-2.8,0.5c-0.3,0.4-0.5,0.8-0.7,1.4c0.6,0.9,1.4,0.8,2.5,0.6c0.1,0.3,0.2,0.5,0.3,0.8c-0.3,0.3-0.3,0.2-0.4,0.7
			c-1.5,0-1.2,0.4-2.2,0.8h-0.1c-0.3-0.8-0.6-1.2-1.4-1.4c-0.2,0.3-0.5,0.3-1.1,0.3c-0.1,0.8-0.6,1.6-0.1,2.1
			c-0.1,0.7,0.1,0.8,0.7,1c1.2-0.2,1.5-1,2.6-1.4c0.4,0.3,0.4,0.6,1,0.7c0.4,1.4,0.7,3.9,0.3,5.5c-0.1,0.1-0.2,0.1-0.3,0.2
			c0.1-0.5,0.1-0.6-0.1-1.2c0-0.4-0.7-1-1.4-1.1c-0.5,0.3-0.7,0.4-0.8,0.9c-0.2,0.4,0.3,1.5,0.7,2.5c0,0,0,0,0.1,0v0.1
			c0.2,0.4,0.4,0.8,0.5,1c0,0.1-0.1,0.3-0.1,0.4h-0.1c-0.2-0.5-0.4-0.7-0.3-1.4v-0.1c-0.7-0.3-1.4-0.5-2.1-0.8
			c0.1-0.5,0.2-1,0.3-1.5c-0.6-0.5-1.1-1.1-1.7-1.6c-0.5-0.5-1.6-0.1-1.9,0.5c-0.2,0.4,0,0.8,0.1,1.2c0.5,0.2,1.1,0.3,1.6,0.5
			c-0.2,0.7-0.3,0.7,0,1.4c0.3,0,0.7-0.1,1-0.1c0.1,0.3,0.3,0.5,0.4,0.8c0,0.1-0.1,0.2-0.1,0.3c-0.4,0.1-0.3-0.1-0.6,0.3
			c-0.4-0.1-0.6-0.2-0.7-0.6c-0.9,0.3-1.7,0.6-2.6,0.9c0.2-1.5-0.3-2.6-2.1-2.1c-0.2,0.5-0.2,1-0.2,1.6c0.3,0.3,0.5,0.3,0.7,0.7
			c-1.1,1.4-2,2.5-2.2,4.6c-0.2,0-0.4-0.1-0.6-0.1c-0.1-0.2-0.2-0.3-0.3-0.5c1.2-0.6,1-1,0.5-2c0.6-0.2,0.9-1.8,1-2.6
			c-0.2-0.2-0.1,0-0.2-0.3c-1,0-2,0-3,0c-0.2,0.2-0.4,0.4-0.6,0.6c0.1,0.9,0.3,1.8,0.4,2.7c0.4,0.1,0.3,0.1,0.5,0.3
			c-2.7-0.2-8.8-6.4-10.2-8.5c-0.9-1.4-1.3-3.2-2-4.8c-0.7-0.2-2.2-0.9-3.4-0.5c-0.9,0.3-3,0.7-4.2,0.3c-4.1-1.4-10.4-1.2-14.6-3
			c-4.7-2-10.1-2.8-14.6-5.3c-4.8-2.6-10.7-5.4-15.4-8.1c-4.3-2.5-8-6.1-11.9-8.9c-3.6-2.6-13.8-9.8-14.7-14.2
			c9-0.2,16.5-4.1,22.2-8.6c0.6-0.7,1.1-1.3,1.7-2c1.8-1.5,4.6-3.2,5.7-5.4c0-0.2,0-0.4,0-0.6c-0.3-0.2-0.5-0.4-0.8-0.6
			c-1.3,0-3.2,0.5-4.7,0.7c-1.8,0.3-5.9-0.2-7.4-0.7c-6.5-1.9-13.7-5.2-20.6-4.5c0.5-2.1,2.3-3.7,3.3-5.3c1-1.6,1.5-3.7,2.6-5.2
			c1.5-2,3.3-3.8,4.7-5.9c2.6-3.8,6.1-7.8,9.8-10.8c1.6-1.3,3.4-3.5,4.6-5c0.8-1,2.4-1.3,3.2-2.2c1.3-1.3,2.6-2.9,4.1-4
			c3.6-2.7,7.3-5.7,11.1-8c2.7-1.6,5.3-2.9,8-4.6c4.8-3.1,10-5.3,15.4-8c1.2-0.6,2.5-1.4,4-1.8c-0.6,1.1-1.7,2.2-2.9,2.7
			c0,0.4,0,0.8,0,1.2c0.2,0.1,0.3,0.2,0.5,0.3c0.3,0,0.7,0.1,1,0.1c1.4-1.6,3.4-3.3,4.4-5.2c0.6-1.2,1-2.2,1.9-3.1
			c2.8-3,6.7-5.1,10.2-7.3c2.1-1.4,4.6-3.6,7.7-3.9c-0.1,0.6,0.1,1,0.5,1.4c-0.3,1.1-0.5,1.2-0.4,2.3c0.7,0,1.4-0.2,2-0.4
			c0.2-0.7,0.4-0.9,0-1.5c0.1-0.1,0.1-0.2,0.2-0.3c1.2,0.4,2.3,0.4,3.1-0.6c0.1,0,0.1,0,0.2,0c-0.2-0.3-0.3-0.6-0.5-0.9
			c-1-0.2-1.6,0.1-2.5,0.5c-0.5-0.3-1-0.7-1.5-1v-0.1c0.2-0.1,0.4-0.1,0.6-0.2c0.4-0.2,0.9,0.3,1.4,0.7c0.1,0,0.3,0,0.4,0
			c0.4-0.5,0.4-0.7,0.6-1.3c0.3,0.3,0.4,0.7,0.8,0.9c0.8,0.3,2.2,0.3,3.2,0.2c0-0.2,0.1-0.5,0.1-0.7c0.5-0.1,0.9-0.2,1.4-0.3h0.1
			c0.1,0.5,0.3,1,0.4,1.5c-0.6,0.3-0.9,0.5-1.2,1.1c0.1,0.3,0.3,0.6,0.4,0.9c-0.6,0.2-0.9,0.5-1.1,1c0.1,0.4,0.3,0.9,0.4,1.3
			c0.4,0.1,0.7,0.2,1.1,0.3c0.3-0.1,0.6-0.3,0.9-0.4c0.1-0.3,0.1-0.7,0.2-1c-0.3-0.4-0.4-0.6-0.9-0.8c0-0.1-0.1-0.1-0.1-0.2
			c0.4-0.2,0.8-0.3,1-0.6c0.2-0.5-0.1-0.8-0.2-1.3c0.7-0.1,1.4-0.5,1.8-1c0.1-0.1,0.2-0.1,0.3-0.2c0.2,0.4,0.5,0.8,0.7,1.2
			c-0.4,0.6-0.9,0.8-0.9,1.8c0.4,0.4,0.6,0.6,1.1,0.9c0.4-0.1,0.8-0.1,1.2-0.2c-0.1-0.8-0.4-1.2-0.9-1.9c0.3-0.6,0.9-0.8,1.2-1.4
			c-0.3-0.8-0.8-0.9-1.3-1.5c-0.1,0-0.1-0.1-0.2-0.1v-0.1c1.6-0.3,1.6,1.1,3.1,0.8c-0.3,0.3-0.6,0.4-0.9,0.7
			c0.1,0.3,0.2,0.5,0.3,0.8c0.8,0.5,2.1,0.6,3.5,0.6c0-0.1,0-0.1,0-0.2c0.4-0.6-0.3-2.1-0.3-3.1c0.5,0.2,0.7,0.4,1.5,0.4
			c-0.1,0.5-0.1,0.4-0.3,0.7c0.3,0.4,0.5,0.7,1,0.9c-0.5,0.7-0.8,0.8-0.6,2c-0.4,0.1-0.9,0.3-1.3,0.4c-0.6,0.9-0.4,1.5,0.3,2.1
			c0.7-0.1,1.1-0.3,1.5-0.6c0,0.3,0.1,0.6,0.1,0.9c0.6,0.5,1.1,0.4,1.8,0c0.8,0.4,1.6,0.8,2.4,1.2c-0.6,1.8-2.3,2.6-3.2,4.1
			c-0.1,0-0.1,0-0.2,0c-0.1-0.2-0.3-0.3-0.4-0.5c0.9-0.1,0.9-0.4,1.3-0.9c-0.1-0.9-0.2-1-0.3-1.9c-0.4-0.2-0.8-0.4-1.2-0.6
			c-0.7,0.4-0.9,2.1-0.4,3c-0.6,0-0.7,0.1-1,0.4c0,0.3,0.1,0.6,0.1,0.9c0.3,0.1,0.7,0.3,1,0.4c0,0.1,0.1,0.1,0.1,0.2
			c-0.6,0.5-1.1,1-1.7,1.5c-0.4-0.4-0.9-0.7-1.1-1.3c0.5-0.1,0.5-0.3,0.8-0.5c-0.2-0.9-0.8-0.9-1.1-1.5c-0.1-0.2,0-1.2-0.1-1.6
			c-0.5-0.1-1-0.3-1.5-0.1c-0.1,0-0.1,0-0.2,0c-0.2,0.4-0.3,0.6-0.3,1.2c0.3,0.3,0.7,0.5,1,0.8c0.5,0.6,0.3,2.4,0.1,3
			c0.2,0.4,0.3,0.6,0.7,0.8c0.7,0.3,1.1-0.2,1.5-0.5c-1.1,2.5-5.4,4.2-6.7,6.5c-0.2,0.3-0.1,0.6,0.1,0.9c0.3,0.4,0.5,0.4,1.1,0.4
			c2-2,5.1-4.4,6.8-6.5c0.8-1,2-2.9,3.2-3.3c0.4-0.2,5.7,0.5,6.6,0.8c5.9,1.8,9.7,4.2,14.2,7.6c3.9,2.9,7.8,7,10.3,11.3
			c0.9,1.5,1.4,3.1,2.3,4.6c2.8,4.6,6.1,9.6,8.8,14.3c4.5,7.9,8.1,16.9,18.6,18.4c3.1,0.4,5.4-1.1,7.1-2.3c1.9-1.4,3.9-2.7,5.4-4.5
			c0.3-0.9,0.6-1.7,0.9-2.6c0.6-1.1,1.6-2.3,2.1-3.6c1-2.5,1.1-4.2,2-6.6c4-11.2,13.9-26.7,26.6-29.1c-0.2,0.6-0.2,0.9,0,1.3
			c-0.6,0.4-1,0.2-1.7,0.4c-0.8,0.3-0.9,1.1-1,2c-0.1,0-0.1,0.1-0.2,0.1c-0.1-0.9-1.6-1.3-2-0.4c0,0,0.3,4.4,0.4,4.9
			c0.6,0.4,1.6,0.5,2.1,0.7c0,0.4,0.1,0.7,0.1,1.1c-0.7,0.9-1.9,0.4-2.3,1.7c-0.6-0.2-1.3-0.3-1.9-0.5c-0.3-0.3-0.1-0.6-0.6-0.9
			c-0.5-0.6-1.9-0.4-1.9,0.8c0.2,0.2,0.3,0.3,0.5,0.5c0.4,0.4,0.9,0.4,1.5,0.2c0.4,0.6,0.8,1.1,1.1,1.6c0.4,0.2,0.6,0.2,1.1,0.1
			c0.1-0.4,0.2-0.7,0.3-1.1c0.2,0.1,0.5,0.1,0.7,0.2c0.3,0.9,0.3,1.3,0.6,2c-0.9-0.1-1.5-0.6-2.3-0.4c-0.5,0.1-0.8,0.5-0.6,1
			c-0.7-0.6-1.6-1.7-2.9-1.4c-0.1,0-0.2,0-0.3,0c-0.2,1.5,0.6,1.7,1.5,2.6c0.7,0,1.2-0.2,1.5-0.7c0.2,0,0.3,0,0.5,0
			c0.2,1,0,1.4,0.9,2.1c0.2,0,0.5,0.1,0.7,0.1c0,0.2,0,0.3,0,0.5c-0.5-0.2-0.6-0.3-1.3-0.3c-0.4,0.3-1.1,0.8-1.3,1.2
			c-0.2,0.5,0,1.9,0.3,2.4c0.3,0.6,0.7,0.6,1.4,0.9c-0.2,0.2-0.3,0.4-0.5,0.6c-0.6-0.3-0.7-0.9-1.3-1.2c-0.3,0-0.5,0-0.8,0
			c-0.4,0.4-0.6,0.5-0.8,1.2c-0.4-0.2-0.9-0.6-1.4-0.4c-0.2,0.2-0.3,0.3-0.5,0.5c0,1,0.6,1.4,1.6,1.4c0.5-0.4,0.8-0.9,1.7-0.9
			c0,0.7,0.2,0.9,0.4,1.3c-0.5,0.4-1.1,0.2-1.6,0.9c-1.7-0.5-2.1-0.2-2.3,1.4c0.3,0.1,0.5,0.1,0.8,0.2c-0.5,0.4-0.4,0.7-0.6,1.3
			c-0.7,0-1.3,0.1-2,0.1c-0.3,0.4-0.4,0.5-0.4,1.2c0.3,0.2,0.6,0.4,0.9,0.6c0.2,0,0.5-0.1,0.7-0.1c0.6-0.3,0.6-1.2,1.2-1.4
			c0.1,0,0.8,0.2,1.1,0.2c0.3,1,0.7,1.2,1.6,1.4c0,0.1-0.1,0.2-0.1,0.3s0,0.1,0,0.2c-1.6-0.1-1.8-0.4-3.3,0
			c-0.1,0.3-0.3,0.6-0.4,0.9c-0.5,0.5-1.1,0.2-1.5,0.9c0.1,0.9,1,2.7,1.9,2.9c0,0.7-0.1,1.3-0.1,2c-1,0.3-2.5,0.4-3.1,1.1
			c-0.3,0.3-0.2,0.3-0.3,0.7c0.3,0.6,0.7,0.8,1.2,1.2c0.8-0.1,0.8-0.3,1.2-0.7c0.4,0.2,0.4,0.1,0.9,0.1c-0.2,0.2-0.5,0.4-0.7,0.6
			c-0.1,0.6,0,0.8,0.1,1.4c0.6,0.1,0.9,0.4,1.5,0.3c0.1,0.1,0.1,0.1,0.2,0.2c0,0.6-0.1,1.1-0.1,1.7c-0.1,0.1-0.2,0.2-0.3,0.3
			c0-0.3-0.1-0.6-0.1-0.9c-0.4-0.1-0.8-0.1-1.2-0.2c0-0.1-0.1-0.1-0.1-0.2c0.1-0.1,0.3-0.2,0.4-0.3c-0.2-0.7-1.2-1.3-2.3-1
			c-0.1,0.3-0.3,0.5-0.4,0.8c0.3,0.7,1.8,2.2,2.5,2.6c0.4-0.1,0.7-0.2,1.1-0.3c0-0.1,0.1-0.2,0.1-0.3c0.1,0.9,0,2.1-0.3,2.6
			c-0.1,0-0.3,0-0.4,0c0-0.2,0.1-0.4,0.1-0.6c-0.5-0.2-0.8-0.5-1.4-0.4c-0.7-0.1-0.8,1-1.2,1.5c0.5,0.9,1.4,1.7,2.6,1.6
			c0,0.1,0.1,0.1,0.1,0.2c-0.4,0.9-0.2,2.7-0.4,3.4h-0.1c-0.3-0.5-0.5-1-1.2-0.9c-0.1,0-0.2-0.1-0.3-0.1c0.3-0.3,0.8-0.5,1-0.9
			c0.1-0.1,0.1-0.1,0.2-0.2c-0.6-0.5-0.8-1.1-1.8-1.2c-0.4,0.5-0.9,1-1.3,1.5c0.5,0.2,1,0.4,1.5,0.6c-0.8,0.2-0.6,0.9-1.1,1.1
			c0.1,0.6,0.3,0.8,0.5,1.3c0.7,0.5,2.1,0.9,2.1-0.3c0.1-0.1,0.2-0.1,0.3-0.2c-0.1,0.8-0.3,1.6-0.4,2.4c0,0.1,0,0.1,0,0.2
			c-0.5-0.6-0.3-0.9-1.4-0.9c0.1-0.3,0-0.1,0.2-0.3c0-0.1,0-0.2,0-0.3c-0.3,0-0.6,0.1-0.9,0.1c-0.4,0.7-0.2,1.7,0.3,2.6
			c0.8,0.2,1,0.3,1.7,0c-0.1,0.9,0,1.6-0.4,2.5c-0.5-0.1-1-0.1-1.5-0.2c-0.2,0.5-0.3,1.1-0.5,1.6c0.9,0.3,0.9,0.7,2,0.6
			c-0.2,1.4-0.3,2.7-0.5,4.1c-0.3,0.2-0.5,0.3-0.8,0.5c-0.3,0.5-0.6,2.5-0.6,3.2c-0.5,0-1.1,0.1-1.4,0.3c-0.1,0.1-1.2,1.9-1.3,2.1
			c0.1,1.1,0.5,1,0.9,1.6c0.3,0.3-0.1,1.3-0.1,1.9c0.2,0.2,0.4,0.3,0.6,0.5c0.4,0,0.8,0.1,1.2,0.1c0.3-0.3,0.6-0.7,0.9-1
			c0.1,0,0.3,0,0.4,0c0,0.1,0,0.1,0,0.2c0.4,0.6,0,1.5,0.1,2c0,0.1-0.1,0.2-0.1,0.3c-0.3-0.2-0.7-0.4-1-0.6
			c-0.5,0.3-1.1,0.5-1.1,1.1c-0.4,0.5-0.6,0.7-0.3,1.1c0.3,0.3,1,0.2,1.5,0.3c0.4-0.2,0.8-0.4,1-0.8h0.1c0,0.6,0,1.1,0,1.7
			c-1.2-0.1-1.5,0.6-2.2,1.2c-0.6-0.1-0.3-0.3-0.8-0.3c0-0.2,0.1-0.3,0.1-0.5c-1,0.1-1.6,0.7-2.2,1c1,1.6,0.9,2.1,3,1.5
			c0.2,0.6,0.1,0.3,0.6,0.4c-0.1,0.4-0.1,0.9-0.2,1.3c0.9,0.5,1.4,0.4,2.4,0.5c0,0.3,0,0.5,0.2,0.8c-0.6,0.3-1.6,0.1-2.4,0.6
			c0.1,0.5,0.2,1,0.3,1.5c0.9-0.3,1.5-0.4,2.2-0.9c0.2,1.3,0.4,2.6,0.6,3.9c-0.4,0.2-1.4,0.1-1.9,0.1c0,0.5-0.2,0.9-0.3,1
			c0.1,0.7,0.3,0.7,0.9,1c0.2,0.2,0.1,0.2,0.2,0.5c-1,0.6-2.8,1.4-3.3,2.5c0.2,0.3,0.3,0.7,0.5,1c0.9,0,1.1-0.1,1.9-0.2
			c0.1-0.6,0.3-1.2,0.2-1.7c0.4,0.3,0.9,0.4,1.5,0.6c0.4-0.2,0.6-0.3,0.8-0.7c0-0.2,0.1-0.3,0.1-0.5c-0.3-0.5-0.6-0.8-1.3-0.9
			c-0.1-0.1-0.1-0.3-0.2-0.4c0.3,0,0.7-0.2,1-0.5h0.1c0.7,0.8,0.9,2.4,1,3.7c-0.9,0.5-1.4,1-1.9,1.9c0.2,0.6,0.3,1.1,0.5,1.7
			c1.1-0.2,1.5-0.8,2.3-1c0.1,0.3,0.3,0.7,0.4,1c-0.2,0.6-0.9,1.5-1.2,2c0.6,0.1,1.2,0.3,1.8,0.4c0.6,0.9,1.5,2.3,1.6,3.4
			c-1,0-1.6,0.2-1.9,0.9c0.4,0.9,0.9,1,2,0.9c0.3-0.4,0.3-0.3,0.3-0.8h0.1c0.4,0.6,0.7,1.3,0.8,2.1c-1.1-0.3-1.5,0.2-1.5,1.1
			c0.5,0.7,0.9,0.8,1.9,0.9c-0.2,0.3-0.3,0.7-0.5,1c0.7,0.7,1,1.3,2.1,0.6c2,1.7,1.6,5.2,4.2,6.2c-0.1,0.7-0.4,2.6-0.9,3.1
			C518.6,359.8,516.3,357.3,515.7,356.9z M406.3,351.6c0,0.2-0.1,0.5-0.1,0.7c-0.2-0.3-0.1-0.4-0.1-0.7
			C406.2,351.6,406.3,351.6,406.3,351.6z M506.9,320.1c0,0.1-0.1,0.2-0.1,0.3h-0.1c-0.2-0.1-0.4-0.2-0.6-0.3
			c0.1-0.3,0.2-0.5,0.3-0.8C506.7,319.6,506.8,319.7,506.9,320.1z M505.4,306.9c0-0.1-0.1-0.1-0.1-0.2
			C505.5,306.8,505.4,306.8,505.4,306.9z M505.6,309.1c0.1-0.7,0.3-1.3,0.4-2c0.1,0.1,0.2,0.1,0.3,0.2c0.2,0.7,0.3,1.8-0.2,2.4
			c-0.5-0.3-0.9-0.4-1.4-0.1h-0.1v-0.1C504.9,309.1,505,309.1,505.6,309.1z M506.3,315.3c0-0.1,0.1-0.2,0.1-0.3
			C506.5,315.3,506.5,315.1,506.3,315.3z M519.7,359.2c1.1,0.1,1.7,0.5,2.4,0.2c-0.1,0.2-0.1,0.5-0.2,0.7c0.4,0.2,0.7,0.4,1.3,0.5
			C522.7,361,520.2,359.8,519.7,359.2z M257.7,219.7c1,0.6,2.6,0.5,3.8,0.2c1.5-0.4,3.1-0.3,4.1-1.4c2.6-2.9,0.5-6.9-2.9-7.2
			c-2.7,1.1-4.4,1.3-5.6,4.2c-0.2,0.6-0.6,1.4-0.3,2C256.7,218.3,257.1,219.3,257.7,219.7z M262.1,212.9c1.8,0,2.2,0.8,3,1.8
			c-0.2,3.4-2.1,4.1-5.8,4c-0.4-0.4-0.7-0.6-0.9-1.2C256.9,215.5,260.7,213.5,262.1,212.9z M263.4,213.9c-0.1-0.1-0.1-0.1-0.2-0.2
			c-0.3,0-0.5-0.1-0.8-0.1c-0.2,0-0.3,0.1-0.5,0.1c-0.7,0.7-1.5,1.2-1.8,2.3v0.1c0.3,0.1,0.3,0.2,0.8,0.2
			C261.7,215.5,262.8,214.9,263.4,213.9z M396.7,217.2c-1,0.6-0.6,1-0.1,1.9C398.4,219.7,398.6,217.1,396.7,217.2z M407.7,220.3
			c0.4-0.2,0.5-0.5,0.6-1.1c-0.3-0.3-0.6-0.7-0.9-1c-0.3,0-0.5,0-0.8,0c-0.3,0.7-0.4,0.9-0.4,1.8c0.2,0.1,0.5,0.3,0.7,0.4
			C407.3,220.6,407.5,220.5,407.7,220.3z M388.1,219.9c0.2-0.4,0-0.9-0.3-1.1c-0.3-0.1-0.6-0.1-0.9-0.2c-0.4,0.4-0.9,0.8-1.3,1.2
			v0.1c0.5,0.1,0.9,0.2,1.4,0.7C387.6,220.5,387.9,220.4,388.1,219.9z M396.5,222.1c0.2-0.2,0.4-0.3,0.6-0.5c0-0.2-0.1-0.3-0.1-0.5
			c-0.3-0.5-0.7-0.7-1.5-0.7c-0.1,0.2-0.3,0.4-0.4,0.6c0.1,0.3,0.1,0.5,0.2,0.8C395.7,222,395.9,222.1,396.5,222.1z M277.2,240.4
			c6.5,2.5,13.7,0.1,16.9-4.5c2.6-3.9,1.7-10.6-1.6-13.5c-1.6-1.4-4.9-1.1-7.1-1.5c-1.6,0.8-4.1,0.8-5.9,1.8
			c-0.9,0.5-1.5,1.4-2.2,2.1c-1.1,1.1-2.5,1.6-3.5,2.8C269.4,233,271.5,238.2,277.2,240.4z M273.4,233.4c-0.3-4.5,3.9-8,7.1-9.7
			c1.2-0.6,2.7-0.7,4-1.3c1.9,0.1,4.8-0.1,6.4,0.9c0.6,0.4,1.9,2.1,2.1,2.7c0.1,0.4-0.3,0.4-0.1,0.9c1.6,3.8,1.1,8.4-2.5,10.7
			c-2.3,1.5-6.2,3-9.8,2c-1.8-0.5-3.8-2-5.5-2c-0.6-1-1.3-2-1.9-3C273.2,234.5,273.4,233.6,273.4,233.4z M383.6,223.5
			c0.3-0.4,0.5-0.6,0.5-1.3c-0.3-0.3-0.5-0.4-0.7-0.9c-0.2,0-0.3,0-0.5,0c-0.3,0.1-0.6,0.2-0.9,0.3c-0.1,0.1-0.1,0.1-0.2,0.2
			c0.1,0.8,0.4,1.3,0.8,1.8c-0.2,0.1-0.4,0.1-0.6,0.2c0.1,0.3,0.1,0.7,0.2,1c0.1,0.1,0.1,0.2,0.2,0.3c0.8,0.2,1.5,0.3,1.8-0.5
			C384.5,224.2,384,223.9,383.6,223.5z M407.8,222.3c0.1,0.2,0.3,0.5,0.4,0.7c0.5,0.1,1.1,0.2,1.6,0.3c0.1-0.2,0.3-0.3,0.4-0.5
			c0.8-1-1-1.3-1.8-1.5c-0.1,0-0.1,0.1-0.2,0.1C408.1,221.7,408,222,407.8,222.3z M389.6,221.5c-0.3,0-0.5-0.1-0.8-0.1
			c-0.1,0.1-0.2,0.3-0.3,0.4c0,0.2,0.1,0.5,0.1,0.7c0.3,0.2,0.6,0.3,0.9,0.5c0.4,0.2,0.4-0.1,0.9-0.3c0-0.1,0.1-0.1,0.1-0.2
			C390.2,222.1,390.1,221.8,389.6,221.5z M394.9,225.4c0.4-0.2,0.9-0.5,1.3-0.7c0.1-0.1,0.2-0.1,0.3-0.2c0-0.3-0.1-0.6-0.1-0.9
			c-0.8-0.1-1.5-0.2-2.3-0.3c-0.1,0-0.1,0.1-0.2,0.1c-0.1,0.1-0.2,0.3-0.3,0.4C393.7,224.8,394.2,225.1,394.9,225.4z M405.3,225.9
			c0.5-0.4,0.9-1,1.2-1.7c-0.4-0.4-0.7-0.6-1.5-0.6c-0.3,0.3-0.7,0.5-1,0.8c0,0.2,0,0.4,0,0.6C404.4,225.5,404.5,225.8,405.3,225.9z
			 M276.4,231.3c0.1,0.1,0.3,0.1,0.4,0.2c2-2.4,2.6-5.4,6.6-5.9c0-0.2-0.1-0.4-0.1-0.6c-0.5-0.4-0.7-0.5-1.6-0.5
			c-1.8,1.1-3.1,1.9-4.3,3.6c-0.5,0.9-0.9,1.7-1.4,2.6C276.2,231.1,276.1,231.1,276.4,231.3z M376.7,225.8c0,0.2,0,0.3,0,0.5
			c0.4,0.2,0.8,0.4,1.2,0.6c0.4-0.2,0.7-0.5,1.1-0.7c0-0.2,0.1-0.3,0.1-0.5c-0.6-0.3-0.7-0.9-1.5-1
			C377.3,225.1,377,225.4,376.7,225.8z M387,229.4c-0.4,0.3-0.5,0.3-1.1,0.3c0.2,0.4,0.3,0.8,0.5,1.2c0.5,0.3,0.8,0.4,1.5,0.3
			c0.2-0.4,0.3-0.4,0.4-1C387.9,229.8,387.8,229.6,387,229.4z M402.3,233.3c0.1,0,0.2,0,0.3,0c-0.2-0.9-0.1-0.6,0.1-1.5
			c-0.3-0.5-0.7-0.7-1.3-0.9c-0.4,0.2-0.8,0.4-1.2,0.6C400.9,232.4,401.2,232.9,402.3,233.3z M372.8,231c-0.1,0.6-0.2,0.8,0.1,1.4
			c0.3,0.2,0.5,0.4,0.8,0.6c0.6,0,0.8-0.1,1.1-0.4c0.1-0.1,0.2-0.1,0.3-0.2c0-0.6-0.1-0.8-0.3-1.2
			C374.2,231.1,373.5,231.1,372.8,231z M514.7,246.9c0.2-0.1,0.4-0.3,0.6-0.4c0-0.3,0-0.5,0-0.8c-0.4-0.5-1-0.7-1.3-1.2
			c0.2-0.8-1.2-0.9-1.9-1.1c-0.2,0.2-0.4,0.3-0.6,0.5c-0.1,0-0.1,0-0.2,0c0.1,0.8,0.4,0.8,0.4,1.6
			C513.3,245.6,513.2,246.7,514.7,246.9z M271.6,262.9c0-0.1,0-0.2,0-0.3c-0.3,0-0.1,0.1-0.3-0.1c3.3-1.2,3.6-11.1,1.1-14.6
			c-0.5-0.3-1-0.7-1.5-1c-3.2-2.2-3.9-1.8-8.3-2.2c-1.8,0.9-4.1,0.8-5.7,1.9c-4.1,2.7-8.5,11.2-5.2,16.7c2.7,4.5,11.8,4.2,16.4,2.3
			C269.5,265,270.3,263.6,271.6,262.9z M259.7,245.9c0.1,0,0.1,0,0.2,0c-0.1,0.1-0.2,0.1-0.3,0.2C259.7,246,259.7,246,259.7,245.9z
			 M257.5,265c-2.7-0.9-4.4-2.4-5.4-4.8c-1.2-2.8,3.1-10.8,4.9-12c0.9-0.6,1.9-1.3,3-1.6c0.8-0.2,1.8-0.1,2.5-0.6
			c3.6,0.6,7.1,0.8,9,3.7c0.9,1.4,1.2,3.3,0.9,4.8c-0.3,1.5,0,3.3-0.5,4.7C270.5,263.1,263.6,266.9,257.5,265z M256.7,252.3
			c0.1,0.1,0.1,0.3,0.2,0.4c1.3-0.1,3.2-2.6,3.5-3.8c-0.2-0.2-0.3-0.3-0.5-0.5C258.3,249.5,257.6,250.4,256.7,252.3z M510.7,256.1
			c0.7,0,0.9-0.2,1.1-0.7c0.2-0.3,0.1-0.2,0.1-0.5c0.1-0.6-0.8-0.9-1.6-0.9C509.4,254.7,509.9,255.7,510.7,256.1z M506.4,258.3
			c0.2-0.1,0.3-0.2,0.5-0.3c0.1-0.3,0.1-0.5,0.2-0.8c-0.1-0.2-0.2-0.3-0.3-0.5c-0.5-0.1-1-0.2-1.5-0.3c-0.4,0.7-0.4,1-0.3,1.9
			C505.5,258.3,506,258.3,506.4,258.3z M264.4,260.2c0.2,0,0.4,0,0.6,0c0-0.1,0-0.1,0-0.2c-0.2-0.1-0.5-0.3-0.7-0.4
			C264.4,260,264.4,259.8,264.4,260.2z M263.5,261.1c0.1,0,0.3,0,0.4,0c0.1-0.1,0.1-0.3,0.2-0.4c-0.2,0-0.4,0-0.6,0
			C263.5,260.8,263.5,261,263.5,261.1z M506.7,262.3c0-0.3,0.1-0.5,0.1-0.8c-0.1-0.2-0.3-0.4-0.4-0.6c-0.4-0.1-0.7-0.1-1.1-0.2
			c-0.3,0.2-0.4,0.2-0.6,0.6c0,0.2-0.1,0.3-0.1,0.5C505.3,262.8,505.7,262.6,506.7,262.3z M263.1,261.1c0.1,0,0.2-0.1,0.3-0.1v-0.1
			c-0.1,0-0.2,0-0.3,0C263.1,261,263.1,261,263.1,261.1z M500.5,266.9c0.1-0.5,0.2-0.8,0-1.2c-0.3-0.5-0.9-0.7-1.7-0.7
			c-0.1,0.1-0.2,0.2-0.3,0.3c-0.1,0.3-0.2,0.5-0.3,0.8c0.3,0.5,0.5,0.7,0.9,1.1C499.6,267.1,500.1,267,500.5,266.9z M504.4,271.1
			c0.7-0.1,1-0.3,1.3-0.7c0-0.3,0-0.6,0-0.9c-0.3-0.2-0.7-0.4-1-0.6c-0.6,0.2-0.8,0.1-1.1,0.6c-0.2,0.5,0.1,1,0.3,1.4
			C504.1,271,504.3,271,504.4,271.1z M283.8,272.9c-1.2-1.7-2.3-3.3-4.9-3.6c-2,0.8-4.4,1.1-5.5,2.7c-0.5,0.7,0,1.5-0.2,2.6
			c-0.6,2.5-0.4,4.4,1.5,5.9c0.6,0.5,2.1,0.7,2.9,0.6c3.5-0.5,4.2-0.1,5.5-3.2c0.3-0.6,0.9-1.8,0.9-2.6
			C284.1,274.7,283.6,273.9,283.8,272.9z M274,273.4c0-0.1,0.1-0.1,0.1-0.2c0.1,0,0.1,0,0.2,0C274.1,273.4,274.3,273.3,274,273.4z
			 M274.6,273.5h0.1c0,0.1,0,0.2,0,0.3c-0.1-0.1-0.3-0.1-0.4-0.2C274.4,273.6,274.5,273.5,274.6,273.5z M280.9,278.4
			c-1.5,1.8-4.4,0.7-6,0c-0.4-1-0.3-1.9-0.5-3c0.3-0.1,0.5-0.3,0.8-0.4c0.2-0.6-0.3-0.8-0.2-1.5c0.3-1.7,1.8-1.7,3.2-2.3
			C282.1,271.1,283,275.9,280.9,278.4z M418.6,288.7c0-0.1-0.1-0.1-0.1-0.2c0.8-0.6,1.6-1.1,2.4-1.7c2.3-2.4-0.1-4.9-2.8-5.2
			c-1.6,0-3.1,0.1-4.7,0.1c1.1-1.2,13.6-8.7,5.1-10.8c-0.6,0.1-1.3,0.3-1.9,0.4c-5.8,2.6-10.4,6.9-14.9,10.8
			c-2.4,2.1-5.2,3.9-6.9,6.7c0.1,0.3,0.1,0.6,0.2,0.9c0.2,0.1,0.4,0.2,0.6,0.3c1.3-0.1,3.3-3.4,4.3-4.3c3.9-3.3,7.4-7.1,11.7-9.5
			c0.6,0.5,1.4,2,2.6,2.5c0,0.1,0.1,0.1,0.1,0.2c-1.8,1.7-4.5,3.1-6.5,4.5h-0.1c0-0.2-0.1-0.4-0.1-0.6c-1.3-0.3-1.8,0.5-2.6,0.9
			c0.3,0.6,0.6,0.9,0.6,1.5c0.7-0.1,1.2-0.1,1.7-0.4c0.1,0.1,0.1,0.1,0.2,0.2c-0.4,0.8-0.4,1-0.1,1.9c0.7,0.3,1.1,0.4,1.9,0.2
			c0.1-0.1,0.2-0.3,0.3-0.4c-0.2-0.5-0.4-1.1-0.6-1.6c1.7-0.7,4.3-1.9,6.9-1.6c-0.1,1.1,0,1.6-0.3,2.5c0.3,0.5,0.4,0.8,1.1,1
			c-1.7,1.5-5.1-0.2-6,1.8c1.3,1.8,3.4,0.4,5.8,1.1c1,0.4,1.9,0.9,2.9,1.3c0.2,0.2,0.4,0.5,0.6,0.7c-0.6,0.3-1.1,0.3-1.7,0.6
			c-0.6-1-1.2-2-2.9-2c-0.2,0.2-0.5,0.5-0.7,0.7c0.3,0.8,0.8,2.3,1.3,3.3c-0.4,0-0.7-0.1-1.1-0.1c-0.2-0.6-0.3-1.2-0.5-1.8
			c-0.4-0.3-1.3-0.1-1.6-0.1c-0.5,0.4-0.2,0.4-0.2,1.3c-0.1,0-0.1,0.1-0.2,0.1c-0.2-0.6-0.4-1.2-0.6-1.8c-0.9-0.3-1.5-0.4-2,0.4
			c0.3,0.9,0.1,1.1,0.2,2.3c0.3,0.4,0.7,0.7,1,1.1c0.7,0.4,1.6-0.3,2.3-0.1c2.2,0.6,6.1,1.6,8.3,0.1
			C424.9,293.6,421.4,289.5,418.6,288.7z M419.1,273.3c0.1,0.1,0.1,0.1,0.2,0.2v0.1c-0.1-0.1-0.2-0.1-0.3-0.2
			C419.1,273.4,419.1,273.3,419.1,273.3z M412.1,275.9c0.2-0.1,0.3-0.3,0.5-0.4c0.1,0,0.1,0,0.2,0
			C412.6,275.6,412.4,275.8,412.1,275.9z M416.9,276.7c-0.2,0.3-0.3,0.4-0.7,0.5c0-0.3-0.8-0.8-1.5-0.9c0-0.1,0.1-0.2,0.1-0.3
			c1.2,0,1.3,0.4,2.1,0.6V276.7z M416.5,273.1c0.1,0.1,0.3,0.1,0.4,0.2c0,0.1,0,0.3,0,0.4c-0.5,0-0.9,0.1-1.4,0.1
			C415.9,273.6,416.2,273.3,416.5,273.1z M414.2,275.9c0-0.2,0-0.3,0-0.5c-0.3,0-0.5-0.1-0.8-0.1c0-0.1-0.1-0.1-0.1-0.2
			c0.5-0.3,1-0.7,1.5-1c0.3,0.4,0.1,1.1,0.2,1.6C414.5,275.7,414.8,275.8,414.2,275.9z M406.7,284.7c0-0.1,0.1-0.1,0.1-0.2
			C406.8,284.6,406.9,284.6,406.7,284.7z M419.6,284.3c-0.3,0.1-0.7,0.1-1,0.2c-0.5-0.3-0.6-0.4-0.9-0.9
			C418.6,283.7,419.1,283.9,419.6,284.3z M417.6,286.8c0.1-0.1,0.1-0.3,0.2-0.4c0.1,0,0.3,0,0.4,0
			C418,286.5,417.8,286.7,417.6,286.8z M417.2,294.6c-0.2,0-0.3,0-0.5,0v-0.1c0.2-0.1,0.5-0.1,0.7-0.2c0,0.1,0.1,0.1,0.1,0.2
			C417.4,294.5,417.3,294.6,417.2,294.6z M417.6,294c0-0.1,0.1-0.2,0.1-0.3c0.1,0,0.1,0,0.2,0C417.8,293.8,417.7,293.9,417.6,294z
			 M276.9,274.3c0.1,0.5,0.1,1,0.2,1.5c0.5,0,0.8,0,1-0.2c0.1,0,1.4-1.7,1.4-1.7c0.2-0.2,0.3-0.4,0.5-0.6c-0.5-0.4-0.6-0.6-1.3-0.8
			C278,273.1,277.6,273.7,276.9,274.3z M279.3,273.5c0.1,0.2,0.1,0,0,0.2C279.3,273.6,279.3,273.6,279.3,273.5z M504.2,274.9
			c0.1-0.5,0.3-1,0.4-1.5c-0.5-0.3-1.1-0.5-1.6-0.8c-0.7,0.8-0.5,1.3,0,2.2C503.5,274.9,503.7,275,504.2,274.9z M499.3,274.1
			c-0.1,0.3-0.3,0.6-0.4,0.9c0.3,0.6,1.3,1.2,2.1,0.6c0.5-0.4,0.3-0.7,0.2-1.4c-0.4-0.3-0.4-0.4-1.1-0.4
			C499.9,273.9,499.6,274,499.3,274.1z M352.1,281.5c-4.5-10.1-18.7-2.2-14.8,7.3c0.8,1.9,5.4,4.4,8.4,3.6c0.9-0.4,1.7-0.7,2.6-1.1
			c0.6-0.3,1.3-0.5,1.9-0.8c1.9-2,2.5-4.2,2-7.1c0.2-0.2,0-0.1,0.3-0.1c0.1-0.1,0.1-0.2,0.2-0.3c-0.2-0.1-0.5-0.1-0.7-0.2
			C352.1,282.4,352.1,281.9,352.1,281.5z M340.1,288.4c-2.6-2.5,0.4-7,2.8-8.5c0.9-0.6,2.4-0.4,3.2-0.9c3.1,0.9,4.8,3.1,2.9,5.7
			c0.3,0.3,0.4,0.2,1,0.1C349.5,289.2,343.5,291.7,340.1,288.4z M410.2,281.1c0.1-0.3,0.3-0.7,0.4-1c0-0.1-0.1-0.3-0.1-0.4
			c-0.5-0.3-1-0.4-1.8-0.4c-0.3,0.4-0.5,0.8-0.8,1.2c0,0.6,0.2,0.8,0.6,1C409.1,281.7,409.7,281.3,410.2,281.1z M500.2,282.6
			c0.4,0.1,0.3-0.1,0.6-0.3c-0.1-0.4-0.1-0.7-0.2-1.1c-0.4-0.2-0.7-0.4-1.1-0.6c-0.3,0.1-0.7,0.2-1,0.3
			C497.9,282,499.1,283.2,500.2,282.6z M503.5,283.9c0.4-0.3,0.8-0.5,1.4-0.6c-0.2-0.8-1.2-1.3-2.3-1.3c-0.2,0.3-0.3,0.5-0.4,1
			c0.1,0.1,0.1,0.2,0.2,0.3C502.7,283.7,502.9,283.8,503.5,283.9z M342.6,282.9c-1.2,0.9-1.8,1.7-1.7,3.4c0.4,0.2,0.7,0.5,1.1,0.7
			c1.3,0.4,1.9-0.9,2.6-1.4c0.3-0.7,0.2-1,0.1-1.8C344.1,283.4,343.6,282.9,342.6,282.9z M414.8,287c0.2-0.4,0.3-0.8,0.2-1.4
			c-0.3-0.2-0.7-0.4-1-0.6c-0.4,0.2-0.7,0.1-1,0.4c-0.3,0.2,0,0.8,0.1,1.3c0.1,0.1,0.3,0.2,0.4,0.3C414,287,414.4,287,414.8,287z
			 M495,288c-0.5-0.5-1.1-0.5-2-0.5c-0.4,0.4-0.6,0.6-0.7,1.2c0.4,0.3,0.8,0.5,1.2,0.8c0.6-0.2,1.3-0.3,1.9-0.5
			C495.3,288.3,495,288.5,495,288z M403.9,287.8c-0.2,0.1-0.4,0.1-0.6,0.2c-0.1,0.2-0.3,0.5-0.4,0.7c0.1,0.3,0.1,0.5,0.2,0.8
			c0.9,0.7,1.3,0.6,2.4,0.1c0.1-0.2,0.1-0.4,0.2-0.6C405.3,288.4,404.7,288.1,403.9,287.8z M274.1,288.6c-2.1,0.9-4.5,1.1-6.3,2.3
			c-4.3,2.7-6.3,11.1-0.1,13.2C281.5,308.8,287.5,288.3,274.1,288.6z M276.1,289.7c0,0.1,0.1,0.1-0.1,0.2
			C276.1,289.8,276.1,289.8,276.1,289.7z M275.6,289.5c0.1,0,0.1,0.1,0.2,0.1c-0.1,0.1-0.2,0.2-0.3,0.3
			C275.6,289.8,275.6,289.6,275.6,289.5z M266.6,301.3c-3.5-2.7,1.5-9.3,3.8-10.1c1.7-0.5,3.8,0,4.8-0.8c2.1,1.1,4.2,1.7,4.6,4.2
			C280.8,300.7,271.6,305.1,266.6,301.3z M500.4,289.5c-0.3,0-0.6,0.1-0.9,0.1c-0.3,0.4-0.5,0.7-0.3,1.3c0.2,0.3,0.4,0.7,0.6,1
			c0.4,0,0.8,0,1.2,0c0.1-0.4,0.2-0.7,0.3-1.1c0.8,0.4,1.1,0.9,2.1,1c0.6-0.3,0.8-0.5,1-1.3c0-0.1-0.1-0.1-0.1-0.2
			c-0.9-0.4-2.2-0.6-2.7,0.4C501.3,290,501.2,289.7,500.4,289.5z M403.3,292.7c-0.1,0-0.1,0.1-0.2,0.1c-0.2,0.3-0.2,0.6-0.2,1.2
			c0.2,0.1,0.4,0.3,0.6,0.4c0.4,0,0.7,0,1.1,0c0.1,0,0.2-0.1,0.3-0.1c0-0.3,0.1-0.6,0.1-0.9c-0.1-0.1-0.1-0.2-0.2-0.3
			C404.4,292.8,404.1,292.7,403.3,292.7z M268.5,294.9c0,0.2,0,0.4,0,0.6c0.2,0,0.4,0.1,0.6,0.1c0.8-0.5,1.7-1,2.5-1.5
			c0.3-0.4,0.4-0.4,0.4-1c-0.4-0.2-0.6-0.3-1.3-0.3C269.9,293.6,269.2,294,268.5,294.9z M503.6,293.8c-0.2,0.2-0.3,0.3-0.5,0.5
			c0,0.4,0,0.6,0.2,0.9c0.6,1,2.5,0.6,1.9-0.7C505.3,293.9,504.4,293.7,503.6,293.8z M501,297.9c-0.7-0.3-1.4-0.2-1.9-0.3
			c0,0.2,0,0.4,0,0.6c-0.2,0-0.4-0.1-0.6-0.1c0.2,0.4,0.7,1.1,1.2,1.3c0.3,0.4,1.1,0,1.9-0.1C501.5,298.6,501.2,298.5,501,297.9z
			 M503.1,298.8c0.1,0.9,0.3,1.8,0.5,2.6c0.4,0.3,0.7,0.5,1.5,0.5c1.3-1,0.5-1.6,0.4-3c-0.6-0.4-0.9-0.7-1.8-0.7
			C503.5,298.4,503.3,298.6,503.1,298.8z M500.8,303.8c-0.1-0.2-0.2-0.5-0.3-0.7c-0.5,0-1-0.1-1.5-0.1c-0.2,0.2-0.4,0.5-0.6,0.7
			c0,0.2,0,0.3,0,0.5c0.6,0.4,0.8,0.5,1.5,0.7C500.3,304.5,500.6,304.4,500.8,303.8z M503.4,303.2c-0.5,0.4-1,0.7-1.5,1.1v0.1
			c0.2-0.1,0.5-0.1,0.7-0.2c0.2,0.3,0.5,0.6,0.7,0.9c-0.1,0.1-0.2,0.3-0.3,0.4v0.1c0.8-0.1,0.9-0.3,1.7-0.4c0.5-0.6,0.6-0.8,0.2-1.7
			C504.5,303.3,504.2,303.2,503.4,303.2z M495.9,303.7c0.2,0,0.3,0,0.5,0c0-0.1,0.1-0.1,0.1-0.2c-0.3,0-0.5-0.1-0.8-0.1
			C495.8,303.5,495.9,303.6,495.9,303.7z M393.7,303.7C393.7,303.7,393.7,303.6,393.7,303.7c-0.1-0.1-0.3-0.1-0.4-0.1
			c0,0.1,0,0.1,0,0.2c0.1,0,0.2,0.1,0.3,0.1C393.7,303.8,393.7,303.8,393.7,303.7z M500.8,304.6c0.1,0,0.2,0,0.3,0
			c-0.2-0.4,0.1-0.1-0.3-0.3C500.8,304.4,500.8,304.5,500.8,304.6z M499.7,310.2c0.1-0.3,0-0.6-0.3-0.8c-0.2-0.2-1.3-0.4-1.6-0.5
			c-0.4,0.5-0.2,0.9-0.8,1.3c0.2,0.6,0.6,0.6,0.8,1.1c0.7-0.1,0.8,0,1.4-0.1C499.4,310.9,499.6,310.5,499.7,310.2z M499.8,313
			c0.2,0.5,0.4,0.7,1,0.8c1.3,0.4,1.9-0.9,2.2-1.4c-0.5-0.5-1-0.8-1.9-0.8C500.6,312,500.3,312.6,499.8,313z M501.4,317.6
			c0.4-0.7-0.8-1.2-1.3-1.4c-0.2,0.1-0.5,0.1-0.7,0.2c-0.1,0-0.1,0-0.2,0c-1.1,2,1.2,1.8,1.9,2c0.2-0.1,0.3-0.2,0.5-0.3
			C501.6,317.9,501.5,317.8,501.4,317.6z M501.9,318.1c0.1,0,0.2-0.1,0.3-0.1c0-0.1,0-0.1,0-0.2c-0.1,0-0.2,0-0.3,0
			C501.9,317.9,501.9,318,501.9,318.1z M512.2,322.1c0.1,0,0.3,0,0.4,0V322c-0.3-0.3-1-0.4-1.6-0.4
			C511.4,322.1,511.7,322,512.2,322.1z M504.3,324.2c0.3-0.4,0-1.5-0.4-1.7c-0.2-0.2-0.5-0.2-1-0.2c-0.3,0.4-0.7,1.2-1.1,1.5
			c0.1,0.5,0.7,0.8,1.3,1.1C503.7,324.7,504,324.7,504.3,324.2z M505.4,328.6c0.8-0.7,0.6-2-0.6-1.7c0-0.4,0.2-0.2-0.2-0.4
			c-0.2,0.3-0.6,0.3-1.1,0.3c0,0.1-0.1,0.1-0.1,0.2c0.2,0.5,0.3,0.9,0.5,1.4C504.6,328.7,505,328.5,505.4,328.6z M455.1,337.7
			c1.1,0.1,1.9,0,1.8-0.8c0-0.1,0.1-0.1,0.1-0.2c-0.4-0.9-1-1.1-1.9-1.3c0,0.1,0.1,0.1,0.1,0.2c-0.4,0.4-0.9,0.7-1.3,1.1
			c-0.1,0.3-0.1,0.2-0.1,0.7C454.4,337.5,454.7,337.5,455.1,337.7z M506.8,336.5c-0.3,0.2-0.7,0.3-1,0.5c-0.1,0.1-0.2,0.1-0.3,0.2
			c0,0.1,0.1,0.3,0.1,0.4c0.3,0.6,0.7,0.9,1.5,0.9c0.4-0.5,0.7-1.2,0.4-1.9C507.3,336.6,507.1,336.5,506.8,336.5z M511.5,340.7
			c-0.6-1-1.3-1.2-2.4-1.4c-0.2,0.3-0.4,0.5-0.5,0.9c0.1,0.4,0.3,0.8,0.4,1.2c0.9,0.1,1.7,0.5,2.3-0.2
			C511.5,341,511.5,341.1,511.5,340.7z M509.1,344.7c-0.3,0.1-0.5,0.2-0.8,0.3c-0.5,0.3-0.5,0.6-0.5,1.4c0.8,0.3,1.1,0.9,1.6,1.1
			c0.1-0.5,0.1-0.5,0.6-0.6c0.3-0.5,0.2-1.1,0.2-2C509.9,344.8,509.5,344.8,509.1,344.7z M329.7,347.3c0.2,0.1,0.5,0.3,0.7,0.4
			c0.1,0,0.1-0.1,0.2-0.1c0-0.1,0-0.2,0-0.3c-0.3-0.1-0.6-0.2-0.9-0.3C329.7,347.1,329.7,347.2,329.7,347.3z M513.6,349.8
			c0-0.5,0-0.6-0.4-0.8c-0.1-0.4-0.3-0.6-1.1-0.6c-0.5,0.8-0.9,0.3-1,1.5c0.2,0.2,0.2,0.2,0.3,0.5
			C512.6,350.6,512.9,350.6,513.6,349.8z M386.4,350.3c-0.2,0-0.5-0.1-0.7-0.1c-0.4,0.6-0.6,1-0.5,1.9c0.2,0.1,0.5,0.3,0.7,0.4
			c0.6,0,1-0.2,1.6-0.3C387.3,351.3,387,350.8,386.4,350.3z M517.1,353.2c0-0.2,0.1-0.3,0.1-0.5c-0.2-0.2-0.3-0.4-0.5-0.6
			c-1.1-0.2-1.9-0.4-2.9-0.8c-0.3,0.2-0.5,0.4-0.8,0.6c-0.3,0.3-0.3,0.9-0.1,1.3c0,0.1-0.1,0.3-0.1,0.4c1.4-0.2,2.3-0.2,3.4,0.4
			C516.6,353.8,516.9,353.6,517.1,353.2z M396.6,352.7c-0.5-0.1-0.6-0.3-1.2-0.4c-0.1,0.1-0.1,0.3-0.2,0.4c-0.3-0.2-0.1-0.2-0.6-0.3
			c-0.2,0.4-0.3,0.9-0.5,1.5c0.4,0.3,0.6,0.7,0.8,1.2c0.5-0.1,1-0.2,1.5-0.3c0.1-0.7,0.1-1.3,0.2-2
			C396.6,352.8,396.6,352.7,396.6,352.7z M518.4,357.4c0.3-0.5,0.5-0.8,0.6-1.5v-0.1c-0.5-0.3-1.2-0.4-1.9-0.6
			C515.8,356.4,516.6,357.8,518.4,357.4z M400.2,356.4c0.3-0.1,0.1,0,0.3-0.2c-0.1,0-0.1,0-0.2,0
			C400.3,356.3,400.3,356.3,400.2,356.4z M397.3,356.6c-0.4,0.4-0.7,0.8-0.8,1.4c0.9,0.7,1.2,0.9,2.5,1.3h0.1
			c0.5-0.7,0.1-1.1-0.2-2.1C398.5,356.9,398,356.7,397.3,356.6z M394,360.2c0.1-0.5,0.1-1-0.1-1.3c-0.3-0.5-0.8-0.7-1.4-0.8
			c-0.2,0.3-0.4,0.5-0.6,0.8c0.1,0.6,0.2,0.7,0.4,1.1c0.5,0.2,1.1,0.1,1.6,0.2C394,360.2,394,360.2,394,360.2z M403.7,360
			c0.4,0.2,0.9,0.1,1.1-0.1c0.1-0.1,0.2-0.1,0.3-0.2c0-0.4,0.1-0.8,0.1-1.2c-0.6-0.2-1-0.4-1.9-0.4c-0.1,0.1-0.2,0.1-0.3,0.2
			c-0.1,0.6,0,0.9,0.1,1.4C403.3,359.8,403.5,359.9,403.7,360z M387.3,360c-0.2,0.3-0.4,0.6-0.6,0.9c0.2,0.6,0.5,0.7,0.7,1.2
			c0.5,0,1,0,1.5,0c0.1-0.2,0.2-0.5,0.3-0.7c-0.3-0.6-0.7-0.9-1.1-1.4C387.9,360,387.6,360,387.3,360z M393,361.3
			c-0.1,0-0.1,0.1-0.2,0.1c-0.1,0.3-0.3,0.5-0.4,0.8c0,0.2,0.1,0.4,0.1,0.6c0.5,0.2,0.8,0.4,1.5,0.4c0.4-0.4,0.6-0.6,0.9-1.1
			c-0.1-0.2-0.2-0.4-0.3-0.6C394.1,361.4,393.6,361.4,393,361.3z"/>
	</g>
</g>
</svg>
