<?xml version="1.0" encoding="utf-8"?>
<!-- Generator: Adobe Illustrator 15.0.0, SVG Export Plug-In . SVG Version: 6.00 Build 0)  -->
<!DOCTYPE svg PUBLIC "-//W3C//DTD SVG 1.1//EN" "http://www.w3.org/Graphics/SVG/1.1/DTD/svg11.dtd">
<svg version="1.1" id="Calque_1" xmlns="http://www.w3.org/2000/svg" xmlns:xlink="http://www.w3.org/1999/xlink" x="0px" y="0px"
	 width="841.89px" height="595.28px" viewBox="0 0 841.89 595.28" enable-background="new 0 0 841.89 595.28" xml:space="preserve">
<g>
	<g>
		<path fill-rule="evenodd" clip-rule="evenodd" d="M549.915,296.062c0.05-0.208,0.733-1.423,0.75-1.5
			c0.048-0.23-0.314-0.446-0.375-0.625c0.24-1.111-0.137-2.727-0.5-4c0.194-0.143,0.101-0.138,0.375-0.25
			c-0.169-0.759-0.533-1.421-0.75-2c0.635-2.613-0.536-5.494-1.125-7.625c-0.149-0.54,0.114-1.129,0-1.5
			c-0.117-0.377-0.615-1.069-0.75-1.5v-1.125c-0.196-0.696-0.599-1.822-0.875-2.5v-0.625l-0.5-0.5v-1.625
			c-0.037-0.075-0.416-0.565-0.375-0.75c0.019-0.084,0.235-0.475,0.125-0.75l-0.375-0.375v-1c-0.202-0.573-0.855-1.128-1.125-1.625
			c-0.181-0.333-0.089-0.682-0.25-1c-0.326-0.646-0.935-1.373-1.25-2c-0.042-0.333-0.084-0.667-0.125-1
			c-0.125-0.042-0.25-0.083-0.375-0.125c-0.084-0.417-0.167-0.834-0.25-1.25l-0.5-0.5c-0.606-1.12-0.759-2.284-1.375-3.375
			c-0.335-0.592-1.099-0.873-1.5-1.375c-0.313-0.392-0.236-0.91-0.5-1.375c-0.146-0.255-0.566-0.411-0.75-0.625
			c-0.084-0.25-0.167-0.5-0.25-0.75c-0.254-0.401-0.708-0.659-1-1c-0.347-0.403-0.318-1.068-0.625-1.5
			c-0.572-0.805-2.052-1.73-2.75-2.5c-0.084-0.25-0.167-0.5-0.25-0.75c-0.228-0.299-0.75-0.469-1-0.75
			c-0.411-0.462-0.504-1.134-0.875-1.625c-0.967-1.278-2.226-2.259-3.5-3.25c-0.447-0.348-0.74-1.087-1.25-1.375
			c-0.339-0.191-0.668-0.05-1-0.25c-0.948-0.571-1.98-1.476-3-2c-0.417-0.125-0.834-0.25-1.25-0.375l-0.75-0.75
			c-0.499-0.312-0.98-0.312-1.5-0.625c-0.381-0.229-0.618-0.873-1-1.125c-0.667-0.208-1.334-0.417-2-0.625
			c-0.993-0.556-2.272-1.456-3.375-1.875c-0.752-0.286-1.353-0.438-2-0.625h-0.75c-0.042-0.125-0.084-0.25-0.125-0.375
			c-0.63-0.3-1.248-0.026-1.875-0.25c-0.459-0.164-1.3-0.595-1.75-0.75c-0.341-0.117-0.805,0.079-1.375-0.125
			c-2.706-0.968-5.454-1.607-8-2.375c-0.581-0.176-1.314,0.051-1.625,0c-0.302-0.05-1.824-0.197-2.125-0.25
			c-0.25,0.041-0.5,0.083-0.75,0.125c-1.691-0.31-4.637-0.735-7-0.25c-0.974,0.199-3.104-0.177-4.5,0
			c-0.399,0.05-1.218-0.281-1.625-0.375c-0.404-0.093-1.875,0.25-1.875,0.25c-0.795-0.203-2.269,0.158-3,0
			c-0.201-0.044-0.391-0.312-0.75-0.25c-3.621,0.629-8.104,0.32-11.375,1.5c-0.584,0.041-1.167,0.083-1.75,0.125
			c-0.312,0.098-0.664,0.553-0.875,0.625c-0.397,0.135-1.199-0.184-1.875,0c-0.71,0.192-1.519,0.076-2.375,0.375
			c-1.189,0.414-2.771,0.994-4,1.375c-0.542,0.041-1.084,0.083-1.625,0.125c-0.323,0.138-0.801,0.616-1.125,0.75
			c-0.487,0.201-0.769,0.001-1.125,0.25c-0.209,0.25-0.417,0.5-0.625,0.75c-0.417,0.041-0.834,0.083-1.25,0.125
			c-1.14,0.634-3.406,0.849-4.375,2c-0.478,0.005-0.944-0.019-1.25-0.125c0.155-0.794,0.503-0.535,0.875-1l0.375-1.125
			c0.328-0.564,0.942-1.197,1.25-1.75c0.28-0.505,0.223-0.957,0.5-1.5c0.155-0.306,0.618-0.671,0.75-1
			c0.041-0.375,0.083-0.75,0.125-1.125c0.296-0.626,1.13-0.962,1.5-1.5c0.397-0.579,0.336-1.009,0.625-1.75
			c0.181-0.464,0.763-0.979,1-1.375c0.041-0.25,0.083-0.5,0.125-0.75c0.108-0.187,0.509-0.221,0.625-0.375v-0.5
			c0.11-0.176,0.514-0.299,0.625-0.5c0.041-0.25,0.083-0.5,0.125-0.75c0.125-0.042,0.25-0.084,0.375-0.125
			c0.284-0.379,0.127-0.632,0.375-1.125c0.432-0.861,1.393-1.181,1.625-2.5c0.438-0.109,1.83-2.11,1.875-2.625
			c0.083,0.083,0.166,0.167,0.25,0.25c0.107-0.466,0.209-0.757,0.125-1.125c0.208-0.063,0.452,0.087,0.625,0
			c0.104-0.053,1.927-2.336,2-2.5v-0.75c0.185-0.32,0.847-0.254,1.125-0.5c0.104-0.092,0.455-0.909,0.125-1
			c0.208-0.042,0.416-0.084,0.625-0.125c0.659-0.421,1.243-2.063,1.75-2.75c0.118-0.161,0.343,0.002,0.5-0.125
			c0.162-0.131,0.002-0.314,0.125-0.5c0.271-0.41,0.761-0.428,1.125-0.75c0.166-0.375,0.333-0.75,0.5-1.125
			c0.524-0.382,1.118-0.367,1.5-0.875c1.312-1.749,2.984-2.955,4.625-4.375c0.163-0.142,0.101-0.469,0.25-0.625
			c0.25-0.263,0.726-0.255,1-0.5c0.395-0.354,0.808-0.966,1.25-1.25c0.25-0.042,0.5-0.084,0.75-0.125
			c0.552-0.318,1.307-1.285,1.875-1.625h0.625c0.298-0.156,0.384-0.662,0.625-0.875c0.522-0.461,0.965-0.507,1.625-0.875
			c0.212-0.118,0.211-0.453,0.375-0.625c0.333-0.125,0.666-0.25,1-0.375c0.242-0.202,0.057-0.437,0.375-0.625
			c0.128-0.101,0.03-0.046,0.25-0.125c0.083,0.155,0.136,0.259,0.25,0.375c0.319-0.076,0.062-0.264,0.375-0.5
			c0.757-0.573,1.826-1.126,2.875-1.25c0.05-0.356,0.123-3.446,0-3.625c-0.071-0.104-0.435-0.112-0.5-0.25
			c-0.257-0.541-0.193-1.433-0.5-2c-0.183-0.337-0.764-0.581-1-0.875c-0.159-0.198-0.115-0.679-0.25-0.875
			c-0.189-0.228-0.863-0.778-1.125-0.875h-1c-0.183-0.08-0.54-0.537-0.75-0.625c-0.417-0.042-0.834-0.084-1.25-0.125
			c-1.768-0.543-3.604-1.08-5.75-0.25c-0.146,0.057-1.917,1.498-2,1.625c-0.292,0.445-0.101,1.058-0.5,1.375
			c-2.968,2.358-5.778,4.876-8.75,7.25c-0.933,0.744-3.421,4.374-4.375,4.25c-0.19,0.439-0.493,1.261-0.875,1.5h-0.5
			c-0.185,0.142-0.227,0.554-0.375,0.75c-0.682,0.898-1.71,1.711-2.375,2.625c-0.204,0.28-0.632,0.76-0.75,1v0.75
			c-0.092,0.137-0.514,0.221-0.625,0.375c-0.2,0.276-0.177,0.587-0.375,0.875c-0.25,0.208-0.5,0.417-0.75,0.625
			c-0.578,0.801-0.815,1.675-1.375,2.5c-0.125,0.041-0.25,0.083-0.375,0.125c-0.208,0.198-0.606,0.783-0.75,1
			c-0.255,0.382-0.118,0.821-0.375,1.25c-0.183,0.304-1.023,0.789-1.25,1.125c-0.167,0.458-0.334,0.917-0.5,1.375
			c-0.167,0.125-0.334,0.25-0.5,0.375c-0.44,0.656-0.578,1.321-1,2c-0.525,0.844-1.395,1.648-1.875,2.5
			c-0.418,0.74-0.454,1.545-0.875,2.25c-0.307,0.514-0.719,0.801-0.875,1.5c-0.468-0.119-0.427-0.275-0.75-0.5
			c0.127-1.13-0.17-1.96-0.375-2.875c0.041-0.417,0.083-0.834,0.125-1.25c-0.194-0.617-0.769-1.441-1-2
			c-0.388-0.936-0.18-1.782-0.5-2.75c-0.103-0.31-0.542-0.633-0.625-0.875c0.041-0.25,0.083-0.5,0.125-0.75
			c-0.034-0.152-0.346-0.545-0.375-0.625v-1.125c-0.125-0.083-0.25-0.167-0.375-0.25c-0.228-0.479-0.074-0.87-0.25-1.375
			c-0.042-0.119-0.349-0.43-0.375-0.5v-1c-0.037-0.11-0.337-0.391-0.375-0.5c-0.042-0.417-0.084-0.834-0.125-1.25
			c-0.199-0.546-0.754-1.09-1-1.625c-0.125-0.667-0.25-1.334-0.375-2c-0.209-0.208-0.417-0.417-0.625-0.625
			c-0.291-0.546-0.144-0.876-0.375-1.5c-0.173-0.464-0.651-1.482-1-1.875c-0.11-0.124-0.408-0.098-0.5-0.25
			c-0.301-0.496-0.203-0.985-0.5-1.5c-0.334-0.333-0.667-0.667-1-1c-0.332-0.531-0.396-1.131-0.75-1.625
			c-0.971-1.351-2.423-2.239-3.75-3.25c-0.167-0.25-0.334-0.5-0.5-0.75c-0.367-0.286-0.947-0.407-1.25-0.75
			c-0.134-0.15-0.089-0.383-0.25-0.5c-0.786-0.571-1.582-0.918-2.375-1.5c-0.17-0.125-0.108-0.507-0.25-0.625
			c0,0-0.663-0.01-0.875-0.125c-0.505-0.273-1.03-0.82-1.5-1.125c-0.513-0.333-1.077-0.306-1.625-0.625
			c-0.167-0.208-0.334-0.417-0.5-0.625c-0.82-0.553-1.802-0.693-2.625-1.25c-0.167-0.208-0.334-0.417-0.5-0.625
			c-0.905-0.649-1.855-0.963-2.875-1.5c-0.468-0.247-0.991-0.805-1.5-1c-1.076-0.414-2.014-0.188-3.125-0.625
			c-0.44-0.174-1.29-0.583-1.75-0.75c-0.296-0.107-0.784,0.156-0.875,0.125c-0.623-0.218-1.459-0.712-2.25-0.875
			c-0.334,0.041-0.667,0.083-1,0.125c-0.18-0.05-0.858-0.314-1.125-0.375c-0.309-0.07-0.77,0.152-0.875,0.125
			c-1.842-0.478-4.807-1.163-6.625-1.625c-0.305-0.077-3.578-0.291-3.875-0.25c-0.205,0.028-0.849,0.244-1.25,0.125
			c-2.046-0.609-4.857-0.641-7.25-1c-0.82-0.124-1.964,0.371-3,0.375c-1.958-0.042-3.917-0.084-5.875-0.125
			c-0.606,0.057-1.407,0.412-2.125,0.25c-0.471-0.106-1.476-0.239-1.875-0.125c-0.144,0.041-0.046,0.284-0.375,0.25
			c-1.279-0.135-2.517-0.333-4-0.25c-0.542,0.083-1.084,0.167-1.625,0.25c-1.37-0.314-3.939-0.379-5.5,0
			c-0.612,0.148-1.66,0.353-2.375,0.25c-2.755-0.396-5.415-0.364-7.75,0.125c-1.213,0.254-2.136-0.533-3-0.5
			c-1.234,0.048-4.167,0.233-5.625-0.25c-0.519-0.172-1.027-0.684-1.5-0.875c-0.44-0.179-0.656,0.089-1,0
			c-0.586-0.152-1.489-0.75-2-1c-0.375-0.042-0.75-0.084-1.125-0.125c-0.767-0.261-1.704-0.788-2.375-1.125
			c-0.351,0.141-0.577,0.088-0.875-0.125c-0.888,0.012-1.108,0.221-1.75,0.375c-0.061,2.235,0.548,4.519,1.25,6
			c0.42,0.888,0.396,2.159,1,2.875c0.252,0.141,0.224,0.064,0.5,0l0.125,0.125c-0.042,0.041-0.084,0.083-0.125,0.125
			c-0.241,0.132-0.146,0.04-0.5,0c0.207,0.822,0.71,1.432,1,2.125c0.083,0.375,0.166,0.75,0.25,1.125l0.75,0.75v1.5
			c0.087,0.216,0.538,0.563,0.625,0.75v0.625c0.331,0.852,1.02,1.585,1.375,2.25c0.125,0.583,0.25,1.167,0.375,1.75
			c0.052,0.094,0.9,1.276,1,1.375c0.125,0.041,0.25,0.083,0.375,0.125c0.041,0.208,0.083,0.417,0.125,0.625
			c0.188,0.323,0.669,0.685,0.875,1c0.083,0.25,0.166,0.5,0.25,0.75c0.363,0.517,1.132,0.862,1.5,1.375
			c0.614,0.854,0.778,1.785,1.5,2.5c0.222,0.22,0.671,0.268,0.875,0.5c0.083,0.291,0.166,0.583,0.25,0.875
			c0.147,0.198,0.566,0.319,0.75,0.5c0.615,0.606,1.17,1.364,1.75,2c0.614,0.674,0.815,1.65,1.5,2.25
			c0.585,0.513,1.713,0.45,2.25,0.875c0.16,0.127,0.664,1.25,0.875,1.5c0.686,0.812,1.89,1.222,2.625,2
			c0.401-0.109,0.192,0.067,0.375-0.25c0.382,0.224,0.011,0.157,0.25,0.5c0.187,0.268,0.581,0.188,0.875,0.375
			c0.25,0.333,0.5,0.667,0.75,1c0.296,0.168,0.757-0.057,0.875,0c0.224,0.107,0.42,0.626,0.625,0.75h0.125
			c0.458,0.041,0.916,0.083,1.375,0.125c0.398,0.201,0.131,0.453,0.875,0.5v0.375c0.512,0.111,0.407,0.242,0.875,0.125
			c0.173,0.288,0.281,0.54,0.375,0.625c0.651,0.448,1.457,0.062,2.25,0.25c1.128,0.267,2.191,1.234,3.125,1.375
			c0.631,0.095,0.491-0.437,1.25,0.25c0.132-0.241,0.04-0.145,0-0.5c0.656,0.128,0.57,0.542,1,0.75h0.625
			c1.164,0.354,2.434,0.41,3.125,1.125c0.095-0.135,0.078-0.116,0.125-0.375c1.43,1.001,5.016-0.2,5.875,1
			c0.277-0.146,0.188-0.182,0.375-0.375c0.096-0.086,0.278-0.165,0.375-0.25c0.362,0.165,0.434,0.282,0.5,0.75
			c0.584,0.151,1.345,0.075,2.125,0.375l0.5,0.5c0.5-0.042,1-0.084,1.5-0.125c0.208,0.208,0.416,0.417,0.625,0.625
			c0.38,0.106,0.241-0.345,0.625-0.25c0.251,0.062,0.23,0.353,0.625,0.125c0.227-0.094,0.338-0.357,0.375-0.875h0.375
			c-0.098,0.354-0.131,0.435-0.375,0.625c0.565,1.117,1.527,0.204,1.875,0.375c0.096,0.047,0.408,0.426,0.625,0.5
			c0.364,0.124,0.173-0.354,0.375-0.25c0.083,0.125,0.166,0.25,0.25,0.375c0.426,0.134,1.351-0.118,2,0.125
			c0.145,0.054,0.52,0.477,0.625,0.5c0.271,0.062,0.779-0.365,1-0.375c0.738-0.034,1.621,0.986,2.125,0.25
			c0.694,0.022,0.974,0.205,1.25,0.625c1.77-0.47,3.74,0.281,5.125,0.75c0.375,0.041,0.75,0.083,1.125,0.125
			c0.566,0.342,1.121,0.655,1.875,0.625c0.833-0.034,1.572,0.958,2.125,0.5h1c-0.084,0.083-0.167,0.167-0.25,0.25
			c0.25,0.152,0.592-0.051,0.75,0c0.271,0.087,0.306,0.526,0.5,0.625c0.75,0.041,1.5,0.083,2.25,0.125
			c0.297,0.124,0.445,0.549,0.875,0.625c0.25-0.042,0.5-0.084,0.75-0.125c0.125,0.208,0.25,0.417,0.375,0.625
			c0.125-0.042,0.25-0.084,0.375-0.125c0.041,0.125,0.083,0.25,0.125,0.375c0.324,0.19,0.597,0.036,0.875,0.25
			c0.041,0.125,0.083,0.25,0.125,0.375c0.422,0.232,1.174,0.019,1.375,0.125v0.25c0.224,0.153,0.712,0.168,0.875,0.375
			c0.172,0.219,0.017,0.474,0.25,0.625c0.371,0.24,0.343-0.168,0.75,0c0.721,0.297,1.865,1.161,2.5,1.625
			c0.463,0.339,1.085,0.2,1.625,0.5c0.34,0.188,2.061,1.795,2.25,2.125c0.295-0.11,0.206-0.047,0.375-0.25
			c0.649,0.394,0.177,1.112,0.25,1.25c0.09,0.171,0.347,0.127,0.5,0.25c0.533,0.426,0.987,0.907,1.25,1.625
			c-1.695-0.615-3.281-1.578-5-2.125c-0.735-0.234-1.55-0.343-2.125-0.5h-1.625c-1.642-0.609-3.873-1.081-5.125-1.375
			c-0.25,0.041-0.5,0.083-0.75,0.125c-1.188-0.26-3.709-0.355-4.875-0.625c-0.698-0.162-1.047,0.354-1.625,0.25
			c-1.561-0.281-3.573-0.491-5.125-0.375c-0.859,0.064-3.091-0.255-3.625-0.125c-0.191,0.046-0.438,0.434-0.625,0.5
			c-0.694,0.246-1.572,0.111-2.25,0.25c-1.039,0.212-1.876-0.324-2.625,0.375c-0.397,0.213-0.061,0.16-0.25,0.375v0.125
			c-0.275-0.377-0.116-0.563-0.625-0.75c-0.561-0.225-1.093,0.689-1.625,0.5c0,0-0.208-0.361-0.25-0.375
			c-0.848-0.273-1.994,0.339-2.5,0.5c-0.5,0.041-1,0.083-1.5,0.125c-1.066,0.334-2.367,0.718-3.5,1
			c-3.092,0.77-5.598,1.443-8.25,2.75c-0.792,0.166-1.584,0.333-2.375,0.5c-0.209,0.208-0.417,0.417-0.625,0.625
			c-0.626,0.371-1.19,0.292-1.875,0.625c-1.58,0.769-3.134,1.985-4.625,2.875c-0.292,0.041-0.584,0.083-0.875,0.125
			c-0.348,0.158-0.588,0.667-0.875,0.875c-0.489,0.354-1.083,0.309-1.625,0.625c-0.167,0.208-0.334,0.417-0.5,0.625
			c-0.39,0.262-0.852,0.25-1.25,0.5c-0.784,0.49-1.594,1.169-2.375,1.75c-0.121,0.201-0.008,0.012,0,0.375
			c-0.785,0.367-1.896,0.904-2.5,1.5c-0.168,0.165-0.169,0.496-0.375,0.625c-0.58,0.363-1.194,0.474-1.75,0.875
			c-0.481,0.348-1.23,1.507-1.75,1.875c-0.6,0.424-1.294,0.822-1.75,1.375c-0.042,0.166-0.084,0.333-0.125,0.5
			c-0.335,0.477-0.929,0.876-1.25,1.375c-0.119,0.184,0.01,0.489,0,0.5c-0.24,0.242-0.674,0.21-0.875,0.5
			c0.044,0.068,0.26,0.427,0.125,0.625c-0.194,0.284-0.82,0.423-1,0.75v0.5c-0.587,1.052-2.356,2.288-2.875,3.375
			c-0.105,0.22,0.205,0.72,0.125,0.875c-0.125,0.042-0.25,0.083-0.375,0.125c-0.042,0.25-0.084,0.5-0.125,0.75
			c-0.117,0.198-0.485,0.212-0.625,0.375c-0.209,0.244-0.551,1.25-0.625,1.5c0.041,0.25,0.083,0.5,0.125,0.75
			c-0.149,0.334-1,0.999-1.25,1.5c0.155,0.502-0.421,1.146-0.625,1.625c-0.365,0.854-0.243,1.887-0.625,2.75
			c-0.234,0.527-0.66,1.543-0.875,2.125c-0.098,0.264,0.172,0.383,0.125,0.5c-0.15,0.37-0.655,0.805-0.75,1.25
			c-0.118,0.555,0.278,2.036,0.125,2.625c-0.078,0.298-0.529,0.814-0.625,1.125c0.041,0.416,0.083,0.833,0.125,1.25
			c-0.129,0.426-0.754,1.359-0.75,1.875c0.005,0.71,0.075,1.476,0,2.375h0.375c-0.239,0.359-0.846,0.165-1.5,0.125
			c0.305,0.217,0.933,0.361,1.25,0.5c-0.169,1.651-0.172,2.954-0.375,4c-0.277,1.424,0.488,2.062-0.5,2.625
			c0.121,0.284,0.271,0.188,0.375,0.375c-0.042,0.083-0.084,0.167-0.125,0.25c0.022,0.138,0.385,2.143,0.375,2.25
			c-0.065,0.709-0.564,1.954-0.375,2.875c0.336,1.637,0.301,3.377,0.625,5.125c-0.084,0.583-0.167,1.167-0.25,1.75
			c0.345,1.906,1.233,3.902,1.75,5.625v1c0.117,0.351,0.632,0.836,0.75,1.125c-0.042,0.25-0.084,0.5-0.125,0.75
			c0.101,0.268,0.632,0.666,0.75,1c0.31,0.881,0.113,1.523,0.625,2.125c-0.165,0.304,0.059,0.088-0.25,0.25
			c0.134,0.301,0.379,0.359,0.5,0.625c0.422,0.925,0.338,1.744,0.875,2.5c0.419,0.59,1.247,0.793,1.125,1.625
			c0.208,0.125,0.416,0.25,0.625,0.375c0.223,0.349-0.125,0.464,0,0.75l0.75,0.75v0.5c0.194,0.441,0.693,1.24,1,1.75
			c0.326,0.542,2.132,3.24,2,3.5c0.183,0.333,0.732,0.352,1.125,0.75c0.125,0.333,0.25,0.667,0.375,1
			c0.89,1.353,1.977,2.988,3.125,4.125c0.134,0.095,0.115,0.078,0.375,0.125c0.108,0.51,2.531,3.318,3,3.625
			c-0.11,0.295-0.047,0.206-0.25,0.375c0.368,0.243,0.97,0.177,1.25,0.5v0.375c0.231,0.339,0.744,0.559,1,0.875
			c0.675,0.837,1.355,1.638,2.125,2.375c0.134,0.095,0.115,0.078,0.375,0.125c0.067,0.251,2.229,2.352,2.5,2.5
			c0.125-0.042,0.25-0.084,0.375-0.125c0.242,0.174,0.173,0.655,0.375,0.875c0.504,0.55,1.218,0.97,1.75,1.5
			c0.041,0.166,0.083,0.333,0.125,0.5c0.178,0.243,0.64,0.682,0.875,0.875c0.433,0.355,1.189,0.431,1.625,0.75
			c0.283,0.208,0.354,0.77,0.625,1c0.312,0.267,0.691,0.665,1,0.875c0.208,0.041,0.416,0.083,0.625,0.125
			c0.083,0.25,0.166,0.5,0.25,0.75c0.402,0.403,1.043,0.521,1.5,0.875c0.451,0.351,0.877,1.082,1.375,1.375
			c0.445,0.263,0.851,0.214,1.25,0.5c0.125,0.208,0.25,0.417,0.375,0.625l1.125,0.375c0.083,0.166,0.166,0.333,0.25,0.5
			c0.25,0.041,0.5,0.083,0.75,0.125c0.152,0.104,0.18,0.41,0.375,0.5h0.625c0.194,0.136,0.272,0.616,0.5,0.75
			c0.994,0.583,2.106,0.702,3.125,1.25c0.985,0.529,2.042,1.625,3.125,2c0.5,0.041,1,0.083,1.5,0.125
			c0.083,0.125,0.166,0.25,0.25,0.375c0.65,0.393,2.176,0.912,2.875,1.125c0.879,0.267,2.125,0.325,2.875,0.5
			c0.333-0.042,0.666-0.084,1-0.125c0.351,0.092,0.879,0.516,1.25,0.625c1.142,0.337,2.607,0.104,3.5,0.375
			c1.143,0.346,1.782,0.43,3.125,0.125c0.396-0.09,0.344,0.197,0.5,0.25c1.079,0.363,2.903,0.401,3.5,0.125
			c1.532,0.534,5.603,0.33,6.875,0.125c0.922-0.148,1.508,0.161,2.25-0.25l0.25,0.25c0.527,0.094,0.921-0.313,1.25-0.25
			c0.157,0.03,1.093,0.277,1.25,0.25c1.475-0.259,3.834-0.736,5.375-0.875c0.045,0.356,0.082,0.54,0.25,0.75
			c0.143,0.259,1.018,0.786,1.375,0.75c0.044-0.005,0.377-0.208,0.625-0.125c0.208,0.208,0.416,0.417,0.625,0.625
			c0.229,0.071,0.504-0.229,0.625-0.25c0.498-0.089,0.891,0.204,1.375,0.125c1.45-0.238,3.323-0.986,4.5,0
			c0.127,0.237-0.082,0.559-0.375,0.75c0.014,0.983,0.309,1.137,0.625,1.75c0.874,0.166,1.563,0.153,2.75,0
			c0.107-0.232,0.178-0.331,0.25-0.625c1.098-0.017,2.304,0.134,3.125-0.25c0.125-0.167,0.25-0.334,0.375-0.5
			c0.291,0.041,0.583,0.083,0.875,0.125c2.14-0.494,1.303,0.318,2.5,0.875c0.579,0.269,0.941-0.122,1.25,0.375
			c0.203,0.327,0.062,0.661,0.25,1c0.112,0.203,0.369,0.356,0.5,0.625c0.157,0.069,0.377,0.15,0.5,0.25
			c1.054,0.058,1.601-0.053,1.875-0.75v-0.875c0.189-0.318,0.648-0.078,0.375-0.625c-0.006-0.63,0.061-0.899,0.25-1.25
			c0.918,0.008,1.36,0.213,1.875,0.375h1.5c0.125,0.166,0.25,0.333,0.375,0.5c0.566,0.208,3.848-0.393,4.375-0.75
			c0.095,0.134,0.078,0.115,0.125,0.375c0.305-0.088,0.822-0.475,1.375-0.25c0.211,0.086,0.379,0.567,0.75,0.5
			c0.548-0.57,1.227,0.121,2.125,0c0.178-0.024,0.45,0.168,0.75,0.25c1.123,0.308,2.42-0.184,3.125,0l0.375,0.375
			c0.272,0.094,0.645-0.193,1.125,0c0.075,0.03,0.372,0.341,0.5,0.375c0.596,0.157,2.979-0.175,3.625-0.25
			c1.183-0.138,3.081-0.03,4.25-0.375c0.491-0.146,1.062,0.188,1.375,0.125c0.076-0.016,0.591-0.166,0.75-0.25
			c0.041-0.125,0.083-0.25,0.125-0.375c0.324-0.122,0.64,0.469,1.125,0.375c0.655-0.128,1.977-0.246,2.625-0.375
			c0.166,0.041,0.333,0.083,0.5,0.125c0.138-0.052,0.59-0.438,0.75-0.5c0.689-0.267,1.664,0.606,2.625,0.375
			c0.572-0.138,1.446-0.372,1.875-0.5c0.436-0.131,0.854,0.193,1.125,0.125c0.289-0.073,0.606-0.534,0.875-0.625
			c0.654-0.224,1.278,0.362,1.625,0.25c0.125-0.167,0.25-0.334,0.375-0.5c0.726,0.468,1.074-0.351,1.75-0.5
			c0.557-0.124,1.549,0.366,2.125,0.25c0.35-0.07,0.773-0.442,1.125-0.5c0.25,0.041,0.5,0.083,0.75,0.125v-0.25
			c0.791-0.042,1.583-0.084,2.375-0.125l0.375-0.25c0.4-0.003,0.693,0.442,1.25,0.125c0.7-0.048,0.812-0.344,1-0.5
			c0.195-0.084,0.772,0.234,1.125,0.125c1.178-0.367,1.895-0.68,2.875-1c0.196,0.039,1.303,0.223,1.5,0.125c0,0,0.396-0.461,0.5-0.5
			c0.828-0.31,1.604-0.5,2.375-0.75h0.75c0.078-0.031,0.468-0.374,0.625-0.375c0.125,0.041,0.25,0.083,0.375,0.125
			c0.757-0.216,1.715-0.84,2.375-1.125c0.375-0.042,0.75-0.084,1.125-0.125c0.396-0.162,1.063-0.859,1.375-1h1.25
			c0.733-0.216,1.483-0.758,2.125-1c0.309-0.117,0.802,0.042,0.875,0c4.81-2.808,10.259-4.655,14.25-8.25
			c0.095-0.135,0.078-0.115,0.125-0.375h0.375c0.433-0.971,1.459-1.254,2.25-1.875c0.32-0.252,0.426-0.879,0.75-1.125
			c0.44-0.335,0.919-0.417,1.375-0.75c-0.042-0.084-0.084-0.167-0.125-0.25c0.506-0.456,0.958-0.244,0.875-1
			c0.161-0.156,0.44-0.112,0.625-0.25c0.724-0.541,1.417-1.275,2.125-1.875c0.175-0.148,0.109-0.431,0.25-0.625
			c0.266-0.37,0.758-0.465,1.125-0.75c0.179-0.14,0.113-0.433,0.25-0.625c0.364-0.514,1.052-0.937,1.625-1.25v-0.375h0.375v-0.125
			c0.095-0.135,0.078-0.115,0.125-0.375c1-0.21,0.814-1.095,1.75-1.375v-0.5h0.375c0.373-0.742,1.016-0.984,1.25-1.375
			c0.139-0.233-0.057-0.459,0.125-0.625c0.293-0.27,0.77-0.296,1-0.625c0.083-0.25,0.166-0.5,0.25-0.75l0.75-0.375
			c0.133-0.24-0.162-0.557-0.125-0.625c0.146-0.27,0.707-0.242,0.875-0.5c0.276-0.426,0.105-0.901,0.375-1.375
			c0.3-0.527,1.032-1.108,1.375-1.625c0.447-0.674,0.45-1.402,0.875-2.125c0.125-0.042,0.25-0.084,0.375-0.125
			c0.208-0.252,0.183-0.614,0.375-0.875c0.09-0.123,0.418-0.143,0.5-0.25c0.015-0.021,0.5-1.625,0.5-1.625h-0.25v-0.25
			c0.202-0.777,0.738-1.383,1.25-1.875c-0.282-0.13,0.159-1.348,0.375-1.875c0.104-0.256,0.403-0.491,0.5-0.75
			c-0.045-0.195-0.193-0.734-0.125-1c0.148-0.582,0.707-1.296,0.875-1.875v-1.25c0.166-0.125,0.333-0.25,0.5-0.375
			c0.366-0.716,0.331-1.114,0.625-1.875c0.173-0.448,0.714-0.841,0.875-1.25c0.438-1.122,0.225-2.231,0.625-3.375
			c0.066-0.19,0.461-0.558,0.5-0.75c0.048-0.242-0.238-0.496-0.25-0.625v-0.25c0.083-0.084,0.166-0.167,0.25-0.25
			c0.16-0.564-0.114-1.509,0-1.75c0.208-0.208,0.416-0.417,0.625-0.625C550.334,296.737,549.797,296.548,549.915,296.062z
			 M471.915,190.938v0.375c-0.312-0.185-0.146,0.03-0.25-0.375H471.915z M470.915,190.938h0.375c0.083,0.083,0.166,0.167,0.25,0.25
			v0.25c-0.209,0.041-0.417,0.083-0.625,0.125V190.938z M547.79,289.062c0.163,0.067,0.09,0.045,0.125,0.125v0.25h-0.25
			C547.706,289.312,547.748,289.188,547.79,289.062z M467.79,229.062h0.125v0.25h-0.125V229.062z M464.665,228.938v0.125
			c-0.277-0.037-0.241,0.154-0.25-0.125H464.665z M454.79,231.562c-0.117,0.221-0.043,0.14-0.25,0H454.79z M447.54,233.188h0.25
			v0.125c-0.295,0.109-0.207,0.047-0.375,0.25h-0.125C447.404,233.293,447.398,233.381,447.54,233.188z M446.79,233.438h0.25
			c-0.093,0.29-0.13,0.279-0.25,0.5h-0.25C446.661,233.717,446.701,233.73,446.79,233.438z M446.29,234.188
			c-0.216-0.081-0.123-0.024-0.25-0.125C446.256,234.143,446.162,234.087,446.29,234.188z M441.665,228.688
			c0.216,0.08,0.122,0.024,0.25,0.125C441.699,228.731,441.792,228.788,441.665,228.688z M463.415,197.812
			c-1.029-0.028-1.036-0.468-1.625-0.875c0.203-0.448,0.597-0.638,0.875-1h0.375c-0.098,0.339-0.062,0.462-0.125,0.875
			c0.348,0.158,0.812,0.288,1,0.625h0.125C463.871,197.824,463.61,197.833,463.415,197.812z M465.915,189.062
			c0.322,0.142,1.084,0.187,1.25,0.25c0.454,0.227,0.36,0.607,0.625,1c-0.185,0.312,0.03,0.146-0.375,0.25
			c-0.028-0.29-0.025-0.353-0.125-0.5c-0.202-0.459-0.88-0.412-1.375-0.5V189.062z M465.665,192.188v-0.25l0.125,0.125
			c0.48,0.314,0.014,0.68,0.25,1.25c0.069,0.167,0.392,0.427,0.5,0.625c0.58,0.092,0.643-0.032,1.25-0.125v-0.625
			c0.041-0.042,0.083-0.084,0.125-0.125c0.324,0.024,0.424,0.055,0.625,0.125c0.08,0.216,0.024,0.122,0.125,0.25
			c-0.109,0.497-1.065,1.222-1.5,1.375c-0.129,0.101-0.031,0.046-0.25,0.125c-0.31-0.563-0.513-0.735-1.125-1
			c0.041-0.375,0.083-0.75,0.125-1.125C465.846,192.525,465.522,192.437,465.665,192.188z M464.415,195.688
			c0.538,0.079,0.679,0.201,1.25,0.375c-0.154,0.437-0.353,0.466-0.625,0.75c-0.325-0.025-0.425-0.056-0.625-0.125
			C464.333,196.29,464.286,196.058,464.415,195.688z M449.29,199.188c0.083,0.041,0.166,0.083,0.25,0.125v0.125h-0.25V199.188z
			 M437.665,217.938v0.375c-0.312-0.185-0.146,0.03-0.25-0.375H437.665z M436.04,223.812c0.041-0.417,0.083-0.834,0.125-1.25
			c0.166-0.125,0.333-0.25,0.5-0.375c0.378-0.581,0.377-1.292,0.75-1.875c0.166-0.125,0.333-0.25,0.5-0.375
			c0.041-0.292,0.083-0.584,0.125-0.875c0.166-0.083,0.333-0.167,0.5-0.25c0.05-0.093,0.038-0.953,0.25-1.25h0.25
			c0.173-0.191,0.545-0.793,0.625-1c0.041-0.333,0.083-0.667,0.125-1c0.076-0.106,0.423-0.116,0.5-0.25v-0.5
			c0.103-0.173,0.519-0.301,0.625-0.5c0.497-0.936,0.442-2.142,1.125-2.875c0.413-0.444,0.979-0.5,1.25-1.125
			c0.452-1.043,1.074-2.805,2.125-3.125c-0.084-0.083-0.167-0.167-0.25-0.25c0.345-0.32,0.227-0.37,0.625-0.375
			c0.041-0.292,0.083-0.584,0.125-0.875c0.99-0.144,0.379-0.406,0.75-1.125c0.249-0.482,1.08-0.802,1.375-1.25
			c0.288-0.439,0.241-0.936,0.5-1.375c0.322-0.548,1.019-0.861,1.375-1.375c0.289-0.417,0.286-1.113,0.625-1.5
			c0.354-0.405,0.96-0.642,1.25-1.125c0.275-0.461,0.406-1.127,0.75-1.5c0.294-0.319,0.941-0.317,1.25-0.625
			c0.315-0.316,0.21-0.893,0.5-1.25c0.277-0.342,0.866-0.369,1.25-0.625c0.708-0.474,1.582-1.49,1.75-2.5
			c0.221-0.029,2.648-1.622,2.75-1.75c0.17-0.216,0.167-0.583,0.375-0.75c0.509-0.411,1.219-0.516,1.75-0.875
			c0.526-0.356,0.653-0.982,1.375-1.25c0.128-0.101,0.03-0.046,0.25-0.125l0.125,0.125c-0.203,0.355-0.347,0.55-0.375,1.125
			c-0.507,0.044-0.739,0.146-0.875,0.25c-0.468,0.151-0.897,0.8-0.625,1.25c0.189,0.529,1.229,1.079,1.875,1.125
			c-0.439,1.056,0.157,0.75,0.25,1.5c0.037,0.308-0.378,1.025-0.5,1.375c-0.592-0.039-0.756-0.135-1-0.5
			c-0.029-0.028,0.408-1.091,0.375-1.625c-0.404-0.055-0.581-0.183-0.875,0c-0.652,0.019-0.661,0.069-0.875,0.5h-1
			c0.123,1.362,0.061,2.077,1,2.75c-0.204,0.711-0.505,1.28-0.125,1.875c-0.157,0.386-0.262,0.353-0.625,0.5
			c-0.021,0.028-2.062-0.626-2.375-0.875c-0.364-0.004-0.682-0.006-0.875,0.125c-0.101,0.121-0.185,0.343-0.25,0.5
			c0.479,0.308,1.999,1.545,2.25,2c-0.202,0.426-0.039,0.542,0.125,0.875c0.824-0.02,1.229-0.01,1.625-0.625
			c0.483,0.086,0.484,0.079,0.625,0.5c0.352,0.608-1.857,2.066-2.25,2.625c-0.428-0.096-0.854-0.357-1.125-0.625
			c-0.297-0.296,0.403-0.715,0.5-1c0.169-0.502-0.053-0.877,0-1.25c-0.102-0.129-0.047-0.031-0.125-0.25
			c-1.035,0.174-1.816,0.61-2.375,1.5c-0.438-0.151-1.065-0.559-1.375-0.875c-0.396,0.07-0.364,0.109-0.625,0.25
			c0.026,0.502,0.141,0.873,0,1.125c0.219,0.357,3.478,2.31,4,2.5c-0.225,0.757-0.944,0.628-1.125,1.5
			c-0.216,0.08-0.123,0.024-0.25,0.125c-0.466-0.118-2.147-1.228-2.25-1.75c-1.28,0.617-3.318-1.191-4.625-0.375
			c-0.125,0.041-0.25,0.083-0.375,0.125c0.129,1.108,0.757,0.859,1.625,1.25l0.5,0.5c0.217,0.085,0.841-0.247,1.25,0
			c0,0,0.406,0.573,0.5,0.625c0.822,0.455,1.597,0.562,2.375,0.75c-0.23,0.364-0.469,0.895-0.75,1.25
			c-0.18,0.215-0.05-0.069-0.25,0.125c-0.3,0.211-0.532,0.972-1,1.375c-0.726,0.368-4.479-0.574-5.125-1.375
			c-0.478-0.005-0.944,0.019-1.25,0.125c0.081,0.276,0.21,0.656,0.375,0.875c0.186,0.08,0.054,0.155,0.25,0
			c0.33,0.208,0.308,0.679,0.625,0.875c0.54,0.334,2.484,1.405,3,1.5c-0.292,1.084-1.088,1.559-1.625,2.375
			c-0.455,0.045-2.574,0.066-2.75,0c-0.438-0.166-1.254-0.859-1.75-0.625c-0.087-0.097-0.165-0.278-0.25-0.375
			c-0.271-0.128-0.421,0.055-0.875,0.125v0.25h0.375v0.5c0.479,0.302,0.533,0.699,0.875,1.125c0.661,0.54,2.237,0.469,3,0.875
			c-0.044,0.169-0.156,1.076-0.25,1.25c-0.293,0.541-0.966,0.567-1.125,1.375c-0.366-0.144-0.26-0.37-0.5-0.5
			c-0.679-0.368-1.515,0.048-2.125-0.125c-0.197-0.056-0.232-0.424-0.375-0.5c-0.396-0.212-0.483,0.037-0.75-0.25h-0.125
			c0.109,0.295,0.047,0.206,0.25,0.375v0.375c-0.769-0.334-1.973-0.637-2.625-0.375v0.75c0.158,0.266,0.584-0.024,0.875,0.125
			c0.142,0.073,0.14,0.418,0.25,0.5c0.316,0.234,1.879,0.771,2.25,0.875c0.507,0.143,1.138-0.08,1.5,0.125h0.25
			c-0.256,0.714-0.939,1.146-1.25,1.75c-0.042,0.291-0.084,0.583-0.125,0.875c-0.334,0.333-0.667,0.667-1,1
			c-0.183,0.344-0.036,0.505-0.25,0.75v0.125c-0.114-0.174-0.14-0.699-0.25-0.875c-0.662-0.961-2.52-0.615-3.375-1.375h-0.75
			c-0.104,0.482-0.169,0.988,0.125,1.375c0.351,0.799,2.066,0.988,2.75,1.5c0.337,0.207,0.126-0.021,0.125,0.375
			c0.083-0.083,0.166-0.167,0.25-0.25h0.375c-0.139,0.499-0.443,1.015-0.75,1.375c-0.892,0.678-3.9-0.015-4.875-0.25
			c-0.129,0.101-0.031,0.046-0.25,0.125c-0.063,0.266-0.112,0.452-0.25,0.625c0.366,0.562,1.062,1.142,1.625,1.5
			c0.019,0.021,1.789,0.257,2.375,0.25c-0.267,0.776-0.874,1.21-1,2.125c-1.128-0.334-1.287,0.222-2.25,0.125
			c-0.503-0.051-1.595-0.46-2-0.25c-0.364-0.004-0.682-0.006-0.875,0.125c-0.184,0.232-0.239,0.418-0.125,0.625
			c0.093,1.465,0.918,0.749,1.75,1c0.34,0.103,0.462,0.491,0.875,0.25c0.477-0.005,0.943,0.019,1.25,0.125
			c-0.071,0.722-0.348,1.015-0.5,1.625c-0.292-0.042-0.584-0.084-0.875-0.125v0.375l-0.5-0.5v-0.125h-0.125v0.5
			c-1.582-0.151-3.348-0.303-4.375,0c-0.215-1.154,0.24-1.479,0.625-2.25v-0.75c0.208-0.125,0.416-0.25,0.625-0.375
			c0.15-0.299,0.192-1.628,0.25-1.875c0.079-0.34,1.144-1.772,1.375-2.125c0.321-0.49,0.132-1.188,0.375-1.75
			C435.435,224.477,435.918,224.155,436.04,223.812z M437.665,231.812h-0.125c-0.042,0.041-0.084,0.083-0.125,0.125v-0.25
			C437.631,231.768,437.537,231.712,437.665,231.812z M436.415,237.938c-0.116,0.306-0.403,0.23-0.5,0.75
			c-0.66-0.084-1.081,0.571-1.875,0.375c-0.48-0.119-2.257-0.568-2.625-0.375c-0.125,0.041-0.25,0.083-0.375,0.125
			c-0.014,0.355-0.051,0.534-0.125,0.75c0.594,0.57,1.196,0.995,2.125,1.25l0.375-0.375c0.465,0.074,0.586,0.13,0.75,0.5
			c0.241-0.144,0.457-0.278,0.625-0.5h0.25c-0.238,1.089-1.091,1.793-1.375,3c-1.444-0.001-2.977,0.002-4,0.25
			c-0.042,0.208-0.084,0.417-0.125,0.625c0.547,0.142,0.189,0.28,0.5,0.5c0.901,0.64,2.703-0.25,2.875,0.875
			c0.089,0.586-0.628,1.196-0.75,1.75c-1.122-0.126-1.037-0.268-2,0.125c-0.65,0.265-0.898-0.389-1.375,0.125
			c-0.617-0.341-0.28-1.025-0.625-1.625c-0.014-0.799,0.122-0.98,0.75-1.125c0.054-1.12,1.122-4.433,0.625-4.75
			c0.188-0.374,0.571-0.338,0.75-0.625c0.248-0.399-0.074-0.665,0-1c0.03-0.142,0.34-0.511,0.375-0.625
			c0.154-0.513-0.273-1.495-0.125-1.75c0.166-0.042,0.333-0.084,0.5-0.125c0.191-0.266,0.621-1.75,0.625-2.25h0.125
			c0.309,0.537,0.304,0.566,0.75,0.875c0.106,0.139,0.253-0.073,0.625-0.125c-0.11,0.146-0.247,0.36-0.375,0.5
			c0.041,0.125,0.083,0.25,0.125,0.375c1.39,0.288,2.919,0.476,3.875,0l0.125,0.125c-0.147,0.578-0.494,0.854-0.625,1.375
			C436.331,237.271,436.373,237.604,436.415,237.938z M433.165,240.062v0.25h-0.125v-0.25H433.165z M433.165,247.938
			c-0.216-0.081-0.123-0.024-0.25-0.125C433.131,247.893,433.037,247.837,433.165,247.938z M431.915,252.188
			c-0.216,0.111-0.16,0.11-0.375,0H431.915z M429.54,229.812c-0.149,0.55-0.44,0.488-0.625,1c-0.569-0.118-0.483-0.311-1.125-0.375
			c-0.139-0.9-0.661-2.504-0.375-3c0.142-0.096,0.279-0.11,0.5,0c0.71,0.104,0.777,0.547,1.25,0.875
			c-0.08,0.278-0.093,0.33-0.25,0.5C428.915,229.57,429.036,229.592,429.54,229.812z M430.29,231.812
			c-0.491,1.055-0.413,2.507-1,3.375v0.125c-0.286-0.1-0.494-0.545-0.125-0.875c-0.021-0.765-0.234-0.999-0.75-1.25
			c0.01-0.861,0.191-1.182,0.25-1.875c0.582,0.205,0.944,0.505,1.25,0.5H430.29z M430.04,229.562
			c0.041-0.042,0.083-0.084,0.125-0.125c0.041-0.125,0.083-0.25,0.125-0.375h0.625v0.5H430.04z M429.79,239.438
			c0,0-0.491-0.028-0.25-0.125c0.041-0.042,0.083-0.084,0.125-0.125C429.766,239.316,429.711,239.218,429.79,239.438z
			 M428.915,236.062v0.5h-0.25c0.04-0.288,0.058-0.311,0.125-0.5H428.915z M428.165,248.312h0.375v0.375
			c0.166,0.125,0.333,0.25,0.5,0.375c0.371,0.189,0.167-0.262,0.5,0.125c0.331-0.147,0.26-0.244,0.625-0.375
			c0.221-0.088,0.552,0.098,1.125,0.125l0.125,0.125c-0.215,0.815-0.47,2.306-1,2.875c-0.635,0.353-1.972,0.529-2.5,0.125
			c-0.221-0.122-0.207-0.162-0.5-0.25C427.744,250.575,428.208,249.942,428.165,248.312z M415.415,181.938
			c-0.216-0.081-0.123-0.024-0.25-0.125C415.381,181.893,415.287,181.837,415.415,181.938z M330.79,170.562
			c0.645,0.347,1.485,0.757,1.875,0c0.36,0.109,0.319,0.183,0.75,0.25c-0.042,0.125-0.084,0.25-0.125,0.375l0.125,0.125
			c0.355,0.014,0.534,0.05,0.75,0.125c0.145-0.287,0.274-0.414,0.375-0.75c0.263,0.102,0.664,0.435,0.875,0.5
			c0.524,0.163,0.712-0.487,1-0.375c0.083,0.125,0.166,0.25,0.25,0.375c0.297,0.115,0.632-0.151,0.75-0.125
			c1.093,0.247,0.999,0.487,2.125,0c0.068,0.19,0.088,0.209,0.125,0.5c0.515,0.062,0.408,0.216,0.5,0.25
			c0.297,0.11,1.035-0.441,1.25-0.5c0.671-0.184,0.97,0.193,1.375,0.125c0.795-0.134,1.082,0.608,1.5-0.125
			c0.095,0.134,0.078,0.115,0.125,0.375h0.375c0.09-0.41,0.127-0.291,0.25-0.625c0.313,0.113,0.211,0.286,0.375,0.375
			c0.544,0.294,1.065-0.355,1.25-0.375c0.437-0.046,0.196,0.297,0.375,0.375c0.458-0.042,0.916-0.084,1.375-0.125v-0.25
			c0.488-0.146,1.688,0.553,2.375,0.375c0.714-0.186,1.872-0.27,3.25-0.125v-0.375c0.289,0.14,0.227,0.116,0.375,0.375
			c0.379-0.237,0.196-0.257,0.125-0.625c0.436,0.152,0.683,0.408,0.875,0.5c0.726,0.344,1.794-0.335,2-0.375l1.125,0.375h0.25v-0.25
			c0.661,0.012,0.95,0.131,1.125,0.625c0.333-0.042,0.666-0.084,1-0.125v-0.375c0.355,0.032,0.567,0.307,0.75,0.25
			c0.233-0.073,0.322-0.575,1-0.375c0.138,0.041,0.531,0.415,0.75,0.375c0.434-0.08,0.778-0.569,1.25-0.625
			c0.408-0.049,1.176,0.452,1.625,0.375c0.409-0.07,0.858-0.562,1.125-0.625c0.654-0.154,2.314,0.529,2.875,0.75l0.375-0.375
			c0.347-0.112,1.422,0.593,2.125,0.375c0.283-0.088,1.327-0.415,1.625-0.5c0.117-0.033,0.228,0.437,0.625,0.25
			c0.089-0.042,0.06-0.303,0.25-0.375c0.361,0.456,2.11,0.734,2.875,0.25h0.125c-0.042,0.083-0.084,0.167-0.125,0.25
			c0.256-0.008,0.75-0.25,0.75-0.25c0.562,0.279,1.419,0.857,1.75,0.125c0.086,0.096,0.164,0.278,0.25,0.375
			c0.504,0.315,0.937-0.234,2,0c0.317,0.069,0.696-0.063,1.25,0.125l0.375,0.375c0.485,0.132,0.32-0.451,0.875-0.25
			c0.425,0.154,0.425,0.485,1.25,0.5v-0.375c0.72,0.328,1.605,0.102,2.25,0.375c0.671,0.284,1.164,0.65,2.125,0.75v-0.375
			c0.979,0.612,2.483,0.797,3.5,1c0.541-0.083,1.083-0.167,1.625-0.25c0.327,0.114,0.955,0.679,1.25,0.875
			c0.943-0.589,1.378,0.281,2,0.625c0.488,0.271,1.453-0.259,2.25,0c0.268,0.087,0.434,0.382,0.625,0.5
			c0.266,0.163,1.375,0.375,1.375,0.375c0.65,0.118,2.056,1.467,2.875,0.75c0.27,0.255,0.531,0.855,0.875,1
			c0.166-0.042,0.333-0.084,0.5-0.125c0.452,0.254,0.044,0.89,1.125,0.875c0.3,0.369,0.451,0.902,0.875,1.125
			c0.306,0.16,1.342,0.233,1.375,0.25c0.157,0.08,1.095,1.163,1.375,1.375c0.275,0.209,0.687,0.064,1,0.25
			c0.151,0.09,0.127,0.393,0.25,0.5c0.347,0.304,3.301,1.651,3.5,1.625c0.299,0.239,0.352,0.743,0.625,1
			c0.229,0.216,0.753,0.044,1,0.25c0.041,0.166,0.083,0.333,0.125,0.5c0.318,0.445,1.027,1.367,1.5,1.625
			c0.25,0.041,0.5,0.083,0.75,0.125c0.283,0.175,0.274,0.53,0.5,0.75c0.265,0.258,0.701,0.271,1,0.5
			c0.353,0.27,0.364,0.871,0.625,1.25c0.166,0.242,0.56,0.291,0.75,0.5c0.36,0.397,0.558,1.229,0.75,1.75h0.625
			c0.068,1.167,0.634,1.462,0.875,2.375c0.295-0.11,0.206-0.047,0.375-0.25c0.176,0.281,0.109,0.84,0.375,1.375
			c0.493,0.995,1.196,1.944,1.625,3.125c0.209,0.575,0.072,1.16,0.375,1.625c0.071,0.11,0.445,0.163,0.5,0.25v1
			c0.219,0.73,0.994,3.439,1.625,3.625c-0.597,1.18,0.978,4.749,1.375,5.875c0.151,0.43-0.206,0.782,0,1.375
			c0.145,0.417,0.647,0.904,0.75,1.375c0.08,0.372-0.048,0.927,0,1.25c0.126,0.857,0.669,2.151,0.875,3
			c-0.042,0.208-0.084,0.417-0.125,0.625c0.157,0.469,0.723,1.215,0.75,1.875c-0.365,0.706-0.269,1.552-0.625,2.25
			c-0.196,0.384-0.584,0.656-0.75,1.125h-0.75c0.166-0.292,0.333-0.584,0.5-0.875c-0.691-0.49-1.101-1.681-1.875-2
			c-0.175-0.091-0.158-0.04-0.375,0.125h-0.25c0.028-0.29,0.024-0.353,0.125-0.5c0.207-0.136,0.624,0.066,0.875-0.375
			c0.285,0.164,0.194,0.269,0.375,0.5c0.577,0.44,0.693,0.211,1.375,0.125c-0.042-0.333-0.084-0.667-0.125-1
			c-1.01-0.37-1.734-0.772-3-0.75c-0.234,0.242-0.53,0.363-0.875,0.5c-0.033,0.594-0.046,0.581,0,1.125
			c0.479,0.01,0.298,0.015,0.75,0.25c0.176,0.501,0.43,1.441,0.5,1.875c0.436,0.031,0.526,0.044,0.75,0.25
			c0.4,0.239,0.898,1.507,1,2.125c0.29-0.093,0.279-0.13,0.5-0.25l0.125,0.125c-0.093,0.502-0.217,0.242-0.375,0.5
			c-0.15,0.244,0.123,0.514,0.125,0.625c-0.374,0.552-0.75,0.861-1,1.5c-0.213,0.543-0.032,0.66-0.375,1
			c-0.042,0.041-0.084,0.083-0.125,0.125c-0.017-0.358-0.089-0.182,0-0.375c-0.176-0.38-0.353-0.121-0.625-0.625
			c-0.578,0.012-0.753,0.053-1,0.375h-0.125c-0.042-0.25-0.084-0.5-0.125-0.75c-0.404-0.049-0.482-0.153-0.75,0h-0.375
			c0.105-0.235,0.221-0.662,0.375-0.875v-0.125c0.453,0.162,0.771,0.624,1,1c0.629-0.105,0.762-0.403,0.875-1
			c-0.315-0.346-0.208-0.581-0.75-0.75c-0.468-0.242-1.435,0.415-1.625,0.875c-0.479-0.156-0.817-0.405-1.25,0h-0.25
			c-0.169-0.726-0.446-1.717-0.625-2.375c-0.042-0.542-0.084-1.084-0.125-1.625c-0.687-1.585-1.722-3.199-2.375-4.75
			c-0.397-0.943-0.472-1.809-1-2.625c-0.274-0.423-0.872-0.923-1.125-1.375c-0.464-0.829-0.527-1.577-1-2.375
			c-0.709-0.708-1.417-1.417-2.125-2.125c-0.042-0.208-0.084-0.417-0.125-0.625c-0.184-0.171-0.572-0.079-0.75-0.25
			c-0.32-0.308-0.463-0.78-0.75-1.125c-0.197-0.236-0.579-0.346-0.75-0.625c-0.042-0.25-0.084-0.5-0.125-0.75
			c-0.25-0.083-0.5-0.167-0.75-0.25c-0.241-0.18-0.933-1.36-1-1.625c-0.136-0.532,0.094-1.741,0-2.375
			c-0.132-0.89-0.282-1.611-0.25-2.5h-0.5c0.151-0.312,0.283-0.285,0.5-0.5c0.082-0.138,0.104-2.158-0.125-2.5
			c0.115-0.436-0.075-0.226,0.375-0.25c-0.06-0.566-0.116-0.454-0.375-0.75c0.575-0.286,1.464-1.835,1-2.625v-0.25
			c0.226,0.194,0.156,0.249,0.5,0.375c0.128-0.101,0.03-0.046,0.25-0.125c-0.081-0.633-0.366-0.933-0.625-1.375
			c-0.553,0.057-0.713,0.199-1.125,0.375c-0.293,0.796-0.193,1.549-0.5,2.5c-0.106,0.328-0.547,0.946-0.625,1.25
			c-0.137,0.533,0.212,1.416,0.125,1.875c-0.107,0.56-0.374,1.37-0.25,2c0.307,1.565-0.219,3.984,0.25,4.75v0.125
			c-1.062-0.141-1.295-0.773-2-1.125c-1.071-0.534-2.268-0.317-3.25-0.875c-0.473-0.269-1.043-0.969-1.5-1.25h-0.75
			c-0.423-0.161-0.876-0.738-1.25-0.875c-0.167,0.041-0.334,0.083-0.5,0.125c-0.584-0.257-0.898-1.039-1.375-1.375
			c-0.584,0.343-3.331-0.995-3.75-1.375c-0.89-0.489-0.77-2.17-1.125-3.5c-0.356-1.331-0.985-2.778-1.125-4.25
			c0.56-0.729,1.146-3.315,1-4.75c-0.287-0.145-0.414-0.275-0.75-0.375c-0.203,0.201-0.529,0.182-0.75,0.375
			c-0.403,0.352,0.087,0.584-0.625,0.75c0.173,0.904,0.277,2.485,0,3.625c-0.133,0.546-0.472,1.575-0.25,2.375
			c0.489,1.764,1.36,3.194,1.5,5.125c-2.414-0.309-5-1.396-7-2.25c-0.542-0.083-1.084-0.167-1.625-0.25
			c-0.838-0.277-1.781-0.848-2.625-1.125c-1.237-0.407-2.405-0.14-3.625-0.625l-0.375-0.375c-1.586-0.563-5.077-0.709-6.125-1.625
			c-0.307-0.268-0.265-0.769-0.5-1.125c-0.25-0.208-0.5-0.417-0.75-0.625c-0.519-0.721-1.754-3.265-1.75-4
			c-0.257-0.05-0.241-0.031-0.375-0.125h-0.125c0.146-0.101,0.209-0.101,0.5-0.125c-0.388-0.788-0.769-1.556-0.75-2.75
			c-0.341-0.003-0.573-0.005-0.75-0.125h-0.25v-0.25c0.216,0.08,0.122,0.024,0.25,0.125h0.375c-0.185-0.312,0.03-0.146-0.375-0.25
			v-0.25c0.19-0.068,0.209-0.089,0.5-0.125c-0.002-0.746-0.119-0.845-0.375-1.25c-0.386-0.006-0.641-0.044-0.875-0.125
			c-0.209,0.208-0.417,0.417-0.625,0.625c0.45,2.167,0.907,4.384,1.75,6.25c0.454,1.007,1.285,2.112,1.625,3.25l0.125,0.125h-0.125
			c-0.801,0.358-2.607-0.435-3.375-0.625h-1.75c-0.605-0.153-1.262-0.584-1.75-0.75c-1.209-0.167-2.417-0.334-3.625-0.5
			c-0.629-0.183-1.498-0.56-2.125-0.75c-0.752-0.229-1.146-0.12-1.875-0.375c-0.727-0.255-1.771-0.785-2.5-1
			c-0.292,0.041-0.584,0.083-0.875,0.125c-1.616-0.427-3.187-1.613-4.625-2.25c-0.811-0.358-1.442-0.291-2.25-0.625
			c-0.33-0.137-0.693-0.591-1-0.75c-0.792-0.412-1.488-0.474-2.25-0.875c-0.375-0.198-0.96-0.746-1.375-0.875
			c-0.167,0.041-0.334,0.083-0.5,0.125c-0.179-0.079-0.348-0.519-0.5-0.625c-0.209-0.042-0.417-0.084-0.625-0.125
			c-1.12-0.689-2.319-1.604-3.5-2.25c-0.341-0.187-0.73-0.129-1-0.375c-0.252-0.229-0.336-0.677-0.625-0.875
			c-1.118-0.767-2.173-1.344-3.25-2.125c-0.93-0.674-1.657-1.732-2.625-2.375C330.636,170.872,330.7,171.004,330.79,170.562z
			 M424.165,236.938c0.615,0.104,1.548,0.729,1.75,1.25c0.278-0.079,0.33-0.093,0.5-0.25h0.125c-0.117,0.382-0.209,0.368-0.25,0.875
			c-0.65-0.183-0.978-0.36-1.375,0.25C424.471,238.623,424.012,237.562,424.165,236.938z M424.165,234.688
			c0.364,0.004,0.681,0.006,0.875-0.125h0.25c-0.153,0.427-0.354,0.445-0.5,0.875c-0.445-0.042-0.417-0.008-0.625-0.25
			C424.07,235.03,424.155,235.067,424.165,234.688z M426.915,236.562v0.25c-0.167-0.125-0.334-0.25-0.5-0.375
			c0.089-0.391,0.082-0.263,0.25-0.5h0.25C426.854,236.283,426.764,236.299,426.915,236.562z M426.665,241.562
			c0.2,0.071,0.298,0.104,0.625,0.125c-0.084,0.25-0.167,0.5-0.25,0.75c-0.216,0.08-0.123,0.024-0.25,0.125h-0.125
			c-0.124-0.649-0.224-0.848-0.25-1.625C426.724,241.123,426.646,241.092,426.665,241.562z M381.915,192.688v0.5l-0.125-0.125h-0.25
			v-0.375H381.915z M359.79,187.562v0.25h-0.25v-0.25H359.79z M349.79,205.938c0.216,0.08,0.122,0.024,0.25,0.125
			C349.824,205.981,349.917,206.038,349.79,205.938z M373.665,213.188h0.625C374.071,213.33,373.884,213.335,373.665,213.188z
			 M374.54,212.938c-0.277-0.037-0.241,0.154-0.25-0.125h0.25V212.938z M416.29,225.812c-0.125-0.162,0.022-0.372-0.125-0.5
			c-0.167-0.042-0.334-0.084-0.5-0.125c0.041-0.125,0.083-0.25,0.125-0.375c-0.205-0.173-0.465-0.037-0.625-0.25
			c-0.187-0.248-0.131-0.572-0.375-0.75c-0.863-0.63-1.83-0.796-2.75-1.375c-0.251-0.158-0.762-0.526-1-0.75v-0.25
			c-0.292-0.042-0.584-0.084-0.875-0.125l-0.5-0.5c-0.322-0.184-0.556-0.064-0.875-0.25c-0.565-0.329-1.229-1.013-1.875-1.25
			c-1.508-0.554-2.627-0.886-4.125-1.5c-0.184-0.075-0.473-0.437-0.625-0.5c-0.755-0.317-1.44,0.028-2.25-0.25
			c-1.071-0.368-2.646-1.003-3.75-1.375c-1.731-0.583-3.52-0.772-5.125-1.375c-0.667-0.042-1.334-0.084-2-0.125
			c-0.336-0.098-1.037-0.421-1.375-0.5c-0.5,0.041-1,0.083-1.5,0.125c-1.588-0.487-3.71-0.682-5.375-1.125
			c-0.542,0.041-1.084,0.083-1.625,0.125c-0.206-0.067-0.545-0.435-0.75-0.5c-0.312-0.101-0.758,0.104-0.875,0.125
			c-0.724,0.13-1.99-0.417-2.375-0.75c-0.337,0.207-0.126-0.021-0.125,0.375c-0.558-0.093-0.704-0.369-1.125-0.5
			c-1.032-0.321-1.944-0.043-3-0.375c-0.569-0.179-1.723-0.602-2.25-0.75c-0.406-0.114-1.031,0.084-1.25,0.125
			c-0.76,0.143-3.193-0.18-3.75-0.375c-1.607-0.563-3.534-1.22-5.25-1.75c-2.003-0.619-3.814-0.619-5.5-1.5l-0.5-0.5
			c-0.417-0.083-0.834-0.167-1.25-0.25c-0.334-0.333-0.667-0.667-1-1c-0.448-0.258-0.887-0.166-1.375-0.375
			c-0.608-0.261-1.168-0.863-1.75-1.125c-0.353-0.159-0.698-0.054-1-0.25c-0.736-0.479-1.323-1.438-2-2
			c-1.401-1.164-2.924-2.16-4.375-3.25c-0.613-0.46-0.671-1.221-1.125-1.75c-0.104-0.121-0.401-0.109-0.5-0.25
			c-0.839-1.197-1.66-2.172-2.5-3.375c-0.523-0.749-1.46-1.376-2-2.125c-0.554-0.767-0.835-1.603-1.375-2.375
			c-0.451-0.646-1.382-0.995-1.75-1.75v-0.625c-0.129-0.283-0.622-1.257-0.875-1.5c-0.128-0.123-0.392,0.023-0.5-0.125
			c-0.084-0.5-0.167-1-0.25-1.5c-0.11-0.221-0.32-0.583-0.5-0.875c-0.125-0.042-0.25-0.084-0.375-0.125
			c-0.298-0.491,0.012-1.143-0.25-1.625h-0.25c-0.325-0.576-0.219-1.004-0.5-1.625c-0.057-0.125-0.458-0.501-0.5-0.625
			c-0.035-0.102,0.237-0.354,0.125-0.625c-0.11-0.264-0.616-0.631-0.75-0.875c-0.042-0.375-0.084-0.75-0.125-1.125
			c-0.071-0.185-0.438-0.474-0.5-0.625v-0.875c-0.178-0.544-1.104-3.674-1.375-4c0.024-0.325,0.055-0.425,0.125-0.625
			c1.582,0.087,2.287,1.52,3.25,2.25c0.2,0.151,0.423,0.1,0.625,0.25c0.25,0.333,0.5,0.667,0.75,1h0.75v0.375
			c0.245,0.24,0.685,0.198,0.875,0.5c0.151,0.24,0.049,0.583,0.25,0.75c0.308,0.256,0.777,0.17,1.125,0.375
			c0.333,0.196,0.592,0.554,1,0.75v0.125c0.07,0.246,0.125-0.25,0.125-0.25c0.917,0.412,1.01,1.687,1.875,2.125
			c0.125-0.042,0.25-0.084,0.375-0.125c0.166,0.208,0.333,0.417,0.5,0.625h0.375c0.187,0.113,0.331,0.501,0.5,0.625h0.375
			c0.394,0.26,0.639,0.958,1.125,1.125c0.268,0.092,0.63-0.259,1,0c0.715,0.501,1.299,1.317,2.25,1.625v0.125
			c0.07,0.246,0.125-0.25,0.125-0.25c0.967,0.132,0.285,0.356,0.75,0.625h0.75c0.361,0.137,0.588,0.586,0.875,0.75
			c0.582,0.332,1.047,0.283,1.625,0.625c0.041,0.125,0.083,0.25,0.125,0.375c0.37,0.3,1.586,0.761,2.125,0.75
			c0.277-0.006,0.942-0.231,1.375,0c0.236,0.127,0.658,0.974,0.875,1.125c0.375,0.083,0.75,0.167,1.125,0.25v0.25
			c0.25-0.042,0.5-0.084,0.75-0.125c0.092,0.058,0.128,0.433,0.25,0.5c0.527,0.294,0.931-0.013,1.375,0.125
			c0.189,0.059,0.713,0.444,0.875,0.5c0.291-0.042,0.583-0.084,0.875-0.125c0.041,0.125,0.083,0.25,0.125,0.375
			c0.417,0.157,0.791-0.249,0.875-0.25c0.991,0.074,0.461,0.272,0.875,0.5c0.208-0.042,0.416-0.084,0.625-0.125
			c0.321,0.153,0.575,0.72,1,0.875c0.393,0.143,1.575,0.22,1.625,0.25c0.088,0.055,0.441,0.546,0.75,0.625
			c0.884,0.226,1.238-0.383,2-0.5c-0.093,0.453,0.012,0.347-0.375,0.5v0.25c0.84-0.059,3.343,0.797,3.75,0.375
			c0.427,0.105,0.317,0.062,0.5,0.375c0.401-0.109,0.192,0.067,0.375-0.25c0.76,0.267,1.094,0.971,1.875,1.125
			c-0.081,0.216-0.024,0.122-0.125,0.25c-1.021,0.732-3.016,0.51-4.25,1c-0.379,0.15-0.849,0.666-1.25,0.875
			c-1.422-0.532-4.657,1.327-5.375,1.625h-0.625c-0.042,0.083-0.084,0.167-0.125,0.25c-0.26,0.096-1.25-0.125-1.25-0.125
			c-0.12,0.109,0.028,0.405-0.125,0.5h-0.5c-0.53,0.27-1.116,0.942-1.375,1.5c0.083,0.083,0.166,0.167,0.25,0.25
			c0.618-0.133,1.4-0.287,1.875-0.625c0.079-0.057,0.12-0.332,0.25-0.375c0.404-0.135,0.938,0.123,1.5-0.25
			c0.474-0.192,0.412-0.428,0.25-0.875c1.137-0.47,2.157-0.384,2.875-1c0.442,0.421,0.808-0.246,1.375-0.125
			c0.042,0.061-0.101,0.379,0.125,0.25c0.125-0.167,0.25-0.334,0.375-0.5c0.25,0.041,0.5,0.083,0.75,0.125
			c0.423-0.177,1.004-0.865,1.5-1c0.5,0.041,1,0.083,1.5,0.125c0.292-0.127,0.514-0.576,0.75-0.75c0.49,0.327,1.687-0.142,2-0.25
			c0.955-0.332,3.734-0.2,4-0.75c0.432,0.148,0.765,0.224,0.875,0.75c0.908-0.106,1.451,0.499,2.75,0.5v-0.5h0.25
			c-0.083,0.233-0.125,0.488-0.125,0.875c0.257-0.05,0.24-0.031,0.375-0.125c0.447,0.053,0.326-0.066,0.375,0.25
			c1.038-0.009,1.158,0.059,2,0.375c0.041-0.125,0.083-0.25,0.125-0.375c0.311,0.184,0.146-0.031,0.25,0.375
			c0.354-0.048,0.262-0.117,0.5,0c0.095-0.135,0.078-0.116,0.125-0.375h0.25l0.125,0.125c-0.185,0.312,0.03,0.146-0.375,0.25v0.25
			c0.642,0.041,0.569,0.088,1-0.125c0.068,0.19,0.088,0.209,0.125,0.5c1.345-0.187,3.169,1.593,4.375,0.75
			c0.068,0.19,0.088,0.209,0.125,0.5c0.803,0.102,1.211,0.524,1.75,0.75h1c0.999,0.363,3.49,0.843,4,1.75l0.125,0.125
			c-1.086,0.401-2.325,0.333-3.5,0.75c-1.472,0.522-3.208,1.752-5.125,2c-0.105,0.427-0.062,0.317-0.375,0.5
			c0.05,0.257,0.03,0.241,0.125,0.375c0.342,0.135,0.498-0.149,1-0.25v-0.375c1.474,0.263,2.475-0.613,3.625-1.125
			c0.53-0.236,1.5,0.029,2.25-0.25c1.242-0.463,4.312-1.579,6-1c0.876,0.301,3.991,1.663,4.5,2.25c0.013-0.013,0.754-0.056,1,0.125
			c0.151,0.111,0.184,0.529,0.375,0.625c0.379,0.19,1.409,0.193,1.5,0.25c0.166,0.104,0.426,0.535,0.625,0.625h0.625
			c0.4,0.208,0.625,0.894,1,1.125c0.453,0.279,0.73-0.303,1.25,0c0.901,0.525,1.021,1.262,2.625,1.25
			c-0.486,0.338-1.288,0.209-1.875,0.125v0.375c-1.039,0.146-3.483,0.438-4.375,1c-0.095,0.134-0.079,0.115-0.125,0.375
			c-0.558,0.057-0.621,0.187-1,0.375c-0.081,0.216-0.024,0.122-0.125,0.25c0.045,0.469,0.097,0.465,0.25,0.75h1.125
			c0.155-0.086,0.009-0.403,0.125-0.5c0.188-0.158,1.765-0.384,2.25-0.75h0.125c-0.042-0.083-0.084-0.167-0.125-0.25
			c0.653-0.295,1.662-0.002,2.125-0.125c0.36-0.096,1.593-0.561,1.625-0.5c0.452-0.041,1.097-0.271,1.5,0
			c0.584,0.15,0.289,0.319,0.625,0.625c0.314,0.286,0.729,0.141,1.125,0.375c0.48,0.285,0.787,1.062,1.25,1.375
			c0.208,0.041,0.416,0.083,0.625,0.125c0.147,0.124,0.126,0.464,0.25,0.625c0.316,0.411,0.963,0.688,1.25,1.125
			c0.083,0.291,0.166,0.583,0.25,0.875c0.151,0.215,0.432,0.077,0.625,0.25c0.409,0.366,0.808,1.361,1.125,1.875
			c0.166,0.125,0.333,0.25,0.5,0.375c0.594,0.903,0.681,1.916,1.25,2.875c0.185,0.312,0.721,0.641,0.875,1
			c0.041,0.375,0.083,0.75,0.125,1.125h0.25c0.041,0.208,0.083,0.417,0.125,0.625c0.062,0.086,0.441,0.163,0.5,0.25
			c0.237,0.354-0.065,0.893,0,1.125c0.317,1.134,1.307,2.696,1.75,3.875c0.214,0.57,0.004,1.524,0.125,1.875
			c0.204,0.593,0.52,0.588,0.625,1.375c-0.452-0.077-0.739-0.239-1-0.5h-0.125c0.15,0.332,0.455,0.568,0.75,0.75
			c-0.237,0.379-0.257,0.196-0.625,0.125c-0.11,0.228-0.211,0.454-0.375,0.625c0.05,0.257,0.03,0.241,0.125,0.375
			c0.315,0.611,0.958,0.279,1.375,0.5c0.498,0.695,0.417,2.812,0.75,3.375c-0.041,0.288-0.059,0.311-0.125,0.5
			c-0.922,0.025-1.059,0.036-1.75-0.25c-0.167,0.208-0.334,0.417-0.5,0.625h-0.25c0.062-0.417,0.237-0.898,0-1.25
			c-0.022-0.646-0.122-0.734-0.625-0.875c-0.195-0.116-0.684,0.217-1,0.375c0.059,0.563,0.116,0.95,0.375,1.5
			c-2.092-1.205-2.422-4.527-4.375-5.875v-0.5C417.544,226.816,416.628,226.251,416.29,225.812z M419.04,229.062v0.25h-0.125v-0.25
			H419.04z M401.54,227.062c-0.216-0.081-0.123-0.024-0.25-0.125C401.506,227.018,401.412,226.962,401.54,227.062z M393.79,225.938
			c-0.216-0.081-0.123-0.024-0.25-0.125C393.756,225.893,393.662,225.837,393.79,225.938z M391.165,225.562
			c0.041-0.042,0.083-0.084,0.125-0.125h0.375v0.125c-0.216,0.08-0.123,0.024-0.25,0.125
			C391.415,225.688,390.924,225.659,391.165,225.562z M390.165,225.812c-0.216-0.081-0.123-0.024-0.25-0.125
			C390.131,225.768,390.037,225.712,390.165,225.812z M375.165,227.062c0.041-0.042,0.083-0.084,0.125-0.125
			c0.101,0.128,0.046,0.03,0.125,0.25C375.415,227.188,374.924,227.159,375.165,227.062z M371.915,228.188v0.125
			c-0.216,0.08-0.123,0.024-0.25,0.125c-0.343-0.087-0.202,0.077-0.25-0.25H371.915z M370.79,228.438h0.25v0.25h-0.25V228.438z
			 M366.04,229.812c-0.081,0.216-0.024,0.122-0.125,0.25c-0.296,0.193-0.223-0.062-0.25-0.25H366.04z M360.915,231.562
			c0.216,0.08,0.122,0.024,0.25,0.125h-0.125c-0.042,0.041-0.084,0.083-0.125,0.125V231.562z M357.79,233.438h0.125v0.25h-0.125
			V233.438z M347.665,239.312c-0.216-0.081-0.123-0.024-0.25-0.125C347.631,239.268,347.537,239.212,347.665,239.312z
			 M344.915,241.688c0.125,0.041,0.25,0.083,0.375,0.125v0.125h-0.75C344.636,241.852,344.818,241.772,344.915,241.688z
			 M344.165,241.812c0.083,0.041,0.166,0.083,0.25,0.125v0.125h-0.25V241.812z M338.665,246.688h0.375v0.25h-0.375V246.688z
			 M338.165,248.438c-0.216,0.111-0.16,0.11-0.375,0H338.165z M337.54,248.438c-0.216,0.111-0.16,0.11-0.375,0H337.54z
			 M334.29,252.312h0.375v0.125c-0.042,0.042-0.084,0.083-0.125,0.125h-0.25V252.312z M330.29,262.312
			c-0.117,0.221-0.043,0.14-0.25,0H330.29z M327.415,300.188c0.216,0.08,0.122,0.024,0.25,0.125
			C327.449,300.231,327.542,300.288,327.415,300.188z M539.665,320.062c-0.122-0.032-0.056,0.037-0.125-0.125h-0.25
			c0,0,0.195-0.56,0.125-0.75c-0.062-0.164-0.325-0.304-0.375-0.5v-0.25h0.375c0.041-0.042,0.083-0.084,0.125-0.125
			c-0.064-0.447-0.1-0.537-0.375-0.75c0.186-0.345,0.338-0.228,0.5-0.625c0.534,0.332,0.604,0.543,1.25,0.5
			C540.705,318.215,540.174,319.482,539.665,320.062z M538.79,318.812c-0.292,0.166-0.584,0.333-0.875,0.5
			c-0.06,0.091-0.11,0.591-0.125,1c-0.042,0.041-0.084,0.083-0.125,0.125h-0.5c-0.071-0.483-0.114-0.941-0.5-1.375
			c0.167-0.696,0.729-0.454,1.125-0.875c0.215,0.076,0.393,0.116,0.75,0.125C538.479,318.771,538.473,318.491,538.79,318.812z
			 M538.165,317.062c-0.289-0.041-0.311-0.059-0.5-0.125c0.075-0.481,0.189-0.556,0.375-0.875c0.51,0.173,0.76,0.568,1,1
			C538.624,316.876,538.529,316.752,538.165,317.062z M545.04,306.812c-0.243,0.105-0.253-0.068-0.75-0.125
			c-0.107-0.232-0.179-0.331-0.25-0.625c-0.089-0.15,0.05-0.659,0.125-1c0.26,0.055,0.57,0.118,0.75,0.25
			c0.289,0.028,0.353,0.024,0.5,0.125C545.286,305.646,545.316,306.437,545.04,306.812z M547.54,298.438
			c-0.156-0.084-0.259-0.136-0.375-0.25h0.375V298.438z M547.54,297.688v0.25h-0.125c0.002-0.619,0.045-1.301,0.25-1.5
			c-0.186-0.31-0.053-0.198-0.5-0.25c0.096-0.086,0.278-0.165,0.375-0.25h0.375C547.829,296.469,547.936,297.235,547.54,297.688z
			 M548.29,293.562c-0.046,0.469-0.098,0.465-0.25,0.75c-1.036-0.09-1.138-0.611-1.875-0.875c-0.051-0.85-0.23-1.287-0.75-2.25
			c-1.243,0.031-1.432,1.467-1.75,2.375h0.125c0.335,0.134,0.226-0.021,0.5-0.25c0.35,0.568,0.939,2.572,1.125,3.25
			c0.612-0.031,1.116-0.211,1.5-0.5h0.125c-0.17,0.47-0.907,0.862-1.375,1c0.099,0.37,0.232,0.567,0.375,0.875
			c0.375,0.099,0.439,0.193,0.875,0.25c-0.104,0.613-0.44,0.977-0.875,1.25c-0.006,1.106,0.351,0.998,0.875,1.5
			c0.049,0.082,0.036,0.649-0.125,0.875v0.25c-0.442-0.23-0.692-0.762-1.125-1s-0.546,0.095-1,0c-0.903-0.189-1.378-0.495-2.25,0
			c-0.222-0.442-0.507-0.849-0.75-1.25c-0.554,0.083-0.858,0.282-1.25,0.5c-0.025,0.324-0.056,0.425-0.125,0.625
			c0.308,0.316,0.646,0.885,0.875,1.25c0.578,0.021,0.992,0.047,1.25-0.25c0.46,0.207,0.862,0.586,1.375,0.75v0.5h0.5l0.125,0.125
			c-0.141,0.765-0.324,1.078-0.625,1.625c-0.084,0.041-0.167,0.083-0.25,0.125c-0.118-0.302-0.211-0.609-0.25-1
			c-0.823,0.062-0.848-0.229-1.625-0.375c0.041-0.167,0.083-0.334,0.125-0.5c-0.573-0.14-0.727-0.365-1.125-0.625v-0.375
			c-0.824,0.024-1.728-0.684-2.25-0.375h-0.25c0.083,0.125,0.166,0.25,0.25,0.375c0.304-0.165,0.088,0.059,0.25-0.25h0.25
			c-0.057,0.746-0.077,1.241-0.125,1.875c1.398,0.198,0.608,1.161,2.5,1.375v0.125c-0.209,0.125-0.417,0.25-0.625,0.375
			c0.109,0.849,0.599,0.853,0.75,1.625c0.257-0.05,0.24-0.031,0.375-0.125c0.38-0.158,0.288-0.042,0.375-0.5h0.25
			c0.117,0.271,0.163,0.448,0.375,0.625c-0.025,0.569-0.014,0.541-0.375,0.75c0.003,0.341,0.005,0.572,0.125,0.75
			c0.174,0.091,0.157,0.04,0.375-0.125c1.002,0.083,0.7,0.541,0.75,1.25c0.041,0.125,0.083,0.25,0.125,0.375
			c-0.211,0.632-1.019,2.253-1.375,2.875c0.329,0.768-0.518,2.301-1,2.75v0.125c-0.123-0.203,0.11-0.474-0.125-0.75
			c-0.193-0.227-0.774-0.049-1-0.25c-0.084-0.292-0.167-0.584-0.25-0.875c-0.729-0.466-1.127,0.253-1.75-0.25h-0.25v0.375
			c0.42,0.047,0.26,0.025,0.75,0c-0.11,0.307-1.497,2.42-1.75,2.625c-0.171,0.012-0.176,0.031-0.375-0.25
			c-0.819,0.062-0.701,0.363-1.375,0.5c0.091,0.512,0.269,0.653,0.625,0.875c-0.042,0.208-0.084,0.417-0.125,0.625
			c-0.209,0.083-0.417,0.166-0.625,0.25c0.027,1.063,0.435,0.98,0.75,1.625c0.144,0.35-0.156,0.859,0,1.125v0.25
			c-0.338-0.115-0.366-0.215-0.625-0.375c-0.132-0.291-0.233-0.487-0.25-1.125h-0.125c-0.125,0.416-0.25,0.833-0.375,1.25
			c-0.341-0.003-0.573-0.005-0.75-0.125c-0.356,0.014-0.535,0.05-0.75,0.125v0.25c0.398-0.038,0.4-0.111,0.625,0
			c0.469,0.045,0.465,0.097,0.75,0.25v0.375c-0.613-0.099-0.731-0.149-1.25-0.375c-0.18,0.195-0.457,0.726-0.5,0.75
			c-0.542,0.3-0.654-0.079-1,0.375h-0.125v0.125c0.316-0.014,0.463-0.016,0.625-0.125c0.593,0.143,0.783,0.691,1.25,1v0.375
			c0.692-0.105,0.733-0.369,1.625-0.375c0.062-1.282,1.512-1.408,2.375-1.75c0.014-0.462,0.055-1.106-0.125-1.375v-0.25
			c0.581,0.012,1.299,0.104,1.5,0h0.25c-0.205,0.712-0.742,1.022-1,1.625c0.047,0.213,0.088,0.538-0.125,0.875
			c-0.125,0.041-0.25,0.083-0.375,0.125c-0.417,0.5-0.834,1-1.25,1.5c-0.735-0.3-1.642-1.044-2.25-0.125
			c-0.095,0.157-0.01,0.119,0,0.5c-0.25,0.041-0.5,0.083-0.75,0.125v0.25c0.289-0.028,0.353-0.024,0.5-0.125
			c0.988,0.044,0.759,0.419,1.25,0.875c-0.542,0.808-1.716,1.395-2,2.375h-1.125c-0.771,1.652-1.48,3.057-3.25,4
			c-0.125-0.333-0.25-0.667-0.375-1c-0.466-0.135-1.274-0.559-1.75-0.25c-0.325,0.024-0.425,0.055-0.625,0.125
			c0.456,0.714,0.846,1.17,1.25,1.75c0.426-0.026,0.638-0.061,0.875-0.25h0.125c-0.319,1.173-1.494,1.741-2.25,2.5
			c-1.839,1.843-1.862,2.197-4.875,1.875v0.375c0.617,0.287,0.811,0.577,1.25,1c-0.119,0.479-0.682,0.867-1.125,1
			c-0.135,0.095-0.116,0.078-0.375,0.125v0.5c-0.527,0.317-1.023,0.729-1.5,1.125c-0.153-0.184-0.278-0.525-0.375-0.75h-0.625
			c-0.076-0.39-0.021-0.304-0.25-0.5c-0.129-0.101-0.031-0.046-0.25-0.125c-0.227,0.252-0.442,0.439-0.625,0.75h-0.375v0.625
			c0.331,0.147,0.26,0.243,0.625,0.375c0.256,0.165,0.581,0.129,0.875-0.125h0.5c-0.389,0.98-2.45,1.793-3.375,2.375
			c-0.327,0.205-0.838,0.594-1.125,0.875v0.25c-0.375,0.083-0.75,0.166-1.125,0.25c-0.084,0.125-0.167,0.25-0.25,0.375h-0.625
			c-0.042,0.125-0.084,0.25-0.125,0.375c-0.513,0.355-1.023,0.317-1.625,0.625c-0.817,0.417-1.844,1.115-2.625,1.625
			c-0.457,0.298-0.949,0.169-1.5,0.375c-0.804,0.3-2.044,0.745-2.875,1.125c-0.083-0.314-0.036-0.068,0-0.375
			c-0.228-0.11-0.455-0.211-0.625-0.375c-0.646,0.316-0.598,1.132-1.125,1.5c-0.664,0.462-1.581,0.164-2.375,0.5
			c-0.581,0.245-1.048,0.768-1.625,1c-1.389,0.559-3.016,0.229-4.125,1c-0.289-0.041-0.311-0.059-0.5-0.125v-0.5
			c-0.426-0.104-0.634-0.351-0.875-0.625c-0.29,0.028-0.353,0.024-0.5,0.125c-0.67,0.261-0.49,1.083-0.375,1.5
			c-0.102,0.128-0.047,0.03-0.125,0.25c-0.709,0.125-1.417,0.25-2.125,0.375l-0.25-0.25c0.013-0.316,0.015-0.463,0.125-0.625
			c-0.333-0.557-0.857-0.264-0.875-0.875h-0.5c0.128,0.101,0.03,0.046,0.25,0.125v0.125c-0.508,0.145-0.629,0.381-1,0.625
			c0.107,0.232,0.178,0.33,0.25,0.625c-0.195,0.142-0.102,0.138-0.375,0.25c0.164,0.304-0.059,0.088,0.25,0.25
			c-0.161,0.109-0.309,0.115-0.625,0.125v0.375c-0.684-0.062-1.446,0.205-1.625,0.125c-0.368-0.19-0.278-0.428-0.625-0.625v-0.25
			c0.375-0.1,0.439-0.193,0.875-0.25v-0.5c-0.57,0.172-1.284,0.305-1.625,0.625c-0.11-0.16-0.116-0.309-0.125-0.625h-0.25
			c-0.064,0.163-0.153,0.492-0.25,0.625c-0.099,0.063-0.396-0.021-0.625,0.125c-0.609,0.242-0.503,0.803-0.875,1.25
			c-0.137,0.115-3.944,1.016-4,1l-0.375-0.375h-0.25v0.5c-1.168,0.046-1.928,0.161-3.125,0.375c-0.516,0.092-0.595-0.435-1-0.25
			c0,0-0.324,0.446-0.5,0.5c-0.976,0.298-2.462,0.037-3.375,0.25h-2.375c-0.656,0.162-1.33,0.188-2.125,0.375h-2.125
			c-3.348,0.805-7.297,0.718-10.25,0c-0.35-0.085-0.896,0.403-1.5,0.25c-1.26-0.32-2.12-0.71-3.5-1
			c-0.743-0.156-1.675,0.296-2.625,0c-0.784-0.244-1.691-0.801-2.375-1c-0.33-0.096-0.566,0.171-1,0
			c-1.355-0.536-2.22-1.101-3.375-1.75h-0.625c-0.79-0.388-1.458-1.286-2.5-1.375c-0.112-0.523-0.25-0.423-0.5-0.75
			c-0.07-0.056,0.406-1.145,0.625-1.375v-0.125c-0.521,0.185-0.673,0.646-0.875,1.125c-1.331-0.063-3.326-1.633-3.625-2.75
			c-0.501-0.107-1.236-0.594-1.875-0.375c-0.257,0.088-0.524,0.519-0.75,0.625c-0.852,0.399-1.628,0.411-2.375,0.875
			c-0.348,0.215-0.755,0.693-1.125,0.875c-0.459,0.041-0.917,0.083-1.375,0.125c-0.287,0.098-0.845,0.519-1.125,0.625
			c-0.83,0.315-1.148-0.058-1.875,0.125c-0.641,0.16-1.547,0.463-2.125,0.625h-1c-0.319,0.138-0.853,0.49-1.375,0.625
			c-0.542-0.042-1.084-0.084-1.625-0.125c-1.563,0.421-3.617,0.778-5.5,1.25c-1.06,0.265-2.311,0.159-3.25,0.375
			c-0.533,0.122-1.154-0.18-1.5-0.125c-1.735,0.271-3.188-0.003-4.75,0.25c-0.589,0.095-1.365-0.193-1.75-0.125
			c-1.973,0.348-3.862,0.339-5.25-0.125c-1.542-0.042-3.084-0.084-4.625-0.125c-2.124-0.562-4.758-0.779-6.75-1.5
			c-0.168,0.039-3.195-0.302-3.375-0.375c-0.297-0.12-0.83-0.622-1.125-0.75c-0.559-0.243-0.928-0.092-1.375-0.375
			c-0.084-0.125-0.167-0.25-0.25-0.375c-0.417-0.042-0.834-0.084-1.25-0.125c-0.446-0.199-0.848-0.911-1.25-1.125h-0.75
			c-0.292-0.175-0.59-0.686-0.875-0.875c-0.97-0.643-2.167-1.043-3.25-1.5v-0.5c-1.491-0.064-1.636-1.022-2.875-1.125
			c-0.237-1.104-1.14-0.683-1.875-1.25c-0.428-0.33-1.101-1.457-1.5-1.75c-0.779-0.57-1.537-0.882-2.125-1.625h-0.625
			c-0.174-1.278-1.52-1.517-2.25-2.25c-0.269-0.27-0.265-0.685-0.5-1c-0.165-0.221-0.568-0.179-0.75-0.375
			c-0.382-0.414-0.546-1.039-1-1.375c-0.221-0.163-0.586-0.167-0.75-0.375c-0.207-0.262-0.18-0.611-0.375-0.875
			c-0.437-0.589-1.29-0.909-1.75-1.5h-0.375v-0.375c-1.255-0.657-1.735-2.018-3-2.625v-0.5c-0.706-0.152-2.653-2.707-3.125-3.375
			c-0.16-0.227-0.595-0.287-0.75-0.5c-0.042-0.25-0.084-0.5-0.125-0.75c-0.385-0.694-1.882-1.702-2.375-2.375
			c-0.774-1.056-1.351-2.424-2.25-3.375c-0.295-0.312-0.928-0.624-1.125-1v-0.625c-0.209-0.125-0.417-0.25-0.625-0.375v-0.75
			c-0.25-0.167-0.5-0.334-0.75-0.5v-0.625c-0.497-1.164-1.592-2.146-1.5-3.25c-0.337-0.212-0.312-0.328-0.875-0.375
			c0.114-0.27,0.108-0.182,0.25-0.375c-0.647-0.621-0.826-1.372-1.25-2.25c-0.401-0.83-1.095-1.799-1.5-2.625v-0.5
			c-0.06-0.109-0.457-0.174-0.5-0.25c-0.218-0.39,0.214-1.13,0-1.625c-0.11-0.254-0.558-0.485-0.625-0.75
			c-0.131-0.508,0.151-1.62-0.125-2.375c-0.364-0.992-0.638-2.181-1-3.25c-0.312-0.064-0.107-0.021-0.5,0
			c0.204-0.438,0.365-5.093-0.25-5.75c0.218-0.33,0.008-0.174,0.375-0.125c-0.08-0.279-0.093-0.33-0.25-0.5
			c-0.165-0.286-0.27-0.194-0.5-0.375c-0.102-0.129-0.047-0.031-0.125-0.25c0.208-0.084,0.416-0.167,0.625-0.25
			c-0.087-0.343,0.077-0.202-0.25-0.25c0.248-0.771-0.199-1.02-0.125-1.625c0.017-0.141,0.356-0.564,0.375-0.625
			c0.232-0.758-0.461-0.575-0.375-1.25c0.164-1.294,0.367-3.603-0.25-4.25c0.153-0.308,0.223-0.192,0.375-0.5
			c0.574-0.881-0.277-1.885,0.125-3c0.348-0.967,0.974-3.669,0.125-4.625c0.201-0.121,0.012-0.008,0.375,0
			c0.026-1.906,1.179-4.155,0.375-5c0.184-0.312-0.031-0.146,0.375-0.25c-0.185-1.179-0.038-1.014,0.125-2.375h0.375
			c0.011-1.603,0.897-2.624,1.25-3.875c-0.042-0.458-0.084-0.917-0.125-1.375c0.166-0.125,0.333-0.25,0.5-0.375
			c0.145-0.227,0.33-1.431,0.375-1.75c0.208-0.042,0.416-0.083,0.625-0.125c0.072-0.823,0.357-1.128-0.125-1.5
			c0.367-0.591,0.292,0.022,0.75-0.25c0.063-0.038,0.317-0.398,0.5-0.5v-1.375c0.796-0.169,0.999-1.503,1.625-2.125
			c-0.097-0.086-0.279-0.165-0.375-0.25h-0.125c0.432-0.498,1.258-0.713,1.5-1.375c-0.032-0.121,0.037-0.056-0.125-0.125
			c0.213-0.204,0.441-0.394,0.75-0.5c0.04-0.42,0.12-0.312-0.125-0.625c0.307-0.293,0.85-0.432,1.125-0.75
			c-0.042-0.083-0.084-0.167-0.125-0.25c0.166-0.125,0.333-0.25,0.5-0.375c0.041-0.25,0.083-0.5,0.125-0.75
			c0.114-0.15,0.359-0.001,0.5-0.125c0.143-0.128,0.171-0.638,0.25-0.875c0.2,0.071,0.298,0.104,0.625,0.125
			c-0.014-0.316-0.016-0.463-0.125-0.625c0.394-0.729,1.328-1.079,1.75-1.75c0.194-0.31,0.172-0.711,0.375-1
			c0.308-0.216,0.894-0.018,1.25-0.25c0.041-0.125,0.083-0.25,0.125-0.375c0.532-0.476,0.885-0.982,1.875-1
			c0.011-0.456,0.156-0.203-0.125-0.5c0.371-0.691,1.155-0.428,1.375-1.375c0.62,0.101,1.055-0.1,1.5-0.5
			c0.109-0.161,0.115-0.309,0.125-0.625c0.157,0.069,0.377,0.15,0.5,0.25c0.491-0.249,1.036-1.25,1.25-1.375
			c0.247-0.145,0.3,0.187,0.625,0c0.885-0.509,2.456-2.438,3.5-1.75h0.125c-0.14-0.29-0.117-0.228-0.375-0.375
			c0.068-0.068,0.785-0.383,1.125-0.5c-0.165-0.304,0.058-0.088-0.25-0.25c0.843-0.583,2.014-0.572,2.875-1.125
			c0.245-0.157,0.179-0.547,0.375-0.75c0.125,0.041,0.25,0.083,0.375,0.125c0.044-0.028,0.625-0.75,0.625-0.75
			c0.208,0.041,0.416,0.083,0.625,0.125v-0.125c0.287-0.162,0.989-0.315,1.25-0.5c0.041-0.125,0.083-0.25,0.125-0.375
			c0.208-0.042,0.416-0.084,0.625-0.125c0.041-0.125,0.083-0.25,0.125-0.375v-0.125c0.316-0.188,1.234,0.383,1.75,0.125v-0.25
			c0.365-0.218,0.685-0.14,1-0.375c0.041-0.125,0.083-0.25,0.125-0.375c0.192-0.148,1.848-0.346,2.375-0.625
			c0.136-0.072,0.145-0.426,0.25-0.5c0.019-0.014,0.538,0.295,0.875,0.125c0.165-0.084,0.463-0.542,0.625-0.625
			c0.479-0.247,0.736,0.157,1.25,0c0.742-0.228,0.972-0.571,2-0.625c0.108-0.402-0.068-0.193,0.25-0.375
			c0.381-0.184,1.521,0.171,2.25-0.25c0.545-0.315,1.596-0.782,2.125-0.75c0.191,0.012,0.89,0.308,1.25,0.125v-0.25
			c0.708-0.083,1.416-0.167,2.125-0.25l0.375-0.375c0.333,0.083,0.666,0.167,1,0.25c0.043-0.008,0.26-0.283,0.375-0.25
			c0.07,0.021,0.243,0.372,0.25,0.375c0.546,0.237,0.794-0.316,1-0.375h0.25c0.291,0.028,1.182,0.169,1.75,0
			c0.083-0.083,0.166-0.167,0.25-0.25c0.176,0.281-0.041,0.192,0.375,0.25v-0.375c1.523,0.319,3.2,0.134,4.625-0.25
			c0.645-0.174,1.114,0.258,1.5-0.125c0.996-0.164,1.626,0.711,2.625,0.5c0.931-0.197,2.492,0,3.75,0.25
			c0.514,0.102,0.414-0.328,0.75-0.25c0.022,0.005,0.416,0.35,0.5,0.375c0.463,0.14,1.008,0.1,1.125,0.125
			c1.108,0.235,2.247-0.223,3.125,0c0.288,0.073,0.688,0.434,0.875,0.5c0.419,0.148,0.608-0.103,0.75-0.25
			c0.436,0.115,0.226-0.075,0.25,0.375c0.808,0.039,0.711-0.024,1.375-0.125c0.835,0.607,2.217,0.562,2.5,0.75
			c0.444,0.071,0.128,0.065,0.375,0.25c0.529,0.358,0.679-0.125,1.25,0c0.42,0.092,1.187,0.663,1.625,0.75
			c0.429,0.085,0.535-0.371,0.875-0.25c0.245,0.088,0.194,0.625,0.375,0.75h0.875c0.083,0.125,0.166,0.25,0.25,0.375
			c1.02,0.63,2.205,0.733,3.25,1.375c0.326,0.2,0.66,0.673,1,0.875c0.291,0.083,0.583,0.167,0.875,0.25
			c0.744,0.5,1.082,1.9,1.5,2.75c0.546,1.11,1.423,2.327,2,3.375c0.458,0.832,0.32,1.732,0.75,2.625c0.385,0.8,3.171,4.782,1.75,6
			c0.127,0.507,0.321,0.468,0.75,0.625c-0.067,1.168-0.511,1.857-1.375,2.25c0.056,0.978,0.692,1.861,1.25,2.375
			c-0.158,0.38-0.042,0.288-0.5,0.375v0.25c0.963-0.15,2.663,0.899,3.75,1.125c0.993,0.206,1.214-0.601,2.5,0.125
			c0.269-0.343,0.703-0.554,1-0.875c0,0,0.124-1.044,0.125-1.5c0.216,0.08,0.122,0.024,0.25,0.125h0.375
			c-0.577-0.703-0.101-1.846,0-3h0.375c0.458-2.02,1.45-3.732,2.125-5.5c0.345-0.905,0.439-1.946,1.125-2.5
			c-0.165-0.304,0.059-0.088-0.25-0.25c0.104-0.338,0.045,0.004,0.25-0.25c0.329-0.302,0.352-1.026,0.625-1.375
			c0.134-0.095,0.115-0.079,0.375-0.125v-0.875c0.711-0.202,2.335-1.309,2.875-0.75h0.125c-0.08-0.279-0.093-0.33-0.25-0.5
			c0.318-0.574,2.985-1.473,3.75-1.875c0.382-0.201,1.247-0.638,2-0.875h0.75c0.257-0.098,0.521-0.516,0.75-0.625
			c0.054-0.026,1.072-0.144,1.375-0.375c0.041-0.125,0.083-0.25,0.125-0.375c0.388-0.176,0.837,0.214,1.375,0
			c1.086-0.432,4.114-1.073,4.875-1.625c0.525-0.206,0.395-0.29,0.375-0.75c0.148,0.142,0.268,0.317,0.375,0.5
			c0.773-0.028,1.822-0.502,2.125-0.375c0,0,0.49-0.028,0.25-0.125l-0.125-0.125c1.611,0.137,3.517-0.668,4.75-1
			c0.686-0.185,1.878,0.206,2.5,0c0,0,1.532-0.67,1.625-0.625c0.041,0.125,0.083,0.25,0.125,0.375
			c0.326,0.1,0.939-0.306,1.125-0.375c0.952,0.213,2.299-0.271,2.75-0.125c0.849,0.273,3.359,0.15,3.625-0.625
			c0.279,0.161,0.265,0.325,0.375,0.625c0.789,0.027,2.027-0.219,2.875-0.375c1.098,0.661,4.49,0.366,5.375,0.25
			c1.119-0.147,2.113,0.688,2.875-0.25c0.307,0.153,0.191,0.223,0.5,0.375c0.43,0.252,1.26-0.135,1.875,0
			c0.041,0.083,0.083,0.167,0.125,0.25c0.545-0.171,0.522-0.216,1,0c0.388-0.134,0.907,0.063,1.25,0
			c0.083-0.083,0.166-0.167,0.25-0.25h0.25c0.067,0.033,0.273,0.458,0.375,0.5c0.214,0.088,1.042,0.111,1.125,0.125
			c0.431,0.067,0.38-0.21,0.5-0.25c0.306-0.102,0.694,0.207,0.875,0.25c0.416-0.042,0.833-0.084,1.25-0.125h0.25v0.25
			c0.742,0.354,1.247-0.05,1.875,0.25l0.5,0.5c0.49,0.118,0.229-0.316,0.625-0.25c0.537,0.09,1.166,0.677,1.625,0.875
			c0.5,0.041,1,0.083,1.5,0.125c0.083,0.125,0.166,0.25,0.25,0.375c0.492-0.236,3.52,1.01,4.25,1.25
			c0.738,0.243,1.087-0.023,1.625,0.125c0.446,0.123,0.951,0.627,1.375,0.75c0.525,0.152,0.511-0.202,1,0
			c0.261,0.107,0.426,0.495,0.625,0.625c0.508,0.332,1.545,0.331,2.125,0.625l0.75,0.75c0.208-0.042,0.416-0.084,0.625-0.125
			c0.083,0.045,0.264,0.446,0.375,0.5c0.569,0.274,1.014,0.188,1.5,0.5c0.816,0.522,1.346,1.534,2.25,2
			c0.291,0.041,0.583,0.083,0.875,0.125c0.622,0.372,1.313,0.899,2,1.25c0.183-0.057,0.252-0.168,0.5,0
			c0.041,0.125,0.083,0.25,0.125,0.375c0.382,0.318,0.922,0.239,1.375,0.5c0.125,0.166,0.25,0.333,0.375,0.5
			c0.573,0.326,1.265,0.374,1.625,0.875v0.5c0.105,0.218,0.368,0.218,0.5,0.375v0.375c0.493,0.532,1.435,0.657,1.875,1.25
			c1.319,1.776,2.492,3.53,3.875,5.25c0.162,0.202,0.427,0.079,0.625,0.25c0.738,0.639,1.056,1.807,1.75,2.5
			c0.291,0.166,0.583,0.333,0.875,0.5c0.192,0.293,0.034,0.742,0.25,1c1.142,1.371,1.995,3.108,3.25,4.375
			c0.015,0.501-0.032,1.034-0.375,1.5c0.163,0.86,1.333,0.811,1.75,1.5c0.528,0.873,0.622,2.424,1.125,3.25l0.5,0.25
			c0.327,0.555,0.239,1.022,0.5,1.625c0.283,0.656,1.004,1.438,1.25,2.125c0.252,0.704,0.041,1.2,0.25,1.875
			c0.139,0.448,0.675,1.249,0.75,1.625c0.091,0.457-0.141,1.27,0.125,1.75v0.375c-0.333-0.156-0.922-0.28-1.25-0.5
			c-0.466,0.088-0.442,0.184-0.75,0.375c0.1,0.621,0.365,0.816,0.625,1.25c0.447,0.093,0.9,0.223,1.25,0.375
			c0.076-0.215,0.116-0.394,0.125-0.75h0.125c0.563,1.156,0.764,2.263,1,3.625c-0.102,0.128-0.047,0.03-0.125,0.25
			c-0.404,0.048-0.482,0.152-0.75,0c-0.416,0.001-0.744,0.036-1,0.125c-0.161,0.572-0.423,1.318,0,1.875
			c0.26,0.151,1.658,0.115,1.875-0.125c0.867,0.221,0.599,1.091,1,1.75c-0.028,0.29-0.025,0.353-0.125,0.5
			c-0.231,0.128-0.993,0.32-1.5,0.375c-0.022,0.479,0.018,0.687-0.125,1.125c0.314,0.303,0.394,0.588,0.875,0.75
			c0.175,0.087,0.646,0.018,1.125,0c0.048,0.403,0.152,0.482,0,0.75v0.25c-0.393-0.246-0.976-0.37-1.375-0.625h-0.5
			c0.08,0.216,0.024,0.122,0.125,0.25c-0.406,0.367-0.857,0.617-1.625,0.625v0.25c0.629-0.006,0.899,0.061,1.25,0.25
			c-0.042,0.291-0.084,0.583-0.125,0.875c0.79,0.11,0.675,0.542,1.375,0.75c-0.698,0.865-0.286,2.015,0.375,3
			c0.641-0.103,0.636-0.137,1.5-0.125C548.387,292.271,548.352,293.389,548.29,293.562z M542.04,304.688v0.5h-0.375
			c0.068-0.19,0.088-0.209,0.125-0.5H542.04z M426.04,195.688c0.017-0.376,0.093-0.349,0-0.5c-0.025-0.325-0.056-0.425-0.125-0.625
			c-0.325-0.025-0.425-0.056-0.625-0.125l-0.375,0.375c0.024,0.521,0.087,0.572,0.25,0.875
			C425.575,195.733,425.503,195.705,426.04,195.688z M425.29,199.688c-0.146,0.398-0.194,0.734,0.125,1
			c0.132,0.077,0.85,0.128,0.875,0.125h0.25c-0.253-0.517-0.58-0.703-0.875-1.125H425.29z M382.415,201.438
			c-0.258,0.086-0.553,0.55-0.75,0.625c-0.25-0.042-0.5-0.084-0.75-0.125c-0.374,0.092-2.048,0.753-2.375,1
			c-0.086,0.096-0.165,0.278-0.25,0.375c0.092,0.453-0.013,0.347,0.375,0.5c0.404,0.176,1.254-0.464,1.375-0.5
			c0.209-0.062,0.623,0.23,0.75,0.25c0.646,0.096,0.457-0.349,0.75-0.5c0.166,0.041,0.333,0.083,0.5,0.125
			c0.916-0.424,0.733-1.332,2.125-1.625v-0.25c-0.19-0.068-0.209-0.089-0.5-0.125C383.26,201.542,382.786,201.312,382.415,201.438z
			 M423.79,206.812c0.21,0.141,0.628,0.058,1.125,0c0.124-0.237,0.172-0.344,0.375-0.5c-0.17-0.382-0.579-0.743-1-0.875
			c-0.191,0.131-0.513,0.132-0.875,0.125c-0.081,0.216-0.024,0.122-0.125,0.25C423.31,206.459,423.399,206.565,423.79,206.812z
			 M430.665,206.812c0.041-0.042,0.083-0.084,0.125-0.125c-0.042-0.25-0.084-0.5-0.125-0.75c-0.409-0.061-0.599-0.149-0.75-0.125
			c-0.398,0.197-0.392,0.402-0.375,1C430.121,206.867,430.331,206.798,430.665,206.812z M414.54,210.562
			c-0.116,0.113-0.218,0.169-0.375,0.25c-0.029,1.294,0.318,1.032,0.875,1.625c0.347-0.163,0.445-0.419,0.75-0.625
			c-0.032-0.437-0.044-0.526-0.25-0.75C415.358,210.722,415.006,210.607,414.54,210.562z M424.665,212.812v1.125
			c0.664,0.09,1.544,0.235,1.75,0.125c0.484,0.001,0.565,0.067,0.75-0.25c0.101-0.129,0.046-0.031,0.125-0.25
			C426.123,212.978,426.422,212.769,424.665,212.812z M431.915,214.062c0.089-0.391,0.082-0.263,0.25-0.5
			c0.098-0.078,0.031-0.004,0-0.125c-0.191-0.474-0.543-0.449-0.875-0.75h-0.125c-0.081,0.216-0.024,0.122-0.125,0.25
			c0.001,0.597,0.069,0.791,0.25,1.125H431.915z M429.04,215.188c0.469-0.045,0.465-0.097,0.75-0.25
			c-0.064-0.637-0.189-0.548-0.5-0.875c-0.638,0.032-0.636,0.146-1,0.375c0.041,0.291,0.083,0.583,0.125,0.875
			C428.731,215.299,428.878,215.297,429.04,215.188z M426.915,216.562c-0.147-0.393-0.34-0.51-0.75-0.625
			c-0.2,0.309-0.354,0.497-0.75,0.625c0.157,0.623,0.605,0.641,1,1c0.324-0.025,0.424-0.056,0.625-0.125
			C427.044,217.073,427.046,216.756,426.915,216.562z M408.04,217.438v-0.375c-0.508,0.094-0.729,0.273-1.375,0.375
			c0.094,0.686,0.338,0.814,0.625,1.25c0.449-0.043,0.419-0.086,0.75,0c0.041-0.042,0.083-0.084,0.125-0.125
			C408.086,218.093,407.858,217.765,408.04,217.438z M419.04,218.688c0.288-0.041,0.311-0.059,0.5-0.125
			c0.041-0.125,0.083-0.25,0.125-0.375c-0.413-0.279-0.556-0.599-1.125-0.75c-0.177,0.246-0.165,0.264-0.5,0.375
			c0.068,0.19,0.088,0.209,0.125,0.5C418.66,218.253,418.751,218.271,419.04,218.688z M427.915,219.938
			c0.459,0.201,0.974-0.366,1.375-0.625c0.185-0.337-0.134-0.208,0.25-0.375c-0.388-0.353-0.771-0.612-1.5-0.625
			c-0.146,0.145-0.354,0.231-0.5,0.375c-0.139,0.169-0.194,0.359-0.25,0.625C427.554,219.585,427.501,219.775,427.915,219.938z
			 M419.915,220.312c0.629-0.075,0.583-0.261,1-0.5c-0.059-0.562-0.162-0.534-0.375-0.875h-0.75c-0.312,0.317-0.565,0.675-0.875,1
			C419.09,220.268,419.634,220.469,419.915,220.312z M413.915,219.938c-0.081-0.216-0.024-0.122-0.125-0.25
			c-0.164-0.301-0.255-0.295-0.625-0.375c-0.153,0.298-0.3,0.297-0.125,0.625c0.249,0.106,0.459-0.104,0.625,0H413.915z
			 M414.415,221.562c-0.19,0.221-0.615,0.369-0.875,0.5c0.094,0.39,0.219,0.59,0.375,0.875c0.427-0.03,0.542-0.104,0.75,0h0.25
			c-0.081-0.216-0.024-0.122-0.125-0.25C414.805,222.026,414.789,221.822,414.415,221.562z M420.665,222.312
			c0.024,0.521,0.087,0.572,0.25,0.875c0.819-0.015,0.915-0.202,1.375-0.5v-0.5c-0.674-0.098-0.826-0.197-1.5-0.125
			C420.709,222.278,420.766,222.185,420.665,222.312z M428.165,222.938c0.004-0.364,0.006-0.682-0.125-0.875
			c-0.245-0.146-0.471-0.056-0.75-0.125c0.08,0.216,0.024,0.122,0.125,0.25c-0.081,0.216-0.024,0.122-0.125,0.25
			c-0.24,0.114-0.092,0.05-0.375,0c0.04,0.288,0.058,0.311,0.125,0.5c0.34,0.073,0.581,0.192,0.875,0H428.165z M419.29,225.562
			c0.583-0.383-0.031-0.315,0.25-0.75c0.062-0.096,0.448-0.113,0.5-0.25c0.248-0.663-0.589-0.557,0.125-1
			c-0.112-0.523-0.25-0.423-0.5-0.75c-0.522,0.102-0.526,0.27-0.875,0.5c0.125,0.651,0.147,1.44,0.125,1.75h-0.875v0.625
			C418.477,225.7,419.041,225.729,419.29,225.562z M428.915,223.812c-0.292-0.042-0.584-0.084-0.875-0.125
			c-0.551,0.833-0.371,1.447,0.75,1.625c0.145-0.352,0.359-0.897,0.125-1.25V223.812z M431.29,226.938
			c0.095-0.135,0.078-0.116,0.125-0.375c0.372-0.057,0.422-0.063,0.625-0.25c0.371-0.146,0.35-0.292,0.625-0.5v-0.5
			c-0.372-0.057-0.422-0.063-0.625-0.25c-0.604,0.125-0.688,0.47-1.125,0.75c0.062,0.451,0.285,0.882,0.375,1V226.938z
			 M422.915,225.812c-0.167,0.166-0.334,0.333-0.5,0.5c-0.081,0.216-0.024,0.122-0.125,0.25c-0.13-0.377-0.252-0.371-0.375-0.75
			h-0.375c-0.263,0.268-0.503,0.202-0.875,0.375c-0.003,0.341-0.005,0.572-0.125,0.75v0.125c0.252,0.053,1.108,0.328,1.5,0.125
			c0.041-0.125,0.083-0.25,0.125-0.375c0.596-0.188,0.618,0.495,1.125,0.25c0.345-0.169,0.278-0.333,0.625-0.5v-0.25
			C423.552,226.112,423.396,225.924,422.915,225.812z M423.915,226.562c0.176,0.246,0.164,0.264,0.5,0.375l-0.125-0.125
			C424.12,226.612,424.213,226.668,423.915,226.562z M420.04,228.562c0.041,0.125,0.083,0.25,0.125,0.375
			c0.216,0.08,0.122,0.024,0.25,0.125h1.125c-0.088-0.268-0.101-1.012-0.25-1.25v-0.25h-1.125
			C420.072,228.021,419.813,228.178,420.04,228.562z M424.79,232.312c0.444-0.042,0.416-0.008,0.625-0.25
			c0.338-0.685-0.489-0.956-1.125-1.125c-0.116,0.113-0.218,0.169-0.375,0.25c0.044,0.799,0.308,0.786,0.625,1.25
			C424.756,232.356,424.662,232.413,424.79,232.312z M415.665,235.062c0.08,0.216,0.024,0.122,0.125,0.25v0.125
			C416.152,235.279,415.907,235.263,415.665,235.062z M434.04,241.188c0.08-0.187,0.155-0.055,0-0.25
			c-0.084,0.155-0.136,0.258-0.25,0.375v0.125C434.094,241.272,433.878,241.496,434.04,241.188z M524.29,252.312
			c0.599-0.045,0.727-0.145,0.875-0.625c0.041-0.042,0.083-0.084,0.125-0.125h-0.125c-0.056-0.805-0.411-1.109-1.125-1.25
			c-0.192,0.19-0.512,0.367-0.75,0.5C523.25,251.621,523.571,252.704,524.29,252.312z M507.04,258.062
			c0.124-0.237,0.172-0.344,0.375-0.5c-0.078-0.641-0.268-0.553-0.375-1.125c-0.549,0.078-0.665,0.265-0.875-0.25
			c-0.419,0.218-0.631,0.508-1,0.75c0.082,0.553,0.282,0.857,0.5,1.25C506.123,258.146,506.581,258.104,507.04,258.062z
			 M516.165,265.938c0.647-0.01,0.823-0.124,1.25-0.25c0.012-1.062-0.241-1.602-0.875-2c-0.259,0.292-0.671,0.275-1.25,0.25
			c0.156,0.304,0.167,1.16,0.375,1.5C515.816,265.75,515.948,265.722,516.165,265.938z M531.665,266.312
			c-0.05-0.257-0.031-0.241-0.125-0.375c-0.146-0.372-0.292-0.35-0.5-0.625c-0.257,0.05-0.241,0.031-0.375,0.125
			c-0.461,0.265-0.296,0.564-0.25,1.25C531.161,266.686,531.26,266.568,531.665,266.312z M539.79,269.688
			c0.021-0.914-0.157-1.101-0.75-1.375v-0.625c-0.389-0.009-0.789-0.018-1,0.125c-0.11,0.159,0.377,1.34,0.5,1.75
			C538.956,269.604,539.373,269.646,539.79,269.688z M541.165,276.312c0.508-0.129,0.454-0.328,0.75-0.625
			c-0.11-0.582-0.399-0.896-0.625-1.375h-0.875c-0.151,0.328-0.239,0.472-0.25,1C540.494,275.627,540.85,275.982,541.165,276.312z
			 M544.79,278.312c0.158-1.329,0.732-0.631,0-1.75c-0.216-0.081-0.123-0.024-0.25-0.125c-0.509-0.007-1.042,0.01-1.375,0.125
			c0.085,0.46,0.131,1.183,0.375,1.5C543.634,278.125,544.394,278.271,544.79,278.312z M537.29,280.312
			c0.291-0.083,0.583-0.167,0.875-0.25c0.08-0.216,0.024-0.122,0.125-0.25c-0.083-0.802-0.12-0.295-0.625-0.625
			c-0.246-0.16,0.055-0.27-0.25-0.5c-0.177,0.411-0.328,0.72-0.625,1C536.935,280,537.107,280.047,537.29,280.312z M528.79,281.062
			c-0.257,0.05-0.241,0.031-0.375,0.125c-0.624-0.002-0.754,0.019-1,0.375c-0.095,0.157-0.01,0.119,0,0.5h-0.375
			c0.224,0.401,0.777,0.477,1.125,0.75c0.743-0.026,0.751-0.206,1.25-0.375C529.276,281.796,529.065,281.502,528.79,281.062z
			 M540.54,283.312h-0.625c-0.14,0.682-0.181,1.399-0.125,2c1.427,0.665,2.5-0.162,4-0.375c0.05-0.257,0.03-0.241,0.125-0.375v-0.25
			c-0.732,0.112-1.824,0.376-2.375,0.5C541.242,284.293,540.73,283.851,540.54,283.312z M517.165,286.938
			c0.588-0.268,0.946-0.485,1.375-0.875c-0.083-0.681-0.339-0.678-0.5-1.25c-0.5,0.055-0.548,0.077-1,0
			C516.975,285.678,517.049,286.188,517.165,286.938z M506.415,286.438c0.055-0.245-0.055-0.161-0.125-0.25
			c-0.075-0.677-0.352-0.802-0.625-1.25h-0.875c-0.222,0.824,0.339,1.342,0.75,1.875c0.419-0.072,0.522-0.139,0.75-0.375H506.415z
			 M538.665,284.938c-0.291,0.231-0.441,0.196-0.75,0.125c-0.084,0.155-0.136,0.259-0.25,0.375c0.026,0.426,0.06,0.638,0.25,0.875
			c0.174,0.359,0.515,0.472,0.875,0.625c0.166-0.167,0.333-0.334,0.5-0.5c0.012-0.689-0.042-1.112-0.25-1.5H538.665z
			 M550.54,290.562c-0.072-0.42-0.14-0.523-0.375-0.75c-0.042,0.125-0.084,0.25-0.125,0.375l0.25,0.25v0.125H550.54z
			 M489.415,292.188h0.125c-0.101-0.327-0.155-0.296-0.25-0.625c-0.454-0.11-0.664-0.235-1.25-0.25
			c-0.162,0.258-0.266,0.285-0.375,0.625c0.244,0.244,0.551,0.603,0.75,0.875C489.029,292.759,489.172,292.582,489.415,292.188z
			 M541.665,293.562c-0.517,0.038-1.037,0.126-1.25,0.25c-0.313,0.145-0.359,0.317-0.625,0.5c0.181,0.403,0.313,0.28,0.375,0.875
			c0.333,0.166,0.666,0.333,1,0.5c0.206-0.298,0.336-0.397,0.75-0.5C541.975,294.484,541.8,294.224,541.665,293.562z
			 M542.415,295.562h-1l0.125,0.125c0.134,0.095,0.115,0.078,0.375,0.125c-0.054,1.038,0.104,1.307,0.875,1.5
			c0.275,0.105,0.14,0.097,0.375-0.125h0.375l-0.375,1.125c0.098,0.47,0.599,0.548,0.125,1.125c0.028,0.29,0.024,0.353,0.125,0.5
			c0.114,0.194,0.271-0.201,0.375-0.375c0.344,0.163,0.381,0.384,0.625,0.625c0.128,0.101,0.03,0.046,0.25,0.125
			c0.421-0.398,0.799-0.474,1-1.125c0.114-0.208,0.025-0.323,0-0.75c-0.453-0.192-0.656-0.382-1-0.625v-0.625h-0.875
			c0.083-0.125,0.166-0.25,0.25-0.375c-0.336-0.329-0.676-0.798-0.75-1.375C542.906,295.532,542.668,295.684,542.415,295.562z
			 M535.04,297.562c0.625-0.064,0.723-0.258,1.125-0.5c-0.003-0.619-0.081-0.876-0.25-1.25c-0.798-0.182-0.893-0.085-1.75,0
			c0.076,0.644,0.282,0.645,0.375,1.25h-0.625C534.172,297.348,534.729,297.337,535.04,297.562z M536.29,304.188
			c0.098-0.629-0.004-1.2,0.5-1.625c-0.433-0.325-1.106-0.168-1.625-0.375c-0.129,0.101-0.031,0.046-0.25,0.125
			c-0.069,0.453-0.252,0.991-0.125,1.25v0.625C535.317,304.294,535.739,304.258,536.29,304.188z M543.79,303.812v-0.375h-0.25
			c-0.042,0.041-0.084,0.083-0.125,0.125C543.599,303.874,543.384,303.709,543.79,303.812z M522.415,306.938
			c0.041-0.084,0.083-0.167,0.125-0.25c-0.19-0.068-0.209-0.089-0.5-0.125v-0.5c-0.57-0.025-0.541-0.014-0.75-0.375
			c-0.518,0.093-0.564,0.244-0.875,0.5c-0.043,0.473,0.078,0.732,0.125,1.375C521.364,307.467,521.873,307.251,522.415,306.938z
			 M538.04,308.812c0.572,0.31,1.769,0.976,2,1.625c0.595-0.16,0.644-0.439,1.125-0.375c-0.066-0.488-0.162-0.587-0.375-0.875
			c-0.113-0.105,0.299-1.55,0.5-1.75c-0.388-0.576-0.995,0.15-1.75-0.25c-0.353-0.188-0.209-0.451-0.875-0.5
			c-0.146,0.532-0.279,0.561-0.75,0.75C537.979,308.066,538.178,308.323,538.04,308.812z M540.415,309.562
			c0.083,0.041,0.166,0.083,0.25,0.125c-0.042,0.041-0.084,0.083-0.125,0.125v0.125h-0.25
			C540.331,309.812,540.373,309.688,540.415,309.562z M535.54,307.188c-0.385,0.135-0.452,0.306-0.75,0.5
			c0.152,0.625,0.098,0.296,0,1c0.605,0.136,1.562,0.844,1.875,0.375c0.195,0.248,0.408,0.695,0.5,1h0.25
			c0.069-0.157,0.15-0.378,0.25-0.5c-0.417-0.403-0.665-1.317-1.25-1.875C536.069,307.45,535.791,307.524,535.54,307.188z
			 M532.29,309.438c-0.312,0.419-0.289,0.303-0.875,0.25c-0.172,0.383-0.376,0.61-0.5,1c-0.252,0.502,0.226,0.911,0.5,1.25
			c0.375,0.041,0.75,0.083,1.125,0.125c0.283-0.32,0.583-0.556,1-0.75c0.004-0.364,0.006-0.682-0.125-0.875
			C533.344,310.243,532.397,309.493,532.29,309.438z M537.79,310.188v0.375h0.125c0.041-0.042,0.083-0.084,0.125-0.125
			C537.875,310.134,538.099,310.35,537.79,310.188z M540.04,310.688c-0.312,0.184-0.146-0.031-0.25,0.375h0.375
			C540.123,310.938,540.081,310.812,540.04,310.688z M540.165,311.188c-0.294,0.213-0.357,0.521-0.625,0.75
			c-0.175,0.091-0.158,0.04-0.375-0.125c-0.327,0.1-0.297,0.155-0.625,0.25c0.035,0.881,0.352,1.208,0.625,1.875
			c0.671-0.133,0.67-0.556,1.125-0.75c0.652-0.279,1.221-0.145,1.75-0.5c0.403-0.294,0.346-0.713,0.625-1.125v-0.625
			c-0.473,0.027-0.825-0.122-1.625-0.125C540.736,311.04,540.274,311.096,540.165,311.188z M393.165,311.562v0.25h0.375
			C393.355,311.501,393.57,311.666,393.165,311.562z M506.665,312.312c0.106,0.462,0.229,0.825-0.125,1.125
			c0.074,0.741,0.367,0.739,0.75,1.125c1.124-0.032,1.093-0.666,1.75-1.125v-0.25c-0.215-0.165-0.294-0.48-0.5-0.625
			c-0.406-0.285-1.001-0.364-1.375-0.625C506.988,312.184,507,312.201,506.665,312.312z M535.29,312.938
			c-0.562,0.01-0.683,0.078-1,0.25c0.075,0.39,0.114,0.52,0,0.875c0.255,0.152,0.237,0.08,0.375,0.375h0.375
			c0.018,0.578,0.038,0.642,0.375,0.875v0.25c-0.267-0.063-0.452-0.112-0.625-0.25h-0.25c0.204,0.409,0.54,0.371,0.875,0.625
			c0.734,0.011,0.955-0.075,1.125-0.625c0.439-0.596,0.113-1.672-0.125-2C536.136,313.166,535.655,313.26,535.29,312.938z
			 M537.54,314.188v-0.25h-0.25C537.312,314.277,537.198,314.096,537.54,314.188z M530.915,316.438
			c0.355-0.014,0.534-0.05,0.75-0.125c0.069-0.157,0.15-0.378,0.25-0.5c-0.003-0.896-0.32-0.963-0.875-1.25
			c-0.15,0.104-0.403,0.011-0.625,0.125c-0.25,0.291-0.5,0.583-0.75,0.875C529.915,316.11,530.729,316.409,530.915,316.438z
			 M368.165,315.062c-0.148-0.146-0.11-0.056-0.375-0.125C368.005,315.11,367.857,315.235,368.165,315.062z M525.29,317.688h0.125
			v-0.125h-0.5C525.136,317.89,524.988,317.751,525.29,317.688z M524.165,319.438c0.184,0.312-0.031,0.146,0.375,0.25
			c-0.056,0.26-0.119,0.57-0.25,0.75c0.08,0.216,0.024,0.122,0.125,0.25c0.501,0.322,1.26-0.114,1.875-0.25
			c0.026-0.427,0.06-0.639,0.25-0.875c-0.277-0.26-0.366-0.174-0.5-0.625c-0.391,0.185-0.418,0.285-0.75-0.125
			C524.493,318.859,524.611,319.11,524.165,319.438z M515.04,322.062c0.146-0.146,0.354-0.231,0.5-0.375
			c0.31-0.363,0.25-1.07,0.125-1.25c-0.234-0.406-0.844-0.408-1.5-0.375c-0.11,0.266-0.197,0.556-0.375,0.75
			C513.794,321.713,514.385,321.899,515.04,322.062z M531.79,321.438c0.041-0.167,0.083-0.334,0.125-0.5l-0.125-0.125
			c-0.375,0.083-0.75,0.166-1.125,0.25c-0.006,0.386-0.044,0.641-0.125,0.875c0.258,0.234,0.505,0.5,0.625,0.875
			c0.25-0.042,0.5-0.084,0.75-0.125c0.062-0.374,0.443-0.656,0.25-1.125C532.04,321.521,531.915,321.479,531.79,321.438z
			 M499.915,323.562c0.719-0.062,0.781-0.357,1-0.875c-0.663-0.414-0.938-0.97-2-1c-0.009,0.388-0.019,0.789,0.125,1
			C499.222,323.148,499.602,323.247,499.915,323.562z M489.665,322.938c-0.192-0.376-0.58-0.592-1.125-0.625
			c-0.259,0.405-0.53,0.718-0.125,1.25c0.145,0.277,0.181,0.188,0.375,0.375c0.364,0.004,0.681,0.006,0.875-0.125
			C489.744,323.666,489.703,323.03,489.665,322.938z M530.665,326.188c0.086-0.51,0.18-0.611,0.625-0.75
			c-0.203-0.437-0.371-0.859-0.75-1.125c-0.199-0.368-0.879-0.578-1.375-0.625c-0.028,0.518-0.083,0.761-0.375,1
			c0.219,0.579,0.574,0.916,0.875,1.375C529.998,326.104,530.331,326.146,530.665,326.188z M527.165,324.062v0.375
			c-0.369,0.17-0.634,0.259-1.25,0.25c0.205,0.319,0.385,0.432,0.5,0.875c0.278,0.079,0.33,0.092,0.5,0.25
			c0.738-0.038,0.908-0.352,1.25-0.75c0.041-0.042,0.083-0.084,0.125-0.125C527.572,324.623,527.617,324.333,527.165,324.062z
			 M522.415,325.562v0.125c-0.437-0.013-1.001-0.042-1.25,0.125c-0.203,0.242-0.314,0.587-0.125,0.875
			c0.055,0.882,0.499,0.968,1,1.375c0.516-0.236,0.996-0.999,1.125-1.625c-0.102-0.129-0.047-0.031-0.125-0.25h-0.375
			c-0.028-0.29-0.025-0.353-0.125-0.5L522.415,325.562z M530.79,326.438h-1.125c-0.24,1.082-0.079,0.732,0.125,1.625
			c0.466,0.055,1.38,0.136,1.75,0.375h0.25c-0.134-0.422-0.269-0.559-0.625-0.75v-0.25c0.216,0.08,0.122,0.024,0.25,0.125h0.375
			C531.527,326.979,531.172,327.275,530.79,326.438z M507.165,329.938c0.639-0.073,0.512-0.221,0.875-0.5
			c-0.081-0.216-0.024-0.122-0.125-0.25c-0.14-0.533-0.48-0.608-0.75-1h-0.625c-0.11,0.295-0.048,0.206-0.25,0.375
			c0.031,0.436,0.043,0.526,0.25,0.75C506.708,329.652,506.945,329.664,507.165,329.938z M450.665,329.938
			c-0.071-0.342-0.128-0.647-0.125-1.125h-0.25c0.027,0.91,0.112,1.966-0.375,2.375c0.312,0.268,0.675,0.36,0.875,0.75
			c0.375-0.208,0.75-0.417,1.125-0.625c0.08-0.216,0.024-0.122,0.125-0.25C451.892,330.476,451.193,330.141,450.665,329.938z
			 M521.415,328.938h-0.375c-0.078,0.317-0.188,1.083-0.375,1.375c0.08,0.216,0.024,0.122,0.125,0.25
			c0.096,0.086,0.278,0.165,0.375,0.25c0.6-0.052,0.844-0.279,1-0.75c0.091-0.174,0.04-0.158-0.125-0.375
			C521.828,329.309,521.588,329.398,521.415,328.938z M524.79,330.188c-0.125,0.041-0.25,0.083-0.375,0.125
			c0.017,0.856,0.241,0.936,0.5,1.5c0.593-0.07,0.469-0.195,0.875-0.375c-0.068-0.534-0.182-0.516-0.375-0.875
			c0.233-0.083,0.488-0.125,0.875-0.125v-0.375C525.723,329.977,525.18,329.824,524.79,330.188z M473.29,331.188v-0.375
			c-0.427,0.073-0.396,0.242-0.625-0.125c-0.289,0.04-0.311,0.058-0.5,0.125v1.125c0.694,0.022,0.974,0.205,1.25,0.625h0.25
			C473.592,332.046,473.229,331.301,473.29,331.188z M524.79,332.188c-0.525,0.513-1.347,0.462-2.25,0.125
			c-0.084,0.25-0.167,0.5-0.25,0.75l0.375,0.375c0.124,0.491-0.254,0.912,0.125,1.375c0.216,0.265,0.338,0.081,0.5,0.5
			c0.585-0.023,0.763,0.03,1.125-0.25h0.25c-0.12-0.613-0.323-1.165-0.625-1.875c0.291-0.25,0.583-0.5,0.875-0.75
			C524.834,332.222,524.891,332.315,524.79,332.188z M518.415,333.188c-0.152,0.311-0.22,0.216-0.125,0.5
			c0.106,0.139,0.253-0.073,0.625-0.125C518.762,333.28,518.699,333.312,518.415,333.188z M512.915,336.188
			c0.289,0.028,0.353,0.024,0.5,0.125c0.733-0.11,0.73-0.562,1.25-0.875c-0.022-0.448-0.068-0.745-0.125-0.875
			c-0.356-0.68-1.293-0.676-2.375-0.625c-0.014,0.437-0.042,1.001,0.125,1.25C512.379,335.804,512.587,335.625,512.915,336.188z
			 M502.915,334.688h-0.25v-0.5c-0.494,0.049-1.204,0.11-1.5,0.375c-0.411,0.164-0.364,0.35-0.625,0.625
			c0.164,0.285,0.269,0.194,0.5,0.375c0.095,0.134,0.078,0.115,0.125,0.375c0.476,0.025,0.775,0.133,0.875,0.125h0.375
			c-0.081,0.216-0.024,0.122-0.125,0.25v0.375c0.041-0.042,0.083-0.084,0.125-0.125c0.351-0.271,0.741-0.911,0.875-1.375
			c0,0-0.019-0.718,0-1.125C503.006,334.267,502.989,334.241,502.915,334.688z M521.665,335.188c-0.107-0.552-0.32-0.57-0.5-1
			h-0.625c-0.017,0.357-0.089,0.182,0,0.375c-0.214,0.463-0.987,0.859-1.5,1v0.25c0.421-0.059,0.738-0.16,1-0.375
			c0.423,0.144,0.661,0.407,0.875,0.75c0.692-0.18,0.933-0.247,1.75-0.25c0.041-0.042,0.083-0.084,0.125-0.125
			c-0.041-0.288-0.059-0.311-0.125-0.5C522.331,335.271,521.998,335.229,521.665,335.188z M480.915,335.438
			c-0.216,0.08-0.123,0.024-0.25,0.125c-0.317,0.013-0.464,0.016-0.625,0.125c-0.087,0.096-0.165,0.278-0.25,0.375
			c0.092,0.721,0.371,0.604,0.5,1.25c0.718,0.014,1.217-0.031,1.625-0.25c-0.056-0.26-0.119-0.57-0.25-0.75
			C481.49,335.824,481.192,335.79,480.915,335.438z M507.915,337.062c-0.042-0.445-0.008-0.417-0.25-0.625
			c-0.062,0.291-0.018,0.185,0,0.625H507.915z M516.665,337.062c0.114,0.27,0.108,0.182,0.25,0.375h-0.125
			c-0.3,0.134,0.008-0.224-0.375-0.125c-0.202,0.052-0.338,0.289-0.625,0.375c-0.235-0.271-0.441-0.537-0.625-0.875h-0.5v0.5
			c-0.402,0.108-0.193-0.068-0.375,0.25c-0.17,0.356,0.163,0.787,0.375,1.125c0.733,0.047,1.126,0.139,1.25-0.5h0.25
			c-0.004,0.506,0.218,0.299-0.125,0.5c0.1,0.326,0.155,0.296,0.25,0.625c0.333-0.042,0.666-0.084,1-0.125
			c0.372-0.373,0.704-0.386,0.875-1c0.159-0.403-0.367-0.881-0.625-1.25C517.248,336.979,516.956,337.021,516.665,337.062z
			 M508.04,337.188h-0.375v0.375h0.375V337.188z M507.415,340.688c0.82-0.084,0.614-0.423,1-0.875
			c-0.041-0.507-0.088-0.98-0.25-1.25c-0.15-0.388-0.205-0.396-0.625-0.5c0.014,0.256,0.072,0.357,0.375,0.625
			c-0.188,0.312-0.263,0.253-0.75,0.25c-0.158,0.44-0.155,0.651-0.625,1c0.157,0.393,0.404,0.565,0.625,0.875
			C507.381,340.731,507.287,340.788,507.415,340.688z M515.665,339.438h-0.125c-0.097-0.086-0.279-0.165-0.375-0.25
			c-0.29,0.028-0.353,0.024-0.5,0.125c-0.222,0.271-0.26,0.604-0.25,1.125l-0.125-0.125c-0.435,0.228-0.582,0.758-0.75,1.25
			c0.156,0.168,0.177,0.219,0.25,0.5c0.472,0.035,0.669,0.117,1,0.25c0.142-0.148,0.317-0.269,0.5-0.375v-0.375
			c-0.257-0.05-0.241-0.031-0.375-0.125h-0.125v-0.25c0.649,0.101,0.703,0.192,1.375,0.125c0.041-0.5,0.083-1,0.125-1.5h-0.625
			V339.438z M491.04,341.062c-0.007-0.838-0.241-1.418-0.75-1.75c-0.442,0.479-0.583,0.426-1.375,0.375
			c0.283,0.46,0.577,0.652,0.625,1.375c0.357,0.146,0.65,0.219,0.875,0.5C490.728,341.417,490.774,341.244,491.04,341.062z
			 M509.04,340.688c0.123,0.772,0.544,1.184,0.875,1.75l0.125,0.125c0.1-0.148,0.152-0.601,0.25-0.75
			c0.134-0.095,0.115-0.079,0.375-0.125c0.038-0.434,0.294-0.575,0.25-0.875c-0.053-0.354-0.44-0.514-0.5-1.125
			C509.618,339.881,509.575,340.3,509.04,340.688z M508.79,343.938c0.027-1.237-0.208-1.2-0.75-2h-0.75
			c-0.084,0.083-0.167,0.166-0.25,0.25c0.171,0.31,0.386,0.705,0.125,1.125c0.093,0.29,0.13,0.279,0.25,0.5
			c0.48,0.032,0.88,0.118,1.25,0.25C508.706,344.021,508.748,343.979,508.79,343.938z M470.915,343.688
			c0.056-0.372,0.062-0.422,0.25-0.625c-0.206-0.429-0.236-0.131-0.25-0.5c-0.763,0.133-0.938,0.562-1.625,0.75
			c0.041,0.333,0.083,0.667,0.125,1c0.522,0.111,0.422,0.249,0.75,0.5c0.076-0.215,0.116-0.394,0.125-0.75h1.375
			C471.497,343.771,471.283,343.753,470.915,343.688z M513.04,342.812c-0.24,0.439-0.247,1.332-0.5,1.75v0.25
			c1.047-0.319,0.548-0.317,1.625,0c0.386-0.926,0.082-1.228-0.375-1.875C513.54,342.896,513.29,342.854,513.04,342.812z
			 M500.54,343.438c-0.438,0.155-0.661,0.514-0.875,0.875c-0.29-0.028-0.353-0.024-0.5-0.125h-0.375
			c0.253,0.307,0.963,0.636,1.375,0.75v0.375c0.426-0.026,0.638-0.061,0.875-0.25c0.083-0.042,0.166-0.084,0.25-0.125
			C501.332,343.567,501.204,344.008,500.54,343.438z M482.165,346.688v0.125h0.25c0.175-0.372,0.354-0.84,0.625-1.125
			c0.845-0.341,1.075,0.304,1.375-1.125c-0.455-0.287-0.938-0.533-1.5-0.75C482.38,344.71,482.809,345.948,482.165,346.688z
			 M509.54,344.938c-0.36,0.262-1.008,0.249-1.375,0.5c-0.29,0.093-0.279,0.13-0.5,0.25c0.094,0.915,0.566,0.473,0.875,1
			c0.175,0.3-0.183,0.142,0,0.375l0.125,0.125c0.215-0.403,0.551-0.71,0.875-1c-0.06-0.395-0.126-0.472-0.25-0.75
			c0.221-0.122,0.206-0.162,0.5-0.25C509.625,344.884,509.849,345.1,509.54,344.938z M496.79,346.938
			c-0.135-0.095-0.116-0.079-0.375-0.125c-0.27,0.363-0.908,0.592-1.25,0.875c0.059,0.394,0.125,0.472,0.25,0.75
			c0.319,0.094,0.356-0.044,0.625,0.25c0.457-0.084,0.534-0.207,0.875-0.375C496.953,347.679,497.097,347.367,496.79,346.938z
			 M492.04,348.062c-0.29-0.028-0.353-0.024-0.5-0.125c-0.563,0.058-0.535,0.161-0.875,0.375c0.265,0.803,0.877,1.548,1,2.375h1.375
			c-0.138-0.556-0.017-0.804-0.25-1.125C492.739,348.715,492.38,348.581,492.04,348.062z M497.665,348.312h-0.25v0.5
			c-0.29,0.028-0.353,0.024-0.5,0.125h-0.5c0.285,1.017,0.995,1.61,1.5,2.375h0.25c0.041-0.042,0.083-0.084,0.125-0.125
			c-0.063-0.417-0.238-0.898,0-1.25C498.286,348.708,497.94,349.182,497.665,348.312z M493.79,350.938
			c-0.135-0.095-0.116-0.079-0.375-0.125C493.549,350.907,493.53,350.891,493.79,350.938z M467.915,350.938
			c-0.239,0.378-0.438,0.559-0.875,0.75c0.057,0.788,0.375,1.072,0.625,1.75c0.601-0.039,1.165-0.188,1.5-0.5
			c0.146-0.291-0.174-0.305,0.125-0.75C469.289,351.514,468.669,350.982,467.915,350.938z M492.415,351.562
			c0.112,0.19-0.188,0.134,0.125,0.375C492.665,351.735,492.449,351.607,492.415,351.562z M478.04,352.938
			c-0.275-0.003-0.371,0.354-0.75,0h-0.25c-0.016,0.629-0.028,0.604,0,1.125c0.588-0.013,1.065-0.089,1.375-0.375h0.25
			C478.615,353.085,478.547,353.06,478.04,352.938z M485.415,353.688c-0.042,0.166-0.084,0.333-0.125,0.5
			c0.145,0.146,0.23,0.354,0.375,0.5v0.125h0.25c-0.084-0.375-0.167-0.75-0.25-1.125H485.415z M489.54,354.188l0.125,0.125v-0.125
			c0.083-0.042,0.166-0.084,0.25-0.125v-0.25c-0.209-0.042-0.417-0.084-0.625-0.125C489.359,353.845,489.44,354.064,489.54,354.188z
			 M480.29,354.188h0.25v-0.25h-0.25V354.188z M437.415,354.438v0.25h0.125C437.459,354.472,437.516,354.565,437.415,354.438z
			 M491.165,356.938v0.5h0.375c0.069-0.157,0.15-0.378,0.25-0.5v-0.125c-0.257,0.05-0.241,0.031-0.375,0.125H491.165z
			 M492.915,359.938c-0.135-0.095-0.116-0.079-0.375-0.125C492.674,359.907,492.655,359.891,492.915,359.938z"/>
	</g>
</g>
<ellipse fill-rule="evenodd" clip-rule="evenodd" fill="#DADADA" cx="436.916" cy="386.174" rx="107.751" ry="19.942"/>
</svg>
