<?xml version="1.0" encoding="utf-8"?>
<!-- Generator: Adobe Illustrator 21.0.0, SVG Export Plug-In . SVG Version: 6.00 Build 0)  -->
<svg version="1.1" id="Calque_1" xmlns="http://www.w3.org/2000/svg" xmlns:xlink="http://www.w3.org/1999/xlink" x="0px" y="0px"
	 viewBox="0 0 841.9 595.3" style="enable-background:new 0 0 841.9 595.3;" xml:space="preserve">
<style type="text/css">
	.st0{fill:#DADADA;}
	.st1{fill:#FFFFFF;}
	.st2{fill:#1D1D1B;}
</style>
<ellipse class="st0" cx="415.9" cy="425.6" rx="86.5" ry="14"/>
<path class="st1" d="M387.9,404.8c0,0-1.2,2.4-5.3,3.4s-6.6,0.3-5.9,3.7c-4.2,1.7-10.2,6.1-6.6,9.7c2.2-2.9,2.6-5.3,5.3-4.8
	s4.3-1.4,4.3-1.4s1.4,4.7,6.2,3.2c4.8-1.5,12.3-9.5,12.3-9.5"/>
<g>
	<g>
		<path class="st2" d="M514.7,248.6c-0.3-2.2-1.5-4.8-3.5-5.5c-2.6-0.9-4.2,1.5-5.1,2.9c-1.7,2.7-3.4,5.8-4.8,8.5
			c-0.2,0.6-0.4,1.2-0.6,1.8c-1.2,1.7-2.3,3.5-3.5,5.2c-0.6,0.9-1.8,1.6-2.2,2.7c-0.2-0.1-0.2,0.1-0.3-0.4c-0.1,0.1-0.3,0.3-0.4,0.4
			h-0.1c0.4-1.8,1.8-3.8,2.5-5.4c0.1-0.6,0.2-1.2,0.3-1.8c0.5-0.7,0.9-1.4,1.4-2.1c-0.2-0.3,1.9-5.6,2.2-6.3c1.5-4.7,2.9-9.3,4.4-14
			c0.7-4.4,1.5-8.7,2.2-13.1c0.9-4.2,1-13.1-3.1-13.7c-2.2,1.6-3.9,5.3-5.1,7.8c-0.2-0.1-0.5-0.1-0.7-0.2c1.5-9.9,5.2-20.3,3.6-30
			c-0.7-4.3-4.2-9.7-8.9-7.4c0,0.2,0,0.3,0,0.5c0.2,0,0.3,0,0.5,0c0.1,0.3,0,0.4,0.2,0.6c0,0.2,0,0.5,0,0.7
			c-0.5-0.1-0.7-0.1-1.1-0.3c0.1-0.5,0.1-0.9,0.2-1.4c-1,0.3-1.3,0.9-2,1.4c-0.1,0.4-0.1,0.6,0.1,1c0,0.1,0,0.1,0,0.2
			c0.6-0.1,0.6-0.3,1.3,0.1c0.3,0.2,0.2,0,0.3,0.4c-0.1,0.4-0.1,0.9-0.2,1.3c-1,0.1-1.7,0-1.9-0.7c-0.7,0.3-0.8,1.2-0.9,2.1
			c1.5-0.1,1.9-0.7,3.4-0.6c0.3-0.6,0.4-1.5,1-1.8c0.2-0.2,0.7-0.2,1.2-0.2c0-0.7,0.2-0.7,0.4-1.2c0.3-0.1,0.5-0.2,0.8-0.3
			c0.5,0.6,0.8,1.3,1.7,1.5c-0.1,0.6-0.2,0.7-0.8,0.5c-1.2,0.5-1.4,1.8-2.1,3c0.5,0.5,1.1,1,1.8,0.9c-0.1-0.2-0.4-0.8-0.8-1.1
			c0-0.2,0.1-0.4,0.1-0.6c0.3-1,1.7-1,2.8-0.8c0.3,1.1-0.2,1.3-0.5,2.2c0.5,0.8,1.5,1.8,0.7,3c-0.2,0.4-0.6,0.3-1.2,0.3
			c0,0.1-0.1,0.1-0.1,0.2c0.3,0.6,0.6,1,1.3,1.2c0,0.3-0.1,0.7-0.1,1c0,0.1,0,0.1,0,0.2c-0.5-0.1-0.9-0.1-1.4-0.2
			c0.1,0.3,0.2,0.6,0.3,0.9c0.1-0.1,0.3-0.2,0.4-0.3c0.3,0.2,0.3,0.3,0.7,0.4c0.1,1.1,0.1,1.5-0.1,2.7c-0.3,0.1-0.7,0.1-1.3,0
			c0,0.2,0,0.5,0,0.7c0.5,0.3,0.9,0.6,1.4,0.9c-0.1,3.9-1.5,7.6-2.2,11.1c-0.4,1.8-0.2,4.9-2.3,5c-0.1,0.1-0.1,0.2-0.2,0.3
			c0.1,0.7,0.3,1.1,0.7,1.4c-1,2.7-0.9,5.2-2.1,8c-0.4,1-1.2,2.6-1.5,3.7c-0.4,1.3-0.3,2.6-1,3.8c-0.6,1-1.6,2-2.1,3.1
			c-0.8,1.6-2.7,4.3-1.8,5.9c2.1-0.2,8.4-8.1,8.7-10.1c0.5,0,0.9-0.1,1.4-0.1c0.1-0.4,0.1-0.8,0.2-1.2c-0.3-0.2-0.5-0.5-0.8-0.7
			c0.1-1.6,1.8-6,2.8-6.6c0.8,0.1,0.6,0.8,1.5,0.6c1.3-0.3,0.9-1.2,2.7-0.6c0.3-0.2,0.3-0.1,0.4-0.5c0-0.2,0-0.5,0-0.7
			c-0.4-0.2-0.8-0.3-1.2-0.5c0-1.1,1.2-1.6,1.8-2c0.2,0,0.4,0.1,0.6,0.1c0.2,1.7-0.3,3.8-0.7,5.6c-0.5,0-1.1,0-1.6,0
			c-0.3,0.2-0.2,0-0.3,0.4c-0.4,0.1-0.4-0.1-0.7,0.1c-0.1-0.2-0.2-0.3-0.3-0.5c0.1-0.5-0.4-0.7-0.9-0.6c-0.2,0.9-0.3,1.5-0.2,2.3
			c0.1,0.1,0.1,0.1,0.2,0.2c0.8-0.1,0.7-0.5,1.2-0.7c0.8,0.1,1.6,0.1,2.4,0.2c-0.2,4.7-1.8,9.4-2.9,13.9c-1.1,0.4-1.8-1.3-3.4,0.3
			c0,0.2-0.1,0.3-0.1,0.5c0.1,0.1,0.3,0.2,0.4,0.3c0.7,0.6,1.6,0,2.1-0.6c0,0.1,0.1,0.3,0.1,0.4c0.2-0.1,0.5-0.3,0.7-0.4
			c-0.4,0.8-0.5,1.2-0.8,2.2c-0.4,0.1-1.3-0.1-1.5,0.4c-0.4,0.9,0.8,1.1,0.6,1.9c-0.2,1.1-2.5,6.1-3.3,6.7c0,0.1,0,0.1,0,0.2
			c-0.4-0.5-0.7-0.7-1.2-1.1c-0.2,0-0.4,0-0.6,0c-0.1,0.2-0.3,0.3-0.4,0.5c0.1,0.2,0.1,0.5,0.2,0.7c0.6,0.4,1,0.1,1.8,0.1l0.1,0.1
			c-0.3,2.7-2,5.3-3.1,7.6c-1.3,2.7-2.2,5.4-3.5,8c-1.1,2.2-2.9,4.6-3.5,6.8c-0.4,0.1-0.9,0.3-1.3,0.4c0,0.4,0.1,0.8,0.1,1.2
			c5.9-0.1,14.5-11.2,16.3-15.3c0.4-1,3.8-7.4,4.4-7.6c0.7-0.2,2.3,0.6,3.1,0.7c0.1,0.2,0.3,0.3,0.4,0.5c0,0.3,0,0.6,0,0.9
			c-0.4,0-0.9-0.1-1.3-0.1c-0.3,0.4-0.3,0.9-0.1,1.6c-0.4,0-0.8,0-1.2,0c-0.1,0-0.1,0-0.2,0c0.2,0.9,0.4,1.7,0.6,2.6
			c0.1,0,0.3,0,0.4,0c0.2-0.1,0.3-0.2,0.5-0.3c0.2-0.9,0.3-1.4,0-2.2v-0.1c0.4,0,0.8,0,1.2,0c0,0.1,0.1,0.1,0.1,0.2
			c0,0.5-0.3,0.7,0,1.3c0.2,0.2,0.3,0.4,0.5,0.6c0.1,0,0.3,0.1,0.4,0.1s0.1-0.1,0.2-0.1c0-1,0.1-2,0.1-3c0.3-0.1,0.2-0.1,0.4-0.3
			c0.4-0.2,1-0.1,1.1-0.2c0.1,0,0.1,0.1,0.2,0.1c-0.4,1.8-0.9,3.6-1.3,5.4c-0.5,0-1.8,0-2.2-0.1c-0.8-0.2-1.2-0.8-2.4-0.8
			c-0.1,0.1-0.2,0.3-0.3,0.4c-0.1,0.5,0,0.8,0.2,1.2c1.2,0.1,3.5,0.9,4.2,0.9c-0.4,1.5-0.8,2.9-1.2,4.4c-0.7,0.4-1,0.3-1.5,0.9
			c0.1,0.8,0.8,1.1,0.5,2c-0.3,0.8-0.9,1.5-1.1,2.5c-1.4,0.2-1.7-0.6-2.9-0.8c-0.3-0.5-0.3-0.6-0.2-1.3c-0.2,0-0.4-0.1-0.6-0.1
			c-0.2,0.4-0.3,0.8-0.5,1.2c0.8,1.3,2.5,1.5,3.3,2.7c-2.9,5-5.7,9.9-8.6,14.6c-0.8,0.9-1.5,1.7-2.3,2.6c-1,1.5-1.9,3-2.9,4.5
			c-2.9,4.5-7.2,8.1-10.6,12.2c-1.3,1.6-3.4,3.1-5,4.4c-0.8,0.9-1.7,1.8-2.5,2.7c-3,1.9-5.8,3.5-7.8,6.4c0.1,0.6,0.3,0.8,0.5,1.3
			c1,0.3,2.2,0.5,3.1,0.7c3.5-1.8,8.1-3.8,10.9-6.4c2.4-2.2,4.8-4.2,7.3-6.3c0.5-0.4,0.6-1,1.3-1.3c0.6-0.1,1.8,0.4,2.7,0.6
			c0,0.1,0.1,0.1,0.1,0.2c-0.4,0-0.7,0-1.1,0c0,0.3,0,0.6,0,0.9c-0.4-0.1-0.8-0.1-1.2-0.2c-0.3,0.4-0.6,0.6-0.9,1.1
			c0,0.2,0,0.3,0,0.5c0.2,0,0.3,0.1,0.5,0.1c0.6-0.3,0.8-0.4,1-1.1c0.3,0,0.5,0,0.8,0c0.4,0.5,0.9,0.7,1.2,1.4
			c0.7,0.3,1.5,0,2.2,0.2c0.1,0,0.1,0.1,0.2,0.1c-0.1,1-2.1,4.7-2.7,5c-0.4,0.2-1.9-0.1-2.5-0.1c-0.1,0.3-0.3,0.5-0.4,0.8
			c0.1,0.7,0.5,1.3,1,1.6c-0.1,0.2-0.2,0.5-0.3,0.7c-0.6-0.1-1.4-0.7-2-0.5c-0.4,0.2-0.4,0.4-0.6,0.8c0.1,0.8,0.7,1,1.5,1
			c-0.7,1.9-2.9,2.7-3.6,4.5c-0.3,0.2-0.5,0.5-0.8,0.7c-0.2-0.5-0.1-0.3-0.5-0.3c0-0.3,0.1-0.5,0.1-0.8c-0.4-0.6-2.8-0.9-3.6-1h-0.1
			c-0.3,0.5-0.3,0.8-0.4,1.4c0.5,0,0.9,0.1,1.4,0.1c-0.1,0.5-0.1,0.7,0.2,1c-0.3,0.1-0.7,0.2-1,0.3c-0.1,0.2-0.3,0.4-0.4,0.6
			c0,0.3,0.1,0.7,0.1,1c1.1,0.1,1.4-0.5,1.5-1.6c0.9-0.1,1.3-0.4,2-0.3c0.1,0,0.2,0.1,0.3,0.1c-0.8,1.7-2.4,2.7-3.5,4.1
			c-2.1,2.5-4,5.9-6.6,7.5c0.1-0.2-0.8-0.3-1.3-0.2c-0.5,0.3-0.5,0.6-0.5,1.3c0.6,0.2,1.2,0.2,1.9,0.2c0,0.1,0.1,0.3,0.1,0.4
			c-0.4,0.5-0.8,1.2-1.4,1.5c-0.6,0.2-1-0.3-1.6-0.5c-0.3,0.1-0.7,0.3-1,0.4c-0.2,0.5-0.1,0.7,0.1,1.2c0.4,0,0.8,0.1,1.2,0.1
			c-0.2,0.4-0.5,0.8-0.9,1c-0.9,0.6-1.1-0.8-2.5,0.4c0.2,0.6,0.8,0.7,1,1.3c-2.3,1.9-4.5,3.8-6.8,5.7c-0.2-0.1-0.2-0.2-0.6-0.2
			c-0.4-0.6-0.1-0.8-0.3-1.5c-0.1-0.1-0.1-0.2-0.2-0.3c-0.4,0.4-0.8,0.7-1.2,1.1c0,0.3,0,0.6,0,0.9c0.4,0.2,0.7,0.4,1.3,0.5
			c-0.4,0.5-2.5,1.4-2.6,1.5c-1.1,1.5-3.6,3.7-5.6,4.6c-1.3,0.5-2.7,1-4,1.5c-1.2,0.9-2.5,1.7-3.7,2.6c-1.8,0.7-3.7,1.4-5.5,2.1
			c-1.3,0.6-2.7,1.6-4.1,2.2c-1.5,0.3-2.9,0.6-4.4,0.9c-1.7,0.7-3.3,1.3-5,2c-1.6,0.1-3.1,0.3-4.7,0.4c-7,1.5-16.4,1.2-22.9-0.3
			c-1.7-0.2-3.3-0.3-5-0.5c-5.7-1.5-11.3-3-16.4-5.3c-2.7-1.5-5.4-3.1-8.1-4.6c0-0.1-0.1-0.1-0.1-0.2c0.9-0.4,1.7-0.4,2.1-1.2
			c0.8-1.4,0.9-7.5,0.2-8.9v-0.1c1.4,0,2.6,1.2,3.7,1.8c3.6,2,11.4,7.1,15.5,1.9c0.5-0.7,1.3-1.4,1.5-2.4c0.7-3.2-1.1-6.4-2.1-8.8
			c-2.3-5.6-7.6-9.5-11.8-13.4c-1.2-1.3-2.3-2.7-3.5-4c-2.3-2.2-5.3-3.3-5.6,1.1c0.6,0.6,1.3,1.1,1.9,1.7c0.2,0.2,0.3,0.3,0.5,0.5
			c-0.9,0-1.5,0.1-2.1,0.3c0,0.3-0.1,0.7-0.1,1c0.2,0.1,0.3,0.2,0.5,0.3c0.9,0.3,1.7-0.6,1.9-1.4c1.7,1,2.6,3.6,4.3,3.8
			c-0.1,0.4-0.2,0.7-0.3,1.1c0.1,0.2,0.3,0.3,0.4,0.5c0.7,0.1,1.4,0.1,2.1,0.2c0.1,0.5,0.1,0.9,0.2,1.4c1.7,0.9,2.5,0.1,3,2.4
			c0.5,0.2,1.1,0.4,1.6,0.6c0,0.1,0,0.2,0,0.3c-0.6,0.2-0.9,0.1-1.1,0.7c-0.1,0-0.3-0.1-0.4-0.1c-0.8,0.1-0.8-0.8-1-1.5
			c-0.7-0.1-1.1-0.1-1.4,0.4c0.4,1.2,1.2,2,0.5,3.2c0.1,0.6,1.2,1.9,1.7,2.3c0.7,0,1.4,0.1,2.1,0.1c0.1,0.2,0.2,0.4,0.3,0.6
			c-0.2,0.3-0.5,0.7-0.7,1c0.1,0.9,0.7,1.1,1.5,1.3c0,0.3,0,0.7,0,1c-0.7-0.4-1.2-0.9-2.6-0.7c0.1,1.3,0.6,1.4,1.3,2v0.1
			c-0.4,0.2-0.7,0.2-0.9,0.6c-0.2,0.4,0.2,1,0.5,1.6c-0.6-0.1-1.1-0.2-1.7-0.3c-0.3-0.3-0.3-1-0.4-1.5c-0.7-0.2-1-0.2-1.5,0.2
			c0,0.3,0,0.7,0,1c-3.1-0.7-5.4-3-7.9-4.5c-0.5-0.2-0.9-0.4-1.4-0.6c-0.7-1.4-1.4-2.7-2.1-4.1c-2.2-3.1-4.4-6.1-6.9-8.9
			c-1.9-2-5-5.3-8.6-5.4c-0.4,0.3-0.7,0.4-0.9,0.9c-0.3,0.6,1,1.9,1.5,2.4c1.3,0.9,2.6,1.7,3.9,2.6c1.2,1.1,2,2.7,3.2,3.8
			c-0.3,0.3-0.7,0.3-1.4,0.3c-0.3,0.4-0.4,0.6-0.4,1.3c0,0.1,0.1,0.1,0.1,0.2c1.2,0.4,2.3,0.1,3.3,0.1c0.1,0.2,0.2,0.5,0.3,0.7
			c-0.4,0.4-0.8,0.4-0.9,1.2c-1,0.5-2.1,0.5-3.2,0.8c-0.4,0.4-0.4,0.9-0.4,1.5c0.2,0.2,0.5,0.4,0.7,0.6c-0.1,0.3-0.3,0.7-0.4,1
			c0.3,0.2,0.6,0.4,0.9,0.6c0.3,0,0.5-0.1,0.8-0.1c1.5-0.7,1.1-2.6,2.1-3.5c0.3-0.3,0.5-0.1,0.9,0c0.3,0.4,0.5,0.7,0.8,1.1
			c0,0.1,0,0.2,0,0.3c-0.2,0.1-0.5,0.2-0.7,0.3c0,0.1-0.1,0.2-0.1,0.3c0.3,0.3,0.6,0.7,0.9,1c0.6-0.1,1.2-0.3,1.8-0.4
			c0,0.1,0.1,0.3,0.1,0.4c-0.5,0.5-1,0.7-0.9,1.6c-0.1,1,1.3,1.1,2.2,1.2c0.2,0.4,0.3,0.7,0.5,1.1c-0.1,0.1-0.1,0.1-0.2,0.2
			c-0.3,0-0.6,0-0.9,0c-0.1-0.3-0.1-0.6-0.3-0.8c-0.3-0.1-0.5-0.2-0.8-0.3c-1.1,0.6-2.1,1.3-2.5,2.5c0.4,0.5,1.3,1.1,2.2,0.7
			c0.4-0.2,0.6-0.7,0.8-1.1c1,0.1,1.5,0.7,2.3,1.1c-0.2,0.8-0.8,1.5-0.7,2.4c-0.7,0.1-1.5,0.2-2.2,0.3c-0.1,0.1-0.2,0.1-0.3,0.2
			c0.1,1.6,1.3,1.2,2.5,1.3c0.1,0.3,0.1,0.2,0.3,0.4c0,0.1,0,0.3,0,0.4c-1.8,0.1-2.5,0.7-3.7,1.3c0.3,0.2,0.6,0.5,0.9,0.7
			c-2.8-0.4-9.4-4.5-10.8-6.4c-0.7-1.1-1.3-2.1-2-3.2c-4.3-6.2-7-14-10.4-20.8c-0.8-1.1-1.5-2.1-2.3-3.2c-1.1-1.9-1.6-4.2-2.6-5.8
			c-2.8-4.5-5.7-10.6-5.7-16.6c1.9-0.5,3.4-1.1,4.6-2.3c2.9-2.8,5.7-13.6,6.1-18.2c0.3,0,0.6,0,0.9,0c0,1.6,0.9,3.1,1.3,4.3
			c0.8,2.4,1.6,5.8,2.4,8c0.7,1.9,1,4.9,3.8,4.3c6.6-1.3,5.6-8.1,6.3-14c0.2-1.6,0.3-3.5-0.2-5.4v-0.1c0.3,0,0.5,0.1,0.8,0.1
			c0.3,0.5,0.7,0.9,1,1.4c2,1.7,4.1,3.2,5.9,5c1.1,1.1,1.9,2.6,3.5,3.3c2.6,1.1,4.4-1.4,5.1-2.9c1.5-3,0.8-8.5-0.6-11.8
			c-0.2-0.7-0.4-1.5-0.6-2.2c0-0.2,0.1-0.3,0.1-0.5c0.1,0.1,0.3,0.1,0.4,0.2c0-0.1-0.1-0.3-0.1-0.4c1.3,1,2.6,1.9,3.9,2.9
			c4.1,2.8,7.6,3.4,13.2,4.7c1,0.2,2.9,1.6,4.4,1c1.4-0.5,2.3-2.3,3.4-3.2c1.1-1,1.7-1.4,1.6-3.4c0.8,0,1.5,0.1,2.3,0.1
			c2.3-0.4,5-1.2,7-2.2c0.7-0.6,1.3-1.1,2-1.7c1.2-0.2,2.4-0.5,3.6-0.7c3.5-1.1,6.7-3.1,9.7-4.7c1.2-0.5,2.4-0.9,3.6-1.4
			c6.4-4.2,12.5-8.8,18.3-13.5c3-2.4,5.4-5.8,7.7-8.8c1.2-1.3,2.3-2.7,3.5-4c4.6-6.5,8.7-13.6,12.8-20.5c0.6-1.6,1.3-3.1,1.9-4.7
			c1-1.5,1.9-3,2.9-4.5c1.4-0.2,1.3-0.6,2.1-1.2c-0.3-0.7-1-0.4-1.3-0.9c-0.6-1.1,1.6-4.2,2.8-4.2c0.1-0.2,0.2-0.4,0.3-0.6
			c-0.1-0.6-0.1-0.6-0.6-0.8c0.2-3.5,3.2-4.6,4.7-7c1.4,0.1,1.7,0.8,2.9,0.6c0.3,0.3,0.5,0.4,0.3,0.9c-0.4,0.8-3.1,0.6-3.5,0.5
			c-0.2,0.1-0.8,0.3-0.4,0.7c0,0.1,0.1,0.2,0.1,0.3c1.6-0.2,2.6-0.2,4.4-0.1c0.1,0.1,0.1,0.2,0.2,0.3c0.3,0.6,0.1,1.1-0.1,1.6
			c-0.7,0.1-1.5,0.3-2.2,0.4c0,0.1-0.1,0.3-0.1,0.4c0.1,0.1,0.1,0.2,0.2,0.3c0.4,0.5,1,0.4,1.6,0.1c0.3,0.1,0.3,0.2,0.6,0.4
			c0.2,1.1-0.1,1.9-0.3,2.5c-0.5,0.2-0.9,0.1-1.6,0c-0.1,0.2-0.2,0.4-0.3,0.6c0,0.1,0,0.2,0,0.3c0.6,0.1,1.1,0.1,1.7,0.2
			c-0.1,5.6-3.5,10.8-5.3,15c-0.4,0.9-0.5,2.3-1.1,3.3c-0.7,1.1-3.9,6.4-3.2,8c0,0.1,0,0.1,0,0.2c1.8-0.7,3.1-6.1,4-7.7
			c3-5.6,5-12.4,7.3-18.7c0.7-2,3-6,2.6-8.3c-0.5-0.2-0.8-0.1-1.6-0.1c-0.6-2.9-2.5-4.9-5.6-5.4c-4.5,3.2-6.3,9.6-8.9,14.9
			c-0.3,1.1-0.7,2.2-1,3.3c-0.9,1.8-2.3,3.6-3.3,5.5c-0.7,1.4-0.9,2.9-1.8,4.1c-2.7,3.6-5,7.9-7.2,11.6c-1.7,2.9-3.8,5.4-5.6,8.3
			c-0.5,0.9-1.7,1.5-2.3,2.3c-4.1,5.4-8.8,10.2-14.3,14.2c-0.9,0.8-1.8,1.6-2.7,2.4c-1.3,0.7-2.7,1.5-4,2.2c-4,3.2-8.6,4.9-13.2,7.5
			c-1.8,1-5,2.6-7.3,2.3c0.1-4-3.7-3.3-6.8-4.3c-5.5-1.8-11.2-5.5-14.8-9.4c-3.1-3.3-7.1-6.6-9.4-10.7c-6.2-11-10.7-23.6-18.5-33.1
			c-0.8-1.3-1.7-2.5-2.5-3.8c-4.5-5.3-10.5-11-18.6-12.5c0.3-3.2,3.8-6.3,2.9-10.4c-0.5-2.3-1.4-3-2-4.5c-2.7-0.6-5.4-0.2-6.2,2.4
			c0,0.9,0,1.9,0,2.8c-0.6,0.9-1.2,1.8-1.8,2.7c-0.3,0-0.6-0.1-0.9-0.1c-0.7-1.1-0.4-2.7-0.8-4.1c-0.2-0.1-0.4-0.3-0.6-0.4
			c-0.2,0-0.4,0-0.6,0c-0.5,2.6-1.3,5.1-3.4,6.5c-0.4,0.3-0.3,0.2-0.9,0.1c-0.5-0.9-1.2-2.9-2.3-3.1c-1.2-0.2-2,5-2.2,5.6
			c-0.2,0.5-0.8,0.8-1,1.2c0,0.1,0,0.2,0,0.3c-0.3-0.1-0.6-0.1-0.9-0.2c-0.3-0.9-0.7-1.9-1-2.8c-0.3-0.2-0.3-0.3-0.9-0.3
			c-1,1.6-1.3,3.2-2.2,5c-1.1,2-2.7,4.2-3.5,6.3c-0.7,1.8-1.2,4.1-0.4,5.8c0,0.1,0,0.2,0,0.3c-3.2,0.1-4.9,1.7-6.8,2.7
			c-5.7,3.2-11,9-10.2,17.3c0.2,0.1,0.4,0.3,0.6,0.4c0.9-0.6,0.7-1.3,1.2-2.3c1.3-1.4,2.5-2.8,3.8-4.2c0.8-0.5,11.4-0.6,12.5-0.1
			c0.7,0.6-0.2,1.9,0.2,2.8c0.7,0.6,1.3,1.3,2,1.9c2,2.5,3.8,6.6,8.7,4.1c1-0.9,2-1.8,3-2.7c0.2,0,0.5,0.1,0.7,0.1
			c1.6,1.2,1.9,2.4,2.7,4.5c0.8,2,2,4.8,2.5,6.3c0.3,2.8,0.6,5.5,0.9,8.3c0.8,5.5-0.9,13-2.2,18.4c-1.2,4.9-0.8,11.4-2.8,15.2
			c0.2,0.2,0.2,1.6,0.1,1.9c-1,4-2,9-1.3,13.5c0.2,1.4,0.6,3.8,1.3,5.1c0.5,0.6,0.9,1.2,1.4,1.8c0.3,2.8,0.7,5.6,1,8.4
			c2.9,7.3,6.6,14.1,10.2,20.5c1.7,3,2.4,6,3.9,9.4c1.7,3.7,4.1,7.5,6.3,10.9c0.7,1.2,1.2,2.6,2.2,3.6c1.8,1.8,7.4,5.3,9.9,6.2
			c1.3,0.5,2.7,0.5,3.8,1.1c8.8,5.2,18.1,10.5,30.4,11.9c0.7,1.2,1.9,1.6,3,2.4c0.4,1.4,0,3.2-1,3.8c-1.6,0.7-4.3-2.3-5.5-2.8
			c-1.1-0.3-2.1-0.5-3.2-0.8c-2.4-0.4-5.2,0.2-6.9,0.7c-1.7,0.5-3.2-0.5-4.7,0c-3.7,1.3-5.9,4.5-8.3,6.8c-0.7-0.2-1.3-0.8-2.2-0.7
			c-1.9,0.3-4.1,4.4-4.6,6c-0.4,1.3,0,2.4-0.1,3.5c2.7,1.4,3.1-0.7,4.9-2.1c0.9-0.7,2.7,0,3.6-0.6c1.6-1.1,2.7-2.3,5.1-2.7
			c7.9-1.3,10.2,6.2,17.9,4.8c3.8-0.7,6.9-2.7,9.5-4.9c0.6-0.5,0.7-1.5,1.4-1.9c1-0.6,2.6,0,3.6,0.1c0.3,1.1-3.4,4.3-4.3,5.2
			c-1.3,1.4-2.4,4-4.2,4.7c-2.3,0.9-13.1-1.2-15.4-1.6c-2.1-0.4-3.9,1-5.7,1.1c-1.1-0.7-2.1-1.5-3.2-2.2c-2.9-0.9-6.6,4.1-5.8,6.1
			c-6.5-0.1-9.6,5-9.8,10.7c0,0.7-0.2,1.8,0.2,2.6c0.1,0.2,0.3,0.3,0.4,0.5c0.3,0,0.7,0.1,1,0.1c2-2.8,3.3-8.1,7-8.9
			c1.7-0.4,2.1,2.6,3.1,3.4c0.8,0.6,2.4,0.7,3.6,0.9c0.9,0,1.8-0.1,2.7-0.1c4.9,0.4,9-1.5,12.6-2.7c0.6,0,1.3,0,1.9,0
			c1.2-0.2,2.3-0.5,3.5-0.7c0.1,0.2,0.1,0.3,0.2,0.5c-2.3,1.2-4.1,4.1-6.9,5.2c-2.7,1.1-6.3-0.1-9.3,0.8c-0.9,0.3-4.4,1.5-5,2.3
			c-0.5,0.7-0.2,1.1-1.1,1.5c0.1,0.3,0.1,0.7,0.2,1c-5.6,2.2-8.4,4.7-5,11.3c0.4,0.1,0.8,0.2,1.2,0.3c1.6-1.3,2.5-6.6,4.7-6.8
			c1.3-0.1,2.7,0.8,4.3,0.8c3,5,9.9,0,13-1.6c1.4-0.7,2.4-2.2,3.4-3.4c2.3-2.6,5.1-5.6,7.9-7.6c2.7-2,7.8-1.5,10.5-3.6
			c1.4-1.1,5.3-6,7.3-5.5c1.7,0.9,1.9,4,3.4,5.2c0.2,0.1,0.3,0.2,0.5,0.3c1.4-0.1,1.5-1.7,2-2.7c1.7-3.8,0.1-7.2-3.3-9.1
			c-3.9-2.2-8.2,3.8-12.1,3.8c-0.7-1.7,2.7-4,3.6-5c1.4-1.4,2.7-2.7,4.1-4.1c0.6-1.2,1.3-2.5,1.9-3.7c0.8-1.2,1.7-2.6,2.7-3.7
			c1.3-0.8,2.5-1.5,3.8-2.3c2.1-1.6,4.1-3.2,5.9-5.1c0.9-0.6,1.7-1.1,2.6-1.7c0.8-0.8,1.4-2.2,2.3-2.8c1.8-0.7,3.5-1.5,5.3-2.2
			c1.3-0.6,2.6-1.8,3.8-2.5c2.1-1.3,4.6-1.9,6.6-3.2c1.2-0.8,2.1-2,3.2-2.8c4-2.8,8.2-5.5,11.6-8.9c1.8-1.8,3.6-4.6,5.8-6.4
			c3.7-3.1,7.4-6.5,10.3-10.4c4.2-5.7,9.3-10.4,11.9-17.5c1.1-2.9,1.1-8.8-2.2-9.4c-0.9-0.2-1.6,0.9-2.3,1.3
			c-1.7,0.9-3.4,1.3-4.9,2.3c-1.3,0.9-2.2,2.7-3.8,3.2c0.2-0.2,0.2-0.1,0.3-0.5c-0.3,0.2-0.5,0.3-0.8,0.5c0.7-1.7,2.9-3,4-4.4
			c1.7-2.2,3.7-4.4,5.3-6.6c5.9-8.2,11.7-16.1,15.9-25.7c1.8-4.2,2.6-9.1,4.3-13.4c0.4-1.1,0.3-4.3,1.2-4.6c0-0.1,0-0.2,0-0.3
			C513.6,252.9,514.9,250.4,514.7,248.6z M503.7,210.9c0.3,0.1,0.5,0.2,0.8,0.3c0,0.1,0,0.3,0,0.4c-0.4,0-0.9,0-1.3,0
			c0-0.1-0.1-0.2-0.1-0.3C503.3,211.2,503.5,211,503.7,210.9z M501.7,216.8c-0.8,0.3-0.7,0.6-0.6,1.6c-0.5,0.2-0.6,0.2-0.7,0.8
			c-0.4,0-0.9,0-1.3,0c0.4-0.9,0.8-1.8,1.2-2.7c0.4,0,0.7-0.1,1.1-0.1c0.5,0.1,0.4,0.2,0.7,0c0.4,0.2,0.3,0.3,0.4,0.7
			C502.2,217,502,216.9,501.7,216.8z M503.8,215.8c-0.5,0-0.7-0.1-1-0.3c0.5,0,0.8,0,1,0.2V215.8z M504.7,214
			c-1.1-0.1-1.7,0-2.7-0.1c0.2-0.6,0.3-0.5,0.7-0.8c0.7,0.1,1.3,0.3,2,0.4c0,0.1,0.1,0.1,0.1,0.2C504.8,213.8,504.7,213.9,504.7,214
			z M381.2,339.6c-0.1,0-0.3,0.1-0.4,0.1h-0.1c0.3-0.7,0.1-0.7-0.1-1.6c0.1-0.1,0.3-0.2,0.4-0.3c0.2,0,0.4,0,0.6,0
			c0.3,0.3,0.6,0.4,0.7,1C381.6,338.8,381.1,339,381.2,339.6z M387.5,345.4c0.1,0.1,0.1,0.2,0.2,0.3c-0.4,0.1-1-0.1-1.5-0.3
			c-0.1,0.3-0.1,0.5-0.3,0.9c0.5,0.6,0.9,0.9,1.8,1.1v0.1c-0.4,0.2-0.8,0.3-1.2,0.5c-0.3,0.5-0.3,0.3-0.2,0.8
			c-0.1,0.1-0.1,0.1-0.2,0.2c-0.6-0.1-0.5-0.4-0.8-0.8c0.7-1.3,0.1-1.4-0.8-2.2c-0.1,0-0.1-0.1-0.2-0.1c0.5-0.2,0.9-0.3,1.5-0.5
			c-0.2-0.5-0.5-0.9-0.7-1.4c0.2-0.3,0.3-0.3,0.7-0.5C386.7,344,386.3,345.1,387.5,345.4z M383.6,340.6c0.2-0.5,0.2-0.9,0-1.4
			c0.3-0.2,0.5-0.5,0.8-0.7c0.7,0.3,1.2,0.9,1.6,1.6c-0.2,0.2-0.4,0.4-0.6,0.6C384.8,340.7,384.2,340.6,383.6,340.6z M347.1,291.7
			c0.3,0,0.5,0,0.8,0c0.1,0.1,0.1,0.2,0.2,0.3C347.7,292.1,347.4,292,347.1,291.7z M368.6,281.4c-0.1,0.1-0.1,0.2-0.2,0.3
			c-0.4-0.1-0.9-0.1-1.3-0.2c-0.1,0-0.1,0-0.2,0c0.1-0.1,0.2-0.2,0.3-0.3c0.1-0.4,0.1-0.3,0.5-0.6c0.3,0.1,0.6,0.1,0.9,0.2
			C368.6,281,368.6,281.2,368.6,281.4z M367.6,278.8c-0.3-0.6-1-1.2-1.2-1.9c-0.7-0.2-1.5-0.3-2.2-0.5c0.1-0.3,0.3-0.6,0.4-0.9
			c0.8-0.5,1.7-0.4,2.2-0.9c0.1,0,0.1,0,0.2,0c0.3,0.3-0.1,0.2,0.4,0.4c-0.2,0.2-0.3,0.2-0.5,0.3c0.2,0.4,0.3,0.6,0.2,1.1
			c0.5,0.2,1,0.3,1.5,0.5c0.1,0.7,0.2,1.5,0.3,2.2C368.5,279,368,278.9,367.6,278.8z M367.5,274.6c0-0.1,0.1-0.2,0.1-0.3h0.1
			C367.6,274.6,367.8,274.4,367.5,274.6z M404.3,265.8c0-0.1-0.1-0.1-0.1-0.2c0.1,0,0.1,0,0.2,0
			C404.4,265.7,404.3,265.7,404.3,265.8z M403.7,263.9c0.2,0.1,0.5,0.1,0.7,0.2c0.1,0,0.1,0,0.2,0v0.1c-0.1,0.1-0.2,0.2-0.3,0.3
			c-0.4,0.5-0.3,0.3-1,0.2C403.2,264.3,403.4,264.3,403.7,263.9z M396.3,261.5c0.3,0,0.6,0.1,0.9,0.1c0.1,0.1,0.2,0.2,0.3,0.3v0.1
			c-0.4,0-0.8,0-1.2,0C396.3,261.8,396.3,261.7,396.3,261.5z M386.5,255.3c0.8,0,1.1,0.2,1.5,0.6v0.1c-0.8,0-1.2-0.1-1.9-0.3
			C386.2,255.6,386.4,255.4,386.5,255.3z M384.3,253.2c0.4,0.3,0.8,0.5,1.2,0.8v0.1c-0.5,0.2-0.8,0.1-1.3-0.2
			C384.2,253.7,384.3,253.4,384.3,253.2z M382.4,251c0.5,0.6,1,1.1,1.5,1.7c-0.7-0.1-1-0.2-1.3-0.7c-0.4-0.2-0.3-0.4-0.5-0.8
			C382.2,251.1,382.3,251.1,382.4,251z M371.2,234.5c0.1,0,0.1,0.1,0.2,0.1v0.1c-0.1,0-0.1,0.1-0.2,0.1
			C371.2,234.7,371.1,234.7,371.2,234.5C371.1,234.6,371.2,234.5,371.2,234.5z M338.5,178.2c0,0.1,0.1,0.2,0.1,0.3
			c-0.6,0.2-1.1,0.5-1.7,0.7c-0.2,0-0.3-0.1-0.5-0.1c0.2-0.5,0.4-0.5,0.5-1.1C337.4,178.1,338,178.1,338.5,178.2z M336,175.7
			c1,0,1.7,0.5,1.3,1.4c-0.3,0.5-1.8,0.8-2,0.8c-0.2-0.1-0.3-0.2-0.5-0.3C335,176.7,335.4,176.2,336,175.7z M334.7,180.6
			c1.3-0.5,2.9,0,3.8,0.9c0.3-0.1,0.6-0.1,0.9-0.2c0.1-0.2,0.2-0.3,0.3-0.5v-0.1c-0.3-0.2-0.7-0.4-1-0.6c0.3-0.5,0.5-1,0.8-1.5v-0.1
			c-0.7-0.5-0.7-0.5-0.5-1.3c0.3,0.1,0.4,0,0.6,0.2c1.8,0.8,0.7,6.8-0.4,7.8c-1-0.3-2-0.5-3-0.8v-0.1c0-0.1,0-0.2,0-0.3
			c0.5-0.6,1.4-0.2,2.1,0.1c0.1-0.1,0.3-0.1,0.4-0.2c0-0.2,0.1-0.5,0.1-0.7c-0.7-0.5-1.5-0.9-2.2-1.4c0-0.3,0-0.5,0-0.8
			c-0.7-0.2-1.5,0-2.1,0.3C334.6,181.1,334.6,180.8,334.7,180.6z M333.4,187.4c0.2,0,0.5,0.1,0.7,0.1c0.1,0.1,0.1,0.3,0.2,0.4
			c0.2,0.3,0,0.2,0.1,0.6c-0.3,0-0.5,0-0.8,0c0.1-0.1,0.1-0.1,0.2-0.2C333.7,188,333.5,187.7,333.4,187.4z M333.6,189.7
			c-0.3,0.4-0.4,0.3-1,0.2c0-0.1-0.1-0.1-0.1-0.2c0.1-0.1,0.3-0.2,0.4-0.3C333.1,189.5,333.4,189.6,333.6,189.7z M333.8,185.8
			c0.4-0.6,0.9-0.6,1.4-1.1c0.1,0,0.3,0,0.4,0c0.5,0.7,0.7,1,1.4,1.7C335.8,186.4,334.6,186.8,333.8,185.8z M333.3,183.1
			c0.1,0,0.3,0,0.4,0c-0.1,0.4-0.1,0.3,0.3,0.5c-0.2,0.5-0.5,1-1.1,1.1c-0.3,0.1-0.3,0.1-0.5-0.2
			C331.8,184.1,333.1,183.6,333.3,183.1z M311.5,197.4c1.1-3,4-5.9,4.4-9c0.2,0.1,0.5,0.1,0.7,0.2c0.4,0.8,0,2.3-0.4,3.1
			c0.4,2.9,4.9-3.2,5.1-4.1c0.3-1,0.1-2.6,0.7-3.3c0.2-0.2,0.3-0.1,0.6-0.2c1.1,0.8,0.7,2.4,1.2,3.5c0.1,0.1,0.1,0.2,0.2,0.3
			c2.4-0.6,3-3.9,4.9-5.1c1.2,0.3,0.5,0.9,1.1,1.7c0.5,0.3,1.1,0.5,1.6,0.8c0,0.1,0.1,0.3,0.1,0.4c-0.3,0.2-0.5,0.5-0.8,0.7
			c-1.6-0.1-1.4-0.8-2.3-1.4c-0.2,0-0.4-0.1-0.6-0.1c-0.1,0.2-0.1,0.3-0.2,0.4l0,0l0,0c-0.1,0.1-0.1,0.1-0.3,0.2
			c0.1,0.7,0.6,0.9,1.2,1.1c0,0.1,0.1,0.1,0.1,0.2c-0.4,0.5-1.4,0.5-2.4,0.5c0.1,0.5,0.1,1,0.2,1.5c-0.6,0.6-1.7,1-2,1.8
			c-0.1,0.3,0,0.4,0.2,0.7c0.7,0.1,1.1-0.1,1.7-0.2c0.3-0.6,0.4-1.2,0.7-1.7c0.2,0,0.3-0.1,0.5-0.1c0.2,0.3,0,0.2,0.5,0.3
			c0.2,0.7,0.3,1.3,0.5,2c-6.1,1-13.5,5.2-16.4,9.7C310.3,201.2,311.1,198.6,311.5,197.4z M329.6,189.7c0-0.1,0-0.3,0-0.4
			c0.2,0,0.5,0.1,0.7,0.1c0.4,0.2,0.5,0.3,0.6,0.9c-0.1,0-0.1,0-0.2,0c0.1,0.5,0.2,0.5,0.7,0.6c-0.2,0.2-0.6,0.3-0.9,0.1
			c-0.1,0-0.1,0-0.2,0c0.1-0.2,0.2-0.4,0.3-0.6C330.3,190.2,329.9,189.9,329.6,189.7z M329.8,187.3c0.3,0,0.5,0.1,0.8,0.1
			C330.3,187.7,330.1,187.6,329.8,187.3z M329.3,188.3c0,0.2,0.1,0.5,0.1,0.7c-0.5,0.1-1,0.1-1.5,0.2h-0.1c0-0.2,0-0.4,0-0.6
			c0.3-0.1,0.5-0.3,0.8-0.4C328.8,188.1,328.7,188.3,329.3,188.3z M329.2,187.7c0-0.1,0.1-0.1,0.1-0.2c0.1,0,0.1,0,0.2,0
			C329.4,187.6,329.3,187.6,329.2,187.7z M335.6,199.3c-0.2,0.9-0.7,0.7-1,1.3c-2.6,4.4-7.6,5.1-13.4,4c-1.8-0.3-3-0.1-4.3-0.8
			c-0.1,0-0.1,0-0.2,0c0-0.1,0.1-0.1,0.1-0.2c0.3-0.8,1.4-1.3,2.1-1.9c1.7-1.6,3.1-3.8,5.2-5c0.9-0.3,1.7-0.6,2.6-0.9
			C330,195.9,333.2,197.7,335.6,199.3z M296.5,217.4c-0.4,0.2-0.5,0.1-1.1,0.1c0.1-5,5.5-9.4,8.9-11.3c4.8-2.8,7.7-1.9,7.4,4.4
			c-1.3,0.1-2.2,0.7-3.1,0.9c-2.4,0.6-4.5-0.5-6.4,0.6C300,213.4,298.6,216,296.5,217.4z M311.6,214.4c-3,0.7-6.9,0.7-10,0.3
			c1.3-2.1,7.7-1,10.1-2.4c0.3,0,0.5,0.1,0.8,0.1c0.1,0.2,0.2,0.3,0.3,0.5C312.4,213.4,312,213.9,311.6,214.4z M323.9,222.1
			c-4,2.7-5.2,3.6-8.4-0.9c-0.8-0.9-1.6-1.8-2.4-2.7c-0.8-1.4,0.9-3.6,1.4-4.4c0.4-0.2,0.5-0.1,1.1,0c0.2,0.3,0.3,0.6,0.5,0.9
			c-0.3,0.2-0.6,0.3-0.8,0.6c-0.1,0.1-0.1,0.1-0.2,0.2c0,0.6,0.1,0.8,0.3,1.2c0.1,0,0.1,0,0.2,0c0.9-0.9,2.4-1.9,2.9-2.9
			c0-0.5,0-0.6-0.2-0.8c-0.4-0.2-1.4,0.1-2.2,0v-0.1c0.3-0.1,0.7-0.3,1-0.4c0.9,0.2,1.7,0.3,2.6,0.5c0.2,0.8-0.9,2.1-0.7,3.4
			c-0.2,0-0.5,0.1-0.7,0.1c-0.2,0.3-0.3,0.3-0.4,0.9c1.3,1.7,2.5,2,3.5,4.1c0.6-0.1,0.7-0.3,0.9-0.8c0.2,0.1,0.4,0.2,0.6,0.3
			C323.4,221.3,323.4,221.7,323.9,222.1C323.9,222,323.9,222.1,323.9,222.1z M324,217.1c-0.7,0.1-0.7,0.1-1.1-0.1
			c-0.1,0-0.2,0.1-0.3,0.1c0.1,0.5,0.3,0.6-0.1,1.3c-0.1,0.1-0.1,0.2-0.2,0.3c-0.3-0.1-0.7-0.1-1-0.2c-0.2-0.3-0.1-0.3-0.1-0.8
			c0.7-0.3,1.3-0.6,1.8-1.1C323.6,216.6,323.7,216.7,324,217.1C324,217,324,217.1,324,217.1z M320.6,215.1c0.1-0.4,0.1-0.8,0.2-1.2
			c1.1,0.2,1.6,0.8,2.1,1.6c0,0.1,0,0.3,0,0.4C322.1,215.6,321.4,215.4,320.6,215.1z M328.8,295.5c-0.4-1.7-1.4-2.9-1.6-5.1
			c0.1-2.4,0.2-4.8,0.3-7.2c0.4-0.7,1.5-0.4,2.4-1.7v-0.1c-0.6-0.1-1.3-0.3-1.9-0.4c-0.3-2.5,0.9-6,1.3-9.1
			c0.6-4.6,1.4-10.6,2.9-15.9c0.5-1.7,0.1-4.5,0.6-6.2c0.3-0.9,0.9-3.6,0.8-5.1c-0.1-2-0.6-5.8-1-8.1c-0.3-1.6,0-3.9-0.8-5.8
			c-1.1-2.4-2.2-5.6-3.6-7.9c-0.6-0.6-1.3-1.3-1.9-1.9c-0.3-0.8,0-2.4-0.1-3.3c-0.2-1.5-2.3-3.9-3.3-4.8c-0.8-0.8-4.8-1.9-6-1.6
			c-1,0.2-1.8,0.9-2.7,0.5c-1.3-0.9-0.7-4.4-1.2-5.8c0.5-0.4,6.5,0.3,8.1,0.6c0.9,0.3,1.7,0.5,2.6,0.8c1.5-0.5,4.3,0,6.2-0.7
			c3.2-1.2,8-7.5,12.5-6.2c3.6,1.1,0.4,7.2-3.8,6c-0.1-0.6-0.2-1.2-0.3-1.8c-0.1-0.1-0.1-0.1-0.2-0.2c-0.1,0-0.3,0-0.4,0
			c-0.4,0.9-0.6,1.4-0.8,2.6c0.1,0.2,0.2,0.5,0.3,0.7c4.1,3.1,9.5-3.6,7.7-7.3c-1.2-2.6-3.4-0.8-5.2-1.7c-0.6-0.3-0.8-1-1.3-1.4
			c-0.5-0.1-1.1-0.3-1.6-0.4c-1.7-1-3.3-2.1-5-3.1c-0.7-0.3-1.4-0.3-2-0.7c-0.1,0-0.1,0-0.2,0c2.3-2,11.3-0.7,12.8,1
			c0.1,0.1,0.1,0.6,0.2,1c0.2,0.1,0.3,0.3,0.5,0.4c0.5-0.1,0.5-0.1,0.5-0.7c1.7,0.3,4.6,1.9,5.1,3.4c-0.3,0.1-0.5,0.2-0.8,0.3
			c-0.2,0.2-0.1,0-0.1,0.3c-0.1,0.4,0.1,0.4,0.6,0.5c0.4-0.3,0.6-0.4,0.9-0.8c1.3,0.7,3.6,2.4,4.3,4c0.1,0.1,0.1,0.1,0.2,0.2
			c-0.5,0-0.9,0-1.4,0c0,0.4,0.1,0.7,0.1,1.1c0.2,0.1,0.5,0.1,0.7,0.2c0.3-0.3,0.4-0.5,0.5-1c0.3,0.1,0.3,0.2,0.6,0.1
			c0.8,0.4,1.5,1.3,1.7,2.3c-0.7,0.2-0.7,0.2-1.5,0.2c-0.1-0.5-0.1-0.6-0.6-0.7c-0.2,0.2-0.4,0.5-0.6,0.7c0,0.3,0.1,0.5,0.1,0.8
			c0.4,0.3,1.4,0.2,1.7,0.7c0.1,0.1,0.3,0.3,0.4,0.4c-0.4,0-0.8,0-1.2,0c-0.1,0.4-0.2,1.1,0.1,1.4c0,0.1,0.1,0.2,0.1,0.3
			c0.2,0,0.4-0.1,0.6-0.1c0.1-0.4,0.1-0.8,0.2-1.2c1.1,0,1.3-0.4,2.4-0.3c0.6,1,1.2,2.1,1.8,3.1c-0.4,0.3-1.1,0.4-1.8,0.5
			c-0.2,1.1-0.2,1.7,0.1,2.7c0.1,0.1,0.1,0.1,0.2,0.2c0.2,0,0.3-0.1,0.5-0.1c0.3-0.6,0.1-1-0.1-1.5c0.2-0.3,0.4-0.7,0.6-1
			c0.3,0,0.5,0,0.8,0c0.8,0.7,1.7,2.8,1.7,3.9c0,0.1-0.1,0.1-0.1,0.2c-1.6-0.3-1.5,0.1-2.4,0.9c0.2,0.2,0.3,0.5,0.5,0.7
			c1-0.1,1.9-0.6,3,0c0.7,0.4,1,1.6,1.3,2.3v0.1c-0.9-0.1-1.7-0.3-2.6-0.4c-0.3,0.4-0.6,0.9-0.9,1.3c0,0.1,0,0.2,0,0.3
			c1.1,0.5,2.7,0.3,3.6,0.5s2.5,3.9,3,4.8c-0.4,0.1-0.9,0.1-1.3,0.2c-0.1,0.1-0.2,0.1-0.3,0.2c0.1,0.4,0.2,0.9,0.3,1.3
			c0.7,0.3,1.3,0.2,2,0c0.1,0.3,0.3,0.5,0.4,0.8c-0.4,0.2-0.5,0.2-0.8,0.6c-0.1,0.6,0.3,1,0.6,1.5c0.4,0,0.9,0.1,1.3,0.1
			c0.4,0.6,0.8,1.3,1.2,1.9c-0.4,0.2-0.9,0.5-1.3,0.7c0,0.1-0.1,0.3-0.1,0.4c0.1,0.6,0.3,0.5,0.6,0.9c-0.2,0.4-0.4,0.6-0.3,1.1
			c0,0.1,0,0.1,0,0.2c0.7,0.4,1.2-0.3,1.2-0.9c1.2-1.2,4.1,5,4.3,6.1c-0.5,0.3-0.9,0.6-1.4,0.9c0.2,0.8,0.7,1.5,0.9,2.2
			c0.2,0.7-0.3,0.9-0.3,1.6c0.1,0,0.2,0.1,0.3,0.1c0.2,0.2,0.1,0.1,0.5,0.2c0.1-0.1,0.2-0.1,0.3-0.2c0-0.7,0.1-1.4,0.1-2.1
			c0.3-0.3,0.3-0.3,0.8-0.3v-0.1c-0.2-0.2-0.3-0.3-0.5-0.4l0,0l0,0c-0.3-0.2-0.6-0.4-0.9-1v-0.1c0.2,0,0.5,0,0.7,0
			c0.7,0.7,3.1,3.9,3.3,4.9c-0.3,0-0.5,0-0.8,0c-0.3,0.4-0.4,0.6-0.5,1.2c1,0.1,1.4-0.2,2.2-0.4c0.3,0.4,0.7,0.9,1,1.3
			c0.3,0.3,0.6,0.6,0.9,0.9v0.1c-1,0-1.3-0.3-1.8-0.8h-0.1c-0.1,0.1-0.1,0.2-0.2,0.3c-0.2,0.2-0.1,0.8-0.2,1.2
			c0.3,0.5,0.9,1,1.5,1.1v0.1c-0.2,0.3-0.4,0.3-0.5,0.7c0.2,0.4,0.3,0.7,0.5,1.1c-0.4,0.2-0.6,0.3-0.9,0.6c0.1,0.4,0,0.5,0.3,0.7
			c0.8,0.6,1.7-0.3,1.5-1.1c1.3,0,3.2,1.9,3.6,3.2c1.1,0.4,2.9,0.2,3.7-0.1c1-0.2,2.9,1.5,4.5,2.6h0.1c0,0,0,0,0,0.1
			c0.6,0.4,1.2,0.7,1.7,0.7c0.1,0.1,0.1,0.2,0.2,0.3c-0.4,0.3-0.7,0.7-1.1,1c0.1,0.3,0.1,0.6,0.2,0.9c0,0.1,0.1,0.2,0.1,0.3
			c0.8,0,1.2-0.1,1.7-0.2c0.1,0.3,0.1,0.7,0.2,1c0.7,0.1,1.4,0.2,1.9,0.5c0.2-0.1,0.4-0.2,0.6-0.3c0-0.4,0.1-0.7,0.1-1.1
			c0.1,0,0.1-0.1,0.2-0.1c1.2,0,2.6,0.5,3.1,1.3v0.1c-0.8-0.1-1.1,0-1.7,0.2c-0.1,0.3,0,0.3,0.1,0.6c-0.8,0.5-1.7,0.5-2.5,1
			c-0.1,0.7,0.1,0.8,0.6,1.1c1.6-0.3,2.9-1.8,4.4-0.5c-0.8,0.7-5.1,1.3-6.5,1.2c-2.2-4.6-7.8-4.7-11.8-7.5c-0.9-0.7-2.1-1.5-3.2-2
			c0-0.1-0.1-0.1-0.1-0.2c0.2,0,0.5-0.1,0.7-0.1c0.1-0.6,0.2-0.9,0.1-1.7c-0.2,0-0.3-0.1-0.5-0.1c-0.4,0.3-0.7,0.5-0.9,1
			c-2-0.4-4.6-3.8-4.8-5.5c-0.4-0.1-0.7-0.1-1.1-0.2c-0.1,0.2-0.1,0.5-0.2,0.7c-1.6,0.1-2.2-0.2-3.6-0.3c-2,1.3,1,1.5,1.8,1.9
			c0,0.5,0,1.1,0,1.6c0.7,0.6,1.4,0.5,1.5,1.7c-1,0-1.2-0.3-1.8-0.6c-0.7,0-0.9,0.2-1,0.8c0.6,0.9,2.2,1.7,3.2,2.3
			c0.4-0.3,0.7-0.6,0.9-1.1c0.3,0,0.5-0.1,0.8-0.1c0.8,0.8,1.5,1.7,2.3,2.5v0.1c-0.6-0.2-1.3-0.5-1.9-0.7c-0.1,0.1-0.1,0.3-0.2,0.4
			c-0.4,0.1-0.7-0.1-1.2-0.4c-0.2,0-0.4,0.1-0.6,0.1c0,0.4-0.1,0.8-0.1,1.2c0.1,0,0.1,0.1,0.2,0.1c1.7-0.9,1.5,0.5,3,0.9
			c1.1,0.3,1.5-0.3,2.4-0.3c0.2,0.4,0.4,0.8,0.6,1.2c1,0.1,1.6,0.2,2.4,0.5c0.1,0.1,0.2,0.2,0.3,0.3c-0.5,0.4-1.3,0.9-1.6,1.5
			c-0.2,0.6,0.1,0.6-0.2,1c0.1,0,0.1,0.1,0.2,0.1c0.3,0,0.5,0.1,0.8,0.1c0.3-0.4,0.6-0.5,0.7-1.1c0.8,0,1.7,0,2.5,0
			c-0.7,0.3-0.7,0.4-1,1.1c0,0.1,0.1,0.2,0.1,0.3c0.3,0.1,0.3,0.2,0.7,0.1c0.2-0.1,0.5-0.3,0.7-0.4c-0.1-0.2-0.2-0.5-0.3-0.7
			c1.1,0.3,1.6,0.8,2.6,1.3c-0.2,0.1-0.5,0.3-0.7,0.4c0,0.3,0,0.7,0,1c1.4,0.7,3.2,1.1,4.9,1.8v0.1c-0.5,0.1-1.1,0.2-1.6,0.3
			c0,0.3,0,0.5,0,0.8c-0.4,0.3-1-0.3-1.9-0.3c-0.1-0.1-0.2-0.1-0.3-0.2c0.1-0.2,0.3-0.5,0.4-0.7c-0.3-0.2-0.6-0.3-0.9-0.5
			c-0.7,0.1-0.6,0.3-0.6,0.8c-1.2,0.2-2.3-0.9-2.9-0.6c-0.1,0.1-0.2,0.1-0.3,0.2c0,0.2,0.1,0.5,0.1,0.7c0.6,0.4,1.2,0.9,1.8,1.3h0.1
			c0.4-0.3,0.6-0.5,0.8-1c0.3,0,0.6,0,0.9,0c0.4,0.4,0.6,0.9,0.8,1.5c0.2,0.1,0.5,0.1,0.7,0.2c0.3-0.4,0.6-0.7,0.9-1.1
			c0.3,0.1,0.7,0.3,1,0.4c0.1,0,0.1,0.1,0.2,0.1c-1.3,1.9-6.9,0.7-9.2,0.1c-5.8-1.6-9.5-4.9-13.6-8.1c-1.6-1.3-3-4-4.6-5
			c-0.2-0.4,0-0.2-0.4-0.3c-0.2,0.4-0.5,0.9-0.9,1.1c0.1,0.9,0.6,0.9,0.8,1.5c0.5,1.7,1.1,3.5,1.7,5.2c-0.1,0.4,0,0.2-0.2,0.4
			c-0.4,0.2-0.6,0.2-1.1,0.1c-0.3-0.4-0.1-1.2-0.4-1.8c-0.1-0.1-0.1-0.2-0.2-0.3c-0.2,0-0.4,0-0.6,0c-0.5,0.7-0.1,1.7-0.6,2.1
			c0.1,0.4,0.1,0.8,0.4,1c0.7,0.5,2.3,0.4,3.4,0.4c0.3,0.6,0.4,1.2,0.6,2c-1.4-0.4-2.2-0.9-3.9-1c0,0.7-0.3,1,0.1,1.7
			c-0.6,0.3-1,0.1-1.3,0.7c-0.4,0.7,0.1,1,0.6,1.2c0.7-0.4,1.4-1.2,2.2-1.5c0.9-0.3,1.1,0.1,1.8-0.3c0.1-0.1,0.3,0.1,0.7-0.1
			c0.1,0.4,0.2,0.7,0.3,1.1v0.1c-0.5,0-0.9-0.1-1.4-0.1c0,0.2-0.1,0.5-0.1,0.7c-1.4,0.4-1.9,0.3-2.9,1c-0.4-0.3-0.7-0.7-1.4-0.9
			c-0.1-0.4-0.1-0.1,0-0.6c-0.1,0-0.2,0-0.3,0c-0.1,0.3-0.1,0.2-0.3,0c-0.2,0.1-0.5,0.1-0.7,0.2c-0.1,0.1-0.1,0.1-0.2,0.2
			c0.1,1.2,0.5,1.7,0.8,2.8c1.1,0.1,1.6-0.3,2.6,0c0,0.1,0.1,0.2,0.1,0.3c-0.8,0.4-2.3,1.5-1.2,2.3c0.6,0.1,1.5-0.6,2.3-0.1
			c0.3,0.2,0.5,1,0.6,1.3c-0.5,0.4-0.9,0.4-1,1.2c-0.3-0.1-0.4-0.2-0.7-0.1c-2.4-3.4-6.7-5.1-8.8-8.9c-0.9-1.6-0.1-3.5-0.8-5.7
			c-0.8-2.4-1.7-7.4-2-10.1c-1.1-0.6-1.7-0.6-2.8-0.1c-0.9,2.3,0.2,5.2,0.4,7c-0.3,0.1-0.7,0.2-1,0.3c-0.2,0.5-0.4,1-0.1,1.5
			c0.3,0.3,1,0.4,1.3,0.6c-0.2,0.1-0.3,0.2-0.5,0.3c-0.1,0.4-0.1,0.8-0.2,1.2c0.3,0.2,0.6,0.4,0.9,0.6c0.1,1.3,0.2,2.6,0.3,3.9
			c-0.4-0.1-1.1-0.3-1.6-0.1c-0.1,0.1-0.2,0.2-0.3,0.3c0,0.2,0.1,0.5,0.1,0.7c0.3,0.5,1.1,0.6,1.9,0.6c0,1.4,0.1,2.9,0.1,4.3
			c-0.6,0.1-1.1,0.2-1.7,0.3c-0.1,0.2-0.2,0.4-0.4,0.6c0.1,0.5,0.1,0.6,0.4,0.8c0.4,0.1,0.8,0.3,1.2,0.4c-0.2,0-0.5,0.1-0.7,0.1
			c-0.3,1.1-0.6,1.5-1.5,1.9c0,0.5,0,0.8,0.2,1c0.3,0.3,1.7,0.4,2.2,0.5c0.4,1.4,0,2.7-0.2,4.2c-0.7,0-0.9,0-1.2-0.4
			c-0.1-0.2-0.2-0.3-0.3-0.5c0.2,0,0.4,0,0.6,0c0.5-0.4,0.4-1.3,0.3-1.9c-0.7-0.2-1.2-0.4-2.1-0.3c-0.1,0.4-0.1,0.3-0.1,0.6
			c-0.5,0-1,0-1.5,0c-0.1,0.6,0,0.6-0.2,1.2v0.1c0.5,0.4,1.1,0.6,2,0.6c-0.1,0.5-0.1,1-0.2,1.5c0.2,0.7,1.1,0.6,1.6,1
			c-0.6,0.3,0.3,1.2,0.8,1.3v0.1c-0.2,0.3-0.5,0.6-0.7,0.9c-0.4,0-0.9-0.1-1.3-0.1c0.3-0.6,0.3-1.1,0.1-1.6c-0.9-0.1-1,0.3-1.9,0.3
			c-1.1-1.1-1.4-4.9-2.1-6.9c-1.2-3.5-2.1-6.9-2.5-10.6c-0.3-2.4,0.9-5.6,1.5-7.5s-0.3-3.7,0.1-5.4c0.3-1.3,0.9-3.3,0.9-4.8
			c-0.1-0.2-0.2-0.3-0.3-0.5c-0.8-0.5-1.7-0.5-2.7-0.2c-1.7,3.5-0.3,7.9-1.7,11.2c-0.4,0.5-1.4,0.4-1.8,1c-0.4,0.7-0.3,1.6-0.7,2.3
			c0.4,0.6,0.9,0.7,1.5,1.1c-0.1,0.8-0.3,1.7-0.4,2.5c-1.2-0.1-1.3-0.5-2.5-0.4c-0.1,0.3-0.1,0.4-0.3,0.6c0.1,0.4,0.2,0.6,0.5,0.8
			c0.8,0.1,1.3,0,2,0.1c-0.3,1.6-0.5,3.2-0.8,4.8c-0.3,0.2-0.8,0.1-1.3,0.2c-0.2,0.6-0.5,1.2-0.7,1.8c0.3,0.2,0.5,0.4,0.8,0.6
			c-0.2,0.3-0.8,1.2-1.1,1.4c0.3,0.6,0.9,0.7,1.2,1.3c0,0.3-0.1,0.5-0.1,0.8c-0.3,0-0.5-0.1-0.8-0.1c-0.1-1-0.6-1.4-0.6-1.8
			c-0.3,0-0.5,0-0.8,0c-0.9,0.3-1.5,1.2-2.3,1.7c-0.7,0.2-1.3,0.3-2,0.5c0,0.1-0.1,0.2-0.1,0.3c0,0.2,0,0.5,0,0.7
			c0.5,0.1,0.8,0.4,1.2,0.3c0.4-0.2,0.3-0.2,0.4-0.7c0.4-0.1,2.1-0.3,2.4-0.3c0.5,0,0.9,0.7,1.7,0.9c0.1,0.1,0.2,0.3,0.3,0.4
			c-0.1,0.2-0.2,0.4-0.3,0.6c-0.3-0.1-0.3-0.2-0.7-0.1c-0.1-0.3-0.2-0.7-0.3-1c-1.1-0.2-1.1,0.6-1.9,1c0,0.3,0,0.7,0,1
			c0.5,0.1,1,0.1,1.5,0.2c0.1,0.1,0.2,0.1,0.3,0.2c0,0.4-0.1,0.9-0.1,1.3c-0.3,0.3-0.7,0.7-1,1c0,0.6,0,1.3,0,1.9
			c-2.1,0.7-2.6-0.2-3.1,3C329.5,295.5,329.1,295.5,328.8,295.5z M419.8,370.3c0.2,0,0.5,0.1,0.7,0.1c0.1,0,0.2,0.1,0.3,0.1
			c-0.1,0.2-0.1,0.5-0.2,0.7c-0.5,0-0.9-0.2-1.4-0.4c0-0.1-0.1-0.1-0.1-0.2C419.3,370.5,419.6,370.4,419.8,370.3z M411.2,376.2
			c0.4,0,0.7,0,1.1,0c0.1,0.1,0.2,0.2,0.3,0.3c-0.4,0.4-1.3,0.5-1.8,0.8c-0.4-0.1-0.2,0-0.4-0.2C410.7,377,410.9,376.6,411.2,376.2z
			 M395.1,377.5c-3,0.5-8.1-1.1-9.2-3C390.7,374.6,392.5,375,395.1,377.5z M376.1,376.5c0.7-1,2.1-1.2,3.3-1.7
			c4.6,0.1,6.3,2.6,9.4,3.8c1.5,0.6,3.7,0.2,4.9,1.1c-1.6,0-3.3,0.1-4.9,0.1c-2.4-1-4.9-2-7.3-3c-1.6-0.5-3.6,0.4-5.2-0.2
			C376.2,376.6,376.2,376.6,376.1,376.5C376.1,376.6,376.1,376.5,376.1,376.5z M405.8,376.1c-1.1,0.6-0.3,1.9-0.1,2.9
			c-0.9,0.2-1.7,0.3-1.8-0.7c-0.6-0.1-1-0.1-1.4,0.2c-0.3,0.2-0.4,0.6-0.5,1c0.3,0.3,0.6,0.7,0.9,1c0.1,0.1,0.1,0.1,0.2,0.2
			c-0.3,0.2-0.2,0-0.3,0.4c-0.9,0.1-1.2-0.4-2.1-0.6c-0.2,0.3-0.5,0.5-0.7,0.8c0.1,0.8,0.4,1.1,0.9,1.4c0,0.1,0.1,0.2,0.1,0.3
			c-0.4,0.2-0.8,0.5-1.2,0.7c-0.9-0.1-1.6-0.7-2.4-1c-0.2,0-0.4,0.1-0.6,0.1c-0.2,1.1,0.1,1.5,0.5,2.1v0.1c-2.4,0.2-1.4-1-3.2,0.7
			c-0.8,0.6-3.3,0.1-4.2-0.2c-3.4-1-5.3-3.7-9.2-4.3c-2-0.3-6.5-0.2-7.8,0.9c-0.6,0.5-1.3,1.3-2,1.7c-1.2,0.1-2.3,0.3-3.5,0.4
			c-0.7,0.3-0.9,1.4-1.8,1.8c-0.3,0.2-0.5,0.1-0.9,0.2c0.7-1.9,1.6-3.3,2.8-4.7c0.7,0.3,1.3,1.1,2.4,0.8c2.8-0.8,4.5-4.8,10-4
			c3.1,0.4,5,2.4,7.6,3.1c7.5,2.2,12.3-1.6,13.9-7.8c0.4-1.4-0.6-2.2-0.6-2.9c2.2,0,3.9,0.6,5.7,0.8c-0.1,0.4-0.3,0.8-0.4,1.2
			c0,0.1,0.1,0.1,0.1,0.2c1.1,0.2,2.3,0.5,3.4,0.7c0.1,0.3,0.1,0.7,0.2,1c0,0.1-0.1,0.2-0.1,0.3c-0.3,0.2-0.3,0.1-0.9,0.1
			c0-0.3,0-0.5,0-0.8c-0.1-0.1-0.3-0.1-0.4-0.2c-0.5-0.2-1,0-1.3,0.3c0.1,0.3,0.1,0.7,0.2,1c0.6,0.4,1.4,0.4,2,0.3
			c0,0.5,0,0.7,0.2,1c-0.4,0.3-0.7,0.3-0.9,0.7c-0.2,0.5,0,1.3,0.2,1.6c0.3,0.5,1,0.5,1.5,0.9C407.2,379.2,407.9,376.9,405.8,376.1z
			 M383,391.9c4.5,0,7.9,1.1,12.2,1.5v0.1c-1.5,1.4-12.6,0.2-14.3-0.7c-0.1,0-0.1,0-0.2,0c0-0.1-0.1-0.1-0.1-0.2
			C381.4,392.4,382.2,392.1,383,391.9z M374.9,390.6c1.6,0,2.3,0.7,3.1,1.6v0.1c-2.1,0.5-3.8,0.4-5.4,1.2c-0.1,0-0.2-0.1-0.3-0.1
			C373,392.2,373.8,391.4,374.9,390.6z M417.7,384.1c-0.3,0.1-0.7,0.1-1,0.2c-0.1-0.1-0.1-0.2-0.2-0.3c-0.1-0.1-0.1-0.1-0.2-0.2
			c0.6-0.7,1.5-1.1,2-1.8c0.3,0,0.5,0,0.8,0C418.8,383,418.1,383.3,417.7,384.1z M422.2,377.4c-2.2-0.1-1.4-1.6-3.8-1.3
			c-0.5,0.3-0.7,0.7-0.9,1.2c0.1,0.4,0.2,0.7,0.3,1.1c1.3,0.2,2,0.5,3.1,0.7c-0.2,0.4-0.5,0.9-0.7,1.3c-1.1-0.1-1.3-0.7-2.1-0.8
			c-0.7-0.1-1.4,0.3-2.4,0.3c-0.1,0.2-0.3,0.3-0.4,0.5c-0.1,0.7,0.1,1.4,0.2,2c-0.3,0.2-0.7,0.5-1,0.7c-1-0.2-1.2-0.8-2.4-0.7
			c-0.2,0.4,0.1,0.1-0.3,0.3c0.1,0.5,0.2,0.4,0,0.9c0.4,0.6,1,0.7,1.9,0.8c0.1,0.3,0.1,0.6,0.2,0.9c0.6,0,1,0.2,1.3,0.8
			c0.2,0.4-0.8,1.1-1.2,1.6c-1.3-0.1-1.9-0.5-3.3-0.4c0,0.4-0.1,0.9-0.1,1.3c0.6,0.2,1.1,0.5,1.7,0.7c0.1,0,0.1,0,0.2,0
			c-0.1,0-0.1,0.1-0.2,0.1c-0.2,0.3-0.2,0.3-0.4,0.6c-0.9-0.2-1.8-0.3-2.7-0.5c-0.2,0.3-0.3,0.5-0.5,0.8c0,0.2,0,0.3,0,0.5
			c0.5,0.4,0.8,0.6,1.5,0.8v0.1c-0.8,0.1-1.5,0.3-2.3,0.4c-0.2,0.3-0.3,0.6-0.5,0.9c0.6,0.7,1.5,0.8,2.5,1.1c1,0.3,1.5,1.7,3.1,1.4
			c4.8-0.8,10.9-8.9,13.8,0c-0.1,0.7-0.4,1.4-0.7,1.9c0,0.1-0.1,0.1-0.1,0.2c-1.7-0.8-1.6-3.3-3.6-4c-0.7-0.2-2.4-0.1-2.9,0.3
			c-1.1,0.9-2.3,2.8-3.6,3.8c-0.6,0.5-1.4,0.5-1.8,1.3c-0.3,0-0.5-0.1-0.8-0.1c0-0.2,0.1-0.3,0.1-0.5c-0.6-0.1-1.1-0.1-1.7-0.2
			c-0.3,0.8-0.2,1.2,0.2,1.7c0,0.1,0,0.3,0,0.4c-1.3,0.3-1.8,0.2-2.1-1c-0.7-0.2-1-0.2-1.6,0c-0.3,0.7-0.2,1.2,0.2,1.7
			c-0.5,0.3-2.1,0.7-2.6,0.5c-0.2-0.3-0.3-0.5-0.5-0.8c-0.5,0-0.9-0.1-1.4-0.1c-0.2,0.6-0.1,0.8-0.1,1.3c0.3,0.2,0.5,0.4,0.8,0.6
			c-0.5,0.3-0.9,0.5-1.4,0.8c-0.2,0-0.4-0.1-0.6-0.1c-0.1-0.2-0.1-0.5-0.2-0.7c-0.5-0.2-0.9-0.1-1.3,0.2c-0.4,0.3-0.6,0.7-0.7,1.3
			c0.4,0.1,0.8,0.2,1.2,0.3c0,0.1,0,0.3,0,0.4c-1.2,0.9-2.4,0.9-3.9,1.4c-0.1,0.5,0.5,0.7,0.7,1.4c-0.1,0-0.1,0-0.2,0
			c-0.4,0.2-1.3-0.1-2.1,0c-0.1,0.3-0.2,0.6-0.3,0.9c0,0.8,0,0.8,0.6,1c0,0.1,0,0.2,0,0.3c-0.2,0.2-0.5,0.5-0.7,0.7
			c-0.6-0.2-1.3-0.4-2-0.6c-0.4,0.4-0.6,0.9-0.4,1.7c0.2,0.2,0.4,0.4,0.6,0.6c-0.2,0.2-0.3,0.3-0.5,0.5c-0.7,0.3-1.4-0.3-2.3,0.1
			c-0.6,0.5-0.1,1.3-0.6,2c-0.6,0.9-7.3,4.2-8.8,2.5c-0.1-0.1-0.1-0.1-0.2-0.2c0.7-0.3,0.9-1,1.5-1.3c-0.1-0.6-0.1-1-0.3-1.5
			c-1.5-0.3-2,0.8-3,1.1c-2.2,0.6-4.2-1.4-6.3,0c-1.2,0.8-1.5,3.8-3.1,4.5c-1.5-3.9,2.3-5.7,5.5-6.2c1.8-0.3,3,0.3,4.4-0.2
			c0.1-0.3,0.1-0.7,0.2-1c-1.1-0.3-2.3-0.5-3.7-0.6c4.1-4.8,7.1-1.7,12.9-3.3c2.3-0.7,4.2-2.7,6.1-4c2.2-1.6,3.4-2.4,2.3-5.6
			c-1.6-0.4-2.7-0.1-4.2,0.2c-1,0.1-1.9,0.1-2.9,0.2c-4.4,1.4-11.8,4.3-17.6,2c0-0.1-0.1-0.1-0.1-0.2c0.4-0.3,1.4-0.6,1.8-0.8
			c0-0.2,0-0.4,0-0.6c-0.3-1.6-2.8-1.5-4.9-1.8c-3.8-0.6-5,3.1-7,4.9c-0.1,0.2-0.3,0.1-0.6,0.2c-0.1,0-0.1-0.1-0.2-0.1
			c0.9-3,3.8-7,8.1-6.3c1.5,0.2,2.4,0.8,3.7,0.9c0.1,0,0.1-0.1,0.2-0.1c0.2-0.3,0.3-0.7,0.5-1c-0.4-0.6-1-0.7-1.5-1.1
			c-0.1,0-0.1-0.1-0.2-0.1c1.2-0.3,2.5-0.7,3.7-1c0.6-0.1,5.2,0.5,6.3,0.7c1.9,0.4,6,1.8,8.3,1.3c7.4-1.7,9.5-1.8,13.4-7
			c1.3-1.3,2.5-2.7,3.8-4c1.9-3.1,5.3-6,6.4-9.4c0.6-1.9-0.5-3.9-1.9-4.4c0-0.1-0.1-0.1-0.1-0.2v-0.1c0.9-0.1,1.9-0.1,2.8-0.2
			c1.7,0.3,1.9,1.3,3.7,1.8c0.1,0.1,0.1,0.2,0.2,0.3c-0.1,0.1-0.1,0.1-0.2,0.2c-0.2,0.3-0.7,0.1-1.4,0.1c-0.2,0.5-0.3,0.9-0.2,1.5
			c1.2,0.2,1.2-0.2,2.3-0.4c0.9,0.6,1.2,1.6,2.4,1.9c0,0.1,0.1,0.3,0.1,0.4C422.5,376.9,422.4,377.2,422.2,377.4z M422.1,372.2
			c0.2,0.5,0.2,0.4,0.2,1c-0.5-0.2-0.9-0.3-1.4-0.5c0-0.2,0.1-0.5,0.1-0.7c0.3-0.1,0.7-0.1,1-0.2c0.2,0,0.4,0,0.6,0l0.1,0.1
			C422.5,372,422.3,372.1,422.1,372.2z M423.3,371.2c0.5,0,0.6,0,0.8,0.2c-0.3,0-0.6,0.1-0.9,0.1
			C423.2,371.4,423.3,371.3,423.3,371.2z M424.6,375.1c-0.3,0-0.6,0-0.9,0V375c0.3-0.5,0.5-0.7,1-1c0.2,0,0.3,0.1,0.5,0.1
			c0.1,0,0.1,0,0.2,0C425.1,374.4,424.9,374.8,424.6,375.1z M426.3,371.2c-0.5,0-1.1,0.1-1.6,0.1c0-0.1-0.1-0.1-0.1-0.2
			c0.2-0.4,0.4-1,0.7-1.4c0.2,0.1,0.4,0.1,0.6,0.2c0.1,0.2,0.3,0.5,0.4,0.7C426.3,370.8,426.3,371,426.3,371.2z M427.5,372.9
			c-0.2,0-0.3-0.1-0.5-0.1c0-0.1,0.1-0.3,0.1-0.4c0.3,0.1,0.6,0.1,0.9,0.2C427.8,372.7,427.7,372.8,427.5,372.9z M430.8,370.9
			c-0.3-0.1-0.5-0.2-0.8-0.3c0-0.1,0-0.1,0-0.2c0.4-0.2,0.8-0.5,1.2-0.7c0.1,0,0.2,0,0.3,0c0.1,0,0.1,0.1,0.2,0.1
			C431.4,370.2,431,370.4,430.8,370.9z M432.8,367.6c0-0.1,0.1-0.1,0.1-0.2c0.3,0,0.6,0.1,0.9,0.1c0.1,0.1,0.1,0.2,0.2,0.3
			C433.6,367.7,433.2,367.7,432.8,367.6z M492.8,304.7c0.4-0.3,0.8-0.5,1.2-0.8c0.3,0,0.6,0,0.9,0c0.1,0,0.1,0.1,0.2,0.1
			c0.2,0.6,0.2,1,0.2,1.7c-0.5,0.1-0.9,0.1-1.3-0.1c-0.5-0.3-0.6-0.6-1.2-0.8C492.8,304.8,492.8,304.7,492.8,304.7z M493.1,306.9
			c0.1,0,0.1,0,0.2,0c0.2,0.6,1.1,0.4,1.8,0.4c-0.1,0.2-0.1,0.5-0.2,0.7c-1,0.1-1.6,0.2-2.3,0.1c-0.2-0.5,0-0.4-0.1-0.8
			C492.7,307.2,492.9,307.1,493.1,306.9z M491.1,305.5c0.3,0,0.5,0.1,0.8,0.1l0.1,0.1v0.1c-0.5,0.4-0.4,0.3-1.2,0.2
			C490.9,305.6,490.9,305.7,491.1,305.5z M483.2,309.2c0.1-0.1,0.1-0.3,0.2-0.4c0.1,0,0.1,0,0.2,0
			C483.5,308.9,483.3,309.1,483.2,309.2z M484.1,309c-0.1,0.1-0.2,0.2-0.3,0.3c0-0.1,0.1-0.2,0.1-0.3C484,309,484,309,484.1,309z
			 M509.3,244.6c0.3,0.1,0.5,0.1,0.8,0.2c0.3,0.2,0.3,0.2,0.4,0.5c0,0.1,0,0.3,0,0.4c-0.8-0.1-1.6-0.3-2.4-0.4
			C508.4,244.9,508.8,244.9,509.3,244.6z M509.7,247.2c-0.3,0.1-0.2,0.1-0.4-0.1C509.4,247.1,509.6,247.2,509.7,247.2z M507.1,249.4
			c-0.4-0.1-0.8-0.3-1.2-0.4c0-0.2-0.1-0.3-0.1-0.5c0.6-1,1.1-1.9,1.7-2.9h0.1c0.2,0.5,0.1,0.3,0.5,0.3c0.2,0.6,0.2,1.1,0.9,1.2
			c-0.4,0.6-0.6,0.8-1.6,0.8C507.3,248.4,507.2,248.9,507.1,249.4z M511.8,250c-0.5,1-3,0.3-4.1,0.1V250c0.3-0.3,0.5-0.6,0.8-0.9
			C510.1,249.1,510.4,249.9,511.8,250C511.8,249.9,511.8,250,511.8,250z M511.1,247.4c-0.1-0.3-0.2-0.3-0.2-0.8c0.2,0,0.5,0,0.7,0
			c0.1,0.1,0.2,0.1,0.3,0.2C511.9,247.6,511.8,247.5,511.1,247.4z M493.1,179c-0.2-0.4,0.1-0.1-0.3-0.3c0,0.1,0,0.2,0,0.3
			C492.9,179,493,179,493.1,179z M340.2,181.1C340.2,181.1,340.2,181,340.2,181.1c-0.1-0.2-0.2-0.2-0.3-0.3
			C340,180.9,340,181,340.2,181.1C340.1,181.1,340.2,181.1,340.2,181.1z M489.7,184.2c-0.1,0-0.2,0-0.3,0c-0.1,0.2-0.1,0.3-0.2,0.5
			c0.1,0.1,0.3,0.1,0.4,0.2C489.6,184.7,489.7,184.4,489.7,184.2z M327.5,185c0,0.1,0,0.2,0,0.3c0.1,0,0.2,0,0.3,0l0,0
			C327.6,185,327.9,185.2,327.5,185z M489.3,185.2c0,0.1,0,0.2,0,0.3c0.1,0,0.2,0,0.3,0C489.4,185.2,489.7,185.4,489.3,185.2z
			 M489.2,185.5c-0.1,0-0.1,0-0.2,0c0,0.1-0.1,0.2-0.1,0.3C489.3,185.6,489,185.9,489.2,185.5z M491.7,185.7c0,0.1-0.1,0.3-0.1,0.4
			c0.2,0.2,0.3,0.4,0.5,0.6c0.2,0,0.3,0,0.5,0c0.1-0.2,0.1-0.4,0.2-0.6C492.5,185.8,492.3,185.7,491.7,185.7z M489,186.4
			c0.1,0,0.2,0,0.3,0c-0.2-0.4,0.1-0.1-0.3-0.3C489,186.2,489,186.3,489,186.4z M495.8,186.7c-0.5,0.5-1,0.9-1.5,1.4
			c0.1,0.7,0.4,0.8,0.6,1.4c0.3-0.1,0.6-0.1,0.9-0.2c0.2-0.7,0.6-1.8,0.4-2.4c0-0.1,0-0.1,0-0.2
			C496.1,186.7,495.9,186.7,495.8,186.7z M489.2,187c-0.2,0-0.3-0.1-0.5-0.1c0.1,0.7,0,1.8-0.6,2.2c0,0.1-0.1,0.2-0.1,0.3
			c0.2,0.1,0.5,0.1,0.7,0.2C488.9,188.7,489,187.9,489.2,187z M322.6,189.7c0.7-0.2,0.8-0.5,1.3-0.8c0-0.2,0-0.3,0-0.5
			c-0.3,0-0.7-0.1-1-0.1c-0.3,0.3-0.6,0.6-0.4,1.1C322.5,189.5,322.6,189.6,322.6,189.7z M488.2,189.7c0,0.1,0,0.2,0,0.3
			c0.1,0,0.2,0,0.3,0C488.3,189.7,488.6,189.9,488.2,189.7z M491.8,189.8c0,0.5,0.1,0.4,0.2,0.9c0.2-0.1,0.5-0.2,0.7-0.3
			c0-0.1,0-0.2,0-0.3c-0.1-0.1-0.2-0.1-0.3-0.2C492.2,189.9,492,189.8,491.8,189.8z M480.5,194.2c0.2-0.3,0.4-0.5,0.6-0.8
			c-0.1-0.3-0.2-0.7-0.3-1c-0.2-0.2-0.1-0.1-0.5-0.2c-0.2,0.2-0.3,0.4-0.5,0.6c-0.1,0-0.1,0-0.2,0c0.2,0.8,0.6,0.7,0.8,1.4H480.5z
			 M494,194.7c0,0.3,0,0.5,0,0.8c0.2,0,0.5,0.1,0.7,0.1c0-0.3,0.1-0.6,0.1-0.9c-0.1-0.1-0.1-0.1-0.2-0.2c-0.1,0-0.2,0-0.3,0
			C494.2,194.6,494.1,194.6,494,194.7z M479.4,194.9c0,0.2-0.1,0.4-0.1,0.6c0.2,0,0.3,0.1,0.5,0.1c0.1-0.1,0.3-0.3,0.4-0.4
			c0-0.2-0.1-0.3-0.1-0.5c-0.2,0-0.3-0.1-0.5-0.1C479.5,194.7,479.5,194.8,479.4,194.9z M477.7,197c0,0.2,0,0.5,0,0.7
			c0,0.1,0,0.2,0,0.3c0.6,0.1,1.4-0.1,2.2-0.4c0-0.4,0-0.7,0-1.1c-0.4-0.2-0.7-0.4-1.1-0.6c-0.3-0.2,0-0.2-0.1-0.5
			c-0.2-0.2-0.4-0.3-0.8-0.3c-0.1,0.1-0.1,0.2-0.2,0.3c0,0.7,0.1,1,0.6,1.2C478.4,197,478.4,197,477.7,197z M489.5,197.1
			c0.2,0.3,0.3,0.5,0.5,0.8c0.1,0,0.2,0,0.3,0c0.3-0.5,0.5-1.1,0.5-2c-0.3-0.1-0.5-0.2-0.8-0.3C489.8,196.1,489.7,196.6,489.5,197.1
			z M325.1,199.6c-0.4,1.8,0.2,4.4,2.7,3.8c1.9-0.4,3.4-3.4,1.4-5c-0.3-0.3-0.8-0.4-1.3-0.4C326.6,198.6,325.9,198.5,325.1,199.6z
			 M327.9,201c-0.2,0.5-0.9,0.5-1.3,0.2c-0.3-0.2-0.3-0.2-0.4-0.6C327.1,200.6,327.2,200.9,327.9,201z M477.4,200.1
			c0,0.2,0.1,0.4,0.1,0.6c0.3,0.5,1.4,0.5,2.1,0.3c0-0.3,0-0.6,0-0.9c-0.4-0.2-0.6-0.3-1.2-0.3c-0.3,0.1-0.5,0.2-0.8,0.3
			C477.5,200.1,477.5,200.1,477.4,200.1z M491.4,200.9c0.3,0.1,0.2,0.1,0.4,0.3c0.1,0,0.3,0,0.4,0c0-0.3,0-0.6,0-0.9
			c-0.2-0.3,0-0.2-0.4-0.3c-0.1,0-0.3,0.1-0.4,0.1C491.4,200.4,491.4,200.6,491.4,200.9z M350.3,202.2c0.1-0.1,0.3-0.2,0.4-0.3
			c-0.1-0.4-0.1-0.7-0.2-1.1c-0.2,0-0.4-0.1-0.6-0.1c-0.1,0.6-0.2,1-0.1,1.6C350,202.3,350.1,202.2,350.3,202.2z M479.7,202.8
			c0.2-0.2,0.3-0.4,0.5-0.6c-0.1-0.2-0.1-0.3-0.2-0.5c-0.2,0-0.4-0.1-0.6-0.1C479.1,202.2,478.9,202.6,479.7,202.8z M495.6,202.4
			c0.2,0.2,0.5,0.4,0.8,0.2s0.2,0,0.3-0.5c-0.3-0.1-0.5-0.3-1.1-0.4C495.6,201.9,495.6,202.2,495.6,202.4z M488.5,203.1
			c0.1,0,0.3,0.1,0.4,0.1c0.2-0.1,0.4-0.1,0.6-0.2c0-0.2-0.1-0.3-0.1-0.5c-0.2-0.2-0.4-0.4-0.6-0.6
			C488.2,202.4,488.3,202.3,488.5,203.1z M493.2,204c0,0.2-0.1,0.5-0.1,0.7c0.3,0.1,0.5,0.1,0.8,0.2c-0.1-0.5-0.1-0.6-0.4-0.9
			C493.4,204,493.3,204,493.2,204z M477.3,208.2c0.7,0.1,1,0,1.6-0.2c0.2-0.5,0.5-0.9,0.7-1.4c-0.2-0.1-0.4-0.2-0.6-0.3
			c-0.4,0.5-0.9,0.8-1.7,0.9C477,207.6,476.9,207.8,477.3,208.2z M474.8,207.3c-0.1-0.2-0.2-0.3-0.3-0.5c-0.2,0-0.4-0.1-0.6-0.1
			c-0.1,0.1-0.1,0.2-0.2,0.3c0,0.8,0.2,0.7,0.4,1.2C474.5,208,474.7,207.7,474.8,207.3z M491.1,207.9c0.1-0.1,0.2-0.1,0.3-0.2
			c0-0.1,0-0.3,0-0.4c-0.1-0.1-0.3-0.3-0.4-0.4c-0.2,0-0.4,0-0.6,0c-0.5,0.5-1,0.4-1.9,0.4c0.1,0.5,0.3,0.7,0.7,0.9
			C489.7,208.4,490.7,208.1,491.1,207.9z M472.2,210c0.4-0.2,0.4-0.2,0.6-0.6c-0.3-0.3-0.5-0.7-1-0.8c-0.2,0.5-0.1,0.6,0,1.2
			C472.2,209.9,472,209.8,472.2,210z M356.5,210.6c0.3-0.1,0.6-0.1,0.9-0.2c0.3-0.4,0.5-0.5,0.5-1.2c0.1,0.1,0.1,0.2,0.2,0.3
			c0.1,0,0.2,0,0.3,0v-0.1c-0.3-0.4-0.9-0.6-1.6-0.6c-0.3,0.3-0.7,0.6-1,0.9C356,210.3,355.9,210.3,356.5,210.6z M355.8,213.4
			c0.2-0.2,0.5-0.3,0.7-0.5c0-0.3,0-0.5,0-0.8c-0.4-0.1-0.9-0.3-1.3-0.4c-0.2-0.2-0.2-0.2-0.2-0.6c-0.2,0-0.5-0.1-0.7-0.1
			c-0.2,0.3-0.3,0.5-0.4,0.9C354.3,212.5,355,213.2,355.8,213.4z M355.8,215.5c-0.2,0.2-0.3,0.3-0.5,0.5c0.1,0.3,0.1,0.5,0.2,0.8
			c0.2,0.1,0.3,0.1,0.5,0.2c0.2-0.1,0.3-0.2,0.5-0.3c0.2-0.5,0-0.5-0.1-1.2C356.2,215.5,356,215.5,355.8,215.5z M314.3,218.7
			c0.1,0.2,0.3,0.4,0.4,0.6c0.1,0,0.1,0,0.2,0c0.2-0.3,0.4-0.6,0.6-0.9c0-0.1,0-0.3,0-0.4c-0.2-0.1-0.5-0.1-0.7-0.2
			C314.5,218.1,314.4,218.2,314.3,218.7z M486.1,218.3c0,0.1,0,0.2,0,0.3s0.1,0.2,0.1,0.3c0.1,0.1,0.3,0.2,0.4,0.3
			c0.2,0,0.4-0.1,0.6-0.1c0-0.2,0.1-0.3,0.1-0.5c-0.3-0.4-0.2-0.5-0.9-0.5C486.3,218.2,486.2,218.2,486.1,218.3z M470.3,221v-0.1
			c-0.4-0.1-0.9-0.1-1.3-0.2c-0.1,0.2-0.3,0.5-0.4,0.7c0.1,0.7,0.3,0.6,0.4,1C469.7,222.2,470.1,221.7,470.3,221z M319.7,221.3
			c-0.1,0.3-0.3,0.5-0.4,0.8c0.2,0.5,0.2,0.6,0.6,0.9c0.2-0.1,0.5-0.1,0.7-0.2c-0.1-0.5-0.2-0.9-0.3-1.4
			C320.1,221.4,319.9,221.3,319.7,221.3z M363.1,224.9c0.6-0.4,1.3-0.7,1.4-1.7c0.2,0.1,0.3,0.1,0.5,0.2v-0.1
			c-0.1-0.1-0.1-0.3-0.2-0.4c-0.4,0.1-0.1-0.1-0.4,0.2c-0.2-0.3-0.4-0.6-0.6-0.9c-0.2,0-0.4,0-0.6,0c-0.4,0.6-0.8,1-0.6,1.8
			C362.5,224.4,362.8,224.7,363.1,224.9z M353.9,224.4c0.1-0.2,0.3-0.4,0.4-0.6c0.2-0.3,0.2-0.4,0-0.7s-0.2-0.3-0.7-0.3
			c-0.2,0.3-0.4,0.5-0.6,0.8c0,0.2,0.1,0.4,0.1,0.6C353.4,224.3,353.5,224.4,353.9,224.4z M488,224.7c0.1,0.3,0.1,0.4,0.3,0.6
			c0.2,0.2,0.4,0.2,0.7,0c0.2-0.2,0.3-0.7,0.4-0.9l-0.1-0.1c-0.3,0-0.7-0.1-1-0.1C488.2,224.4,488.1,224.5,488,224.7z M502.5,225.2
			c-0.1-0.3-0.1-0.5-0.2-0.8c-0.2,0-0.5-0.1-0.7-0.1c0,0.1,0,0.1,0,0.2c-0.1,0-0.1,0-0.2,0c0.1,0.3,0.1,0.5,0.2,0.8
			C502,225.4,502.2,225.4,502.5,225.2z M500.5,227.3c-0.5,0.5-0.7,1.2-1.5,1.3c-0.2,0.3-0.4,0.5-0.2,0.9c0.3,0.6,1.7,0.5,2.4,0.8
			c0.4-0.3,0.5-0.8,1.1-0.7c0.2-0.2,0.2-0.3,0.2-0.7c-0.2,0-0.3,0-0.5,0C501.6,228,501.5,227.7,500.5,227.3z M364.1,230.7
			c-0.2,0.5,0.1,1,0.6,1.2c-0.4,0.4-0.7,0.5-0.8,1.3c0.1,0.2,0.3,0.3,0.4,0.5c0.2,0,0.4-0.1,0.6-0.1c0.3-0.6,0.6-1.1,0.9-1.7
			c-0.6-0.7-0.4-0.9-0.7-1.7c-0.3,0-0.5-0.1-0.8-0.1C364.2,230.3,364.2,230.5,364.1,230.7z M500.3,231c0,0.3,0,0.6,0,0.9
			c0.2,0.3,0.2,0.3,0.4,0.6c0.4-0.1,0.2,0,0.4-0.3C501.7,231.7,501.3,231,500.3,231z M495.8,232c-0.3,0.5,0.2,0.6,0.4,1.1
			c0.5-0.1,0.7-0.1,1-0.4c0-0.2,0-0.4,0-0.6c-0.3-0.3-0.6-0.4-1.1-0.5C496,231.7,495.9,231.9,495.8,232z M499,235.1
			c0.1,0.2,0.2,0.3,0.3,0.5c0.2-0.1,0.5-0.2,0.7-0.3c-0.1-0.4-0.1-0.7-0.2-1.1c-0.2,0-0.3-0.1-0.5-0.1
			C499.2,234.4,499.1,234.8,499,235.1z M497,236.3c0.1,0,0.1,0.1,0.2,0.1c0.4-0.3,0.5-0.4,0.5-1.1c-0.1-0.1-0.2-0.1-0.3-0.2
			c-0.2,0-0.3-0.1-0.5-0.1C496.6,235.5,496.8,235.7,497,236.3z M363.9,237.7c0,0.3-0.1,0.5-0.1,0.8c0.5,0.3,0.7,0.5,1.6,0.5
			c0.2-0.2,0.4-0.4,0.6-0.6c0-0.1,0.1-0.1,0.1-0.2c-0.6-0.3-0.9-0.7-1.8-0.8C364.2,237.5,364,237.6,363.9,237.7z M371.6,241.3
			c0.3-0.3,0.5-0.5,0.8-0.8c0-0.3,0-0.5,0-0.8c-0.2-0.3-0.3-0.4-0.8-0.5c-0.3,0.4-0.5,0.7-0.8,1.1
			C371.1,240.6,370.8,241.1,371.6,241.3z M494.1,241.5c0.1-0.2,0.2-0.3,0.3-0.5c0-0.1,0-0.3,0-0.4c-0.3-0.2-0.7-0.3-1-0.5
			c-0.1,0.1-0.2,0.1-0.3,0.2c-0.1,0.5-0.1,0.6,0.1,1c0,0.1,0.1,0.2,0.1,0.3C493.6,241.6,493.8,241.5,494.1,241.5z M497.4,242.5
			c-0.3-0.4-0.4-0.6-1.1-0.7c-0.2,0.2-0.4,0.4-0.6,0.6C495.8,243.8,497,243.1,497.4,242.5z M375.5,243.1c-0.1-0.1-0.2-0.1-0.3-0.2
			c0.1,0.1,0.1,0.2,0.2,0.3C375.4,243.2,375.4,243.2,375.5,243.1C375.5,243.2,375.5,243.2,375.5,243.1
			C375.5,243.2,375.5,243.1,375.5,243.1z M462.4,314.5c0.7-0.8,0.9-2.4,1.8-3c2.9-2.1,5.8-4.1,8.2-6.7c3-3.4,6.3-10.1,7.5-14.5
			c0.6-2,0.2-6.1-1.9-7c-2.8-1-9.5,5.7-11.6,6.9c-0.2-0.1-0.4-0.1-0.6-0.2c0.8-2,4-3.7,5.2-5.3c2.2-3,4.8-6.1,6.4-9.5
			c0,0,1.7-7.4,1.9-8.1c0.9-3.5,1.4-8.1-0.5-10.8c-0.9-1.4-3.7-2.3-5.5-1c-2.7,1.9-4.3,6.9-5.9,10.1c-1.2,2.3-3.6,4-4.6,6.2
			c-0.1,0-0.1,0.1-0.2,0.1c0-0.2,0.1-0.4,0.1-0.6c-0.4,0.1-0.4,0.1-0.6,0.5H462c0.6-1.9,1.3-3.8,1.9-5.7c1.4-5,2.1-11.2,1.1-15.2
			c0-0.6,0-1.3,0-1.9c-0.7-1.2-1.5-2.3-2.2-3.5c-0.5-0.7-1.6-1-1.9-1.9c-0.2-0.1-0.5-0.1-0.7-0.2c-3.4,0.3-6.4,9.7-8,12.7
			c-1.6,3.1-3.2,7.1-5.3,10.3c-1.2,1.8-3.2,3.7-4.6,5.5c-1.1,1.5-2.1,3.1-3.5,4.3c-1.3,1.1-2.9,1.7-4.3,2.7
			c-1.1,0.8-2.4,1.9-3.9,2.4c-6.2,2-12.5,0.5-18.4-0.9c-4.3-0.6-8.5-1.2-12.8-1.8c-3.8-0.6-12.1,0.7-13.1,3.4v0.1
			c1-0.3,1.9-0.7,2.9-1c2.4-0.6,7.7-1.2,10.3-0.7c4.9,0.8,9.8,1.5,14.7,2.3c4.1,1,9.6,2.4,14.1,1.1c3.3-1,6.2-2.7,8.8-4.5
			c3.5-2.5,5.4-5.9,8.1-9.2c0.9-1.1,2.4-2,3-3.3c1.8-3.7,3.2-7.4,5.3-10.9c1.5-2.5,3.2-9.1,6.4-9.1c0,0.1,0.1,0.1,0.1,0.2
			c-0.1,0.1-0.2,0.2-0.3,0.3c0.3,0.6,0.9,0.8,1.8,0.8c0.4,0.7,0.7,2,0.6,2.9c0,0.1-0.1,0.1-0.1,0.2c-0.5-0.1-1.3,0.1-1.7,0
			c-0.8-0.2-1.3-1.4-2.5-1.1c-0.4,0.2-0.4,0.6-0.6,1c0.2,0.2,0.3,0.5,0.5,0.7c-0.3,0.2-0.5,0.2-0.7,0.6c-0.1,0.5,0.3,1,0.7,1.2
			c1.1-0.5,1.7-0.7,2-2.2c0.3,0.1,0.3,0.2,0.6,0.1c0.2,0.3,0.3,0.7,0.5,1c0.4,0.1,0.9,0.1,1.3,0.2c-0.2,1.1-0.3,1.8-0.3,3
			c-0.8,0.3-0.9,0.6-1.4,1.2v0.1c0.3,0.3,0.5,0.5,1,0.7c0.5,1.1,0,3.7-0.5,4.8c-0.2,0.4-1.8,0.9-2,0.9c-0.4,0.5-0.6,0.6-0.3,1.3
			c-0.3,0.1-0.5,0.3-0.8,0.4c0.1,0.5,0.3,0.5,0.3,1.2c0.5,0,1.1,0,1.6,0c-0.1,2.1-1.7,3.1-1.9,5c-0.5,0.4-0.6,0.3-1.2,0.1
			c-0.1-0.5-0.3-0.8-0.1-1.3c-0.5-0.1-0.7,0-1,0.4c-0.1,0.1-0.2,0.8-0.3,1.2c0.1,0.1,0.1,0.2,0.2,0.3c0.5,0.2,0.9,0,1.7,0
			c-0.4,2.2-6.3,8.8-8,10c-1.5,1-3.7,1.1-5.3,2c0,0.1-0.1,0.1-0.1,0.2c0.3,0.3,0.6,0.6,0.9,0.9c1.2,0.4,7.4-2.8,8.6-3.4
			c3.1-1.5,6.2-3,8.3-5.5c1.2-1.4,1.9-3.2,3-4.8c1.1-1.5,2.7-3,3.6-4.7c0.5-1.3,0.9-2.6,1.4-3.9c0.3-0.6,0.7-1.1,1-1.7
			c0.6,0.2,0.9,0.4,1.4,0.6c0.3-0.3,0.5-0.6,0.8-0.9c1.9,0.3,2.1,1.4,3.8,1.5c0,0.9-0.2,1.8-0.4,2.7c-0.4,0.3-1.1,0.3-1.7,0.4
			c-0.2,0.4-0.2,0.5-0.1,1c0.4,0.2,0.8,0.3,1.2,0.5c-0.1,0.8-0.2,1.5-0.3,2.3c-1,0.4-3.6,1.2-3.9,1.8c-0.1,0-0.1,0-0.2,0
			c0.2,0.4,0.3,0.7,0.5,1.1c0.1,0,0.2,0,0.3,0c0.3-0.3,0.4-0.6,0.7-1c0.5-0.4,1.2,0.2,2.1,0.3l0.1,0.1c-0.3,0.7-0.4,1.7-1,2.2
			c0.3,0.3-2.3-0.4-2.7-0.3c-0.4,0.1-1.7,0.7-2.1,1c0.1,1.8,1.4,1.6,2.2,0.7c0.5,0,1.1,0,1.5,0.3c0.1,0.1,0.2,0.2,0.3,0.3
			c-0.3,0.6-0.5,1.2-0.8,1.8c-0.7,0.1-1-0.2-1.6-0.4c-0.4,0.2-0.4,0.7-0.7,0.9c-1.4,1-1.4-0.3-2.3,1.6c0.5,0.3,1.6,0.4,2,0.8
			c-0.3,0.3-0.6,0.6-0.9,0.9c-0.4,0.4-0.4,0.3-0.9,0c0-0.3,0-0.6,0-0.9c-0.2-0.1-0.3-0.1-0.5-0.2c-0.6,0.1-0.3-0.1-0.4,0.4
			c-0.3,0-0.5,0-0.8,0c0,0.2,0.1,0.5,0.1,0.7c0.5,0.3,1,0.5,1.8,0.5c-1,2.6-5.2,5.4-7.2,7.3c-0.5-0.1-1-0.3-1.5-0.4
			c-0.6,0.7-0.4,1.1-0.8,1.9c-0.3,0.7-4,3.5-4.8,3.8c-0.6,0.1-1.2,0.3-1.8,0.4c-1,0.6-1.8,2.1-3.1,2.3c-0.4,0.5-0.5,0.5-0.4,1.3
			c0.2,0.2,0.3,0.3,0.5,0.5c2.4,1.7,6.5-1,8.3-1.7c5.5-2,9.7-5.5,14.1-8.6c1.5-1.1,4-3.9,6.5-3.2c0.3,0.5,0.5,0.9,0.7,1.5
			c0,0.1,0,0.2,0,0.3c-0.8-0.3-1.6-0.5-2.4-0.8c-0.6,1.6,0.7,2.6,2.5,2.5c0,1-0.2,2.4-0.9,2.7c-0.3,0.2-0.9,0.1-1.6,0
			c0,1.2,0.6,2.3,0.6,3c-0.2,3.1-3.3,5.2-4.1,7.7c-0.3,0-0.5-0.1-0.8-0.1c-0.1-0.1-0.1-0.2-0.2-0.3c0.2-0.2,0.4-0.5,0.6-0.7
			c-0.6-0.3-1.1-0.5-1.7-0.8h-0.1c0,0.6,0.1,1.2,0.1,1.8c0.2,0.1,0.3,0.1,0.5,0.2c0.3,0,0.7,0,1,0c0.1,0.1,0.1,0.2,0.2,0.3
			c-1.3,1.8-2.7,3.3-4.7,4.4c-0.2-0.3-0.6-0.8-0.9-1c-0.3,0-0.5-0.1-0.8-0.1c-0.2,0.3-0.4,0.4-0.3,0.8c0,0.1-0.1,0.1-0.1,0.2
			c0.2,0.4,0.3,0.4,0.7,0.7c0.7-0.3,0.7,0.1,1.4-0.5c-0.6,1.9-5.6,4.8-7.2,6.2c-4.6,4.1-10.3,7-17,9c-1.1,0.1-2.1,0.3-3.2,0.4
			c-1.9,0.5-7.2,2.8-9.2,2.5c-0.6-0.2-1.3-0.5-1.9-0.7c-0.1,0.5-0.1,0.5-0.1,1.1c-1.9,0.9-9.6,1.9-12.5,1.2c-1.5-0.4-3-0.7-4.5-1.1
			c-17.4-3.4-23.5-16.1-35.3-24.9c-3.7-2.8-7.5-4.9-12.1-6.8c-1.1-0.5-3.6-1.8-5.1-1.3c-0.2,0.1-0.3,0.2-0.5,0.3
			c0,0.3,0.1,0.7,0.1,1c2.3,0.8,4.5,1.5,6.8,2.3c3.9,1.6,10.1,5.4,13.1,8.1c1.3,1.2,2.3,2.7,3.5,4c4,3.9,8.1,7.8,12.1,11.7
			c2.7,2.2,6.2,3.4,9.4,5c3.1,1.5,6.2,2.1,10.2,3c1,0.2,2.1,0.5,3.1,0.7c3.1-0.2,6.1-0.5,9.2-0.7c8.2-1.7,17.8-3.9,24.8-7.3
			c0.9-0.3,1.8-0.5,2.7-0.8c1.5-0.8,3.3-1.7,4.8-2.7c0.7-0.7,1.4-1.3,2.1-2C461.3,315,461.9,314.7,462.4,314.5z M475.8,259.7
			c-0.1,0.1-0.3,0.2-0.4,0.3c-0.8-0.1-1.3-0.8-2-0.6c-0.3,0.2-0.4,0.6-0.7,0.8c-0.4-0.1-0.9-0.2-1.3-0.3c0.5-1.3,1.6-2.6,2.6-3.4
			c0.5,0.1,1.1,0.1,1.6,0.2c0.4,0.2,0.7,0.6,0.9,1.1c0.1,0.1,0.1,0.1,0.2,0.2c-0.5,0-1-0.1-1.5-0.1c-0.1,0-0.1,0-0.2,0
			C474.9,258.9,475.2,259.1,475.8,259.7z M363.2,244.4c0.1,0.2,0.2,0.3,0.3,0.5c0.1,0,0.3,0,0.4,0c0.1-0.2,0.3-0.3,0.4-0.5
			c0.2-0.3,0.1-0.2-0.1-0.5c-0.2-0.2-0.4-0.2-0.7-0.3C363.4,243.9,363.3,244.1,363.2,244.4z M369.9,246.9c0.1-0.1,0.3-0.1,0.4-0.2
			c0-0.2,0.1-0.5,0.1-0.7c0.2-0.1-0.1-0.3-0.3-0.4c-0.2,0-0.4-0.1-0.6-0.1c-0.2,0.2-0.3,0.4-0.5,0.6
			C369.1,246.8,369.3,246.7,369.9,246.9z M367.7,248.3c0.4,0.1,0.5,0.1,0.8-0.1c0.4-0.3,0.5-0.6,0.3-1.1c-0.4-0.1-0.7-0.1-1.1-0.2
			c-0.1,0.2-0.3,0.7-0.1,1.1C367.6,248.1,367.7,248.2,367.7,248.3z M460.5,249.2C460.5,249.2,460.5,249.1,460.5,249.2
			c-0.4-0.3-0.7-0.5-1.1-0.7c-0.1,0.1-0.2,0.1-0.3,0.2c0,0.3,0.1,0.5,0.1,0.8c0.1,0.1,0.1,0.2,0.2,0.3
			C459.8,249.6,460.1,249.4,460.5,249.2z M347,249.4C347,249.4,347,249.3,347,249.4c-0.2-0.1-0.4-0.1-0.6-0.1c0,0.1-0.1,0.2-0.1,0.3
			c0.1,0.1,0.2,0.3,0.3,0.4C346.7,249.8,346.9,249.6,347,249.4z M487.6,250c-0.2,0.3-0.3,0.5-0.4,0.9c0.1,0.2,0.1,0.5,0.2,0.7
			c0.5,0.1,0.7,0,1.2-0.1c0.1,0,0.1-0.1,0.2-0.1c-0.1-0.7-0.4-0.8-0.6-1.4C488,250,487.8,250,487.6,250z M367.9,250.2
			c-0.1,0.3-0.2,0.5-0.3,0.8c0.2,0.2,0.3,0.3,0.5,0.5c0.4,0,0.9,0,1.3,0c0-0.3,0.1-0.5,0.1-0.8C369.2,250.2,368.7,250.2,367.9,250.2
			z M336.8,253.2c0.4-0.3,0.5-0.5,0.5-1.3c0-0.1-0.1-0.1-0.1-0.2c-0.3-0.1-0.5-0.1-0.8-0.2c0.1,0.6-0.1,0.3-0.2,1.1
			C336.4,252.8,336.6,253,336.8,253.2z M365.4,251.8c0,0.2-0.1,0.5-0.1,0.7v0.1c0.3,0.1,0.6,0.3,0.9,0.4c0.1-0.2,0.2-0.4,0.3-0.6
			c0-0.2,0-0.4,0-0.6c-0.3,0-0.5-0.1-0.8-0.1C365.6,251.7,365.5,251.8,365.4,251.8z M370,254.6c0.2,0.3,0.3,0.4,0.8,0.5
			c0.2-0.2,0.5-0.3,0.7-0.5c0.2-0.3,0.1-0.2,0.1-0.6c-0.2-0.1-0.5-0.3-0.7-0.4c-0.2,0.2-0.3,0.2-0.7,0.3
			C370.1,254.1,370.1,254.4,370,254.6z M460.9,254.6c0-0.2-0.1-0.4-0.1-0.6c-0.2-0.1-0.4-0.2-0.6-0.3c-0.1,0-0.3,0-0.4,0
			c-0.3,0.6-0.3,0.9-0.2,1.7c0.2,0,0.4-0.1,0.6-0.1C460.7,255.1,460.6,255,460.9,254.6z M348.2,254.6c0.1-0.3,0-0.6-0.2-0.7
			c-0.2,0-0.4-0.1-0.6-0.1c-0.2,0.6-0.3,0.5-0.3,1.3c0.2,0.1,0.3,0.1,0.5,0.2C348.1,255.2,348.1,255.1,348.2,254.6z M456.4,255.3
			c-0.2,0.4-0.4,0.6-0.2,1.1c0,0.1,0,0.1,0,0.2c0.5,0,0.9-0.1,1.4-0.1c0.6,0.3,0.3,0.5,0.1,0.9c0.6,0.1,1,0.2,1.7,0.1
			c0.2-0.6,0-0.9-0.3-1.5C458,255.8,457.5,255.3,456.4,255.3z M504.2,257c0.1-0.4,0.2-0.9,0.3-1.3c-0.3,0-0.5,0.1-0.8,0.1
			c-0.1,0.1-0.3,0.3-0.4,0.4c0.1,0.3,0.3,0.5,0.4,0.8C503.9,257,504,257,504.2,257z M360.7,257.4c0.3-0.2,0.3-0.5,0.4-0.9
			c-0.3-0.3-0.6-0.3-1.3-0.3c-0.1,0-0.1,0.1-0.2,0.1c-0.1,0.4-0.1,0.7-0.2,1.1c0.1,0.1,0.2,0.2,0.3,0.3
			C360.2,257.7,360.4,257.6,360.7,257.4z M488.2,258c0.2,0.1,0.4,0.3,0.6,0.4c0.2-0.1,0.5-0.2,0.7-0.3c-0.1-0.8-0.1-1.2-0.7-1.4
			c-0.1,0.1-0.3,0.1-0.4,0.2C488.3,257.3,488.3,257.6,488.2,258z M384.3,259.2c0.7-0.1,0.9-0.4,1.1-0.9c0-0.2,0-0.3,0-0.5
			c-0.1,0-0.1,0-0.2,0c-0.2-0.1-0.5-0.1-0.7-0.2c-0.3,0.2-0.7,0.4-1,0.6c0,0.1,0.1,0.3,0.1,0.4C383.8,258.9,384,259,384.3,259.2z
			 M455.7,259.2c1,0,0.8-0.1,1.5,0.1c0.1-0.1,0.1-0.1,0.2-0.2c0-0.3,0-0.1,0.1-0.4v-0.1c-0.4,0.1-0.2-0.1-0.4,0.3
			c-0.1,0-0.2,0-0.3,0c0.2-0.3,0.3-0.6,0.5-0.9c-0.5-0.1-0.9-0.3-1.4-0.4C455.6,258.2,455.8,258.5,455.7,259.2
			C455.7,259.1,455.7,259.2,455.7,259.2z M371.1,258c-0.1,1,0.1,1.3,0.9,1.2c0.1-0.1,0.2-0.3,0.3-0.4c0-0.2-0.1-0.4-0.1-0.6
			c-0.2-0.3-0.2-0.3-0.8-0.3C371.3,257.9,371.2,258,371.1,258z M364.5,259.6C364.5,259.6,364.5,259.5,364.5,259.6
			c-0.4-0.5-0.6-0.4-0.8-1.1c-0.2,0-0.5,0-0.7,0c-0.2,0.3-0.4,0.7-0.4,1c0,0.1-0.1,0.2-0.1,0.3C363.3,260,363.6,259.7,364.5,259.6z
			 M458.7,258.7c-0.2,0-0.5-0.1-0.7-0.1c-0.2,0.1-0.3,0.3-0.5,0.4c0.1,1.3,1.1,1.4,1.7,2.3c0.2,0,0.3-0.1,0.5-0.1
			c0.1-0.2,0.3-0.3,0.4-0.5C460.1,260.2,459,259,458.7,258.7z M337.4,260.3c0.2,0,0.3-0.1,0.5-0.1c0.2-0.3,0.4-0.5,0.6-0.8
			c-0.2-0.3-0.2-0.2-0.3-0.6c-0.2,0-0.4-0.1-0.6-0.1C337,259.1,337,259.7,337.4,260.3z M390.8,260.4c-0.3-0.2-0.1,0-0.1-0.3
			c-0.3-0.1-0.3-0.1-0.5,0.1c0-0.2-0.1-0.5-0.1-0.7c-0.4-0.3-0.9-0.4-1.6-0.4c-0.3,0.2-0.6,0.5-0.9,0.7c0.2,0.5,0.4,0.7,0.9,0.9
			c0.4,0.3,1.4,0,2.2,0c-0.2,0.4-0.3,0.5-0.6,0.8c0.2,0.2,0.3,0.5,0.5,0.7c0.5,0,0.9,0.1,1.4,0.1c0.5-0.8,1-1.6,1.4-2.3
			c0-0.1-0.1-0.2-0.1-0.2s-0.1,0-0.1-0.1c-0.6-0.1-1.3-0.2-1.9-0.3C391.1,259.7,391,260.1,390.8,260.4z M502,259.1
			c-0.1,0.1-0.1,0.2-0.2,0.3c0.1,0.4,0.1,0.7,0.2,1.1c0.4-0.1,0.9-0.2,1.3-0.3c0-0.1,0.1-0.1,0.1-0.2c-0.1,0-0.3,0-0.4,0
			c0-0.2,0-0.5,0-0.7C502.7,259.2,502.3,259.2,502,259.1z M363.9,259.7c0.1,0.1,0.1,0.2,0.2,0.3h0.1
			C364,259.7,364.3,259.9,363.9,259.7z M507.3,262.5c0.1-0.6,0.1-2.2-0.8-2.4c-0.4,0.8-0.7,1.4-0.5,2.4c0.2,0.1,0.4,0.2,0.6,0.3
			C506.9,262.6,506.9,262.6,507.3,262.5z M456.3,260.2c-0.1,0.1-0.3,0.2-0.4,0.3c0,0.2-0.1,0.4-0.1,0.6c0.2,0.2,0.3,0.4,0.5,0.6
			c0.2,0,0.3-0.1,0.5-0.1c0.3-0.5,0.4-0.6,0.4-1.2C456.9,260.3,456.6,260.3,456.3,260.2z M348.2,261.9c0-0.4-0.1-0.8-0.1-1.2
			c-0.2,0-0.5-0.1-0.7-0.1c-0.2,0.4-0.3,0.7-0.5,1.1c0.2,0.4,0.4,0.5,0.8,0.7C347.9,262.2,348,262.1,348.2,261.9z M501.9,263.1
			c1.2,0.2,2,0.7,2.3,1.7c0.2,0,0.3-0.1,0.5-0.1c0.2-0.1,0.4-0.3,0.6-0.4c-0.3-1.1-2-2.6-3.3-2.7c-0.1,0.1-0.2,0.2-0.3,0.3
			C501.8,262.3,501.8,262.7,501.9,263.1z M474.7,262.4c-0.4-0.1-0.8-0.3-1.2-0.4c-0.2,0.5-0.4,0.9-0.6,1.4
			C474.3,263.7,474.5,263.5,474.7,262.4z M335.2,263.9c0-0.5,0.1-0.9,0.1-1.4c-0.4-0.1-0.8-0.2-1.2-0.3c-0.2,0.3-0.1,0.9-0.2,1.3
			c0.3,0.2,0.5,0.3,0.8,0.5C334.9,264,335,263.9,335.2,263.9z M359.8,264.5c0.3,0,0.6,0,0.9,0c0-0.3,0.1-0.5,0.1-0.8
			c-0.2-0.2-0.3-0.3-0.5-0.5c-0.2,0-0.4-0.1-0.6-0.1c-0.1,0-0.2,0.1-0.3,0.1c0,0.3,0,0.6,0,0.9c0,0.1,0.1,0.2,0.1,0.3
			C359.6,264.4,359.7,264.5,359.8,264.5z M363.5,264.7c0.1,0,0.1-0.1,0.2-0.1c0.1-0.4,0.2-0.8,0.3-1.2c-0.2-0.1-0.5-0.1-0.7-0.2
			c-0.3,0.1-0.6,0.3-0.9,0.4c0,0.3,0,0.6,0,0.9c0.1,0,0.1,0,0.2,0C362.9,264.6,363.2,264.6,363.5,264.7z M471.2,263.4
			c0,0.4,0.1,0.7,0.1,1.1c0.2,0.1,0.4,0.3,0.6,0.4c0.2-0.1,0.4-0.2,0.6-0.3c0.1-0.3,0.3-0.6,0.4-0.9v-0.1c-0.3-0.1-0.7-0.2-1-0.3
			C471.7,263.3,471.4,263.4,471.2,263.4z M380.2,264.6c0.1-0.3,0.2-0.6,0.3-0.9c-0.3-0.2-0.7-0.2-1.2-0.2c0,0.4,0,0.8,0,1.2
			c0.1,0,0.1,0.1,0.2,0.1C379.9,264.8,380,264.8,380.2,264.6z M453.8,264.4c-0.1,0.1-0.1,0.3-0.2,0.4c1,0.2,1,1,1.8,1.4
			c0.3,0.2,0.4,0.1,0.8,0c0.2-0.4,0.3-0.8,0.5-1.2c-0.2-0.3-0.2-0.2-0.2-0.5c-0.6-0.3-1.2-0.5-1.8-0.8
			C454.4,263.9,454,264.1,453.8,264.4z M336.6,264.1c-0.1,0.4-0.2,0.8-0.3,1.2c0.2,0.2,0.5,0.5,0.7,0.7c0.3-0.1,0.6-0.3,0.9-0.4
			c-0.2-0.6-0.2-0.8-0.4-1.4C337.2,264.2,336.9,264.1,336.6,264.1z M471.1,266.8c0-0.4,0-0.8,0-1.2c0-0.1-0.1-0.1-0.1-0.2
			c-0.3-0.1-0.7-0.2-1-0.3c-0.1,0.1-0.3,0.2-0.4,0.3c0,0.2-0.1,0.3-0.1,0.5c0.1,0.2,0.2,0.5,0.3,0.7
			C470.2,266.8,470.5,266.8,471.1,266.8z M500.3,265.9c-0.1-0.1-0.1-0.2-0.2-0.3c-0.2,0-0.4,0-0.6,0c-0.1,0.3,0,0.1-0.2,0.3
			c0.1,0.4,0.2,0.6,0.4,0.9c0.2-0.2,0.4-0.3,0.6-0.5C500.3,266.2,500.3,266,500.3,265.9z M472.5,265.8c0,0.1-0.1,0.1-0.1,0.2
			c0.1,0.4,0.1,0.9,0.2,1.3h0.1c0.2-0.1,0.5-0.2,0.7-0.3c0.1-0.1,0.2-0.3,0.3-0.4c0-0.2,0-0.5,0-0.7c-0.3-0.1-0.5-0.1-0.8-0.2
			C472.8,265.7,472.6,265.8,472.5,265.8z M380.1,266.8c-0.1-0.3-0.1-0.6-0.2-0.9c-0.2,0-0.5-0.1-0.7-0.1c-0.1,0.1-0.2,0.1-0.3,0.2
			c0,0.3-0.1,0.7-0.1,1c0.2,0.1,0.5,0.3,0.7,0.4C379.7,267.2,379.9,267,380.1,266.8z M503.9,267.7c0.4,0.2,0.7,0.3,1.1,0.5h0.1
			c0.1-0.2,0.2-0.4,0.3-0.6c-0.2-0.2-0.3-0.4-0.5-0.6c-0.2,0-0.4,0-0.6,0C504.1,267.3,504,267.3,503.9,267.7z M456.4,268.8
			c0.2,0.1,0.4,0.2,0.6,0.3c0.2-0.2,0.4-0.5,0.6-0.7c0-0.4-0.1-0.7-0.1-1.1c-0.2,0-0.5,0-0.7,0c-0.2,0.2-0.4,0.5-0.6,0.7
			C456.3,268.3,456.3,268.5,456.4,268.8z M359.9,268.8c0.2-0.1,0.4-0.3,0.6-0.4c-0.1-0.5-0.4-0.8-0.9-0.9c-0.1,0-0.3,0.1-0.4,0.1
			c-0.3,0.4-0.4,0.4-0.5,1c0.1,0,0.1,0,0.2,0C359.2,268.7,359.6,268.7,359.9,268.8z M469.7,269.6c0.4,0,2.2-0.4,2.8-0.7
			c0.2-0.2,0.3-0.3,0.5-0.5c-0.1-0.4,0-0.3-0.2-0.5c-0.3-0.1-0.6-0.1-0.9-0.2c-0.8,0.6-1.8,0.4-2.4,1.2
			C469.6,269.1,469.6,269.4,469.7,269.6z M386.2,269.7c0.1,0,0.3,0,0.4,0c0.3-0.5,0.3-0.8,0.3-1.5c-0.3,0-0.6-0.1-0.9-0.1
			c-0.1,0.1-0.1,0.3-0.2,0.4C385.5,269.1,385.9,269.4,386.2,269.7z M347.3,269.3c0.1,0.2,0.2,0.3,0.3,0.5c0.8-0.1,0.9-0.3,1.6-0.4
			c0-0.1,0.1-0.1,0.1-0.2c-0.3-0.3-0.6-0.5-0.9-0.8c-0.2,0-0.4-0.1-0.6-0.1C347.4,268.6,347.3,268.6,347.3,269.3z M333,270.6
			c0.4,0.2,0.8,0.2,1.2,0c0.1,0,0.1,0,0.2,0c0-0.4-0.2-0.5,0-1v-0.1c-0.4,0-0.7-0.1-1.1-0.1c-0.2,0-0.3,0.1-0.5,0.1
			c0,0.1-0.1,0.1-0.1,0.2c0,0.3,0.1,0.6,0.1,0.9C332.9,270.6,332.9,270.6,333,270.6z M360.8,270.6c0.6,1,2.1-0.5,0.9-0.8
			c-0.2,0.1-0.3,0.1-0.5,0.2c-0.1,0-0.2,0.1-0.3,0.1C360.9,270.3,360.8,270.4,360.8,270.6z M468.7,270.3c-0.1,0.2-0.2,0.3-0.3,0.5
			c0,0.3-0.1,0.6-0.1,0.9c0.1,0.1,0.1,0.1,0.2,0.2c0.3-0.1,0.7-0.2,1-0.3c0.2-0.2,0.4-0.4,0.6-0.6c-0.1-0.2-0.1-0.3-0.3-0.5
			C469.5,270.3,469.2,270.3,468.7,270.3z M347,272.8c0.2-0.2,0.2-0.5,0.3-0.8c-0.2-0.4-0.3-0.6-0.7-0.8c-0.4,0.3-0.6,0.5-0.9,1
			c0,0.2,0,0.4,0,0.6c0.1,0.1,0.2,0.2,0.3,0.3C346.3,273,346.7,272.9,347,272.8z M499,273c0.2-0.5,0.3-0.7,0.2-1.4
			c-0.1,0-0.3,0-0.4,0c-0.4,0.4-0.5,0.5-0.5,1.4c0.2,0,0.3,0.1,0.5,0.1C498.9,273.1,498.9,273,499,273z M452.3,272.5
			c-0.3-0.1-0.5-0.1-0.8-0.2c-0.3,0.4-0.4,0.8-0.6,1.3c0,0.1,0,0.2,0,0.3c0.7,0,0.9,0,1.5-0.1C452.5,273.4,452.4,272.9,452.3,272.5z
			 M501.3,273.8c-0.3,0-0.6-0.1-0.9-0.1c0,0.4,0,0.7,0,1.1c0.1,0.1,0.1,0.1,0.2,0.2c0.6-0.1,0.6-0.1,0.9-0.4
			C501.4,274.3,501.4,274.1,501.3,273.8z M450.5,274.1c0.1,0.1,0.1,0.1,0.2,0.2h0.1C450.6,274.1,450.8,274.2,450.5,274.1z
			 M333.9,275c0,0.3,0,0.5,0,0.8c0.2,0.1,0.3,0.2,0.5,0.3c0.4,0.2,1.3,0.1,1.6-0.2c0.4-0.2,0.5-0.6,0.5-1.2
			c-0.7-0.1-1.4-0.3-2.1-0.4C334.2,274.5,334.1,274.8,333.9,275z M347.8,274.7c0,1.2,0.8,1.5,1.6,1.9c0.6-0.2,0.6-0.5,0.9-0.8
			c0-0.1,0-0.3,0-0.4c-0.7-0.5-1.1-1.1-2.3-1.1C347.9,274.4,347.9,274.6,347.8,274.7z M332.1,276.2c0.1-0.4,0.2-0.9,0.3-1.3v-0.1
			c-0.3,0-0.7-0.1-1-0.1c-0.1,0.1-0.3,0.1-0.4,0.2c-0.1,0.3-0.2,0.6-0.3,0.9c0.2,0.2,0.3,0.3,0.5,0.5
			C331.5,276.3,331.8,276.2,332.1,276.2z M467.8,277c0.2-0.2,0.3-0.3,0.4-0.5c0-0.2,0-0.4,0-0.6c-0.5-0.1-0.9-0.2-1.4-0.3
			c-0.1,0.2-0.3,0.3-0.4,0.5c0.1,0.3,0.2,0.7,0.4,0.9c0,0.1,0.1,0.2,0.1,0.3C467.2,277.2,467.5,277.1,467.8,277z M449.5,276.1
			c-0.2,0.2-0.5,0.3-0.7,0.5c-0.4,0.6-0.3,0.5-0.1,1.3c0.3,0.2,0.5,0.2,0.9,0.1c0-0.2,0.1-0.5,0.1-0.7c0.5-0.4,0.3-0.5,0.4-1.1
			C449.9,276.2,449.7,276.1,449.5,276.1z M497.4,277.1c0,0.1-0.1,0.3-0.1,0.4c0.2,0.2,0.2,0.3,0.4,0.5c0.4,0,0.7,0,1.1,0
			c0.1-0.2,0.2-0.4,0.3-0.7v-0.1c-0.4-0.3-0.7-0.4-1.5-0.4C497.5,276.9,497.5,277,497.4,277.1z M465.6,278.4
			c-0.1-0.4-0.1-0.7-0.2-1.1c-0.3,0-0.5-0.1-0.8-0.1c-0.2,0.2,0,0.1-0.3,0.2c0,0.7,0,0.9,0.3,1.4c0.2,0,0.4,0.1,0.6,0.1
			C465.3,278.7,465.5,278.6,465.6,278.4z M333.8,277.5c-0.3,0.3-0.6,0.6-0.9,0.9c0.1,0.4,0.1,0.8,0.2,1.2c0.3,0.1,0.5,0.1,0.8,0.2
			c0.1-0.1,0.3-0.1,0.4-0.2C334.9,279.1,335,277.5,333.8,277.5z M347.8,278c-0.2,0-0.4,0-0.6,0c-0.3,0.2-0.6,0.3-1.1,0.3
			c-0.1,0.2-0.1,0.4-0.2,0.6c0.1,0.3,0.2,0.7,0.3,1c0.5,0.1,1,0.2,1.5,0.3c0.4-0.3,0.6-0.6,0.8-0.9c0.3,0.1,0.2,0.1,0.4-0.1
			C348.3,278.8,348.1,278.7,347.8,278z M460,280.6c0.1,0.3,0.2,0.5,0.3,0.8c0.1,0.1,0.1,0.2,0.2,0.3c0.4-0.1,0.8-0.1,1.2-0.2
			c0.2-0.4,0.3-0.8,0.4-1.1v-0.1c-0.4-0.1-0.8-0.1-1.2-0.2C460.6,280.3,460.3,280.4,460,280.6z M494.2,280.6c-0.3-0.1-0.7-0.2-1-0.3
			c-0.1,0.3-0.3,0.6-0.4,0.9c0.2,0.2,0.3,0.3,0.5,0.5c0.3-0.2,0.6-0.3,0.9-0.5C494.2,281,494.2,280.8,494.2,280.6z M496.1,282.1
			c0,0.1,0.1,0.1,0.1,0.2c1.1,0.7,1.4-0.2,2.8-0.3c-0.3-0.5-1.6-1.2-2.2-1.3C496.5,281.2,496.2,281.4,496.1,282.1z M345.9,281.7
			c0,0.3,0,0.5,0,0.8c0.2,0.4,0.5,0.4,1.1,0.4c0.1,0,0.1-0.1,0.2-0.1c0.1-0.5,0.1-1.1,0.2-1.6c-0.2-0.1-0.3-0.2-0.5-0.3
			C346.6,281.4,346.5,281.5,345.9,281.7z M461.8,283.9c0.3,0.6,0.5,0.7,1.2,0.5c0.2-0.5,0-0.8,0-1.2c-0.3,0-0.6-0.1-0.9-0.1
			C462,283.4,461.9,283.6,461.8,283.9z M350.4,286.1c0,0.1,0,0.2,0,0.3c0.1,0,0.2,0,0.3,0C350.5,286.1,350.8,286.3,350.4,286.1z
			 M458.4,286.8c-0.3-0.5-0.2-0.6-0.9-0.7c-0.3,0.4-0.4,0.7-0.9,0.9c0.4,0.2,0.9,0.5,1.3,0.7l0.1-0.1
			C458.1,287.3,458.3,287.1,458.4,286.8z M492.5,287.9c0.1,0.2,0.3,0.4,0.4,0.6c0.2,0,0.4,0,0.6,0c0.1-0.3,0.2-0.3,0.2-0.8
			c-0.4-0.2-0.4-0.3-1-0.4C492.6,287.5,492.6,287.7,492.5,287.9z M332.3,289.8c0.1-0.4,0.1-0.7,0.2-1.1c-0.2-0.3-0.5-0.5-0.7-0.8
			c-0.3,0-0.5,0-0.8,0c-0.4,0.6-0.6,1.1-0.8,2C330.9,290.5,331.6,289.9,332.3,289.8z M474.7,288.3c-0.5,0.4-1.5,0.1-2.7,0.1
			c0.1,0.4,0.2,0.8,0.3,1.2c0.2,0.1,0.4,0.1,0.6,0.2c0.3-0.3,0.5-0.5,0.6-1c0.3,0.1,0.6,0.1,0.9,0.2c0,0.4,0,0.2-0.1,0.5
			c0.4,0.2,0.7,0.2,1.2,0.1C476.5,289.1,475.6,288.3,474.7,288.3z M391.3,288.9c-0.4,0.4-0.3,0.8-0.5,1.3c0.7,0.4,0.9,0.8,1.7,0.7
			C392.6,290,392.5,288.9,391.3,288.9z M440.4,290.8c-0.1-0.2-0.2-0.4-0.4-0.6c-0.2-0.2-0.4-0.2-0.8-0.2c-0.2,0.6-0.2,0.7-0.2,1.5
			c0.2,0.1,0.3,0.1,0.5,0.2C439.8,291.4,440.1,291.1,440.4,290.8z M451.8,291.8c0.2,0,0.3,0.1,0.5,0.1c0.1-0.4,0.2-0.8,0.3-1.2
			c-0.3-0.4-0.4-0.4-1-0.5c-0.3,0.2-0.5,0.3-0.8,0.5C451,290.9,451.4,291.6,451.8,291.8z M330.6,291.5c0.1-0.4-0.1-0.5-0.5-0.6
			c-0.3,0.1-0.7,0.1-1,0.2c-0.1,0.1-0.2,0.2-0.3,0.3c0.2,0.5,0.2,0.8,0.6,1.1c0.2,0,0.4,0.1,0.6,0.1c0.3-0.3,0.5-0.5,0.7-0.9
			C330.7,291.6,330.6,291.6,330.6,291.5z M488.7,292.2c0.1-0.2,0.2-0.5,0.3-0.7c-0.3-0.3-0.7-0.4-1.4-0.4c-0.3,0.2-0.3,0.2-0.5,0.6
			C487.6,292.3,487.8,292.4,488.7,292.2z M411.4,291.7c-0.3,0-0.5-0.1-0.8-0.1c-0.3,0.5-0.5,0.9-0.2,1.5c0.3,0.4,0.3,0.3,0.8,0.2
			c0.1-0.1,0.1-0.3,0.2-0.4c0.2-0.3,0.2-0.3,0.1-0.7C411.6,291.9,411.6,292,411.4,291.7z M420,294.1c0.1,0.1,0.1,0.3,0.2,0.4
			c0.2,0,0.5,0.1,0.7,0.1c0.1-0.6,0.2-1.2,0.3-1.8v-0.1c-0.3-0.1-0.6-0.1-0.9-0.2c-0.2,0.1-0.3,0.2-0.5,0.3
			C419.9,293.3,419.7,293.5,420,294.1z M474,293.3c-0.1,0.1-0.3,0.2-0.4,0.3c-0.1,0.2-0.1,0.4-0.2,0.6c0.2,0.4,0.3,0.6,0.7,0.8
			c0.5,0.2,1-0.1,1.2-0.5C474.9,294,474.7,293.5,474,293.3z M436.6,296c0.4-0.2,0.4-0.5,0.6-0.9c-0.1-0.2-0.2-0.5-0.3-0.7
			c-0.3-0.1-0.3-0.2-0.8-0.2c-0.1,0.1-0.3,0.3-0.4,0.4c0,0.8,0,1.2,0.6,1.4C436.4,296,436.5,296,436.6,296z M487,297.1
			c-0.1-0.7-0.4-0.7-1-0.8c-0.1,0-0.1,0.1-0.2,0.1c0,0.6,0.1,0.6,0.3,1c0.2,0,0.4,0.1,0.6,0.1C486.8,297.4,486.9,297.2,487,297.1z
			 M427.9,299.7c0.1,0,0.3,0,0.4,0c0.3-1.2-0.6-1.9-1.7-2c0.1,0.1,0.1,0.2,0.2,0.3c-0.1,0.4-0.2,0.7-0.3,1.1
			C427,299.3,427.3,299.5,427.9,299.7z M471.7,299.3c0.2,0.5,0.2,0.7,0.9,0.7c0.4-0.3,0.6-0.6,0.7-1.2c-0.3-0.2-0.5-0.4-0.8-0.6
			c-0.3,0.3-0.5,0.5-0.8,0.8C471.7,299.1,471.7,299.2,471.7,299.3z M472.7,301.3h0.1c-0.2-0.4,0.1-0.1-0.3-0.3
			C472.6,301.1,472.6,301.2,472.7,301.3z M397,302.4c-0.1-0.1-0.2-0.3-0.3-0.4c-0.2-0.2-0.4-0.2-0.9-0.2c-0.2,0.2-0.3,0.5-0.5,0.7
			c0.2,0.3,0.5,0.7,0.7,1c0.1,0,0.3-0.1,0.4-0.1C396.8,303.2,396.8,302.9,397,302.4z M469.5,304.1c0-0.2,0-0.3,0-0.5
			c-0.4-0.3-0.8-0.4-1.4-0.5c-0.2,0.1-0.5,0.3-0.7,0.4c0.2,0.4,0.5,0.7,0.8,1.2C469,304.7,469.1,304.5,469.5,304.1z M407.1,303.4
			c-0.4,0.3-0.5,0.6-0.8,1c0.2,0.2,0.5,0.5,0.7,0.7c0.1,0,0.3,0.1,0.4,0.1c0.2-0.1,0.4-0.3,0.6-0.4c0-0.3-0.1-0.6-0.1-0.9
			C407.7,303.6,407.5,303.5,407.1,303.4z M427.9,308.4c0.8,0.3,1.3,0,1.5-0.6c0.2-0.3,0.1-0.5,0.1-0.8c-0.3-0.3-0.3-0.4-0.9-0.4
			c-0.3,0.3-0.5,0.5-0.9,0.7C427.8,307.7,427.8,308,427.9,308.4z M452.7,308.4c-0.3-0.5-0.4-0.9-1.2-1.1c-0.2,0.4-0.5,0.8-0.8,1
			c0,0.1,0,0.2,0,0.3c0.2,0.2,0.4,0.3,0.6,0.5c0.4-0.2,0.9-0.3,1.3-0.5C452.6,308.5,452.7,308.5,452.7,308.4z M488.5,311
			c-0.1,0.1-0.3,0.3-0.4,0.4c-0.2,0.2-0.1,0.6-0.2,1c0.1,0.1,0.3,0.2,0.4,0.3c0.4-0.1,0.7-0.2,1.1-0.3c0.2-0.3,0.3-0.4,0.3-1
			c0-0.1-0.1-0.1-0.1-0.2C489.2,311.1,488.9,311.1,488.5,311z M491.9,312.7c0.1-0.1,0.3-0.2,0.4-0.3c0.1-0.1,0.2-0.3,0.3-0.4
			c0-0.3,0-0.5,0-0.8c-0.4,0-0.9-0.1-1.3-0.1c-0.1,0.1-0.3,0.1-0.4,0.2c0.1,0.4,0.3,0.9,0.4,1.3
			C491.5,312.6,491.7,312.7,491.9,312.7z M406.4,312.5c0.2,0.3,0.3,0.3,0.7,0.5c0.7,0,0.7-0.1,1.1-0.4c0-0.3,0-0.7,0-1
			c-0.1-0.1-0.3-0.1-0.4-0.2c-0.3,0-0.6-0.1-0.9-0.1C406.6,311.6,406.5,312,406.4,312.5z M449.5,312.1c-0.2-0.3-0.2-0.3-0.7-0.4
			c-0.1,0.1-0.2,0.1-0.3,0.2c-0.1,0.5-0.1,0.9-0.2,1.4c0.3,0,0.6,0.1,0.9,0.1c0.1,0,0.1-0.1,0.2-0.1
			C449.8,312.8,450,312.7,449.5,312.1z M488.5,314.6c0.1,0.1,0.1,0.1,0.2,0.2c1-0.1,1.9-0.4,2-1.4c0-0.1,0.1-0.3,0.1-0.4
			c-0.3-0.2-0.4-0.3-1-0.3c-0.4,0.5-1.1,0.5-1.5,1C488.4,314,488.4,314.3,488.5,314.6z M420.2,315.2c0.2,0.1,0.4,0.1,0.6,0.2
			c0.2-0.1,0.5-0.2,0.7-0.3c0-0.4-0.3-0.8-0.2-1.3c-0.4-0.6-0.9-0.7-1.9-0.7c-0.1,0.4-0.1,0.5,0.2,0.7c-0.2,0.1-0.3,0.2-0.5,0.3
			C419.5,314.5,419.8,314.8,420.2,315.2z M434.9,313.6c-0.2-0.3-0.6-0.3-1-0.4c-0.3,0.5-0.4,1.1-0.3,1.7
			C434.7,315.2,435.6,314.7,434.9,313.6z M484.4,314.4c0-0.1-0.1-0.2-0.1-0.3c-0.2,0-0.4,0-0.6,0c-0.7,0.7-1.5,0.4-0.9,1.7
			c0.2,0,0.4,0.1,0.6,0.1C483.7,315.4,484.1,314.9,484.4,314.4z M487.2,314.7c0-0.1-0.1-0.1-0.1-0.2c-0.4,0-0.8-0.1-1.2-0.1
			c-0.2,0.6-0.3,1.1-0.6,1.5c0.1,0.3,0.1,0.7,0.2,1c0.2,0,0.4,0.1,0.6,0.1C486.6,316.3,486.8,315.5,487.2,314.7z M482.7,318.2
			c0.6-0.1,1.3-0.3,1.9-0.4c0.2-0.4,0.2-0.6,0.3-1c-0.1-0.1-0.2-0.2-0.3-0.3c-0.3,0-0.6-0.1-0.9-0.1c-0.5,0.3-1.1,0.3-1.5,0.7
			C482.4,317.5,482.5,317.8,482.7,318.2z M353.8,318.2c0.2,0.5,0.3,0.9,0.5,1.4c0.2,0.1,0.4,0.1,0.6,0.2c0.1,0,0.1-0.1,0.2-0.1
			c0-0.3,0.1-0.6,0.1-0.9c-0.1-0.2-0.2-0.3-0.3-0.5c-0.3-0.1-0.6-0.1-0.9-0.2C353.9,318.1,353.9,318.2,353.8,318.2z M484.7,321.6
			c-0.4-0.1-0.8-0.2-1.2-0.3c-0.2,0.1-0.4,0.2-0.6,0.3c0.1,0.4,0.1,0.8,0.2,1.2c0.7,0.5,1.6,0.4,1.5-0.8c0.4,0,0.8-0.1,1.2-0.1
			c0.2-0.4,0.3-0.7,0.5-1.1c-0.7-0.7-1.2-0.5-1.8,0.1C484.5,321.3,484.5,321.2,484.7,321.6z M363.8,324.5c0.2-0.4,0.1-0.8,0.1-1
			c-0.2-0.1-0.8-0.2-1.3-0.3c-0.2,0-0.3,0.1-0.5,0.1c-0.1,0.2-0.3,0.3-0.4,0.5c0.1,0.3,0.1,0.7,0.2,1c0.2,0.1,0.4,0.3,0.6,0.4
			C363,325.2,363.7,324.7,363.8,324.5z M478.6,327.9c0.7-1.5-0.6-1-1.4-1.5c-0.2-0.3-0.3-0.5-0.5-0.8c-0.1,0-0.2,0-0.3,0
			c-0.2,0.4-0.4,1-0.2,1.7c1,0.1,1,0.3,1.8,0.8C478.2,328,478.4,328,478.6,327.9z M362,325.8c-0.1,0.5-0.1,1-0.2,1.5
			c0.3,0.2,0.5,0.1,1,0.1c0.2-0.2,0.4-0.3,0.6-0.5c0-0.8-0.2-1-0.8-1.2C362.4,325.7,362.2,325.8,362,325.8z M350.3,326.9
			c-0.3-0.1-0.6-0.2-0.9-0.3c-0.1,0.1-0.3,0.3-0.4,0.4c0.1,0.4,0.1,0.7,0.2,1.1c0.1,0,0.2,0.1,0.3,0.1c0.7-0.1,0.8-0.3,1.3-0.5
			C350.7,327.3,350.6,327.1,350.3,326.9z M351.9,329.1c-0.4,0.4-0.5,0.6-0.5,1.5c0.3,0.1,0.5,0.3,0.8,0.4c0.7-0.1,0.9-0.7,1.1-1.2
			c-0.1-0.2-0.2-0.4-0.3-0.6C352.6,329.2,352.3,329.1,351.9,329.1z M476.6,331.3c0.3,0,0.5,0.1,0.8,0.1c0.2-0.3,0.3-0.6,0.3-1
			c0-0.1,0-0.1,0-0.2c-0.4-0.1-0.7-0.1-1.1-0.2c-0.1,0-0.1,0.1-0.2,0.1C476.5,330.5,476.5,330.9,476.6,331.3z M345.5,331.1
			c-0.2,0.3-0.2,0.7,0,1.2c1.4,0.3,1.5-0.3,2.5-0.7c0-0.3,0-0.7,0-1c-0.4-0.1-0.7-0.1-1.1-0.2C346.4,330.6,346,330.9,345.5,331.1z
			 M468.5,331.5c0,0.7,0.2,0.8,0.5,1.2c0.1,0,0.2-0.1,0.3-0.1c0.5-0.3,0.7-1.1,0.9-1.7c-0.3-0.2-0.2-0.2-0.6-0.3
			C469.2,330.9,468.9,331.2,468.5,331.5z M372.3,330.9c-0.1,0.2-0.2,0.4-0.3,0.6c0.1,0.2,0.1,0.3,0.3,0.5c0.5,0.4,1.1,0.1,1.2-0.5
			c-0.2-0.2-0.3-0.3-0.5-0.5C372.8,331,372.5,330.9,372.3,330.9z M474.1,332.4c-0.3-0.3-0.7-0.7-1-1c-0.2,0-0.3-0.1-0.5-0.1
			c-0.1,0.2-0.3,0.3-0.4,0.5c-0.2,0.2-0.2,0.1-0.3,0.5c0.4,0.1,0.2,0,0.4,0.3c0.6,0.2,1.2-0.2,2,0c0.4,0.3,0.4,0.6,0.7,1
			c0,0.1,0,0.1,0,0.2c1.2,0,0.8-0.5,0.9-1.1C475.2,332,474.9,332.7,474.1,332.4z M356.7,331.7c-0.4,0-0.7-0.1-1.1-0.1
			c-0.5,0.4-1.1,1.2-1.9,1.2c-0.1,0.2-0.3,0.5-0.4,0.7c0,0.9,0.3,1,1,1.2c1.1-0.7,2-1.5,2.4-2.9
			C356.7,331.8,356.7,331.7,356.7,331.7z M376.4,332.9c-0.3,0-0.5-0.1-0.8-0.1c-0.1,0-0.2,0.1-0.3,0.1c-0.1,0.5-0.1,1-0.2,1.5
			c0.9,0.2,1.2,0.5,1.8,0.9c0.2,0,0.5,0,0.7,0c0.1-0.2,0.3-0.5,0.4-0.7c0-0.3-0.1-0.5-0.1-0.8C377.4,333.5,376.9,333.2,376.4,332.9z
			 M369.9,333.2c-0.3,0.5-0.3,1.2-0.2,1.8c0.8,0.2,1.7,0.4,2.5,0.6c0.1-0.2,0.2-0.3,0.3-0.5c0-0.3,0.1-0.7,0.1-1
			c-0.7-0.4-1.2-0.8-1.9-1.1C370.4,333.1,370.2,333.1,369.9,333.2z M350.6,333.9c0.1,1.3,0.9,1.9,1.8,2.3c0.2,0,0.3,0,0.5,0
			c0-0.1,0.1-0.1,0.1-0.2c-0.2-0.9-0.8-1.9-1.4-2.3c-0.2,0-0.5-0.1-0.7-0.1C350.8,333.7,350.7,333.8,350.6,333.9z M471.3,335.1
			c-0.1,0.4-0.1,0.6,0.1,0.9c0,0.1,0.1,0.2,0.1,0.3c0.4,0,0.4,0,0.6-0.2c0.8-0.4,0.8-1.4-0.4-1.4C471.6,334.8,471.4,335,471.3,335.1
			z M469.1,337.2c0,0.2,0,0.3,0,0.5c0.2,0.1,0.4,0.3,0.6,0.4c0.2-0.1,0.4-0.1,0.6-0.2c0.1-0.3,0.1-0.5,0.2-0.8
			c-0.3-0.4-0.2-0.5-0.9-0.6C469.4,336.7,469.3,337,469.1,337.2z M460.1,339.6c0.1-0.1,0.1-0.1,0.2-0.2c-0.2-0.2-0.4-0.3-0.6-0.5
			c-0.3,0-0.5-0.1-0.8-0.1c-0.1,0.1-0.3,0.1-0.4,0.2c0,0.4,0.1,0.8,0.1,1.2v0.1C459.4,340.4,459.8,340.2,460.1,339.6z M372.5,339.3
			c-0.3,0.6-0.4,1.9,0.9,1.7c0.5-0.4,0.6-0.7,0.8-1.5c-0.4-0.3-0.7-0.4-1.4-0.4C372.7,339.2,372.6,339.2,372.5,339.3z M355.3,344.5
			c0.3-0.1,0.4-0.2,0.6-0.4c0.1-0.4,0.3-0.7,0.4-1.1c0-0.3,0-0.6,0-0.9c-0.5-0.1-1-0.1-1.5-0.2c0.1-0.4,0.2-0.6-0.1-0.9
			c-0.3-0.2-0.7-0.2-1.3-0.2c-0.2,0-0.3,0.1-0.5,0.1c0.1,0.4,0.3,0.8,0.4,1.2c0.3,0.1,1,0.3,1.2,0.5c0.2,0.1,0,1.1-0.2,1.5
			C354.6,344.2,355,344.4,355.3,344.5z M377.1,343.5c0,0.1-0.1,0.2-0.1,0.3c0.2,0.3,0.3,0.7,0.5,1c1.3,0.4,1.2-0.8,1.7-1.4v-0.1
			c-0.5-0.1-1.1-0.1-1.6-0.2C377.4,343.2,377.3,343.4,377.1,343.5z M362.8,345.9c-0.2-0.4-0.3-0.7-0.5-1.1c-0.3-0.3-0.6-0.3-1.2-0.3
			c-0.1,0.1-0.2,0.1-0.3,0.2c0,0.4-0.1,0.9-0.1,1.3C361.5,346.3,362,346,362.8,345.9z M360.3,349.4c0.3,0.1,0.6,0.1,0.9,0.2
			c0.2-0.1,0.5-0.3,0.7-0.4c0-0.3,0-0.7,0-1c-0.4-0.1-0.7-0.2-1.1-0.3c-0.2,0.2-0.5,0.5-0.7,0.7
			C360.2,348.9,360.2,349.1,360.3,349.4z M362.1,353.7c0.1-0.7,0.3-1.5,0.4-2.2c-0.2-0.1-0.5-0.1-0.7-0.2c-0.8,0.4-1.6,0.5-1.8,1.4
			C360.8,353,361.1,353.4,362.1,353.7z M407,394.1c-0.1,0.1-0.1,0.1-0.2,0.2c0.1,0.5,0.2,1,0.3,1.5c1,0.3,1.5,0,2.2-0.4
			c0-0.4,0-0.8,0-1.2c-0.6-0.1-1.3-0.1-1.9-0.2C407.3,394,407.1,394.1,407,394.1z"/>
	</g>
</g>
</svg>
