<?xml version="1.0" encoding="utf-8"?>
<!-- Generator: Adobe Illustrator 21.0.0, SVG Export Plug-In . SVG Version: 6.00 Build 0)  -->
<svg version="1.1" id="Calque_1" xmlns="http://www.w3.org/2000/svg" xmlns:xlink="http://www.w3.org/1999/xlink" x="0px" y="0px"
	 viewBox="0 0 841.9 595.3" style="enable-background:new 0 0 841.9 595.3;" xml:space="preserve">
<style type="text/css">
	.st0{fill:#1D1D1B;}
	.st1{fill:#DADADA;}
</style>
<g>
	<g>
		<path class="st0" d="M501.3,334.3c-0.9-4-1.6-8.4-2.9-12.6c-0.8-2.6-2.1-5.1-3-7.5c-7.7-21.3-18.6-39.7-36.6-50.9
			c-1.5-0.6-3-1.3-4.5-1.9c-2.7-1.4-6-3.1-9.1-4.1c-2.8-0.9-5.9-1.1-8.3-2.5c-0.4-0.2-0.4-0.4-0.5-0.9c2.4-3.1,6.1-5.4,8.4-8.8
			c1.9-2.9,4-6.1,5.5-9.3c0.5-1.8,1.1-3.5,1.6-5.3c0.5-1.1,2-0.8,2.4-2.4c1.3,0.9,1.3,1.5,3.4,1.3c0.2,0.5,0.3,0.8,0.8,1.1
			c0.8,0.3,1.3-0.2,2,0c1,0.3,0.9,1.1,2.6,1.1c0.3,1,0.2,1.3,1.1,1.7c1.3,0,1.8-0.6,2.4-1.4c2.2,0.4,4.2,2.5,5.6,3.9
			c3.3,3.1,9.5,7.3,11.3,11.6c0.2,0,0.4,0,0.6,0c0.1-0.2,0.2-0.4,0.3-0.5c-1.7-3.9-8.2-9-11.5-11.7c-1.7-1.4-3.2-3.4-5.3-4.5
			c0-0.3-0.1-0.6-0.1-0.9c0.1,0,0.1-0.1,0.2-0.1c3.2,0.7,10.5,6.7,13.1,8.8c1.2,1,3.1,3.2,4.8,3.4c0.1-0.1,0.2-0.3,0.3-0.4
			c0-0.2-0.1-0.4-0.1-0.6c-3.9-1.8-8.1-5.6-11.5-8.3c-1.3-1-2.4-2.5-4-3.1c-0.1-0.1-0.2-0.3-0.3-0.4c3.7,2.1,7.4,4.3,11.2,6.4
			c1.3,0.8,2.2,2,4.1,2c0.1-0.1,0.2-0.3,0.3-0.4c-0.1-0.2-0.1-0.4-0.2-0.5c-1-1.5-3.3-1.4-4.7-2.4c-4.2-2.8-8.4-5.2-12.2-8.3
			c0.1-0.2,0.2-0.4,0.3-0.5c0.1-0.1,0.2-0.1,0.3-0.2c2.4,2.1,5.7,3.2,8.5,4.9c3,1.8,6,3.8,9.4,5c0.2,0,0.4-0.1,0.5-0.1
			c0-1.6-2.4-2.7-4-3c-4.6-0.9-8.1-5.4-12.3-7.1c0-0.1-0.1-0.1-0.1-0.2c0-0.1,0.1-0.1,0.1-0.2c3.2,0.4,5.7,2,8.3,3
			c3.2,1.3,5.9,1.7,9.1,2.9c1.2,0.5,1.8,1.5,3.3,1.5c0.1,0,0.1-0.1,0.2-0.1c0.1-0.4,0.1-0.5-0.1-0.9c-1.5-1.9-4.5-1.6-7-2.6
			c-2.6-1-5.3-2.1-7.9-3.1c-1.8-1-4-2.3-6.5-2.6v-0.1c1.7-0.6,4.3,0.5,5.6,0.9c3.6,0.9,7.2,1.6,11.2,2.7c0.8,0.2,1.6,0.6,2.4,0.5
			c0.1-0.3,0.2-0.6,0.3-1c-0.1-0.1-0.1-0.2-0.2-0.3c-2.2-0.4-4.4-0.8-6.5-1.2c-2.5-0.7-5.4-2.3-8.3-2.5v-0.1
			c3.6-0.3,8.5-0.5,12.1-1.3c0.2-0.4,0.3-0.5,0.3-1.2c-0.1-0.1-0.2-0.1-0.3-0.2c-1.2-0.5-2.8,1.2-4.3,1c-1.7-0.3-4.3,0.2-6.2,0.3
			c-1.8-0.2-3.6-0.4-5.4-0.6c-0.4-1-2.6-4.1-4-1.8c-0.1,0.1-0.3,0.2-0.4,0.3c-0.5-1.7-0.8-2-2-2.9c-1.1,0.1-1.6,0.2-2.3,1h-0.1
			c-0.3-1-0.7-2-1.1-2.8c-1.4-0.3-2.4-0.1-3,1c-1.2-0.5-1.4-2-2.9-2.6c-1,0.1-1.3,0.6-2,1c-0.6-0.7-1.1-0.9-2.1-1.3
			c-1,0.2-1.5,0.5-1.9,1.6c-1.3-0.6-3.6-4.6-4.8-5.8c-4-4.1-9.6-6-14.7-8.9c-1.3-0.8-5.8-1.7-7.1-0.8c-0.8,0.6-2,5.2-2.5,6.4
			c0.1,0.2,0.1,0.4,0.2,0.5c2,0.7,4.7,0.4,7,1.1c7.4,2.3,15.9,7,20.9,11.8c0.4,0.2,0.8,0.4,1.2,0.6c1.3,1.7-0.3,4.8,0.1,7.3
			c0.3,1.4,1,2.6,0.9,4.1c0,0.5-0.9,3.4-0.9,3.4c-1.9,9.3-14.1,21.7-22.2,25.4c-2.1,1-3.8,2.8-6.2,3.4c-1.8,0.1-3.5,0.2-5.3,0.3
			c-4.4,0.8-9.4-0.1-13.5-1.2c-1.1-0.1-2.1-0.2-3.2-0.3c-2.1-0.6-4.4-1.8-6.4-2.4c-1.3-0.3-2.6-0.6-4-1c-3.4-1.9-7.6-3.2-10.7-5.5
			c-6.5-4.7-11.7-11-15.9-17.9c-1.1-2-2.1-4-3.2-6c0-0.8,0-1.6,0-2.4c-0.3-1.2-0.5-2.6-1.1-3.5c4.3-3.1,8.9-4.5,14.3-6.7
			c9.7-4,21-6.8,31.4-9.4c3.9-1,8-1.1,12-1.4c1.2,0,2.4,0.1,3.7,0.1c0.6-2.6,2-5.3,2.3-7.7c-6.2-1.2-12.9-1.7-19.3-1.8
			c-3,0.3-6.1,0.6-9.1,1c-5.7,1.4-11.4,2.6-16.3,4.9c-5.9,2.7-10.7,7.1-15.8,10.7c-1.1,0.9-2.2,1.9-3.3,2.8c-1,0.6-1.9-0.2-3.2,0.3
			c-0.6,0.2-0.6,0.9-1.2,1.2c-0.4,0.2-1.6,0-2.6,0c-0.4,0.3-0.8,0.6-1,1.2c-0.4,0.2-0.8-0.1-1.5,0c-1.5,0.3-1.7,1.6-2.5,2.7
			c-0.6,0.7-2.8-1.7-3.9,1.8c-0.9-0.1-1.3-0.7-2.4-0.4s-1.8,2.5-1.8,3.9c-2.1-0.2-4.3-0.4-6.4-0.5c-4.9,0.2-10.8,0.5-15.4,1.4
			c-0.1,0-0.1,0.1-0.2,0.1c0,0.1-0.1,0.3-0.1,0.4c0.4,0.6,4.4-0.1,6.2-0.4c4.4-0.8,11.3-1,15.7,0.5c-0.9,0.6-4.7-0.4-6.5-0.1
			c-3.8,0.7-7.7,0.8-11.2,1.8c-1.3,0.4-2.4,0-3.5,0.6c-0.1,0.1-0.2,0.2-0.3,0.3c0,0.2,0,0.4,0,0.5c2,0.3,4.4-0.9,6.2-1.3
			c3.1-0.7,13.7-2,15.8-0.2v0.1c-6,0-16.7,2-20.5,4.3c0,0.2,0.1,0.4,0.1,0.6c1.5,0.7,4.3-1.2,5.7-1.6c3.9-1.3,9.5-2.7,14.1-2
			c-1,0.8-2.7,0.7-4.1,1.1c-2.7,0.7-10,2.6-11.5,4.4c0.1,0.2,0.1,0.4,0.2,0.6c2.5,0.4,3.8-1.6,5.6-2.3c3.1-1.2,7.8-2.7,11.5-2.8v0.1
			c-1,0.9-3.1,1.1-4.2,1.5c-4,1.6-8.4,4-12.9,5.2c-0.1,0.3-0.2,0.4-0.2,0.9c0.1,0.1,0.2,0.1,0.3,0.2c1.2,0.4,4-1.6,5.2-2
			c3.9-1.7,8-3.4,12.2-4.3c-1.6,2.1-14.4,8.2-17.7,9c-0.1,0.3-0.1,0.5-0.2,0.8c0.2,0.1,0.4,0.3,0.6,0.4c5.6-2.6,11.2-5.3,16.9-7.9
			c-1.6,2.1-4.3,3.3-6.4,4.8c-3.2,2.2-6.1,4.7-9.7,6.5c-0.3,2.2,3.5-0.7,4.1-1.1c4-2.7,8.3-5.6,12.2-8.6l0.1,0.1
			c-2.2,3.8-5.2,6.4-7.9,9.6c-1.7,2-3.1,4.3-5.3,5.9c0,0.2,0,0.4,0,0.5c0.1,0.1,0.2,0.1,0.3,0.2c0.3,0,0.5,0.1,0.8,0.1
			c1.7-2.1,3.4-4.2,5.2-6.2c1.8-1.9,3.7-3.7,5.5-5.6c0.8-1.1,1.6-2.2,2.5-3.3c0-0.1,0-0.1,0-0.2c1.9,1.1,3.5,0.6,4.7-1.3
			c2.5,0.6,4.1-0.5,4-3.1c0.9,0.2,1.3,0.7,2.4,0.6c0.6-0.7,1.2-1.1,1.4-2.3c0.6,0.3,1,0.5,1.8,0.6c1.1-0.6,2.2-1.4,2.4-3
			c0.4-0.1,0.8-0.1,1.2-0.2c3,7.6,13.8,22.5,21.2,25.2c0.1,0.1,0.1,0.2,0.2,0.3c-4,2.9-9.1,4.5-13.6,6.8c-3,1.5-5.6,3.8-8.3,5.7
			c-13.8,9.9-23.4,24.4-31.7,39.7c-1.9,4.4-3.8,8.8-5.7,13.2c-3.4,6.9-10.6,28.8-2.8,34.6c7.4,5.5,10.6-8.4,12.5-13.2
			c-0.6-1.8,3.8-12.1,4.5-14.4c-0.2-0.8,1.2-2.8,1.5-3.8c1.4-4,2.8-7.2,4.8-10.4c5.7-9.1,13.2-18.4,21.6-24.8
			c2.8-2.2,5.9-3.8,8.8-5.9h0.1l0.1,0.1c-2.1,9.6-2.7,18.7-4.5,28.7c-0.1,4.5-0.2,9-0.3,13.5c0.2,0.6,0.5,1,0.4,2
			c-0.2,3.6-0.8,6.2-0.5,9.1c-0.1,1.9-0.2,3.8-0.3,5.7c0.1,4.3,0.2,8.7,0.3,13c0,1.5,0,3,0,4.5c0.8,3.4,0.6,7,1.2,10.6
			c0.2,1.1-0.6,1.4-0.4,2.3c0.1,0.9,0.7,1.6,0.9,2.7c0.3,4.4,0.6,8.8,1,13.2c0.8,4.1,1.7,9.8,1.7,13.6c0,4.3,0.6,7.4,1.6,11.4
			c-0.7,2.6,3.3,15.3,4.1,17.4c1.1,2.9,2.4,5.1,5.2,5.9c3.6,1,8.4-0.6,10.1-3.4c0.8-1.3,0.2-2,0.6-3c0.2-0.5,0.7-1,0.5-1.6
			c-0.2-1.1,0.1-3-0.2-4.2c-1.3-4.9-2.4-9.4-3.7-13.6c-0.6-2.1-0.1-4.8-0.6-7.4c-0.6-4.7-1.3-9.3-1.9-14c-0.1-1.9-0.1-3.9-0.2-5.8
			c-0.5-5.1-1.1-10.2-1.6-15.4c0.1-1.9,0.1-4.2-0.2-6.2c0.1-2.4,0.1-4.7,0.2-7.1c-0.6-5-0.4-9.8-0.1-15.2c0.1-1.1-0.4-3.2-0.2-4.8
			c0.4-2.6,0.9-11.2,0.9-11.2c2-1,7.4-0.6,10.1-0.9c9.5-1,19.8,1.2,28,2.6c3.2,0.5,6.5,0.4,8.9,1.8c0.9,0.6,0.6,5.4,0.5,7.1
			c-0.2,2.8-0.7,5.1-0.6,7.4c0.1,0.3,0.3,0.6,0.4,1c-0.1,1.6-0.5,3.8-0.3,5.8c0.3,3.9-0.8,8.1-0.5,12.3c0.1,2.4,0,4.8-0.4,7.4
			c-0.4,1.8-0.7,3.5-1.1,5.3c0.1,3.6-1.3,8.1-2.1,11.4c-1.2,4.8-1.4,9.1-2.8,13.6c-1.6,5.4-4,10.5-5.9,15.5s-4,9.3-5.3,14.7
			c-0.8,3.4,0.6,5.8,3.1,6.3c4.4,1,7-3.5,8.7-5.6c1.8-2.3,2.5-5.2,4-7.9c2.7-4.9,4.5-10.3,6.3-16.3c0.3-1.9,0.6-3.8,1-5.7
			c2-5.5,2-10.9,3.3-16.5c1.9-7.8,2.9-16.9,4.8-25.3c0.1-1.9,0.1-3.7,0.2-5.6c0.3-2.5,0.4-6.3,0.9-9.9c0-1.3,0-2.6,0-3.9
			c1.9-11.6,2.7-21.6,0.8-34.1c-0.4-2.8-0.4-5.6-1.1-8.3c-0.1-1.5-0.2-3.1-0.3-4.6c-0.9-4.9-1.9-9.8-2.8-14.7
			c0.8-0.7,3.6,1.2,4.5,1.7c4.4,2.4,8.2,5.8,12,8.8c2,1.5,4.2,3.1,5.8,4.9c1.9,2.2,3,5,4.7,7.5c4.4,6.5,7.9,14.3,11.3,21.8
			c0.5,1.7,0.9,3.4,1.4,5c1.3,3.8,2.4,6.6,3.8,10.4c1.5,4.1,6.8,14.5,12.8,10.3C501.4,344.2,502.2,338.4,501.3,334.3z M469.9,228.7
			c0,0.1,0,0.2,0,0.3c-0.6-0.3-1.2-0.6-1.5-1.1C468.9,228.2,469.4,228.5,469.9,228.7z M468.6,218.4c0.2,0.1,0.4,0.3,0.6,0.4
			c0.8,0.9-0.5,3.8-0.8,4.7c-0.2,0.1-0.4,0.3-0.5,0.4c-0.4-0.3-0.8-0.5-1.2-0.8C466,222.5,468.1,218.9,468.6,218.4z M466.1,225.3
			c0.3,0,0.5,0,0.8,0c0.6,2.9-1.6,4.6-1.9,6.4c-0.1,0-0.3,0-0.4,0C464.1,229.8,465.5,226.7,466.1,225.3z M464.4,216.5
			c1.5,1,0.7,3.4,0.3,4.9c-0.5,0.3-1.1,0.2-1.6,0.3c-0.1,0-0.2-0.1-0.3-0.1C462,219.9,463.3,217.5,464.4,216.5z M463.1,223.1
			c2.4,0.2,0,6.2-0.4,6.9c-0.1,0-0.3,0.1-0.4,0.1c-0.2-0.3-0.4-0.5-0.6-0.8C461.7,227.4,462.3,224.5,463.1,223.1z M460,214.6
			c0.1,0,0.3,0,0.4,0c0,0.1,0,0.1,0,0.2c0.9,1.4,0.2,3.6-0.2,4.8c-0.4,0.2-0.7,0.2-1.2,0.1C458.7,218.1,459,215.7,460,214.6z
			 M459.7,221.5c0.2,0.1,0.4,0.2,0.6,0.3c0.6,2.2,1,6.2-1.2,7.4C457.4,227.6,459.1,223.3,459.7,221.5z M456.8,227.6
			c-0.2,0.2-0.4,0.4-0.6,0.5c-0.6-1.7-1.3-4.8-0.3-7.3c0.1,0,0.3,0.1,0.4,0.1C458.1,222,457.1,225.7,456.8,227.6z M455.2,213.1h0.1
			c2.2,1.5,1.7,3.6,1.3,6.1c-0.5,0-1.1,0.1-1.6,0.1C454.1,217.4,454.1,215,455.2,213.1z M437.7,203.9c-0.3-0.1-0.4-0.1-0.6-0.3
			C437.2,203.7,437.4,203.8,437.7,203.9z M424.6,198.4c3.3,0.3,11,2.9,12.1,5.2c-3.6-2.6-8.5-3.1-12.3-5
			C424.4,198.5,424.5,198.5,424.6,198.4z M428.5,204.8c-1.6-0.4-5.8-0.6-6.2-2c0.3-0.3,0.8-0.2,1.3-0.4c5.2,1,12.1,4.6,16.3,7.1
			c1.3,0.8,4,1.7,4.5,3.2C439.1,210.2,434.6,206.5,428.5,204.8z M446.5,212.2c-1.5-1.1-3.1-2.2-4.6-3.3c-1.3-0.6-2.6-1.2-3.9-1.8
			c-4.2-2.5-10.1-5.2-15-6c0-0.3,0-0.6,0-0.9c0.2-0.1,0.4-0.3,0.5-0.4c6,0.9,12.6,4.5,17,7.4c2.1,1.4,4.9,2.6,6,4.9
			C446.5,212.1,446.5,212.1,446.5,212.2z M452.3,228.4c-2.1-1.6-1.6-6.6-0.1-8.5c0.2,0,0.4,0,0.5,0
			C454.1,222,454.5,226.7,452.3,228.4z M451.2,212.8c0.1,0,0.3,0.1,0.4,0.1c1.1,0.9,0.8,4.4-0.2,5.2c0,0.1,0,0.1,0,0.2
			C450.2,217.3,450.5,214,451.2,212.8z M412.9,203.5c-4.1,0.8-8.9,1-13,2c-13.6,3.6-27.2,7-38.9,13.1c1.1-1.7,6.4-3.2,8.4-4.3
			c7-3.9,16.2-8.8,24.8-10.6c3.9-0.5,7.9-0.9,11.8-1.4c1.8-0.1,3.5-0.1,5.3-0.2c1.8,0.3,4.5-0.1,6.1,0.9c0.1,0,0.1,0.1,0.2,0.1
			C416.4,204,414.4,203.2,412.9,203.5z M369.5,206.9c6.1-4,12.2-7.4,20.6-9.3c2.6-0.4,5.2-0.9,7.8-1.3c1.3-0.1,2.6-0.2,3.9-0.3
			c1.7,0,3.4,0,5.2,0c4.2,0,8.4,0.8,12.5,1.6c0.1,0.3,0.1,0.6,0.2,1c-2.4,1.3-7.5-0.4-10.7-0.2c-5.6,0.4-11-0.3-16.6,1
			c-7.8,1.8-15,4.4-21.2,8.1c-2.7,1.6-5.3,3.6-8.3,4.8C364.1,209.9,367.3,208.3,369.5,206.9z M366.7,211.5
			c7.7-4.8,16.4-9.3,26.5-11.4c4.4-0.3,8.7-0.6,13.1-0.9c1.2,0,2.4,0.1,3.7,0.1c3.2,0.7,5,0.5,8.5,1c-0.2,1.4-2.5,1.1-4,0.9
			c-4.6-0.7-12.6-0.1-17.7,1c-14.7,3.1-25.7,10.3-38.5,15.8h-0.1c0-0.4-0.1-0.7-0.1-1.1C359.9,214.4,364,213.2,366.7,211.5z
			 M359.1,219.4c0.1,0,0.2,0,0.3,0c-0.3,0.4-0.8,0.6-1.4,0.8C358.3,219.9,358.7,219.6,359.1,219.4z M338.9,234.5
			c0-0.1,0.1-0.1,0.1-0.2c0,0.1,0.1,0.1,0.1,0.2C339,234.5,338.9,234.5,338.9,234.5z M341,223.9c0.3,0.3,0.5,0.7,0.6,1.2
			c-0.1,0.6,0,0.5-0.5,0.6c0,0.1-0.1,0.1-0.1,0.2c0.4,0.5,0.9,0.9,1.3,1.4c-0.3,0.6-0.4,0.3-0.2,0.9c-0.5,0.6-1,0.8-1.8,1.1
			C337.9,227.8,339.9,225.2,341,223.9z M343.6,235.4c-0.5,0.5-0.9,0.9-1.4,1.4c-0.2,0-0.4,0-0.6,0c-0.1,0-0.1-0.1-0.2-0.1
			c-1.4-3.2-0.2-4.2,1.1-6.3C343.3,230.8,344.1,234.2,343.6,235.4z M342.8,222.9c0-0.1,0.1-0.1,0.1-0.2c0.4-0.1,0.8-0.3,1.2-0.4
			c0.3,0,0.6,0.1,0.9,0.1c0.4,0.3,0.3,0.2,0.3,0.6c-0.1,0.2-0.4,0.5-0.9,0.6v0.1c0.5,0.8,1,1.5,1.5,2.3c-0.1,0.4-0.1,0.8-0.2,1.2
			c-0.5,0.2-0.9,0.4-1.4,0.6C343.5,226.5,342.7,225,342.8,222.9z M347,234.4c-0.4,0.8-1,0.6-1.7,0.3c-0.3-1.8-0.6-3.5-0.9-5.3
			c0.5-0.1,1.1-0.3,1.6-0.4c0.2,0,0.4,0.1,0.6,0.1C346.8,230.3,348,233.2,347,234.4z M347.9,218.4c0.5,0.1,0.8,0,1.1,0.4
			c0.2,0.2,1.2,4.5,1.2,4.7c-0.7-0.3-1.4-0.5-2.1-0.8v0.1c0.5,0.6,1.5,0.8,1.7,1.7c-0.7,0.3-0.8,0.3-1.6,0.2
			C347,222.8,346.3,220.6,347.9,218.4z M350.5,232.1c-2.3-0.5-2.4-3.6-1.6-5.7c0.4-0.1,0.7-0.3,1.1-0.4c0.3,0.1,0.6,0.2,0.9,0.3
			C350.9,228.1,351.6,230.7,350.5,232.1z M351.9,223l0.1-0.1c-0.5-1.5-0.8-2.9-1.5-4.2c0.1-0.9,0.3-1,0.6-1.6c0.4,0,0.9,0.1,1.3,0.1
			c0.8,1.3,1.1,4.1,1.2,5.6c-0.1,0.1-0.1,0.1-0.2,0.2C353,223.2,352.3,223.4,351.9,223z M355.2,229.4c-0.4,0.4-0.7,0.7-1.1,1.1
			c-0.1,0-0.3,0-0.4,0c-0.9-2.4-1.4-2.6-1-5.7c0.3-0.1,0.5-0.1,0.8-0.2c0.2,0,0.4,0,0.5,0C354.9,225.6,355.3,227.3,355.2,229.4z
			 M355.6,221c-0.9-0.7-1.2-2.2-1.6-3.4c0.1-1.1,0.6-1.3,1.3-1.7c0.2,0.1,0.4,0.1,0.5,0.2c1.4,0.9,1.1,3.5,0.2,4.9
			C355.9,221,355.8,221,355.6,221z M357.3,226.9c-0.1,0.1-0.3,0.2-0.4,0.3c-0.4-1.1-0.6-2.2-0.9-3.3c0.1-0.1,0.2-0.1,0.3-0.2
			c0.2,0,0.4,0,0.5,0C357.4,224.5,357.4,225.8,357.3,226.9z M392.5,260c1,0.1,1.4,0.4,2.3,0.8c0.1,0.2,0.1,0.4,0.2,0.5
			c-0.3,0.2-0.6,0.4-1,0.6c-1-0.1-1.3-0.7-1.7-1.3C392.3,260.4,392.4,260.2,392.5,260z M390,263.3c0.4-0.4,0.9-0.7,1.3-1.1
			c0.4,0.4,0.9,0.9,1.3,1.3c0,0.2,0.1,0.4,0.1,0.5c-0.7,0.3-1.2,0.4-2.1,0.4c-0.2-0.3-0.4-0.6-0.6-0.9
			C389.9,263.5,390,263.4,390,263.3z M387.9,263.5c-0.6,1.4-2.1,2-3.7,2.5c-0.4-0.4-0.6-1-0.9-1.6c0.1-1,0.7-1.3,1.2-1.9
			C385.8,262.7,386.4,263.4,387.9,263.5z M383.9,257.2c-0.4,1.2-0.5,2-0.2,3.5v0.1c-0.6,0.3-1.4,0.3-1.9,0c-0.5-0.3-0.7-0.6-1-1.1
			c0-0.3,0-0.6,0-1c0.9-0.8,1.6-1,2.8-1.6C383.7,257.2,383.8,257.2,383.9,257.2z M380.9,255.1c0.3,0.1,0.6,0.3,1,0.4
			c0.1,0.1,0.1,0.2,0.2,0.3c-0.8-0.1-0.9-0.4-1.5-0.3C380.6,255.4,380.8,255.3,380.9,255.1z M379.8,256.7c0.1,0.1,0.1,0.3,0.2,0.4
			c0,0.1-0.1,0.1-0.1,0.2c-0.1,0.1-0.3,0.2-0.4,0.3C379.6,257.4,379.7,257.1,379.8,256.7z M379.1,258.6h0.1
			c-0.1,0.1-0.1,0.1-0.2,0.2C379.1,258.7,379.1,258.6,379.1,258.6z M379,259c0.6,2.1,0.9,3.1,3.1,3.5c-1,5.8,4,6.2,6.5,2.7
			c0.8,0.3,1.6,0.6,2.5,1c1.7,0.4,3.6-1.5,3.3-2.7c0.9-0.6,1.8-1,2.5-1.8c0.3-0.3,3.4,0.4,4.4,0.6c3.1,0.7,9.1,2.4,13.1,1.6
			c1.8-0.2,3.5-0.4,5.3-0.5c5.9-1.8,10.7-5.2,15.2-8.4c1.1,0.8,1.8,4,2.5,5.6c2.3,5.2,3.2,12.8,4.5,18.7c0,0.1-0.1,0.2-0.1,0.3
			c-1.8-0.9-4.3-1.2-5.4,0.4c-0.3,1.5,0.5,2.2,0.8,3.3c-1,0.2-2.1,0.4-3.1,0.6c-1.3,1.6-0.9,2.8,0.2,4.3c-0.5,0.6-1.1,1.2-1.6,1.8
			c-0.7,0-1.4,0-2.1,0c-0.5-0.3-1.1-1.4-2.1-1.7c0.3-0.6,0.6-1.1,0.9-1.7c-0.1-2.5-3.1-3.6-5.4-2.6c-0.9-1.6-0.6-3.2-2.5-3.9h-0.1
			c-1.6,0.6-2.6,1.5-3.9,2.1c-0.5,0.3-1.9-1.1-2.4-1.7c-2.1,0.1-3.6,1.8-4.3,3.3c-0.8,0.1-2.3-0.2-3.7-0.2c-2,1.9-0.4,2.5-1,3.4
			c-0.1,0-0.1,0-0.2,0c-0.4,0.2-0.8,0.4-1.2,0.5c-0.7,0.5-0.9,1.4-1.6,1.7c0.1,0.3,0.2,0.6,0.3,0.9c-2.4,0-4.7-0.1-7.1-0.1
			c-5.4-0.3-10.1,0.1-15.2-0.8c-3.5-0.6-6.5,0.4-9.7-0.9c-0.7-0.8,1-6,1.2-7.3c0.3-0.3,0.5-0.6,0.8-0.9c0.3-0.8-0.4-1-0.4-1.4
			c1-1.8,0.7-4.3,1.4-6.1c1-2.9,1.7-6.3,2.8-9.2c0.6-1.5,1.1-3,1.7-4.5C378.9,259.1,379,259,379,259z M434.9,286.3
			c0-0.2,0-0.4,0-0.5c0.3-0.6,1.1-0.5,1.6-0.9c0.5,0,1,0,1.5,0l0.1,0.1c-0.3,0.8-0.5,1.6-0.8,2.4
			C436.4,287.8,435.2,287.1,434.9,286.3z M437,289.4c0,0.2,0,0.4,0,0.5c-0.6,0-1.2,0.1-1.8,0.1v-0.1
			C435.9,289.6,436.1,289.4,437,289.4z M438.1,280.7c0.2-0.3,0.3-0.3,0.6-0.5c0.8,0.2,1.6,0.4,2.5,0.6c0.1,0.1,0.1,0.2,0.2,0.3
			c-0.7,0.5-1.5,1.5-2.3,1.8c-0.4-0.5-0.7-0.9-1.1-1.4C437.9,281.3,437.8,281,438.1,280.7z M426.2,289.9c0.5,0.1,1,0.1,1.5,0.2
			c0.1,0,0.1,0.1,0.2,0.1c-0.4,0.2-1.3,0.2-1.8,0.3c-0.1,0-0.2-0.1-0.3-0.1C425.9,290.3,426,290.1,426.2,289.9z M425.3,288.1
			c-0.3-0.8-0.8-1.7-1.5-2c0.3-0.2,0.6-0.4,1-0.6c0.8,0.1,1.6,0.1,2.5,0.2c0.1,0.4,0.1,0.3,0.3,0.5
			C427.5,287.4,426.4,287.9,425.3,288.1z M422.1,283.4c-0.1,0.3-0.1,0.6-0.2,1c-1.1-0.3-2.1-0.6-3.2-0.9v-0.1
			c0.7-0.5,1.4-1.1,2.1-1.6c0.1,0,0.2,0,0.3,0C421.6,282.2,421.9,282.6,422.1,283.4z M415.6,283.2c-0.3,0.9-2.5,1.4-3.4,1.7
			c-0.1,0-0.1-0.1-0.2-0.1c0.3-1.4,1.4-1.9,2.4-2.6C414.8,282.5,415.2,282.8,415.6,283.2z M407.4,290.5c-0.8,0-1.5-0.1-2.3-0.1
			l-0.1-0.1c0.2-1.1,1-1.3,1.8-1.8c0.3,0.1,0.6,0.2,1,0.3c0,0.1,0.1,0.1,0.1,0.2C407.4,289.4,407,289.7,407.4,290.5z M407.4,285.9
			c0-0.2,0-0.4,0-0.6c0.3-0.1,0.5-0.3,0.8-0.4c0.8,0,1.5,0,1.9,0.3c0.2,0.2,0.4,0.4,0.5,0.6v0.1c-0.6,0.4-1.1,0.9-1.7,1.3
			C408,287.1,407.7,286.6,407.4,285.9z M367.3,282.1c-2.9,1.8-6.1,4.3-8.6,6.7c-9.2,8.9-17.4,17.7-23.2,30.2
			c-1.9,5.1-3.9,10.2-5.8,15.2c-2.4,7.7-2.7,16-9.2,19.6c-4.6-0.4-6.4-6.3-5.4-11.9c1.5-7.9,3-15.4,6-22c1.8-3.9,3.3-8,5.2-12
			c4.5-9.7,10.7-18.8,17.2-26.7c3.9-4.8,9.1-8.8,13.7-12.9c4.1-3.6,9.7-7,15-9.2c2-0.8,4.1-1.5,5.8-2.7c0.1,0,0.2,0,0.3,0
			c-0.6,1.6-1.3,3.3-1.9,4.9c-1,3.5-2.1,6.9-3.1,10.4c-0.6,2.5-1.1,5.1-1.7,7.6C370.8,280.6,368.7,281.2,367.3,282.1z M378.5,327.6
			c1.6-0.3,2.9,0.4,4-0.4h0.1c0.4,0.4,0.2,1.5,0.1,2.1c-4.5,0-10.2,0.1-14.6,1.4c-0.2,0-0.4,0-0.5,0c0.1-0.6,0.1-1.1,0.2-1.7
			C371.1,329.4,375.3,328.1,378.5,327.6z M368.1,326.4c0.1-0.5,0.1-1,0.2-1.5c4.5-0.7,9.1-1.4,13.6-2.1c0.4,0,0.7,0,1.1,0
			c-0.1,0.5-0.1,1-0.2,1.5c-0.2,0.1-0.4,0.3-0.6,0.4c-0.7,0.7-2.9,0.1-4.3,0.3C374.6,325.5,371.3,326,368.1,326.4z M367.4,333.5
			c2.5-0.5,4.9-0.9,7.4-1.4c1.4-0.2,3.1,0.2,4.4-0.3c1.2,0,2.4,0,3.5,0c0,0.5-0.1,1.1-0.1,1.6c-4-0.3-11.4,0.3-15,1.4
			c-0.1,0-0.2-0.1-0.3-0.1C367.4,334.3,367.4,333.9,367.4,333.5z M367.3,337.7c1-1.4,8.9-0.9,11.1-1.7c1.4,0,2.7,0,4.1,0
			c0,0.6,0.1,1.3,0.1,1.9c-3.1-0.6-12.3,0.3-15.1,1.2C367.2,338.8,367.1,338.1,367.3,337.7z M367.2,341.7c4.2-1.3,10.7-1.1,15.5-1.3
			c0,0.5-0.1,0.9-0.1,1.4c0.1,0.5-1.8,0.4-2.8,0.2c-3.3-0.8-8.8,1-12.7,1C367.2,342.5,367.2,342.1,367.2,341.7z M382.7,352.4
			c0,0.5-0.1,0.9-0.1,1.4c-1.5,0-2.9,0.1-4.4,0.1c-3.5,0.3-7.1,0.6-10.6,0.9c0-0.6-0.1-1.1-0.1-1.7c2.9-0.3,5.7-0.6,8.6-1
			c2.2,0.1,4.4,0.2,6.5,0.3C382.6,352.4,382.6,352.4,382.7,352.4z M367.2,345.7c1.7-1.4,12.4-1,15.1-1.2c0,0.5,0.1,0.9,0.1,1.4
			c-5.2-0.3-10.5,0.8-15.4,1C367.2,346.5,367.2,346.1,367.2,345.7z M367.2,350.4c0-0.1,0.1-0.3,0.1-0.4c-0.1-1.4,7.6-1.1,9.2-1.7
			c2,0,4,0.1,6,0.1c0,0.5,0,1,0,1.5c0,0.1,0,0.1,0,0.2c-2.2-1-8.9-0.4-11.7,0.1c-1,0.2-2.4,0.6-3.4,0.2
			C367.4,350.4,367.3,350.4,367.2,350.4z M367.5,358.2c0-0.3-0.1-0.6-0.1-0.9v-0.1c4.2-1.3,10.8-1,15.4-1c0,0.4,0,0.7,0,1.1
			C377.7,357.6,372.6,357.9,367.5,358.2z M367.9,361.1c0.9-0.9,12.4-1.3,14.9-1.3c0,0.5-0.1,0.9-0.1,1.4c-0.4,0.3-3.1,0.2-4.2,0.1
			c-3.3-0.4-7,0.7-10.5,0.9C367.9,361.8,367.9,361.5,367.9,361.1z M368.2,365.4c1.1-2,6.2-0.9,8.5-1.7c2,0,4.1,0.1,6.1,0.1l0.1,0.1
			c-0.1,0.5-0.1,1.2,0.1,1.7c0,0.1,0,0.2,0,0.3c-5.4,0-10,0.4-14.6,0.6C368.3,366.2,368.3,365.8,368.2,365.4z M368.5,369.5
			c1.4-2,7.1-0.4,9.4-1.3c1.5,0.1,3.4,0.6,4.9,0c0.1,0,0.1,0.1,0.2,0.1c0.1,0.5,0.1,1,0.2,1.5c-2.6,0-5.3,0-7.9,0
			c-2.1,0.3-4.3,0.5-6.7,0.3C368.7,369.9,368.6,369.7,368.5,369.5z M368.8,372.5c2.9,0,5.8-0.2,8.9-0.5c1.9,0.1,3.7,0.1,5.6,0.2
			c0.1,0,0.1,0.1,0.2,0.1c0,0.2,0,0.4,0,0.5c-3.7,0-6.3,0.4-9.6,1c-1.8,0.3-3.3-0.1-4.9,0.6C369,373.8,368.9,373.1,368.8,372.5z
			 M377.7,375.4c2-0.1,3.9-0.1,5.9-0.2c0.2,0.2,0.2,0.8,0.2,1.5c-0.5-0.2-13.1,0.8-14.5,1.4c0-0.5-0.1-0.9-0.1-1.4
			C372.1,376.2,374.9,375.8,377.7,375.4z M370.2,388.4c0-0.1,0-0.3,0-0.4c2.1-1.7,5.8-0.5,8.7-1.5c1.7,0.1,3.4,0.1,5,0.2
			c0,0.1,0.1,0.1,0.1,0.2v0.1C379.5,387.4,374.8,387.9,370.2,388.4z M381.3,433.4c-0.1,0-0.1,0-0.2,0v-0.1c1.5-0.2,3-0.4,4.5-0.5
			c0.8,0,1.6,0,2.5,0c0.1,0.1,0.1,0.1,0.2,0.2C387,433.4,383,435,381.3,433.4z M390.2,430.1c-4,0.2-7.9,0.4-11.9,0.5
			c-0.1-0.4-0.3-0.7-0.4-1.1c0.1-0.4,0-0.2,0.2-0.4c1.7-1.2,7.5,0.4,9.2-0.9c0.8,0.1,1.6,0.3,2.4,0.4c0.3-0.1,0.3-0.1,0.5,0.2
			C390.4,429.3,390.1,429.7,390.2,430.1z M390.6,424.6c0,0.5-0.1,1.1-0.1,1.6c0,0.1,0,0.1,0,0.2c-4.1-1.5-9.7,0-13.6,0.1
			c-0.1-0.5-0.3-0.9-0.4-1.4c2.2-0.9,4.4-0.2,6.7-1.1c2.2,0.2,5.2,0,7.3,0.4C390.5,424.5,390.6,424.5,390.6,424.6z M390.1,421.9
			c-4.4-0.6-9.7-0.6-14.2,0.6c-0.3-0.3-0.3-0.8-0.5-1.3c3-0.5,5.9-0.9,8.9-1.4c1.7,0.1,3.4,0.2,5,0.3
			C389.9,420.1,390.1,421.2,390.1,421.9z M388.8,415.9c0.1,0.5,0.2,1,0.3,1.5c-0.3,0.3-2.7,0.4-3.7,0.3c-4-0.5-7,1.1-10.7,0.9
			c0-0.5,0.2-0.2-0.2-0.4c0-0.2,0-0.4,0-0.6c2.7-1,6.5-0.7,8.7-1.5c1,0.5,3.5,0.1,4.2-0.2C387.9,415.8,388.3,415.8,388.8,415.9z
			 M387.8,412.4c0.1,0.3,0.1,0.5,0.2,0.8v0.1c-2.6,0.7-5.5-0.3-7.9,0.4c-1.8,0.5-3.8,1-6.2,1.1c0-0.1-0.1-0.1-0.1-0.2
			c0.1-0.3-0.1-0.7,0.2-1c1.5-1.4,8.7-0.3,11.1-1.3C385.8,412.4,387,412.8,387.8,412.4C387.8,412.4,387.8,412.4,387.8,412.4z
			 M387.2,409.3c0,0.2,0,0.4,0,0.6c-4-0.5-10.1,0.5-14.1,0.9c0-0.4,0-0.7,0-1.1c0-0.1-0.1-0.2-0.1-0.3c0.8,0.1,8.6-0.1,10.1-0.6
			c1.3,0.1,2.6,0.1,3.9,0.2C387.1,409.3,387,409.1,387.2,409.3z M372.7,407.1c-0.1-0.1-0.1-0.1-0.2-0.2c0-0.1,0-0.3,0-0.4
			c1.1-1.1,6.5-1.4,8.8-1.4c1.3,0,2.6,0.3,3.8-0.1c0.4,0.1,0.9,0.1,1.3,0.2c0.3,0.3,0.4,0.9,0.4,1.4
			C381.9,406,377.7,407.1,372.7,407.1z M386.3,402.2c-0.7,0.5-1.2-0.1-1.9,0.1c-3.4,0.7-9.7,0-11.8,1.3c-0.1,0-0.2-0.1-0.3-0.1
			c-0.1-0.6,0.1-0.8-0.2-1c1.7-1.7,11-0.6,13.4-1.9c0.1,0,0.3,0.1,0.4,0.1C386.4,401,386.2,401.8,386.3,402.2z M385.9,398.3
			c-1.6-0.4-12.8,1.1-14.1,1.5c-0.2-0.2-0.5-1-0.3-1.4c1.7-1.5,7.8-0.3,10.8-1.5c1.1,0,2.3,0,3.4,0
			C385.8,397.3,385.9,397.8,385.9,398.3z M385.5,394.5c-5.1-0.2-9.5,0.7-14.3,1.3c0-0.2-0.1-0.4-0.1-0.6c0.1-0.2,0.2-0.4,0.3-0.5
			c3-0.5,6-1,9-1.5c1.6,0,3.3,0,4.9,0C385.4,393.6,385.4,394,385.5,394.5z M385,390.7c-0.6-0.2-1.4,0.3-1.9,0.2
			c-3.9-0.5-8,0.8-12.2,1.3c-0.1-0.5-0.1-0.9-0.2-1.4c3.7-0.5,7.3-1.1,11-1.6c0.9,0.2,2.3,0.4,3.1,0
			C385,389.6,385.1,390.1,385,390.7z M384.4,382.9c0.1,0.5,0.1,1,0.2,1.5c-4.4-0.2-10.8-0.5-14.7,1.1c0-0.4,0-0.7,0-1.1
			C371.1,382.6,381.5,383.1,384.4,382.9z M384.3,380.4c0,0.1,0,0.3,0,0.4c-3.4-0.7-11.2-0.3-14.6,1h-0.1c-0.1-0.3-0.1-0.6-0.2-1
			c1.1-1.4,7.8-1.6,10.6-1.6c1.3,0,2.8,0.3,3.8-0.1C384.3,379.4,384.2,379.8,384.3,380.4z M435.1,394c0.1,0,0.1,0,0.2,0
			c-0.8,0.3-7.8-1.1-7.8-1.7C429,392.4,434.3,393.2,435.1,394z M421.1,430.8c-0.1,0.1-0.2,0.1-0.3,0.2c-1.3-0.9-3.1-1.8-5.3-1.8
			c-0.1-0.3-0.1-0.5-0.2-0.8c0-0.1,0.1-0.2,0.1-0.3c0.2,0,0.4-0.1,0.5-0.1c2,0.4,4.8,0.7,6.1,2C421.8,430.3,421.4,430.5,421.1,430.8
			z M424,427.7c-1.5-0.6-2.9-1.1-4.4-1.7c-0.6,0.3-2.8-0.2-3.4-0.5c-0.1,0-0.1,0-0.2,0c0-0.7,0.2-0.8,0.3-1.3
			c3.5,0.4,5.7,1.6,8.4,2.6C424.5,427,424.2,427.4,424,427.7z M426,424.3c-0.7-0.1-1.2-0.6-1.8-1c-2-1-4.2-1.6-6.8-1.7
			c0-0.1-0.1-0.1-0.1-0.2c0.1-0.3,0.1-0.6,0.2-1c0.1-0.1,0.2-0.1,0.3-0.2c2.8,0.4,6.2,1.2,8.6,2.4
			C426.4,423.3,426.2,423.7,426,424.3z M427.8,420.5c-2.6-1-5.8-2-8.9-2.7c0.1-0.4,0.3-0.7,0.4-1.1c3.6,0.1,5.6,1.7,8.6,2.5
			c0.1,0.1,0.2,0.3,0.3,0.4C428.1,419.9,427.9,420.2,427.8,420.5z M429.4,417.2c-0.6-0.3-1.3-0.6-1.9-1c-2.4-0.6-4.7-1.3-7.1-1.9
			c0.1-0.3,0.1-0.6,0.2-1c3.7,0,6.1,2,9.1,2.7C429.6,416.4,429.5,416.8,429.4,417.2z M430.7,413.7c-0.6,0-1.8-0.8-2.4-1.1
			c-2.2-0.6-4.4-1.2-6.5-1.8c0.1-0.3,0.1-0.6,0.2-1c3.2,0,6.8,1,9,2.6C431,412.9,430.8,413.1,430.7,413.7z M432,410
			c-1.5-0.7-3.1-1.3-4.7-1.9c-0.9,0.4-3.5-0.4-4.3-0.8c0.1-0.3,0.2-0.6,0.3-0.9c3.4,0.3,7.2,1,9.2,2.7
			C432.3,409.5,432.3,409.7,432,410z M433.4,406.3c-1.6-0.1-2.6-0.9-3.9-1.4c-1.7-0.3-3.4-0.6-5.2-1c0.1-0.4,0.2-0.9,0.3-1.3
			c2.8,0.1,7.3,0.8,9,2.5c-0.1,0.2-0.1,0.4-0.2,0.5C433.5,406,433.5,406,433.4,406.3z M434.2,402.4c-1.1-1-6.5-2.4-8.3-2.3
			c-0.1-0.1-0.3-0.1-0.4-0.2c0-0.2,0.1-0.4,0.1-0.6c0.2-0.1,0.4-0.1,0.5-0.2c3.5,0.1,5.6,1.3,8.5,2.3
			C434.7,402,434.7,402.1,434.2,402.4z M435.3,398.6c-1.1,0.2-6.4-1.8-8.7-1.9c-0.1-0.2-0.1-0.4-0.2-0.5c0.1-0.3,0.2-0.6,0.3-0.9
			c1.1,0.2,8.3,1.5,9,1.4C435.6,397.3,435.4,397.9,435.3,398.6z M436.9,391.9c-2.3-0.8-5.7-2.2-8.4-1.9c-0.1-0.1-0.3-0.2-0.4-0.3
			c0-0.3,0.1-0.6,0.1-0.9c1.3,0,2.5,0.1,3.8,0.1c1.7,0.6,3.4,1.2,5.2,1.8C437.1,391.1,437,391.5,436.9,391.9z M437.7,388.1
			c-1.5,0.3-3.5-1-5.2-1.4c-1.3-0.1-2.5-0.2-3.8-0.3l-0.1-0.1c0-0.3,0.1-0.5,0.1-0.8c0.3,0,0.5-0.1,0.8-0.1c2.8,0.5,5.9,1.5,8.4,1.7
			C437.8,387.4,437.7,387.7,437.7,388.1z M438.4,384.3c0,0.1,0,0.2,0,0.3c-1.6,0.1-2.9-0.6-4.3-1c-1.5-0.2-3.1-0.4-4.6-0.6
			c-0.1,0-0.1,0-0.2,0c0.1-0.6,0.3-1.3,0.4-1.9c3.7,0,6.1,0.9,8.9,1.8C438.6,383.4,438.5,383.8,438.4,384.3z M438.9,380.4
			c-1.9-0.5-3.7-1-5.6-1.5c-1-0.1-2.1-0.2-3.1-0.3c-0.1,0-0.1,0-0.2,0c0.1-0.3,0.3-0.6,0.4-1c2.2,0.2,8.7,1.2,8.7,2.6
			C439.1,380.3,439,380.4,438.9,380.4z M439.9,375.7c0,0.5-0.1,0.9-0.1,1.4c-0.1,0-0.1,0.1-0.2,0.1c-0.1,0.2,0,0.1-0.2,0
			c-1.2-0.5-3.6-1.1-4.9-1.4c-1.2-0.3-2.5-0.1-3.4-0.5c-0.3-0.3-0.2-0.7-0.1-1.2c3.3,0.1,6.2,1.8,9,1.5
			C439.9,375.6,439.9,375.7,439.9,375.7z M440.2,373.8c-2.2-1.5-6.2-1.6-8.8-2.3c0-0.5,0.1-0.8,0.2-1.4c1.5,0.4,3.3,0.3,5,0.6
			c1.3,0.5,2.5,0.9,3.8,1.4C440.4,372.7,440.3,373.2,440.2,373.8z M440.9,369.5c0,0-7.9-1.3-8.5-1.7c-0.1,0-0.1,0-0.2,0
			c0-0.3,0.1-0.6,0.1-0.9c3.3,0.2,6.5,1.5,8.7,1.6C441.1,368.9,441.1,369.2,440.9,369.5z M441.6,366.4c-2.7-0.8-6.2-1.7-9.1-1.9
			c0-0.5,0-0.9,0-1.4c0.2-0.1,0.4-0.1,0.5-0.2c2.9,0.2,6.1,1.2,9,1.4l0.1,0.1C442,365,441.8,365.7,441.6,366.4z M442.6,362
			c-0.1,0-0.2,0.1-0.3,0.1c-2.3-1.5-6.6-1.1-9.2-1.6c-0.5,0-0.4-1-0.2-1.8c3.5,0.1,6.8,0.8,9.8,1.5
			C442.9,360.7,442.7,361.1,442.6,362z M443.2,357.7c-1.2-0.3-2.4-0.5-3.7-0.8c-2.1-0.2-4.3-0.4-6.4-0.6c0-0.5,0-0.9,0-1.4
			c0.3-0.1,0.6-0.1,0.9-0.2c3.1,0.6,6.5,0.9,9.1,2c0.1,0,0.1,0,0.2,0C443.3,357,443.3,357.3,443.2,357.7z M443.6,354.3
			c0,0-8.4-2-10.3-2c0-0.6-0.1-1.3-0.1-1.9c4,0,7.4,0.8,10.3,1.9c0.1,0,0.1,0,0.2,0C443.8,352.7,443.7,354.1,443.6,354.3z
			 M444,349.6c-0.4,0.1-10.2-1.8-10.8-2.1c0-0.7,0.1-0.9,0.4-1.3c2.2,0,4,0.5,5.6,0.4c1.1,0.6,3.8,1.6,4.9,1.3h0.1
			C444.1,348.5,444.1,349,444,349.6z M444.3,345.6c-1.9-0.5-3.6-1.2-5.8-1.3c0,0.2,0,0.4,0,0.5c-1.5-1.1-2.8-0.4-5-1.3
			c-0.3-0.3-0.3-0.9-0.2-1.5c3.5-0.7,6.8,1.8,9.3,0.5c-0.2,0.6,0,1.1,0.5,1.4c0.4,0.1,0.8,0.1,1.2,0.2c0,0.4,0.1,0.8,0.1,1.2
			C444.4,345.5,444.4,345.6,444.3,345.6z M442.3,341.3c0,0.6,0.1,0.3-0.3,0.6h-0.1c-0.1-0.1-0.1-0.2-0.2-0.3c-0.1,0-0.1-0.1-0.2-0.1
			c0.2,0,0.4-0.1,0.5-0.1c0-0.1-3-1-3.1-1c-0.1,0.1-0.1,0.1-0.2,0.2c0.1,0,0.1,0.1,0.2,0.1c0,0.1-0.1,0.2-0.1,0.3
			c-0.8-1.3-5.3-1-5.3-2.1c0-0.1-0.1-0.1-0.1-0.2s0.1-0.2,0.1-0.3c1.1,0,2.2,0.1,3-0.3c1.5,0.3,3.2,0.8,4.7,0.4
			c0.8,0.5,1.9,1.3,3.3,1.4c0,0.8-0.1,1.3,0.1,1.7C443.8,342.2,442.9,341.5,442.3,341.3z M444.7,337.4c-2.5,0.6-6-2.3-8.1-0.6
			c-0.6-0.7-2-0.7-3.1-0.8c0-0.5,0-1,0-1.5c1.4-0.4,3.4,0.5,4.4-0.2c1.6,0.5,5.5,0.3,6.8,1.8C444.7,336.5,444.7,336.9,444.7,337.4z
			 M437.8,333.7c0.1,0,0.2,0,0.3,0c0,0.1-0.1,0.2-0.1,0.3C437.9,333.9,437.8,333.8,437.8,333.7z M445.3,333.6
			c-1.9,0-2.7-0.7-4.2-1.1c-2.8-0.7-5,0.3-7.1-0.8c-0.3-0.3-0.2-0.9-0.1-1.4c0.1,0,0.3-0.1,0.4-0.1c4.5,0.2,7.5,0.9,11,2.3
			C445.3,332.9,445.3,333.3,445.3,333.6z M445.4,330.4c-3-1.3-7.5-2.4-11.5-2.5c-0.1-0.5,0-0.9,0.1-1.3c1.8,0.1,10.7,1.9,11.3,2.7
			c0,0.3,0.1,0.6,0.1,0.9C445.4,330.3,445.4,330.3,445.4,330.4z M444,291c0.6,5,1.1,10,1.7,14.9c0.3,1.6,0.6,3.3,0.9,4.9
			c0,1.8-0.1,3.6-0.1,5.4c0.1,1.2,0.2,2.4,0.3,3.5c-0.5,2.8-0.5,5-0.5,7.5c-5.5,0.1-11.8-2.1-17.4-3.5c-6.4-1-12.8-2.1-19.2-3.1
			c-1.9-0.1-3.8-0.1-5.7-0.2c-7.7-0.8-18,0.2-25.4,1.5c-3.5,0.5-7,1.1-10.5,1.6c-0.7-2.2,0-4.6-0.2-7c-0.3-4.1,0.7-13.5,2.1-18.5
			c-0.3-0.9,0.7-6.9,1.1-8.3c3.1,1,5.3,0.3,8.9,0.9c4.6,0.7,10.2,0.5,15.2,1c1.5,0,3.1-0.1,4.6-0.1c2.6,0,5.2,0.1,7.8,0.1
			c1.9,0.2,4.7,0.4,6.7,0.1c2.5,0.1,5,0.1,7.5,0.2C428.3,291.2,437.4,291.4,444,291z M499.7,343.2c-0.8,0.8-1.6,1.5-2.4,2.3
			c-2.6,1.4-4.6-1.6-5.8-2.8c-3.8-4-4.8-10.2-7.2-15.7c-0.7-1.7-1.2-4.5-1.9-6.3c-1.5-4.1-4-8.2-5.9-11.9c-2.8-5.4-5-10.5-8.3-15.1
			c-0.9-1.3-1.4-2.8-2.5-4c-5.9-6.2-15.1-12.5-23.4-16.2c-0.9-2.4-1-4.7-1.6-7.1c-0.9-3.2-2.1-6.4-3.2-9.2c0.1-0.1,0.2-0.1,0.3-0.2
			c1.9,0.5,3.8,0.9,5.7,1.4c5.1,1.9,11,4,15.6,6.9c16.7,10.5,28.9,31,35.4,50.7c0.8,1.9,1.6,3.8,2.4,5.7c1,4.3,2.1,8.6,3.1,12.9
			C500.4,336.1,500.3,342.1,499.7,343.2z M426,213.8c-0.5,0.1-1,0.2-1.5,0.3c-1.2,0.4-1.8,1.3-2.6,2.1c0,0.2,0.1,0.4,0.1,0.6
			c0.2,0.1,0.4,0.1,0.6,0.2c1.3-0.7,2-1.5,3.5-1.9c1.2,0.7,1.7,1.4,2.6,2.3c0.8-0.1,0.9-0.3,1.1-1C428.9,214.8,428,214.4,426,213.8z
			 M388.8,217.9c1.9-0.1,0.9-2.3,0.1-2.9c-0.7-0.6-2-0.5-3-0.5c-1.9,1.3-2.2,1.1-3.7,2.9c0,0.2,0,0.4,0,0.5c0.3,0.1,0.6,0.2,0.9,0.3
			c1-0.9,1.8-2.8,4-2.3C388,216.2,388.5,217.1,388.8,217.9z M385.7,220.1c-1.9,1.7-2,4.8,1.5,3.8c0.9-1.2,1.1-3-0.6-3.7
			C386.3,220.2,386,220.2,385.7,220.1z M385.8,222.7c0-0.2,0-0.4,0-0.6c0.2,0,0.4,0,0.5,0C386.2,222.6,386.3,222.5,385.8,222.7z
			 M424.1,224.3c0.3,0.3,0.5,0.5,0.8,0.8c0.8,0.2,1.7,0.1,2.3-0.2c1.4-0.5,1.2-2.3,1.1-3.4c-0.4-0.3-0.9-0.6-1.3-0.9
			C425.4,221.1,422.6,221.8,424.1,224.3z M425.4,223.7c0-0.1-0.1-0.2-0.1-0.3c0.1-0.7,0.3-0.8,0.6-1.3c0.5,0,0.4,0,0.6,0.2
			c0.1,0,0.2,0.1,0.3,0.1C426.7,223.6,426.2,223.6,425.4,223.7z M376.8,223.9c-0.3-0.1-0.6-0.1-0.9-0.2c-0.1,0-0.1,0.1-0.2,0.1
			c-0.1,0.3-0.1,0.6-0.2,1c0.2,0.2,0.4,0.4,0.5,0.6C376.9,225.2,377.2,224.7,376.8,223.9z M434.8,225.6c0.2,0.1,0.4,0.3,0.6,0.4
			c0.2,0,0.4,0,0.6,0c0-0.4,0-0.8,0-1.2c-0.4-0.1-0.7-0.1-1.1-0.2C434.7,225,434.8,224.9,434.8,225.6z M369,227c0,0.2,0,0.4,0,0.6
			c0.2,0.3,0.4,0.5,0.6,0.8c0.3-0.1,0.6-0.1,0.9-0.2c0.1-0.7,0.1-0.8,0-1.4c-0.4,0-0.8-0.1-1.2-0.1C369.3,226.8,369.2,226.9,369,227
			z M375.7,228.7c0.3,0.3,0.6,0.1,1.1,0c0.1-0.1,0.1-0.2,0.2-0.3c0-0.5-0.1-0.6-0.4-0.9c-0.3-0.1-0.6-0.2-1-0.3
			c-0.2,0.2-0.4,0.4-0.5,0.6C375.3,228.2,375.3,228.5,375.7,228.7z M441.8,228.6c0.1-0.3,0.1-0.5,0.2-0.8c-0.1-0.2-0.2-0.4-0.3-0.5
			c-0.4,0-0.9-0.1-1.3-0.1c-0.2,0.3-0.2,0.4-0.2,1c0.5,0.3,0.6,0.5,1.4,0.5C441.7,228.7,441.8,228.6,441.8,228.6z M429.8,229.2
			c-0.2,0.3-0.1,0.4-0.1,1c0.4,0,0.8,0.1,1.2,0.1c0.1-0.1,0.3-0.3,0.4-0.4c0-0.1,0.1-0.2,0.1-0.3c-0.3-0.3-0.6-0.6-1-0.9
			C430.3,228.9,430,229.1,429.8,229.2z M435.1,228.8c-0.2,0.8,0.3,1.3,1,1.6c0.1,0,0.2-0.1,0.3-0.1c0.3-0.4,0.2-0.5,0.3-1.1
			C436.2,228.9,436,228.8,435.1,228.8z M382.9,230.3c-0.3,0-0.6,0-1,0c-0.1,0.5-0.2,0.7-0.1,1.2c0.2,0.4,0.1,0.3,0.5,0.4
			c0.2,0,0.4,0,0.5,0c0.2-0.3,0.5-0.9,0.1-1.3C383,230.5,382.9,230.4,382.9,230.3z M342.4,230.9c0.1,0,0.2-0.1,0.3-0.1v-0.1
			c-0.1,0-0.2,0-0.3,0C342.4,230.7,342.4,230.8,342.4,230.9z M404.3,234c0-0.3,0-0.5,0-0.8c-0.5-0.4-0.6-0.7-1.7-0.6
			c-0.1,0.1-0.2,0.1-0.3,0.2c0,0.4,0,0.8,0,1.2c0.4,0.2,0.9,0.4,1.3,0.6C403.8,234.4,404,234.2,404.3,234z M407.6,234.4
			c0.1-0.4,0.1-0.7,0.2-1.1c-0.4-0.3-0.8-0.5-1.2-0.8c-0.1,0.2,0,0-0.2,0.1c-0.3,0.2-0.5,0.4-0.8,0.6c0,0.7,0.4,1,1,1.4
			C407,234.6,407.3,234.5,407.6,234.4z M373,234.1c0.2,0.2,0.4,0.4,0.6,0.5c0.1,0,0.3,0,0.4,0c0.2-0.2,0.4-0.4,0.5-0.5
			c0-0.1,0-0.3,0-0.4v-0.1c-0.4-0.3-0.5-0.4-1.3-0.4c-0.1,0.1-0.2,0.3-0.3,0.4C373,233.7,373,233.9,373,234.1z M444.2,235.4
			c0.1-0.4,0.3-0.7,0.4-1.1c0-0.1-0.1-0.1-0.1-0.2c-0.4,0-0.9-0.1-1.3-0.1c-0.1,0.1-0.1,0.2-0.2,0.3l-0.1,0.1c0,0.6,0.1,0.6,0.4,0.9
			C443.7,235.5,443.7,235.4,444.2,235.4z M430.9,234.8c-0.1,0.3-0.1,0.5-0.2,0.8c0.2,0.3,0.4,0.5,0.6,0.8c0.3,0,0.5-0.1,0.8-0.1
			c0.2-0.4,0.2-0.5,0.3-1.1c-0.3-0.3-0.7-0.4-1.3-0.4C431,234.8,431,234.8,430.9,234.8z M438.9,234.8c-0.2,0.4-0.2,0.7-0.1,1.2
			c0.1,0.1,0.3,0.1,0.4,0.2c0.3,0,0.5,0,0.8,0c0.1-0.1,0.2-0.3,0.3-0.4c-0.1-0.3-0.1-0.6-0.2-0.9
			C439.7,234.9,439.3,234.9,438.9,234.8z M400.8,243c0,0.1-0.1,0.1-0.1,0.2c0.1,3.8,3.5,6.6,6.5,3.7c0.8-0.8,1.1-2.2,1.6-3.2
			c-0.3-0.3-0.5-0.6-0.8-0.9c-0.2,0-0.4,0-0.6,0c-0.4,0.9-0.7,1.9-1.1,2.8c-0.8,0.6-1.7,0.9-3.1,0.9c-0.3-0.4-0.6-0.7-1-1.1
			C401.8,244.1,402.5,242.8,400.8,243z M421.9,280.1c1.7-0.3,3-1.5,4.3-2.3c0.3,1.8,0.9,2.3,1.8,3.4c3.1,0.2,4.6-0.7,5.3-3.2
			c0.1-0.4,0.1-0.7,0.2-1.1c1-0.7,2.6-0.8,3.7-1.4c0.5-0.3,0.7-1,1-1.5c1.3-2.5-0.6-3.3-2.5-4.3c0.7-1.5,1-2.7,1.5-4.7
			c-1-1.6-1.9-1.7-3.7-1.2c-0.2-1.2-0.8-1.7-1.4-2.7c-0.4,0-0.7-0.1-1.1-0.1c-2.9,1.1-4.3,0.9-5.6,4.1c-0.1,0-0.1,0.1-0.2,0.1
			c-3.3-2.7-7.9-1.3-5.5,3.4c-1.4,0.6-4.8,2.2-3.8,4.6c0.7,1.9,2.3,1.7,4.2,1.4c-0.4,0.8-0.8,1.5-1.2,2.3c-0.3,1.3,0.8,3,2.3,3.1
			c0,0,0,0,0.1,0h0.1C421.6,280.2,421.7,280.2,421.9,280.1z M436.9,272.4l0.1,0.1c-0.2,1.4-1.5,2.6-3,2.7c0-0.1-0.1-0.1-0.1-0.2
			c0.6-1.1,0.6-2.4,0.8-3.7C435.8,271.3,436.5,271.7,436.9,272.4z M434.7,265.1c0.2,0,0.4,0,0.5,0c0.1,0.1,0.2,0.1,0.3,0.2
			c0.2,1.6-0.7,2.3-1.2,3.4c-0.1,0.1-0.3,0.2-0.4,0.3c-0.4-0.6-0.8-1.2-1.2-1.8C433.2,266.3,434,265.9,434.7,265.1z M429.2,279.9
			c-0.3-0.1-0.5-0.2-0.8-0.3c-0.1-0.3-0.3-0.6-0.4-0.9c0-0.3,0-0.5,0-0.8c1.2-0.2,2.4-0.4,3.3-1c0.1,0,0.3,0,0.4,0
			C431.8,278.9,430.8,279.7,429.2,279.9z M431,262.6c0.3,0.1,0.5,0.2,0.8,0.3c0.4,1.3,0,1.9-0.4,3.1c-1,0.1-2.5-0.8-4-0.4
			c-0.2-0.2-0.1-0.1-0.2-0.5C428.5,263.8,429.3,263.5,431,262.6z M421.6,265c1.5,0.1,2.2,0.7,3.1,1.3c0,0.1,0,0.2,0,0.3
			c-0.5,0.6-1.2,1.1-1.4,2C420.3,268.8,420.1,266.4,421.6,265z M418.5,273.7c-0.4-0.3-0.8-0.5-1.2-0.8c0.2-1.9,2.3-2.4,3.9-3
			c0.4,0.1,0.7,0.2,1.1,0.3c0.2,0.6,0.2,1.3,0.2,2.1C421.3,273.1,420,273.3,418.5,273.7z M420.7,277.9c-0.5-1.3,1.2-2.9,1.9-3.5
			c0.7,0.8,1.4,1.6,2,2.5c0.1,0.1,0.1,0.1,0.2,0.2c-1,0.5-2.1,1.6-3.3,1.4C421.1,278.5,420.9,278.3,420.7,277.9z M394.6,272.8
			c-2.3,2.2-1.4,5.8,2.4,5c0.6,2.4,1.2,6,4.6,4.6c0.9-0.5,1.7-1,2.6-1.5c0.6,0.4,1.2,0.9,1.8,1.3c1.3-0.4,2.6-0.7,4-1.1
			c0.8-1.2,1.2-2.5,0.2-3.8c1.9-1.3,5.2-2.5,3.3-5.3c-0.6-0.9-1.2-1.5-2.5-1.7c0.2-1.7,2.6-3.3-0.3-4.7c-0.8-0.4-1.3-0.6-2.3-0.2
			c-1-0.2-1.6-1.5-2.6-2c-0.7,0.3-1.4,0.6-2,0.9c-0.2,0.2-0.4,0.4-0.6,0.6c-1-1.9-3.1-1.7-5-1c-0.5,0.8-0.4,1.4-0.3,2.6
			c-2.4,0.1-3.9,1.4-4.8,2.9C393,271.5,393.7,271.9,394.6,272.8z M412.4,273.6c-0.4,0.8-1.1,1.7-2,1.9c0.3-1.4,0.3-2.5,0.2-3.5
			C411.7,272,412.3,272.6,412.4,273.6z M409.2,266.8c0.3,0.1,0.6,0.1,1,0.2c0.1,0.1,0.2,0.1,0.3,0.2c-0.1,0.5-0.2,0.9-0.3,1.4
			c-1.2,0.9-0.8-0.1-2.3-0.4C408.2,267.5,408.5,267.3,409.2,266.8z M408.6,278.3c0.6,0.2,0.6,0.4,0.8,1c-0.7,0.6-1.7,1.1-2.8,1.3
			c-0.3-0.1-0.5-0.2-0.8-0.3c-0.1-0.1-0.1-0.2-0.2-0.3C406.6,279.2,407.8,279.2,408.6,278.3z M404.9,265.8c0.2-0.1,0.4-0.3,0.6-0.4
			c0.6,0.2,0.7,0.4,1,0.9c0,0.2,0,0.4,0,0.5c-0.1,0.1-0.3,0.3-0.4,0.4c-0.4-0.1-0.9-0.2-1.3-0.3
			C404.6,266.4,404.7,266.4,404.9,265.8z M395.9,276.6c-0.4,0.2-0.6-0.2-1-0.3c0-0.4-0.1-0.7-0.1-1.1c0.7-0.9,1.2-1.5,2.1-2.1
			c0.3,0.9,0.5,1.8,0.8,2.7C397.3,276.2,396.6,276.5,395.9,276.6z M400.2,264.6c0.3,0,0.6,0,1,0c0.5,0.6,1,0.9,1.3,1.7v0.1
			c-0.9,0.2-1.7,0.4-2.6,0.6c-0.4-0.7-0.6-1.3-0.8-1.9C399.5,264.9,399.8,264.8,400.2,264.6z M398.7,277.6c1.2,0.4,2.5,1.5,3.9,2.1
			c0.1,0,0.1,0.1,0.2,0.1c-0.7,0.4-1.4,0.9-2,1.3c-0.4-0.1-0.7-0.1-1.1-0.2C399,280.1,398.6,279.1,398.7,277.6z M398.4,268
			c0.1,0,0.1,0,0.2,0c-0.4,1-0.8,2-1.2,3c-0.7,0.1-1.5,0.5-2.1,0.2c-0.2-0.1-0.4-0.3-0.6-0.4C394.5,268.6,396.5,268.7,398.4,268z
			 M377.2,277.7c-1.8,2-3.9,2.4-2.5,6.2c1.5,1,3.1,0.5,4.5-0.2c0.9,2.4,0.3,4.4,3.7,4.3c0.7-0.7,1.5-1.5,1.9-2.5
			c0.1,0,0.1-0.1,0.2-0.1c2.4,1.6,3.7,1.3,6-0.1c0.5-2.3,0-4.2-1.8-4.9v-0.1c0.7-0.8,1.9-1,2.6-1.8c0.5-1.8-0.4-3.9-2.5-4
			c0.1-1.1,0.4-2-0.2-2.8c-1.5-2.9-6.6-0.2-7.4,1.7c-0.1,0-0.1,0.1-0.2,0.1c-0.5-0.5-0.9-0.8-1.6-1.2
			C376.7,272.3,376.3,275.2,377.2,277.7z M389.3,284.7c-0.5,0.2-1,0.4-1.5,0.5c-0.9-0.5-1.5-0.9-2-1.7v-0.1c0.9-0.5,1.7-1,2.4-1.8
			c0.1,0,0.2,0,0.3,0C389.7,282.4,389.9,283.2,389.3,284.7z M389,276.1c0.2,0,0.4,0,0.5,0c0.2,0.1,0.4,0.3,0.6,0.4
			c0.3,0.4,0.3,0.6,0.2,1.2c-0.6,0.3-1.2,0.6-1.8,0.9c-0.1-0.9-0.3-1.4-0.6-2c0.1-0.1,0.2-0.2,0.3-0.3
			C388.5,276.1,388.8,276.1,389,276.1z M385.9,272c0.5,0.1,1,0.1,1.5,0.2c0.2,0.1,0.4,0.3,0.5,0.4c0,1.2-0.6,2.2-1.5,2.5
			c-1.2-0.1-2.4-0.1-3.5-0.2C383.4,273.3,384.5,272.7,385.9,272z M383.7,283.6c0.1,0,0.1,0,0.2,0c-0.2,1.3-0.9,1.9-1.6,2.7
			c-0.1,0-0.3,0-0.4,0c-0.3-0.3-0.5-0.6-0.8-0.9c-0.4-0.8,0-1.9,0.2-2.6C382.1,283.1,382.9,283.3,383.7,283.6z M378.4,274.5
			c0.3-0.3,0.6-0.6,1-1c0.9,0.2,1.1,0.7,1.6,1.3c-0.1,1-0.4,1.5-0.8,2.3c-0.4,0.2-0.8,0.4-1.4,0.1c-0.3-0.2-0.5-0.4-0.8-0.5
			C378.1,276,378.1,275,378.4,274.5z M378.3,279c0.4,0.1,0.7,0.1,1.1,0.2c0.3,0.6,0.4,2,0.5,2.7c-1.3,0.4-2,1.3-3.7,1.3
			c-0.1-0.3-0.3-0.5-0.4-0.8C375.1,280.6,377.1,279.6,378.3,279z M375.6,295.3c0.4-0.1,0.7-0.1,1.1-0.2c0.1-0.5,0.1-1.1-0.1-1.5
			c-0.4-0.6-0.9-0.6-1.6-0.8c-0.2,0.1-0.4,0.1-0.5,0.2c-0.1,0.2-0.1,0.4-0.2,0.5C374.6,294.5,374.8,294.8,375.6,295.3z M400.3,293.9
			c-0.2,0.2-0.4,0.4-0.6,0.5c0.1,1.1,0.5,1.5,1.2,2c0.4,0,0.7-0.1,1.1-0.1c0.1-0.2,0.1-0.4,0.2-0.5
			C402.5,294.7,401.3,294,400.3,293.9z M421.1,296.5c0.1,0,0.1-0.1,0.2-0.1c0.3-1.6-0.4-2.2-1.8-2.4c-0.8,0.6-0.5,1.3-0.1,2.1
			C420,296.5,420.4,296.6,421.1,296.5z M438.4,297.3c0.3,0,0.6-0.1,1-0.1c0.2-0.4,0.2-0.8,0.2-1.4c-0.4-0.6-0.9-1-1.9-1.1
			c-0.1,0.1-0.2,0.1-0.3,0.2c-0.2,0.8,0,1.2,0.2,1.8C437.8,297,438.1,297.1,438.4,297.3z M383.8,295.2c-0.5-0.1-0.9-0.1-1.4-0.2
			c-0.1,0-0.1,0.1-0.2,0.1c-0.3,0.6-0.1,1.2,0.1,1.8c0.4,0.2,0.7,0.4,1.1,0.6c0.3,0,0.6-0.1,1-0.1c0.2-0.4,0.3-0.7,0.2-1.2
			C384.3,295.9,384,295.5,383.8,295.2z M389.9,295.3c-0.5,0-1-0.1-1.5-0.1c-0.1,0.1-0.1,0.2-0.2,0.3c0,0.9,0.3,1.5,1,1.8
			c0.4,0,0.9,0.1,1.3,0.1c0.2-0.4,0.3-0.9,0.1-1.4C390.3,295.8,390.1,295.5,389.9,295.3z M410.1,297.3c-0.1,0.1-0.3,0.3-0.4,0.4
			c0.3,1.2,0.7,1.4,1.2,2.3c0.4-0.1,0.8-0.3,1.2-0.4c0.1-0.6,0-1.1-0.1-1.6C411.4,297.6,411.1,297.3,410.1,297.3z M372.1,300.5
			c0.1,0,0.3-0.1,0.4-0.1c0.2-0.3,0.4-0.7,0.1-1.3c-0.3-0.7-0.7-0.9-1.6-1c-0.1,0-0.3,0.1-0.4,0.1c-0.1,0.1-0.2,0.1-0.3,0.2
			c0.1,0.5,0.2,0.9,0.3,1.4C371,300.3,371.2,300.5,372.1,300.5z M430.4,300.9c0.1-0.1,0.1-0.3,0.2-0.4c0.3-0.6,0-1.3-0.4-1.6
			c-0.4-0.3-0.7-0.3-1.4-0.3c-0.1,0.2-0.3,0.4-0.4,0.5c0.1,0.4,0.3,0.8,0.4,1.2C429.1,300.7,429.6,300.9,430.4,300.9z M424.3,302.4
			c0.2-0.5,0.2-1.5-0.2-1.9c-0.3-0.4-0.9-0.5-1.6-0.5c-0.5,0.6-0.5,1.4,0,2C422.9,302.4,423.5,302.4,424.3,302.4z M381.8,302.9
			c0.1,0,0.1-0.1,0.2-0.1c0.6-0.9,0.1-1.8-0.8-2.3c-0.4,0-0.9,0-1.3,0c-0.1,0.1-0.1,0.2-0.2,0.3c0.1,0.5,0.2,0.9,0.3,1.4
			C380.6,302.6,380.9,302.9,381.8,302.9z M402.7,301.3c-0.1,0.1-0.2,0.1-0.3,0.2c-0.1,0.6-0.1,1.1,0.3,1.5c0.3,0.6,0.8,0.8,1.7,0.8
			c0.1,0,0.1-0.1,0.2-0.1c0.1-0.3,0.2-0.5,0.3-0.8c-0.2-0.4-0.4-0.9-0.6-1.3C403.8,301.4,403.4,301.3,402.7,301.3z M375.1,303.4
			c-0.1,0.1-0.3,0.1-0.4,0.2c-0.5,0.5,0.1,1.7,0.8,2c1.3,0.7,1.6-0.4,1.4-1.5C376.2,303.8,376.1,303.5,375.1,303.4z M391.9,303.7
			c-0.2,0.1-0.4,0.1-0.6,0.2c-0.2,1,0.3,1.7,1,2.1c0.6,0.1,1.1,0.2,1.4-0.3c0.2-0.3,0.1-0.6,0-1.2
			C393.1,304.1,392.9,303.7,391.9,303.7z M441.6,307.3c0.3,0.1,0.6,0.1,0.9,0.2c0.1,0,0.2-0.1,0.3-0.1c0.5-0.7,0.3-1,0.1-1.9
			c-0.5-0.3-0.9-0.5-1.7-0.5c-0.1,0.2-0.3,0.4-0.4,0.6c0,0.2,0,0.4,0,0.5C441,306.6,441.1,307.1,441.6,307.3z M434.5,308.2
			c0.4,0,0.7,0,1.1,0c0.7-0.4,0.2-1.5,0-2c-0.5-0.1-1-0.3-1.5-0.4c-0.3,0.4-0.5,0.6-0.6,1.2C433.7,307.4,434,307.9,434.5,308.2z
			 M410.8,307c-0.4-0.1-0.9-0.3-1.3-0.4c-0.2,0.2-0.4,0.4-0.5,0.5c0,1.1,0.4,1.6,1.2,1.9c0.6,0,0.8,0,1.1-0.3
			C411.7,308.1,411.3,307.3,410.8,307z M422.5,308c0,1.2,0.9,2.4,2.1,1.7c0.1-0.1,0.3-0.3,0.4-0.4c-0.1-0.5-0.2-0.9-0.3-1.4
			c-0.6-0.2-1.1-0.4-1.7-0.5C422.9,307.5,422.7,307.7,422.5,308z M381.2,308.5c-0.2,0.2-0.4,0.4-0.5,0.6c0.3,1.1,0.7,1.9,1.7,2.3
			c0.9-0.6,1-0.8,0.9-2C382.6,308.9,382.3,308.5,381.2,308.5z M398.9,309.9c-0.4-0.3-0.7-0.6-1.1-1c-0.3,0-0.6,0-1,0
			c-0.1,0.1-0.2,0.1-0.3,0.2c0,0.3-0.1,0.6-0.1,1c0.4,0.4,0.5,0.8,1.1,1.1c0.4,0,0.9,0,1.3,0C398.8,310.7,398.9,310.3,398.9,309.9z
			 M415.4,310.7c-0.1,0.2-0.3,0.4-0.4,0.6c0.1,0.9,0.4,1.4,1.1,1.7c0.4,0,0.8,0.1,1.2,0.1C418.2,311.7,416.9,310.7,415.4,310.7z
			 M371.5,311.5c-0.3,0.2-0.5,0.4-0.8,0.5c0.3,0.9,0.6,1.5,1.4,1.9c0.3-0.1,0.6-0.2,1-0.3c0.4-0.3,0.3-0.6,0.2-1.3
			C372.8,311.9,372.6,311.5,371.5,311.5z M387.4,311.9c-0.2,0.1-0.4,0.2-0.6,0.3c0.1,0.5,0.2,0.9,0.3,1.4c0.6,0.5,1,0.7,1.9,0.5
			c0.4-0.7,0.2-1-0.1-1.7C388.5,312.2,388.2,312,387.4,311.9z M443.7,315.6c0.4,0,0.8,0.1,1.2,0.1c0.6-0.8,0.3-1.2,0-1.9
			c-0.5-0.1-1.1-0.2-1.6-0.3c-0.2,0.4-0.3,0.6-0.3,1.3C443.2,315,443.4,315.3,443.7,315.6z M398.8,314.4c-0.1,0.1-0.1,0.3-0.2,0.4
			c-0.2,0.6,0.3,1.2,0.6,1.6c0.4,0.1,0.9,0.2,1.3,0.3c0.2-0.1,0.4-0.3,0.5-0.4C401,314.8,400.5,314.3,398.8,314.4z M430.4,317.7
			c0.1,0,0.2-0.1,0.3-0.1c0-0.4,0.1-0.7,0.1-1.1c-0.3-0.5-0.4-0.7-1-0.9c-0.3-0.2-0.6-0.2-1.2-0.2c-0.1,0.1-0.2,0.2-0.3,0.3
			C428.2,317,429.1,318.5,430.4,317.7z M438.1,318c0.2-0.4,0.3-0.6,0.3-1.3c-0.5-0.6-1-0.9-1.9-1.1c-0.1,0.2-0.3,0.4-0.4,0.6
			c0.1,0.5,0.2,0.9,0.3,1.4C436.9,318.1,437.3,318.2,438.1,318z M407.2,316.7c-0.3-0.3-0.9-0.3-1.5-0.3c-0.1,0.2-0.3,0.4-0.4,0.5
			c0.1,1.1,0.6,1.4,1.3,1.8c0.4-0.1,0.7-0.1,1.1-0.2C407.9,317.7,407.6,317,407.2,316.7z M378.9,316.8c-0.1,0-0.3,0.1-0.4,0.1
			c-0.1,0.1-0.2,0.3-0.3,0.4c0.1,1,0.5,1.7,1.3,2c0.4,0.2,0.1,0.2,0.4-0.1c0.5-0.1,0.7-0.2,1-0.4c-0.1-0.4-0.2-0.9-0.3-1.3
			C380.2,316.9,379.7,316.9,378.9,316.8z M419.9,317.3c-0.2,0.2-0.4,0.4-0.6,0.6c0,1.3,1,2.1,2.3,1.6c0.1-0.3,0.2-0.6,0.3-1
			c-0.1-0.3-0.3-0.6-0.4-0.9C420.9,317.6,420.4,317.4,419.9,317.3z M391.7,317.4c-0.3,0.2-0.4,0.2-0.6,0.4c-0.2,0.7,0.2,1.1,0.4,1.6
			c0.4,0.1,0.9,0.3,1.3,0.4c0.2-0.1,0.4-0.1,0.5-0.2c0.1-0.3,0.1-0.6,0.2-0.9c-0.3-0.4-0.5-0.6-0.6-1.1
			C392.5,317.6,392.1,317.5,391.7,317.4z M370.8,317.8c-0.1,0.2-0.3,0.4-0.4,0.6c0.1,1.1,0.8,1.5,1.4,2.1c0.1,0,0.3,0,0.4,0
			c0.3-0.3,0.6-0.5,0.9-0.8c0-0.4-0.1-0.9-0.1-1.3C372.3,318.1,372,317.8,370.8,317.8z M429.9,321.4c-0.1,0.2-0.2,0.4-0.3,0.5
			c0,0.1-0.1,0.2-0.1,0.3c0.4,0.6,0.7,0.9,1.2,1.4c0.3,0,0.6-0.1,0.9-0.1C432.4,322.3,431.8,321.2,429.9,321.4z M441.1,325
			c0.8,0,0.7-0.2,1.3-0.4c0.1-0.6,0-0.8-0.2-1.3c-0.5-0.3-0.7-0.4-1.5-0.4c-0.2,0.3-0.4,0.5-0.5,0.8c0.1,0.3,0.3,0.6,0.4,1
			C440.7,324.7,440.9,324.9,441.1,325z"/>
	</g>
</g>
<g>
	<g>
		<path class="st1" d="M446.5,316.2c0-1.8,0.1-3.6,0.1-5.4c-0.3-1.6-0.6-3.3-0.9-4.9c-0.6-5-1.1-10-1.7-14.9
			c-6.6,0.4-15.7,0.3-22.2,1c-2.5-0.1-5-0.1-7.5-0.2c-2,0.3-4.8,0.1-6.7-0.1c-2.6,0-5.2-0.1-7.8-0.1c-1.5,0-3.1,0.1-4.6,0.1
			c-5-0.4-10.6-0.2-15.2-1c-3.6-0.6-5.8,0.1-8.9-0.9c-0.4,1.4-1.4,7.4-1.1,8.3c-1.4,5-2.5,14.4-2.1,18.5c0.2,2.4-0.5,4.7,0.2,7
			c3.5-0.5,7-1.1,10.5-1.6c7.4-1.3,17.7-2.3,25.4-1.5c1.9,0.1,3.8,0.1,5.7,0.2c6.4,1,12.8,2.1,19.2,3.1c5.6,1.4,11.9,3.6,17.4,3.5
			c0-2.5,0.1-4.7,0.5-7.5C446.7,318.6,446.6,317.4,446.5,316.2z M380,300.5c0.4,0,0.9,0,1.3,0c0.8,0.4,1.3,1.3,0.8,2.3
			c-0.1,0-0.1,0.1-0.2,0.1c-0.9,0-1.2-0.3-1.7-0.6c-0.1-0.5-0.2-0.9-0.3-1.4C379.9,300.8,379.9,300.7,380,300.5z M370.6,298.3
			c0.1,0,0.3-0.1,0.4-0.1c0.9,0.1,1.3,0.3,1.6,1c0.3,0.6,0.1,0.9-0.1,1.3c-0.1,0-0.3,0.1-0.4,0.1c-0.8-0.1-1-0.3-1.5-0.6
			c-0.1-0.5-0.2-0.9-0.3-1.4C370.3,298.4,370.4,298.4,370.6,298.3z M372.2,320.6c-0.1,0-0.3,0-0.4,0c-0.6-0.7-1.3-1-1.4-2.1
			c0.1-0.2,0.3-0.4,0.4-0.6c1.2,0,1.5,0.3,2.1,0.8c0,0.4,0.1,0.9,0.1,1.3C372.7,320.1,372.4,320.4,372.2,320.6z M373.1,313.6
			c-0.3,0.1-0.6,0.2-1,0.3c-0.8-0.5-1.1-1-1.4-1.9c0.3-0.2,0.5-0.4,0.8-0.5c1.1,0,1.2,0.4,1.8,0.9
			C373.4,313,373.5,313.3,373.1,313.6z M374.4,293c0.2-0.1,0.4-0.1,0.5-0.2c0.7,0.1,1.2,0.2,1.6,0.8c0.2,0.4,0.2,1,0.1,1.5
			c-0.4,0.1-0.7,0.1-1.1,0.2c-0.8-0.5-1-0.8-1.4-1.7C374.3,293.4,374.3,293.2,374.4,293z M375.4,305.7c-0.6-0.3-1.3-1.5-0.8-2
			c0.1-0.1,0.3-0.1,0.4-0.2c1,0,1.2,0.3,1.7,0.8C377,305.3,376.7,306.4,375.4,305.7z M379.9,319.2c-0.3,0.3,0,0.3-0.4,0.1
			c-0.8-0.3-1.2-1.1-1.3-2c0.1-0.1,0.2-0.3,0.3-0.4c0.1,0,0.3-0.1,0.4-0.1c0.8,0.2,1.3,0.1,1.6,0.8c0.1,0.4,0.2,0.9,0.3,1.3
			C380.6,319.1,380.4,319.1,379.9,319.2z M382.4,311.4c-1-0.4-1.4-1.2-1.7-2.3c0.2-0.2,0.4-0.4,0.5-0.6c1.2,0,1.4,0.4,2,0.9
			C383.4,310.6,383.3,310.7,382.4,311.4z M384.3,297.4c-0.3,0-0.6,0.1-1,0.1c-0.4-0.2-0.7-0.4-1.1-0.6c-0.2-0.6-0.4-1.2-0.1-1.8
			c0.1,0,0.1-0.1,0.2-0.1c0.5,0.1,0.9,0.1,1.4,0.2c0.3,0.4,0.5,0.7,0.8,1.1C384.6,296.7,384.5,297.1,384.3,297.4z M389,314.2
			c-1,0.1-1.3-0.1-1.9-0.5c-0.1-0.5-0.2-0.9-0.3-1.4c0.2-0.1,0.4-0.2,0.6-0.3c0.7,0,1.1,0.2,1.5,0.5
			C389.2,313.2,389.4,313.5,389,314.2z M390.4,297.4c-0.4,0-0.9-0.1-1.3-0.1c-0.6-0.3-0.9-0.9-1-1.8c0.1-0.1,0.1-0.2,0.2-0.3
			c0.5,0,1,0.1,1.5,0.1c0.2,0.3,0.4,0.5,0.6,0.8C390.7,296.5,390.6,297.1,390.4,297.4z M393.3,319.7c-0.2,0.1-0.4,0.1-0.5,0.2
			c-0.4-0.1-0.9-0.3-1.3-0.4c-0.2-0.6-0.7-1-0.4-1.6c0.2-0.3,0.4-0.3,0.6-0.4c0.4,0.1,0.8,0.2,1.2,0.3c0.1,0.5,0.4,0.7,0.6,1.1
			C393.5,319.1,393.4,319.4,393.3,319.7z M393.6,305.7c-0.3,0.5-0.8,0.5-1.4,0.3c-0.7-0.4-1.2-1.1-1-2.1c0.2-0.1,0.4-0.1,0.6-0.2
			c1,0,1.2,0.4,1.7,0.9C393.7,305.1,393.9,305.4,393.6,305.7z M397.5,311.2c-0.6-0.3-0.7-0.6-1.1-1.1c0-0.3,0.1-0.6,0.1-1
			c0.1-0.1,0.2-0.1,0.3-0.2c0.3,0,0.6,0,1,0c0.4,0.3,0.7,0.6,1.1,1c0,0.4-0.1,0.9-0.1,1.3C398.4,311.2,397.9,311.2,397.5,311.2z
			 M400.5,316.8c-0.4-0.1-0.9-0.2-1.3-0.3c-0.3-0.4-0.8-1-0.6-1.6c0.1-0.1,0.1-0.3,0.2-0.4c1.7-0.1,2.2,0.4,2.3,1.9
			C400.9,316.5,400.7,316.6,400.5,316.8z M402.1,295.8c-0.1,0.2-0.1,0.4-0.2,0.5c-0.4,0-0.7,0.1-1.1,0.1c-0.6-0.5-1.1-0.9-1.2-2
			c0.2-0.2,0.4-0.4,0.6-0.5C401.3,294,402.5,294.7,402.1,295.8z M404.6,303.7c-0.1,0-0.1,0.1-0.2,0.1c-0.9,0-1.4-0.1-1.7-0.8
			c-0.4-0.4-0.5-0.9-0.3-1.5c0.1-0.1,0.2-0.1,0.3-0.2c0.8,0,1.1,0.1,1.6,0.3c0.2,0.4,0.4,0.9,0.6,1.3
			C404.8,303.2,404.7,303.4,404.6,303.7z M407.6,318.5c-0.4,0.1-0.7,0.1-1.1,0.2c-0.7-0.5-1.2-0.7-1.3-1.8c0.1-0.2,0.3-0.4,0.4-0.5
			c0.6,0,1.2,0,1.5,0.3C407.6,317,407.9,317.7,407.6,318.5z M411.2,308.7c-0.3,0.3-0.5,0.3-1.1,0.3c-0.8-0.4-1.2-0.8-1.2-1.9
			c0.2-0.2,0.4-0.4,0.5-0.5c0.4,0.1,0.9,0.3,1.3,0.4C411.3,307.3,411.7,308.1,411.2,308.7z M412,299.6c-0.4,0.1-0.8,0.3-1.2,0.4
			c-0.5-0.8-0.8-1.1-1.2-2.3c0.1-0.1,0.3-0.3,0.4-0.4c1,0,1.3,0.2,1.8,0.6C412,298.5,412.1,299,412,299.6z M428.7,298.5
			c0.7,0,1,0.1,1.4,0.3c0.4,0.3,0.7,1,0.4,1.6c-0.1,0.1-0.1,0.3-0.2,0.4c-0.8,0-1.3-0.2-1.6-0.6c-0.1-0.4-0.3-0.8-0.4-1.2
			C428.5,298.9,428.6,298.7,428.7,298.5z M417.3,313.2c-0.4,0-0.8-0.1-1.2-0.1c-0.7-0.3-1-0.8-1.1-1.7c0.1-0.2,0.3-0.4,0.4-0.6
			C416.9,310.7,418.2,311.7,417.3,313.2z M419.5,294c1.4,0.2,2.1,0.8,1.8,2.4c-0.1,0-0.1,0.1-0.2,0.1c-0.7,0.1-1.1,0-1.7-0.3
			C419,295.3,418.7,294.6,419.5,294z M421.6,319.6c-1.3,0.5-2.2-0.3-2.3-1.6c0.2-0.2,0.4-0.4,0.6-0.6c0.5,0.1,1,0.3,1.5,0.4
			c0.1,0.3,0.3,0.6,0.4,0.9C421.8,318.9,421.7,319.2,421.6,319.6z M422.5,299.9c0.7,0,1.3,0.1,1.6,0.5c0.4,0.5,0.5,1.4,0.2,1.9
			c-0.9,0.1-1.5,0-1.8-0.4C422,301.3,422,300.5,422.5,299.9z M424.7,309.7c-1.2,0.6-2.1-0.5-2.1-1.7c0.2-0.2,0.4-0.4,0.5-0.6
			c0.6,0.2,1.1,0.4,1.7,0.5c0.1,0.5,0.2,0.9,0.3,1.4C425,309.4,424.8,309.5,424.7,309.7z M428.3,315.8c0.1-0.1,0.2-0.2,0.3-0.3
			c0.6,0,0.9,0,1.2,0.2c0.6,0.2,0.7,0.4,1,0.9c0,0.4-0.1,0.7-0.1,1.1c-0.1,0-0.2,0.1-0.3,0.1C429.1,318.5,428.2,317,428.3,315.8z
			 M431.5,323.5c-0.3,0-0.6,0.1-0.9,0.1c-0.5-0.5-0.8-0.8-1.2-1.4c0-0.1,0.1-0.2,0.1-0.3c0.1-0.2,0.2-0.4,0.3-0.5
			C431.8,321.2,432.4,322.3,431.5,323.5z M435.6,308.2c-0.4,0-0.7,0-1.1,0c-0.6-0.3-0.8-0.7-1.1-1.3c0.2-0.5,0.4-0.8,0.6-1.2
			c0.5,0.1,1,0.3,1.5,0.4C435.8,306.7,436.3,307.7,435.6,308.2z M438.1,318c-0.8,0.2-1.2,0-1.7-0.3c-0.1-0.5-0.2-0.9-0.3-1.4
			c0.1-0.2,0.3-0.4,0.4-0.6c1,0.2,1.4,0.5,1.9,1.1C438.4,317.5,438.3,317.7,438.1,318z M439.4,297.2c-0.3,0-0.6,0.1-1,0.1
			c-0.3-0.2-0.6-0.4-0.9-0.5c-0.2-0.6-0.4-1.1-0.2-1.8c0.1-0.1,0.2-0.1,0.3-0.2c1,0,1.5,0.4,1.9,1.1
			C439.6,296.4,439.6,296.9,439.4,297.2z M442.4,324.6c-0.6,0.2-0.5,0.4-1.3,0.4c-0.2-0.1-0.4-0.3-0.5-0.4c-0.1-0.3-0.3-0.6-0.4-1
			c0.2-0.3,0.4-0.5,0.5-0.8c0.8,0,1.1,0.2,1.5,0.4C442.3,323.8,442.5,324,442.4,324.6z M442.5,307.5c-0.3-0.1-0.6-0.1-0.9-0.2
			c-0.5-0.3-0.6-0.7-0.9-1.2c0-0.2,0-0.4,0-0.5c0.1-0.2,0.3-0.4,0.4-0.6c0.8,0,1.2,0.3,1.7,0.5c0.2,0.9,0.4,1.2-0.1,1.9
			C442.7,307.5,442.6,307.5,442.5,307.5z M444.9,315.7c-0.4,0-0.8-0.1-1.2-0.1c-0.3-0.3-0.5-0.6-0.8-0.9c0-0.7,0.1-0.9,0.3-1.3
			c0.5,0.1,1.1,0.2,1.6,0.3C445.2,314.5,445.5,314.9,444.9,315.7z M382.1,324.7c0.2-0.1,0.4-0.3,0.6-0.4c0.1-0.5,0.1-1,0.2-1.5
			c-0.4,0-0.7,0-1.1,0c-4.5,0.7-9.1,1.4-13.6,2.1c-0.1,0.5-0.1,1-0.2,1.5c3.3-0.5,6.5-0.9,9.8-1.4
			C379.3,324.8,381.5,325.4,382.1,324.7z M434,326.6c-0.1,0.4-0.3,0.8-0.1,1.3c4,0,8.5,1.2,11.5,2.5c0-0.1,0-0.1,0-0.2
			c0-0.3-0.1-0.6-0.1-0.9C444.7,328.5,435.8,326.8,434,326.6z M367.5,330.7c0.2,0,0.4,0,0.5,0c4.4-1.3,10.1-1.4,14.6-1.4
			c0.1-0.6,0.2-1.7-0.1-2.1h-0.1c-1.1,0.9-2.4,0.2-4,0.4c-3.2,0.5-7.4,1.8-10.7,1.4C367.7,329.6,367.6,330.1,367.5,330.7z
			 M433.9,330.4c-0.1,0.5-0.2,1.1,0.1,1.4c2.1,1.1,4.3,0.1,7.1,0.8c1.4,0.3,2.3,1,4.2,1.1c0-0.4,0-0.7,0-1.1
			c-3.4-1.3-6.5-2.1-11-2.3C434.2,330.3,434,330.4,433.9,330.4z M382.7,333.4c0-0.5,0.1-1.1,0.1-1.6c-1.2,0-2.4,0-3.5,0
			c-1.3,0.6-3,0.1-4.4,0.3c-2.5,0.5-4.9,0.9-7.4,1.4c0,0.4-0.1,0.8-0.1,1.2c0.1,0,0.2,0.1,0.3,0.1
			C371.3,333.7,378.6,333.1,382.7,333.4z M438.1,333.7c-0.1,0-0.2,0-0.3,0c0.1,0.1,0.1,0.2,0.2,0.3
			C438,333.9,438.1,333.8,438.1,333.7z M433.6,334.5c0,0.5,0,1,0,1.5c1.1,0.1,2.5,0.1,3.1,0.8c2.1-1.7,5.5,1.3,8.1,0.6
			c0-0.4,0-0.9,0-1.3c-1.3-1.6-5.2-1.4-6.8-1.8C437,335,435,334.1,433.6,334.5z M382.6,337.9c0-0.6-0.1-1.3-0.1-1.9
			c-1.4,0-2.7,0-4.1,0c-2.1,0.8-10.1,0.3-11.1,1.7c-0.2,0.4-0.1,1.1,0.1,1.4C370.3,338.2,379.5,337.3,382.6,337.9z M444.5,340
			c-1.4-0.1-2.5-0.9-3.3-1.4c-1.6,0.4-3.2-0.1-4.7-0.4c-0.8,0.4-1.9,0.3-3,0.3c0,0.1-0.1,0.2-0.1,0.3c0,0.1,0.1,0.1,0.1,0.2
			c0,1.2,4.5,0.8,5.3,2.1c0-0.1,0.1-0.2,0.1-0.3c-0.1,0-0.1-0.1-0.2-0.1c0.1-0.1,0.1-0.1,0.2-0.2c0.1,0,3.1,0.9,3.1,1
			c-0.2,0-0.4,0.1-0.5,0.1c0.1,0,0.1,0.1,0.2,0.1c0.1,0.1,0.1,0.2,0.2,0.3h0.1c0.4-0.4,0.3,0,0.3-0.6c0.7,0.2,1.5,0.8,2.4,0.3
			C444.5,341.2,444.5,340.7,444.5,340z M379.8,342c1,0.2,2.9,0.3,2.8-0.2c0-0.5,0.1-0.9,0.1-1.4c-4.8,0.2-11.3,0-15.5,1.3
			c0,0.4-0.1,0.9-0.1,1.3C371,343,376.5,341.2,379.8,342z M443.1,344c-0.5-0.3-0.7-0.8-0.5-1.4c-2.6,1.2-5.9-1.2-9.3-0.5
			c0,0.6-0.1,1.2,0.2,1.5c2.2,0.9,3.5,0.2,5,1.3c0-0.2,0-0.4,0-0.5c2.2,0.1,3.9,0.8,5.8,1.3c0-0.1,0.1-0.1,0.1-0.2
			c0-0.4-0.1-0.8-0.1-1.2C443.9,344.2,443.5,344.1,443.1,344z M382.5,346c0-0.5-0.1-0.9-0.1-1.4c-2.8,0.1-13.5-0.2-15.1,1.2
			c0,0.4-0.1,0.8-0.1,1.2C372,346.8,377.3,345.6,382.5,346z M439.2,346.6c-1.6,0.1-3.4-0.4-5.6-0.4c-0.3,0.4-0.4,0.6-0.4,1.3
			c0.6,0.4,10.5,2.2,10.8,2.1c0.1-0.6,0.1-1.1,0.2-1.7h-0.1C442.9,348.2,440.3,347.2,439.2,346.6z M370.9,350.2
			c2.8-0.6,9.5-1.1,11.7-0.1c0-0.1,0-0.1,0-0.2c0-0.5,0-1,0-1.5c-2,0-4-0.1-6-0.1c-1.7,0.6-9.3,0.4-9.2,1.7c0,0.1-0.1,0.3-0.1,0.4
			c0.1,0,0.1,0,0.2,0C368.4,350.8,369.9,350.3,370.9,350.2z M443.5,352.3c-2.9-1.2-6.4-1.9-10.3-1.9c0,0.6,0.1,1.3,0.1,1.9
			c1.9,0.1,10.3,2,10.3,2c0.2-0.3,0.2-1.7,0.1-2C443.6,352.3,443.5,352.3,443.5,352.3z M376,352.1c-2.9,0.3-5.7,0.6-8.6,1
			c0,0.6,0.1,1.1,0.1,1.7c3.5-0.3,7.1-0.6,10.6-0.9c1.5,0,2.9-0.1,4.4-0.1c0-0.5,0.1-0.9,0.1-1.4h-0.1
			C380.4,352.3,378.2,352.2,376,352.1z M434,354.7c-0.3,0.1-0.6,0.1-0.9,0.2c0,0.5,0,0.9,0,1.4c2.1,0.2,4.3,0.4,6.4,0.6
			c1.2,0.3,2.4,0.5,3.7,0.8c0-0.3,0.1-0.6,0.1-1c-0.1,0-0.1,0-0.2,0C440.5,355.6,437.1,355.2,434,354.7z M382.8,356.3
			c-4.5,0-11.2-0.3-15.4,1v0.1c0,0.3,0.1,0.6,0.1,0.9c5.1-0.3,10.2-0.6,15.2-0.9C382.8,357,382.8,356.6,382.8,356.3z M432.8,358.6
			c-0.2,0.8-0.2,1.8,0.2,1.8c2.6,0.5,7,0.1,9.2,1.6c0.1,0,0.2-0.1,0.3-0.1c0.1-0.8,0.3-1.2,0-1.8
			C439.6,359.4,436.3,358.7,432.8,358.6z M378.5,361.3c1.1,0.1,3.8,0.2,4.2-0.1c0-0.5,0.1-0.9,0.1-1.4c-2.6,0-14.1,0.4-14.9,1.3
			c0,0.4,0.1,0.7,0.1,1.1C371.5,362.1,375.2,361,378.5,361.3z M433,362.8c-0.2,0.1-0.4,0.1-0.5,0.2c0,0.5,0,0.9,0,1.4
			c3,0.3,6.5,1.1,9.1,1.9c0.2-0.7,0.4-1.4,0.5-2l-0.1-0.1C439.1,364.1,436,363,433,362.8z M383,365.6c-0.2-0.5-0.3-1.2-0.1-1.7
			l-0.1-0.1c-2,0-4.1-0.1-6.1-0.1c-2.3,0.8-7.4-0.2-8.5,1.7c0.1,0.4,0.1,0.8,0.2,1.2c4.6-0.2,9.2-0.7,14.6-0.6
			C383,365.8,383,365.7,383,365.6z M432.3,366.9c0,0.3-0.1,0.6-0.1,0.9c0.1,0,0.1,0,0.2,0c0.6,0.4,8.5,1.7,8.5,1.7
			c0.2-0.3,0.2-0.6,0.1-1C438.8,368.4,435.6,367.1,432.3,366.9z M375.4,369.8c2.6,0,5.3,0,7.9,0c-0.1-0.5-0.1-1-0.2-1.5
			c-0.1,0-0.1-0.1-0.2-0.1c-1.5,0.6-3.5,0.1-4.9,0c-2.3,0.9-8-0.7-9.4,1.3c0.1,0.2,0.1,0.4,0.2,0.6
			C371.1,370.3,373.3,370.1,375.4,369.8z M431.6,370.1c-0.1,0.6-0.2,0.8-0.2,1.4c2.6,0.7,6.6,0.8,8.8,2.3c0.1-0.5,0.1-1.1,0.2-1.6
			c-1.3-0.5-2.5-0.9-3.8-1.4C435,370.4,433.1,370.5,431.6,370.1z M383.5,372.8c0-0.2,0-0.4,0-0.5c-0.1,0-0.1-0.1-0.2-0.1
			c-1.9-0.1-3.7-0.1-5.6-0.2c-3.1,0.4-6,0.6-8.9,0.5c0.1,0.6,0.1,1.3,0.2,1.9c1.6-0.8,3.1-0.3,4.9-0.6
			C377.2,373.2,379.8,372.8,383.5,372.8z M430.9,374.1c-0.1,0.5-0.2,0.9,0.1,1.2c0.9,0.5,2.3,0.2,3.4,0.5c1.3,0.3,3.7,0.9,4.9,1.4
			c0.2,0.1,0.1,0.2,0.2,0c0.1,0,0.1-0.1,0.2-0.1c0-0.5,0.1-0.9,0.1-1.4v-0.1C437.1,375.9,434.2,374.2,430.9,374.1z M383.9,376.7
			c0-0.7,0-1.3-0.2-1.5c-2,0.1-3.9,0.1-5.9,0.2c-2.8,0.4-5.7,0.9-8.5,1.3c0,0.5,0.1,0.9,0.1,1.4
			C370.8,377.5,383.4,376.4,383.9,376.7z M430.5,377.6c-0.1,0.3-0.3,0.6-0.4,1c0.1,0,0.1,0,0.2,0c1,0.1,2.1,0.2,3.1,0.3
			c1.9,0.5,3.7,1,5.6,1.5c0.1-0.1,0.1-0.1,0.2-0.2C439.1,378.9,432.7,377.8,430.5,377.6z M384.3,380.9c0-0.1,0-0.3,0-0.4
			c-0.1-0.6,0-1-0.5-1.3c-1,0.4-2.4,0.1-3.8,0.1c-2.9,0-9.6,0.2-10.6,1.6c0.1,0.3,0.1,0.6,0.2,1h0.1
			C373.1,380.6,380.8,380.2,384.3,380.9z M429.3,383c0.1,0,0.1,0,0.2,0c1.5,0.2,3.1,0.4,4.6,0.6c1.4,0.4,2.7,1,4.3,1
			c0-0.1,0-0.2,0-0.3c0.1-0.5,0.1-0.9,0.2-1.4c-2.8-0.9-5.2-1.8-8.9-1.8C429.6,381.7,429.4,382.4,429.3,383z M384.6,384.4
			c-0.1-0.5-0.1-1-0.2-1.5c-2.9,0.2-13.3-0.3-14.5,1.5c0,0.4,0,0.7,0,1.1C373.8,383.9,380.2,384.2,384.6,384.4z M428.7,385.5
			c0,0.3-0.1,0.5-0.1,0.8l0.1,0.1c1.3,0.1,2.5,0.2,3.8,0.3c1.7,0.4,3.6,1.7,5.2,1.4c0.1-0.3,0.1-0.6,0.2-1c-2.5-0.2-5.6-1.2-8.4-1.7
			C429.3,385.4,429,385.4,428.7,385.5z M384.1,386.9c0-0.1-0.1-0.1-0.1-0.2c-1.7-0.1-3.4-0.1-5-0.2c-2.9,1-6.6-0.2-8.7,1.5
			c0,0.1,0,0.3,0,0.4C374.9,387.9,379.5,387.5,384.1,386.9C384.1,386.9,384.1,386.9,384.1,386.9z M428.2,388.8
			c0,0.3-0.1,0.6-0.1,0.9c0.1,0.1,0.3,0.2,0.4,0.3c2.7-0.2,6,1.1,8.4,1.9c0.1-0.4,0.1-0.8,0.2-1.2c-1.7-0.6-3.4-1.2-5.2-1.8
			C430.7,388.9,429.5,388.8,428.2,388.8z M383.1,391c0.6,0.1,1.3-0.4,1.9-0.2c0-0.6-0.1-1.2-0.3-1.5c-0.8,0.4-2.2,0.2-3.1,0
			c-3.7,0.5-7.3,1.1-11,1.6c0.1,0.5,0.1,0.9,0.2,1.4C375.1,391.7,379.2,390.4,383.1,391z M435.3,394c-0.1,0-0.1,0-0.2,0
			c-0.8-0.7-6.1-1.6-7.6-1.7C427.5,392.8,434.5,394.2,435.3,394z M385.5,394.5c0-0.5-0.1-0.9-0.1-1.4c-1.6,0-3.3,0-4.9,0
			c-3,0.5-6,1-9,1.5c-0.1,0.2-0.2,0.4-0.3,0.5c0,0.2,0.1,0.4,0.1,0.6C375.9,395.2,380.4,394.3,385.5,394.5z M426.7,395.2
			c-0.1,0.3-0.2,0.6-0.3,0.9c0.1,0.2,0.1,0.4,0.2,0.5c2.3,0.1,7.6,2.2,8.7,1.9c0.1-0.6,0.3-1.3,0.4-1.9
			C435,396.8,427.8,395.5,426.7,395.2z M385.9,398.3c0-0.5-0.1-0.9-0.1-1.4c-1.1,0-2.3,0-3.4,0c-3.1,1.2-9.2,0-10.8,1.5
			c-0.2,0.4,0.2,1.2,0.3,1.4C373.1,399.3,384.3,397.8,385.9,398.3z M426.2,399.1c-0.2,0.1-0.4,0.1-0.5,0.2c0,0.2-0.1,0.4-0.1,0.6
			c0.1,0.1,0.3,0.1,0.4,0.2c1.8-0.1,7.1,1.3,8.3,2.3c0.5-0.3,0.5-0.5,0.4-1.1C431.8,400.4,429.7,399.2,426.2,399.1z M384.4,402.3
			c0.8-0.2,1.3,0.4,1.9-0.1c-0.1-0.4,0-1.2-0.4-1.5c-0.1,0-0.3-0.1-0.4-0.1c-2.4,1.3-11.7,0.3-13.4,1.9c0.3,0.2,0.2,0.3,0.2,1
			c0.1,0,0.2,0.1,0.3,0.1C374.7,402.3,381,403,384.4,402.3z M424.7,402.7c-0.1,0.4-0.2,0.9-0.3,1.3c1.7,0.3,3.4,0.6,5.2,1
			c1.3,0.5,2.2,1.3,3.9,1.4c0.1-0.4,0.2-0.3,0.1-0.6c0.1-0.2,0.1-0.4,0.2-0.5C432,403.4,427.5,402.7,424.7,402.7z M386.8,406.5
			c0-0.5-0.1-1.1-0.4-1.4c-0.4-0.1-0.9-0.1-1.3-0.2c-1.1,0.4-2.4,0.1-3.8,0.1c-2.3,0-7.7,0.3-8.8,1.4c0,0.1,0,0.3,0,0.4
			c0.1,0.1,0.1,0.1,0.2,0.2C377.7,407.1,381.9,406,386.8,406.5z M423,407.3c0.8,0.3,3.4,1.1,4.3,0.8c1.6,0.6,3.2,1.3,4.7,1.9
			c0.3-0.2,0.4-0.5,0.5-0.9c-2.1-1.7-5.9-2.4-9.2-2.7C423.2,406.7,423.1,407,423,407.3z M387.2,410c0-0.2,0-0.4,0-0.6
			c-0.2-0.2-0.1,0-0.2-0.3c-1.3-0.1-2.6-0.1-3.9-0.2c-1.5,0.6-9.3,0.7-10.1,0.6c0,0.1,0.1,0.2,0.1,0.3c0,0.4,0,0.7,0,1.1
			C377,410.5,383.2,409.4,387.2,410z M421.8,410.8c2.2,0.6,4.4,1.2,6.5,1.8c0.6,0.2,1.7,1.1,2.4,1.1c0.1-0.6,0.3-0.8,0.3-1.3
			c-2.2-1.6-5.8-2.5-9-2.6C421.9,410.2,421.8,410.5,421.8,410.8z M388.1,413.3v-0.1c-0.1-0.3-0.1-0.5-0.2-0.8h-0.1
			c-0.8,0.4-1.9,0-2.7-0.1c-2.4,1-9.6-0.1-11.1,1.3c-0.3,0.3-0.1,0.7-0.2,1c0,0.1,0.1,0.1,0.1,0.2c2.4,0,4.5-0.6,6.2-1.1
			C382.6,413,385.5,414,388.1,413.3z M420.4,414.3c2.4,0.6,4.7,1.3,7.1,1.9c0.6,0.3,1.3,0.6,1.9,1c0.1-0.4,0.2-0.8,0.3-1.2
			c-3.1-0.7-5.4-2.7-9.1-2.7C420.5,413.6,420.4,413.9,420.4,414.3z M385.5,417.7c1,0.1,3.4,0,3.7-0.3c-0.1-0.5-0.2-1-0.3-1.5
			c-0.5,0-0.9-0.1-1.4-0.1c-0.7,0.3-3.2,0.7-4.2,0.2c-2.2,0.8-6,0.5-8.7,1.5c0,0.2,0,0.4,0,0.6c0.4,0.3,0.2-0.1,0.2,0.4
			C378.5,418.8,381.5,417.2,385.5,417.7z M419.3,416.7c-0.1,0.4-0.3,0.7-0.4,1.1c3.1,0.7,6.3,1.6,8.9,2.7c0.1-0.3,0.3-0.6,0.4-0.9
			c-0.1-0.1-0.2-0.3-0.3-0.4C424.9,418.4,422.9,416.8,419.3,416.7z M390.1,421.9c0-0.7-0.2-1.8-0.8-1.7c-1.7-0.1-3.4-0.2-5-0.3
			c-3,0.5-5.9,0.9-8.9,1.4c0.2,0.5,0.3,1,0.5,1.3C380.4,421.3,385.7,421.3,390.1,421.9z M417.5,420.5c-0.1,0.3-0.1,0.6-0.2,1
			c0,0.1,0.1,0.1,0.1,0.2c2.6,0.1,4.8,0.7,6.8,1.7c0.7,0.3,1.2,0.9,1.8,1c0.2-0.6,0.5-1.1,0.4-1.7c-2.4-1.2-5.8-1.9-8.6-2.4
			C417.7,420.3,417.6,420.4,417.5,420.5z M383.1,424c-2.3,0.9-4.5,0.2-6.7,1.1c0.1,0.5,0.3,0.9,0.4,1.4c3.9-0.1,9.6-1.6,13.6-0.1
			c0-0.1,0-0.1,0-0.2c0-0.5,0.1-1.1,0.1-1.6c-0.1,0-0.1-0.1-0.2-0.1C388.3,424.1,385.3,424.2,383.1,424z M416,425.4
			c0.1,0,0.1,0,0.2,0c0.6,0.3,2.9,0.8,3.4,0.5c1.5,0.6,2.9,1.1,4.4,1.7c0.2-0.3,0.4-0.6,0.6-1c-2.6-1-4.9-2.2-8.4-2.6
			C416.1,424.6,416,424.7,416,425.4z M415.4,428.1c0,0.1-0.1,0.2-0.1,0.3c0.1,0.3,0.1,0.5,0.2,0.8c2.2,0,4,0.9,5.3,1.8
			c0.1-0.1,0.2-0.1,0.3-0.2c0.3-0.3,0.6-0.5,1-0.8c-1.3-1.4-4.1-1.6-6.1-2C415.8,428,415.6,428.1,415.4,428.1z M390.2,429
			c-0.2-0.3-0.2-0.3-0.5-0.2c-0.8-0.1-1.6-0.3-2.4-0.4c-1.7,1.2-7.6-0.3-9.2,0.9c-0.2,0.2-0.1,0-0.2,0.4c0.1,0.4,0.3,0.7,0.4,1.1
			c4-0.2,7.9-0.4,11.9-0.5C390.1,429.7,390.4,429.3,390.2,429z M385.6,432.7c-1.5,0.2-3,0.4-4.5,0.5v0.1c0.1,0,0.1,0,0.2,0
			c1.8,1.6,5.8,0,7-0.4c-0.1-0.1-0.1-0.1-0.2-0.2C387.2,432.7,386.4,432.7,385.6,432.7z"/>
	</g>
</g>
</svg>
