<?xml version="1.0" encoding="utf-8"?>
<!-- Generator: Adobe Illustrator 19.2.1, SVG Export Plug-In . SVG Version: 6.00 Build 0)  -->
<svg version="1.1" id="Calque_1" xmlns="http://www.w3.org/2000/svg" xmlns:xlink="http://www.w3.org/1999/xlink" x="0px" y="0px"
	 viewBox="0 0 841.9 595.3" style="enable-background:new 0 0 841.9 595.3;" xml:space="preserve">
<style type="text/css">
	.st0{fill:#DADADA;}
	.st1{fill-rule:evenodd;clip-rule:evenodd;fill:#1D1D1B;}
</style>
<ellipse class="st0" cx="396.8" cy="417.8" rx="95.7" ry="7"/>
<g>
	<g>
		<path class="st1" d="M441,395.8c-0.6-2-1.2-1.4-1.9-2.5c-0.1-0.2-0.3-1.7-0.8-2.5c0.6-0.2,0.9-0.5,1-1.1c0.6,0.6,0.8,1.1,1.8,1.5
			c2.2-0.9,0.4-2.8-0.8-3.5c-0.7,0-0.9,0-1.1,0.5c-0.6-0.6-0.9-0.9-1.8-0.8c-0.3-0.5-0.6-1.1-0.9-1.6c0.8,0.4,1.1,0.3,1.9,0.2
			c0.4-0.5,0.4-0.6,0.4-1.4c2,1.2,2.9,3.6,4.6,5c0.1,0,0.3,0.1,0.4,0.1c0.9,0,1-0.1,1.2-0.8c0.1,0,0.2-0.1,0.2-0.1
			c0.3,0.6,0.5,0.6,0.6,1.4c0.7,0.4,1.5,0.6,2.1,0.8c0.3-0.2,0.5-0.2,0.8-0.2c0.1-0.5,0.2-1,0.2-1.5c-0.8-1.2-1.6-1.9-2.4-3.1
			c-0.7-1.1-2.3-1.3-2.8-2.6c0.4,0.2,0.8,0.4,1.1,0.6c0.3-0.2,0.6-0.3,0.9-0.5c0.2-0.4,0.7-4,0.6-4.5c0.5-0.2,0.3,0,0.5-0.4
			c1.1,1.3,0.6,2.6,2.4,3.4c0,0,0,0.1,0,0.1c-0.6,0.5-0.7-0.3-1.9-0.4c-0.2,0.2-0.5,0.5-0.8,0.8c-0.2,1.3,1.3,3.1,2.4,3.5
			c0.2,1.4,0.3,2.8,2.2,3.1c0.6-0.3,0.9-0.5,1-1.4c0,0,0.1,0,0.1,0c0.1,1.5,1,2.6,2.8,2.8c0,0,0.1,0,0.1,0c0.7-0.9,0.1-4.4-0.4-5.2
			c0.2,0,0.5,0.1,0.8,0.1c0.4-0.6,0.6-1.1,0.6-2c-0.9-1.3-4.4-3.7-6.1-3.4c-0.7-1.2-1.3-2.3-2-3.5c0,0,0-0.1,0-0.1
			c0.1,0,0.2-0.1,0.2-0.1c1.1,1.5,1.1,2.6,3,3.4c0.1,0,0.3,0,0.4,0c0.1-1,0.4-1.2,0-2.4c0.2-0.1,0.5-0.2,0.8-0.2
			c0.1-0.7,0.2-1.4,0.2-2.1c0.2-0.1,0.5-0.2,0.8-0.2c0,0,0.1,0,0.1,0c0.1,1.1,0.2,2.2,0.2,3.2c0.1,0.5,0.1,0.2-0.4,0.4
			c0.1,1,0.1,1.7,0.5,2.8c0.6,0.4,0.9,0.6,1.9,0.6c0.4,1.2,0.7,1.7,1.6,2.2c0.2,0,0.4-0.1,0.6-0.1c0.2-0.2,0.4-0.3,0.6-0.5
			c0.2-0.3,0.2-0.4,0.2-1c-0.8-0.9-2.4-1.9-2.9-2.9c0.8-0.4,1.1-0.8,1.4-1.8c-0.6-0.5-3.2-5.4-3.2-6.5c-1.6-0.4-2.9-0.5-4.4,0.2
			c-0.6-1.1-0.7-1.8-1.6-2.5c-0.2,0-0.5,0.1-0.8,0.1c-0.4,0.3-0.6,1-0.8,1.6c-0.1,0-0.2,0.1-0.2,0.1c-1.3-0.9-1.3-3.7-3.6-3.1
			c-0.6-0.6-0.9-1.4-1.6-1.9c-0.5,0.2-1.1,0.4-1.6,0.6c-0.5-0.8-2.6-3-3.5-3.4c-1.2,0.1-1.6,0.8-2.4,1.4c-0.5-0.7-1-1.4-1.4-2.1
			c-0.7-0.3-1.3-0.3-2.6-0.2c-0.1,0.3-0.2,0.6-0.2,0.9c-0.3-0.5,0.1-1.7,0.2-2.6c-0.5-0.7-1.1-1.1-1.6-1.8c-0.2,0-0.3,0-0.5,0
			c-0.6,0.9-1.1,1.5-1.4,2.8c0,0-0.1,0-0.1,0c-0.9-1-1.2-2.1-2.6-2.8c-0.5,0.1-1,0.3-1.5,0.4c-0.4-0.7-0.8-1.3-1.1-2
			c-0.4-0.2-0.7-0.3-1.4-0.2c-0.2,0.5-0.5,1.1-0.8,1.6c-0.2,0-0.3,0-0.5,0c0.1-1.4-0.5-2.1-1.6-2.8c-1.4,0.8-0.6,2.1-2.8,2
			c-0.7-0.8-1.3-1.6-2.1-2.2c-0.3,0.2-0.7,0.3-1,0.5c-0.4-0.3-0.8-0.7-1.2-1c-0.3,0.1-0.4,0.1-0.6,0.4c-0.7,0.5-0.7,1.5-0.8,2.8
			l-2.2-3.2c0-0.8,0-1.7,0-2.5c-1.5-5.4-3.2-12.7-1.4-18.9c0.5-1.7,4-10.3,3.6-12.5c-0.6-3.4-1.3-7.1-1.9-10.2c0-1,0.1-2,0.1-3
			c-0.2-0.9-0.4-1.8-0.6-2.8c1.1-3,3.6-5.1,4.9-7.6c1.4-2.6,2-6,3.6-8.5c2.1-3.3,5.6-6,7.1-9.6c-0.1-0.2-0.2-0.5-0.2-0.8
			c-0.2-0.2-0.5-0.3-0.8-0.5c-7.9,3.1-10.1,4.6-14.4,11.2c-0.7,1-1.9,2.5-2,3.8c-0.1,0.1-0.2,0.3-0.4,0.4c0,0-0.1,0-0.1,0
			c-0.2-1.2,0.3-1.9,0.4-2.9c-0.1-1.4-0.2-2.8-0.2-4.2c0.3-3.9,1.1-9.1,2.4-13c1.1-3.3,1-7.3,1-11c0-1.6,0.1-3.3,0.1-4.9
			c1.2-4.5,3.2-2.7,5.1-5.4c1.4-1.9,2.2-3.9,3.6-5.8c2.4-3.1,10.7-6.9,16.1-6.5c5.1,0.4,9.7,1.8,14,3.1c3.4,1,6.8,1.5,9.8,2.9
			c3.4,1.5,7.7,5.2,11.4,6c0.7-0.6,1-0.9,1.4-1.9c-0.6-1.8-1.7-3-2.8-4.2c-1.1-1.3-1.8-3.1-2.8-4.5c-3.2-4.6-8-8.4-12.8-11.5
			c-2.5-1.7-5-3.4-7.5-5.1c-2.8-0.9-5.9,0.3-8.2-0.1c-1.3,0-2.6-0.1-3.9-0.1c-1.4,0.6-2.8,1.2-4.1,1.8c-1.2,0.2-2.5,0.4-3.8,0.6
			c-4.5,2.3-8.5,5.4-11,9.6c-0.9,1.4-1,2.8-1.9,4.2c-1.6,2.8-3.3,5.6-4.9,8.4c-0.1,0-0.2,0.1-0.2,0.1c-0.1-0.2-0.2-0.3-0.2-0.5
			c2.4-3.5,3.2-11.6,2.2-17c-0.1-1.5-0.2-3-0.2-4.5c0.4-2.9,0.8-5.8,1.2-8.6c2.8-8.2,6.1-19,2.9-27.1c-2-5.1-6.6-8.5-9.8-12.5
			c-1.7-2.4-3.5-4.8-5.2-7.1c-3.3-4.6-7.1-8.7-10.6-13.1c-1.4-1.7-3.2-3.8-6-3.6c-1.8,3.2-2.8,8-3.9,11.8c-0.7,2.5-1.6,6.6-1.4,8.6
			c0.6,5.3-1.8,13.1-0.6,17.5c1.3,5.1,4.6,8,7,11.9c0.8,2,1.7,4,2.5,6c1.4,2.3,4.3,3.4,5.8,5.5c1.1,1.6,1.3,3.8,2.2,5.6
			c1.9,3.8,5.1,7.4,6.8,11.5c4.5,11,0.4,25.4-0.2,36.6c-0.8-0.8-0.5-1.8-0.9-2.9c-0.7-1.8-1.3-3.6-1.8-5.9c-0.1-2.4-0.2-4.8-0.2-7.1
			c-0.4-1.8-2.1-9.4-3.1-10.5c-2.4-2.7-4.9-5.7-6.4-9.2c-0.2-1.4-0.4-2.8-0.6-4.2c-1.9-5.7-6-14.5-12.1-15.9
			c-4.3-1-8.1,6.2-11.9,7.4c-6,1.8-12.5-0.7-18.6-0.9c-0.2,0.4-0.4,0.8-0.6,1.2c1.3,2.3,4.4,3.8,6.5,5.2c2.4,1.7,4.4,4.3,7.2,5.5
			c2.1,0.9,4.6,0.6,7,1.4c6,2,13.7,3.3,18.8,6.4c4.3,2.7,7.6,8.7,8.6,14c0.1,2.5,0.2,5.1,0.2,7.6c0.4,1.6,0.8,3.3,1.1,4.9
			c0,2.6,0.1,5.2,0.1,7.8c0.9,3.3,2.6,8.4,2.5,12.4c-0.1,0-0.2,0.1-0.2,0.1c-3.7-3.9-9.5-4.8-14-8c-2.5-1.7-3.9-4.7-7-5.9
			c-2-0.8-4.4-0.6-7-1.2c-4-1-10.1-3-13.2-5.1c-1.8-1.2-3.8-5.9-5.1-7.9c-2.9-4.4-6.5-8.4-10.8-11.5c-2.2-1.6-4.5-4.7-8.9-3.4
			c-1.3,0.6-2.6,1.3-3.9,1.9c-0.3,0.4-0.4,0.5-0.4,1.2c1.5,1.2,2.9,2.3,4.4,3.5c1.4,1.6,2.8,3.3,4.1,4.9c5.9,4.6,12.9,8.1,18.8,12.6
			c1.7,1.8,3.3,3.7,5,5.5c1.4,1.7,3,2.7,4.9,4c1,1.2,2,2.3,3,3.5c4,4,10.4,7.5,13.8,11.9c2.5,4.1,5.1,8.2,7.6,12.2
			c0.9,1.3,3.6,4.5,4.8,5.5c0.7,0.6,1.8,1,2.2,1.9c0.8,1.5,0.5,3.1,1,4.5c4.5,11.8,3.6,24.5,3.4,38.8c-0.5-0.5-1.1-1.1-1.6-1.6
			c-0.7,0.1-0.7,0.2-1.1,0.5c-0.4-0.5-0.8-0.9-1.1-1.4c-0.2,0-0.3,0-0.5,0c-0.2,0.3-0.5,0.6-0.8,0.9c-0.5,0-1,0.1-1.5,0.1
			c-0.7-0.6-1-1.5-2.1-1.8c-0.2,0.1-0.4,0.3-0.6,0.4c-0.1,0.6-0.2,1.3-0.4,1.9c0,0.1,0,0.2,0,0.2c-0.5-0.5-0.9-1-1.4-1.5
			c-1.3,0-1.5,0.4-1.4,1.8c-0.7,0-1.3,0-2,0c-0.6-0.5-1.2-1.1-1.8-1.6c-0.5,0.2-1,0.3-1.5,0.5c-0.3,0.5-0.4,0.8-0.6,1.5
			c-0.5-0.2-1.1-0.3-1.6-0.5c-0.6,0.5-0.9,0.6-1,1.6c-0.1,0-0.2,0.1-0.2,0.1c-0.8-0.9-5.3-2.4-6.9-2.4c-0.4,0.6-0.8,1.2-1.2,1.8
			c-1.1,0.8-2.6,0.3-3.5,1.2c0,0-1.3-0.9-2-0.8c-0.8,0.2-2.4,0.6-3.2,1c-0.2,0.8-0.1,0.9,0,1.8c-0.8-0.5-2.6-1.5-3.8-0.9
			c-0.9,0.6-0.1,2.3,0.5,2.5c0,0,0,0.1,0,0.1c-1.2,0.5-2-0.1-2.9-0.5c-1.2,0-3,1.2-3.6,2c-0.7-0.4-1.2-0.7-2.2-0.8
			c-0.8,1.2-0.5,2.7-0.4,4.4c-0.6-0.5-1.2-1-1.8-1.5c-0.6-0.3-1.9,0-2.4,0.4c-0.1,0.1-0.2,0.2-0.2,0.2c-0.4,0.6-0.2,1.3,0,1.9
			c-1.7-0.5-2.2-1.5-4.1-1.9c-0.1,0-0.2,0.1-0.4,0.1c-0.4,0.8-0.1,2.2,0,3.4c0.6,0.2,1.1,0,1.5,0.5c0.2,0.1,0,0,0.1,0.2
			c0.1,0.7-1.1,0.9-1.6,1.2c-0.2-1-0.5-1.4-0.8-2.1c-1.4-0.6-2.1-0.2-3.9-0.2c-0.8,1.1-1.5,2.6-2,4c-1.5-0.2-1.6,0.2-2.4,0.9
			c-0.9-0.6-1.3-1.8-2.5-1.2c-0.6,0.5-0.3,2.7-0.2,3.6c1.4,0.3,1.9,0.8,2.9,0.1c0.2,0.9,0.5,0.9,0.9,1.5c0.6,0,1.3-0.1,1.9-0.1
			c0.6,1.2,1.3,1.5,2,2.4c0.7-0.2,1.5-0.3,2.2-0.5c0.1,0.2,0.2,0.3,0.2,0.5c0.1,0,0.2,0,0.2,0c-0.3,0.4-0.2,0.4-0.8,0.5
			c-0.2,1.2-0.1,2.3,0.6,2.9c-0.3,0.6-0.7,0.5-1,1.1c-0.7,1.5,1,3.4,2.2,3.2c0.6,0.1,0.9-0.1,1.5-0.2c0.8-1.3-0.3-3-1.5-3.5
			c0-0.1-0.1-0.2-0.1-0.2c0.7-0.1,0.9-0.4,1.4-0.8c-0.1-0.9-0.7-1.7-1.4-2.1c0-0.1-0.1-0.2-0.1-0.2c0.6-0.3,1.3-0.6,1.9-0.9
			c1.3,0.9,1.6,1.3,3.6,1.1c0,2.8,0.8,2.1,2.5,3c0.4,0.4,0.8,0.8,1.1,1.2c1.5,0.6,1.3-0.6,2.5,0c0.6-0.1,1.3-0.2,1.9-0.4
			c0.2-0.6-0.1-1.3-0.4-2.1c-0.6-0.3-1.2-0.7-1.8-1c-0.3,0.2-0.6,0.4-0.9,0.6c-0.3-0.3-0.7-0.6-1-0.9c0.5-0.7,0.8-1.4,0.9-2.5
			c1.1,0.7,0,2.1,1.9,1.9c0.7-0.1,1.5-0.2,2.2-0.4c0.2,1.7,0.6,4,1.5,5.5c-0.5,0-1,0-1.5,0c-0.1,0.1-0.2,0.3-0.2,0.4
			c-0.3,1.6,0.5,3.1,1.6,3.6c1.1,0.5,2-0.4,2.8-1c-0.2-0.6-0.3-1.2-0.5-1.8c0.3,0,0.6,0.1,0.9,0.1c0.7-0.5,0.8-2.9,0.4-4
			c1-0.2,1.6-1.3,2-2.1c0.1,0,0.2-0.1,0.4-0.1c0.4,1.2,1.1,1.7,2.2,1.5c0,0.9-0.4,1.5-0.4,2.2c0.1,1.1,0.9,1.5,1.2,2.4
			c0.9,0,1.8,0,2.8,0c0.2,1.1,0.5,1.6,0.8,2.5c1.3,0.7,2.3,1.1,3.8,1.5c0.2-0.1,0.5-0.2,0.8-0.4c-0.1-1.7-0.9-1.8-1.5-2.9
			c-0.5-0.1-0.6-0.1-0.9-0.4c0.1-0.1,0.2-0.2,0.2-0.4c0.9,0.4,2.7,0.7,3.5,0c0.3,0.9,1.2,1.2,1.9,1.8c0,0,0,0.1,0,0.1
			c-0.2,0.1-0.5,0.2-0.8,0.2c-1,2.4,0.2,5.3,3,5.1c0.2,0.4,0.3,0.8,0.5,1.1c0,0.2,0,0.4,0,0.6c-0.6-0.5-2.4-2.2-3.6-0.8
			c-0.1,1.5,0.7,2.3,1.8,3c1.3-0.1,1.7-0.7,1.9-1.9c1.3,0.2,1.6-0.1,2.8-0.4c0.2-2-0.6-4.5-2.9-4.5c-0.1-0.3-0.2-0.6-0.4-0.9
			c0.4-0.3,0.8-0.7,1.2-1c-0.1-1-0.3-1.4-0.6-2.1c-0.4-0.3-0.7-0.4-1.5-0.4c-0.3-1.5-3-5.9-4.5-6.2c0-0.2-0.1-0.5-0.1-0.8
			c0-0.2,0-0.3,0-0.5c0.6,0.6,1.1,0.8,2.5,0.8c0.5,2.2,1.1,3.3,1.9,5.2c0.5,0.3,1.1,0.6,1.9,0.4c0.1,0,0.2,0,0.2,0
			c0.4-0.6,0.6-1.1,0.2-1.9c1.2,0.4,2.3-0.2,3.1-0.5c0.5,0.6,0.8,1.8,1.1,2.5c-1.6-0.4-1.9-0.4-3.4,0.1c-0.2,0.2-0.3,0.5-0.5,0.8
			c0.3,1.4,1.2,2.6,2,3.6c0.5,0,1.1-0.1,1.6-0.1c0.3-0.6,0.7-1.2,1-1.8c1.2-0.6,2.1,0.4,2.4-1.2c0.1,0,0.2,0,0.2,0
			c0.4,2,0.3,2.4-0.2,4.4c0.2,0.2,0.3,0.5,0.5,0.8c-1.2-0.9-3.1-1.5-3.6,0.6c0.7,1.1,1.6,3.1,2.8,3.8c0.6,0.3,1.4,0,1.8-0.4
			c0.4-0.5,0.1-1.1-0.1-1.8c0-0.1,0.1-0.2,0.1-0.2c0.3,0,0.6-0.1,0.9-0.1c0.8,0.6,1.1,1.8,2.5,1.5c0.2,0,0.5,0,0.8,0
			c0.1-0.4,0.2-0.8,0.2-1.2c-0.3-0.8-1.8-3.3-2.2-3.6c0.1-0.5,0.2-1,0.4-1.5c1.3,0,1.6-0.8,1.6-1.6c0.2,0.3,0.4,0.6,0.6,0.9
			c-0.7,0.2-0.9,0.3-1.2,0.8c0,0.1-0.1,0.3-0.1,0.4c0,1.1,0.6,2,1.4,2.4c0.7,0.3,2-0.1,2.5-0.4c0.7,1.4,2.8,1.6,4.6,2
			c0.9-0.5,1.4-1,1.6-2.2c0.5,0.3,1,0.4,2,0.4c0.5-0.4,0.7-0.7,0.8-1.2c0.2,0,0.5-0.1,0.8-0.1c-1.4,2.6,0.7,5.2,3.2,5.6
			c0.9-1.5-0.3-2.3-0.5-3.8c1.1-0.5,1.7-1.5,3.1-1.2c0.3-0.4,0-1,0.4-1.6c0.3-0.5,1.1-0.4,1.4-1.1c-0.1-0.7-0.2-1.4-0.4-2.1
			c1.2,0.5,3.6,0.3,5,0.1c0,2.2,0.2,3.3,0.6,4.9c1.5,0.7,3.3-0.6,4.4-1.1c0-1-1.7-4.6-2.4-5c-0.6-0.5-1.1,0-1.9-0.2
			c-0.1,0-0.2,0-0.2,0c0.3-0.4,0.6-0.8,0.9-1.2c1.2,0,0.9,0.9,1.6,1.6c0.5,0.4,4.6,2.1,5,2.1c0.1,0.3,0.2,0.7,0.2,1
			c-0.4,0-0.8,0-1.2,0c-0.9,0.3-0.3,2.6-0.2,3.5c0.4,0.3,0.8,0.4,1.4,0.6c1.6-0.1,1.7-1.3,1.4-2.6c1.3,0.1,2.6,0.3,3.9,0.4
			c0.1,0,0.2,0,0.2,0c0.2-0.5,0.3-1.1,0.5-1.6c-1-1.2-2.2-2.8-4.4-2.4c0-0.1-0.1-0.2-0.1-0.4c0.8-0.1,1.9-0.1,2.8-0.6
			c0.9,0.5,1.2,1.2,1.6,2.2c0.7,0.5,1.3,0.7,2.6,0.6c0.1-0.3,0.2-0.6,0.2-0.9c0.5-0.4,2.6,0.8,4.4-0.2c0.5,1.1,0.4,3.1,1.9,3.5
			c-0.2,0.4,0,0.6-0.2,0.8c0.2,1.2,1.1,1.1,1.5,1.9c0.4,0.8,0.4,1.8,0.9,2.8C439.7,396.6,440.5,396.7,441,395.8z M452.8,383.7
			c0.3,0,0.6,0,0.9,0c0,0.2,0.1,0.4,0.1,0.6c-0.5-0.2-0.7-0.2-1.4-0.1c0-0.1-0.1-0.2-0.1-0.2C452.5,383.9,452.6,383.8,452.8,383.7z
			 M447.8,376.4c-0.2,0-0.3,0-0.5,0c-0.3-0.8-0.7-1.4-1-2.1C447,374.8,447.5,375.6,447.8,376.4z M413,239.8c1-1.7,1.3-3.4,2.4-4.9
			c3-4.4,10.6-7,16.2-8.5c2.8-0.8,5.7,1,7.8-0.4c3.5,0.1,5.1,2.1,7.2,3.6c5.1,3.5,11.1,6.9,14.1,12.4c0,0,0,0.1,0,0.1
			c-3.4-0.5-5.4-3.2-7.9-4.8c-6.6-4.1-14.2-9-24-7.4c-2.8,0.5-5,0.4-7.1,1.8c-3.9,2.5-6.2,8.3-10.2,11.1
			C411.7,241.5,412.5,240.8,413,239.8z M416.5,241.1c2.2-2.6,4.2-6.2,7.4-7.8c1.7-0.5,3.5-0.9,5.2-1.4c1.9-0.4,3.4,0.5,4.9-0.1
			c4.2,1.2,7.5,1.7,11.1,3.2c1.5,0.7,2.7,2.2,4,3.1c0.9,0.4,1.8,0.8,2.8,1.2c1.5,1.2,3,2.8,4.6,3.9c1.2,0.4,2.4,0.8,3.6,1.1
			c1.4,0.6,2.2,1.6,3.2,2.6c0,0,0,0.1,0,0.1c-2.4-0.6-4.2-2.2-6.2-3.1c-2.7-1.2-5.5-1.5-8.5-2.5c-6.3-2.1-15-5.3-22.6-3
			c-4.8,1.4-9.3,3.8-12.1,7.2c-2.1,2.5-2.9,5.4-6.4,6.2c0-0.1-0.1-0.2-0.1-0.2C410.2,247.9,413.5,244.6,416.5,241.1z M325.7,247.1
			c0.7-0.7,1.5-0.8,2.5-1.2c5.8,0,16.5,12.5,18.2,17C338.7,258.3,331.4,253.5,325.7,247.1z M330.9,375.6c0-0.1,0.1-0.2,0.1-0.2
			c0,0,0.1,0,0.1,0c0,0.1,0.1,0.2,0.1,0.2C331.2,375.6,331,375.6,330.9,375.6z M336,371.6c0,0.2,0.1,0.3,0.1,0.5c0,0-0.1,0-0.1,0
			C336,371.9,336,371.7,336,371.6z M337.3,377.2c-1.1-0.2-1.8-0.7-2.9-0.5c-0.1,0-0.2-0.1-0.2-0.1c0.6-1.7,1.3-2.5,1.8-4.1
			c0.4,1.2,0,3.6,1.4,4.4C337.3,376.9,337.3,377.1,337.3,377.2z M339,371.2c0.2,0,0.3,0.1,0.5,0.1c0.2,0.3,0.3,0.6,0.5,0.9
			C339.7,371.9,339.4,371.5,339,371.2z M340.9,377.3c0.1,0.2,0.2,0.3,0.2,0.5C340.9,377.6,341,377.8,340.9,377.3z M342,379.7
			c0-0.2-0.1-0.5-0.1-0.8c0.1,0.2,0.2,0.5,0.2,0.8C342.1,379.7,342.1,379.7,342,379.7z M346.7,374.7c0,0,0-0.1,0-0.1
			c0.2-0.2,0.3-0.3,0.5-0.5c0.3,0,0.6,0,0.9,0c0.1,0.8,0.2,1.6,0.2,2.4c0,0-0.1,0-0.1,0C348,375.5,347.6,374.9,346.7,374.7z
			 M347.3,377.7c0.3-0.2,0.6-0.4,0.9-0.6c0-0.1,0-0.2,0-0.4c0.1,0.1,0.2,0.2,0.2,0.2c0.1,0,0.2,0,0.2,0
			C348.3,377.4,348.1,377.6,347.3,377.7z M350.7,369.7c0.1-0.2,0.2-0.4,0.2-0.6c0,0,0.1,0,0.1,0c0,0.2,0.1,0.4,0.1,0.6
			C351,369.7,350.8,369.7,350.7,369.7z M350.9,368.1c0,0-0.1,0-0.1,0c-0.2-0.2-0.3-0.3-0.5-0.5c0.4-0.3,0.8-0.7,1.1-1
			c0.2,0,0.4,0,0.6,0C351.3,367,351,367,350.9,368.1z M351.8,373.2c0.2-0.1,0.4-0.2,0.6-0.2c0.2,0,0.3,0,0.5,0
			c0.1,0.4,0.2,0.8,0.4,1.1c0,0.1,0,0.3,0,0.4c-0.2,0-0.3,0-0.5,0C352.6,373.8,352.2,373.7,351.8,373.2z M353.9,378.8
			c-0.3,0-0.6-0.1-0.9-0.1c-0.2-0.4-0.4-0.8-0.6-1.2c0.1,0,0.2-0.1,0.2-0.1c0.4,0.1,0.8,0.3,1.1,0.4c0,0.3,0.1,0.7,0.1,1
			C353.9,378.7,353.9,378.8,353.9,378.8z M354.4,370.7c0.2-0.6,0.5-0.7,0.9-1.1c0.5,0,1,0.2,1.6-0.1c0,0,0.1,0,0.1,0
			c0,0.4,0.1,0.8,0.1,1.2C355.7,370.7,355.7,370.8,354.4,370.7z M359.4,364.8c-0.5,0.6-1.5,0.5-2.4,0.8c0.4-0.6,0.4-0.4,0.2-1.1
			c0.1-0.1,0.2-0.2,0.4-0.2c0.6,0.2,1.2,0.3,1.8,0.5C359.4,364.7,359.4,364.8,359.4,364.8z M359.9,374.3c0-0.1,0-0.2,0-0.4
			c0,0,0.1,0,0.1,0C360,374.1,360,374.2,359.9,374.3z M366.7,362.2c0,0,0.1,0,0.1,0c-0.1,0.1-0.2,0.2-0.2,0.2
			C366.6,362.4,366.6,362.3,366.7,362.2z M364.8,378.2c-0.4,0-0.8-0.1-1.2-0.1c0-0.1-0.1-0.2-0.1-0.2c0.1-0.6-0.2-0.7,0.2-1.2
			c0.3,0,0.6,0,0.9,0C364.6,377.1,364.7,377.7,364.8,378.2z M363.4,367.3c0.6,0.1,0.6,0.1,0.9,0.5
			C364,367.7,363.7,367.5,363.4,367.3z M364.4,364.1c0,0,0,0.1,0,0.1c-0.2,0-0.4,0.1-0.6,0.1c0-0.1-0.1-0.2-0.1-0.2
			C363.9,364.1,364.2,364.1,364.4,364.1z M363.5,364.1c-0.3-0.1-0.6-0.2-0.9-0.4C363.2,363.8,363.3,363.8,363.5,364.1z M362.5,369.7
			c0,0-0.1,0.1-0.1,0.1c-0.2,0-0.3,0-0.5,0c-0.1-0.2-0.2-0.5-0.2-0.8c0.1-1.1,0.5-1.1,1.1-1.6c0.2,0,0.3,0,0.5,0c0,0,0,0.1,0,0.1
			C362.3,367.9,362.3,368.9,362.5,369.7z M366.9,382.7c0,0.5,0.1,0.9,0.1,1.4c-0.1,0.3-0.6,0.4-0.8,0.9c-0.9-0.7-1.5-1-2.9-0.6
			c-0.3-0.7-0.5-1.1-0.5-2.2c2,0.3,3.8,1,5-0.6c0,0,0.1,0,0.1,0C367.8,382.4,367.2,382.1,366.9,382.7z M367.5,371.4
			c0-0.1,0.1-0.2,0.1-0.2c0.2,0.2,0.5,0.3,0.8,0.5C368.1,371.6,367.8,371.5,367.5,371.4z M371.3,359.8c-0.1,0.1-0.2,0.2-0.2,0.2
			c-0.2-0.7-0.4-1-0.6-1.5C371,358.9,371.1,359.1,371.3,359.8z M370.4,377.3c0-0.4,0-0.8,0-1.2c0.5,0.8,1,1.6,1.5,2.4
			C371.4,378.1,370.9,377.7,370.4,377.3z M371.9,378.8c0.4,0.2,0.1,0,0.4,0.2C372.2,379,372,378.9,371.9,378.8z M378.5,369.9
			c0,0,0.1,0,0.1,0c0,0.1,0,0.3,0,0.4c-0.1-0.1-0.2-0.2-0.2-0.2C378.5,370,378.5,370,378.5,369.9z M376.7,365.2
			c0.1,0.2,0.2,0.4,0.4,0.6c-0.6-0.2-0.5,0-0.6-0.6C376.5,365.2,376.6,365.2,376.7,365.2z M374.3,380.4c-0.2-0.3-0.4-0.6-0.6-0.9
			c0.1,0,0.2,0.1,0.4,0.1c0.1,0.1,0.2,0.3,0.2,0.4C374.3,380.2,374.3,380.3,374.3,380.4z M374.5,368.9c0.6,2.1-0.1,3.1,2.2,3.9
			c-0.1,0.3-0.2,0.6-0.4,0.9c-0.2,0-0.3,0-0.5,0C375.1,372,373.9,371.2,374.5,368.9z M377.5,378.2c-0.2,0.4-0.3,0.8-0.5,1.2
			c0,0.1,0,0.2,0,0.2c-0.3-0.4-0.7-0.8-1-1.2c1.2-0.2,2.6-1.1,3.4-1.9c0.2,0.1,0.3,0.3,0.5,0.4C379.5,378.2,378.3,377.4,377.5,378.2
			z M384,365.1c-0.1,0-0.2,0.1-0.4,0.1c-0.1-0.2-0.2-0.3-0.4-0.5c0.2,0.1,0.5,0.2,0.8,0.2C384,365,384,365,384,365.1z M385.5,378.1
			c0,0,0.1,0.1,0.1,0.1c0.2,0.2,0.7,1.2,0.9,1.6C385.6,379.4,385.6,379,385.5,378.1z M389,382.4c-0.7-0.4-1.2-0.3-2,0.1
			c0,0-0.1,0-0.1,0c0.4-0.6,0.9-0.7,1-1.8c0.5-0.1,0.5-0.1,0.8-0.2c0.2,0,0.3,0.1,0.5,0.1C389.1,381.3,389.1,381.9,389,382.4z
			 M404.4,192.7c0.8,1.7,1.7,3.5,2.5,5.2c1.3,4.4-0.8,9.4-1.8,12.6c-1.8,6-2.9,11.8-3.1,18.5c-2.8-2.4-2.5-7.6-3.6-11.4
			c-0.7-2.3-1.6-4.5-2.1-6.9c-0.4-2.1,0.8-4.6,1.1-6.1c0.4-1.9,0.2-3.9,1.1-6.4c0.9-1.7,1.8-3.3,2.8-5c0.6-1.5,0.7-2.9,1.5-4.1
			C403.7,190,403.9,191.4,404.4,192.7z M392.5,174.2c0.2,0,0.3,0,0.5,0c1.1,2.9,3.8,5.2,5.6,7.5c1.1,1.4,1.8,2.9,2.9,4.4
			c-0.5,1-1.1,1.9-1.6,2.9c-0.2,1.3-0.5,2.7-0.8,4c-1.6,3.9-3.9,7.5-4,12.8c-0.1,0-0.2,0.1-0.2,0.1c-0.6-4.3-1.7-8.1-2.6-12.4
			c0-1.5,0-3,0-4.5C391.4,183.7,391.6,178.6,392.5,174.2z M390.5,171.2c0.5,1.6-0.8,4.3-1.1,5.9c0.2,3.2,0.4,6.3,0.6,9.5
			c-0.1,0-0.2,0-0.2,0c-1.8-6.1-6.3-10.1-7.9-16.4c-0.1-1.7-0.2-3.3-0.2-5c-0.4-2.1-0.5-3.3-0.1-5.1c-0.2-0.3-0.3-0.3-0.5-0.8
			C382.3,160.4,390.2,170,390.5,171.2z M378.7,162.1c1.7,1.5,0.9,6.7,1.6,9c1,2.9,2,6,3.5,8.5c0.9,1.5,2.4,2.6,3.1,4.4
			c0.7,2.2,1.3,4.5,2,6.8c0,0.2,0,0.3,0,0.5c-2.4-1-9.7-4.9-10.9-6.8C374.5,178.9,375.5,167.2,378.7,162.1z M375.4,184.6
			c1.2,0.6,1.7,2.4,2.8,3.2c1.3,0.7,2.7,1.3,4,2c1.9,1.3,5.8,4.9,8.4,4.8c1,4.6,2,9.2,3,13.8c0,0.2,0,0.3,0,0.5
			c-1.3-1-2.6-2.1-3.9-3.1C381.9,201.3,373.1,197.6,375.4,184.6z M395.9,225.7c-1.1-1.7-2.3-3.5-3.4-5.2c-0.8-1.8-1.6-3.7-2.4-5.5
			c-1.6-1.4-3.2-2.8-4.8-4.1c-1.6-1.9-2.4-4.8-3.5-7.1c3.2,0.5,11.8,6.3,13.1,8.8c2,3.5,1.3,8.2,2.6,12.4c1.4,4.4,3.7,8.2,3.6,13.9
			c-0.6-0.8-0.5-3.1-1-4.4C399.2,231.4,397.4,228.5,395.9,225.7z M401,254.8c0.5,0.1,1,0.3,1.5,0.4c-0.9,3.8-0.7,9-1.4,12.5
			c-0.4,2-1.8,4.4-1.4,6.9c-0.1,0-0.2,0.1-0.2,0.1C398.6,269.9,401.5,260.3,401,254.8z M382.4,233.3c-1-0.4-2.1-1.2-2.9-1.9
			c0.2-0.5,0.4-0.9,0.6-1.4c-1-0.6-1.3-4.9-1.2-6.6C381,225.8,381.7,230,382.4,233.3z M371,216.3c6.9,2.1,4.7,7.8,6.4,13.4
			c0,0.1,0,0.3,0,0.4c-1.8-0.2-4-1.9-5.2-2.9c-0.1,0-0.2,0-0.2,0c-0.3-0.6,0.2-2.1-0.4-2.9c-1.1-1.7-2.6-3.1-3.8-4.6
			c0-0.2-0.1-0.3-0.1-0.5C368.8,218,369.5,217.1,371,216.3z M360,223.8c2.1-0.4,4.4-1.7,5.8-3.1c1.9,0.7,2.8,3.3,3.5,5
			c-3-0.7-6.3-1.7-9.2-1.8C360,223.9,360,223.9,360,223.8z M393.5,388.7c-0.2,0.1-0.3,0.3-0.5,0.4c-0.4-0.2-0.8-0.5-1.2-0.8
			c-0.2-0.7-0.5-1.4-0.8-2.1c0.7,0.2,1.3,0.5,2,0.8c0.2,0.5,0.3,1.1,0.5,1.6C393.5,388.6,393.5,388.7,393.5,388.7z M396.9,389.9
			c-0.5-0.5-0.3-1.8-0.5-2.6c0.3,0,0.6,0.1,0.9,0.1c0.1,0,0.2,0,0.2,0C397.4,388.4,396.9,389.2,396.9,389.9z M399.5,381.2
			c-0.3,0-0.6,0.1-0.9,0.1c-0.3-0.3-0.6-0.7-0.9-1c0-0.5,0-0.2,0.1-0.6c0.2,0,0.4,0,0.6,0c0.1,0.6,0.2,0.7,0.6,1
			c0.1,0.1,0.2,0.3,0.4,0.4C399.5,381.1,399.5,381.2,399.5,381.2z M393,373.4c0.8-0.9,1.7-1.8,2.5-2.6c1.4-2.7,2.4-13.3,2.2-16.5
			c-0.1-2.3-0.2-4.6-0.4-6.9c1.7-5.2,0.4-16.2-0.6-20.9c-0.8-3.7-1.6-13.2-3.2-15.4c-0.5-0.3-1-0.7-1.5-1c-1.4-1.2-2.6-2.9-3.8-4.4
			c-0.9-0.8-1.8-1.7-2.8-2.5c-3-4.2-5.1-8.9-8.2-13c-1.2-1.5-3.3-2.3-4.8-3.6c-2.6-2.2-4.8-4.5-7.6-6.6c-1.1-1.2-2.3-2.4-3.4-3.6
			c-1.8-1.4-5.2-3.2-5.9-5.5c2.7,0.9,5.9,2.3,8.8,3c2.4,0.4,4.8,0.8,7.1,1.1c3.5,1.4,5.1,5.4,8.6,7c5.6,2.5,11.2,4.7,14.6,9.2
			c2.2,3,1,9.1,0.4,12.9c-0.6,4.2,1.7,14,4.6,15.1c0-0.2,0.1-0.5,0.1-0.8c-0.3-0.3-0.6-0.6-0.9-0.9c0.2-0.1,0.3-0.2,0.5-0.2
			c-1-3.8-2.1-8.9-2.5-12.6c0.4-3.1,0.8-6.3,1.1-9.4c-0.5-2.6-1.4-4-2.4-5.9c-0.1-1.6-0.2-3.2-0.2-4.8c-1-3.9-2.1-8.9-2.8-13.1
			c0-1.8,0-3.6,0-5.4c-0.3-1.1-0.7-2.3-1-3.4c0.3-3.5-0.1-9.9-0.9-12.7c-0.4-1.5-2.7-5-3.6-6.4c-0.9-0.7-1.8-1.5-2.8-2.2
			c-1-1.1-2-2.2-3-3.2c-5.2-2.6-11.8-4.4-17.9-5.9c-2.7-0.5-5.4-1.1-8.1-1.6c-3.3-2.5-6.7-5-10-7.5c0-0.1,0.1-0.2,0.1-0.2
			c4.9,0,8.6,1.8,12.6,2.8c2.6,0.6,5.6,0.5,7.9,1.2c3.8,1.2,7.1,3.8,10.4,5.6c1.3,0.7,6.7,3.4,7.4,4.2c0.9,1.6,1.8,3.3,2.6,4.9
			c1.1,1.2,2.3,2.5,3.4,3.8c0.7,3,1.5,6,2.2,9c0.4,1.3,0.1,2.8,0.4,3.6c-0.4,0.7,0.3,6.5,0.5,7.1c0.4,1.2,1.5,3.4,1.9,4.5
			c0.9,2.5,0.5,5.9,2.9,7c1.2,0.4,1.3-1,1.8-1.8c0-0.1,0-0.2,0-0.2c0.5,1.2,0.1,2.1,0.1,3.2c0.3,5.4-2.5,11.8,0.1,17.1
			c0.7,1.4,0,3.2,1.2,4c-0.3,2.3-2.7,4.2-2.1,6.5c0,0.1,0,0.2,0,0.2c0.5,0.3,0.8,0.4,1.5,0.2c1.2-2.1,1.7-6.6,4.2-7.4
			c2.3-8.8,6-14.1,13.1-18c0,0,0.1,0,0.1,0c-1.9,2.5-3.8,5.1-5.6,7.6c-1.1,2.5-2.2,5.1-3.2,7.6c-0.8,1-1.7,2.1-2.5,3.1
			c-1,1.8-2,3.7-3,5.5c-1.1,2.1-1.9,6.2-1.4,9.1c0.2,1.2,1.1,2.6,0.9,4.1c-1,5.5-2.7,10.7-3.8,15.9c-1.2,6.5,0.1,12.6,1.1,18
			c0.5,2.5-0.4,4.6-0.6,6.8c-0.5,4.9,0.1,12.3,3,15.4c0,0.1-0.1,0.2-0.1,0.2C398.8,374.8,396.5,373.5,393,373.4z M403.8,379.1
			c0,0.1,0,0.2,0,0.2c-0.2,0.1-0.4,0.2-0.6,0.2c-0.1-0.1-0.2-0.2-0.2-0.2c-0.1,0-0.2-0.1-0.2-0.1c0,0,0-0.1,0-0.1
			c0.2,0,0.3-0.1,0.5-0.1C403.4,379,403.6,379,403.8,379.1z M404,388.9c-1.3,0.6-2.3-0.7-2.5,1.4c-0.1,0-0.2,0.1-0.2,0.1
			c-0.3-0.5-0.1-1-0.1-1.9c-0.7-0.2-0.9-0.4-1.2-1c0.2-0.4,0.5-0.8,0.8-1.1c0.7,0.5,1.2,1,2.5,1c0.4-0.4,0.8-0.8,1.2-1.1
			c0.5,0.4,0.4,0.9,0.6,1.6C404.6,388.2,404.4,388.8,404,388.9z M404.5,385.1c0,0-0.1,0-0.1,0c0-0.7,0-0.7,0.4-1
			c0.2,0.2,0.4,0.3,0.6,0.5C405.1,384.7,404.8,384.9,404.5,385.1z M407.4,378.1c-0.1,0-0.2-0.1-0.2-0.1c0.2-0.5,0.2-0.3,0.5-0.6
			c0.1,0,0.2,0,0.4,0c-0.1,0.2-0.2,0.4-0.4,0.6C407.6,378,407.5,378,407.4,378.1z M407.8,381.3c0.1-0.2,0.2-0.5,0.2-0.8
			c1,0.7,1.7,2,2.4,3.1C408.9,383.2,408.9,381.9,407.8,381.3z M412.7,380.8c-0.2,0.1-0.5,0.3-0.8,0.4c-0.2-0.3-0.3-0.6-0.5-0.9
			c0.2-0.2,0.3-0.5,0.5-0.8c0.5,0.3,0.5,0.5,0.8,0.9C412.7,380.6,412.7,380.7,412.7,380.8z M412.8,378.6c0.1-1.7-1.1-2.6-2.5-2.8
			c0.2-1.3,0.6-1.3,1-2.1c1.1,1.3,0.5,3.4,2.6,4.5c0,0.1,0.1,0.2,0.1,0.2C413.6,378.5,413.2,378.5,412.8,378.6z M414.3,373.7
			c0,0-0.1,0-0.1,0c0-0.1-0.1-0.2-0.1-0.2c0.5-0.3,0.6-0.4,0.8-1c0.5,0.2,0.5,0.3,0.8,0.8C415.2,373.5,414.9,373.6,414.3,373.7z
			 M416,376.4c0.5,0.2,0.3,0,0.5,0.5C416,376.8,416.3,376.9,416,376.4z M420.9,368.9c0.1,0,0.2,0,0.4,0c0.3,0.4,0.6,0.8,0.9,1.2
			c-0.7-0.3-0.7-0.6-1.9-0.6C420.5,369.1,420.6,369.2,420.9,368.9z M420.5,373.2c0.3,0.1,0.6,0.2,0.9,0.2c-0.3,0.6-0.7,1.3-0.5,2
			c-0.2,0-0.4,0.1-0.6,0.1C420.6,374.4,420.8,374.4,420.5,373.2z M418.2,381.1c0.3-0.2,0.6-0.4,0.9-0.6c0.2,0.1,0.4,0.2,0.6,0.2
			c-0.1,1.4-0.2,2,0.8,3.4C419.3,383.5,418.8,382.2,418.2,381.1z M421.7,386.4c-0.4-0.4-0.8-1.5-1.2-2.2c1,0.2,1.3,0.9,2,1.4
			c0,0.1,0.1,0.3,0.1,0.4C421.9,386,421.9,386,421.7,386.4z M423.2,363.4c0,0-0.1,0-0.1,0c-0.2-0.3-0.5-0.7-0.8-1c0.3,0,0.6,0,0.9,0
			C423.2,362.8,423.2,363.1,423.2,363.4z M429,385.4c0-0.1,0-0.2,0-0.4c0.1,0,0.3,0.1,0.4,0.1c0,0.1,0.1,0.3,0.1,0.4
			C429.4,385.5,429.2,385.5,429,385.4z M429.2,381.6c-0.1,0-0.2,0.1-0.2,0.1c-0.1,0.5-0.2,1-0.2,1.5c-0.9-0.6-2.1-1.3-2.6-2.4
			c0.2,0,0.5-0.1,0.8-0.1c1,0.7,1.7,0.8,3.4,0.6c0.1,0.2,0.2,0.4,0.2,0.6C430,381.8,429.6,381.7,429.2,381.6z M428.8,377.4
			c0.2-0.2,0.5-0.3,0.8-0.5c0.4,0.3,0.5,0.4,0.8,0.9c0,0,0,0.1,0,0.1c-0.5,0.1-0.8-0.1-1.4-0.2C428.9,377.6,428.8,377.5,428.8,377.4
			z M430.4,373.8c0,0.2-0.1,0.3-0.1,0.5c-0.7-0.4-1.3-0.8-2-1.2c-0.4,0.2-0.8,0.3-1.2,0.5c0.5-0.5,0.9-1.1,1.4-1.6
			c0.8,0.6,0.9,1.4,2,1.8C430.4,373.7,430.4,373.8,430.4,373.8z M442.9,372.2c0.6,0.3,1,0.6,1.2,1.2c-0.5-0.1-1-0.2-1.5-0.2
			c-0.2-0.2-0.3-0.5-0.5-0.8C442.4,372.4,442.7,372.3,442.9,372.2z M443,377.9c0.7,1-0.2,2-0.2,3.5c0,0-0.1,0-0.1,0
			c-0.3-0.5-0.7-1-1-1.5c-0.5-0.5-1.1-0.2-1.8-0.4c-0.4-0.2-0.5-0.5-0.8-0.9C440.8,379.7,441.7,378.9,443,377.9z M440.3,372.8
			c0,0.1-0.1,0.3-0.1,0.4c-0.3-0.2-0.7-0.3-1-0.5C439.5,372.7,439.9,372.8,440.3,372.8z M439.2,377.7c0,0.2,0,0.3,0,0.5
			c-0.1,0-0.2-0.1-0.2-0.1c0-0.3-0.1-0.7-0.1-1C439,377.3,439,377.4,439.2,377.7z M438.7,377.1c-0.4-0.3-0.8-0.6-1.1-0.9
			C438.2,376.4,438.4,376.6,438.7,377.1z M437.2,371.2c0.2,0,0.5,0,0.8,0c0.2,0.4,0.3,0.8,0.5,1.1c-0.8,0.4-1.4,0.2-1.6,1.1
			c-0.2,0-0.4,0-0.6,0C436.5,372.7,436.8,371.9,437.2,371.2z M432.7,369.3c0.4,0.2,0.3,0.3,0.5,0.8c-0.3,0.5-0.5,0.9-0.6,1.6
			c-0.1,0-0.2,0.1-0.2,0.1c-0.4-0.7-0.7-1.2-1.1-1.8C431.7,369.8,432.2,369.6,432.7,369.3z M432.4,372.3c0,0.2,0.1,0.3,0.1,0.5
			C432.3,372.5,432.5,372.8,432.4,372.3z M433.2,374.6c0,0-0.1,0-0.1,0c-0.3-0.3-0.6-0.9-0.6-1.5
			C432.8,373.5,433.1,373.8,433.2,374.6z M432.7,381.9c-0.4-0.4-0.8-0.8-1.1-1.1c0.8,0.2,1.1,0.3,1.9,0.6
			C433.2,382,433.4,381.9,432.7,381.9z M436.4,382.8c-0.2,0-0.3,0.1-0.5,0.1c-0.2-0.7-0.5-0.7-0.9-1.1c0.2,0,0.4,0.1,0.6,0.1
			c0.2,0.2,0.5,0.5,0.8,0.8C436.4,382.7,436.4,382.8,436.4,382.8z M436.4,379.2c-1.1-0.6-2.6-1.4-3-3c0.4,0.3,0.7,0.6,0.9,1.1
			c0.3-0.1,0.7-0.2,1-0.2c0.5,0.9,0.6,1.4,1.2,2C436.5,379.1,436.5,379.2,436.4,379.2z M327,379.8c-0.7-1.3-2.7-4-4.4-4.2
			c-0.2,0.1-0.4,0.2-0.6,0.2c-0.3,1.7,0.4,2.5,1.8,3.2c0,0,0,0.1,0,0.1c-0.2,0.7-0.3,0.5-0.6,0.9c0,0,0,0.1,0,0.1c0.4,0,0.8,0,1.1,0
			c0,0.5,0.1,1,0.1,1.5c0.8-0.2,1.6-0.4,2.4-0.6C326.9,380.7,327,380.2,327,379.8z M459.2,381.2c0.8,0.5,2.3,0.6,3.5,0.6
			c0.3-0.2,0.6-0.5,0.9-0.8c0.5-0.2,0.3-0.1,0.4-0.8c-0.4-0.8-1.4-1.5-1.5-2c-0.5-0.6-1.8-0.9-2.9-0.9
			C458.6,378.8,458.9,379.5,459.2,381.2z M317.4,378.2c-0.1,0-0.2,0.1-0.2,0.1c-0.8,1.2-0.1,2.8,0,4.1c1.2,0.3,2.1,0,3-0.2
			c0.4-0.6,0.5-0.8,0.5-1.6C319.9,379.6,318.9,378.4,317.4,378.2z M330.9,381.3c-0.4-0.9-1.6-1.6-2.9-1.6c-0.1,0.2-0.2,0.3-0.2,0.5
			c-0.5,1.3,0.6,2.3,1,3.1c0.5,0,1.1,0,1.6,0C330.8,382.7,331.2,382.2,330.9,381.3z M472,387.2c1-1-0.4-3.1-1.2-3.5
			c-1.2,0.4-1.7,0.8-2.9,1.1c-0.2-0.3-2.5-3.1-3-3.4c-0.2,0-0.5-0.1-0.8-0.1c-0.5,0.7-0.6,1.2-0.5,2.1c-0.6-0.5-1.2-0.9-1.8-1.4
			c-0.2,0-0.4,0.1-0.6,0.1c-1.1,1.4-0.1,2.6,0.9,3.9c1-0.1,1.3-0.4,1.8-1c0.9,1.6,2.1,3.2,4,3.4c0.4-0.3,0.5-0.5,0.6-1.1
			c0.1,0,0.2-0.1,0.2-0.1c0,0.2,0,0.4,0,0.6c0.2,0.1,0.5,0.3,0.8,0.4C470.9,388.2,471.5,387.9,472,387.2z M339.7,382.4
			c-0.3,0-0.6,0-0.9,0c0,0.1-0.1,0.2-0.1,0.2c-0.5,0.4-0.4,2-0.4,2.9c0.2,0.2,0.4,0.4,0.6,0.6c0.5,0.1,1.1,0.1,1.6-0.1
			c0.6-0.3,0.8-0.9,0.8-1.9C340.8,383.6,340.2,383,339.7,382.4z M326.7,383.4c-0.2,0-0.3,0.1-0.5,0.1c-0.1,0.6-0.2,1.2-0.2,1.8
			c0.2,0.2,0.3,0.4,0.5,0.6c0.5,0,1.1-0.1,1.6-0.1c0.1,0,0.2-0.1,0.2-0.1C327.9,384.6,327.7,383.9,326.7,383.4z M461.2,387.1
			c-0.1-1.1-0.5-1.2-0.9-2c-0.5-0.4-0.6-0.8-1.5-0.9c-0.2,0.1-0.4,0.3-0.6,0.4c0,2.4-0.3,5.4,1.5,6.4
			C462.2,390,459.4,388.1,461.2,387.1z M415.7,394.3c-1.1,0-1.5,0.3-1.6,1.1c-0.7,0.4-1-0.1-1.2-1c1-0.8,1.6-2.5-0.1-3.1
			c0.4-0.6,0.5-1.1,0.5-2c-0.8-1.1-1.2-2.1-2.6-2.2c-0.4,0.2-0.8,0.5-1.2,0.8c-0.2,0.4-0.9,2.9-0.9,3.6c0.6,0.9,1.3,1.1,2,1.8
			c0.4,0.4,0.3,2.6,0.5,3.5c0.6,0.5,1.1,0.7,1.9,0.8c0.6-0.4,0.9-0.6,1-1.5c0.2,0.5,0.5,1,0.8,1.5c1,0.3,1.6,0.4,2.6,0.1
			c0.3-0.5,0.5-0.9,0.2-1.6C417.1,395.2,416.5,394.7,415.7,394.3z M347.5,389.6c-0.4-1-1.5-1.9-2.9-1.9c-0.1,0-0.2,0.1-0.2,0.1
			c-1.3,2.1,0.8,5.9,3.6,4.9c0.8-0.4,0.9-1.2,1.8-1.6c-0.1-0.4-0.2-0.8-0.2-1.2C348.8,389.3,348.6,389.4,347.5,389.6z M360.7,388.8
			c-0.8-0.2-1.1-0.5-1.5-1.1c-0.3,0-0.6,0-0.9,0c-0.1,0.1-0.2,0.3-0.4,0.4c-0.7,0.8-0.2,1.9-0.1,3.1c0.2,0.2,0.5,0.5,0.8,0.8
			C360.6,391.4,360.6,391.1,360.7,388.8z M477.2,388.7c-0.4-0.2-0.8-0.3-1.1-0.5c-0.6,0.5-0.9,0.9-1.2,1.8c0.4,0.7,0.8,1.5,1.1,2.2
			c0,0,0,0.1,0,0.1c0,0-0.1,0-0.1,0c-0.2,0-0.3-0.1-0.5-0.1c0,0.1,0.1,0.3,0.1,0.4c0.5,0.3,1.5,0.3,2.4,0.1c0.1,0,0.2-0.1,0.2-0.1
			C477.8,391.2,477.5,389.9,477.2,388.7z M465.5,389.4c-0.2,0.3-0.5,0.6-0.8,0.9c-0.4,0.5,0.3,1.2,0.1,2c0.3,0.3,0.7,0.7,1,1
			c0.4,0.2,1.1,0.2,1.6-0.1c0.4-0.3,0.5-0.7,0.6-1.2c-0.5-1.1-1.1-1.6-1.6-2.5C466.2,389.4,465.9,389.4,465.5,389.4z M431.9,394.7
			c0.5-0.1,1.1-0.2,1.6-0.2c0.4,0.4,0.8,0.8,1.2,1.2c0.5-0.2,1-0.4,1.5-0.6c-0.2-0.7-0.4-1.3-0.6-2c-0.9-0.7-1-0.9-2.4-0.6
			c-0.4-0.8-1.5-2.2-2.2-2.6c-0.4,0-0.8-0.1-1.2-0.1c-0.1,0.1-0.2,0.3-0.2,0.4c-0.2,0.4-0.3,0.8-0.2,1.5c0.5,0.7,1.1,1.4,1.6,2.1
			C431.3,394,431.6,394.4,431.9,394.7z M331.9,390.4c-0.8,0.4-1.4,0.6-2,1.2c0,0.2-0.1,0.4-0.1,0.6c0.2,0.4,0.5,0.8,0.8,1.2
			c0.3,0.1,0.7,0.3,1,0.4c1.1-0.1,1.3-0.5,2.1-0.8c0.2-0.4,0.3-0.7,0.1-1.2C333.5,391.2,332.9,390.6,331.9,390.4z M428.3,394.2
			c0-1.4-1-2.9-2.1-3.2c-0.3,0.2-0.6,0.4-0.9,0.6c-0.1,2,0.9,3.3,2.5,3.2c0.1,1.3,0.7,2,1.6,2.5c0.2,0,0.5-0.1,0.8-0.1
			c0.5-0.3,0.6-0.9,0.6-1.6C430,394.8,429.5,393.8,428.3,394.2z M472.5,394.8c0,0,0.6-1.7,0.5-2.1c-0.3-0.7-0.8-1.1-1.5-1.4
			c-0.2,0-0.4-0.1-0.6-0.1c-0.2,0.2-0.5,0.5-0.8,0.8c0.1,2.2,0.2,3.6,1.2,5.1c0.3,0.1,0.6,0.2,0.9,0.2c0.4-0.3,0.5-0.2,0.8-0.6
			c0,0,0.1-0.1,0.1-0.1c0-0.1,0-0.2,0-0.2C473.2,395.7,473,395.1,472.5,394.8z M460.9,395.3c-0.1-0.5-0.2-0.9-0.2-1.4
			c-0.6-0.5-1.9-1.7-2.8-0.6c-0.7-0.6-1.3-1.2-2-1.8c-0.2,0-0.5-0.1-0.8-0.1c-0.2,0.2-0.4,0.5-0.6,0.8c0.1,1.4,0.8,2.1,1.8,2.6
			c0.2,0,0.3,0.1,0.5,0.1c0.5-0.4,0.7-0.4,0.8-1.4c0.1,0,0.2-0.1,0.2-0.1c0,1.1,0.4,2.3,1.2,2.8
			C460.2,396.8,460.7,395.9,460.9,395.3z M363,393.8c-0.4-0.9-0.8-1.5-1.8-1.8c-0.5,0.1-1.1,0.2-1.6,0.2c-0.7,1.3-1.8,1.5-1.4,3.2
			c0.8,0.5,2.5,0.7,3.6,0.4C362.8,395.5,362.8,394.8,363,393.8z M445.2,397.1c-0.1-0.1-0.2-0.2-0.2-0.4c0.5-0.8,0.8-1.1,1.6-1.6
			c-0.1-0.5-0.2-1.1-0.2-1.6c-0.7-0.3-1.3-0.7-2-1c-0.7,1.2-2.1,1.1-2.8,2.5c0.6,1.5,1.4,4,3,5c0.9-0.1,1-0.3,1.5-0.6
			c0.5,0.3,0.7,0.3,1,0.8c0.2,0,0.5-0.1,0.8-0.1c0.2-0.6,0.4-1.2,0.6-1.8c-0.5-0.5-1.1-1.1-1.6-1.6
			C446,396.4,445.5,396.5,445.2,397.1z M453.2,396.6c0.4-0.4,0.6-0.7,0.9-1.2c-0.5-1.2-1-1.8-2.1-2.4c-0.7,0-0.5,0-1,0.4
			c-0.6-0.5-0.8-0.9-2-0.9c-0.1,0.2-0.2,0.3-0.2,0.5c-0.1,1.8,1,3.8,2.8,2.9c0,0.2,0,0.3,0,0.5C452,396.4,452.6,396.5,453.2,396.6z
			 M420.4,396.2c0-0.3,0.1-0.7,0.1-1c-0.5-0.9-0.9-1.7-2.4-1.8c-0.2,0.1-0.3,0.3-0.5,0.4c-0.6,0.7,0.2,1.6,0.6,2.4
			c0.4,0.2,0.8,0.3,1.1,0.5C419.8,396.5,420.1,396.4,420.4,396.2z M424.9,393.8c-1.7,1.8-0.4,4.8,2.4,4c0.1-0.4,0.2-0.8,0.4-1.2
			C427.1,395.3,426.4,394.2,424.9,393.8z M353.9,398.9c0.1,0,0.2-0.1,0.4-0.1c0.1-2.4-0.6-3.5-2.5-4c-1.3,1.6-0.4,3.2,0.4,4.5
			C352.8,399.2,353.3,399.1,353.9,398.9z M393,395.9c-0.3-0.2-0.4-0.2-1-0.2c-2.3,1.4,0.5,5,2.4,5.2c0.5-0.3,0.6-0.6,0.9-1
			C395.1,398.3,394.3,396.6,393,395.9z M363.9,395.8c-0.3,0-0.7,0-1,0c-0.2,0.2-0.5,0.4-0.8,0.6c-0.6,2.9,0.7,4.3,3.5,3.8
			C366.6,398.3,365.2,396.4,363.9,395.8z M452.9,396.6c-0.7,0.4-1,0.4-1.4,1.1c0.1,1.2,0.6,2.3,1.5,2.8c0.3,0,0.6,0.1,0.9,0.1
			c0.2-0.3,0.5-0.6,0.8-0.9C455.3,398.2,453.9,396.9,452.9,396.6z M404.9,396.8c-0.3,0-0.7-0.1-1-0.1c-1.4,1-0.4,2.4,0.4,3.4
			c0.8-0.1,1.6-0.2,2.4-0.2c0-0.3,0.1-0.7,0.1-1C406.4,397.8,405.9,397.2,404.9,396.8z M460.7,397.7c-0.2,0-0.5-0.1-0.8-0.1
			c-0.2,0.2-0.3,0.4-0.5,0.6c-0.5,1.3,0.6,2,1,2.8c0.3,0.1,0.7,0.2,1,0.2c0.3-0.2,0.2-0.1,0.5-0.1c0.2-0.5,0.3-1,0.5-1.5
			C461.8,398.9,461.5,398.1,460.7,397.7z M430.4,398.3c-0.7,0.1-0.6,0.2-1,0.5c0,0.2,0,0.5,0,0.8c-1,0-1.2,0.3-1.6,0.9
			c0.1,0.6,0.2,1.2,0.4,1.8c0.4,0.2,0.8,0.5,1.2,0.8c1.1-0.1,1.3-0.4,2.6-0.4c0.2-0.3,0.4-0.6,0.6-0.9
			C432,400.1,431.9,399.3,430.4,398.3z M400,398.9c-0.2,0.1-0.4,0.2-0.6,0.2c-0.7,1.1-0.1,2.3,0.8,2.9c0.4,0,0.8,0.1,1.2,0.1
			c0.1,0,0.2-0.1,0.2-0.1c0.7-1,0.3-1.3,0-2.4C401.1,399.4,400.6,399.2,400,398.9z M415,399.3c-0.2,0-0.4,0.1-0.6,0.1
			c-0.2,0.2-0.3,0.4-0.5,0.6c0.1,1.5,0.7,1.5,1,2.5c0.4,0,0.8,0.1,1.1,0.1c0.4-0.4,0.8-0.8,1.2-1.1c-0.3-0.7-0.7-1.3-1-2
			C415.9,399.5,415.5,399.4,415,399.3z M411.2,399.9c-0.4-0.3-1.3-0.2-1.6-0.2c-0.2,0.3-0.3,0.7-0.5,1c0.1,1.4,0.8,1.6,1.5,2.4
			c0.6-0.1,1.3-0.2,1.9-0.4C412.5,401.3,412.1,400.5,411.2,399.9z M435.9,399.9c-0.2,0-0.4-0.1-0.6-0.1c-0.1,0.1-0.2,0.2-0.4,0.2
			c0,1.8,0.5,1.9,0.9,3.1c0.5,0,1,0.1,1.5,0.1c0.2-0.5,0.4-0.8,0.2-1.4C437.8,401.1,436.7,400.2,435.9,399.9z M441.9,401.4
			c-0.3,0-0.7-0.1-1-0.1c-0.1,0.1-0.2,0.3-0.4,0.4c-0.3,1.7,0.7,2.3,1.5,3.2c1.4,0,1.6-0.6,1.5-2.1
			C443,402.4,442.5,401.9,441.9,401.4z M433.5,401.6c-0.3,0.2-0.4,0.1-0.6,0.5c-0.6,1,0.8,2.7,1.6,3.1c0.8-0.2,0.9-0.7,1.1-1.5
			C435.6,402.6,434.5,401.8,433.5,401.6z M370.5,402.2c-0.4,0-0.8-0.1-1.1-0.1c-0.6,0.4-0.7,0.4-1,1.1c0,1.2,1,2.3,2,2.1
			c0.3,0,0.6,0,0.9,0c0.3-0.3,0.6-0.6,0.9-0.9C371.9,403.4,371.5,402.6,370.5,402.2z M378.8,402.2c-0.3,0.2-0.7,0.3-1,0.5
			c-0.3,0.3-0.3,0.5-0.1,1c-0.1,0.5,0.4,1.1,1,1.4c0.5,0,0.9,0.1,1.4,0.1c0.2-0.4,0.5-0.8,0.8-1.1c-0.2-0.5-0.4-1.1-0.6-1.6
			C379.7,402.4,379.3,402.3,378.8,402.2z M352.7,402.4c-0.5,0.1-1,0.2-1.5,0.2c-0.1,0.2-0.2,0.5-0.4,0.8c0.1,3.1,2.6,2.1,4.1,1.4
			c-0.1-0.5-0.2-1-0.2-1.5C354.1,402.9,353.5,402.7,352.7,402.4z M419.7,402.6c-1,1.7-0.1,3.8,1.6,4.2c0.4-0.2,0.8-0.5,1.1-0.8
			C422.4,404.2,421.2,402.8,419.7,402.6z M445.9,403.3c-0.4-0.1-0.8-0.2-1.2-0.2c-0.1,0-0.2,0.1-0.2,0.1c-0.7,1.3,0.5,2.9,1.8,3.1
			c0.3,0,0.6,0,0.9,0c0-0.4,0.1-0.8,0.1-1.1C447.2,404.4,446.4,404,445.9,403.3z"/>
	</g>
</g>
</svg>
