<?xml version="1.0" encoding="utf-8"?>
<!-- Generator: Adobe Illustrator 21.0.0, SVG Export Plug-In . SVG Version: 6.00 Build 0)  -->
<svg version="1.1" id="Calque_1" xmlns="http://www.w3.org/2000/svg" xmlns:xlink="http://www.w3.org/1999/xlink" x="0px" y="0px"
	 viewBox="0 0 841.9 595.3" style="enable-background:new 0 0 841.9 595.3;" xml:space="preserve">
<style type="text/css">
	.st0{fill:#DADADA;}
	.st1{fill:#1D1D1B;}
</style>
<g>
	<g>
		<path class="st0" d="M417.8,229c0.3-0.2,0.7-0.2,1.3-0.2c0.1-0.1,0.2-0.1,0.5-0.1c0.5,1,0.2,1.5,1.9,1.4c0.2,0.3,0.4,0.4,0.8,0.5
			c0.2-0.3,0.4-0.4,0.8-0.5c0.4,0.3,1.1,0.2,1.5,0.5c0.4,0.2,0.5,0.7,0.9,0.9c0.5-0.7,1.2-0.7,1.4-1.9c0,0-0.1-0.1-0.1-0.1h-0.2
			c-0.1,0.4-0.4,0.6-0.7,0.9c-0.5,0-1,0-1.3-0.2c-0.7-0.2-1.5-1-1.5-2c-0.1-0.1,0,0-0.1-0.2c0.4-0.1,0.5-0.1,0.7-0.4
			c0.9,0.2,1.8,0.5,2.6,0.7v-0.1c-0.5-0.2-2.3-2-1.2-2.6h1.2c0.7,0.5,3.3,2.3,3.5,2.4l0.7-0.7c-0.5-0.6-1-1.2-1.2-2.1
			c0.6-0.4,0.9-0.5,2-0.5c0.2,0.2,0.3,0.2,0.7,0.2v-0.2c0.6-1,0.2-2.5,1.1-3.2c0.2-0.2,0.6-0.3,0.9-0.1c0.6,0.2,0.8,0.3,0.8,1.2
			c-0.7,0.7-0.8,1.8-1.2,2.8h0.1c0.5-0.6,0.6,0.1,1.3-0.2v-0.2c0.4-0.3,0.5-0.2,1.1-0.1c0.1-1.3,0.8-0.9,1.1-1.5
			c0.2-0.4-0.2-1,0.1-1.4c0.3-0.3,0.5-0.4,1.1-0.4c0.3,0.2,0.6,0.4,1.1,0.5c0,0.6-0.1,0.9-0.2,1.3c-0.4,0.2-0.8,0.3-1.1,0.5
			c0.7,0.4,1.2,1.2,1.2,2.4c-0.5,0.2-0.8,0.6-1.4,0.7c-0.2,0.1-0.7-0.1-0.9-0.4c-0.1-0.2-0.2-0.3-0.2-0.6h-0.1c0,0.4,0,0.4-0.2,0.6
			c-0.6,0.4-1.3,0.6-2.2,0.6c-0.2-0.3-0.5-0.7-0.7-1.1c0,0-0.1,0.1-0.1,0.1c-0.3,0.7-0.6,1.2-0.9,1.9h0.2c0.3,0.3,1,0.4,1.4,0.5
			c0-0.5,0-0.5,0.4-0.7c0.6-0.4,1.3-0.4,2.1-0.4c0,0.7,0,0.7,0,1.4h0.2c0.2-0.2,0.5-0.3,0.8-0.4c0-0.6,0.2-0.9,0.6-1.1
			c0.8-0.5,1.9,0.3,2.6,0.4c0.2-0.3,0.5-0.3,0.7-0.6c-0.4-0.5-0.1-1,0.1-1.4c-1-0.4-1.9-1-1.9-2.4c0.8-0.5,0.8-1.2,1.3-1.7
			c0.3-0.3,0.7,0,0.9-0.4c-0.4-0.4-0.4-0.9-0.2-1.5c0.5-0.3,0.6-0.6,1.3-0.7c0.8-0.5,1.5,0.6,1.9,0.9c-0.4-0.6-0.8-0.9-0.8-1.9
			c0.4-0.3,0.3-0.5,1.1-0.6c0.5,0.3,1,0.1,1.7,0.1v-0.1c-0.3-0.3-0.6-0.7-0.7-1.3c0.4-0.4,0.8-0.9,1.4-1.2c0.1-0.1,1.3,0,1.3,0v-0.5
			c-0.3-0.4-0.3-0.7-0.2-1.2h-0.1c-0.7,1-2.1,0.8-3.2,0.5c-0.5-0.7-0.9-1.3-1.1-2.5h0.7v-0.2c-0.2-0.1-0.2-0.1-0.5-0.1
			c-0.2,0.2-0.6,0.2-0.8,0.5c0.5,0.4,0.3,0.9,0.2,1.7c0.6,0.3,1,0.6,1.4,1.1c0,0.8-0.3,0.7-0.5,1.2c-0.3,0.8,0.5,1.3-0.4,1.8
			c-0.5,0.3-0.8-0.1-1.2-0.2c-0.4-0.1-0.8,0.3-1.1,0.1c-0.7-0.2-1-0.6-0.9-1.5c0.3-0.3,0.2-0.7,0.5-1.1c0.1-0.2,0.4-0.2,0.6-0.4h0.1
			v-0.5c-0.1-0.1-0.2-0.2-0.4-0.4h-0.4v0.4c-0.9,0.3-0.6,0.6-1.9,0.5c-0.3,0.7-0.6,0.8-1.3,1.1v0.1c0.6,0,0.9,0,0.9,0.6
			c-0.3,0.7,0.9,2,1.1,3.1c-0.8,0.4-0.9,0.8-2,0.7c-0.1-1.3-1.1-2.3-1.3-3.5c0.2-0.2,0.2-0.5,0.5-0.7c0.3-0.2,0.3-0.2,0.6-0.1
			c-0.5-0.7-1-0.9-1.1-2.1c0.8-0.4,1.7-0.8,2.7-0.7c0-0.3-0.2-0.1,0.1-0.4c0.3-0.2,1.1-0.5,1.3-0.4c0.3,0.2,0.2,0.3,0.4,0.5
			c0.3-0.7,1.1-0.7,1.4-1.3c-0.3-0.1-1.5-1.2-1.5-1.5c-0.1-0.4,0.1-0.7,0-0.9c-0.1-0.1-0.3-0.2-0.5-0.4v0.5c0.1,0.2,0.1,0.3,0.1,0.6
			c-0.3,0.2-0.3,0.3-0.6,0.5c-0.6,0.4-1-0.2-1.5-0.4c-0.4,1.1-1.4,0.3-1.8,0.8c0.2,0.2,0.3,0.6,0.1,0.9c-0.2,0.6-0.6,1.3-1.4,1.4
			c-0.5-0.5-1-0.3-1.1-1.3c0.5-0.6,0.7-1.7,1.7-1.8c0-0.4-0.4-1.1-0.2-1.3c0.2-0.4,0.4-0.5,0.9-0.6c0.3,0.3,0.7,0.2,1.1,0.5
			c0.2,0.2,0.5,0.5,0.7,0.7c0-0.6,0.1-0.5,0.2-1.2c-0.6,0-0.6,0.2-1.4,0.2c-0.4-0.5-0.7-0.5-0.7-1.5c0.2-0.2,0.3-0.8,0.2-0.9
			c-0.1-0.4,0-0.3-0.5-0.4c-0.3,0.3-0.6,0.3-0.9,0.5c0,0.3,0.1,0.3,0,0.6c-0.1,0.1-0.1,0.1-0.4,0.1c-0.1-0.3-0.1-0.4-0.4-0.6
			c-0.5-0.3-3.2,0.3-3.8,0.7c-0.1,0.1-0.5,0.7-0.6,0.8c-0.3,0.3-0.8,0.1-1.2,0.4c-0.5,0.3-0.6,0.9-0.9,1.3c-0.2,0.3-0.8,0.4-1.1,0.7
			c-0.3,0.4-0.4,1-0.7,1.4c-0.4,0.6-1.2,1.1-1.5,1.8c0,0.2-0.1,0.5-0.1,0.7c-0.3,0.4-0.9,0.3-1.2,0.7c0.1,0.1,0.1,0.1,0.1,0.4
			c-0.2,0.2-0.3,0.3-0.5,0.5c-0.2,0.2-0.4,0.2-0.8,0.2c-0.2-0.4-0.5-0.4-0.6-0.9c0.4-0.3,0.6-0.5,1.1-0.7c0-2.6,1.5-2.9,2.7-4.1
			c0.3-0.3,0.4-0.8,0.6-1.1c0.3-0.4,1.9-1.8,2.4-2.1c1.1-0.8,2.6-0.6,2.6-2.6c-0.6-0.6-0.4-1.6-0.8-2.5c-0.1-0.3-1.3-2.2-1.5-2.4
			c-0.4-0.4-0.9-0.5-1.3-0.8c-0.5-0.3-0.8-1-1.3-1.3c-0.5-0.1-0.9-0.2-1.4-0.4c-0.3-0.2-0.5-0.6-0.8-0.8c-0.7,0-1.2-0.3-1.8-0.7
			c-0.1,0-0.4,0.3-0.7,0.1v-0.2h-0.6v-0.2c-0.4,0-0.9-0.1-1.3-0.1c-0.2,0-2.8-0.7-3.2-0.5c-0.6,0.4-1.6,0.5-2.4,0.8h-0.6
			c-0.4,0.3-0.9,0.9-1.4,1.1H412c-0.4,0.2-0.4,0.5-1.1,0.6c-0.2,1.4-1.5,1.3-2,2.2c0,0.2-0.1,0.4-0.1,0.6c-0.3,0.2-0.6,0.5-0.8,0.7
			v0.4c-0.3,0.2-0.5,0.5-0.8,0.7v0.4c-0.1,0.2-0.6,0.4-0.7,0.6c-0.4,0.6-0.2,1.3-0.6,1.8c-0.4,0.2-0.7,0.3-1.3,0.4
			c-0.4-0.8-1.4-0.7-1.4-1.8c0.8-0.6,0.4-2,0.1-2.8c-0.3-0.9-1.1-2.8-1.8-3.2c-0.2,0-0.5-0.1-0.7-0.1c-0.5-0.3-2.1-1.6-2.2-2.1
			c-0.9-0.1-1.5-0.6-2.1-0.7c-0.3,0-0.3,0.2-0.7,0.2c-0.1-0.2-0.2-0.3-0.4-0.5v0.4c-0.7,0-1-0.4-1.4-0.5c0,0-0.1,0.1-0.1,0.1
			c-0.3,0.3-0.5,0.4-0.9,0.2v0.4h-0.7c-0.4,0.5-0.9,0.7-1.4,1.1c-0.2,0.2-0.2,0.6-0.4,0.8c-0.1,0.2-0.6,0.2-0.7,0.4
			c0,0.2-0.1,0.5-0.1,0.7c-0.3,0.3-0.9,0.7-1.2,1.2c-1.5,2.7-0.9,7.2,1.3,8.7c0.4,0.3,1.1,0.7,1.5,0.8c0.3,0.1,0.8-0.1,0.9-0.1
			c1.2-0.3,2.9-0.1,3.2,0.8c0.2,0.3,0,0.6-0.1,0.9c-1,0-1.5,0.6-2.6,0.4c-0.8-0.2-1.2-0.4-2.1-0.4c0-0.2,0-0.2-0.1-0.4
			c-0.4,0.2-3-1.6-3.3-2c-0.2-0.2,0-0.4-0.2-0.6c-1.2-1-2.7-1.9-4.1-2.7c-0.9-0.5-1.5-0.1-2.5-0.5c-1-0.4-2.4-0.9-4-0.9
			c0-0.2,0-0.2-0.1-0.4v0.4c-0.6,0-1.2-0.5-1.5-0.4c-1.1,0.5-2.3,0.4-3.7,0.9c-0.2,0.1-0.5-0.1-0.6-0.1c-0.4,0.2-1.1,0.6-1.5,0.7
			c-0.8,0.2-1.5-0.3-2.2,0.1v0.2c-1,0.5-2.8,0.1-2.9,1.4c-0.2,0-0.4-0.1-0.6-0.1v0.4c-0.2,0-0.5,0.1-0.7,0.1
			c-0.2,0.7-0.7,1.6-1.2,2.1l-0.6,0.4c-0.3,0.4-0.3,1-0.6,1.5l-0.6,0.6c0,0,0.2,0.6,0.1,0.8c-0.1,0.6-0.4,1.3-0.6,1.8
			c0,0.6-0.1,1.1-0.1,1.7c-0.7,2.9-1.7,6.8-0.6,9.8c1,2.5,4.1,3,6.7,3.9c5.4,1.8,11.4,0.7,15.5-1.3c0.7-0.3,1.3-0.3,2-0.6
			c0.3-0.1,1.2-0.7,1.4-0.9c0.2-0.3,0-0.6,0.2-0.8c0.4-0.1,0.9-0.2,1.3-0.4c0.5-0.4,1-1,1.5-1.4c0.2-0.2,0.4-0.1,0.7-0.2l2.2-2.5
			c0.2-0.3,0.1-0.6,0.2-0.8c0.3-0.4,0.8-0.6,1.2-0.9c0.1,0,0.2,0.1,0.4,0.1c0.8,1.7-0.8,3-1.8,4c-0.3,0.3-0.5,1.2-0.9,1.5
			c-0.7,0.5-1.7,0.6-1.9,1.7c0.3,0.3,0.2,0.8,0.5,1.2c0.5,0.8,2,1.5,2.9,1.8c2.1,0.7,4.4-0.3,5.5-0.9c0.4-0.1,0.7-0.2,1.1-0.2
			c0.5-0.3,1-1,1.5-1.3c1.2-0.8,2.5-1.5,3.7-2.2c0.9-0.6,2.5-1.1,3.2-2c0.5-0.7,1.7-2.8,2-3.5c0.4-1.3,0-2.4,1.7-2.5
			c0.1,0.1,0.4,0.2,0.5,0.2c0.3,0.3,0.4,0.6,0.4,1.3c-1.1,1.1-1.4,2.8-2.1,4.1c-0.2,0.4-1,0.8-0.8,1.5c0.2,0.7,1.3,2.2,1.7,2.8
			c0.5,0.9,1,2.6,2,2.8c0.4-0.7,0.5-1.2,1.7-1.2c0.2-0.2,0.7-0.2,1.1-0.2c0.2,0.4,0.5,0.6,0.6,1.2c-0.4,0.3-0.9,0.6-1.2,0.9
			c-1.1,0.1-1.4-0.1-2.1-0.6v0.2c1,0.8,2.5,2.8,3.9,2.9c0.1-0.2,0.3-0.5,0.4-0.6c0.1-0.7-0.8-1.2-0.9-2.1c0.2-0.2,0.2-0.4,0.4-0.6
			c0.3-0.2,0.6-0.5,0.9-0.6c0.1,0.1,0.2,0.1,0.5,0.1c0.3,0.3,0.6,0.6,0.8,0.9c0,0.9-0.2,1.1-0.5,1.7h0.2c0.5-0.3,0.8,0.3,1.7,0.4
			C417.9,230.1,417.8,229.5,417.8,229z M439.6,220.5h0.2c0,0.2,0.1,0.4,0.1,0.6c-0.2,0.1-0.2,0.1-0.5,0.2
			C439.3,220.9,439.3,221,439.6,220.5z M435.6,215.7c0.2,0.2,0.2,0.1,0.2,0.5c-0.2,0.2-0.3,0.4-0.5,0.6c0,0-0.1-0.1-0.1-0.1
			c-0.2-0.2-0.2-0.1-0.2-0.5C435.2,216,435.4,215.9,435.6,215.7z M434.1,217.3c0.6,0.5,0.9,0.4,0.8,1.7c-0.2,0.3-0.2,0.5-0.5,0.7
			c-0.4,0.4-1.1,0.1-1.7,0c-0.2-0.6-0.4-1-0.5-1.8C433.3,217.9,433.4,217.5,434.1,217.3z M428.6,224.2c-0.1-0.3-0.1-0.5,0-0.8h0.5
			c0.1,0.2,0.1,0.3,0.1,0.6C428.9,224.1,429,224.1,428.6,224.2z M429.1,211.6c0.2-0.3,0.1-0.6,0-0.8c0.4-0.2,1.2-0.6,1.5-0.9
			c0.5,0.1,0.8,0.4,0.9,0.8c0.1,0.2,0.1,0.3,0.1,0.6c-0.7,0.5-1.5,0.8-2.6,0.6L429.1,211.6L429.1,211.6z M428.6,214.9
			c0.8,0.1,1.4,0.5,2.1,0.8c-0.3,0.9-0.3,1.6-1.5,1.7C428.5,216.6,428,215.8,428.6,214.9z M411.7,222.9c-0.4-0.6-0.7-0.2-0.8-1.1
			c0.1-0.2,0.2-0.5,0.2-0.7c0.7-0.3,1-0.6,1.4-1.1c0.3,0.2,0.6,0.3,0.8,0.6c0.3,0.4,0.2,1.1,0.1,1.7
			C412.6,222.4,412.6,222.9,411.7,222.9z M413.7,226.7c-0.3-0.4-0.5-0.4-0.5-1.2c0.3-0.2,0.3-0.2,0.4-0.6h0.5
			c0.2-0.5,0.4-0.6,1.2-0.6c0.1,0.3,0.1,0.3,0.2,0.5C415.3,225.7,414.7,226.6,413.7,226.7z M422,222.9c0.1-0.1,0,0,0.2-0.1
			c0.1-0.1,0.1-0.1,0.4-0.1v-0.9c0.1-0.1,0.2-0.2,0.2-0.2c1,0.1,2.6-0.1,2.7,1.3c0.1,0.2,0,0.4-0.1,0.7c-0.4,0.2-0.5,0.4-1.1,0.5
			c-0.2-0.1-0.6-0.2-0.8-0.2v0.2c-0.2,0.2-0.1,0.4-0.2,0.5c-0.3,0.2-0.4,0.2-0.8,0.1C422.2,224.1,421.5,223.6,422,222.9z
			 M421.3,226.4c0.5,0,0.9-0.1,1.2-0.4c0.7,0.5,0.3,1.1,0.2,2c-0.3,0.2-0.7,0.5-0.9,0.7c-0.2-0.1-0.1,0-0.2-0.1
			c-0.5-0.3-0.6-0.6-0.7-1.2C421,227.1,421.2,226.8,421.3,226.4z M416.8,219.6c0.3-0.2,0.5-0.3,0.7-0.6h0.6c0.2,0.2,0.2,0.2,0.4,0.5
			c0.2,0.2,0.2,0.3,0.2,0.7c-0.4,0.5-0.4,1-1.3,1.1c-0.4-0.3-0.7-0.2-0.7-0.9C416.8,220.1,416.8,219.9,416.8,219.6z M416.7,225.7
			c0.1-0.3,0.1-0.2,0.2-0.4c1.3,0,3.5,0.4,3.5,2c-0.4,0.3-1.2,0.8-1.7,0.6C418,227.8,416.3,226.7,416.7,225.7z M439.9,205.9v-0.1
			c-0.1-0.1,0,0-0.1-0.2c-0.5,0.1-0.5-0.1-1.1-0.2c-0.2,0.2-0.2,0.1-0.4,0.4h0.1C438.8,205.9,439.2,205.9,439.9,205.9z M444.7,208.7
			v-0.1c-0.3-0.1-0.6-0.2-0.8-0.4c0,0.1,0.1,0.2,0.1,0.4C444.2,208.7,444.5,208.7,444.7,208.7z M446.6,212v-0.1
			c-0.1-0.2-0.1-0.5-0.2-0.7c-0.2-0.3-0.6-0.4-0.8-0.7h-0.4c-0.1,0.4,0,0.6,0.1,0.9C445.7,211.7,446.1,211.9,446.6,212z
			 M451.2,219.2c0.2-0.2,0.2-0.2,0.2-0.6c0.2-0.2,0.2-0.5,0.2-0.9c-0.3-0.2-0.6-0.2-1.1-0.4c0.1,0.2,0.4,0.5,0.5,0.7
			C451.2,218.6,450.7,218.9,451.2,219.2z M447.1,219.7c-0.2,0.1-0.3,0.6-0.6,0.7c-0.5,0.2-0.5-0.3-0.8,0.2c0.4,0.3,0.1,0.7,0,1.2
			c-0.4,0.2-0.6,0.3-1.3,0.4c-0.3-0.2-0.7-0.4-1.2-0.5c-0.2,0.3-0.4,0.3-0.5,0.8c0.1,0.3,0.1,0.8,0.2,1.2c0.6-0.3,1-0.8,1.7-1.2
			c0.9,0.1,2.2,0.5,2.4-0.2c-0.3-0.2-0.3-0.5-0.2-1.1c0.4-0.3,0.4-0.5,1.1-0.6c0.4,0.3,0.8,0.5,1.2,0.7c-0.1-0.7-0.1-0.8,0.2-1.3
			c-0.4-0.2-0.8-0.5-1.2-0.7C447.7,219.7,447.5,219.4,447.1,219.7z M449.9,223.8c0.2-0.6,0.4-0.9,0.5-1.7c0,0-0.1-0.1-0.1-0.1
			c-0.3,0-0.6-0.1-0.8-0.1c0,0.5-0.1,1-0.2,1.7C449.4,223.7,449.5,223.8,449.9,223.8z M446.6,225c-0.2,0.2-0.2,0.3-0.4,0.6
			c0.7,0.1,0.8,0.5,1.4,0.7v-0.1c0.3-0.2,0.5-0.3,0.6-0.7c-0.3-0.1-0.5-0.2-0.7-0.5H446.6z M443.6,228.4c-0.3,0.2-0.7,0.1-1.1,0v0.1
			h0.1c0.2,0.2,1,0.6,1.1,0.5c0.4-0.2,0.8-0.4,0.9-0.9c-0.1,0-0.2-0.1-0.4-0.1C444.2,228.4,444.2,228.4,443.6,228.4z M431.5,229.7
			V229h-0.2c-0.2,0.2-0.4,0.4-0.6,0.6c0,0,0.1,0.1,0.1,0.1v0.1C431,229.8,431.1,229.8,431.5,229.7z M434.1,230.2
			c-0.1,0.5-0.1,0.6-0.7,0.6v0.5c0.3,0.1,0.3,0.2,0.7,0.2c0.1,0,0.3,0,0.7,0c-0.1-0.6-0.4-0.8-0.6-1.3H434.1z M419.1,230.9h0.2v-0.1
			l-0.2-0.1V230.9z M423.1,232.8h0.2v-0.1c-0.1,0-0.2-0.1-0.2-0.1V232.8z M475.8,289.6c0.1,0.1,0.2,0.1,0.5,0.1v-0.2
			c-0.2-0.1-0.3-0.2-0.5-0.2C475.7,289.5,475.5,289.4,475.8,289.6z M474.8,291.2c-0.2-0.2-0.3-0.3-0.4-0.7c0.2-0.2,0.3-0.3,0.4-0.7
			c0,0-0.1-0.1-0.1-0.1h-0.5c0,0.5-0.1,1-0.1,1.5c0.2,0.1,0.4,0.1,0.7,0.1V291.2z M475,293.5c-0.9-0.8-2.2-0.7-3.3-1.3
			c0-0.5,0.2-0.3-0.1-0.6c0,1-0.9,1.7-1.3,2.5h0.7v0.1c0,0,0.1-0.1,0.1-0.1c0.3-0.4,0.2-0.7,0.7-0.9c0.3-0.3,0.9-0.3,1.3,0
			c0.6,0.2,0.6,0.4,0.6,1.2h0.2c0.5-0.3,1.3,0.1,1.5,0c0.3-0.3,0.6-0.9,0.7-1.3H476C475.7,293.3,475.5,293.4,475,293.5z
			 M476.4,291.8c-0.1,0.2-0.1,0.5-0.1,0.8h0.1c0.1-0.4,0.2-0.5,0.4-0.8H476.4z M471.6,295.7c-0.5,0.6-1.5,0-2-0.1
			c0-0.3-0.1-0.3-0.1-0.5c-0.7,0.8-1.7,3.1-2.7,3.3v0.4c-0.5,0.4-1,1.2-1.7,1.4c-0.8,0.3-2,0-2.6-0.1c-0.4,0.1-0.9,0.2-1.3,0.2
			c-1-0.1-2.2-0.6-3.3-0.5c-2.1,0.2-5.3-0.8-7.4-1.4c-1.6-0.5-3.3-0.5-4.8-0.9c-0.6,0-1.2-0.1-1.8-0.1c-0.9-0.3-2.1-0.7-3.1-0.9
			c-1.2-0.3-2,0.2-2.9,0.5c-1.1,0.3-2.2,0.1-2.9,0c-0.1-0.2-0.4-0.2-0.5-0.4c0-0.2-0.1-0.5-0.1-0.7c-0.3-0.3-0.7-0.1-0.9-0.6
			c-0.4-0.6-0.1-1.9-0.1-2.5c-1.1,0.2-2.5,1.2-3.4,1.8c-1.2,0.7-2.6,1-3.9,1.7c-0.1,0.2-0.2,0.3-0.4,0.5c-0.4,0.2-0.8,0.1-1.2,0.4
			c-0.1,0.2-0.2,0.3-0.4,0.5c-0.2,0-0.4-0.1-0.6-0.1c-0.3,0.1-0.7,0.5-1.1,0.6c-1,0.4-4.2,0.9-4.4,1.9c-0.3,0.5,0.1,1.9,0,2.5
			c-0.2,1.2-0.4,4.2-0.1,5.3v2.6c0.1,0.2,0.2,1.5,0.1,2.1c-0.2,1.2,0.1,3.7-0.2,5c-0.8,3.3-0.6,10,0,13.2c0.2,1,0,2.4-0.2,3.2
			c-0.3,1.1,0,3.5,0.1,4.2c0.4,1.5-0.4,3.2-0.2,4.5c0.2,1.8,0,4-0.4,5.3c-0.1,0.2,0.5,1.1,0.4,1.7c-0.2,0.9-0.4,2.4-0.2,3.2
			c0.6,3.5-0.9,8.7,0.2,11.6c0.1,0.3-0.1,0.6-0.1,0.7c0,0.2,0.2,1.8,0.2,1.8c0.5,0.4,4.8,0.1,6.4,0.1c0.1-0.2,0.1-0.2,0.1-0.5
			c-1.1-1.1-1.3-4.5-0.8-5.9c1.4-4.3,4-7,9-7.3c-0.1-0.8-0.3-1-0.4-1.9c0.4-0.3,0.5-0.8,1.1-0.9c-0.1-1.6-0.1-4,0.2-5.5
			c0.2-0.8,0-2.1-0.1-2.7c-0.1-0.9,0.2-2.7,0.2-3.8c0.2-3.8-0.5-7.5,0.1-10.1c0.1-0.5-0.1-1.2-0.1-1.5c-0.1-0.6,0.2-2,0.4-2.5
			c-0.1-0.1-0.2-0.2-0.2-0.2c-0.1-0.4,0-1.1,0-1.3c0-0.4-0.1-1.8,0-2.2c0-0.1,0.2-0.2,0.2-0.4c0.1-1.8-0.6-3.7-0.2-5.2
			c0.3-1.4,0.1-3.7-0.1-5.2c-0.1-0.4,0.3-1,0.1-1.7c-0.3-1.4-0.5-2.9,0.1-3.9h-0.7c-0.3-0.2-1.2-0.1-1.8-0.1v-0.2
			c-0.1-0.2-0.1-0.6-0.1-0.9c0.3-0.2,0.6-0.3,0.8-0.6c0.6,0.1,1.3-0.2,2.1,0c5.4,1.3,11.4,2,17,3.3c0.7,0.2,1.8-0.3,2.7,0
			c2.2,0.8,4.4,0.2,6.7,0.7v-0.2c-0.6-0.3-0.8-0.8-0.8-1.7c0.6-0.4,0.7-0.4,1.7-0.4c0.3,0.4,0.4,0.4,0.5,1.1
			c0.1,0.1,0.1,0.2,0.1,0.5c-0.4,0.2-0.7,0.4-1.1,0.6c0.1,0.1,0,0,0.2,0.1c0.6,0.7,2.5,0.2,3.9,0.4c3.6,0.3,4.4-1,6-3.3
			c0.6-0.9,1.7-1.8,1.9-3.1h-0.2c-0.4,0.4-0.8,0.2-1.4,0.1c-0.1-0.2-0.3-0.6-0.5-0.8c-0.2,0.4-1.2,0.6-1.4,0.5
			c-0.8-0.2-0.8-1.1-0.9-1.9c0.4-0.4,0.4-0.7,1.2-0.7c0.1-0.1,0.2-0.1,0.5-0.1c0.2,0.2,0.4,0.3,0.7,0.5c0,0.2,0.2,1.5,0.4,1.7
			c0.1-0.7,0.5-0.6,1.3-0.6c0.2,0.2,0.6,0.6,0.9,0.7v-0.1c0.4-0.5,1.5-2.5,1.5-3.2c-1,0.1-0.9,0.7-2.1,0.7
			C472.4,296.6,471.8,295.8,471.6,295.7z M441.9,300.2c-0.3-0.2-0.4-0.2-0.6-0.6c-0.1-0.2-0.2-0.6-0.2-0.9c0.2-0.1,0.4-0.2,0.6-0.4
			c0.6,0,0.8,0.1,1.2,0.2c0.1,0.3,0.2,0.6,0.2,1.1C442.6,299.9,442.6,300.1,441.9,300.2z M444.3,303.1c-0.2-0.3-0.3-0.4-0.4-0.9
			c0.1-0.1,0.3-0.3,0.4-0.5h0.8c0.2,0.3,0.4,0.5,0.5,0.9C445.2,302.9,445.1,303.1,444.3,303.1z M452.2,301.8
			c-0.4,0.1-0.5,0.3-1.1,0.4c-0.2-0.2-0.4-0.2-0.8-0.2c-0.3-0.5-0.6-0.7-0.6-1.5c0.2-0.2,0.2-0.2,0.5-0.4c0.1-0.1,0.5-0.2,0.6-0.2
			c0.4,0,0.6,0.1,0.9,0.2c0.3,0.4,0.4,0.4,0.5,1.1C452.4,301.4,452.3,301.5,452.2,301.8z M458.4,303.1c-0.2,0.1-0.6,0.1-0.9,0.1
			c-0.3,0.2-0.8-0.1-1.2-0.2c-0.1-0.2-0.1-0.4-0.1-0.7c0.3-0.2,0.3-0.3,0.5-0.6c0.2,0,0.2,0,0.4-0.1c0.4,0,0.8,0.1,1.2,0.1
			c0.2,0.3,0.4,0.5,0.6,0.8C458.5,302.7,458.5,302.9,458.4,303.1z M463.5,302.2c-0.3,0.2-0.5,0.2-1.1,0.2c-0.5-0.4-0.9-0.3-0.9-1.2
			c0.2-0.2,0.3-0.3,0.5-0.5c0.2-0.1,0.5-0.2,0.7-0.4c0.8,0.3,1.2,0.5,1.2,1.7C463.7,302.1,463.6,302.1,463.5,302.2z M464.7,302
			c-0.2-0.3-0.2-0.3-0.1-0.7c0.2-0.2,0.4-0.4,0.6-0.6c1,0,1.3,0.2,1.9,0.6c-0.1,0.2,0,0.3-0.1,0.5c-0.1,0.5-0.3,0.7-0.8,0.8
			c-0.3-0.2-0.7-0.1-0.9-0.2C464.9,302.2,464.9,302.2,464.7,302z M467.3,305c-0.3,0.2-0.5,0.2-1.1,0.2c-0.8-0.5-1.3-0.1-1.3-1.4
			c0.2-0.1,0.8-0.5,0.9-0.7c0.8,0.1,1.5,0.4,1.5,1.3C467.4,304.6,467.4,304.7,467.3,305z M470.3,303c-0.2,0.3-0.1,0.4-0.5,0.6
			c-0.3,0.2-0.7,0.2-1.3,0.2c-0.3-0.4-0.5-0.3-0.5-1.1c0.1-0.1,0,0,0.1-0.2c0.2-0.1,0.5-0.3,0.7-0.5
			C469.7,302.1,470.2,302.3,470.3,303z M469.5,300.3c0.1,0.1,0.1,0.1,0.1,0.4c-0.1,0.2,0,0.3-0.1,0.5c-0.2,0.4-0.5,0.4-1.2,0.4
			c-0.1,0.1-0.2,0.1-0.5,0.1c-0.2-0.2-0.5-0.5-0.7-0.7c0.1-0.4,0.2-0.7,0.6-0.8c0.1-0.1,0.3-0.2,0.4-0.2
			C468.6,299.9,469.2,300,469.5,300.3z M341.4,304.7c0.7,0.4,2,0.1,2.6,0.2c0,0.1,0.1,0.2,0.1,0.2c0.2,0,4.2,0.2,4.7,0.1
			c0.8-0.2,1.7-0.4,2.6-0.5c0.7,1.6,1,5,0.4,6.6c0.1,1.5,0.2,3.1,0.2,4.6h0.2c0.1-2.4,1-4.3,1.7-6.3c0.8-2.4,1.1-4.5,1.9-6.8
			c0.5-1.4,1.4-2.6,1.5-4.4c-1.1-0.5-2.2-1.2-3.5-1.4c-0.3,0.5-1.2,1.1-1.9,1.2c-0.6,0.1-0.5-0.4-1.1-0.4c-1.1,0.1-4,0.6-5.4,0.2
			c-0.5-0.1-0.9-0.3-1.5-0.4c-0.2,1.3-1.7,3.1-1.2,4.1c-0.5,0.9-1.4,1.5-1.5,2.7L341.4,304.7L341.4,304.7z M347.8,298.5
			c0.3,0.1,0.1,0.4,0.4,0.5c0.2,0.1,0.7-0.3,1.1,0.5c0.2,0.3,0.2,0.6,0.2,1.1c-0.4,0.3-0.4,0.6-1.2,0.6v0.1c0,0-0.1-0.1-0.1-0.1
			c-0.3-0.1-1.3-0.8-1.2-0.8C346.7,299.4,347.4,299.1,347.8,298.5z M307.2,304.2c0.2-0.2,0.5-0.2,0.9-0.2c0.3,0.4,1,0.9,1.4,1.3
			c-0.1,0.3-0.2,0.6-0.4,0.9c-0.3,0.3-0.5,0-0.7,0.4c0.7,0.5,1.2,1.6,1.7,2.4c0.3,0.4,0.8,1.1,1.2,1.5c0.1,0,0.2,0.1,0.4,0.1
			c0.5,0.6,0.9,1.5,1.4,2.1c0.7,0.9,2.1,1.2,2.5,2.4h0.1v-0.5c-0.8-0.3-1.4-1.3-1.4-2.4c0,0,0.1-0.1,0.1-0.1
			c0.5-0.1,0.7-0.2,1.3-0.2c0.6,0.5,1.5,0.7,1.5,1.8c-0.2,0.2-0.2,0.8-0.1,0.9c0.8,0.6,1.4,0.6,1.4,2c-0.1,0.2-0.2,0.5-0.2,0.7
			c-0.3,0.1-0.4,0.1-0.6,0.4c0.5,0.5,0.9,0.9,1.4,1.4v-0.2c-0.3-0.4-0.2-1.2-0.2-1.9c0.4,0,0.8-0.1,0.9-0.5c-0.3-0.4-0.5-1-0.6-1.7
			c0.4-0.1,0.7-0.2,1.1-0.4v-0.1c-0.6-0.2-0.6-0.3-0.7-0.7c-0.7,0-1.2-0.2-1.5-0.4c-0.3-0.6-0.5-1.1-0.7-2c1.7-1.1,1.7,0.2,3.3,0.4
			v-0.2c-0.9-0.6-1.3-1.9-2.2-2.5v0.2c0.2,0.2,0.2,0.1,0.2,0.5c-0.4,0.3-0.5,0.5-1.2,0.6c-0.2-0.2-0.6-0.3-0.9-0.4
			c-0.7-1.1-1.5-2.3-1.5-4c0.3-0.2,0.3-0.3,0.8-0.4c0.3-0.1,0.3-0.1,0.6,0v-0.2c-0.5-0.3-0.7-1-0.7-1.8c0.3-0.2,0.2-0.3,0.6-0.4
			c0.8-0.5,3.7,0.7,4.7,0.6c1.3-0.2,3.4,0.5,5.2,0.1c1.5-0.3,3.2-0.2,4.7,0.1h3.7c0.2,0,0.4,0.2,0.7,0.2c0.1,0.3,0.2,0.6,0.4,0.8
			v-0.2c0.6-0.4,0.7-1.3,0.9-2.1c0.5-1.3,1.4-2.6,1.8-4.1H338c-0.4,0.2-4.5-0.6-5.4-0.8c-0.4-0.1-0.7,0.2-0.9,0.1
			c-1.6-0.2-3.2-0.6-4.6-0.2c-1.2,0.3-2.3-0.2-3.2,0c-1.5,0.3-2.2-0.3-3.2,0.2c-1-0.1-3.2-0.5-3.8,0.4c0.6,0.2,0.9,0.6,1.4,0.9
			c-0.1,0.5-0.1,0.8-0.1,1.4c-0.3,0.2-0.3,0.3-0.7,0.4c-0.9-0.8-2-1.1-1.7-2.8h-1.1c-0.4,0.3-2.1,0.4-3.6,0.4c0.5,0.3,1,0.4,1,1.3
			c-0.5,0.3-0.5,0.6-1.3,0.7c-0.2-0.1-0.3-0.2-0.6-0.2c-0.1-0.4-0.2-0.7-0.2-1.3c0.2-0.1,0.3-0.2,0.5-0.4c0.3,0,0.4,0,0.5-0.1
			c-0.8,0-1.5,0-1.9,0c-0.3,0-0.6-0.1-0.8-0.1c-1.4,0.2-2.5,0.8-3.8,1.1c-0.1,0.2-0.1,0.2-0.2,0.5
			C305,300.9,305.9,303.9,307.2,304.2z M325.5,298.4c0.1-0.1,0.4-0.2,0.5-0.2c0.3,0,0.6,0.1,0.9,0.1c0.2,0.5,0.3,0.4,0.4,1.2
			c0.1,0.1,0.2,0,0.1,0.2h-0.1c-0.4,1.2-2.1,0.6-2.4-0.2C325.2,299.1,325,298.6,325.5,298.4z M319.6,301.5c0.5-0.3,0.7-0.5,1.7-0.5
			c0.3,0.4,0.6,0.5,0.6,1.3c-0.5,0.4-0.5,0.6-1.5,0.6c-0.2-0.1-0.4-0.1-0.7-0.1C319.6,302.2,319.5,302,319.6,301.5z M315.6,308.8
			c0.1,0.7,0.3,1.3,0.1,2.1c-0.3,0.2-0.3,0.3-0.8,0.4c-0.2-0.2-0.7-0.3-1.1-0.4c-0.3-0.4-1.1-1.3-0.8-1.9c0.1-0.4,0-0.3,0.2-0.5
			C314.1,307.8,314.8,308.6,315.6,308.8z M311.6,301.8c1.1,0,2.2,0.5,2.2,1.5c0.2,0.3,0,0.6,0,1.1c-0.1,0-0.2,0.1-0.4,0.1
			c-0.2,0.2-0.6,0.2-0.8,0C311.6,304.2,310.9,302.9,311.6,301.8z M311.1,298.4C311.1,298.4,311.1,298.4,311.1,298.4
			C311.1,298.4,311.1,298.4,311.1,298.4C311.2,298.4,311.1,298.4,311.1,298.4z M416.5,300.4c-0.3-0.2-0.3-0.3-0.8-0.4
			c-0.7,0.4-1.6,0.2-2.5,0.5c-0.9,0.2-2.1,0.6-3.1,0.8h-1.3c0,0.1-0.1,0.2-0.1,0.4c-0.4,0-0.9,0.1-1.3,0.1c-1.1,0.3-2.7,0.3-3.9,0.6
			H402c-0.7,0.2-1.8,0.4-2.6,0.6c-1.5,0-2.9,0.1-4.4,0.1c-1.1,0.2-3,0.4-3.8,0.2c-0.9-0.2-4,0.3-4.8,0.5c-0.3,0.1-2.7,0-3.1-0.1
			c-0.2-0.1-0.6-0.4-0.7-0.5c-0.6-0.2-2.4,0.3-3.3,0.1c-0.3-0.1-1.4-0.2-1.8-0.2c-0.2,0-0.4,0.3-0.8,0.2c-1.7-0.4-3.2-0.4-4.7-1.1
			c-0.2,0-0.5,0.1-0.7,0.1c-0.2,0-0.7-0.3-0.8-0.4c-0.1,0-0.3,0.2-0.6,0.1c-0.5-0.1-3.4-0.7-3.4-0.7c-1,1.2-1.2,3.5-1.7,5.2
			c-0.4,1.5-0.9,3.9-1.5,5.7c-0.4,1.2-0.2,2.7-0.7,3.7c-0.2,0.1-0.3,0.2-0.5,0.2c-0.1,0.2,0.4,0.6,0.4,0.9c-0.1,0.1-0.2,0.2-0.4,0.4
			c-0.2,0.6-0.6,2.3-0.5,2.6c-0.3,0.6-0.9,1.7-1.1,2.4c-0.2,0.5,0.4,0.9,0.2,0.9c-0.2,0.1-0.5,0.3-0.7,0.4c0.3,1.4-1.3,3.4-1.4,4.8
			c-0.4,0.1-0.2-0.1-0.4,0.2c0.4,0.3,1.6,2.1,1.8,2.6c0.2,0.5-0.1,1.3-0.1,1.7c0.1,0.2,0.3,0.9,0.2,1.2c-0.1,0.6-0.7,1.3-0.9,1.9
			c-0.2,0.4-0.4,1.6-1.2,1.8v0.6c-0.4,0.1-0.7,0.2-0.8,0.5c0.2,0,0.5,0.1,0.7,0.1v0.4c-0.3,0.1-0.4,0.1-0.6,0.4
			c-0.1,0.1-0.1,0.2-0.1,0.5h-0.4v0.7c-0.7,0.7-1.4,1.4-2.1,2.1c0.2,0.5,0.7,0.9,0.8,1.3c0,0.1-0.1,2-0.1,2.5c-1,0.7-1.4,2-2.4,2.7
			c-0.7,0.6-2.4,0.9-2.9,1.4c0.5,0.3,0.5,0.8,0.2,1.3c0.8,0,1.5,0.3,2.1,0.5c0.5,0,1-0.1,1.5-0.1c0,0.1,0.1,0.2,0.1,0.4h0.9
			c1.4,0.3,3.5,0.5,4.8,0.8h2.1c3.3,0.8,6.3,0.8,9.6,1.8c0.6,0.1,1.3,0.2,1.9,0.2c2.2,0.7,5.6,1.7,7.1,3.1c0.4,0.3,1.7,2.6,1.4,3.4
			c-0.1,0.2-0.4,0.4-0.5,0.7c0.5,0.9,0.5,2.5,0.5,3.5h0.1c0.7-0.4,2,0.1,2.9,0c1.3-0.1,2.3-0.1,3.7-0.4c0.5-0.1,0.4,0.3,0.8,0.2
			c0.9-0.1,1.9-0.5,3.2-0.2c0.3,0.1,1.2-0.2,1.8-0.1c2.1,0.2,4.5,0.2,6.1,0.4c1.4,0.1,3.2-0.1,4.2,0c1.4,0.2,4.5,0.6,5.7,0.2
			c0.4-0.1,1.3,0.1,1.5,0.1c0.5,0.1,2.8-0.1,3.2-0.1v-2.4c-0.6-0.7,0-1,0-1.9c-0.1-0.7-0.2-1.3-0.2-2c0.1-0.7,0.4-1.5,0.2-2.4
			c-0.2-1.6,0.1-4.6,0.2-5.7c0.1-0.8-0.2-1.6-0.1-2.4c0.2-2.3,0-5.1,0.6-7.2c-0.7-0.6,0.1-1.7-0.1-2.9c-0.3-1.7-0.1-5.7,0.1-6.8
			v-2.7c0.1-0.5-0.1-1.9-0.2-2.6c0-1.4-0.1-2.8-0.1-4.2v-1.9c0.2-1.1-0.1-2.1,0.2-3.4C417.3,312.2,415.8,306.4,416.5,300.4z
			 M322.5,313.7h-0.2v0.4c0.4-0.1,0.2,0.1,0.4-0.2C322.5,313.8,322.5,313.8,322.5,313.7z M349.4,315.9c0.1,0.1,0.1,0.1,0.4,0.1
			C349.6,315.9,349.6,315.9,349.4,315.9z M322.8,319.6c0.1,0,0.2-0.1,0.4-0.1c-0.1-0.2-0.1-0.2-0.1-0.5c-0.2-0.2-0.3-0.2-0.6-0.4
			c0.1,0.3,0,0.7,0.1,1.1C322.8,319.7,322.7,319.7,322.8,319.6z M388.6,384c-0.7-0.4-2.6-1.3-3.7-0.9c-0.1,0.1-0.2,0.2-0.4,0.4
			c-0.2,0.1-0.4-0.2-0.5-0.1c-0.2,0.2-0.3,0.6-0.6,0.8c-0.6,0.4-1.9,1-2.7,1.1c-0.7-0.5-1-0.5-0.9-1.8c0.5-0.8,0-2.5,0.2-3.3
			c0.4-1.1,0.3-2.1,0-3.2c0-0.1,0.3-2.5,0.4-2.8c0.1-0.7-0.3-1.3-0.5-1.8c-0.1-0.4,0.2-0.7,0.2-0.9c-0.1-0.6-0.2-1.1-0.2-1.7
			c0.1-0.2,0.4-0.8,0.2-1.3c-0.3-0.7-0.7-0.4-0.7-1.8c0.8-0.4,0.6-1.6,0.2-2.4c-2.3,0.6-5.7,1.4-8,1.9c-0.2,0-0.4-0.1-0.6-0.1
			c-1.4,0.3-3.6,0.3-4.7,0.6c-1,0.3-2.2-0.2-2.8,0c-4,1.2-10.1,1.6-14.4,0.9c-1-0.2-2.2,0.3-3.2,0.2c-1.5-0.1-3.2-0.4-4.6-0.7
			c-0.5-0.1-1.3,0.1-1.7-0.1c0,0.1-0.1,0.2-0.1,0.4c-0.3,0.2-1.5-0.2-1.8-0.2c-0.6,0-1.3,0.1-1.9,0.1c-0.8-0.2-1.9-0.5-2.8-0.7h-3.3
			c-1.3-0.3-2.7-0.6-4-0.9c-1.6-0.4-2.8,0.2-4.1-0.1c-1.4-0.3-2.6-0.3-3.8-0.2c-1.7,0-4.8-0.8-6.4-1.2c-1.7-0.4-2.7,0.1-4.5-0.4
			c-3.1-0.7-6-0.9-8.6-2c-0.4,1.1-0.1,3.3,0,4.7c0,0.3,0.1,0.6,0.1,0.8c-0.4,2.1-0.3,3.7-0.4,5.8c0,0.7,0.1,1.3,0.1,2
			c-0.4,2.1-0.3,4.1-0.2,5.7c-0.1,0.1-0.2,0.2-0.4,0.2c-0.4,0.3-0.9,0.2-1.4,0.1v0.1c1.8,0.7,0.3,4.1,0.6,5.8
			c0.3,1.3,0.2,2.6-0.7,2.9c-0.4,0.2-0.5-0.2-0.9-0.1c-0.3,0-0.7,0.4-1.1,0.5h-1.5c-2.2,0.1-3.3-0.9-4-2.7c-0.2-0.6-0.6-2.4-0.4-3.1
			c0.2-0.7,2.5-3.1,3.2-3.5c0.5-0.1,0.9-0.2,1.4-0.4c0-0.1,0.1-0.2,0.1-0.4c0.6-0.3,2.3,0.4,2.8,0.5v-0.1c-4-1.9-9.8,0.7-8.4,6
			c0,0.2-0.1,0.4-0.1,0.6c0.1,0.7,0.2,1.3,0.4,2c1,2,3.6,2.1,5.9,2.8c0.4,0.1,1.3-0.1,1.8-0.2c0.5-0.1,0.8,0.2,1.2,0.2
			c0.1,0.2,0.4,0.5,0.5,0.7c0,0.4-0.1,0.9-0.1,1.3c0.3,1,0.1,1.6,0.1,2.8c0,0.3,0.1,0.6,0.1,0.8c-0.1,0.5-0.4,1.6-0.4,2.1
			c0.2,2,0,5.7,0.5,7.8c0.1,0.4-0.2,0.9-0.2,1.2c-0.1,1.1,0,2.3,0.2,3.5c2.6,1.2,4.4,3.2,7.2,4.2c1.6,0.6,3.3,0.6,5,1.2
			c1.7,0.5,3.5,1.3,5.2,1.8c0.9,0.1,1.7,0.2,2.6,0.4c0.5,0.2,1.4,0.4,1.9,0.6c1.5,0.4,2.5-0.1,4.1,0.2c1.5,0.3,3.4,0.5,4.8,0.9
			c0.4,0,0.7-0.1,1.1-0.1c0.7,0.1,1.9,0.2,2.6,0.4h3.1c1,0.2,2.2,0.1,3.3,0.4c0.4,0,0.7-0.1,1.1-0.1c0.1,0,0,0.3,0.4,0.2
			c0.4,0,1.4-0.3,1.9-0.2c2.1,0.3,5.6-0.1,8.3-0.7c0.4-0.1,1.1,0.2,1.8,0c1-0.2,1.9-0.3,2.6-0.5h1.1c1.6-0.5,3.6-0.5,5.4-1.1
			c1.4-0.4,3.3-0.9,4.6-1.3c0.5-0.1,0.5,0.2,0.7,0.2c3.2-1.1,6.9-1.6,10.3-2.6c0.5,0,1-0.1,1.5-0.1c0.9-0.2,2.1-0.7,2.8-0.9
			c0.5-0.2,0.9,0,1.3-0.2c0.6-1,0.4-5.2,0-6.4c-0.1-0.3,0-1.3,0.1-1.5c-0.4-0.9-0.5-2.5-0.2-3.8c0.1-0.3-0.1-0.4-0.1-0.6
			c-0.1-0.9,0.1-1.8,0.2-2.4c0.3-1-0.1-2.2,0.4-2.9c0.2-0.2,0.4-0.3,0.6-0.5c2.2,0,3.8,1.1,5.5-0.1c1.1-0.8,1.2-2.4,1.7-3.9
			c1-3,1.2-5.2-0.5-7.7C389.2,384.7,389.1,384.2,388.6,384z"/>
	</g>
</g>
<g>
	<g>
		<path class="st1" d="M525.6,364.5c-0.4-0.9-1.6-0.7-2.2-1.3c-0.5,0-0.5,0.1-0.8,0.2c0,0.2-0.1,0.4-0.1,0.6c-4.7,0-8.8-1-12.9-0.1
			c-1,0.2-2.4,0.1-3.2,0c-0.4,0-0.8,0.1-1.2,0.1c-0.2,0-0.5-0.2-0.8-0.1c-1.4,0.3-2.6,0.2-4,0.2c-0.3,0-0.9-0.1-1.1-0.1
			c-0.5,0.1-1.6,0.3-2.1,0.2c-0.1,0-0.4-0.2-0.8-0.1c-1.1,0.2-2.7,0.4-4.1,0.1c-1.2-0.2-3,0.4-4.4,0.1c-0.6-0.1-2,0.1-2.7,0.1
			c-0.7-0.1-1.5-0.2-2.2-0.2c-1.5,0.2-3.6,0.2-5-0.1h-2.2c-0.9-0.2-2.5-0.1-3.7-0.1c-0.6,0-2.1,0.1-2.7,0.2c-0.9,0.2-1.9-0.3-3.1,0
			c-0.3,0.1-1.1,0.2-1.5,0.1c-1.2-0.3-2.5-0.6-3.8-0.8c-0.8-0.2-1.9,0.1-2.7,0c-1.7-0.2-5.2,0.8-6.6-0.1c-0.5-0.7,0.1-1.6,0-2.2
			c-0.1-0.5-0.5-1.2-0.6-1.7v-0.8c-0.1-0.3-0.6-0.6-0.7-0.8c-0.2-0.4-0.1-0.8-0.4-1.3c-0.1-0.2-0.4-0.1-0.5-0.2
			c-0.8-0.8-1.4-2.1-2.4-2.7c-0.3-0.2-0.5-0.1-0.7-0.2c-0.2-0.2-0.3-0.5-0.6-0.7c-1-0.7-2.6-0.8-3.7-1.4c0-1,0.5-2.1,0.1-2.7
			c-0.3-0.8-1.5-1-2.2-1.3c0-0.7,0.1-1.1,0-1.8h0.4c0.5-1.6,0.4-4.4,0.4-6.4c0-0.5-0.2-1.3-0.1-1.5c0.3-1.3,0.1-4.2,0.2-6
			c0-0.2,0.3-1,0.1-1.4c-0.2-0.5-0.5-1.3-0.4-2.2c0.1-1.8,0.2-3.7,0.2-5.5c0-0.6-0.1-1.1-0.1-1.7c0.2-1.2,0-3.6-0.1-4.7
			c0-0.4,0.1-1.3,0.1-1.9c0-1.4,0-3.7,0-5.4c0,0,0.1-0.1,0.1-0.1c2.5,0,4.8,0.2,6.7,0.7h1.9c0.2,0,0.3,0.2,0.6,0.2
			c0.2,0,0.4-0.1,0.6-0.1c1,0.3,2.1,0.8,3.2,1.1c2.7,0.2,5.4,0.4,8,0.6c1.4,0.3,7.1,0.7,8.4,0.1c0.8-0.3,0.6-0.9,1.1-1.4
			c0.3-0.4,1-0.5,1.3-0.8c0.3-0.3,0.3-0.9,0.6-1.2c0.4-0.4,1.4-0.8,1.8-1.3c3-3.7,4.4-8.5,6.5-13.1c1.5-3.3,3.3-6.6,4.7-9.9
			c1.4,0,4.4,0.3,5.8-0.2c0.9-0.3,1.5-1.2,2.1-1.8c2.7-2.7,3.1-4.8,4.1-9v-1.1c0.3-1.2,0.9-2.3,1.3-3.4c0.9-2.9,1.1-5.2,2.5-7.4
			c0.9-1.5,1.9-3.2,2.9-4.6c0.3-0.3,0.7-0.3,1.1-0.6l1.9-1.9c0.4-0.5,1-2.5,0.7-3.1c0-1.5-0.8-1.5-1.5-2.2c-0.4-0.5-0.5-1.2-1.1-1.5
			c-1.9-1.3-4.2,0.1-5.4,1.2h-0.4c0.5-1.3,1.9-6.4,1.7-7.7c-0.2-0.8,0.1-1.7-0.4-2.2c-0.1-1.1-0.9-1.1-1.5-1.7
			c-1.5,0-1.6,0.7-2.6,1.1c-0.1,0.1,0,0-0.2,0.1c-0.5-1.6,0.5-3.3-0.5-4.5c-0.1-0.4-0.3-0.3-0.5-0.6c-0.9,0.1-1.1,0.3-2,0.4
			c-0.8,1.5-2,2.8-2.9,4.1c-0.4,0.6-0.6,1.5-1.1,2.1v0.1c-0.7-0.3-0.8-1-1.2-1.7c-0.2-0.4-1.4-1.3-1.8-1.5c-0.6-0.3-3.1-0.4-3.9-0.1
			c-2.8,0.9-6.6,4.2-7.6,6.6c-0.4,1.1,0.1,2.3-0.1,2.9v1.5c-0.1,0.3-0.7,0.4-0.9,0.6c-0.3,0.2-1.2,1.4-1.4,1.7
			c-0.4,0.7-0.5,1.4-0.6,2.1c0,0.6-0.9,2.2-1.1,2.9c-0.2,0.8,0,1.3-0.2,2.1c-0.4,1.4-1.2,3-1.7,4.7c-0.6,2.4,0.6,5.6,1.9,6.4v0.4
			c1.3,0.1,1.3,1.3,2.7,1.5c-0.2,3-2.6,4.4-2.4,7.4c1,1,1.7,1.8,3.1,2.5c-0.2,0.5-0.6,0.7-0.8,1.1c-0.3,0.5,0,1.1-0.1,1.5
			c-0.2,0.2-0.5,0.5-0.7,0.7c-0.1,0.6-0.2,1.1-0.4,1.7c-0.5,1.2-1.4,2.6-1.9,3.8c-0.5,1.3-0.8,2.5-1.5,3.7c-0.5,0.8-1.3,1.5-1.8,2.2
			c-0.3,0.5-0.4,1.1-0.7,1.5c-0.2,0.1-0.3,0.2-0.5,0.2c-0.3,0.4-0.4,1-0.8,1.4c-0.5,0.5-1.3,0.8-1.8,1.4c-4.9,0-9.9-0.8-14.6-2.1
			c-2.2-0.6-4.3-0.5-6.3-1.1c-0.5-0.2-0.9,0-1.3-0.2c-0.6,0-0.7-0.1-1.1-0.2c-0.1-0.7-0.2-1.6,0.4-1.9c-0.1-0.3-0.2-0.2-0.4-0.4
			c-0.5-0.7-0.6-4.3,0-5.2c0-1.6-0.4-1.1-0.8-2c-0.4-0.7,0-3.2-0.2-4.1c-0.2-0.7-0.2-1.4-0.2-2.1c0-0.2,0.1-0.5,0.1-0.7
			c-0.5-2.3-0.3-4.5-0.8-6.7V270c-0.7-2.9-1.2-6.6-2-9.6c-0.1-0.6-0.2-1.2-0.2-1.8c-1.5-4-3.7-8-6-11.2c-0.6-0.8-1.9-2.5-2.7-3.1
			c-1.9-1.2-3.3-1.6-5.5-2.5c-1.3-0.5-2.7-1-4.1-1.1l-0.1-0.1c0.2-1.4,0.8-3.5,0.8-5.3c2.6,0,4.5-0.5,6.4-1.5
			c0.2-0.3,0.5-0.6,0.7-0.8c0.4-0.3,1-0.6,1.5-0.7c0.6-0.2,1.2,0.8,1.7,1.1c1.1,0.7,4,2,5.7,2c3.7-0.1,8.6-1.1,11.4-2.6
			c0.5-0.2,0.9-0.9,1.3-1.2c0.7-0.5,1.7-0.8,2.2-1.4c0.1-0.1,0-0.4,0.1-0.5h0.4c0.4-0.3,0.5-0.9,0.8-1.2h0.5
			c0.4-0.3,0.7-1.1,1.1-1.5c0.1,0,0.2-0.1,0.4-0.1v-0.4c0.2-0.1,0.3-0.2,0.5-0.2c0-0.2,0.1-0.5,0.1-0.7c0.2,0,0.3-0.1,0.5-0.1
			c0.8-0.9,2-5.4,1.7-7.1c-0.1-0.5-0.6-2.5-0.6-2.8c0.2-1.4-2.2-4.3-2.9-5.3c-2.8-3.8-12.2-7.5-18.4-6.1V204c-0.3-0.4-0.1-1.4-0.2-2
			c-0.3-0.9-1.7-3-2.2-3.8c-2.2-2.9-8.8-5.4-13-5.9c-2.2-0.3-5,1.5-6.6,2.1h-0.5c-1,0.5-1.5,1.7-2.4,2.4c-0.3,0.3-0.7,0.4-0.9,0.7
			c-0.1,0.2-0.1,0.4-0.2,0.6c-0.1,0.1-0.5,0.1-0.6,0.2c-0.6,0.7-0.8,1.4-1.5,2c0,0-0.1,0.1-0.1,0.1c-0.3-0.7-0.3-1.5-0.6-2.2
			c-1-2.6-4-4.7-6.4-5.9c-0.8-0.4-1.5-0.2-2.5-0.5c-3.6-0.9-6.4,1.2-7.7,3.4h-0.4c-0.1,0.7-0.6,0.8-0.9,1.3
			c-0.4,0.6-0.7,1.6-0.9,2.2c-0.4,1.2,0,3.2-0.4,3.9c-0.5,0.2-1.7-0.7-2.2-0.9c-1.9-0.9-4.5-1.1-6.7-1.7c-0.9-0.2-1.5,0.2-2.5,0
			c-1.5-0.3-3.9,0.5-5.5,1.1c-0.9,0.3-1.3,0.1-2.2,0.4c-2.5,0.8-4.1,1.9-5.8,3.5c-0.6,0.6-1.7,1.2-2,2c-0.6,1.3-0.5,2.5-0.9,4
			c-1.2,3.9-2.8,10.7-0.6,14.4c0.1,0.2,0.5,0.3,0.7,0.5c0.2,0.3,0.5,0.6,0.7,0.8c1.2,0.8,2.9,1.5,4.4,2c0.7,0.2,1.3,0.1,2,0.4
			c1.9,0.7,4.3,1.1,5.8,0.8c0.5-0.1,1.1,0.1,1.4,0.1c0.7,0,3.1-0.4,3.3-0.6c0.2,0.2,2,0,2.2-0.1c0.7-0.2,1.5-0.8,2.1-1.1
			c1.6-0.6,3.5-0.8,4.6-1.9h0.6c0.2,1.1-0.1,1.5-0.4,2.6c0,0.7-0.1,1.5-0.1,2.2c-0.3,1.2-0.4,2.1-0.7,3.3c-0.4,1.6-0.1,3.4-0.9,4.5
			c-0.8,1-4.1,1.5-5.7,2.2c-2.6,1.2-4.6,2.9-6.7,4.5c-0.4,0.3-0.7,0.9-1.1,1.3c-0.5,0.4-1,0.9-1.5,1.3c-0.6,0.9-1.1,1.7-1.8,2.6
			c-0.6,0.8-1.7,1.7-2.4,2.6c-0.6,1-0.8,1.9-1.4,2.9c-0.2,0.1-0.3,0.2-0.5,0.4c-0.4,0.7-1,1.8-1.3,2.5c-0.2,0.5-0.1,0.8-0.4,1.2
			c-0.3,0.3-0.6,0.6-0.8,0.8c-0.3,0.5-0.9,1.5-1.1,2v0.6c-0.2,0.2-0.3,0.3-0.5,0.5c-0.2,0.6-0.5,1.2-0.7,1.8
			c-0.1,0.1-0.2,0.2-0.4,0.2v0.6c-0.1,0.3-0.5,0.7-0.6,0.9c-0.4,0.8-0.3,1.5-0.6,2.4c-0.2,0.6-0.7,1.2-0.9,1.8
			c-0.3,0.8-0.2,1.6-0.6,2.5c-0.3,0.7-0.9,1.6-1.1,2.4c0,0.2,0.1,0.5,0.1,0.7c-0.2,0.5-0.7,1.2-0.8,1.8c-0.4,1.2-0.6,2.9-0.9,4.2
			c-0.2,0.7,0.2,1,0,1.8c-0.2,0.5-0.3,1.7-0.2,2.2c0.1,1.1-0.5,2-0.1,2.9c-0.2,0.8-0.4,4.5,0,5.1v0.2c-2,0.4-3.9,0.3-6.4,0.2
			l-0.1-0.1c0-4.1,0.1-7.9-1.1-11.4v-0.8c-1.2-3-2.9-5.9-4.7-8.4c-0.9-1.1-2.5-1.7-3.8-2.5c-2-1.3-5.4-4.3-6.1-6.8
			c-0.3-1.1,0-2.4,0.2-3.2c-0.1-0.4-0.2-0.7-0.2-1.1c0.2-1.1,0.6-2.3,1.1-3.2c0.4-0.8,1.2-1.1,1.3-2.2h0.6c0.2-0.9,2.2-2.3,2.8-3.1
			c0.5-0.7,0.8-1.5,1.3-2.1c0.2-0.2,1.1-0.7,1.4-0.9c0.3-0.3,0.4-0.8,0.6-1.2c0.1-0.2,0.6-0.3,0.7-0.5c0.3-0.4,0.4-0.8,0.7-1.2
			c0.3-0.4,1.8-1.7,1.5-2.1h0.5c0.2-0.1,2.3-2.7,2.4-2.9h0.4c0.1-0.7,0.4-1.3,1.1-1.5V240c0.7-0.1,1.4-1.3,1.4-2.1h0.4
			c0-2.1-0.1-7.1-1.2-9.1c-1-1.8-2.9-3.2-4.5-4.5c-0.6-0.5-0.9-1.4-1.7-1.8v-0.4c-0.8-0.2-0.9-0.8-1.4-1.2c-1-0.8-2.1-1.2-2.8-2.4
			c-1-1.8,0.2-5,1.2-6c1.2,0.1,3.3,1.6,4.4,1.3c1.2-0.4,1.9-1.2,2.8-1.8c0.1-0.5,0.3-1,0.5-1.3c0.8-2.2-1.8-5.1-2.9-5.5
			c-0.9-0.4-1.8,0-2.8-0.4c-0.7-0.2-1.8-0.3-2.7,0c-0.7,0.2-1.2,0.9-1.9,1.3c-1,0.6-2.5,2.8-3.2,3.8c-1.4,1.9-2.5,3.4-3.1,5.9
			c-0.1,0.5,0.2,0.8,0.2,1.1c0,0.4-0.3,0.5-0.1,1.2c0.5,1.6,1.8,2.7,2.7,3.9c0.5,0.6,1.3,2.7,1.5,3.5v0.6l0.9,0.9v0.5
			c0.9,1.2,2.5,1.6,3.7,2.5c0.8,0.6,1.3,1.4,2,2c0.1,0.5,0.2,0.9,0.2,1.4c0.4,0,0.6,0.1,0.9,0.1c-0.3,0.2-0.5,0-0.9,0
			c0,2.7-1.1,4.8-2.2,6.4c-0.2,0.2-1,0.8-1.2,1.1c-1.7,2.5-3.6,4.6-6,6.4c-1.4,1-2.4,2.6-3.8,3.7c-1.4,1-4.5,2.8-5.2,4.2
			c-0.9,1.7-0.4,4.5-0.2,6.5c0.2,2.8,0,6.1,0.8,9c0,0.6,0.1,1.1,0.1,1.7c0.4,1.5,1,3.3,1.7,4.7c0.4,0.8,1,1.7,1.3,2.6h0.4
			c0.2,1.5,1.4,2.3,2.2,3.2c0.6,0.6,1.1,1.5,1.8,2c0.8,0.5,1.5,0.9,2.2,1.4c0.1,0.1,0.1,0.4,0.2,0.5c0.4,0.3,1,0.3,1.4,0.6
			c1.6,1.1,3,2.2,4.1,3.8c1.1,1.4,2.7,2.8,2.5,5.2c-1,0-2.4-0.3-3.3-0.5c-1.8-0.4-3.9-0.1-5.9-0.6c-1.2-0.3-2.7,0.5-4.1,0.4
			c-2.6-0.3-6.2-0.3-8.4,0.2h-1.7c-1.3,0.3-2.9,0.3-3.9,0.5c-1.6,0.3-2.7,0.1-4.1,0.1c-0.3,0-0.6-0.1-0.9-0.1
			c-0.7,0.2-1.4,0.7-2,0.9c-1.1,0.4-2,0.4-2.4,1.4c-0.3,0.6,0.4,1.6,0.6,2.1v1.1c0.2,0.2,0.4,0.4,0.6,0.6c0.2,0.4,0.3,0.9,0.5,1.3
			c0.2,0.1,0.5,0.2,0.7,0.2c0.5,0.4,1.3,1.7,1.7,2.2c1.7,2.3,3.1,4.8,5,7.1c0.3,0.4,1,0.7,1.3,1.1c0.2,0.3,0.3,0.6,0.6,0.8
			c0.2,0,0.3,0.1,0.5,0.1c0,0.2,0.1,0.3,0.1,0.5c0.4,0.5,1.2,1.1,1.5,1.5c0.2,0.3,0.2,0.7,0.5,1.1c0.6,0.9,1.8,1.6,2.5,2.5
			c0.3,0.4,0.4,0.9,0.7,1.3c0.7,1,2,2,2.6,3.1v0.5c0.1,0.1,0.6,0.5,0.7,0.6v0.6c0.1,0.2,0.4,0.6,0.6,0.8c-0.2,0.9-2.3,2.5-3.2,2.8
			c-0.3,2.1,1.2,1.4,2.7,1.9c0.4,0.1,0.5,0.4,0.9,0.5v0.4c0.9,0.1,1.3,0.6,1.9,0.9c1.2-0.4,3.6,2,4.2,2.7c0.2,0.2,0.8,0.4,0.9,0.6
			c0.2,0.3,0,0.7,0.1,1.1c0.1,0.4,0.5,1.1,0.8,1.5c0.6,1,2.1,1.9,2.2,3.2c1.2,0.3,2.6,3.3,3.9,3.8v0.4c0.9,0.2,1.3,1.2,2,1.7
			c0.8,0.6,2,0.9,2.9,1.3c0,0.7-0.2,1.5-0.6,1.8c-0.3,0.2-1.5-0.3-1.9-0.2c-0.2,0-0.8-0.2-1.1-0.2c-0.8-0.2-4.1-0.2-5,0
			c-0.8,0-1.7-0.1-2.5-0.1c-0.6,0.1-2.6-0.1-3.2,0c-0.8,0.2-3.4,0.2-4.7,0.1c-0.3,0-1-0.2-1.5-0.1c-0.7,0.2-1.8,0-2.4,0.1
			c-3.5,0.8-8.5,0.5-11.9,1.3c-1.3,0.3-2.3-0.1-3.5,0.2c-2.1,0.6-5.7,1.5-6.7,3.1c-1,1.5-0.8,3.5-0.6,4.8c-0.1,0.6-0.2,1.2-0.2,1.8
			c-0.8,0.1-1.4,0.5-2.1,0.7c-0.6-0.1-1.2-0.2-1.8-0.2c-1.3,0.2-3.1,0.2-4.4-0.1c-0.7-0.2-1.6,0.2-2.2,0.1c-2.5-0.3-6.3-0.2-8.6,0
			c-0.5,0.1-1.8-0.2-2.4-0.2c-0.5,0-1.7,0.2-2.1,0.2c-0.5,0-1.4-0.1-2-0.1c-1.9,0-4.1,0-6,0.5h-2.6c-2,0.5-4.3,0-6.3,0.5
			c-1.2,0.3-3-0.3-3.8,0.2c-0.4,0.3-0.4,0.8-0.7,1.2v0.4c0.4,0.1,0.8,0.4,1.1,0.5c0.5,0.1,1.1-0.4,1.4-0.5c1-0.3,2.1-0.1,2.9-0.2
			c0.3-0.1,0.6,0.1,0.8,0.1c0.4,0,1.2-0.2,1.5-0.2c0.6,0,1.3,0.1,1.9,0.1c1.9-0.3,4.3-0.5,6.6-0.7c1.2-0.1,4.4,0,5.7,0.1
			c0.8,0,1.7-0.1,2.5-0.1c1.2,0.3,3.6,0.3,5.1,0c1-0.2,2.4,0.2,3.2,0.1c1.1-0.2,3.7,0.2,4.8,0.4c1,0.1,2.9-0.2,3.8-0.2
			c0.7,0,2.4,0.5,3.3,0h0.4c0.3,1.7,0.3,3.7-0.1,5.4c-0.3,1.3,0.1,2.8,0,3.9c-0.1,1.2-0.2,2.4-0.4,3.5c0,0-0.1,0.1-0.1,0.1
			c-0.9-0.1-1.9-0.5-2.9-0.5c-1.1,0.2-2.1,0.5-3.2,0.7c-0.5,0.2-0.9,0.8-1.3,1.1c-0.6,0.4-1.6,0.8-2,1.3c-0.7,0.8-0.6,1.8-0.9,2.9
			c-0.1,0.3-0.5,0.9-0.6,1.2c-0.2,0.5,0.4,1.7,0.5,2.2c0,0.3-0.1,0.6-0.1,0.9c0.1,0.8,0.9,2.6,1.3,3.2c1.1,1.3,4.1,2.1,6,2.6
			c0.7,0.2,1.4-0.1,1.9,0.2c0.6,0.8,0,2,0.4,3.2c0.2,0.7,0,2.9-0.2,4c-0.2,0.9,0.4,1.3,0.2,2.2c-0.2,1-0.2,2.9,0,3.9
			c0.2,1.2,0.1,4.8-0.2,5.1c0.1,0.9,0.5,0.9,0.7,1.5c2.4,0.1,2.8,2.2,4.8,2.4v0.4c1,0.5,2.1,1.2,3.2,1.7c1.2,0.5,2.4,0.4,3.7,0.8
			c1.1,0.4,2.4,0.9,3.7,1.2c-0.1,0.2,0,0.1-0.1,0.2c-0.1,0.1-0.1,0.1-0.4,0.1v0.4c0.6-0.1,1.1-0.6,1.8-0.4c1.9,0.5,4.2,1.1,6.1,1.7
			c1.3,0.1,2.5,0.2,3.8,0.2c2.5,0.6,4.4,0.8,7.1,1.2c0.5,0.1,1.1-0.2,1.5-0.1c1.4,0.2,3.3,0.2,4.8,0.5c0.6,0.1,0.8-0.3,1.3-0.2
			c2.5,0.5,6.3,0.6,8.7,0c0.6,0,1.1,0.1,1.7,0.1c0.5-0.2,1.7-0.6,2.1-0.7c0.4-0.1,1.1,0.3,1.7,0.1c1.3-0.4,2.8-0.2,4.2-0.6
			c0.8-0.2,2-0.4,2.8-0.6h1.2c3.7-1.2,8.1-1.6,11.9-2.8c1-0.3,1.8-0.1,2.7-0.4c1.4-0.4,3.1-0.9,4.5-1.3h1.7c1.3-0.3,2.9-0.4,3.9-1.1
			c0.4-0.3,0.8-2,0.6-2.7c0-0.2-0.3-0.4-0.2-0.7c0.2-1,0.3-2.7,0-3.8V408c-0.4-1.4-0.7-4-0.4-5.8c0.3-1.1,0-2.3,0.2-2.8v-0.2
			c1.3,0.6,1.8,0.2,2.9-0.1h1.7c0.5-0.2,2.2-1.8,2.5-2.2c0.4-0.8,0.3-1.5,0.6-2.5c0.3-1,0.9-2.2,1.3-3.3c0.3-0.8-0.2-2-0.1-2.6
			c0.5-3-1.9-5.8-3.9-6.8c-1.8-1-5-1.3-6.6,0.2h-0.1c0-2.9,0.8-6.9-0.1-9.6c0.1-0.6,0.1-2.3-0.1-2.7c0-0.4,0-0.9,0.1-1.2
			c0.5-0.1,1.5-0.3,2.4-0.1c0.2,0.1,0.8,0.2,1.2,0.1c0.5-0.1,1.1-0.3,1.9-0.2c0.5,0,1.1,0.2,1.7,0.1c1.2-0.3,2.8-0.4,3.8-0.1
			c0.8-0.2,2.2-0.1,3.3,0.1c1.5,0.3,2.9-0.1,3.9,0c0.8,0.1,1.7,0.2,2.5,0.4c1.5-0.2,4.1-0.2,6.3,0.2c1.5,0.3,3.7-0.4,5-0.1
			c1.7,0.3,4.8,0.3,6.5,0c0.8-0.2,1.4,0.3,1.8,0.4c0.4,0,0.8-0.1,1.2-0.1c0.1,0,0.3,0.2,0.6,0.1c0.4-0.1,0.5-0.5,1.2-0.6
			c0.9,1,2.3,2.6,3.8,2.8c-0.2,0.5-0.5,0.5-0.8,0.8c-0.3,0.4-0.7,1.1-0.8,1.5c-0.3,0.9,0.2,3.4,0.5,3.9c0.7,1.8,2,3.2,2.7,4.8
			c0.2,0.5,0,1,0.2,1.5c0.2,0.6,0.8,1.3,1.1,1.9c0.3,0.7-0.1,1.4,0.2,2.1c0.1,0,0.2,0.1,0.4,0.1c-0.1,1.3-0.2,2.5-0.4,3.8
			c-0.3,0.6-0.4,1.7-0.8,2.2c-0.7,1.1-1.8,2.3-2.4,3.5c-0.4,0.9-0.2,1.9-0.6,2.5c0,0-0.9,0.6-1.2,0.7c-0.1,2.1,1,2.2,1.1,4.2h-0.8
			c-0.2-1.1-0.8-1.5-1.3-2.2h-1.2c-0.3,0.2-0.1,0.6-0.2,0.9c-0.3,0.6-1.3,0.2-1.2,1.2c-1.2-0.8-1.1-6.5-2-7.3c1-1.2,2.3-2.2,3.1-3.7
			c0.4-0.8,0.7-2.1,0.5-3.1c0-0.7-0.1-1.5-0.1-2.2c-0.2-0.6-1.9-3.1-2.4-3.4c-0.9-0.5-2-0.5-2.9-0.9c-0.6-0.3-1.3-0.8-2.1-1.1
			c-2.7-0.8-8.6,1.2-10.4,2.7c-0.5,0.4-0.8,1.1-1.2,1.5c-0.3,0.2-0.6,0.4-0.8,0.6c-0.6,0.8-0.6,1.4-0.9,2.7c0,0.1-0.2,0.3-0.1,0.6
			c0.8,2.6,1.8,3.5,3.4,5.2c0.2,0.3-0.2,1.5-0.2,2c0,0.3-0.3,1.4-0.5,1.9c-0.3,1.3-0.1,2.6-0.5,3.9c-0.2,0.8-0.6,1.5-0.6,2.6
			c-0.5-0.2-0.9-0.2-1.3-0.4c-0.3,0.5-1.3,1.1-1.7,0.8c-2,0-0.8,0.7-1.5,1.5c-0.2,0.1-0.5,0.2-0.7,0.2c-0.6,0.5-0.4,1.5-0.4,2.5
			c-1.3-0.5-1.2-2-2.1-2.9c-0.2-0.1-0.4-0.2-0.6-0.4c-0.7,0-1-0.1-1.2,0.5c-0.6,0.8-0.1,2.4,0.5,2.9c0.2,0.2,0.4,0.2,0.7,0.2
			c0,0.4,0,1,0,1.1c0.1,0.5,0.3,0.5,0.5,0.9l0.1,0.1c-0.4,0.2-0.5,0.4-0.8,0.6c0,1.3,0.2,2.1,0.8,3.1c1.1,0,1.2-0.4,1.8-0.8
			c0.1-1.1-0.2-1.9-0.9-2.4c0.3-0.5,1-0.2,1.3-0.9h0.2c-0.8,1.4-0.1,2.5,0.2,3.8c0.7,0,1.1,0.1,1.3,0c0.6-0.1,0.6-0.6,0.9-0.9
			c-0.1-1.6-0.9-1.2-0.1-2.6h0.5v0.4c0.8,0,1.2,0.2,1.7-0.4c0.5,0.1,1.1,1.6,1.3,2.1c0.5,0,0.9,0,1.2-0.2c0.9-0.4,1-1.8,0.2-2.4
			v-0.1c0,0,0.1,0.1,0.1,0.1c0.5,0,0.6,0.1,0.9,0.2c-0.1,1.8,0,1.9,0.6,3.4c0.4,0,0.8,0,1.1-0.1c1-0.1,0.8-0.9,1.3-1.4
			c-0.1-0.4-0.1-0.4-0.2-0.6v-0.2c0.4,0,0.8,0.1,1.2,0.1c0,1.2,0.2,2,0.7,2.9c0.4,0,0.8,0,1.1-0.1c0.7,0.1,1,0.5,1.3,0.9
			c0.8,0,0.8-0.4,1.3-0.7c0.1-0.5,0.2-0.8-0.1-1.1c0.1-0.6,0.5-0.7,0.6-1.4h0.1c0.3,1,1.6,1.3,2.2,1.9c0.8,0,0.6-0.3,1.1-0.6
			c0.1-0.1,0.9,0.1,1.2-0.1c0.3,0,0.3,0,0.5,0.1c0.3,0.5,0.1,1.3,0.4,1.8c0.2,0.4,0.9,0.8,1.2,1.3c1.1,0,1.4-0.9,1.8-1.7
			c0.2-0.4,0-1.2,0-1.3c0.1-0.1,0.2-0.2,0.2-0.2c0,0,0.1-0.1,0.1-0.1c0.2,0.4,0.3,1,0.6,1.4c-0.3,0.4-0.5,0.8-0.8,1.2
			c0.2,1,0.8,1.2,0.9,2c1.1,0.2,1.5,0.3,2,1.1c0.5,0,1-0.1,1.5-0.1c0.1-0.2,0.1-0.3,0.1-0.6h0.1c0.1,0.3,0.1,0.3,0.2,0.6
			c0.7,0,0.8-0.1,1.1-0.5c2.1,0,2.5,0.8,3.3,2c0.4,0,0.8,0,1.1-0.1h0.8v0.1c0.3,0.2,0.2,0.8,0.5,1.1c0.2,0.3,0.6,0.3,0.8,0.6
			c0.7,0,0.7-0.2,1.2-0.4c0.1-0.5,0-0.6,0-1.2c0.6,0.4,0.3,1.2,1.1,1.5c0.5,0.3,1.1,0.2,1.5,0c0.1-0.5,0.2-0.9,0.2-1.4
			c0.4-0.6,1-0.2,1.1-1.5c0.1,0.1,0.2,0.4,0.4,0.5h0.6l0.9,0.9c0.2,0.1,0.4,0,0.6,0.1c0.7,0,0.8-0.1,0.8-0.7
			c0.4,0.3,1.5,1.2,2.1,0.8c0.7,0,0.6-0.1,0.9-0.5c0.1-0.2,0.4,0.2,0.6,0.4c0.7,0,0.9-0.1,1.3-0.4c0.1-2.2-0.4-1.8-1.4-2.7
			c-0.4,0-0.4,0-0.6,0.2c-0.2-0.3-0.3-0.7-0.4-1.2h-0.4v-0.1c-0.1-0.1-0.1-0.1-0.1-0.4c-0.4-0.1-0.7-0.2-1.1,0h-0.1
			c0.2-0.4,0.3-0.8,0.2-1.4c0.9,0.3,0.5,0.6,0.9,0.9h0.9c0,0,0.8,1,0.8,1.1c0.3,0,0.3,0,0.5-0.1c1.3,0,1.1-0.7,1.1-1.8
			c-0.6-0.6-1.1-1.1-1.9-1.5c-0.1-0.5,0-1.5-0.1-1.8c0.3-0.2,0.7-0.3,0.9-0.5c0.2-0.2,0.2-0.4,0.5-0.6c0-1.4-0.5-1.9-1.1-2.7h-0.5
			c0.1-0.8,0.3-1.6-0.2-2.4v-0.2c0.5,0.3,2.1,1.9,2.2,2.5c0.2,0.6-0.2,1.2,0.2,1.9c0.2,0.4,0.6,0.3,0.8,0.8c0.7-0.1,0.8-0.3,1.2-0.6
			c0-1.5-0.4-1.8-0.2-2.9c0.7,0.7,0.6,1.5,1.1,2.4c0.2,0.2,0.5,0.5,0.7,0.7c1,0,1.1-0.6,1.7-1.1c0-1.5-0.6-3.2-1.8-3.5
			c-0.4-0.3-1.2-0.3-1.8,0c-0.3-0.5-0.8-0.5-1.3-0.8c-0.2-0.3-0.4-0.9-0.5-1.2c0,0,0.1-0.5,0.1-0.9c0.1,0.1,0.9,1.4,0.9,1.8
			c0.7,0,0.9-0.1,1.2-0.5c1.4,0.5,0.8,1.6,2.7,0.5c0-0.6,0-0.9-0.2-1.2c0-0.8-0.4-1.2-1.1-1.4v-0.1c-0.8,0-0.9,0.1-1.3,0.5v0.1
			c-0.3-0.4-0.6-0.7-0.9-1.1c-0.7,0.1-1,0.3-1.4,0.6c-0.1-0.6-0.2-1-0.9-1.2v-0.1c-0.7,0-0.7,0.2-1.2,0.4c-0.1,0.3-0.3,1.1-0.1,1.5
			c0.1,0.2,0.4,0.4,0.4,0.7c-0.1,0.6-0.6,0.9-0.6,1.9h-0.1v-0.2c-0.1-0.3,0.3-1,0-1.5c0-0.9-0.5-1.7-1.4-1.8c0.4-1-0.2-1.6,0-2.7
			c0.3-1.3-0.7-3.6-1.3-4.7c0-0.1,0.2-0.4,0.1-0.6c-0.1-0.2-0.6-0.3-0.7-0.5c0-0.4-0.1-0.9-0.1-1.3c-0.1-0.2-0.5-0.6-0.6-0.8
			c0-0.4-0.1-0.7-0.1-1.1c-0.2-0.4-0.7-0.9-0.8-1.4c-0.3-1-0.3-2.1-0.6-2.9c-0.2-0.7,0-1.7,0-2.4c0-0.4-0.4-0.7-0.2-1.3
			c0.2-1,0.6-2.1,0.8-2.8v-1.1c0.1-0.1,0.5-0.2,0.6-0.4c0-0.4,0.1-0.7,0.1-1.1c0.1,0,0.2-0.1,0.4-0.1c0.4-0.6,0.5-1.9,0.7-2.6
			c0.7-2.9-0.8-5.7-2.9-6.1c1.8-1.3,2.4-1.1,3.5-3.2c0.4-0.1,1.1-0.4,1.7-0.2c0.3,0.1,1,0.4,1.5,0.2c2.5-0.6,5.4-0.8,8.1-1.1
			c1.9-0.2,4.2,0.3,6,0.1c3.4-0.4,8.8-0.7,13-0.2c1.1,0.1,2.8-0.1,4.1,0.2c0.7,0.2,1.5-0.1,1.9-0.2c0.4,0,0.8,0.1,1.2,0.1
			c0.7-0.1,2.1-0.1,3.3-0.2c2-0.2,4.9,0.5,7.2,0.1c0.5-0.1,2.2,0.1,2.8,0c1.4-0.3,4-0.4,5.4-0.2c1.1,0.2,3-0.2,4-0.4
			c0.7-0.1,1.8,0.3,2.7,0.1c1.7-0.4,3.5-0.6,5.3-0.2c0.4,0.1,1-0.1,1.2-0.1c0.8-0.2,1.9,0.1,2.5,0.2c1.6,0.3,3.7-0.3,4.7,0.5
			c1.2,0,1.8-0.1,2.5-0.5C526,365,525.9,364.8,525.6,364.5z M407.1,393c-0.4-0.7-1.2-1.8-0.8-2.6c0.2-1.7,2-2.5,2.9-3.5
			c0.3,0.2,0.7,0.9,0.8,1.2c0.2,0,0.2,0,0.4,0.1c1.4-0.2,1.5-1.8,2.2-2.7c0.2-0.2,0.5-0.1,0.7-0.4h0.1c-0.1,0.3-0.2,0.6-0.4,0.9
			c-0.1,0.1-0.4,0.2-0.5,0.4c-0.1,0.4,0.3,0.6,0.1,0.9c0.1,0.7,0.3,0.7,0.6,1.1c0.3,0,0.6-0.1,0.9-0.1c0.4-0.2,0.3-1,0.5-1.5
			c0.3-0.8,1-1.1,1.3-2h0.1c0,1.3,0.4,1.1,0.8,1.8c0.2,0.3,0,0.8,0.2,1.2c0.2,0.3,0.7,0.4,0.9,0.7c0.7,0,0.8-0.1,1.2-0.4
			c0-0.5,0-1.4-0.2-1.8v-0.1c0.5,0.3,2,0.8,2.2,1.3c0.5,0.8,0.7,1.6,1.3,2.2c0,0.3,0,0.5-0.1,0.7c-0.5,0.3-1.5,0-1.9,0.4h-0.2
			c0,0.4,0,0.6,0,0.7c0,1.1,0.7,1.6,1.5,1.8c-0.1,0.4-0.2,0.6-0.5,0.8v0.1c-0.4-0.2-0.6-0.6-0.9-0.7c-0.7-0.2-1.2,0.2-1.8,0.1
			c-0.1,0.1-0.2,0.2-0.2,0.2c0,0.6-0.3,1.4,0.1,1.8v0.2C413.5,396.1,409.3,396.6,407.1,393z M418.7,412.3c0,0-0.2,0.4-0.2,0.4
			c-0.4,0.1-2.9-0.1-3.2-0.1c-0.8,0-2.6,0.5-3.9,0.1c-1.2-0.4-3-1.2-4-1.9c-0.1-0.6,0-1.3,0.1-1.8c0.1-0.6-0.2-1.6,0-2.5
			c0.1-0.6,0.3-1.4,0.5-2c0.2-0.6-0.1-1.4,0-1.8c0.5-1.3,1-3.6,1.1-5.3c2.1,0.9,8.8,1.4,10.5,0.5h0.1c0.1,0.7,0.2,1.4,0.2,2.1
			c-1.3-0.1-3.2,0.7-2.1,2c0.2,0.2,0.3,0.3,0.5,0.5c0.7,0,1.5-0.1,2.2-0.1c0,0.5,0.1,1.4,0.4,1.8v0.1c-1,0.2-1.8,0.3-2.5,0.8
			c-0.1,0.2-0.1,0.8-0.2,0.9c0,0.3,0,0.4,0.1,0.6c0.9,0.6,2.1,0.2,3.2,0.1c0.1,0.6,0.1,0.5,0.1,1.1c-1.1,0-1.9,0.3-2.7,0.5
			c0,0.5-0.1,0.9-0.4,1.2c0.1,0.6,0.5,0.8,0.7,1.3c1-0.1,1.7-0.1,2.5-0.4c0.1,0.1,0.1,0.2,0.2,0.4
			C421.8,412.1,419.8,411.9,418.7,412.3z M453.7,409.1h0.1v0.2h-0.1V409.1z M476.4,292.6h-0.1c0-0.4,0-0.6,0.1-0.8h0.4
			C476.6,292.1,476.5,292.2,476.4,292.6z M475.8,289.6c-0.3-0.2-0.1,0,0-0.4c0.2,0.1,0.3,0.2,0.5,0.2v0.2
			C476,289.7,476,289.7,475.8,289.6z M474.9,277.2c-0.4-0.2-0.7-0.8-0.9-1.2c0.2-0.3,0.5-0.4,0.6-0.7c0.3-0.8,0.2-1.5,0.6-2.2
			c0.3-0.6,0.7-1.3,0.9-1.9c0.2-0.5,0.1-1.1,0.4-1.5c0.1-0.1,0.1-0.1,0.4-0.1V269c0.4,0,0.4,0,0.9,0c0.1-0.2,0-0.1,0.1-0.2
			c0-0.5-0.1-0.6-0.2-0.9c-0.5,0-0.6,0-0.8,0.2c-0.5-0.1-0.7-0.3-0.9-0.6c-0.5,0-0.9,0.1-1.2,0.4c-0.9-0.1-2.2-1.8-2.6-2.5
			c0-0.4-0.1-0.9-0.1-1.3c-0.1-0.3-0.6-0.8-0.6-1.2c0-2.6,1.1-4.7,1.8-6.6c0-0.5,0.1-0.9,0.1-1.4c0.3-0.9,0.7-2,0.9-2.8
			c0-0.4,0.1-0.8,0.1-1.2c0.4-0.9,1.2-1.6,1.7-2.6c0.5,0,0.9,0,1.2,0.2c1.3,1.8-1.9,7.6-0.6,9.8c0.5,0.9,1.3,1,2.4,1.4
			c0.4,0.1,0.4,0.3,1.1,0.4v-0.4c0.8,0.3,0.5,0.1,1.3-0.1c0.4,0.1,0.8,0.4,1.4,0.5c0.1,0.6,0.5,0.7,0.7,1.1c0.3,0.5,1.4,4.3,1.2,5.1
			c-0.1,0.3-0.5,0.9-0.6,1.2c-0.3,0.8-0.1,1.7-0.6,2.2c0,0.9,0.2,1.1,0.5,1.7c0.3,0.1,0.7,0.2,0.9,0c0.3-0.1,0.3-0.1,0.5-0.2
			c0.3-1.1,1.5-5.2,1.3-6.1c-0.2-1-0.9-2.1-1.2-3.1c-0.2-0.6,0-1-0.2-1.5c-0.3-0.7-1.7-1.8-2.6-2c0.1-2.6,1.7-5.2,2.5-7.2
			c0.8-1.9,0.8-4,1.2-5.9c0.1-0.6-0.1-1.1-0.2-1.4c-0.4-1.5-0.7-2.3-2-2.8h-0.6c-0.8-0.4-1.6-0.8-2.5,0c-0.7,0.3-0.8,1.4-1.2,2.1
			c-0.5,0.9-1.2,1.8-1.8,2.6c-0.4-0.2-0.4-1.7-0.2-2c0-2,2-3.4,3.2-4.2c0.2-0.1,0.3-0.6,0.5-0.7h0.7c0.1-0.1,0.4-0.6,0.5-0.7
			c0.3,0,0.3,0,0.5,0.1c0.5-0.1,0.6-0.4,0.8-0.7c1.1,0,1.6-0.2,2.5-0.2c0.4,0.5,0.9,1.1,1.4,1.5c0.2,0,0.3,0.1,0.5,0.1
			c0.1,0.4,0.2,0.7,0.2,1.1c0.9,2.2,0,3.9-0.5,5.8c-0.2,0.8,0.1,1.4-0.4,1.9c0,1.2,0.5,1.1,1.2,1.5c0.5,0,0.5-0.1,0.8-0.2
			c0.3-1.7,0.6-3,1.1-4.8c0.2-0.8-0.1-1.7,0.2-2.2c0.1-0.1,0.4-0.2,0.5-0.4v-0.8c0.2-0.7,0.5-1.7,0.8-2.4c0.1-0.1,0.2-0.2,0.4-0.2
			c0.2-0.3,0-0.7,0.2-0.9c0.2-0.3,0.7-0.5,0.9-0.8c0.5-0.8,0.6-1.3,1.3-1.9c0.1-0.1,0,0,0.2-0.1c0,0,0.1,0.1,0.1,0.1
			c-0.1,1.9,0,3-0.5,4.7v1.1c-0.6,1.6-1.1,3.7-1.5,5.3c-0.2,0.8,0,1.3-0.2,2c-0.2,0.5-0.7,1.7-0.6,2.4c0.1,0.5,0.5,0.6,0.6,1.1
			c0.2,0,0.2,0,0.4-0.1c0.4,0,0.6,0,0.8-0.1c1-2.6,1.2-5.9,2-8.6c0.3-0.9,0.2-1.9,0.6-2.6c0.3-0.7,0.4-0.3,1.1-0.6
			c0.4-0.2,0.7-0.7,1.1-0.9c0.1-0.1,0.4-0.1,0.6,0c0.9,0.5,0.6,3.2,0.2,4.4c-0.2,0.8-0.4,1.9-0.7,2.7c-0.1,0.2-0.4,0.5-0.5,0.7
			c0,0.5-0.1,0.9-0.1,1.4c-0.5,1.6-1.7,3.1-1.4,5.2c0.3,0.2,0.3,0.2,0.5,0.5c0.3,0,0.3,0,0.5-0.1c1.2-0.1,2.6-2.5,3.4-3.3
			c0.7-0.7,1.8-0.9,2.5-1.5c0.4,0.1,0.4,0.1,0.7,0.2c0,0.7,0.3,1.6,0,2.2c-0.6,1.7-2.8,2.7-4,3.9c0,0.2-0.1,0.3-0.1,0.5
			c-0.4,0.3-1,0.5-1.3,0.9c-2.3,3.4-3.3,7.9-4.8,12c-0.3,0.8-1.7,3.7-1.5,4.2c-0.3,0.8-1.1,1.8-1.4,2.6c-0.3,0.8-0.3,1.4-0.6,2.1
			c-0.2,0.6-0.7,0.9-0.7,1.8c-2.4,1.1-5,1.1-8.1,0.6c-0.5-0.1-0.5,0.3-0.8,0.2c-0.1-0.1-0.2-0.2-0.4-0.4c-0.9-0.3-1.7,0-2.6-0.2
			c-0.9-0.3-1.7-1-2.5-1.3C475.5,277.2,475.2,277.2,474.9,277.2z M478.9,247.9c0.1-1.1,0.8-0.9,1.3-1.5c0.4-0.6,0.8-1.6,1.1-2.2
			c0-0.4,0.1-0.7,0.1-1.1c0.2-0.5,0.7-0.5,0.9-1.1c0.9,0.1,1.3,0.6,1.9,0.9c0,0.2,0.2,3,0.2,3.1h0.1c0,0,0.1,0.1,0.1,0.1
			c-1,1.9-1.2,4.7-2.1,6.7c-0.7,1.6-2.1,3-2,5.2c-0.5-0.1-0.7-0.2-1.1,0.1c-1.5-0.1-1.2-0.9-1.4-1.9
			C477.8,254.8,480.2,250,478.9,247.9z M474.2,289.7h0.5c0,0,0.1,0.1,0.1,0.1c-0.1,0.4-0.1,0.5-0.4,0.7c0.1,0.4,0.1,0.5,0.4,0.7v0.1
			c-0.3,0-0.5,0-0.7-0.1C474.1,290.7,474.1,290.2,474.2,289.7z M471.6,291.6c0.3,0.3,0.1,0.1,0.1,0.6c1.1,0.6,2.4,0.5,3.3,1.3
			c0.5,0,0.7-0.2,0.9-0.5h0.2c-0.1,0.4-0.4,1-0.7,1.3c-0.2,0.1-1.1-0.3-1.5,0h-0.2c0-0.8,0-1-0.6-1.2c-0.4-0.3-1-0.3-1.3,0
			c-0.5,0.2-0.4,0.6-0.7,0.9c0,0-0.1,0.1-0.1,0.1V294h-0.7C470.7,293.3,471.5,292.6,471.6,291.6z M419.3,230.9h-0.2v-0.2l0.2,0.1
			V230.9z M423.3,232.8h-0.2v-0.2c0.1,0,0.2,0.1,0.2,0.1V232.8z M431.5,229.7c-0.3,0-0.5,0-0.7,0.1v-0.1c0,0-0.1-0.1-0.1-0.1
			c0.2-0.2,0.4-0.4,0.6-0.6h0.2L431.5,229.7L431.5,229.7z M434.1,231.5c-0.4,0-0.4-0.1-0.7-0.2v-0.5c0.6,0,0.6-0.1,0.7-0.6h0.1
			c0.2,0.5,0.5,0.7,0.6,1.3C434.4,231.5,434.2,231.5,434.1,231.5z M443.7,229c-0.1,0.1-0.8-0.3-1.1-0.5h-0.1v-0.1
			c0.4,0.1,0.7,0.2,1.1,0c0.5,0,0.6,0,0.7-0.5c0.1,0,0.2,0.1,0.4,0.1C444.6,228.6,444.2,228.8,443.7,229z M447.6,226.2v0.1
			c-0.6-0.2-0.8-0.6-1.4-0.7c0.1-0.3,0.2-0.3,0.4-0.6h0.9c0.2,0.3,0.4,0.3,0.7,0.5C448.1,225.9,447.9,226,447.6,226.2z M451.7,217.7
			c0,0.4-0.1,0.7-0.2,0.9c-0.1,0.4-0.1,0.3-0.2,0.6c-0.5-0.4,0-0.6-0.1-1.2c-0.1-0.2-0.4-0.5-0.5-0.7
			C451,217.5,451.3,217.5,451.7,217.7z M450.2,222.1c0,0,0.1,0.1,0.1,0.1c-0.1,0.7-0.3,1.1-0.5,1.7c-0.4-0.1-0.4-0.1-0.7-0.2
			c0.1-0.6,0.3-1.1,0.2-1.7C449.7,222,450,222,450.2,222.1z M448.9,221.4c-0.4-0.2-0.8-0.4-1.2-0.7c-0.7,0.1-0.7,0.3-1.1,0.6
			c0,0.5,0,0.8,0.2,1.1c-0.2,0.8-1.5,0.3-2.4,0.2c-0.6,0.3-1,0.9-1.7,1.2c-0.2-0.4-0.1-0.9-0.2-1.2c0.1-0.6,0.2-0.5,0.5-0.8
			c0.4,0.1,0.9,0.2,1.2,0.5c0.7,0,0.9-0.1,1.3-0.4c0.1-0.5,0.4-0.8,0-1.2c0.3-0.5,0.3,0,0.8-0.2c0.3-0.1,0.4-0.6,0.6-0.7
			c0.5-0.3,0.6,0,0.9-0.4c0.4,0.2,0.8,0.5,1.2,0.7C448.9,220.5,448.8,220.7,448.9,221.4z M445.2,210.5h0.4c0.2,0.3,0.6,0.4,0.8,0.7
			c0.1,0.2,0.1,0.5,0.2,0.7v0.1c-0.5-0.1-0.9-0.4-1.3-0.6C445.1,211.1,445.1,210.9,445.2,210.5z M444.7,208.6v0.1
			c-0.2,0-0.5-0.1-0.7-0.1c0-0.1-0.1-0.2-0.1-0.4C444.1,208.4,444.4,208.5,444.7,208.6z M438.7,205.3c0.5,0.1,0.6,0.3,1.1,0.2
			c0.1,0.2,0,0.1,0.1,0.2v0.1c-0.6,0-1,0-1.4-0.2h-0.1C438.5,205.4,438.5,205.5,438.7,205.3z M384,224c-0.3,0.2,0,0.6-0.2,0.8
			c-0.2,0.3-1.1,0.8-1.4,0.9c-0.7,0.3-1.3,0.3-2,0.6c-4.1,2-10.1,3.1-15.5,1.3c-2.7-0.9-5.8-1.4-6.7-3.9c-1.1-3-0.1-6.9,0.6-9.8
			c0-0.6,0.1-1.1,0.1-1.7c0.2-0.5,0.5-1.2,0.6-1.8c0.1-0.3-0.1-0.8-0.1-0.8l0.6-0.6c0.3-0.5,0.2-1.1,0.6-1.5l0.6-0.4
			c0.4-0.6,1-1.4,1.2-2.1c0.2,0,0.5-0.1,0.7-0.1v-0.4c0.2,0,0.4,0.1,0.6,0.1c0.2-1.4,2-0.9,2.9-1.4v-0.2c0.8-0.4,1.5,0.1,2.2-0.1
			c0.5-0.1,1.2-0.5,1.5-0.7c0,0,0.4,0.2,0.6,0.1c1.3-0.5,2.6-0.4,3.7-0.9c0.4-0.2,1,0.3,1.5,0.4v-0.4c0.1,0.1,0.1,0.1,0.1,0.4
			c1.6,0,3,0.6,4,0.9c1,0.4,1.6,0,2.5,0.5c1.4,0.8,2.9,1.7,4.1,2.7c0.2,0.2,0.1,0.4,0.2,0.6c0.3,0.4,2.9,2.2,3.3,2
			c0.1,0.1,0.1,0.1,0.1,0.4c0.9,0,1.3,0.2,2.1,0.4c1.1,0.3,1.6-0.3,2.6-0.4c0.1-0.4,0.3-0.6,0.1-0.9c-0.3-0.9-2-1.1-3.2-0.8
			c-0.1,0-0.6,0.2-0.9,0.1c-0.4-0.1-1.1-0.5-1.5-0.8c-2.2-1.5-2.8-6-1.3-8.7c0.3-0.5,0.9-0.8,1.2-1.2c0-0.2,0.1-0.5,0.1-0.7
			c0.1-0.2,0.6-0.2,0.7-0.4c0.2-0.2,0.2-0.7,0.4-0.8c0.5-0.4,1-0.6,1.4-1.1h0.7v-0.4c0.4,0.2,0.7,0,0.9-0.2c0,0,0.1-0.1,0.1-0.1
			c0.5,0.1,0.7,0.5,1.4,0.5v-0.4c0.1,0.1,0.3,0.3,0.4,0.5c0.4,0,0.5-0.3,0.7-0.2c0.6,0.1,1.3,0.6,2.1,0.7c0.2,0.5,1.8,1.8,2.2,2.1
			c0.2,0,0.5,0.1,0.7,0.1c0.6,0.4,1.5,2.3,1.8,3.2c0.3,0.8,0.7,2.2-0.1,2.8c0.1,1.1,1,1,1.4,1.8c0.6,0,0.9-0.2,1.3-0.4
			c0.4-0.5,0.2-1.2,0.6-1.8c0.1-0.2,0.6-0.4,0.7-0.6v-0.4c0.3-0.2,0.6-0.5,0.8-0.7v-0.4c0.3-0.2,0.6-0.5,0.8-0.7
			c0-0.2,0.1-0.4,0.1-0.6c0.6-0.9,1.8-0.8,2-2.2c0.7-0.1,0.7-0.4,1.1-0.6h0.7c0.6-0.2,1-0.8,1.4-1.1h0.6c0.7-0.3,1.7-0.4,2.4-0.8
			c0.4-0.2,3,0.4,3.2,0.5c0.4,0,0.9,0.1,1.3,0.1v0.2h0.6v0.2c0.3,0.1,0.6-0.1,0.7-0.1c0.5,0.4,1.1,0.7,1.8,0.7
			c0.3,0.2,0.6,0.6,0.8,0.8c0.5,0.1,0.9,0.2,1.4,0.4c0.5,0.3,0.8,1,1.3,1.3c0.4,0.3,0.9,0.5,1.3,0.8c0.2,0.2,1.4,2.1,1.5,2.4
			c0.4,0.9,0.2,1.8,0.8,2.5c0,2-1.5,1.8-2.6,2.6c-0.5,0.4-2,1.7-2.4,2.1c-0.2,0.3-0.3,0.8-0.6,1.1c-1.2,1.3-2.7,1.5-2.7,4.1
			c-0.5,0.2-0.7,0.4-1.1,0.7c0.1,0.5,0.3,0.6,0.6,0.9c0.4,0,0.6-0.1,0.8-0.2c0.2-0.2,0.3-0.3,0.5-0.5c0-0.2,0-0.2-0.1-0.4
			c0.2-0.4,0.9-0.3,1.2-0.7c0-0.2,0.1-0.5,0.1-0.7c0.3-0.7,1.1-1.2,1.5-1.8c0.3-0.4,0.4-1,0.7-1.4c0.3-0.3,0.8-0.4,1.1-0.7
			c0.3-0.4,0.5-1,0.9-1.3c0.4-0.2,0.9-0.1,1.2-0.4c0.1-0.1,0.5-0.7,0.6-0.8c0.6-0.4,3.3-1.1,3.8-0.7c0.3,0.2,0.3,0.3,0.4,0.6
			c0.2,0,0.2,0,0.4-0.1c0.1-0.3,0-0.3,0-0.6c0.4-0.1,0.7-0.2,0.9-0.5c0.4,0.1,0.3,0,0.5,0.4c0.1,0.2,0,0.7-0.2,0.9
			c0,1.1,0.3,1,0.7,1.5c0.9,0,0.8-0.2,1.4-0.2c-0.1,0.6-0.3,0.5-0.2,1.2c-0.2-0.2-0.5-0.5-0.7-0.7c-0.3-0.2-0.8-0.2-1.1-0.5
			c-0.6,0.1-0.7,0.2-0.9,0.6c-0.2,0.2,0.2,0.9,0.2,1.3c-1,0.1-1.2,1.1-1.7,1.8c0.1,1,0.6,0.8,1.1,1.3c0.8-0.1,1.2-0.8,1.4-1.4
			c0.2-0.3,0.1-0.7-0.1-0.9c0.4-0.5,1.4,0.3,1.8-0.8c0.5,0.1,0.9,0.8,1.5,0.4c0.3-0.1,0.3-0.3,0.6-0.5c0-0.3,0-0.4-0.1-0.6v-0.5
			c0.2,0.1,0.3,0.2,0.5,0.4c0.1,0.2-0.1,0.5,0,0.9c0.1,0.3,1.3,1.4,1.5,1.5c-0.3,0.6-1.1,0.6-1.4,1.3c-0.2-0.2-0.1-0.3-0.4-0.5
			c-0.2-0.1-1,0.1-1.3,0.4c-0.3,0.3-0.1,0-0.1,0.4c-1-0.1-1.9,0.3-2.7,0.7c0,1.2,0.6,1.4,1.1,2.1c-0.2,0-0.3-0.1-0.6,0.1
			c-0.2,0.2-0.3,0.5-0.5,0.7c0.2,1.3,1.2,2.2,1.3,3.5c1.1,0.1,1.2-0.3,2-0.7c-0.1-1-1.4-2.4-1.1-3.1c-0.1-0.6-0.3-0.5-0.9-0.6v-0.1
			c0.7-0.3,1-0.3,1.3-1.1c1.3,0.1,1-0.1,1.9-0.5v-0.4h0.4c0.1,0.1,0.2,0.2,0.4,0.4v0.5h-0.1c-0.1,0.2-0.5,0.2-0.6,0.4
			c-0.2,0.4-0.2,0.8-0.5,1.1c0,0.9,0.3,1.3,0.9,1.5c0.3,0.2,0.6-0.2,1.1-0.1c0.3,0.1,0.7,0.6,1.2,0.2c0.8-0.5,0.1-0.9,0.4-1.8
			c0.1-0.4,0.5-0.4,0.5-1.2c-0.5-0.4-0.8-0.8-1.4-1.1c0.1-0.7,0.3-1.3-0.2-1.7c0.2-0.3,0.6-0.2,0.8-0.5c0.3,0,0.3,0.1,0.5,0.1v0.2
			h-0.7c0.1,1.2,0.6,1.8,1.1,2.5c1.1,0.3,2.5,0.6,3.2-0.5h0.1c0,0.5-0.1,0.8,0.2,1.2v0.5c0,0-1.2-0.1-1.3,0c-0.6,0.3-1,0.8-1.4,1.2
			c0.1,0.6,0.4,1,0.7,1.3v0.1c-0.6,0-1.2,0.2-1.7-0.1c-0.8,0-0.6,0.3-1.1,0.6c0,1,0.4,1.3,0.8,1.9c-0.4-0.3-1.1-1.5-1.9-0.9
			c-0.7,0.1-0.8,0.4-1.3,0.7c-0.1,0.6-0.2,1.2,0.2,1.5c-0.2,0.4-0.6,0.1-0.9,0.4c-0.5,0.4-0.5,1.1-1.3,1.7c0,1.4,0.9,2,1.9,2.4
			c-0.3,0.4-0.5,0.9-0.1,1.4c-0.2,0.3-0.5,0.3-0.7,0.6c-0.7-0.1-1.8-0.9-2.6-0.4c-0.4,0.2-0.6,0.4-0.6,1.1c-0.4,0.1-0.6,0.1-0.8,0.4
			h-0.2c0-0.7,0-0.7,0-1.4c-0.8,0-1.5-0.1-2.1,0.4c-0.4,0.2-0.3,0.2-0.4,0.7c-0.5-0.1-1.1-0.2-1.4-0.5h-0.2c0.3-0.7,0.7-1.2,0.9-1.9
			c0,0,0.1-0.1,0.1-0.1c0.3,0.3,0.5,0.7,0.7,1.1c0.9,0,1.7-0.2,2.2-0.6c0.2-0.2,0.2-0.2,0.2-0.6h0.1c0.1,0.3,0.1,0.4,0.2,0.6
			c0.2,0.2,0.7,0.5,0.9,0.4c0.6-0.1,0.9-0.5,1.4-0.7c0-1.1-0.4-1.9-1.2-2.4c0.2-0.1,0.7-0.3,1.1-0.5c0.2-0.4,0.2-0.7,0.2-1.3
			c-0.5-0.1-0.8-0.2-1.1-0.5c-0.6,0-0.8,0.1-1.1,0.4c-0.3,0.5,0.1,1-0.1,1.4c-0.3,0.6-1,0.3-1.1,1.5c-0.5-0.1-0.7-0.2-1.1,0.1v0.2
			c-0.7,0.3-0.8-0.4-1.3,0.2h-0.1c0.4-1,0.5-2.1,1.2-2.8c0-0.8-0.2-1-0.8-1.2c-0.3-0.2-0.7-0.1-0.9,0.1c-0.9,0.7-0.5,2.2-1.1,3.2
			v0.2c-0.5,0-0.5,0-0.7-0.2c-1.1,0-1.4,0.1-2,0.5c0.2,1,0.6,1.5,1.2,2.1l-0.7,0.7c-0.2,0-2.8-1.8-3.5-2.4h-1.2
			c-1.2,0.6,0.7,2.4,1.2,2.6v0.1c-0.8-0.2-1.7-0.5-2.6-0.7c-0.2,0.2-0.3,0.3-0.7,0.4c0.1,0.2,0,0.1,0.1,0.2c0,1,0.8,1.8,1.5,2
			c0.3,0.2,0.8,0.3,1.3,0.2c0.3-0.3,0.6-0.5,0.7-0.9h0.2c0,0,0.1,0.1,0.1,0.1c-0.2,1.1-0.9,1.2-1.4,1.9c-0.4-0.2-0.5-0.7-0.9-0.9
			c-0.5-0.3-1.1-0.2-1.5-0.5c-0.4,0.1-0.6,0.2-0.8,0.5c-0.4-0.1-0.6-0.2-0.8-0.5c-1.7,0.1-1.4-0.4-1.9-1.4c-0.3,0-0.3,0-0.5,0.1
			c-0.6,0-1,0-1.3,0.2c0,0.5,0.1,1,0.1,1.5c-0.9-0.1-1.2-0.7-1.7-0.4H416c0.3-0.5,0.5-0.7,0.5-1.7c-0.3-0.3-0.6-0.6-0.8-0.9
			c-0.3,0-0.3,0-0.5-0.1c-0.3,0.1-0.7,0.4-0.9,0.6c-0.2,0.2-0.2,0.4-0.4,0.6c0.1,1,1.1,1.5,0.9,2.1c0,0.1-0.3,0.4-0.4,0.6
			c-1.4-0.2-2.9-2.2-3.9-2.9v-0.2c0.7,0.5,1,0.7,2.1,0.6c0.3-0.3,0.8-0.7,1.2-0.9c-0.1-0.6-0.3-0.8-0.6-1.2c-0.3,0-0.8,0.1-1.1,0.2
			c-1.1,0-1.3,0.5-1.7,1.2c-1-0.3-1.5-2-2-2.8c-0.4-0.7-1.5-2.2-1.7-2.8c-0.2-0.7,0.6-1.2,0.8-1.5c0.7-1.3,1-3,2.1-4.1
			c0-0.7,0-1-0.4-1.3c-0.1-0.1-0.4-0.2-0.5-0.2c-1.6,0.1-1.2,1.2-1.7,2.5c-0.3,0.8-1.5,2.8-2,3.5c-0.7,0.9-2.3,1.4-3.2,2
			c-1.2,0.8-2.5,1.4-3.7,2.2c-0.5,0.3-1,1-1.5,1.3c-0.4,0.1-0.7,0.2-1.1,0.2c-1.2,0.7-3.4,1.6-5.5,0.9c-0.9-0.3-2.5-1-2.9-1.8
			c-0.2-0.4-0.2-0.9-0.5-1.2c0.1-1.1,1.2-1.1,1.9-1.7c0.4-0.3,0.6-1.2,0.9-1.5c1-1,2.5-2.3,1.8-4c-0.1,0-0.2-0.1-0.4-0.1
			c-0.3,0.3-0.9,0.5-1.2,0.9c-0.2,0.3-0.1,0.5-0.2,0.8l-2.2,2.5c-0.3,0.2-0.5,0.1-0.7,0.2c-0.5,0.4-1,1.1-1.5,1.4
			C384.9,223.7,384.5,223.8,384,224z M386.3,231.9c0-0.3-0.1-0.6-0.1-0.8c0.1-0.6,0.2-2.2,0.6-2.7c0.6-0.1,1.8,1,2.5,1.3
			c0.8,0.3,3.3,0.5,3.8,0.4c0.2,0,0.6-0.3,0.7-0.4c0.8-0.3,1.4,0.1,2.1-0.2c1.3-0.6,2.5-1.9,3.9-2.4v-0.5c1.1-0.1,4.7-2.4,5.3-3.1
			c1.2,0.3,1.3,2,1.9,2.9c1.5,2.7,3.9,5.2,6.5,6.8c-0.1,0.3-0.3,0.4-0.4,0.6v0.9c-0.1,0-0.2,0.1-0.4,0.1c0.1,0.5,0.2,1,0.2,1.5
			c-0.3,1.5-0.1,4.1-0.9,5.3c-0.5,1.3-2.5,0.9-3.4,1.5h-0.5c-0.1-0.5,0.1-4.2,0.2-4.5c0.1-0.2,0.3-0.2,0.6-0.2
			c-0.2-0.5-0.9-1.9-1.5-1.5c-0.4,0-0.4,0.1-0.7,0.2c0,0.8-0.1,1.6-0.1,2.4c-0.2,0.7-0.6,1.8-0.6,2.7c0,0.4,0.2,0.8,0.2,1.4
			c-0.3,0-1.9,0.1-2.2,0.4H403c0.1-1.3,0.2-2.5,0.2-3.8c0.3-1,0.6-2.2,0.6-3.5c-0.1-0.1-0.3-0.3-0.4-0.5c-0.4,0-0.8,0-1.1,0.1
			c-0.1,0.5-0.1,1.4-0.2,2c0,0.1-0.3,0.4-0.4,0.5c0,0.4,0.1,0.8,0.1,1.2c-0.1,0.2-0.4,0.6-0.5,0.8c-0.2,0.8,0.2,2.2-0.2,2.9
			c-0.4,0.2-2,0-2.5,0.2h-0.2c0.1-0.5,0.3-2.3,0.2-2.5c0-0.1-0.3-0.4-0.2-0.6c0.3-2.7,0.7-5.9,1.1-8.4c-0.2-0.1-0.3-0.2-0.5-0.4
			c-0.6,0-0.6,0.1-0.9,0.4c-0.5,2.6-0.6,4.7-1.2,7.2c-0.3,1.2,0.2,3-0.7,3.5c0,0,0,0.5,0.1,0.2c0,0,0.1-0.1,0.1-0.1
			c0,0.3-0.1,0.3-0.1,0.5c-0.9-0.1-2.2-0.7-2.9-0.6c0.1-0.7-0.1-1.3,0-2c0.2-1.1,1.9-6.8-0.8-5c0,1.7-0.5,2.8-0.8,4
			c-0.2,0.8,0,1.5-0.5,2c-0.5,0.3-2.1-0.8-2.2-1.4c-0.2-0.4,0.3-2.5,0.5-3.3c0-0.8,0.1-1.6,0.1-2.4c0.1-0.5,0.5-1.9,0.2-2.4
			c-0.1-0.6-0.2-0.5-0.5-0.8c-0.3,0-0.3,0.1-0.5,0.1c-0.4,2-1,4.5-1.4,6c0,0.3,0.1,0.6,0.1,0.8c-0.1,0.2-0.3,0.9-0.5,1.2
			c-0.6,0.2-2.2-1.5-2.1-2.5C385.4,235.6,385.9,233.8,386.3,231.9z M352.8,287.3c-0.1-0.4,0.3-0.6,0.4-0.8c0.2-0.8,0.1-2.3,0.1-2.7
			c0.4-0.6,0.1-1.7,0.4-2.5c0.2-0.8,1.5-3.8,1.3-4.5c0.2-0.3,0.4-0.6,0.6-0.9c0.2-0.5,1.2-3.9,1.1-4.1c0.1-0.1,0.1-0.1,0.4-0.1
			c0.2-1.1,0.9-3.9,1.4-4.7c0.3-0.4,0.8-0.9,1.1-1.4c0.3-0.7,0.3-1.6,0.9-2c-0.1-0.4,0.1-0.3-0.2-0.5c0.8-0.6,1.8-1.9,1.8-3.2
			c0.5-0.1,1-1,1.2-1.4c0.1-0.2-0.1-0.6-0.1-0.6h0.5c0.2-0.2,1.4-2.9,1.4-3.4c0.2-0.1,0.5-0.2,0.7-0.4c0.1-0.2,0.1-0.2,0-0.4
			c0.4-0.3,1.1-0.7,1.3-1.2v-0.6c0.1-0.3,0.8-0.9,1.1-1.1v-0.4h0.5c0.1-0.3,0.3-0.7,0.5-0.9c0.2-0.3,0.3-0.2,0.5-0.4
			c0.1-0.2,0.1-0.3,0.1-0.6c1.4-0.7,2.5-1.9,3.7-2.8c1.4-1.1,3-1.7,4.2-2.8c0.3,0.3,1.8-0.7,2.1-0.8c0.4,0,0.8,0.1,1.2,0.1
			c0.5-0.3,1.8-1.3,2.4-1.1c0.8,0,0.8-0.1,0.9-0.7c0.7,0.3,1.1,1.3,1.8,1.7c1.4,0.8,3.8,2,5.7,2.7c3,1.1,9.1,1.8,12.2,1.2
			c0.4-0.1,1.8-0.3,2-0.2c0.1,0,0.4,0.2,0.7,0.1c1.2-0.3,2.5-0.9,3.7-1.1c0.3,0,0.6,0.1,0.8,0.1c1-0.3,2.4-0.9,3.3-1.4V243
			c1,0.1,1.2,0.7,1.9,1.1c1.1,0.6,2.4,0.8,3.4,1.4c0.8,0.5,1.5,1.3,2.2,1.8c0.8,0.5,2.3,1.3,2.9,1.9c0.7,0.7,2.1,2.7,2.6,3.7
			c0.1,0.4,0.2,0.7,0.2,1.1c0.5,0.9,1.4,1.9,1.8,2.8c0.9,2,1.5,4.9,2.2,7.3c0.6,1.9,0.1,3.9,0.5,5.7c0,0.5-0.1,0.9-0.1,1.4
			c0.5,2,0.5,4.1,0.9,6v1.4c0.2,0.8,0.4,2.2,0.6,2.9c0.2,0.5-0.2,1.2-0.1,1.8c0.4,2.5,0.3,5,0.1,7.3c-0.2,0-0.2,0-0.4,0.1
			c-2.3,0-1.4,1-3.1,1.2v0.4c-1.2,0.8-2.5,1.1-3.8,1.8c-3.1,1.7-6.1,3.2-9.7,4.2c-2.8,0.8-5.8,1.1-8.5,1.9c-1,0.3-1.9,0-2.6,0.1
			c-1.9,0.4-4,0.5-5.7,0.8c-2,0.4-4.6,0.1-6.7,0.6c-0.4,0-0.9-0.1-1.3-0.1c-1.3,0.3-3.4,0.1-4.6,0.4c-0.6,0.1-2,0.3-2.8,0.1
			c-2.5-0.6-5.3-0.1-8-0.6c-0.4,0-0.7,0.1-1.1,0.1c-2.1-0.5-5.8-1.7-8-1.5c0-3.1,1.9-6.5,1.3-9.9c-1.1-0.5-2.5-1.1-3.5-1.4
			c-2-0.7-3.9,0.2-4.6,1.3l-0.2,1.2c-0.2,0.4-0.6,1.1-0.7,1.5c-0.1,0.5,0,1.6-0.2,2.4c-0.2,0.6-0.7,1.3-0.8,1.9
			c-0.8-0.2-1.3-0.7-1.9-0.9h-0.6c-0.5-0.2-1.2-0.8-1.8-0.9c-0.3-0.1-0.5,0.1-0.6,0l-0.4-0.2c0.1-1.3,0-1.5-0.2-2.5
			c-0.1-0.6,0.1-2.2,0.2-2.9C353.2,288.7,352.9,287.8,352.8,287.3z M365.3,297.1c0.4,1.9-1.3,4.7-1.9,6.8c-0.9,3.5-1.5,7.3-2.7,10.5
			v1.1c-0.6,2.1-1,4.4-2.1,6c-0.3,0.4,0,1.7-0.5,2.4v0.2c-0.6-0.2-1.3-0.4-1.8-0.1c-0.3,0.2-0.4,0.4-0.5,0.8
			c0.4,0.4,0.8,0.9,1.3,1.3c0,0.8-0.4,1.8-0.9,2.1c-0.3,0-0.6,0.1-0.8,0.1c-0.4,0.4-0.7,0.8-1.1,1.2c-1.5,1-3.2,2-5.1,1.9
			c0.1-1,0.5-1.7,0.8-2.4V328c0.1-0.3,0.5-0.8,0.6-1.1c0-0.3,0.1-0.6,0.1-0.9c0.4-0.9,1.1-1.8,1.4-2.7c0-0.2-0.1-0.3-0.1-0.5
			c0.2-0.9,0.4-1.6,0.7-2.6c0.1-0.4,0.7-2.5,0.9-2.8c0.1-0.1,0.4-0.1,0.5-0.2c-0.1,0,0-1.5,0.1-1.9c0.1-0.1,0.4-0.2,0.5-0.2
			c0.2-0.3,0-1.9,0.2-2.5c0.7-2,1.1-3.6,1.8-5.7v-0.7c0-0.1,0.3-0.4,0.4-0.5c0-0.2-0.1-0.4-0.1-0.6c0.1-0.4,0.6-0.9,0.7-1.4
			c0.1-0.3-0.1-0.9-0.1-0.9c0.2-0.6,0.9-1.4,1.2-2c0-0.4,0.1-0.7,0.1-1.1c0.1-0.2,0.8-0.4,1.1-0.6c0-0.5-0.4-0.9-0.4-1.3
			c0-0.2,0.4-0.6,0.5-0.7c0.4-0.9,0.3-1.7,0.6-2.8c0.1-0.4,0.5-0.8,0.6-1.1c0.3-0.9,0-1.7,0.5-2.4c1-1.2,3-0.2,4.2,0
			c0.1,0.3,0.3,0.4,0.4,0.7C366.6,291.9,365.1,296.4,365.3,297.1z M343.9,297.8c0.6,0,1,0.2,1.5,0.4c1.4,0.3,4.4-0.2,5.4-0.2
			c0.5,0,0.5,0.5,1.1,0.4c0.6-0.1,1.6-0.7,1.9-1.2c1.4,0.2,2.5,0.9,3.5,1.4c-0.2,1.7-1,2.9-1.5,4.4c-0.8,2.3-1.1,4.5-1.9,6.8
			c-0.7,2-1.5,3.8-1.7,6.3h-0.2c-0.1-1.5-0.2-3.1-0.2-4.6c0.6-1.6,0.4-5-0.4-6.6c-0.9,0.1-1.8,0.3-2.6,0.5c-0.5,0.1-4.6-0.1-4.7-0.1
			c0-0.1-0.1-0.2-0.1-0.2c-0.6-0.2-1.9,0.2-2.6-0.2h-0.2c0.1-1.2,1.1-1.8,1.5-2.7C342.2,300.9,343.8,299.1,343.9,297.8z
			 M336.1,288.3c-2.3-1.8-4.9-3.1-7.3-4.8c-0.7-0.5-1.2-1.6-1.8-2.4c-0.2-0.2-0.4-0.3-0.6-0.5c-0.2-0.3-0.2-0.7-0.5-1.1
			c-0.1-0.1-0.4-0.1-0.5-0.2c-0.4-0.5-0.3-1-0.6-1.5c-0.5-1-1.2-2.1-1.7-3.2c-0.6-1.4-0.8-3.4-1.2-4.8v-1.2
			c-0.2-0.7-0.4-1.7-0.5-2.5c-0.1-0.7,0.2-1.7,0-2.7c-0.1-0.8,0.2-1.7,0-2.5c-0.1-0.5-0.5-2.2-0.4-2.8c0.2-0.9,0.8-1.9,1.1-2.7h0.4
			V255h0.4c0.3-0.2,0.6-0.5,0.9-0.7c0.1-0.2,0-0.4,0.1-0.5c0.1,0,0.3,0.2,0.5,0.1c0.2-0.1,0.3-0.6,0.5-0.7h0.5
			c0.2-0.2,0.3-0.5,0.5-0.7c0.2-0.2,0.4-0.1,0.6-0.2c0.2-0.1,0-0.3,0.1-0.5c0.1-0.2,0.5-0.2,0.7-0.4c0.2-0.2,0.2-0.4,0.2-0.7
			c0.3,0,0.3,0,0.5-0.1c0.4-0.1,2.3-2,2.5-2.4h0.4v-0.5c0.3-0.1,0.6-0.2,0.8-0.2c0.2-0.1,0.2-0.4,0.4-0.6c0.3-0.4,0.6-0.3,1.1-0.6
			c0.3-0.2,0.3-0.5,0.6-0.7v-0.4c0.4-0.1,0.3-0.2,0.7-0.2c0-0.3,0-0.4,0.1-0.6c0.1-0.3,0.6-0.6,0.8-0.7v-0.5c0.3,0,0.3,0,0.5-0.1
			c0.2-0.1,0.6-1.2,0.6-1.5c0.9,0,1.5-1.3,1.2-1.8c0.1-0.1,0.3,0.2,0.6,0c0.4-0.3,0.3-0.8,0.8-1.1v-0.5h0.4c0.2-1.2,0.7-2.6,0.9-3.5
			c0.1-0.5-0.1-1.3-0.1-1.5c-0.2-1-0.1-1.7-0.7-2.6c-1.3-1.9-4.4-2.3-5.7-4.2c-0.8-1.3-1-2.9-1.8-4.2c-0.8-1.3-3.5-3.7-2.9-6
			c0.6-2.3,1.5-3.6,2.7-5.2c0.2-0.2,0.1-0.6,0.2-0.8c0.2-0.2,0.5-0.1,0.7-0.2c0.2-0.2,0.4-1,0.6-1.2c0.3-0.4,1-0.7,1.3-1.2h0.4v-0.4
			c0,0,0.1-0.1,0.1-0.1c1.2-0.5,3.1-1,4.4-0.1c0.1,0.1-0.2,0.5,0,0.8c0.1,0.2,0.5,0.4,0.6,0.6c0.1,0.3,0.1,0.8,0.2,1.1
			c0,0.1-0.1,0.2-0.1,0.4c-1.6,0.1-4.1-0.9-5.5,0.1c-2.3,0.3-4.3,6.6-3.1,9.1c0.8,1.6,1.5,3.5,2.6,4.8c0.9,1,2.3,2.1,3.4,2.9
			c0.9,0.7,1.8,2.4,2.5,3.4c1,1.4,3,3.7,2.7,6.3c-0.3,2.9-4.4,6.2-6.1,7.9c-0.7,0.7-1,1.5-1.5,2.2c-0.8,1-1.8,1.9-2.6,2.8
			c-0.8,0.9-1.3,2.1-2.1,2.9c-0.8,0.8-1.9,1.6-2.6,2.5c-0.6,0.8-0.6,1.8-1.2,2.6c-0.4,0.6-1.2,1.3-1.4,2.1c0,0.8-0.1,1.7-0.1,2.5
			c-0.7,2.9-0.1,4.4,0.8,6.6c0.3,0.6,0.3,1.2,0.6,1.8c0.4,0.8,1.2,1.3,1.8,2c0.6,0.7,1,1.5,1.5,2.2c0.4,0.4,0.9,0.8,1.3,1.2
			c1.1,1.5,2.3,2.8,3.5,4.1c0.7,0.7,1,1.7,1.5,2.5c0.1,0.2,0.6,0.3,0.7,0.5c0,0,0.1,1,0.2,1.3c0.2,0.5,0.6,1,0.9,1.5
			c0.2,0.1,0.4,0.2,0.6,0.4c0.6,0.7,0.9,2.2,1.2,3.1c0.4,1.2,0.1,3.1,0.5,3.9v0.5c-0.7-0.5-0.8-1.3-1.3-2
			C338.6,290.8,336.9,288.8,336.1,288.3z M320.7,311.6c-1.6-0.1-1.7-1.4-3.3-0.4c0.2,0.9,0.4,1.4,0.7,2c0.4,0.1,0.8,0.3,1.5,0.4
			c0.1,0.4,0.1,0.5,0.7,0.7v0.1c-0.4,0.1-0.7,0.2-1.1,0.4c0.1,0.6,0.2,1.2,0.6,1.7c-0.2,0.3-0.5,0.4-0.9,0.5c0,0.7,0,1.5,0.2,1.9
			v0.2c-0.5-0.5-0.9-0.9-1.4-1.4c0.2-0.3,0.3-0.3,0.6-0.4c0.1-0.2,0.1-0.5,0.2-0.7c0-1.4-0.6-1.4-1.4-2c-0.1-0.1-0.1-0.7,0.1-0.9
			c-0.1-1.1-0.9-1.3-1.5-1.8c-0.6,0-0.8,0.2-1.3,0.2c0,0-0.1,0.1-0.1,0.1c0,1,0.6,2.1,1.4,2.4v0.5h-0.1c-0.4-1.1-1.8-1.5-2.5-2.4
			c-0.5-0.6-0.9-1.5-1.4-2.1c-0.1,0-0.2-0.1-0.4-0.1c-0.4-0.4-0.9-1.1-1.2-1.5c-0.5-0.8-0.9-1.8-1.7-2.4c0.2-0.3,0.4-0.1,0.7-0.4
			c0.1-0.3,0.2-0.6,0.4-0.9c-0.4-0.4-1.1-0.9-1.4-1.3c-0.5,0-0.7,0-0.9,0.2c-1.3-0.3-2.3-3.2-2.9-4.4c0.1-0.3,0.1-0.3,0.2-0.5
			c1.3-0.3,2.3-0.8,3.8-1.1c0.3,0,0.6,0.1,0.8,0.1c0.4,0,1.1,0,1.9,0c0,0,0,0,0.1,0c0,0,0,0,0.1,0c1.5,0,3.2-0.1,3.6-0.4h1.1
			c-0.4,1.7,0.8,2,1.7,2.8c0.4-0.1,0.4-0.2,0.7-0.4c0-0.6,0-0.9,0.1-1.4c-0.5-0.3-0.8-0.8-1.4-0.9c0.6-0.9,2.7-0.4,3.8-0.4
			c1-0.5,1.7,0.1,3.2-0.2c0.9-0.2,2,0.3,3.2,0c1.4-0.3,3,0,4.6,0.2c0.3,0,0.5-0.2,0.9-0.1c1,0.2,5.1,1,5.4,0.8h0.4
			c-0.4,1.5-1.3,2.8-1.8,4.1c-0.3,0.8-0.4,1.7-0.9,2.1v0.2c-0.2-0.2-0.3-0.5-0.4-0.8c-0.3,0-0.5-0.2-0.7-0.2h-3.7
			c-1.5-0.3-3.2-0.4-4.7-0.1c-1.8,0.4-3.9-0.3-5.2-0.1c-1,0.1-3.9-1.1-4.7-0.6c-0.4,0.1-0.3,0.2-0.6,0.4c0,0.8,0.3,1.4,0.7,1.8v0.2
			c-0.3-0.1-0.3-0.1-0.6,0c-0.5,0.1-0.5,0.2-0.8,0.4c0,1.7,0.8,2.9,1.5,4c0.3,0.1,0.7,0.2,0.9,0.4c0.7-0.1,0.8-0.3,1.2-0.6
			c-0.1-0.4,0-0.3-0.2-0.5v-0.2c1,0.6,1.3,1.8,2.2,2.5L320.7,311.6L320.7,311.6z M321.3,309.1h-0.4c-0.1-0.2-0.2-0.5-0.2-0.7
			l-1.3-1.3c-0.4-0.7-0.6-1.2-1.1-1.8V305c0.9,0.2,2.4,0.3,3.5,0.5c0.5,0.1,1-0.3,1.4-0.1c0.8,0.3,2.5,0.3,3.1,0.2
			c1.4-0.2,3.1,0.4,4.1,0.2c1.3-0.3,2.5,0.8,3.7,0c0.4,0.2,0.5,0.8,0.8,1.1c-0.3,1.1-0.7,2.1-0.9,3.2c-0.5,2,0.5,5.3,1.1,6.5
			c0.2,0.5,0.9,1.1,1.2,1.5v0.7c0.1,0.2,0.4,0.9,0.6,1.2c0.5,0.9,1.7,1.6,2.1,2.4c0.4,0.7-0.3,0.4,0.5,1.2c1.7,0,0.9-1,1.8-1.4h0.6
			c0.1,0,0.3-0.4,0.5-0.5c-0.3-0.7-1.1-1-1.4-1.7v-0.7c-0.2-0.2-0.4-0.4-0.6-0.6c-0.2-0.5,0.1-0.5,0-0.9c-0.1-0.5-0.6-1-0.7-1.4
			c-0.2-0.7,0-1.3-0.1-1.8c-0.6-2.7,0.4-5.2,0.6-7.9c1.6-0.3,3.3,0.1,4.8,0.5c0.7,0.2,1.8,0,2.4,0.1c1,0.2,2.4,0.2,2.8-0.4h0.2
			c0,2.2,0,4.4-0.2,6.3c-0.1,0.8,0.4,1.7,0.2,2.2c-0.1,0.3-0.4,0.5-0.5,0.8c0.3,0.3,0.4,0.5,0.7,0.7c0,1.5-0.3,2.8-0.6,4
			c0,0.5,0.1,1,0.1,1.5c-0.2,0.5-0.6,1-0.7,1.7c-0.9,0-1.9-0.2-2.8,0.1c-0.6,0.2-1.1,0.8-1.5,1.2c-0.4,0.3-0.9,0.3-1.4,0.5
			c-0.6,0.2-1,0.8-1.5,1.1c-0.7,0.5-2.2,0.6-2.7,0.9c-0.3,0-0.4,0-0.6-0.1c0,0-0.1-0.1-0.1-0.1h0.1c-0.3-0.4-0.4-0.1-0.8-0.4
			c-0.2-0.1-1.1-1.2-1.3-1.4c-1.6-1.6-3-3.3-4.6-4.8c-0.4-0.4-1.4-1.9-2.5-1.2c-0.4-0.2-0.1-0.3-0.4-0.6c-0.2-0.3-0.7-0.4-0.9-0.7
			c-1-1.4-2-2.5-2.8-4c-0.3-0.3-0.6-0.6-0.8-0.8c0-0.2-0.1-0.4-0.1-0.6c-0.6-0.9-1.6-1.6-2.2-2.5
			C321.8,310.1,321.8,309.5,321.3,309.1z M322.2,313.7h0.2c0,0,0.1,0.1,0.1,0.1c-0.2,0.3,0,0.1-0.4,0.2L322.2,313.7L322.2,313.7z
			 M322.6,319.8c-0.1-0.4,0-0.8-0.1-1.1c0.3,0.1,0.3,0.2,0.6,0.4c0,0.3,0.1,0.3,0.1,0.5c-0.1,0-0.2,0.1-0.4,0.1
			C322.7,319.7,322.8,319.7,322.6,319.8z M341.7,348.1c-0.9-0.4-1.5-1.2-2.2-1.8c-1.5-1.1-3.8-3.3-4.8-4.8v-0.4h-0.2
			c-0.4-0.4-1-1.1-1.3-1.5c-0.2-0.3,0.1-0.9-0.1-1.3c-0.4-0.4-0.9-0.8-1.3-1.2c-1-1.4-2.6-2.7-4-3.7c-0.5-0.3-1-0.2-1.5-0.5
			c-1-0.5-1.8-1.8-3.2-1.9v-0.4c0.9-0.5,1.5-1.5,2.1-2.2l0.6-0.4c0.7-0.7,1.4-1.4,2-2.2c0.2-0.2,0.5-0.3,0.7-0.5
			c0.6-0.6,1-1.7,1.4-2.4c0.5,0,0.6,0,0.8-0.2c0.7,0.3,1,1.1,1.5,1.5c1,0.8,1.7,1.3,2.4,2.5c0.4,0.3,0.7,0.6,1.1,0.8
			c0.4,0.6,0.6,1.3,1.2,1.7c0.9,0.6,1.6,0,2.2,0.1c2.2,0.5,3.3-0.7,4.8-1.4c0.5-0.3,1.8-0.4,2.2-0.7c0.2-0.1,0.1-0.5,0.4-0.6
			c0.4-0.2,0.8-0.2,1.2-0.5c0.4,0,0.6,0,0.8,0.1c-0.3,1.4-1.2,4.2-2.2,4.8c-0.3,0.4-2.1-0.1-2.6-0.7c-0.5,0-0.7,0-0.9,0.2
			c-0.1,0-0.2,0.1-0.4,0.1c0,0.3-0.1,0.6-0.1,0.8c1.4,1.3,4.3,2.4,6.7,1.9c0.8-0.2,1.5,0.2,2.4-0.1c0.4-0.2,1.1-0.7,1.5-0.8
			c0.4,0,0.7-0.1,1.1-0.1c0.9-0.5,1.6-1.5,2.6-1.9c0.1-0.1,0,0,0.2-0.1c0.2,0.2,0.6,0.3,0.7,0.5c0.2,0.2,0.1,0.4,0.4,0.6
			c0.3,5.3-2.3,5.9-6.5,7.3c-0.5,0.2-1-0.3-1.2-0.2c-0.1,0.1-0.1,0.4-0.2,0.5c-0.5,0.2-1.2,0-1.7,0.2c-0.7,0.1-0.7,0.3-1.1,0.7
			c0,0.3,0.1,0.6,0.1,0.8c0.4,0.2,0.8,0.4,1.2,0.5c0.9,0.2,5.4-1.1,5.5-1.3h0.5c-0.2,0.9-0.8,1-1.3,1.5c-3.4,4-9.8,1.6-13.7,0.2
			c-0.3,0.3-1,0.7-0.6,1.3c0.6,1.2,2.5,1.3,3.7,1.8c2,0.8,6.5,1.4,9.1,0.5c0.5-0.2,1-0.5,1.4-0.7c0,0.1,0.1,0.2,0.1,0.4
			c0.1,0.2,0.1,0.6-0.1,0.8c-0.1,1.1-1.2,1.6-1.9,2.1c-0.7,0.5-1.5,1.2-2.4,1.4c-0.3,0.1-0.8-0.1-0.9-0.1c-0.3,0-0.6,0.1-0.8,0.1
			c-1.4-0.2-3-0.7-4.1-1.2C342.5,348.2,342.1,348.1,341.7,348.1z M364.8,363.2c-1.2,0.2-2.4-0.2-3.8-0.6c-0.9-0.1-1.8-0.2-2.7-0.2
			c-2-0.5-4.1-0.9-6-0.8c-1.1,0-3.1-0.8-3.8-0.1h-0.2c0.3-1.5,0.5-5.3,1.4-6.5v-0.2c1.6-0.1,3.4,0.2,4.8,0.6c0.7,0.2,1-0.2,1.7-0.1
			c0.6,0.1,1.5,0.4,2.1,0.6c0.5,0.1,1.2-0.2,1.5-0.1c1,0.2,2.5,0.2,3.7,0.5c2.1,0.5,3.9,0.7,5.8,1.1c0.6,0.1,1.6-0.1,2.4,0.2
			c0.8,0.3,2.1,0.9,3.1,1.1c0.3,0.1,0.5-0.2,0.9,0c0.8,0.3,2.1,0.9,2.7,1.4c0.4,0.3,0.4,0.7,0.9,0.9c0,0.5,0,0.7,0.2,0.9
			c0,0.2,0,0.2-0.1,0.4c-0.7,0.5-1.8,0.4-2.7,0.7c-2,0.7-4.4,0.8-6.7,1.3c-0.6,0.1-2.2,0.4-2.8,0.2c-0.6-0.2-1.5-0.6-2.2-0.7v-0.4
			C364.9,363.3,364.9,363.2,364.8,363.2z M342.2,357.6c0.4-1.3,0.2-2.3,0.7-3.4c0.1-0.3,0.6-0.5,0.7-0.8c0-0.2-0.1-0.5-0.1-0.7
			c0.1-0.2,0.7-1.3,0.8-1.5c0,0,4,0.3,4.1,0.4h0.2c-0.4,1.9-0.9,3.7-1.5,5.4v0.7c-0.4,1.3-0.5,2.5-0.8,3.8v0.8
			c-0.3,0.8-0.9,1.7-0.9,2.7H345v0.5c-1.1,0.2-3.9-0.1-4.4-0.4c-0.2-0.5,0.1-3,0.4-3.7C341.4,360.3,341.8,358.9,342.2,357.6z
			 M300,356.7c1.6-1.2,5.1-1.5,7.7-2c1.5-0.3,3.6-0.4,5.3-0.7c1-0.2,1.8,0.3,3.1,0c1.7-0.4,4.9-0.6,6.4-0.4c0.5,0,1-0.1,1.5-0.1
			c2,0,3.7-0.3,5.4,0h4.1c0.5,0.1,2-0.2,2.8,0l4.7,0.4c-0.2,1.1-0.5,2.2-0.7,3.3v0.2h-0.5c0.2,1-0.2,2.1-0.7,3.3
			c-1.4,0-2.3-0.3-3.7-0.5c-0.7-0.1-1.6,0.1-2.6,0.1c-1.1-0.1-2.2-0.2-3.3-0.2c-1.6,0.3-2.8,0.4-4.5,0.6c-0.4,0-1.5-0.3-1.7-0.2
			c-4.4,0.4-8.2,3-12.4,1.5h-1.3c-0.4-0.1-1.2-0.3-1.7-0.4h-2c-1.5-0.5-3.6-0.8-5-1.3c-1.2-0.5-2.1-0.3-2.5-1.7
			C298.5,358.1,299.5,357.1,300,356.7z M383.6,384.1c0.3-0.2,0.4-0.6,0.6-0.8c0,0,0.3,0.2,0.5,0.1c0.1-0.1,0.2-0.2,0.4-0.4
			c1.1-0.4,3,0.5,3.7,0.9c0.4,0.3,0.5,0.7,0.8,1.2c1.7,2.5,1.4,4.7,0.5,7.7c-0.5,1.5-0.5,3.1-1.7,3.9c-1.7,1.2-3.4,0.1-5.5,0.1
			c-0.2,0.2-0.4,0.3-0.6,0.5c-0.5,0.7-0.1,2-0.4,2.9c-0.2,0.5-0.4,1.5-0.2,2.4c0,0.2,0.2,0.3,0.1,0.6c-0.3,1.3-0.2,2.9,0.2,3.8
			c-0.1,0.3-0.2,1.2-0.1,1.5c0.4,1.1,0.6,5.4,0,6.4c-0.4,0.2-0.8,0.1-1.3,0.2c-0.8,0.3-1.9,0.7-2.8,0.9c-0.5,0-1,0.1-1.5,0.1
			c-3.4,1-7,1.5-10.3,2.6c-0.2,0-0.3-0.4-0.7-0.2c-1.3,0.4-3.2,0.9-4.6,1.3c-1.8,0.5-3.8,0.6-5.4,1.1h-1.1c-0.7,0.2-1.6,0.3-2.6,0.5
			c-0.7,0.2-1.3-0.1-1.8,0c-2.6,0.6-6.2,1-8.3,0.7c-0.4-0.1-1.5,0.2-1.9,0.2c-0.3,0-0.2-0.2-0.4-0.2c-0.4,0-0.7,0.1-1.1,0.1
			c-1.1-0.2-2.3-0.1-3.3-0.4h-3.1c-0.7-0.2-1.9-0.2-2.6-0.4c-0.4,0-0.7,0.1-1.1,0.1c-1.4-0.4-3.4-0.6-4.8-0.9
			c-1.6-0.4-2.7,0.2-4.1-0.2c-0.5-0.1-1.4-0.4-1.9-0.6c-0.9-0.1-1.7-0.2-2.6-0.4c-1.7-0.5-3.5-1.2-5.2-1.8c-1.7-0.5-3.4-0.6-5-1.2
			c-2.8-1.1-4.6-3.1-7.2-4.2c-0.2-1.3-0.4-2.5-0.2-3.5c0-0.3,0.3-0.8,0.2-1.2c-0.5-2.1-0.3-5.8-0.5-7.8c0-0.5,0.3-1.6,0.4-2.1
			c0-0.3-0.1-0.6-0.1-0.8c0-1.2,0.1-1.8-0.1-2.8c0-0.4,0.1-0.9,0.1-1.3c-0.1-0.2-0.4-0.5-0.5-0.7c-0.4-0.1-0.7-0.3-1.2-0.2
			c-0.5,0.1-1.3,0.4-1.8,0.2c-2.3-0.7-4.9-0.8-5.9-2.8c-0.1-0.7-0.2-1.3-0.4-2c0-0.2,0.1-0.4,0.1-0.6c-1.4-5.4,4.4-7.9,8.4-6v0.1
			c-0.5-0.1-2.2-0.8-2.8-0.5c0,0.1-0.1,0.2-0.1,0.4c-0.5,0.1-0.9,0.2-1.4,0.4c-0.7,0.4-2.9,2.8-3.2,3.5c-0.3,0.6,0.2,2.5,0.4,3.1
			c0.7,1.8,1.8,2.8,4,2.7h1.5c0.3-0.1,0.8-0.4,1.1-0.5c0.4-0.1,0.5,0.4,0.9,0.1c0.9-0.3,1-1.7,0.7-2.9c-0.3-1.7,1.2-5.1-0.6-5.8V381
			c0.5,0.1,1,0.2,1.4-0.1c0.1-0.1,0.2-0.2,0.4-0.2c-0.1-1.6-0.2-3.6,0.2-5.7c0-0.7-0.1-1.3-0.1-2c0.1-2.1,0-3.6,0.4-5.8
			c0-0.3-0.1-0.6-0.1-0.8c-0.1-1.4-0.4-3.6,0-4.7c2.7,1.1,5.5,1.3,8.6,2c1.8,0.4,2.8,0,4.5,0.4c1.6,0.4,4.7,1.2,6.4,1.2
			c1.2,0,2.3-0.1,3.8,0.2c1.3,0.3,2.5-0.3,4.1,0.1c1.3,0.3,2.7,0.6,4,0.9h3.3c0.9,0.2,2,0.5,2.8,0.7c0.6,0,1.3-0.1,1.9-0.1
			c0.3,0.1,1.4,0.4,1.8,0.2c0-0.1,0.1-0.2,0.1-0.4c0.4,0.3,1.1,0,1.7,0.1c1.4,0.3,3.1,0.6,4.6,0.7c0.9,0.1,2.2-0.4,3.2-0.2
			c4.3,0.7,10.4,0.2,14.4-0.9c0.6-0.2,1.9,0.3,2.8,0c1.2-0.3,3.3-0.3,4.7-0.6c0.2,0,0.4,0.1,0.6,0.1c2.4-0.4,5.7-1.3,8-1.9
			c0.4,0.8,0.5,1.9-0.2,2.4c0,1.3,0.4,1.1,0.7,1.8c0.2,0.5-0.2,1.1-0.2,1.3c0.1,0.6,0.2,1.1,0.2,1.7c-0.1,0.2-0.3,0.6-0.2,0.9
			c0.1,0.5,0.6,1.1,0.5,1.8c0,0.3-0.4,2.8-0.4,2.8c0.3,1.1,0.4,2.1,0,3.2c-0.3,0.8,0.3,2.5-0.2,3.3c0,1.3,0.3,1.2,0.9,1.8
			C381.7,385,382.9,384.5,383.6,384.1z M295.1,387.4c0,0.3-0.1,0.4-0.1,0.6c-0.6,0.1-2.2,0.6-2.7,0.2c-1.1,0-1-0.4-1.5-0.8
			c-0.1-0.8-0.5-1.4-0.4-2c0.2-0.9,1.6-2.4,2.5-2.6c0.1-0.1,0.5-0.2,0.6-0.2c0.5,0,0.7,0,0.9,0.2c0.4,0.2,0.5,0.5,0.8,0.7
			C295.2,384.6,295.3,387,295.1,387.4z M415.7,321.7v1.9c0,1.4,0.1,2.8,0.1,4.2c0.2,0.7,0.3,2.1,0.2,2.6v2.7
			c-0.2,1.1-0.4,5.1-0.1,6.8c0.2,1.3-0.6,2.3,0.1,2.9c-0.6,2.1-0.4,4.9-0.6,7.2c0,0.7,0.3,1.6,0.1,2.4c-0.2,1.1-0.5,4.1-0.2,5.7
			c0.1,0.8-0.1,1.7-0.2,2.4c0.1,0.7,0.2,1.3,0.2,2c0,0.9-0.6,1.2,0,1.9v2.4c-0.4,0.1-2.7,0.2-3.2,0.1c-0.3-0.1-1.1-0.3-1.5-0.1
			c-1.2,0.4-4.3-0.1-5.7-0.2c-1-0.1-2.8,0.1-4.2,0c-1.6-0.1-4.1-0.1-6.1-0.4c-0.6-0.1-1.4,0.2-1.8,0.1c-1.3-0.2-2.3,0.1-3.2,0.2
			c-0.5,0.1-0.3-0.3-0.8-0.2c-1.4,0.2-2.3,0.3-3.7,0.4c-1,0.1-2.2-0.4-2.9,0H382c0-1,0-2.7-0.5-3.5c0-0.3,0.4-0.5,0.5-0.7
			c0.3-0.8-1.1-3.1-1.4-3.4c-1.5-1.4-4.9-2.3-7.1-3.1c-0.6-0.1-1.3-0.2-1.9-0.2c-3.2-0.9-6.3-1-9.6-1.8H360
			c-1.4-0.4-3.4-0.5-4.8-0.8h-0.9c0-0.1-0.1-0.2-0.1-0.4c-0.5,0-1,0.1-1.5,0.1c-0.7-0.2-1.3-0.5-2.1-0.5c0.2-0.5,0.3-1-0.2-1.3
			c0.6-0.5,2.3-0.9,2.9-1.4c0.9-0.7,1.3-2.1,2.4-2.7c0-0.4,0.1-2.4,0.1-2.5c-0.1-0.4-0.7-0.8-0.8-1.3c0.7-0.7,1.4-1.4,2.1-2.1v-0.7
			h0.4c0-0.3,0-0.3,0.1-0.5c0.2-0.3,0.2-0.3,0.6-0.4v-0.4c-0.2,0-0.5-0.1-0.7-0.1c0.2-0.3,0.4-0.4,0.8-0.5v-0.6
			c0.8-0.2,1-1.4,1.2-1.8c0.2-0.5,0.8-1.3,0.9-1.9c0.1-0.3-0.1-1-0.2-1.2c0-0.3,0.3-1.1,0.1-1.7c-0.2-0.5-1.4-2.3-1.8-2.6
			c0.2-0.3,0-0.1,0.4-0.2c0.1-1.5,1.7-3.5,1.4-4.8c0.2-0.1,0.5-0.2,0.7-0.4c0.2-0.1-0.4-0.4-0.2-0.9c0.2-0.6,0.8-1.8,1.1-2.4
			c-0.1-0.3,0.3-2,0.5-2.6c0.1-0.1,0.2-0.2,0.4-0.4c0.1-0.3-0.4-0.7-0.4-0.9c0.2-0.1,0.3-0.2,0.5-0.2c0.5-1,0.3-2.5,0.7-3.7
			c0.6-1.8,1.1-4.1,1.5-5.7c0.5-1.7,0.6-4,1.7-5.2c0.1,0,2.9,0.6,3.4,0.7c0.3,0.1,0.5-0.1,0.6-0.1c0.1,0,0.6,0.3,0.8,0.4
			c0.2,0,0.5-0.1,0.7-0.1c1.5,0.7,3,0.6,4.7,1.1c0.4,0.1,0.6-0.2,0.8-0.2c0.4,0,1.4,0.2,1.8,0.2c0.9,0.2,2.7-0.3,3.3-0.1
			c0.1,0,0.5,0.4,0.7,0.5c0.4,0.1,2.8,0.2,3.1,0.1c0.9-0.2,4-0.6,4.8-0.5c0.8,0.1,2.7,0,3.8-0.2c1.5,0,2.9-0.1,4.4-0.1
			c0.8-0.2,1.8-0.4,2.6-0.6h1.5c1.2-0.3,2.8-0.3,3.9-0.6c0.4,0,0.9-0.1,1.3-0.1c0-0.1,0.1-0.2,0.1-0.4h1.3c0.9-0.2,2.2-0.6,3.1-0.8
			c0.9-0.3,1.8,0,2.5-0.5c0.5,0.1,0.5,0.2,0.8,0.4c-0.7,6,0.8,11.8-0.6,17.8C415.6,319.5,415.9,320.6,415.7,321.7z M423.9,366.7
			c-1.6,0-5.9,0.3-6.4-0.1c0,0-0.3-1.6-0.2-1.8c0-0.1,0.2-0.4,0.1-0.7c-1.1-2.9,0.4-8.1-0.2-11.6c-0.1-0.8,0-2.2,0.2-3.2
			c0.1-0.5-0.4-1.5-0.4-1.7c0.4-1.3,0.5-3.5,0.4-5.3c-0.1-1.3,0.6-2.9,0.2-4.5c-0.2-0.7-0.4-3.1-0.1-4.2c0.2-0.8,0.4-2.2,0.2-3.2
			c-0.6-3.2-0.8-9.9,0-13.2c0.3-1.2,0-3.8,0.2-5c0.1-0.6-0.1-1.9-0.1-2.1v-2.6c-0.3-1.1-0.1-4.1,0.1-5.3c0.1-0.6-0.3-2,0-2.5
			c0.2-1,3.4-1.5,4.4-1.9c0.3-0.1,0.7-0.5,1.1-0.6c0.2,0,0.4,0.1,0.6,0.1c0.1-0.2,0.2-0.3,0.4-0.5c0.4-0.2,0.8-0.1,1.2-0.4
			c0.1-0.2,0.2-0.3,0.4-0.5c1.3-0.7,2.7-0.9,3.9-1.7c0.9-0.5,2.3-1.6,3.4-1.8c0,0.6-0.2,1.9,0.1,2.5c0.2,0.5,0.6,0.2,0.9,0.6
			c0,0.2,0.1,0.5,0.1,0.7c0.1,0.1,0.4,0.2,0.5,0.4c0.8,0.1,1.9,0.3,2.9,0c0.9-0.3,1.7-0.8,2.9-0.5c1,0.3,2.1,0.7,3.1,0.9
			c0.6,0,1.2,0.1,1.8,0.1c1.6,0.4,3.2,0.5,4.8,0.9c2.1,0.6,5.3,1.6,7.4,1.4c1.1-0.1,2.3,0.4,3.3,0.5c0.4-0.1,0.9-0.2,1.3-0.2
			c0.6,0.1,1.8,0.4,2.6,0.1c0.6-0.2,1.1-1,1.7-1.4v-0.4c1-0.2,2-2.5,2.7-3.3c0.1,0.2,0.1,0.2,0.1,0.5c0.5,0.2,1.5,0.7,2,0.1
			c0.2,0.1,0.8,0.9,0.9,1.1c1.2,0,1.1-0.6,2.1-0.7c-0.1,0.7-1.1,2.7-1.5,3.2v0.1c-0.3-0.1-0.7-0.5-0.9-0.7c-0.8,0-1.2-0.1-1.3,0.6
			c-0.2-0.1-0.4-1.4-0.4-1.7c-0.3-0.1-0.5-0.2-0.7-0.5c-0.3,0-0.3,0-0.5,0.1c-0.8,0-0.8,0.3-1.2,0.7c0.1,0.8,0.1,1.6,0.9,1.9
			c0.2,0.1,1.3-0.1,1.4-0.5c0.2,0.2,0.3,0.6,0.5,0.8c0.6,0.1,1,0.2,1.4-0.1h0.2c-0.2,1.2-1.3,2.2-1.9,3.1c-1.6,2.3-2.4,3.6-6,3.3
			c-1.3-0.1-3.3,0.3-3.9-0.4c-0.2-0.1-0.1,0-0.2-0.1c0.4-0.2,0.7-0.4,1.1-0.6c0-0.3,0-0.3-0.1-0.5c0-0.7-0.2-0.7-0.5-1.1
			c-1,0-1,0-1.7,0.4c0,0.9,0.3,1.3,0.8,1.7v0.2c-2.4-0.5-4.5,0.1-6.7-0.7c-0.9-0.3-2,0.2-2.7,0c-5.6-1.3-11.6-2-17-3.3
			c-0.8-0.2-1.5,0.1-2.1,0c-0.2,0.3-0.5,0.4-0.8,0.6c0,0.4,0,0.7,0.1,0.9v0.2c0.5,0,1.5,0,1.8,0.1h0.7c-0.6,1-0.4,2.5-0.1,3.9
			c0.1,0.7-0.2,1.2-0.1,1.7c0.3,1.5,0.4,3.8,0.1,5.2c-0.3,1.4,0.3,3.4,0.2,5.2c0,0.1-0.2,0.3-0.2,0.4c-0.1,0.4,0,1.8,0,2.2
			c0,0.2-0.1,0.9,0,1.3c0.1,0.1,0.2,0.2,0.2,0.2c-0.1,0.5-0.5,1.8-0.4,2.5c0.1,0.3,0.2,1,0.1,1.5c-0.6,2.7,0,6.4-0.1,10.1
			c0,1.1-0.4,2.9-0.2,3.8c0.1,0.6,0.3,1.9,0.1,2.7c-0.4,1.6-0.3,4-0.2,5.5c-0.5,0.2-0.6,0.6-1.1,0.9c0,0.8,0.3,1.1,0.4,1.9
			c-4.9,0.3-7.6,3-9,7.3c-0.5,1.4-0.3,4.8,0.8,5.9C424,366.5,424,366.5,423.9,366.7z M434.1,303.8c-0.2,0.3,0,0.2-0.5,0.2v-0.2
			H434.1z M443.3,412.7c0.3,0.1,0.4,0.2,0.6,0.5c0.8,0,1.3,0,1.7-0.5h0.1c0,0.9-0.1,1.2-0.1,2.1c-0.5,0-1.1-0.3-1.5,0
			c-0.5,0.2-0.4,0.6-0.7,0.9c0,1.2,1.1,1.6,2.4,1.5c0.1,0.2,0,0.1,0.1,0.2c-0.2,0.9-2.3,1.6-3.4,1.8c-2.8,0.5-7.8-0.1-9.9-1.3
			c-0.2-0.1-0.4-0.4-0.7-0.6c0-0.3-0.1-0.6-0.1-0.8c0.3,0,0.4-0.1,0.6-0.1c0-0.3-0.1-0.4-0.1-0.6h-0.5c0-0.6,0.2-1.8-0.1-2.2v-4.4
			c1.6,0.4,6.1,2.2,8,1.5c0.2-0.1,0.5-0.5,0.7-0.6c0.8-0.1,1.6-0.2,2.4-0.2c0.4-0.2,0.8-0.7,1.2-0.8c0.7-0.3,1.2-0.2,1.7-0.7h0.2
			c-0.1,0.6,0.1,1.1,0.1,2c-0.9-0.1-1.6-0.1-2.2,0.4c-0.1,0-0.2,0.1-0.4,0.1C443.2,411.6,443.2,412.2,443.3,412.7z M443.7,373.6
			c0.8,0.5,0.2,2,0.4,2.6c-0.4-0.1-1.1-0.6-1.5-0.2c-1.4,0-1.6,0.5-2.5,0.8c0.1,1.1,0.5,1.2,0.6,2.2c0.8,0,2-0.6,2.6-0.9h0.2
			c-0.4,0.9-0.7,2.3-1.4,3.1c-0.4,0.2-0.6-0.1-1.2,0c-0.4,0.1-0.9,0.3-1.3,0.5c-0.1,0.2,0,0.1-0.1,0.2c0,2,0.6,1.1,0.9,2.2
			c0.3,0.1,0.5,0.1,0.9,0.1v2.4c-0.3-0.1-0.5-0.1-0.9-0.1v0.4h-0.4c-0.1,0.5-0.2,1.1-0.2,1.4c1.2,0.7,1.5,1.3,2.4,2.4
			c-0.1,0.2,0,0.1-0.1,0.2c-0.3,0.2-0.6,0.4-1.2,0.4c0,0.8-0.1,1.1,0,1.8c0.6,0.2,1.3,0.4,1.9,0.6c0.1,0.5,0.3,1.5,0.6,1.9
			c-0.2,0.4-1,0.8-1.4,0.9c-0.1,0.2,0,0.1-0.1,0.2c0,1.6,0.9,1.3,1.7,2c0.6,0,0.8-0.1,0.9-0.6c0.6,0.3,0.9,1.6,0.9,2.4
			c-0.5-0.1-1.1-0.4-1.8-0.2c-0.4,0.1-0.6,0.3-1.2,0.4c0.1,0.5,0.2,1.6,0.5,1.9c0.2,0.4,0.4,0.4,0.6,0.7c0.8,0,1.5,0,2.1-0.1
			c-0.1,1.1-0.4,2.3-0.8,3.1c-0.6,0.1-0.7,0.2-1.4,0.1v0.8c-1.1,0.2-1.7,1-2.7,1.3c-2.9,0.9-8.1-0.4-9.8-1.8c-0.1-0.1,0.2-0.9,0-1.4
			c-0.1-0.3-0.5-0.5-0.6-0.7c-0.2-0.5,0.1-0.7,0-1.2c-0.1-0.1-0.2-0.2-0.2-0.2c-0.1-0.3,0.2-0.8,0.2-1.1v-1.2
			c0.3-1.1,0.7-2.7,1.3-3.7c0.5-0.8,1.4-1.4,1.8-2.2c0.5-1,0.7-2.6,0.9-3.7c0.3-1.5,0-3-0.2-4.1c-0.1-0.4,0.2-0.7,0.1-0.9
			c-0.2-0.7-0.8-1.6-1.1-2.2c-0.4-1.2-0.5-2.3-1.1-3.3c-0.4-0.7-1.2-1.4-1.5-2.1c-0.5-1-0.8-2.9-1.3-3.7c0-1.2,0.7-1.8,1.5-2.2
			c0.8-0.4,2.8,0.5,4,0.2c1.1-0.2,2.5,0.1,3.7-0.2c1.1-0.3,2.1-0.8,3.2-0.7c-0.1,0.8-1,1.2-1.7,1.5c0,0.3,0,0.3-0.1,0.5
			c0.1,0.6,0.3,0.6,0.5,1.1c0.9,0.1,1.4-0.1,2.6-0.1C443.2,374.2,443.6,374.1,443.7,373.6z M446.3,363.7v0.2c-1.2,0.1-2.9-0.7-4,0
			c-0.1,0-0.2,0.1-0.4,0.1c0,0.3-0.1,0.8-0.2,0.9c0.1,0.5,0.2,0.5,0.4,0.8c0.7,0.1,2.1,0.7,2.6,0.1h0.4c-0.1,0.4-0.2,0.7-0.4,1.1
			c-0.1,0-0.2-0.1-0.4-0.1c-0.1,0.2,0,0.2-0.1,0.4c-0.6,1.5-1.4,0.1-1.9-0.1c-0.7-0.3-1.4-0.2-2-0.6c-0.5,0.2-0.6,0.5-1.1,0.7
			c0.1,1,0.7,1.9,1.7,2c-0.3,0.7-1.1,0.5-1.9,0.8c-2.1,0.8-5.5,0.7-7.7,0c-3.2-1.1-5.9-4-6.5-7.3c-0.2-1,0.4-2.3,0.6-3.4h0.4
			c0.1-2.4,3.9-4.4,6-4.8c0.6-0.1,1.5,0.5,2.1,0.6c0.5,0.1,0.6-0.2,0.8-0.2c0.9-0.2,1.9,0.4,2.7,0.1c-0.2,0.4-0.7,0.8-1.1,1.1
			c0,1,0.3,1.1,0.7,1.7c1.9,0,2.2-1.3,3.4-2c0.1-0.1,0.7,0.4,1.1,0.5c-0.3,0.7-1.3,1.5-1.9,1.9c0.1,0.3,0.1,0.3,0,0.6
			c0.1,0.4,0.4,0.5,0.6,0.8h1.2c0.4-0.4,2.2-1.8,2.2-2.1c0.7,0.3,0.8,0.9,1.1,1.1c0.2,0.1,0.5,0,0.6,0.1c0,0,0.1,0.1,0.1,0.1h-0.1
			c-0.2,0.3-0.1,0.2-0.6,0.2v0.4h-0.4v0.4c-0.9,0.4-1.6,1-2.6,1.2c-0.1,0.4-0.3,0.6-0.1,0.9c0.1,0.9,0.6,0.8,1.2,1.2
			c1.2-0.4,2.3-1.6,3.9-1.3C446.7,362.1,446.8,363.1,446.3,363.7z M431.7,211.2c0-0.3,0-0.4-0.1-0.6c-0.2-0.5-0.4-0.7-0.9-0.8
			c-0.3,0.3-1.1,0.8-1.5,0.9c0.1,0.3,0.2,0.6,0,0.8v0.2C430.2,212,431,211.7,431.7,211.2z M430.8,215.7c-0.7-0.3-1.3-0.7-2.1-0.8
			c-0.6,0.9-0.2,1.7,0.6,2.5C430.5,217.3,430.4,216.6,430.8,215.7z M435.3,216.6c0,0,0.1,0.1,0.1,0.1c0.1-0.2,0.3-0.4,0.5-0.6
			c-0.1-0.4,0-0.3-0.2-0.5c-0.2,0.2-0.4,0.3-0.6,0.5C435.1,216.5,435,216.5,435.3,216.6z M434.4,219.7c0.3-0.2,0.3-0.4,0.5-0.7
			c0-1.2-0.2-1.1-0.8-1.7c-0.7,0.2-0.7,0.6-1.8,0.6c0.1,0.8,0.3,1.2,0.5,1.8C433.3,219.8,434,220.1,434.4,219.7z M417.4,221.2
			c0.9-0.1,0.9-0.6,1.3-1.1c0-0.4,0-0.5-0.2-0.7c-0.1-0.3-0.2-0.3-0.4-0.5h-0.6c-0.2,0.3-0.4,0.4-0.7,0.6c0,0.3,0,0.5-0.1,0.7
			C416.8,221.1,417,220.9,417.4,221.2z M411.7,222.9c1,0,1-0.5,1.8-0.6c0.1-0.6,0.2-1.2-0.1-1.7c-0.2-0.3-0.6-0.4-0.8-0.6
			c-0.5,0.5-0.7,0.8-1.4,1.1c-0.1,0.2-0.1,0.5-0.2,0.7C410.9,222.7,411.3,222.3,411.7,222.9z M440,221.1c0-0.2-0.1-0.4-0.1-0.6h-0.2
			c-0.3,0.5-0.4,0.3-0.1,0.8C439.8,221.3,439.8,221.2,440,221.1z M423.3,224.4c0.1-0.1,0-0.2,0.2-0.5v-0.2c0.2,0.1,0.6,0.1,0.8,0.2
			c0.6-0.1,0.6-0.3,1.1-0.5c0.1-0.3,0.2-0.5,0.1-0.7c-0.1-1.4-1.7-1.2-2.7-1.3c-0.1,0.1-0.2,0.2-0.2,0.2v0.9c-0.2,0-0.2,0-0.4,0.1
			c-0.2,0.1-0.1,0-0.2,0.1c-0.5,0.7,0.1,1.2,0.5,1.7C423,224.6,423,224.7,423.3,224.4z M428.6,223.4c-0.1,0.3-0.1,0.5,0,0.8
			c0.4-0.1,0.3-0.1,0.6-0.2c0-0.3-0.1-0.4-0.1-0.6H428.6z M413.2,225.5c0,0.8,0.2,0.8,0.5,1.2c1,0,1.6-1,1.8-1.9
			c-0.1-0.2-0.2-0.2-0.2-0.5c-0.8,0-0.9,0.1-1.2,0.6h-0.5C413.5,225.3,413.5,225.3,413.2,225.5z M418.9,228c0.5,0.2,1.3-0.3,1.7-0.6
			c0-1.6-2.2-2-3.5-2c-0.1,0.2-0.1,0.1-0.2,0.4C416.3,226.7,418,227.8,418.9,228z M421.6,228.7c0.1,0.1,0,0,0.2,0.1
			c0.2-0.2,0.7-0.5,0.9-0.7c0.1-0.9,0.5-1.5-0.2-2c-0.3,0.2-0.7,0.3-1.2,0.4c-0.2,0.4-0.3,0.7-0.5,1.1
			C420.9,228.1,421.1,228.4,421.6,228.7z M382.2,253.3c0.1,1.4,1.3,0.6,1.8,0.8c0.3,0.2,0.5,1,1.2,0.6c0.3-0.2,0.3-0.2,0.4-0.6
			c0.6,0.3,1.4,0.4,2.1-0.1c0.1-0.2,0.1-0.1,0-0.2c0.4-0.3,1-0.2,1.4-0.5c0.3-0.2,0.6-0.6,0.8-0.8c0.2-0.1,0.5-0.2,0.7-0.2
			c0.7-0.4,1.4-1,2-1.5c0-0.7-0.1-0.8-0.4-1.2c-0.1-0.1-0.4-0.1-0.5-0.2c-1.3,0.1-1,0.6-1.7,1.2c-0.9,0.7-2.2,1.4-3.2,2
			c-0.6,0.3-1.6,1-2.4,0.5c-0.7,0-1.3-0.3-1.4-0.9c-0.7-0.1-0.9-0.6-1.3-1.1c-0.9,0-0.8,0.3-1.2,0.8c0.2,0.6,0.7,0.8,0.9,1.4
			C381.8,253.3,382,253.3,382.2,253.3z M402.1,253h0.7c-0.2,0.3,0.1,0.1-0.2,0.2c0.1,0.4,0.1,0.3,0.2,0.6c0.2,0,0.4-0.1,0.6-0.1
			c0.2,0.3,0.5,0.5,0.7,0.8c0.3,0,0.4-0.1,0.5-0.2c0.5,0.4,1,0.8,1.8,0.2c0.1,0.2,0,0.1,0.1,0.2c0.2,0.2,0.8-0.1,0.9-0.4
			c0,0,0.1-0.1,0.1-0.1c0.2,0.3,1.3,0,1.8-0.2c1.4-0.7,2.7-1.9,3.8-2.9c0-0.4-0.1-0.7-0.1-1.1c-0.5-0.1-0.7-0.2-1.3-0.2
			c-0.9,0.9-2.5,1.5-2.9,2.8c-1.5,0.1-3.1,1.2-4.4,0.1c-0.7-0.3-1.1-1.2-1.3-2c-0.6-0.1-1.2-0.5-1.4,0.2c-0.1,0.2,0.2,1.4,0.4,1.9
			C402,252.9,402.1,252.9,402.1,253z M363.3,265.5c1.5,0,2-1.1,3.2-1.4c0.1-0.1,0,0,0.2-0.1c0.8,1.6,2.1,2.7,3.1,4
			c0.4,0.6,0.6,1.2,1.1,1.8c0.3,0.5,1,0.6,1.4,0.9c0.2,0.1,0.1,0.4,0.2,0.6c0.6,0.7,1.6,1,2.4,1.5c0.7,0.4,1.2,1.2,1.9,1.7
			c0.4,0.1,0.7,0.2,1.1,0.2c0.6,0.3,1.1,1.1,1.8,1.4c0.4,0.1,0.7,0.2,1.1,0.2c0.8,0.4,3.6,2.8,4.6,2c0.7,0.7,2.4,1,3.4,0.9
			c0.3,0,1.1,0.3,1.4,0.4c1.2,0.3,5,0,5.2-0.2c0.2-0.2,0.1,0.2,0.1,0.2c0.2,0,0.4-0.1,0.5-0.1c1.3-0.3,2.1,0.5,2.6-0.5
			c0.3,0.2,0.1,0,0.2,0.4c0.5,0,0.6,0,0.8-0.2c0.1,0.1,0.1,0.3,0.2,0.4l2.1-0.1c1.9-0.4,3.7-1.2,5.4-1.9c1-0.4,1.9-0.3,2.7-0.8
			c0.2-0.3,0.5-0.6,0.7-0.8c0.9-0.6,1.8-1.2,2.7-1.7c1.8-1,4.2-1.7,5.3-3.3h0.5c0.1-0.5,0.4-0.8,0.8-0.9c-0.1-0.4,0.1-0.2-0.2-0.4
			c0.1-0.1,0.1-0.1,0.4-0.1v0.4c0.6-0.2,1.2-0.6,1.5-1.1c0.9,0,2.1,1.2,2.2,2c0.7-0.2,1.3-0.6,1.3-1.5c-0.9-0.9-1.7-2.4-2.7-3.1
			c0-0.3-0.1-0.6-0.1-0.8c-0.6-0.1-1.2-0.6-1.5-0.9c-0.8,0-0.9,0.3-1.3,0.7c0,0.8,0.5,1.2,1.1,1.5c-0.1,1.2-1.5,1.6-2.2,2.1
			c-1.1,0.8-2.1,1.8-3.2,2.6c-0.8,0.6-1.7,0.8-2.6,1.3c-1.4,0.8-2.7,1.9-4,2.7c-0.7,0.4-1.6,0.3-2.4,0.6c-0.9,0.4-2.1,1-2.9,1.3
			c-1.3,0.2-2.7,0.3-4,0.5l-0.5-0.2c-0.5,0-1.3,0.5-2,0.4c-0.5-0.1-1.9-0.3-2.5-0.2c-2.5,0.5-5.5,0-7.6-0.6c-0.4,0-0.8-0.1-1.2-0.1
			c-1.7-0.7-3.4-1.4-5-2.4c-0.4-0.2-0.6-0.7-0.9-0.9v-0.1c-0.2,0-0.5,0.1-0.7,0.1v-0.1c-0.2-0.2-0.5-0.4-0.7-0.6h-0.6
			c-0.2-0.1-0.3-0.6-0.5-0.7c-0.5-0.4-1.2-0.6-1.8-0.9c-0.7-0.5-0.8-1-2-1.1c-0.5-1.4-1.7-2.1-2.5-3.2c-0.3-0.4-0.3-0.8-0.6-1.2
			c-0.2-0.3-0.9-0.7-1.1-0.9v-0.6c-0.1-0.2-0.4-0.7-0.6-0.8c0.2-1.2,1.5-2,2.4-2.6c-0.1-0.7-0.5-0.8-0.8-1.2
			c-1.7,0.2-2.4,1.6-3.5,2.4c-1.3,0.9-2.9,1.4-4.1,2.4C362.7,265.1,362.9,265.1,363.3,265.5z M408.1,276.6h0.2
			c-0.1,0.2,0,0.1-0.1,0.2v0.2h-0.1L408.1,276.6L408.1,276.6z M401.3,278.6h0.1v0.2h-0.1V278.6z M392.5,263.5
			c-0.1,0.3-0.2,0.6-0.4,0.8c0.2,0.9,0.7,0.7,1.4,1.1c1.9,1.1,3.9-0.1,5.7-1.1c0.1-0.4,0.1-1,0.2-1.2c-0.2-0.4-0.8-0.5-1.4-0.5
			c-0.7,0.6-1.8,1-2.4,1.7c-1.4,0-2.1-0.2-2.8-1.1h-0.8C392.2,263.5,392.1,263.4,392.5,263.5z M395.8,270.9c0.1,0.5-0.3,1-0.1,1.8
			c0.3,1,1.3,2.2,2.4,2.5c0.5,0.3,3.4-0.1,4-0.2c1.1-0.3,2.2-0.2,3.2-0.7c0.1-0.1,0.1-0.4,0.2-0.5c0.4-0.3,0.9-0.1,1.3-0.4
			c0.2-0.2,0.4-0.5,0.6-0.7c0.9-0.6,2-1,2.6-1.9c0.1-0.2,0.2-0.5,0.2-0.7c0.1-0.2,0.3,0,0.5-0.1c0.4-0.2,1.8-2.3,1.7-2.6
			c0-0.8-0.3-0.9-0.9-1.1c-0.5,0.4-1.1,0.4-1.8,0.7c-0.3,0.2-0.7,0.7-1.1,0.8c-0.8,0-1.6,0.1-2.4,0.1c-1.1,0.3-2.8,0.4-3.7,0.5
			c-1,0.1-2.7-0.4-3.7,0C397.6,268.9,396.9,270.4,395.8,270.9z M384.8,274.1c0.6,0.3,1.1,1,1.8,1.2c0.6,0.2,3.7,0.5,4.1,0.2
			c1.3,0,3.5-1.4,3.9-2.1c0.3-0.5,0.2-1.1,0.6-1.5c-0.1-1.7-1.4-2-2.1-2.9c-0.7,0-2-0.3-2.8-0.1c-0.5,0.1-1.3,0.4-1.8,0.5
			c-0.5,0.1-1.1-0.1-1.4-0.1c-0.2,0-0.3,0.2-0.6,0.1c-1.8-0.3-3.4-0.6-5.3-0.6c-0.3,0.2-0.9,0.1-1.2,0.4h-0.2
			C379.9,271.2,383.1,273.2,384.8,274.1z M404.8,280.7c-0.3-0.3-1.1,0.2-1.9,0c-1-0.2-2.7,0-4,0.1c-0.6,0-1.7,0.1-2.4,0.1
			c-0.3,0-0.6-0.1-0.8-0.1c-0.9,0.2-2.6,0.5-3.7,0.2c-1.1-0.3-2.2-0.4-3.5-0.4c-1.4,0-4.1-0.6-4.8-0.1c-0.1,0-0.2,0.1-0.4,0.1
			c0,0.4-0.1,0.8-0.1,1.2h0.4c-0.3,3,2.6,9.1,4.4,10.6c0.6,0.5,1.4,0.6,2.1,0.9c1.1,0.5,2.9,1.6,4.6,1.1c2.5-0.7,3.8-2.3,5.2-4.1
			c0.6-0.8,1.5-1.4,2-2.2c0.4-0.6,0.5-1.5,0.8-2.1c0.3-0.5,1-0.9,1.3-1.4c0.2-0.4,0.2-0.8,0.5-1.2c0.4-0.5,0.8-0.7,1.1-1.4
			c-0.1-0.4-0.2-0.7-0.2-1.1C405.1,280.9,405,280.8,404.8,280.7z M327.3,299.7h0.1c0.1-0.2-0.1-0.2-0.1-0.2c0-0.7-0.2-0.7-0.4-1.2
			c-0.3,0-0.6-0.1-0.9-0.1c-0.1,0.1-0.4,0.2-0.5,0.2c-0.5,0.2-0.3,0.6-0.6,1.1C325.2,300.3,326.9,300.9,327.3,299.7z M441.9,300.2
			c0.8,0,0.7-0.3,1.2-0.6c0-0.5-0.1-0.7-0.2-1.1c-0.4-0.1-0.6-0.2-1.2-0.2c-0.1,0.1-0.4,0.3-0.6,0.4c0,0.3,0.1,0.7,0.2,0.9
			C441.4,300,441.6,299.9,441.9,300.2z M310.1,298.9c0,0.6,0.1,0.9,0.2,1.3c0.3,0.1,0.4,0.1,0.6,0.2c0.8-0.1,0.8-0.4,1.3-0.7
			c0-0.8-0.5-1-1-1.3c0,0-0.1,0-0.1,0c-0.1,0.1-0.3,0.1-0.5,0.1C310.4,298.7,310.2,298.8,310.1,298.9z M348.2,301.1
			c0,0,0.1,0.1,0.1,0.1v-0.1c0.8,0,0.8-0.3,1.2-0.6c0-0.4,0-0.8-0.2-1.1c-0.4-0.7-0.8-0.3-1.1-0.5c-0.2-0.1-0.1-0.3-0.4-0.5
			c-0.4,0.6-1.1,0.9-0.8,1.8C346.9,300.4,347.9,301,348.2,301.1z M451.2,302.2c0.6-0.1,0.6-0.2,1.1-0.4c0.1-0.3,0.2-0.4,0-0.7
			c0-0.7-0.2-0.7-0.5-1.1c-0.4-0.1-0.5-0.2-0.9-0.2c-0.1,0.1-0.5,0.2-0.6,0.2c-0.3,0.1-0.3,0.2-0.5,0.4c0,0.9,0.3,1,0.6,1.5
			C450.8,302,451,302,451.2,302.2z M468.3,301.5c0.7,0,0.9,0.1,1.2-0.4c0.1-0.2,0-0.3,0.1-0.5c0-0.2,0-0.2-0.1-0.4
			c-0.3-0.3-0.9-0.4-1.4-0.5c-0.1,0.1-0.3,0.2-0.4,0.2c-0.4,0.2-0.5,0.4-0.6,0.8c0.2,0.2,0.5,0.5,0.7,0.7
			C468.1,301.6,468.2,301.6,468.3,301.5z M462.4,302.4c0.5,0,0.8,0,1.1-0.2c0.1,0,0.2-0.1,0.4-0.1c0-1.1-0.4-1.4-1.2-1.7
			c-0.2,0.1-0.5,0.2-0.7,0.4c-0.2,0.2-0.3,0.3-0.5,0.5C461.5,302.1,461.9,302,462.4,302.4z M465.2,302.3c0.2,0.1,0.6,0,0.9,0.2
			c0.5-0.1,0.7-0.3,0.8-0.8c0.1-0.2,0-0.2,0.1-0.5c-0.5-0.3-0.9-0.6-1.9-0.6c-0.2,0.2-0.4,0.4-0.6,0.6c0,0.4-0.1,0.4,0.1,0.7
			C464.9,302.2,464.9,302.2,465.2,302.3z M320.3,302.9c1,0,1.1-0.1,1.5-0.6c0-0.8-0.3-0.8-0.6-1.3c-0.9,0-1.1,0.2-1.7,0.5
			c-0.1,0.5,0,0.7,0,1.3C319.9,302.8,320.2,302.8,320.3,302.9z M457.4,303.2c0.4,0,0.7,0,0.9-0.1c0.2-0.2,0.2-0.4,0.4-0.6
			c-0.1-0.4-0.4-0.5-0.6-0.8c-0.4,0-0.8-0.1-1.2-0.1c-0.1,0.1-0.1,0.1-0.4,0.1c-0.1,0.3-0.2,0.4-0.5,0.6c0,0.3,0,0.5,0.1,0.7
			C456.6,303.2,457.1,303.4,457.4,303.2z M445.6,302.7c-0.1-0.5-0.3-0.6-0.5-0.9h-0.8c-0.1,0.2-0.2,0.3-0.4,0.5
			c0,0.5,0.2,0.6,0.4,0.9C445.1,303.1,445.2,302.9,445.6,302.7z M313.5,304.5c0.1,0,0.2-0.1,0.4-0.1c0-0.4,0.2-0.8,0-1.1
			c-0.1-1-1.1-1.6-2.2-1.5c-0.7,1.1,0,2.4,1.1,2.7C312.9,304.7,313.3,304.7,313.5,304.5z M468.2,302.5c-0.1,0.2,0,0.1-0.1,0.2
			c0,0.8,0.2,0.7,0.5,1.1c0.6,0,1,0,1.3-0.2c0.3-0.2,0.3-0.3,0.5-0.6c-0.1-0.7-0.6-1-1.4-0.9C468.7,302.2,468.4,302.4,468.2,302.5z
			 M465.9,303.1c-0.1,0.3-0.7,0.6-0.9,0.7c0,1.3,0.5,1,1.3,1.4c0.6,0,0.7-0.1,1.1-0.2c0-0.3,0-0.4,0.1-0.6
			C467.4,303.5,466.7,303.3,465.9,303.1z M313.2,308.6c-0.2,0.2-0.2,0.1-0.2,0.5c-0.3,0.6,0.5,1.4,0.8,1.9c0.4,0.1,0.8,0.2,1.1,0.4
			c0.5-0.1,0.5-0.2,0.8-0.4c0.2-0.8,0-1.4-0.1-2.1C314.8,308.6,314.1,307.8,313.2,308.6z M407.1,319.4c1,1,3.7,1,4.7,0
			c0.4-0.4,0.5-1.2,0.9-1.7c0.1-2.8-1.8-3.7-4.1-4.1c-0.5,0.5-1.1,0.7-1.7,1.1c-0.4,0.3-0.4,0.9-0.9,1.1c0.2,0.6,0,1.3,0,2.1
			C406.4,318.3,406.6,319,407.1,319.4z M408,316.3c0.2-0.4,0.6-0.4,0.8-0.7c0.7,0.1,0.3,0.2,0.6,0.4h0.7c0.3,0.1,0.4,0.5,0.6,0.7
			c0.1,1-0.7,2.1-1.8,1.8C408.4,318.3,407.3,317.3,408,316.3z M349.4,315.9c0.1,0.1,0.1,0.1,0.4,0.1
			C349.6,315.9,349.6,315.9,349.4,315.9z M408.8,332.7c-0.6,0.5-1.6,0.7-2.4,1.1c-0.2,0.6-0.2,1.6-0.4,1.9c0,1.2,0.3,1.1,0.7,1.7
			c1.6,2,2.5,1.5,5,1.1c0.3-0.6,1.9-2,1.2-3.1C412.9,333.5,410.6,332.7,408.8,332.7z M410.6,336.8c-0.4,0.1-0.9,0.3-1.1,0.2
			c-0.9,0-1-0.5-1.4-0.9c0.1-0.8,0.6-0.9,1.1-1.3c0.8,0,1.1,0.1,1.7,0.4c0.1,0.2,0.1,0.2,0.1,0.5
			C411.1,335.9,410.8,336.4,410.6,336.8z M409.3,350.7c-0.3,0.2-0.8,0-1.2,0.1c-0.1,0.2-0.2,0.3-0.4,0.5c-0.4,0.3-1,0.4-1.4,0.7
			c-0.2,0.2,0.2,0.3,0.2,0.6c0.2,0.7-0.5,1.5-0.2,2.4c0.1,0.4,0.6,1.1,0.8,1.4c0.3,0.7,1,0.6,1.7,0.9c2.3-0.1,2.3-1.7,3.5-2.6
			C412,352.5,411.5,351.1,409.3,350.7z M409.5,355.2c-0.2,0.1-0.1,0-0.2,0.1c-1,0-1.1-1.1-0.8-1.7c0.1-0.7,0.3-0.6,0.6-0.9
			c0.2,0,0.2,0,0.4,0.1c0.4,0.2,0.4,0.5,0.7,0.8C410.1,354.4,409.8,354.7,409.5,355.2z M376.5,367.9c-1.2,0-3.4,0.7-4,1.2
			c-0.8,0.5-0.7,1.9-0.5,3.1c0.2,1.5,0.2,4.1-0.1,5.8c0.1,0.3,0.2,0.6,0.2,0.8c-0.1,0.6-0.3,1.7-0.1,2.5c0.2,0.8,0.1,2.4-0.1,3.7
			c-0.2,0.8,0.3,1.4,0.1,2.1c-0.1,0.5-0.3,1.7-0.2,2.1c0.4,2.8,0.1,6.2-0.4,8.8c-0.1,0.7,0.2,1.8,0.1,2.7c-0.1,0.8-0.2,1.8-0.4,2.6
			c-0.1,0.6,0.1,1.6,0,2.4c-0.4,2.2-0.2,4.1-0.5,5.9c-0.1,0.9,0.6,1.4,0.1,2c0,0.8,0.2,0.9,0.5,1.3c0.6,0,0.9,0.2,1.4,0
			c0.2-0.2,0.4-0.4,0.6-0.6c0.4-0.1,0.4,0.2,0.7,0c0.2-0.2,0.2-0.5,0.2-0.8c0.4,0,0.7-0.1,0.9-0.2c0.7,0,1.1-0.2,1.3-0.6
			c0.4-0.6-0.1-1.2,0-1.5c0.2-1.2,0.6-2.9,0.2-4.6c-0.3-1.4-0.3-4.2-0.1-5.1c0.1-0.5-0.2-1.5-0.1-2.1c0.1-0.4,0.3-1.5,0.1-2.1
			c-0.1-0.3-0.5-1.5-0.5-1.8c0.1-0.4,0.3-2,0.2-2.5c-0.1-0.5-0.5-2.4-0.4-3.3c0.2-1,0.5-1.8,0.5-2.9h0.5
			C376,381,378.1,374,376.5,367.9z M374.8,382.8c-0.1,0.6-0.2,2-0.2,2.9c0,0.5,0.2,0.9,0.1,1.1c-0.2,0.5-0.5,2.1-0.6,2.6
			c-0.4,3.1,0.7,6.9,0.4,9.6c0,0.9,0.1,1.7,0.1,2.6c-0.1,0.6-0.5,3-0.1,4.4c0.1,0.6,0.3,1.4,0.1,2c-0.2,1.1,0.2,2.3-0.4,3.1
			c-0.4,0.3-0.8,0-1.1,0.5c-0.9-1.7,0.5-7,0.2-9.8c-0.2-2.1,0.3-6.1,0.5-8.4c0-0.4-0.2-0.1-0.2-0.4v-6c0.2-1.5,0.3-4.1,0-6.1
			c-0.2-1.6,0.4-4.3,0.1-5.5c-0.1-0.6,0.2-1,0-1.4c0-0.9-0.1-2.2,0.1-2.9c0.4-0.1,0.4-0.2,0.8-0.2c0.2,2.8,0.4,5.4-0.1,8.5
			C374.5,380,375.1,381.6,374.8,382.8z M370.9,370.4c-0.1-0.5-0.2-0.6-0.4-0.9c-0.5-0.2-0.9-0.2-1.3-0.2c-0.7,0.8-1.9,1.2-2.9,1.7
			c-0.8,0.3-2.1,0.1-2.5,0.8c-0.5,0.8,0.4,1.4,0.4,2.2c-0.2,1.5,0,4.1-0.2,6.3c0,0.3,0.2,1,0.1,1.4c-0.2,1,0.1,2.3-0.1,3.5
			c-0.2,1.1-0.4,2.4-0.6,4c-0.1,1.5,0.1,3.3-0.2,4.7v2.6c0,1.7,0,3.3-0.4,5c-0.2,0.8,0.1,2,0.2,2.8c0.1,0.6-0.4,0.8-0.2,1.3
			c0.1,0.1,0.2,0.2,0.4,0.4c-0.1,0.1-0.2,0.2-0.2,0.2c0,0.2,0.2,0.5,0.2,0.6c0.2,1.2,0.2,4.1,0.1,5c-0.1,0.5,0.2,0.9-0.1,1.4
			c0.3,0.6,0.8,0.9,1.2,1.4c1,0.1,1.5,0.1,2.5,0.1v-0.4c0.8,0,1.1-0.1,1.7,0c0.2-0.2,0.4-0.3,0.6-0.5c0.2-0.9,0.1-2-0.1-2.7
			c0-1.3,0.1-2.6,0.1-3.9c-0.2-0.9,0-2.1,0-3.3c0-0.4-0.1-0.9-0.1-1.3c0.1-0.9-0.1-2.5,0.1-3.4c0.9-3.4,0.7-7.8,1.2-12
			c0.1-0.8-0.3-1.9-0.2-2.6c0.1-1.8,0-3.3,0.2-4.5c0.5-2.5,0.2-4.7,0.4-6.7C370.7,372.1,370.4,371.1,370.9,370.4z M368.2,380.9
			c-0.1,0.6,0.3,2.1,0.1,3.1c-0.1,0.5-0.3,2.1-0.2,2.8c0,0.3,0.3,1.3,0.2,1.7c-0.6,5.1-0.8,9-1.4,13.8c-0.1,0.5,0.2,0.8,0.1,1.3
			c-0.1,0.4-0.2,0.9-0.1,1.4c0,0.2,0.2,0.5,0.1,0.8c-0.2,1,0.1,2.4-0.1,3.5c-0.1,0.3,0.1,1.4-0.1,1.8c-0.1,0.3-0.3,0.5-0.4,1.1
			c-0.3,0.1-0.6,0.1-1.1,0.1c-0.2-2.3-0.1-4.1-0.6-6.6c-0.1-0.7,0.2-1.2,0.1-1.8c-0.3-1.7-0.3-4.5,0-6.4c0.2-0.9-0.2-1.4-0.1-2
			c0.2-1.1,0.2-2.6,0.4-3.7c0-0.3-0.2-0.5-0.1-0.9c0.2-1.1-0.1-2.5,0.2-3.8c0.6-2.4,0.8-6.9,0.5-8.5c-0.1-0.7,0.1-1.5,0.2-1.9
			c-0.3-1.3-0.2-2.8-0.4-3.9c0.8-0.4,1.9-0.5,2.6-1.1c0.3,0.2,0.5,1,0.5,1.5C368.4,375.6,368.8,378.3,368.2,380.9z M383.9,395.9
			c0.3,0,1.5,0.1,1.9-0.1c0.2-0.2,0.5-0.5,0.7-0.7c2-1.2,2-1.5,2.7-3.9c0.1-0.2,0.5-0.9,0.5-1.1c-0.1,0-0.2-0.1-0.4-0.1
			c-0.4-1,0.4-1.9-0.2-2.9c-0.7-1.2-3.6-2.3-4.8-2c-0.6,0.1-0.9,0.6-1.7,0.7v0.4c-0.6,0.3-1,0.5-1.4,0.8c-0.4,3.3-0.6,7,0.7,9.1
			C382.9,396.4,383.2,395.9,383.9,395.9z M383,388.6c0.1,0,0.2-0.1,0.4-0.1c0.2-0.2,0.5-0.8,0.6-1.1c1,0,1.1-0.1,2.1-0.1v0.4
			c0.2,0,0.2,0,0.4,0.1c0.4,0.1,0.4,0.3,0.7,0.5c0.1,1.6,0.3,3.6-0.9,4.6c-0.6,0.5-1.9,0.7-2.5,1.2c-0.3,0-0.5,0-0.6-0.1
			C382.9,393.6,382.7,389,383,388.6z M462.5,408.3c0.4-0.1,0.6-0.4,0.9-0.6c0-1-0.3-1.1-0.4-1.9c-0.5-0.3-0.8-0.5-1.4-0.7
			c-0.4,0.4-0.7,0.7-0.8,1.3c-0.3-0.1-0.3-0.1-0.5-0.4c-1,0-0.9,0.3-1.4,0.7c0,1.1,0.2,1.7,0.8,2.1c0.3,0.1,1,0,1.4,0
			c0.1-0.3,0.1-0.8,0.1-1.3C461.7,407.7,462.2,408,462.5,408.3z M469.3,408.7c0.4,0,0.6,0,0.8-0.1c0.1-0.3,0.3-0.6,0.1-0.8
			c0-1.4-0.7-1.4-1.4-2c-0.6,0-0.7,0.1-1.1,0.2c-0.1,0.5-0.3,1,0,1.4c0,0.7,0.2,0.7,0.5,1.1h0.5v0.4
			C469.1,408.8,469.2,408.8,469.3,408.7z M479.5,407.2c-0.1,0.3-0.3,0.4-0.6,0.6c0,0.7,0.3,1.2,0.1,1.8c0.4,0.3,0.9,0.9,1.2,1.3
			c0.8,0,1-0.4,1.3-0.9c0.1-0.1,0.1-0.9,0.1-1.3c-0.4-0.3-0.7-0.9-0.9-1.3C480.3,407.3,479.9,407.2,479.5,407.2z M460.4,411.1
			c0-0.2,0-0.2-0.1-0.4v-0.2c-0.5-0.1-1-0.3-1.3-0.1c-0.3,0.1-0.3,0.1-0.5,0.2c-0.1,2,0.3,1.7,1.1,2.9c0.6-0.1,0.8-0.3,1.2-0.5
			c0.2-0.7,0.1-1.1,0.1-2H460.4z M468.3,410.3c-0.2,0.3-0.4,0.5-0.6,0.7c0,0.3,0,0.3-0.1,0.5c0.1,1,1.1,1.4,1.7,2
			c0.6-0.1,0.9-0.2,1.3-0.5c0-0.7,0.1-1.6-0.2-2C470,410.4,469.2,410.2,468.3,410.3z M392.3,411.9c-0.2-0.1-0.3-0.2-0.5-0.4
			c-0.8,0-0.9,0.2-1.3,0.5c0,1.6,0.1,2,0.6,3.1c0.9,0,1.1-0.2,1.7-0.4c0.1-0.5,0.4-0.9,0.5-1.5C392.6,413,392.7,412.3,392.3,411.9z
			 M453.7,416.6c0.1-0.4,0.1-1,0.1-1.7c-0.3-0.3-0.6-0.6-0.8-0.9c-0.4-0.1-0.7-0.2-1.1-0.2c-0.2,0.3-0.4,0.3-0.5,0.7
			c-0.3,0.4,0,1.2,0,1.4c0.3,0.3,0.6,0.6,0.9,0.9c0.3,0,0.8-0.1,1.1-0.2L453.7,416.6L453.7,416.6z M407.2,416.2
			c-0.4,0.7-0.9,1.7-0.2,2.6c0,0.5,0.1,0.6,0.2,0.9c0.2,0.1,0.1,0,0.2,0.1c1,0,1.2-0.4,1.9-0.7c0-1.7-0.6-2-1.3-2.9H407.2z
			 M462.6,416.4H462c-0.2,0.2-0.5,0.4-0.7,0.6c0.1,1.3,0.5,1.6,1.1,2.4c0.4,0,0.6-0.1,0.8-0.2c0.6-0.3,0.2-0.8,0.5-1.2
			C463.6,417,463.1,417,462.6,416.4z M456.5,416.6h-0.7c-0.2,0.2-0.6,0.2-0.8,0.4c-0.1,0.1-0.1,0.4-0.2,0.5c0.1,0.4,0.2,0.9,0.4,1.2
			c0.2,0.4,0.5,0.5,0.7,0.8c0.4,0,0.7,0,0.9-0.1c0.4-0.2,0.6-1.2,0.2-1.8C456.9,416.9,456.7,417.1,456.5,416.6z M421.1,419.8
			c-0.2,0.2-0.4,0.3-0.6,0.5c0,0.4,0,1,0,1.1c0.2,0.5,0.7,0.5,0.9,0.9c0.3,0,0.4,0,0.6-0.1c0.2-0.3,0.1-0.5,0.2-0.7
			c0-1-0.3-1-0.6-1.7L421.1,419.8L421.1,419.8z M416.3,420.8c-0.1,0.1-0.2,0.2-0.4,0.2c-0.1,0.3-0.1,0.4-0.2,0.6
			c0.2,0.7,0.9,2.4,2,1.7c0.9-0.4,0.2-1.8-0.2-2.2C417.2,420.8,416.8,420.8,416.3,420.8z M426.6,421.7c-0.8,1.2-0.4,1.7,0.4,2.8
			c0.3,0.1,0.9,0,1.1,0.1c0.3,0,0.3-0.1,0.5-0.1c0-0.4,0-0.8-0.1-1.1C428.4,422.1,427.4,421.9,426.6,421.7z M453.3,422.9
			c-0.2-0.1-0.7-0.1-1.1-0.1c-0.1,0.3-0.1,0.4-0.2,0.6c0,1.3,0.6,1.5,0.9,2.4c0.4,0,0.8,0,1.1-0.1c0.1,0,0.2-0.1,0.4-0.1
			c0.1-0.4,0.1-1,0.1-1.7C454.1,423.5,453.9,423.1,453.3,422.9z M434.3,424.3c-0.2,0.2-0.6,0.3-0.8,0.5c0,0.3,0.1,0.7-0.1,0.9
			c0.2,0.6,0.5,0.8,0.8,1.2c0.4,0,0.6,0.1,0.9,0.1c0.2-0.2,0.2-0.2,0.5-0.4c0-0.4-0.1-0.7,0-0.9C435.6,424.8,435,424.5,434.3,424.3z
			"/>
	</g>
</g>
</svg>
