<?xml version="1.0" encoding="utf-8"?>
<!-- Generator: Adobe Illustrator 21.0.0, SVG Export Plug-In . SVG Version: 6.00 Build 0)  -->
<svg version="1.1" id="Calque_1" xmlns="http://www.w3.org/2000/svg" xmlns:xlink="http://www.w3.org/1999/xlink" x="0px" y="0px"
	 viewBox="0 0 841 595" style="enable-background:new 0 0 841 595;" xml:space="preserve">
<style type="text/css">
	.st0{fill:#DADADA;}
	.st1{fill:#FFFFFF;}
	.st2{fill:#1D1D1B;}
</style>
<ellipse class="st0" cx="399.7" cy="379.6" rx="66.1" ry="11.9"/>
<polyline class="st1" points="364.9,364 403.4,377.8 428.3,358.6 387.5,351.2 "/>
<g>
	<g>
		<path class="st2" d="M361.4,194.9c0.2,0.8,0.3,1.9,0.3,2.5c0.1,1.3,0,3.5,0.6,4.4c0.2,0.3,1.2,0.9,1.6,1c0.2,0.1,0.4-0.1,0.8,0
			c0.3,0.1,1.2-0.1,1.7,0c1.5,0.3,3.9-0.1,5.6-0.4c1.1-0.2,2.6-0.4,3.8-0.8c0.5,0,1-0.1,1.4-0.1c0.3-0.1,0.6-0.4,0.8-0.6
			c0-0.8-0.2-1.7,0-2.6c0.9-3.9,1.1-10.8,3.9-12.9c0.8-0.6,1.8-1.2,2.6-1.5l1.8-0.5c0.5-0.2,1.1-0.6,1.6-0.8
			c0.8-0.3,1.9-0.5,2.8-0.7c0.1,0,1.2,0.2,1.3,0.2c1.7,0.3,3.2-0.1,4.5,0.4c2.1,0.8,4,2.7,4.6,4.9c0.4,1.3-0.3,3.4-0.7,4.8
			c-0.4,1.5-0.5,3.1-1.3,4.3c-1.8,3-5.2,4.7-8.1,6.6c-0.7,0.4-1.6,0.5-2.3,0.8c-1.5,0.8-2.8,1.7-3.8,3c-0.2,0.2-0.6,0.3-0.8,0.6
			c-2.7,3.8-3.3,9.2-4,14.4c-0.2,1.7,0.1,4.4-0.2,6c-0.3,2.1-0.3,4.1-0.1,5.8c0,0.2-0.1,0.4-0.2,0.5c-0.2,0.9,0,2.1,0.2,2.7
			c0.3,1.1-0.3,2,0,3c0.4,1.2,1.8,1.5,2.6,2.2c0.5,0,0.6-0.3,0.8-0.3c0.6-0.2,1.2,0.2,2.1-0.1c1.1-0.3,2.5-0.6,3.7-0.8
			c0.7-0.2,1.4,0,2.2-0.2c1.5-0.4,3-0.3,4-0.5c1.4-0.2,3.4-0.9,4.7-0.5c0.4-0.4,0.9-0.4,1-1.1c0.2-0.5-0.2-1.4-0.3-2
			c-0.1-0.6,0.2-1.3,0-2c-0.1-0.4-0.4-1.6-0.2-2.6c0.1-0.7-0.2-2.8-0.3-3.3v-1.4c-0.1-0.2-0.3-0.8-0.3-1c0.1-2.4-0.2-6.1,0.7-9.1
			c0.2-0.7,0-1.2,0.3-1.8c0.2-0.4,0.4-1.2,0.7-1.5c0.1-0.1,0.3-0.2,0.4-0.3c-0.2-0.4,0.8-1.7,1-2c0.2-0.3,0.2-0.8,0.3-1.1
			c0.5-0.9,1.7-2,2.5-2.6c1-0.9,2.9-1.2,3.7-2.1c0.6-0.7,1.1-1.4,1.7-2.2c0.2-0.3,0.6-0.4,0.9-0.6c0.1-0.1,0.7-0.9,0.8-1
			c-0.1-0.2,0.4-0.9,0.6-1.1c0.5-0.6,0.9-1.3,1.4-2c0.2-0.3,0.6-0.4,0.8-0.7c0.1-0.2,0.1-0.3,0.2-0.5c0.3-0.5,0.8-1.1,1.1-1.6
			c0.2-0.4,0.3-0.7,0.5-1.1c0.2-0.3,0.6-0.6,0.8-0.8c0.2-0.3,0.1-0.6,0.3-0.9c0.7-1.4,1.1-2.6,1.8-4.1c0.3-0.7,1.2-1.6,0.9-2.8
			c-0.1-0.3,0-0.8-0.2-1.1c-0.2-0.5-0.7-1-0.9-1.4c-0.4-0.8-0.2-1.7-0.6-2.4c-0.4-0.7-1-1.3-1.4-2c0-0.1-0.1-0.3-0.1-0.4
			c-0.3-0.3-0.7-0.5-1-0.8c-0.1-0.1-0.1-0.3-0.2-0.4c-0.5-0.4-1.2-0.6-1.7-1.1c-0.9-0.9-1.8-1.7-3-2.2c-0.6-0.3-1.1-0.3-1.6-0.6
			c-1.1-0.6-2-1.6-3.2-2.1c-0.5,0.1-1.3-0.4-1.9-0.6c-0.4-0.1-0.7,0-1-0.2c-0.3-0.1-0.6-0.4-0.9-0.5c-0.2,0-0.5-0.1-0.7-0.1
			c-0.4-0.2-0.9-0.6-1.4-0.7c-0.2,0-0.6,0.1-0.6,0.1v-0.2c-0.3,0-0.6-0.1-0.8-0.1c0-0.1-0.1-0.1-0.1-0.2c-0.3-0.1-0.3,0.2-0.4,0.2
			c-1.5-0.6-4.1-0.6-5.9-1c-1.2-0.3-2.5,0.2-3.5-0.1c-0.6,0.4-1.9-0.1-2.8,0.2c-1,0.2-2.8,0.4-3.9,0.9c-0.2,0-0.4-0.1-0.6-0.1
			c-0.1,0-0.5,0.3-0.7,0.3c-0.3,0-0.6,0.1-0.9,0.1c-3.2,1-6.7,2-9.1,3.6c-0.7,0.4-1.1,1.3-1.8,1.8c-0.6,0.4-1.3,0.4-1.8,0.8
			c-0.4,0.3-0.6,0.8-0.9,1.2c-0.3,0.3-0.7,0.5-1,0.8c0,0.1-0.1,0.2-0.1,0.3c-1,1.2-2.1,2.4-2.9,3.7c-1.4,2.7-2.1,6.9-2.6,10.5
			c0,0.3,0.1,1.1,0.2,1.6C361.5,194.3,361.3,194.6,361.4,194.9z M394.5,222.6c-0.2,0-0.2,0-0.3-0.1h-0.4v-0.1
			c0.2-0.1,0.3-0.2,0.4-0.3h0.3C394.5,222.2,394.5,222.4,394.5,222.6z M394.5,225.4h-0.3c0-0.3,0.1-0.3,0.2-0.5
			C394.7,225.1,394.5,225.1,394.5,225.4z M402.4,204.9h-0.3c0.1-0.3,0.3-0.6,0.3-1l0.1-0.1h0.5c0.1,0.3,0.1,0.2,0.2,0.3
			C403,204.3,402.6,204.6,402.4,204.9z M363.9,187.7c0.2-0.7,0-1.1,0.3-1.8c0.4-1.4,1.2-3.4,2-4.2c0.2-0.2,0.2-0.6,0.3-0.8
			c0.7-1,1.6-2,2.5-2.7c0.3-0.3,0.6-1.1,1.3-0.8c1.4,0,1.7-1.2,2.4-2c1.1-1.1,2.6-1.9,4-2.6c0.7-0.3,1.3-0.3,2-0.6
			c1.2-0.5,2.2-1.1,3.6-1.4c0.9-0.2,1.9-0.2,2.6-0.4c1.6-0.5,3.6-1,5.2-0.9c0.4,0,0.9-0.2,1.1-0.3c0.2,0,0.5,0.2,0.8,0.1
			c0.8-0.2,2.1-0.1,2.9,0.1c0.3,0.1,0.7-0.1,0.9,0v0.2c0.6,0.2,1.9,0,2.4,0.2c1.9,0.6,4,0.9,5.5,1.9h0.3c0.5,0.3,1.4,0.7,2,0.8
			c0.1,0,0.2-0.1,0.3-0.1c0.3,0.1,1.6,0.6,1.8,0.8c0.2,0.2,0.5,1.4,0.6,1.8c0.3,0.1,0.6,0.4,0.9,0.3c0.2-0.1,0.6-0.3,0.7-0.3h0.3
			c0.2,0.1,0.5,1.2,0.5,1.3c0.1,0.1,0.2,0,0.3,0.2c0.3,0.1,1.1,0,1.4,0.2h0.2c0,0.3,0.1,0.3,0,0.4c0,0.1-0.1,0.2-0.1,0.3h-0.3
			c-0.1,0.6-0.2,0.7,0,1.2c0.9,0.7,1.9,1.5,3,1.6v0.3c-0.7,0.1-1.4,0.6-1.9,0.9c0,0.4,0,0.6,0.2,0.8c0.4,0.9,1.4-0.1,2,0.3
			c0.5,0,0.9,0.2,1,0.6h0.3c0,0.3,0.1,0.3,0.2,0.5c-0.4-0.1-0.9-0.1-1.2,0.1c-0.3,0.1-0.3,0.4-0.5,0.6c0,1,0.7,0.6,1.3,1
			c0.3,0.2,0.2,0.8,0.5,1.1c0.3,0.3,0.7,0.1,0.8,0.6c0.1,0.1-0.1,0.3-0.2,0.4c-0.3,0.2-0.5-0.4-0.7-0.5c-0.3-0.2-0.5-0.1-0.8-0.3
			c-0.4-0.3-0.5-0.6-1.2-0.8c0-0.2,0-0.3,0.1-0.4c0.1-1.1-0.3-1.3-1.2-1.4c-0.2,0.1-0.3,0.3-0.5,0.4c-0.1,0.7,0,0.9,0.3,1.4
			c0.3,0.1,0.4,0.2,0.9,0.2c-0.3,0.5-0.7,1.2-0.4,1.8c-0.1,0.3-0.7,0.6-0.3,1.1c0.1,0.4,0.5,0.5,0.8,0.8c0.8,0,1.2-0.4,1.4-0.9
			c0.3,0,0.4-0.1,0.5,0h0.2c-0.1,0.4-0.5,0.5-0.6,0.8c-0.2,0.4,0,0.9,0,1.1c-0.2,0.3-0.4,0.7-0.4,1c-0.4,0.5-1.3,1.4-1.4,2h-0.3
			c-0.1,0.6-0.5,0.8-0.8,1.2c-0.6,0-1-0.5-1.6-0.3c-1.1,0.3-1.1,2-0.5,2.8c-0.1,0.1,0,0.1-0.1,0.2c-0.1-0.1-0.3,0.1-0.6,0l-0.4-0.4
			c-0.5-0.2-1.4-0.3-2-0.3c-0.2,0.2-0.3,0.3-0.6,0.4c0,0.2-0.1,0.3-0.2,0.4c0,0.8,0.5,1,1,1.3c-0.1,0.1,0,0.1-0.1,0.2
			c-0.4,0.3-1.2,0.1-1.7,0.1c-0.2,0.2-0.6,0.7-0.8,0.8c0,0.2,0.1,0.2,0,0.4c0.2,0.7,0.8,0.7,1,1.2h0.1l-0.3,0.3c-0.3,0-0.3,0-0.5,0
			c-0.2-0.3-0.5-0.6-0.8-0.8c-0.2-0.1-0.7,0-0.8-0.1c-0.3,0.3-0.8,0.8-1.3,0.9c-0.7,0.2-1.2-0.5-1.8-0.1c-0.6,0.2-0.4,1-0.8,1.3
			c-0.3,0.3-0.8,0.2-1.2,0.4l-0.7,0.7c0,0.3,0,0.6,0.2,0.8c0.2,0.5,0.9,0.4,1.2,0.8c0.1,0.1,0,0,0,0.1c-0.1,0.3-0.2,0.5-0.3,0.8
			c-0.5-0.2-0.6-0.4-1.3-0.4c-0.3,0.3-0.8,0.4-1.1,0.7c-0.2,0.2-0.2,0.5-0.3,0.7c0.1,0.7,0.5,0.8,1,1c0.1,0.1,0,0.1,0.1,0.2
			c-0.2,0.6-0.7,0.7-0.8,1.4c-0.3,0-0.4,0-0.6-0.2c-1,0.2-1.9,1-2.5,1.7c0,0.6,0.3,0.9,0.5,1.3c0.4,0.1,1.1,0.2,1.6,0.3
			c-0.1,0.6-0.4,0.9-0.5,1.4c-0.5-0.1-0.9-0.3-1.3,0c-0.4-0.1-0.4-0.3-0.5-0.6l-1.3-0.3l-0.8,0.8c0,1.5,0.8,0.8,1.7,1.2
			c0.2,0.2,0.4,0.5,0.6,0.7c0.3,0.1,0.5,0.1,0.8,0.2l0.3,0.3c0,0.3,0,0.4-0.2,0.7c0,0.4-0.1,0.5-0.2,0.7c-0.5-0.1-0.9-0.1-1.3-0.2
			c-0.2,0.3-0.5,0.5-0.8,0.7c0,0.4-0.1,0.6,0.1,0.8c0.1,0.3,0.2,0.3,0.3,0.5c0.4,0.1,0.9,0.1,1.4,0.1c0,0.3-0.1,0.5-0.1,0.8
			c-0.3-0.2-0.7-0.3-0.9-0.5c-0.9,0-0.9,0.4-1.5,0.6c0,0.4,0,0.7-0.1,0.8c0.2,0.6,1,0.4,1.4,0.8c0.1,0.1,0.1,0,0.2,0.1
			c-0.4,0.3-1.1,0.8-1.3,1.3h-0.1c0,0.6,0.1,1.1,0.4,1.1c-0.1,0.3-0.2,0.4-0.4,0.6c-0.1,1.2,0.6,0.8,1,1.4c0.5,0.7,0.1,0.6,1.1,1
			v0.5c-0.5-0.1-0.6-0.3-0.9-0.4c-0.7-0.3-1.2,0.3-1.6,0.5c-0.6-1-1.5-0.5-2.2-0.1c-0.1,0.4-0.2,0.6,0,0.9c0.3,0.8,1.7,0.7,2,0.1
			c0.6,0.1,1.4,1,2.2,0.4h0.3c-0.3,0.5-0.6,1.2-0.9,1.6c0,0.9,0.6,1.2,1.3,1.4c0,0.3,0,0.5-0.1,0.7c-0.1,0.3-1.3,1.2-1.5,1.4
			c0,0.8,0.4,1.1,0.9,1.4c0,0.1-0.1,0.1-0.1,0.2c-0.6,0.1-0.8,0-1.5,0c-0.4,0.4-1,0.6-1.3,1.1c-0.2,0.3-0.2,0.8-0.3,1
			c-1.7,0.1-3.2,0.4-4.8,0.8c-0.6,0.1-1.5,0-2,0.3c-0.8,0-0.9-0.6-1.4-0.5v-0.3c-0.7-0.1-0.9-1.4-0.8-2.2c0.2-1.5,0.1-4.6,0-6.6
			c0.1-1.3,0.2-2.6,0.3-3.9c-0.3-1.5,0.2-5.3,0.5-6.9c0.4-2,0.4-4.1,0.9-6c0.8-2.8,2.4-5.6,4.4-7.2c0.9-0.7,2.1-0.9,3.2-1.4
			c0.5-0.2,0.9-0.7,1.3-0.9c0.4-0.3,1-0.2,1.4-0.4c0.2-0.1,0.5-0.5,0.7-0.6c0.4-0.3,0.8-0.3,1.2-0.6c0.6-0.5,1.1-1.2,2-1.4v-0.3
			c0.9-0.2,1.5-1.3,2-2c0.4-0.5,1-1,1.4-1.6c0.3-0.5,0.7-1.7,0.8-2.3c0.1-0.5,0.2-1.1,0.3-1.6c0.7-1.6,0.8-2.8,1.2-4.4
			c0.3-1.3-1-2.9-0.8-3.3v-0.1h-0.3c-0.1-1-1-1.5-1.5-2.1c-1.6-2-3.4-2-6.1-2.7c-0.2,0-0.4,0.1-0.7,0.1c-1.3-0.2-2.6-0.3-3.5-0.1
			c-1.2,0.3-2.3,0.3-3.3,0.8c-2.2,1.1-5.4,2-7.2,4c-1.3,1.5-1.8,3.6-2.1,5.5c-0.1,0.5-0.3,1.1-0.3,1.5c-0.4,0.8-0.6,2.2-0.8,3.1
			c0,0.5-0.1,1-0.1,1.4c-0.3,1-0.6,2.3-0.8,3.1c-2.5,0.6-7.2,1.3-9.1,0.9c-0.9-0.2-1.8,0.4-2.5-0.1c-0.3,0-0.3-0.1-0.5-0.2
			c-0.1-0.4-0.3-0.8-0.3-1.1c0-1.1-0.1-2.3-0.1-3.4C362.6,193.1,363.1,190.2,363.9,187.7z M411.9,181.6c0.2-0.1,0.3-0.3,0.4-0.5
			c0-0.5-0.1-0.6-0.3-0.8c-0.2-0.1-0.3-0.1-0.6-0.2c-0.6,0.7-0.7,0.4-0.6,1.5C411.2,181.7,411.6,181.8,411.9,181.6z M479.2,226.2
			c1.8-0.6,3.5-1.6,4.7-2.6c0.2-0.2,0.3-0.5,0.5-0.7c0.6-0.6,2.3-1.9,2.6-3h0.3c0.1-0.7,1-1.5,1.3-2.1c0.2-0.4,0.4-0.9,0.6-1.3
			c0-0.2,0.1-0.4,0.1-0.6c0.8-1.4,1.6-3.1,2-4.9c0.1-0.3-0.1-0.4-0.1-0.7c0.1-0.5,0.1-1.4,0.1-2c0-0.2-0.1-0.5-0.1-0.7
			c0.4-2-0.5-6-1.3-8.3c-0.3-0.9-1.2-1.7-1.4-2.7h-0.3c-0.4-0.8-1.1-1.3-1.7-2c-0.2-0.2-0.3-0.5-0.4-0.8c-0.1,0.1-0.7-0.5-0.8-0.7
			c-0.9-1-1.5-1.4-2.6-2.2c-0.3-0.2-0.6-0.6-0.8-0.8c-0.4-0.3-0.9-0.3-1.4-0.7c-0.2-0.1-0.4-0.4-0.6-0.5c-0.6-0.3-1.3-0.6-1.9-0.8
			h-0.5c-0.6-0.3-1.1-0.8-1.7-1.1c-0.8-0.4-1.8-0.7-2.6-1.1c-0.3,0-0.5-0.1-0.8-0.1c-0.3-0.1-0.7-0.4-1.1-0.5
			c-0.3,0-0.6-0.1-0.9-0.1c-1.7-0.5-3.1-0.7-4.9-1.1c-1-0.2-1.8,0.2-2.5,0.3h-2.4c-1,0.2-2.4,0.2-3.1,0.3l-1.3,0.3
			c-0.2,0-0.4,0.1-0.7,0.3c-0.1-0.1-1.6,0.2-2,0.4c-1.6,0.8-3,2-4.3,3.1c-0.5,0.5-1.3,0.8-1.8,1.3c-0.5,0.5-0.9,1.1-1.4,1.6
			c-0.4,0.4-0.9,0.7-1.2,1.2c-0.1,0.1-0.1,0.1-0.1,0.3c-0.8,0.2-1.5,1.7-1.9,2.5c-0.3,0.5-0.8,1-1.1,1.5c-0.3,0.6-0.7,1.9-0.9,2.6
			c-0.3,1.2-0.1,2.5-0.4,3.7c-0.2,0.7-1.2,2.7-0.8,3.3c0.2,0.5,2.1,0.9,2.7,1.1c0.6,0.2,1.4,0.6,2,0.8c0.5,0.2,1,0.2,1.5,0.4
			c0.2,0.1,0.3,0.4,0.5,0.4h0.6c0.3,0.1,0.7,0.4,0.9,0.5c0.5,0.2,0.9,0.2,1.4,0.4c0.4,0.2,2.2,0.9,2.6,0.8c1.1-0.1,0.8-1,1.1-1.9
			c0.1-0.3,0.4-0.7,0.5-0.9c0.2-0.5,0.3-1.5,0.7-2.1c1.9-3.4,4.8-5.8,8-7.8c0.3-0.2,0.5-0.1,0.8-0.3c0.2-0.1,0.5-0.4,0.8-0.4
			c0.5-0.2,1.6,0.2,2.3,0.1c0.1,0,1.7,0.1,2,0.2c2,0.7,6,2.3,7.1,4.3c0.1,0.3,0,1,0.2,1.4c0.6,2.3,0.2,4.5-0.5,6.5
			c-0.2,0.5-0.6,0.9-0.7,1.4c-0.5,0.1-0.8,0.5-1.2,0.7c-1.1,0.5-2.1,0.7-3.3,1.1c-1.3-0.3-3.3,0.1-4.8,0.3c-0.5,0.1-0.8,0-1.2-0.1
			c-0.2,0-0.6,0.1-0.9,0.1c-0.1,0-0.4-0.1-0.7-0.1c-1.5,0.4-2.8,0.8-4,1.4c-0.3,0.1-0.6,0.1-0.8,0.3c-0.3,0.2-0.7,0.6-1,0.8
			c-0.6,0.4-1.3,0.6-1.7,1.1c-2.3,2.8-3.8,6.7-5.3,10c-0.3,0.6-0.2,1.1-0.4,1.7c-0.1,0.1-0.3,0.3-0.3,0.4c-0.1,0.3-0.1,0.4-0.2,0.7
			c-0.3,0.6-0.7,1.3-0.9,2c0,0.2-0.1,0.5-0.1,0.7c-0.4,0.9-1,1.9-1.2,2.8c0.2,0.2,0.3,0.7,0.6,0.8c1,0.6,2.3,0.5,3.5,0.9
			c0.1,0.1,0.4,0.3,0.6,0.3c0.5,0.2,0.9,0,1.4,0.3c0.8,0.4,1.6,1,2.5,1.4c0.7,0.3,2.3,1,2.9,0.7c1.3-0.1,1.7-2.7,2.3-3.7
			c0.7-1.4,1.8-2.9,2.6-4.3c0.3-0.4,0.9-0.7,1.2-1.1c0.7-1,1.4-2.3,2.4-3.1c0.8-0.6,1.5-1,2.5-1.4c0.5-0.2,0.9,0,1.4-0.2
			c0.3-0.1,1.1-0.3,1.4-0.2c1.2,0.3,2.9,0.3,4.4,0.3c0.4,0,0.8,0.1,1.2,0.1C477.4,226.4,478.6,226.4,479.2,226.2z M483.5,207.3h0.3
			C483.7,207.4,483.7,207.4,483.5,207.3z M485.8,207.5c-0.5,0-0.9-0.1-1.2-0.3h-0.1c0.1-0.4,0.5-0.7,0.7-1h0.3
			c0.2,0.3,0.3,0.8,0.5,1C485.9,207.4,485.9,207.4,485.8,207.5z M457,233.1c-0.1,0.1-0.1,0-0.2,0.1c-0.3-0.1-0.4-0.2-0.5-0.5
			c-0.1-0.1,0,0-0.1-0.2c0.2-0.2,0.6-0.4,0.8-0.7c0.2,0.1,0.1,0,0.3,0c0,0.1,0.1,0.2,0.1,0.3C457.5,232.3,457.1,232.8,457,233.1z
			 M475.1,220.5c-0.2-0.1-0.6-0.5-1.1-0.3c-0.4,0.1-0.8,0.5-1.1,0.7c-0.3,0.1-0.7,0.1-0.9-0.2c-0.2-0.1-0.6-0.6-0.7-0.8
			c-0.6,0-0.7-0.1-1.4-0.1c-0.3,0.2-0.5,0.4-0.8,0.6c-0.2,0.3,0.1,0.2-0.2,0.3c0,0.1,0.1,0.3,0.2,0.3c0.1,0.6,0.8,0.7,1.2,0.8v0.3
			c-0.7,0.1-0.8,0.1-1.4,0c-0.1-0.5-0.6-0.5-0.8-0.8c-0.7,0.1-2.5,0.2-3.2,0.6c-0.2,0.1-0.3,0.4-0.5,0.6c0,0.6,0.2,0.8,0.5,1v0.2
			c-0.1,0.1,0,0-0.1,0.2c-0.4,0.1-0.5,0.2-0.9,0.3c0-0.8,0-0.8-0.3-1.4l-0.8-0.3c-0.4,0-0.7,0.1-1.1,0.1c-0.2-0.1-0.4-0.3-0.6-0.4
			c-1-0.4-1.8,0.2-2.4,0.6c0,0.2-0.1,0.3-0.1,0.5c0.2,0.3,0.4,0.5,0.6,0.8c0.4,0.2,1,0.3,1.4,0.4c-0.1,0.4-0.3,0.8,0,1.2
			c0.2,0.5,0.7,0.6,1.2,0.8c-0.1,0.4-0.3,0.6-0.5,0.8c-0.7-0.1-1.6-1-2.5-0.3c-0.5,0.4-0.2,0.6-0.4,1c-0.2,0.4-0.7,0.2-0.8,0.8h-0.1
			c0,0.7,0.2,1,0.6,1.2v0.2c-0.1,0.1-0.4,0.2-0.5,0.3c-0.2-0.1-0.5-0.4-0.6-0.6c-1.9,0-1.7,0.8-2.8,1.6c0,0.6,0.2,0.6,0.3,0.9
			c0.2,0.4-0.2,0.5-0.3,0.7c-0.1,0.3,0.1,0.6,0.1,1.1c-0.4,0.2-0.6,0.5-0.9,0.6c-0.3,0.1-0.5,0-0.8,0.2c-0.2,0.1-0.4,0.5-0.5,0.6
			c-0.3,0.1-2.8-0.6-2.8-0.6c-0.5,0-0.5-0.2-0.8-0.3c0-1.1,0.6-1.7,0.9-2.5c0.2-0.5,0.1-1,0.3-1.4c0.3-0.7,0.7-1.5,1-2.1
			c0.3-0.5,0.2-1.1,0.4-1.6c2.1-4.3,3.4-8.7,7.8-10.8c0.3-0.1,0.6-0.1,0.9-0.2c0.7-0.2,1.2-0.5,1.8-0.7h1.1c1.1-0.2,3.3-0.2,4.6-0.4
			c1.2-0.2,2.1,0.3,3.1,0c0.5-0.1,1.2-0.5,1.7-0.7c1.1-0.4,2.3-0.5,3.1-1.2c1.2-1,1.7-3.5,2.1-5.2c0.2-0.6,0.1-1.9,0-2.6V204
			c-0.2-0.7-0.2-1.9-0.5-2.6c-0.2-0.4-1.7-1.8-2-1.7c-0.9-1.1-2.9-2.3-4.3-2.8c-0.7-0.2-1.6-0.2-2.1-0.3c-1.4-0.5-4.9-0.8-6.4-0.1
			c-3,1.5-6.4,4.4-8.4,6.9c-0.8,1-1.1,2.2-1.7,3.4c-0.1,0.2-0.4,0.5-0.5,0.8c-0.3,0.7-0.2,1-0.8,1.4c-0.2,0.1-1.6-0.4-2-0.6
			c-1.6-0.7-3.2-1.4-5-2c-0.7-0.3-1.6-0.3-1.9-0.9c-0.5-0.8,0.8-2.5,0.8-3.4c0-0.8-0.1-2.5,0.3-3.4c0.1-0.3,0.5-0.7,0.7-1
			c0.6-1,0.9-2,1.6-2.9c0.1-0.2,0.7-0.8,0.8-0.9c0.2-0.1,0.5-0.2,0.6-0.3c0.3-0.3,0.4-0.8,0.7-1.2c0.1,0.1,1.6-1.3,2-1.5
			c1.9-1.7,4-3.7,6.6-4.4c2-0.6,3.3,0.4,5.4-0.1c0.4-0.1,1.3,0.2,1.4,0.1c1.8-1,5.4,0,7.2,0.6c0.8,0.2,1.3,0,2,0.3
			c1.4,0.7,2.9,1.4,4.3,2.1c0.2,0,0.4,0.1,0.6,0.1c0.4,0.2,1,0.5,1.4,0.8h0.4c0.5,0.3,1,0.8,1.4,1.1c0.3,0.2,0.8,0.2,1.1,0.4
			c0.3,0.2,0.4,0.5,0.9,0.6v0.3c0.3,0.1,0.3,0.1,0.4,0.3c0.1,0.1,0.1,0.1,0.1,0.3c0.7,0.1,1.2,1,1.5,1.4c0.7,1,3.5,3.2,3.3,4.5
			c0.2,0.5,1,1.8,0.7,2.3v0.3c-0.2,0.1-0.4,0.2-0.6,0.3c-0.7,0-1.4-0.1-2-0.1c-0.2,0.1-0.5,0.2-0.7,0.2c-0.1,0-0.4-0.3-0.5-0.3h-1.4
			c-0.2,0.2-0.5,0.4-0.8,0.5c0,0.3-0.1,0.6-0.1,0.8c0.2,0.2,0.3,0.6,0.5,0.7c0.5,0.3,1.8,0.5,2.1-0.1h0.4v0.2
			c-0.4,0.2-0.7,0.4-1,0.7c0,0.1-0.1,0.2-0.1,0.3c-0.6,0.3-1,0.1-1.5,0.4c-0.2,0.1-0.4,0.8-0.7,0.9c-0.7,0.4-1.4,0.2-1.4,1
			c0,0.9,1.4,1.6,2.1,1.1h0.4c0.1,0.5,0.2,0.9,0.2,1.4c-0.4,0.3-0.9,0.6-1,1.1c-0.1,0.2,0.1,0.8,0.1,0.8c-0.2,0.2-0.8,0.4-0.9,0.7
			c-0.1,0.2-0.1,0.6-0.1,0.7c-0.5,0.6-1.8,0.6-2.2,1.4c-0.6,1.2,1.6,2.5,2.7,2.6c0,0.1,0.1,0.2,0.1,0.3h0.1
			c-0.1,0.1-0.1,0.1-0.2,0.2c0,0-1.4-0.2-1.6-0.3c-0.2-0.1-0.5-0.5-0.7-0.6c-0.3-0.1-0.6-0.1-0.9-0.2c-0.8-0.4-1.3-0.8-2.6-0.8
			c-0.3,0.3-0.6,0.5-0.8,0.8v0.3c0.3,0.3,0.4,0.6,0.9,0.8c0.3,0,0.6,0.1,0.8,0.1c0.6,0.3,1,1,1.4,1.4c0,0.4-1,1.2-1.3,1.4
			C477,220.2,475.1,220.5,475.1,220.5z M409.6,186.8c0.3-0.1,0.2-0.1,0.4-0.2c0.1-0.2,0.1-0.6,0.1-0.7c-0.1-0.4-0.2-0.4-0.3-0.7
			c-0.2,0-0.4-0.1-0.8-0.1c-0.3,0.2-0.4,0.4-0.7,0.7c0,0.3,0,0.5,0.2,0.7C408.6,186.8,409.2,187,409.6,186.8z M411.3,190.1
			c-0.1,0.1-0.2,0.3-0.3,0.4c0,0.2,0.1,0.3,0.1,0.5c0.5,0.2,0.7,0.4,1.1,0.6h0.3c0.2,0.1,0.1,0.4,0.2,0.6c0.2,0.3,0.6,0.4,0.8,0.7
			c0.6,0,0.7-0.1,1.3-0.2l0.1-0.1c0.1-0.7,0.1-1.3-0.6-1.5h-0.7c-0.2-0.1-0.3-0.6-0.4-0.8c-0.1-0.2-0.4-0.3-0.6-0.5
			c-0.2,0-0.5-0.1-0.7-0.1C411.7,189.9,411.5,189.9,411.3,190.1z M408.5,194.6c0.5,0,0.6-0.2,0.9-0.3c0.1-0.1,0-0.1,0.1-0.2
			c0-0.9-0.6-1.1-1.4-1.2c-0.1,0.2-0.4,0.4-0.6,0.5c0,0.4,0,0.7,0.3,0.9C407.9,194.5,408.3,194.5,408.5,194.6z M336.1,243.5
			c1.1-0.9,1.9-2.6,3-3.4c0.4-0.3,1-0.8,1.4-1c0.4-0.2,0.7-0.1,1-0.3c0.2-0.2,0.3-0.3,0.3-0.7c0.2-0.5-0.3-0.9-0.6-1.2
			c-0.2-0.2-0.2-0.5-0.4-0.8c-0.1-0.1-0.3-0.2-0.4-0.3c-0.4-0.3-0.7-0.9-1-1.3c-1.4-1.9-2.7-4.6-3.6-7c0-0.3-0.1-0.6-0.1-0.8
			c-0.2-0.8-0.4-1.6-0.5-2.3c-0.1-0.4,0.1-1.5,0.3-2c0.2-0.8,0-1.4,0.2-2c0.3-1,0.9-1.9,1.3-2.7c0.1-0.1,0-0.6,0.2-0.9
			c0.1-0.2,0.4-0.4,0.5-0.7c0.1-0.3,0.1-0.6,0.2-0.8c0.4-0.8,1.2-1.6,1.5-2.6c0.1-0.6,0.1-1.1,0.2-1.7c0.1-0.6,0.5-1.8,0.7-2.8
			c0.2-0.9-0.6-4.4-1.1-5.3c-0.4-0.6-1-0.9-1.5-1.3c-0.4-0.3-0.7-0.8-1.1-1.1c-0.2-0.1-0.5-0.2-0.7-0.3c-0.6-0.5-1-1-1.7-1.4
			c-1-0.7-2.1-0.7-3.3-1.1c-2.2-0.7-5.1-1.4-7.9-1.4c-0.7,0.5-2,0.1-3,0.3c-0.5,0.1-1,0.3-1.6,0.5c-0.6,0.1-1.1,0.1-1.7,0.2
			c-3.1,0.8-5.1,1.3-7.7,2.6c-0.6,0.3-1.2,0.3-1.7,0.6c-0.1,0-0.3,0.4-0.3,0.4h-0.4c-0.4,0.2-0.8,0.8-1.2,1.1c-3.4,2-6,4.9-8.1,8.4
			c-0.3,0.5-0.3,0.9-0.5,1.4c-0.3,0.7-1,1.6-1.3,2.4c-0.1,0.2,0.1,0.5,0.1,0.6c-0.7,1.2-0.7,3.4-0.8,4.8c0,0.5-0.3,1.3-0.2,2
			c0.3,1.4,0.5,2.8,0.8,3.9c0.1,0.5,0.1,0.9,0.3,1.3c0.8,1.5,1.7,3.2,2.5,4.7c0.3,0.6,0.4,1.1,0.7,1.6c0.1,0.1,0.2,0.2,0.3,0.3
			c0.1,0.2,0,0.4,0.2,0.6c0.1,0.1,0.3,0.1,0.3,0.2c0.5,0.7,1.2,1.3,1.6,2c0.5,0.1,0.8,0.2,1.3,0.2c1.5-1.5,3.4-2.7,5.2-3.8
			c0.4-0.2,0.6-0.7,0.9-1c0.4-0.4,0.9-0.6,1.4-0.9c0-0.1,0.1-0.2,0.1-0.3c0.2-0.1,0.5,0,0.7-0.2c0.8-0.5,1.6-1.2,2.6-1.6
			c0.6-0.3,1.1-0.2,1.4-0.8c0.1-0.1,0.1-0.5,0.1-0.7c-1.7-1.1-2.3-3.3-3.1-5.4c-0.3-0.8-0.7-1.9-0.6-2.6c0-0.5,0.1-1.1,0.1-1.6
			c0.4-1.2,1.1-1.8,1.7-2.6c0.2-0.3,0.4-0.7,0.6-0.8c0.4-0.3,2.3-1.1,3.1-0.9c0.4,0.1,1.3,0.2,1.9,0.1c1-0.1,3,0.3,3.9,0.8
			c0.2,0.9,0.7,1.5,0.9,2.3c-0.1,0.4,0.1,1,0.1,1.4c-0.2,1.2-0.6,2.6-1,3.6c0,0.2,0,0.6-0.2,0.9l-0.5,0.5c-0.1,0.2-0.1,0.5-0.2,0.7
			c-0.2,0.4-0.6,0.8-0.8,1.3c-0.1,0.3-0.1,0.5-0.2,0.8c-0.2,0.5-0.7,0.9-0.9,1.4v0.4c-0.4,0.8-1.2,2.3-0.8,3.7
			c0.2,0.9,0.3,1.9,0.6,2.7c0.4,1,1.2,1.9,1.8,2.7c0.1,0.2,0.1,0.4,0.2,0.6c0.3,0.5,0.8,1,1,1.4c0.2,0.4,0.3,0.8,0.5,1.2
			c0,0.1,0.4,0.3,0.4,0.3c0.2,0.3,0.2,0.8,0.4,1.1c0.2,0.1,0.3,0.3,0.5,0.4c0.3,0.4,0.4,0.7,0.7,1.1c0.5,0.7,1.3,1.3,1.8,2
			c0.3,0.4,0.4,0.7,0.7,1.1c0.2,0.2,0.4,0.3,0.6,0.5c0.2,0.3,0.1,0.6,0.3,0.8c0.2,0.2,1.8,0.8,1.9,0.8l0.3-0.3
			c0.5-0.2,0.9-0.3,1.3-0.6c0.3-0.3,0.5-0.7,0.8-0.9C333.8,244.7,335.1,244.4,336.1,243.5z M325.7,198.1c0.2,0.1,0.4,0.2,0.5,0.3
			c0,0,0.1,0.5,0.1,0.6v0.4c0,0-0.1-0.1-0.1-0.1c-0.3-0.1-0.5-0.9-0.5-1V198.1z M330.2,245.2c-0.9-0.1-1.1-0.8-1.5-1.4
			c-0.2-0.3-0.5-0.4-0.8-0.7c-0.4-0.4-0.6-1-1-1.4c-0.3-0.3-0.7-0.5-1-0.8c-0.2-0.2-0.2-0.5-0.3-0.7c-0.2-0.2-0.5-0.3-0.6-0.5
			c-0.3-0.4-0.3-1-0.6-1.4c-0.8-1.1-1.8-2.4-2.5-3.6c-0.1-0.2,0-0.5-0.1-0.6c-0.2-0.5-0.7-0.8-0.9-1.4c-0.3-0.9-0.1-1.7-0.3-2.6
			c0,0-0.2-0.4-0.2-0.5c0.5-2.9,2.2-5.3,3.4-7.3c0.4-0.6,0.5-1.4,0.7-2c0.1-0.3,0-0.9,0.1-1c0.8-1.3,0.8-3.4,0.2-4.9
			c-0.3-0.6-0.8-1.3-1.2-1.9c-0.5-0.6-1.2-0.6-2-0.9c-0.4-0.1-1.3-0.5-2-0.3c-0.2,0.1-0.7,0.2-1.2,0.1c-1.9-0.5-4.8,0.3-5.9,1.3
			c-1.3,1.1-2.3,2.4-3,4c0.1,0.2-0.1,0.6-0.2,0.8c0,0.2,0.1,0.4,0.1,0.6c-0.1,0.6-0.3,1.1-0.1,1.8c0.4,1.1,1,2.7,1.5,3.8
			c0.4,1,0.5,2,1.1,2.8c-0.1,0.9-2,1.6-2.6,2c-0.6,0.4-1,1.1-1.6,1.5c-0.2,0.2-0.5,0.2-0.8,0.3c-0.2,0.1-0.3,0.5-0.4,0.6
			c-0.2,0.1-0.4,0.1-0.6,0.2c-0.5,0.3-1,0.8-1.4,1c-0.4,0.1-0.7,0.2-1.1,0.3c-0.6,0.4-1,0.8-1.6,1.3c-1.2-0.1-1.9-2.6-2.5-3.6
			c-0.6-0.9-1.1-1.9-1.7-2.8c-0.1-0.3-0.1-0.6-0.2-0.9c-0.7-1.4-0.9-3.1-1.3-4.9c-0.1-0.5,0.1-0.9,0.1-1.3c0-0.2-0.2-0.6-0.1-0.9
			c0.1-0.3,0.3-0.9,0.2-1.4c-0.2-1.2,0.8-3.7,1.3-4.7c0.6-1.2,1.2-2.8,2-4.1c0.3-0.5,0.8-1,1.1-1.4c0.1-0.1,0.4-0.2,0.5-0.3
			c1-1.4,2.1-2.5,3.4-3.5c0.4-0.3,0.9-0.4,1.3-0.7v-0.2c0.2-0.2,0.4-0.2,0.6-0.3c0-0.1,0.1-0.2,0.1-0.3c0.6-0.5,1.5-0.8,2.3-1.1
			c0.9-0.4,1.9-1,2.8-1.4c0.6-0.2,1.2-0.2,1.8-0.4c0.3-0.1,1.4-0.7,1.6-0.5c0.2,0,0.8-0.3,1.1-0.3c0.5-0.1,1.1-0.1,1.6-0.2
			c1.3-0.4,2.8-0.5,3.8-0.8c0.5-0.1,1.6,0,1.9,0.2c0.3,0.3,0.3,1.1,0.5,1.3c-0.1,0.3-0.6,0.5-0.8,0.6c0,0.2-0.1,0.5-0.1,0.7
			c0.2,0.2,0.3,0.4,0.5,0.6c0.2,0.2,0.8,0.3,0.9,0.3c0.7,0,0.6-0.3,0.8-0.6c0-0.4,0-0.6-0.3-0.8c0-0.3,0.1-0.2,0.2-0.4h0.6
			c-0.1,0.8,0.3,0.9,0.7,1.4c0.3,0.1,0.6,0.1,0.8,0.2c0.4-0.1,0.7-0.5,1.3-0.3c0.1,0,0.3,0.3,0.4,0.3c0.2,0.1,0.9-0.2,1-0.1
			c0.1-0.1,0.1-0.2,0.2-0.3c0.1,0.1,0.2,0.1,0.3,0c0.4,0.2,1.2,1,1.7,1.3v0.2c-0.3,0.2-0.6,0.4-0.8,0.6c-0.9,0-1.8-1.4-2.6-0.9
			c-0.5,0-0.7,0.1-0.8,0.5c-0.1,0.1,0,0.3,0.1,0.4c0.3,0.8,0.9,0.6,1.6,0.9c0.5,0.3,0.8,1.5,1.8,1.4c0.1,0,0.2-0.2,0.4-0.3v-0.3
			c0.6-0.3,0.9-0.2,1.7,0c-0.1,0.2-0.6,0.6-0.8,0.7c0.1,0.2,0,0.1,0,0.3c0.4,0.4,0.8,0.6,1.4,0.8c-0.1,0.5-0.3,0.7-0.3,1.3
			c0.3,0.3,0.6,0.7,0.8,1c-0.3,0.1-0.6,0.3-0.8,0.5c-0.6-0.2-0.3-1.2-1.1-1.4c-0.3-0.2-1.2-0.3-1.5,0c-0.1,0-0.2,0.1-0.3,0.1
			c0,0.5,0,0.8,0.3,1c-0.2,0.4-0.7,0.4-1,0.7c-0.1,0.1-0.1,0.2-0.2,0.3c0.1,1.2,1,1.1,1.5,1.8c0.5,0.7,0.6,1,1.3,1.5
			c-0.3,0.4-0.9,0.4-1.1,0.8c-0.4-0.1-0.8-0.7-1-1c-0.4-0.1-0.8-0.1-1.2-0.2c-0.1,0.1-0.3,0.3-0.5,0.3c-0.1,0.2-0.1,0.4-0.1,0.5
			c0.1,0.7,0.9,1.2,1.4,1.4c-0.1,0.3,0.1,0.6,0,1c0,0.1-0.3,0.3-0.3,0.4c0,0.1,0.3,0.8,0.3,0.8c0,0.6-0.8,1.3-1.1,1.6
			c0,0.9,0.5,0.9,0.8,1.4c0.6,0,1,0,1.5-0.1c0,0.6,0,1.1-0.3,1.4c0,0.1-0.1,0.2-0.1,0.3c-1.4-0.1-1.8-0.2-2.6,0.6
			c0,1.4,1.6,1.4,2.5,1.4c0,0.4-0.2,0.7-0.5,1c0,0.6,0.4,1,0.8,1.3v0.2c-0.4,0-0.9-0.1-1.1,0.1c-1,0-0.9,0.4-1.3,0.9
			c0.1,0.5,0.3,0.8,0.6,1.1c-0.1,0.3-0.3,0.7-0.5,0.9c0.1,0.8,0.9,1,1.6,1.2c0.4,0.1,0.6-0.2,0.8,0c0.1,0,0.2,0.1,0.3,0.1
			c-0.1,0.4-0.2,0.4-0.3,0.7c0.1,0.2-0.1,1.1,0,1.7c0.6,0.4,1.2,1.1,2,0.7c0.3,0,0.2,0.1,0.4,0.2c0,0.4-0.2,0.7,0.1,1v0.2
			c-0.4-0.2-1-0.6-1.2-0.8c-0.9,0-1.1,0.4-1.8,0.6c-0.1,0.4-0.2,0.7,0.1,0.9c0.4,0.8,1.2,0.2,2,0.4c0.1,0,1.2,0.9,1.3,1h0.9
			c-0.5,0.8-1.4-0.1-2.3,0.2c-0.2,0.1-0.4,0.3-0.6,0.4c0,0.3,0,0.3,0,0.5c0.3,0.3,0.5,0.7,0.8,0.9c0.2,0.1,0.7,0.2,0.8,0.3
			c0.4,0.5,0.6,1.1,1.4,1.3v0.1c-0.1,0.1-0.2,0.1-0.3,0.2c-0.2,0.1-0.8-0.2-1.2-0.3c-0.4-0.1-0.8,0.2-1,0.2
			c-0.2-0.1-0.7-0.3-0.9-0.4c-0.7,0-0.9,0.2-1.3,0.5c0,0.6,0.3,0.8,0.5,1.2c0.5,0.2,1.4,0.4,2,0.5c-0.2,0.5-0.4,0.2-0.8,0.4
			C331.8,244,330.9,244.4,330.2,245.2z M333,210v0.2h-0.2V210H333z M486.3,200.2c0.5-0.2,0.8-1.4,0-1.6v-0.3
			c-0.6-0.1-1.7-0.5-2.1,0.2c-0.2,0.2-0.2,0.4-0.3,0.5C483.9,200.1,485.6,200.7,486.3,200.2z M422.3,221.3c0.3,0,0.4,0,0.6-0.2
			c0.3-0.1,0.3-0.1,0.3-0.3c0.1-0.2,0-0.5,0.1-0.9c0.3-1,0.5-2.4,0.7-3.6c0.1-0.5-0.2-0.9,0-1.5c0.6-2,0.8-4.3,1.3-6.6
			c0.1-0.4,0-1.5,0.3-2c0.2-0.5,0.4-0.9,0.6-1.4c0.2-0.6,0.1-1,0.3-1.6c0.3-0.9,1-3.4,0.3-4.2c-0.1-0.2-0.2-0.2-0.3-0.4
			c-0.4,0-0.3,0-0.7,0c-0.1,0.1-0.3,0.2-0.4,0.3c-0.3,1.5-0.3,4-0.7,5.4c-0.2,0.6-0.5,1.4-0.7,2c-0.3,1-0.1,1.9-0.4,2.9
			c-0.1,0.2-0.3,0.6-0.3,0.9c-0.1,1-0.1,1.9-0.3,2.7c-0.6,2.2,0,4.2-1.6,5.4C421,220,421.2,220.5,422.3,221.3z M402.6,198.9
			c-0.1,0.2-0.2,0.5-0.3,0.7c0.3,0.3,0.5,0.6,0.8,0.8c0.7,0,0.9-0.2,1.3-0.4c0-0.6-0.1-0.7-0.3-1.1c-0.4-0.1-0.6-0.3-1.1-0.3
			C402.9,198.7,402.7,198.8,402.6,198.9z M398.4,201c-0.5,0.5-1,0.6-0.6,1.5c0.8,0.6,1.1,0.5,1.9,0.5c0.1-0.2,0.2-0.3,0.3-0.4
			C400.1,201.4,399.4,201.1,398.4,201z M327.3,203.9c-0.2-0.4-0.5-0.5-0.8-0.8h-1.1c-0.1,0.2-0.1,0.1-0.3,0.2c0,0.2-0.1,0.5,0,0.6
			c0.1,0.5,0.5,0.9,1,0.9c0.3,0.2,0.8,0,1.2-0.3C327.3,204.3,327.4,204.1,327.3,203.9z M322.5,204.6c-0.6,0.9-0.2,0.7,0.1,1.5
			c0.4,0.1,0.6,0.3,1.2,0.3c0.1-0.2,0.3-0.3,0.5-0.4c0-1-0.3-0.9-0.7-1.4H322.5z M395.4,205.2c-0.2,0.2-0.4,0.4-0.6,0.7
			c0,1,0.5,0.8,1,1.2c0.7,0,1-0.2,1.2-0.7c0.1-0.1,0.1-0.4-0.1-0.6C396.7,205.4,396.2,205.2,395.4,205.2z M355.1,211.9
			c0.1,0.7,0.3,1.5,0.4,2.2c1.1,2.5,2,5.3,2.9,8.1c0.3,0.8,0.6,2,0.8,2.6c0.2,0.4,0.5,0.9,0.6,1.4c0.1,0.4-0.2,0.5-0.3,0.8
			c0.3,0.3,0.4,0.6,0.7,0.8c0.1,0.2,0.4,0.2,0.5,0.3c0.4,0,0.9,0.2,1.2-0.1c0.2-0.1,0.3-0.1,0.4-0.3c0.1-0.1,0-0.1,0.1-0.2v-1.2
			c-0.3-0.2-0.6-0.5-0.8-0.7c-0.3-0.5-0.6-1.2-0.8-1.7c-0.2-0.4-0.3-1.8-0.5-2.1s-0.6-0.8-0.8-1.2v-0.8c-0.1-0.3-0.3-0.6-0.4-0.8
			c-0.1-0.3-0.1-0.7-0.2-1c-0.7-1.7-1.5-3.8-2.2-5.5c-0.2-0.5,0-1-0.3-1.5c-0.4-1-1.2-3.6-2-4.1c-0.3-0.1-0.6-0.1-0.8-0.2
			c-0.9,1.1,0.5,2.5,0.9,3.4C354.7,210.8,354.9,211.4,355.1,211.9z M474.9,217.5c-0.3,0-0.6-0.1-0.9-0.1c-0.7,0.6-1.2,0.3-1.4,1.4
			c0.5,0.5,1.9,1.4,2.7,0.5c0.2-0.1,0.2-0.2,0.3-0.3c0-0.2,0.1-0.6-0.1-0.8C475.3,217.9,475.1,217.8,474.9,217.5z M464.1,219.7
			c-0.1-0.1-0.3-0.1-0.6-0.1c-0.2,0.2-0.9,0.4-1.2,0.4c-0.1,0.2-0.1,0.3-0.3,0.4c0,0.6,0.2,0.7,0.3,1c0.7,0.2,1.4,0.7,2,0.2
			c0.4-0.2,0.6-0.9,0.4-1.3C464.7,220,464.4,219.8,464.1,219.7z M329.6,221.5c0-0.6,0-0.7,0-1c-0.5-0.4-0.8-0.6-1.6-0.7
			c-0.1,0.1-0.2,0.1-0.4,0.1c-0.1,0.1-0.2,0.2-0.4,0.3c0,0.4,0,0.7,0.3,0.9c0.2,0.4,0.6,0.4,0.9,0.7c0.4,0,0.8,0,1-0.2
			C329.4,221.6,329.5,221.6,329.6,221.5z M389.7,221.9c-0.1,0.1-0.1,0.1-0.3,0.1l-0.8,0.8c0,0.7,0.2,0.7,0.5,1.1c0.5,0,1,0,1.5,0
			c0.2-0.2,0.5-0.4,0.7-0.6c0-0.4,0-0.6-0.2-0.8C390.8,222.2,390.3,222,389.7,221.9z M454.6,227.5c-0.3,0.4-0.7,0.4-0.8,1.1
			c0.2,0.2,0.3,0.5,0.4,0.7c0.3,0.1,0.9,0.6,1.4,0.3c0.4,0,0.4-0.1,0.6-0.3c0.1-0.3,0.2-0.7,0.3-1c-0.1-0.1-0.2-0.2-0.3-0.4
			C455.6,227.7,455.3,227.5,454.6,227.5z M390.3,232.9c0.8,0,1.3-0.2,1.4-0.8c0.2-0.2,0.1-0.7-0.1-0.8c-0.2-0.4-0.6-0.7-1.1-0.8
			c-0.1,0.1-0.2,0.1-0.3,0.2c-0.5,0.2-0.5,0.6-0.8,1C389.5,232.6,389.9,232.5,390.3,232.9z M389.7,234c0,1.2,0.5,1.3,1.7,1.3
			c0.2-0.2,0.5-0.3,0.6-0.7c0.1-0.1,0.1-0.4,0.2-0.6c-0.1-0.1-0.2-0.3-0.3-0.4c-0.4-0.1-0.7-0.3-1.2-0.3
			C390.5,233.5,390.1,233.8,389.7,234z M481.8,247.1c0.6-0.3,1.2-1,1.9-1.4c1.2-0.6,2.2-1,3.3-1.7c0.6-0.3,1.2-1,1.8-1.3
			c0.4-0.2,0.9-0.2,1.3-0.4c1.6-1,3.2-2.3,4.7-3.1c1.5-0.8,3.3-1.2,4.4-2.2c0-0.2,0-0.2-0.1-0.3c0-0.9-0.5-0.9-1.2-1.1
			c-0.2,0.1-0.5,0.1-0.8,0.2c-0.4,0.2-0.6,0.6-1,0.8c-1.2,0.7-2.3,1.1-3.3,1.9c-0.3,0.1-0.7,0.2-1,0.3c-0.9,0.6-1.9,1.4-2.8,2
			c-0.3,0.2-0.6,0.2-0.9,0.3c-0.3,0.2-0.6,0.6-0.9,0.8c-0.4,0.2-0.9,0.2-1.2,0.5c-0.7,0.6-1.4,0.8-2.2,1.3c-0.6,0.3-1.1,0.9-1.7,1.2
			c-1.5,0.9-3.4,1.3-4.9,2.2c0,0.2-0.1,0.3-0.2,0.4c0.2,0.4,0.4,0.5,0.7,0.8c0.8,0,1.1-0.2,1.5-0.4c0.3-0.1,0.7,0,0.8-0.1
			c0.4-0.2,0.7-0.6,1.1-0.7C481.2,247.2,481.4,247.3,481.8,247.1z M388.5,236.3c-0.1-0.1-0.4-0.1-0.7-0.1c-0.3,0.3-1.1,0.8-0.5,1.4
			c0.2,0.4,0.6,0.3,0.9,0.5c0.6-0.1,0.7-0.3,1.1-0.6c0-0.2,0-0.5-0.1-0.6C389.2,236.7,388.9,236.4,388.5,236.3z M330.7,237.2
			c-0.5-0.1-0.9-0.2-1.5-0.2c-0.2,0.2-0.4,0.2-0.5,0.5h-0.1c0,0.2,0,0.1,0.1,0.2c0.1,0.8,0.7,0.9,1.2,1.3c0.9,0,0.8-0.2,1.3-0.6
			C331.1,237.6,330.9,237.6,330.7,237.2z M395,241.7h0.2v-0.3c-0.1,0-0.2-0.1-0.3-0.1C394.9,241.6,394.9,241.4,395,241.7z
			 M457.8,246.6c-1.3-1.4-4.2-2.8-6.4-3.4c-0.9-0.3-1.4,0.1-2.2-0.1c-0.3,0.3-0.8,0.1-1.2,0.3l-0.4,0.4c-0.2,0.1-0.3,0.1-0.5,0.2
			c-1.4,1.2-2.8,2.6-3.5,4.4c0,0.3-0.1,0.6-0.1,0.8c-1.1,2.8,0.8,6.3,2.6,7.3c0.2,0,0.3,0.1,0.5,0.1c0.8,0.4,2.2,1.4,3.5,1.1
			c1.1-0.3,2.2-0.4,3.1-0.9c0.3-0.1,0.4-0.6,0.7-0.8c0.2-0.1,0.5-0.1,0.7-0.3c0-0.1,0.1-0.2,0.1-0.3c0.3-0.2,0.8-0.4,1-0.7
			c0.3-0.4,0.3-0.9,0.6-1.3c0.2-0.4,0.7-0.7,0.8-1.2c0.2-0.4,0.1-0.8,0.3-1.1c0.1-0.2,0.5-0.4,0.6-0.7c0.2-0.4,0.1-1.2,0-1.6
			C458.4,248.5,458.2,247.2,457.8,246.6z M451.5,255.2c-0.2,0.5-1.6,0.8-2.4,0.5c-1.2-0.4-2.8-1.1-3.4-2.2c-1.5-2.6,0-6.1,2-7.7
			c0.6-0.5,1.3-0.5,2-0.9h0.5c-0.1,0.4-0.7,0.9-0.3,1.4c-0.1,0.3-0.1,0.3-0.3,0.4c-0.3,0.1-0.9-0.2-1.4,0c-0.3,0.1-0.5,0.4-0.8,0.6
			c-0.1,0.2-0.1,0.3-0.2,0.5c0.2,0.2,0.2,0.4,0.4,0.5c-0.1,0.6-1,0.9-0.8,1.6c0.2,0.2,0.4,0.5,0.6,0.7c0.6,0.1,1.6,0.2,2.1-0.3
			c0.2-0.1,0.3-0.3,0.4-0.5c0-0.7-0.1-0.9-0.4-1.2c0.2-0.2,0.4-0.3,0.5-0.5h0.2c0.2,1.1,0.4,1.7,0.3,3c-0.8,0-1.1,0.4-1.6,0.6
			c0,0.3,0,0.4-0.2,0.5c0,0.7,0.4,0.6,0.5,1.2c0,0.2,0.1,0.1-0.1,0.2c0,1.8,1.3,1.4,2.3,1.4C451.5,255.2,451.5,255.1,451.5,255.2z
			 M452.6,253.6c-0.1,0.1,0,0.1-0.2,0c-0.4-0.1-0.3-0.1-0.4-0.4c0.2,0,0.5,0.1,0.7,0.2C452.6,253.5,452.6,253.5,452.6,253.6z
			 M454.4,251.3h0.3C454.5,251.4,454.6,251.4,454.4,251.3z M338,261.8c1.6,0.5,4.3-0.1,5.4-0.6c0.9-0.4,1.7-0.5,2.6-0.9
			c0.6-0.3,1.9-1.7,2.2-2.2c0.4-0.6,0.5-1.3,0.8-2c0.7-1.6,1.7-3.8,0.9-6.2c-0.3-0.8-0.9-1.2-1.4-1.8c-0.2-0.3-0.3-0.7-0.5-1
			c-1.1-1.6-2.5-2.6-4.9-2.9c-0.5,0.5-1.8,0-2.6,0.2c-1.7,0.5-3.4,1-4.7,1.9c-1.4,1-3,3.1-3.8,4.9c-0.5,1,0.1,3.2,0.3,4.1
			C333.2,258.1,334.8,260.8,338,261.8z M347.3,253.2c0.2,0,0.2,0,0.3-0.1h0.2c-0.1,0.2-0.1,0.1-0.3,0.3
			C347.5,253.3,347.5,253.3,347.3,253.2L347.3,253.2L347.3,253.2z M346.1,255c0,0.2,0,0.3-0.1,0.4c0,0.1-0.1,0.2-0.1,0.3
			c-0.2,0-0.2,0-0.3-0.1c-0.3-0.2-0.3-0.4-0.5-0.7c0-0.3,0-0.3,0.2-0.5h0.3C345.8,254.6,345.8,254.8,346.1,255z M344.8,249.6
			c0.1,0.3,0.3,0.8,0.5,1c0,0.1-0.1,0.1-0.1,0.2c-0.1,0.1-0.1,0-0.2,0.1c-0.2,0-0.4,0-0.5-0.1c0-0.4-0.1-0.8-0.1-1.2L344.8,249.6
			L344.8,249.6z M345,252.9c-0.1,0.1-0.1,0.2-0.2,0.3c-0.3,0-0.5,0-0.7-0.1c0,0-0.1-0.1-0.1-0.1h0.1c0.2-0.2,0.4-0.2,0.6-0.3
			L345,252.9z M344.2,249v0.3c-0.3-0.2-0.4-0.2-0.3-0.5C344.1,248.8,344,248.9,344.2,249z M337.6,247c0.2-0.1,0.4-0.4,0.6-0.5
			c0.4-0.2,2.6-0.8,2.8-0.7c0.2,0,0.4,0,0.5,0.1c-0.1,0.1-0.1,0.2-0.2,0.3c-0.3,0.1-1-0.1-1.4,0.2c-0.5,0.1-0.5,0.2-0.8,0.4
			c0,0.5,0.1,0.9,0.4,1c-0.1,0.1,0,0.1-0.1,0.2c-0.2,0.1-0.3,0-0.6,0.1c-0.2,0.1-0.3,0.3-0.5,0.4c-0.1,0.1,0,0.1-0.1,0.2
			c0,0.4,0.1,0.7,0.3,0.8c0.3,0.4,0.9,0.3,1.4,0.3c0.2-0.1,0.3-0.3,0.5-0.4c0-0.5-0.2-1.1-0.6-1.3v-0.1c0.3,0,0.8,0,0.9-0.1
			c0.4,0,0.8-0.1,0.9,0.2c0,0-0.4,0.7-0.2,1.2c0.1,0.3,0.5,0.4,0.6,0.6c0,0.3,0.1,0.5,0.1,0.8l0.3,0.3v0.3c-0.1,0.3-0.4,0.6-0.4,1.1
			c-0.7,0-0.9,0.9-0.4,1.4c0.2,0.4,0.7,0.5,1.4,0.5c0,0.3,0.1,0.4,0.3,0.6c0,0.2,0,0.2-0.1,0.3c-0.4,0-0.8-0.1-1-0.3
			c-1.1,0-1.1,0.2-1.7,0.4c-0.1,0.4-0.2,0.6,0,0.9c0.2,0.6,0.9,0.5,1.3,0.8c0.6,0,1.1-0.5,1.4-0.4c1.5,0,0.9,1,2.6,1.2
			c0,0-0.1,0.1-0.1,0.1c-0.1,0.2-0.1,0.2-0.3,0.3v0.1c-0.1,0-0.1-0.1-0.2-0.1v0.1c-0.5,0-0.6-0.3-0.8-0.6c-0.5-0.1-1.1-0.3-1.5,0.1
			c-0.3,0.2-0.2,0.3-0.3,0.6c-0.3,0.2-0.5,0.4-0.8,0.6c-0.3,0.6,0.2,0.6-0.5,0.9c-0.2,0.1-0.7,0.1-1.1,0.2c-2.4,0.6-4.1-1.4-5-2.7
			C332.7,253.3,333.7,249,337.6,247z M318.9,254.7c-0.3-0.2-0.6-0.7-0.8-1c-0.4-0.4-0.9-0.8-1.4-1.2c-1.6-1.5-2.9-3.4-4.4-5
			c-0.3-0.3-0.8-0.5-1.1-0.8c-0.8-0.8-1.5-1.6-2.6-2.2c-0.2,0.2-0.6,0.2-0.8,0.3c-0.1,0.1-0.2,0.4-0.3,0.5c0.2,0.4,0.5,0.8,0.8,1
			c0.1,0,0.2,0.1,0.3,0.1c0.9,0.8,1.6,1.7,2.5,2.5c0.2,0.2,0.3,0.5,0.4,0.7c0.2,0.2,0.6,0.4,0.8,0.6c0.3,0.3,0.5,0.7,0.8,1.1
			c0.3,0.5,1,0.8,1.4,1.3c0.6,0.7,1.1,1.3,1.8,2c0.7,0.6,1.9,2.5,2.7,2.8c0.3,0.2,0.5,0.1,0.8,0.1c0.1-0.2,0.3-0.3,0.5-0.3
			c0-0.7,0-1.3-0.4-1.8C319.8,254.8,319.3,255,318.9,254.7z M460.1,324.2c-0.1-0.4-0.3-1.3-0.3-1.6c0-0.6,0-1.4-0.2-1.7
			c0.2-0.3,0.1-1.7,0-2.1c-0.2-0.7-0.3-1.5-0.4-2.2c-0.1-0.5,0.1-1.2,0-1.6c-0.1-0.3,0-1.1-0.2-1.5c-0.1-0.2-0.2-0.4-0.3-0.6
			c0.4-1.7-0.2-3-0.4-4.8c-0.2-1.8,0.1-3.6-0.5-5.8c-0.1-0.4,0.1-0.7,0.1-0.9c-0.3-1.2-0.1-2.2-0.4-3.6c-0.1-0.2,0.1-0.6,0.1-0.7
			c-0.6-3.3-0.4-7.6-1.4-11v-1.4c-0.2-0.9-0.1-2.3-0.3-3.4v-1.4c-0.1-0.4-0.2-0.9-0.2-1.4c0-0.2,0.1-0.4,0.1-0.6
			c-0.4-2.1,0.1-4.2-0.4-6.6c-0.6-2.8,0.1-4-2-5.6c-0.2-0.1-0.5,0-0.8-0.1c-0.5-0.1-1.1-0.4-1.5-0.5c-0.3,0-0.7-0.1-1-0.1
			c-1.4-0.5-2.6-0.8-3.7-1.3c-0.5-0.2-1-0.1-1.4-0.3c-3.6-1.4-7.5-2.4-11.2-3.8H433c-0.2-0.1-0.5-0.3-0.7-0.3h-0.7
			c-1.1-0.3-2.6-0.8-3.9-1.3c-0.8-0.3-1.2,0-2-0.3c-1.4-0.5-2.8-1-4.3-1.4c-0.9-0.3-1.9-0.3-2.6-0.4c-1.5-0.3-3.3-0.9-4.6-1.4
			c-0.7-0.3-1.8-0.3-2.3-0.5c-0.7-0.3-1.5-0.7-2.2-1l-0.3-0.3c-0.4-0.1-1,0-1.1,0c-0.3-0.1-0.5-0.4-0.8-0.4c-0.4-0.1-0.7,0.1-1-0.2
			c-0.4-0.4-0.9-1.6-1.4-2.1c-0.4-0.4-1.6-0.5-2.2-0.8c-1.3-0.5-2.6-1.3-3.9-1.9c-1.3-0.6-3.7-0.5-4.9-0.2c-1,0.2-1.8,0-2.7,0.3
			c-2.4,0.7-4.8,2-6.5,3.5c-0.1,0-0.2,0.1-0.3,0.1c-0.2,0.1-0.3,0.4-0.4,0.5c-0.5,0.4-1.1,0.6-1.5,1.1c-0.1,0.2-0.1,0.4-0.2,0.6
			c-0.4,0.7-1.1,1.4-1.4,2.1c0,0.4-0.1,0.7-0.1,1.1c-0.1,0.4-0.3,0.9-0.3,1.2c-0.1,0.5-0.3,1.9-0.2,2.2c0.1,0.3,0.4,0.5,0.2,0.9
			c-0.1,0.2-0.4,0.3-0.8,0.3c-0.3,0.6-0.8,1.1-1.5,1.4h-0.4c-0.2,0.1-0.2,0.5-0.4,0.6c-0.2,0.1-0.5,0.2-0.7,0.3
			c-0.5,0.3-1,0.8-1.5,1c-0.2,0-0.5,0.1-0.7,0.1c-1,0.4-1.7,1.3-2.6,1.8c-1.5,0.8-2.9,1.4-4.3,2.2c-1.2,0.7-2.3,1.6-3.4,2.4
			c-0.3,0.2-0.6,0.2-0.8,0.3c-1.4,0.9-2.9,1.9-4.3,2.8c-1.1,0.7-2.4,1-3.5,1.7c-0.8,0.6-1.9,1.1-2.7,1.7c-0.3,0.1-0.7,0.2-1,0.3
			c-0.4,0.2-0.9,0.6-1.3,0.8c-0.7,0.3-1.2,0.4-1.9,0.8c-3.4,1.8-6.7,3.8-9.9,5.8c-0.5,0.2-0.9,0.3-1.4,0.5c-0.7,0.4-1.4,1-2,1.4
			c-0.3,0.2-0.7,0.2-1.1,0.3c-0.2,0.1-0.4,0.3-0.6,0.4c-0.1,1,0.2,2.1,0.3,2.9c0.2,0.6-0.1,1.4-0.1,2c0,0.4,0.1,0.7,0.1,0.9
			c-0.2,0.9,0.2,1.9,0.1,2.6c-0.1,0.5,0.1,1.4,0,2.1c-0.1,0.4-0.2,1-0.2,1.4c0.1,0.6,0.2,1.9,0.2,2.5c-0.3,2.1,0,5.8,0.4,8
			c0.1,0.6-0.1,1.7-0.1,2.4c0,1.9,0.1,3.5,0,4.6c0,0.2-0.2,0.7-0.1,1c0.3,1.2,0.4,2.2,0.5,3.6c0,0.2-0.1,0.4-0.1,0.6
			c0.8,3.3,0.5,7.7,0.5,10.8c0,1,0.1,2.2,0.3,2.9c0.1,0.6-0.2,1.1,0.1,1.6c-0.4,0.9,0.1,1.6-0.1,2.4c-0.1,0-0.1,0.1-0.2,0.1
			c0.1,0.5,0.1,1.1,0.2,1.6c-0.1,0.3-0.2,0.5-0.2,0.8c0,0.1,0.2,0.4,0.3,0.5c0.1,0.6-0.2,1.6-0.3,2c0,0.2,0.1,0.2,0.2,0.3
			c0.1,0.4,0.2,2,0.2,2.2c0.1,0.4,0,0.2,0.3,0.2c-0.2,0.7-0.2,0.8-0.1,1.5h-0.3c0,0.2,0,0.2-0.1,0.3v0.3c0.1,0,0.3,0.1,0.4,0.1v0.4
			c-0.1,0.1-0.3,0.1-0.4,0.2v0.1c0.2,0.1,0.2,0.1,0.4,0c0,0.1,0.1,0.2,0.1,0.3c0.1,0.1,0.1,0,0,0.2c0,0.3-0.1,0.3-0.2,0.5h-0.3
			c0.1,0.8,0.4,1.2,0.3,2.1c-0.2,0-0.2,0-0.3,0.1c-0.2,0.1-0.4,0.4-0.4,0.6h-0.3c0,0.2,0,0.2-0.1,0.3c0.1,0.4,0.3,0.5,0.6,0.6
			c-0.2,0.3-0.1,1-0.3,1.4c0.1,0.1,0.1,0.1,0.2,0.2c0.3-0.1,0.3-0.3,0.5-0.3c0.3-0.1,1,0.3,1.6,0.2c1.3-0.3,3.7,1.1,4.9,1.4
			c1.4,0.4,3.5,0.7,5,1.4c0.5,0.1,1,0.2,1.4,0.3c0.7,0.3,1.7,0.7,2.5,1c0.5,0.2,0.5,0,1,0.2c0.7,0.3,2,1,2.7,0.9
			c1.1,0.7,3.1,1.5,4.6,2c0.6,0.1,1.2,0.3,1.8,0.4c0.8,0.4,2.3,0.9,3.3,1.4c0.2,0,0.5,0.1,0.7,0.1c0.1,0.1,0.3,0.3,0.4,0.3
			c0.4,0.1,0.9,0.1,1.1,0.2c1.1,0.4,3.2,1.2,4.1,1.1c0.3,0.2,0.7,0.4,1,0.5c0.1,0,0.3-0.1,0.4-0.1c0.7,0.2,1.5,0.8,2.1,1.1
			c0.4,0.2,0.8,0.1,1.1,0.3c0.1,0.1,0.4,0.4,0.5,0.4c0.1,0,0.2-0.1,0.3-0.1c0.2,0.1,0.5,0.3,0.8,0.4c0.3,0.1,0.6,0.1,0.8,0.2
			c1.2,0.6,2.6,1.2,3.8,1.7c0.6,0.3,1.3,0.2,1.9,0.5c1.1,0.5,2.4,1.3,3.6,1.8c0.6,0.3,1,0.2,1.7,0.4c0.4,0.1,1,0.4,1.4,0.6h0.4
			c1,0.4,2.1,1.1,3.1,1.4c0.6,0.2,1.4,0.4,2,0.5h0.6c0.8,0.3,2.3,0.7,3.2,1.2c0.3,0.1,0.6,0.1,0.8,0.2c0.4,0.3,0.3,1,0.5,1.4
			l0.4,0.4c0.6,0,2-0.1,2.5-0.4c0.3-0.1,0.6-0.6,0.6-1c0.4-0.1,0.5-0.5,1-0.6v-0.3c0.5-0.1,0.2-0.2,0.4-0.3c0.2-0.1,0.4-0.1,0.6-0.2
			c0.9-0.6,1.6-1.4,2.7-1.8v-0.3c0.6-0.1,1.6-1.4,2.1-1.7c0.3-0.2,0.7-0.2,0.9-0.4c0.2-0.1,0.3-0.5,0.4-0.7c0,0,0.5-0.2,0.7-0.3
			c0.7-0.5,1.2-1.2,1.8-1.8c0.2-0.2,0.6-0.2,0.8-0.3c0.1-0.1,0-0.2,0.1-0.3c0,0,0.3,0,0.4-0.1v-0.3c0.2-0.2,0.5-0.3,0.8-0.4
			c1-0.7,1.9-1.7,2.8-2.5c0.1-0.1,0.4,0,0.5-0.2c0.3-0.2,0.5-0.7,0.8-0.9c0.5-0.4,1.2-0.7,1.6-1.3v-0.3c0.2-0.2,0.6-0.3,0.8-0.5
			c0.3-0.3,0.5-0.8,0.8-1c0.7-0.5,1.4-1.1,2.1-1.6c0.1-0.1,0.1-0.3,0.3-0.4c0.5-0.5,1.2-0.7,1.7-1.2c0.1-0.1,0.1-0.2,0.2-0.3
			c0.3-0.2,0.7-0.3,0.9-0.6c0.1-0.2,0.2-0.4,0.3-0.5c0.5-0.4,1.4-0.6,1.4-1.3c0.6-0.5,1.3-0.9,1.7-1.5h0.3v-0.3c0.2,0,0.2,0,0.3-0.1
			h0.1c0-0.1-0.1-0.1-0.1-0.2c0.5-0.3,1.6-1.4,1.8-2c0.2,0,0.5-0.1,0.7-0.1c0.1-0.5,1.3-1.6,1.8-1.9v-0.1c0.1,0.1,0.1,0.1,0.2,0.2
			h0.3c0-0.1,0.1-0.3,0.1-0.4c0.5-0.1,0.4-0.2,0.8,0v-0.1c0-0.1,0-0.1-0.2-0.3c0.1-0.1,0.1-0.1,0.2-0.2h0.3c0-0.2,0-0.2-0.1-0.3
			c0.1-0.1,0.3-0.3,0.5-0.3v-0.3h0.3v-0.3c0.1,0.1,0.1,0.1,0.1,0.3h0.3c0-0.2,0-0.3-0.1-0.4c0.4-0.3,0.6-0.7,0.8-1.1
			c0.3-0.5,1-0.8,1.4-1.2c0.2-0.2,0.2-0.5,0.3-0.7c1.1-1,2.6-2.2,3.7-3.3c0.2-0.2,0.3-0.7,0.5-0.9c0.2-0.2,0.5-0.2,0.8-0.4
			c0-0.1,0.1-0.2,0.1-0.3c0.2-0.2,0.5-0.3,0.7-0.5c0.1-0.2,0.2-0.4,0.3-0.5c0.4-0.3,0.9-0.4,1.3-0.8c0.3-0.3,0.4-0.8,0.8-1
			c0.2-0.1,0.5-0.2,0.7-0.3c0.2-0.3,0.2-0.5,0.5-0.7v-0.3c0.3-0.1,0.4-0.2,0.6-0.3v-0.3h0.3c0.2-0.4,0.7-0.8,0.7-1.1h0.3
			c0.2-0.9,1.6-1.3,2.2-1.8l1.4-1.5c0.1-0.2-0.1-0.3,0.1-0.6c0.1-0.1,1.7-1,2-1.1c0.1-1.2,0-2.4-0.1-3.1
			C460.2,325.6,460.2,324.9,460.1,324.2z M401.4,253.3c0.2,0.1,0.2,0,0.3,0.3h0.1v0.1c-0.1,0-0.2,0.1-0.3,0.1
			C401.2,253.4,401.3,253.6,401.4,253.3z M401.1,264.3c0.1-0.3,0.4-0.4,0.8-0.4v0.3c-0.2,0.1-0.3,0.2-0.4,0.3v0.1
			C401.3,264.5,401.3,264.5,401.1,264.3C401.1,264.4,401.1,264.3,401.1,264.3z M395.6,250.1h0.3c0,0.2,0,0.4,0.1,0.5v0.4h-0.1
			c-0.1-0.3-0.3-0.4-0.4-0.7h-0.1L395.6,250.1z M382.6,256.3c0.9-2.6,2.8-3.9,4.9-5.3c1.2-0.8,3.1-1.9,4.5-1.9
			c0.1,0.5,0.3,0.8,0.5,1.2c1.2,0.2,0.4,0.4,0.8,1.1c0.2,0.6,0.9,0.8,1.5,0.7v0.3c-0.3,0-0.7,0.1-0.8,0.3c-0.3,0.1-0.3,0.4-0.5,0.6
			c0,0.6,0.2,1,0.7,1.2c0.3,0.2,0.4,0.1,0.8,0.1c0.4-0.4,0.7-0.4,0.7-1.1c0.5-0.1,1-0.2,1.5-0.3c0-0.2,0-0.2,0.1-0.3v-0.1
			c0.3,0.5-0.2,0.9,0.4,1.4c0,0.4-0.1,0.4-0.4,0.5c0,0.1,0.1,0.1,0.1,0.3l0.4-0.4c0.7,0,0.8,0.6,1.1,1c-0.1,0.1-0.3,0-0.5,0.2
			c-0.2,0.2-0.2,0.7-0.4,0.8c0.1,0.2,0.1,0.4,0.3,0.6c0.1,0.3,0.5,0.6,0.9,0.6v0.1c-0.3,0.1-0.6,0.2-0.8,0.7h-0.2
			c0.1-0.2,0.1-0.2,0.2-0.3c0-0.8-0.4-0.8-0.8-1.3c-0.3,0-0.8,0-0.9,0.1c-0.3,0.1-0.6,0.5-0.7,0.8c-0.2,0.4,0.3,0.7,0.5,1.1
			c0.1,0.1-0.2,0.8-0.2,1.2c0.1,0.2,0.3,0.4,0.4,0.6c0.3,0.2,0.4,0,0.6,0.3c0.4-0.1,0.5-0.3,0.9-0.3c0,0.3-0.2,0.6,0,0.8
			c0.1,0.4,0.4,0.4,0.6,0.7c0.8,0,1-0.2,1.4-0.5c0.1,0.1,0.1,0.1,0.2,0.2c-0.7,0.9-1.6,1.1-1.4,2.6c0.1,0.3,0,0.9,0.3,1.2
			c0,0.4-0.2,0.4-0.5,0.5c-0.4,0.1-1.1-0.6-1.9-0.3c-0.2-0.4-0.5-0.7-0.9-0.8c-0.2-0.1-0.7-0.1-0.8,0c-0.4,0.1-0.4,0.4-0.7,0.7
			c0,1.1,0.5,0.9,0.8,1.6c0.1,0,0.3-0.1,0.4-0.1c-0.1,0.2-0.1,0.1-0.2,0.3c-0.8,0.1-1.5,0.7-2.3,0.8c-0.4,0-0.8-0.1-1.2,0.1
			c-0.1-0.1-0.1-0.1-0.1-0.3c-0.3,0-0.5-0.1-0.6,0.2c-0.1-0.2,0-0.1,0-0.3c-0.4,0-0.9,0.3-1.3,0.2c-0.1,0-0.3-0.4-0.4-0.4
			c-0.4-0.2-1,0.2-1.5,0c-0.1,0-0.2-0.4-0.3-0.4c-0.2-0.1-0.3,0.1-0.6,0c-0.3-0.1-1-0.6-1.3-0.8c-0.1-0.1-0.2-0.3-0.3-0.4
			c-0.1-0.1-0.3,0-0.4-0.2v-0.3c-0.4-0.5-1.1-1-1.4-1.5C382.7,262.6,381.7,259.1,382.6,256.3z M396.4,267c0,0.2,0,0.2-0.1,0.3H396
			c0.1-0.2,0.1-0.2,0.2-0.3H396.4z M338.1,287.1c0.2-0.5,0.8-0.5,1.3-0.8c0.5-0.3,1-0.9,1.5-1.2c0.3-0.2,0.6-0.2,0.8-0.3
			c1.3-0.8,2.7-1.8,4-2.6c0.4-0.3,0.9-0.3,1.4-0.5c0.9-0.5,2-1,3-1.5c1.9-1.1,4.1-2.1,5.9-3.2c0.3-0.2,0.5-0.1,0.8-0.3
			c0.2-0.1,0.5-0.4,0.7-0.5c0.4-0.2,0.8-0.3,1.2-0.5c0.3-0.2,0.6-0.6,0.9-0.8c0.7-0.4,1.5-0.7,2.1-1.2c0.1-0.1,0.2-0.3,0.3-0.4
			c0.3-0.2,0.6-0.2,0.9-0.3c0.3-0.2,0.7-0.6,1-0.8c1.1-0.6,2-1,3.1-1.7c0.1-0.1,0.2-0.3,0.3-0.4c0.2-0.1,0.5-0.1,0.7-0.2
			c1.2-0.6,2.5-1.5,3.7-2.2c0.6-0.3,1.1-0.4,1.7-0.7c0.7-0.4,1.4-0.9,2.1-1.3c0.3-0.2,0.7,0,1-0.2c0.1-0.1,0.2-0.2,0.3-0.3
			c0.2-0.1,0.4,0,0.7-0.2c0.6-0.3,0.9-0.5,1.4-0.9c0.2,0.3,1.9-0.7,2-0.8c0.1,0.1,0.1,0.1,0.1,0.3c0.9,0.2,0.8,1.2,1.3,1.8
			c1.2,1.4,2.4,3.2,4.1,4c0.7,0.4,1.7,0.5,2.5,0.6c0.8,0.1,3.2,0.6,4,0.4c4-1,7.4-2.3,10.2-4.3c0.3-0.2,0.3-0.5,0.5-0.8
			c0.3-0.4,0.7-0.6,1-0.9c0.2-0.2,0.2-0.6,0.4-0.9c0.1-0.1,0.3-0.2,0.4-0.3c0.9-1.3,2.1-2.9,2.1-4.9c0.9,0,1.6,0.1,2,0.5h0.6
			c-0.3,0.6-1.2,1-1.6,1.5c-0.1,0.2-0.1,0.4-0.3,0.5c0,0.8,0.2,0.8,0.6,1.2c1-0.1,1.2-1,1.8-1.5c0.5-0.5,1.3-0.7,1.8-1.2
			c1.3,0.2,3.3,0.5,4.3,1.1c-0.2,0.2-2.2,1.7-2.5,1.7c0.2,0.6,0.5,0.7,0.8,1.1c1.3-0.1,2-1,3-1.4c0.5-0.2,0.9-0.2,1.1-0.7
			c2.1,0.1,4,1.1,6,1.3c-0.2,0.4-0.8,1-1.2,1.2c0,0.4,0,0.7,0.2,0.9c0.1,0.2,0.1,0.2,0.3,0.3c0.8,0.1,2.7-1.2,2.9-2
			c1,0,2.9,0.6,3.7,0.9c-0.2,0.5-0.8,0.6-1.1,1c-0.1,0.2-0.1,0.6-0.3,0.8c0.1,0.4,0.5,0.4,0.8,0.6c0.7-0.1,1-0.6,1.4-0.8
			c0.4-0.2,0.9-0.1,1.4-0.3c0.1-0.1,0.5-0.4,0.6-0.4c0.3-0.1,3.2,0.8,3.5,1c0.1,0,0.2,0.1,0.3,0.1c-0.1,0.5-1,1.1-1.4,1.4
			c0,0.2,0,0.5,0.1,0.6c0.1,0.4,0.4,0.4,0.6,0.6c1-0.1,2.8-1.2,3.3-1.9c0.8,0.1,2.3,0.3,2.9,0.8h0.1c-0.2,0.3-0.5,0.4-0.8,0.6
			c-0.3,0.2-0.4,0.7-0.7,0.9c0,0.2,0,0.3,0.1,0.4c0.1,0.3,0.3,0.3,0.5,0.5c0.8-0.1,1.2-0.4,1.7-0.7c0.3-0.1,0.5-0.1,0.8-0.2
			c0.4-0.2,0.5-0.7,1-0.8c0.3-0.2,1.3,0.2,1.7,0.4c-0.4,0.3-0.9,0.5-1.2,0.9c-0.3,0.4,0,0.7-0.5,1.1c-1.6,1.2-3.1,2.3-4.7,3.5
			c-0.3,0.2-0.4,0.6-0.7,0.8c-0.8,0.6-1.5,1.1-2.3,1.7c-0.2,0.2-0.3,0.4-0.5,0.6c-0.6,0.4-1.2,0.6-1.8,1.1c-0.3,0.2-0.4,0.6-0.7,0.8
			c-0.5,0.4-1,0.6-1.4,0.9c-0.1,0.1-0.2,0.4-0.3,0.5c-0.1,0.1-0.4,0.1-0.5,0.2c-0.3,0.2-0.6,0.6-0.9,0.8c-0.3,0.2-0.6,0.2-0.8,0.4
			l-0.8,0.8c-0.4,0.2-0.8,0.3-1.1,0.6c-0.3,0.3-0.5,0.7-0.8,0.9c-1.4,0.8-2.5,1.9-3.7,2.9c-0.2,0.1-0.3,0.1-0.5,0.2
			c-0.4,0.2-1.1,0.7-1.4,1c-0.1,0.1-0.2,0.4-0.3,0.5c-0.3,0.2-0.6,0.3-0.8,0.5c-0.1,0.1-0.2,0.4-0.3,0.5c-0.4,0.4-1,0.6-1.4,0.9
			c0,0.1-0.1,0.2-0.1,0.3c-0.7,0.6-1.5,1-2.1,1.6c-0.3,0.3-0.6,0.8-0.9,1.1c-0.9,0.8-1.9,1.5-2.9,2.2c-0.2,0.2-0.3,0.4-0.5,0.6
			c-1.3,1-2.6,1.8-3.9,2.7c-0.2,0.2-0.4,0.6-0.7,0.8c-0.3,0.2-0.6,0.1-0.8,0.3c-0.2,0.2-0.3,0.4-0.5,0.6c-1.1,0.8-2.2,1.9-3.4,2.6
			c-0.6,0.4-1.3,0.7-1.9,1.2c-0.3,0.2-0.6,0.7-0.9,0.8c-0.6,0.3-1.4,0.7-1.8,1.2c-0.5-0.1-0.5-0.4-0.8-0.5c-0.5,0-0.9,0.1-1.4,0.1
			c-0.3-0.1-0.5-0.5-0.8-0.6c-0.5,0-1-0.1-1.4-0.1c-0.7-0.3-1.5-0.9-2.2-1.2c-1-0.4-2-0.4-3-0.8c-1.3-0.5-2.7-1.2-4-1.8
			c-0.9-0.4-2-0.5-2.9-0.8c-0.5-0.2-1.1-0.2-1.5-0.3c-0.9-0.2-1.9-0.7-2.7-0.9c-0.5-0.1-0.8,0-1.3-0.2c-0.7-0.2-1.3-0.5-1.8-0.8
			c-1-0.4-2-0.4-3.1-0.8c-0.4-0.1-0.9-0.5-1.2-0.6c-3.1-0.8-6.9-1.9-10.2-3.1c-0.7,0.1-3.6-0.8-4.3-1.1c-0.4,0-0.7-0.1-1.1-0.1
			c-1.6-0.5-3.5-1.1-5.1-1.6c-0.9-0.3-1.3-0.1-2.1-0.4c-0.3-0.1-0.7-0.4-0.9-0.5c-0.6-0.2-1.1-0.1-1.7-0.3c-0.6-0.2-1.4-0.6-2-0.8
			c-0.7-0.3-1.4-0.2-2-0.5c-0.1-0.1-0.2-0.2-0.3-0.3c-0.2-0.1-0.2,0.1-0.3,0.1c-0.3-0.1-0.7-0.4-0.9-0.4c-0.1,0-0.2,0.1-0.3,0.1
			c-0.6-0.2-1.2-0.6-2-0.7C337.9,287.3,337.9,287.3,338.1,287.1z M336.1,348.6L336.1,348.6l-0.1-0.2h0.1V348.6z M401.2,375.4
			c-0.1,0.2,0,0.1-0.2,0.2c-0.3,0.1-1-0.2-1.4-0.3c-1.1-0.3-2.3-0.6-3.3-0.8c-0.2-0.1-0.2,0.1-0.3,0.1c-0.4-0.1-1-0.5-1.4-0.6
			c-0.1,0-0.2,0.1-0.3,0.1c0,0-0.3-0.3-0.3-0.3c-0.8-0.3-1.3-0.3-2-0.6c-0.6-0.3-1.3-0.6-1.9-0.8c-0.9-0.3-1.7-0.3-2.6-0.7
			c-1-0.4-2-1-2.9-1.4c-0.9-0.4-1.9-0.4-2.8-0.8c-0.3-0.1-0.7-0.5-0.9-0.6c-0.4-0.2-1.1-0.2-1.7-0.5c-0.7-0.4-2.1-1.1-2.9-1
			c-0.3-0.3-0.9-0.6-1.3-0.8c-0.2-0.1-0.9-0.2-1.3-0.3c-0.3-0.2-0.9-0.6-1.4-0.8c-0.1,0-0.2,0.1-0.3,0.1c-0.6-0.2-1-0.4-1.5-0.5
			c-0.1,0-0.5,0.1-0.8,0c-1.8-0.6-4-1.3-5.8-2c-0.2,0-0.5-0.1-0.7-0.1c-0.5-0.2-1.2-0.5-1.8-0.7c-0.3-0.1-0.7-0.1-1-0.2
			c-0.4-0.2-0.9-0.6-1.4-0.8c-0.3-0.1-0.6,0-0.9-0.2c-1.7-0.9-3.7-1.6-5.4-2c-0.5-0.1-1.1-0.6-1.6-0.8c-0.8-0.3-1.7-0.6-2.4-0.8
			c-0.5-0.1-1.1-0.2-1.6-0.3c-1.1-0.5-1.9-0.9-2.9-1c0.1-0.1,0.1-0.1,0.2-0.2v-0.2c-2,0.1-4-1.5-6.3-1.5c-0.2-0.8-0.1-2.4,0-3.3
			c0,0,0.2-0.5,0.2-0.5c0-0.3-0.2-0.9-0.3-1.4v-1.7c-0.1-0.7-0.2-1.4-0.3-2c-0.1-0.7,0.1-1.5,0-2c-0.1-0.8,0.3-1.8,0.1-2.4
			c-0.3-1.1-0.1-2.9-0.2-3.8c-0.1-0.9-0.3-1.7-0.3-2.4c0.1-0.8-0.1-2.2-0.3-2.9c0-0.5,0.1-1,0.1-1.4c-0.1-0.5-0.2-2.2-0.1-2.8
			c0.1-0.7-0.4-1.3-0.1-1.8c-0.1-0.7-0.2-1.5-0.2-2c0.1-0.6-0.2-1-0.3-1.4v-1.1c-0.2-1.1-0.2-2-0.4-3c0-0.9-0.1-1.8-0.1-2.6
			c-0.1-0.4-0.3-0.9-0.2-1.4c0.1-0.2,0.2-0.5,0.2-0.9c-0.1-1-0.2-2.1,0-3.1c0.1-0.4-0.1-0.8-0.2-1c-0.1-0.5-0.2-3-0.2-3.3
			c0-0.5-0.1-1.1-0.1-1.6c0.2-1,0-3-0.2-3.9c0-0.3,0.2-1.2,0.2-1.5c-0.1-1.4-0.2-3.8,0.2-5.4c0.2-0.7-0.4-3.3,0-3.9v-0.2
			c0.2,0,0.2,0,0.3-0.1c0.1,0.1,0.1,0.1,0.2,0.2c1.8,0.1,3.5,0.9,5.1,1.4c0.6,0.2,1,0.1,1.6,0.3c1.7,0.5,3.7,1.3,5.4,1.8
			c1.1,0.4,2,0.4,3.1,0.8c0.3,0.1,0.7,0.4,1,0.5c0.5,0.2,1.3,0.1,1.8,0.3c2.6,0.8,5.6,1.5,8.2,2.4c0.6,0.2,1,0.1,1.6,0.3
			c1.5,0.5,3.1,1.2,4.6,1.6c3.9,1.2,7,2.1,10.9,3.5c0.3,0,0.6,0.1,0.9,0.1c1.2,0.3,2.6,0.8,3.7,1.2c0.7,0.2,1.2,0.2,1.8,0.4
			c0.8,0.4,1.6,0.9,2.4,1.3c0.3,0,0.5,0.1,0.8,0.1v0.2c0.1,0,0.4,0,0.8,0.1c0.2,0.1,0.6,0.3,0.8,0.4c0.3,0.1,0.6,0.1,0.8,0.2
			c0.6,0.3,1.6,1,2.2,1.3c0.7,0.3,1.4,0.3,2.1,0.6c0.4,0.1,1.1,1,1.4,1.3c0.3,0.3,0.4,2,0.4,2.8c0,0.4-0.3,0.7-0.2,1h0.2
			c0.1,0.1,0.2,0.4,0.2,0.4c0.3,1-0.1,2.9,0.1,3.9c0.2,1-0.2,1.8,0.1,2.6c-0.1,0.7-0.2,2.2,0.1,2.9c-0.1,0.5-0.2,2,0,2.8
			c0.1,0.6,0.1,1.6,0.2,2.2c0,0.3-0.1,0.6-0.1,0.8c0.2,1,0.1,2.3,0.3,3.5v1.1c0.1,0.4,0.3,1.3,0.3,1.8c0,0.6,0,2,0.3,2.6
			c0,0.2-0.1,0.7-0.1,0.8c0.4,2.6,0.7,5.1,0.5,6.9c-0.1,1,0.2,2,0.1,2.7c-0.1,0.5,0.1,1,0.2,1.4c0.1,0.3-0.1,0.7-0.1,0.9
			c0,0.3,0.1,0.9,0.2,1.2c0.1,0.9-0.2,2.1,0.1,3.1c0.5,2,0.6,4.8,0.4,6.8c0,0.5,0.2,0.9,0.3,1.3c0.2,1-0.1,1.8,0.1,2.6
			c0.2,0.8,0.4,2.6,0.3,3.1c-0.1,1.1,0.4,2.7,0.3,3.2C401.2,373,401.8,374.6,401.2,375.4z M454.6,330.8c0,0.1,0.1,0.2,0.1,0.3
			c-0.4,0.8-1.4,1.4-1.9,2c-0.6,0.8-1.1,1.4-1.8,2.1c-0.1,0.1-0.2,0.3-0.3,0.4c-0.1,0.1-0.4,0-0.5,0.2c-0.4,0.4-0.8,1-1.3,1.4
			c-0.3,0.2-0.6,0.3-0.8,0.6c-0.2,0.2-0.2,0.6-0.4,0.8c-0.4,0.3-0.9,0.5-1.2,0.8c-0.4,0.5-0.7,1-1.2,1.4c-0.6,0.6-1.4,0.9-2,1.5
			c-1.2,1.3-2.2,2.9-3.5,3.9c-0.6,0.5-1.3,0.9-1.9,1.4c-0.1,0.1-0.1,0.3-0.2,0.3c-0.5,0.4-1.2,0.8-1.6,1.3c-0.2,0.3-0.3,0.6-0.6,0.8
			c-0.5,0.5-1.2,0.7-1.4,1.4h-0.3c-0.2,0.8-1.4,1.4-2,1.9c-1.1,0.9-1.9,2-3,2.9c-1.1,0.9-2.2,1.6-3.1,2.6c-0.1,0.1-0.1,0.1-0.1,0.3
			c-0.7,0.1-0.9,0.7-1.4,1c-1.3,1-2.4,2.1-3.6,3.2c-0.3,0.2-0.5,0.3-0.8,0.5c-0.4,0.3-0.8,0.9-1.2,1.3c-1.3,1.2-2.7,2.2-4.3,3.2
			c-0.6,0.4-0.9,1-1.4,1.4h-0.3c-0.4,0.3-0.7,0.8-1.1,1c-0.2,0.1-0.5,0.2-0.7,0.3c-0.1,0.1-0.2,0.4-0.3,0.5
			c-0.6,0.5-1.1,0.8-1.7,1.1c0,0.1,0.1,0.1,0.1,0.2c-1.2,0.9-4.7,2.6-5.2,3.6c-0.2,0-0.1-0.1-0.3,0c-0.3-0.1-0.1,0-0.3-0.2
			c-0.2-0.4,0.4-2.3,0.1-3.6c-0.3-1.6-0.2-3.9-0.6-5.4v-1.2c0-0.4-0.1-1.3-0.3-2c0-0.7-0.1-1.4-0.1-2c-0.2-0.7,0-2-0.1-2.6
			c-0.1-0.7-0.2-1.7-0.3-2.5c0-0.3,0.1-1,0-1.4c-0.1-0.3-0.2-0.8-0.3-1v-2.2c-0.2-0.7-0.2-1.5-0.3-2.6c0-0.4,0.2-0.6,0.1-1
			c-0.2-0.7,0-1.4-0.1-1.9c0,0-0.2-0.6-0.2-0.6c0-1.1,0.2-2.7,0-3.6c-0.6-3-0.4-6.4-1-8.9v-1.7c-0.3-1.2,0-2.8-0.3-3.8
			c-0.2-0.8-0.3-1.9-0.2-2.6c0.2-0.9-0.2-1.8-0.2-2.5c0-0.6,0.1-1.9-0.1-2.6c-0.1-0.7,0.3-1.5,0.2-1.9c-0.1,0-0.1-0.1-0.2-0.1
			c-0.1-0.6,0.3-1.7,0.2-2.5c-0.1-0.5-0.3-1.4-0.2-2l0.2-0.3c0-0.1-0.2-0.3-0.2-0.3V311c-0.2-0.7-0.6-1.8-0.1-2.4
			c0.4-0.5,1-0.6,1.5-0.9c0.7-0.4,1.3-1.1,2-1.6c0.2-0.2,0.5-0.2,0.8-0.3c0.5-0.4,0.9-1,1.4-1.4c0.8-0.6,1.5-1.1,2.3-1.7
			c0.3-0.3,0.8-0.3,1.1-0.5c0.1-0.1,0.2-0.3,0.3-0.4c0.6-0.6,1.4-0.9,2.1-1.4c0.3-0.2,0.4-0.6,0.7-0.8c0.3-0.2,0.6-0.2,0.8-0.4
			c0.3-0.2,0.6-0.6,0.8-0.8c0.5-0.4,1-0.6,1.5-0.9c0.9-0.6,1.6-1.5,2.4-2.3c1-1,2.4-1.9,3.5-2.7c0.4-0.4,0.7-0.8,1.1-1.3
			c0.5-0.4,1.4-0.9,1.9-1.3c0.2-0.2,0.2-0.5,0.3-0.6c0.3-0.2,0.6-0.2,0.8-0.4c0.1-0.1,0.2-0.3,0.3-0.4c0.6-0.5,1.3-0.8,2-1.3
			c0.3-0.2,0.5-0.7,0.8-0.9c2-1.4,3.9-2.9,6-4.3c0.3-0.2,0.6-0.7,0.9-0.9c0.2-0.2,1.4-0.9,1.5-0.9l1.4-1.4c0.9-0.7,1.8-1.2,2.7-1.9
			c0.2-0.2,0.3-0.4,0.5-0.6c0.2-0.1,0.5-0.2,0.7-0.3c0.2-0.2,0.2-0.5,0.3-0.7c0.2-0.1,0.5-0.2,0.7-0.3c0.4-0.3,0.8-0.8,1.2-1.2
			c0.2-0.2,0.5-0.2,0.8-0.3c0.1-0.1,0.1-0.2,0.2-0.3c0.4-0.3,0.9-0.4,1.3-0.7c0.5-0.3,0.8-1,1.3-1.2c0.1,0,0.2,0.1,0.3,0.1
			c0.4-0.3,0.7-0.7,1.1-0.9c0.4-0.3,1-0.4,1.4-0.7c0.2,0.1,0.2,0.1,0.3,0.2c0.1,0.5,0.1,1.6,0.2,2c-0.1,0.3-0.6,0.8-0.9,0.9h-0.7
			c-0.5,0.2-0.9,0.9-1.3,1.3c0,0.6,0.2,0.9,0.5,1.1c0.4,0.4,1.8-0.5,2.4-0.6c0,0.6,0.2,2.4,0.1,2.5c0,0.5-0.2,0.8-0.7,0.8
			c-0.1,0-0.1-0.1-0.3-0.1c-0.3,0.1-0.5,0.3-0.8,0.3c0,0.2,0,0.3,0.1,0.4c-0.1,0.2-1.8,1.5-2,1.7c0,0.7,0.3,0.7,0.6,1.1
			c1-0.1,2.1-0.7,2.9-1.4c0.2,0,0.3,0,0.4,0.1c0.4,0.7,0.1,2.3,0.3,2.9c-1,0.4-1.8,0.4-2.6,0.8l-0.3,0.8c0.3,0.3,0.6,0.6,0.8,0.8
			c0.9,0,1.3-0.4,2.1-0.5c0,0.7,0.4,2,0.2,2.6v1c-0.2,0.2-2.4,1.1-2.8,1.3c0,0.1-0.1,0.3-0.2,0.3c0,0.6,0.2,0.7,0.3,1.1
			c1.4,0.3,1.9-0.3,2.8-0.7c0.1,0.1,0.1,0.1,0.2,0.3c0.4,0.6,0.1,2.6,0.3,3.1c-0.1,0.4-1.8,1.1-2.2,1.3c-0.3,0.1-0.9-0.1-1.2,0.2
			l-0.3,0.3c0,0.3,0.1,0.5,0.1,0.8c0.2,0.2,0.4,0.5,0.6,0.7c1.1,0.1,1.3,0.1,2-0.4c0.3-0.2,0.6-0.2,0.8-0.5h0.2
			c0.1,0.4,0.3,0.7,0.3,1c0.2,0.8-0.1,1.7,0.2,2.1c0.1,1.6-0.2,0.8-0.9,1.3c-0.5,0.2-0.4,0.7-0.6,0.8c-0.1,0-0.3-0.1-0.4-0.1
			c-0.7,0-1.2,0.3-1.4,0.8c-0.1,0.2,0,0.6,0,0.7c0.2,0.5,0.6,0.5,0.9,0.8c0.9,0,1.8,0,2.2-0.3c0.2,0,0.3,0,0.4,0.1
			c-0.1,0.3-0.1,0.4,0.1,0.7c0,0.4,0,0.6-0.2,0.8c-0.4,0-0.8-0.1-1.3-0.1c-0.4,0.1-0.8,0.5-1.3,0.7c0,0.2,0,0.2-0.1,0.3
			c0.4,0.3,0.8,0.8,1.1,1.2c0.5,0,1.1,0.2,1.4-0.1c0.4,0,0.4,0,0.5,0.3c0.1,0.2,0,0.9,0,1.2c-0.4,0-1.5,0.2-1.8,0.3
			c-0.6,0-1,0.4-1.1,0.9c-0.2,0.4,0.5,0.8,0.8,1.1c1,0,1.7-0.2,2.3-0.7h0.1c0.1,0.5,0.1,1.3,0.3,1.6v1.5c-0.1,0.2-0.6,0.1-0.8,0.3
			l-0.4,0.4c-0.3,0.2-1,0-1.2,0.1c-0.3,0.1-0.5,0.3-0.8,0.4c-0.1,0.4-0.3,0.7-0.1,1c0.1,0.3,0.4,0.4,0.6,0.6
			c1.1,0.1,1.8,0.1,2.6-0.5c0.3,0.1,0.2,0.1,0.4,0.3c0,0.5,0,2.7,0.3,3.1c-0.1,0.7-1.4,0.9-2.1,0.9c-0.1,0.2-0.2,0.5-0.4,0.7
			c0,0.5,0.1,0.9,0.3,1.2c0.6,0.5,2,0.2,2.4-0.2l0.3,0.3c0,1.6,0.6,2.8,0.6,4.4c-1.3-0.1-1.9,0.4-2.7,1.1c0.1,0.6,0.3,0.8,0.5,1.2
			c1.1,0.2,1.7-0.3,2.3-0.7c0.1,0.3,0.2,0.8,0.3,0.9C455.8,330.6,455.1,330,454.6,330.8z M339.9,252.6c0.4,0.3,1.2,0.1,1.4,0
			c0.1-0.1,0.2-0.2,0.3-0.3v-0.6c-0.7-0.7-0.5-0.7-1.6-1c-0.2,0.1-0.5,0.3-0.7,0.4c0,0.3-0.1,0.6-0.1,0.8
			C339.5,252.2,339.5,252.4,339.9,252.6z M389.1,253.5c0.7-0.1,0.8-0.7,1.2-1.1c-0.1-0.4-0.2-0.5-0.4-0.8c-0.3,0-0.5-0.1-0.8-0.1
			c-0.2,0.1-0.4,0.2-0.7,0.2c-0.2,0.4-0.3,0.5-0.3,1.1c0.2,0.2,0.5,0.5,0.7,0.8C388.9,253.6,389,253.6,389.1,253.5z M303.4,267.6
			c-0.2-0.1-0.4-0.3-0.6-0.4c-2-1-3.5-1.9-5.3-3.1c-1-0.7-2.1-1.1-3.1-1.8c-0.7-0.4-1.3-1.1-2-1.5h-0.3c-0.4-0.2-0.8-0.7-1.1-0.9
			c-0.2-0.1-0.5-0.2-0.7-0.3c-0.2-0.2-0.4-0.5-0.6-0.7c-0.4-0.2-0.8-0.5-1.3-0.7c-1.5-1.2-3.7-3.3-6-3.5c-0.1,0.1-0.2,0.2-0.3,0.3
			c0,0.2-0.1,0.3-0.1,0.5c0.4,0.4,0.9,0.7,1.4,1c0.2,0.1,0.4,0,0.6,0.2c0.7,0.5,1.5,1.3,2.2,1.8c0.3,0.3,0.8,0.3,1.1,0.6
			c3.9,3.1,8.1,5.7,12.4,8.3c0.8,0.5,1.7,1.1,2.5,1.5c0.6,0.3,1.1,0.4,1.7,0.8c0.6,0.4,1,1,2,0.6c0.2-0.4,0.3-0.7,0.3-1.2
			c-0.5-0.4-0.9-1-1.3-1.5C304.5,267.5,303.8,267.7,303.4,267.6z M392.3,257.3c0.4,0.2,0.8-0.4,1.1-0.6c0-0.2,0-0.2,0.1-0.3
			c0-0.4-0.1-0.5-0.2-0.7c-0.5-0.1-0.7-0.3-1.4-0.3l-0.4,0.4c0,0.2,0,0.2-0.1,0.3C391.5,256.7,391.8,257.1,392.3,257.3z
			 M506.5,257.5c-0.1-0.5-0.4-0.5-0.6-0.8c-0.5,0-0.7,0-1,0c-1.3,1-5.1,0.8-6.9,1.4c-5.8,1.9-12,2.7-17,5.8c0,0.5-0.1,0.6,0.2,0.8
			c0.5,0.3,1.2,0.2,1.8-0.1c0.2-0.1,0.3-0.3,0.5-0.4c1.3-0.5,2.5-0.7,3.7-1.2c3.8-1.7,8.5-2.2,12.5-3.3c1.1-0.3,2.4,0,3.6-0.3
			c0.6-0.2,1.2-0.3,1.9-0.4c0.3,0,0.6,0,0.9-0.2c0.3-0.2,0.4-0.5,0.6-0.7C506.7,257.8,506.7,257.7,506.5,257.5z M393.1,260.7
			c0.2,0.3,0.4,0.5,0.6,0.8c0.2,0,0.5,0.1,0.7,0.1c0.3-0.3,0.7-0.6,1-0.8c0-0.3,0-0.5,0.1-0.8c-0.4-0.2-0.8-0.5-1.4-0.5
			c-0.2,0.2-0.5,0.3-0.8,0.4C393.2,260.2,393.1,260.3,393.1,260.7z M397.1,265.3c0.5-0.1,0.7-0.3,1.1-0.4c0.1-0.3,0.3-0.8,0.3-0.8
			c-0.1-0.6-0.8-0.9-1.4-0.9c-0.1,0.1-0.2,0.1-0.4,0.2c-0.2,0.1-0.3,0.5-0.5,0.7c0,0.2,0,0.2,0.1,0.3
			C396.4,264.9,396.8,265,397.1,265.3z"/>
	</g>
</g>
</svg>
