<?xml version="1.0" encoding="utf-8"?>
<!-- Generator: Adobe Illustrator 23.0.1, SVG Export Plug-In . SVG Version: 6.00 Build 0)  -->
<svg version="1.1" id="Calque_1" xmlns="http://www.w3.org/2000/svg" xmlns:xlink="http://www.w3.org/1999/xlink" x="0px" y="0px"
	 viewBox="0 0 595.276 841.89" enable-background="new 0 0 595.276 841.89" xml:space="preserve">
<path fill-rule="evenodd" clip-rule="evenodd" fill="#DDDDDD" d="M329.744,291.771l-60.12,28.44l71.28-18.36l44.28,3.96l7.2,6.84
	l-69.84,9.36l80.64-0.36c0,0,36.052,15.058,47.88,1.08s-1.8-36-1.8-36s24.054-47.915-10.263-48.349s-49.955,14.335-49.955,14.335
	S303.89,223.531,329.744,291.771z"/>
<g>
	<g>
		<path fill-rule="evenodd" clip-rule="evenodd" d="M501.104,304.371c0.423-3.071-2.376-10.66-3.24-14.4
			c-2.156-9.329-1.227-18.385-3.6-27c-0.836-3.037,0.171-5.019-0.72-7.2c-0.85-0.327-12.731,0.034-13.32,0.36
			c-2.339,0.293-4.857,8.387-3.96,10.8c-0.988-0.106-2.222-0.261-2.88-0.72c-0.824-0.372-0.78-0.617-1.44-1.08
			c0.807-9.151,3.727-15.804,3.6-25.92c-0.428-0.408-0.773-0.914-1.08-1.44c-2.174-0.029-3.724,0.127-5.04,0.72
			c-1.663-4.302-2.218-7.62-7.2-8.64c0.771-1.779,3.314-3.737,3.24-6.12c-0.267-8.568-12.934-11.497-20.16-8.28
			c-1.185,2.865,0.234,4.886-0.72,8.64c-1.084,4.265-2.817,9.701-2.88,14.4c-1.778-0.326-7.603-1.907-9-2.88
			c-2.027-2.949-4.035-16.143-5.4-21.24c-0.451-1.683-1.433-8.028-1.08-8.64c0.043-1.402,0.195-3.488-0.36-4.32
			c-1.109-0.809-11.858-1.852-14.04-0.36h-5.4c-2.41,1.138-3.5,5.991-4.68,8.64c-1.139,2.557-3.21,5.775-4.32,8.28
			c-0.709,1.599-0.293,2.659-1.08,3.96c-0.783,1.294-2.276,3.314-2.88,4.68v1.8c-0.65,1.799-2.075,4.227-3.24,5.76
			c0.027,1.867,0.357,2.372,0.72,3.6c2.735,0.521,6.153-0.168,9,0.36c0.493-0.518,1.76-0.909,2.16-1.44
			c0.12-1.32,0.24-2.64,0.36-3.96c0.315-0.952,1.463-2.536,2.16-3.24c0.226-0.103,0.022-0.498,0.72-0.36
			c0.933,0.184,4.237-0.387,5.76,0c1.14,0.29,2.236,1.146,2.88,1.08c2.341,0.547,2.807,4.461,3.6,6.48
			c-5.22,2.011-11.16,2.391-16.2,4.68c-2.662,1.209-4.766,4.109-7.56,5.04c-0.913,0.547-3.084-1.176-4.68-1.44
			c-0.181-2.671-1.101-5.514-1.44-7.92c-0.189-1.337,1.143-2.98,0.36-4.32c-0.12-0.36-0.24-0.72-0.36-1.08
			c-6.134,0.016-11.635,2.235-18.72,2.16c-0.213-4.146-0.658-11.113-0.72-15.48c-0.034-2.406,0.673-6.959-0.36-8.64
			c-0.017-1.111-0.125-1.845-0.36-2.52c-3.742-0.178-7.178,1.858-11.16,2.52c0.055,2.698,0.655,5.359,1.08,7.92
			c0.341,2.056-0.434,6.56-0.36,9c0.137,4.51,0.57,10.221,0.72,15.12c-1.322,0.149-2.765,0.419-3.6,1.08h-1.08
			c0.31-0.966,0.671-1.323,1.08-2.16c-1.353-1.022-1.026-3.079-1.8-4.68c-1.123-2.323-3.64-4.585-5.04-6.84
			c-0.981-0.735,4.11-3.833,4.68-4.68c2.177-3.236,1.219-8.477-0.72-11.16c-3.294-4.558-10.116-5.347-16.56-6.84
			c-2.786-0.645-6.493,0.307-7.92-0.36c-4.514,0.073-1.806,1.018-3.24,3.24c-0.344,0.533-1.503,0.657-1.8,1.44
			c-0.12,1.2-0.24,2.4-0.36,3.6c-0.59,1.434-1.95,3.164-2.52,4.68c-2.571,6.838-3.715,13.806-6.48,20.16
			c-0.776,1.783-4.109,8.295-3.24,9.72v0.72h1.44v1.08c2.213,1.069,5.018,1.533,7.92,2.16c0.84-0.12,1.68-0.24,2.52-0.36
			c1.971,0.453,3.964,1.994,6.48,2.16v0.36c-7.711,5.161-11.699,17.057-7.56,28.8c1.63,4.624,5.365,7.268,7.92,10.8h1.08
			c-1.173,4.642-10.976,7.754-15.12,10.08c-12.732,7.145-28.919,10.993-44.28,15.48c-3.746,1.094-8.083,1.315-11.16,1.8
			c-2.622,0.413-3.607-1.885-5.76-0.72c-0.835,0.267-0.804,0.374-1.44,0.72c-0.047,1.031-0.255,0.524,0,1.08
			c0.038,0.912,0.044,1.334,0.36,1.8c3.203,2.187,19.579,0.054,24.12-1.08c8.651-2.16,17.962-2.805,26.28-5.76
			c7.415-2.634,15.187-5.755,21.96-8.64c2.284-0.973,3.916-1.193,6.12-2.16c1.527-0.67,3.256-2.211,4.68-2.88
			c2.137-1.004,4.757-0.803,6.12-2.52c5.368,0.289,6.374,4.775,12.24,5.4c0.406,2.353,1.625,5.402,1.08,7.56
			c-0.609,2.412-1.164,2.172-1.08,5.4c-11.187,0.133-19.615,3.843-30.6,1.8c-1.173-0.218-3.226-1.523-4.68-1.8
			c-1.858-0.353-2.492,1.574-4.68-0.36c-1.834,0.094-1.829,0.418-2.88,1.08c0.406,3.584,4.627,3.228,7.56,4.32
			c6.569,2.447,16.78,4.644,25.2,2.88c3.323-0.696,6.933,0.323,8.64-0.72h1.8c0.435,5.195-0.664,13.292,0,17.64
			c0.341,2.23-1.233,4.208-0.36,5.76c-0.09,5.2,4.999,5.839,10.08,4.68c1.298-0.296,2.667,0.398,4.32,0
			c3.774-0.908,10.904-1.718,14.76-2.88c2.273-0.685,4.025,0.012,6.48-1.08c2.716-1.208,9.457-7.297,8.28-11.88
			c-0.417-1.624-1.904-3.233-2.52-4.68c-1.188-2.792-2.431-5.211-4.68-6.84c-2.496-1.807-6.023-2.158-8.64-3.96
			c-0.621-0.232-0.352-0.07-0.72-0.36c5.081-1.89,13.082-0.094,16.92-3.6c1.046,1.139,2.608,2.517,3.24,3.96
			c0.287,0.471,0.908,9.379,0.36,11.52c-1.033,4.034-4.514,22.563-1.8,27.36c5.416,1.233,22.019,0.066,27.72-0.36
			c2.701-0.202,2.381,1.222,5.76-0.36c0.785-2.654,1.144-4.188,1.08-8.64c-1.163-0.158-1.671-0.526-2.52,0
			c-0.603-0.319-0.605-1.199-1.08-2.16c-5.833-0.066-14.813-1.244-17.64,0.72h-2.88c-1.329-0.906-1.309-5.176-1.08-7.56
			c0.564-5.867,0.745-11.098,1.44-16.56c4.795,1.066,9.702,2.391,14.4,3.24c2.01,0.363,4.298-0.673,6.84-0.72
			c-0.296,3.957-1.706,11.061-4.32,12.96c-0.026,2.218,0.277,2.465,1.08,3.6c3.613-0.496,7.875-0.655,11.16-1.44
			c0.575-2.782-0.162-4.59,1.44-6.84c1.004-0.523,10.325-0.397,11.16,0.36c3.657,1.855,4.47,16.377,7.56,19.08
			c1.978,3.191,7.578-1.827,10.8,0c0.733-0.419,2.292-2.136,1.8-3.6c-0.254-0.756-1.757-1.279-2.16-2.16
			c-1.76-3.845-2.13-7.466-3.6-11.52c-0.404-1.114-1.747-2.552-2.16-3.6c-1.862-4.724-2.562-9.545-4.68-13.68
			c-1.153-2.251-0.796-6.238-1.8-8.64c-0.36-0.24-0.72-0.48-1.08-0.72c-0.25-0.906,1.001-4.611,1.08-5.04
			c1.725-9.364-3.559-19.508-8.28-22.68v-0.72c3.714-1.378,3.728-1.908,6.12-4.32c0.28-0.282,1.216-0.435,1.44-0.72
			c0.955-1.215,0.802-2.878,1.8-3.96c1.805-0.648,7.314,2.359,10.44,0.36h1.8c-1.678,8.117-4.313,21.632-9,26.64
			c0.241,1.317,0.596,1.538,1.08,2.52c1.984,0.326,5.475-1.33,7.56,0c4.518-0.499,1.935-8.847,4.32-12.24
			c2.029-1.449,7.442,0.307,9.72-0.72c0.935,0.072,1.223,0.159,1.8,0.36c0.848,3.705,1.738,7.784,2.16,12.24
			c4.082,1.857,3.914,0.14,7.2-0.72C499.187,304.54,497.781,306.497,501.104,304.371z M332.264,324.891
			c0.621,0.232,0.352,0.07,0.72,0.36C332.363,325.019,332.632,325.181,332.264,324.891z M334.784,325.251
			c-0.36,0.12-0.72,0.24-1.08,0.36v-0.72h1.08V325.251z M335.864,325.611h-0.72v-0.72h0.72V325.611z M416.144,225.891
			c-2.839,0.131-8.681,0.623-10.44-0.72c-3.691-0.011-6.167,5.716-7.56,8.28c-1.112,0.268-1.618,0.574-2.88,0.72
			c0.139-4.381,1.773-6.868,3.24-9.72c1.587-3.086,1.808-5.752,3.24-9c1.438-3.261,4.427-6.734,5.4-10.44
			c5.263-0.685,9.043-1.249,14.4-1.08c0.378,1.561,0.948,0.885,1.44,1.8c1.694,3.153,0.754,9.127,1.8,12.96
			c1.556,5.702,3.073,11.846,3.6,17.28c-2.073,0.052-5.862,0.571-6.84,0c-1.531-1.09-1.799-5.656-3.24-7.92L416.144,225.891z
			 M360.704,212.211c0.697-0.545,2.111-0.58,2.88-1.08c0.824,0.372,0.78,0.617,1.44,1.08c0.037,3.558,0.728,6.747,0.36,9.72
			c-0.041,0.329-0.756,2.513-0.72,2.88c0.278,2.819,2.316,6.731,0.36,9.72c-0.035,2.954,0.632,2.736,2.16,3.96
			c2.795-0.273,4.456-1.202,6.12-1.8c2.556-0.919,5.555,0.218,7.56-1.08c2.274-0.02,2.739,0.31,3.96,1.08
			c-0.002,2.452-0.083,4.516,0,6.12c-6.932-1.834-15.509-4.311-23.04-1.44c-1.045-3.083-2.76-15.183-1.44-18
			C360.296,220.524,359.417,214.222,360.704,212.211z M321.824,249.291h-4.32c-1.722-0.434-2.802-1.525-4.68-1.8
			c2.037-6.64,4.8-13.118,6.84-19.44c1.072-3.321,1.085-6.275,2.52-9.36c1.279-2.748,2.946-4.915,3.6-8.64
			c0.835-0.082,1.015-0.071,1.44-0.36c3.63,1.212,6.167-0.527,10.8,0.72c1.903,0.512,4.474,1.216,6.48,2.16
			c1.279,0.602,2.106,2.017,3.6,2.52c0.415,1.64,2.019,4.878,1.44,6.12c-0.546,3.347-5.05,6.491-9,6.48
			c-0.403,0.886-0.727,1.918-1.44,2.52c1.206,2.514,2.243,0.791,5.04,1.8c1.788,0.645,6.539,8.03,5.4,10.44
			c-0.082,0.835-0.071,1.015-0.36,1.44c-0.807,0.584-2.704,1.189-3.6,1.44c-2.612-6.059-3.691-9.968-9.72-12.6
			c-2.781-1.214-7.129-0.224-9.72-1.8h-0.72c0.39-1.041,0.66-2.231,0.72-3.6c6.067,3.541,12.598,0.097,16.92-2.52
			c-0.024-1.117-0.051-2.272,0.36-2.88c0.241-6.208-1.993-8.082-6.48-9.36h-4.68c-1.202-0.284-2.544-0.971-3.96,0
			c-0.621,0.232-0.352,0.07-0.72,0.36c-1.468,2.085-0.694,5.032-1.8,7.56c-2.452,5.602-4.524,10.287-6.48,15.84
			c-0.76,2.158-2.793,7.092-1.08,9c1.284,2.767,16.675,4.485,18.36,3.24h0.36c-0.727,1.974-2.917,1.99-4.32,3.24
			C329.047,251.154,325.145,250.065,321.824,249.291z M341.624,243.891v0.72c-6.171,0.035-14.96,1.407-19.44-1.08h-0.72
			c0.69-3.485,1.12-6.09,2.16-9c4.897,0.936,10.194,1.239,13.68,3.6C339.304,239.486,339.988,242.162,341.624,243.891z
			 M327.584,224.811c0.817-3.043,2.251-6.047,2.88-9c1.96-0.044,3.939-0.089,5.04,0.72c2.725,0.153,3.052,1.411,4.68,2.52
			c-0.008,0.982-0.014,1.65-0.36,2.16c-0.677,6.493-9.192,1.775-11.88,3.6H327.584z M291.224,316.971
			c0.621,0.232,0.352,0.07,0.72,0.36C291.323,317.099,291.592,317.261,291.224,316.971z M352.784,304.011
			c-3.81-1.062-7.564-4.505-10.44-6.84c-2.086,0.093-1.602,0.363-2.52,1.44c-0.352,0.212-0.684,0.03-1.8,0
			c-0.739,3.633-6.515,4.101-9.36,5.76c-5.187,3.025-13.667,6.604-19.44,8.64c-4.788,1.689-11.845,1.809-15.12,3.96h-1.8
			c1.932-1.569,4.676-1.471,7.2-2.52c3.205-1.331,7.014-3.298,10.08-4.68c1.83-0.825,3.285-0.548,5.04-1.44
			c7.549-3.836,14.035-9.644,21.24-12.6c-0.14-1.647-0.487-1.863-1.08-2.88c-0.905-0.233-3.494-0.229-5.04-1.08
			c-8.13-4.473-10.917-21.941-4.68-30.6c6.151-8.539,21.847-13.342,33.84-16.56c3.617-0.97,10.296-2.647,15.48-1.44
			c12.424,2.892,22.505,7.91,28.8,16.92l2.88,2.88c4.602,8.401,1.601,19.72-2.52,25.92c-7.799,11.734-26.658,19.256-45.36,15.12
			H352.784z M384.824,310.851c0.72,0.12,1.44,0.24,2.16,0.36l0.36,0.36c-0.12,0.24-0.24,0.48-0.36,0.72h-2.16V310.851z
			 M376.184,307.251h1.44c0.962,1.58,2.863,1.466,3.6,3.24c0.479,0.782-0.051,2.255-1.08,3.24c-0.308,0.238-1.13,0.487-1.44,0.72
			h-1.08C379.303,311.26,377.087,309.615,376.184,307.251z M375.104,311.931c-0.196,1.723-0.63,1.73-0.72,3.6
			c-1.909,0.406-5.322,0.747-6.84,1.8h-0.72c0.016-1.907-0.463-8.397-0.72-8.64v-0.36c0.912-0.038,1.334-0.044,1.8-0.36h3.24
			C372.464,309.291,373.785,310.611,375.104,311.931z M357.464,307.611c0.955-0.45,3.483,0.579,4.32,1.44
			c1.906,2.73-0.304,6.256,1.08,8.64c-0.649,1.111-3.892,1.678-5.4,1.8C357.57,316.921,356.313,309.555,357.464,307.611z
			 M382.664,328.851c3.851,1.498,12.03,8.343,10.08,13.68c-1.646,4.506-6.029,4.501-10.8,6.12c-5.641,1.914-17.542,4.59-25.2,2.52
			c-1.437-7.727,0.167-16.565,0.72-24.48c5.763-0.109,10.888-1.196,16.2-2.16v0.36c0.28,0.511-0.044,0.629-0.36,1.44
			c0.72,0.36,1.44,0.72,2.16,1.08v0.36c-5.55-0.003-10.764,0.429-14.4,2.16c0.28,1.648,1.672,3.456,1.44,5.4
			c-0.286,2.397-1.679,11.062-0.72,12.6c0.335,0.868,0.394,0.568,0.72,1.44c9.489,0.554,17.049-1.392,23.04-7.2
			c0.664-0.903,0.771-2.373,1.44-3.24c-0.191-6.209-5.823-8.228-10.08-10.44v-0.72h0.36
			C378.642,327.109,381.358,328.343,382.664,328.851z M365.744,331.731c1.316,0.148,2.781,0.445,3.96-0.36
			c5.617,0.059,12.247,2.64,13.32,7.2c-1.886,1.999-4.129,5.099-6.84,6.12c-3.12,0.36-6.24,0.72-9.36,1.08
			c-0.597-1.042-1.18-2.193-2.16-2.88c0.106-0.988,0.261-2.222,0.72-2.88C365.356,337.381,365.056,333.761,365.744,331.731z
			 M422.264,354.411c3.365-0.229,5.227,2.401,7.56,1.08h0.36c0.017,1.111,0.125,1.845,0.36,2.52c-5.29,2.304-22.583,1.96-28.8,1.8
			c-0.086-6.075,0.689-10.79,1.44-16.2c0.228-1.642-0.56-3.832,0-6.12c0.679-2.777,2.095-8.864,1.08-10.8v-1.08
			c1.17,0.332,1.415,0.745,2.52,1.08c-0.835,7.825,0.764,23.914-3.24,27.36c0.309,1.292,0.853,1.594,1.8,2.16
			C405.869,356.482,419.393,354.606,422.264,354.411z M454.664,319.491c1.643,2.01,1.509,5.674,2.52,8.28
			c2.223,5.731,4.775,12.638,6.84,18.36c0.75,2.079,0.954,6.87,1.44,7.92c-0.12,0.36-0.24,0.72-0.36,1.08
			c-0.621,0.232-0.352,0.07-0.72,0.36c-5.47-0.38-7.039-15.672-8.64-19.8c-5.416-1.069-12.178-0.893-17.28-0.72
			c-0.977,2.142-1.922,10.511-6.48,7.56h-0.72c0.661-4.28,3.412-7.595,3.6-11.88c1.469-0.427,3.825,0.013,5.4-1.08h1.08l-0.72,0.72
			c0.389,1.754,1.249,1.429,2.16,2.52c2.374-0.441,8.214-0.753,10.44,0c0.41-0.82,0.818-1.559,1.44-2.16
			c-0.206-2.398-1.974-6.754-3.6-7.92c1.084-1.159,2.127-2.069,2.88-3.6C454.566,319.363,454.297,319.202,454.664,319.491z
			 M445.304,328.851v-0.72c1.006-0.781,2.45-1.507,3.24-2.52c0.87,0.482,0.831,1.13,1.44,1.8c-0.204,1.141-0.316,1.047-0.72,1.8
			C447.134,329.018,447.365,328.805,445.304,328.851z M451.064,293.931c1.203,1.913,1.109,4.465,1.8,6.84
			c1.265,4.347,1.161,10.212-0.72,14.4c-5.747,12.793-24.868,15.23-39.96,10.08c-1.026-0.35-8.294-3.039-9-3.6
			c-1.587-1.262-0.753-2.857-3.24-3.6c-1.682-0.586-5.242,1.787-7.92,1.08c-3.852-1.017-6.836,0.625-11.52,1.8
			c-8.086,2.029-16.96,1.717-24.84,3.6c-2.841,0.679-11.448-0.293-13.68,1.08h-5.4c0.964-1.69,12.021-1.441,14.76-2.16
			c6.395-1.678,13.25-1.789,20.16-3.96c5.588-1.756,12.36-4.311,18.72-4.68l0.36-0.36v-1.44c0.74-0.144,0.694-0.089,1.08-0.36h0.72
			c-0.176-2.957-5.014-4.67-6.84-6.48l-0.36-0.36c11.262-4.54,25.207-12.011,26.28-26.28c4.26-1.463,12.969-1.893,17.64-0.36
			C436.739,281.677,447.203,287.789,451.064,293.931z M456.104,274.131c-0.666,1.526-3.797,6.608-5.04,7.56
			c-1.407,1.078-3.843,0.891-5.04,2.16c-2.38-0.803-3.82-2.758-5.76-3.96c-3.48-1.44-6.96-2.88-10.44-4.32
			c-5.959-1.936-12.479-0.091-18,0c0.133-12.542-6.354-21.273-14.76-26.28v-0.72c1.405-0.95,2.549-2.786,3.96-3.6
			c5.936-3.425,12.821-3.595,20.52-5.4c3.248-0.762,9.806-1.265,12.6-0.36c7.245,2.347,12.26,6.889,16.56,12.24
			c1.552,1.931,4.393,4.155,5.4,6.48C457.486,261.123,457.347,271.282,456.104,274.131z M449.264,244.251
			c0.672-1.73,1.539-4.348,1.8-6.48c2.333,0.538,3.758,1.468,5.4,2.52c0.182,0.766,0.322,1.302,0.72,1.8
			c-0.282,3.179-2.466,3.532-3.96,5.4C451.428,246.849,450.733,245.238,449.264,244.251z M456.824,252.891
			c-0.48-0.84-0.96-1.68-1.44-2.52h-0.36c2.708-3.188,5.839-4.262,5.76-10.44c-1.08-1.32-2.16-2.64-3.24-3.96
			c-1.627-1.073-3.859-1.056-5.4-2.16c-1.402-0.043-3.488-0.195-4.32,0.36c-1.099,1.523,0.17,4.804-1.08,6.84v0.72
			c-0.941-0.289-0.853-0.447-1.8-0.72c-0.119-5.67,0.893-10.304,2.16-15.12c0.543-2.063,0.046-4.615,1.08-6.12
			c0.12-0.36,0.24-0.72,0.36-1.08c0.835-0.082,1.015-0.071,1.44-0.36c2.318,0.417,5.572-0.307,7.56,1.08
			c2.631,0.274,2.954,2.126,4.32,3.6c-0.008,0.982-0.014,1.65-0.36,2.16c-0.503,1.406-1.361,1.506-2.16,2.52
			c-1.049,0.011-1.962,0.018-2.52-0.36c-0.784-0.378,1.292-0.893,1.8-1.08c0.113-1.949,0.585-2.89-0.36-3.96
			c-1.224-2.14-5.521-2.03-7.92-1.8c-0.437,0.855-0.675,1.275-1.44,1.8c-0.036,1.934-1.019,3.573-0.72,5.04
			c0.127,0.622,0.65,1.208,0.72,2.52l0.36,0.36c2.503-0.294,4.218-1.238,5.76-2.52h0.72c-0.521,1.141-1.258,1.909-1.8,3.24
			l0.72,0.72c1.93,1.524,4.307,0.1,6.84,1.44c1.331,0.704,2.359,2.397,3.6,3.24C466.471,246.827,464.119,249.02,456.824,252.891z
			 M453.224,224.451l-0.36,0.72h-1.08c0.12-0.36,0.24-0.72,0.36-1.08c0.621,0.232,0.352,0.07,0.72,0.36H453.224z M461.504,265.491
			h-0.72v-2.88c-0.408-2.056-1.898-5.293-2.16-7.92c3.267-0.085,3.057-1.146,5.4-1.44c0.031,3.557-1.261,10.518-2.52,11.88V265.491z
			 M469.064,274.131c-2.014,0.075-4.816,0.343-5.76-0.72c-1.613-1.907,2.958-5.164,2.52-7.2c-1.032-4.802,1.143-11.825,2.16-15.84
			c0.709-2.798,0.316-5.918,1.8-7.92l1.08-1.08c0.36,0.12,0.72,0.24,1.08,0.36c-0.06,5.531-1.004,10.336-2.16,15.48
			c-0.91,4.047,0.027,7.851-2.52,10.08c0.881,4.574,8.076,2.601,11.16,3.24c1.96,0.406,3.434,1.464,5.04,2.16
			c-0.12,0.36-0.24,0.72-0.36,1.08C480.563,273.74,471.044,272.89,469.064,274.131z M484.904,279.171
			c0.229,0.803,0.266,0.951,0.72,1.44c-0.418,0.8-0.521,0.542-1.08,1.08c-1.285,0.007-2.433-0.079-3.24-0.36
			c0.24-1.2,0.48-2.4,0.72-3.6C482.984,278.211,483.944,278.691,484.904,279.171z M488.864,289.611
			c-4.816-0.77-10.24,2.416-13.32-1.44c-0.74,0.144-0.694,0.089-1.08,0.36c-2.908,1.196-3.177,9.811-5.04,12.6
			c-0.686,0.976-1.343,1.291-2.88,1.44c1.288-8.771,7.186-15.885,7.92-24.84l0.36-0.36h3.96c-0.164,1.925-0.837,4.712-1.8,6.12
			c0.071,1.5,0.251,1.65,0.72,2.52c2.365-0.094,6.433-0.83,7.56-0.36c2.179-0.26,2.079-1.31,3.6-2.16
			c-0.477-3.24-2.825-9.291-1.08-11.88c-0.207-1.209-0.4-1.506-1.08-2.16c-0.69-0.331-0.264-0.144-1.08,0
			c-0.199-0.452-0.433-1.087-0.72-1.44c-1.294-1.028-4.497-0.802-6.84-0.72c0.818-2.901,2.536-5.338,3.96-7.56
			c1.388-0.029,3.729-0.094,4.68-0.72c1.9-0.027,2.898,0.148,3.96,0.72c0.617,2.811,1.629,6.725,2.16,9.36
			c0.737,3.66,0.1,8.076,1.08,12.24c0.24,3.84,0.48,7.68,0.72,11.52c0.722,3.055,2.13,5.317,2.16,9
			c-1.824,0.106-3.34,0.493-4.32,1.44C491.18,302.522,489.391,291.68,488.864,289.611z M419.024,211.851
			c0.279-0.933,1.078-3.122,0.72-3.96c-0.372-0.979-0.516-0.792-1.08-1.44c-1.674,0.047-2.408,0.262-3.24,1.08
			c-1.333-0.317-1.249-0.715-2.52-1.08c-0.769,0.572-1.996,0.631-2.52,1.44c-0.12,1.2-0.24,2.4-0.36,3.6
			c-0.861,2.994-3.157,8.563-5.4,10.44c0.326,1.65,1.046,1.762,1.8,2.88c1.56-0.24,3.12-0.48,4.68-0.72
			c1.832,0.366,3.84,1.799,5.4,1.08c1.35-0.13,1.339-0.279,2.16-0.72C418.784,220.251,418.904,216.051,419.024,211.851z
			 M415.784,220.851c-1.842-0.026-4.101-0.086-5.4,0.36c-0.12-0.12-0.24-0.24-0.36-0.36c0.139-2.448,2.316-8.297,3.6-9.72
			c0.348-0.289,0.987-0.531,1.44-0.72l0.72,0.72V220.851z M322.544,447.651c-1.263-4.85-2.074-11.62-3.24-15.84
			c-0.843-3.053-2.631-6.312-3.6-9c-2.854-7.92-4.997-15.977-7.56-23.76c-3.834-11.644-5.454-24.242-11.88-33.12
			c-3.197-4.417-7.072-9.106-12.6-11.16c-4.429-1.645-9.364-1.413-13.32-3.6c-1.982-1.095-7.914-5.774-10.8-3.24h-0.36
			c2.733-5.518,13.167-9.81,8.64-19.44c-2.435-0.987-5.88,0.082-6.84,0.72c-1.562,1.306-2.193,6.829-3.24,9
			c-1.928,3.997-6.487,5.371-9,8.64h-1.08c-0.172,1.537-0.857,1.964-1.08,2.88c-0.57,2.336,2.654,6.67,3.96,7.56v0.72
			c-5.067,1.126-11.802,2.294-15.48,1.8c-2.458-0.33-4.819,0.406-6.12-0.36h-1.8c1.006-1.983,7.578-7.172,5.76-10.44v-3.24
			c-0.545-1.087-1.776-0.462-2.88-1.08c-0.899-0.503-0.797-1.731-1.44-2.52c-1.755-2.153-4.602-1.993-4.68-5.4h-1.44
			c-0.377-2.851-2.636-4.264-3.6-6.48c-2.574-5.919-4.67-16.162-4.68-21.96c0.673-1.028,1.642-1.119,2.16-2.52
			c-0.473-0.482-0.781-1.144-1.08-1.8c-1.113-0.23-2.404-0.382-3.96-0.36c-0.024,1.117-0.051,2.272,0.36,2.88v0.36
			c-5.026,0.067-7.096-12.515-4.32-15.48v-0.72c2.398,0.044,3.366,1.093,3.6,3.24c0.751,0.149,1.972,0.341,2.52,0.72
			c1.604-0.334,1.312-0.876,2.52-1.44c-0.183-3.902-1.775-9.513-1.08-12.96c0.435-2.161,1.036-4.467,1.08-7.2
			c3.822-1.649,11.623-5.689,14.04-8.64c0.868,0.477,1.68,2.053,2.16,2.88c4.841-0.519,5.874-5.638,9-7.92l0.36-0.36
			c0.12,0.12,0.24,0.24,0.36,0.36c-0.045,2.489,0.244,3.35,1.08,4.68c0.621-0.232,0.352-0.07,0.72-0.36
			c2.967-0.293,2.602-2.54,3.96-4.32c0.241-0.51,2.618,2.011,3.24,2.52c1.951,1.598,4.499,3.605,6.84,4.68
			c1.603,0.736,2.808,0.413,3.96,1.44c3.627,1.811,4.73,16.449,3.6,21.24c-0.748,3.172,0.929,6.361-0.36,8.28v0.36
			c-0.289-0.348-0.531-0.987-0.72-1.44c-0.84,0.12-1.68,0.24-2.52,0.36c-0.316,1.406-0.576,2.609,0.36,3.6
			c0.536,0.231,0.156,0.447,0.72,0h2.16c-0.559,1.618-0.452,2.35-2.16,2.88c0.169,1.879,0.941,2.495,2.16,3.24
			c-0.137,3.729-0.304,8.304-1.08,11.16l0.72,0.72c8.679-0.406,11.117-10.696,9.72-18c-0.24-1.256,0.576-1.837,0.72-2.52
			c0.259-1.233,0.198-6.768,0-7.92c-0.595-3.468,1.782-8.8,0-11.52c0.141-3.33,0.414-5.753-1.8-6.84v-0.72
			c1.599,0.142,1.731,0.061,3.6,0l0.36-0.36c0.065-2.275-0.063-2.072-0.36-3.96c-5.381-0.661-7.838-3.473-11.52-5.76v-0.36
			c6.933,3.303,14.128,2.508,21.6,1.8l0.36-0.36c-0.083-4.395-2.574-2.863-5.4-4.32c-2.397-1.236-6.069-4.177-7.92-6.12
			c-6.553-6.88-9.181-10.835-19.8-14.04c-1.508-0.455-5.914-1.939-7.92-1.44c-1.254,0.312-5.138,1.447-6.48,2.16
			c-0.48,0.48-0.96,0.96-1.44,1.44c-1.753,0.522-4.916-1.913-6.84-2.16c-1.371-0.176-7.122,2.522-8.28,3.24
			c-7.16,4.436-13.114,10.278-21.24,14.04c-3.174,1.47-6.883,3.462-11.52,2.52l-1.44,1.44c1.005,5.224,15.069,3.886,19.44,2.88v0.36
			c-3.643,1.187-6.581,3.581-10.8,4.68c-2.847,0.742-6.991-0.173-8.64,0.72c-0.585,0.698-0.905,1.69-0.36,2.52
			c1.757,2.824,17.756,0.245,19.8-1.44h0.72v0.36c-3.136,1.473-6.814,3.042-10.08,4.32c-2.245,0.879-3.771,0.131-5.04,1.08
			c-0.36,0.12-0.72,0.24-1.08,0.36c0.079,1.857,0.438,2.145,1.08,3.24c5.031,0.226,14.316-0.226,17.28-2.88h0.72
			c-0.958,3.267-0.373,9.217-0.72,12.96c-1.237-0.566-2.607-0.778-4.68-0.72c-0.96,0.72-1.92,1.44-2.88,2.16
			c-2.52,9.52-1.023,18.632,6.12,22.32c0.998,5,1.805,10.353,3.24,14.76v2.16c0.208,0.474,1.229,1.103,1.44,1.8v2.88
			c0.45,1.043,2.273,1.646,2.88,2.52c0.12,0.72,0.24,1.44,0.36,2.16c0.6,0.48,1.2,0.96,1.8,1.44c0.956,1.303,1.263,2.561,2.16,3.96
			c1.467,2.289,4.953,3.448,6.84,5.4c2.857,3.044-4.855,7.978-5.76,9c-4.636-0.151-6.572-2.709-10.44-3.6
			c-0.72,0.6-1.44,1.2-2.16,1.8c0.161,1.072,0.182,1.215,0.72,1.8c-1.179,3.576-3.58,3.843-6.84,5.4c-3.07,1.467-8.348,6.525-10.8,9
			c-2.766,2.791-4.358,6.236-6.48,9.72c-2.15,3.531-5.571,6.74-7.92,10.08c-1.067,1.517-1.458,3.123-2.52,4.68
			c-1.256,1.843-3.89,3.233-5.04,5.04c-2.663,4.185-4.466,8.418-7.2,12.6c-1.272,1.946-3.27,3.148-3.96,5.76h-0.36
			c-3.174-4.821-7.696-8.391-11.16-12.96c-0.904-1.193-2.653-1.764-3.6-2.88c-2.518-2.967-5.047-5.772-7.56-8.64
			c-1.715-1.958-2.497-4.637-4.68-6.12c0.316-0.85,0.135-0.594,0.72-1.08c-0.059-1.823-0.395-2.473-1.44-3.24
			c0.256-11.92,9.623-15.611,16.92-20.52c0.774-0.521,2.997-3.449,3.96-4.32c-0.152-2.913-1.567-2.417-2.88-3.96
			c-8.946-0.588-14.391,3.857-19.8,7.92c-1.08,1.2-2.16,2.4-3.24,3.6c-1.82,1.242-3.559,1.732-5.04,3.24
			c-3.162-0.373-5.908-1.483-8.64-2.16c-3.35-0.83-6.212,0.163-9.72-0.72c-1.124-0.283-3.816-1.118-5.04-1.08
			c-14.764,0.462-27.34,4.984-37.08,12.24c-4.583,3.414-1.775,7.758-4.68,10.08c-0.041,1.329-0.158,3.186,0.36,3.96
			c0.12,0.36,0.24,0.72,0.36,1.08c0.6,0.12,1.2,0.24,1.8,0.36c-0.487,2.359-1.772,3.04-1.8,6.12c0.561,0.541,0.818,0.913,1.08,1.8
			h2.52c-0.038,0.912-0.044,1.334-0.36,1.8c0.041,2.641,0.779,2.334,1.44,3.96c6.756,0.369,11.095-2.339,16.56-3.96
			c1.44-0.12,2.88-0.24,4.32-0.36c2.333-0.579,6.109-1.471,7.56-0.72c5.573,0.138,1.789,3.845,5.04,5.4
			c1.598,0.764,3.694,0.122,4.68,0.36c1.297,0.313,7.654,7.294,9,8.64c8.415,8.413,16.538,17.024,23.76,26.64l6.12,6.12
			c2.227,2.957,4.655,6.761,7.56,9c1.148,0.885,2.732,1.754,3.6,2.88c1.576,2.045,3.925,4.835,6.48,5.76
			c0.416,0.254,1.22-0.247,2.52-0.36c0.904-5.889,6.918-9.437,10.44-12.96c3.202-3.203,5.549-7.912,9.36-10.44v-1.08
			c2.409-0.639,3.993-3.633,5.4-5.4c3.338-4.193,8.242-7.176,11.16-11.88c2.687,3.312,4.217,13.996,5.04,19.08
			c-0.12,0.96-0.24,1.92-0.36,2.88c3.702,14.381,3.207,30.501,4.68,45.72c0.452,0.199,1.087,0.433,1.44,0.72
			c1.507-0.322,1.216-0.719,2.16-1.44c0.072-3.362,0.109-8.265-1.08-11.88c3.893-1.162,5.325,0.102,6.48-5.04
			c-0.72-0.96-1.44-1.92-2.16-2.88c-2.124-0.574-2.476-0.831-5.04-0.72c-0.043-2.032,0.143-4.131-0.36-5.04v-4.32h0.36
			c1.063,2.105,2.697,2.11,5.4,2.52c0.867-0.861,2.225-1.875,3.24-2.52c0.231-4.38-2.691-8.863-6.84-5.76
			c-1.616,0.551-2.164,1.805-2.16,3.96h-0.36c-0.576-2.963-0.418-10.033-1.8-12.24v-0.36c2.426,0.317,3.599,0.163,5.4-0.72
			c1.121-2.61,1.172-3.522,0.72-6.48c-0.683-0.357-0.989-0.496-1.44-1.08c-2.295-0.168-3.666-0.635-5.04,0.72h-0.72
			c-0.024-2.053-0.157-5.131-1.08-6.48v-1.8c0.752,0.168,0.99,0.55,1.44,0.72c0.374-0.101,1.707-0.795,2.52-0.36
			c0.12,0.36,0.24,0.72,0.36,1.08c0.809,0.824,2.553,1.265,3.96,1.44c-0.48,1.2-0.96,2.4-1.44,3.6
			c0.856,0.811,1.562,2.633,2.52,3.24c0.757,0.48,1.224,0.19,1.8,0.72c1.889-0.012,3.615-0.229,4.68-1.08
			c1.074-0.848,1.161-1.93,1.08-3.96c2.64,0.24,5.28,0.48,7.92,0.72c-0.442,1.077-1.599,1.632-2.52,2.16
			c-0.103,4.463,1.093,3.964,2.88,6.12c2.026-0.159,4.501-0.696,5.76-2.52c0.329-0.558-0.242-2.624-0.36-3.96
			c-0.794-0.365-1.022-0.575-2.16-0.72v-0.72c3.368,0.737,6.865,1.778,10.08,2.52c-0.501,1.411-2.536,3.997-1.08,6.12
			c1.057,2.97,3.452,1.803,5.76,3.24c2.131,1.327,3.647,3.702,5.76,5.04c-0.44,1.119-1.68,2.13-2.52,2.88
			c-0.093,3.959,0.967,3.689,2.88,5.4c2.974,0.062,4.635-0.411,5.76-2.16c2.273,1.872,3.844,4.214,6.48,5.76v0.72
			c-2.428-0.292-3.297,0.035-5.04,1.08c-0.316,1.191-1.095,2.471-0.36,3.6c0.218,2.001,0.96,2.005,1.8,3.24
			c1.073,0.247,2.957,0.694,3.96,0c2.822-0.16,3.622-2.399,3.24-4.68c2.418,1.188,3.804,3.145,6.12,4.32
			c-0.529,0.919-2.076,1.239-3.24,1.44c-0.182,0.766-0.322,1.302-0.72,1.8c0.152,2.793,1.392,3.37,2.52,5.04
			c2.217,0.053,3.618-0.04,4.68-1.08c1.083-0.532,1.539-1.963,1.8-3.24h0.36c1.205,1.571,3.052,2.058,4.68,3.24
			c0.72,0.84,1.44,1.68,2.16,2.52c4.341,3.093,9.097,5.093,14.4,7.2c2.188,0.869,6.673,2.925,8.64,1.8
			c1.033-0.44,1.285-0.472,0.72-1.44v-0.72c1.25,0.193,1.431,0.455,2.52,0.72c1.115-0.956,3.218-2.011,3.96-3.24
			c0,0,0.279-2.743,0.72-3.6l2.16-2.16v-1.8c0.635-0.905,2.53-1.284,3.24-2.16c1.057-1.305,2.222-6.2,2.52-7.2
			c0.878-2.946-1.24-16.92-2.16-20.88V447.651z M107.264,408.771v0.36c-0.24-0.12-0.48-0.24-0.72-0.36
			c-0.12-0.24-0.24-0.48-0.36-0.72c0.548-0.197,0.602-0.254,1.44-0.36C107.481,408.431,107.535,408.385,107.264,408.771z
			 M104.024,405.171c-3.704-1.334-5.937-5.135-10.08-6.48c-4.468-1.451-19.731,3.903-23.4,5.4c-1.495,0.61-3.723,0.261-5.04,1.08
			h-0.36c0.847-4.161,12.839-7.407,17.28-8.64c2.354-0.653,6.185,0.125,7.2,1.08c2.769,0.155,4.382-0.645,4.32-2.16
			c-1.3-3.15-5.128-1.827-9-2.52c-3.934-0.704-12.388,3.025-16.2,4.32c-1.918,0.652-4.171,0.401-5.76,1.44h-0.72
			c4.143-6.68,9.889-7.573,18-10.08c2.369-0.733,6.273,0.463,8.28-0.72c1.411,0.28,1.269,0.384,1.8,1.44
			c1.717-0.392,2.452-1,3.6-1.8c-0.325-2.012-1.268-2.278-2.16-3.6c-6.918-1.181-18.863,2.769-24.12,5.04
			c-1.868,0.807-4.334,0.91-5.76,2.16h-1.08c0.12-0.12,0.24-0.24,0.36-0.36c1.833-2.586,5.376-2.013,8.28-3.6l1.8-1.8
			c3.264-2.028,7.77-3.329,11.88-4.32c1.514-0.365,10.457-0.443,10.8-0.36c1.202,0.292,2.573,1.717,4.32,0.72h1.08
			c0.238-0.992,0.422-1.374,0.36-1.8c-0.219-1.233-0.419-1.116-0.72-2.16c-7.055-1.352-16.572-1.122-22.68,1.44
			c-4.363,1.83-7.033,5.776-12.96,5.76c-0.12-0.36-0.24-0.72-0.36-1.08c1.287-1.194,2.156-3.357,3.6-4.32
			c6.683-4.456,13.19-5.302,22.32-7.56c2.407-0.595,7.72-1.869,10.8-1.08c3.699,0.947,7.646,0.624,11.88,1.8
			c1.529,0.425,8.864,3.002,10.08,2.88c3.082-0.308,3.765-2.647,6.84-2.88c0.996-7.388,12.713-9.19,17.28-13.32
			c0.935,0.072,1.223,0.159,1.8,0.36c-1.608,4.472-11.965,8.643-15.12,12.6c-2.901,3.638-3.496,10.57-5.4,15.12
			c-0.12,1.2-0.24,2.4-0.36,3.6c-2.293,4.357-12.086,10.188-16.92,12.24C107.725,403.885,105.628,403.915,104.024,405.171z
			 M130.304,392.571v0.72h-1.08v-0.72H130.304z M114.464,404.451v1.44c-0.578-0.205-0.86-0.302-1.8-0.36v-0.36
			c0.448-0.241,0.744-0.391,1.08-0.72H114.464z M156.944,463.851h-0.36v-0.72h0.36V463.851z M248.384,442.251
			c-1.731-1.287-3.556-3.575-5.76-4.32c-4.173-1.411-11.787-1.871-15.84-2.88h-3.96c-1.775-0.451-4.972-1.242-6.48-1.8
			c-1.696-0.627-3.107,0.072-4.32-0.72h-0.36v-0.36c2.588,0.253,17.878,0.997,19.8-0.72c0.866-0.472,0.85-0.734,1.08-1.8
			c0.472-1.031-0.578-2.818-0.36-3.96c-1.855-0.91-3.093-2.252-4.68-3.24c-5.966-3.714-12.898-5.251-17.64-10.08l-0.36-0.36
			c0.12-0.12,0.24-0.24,0.36-0.36c8.917,1.542,15.212,7.393,23.4,9.72c0.651-0.624,1.796-1.315,2.52-1.8
			c-0.043-8.537-5.267-9.955-8.64-14.76c-1.262-1.798-2.99-3.642-3.96-5.4c-0.665-1.206-0.595-2.307-1.44-3.24v-0.72
			c3.378,1.176,6.251,4.877,8.28,7.56c1.32,1.08,2.64,2.16,3.96,3.24c0.919,1.175,1.704,2.723,2.88,3.6
			c1.135,0.846,2.591,1.202,3.6,2.16c2.063,0.002,3.003-0.331,4.32-0.72c0.814-3.503,0.102-8.571-0.72-12.24
			c0.12-1.44,0.24-2.88,0.36-4.32c-0.158-1.023-0.677-3.241,0-4.32v-0.36h0.72c1.035,4.068,2.7,8.474,3.6,12.24
			c0.777,3.254,0.385,6.602,2.16,9.72c0.94,1.65,3.181,2.509,4.32,3.96c1.724,0.034,3.052,0.008,3.96-0.72
			c5.04-2.448,4.221-12.886,11.88-14.04c-0.223,5.57-4.615,6.35-6.48,10.08c-0.868,1.736-1.685,3.682-2.16,5.4
			c-0.277,1.003,0.036,1.887-0.36,2.52c-0.042,5.134,2.257,8.498,5.04,10.8c-0.272,5.776-10.036,13.357-14.4,15.48
			C251.685,444.049,249.806,443.308,248.384,442.251z M254.144,409.131v-1.08c1.735,0.827,2.145,1.032,4.32,1.08
			c-0.144,0.74-0.089,0.694-0.36,1.08c-0.416,1.178-0.764,1.301-1.8,1.8C255.719,411.108,254.906,409.911,254.144,409.131z
			 M314.984,481.491v0.36h-0.36c0.12-0.6,0.24-1.2,0.36-1.8C315.357,480.674,315.372,480.866,314.984,481.491z M315.704,478.971
			c-0.441-0.529-0.8-1.512-1.08-2.16c-2.933-1.129-4.257-0.236-6.48-0.72l-2.52,2.52c-0.064,4.112,1.433,4.055,3.6,5.76
			c2.47,0.055,4.382-0.409,5.04-2.16h0.36c-0.379,2.325-1.613,3.058-2.16,5.04h-0.36c-0.6-0.72-1.2-1.44-1.8-2.16
			c-3.22,0.106-4.422,1.031-6.84,2.52c-0.262,1.22-0.421,2.43,0,3.6c-3.392-0.638-5.458-2.941-7.92-4.32
			c-2.022-1.133-3.937-1.284-5.76-2.52c-7.054-4.782-13.721-10.347-20.52-15.48c-3.83-2.892-6.66-7.544-10.8-10.08v-0.36
			c1.073,0.247,2.957,0.694,3.96,0c1.488-0.453,3.141-2.219,2.52-3.6c-0.086-2.677-1.14-2.713-2.16-4.32
			c-4.218-0.299-7.961,0.368-7.2,4.68c-1.934-0.692-2.729-2.531-4.32-3.6v-0.72c4.565-2.222,7.849-5.669,11.88-8.28
			c1.761,4.951,3.101,6.557,8.28,3.96c0.438-1,1.183-2.778,0.36-3.96c-0.13-2.16-3.178-4.169-5.4-2.52h-0.72
			c1.467-2.351,3.423-4.239,4.68-6.84c3.517,0.389,4.585,3.416,6.84,5.04c3.093,2.228,6.436,5.577,8.64,8.64
			c1.918,2.665,3.12,6.018,5.76,7.92v0.36c-3.483-1.05-3.733-0.824-6.84,1.08c-0.159,0.748-0.342,1.642-0.72,2.16
			c0.257,2.3,1.514,2.496,2.52,3.96c2.201,0.042,4.444-0.275,5.04-0.72c1.301-0.853,1.794-1.775,1.8-3.96
			c1.423,0.706,3.15,3.313,3.96,4.68h2.16c0.232-0.621,0.07-0.352,0.36-0.72c-0.68-5.641-6.84-9.478-9.72-13.32
			c-1.453-1.938-2.709-4.721-4.68-6.12c1.064-0.65,3.223-0.998,4.68-1.8c0.129-3.824-0.101-3.861-1.8-6.12
			c-0.766-0.182-1.302-0.322-1.8-0.72c-3.619-0.069-3.735,0.864-5.4,2.52c-0.37,0.291-0.089,0.133-0.72,0.36
			c-1.25-2.264-2.812-2.634-0.72-5.04c0.075-2.046,0.085-2.734-1.44-3.24c0.357-0.566,3.266-1.497,3.96-1.8
			c0.265-1.106,0.702-2.184,0.36-2.88c-0.133-3.172-1.824-3.263-3.6-4.68c-2.017,0.051-3.633,0.426-4.68,1.44
			c-0.45,0.561-0.641,1.592-1.08,2.16c0.123,2.197,0.761,3.42,2.16,4.32c-1.446,0.689-3.311,0.507-4.68,2.16
			c-0.317-0.242-1.343-1.721-2.16-2.52c0.477-0.868,2.053-1.68,2.88-2.16c0.002-1.197,0.103-2.142,0.36-2.88
			c-1.344-1.068-1.49-2.484-3.6-2.88c-0.795-0.305-0.404-0.28-1.08,0.36h-0.72c0.24-1.2,0.48-2.4,0.72-3.6
			c0.596-1.207,2.005-1.903,2.52-3.24h0.72c0.286,1.081,0.556,1.266,0.72,2.52c1.485,0.313,3.581,1.654,5.04,0.72
			c2.723-0.26,1.809-1.494,2.88-3.24c0.05-3.425-2.377-5.237-5.04-4.68c0.736-4.445,1.559-5.257,0.72-10.44l-0.36-0.36
			c-1.75-0.102-3.178-0.564-4.32-0.36c-2.218,0.395-8.208,5.649-8.64,7.92h-0.36c-0.607-1.89-1.618-1.765-2.88-2.88
			c-2.821,0.015-3.574,0.644-5.4,1.44c-0.762-2.127-1.04-6.025-2.52-7.56v-1.08c1.197,0.569,1.499,1.95,2.52,2.52
			c0.554,0.309,1.063,0.072,1.44,0.36c3.59,0.064,3.549-1.019,5.04-2.88c-0.001-1.513-0.075-2.439-0.72-3.24
			c-0.711-1.121-2.851-2.672-4.32-1.8c-2.164,0.054-3.103,0.876-3.6,2.52c-0.74-0.144-0.694-0.089-1.08-0.36
			c-0.51-0.932-0.469-3.183-1.44-4.68l-2.16-2.16c-0.912-0.038-1.334-0.044-1.8-0.36c-5.096,0.532-4.687,16.68-2.52,19.44
			c0.014,1.374-0.054,2.719-0.36,3.6c-3.743-0.236-4.482-3.712-6.84-5.4c0.503-0.324,0.701,0.438,1.8,0
			c0.936-0.373,0.956-1.369,2.16-1.8c0.12-1.2,0.24-2.4,0.36-3.6c-0.6-0.84-1.2-1.68-1.8-2.52c-0.766-0.182-1.302-0.322-1.8-0.72
			c-4.042-0.107-3.827,1.056-5.4,3.24c-3.045-0.35-4.433-4.718-10.08-4.68c0.544-1.638,1.129-2.438,1.08-5.04l-2.88-2.88
			c-1.049-0.011-1.962-0.018-2.52,0.36c-3.196,0.034-2.574,1.247-3.96,2.88c0.005,3.448,1.108,3.623,2.52,5.4
			c2.134-0.041,2.425-0.091,4.32,0c-0.335,0.328-0.627,0.486-1.08,0.72c0.167,7.994,6.531,11.786,10.08,16.56
			c1.366,1.838,2.237,4.298,3.96,5.76v0.72c-4.317-0.893-7.238-4.698-11.88-5.04c0.434-0.754,1.426-1.072,2.16-1.44
			c0.429-0.978,1.125-2.485,0.36-3.6c-0.262-2.597-1.803-2.647-3.24-3.96c-2.518,0.183-3.679,0.975-5.4,1.8
			c-0.353,1.54-0.663,3.592,0.36,4.68v0.72c-1.503-0.675-4.078-0.887-5.76-1.44c-0.48,0.48-0.96,0.96-1.44,1.44
			c-1.078,1.457-0.975,3.125-0.72,5.04h1.08c1.253,1.977,3.917,3.336,6.12,4.32c-0.753,0.38-0.879-0.328-2.16,0
			c-1.62,0.414-3.354,1.42-4.68,2.16c-0.133,1.874-0.451,3.055,0.36,4.32c0.508,0.71,0.474,0.759,1.44,1.08
			c1.182,0.926,4.304,1.065,5.4,0c1.071-0.419,1.007-0.841,1.8-1.44c0.037-1.257,0.121-2.883-0.36-3.6v-0.72
			c4.855,1.341,8.89,4.879,12.96,7.2c-0.24,0.36-0.48,0.72-0.72,1.08c-5.52-0.109-13.293-0.837-17.64,0.36
			c-1.602-2.09-4.614-5.257-7.92-2.52c-1.704-0.946-1.226-3.738-1.8-5.76c1.13-0.724,1.852-1.748,2.88-2.52
			c0.23-4.409-2.47-8.471-6.84-6.12c-1.707,0.919-1.936,3.67-2.52,4.68c0.295,1.711,1.188,2.581,2.52,3.24
			c-2.636,4.495-5.982,7.533-9,11.52c-1.105,1.459-2.914,2.008-3.6,3.96c-0.904-0.499-1.997-2.376-2.52-3.24
			c-0.621-0.232-0.352-0.07-0.72-0.36c-4.807-0.094-4.549,1.217-6.84,3.24c0.001,1.513,0.075,2.439,0.72,3.24
			c0.876,1.348,1.64,1.832,3.96,1.8c-1.258,3.506-5.327,5.093-6.84,8.28c-0.815-0.391-2.912-2.511-3.6-3.24
			c-3.257,0.053-3.758,1.17-6.12,1.8c-0.239,1.039-0.664,2.638,0,3.6c0.181,2.37,1.921,3.183,4.32,3.24v0.36
			c-2.446,1.445-3.325,3.243-5.04,5.4v0.36c-0.36-1.08-0.72-2.16-1.08-3.24c-0.418-0.6-1.327-0.808-1.8-1.44
			c-1.594-0.028-1.685-0.489-3.24,0c-0.911,0.287-2.524,2.091-3.6,1.8c-1.56-1.68-3.12-3.36-4.68-5.04
			c-4.964-4.978-8.997-10.947-14.04-15.84c0.251-0.358,3.302-1.851,4.32-2.16c0.363-1.614,0.624-3.843-0.36-5.04
			c-1.039-1.55-2.43-1.469-3.96-2.52c-2.431,0.259-4.637,1.26-5.04,3.6c-2.443-1.664-3.669-4.805-6.12-6.48
			c0.675-0.481,1.694-0.25,2.52-0.72c0.942-0.536,1.408-2.106,2.16-2.88c-0.082-0.835-0.071-1.015-0.36-1.44
			c-0.129-2.301-0.886-2.264-1.8-3.6c-3-0.818-8.107-0.874-7.2,2.88h-0.72c-1.32-1.32-2.64-2.64-3.96-3.96v-0.36
			c0.96,0.12,1.92,0.24,2.88,0.36c0.675-0.715,1.381-1.163,2.52-1.44c0.201-1.298,0.721-2.492,0.36-3.24v-0.36
			c4.477,0.112,5.148-0.495,7.2-2.52c-0.057-3.556-1.868-4.002-3.6-5.76c1.443-0.731,2.651-1.712,3.96-2.52
			c0.927,2.015,1.877,3.43,4.32,3.96c0.529,0.282,1.467,0.161,2.16-0.36c2.189-0.158,3.126-1.424,3.24-3.6h0.72
			c1.146,2.228,3.809,5.351,5.76,6.84c-0.284,0.471-4.368,2.841-5.04,3.24c-0.232,0.621-0.07,0.352-0.36,0.72
			c0.115,2.545,0.951,3.047,1.8,4.68c4.218,1.008,3.538,0.671,7.56,0c0.546-1.071,0.954-1.28,1.08-2.88
			c1.08,1.08,2.16,2.16,3.24,3.24c-1.054,0.808-2.547,1.519-3.6,2.16c-0.12,1.2-0.24,2.4-0.36,3.6
			c0.998,0.962,1.374,2.011,2.88,2.52c2.149,1.648,5.445,0.201,6.48-1.44c0.971,0.332,1.054,0.618,1.8,1.08
			c-0.454,1.855-1.587,1.585-2.16,2.88c-1.962,4.437,2.747,6.654,7.2,6.48c1.406-1.391,4.527-5.227,1.08-7.2
			c0.403-2.716,2.635-6.733,4.68-7.92c0.543,0.046,0.574,0.716,1.44,1.08c2.869,1.207,4.547-0.744,6.12-1.8
			c0.043-2.813-0.399-4.118-1.8-5.4c-0.308-0.239-1.13-0.487-1.44-0.72c-0.081-0.047,2.439-4.034,3.24-4.68
			c0.158-0.285,3.263,1.757,5.4,1.08c1.019-0.323,1.993-1.263,2.88-1.8c0.196-0.981,0.504-1.354,0-2.16
			c-0.03-2.161-0.616-3.294-2.52-3.6v-1.44c1.535-1.456,2.436-3.569,3.96-5.04c0.351-0.724,1.913,1.549,2.52,1.8
			c1.714,0.709,3.356,0.081,4.32,0.36c0.576-0.89,1.02-1.433,2.16-1.8c0.158-1.163,0.526-1.671,0-2.52
			c0.035-3.1-1.699-4.324-4.68-4.32c1.88-2.95,3.976-6.604,6.48-9v-0.36c0.205,0.421,0.36,3.6,0.36,3.6
			c0.495,0.648,1.314,0.963,1.8,1.8c1.709,0.153,2.84,1.017,3.96,0.36c1.972-0.107,4.594-2.325,3.24-4.32
			c-0.206-2.007-0.976-2.334-1.8-3.6c-1.112-0.255-3.274-0.722-4.32,0h-0.72v-0.36c1.32-1.2,2.64-2.4,3.96-3.6
			c0.688,0.378,2.924,2.568,3.6,3.24c1.329,0.041,3.186,0.158,3.96-0.36c1.092-0.389,1.066-0.331,1.44-1.44
			c0.829-1.059,0.81-2.629,0-3.6c-0.083-1.464-0.177-1.386-0.72-2.16c-0.621-0.232-0.352-0.07-0.72-0.36
			c1.852-0.456,3.394-1.494,3.96-3.24h0.72c-0.24,0.72-0.48,1.44-0.72,2.16c1.255,1.027,3.816,4.635,6.48,2.88
			c2.303-0.18,3.206-1.563,3.6-3.6c6.457,1.953,16.589,0.188,24.48-0.72c0.057,3.169,1.867,3.298,3.6,4.68
			c5.265,0.218,5.87-2.81,4.68-6.84c0.12-0.12,0.24-0.24,0.36-0.36c1.44,0.35,1.283,0.827,2.88,1.08
			c-0.065,2.37,0.376,3.14,1.44,5.04c1,0.438,2.778,1.183,3.96,0.36c3.028-0.065,3.432-1.904,3.6-4.68
			c2.64,0.36,5.28,0.72,7.92,1.08c-0.439,1.141-1.558,1.934-2.52,2.52c-0.037,3.48,0.884,3.552,2.16,5.4
			c1.66,0.069,3.453,0.518,4.32,0c1.406-0.503,1.506-1.361,2.52-2.16c-0.082-0.835-0.071-1.015-0.36-1.44v-0.72
			c3.146,2.051,5.604,6.134,7.56,9.36c0.778,1.283,0.861,2.885,1.8,3.96c-0.936,0.518-0.982-0.345-2.16,0
			c-0.681,0.2-1.755,1.096-2.52,1.44c-0.86,4.165-0.606,3.275,1.8,6.48c2.889,0.256,3.843,0.155,5.76-1.08
			c1.311,2.996,3.02,9.237,5.04,11.52v0.36c-1.191-0.316-2.471-1.095-3.6-0.36c-2.424-0.007-3.185,0.572-3.96,2.16l-0.36,0.36h0.36
			c-0.114,3.288,4.038,7.207,7.56,4.68c1.096-0.456,0.831-0.119,1.08-1.44c2.251,2.865,1.541,8.476,3.96,11.16
			c-0.374,0.52-3.362,1.176-4.68,1.44c-0.229,0.803-0.266,0.951-0.72,1.44c-0.017,2.872,0.564,3.369,1.44,5.04
			c2.099,0.52,3.728,0.86,5.76,0c2.899,6.249,3.018,13.46,5.04,20.88C314.065,453.528,315.955,467.076,315.704,478.971z
			 M257.024,278.811c1.111-0.017,1.845-0.125,2.52-0.36v-2.16c-1.549-0.295-7.758-3.96-8.64-5.04c-2.03,0.053-2.35,0.452-3.6,1.08
			c0.038,0.912,0.044,1.334,0.36,1.8C248.625,275.973,255.152,277.162,257.024,278.811z M232.184,275.931
			c1.928-0.898,2.125,0.113,3.24-1.44c0.291-0.37,0.133-0.089,0.36-0.72c-0.472-0.482-0.781-1.144-1.08-1.8h-2.16
			c-2.823,2.324-7.154,3.624-8.28,7.56h-0.36c0.232,0.621,0.07,0.352,0.36,0.72c0.348,0.289,0.987,0.531,1.44,0.72
			C227.266,279.442,230.257,276.829,232.184,275.931z M258.824,283.491c-0.072-0.935-0.159-1.223-0.36-1.8
			c-2.883,0.172-4.108,2.509-7.2,1.8c-2.455-0.563-2.899-2.066-6.12-2.16c-0.376,0.67-0.755,1.365-1.08,2.16
			c5.248,5.047,8.539,3.9,14.4,0.72C258.697,283.59,258.535,283.859,258.824,283.491z M221.744,285.651
			c2.18,6.301,13.709,3.334,17.64,0.72c-0.1-1.498-0.216-1.854-1.08-2.52c-0.551-0.254-1.685,0.145-2.52-0.36
			c-0.957,0.435-1.638,1.311-2.16,2.16c-1.923,0.045-3.854,0.742-6.12,0c-1.934-0.633-2.175-2.059-5.04-2.16
			C221.891,284.398,221.191,284.558,221.744,285.651z M543.944,290.331c-0.535-4.735-7.425-0.884-11.16-0.72
			c-0.056,3.08,0.381,1.963,1.08,3.96c0.562,1.607-0.75,4.335,0.36,6.12c0.506,1.382,1.239,1.3,2.16,2.16
			c2.834-0.158,4.383-1.133,6.84-1.44c0.24-0.959,0.887-1.752,1.08-2.52C544.946,295.344,542.67,292.431,543.944,290.331z
			 M539.264,297.531c-0.941-0.289-0.853-0.447-1.8-0.72c-0.105-1.425-0.532-2.366,0-3.24c0.258-1.125,0.237-0.755,0.72-1.44
			c0.884,0.283,1.251,0.512,1.8,1.08c0.238,0.308,0.487,1.13,0.72,1.44C540.432,296.136,539.887,296.49,539.264,297.531z
			 M258.824,293.931c1.025-0.04,1.539-0.144,2.16-0.36c0.232-0.621,0.07-0.352,0.36-0.72c-0.071-1.5-0.251-1.65-0.72-2.52
			c-0.84-0.12-1.68-0.24-2.52-0.36c-0.56,1.121-0.35,1.591-0.72,2.88C258.068,293.209,258.373,293.347,258.824,293.931z
			 M219.584,291.771c0.187,1.968,1.113,2.257,2.52,2.88c0.317-0.524,0.65-1.029,1.08-1.44c-0.039-1.025-0.144-1.539-0.36-2.16h-1.8
			C220.54,291.502,220.393,291.56,219.584,291.771z M243.704,297.891c-1.19,0.089-2.516,0.886-1.8,1.44
			c0.255,1.341,0.528,1.273,1.08,2.16c5.947-0.013,9.205-2.112,13.32-4.68c-0.206-1.799-0.831-2.209-1.44-3.6
			c-2.054-0.372-3.521,0.462-6.48-0.36c-1.784-0.495-3.628-1.551-5.76-1.8c-0.408,0.428-0.914,0.773-1.44,1.08
			c-0.069,1.4,0.089,1.191,0.72,2.52c1.199,0.451,2.676,0.709,3.6,1.44h5.04C249.456,297.888,244.899,297.273,243.704,297.891z
			 M513.704,305.091c0.221-1.042,0.874-2.177,1.08-2.88c0.914-3.113-1.298-6.052,0-8.28c-0.008-0.982-0.014-1.65-0.36-2.16
			c-1.731-1.25-5.105-0.39-7.2-0.72c-0.408,0.428-0.914,0.773-1.44,1.08c-0.139,5.728-2.183,8.438,0,12.96
			c1.957,0.349,5.716-0.579,6.84,0H513.704z M509.384,301.131c-0.37,0.291-0.089,0.133-0.72,0.36c-0.12-0.12-0.24-0.24-0.36-0.36
			c-0.011-2.045,0.059-4.219,0.36-5.76h1.44c0.339,0.781,0.47,1.292,1.08,1.8C511.325,299.659,511.346,300.646,509.384,301.131z
			 M225.704,293.211c0.008,0.982,0.014,1.65,0.36,2.16c0.12,0.36,0.24,0.72,0.36,1.08c1.622-0.094,1.729-0.383,2.88-0.72
			c0.174-0.997,0.434-1.04,0-1.8v-0.72C227.726,293.031,227.283,293.032,225.704,293.211z M237.944,293.931
			c-0.24-0.24-0.48-0.48-0.72-0.72c-0.72-0.12-1.44-0.24-2.16-0.36c-0.3,0.531-0.681,1.328-1.08,1.8v1.08
			c0.766,0.182,1.302,0.322,1.8,0.72C237.134,295.974,237.412,295.156,237.944,293.931z M525.224,295.011v-0.72h-0.72
			C524.568,295.271,524.241,294.746,525.224,295.011z M216.704,298.251c0.37,0.291,0.089,0.133,0.72,0.36
			c0.498-0.534,1.167-1.051,1.8-1.44c-0.12-0.72-0.24-1.44-0.36-2.16c-0.84-0.12-1.68-0.24-2.52-0.36
			C215.679,295.789,214.912,297.576,216.704,298.251z M223.544,297.531c-0.12-0.36-0.24-0.72-0.36-1.08
			c-1.391,0.038-1.829,0.082-2.52,0.72c-0.48,0.589-0.614,1.139-0.72,2.16c0.835,0.082,1.015,0.071,1.44,0.36
			C223.233,299.723,224.418,298.92,223.544,297.531z M257.024,302.211c-0.12-0.72-0.24-1.44-0.36-2.16
			c-0.72-0.12-1.44-0.24-2.16-0.36c-0.847,1.314-1.607,2.88,0.72,3.6c0.37,0.291,0.089,0.133,0.72,0.36
			C256.302,302.968,256.44,302.662,257.024,302.211z M231.104,300.771c0.194,1.827,0.7,1.767,1.44,2.88
			c0.835-0.082,1.015-0.071,1.44-0.36c0.611-0.72,0.949-1.688,1.08-2.88c-0.74-0.144-0.694-0.089-1.08-0.36
			C232.366,300.081,232.02,300.277,231.104,300.771z M223.904,304.011l-0.36-0.36c-0.84,0.12-1.68,0.24-2.52,0.36v2.88
			c1.72-0.002,2.279-0.201,3.24-0.72C224.144,305.451,224.024,304.731,223.904,304.011z M234.704,315.531
			c5.944,2.084,14.481,5.716,19.8,1.44c1.064-0.8,1.765-2.913,1.44-3.96c-0.329-0.777-0.312-0.523-0.72-1.08
			c-2.928,0.357-3.909,2.584-6.84,3.24c-2.782,0.622-4.956-1.239-6.84-1.8c-3.617-1.076-7.5-0.954-10.8-2.16
			c-3.511,2.076-6.183-1.217-7.92,4.32c-2.62,3.632-0.102,8.947,1.08,11.52c4.192,9.125,21.875,11.44,30.6,5.76v-2.16
			c-3.744-0.626-7.076,1.038-10.44,1.44c-2.699,0.322-11.052-1.445-13.32-2.88c-1.497-0.948-2.264-2.767-3.24-4.32
			c-1.176-1.873-3.268-5.51-1.08-8.28C227.607,314.423,232.451,314.741,234.704,315.531z M503.264,323.091
			c-1.44,2.029-5.808,2.096-7.92,3.24c0.166,4.163-0.639,8.033-0.36,11.52c2.55,0.542,8.356,0.824,10.08-0.72
			c2.558-0.982,4.141-9.629,2.16-12.6C506.564,323.541,504.523,323.455,503.264,323.091z M503.984,332.451v1.44
			c-1.243-0.188-2.781-0.47-3.6,0.36h-1.8c0.268-1.47,0.3-4.02,1.08-5.04c0.36-0.36,0.72-0.72,1.08-1.08h3.24
			c0.12,0.12,0.24,0.24,0.36,0.36C504.368,330.23,504.33,331.816,503.984,332.451z M524.504,328.131c-0.84-0.12-1.68-0.24-2.52-0.36
			c-1.029,0.762-5.339,1.48-6.12,1.08c-0.83,0.117-0.894,0.167-1.44,0.36c-0.576,2.662,0.076,7.583-1.8,9.72
			c0.36,0.48,0.72,0.96,1.08,1.44c3.734,0.739,8.972,0.228,11.52-2.16c0.861-1.088,1.64-5.365,0.36-7.2
			C525.49,329.177,525.166,329.182,524.504,328.131z M522.344,335.691c-0.24,0.24-0.48,0.48-0.72,0.72
			c-0.621,0.232-0.352,0.07-0.72,0.36c-1.465,0.018-3-0.027-3.96-0.36c0.247-1.524,0.656-1.799,0.72-3.6
			c1.678-0.273,2.462-0.736,4.68-0.72V335.691z M488.504,331.371c-1.08-0.12-2.16-0.24-3.24-0.36c-1.933,1.505-5.673,0.472-7.92,1.8
			c-0.672,0.923-2.117,10.316-1.8,10.8c0.518,1.273,1.387,1.219,2.16,2.16c2.584-0.068,5.45,0.863,7.56-0.72
			c2.295-0.057,2.617-0.623,3.96-1.44c-0.254-1.337-1.203-3.537-1.08-4.68C488.5,335.622,490.026,334.079,488.504,331.371z
			 M484.904,337.851c0.021,1.557,0,3.278-0.36,4.32c-0.997,0.174-1.04,0.434-1.8,0c-1.374,0.014-2.719-0.054-3.6-0.36
			c-0.011-2.559,0.347-3.816,1.08-5.4c1.368-0.569,3.191-1.004,5.04-1.08C485.275,336.38,485.282,337.293,484.904,337.851z
			 M232.904,370.251c0.132-0.113-0.191-2.44-0.36-3.96c-1.651-0.855-2.861-1.758-5.4-1.8c-1.58,1.136-2.658,1.028-3.24,3.24
			c-0.745,1.593,1.32,3.8,2.16,5.04h4.68C231.616,371.865,232.437,371.637,232.904,370.251z M240.464,366.291
			c-1.32-0.12-2.64-0.24-3.96-0.36c-0.736,0.953-2.228,2.223-3.24,2.88c0.241,1.753,0.834,2.979,1.44,4.32
			c1.779,0.427,3.563,0.77,6.12,0.72c0.48-0.48,0.96-0.96,1.44-1.44c0.436-0.673,0.594-3.247-0.36-4.32
			C241.424,367.491,240.944,366.891,240.464,366.291z M263.144,376.011v0.36c2.886,0.147,5.059,0.366,5.76-1.8
			c0.406-0.866-0.224-3.143-0.36-4.68c-1.358-0.709-2.109-1.559-3.96-1.8c-0.776,0.738-1.497,0.465-2.52,1.08
			c-0.73,0.439-1.077,1.62-1.8,2.16C260.243,373.989,261.189,375.406,263.144,376.011z M250.544,371.331
			c-1.2-0.12-2.4-0.24-3.6-0.36c-0.921,0.768-2.279,1.558-3.24,2.16c-0.044,2.984,0.405,3.799,1.44,5.4
			c1.701,0.443,3.871,1.257,5.4,0c1.942-0.641,2.277-1.986,2.16-4.68C251.985,373.011,251.264,372.171,250.544,371.331z
			 M279.344,381.411c1.982,0.064,2.106,0.091,3.96,0c0.498-0.534,1.167-1.051,1.8-1.44c0.054-3.219-0.327-4.394-1.44-6.12
			c-1.717-0.424-2.893-1.033-5.04-1.08c-0.74,1.121-1.628,2.497-2.52,3.6C276.336,379.526,277.924,379.638,279.344,381.411z
			 M218.504,373.131c-0.277,0.248-0.802,0.474-1.08,0.72c-1.452,0.588-1.019,1.373-1.8,2.52c0.058,2.908,1.045,3.049,2.16,4.68
			c1.613,0.427,3.661,1.295,5.04,0c1.698-0.836,1.213-2.404,2.16-3.96c-0.309-1.677-1.058-2.089-1.8-3.24
			C221.736,373.466,220.66,373.094,218.504,373.131z M231.824,378.531c-0.462,0.317-0.888,0.333-1.8,0.36
			c-0.498,0.534-1.167,1.051-1.8,1.44c-0.182,0.766-0.322,1.302-0.72,1.8c0.096,2.138,0.669,2.659,1.44,3.96
			c0.936,0.236,1.868,0.549,2.52,1.08c4.816,0.272,8.088-3.402,5.04-6.84C235.612,379.179,233.836,378.543,231.824,378.531z
			 M260.264,379.611c-1.328,1.103-2.944,2.351-4.32,3.24c0.057,2.974,1.09,2.742,1.8,4.68c1.58,0.383,2.8,0.758,5.04,0.72
			c0.498-0.534,1.167-1.051,1.8-1.44c0.353-1.219,1.149-2.331,0.72-3.24C265.082,380.987,262.601,380.004,260.264,379.611z
			 M205.544,392.211c2.391-0.801,2.214-4.785,0.72-6.48c-0.814-1-2.146-1.433-3.96-1.44c-0.531,0.337-1.788-0.042-2.52,0.36
			c-0.698,0.383-1.222,2.27-1.8,2.88c-0.025,2.528,0.635,4.077,2.52,4.68C201.722,393.126,204.445,393.143,205.544,392.211z
			 M266.384,389.331c0.008,0.982,0.014,1.65,0.36,2.16c0.174,4.907,5.082,3.45,8.28,2.88c0.182-1.2,0.684-2.587,0-3.6
			C274.859,385.067,268.633,387.741,266.384,389.331z M281.504,389.691c-0.242,4.064,3.626,8.107,6.48,5.4
			c1.131-0.425,1.468-0.977,1.8-2.16c0.713-1.014,0.318-2.554-0.36-3.24c-0.692-1.453-2.902-2.197-4.68-2.52
			C283.769,388.029,282.565,389.009,281.504,389.691z M191.504,396.171c-0.708,1.072-1.656,2.239-2.52,3.24
			c0.144,0.74,0.089,0.694,0.36,1.08c0.244,2.735,1.636,2.696,3.24,3.96c4.533,0.16,4.074-0.721,5.76-3.24
			c-0.205-2.386-1.183-2.854-2.16-4.32C194.736,396.506,193.66,396.134,191.504,396.171z M209.144,396.891
			c-0.607-0.46-1.534-0.632-2.52-0.72c-1.025,0.849-2.831,1.54-3.96,2.16c0.019,2.321,0.469,3.313,0.72,5.04
			c0.862,0.407,1.865,0.814,2.52,1.44c1.725,0.034,3.052,0.008,3.96-0.72c0.6-0.6,1.2-1.2,1.8-1.8
			C211.772,399.357,211.226,397.579,209.144,396.891z M286.184,397.971c-1.626-0.372-2.852-0.748-5.04-0.72
			c-0.96,0.96-1.92,1.92-2.88,2.88c0.28,1.889,1.025,2.689,1.44,4.32c1.105,0.227,2.481,0.486,3.24,1.08
			c2.03-0.053,2.35-0.452,3.6-1.08c0.234-1.037,0.479-1.874,1.08-2.52C287.534,399.467,286.777,399.628,286.184,397.971z
			 M134.624,410.931c0.101-2.557,0.009-3.535-1.08-5.4c-1.628-0.681-3.388-1.115-5.76-1.08c-0.677,0.743-1.44,1.454-2.52,1.8
			c-1.292,5.348,1.21,4.844,4.68,7.2C132.94,413.375,132.954,412.134,134.624,410.931z M187.184,412.011
			c0.146-3.594-1.343-5.038-4.68-5.04c-0.462,0.317-0.888,0.333-1.8,0.36c-1.069,1.098-2.175,1.335-2.52,3.24
			c-1.005,2.169,1.611,3.912,2.88,5.04C184.445,415.663,187.451,414.437,187.184,412.011z M291.584,417.771
			c2.805,0.038,3.2-0.449,4.68-1.44c0.06-1.563,0.39-3.254,0-3.96c-0.67-1.962-2.679-2.934-5.4-2.88
			c-0.576,0.531-0.728,0.582-1.8,0.72c-0.491,0.969-1.05,1.816-1.8,2.52c0.052,2.531,1.331,4.085,3.24,4.68
			C291.132,417.897,291.113,417.437,291.584,417.771z M138.224,418.851c-0.235-2.212-1.146-1.982-2.16-3.24h-4.32
			c-0.84,0.6-1.68,1.2-2.52,1.8c-0.351,1.559-0.594,3.521,0.36,4.68c1.031,1.552,4.059,2.303,5.4,1.44
			c2.001-0.218,2.005-0.96,3.24-1.8C138.446,420.741,138.822,419.734,138.224,418.851z M173.504,418.851
			c-0.866,0.861-2.225,1.875-3.24,2.52c0.082,0.835,0.071,1.015,0.36,1.44c0.064,2.554,0.838,2.853,1.8,4.32
			c1.704,0.096,3.2,0.706,3.96,0.36c2.184-0.27,2.197-1.538,3.6-2.52c-0.009-1.543-0.181-3.154-0.36-3.6
			C178.579,419.077,175.717,419.097,173.504,418.851z M188.984,419.571c-0.505-0.346-1.181-0.363-2.16-0.36
			c-0.717,0.413-2.263-0.096-3.24,0.36c-3.173,1.48-0.236,5.674,0.72,7.2c4.653,0.204,4.234,0.229,7.2-1.8
			c0.037-1.257,0.121-2.883-0.36-3.6C190.719,420.24,190.168,419.903,188.984,419.571z M290.864,423.171
			c-0.554,2.459-0.094,5.048,2.16,5.76c0.835,0.62,3.433,0.983,4.32,0.36c1.857-0.613,2.506-2.276,2.88-4.32
			c-0.846-0.873-1.832-2.292-2.52-3.24c-1.44-0.12-2.88-0.24-4.32-0.36C292.666,422.003,291.65,422.68,290.864,423.171z
			 M144.344,424.971c-0.631-0.457-1.912-0.641-2.88-0.72c-0.539,0.555-1.699,0.851-2.16,1.44c-0.547,0.699-0.501,1.549-1.08,2.16
			c-0.136,5.513,3.708,4.57,7.2,5.4c0.829-1.187,1.821-1.826,2.52-3.24C148.981,428.209,146.098,425.437,144.344,424.971z
			 M154.064,432.171c-0.501,0.329-2.014,0.402-2.52,0.72c-2.095,0.474-2.949,2.373-2.88,5.04c0.808,0.76,1.631,1.868,2.16,2.88
			c2.056,0.092,3.049,0.502,3.96,0c1.839-0.1,2.062-0.49,3.24-1.08c0.654-2.88,0.457-4.104-0.72-6.48
			C156.225,432.891,155.144,432.531,154.064,432.171z M308.864,439.011c0.149-1.919,0.225-3.193,0-5.04
			c-1.947-0.975-3.354-1.848-6.48-1.8c-0.277,0.248-0.802,0.475-1.08,0.72c-1.157,0.487-0.968,1.091-1.8,1.8
			c-0.079,3.477,1.279,5.126,3.96,5.76C304.911,441.492,307.38,439.966,308.864,439.011z M163.784,433.971
			c-1.864,1.396-2.101,1.481-3.6,3.24c0.158,2.631,1.439,3.075,2.52,4.68c1.446,0.077,2.515,0.405,3.24,0
			c2.484-0.143,2.498-1.152,3.96-2.16c-0.007-3.496-1.126-3.901-2.52-5.76H163.784z M142.904,436.131
			c-1.909,1.097-7.164,1.371-5.4,4.68c0.23,1.997,1.054,2.185,1.8,3.6c1.528,0.12,3.182,0.753,4.32,0
			c1.932-0.153,2.461-0.96,2.88-2.52c0.485-0.68,0.498-2.2,0-2.88C145.986,437.462,144.549,436.517,142.904,436.131z
			 M298.424,441.891c-1.404-0.323-3.018-0.503-3.96-0.72c-1.507,1.346-2.898,1.337-3.6,3.6c-0.231,0.536-0.447,0.156,0,0.72
			c0.163,2.878,1.657,2.673,2.88,4.32c4.667-0.196,3.545-0.274,6.12-3.24C299.754,444.407,299.12,443.401,298.424,441.891z
			 M151.904,445.851c-0.462,0.317-0.888,0.333-1.8,0.36c-0.408,0.428-0.914,0.773-1.44,1.08c-0.322,1.211-1.176,2.743-0.36,3.96
			c0.252,2.461,1.525,2.046,2.88,3.24c1.32-0.12,2.64-0.24,3.96-0.36c0.72-0.6,1.44-1.2,2.16-1.8c0.036-3.57-0.858-3.856-2.16-5.76
			C154.065,446.331,152.984,446.091,151.904,445.851z M224.264,455.931c0.498-0.534,1.167-1.051,1.8-1.44
			c0.351-1.559,0.594-3.521-0.36-4.68c-0.576-0.89-1.02-1.433-2.16-1.8c-0.551-0.377-1.475-0.382-2.52-0.36
			c-1.058,0.882-2.502,1.82-3.6,2.52c0.02,3.167,0.978,3.637,2.16,5.4C220.853,455.832,222.52,455.96,224.264,455.931z
			 M275.744,448.011c-0.808,0.788-2.29,1.59-3.24,2.16c-0.211,1.283-0.043,2.128-0.36,3.24c0.6,0.72,1.2,1.44,1.8,2.16
			c0.751,0.149,1.972,0.342,2.52,0.72c4.115,0.177,4.871-1.429,5.4-4.68c-0.622-0.633-1.063-1.664-1.44-2.52
			C279.239,448.613,277.117,448.443,275.744,448.011z M306.344,449.811c-0.781,0.653-2.051,1.302-2.88,1.8
			c-0.024,1.117-0.051,2.272,0.36,2.88c0.118,2.067,2.922,4.04,4.68,2.88c3.124-0.044,2.899-1.312,4.32-2.88
			c-0.175-2.231-0.948-2.901-1.8-4.32C309.465,450.051,307.904,449.931,306.344,449.811z M236.864,455.931
			c-0.544,0.514-1.396,0.786-2.16,1.08c-0.666,1.519-1.291,3.072-0.36,4.32c0.194,1.827,0.7,1.767,1.44,2.88
			c1.385,0.095,2.535,0.34,3.6,0.72c3.703-3.284,4.001-1.433,3.24-7.56C240.829,456.474,239.89,455.851,236.864,455.931z
			 M273.224,459.171c-0.737,0.679-2.07,0.83-2.88,1.44c-1.03,0.84-0.723,2.08-1.44,3.24c0.316,2.14,4.46,5.21,7.2,3.24
			c1.596-0.603,2.196-2.513,2.52-4.32c-0.858-0.975-1.838-2.179-2.52-3.24C275.144,459.411,274.184,459.291,273.224,459.171z
			 M308.864,463.131c-1.399,1.06-2.385,1.744-3.6,2.88c-0.022,1.979,0.145,3.009,1.08,3.96c1.517,1.303,4.868,1.372,6.48,0
			c1.551-0.696,0.672-1.912,1.44-3.24c-0.242-1.571-0.787-2.429-2.16-2.88C311.445,463.387,309.83,463.207,308.864,463.131z
			 M299.864,470.691c0.203-2.169,0.503-3.587-0.72-5.04c-0.713-0.907-1.213-1.069-2.88-1.08c-0.36,0.257-1.437,0.471-1.8,0.72
			c-2.186,0.221-1.815,0.993-2.88,2.16c0.008,0.982,0.014,1.65,0.36,2.16c0.243,2.539,1.305,1.838,2.88,2.88
			C297.466,472.435,298.314,471.671,299.864,470.691z M222.104,465.291c-0.634,1-1.376,2.302-2.16,3.24
			c0.032,1.384,0.121,2.135,0.72,2.88c0.627,1.356,1.804,1.64,2.88,2.52c3.144-0.199,4.117-1.306,5.76-2.88
			c-0.104-1.422-0.409-2.702-1.08-3.6C227.121,465.841,224.841,465.239,222.104,465.291z M251.264,475.371
			c0.381-1.283,1.478-2.724,0.72-3.96c-0.005-3.294-2.428-3.445-5.76-3.24c-0.634,0.585-0.907,0.652-2.16,0.72
			c-0.339,0.781-0.47,1.292-1.08,1.8c0.194,0.931,0.352,1.592,0.36,2.88c0.72,0.84,1.44,1.68,2.16,2.52
			C247.954,476.1,249.625,475.783,251.264,475.371z M297.344,475.011c-1.025,0.849-2.831,1.54-3.96,2.16
			c-0.187,1.765-0.708,3.162,0.36,4.32c0.528,1.059,1.368,1.074,2.16,1.8c4.331,0.046,5.809-1.815,6.48-5.4
			c-0.812-0.818-1.85-1.981-2.52-2.88H297.344z M234.344,476.811c-0.372,0.285-0.898,0.05-1.44,0.36
			c-0.719,0.411-1.097,1.628-1.8,2.16c0.086,3.364,1.499,3.39,2.52,5.4c1.993,0.147,3.686,0.727,5.04-0.36
			c3.115-2.125,1.588-4.973,0-7.2C237.225,477.051,235.784,476.931,234.344,476.811z M248.384,479.691
			c-0.699,0.661-2.073,1.326-2.88,1.8c-1.046,4.323,0.142,3.004,2.16,5.76c1.875,0.19,3.71,0.715,5.04-0.36
			c0.78-0.619,1.024-1.536,1.8-2.16c-0.001-1.513-0.075-2.439-0.72-3.24C253.08,479.48,251.153,479.545,248.384,479.691z
			 M219.224,482.571c-0.626,0.495-1.852,0.616-2.52,1.08c-0.835,0.267-0.804,0.374-1.44,0.72c-1.061,4.281,0.002,3.993,2.52,6.48
			c1.257,0.037,2.883,0.121,3.6-0.36c1.352-0.46,1.944-1.301,2.16-2.88c0.484-1.026-0.467-2.486-0.72-3.96
			C221.625,483.291,220.424,482.931,219.224,482.571z M265.664,487.611c-0.423,0.291-0.602,0.29-1.44,0.36
			c-1.08,0.84-2.16,1.68-3.24,2.52c-0.011,1.049-0.018,1.962,0.36,2.52c0.587,1.683,1.745,1.825,2.88,2.88
			c3.269-0.016,3.942-0.947,5.76-2.16c0.129-1.888,0.13-2.432,0-4.32C268.518,488.642,267.812,487.748,265.664,487.611z"/>
	</g>
</g>
<ellipse fill-rule="evenodd" clip-rule="evenodd" cx="357.336" cy="273.35" rx="1.738" ry="1.52"/>
<ellipse fill-rule="evenodd" clip-rule="evenodd" cx="365.372" cy="274.871" rx="1.52" ry="1.738"/>
<ellipse fill-rule="evenodd" clip-rule="evenodd" cx="373.626" cy="273.568" rx="2.389" ry="2.172"/>
<circle fill-rule="evenodd" clip-rule="evenodd" cx="420.54" cy="261.187" r="1.52"/>
<ellipse fill-rule="evenodd" clip-rule="evenodd" cx="427.49" cy="261.622" rx="1.955" ry="1.52"/>
<ellipse fill-rule="evenodd" clip-rule="evenodd" cx="435.092" cy="262.491" rx="2.172" ry="1.955"/>
<ellipse fill-rule="evenodd" clip-rule="evenodd" cx="415.544" cy="302.02" rx="1.738" ry="1.52"/>
<ellipse fill-rule="evenodd" clip-rule="evenodd" cx="422.929" cy="303.323" rx="2.606" ry="1.955"/>
<ellipse fill-rule="evenodd" clip-rule="evenodd" cx="432.92" cy="304.192" rx="3.041" ry="2.389"/>
</svg>
