<?xml version="1.0" encoding="utf-8"?>
<!-- Generator: Adobe Illustrator 21.0.0, SVG Export Plug-In . SVG Version: 6.00 Build 0)  -->
<svg version="1.1" id="Calque_1" xmlns="http://www.w3.org/2000/svg" xmlns:xlink="http://www.w3.org/1999/xlink" x="0px" y="0px"
	 viewBox="0 0 841.9 595.3" style="enable-background:new 0 0 841.9 595.3;" xml:space="preserve">
<style type="text/css">
	.st0{fill:#DADADA;}
	.st1{fill:#FFFFFF;}
	.st2{fill:#1D1D1B;}
</style>
<ellipse class="st0" cx="413.6" cy="414.8" rx="131.9" ry="15.2"/>
<ellipse class="st1" cx="413.6" cy="390.7" rx="131.9" ry="15.2"/>
<g>
	<g>
		<path class="st2" d="M570.7,314.9c-0.1-1.2-0.3-2.2-0.4-3.4c-2.5-6.5-6.7-12.4-10.6-17.7c-1.1-0.9-2.1-1.7-3.3-2.6
			c-2.1-2.6-4-5.2-6.6-7.3c-0.1,0.1-2-1.2-2.4-1.5c-2.4-1.5-4.9-3.6-7-5.3c-4.1-2.4-8.3-4.9-12.4-7.3c-0.8-0.8-0.9-2.1-1.9-2.8
			c-1.2-0.9-2.5-1.1-4-1.9c-1.9-1.3-3.8-2.6-5.7-4c-0.8,0-1.5,0.1-1.7,0.8c-0.9,3.6,0,11.4-4.6,13c-1.2-1.3-3-1.7-3.4-4
			c2.6-1.2,4.2-4.5,4.6-7.8c0.5,0.1,1.1,0.3,1.6,0.3c0.1-0.1,0.1-0.3,0.3-0.3c0-0.1,0.1-0.3,0.1-0.4c-0.7-0.8-1.6-0.9-2.4-1.6
			c-1.2-0.9-1.9-2.5-3.3-3.3c-2.9-1.6-7.9-1.6-11.5-2.1c-0.1,0-0.3,0.1-0.4,0.1c0.3-0.7,0.4-1.2,0.7-1.9c-0.1-2.1-2.6-3.3-4-4.4
			c-1.6-1.5-2.6-3.7-4.4-5c-0.4-0.4-2-0.9-2.9-0.9c-0.4,0.1-0.7,0.3-1.1,0.3c-1.6-0.5-2.9,0.4-4,1.5c0.1,0.3,0.1,0.1,0.3,0.5
			c0.8-0.1,2.4-0.9,2.5-1.6c1.1,0,3.2,0.9,3.7,0.7c0.8,0.3,7.8,8.2,7.9,9c-1.7,2.5-4.1,2.8-7.1,3.7c-2.4-1.5-4.5-2.2-5.4-5
			c-0.4-1.2-0.3-2.4-0.7-3.2c-0.4-0.9-1.1-2.6-0.3-3.3c0-0.1,0-0.3,0-0.3c-0.4,0.1-0.9,0.3-1.3,0.3c0.3-0.3,0.4-0.3,0.5-0.8
			c-0.1,0-0.3,0-0.4,0c-0.1,0.3-0.3,0.5-0.4,0.9c0.1,0.4,0.3,0.3,0.4,0.5c-0.7,0.5-0.3,1.1-0.5,2c0,0.1,0,0.1,0,0.3h-0.1
			c-0.7-0.5-4.2-4.9-4.4-5.3c-1.7-1.5-3.8-2.6-6.3-3.2c-0.7,0-1.3,0-2,0c-1.5-0.4-2.9-1.5-4.6-1.7c-1.1,0.3-2,0.5-3,0.8
			c-2.2,1.1-4.5,2-6.6,3c-0.4,0.5-0.5,0.5-0.4,0.9c-0.5,0.3-0.9,0.4-1.2,0.9c-0.4,0.9,0.3,2-0.1,2.1c-0.5,1.3-2.8,1.5-3.4,2.8
			c-0.3,0.1-0.4,0.1-0.7,0.3c-0.4-0.9-0.8-2.5-1.6-3c-1.3-1.3-4.2,0-5.6,0.4c-4.2,1.5-8.6,6.2-8.6,10.8c-0.1,0.1-0.3,0.1-0.3,0.3
			c-0.7-1.5-0.4-2.8-0.9-4.4c-0.7-2.1-3-6.9-4.8-7.9c-4.4-2.8-15.1,0.7-18.2,2.2c-1.2,0.7-3.3,1.2-3.6,2.8c-4.6,0.3-9.4,0.4-14,0.7
			c-3.8,0.7-7.7,0-12,1.2c-1.3,0-2.8,0-4.1,0c-3.8,0.7-8.5,0.9-12.4,2c-1.6,0.3-3,0.4-4.6,0.7c-2.1,0.7-4,1.5-5.9,2.1
			c-0.7-0.4-0.8-0.8-1.5-1.2c-1.6,0.1-2.9,1.1-4,1.7c-0.9-0.7-4.4,1.3-5.7,1.7c-3.6,1.1-7.7,1.3-11.5,2.4c-2.4,0.7-5.6,2.1-7.8,2.8
			c-5.8,1.9-11.5,3.4-17.7,5.7c-3.7,1.3-7.8,3.4-11,5.3c-2.5,1.5-5.2,2.1-7.5,3.6c-10,6.1-20.6,13.4-27.6,22.6
			c-2.1,2.8-2.9,5.9-4.1,9.4c-3.2,9.8-3.4,18.8,0,28.3c0.5,1.5,0.3,2.9,1.1,4.2c8.3,14.8,25,22.5,38.9,31.5c2.4,1.5,5.8,2.9,8.5,4.1
			c0.9,0.3,1.9,0.7,2.8,0.9c0.4,0.7,0.8,1.5,1.2,2.1c1.1,1.5,2.2,2.9,3.4,4.2c1.9,2,3.8,3.8,5.7,5.8c0.9,1.2,2,3,3.4,4
			c1.1,0.7,2.6,0.7,3.7,1.1c1.5,0.7,3,1.3,4.5,2.1c4,1.3,9.9,1.6,14.7,2.6c1.7,0.4,4.1,0,5.9,0.4c9.4,2.1,21.4,3.3,30.1,3.2
			c4.8-0.1,9.9,0.9,14.4-0.3c1.5,0.5,3.2,0.3,4.8,0c1.9,0,3.7,0.1,5.6,0.1c4.4-0.7,7.9-0.3,11.4-0.9c1.7-0.3,3.3,0,4.4,0.3
			c3.3-0.1,6.6-0.3,9.9-0.3c13.7-2.4,30.7-1.6,43.9-4.2c3.8-0.8,7.1-0.1,10.7-1.1c1.9-0.5,3.4-0.8,5.9-1.2c1.2-0.1,2.4-0.1,3.6-0.3
			c4.5-1.3,10.4-2.4,15.2-3.6c1.1,0.3,12.2-2.5,13.4-3.3c2-1.2,7.5-10.6,9-13.1c0.8-1.3,1.2-4,2.5-4.8c1.3-0.5,2.5-0.9,3.8-1.5
			c3.7-2.1,7.4-4.2,11-6.3c2.2-1.9,4.6-3.6,7.1-5.2c2-1.7,4-3.6,5.9-5.3c1.3-1.2,3.2-2.4,4.2-3.8c1.5-2,2.8-4.1,4.2-6.1
			c1.6-2.4,3.4-7.9,4.5-10.8c0.4-1.3,0-2.5,0.5-4c0.4-1.2,0.9-2.2,1.3-3.4C573.1,323.5,571.6,318.2,570.7,314.9z M508.5,276
			c0.5,0.4,1.9,0.7,2.8,0.3c4.4-1.6,4.1-7,4.8-11.5c1.6,0,3,1.9,4.1,2.8c0.9,0.8,3.2,2.6,3.6,3.8c0.4,1.2,0,3.2,0.1,4.5
			c0.3,2,1.6,7.5,0.9,9.1c-0.3,0.4-0.5,0.7-0.9,1.1c-0.4,1.3,0.3,2-0.4,3.2c-2,3-7.3,1.1-7.9-1.9c-0.7-2.6,1.7-4.5,0.7-7
			c-0.4-0.1-0.9-0.3-1.3-0.3c-6.1,3.8,0,15.7,4.4,18.2c2.6,1.5,6.6,1.9,8.5,4.1c2.6,3.3,3.2,8.2-1.1,10.2c0.1,0.1,0.1,0.3,0.3,0.4
			c-6.3,5.6-11,1.5-14.7-3.8c0-0.1,0-0.4,0-0.5c-0.5-1.6-0.1-4.1-0.7-5.8c-0.4-0.8-0.9-1.6-1.3-2.4c-0.7-0.7-1.6-0.7-2.2-0.9
			c-3.3-1.1-5.9-2-7.1,2.2c-1.1,3.7,2.5,5.6,2.2,8.5c-0.1,0-0.3,0.1-0.3,0.1c-0.8-0.9-4-4.1-5.3-1.7c-1.7,3,3,7.3,5.2,8.5
			c0.1,1.2-0.8,1.6-1.2,2.6c-1.1,0.3-1.7-0.8-2.5-1.1c-2.2,0-4.5,0-6.7,0c-4.9,1.5-10.8,6.9-10.8,12.7c-0.1,0.1-0.3,0.3-0.3,0.4
			c-3-5-6.9-5.7-13.9-6.6c-0.1-0.1-0.1-0.3-0.3-0.3c1.7-1.1,2.8-2.5,2.9-5.2c0.1-0.1,0.4-0.3,0.5-0.3c3.6-1.2,5.7,5.2,9.9,1.6
			c0.5-0.4,1.1-0.7,0.9-1.7c0-0.8,0-1.6,0-2.4c1.2-0.8,2.5-0.5,4-0.8c1.1-0.1,2.5-0.9,3.3-1.2c1.1-0.4,3,0,4.1-0.7
			c1.9-1.2,2.2-3.2,3.4-5c0.8-1.2,1.9-1.9,1.9-3.7c0-0.1-0.1-0.1-0.1-0.3c-2.2-0.5-2.9-1.7-4.5-2.8c-1.3,0.4-2.5,1.1-3.8,1.5
			c-2.5,0.7-4.5,0.5-6.5,1.5c-2.8,1.6-3.3,6.3-3.3,9.9c-1.1-0.1-1.3-0.5-2.1-0.8c0.3-1.2,1.1-1.6,1.5-2.8c0.3-1.1-2.5-5.6-3-5.9
			c0-0.1,0.1-0.3,0.1-0.4c9.1-1.2,11.6-2.5,15.5-9.6c0.9-1.7,2.1-4.1,1.5-7.1c-0.9-2.1-1.7-4.1-2.6-6.2c1.2-0.3,2.4-0.7,3.4-0.9
			c2.1-1.1,4.8-3,5.3-5.7c-0.1-1.6-0.3-3.2-0.3-4.6c0.4-0.3,5.3-0.5,6.1-0.4C505.2,272.8,508.2,275.3,508.5,276z M540.2,335
			c-0.9,1.6-2,3.2-2.9,4.6c-5.9,10.3-13.7,14-22.6,21.1c-0.1,0-0.3,0-0.4,0c-0.1-0.3-0.1-0.7-0.3-0.9c0.9-1.5,1.1-2,3.3-2.1
			c0.4-0.5,0.3-0.8,0.3-1.6c-0.9-0.3-2.4-0.9-2.8,0.3c-0.3,0-0.5-0.1-0.8-0.1c-0.4-0.8-1.2-1.9-2.6-1.6c0.1-1.3,0.1-2.8,0.3-4.1
			c0.7,0.4,1.3,1.1,2.1,0.5c0.3-0.3,0.5-0.5,0.8-0.8c-0.1-1.7-1.6-1.9-2.9-1.6c0-2.9-0.4-6.7-0.8-9.9c1.3-0.1,1.7,0,2.4-1.2
			c-0.5-1.2-1.3-1.3-2.8-1.6c-0.7-4.8-4.1-13.1-7.5-14.8c0-0.1-0.1-0.3-0.1-0.4c4.2-5.6-1.1-5-3.6-9.1c0.1-0.4,0.1-0.9,0.3-1.3
			c0.1,0,0.1-0.1,0.3-0.1c1.2,0.5,2.5,2.9,4.2,1.6c1.3-0.8,0.5-2.8,0-3.8c-1.2-2.5-2.9-6.2,0.3-7.9c1.3,0.1,4.1,0.9,4.9,1.7
			c1.5,1.5,0.7,6.7,2,8.9c1.7,2.9,5.3,5.6,8.9,6.5c0.8,0,1.6,0.1,2.2,0.1c1.2-0.5,2.4-0.9,3.6-1.5c0.7,0,1.3,0,2.1,0
			c2.5-0.5,5.2-2.9,5.8-5.3c0.1,0,0.1-0.1,0.3-0.1c2.4,1.3,5.9,6.6,6.5,9.3c0.3,1.3,0,3,0.4,4.2c0.1,0.4,0.8,3.4,0.3,4.6
			c-0.3,0.4-0.5,0.7-0.8,1.1C539.9,331.4,540.8,333.2,540.2,335z M511.8,361.3c0.1,0.1,0.4,0.3,0.5,0.4c0,0.1,0,0.3,0,0.3
			c-0.3,0.3-0.7,0.5-0.9,0.8c-0.1,0-0.3,0-0.4,0c-0.3-0.7-0.5-0.7-0.8-1.3C510.6,361.4,511.2,361.4,511.8,361.3z M510.3,359.2
			c0-0.3,0-0.5,0-0.8c0.5,0.3,1.1,0.4,1.6,0.7c0.1,0.1,0.1,0.3,0.3,0.3C511.6,359.7,511.2,359.3,510.3,359.2z M492.2,364
			c-7-5.6-10.2-14.7-9.4-25.8c-0.1-0.8-0.3-1.7-0.4-2.5c0.5-2.4,1.1-4.4,1.6-6.5c0.4-1.3-0.4-1.7,0.1-2.6c2.1-3.6,4-3.7,7.9-5.3
			c3,0.8,6.1,2,8.1,4.1c3.3,3.6,6.7,20,6.6,26c-0.1,7.3,0.1,11.1-5.9,13.4c-1.1,0.4-2.5,1.5-3.6,1.5
			C495.1,366.6,493.7,365.2,492.2,364z M496.2,368.9c-0.1,0-0.3,0.1-0.3,0.1c0.1-0.1,0.1-0.3,0.3-0.3
			C496,368.8,496,368.8,496.2,368.9z M456.6,373.8c0.1-0.8,0.8-0.8,1.6-1.1c0.1,0.4,0.3,0.8,0.4,1.2c1.7,1.2,1.3-0.3,2.5-0.1
			c0.4,0,0.7,0.7,1.3,0.5c0.3-0.1,0.5-0.3,0.9-0.3c0.8,0.3,0.4,2.8,1.1,3.4c0.4,0.3,0.8,0.3,1.3,0.1c0.3-0.4,0.4-0.8,0.7-1.2
			c-0.1-0.8-0.5-0.8-0.7-1.2c-0.1-0.7,0.4-1.1,0.3-1.9c-0.4-1.1-1.6-1.3-2.6-0.9c-0.3-0.5-0.7-0.8-1.1-1.2c0.7-0.9,3.6-2.1,4.8-2.8
			c-0.1,1.7,0,1.9,0.4,3.3c0.8,0,1.1-0.1,1.6-0.3c0.3-0.4,0.4-0.8,0.4-1.6c-0.5-0.8-0.9-1.3-2.1-1.3v-0.1c1.3-1.7,5.4-3.8,7.3-5.7
			c0.1,0.8,0.4,1.6,0.5,2.4c-0.7,0.1-0.9,0.1-1.6,0.1c-0.1,0.1-0.4,0.4-0.5,0.5c0,1.2,0.1,1.3,0.3,2.2c0.8,0.5,1.6,0.1,2.6,0.4
			c0.4-0.3,0.7-0.5,1.1-0.9c0-0.4,0.1-0.7,0.1-1.1c-0.3-0.4-0.7-0.7-0.9-1.1c0-0.1,0-0.3,0-0.4c0.8-0.3,1.1-0.7,1.1-1.7
			c-0.5-0.7-0.8-1.2-1.9-1.3c0.5-1.1,1.2-2,2.1-2.8c0-0.1,0.1-0.1,0.1-0.3c0.1,1.1,0.1,1.9,0.9,2.2c0.4,0,0.7-0.1,1.1-0.1
			c0.4-0.4,0.5-1.1,0.4-1.6c-0.3-0.7-1.1-1.3-2.1-0.9c0.1-0.4,0.4-0.9,0.5-1.3c0.1,0,0.1-0.1,0.3-0.1c0.4,0.7,0.4,0.9,0.9,1.3
			c0.8-0.1,1.6-0.4,2.4-0.5h0.1c0.1,0.5,0.3,1.1,0.3,1.6c-0.5,0-0.9,0.1-1.5,0.1c-0.1,0.3-0.4,0.7-0.5,0.9c0.1,0.5,0.3,1.1,0.4,1.6
			c0.7,0.3,2.1,0.5,2.8,0.3c0.9-0.3,1.2-1.1,1.6-2c0.1,0,0.3-0.1,0.3-0.1c0.9,2,3,3,4.1,4.6c-0.4,0.7-0.3,0.7-0.3,1.6
			c-0.1,0.1-0.3,0.3-0.3,0.3c-0.1,0-0.3,0.1-0.3,0.1c-0.5-1.3-1.1-1.9-2.2-2.1c-0.4,0.4-0.7,0.7-0.5,1.5c-0.1,0-0.3,0-0.4,0
			c-0.1-0.4-0.3-0.5-0.7-0.8c-0.7,0.1-0.8,0.3-1.2,0.4c-0.3,0.9,0,1.3,0.3,2.1c0.1,0.1,0.4,0.3,0.5,0.3c1.1,0,1.2-0.4,1.7-0.9
			c0.3,0.3,0.5,0.5,0.8,0.8c1.1,0,0.8-0.4,1.6-0.5c0.1,0.5,0.3,1.2,0.3,1.7c0.8,0.5,1.3,0.1,2.1-0.1c0.3,0.3,0.7,0.5,0.9,0.8
			c0.7-0.3,1.1-0.4,1.5-0.9c0.3,0.1,0.5,0.3,0.9,0.4c-2.5,2.6-7.9,3-11.8,4.2c-4.5,1.5-9.8,3-14.5,4.5c-3.4,1.1-7.5,0.7-11.1,1.6
			c-0.1,0-0.3-0.1-0.3-0.1c0.1-0.5,0.1-0.9,0.3-1.5c0.7-0.3,1.2-0.5,1.6-1.1C458.9,375.5,457.6,375,456.6,373.8z M454.5,380.3
			c-4.4,0.7-9.9,0.7-14.7,1.5c-0.3-0.5,0.3-1.2-0.1-1.9c-0.3-0.3-0.5-0.5-0.9-0.9c-0.3,0-0.4,0-0.7,0c-0.3,0.1-0.3,0.1-0.4,0.3
			c-0.7,0.8,0,1.7,0.5,2.2c-1.5,1.2-7.8,0.1-10.3,0.4c-4.4,0.5-9.6,0.3-14.7-0.5c-2.2-0.1-4.6-0.1-6.9-0.3c-1.6-0.3-3.4-0.9-5.3-0.8
			c-5,0.3-11.6-0.8-16.4-1.2c-1.3,0-2.5,0.1-3.8,0.1c-1.2-0.3-4-1.1-5.6-0.9c-1.9,0.3-4-0.7-5.8-0.5c-4.5,0.3-9.8-0.9-14-2.1
			c-0.9-0.3-1.5,0.3-2,0.3c-2.4-0.3-4.6-0.9-6.9-1.3c-0.9,0-1.7,0-2.6,0c-0.5-0.3-1.5-0.9-2.1-1.2c-1.5-0.1-2.8-0.4-4.2-0.5
			c-3.6-1.6-8.3-2.8-12.3-4.1c-0.7,0.3-3.6-0.7-4.5-1.1c-3.6-1.7-7.5-2.9-11.4-4.5c-4.8-2-9.5-5.4-13.2-8.7
			c-1.2-0.7-2.4-1.5-3.4-2.1c-3.4-3-5.8-6.5-7.8-11.1c-0.9-1.6-1.9-3.2-2.8-4.6c0.7-1.6-1.1-5.4-0.8-7c0.7-4.1,1.6-7.9,3.8-11.5
			c1.5-2.2,2.4-6.9,5-7.5c0.3,2.9,3.2,5,4.8,6.7c3.4,3.7,7.5,7,11.4,9.9c2,1.5,3.3,3.7,5.4,5c0,1.1,0,1.7,0.3,2.6
			c0.4,0.3,0.7,0.5,1.3,0.5c0.4-0.3,0.7-0.4,0.9-0.9c0.1-0.1,0.3-0.1,0.3-0.3c1.1,0.9,2.2,1.9,3.4,2.8c0,0.1,0.1,0.3,0.1,0.3
			c-0.3,0.1-0.7,0.4-0.9,0.5c0,0.9,0.1,1.7,0.8,2.1c0.8,0.1,1.1,0.1,1.6-0.3c0,1.5,0.5,2.6,1.1,3.4c0.4-0.1,0.7-0.3,1.1-0.3
			c0.8-0.5,0.7-1.7,0.3-2.2c0-0.1,0.1-0.1,0.1-0.3c0.1,0,0.3-0.1,0.3-0.1c0.5,0.4,1.1,0.8,1.6,1.2c-0.7,0.9-0.8,2.4-0.3,3.7
			c-0.3,0.3-0.5,0.7-0.9,0.9c0.1,0.5,0.1,1.1,0.3,1.6c0.4,0.7,0.8,0.9,1.6,0.7c0.4,1.5,0.1,2.6,2,2.8c0.8-0.8,1.7-2.2,1.1-3.6
			c0.1-0.1,0.3-0.3,0.3-0.3c0.3,0,0.4-0.1,0.7-0.1c0.8,1.1,1.5,0.1,2.5-0.3c0.4,0.3,0.7,0.4,1.1,0.7c0.1,0.1,0.1,0.3,0.3,0.3
			c-0.3,0-0.4,0.1-0.7,0.1c-0.4-0.1-0.5,0-0.7,0.4c-0.5,1.1,0.1,2.2,0.9,2.6c0.3-0.1,0.5-0.1,0.9-0.3c0.7,0.8,1.2,3,2.1,3.6
			c0.5,0.1,0.9,0.1,1.5,0.3c0.5,0.3,1.2,0.5,1.9,0c0.5-0.4,0.7-1.3,1.2-1.7c0.1,0.1,0.3,0.3,0.3,0.3c-0.8,2.1-0.9,4.4,0.4,5.7
			c0.5,0,1.2,0.1,1.7,0.1c0.1-0.1,0.1-0.3,0.3-0.4c0.4-0.8-0.3-1.5-0.4-2.1c0.3-0.3,0.7-0.5,0.9-0.8c0.4-0.3,0.7,0,1.1,0.1
			c0.1,0.1,0.1,0.3,0.3,0.3c-0.3,0.1-0.5,0.4-0.9,0.5c-0.3,1.7,0.1,2.8,1.7,2.6c0.3-0.3,0.4-0.7,0.7-0.9c0.3-0.8-0.3-1.1-0.5-1.6
			c0.8,0.5,1.6,0.9,2.4,1.5c-0.3,1.1-0.4,1.6-0.3,2.8c0.5,0.3,0.9,0.5,1.7,0.3c0.5-0.3,0.7-0.7,0.8-1.3c0.5-0.1,7,3.3,7.3,3.7
			c0.1,0,0.1,0,0.3,0c-0.5,0.3-0.8,0.3-1.1,0.7c-0.1,0.9,0.1,1.1,0.4,2c0.5,0.1,0.4,0.1,0.8-0.1c0.5,0.4,0.7,0.8,1.3,1.1
			c0.3,0.1,0.8,0,0.9-0.3c0.4-0.3,0.7-0.9,0.8-1.5c0.1,0,0.3,0,0.4,0c-0.1,1.3,0,1.9,0.5,2.9c0.9,0.5,2.9,0.8,3.4-0.7
			c1.1-0.1,1.9,0.4,2.2-0.9c0.5,0,1.2-0.1,1.7-0.1c1.1,0.9,0.1,3,1.6,3.8c0.7,0.3,1.1-0.1,1.6-0.3c0.3-1.5,0.7-1.5,0.9-2.5
			c0.1,0,0.4-0.1,0.5-0.1c0.3,0.1,0.5,0.4,0.9,0.5c0.1,0.1,0.1,0.3,0.3,0.3c-0.3,0-0.5-0.1-0.8-0.1c-0.4,0.3-0.5,0.3-0.8,0.7
			c-0.9,2.1,4.8,5.8,5.8,5.2c0.4-0.3,0.5-0.4,0.5-0.9c0.1,0,0.1-0.1,0.3-0.1c0.7,1.5,1.2,2.2,1.6,4c0.4,0.3,0.5,0.4,1.3,0.3
			c0.3-0.3,0.5-0.7,0.9-0.9v-0.1c-0.4-0.4-1.2-1.2-1.5-1.6c0.1-0.5,0.1-1.1,0.3-1.6c-0.1-0.4-0.7-0.5-0.8-1.1
			c0.5,0.1,1.2,0.3,1.7,0.3c0,0.5,0,1.5,0.3,1.9c0.3,0.7,1.1,0.9,2,0.9c0.3-0.1,0.4-0.4,0.7-0.5c0.1-0.7,0-0.9-0.3-1.5
			c0.3-0.3,0.5-0.3,1.1-0.3c0,1.1-0.4,1.5-0.9,2.1c0.1,1.2,0.5,1.6,1.3,2.1c0.5-0.3,3-2.4,3-2.4c0.7,0.3,0.9,0.7,1.9,0.9
			c0.9-0.4,2-0.9,2.6-1.7c-0.1-0.4-0.4-0.9-0.5-1.3c0.3-0.1,0.5-0.1,0.8-0.3c0.4,1.2,0.9,2.1,2.4,1.7c0.4,0.4,0.7,0.9,1.1,1.3
			c0.5,0,1.1,0,1.6,0c0.1-0.1,0.3-0.4,0.3-0.5c-0.1-0.4-0.1-0.8-0.3-1.2v-0.1c0.1-0.1,0.3-0.3,0.4-0.3c0,1.2,0.3,1.7,1.2,2.1
			c0.5-0.1,0.8,0,1.2-0.3c0.1,0,0.1,0,0.3,0c0.1-1.5-0.5-1.7-1.3-2.5c-0.8,0-0.9,0.1-1.3,0.4c-0.1-0.7-0.3-0.8-0.5-1.2
			c1.2-0.9,2.4-0.4,3.8-0.8c1.9-0.4,8.7-2.6,9.6-3.4c0.5,0.4,0.8,1.9,1.2,2.4c0.5-0.1,1.1-0.3,1.6-0.4c0.1-0.4,0.1-0.9,0.3-1.3
			c-0.5-0.5-0.9-0.9-1.5-1.5c2-1.7,4.8-2.5,6.9-4.2c1.2-1.1,2.8-2.8,4.1-3.4c0.7-0.4,1.2,0.3,1.7,0.3c0.3,0.3,1.1-0.7,1.3-0.9
			c-0.1-0.5-0.3-1.1-0.4-1.6c0.8-1.1,1.5-2.2,2.6-2.9c0.4,0.9,0.3,1.6,1.2,2.1c0.9-0.4,1.2-0.7,1.9-1.2c0.1,0,0.1,0.1,0.3,0.1
			c-0.1,1.2-0.1,2.5-0.9,3.2c-0.1,0.1-0.1,0.1-0.3,0.3c-0.3-0.5-0.4-0.8-1.1-0.9c-0.3,0-0.5,0-0.9,0c-0.1,0.1-0.3,0.4-0.4,0.5
			c0.1,0.5,0.1,1.1,0.3,1.6c0.3,0.1,0.7,0.4,0.9,0.5c0.7-0.1,0.8-0.3,1.2-0.5c-0.7,2.4-1.2,4.2-1.1,7.1h-0.1
			c-0.5-0.5-0.7-0.8-1.9-0.8c-0.3,0.3-0.4,0.7-0.7,0.9c0,0.3,0.1,0.7,0.1,0.9c0.3,0.3,0.5,0.5,0.8,0.8c0.3,0,0.7,0,0.9,0
			c0.3-0.3,0.5-0.5,0.8-0.8c0-0.1,0-0.1,0-0.3c1.7,1.5,1.6,5.2,4.1,6.5c-0.3,0.4-0.4,0.7-0.7,1.1c-0.1,0.8,0.1,1.2,0.4,2.1
			c0.4,0.3,0.7,0.4,1.6,0.4c0.3-0.4,0.5-0.7,0.8-1.1c-0.1-0.7-0.3-0.9-0.7-1.5c1.2-1.1,4.4,0.4,5.4,0.5c1.5-0.3,3-0.5,4.5-0.8
			c0.3,0.5,0.5,0.8,1.1,1.1c0.9,0,1.3-0.3,1.5-1.1c0.5,0.4,0.4,1.1,1.1,1.5c0.5,0.4,1.1,0.1,1.6-0.3c0.5-0.5,0.4-1.5,0.1-2
			c0-0.1,0.1-0.3,0.1-0.3c1.1,0.3,2.1,2.4,2.1,3.3c-0.3-0.1-0.7-0.1-0.9-0.3C453.7,378.2,454.3,378.8,454.5,380.3z M320,339.9
			c0.1-0.3,0.3-0.5,0.3-0.9c0.5,0.1,0.7,0.3,0.9,0.5C320.6,339.6,320.5,339.6,320,339.9z M325.3,346.6c0-0.1,0.9-2.4,1.2-3
			c0.1,0,0.4,0,0.5,0c0.1,0.3,0.3,0.4,0.3,0.7c-0.9,1.1-0.1,2.5-1.6,2.8C325.7,346.9,325.5,346.7,325.3,346.6z M335.7,350.3
			c0.4,0.1,0.8,0.3,1.2,0.4c0.1,0.3,0.1,0.4,0.3,0.9l-0.1,0.1c-0.3-0.1-0.7-0.3-0.9-0.3c-0.1-0.1-0.1-0.1-0.3-0.3
			C335.7,350.8,335.7,350.6,335.7,350.3z M358.2,364.2c0.1-0.1,0.1-0.3,0.3-0.3c0,0.1,0.1,0.3,0.1,0.3
			C358.3,364.2,358.2,364.2,358.2,364.2z M409.7,284.7c0-1.7-0.1-2.8-0.8-4.4c0.1-0.1,0.1-0.3,0.3-0.3c0.7,0.1,3.7,0,4.1,0.1
			c0.5,0.1,0.9,0.7,1.6,0.5c1.2,1.6-0.4,1.9-0.1,3.4c0.1,1.1,0.7,1.7,1.1,2.5C412.5,288.3,411.7,285.8,409.7,284.7z M410.4,290.7
			c-1.3,1.7-4.8,2.6-6.9,3.6c-3.6,1.7-7,3.8-10,6.1c-8.2,6.1-16,12.7-23.5,19.4c-2.9,2.5-6.3,7.5-9.6,9.4c1.6-3.3,4.1-5.9,6.1-8.7
			c7.9-11.2,19.3-19.6,30.8-27.2c2.6-1.2,5.3-2.4,7.8-3.6c0.7-0.3,1.2,0,1.7-0.4c1.2,0.3,2.2,0.7,3.3,1.1
			C410.1,290.3,410.3,290.6,410.4,290.7z M422,267.8c-1.7-0.1-3-0.1-5,0c0-0.1-0.1-0.1-0.1-0.3c0.7-0.9,1.3-2,2-2.9
			c1.6,0.4,4.2,0.7,5.2,0.3c0,0.1,0.1,0.1,0.1,0.3C423.5,266.4,422.8,266.9,422,267.8z M425.6,266.4c0.1,0,0.3,0,0.4,0
			c-0.1,2.2-0.3,4.5-0.4,6.7c-0.7,1.1-2.4,2.9-3.4,3.4c-0.1,0.1-0.1,0.1-0.3,0.3h-0.1c-0.1-1.1,0.3-2.2,0.5-3.2
			c0.1-1.1,0.3-2.1,0.4-3.3C423.5,269,424.8,267.8,425.6,266.4z M416.6,283.3c0.1,0,0.1-0.1,0.3-0.1c0.8,0.9,2,1.3,2.9,0.5
			c0.1-0.8-0.4-1.3-0.3-1.9c0.1-0.1,0.4-0.4,0.5-0.5c0.8,0.1,1.1,0.4,1.6,0.7c-0.1,1.9-0.9,3.2-1.2,4.6
			C418.2,286.5,416.3,285.5,416.6,283.3z M418.1,287.8c-0.1,0.4-0.3,0.4-0.7,0.5c-0.1,0-0.3,0-0.3,0c0.1-0.5,0-0.4,0.3-0.7
			C417.7,287.8,417.9,287.8,418.1,287.8z M418.6,280c0.1-0.3,0.1-0.4,0.3-0.7c0.5,0.1,0.9,0.1,1.5,0.3c-0.3,0.4-0.7,0.3-0.9,0.4
			C419.1,280,418.8,280,418.6,280z M419.6,269.5c0.3,0,0.5,0.1,0.9,0.1c0.4,2.1-0.1,5-0.8,7.4c-1.5,0.1-4-1.7-4.5-2.8
			c-0.4-1.1,0.3-2.8,0.5-4.1C416.9,269.7,418.3,270.1,419.6,269.5z M414.4,290.8c1.6-1.2,4.5,0,5.7-1.6c1.1,0.5,0.9,2,1.7,2.8
			c1.9,2.1,4.1,3.4,6.9,4.6c0.5,0.8,0.7,2.2,0.3,3.3c-2,0.7-3.4,0-4.9,1.3c-1.7-1.6-2.9-4.6-4.8-6.3c-1.5-1.3-4-1.9-4.9-3.6
			c-0.1-0.1-0.1-0.3-0.3-0.4C414.2,290.8,414.4,290.8,414.4,290.8z M426.4,284.5c0.1,0,0.3,0,0.3,0c0.3,2.8,0.9,6.9,2.2,9.8
			c0,0.1,0,0.3,0,0.4c-3.4-0.8-5.3-2.9-6.6-5.8C422.8,287.6,426.1,286.8,426.4,284.5z M424.3,281.4c0.3,0.1,0.4,0.1,0.7,0.3
			c0.1,0.3,0.3,0.4,0.4,0.7c-0.3,0.3-0.3,0.4-0.8,0.5C424.4,282.4,424.3,282.1,424.3,281.4z M445.1,261.1c2.2-1.2,4.9-1.9,7.3-2.8
			c0.7,0.4,3.4-0.5,3.8-0.8c0.9,0.1,1.6,0.4,2.2,0.3c-0.4,0.8-2.6,0.3-3.6,0.7c-2,1.1-3.8,2-5.8,3c-7.7,5.4-12.6,9.6-15.9,19.3
			c-0.1,0.9-0.3,1.9-0.4,2.8c-0.9,2.5-2.6,6.5-1.9,9.5c-0.1,0.1-0.3,0.1-0.3,0.3C424.3,279.6,435,266.8,445.1,261.1z M435.8,266
			c0.3-0.7,0.7-0.9,0.9-1.5c0.1,0,0.3,0,0.4,0c-0.3,0.3-0.5,0.5-0.8,0.9C436.2,265.6,436,265.8,435.8,266L435.8,266z M437.2,264.5
			c0.3-0.4,0.5-0.5,0.9-0.8c0.1,0,0.3,0,0.3,0v0.1c-0.1,0.1-0.3,0.1-0.4,0.3c-0.1,0.1-0.4,0.4-0.5,0.5
			C437.4,264.5,437.2,264.5,437.2,264.5z M453.1,280.1c1.1,1.2,1.6,3.3,1.5,4.8c-1.3,0.3-2.5-0.3-4.1,0.1c-2.2,0.5-4.1,3.7-4.2,6.1
			c-0.1,0-0.1,0.1-0.3,0.1c-0.4-6.5,3.6-12,5.3-17.1c-0.1,1.5-0.3,2.8-0.4,4.2C451.2,279.1,452.6,279.4,453.1,280.1z M398.6,372.9
			c-0.1,0-0.3,0-0.4,0c-0.1-0.3-0.4-0.5-0.5-0.9c0.3,0,0.5,0,0.9,0c0,0.1,0,0.4,0,0.5C398.6,372.8,398.6,372.8,398.6,372.9z
			 M395.3,370.9c-1.5,0-2.8,0-4.2,0c-6.6,1.7-18.8-4.2-20-9.5c1.5,0.4,2.8,0.7,4.2,1.1c1.5,0.1,2.9,0.3,4.4,0.4
			c0.7,0.1,1.3,0.3,2,0.4c3.6-0.5,8.1-0.1,12-0.9c8.2-1.7,15.3-3.3,22.2-5.8c5.7-2,12.4-4.1,16.3-7.9c0.1,0,0.3,0,0.3,0
			c-0.5,3.4-5.9,8.5-8.5,10.2c-3,2-5.9,4.5-9,6.3c-2.9,1.7-6.6,2.8-9.9,4.1C403.8,368.7,397,370.3,395.3,370.9z M391.4,373.6
			c-0.1,0-0.1,0.1-0.3,0.1c-0.3-0.3-0.3-0.3-0.4-0.7c0.1,0,0.1-0.1,0.3-0.1C391.5,373.2,391.4,373,391.4,373.6z M381.2,371.8
			c-0.3,0.3-0.7,0.7-0.9,0.9h-0.1c0.1-0.4,0.3-0.8,0.3-1.2C380.6,371.7,380.9,371.7,381.2,371.8z M375.1,368.7
			c0.9,0.5,1.7,1.2,2.6,1.7c0,0.5-0.1,1.2-0.1,1.7c-0.4,0.5-0.7,0.3-1.2,0.1c0.1-0.4,0.3-0.7,0.3-1.1
			C376.3,370.4,375.6,369.5,375.1,368.7z M431.9,346.6c-0.9,1.2-2.6,1.9-4.1,2.8c-5.8,3.7-12,5.6-19.3,7.8h-0.1
			c0.1-0.4,0.4-0.9,0.5-1.3c-0.5-1.2-0.8-1.2-2.1-0.9c-0.1,0.7-0.1,1.1,0,1.9c0.4,0.3,0.4,0.1,1.1,0.1c0.1,0.1,0.1,0.1,0.3,0.3
			c-1.1,1.3-8.1,2-9.8,2.4c-5.8,1.5-15.2,2.9-21,1.3c-3-0.8-6.5-0.5-7.8-3.3c-0.7-1.6,0.3-3.8-0.1-4.6c-0.3-0.5-0.5-0.4-0.4-1.3
			c1.1-0.8,1.7-2.4,2.8-3.2c6.2-4.5,13.7-8.1,21.5-10.3c4.8-1.3,9.9-2,14.5-2.6c1.3-0.1,5.9-0.1,6.6-0.8c2.8,0.7,5.7,0.5,8.7,0.8
			c1.3,0.3,2.8,0.7,4.1,0.9c0.3-0.3,0.4-0.4,0.5-0.9C434.2,336.4,435.2,342.1,431.9,346.6z M367.8,345.4c0.5-0.7,1.1-1.3,1.6-2.1
			c0.1,0,0.3,0,0.4,0c0.4,0.9,1.6,1.7,2.1,2.5c0,0.1,0,0.3,0,0.3c-2.1,0.8-3.2,1.6-4.1,3.7c-0.3,0.1-0.4,0.1-0.7,0.3
			c0-1.1,0.1-2.1,0.1-3.3c0.5,0,0.9,0.3,1.7,0.3c0.1-0.4,0.4-0.8,0.5-1.2C369.3,345.3,368.6,345.1,367.8,345.4z M375.9,338.9
			c-0.5-0.1-0.9-0.3-1.5-0.4c0-0.1-0.1-0.1-0.1-0.3c0.7-0.7,1.5-1.3,2.1-2.1h0.1c0.1,0.3,0.3,0.5,0.4,0.8c0.3,0.1,0.5,0.3,0.8,0.3
			c0.5-0.3,1.1-0.7,1.6-0.9c0-0.3,0-0.5,0-0.8c-0.1-0.3-0.3-0.4-0.4-0.7c-0.4,0.1-0.8,0.3-1.2,0.3c0-0.1-0.1-0.1-0.1-0.3
			c0.9-0.8,1.7-1.6,2.6-2.4c0.3,0.9,0.3,1.2,1.3,1.6c0.5-0.7,0.8-1.1,0.5-1.9c-0.5,0-1.1,0-1.6,0c0.5-1.7,6.5-5.9,8.2-6.7
			c0.1,0.3,0.1,0.5,0.3,0.9c0.4,0.3,0.7,0.4,1.5,0.4c0.3-0.4,0.5-0.9,0.9-1.3c0-0.1,0-0.3,0-0.4c-0.3-0.1-0.7-0.3-0.9-0.3
			c-0.3-1.1,4.8-3.8,5.9-4.6c3.6-2.4,7.4-4.4,10.8-6.5c1.1-0.7,3.2-2.5,4.4-2.4c1.5-1.3,3.8-3,5.9-3.4c-0.7,1.5-1.1,1.2-2.4,1.9
			c-0.1,0.1-0.3,0.3-0.4,0.4c0.1,0.4,0.3,0.8,0.4,1.2c-1.5,2-3.4,3.8-5,5.7c-0.1,0.4-0.3,0.9-0.4,1.3c-1.6,1.9-2.8,3.7-4.2,5.8
			c-2.2,2.4-4.5,4.6-6.6,7c-0.9-0.1-1.1-0.5-2-0.7c-0.1,0-0.3,0.1-0.3,0.1c-0.1,0.3-0.4,0.5-0.5,0.9c0.4,0.4,0.9,0.8,1.6,0.7
			c0,0.1,0.1,0.1,0.1,0.3c-1.6,1.1-2.4,2.9-3.8,4c-1.1,0.3-2.1,0.4-3.3,0.7c-1.2,0.4-2.5,1.2-3.7,1.6c-0.1-0.3-0.3-0.5-0.4-0.8
			c-0.3-0.3-1.1-0.3-1.5-0.4c-0.1,0.1-0.3,0.1-0.3,0.3c-0.1,0.4-0.1,0.7-0.3,1.1c0.5,0.4,0.5,0.3,1.1,0.4c0.1,0,0.3-0.1,0.3-0.1
			c-0.1,0.1-10.6,5.6-10.8,5.6c-0.5,0.1-1.2-0.3-2-0.3c-0.1-1.6-0.9-1.6-1.6-2.5c0.7-0.7,1.2-1.5,1.9-2.1c0.9,0.3,0.9,0.7,1.9,0.9
			C375.6,340,376,340,375.9,338.9z M399.4,334.7c0,0.1,0,0.3,0,0.4c-0.3,0-0.7,0.1-0.9,0.1c0-0.1-0.1-0.3-0.1-0.4
			c0.1-0.1,0.3-0.1,0.3-0.3c0.1,0,0.1,0.1,0.3,0.1C399,334.7,399.3,334.7,399.4,334.7z M404.2,334c0.1-0.4,0.1-0.7,0.3-1.1h0.1
			c0.3,0.3,0.3,0.5,0.3,0.9C404.6,333.9,404.4,334,404.2,334z M407.7,331c0-0.1,0-0.3,0-0.4c0.1,0.1,0.3,0.1,0.4,0.3
			C408,330.9,407.9,330.9,407.7,331z M409.1,330.5c0.1-0.1,0.1-0.3,0.3-0.4c0.1,0,0.3,0,0.3,0c-0.1,0.1-0.1,0.3-0.3,0.4
			C409.2,330.5,409.2,330.5,409.1,330.5z M412.1,330.7c0.5-0.3,1.1-0.5,1.6-0.8c0-0.7,0-0.7,0.1-1.2c-0.8-0.8-0.9-1.2-2.1-1.6
			c-0.3-0.1-0.3-0.3-0.3-0.5c0.4-0.1,0.7-0.1,1.1-0.3c0.7-0.9,0.4-1.9,0.3-2.6c1.9-1.7,3.7-3.4,5.6-5.3c0.1,0.1,0.3,0.4,0.4,0.5
			c-0.8,0.9-1.5,2.8-0.3,3.6c0.3,0.3,0.4,0.3,0.9,0.3c0.9,1.6,0.5,3.2,2.1,4.1c2.2,1.3,6.2,1.2,9.3,0.9c0.5-0.1,1.1-0.1,1.6-0.3
			c1.9,0.4,2.9,1.6,4.6,1.9c2.1,0.4,2.9-1.2,4.6-0.9c3,0.7,4.2,5.2,8.5,3.3c1.9-0.8,4.1-2.6,4.8-4.6c1.3-4,0.9-5.6,5.6-5.2
			c0.5,1.2,1.3,2.1,2.1,3c-2,0.9-4,1.9-5.9,2.8c-3.2,2-9,6.1-10.6,9.5c-0.1,0.1-0.1,0.1-0.3,0.3c-0.8,0.1-0.9-0.7-2.1-0.3
			c-0.1,0-0.3,0.1-0.4,0.1c-0.3-0.1-0.5-0.7-0.9-0.9c-0.3,0.1-0.4,0.1-0.5,0.3c-0.9,0.9,0,3.7,0.3,4.9c-0.9-0.5-2-1.1-2.9-1.6
			c-0.9,0.5-1.1,2-1.1,3c-0.5,0-1.1,0.1-1.6,0.1c-0.1-1.5,0.3-3.7-0.5-5.3c-0.4-0.4-0.9-0.7-1.3-1.1c-0.9-0.8-1.6-2.1-2.9-2.5
			c-3-1.1-6.9-0.7-10.3-1.2c-0.1-0.1-0.1-0.1-0.3-0.3c0.7-1.2,1.7-1.1,2.1-2.4c-0.3-0.7-0.5-0.9-0.8-1.5c-0.4,0-0.8-0.1-1.2-0.1
			c-0.3,0.3-0.4,0.7-0.7,0.9c-0.7,0-1.2-0.1-1.9-0.1c-0.1,0-0.3,0.1-0.3,0.1c0-1.3,0.8-2.1,1.1-3.3c-0.7-0.7-0.9-1.2-2.1-1.3
			c-0.4,0.9-0.9,1.9-1.6,2.6c-0.3,1.2,0.1,1.9,0.4,2.6c0.5,0.3,1.1,0.1,1.6,0c0,1.3,0.5,1.3,0.7,2.2c-1.2,0-1.7-0.3-2.6-0.4
			c-0.1-1.1-0.4-1.6-1.1-2.1c-0.5-0.1-0.9-0.1-1.2,0.3c-0.3,0.4-0.3,1.2-0.1,1.7c-0.7,0.5-1.9,0.7-2.9,0.7
			C411.3,332.3,412.2,332.7,412.1,330.7z M425.3,306.3C425.3,306.1,425.3,306.1,425.3,306.3c0.9-0.1,1.7-0.3,2.6-0.3
			c1.9-0.5,3-2.6,3.8-4.2c1.6,0.5,3.6,0.8,3.3,2.9c0,0.3,0.1,0.4,0.1,0.7c-2.2-0.1-6.5-0.4-7.7,2c-0.5,1.2-0.1,2.8-0.8,4
			c-0.7,0.5-1.3,1.1-2.1,1.6c-0.9,1.5-1.9,2.9-2.8,4.4c-0.7,0-1.5-0.1-2.1-0.1c-0.1,0-0.1,0-0.3,0c1.7-2.8,4.9-4.8,6.3-7.8
			C426.2,308.5,425.5,307.1,425.3,306.3z M425.3,304.4c0-1.1,0.1-1.5,0.4-2.1c0.9-0.3,2.2-0.4,3.4-0.4
			C429.2,303.9,427.4,304.4,425.3,304.4z M431.1,298.5c0.4,0.3,0.4,0.3,0.5,0.8c0.1,0.1,0.1,0.1,0.3,0.3v0.1c-0.3,0-0.4,0-0.7,0
			C431.3,299.1,431.1,298.9,431.1,298.5z M424.1,317.5c0.1-1.7,1.3-2.5,2-3.7c0.1,0,0.4-0.1,0.5-0.1c0.7,1.2,2.1,2.1,4,1.6
			c0.1,0.1,0.1,0.1,0.3,0.3c-0.3,3.4-0.5,6.6,3.3,7.1c2.4,0.4,7.1-4.5,5.6-6.5c-0.4-0.7-1.6-0.9-2.6-0.9c-0.4,0.3-0.8,0.7-1.2,0.9
			c0.1,0.7,0.4,1.1,0.9,1.3c0.5,0.3,0.7,0,1.2-0.1c-0.8,1.5-1.5,2.6-3.3,3.3c-2.4,0-2.9-2.4-2.1-4.5c0.8-2.4,3-4.1,5.2-5.3
			c6.3,0,9.1,10.4,4.1,14c-1.1,0.8-2.4,0.5-3.7,0.8C431.9,327,428.2,319.9,424.1,317.5z M431.1,325.7c-0.5,0.8-6.2,0.8-7.8,0.3
			c-2.9-1.2-2.4-4.4-0.9-6.5C426.9,319.9,427.4,324.8,431.1,325.7z M428.5,311.3c-0.4-3.8,2-3.6,4.4-4.5c0.4,0.1,0.7,0.1,1.1,0.3
			c0.4,1.6-0.3,3.2-0.8,4.6C431.4,312.8,430.2,311.8,428.5,311.3z M429.2,313.8C429,313.8,429,313.8,429.2,313.8
			c-0.1-0.1-0.1-0.4-0.3-0.5C429,313.5,429,313.4,429.2,313.8z M420.4,319.2c0,0.1,0,0.4,0,0.5c-0.1,0-0.3,0.1-0.4,0.1
			c0-0.3-0.1-0.4-0.1-0.7C420.2,319.2,420.3,319.2,420.4,319.2z M438.1,346.6c-0.1-0.1-0.3-0.1-0.3-0.3c0.1-0.1,0.1-0.3,0.3-0.4
			C438,346.1,438.1,346.3,438.1,346.6z M437.7,348.7c0,0.1,0,0.3,0,0.3c-0.1,0.1-0.3,0.4-0.4,0.5c-0.1,0-0.3-0.1-0.3-0.1
			c-0.1,0-0.1,0-0.3,0c0-0.1-0.1-0.4-0.1-0.5c0.1-0.1,0.3-0.1,0.4-0.3C437.4,348.7,437.6,348.7,437.7,348.7z M436.2,348.6
			c-0.3,0.5-1.1,0.9-1.7,0.9c0.3-0.7,0.5-1.5,0.9-2.1C435.8,347.7,435.8,348.2,436.2,348.6z M435.5,345.4c0.1-0.4,0.1-0.8,0.3-1.2
			c0,0.3,0,0.7,0,0.9C435.8,345.1,435.6,345.3,435.5,345.4C435.6,345.4,435.5,345.4,435.5,345.4z M434,350.2c0.4,0.5,0,0.7,0.3,1.2
			c0.4,0.8,1.1,0.4,1.3,1.2c0.1,0.4,0.1,0.4-0.4,0.5c-0.1-0.3-0.4-0.7-0.5-0.9c-0.9-0.1-1.2,0.4-1.9,0.9c-0.1-0.1-0.1-0.3-0.3-0.4
			C433.1,351.7,433.6,351,434,350.2z M436.8,357.2c-0.8-2.5,2.8-7.4,3.8-9c3.7-5.7,7.1-11.6,12.6-15.9c1.3-1.1,4.8-3.3,6.1-4
			c1.2-0.5,2.1-0.5,3-1.2c2.9,0.9,7.7,1.2,9.1,3.3c2.1,3,3,7.8,1.9,12.2c-0.5,1.3-1.2,2.6-1.7,4.1c-2.9,9.8-9.8,17.2-17.1,22.6
			c-2.1,1.6-12.7,6.5-16.4,3.8c-0.3-0.4-0.4-0.7-0.7-1.1C433.8,366.3,435.1,363.4,436.8,357.2z M462.3,325.4
			C462.3,325.3,462.3,325.3,462.3,325.4c0.1-0.1,0.3-0.1,0.3-0.3h0.1C462.6,325.4,462.7,325.3,462.3,325.4z M463,323.1
			c-0.4-0.7-0.7-1.3-1.1-2c-7.3-5.6-9,7.5-13.4,9.1c-1.7,0.7-4.1-2.8-6.1-3.4c0-0.1-0.1-0.1-0.1-0.3c0.9-2,3.8-3,3.8-6.5
			c0-5.2-4-11.9-9.8-10.4l-0.1-0.1c0.4-2,0.9-2.9,0.9-4.9c0.1-0.1,0.1-0.3,0.3-0.3c3.3,1.1,5.6,4.4,9.6,4.9c0.3-0.1,0.5-0.4,0.9-0.5
			c-0.3-2.9-0.7-5.9-0.9-8.9c-0.4-1.1-1.1-3.2-0.8-4.8c1.6,0.8,2.4,2.4,4.2,3.2c1.1,0.4,2.2,0.9,3.3,1.1c1.5,0.3,2.8-0.3,4.4,0.5
			c0.9,0.9,2,1.7,2.9,2.6c0,0.1-0.1,0.4-0.1,0.5c-1.9,0.5-3.2,0.4-5.2,0.3c-0.8,1.1-1.9,2.1-2.2,3.4c-0.7,0.4-1.5,0.1-1.9,0.9
			c-0.3,0.8,0.3,1.2,0.3,2.1c-0.1,1.2-0.4,2.4-0.5,3.6c0.1,0.7,0.3,1.5,0.4,2.1c-0.3,0.4-0.7,0.9-0.9,1.3c0.1,0.8,0.3,0.9,0.8,1.3
			c1.3-0.1,2.2-1.1,3.3-1.3c4.6-1.5,7.9,1.2,10.2-3.7c0.1,0,0.1-0.1,0.3-0.1l0.1,0.1c0.4,0.9,0.9,1.9,1.3,2.8
			c0.5,0.7,1.1,1.2,1.6,1.9l0.1,0.1c0.1,0.7-0.4,1.1-0.5,1.6C466.8,322.3,466.2,324.1,463,323.1z M445.9,292
			c0.3,0.4,0.1,1.5,0.1,2.1C445.7,293.7,445.8,292.7,445.9,292z M455.9,286.3c0.1,0,0.3,0,0.3,0c0.3,3.3,1.6,6.5,2.9,9.3
			c0,0.1,0,0.3,0,0.3c-1.6-0.5-3.2-0.9-4.6-1.5c-1.6-0.3-2.8,0.8-4.2,0.4C447.5,290.2,453.5,287.8,455.9,286.3z M461.4,306.8
			c1.3,0.5,1.6,3.8,2.2,4.9c-0.8,0.9-1.6,1.9-2.2,2.8c-0.1,0-0.4,0-0.5,0C460.2,311.6,460,308.9,461.4,306.8z M455.9,307.1
			c0.1-0.3,0.1-0.5,0.3-0.9c0.9-0.7,2-0.8,3.4-0.7c-0.1,0.3-0.3,0.7-0.4,0.9C458.8,307.2,456.9,307.2,455.9,307.1z M458.9,314.5
			c-1.2,0.5-3.6,0.5-5.3,0.7c-1.1-1.1-0.4-3.7-0.3-5.3c1.2-0.8,2.6-0.4,4.2-0.9C458.6,310.2,458,313,458.9,314.5z M467,308
			c-0.7,0.8-1.3,1.2-1.5,2.2c-0.1,0.1-0.1,0.3-0.3,0.4h-0.1c-0.5-1.3-1.6-3.3-1.5-4.8C464.7,306.3,466.6,306.7,467,308z
			 M464.3,301.8c0.5,0.3,5.9,2.9,6.1,3.2c0.1,0,0.1,0,0.3,0c-0.1,0.4-0.1,0.3-0.3,0.5C468.3,305.8,464.8,303.4,464.3,301.8z
			 M468,309.2c0.1,0,0.4,0,0.5,0c1.3,1.6,3.7,3,4.2,5.3c-0.5,0.7-2.8,1.7-3.4,2C467.4,315,466.3,311.6,468,309.2z M475.2,315.8
			c1.9,0.1,2.8,1.3,3.8,2.1c-0.1,0.5-0.1,1.2-0.3,1.7c-1.9,1.3-4.9-1.5-7.1-1.9c-0.1-0.1-0.1-0.3-0.3-0.3
			C472.2,316.6,474.2,316.6,475.2,315.8z M475.6,313.4c-2.1-0.3-4.1-4.1-5.6-5.3c0-0.1,0-0.1,0-0.3c0.5-0.7,1.3-0.8,2.1-1.3
			c2.8,0,4.1,3.3,4.6,5.3C476.2,312.4,475.9,312.9,475.6,313.4z M472.5,303.4c-1.7,0-4.9-2.1-6.2-3c-5.2-4-9.6-10.3-8.5-18.8
			c0.7,0.4,4.6,7.4,5.7,8.7c3,3.7,12.3,11.5,19.6,9.6c1.6-0.5,3.2-1.1,4.6-1.6v0.1C485.2,303,478.3,303.1,472.5,303.4z M457,273.1
			c-0.8,1.3-1.2,6.2-1.2,7.8c-0.1,0-0.1,0.1-0.3,0.1c-0.8-1.3-2-2-2.9-3.2c-0.4-2.1,1.1-4.4,2.1-5.8c0.4-0.1,0.9-0.3,1.3-0.3
			c0.7,0.1,1.2,0.1,1.9,0.3c0.1,0.1,0.3,0.1,0.3,0.3C458,272.6,457.4,272.4,457,273.1z M450.8,271.4c-2.9,4-4.9,10-6.3,15.6
			c-1.1,3.8-0.9,9.3,0.1,13c0.4,1.2,1.3,4.8,0.8,6.2c0,0.1,0,0.1,0,0.3c-2.8-0.1-6.5-3.3-7.8-5.3c-1.5-2.2-3.6-3.7-4.5-6.3
			c-1.6-4.5,3-18.5,5.6-22.2c3.4-5.2,9.5-8.9,14.7-12.2c0.5-0.4,1.6-0.1,2.2-0.7c0.8,0,1.6,0,2.4,0c0,0.1,0.1,0.1,0.1,0.3
			c-1.5,2.6-3.6,5.4-5.6,7.7C452.2,268.9,451.5,270.2,450.8,271.4z M419.4,299.3c3.6,0.3,3.4,4.4,4.1,7.8c0.1,0.9,0.3,1.7-0.1,2.4
			c-1.3,2.5-3.3,4.4-5.3,6.3c-1.6,1.7-3,3.4-4.6,5.3c-3.7,2.9-7.3,6.1-11,9h-0.1c0.9-1.7,3-2.9,4.1-4.5c2.8-4.1,5.6-7.8,8.6-11.6
			c1.1-1.3,5.2-4.6,4.6-6.7c-0.4-0.5-0.8-1.1-1.2-1.6c-2.4-0.3-4.4,2.1-6.1,3.3c-1.6,0.8-3.3,1.7-4.9,2.5c-1.7,1.2-3.4,2.2-5.2,3.4
			c-10.3,4.8-18.6,12.2-26.4,19.6c-2.6,2.5-4.9,5.2-7.4,7.8c-0.5,0.5-1.9,1.2-2.1,1.9c-1.7,2.6-0.1,8.7,0.5,10.7c0,1.1,0,2.1,0,3.2
			c0.5,1.9,1.5,3.7,2.4,5.2c-0.3,1.1-1.7,1.6-2.2,2.4c-0.5-0.1-0.9-0.3-1.5-0.4c-0.7-1.1-1.9-2.8-2.2-4c-0.9-2.8-2.5-13.5-0.9-16.5
			c1.2-1.3,2.2-2.6,3.4-4c3.6-4.9,8.6-9,13.2-13c1.3-0.8,2.5-1.6,3.8-2.4c3.8-3.3,8.1-6.2,12.4-9c1.1-0.9,2.1-1.9,3.2-2.8
			c3.8-2.8,7.5-5.8,11.5-8.5c2.5-1.6,4.9-3.2,7.4-4.8C418.1,299.8,418.7,299.5,419.4,299.3z M455.3,371.3c-0.1,0-0.3,0.1-0.3,0.1
			c1.7-2.5,5.4-3.7,7.4-5.9c3.8-4.4,7.8-9.9,10.3-15.5c0.5-1.6,0.9-3.3,1.5-4.9c0.8-2.2,2.2-5.9,1.6-9c-0.7-2.8-1.9-5.3-2.9-7.4
			c0.1,0,0.3-0.1,0.4-0.1c7,1.3,9,10.4,7,18.2c-2.8,10.8-7.5,16.9-16.8,21.3C461.3,368.9,457.8,371.4,455.3,371.3z M480.2,355.3
			c-0.1,0-0.3,0-0.4,0c0.1-0.3,0.3-0.5,0.3-0.8C480.3,354.9,480.3,354.9,480.2,355.3z M482.2,355.1c0.1-0.4,0.3-0.9,0.4-1.3
			c0.3,0.3,0.3,0.5,0.3,0.9C482.7,354.8,482.6,354.9,482.2,355.1C482.3,355.1,482.2,355.1,482.2,355.1z M507.1,363.4
			c0.4,0.1,0.8,0.4,1.2,0.5c-0.9,0.5-1.9,0.9-2.8,1.5C506.1,364.7,506.6,364,507.1,363.4z M502.3,325c-1.5-2.1-4.4-2.5-5.9-4.5
			c0.1-0.1,0.3-0.3,0.3-0.3c9.8,0.4,12.4,16.7,13,25.1c0.3,3.2-0.3,5.8-0.4,8.7H509c-0.3-1.7,0.1-4.4-0.1-5.9
			C507.7,341,506,330.7,502.3,325z M509.3,360.6c0.5,0.1,0.5,0.3,0.7,0.9c-0.3,0-0.7,0-0.9,0c0-0.1-0.1-0.1-0.1-0.3
			C508.9,361,509.1,360.9,509.3,360.6z M486.3,308.9c0.5,0,1.1,0,1.6,0c0.4,1.1,1.1,2.9,2,3.4c0,0.1-0.1,0.3-0.1,0.4
			c-0.8,1.3-6.6,1.9-8.6,2.1c0.1-1.5,0.3-3,0.4-4.5C482.6,309.3,484.7,309.6,486.3,308.9z M483.3,307.7c0.5-1.1,4.5-1.7,6.2-1.7
			c0,0.3,0,0.5,0,0.8c-1.7,0-5,1.2-5.9,0.9C483.5,307.7,483.5,307.7,483.3,307.7z M492.5,305.4c0.9,0.3,2.2,0.8,2.8,1.6
			c-0.5,1.2-1.5,3-2.6,3.4c-0.1,0.7,0,0.9-0.3,1.6c-0.1,0.1-0.3,0.1-0.3,0.3C489.6,310,491.5,307.5,492.5,305.4z M488.8,279.6
			c-0.3-1.1-0.5-6.1,0-7.1c0.5-0.7,0.9-1.3,1.5-2c0.3-1.1,0.3-2,0.9-2.8c0.5-0.7,1.5-0.9,2.1-1.6c0.4,0,0.7,0,1.1,0
			c0.4,1.1,1.1,2.5,1.6,3.3c0.4,0.4,0.7,0.7,1.1,1.1c0,0,0,5.4,0,5.6C496.4,278.1,490.8,282.2,488.8,279.6z M499.3,269.7
			c0.1-0.7,0.3-0.7,0.4-1.1c0.7-0.1,1.3-0.4,2.1-0.5c0.4,0.1,0.9,0.4,1.3,0.5c0.3,0.4,0.3,0.4,0.3,0.9c-0.8,0.4-3,0.7-4,0.1
			C499.6,269.7,499.5,269.7,499.3,269.7z M488.1,259.6c1.2-0.4,3.8,0.3,4.8-0.8c5.6,1.5,14.4-0.1,12.3,8.7c-0.1,0.1-0.1,0.1-0.3,0.3
			c-2.9-0.8-4.9-2.9-7.4,0.7c-0.1,0-0.3,0-0.4,0c-1.6-1.3-1.3-4.5-4.2-3.4c-0.9,0.3-1.2,0.3-1.6,0.9c-0.1,0-0.4-0.1-0.5-0.1
			c-1.2-0.9-0.3-4.5-2.8-5.7C488.1,259.9,488.1,259.8,488.1,259.6z M488.1,283.4c1.6,3.4,4.4,8.7,0.9,11.8c-0.8,0.8-1.7,0.8-2.8,1.3
			c-0.9,0.5-1.9,0.9-2.8,1.5c-8.9,2.8-18.2-7.8-21.3-12.7c-0.8-1.3-4.4-6.2-3.7-8.5c0.4-1.5,1.5-4.5,2.8-5.3
			c1.5-0.9,3.7-0.1,4.8-1.5c2.4,0.1,4.2,1.1,6.9,1.6c1.2,0.3,4,0.1,4.6,0.4C481.8,274.4,485.9,278.1,488.1,283.4z M486.8,277.2
			c0,0.1-0.1,0.1-0.1,0.3c-0.7-0.8-1.2-1.6-1.9-2.2c-0.1-0.1-0.3-0.3-0.3-0.3c0.7-0.4,1.2-0.9,2.1-0.9
			C486.7,275.1,487.1,275.9,486.8,277.2z M483.2,261.3c0.4,0.1,0.8,0.3,1.2,0.4c2.1,1.1,2.8,4.8,2.1,7.1c0.1,0.8-0.1,0.4-0.8,0.8
			c-3,1.5-4.2,0.4-6.5-1.1l-0.1-0.1H479c-0.4-0.1-0.4-0.1-0.9-0.1c-0.3-0.5-0.4-1.1-0.7-1.6c1.1-1.2,2.1-2.5,3.2-3.7
			C481.6,262.3,482.7,262.3,483.2,261.3z M478.9,255.9c0.5-1.3,0.8-2.8,0.8-4.8c1.2,0.9,1.3,4.4,2.1,5.2c0.4,0.4,0.7,0.3,0.9,0.8
			v0.1C481.2,257.4,480,256.2,478.9,255.9L478.9,255.9z M477.5,257.5c1.5,0.3,2.9,1.3,4.1,1.5c0.1,0.4,0.4,0.8,0.5,1.2
			c-1.1,1.5-8.1,5.4-5.7,8.2c0.7,1.2,3.7,2.6,5.4,3.6c0,0.1,0,0.3,0,0.3c-1.2,0.5-2.8-0.9-4.1-1.3c-1.2-0.1-2.4-0.3-3.4-0.4
			c-3.3-0.8-5.3-1.5-9-2c0.3-0.8,0.5-1.7,0.8-2.5c0.5-2.1-1.2-4-0.3-5.9c0.3-0.5,0.8-0.8,1.5-0.9
			C468.8,257.8,474.9,261.5,477.5,257.5z M451.9,243.9c0.1,0,0.3,0,0.3,0v0.1c-0.1,0.1-0.3,0.1-0.3,0.3
			C451.9,244,451.9,244,451.9,243.9z M445.3,255.9c0.3-0.1,0.7-0.1,0.9-0.3c0.5,0.1,0.5,0,0.8-0.5c-1.6-3.2,1.3-5.4,4-6.6
			c0.3,1.1,1.2,1.7,2,2.4c4.1,3.6,9.3,2.6,12.2-2.1c0-0.3-0.1-0.7-0.1-0.9c-0.9-2.9-7.3-3.4-10.3-2.5c-0.9,0.3-1.5,0.9-2.8,1.1
			c0.1-0.8,0.7-2,0.4-2.6c0.3,0,0.5-0.1,0.8-0.1c0-0.1-0.1-0.3-0.1-0.4c0.8-0.7,5.3-2.2,6.1-2.4c-0.3-0.5-0.1-0.1-0.8-0.1
			c0.5-0.4,1.1,0,1.3-0.7c0.8,0.8,9.3,6.1,11,5.4c0.9,0.8,2.5,2.8,3.7,2.8c-0.5,2.2,3.2,4.6-0.5,7.1c-2.8,1.9-9-1.5-11.2,1.9
			c-2.4,3.4,1.6,7.5-1.6,11.5c-1.9,2.2-7.3-0.1-8.1,3c-0.1,0.1-0.3,0.1-0.3,0.3h-0.1c0.1-1.3,1.1-2,1.6-2.8c1.3-2.2,2.6-4.1,3.8-6.1
			c0.4-0.3,0.7-0.4,1.1-0.7c0.8-1.1,1.6-2.1,2.4-3.3c-0.4-0.7-0.5-0.9-1.5-1.2c0-0.3,0.1-0.7,0.1-0.9c-2-0.1-3.8-0.8-5.8-0.4
			c-6.3,1.3-11.1,4-15.9,7c0.3-0.8,0.8-0.7,1.3-1.2C441.8,260.5,444.2,258.6,445.3,255.9z M452.4,248.3c0-0.1,0-0.3,0-0.4
			c1.5-1.1,3.4-1.7,5-1.6c0-0.1,0.1-0.3,0.1-0.3c1.2,0.4,1.6,0.7,2.6,0.1c0.8,0.8,2,0.8,2.4,1.6c0.7,0.1,0.7,0.5,0.4,1.1
			c-0.5,0.5-1.1,1.1-1.6,1.6C457.8,253.9,454.4,250.5,452.4,248.3z M441.1,248.4c0.1-0.3,0.3-0.1,0.3-0.5c0.9,0.3,1.7,0.4,2.8,0.7
			c-0.3,0.8,0.5,1.3,0.9,1.9c0,0-0.7,4-1.2,4.9c-2.4,4.6-7.4,6.3-10.3,10.4c-0.1,0-0.3,0-0.4,0c-1.7-1.2-1.2-3.8-1.3-6.1
			C431.5,254.7,436.7,248.9,441.1,248.4z M429.6,266.5c1.3,1.7,3.3,0.9,5.2,0.8c-2,2.6-4.6,5.8-5.9,9c-0.4,0.9-0.5,3.2-1.3,4.2h-0.1
			c-0.1-0.4-0.3-0.8-0.3-1.2c-2-0.3-3.3,1.1-5,0.8c-0.1-0.1-0.1-0.3-0.3-0.3c1.2-2,3.6-4.8,5.9-5.4c-0.7-1.7-0.1-8.3,0.5-9.9
			C429,264.9,429,265.8,429.6,266.5z M406.4,264c0-0.1,0-0.4,0-0.5c0.5-0.5,2.4,0.4,2.9,0.5c1.3-0.1,2.6-0.3,4.1-0.3
			c2.8-0.9,3.7-2.9,5.4-4.8c-0.3-1.7-0.9-2.1-1.6-3.3c-2.6-5.3-6.7-1.2-9.9,0.7c-0.1,0.1-0.3,0.3-0.4,0.4c-0.5-1.1,0.3-2.8,0.5-3.7
			c2.2-0.7,4.1-2.5,6.5-3.4c1.9-0.7,3.8,0.5,5.9-0.9c5.4,2.8,4.8,2.9,6.3,8.7c0.5,2,1.6,3.7,1.7,5.9c-0.9-0.7-2.9-1.2-3.7-0.1
			c-0.3,0-0.4,0-0.7,0c-1.9,0.3-4.1-1.2-5.4-0.3c-0.4,0.5-0.8,1.2-1.2,1.7c-2.2,3-2.9,4.2-3,8.5c-0.1,0.1-0.1,0.1-0.3,0.3
			c-1.6-0.3-6.6-3.6-8.2-4.6C405.9,267,406.3,265.8,406.4,264z M407.3,258.6c0.7-2,3.2-3.6,5.2-4.1c0.4-0.1,1.5,0.3,2-0.3
			c1.2,0.8,1.1,1.5,1.9,2.5c1.9,2.6-1.6,5-4,5.6c-1.7,0.4-3,0-4.6-0.1c0-0.1-0.1-0.3-0.1-0.4c0.4,0,0.4,0.1,0.7-0.1
			C408.8,260.7,406.9,260,407.3,258.6z M413.4,275.1c0.4,0.7,0,1.1,0.5,1.6c0.5,0.5,1.3,0.7,1.7,1.2c-1.2,0.9-4.9-0.1-6.2-0.4
			c-1.7-0.4-2.6,0.9-3.4,0.9c-0.7-0.1-1.3-0.4-2.1-0.5c-1.2-1.7,0.3-2.9,0.8-4.5c0.4-1.2-0.1-2.4,0.3-3.4
			C406.4,270.3,412.9,274.2,413.4,275.1z M359.4,256.8c0-0.1,0.1-0.1,0.1-0.3c0.1,0,0.4,0,0.5,0c0.3,0.4,0,0.9,0.5,1.3
			c0.4,0.3,0.7,0.1,0.9-0.3c0.1-0.7-0.3-0.8-0.5-1.3c1.2,0,3.4-0.3,4.5-0.9c0.3,0.3,4.8-0.4,5.8-0.9c1.5,1.1,6.7-0.8,8.9-0.5
			c2.9,0.4,7.4-0.9,10.7-1.2c3.3-0.3,7.4-0.3,11.8-0.4c0.7,2.1-0.3,4.4,0.4,7.1c0.4,1.2,1.3,1.9,1.9,2.8c0.7,1.3,0,4.4-0.5,5.6
			c-2.9,0.4-7-6.3-9.6-3.4c-2.5,0.8-0.7,4.2-0.7,5.9c0.1,5.3,6.5,8.6,11.5,9.9c0,1.9,0.5,3.4,0.9,4.9v0.1c-2.2-0.8-4.6-2.5-6.5-3.7
			c-2.1-1.1-4.2-2.1-6.3-3.2c-1.7-1.1-3.6-2.8-5.3-3.7c-1.1-0.3-2.1-0.5-3.2-0.8c-1.3-0.7-2.6-1.3-4-2c0-0.1-0.1-0.3-0.1-0.3
			c0.3-0.1,0.5-0.3,0.9-0.3c0-0.3,0.1-0.5,0.1-0.9v-0.1c-0.5-0.4-0.8-0.8-1.6-0.3c-0.1,0-0.1,0-0.3,0c0.1,0.5,0.3,1.1,0.4,1.6
			c-1.5-0.3-2.5-1.3-3.7-1.9c-2.4-1.3-4.8-2.5-7.1-3.4c-0.5-0.1-1.1-0.3-1.6-0.3c-0.8-0.5-1.7-1.2-2.8-1.6c0-0.3,0-0.4,0-0.7
			c-2.6,0-3.7-1.5-5.6-1.7c-0.1-0.3,0-0.1-0.3-0.3c1.1-0.5,1.2-1.3,2.1-1.9c0-0.1,0-0.4,0-0.5c-0.3-0.3-0.4-0.4-0.7-0.7
			c-0.1,0-0.4,0.1-0.5,0.1c-0.7,0.4-0.9,1.2-1.6,1.6c0.1,0.3,0.3,0.7,0.3,0.9v0.1h-0.1c-0.7-0.4-0.9-2.2-1.1-3
			c0.5-0.3,0.9-0.5,1.5-0.8C359.5,257.1,359.5,257.1,359.4,256.8z M401.8,276.4c-0.1,0.1-0.1,0.3-0.3,0.4c-4.8-0.3-7.5-6.9-7-11.4
			c0.4-0.3,0.7-0.5,1.1-0.9c3.2,0.5,4.5,3.4,7.5,4.2C404.2,271.4,401.8,274.3,401.8,276.4z M390.6,278.7c-1.9,2.1-5.6,2.4-8.3,3.7
			c-4.5,2.1-8.5,4-12.4,6.5c-0.5,0.4-1.1,1.3-1.7,1.7c-5.9,3.6-10.7,8.5-16.1,12.6c-2.8,2.6-5.6,5.2-8.5,7.8c2-4,5.7-7,8.7-10
			c4-4.1,7.9-7.9,12.7-11.2c0.8-0.7,1.6-1.3,2.2-2.1c5-2.9,9.8-6.2,14.9-8.7c1.6-0.8,3-1.2,4.6-2.1
			C388.7,276.8,389.5,277.7,390.6,278.7z M354.6,259.5C354.6,259.4,354.6,259.4,354.6,259.5c0.5,0,0.9,0,1.5,0.1
			c0.3-0.8,0.4-1.6,0.7-2.4c0.3,0,0.7-0.1,0.9-0.1c0,0.3,0.1,0.5,0.1,0.9c-0.7,0.3-0.8,0.8-1.3,1.2c0,0.1,0,0.3,0,0.4
			c0.5,0,0.4,0,0.8,0.3c0,0.1,0,0.1,0,0.3C356.3,260.4,355.5,259.8,354.6,259.5L354.6,259.5z M353.3,257.9c0,0.3,0.1,0.5,0.1,0.8
			c-0.1,0.1-0.1,0.1-0.3,0.3c-0.4,0-0.4-0.1-0.7-0.3C352.8,258.4,353,258.2,353.3,257.9z M339.5,261.6c2-1.2,4.6-1.2,6.5-2.6
			c4.2,0,11,3,14.7,4.6c1.2,0.5,2.1,1.5,3.4,1.7c-0.5,1.6-3.8,2.6-5.3,3.4c-4.1,2.5-8.3,4.9-12.2,7.8c-7.5,5.6-16.4,13.6-21.9,21.1
			c-3.3,4.4-6.2,9.1-9.6,13.4c0.1,0.4,0.3,0.7,0.3,1.1c0.3,0,0.5,0.1,0.9,0.1c1.2-1.3,2.4-2.5,3.6-3.8c3.8-3.6,7.5-7.3,11.4-10.8
			c7.5-6.1,15.1-12.2,22.7-18.2c1.2-0.5,2.2-1.1,3.4-1.6c2.6-1.9,5.9-3.3,9-5.2c0.7-0.1,1.2-0.1,1.9-0.3c0.9-0.3,2.2-1.9,2.8-2.8
			c-0.1-0.3-0.4-0.4-0.5-0.7c-1.9,0.3-2.8,1.6-4.1,2.2c-3.2,1.7-6.5,3-9.3,5.2c-1.5,0.8-2.8,1.6-4.2,2.2
			c-6.2,4.9-12.4,9.6-18.6,14.5c-3.8,3-7,7.1-11.1,10L323,303c1.2-2.1,3-3.8,4.5-5.7c7.1-9,15.6-16.8,25.4-23
			c0.5-0.5,1.2-1.1,1.7-1.6c2.5-1.6,5.2-2.2,7.7-3.8c1.3-0.8,2.6-2.1,4.1-2.4c1.5-0.3,3.6,1.6,4.8,2.2c4.4,2.4,9,3.8,13.2,6.2
			c0.4-0.1,0.4-0.1,0.4,0.4c-15.1,8.3-29.5,17.8-39.5,30.8c-2.4,3-4.9,6.2-7.1,9.4c-0.8,1.1-2.4,2.4-2.1,4.1
			c0.4,0.1,0.7,0.1,1.1,0.3c0.8-0.8,1.6-1.7,2.2-2.5c4-3.2,7.1-7.9,11-11.2c9.3-7.8,17.8-15.3,28.9-21.3c2.1-0.7,4.2-1.3,6.3-2
			c2.1-0.8,5-2.9,7.5-2.9c1.1,0,2.5,1.3,3.3,1.7c2.9,1.9,7,2.6,9,5.3c-0.3,0.9-4.5,2.4-5.6,2.8c-5,2.5-9.5,6.1-14,9.3
			c-7,5-15.9,13-20.9,20c-2.1,2.9-4.1,5.8-6.1,8.9c-0.9,1.9-2,3.6-2.9,5.4c0,0.7,0.1,0.7,0.5,0.9c0.1,0.3,0,0.1,0.3,0.3
			c2.5-1.3,4.8-4.2,6.5-6.5c2-2,3.8-4,5.8-5.9c4.4-4.9,10.2-9.3,15.5-13.1c3.6-2.6,6.9-6.2,10.7-8.6c3.7-2.2,7.4-4.2,11.1-6.2
			c1.9-0.9,3.8-0.7,4.9-2.6c1.5,0.1,7,4.6,7.3,5.9c-1.9,1.9-4.5,2.8-6.9,4.1c-2.2,1.3-4.6,3-6.7,4.6c-4.4,3.3-8.9,6.5-13.4,9.9
			c-1.6,1.2-3.3,2.9-4.9,4.1c-4.8,3-9.3,6.5-13.5,10c-3.2,2.8-6.7,6.1-9.4,9.5c-0.8,0.9-2.2,3.8-3.8,3.7c-1.6-0.4-3.3-0.7-4.9-1.1
			c-5.9-1.5-11.5-3.3-16.9-5.7c-4.2-1.9-9.1-2.5-13.7-4.4c-2.1-0.9-5-2.2-7.1-3.2c-3.2-2-6.3-3.8-9.6-5.8c-0.1,0.1-0.4,0.1-0.5,0.3
			c0,0.1,0,0.3,0,0.3c2.5,3.4,10.8,7.3,15.5,9c3.8,1.5,8.5,3.6,12.6,4.8c2.4,0.7,4.8,2,7.1,2.6c0.5,0,0.9,0.1,1.5,0.1
			c1.6,0.7,3.4,1.7,5.3,2.2c2.5,0.7,5,1.2,7.5,1.9c1.1,0.1,2.1,0.3,3.3,0.4c0.8,0.5,0.3,5,0.3,6.1c0.4,4.2,1.1,8.2,2.8,12
			c0,0.1,0,0.3,0,0.3c-1.7-0.3-2.6-1.2-4-1.7c-4.8-2.2-9.3-4.6-13.6-7.7c-3-2.1-6.5-4.1-9.6-6.3c-2.4-1.9-4.8-3.7-7.1-5.6
			c-1.3-0.9-3.7-1.9-4.8-2.9c-3.4-3.3-7.3-5.9-11.2-8.7c-2.5-2.2-4.9-4.5-7.4-6.6c0-0.1,0-0.3,0-0.3c0.4-0.5,0.8-1.1,1.2-1.6v-0.1
			c-0.8,0.1-1.2,0.7-1.6,1.2c-1.6-0.3-4.2-3.7-5.4-4.9c-0.9-0.9-6.9-6.6-7.1-7.3c-0.9-3,4.4-13,5.8-14.7
			c5.6-7.1,11.9-13.4,18.8-19.2c3.6-3,7.3-6.5,11.5-9C332.3,266.1,335.4,264,339.5,261.6z M334.3,262.9c0.1,0,0.3-0.1,0.3-0.1
			c0.1,0,0.1,0,0.3,0C334.6,263.1,334.6,262.9,334.3,262.9C334.3,263.1,334.3,262.9,334.3,262.9z M329.6,263.7c0.1,0,0.3,0,0.4,0
			c0.1,0.4,0.3,1.1,0.5,1.3c0,0.1,0,0.3,0,0.4c-0.1,0-0.3,0-0.4,0c-0.1-0.8-0.1-1.1-0.9-1.2c-0.1-0.1-0.1-0.3-0.3-0.3
			C329.2,263.8,329.5,263.7,329.6,263.7z M319.4,266.5c1.9-0.5,3.6-1.2,5.4-1.7c1.1-0.1,2-0.4,3-0.5c-0.1,0.3-0.1,0.5-0.3,0.9
			c-0.4-0.1-0.9-0.3-1.3-0.3c-0.3,0.3-0.4,0.3-0.4,0.8c0.3,0.5,0.4,0.5,0.9,0.9c0.4-0.1,0.8-0.4,1.2-0.5c0.3,0.1,0.4,0.3,0.7,0.4
			c0.1,0,0.1,0.1,0.3,0.1c-0.3,0.3-0.7,0.5-0.9,0.8c-0.8-0.1-1.3-0.5-2.1-0.3c-0.1-0.4-0.3-0.9-0.3-1.3c-0.3-0.1-0.5-0.3-0.9-0.3
			c-0.5,0.4-0.8,0.7-0.8,1.7c0.5,0.1,1.1,0.3,1.6,0.4c0.3,1.2,0,1.7-1.2,2.1h-0.1c-0.3-0.7-0.7-1.7-0.5-2.8c-0.1,0-0.3,0-0.3,0
			c-0.3-0.3-0.9-0.1-1.5-0.3c-0.7,0.5-0.9,0.5-0.9,1.6h-0.1c-0.1-0.1-0.1-0.1-0.3-0.3c0-0.5-0.4-0.7-0.9-0.8
			c-0.1-0.1-0.1-0.3-0.3-0.3C319.4,266.6,319.4,266.5,319.4,266.5z M320.5,268.9c0.7,0.1,1.1,0.5,2,0.8c0.3,0.8,0.3,1.1-0.5,1.5
			c-0.1,0.1-0.3,0.1-0.4,0.3c-0.8-0.7-0.7-1.3-2-1.3c-0.1-0.3-0.1-0.5-0.3-0.9C320,269.1,320.1,269.1,320.5,268.9z M522.2,382.2
			c-1.2,1.7-3.4,6.2-5.3,7.1c-0.5,0-1.1,0-1.6,0c-3.7,2.2-7.7,2.5-12.7,3.7c-5.2,1.3-9.8,2.4-15.1,3.6c-6.3,1.5-11.6,1.1-18.9,2.4
			c-13,2.5-28.3,1.5-41.4,4c-5.7,1.1-10.6-0.4-15.9,0.4c-4.6,0.7-10,0.4-14.7,1.1c-1.1,0.1-2.4-0.1-3.3,0.1c-1.3-0.1-2.6-0.1-4-0.3
			c-0.4,0.5-2.4,0.3-3.3,0.3c-3.2,0-6.5,0-9.6,0c-3.3-0.7-7.4,0.1-10.6-0.3c-8.1-1.2-15.5-1.3-22.7-3.3c-4.6-1.2-9.3-0.3-13.5-1.6
			c-3.3-1.1-6.1-1.9-9-3.2c-1.2-0.4-2.4-0.8-3.6-1.2c-1.2-0.8-1.7-2.4-2.8-3.3c-3-2.6-6.6-5.6-8.5-9.3c2.9,0,5.2,1.5,7.3,2.1
			c3.8,1.3,8.7,2.4,12.7,3.4c3.7,0.9,7,0.5,10.7,1.5c10,2.2,20.1,4.1,30.3,6.5c1.5,0,2.8,0.1,4.2,0.1c4.1,0.9,10.3,1.3,15.1,0.9
			c3.6-0.4,6.7,0.7,10.2,0.1c2.2-0.1,4.5-0.4,6.7-0.5c3.3,0.4,8.2-0.3,11.6,0.3c2.2,0.4,4.5,0.3,6.5-0.1c2.2,0,4.5,0,6.6,0
			c1.9-0.1,3.6-0.3,5.4-0.4c0.8,0,1.7,0.1,2.5,0.1c1.9-0.3,3.8-0.5,5.7-0.8c4.2-0.4,9,0.3,13.1-1.6c1.5,1.1,9.9-1.7,12.2-1.6
			c2.1,0.1,6.6-0.7,8.5-1.2c2-0.1,4-0.4,5.9-0.5c4.1-0.9,8.2-1.6,12.2-2.8c1.6-0.3,3-0.4,4.6-0.7c0.4-0.3,0.4-0.8,0.8-1.1
			c0.7-0.1,1.3-0.3,2-0.3c0.9-0.5,1.9-1.1,2.8-1.6c3.4-1.5,6.5-2.5,9.6-3.8c0.9,0.4,2.8-0.9,3.6-1.2c0.9,0.4,8.2-3.4,9.1-4.1
			c0.1,0,0.1,0,0.3,0C525.9,377.7,523.5,380.3,522.2,382.2z M570.6,325.6c-2.4,9.9-4.6,16.7-9.6,24.1c-0.8,0.7-1.6,1.3-2.2,2.1
			c-2.5,2.2-4.9,4.6-7.4,6.9c-1.1,0.7-2.1,1.3-3.3,2.1c-11.5,9-25.1,14.1-39.9,20c-2.6,1.1-5.4,2.6-7.9,3.7
			c-1.2,0.5-2.9,0.3-4.2,0.9c-0.7,0.3-0.9,1.1-1.6,1.2c-6.1,1.7-12.4,1.9-18.2,3.3c-2.9,0.7-6.3,0.4-9.4,1.1
			c-4.9,1.2-13.2,1.6-19.2,2.9c-1.6,0-3.2,0-4.6,0c-1.5,0.4-3.2,0.4-5.3,0.8c-1.9,0-3.7,0-5.6,0c-1.9,0.3-3.7,0.4-5.6,0.7
			c-0.4-0.1-0.9-0.1-1.3-0.3c-5.9,0.8-11.1,0.1-17.8,0.4c-1.3-0.1-2.8-0.3-4.1-0.3c-4,0.7-7.5-0.3-11.2,0.3
			c-6.7,1.2-14.9,0.7-21.4-1.1c-1.3-0.1-2.6-0.3-4.1-0.3c-3.8-1.1-7.9-1.5-12.2-2.4c-0.9-0.4-2-0.8-2.9-1.2
			c-1.2-0.1-2.2-0.1-3.4-0.3c-3.2-0.9-7.7-1.7-10.4-2.4c-4.9-1.2-9.8-0.8-14.1-2.2c-5.7-1.7-11.4-3.3-17.1-5
			c-8.2-3.3-16-7.8-23.3-12.4c-1.3-0.9-2.6-1.3-4.1-2.1c-2-1.1-3.6-2.9-5.4-4.1c-4.2-2.5-8.2-5.6-11.6-8.9c-1.3-1.2-2.1-3.3-3.2-4.5
			c-0.4-0.5-1.3-0.8-1.7-1.5c-2.2-3-4.1-8.3-4.8-12.4c-0.1-0.7-0.1-3.3-0.3-3.7c-2.8-8.2,1.1-21.9,6.1-28.3
			c12.3-15.3,32.5-26.7,53-33.3c0.3,0.4,0.9,0.9,1.1,1.5c0.5,0,0.8-0.1,0.9-0.5c0.4-0.5,0.1-0.9-0.1-1.5c1.5-0.5,2.9-1.1,4.4-1.6
			c0.1,0,0.3,0,0.4,0c0.1,0.7,0.5,0.8,0.9,1.1c-0.5,0.5-0.8,0.7-0.9,1.6c0.3,0.3,0.7,0.4,0.9,0.7c-0.3,0.1-0.5,0.3-0.9,0.4
			c0,0.3-0.1,0.5-0.1,0.9c0.4,0.4,0.5,0.7,1.1,0.5c0.4,0,0.8,0.1,1.2,0.1v0.1c-2.2,2.9-8.2,5.7-9.8,8.7c-0.9,0-1.5-0.5-2.4-0.3
			c-0.1,0.8-0.1,1.3,0.5,1.6c-0.5,2.1-6.6,6.9-8.2,9c-2,2.8-3.8,5.3-5.7,8.3c-1.1,2.4-2,4.8-3,7.1c-1.3,1.6-2.8,3.3-4.1,4.9
			c-4.6,6.7-8.3,14.7-6.5,24.6c0.5,2.4,2.2,4.4,3.2,6.5c1.2,2.5,2,4.9,3.6,7c2,2.5,4.8,4.5,7.5,6.5c0.4,0.5,0.8,0.9,1.2,1.5
			c1.9,1.5,4.2,3,6.2,4.2c3.8,2.4,7.9,3.7,12.4,5.6c2.1,0.9,4,2.1,5.9,2.8c0.9,0.3,1.7,0,2.5,0.3c3.3,0.8,6.7,2.6,10.2,3.6
			c1.7,0.3,3.6,0.5,5.3,0.9c0.3,0.4,0.7,0.7,0.9,1.1c1.5,0.1,2.9,0.3,4.4,0.4c3,0.7,5.9,0.5,9.3,1.3c5.3,0.8,10.6,1.7,15.9,2.5
			c3.2,0.3,7.4,0.3,10.7,0.9c2.2,0.1,4.6,0.3,6.9,0.3c4.9,0.8,12.3,0.5,17.8,1.3c32,4.1,66.1,0.3,92.7-12.2c6.6-3,13.6-4.6,19.3-8.5
			c3.7-2.5,7-5.7,10.7-8.3c2.5-1.9,5.4-3.7,7.1-6.2c1.1-1.6,2.6-3,3.6-4.6c0.3-0.4-0.1-0.5,0.1-0.9c2-2.5,5.3-7.1,4.2-11.2
			c0.9-2,0.7-10,0-11.4c-0.9-2-1.9-4.8-3.4-6.5c-0.9-0.9-2-2.5-2.9-3.4c-0.7-0.5-1.2-0.9-1.9-1.5c-0.1-2-0.3-4-0.4-5.9
			c-1.3-3-5.9-5.3-9-6.6v-0.1c0.7-0.4,1.3-0.7,2-1.1c2.4-2,2.9-5.3,3.4-8.5c0.1-0.7,0.7-2,0.4-2.9c-1.1-2.1-2-4.4-3-6.5
			c0.1-1.5,0.3-3,0.4-4.5l0.1-0.1c2.4,0.1,4,2.6,5.9,3.4c6.2,3,12.3,7.7,17.7,12c2,1.6,2.4,4.2,4.2,5.8c0.8,0.7,1.9,1.1,2.5,1.9
			c0.9,1.1,1.2,2.5,2.1,3.7c0.8,1.2,2.2,2,2.9,3.3c0.8,1.5,1.5,4.6,2.8,4.6c-0.5,1.6,1.5,4,2.1,5.3c-0.3,0.5,0.5,3,0.8,3.8
			C569.7,317.1,571,324,570.6,325.6z M453.2,243.6L453.2,243.6c0.3-0.1,0.4-0.1,0.5-0.3c0-0.1,0-0.3,0-0.3c-0.1,0-0.3,0-0.4,0
			C453.2,243.2,453.2,243.5,453.2,243.6z M387.8,256.3c0.1-0.1,0.3-0.3,0.4-0.4c-0.1-0.3-0.1-0.5-0.3-0.9c-0.3-0.1-0.5-0.3-0.8-0.3
			c-0.1,0.1-0.3,0.3-0.4,0.4l-0.1,0.1c0,0.5,0,0.5,0.3,0.8C387.3,256.1,387.5,256.2,387.8,256.3z M378.9,257.1
			c0.3,0.3,0.7,0.3,1.2,0.3c0.1-0.1,0.3-0.3,0.3-0.4c-0.3-0.4-0.4-0.9-0.7-1.3c-0.1,0-0.4,0-0.5,0c-0.5,0.4-0.5,0.4-0.5,0.9
			c0,0.1-0.1,0.1-0.1,0.3C378.8,257,378.8,257,378.9,257.1z M367.6,257.1c-0.1-0.7-0.4-0.8-0.8-1.1c-0.3,0-0.4-0.1-0.7-0.1
			c-0.5,0.7-0.5,0.5-0.4,1.5C366.6,257.8,366.9,257.6,367.6,257.1z M373.8,257.5c0.1-0.3,0.3-0.4,0.4-0.7c-0.3-0.5-0.3-0.8-1.1-0.9
			c-0.1,0.3-0.3,0.4-0.4,0.7v0.1C373.1,257.2,372.8,257.5,373.8,257.5z M370.6,257.5c0.4-0.3,0.7-0.5,0.9-0.9v-0.1
			c-0.7-0.1-0.8-0.3-1.7-0.3c-0.5,0.4-0.5,0.4-0.7,0.9C369.3,257.5,369.8,257.9,370.6,257.5z M364.4,258.7c0.4-0.3,0.4-0.7,0.8-0.9
			c0-0.1,0-0.1,0-0.3c-0.5-0.3-0.9-0.4-1.6-0.5c-0.1,0-0.1,0.1-0.3,0.1c-0.1,0.3-0.3,0.5-0.4,0.9c0.3,0.3,0.4,0.4,0.7,0.7
			C363.7,258.7,364,258.7,364.4,258.7z M366.9,259.5c-0.1,0.1-0.3,0.3-0.3,0.4c0.1,0.4,0.1,0.7,0.3,1.1c1.5,0.5,2-0.9,0.8-1.5
			C367.3,259.5,367,259.5,366.9,259.5z M372.6,261.9c0.3-0.1,0.7-0.1,0.9-0.3c0.1-0.3,0.1-0.5,0.3-0.9c-0.4-0.4-0.5-0.7-1.3-0.8
			c-0.1,0.1-0.3,0.4-0.3,0.5c-0.1,0.3,0,0.8,0.3,1.1C372.3,261.7,372.5,261.7,372.6,261.9z M361.9,260.1c0,0.4-0.1,0.7-0.1,1.1
			c0.3,0.4,0.5,0.5,1.2,0.7c0.1-0.1,0.4-0.4,0.5-0.5c-0.1-0.3-0.1-0.5-0.3-0.8C362.8,260.3,362.5,260.1,361.9,260.1z M367.3,262.8
			c0-0.1,0-0.4,0-0.5c-0.4-0.1-0.8-0.4-1.2-0.5c-0.3,0.4-0.4,0.8-0.5,1.3v0.1C366.2,263.7,366.8,263.5,367.3,262.8z M370.3,264.2
			c0.1,0.1,0.3,0.4,0.3,0.5c0.1,0.1,0.1,0.3,0.3,0.3c0.3-0.1,0.5-0.3,0.9-0.3c0.4-0.1,0.4-0.3,0.5-0.7c-0.1-0.5-0.4-0.7-0.8-0.9
			c-0.1,0-0.3,0-0.3,0C370.7,263.6,370.6,263.7,370.3,264.2z M378.3,265.8c0.1-0.1,0.3-0.3,0.3-0.3c-0.1-0.3-0.1-0.7-0.3-0.9
			c-0.1-0.1-0.1-0.1-0.3-0.3c-0.3,0-0.5-0.1-0.8-0.1c-0.1,0.1-0.3,0.3-0.3,0.3c0,0.3,0,0.5,0,0.9c0.1,0.1,0.4,0.3,0.5,0.3
			C377.9,265.8,378.1,265.8,378.3,265.8z M384.6,267.8c0.3-0.4,0.3-0.5,0.7-0.9c0-0.3,0-0.5,0-0.8c-0.3-0.1-0.4-0.3-0.7-0.4
			c-0.1,0-0.4-0.1-0.5-0.1c-0.1,0.1-0.1,0.3-0.3,0.4c-0.4,0.4-0.1,0.5-0.3,1.2C383.9,267.4,384.3,267.7,384.6,267.8z M344.6,267.8
			c-0.1-0.5-0.1-0.7-0.5-0.9c-0.3-0.1-0.3-0.1-0.7-0.3c-0.3,0.3-0.4,0.5-0.7,0.9c0.1,0.5,0.3,0.8,0.5,1.2
			C344.2,268.6,344.3,268.5,344.6,267.8z M317.3,270.1C317.3,269.9,317.3,269.9,317.3,270.1c-0.8-0.7-2.4-0.8-3.2-1.2
			c-0.3,0.1-0.5,0.3-0.8,0.3c0,0.3,0,0.7,0,0.9c1.2,0.4,1.9,0.9,2.9,0.9C316.7,270.6,316.8,270.2,317.3,270.1z M333.5,271.3
			c0-0.1,0-0.3,0-0.4c-0.4-0.4-0.5-0.7-1.3-0.8c-0.3,0.4-0.4,0.7-0.7,1.1c0,0.1,0,0.3,0,0.3c0.3,0.1,0.5,0.3,0.9,0.4
			C332.8,271.6,333.2,271.4,333.5,271.3z M311.4,272c0.7-0.7-0.4-1.3-1.3-1.3c-0.1,0.1-0.3,0.3-0.3,0.3c0,0.4,0.1,0.8,0.1,1.2
			C310.5,272.6,311,272.4,311.4,272z M315,271.9c-0.1,0.1-0.3,0.3-0.4,0.3c-0.1,0.3-0.1,0.5-0.3,0.9c0,0.1,0.1,0.1,0.1,0.3
			c0.5,0.4,0.9,0.5,1.7,0.3c0-0.3,0.1-0.7,0.1-0.9c-0.3-0.1-0.5-0.4-0.8-0.5C315.3,271.9,315.1,271.9,315,271.9z M311.4,273.8
			c0.9,0.1,1.7,0.3,1.9-0.7c-0.3-0.3-0.5-0.5-0.8-0.9c-0.3,0-0.5-0.1-0.8-0.1c-0.1,0.1-0.3,0.4-0.3,0.5
			C311.4,273,311.4,273.4,311.4,273.8z M307,274.6c0.1-0.1,0.3-0.3,0.4-0.4c0-0.3,0-0.4,0-0.7c-0.4-0.3-0.7-0.5-1.5-0.5
			c-0.1,0-0.3,0.1-0.3,0.1c0.1,0.4,0.1,0.8,0.3,1.2C306.2,274.6,306.4,274.6,307,274.6z M302.1,276.1c0.1,0,0.1-0.1,0.3-0.1
			c0.5-0.8,0.3-1.6-1.1-1.6c-0.1,0.5,0,1.1,0.1,1.6C301.6,276,301.9,276.1,302.1,276.1z M313.5,277.6c0.1-0.1,0.1-0.3,0.3-0.3
			c0.3-0.5,0-0.9-0.3-1.1c-0.8-0.7-1.1,0.1-2.1,0c-1.1-0.3-1.5-0.8-2.8-0.9c-0.1,0.4-0.4,0.7-0.5,1.1
			C309.3,278.1,311.5,277.5,313.5,277.6z M295.5,278c0.4-0.4,0.5-0.5,0.8-1.1c0.4,0,0.3,0.1,0.5-0.1v-0.1c-0.7-0.1-1.3-0.3-2-0.4
			c-0.1,0-0.1,0.1-0.3,0.1c-0.3,0.4-0.4,0.8-0.1,1.5C294.9,278,295,278,295.5,278z M306.2,278.1c0-0.1,0.1-0.3,0.1-0.3
			c-0.4-0.3-0.9-0.7-1.3-0.9c-0.1,0.3-0.4,0.5-0.5,0.8c0,0.1,0,0.4,0,0.5C305.2,278.5,305.6,278.7,306.2,278.1z M472,277.2
			c-0.8,0.8-1.2-0.3-2.4,0.4c-1.9,1.1-3,2.1-3.8,4.1c0.4,0.8,0.9,0.4,1.3,0.9c2.9,3.4,5.4,9.4,11.4,7.9c1.3,0.4,3.4-0.8,4.1-1.6
			C486.3,284.2,476.6,277.3,472,277.2z M480.7,287.9c-0.8,1.3-4.1,1.5-5.7,0.9c-3.3-1.1-5.7-4.9-6.7-8.3c1.5-1.1,3.2-0.7,4.6-1.6
			c3,1.7,5.7,2.5,7.3,5.6C480.7,285.1,481.6,286.8,480.7,287.9z M502.6,278.8c-0.4,0.3-6.2,5-6.3,5.3c-0.1,0.7,0.4,1.1,0.3,2.1
			c-0.5,2.5-2.1,5.4,0,7.1c0.8,0.7,3.4,1.9,4.9,1.5c0.9-0.3,7.7-4.4,7.8-5c-0.1-0.7-0.3-1.3-0.3-2.1c0.4-1.2,1.6-7.5,0.3-8.5
			c-1.6-0.3-3.2-0.7-4.6-0.9C504,278.5,503.3,278.7,502.6,278.8z M501.7,290.8c-0.3,0.7-0.9,0.9-1.2,1.9c-1.2,0-2.8-0.5-3.2-1.3
			c-0.5-1.2,0.5-4.9,1.1-5.9c1.3,0.1,2.8,0.4,4.1,0.5C502.5,288,502.4,289.4,501.7,290.8z M507.7,283.8c-0.1,1.7-0.4,3.4-0.5,5.3
			c-0.7,1.1-2.4,1.9-3.4,2.4c-0.5-0.9,2.8-6.9,3.6-7.7C507.4,283.8,507.5,283.8,507.7,283.8z M506.7,280.8c-0.3,1.9-1.6,2.4-2.5,3.4
			c-1.5,0-2.6-0.4-4.2-0.7c0-0.1-0.1-0.1-0.1-0.3c0.9-0.8,1.9-1.6,2.8-2.4c0.8-0.3,1.6-0.5,2.4-0.8
			C505.6,280.8,505.8,280.8,506.7,280.8z M364.1,281.2c0.1-0.1,0.1-0.1,0.3-0.3c0-0.5,0-1.1,0-1.6c-0.3,0-0.4-0.1-0.7-0.1
			c-0.3,0.1-0.5,0.3-0.9,0.3c-0.4,0.5-0.3,1.1,0,1.6C363.2,281.2,363.7,281.2,364.1,281.2z M332.7,281c0-0.3-0.1-0.4-0.1-0.7
			c-0.4-0.3-0.7-0.5-1.5-0.5c-0.3,0.4-0.4,0.7-0.7,1.1c0.1,0.1,0.3,0.4,0.4,0.5C331.7,281.7,332.1,281.4,332.7,281z M291.4,283.8
			c0.1-0.1,0.1-0.1,0.3-0.3c-0.4-0.4-0.5-0.7-1.1-0.9c-0.4,0.3-0.5,0.4-0.5,1.1c0,0.1,0.1,0.3,0.1,0.4
			C290.6,284.5,291.2,284.5,291.4,283.8z M304.9,284.7c0.1,0,0.3,0.1,0.4,0.1c0.3-0.4,0.4-0.5,0.4-1.2c-0.3-0.3-0.3-0.5-0.9-0.7
			c-0.3,0.1-0.5,0.4-0.8,0.5c0.1,0.3,0.1,0.5,0.3,0.9C304.6,284.7,304.4,284.6,304.9,284.7z M300,287.2c0.3-0.1,0.7-0.1,0.9-0.3
			c0.1,0,0.1,0,0.3,0c0-0.3,0.1-0.5,0.1-0.9c-0.1-0.3-0.4-0.4-0.5-0.7c-0.3,0-0.4,0-0.7,0c-0.1,0.1-0.4,0.3-0.5,0.3
			c-0.1,0.3-0.1,0.5-0.3,0.9C299.9,286.8,299.9,286.8,300,287.2z M349.1,288.6c-0.1-0.4-0.1-0.7-0.3-1.1c-0.3-0.1-0.7-0.3-0.9-0.4
			c-0.4,0.4-0.8,0.4-0.9,1.2c0,0.3,0,0.4,0,0.7C347.7,289.5,348.5,289,349.1,288.6z M317.2,288.3c-0.1,0.1-0.3,0.3-0.4,0.4
			c0,0.3,0,0.5,0,0.8c0.1,0.3,0.3,0.4,0.4,0.7c0.3,0,0.5,0.1,0.8,0.1c0.4-0.1,0.3,0,0.5-0.3c0.3-0.4,0.1-0.7,0-1.2
			C318.1,288.6,317.9,288.4,317.2,288.3z M284.7,295.7c1.1,0,1.3-0.7,1.3-1.6c-0.3-0.3-0.5-0.4-0.9-0.7c-0.5,0.4-0.9,0.7-1.3,1.5
			C284,295.2,284.4,295.3,284.7,295.7z M374.4,296.9c0.3-0.3,0.5-0.7,0.8-0.9c-0.3-0.4-0.4-0.8-0.7-1.2c-0.1,0-0.3,0-0.3,0
			c-0.5,0.4-0.8,0.8-1.2,1.3c0,0.1,0,0.3,0,0.3c0.3,0.1,0.7,0.4,0.9,0.5C374.2,296.9,374.3,296.9,374.4,296.9z M339.7,299.9
			c0.1-0.3,0.3-0.5,0.3-0.8c-0.5-0.7-0.7-0.9-1.6-1.2c-0.1,0.5-0.3,1.1-0.4,1.6c0.1,0.3,0.4,0.4,0.5,0.7
			C338.9,300.1,339.3,300.1,339.7,299.9z M308.7,299.9c-0.1,0.1-0.4,0.3-0.5,0.3c-0.3,0.3-0.3,0.7-0.3,0.8c0.3,0.3,0.7,0.4,1.2,0.5
			c0.3-0.3,0.5-0.5,0.8-0.9c-0.3-0.3-0.5-0.5-0.8-0.8C309,299.9,308.9,299.9,308.7,299.9z M363.9,303.9c0.3-0.3,0.3-0.7,0.3-1.2
			c-0.4-0.3-1.1-0.5-1.6-0.7c0,0.5-0.1,1.1-0.1,1.6c0.3,0.1,0.5,0.3,0.8,0.4C363.5,304.3,363.6,304.3,363.9,303.9z M402.7,305
			c0.1-0.1,0.4-0.4,0.5-0.5c0-0.7-0.1-0.8-0.5-1.3c-0.3,0-0.4,0-0.7,0c-0.1,0.3-0.4,0.7-0.5,0.9c0.1,0.1,0.3,0.4,0.3,0.5
			C402.2,304.7,402.5,304.8,402.7,305z M328.2,311.2c-0.1-0.3-0.1-0.4-0.3-0.7c-0.3-0.5-0.7-0.5-1.5-0.5c-0.3,0.3-0.4,0.5-0.4,0.9
			C326.6,312,327.5,312.2,328.2,311.2z M412.2,313.5c0-0.4,0-0.8,0-1.2c-0.3-0.3-0.3-0.1-0.4-0.5c-0.1,0-0.3,0-0.4,0
			c-0.1,0.1-0.3,0.1-0.4,0.3c-0.3,0.4-0.5,0.7-0.3,1.2C410.9,313.9,411.4,313.8,412.2,313.5z M386.2,315.5c0.4-0.3,0.4-0.4,0.5-0.9
			c-0.4-0.5-0.7-0.8-1.6-0.9c-0.3,0.3-0.4,0.7-0.7,0.9c0.1,0.3,0.3,0.5,0.4,0.9C385.4,315.5,385.8,315.5,386.2,315.5z M410.1,315.3
			c0.5,0.1,0.8-0.3,0.9-0.7c0-0.1-0.1-0.3-0.1-0.4c-0.4-0.1-0.7-0.3-1.1-0.3c-0.1,0-0.1,0.1-0.3,0.1c-0.1,0.1-0.3,0.3-0.3,0.4
			c0.1,0.3,0.1,0.5,0.3,0.9C409.7,315.3,410,315.3,410.1,315.3z M407.1,316.3c0.3-0.3,0.4-0.4,0.7-0.7c0-0.1,0.1-0.3,0.1-0.4v-0.1
			c-0.4-0.3-0.7-0.5-1.5-0.5c-0.3,0.3-0.3,0.3-0.4,0.8c0.1,0.1,0.1,0.4,0.3,0.5C406.6,316.1,406.8,316.2,407.1,316.3z M353.8,317.4
			c0.1-0.1,0.4-0.4,0.5-0.5c0-0.3,0-0.7,0-0.9c-0.7,0-0.8-0.1-1.6-0.3c-0.1,0.1-0.3,0.3-0.4,0.4c0.1,0.4,0.1,0.7,0.3,1.1
			C352.9,317.4,353.3,317.5,353.8,317.4z M404.2,320.3c0.3,0.1,0.3,0.1,0.7,0.3c0.3-0.3,0.4-0.5,0.7-0.8c0-0.9-0.8-1.1-1.5-0.8h-0.1
			c0.1-0.4,0.3-0.8,0.4-1.2c-0.3-0.4-0.5-0.5-1.2-0.5c-0.3,0.1-0.5,0.4-0.9,0.5C402.6,318.2,403.9,320,404.2,320.3z M408.1,318
			c0-0.1-0.1-0.1-0.1-0.3c-0.4-0.1-0.7-0.1-1.1-0.3c-0.4,0.3-0.7,0.4-1.1,0.8c0,0.1,0,0.3,0,0.4c0.7,0,1.2,0,1.9,0
			C407.9,318.4,408,318.3,408.1,318z M399.5,321.2c0.1-0.3,0.3-0.4,0.1-0.8c0-0.1-0.1-0.3-0.1-0.3c-0.3,0-0.4-0.1-0.7-0.1
			s-0.5,0.1-0.8,0.1c-0.1,0.4-0.1,0.7-0.3,1.1c0.3,0.1,0.5,0.4,0.8,0.5C399,321.6,399.3,321.5,399.5,321.2z M402.2,323.1
			c0.1,0,0.4,0,0.5,0c0.4-0.3,0.7-0.7,0.7-1.5c-0.4-0.3-0.5-0.5-1.2-0.5c-0.1,0.3-0.4,0.5-0.5,0.8
			C401.7,322.4,401.8,322.8,402.2,323.1z M328.2,323.1c0.4,0.3,0.7,0.4,1.1,0.7c0.3,0,0.7-0.1,0.9-0.1c0.1-0.4,0.3-0.8,0.4-1.2
			c-0.3-0.3-0.5-0.5-0.9-0.8c-0.3,0-0.4,0-0.7,0c-0.3,0.4-0.7,0.7-0.9,1.1C328.2,322.8,328.2,322.9,328.2,323.1z M394.9,323.7
			c0.3-0.1,0.7-0.4,0.9-0.5c0-0.8-0.5-1.3-1.2-1.6c-0.8,0.9-0.8,0.9-0.1,2.1C394.7,323.7,394.8,323.7,394.9,323.7z M530.4,323.6
			c0.1,1.1,0.8,1.6,1.6,1.9c0.1,0,0.3,0.1,0.3,0.1c0.4-0.4,0.7-0.8,1.1-1.2c0-0.1,0-0.3,0-0.4c-0.8-0.5-1.3-0.9-2.4-1.3
			C530.9,323.1,530.7,323.3,530.4,323.6z M416.3,324.7c-0.1-0.3-0.4-0.5-0.5-0.9c-0.4-0.1-0.8-0.1-1.2-0.3c-1.2,1.3-1.5,2.8-0.9,4.8
			c0.5,0,1.1,0,1.6,0C416.1,327.3,416.2,326.1,416.3,324.7z M400.6,326.8c0.7,0.4,0.7,0.4,1.5,0.3c0.4-0.7,0.1-1.2-0.5-1.6
			c0-0.4,0.1-0.8,0.1-1.5c-0.1-0.1-0.3-0.3-0.3-0.3c-0.3,0-0.7-0.1-0.9-0.1c-0.1,0-0.1,0.1-0.3,0.1c-0.3,0.4-0.4,0.4-0.4,0.9
			C400.3,325.6,400.5,325.6,400.6,326.8z M395.6,328c0.4,0.3,0.3,0.9,0.9,1.2c0.3,0,0.4,0.1,0.7,0.1c0.1-0.4,0.3-0.7,0.4-1.1
			c-0.4-0.7-0.7-0.7-1.2-0.9c-0.7,0.1-1.1-0.7-1.2-1.5c-0.3,0-0.5,0-0.8,0c-0.3,0.1-0.4,0.3-0.7,0.4
			C393.9,328.5,394.7,327.4,395.6,328z M344.4,328.8c0.1,0,0.4,0.1,0.5,0.1c0.3-0.4,0.4-0.4,0.4-1.1c-0.5-0.3-1.1-0.5-1.6-0.8
			c-0.1,0.1-0.4,0.3-0.5,0.3c0,0.3-0.1,0.7-0.1,0.9C343.6,328.9,343.6,329,344.4,328.8z M516.8,330.1c0.3-0.3,0.7-0.5,0.9-0.8
			c-0.1-0.4-0.3-0.7-0.3-1.1c-0.3-0.4-1.1-0.5-1.7-0.5c-0.1,0-0.1,0.1-0.3,0.1C514.9,329,515.7,329.9,516.8,330.1z M385.8,329.9
			c0.9,0.5,1.9-0.7,2-1.2c-0.3-0.3-0.5-0.4-0.9-0.7C386.3,328.4,384.5,329.1,385.8,329.9z M306.2,331.9c0.4-0.1,0.7-0.1,1.1-0.3
			c0.1-0.1,0.3-0.4,0.4-0.5c0-1.2-0.4-1.7-1.1-2.1c-0.3,0-0.5-0.1-0.8-0.1c-0.4,0.4-0.5,0.8-0.5,1.7c0.1,0.3,0.3,0.3,0.3,0.8
			C305.8,331.7,306.1,331.8,306.2,331.9z M429,332.2c0.4-0.5,0.5-0.9,0.7-1.7c-0.3-0.3-0.4-0.7-0.7-0.9c-0.5-0.4-0.4-0.4-0.9-0.4
			c-0.1,0-0.4,0.1-0.5,0.1c-0.5,0.8-0.7,2.4,0.1,3C428,332.6,428.5,332.3,429,332.2z M391.7,331.1c0.5-0.3,0.7-0.7,0.9-1.3
			c-0.4-0.3-0.4-0.4-1.1-0.5c-0.3,0.1-0.4,0.3-0.7,0.3c0,0.1-0.1,0.3-0.1,0.4C391.1,330.6,391.4,330.9,391.7,331.1z M492.5,330.5
			c-0.1-0.1-0.4-0.3-0.5-0.4c-0.3-0.1-0.4-0.3-0.9-0.3c-0.3,0.3-0.5,0.4-0.9,0.7c0,0.4,0,0.8,0,1.2c1.1,0.1,1.6-0.3,2.2-0.8
			C492.5,330.9,492.5,330.7,492.5,330.5z M438.4,333c0.5-0.5,0.7-0.8,0.9-1.6c-0.3-0.4-0.5-0.8-0.9-1.2c-0.3,0-0.7-0.1-0.9-0.1
			c-0.4,0.3-0.7,0.4-0.9,0.9c0,0.4,0,0.8,0,1.2c0.1,0.3,0.4,0.4,0.5,0.7C437.5,333,437.7,333.1,438.4,333z M387.3,332.5
			c0-0.1,0-0.3,0-0.4c-0.4-0.4-0.7-0.5-1.5-0.7c-0.1,0.1-0.3,0.4-0.4,0.5c0.1,0.3,0.1,0.5,0.3,0.9c0.3,0.1,0.7,0.1,0.9,0.3
			C386.9,332.8,387,332.7,387.3,332.5z M522.2,334c0.7-0.1,1.1-0.3,1.3-0.8c0.5-1.2-1.1-1.9-2.1-1.9c-0.1,0-0.1,0.1-0.3,0.1
			c-0.1,0.3-0.3,0.5-0.3,0.8C521,333.1,521.5,333.5,522.2,334z M391.6,333.8c0.1,0.1,0.1,0.1,0.3,0.3c0.3-0.5,0.5-0.8,0.8-1.5
			c-0.1-0.1-0.1-0.4-0.3-0.5c-0.4-0.1-0.7-0.1-1.1-0.3c-0.1,0-0.1,0.1-0.3,0.1c-0.3,0.5-0.1,0.8,0,1.5
			C391.6,333.5,391.5,333.5,391.6,333.8z M446.7,335c0.1-0.3,0.1-0.4,0.3-0.7c-0.1-0.8-0.5-1.2-0.9-1.6c-0.3,0-0.5-0.1-0.8-0.1
			c-0.3,0.4-0.5,0.7-0.8,1.1c0.3,0.5,0.5,0.9,0.9,1.5C445.9,335.4,446.2,335.2,446.7,335z M531.5,334.8c0-0.3-0.1-0.5-0.1-0.8
			c-0.3-0.7-0.9-0.9-1.7-1.1c-0.3,0.1-0.4,0.1-0.7,0.3c0,0.5,0.1,0.9,0.1,1.5C529.9,335.2,530.7,335.8,531.5,334.8z M306,333.5
			c-0.1,0.3-0.3,0.5-0.4,0.8c0.1,0.5,0.1,1.1,0.3,1.6c0.7,0.5,1.7,1.1,2.1-0.1c0-0.5,0.1-0.9,0.1-1.5c-0.4-0.3-0.7-0.5-1.1-0.8
			C306.6,333.5,306.4,333.5,306,333.5z M385.9,334.6c0.3,0.4,0.4,0.8,0.9,1.1c0.8,0,1.2-0.1,1.7-0.5c-0.3-0.4-0.4-0.9-0.7-1.3
			c-0.4,0-0.7-0.1-1.1-0.1C386.5,334,386.2,334.3,385.9,334.6z M391.5,334.3c0,1.1,0.1,1.5,0.9,1.7c0.3-0.1,0.5-0.3,0.9-0.4
			c0.1-0.3,0.1-0.4,0.3-0.7c-0.1-0.1-0.3-0.4-0.3-0.5c-0.5-0.1-0.9-0.3-1.5-0.3C391.9,334.4,391.7,334.3,391.5,334.3z M383.6,336.8
			c0.4-0.3,0.5-0.7,0.5-1.5c-0.1-0.1-0.3-0.1-0.4-0.3c-0.3-0.3-0.8-0.3-1.5-0.3c0,0.5,0,1.2,0,1.7
			C382.6,336.9,383,337.1,383.6,336.8z M315.2,336c-0.1,0.4-0.4,0.8-0.5,1.2c0.5,1.3,0.9,1.6,2.4,1.5c0.1-0.4,0.1-0.9,0.3-1.3
			c-0.4-0.4-0.7-0.9-1.1-1.3C315.9,336,315.5,336,315.2,336z M488.5,336.5c-0.3,0.1-0.4,0.4-0.7,0.5c0,0.1,0,0.3,0,0.3
			c0.4,0.3,0.8,0.5,1.2,0.8c0.1,0,0.3,0,0.4,0c0.1-0.1,0.1-0.3,0.3-0.3c0-0.1,0.1-0.3,0.1-0.3c-0.1-0.3-0.4-0.5-0.5-0.9
			C489,336.5,488.8,336.5,488.5,336.5z M459.8,337.6c-0.1,0.1-0.3,0.4-0.4,0.5c0,0.3-0.1,0.5-0.1,0.9c0.5,0.4,0.9,0.7,1.9,0.7
			C461.3,338.4,461.3,337.6,459.8,337.6z M529.6,338.4c0,1.5,0.7,1.6,1.5,2.4c0.9-0.1,1.1-0.5,1.6-0.9c0-0.3,0-0.4,0-0.7
			c-0.8-0.5-1.2-1.1-2.8-1.1C529.9,338.3,529.7,338.3,529.6,338.4z M379.5,340.5c0.3-0.4,0.5-0.8,0.8-1.2c-0.4-0.3-0.9-0.5-1.3-0.9
			c-0.3,0.3-0.5,0.7-0.9,0.9c0,0.1,0,0.3,0,0.4c0.1,0.1,0.3,0.4,0.3,0.5C378.8,340.5,379.2,340.5,379.5,340.5z M376.3,342.5
			c0.7,0.1,0.9,0.1,1.6-0.1c0.3-0.4,0.4-0.7,0.7-1.1c-0.1-0.3-0.3-0.5-0.4-0.8c-0.3-0.1-0.7-0.1-0.9-0.3c-0.4,0.1-0.7,0.3-1.1,0.4
			c-0.3,0.4-0.4,0.5-0.3,1.1C375.9,342.1,376,342.4,376.3,342.5z M374.2,340.6c-0.1,0-0.3,0-0.4,0c-0.1,0.3,0,0.1-0.3,0.3
			c-0.1,0.7,0,0.9,0.3,1.5c0.4,0,0.7,0,1.1,0c0.4-0.3,0.5-0.3,0.7-0.9C374.7,341.3,374.6,341,374.2,340.6z M314.6,340.8
			c-0.1,0.3-0.3,0.5-0.4,0.9c0.1,0.5,0.3,0.9,0.3,1.5c0.4,0.1,0.7,0.4,1.1,0.5c0.3-0.1,0.7-0.3,0.9-0.4c0-0.4,0-0.8,0-1.2
			c-0.3-0.3-0.7-0.7-0.9-0.9C315.2,340.8,315.1,340.8,314.6,340.8z M515.3,343.6c0-0.1,0-0.1,0-0.3c0.4-0.4,0.4-1.3,0.3-1.7
			c-0.3-0.4-1.2-0.8-2.1-0.8c-0.1,0.1-0.3,0.3-0.4,0.4c0,0.3,0,0.7,0,0.9C513.6,343,514,343.8,515.3,343.6z M521.4,342.6
			c0.1,0.4,0.1,0.8,0.3,1.2c0.4,0.3,0.7,0.4,1.1,0.7c0.4-0.1,0.8-0.1,1.2-0.3c0.1-0.3,0.3-0.5,0.4-0.8c-0.1-0.3-0.3-0.5-0.4-0.9
			c-0.7-0.3-0.9-0.5-2-0.5C521.8,342.2,521.5,342.5,521.4,342.6z M516.4,342.2c-0.1,0.3-0.4,0.5-0.5,0.9c0.4,0.8,0.8,1.2,1.3,1.7
			c0.5-0.1,0.5-0.3,1.3-0.3c0.3-0.4,0.5-0.7,0.3-1.3C518.4,342.4,517.5,342.1,516.4,342.2z M418.7,343c-0.4,0.5-0.8,0.8-0.7,1.6
			c0.5,0.1,1.1,0.3,1.6,0.3c0.4-0.3,0.5-0.4,0.4-0.9C419.9,343.4,419.5,343.2,418.7,343z M497,346.2c0.1-0.3,0.3-0.5,0.4-0.9
			c0-0.1-0.1-0.1-0.1-0.3c-0.5-0.1-0.9-0.3-1.5-0.3c-0.1,0-0.3,0.1-0.4,0.1c-0.1,0.1-0.3,0.3-0.3,0.4
			C495.2,346.5,496,346.3,497,346.2z M523.4,346.3c-0.3,0.3-0.5,0.4-0.9,0.7c0.1,0.5,0.4,0.9,0.5,1.5c0.5,0.3,1.1,0.5,1.7,0.3
			c0.3-0.1,0.4-0.4,0.7-0.5c0-0.1,0.1-0.4,0.1-0.5c-0.3-0.3-0.4-0.5-0.7-0.9C524.5,346.5,524.2,346.3,523.4,346.3z M487.6,346.6
			c-0.1,0.1-0.4,0.3-0.5,0.3c0.1,0.3,0.1,0.7,0.3,0.9c0.5,0,1.1,0,1.6,0c0.1,0,0.3-0.1,0.3-0.1c-0.1-0.1-0.1-0.4-0.3-0.5
			C488.5,347,488,346.7,487.6,346.6z M517.5,350.8c0.4-0.7,0.4-1.5,0.4-2.6c-0.7-0.8-1.3-1.1-2.5-1.1c-0.3,0.3-0.4,0.5-0.7,0.9
			c0.4,0.7,0,1.3,0.4,2.1c0.3,0.5,0.7,0.7,1.2,0.9C516.7,351,517.1,350.8,517.5,350.8z M395.8,347.3c-0.3,0-0.5-0.1-0.9-0.1
			c-0.3,0.3-0.4,0.5-0.7,0.8c0,0.5,0,0.5,0.3,0.9c0.3,0.1,0.4,0.1,0.7,0.3c0.7-0.3,0.9-0.4,1.2-0.9c0-0.1-0.1-0.4-0.1-0.5
			C396.1,347.5,396,347.4,395.8,347.3z M311.1,347.5c-0.1,0.1-0.3,0.4-0.4,0.5c-0.3,1.3,0.4,1.7,0.9,2.5c0.8-0.1,1.2-0.5,1.6-1.1
			c0.1-0.5-0.1-0.9-0.3-1.5C312.3,347.8,312,347.5,311.1,347.5z M454.7,348.8c0-0.1,0-0.1,0-0.3c-0.3-0.3-0.7-0.7-0.9-0.9
			c-0.3,0-0.4-0.1-0.7-0.1c-0.1,0.1-0.3,0.4-0.4,0.5c0,0.4,0,0.8,0,1.2c0.4,0.3,0.4,0.4,0.9,0.4C454,349.4,454.4,349.1,454.7,348.8z
			 M405.4,348.7c-0.1,0.5-0.4,0.9-0.5,1.5c0.1,0.3,0.3,0.5,0.3,0.8c0.3,0.1,0.5,0.1,0.9,0.3c0.1,0,0.3-0.1,0.3-0.1
			c0.4-0.7,0.5-1.1,0.3-1.9C406.2,348.8,406,348.7,405.4,348.7z M306.4,349.2c-0.3-0.1-0.4-0.3-0.9-0.3c-0.1,0.1-0.3,0.3-0.4,0.4
			c-0.9,1.2,0.4,2.2,0.8,2.9c0.3,0,0.7-0.1,0.9-0.1C307.8,351.2,308.1,349.9,306.4,349.2z M495.8,349.5c-0.4,0.7-0.1,0.8,0.4,1.3
			c0.8-0.1,1.2-0.4,1.6-0.9c-0.4-0.4-0.8-0.5-1.5-0.7C496.2,349.2,496,349.4,495.8,349.5z M417.7,350.4c-0.3,0-0.5-0.1-0.8-0.1
			c-0.1,0.1-0.3,0.4-0.3,0.5c0,0.3-0.1,0.5-0.1,0.9c0.1,0.1,0.3,0.3,0.4,0.4c0.3,0,0.5,0,0.9,0c0.1-0.3,0.4-0.4,0.5-0.7
			C418.3,350.8,418.2,350.7,417.7,350.4z M332.1,354.1c0-0.3-0.1-0.5-0.1-0.8c0.1-1.1-1.2-2-2.1-2.2c-0.3,0.1-0.7,0.3-0.9,0.3
			c-0.9,1.5,0.1,2.6,0.9,3.4C331.1,354.9,331.3,354.7,332.1,354.1z M383.2,351.6c-0.3,0.3-0.5,0.4-0.9,0.4c-0.1,0.5,0,0.8,0.1,1.2
			c0.5,0.4,1.2,0.4,2,0.1c0.1-0.1,0.3-0.4,0.3-0.5C384.1,352.4,383.9,351.9,383.2,351.6z M521.2,351.9c-0.1,0.3-0.3,0.4-0.4,0.7
			c0,0.1,0,0.4,0,0.5c0.4,0.4,0.7,0.7,1.2,0.9c0.7-0.1,0.9,0,1.3-0.7c0.3-0.4,0-0.4-0.1-0.9C522.5,352,521.9,351.9,521.2,351.9z
			 M516.5,353.3c-0.1,0.1-0.3,0.1-0.3,0.3c-0.7,1.3,0.8,2.1,2.1,1.6c0.1,0,0.3,0,0.3,0C518.8,353.7,518.1,353.2,516.5,353.3z
			 M495.8,353.5c-0.1,0.1-0.3,0.3-0.4,0.3c0,0.1,0,0.3,0,0.3c0.3,0.3,0.5,0.4,0.8,0.7c0.1,0,0.4,0,0.5,0c0.1-0.1,0.4-0.3,0.5-0.4
			c0-0.1,0-0.3,0-0.4c0-0.1-0.1-0.1-0.1-0.3C496.7,353.7,496.3,353.6,495.8,353.5z M492.5,354.7c-0.1,0-0.3,0.1-0.4,0.1
			c-0.1,0.1-0.3,0.4-0.4,0.5c0.1,0.7,0.5,0.8,1.2,0.9c0.3-0.1,0.4-0.4,0.7-0.5c-0.1-0.3-0.3-0.7-0.3-0.9
			C493,354.7,492.7,354.7,492.5,354.7z M336.8,355.5c-0.3,0.3-0.4,0.4-0.7,0.7c-0.3,0.4-0.1,1.6,0.4,2c0.4,0.1,0.8,0.3,1.2,0.3
			c0.4-0.5,0.7-0.8,0.8-1.6C338,356.1,337.7,355.8,336.8,355.5z M446.9,358.4c0-0.1-0.1-0.3-0.1-0.3c-0.1-0.3-0.3-0.4-0.4-0.7
			c-0.3,0-0.7-0.1-0.9-0.1c-0.1,0.1-0.3,0.1-0.3,0.3c-0.3,0.4-0.3,0.5-0.3,1.2c0.4,0.3,0.7,0.4,1.6,0.4
			C446.5,358.9,446.6,358.6,446.9,358.4z M330.8,357.3c-0.3,0.3-0.5,0.4-0.9,0.7c0,0.4-0.1,0.8-0.1,1.2c0.9,1.1,1.3,1.7,2.9,1.2
			c0.1-0.3,0.3-0.7,0.4-0.9c-0.4-0.5-0.7-1.2-1.1-1.7C331.6,357.6,331.2,357.4,330.8,357.3z M334.5,358.5c-0.1,0.1-0.4,0.4-0.5,0.5
			c0,0.7,0.1,1.5,0.5,1.7c0.5,0.7,0.9,0.5,1.6,0.1c0.1-0.4,0.3-0.7,0.3-1.1C336.2,359,335.4,358.5,334.5,358.5z M429.8,361.9
			c0.4,0,0.7-0.1,1.1-0.1c0.3-0.4,0.5-0.8,0.3-1.3c-0.3-0.5-0.5-0.9-1.1-1.2c-0.1,0-0.3,0-0.3,0c-0.3,0.1-0.5,0.3-0.8,0.4
			c-0.1,0.7-0.1,1.2,0.3,1.6C429.4,361.7,429.6,361.8,429.8,361.9z M453.3,359.4c-0.1,0.3-0.4,0.5-0.5,0.9c0.1,0.3,0.4,0.5,0.5,0.8
			c0.1,0,0.3,0.1,0.4,0.1c0.3-0.1,0.7-0.4,0.9-0.5c0-0.3,0-0.5,0-0.8c-0.3-0.1-0.7-0.4-0.9-0.5C453.7,359.3,453.6,359.4,453.3,359.4
			z M428.2,365c-0.1-1.5-0.1-3.4-1.3-4.4c-0.3,0-0.5-0.1-0.8-0.1c-0.3,0.1-0.4,0.3-0.7,0.4c0,1.7,0.4,3.6,0.9,5
			C427.2,366.2,427.8,365.8,428.2,365z M343.8,361.3c-0.1,0.1-0.4,0.4-0.5,0.5c-0.1,0.3-0.1,0.7-0.3,0.9c0.3,0.8,0.7,1.6,1.6,1.5
			c0.1,0,0.1,0.1,0.3,0.1c0-0.1,0-0.1,0-0.3c0.8-0.3,0.8-0.8,0.9-1.6c-0.4-0.4-0.7-0.8-1.1-1.2C344.3,361.4,344,361.3,343.8,361.3z
			 M487.6,364.3c-0.1-1.5-0.7-2.4-2.1-2.5c-0.1,0-0.3,0.1-0.4,0.1c-0.5,0.9-0.3,2,0.1,2.8C486.1,365.1,486.8,364.8,487.6,364.3z
			 M353.9,366.2c0.1-0.5,0.1-0.9,0.3-1.5c-0.3-0.3-0.5-0.7-0.8-0.9c-0.3-0.1-0.7-0.1-0.9-0.3c-0.3,0.1-0.5,0.4-0.8,0.5
			c-0.1,0.8,0,1.3,0.3,2c0.4,0.1,0.7,0.4,1.1,0.5C353.3,366.4,353.7,366.3,353.9,366.2z M479.9,368c0.4,0,0.7-0.1,1.1-0.1
			c0.1-0.3,0.4-0.7,0.5-0.9c0-1.1-0.7-1.6-1.5-1.9c-0.1,0-0.4,0.1-0.5,0.1c-0.4,0.4-0.5,0.9-0.3,1.7
			C479.1,367.5,479.5,367.7,479.9,368z M421.6,365.5c-0.3,0-0.5-0.1-0.8-0.1c-0.4,0.5-0.8,1.1-1.2,1.6c-0.3,0.9,0.1,2.1,0.9,2.2
			c1.2,0.3,1.7-1.5,2.2-2.1C422.8,366.2,422.3,365.8,421.6,365.5z M430.1,368.1c-0.8-0.4-0.5-0.8-1.6-0.9c-1.1,0.8-0.7,1.6-0.3,2.8
			C429.7,370.4,430.2,369.5,430.1,368.1z M368.9,369.7c-0.5-1.3-2-1.1-3.3-1.2c-0.1,0.1-0.4,0.1-0.5,0.3c-0.5,0.8-0.4,2.2,0.5,2.6
			c0.9,0.4,2.9-0.1,3.4-0.8C369,370.4,369,370.1,368.9,369.7z M472.6,372.5c0.3-0.4,0.5-0.7,0.7-1.3c-0.4-0.5-0.8-1.1-1.2-1.6
			c-0.3,0-0.7-0.1-0.9-0.1c-0.1,0.1-0.3,0.3-0.4,0.4c-0.1,0.8,0,1.5,0.3,2.1C471.5,372.5,471.8,372.5,472.6,372.5z M412.4,369.7
			c-0.1,0.1-0.4,0.1-0.5,0.3c-0.1,0.8,0,1.1,0,2.1c0.3,0.3,0.5,0.5,0.8,0.8c0.4,0,0.7-0.1,1.1-0.1c0.3-0.7,0.5-1.1,0.8-1.7
			c-0.3-0.3-0.4-0.5-0.7-0.9C413.4,370,413.2,369.7,412.4,369.7z M475.6,372.9c0.3-0.4,0.5-0.9,0.9-1.3c-0.4-0.9-0.8-1.3-1.9-1.6
			c-0.5,0.4-0.7,0.5-0.9,1.1c0.1,1.1,0.4,1.3,0.9,2C474.9,373,475.2,373,475.6,372.9z M430.9,370.1c-0.3,0.5-0.3,1.6,0.1,2
			c0.1,0.5,0.3,0.5,0.7,0.7c0.3,0,0.7,0,0.9,0c0.1-0.4,0.4-0.8,0.5-1.2c-0.3-0.4-0.5-0.8-0.9-1.2
			C431.8,370.3,431.3,370.1,430.9,370.1z M353.2,370.4c-1.1,0.8-0.8,2,0.3,2.8c0.1,0,0.3,0.1,0.3,0.1c0.8-0.1,0.9-0.4,1.3-0.9
			C355,371.2,354.3,370.7,353.2,370.4z M406.8,372.9c0.1,0.1,0.3,0.1,0.4,0.3c0.3-0.3,0.7-0.5,0.9-0.8c-0.1-0.8-0.4-1.3-1.1-1.6
			c-0.3-0.3-0.3-0.1-0.7-0.3c-0.3,0.3-0.4,0.4-0.5,0.8c0,0.3,0.1,0.5,0.1,0.8C406.3,372.4,406.6,372.6,406.8,372.9z M424.3,372.1
			c-0.1,0.3-0.3,0.5-0.4,0.8c0.1,0.5,0.3,0.9,0.3,1.5c0.4,0.3,0.5,0.4,1.5,0.4c0.1-0.1,0.3-0.1,0.3-0.3c0.1-0.3,0.3-0.7,0.3-0.9
			c-0.4-0.4-0.7-0.9-1.1-1.3C424.9,372.2,424.5,372.2,424.3,372.1z M419.1,373c-0.4,0.4-0.4,0.8-0.5,1.6c0.7,0.9,1.5,2.2,2.1,3.3
			c0.4,0,0.7-0.1,1.1-0.1c0.3-0.3,0.3-0.1,0.3-0.7c0.3-0.9-1.2-3.2-1.6-4.1C419.9,373.2,419.5,373,419.1,373z M368.7,373.4
			c-0.1,0.1-0.3,0.1-0.3,0.3c0,0.5,0,1.1,0,1.6c0.3,0.3,0.7,0.5,0.9,0.9c0.8,0,0.9-0.3,1.2-0.8c0-0.3,0.1-0.4,0.1-0.7
			c-0.4-0.4-0.7-0.8-1.1-1.2C369.3,373.4,369,373.4,368.7,373.4z M374.8,373.6c-0.1,0.1-0.3,0.3-0.3,0.3c-1.1,1.1,0.3,2.8,2,2.1
			c0.1-0.4,0.1-0.9,0.3-1.3C376,374.1,375.9,373.8,374.8,373.6z M408.5,375.8c-0.1,0-0.1,0.1-0.3,0.1c-0.4-0.7-0.9-1.2-1.6-1.5
			c-0.3,0.1-0.5,0.1-0.8,0.3c-0.1,0-0.3,0.1-0.3,0.1c0.1,0.5,0.1,1.1,0.3,1.6c0.3,0.3,0.5,0.5,0.8,0.9c0.7-0.1,1.3-0.3,2.1-0.4
			c0.7,0.1,0.9,0.7,2,0.3c0.7,0.5,0.7,1.1,1.6,1.3c0.3-0.1,0.4-0.1,0.7-0.3c0.1-0.5,0.4-1.1,0.5-1.6
			C412.9,376.1,409.1,374,408.5,375.8z M396.6,375.4c-0.5,0.4-0.8,0.7-1.1,1.3c-0.3,0.7,0.5,1.5,1.1,1.7c0.7,0,1.1-0.1,1.6-0.4
			c0.1-0.4,0.1-0.9,0.3-1.3C398,376.2,397.6,375.5,396.6,375.4z M430.2,376.7c0,0.4-0.1,0.9-0.1,1.3c0.7,0.4,1.3,0.5,2,0.8
			c0.4-0.4,0.7-0.4,0.8-1.1c0-0.3,0-0.5,0-0.9c-0.5-0.4-0.8-0.8-1.9-0.9C430.7,376.2,430.5,376.5,430.2,376.7z M443.2,375.9
			c-0.3,0-0.5,0-0.9,0c-0.1,0-0.1,0.1-0.3,0.1c-0.5,0.9-0.5,2.4,0.5,2.8c0.3,0.1,0.4,0.1,0.9,0.1c0.5-0.7,0.5-0.9,0.5-2
			C443.8,376.6,443.4,376.3,443.2,375.9z M401.3,377c-0.1,0-0.4-0.1-0.5-0.1c-0.1,0-0.3,0.1-0.4,0.1c-0.5,0.8-0.5,1.7,0.4,2.1
			c0.4,0.4,0.5,0.3,1.1,0.3c0.1-0.3,0.4-0.7,0.5-0.9C402.2,377.8,401.9,377.3,401.3,377z"/>
	</g>
</g>
</svg>
