<?xml version="1.0" encoding="utf-8"?>
<!-- Generator: Adobe Illustrator 21.0.0, SVG Export Plug-In . SVG Version: 6.00 Build 0)  -->
<svg version="1.1" id="Calque_1" xmlns="http://www.w3.org/2000/svg" xmlns:xlink="http://www.w3.org/1999/xlink" x="0px" y="0px"
	 viewBox="0 0 841.9 595.3" style="enable-background:new 0 0 841.9 595.3;" xml:space="preserve">
<style type="text/css">
	.st0{fill:#DADADA;}
</style>
<ellipse class="st0" cx="408.7" cy="399.1" rx="67.1" ry="10.9"/>
<g>
	<g>
		<path d="M478.1,303.9c0.3-1.1,0.3-2.8,0.1-3.8c0-0.1,0-0.2,0.1-0.3c0-0.1-0.2-0.3-0.3-0.3c-0.1-0.2,0.1-0.2,0.1-0.3V299H478
			c-0.1-0.3,0.1-1.1,0.2-1.4v-0.1c-0.3-0.1,0.1-0.4,0-0.6c0,0-0.1,0-0.1-0.1c0,0,0-0.1-0.1-0.1c0.1-0.1,0.2-0.6,0.2-0.7
			c0-0.1-0.1-0.1-0.1-0.2l0.1-0.2c0.1-0.5-0.1-1.7-0.2-2c-0.1-0.3,0.1-1.4,0.2-1.7c0.1-0.5-0.2-0.8,0.1-1.1c-0.1-0.1-0.1,0-0.2-0.1
			c0.2-0.7-0.1-2.7-0.3-3.2c0.1-0.2,0-0.5-0.1-0.7c0.1-0.1,0,0,0.1-0.1c-0.2-0.6,0-1.4,0-2c-0.3-0.6-0.4-1.1-0.6-1.9
			c0-0.1,0.1-0.1,0.1-0.1c0-0.2-0.1-0.1-0.1-0.2c0-0.2,0-0.3,0.1-0.5c-0.3-0.7-0.9-2.3-0.7-3.5h-0.2c0-0.1,0.2-0.1,0.1-0.3
			c-0.1,0-0.1,0-0.2-0.1c-0.1-0.2,0.2-0.1,0.1-0.3c0-0.1-0.3-0.4-0.3-0.5c-0.1-0.5,0-0.9-0.1-1.2h-0.1c0,0,0.1-0.2,0.1-0.3
			c-0.2-0.4-0.5-0.9-0.5-1.4c-0.1,0-0.1,0-0.1,0.1c0-0.1,0-0.3-0.1-0.5c-0.1-0.2-0.9-1.1-0.6-1.6c-0.1-0.1-0.2,0-0.3-0.1
			c-0.1-0.1,0.1-0.4,0-0.5c-0.2-0.6-1-0.8-1.1-1.7h-0.2c0.1-0.2,0.1-0.1,0.1-0.3h-0.3c0.3-0.4,0-0.6,0-1.2c-0.1,0-0.1,0-0.2-0.1
			c-0.1,0-1.2-1.7-1.1-2c-0.1-0.2,0-0.1-0.2-0.1c-0.1-1.2-1.3-1.9-1.4-2.9c-0.2-0.1-1.1-1.7-1.1-2.1h-0.2c0.1-0.3-0.2-0.5-0.3-0.8
			c-0.5-0.1-0.8-1.4-1.2-1.6c-0.1-0.6-1.7-2.3-1.4-2.6c-0.3-0.4-1.5-2.2-1.6-2.8h-0.2c0.1-0.2,0.1-0.1,0.1-0.2c0,0,0,0-0.1-0.1v0.1
			h-0.1c-0.1-0.4-0.2-0.5-0.5-0.8h-0.1c0.1-0.1,0.1,0,0.2-0.1v-0.1c-0.4-0.1-0.3-0.2-0.5-0.3c-0.1-0.2,0-0.1-0.3-0.1
			c0.1-0.1,0.1-0.1,0.1-0.2c-0.4-0.2-0.5-0.6-0.8-1c-0.1-0.1-0.2,0-0.3-0.1c-0.1-0.1,0-0.2-0.1-0.3c-0.1-0.1-0.3-0.1-0.3-0.2
			c-0.2-0.2-0.2-0.4-0.3-0.6h-0.1c-0.3-0.4-0.3-1.1-0.9-1.2c0-0.1,0-0.1,0.1-0.2c-1.1-0.4-2.1-1.9-2.9-2.7c-0.1-0.1,0-0.1-0.1-0.2
			c-0.1,0-0.1,0-0.2-0.1c-0.2,0-1.1-0.8-1.1-0.8c-0.1,0,0,0-0.1-0.1c-0.1-0.2-0.3-0.3-0.5-0.3c0,0,0,0,0.1-0.1
			c-0.2-0.3-0.9-0.7-1.1-0.7v-0.2c-0.1,0-0.9-0.5-1-0.6c-0.1-0.1-0.1-0.3-0.3-0.4c-0.1-0.1-0.4-0.1-0.4-0.1
			c-0.1-0.1-0.1-0.3-0.2-0.4c-0.1-0.2-0.8-0.6-1.1-0.7c0,0,0,0,0.1-0.1v-0.1c-0.2,0-0.3-0.1-0.4,0c-0.2-0.2-0.2-0.4-0.5-0.6
			c-0.1,0,0,0-0.1,0.1c-0.2-0.1,0-0.1-0.1-0.2c-0.3-0.5-1.3-0.7-1.7-1.1c-0.1,0,0,0-0.1,0.1c-0.4-0.3-1.2-0.6-1.4-0.6
			c-0.3-0.2-0.7-0.6-1.1-0.7c-0.1,0-0.2,0-0.3,0.1v-0.1c-0.2-0.2-0.1,0-0.1-0.2c-0.2-0.1-0.7-0.3-0.8-0.3c-0.1,0-0.2-0.3-0.3-0.3
			h-0.3c0,0,0.1-0.1,0-0.2c0,0-0.3,0-0.5-0.1c-0.1,0,0,0-0.1-0.1c0-0.1-0.8-0.5-0.8-0.5c-0.2-0.1-0.1,0-0.1-0.3
			c-0.5-0.2-1.7-1.1-2-1c-0.2-0.1-0.1,0-0.1-0.2c-0.4,0-1.1-0.3-1.4-0.5c0,0-0.3,0.1-0.4,0.1c-0.1-0.1-0.2-0.2-0.3-0.3
			c-0.1,0-0.1,0-0.2,0.1c0,0,0-0.2-0.1-0.2c-0.1,0-0.3,0.1-0.5,0c-0.2-0.1-0.4-0.3-0.5-0.4c-0.3-0.2-0.8-0.3-1-0.3
			c-0.2-0.1-0.2-0.2-0.4-0.3c-0.3-0.2-1.2-0.1-1.6-0.3c0-0.1,0-0.1-0.1-0.2c-0.2-0.1-0.6-0.2-0.7-0.3h-0.5c-0.5-0.2-1.5-0.9-2.3-0.7
			c0,0-0.3-0.1-0.3-0.1c-0.2,0-0.7,0-0.9,0c-0.2-0.1-0.7-0.3-0.8-0.3c-0.1,0-0.5,0.2-0.6,0.2c-0.2,0-0.2-0.2-0.5-0.1
			c-0.3-0.1-0.1-0.1-0.2-0.2c-0.3-0.3-1.6-0.2-2.1-0.5c-0.1,0.1-1.1,0.1-1.2,0.1c-0.1,0-0.4-0.3-0.5-0.3c-0.3-0.1-0.7,0.1-1.1,0
			c-0.2-0.1-1.2-0.6-1.8-0.7c-0.1,0-0.3,0.1-0.4,0.1c-0.1,0-0.3-0.2-0.5-0.3c-0.2,0-0.4,0.1-0.4,0.1c-0.6-0.2-1.6-0.2-2.4-0.5
			c-0.3-0.1-2.2-0.2-2.3,0c-0.3-0.2-0.6-0.5-0.9-0.2c-0.2-0.1-0.1-0.2-0.3-0.1c-0.1-0.1,0-0.1-0.1-0.2c-0.3,0.1-2.4-0.4-2.8-0.1
			c0,0-0.3,0-0.1-0.1c0,0,0,0,0.1-0.1c-0.4,0-1.6-0.2-1.8,0.1h-0.1c0,0,0.1-0.1,0.1-0.1v-0.1c-1,0-1.1,0-2-0.1v0.2
			c-0.2-0.1-1.6-0.2-1.9-0.1c-0.1,0-0.3,0.1-0.4,0.1c-1.2-0.4-3.6-0.6-4.5-0.1c-0.1,0-1.2,0-1.3,0c-0.3,0.1-1.1,0.4-1.6,0.3
			c0,0,0,0.1-0.1,0.1h0.1v0.1c0,0,0,0-0.1-0.1c0,0,0,0-0.1-0.1c-0.3,0.1-0.3,0.2-0.5,0.3c-0.1,0-1-0.1-1.4,0.1v0.1
			c-0.3,0-0.5,0-0.8-0.1c-0.3,0-0.9-0.1-1.2-0.1c0,0-0.1,0.1-0.1,0.1c-0.3,0.1-0.5-0.1-0.8,0.1v0.1c0,0-0.8,0-0.9,0
			c-0.2,0.1-0.4,0.3-0.6,0.4c-0.4,0.2-0.4,0-0.7,0.2c0,0-0.7-0.2-0.8-0.1c-0.2,0.1-0.4,0.2-0.7,0.3c-0.1,0-0.2,0-0.3-0.1
			c0,0-0.1,0.2-0.1,0.2c-0.4,0.1-0.9,0-1.1,0c-2,0.3-3.7,1.5-5.6,1.4c-1,0.7-2.4,0.8-3.6,1.3c0,0-0.2,0.3-0.3,0.3
			c-0.6,0.4-1.5,0.8-2.2,0.8v0.2c-0.5,0.1-0.6,0.4-0.9,0.5h-0.3c-0.2,0.1-0.2,0.5-0.4,0.6h-0.3c-0.5,0.3-1.1,0.1-1.8,0.3
			c-0.2,0-0.5,0.2-0.6,0.3c-0.1,0-0.2-0.1-0.3-0.1c-0.5,0.3-0.6,0.8-1.4,0.9c0,0.1,0,0.1,0.1,0.1v0.1c-0.1,0-0.1,0-0.1-0.1
			c-0.2,0.1-0.1,0-0.1,0.2c-0.3,0.1-0.5,0.2-0.7,0.5c0,0-0.5,0.1-0.6,0.1c-0.1,0-0.1,0.2-0.1,0.3c-0.2-0.1-1.1,0.7-1.3,0.9
			c-0.1,0-0.2,0-0.3,0.1c-0.2,0.1-0.3,0.3-0.7,0.4c0,0.3-0.1,0.2-0.1,0.5c-0.5,0.1-1.5,0.7-1.8,0.9c-0.1,0.1-0.2,0.4-0.4,0.5
			c-0.2,0.1-0.3,0-0.5,0.1l-0.7,0.5c-0.1,0.1,0,0.2-0.1,0.3h-0.3c-0.1,0.1-0.4,0.3-0.5,0.4c-0.1,0,0,0,0,0.1
			c-0.2,0.5-0.7,0.4-1.1,0.7c-0.2,0.1-0.2,0.5-0.4,0.7c0,0-0.2-0.1-0.3-0.1c-0.1,0-0.4,0.1-0.5,0.2c-0.1,0.1-0.2,0.3-0.3,0.3
			c-0.1,0-0.3,0-0.4,0.1c0,0.1,0,0.2-0.1,0.3c-0.1,0-0.1,0-0.2-0.1c-0.1,0.1-0.6,0.5-0.7,0.5c-0.1,0.1-0.1,0.5-0.1,0.5
			c-0.1,0-0.1,0-0.2-0.1c-0.2,0.2-0.4,0.6-0.6,0.7c-0.2,0.1-0.2,0-0.3,0.1h-0.1c0,0,0,0,0.1,0.1c-0.1,0.2-0.6,0.5-0.9,0.7
			c-0.1,0.1-0.1,0.3-0.2,0.3c-0.1,0-0.2,0-0.3,0.1c-0.4,0.4-0.7,1.2-1.2,1.1v0.2c-0.5,0.1-0.6,0.7-1,0.7c0,0.1,0,0.1,0.1,0.2
			c0,0,0,0-0.1-0.1c-0.2,0.1-0.3,0.3-0.3,0.5c-0.3,0-0.1,0-0.3,0.2v0.1c0,0-0.1-0.1-0.1-0.1c-0.1,0.1,0,0,0,0.2
			c-0.9,0.2-1.5,1.4-2.1,1.5c-0.2,0.2-0.4,0.6-0.6,0.6c0.1,0.2,0,0.1,0.1,0.2v0.1c-0.1,0-0.1,0-0.2-0.1c-0.4,0.8-1,1.2-1.6,1.6
			c-0.2,0.1-0.3,0.4-0.5,0.6c-0.1,0-0.1,0-0.2-0.1c-0.1,0.1-0.6,1.1-0.6,1.1c-0.5,0.5-0.9,0.8-1.2,1.5c-0.1-0.1-0.1,0-0.1,0.1
			c-0.4,0.6-1,1.1-1.4,1.6c-0.3,0.4-0.5,0.6-0.7,0.9c0,0,0,0.1,0.1,0.1c-0.1,0.1-0.4,0.1-0.5,0.2c0,0.1,0,0.2-0.1,0.3
			c-0.1,0.1-0.2,0.1-0.3,0.1c0.1,0.2-0.2,0.4-0.4,0.5v0.2h-0.2c0,0.4,0,0.2-0.2,0.4c0.1,0.1-0.1,0.8-0.3,0.9c-0.5,0.6-1,1.2-1.2,2
			c-0.1,0.5-0.2,0.9-0.3,1.4l-0.3,0.1c-0.2,0.5,0.2,1-0.3,1.4c0.1,0.1,0,0,0.1,0.1c-0.1,0.2,0,0.1-0.2,0.1c-0.1,0.5-0.4,1-0.6,1.4
			c-0.1,0.1,0.1,0.6,0,0.8c-0.1,0.4-0.5,0.8-0.7,1.2c0,0.1,0,0.3,0,0.5c0,0.2-0.2,0.4-0.3,0.5c-0.1,0.2,0.1,0.5-0.1,0.7h-0.1
			c0,0,0,0.7-0.1,0.9c-0.1,0.4-0.3,0.6-0.1,1c-0.2,0.2-0.4,0.5-0.5,0.8c-0.1,0.4,0.1,0.8,0,1.1c-0.1,0.5-0.4,1.1-0.5,1.6
			c0,0.1,0.1,0.7,0.1,0.9c-0.3,0.9-0.6,2.3-0.9,3.4c0,0.1,0,0.5,0,0.6c-0.1,0.5-0.3,1.3-0.4,1.7c0,0.2,0.1,0.5,0.1,0.7
			c-0.1,0.5-0.2,0.9-0.3,1.6c-0.1,0.5,0.1,1.2,0.1,1.5c-0.1,1-0.3,2.1-0.4,3c0,0.3,0.2,0.8,0.1,1.4c-0.1,0.3,0,0.5,0.1,0.8
			c-0.2,0.4,0,2.4,0.2,3.2c-0.1,0.4-0.1,0.9-0.2,1.3c0.1,0.3,0.2,0.5,0.2,0.8c0,0.2-0.2,0.5-0.1,0.8c0.1,0.1,0.3,0.4,0.2,0.7
			c-0.2,0.8,0.2,1,0.2,1.7c0,0.4-0.1,2-0.1,2.2c0.1,0.2,0.4,0.5,0.3,0.9c-0.1,1.2,0.1,3.1,0.5,4.6v1.4c0.1,0.2,0.2,0.8,0.3,1.1
			c0,0.2-0.1,0.4-0.1,0.5c0,0.2,0.2,0.5,0.3,0.7c0.1,0.2,0.3,2.5,0.3,2.8c0.1,0.1,0.3,0.3,0.3,0.5c0,0.3-0.1,0.7-0.1,0.9
			c0,0.1,0.4,1.7,0.4,1.7c0,0.3-0.1,0.7,0,0.9c0,0.2,0.3,0.4,0.3,0.5c0.1,0.2-0.1,0.2,0,0.5c0.2,0.3,0.3,0.8,0.5,1.3
			c0,0.3,0,0.6,0.1,0.9c0.1,0.4,0.3,1.1,0.4,1.4c0,0.2-0.1,0.3,0,0.5c0.1,0.1,0.3,0.3,0.3,0.4c0.1,0.4,0,0.9,0.1,1.3h0.1v0.3
			c0,0.1,0.2,0.1,0.2,0.1c0.2,0.3,0.1,0.7,0.3,1.1c0.3,0.7,0.7,1.5,0.7,2.3c0.1,0,0.1,0,0.2,0.1c0.1,0.2,0.1,0.5,0.2,0.7
			c0.1,0.1,0.2,0.2,0.3,0.3c0,0.2,0,0.3,0.1,0.5h0.1c0.1,0.2,0,0.3,0.1,0.5c0,0,0.2,0.2,0.3,0.2v0.3c0.1,0.2,0.3,0.4,0.3,0.5
			c0,0.2,0,0.5,0.1,0.7c0.2,0.5,0.6,1,0.8,1.5c0,0.2,0,0.3,0.1,0.5c0.1,0.2,0.3,0.3,0.5,0.5c0.2,0.2,0.4,1.2,0.5,1.3
			c0,0,0.5,0.4,0.5,0.5c0.1,0.2,0.1,0.5,0.1,0.6c0.2,0.1,0.4,0.2,0.5,0.4c0,0.1,0,0.3,0.1,0.4c0.3,0.5,0.8,0.9,0.9,1.4
			c0.6,0.6,1.3,1.3,1.4,2.3h0.2c0.1,0.4,1.4,1.9,1.8,2.3c0.3,0.4,0.6,0.9,0.9,1.4c0.2,0.3,0.7,0.3,0.9,0.6c0.1,0.1,0.1,0.4,0.1,0.4
			c0.1,0,0.2,0,0.3,0.1v0.2c0.1,0.1,0.4,0.3,0.5,0.4c0.1,0,0.1,0,0.2-0.1c0.2,0.2,0.3,0.5,0.5,0.7c0.2,0.2,0.6,0.3,0.8,0.5
			c0.2,0.2,0.1,0.7,0.3,0.9c0.1,0.2,0.5,0.3,0.7,0.5c0.1,0.1,0.1,0,0.2,0.1c0.1,0.6,1.3,1.4,1.9,1.7c0.3,0.2,0.6,0.6,0.9,0.7
			c0.2,0.1,0.3,0,0.4,0.1c0,0.1,0.1,0.2,0.1,0.3c0.8,0.5,1.6,1.1,2.2,1.6c0.5,0.4,1.5,0.7,1.6,1.1h0.2c0.1,0.4,2.3,1.3,2.7,1.9h0.2
			v0.2c0.4,0.1,1,0.4,1,0.6c0.1,0,0.1,0,0.1-0.1c0.1,0.1,0,0.1,0.1,0.2c0.3,0,1.1,0.5,1.4,0.7c0.1,0.1,0.1,0.3,0.2,0.3
			c0.1,0,0.1,0,0.2-0.1c0.1,0.1,0.1,0.2,0.2,0.3h0.1c0.1-0.1,0.3,0.2,0.4,0.1h0.1c0.1,0.1,0.2,0.4,0.3,0.5c0.2,0.2,0.6,0.1,0.9,0.3
			v0.1c0,0,0.2,0,0.3,0.1c0,0,0.1,0.2,0.1,0.3c0.2,0,0.4,0,0.5,0.1c0.1,0,0.2,0.2,0.3,0.3c0.2,0.2,0.5,0.1,0.7,0.1
			c0.1,0.1,0.2,0.2,0.3,0.3c0.2,0.2,0.5,0.1,0.8,0.2c0.5,0.2,0.8,0.6,1,1.1c0.6-0.1,0.7,0,1.3,0.3c0.6-0.2,2.8,0.8,3.2,0.9
			c0.6,0.2,2.2,0.9,2.2,1c0.3,0.3,0.5,0.1,0.9,0.3v0.1c0.2,0.1,0.5,0.3,0.5,0.3c0,0,0.1,0,0.1-0.1v0.1c0.1,0.1,0.1-0.1,0.1-0.1
			c0.6,0.3,0.9,0.4,1.7,0.3c0.4-0.1,0.5,0.3,0.7,0.1c0.2,0.1,0.1,0,0.1,0.2c0.4,0,0.2,0.1,0.5,0.2c0.1,0,0.9,0,0.9,0
			c0.1,0.1,0.2,0.2,0.3,0.3c0.2,0.1,1,0.1,1,0.1c0.1,0.1,0.1,0.2,0.3,0.3h1.1c0.3,0.1,1.5,0.4,2,0.5c0.5,0,1.9,0.9,2.1,0.5
			c0.2,0,0.1,0,0.1,0.1c1,0,1.7,0.2,2.3,0.3h0.9c0.2,0.1,0.6,0.2,0.8,0.3c0.2,0,0.1-0.2,0.3-0.1c0.6,0.2,1.5,0.5,2.1,0.5v0.2
			c0.1,0,0.1-0.1,0.1-0.1c0.2-0.1,0.3,0.2,0.4,0.1v-0.1c0.4-0.2,0.7,0,0.9,0.2c0.3-0.4,0.8,0.2,1.4,0.1c0.1-0.1,0.2,0,0.5,0
			c0.2,0,0.4-0.2,0.7-0.1c0.4,0.1,0.6,0.3,1,0.3c0.1,0,0.3-0.1,0.3-0.1c0.2-0.1,1.8,0.1,1.8,0.1c0.1-0.1,0,0,0.1-0.1
			c0.2,0,0.3,0,0.5,0.1v0.1c0.2,0,0.4-0.1,0.7-0.1c0,0.1,0.1,0.1,0.1,0.2c0.6,0.2,1.1-0.2,1.6,0c0.2,0,0.1,0,0.3-0.1
			c0.1,0,0,0,0.1,0.1c0.2-0.1,0.1,0,0.1-0.2c0.5,0.2,0.7-0.2,1.2-0.1c1,0.2,1.8-0.1,2.9,0.1c0.3,0,0.4-0.1,0.5-0.1
			c0.2,0,0.1,0,0.1-0.1c0.2,0.1,0.1,0,0.1,0.2c0.5,0,1.1-0.3,1.1-0.2h0.2c-0.1-0.1,0,0-0.1-0.1v-0.1c0.4,0.1,1.5,0.2,1.8,0.1
			c0,0,0.4-0.3,0.4-0.3c0,0,1.4,0,1.4,0c0.2,0,0.2,0,0.2-0.1c0.2,0,0.1,0.2,0.3,0.1c0.2-0.1,0.2-0.2,0.3,0c0.2-0.1,0.1,0,0.1-0.2
			c0.4,0.1,0.5-0.3,0.9,0c0.1-0.1,0.2-0.2,0.3-0.3v-0.1c0-0.1,0.1,0.1,0.1,0.1h0.2c-0.1-0.1-0.1-0.1-0.1-0.2
			c0.3-0.1,0.2-0.1,0.2-0.3c0.1,0,0.3,0.2,0.4,0.1c0.2,0,0.3-0.3,0.5-0.1c0.1-0.1,0.2-0.2,0.3-0.3c0.1,0.1,0.1,0.1,0.1,0.3
			c0.2-0.1,0.2-0.2,0.5-0.1c0.2-0.2,0.4-0.3,0.7-0.5c0.1,0,0.1,0,0.2,0.1h0.2c-0.1-0.1,0,0-0.1-0.1V370c0.1,0,0.2,0,0.3,0.1v0.1
			c0.2,0.1,0.1-0.2,0.3-0.1c0.1-0.1,0-0.1,0-0.3c0.5,0.1,1.3,0.2,1.7-0.1h0.1c0,0,0-0.1-0.1-0.1c0.5,0,0.2,0,0.5-0.1
			c0.1,0,0.2,0,0.3,0.1c-0.3-0.1,0.5-0.4,0.7-0.5c0-0.2,0-0.1,0-0.2v-0.1h0.1c0.1,0.2,0.1,0.1,0.1,0.3c0.4-0.2,0.6-0.4,1.1-0.5
			c0-0.3,0-0.2,0.3-0.3c0-0.2,0,0,0-0.2c0.5,0,0.7-0.4,1.4-0.4v-0.2c0.4,0.1,2.6-1.1,2.7-1.2c0.2,0.1,0.1,0,0.1,0.2
			c0.1,0,0.1,0,0.2-0.1c0.1-0.1,0-0.1,0-0.3c0,0,0.1,0.1,0.1,0.1c0.2-0.2,0.4-0.3,0.5-0.5h0.2v-0.2c0.1,0,0.2,0.1,0.3,0.1v-0.2
			c1,0,0.8-0.4,1.4-0.7c0.3-0.1,0.4,0.1,0.6-0.1c0,0,0,0,0.1-0.1h-0.1v-0.1c0.1,0,0.2,0.1,0.3,0.1c0,0,0-0.2,0.1-0.1
			c0,0.1,0.1,0.3,0.3,0.1c0-0.1,0-0.1,0.1-0.2c0.1-0.1,0.2,0.1,0.3,0.1c0.1-0.1,0.2-0.3,0.3-0.4c0.4-0.2,0.6,0,0.9-0.1
			c0.2-0.1,1.1-0.5,1.1-0.5c0.1-0.1,0.1-0.3,0.1-0.3c0.3-0.2,0.7-0.1,1-0.5c0.2-0.1,0.1,0,0.1-0.2c0.4-0.2,0.3-0.3,0.7-0.2
			c0-0.2,0,0,0-0.2c0.3,0,0.3,0,0.5-0.1h0.1c0,0,0-0.1-0.1-0.1c0.1,0,0.2,0.1,0.3,0c0-0.1,0-0.1,0.1-0.2c0.1,0,0.2,0,0.3,0.1
			c0.3-0.2,0.6-0.6,1.1-0.6v-0.2c0,0,0,0,0.1-0.1c0.1,0.1,0,0.1,0,0.3h0.1c0-0.2,0-0.1,0-0.3c0.1,0,0.2,0,0.3,0.1
			c0-0.1,0.1-0.2,0.1-0.3c0,0,0.6-0.3,0.9-0.3c0-0.1,0-0.1-0.1-0.1c0.2-0.2,0.8-0.4,1.1-0.4c0-0.5,0.6-0.4,1-0.7
			c0-0.1,0.1-0.1-0.1-0.1c0.3-0.3,0.9-0.5,1.2-0.8c0.1,0,0.1,0,0.1-0.1c-0.2,0,0,0-0.2,0c0.2-0.3,0.4-0.3,0.7-0.4
			c0-0.1,0-0.2-0.1-0.3c0.4-0.1,1.3-0.7,1.3-0.6c0.1-0.1,0.2-0.2,0.2-0.5c0.1,0.1,0,0.1,0.1,0.2h0.2c0-0.1,0-0.1,0.1-0.2
			c0.1-0.1,0.1-0.1,0.2,0.1h0.1v-0.1c-0.1,0-0.1,0-0.3-0.1v-0.1c0.2,0,0.4,0,0.6-0.1c0-0.2,0.2-0.5,0.2-0.5v-0.2c0,0,0,0,0.1,0.1
			c0.2-0.1,0,0,0.1-0.2c0.1-0.2,0,0,0.2,0c0.1-0.2,0.2-0.4,0.5-0.5v-0.2c0.3,0,0.2-0.2,0.3,0c0.1-0.1,0-0.1,0.1-0.2
			c0.1-0.2,0.1-0.1,0.4-0.1c0.1-0.3,0.2-0.4,0.5-0.5c0,0,0-0.1,0.1-0.1h-0.1c0.1-0.2,0.2-0.2,0.4-0.3c0-0.1,0-0.1-0.1-0.1
			c0.1-0.1,0.1,0,0.2-0.1c0-0.5,0.3-0.4,0.2-0.7c0,0,0.1,0,0.1,0.1c0.3-0.6,1.1-0.7,1.3-1.4c0.1,0,0.1,0,0.3,0.1
			c0-0.3,0.1-0.3,0.1-0.6h0.2v-0.2c0.1,0,0.2,0,0.3,0.1c0-0.2,0-0.1-0.1-0.3c0.4-0.2,0.5-0.5,0.9-0.7c0-0.1,0-0.1-0.1-0.2
			c0.1-0.2,0.1,0,0.3-0.2c0.1-0.1,0.1-0.3,0.1-0.5h0.2c-0.1-0.2,0-0.1-0.2-0.1c0.1-0.2,0.1-0.1,0.1-0.3h0.3c0.1-0.5,0.9-1.7,1.4-1.9
			c-0.1-0.2,0-0.1-0.1-0.2c0.1-0.1,0.2,0,0.3,0c0.3-0.7,0.7-1.3,1.1-1.8c0.1-0.1,0.1,0,0.2-0.1c0.1-0.5,0.4-0.6,0.6-0.9
			c0-0.1,0-0.1-0.1-0.2c0.1-0.1,0.3-0.1,0.4-0.3v-0.3c0.2-0.3,0.6-0.4,0.7-0.9h0.2c0.1-0.4,0.3-0.3,0.3-0.4c0.1-0.2-0.1-0.1-0.1-0.2
			c0-0.2,0.1,0,0.1-0.2c0.4-0.3,0.2-0.3,0.4-0.7h0.1c0.1,0,0.8-1.3,0.8-1.3v-0.1h0.2c0-0.2,0-0.2,0-0.3c0.1,0,0.2-0.1,0.4-0.1
			c0-0.5,0.2-0.3,0.3-0.5c0.1-0.2-0.2-0.4,0.3-0.5c-0.1-0.2-0.1-0.2-0.1-0.3c0.3-0.3,0.3-0.5,0.5-0.9c0-0.1,0.2-0.1,0.3-0.1
			c0-0.1,0-0.2-0.1-0.3c0.2,0,0.1,0,0.3,0c0-0.4,0.1-0.5,0.1-0.8c0.1,0.1,0.1,0.1,0.1,0.1c0.2-0.1,0.3-0.4,0.4-0.5h0.1
			c0,0-0.1-0.1-0.1-0.1c0.1-0.2,0-0.1,0.3-0.1c0-0.2,0.1-0.1,0-0.3v-0.2c0.1,0,0.1,0.1,0.2,0.1c0,0-0.1-0.4-0.1-0.4
			c0.1,0,0.1,0,0.2-0.1c0-0.1,0-0.1-0.1-0.2c0.1-0.2,0.3-0.3,0.4-0.4c-0.3-0.2,0.1-0.7,0.3-0.7c-0.1-0.2,0-0.1-0.1-0.2
			c0.5-0.5,1.1-1.4,1.1-2.1c0.4-0.1,0.2-0.1,0.3-0.4h0.2c0-0.4,0.3-0.8,0.3-0.9c0.1-0.2,0-0.1,0.2-0.1c0-0.2,0-0.2,0.1-0.3
			c0.1,0,0,0,0.1,0.1h0.1c0-0.2,0-0.3-0.1-0.3c0.1-0.2,0.1-0.1,0.3-0.2c0.2-0.2,0.3-0.8,0.3-1c0-0.1-0.1-0.2-0.1-0.3h0.1
			c0.2-0.4,0.1-1.1,0.3-1.3c0.1,0,0.2,0,0.3-0.1c0.1-0.1-0.1-0.4,0-0.5c0.1,0,0.1,0,0.2-0.1c0-0.1,0-0.2-0.1-0.3
			c0.2-0.4,0.4-1,0.7-1.3c0,0,0,0,0.1-0.1v0.1h0.1c0-0.2-0.1-0.4-0.1-0.5c0.1-0.1,0.3-0.1,0.1-0.3c0.1-0.1,0.1,0,0.2-0.1
			c0,0,0-0.8,0.1-0.9c0.2-0.3,0.6-1,0.7-1.4c0-0.1,0-0.1-0.1-0.2c0.1-0.2,0.3-0.4,0.4-0.6v-0.4c0.1,0,0.1,0,0.2-0.1
			c0-0.1,0-0.3-0.1-0.4c0.1-0.2,0.4-1.1,0.5-1.2c-0.1-0.1,0,0-0.1-0.1c0-0.1,0-0.1,0.1-0.2c0-0.4-0.1-0.7,0.1-0.7
			c0-0.2-0.2-0.2-0.1-0.3h0.1c0.1-0.1,0.2-0.6,0.2-0.7c0.1-0.3,0-0.7,0.1-0.9c0.2-0.4,0.4-1.1,0.3-1.7c-0.1-0.4,0.5-1,0.3-1.4
			c0.1-0.1,0,0,0.1-0.1c0.1-0.6,0.3-1.9,0.6-2.5c0,0,0,0,0,0c0,0,0,0,0,0c0-0.1,0.1-0.2,0.1-0.2c-0.2,0,0,0-0.2,0
			c0.4-0.7,0.2-1.4,0.4-2.1c0,0-0.1-0.4-0.1-0.4c0-0.2,0.2-0.1,0.2-0.1c0.1-0.2-0.2-0.2,0-0.3h0.1
			C478.2,303.9,478.2,303.9,478.1,303.9z M413.2,229.4c-0.1,0-0.1,0-0.1-0.1C413.2,229.4,413.1,229.4,413.2,229.4z M408.8,227.9
			c-0.1,0-0.1,0-0.1-0.1C408.8,227.9,408.7,227.9,408.8,227.9z M390,230.4c-0.1,0-0.1,0-0.1-0.1C390,230.4,390,230.4,390,230.4z
			 M419.1,371.6L419.1,371.6l-0.1-0.1h0.1V371.6z M458.8,348.4L458.8,348.4l-0.1-0.1h0.1V348.4z M466.7,336.7c0,0-0.3,0-0.1-0.1
			c0,0,0,0,0.1-0.1C466.8,336.6,466.7,336.6,466.7,336.7C466.8,336.6,466.7,336.7,466.7,336.7z M470.8,328.9L470.8,328.9l-0.1-0.1
			h0.1V328.9z M472.6,300c-0.1,0.1,0,0.1-0.2,0.1c0.1,0.5,0,0.5-0.1,0.9v0.1h0.1c0,0.2-0.1,0.2-0.1,0.3c0,0.1,0.1,0.3,0.1,0.4
			c-0.1,0.3-0.4,1.3-0.3,1.6v0.1c0,0-0.1,0-0.1-0.1v0.1c-0.1,0.1,0.1,0.3-0.1,0.5c0.1,0.1,0,0,0.1,0.1c-0.1,0.2-0.4,1.1-0.2,1.4v0.1
			h-0.2c0.1,1.9-0.4,3.8-1.1,5.3c0,0.1-0.4,1.9-0.4,1.9c0,0.1-0.2,0.2-0.3,0.2c0,0.2,0,0.3,0.1,0.5c-0.1,0.3-0.3,0.8-0.4,1.1
			c-0.1,0.2,0,0.4,0,0.5c-0.1,0.1-0.4,0.5-0.5,0.7c0,0.1,0,0.1,0.1,0.2c-0.1,0.4-0.3,1.1-0.6,1.4c0.1,0.1,0,0.4,0,0.5
			c0,0.1-0.2,0.2-0.3,0.2v0.3c-0.1,0.2-0.4,0.5-0.5,0.7v0.4c0,0.1-0.2,0.2-0.3,0.3c0.1,0.1,0,0.5-0.1,0.7c-0.1,0-0.1,0-0.2,0.1
			c0,0,0,0.6-0.1,0.7c-0.2,0.5-0.5,0.8-0.6,1.1v0.3c-0.2,0.4-0.4,0.8-0.5,1.1c-0.1,0.1,0.1,0.2,0.1,0.3c-0.3,0.5-0.6,0.9-0.8,1.4
			c-0.4,0.8-0.5,1.9-1.1,2.4c0.1,0.1-0.1,0.5-0.1,0.7c-0.3,0.5-0.6,0.8-0.7,1.3c0,0.2,0,0.4-0.1,0.5c-0.3,0.5-0.7,1.1-1,1.6
			c0,0.1,0,0.3-0.1,0.4c-0.2,0.4-0.8,0.8-1,1.1c-0.1,0.2-0.1,0.5-0.3,0.7c-0.1,0-0.1,0-0.2,0.1v0.3c-0.1,0-0.1,0-0.2,0.1
			c0,0.2-0.1,0.4-0.1,0.6c-0.1,0.2-0.3,0.2-0.4,0.5h-0.3c0,0.1,0,0.1,0.1,0.2c-0.6,0.7-1.2,1.7-1.7,2.3v0.1c0,0-0.1,0-0.1-0.1
			c-0.3,0.7-0.9,1.1-1,1.9c-0.1,0-0.1,0-0.2-0.1c0,0.1,0,0.1,0.1,0.1c-0.1,0.2,0,0.1-0.2,0.1c0,0.3-0.1,0.2-0.1,0.4
			c-0.1,0-0.1,0-0.3,0.1c-0.1,0.3-0.3,0.3-0.4,0.5c-0.1,0.2-0.2,0.5-0.3,0.7c-0.5,0.6-1.4,1.2-1.6,2c0,0,0,0-0.1-0.1
			c-0.2,0.1-0.2,0.4-0.3,0.5c-0.1,0.1-0.3,0.2-0.4,0.3c-0.1,0.1-0.1,0.3-0.1,0.3c-0.1,0-0.1,0-0.2-0.1c0,0.1,0,0.3-0.1,0.4
			c-0.1,0.1-0.3,0.1-0.3,0.1c0,0.1,0,0.1,0.1,0.2c-0.2,0.2-0.5,0.6-0.9,0.7c0,0.1,0,0.1,0.1,0.2c0,0-0.1,0-0.1-0.1
			c-0.2,0.4-1.6,2.1-2,2.1c-0.3,0.3-0.1,0.5-0.5,0.7v0.2c-0.5,0.1-0.4,0.4-0.9,0.5v0.2h-0.2v0.2c-0.3,0.2-0.6,0.5-0.8,0.7h-0.2
			c0,0.2,0,0.2,0,0.3h-0.2v0.2c-0.5,0.1-0.8,0.7-0.8,0.9c-0.5,0-0.2,0.2-0.7,0.3v0.2h-0.3c-0.2,0.3-0.5,0.3-0.8,0.6
			c-0.1,0.1-0.3,0.6-0.5,0.7c0,0-0.5,0.1-0.7,0.1c0,0,0,0.1,0.1,0.1c-0.1,0.1-0.3,0.1-0.3,0.1c0,0-0.2,0.4-0.2,0.4
			c-0.1,0-0.1,0-0.2-0.1c-0.1,0.1-0.1,0.2-0.2,0.3h-0.3c-0.4,0.3-0.9,0.8-1.3,0.9c0,0.1,0,0.1,0.1,0.1v0.1c0,0,0,0-0.1-0.1
			c-0.9,0.3-1.5,1.1-2.1,1.8c-0.3,0.3-0.7,0-0.7,0.5h-0.3v0.2c-0.4,0.1-0.4,0.3-0.7,0.3v0.3c-0.1,0-0.1,0-0.2,0.1
			c-0.2,0.1-0.2,0.3-0.5,0.4c0.1,0.1,0.1,0.1,0.1,0.2c-0.2,0,0,0-0.2,0c0,0,0,0.1-0.1,0.1h0.1c-0.2,0.3-0.8,0.3-1.1,0.6
			c-0.1,0.1-0.1,0.3-0.1,0.3c-0.2,0.1-0.5,0.1-0.7,0.2c-0.7,0.5-1.2,1.3-2.2,1.2c0,0,0.1,0.1,0.1,0.1c-0.1,0.1-0.2,0-0.3,0
			c-0.6,0.3-0.9,0.6-1.4,0.9c-0.1-0.1-1.8,0.4-1.9,0.4c-0.2,0.1-0.5,0.4-0.7,0.5c-0.2,0.1-0.4,0-0.5,0c0,0-0.1,0.2-0.1,0.3h-0.5
			c-0.4,0.2-0.3,0.5-0.9,0.5v0.2c-0.3-0.1-0.3,0.2-0.5,0.1c-0.1,0.1-0.2-0.1-0.1,0.1h0.1c-0.2,0.1-0.5,0.1-0.7,0.2
			c-0.3,0.1-0.5,0.5-0.7,0.6c-0.2,0.1-1,0.1-1.4,0.1v0.2c-0.9,0.1-1.7,0.8-2.4,1.1c-0.3,0.1-0.8,0.3-1,0.3c-0.1,0-0.6-0.1-0.8-0.1
			c-0.2,0.1-0.4,0.4-0.5,0.5c-0.2,0-0.3,0-0.5,0.1l-0.3,0.3h-0.5c-0.3,0.1-0.3,0.4-0.5,0.4c-0.2,0-0.1-0.1-0.1-0.1l-2.2,0.1
			c-0.3,0.1-0.9,0.2-1.3,0.3c-0.2,0-0.6-0.1-0.9-0.1c-0.2,0-0.5,0.2-0.7,0.3c-0.2,0.1-0.3-0.1-0.4-0.1c-0.6,0.1-1.1,0.1-1.8,0.3
			c-0.7-0.3-1.4-0.1-2,0c-0.5,0.1-0.8-0.2-1.3-0.1c-0.2,0-0.5,0.2-0.7,0.1c-0.5-0.1-1.3-0.2-2-0.3c-0.4,0-0.8,0.1-1.1,0.1
			c-0.6-0.1-1.2-0.2-1.6-0.4c-0.7,0.2-1.4,0-2-0.1c-0.3-0.1-1.2,0.1-1.3,0c0-0.1,0-0.1-0.1-0.2c-0.2-0.1-0.8,0.1-0.9,0.1
			c-0.1,0-0.4-0.2-0.5-0.3c-0.2,0-0.5,0-0.7,0.1c-0.5-0.1-0.9-0.2-1.5-0.3c-0.2,0-0.3,0-0.5,0.1c-0.2,0-0.5-0.3-0.7-0.3
			c-0.7-0.2-1.8-0.3-2.2-0.4c-0.1,0-0.3-0.2-0.3-0.3c-0.2-0.1-0.4,0.1-0.4,0.1c-0.6-0.2-1.4-0.4-2-0.6c-0.2-0.1-0.2,0.1-0.4,0
			l-0.2-0.2c-0.3-0.1-1.1,0-1.4,0c-0.3-0.1-0.6-0.4-0.9-0.4c-0.8,0-1.5-0.2-2-0.3h-0.7c-0.7-0.2-1.4-0.8-2.3-0.9v-0.2
			c-0.3-0.1-0.6-0.3-0.9-0.4c-0.1,0-0.2,0-0.3,0.1c-0.1-0.1-0.3-0.3-0.5-0.3c-0.2,0-0.3,0-0.5,0.1c-0.2,0-0.4-0.1-0.6-0.2
			c-0.1-0.3-0.1-0.3-0.1-0.5c-0.2,0-0.4,0.2-0.5,0.2c-0.2,0-0.9-0.3-1.1-0.4c-0.1,0-0.1-0.2-0.2-0.3c-0.2-0.1-0.3,0.1-0.6,0
			c-0.4-0.2-0.8-0.5-1.3-0.7c-0.7-0.3-1.7-0.4-2-1.1H370c-0.2-0.6-1.1-0.6-1.5-0.8c-0.7-0.4-1.6-0.9-2.2-1.4c-0.3-0.2-0.7-0.2-1-0.5
			c-0.3-0.2-0.6-0.5-0.9-0.7c0,0-0.1,0-0.1,0.1c-0.2-0.2-0.3-0.5-0.5-0.6c-0.3-0.2-1.1-0.4-1.2-0.5c-0.1-0.1-0.1-0.3-0.2-0.4
			c-0.1,0-0.3,0-0.4-0.1c-0.2-0.1-0.3-0.4-0.4-0.5c-0.2-0.1-0.5-0.1-0.6-0.1c-0.3-0.1-0.6-0.7-0.9-0.8l-0.6-0.2
			c-0.2-0.1-0.5-0.4-0.7-0.5h-0.3c-0.2-0.1-0.2-0.3-0.3-0.5c-0.3-0.3-0.7-0.4-0.9-0.6c0.1-0.1,0.1-0.1,0-0.2
			c-0.3-0.2-0.6-0.2-0.9-0.4c-0.1-0.1-0.1-0.2-0.2-0.3h-0.3c-0.2-0.2-0.3-0.6-0.5-0.8c-0.2-0.2-0.5-0.2-0.7-0.3
			c-0.1-0.1,0-0.3-0.1-0.4c-0.2-0.3-0.7-0.5-0.9-0.7c-0.2-0.2-0.5-0.7-0.7-0.9c-0.1-0.1-0.1,0-0.2-0.1v-0.3h-0.2
			c-0.3-0.7-1-0.9-1.6-1.4c0.1-0.1-0.3-0.5-0.4-0.6c-0.1,0-0.2,0-0.3-0.1c-0.1-0.1,0-0.4-0.1-0.5c-0.2-0.1-0.3-0.2-0.5-0.3
			c-0.3-0.5-0.5-0.9-0.9-1.4c-0.2-0.2-0.4-0.4-0.5-0.5v-0.2c-0.1,0-0.2,0-0.3-0.1c-0.3-0.4-0.3-0.9-0.7-1.2v-0.3
			c-0.1,0-0.9-1.4-1.1-1.7c-0.1,0.1-0.7-1.2-0.9-1.6c-0.2-0.3-0.5-0.5-0.7-0.7c-0.1-0.1,0-0.4,0-0.4c-0.1-0.1-0.2-0.1-0.3-0.1
			c-0.1-0.1,0-0.3-0.1-0.3c-0.1-0.2-0.4-0.2-0.5-0.4c-0.2-0.4-0.1-0.9-0.2-1.1c-0.1-0.3-0.4-0.7-0.5-0.9c0,0-0.1,0-0.1,0.1
			c-0.2-0.3-0.1-0.7-0.1-0.9c-0.1-0.1-0.2-0.2-0.3-0.3c-0.4-0.8-0.4-1.8-1.2-2.2v-0.3h-0.2c0-0.5-0.2-0.7-0.3-0.9
			c0-0.1,0-0.2,0.1-0.3c-0.1-0.2-0.4-0.5-0.5-0.7c0-0.2,0-0.5-0.1-0.7c-0.1-0.2-0.5-0.4-0.6-0.6c-0.1-0.1,0.1-1-0.1-1.3
			c0-0.2-0.1-0.2-0.1-0.2c-0.3-0.1-0.9-2.7-1-3.1c-0.1-0.3,0-0.7,0.1-0.8c-0.1-0.1-0.3-0.4-0.5-0.5c0-0.4-0.2-1.9-0.5-2.4
			c-0.1-0.2-0.4-0.5-0.4-0.7c-0.1-0.5,0.4-0.7,0.2-1.4c-0.2-0.7-0.9-3-0.7-3.6c-0.3-0.4-0.5-0.6-0.5-1.1c-0.1-0.1-0.2-0.4-0.1-0.7
			c0.1-0.2,0.2-0.3,0.2-0.5c-0.2-0.4-0.4-2.1-0.4-2.3c0-0.4-0.2-1-0.3-1.4c0-0.2,0.1-0.3,0.1-0.3c0-0.3-0.2-0.5-0.2-0.8
			c0-0.1,0.2-0.2,0.1-0.4c-0.2-0.4-0.2-0.7-0.1-1c0.1-0.4-0.2-0.8-0.1-1c0,0,0-0.3-0.1-0.1c0,0,0,0-0.1,0.1c0.2-0.6,0-1.7-0.1-2.3
			c0-0.2,0.1-0.8,0.1-1c-0.2-0.1-0.1-0.5-0.2-0.9c0,0-0.1-0.7-0.1-0.7c0-0.2,0.1-0.6,0.1-0.9c-0.1-0.3-0.3-0.8-0.3-1.3
			c0.1-0.8,0-1.4-0.1-1.9c0,0-0.1-0.9-0.1-0.9c0.1,0,0.2,0,0.1-0.1c-0.2-0.3-0.4-1.2-0.3-1.7c0.1-0.5,0.2-1,0.3-1.3
			c-0.3-0.8,0-2.2,0.2-2.9c0.1-0.4-0.3-1.2-0.2-1.7c0,0,0.1,0,0.1-0.1l-0.1-0.7c0.1-0.1,0.2-0.1,0.1-0.3c0,0-0.1-0.1-0.1-0.1
			c0.1-0.1,0.2-0.3,0.2-0.5c0-0.1-0.1-0.2-0.1-0.3c0-0.3,0.2-0.3,0.3-0.5c0.2-0.4-0.2-0.5-0.1-0.9c0.1-0.2,0.2-0.2,0.2-0.6h0.2
			c0-0.3,0.1-0.3-0.1-0.4c0.1-0.2,0-0.1,0.2-0.1c0-0.4-0.1-0.8-0.1-1.1c0.2-0.4,0.2-0.8,0.3-1.2c0-0.5,0.4-0.7,0.2-1.1
			c0.2,0,0,0,0.2,0c0-0.3,0.2-0.7,0.1-0.9c0,0,0-0.3,0.1-0.1c0,0,0,0,0.1,0.1c0-0.8,0.2-1.2,0.3-1.9h0.2c0-0.2,0-0.3,0.1-0.4h0.1
			c0-0.4,0-0.7-0.1-1.1c0.3-0.9,0.5-1.6,0.6-2.2c0.1-0.5,0.6-1.4,0.5-1.7c0.1,0,0.2,0,0.3-0.1c-0.2-0.9,0.2-1,0.6-1.7
			c0-0.4,0-0.9,0.1-1.4c0.1,0,0.1,0,0.2-0.1c0-0.1,0-0.3-0.1-0.4c0.1-0.2,0.3-0.7,0.5-1.1v-0.3c0.1-0.2,0.5-0.6,0.6-0.7
			c0-0.1,0-0.1-0.1-0.2c0.1-0.2,0.3-0.3,0.3-0.3c0.1-0.2-0.1-0.3,0-0.5c0.2-0.5,0.5-0.7,0.4-1c0.1,0,0.1,0,0.1,0.1
			c0.3-0.3,0.9-1.8,0.8-1.9c0.1,0,0.1,0,0.3-0.1c0.1-0.1,0-0.2,0-0.3c0.2,0,0,0,0.2,0c0-0.1,0-0.1-0.1-0.1c0-0.1,0.1-0.1,0.3-0.1
			c-0.1-0.2,0,0-0.1-0.1c0.2-0.3,0.7-0.6,0.7-0.9c0-0.1,0.4-0.3,0.5-0.5c0.1-0.2,0.1-0.4,0.2-0.5c0.3-0.4,0.5-0.3,0.5-0.7
			c0.1-0.2,0.3-0.1,0.4-0.1c0.1-0.1,0-0.2,0-0.3c0.1-0.1,0.3-0.1,0.4-0.2v-0.3c0.1-0.1,0.3-0.2,0.5-0.3V257c0,0,0.8-1.2,0.8-1.4h0.3
			c0-0.3,0.1-0.3,0.1-0.4h0.2c0.1-0.3,0.1-0.2,0.2-0.5c0.1,0,0.1,0,0.1,0.1c0.1-0.1,0.2-0.3,0.3-0.4c0.2-0.1,0.3,0,0.4-0.2
			c0.2-0.3,0.4-0.6,0.7-0.9c0.1,0.1,0.3,0,0.3-0.1V253c0.1-0.2,1.2-1.3,1.6-1.4c0-0.1,0-0.1-0.1-0.1c0.1-0.1,0.9-0.8,1.3-0.9
			c0.1-0.2,0.1-0.2,0.1-0.5c0.6-0.1,0.7-0.7,1.1-0.9V249c0.2,0,0.2,0,0.3,0.1c0-0.1,0-0.1,0.1-0.3c0.2,0,1.3-0.8,1.4-1v-0.3
			c0,0,0.9-0.3,1.1-0.7h0.2c0.1-0.5,0.7-0.6,1-1c0.1-0.1,0-0.2,0.1-0.3c0.2-0.2,0.3,0,0.5-0.3c0,0,0.1,0.1,0.1,0.1
			c0.8-0.7,1.1-0.9,2.2-1.4c-0.2-0.1,0.6-0.5,0.7-0.5v-0.3c0.3,0,0.4-0.2,0.7-0.2c-0.1-0.1,0,0-0.1-0.1c0.2-0.1,0.4,0.1,0.5-0.3
			c0.1,0,0.1,0.1,0.2,0.1c0.2-0.3,0.3-0.1,0.7-0.3c0.1-0.1,0.2-0.3,0.3-0.4c0.3-0.2,0.5-0.1,0.8-0.2c0.3,0.5,0.9,0.6,1.1,1.1
			c0.3,0,0.4-0.1,0.7-0.2c0-0.3,0.2-0.3,0.3-0.5c0.2-0.4-0.2-0.6-0.3-1h-0.2c-0.1-0.4-0.1-0.2,0-0.6c0,0,0,0-0.1-0.1
			c0.2-0.2,0.6-0.3,0.7-0.5c0.2,0.1,0.1,0.1,0.3,0.2c-0.1,0.1-0.1,0-0.2,0.1c0,0.2,0.1,0.1,0,0.2c0.1,0.1,0.2,0.1,0.3,0.1
			c0.2,0.5,0.5,0.8,0.8,1.4c0.2,0,0.2,0,0.3,0.1c0.2-0.1,0.1,0,0.1-0.2c0.2,0,0.3,0,0.5-0.1c0-0.2,0.2-1.1,0.2-1.1
			c0-0.1-0.3-0.3-0.3-0.5c0.1-0.2,0.3-0.5,0.3-0.7h0.3v-0.2c0.2-0.1,0.4-0.2,0.6-0.1c0.5,0,0.6,0.3,0.7,0.6h0.2v0.2c0,0,0,0,0.1,0.1
			c0.3,0,0.3-0.1,0.6-0.2c0.1-0.4,0.2-0.7-0.1-1c-0.3-0.7,0.7-0.9,0.9-1.5c0,0,0.1,0.1,0.1,0.1h0.1c0,0,0,0-0.1-0.1
			c0.1-0.2,0-0.1,0.2-0.1c0.1-0.2,0.2-0.3,0.3-0.5v-0.1c0-0.1,0.1,0.1,0.1,0.1c0.2-0.1,0.1-0.2,0.2-0.3h0.3c0.2-0.1,0.3-0.3,0.4-0.4
			c0.2-0.1,0.5-0.1,0.7-0.3v-0.2c0.1-0.1,0.5-0.5,0.7-0.5c0,0,0.4-0.1,0.4-0.1c0,0,0.1,0.1,0.1,0.1c0.3-0.2,0.4-0.5,0.8-0.4
			c0-0.1,0-0.2-0.1-0.3c0.4,0.3,1.2-0.5,1.8-0.5v-0.2c0.4,0,0.7-0.3,1-0.2c0.2-0.1,0.1,0,0.1-0.2c0.2,0,0.5,0,0.7-0.1c0,0,0,0,0,0h0
			c0.4-0.1,0.8-0.2,1.2-0.4c0.1,0,0.2,0.1,0.2,0.1c0.3,0,0.7-0.1,0.9-0.3c0.1,0,0.1,0.1,0.2,0.1c0.5-0.1,1.6-0.6,1.9-0.9
			c0.1,0.1,0.5,0.1,0.7,0c0-0.1,0-0.1,0.1-0.2h0.9c0.4-0.1,1.7-0.2,2-0.4h0.1c0,0,0,0.1-0.1,0.1c0.9,0.1,2-0.8,2.8-0.6
			c0-0.1,0-0.1,0.1-0.3c0.4,0.2,0.6,0.2,1.1-0.1c0-0.1,0-0.1,0.1-0.2c0.2-0.1,0.4,0.1,0.5,0.1c0.1-0.1,0.1-0.1,0.1-0.2
			c0.1,0,0,0,0.1,0.1c0.5,0,0.5,0,0.5-0.3c0.5,0.2,0.8,0,1.5,0.1c0.2-0.1,0.4-0.3,0.7-0.1c0.2-0.1,0.1,0,0.1-0.2c0.2,0,0,0,0.1,0.1
			c0.2-0.2,0.5-0.1,0.6-0.1c0.1-0.1,0-0.1,0.1-0.2c0.4,0,0.5,0,0.7-0.2c0,0.1,0,0.1,0.1,0.2c0.1-0.1,0.1-0.1,0.1-0.3
			c0.1,0.1,0.1,0.1,0.1,0.2c0.1-0.1,0-0.1,0.1-0.2c0.2,0.1,0.2,0.1,0.3,0.2c0,0,0.3,0,0.1-0.1c0,0,0,0-0.1-0.1
			c0.7-0.1,1.2-0.1,1.8-0.5c0.1,0.1,0.2,0.1,0.3,0.2c0.1-0.1,0.1-0.2,0.2-0.3c0.2,0.1,0.5,0.1,0.6-0.1c0.1,0.1,0.1,0.1,0.3,0.1v-0.2
			c0.4,0.2,0.9,0,1.2,0.1c0.4,0,0.6-0.1,0.6,0.1c0.3,0,0.3-0.1,0.4,0.1c0.2-0.1,0.1,0,0.1-0.3c0.5,0.4,1,0,2,0.2
			c0.9,0.2,2.3,0.2,3.1,0c0.6-0.2,1.4,0.3,1.8,0.2c0.3,0,0.3,0,0.3,0.1c0.2-0.1,0.1,0,0.2-0.1h0.1c0,0,0,0.1-0.1,0.1h0.1
			c0.1,0.2,0.2-0.2,0.2-0.1c0.1,0.2,0.1,0.2,0.3,0.2v-0.2c0.2,0.2,2.6,0.4,2.9,0.4c0.4,0,1.1,0.4,1.3,0.2c0.2,0.1,0.1,0,0.1,0.2
			c0.6,0,1.2,0.2,1.6-0.1h0.1c0,0,0,0.1-0.1,0.1c0.9,0.1,1.6,0.3,2.3,0.3c0.3,0,0.4,0.3,0.6,0.1c0.2,0.1,0.7,0.6,1.1,0.3
			c0.5,0,1.1,0.6,1.5,0.3c0.1,0,0,0,0.1,0.1c0.1,0.2,1.3,0.3,1.6,0.4c0.1,0.1,0.5-0.1,0.5-0.1c0,0,0.1,0.3,0.1,0.3c0,0,0,0,0.1-0.1
			c0.1,0,0.2,0,0.3,0.1v0.2c0.3,0.1,0.8,0.4,0.9,0.1h0.1v0.3c0.8,0.1,1.8,0.7,2.4,0.5v0.3c0.2,0,2.2,0.6,2.3,0.6
			c0,0.1,0,0.1,0.1,0.2h0.3c0.1,0.1,0.3,0.3,0.5,0.4c0.5,0.2,0.9,0.1,1.1,0.5c0.2-0.1,0,0,0.1-0.1c0.1,0.1,0,0,0,0.2
			c0.8,0.3,1.6,0.3,2.3,0.7c0.1,0,0.4-0.1,0.5,0c0,0.1,0,0.1,0.1,0.2c0.2,0.1,0.1-0.2,0.3-0.1c0.1,0,0.5,0.4,0.7,0.5
			c0.3,0.1,0.5,0,0.7,0.1v0.1c0.2,0.1,0.4,0.1,0.6,0.2v0.1c0.1,0,0.3,0,0.4,0.1c0.3,0.2,0.6,0.6,0.9,0.8c0.3,0.2,1,0.3,1.1,0.3
			c0.2,0.2,0.4,0.4,0.7,0.5v0.2c0.2-0.1,0.1,0,0.2-0.1h0.1c-0.1,0.2,0,0-0.1,0.1c0,0,0,0,0.1,0.1c0.1,0.1,0.1,0.1,0.2,0
			c0.1,0.1,0,0.1,0.1,0.2c0.5,0.1,0.5,0.5,1,0.5c0.1,0.4,0.4,0.3,0.6,0.6c0.2-0.1,0.1,0,0.2-0.1h0.1c0,0-0.1,0.1-0.1,0.1v0.1h0.4
			c0.2,0.7,0.8,0.5,1.2,0.9c0.1,0.1,0.1,0.3,0.2,0.4c0.2,0.1,0.3,0.1,0.5,0.2c0,0,0,0.1-0.1,0.1c0.1,0.1,0.2,0.1,0.3,0.1
			c0.2,0.1,0.2,0.4,0.3,0.5c0.2,0.1,0.4,0.1,0.5,0.3c0.2,0.2,0.4,0.6,0.6,0.7c0.1,0,0.1,0,0.2-0.1c0.2,0.1,0,0.2,0.1,0.3
			c0.3,0.1,0.7,0.5,0.7,0.7c0.1,0,0.1,0,0.1-0.1c0.2,0.1,1.2,1.7,1.6,1.4c0.1,0.1,0,0.1,0,0.3c0.6,0,0.8,0.5,1.2,0.9
			c0.2,0.2,0.8,0.6,1,0.9c0.1,0.1,0.1,0.3,0.2,0.4c0.2,0.1,0.4,0.1,0.5,0.2c0.1,0.1,0.1,0.2,0.1,0.3c0.1,0.1,0.2,0,0.3,0.1
			c0,0,0,0.1-0.1,0.1c0.3,0.3,0.8,0.6,1,1h0.2c0.2,0.8,1.3,1.2,1.4,2.2c0.4,0.1,0.3,0.6,0.7,0.9c0.1,0.1,0.3,0,0.4,0.1
			c-0.2,0.2,0.5,0.5,0.5,0.7c0,0.1,0.5,0.5,0.6,0.7c0.3,0.5,0.5,1,1.1,1.6c0.1,0,0,0.1,0.1,0c0.1,0.1,1,1.1,1.1,1.5h0.2
			c0,0.1,0,0.1-0.1,0.2c0.1,0.1-0.1,0.2,0.1,0.1v-0.1c0.1,0.2,0.4,0.9,0.3,1.1c0.1,0,0.2,0.1,0.3,0.1c0,0-0.1,0.1-0.1,0.1
			c0.1,0.2,0.1,0.1,0.2,0.3h0.3c0,0.2,0,0.2,0,0.3c0.5,0.3,1.9,2.4,2,3.2h0.2c0.1,0.6,0.3,0.7,0.6,1.1c0.1,0.1,0.1,0.8,0.3,1v0.1
			c0,0,0.1,0,0.1-0.1c-0.1,0.2,0,0-0.1,0.1c0.7,1,1.3,2.2,2,3.1c0,0,0.4,1.4,0.5,1.6c0.6,0.8,1.3,2.2,1.5,3c0,0.1,0.1,0.1-0.1,0.1
			c0.1,0.1,0.1,0,0.2,0.1c0,0.2,0,0.2,0.2,0.3c-0.1,0.1,0,0-0.1,0.1c0.1,0.3,0.2,0.5,0.4,0.8c0.1,0.1-0.1,0.2-0.1,0.3
			c0.3,0.4,0,0.2,0.1,0.5c0.1,0.2,0.3,0.5,0.4,0.7c0.2,0.4,0.1,0.9,0.3,1.3h0.1c0,0.1-0.1,0.1-0.1,0.3c0,0,0.2,0.2,0.3,0.2
			c0,0-0.1,0.1-0.1,0.3c0.1,0.4,0.2,0.7,0.3,0.9h-0.1c0.1,0.2,0.1,0.1,0.2,0.2c-0.1,0.1,0,0-0.1,0.1c0.1,0.3,0.3,0.8,0.3,1.1
			c0,0.2,0,0.1,0.1,0.1c0,0.2-0.1,0.1,0.1,0.2c-0.1,0.2,0,0-0.1,0.1c0.1,0.2,0,0.5,0.3,0.6c-0.1,0.2,0,0-0.1,0.1
			c0.2,0.3,0.3,1.6,0.5,1.8c-0.1,0.1,0,0-0.1,0.1c0.1,0.2,0,0,0.1,0.1c-0.1,0.2,0,0.1-0.1,0.2c0.1,0.1,0,0,0.2,0
			c0,0.1-0.1,0.8-0.1,0.9h0.1c0,0,0.1,0.3,0.1,0.3c0,0.2-0.2,0.4-0.1,0.8c0,0,0.1,0.3,0.1,0.3c-0.3,1.7,0.2,3.2,0.3,4.8
			c0,0.5-0.1,2,0.2,2.2c-0.1,0.1,0,0-0.1,0.1c0.1,0.4,0,0.7,0.2,1c-0.1,0.1-0.2,0.3-0.1,0.5c0,0,0.1,0.3,0.1,0.3
			c0,0.3-0.2,0.6-0.1,0.9c0.1,0.4,0.2,0.6,0.2,1C472.8,297.9,472.3,299.7,472.6,300z M379.4,233.1L379.4,233.1c-0.1,0-0.1,0-0.1,0
			C379.3,233.1,379.3,233.1,379.4,233.1L379.4,233.1L379.4,233.1z M379.7,234.6c0,0.3-0.1,0.5-0.2,0.7c0,0.5,0.2,0.4,0.3,0.7
			c0.3,0,0.5-0.1,0.7,0.1c0-0.1,0.1-0.2,0.1-0.2c0.1-0.1,0,0,0.1,0c0,0,0,0,0.1-0.1C380.7,235.2,380.3,234.8,379.7,234.6z
			 M373.4,237.9c-0.1,0.2,0,0.2-0.3,0.1c0.1,0.2,0.1,0.3,0.1,0.6c0,0,0,0,0.1,0.1c0.6,0,0.7,0,1.1-0.1
			C374.4,238,373.9,238,373.4,237.9z M385.2,238.9c-0.3,0-0.4,0.1-0.7,0.1c0,0.1,0,0.1,0.1,0.1c-0.1,0.2,0,0.1-0.2,0.1v0.2
			c0.2,0,0.1,0,0.2,0.1c0.2,0.1,0.3,0.1,0.5,0.2c0.1-0.1,0.2-0.2,0.4-0.3c0-0.1,0-0.1,0.1-0.2C385.4,239.2,385.2,239.1,385.2,238.9z
			 M378.9,240.6c0-0.3-0.1-0.4-0.3-0.5c0,0-0.9,0-1-0.1c-0.1,0.1-0.2,0.2-0.3,0.3c0,0.2,0.1,0.3,0,0.5c0.2,0.1,0.4,0.2,0.6,0.3
			c0,0,0.8-0.2,0.9-0.2C378.8,240.7,378.9,240.6,378.9,240.6z M402.3,241c0-0.6-0.2-0.5-0.3-0.9c-0.1,0-0.4,0.1-0.4,0.1h-0.1
			c0,0,0-0.1,0.1-0.1h-0.1c-0.1,0.3,0,0.2-0.2,0.3c0.1,0.1,0.2,0.5,0.3,0.7c0.2,0,0.4,0.1,0.6-0.1L402.3,241
			C402.3,241,402.3,241,402.3,241z M373.2,241c-0.1,0.1-0.1,0.1-0.3,0.1c0,0.3-0.1,0.3-0.2,0.7c0.2,0.2,0.3,0.5,0.5,0.5
			c0.2,0.1,0,0,0.1,0.1c0,0,0.1,0,0.3-0.1c0,0,0,0,0,0h0.1c0.1,0,0.3-0.1,0.3-0.1c0.2-0.1,0.2-0.2,0.3-0.3c-0.1-0.5-0.4-0.7-0.6-1
			H373.2z M369.9,241.7c0-0.1,0-0.1-0.1-0.1c-0.2,0.2-0.6,0.4-0.8,0.5c0,0.3,0.1,0.3,0.1,0.5c0.3,0,0.5,0,0.6,0.1
			c0.5,0,0.6-0.2,0.7-0.5c0.1-0.1,0-0.1-0.1-0.3C370.3,241.6,370.1,241.6,369.9,241.7z M373.9,242.4L373.9,242.4L373.9,242.4
			l-0.1-0.1c0,0,0,0-0.1,0C373.8,242.5,373.8,242.4,373.9,242.4z M379.4,242.5c-0.2-0.1-0.3,0-0.5,0c-0.1,0.1,0,0.1-0.2,0.2
			c0,0.6,0,0.9,0.2,1.1c0.2,0.1,0.3,0,0.6-0.1c-0.1,0.1,0,0-0.1,0.1c0.1,0.2,0.2,0,0.6,0c0-0.1,0-0.1,0.1-0.2c0,0,0,0,0.1-0.1v0.1
			c0.1,0,0.1,0,0.1-0.1c-0.1-0.1,0-0.2,0-0.3C379.9,243,379.8,242.6,379.4,242.5z M364.2,243.3c-0.3-0.1-0.3-0.3-0.5-0.4
			c-0.2-0.1-0.4,0-0.5-0.1c-0.3,0.3-0.7,0.3-1,0.1c-0.1,0.3-0.2,0.4-0.4,0.5c0.2,0.7,1,0.8,1.3,1.4c0.4,0,0.7,0.1,1-0.1h0.1
			c0-0.2,0.1-1.2,0.1-1.2c-0.1-0.1-0.1,0-0.2-0.1C364.1,243.3,364.1,243.4,364.2,243.3z M367.5,243.5c-0.1-0.1-0.2,0-0.2-0.3
			c-0.2,0.1-0.4,0.1-0.6,0c-0.1,0.5-0.2,0.6,0.1,0.9c0.1,0.1,0.2,0.1,0.3,0.2c0.2-0.1,0.2-0.1,0.4-0.2
			C367.5,244,367.5,243.6,367.5,243.5z M372.3,245H372c-0.3,0.2-0.5,0.1-0.8,0.4c-0.1,0.2,0,0.2-0.2,0.4c0.3,0.6,1,0.1,1.3,0.2
			c0.3,0,0.3-0.1,0.4-0.1c0-0.2,0.1-0.3,0-0.5C372.7,245.3,372.4,245.2,372.3,245z M390.4,245.6c-0.2-0.1-0.4-0.2-0.6-0.3
			c-0.1,0.1-0.2,0.1-0.4,0.1c0,0.2,0,0.1,0,0.2c0,0.5,0.2,0.7,0.6,0.7c0.1,0.1,0.2,0,0.3-0.1h0.1
			C390.5,245.9,390.4,245.9,390.4,245.6z M359.5,246c-0.1,0.1-0.2,0.1-0.3,0.2c0,0.2,0,0.2,0.1,0.3c0.1,0.2,0.5,0.2,0.7,0.4
			c0.2-0.1,0.2-0.3,0.3-0.5h-0.1C360.1,246.1,359.9,246,359.5,246z M365.5,246.4c-0.2,0-0.1,0-0.4,0c-0.1,0.1-0.2,0.2-0.4,0.2
			c0,0.3,0,0.3-0.1,0.5c0.1,0.2,0.3,0.5,0.3,0.7c0.2,0,0.1,0,0.1-0.1c0.2,0.1,0.4,0.1,0.6-0.1c0.2-0.1,0.3-0.5,0.4-0.7
			C365.9,246.8,365.7,246.6,365.5,246.4z M421.4,246.6c0,0.3,0.1,0.3,0.1,0.6c0.2,0,0.2-0.2,0.3,0c0.2-0.1,0-0.1,0.2-0.3
			c-0.1-0.2-0.1-0.1-0.1-0.3H421.4z M421.6,247L421.6,247l-0.1-0.1h0.1V247z M375.7,250.7c0,0-0.5,0.4-0.6,0.4c0,0.2,0,0.2,0,0.3
			c0,0.3,0.1,0.3,0.1,0.4c0.2,0,0.6,0.1,0.9,0.3c0.2-0.1,0.2-0.2,0.4-0.3C376.5,251.2,376.3,250.8,375.7,250.7z M359,252.2
			c0.1-0.1,0,0,0-0.2c0.1-0.1-0.3-0.4-0.4-0.5h-0.4c-0.1,0.2,0,0.1-0.2,0.2c0,0.5,0.2,0.4,0.3,0.7
			C358.6,252.4,358.8,252.4,359,252.2z M369.1,255.8c-0.2,0.2-0.4,0.1-0.5,0.2c-0.2,0.1-0.4,0.4-0.6,0.5c0.1,0.3,0.2,0.5,0.1,0.7
			c0.1,0.2,0.2,0.3,0.3,0.5c0.4,0,0.6-0.1,0.7,0.1c0.4-0.1,0.7-0.5,0.9-0.9c0-0.1,0-0.9-0.3-1.1
			C369.5,255.7,369.3,255.8,369.1,255.8z M376.5,256.6c-0.1,0.2-0.2,0.2-0.3,0.5c-0.1,0.3,0.2,0.5,0.3,0.9c0.4,0,0.7,0,0.9-0.3
			c0.1-0.2,0-0.5-0.2-0.9C376.9,256.7,376.8,256.6,376.5,256.6z M358.7,257c-0.7,0.2-0.4,0.8-0.3,1.2c0.5,0,0.5-0.2,0.9-0.2
			c0-0.2-0.1-0.1,0.1-0.2c-0.1-0.4-0.3-0.5-0.4-0.7C358.9,257.1,358.8,257.1,358.7,257z M404.8,261c-0.3,0-0.3,0.1-0.4,0.1
			c0,0.6,0.1,0.5,0.2,1c0.8,0.1,0.5,0,1.1-0.1c0-0.3,0-0.4,0-0.7C405.5,261.2,405.1,260.7,404.8,261z M392.2,262.6
			c-0.1,0.1-0.3,0.2-0.4,0.3c0,0.2,0,0.4,0,0.4c0,0.5,0.2,0.5,0.4,0.7c0.3,0,0.5,0.2,0.7,0.1c0.4,0,0.4-0.2,0.6-0.3
			c0-0.1-0.1-0.4-0.1-0.5C393.3,262.8,392.7,262.7,392.2,262.6z M349.7,264.9l-0.6-0.2c-0.2,0.1-0.4,0.2-0.6,0.3
			c0,0.2,0.1,0.5,0.2,0.6c0.2,0.3,0.8,0.4,1.3,0.4c0.1-0.2,0.1-0.5,0.1-0.6C349.9,265.2,349.9,265,349.7,264.9z M432.6,268.3
			c-0.1-0.1-0.1-0.1-0.3-0.1c-0.1,0.1-0.2,0.2-0.3,0.3c0,0.2-0.1,0.5-0.1,0.5c0.2,0.4,0.6,0.3,0.8,0.5c0.2-0.1,0.2-0.1,0.3-0.2
			c0-0.3,0-0.5-0.1-0.7C432.9,268.4,432.9,268.4,432.6,268.3z M358.4,275.7c-0.2,0.2-0.7,0-1,0.2v0.1c-0.1,0.1-0.3,0.2-0.5,0.3
			c0,0.4,0.3,0.5,0.4,0.8c0.3,0,0.5,0.2,0.7,0.1c0.6,0,0.5-0.6,1-0.9c0-0.2,0-0.2-0.1-0.3C358.8,275.8,358.7,275.7,358.4,275.7z
			 M403.5,276.8c-0.2,0-0.5,0-0.7-0.1c-0.1,0.1-0.3,0.1-0.4,0.2c-0.2,0.1-0.1,0-0.2,0.2c-0.1,0.1,0,0.8,0,0.8
			c0.2,0.3,0.8,0.3,1.1,0.3c0-0.1,0.1-0.1,0.1-0.2c0,0,0.2-0.9,0-1.1L403.5,276.8L403.5,276.8z M378.8,276.9
			c-0.1,0.1-0.4,0.1-0.5,0.1c-0.3,0.1-0.2,0.1-0.4,0.3c0.1,0.3,0.2,0.8,0.6,0.9c0.4,0.3,0.9-0.2,1.3-0.3c-0.1-0.4-0.3-0.6-0.5-0.9
			C379.1,276.9,379,276.9,378.8,276.9z M397.9,292.5c-0.3,0.3-0.7,0.7-0.9,1c0.1,0.1,0.1,0.5,0.1,0.5c0.1,0.2,0.2,0.1,0.3,0.3
			c0.8,0,0.7-0.2,1.1-0.5C398.5,293.2,398.3,292.7,397.9,292.5z M477.9,307.5c-0.1,0-0.1,0-0.2-0.1c0,0,0,0,0,0
			C477.8,307.4,477.8,307.4,477.9,307.5z M473.9,322.2L473.9,322.2l-0.1-0.1C473.9,322.2,473.8,322.2,473.9,322.2z M473.1,324.1
			L473.1,324.1c0-0.1,0.1-0.1,0-0.1V324.1z M459.9,346.8L459.9,346.8c0-0.1,0-0.1,0.1-0.1h-0.1C459.9,346.8,459.9,346.8,459.9,346.8
			z M453.3,354.6L453.3,354.6l-0.1-0.1C453.2,354.6,453.2,354.6,453.3,354.6z M452.3,355.7c-0.1,0,0,0.1,0.1,0.1
			C452.4,355.7,452.3,355.7,452.3,355.7z M451.8,356.1L451.8,356.1c0-0.1,0.1-0.1,0-0.1V356.1z M451.5,356.3L451.5,356.3
			c0-0.1,0-0.1,0.1-0.1h-0.1C451.5,356.3,451.5,356.2,451.5,356.3z M446.3,360c0.2-0.1,0.1,0,0.1-0.1
			C446.3,359.9,446.4,359.9,446.3,360L446.3,360z M418.3,364.2c0.1-0.1,0.1,0,0-0.1V364.2z M436.7,364.7c0,0.1,0,0.1-0.1,0.1v0.1
			h0.2C436.8,364.8,436.8,364.8,436.7,364.7z M436.1,365.2h-0.1C436,365.3,436,365.3,436.1,365.2z M435.4,365.5L435.4,365.5
			l-0.1-0.1C435.3,365.5,435.3,365.5,435.4,365.5z M429.9,368.2C429.9,368.1,429.9,368.1,429.9,368.2L429.9,368.2
			C429.7,368.2,429.8,368.2,429.9,368.2z M413.1,372.3h0.1v-0.1h-0.1V372.3z"/>
	</g>
</g>
</svg>
