<?xml version="1.0" encoding="utf-8"?>
<!-- Generator: Adobe Illustrator 21.0.0, SVG Export Plug-In . SVG Version: 6.00 Build 0)  -->
<svg version="1.1" id="Calque_1" xmlns="http://www.w3.org/2000/svg" xmlns:xlink="http://www.w3.org/1999/xlink" x="0px" y="0px"
	 viewBox="0 0 841.9 595.3" style="enable-background:new 0 0 841.9 595.3;" xml:space="preserve">
<style type="text/css">
	.st0{fill:#F29FC5;}
</style>
<path class="st0" d="M337.1,290.3c0,0-23.9-9.7-38.8,1.1C283.3,302.3,337.1,290.3,337.1,290.3z"/>
<path class="st0" d="M412.5,347.8c0,0-17.9,51.2,2.2,50.4S412.5,347.8,412.5,347.8z"/>
<path class="st0" d="M462.6,263.8c0,0,6-18.3,17.9-20.2C492.4,241.8,462.6,263.8,462.6,263.8z"/>
<path class="st0" d="M440.9,216.4c0,0-7.1-25.8,5.2-34.7S440.9,216.4,440.9,216.4z"/>
<path class="st0" d="M405.1,230.2c0,0-17.5-15.7-13.4-30.2C395.7,185.4,405.1,230.2,405.1,230.2z"/>
<path class="st0" d="M365.1,272c0,0-14.6-6-17.2-17.5C345.3,242.9,365.1,272,365.1,272z"/>
<path class="st0" d="M362,301c0,0-8.1-12.9-20.4-17.8S324,268.3,327,261.9c3-6.3,18.7,0,24.3,10.8c5.6,10.8,20.5,8.6,20.9,0.7
	c0.4-7.8-6.3-22.4-14.2-26.1s-25.4-19-17.5-32.5s26.5-2.2,28,10.8c1.5,13.1,5.2,36.6,14.9,35.1c9.7-1.5,0.4-14.2,1.1-23.5
	c0.7-9.3,9.7-9.3,11.9-3.7c2.2,5.6,0.7,28.4,9.7,27.3c9-1.1,19-9.3,16.4-22.8s10.8-18.7,25-11.6c14.2,7.1,13.1,20.5,6.3,26.9
	c-6.7,6.3-3.4,18.1,3,18.2c6.4,0.1,15-9.3,27.3-1.8s3,25-9.7,25c-12.7,0-15.7,6-8.6,11.9c7.1,6,18.3,17.9,4.5,20.2
	c-13.8,2.2-35.1-12.3-35.1-12.3s15.7,29.9,0.7,24.6s-19.8-23.9-31.7-13.8c-11.9,10.1-4.5,30.6-11.2,42.9
	c-6.7,12.3-35.5,15.7-32.9-4.1c2.6-19.8,11.6-18.7,13.1-28.4c1.5-9.7-2.7-6.3-12.2-3c-9.5,3.3-23.5,5.7-15.1-2.6
	c8.4-8.3,15.3-13.6,2.6-13.1c-12.7,0.6-16.1-11.9-5.6-11.6C353.5,306,364.9,312.7,362,301z"/>
</svg>
