<?xml version="1.0" encoding="utf-8"?>
<!-- Generator: Adobe Illustrator 21.0.0, SVG Export Plug-In . SVG Version: 6.00 Build 0)  -->
<svg version="1.1" id="Calque_1" xmlns="http://www.w3.org/2000/svg" xmlns:xlink="http://www.w3.org/1999/xlink" x="0px" y="0px"
	 viewBox="0 0 841.9 595.3" style="enable-background:new 0 0 841.9 595.3;" xml:space="preserve">
<style type="text/css">
	.st0{fill:#DADADA;}
	.st1{fill:#1D1D1B;}
</style>
<ellipse class="st0" cx="461.8" cy="436.8" rx="73.2" ry="6.7"/>
<g>
	<g>
		<path class="st1" d="M432.3,155c0-1,0.4-2.7,0-3.4c-0.2-0.6-0.6-0.5-1.1-0.2c-1.6,4-1.9,9.8-3.1,14.2c-0.2,0.6,0,1.4-0.2,2.2
			c-0.3,1-0.8,2.4-1.1,3.4c-0.1,0.6-0.2,1.2-0.2,1.9c-1.8,5.8-3.3,12-5.2,17.9c0,0.5-0.1,1-0.1,1.5c-0.8,2.4-1.4,5.4-2.2,7.8
			c-0.5,1.4-0.3,3.4-0.8,4.8c-0.5,1.4-0.9,3-1.4,4.6c-0.2,0.7,0,1.3-0.2,2c-0.7,1.8-1.5,4.2-2.1,6.1c-0.4,1.5-0.5,2.7-1,4.1
			c-0.6,1.7-1.3,3.6-2,5.2c-0.5,1.2-0.3,2.3-0.8,3.4c-1.2,3.4-2.6,7-3.9,10.5c0,0.4-0.1,0.8-0.1,1.2c0,0.1-0.3,0.5-0.4,0.6
			c0,0.2,0.1,0.4,0.1,0.6c-0.8,2.2-1.3,4.9-2.1,7v0.8c-0.8,1.9-1.6,4.1-2.2,6c-0.3,0.9-0.2,1.6-0.5,2.5c-0.6,1.7-1.6,3.8-2.2,5.4
			c-0.3,0.7-0.2,1.7-0.4,2.1c-0.4,1-0.7,1.8-1,2.6l-0.4,2.6c-0.5,1.5-1,3.3-1.5,4.8c0,0.1,0.2,0.3,0.1,0.6c-0.9,2.4-1.5,5.1-2.2,7.5
			c-0.2,0.6,0.1,0.9,0,1.4c-0.2,0.9-0.6,2.5-1,3.4c0.1,0.2,0.3,0.7,0.1,1c-0.1,0.3-0.4,0.9-0.5,1.2v0.9c-0.1,0.3-0.5,0.9-0.6,1.2
			c-0.3,1-0.2,2-0.5,3c-0.4,1.1-0.9,2.6-1.1,3.6c-0.1,0.4,0.2,0.7,0.1,1c-0.1,0.4-0.5,1-0.6,1.5c-0.2,0.6,0.1,0.9,0,1.4
			c-0.3,0.9-0.6,2.4-0.9,3.4c-0.4,1.6,0.2,3.2-0.8,4.4c0.1,1.2,0,1.5-0.9,1.8c0,0.1-0.1,0.2-0.1,0.2c0.2,0.1,0.4,0.1,0.8,0.1
			c-0.4,4.5-1.7,11.6-3,16.6c0,0.2,0.1,0.5,0.1,0.8c0,0.5-0.2,0.7-0.2,1v2.4c-0.3,1.3-0.3,3-0.1,4c0.1,0.4-0.2,0.7-0.1,1
			c0.1,0.6,0.3,1.4,0.4,2.1c0,0.3-0.2,0.6-0.1,1c0,0.1,0.3,0.8,0.2,0.9c-0.8,5-1.3,10.2-1.2,15.9h-0.5c0.1,0.3,0.1,0.5,0.2,0.8
			c0.1,0,0.2,0.1,0.4,0.1c0.1,0.3-0.3,1-0.2,1.4c0.2,1.2,0.4,3.7,0.2,4.5c-0.1,0.9,0.3,1.5,0,2c0,0-0.1,0.1-0.1,0.1
			c-0.4-1.1-0.5-2.7-0.6-3.9c-0.1-0.4,0.3-0.6,0.1-1.1c-1.3-4.4-1.4-8.8-2.4-13.6c-0.2-0.8,0.1-1.9,0-2.6c-0.4-2.1-0.4-4-0.8-5.6
			c-0.4-1.7,0.2-3.1,0-4.4c-0.4-3-0.2-5.1-0.8-7.4c0-0.3,0.1-0.6,0.1-0.9c-0.2-1.1-0.2-2.4-0.4-3.4c-0.1-0.5,0.4-1.5,0.2-2.2
			c-0.2-1.1-0.5-2.5-0.6-3.5c-0.3-2,0.2-4-0.4-5.6c0-0.5,0.1-1.1,0.1-1.6c-0.2-0.8-0.2-2.6-0.5-3.6v-4.2c-0.1-0.3-0.3-0.6-0.2-0.9
			c0-0.2,0.4-0.7,0.2-1.1c-0.1,0-0.2-0.1-0.4-0.1c0,0,0.1-3.2,0-3.8c-0.4-2-0.3-5.4-0.9-7.1c0-0.1,0.2-1.1,0.2-1.2
			c0-0.2-0.2-0.6-0.2-0.8c-0.4-1.7,0.2-3.1,0-4.6c-0.4-2.5-0.1-7-0.8-9.9c-0.1-0.4,0.1-0.7,0.1-0.9c0.1-0.8,0-2.4-0.1-3.2
			c-0.1-0.8,0.1-1.7,0.2-2.2c0.1-0.5-0.2-3.3-0.2-3.6v-2c-0.2-1-0.1-2.7-0.4-4c-0.3-1.4,0.4-1.9-0.2-2.6c0.1-1.4,1.1-1.5,1.6-2.4
			c0.4-0.6,0.9-1.6,1.1-2.2c0.2-0.6,0.1-1.1,0.4-1.6c0.2-0.4,0.7-1,0.9-1.4v-0.8c0.2-0.7,0.6-1.6,0.8-2.2v-1c0.9-2.5,1-5.2,1.8-8
			c0.2-0.8-0.2-1.2,0-1.9c0.2-0.6,0.6-1.5,0.8-2c0.2-0.8-0.2-1.2,0-1.9c0.2-1,0.5-2.1,0.8-2.9c0.3-0.8,0-2.5,0.1-3.4
			c0-0.3,0.4-0.9,0.5-1.1c0-0.3-0.1-0.6-0.1-0.9c0.1-0.4,0.5-1.1,0.6-1.6c0.1-0.9,0.2-1.8,0.2-2.6c0.3-1,0.5-2,0.8-2.9v-1.4
			c0.2-0.7,0.4-1.8,0.5-2.6c0-0.1-0.2-0.3-0.1-0.6c0.2-1.1,0.5-2.3,0.8-3.4c0.1-0.6-0.1-1.1,0-1.4c0.1-0.3,0.5-0.7,0.6-1v-1
			c0.7-2.6,1-6.1,1.8-8.5c0.3-0.8,0-2,0.2-3.1c1.6-6.1,3.6-12.4,6.1-18c0.3-0.6,0.1-1,0.4-1.6c0.7-1.8,1.6-3.8,2.2-5.6
			c0.2-0.8,0.3-1.5,0.5-2.2c1.1-2.7,2.4-5.3,3.2-8.2c0.4-1.3,2-4.9,1.4-6.9c-0.4-1.2-1.1-2.7-2-3.4c-0.5-0.4-1.3-0.5-1.8-1
			c-0.4-0.7,0.8-2.1,1.1-2.6c0.3-0.4,0.2-0.9,0.5-1.4c0.4-0.7,1.2-1.2,1.6-1.9c0.2-0.3,0.1-0.7,0.4-1c0.4-0.5,1.1-0.7,1.5-1.1
			c0.3-0.3,0.3-0.6,0.6-0.9c0-0.8-0.1-1-0.4-1.4c-0.2,0-0.5-0.1-0.8-0.1c-2,2.2-3.6,4.8-5.2,7.2c-0.5,0.7-0.6,1.8-1.1,2.4
			c-0.4,0.4-1,0.5-1.4,0.9c-2.5-0.4-3.5-0.4-5,1.5c-0.3,0.2-0.6,0.4-0.9,0.6c-0.2,0.3-0.2,0.6-0.4,0.9c-0.4,0.5-1.2,0.8-1.6,1.4
			c-0.4,0.5-0.6,1.1-1,1.6c-0.2,0.2-0.5,0.4-0.8,0.6c-0.2,0.3-0.1,0.6-0.2,1c-0.2,0.2-0.4,0.3-0.6,0.5c-0.6,0.9-0.9,1.9-1.4,2.9
			c-0.3,0.6-0.9,1-1.2,1.5c-0.4,0.7-0.4,1.3-0.8,2c-0.2,0.3-0.7,0.7-0.9,1.1c-0.5,1.1-0.6,2.3-1.2,3.2c-0.1,0.1-0.4,0.2-0.5,0.4
			c-0.1,0.4-0.2,0.8-0.2,1.1c-0.6,1.6-1.5,3.3-2.1,5c-0.1,0.6-0.2,1.2-0.4,1.8c-2.6,6.2-4.5,14-6.4,20.4v1c-0.2,0.7-0.4,1.9-0.6,2.9
			c0,0.6-0.1,1.2-0.1,1.8c-0.9,2.8-1.4,6.3-2.1,9.2c-0.4,1.8,0.1,4.1-0.2,5.5c-1,3.6-0.6,8.5-1.4,12.2c-0.1,0.6,0,1.6,0.1,2
			c0.1,0.7-0.1,1.9-0.2,2.5c-0.1,0.4,0.2,0.7,0.1,1c-1.1,7.8-1.7,21.5,5.1,24.5c0.8,3.5,1.3,7.8,0.9,10.6c-0.2,1.1,0.3,3,0.1,3.8
			c-0.1,0.1-0.2,0.2-0.2,0.2c-0.4,1.5,0.5,2.9,0.1,4.1c-0.3,1-0.1,2,0,2.9c0.1,1-0.2,2.1,0,3.1c0.1,0.5-0.3,1.2-0.1,1.9
			c0.1,0.6-0.1,1.9,0,2.4c0.5,2.8,0,4.7,0.5,7.4c0.1,0.3-0.1,0.5-0.1,0.6c0.1,0.5,0.3,1.4,0.5,1.8c-0.3,0.9-0.1,2.4-0.1,3.5
			c0,1.8,0,4.2,0.4,5.9c0.3,1.4-0.5,2.6-0.2,3.5c0.9,3.1,0.6,6.7,1.2,9.8c0.3,1.3-0.2,1.3,0.2,2.6c-0.3,1.3-0.2,2.5,0.1,3.6
			c0.5,1.9-0.3,3.5,0.1,5.4c0.6,2.6,0.4,5.8,1.1,8.5c0,0.5-0.1,1-0.1,1.5c0.2,0.7,0.3,3.4,0.6,3.9v0.1c0,0.3-0.2,1.3-0.1,1.8
			c0.2,1,0.6,2.7,0.5,3.5c-0.1,1.6,0.4,3.4,0.6,4.6c0.1,0.5-0.1,1.2,0,1.8c0,0.1,0.3,0.5,0.4,0.6c0.1,0.5-0.1,1.2,0.1,1.9
			c0.1,0,0.2,0.1,0.2,0.1c0.1,0.3-0.1,0.6,0,1.1c0.8,2.7,0.9,5.5,1.8,7.9v1.1c0.2,0.9,0.4,2.4,0.8,3.1c-0.1,0.2-0.2,0.4-0.1,0.8
			c0.3,1.3,0.6,2.3,0.9,3.4c0.2,0.9-0.1,1.7,0.1,2.2c0.1,0.5,0.6,1.7,0.4,2.1c0,0-0.1,0.1-0.1,0.1c-0.8-2.8-1.4-6.8-2.1-9.6v-1.6
			c-0.4-1.3-0.5-3.7-1-5.5c-0.7-2.3-1.7-5-2.5-6.9c-0.3-0.6-0.4-1.5-0.5-1.9c-0.1-0.2-0.5-0.6-0.6-0.9c0-0.3-0.1-0.6-0.1-0.9
			c-0.1-0.2-0.6-0.4-0.8-0.6c-0.7-0.8-1-1.9-1.6-2.8c-0.6-0.6-1.2-1.2-1.9-1.8c-0.5-0.8-1.2-1.8-1.9-2.5c-0.1-0.2-0.5-0.2-0.6-0.4
			c-0.5-0.6-0.5-1.2-0.9-1.9c-0.4-0.6-1.1-1.1-1.4-1.8c-0.8-1.5-1.3-2.9-2.1-4.4l-1.4-1.4c0-0.1,0.1-0.2,0.1-0.4
			c-0.1,0-0.2-0.1-0.4-0.1c-0.3-0.3-0.6-0.7-0.9-1c-0.3-0.4-0.2-0.8-0.5-1.2c-0.1-0.2-0.6-0.2-0.8-0.4c-0.1-0.1-0.4-1.2-0.5-1.4
			c-0.1-0.2-0.9-0.8-1.1-1.1c-0.3-0.4-0.2-0.9-0.5-1.2c-1.5-2.2-2.8-4.3-4.1-6.8c-0.3-0.3-0.6-0.6-0.9-0.9c-0.2-0.4-0.3-0.8-0.5-1.1
			c-0.3-0.4-0.8-0.6-1.1-1c-0.3-0.4-0.3-0.8-0.6-1.2c-0.3-0.4-0.8-0.9-1.1-1.4c-0.3-0.5-0.4-1.4-0.8-1.9c-1.9-2.8-3.4-6.7-4.6-9.8
			c-0.2-0.5,0-0.9-0.2-1.5c-1.4-3.2-2.3-7.1-3.5-10.4v-0.6c-1.1-2.5-1.9-5.3-3.1-7.9c-0.3-0.7-0.1-1.3-0.4-2c-0.4-1-1.1-2.2-1.5-3.2
			c-1.1-3-2-5.8-3.2-8.6c-0.6-1.3-0.4-2.8-0.9-4.2c-0.1-0.3-0.5-0.7-0.6-1c-0.2-0.6,0-0.8-0.2-1.5c-1-2.4-1.4-4.7-2.1-7.4
			c-0.9-3.1-0.8-6.2-1.9-9.1v-1c-1.9-6.1-3.5-12.7-5.5-18.9c-1.3-4.1-1.9-8.4-3.8-11.9c-0.7,0-0.8,0.1-1.2,0.4
			c0,1.6,0.1,3.2,0.4,4.6c0.1,0.8-0.2,1.4-0.1,2c0.1,0.8,0.3,2,0.5,2.9c0,1.3,0.1,2.6,0.1,3.9c0.1,0.6,0.4,1.5,0.5,2.1
			c0.1,0.4-0.1,0.9-0.1,1.1c0.2,2.2,0.9,4.7,1.5,7c0.3,1.2,0.4,2.4,0.5,3.2c0,0.3-0.2,0.6-0.1,1c0.2,0.9,0.6,2.3,0.8,3.1
			c0,0.2-0.1,0.5-0.1,0.8c0,0.1,0.4,0.5,0.4,0.6c0,0.2-0.2,0.9-0.1,1.4c0.5,1.9,0.4,4,1,6.1c0.2,0.7-0.2,1.1,0,1.6
			c0.9,3,1.3,7,2.1,9.6c0,0.4-0.1,0.8-0.1,1.1c0.1,0.4,0.4,1.4,0.5,1.9c0,0.2-0.1,0.4-0.1,0.6c1,3.5,1.6,8.1,2.9,11.9
			c0.4,1.1,0.1,1.8,0.4,2.9c0.7,2.3,1.1,5.8,1.9,8.4c0.4,1.3,0.2,2.3,0.6,3.4c2.1,5.1,4.2,10.2,6.5,15.1c0.1,0.3,0.6,0.6,0.8,0.9
			c0.3,0.5,0.2,1,0.5,1.5c0.2,0.3,0.7,0.7,0.9,1c1.4,2.8,2.8,5.2,4.2,8c0.3,0.3,0.6,0.6,0.9,0.9c0.3,0.5,0.2,1,0.5,1.5
			c0.8,1.5,2,3,2.9,4.5c0.3,0.6,0.6,1.5,1,2c1.9,2.3,3.6,4.9,5.4,7.4c0.8,1.1,1.3,2.2,2,3.4c0.2,0.2,0.5,0.4,0.8,0.6
			c0.4,0.7,0.5,1.5,1.1,2v0.2c-0.4,0-0.8-0.1-1.2-0.1c-0.5-0.5-1.7-1.9-2.4-2c-0.1-0.4-0.2-0.5-0.2-1c-1.7-0.2-3.8-3.9-5.4-4.8v-0.6
			c-1.1-0.1-1-0.9-1.6-1.5c-1.5-1.5-3-2.8-4.1-4.6l-1.1-1.1c-0.9-1.2-1.7-2.2-2.6-3.4c-0.4-0.6-1.2-0.9-1.6-1.5
			c-0.2-0.3-0.3-0.7-0.5-1c-0.2-0.3-0.8-0.5-1-0.9c-0.3-0.5-0.3-1.2-0.8-1.6c-0.4-0.4-0.9-0.4-1.2-0.9c-0.6-0.8-1-1.8-1.8-2.5
			c-0.6-0.6-1.4-1-1.9-1.6v-0.4c-0.3-0.3-0.8-0.3-1.1-0.5c-0.4-0.3-0.6-1-1-1.4c-0.4-0.3-1.1-0.4-1.4-0.9c-0.2-0.4-0.2-0.8-0.4-1.1
			c-1.4,0.1-2.2,1.6-2.5,2.8c0.1,0.3-1.4,1.9-1.6,2.4c-0.8,1.4-1.7,2.7-2.6,4c-0.2,0.2-0.6,0.3-0.8,0.5c-0.2,0.2-0.1,0.6-0.2,0.9
			c-0.2,0.1-0.4,0.2-0.6,0.4c-0.3,0.4-0.5,1.1-0.9,1.5c-0.4,0.4-1.3,0.6-1.5,0.8c-0.2,0.1-0.2,0.7-0.6,1c-0.9,0.6-1.6,1.1-2.4,1.8
			c-0.3,0.4-0.7,0.8-1,1.2c-0.8,0.6-1.7,1.1-2.2,1.9c-0.3,0.4-0.4,0.9-0.8,1.2c-2.2,2.3-3.9,4.7-5.6,7.6c-0.2,0.1-0.3,0.2-0.5,0.4
			c-0.2,0.4-0.1,0.8-0.4,1.2c-0.2,0.2-0.4,0.3-0.6,0.5c-0.3,0.5-0.2,1.1-0.5,1.6c-0.2,0.3-0.8,0.5-1,0.8c0,0.4-0.1,0.8-0.1,1.2
			c-1,1.7-2,3.6-2.9,5.4c0,0.3-0.1,0.6-0.1,0.9c-0.2,0.5-0.8,1-1,1.5c-0.2,0.6-0.1,1.1-0.5,1.5c-0.2,0-0.3,0.1-0.5,0.1
			c0,0.3,0.1,0.6,0.1,0.9c-0.1,0.6-0.6,1.2-0.8,1.8c-0.1,0.6-0.2,1.2-0.4,1.8c-0.6,1.1-0.9,2.5-1.4,3.9v0.9
			c-1.5,4.2-2.6,9.2-4.2,13.1v0.9c-0.1,0.5-0.5,1.2-0.6,1.6v0.8c-1,2.7-1.6,5.5-2.6,8c0.3,1-1.1,6.7-1.4,7.4
			c-0.3,0.7-0.3,1.6-0.5,2.2v1.2c-0.1,0.3-0.5,0.8-0.6,1.2c-0.1,0.5,0.1,1.1-0.2,1.4c-0.5,0-1,0.1-1.5,0.1c0.2,0.4,0.9,0.3,1.5,0.2
			c-0.1,0.2-1.3,4.3-1.1,4.6c0,0.1,0.1,0.2,0.1,0.4h1.1c0.2-0.8,0.8-1,1-1.6c0.1-0.3-0.2-0.4-0.1-0.5c0.1-0.2,0.4-0.4,0.5-0.6
			c0.2-0.6,0.1-1.3,0.4-1.9c0.4-0.9,1.1-2.1,1.2-3.2c0.3,0,0.4,0,0.5-0.1h0.2v-0.2c-0.2,0-0.4-0.1-0.6-0.1c0.3-1.5,1.4-3.6,2-5
			c0.2-0.7,0.3-1.4,0.5-2.1c0.5-1.4,1.3-2.9,1.9-4.2c0.6-1.3,0.6-2.5,1.2-3.8c1.6-3.1,3.3-6.4,4.9-9.5c0-0.3,0.1-0.6,0.1-0.9
			c0.4-0.8,1.1-1.9,1.5-2.8c0.3-0.6,0.3-1.2,0.6-1.8c0.1-0.1,0.4-0.3,0.5-0.5c0.5-1.2,0.7-2.4,1.2-3.6c0.4-1.1,1.4-2.3,1.8-3.4
			c0.2-0.6,0.3-1.6,0.8-2.4c0.6-1.1,1.6-2.3,2.1-3.5v-0.8c0.2-0.4,0.8-0.7,1-1.1c0.2-0.3,0.1-0.7,0.2-1c0.6-1.1,1.5-2.4,2.1-3.5
			c0.4-0.7,0.4-1.4,0.8-2.1c0.3-0.7,1-1.4,1.4-2c0.2-0.3,0.1-0.7,0.2-1c0.3-0.6,1.2-1.1,1.6-1.6c0.5-0.5,0.8-1.2,1.2-1.8
			c0.2-0.2,0.6-0.3,0.8-0.5c0.1-0.2,0.1-0.5,0.2-0.6c1.4-1.2,2.9-2.1,4.2-3.2c0.6-0.5,0.9-1.4,1.5-1.9c2.7-2,5.2-4.8,6.4-7.9
			c0.2-0.2,0.5-0.4,0.8-0.6c0.4-0.7,0.7-1.3,1-2c0.6,0.3,2.7,3,3.1,3.6v0.4c0.1,0,0.2,0.1,0.4,0.1c0.8,1,1.3,2.2,2,3.2
			c0.1,0.1,0.4,0.1,0.5,0.2c0,0.2,0.1,0.4,0.1,0.6c0.2,0.4,1,0.8,1.2,1.1c0,0.2,0.1,0.4,0.1,0.6c0.2,0.2,0.5,0.3,0.8,0.5
			c0.6,0.8,0.9,1.6,1.5,2.4c0.5,0.7,1.4,1.2,2,1.9c0.6,0.8,2.5,3.6,3.2,3.9c-0.1,0.1-0.2,0.2-0.2,0.2c0.1,0.4,1,0.6,1.4,1.1
			c0,0.2,0.1,0.4,0.1,0.6c0.2,0.2,0.9,0.7,1,0.9c0,0.2,0.1,0.5,0.1,0.8c0.1,0,0.2,0.1,0.4,0.1c0.5,0.6,0.8,1.3,1.4,1.8
			c2.1,1.9,4.7,3.1,6.8,5c0.4,0.4,0.6,1,1,1.4c0.3,0.3,1.5,0.8,1.8,1.1c0.3,0.3,0.3,0.8,0.6,1c0.8,0.6,1.9,1.1,2.5,1.9
			c1.2,1.6,2.3,3.1,3.5,4.6c0.2,0.2,0.7,0.4,0.9,0.6c0,0.2,0.1,0.4,0.1,0.6c0.2,0.2,1,0.5,1.2,0.8c0.3,0.3,0.1,0.8,0.4,1.1
			c0.5,0.8,1.5,1.5,2,2.2c0.3,0.5,0.4,1.3,0.8,1.9c0.1,0,0.2,0.1,0.4,0.1c0.3,0.5,0.3,1.1,0.6,1.6c0.2,0.1,0.3,0.2,0.5,0.2
			c0.3,0.4,0.1,1,0.4,1.4c1.9,2.7,3.7,5.4,5.6,8.1c0.5,0.7,1.6,3.1,2.4,3.2c-0.1,0.2,0,0.1-0.1,0.2c0.2,0.3,0,0.1,0.4,0.2
			c0.6,3.8,1.9,7.6,3,10.9c0.3,0.9,0,1.5,0.4,2.2c0.1,0,0.2,0.1,0.4,0.1c0,0.2-0.1,0.5-0.1,0.8c0.1,0,0.2,0.1,0.4,0.1v0.5
			c0.1,0,0.2,0.1,0.2,0.1c0.4,0.9,0.1,1.9,0.4,2.9c0.5,1.6,1.2,3.4,1.6,4.9c0.1,0.3-0.1,0.6-0.1,0.8c0.1,1,0.8,2.9,1.1,3.9
			c0.5,1.4,0.4,2.9,0.9,4.1c0.3,0.8,0,1.5,0.1,2.1c0.4,1.3,1.1,2.9,1.6,4.1c0.1,0.8,0.2,1.6,0.4,2.4c0,0.2-0.1,0.5-0.1,0.8
			c0,0.1,0.3,0.4,0.4,0.5c0.2,0.4-0.1,0.8,0,1l0.5,0.2c0.3,0.6,0,1.8,0,2.2c0.2,0.4,0.6,1.4,0.6,1.9c0,0.1-0.3,1.2-0.4,1.5
			c-0.1,0.5,0.3,0.5,0.4,0.9c0.2,0.9-0.6,1.7,0,2.5c0.1,0.3,0.2,0.3,0.4,0.5c0.3,0,0.4,0,0.5-0.1c0.4-0.2,0.5-0.5,0.9-0.8
			c0-1,0.2-5.8-0.1-6.4c0-0.6,0-1.3,0.1-1.8c0.4,0.1,0.9,0.1,1.5,0.1c0-0.3,0-0.2-0.1-0.4c0.1-0.1,0.3-0.2,0.5-0.2v-0.5
			c-0.7,0.1-1.8,0.1-2,0.4h-0.1c0-1.4,0.1-2.6-0.1-3.6c-0.1-0.7,0.3-1.3,0-1.9c0.1-0.6,0.5-0.5,0.9-0.9h0.1v-0.2
			c-0.2,0.1-0.1,0-0.2,0.1c-0.4,0-0.5,0-0.8-0.1c-0.1-0.3,0.1-1.8,0-2.2l-0.4-0.4c-0.4-1.3,0.2-3.8,0-5.1c-0.2-1.2-0.2-3.1,0-4.4
			c0.1-0.4-0.1-1-0.1-1.2c0.1-1.3,0.1-2.7,0.2-3.6v-2.4c0.2-1,0.2-2.6,0.4-3.6v-3.1c0.2-1,0.3-2.8,0.4-3.6c0-0.4-0.2-1.1-0.1-1.2
			c0.3-1.8,0.4-4.8,0.8-6.8c0.2-1.1-0.1-2.8,0.2-4.1c0.4-1.2,0.3-2.9,0.8-4.2c0.4-1.3,0.9-3,1.2-4.4c0.1-0.5-0.1-1.2,0-1.6
			c0.7-2.5,1.3-5.7,2.2-8.5c0.1-0.4,0.5-0.8,0.6-1.2c0.7-2.4,1-5,1.5-7.4c0.3-1.3,0.4-2.6,0.8-3.9v-1c1.6-4.9,2.6-10.2,4-14.6v-1.5
			c0.1-0.4,0.4-1.1,0.6-1.4c-0.2-0.4,1-5.3,1.2-6.1c1.3-3.6,2.2-8.1,3.4-11.8c0.8-2.3,1.8-4.9,2.6-7.2c0.2-0.6,0-1,0.2-1.6
			c0.7-2.1,1.3-4.4,2.1-6.4c0-0.3,0.1-0.7,0.1-1c1-2.6,2.2-5.6,3.1-8.4c1.5-4.6,2.3-9.3,3.6-14c0.1-0.5-0.1-0.9,0-1.1
			c1-4,1.4-8.9,2.1-12.5v-1.5c0.4-1.4,0.4-2.8,0.8-3.8c-0.1-0.5,0-5.7,0.2-6.5c0.8-2.9,0.5-7.6,1.4-11.2V235c0-1.3,0.1-2.5,0.2-3.6
			c0.2-1.2-0.3-3.3-0.1-4.4c0.5-2.5,0.2-6.7,0.9-9.9c0-1.1,0.1-2.2,0.1-3.2c0.5-2.5,0-4.6,0.6-7.1c0-0.5-0.1-1-0.1-1.5
			c0.3-1.3,0.4-3.4,0.6-4.5c0.2-1,0.6-2.1,0.6-3.2h0.4c-0.3-0.9,0-1.7,0.1-2.6c0.4-2.3,0.3-4.7,0.9-7c0.1-1.1,0.2-2.2,0.2-3.4
			c1.1-3.7,0.9-7.9,2.1-11.6c0-0.2-0.1-1,0-1.5c0.7-2.7,1.5-6.8,1.4-9C432.2,159.7,432.3,157.3,432.3,155z M328.5,264.3h0.1
			c0.9,2,1.3,4.5,2.1,6.8c0,0.3,0.1,0.7,0.1,1c1.4,3,2.5,6.5,4,9.6c0.1,0.7,0.2,1.3,0.4,2c0.2,0.6,0.8,1.4,1,2
			c0.3,0.8,0.2,1.4,0.5,2.1c0.2,0.3,0.6,0.9,0.8,1.2c0.1,0.3-0.2,0.5-0.1,0.6c0.2,0.6,0.5,1.2,0.8,1.9c0.1,0.2,0.5,0.6,0.6,0.8
			c0,0.2-0.1,0.4-0.1,0.6c0.1,0.5,0.6,1.1,0.8,1.5c0.4,1.1,0.3,2.1,0.8,3.1c1.3,3.1,1.8,6.4,3,9.4c0.6,1.5,2,3.3,1.9,4.9h0.4
			c1.2,2.4,2.3,4.9,3.8,7.1c0.2,0.1,0.3,0.2,0.5,0.2c0.3,0.4,0.3,0.8,0.6,1.2c0.3,0.3,0.7,0.6,1,0.9c0.2,0.4,0.3,0.8,0.5,1.1
			c0.2,0.2,0.4,0.3,0.6,0.5c0,0.2,0.1,0.4,0.1,0.6c0.4,0.7,1.1,1.3,1.5,2v0.5c0.1,0,0.2,0.1,0.4,0.1c0.3,0.4,0.2,0.9,0.5,1.2
			c0.2,0.1,0.3,0.2,0.5,0.4c0.4,0.7,0.4,1.2,0.8,1.8c0.5,0.7,1.3,1.4,1.5,2.4h0.4c0.5,1.7,2,2.7,2.9,4c0.3,0.4,0.2,0.9,0.5,1.2
			c0.3,0.5,0.9,0.9,1.2,1.4c0.6,0.8,1,1.8,1.5,2.6c0.3,0.5,0.2,1,0.5,1.5c0.1,0.1,0.4,0.2,0.5,0.2c0,0.2,0.1,0.4,0.1,0.6
			c0.3,0.5,1,0.9,1.2,1.4c0.1,0.1-0.3,0.3-0.1,0.5c0.2,0.3,1,0.7,1.2,1c0.5,0.5,0.7,1.3,1.1,1.9c0.4,0.5,1.2,0.8,1.6,1.4
			c0.6,0.8,0.9,1.5,1.5,2.2c0.2,0.3,0.8,0.6,1,0.9c0,0.3,0.1,0.6,0.1,0.9c0.5,0.8,1.2,2,1.6,2.9c0.2,0.6,0,0.9,0.2,1.5
			c0.1,0.2,0.4,0.5,0.5,0.8v0.8c1.2,2.4,1.6,5.7,2.2,8c0.3,1.2,0.1,2.6,0.4,3.5c0.3,0.7,0.7,2.2,0.9,2.9c0.1,0.3-0.2,0.7-0.1,1
			c0,0.1,0.3,0.4,0.4,0.5v1.2c0,0.1,0.3,0.4,0.4,0.5c0.3,0.6,0.1,1.5,0.4,2v0.1c-0.2-0.2-0.2-0.2-0.5-0.4c0.2-1.2-0.3-2-0.8-2.9
			c-0.3-0.7-0.2-1.4-0.5-2.1l-0.6-0.6c-0.3-0.6-0.1-1-0.4-1.9c-0.1-0.2-0.4-0.5-0.5-0.8c0-0.1,0.1-0.2,0.1-0.4
			c-0.1-0.3-0.6-0.6-0.8-0.9c0-0.3-0.1-0.6-0.1-0.9c-0.1-0.1-0.4-0.3-0.5-0.4c-0.3-0.4-0.1-1.2-0.5-1.8c-0.1-0.1-0.4-0.1-0.5-0.2
			l0.1-0.2c-0.1-0.8-0.5-0.8-0.8-1.4c0-0.3-0.1-0.6-0.1-0.9c-0.6-1-1.4-2.2-1.9-3.2c-0.2-0.5-0.3-1-0.5-1.5
			c-0.2-0.1-0.3-0.2-0.5-0.4c-0.1-0.4-0.2-0.8-0.2-1.1c-0.3-0.4-1-0.6-1.2-1c0-0.2-0.1-0.4-0.1-0.6l-1.1-1.1c0-0.2-0.1-0.4-0.1-0.6
			c-0.1,0-0.2-0.1-0.4-0.1v-0.5c-0.2-0.1-0.3-0.2-0.5-0.2c-0.5-0.7-0.7-1.6-1.2-2.4c-0.5-0.8-1.6-1.4-2.1-2.1
			c-0.6-0.9-0.9-1.7-1.5-2.6c-0.2-0.3-0.7-0.5-0.9-0.9c-0.3-0.6-0.3-1.1-0.6-1.6L360,343c-0.3-0.6-0.3-1.4-0.6-2
			c-1.1-1.7-2.4-3.3-3-4.9c-0.1-0.4-0.8-0.8-1-1.1c-0.6-1-0.9-2.6-1.6-3.5c-0.7-0.9-1.7-2-2.2-3c-0.4-0.6-0.3-1.2-0.6-1.9
			c-0.4-1-1.2-2.1-1.6-3.1c0-0.2-0.1-0.5-0.1-0.8c-3.2-4.3-5.5-9.6-8.1-14.5c-0.4-0.7-0.4-1.4-0.6-2.2c-0.5-1.5-1.2-3-1.8-4.4V301
			c-0.5-1.2-1.4-2.5-1.9-3.8c-0.4-0.9-0.3-1.7-0.8-2.6c-0.5-1.1-1.2-2.2-1.2-3.4l-0.5-0.5c0-0.1,0.1-0.2,0.1-0.4
			c-0.1-0.7-0.7-1.7-0.9-2.5v-1c-1.2-3.6-2.4-8.7-3.5-12.5c0-0.6-0.1-1.2-0.1-1.9c-0.4-1.8-0.6-3.8-1-5.2c-0.3-0.9,0.1-1.9-0.4-2.6
			V264.3z M328.3,263.3c0.1,0.2,0.1,0.2,0,0.4V263.3z M327.6,260.2c-0.1,0.2,0,0.1-0.1,0.2C327.6,260.3,327.5,260.3,327.6,260.2z
			 M324.6,246c-0.1,0.4-0.1,0.4-0.2,0.6v0.1h-0.1c0-0.5,0-1.1-0.2-1.4v-0.2h0.1C324.2,245.4,324.4,245.8,324.6,246z M325.1,248.5
			v0.1c-0.1,0-0.2-0.1-0.2-0.1c-0.1-0.4-0.2-0.8-0.4-1V247h0.1C324.8,247.5,325,248,325.1,248.5z M317.8,222.8
			c0-0.1,0.1-0.2,0.1-0.2h-0.1v-0.4h0.1l0.1,0.1C318,222.9,318.1,222.8,317.8,222.8z M318.5,226.6c-0.2-0.7-0.1-1.6-0.5-2.1v-0.1
			c0.1-0.2,0.2-0.1,0-0.2v-1h0.1c0.7,1.6,0.7,3.3,1.2,5.1c0.1,0.3,0.5,0.5,0.6,0.8c0.1,0.3,0,1.6,0.2,2.2c0.9,2.7,1.5,6.3,2.5,8.6
			c0.5,1.2,0.5,3.8,1.2,4.6v0.2h-0.2c-1.5-4.1-2.8-7.9-3.9-11.8v-1c-0.2-0.8-0.5-1.8-0.8-2.6c0-0.4,0.1-0.8,0.1-1.1
			C319.1,227.8,318.7,227.1,318.5,226.6z M318.9,235.5v-0.4C319,235.3,319,235.3,318.9,235.5z M355.4,346.2c0.3,0,0.5,0,0.6-0.1
			c0.9,0.3,2.2,3.2,2.8,4.1c0.9,1.4,2,2.7,3.1,4c0.4,0.4,0.3,1.2,0.6,1.6c0.4,0.6,1.1,1.1,1.5,1.6c0,0.3,0.1,0.6,0.1,0.9
			c0.2,0.2,1.3,1.5,1.5,1.6v0.8h-0.1c-0.3-0.8-1.3-1.6-1.9-2.2c-0.6-0.8-0.9-1.7-1.4-2.6c-0.5-1-1.6-1.9-2.1-2.9
			c0-0.1,0.1-0.2,0.1-0.4c-0.3-0.5-1.1-1-1.4-1.5c-0.4-0.7-0.4-1.2-0.8-1.9c-0.2-0.3-2.5-2.6-2.8-2.8V346.2z M291,369.7
			c0.2-1.5,0.9-3.8,1.5-5.2c0.1-0.7,0.2-1.3,0.2-2c0.4-1.4,1.1-3.2,1.6-4.5c0-0.4,0.1-0.8,0.1-1.1c1-2.7,2.4-5.5,3.9-7.9
			c0.4-0.7,0.8-1.7,1.1-2.4c0-0.3,0.1-0.6,0.1-0.9c0.2-0.4,1-1.1,1.2-1.5c0.5-0.7,0.5-1.5,1-2.2c0.7-1.1,1.4-2.2,2.1-3.4l1-1
			c1.6-2.6,3.7-5.2,6.1-7c0.7-0.5,1.2-1.4,1.9-2c1.3-1.1,3.1-1.9,4.1-3.2c2.5-3.3,4.8-6.8,7.2-10.1c0.6,0.3,1.1,0.8,1.6,1.1
			c-0.2,1-1.6,2.2-2.2,2.9l-0.4,1.1c-0.4,0.3-0.8,0.7-1.1,1c-0.6,0.8-1,1.6-1.6,2.4c-0.6,0.5-1.2,1.1-1.8,1.6
			c-0.1,0.1-0.1,0.4-0.2,0.5c-0.2,0.2-0.6,0.2-0.8,0.4c-0.2,0.2-0.1,0.5-0.2,0.8c-0.4,0.5-1,1-1.4,1.5c-0.2,0.3-0.2,0.7-0.4,1
			c-0.4,0.7-1.2,1-1.8,1.5c-0.2,0.2-0.3,0.6-0.5,0.9c-0.7,0.7-1.6,1.3-2.1,2.1l-0.1,0.5c-0.2,0.2-0.7,0.3-0.9,0.6
			c-0.2,0.3-0.1,0.6-0.2,0.9c-0.4,0.7-1.1,1.4-1.6,2.1c-0.3,0.4-0.9,0.7-1.2,1.1c-0.9,1.2-1.3,2.6-2.1,3.9c-0.2,0.1-0.4,0.2-0.6,0.4
			c-0.3,0.3-0.3,0.7-0.5,1.1c-0.3,0.3-0.7,0.6-1,0.9c-0.2,0.5-0.3,1.1-0.5,1.6c-0.1,0-0.2,0.1-0.4,0.1l0.1,0.5
			c-0.3,0.7-1.4,1.9-1.9,2.6c-0.4,0.6-0.3,1.3-0.6,1.9c-0.7,1.1-2,2.7-2.5,3.9c-0.4,1.1-0.5,2-1,3c-0.3,0.8-1,1.5-1.4,2.2
			c-1.2,2.4-2.1,4.7-3.1,7.2c-0.5,1.2-1.2,1.7-1.2,3.2c-0.1,0-0.2,0.1-0.4,0.1C290.4,371,290.9,370.7,291,369.7z M327,321.5
			c-0.4,0.8-1.6,1.3-1.9,2.6c-0.3,0-0.5,0-0.6,0.1h-0.1c0.1,0.1,0.1,0.1,0.4,0.1c-0.2,0.7-0.8,1.1-1.1,1.6c-0.3,0.4-0.1,0.8-0.4,1.2
			c-0.2,0.3-0.7,0.5-0.9,0.8c-0.3,0.3-0.2,0.8-0.5,1.1c-0.1,0.1-0.4,0.1-0.5,0.2c-2.2,3.5-5.2,6.1-8.5,8.6c-1,0.8-1.6,2.1-2.5,3
			c-0.9,0.9-2,1.6-2.8,2.6c-0.1,0.4-0.2,0.8-0.4,1.2c-0.4,0.6-1.1,1.4-1.4,2c-0.3,0.5-0.1,1.1-0.4,1.5c-3.6,5.4-6,11.7-9,17.8
			c-0.4,0.9-0.5,1.7-0.9,2.6c-0.4,1-1.1,2.1-1.6,3.1c-0.3,0.6-0.4,1.6-0.9,2c-0.2,0.2-0.3,0-0.5,0.2c-0.2,0.1,0.1,0.3,0.2,0.5
			c-1.2,1.2-1.5,3.1-2.4,4.6c-0.2,0.3-0.6,0.7-0.8,1v0.9c-0.1,0.3-0.6,0.7-0.8,1c-0.5,1-0.5,1.7-1,2.6c-0.2,0.1-0.3,0.2-0.5,0.4
			c0,0.5-0.1,0.9-0.1,1.4c-0.1,0.3-0.5,0.3-0.6,0.5c-0.1,0.2,0.1,0.4,0.1,0.5c-0.1,0.2-0.4,0.4-0.5,0.6v0.6
			c-0.1,0.3-0.5,0.9-0.6,1.1v0.8l-0.6,0.6c0,0.2,0.1,0.4,0.1,0.6c-0.1,0.3-0.5,0.7-0.6,1c-0.4,0.9-0.3,2.1-0.9,2.8v0.1h-0.1
			c0.3-1.4,0.6-2.9,1-3.9c-0.1-0.4,0.2-2.2,0.4-2.6c0.1-0.4,0.6-1,0.8-1.4c0.4-1.1,0.2-2.1,0.6-3.1c0.1-0.3,0.6-0.8,0.8-1.1
			c0.3-0.7,0.2-1.2,0.5-1.9c0.4-0.8,1.2-1.7,1.5-2.5c0.4-1.1,0.5-2.1,1-3.1c0.4-0.9,1.2-2,1.5-2.9c0.8-2.1,1.3-4.2,2.2-6.1
			c2.7-5.2,5.5-10.7,8-16.1c0.3-0.7,1.1-1.5,1.5-2.1c0.3-0.4,0.2-0.9,0.5-1.2c0.3-0.2,0.6-0.3,0.9-0.5c0-0.1,0.1-0.9,0.2-1.2
			c0.4-0.7,1.1-1.3,1.5-1.9c0.3-0.4,0.1-0.8,0.4-1.2c0.2-0.4,0.8-0.8,1-1.1c0.2-0.4,0.5-1.4,0.8-1.6c0.1-0.2,0.6-0.2,0.8-0.4v-0.5
			c0.1-0.2,0.6-0.2,0.8-0.4c0.4-0.4,0.4-1.1,0.8-1.5c0.5-0.5,1.1-0.8,1.4-1.8h0.4v-0.4c0.6-0.5,1-1.1,1.5-1.8c0,0,1.5-1.3,1.5-1.4
			h0.4c0.2-0.1,0-0.4,0.1-0.6c0.5-0.8,1.2-1.4,1.8-2.2c0.1-0.1,0.4-0.1,0.5-0.2c0.3-0.4,0.2-0.8,0.5-1.1c0.7-0.7,1.4-1.5,2.1-2.2
			c0.2-0.2,0.6-0.2,0.8-0.5c0.2-0.4,0.1-0.6,0.4-1c0.3-0.5,1-0.7,1.4-1.1c0.2-0.2,0.1-0.6,0.2-0.9c0.2-0.3,0.8-0.6,1-0.9
			c0.5-0.7,0.7-1.7,1.2-2.4c0.2-0.3,0.7-0.5,1-1c0.8,0.1,0.9,0.5,1.4,0.9v0.4h0.4c0.1,0.2,0.2,0.4,0.4,0.5c-0.5,0.5-1.3,0.7-1.9,1.1
			C326.9,320.8,327.2,321.1,327,321.5z M377.8,384c-1.5-0.9-2.3-3.2-3.2-4.8c-0.4-0.6-1.4-1.5-1.9-2.1c-1.1-1.5-1.8-3.1-2.6-4.9
			c-0.3-0.3-0.6-0.6-0.9-0.9c-0.4-0.7-0.5-1.7-1-2.4c-1.9-3-4.3-5.8-6.8-8.2c-0.4-0.4-0.6-1.1-1-1.6c-1-1.3-2.4-2.1-3.6-3.1
			c-0.5-0.4-0.6-0.9-1.1-1.2c0.2-0.1,0.3-0.1,0.6-0.1v-0.2c-1.3-0.5-2-1-3-1.8c-0.4-0.3-0.7-0.9-1.1-1.2c-0.5-0.3-1-0.4-1.5-0.8
			c-0.3-0.2-0.5-0.7-0.8-0.9c-0.8-0.6-2.2-1-2.1-2.1c-0.2,0-0.4,0.1-0.6,0.1c-0.6-0.9-1.6-1.4-2.2-2.2c-0.3-0.4-0.2-0.9-0.5-1.4
			c-0.2-0.2-0.5-0.4-0.8-0.6c-0.6-0.9-1.2-1.8-1.9-2.6c-0.5-0.5-1.2-0.9-1.6-1.4c-0.7-0.8-1.2-1.8-2-2.5c0.1-0.4,0.3-0.5,0.5-0.8
			h-0.1c-0.3-0.1-0.4,0.1-0.8,0.2c-0.9-1.3-2.1-2.4-3-3.6c-1.1-1.5-1.7-2.8-3-4c0.1-0.1-0.5-1.3-0.8-1.6c-0.2-0.2-0.4-0.3-0.6-0.5
			c-0.8-1.2-1.5-2.6-2.6-3.4c0.1-0.7,1.7-2.3,2.2-2.5c0,0,0.1-0.1,0.1-0.1v0.1c0.1,0,3.2,3.2,3.2,3.4v0.6c0,0.1,0.8,1,0.9,1.1
			c0.4,0.4,1.1,0.8,1.5,1.2c1,1.3,1.9,2.6,3,3.9c0.3,0.4,0.9,0.6,1.1,1c0.5,0.7,0.8,1.4,1.4,2.1c0.5,0.6,1.4,1.1,1.9,1.8
			c0.6,0.8,1.3,1.3,1.9,2c0.4,0.5,0.6,1.3,1.1,1.6h0.4c0.4,0.4,0.6,1.1,1,1.5c0.4,0.2,0.8,0.4,1.1,0.6c0.1,0.2,0.2,0.5,0.2,0.8
			c0.2,0.2,0.6,0.1,0.8,0.2c0.4,0.5,0.1,0.8,0.9,1v0.4c1.1,0.2,3,2.7,3.8,3.5c0.2,0.2,0.7,0.3,0.9,0.5c0.3,0.4,0.4,0.9,0.8,1.2
			c0.2,0,0.3,0.1,0.5,0.1c0.2,0.2,0.3,1,0.5,1.2l1.1,1.1v0.8c0.3,0.3,0.6,0.6,0.9,0.9c0.1,0.3,0.2,0.6,0.2,0.9
			c0.2,0.2,0.5,0.4,0.8,0.6c0.3,0.5,0.4,1,0.8,1.5c0.3,0.4,0.9,0.9,1.2,1.5c0.2,0.3,0.1,0.7,0.2,1c0.3,0.5,2.8,3.5,3.2,3.8v0.4h0.5
			c0.5,1.2,1.4,2,2.1,3c0.3,0.4,0.3,0.9,0.6,1.4c0.2,0.2,0.5,0.4,0.8,0.6c0.3,0.4,0.3,1.1,0.6,1.5c0.7,0.7,1.4,1.6,2,2.4v0.4
			c0.2,0.2,0.6,0.2,0.8,0.4c0.7,0.8,1,2.6,2,3.1c-0.1,0.1-0.2,0.2-0.2,0.2c0.2,0.3,0.3,0.2,0.5,0.4c0.4,0.5,0.3,1.2,0.5,1.8
			c0.1,0.2,0.5,0.3,0.5,0.4c0,0.2-0.1,0.4-0.1,0.6c0.2,0.5,0.8,1.3,1,1.9v0.8c0.1,0.5,0.6,1.6,0.9,2V384z M365.8,361v-0.1
			c0.3,0.3,0.6,0.6,0.9,0.9v0.2C366.3,361.7,366.1,361.2,365.8,361z M381.4,388.2c-0.9-0.5-0.9-2.2-1.4-3.1c-0.2-0.5-0.7-1.3-1-2
			c-0.1-0.2,0.1-0.9,0.1-0.9c-0.1,0-0.2-0.1-0.4-0.1c-0.3-0.4-0.2-0.9-0.4-1.4c0-0.1-0.4-0.2-0.4-0.2c-0.2-0.3,0.2-1,0.1-1.2
			c-0.2-0.5-0.4-1.5-0.6-2.1c-0.3-0.7-1.1-1.2-1.5-1.9c-0.6-1.1-0.6-2.5-1.2-3.6c-0.2-0.1-0.3-0.2-0.5-0.4c-0.7-1.3-1.1-2.6-2-3.8
			c-0.2-0.1-0.3-0.2-0.5-0.2c-0.2-0.3-0.1-0.6-0.2-0.9c-0.3-0.4-0.9-0.8-1.1-1.2c0-0.2-0.1-0.5-0.1-0.8c-0.2-0.2-0.4-0.3-0.6-0.5
			v-0.5c-0.3-0.5-1.1-1.2-1.5-1.6c-0.1-0.3-0.2-0.6-0.2-0.9c-0.5-0.9-1.4-1.8-1.9-2.6c-0.3-0.5-0.3-1-0.6-1.5
			c-0.2-0.2-0.5-0.4-0.8-0.6c-0.3-0.5-0.3-1-0.6-1.5c-0.1-0.2-0.5-0.2-0.6-0.4c-0.1-0.3-0.2-0.7-0.4-1c-0.2-0.1-0.3-0.2-0.5-0.2
			c-0.5-0.6-0.6-1.5-1.1-2.1c-0.2-0.2-0.7-0.3-0.9-0.6c-0.3-0.4-0.1-0.8-0.4-1.2c-0.4-0.8-1.4-1.4-1.8-2.1c-1.3-2.5-2.8-5.1-4.4-7.4
			c-0.2-0.1-0.3-0.2-0.5-0.2c-0.4-0.6-0.5-1.6-1.1-2c-0.2,0-0.4-0.1-0.6-0.1c0.3-0.1-0.8-1.9-1-2.2c-1.5-2.3-3-4.3-4.5-6.9
			c-0.6-1.1-1.5-2.3-2.2-3.4c-0.2-0.3-0.4-1.3-0.6-1.6c-0.1,0-0.2-0.1-0.4-0.1v-0.6c-0.1,0-0.2-0.1-0.4-0.1c-0.2-0.3-0.5-0.8-0.6-1
			c-0.2-0.4-0.1-0.8-0.4-1.2c-0.5-1-1.6-2.1-2.1-3.1c-0.2-0.5-0.1-0.8-0.4-1.2c-0.2-0.1-0.3-0.2-0.5-0.4c-0.4-0.6-0.4-1.1-0.8-1.8
			l-0.6-0.6c-2.7-5.1-4.9-10.7-7.1-16.2c0-0.5-0.1-0.9-0.1-1.4c-0.4-1.2-0.9-3-1.2-4.4c0-0.6-0.1-1.2-0.1-1.8
			c-0.6-1.9-0.8-4.6-1.2-6.4c-0.4-1.6-1-3.5-1.4-5.1c0-0.3,0.1-0.6,0.1-0.9c-0.2-0.8-0.8-1.9-1-2.8c-0.3-1.2,0-2.3-0.5-3.6
			c0-0.1-0.3-0.6-0.4-0.8c0-0.3,0.1-0.6,0.1-0.9c-0.5-1.3-0.2-2.4-0.6-3.9c-0.3-1.1-0.6-2-0.9-3.2c0-0.2,0.1-0.5,0.1-0.8
			c-0.2-0.8-0.9-2.3-0.9-3.2c0-1.9-0.3-4.3-0.8-6.1v-1.1c-0.5-1.2-0.3-2.8-0.6-4.2c-0.1-0.5-0.5-1.6-0.5-2.1c0-0.2,0.2-0.4,0.1-0.8
			l-0.2-0.2v-1.6c-0.5-1.5-1-3.5-1-5.4h0.1c0.8,4,2.8,8.8,4.1,12.4c0,0.5,0.1,0.9,0.1,1.4c0.2,0.4,0.6,1.1,0.8,1.6
			c0,0.6,0.1,1.2,0.1,1.8c0.7,1.7,1,4,1.5,5.8v1.2c0.2,0.8,0.7,1.8,0.9,2.5v1.6c0.4,1.2,0.7,3,1,4.2c0,0.3-0.1,0.6-0.1,0.9
			c0.1,0.7,0.2,2.1,0.5,2.9c0,0.1,0.4,0.4,0.4,0.5c0,1.2-0.2,2.2,0.2,3.5c0.5,1.6,0.8,3.1,1.5,4.5c0.2,0.5,0.1,1.3,0.2,1.9
			c0.3,1,0.7,2.5,1.1,3.4c-0.1,0.2-0.3,0.2-0.2,0.5c2.1,6,4.1,13.1,6.9,18.1c0.2,0.3,0,0.7,0.1,1.1c0.1,0.4,0.5,0.9,0.6,1.2
			c0.3,0.8,0.2,1.3,0.5,2c0.1,0.3,0.5,0.5,0.6,0.8c0.8,1.6,1.3,3.1,2.2,4.5c0.3,0.4,0,0.9,0.2,1.4c0.2,0.3,0.7,0.7,0.9,1
			c0.5,0.9,1.2,2.9,2,3.4c-0.1,0.3,0,0.2-0.2,0.4c0.2,0.3,0.3,0.3,0.8,0.4c0.2,1.5,1.4,2,1.9,3.1v0.6c0.1,0.2,0.4,0.4,0.5,0.6v0.6
			c0.5,0.9,1.1,1.6,1.5,2.5v0.6c0.6,1.3,1.9,2.6,2.6,3.9c0.4,0.7,0.4,1.2,0.8,2c0.2,0.2,0.4,0.3,0.6,0.5l0.4,1.1
			c0.2,0.3,0.8,0.7,1,1c0.1,0.4,0.2,0.8,0.2,1.1c0.4,0.7,1.1,1.2,1.5,1.9c0.4,0.7,0.7,1.8,1.1,2.4c0.1,0.1,0.4,0.1,0.5,0.2v0.6
			c0.2,0.5,0.7,0.9,0.9,1.2c0,0.1-0.1,0.2-0.1,0.4c0.1,0.2,0.3,0.7,0.5,1c0.2,0.3,0.7,0.6,0.9,0.9c0.2,0.3,0.1,0.6,0.2,0.9
			c0.3,0.3,0.6,0.6,0.9,0.9c0.4,0.6,0.5,1.3,1,1.8c0.2,0,0.3,0.1,0.5,0.1c0.3,0.3,0.3,1,0.6,1.4c0.2,0.2,1,0.9,1.2,1.1
			c0,0.2,0.1,0.4,0.1,0.6c0.3,0.4,0.9,0.8,1.1,1.2c0.3,0.5,0.2,0.8,0.5,1.2c0.5,0.7,1.4,1.4,1.9,2.1c0.3,0.4,0.2,0.9,0.5,1.2
			c0.2,0.1,0.4,0.2,0.6,0.4c0.6,0.9,0.7,2.4,1.2,3.4c0.6,1.1,2,2.4,2,4h0.4c0.4,1.4,1.1,2.5,1.6,3.6c0.6,1.1,0.4,2.5,1,3.6
			c0.5,1,1.3,2,1.8,3c0.1,0.5,0.2,1,0.2,1.5c0.5,1.3,1.2,2.9,1.9,4.1c0.6,1.1,0.8,4,1.2,4.5V388.2z M381.6,227.1
			c0.1-0.2,0-0.1,0.1-0.2C381.7,227.1,381.7,227,381.6,227.1z M384.8,209.2c-0.3,0.2,0,0.1-0.4,0.1c0.1-0.3,0.1-0.2,0.2-0.4h0.1
			V209.2z M372.9,255.7c-0.9-0.1-2.7-1.3-3.1-1.9c-0.4-0.6-0.3-1.2-0.6-1.9l-0.8-0.8c-0.1-0.3-0.6-2.1-0.6-2.4
			c0-0.2,0.1-0.3,0.1-0.5c-1.3-3.7-1.2-10-0.4-14.9c0.1-0.6-0.2-1.3,0-2.1c0.3-1.3-0.2-4.4,0.4-6.9v-1.4c0.6-1.8,0.5-5.9,1-8.2
			c0-0.3-0.1-0.7-0.1-1c0.1-0.1,0.2-0.2,0.2-0.2v-1.8l0.4-0.4c0.1-0.3-0.2-0.2-0.2-0.4V211c0,0,0.2-2.7,0.2-2.8l0.4-0.4
			c0.3-0.9,0-2.2,0.2-3.1c0.7-2.3,1.4-5.2,1.9-7.9c0.1-0.7-0.1-1.7,0.2-2.6c0.6-1.8,1.2-4,1.6-5.5c0.2-0.7,0-1.1,0.2-1.8
			c0.6-2.1,1.6-4.5,2.4-6.5c0.3-0.9,0.2-1.4,0.5-2.4c1.1-3.7,2.5-7.9,4.2-11.1c0.4-0.7,0.3-1.3,0.6-2c0.2-0.4,0.7-0.7,0.9-1.1
			c1.2-2.4,2.2-4.5,3.6-6.6c0.2-0.3,0.1-0.7,0.2-1l0.8-0.8c0.4-0.6,0.5-1.3,1-1.9c0.6-0.8,1.7-1.4,2.2-2.2c1.5-2.4,2.6-3.5,5.9-3.1
			c-0.2,0.8-1.8,4.3-2.2,4.8c0.1,0.6,0.4,0.7,0.6,1.1c0.7-0.1,1-0.4,1.4-0.8c0.5-0.6,0.4-1.5,0.8-2.4c0.3-0.9,1.2-1.2,1.2-2.5
			c3.1,0.5,4.2,5.7,2,8c-0.1,0.1-0.7,0-1,0.1h-0.2c0,0.9,0.2,1.2,1,1.2c-0.2,0.7-0.7,1.3-0.9,2.1c-0.3-0.1-0.1-0.1-0.4,0
			c-0.5,0-0.6,0.1-0.9,0.2c0,0.9,0.2,1.2,0.5,1.8c-0.5,0.2-1.1,0.3-1.5,0.5c0,0.9,0.2,1.1,0.8,1.4c0,0.4-0.1,0.5-0.2,0.8v0.2
			c-0.4-0.2-0.9-0.5-1.2-0.2h-0.2c0,0.9,0.2,1.4,0.8,1.8c0,1.5-1.1,1.3-2,1.8c0.1,1.3,1.3,1.8,0.6,2.8c-0.2,0.4-0.3,0-0.8,0.2
			c-0.4,0.3-0.6,1-1,1.4c0,1.1,0.6,1.6,0.2,2.8c-0.2,0.6-1.1,0.8-1.2,1.5c-0.2,1.1,0.6,1.1-0.4,2c-0.7,0.5-1.4,0.2-2.2,0.5
			c-0.1,0.2,0,0.1-0.1,0.2c0,0.7,0.2,0.9,0.8,1c0.3,0.1,0.2,0.1,0.4-0.2c0.5,0.1,0.5,0.2,0.8,0.5c-0.3,0.1-1.2-0.1-1.4,0
			c-0.1,0-0.2,0.1-0.4,0.1c0,0.4,0,0.8,0.1,1.1c0.3,0.1,0.7,0.1,0.8,0.1h0.2c-0.2,1-0.9,3.3-1.4,4v0.1h-0.1c0-0.3,0-0.2,0.1-0.4
			c-0.1-0.5-0.1-0.5-0.2-0.9c-0.3,0-0.4,0-0.5,0.1c-0.5,0.2-0.8,1.6-0.5,2.1c0.3,0.1,0.5,0.2,0.8,0h0.2c-0.1,1.2-0.9,0.9-1.1,1.6
			c-0.3,0.8,0.5,1,0.2,1.9c-0.4,1.3-0.7,2.3-1,3.6c-0.6-0.2-0.4-0.4-0.6-0.8c-0.1-0.1-0.3-0.2-0.4-0.2c-0.6,0.1-0.5,0.2-0.9,0.5
			c0.1,0.4,0.1,0.4,0.2,0.8c0.4,0.1,0.5,0.2,1,0.2c0.1,0.9,0.4,0.9,0.2,1.9c-1-0.2-1.4,0.2-2.6,0.2c-0.1,0.2,0,0.1-0.1,0.2
			c0,0.7,0,0.8,0.5,1c0.3,0.1,0.7-0.1,0.9-0.5c0.3,0.2,0.7,0.3,1,0.5c0.2,0.3,0.1,1.3-0.2,1.8c-0.2,0.3-0.7,0.4-1.1,0.5
			c0.1,0.7,0.4,1,0.9,1.2c0,0.5-0.1,1-0.1,1.5c-0.6,0.2-0.9,0.1-1.4,0.4c0,0.3-0.1,0.6-0.1,0.9c0.5,0.1,0.7,0.2,1,0.5
			c0.3,0.3-0.6,2.2-0.6,3.1c-0.2-0.1-0.3-0.1-0.4-0.2c-0.9,0-0.9,0.1-1.4,0.5c0,0.6-0.1,1.2,0.1,1.6c0.1,0.6,0.2,0.5,0.4,0.9
			c0.3,0,0.4,0,0.5-0.1c0.3,0.4,0.3,1.5-0.1,1.9v0.2c-0.2-0.2-0.3-0.3-0.5-0.5c-0.8,0-1,0.1-1.4,0.4c0.1,1,0.9,2,1.6,2.4
			c0,1-0.1,2.7-0.6,3.4c-0.2,0.1-0.2,0-0.4,0.1c-0.4,0.1-0.4,0.3-0.6,0.5c0,0.4,0,0.5,0.2,0.8v0.2h0.4c0,0.5,0.1,1.2-0.1,1.5v0.2
			c-0.3-0.1-0.3-0.1-0.5-0.2c-0.4,0.1-0.4,0.1-0.8,0.2c-0.1,0.3-0.1,0.5-0.2,0.6c0.1,0.8,0.5,0.8,1,1.2c0.2,0.5-0.4,2.2-0.2,2.9
			h-0.1c-0.3,0.1-0.4,0-0.6-0.2h-0.9c-0.1,0.2,0,0.1-0.1,0.2c0,1,0.3,0.8,0.8,1.2c0.5-0.1,0.4-0.1,0.6-0.5h0.1
			c-0.1,0.5-0.1,1.5-0.4,1.9v1c-0.2-0.1-0.1,0-0.2-0.1c-0.7,0-0.7,0.1-1.1,0.4c0,1,0.2,1.2,1,1.4c-0.1,0.7-0.2,1.4-0.2,2.1
			c-0.2,0-0.5-0.1-0.8-0.1c-0.7,0.7-1.2,1.6-1.9,2.2c0.1,0.6,0.2,0.5,0.5,0.9c0.6-0.1,0.9-0.9,1-1.5c0.2-0.1,0.1,0,0.2-0.1h0.6
			c-0.2,0.7-0.1,1.6-0.5,2.1v1c-0.3-0.1-0.6-0.1-1-0.1c-0.1,0.4-0.1,0.4-0.2,0.6c0.2,0.6,0.6,0.5,0.9,1c0.1,0.3,0,1.8-0.4,2.2
			c0,0-1,0.5-1.2,0.6c0.1,0.3,0.1,0.5,0.2,0.6c0.2,0.3,0.4,0.3,0.6,0.5c0.1,0.2-0.1,2.1-0.5,2.5c-0.1,0.1-0.4-0.1-0.6-0.2
			c-0.6,0.1-0.5,0.2-0.9,0.4c0,0.6,0.1,0.8,0.5,1c-0.1,0.1-0.3,0.2-0.5,0.2c0.1,0.8,0.4,0.9,0.8,1.4c0.2,0.1-0.4,1-0.5,1.4
			c-0.3-0.1-0.5-0.2-0.8,0c-0.1,0-0.2,0.1-0.4,0.1c0,0.8,0.1,1.1,0.5,1.4c-0.2,0.5-0.5,0.8-0.6,1.2h-0.2c0-0.3,0-0.4,0.1-0.5
			c-0.1-0.4-0.1-0.4-0.2-0.6c-0.6,0.1-0.8,0.5-1.4,0.6c0,0.3,0,0.2-0.1,0.4c0,0.9,0.3,1.2,1.1,1.2v0.1
			C374.6,254.8,373.3,255.4,372.9,255.7z M381.5,388.8c0.1-0.2,0-0.1,0.1-0.2C381.6,388.8,381.6,388.7,381.5,388.8z M381.6,381v-0.5
			h0.2C381.8,380.8,381.8,380.8,381.6,381z M381.4,369.7c-0.1-0.4,0.3-1.5,0-2.1c-1-2.5-1.2-5.2-1.9-7.8c0-0.6-0.1-1.2-0.1-1.8
			c-0.3-0.9-0.6-2-0.9-3c-0.7-2.9-0.2-5.2-0.9-8.2c-0.1-0.5,0.2-1.2,0.1-1.5c-0.3-1.9-0.6-5.4-0.9-7.1c0-1-0.1-2-0.1-3
			c-0.6-2.3-0.5-4.8-0.9-6.5c-0.2-1.2,0.3-2.3,0-3.2c-0.6-2.1-0.3-4.5-0.4-7c0-1.7-0.4-3.5-0.8-5.1v-2.2c-0.2-0.9-0.6-2.5-0.4-3.5
			c0.1-0.3,0.2-1.1,0.1-1.6c-0.3-1.4-0.3-3.8-0.2-4.8c0.4,0,0.3,0.1,0.5,0c0-0.3-0.3-0.3-0.5-0.6c-0.3-0.4,0.1-1.9,0-2.6
			c-0.3-1.7,0-3.7-0.5-5.5v-1.8c-0.1,0-0.2-0.1-0.2-0.1c0.1-0.4,0.2-3,0.1-3.5c-0.4-1.8-0.1-2.9-0.1-5c-0.1-3.1,0-6.1-0.2-8.6
			c0-0.4,0.2-0.6,0.2-0.9c0-0.5-0.1-1-0.1-1.5c0.3-1.2,0.3-2.7,0.1-3.8c0-0.3,0.3-1.1,0.2-1.4c-0.1-1.7-0.2-3.4-0.5-4.8
			c-0.2-0.8,0.1-1.8-0.1-2.2c0-0.7,0-1.1,0.2-1.5h0.4c-0.1,1.2,0.6,2.4,0.6,4c0,0.3-0.2,0.2-0.2,0.4c-0.1,0.5,0.2,0.8,0.2,1
			c0.2,0.7-0.2,1.5-0.1,2c0.2,1.3,0.5,3.5,0.4,4.8c-0.4,2.9-0.2,6.9,0.2,9.9c0,0.4-0.1,0.8-0.1,1.2c0.3,1.3,0.2,2.9,0.4,4
			c0.2,1-0.2,2.8,0,4.1c0.8,4.3,0.2,10.2,1.2,14.8v2.1c0.3,1.5,0,3.7,0.4,5.4v2.2c0.3,1.1,0.5,3.3,0.4,4.5c-0.1,0.4-0.2,1.1-0.1,1.5
			c0.3,1.1,0.4,2.9,0.6,4c0,0.5-0.1,1.1-0.1,1.6c0.3,1.1,0.5,3.5,0.4,4.6c0,0.1-0.2,1.2-0.1,1.4c0.3,2.1,0.4,4,0.8,6.2
			c0.1,0.5-0.1,1.2-0.1,1.6c0,0.3,0.2,2,0.2,2.1v1.9c0.5,2,0.5,4.4,0.8,6.1c0,0.3-0.2,1.1-0.1,1.5c0.6,2.8,0.5,5.3,1.2,7.9
			c0,0.4-0.1,0.8-0.1,1.1c0,0.1,0.3,0.6,0.4,0.8c0.1,0.6-0.3,0.9-0.1,1.5c0.1,0.2,0.4,0.7,0.5,1c0.6,2.6,0.5,5,0.9,7.1
			c0.2,1,0,2,0.2,2.5v1.2h-0.1C381.9,372.3,381.5,370.9,381.4,369.7z M382.5,374.6h-0.1c-0.1-0.2,0-0.1-0.1-0.2V374h0.2V374.6z
			 M426.4,177.7c0.2,0.4,0.1,1.8-0.1,2.1v0.2c-0.2,0-0.3-0.1-0.5-0.1C425.9,179.4,426.2,178.5,426.4,177.7z M383.5,369.8
			c0-0.1,0.1-0.2,0.1-0.4h0.1c0.3,1.4,0.1,4.8,0.5,5.5v0.8C383.4,375.4,384.2,371,383.5,369.8z M384,376.7v-0.6
			c0.8,0.5,0.1,2,0.5,2.8v1.1h-0.2C384,379.1,384.6,377.6,384,376.7z M384.3,381.1c0-0.3,0.1-0.6,0.1-0.9c0.5,0.7,0.4,3.3,0.4,4.2
			C384.1,383.5,384.9,382.1,384.3,381.1z M385,387.1c-0.4-0.6-0.2-1.4-0.5-1.9c0.1-0.2,0.1-0.3,0.1-0.6
			C385,384.8,385,386.5,385,387.1z M391.6,360.7c-0.2,0.9-0.4,2.6-0.6,3.4c0,0.3,0.1,0.6,0.1,0.9c-0.3,1.4-0.4,3.1-0.6,4.1
			c-0.2,1.1,0.3,2.1-0.1,3.1c-0.1,0.1-0.2,0.2-0.4,0.2c-0.1,0.3,0.5,1.2,0.4,1.6c-0.3,1.2-0.2,3.3-0.5,4.6v2.4c-0.2,0.7,0,3-0.2,3.4
			c-0.1,0.1-0.4,0.2-0.5,0.2c0.6,0.6,0.3,1.6,0.1,2.4c0,0.2,0.1,0.5,0.1,0.8c-0.1,0.4-0.3,1.7-0.4,2.2v1.6c-0.4,1.4-0.7,2.9-0.9,4.4
			c-0.1,1.1,0.3,3,0.1,4c-0.1,0.5-0.5,1.4-0.5,1.9c0,0.4,0.2,0.2,0.2,0.2c0.1,0.5-0.4,1.8-0.6,2.1v0.2h-0.1c0.1-1.6-0.1-4.3-0.2-6.2
			c0.2-0.1,0.4-0.2,0.6-0.2c-0.1-0.5-0.2-0.4-0.5-0.6c-0.5-0.7-0.1-1.8-0.2-2.6c-0.1-1-0.2-3.3-0.2-4.4c0-0.6,0.2-1.6,0-2.5
			c-0.2-1-0.3-2.4-0.4-3.2v-2c-1-4.4,0-9.6-1-13.9c0-1.9-0.1-3.8-0.1-5.8c-0.2-0.8-0.1-2.7,0-3.8c0-0.5-0.1-1.1-0.1-1.6
			c0-1.8,0-3.2,0.2-4.2c0.1-0.5-0.2-0.7,0-1.4c0.5-1.5,0.5-3.3,0.8-4.9c0.1-0.4,0.4-1,0.4-1.5c-0.4-2.8-0.7-7.6-0.1-10.1
			c0.3-1.2-0.3-1.5,0-2.9c0.6-2.6,0.7-5,1.5-7.8c0.3-1.1-0.1-1.7,0.2-2.9c0.3-1.2,0.6-2.3,0.9-3.4c0.1-0.5-0.1-1.6,0.1-2.4
			c0.6-2.6,0.8-6,1.5-8.2l0.4-3c0.7-2.2,1.2-5.2,2-7.8c0-0.6,0.1-1.2,0.1-1.8c0.1-0.1,0.2-0.2,0.4-0.2c0.4-0.8,0.1-1.6,0.4-2.5
			c0.8-2.5,1.4-5.5,1.6-7.9c0.1-1.3,0.9-2.8,1.2-3.9c0.5-1.6,0.7-3.2,1.2-4.6c0.7-2.1,0.7-4,1.4-6.1c0.9-3,2-6.1,3.1-9
			c0.7-1.9,1.1-4.1,1.8-5.6c0.2,0,0.4,0.1,0.6,0.1c-0.1-0.6-0.5-0.6-0.4-1.1c0.6-2,1.5-4.3,2.1-6.4c0-0.5,0.1-0.9,0.1-1.4
			c0.2-0.5,0.5-1.3,0.6-1.8c0-0.5,0.1-1,0.1-1.5c0.4-0.9,0.6-2.1,1-3.4c0.1-0.4,0.5-0.9,0.6-1.2c0.1-0.4-0.1-0.7,0.1-1.2
			c0.9-1.8,1.7-4.1,2.5-6c0.1-0.3,0.9-3.1,0.9-3.1c0-0.2-0.2-0.3-0.1-0.6c0.1-0.4,0.6-1,0.8-1.4c0.1-0.5,0.2-0.9,0.2-1.4
			c0.2-0.5,0.7-1.4,0.9-1.9c0.4-1,0.2-1.9,0.6-2.9c1-2.3,1.6-5.2,2.5-7.5c0-0.4,0.1-0.8,0.1-1.2c0.9-2.6,1.4-5.8,2.2-8.5
			c0.3-0.9,0-1.8,0.5-2.8c0.1,0,0.2-0.1,0.4-0.1v-1.6c0.1-0.4,0.2-0.9,0.4-1.5c0.6-2.2,1.2-4.7,1.9-6.8c0.4-1.4,0.3-2.6,0.8-3.9
			c0.2-0.5,0.6-1.3,0.8-1.9V184c0.4-1,1.1-2.2,1.1-3.5c0.3,0,0.3-0.1,0.5-0.1l0.2,0.2c0,1.3-0.2,2.7-0.6,4c0.4,2-0.8,6.4-1.4,8.5
			c-0.2,0.7,0.1,1.6,0,2.1c-0.5,1.5-0.7,4-1.1,5.9c-0.3,1.2,0,2.2-0.4,3.4c-1,3.8-1.9,7.5-2.9,11.4v1.2c-0.2,0.7-0.4,1.6-0.5,2.2
			c-0.3,1.2,0.3,1.7-0.1,2.6c-0.2,0.5-0.6,1.5-0.8,2c0,0.5-0.1,1-0.1,1.5c-0.7,1.8-1.4,4.3-1.9,6.2c0,0.6-0.1,1.2-0.1,1.9
			c-0.5,1.8-0.8,3.8-1.2,5.8c-0.3,1.1,0,2.4-0.4,3.4c-1.7,5.2-2.8,10.8-4.2,16.5c-0.7,2.8-0.5,6-1.5,8.5c-0.2,0.6,0.2,1.6,0,2.5
			c-0.8,3.1-1.5,7.6-2.4,10.6c-0.3,1-0.9,2.1-1.2,3.1c-0.5,1.5-0.2,2.2-0.8,3.6c-0.3,0.8-0.7,1.6-0.6,2.5h-0.8v0.4h0.5
			c-0.2,0.6-0.6,1.1-0.8,1.5c-0.2,0.5,0.2,0.6,0,1.1c-0.1,0.2-0.5,0.5-0.5,0.6c-0.1,0.4,0.1,0.9-0.1,1.5c-0.8,2.3-1.3,5-2,7.4
			c-0.3,1.2-0.5,2.2-0.8,3.2c0,0.5-0.1,1.1-0.1,1.6c-0.9,2.5-1.3,5.8-2.1,8.4c0,0.6-0.1,1.2-0.1,1.8c-1,3.6-1.2,6.8-2,9.6
			c-0.3,1.1,0.1,2.7-0.2,4.1c-0.7,2.7-0.4,5.8-1.1,9.1c0,1.8-0.1,3.6-0.1,5.4c-0.9,2.3-0.5,5.6-1,8c-0.2,0.9-0.5,2-0.8,2.8
			c0.2,0.8-0.1,1.8-0.4,2.6C391.5,359.8,391.7,360.3,391.6,360.7z M425.4,199.3c-0.4,2.3-0.3,5.4-0.9,7.9c0,1.4-0.1,2.8-0.1,4.1
			c-0.3,1.3-0.3,3-0.5,4.6c0,0.5,0.1,0.9,0.1,1.4c-0.4,1.6-0.4,3.7-0.6,5.5c-0.1,0.4,0.3,1.2,0.1,1.9c-0.2,0.9-0.5,2.8-0.4,3.5
			c0.1,0.6,0.3,2.1,0.1,2.9c-0.1,0.3-0.3,1.4-0.2,1.6c0,1.1,0.2,3,0,4c-0.3,1.6-0.4,4.4-0.8,5.9c-0.1,0.3,0.2,0.6,0.1,1
			c-0.3,1.3-0.2,2.5-0.5,3.8c-0.1,0.4-0.4,1.5-0.4,1.9c0.1,3.8-0.5,9.9-1.2,13.3c-0.3,1.4-0.3,2.7-0.6,3.9c0,0.7-0.1,1.4-0.1,2.1
			c-0.4,1.4-0.4,3.2-0.9,4.8c-1.1,3.9-1.9,8.1-3.1,11.8c-0.3,0.8-0.2,1.6-0.5,2.4c-1.5,3.9-3,8.2-4.5,12.4v0.9
			c-0.8,2.3-1.6,5-2.5,7.2v1.1c-0.5,1.3-1.3,2.9-1.8,4.2c-1.4,4.7-2.3,8.8-3.8,13.1c-0.3,1-0.1,1.8-0.4,2.9
			c-0.3,0.9-0.6,1.9-0.9,2.9c-0.1,0.6,0.1,1.3,0,1.6c-1.3,3.7-2.2,8-3.5,12v0.9c-0.2,0.6-0.4,1.2-0.5,1.6c0,0.2,0.1,0.3,0.1,0.5
			c-0.3,1.2-0.7,2.8-1.1,4c0.1,0.7-0.2,3.6-0.5,4.4c-0.5,1.4-1,3.1-1.5,4.6c-0.7,2.5-1.1,4.6-1.8,6.8c-0.3,1,0,1.9-0.5,2.6v0.1h-0.1
			c0.5-4.5,0.6-9.5,1.9-14.2c0.4-1.6,0.1-4,0.6-5c0-0.8,0.1-0.9,0.9-0.9v-0.2c-0.2,0-0.4-0.1-0.6-0.1c0-2,0.4-4.2,0.6-5.6
			c0.3-2.6,0.1-4.9,0.6-6.5v-1.9c0.6-2.3,0.3-4.5,0.8-6.6v-1.4c0.3-1.2,0.5-2.9,0.8-3.9c0-0.7,0.1-1.4,0.1-2.1
			c0.6-1.5,0.7-3.2,1.1-4.5c0-0.5,0.1-1.1,0.1-1.6c0.3-1.1,0.7-2.1,1-3.1c0.4-1.2,0-1.7,0.4-3c0.4-1.6,0.9-3.5,1.4-5.1
			c0.3-1,0.2-2.5,0.4-2.9c1.7-5,2.8-10.5,4.4-15.4v-0.9c0.2-0.6,0.5-1.2,0.8-1.9v-0.8c0.2-0.5,0.7-1.1,0.9-1.5
			c0.1-0.4-0.1-1.2,0.1-1.8c1.5-4,1.8-9.2,2.9-13.4c0.3-1.1,0-1.9,0.2-3c0.6-2.1,1.1-4.6,1.6-6.6c0.2-1,0-2.1,0.4-3.2
			c1.3-3.9,2-7.9,3.1-11.5c0.3-1,0-1.7,0.2-2.8c0.5-2,0.8-4.2,1.2-6c0-0.5,0.1-1,0.1-1.5c0.3-0.9,0.7-2.2,1-3.2V228
			c0.6-1.8,1.4-4.1,1.9-6.2c0.4-1.7,0.3-3.4,0.6-4.9v-1.2c1.3-4,2-8,3.1-12.1c0.2-0.9,0-1.8,0.1-2.4c0.3-1.5,0.7-3.3,1-4.8
			c0.4-1.6,0-4.2,0.6-5.1c0-0.1,0.1-0.2,0.1-0.4c0.1,0,0.2,0.1,0.2,0.1C426.3,194.1,425.9,196.5,425.4,199.3z M426.5,190.5
			c0-0.8,0.2-1.2,0.4-1.9C427.1,189,426.8,190.1,426.5,190.5z M427.1,186.3c0.1-0.2,0-0.1,0.1-0.2
			C427.2,186.3,427.2,186.2,427.1,186.3z M428.5,177.3c-0.2,1,0,2.3-0.6,3c0.2-3.6,1.1-5.5,1.4-8.5l0.1-0.1h0.2
			C429.4,173.8,429,175.5,428.5,177.3z M376.8,246.2c-0.1-0.4-0.1-0.4-0.2-0.6c-0.7,0-0.8,0.2-1.2,0.5v0.6c0.3,0.1,0.3,0.1,0.5,0.2
			C376.6,246.9,376.4,246.6,376.8,246.2z M376.9,232.6l0.1,0.1h0.4c-0.1-0.2-0.1-0.7-0.2-0.9c0-0.7-0.1-0.7-0.4-1.1
			c-0.3,0-0.4,0-0.5,0.1c-0.1,0-0.2,0.1-0.4,0.1v0.9c0.4,0,0.7,0,0.9,0.1C376.9,232.1,376.9,232.3,376.9,232.6z M376.5,214.8
			c0.4,0.1,0.8,0.1,1.1-0.2c0.1-0.2,0.1-0.4-0.1-0.6c-0.2-0.4-0.3-0.3-0.6-0.5c-0.3,0.1-0.2,0-0.4,0.1c-0.1,0.2-0.2,0.7-0.2,0.9
			C376.5,214.6,376.4,214.5,376.5,214.8z M376.9,241.2c-0.1,0.1-0.2,0.2-0.2,0.2c-0.1,0.1,0,0.5-0.1,0.9c0.3,0.2,0.3,0.3,0.6,0.4
			c0.1,0.1,0,0,0.2,0.1c0.1-0.1,0.2-0.2,0.4-0.2C377.8,241.6,377.6,241.5,376.9,241.2z M379.8,223.2v-0.4c-0.4,0-0.4,0-0.6-0.2
			c-0.5,0.1-0.6,0.2-1,0.4c-0.1,0.2,0,0.1-0.1,0.2c0.1,0.6,0.2,0.5,0.4,0.9C379.1,224,379.3,223.5,379.8,223.2z M379.3,213.5
			c0-0.4,0-0.8,0-0.9c0-0.1-0.1-0.2-0.1-0.4c-0.6,0-0.8,0.1-1.1,0.2v0.5c0.2,0.2,0.4,0.4,0.5,0.6C378.9,213.6,379,213.5,379.3,213.5
			z M379.8,217.6l0.1-0.1h-0.1c-0.1-0.4-0.3-0.4-0.5-0.6c-0.5,0-0.5,0.1-0.8,0.2v0.9c0.3,0.1,0.2,0,0.4,0.2
			C379.5,218.2,379.6,218.1,379.8,217.6z M378.9,228.5c-0.1,0.3-0.1,0.6-0.1,1.1c0.2,0.1,0.5,0.3,0.8,0.5c0.1,0,0.2-0.1,0.4-0.1
			v-1.4c-0.2-0.1-0.1,0-0.2-0.1H378.9z M379.1,232c-0.1,0.4-0.2,0.5-0.2,1.1c0.2,0.1,0.3,0.1,0.4,0.2c0.5,0,0.4,0,0.9-0.2
			c0.1-0.2,0-0.1,0.1-0.2c0-0.3,0-0.5-0.1-0.6c-0.1-0.1-0.3-0.2-0.4-0.2H379.1z M380.3,208.2c0.1-0.1,0,0,0.1-0.2l-1.1-0.4
			c-0.1,0.1,0,0-0.2,0.1c0,0.3-0.1,0.6-0.1,0.9c0.2,0.1,0.5,0.2,0.6,0.4C380.1,208.9,380.2,208.8,380.3,208.2z M380.5,221.2
			c0-0.5-0.1-0.5-0.2-0.8c-0.4,0-0.7,0-0.9,0.1c-0.3,0.2-0.2,0.2-0.4,0.5c0.3,0.2,0.5,0.6,0.8,0.9
			C380.1,221.8,380.2,221.5,380.5,221.2z M380.6,224.2c-0.4,0-0.6,0-0.9,0.1v0.6l0.6,0.6c0.5-0.1,0.5-0.2,0.8-0.5
			C381.1,224.5,381,224.5,380.6,224.2z M382,210.8c-0.5,0-0.6,0.1-0.9,0.4c-0.3-0.1-0.3-0.2-0.5-0.4c-1,0.2-0.8,1.3-0.9,2.1
			c0.2,0.2,0.4,0.4,0.5,0.6c0.6-0.1,0.6-0.4,1-0.8c0-0.5-0.1-0.6-0.2-1l0.5,0.5c0.5-0.1,0.6-0.2,1-0.4c0-0.3-0.1-0.6-0.1-0.9
			C382.2,211,382.1,211,382,210.8z M381.6,202.7c0-0.3,0-0.5-0.1-0.6c0-0.1-0.1-0.2-0.1-0.4c-0.7,0.1-1,0.3-1.1,0.9l0.5,0.5
			C381.2,203,381.3,202.9,381.6,202.7z M382.1,217.5c-0.2-0.1-0.1,0-0.2-0.1c-0.5,0.1-0.4,0.2-0.8,0.4v0.6c0.4,0.2,0.7,0.7,1,0
			c0.1-0.2,0.2-0.1,0-0.2V217.5z M381.1,214.8c0.1,0.1,0.1,0.2,0.1,0.5c0.3,0.1,0.6,0.2,0.9,0.2c0.1-0.1,0.3-0.3,0.5-0.4
			c0-0.5,0-0.6-0.2-0.9c-0.1-0.1-0.3-0.2-0.4-0.2C381.3,214.2,381.3,214.3,381.1,214.8z M381.8,209.1c0.3,0,0.8-0.1,1-0.2h0.2
			c0,0-0.1-0.1-0.1-0.1c-0.1-0.6-0.2-0.5-0.4-0.9c-0.6,0-0.6,0.1-1,0.4C381.6,208.7,381.7,208.6,381.8,209.1z M383.1,203.8
			c0.3-0.3,0.1-0.5,0.2-0.9c-0.2-0.1-0.3-0.2-0.5-0.4c-0.7,0-0.6,0.1-1,0.4v1C382.3,204.2,382.7,204.2,383.1,203.8z M383.8,194.1
			c0.1-0.4,0.1-0.4,0-0.6c-0.1-0.4-0.1-0.4-0.4-0.6c-0.1-0.1-0.1,0-0.4-0.1l-0.4,0.4v0.8c0.2,0.1,0.4,0.2,0.5,0.4
			C383.5,194.2,383.6,194.2,383.8,194.1z M384,189.1c0-0.3,0-0.5-0.1-0.6v-0.2c-0.2-0.1-0.1,0-0.2-0.1c-0.4,0-0.6,0-0.9,0.1v0.8
			c0.1,0.1,0.3,0.3,0.4,0.5C383.5,189.4,383.7,189.2,384,189.1z M383.3,206.1H383v0.4c0.1,0.1,0.2,0.3,0.2,0.4
			c0,0.1,0.1,0.2,0.1,0.4c0.8,0,0.6-0.2,1-0.6c-0.1-0.5-0.2-0.4-0.4-0.8C383.6,205.9,383.5,205.9,383.3,206.1z M384.4,180
			c0.1-0.5,0.2-0.9-0.1-1.2c0-0.1-0.1-0.2-0.1-0.2c-0.5,0-0.6,0.1-0.9,0.2c0,0.7,0.1,0.8,0.4,1.2C384.1,180,383.9,180,384.4,180z
			 M385.1,168.1h0.4c0.1-0.5,0.5-0.7,0.2-1.1v-0.2c-0.2-0.1-0.1,0-0.2-0.1h-0.6c-0.1,0.4-0.3,0.7-0.1,1
			C384.9,167.9,385,167.9,385.1,168.1z M385.5,186.1c0.2,0.2,0.5,0.4,0.8,0.6c0.3,0,0.3-0.1,0.5-0.1c0.1-0.2,0-0.1,0.1-0.2
			c0-0.7-0.4-1.3-1-0.9h-0.2C385.6,185.7,385.6,185.9,385.5,186.1z M386,192.1c0.1,0.1,0.3,0.3,0.4,0.5c0.7,0,0.6-0.1,1-0.4
			c0-0.7-0.3-1.4-0.9-1C386.1,191.4,386.1,191.6,386,192.1z M388.4,170.8c-0.2-0.2-0.6-0.3-0.9-0.1c-0.1,0-0.2,0.1-0.4,0.1
			c0,0.2-0.1,0.4-0.1,0.6l0.5,0.5C388.5,172.4,388.8,171.3,388.4,170.8z M388.8,177.2c-0.2,0.4-0.6,0.6-1,0.8v0.6
			c0.2,0.2,0.3,0.2,0.4,0.5c0.9,0,0.9-0.3,1.4-0.6l-0.4-1.1c0.1-0.3,0.5-0.8,0.6-1.4c-0.1-0.1-0.2-0.2-0.2-0.4
			c-0.2-0.1-0.1,0-0.2-0.1c-0.6,0.1-0.5,0.2-0.9,0.4C388.4,176.6,388.4,176.8,388.8,177.2z M388.9,182.6c-0.4,0.1-0.3,0.2-0.6,0.4
			v0.9c0.1,0.1,0.2,0.2,0.2,0.4c0.3,0,0.7-0.1,1-0.1c0.4-0.8,0.4-1-0.2-1.6C389,182.5,389,182.5,388.9,182.6z M390.1,175.1
			c0.6-0.1,0.6-0.3,1-0.5c0-0.3,0-0.6-0.1-0.8v-0.2c-0.2-0.1-0.1,0-0.2-0.1c-0.8,0-0.9,0.1-1.1,0.6c0.1,0.1,0.1,0.2,0.1,0.5
			C389.9,174.7,390,174.9,390.1,175.1z M391.8,163.2c0-0.3-0.1-0.4-0.1-0.6c-0.8,0-0.8,0.2-1.2,0.5v1c0.3,0.1,0.2,0,0.4,0.1
			C391.2,164,391.4,163.5,391.8,163.2z M390.9,175.2c0,0.3-0.1,0.6-0.1,0.9c0.1,0.1,0,0,0.1,0.2c0.2,0.1,0.1,0,0.2,0.1
			c0.7,0,0.6-0.2,1-0.5c-0.1-0.5-0.2-0.6-0.4-1C391.2,175,391.2,175.1,390.9,175.2z M391.5,171.1c0.1,0.1,0.2,0.2,0.2,0.4
			c0.3-0.1,0.6-0.2,0.9-0.2c0.1-0.2,0.2-0.5,0.2-0.8l-0.5-0.5c-0.4,0-0.5,0.1-0.8,0.1C391.6,170.4,391.5,170.6,391.5,171.1z
			 M391.9,171.8h-0.2c0,0.6,0.1,0.7,0.2,1c0.4,0,0.3,0,0.9,0c0-0.9,0.1-0.7-0.4-1.1C392.1,171.8,392,171.7,391.9,171.8z
			 M393.8,170.3v0.1c0.3-0.1,0.3-0.1,0.5-0.2c0-0.4,0-0.9-0.1-1.1c-0.1-0.4,0-0.2-0.4-0.4c-0.1-0.1,0,0-0.2-0.1
			c-0.1,0.1-0.3,0.3-0.5,0.4v0.6C393.3,169.9,393.4,170.2,393.8,170.3z M394.4,167.1h0.2c0.2-1-0.1-2.4-1-2.2
			c-0.4,0.1-0.4,0.1-0.6,0.2v0.5c0.3,0.4,0.6,1.1,0.8,1.5C394.1,167.2,394.1,167.2,394.4,167.1z M396.1,163.7c0-0.6-0.2-0.6-0.4-1
			h-0.6c-0.1,0.4-0.2,0.5-0.2,1c0.1,0.1,0.2,0.2,0.2,0.4C395.8,164.1,395.8,164,396.1,163.7z M397.5,160.1c0.1-0.2,0.2-0.1,0-0.2
			c-0.1-0.6-0.2-0.5-0.5-0.9c-0.5,0-0.5,0.1-0.8,0.2c0,0.2-0.1,0.5-0.1,0.8C396.6,160.2,397,160.5,397.5,160.1z M399.6,154
			c0.4-0.1,0.3-0.1,0.6-0.2c0-0.7-0.1-0.9-0.2-1.4c-0.3,0-0.4,0-0.5-0.1c-0.7,0.2-0.6,0.6-0.8,1.1c0.1,0.1,0.3,0.3,0.4,0.5
			C399.4,153.9,399.5,153.9,399.6,154z"/>
	</g>
</g>
</svg>
