<?xml version="1.0" encoding="utf-8"?>
<!-- Generator: Adobe Illustrator 21.0.0, SVG Export Plug-In . SVG Version: 6.00 Build 0)  -->
<svg version="1.1" id="Calque_1" xmlns="http://www.w3.org/2000/svg" xmlns:xlink="http://www.w3.org/1999/xlink" x="0px" y="0px"
	 viewBox="0 0 841.9 595.3" style="enable-background:new 0 0 841.9 595.3;" xml:space="preserve">
<style type="text/css">
	.st0{fill:none;stroke:#DADADA;stroke-width:20;stroke-miterlimit:10;}
	.st1{fill:#1D1D1B;}
</style>
<path class="st0" d="M642.4,241.4c0,0-187.3,6.7-173.9,37.9c6.5,15.1,43.8-1.2,59.1,31.2c25.5,54.2-88.5,97.8-88.5,97.8"/>
<g>
	<g>
		<path class="st1" d="M429.3,215.7h1.4c1.6-0.4,2.9-0.3,4.6-0.8c7.2-1.9,16-1.9,23.9-3.8h1.8c1.6-0.4,3.7-0.4,5.4-0.8
			c0.9,0,1.8-0.1,2.6-0.1c1.1-0.3,2.4-0.1,3.6-0.4c4.7-1.1,9.1-0.6,13.8-1.6c2.3-0.5,4.3-0.1,6.5-0.6c0.7-0.2,1.5,0,1.9,0
			c1,0,2.3-0.3,3.1-0.5c0.4-0.1,2.4-0.3,2.6-0.2c0.1,0,0.1,0.3,0.4,0.2v-0.2c0,0,0.4-0.1,0.4-0.1c1.2-0.4,3.1-0.3,4.2-0.5
			c0.6-0.1,0.7,0.3,1,0.4c0.2,0,0.8-0.4,1.1-0.4c0.9-0.1,1.9,0.2,2.9-0.5c0.3,0.2,0.4,0.5,0.6,0.8c0.8-0.1,0.7-0.4,1.1-0.6
			c0.8-0.4,2.3-0.5,3.4-0.5c0,0.6,0.1,0.6,0.4,1c0.3,0,0.9-0.1,1-0.1c0.6,0.1,0.8,0.7,1.2,0.5c0.5,0,0.5-0.1,0.8-0.2
			c-0.1-0.6-0.2-0.6-0.4-1c-0.7,0-0.9,0.1-1.1,0.5c-0.5-0.1-0.5-0.2-0.9-0.4v-0.2c1-0.4,2.6-0.5,4-0.5c0.4,0,0.8,0.1,1.1,0.1
			c0.6-0.1,1.4-0.5,2.1-0.6c1.3-0.3,2.8-0.1,4-0.4c1,0,2.1-0.1,3.1-0.1c2.6-0.7,6.8-0.5,9.9-1.2c0.8,0,1.7-0.1,2.5-0.1
			c1.6-0.4,3-0.4,4.8-0.8h1.5c1.6-0.4,2.9-0.4,4.9-0.6c0.2,0,0.4,0.1,0.6,0.1c5.6-1.2,12.8-1.3,18.5-2c3.5-0.5,7.6-0.1,11-0.5
			c1.9-0.2,5.1,0.6,6.2-0.2c0.1,0,0.2-0.1,0.2-0.1c0-0.4,0-0.6-0.1-0.9c-1.8-0.7-5.9-0.3-7.8,0c-0.9,0.2-2-0.2-2.8-0.1
			c-0.4,0.1-1.4,0.3-1.9,0.2c-1.3-0.2-4.1,0.1-5.5,0.4h-2c-1.3,0.3-3.1,0.2-4.5,0.5c-0.8,0.2-2-0.1-3.1,0.1
			c-6.2,1.5-13.9,1-19.5,2.4c-1.3,0.3-2.5-0.1-3.9,0.2c-2.3,0.6-5.5,0.6-7.5,1c-1.2,0.3-2.7-0.2-3.6,0.4h-0.8v-0.1
			c0.7-0.2,1.1-1.1,1.8-1.2c0.5-0.1,0.8,0.5,1.5,0.2c0.3-0.1,0.6-0.5,1-0.6c0.9-0.3,2.1,0.1,3-0.2c2.3-0.9,5.6-0.6,8.1-1.5
			c0.9,0,1.8-0.1,2.6-0.1c1.2-0.4,2.6-1,3.8-1.4c0.1-0.2,0-0.1,0.1-0.2v-0.8c-1.6-0.3-2.7,0.5-3.9,0.9c-2.2,0.7-5.4,0.8-7.5,1
			c-0.7,0.1-1.8,0.4-2.2,0.4c-1.7-0.2-2.8,0.7-3.8-0.4c-2.1,0.1-5.1,3-6.9,3.9c-0.7,0.4-1.8,0.5-2.5,0.8c-0.8,0.2-1.7-0.1-2.2,0.2
			h-0.4c-0.1-0.7-0.4-1.7-0.2-2.2c0.5-1.4,2.4-4.4,3.4-5.4c-0.1-0.5-0.2-0.7-0.4-1c-1.3,0.1-1.3,0.8-2,1.4c-0.9,0.7-1.7,1.6-2.4,2.6
			c-0.5,0.7-1.5,1.2-2,2h-0.5c-0.3,1.4-2.6,2.5-3.6,3.4h-0.2c0-0.5-0.2-1-0.2-1.4c0.1-1.3,0.2-2.6,0.4-3.9c0.1-0.5,0.4-1.7,0.2-2
			c-0.1-0.7-0.3-0.7-0.5-1.1c-0.2,0-0.5,0.1-0.8,0.1c-0.6,3.2-0.9,5.3-2.5,8c-0.2,0.1-0.1,0-0.2,0.1h-0.1c-0.5-2.7,0.3-8.1-0.9-9.9
			c-0.2-0.3-0.3-0.4-0.6-0.5c-0.1,0.1-0.2,0.2-0.4,0.2c-0.5,1.2-0.3,3.4-0.1,4.2c0.2,0.8-0.1,1.6,0.2,2.1c0,0.3,0,0.4-0.1,0.5v0.1
			c-0.3-0.4-0.1-0.8-0.2-1.4c-0.3-0.9-1.2-2.2-0.6-2.8c-0.2-0.3-0.3-0.2-0.5-0.4c-0.2-0.3,0-0.8-0.1-1.2c-0.1-0.3-0.5-0.8-0.6-1.2
			c-0.2-0.1-0.1,0-0.2-0.1c-0.3,0-0.6,0-0.8,0.1c-0.4,0.6-0.1,1.6,0.1,2.4c0.3,1,0.3,2.3,0.6,3.4c0,0.1,0.3,0.4,0.4,0.5
			c0.5,1.6,0.1,3.2,0.9,4.4c0,0.3-0.1,0.3-0.1,0.5c-2.1,0-3.6,0.5-5.5,0.5c0-0.7-0.1-0.8-0.6-1c-0.6-0.4-1.5,0.2-2.1,0.2
			c-1,0.1-3.5-0.4-4-1c-0.4,0-0.5,0.1-0.8,0.1c-0.1,0.5-0.2,0.8,0.1,1.1c0.7,0.8,2.1,0.9,3.6,0.9c-0.8,0.5-3.5,0.3-4.6,0.5
			c-2.9,0.3-5.8,0.6-8.8,0.9c-1.4,0.3-3.3,0.4-4.8,0.6c-0.3,0-0.6-0.1-0.9-0.1c-1.7,0.5-5.1,0.7-7.1,1c-0.5,0.1-1.3-0.2-2,0
			c-1.6,0.4-3.9,0.5-5.5,0.8c-0.2,0-0.5-0.1-0.8-0.1c-3.4,0.8-8.5,1-11.9,1.8c-3.8,0.8-7.6,0.7-11.1,1.6c-1,0.2-3.5,0.8-3.9,0.2
			c-0.3,0.2-0.2,0.1-0.2,0.5c-1.3-0.3-5.8,1-7.5,1.4c-0.8,0.2-1.5-0.2-2,0c-1.6,0.5-3.8,0.9-5.6,1.5c-0.9,0.3-2.2,0.1-2.8,0.2
			c-1.9,0.5-4,1.1-6,1.6c-7.2,1.9-14,3.2-20.1,5.8c-0.6,0.2-1.1,0-1.6,0.2c-1.1,0.4-2.4,1-3.5,1.4c-0.6,0.1-1.2,0.2-1.8,0.2
			c-1.8,0.8-4.1,1.7-5.9,2.6c-1.1,0.6-2.4,0.5-3.5,1c-1.7,0.8-3.8,2-5.6,2.6c-1.2,0.5-2.3,0.8-3.4,1.2c-0.1,0-0.2-0.1-0.4-0.1
			c-1.4,0.9-3.4,1.8-5,2.5c-1.7,0.8-3.4,1.2-5,2.1c-0.2,0.2-0.3,0.4-0.5,0.6c-0.3,0-0.6,0.1-0.9,0.1c-0.6,0.4-1.3,1.1-1.9,1.4
			c-0.8,0.4-1.7,0.4-2.4,0.9c-4.6,3-9.2,6.9-11.8,11.9c-0.7,1.3-1.9,3.7-1.8,4.6c0.1,0.5-0.4,0.7-0.2,1.4c0.4,1.7,0.5,5.2,2.2,5.9
			c0,0.2-0.1,0.4-0.1,0.6c0.2,0,0.5,0.1,0.8,0.1v0.4c1,0.4,1.5,1.2,2.2,1.6c0.6,0.4,1.4,0.5,2,0.9c0.5,0.3,1,0.9,1.5,1.1
			c0.3,0,0.6,0.1,0.9,0.1c0.3,0.1,0.7,0.6,1,0.8h0.8c0.3,0.1,0.5,0.5,0.8,0.6c0.5,0.1,0.9,0.2,1.4,0.4c0.2,0.1,0.4,0.4,0.6,0.5
			c0.5,0.1,1,0.2,1.5,0.2c1.4,0.5,3,1.3,4.5,1.8c1.1,0.3,2.3,0.3,3,0.6c6.3,2.8,11.5,4.2,15.8,9.2c1.5,1.8,2.3,4.4,3,6.9
			c0.3,1.1-0.2,2.9,0,3.6c0.3,0.9,0.3,2.5,0,3.5v2.1c-0.4,1.3-0.8,3.1-1.6,4.4c-0.3,0.3-0.7,0.6-1,0.9c-1.3,1.7-3.1,2.9-5,4
			c-0.5,0.3-1.1,0.3-1.6,0.6c-0.8,0.6-2,1.4-3,1.8c-0.6,0.2-1,0.1-1.5,0.4c-0.5,0.2-1,0.8-1.5,1c-1.1,0.5-2.1,0.5-3.1,1
			c-2.8,1.3-5.7,2.1-8.8,3.2c-5,1.9-10.4,3.8-15.5,5.6c-1.5,0.5-2.8,0.4-4.2,1c-3.7,1.4-8.2,2.3-12,3.6c-0.7,0.1-1.3,0.2-2,0.2
			c-2.5,0.8-5.8,1.5-8.4,2.2c-1.7,0.5-3.3,0.6-4.9,1c-0.3,0.1-0.7,0-0.9,0.1h-0.4c0.3-0.7,2-2.2,2.6-2.9c-0.1-0.4-0.3-0.5-0.5-0.8
			c-2.3,0.1-4.6,3.9-6.8,4.6c-1.1,0.4-3.6,0.3-4.6,1H293c0.2-0.6,1.1-2.9,1.5-3.4c0-0.7-0.2-0.6-0.5-1c-0.7,0-1.2,0.2-1.5,0.5
			c-0.2-0.1-0.3-0.5-0.5-0.9c-2.4,0-3.4,1.7-4.5,3c-0.2,0.1-0.4,0.2-0.6,0.4c-0.8,0.8-1.5,1.8-2.4,2.5c-0.3,0.2-0.7,0.3-1,0.6h-1.2
			c1-1.6,1.5-4,2.2-5.8c0.3-0.6,0.3-1.3,0.6-1.9c0-0.6-0.5-1.1-1-0.8c-0.8,0.4-0.7,1.6-1.1,2.4c-0.1,0.1-0.2,0.2-0.4,0.2
			c-0.4,0.8-0.2,1.4-0.6,2.1c-0.2,0.1-0.4,0.2-0.6,0.4c-0.1,0.4,0.3,0.1,0.2,0.5c-0.1,0.4-0.3,1-0.5,1.5c-0.2,0.5-0.5,0.8-0.5,1.6
			c-0.8,0.1-3.1,0.7-3.4,0.5c-0.9-0.6-0.2-2.6-0.8-3.5c0.1-0.9,0.5-0.7,1-1.1h0.1v-0.2c-0.4,0.1-0.8,0.2-1.2,0.4
			c0-2.3-0.4-3.6-0.9-5.6c-0.4-1.7-0.1-3.2-0.5-4.9c-0.2-0.9-1.1-4.5-1-5c0.1-0.5,0.5-0.6,0.6-1.1c2.8,0.3,3.3-1.3,4.6-2.8
			c0-2.3-3.4-2.6-5.2-1.9c0,0-2.2,1.8-2.2,1.8c-0.2,0.4,0,0.9-0.2,1.2c-0.1,0.1-0.4,0.1-0.5,0.2c-0.1,0.2-0.3,1.6-0.1,1.9
			c0.3,1,1.1,0.4,1.9,0.9c0.1,0.2,0,0.1,0,0.5h-0.4v0.4h0.5c0,1,0.5,4.9,0.9,5.4c0,1.2-0.1,1.5-0.9,1.9v0.2c0.4-0.1,0.6-0.2,0.9-0.5
			c0.5,0.6,0.3,1.6,0.5,2.5c0.5,1.6,0.5,3.2,0.9,4.8c0.3,1.2-0.3,1.9,0.2,2.8v1.1c-1.2-0.4-1.6-2-2.4-2.9c-0.2-0.2-0.4-0.1-0.6-0.2
			c-0.4-0.3-0.6-1-1-1.2c-0.4-0.2-0.7-0.2-1-0.5c-0.4,0-0.6,0-0.9,0.1c0,1,0.3,1.7,0.8,2.2v0.1c-1.1,0-1.9-0.4-2.8-0.6
			c-1.2-0.4-2.8-0.4-3.6-0.6l-4.9-0.4c-1.1-0.3-3.7-0.8-4.4-0.5c-0.4,0-0.6,0-0.9,0.1c0,0.4,0,0.8,0.1,1.1c0.2,0.1,0.5,0.2,0.6,0.2
			c0.3,0,0.7-0.1,1-0.1c1.2,0.4,2.2,1.7,3.4,2.1c0.1,0.1,0,0,0.2,0.1c0.1-0.1,0,0,0.2-0.1c0-0.4-0.1-0.2,0-0.4
			c-0.1-0.4-0.2-0.4-0.5-0.6v-0.6c-0.3,0-0.4-0.1-0.6-0.1c-0.1-0.2,0-0.1-0.1-0.2v-0.1c4,0.1,7.2,0.8,10.5,1.9
			c0.9,0.3,1.7,0.1,2.5,0.5c0.9,0.4,1,1.7,2,2c-0.4,0.7-4,0.7-5.1,1c-3.8,0.9-8.2,1-12.1,2c-0.8,0.1-1.6,0.2-2.4,0.2
			c-2.6,0.8-5.4,0.6-8.4,1.4c-6.3,1.6-13.4,1.9-19.6,3.6c-1,0.1-2.1,0.2-3.1,0.2c-0.6,0.2-1.5,0.5-2.1,0.6h-1.4
			c-1.7,0.4-4,0.8-5.8,1.2h-1.2c-3.5,0.9-7.9,1.3-11.4,2.2c-0.7,0-1.4,0.1-2.1,0.1c-2.8,0.8-8.4,1.7-12,1c-0.2,0.3-0.4,0.2-0.5,0.6
			c-0.1,0.1,0,0,0,0.1c0,0.7,0.1,0.6,0.4,1c6.6-0.3,13.5-1.1,19-2.8c1-0.3,1.8,0,2.9-0.2c2.4-0.6,5.2-0.9,7.5-1.6h1.5
			c0.9-0.3,2.1-0.5,3-0.8c0.6,0,1.2-0.1,1.9-0.1c0.3-0.1,0.9-0.4,1.2-0.5c1.6-0.3,3.8-0.2,5.6-0.6c1.8-0.5,4.2-0.8,6-1.2
			c1.4-0.4,2.7-0.1,4.1-0.5c1.1-0.3,2.4-0.3,3.8-0.6c1.1-0.3,2.1-0.8,3.6-0.8v-0.4c2.6,0,5.2-0.4,7.5-1h1.1c1.5-0.4,3.5-0.6,5-1
			c1.2-0.3,3.8-0.1,4.6-0.6h0.2c-0.1,0.3,0,0.2-0.2,0.4c0,0.8,0.3,0.7,0.6,1.1h0.4c0.1-0.7,0.5-0.9,0.1-1.4c0.3-0.6,1.3-0.3,2-0.5
			c2-0.5,4.5-1.1,6.5-1c-0.1,0.3-0.2,0.6,0,0.9c0.2,0.3,0.4,0.3,0.6,0.5c0.1,0.1,0.1,0.1,0.1,0.4h0.4c0,0.9-0.4,1.3-0.5,2.1
			c-0.2,1.4,0.6,2.4,0.9,3.8c0.6,0.1,0.8,0,1.4-0.1c0-1.1,0.1-2.3-0.4-2.9v-2.4h0.1c0.3,0.6,0.6,1.4,0.8,2c1,0,1.6-0.3,1.9-1
			c3.5,0.2,8.6-2.1,10.1-4.4c0.3,0.2,0.2,0.4,0.4,0.8c0.7,0,0.9-0.2,1.1-0.6c-0.4-0.2-0.6-0.4-0.9-0.2h-0.4v-0.1
			c0.9-0.5,1.5-1.5,2.4-1.9c0.9-0.4,2.3-0.1,3-0.6h0.5c-0.5,0.7-1.5,1-2,1.6c-0.3,0.4-0.4,1.2-0.5,1.5v0.4c0.8-0.2,1.3-0.8,1.8-1.4
			c0.1,0.1,0.1,0.1,0.1,0.4c0.5-0.3,0.2-0.6,0.5-1h0.1c0.2-0.2,2.4-1.9,2.6-2c0.5,0,1.1-0.1,1.6-0.1c2.8-1,6.9-1.5,10-2.5
			c1.9-0.6,6-0.7,6.8-1.9c0.5,0.3,0.9,0.1,1.6-0.1c0.7-0.2,2-0.5,3-0.8h0.9c4.8-2,10.1-2.7,14.8-4.6c0.8-0.3,2.2-0.7,2.9-0.9
			c0.2,0,0.5,0.1,0.8,0.1c0-0.1,0.1-0.2,0.1-0.4c0.6-0.4,1.3-0.2,2-0.5c1.1-0.5,2.4-1.1,3.5-1.5c0.4,0,0.8-0.1,1.2-0.1
			c5.6-2.1,11.5-4.4,17-6.8c4-1.7,9.6-4.1,12-7.2c2-2.7,3.3-7.5,2.8-11.2c0-0.5,0.1-1.1,0.1-1.6c0-0.2-0.3-0.6-0.2-0.9
			c0-0.1,0.2-0.4,0.1-0.6c-1-4.8-2.5-8.3-6.1-10.9c-0.3-0.2-0.3-0.6-0.5-0.9c-0.5-0.5-1.3-0.8-1.9-1.2c-0.1-0.2-0.2-0.4-0.4-0.6
			h-0.5c-0.3-0.2-0.7-0.7-1-0.9c-1.4-0.7-2.8-1-4.4-1.6c-0.9-0.3-1.9-1-2.8-1.4c-0.7-0.3-1.3-0.1-2-0.4c-1.4-0.5-3.6-1.2-5.4-1.9
			c-0.5-0.2-1.1,0-1.6-0.2l-0.5-0.5c-1.3-0.6-2.9-0.7-3.8-1.6c-0.1,0-0.2,0.1-0.2,0.1c-0.5-0.3-1.2-0.7-1.8-1
			c-0.5-0.2-1-0.1-1.4-0.4c-1.4-0.9-2.9-1.8-4.4-2.6v-0.5c-0.8-0.1-1.3-0.9-1.8-1.4c-0.2-0.1-0.3-0.5-0.4-1h-0.5
			c0.1-0.7-0.2-1.5-0.6-2c0-0.4,0-0.7,0.1-1c0.1,0.2-0.1,0.2,0,0.5c0.2,0.3,0.8,0.6,1,0.9c0.1-0.1,0.2-0.2,0.2-0.2h0.1
			c-0.3-0.8-0.9-1.1-1.1-2c-0.7-3.4,2.8-7.5,4.1-9.6h0.5c0.1-1.1,1.3-1.6,2-2.1c0.3-0.3,0.6-0.7,0.9-1c1-0.7,1.9-1.3,2.9-2
			c3.2-2.3,7.1-4.4,10.8-6.2c0.7-0.4,1.3-0.3,2-0.6c1.5-0.7,3.3-1.8,4.9-2.4c2.6-1,4.4-1.5,6.9-2.6c4.1-1.9,8.7-3.5,13-5.1
			c0.5-0.1,1.1-0.2,1.6-0.2c1.9-0.7,3.8-1.4,5.8-2.1l0.4-0.4c0.2,0,0.3,0.1,0.5,0.1c0.7-0.2,1.5-0.4,2.4-0.6
			c1.3-0.4,2.4-0.9,3.8-1.4c0.6-0.1,1.2-0.2,1.8-0.2c2.5-1,5.2-1.4,7.8-2.1c0.6-0.2,1.2-0.3,1.6-0.4c0.2,0,0.5,0.1,0.8,0.1
			c0.2-0.1,0.7-0.5,1-0.6c1.6-0.5,3.2-0.3,4.9-0.9C421.2,217.1,425.6,216.7,429.3,215.7z M517.3,202.6c0.4-0.3,1.7-2.1,2-2.5h0.2
			c-0.4,0.9-0.7,2.4-0.5,3.6c-0.7,0-2.2-0.1-2.8,0.2h-0.5C516,203.3,516.8,203,517.3,202.6z M510.8,204.1c0,0,0.1-0.1,0.1-0.1h0.1
			c-0.1,0.4,0,0.3-0.2,0.5V204.1z M275,310.8c0.4-0.2,1.2-0.4,1.6-0.1c0.8,0,0.9,0.2,1.5,0.4c-0.4,1.3-1.5,1.4-2.4,2.2
			c-0.8,0-0.6-0.3-1.1-0.5C274.9,312.2,274.8,311.3,275,310.8z M272.5,314.4h-0.4c0-0.3,0-0.2,0.1-0.4v-0.4c0.3,0.2,0.1-0.1,0.2,0.2
			c0.1,0.1,0,0,0.1,0.2C272.6,314.3,272.6,314.2,272.5,314.4z M273.4,312.8c0.1-0.2,0-0.1,0.1-0.2
			C273.5,312.8,273.5,312.7,273.4,312.8z M273.4,312.4h-0.8v-0.4h0.5c0.1-0.2,0.2-0.3,0.4-0.5h0.1
			C273.5,311.9,273.5,311.9,273.4,312.4z M282.2,335.9h0.2c-0.2,0.3,0,0.1-0.4,0.2L282.2,335.9z M279.7,337.4c-0.4,0-0.4-0.1-0.6,0
			c0,0-0.1,0.1-0.1,0.1c0.2,0.1,0.2,0.1,0.5,0.1c-0.1,0.7-0.4,0.9-0.5,1.6h-0.2l-0.8-0.8c-0.3-0.5-0.1-1-0.5-1.4
			c0.1-0.3,0.1-0.3,0.2-0.5c0.7,0,1.5,0,1.9-0.2h0.5C279.9,336.9,279.7,336.9,279.7,337.4z M285.9,336.3c0.1,0.4,0.2,0.6,0.4,0.9
			c-0.3,1.4-4.7,2.8-6.1,2.5c0.4-0.7,1.1-0.7,1.8-1.1c1-0.7,1.6-2.3,2.8-2.9c0.7-0.4,1.4,0.1,2-0.4h0.1
			C286.6,335.8,286.3,336.1,285.9,336.3z M288.2,333.8c-0.4,0.3-1.2,0.1-1.6,0.4h-0.2c0.3-0.7,1.2-1.4,1.8-2h0.1
			c0.1,0.2-0.1,0.2-0.1,0.2c0.2,0.3,0,0.1,0.4,0.2v-0.8c0.7-0.6,1.3-1.2,2-1.9h0.1C290.3,331,288.9,333.3,288.2,333.8z M290.7,333.3
			c0.2-0.6,0.7-1,1-1.5h0.2C291.7,332.5,291.3,333,290.7,333.3z M236.4,351.8c-0.1,0.1-0.3,0.3-0.5,0.4v1c0.3,0.1,0.2,0,0.4,0.2
			c0.3,0,0.4-0.1,0.6-0.1c0-0.3,0-0.5,0.1-0.6C237,352,236.9,352,236.4,351.8z M252.2,350.1c0.3,0,0.4,0,0.5-0.1
			c0.1,0,0.2-0.1,0.4-0.1v-0.5h-0.8C252.2,349.6,252.2,349.8,252.2,350.1z M254.2,345.1c-0.7,0.1-1,0.6-1.1,1.2
			c0.6,0.2,1.1-0.1,1.6-0.2c0-0.3,0-0.4-0.1-0.5C254.4,345.3,254.3,345.3,254.2,345.1z M259.9,342.6c0,0.2-0.1,0.5-0.1,0.8
			c0.5,0.3,0.8,0.1,1.4-0.1c-0.1-0.5-0.2-0.7-0.4-1C260.2,342.2,260.3,342.3,259.9,342.6z M263.7,343.7c-0.4,0.1-0.4,0.1-0.6,0.2
			c0,0.2-0.1,0.5-0.1,0.8c0.2,0.2,0.1,0.1,0.2,0.4c0.5,0,0.5-0.1,1-0.4C264.1,343.9,264,344.1,263.7,343.7z M267.9,307.1
			c2,0.1,2.9-0.9,4-2v-1c-0.2-0.2-0.3-0.6-0.5-0.8c-0.2-0.2-0.5-0.2-0.8-0.4c-1.4,0-2.3,0.5-2.9,1.4h-0.1c0.1-0.7,0.2-1.2,0.6-1.5
			c0-0.3,0-0.4-0.1-0.5v-0.1c-0.2-0.1-0.2,0.1-0.2,0.1c-0.5,0-0.6,0-0.9,0.2c-0.3,0.2-0.7,1.7-0.6,2.8c0.2,0.2,0.2,0.5,0.4,0.8
			C267,306.7,267.5,306.7,267.9,307.1z M269.4,304.3c0.5,0,0.7,0,1,0.2c0.1,0.1,0,0.2,0.1,0.5c-0.5,0.1-1.2,0.5-1.6,0.8
			c-0.5-0.1-0.5-0.2-0.9-0.4C268.4,305,269,304.7,269.4,304.3z M267.5,340.8c-0.1,0-0.2,0.1-0.4,0.1c0,0.3-0.1,0.6-0.1,0.9
			c0.2,0.1,0.1,0,0.2,0.1c0.6,0,0.7-0.1,1-0.4h0.1c-0.1-0.4-0.2-0.3-0.2-0.8C267.8,340.7,267.8,340.7,267.5,340.8z M269.4,340.1
			c-0.6,0.1-0.9,0.8-0.9,1.6c0.3,0,0.3,0.1,0.5,0.1c0.3-0.2,0.6-0.4,0.9-0.6c0.1-0.2,0-0.1,0.1-0.2c0-0.3,0-0.5-0.1-0.6
			C269.8,340.2,269.5,340.1,269.4,340.1z M272.2,338.8c0-0.5-0.1-0.6-0.2-0.9c-1.1,0.1-1,0.7-1.1,1.5c0.4,0,0.4,0.1,0.8-0.1
			C271.9,339.2,271.9,339,272.2,338.8z M272.5,343.3c-0.6,0-0.6,0.1-1,0.4v1c0.6,0,1.1,0,1.4-0.2h0.2c0-0.3,0-0.4-0.1-0.5
			C272.9,343.6,272.7,343.6,272.5,343.3z M273.4,339.6c0-0.5,0.1-0.4-0.2-0.6v-0.1c-0.2-0.1-0.2,0.1-0.2,0.1c-0.8,0.1-1,0.4-1.2,1
			c0.6,0.4,1.2,0.5,1.8-0.1h0.1C273.6,339.6,273.5,339.6,273.4,339.6z M276.8,320.1c-0.2,0.1-0.3,0.6-0.5,0.8
			c0.1,0.7,0.1,1.1-0.1,1.8c0.1,0.2,0,0.7,0.1,1c0.3,0.8,1.3,1,1.9,1.5c1.8,0,2.7-1,3.2-2.2c0.1-0.2,0.1-1.1-0.1-1.4
			C281.1,319.9,278.2,319,276.8,320.1z M280.2,321.4c0,0.5,0,0.7-0.2,1c0,0.8-0.3,1.1-0.9,1.2c-0.1,0.1-0.3,0.1-0.6,0.1
			c-0.3-0.4-0.9-0.9-1-1.4c-0.2-0.7,0.2-0.7-0.1-1.1c0.1-0.3,0.3-0.4,0.5-0.6c0.4,0,0.7,0,0.9-0.1
			C279.7,320.6,279.7,320.9,280.2,321.4z M277.7,347.7c0,0.3,0,0.4-0.1,0.5c0,0.7,0.1,0.7,0.4,1.1c0.3-0.1,0.2,0,0.4-0.1
			c0.4-0.2,0.4-0.5,0.8-0.8c-0.1-0.4-0.1-0.4-0.2-0.6C278.3,347.6,278.2,347.6,277.7,347.7z M281.3,354.6c-0.4,0-0.5,0.1-0.8,0.2
			c-0.4,0.3-0.2,0.5-0.4,1c0.1,0.1,0.1,0.1,0.1,0.4c0.4-0.1,1-0.1,1.2-0.4c0.1-0.1,0.2-0.3,0.2-0.4
			C281.7,354.8,281.6,354.9,281.3,354.6z M281.3,341.7c-0.1,0.2-0.2,0.5-0.2,0.8c0.2,0.2,0.2,0.2,0.2,0.6c0.2,0.1,0.1,0,0.2,0.1
			c0.6-0.1,0.5-0.4,0.9-0.6c0-0.7-0.1-0.7-0.4-1.1C281.6,341.5,281.6,341.6,281.3,341.7z M286.2,343.6c0.4-0.3,0.6-0.8,0.8-1.2
			c0.1-0.1,0-0.3-0.1-0.5c0-0.1-0.1-0.2-0.1-0.4c-0.4,0-0.7,0-0.9,0.1c-0.2,0.4-0.5,1.2-0.6,2c0.1,0,0.2,0.1,0.4,0.1
			C285.8,343.8,285.9,343.7,286.2,343.6z M286.9,347.1c-0.8,0-0.8,0.3-1.2,0.6c0,0.2-0.1,0.5-0.1,0.8c0.6,0,0.8,0.1,1,0.5
			c0.5,0,0.5-0.1,0.8-0.2c0-0.7-0.2-0.9-0.2-1.5C287,347.1,287,347.1,286.9,347.1z M287.8,340.7c0.4,0.3,0.8,0.5,1.5,0.2
			c0-0.9-0.4-1.1-0.8-1.6C288.1,339.5,287.8,340.1,287.8,340.7z M292.5,339.9c0,0,0.1,0.1,0.1,0.1c0.4-0.1,0.7-0.3,1-0.5
			c0-0.3,0.1-0.6,0.1-0.9c-0.5-0.1-0.7-0.2-1.4-0.2C292.4,339.1,292.6,339.5,292.5,339.9z M299.5,339.8v-0.4
			c-0.5,0.1-0.3,0.3-0.9,0.4c-0.1,0.3-0.2,0.6,0,0.9c0,0.1,0.1,0.2,0.1,0.4c0.3-0.1,0.5-0.1,0.6-0.2c0.3,0.2,0.3,0.3,0.4,0.6
			c0.4-0.2,0.4-0.4,0.8-0.6C300.4,340.3,299.9,340,299.5,339.8z M298.9,347.3v0.8c0.7,0.2,1-0.2,1.5-0.5c-0.1-0.6-0.2-0.6-0.5-0.9
			C299.2,346.8,299.3,347,298.9,347.3z M301.2,335.1c-0.2-0.6-0.4-0.4-0.8-0.6c-0.5,0.1-0.4,0.2-0.8,0.4v2c0.7,0.2,0.8-0.2,1.6-0.2
			v-0.2c-0.2,0-0.4-0.1-0.6-0.1C300.8,335.8,300.9,335.3,301.2,335.1z M303.3,333.6c0,0.6,0,0.6,0,1c0.3,0.3,0.3,0.5,0.8,0.6v0.1
			c0.1,0,0.2-0.1,0.4-0.1c0.1-0.3,0.1-0.3,0.2-0.5c0-0.6-0.1-0.8-0.2-1.1H303.3z M307,347.4c-0.2-0.1-0.1,0-0.2-0.1
			c-0.5,0.1-0.5,0.3-0.9,0.5v0.8c0.6,0.2,1,0,1.8,0C307.5,348.1,307.2,347.8,307,347.4z M308.5,350.7c-0.3,0-0.4,0-0.5,0.1
			c-0.5,0.2-0.6,0.5-0.8,1c0.2,0.2,0.1,0.1,0.2,0.4c0.5-0.1,1-0.2,1.5-0.2c0.1-0.2,0.1-0.3,0.2-0.4C309.2,351,308.9,351,308.5,350.7
			z M308.9,334.3c-0.1-0.5-0.3-0.5-0.5-0.9c-0.3,0-0.4,0.1-0.6,0.1c0,0.2-0.1,0.4-0.1,0.6c0.2,0.2,0.4,0.4,0.5,0.6
			C308.7,334.7,308.6,334.6,308.9,334.3z M310.2,338.6c0,0-0.1-0.1-0.1-0.1v0.1c-0.7,0.1-0.7,0.3-1.1,0.6c0,0.2,0.1,0.4,0.1,0.6
			c0.3,0.1,0.6,0,1,0.2c0.5,0,0.5-0.1,0.8-0.2v-0.8h-0.4C310.3,338.7,310.4,338.7,310.2,338.6z M323.7,336.6c0,0.3,0.1,0.6,0.1,0.9
			c0.6,0,0.9-0.2,1.2-0.5c0.1,0,0.2-0.1,0.2-0.1c-0.1-0.4-0.2-0.5-0.2-1C324,335.8,324.2,336.1,323.7,336.6z M391.7,368.8
			c-0.2,0-0.4-0.1-0.6-0.1v-0.2c-0.2-0.2-0.8-0.6-1-0.8h-0.5c-0.1-0.1-0.1-0.5-0.2-0.6c-0.1-0.2-0.4,0-0.6-0.1
			c-0.3-0.2-0.2-0.5-0.6-0.8c0.1-0.9-0.1-1.1-1-1.2c-1.5,1.5-5.6,1.9-7.6,3c-4.7,2.6-10.5,3.9-15.6,6.2c-3,1.3-5.8,2.7-9,3.9
			c-1,0.4-1.5,0.8-2.8,0.9v-0.4c0,0-0.1,0.1-0.1,0.1c-0.2,0.2-0.2,0.2-0.2,0.6c-2.1,0.5-5.1,2.5-6.8,2.4v0.4
			c-1.2,0.5-2.4,1.3-3.5,1.8c-1,0.4-1.7,0.5-2.8,0.9c-0.6,0.2-1.8,1.3-2.4,1c-0.7,0-1.5,1-2.1,0.6c-0.5,0-0.6,0.1-0.9,0.2
			c0,0.2-0.3,0.9-0.2,1c0.1,0.6,1,0.7,1.5,1l0.8,0.8c1.3,0.7,3.1,0.5,4.4,1.2l1.9,1.9c-0.1,0.3-0.2,0.3-0.5,0.5c0,0.3,0,0.4,0.1,0.5
			c0,0.4,0,0.5,0.1,0.8c1.5,0,1-0.2,1.9-0.8c0.4-0.3,1.1-0.1,1.5-0.4c0.2-0.2,0.4-0.5,0.6-0.8c0.4-0.1,0.8-0.2,1.1-0.2
			c0.9-0.4,1.8-1.2,2.6-1.6c2.4-1.1,4.6-2.3,6.9-3.5c1.7-0.8,3.4-1.2,5-2.1c0.3-0.1,0.4-0.8,0.6-0.9c0,0,1.3-0.1,1.6-0.2
			c0.8-0.4,1.9-1.2,2.8-1.6c0.6-0.3,1-0.1,1.5-0.4c1.5-0.6,2.9-1.8,4.4-2.4c0.1,0,0.2,0.1,0.4,0.1c0.2-0.1,0.5-0.5,0.8-0.6
			c0.3,0,0.7-0.1,1-0.1c0.8-0.4,1.5-1,2.8-1c0-0.3,0-0.4,0.1-0.5c0.8-0.5,1.5,0,2.4-0.4c0.2-0.1,0.6-0.5,0.9-0.6
			c0.2,0,0.5-0.1,0.8-0.1c0.5-0.2,1.2-0.8,1.8-1c0.5-0.2,0.5,0.2,1-0.1c0.4-0.3,1.1-0.9,1.5-1.1c0.3-0.1,0.5,0.2,0.6,0.1
			c0.1,0,0.4-0.3,0.5-0.4h0.8c0.6-0.2,1.3-0.5,2-0.8c0.3-0.1,0.4-0.4,0.6-0.6c0.1,0.2,2.9-0.8,3.5-0.9
			C392.8,370.1,392.7,369.5,391.7,368.8z M390.5,370.2c-2.8,1.6-5.9,2.3-9,3.5c-0.8,0.3-1.4,1.1-2.1,1.4h-0.6c-0.9,0.3-2,1-3.1,1.1
			v0.4c-1.2,0-4.7,1.3-5.5,1.9c0,0.1-0.1,0.2-0.1,0.4c-0.2,0-0.3-0.1-0.5-0.1c-0.2,0.2-0.3,0.3-0.5,0.5c-0.4,0.1-0.8,0.2-1.1,0.2
			c-0.2,0.2-0.3,0.4-0.5,0.6c-0.3,0.2-0.6,0.1-1,0.2c-0.6,0.3-1.5,0.8-2.1,1.1h-0.6c0,0.1-0.1,0.2-0.1,0.4c-0.4,0-0.8,0.1-1.1,0.1
			c-1.4,0.6-3.3,2.7-4.9,2.1c0.1,0.4,0.1,0.3,0.2,0.5c-0.4,0.2-1.3,0.2-1.8,0.5v0.2c-0.2,0.2-0.8,0.6-1,0.8
			c-0.9,0.4-1.7,0.5-2.6,0.9c-0.5,0.2-0.9,0.8-1.4,1c-0.6,0.3-1.1,0.2-1.6,0.5c-0.6,0.3-1.1,0.9-1.6,1.1c-1.5,0.7-3.3,1.2-4.6,2.1
			c-0.4-0.2-0.1-0.5-0.4-0.9c-0.2-0.4-0.8-0.4-1.1-0.6c-0.9-0.6-0.9-1.2-2.2-1.5v-0.6c-1,0.2-2.1,0.2-3-0.4h-0.2v-0.4
			c0.7-0.1,2.2-0.8,2.8-1.1c0.1-0.2,0.2-0.3,0.4-0.5c0.5,0,0.9-0.1,1.4-0.1c2.8-1.4,6.3-3,9.4-4.4c0.5-0.2,0.9-0.1,1.4-0.2
			c1-0.4,2.1-1,3.1-1.4c0.5-0.2,0.9,0,1.4-0.2c4.3-1.9,8.8-3.5,12.9-5.6c0.6-0.3,1.2-0.2,1.9-0.5c1-0.4,2.3-1.1,3.4-1.5
			c0.3-0.1,0.6,0,0.6,0c1.9-1.2,4.2-1.8,6.4-2.8c1.5-0.7,3.3-1.9,5.2-2.1c0,0.2-0.1,0.5-0.1,0.8c2.3,0,2.5,1.9,4.4,2.4V370.2z
			 M343.4,244.9c-0.2,0-0.4-0.1-0.6-0.1v0.4c0.2,0,0.4,0.1,0.6,0.1V244.9z M369,378.4c0,0,0.1,0.1,0.1,0.1c0.3-0.2,0.1,0,0.2-0.4
			H369V378.4z M383.9,290.4c0.3-0.1,0.3-0.2,0.5-0.4c-0.1-0.6-0.2-0.6-0.5-0.9c-0.4,0.1-0.4,0.1-0.6,0.2c0,0.2-0.1,0.4-0.1,0.6
			c0.2,0.2,0.3,0.2,0.4,0.5C383.8,290.5,383.8,290.5,383.9,290.4z M421.8,289.7c0.3,0.2,0.3,0.7,0.6,0.9c0.6,0.4,1.2,0.7,1.8,1.1
			c0.4,0.4,0.8,0.8,1.2,1.2c0.3,0.2,0.7,0.2,1,0.5c0.1,0.1,0.1,0.4,0.2,0.5c0.2,0.1,0.5,0.2,0.8,0.2c1.2,1,2.2,2,3.5,3l1,1
			c0.3,0.2,0.9,0.1,1.2,0.2c1.1-0.1,0.5-0.4,1-0.8c0.3-0.2,0.8,0,1-0.1c0.4-0.4,0.8-0.8,1.2-1.2c0-0.5,0.1-0.9,0.1-1.4
			c-0.8-0.2-0.7-0.7-1.1-1.1c-0.4-0.4-1.1-0.5-1.6-0.9c-0.6-0.5-1.1-1.3-1.8-1.8c-1.1-0.8-2-1.5-3.1-2.2c-0.9-0.6-1.5-1.9-2.4-2.5
			c-1.5-1.1-3.2-2.2-4.2-3.6c-0.1-0.2,0.1-0.3,0.4-0.5v-0.2c-0.3,0-0.2,0-0.4,0.1c-1-0.3-1.5-1.5-1.9-2.5c-0.9-2.1-1.6-2.6-0.8-5.1
			c0.2-0.6,0-1.1,0.4-1.4c-0.1-0.4-0.3-0.6-0.6-0.8c-0.4-0.2-3.4,0.2-3.6,0.4c-0.3-0.2-0.1,0-0.1-0.4c-0.4,0.3-1,0.6-1.4,1
			c-0.9,1.1-0.8,3.5-0.4,4.9v1.1c0.2,0.5,0.4,1.6,0.8,2.1c0.7,1.2,1.6,2.4,2.4,3.6c0.2,0.3,0.6,0.5,0.8,0.9c0.1,0.1,0.1,0.1,0.1,0.4
			c1.2,0.1,2.5,2.5,3.4,3.2C421.3,289.7,421.6,289.5,421.8,289.7z M420,286.2v-0.4h-0.4c-0.9-1.6-2.6-2.9-3.5-4.5
			c-0.6-1-0.6-2.8-1.2-3.8v-3c0.4,0.7,1.1-0.4,1.2-0.5c0.4-0.2,0.9,0,1.1-0.1h0.9c-0.3,0.7-0.9,3-0.4,4.2c0.1,0.3,0.6,0.7,0.8,1
			c0.2,0.5,0.2,1,0.5,1.5c0.1,0.1,0.2,0.2,0.4,0.2c0.1,0.3-0.1,0.4,0.1,0.9h0.5v0.5c1.1,1.1,1.8,2.7,3,3.6c2.2,1.7,4.2,3.5,6.4,5.2
			c0.4,0.3,0.5,1,0.9,1.2c0.6,0.5,1.6,0.6,2.1,1.1c0.6,0.6,1.2,1.3,1.9,1.9c0.1,0.1,0,0,0.1,0.2c-0.4,0.3-1.2,0.6-1.5,1
			c-1.8-0.6-2.8-2.2-4.1-3.2c-1.8-1.3-3.6-2.7-5.4-4C422.2,288.5,421.3,287.1,420,286.2z M447.5,247.8c0.5-0.2,1-0.4,1.9-0.4
			c0.1-0.4,0.2-0.7,0.4-0.9c-0.2-0.6-0.6-1.2-1.2-1.4c0-0.6,0-0.6,0-1.1c-0.8-0.1-2.6-0.2-3.4,0.2c0,0.1-0.1,0.2-0.1,0.4h-1
			c-0.9,0.2-2.1,0.3-3.1,0.6c-0.4,0.2-1.6,0.8-2,0.8c-2.4,0-5.1,1.5-7.1,2.4c-0.4,0.2-1.5,0.5-1.9,0.6h-0.8c-1.8,1-4,1.6-6,2.4
			c-0.2,0.1-0.7,0.3-0.9,0.5v0.2c-0.4,0.3-0.9,0.1-1.2,0.4c-0.1,0.2-0.2,0.3-0.4,0.5h-0.5c-0.1,0.2-0.2,0.4-0.4,0.6h-0.5
			c-0.3,0.3-0.4,1-1,1.4c0,1.1,0.4,1,0.2,1.8c0.7,0.4,1.5,1,2.2,1.2h1.2c0,0,1.2,0.6,1.2,0.6c0.9-0.1,1.1-0.5,1-1.1
			c0.2-0.2,0.5-0.2,0.6-0.4c0.2-0.3,0.3-0.6,0.5-0.9c0.5-0.7,1.5-0.9,2.2-1.4l1-1c0.8-0.5,1.9-0.9,2.9-0.9c0.6-0.4,1.5-0.5,2.2-0.9
			c1-0.4,2.3-1.3,3.4-1.8c0.4,0,0.8-0.1,1.2-0.1c0.1-0.2,0.2-0.3,0.4-0.5c0.1,0,0.3,0.2,0.5,0.1c0.4-0.1,1.3-0.4,1.6-0.6
			c0.6,0.1,0.8,0.2,1,0.6h0.2c-0.1-0.4-0.3-0.4-0.4-0.8c0.9-0.4,1.9-0.9,2.9-1.1C445.7,247.8,446.6,248.1,447.5,247.8z M427.8,251.1
			h0.2v0.1h-0.2V251.1z M436.9,249.3c-0.7,0.2-1.1,0.1-1.8,0.4c-1,0.5-2.2,1.3-3.2,1.8c-0.6,0.3-1.2,0.1-1.9,0.4
			c-0.7,0.3-1.5,0.9-2.1,1.2c-1.6,1.1-3.9,1.9-4.6,3.9c-0.6-0.1-2-0.4-2.4-0.8c-0.7,0-0.7-0.1-1.1-0.4c0.3-0.8,2-2.3,2.8-2.6h0.8
			c0.3-0.1,0.7-0.7,1-0.9c0.2,0,0.5-0.1,0.8-0.1h0.1c0-0.2,0.1-0.3,0.1-0.5h0.4c-0.2,0.3,0.1,0.1-0.2,0.2v0.4
			c0.5-0.1,0.8-0.5,1.1-0.8c0,0,0.1,0.1,0.1,0.1c0.1,0.2,1.3-0.1,1.5-0.2h0.2c0-0.2-0.1-0.4-0.1-0.6c0,0,0.1-0.1,0.1-0.1
			c0.9,0.1,1.4,0.6,2.2-0.1c0.1-0.3,0.1-0.1-0.1-0.4v-0.1c0.4-0.1,0.4-0.2,0.6,0.1c1.1-0.1,0.4-0.3,0.9-0.6h0.6
			c0.3-0.1,0.6-0.6,0.9-0.8c0.6-0.3,1.3-0.2,1.9-0.4l0.2-0.1v0.2h0.9v-0.2c-0.2-0.1-0.5-0.1-0.9-0.1v-0.1c1.1-0.3,2-0.6,3-1
			c0.3,0,0.7,0.1,1,0.1v-0.2c0.1-0.1,0.5-0.2,0.5-0.2c0.2,0,0.4,0.1,0.6,0.1c0.9-0.2,1.7-0.6,2.5-0.9c1-0.4,2-0.1,2.8-0.6
			c0.8,0,1,0.2,1.5,0.4c0,0.3,0,0.4-0.1,0.5c-1,0.6-3.3,0.5-4.5,1C441,247.9,439,248.6,436.9,249.3z M441.8,345.2h0.6
			c0.6-0.3,1.2-1,1.8-1.2c0.3-0.2,0.7,0,1-0.1c1-0.6,2-1.7,3-2.2c0.4-0.2,0.8-0.1,1.2-0.4c0.8-0.4,0.5-1.3,1.8-1.4
			c-0.1-0.8,2.8-3.1,3.5-4c2.8-3.9,6.2-8.9,3.1-13.9c-0.3-0.4-0.3-1-0.6-1.4c-0.2-0.1-0.4-0.2-0.6-0.4c-0.4-0.8,0.2-0.9-0.6-1.2
			c-0.6-0.4-1.1,0.5-1.5,0.8c-0.5,0.1-1,0.2-1.5,0.2c-0.6,0.3-1,0.8-1.9,0.9v-0.6c-0.3,0.1-0.6,0.3-0.9,0.5l-0.4,0.4
			c0.1,1.1,0.5,1.7,0.8,2.8c0.5,2.2-2.4,6-3.6,6.8v0.5c-0.2,0-2,1.2-2.1,1.4c-0.2,0.2,0,0.5-0.2,0.6c-0.2,0-0.5,0.1-0.8,0.1
			c-0.2,0.1-0.1,0.5-0.2,0.6c-0.2,0.1-0.5,0.2-0.8,0.2c-0.8,0.5-1.4,1.6-2.2,2.1c-0.3,0.1-0.7,0.2-1,0.4c-0.9,0.6-1.8,1.4-2.8,2
			c-0.8,0.5-1.6,0.6-2.4,1c-1.8,1-3.8,2.2-5.4,3.5c0,0-0.8-0.1-1.1,0c-0.4,0.1-0.9,0.3-1.4,0.5c-0.5,0.2-1,0.8-1.5,1
			c-0.2,0-0.5,0.1-0.8,0.1c0,0.2-0.1,0.3-0.1,0.5h-0.8c-0.7,0.2-1.5,0.6-2.2,0.9c-0.1,1.6,0.6,1.6,1.6,2.4c0,0.1,0.1,0.2,0.1,0.4
			c0.7,0.8,1.1,0.9,1.8,2h0.2c-0.1-0.3-0.1-0.3-0.2-0.5v-0.2c1,0.2,1.7,1.1,2.6,1.5c1.7,0.7,2.8-1.1,4-1c0.4,0,0.6-0.3,1-0.5
			c0.4,0,0.8-0.1,1.2-0.1c0.6-0.2,1.3-0.9,1.9-1.1c1.7-0.7,3.2-1.4,4.8-2.2C440.7,346.2,441.3,345.4,441.8,345.2z M428.3,350.1
			c-0.7-0.7-1.4-0.7-2.4-1.1c-0.8-0.4-1.8-1.2-2.4-1.9c-0.1-0.1-0.1-0.1-0.1-0.4c1.5-0.1,2.7-1.4,3.8-1.9c0.5-0.2,1.6-0.3,1.9-0.2
			c1.6-0.9,3.3-1.7,4.9-2.8c0.5-0.3,1.2-1.2,1.8-1.4c0.2,0,0.4,0.1,0.6,0.1c0.2-0.1,1.4-0.6,1.6-0.8l1-1c0.6-0.5,1.3-0.7,2-1.1
			c0.3-0.3,0.6-0.7,0.9-1h0.6c0.5-0.2,0.8-0.9,1.2-1.1h0.4c0.5-0.3,1.9-1.4,2.2-1.9c0.2-0.2,0.3-0.6,0.5-0.8
			c0.4-0.3,0.8-0.3,1.1-0.6c0.5-0.7,1.2-1.6,2-1.6c-0.1-0.9,0.4-1,0.8-1.6c0.2-0.4,0.1-0.9,0.4-1.4c0.9-1.5,1.3-2.3,1-4.4
			c-0.1-0.5,0.2-1.1,0-1.2c0.3-0.3,0.8-0.2,1.2-0.4c0.5-0.2,1.1-0.6,1.5-1c1,0.3,2.6,3.3,2.9,4.5c0.1,0.3-0.2,2.6-0.4,3
			c-0.1,0.5-0.6,0.8-0.8,1.1c-0.4,0.7-0.1,1.5-0.6,2.2c-1.1,1.6-2.6,3.1-3.9,4.9c-0.7,1-2.1,1.4-2.6,2.5H449c-0.1,0.7-0.5,0.9-1.2,1
			v0.4c-1.4,0.3-2.1,1.6-3.2,2.1C438.9,344.8,434.8,348.9,428.3,350.1z M424.9,252.3v0.4c0.2-0.1,0.1,0,0.2-0.1h0.1
			C425.1,252.2,425.3,252.4,424.9,252.3z M433.2,249.3v0.4c0.6,0,1.2-0.2,1.5-0.5h0.2v-0.2c0,0-0.1-0.1-0.1-0.1
			C434,248.9,434,249.2,433.2,249.3z M438.5,247.7h0.4v-0.4h-0.4V247.7z M631.5,236.6c-1.6,0-3.3-0.4-4.6-0.2
			c-1.5,0.2-4.1,0.4-5.9,0.1c-0.9-0.1-2-0.8-3-0.5c-0.5,0.1-1,0.4-1.5,0.5c-1.1,0.2-4.5-0.2-5.2,0.2c-0.8,0-3.2,0.3-3.5-0.2
			c-0.1-0.3,0.2-1.4,0.5-1.8c0-0.8-0.1-1.1-0.4-1.5c-1.7,0-1.1,1.8-1.8,2.9c-0.3,0.3-0.6,0.6-0.9,0.9c-0.7,0-1.9,0.2-2.2,0h-0.2
			c0.1-2.7,0.8-5.4,0.4-8c-0.3-0.1-0.7-0.2-1,0c-1.1,0.6-0.3,3.1-1,4.2v3.2c-0.3,0.1-0.5,0.1-0.6,0.2h-1c-0.4-1.8-0.7-3.8-1.1-5.5
			c-0.2-0.8,0.4-1.2,0.2-1.8c-0.1-0.3-0.8-1.7-0.5-2.2c0.1-0.2,0.2,0.1,0.4-0.5H598c0-0.8-0.1-1-0.4-1.5c-0.6,0-0.7,0.1-1,0.2
			c0,1.6-0.3,3.6,0.1,5.1c0.2,0.8,0.5,2.1,0.6,2.9c0.1,1.1,0.7,2.7,0.1,3.6c-0.4,0.8-1.6,0.3-2.5,0.5c-1.9,0.5-4.1,0.2-5.9,0.8
			c-1.5,0.4-3.9,0.2-5.8,0.6h-2c-3.4,0.8-7.9,1-11.2,1.6c-2.3,0.4-4.5,0-6.6,0.6c-1.1,0.3-2.9,0.4-4,0.8c-0.9,0.3-2.1,0-2.6,0.1
			c-4.1,1-9.2,1.3-13,2.2c-0.6,0.1-0.9-0.1-1.2,0c-1,0.2-2.3,0.5-3.4,0.8h-0.9c-4.7,1.5-11.1,1.8-15.9,3.2c-1.2,0.3-2.1,0.1-3.2,0.5
			c-2.7,0.8-5.9,1.5-8.5,2.4c-1,0.3-2.2,0.1-3,0.4c-1.5,0.6-3.4,1.1-4.9,1.8c-0.8,0.4-1.6,0.2-2.5,0.5c-0.9,0.3-2.2,0.9-3.1,1.2
			c-0.3,0-0.7,0.1-1,0.1c-0.2,0.1-0.4,0.4-0.6,0.5c-0.2,0-0.4-0.1-0.6-0.1c-0.5,0.1-1.1,0.6-1.6,0.8c-2.1,0.7-4.1,1.2-6.1,2.1
			c-0.9,0.4-1.9,1.1-2.9,1.5c-1.9,0.8-4.1,1.5-5.5,2.8c-0.5-0.1-0.4-0.1-0.6-0.5c-0.6,0.1-0.5,0.2-0.9,0.4c-0.1,0.4,0,0.8,0,0.9
			c-0.6,1.2-2.6,1.3-3.4,2.4c-0.4-0.1-0.4-0.2-0.6-0.5c-0.4,0-0.8,0-1,0.1h-0.2c0.1,0.7,0.3,0.8,0.5,1.4c-1.3,0.6-2.6,1.5-3.6,2.5
			c-0.5,0.5-0.6,1.1-1.4,1.4c-0.3,0.1-0.7-0.1-1.2-0.1c0,0.6,0,0.9,0.2,1.1c-0.1,0.3-0.4,0.5-0.6,0.8c0,0-0.5-0.4-0.8-0.6
			c-0.6,0.1-0.5,0.2-0.9,0.4c0,0.5-0.1,0.4,0.1,0.8c0.2,0.4,0.1,0.3,0.6,0.4c-0.5,1.4-1.9,2.1-2.2,3.6c-0.2,0.1-0.1,0-0.2,0.1
			c-0.4-0.5,0.1-1.4-0.4-2.1c-0.3-0.5-1-0.8-1.4-1.2c-2.5,0-2.6,5.1-1.4,6.6v0.6c0,0-0.1-0.1-0.1-0.1c-1.2-0.6-1.9-4.2-2.4-5.8
			c-0.5-1.8-1.4-3.8-2-5.8c-0.5-1.5-0.4-3.5-1-4.9c-0.2-0.4-0.7-1-0.9-1.4c-0.1-0.4-0.2-0.8-0.2-1.1c-0.2-0.3-0.5-0.2-0.6-0.6
			c-0.5,0-0.6,0.1-0.9,0.2c0.1,1.7,0.7,5.2,1.5,6.6c-0.1,0.2-0.2,0.3-0.4,0.5c0.1,0.1,0.4,0.1,0.5,0.2c0.3,0.5,0.4,1.5,0.6,2
			c0.4,1.2,0.5,2.8,1.2,4.1c0.2,0.4,0.7,0.9,0.9,1.2c0.7,1.3,0.7,2.8,1.6,3.9v0.4c-0.4-0.1-0.9-0.3-1.2-0.4
			c-0.8-0.2-1.4,0.2-2.1,0.1c-0.1,0.2-0.2,0.2-0.2,0.5c-0.1,0.2,0,0.2,0.1,0.4c0.2,0.4,1.3,1.2,1.9,1.1c0.4-0.1,1.2-0.2,1.6,0
			c0.5,0,0.9,0,1.2,0.1c0.3,1.1,1.7,4,0.9,5.2v0.4c0.3-0.1,0.4-0.2,0.6,0c0.7,0,1-0.3,1.1-1c0.7,0.4,1.1,1.4,1.8,1.9
			c0.3,0.2,0.7,0.2,0.9,0.5c0.1,0.2,0.1,0.5,0.2,0.6c0.4,0.3,0.9,0.2,1.2,0.5c1.3,0.8,2.7,1.7,4.1,2.4c0.4,0.2,1.5,0.2,1.6,0.2
			c0,0.1,0.1,0.2,0.1,0.4h1c0.7,0.2,1.9,0.6,2.8,0.9h0.9c3.3,1,6.7,1.1,10.2,1.8c0.7,0.1,2-0.1,3.1,0.1c3.5,0.8,7.4,1.3,10.9,2.6
			c1.2,0.5,2.5,1.4,3.6,2c0.4,0.1,0.8,0.2,1.1,0.2c0.4,0.3,0.9,1,1.4,1.2c0.9,0.5,1.6,0.8,2.4,1.5c0.4,0.3,0.6,0.8,1,1.1
			c1.5,1.1,4.3,3.4,4.9,5.2c0.1,0.3,0,0.4-0.2,0.6v0.1c0.4-0.1,0.4-0.1,0.6-0.4c1,0.8,1.5,2.2,2.2,3.2c0.9,1.1,2.1,2.3,2.8,3.6
			c0.5,1.1,1.5,2.7,0.8,3.4v0.1c0.4-0.1,0.4-0.2,0.9-0.2c0.2,1.1,0.9,1.8,1.2,2.6c0.5,1.1,0.5,2.4,1,3.5c0.2,0.5,0.7,1.2,0.9,1.8
			c1.3,4.1,0.7,10.6-0.8,13.8c-2.8,6-7.6,12.3-12.5,16.1c-0.5,0.4-0.8,1.1-1.2,1.5c-2.5,1.9-4.5,4-7,5.9c-0.8,0.6-1.5,1.6-2.4,2.2
			c-3,2.2-5.8,4.5-8.9,6.8c-0.8,0.6-1.5,1.5-2.4,2.1c-6.4,4.7-13,9.3-19.8,13.6c-1.8,1.2-3.7,2-5.6,3.1c-5.7,3.4-11.5,6.7-17.9,9.5
			c-1.4,0.6-4.1,2.4-5.6,2.6c0-0.3,0-0.4-0.1-0.5c-0.1-0.1-0.1-0.1-0.4-0.1c0,0.3,0,0.6,0.1,0.8c-0.2,0.3-0.6,0.3-1,0.4
			c-0.3,0.7-0.3,0.9-0.1,1.9c1.4-0.1,2.3-1.2,3.4-1.8c2.2-1.1,4.6-1.9,6.6-3.1c1.2-0.7,2.5-0.9,3.6-1.6c2.6-1.6,5.6-3,8.4-4.5
			c4.5-2.4,8.7-5.6,13-8.2c3.5-2.2,6.8-4.3,10.2-6.6c0.5-0.3,0.8-0.9,1.2-1.2c1.2-1,2.5-1.6,3.8-2.5c1.6-1.1,3-2.6,4.6-3.8
			c1.5-1,2.6-2.2,4-3.2c0.7-0.6,1.7-0.9,2.4-1.5c1.8-1.6,3.5-3.2,5.4-4.6c0.2-0.3,0.5-0.6,0.8-0.9c3.3-2.5,6.7-5.4,9.2-8.8
			c0.5-0.5,1-0.9,1.5-1.4c1.7-2.2,3.8-4.3,5.2-6.8c1.7-2.9,2.8-6,3.9-9.6c0.3-0.9,0.4-3.9,0.2-4.6c-0.1-0.2-0.3-0.5-0.2-0.9
			c0.2-2.4-1.1-5.2-1.8-7.4c0-0.1,0.1-0.2,0.1-0.4c-0.5-1.6-1.7-3-2.2-4.6c0-0.2,0.1-0.4,0.1-0.6c-0.1-0.3-1-1.2-1.2-1.5
			c-0.6-1-0.7-2-1.4-2.9c-0.2-0.2-0.5-0.4-0.8-0.6c0-0.1,0.1-0.2,0.1-0.4c-0.2-0.4-0.9-0.8-1.1-1.2v-0.4c-0.1-0.1-0.5-0.1-0.6-0.2
			c-0.6-0.7-0.8-1.8-1.4-2.5c-0.8-1-1.7-2.2-2.6-3.1c-0.4-0.3-0.8-0.6-1.1-0.9c-0.4-0.5-0.7-1.1-1.2-1.5c-0.9-0.7-1.6-1.5-2.5-2.1
			c-0.6-0.4-1.2-0.6-1.8-1c-0.1-0.1-0.1-0.1-0.1-0.4c-1-0.2-1.7-1.1-2.5-1.5c-2-0.9-4.1-1.8-6.1-2.6c-0.4,0-0.8-0.1-1.2-0.1
			c-1.9-0.6-3.5-0.8-5.4-1.4c-0.7-0.2-0.9,0.1-1.4-0.2c-0.3-0.1-0.2-0.1-0.5-0.2v-0.6h-0.4v0.9c-2.1-0.3-3.7-0.4-5.4-0.8
			c-0.8-0.2-1.2,0.2-1.8,0c-0.2-0.1-0.3-0.2-0.6-0.2h-1.2c0-0.1-0.1-0.2-0.1-0.2c-1.1-0.4-2.7,0-3.9-0.4c-2.3-0.7-4.9-1.2-7.1-2
			c-0.6-0.2-0.9-0.8-1.8-0.9c-0.1-0.2,0-0.1-0.1-0.2c0.2-0.2,0.3-0.2,0.8-0.2v-0.2c-0.3-0.1-1.1,0.2-1.4,0.1c-0.9-0.3-1.3-1.2-2-1.6
			c-0.2,0-0.4-0.1-0.6-0.1c-0.2-0.2-0.2-0.7-0.5-0.9c-0.2-0.2-0.7-0.2-0.9-0.4c0-0.1,0.1-0.2,0.1-0.4c-0.2-0.3-0.6-0.7-0.9-1v-0.1
			c0.9,0.7,1,1,2.4,0.9c0-0.3,0-0.2,0.1-0.4c-0.2-0.4-1.1-0.8-1.5-1c0.1-0.5,0.3-0.5,0.5-0.9c0.5,0,1.6,0.2,1.9,0.4
			c0.9,0.1,1.1,0,1.1-0.9c0,0,0.1-0.1,0.1-0.1c0.3,0,0.2,0,0.4,0.1h0.4c-0.2-0.4-0.3-0.4-0.6-0.6c0-0.5,1.4-3.3,1.8-3.6
			c0-0.1-0.1-0.2-0.1-0.4c-0.3-0.1-0.5-0.3-0.9-0.4c-0.7,0.7-1.5,2-2.2,2.6c-0.5,0.4-1.2,0.7-1.6,1.2c-0.4,0-0.3,0.1-0.5,0
			c-1.1-0.1-1.1-1.4-0.6-2.2c0.4-0.6,1-1.3,1.4-1.9c0.2-0.4,0-0.9,0.2-1.4c0.6-1.3,2-2.2,2.8-3.2c0.1-0.2,0.1-0.4,0.2-0.6
			c0.3-0.4,0.9-0.6,1.2-1c0.9-1.1,2.2-2.4,3.4-3.2c0.4-0.2,0.8-0.2,1.1-0.5c0.5-0.4,1-1,1.5-1.4c1.2-0.9,2.6-1.4,3.9-2.2
			c0.4-0.3,0.9-0.9,1.4-1.1c4-2,7.9-3.7,12.2-5.5c0.6-0.3,1.6-0.6,2.1-0.8c0.2,0,0.3,0.1,0.5,0.1c0.2-0.1,0.8-0.5,1-0.6h0.6
			c0.9-0.3,2-0.8,2.9-1.1c0.6-0.2,1,0,1.6-0.2c2.1-0.7,4.6-1.6,6.8-2.4c1-0.3,1.8,0,2.9-0.4c1.1-0.4,2.5-1,3.6-1.2
			c0.3-0.1,0.8,0.3,0.9,0.2c1.3-1,2.7-0.7,4.4-1.2c3.2-1,7.1-1.5,10.4-2.4c1.3-0.4,2.5,0,3.9-0.4c2.8-0.8,6.3-1,9-2
			c0.8,0,1.6-0.1,2.4-0.1c1.8-0.5,4-0.6,5.5-1.1c1.6,0.4,6.1-0.8,7.9-1.1c2.2-0.4,5.4-0.4,7.8-1c1.1,0,2.2-0.1,3.2-0.1
			c0.2-0.2,0.3-0.3,0.5-0.5c0.3-0.1,0.8,0.4,1.4,0.2c3.9-1,8.4-0.9,12.4-1.8c1-0.2,1.6,0.3,2.5,0.1c1.3-0.3,3-0.3,4.2-0.6h1.1
			c2-0.5,4.5-0.8,6.9-0.8c-0.1,1.1-1.2,3.4-0.9,3.9c0,0.6,0.1,0.7,0.2,1c0.4,0,0.8-0.1,1.2-0.1c0.2-0.6,0.4-1,0.4-2
			c0.5,0.2,0.9,0.4,1.4,0c0.4-0.2,0.8-1,0.9-1.5c0.3,0.1,0.6,0.5,0.8,0.8c1.7,0,1.6-1,2.8-1.4c0.4-0.2,1.9,0.4,2.2,0.1
			c1.4-0.1,0.6-1.2,1.6-1.5c1.5-0.4,3.2,0.2,4.5,0c3.2-0.6,6.9-0.2,10.4-0.2h4.4c0.7,0.2,2.2,0.5,3.2,0.2c0.3-0.1,0.5-0.4,0.8-0.5
			C632,236.9,631.9,237,631.5,236.6z M461.3,279.3c-0.1,0.5-0.4,1.2-0.5,1.8c-0.6-0.9-1.2-4.9-0.4-5.8c0.1-0.1,0.1-0.1,0.4-0.1
			c0.1,0.5,0.4,0.5,0.5,0.9C461.1,276.8,461.5,278.5,461.3,279.3z M599.9,239.3v-0.4c0.1-0.1,0.2-0.2,0.2-0.2h0.2
			C600.3,239.3,600.3,239.3,599.9,239.3z M457.5,267.9c-0.2,0.2-0.2,0.4-0.2,0.8c0.1,0.1,0.3,0.3,0.4,0.5c0.2,0,0.5-0.1,0.8-0.1
			c0.1-0.2,0.2-0.3,0.4-0.5v-0.2c-0.3-0.2-0.4-0.4-0.8-0.5c-0.1-0.1,0,0-0.2-0.1C457.7,267.8,457.6,267.8,457.5,267.9z M462.9,272.1
			c0.8-0.1,1-0.4,1.5-0.8c-0.1-0.5-0.2-0.5-0.4-0.9c-0.7,0.1-0.7,0.2-1.1,0.5C462.9,271.5,462.9,271.4,462.9,272.1z M466.5,268.4
			c-0.7,0-0.7,0.1-0.9,0.6c0.3,0.2,0.4,0.4,0.5,0.8c0.3,0,0.2,0,0.4-0.1c0.4-0.2,0.3-0.3,0.5-0.6c0-0.3,0-0.2-0.1-0.4
			C466.8,268.6,466.6,268.5,466.5,268.4z M468.7,260.1c-0.7-0.1-0.9-0.3-1.8-0.2c-0.1,0.1-0.3,0.3-0.5,0.4c0,0.8,0.2,0.7,0.5,1.1
			c0.6-0.1,1-0.4,1.6-0.5C468.6,260.6,468.6,260.3,468.7,260.1z M468.4,267.8c0.6-0.1,0.5-0.2,0.9-0.5c-0.1-0.6-0.3-0.7-0.6-1
			c-0.6,0.1-0.6,0.2-1,0.5v0.6c0.1,0.1,0.3,0.3,0.4,0.5C468.3,267.9,468.3,267.9,468.4,267.8z M476.5,227.3c-0.7,0-0.8,0.1-1.2,0.4
			v0.6c0.1,0.1,0,0,0.1,0.2c0.3,0.1,0.2,0,0.4,0.1c0.7-0.1,0.9-0.3,1.4-0.6C477,227.5,476.8,227.6,476.5,227.3z M475.8,257.3
			c0,0-0.1,0.1-0.1,0.1c0,0.7,0.1,0.8,0.4,1.2c0.5-0.1,0.5-0.2,1-0.2c0-0.3,0-0.5-0.1-0.6C476.7,257.4,476.2,257.4,475.8,257.3z
			 M484,259.6c0.5-0.1,0.6-0.4,1-0.6v-0.6c-0.4-0.1-0.8-0.2-1.2-0.2c-0.1,0.6-0.2,0.6-0.1,1.2C483.8,259.4,483.9,259.4,484,259.6z
			 M485.4,224.4c0-0.5-0.1-0.5-0.2-0.8c-0.5,0-0.8,0-1.1,0.2c-0.2,0.2-0.3,0.3-0.5,0.5v0.9l0.6,0.6c0.3,0,0.7-0.1,0.9-0.2
			C485.1,225.6,484.8,224.9,485.4,224.4z M484.2,238.3c0.3-0.1,0.3-0.1,0.5-0.2h0.1v-0.2c-0.2,0.1-0.1,0-0.2,0.1
			C484.2,238.1,484.3,237.9,484.2,238.3z M484.4,256.9c0.1,0.1,0.1,0.2,0.1,0.5c0.2,0.1,0.1,0,0.2,0.1c0.7,0,0.8-0.2,1.2-0.5
			C486,255.8,484.6,256.1,484.4,256.9z M498.8,235.2h0.2v-0.5c1.3-0.1,2.8-0.5,4.2-0.8c0.3,0,0.7,0.1,1,0.1c1.8-0.4,3.6-0.5,5.4-0.9
			c0.3,0,0.6,0.1,0.9,0.1c0.7-0.2,2.2-0.5,2.9-0.6c0.4,0,1.3,0.3,1.9,0.1c0.5-0.1,1.1-0.6,1.5-0.9c-0.1-1.3-0.5-2.7-1-3.6
			c-2.8-0.1-7.5,1-10.2,1.6H504c-2.6,0.6-5.2,0.5-7.6,1c-2.2,0.5-4.2,0.3-6.2,0.8c-0.5,0.1-0.9-0.1-1.2,0.1c-0.8,0-0.9,0.1-1.2,0.5
			c0,0.8,0.3,0.6,0.6,1c1,0,2.3-0.5,3.1-0.8c0.4-0.1,1.4,0.2,2.1,0c0.1,0,0.4-0.2,0.5-0.2c0.3,0,0.6,0.1,0.9,0.1
			c0.5-0.1,1.8-0.6,2.4-0.6c2.2,0,5-0.1,7.1-0.8h1.8c1.6-0.4,3.1-0.5,4.2-0.9c1.2-0.3,2.8-0.1,3.8-0.6c0.6,0.2,0.5,0.7,0.9,1.1v0.4
			c-2.3,0.5-4.8,0.9-7.6,1.2c-0.3,0-0.7-0.2-1.1-0.1c-6,1.4-12.5,1.9-18.2,3.1v-0.1c-0.1-0.2,0-0.7,0.2-1c0-0.8-0.3-0.7-0.6-1.1
			c-0.3,0-0.4,0-0.5,0.1c-1.2,0.6-0.3,3.4-1.9,4.4v0.2c0.6-0.2,0.9-0.7,1.4-0.9c1,0.3,0.3,0,1.1-0.2c0.3,0,0.6,0.1,0.9,0.1v-0.2
			c0.5-0.2,2-0.4,2.1-0.2c1.7-0.4,4.3-0.7,6.1-1.2C497.6,234.8,498.5,234.7,498.8,235.2z M498.2,210.1c-0.2-0.1-0.4-0.2-0.5-0.4
			c-0.4,0-0.6,0.1-0.9,0.2l-0.2,0.1v0.8c0.2,0.1,0.5,0.2,0.6,0.4C497.7,211,498,210.6,498.2,210.1z M497,250.3
			c-0.1,0-0.2,0.1-0.4,0.1v0.6c0.2,0.2,0.4,0.4,0.5,0.6c0.5-0.1,0.6-0.2,0.9-0.4v-0.9C497.6,250.3,497.4,250.1,497,250.3z
			 M503.7,207.7c0-0.3,0-0.2-0.1-0.4c-0.2-0.4-0.5-0.4-0.9-0.5l-0.6,0.6v0.5c0.1,0.1,0.2,0.2,0.2,0.4
			C503.2,208.3,503.2,208.1,503.7,207.7z M507.4,208.9c0.2-0.4-0.2-0.7-0.4-1c-0.5,0-0.6,0.1-1,0.2c0,0.3-0.1,0.6-0.1,0.9
			c0.3,0.1,0.5,0.2,0.8,0.4c0.3-0.1,0.2,0,0.4-0.1C507.4,209.2,507.3,209.3,507.4,208.9z M510,208.1c-0.1-0.5-0.3-0.5-0.5-0.9
			c-0.5,0-0.5,0.1-0.8,0.2v1C509.5,208.8,509.6,208.5,510,208.1z M512.3,207.4c-0.3,0-0.6,0-0.8,0.1c-0.2,0.3-0.3,0.6-0.2,1.1
			c0.3,0.1,0.5,0.3,0.9,0.1c0.3-0.1,0.4-0.3,0.6-0.5c-0.1-0.4-0.1-0.5-0.2-0.8C512.3,207.5,512.4,207.5,512.3,207.4z M511.7,214.6
			c0,0.3,0,0.5-0.1,0.6c0,0.3,0.1,0.4,0.1,0.6c0.7,0,1-0.1,1.5-0.2c0.1-0.5,0.1-0.6,0-1.1c-0.4,0-1,0-1.2,0.1H511.7z M514,191.7
			c0.4-0.4,1.6-1.4,2-1.6c0-1.3-0.3-1.3-0.9-1.9c-0.9,0.1-1.5,0.5-1.9,0.2c-0.8,0-0.9,0.2-1.4,0.5c-0.1,0.5-0.3,0.9-0.2,1.6
			c0.3,0.3,0.5,0.7,0.6,1.1C512.9,191.8,513.4,191.7,514,191.7z M512.8,189.9c0.4,0,0.6-0.1,0.9-0.2h0.4c0,0.1-0.1,0.2-0.1,0.4
			c-0.4,0.2-0.7,0.3-1.1,0.1V189.9z M516.2,211.2c0-0.3,0-0.2-0.1-0.4c-0.2-0.2-0.6-0.3-0.9-0.1c-0.3,0.1-0.4,0.2-0.6,0.4
			c0,0.3,0.1,0.6,0.1,0.9c0.7-0.1,0.8-0.3,1.4-0.5C516.1,211.2,516.1,211.3,516.2,211.2z M520.2,213.9v0.8c0.2,0.2,0.1,0.1,0.2,0.4
			c0.3-0.1,0.2,0,0.4-0.1h0.9c0.1-0.5,0.1-0.7,0.1-1.1c-0.2-0.1-0.4-0.2-0.5-0.4C520.6,213.5,520.6,213.6,520.2,213.9z M520.9,189.2
			c0.1,0.2,0.5,0.3,0.8,0.5c1.6,0,3.4-1,3.8-2.2c0.1-0.1,0,0,0.1-0.2c-1.7-1.8-3.1-1.9-5.2-0.4v1
			C520.8,188.1,520.6,188.7,520.9,189.2z M522.8,187.1c0.4,0,0.6,0,0.9,0.1c0,0.1,0.1,0.2,0.1,0.4c-0.1,0.1-0.2,0.2-0.2,0.2
			c-0.4,0-0.8-0.1-1.1-0.1C522.5,187.3,522.6,187.3,522.8,187.1z M522,241.8v0.6c0.1,0.1,0.2,0.2,0.2,0.2c0.1,0.1,0.4,0.2,0.5,0.2
			c0.7-0.1,0.5-0.3,0.9-0.6c-0.1-0.6-0.2-0.5-0.4-0.9C522.6,241.5,522.4,241.6,522,241.8z M522.2,190.8c0,0.2-0.1,0.4-0.1,0.6
			c0.3,0.2,0.4,0.3,0.5,0.6c0.1,0.3-0.2,1.2,0.1,1.8c0.2,0.4,1.3,0.8,1.9,0.4c1.7,0,2.3-1,3.1-1.9c0-1-0.4-1.2-0.8-1.8
			C524.8,190.4,524.2,190.1,522.2,190.8z M525.7,191.6c0.1,0.1,0.2,0.3,0.2,0.4c-0.2,0.8-1.4,0.9-2.2,1.1c0.2-0.6,0.4-1,0.6-1.5
			c0.3-0.1,0.2,0,0.4-0.1C525.1,191.4,525.5,191.4,525.7,191.6z M524,209.1c-0.1-0.4,0-0.2-0.4-0.4c-0.2-0.1-0.4-0.1-0.6,0.1
			c-0.3,0.2-0.3,0.8-0.4,1.1c0.4,0.3,0.7,0.5,1.4,0.2C524.1,209.7,524.3,209.4,524,209.1z M530.5,207.9c-0.1,0.1-0.1,0.1-0.1,0.4
			c0.1,0.1,0.2,0.4,0.2,0.5c0,0.1,0.1,0.2,0.1,0.4c0.5,0,0.7-0.1,1,0c0.1-0.1,0,0,0.2-0.1c0-0.7-0.1-1-0.4-1.4
			c-0.4,0-0.8,0.1-1.1,0.1V207.9z M535.5,204.4v0.1c-0.7,0.2-1.2,1-1.2,1.8c0.8-0.2,1.2-0.3,1.9-0.8c0-0.7,0-0.8-0.5-1
			C535.6,204.5,535.6,204.5,535.5,204.4z M543.3,205.3c0.2,0.2,0.2,0.2,0.2,0.5c0.6,0.1,0.7,0,1.2-0.1c0-0.6-0.1-0.8-0.2-1.1
			c-0.4,0-0.8,0-1.1,0.1C543.4,205,543.4,205.1,543.3,205.3z M553.9,220.3c-0.2,0.2-0.4,0.4-0.6,0.5v0.8c0.5,0.6,0.2,1.2,0.5,2.1
			c0.1,0.4,0.5,0.9,0.8,1.4c2-0.1,4.3-0.3,6.1-0.8h2.9c1.1-0.3,2.5-0.5,3.5-0.8c1.6-0.4,2.8-0.1,4.2-0.5h0.8
			c0.1-0.1,0.2-0.2,0.2-0.4c0.4-0.1,0.8,0.4,1.4,0.2c1.1-0.2,5.5-0.2,6.1-0.6c0.4-0.1,0.3-0.3,0.6-0.5c-0.1-1.3-0.6-1.8-1-2.8
			c-0.2,0-0.5-0.1-0.8-0.1c0-0.1-0.1-0.2-0.1-0.4c-0.1-0.1-2.8,0.3-3.1,0.4c-0.9,0.2-1.5-0.2-2.1,0c-1.8,0.5-4.1,0.5-5.6,0.8
			c-1,0-2,0.1-3,0.1c-1.6,0.4-4.6,0.6-5.9,0.4c-0.4-0.1-0.7,0.1-0.9,0.1C556.3,220.5,555.1,220.6,553.9,220.3z M561.3,221.4
			c2-0.5,4.6-0.3,6.4-0.8c1.1,0,2.2-0.1,3.4-0.1c1.1-0.3,5-0.9,6.1-0.5c1.1,0,1,0.3,1.5,0.9v0.1c-5.3,0.2-11.3,1.2-15.6,1.8
			c-0.6,0.1-1.8,0.3-2.2,0.4c-0.5,0-1-0.1-1.5-0.1c-0.9,0.2-2.6,0.6-3.8,0.2c0.1-0.6,0.4-1.3,0.8-1.6
			C556.6,221.4,560.5,221.6,561.3,221.4z M557.3,204.8c0,0-0.1-0.1-0.1-0.1c-0.5,0-0.6,0-0.9,0.2c-0.2,0.1-0.5,0.7-0.5,1.2h1
			c0.2-0.2,0.4-0.4,0.6-0.5C557.4,205.4,557.3,205.1,557.3,204.8z"/>
	</g>
</g>
</svg>
