<?xml version="1.0" encoding="utf-8"?>
<!-- Generator: Adobe Illustrator 21.0.0, SVG Export Plug-In . SVG Version: 6.00 Build 0)  -->
<svg version="1.1" id="Calque_1" xmlns="http://www.w3.org/2000/svg" xmlns:xlink="http://www.w3.org/1999/xlink" x="0px" y="0px"
	 viewBox="0 0 841 595" style="enable-background:new 0 0 841 595;" xml:space="preserve">
<style type="text/css">
	.st0{fill:#DADADA;}
	.st1{fill:#FFFFFF;}
	.st2{fill:#1D1D1B;}
</style>
<ellipse class="st0" cx="407.9" cy="405.6" rx="199.8" ry="50.2"/>
<path class="st1" d="M394.4,354.7c0,0,2.4,31.7,5.6,37.1c2,0.2,6.2,1.5,6.5,1c0.3-0.6,0.8-2.5,0.8-2.5s0.6,2.4,2.1,2.1
	s8.1-3.7,8.1-3.7L419,370l1.3-15.2"/>
<g>
	<g>
		<path class="st2" d="M424.9,397.1c0-0.2,0-0.4-0.1-0.5c-0.1-0.1-0.2-0.1-0.2-0.2c-0.1-0.2-0.1-0.4-0.3-0.6c-0.1,0-0.1,0-0.2,0
			c-0.2-0.2-0.3-0.5-0.5-0.8c-0.2-0.2-0.4-0.4-0.6-0.5c-0.3-0.3-0.4-0.6-0.7-0.9c-0.1-0.1-0.2-0.1-0.3-0.1c-0.2-0.1-0.3-0.4-0.5-0.5
			c-0.2-0.1-0.4-0.2-0.5-0.3c-0.1-0.1-0.1-0.2-0.2-0.3c-0.1-0.1-0.2-0.1-0.2-0.1c-0.2-0.2-0.2-0.4-0.3-0.6c-0.1-0.1-0.2-0.1-0.3-0.2
			c-0.1-0.1-0.2-0.3-0.3-0.3v-0.2c-0.1-0.1-0.2,0-0.3,0c-0.2-0.1-0.3-0.4-0.4-0.5v-0.1c-0.4,0-0.5-0.4-0.8-0.5l-0.4-0.1
			c-0.1-0.1-0.1-0.2-0.3-0.3c0-0.2,0-0.3,0-0.5c0,0,0.1-0.1,0.1-0.1c0.1-0.2-0.1-0.2-0.1-0.4c0,0,0.1-0.1,0.1-0.1
			c0-0.1-0.1-0.1-0.1-0.2c0-0.3,0.2-0.8,0.2-1.2c0-0.1,0-0.2,0-0.2c0-0.1,0.2-0.3,0.2-0.4c0-0.1-0.1-0.3,0-0.4
			c0-0.4,0.1-0.8,0.1-1.1c0-0.2-0.1-0.3-0.1-0.4l0.1-0.1c0.1-0.8,0.2-1.6,0.2-2.5c0.1-0.5,0.2-1.2,0.3-1.7c0-0.5,0-0.9,0-1.4
			c0.3-1.1,0.2-2.4,0.4-3.5c0-0.2-0.1-0.4-0.1-0.5c0.1-1,0.3-2,0.4-2.8c0-0.2-0.1-0.6-0.1-0.9c0.2-0.6,0.1-1.7,0.1-2.2
			c-0.1-0.4,0.1-1.8,0.2-2.1c0.1-0.2,0-0.5,0-0.6c0.1,0,0.1-0.1,0.1-0.1c0-0.2,0-0.4,0-0.6c0.1-0.5,0.1-1.2,0.2-1.7v-0.8
			c0.2-0.9,0.1-1.9,0.2-2.7v-0.7c0.3-1.1,0.1-2.3,0.3-3.5c0-0.2,0-0.4,0-0.5c0.2-1.7,0.2-4,0.5-5.7c0-0.1,0-0.2-0.1-0.3
			c0-0.3,0-1.4,0.1-1.8c0.1-0.4,0-1.4,0.1-1.9c0.1-0.6-0.1-1.3-0.1-1.7c0.1-0.3,0.1-0.9,0.1-1.3v-0.8c0.3-1.2,0.2-2.6,0.4-3.7
			c0-0.2-0.1-0.5,0-0.7c0.1-0.5,0.1-1.4,0-1.9c0-0.2,0-0.3,0-0.5c0-0.2-0.2-0.6-0.1-0.9c0.1-0.2,0.2-0.5,0.2-0.7V333
			c0.1-0.1,0.2-0.1,0.3-0.2c0.1-0.1,0-0.3,0.1-0.4l0.2-0.2c0-0.1,0-0.2,0-0.3c0-0.4,0.1-0.7,0.1-1.1c0.2-0.5,0.5-1.1,0.6-1.6
			c0.1-0.2,0-0.6,0.1-0.9c0-0.1,0.2-0.2,0.2-0.3c0.1-0.3,0-0.5,0.1-0.8l0.1-0.1c0-0.1-0.1-0.3-0.1-0.4c0-0.1,0.1-0.3,0.1-0.4
			c0-0.1-0.1-0.2,0-0.4c0.1-0.2,0.1-0.5,0.2-0.7c0.1-0.4,0-0.9,0.1-1.3c0,0,0.1,0,0.1,0c0-0.1-0.1-1.4,0-1.7
			c0.1-0.5,0.1-1.3,0.3-1.9c0.1-0.3,0-0.8,0.1-0.9c0-0.4-0.1-0.8-0.1-1.2c0,0,0.1-0.2,0.1-0.2c0-0.1-0.1-0.3-0.1-0.4
			c-0.1-0.5,0-1-0.1-1.5c0-0.4,0-0.7-0.1-1.1c-0.2-0.6-0.3-1.7-0.5-2.4c0-0.2,0-0.6,0-0.7c-0.1-0.3-0.2-0.8-0.3-1
			c0-0.1,0.1-0.3,0-0.5c-0.5-1.7-1.1-3.2-1.6-4.9c-0.1-0.3-0.1-0.6-0.2-0.9c-0.4-1.2-0.9-2.3-1.5-3.3c-0.2-0.4-0.3-0.9-0.5-1.3
			c-0.1,0,0,0-0.1,0c-0.1-0.6-0.8-1.4-1.2-1.8c-0.2-0.2-0.2-0.5-0.3-0.7c-0.1-0.2-0.4-0.3-0.5-0.5c-0.1-0.1-0.1-0.3-0.2-0.4
			c-0.3-0.4-0.6-0.7-0.9-1.1c-0.2-0.3-0.7-0.7-1.1-1c-0.2-0.1-0.5-0.2-0.6-0.3c-0.1-0.1-0.1-0.3-0.1-0.3c0-0.2,0-0.2-0.2-0.1
			c-0.1-0.2-0.3-0.3-0.4-0.5c-0.1-0.1,0-0.3-0.1-0.4l-0.3-0.3c-0.1-0.2-0.2-0.4-0.3-0.6l-0.3-0.3c0-0.1,0-0.2,0-0.2
			c-0.1,0-0.1,0-0.2-0.1c-0.1-0.1,0-0.1,0-0.2c-0.2-0.3-0.5-0.4-0.7-0.7c-0.2,0-0.4,0-0.6-0.1c-0.1-0.7,0-1.3-0.2-2
			c-0.2-0.7,0.1-1.6,0-2.1c-0.1-0.4,0.1-1-0.1-1.2v-0.3c0.5-0.1,1.1-0.4,1.6-0.4c0,0,0.5-1,0.5-1c0-0.2-0.3-0.8-0.4-1
			c-0.1-0.2-0.4-0.2-0.6-0.4c-0.2-0.2-0.1-0.5-0.3-0.6c-0.2-0.1-0.7-0.3-0.9-0.3c0-0.3,0-0.5,0-0.7c0-0.1,0-0.2,0-0.3
			c0,0,0.1,0,0.1,0v-0.1l-0.1-0.1v-0.9c0-0.2,0.1-0.5,0-0.6c-0.2-0.9-0.3-1.8-0.6-2.6c-0.1-0.3-0.3-0.5-0.5-0.7
			c-0.1-0.2-0.1-0.4-0.2-0.6c-0.1-0.2-0.4-0.3-0.6-0.5c-0.4-0.5-0.8-1-1.4-1.2c-0.3-0.1-0.4,0-0.6-0.1c0-0.3,0.3-1.4,0.3-1.5
			l-0.3-0.3c-0.3,0-0.3,0.1-0.5,0.2c0,0.2-0.2,1-0.3,1.2c0,0.3-0.1,0.3-0.1,0.5c-0.2,0-0.3,0.1-0.5,0h-0.1c0-0.3,0.1-0.7,0-0.9
			c0-0.5-0.1-0.6-0.3-0.9c-0.3,0-0.3,0-0.6,0c0,0.2-0.1,0.2-0.1,0.3c0,0.1,0.2,1.4,0.2,1.4v0.1c-0.2,0-0.5,0-0.6,0h-0.1
			c-0.1-0.1-0.1-0.4-0.1-0.6c-0.1-0.4-0.4-0.8-0.6-1.1c-0.3,0-0.4,0.1-0.5,0.2c0,0.3,0.1,1.2,0.3,1.4c-0.1,0.4-1.1,0.6-1.4,0.8
			c-0.3,0.2-0.4,0.6-0.6,0.9c-0.3,0.4-0.7,0.8-1,1.3c-0.1,0.2,0,0.3-0.1,0.4c-0.1,0,0,0-0.1,0.1c0,0.2-0.2,0.3-0.2,0.4
			c0,0.2,0.1,0.1,0.1,0.1c0.1,0.2-0.1,0.2-0.1,0.3c0,0.2,0.1,0.4,0.1,0.6c0,0-0.1,0.1-0.1,0.1s0,1.2,0,1.5c-0.4,0.1-0.9,0.1-1.2,0.3
			c-0.1,0.1-0.2,0.3-0.3,0.4c0,0.4-0.1,0.5-0.2,0.9c-0.2,0.8,0.7,2.1,1.1,2.3c0.2,0.1,0.4,0,0.6,0.1c0.1,0.1,0.1,0.2,0.3,0.2
			c-0.1,0.3,0,0.9,0.1,1.3c0,0.2,0.3,1.1,0.3,1.5c0,0.6,0,1.5,0.2,2.1c0.1,0.4,0,0.8,0.2,1.1c0,0.2-0.9,1.3-1.1,1.4
			c-0.1,0.1-0.1,0-0.2,0.1c0.1,0.1-0.5,0.9-0.6,1.1c-0.1,0.2-0.5,0.8-0.4,0.9c-0.1,0.3-0.3,0.9-0.1,1.1c-0.1,0.3-0.3,0.4-0.4,0.6
			c-0.2,0.3-0.4,0.9-0.6,1.2h-0.1c-0.2,0.2-0.3,0.7-0.5,0.9c-0.6,0.8-1.3,1.6-1.9,2.4c-0.3,0.3-0.3,0.7-0.5,1.2
			c-0.1,0.4-0.5,0.8-0.6,1.2v0.3c-0.8,1.8-1.3,3.9-1.8,5.6c-0.2,0.6-0.1,1.6-0.2,2.2c-0.2,0.8-0.3,1.7-0.4,2.4c0,0.2,0.1,0.6,0,0.8
			c-0.1,0.4-0.2,1-0.1,1.5c0.1,0.4-0.3,1.1,0,1.3c-0.2,0.5-0.1,1.6-0.2,2.2c0,0.2,0.2,0.2,0.1,0.5l-0.1,0c0.1,0.2,0.1,0.9,0.1,1.4
			c0,0.2-0.1,0.5,0,0.6c0,0.1,0.2,0.2,0.1,0.4c-0.2,0.9,0.1,1.8,0.3,2.6c0.1,0.5,0.1,0.9,0.2,1.2c0,0.1,0,0.3-0.1,0.4
			c0.1,0,0.1,0,0.1,0.1c0.1,0.2,0.1,0.5,0.1,0.7c0,0.4,0,0.7,0,1.1c0.1,0.6,0.2,1,0.4,1.5v0.4c0.1,0.4,0.2,0.8,0.3,1.2
			c0.2,0.6,0.6,1.3,0.9,1.9c0.2,0.4,0.2,0.9,0.6,1.2c0,0.2,0,0.3-0.1,0.3c0.1,0.2,0.1,0.1,0.3,0.2c0,0.2-0.1,0.2-0.2,0.3
			c0.1,0.2,0.4,0.4,0.6,0.5c0,0.1,0.1,0.2,0.1,0.3c0.1,0.2-0.1,1.1-0.1,1.3c-0.1,0.6,0,1.1-0.1,1.7v1c-0.1,0.2-0.2,1.5-0.1,1.6
			c0.1,0.8-0.2,1.9,0,2.8c0,0.2,0,0.5,0,0.7c0.1,0.4,0,1.2,0,1.6c0,0.1,0.1,0.3,0.1,0.5c-0.1,0.3-0.2,0.9-0.1,1.2c0.1,0.5,0,1,0,1.9
			v0.7c0.1,0.4,0.1,1,0.1,1.6c0,0.2,0,0.4,0,0.5c0.3,1.3,0.1,3.4,0.4,4.9c0,0.5,0,1,0,1.5c0.2,1.1,0.2,2,0.2,3.1c0,0.4,0,1,0,1.2
			c0.1,0.6,0.2,2.1,0,2.3c0.1,0.2,0,0.1,0.2,0.1c-0.1,0.6,0.2,1.4,0.3,2c0.2,0.9-0.2,1.5,0.1,2.3c0.2,0.5,0,1,0.2,1.7
			c0.1,0.5,0.2,1.2,0.3,1.8c0,0.2,0,0.5,0,0.7c0.1,0.2,0.2,0.5,0.2,0.7c0,0.3-0.1,0.6,0,0.9c0.2,0.8,0.3,2,0.5,2.8
			c0.1,0.3-0.1,0.7,0,0.9c0,0.1,0.1,0.5,0.2,0.7c0,0.4,0,0.7,0,1.1c0.3,1,0.5,2.1,0.8,3c0.2,0.5,0.1,1.3,0.2,1.7c0,0.2,0,0.4,0,0.6
			c0.1,0.5,0.3,0.9,0.4,1.3c0.1,0.4,0.1,0.8,0.2,1.2c0.2,0.5,0.7,1,0.7,1.5c-0.1,0.1-0.3,0.5-0.4,0.5c-0.3,0.1-0.5,0.1-0.8,0.2
			c-0.4,0.2-0.9,0.5-1.3,0.7c-0.5,0.3-0.9,0.4-1.4,0.6c-0.3,0.1-0.6,0.4-0.9,0.5c-0.4-0.1-1,0.4-1.3,0.5c-1.1,0.6-2.3,1.1-3.4,1.8
			c-0.7,0.5-3.1,1.6-2,2.9c0.1,0.2,0.6,0.6,0.9,0.7c0.4,0,0.9,0,1.3,0c0.5,0.1,2,0,2.5-0.1c0.1,0,0.3,0.1,0.4,0v-0.1
			c0.4-0.1,1.2-0.1,1.6-0.2c0.6-0.1,1.3-0.4,1.9-0.6c0.4-0.1,0.9-0.1,1.3-0.2c0.7-0.3,1.5-0.5,2.2-0.8c0.3-0.2,0.6-0.1,1-0.2
			c0.8-0.2,1.7-0.4,2.4-0.7c0.2-0.1,0.3,0,0.5-0.1c0.2-0.1,0.6-0.3,0.8-0.3c0.4-0.2,0.7,0.2,0.9,0.1c0.1,0,0.2-0.2,0.3-0.2
			c0.5-0.2,0.8-0.1,1.1-0.6h0.2c0-0.2,0.1-1.1,0.2-1.4c0.1-0.2,0.3-0.1,0.4-0.4c0,0.1,0.1,0.3,0.1,0.4c0.5,0.2,0.6,0.1,0.8,0.5h0.3
			v-0.1c0.4,0,0.6-0.1,0.8-0.3c0.4,0,0.7,0.6,0.9,0.9c0.1,0.1,0.2,0,0.2,0c0.1,0.1,0.1,0.2,0.1,0.2c0.1,0.1,0.3,0.1,0.4,0.1l0.2,0.2
			c0.3,0.1,0.5,0.1,0.7,0.2c0,0.1,0,0.1,0.1,0.1c0.1,0.1,0.3,0.1,0.4,0.1v0.1h0.6l0.2,0.2h0.1v-0.1c0.1,0.1,0.1,0.2,0.1,0.3
			c0.2,0,0.2,0,0.2-0.2c0.2,0.2,0.5,0.3,0.8,0.3v0.2c0.2,0.1,0.4,0.1,0.5,0c0.2,0.1,0.2,0.2,0.3,0.4c0.2,0,0.2,0,0.5,0l0.1,0.1
			c0,0.1,0,0.2-0.1,0.2c0.9,0.1,1.3,0.8,2.3,0.9v0.1c0.5,0,0.9,0.3,1.4,0.5h0.3c0.9,0.3,2.2,0.8,3.2,0.7c0.5,0,1.1,0.3,1.5-0.1
			c0.2,0,0.2-0.1,0.4-0.2c0-0.3,0.1-0.9,0.1-1C425.1,397.2,425,397.2,424.9,397.1z M399.3,282.1c-0.7-0.1-0.8-1.5-0.6-2.1
			c0.1,0,0.1,0,0.2-0.1h0.1c0.2,0.6,0.1,1.6,0.2,2L399.3,282.1L399.3,282.1z M413.6,297.8c0.2-0.7,0.3-1.3,0.8-1.7
			c0-0.2-0.1-0.2-0.1-0.4c0.1-0.1,0.2-0.2,0.3-0.3c0.1,0,0,0,0.1,0c0.2,0.2,0.5,0.4,0.7,0.6c0.2,0.2,0.2,0.4,0.4,0.6l0.4,0.4
			c0,0.1,0,0.2,0,0.3c0.1,0,0,0,0.1,0c0,0.1,0,0.1,0,0.1c0.1,0.4,0.6,0.8,0.8,1.1c0.4,0.5,0.7,1.1,1,1.7c0.1,0.2,0.3,0.4,0.4,0.5
			c0.2,0.3,0.2,0.7,0.3,1.1c0.1,0.1,0.2,0.2,0.3,0.3c0.2,0.4,0.3,0.8,0.5,1.3c0.1,0.2,0.3,0.4,0.3,0.5c0.2,0.5,0.2,0.9,0.4,1.4
			c0.1,0.3,0.3,0.6,0.4,0.9v0.3c0.3,0.7,0.6,1.7,0.9,2.4c0,0.1-0.1,0.3,0,0.4c0.1,0.3,0.3,0.6,0.4,0.9c0,0.1,0,0.2,0,0.2
			c0.2,0.8,0.4,1.8,0.6,2.7c0,0.3,0,0.8,0,1.1c0.1,0.3,0.2,0.8,0.2,1.1v0.7c0.3,0.8,0.3,3.7,0.1,4.6c-0.1,0.4-0.1,0.8-0.1,1.1
			c-0.2,0.6,0,1.3-0.2,2.1c0,0.2,0.1,0.3,0,0.4c-0.1,0.5-0.3,1.1-0.4,1.7c0,0.3,0,1-0.1,1.4c-0.2,0.5-0.5,1.3-0.6,2
			c-0.1-0.2,0-0.3,0-0.4c0-0.1-0.1-0.2-0.1-0.3c0-0.2,0.1-0.7,0.1-0.9c-0.1-0.9,0.1-1.6-0.1-2.5v-0.7c-0.2-1-0.1-2.9-0.3-3.9v-0.8
			c-0.3-1-0.1-1.7-0.3-2.7v-0.5c-0.1-0.5-0.1-1-0.3-1.6c0-0.1,0-0.3,0.1-0.4c-0.3-1-0.5-2.9-0.7-3.8c-0.3-1-0.6-2-0.9-2.9
			c-0.2-0.6-0.3-1.2-1.1-1.1c-0.1,0.7,0.7,2.5,0.9,3.1c0.1,0.3,0,0.6,0,0.8c0.1,0.3,0.3,0.6,0.3,0.8c0,0.1,0,0.2-0.1,0.3
			c0.1,0.6,0.3,1.5,0.5,2.2v0.6c0.1,0.5,0.1,0.9,0.2,1.4c0.2,0.6,0.1,1.6,0.3,2.4c0,0.3,0,0.5-0.1,0.8c0.5,1.9,0.1,3.7,0.5,5.5
			c0.2,0.9-0.1,2.2-0.1,2.7c0,0.3,0.1,0.8,0.2,1.2c0.1,0.2-0.1,0.4,0,0.5c0.1,0.4,0.2,1.1,0.2,1.6c0,0.4,0.2,1.3,0,1.6
			c-0.1,0.2-0.2,0-0.4,0.1c-0.2,0.1-0.5,0.4-0.7,0.5c-0.3,0.1-0.6,0.1-0.9,0.2c-1.8,0.8-4.3,0.5-6.5,1c-0.5,0.1-0.9,0-1.3,0
			c0,0-0.3,0.1-0.4,0.1c-0.1,0-0.5,0-0.6,0H410c0,0,0,0,0.1-0.1c0.1-0.2,0.1-0.2,0.3-0.1c0-0.2,0-0.2-0.1-0.2c0-0.5-0.1-1.4-0.2-1.8
			c-0.1-0.5,0.2-0.8,0.1-1.3c0,0-0.1-0.2-0.1-0.3V330c0-0.1-0.1-0.2-0.1-0.3c0-0.1,0.1-0.2,0.1-0.2c0-0.2-0.1-0.3-0.1-0.5
			c0-0.2,0.1-0.7,0.1-0.7c-0.3-0.4-0.1-0.8-0.2-1.3c-0.2-1.2,0-3.5,0-4.4c0-0.3-0.2-0.6-0.1-0.7c0-0.2,0-0.5,0-0.8
			c-0.1-0.4-0.2-0.9,0-1.3c-0.5-0.3,0-1.4-0.1-2.1c-0.3-1.1-0.1-2.7-0.4-4c0-0.2,0-0.5,0-0.7c-0.1-0.4-0.1-0.8-0.2-1.2
			c-0.1-0.2,0.1-0.6,0-0.7c0-0.2-0.2-0.5-0.2-0.7c0-0.1,0.1-0.2,0.1-0.3c0-0.2-0.2-0.4-0.2-0.5c0,0,0-0.1,0-0.1
			c0-0.2-0.4-1.5-0.4-1.6c0.2-0.7,0.6-1.5,1-2.1c0.1-0.1,0.2,0,0.2-0.1c0,0,0-0.4,0-0.4c0.1-0.2,0.3-0.4,0.4-0.5
			c0-0.1,0.1-0.3,0.1-0.4c0.1-0.1,0.3-0.3,0.3-0.4c0.3-0.6,0.6-1.2,1-1.6c0-0.1,0.1-0.2,0.1-0.3c0.1-0.2,0.4-0.3,0.5-0.5
			c0,0-0.1-0.1,0-0.2c0.1-0.2,0.3-0.4,0.4-0.6l0.3-0.3c0.1-0.2,0-0.4,0.1-0.5C413.1,299,413.4,298.4,413.6,297.8z M407.6,306.2
			c0-0.3-0.1-0.6-0.1-0.9c0.1-0.2,0.1-3.3,0-3.5c0.2-0.1,0.5-0.1,0.7-0.2h0.2c0,0,0.1,0.1,0.1,0.1c0,0.3,0.1,0.4,0.1,0.6
			c0,0.1,0,0.3-0.1,0.4c0.1,0.5,0,1,0.3,1.4c-0.1,0.7-0.8,1.4-1.1,2.1L407.6,306.2L407.6,306.2z M407.7,306.3
			C407.7,306.4,407.7,306.4,407.7,306.3l-0.1,0.1c0-0.1,0-0.1,0-0.2C407.7,306.3,407.7,306.3,407.7,306.3z M407.4,297.4
			c-0.2-0.3,0.5-0.9,0.6-1.2h0.3c0.1,0.3,0.1,0.7,0.1,1.2C408.1,297.4,407.6,297.5,407.4,297.4z M409.4,298.9c0-0.2,0-0.3,0.1-0.4
			c0.3,0,0.6,0,0.8-0.1h0.5c0,0.1,0,0.1,0.1,0.1c0,0,0.1,1.7-0.1,2c-0.3,0.2-0.9,0.1-1.3-0.1c0-0.3-0.2-1-0.1-1.3c0,0,0.2,0,0.1-0.2
			C409.4,298.9,409.4,298.9,409.4,298.9z M413.3,295.2c0,0.3-0.2,0.3-0.2,0.5v0.2c-0.1,0-0.1,0.1-0.2,0.1c-0.1,0.1,0,0.3,0,0.4
			c-0.1,0.2-0.2,0.6-0.2,0.9c-0.3,0-0.7-0.1-0.8-0.3c-0.1,0.1-0.2,0.1-0.2,0.1c-0.1-0.3-0.1-0.6-0.1-1c-0.1-0.2-0.2-0.4-0.2-0.7
			c0.3-0.1,0.7-0.3,1-0.3c0.2-0.1,0.5,0.1,0.7-0.1C413.1,295.1,413.2,295.1,413.3,295.2z M410.8,292.8c0.2-0.3,0.1-0.5,0.5-0.6
			c0-0.1,0,0,0-0.1c0.1-0.3,0.3-0.3,0.3-0.5h0.1c0.3,0.3,0.6,0.6,0.6,1.1h-0.1c0,0.1,0,0.1,0,0.1c0.1,0.3,0.2,0.1,0.4,0.2
			c0.1,0.1,0.2,0.3,0.3,0.5c0,0.2,0,0.2,0,0.3c-0.3,0.1-0.6,0-0.9,0.1c-0.8,0.3-1.7,0.9-2.7,0.8c0.1-0.4,0.4-0.6,0.6-0.9v-0.2
			c0.1-0.1,0.2-0.1,0.2-0.2c0.1-0.2,0.2-0.4,0.3-0.6C410.6,292.8,410.7,292.8,410.8,292.8z M400.8,275.8c0.2-0.4,0.6-0.6,0.8-1
			c0.1-0.2,0.1-0.3,0.2-0.5c0.3-0.2,0.7-0.2,1-0.3c0.2,0.3,0.1,0.7,0.2,1.1c0.1,0.1,0.2,0.3,0.2,0.4c0.3,0,0.4,0,0.5-0.1
			c0.1-0.4,0-1.4,0.1-1.5v-0.1c0.2,0,0.2,0,0.3,0.1c0.1,0.5,0.2,0.8,0.2,1.3l0.1,0c0.2,0,0.3,0,0.3,0c0.3,0,0.3-0.1,0.4-0.3
			c0,0-0.1-0.7,0-0.9c0-0.3,0.1-0.2,0.2-0.3c0.6,0,0.4,0.2,0.7,0.2c0.2,0.1,0.3-0.1,0.4-0.1c0.3,0,0.5,0,0.8,0
			c0.2,0.2,0.6,0.4,0.8,0.7c0.3,0.5,0.7,1,0.9,1.5c0.2,0.4,0.3,1,0.4,1.5c0.1,0.3-0.2,0.4,0,0.6c0,0.2,0,0.2-0.1,0.3
			c0.1,0.1,0.1,0.1,0.2,0.2c0,0.5,0,1.5,0,2.1c-0.2,0.1-0.5,0.2-0.8,0.1c-0.1,0-0.3-0.2-0.5-0.1c-0.2,0-0.4,0.1-0.7,0.1
			c-0.3,0-0.6,0-0.8,0c-0.3,0-0.6,0-0.9,0c-0.2,0.1-0.3,0.3-0.5,0.5c0,0.3,0.1,0.3,0.2,0.4c0.6,0.1,1.7,0.2,2.1,0.1
			c0.3,0.1,0.8,0.1,1.2,0.1c0.5,0,1,0,1.4,0.1c0.4,0.1,0.7-0.1,1,0.1c0.3,0.1,0.5,0.6,0.5,0.8c-0.1,0.6-1.1,0.4-1.7,0.5
			c-0.5,0.1-1.6,0.3-2.3,0.1c-0.4-0.1-1.2-0.3-1.5-0.3c-0.3,0.1-0.4,0.4-0.2,0.7c0.5,0.7,2.1,0.6,2.9,0.8c0.4,0.1,0.5-0.2,0.8,0h0.1
			c0,0.4,0.2,0.8,0,1c0.1,0.1,0,0.1,0.2,0.1c0,0.2,0.1,0.4,0.1,0.6c0,0.2-0.2,0.3-0.2,0.5c0.1,0,0.1,0.1,0.2,0.1
			c0,0.5,0,1.1,0.1,1.6c0.1,0.4,0,1,0.1,1.4c0.1,0.4,0,0.7,0.1,1c-0.2,0.4-0.6,0.7-0.7,1.1c-0.1,0-0.1-0.1-0.1-0.1
			c-0.2,0-0.2,0.1-0.4,0.1c0,0.2,0.1,0.2,0.3,0.3c-0.1,0.5-0.4,0.5-0.6,0.8c-0.3,0.4-0.5,1-0.9,1.3c-0.1,0-0.2,0-0.3,0
			c-0.1,0.1-0.2,0.1-0.1,0.2c-0.1,0.5-0.9,0.6-1.1,1c-0.5-0.2-0.8-0.8-1.2-1.2c-0.3-0.2-0.4-0.5-0.7-0.7l-1-1
			c-0.2-0.2-0.3-0.6-0.5-0.8c-0.2-0.2-0.5-0.4-0.7-0.6c-0.1-0.1-0.1-0.2-0.1-0.3c-0.1-0.1-0.2-0.1-0.3-0.1c-0.2-0.2-0.3-0.5-0.6-0.7
			c0-0.7-0.1-1.2-0.2-1.7c0-0.3,0-0.6,0-0.9c0-0.2-0.2-0.4-0.1-0.6c0.1-0.5-0.2-1.1-0.2-1.6c0-0.1,0-0.2,0-0.3
			c-0.1-0.4-0.2-0.7-0.1-1.2c0,0-0.1-0.1-0.1-0.1v-0.9c-0.1-0.4-0.1-0.9-0.1-1.2C400,279.6,400,277.3,400.8,275.8z M406.5,300.7
			c-0.3,0.3-1.1,0.2-1.5,0.1c-0.2-0.6-0.1-1.8-0.4-2.1c0-0.2,0.1-0.2,0.1-0.3c0.3,0,0.8,0.1,1-0.1c0.1,0,0.3,0,0.3,0.1
			c0.3,0.5,0.3,1.4,0.4,1.8C406.5,300.4,406.4,300.6,406.5,300.7z M400.3,290.9c0.6,0.1,0.9,0.5,1.2,1c0.2,0.2,0.4,0.4,0.6,0.5
			c0.1,0.2,0.2,0.4,0.3,0.5c0.1,0,0.1,0,0.2,0v0.2c0.3,0.4,0.5,1,0.9,1.3c0,0,0,0-0.1,0c0,0.3,0.2,0.4,0.4,0.5v0
			c-0.7-0.2-1.3-0.4-1.9-0.7c-0.4-0.1-0.8-0.1-1.2-0.2c-0.2-0.1-0.3-0.3-0.5-0.3c-0.3-0.1-0.5-0.1-0.8-0.2c-0.2-0.1-0.3-0.2-0.5-0.3
			C398.7,292.4,399.9,291.6,400.3,290.9z M402.3,295.8v-0.1c0.3,0.1,0.7,0.2,1,0.4c0.1,0.2,0.3,1.1,0.3,1.4c-0.3,0-0.9,0.1-1.1-0.2
			C402.2,296.8,402.4,296,402.3,295.8z M394.4,326.5v-0.9c-0.2-1.1-0.3-2.6-0.2-3.8c0-0.4,0.2-1.4,0.1-1.8c-0.1-0.5,0-0.9,0-1.2
			c0-0.2-0.2-0.4-0.1-0.7c0-0.1,0.1-0.3,0.1-0.4c0-0.3-0.1-0.6,0.1-1c-0.1-0.5,0-1.2,0.1-1.5c0.1-0.3,0-0.6,0-0.8
			c0.1-0.4,0.1-0.7,0.1-1c0.4-1.5,0.2-3.5,0.7-4.8c0.2-0.4,0-1.2,0.2-1.4v-0.1h-0.3c-0.1,0.4-0.5,0.5-0.6,0.9
			c-0.1,0.2-0.1,0.7-0.1,0.9c0,0.1-0.2,0.3-0.2,0.4c0,0.5,0,1-0.1,1.5c-0.1,0.3-0.2,1-0.2,1.3c0.1,0.5-0.5,1.1-0.2,1.5
			c0,0-0.2,0.1-0.2,0.1c0.2,0.5,0.1,1.1,0,1.8c-0.1,0.3,0.1,0.6,0.1,0.8c-0.1,0-0.1,0-0.1,0c0,0.1,0.1,0.3,0.1,0.4
			c0,0.2-0.1,0.6-0.1,0.8c0,0.2,0,0.4-0.1,0.5c0,0.1,0,0.5,0.1,0.6c0.1,0.3-0.1,0.6-0.1,0.8c0,0.2,0,0.6,0,0.7
			c0,0.2-0.1,0.2-0.1,0.3c0,0.2,0.2,0.8,0.1,1.1c0,0.1-0.1,0.1-0.1,0.2c0,0.2,0.1,0.4,0,0.6c0,0.2-0.2,1.1-0.1,1.4
			c0.2,1.1,0.2,1.9,0.3,2.8c0.1,0.7,0.1,1.4-0.1,1.8c-0.1,0.4,0.2,1.2,0.2,1.5c0,0.3,0,0.9,0.1,1.2v0c-0.4-0.1-0.7-1.4-0.9-1.8
			c-0.1-0.3-0.3-0.7-0.4-1c-0.2-0.7-0.3-1.6-0.5-2.4c-0.1-0.2,0-0.4,0.1-0.5c-0.4-0.7-0.3-1.8-0.5-2.5c-0.4-1.3-0.3-3.2-0.6-4.7
			c0-0.1,0.1-0.2,0.1-0.2c0-0.2,0-1.4-0.1-1.7c-0.1-0.3,0.1-0.7,0.1-0.8c0-0.2-0.1-0.5,0-0.7c0-0.2,0.2-0.4,0.1-0.7
			c-0.1-0.5,0.1-1.1,0.2-1.4V312c0.2-0.6,0.2-1.2,0.3-1.7c0.1-0.6,0-1.6,0.2-2.3c0-0.1,0.1-0.2,0.1-0.2c0.1-0.2,0-0.7,0.1-1
			c0.4-1,0.6-2.2,1-3.3c0.3-0.8,0.7-1.7,1.1-2.5c0.1-0.2,0-0.4,0.1-0.6c0.1-0.1,0.2-0.3,0.3-0.4v-0.2c0.1,0,0.1-0.1,0.2-0.1
			c0-0.1,0-0.2,0.1-0.2c0.1-0.1,0.3-0.2,0.3-0.3c0.1-0.2,0.1-0.4,0.2-0.6c0.1,0,0.2-0.1,0.2-0.1c0.3-0.3,0.6-0.6,0.8-0.9
			c0.2-0.3,0.3-0.8,0.5-1c0-0.1,0.2,0,0.2-0.1c0.1-0.2,0.2-0.3,0.3-0.5c0,0,0.2-0.1,0.2-0.1c0.1-0.1,0-0.2,0.1-0.2
			c0.1-0.1,0.3,0.2,0.4,0.3c0.3,0.3,0.6,0.9,0.9,1.2c0.3,0.2,0.9,0.6,1.2,0.9c0,0.1,0,0.2,0,0.2c0.1,0.1,0.2,0.2,0.3,0.3
			c0.1,0.2,0.2,0.4,0.3,0.6c0.1,0,0.2,0,0.2,0.1c0.1,0.1,0,0.3,0.1,0.4c0.1,0,0.1,0,0.2,0.1l0.5,0.5v0.1c0.1,0.1,0.4,0.2,0.5,0.4
			c0.2,0.4,0.5,0.7,0.7,1.1c0.1,0.1,0.3,0.2,0.4,0.3c0.1,0.1,0,0.3,0.1,0.4c0,0,0.5,0.4,0.5,0.5c0.2,0.3,0.2,0.5,0.3,0.8
			c0.2,0.3,0.6,0.6,0.8,1c0,0.1,0.1,0.3,0.1,0.4c0,0,0.2,0.1,0.2,0.1c0.2,0.3,0.3,0.7,0.5,1c0.4,0.6,0.9,1.3,1.2,2
			c0.1,0.2-0.1,0.4,0,0.5c0.1,0.3,0.3,0.8,0.4,1.1c0,0.2,0,0.5,0,0.7c0.2,0.6,0.2,1.4,0.3,2c0.1,0.4-0.1,0.9,0,1.4
			c0.1,0.3,0.1,0.7,0.2,1c0,0.2,0,0.5,0,0.7c0.1,0.6,0.3,1.9,0.2,2.6c0,0.6-0.1,1.3,0,1.9c0.1,0.2-0.1,0.5,0,0.7
			c0.1,0.3,0.3,0.8,0.2,1.4c0,0.1-0.1,0.3-0.1,0.4c0.1,0.3,0.2,0.9,0.1,1.2c-0.1,0.7-0.1,1.3-0.1,2.1c0,0.2-0.1,0.6,0,0.7
			c0.3,1.7,0.4,3.6,0.3,5.2c-0.1,0-0.1,0-0.2,0h-0.1c0,0.1,0,0.2,0.1,0.2c0.1,0,0.2,0,0.3,0c0,0.3-0.1,0.6,0,0.9v0.1
			c-0.1,0-0.1-0.1-0.2-0.1c0,0,0,0-0.1,0.1v0.2c0.1,0,0.1,0,0.1,0h0.1c0,0.4-0.1,0.8-0.1,1c-0.2,0.2-0.7,0.1-1,0.2
			c-0.5,0.1-1.5,0.2-2.1,0h-0.9c-0.8-0.2-1.6-0.1-2.5-0.2c-0.2,0-0.5,0-0.7,0c-1.3-0.3-2.5-0.5-3.7-0.8c-0.5,0-0.9-0.1-1.4-0.1
			c-0.3-0.1-0.7-0.2-0.9-0.3c-0.3-0.1-0.5,0-0.8-0.1c-0.3-0.3,0.1-1,0-1.2c-0.3-0.7-0.2-1.7-0.4-2.6c0-0.2,0.1-0.6,0-0.9
			C394.5,328,394.6,327.2,394.4,326.5z M394.4,311.8c0.1,0,0.2,0,0.1,0C394.5,311.8,394.5,311.9,394.4,311.8z M407.1,392.3
			L407.1,392.3H407c0-0.1,0-0.1,0-0.2c0,0,0.1,0,0.1,0C407.1,392.2,407.1,392.2,407.1,392.3z M407.2,391.8
			C407.1,391.9,407.1,391.9,407.2,391.8l-0.1,0c0-0.2,0.1-0.3,0.1-0.5C407.2,391.5,407.2,391.7,407.2,391.8z M416.7,386.9
			c0,0-0.1,0-0.1,0c-0.1,0.2,0.2,0.5,0.1,0.8c-0.1,0.1-0.1,0-0.2,0l0,0c0.1,0.2,0.1,0.2,0.2,0.2c0,0.3,0,0.6-0.1,0.7
			c-0.2,0.2-0.3,0-0.4,0.2c-0.2,0-0.2-0.1-0.3-0.1c-0.2,0.1-0.2,0.1-0.3,0.2c0,0.1,0,0.2,0.1,0.2c-0.2,0-1.3,0.6-1.4,0.7H414
			c-0.1-1.1-0.1-2.4,0.1-3.4c0.1-0.2-0.1-0.4,0-0.6c0.1-0.3,0.3-1.8,0.2-2.1c0,0-0.1-0.3-0.1-0.3l0.1-0.1c0.1-0.3-0.1-0.3,0-0.5
			c0,0,0.1,0,0.1-0.1c0-0.2-0.1-0.1-0.1-0.2c0,0,0.1-0.2,0.1-0.3c0-0.2-0.1-0.5,0-0.7c0-0.1,0.1-0.6,0.1-0.7c0-0.1-0.1-0.2-0.1-0.4
			c0.1-0.4,0.3-1.1,0.2-1.6c-0.1-0.7,0.1-2.1,0.2-2.8c0-0.2-0.1-0.4,0-0.5c0-0.1,0.1-0.2,0.1-0.4c0-0.1-0.1-0.2-0.1-0.2l0.1-0.1
			c0-0.2-0.1-0.1-0.1-0.2c0-0.2,0.1-1.2,0.1-1.2l-0.1-0.1c0-0.1,0-1,0.1-1.1c0.2-0.7,0.1-1.2,0.1-1.9c0-0.2,0-0.3,0-0.5
			c0-0.3,0.1-0.6,0.1-0.9c0-0.2-0.1-0.6-0.1-0.7c0.1-0.6,0.2-1.3,0.1-1.9c0,0,0-1.4,0-1.4c0-0.1,0.1,0,0.1-0.1
			c-0.1-0.8-0.1-1.6-0.1-2.4c0-0.7,0.2-1.8,0-2.6c-0.1-0.6,0.1-1.2,0-1.5v-0.7c0-0.6,0.1-1.1,0-1.7c0-0.2,0.1-0.5,0.1-0.7
			c-0.1-0.7,0-2.1,0.1-2.7c0-0.3,0-0.5,0-0.8c0.1-0.3,0.1-1.1,0.1-1.5v-0.8c0,0,0.1-0.3,0.1-0.3c0-0.1-0.1-0.4,0-0.6
			c0.1-0.6,0.3-2.9,0.1-3.1c0.2-0.3,0.1-2.7,0.1-2.8c-0.1-0.3,0.1-0.6,0-0.8c0.1,0,0,0,0.1,0c0-0.1-0.1-0.2-0.1-0.2
			c0.1-0.1,0.1-0.1,0.2-0.1c-0.1-0.2-0.2-0.2-0.2-0.4c0-0.1,0-0.3,0.1-0.4c-0.1-0.1-0.2-0.2-0.2-0.4c-0.1,0-0.1,0-0.2-0.1
			c-0.2,0-0.4,0-0.6,0.1c-0.2,0.3,0,0.7,0.1,1c0.1,0.3,0.2,1.7,0.2,1.9c-0.1,0.6,0,1.6,0.1,2.1c0,0.1-0.1,0.3-0.1,0.4
			c0,0.1,0,0.3,0,0.4c-0.1,0.5-0.1,1.1-0.1,1.5c0,0.2,0,0.5,0,0.7c-0.2,0.7-0.1,1.7-0.1,2.3v1.4c-0.1,0.3,0,0.6,0,1
			c-0.2,0.9-0.1,2.1-0.1,3.1v2.2c0,0.1-0.1,0.4-0.1,0.5s0.1,0.2,0.1,0.4c-0.3,1.2,0,2.8-0.1,3.7c0,0.2,0.1,0.6,0,0.9
			c-0.1,0.4-0.1,2,0.1,2.4c-0.1,0.4-0.1,0.7-0.1,1.3v1.2c-0.1,0.7-0.1,1.8-0.1,2.6c0,0.2,0.1,0.2,0.1,0.3c-0.2,1.2-0.1,3-0.3,4.2
			c-0.1,0.6,0,1.4-0.1,2.1c-0.2,0.8,0,1.5-0.1,2.1c0,0.7,0,1.4-0.1,2c0,0.1,0,0.4-0.1,0.5h-0.1c-0.1,0.1,0.2,0.7,0.1,1.1
			c-0.2,1.1-0.1,2-0.3,3v0.9c-0.1,0.5-0.3,1.3-0.2,1.8c0,0.3,0.1,1,0,1.2c-0.1,0.2-0.3,0.1-0.4,0.1c-0.1,0.1-0.2,0.2-0.2,0.3
			c-0.2,0.1-0.3,0-0.5,0.1c-0.3,0.2-0.7,0.5-1.1,0.6c-0.5,0.2-1,0.3-1.5,0.4c-0.2,0.1-0.5,0.3-0.7,0.2c-0.5-0.1-0.3-0.4-0.3-0.7
			c-0.1-0.4-0.2-1.2-0.4-1.8c0-0.2,0-0.4,0.1-0.5c0-0.2-0.2-0.7-0.1-1c0.2-1.1,0.3-2.3,0.1-3.3c0-0.2,0.1-0.7,0.2-0.8
			c-0.1-0.5-0.1-1.3,0-1.6c0.1-0.4-0.1-0.9-0.1-1.1c0-0.4,0-1,0-1.4c0-0.1,0-0.2,0-0.3c0-0.2-0.1-0.6,0-0.9c0.1-0.2,0.1-1.7,0-2.1
			c-0.1-0.4-0.1-1.2-0.1-1.6c0-0.2,0-0.5,0-0.7c0-0.3,0.2-0.4,0.1-0.6c-0.1-0.1-0.2-1.4-0.1-1.6c0.1-0.2,0-0.5,0-0.8
			c0-0.1,0.1-0.6,0.1-0.6c-0.2-0.5-0.1-1.3-0.1-1.8c0-0.2,0-0.5,0-0.7c0-1.2,0.1-2.3,0.1-3.5c0.1-0.5,0.1-1.2,0-1.6
			c0-0.3,0-0.6,0.1-1c0-0.2-0.1-0.5-0.1-0.8c0.1-0.4-0.1-1.3,0-1.7c0.1-0.5,0.2-1.7,0.1-2.4c-0.1-0.3,0.1-0.7,0-1c0.2-0.7,0-1.3,0-2
			c0-0.8,0.1-1.7,0.2-2.6c0-0.1-0.1-0.3-0.1-0.4c0.1-0.7,0.2-1.6,0-2.3c0-0.3,0.1-0.6,0.1-0.9c-0.1-0.4-0.1-1.5,0.1-2
			c-0.1-0.4,0-1.2,0.1-1.6c0.1-0.5,0-1.1,0.1-1.5c0.1-0.4-0.1-1-0.1-1.3c0.1-1-0.2-2.6,0-3.7c-0.1-0.1-0.2-0.3-0.4-0.4
			c0,0,0,0-0.1,0c-0.4,0.9-0.3,2.5-0.3,3.3c0,0.2,0.1,0.5,0,0.8c-0.1,0.6,0.2,1.6,0,2.3c-0.1,0.3-0.2,1.1-0.2,1.3
			c0,0.2,0.1,0.2,0.1,0.4c-0.1,0.5-0.2,1.8-0.2,2.1c0.1,0.6,0.1,1.7,0,2.1c0,0.6,0,1.2,0,1.8c-0.1,0.5-0.2,1.7-0.1,2.4
			c0,0.2,0.1,0.5,0,0.8c-0.1,0.4,0,0.9,0,1.5c0,0.2,0,0.2-0.1,0.3c0.2,0.1,0,0.7,0,1.1c0.1,0.5,0,1.9-0.1,2.3c0,0.2,0,0.4,0,0.5v1.8
			c0,0.1,0,0.3,0,0.4c-0.2,1.1,0,1.7-0.2,2.8c-0.1,0.4,0.1,1,0,1.5c-0.1,0.7-0.2,2.5-0.1,3.1c0.1,0.6-0.2,1.2-0.1,1.8
			c0.1,0.4,0.2,0.9,0.1,1.5c0,0.1-0.1,0.4-0.1,0.6c0.1,0.3,0.2,1.5,0.1,1.9l-0.1,0.1l0.1,0.1c-0.1,0.4,0,0.7,0,1.1
			c0,0.1,0,0.2-0.1,0.3c0,0.1,0.1,0.4,0.1,0.5c-0.1,0.6-0.2,1.8-0.1,2.4c0,0.3,0.1,1,0.1,1.2c0.1,0.3,0,0.7,0,0.9
			c0,0.2,0.1,0.3,0,0.4c-0.1,0.5-0.1,1.2-0.2,1.8c-0.1,0.5,0.1,1.4,0,1.7l-0.1,0.1c-0.2,0.9,0.2,2.1-0.1,3c-0.1,0.2-0.4,0.5-0.5,0.7
			c0,0.1,0.1,0.7,0,0.9c-0.1,0.3-0.2,0.5-0.3,0.8h-0.1c0,0.1,0,0.1,0.1,0.2v0c-0.4,0-1.1-0.1-1.4-0.4c0-0.1,0,0,0-0.1l0,0
			c-0.2,0-0.1,0-0.2,0.1c-0.1-0.1-0.3-0.2-0.4-0.2V391c-0.4,0-0.5-0.2-0.8-0.1c0,0,0-0.1,0-0.1h0.4v-0.2c-0.6,0.1-1.6,0-2-0.3
			c-0.5-0.4-0.4-1.7-0.6-2.4c-0.1-0.3,0-0.3,0-0.5c0-0.1-0.2-0.4-0.2-0.5v-0.7c-0.1-0.6-0.1-1.2-0.2-1.8c0-0.1,0-0.2,0-0.3
			c-0.1-0.4-0.3-1.1-0.2-1.5c0-0.2,0-0.7,0-0.9c-0.1-0.6-0.2-1.4-0.1-2h-0.1c0-1.4-0.2-2.3-0.3-3.6c0.1,0,0,0,0.1,0
			c0-0.1,0-0.1,0-0.1c-0.1,0,0,0-0.1,0c0-0.1,0-0.1-0.1-0.1c0-0.6-0.1-1-0.2-1.4c0-0.1,0-0.3,0-0.4c-0.1-0.5-0.1-1.1-0.3-1.6
			c0-0.1,0.1-0.3,0-0.4c-0.1-0.7-0.1-1.8-0.3-2.5v-0.8c-0.3-1.3-0.1-3.1-0.4-4.6c-0.1-0.3,0.1-1.1,0-1.5c0-0.3-0.1-0.7-0.1-1
			c0-0.2,0.1-0.3,0.1-0.6c-0.1-0.4-0.1-0.9,0-1.2c0.1-0.3-0.1-1,0-1.1c0.1,0,0.1-0.1,0.2-0.1c0-0.1-0.1-0.3-0.1-0.4
			c0,0,0.1-0.1,0.1-0.1c0,0-0.1-0.1-0.1-0.1c0,0,0.1-0.5,0.1-0.6c0.1,0,0.1-0.1,0.1-0.1c0,0-0.1-0.2-0.1-0.2c0-0.2,0.1-0.8,0.1-0.9
			c0-0.6,0.1-1.3,0.1-1.9c0.4-1.6,0.2-3.5,0.6-5.1c0-0.5,0.1-1,0.1-1.4c0-0.1,0.2-0.2,0.1-0.4c0-0.2-0.2-0.4-0.3-0.6
			c-0.1,0-0.2,0-0.3,0.1c-0.6,0.1-0.3,0.6-0.6,0.9c0.1,0.1,0.2,0.4,0.3,0.5c0,0.3-0.1,0.5-0.1,0.8c0,0.6-0.1,1.4-0.2,2v0.5
			c-0.1,0.3-0.1,0.7-0.2,1c0,0.1,0.1,0.5,0,0.7c-0.2,0.8-0.4,2.6-0.3,3.3c0,0.2-0.1,0.3-0.1,0.4v1.2c0,0.1-0.1,0.3-0.1,0.5
			c0.1,1.1-0.2,2.6-0.1,4v1.3c0.1,0.5,0,1.3,0.1,1.6c0,0.1,0.1,0.3,0.1,0.4c0.1,0.5,0,1.3,0,1.7c0,0,0.1,0.3,0.1,0.3
			c0,0.2,0,0.9,0,1.2c0.2,1.3,0.2,4,0.7,5.9v0.9c0.1,0.5,0.2,1.3,0.3,1.8c0,0.4,0,0.7,0.1,1.1c0.2,0.8,0.2,2,0.3,2.7
			c0.3,1.4,0.1,2.9,0.4,4.1c0.1,0.5,0,0.8,0.1,1.2c0.2,0.4,0,1.2,0.1,1.5l0.1,0.1c0.2,0.6,0,1.2,0.3,1.7v0.1c-0.1,0-0.3,0-0.4,0
			c-0.5-0.2-0.2-0.8-0.4-1.3c-0.2-0.3-0.4-0.7-0.5-1c-0.2-0.4-0.1-0.8-0.2-1.2c0-0.1-0.1-0.2-0.1-0.2c0-0.1,0-0.2,0.1-0.3
			c0-0.1-0.2-0.2-0.2-0.3v-0.4c-0.1-0.4-0.1-0.8-0.2-1.1v-0.5c-0.1-0.4-0.3-1.3-0.5-1.9c0-0.3-0.1-0.6-0.1-0.8
			c-0.1-0.3-0.3-0.8-0.3-1.1c0-0.2,0-0.8,0-1c-0.1-0.4-0.2-0.9-0.3-1.4c0-0.2,0-0.4,0-0.6c-0.1-0.3-0.2-1.2-0.3-1.6
			c0-0.2,0.1-0.3,0-0.5c-0.5-1.2-0.4-2.8-0.7-4.1c-0.1-0.3-0.1-0.7-0.1-0.9c0-0.1,0-0.2,0-0.2c-0.3-1.2-0.2-2.1-0.4-3.6
			c0-0.2,0.1-0.5,0-0.7c-0.6-1.8-0.5-4.5-0.5-6.4h0.1c-0.1-0.1,0-0.1-0.1-0.1c0-0.6-0.1-1.3-0.2-1.8c0-0.2,0.1-0.5,0-0.7
			c-0.1-0.5-0.1-1-0.2-1.5c0-0.2,0.1-0.3,0-0.4c0-0.2,0-0.5-0.1-0.7v-0.8c0-0.2,0-0.7,0-1c-0.1-0.4-0.2-1.1-0.1-1.6
			c0-0.2,0.1-0.4,0-0.6c-0.1-0.4-0.1-1-0.1-1.4c0-0.3,0.2-1,0.1-1.5c0-0.3-0.1-0.7,0-0.9l0.1-0.2c0-1.4,0-2.7,0-4
			c0-0.3,0-0.4,0.1-0.6c-0.1-0.2-0.1-0.8-0.1-1c-0.1-0.5,0.1-1.3,0.2-1.8c0.1-0.2-0.1-0.5-0.1-0.7c0.1-0.6,0.2-1,0.2-1.5
			c0-0.1,0-0.2,0-0.3c0.1-0.5,0.6-0.8,0.3-1.4l0.1-0.1c1.9,0.1,3.8,0.6,5.5,1c0.6,0,1.1,0.1,1.7,0.1c0.2,0,0.3,0,0.5-0.1
			c1.7,0.4,4.6,0.5,6.4,0.1c0.2,0,0.5,0.1,0.7,0c1.1-0.3,2.9-0.1,4-0.4h0.7c0.4-0.1,1.2-0.1,1.5-0.2c0.2,0,1.3,0,1.3,0v-0.1
			c0.1-0.1,0.4,0,0.6,0c0.5-0.2,1.5-0.4,2-0.7h0.1c0.1,0.4,0.1,0.8,0.2,1.1v0.9c0,0.1,0.1,0.2,0,0.3c0,0-0.1,0.1-0.1,0.1
			c0.2,0.4,0.1,1.7,0,2.1c0,0.2,0,0.5,0,0.7c0,0.3-0.1,0.7-0.1,0.9c0,0.1,0.1,0.4,0,0.6c0,0-0.1,0.1-0.1,0.1
			c-0.1,0.2,0.1,1.1,0.1,1.4c0,0.1-0.2,0.5-0.2,0.6c0.2,0.3,0,0.6,0,1c0,0.2,0.1,0.3,0.1,0.5c0,0.2-0.1,0.5-0.1,0.7
			c0,0.1,0.1,0.6,0.1,0.7c-0.1,0.4-0.2,1.2-0.1,1.7c0.1,0.5,0.1,1.1-0.1,1.4c0,0.4,0.2,0.9,0.1,1.3c0,0-0.1,0.2-0.1,0.2
			c0,0.1,0.1,0.3,0.1,0.4c-0.1,0.5-0.2,1.3-0.2,1.6c-0.1,0.3,0.1,0.5,0,0.9c0,0-0.1,0-0.1,0c0,0.1,0,0.2,0,0.3c-0.1,0.5,0,1-0.1,1.5
			c-0.2,1.2,0,2.7-0.3,4c0,0.6-0.1,1.3-0.1,1.9c-0.1,0.5-0.1,1-0.2,1.6c0,0.3,0.1,0.5,0.1,0.8c-0.2,0.9-0.2,2.4-0.4,3.3v1
			c-0.2,1,0,1.9-0.3,2.6c0.1,0,0.1,0,0.2,0.1c-0.2,0.7,0.1,1.3-0.1,2.1c-0.1,0.4-0.2,1.1-0.3,1.4c-0.1,0.2,0.1,1.1,0,1.3
			c-0.4,3-0.6,6.3-1.3,9.4c-0.1,0.3,0.1,0.6,0,0.9C416.9,385.4,416.8,386.8,416.7,386.9z M406.7,279.6c0.1,0.1,0.3,0,0.4,0
			c0,0,0.2,0.1,0.3,0c0.5-0.2,0.7-0.6,1-1c-0.1-1.2-0.7-1.3-1.8-1.4c-0.3,0.3-0.5,0.6-0.8,0.9c0,0.2,0,0.3,0,0.3
			C405.8,279,406.3,279.5,406.7,279.6z M407,278.1h0.3l0.1,0.1c0,0.3-0.1,0.3-0.1,0.4c-0.3,0-0.3-0.1-0.4-0.1
			C406.8,278.3,406.9,278.3,407,278.1z M403.9,280c0.1-0.1,0.3-0.1,0.5-0.2c0.1-0.1,0.1-0.3,0.2-0.3c0-0.2,0.2-0.3,0.1-0.6
			c-0.1-0.5-0.7-1.5-1.4-1.4c-0.4,0.1-0.7,0.3-1.1,0.4C402.1,279.3,402.7,279.6,403.9,280z M403.4,278.5h0.3l0.1,0.1
			c0,0.3-0.1,0.3-0.1,0.4c-0.3,0-0.3-0.1-0.4-0.1C403.3,278.6,403.3,278.6,403.4,278.5z M405.9,289.1h0.1c-0.1,0,0.2-0.6,0.3-0.7
			c-0.1-0.2-0.2-0.4-0.2-0.5c-0.3,0-0.5-0.1-0.8-0.1v0.1c-0.1,0.1-0.2,0-0.3,0.1c0,0.3,0.1,0.7,0.2,0.9
			C405.4,289,405.8,288.9,405.9,289.1z M405.8,316.9c0.3,0,0.7,0,1-0.2c0.2-0.1,0.1-0.3,0.3-0.4c-0.1-0.3-0.3-0.7-0.3-0.9
			c0,0,0.1,0,0.1-0.1c-0.1-0.2-0.2,0-0.3-0.3c-0.2,0-0.4-0.1-0.6,0c-0.3,0.3-1.2,1-0.7,1.6C405.3,316.6,405.6,316.7,405.8,316.9z
			 M406.4,320.6c-0.2,0.1-0.4,0.2-0.7,0.2c0,0.1-0.1,1.2,0.1,1.4c0.2,0.2,0.5,0.2,0.6,0.5c0.5-0.1,0.7-0.6,1.1-0.8
			c0-0.3,0-0.5,0.1-0.7C407.5,320.9,407,320.4,406.4,320.6z M406.7,326.2c-0.1,0.1-0.1,0.1-0.3,0.1c-0.1,0.1-0.2,0.3-0.3,0.4
			c0,0.3,0.1,0.7,0.2,1c0.1,0,0.3,0.1,0.4,0.1c0.9,0,0.6-0.6,1.1-0.9C407.7,326.4,407.3,326.3,406.7,326.2z"/>
	</g>
</g>
</svg>
