<?xml version="1.0" encoding="utf-8"?>
<!-- Generator: Adobe Illustrator 21.0.0, SVG Export Plug-In . SVG Version: 6.00 Build 0)  -->
<svg version="1.1" id="Calque_1" xmlns="http://www.w3.org/2000/svg" xmlns:xlink="http://www.w3.org/1999/xlink" x="0px" y="0px"
	 viewBox="0 0 841.9 595.3" style="enable-background:new 0 0 841.9 595.3;" xml:space="preserve">
<style type="text/css">
	.st0{fill:#DADADA;}
	.st1{fill:#1D1D1B;}
</style>
<ellipse class="st0" cx="411.7" cy="416" rx="93.2" ry="11.9"/>
<g>
	<g>
		<path class="st1" d="M501.8,337c-1.8-0.5-2.8-0.6-4.4,0.1c0.6-1.7,1.3-3.3,1.9-5c0.6-3.2-0.1-5.7,0-8.4
			c0.6-12.4-6.3-29.1-14.2-35.6c-3.1-2.5-6.8-4.9-10.2-7c-1.7-1-3.5-1.6-4.8-3.1c3.4-9.7-2-17.6-5.9-24.4c-2.6-4.5-4.9-8.1-7.8-12.1
			c-1.5-1.6-3.1-3.2-4.6-4.8c-1.8-2.5-3.5-5.7-5.9-7.6c-0.4-0.1-0.8-0.2-1.2-0.2c-1.3-0.7-2.7-2.3-4-3.1c-2.5-1.7-5.2-2.8-8.1-4
			c-4.1-1.8-18.7-6.1-23.2-4c-0.5-0.1-0.4,0-0.6-0.2c-0.3-0.4-0.2-1-0.1-1.6c2.5-0.6,5.3-1,7.1-1.8c1.1-0.4,1.9-1.7,3.1-2
			c0.4-2.4,0.4-6.8-0.8-8.5c-1.6-2.2-6.6-1.8-9.6-2.1c-5.2-0.7-15.4,1.6-16.9,5.5c-0.4,1,0.1,3.3,0.2,4.6c0,0.7,0,1.3,0,2
			c0.4,0.4,1.4,0.3,2,0.1c1.5,1.4,7.6,2.2,8,2.9c0.9,0.3,0.6,1.4,0.5,2.4c-6.1-0.5-16.2,1.4-20.5,3.8c-0.5-0.4-10.1,4-11.1,4.6
			c-11.9,7.1-18.7,16-22.2,30.2c-1.4,5.5-3.3,19.7-1.1,25.2c0.7,0.9,1.4,1.8,2.1,2.8c-3.3,3.3-9.4,3.8-13.4,6.5
			c-9.8,6.5-21.7,20.1-19.5,36c0.9,6.3,0,12.3,4.6,15.4c0,0.1,0.1,0.2,0.1,0.4c-5.4,0.1-1.8,13.6-2.4,18.1
			c-0.5,3.9,0.7,16.6,2.1,19.2c0.4,0.7,4.8,3.7,5.8,4.4c1.2,0.8,1.8,2.4,2.9,3.4c1.4,0.9,2.8,1.8,4.1,2.6c0.9,0.7,1.5,1.7,2.6,2.2
			c5.7,2.8,12.2,4.3,18.6,6.5c3.3,1.1,6.5,2.8,10.2,3.8c2.4,0.2,4.8,0.5,7.1,0.8c12.5,2.8,28.8,2.5,41.5,1.4
			c7.7-0.7,15.3-0.9,21.8-3.1c1.9,0.9,5.6-0.7,7.2-1.1c5.5-1.5,11.7-2,17.5-3.9c1.7-0.5,3.3-1.6,4.8-2.4c1.2-0.6,2.3-0.2,3.6-0.6
			c2.1-0.9,4.3-1.8,6.4-2.8c2.9-1.7,6.6-4.5,9.6-5.4c2.2-0.7,2.9-2.5,4.5-3.8c0.7-0.5,1.7-0.5,2.5-1c2-1.4,9.7-9.4,10.5-11.6
			c0.1-1.1,0.2-2.3,0.2-3.4c1.2-4.7,0.7-13.1,0.6-17C503.1,346.3,504.2,340.5,501.8,337z M415.8,209.9c0.1,0.1,0.2,0.2,0.2,0.2
			c-0.1,0.1-0.2,0.2-0.2,0.2C415.8,210.2,415.8,210.1,415.8,209.9z M495.5,341.5c0.2-0.1,0.4-0.2,0.6-0.4c0.1,0,0.2,0,0.2,0
			c0,0.2,0,0.4,0,0.6c-0.3,0-0.6-0.1-0.9-0.1C495.5,341.6,495.5,341.6,495.5,341.5z M494.4,331c1.1,1.5-0.6,3.4-1.1,4.6
			c-0.1,0-0.2,0.1-0.2,0.1c-0.2-0.4-0.3-0.8-0.5-1.2c0.3,0,0.6,0,0.9,0c0.3-0.6,0.6-1.2,0.9-1.8C493.9,331.9,493.9,331.7,494.4,331z
			 M492.8,342.4c0.4,0.3,0.3,0.4,0.4,1c0.8,0.5,1.2,0.3,2.1,0c-0.4,0.6-0.9,0.9-1.5,1.2c-0.4-0.3-0.8-0.6-1.1-0.9
			C492.7,343.3,492.7,342.8,492.8,342.4z M494.9,320.9c0,0.5-0.1,1-0.1,1.5c-0.1,0-0.2,0.1-0.4,0.1
			C494.6,322,494.7,321.4,494.9,320.9z M495,324h-0.1c-0.1-0.2-0.2-0.4-0.2-0.6C494.9,323.6,494.9,323.6,495,324z M493.8,326.5
			c0.4,0,0.8,0.1,1.1,0.1c0.1,0.8-0.8,1.5-1.2,2.1c-0.1,0-0.2,0.1-0.4,0.1C493.4,327.6,493.6,327.6,493.8,326.5z M482.6,291.6h0.1
			c0,0.1,0.1,0.2,0.1,0.2c-0.1,0-0.2,0-0.4,0C482.6,291.8,482.6,291.7,482.6,291.6z M482.8,292.9c0.2,0.1,0.5,0.3,0.8,0.4
			c-0.1,0.4-0.2,0.8-0.4,1.2c-0.3,0.2-0.6,0.3-0.9,0.5c-0.1-0.3-0.2-0.7-0.4-1C482.4,293.7,482.5,293.4,482.8,292.9z M481.3,291.1
			c0,0.1,0.1,0.2,0.1,0.2c-0.3,0.2-0.7,0.4-1,0.6c0,0.7,0.1,1,0.5,1.2c0.2,0.2,0.3,0.4,0.5,0.6c-1,0.1-1.7,0.9-1.4,2
			c-0.1,0-0.2-0.1-0.4-0.1c-0.2-0.4-0.1-0.8-0.1-1.6c-0.3-0.1-0.6-0.2-0.9-0.2c0-1.2,1.1-2.2,1.8-3.2
			C480.7,290.8,481,291,481.3,291.1z M476.9,287.8c-0.1,0.1-0.2,0.3-0.2,0.4c0,0.1-0.1,0.2-0.1,0.2c0-0.3-0.1-0.6-0.1-0.9
			C476.6,287.6,476.7,287.7,476.9,287.8z M476.5,289.8c0-0.2,0.1-0.5,0.1-0.8c1.1,0.2,1.2,0.4,2.2,0.2c0,0.1,0.1,0.2,0.1,0.2
			c-0.4,0.7-0.8,1.3-1.1,2c-0.2,0-0.3,0.1-0.5,0.1c-0.5-1-1.4-0.6-2,0c-0.2-0.5-0.4-1-0.6-1.5C475.6,290.1,476,290,476.5,289.8z
			 M473.4,285.5c0.5,0.6,0.8,1.5,1.4,2.1c-0.4,0-0.8,0.1-1.1,0.1c-0.3-0.5-0.7-1-1-1.5C472.9,286,473.1,285.8,473.4,285.5z
			 M471.6,283.5c0,0.1-0.1,0.2-0.1,0.2c0-0.1-0.1-0.2-0.1-0.2C471.5,283.5,471.6,283.5,471.6,283.5z M467.9,291
			c0,0.1-0.1,0.2-0.1,0.2c0-0.1-0.1-0.2-0.1-0.2C467.7,291,467.8,291,467.9,291z M466.6,285.8c0.1,0.2,0.3,0.5,0.4,0.8
			C466.4,286.3,466.5,286.3,466.6,285.8z M467,289.9c0,0.2,0,0.3,0,0.5c-0.1,0-0.2,0-0.4,0c0-0.2,0-0.3,0-0.5
			C466.8,289.9,466.9,289.9,467,289.9z M466.3,271.8c0,0.1-0.1,0.2-0.1,0.2c0-0.1-0.1-0.2-0.1-0.2
			C466.1,271.8,466.2,271.8,466.3,271.8z M466.4,282.5v0.1c-0.2,0.1-0.3,0.2-0.5,0.2c-0.2-0.2-0.3-0.5-0.5-0.8c0.2,0,0.4,0,0.6,0
			C466.1,282.3,466.3,282.4,466.4,282.5z M409.4,226.9c0.9,0,1.5,0.2,1.9,0.6c0.1,0,0.2,0,0.2,0c-0.2,0.2-0.5,0.3-0.8,0.5
			c-0.2,1.1,0,1.5,0.4,2.6c-2.5,1.9-11.2,2.6-12.6-0.6c-1.1-2.3,2.4-3,3.6-3.2c0.1,0.8,0.3,1.7,0.4,2.5
			C404.4,232.1,409.5,230.7,409.4,226.9z M413.3,236.3c0.2,0.3,0.8,0.6,1.1,0.8c0.4,1,0.1,3.2,1,4.5c-0.2,0.3-0.5,0.7-0.8,1
			c0.4,0.6,0.6,1.2,1.2,1.6c0.4,0.1,0.4,0,0.8-0.1h0.1c-0.2,0.6-0.4,0.7-1,0.9c-0.4,0.2-1.1-0.5-1.9-0.8c-0.1,0.1-0.2,0.2-0.4,0.2
			c-0.1,0.7,0.1,1.2,0.2,1.9c-1,0.2-2,0.6-2.6,1.1c-0.6-0.2-1.2-0.4-1.8-0.6c-0.4,0.3-0.8,0.7-1.1,1c-0.6,0.6-8,0.1-8.5-0.1
			c-1-0.4-2.8-1.5-3.5-2.4c0.2-1.7,1.6-2.5,2-4.1c0.7-2.7,0.2-5.6,0.8-7.9c1,0.2,1.9,0.7,3.1,0.9c2.2,0.3,9.1-0.8,10.2-2.1
			C414.7,232.3,412.1,234.8,413.3,236.3z M416.5,247.4v-0.1c0.1-0.1,0.3-0.2,0.4-0.2s0.3,0,0.4,0C417,247.1,416.8,247.3,416.5,247.4
			z M417.4,250.6c0,0.2-0.1,0.3-0.1,0.5c-0.5,0.2-1.1,0.5-1.6,0.8c0-0.5,0-1,0-1.5c0.5,0,1.1,0,1.6,0
			C417.3,250.5,417.4,250.6,417.4,250.6z M410.5,251.6c-0.2,0.1-0.3,0.2-0.5,0.2c-0.1,0.3-0.2,0.6-0.2,0.9c0.1,0.2,0.3,0.3,0.4,0.5
			c1,0.1,1.5,0.3,2.8,0.4c-4,3.6-15.1,0.8-17.6-2.4c-0.6-0.8-0.1-3,0-3.9c1,0.4,2,1.2,3,1.6c1.8,0.7,4.5,0.1,6.1,1.2
			c0,0,5-0.7,5.2-0.8c1.9,0,3.2,1.3,5,0.1c-0.2-0.4-0.3-0.8-0.5-1.1c0-0.2,0.1-0.3,0.1-0.5c0.9,0.4,1,0.7,1.2,1.5
			c-0.4,0.4-1.1,0.5-1.4,0.9c-0.5,0.6-0.4,2.3-0.6,3c-0.1,0-0.2,0.1-0.4,0.1c0-0.4,0-0.8,0-1.2C412.3,252.1,411.4,251.8,410.5,251.6
			z M404,216.8c0.1-0.1,0.3-0.3,0.4-0.4c0.7,0,1.3,0.1,2,0.1c1.2,2.6,1.1,8.8,0.5,12.1c-0.9-0.1-1.5,0.2-2.2-0.4
			C403.9,227.7,403.5,218.1,404,216.8z M415.4,205.3c0,0.1,0,0.2,0,0.2c-0.1,0.1-0.2,0.2-0.2,0.2c-0.1,0-0.2,0-0.4,0
			c-0.1-0.2-0.2-0.5-0.2-0.8C414.8,205.1,415.1,205.2,415.4,205.3z M402.9,203c0.5-0.2,3.1,0.1,3.6-0.4c1.3,0.3,5.3,0.2,6,0.9
			c1.1,0.6,0.5,1.1,0,1.8c0.2,0.5,0.2,0.7,0.6,1c-0.6,1.1-3.3,0.7-4.8,1.1c-4,1.1-9.6,0.2-13.8-0.5C395,204.6,401.2,203.6,402.9,203
			z M393.5,208.5c2.4,0.8,10.1,1.6,13,1.1c1.3-0.2,2.2-0.7,3.9-0.6c0.1,0.1,0.3,0.2,0.4,0.2c-0.1,0.8-0.7,0.8-1.1,1.6
			c0,0.1,0.1,0.3,0.1,0.4c0.1,0.1,0.2,0.2,0.2,0.2c1.4,0,1.9-1.3,2.8-1.1c0.3-0.4-0.1-1,0.4-1.5c0.3-0.3,0.4-0.2,0.8-0.2
			c0,0.5,0,1,0,1.5c-0.5,0.4-0.9,0.8-1.4,1.2c0.1,0.5,0.2,1,0.2,1.5C409.3,214.9,390.6,216.1,393.5,208.5z M348.9,276.6
			c-1.7-8.2,0.9-17.7,3-24.9h0.1c0,1.7,0,3.3,0,5c0.6,2.4,1.6,5.1,2.8,7.2c0.3-0.1,0.6-0.2,0.9-0.2c-0.2-2.4-1.2-4.5-1.8-6.5
			c-0.7-2.5-0.1-4.9,0.1-6.8c0-0.5-0.1-1.1-0.1-1.6c4.2-14.1,16.6-21,30-25c1.9-0.6,4.2-1.3,5.8-1.9c2.2-0.9,6.7-0.5,9.2-0.9
			c1-0.1,2.4-0.7,3.2-0.4c0.1,0,0.2,0,0.2,0c0,1.2,0.3,3.4-0.4,4c-1.7,2-4.9,1.2-5.6,4.4c-0.3,1.4,0.6,2,0.8,2.9
			c0.8,3.6-0.8,9.4-2.6,11c-0.3,0.3-0.2,0.2-0.2,0.8c-0.2,0-0.5,0-0.8,0c-0.1,0.1-0.2,0.3-0.2,0.4c-0.3,0.8,0,7.4,0.1,7.6
			c-0.2,1.9,9.1,5.4,11.4,5.1c-0.1,0.1-0.2,0.3-0.2,0.4c3.5-0.6,5.6-0.2,8.6-1.4c0.3-0.1,4.1-2.2,4.5-2.5c0.9-0.7,1.3-2,2.4-2.5
			c0.7-1.5,0.3-3.9,0-5.5c-0.4-2-2.4-3.3-3.2-5.4c-0.9-2.3-0.5-4.6-1.2-7c-0.2-0.5-0.7-1.1-0.8-1.8c0-1.1,0.7-2.7-0.1-4
			c-0.8-1.3-2.9-3-5.1-2.4c-0.7-1.1-0.9-3.2-0.9-5.1c4.3-1.7,3.8,0.3,7.4,0.6c0.2-0.4,0.3-0.3,0.4-0.9c1-0.2,1.5,0.3,2.1,0.2
			c0.1,0.2,0.2,0.3,0.2,0.5c0.3,0.9-0.3,1.6-0.4,2.8c0.4,0,0.8,0,1.1,0c0.5-0.8,1.1-1.4,1.2-2.6c0.7-0.4,2.6-0.2,3.2,0.5
			c0.2,0.3,0.4,0.6,0.6,0.9c-0.3,0.7-0.6,1.4-0.9,2.1c0.1,0.2,0.2,0.3,0.2,0.5c0.3,0,0.7-0.1,1-0.1c1.4-3.2,2.5-2.7,5.5-1.9
			c1,2-0.8,3.2-1.5,4.4c0,0.1,0.1,0.2,0.1,0.2c0.6-0.1,0.9-0.1,1.1-0.6c0.3,0.3,0.2,0.3,0.8,0.5c0.5-1,1.4-1.4,1.1-2.9
			c0.1-0.1,0.3-0.3,0.4-0.4c1.2,0,2.6,0.6,3.2,1.2c0.5,0.3,0.5,0.6,0.5,1c-0.5,0.7-1.1,1.5-1.6,2.2c0,0.1,0,0.3,0,0.4
			c0,0.1,0,0.2,0,0.2c1.8-0.2,2.1-1.5,3.4-2.1c0.5-0.5,0.6,0,1.4-0.1c0.4,0.5,0.8,1,1.1,1.5c0.3,2.5-1.6,2.4-2.1,4.2
			c0.6,0,1.3-0.1,1.9-0.1c0.6-0.7,1.7-1.4,1.9-2.4c0.2,0,0.5,0,0.8,0c0.4,0.7,0.8,1.4,1.1,2.1c-0.6,1.2-1.5,1.7-2.4,2.6
			c0,0.4,0.1,0.8,0.1,1.1c1.8-0.2,2-2,3.9-1.9c0.7,1.5,2.4,2,2.5,4.1c-0.7,0.7-2.7,1.1-2.4,2.4c0,0.1,0,0.2,0,0.2
			c1.2-0.5,2.5-0.9,3.8-1.4c0.3,0.2,0.6,0.3,0.9,0.5c0.1,0.4,0.3,0.8,0.4,1.2c-0.5,0.9-1,1.9-1.9,2.4c0,0.2,0.1,0.4,0.1,0.6
			c0.2,0,0.4,0.1,0.6,0.1c0.5-0.7,1.7-0.8,2.2-1.6c0.2,0,0.3,0,0.5,0c0,3,0.3,4.8,0.6,8c-0.6,1.3-0.8,2.7-0.8,4.6l0.1,0.1
			c0.3,0,0.6-0.1,0.9-0.1c0.7-2.2,2.1-7.2,0.8-9.9c0.1,0,0.3-0.1,0.4-0.1c0.7,1,1.4,2.4,2.2,3.4c-0.6,0.9-1.2,1.6-1.2,3.1
			c0.1,0,0.2,0.1,0.2,0.1c1.2-0.2,1.1-1,2.1-1.4c0.1,0,0.3,0,0.4,0c1,0.7,1.6,2.8,0.5,4c-0.3,0.5-0.8,0.3-1.4,0.5
			c-0.1,0.1-0.2,0.2-0.4,0.2c0.2,0.7,0.3,1.3,0.5,2l0.1,0.1c1.2-0.2,2.5-1.5,2.9-2.6c0.2,0,0.3,0,0.5,0c-0.2,0.5,0.6,2.3,0.8,3
			c0.5-0.1,0.3,0,0.5-0.2c1.1,1.1-1.4,3.9-2,4.9c0.2,0.9,0.6,0.6,0.9,1c1.4-0.1,1.9-1.1,2.2-2.2c0.1,0,0.3-0.1,0.4-0.1
			c0.4,0.6,0.6,1.3,1,1.9c-0.5,0.3-0.3,0.3-0.1,0.8c0,0.1,0,0.3,0,0.4c-0.5,0-0.9-0.1-1.4-0.1c-0.2,0.5-0.2,0.8-0.1,1.4
			c0.3,0.2,0.6,0.3,0.9,0.5c-0.4,1.1-1.6,1.4-2.1,2.4c-0.8,0.6-0.6,0.5-1.8,0.4c-0.2,0.4-0.3,0.6-0.1,1c0.5,0.5,1,1,1.5,1.5
			c0.6-0.3,0.8-0.3,1-1c0.8-0.2,0.8,0.1,1.5-0.2c0,0.1,0,0.3,0,0.4c0.8-0.2,0.7-0.3,0.6-1c0.3,0,0.6,0,0.9,0c0,0.3,0,0.6,0,0.9
			c0.3,1.1-3.2,2.6-3.8,4.5c1,0.2,1.2-0.2,2-0.6h0.1c-0.1,0.5-0.2,0.9-0.2,1.4c0.3,0.1,0.7,0.3,1,0.4c0,0.4-0.1,0.8-0.1,1.1
			c-0.1,0-0.2,0.1-0.2,0.1c-0.8-0.2-0.7-0.4-1.1-0.9c-0.7,0-0.8,0.2-1.2,0.4c0,0.6,0.1,1.2,0.1,1.8c-0.4,0.2-0.8,0.5-1.1,0.8
			c0,0.2,0,0.4,0,0.6c0.3,0,0.7,0.1,1,0.1c0,0.1,0.1,0.2,0.1,0.2c-0.6,1.6-2.5,1.9-3.2,3.2c-3.1,5.3-6.4,6.8-11.2,10.2
			c-2.3,1.6-6.7,3.9-9.8,5.4c-0.6,0-1.2-0.1-1.8-0.1c-3.3,2.2-8.4,2.2-11.8,3.8c-1.6,0-3.2,0.1-4.8,0.1c-4.8,0.9-10.6,1.7-15.8,1.5
			c-4.3-0.2-10.2,1.2-15.4-0.2c-4.6-1.3-8.7-2.8-12.6-4.5c-0.6,0-1.2-0.1-1.8-0.1c-2.4-1.1-5.6-2.2-7.8-3.6
			c-1.7-0.8-3.5-1.6-5.2-2.4c-2.8-1.8-9.3-7.1-11-9.9C348.9,281.3,349.3,278.7,348.9,276.6z M465.1,273.3c0,0.2-0.1,0.4-0.1,0.6
			h-0.1c-0.1,0-0.2-0.1-0.4-0.1c-0.2-0.5-0.2-0.4,0-0.9c0.1,0,0.3,0,0.4,0C465,273,465.1,273.1,465.1,273.3z M463.4,279.1
			c-0.1,0.1-0.2,0.2-0.2,0.2c-0.1,0-0.2-0.1-0.4-0.1c0-0.1,0-0.2,0-0.2c0.1,0,0.3-0.1,0.4-0.1C463.2,279,463.3,279.1,463.4,279.1z
			 M460.6,282.1c0,0.1-0.1,0.2-0.1,0.2c0-0.1-0.1-0.2-0.1-0.2C460.5,282.1,460.6,282.1,460.6,282.1z M438.6,309.3
			c-0.3,1,0.9,2,1.1,3c1.9,1.2,8.2,0.7,7.1-3.4c0-1.3-0.9-1.8-1.9-2.1c-0.1-0.1-0.2-0.2-0.2-0.4c1.2-0.3,2.8,0.2,4,0.4
			c3.7,0.6,7.4-0.2,9.5-1.4c0.1,0.1,0.2,0.2,0.2,0.2c-5.3,3.7-9.7,8.3-16.2,10.8c-1-1.4-1-0.6-2.2-1.5c-0.3-0.5-0.7-0.9-1-1.4
			c-1.7-0.8-3.5-1.6-5.2-2.4c-3.1-1.3-6.2-4.2-7.9-7c0-0.1,0-0.3,0-0.4c2.2-0.2,9.1-1.8,10.5-3.1c0.2,0,0.5,0,0.8,0
			c0.2,2,4.9,5.6,6.9,5.2C442.9,306.8,439.2,306.1,438.6,309.3z M444.1,308.4c0.2,0.2,0.5,0.4,0.8,0.6c-0.1,0.4-0.2,0.8-0.2,1.1
			c-0.2,0.2-0.5,0.3-0.8,0.5c-0.6-0.4-1.3-2.1-1.2-2.6C443.1,308.1,443.6,308.3,444.1,308.4z M441.6,311v0.1
			c-0.3-0.2-0.6-0.4-0.9-0.6c-0.1-0.5-0.2-0.9-0.2-1.4C441.2,309.4,441.4,310.5,441.6,311z M424.1,306.5c0,0.1,0,0.2,0,0.4
			c-0.2,0-0.3-0.1-0.5-0.1c0-0.1,0.1-0.2,0.1-0.2C423.9,306.5,424,306.5,424.1,306.5z M422.3,322.9c-0.2,0.1-0.3,0.2-0.5,0.2V323
			c0.1,0,0.2-0.1,0.2-0.1C422.1,322.9,422.2,322.9,422.3,322.9z M346.1,290.1c1.2-1,3-2.7,4.8-3c0.2,0.2,0.3,0.5,0.5,0.8
			c-0.6,1.6-1.5,4.1-2.1,5.8c-1.5,3.8-0.1,8.6,1,11.5c3.4,9.1,12.7,13.1,22,16.2c1.6,0.4,3.2,0.8,4.8,1.1
			c17.1,6.2,37.6,4.9,52.4,0.8c3.7-1.1,7.4-1.2,10.9-2.9c3-1.5,6.1-3.9,9.1-5.5c8.3-4.4,17.2-11.2,17.2-23.1c0.5,0.1,1,0.3,1.5,0.4
			c1.1-0.6,1.1-1.3,1.4-2.6c-0.3-0.6-0.5-0.9-1.2-0.8c0-0.2-0.1-0.4-0.1-0.6c1.1,0.4,1.6,0.9,2.6,1.2h0.1c0.3-0.4,0.4-0.6,0.4-1.4
			c0.1,0,0.2,0,0.2,0c2.1,4.4,3.9,9.1,5.1,14.4c1.7,7.5-5.8,20-9.5,24.2c-1.7,2-6.1,4.9-8.4,6.5c-1.5,1.3-3,2.6-4.5,3.9
			c-1.7,1.1-3.5,1.6-5.4,2.5c-2.4,1.2-4.9,3.1-7.5,4.1c-7.4,2.8-16.1,4.8-24,6.2c-4.9,0.9-11.8,0.4-16.5-0.6
			c-3.2-0.7-6.4-0.1-10.2-0.9c-12.3-2.6-22.8-6.4-31.9-12.4c-8.4-5.6-16.4-13.2-19.2-23.4C336.7,302.5,339.3,295.9,346.1,290.1z
			 M324.6,305.3c3.1-5.7,9.9-10,15.9-13c0.3,0.3-1.9,2.9-2.1,3.4c-1.6,3.3-3.2,9-2.4,12.8c2.9,12.7,10,22.4,19.6,28.6
			c11.3,7.3,28.3,14.4,45.5,14.5c3.9,0,11.1,2.1,15.4,0.8c5.9-1.8,12.8-2.6,18.2-4.5c1.4-0.3,2.8-0.6,4.1-0.9
			c3.7-2.1,8.3-4.5,12-6.1c1.4-0.6,2.8-1.2,4.1-1.8c2.1-1.7,4.2-3.8,6.4-5.5c2.3-1.8,5.5-3.4,7.2-5.6c5.2-6.7,11.5-16,9.6-26.6
			c0.8,0.2,1.2,0.4,1.6-0.2c0.8-0.3,0.5-1,0.4-1.9c-0.2-0.1-0.4-0.2-0.6-0.2c-0.3,0.1-0.7,0.2-1,0.2c-0.1,0.5-0.2,0.9-0.4,1.4H478
			c-0.7-3-1.6-5.2-2.2-7.8c0.5,0.2,0.9,0.2,1.2-0.2c0.5,0.3,0.7,0.9,1.2,1.2c-0.4,0.4-0.5,0.6-0.5,1.5c0.4,0.1,0.5,0.1,0.8,0.4
			c0.1,0.3-0.2,0.4-0.2,1.2c0.9,0.6,2.8,0.8,3.8,0.5c-0.2,1.7-1.7,3.2-1.1,5.6c0.4,0.1,0.8,0.2,1.1,0.2c0.6-1.2,1-2.8,1.2-4
			c0.6-0.3,0.9-0.3,2-0.2c0.1-0.2,0.3-0.5,0.4-0.8c-0.4-0.6-0.6-0.9-1.4-1.1c-0.1,0-0.2,0.1-0.4,0.1c-0.3,0.5-0.3,0.5-0.2,1.4h-0.1
			c-0.2-0.2-0.5-0.4-0.8-0.6c-0.6-0.4,1.6-2.3,1.9-2.9c0.1,0,0.2-0.1,0.2-0.1c0.5,0.7,1,1.6,1.8,2c0.2,2.4-2.1,3.1-2.6,5
			c0.2,0.1,0.5,0.3,0.8,0.4c0,0.1,0.1,0.3,0.1,0.4c-0.8-0.1-0.8-0.2-1.2-0.5c-0.4,0.2-0.2-0.1-0.4,0.4c-0.5,0.2-0.4,0.1-0.6,0.5
			c0.1,0.2,0.3,0.5,0.4,0.8c0.7,0.4,1.3,0.4,2-0.1c0.5,0.4,0.8,0.7,1.6,0.8c0.3-0.6,0.1-1,0-1.8c-0.6-0.1-0.8-0.1-1.2-0.5v-0.1
			c0.9-0.7,1.9-1.5,2.4-2.6c0.1,0,0.2-0.1,0.2-0.1c0.7,0.7,1.4,2,1.5,2.9c0.1,1.1-1.9,3-2.8,3.6c0,0.3,0.1,0.6,0.1,0.9
			c0,0.1,0,0.2,0,0.2c1.4-0.2,1.7-1.1,2.8-1.6c0.4-0.3,1,0,1.5,0.4c0.7,0.4,0.8,1.4,1,2.2c-0.9,0.7-2.9,2.6-3,3.6
			c-0.5-0.3-0.6-0.5-1.4-0.6c-0.2,0.2-0.3,0.4-0.5,0.6c-0.1,0.1-0.2,0.2-0.2,0.2c0.5,0.6,1.3,1.3,2.6,1c0.1,0,0.2-0.1,0.2-0.1
			c-0.1-0.2-0.2-0.4-0.2-0.6c0.7,0.4,1.2,0.9,1.6,1.5c0.2,0,0.3,0,0.5,0c0.4-0.7,0.7-0.7,0.6-1.6c-0.4-0.1-0.8-0.2-1.1-0.4
			c0.3-0.4,0.7-0.8,1-1.2c0.1,0,0.3-0.1,0.4-0.1c0.1,1.1,0.2,2.3,0.2,3.4c-0.8,0.3-1.3,0.6-1.5,0.6c0,0.6,0,0.6,0.2,1.1
			c-0.4,0.7-0.8,1.5-1.2,2.2c0.2,0.4,0.1,0.1,0.1,0.6c1.5-0.1,1.6-0.9,2.4-1.6c0.3,4.8-4.6,17-8.5,18.9c-0.1,0.1-0.2,0.2-0.2,0.2
			c-0.4-0.5-0.9-1.4-1.8-0.8c-0.1,0.1-0.2,0.2-0.4,0.2c0.1,0.9,0.3,1,0.8,1.5c-0.3,0.5-0.3,0.3-0.2,1.1c-1.9-0.4-2.7,0.5-1.5,1.9
			c-4.2,3-8.8,5.1-13.1,8c-4.3,2.9-9.1,6-14.2,8.1c-7.5,3-17.4,5.5-25.2,7.9c-1,0-2.1,0-3.1,0c-5.8,1.2-12,3.2-18.4,2.5
			c-1.8,0.2-3.7,0.4-5.5,0.6c-4.7,0.8-12,0.2-16.6-0.8c-0.9,0-1.8-0.1-2.8-0.1c-8.6-3-18.6-5.8-27.2-9.1c-5.2-2-9.6-5.3-13.9-8.2
			c-8.2-5.5-14.1-12.3-16.9-23.2c-0.6-1.5-1.2-2.9-1.8-4.4C320.6,315.3,322.2,309.7,324.6,305.3z M320.9,333.3
			c-0.1-3.7-0.2-7.3-0.2-11c1.3,2,1.2,4.3,2.1,6.6c2,5.3,4.8,11.6,8.8,15.1c7.8,7.1,17.1,12.8,27.5,16.6c3.6,1.3,7.1,1.6,10.8,3
			c6.2,2.4,12,4.1,19.2,5.6c3.2,0.7,6.2,0.2,9.1-0.2c1.2,0,2.5,0,3.8,0c1.2-0.2,2.3-0.3,3.5-0.5c4.2,0.7,9.1-0.7,13.1-1.1
			c9.4-1.1,21.7-4.2,30-7.4c4.5-1.7,9.6-3.5,13.6-5.9c2.4-1.4,4.2-3.1,6.5-4.5c2.9-1.9,6.1-3,8.9-5c1.3-0.9,8.8-7.6,9.4-7.6
			c0-0.6-0.1-0.3,0.1-0.6c0.3-0.3,1.2-0.3,1.6-0.4c0.9-1.8,0.6-4.4,3.1-4.9c-0.2,0.8-0.7,1.6-1.4,1.9c0,1.6-0.1,1.6-0.1,3.2
			c0.5,0.3,1,0.5,1.6,0.8c-1.2,2.4-5.8,8.1-8.4,8.8c-0.1-0.5-0.2-0.4-0.4-0.8c-0.5,0-0.9,0.1-1.4,0.1c-0.2,0.5-0.2,0.6-0.1,1.2
			c0.2,0.2,0.4,0.4,0.6,0.6c-2.8,1.8-4.7,4.5-7.4,6.4c-7.5,5.2-17.5,9.7-26,12.9c-1-0.4-10.4,2.3-12.1,2.8
			c-4.7,1.2-9.9,1.6-14.6,2.8c-4.8,1.1-11.2,0.5-15.8,1.2c-0.7-0.1-1.5-0.2-2.2-0.2c-4,0.7-8,0.6-11.9,0c-2.7-0.4-5.1,0.2-7.4-0.4
			c-4.8-1.2-10.1-1.7-14.6-3.5c-1.3-0.2-2.7-0.3-4-0.5c-1.3-0.6-2.6-1.2-3.9-1.8c-0.8-0.2-2.1-0.1-3-0.5c-4.9-2.3-9.8-4.7-14.6-7
			c-1.9-1.2-3.8-2.5-5.6-3.8c-4.5-2.4-7.9-5.6-11.5-8.9c-1.1-1-3.5-2-4-3.5C322.6,340.1,321.4,336.7,320.9,333.3z M492,345.5
			c-0.3,0.3-0.3,0.3-0.8,0.5c-0.2-0.1-0.3-0.3-0.5-0.4c0.2-0.2,0.3-0.4,0.5-0.6C491.5,345.2,491.8,345.3,492,345.5z M428.3,375.6
			c-0.1,0.1-0.2,0.2-0.4,0.2c0-0.1,0.1-0.2,0.1-0.2C428.1,375.6,428.2,375.6,428.3,375.6z M491.6,380.6c0-0.1,0-0.2,0-0.2
			C491.8,380.6,491.8,380.4,491.6,380.6z M491.9,368.9c0-0.1,0.1-0.2,0.1-0.2C492,368.8,492.1,368.7,491.9,368.9z M491.8,368.9
			c0,0.1,0.1,0.2,0.1,0.4c2-0.2,3.3-1.8,5-2.8c-0.1,1-0.2,1.9-0.4,2.9c-1.4,1.8-4.2,2.3-5.1,4.6v0.1c2.4,0,2.7-1.3,4.4-1.9
			c-2.5,3.6-5.2,6.7-8.2,9.8c-0.7,0.7-1.3,1.5-2,2.2c-1.3,0.6-2.7,1.2-4,1.8c-1.2,0.8-2.4,1.7-3.6,2.5c-3.9,2.6-8.4,3.5-13.1,5.2
			c-1.6,0.8-3.3,1.6-4.9,2.4c-0.9,0.1-1.8,0.2-2.6,0.2c-5.2,2.1-11.3,3-17,4.4c-1.9,0.2-3.8,0.3-5.6,0.5
			c-23.4,5.3-57.4,5.7-78.2-2.4c-5.3-2.1-10.8-2.6-15.9-5c-4.6-2.2-13.9-10.3-16.4-14.5c-1.2-2-0.3-4.4-0.9-7
			c-1.6-7.7-2.3-15-2.2-23.2c0.8-0.2,1.3-0.3,2.1-0.5c1.5,2,4.3,3.5,6.4,5c1.2,1.2,2.5,2.3,3.8,3.5c2.4,1.7,5,3.3,7.5,4.9
			c1.1,0.5,2.2,1.1,3.2,1.6c6.3,4.9,14.1,7.4,22.2,9.6c1.7,0.6,3.5,1.3,5.2,1.9c4.3,1.4,7.8,1.3,11.6,2.4c3.4,0.2,6.8,0.4,10.1,0.6
			c1.1-0.1,2.2-0.2,3.2-0.2c1.4,0.5,4,0.1,5.2,0.4c7.2,1.6,16.6-0.5,24-2.1c1.1,0,2.2,0,3.2,0c6.2-1.6,11.7-1.9,17-3.6
			c2.8-0.9,5.6-2.6,8.1-3.8c8.1-3.8,15.9-6.6,22.8-11.5c2.9-2.1,5.9-4.4,8.8-6.6c1.5-1.2,2.5-3,4.4-3.9c0.2,0.4,0.4,0.8,0.6,1.2
			c0.9-0.5,1.8-0.9,2.6-1.4c1,0.8,1.1,0.5,2.8,0.4c0.4-0.8,0-1.4,0.2-2.1h0.1c0.4,0.6,0.3,1.8,0.2,2.5c-1.7,1.2-4.8,2.8-5,5.4
			c0.6,0.3,0.9,0.2,1.6,0c0.4-1.4,2-2.6,3.2-3c0.1,0,0.2,0.1,0.2,0.1c0,0.7,0,1.4,0,2.1c-0.3-0.1-0.6-0.3-0.9-0.4
			c-0.4,0-0.8,0-1.2,0c0,0.3,0,0.7,0,1c0.7,0.5,0.8,0.5,1.6,0.5c-0.2,1.4-1.3,2.3-2.5,2.8h-0.1c0.1-0.5,0.4-0.9,0.1-1.5
			c0-0.1,0-0.2,0-0.2c-0.5,0-1,0.1-1.5,0.1c-0.2,0.6,0,1,0.1,1.6c0.2,0,0.4,0,0.6,0c0,0.2,0.1,0.4,0.1,0.6c-0.3,0.4-0.7,0.8-1,1.2
			c0,0.1,0,0.2,0,0.4c0.5,0.1,0.9,0.2,1.4,0.2c0.5-0.9,2.2-1.7,3-2.2c1.5,3.1-3.1,7.4-5.2,7.9c0,0.3,0.1,0.6,0.1,0.9
			c1.4,0.5,3.3-1.5,4.6-2.1c0.3-0.3,0.6-0.6,0.9-0.9C498.3,365.6,492.6,366.4,491.8,368.9z M410.3,204.1c-0.1,0-0.2,0-0.2,0
			c-0.3-0.2-0.5-0.2-1-0.2c-0.1,0.1-0.2,0.2-0.4,0.2c0,0.4,0,0.8,0,1.1c0.5,0,1.1-0.1,1.6-0.1C410.3,204.8,410.3,204.5,410.3,204.1z
			 M391.8,233.9c0.5,0.1,0.8-0.4,0.9-1.1c-0.1-0.2-0.2-0.3-0.4-0.5c-0.2,0-0.5,0-0.8,0c-0.2,0.1-0.3,0.3-0.5,0.4
			c0,0.6,0,0.8,0.2,1.1C391.6,234,391.3,233.9,391.8,233.9z M410.8,236.8c0.1-0.3,0.3-0.6,0.4-0.9c-0.2-0.3-0.5-0.6-0.8-0.9
			c-0.1,0-0.2,0-0.4,0c-0.1,0.1-0.2,0.2-0.4,0.2c0,0.4-0.1,0.8-0.1,1.2c0.3,0.1,0.6,0.3,0.9,0.4
			C410.5,236.8,410.6,236.8,410.8,236.8z M408.6,237c-0.3-0.6-0.4-0.7-1.4-0.8c-0.2,0.3-0.3,0.6-0.5,0.9c0.2,0.2,0.5,0.5,0.8,0.8
			c0.3-0.1,0.7-0.3,1-0.4C408.6,237.3,408.6,237.2,408.6,237z M411.8,239.6c0.4,0.1,0.8,0.3,1.2,0.4c0.1,0,0.3-0.1,0.4-0.1
			c0.1-0.6,0.1-0.8-0.1-1.4c-0.4,0-0.8-0.1-1.1-0.1C412,238.8,411.9,239.2,411.8,239.6z M387.8,241c0.2-0.1,0.4-0.2,0.6-0.2
			c0.1-0.3,0.2-0.6,0.2-0.9c-0.3-0.6-0.4-0.7-1.4-0.6c-0.3,0.8-0.2,1.1,0.1,1.8C387.5,241,387.6,241,387.8,241z M406.4,239.5
			c-0.4,0.2-0.8,0.3-1.1,0.5c-0.1,0.1-0.2,0.3-0.4,0.4c-0.1,0.3-0.1,0.3,0.1,0.6c0.3,0.3,1.4,0.2,1.8-0.2
			C407.2,240.2,407,239.8,406.4,239.5z M412,242.4c-0.7-0.4-0.8-0.3-1.6-0.1c0,0.4,0,0.8,0,1.2c0.7,0.1,0.7,0.2,1.5,0.1
			c0-0.3,0.1-0.7,0.1-1c0.7,0.1,0.8,0.2,1.6,0.1c0.5-0.4,0.9-0.8,1.4-1.2c-0.2-0.4-0.4-0.8-0.6-1.2c-0.2,0-0.5,0-0.8,0
			C413,241,412,241.3,412,242.4z M369.8,240.5c-0.4,0.3-0.6,0.4-0.8,1v0.1c0.3,0.1,0.7,0.3,1,0.4
			C370.7,241.5,370.6,240.8,369.8,240.5z M405.5,242.3c-0.5,0.5-1,0.9-1.5,1.4c0,0.3,0,0.7,0,1c0.4,0,0.8,0,1.2,0
			c0.5-0.6,1-1.2,1.5-1.8c-0.2-0.2-0.3-0.4-0.5-0.6C406,242.3,405.8,242.3,405.5,242.3z M409,243.4c-0.2,0.2-0.4,0.3-0.6,0.5
			c0,1.2,0.7,1.3,1.6,1.2c0-0.8,0.1-1.1-0.1-1.5C409.7,243.4,409.5,243.5,409,243.4z M412,244.5c0.2,0,0.4,0,0.6,0
			c0.1-0.2,0.2-0.4,0.2-0.6c-0.2,0-0.5-0.1-0.8-0.1C412.1,244,412.1,244.3,412,244.5z M404.5,250.5c0,0.3-0.1,0.6-0.1,0.9
			c0.2,0.2,0.4,0.3,0.6,0.5c0.2,0,0.5-0.1,0.8-0.1c0.2-0.4,0.3-0.6-0.1-1C405.3,250.7,404.9,250.6,404.5,250.5z M377.4,252.8
			c0.1-0.2,0.3-0.3,0.4-0.5c-0.1-0.5-0.1-0.6-0.5-0.9c-0.2,0-0.5-0.1-0.8-0.1c-0.1,0.1-0.2,0.3-0.4,0.4c0,0.4,0.1,0.8,0.1,1.1
			C376.6,252.8,377,252.8,377.4,252.8z M419,256.3c0-0.2-0.1-0.5-0.1-0.8c-0.4-0.1-0.8-0.3-1.1-0.4c-0.2,0.1-0.3,0.3-0.5,0.4
			C417.5,256.4,418.1,256.4,419,256.3z M462.1,264.6c0.1,0,0.2,0,0.2,0c-0.2-1.5-1.7-1.5-3.1-1.6c-0.1,0.1-0.2,0.3-0.4,0.4
			c0,0.2,0,0.3,0,0.5C459.4,264.6,461,265.3,462.1,264.6z M450.6,263.4c-0.2,0-0.4-0.1-0.6-0.1c-1.5,1.9-2.9,3.8-4.4,5.8
			c-1.2,1.4-3,2.4-3.9,4.1C444.6,273,450.2,266.2,450.6,263.4z M391.5,264.9c0.2-0.4,0.2-0.4,0.1-1.1c-0.2-0.1-0.3-0.2-0.5-0.2
			s-0.5-0.1-0.8-0.1c-0.1,0.2-0.2,0.3-0.4,0.5c0.1,0.3,0.2,0.7,0.2,1C390.7,264.9,391.1,264.9,391.5,264.9z M410.4,266.6
			c0.2-0.4,0.4-0.6,0.2-1.1c-0.3-0.4-0.5-0.5-1-0.6c-0.4,0.3-0.5,0.4-0.8,0.9c0.1,0.2,0.3,0.4,0.4,0.6
			C409.6,266.5,410,266.6,410.4,266.6z M398.3,268.5c0.2-0.1,0.4-0.2,0.6-0.2c0-0.2,0.1-0.5,0.1-0.8c-0.4-0.4-0.4-0.5-1.2-0.5
			c-0.1,0.1-0.2,0.3-0.4,0.4C397.4,268.3,397.6,268.3,398.3,268.5z M417.9,268.9c0.7,1.2,2.4,0.9,2-0.6c-0.4-0.1-0.8-0.2-1.2-0.2
			C418.4,268.3,418.1,268.6,417.9,268.9z M459.3,269.5c-0.4-0.5-0.3-0.7-1.1-0.8c-0.6,0.5-0.9,1.2-1.1,1.9c0.1,0.1,0.2,0.3,0.2,0.4
			C458.2,270.8,458.8,270.2,459.3,269.5z M364.1,274.5c0-0.2,0-0.4,0-0.6c-1.1-0.8-3.3-3.1-4-4.5c-0.3,0-0.6-0.1-0.9-0.1
			C358.1,270.4,362.2,274.5,364.1,274.5z M458.4,274.6c0.1-0.1,0.3-0.2,0.4-0.2c0-1-0.3-1.2-1.4-1.1c-0.1,0.2-0.2,0.3-0.4,0.5
			c0,0.2,0,0.4,0,0.6C457.4,274.6,457.9,274.9,458.4,274.6z M392.4,276.6c0.3-0.1,0.6-0.2,0.9-0.2c0.3-0.6,0.5-0.9,0.5-1.9
			c-0.1-0.1-0.2-0.2-0.2-0.2c-0.2,0-0.5,0-0.8,0c-0.3,0.3-0.6,0.6-0.9,0.9C391.9,276.1,392.1,276.1,392.4,276.6z M427.5,281.3
			c0.1-0.1,0.2-0.3,0.2-0.4c-0.3,0-0.7-0.1-1-0.1c-1.1,0.8-5.9,1.9-7.5,2.1C420.1,284.8,426.3,281.5,427.5,281.3z M387.8,289.1
			c0.2,0.4,0.3,0.3,0.8,0.5c0.2-0.1,0.5-0.3,0.8-0.4c0.1-0.3,0.2-0.6,0.2-0.9c-0.1-0.1-0.2-0.3-0.4-0.4c-0.4,0-0.8-0.1-1.2-0.1
			C387.7,288.4,387.6,288.8,387.8,289.1z M471.6,294c0.2,0.1,0.3,0.2,0.5,0.2c0.2-0.1,0.4-0.2,0.6-0.2c0.1-0.4,0.3-0.8,0.4-1.1
			c-0.3-0.1-0.7-0.2-1-0.2c0.2-0.4,0.3-0.8,0.5-1.1c-0.1-0.2-0.2-0.4-0.2-0.6c-0.6-0.1-1.3-0.2-1.9-0.2c-0.1,0.5-0.2,1-0.2,1.5
			C470.7,292.6,471,293.6,471.6,294z M471.9,297c0.3-0.3,0.3-0.2,0.4-0.8c-0.7-0.7-2.5-0.9-2.8-1.8c-0.5-0.3-0.5-0.5-1.2-0.6
			c-0.3,0.1-0.6,0.3-0.9,0.4c0.1,1.1,0.6,1.9,1,2.8C469.8,297.2,470.4,296.7,471.9,297z M398.5,295.5c0.4,0.3,0.5,0.5,1.2,0.5
			c0.3-0.4,0.4-0.5,0.5-1.1c-0.6-0.3-1.2-0.6-1.8-0.9C398.5,294.5,398.5,295,398.5,295.5z M472.3,297.6c-0.2,0.1-0.3,0.3-0.5,0.4
			c0,0.2,0.1,0.5,0.1,0.8c0.4,0.1,0.8,0.2,1.2,0.2c0.2-0.2,0.4-0.5,0.6-0.8c0-0.1,0-0.3,0-0.4C473.4,297.7,473,297.6,472.3,297.6z
			 M468.1,299.5c-0.1-0.5-0.2-1.1-0.2-1.6c-0.3,0-0.7-0.1-1-0.1c-0.2,0.1-0.4,0.2-0.6,0.2c0,0.3-0.1,0.6-0.1,0.9
			c0.4,0.3,0.8,0.7,1.2,1C467.6,299.8,467.9,299.6,468.1,299.5z M470.9,300.8c0,0.4,0.1,0.8,0.1,1.1c0.9,0.1,1.3,0.5,2.2,0.6
			c0.3-0.2,0.6-0.4,0.9-0.6c0-0.2,0-0.3,0-0.5v-0.1c-1-0.3-1.9-0.7-2.9-1C471.1,300.4,471,300.6,470.9,300.8z M467.5,304.8
			L467.5,304.8c0-0.3,0-0.5,0-0.7c-0.4-0.1-0.8-0.2-1.2-0.2c-0.1,0-0.2,0.1-0.4,0.1c0,0.4,0,0.8,0,1.1c0.1,0.1,0.3,0.2,0.4,0.2
			C466.9,305.2,467,305,467.5,304.8z M472.4,304.1c-0.1,0.2-0.2,0.4-0.4,0.6c0.2,0.3,0.4,0.6,0.6,0.9c0.3,0,0.7-0.1,1-0.1
			c0.1-0.4,0.2-0.8,0.2-1.1c-0.3-0.1-0.7-0.3-1-0.4C472.7,304.1,472.6,304.1,472.4,304.1z M483.4,305.4v-0.1
			c-0.4-0.5-0.7-0.7-1.6-0.8c-0.3,0.4-0.3,0.4-0.5,0.9c0.1,0.2,0.3,0.4,0.4,0.6C482.7,306.1,482.7,305.8,483.4,305.4z M482.6,307.3
			c0.1,0.3,0.3,0.6,0.4,0.9c0.2,0.3,0.4,0.3,0.8,0.5c0.5-0.4,1-0.7,0.5-1.4c-0.3-0.3-0.8-0.4-1.4-0.4
			C482.8,307,482.7,307.1,482.6,307.3z M490.9,308.6c0.4-0.3,0.4-0.5,0.6-1c0-0.2-0.1-0.3-0.1-0.5c-0.4-0.1-0.8-0.2-1.2-0.2
			c-0.4,0.4-0.5,0.5-0.5,1C489.4,308,490.5,308.6,490.9,308.6z M469.1,308.1c0.6,0.3,0.5-0.2,0.5,0.5c0.2,0,0.4,0,0.6,0
			c0.2-0.4,0.4-0.8,0.6-1.1c-0.5-0.3-0.6-0.5-1.5-0.5C469.3,307.4,469.2,307.8,469.1,308.1z M480.3,308.8c0.2-0.2,0.4-0.3,0.6-0.5
			c0-0.2,0-0.3,0-0.5v-0.1c-0.4-0.3-0.7-0.4-1.4-0.5c-0.2,0.2-0.4,0.4-0.6,0.6c0.1,0.2,0.2,0.5,0.2,0.8
			C479.5,308.6,479.9,308.7,480.3,308.8z M486.5,310.3c0.1,0,0.2-0.1,0.2-0.1c0.1-0.4,0.2-0.8,0.2-1.1c-0.3-0.2-0.6-0.3-0.9-0.5
			c-0.4,0.3-0.5,0.2-0.8,0.6c0,0.1-0.1,0.2-0.1,0.4c0.2,0.1,0.3,0.2,0.5,0.4C486,310,486.3,310.1,486.5,310.3z M479.5,311.3
			c-0.1,0-0.2,0.1-0.2,0.1c-0.3,0.4,0.1,0.3-0.2,0.5c0.3,1.3,1.2,0.9,2.2,0.6v-0.1c-0.3-0.4-0.7-0.8-1-1.1
			C480,311.3,479.8,311.3,479.5,311.3z M467,314.5c-0.1,0.4-0.2,0.8-0.2,1.1c0.3,0.1,0.6,0.2,0.9,0.2c0.5-0.4,0.7-0.3,0.8-1.2
			c-0.2-0.1-0.3-0.2-0.5-0.4C467.6,314.3,467.3,314.4,467,314.5z M485.3,316c0.2,0.2,0.3,0.3,0.5,0.5c0.2,0,0.3-0.1,0.5-0.1
			c0.6-0.3,0.7-0.6,0.5-1.2c-0.2-0.5,0-0.3-0.5-0.5c-0.2,0-0.5,0.1-0.8,0.1c-0.1,0.1-0.2,0.2-0.4,0.4
			C485.3,315.9,485.4,315.5,485.3,316z M481.8,316.8c0.2-0.6,0.4-0.7,0.4-1.5c-0.1-0.1-0.2-0.2-0.4-0.2c-0.2,0-0.4-0.1-0.6-0.1
			c-0.1,0-0.2,0.1-0.2,0.1c-0.2,0.2-0.3,0.4-0.5,0.6c0.1,0.4,0.2,0.8,0.2,1.1c0.1,0,0.3,0.1,0.4,0.1c-0.1-0.2-0.2-0.3-0.2-0.5
			C481.1,316.5,481.4,316.6,481.8,316.8z M489.6,318.1c0.1,0,0.2,0,0.2,0c0-1-0.2-1-0.5-1.6c-0.4-0.2-0.7-0.3-1.4-0.2
			c-0.1,0.2-0.2,0.3-0.4,0.5c0,0.2,0,0.4,0,0.6C488.2,317.8,488.9,318.4,489.6,318.1z M460.9,317.8v-0.1v-0.1
			c-0.6-0.1-1.3-0.2-1.9-0.4c-0.1,0.3-0.2,0.6-0.2,0.9c0.1,0.2,0.3,0.4,0.4,0.6C460.3,318.5,460,318.1,460.9,317.8z M488.6,323.1
			c0.1,0.9,0.4,1.1,1.2,1.1c1.8-1.4,1.4-1.8,0.8-3.8c-0.4-0.1-0.8-0.2-1.1-0.2C488.8,321.4,489.4,321.9,488.6,323.1z M478.1,323.4
			c0.1-0.1,0.2-0.2,0.2-0.4c0-0.2,0.1-0.3,0.1-0.5c-0.3-0.2-0.6-0.4-0.9-0.6c-0.3,0.2-0.6,0.4-0.9,0.6c0,0.2,0.1,0.3,0.1,0.5
			C477.3,323.1,477.7,323.3,478.1,323.4z M482,325.1c-0.6,0.5-0.7,0.5-0.6,1.4c0.4,0.1,0.8,0.2,1.1,0.2c0.2-0.2,0.3-0.5,0.5-0.8
			C482.8,325.4,482.8,325.3,482,325.1z M474.5,328.3c0.1-0.1,0.2-0.2,0.2-0.2c0-0.2,0-0.5,0-0.8c0-0.1-0.1-0.2-0.1-0.4
			c-0.3,0-0.7-0.1-1-0.1c-0.2,0.2-0.3,0.3-0.5,0.5c0,0.3,0.1,0.7,0.1,1C473.7,328.5,474.1,328.6,474.5,328.3z M486.8,328.8
			c0.8,0,0.8-0.1,1.1-0.8c0-0.2-0.1-0.4-0.1-0.6c-0.3-0.3-0.6-0.4-1.1-0.5C486.1,327.7,485.9,328.1,486.8,328.8z M477.9,333.6
			c0.9,0,1.2,0.1,1.8-0.1c0.2-0.9,0-1.4-1-1.5c-0.2,0.2-0.4,0.4-0.6,0.6C478,333,477.9,333.3,477.9,333.6z M489.8,339.4
			c0.1-0.2,0.3-0.5,0.4-0.8c0-0.1-0.1-0.2-0.1-0.4c-0.5-0.3-0.7-0.5-1.5-0.5c-0.2,0.2-0.4,0.4-0.6,0.6c0,0.2,0,0.4,0,0.6
			c0.4,0.2,0.8,0.4,1.1,0.6C489.3,339.6,489.5,339.5,489.8,339.4z M487.1,341.3c-0.1-0.4-0.2-0.8-0.4-1.1c0-0.1-0.1-0.2-0.1-0.4
			c-0.4,0-0.8,0-1.1,0c-0.1,0.1-0.2,0.2-0.4,0.4c0,0.2,0,0.5,0,0.8c0.3,0.3,0.6,0.7,0.9,1C486.6,341.8,486.8,341.6,487.1,341.3z
			 M465.9,347.3h0.1c0.2-0.3,0.3-0.7,0.5-1c0-0.2,0-0.4,0-0.6c-0.4,0-0.8-0.1-1.1-0.1c-0.4,0.4-0.6,0.7-0.2,1.2
			C465.4,347.2,465.4,347.1,465.9,347.3z M492.1,349.4c-0.5-0.7-1-0.6-2-0.9c-0.1,0.1-0.2,0.2-0.2,0.4c0,0.2,0,0.3,0,0.5
			c0.4,0.3,0.8,0.7,1.2,1C491.8,350.1,491.9,350.1,492.1,349.4z M487.8,348.8c0.1,0.3,0.2,0.7,0.2,1c0.2,0.2,0.3,0.4,0.5,0.6
			c0.3-0.1,0.6-0.2,0.9-0.2c0.2-0.4,0-0.1,0.2-0.4c0-0.2,0-0.5,0-0.8c-0.4-0.1-0.8-0.3-1.2-0.4C488.2,348.7,488,348.7,487.8,348.8z
			 M486.3,353.4c0.2-0.4,0.5-0.8,0.8-1.1c0-0.1-0.1-0.3-0.1-0.4c-0.4-0.1-0.8-0.3-1.1-0.4c-0.3,0.7-0.5,0.7-0.8,1.4
			c0.2,0.2,0.4,0.4,0.6,0.6C485.9,353.5,486.1,353.4,486.3,353.4z M486,357.1c-0.7,0.6-1.6,0.9-2.2,1.5v0.1c0.2,0.4,0.5,0.8,0.8,1.1
			c1.4-0.3,1.6-1.1,2.1-2.1C486.4,357.6,486.2,357.3,486,357.1z M479.3,358.1c0,0.2-0.1,0.3-0.1,0.5c0.2,0.2,0.5,0.5,0.8,0.8
			c0.2,0,0.3,0,0.5,0h0.1c0.2-0.4,0.3-0.8,0.5-1.2v-0.1c-0.5-0.4-0.5-0.4-1.4-0.4C479.5,357.8,479.4,358,479.3,358.1z M487.9,359.1
			c-0.2,0.2-0.3,0.5-0.5,0.8v0.1c0.3,0.3,0.3,0.5,0.9,0.6c0.2,0,0.4,0,0.6,0c0.1-0.2,0.3-0.4,0.4-0.6c0-0.2-0.1-0.4-0.1-0.6
			C488.7,359.3,488.3,359.2,487.9,359.1z M475.4,363.8c-0.2,0.1-0.3,0.2-0.5,0.2c-0.1,0-0.2,0-0.2,0c0.1,0.5,0.2,1,0.2,1.5
			c0.6,0.9,1.6-0.2,2-0.8c-0.3-0.5-0.4-0.3-0.4-0.9C476.1,363.8,475.8,363.8,475.4,363.8z M486.6,365.4c0.2,0.4,0.5,0.5,0.9,0.8
			c0.2-0.1,0.5-0.3,0.8-0.4c0-0.2,0.1-0.5,0.1-0.8v-0.1c-0.5-0.3-1-0.5-1.8-0.6C486.6,364.6,486.6,365,486.6,365.4z M483.3,369.6
			c0,0.2-0.1,0.3-0.1,0.5c0.3,0.3,0.6,0.7,0.9,1c0.2-0.1,0.5-0.2,0.8-0.2c0.1-0.4,0.2-0.8,0.2-1.1c-0.4-0.2-0.7-0.4-1.5-0.4
			C483.4,369.5,483.4,369.6,483.3,369.6z M478.1,370.9c-0.1,0-0.2,0.1-0.2,0.1c-0.2,0.5-0.3,0.9-0.5,1.4c0.4,0,0.1-0.1,0.4,0.1
			c0.6,0,1.2-0.1,1.8-0.1c-0.1-0.5-0.2-1-0.4-1.5C478.8,370.9,478.5,370.9,478.1,370.9z M399.8,404.5c0.1-0.1,0.2-0.2,0.2-0.2
			c-0.2,0-0.3-0.1-0.5-0.1C399.6,404.3,399.7,404.4,399.8,404.5z"/>
	</g>
</g>
</svg>
