<?xml version="1.0" encoding="utf-8"?>
<!-- Generator: Adobe Illustrator 21.0.0, SVG Export Plug-In . SVG Version: 6.00 Build 0)  -->
<svg version="1.1" id="Calque_1" xmlns="http://www.w3.org/2000/svg" xmlns:xlink="http://www.w3.org/1999/xlink" x="0px" y="0px"
	 viewBox="0 0 841 595" style="enable-background:new 0 0 841 595;" xml:space="preserve">
<style type="text/css">
	.st0{fill:#1D1D1B;}
	.st1{fill:#DADADA;}
</style>
<g>
	<g>
		<path class="st0" d="M484.1,411.8c-0.3-0.3-0.7-0.8-1.2-1h-1.2c0,0-0.3-0.1-0.3-0.1v-0.2c-0.2-0.1-1.4-0.3-1.6-0.3
			c-0.2,0-0.3,0.1-0.5,0.1c-0.3-0.1-1-0.4-1.3-0.5c-0.4-0.1-0.5,0.1-0.9-0.1v-0.2c-0.4,0-0.7-0.1-1.1-0.1c-0.1-0.1-0.1-0.2-0.2-0.2
			c-0.3-0.2-0.6,0-0.9-0.2c-0.2-0.1-0.3-0.3-0.5-0.4c-0.2,0-0.5-0.1-0.7-0.1c-1.8-0.8-4-1.6-5.6-2.6c-0.2-0.1-0.4,0-0.6-0.2
			c-0.2-0.1-0.3-0.4-0.5-0.6c-0.5-0.4-1.1-0.5-1.6-0.9c-1.1-0.7-1.9-1.8-3-2.6c-0.8-0.6-3.2-1.7-3.5-2.6c-0.1-0.3,0.7-1.4,1-1.6
			c-0.1-1.5-0.8-2.1-1.6-2.8c-0.1-0.1-0.2-0.4-0.3-0.5c-0.1,0-0.3-0.1-0.4-0.1c-0.1-0.1,0-0.4-0.2-0.6c-0.3-0.4-0.7-0.4-0.9-0.9
			h-0.2v-0.2c-0.7-0.6-1.2-1.6-2-2.2c-2.6-1.9-4.9-4.3-7.7-6c-2.4-1.5-5-2.7-7.6-4c-0.9-0.5-2-0.6-3-1.1c-0.1-2.2,0.3-4.7-0.2-6.6
			c0-1.2,0.1-2.3,0.1-3.5c-0.3-1.5-0.4-3.6-0.2-5.1c0-0.3-0.1-0.8-0.1-1.2c0.1-1.3,0-3.9,0.5-4.6c0.2-0.5,0.9-0.8,1.4-1.1
			c0.1-0.2,0.3-0.3,0.4-0.5c0.7-0.5,1.6-0.9,2.1-1.6v-0.2c0.1-0.2,0.4-0.2,0.6-0.3c0.8-1.1,1.7-2.4,2.3-3.7c0.1-0.4,0.1-0.7,0.2-1.1
			c0.3-1,0.8-2.3,1.2-3.4c0.5-1.2,0.7-2.9,1-4.1c0.1-0.6,0.1-1.3,0.2-1.9c0-0.1-0.1-0.3-0.1-0.5c0.5-1.6,0.7-4,1.2-5.5v-1.4
			c0.2-0.8,0.2-2.1,0.4-2.9c0-0.1,0.3-0.4,0.3-0.5c0.2-0.6-0.3-1.3-0.2-2.1c0.3-1.1,0.2-2.6,0.7-3.6c0.3-0.7,1.7-2.4,2.3-2.7
			c0.2,0,0.4-0.1,0.6-0.1c0.5-0.2,1.2-0.5,1.6-0.8c0.8-0.5,2.7-3.1,3-4.1c0.2-0.7,0.1-1.3,0.2-2.1c0.2-0.6,0.4-1.5,0.7-2.2
			c0.4-1.2,0-2.7-0.2-3.8c0-0.2,0.1-0.5,0.1-0.7c-0.1-0.3-0.5-0.4-0.6-0.6v-0.4c-0.1-0.2-0.6-1.7-0.7-1.8c-0.2-0.2-0.8-0.5-0.9-0.7
			c0-0.1-0.1-0.3-0.1-0.4c-0.1-0.1-0.4-0.1-0.5-0.2c-0.2-0.2-0.4-0.5-0.6-0.7c-0.3-0.2-1.9-0.4-2.3-0.4c-0.1-0.4-0.3-1.7-0.1-2
			c0-1,0.1-0.8,0.3-1.3c0.2-0.4-0.4-1.8-0.7-2.1c0.1-0.7,0.7-0.5,0.7-1.4h0.1c0.1,0.4,0.3,0.4,0.5,0.6c0.3,0.4,0.2,1.1,0.4,1.6
			c0.3,0.9,0.8,1.9,1.2,2.7c0.1,0,0.2,0.1,0.3,0.2c0.6,0,0.6-0.2,1-0.4c0-1.4-0.6-2.1-1-3.1c0,0,0.1-0.1,0.1-0.1
			c0.4,0,0.5,0.1,0.7,0.2c0.2-0.1,0.3-0.1,0.4-0.1c0.7,0.1,2-0.5,2.1-1c0.1-0.2-0.1-1.1-0.2-1.2c-0.3-0.7-0.9-1.6-1.4-2.3
			c-0.1-0.1-0.3-0.2-0.4-0.3c-0.2-0.4-0.1-0.8-0.4-1.1c-0.1-0.1-0.4-0.2-0.5-0.3c-0.2-0.3-0.6-1.1-0.7-1.6c-0.8-0.1-0.7-0.9-1.2-1.2
			l0.2-2c1.3,0.7,2,2.2,4,2.1c0.5-0.5,1.2-1.8,1-2.7c0-0.2-0.2-0.7-0.2-0.8c0-3.3-3.4-5.2-4.9-7.4c-0.4-0.6-1.2-1-1.3-1.9h0.2
			c0,0,0.1-0.1,0.1-0.1c0.1-0.1,0-0.1,0.1-0.2c0-0.6,0-0.9-0.2-1.2c-0.4,0-0.8-0.2-1.1-0.1c-1.2-0.1-2.5-2.2-3.4-2.8l-0.3-0.1
			c-0.3-0.3-0.1-0.5-0.5-0.7c0-0.3,0-0.4,0.2-0.6c0.5-0.2,1.3,0.4,1.7,0.6c0.3,0,0.6,0.1,0.8,0.1c1.7,0.8,3.6,1.4,5.3,2
			c0.8,0.2,2.4,0.4,2.7,0.8h1.1c0.2-0.1,0.2-0.3,0.6-0.4c0-0.3,0.1-0.5,0.1-0.8c-0.1-0.1-0.2-0.2-0.2-0.4c-1.1-0.3-2-0.5-3.2-0.8
			c-0.4,0-0.8-0.1-1.2-0.1c-0.4-0.2-1.1-0.5-1.5-0.7c-0.3,0-0.6-0.1-0.8-0.1c-0.4-0.2-1.1-0.6-1.6-0.8h-0.5
			c-0.1-0.1-0.2-0.2-0.3-0.3c-0.5-0.2-1.1-0.2-1.6-0.5c-0.3-0.2-0.6-0.6-0.9-0.7c-0.2,0-0.5-0.1-0.7-0.1c-0.3-0.2-0.6-0.5-1.1-0.6
			v-0.2c-1.9-0.1-2.7-3-4-3.9v-0.2c1.2,0.2,2.1,1,3.2,1.3h0.9c1,0.3,1.9,0.4,3,0.7c0.6,0,1.2,0.1,1.7,0.1c0.6,0.2,1.3,0.3,1.8,0.4
			c0.2,0.1,0.5-0.1,0.6-0.1c1.1,0.5,2.8,1.4,4.3,1.3c0.1-0.1,0.3-0.2,0.5-0.3c0-0.2,0-0.2,0.1-0.3c0-1.6-1.3-1-2.3-1.5
			c-0.1-0.1-0.3-0.3-0.6-0.3c0.2-0.8,0.6-0.2,1.2-0.5c0.2-0.1,0.4-0.4,0.7-0.5c1-0.4,2-0.7,2.5-1.5c0.1-0.1,0,0,0.1-0.2
			c-0.1-0.1-0.2-0.4-0.3-0.6c-1.7-0.8-4.7-0.9-6.9-0.8c-0.9,0-2.9-0.3-3.4-0.1h-0.2c0.1-0.4,0.5-1.2,0.7-1.6c0-0.3-0.1-0.3-0.2-0.6
			c-0.2-0.1-0.2-0.1-0.3-0.2c-0.6,0.1-1.1,0.7-1.3,1.1c-0.2,0-0.3,0-0.4,0.1c-0.1-0.2-0.1-0.3-0.4-0.3c-0.1-0.5-1.6-2.5-1.9-2.6
			c0.3-0.9,0.8-0.8,1.2-1.4c0.4-0.5,0.6-1.2,1.1-1.6c0.4-0.4,0.9-0.7,1.2-1.2c0.3-0.4,1-1.4,0.6-2c-0.1-0.1-0.3-0.2-0.4-0.3
			c-1.4,0-1.8,1.1-2.6,1.6c-0.5,0.3-1,0.5-1.5,0.8l-0.7,0.7c-0.6,0.4-1.2,0.6-1.7,1.1c-0.8,0-1.1-0.4-1.6-0.7c0-1.1,0.3-2.5-0.2-3.4
			c0-0.4-0.1-0.4-0.2-0.7c-0.1,0-0.2-0.1-0.3-0.2h-0.7c-0.5,0.3-0.3,1.7,0,2.1c0,0.4,0,0.8-0.1,1.1c-0.4-0.1-1.3-0.5-1.7-0.7
			c-0.1-0.1-0.1-0.3-0.2-0.3c-0.4-0.1-0.6,0-0.9-0.2c-0.2-0.1,0-0.3-0.2-0.5c-0.1-0.2-0.5-0.2-0.7-0.4c-0.2-0.3-0.4-0.7-0.7-1
			c0,0-0.1-0.1-0.1-0.1h0.1c0.2-0.2,0.1,0.1,0.3,0.1c0.2-0.1,0.6-0.4,0.9-0.4c0.2,0,0.5,0.1,0.8,0c1-0.3,3.2-1,3.5-1.9
			c0.2-0.2,0.1-0.9,0.1-1.2c0.8-0.3,1.9-0.1,3-0.4c0.7-0.2,1-0.6,1.5-1.1c-0.1-0.5-0.2-0.8-0.3-1.1c-0.1-0.1-2.5-0.5-2.5-0.5
			c-0.2,0-0.8,0.2-1.1,0.2c-0.1,0,0-0.2-0.2-0.2c-0.1,0.1-0.1,0.2-0.2,0.3c-0.3,0.2-1.8,0.4-1.9,0.2h-0.3c0.1,0.1,0,0.1,0.1,0.2
			c-0.1,0.6-0.7,0.6-1.2,0.7c-0.7,0.2-1.3-0.3-2.1-0.2c-0.2,0-1.1,0.3-1.2,0.2c0,0-0.2-0.3-0.4-0.3c-0.5-0.1-1,0.3-1.5,0h-0.8
			c0.3-0.5,0.8-0.7,1.2-1.2c0.1-0.2,0.1-0.5,0.2-0.7c0-0.5-0.4-1-0.7-1.2l-0.3,0.1c-0.1,0-0.1-0.3-0.2-0.3c-0.2-0.1-0.4-0.1-0.6-0.2
			c-0.1-0.1-0.1-0.2-0.2-0.2c-0.2-0.1-0.7,0.1-1,0c-1.2-0.5-2.3-0.8-3.8-1.2c-0.5,0-1-0.1-1.5-0.1c-0.7-0.2-1.3-0.5-1.9-0.7
			c-1-0.3-2.1-0.3-3-0.5c-0.4,0-0.8-0.1-1.2-0.1c0-0.1-0.1-0.1-0.1-0.2h-0.7c-0.1,0-0.3-0.2-0.3-0.2c-0.4-0.1-0.5,0.1-0.9,0
			c-0.6-0.2-1.6-0.6-2.2-0.7c-0.3-0.1-0.3,0.1-0.6,0c-0.4-0.2-0.9-0.5-1.2-0.7c-0.4-0.2-0.6-0.1-1-0.2c0-0.1-0.1-0.2-0.1-0.2H409
			c0-0.1-0.1-0.2-0.1-0.2c-0.3-0.2-1.1-0.6-1.4-0.7c-0.5-0.2-0.8-0.1-1.2-0.3c-0.4-0.3-1.1-0.8-1.5-1c-0.2-0.1-0.5,0-0.7-0.2
			c-1-0.7-1.2-1.9-2.6-2.4c-2.2-0.7-3.1,1.4-3.5,2.8c-0.1,0.3-0.5,0.7-0.3,1.3c0.3,1.2,0.9,2.2,1.6,3c0.1,0.1,0.1,0.1,0.2,0.1
			c0,0.5,0.2,0.7,0.5,1v0.2c-0.9-0.3-1.6-0.9-2.4-1.4c-0.2,0-0.4-0.1-0.6-0.1c-0.4-0.2-0.8-1.2-1.2-1.6c-0.5-0.5-1.1-0.7-1.4-1.4
			c-0.1-0.1-0.1-0.1-0.1-0.2c-0.9-0.2-1.2-1.2-2-1.5c-0.2-0.1-0.6-0.1-0.9-0.1c-0.1,0.1-0.2,0.2-0.3,0.2c-0.2,0.4-0.3,1.1-0.1,1.6
			l-0.1,0.1c-0.6-0.1-1.3-0.8-1.8-0.4c-0.4,0-0.4,0.1-0.7,0.2c0,1.4,1,1.9,1.6,2.6c0.5,0.6,1,1.4,1.6,2c0.3,0.3,0.8,0.2,1.1,0.5
			c0.4,0.4,0.4,1.1,0.8,1.5c-0.1,0.6-0.5,0.6-0.7,1c-1.2,0-4.1-0.3-4.9-0.9c-0.2-0.1-0.1-0.4-0.2-0.5h-0.2c-0.1-0.1-0.2-0.4-0.3-0.5
			c-0.3-0.3-1.8-1.5-2.1-1.6c-0.1-0.1-0.1-0.1-0.2-0.1c-0.1-0.6-1.4-1.3-2.1-1.6c-0.9-0.3-3.5-2.7-5.3-1.4c-1.3,0.5-0.7,3.5-0.1,4.4
			c-0.1,0.2-0.2,0.2-0.2,0.4c-0.5-0.1-0.5-0.3-0.8-0.5c-0.1-0.7-0.2-0.9-0.6-1.4c-0.3,0-0.6,0.2-0.8,0c-0.9,0.2-0.6,1.1-0.9,1.9
			c-0.1,0.2-0.4,0.7-0.5,0.9c0,0.1,0.1,0.3,0.1,0.4c0,0.4-0.1,1-0.3,1.2c-0.1,0.1-0.7-0.5-0.8-0.7c-0.8-0.1-1.1,0-1.6,0.3
			c0,1.7,1.3,1.7,2.1,2.6c0.2,0.2,0.1,0.6,0.2,0.8c0,0.4-0.2,0.4-0.2,0.7c-0.6,0.1-1.2,0.2-1.8,0.3c-0.5,0-1.1-0.7-1.5-0.9
			c-0.9-0.5-3-1.7-3.5-2.5c-0.3,0-0.5-0.1-0.7,0c-0.5,0-0.5,0.2-0.7,0.4c0,0.3,0,0.6,0.2,0.8c0.3,0.6,0.9,0.8,1.5,1.2
			c0.5,0.3,0.9,1,1.4,1.3c-0.2,0.2-0.9,0.3-1.2,0.2c-0.2-0.1-0.4-0.7-0.5-0.9c-0.2-0.1-0.4-0.1-0.6-0.2c-0.5,0-0.7,0.2-1.1,0.4
			c-0.2,0.2-0.2-0.2-0.3-0.2c-0.3-0.1-0.7-0.1-1-0.2c-0.1-0.2-0.3-0.4-0.4-0.6c-0.6-0.4-1.2-1-2.1-1.2c-0.4-0.1-0.5,0.1-0.9,0.2
			c0,0-0.1,0.1-0.1,0.1c0,0.5,0,1,0.2,1.2c0.2,0.6,2.2,1.6,2.8,2.1c-0.7,0.4-1.3-0.1-2.2,0.2c-0.2,0.1-0.7,0.3-0.9,0.3
			c-0.2,0-0.3-0.1-0.5-0.1c0,0.1-0.1,0.2-0.1,0.2c-0.4,0.2-0.7-0.3-0.9-0.3c-0.2,0-0.5,0.1-0.7,0.1c-0.1,0.1-0.2,0.2-0.4,0.2
			c0,0.3-0.1,0.5,0,0.7c0.1,0.9,0.7,0.7,1.4,1.1c0.2,0.1,0.3,0.4,0.5,0.5c0.2,0.1,0.5,0.1,0.7,0.2c0.7,0.3,1.5,0.7,2.2,1
			c-0.1,0.1-1.4,0.7-1.6,0.7c-0.2,0-0.6-0.3-0.7-0.3c-0.2,0-0.4,0.1-0.7,0.1c-0.3-0.1-0.9-0.1-1.2-0.2c-0.2,0.2-0.5,0.3-0.6,0.6
			c-0.3,0.5,0.3,1.4,0.7,1.6c-0.1,0.1,0,0.1-0.1,0.2c-0.3,0.2-0.4,0-0.7,0.1c-0.1,0.1-0.2,0.2-0.2,0.3h-0.5
			c-0.3,0.1-0.7,0.4-1.1,0.5c-0.3,0.1-0.3-0.2-0.7-0.2c-0.2,0-0.6,0.3-0.8,0.3h-1.2c-0.3,0.1-0.7,0.3-0.9,0.3
			c-0.4,0.1-0.8,0.1-1.2,0.2c-0.1,0.1-0.2,0.2-0.2,0.3h-0.5c-0.1,0.1-0.4,0.3-0.6,0.3h-0.5c-0.6,0.2-1.3,0.8-1.9,1.1
			c-0.1,0.2-0.1,0.2-0.2,0.3c0,1.4,1,1.1,1.9,1.6c0.2,0.1,0.5,0.4,0.7,0.5c0.3,0.1,0.7,0,0.9,0.2c0.5,0,0.5,0.1,0.7,0.2
			c-0.4,0.5-0.2,1.5,0.1,2.1c-0.4,0.2-1.4,0.3-1.7,0.6c-0.3,0.2-0.6,1-0.9,1.3c0,0.4,0,0.6,0.2,0.8c0.2,0.7,2.4,1.5,3.1,1.7
			c-0.1,0.1-0.2,0-0.4,0.1c-0.2,0.1-0.5,0.4-0.7,0.5h-0.7c-0.2,0.1-0.3,0.3-0.4,0.4c-0.1,0-0.3,0.1-0.4,0.1
			c-0.1,0.1-0.1,0.3-0.2,0.3l-0.7,0.2c-0.1,0.1-0.1,0.2-0.2,0.2c-0.3,0.2-0.6,0.1-0.9,0.2c-0.8,0.4-1.9,0.9-2.6,1.4
			c-0.1,0.1,0,0.1-0.1,0.2c0,1.6,1.1,0.9,2.2,1.3c0.2,0.1,0.4,0.4,0.7,0.6c0.4,0.3,0.9,0.2,1.3,0.5c0.1,0.1,0.1,0.3,0.2,0.4h0.4
			c0.4,0.2,1,0.5,1.4,0.8c0.5,0.3,0.8,0.9,1.5,1c0.1,0.1,0,0.1,0.1,0.2c-0.4,0.3-1.2,0.3-2,0.5h-0.5c-0.1,0.1-0.1,0.2-0.2,0.2
			c-0.4-0.2-1.1,0.2-1.2,0.2c-0.3-0.1-0.9-0.3-1.5-0.2c-0.3,0.1-1.1,0.3-1.6,0.2c-0.5-0.1-1.3,0-1.8-0.2c-0.1,0-0.3-0.2-0.4-0.2
			c-0.8-0.2-1.4,0-1.8-0.6c-0.5,0-0.6,0.1-1,0.2c-0.1,0.2-0.2,0.3-0.2,0.5c-0.2,0.2-0.1,0.6,0.1,0.7c0.3,0.6,1.2,0.5,1.7,0.7
			c2.1,1,5.3,1.7,7.9,1.3c-0.9,0.8-1.4,0.1-2.6,0.4c-0.4,0.1-0.7,0.5-1.1,0.7c-0.3,0.1-0.6,0.1-0.8,0.2c-0.4,0.4-0.4,1.3-0.9,1.6
			c-0.2,0-0.3,0.1-0.5,0.1c-0.3,0.1-0.5,0.4-0.7,0.5c-0.7,0.3-1.4,0.3-2,0.7c0,0-0.7,0.6-0.7,0.7c-0.2,0.3-0.2,0.7-0.5,0.9
			c0,0.6-0.1,1,0.1,1.5c1.1,0.9,2.2,0.7,4,0.7c0.5,0,2.6-0.2,2.6-0.2c0.3,0,0.7,0,0.9,0.1c-0.2,0.4-0.9,1.3-1.2,1.6
			c-0.3,0.2-0.6,0.3-0.8,0.5c-1.3,1.3-2.3,2.7-3.5,4c0,0.5,0,0.7,0.3,0.9c-0.3,0.7-1.1,0.9-1.3,1.6c-0.2,0.2-0.2,0.9-0.1,1.2
			c0.1,0.2,0.3,0.2,0.5,0.4c1.1,0,0.7-0.4,1.3-0.6h1c0.1-0.1,0.2-0.3,0.3-0.4c0.5-0.3,0.9-0.4,1.4-0.7c0.2-0.2,0.3-0.4,0.5-0.7
			c0.2-0.1,0.4,0,0.6-0.2c0.1-0.1,0.1-0.3,0.2-0.4c0.3-0.3,0.7-0.5,1-0.7c0.1-0.1,0.2-0.4,0.3-0.5c0.2,0,0.3-0.1,0.5-0.1
			c0.1-0.1,0.1-0.3,0.2-0.4c0.2-0.2,0.4-0.2,0.7-0.3c0.2-0.1,0.3-0.5,0.5-0.7h0.2c0.1-0.2,0.3-0.4,0.4-0.6c0.2-0.1,0.5,0,0.7-0.2
			c0.3-0.2,0.8-0.6,1.1-0.9c0.1-0.1,0.1-0.1,0.1-0.2c0.3-0.1,0.2,0,0.3-0.2h0.2c-0.4,0.7-2.1,3.4-1.9,4.2c-0.2,0.2-0.6,0.3-0.7,0.6
			c-0.2,0.3-0.8,1.4-0.6,1.7c-0.1,1-1.5,1.7-2.1,2.4c-0.1,0.1-0.1,0.3-0.2,0.4c-0.1,0.1-0.4,0.1-0.5,0.2c-0.2,0.2-0.2,0.6-0.4,0.7
			c-0.1,0.1-0.3,0-0.3,0.1c0,0.1-0.1,0.2-0.1,0.3c-0.2,0.2-0.5,0.3-0.7,0.5c-0.2,0.2-0.2,0.5-0.4,0.7c-0.4,0.3-0.7,0.8-1.1,1.1
			c-0.1,0.1-0.2,0.1-0.3,0.2c-0.4,0.6-1,1.4-1.6,1.9c-0.2,0.1-0.4,0.1-0.6,0.2c-0.7,0.3-1.8,0.8-2.1,1.4h-0.1c0,1.3,0.1,0.9,0.8,1.4
			c0.7-0.1,0.7-0.5,1.2-0.7c0.4-0.2,0.8-0.1,1.2-0.3c0.1-0.1,0.1-0.2,0.2-0.2h0.3c0-0.1,0.1-0.2,0.1-0.2c0.1,0,0.3-0.1,0.4-0.1
			c0.2-0.1,0.3-0.4,0.4-0.5c0.4-0.3,0.8-0.3,1.2-0.6c0.4-0.2,0.7-0.6,1-0.9c0.4-0.3,0.9-0.4,1.2-0.8h0.3c0.1-0.4,1.4-1.6,1.6-1.8
			c0.3-0.2,0.7,0,0.9-0.2c0.2-0.1,0.2-0.5,0.3-0.7c0.2-0.1,0.3-0.1,0.5-0.2c0.2-0.2,0.3-0.4,0.5-0.6c0.7-0.5,2-1.5,2.5-2.2
			c0.3,0.1,1.2,0.1,1.5,0.2c0.5,0,0.5,0.1,0.7,0.2c-0.1,0.7,0.2,2.9-0.2,3.5v0.8c-1.4-0.8-5.2-1.4-6.7-0.2c-0.7,0.3-1.2,2.1-1.5,3
			c-0.2,0.6-0.7,1.6-0.9,2.3c0,0.2,0.1,0.3,0.1,0.5c-0.3,0.9-0.4,4.2-0.2,5.4c0,0.5,0.1,0.9,0.1,1.4c0.1,0.3,0.5,0.5,0.6,0.8
			c0,0.2,0.1,0.5,0.1,0.7c0.1,0.2,0.3,0.3,0.4,0.5c0.1,0.2,0,0.5,0.2,0.7c0.2,0.5,0.9,0.7,1.3,1l0.9,0.9c0.2,0.1,1.3,0.6,1.6,0.7
			h0.9c0.3,0.1,0.5,0.2,0.8,0.2c0.4-0.1,1,0.1,1.3-0.1h0.7c0.1,0.6,0.3,1.7,0.5,2.5c0.2,0.9,0,1.3,0.2,2.1c0.1,0.4-0.3,0.7-0.2,0.9
			c0,0.1,0.3,0.2,0.3,0.2c0,0.4,0.1,0.9,0.1,1.3c0.2,1,0,2.5,0.2,3.6c0.1,0.4,0,1.1,0.2,1.5c0,0.1,0.3,0.4,0.3,0.6
			c0,0.3,0.1,0.9,0,1.3c0,0.1-0.2,0.4-0.2,0.6c0,0.1,0.2,0.3,0.2,0.4c0,0.2-0.1,0.5-0.1,0.7c0.2,0.9,0.5,1.8,0.7,2.6
			c0.1,0.5-0.2,0.8,0,1.4c0,0.1,0.2,0.5,0.2,0.6v1.6c0.3,0.8,0.6,2.2,0.8,3c0.5,1.4,1.3,2.8,2.1,4l1,1c0.1,0.2,0.1,0.4,0.2,0.6
			c0.7,0.8,1.3,1.7,2,2.6c0.1,0.1,0.3,0.1,0.3,0.2c0.2,0.2,0.1,0.5,0.2,0.7c0.1,0.1,0.2,0,0.3,0.1c0.2,0.2,0.6,0.9,0.7,1.2
			c0.1,0.3,0,0.5,0.2,0.8c0.1,0.1,0.4,0.2,0.4,0.3c0.2,0.4,0,1.3,0.1,1.6l0.2,0.1c0.2,0.5-0.2,1.1,0,1.7c0.2,0.6,0.3,1.5,0.2,2.3
			c-0.1,1,0.2,1.8,0.3,2.6v1.2c0.2,0.7,0.2,2,0.3,2.6c0.1,0.2-0.1,0.5-0.1,0.6c0.2,1.3,0,3,0.1,4.3c0,0.3-0.1,0.8-0.1,0.9
			c0.2,1.3,0.3,4.9-0.1,5.5c-0.1,0.1-0.1-0.1-0.3,0c-0.2,0.1-0.5,0.5-0.7,0.7c-0.6,0.3-1.2,0.2-1.8,0.5c-0.4,0.2-0.9,0.6-1.3,0.8
			c-0.2,0-0.3,0.1-0.5,0.1c-0.1,0.1-0.1,0.3-0.2,0.3c-1.2,0.7-2.3,1.4-3.5,2.2c-0.2,0.2-0.4,0.5-0.6,0.7c-0.3,0.3-0.8,0.3-1.1,0.6
			c-0.3,0.2-0.5,0.7-0.8,0.9c-0.1,0-0.3,0.1-0.4,0.1l-0.5,0.5c-0.3,0.2-0.6,0.2-0.9,0.3c-0.1,0.1-0.2,0.3-0.3,0.4
			c-0.3,0.2-0.6,0-0.9,0.2c-0.6,0.2-1.2,0.7-1.8,1c-0.5,0.2-0.8,0.2-1.2,0.5l-0.5,0.7c-0.1,0-0.2,0.1-0.3,0.1
			c-0.4,0.3-0.6,0.8-1,1.2c-0.1,0.1-0.2,0.1-0.3,0.2c-0.1,0.2,0,0.4-0.2,0.5c-0.2,0.1-0.3,0.1-0.5,0.2c-0.3,0.2-0.4,0.7-0.7,0.9
			c-0.1,0-0.3,0.1-0.4,0.1c-0.4,0.2-0.6,0.9-0.9,1.2c-1.1,1.1-2.2,2.3-3.1,3.5c-0.4,0.5-1.2,0.7-1.6,1.2c-0.4,0.5-0.6,1.1-1.1,1.5
			c-0.2,0.2-0.6,0.2-0.8,0.5c-0.2,0.2-0.1,0.5-0.2,0.7c-0.4,0.3-1,0.4-1.4,0.7c-0.7,0.5-1.3,1.3-2,1.7c-0.7,0.4-1.3,0.8-2,1.2
			c-1.4,0.9-3.4,1-4.9,1.7c-1,0.5-2.3,0.8-3.3,1.4c-0.2,0.1-0.5,0.5-0.7,0.6c-0.4,0.1-0.7,0.1-1.1,0.2c-0.2,0.1-0.3,0.3-0.6,0.4
			h-0.6c-0.9,0.3-1.9,0.6-2.9,0.9c-0.3,0-0.7,0.1-1,0.1c-0.7,0.3-1.8,0.7-2.5,0.9c-0.2,0-0.4,0.1-0.7,0.1c-0.3,0.2-0.7,0.4-1.1,0.6
			c-1.4,0.5-2.9,0.7-4.2,1.2c-0.1,0.4-0.1,0.6-0.1,1c0.2,0.1,0.5,0.2,0.7,0.4c0.8,0,1-0.5,1.6-0.7c1.1-0.4,2.1-0.5,3.2-0.9
			c0.5-0.2,1-0.5,1.6-0.7c1.9-0.7,4.2-1,6.1-1.6h0.7c1.7-0.7,3.3-1.6,4.9-2.3c0.6-0.2,1.1-0.2,1.6-0.4c0.4-0.1,0.8-0.5,1.2-0.6
			c0.8-0.2,1.4-0.2,2.1-0.5c1.6-0.8,3-1.9,4.4-2.9c0.6-0.4,1-1.3,2.2-1.1c1.2,0.3,1.3,0.4,2.2,0.9c0.2,0,0.3,0.1,0.5,0.1
			c0.1,0.2,0.3,0.4,0.4,0.6c0.4,0.3,0.8,0.6,1.2,0.8c1.1,0.7,2.2,1.4,3.3,2.1c0.1,0.1,0.1,0.3,0.2,0.4c0.1,0.1,0.2,0,0.3,0.1
			l0.7,0.7c0.6,0.4,1.3,0.7,1.8,1.2c0.5,0.5,1,1.3,1.6,1.7c0.6,0.5,1.2,0.9,1.7,1.4c0.2,0.2,0.3,0.6,0.5,0.7
			c4.4,3.4,9.1,7.1,14.4,9.5c2.6,1.2,5.8,1.5,8.8,2.4h0.9c0.1,0,0.6,0.1,0.7,0.2c0.1,0.1,0.1,0.2,0.2,0.2c0.3,0.1,0.9,0,1,0
			c0.5,0.2,1.1,0.3,1.5,0.5c0.6,0.3,1.6,0.1,2.2,0.2c0.8,0.1,2.1,0.3,2.8,0.5c0.3,0,0.5-0.1,0.8-0.1c0.7,0.3,1.3,0.8,2,1.1
			c0.4,0,0.7,0.1,1.1,0.1c0.2,0.1,0.4,0.5,0.7,0.6c0.1,0.1,1,0.3,1.2,0.2c0.2,0,0.5-0.2,0.7-0.2c0.2,0.1,1.1,0.6,1.3,0.7
			c1.1,0.8,1.2,1.9,1.8,3.2c0.1,0.3,0.4,0.4,0.6,0.7c0.2,0.2,0.2,0.5,0.3,0.7c0.2,0.2,0.4,0.4,0.7,0.6v0.4c0.2,0.4,0.5,0.9,0.7,1.3
			c0.4,1.1,0.2,3.3,1.3,3.9c-0.1,1.7-0.9,3-1.3,4.3c-0.2,1.1-0.4,2.2-0.6,3.3c0,0.4,0.1,0.9,0.1,1.3c-0.1,0.2-0.2,0.5-0.2,0.8
			c-0.7,0-2.8-0.5-3.3-0.8c-0.7,0-1.7,0.2-1.2,0.9c0.4,1.1,2.5,0.8,3.4,1.4c0.4,0,0.7,0,0.9,0.2c0.5,2.6-1.5,4.5-1.2,7.2
			c0.1,0.1,0.2,0.1,0.2,0.2c0.4,0,0.7,0,0.8-0.2c0.3-0.5,0.1-1.1,0.2-1.7c0.2-0.8,1.1-2.6,0.9-3.5c0-0.2,0.2-0.9,0.3-1.2v-0.8
			c0.1-0.5,0.2-1.6,0.3-2.1c0-0.2-0.1-0.3-0.1-0.5c0.1-0.4,0.2-1,0.3-1.4v-0.9c0.3-1.1,0.5-2.1,0.9-3.2c0.2-0.5,0.6-1.2,0.7-1.7
			v-0.7c0.1-0.2,0.3-0.5,0.3-0.7c0-0.1-0.1-0.3-0.1-0.4c0.1-0.3,0.4-0.7,0.5-1c0-0.2,0.1-0.4,0.1-0.6l0.5-0.5c0-0.2,0.1-0.3,0.1-0.5
			c0.4-0.8,1-1.7,1.2-2.6c0.2-0.6,0.1-1.2,0.4-1.6c0.7-0.8,1.7-1.5,2.6-2.1c0.3-0.2,1.2-0.4,1.4-0.6c0.1-0.1,0.2-0.4,0.3-0.5
			c0.9-0.6,1.9-1,2.9-1.5c0.2-0.1,0.5-0.1,0.7-0.2c0.9-0.4,1.9-0.8,2.8-1.2c0.2,0,0.4-0.1,0.6-0.1c0.1-0.1,0.1-0.2,0.2-0.2
			c0.4-0.2,0.8-0.1,1.2-0.2c0.3-0.1,0.8-0.5,1.1-0.6h0.5c0.5-0.2,1-0.7,1.6-0.9c1.2-0.5,2.3-0.8,3.6-1.2c0.2-0.1,0.4-0.3,0.6-0.4
			c0.7-0.3,1.4-0.2,2.1-0.4c0.5-0.2,1.2-0.6,1.6-0.7c0.3,0,0.6-0.1,0.8-0.1c1.5-0.6,3.2-1.3,4.4-2.2c0.2-0.2,0.3-0.4,0.5-0.6
			c0.3-0.2,0.6-0.2,0.9-0.4l0.4-0.4c2.1-1,3.9-1.7,5.8-2.8c0.6-0.3,1.1-1,1.6-1.4c0.1,0,0.3-0.1,0.4-0.1c0.1-0.1,0.2-0.3,0.3-0.4
			h0.3c0.1-0.2,0.3-0.4,0.4-0.6c0.4-0.3,0.9-0.5,1.3-0.8c0.1-0.1,0.1-0.3,0.2-0.4c0.2-0.1,0.3-0.1,0.5-0.2c0.3-0.3,0.8-1,1.2-1.2
			c0.9-0.7,1.7-1.3,2.6-2c0.3-0.3,0.6-0.7,0.8-1c0.1-0.1,0.7-0.5,0.8-0.6c0-0.2,0.1-0.3,0.1-0.5c0.2-0.2,0.8-0.6,0.9-0.7
			c0-0.1,0.1-0.3,0.1-0.4c0.2-0.3,0.8-0.4,1-0.7c0.1-0.2,0.2-0.6,0.3-0.8c0.4-0.5,0.8-0.8,1.2-1.4c0.1,0,0.2-0.1,0.2-0.1
			c0.4,0.4,1,0.6,1.5,0.9l1.5,1.5c0.4,0.3,0.9,0.4,1.2,0.7c0,0.1,0.1,0.2,0.1,0.2h0.4c0.1,0.1,0.1,0.3,0.2,0.4
			c0.5,0.4,1.1,0.6,1.6,1c0.3,0.2,0.5,0.6,0.7,0.7c0.8,0.5,1.6,0.8,2.4,1.3c2.4,1.6,4.9,3.1,7.7,4.2c0.5,0.2,0.8,0.1,1.3,0.2
			c0.8,0.3,1.9,0.7,2.8,0.9h1.2c1.4,0.3,3.4,0,4.5,0.7c1-0.1,1.1-0.9,1.8-1.3C484.1,412.5,484.1,412.2,484.1,411.8z M447.4,260.4
			c0.4,0,1.5-0.2,1.8-0.1c0.2,0.1,0.3,0.4,0.6,0.3c0.1-0.1,0.1-0.2,0.2-0.2c0.3-0.1,1.4,0.1,1.6,0.2c0.3,0.1,0.5-0.1,0.7-0.1
			c0.5,0.1,1.2,0.2,1.4,0.3c0.3-0.1,0.7-0.1,1-0.2c0.1,0,0.3,0.3,0.5,0.3c-0.4,0.5-1.3,0.6-2,0.8c-0.7,0.2-3.4,0.6-4.6,0.3
			c-0.4-0.1-0.9-0.3-1.3-0.4C447.3,261.3,447.4,261,447.4,260.4z M433.7,245.9c0.2-0.2,0.4-0.2,0.7-0.4c0.3,0,0.5,0,0.7,0.1
			c0.2,0.1,0.1,0.1,0.2,0.2c-0.4,0.3-1,0.1-1.3,0.2L433.7,245.9C433.6,246,433.7,245.9,433.7,245.9z M348.8,283.2
			c-0.1,0.3-0.4,0.7-0.7,1c-0.3,0.2-2.2,0.7-2.8,0.6c-0.3,0-0.9-0.2-1.3-0.1c-0.4,0.1-1.4,0.2-1.9,0.1c-0.4-0.1-0.6-0.2-1.1-0.2
			c0.7-1.1,2.4-1.4,3.5-2.1c0.2-0.1,0.4-0.4,0.6-0.5c0.5-0.2,1.1-0.3,1.6-0.7c0.4,0.3,0.6,0.8,1,1.1
			C348.1,282.6,348.5,282.8,348.8,283.2C348.9,283.2,348.9,283.1,348.8,283.2z M350,281.5c-0.1,0.1-1.1-0.6-1.2-0.7
			c0,0-0.1-0.1-0.1-0.1c0.4-0.1,0.7-0.2,1-0.4c0.4,0,0.7,0.1,0.8,0.3C350.6,280.8,350.2,281.3,350,281.5z M347.7,298.8L347.7,298.8
			c0.4-0.7,1.1-1.2,1.6-1.8c0.1,0,0.2,0.1,0.2,0.1C349,297.7,348.2,298.1,347.7,298.8z M444.9,287.9v0.2h-0.2c0-0.4-0.1-0.7,0-1
			c0.1,0,0.2,0.1,0.2,0.1C445,287.4,445,287.7,444.9,287.9z M446.8,295.1c-0.3-0.1-0.2-0.1-0.6-0.1l-0.2-0.2c0-0.8-0.1-1.4-0.2-2.1
			c0.5,0.2,0.9,0.8,1.4,1.1C447,294.3,446.8,294.7,446.8,295.1z M447.2,303.9v0.2h-0.1L447.2,303.9L447.2,303.9z M447,302.8v0.2
			c-0.4-0.2-0.2-1.3-0.2-1.8c0.1,0,0.1,0.1,0.2,0.1C447,301.8,446.9,302.6,447,302.8z M446,310.3c0.1-0.7,0-1.4,0.2-2.1
			c0.7,0.2,2,0.1,2.6,0.4c0.4,0.2,0.5,0.7,0.9,1c0,0.5,0.1,0.6,0.1,0.9c0,0.4-0.1,0.7-0.1,1.1c-0.4,1.3-1.5,1.7-2.3,2.6
			c-0.2,0.3-0.3,0.7-0.5,1c-0.3,0.5-1,0.7-1.4,1.1h-0.1c0.1-0.2,0.1-0.5,0.2-0.7c-0.1-0.3-0.3-0.9-0.2-1.5
			C445.8,312.9,445.9,311.5,446,310.3z M445.3,285.8L445.3,285.8c-0.3-0.4-0.7-0.6-1.2-0.8c-0.1-0.4-0.2-0.9-0.2-1.2
			c0.2,0,0.2,0,0.2,0.1c0.6,0.1,0.8,0.5,1.2,0.8C445.4,285.3,445.3,285.4,445.3,285.8z M450.3,305.4c0.4,0.2,0.6,0.1,1,0.3
			c1.2,0.7,1.6,4.2,1.1,5.9c-0.5,1.6-1,4.5-2.1,5.3c-0.7,0.5-2.1,0.6-2.6,0.9l-0.7,0.7c-0.2,0-0.3,0.1-0.5,0.1
			c-0.3,0.1-0.5,0.4-0.7,0.6c-0.1,0.7-0.1,1.3-0.5,1.7v0.2H445c0-0.8-0.2-2,0.2-2.6c0-1.3,0.6-0.8,1.4-1.2l0.5-0.5
			c0.2-0.1,0.4,0.2,0.7,0c0,0,1.2-1.4,1.2-1.5c0.1-0.2,0.2-0.6,0.3-0.7c0.1-0.1,0.4-0.1,0.5-0.2c0.3-0.2,0.8-0.8,1-1.1
			c0.2-0.3,0-0.5,0.2-0.9c0.2-0.6,0.6-1.3,0.7-2c0.1-0.3-0.2-0.5,0-0.8c-0.2-0.4-0.5-0.7-0.7-1c-0.1-0.2-0.1-0.4-0.2-0.6
			c-0.1-0.1-0.4-0.1-0.5-0.2c-0.2-0.1-0.2-0.3-0.3-0.5c-0.2-0.2-0.5-0.3-0.7-0.6c-1,0-1.6,0.1-2.6,0c0-0.2,0.1-0.4,0.2-0.6
			c0.2-0.6,1.3-1,1.9-1.2C449.1,305,450,305.3,450.3,305.4z M449.9,292.9v-0.3h0.2v0.3H449.9z M450.7,285.9L450.7,285.9
			c-0.3-0.1-0.2-0.4-0.6-0.6c0-0.2,0-0.4,0.1-0.5c0.3,0.1,0.3,0.3,0.5,0.4c0,0.2,0,0.3,0.1,0.4C450.8,285.8,450.8,285.8,450.7,285.9
			z M453.4,292.3c0.2,0.3,0.6,0.7,0.8,1c0.3,0.6,0.4,1.1,0.8,1.5c0,0.3,0,0.5-0.1,0.7l-1.5-0.2c-0.7-0.1-0.9-1.2-0.9-1.9
			c0-0.2,0.2-0.4,0.1-0.7c-0.2-0.7-1.1-1.7-1-2.6C452.5,290.5,452.9,291.5,453.4,292.3z M455,282.4c0.6,0.9,1,2.2,0.7,3.8
			c0,0-0.1,0.1-0.1,0.1c-0.4,0-0.6-0.1-0.9,0c-0.1-0.1-0.1-0.1-0.2-0.2v-0.2c-1.7-0.3-2.3-2.1-3.9-2.6c-0.1-0.9,0.8-1.3,1.1-2.1
			C453.1,281.5,453.4,282.6,455,282.4z M447.8,278.4c0.7,0.2,2.4,1.4,2.7,2h0.2c-0.1,0.8-0.8,1.4-1.2,1.9c-0.9-0.1-1.1-1.1-1.7-1.5
			l-0.2-1.7C447.7,278.9,447.8,278.8,447.8,278.4z M446.8,286.6c0.2,0,0.2,0,0.3,0.1c0.3,0.1,0.3,0.2,0.4,0.5
			c-0.3-0.1-0.5-0.3-0.7-0.4V286.6z M446.5,288.7c0.2,0.3,0.7,0.7,1.1,0.9c0.1,0.6,0.2,1.4-0.1,1.7c0,0.3-0.1,0.3-0.2,0.5
			c-0.5-0.1-0.6-0.4-1-0.7v-0.3c-0.4-0.1-0.4-0.2-0.7-0.3c0.1-0.6,0.4-1.1,0.4-1.8H446.5z M445.7,277.9h0.2c0.2,0.5,0.2,1.3,0.2,2
			c-0.3-0.1-0.3-0.2-0.6-0.3C445.5,279,445.7,278.6,445.7,277.9z M445.9,281.1c0.2,0.2,0,1.3,0,1.8c-0.7-0.1-1.7-1.7-2.3-2.1
			c0.2-0.2,0.7-0.3,0.9-0.5C444.9,280.4,445.6,280.8,445.9,281.1z M443.9,291.6c-0.1,0.4-0.1,0.8-0.2,1.2c0,0-0.1,0.1-0.1,0.1
			c-0.6-0.1-0.7-0.5-1.2-0.7c0-0.4-0.1-0.8-0.1-1.2C442.9,291,443.5,291.4,443.9,291.6z M443.6,278L443.6,278l0.1-0.2
			c0.2,0,0.4-0.1,0.7-0.1c0,0.2,0,0.4-0.1,0.6c-0.1,0.1,0,0-0.2,0.1C443.9,278.3,443.8,278.2,443.6,278
			C443.6,278.1,443.6,278,443.6,278z M442.7,274.9c0.9,0.1,1.1,0.4,1.6,0.8v0.2c-0.5,0-1.4-0.2-1.7-0.4
			C442.5,275.5,442.6,275.1,442.7,274.9z M443.2,279.1c0,0.2,0,0.2-0.1,0.3h-0.4c0-0.3-0.1-0.4,0-0.7
			C442.9,278.8,443,279,443.2,279.1z M442.3,285.2c1,0.5,0.7,2.5,1.2,2.9v0.3c-0.3-0.1-0.3-0.2-0.5-0.3v-0.2h-0.2
			c-0.1-0.2-0.1-0.2-0.3-0.3c0-0.5,0-1.5-0.2-1.8C442.2,285.4,442.2,285.4,442.3,285.2z M442.6,294.6
			C442.6,294.5,442.6,294.5,442.6,294.6c0.1,0,0.2,0.1,0.2,0.2c0.1,0.1,0.1,0.1,0.2,0.1c0,0.3-0.5,1.8-0.6,2c-0.1,0.1,0,0.1-0.1,0.2
			c-0.1-0.4,0-1.3-0.2-1.6C442.2,295,442.4,294.8,442.6,294.6z M440.9,269c0.1,0.1,0.1,0.4,0.2,0.5c0,0,0.1,0.1,0.1,0.1v-0.1
			c0.3,0.1,0.4,0.2,0.6,0.4v0.1c-0.7-0.1-1.6-0.7-1.4-1.2h0.2C440.7,268.9,440.8,268.9,440.9,269z M441.3,285.3
			c-0.1,0.1,0,0.1-0.1,0.2v0.4h-0.1c-0.1-0.4-0.1-0.3-0.1-0.7C441.2,285.2,441.3,285.2,441.3,285.3z M441.2,273.1L441.2,273.1
			l0.1,0.2C441.2,273.2,441.2,273.3,441.2,273.1z M439.9,281.4c0.3,0.4,0.9,0.4,1.1,1c0,0,0.1,0.1,0.1,0.1h-0.1
			c-0.1,0.1-1.3-0.8-1.4-1.1H439.9z M439.7,277.3c0-0.2,0-0.4,0.1-0.5c0.1,0,0.2,0.1,0.2,0.1c0,0.2,0,0.2-0.1,0.3v0.2L439.7,277.3
			C439.8,277.3,439.7,277.3,439.7,277.3z M441.9,257c0.1-0.3,0.3-0.5,0.4-0.7c0.5,0.1,0.6,0.4,1,0.7c0.1,0.3,0.2,0.4,0.2,0.8
			c-0.2,0-0.3,0-0.4-0.1c-0.1-0.1-0.1-0.1-0.1-0.2C442.5,257.4,442.2,257.3,441.9,257L441.9,257z M443.9,260.5
			c0.2,0.1,0.2,0.1,0.3,0.2c-0.2,0.4-1.4,0.1-1.8-0.2h-0.1v-0.2c0.2,0,0.2,0,0.3-0.1C442.7,260.2,443.9,260.5,443.9,260.5z
			 M444.7,251.5h0.2v0.2c-0.5,0.5-0.9,1.3-1.3,1.9c-0.2,0.2-0.5,0.4-0.7,0.7c-0.6,0-0.6-0.3-1-0.6
			C442.2,253,444.1,252.2,444.7,251.5z M440.6,254.4c0.4,0.3,0.7,0.6,1.1,0.8c0,0.6-0.4,0.8-0.7,1c-0.1,0.1-0.2-0.1-0.5-0.1
			c-0.2-0.4-0.3-0.6-0.7-0.7C439.8,255,440.3,254.7,440.6,254.4z M439.2,253.6C439.2,253.6,439.3,253.6,439.2,253.6
			c0.1,0.1,0.1,0.1,0.2,0.2h-0.1c-0.1,0.1,0,0.1-0.1,0.2v0.1H439C439.1,253.7,439.1,253.7,439.2,253.6z M438.5,256.5
			c0.4,0.1,1,0.5,1.2,0.7c0.1,0.1,0.1,0,0.2,0.1l-0.2,0.2c-0.6-0.1-0.7-0.2-1.2-0.2c0,0-0.1-0.1-0.1-0.1
			C438.4,257,438.5,256.8,438.5,256.5z M437.7,267.3c0.4-0.1,1-0.1,1.3,0.2c0.1,0,0.1,0.1,0.2,0.1c-0.1,0.1-0.2,0.3-0.3,0.4
			c-0.3,0-0.3,0-0.4-0.1c-0.2-0.1-0.2-0.1-0.3-0.2v-0.2c-0.2,0-0.2,0-0.2,0.1h-0.2V267.3z M438.2,271.5c0.1,0.2-0.1,0.4-0.1,0.4
			c0.2,0.3,0.6,0.8,0.6,1.2v0.2c-0.6-0.4-1.2-0.5-1.9-0.9c-0.5-0.3-0.8-1-1.2-1.4c0-0.3,0.1-0.4,0.2-0.7c0.2,0,0.3-0.1,0.4-0.2
			C437.7,270.1,437.9,270.4,438.2,271.5z M436.2,276.4v0.3h0.3c0.3,0.4,1.1,1.2,1.5,1.4c-0.1,0.8-0.4,1.5-0.6,2.1
			c-1.3-0.3-2.4-1-3.5-1.4c-0.1-0.5-0.3-1.3,0.1-1.8c-0.1-1.3,0.3-1.1,1.1-1.6C435.6,275.6,435.8,276.1,436.2,276.4z M435.2,265.3
			c0.1-0.4,0.3-0.6,0.4-0.9c0.4,0.1,0.5,0.3,0.8,0.5c-0.2,0.4-0.7,0.3-1,0.4H435.2z M437.9,276v-0.4c-0.1-0.1-0.1-0.1-0.3-0.2v-0.1
			c0.3,0.1,0.5,0.2,0.7,0.3c0.1,0.1,0,0.1,0.1,0.2v0.2C438.2,276,438.1,276,437.9,276z M437.1,252.3v0.2c-0.2-0.1-0.1,0-0.2-0.2
			C437,252.3,437,252.3,437.1,252.3z M437,254.7c0.1,0.1,0.1,0,0.2,0.1l0.2,0.2c-0.1,0.7-0.8,1.2-1.3,1.4c-0.1,0.1-0.2-0.1-0.4-0.2
			C435.8,255.5,436.6,255.3,437,254.7z M430.4,244.5c0.7,0.1,1.2,0.2,1.7,0.2v0.1c-0.6,0.2-0.8,0.1-1.1,0.6c-0.2,0-0.2,0-0.2-0.1
			c-0.3-0.1-0.3-0.4-0.6-0.6C430.3,244.6,430.3,244.7,430.4,244.5z M434.1,251.1c0.7,0.7,1.1,2,2.1,2.5c-0.1,1.1-1.5,1.3-1.7,2.2
			c-0.3-0.1-0.1-0.2-0.2-0.4c-0.2-0.1-0.4-0.3-0.6-0.4c-0.4-0.5-0.7-0.9-1.1-1.5l-0.7-0.7c-0.1-0.3-0.1-0.7-0.2-1
			c-0.1-0.1-0.3-0.1-0.4-0.2c-0.5-0.7-1.6-1.8-1.7-2.7C430.4,249,433.6,250.6,434.1,251.1z M432.6,264.1v0.2c-0.2,0-0.3,0-0.4-0.1
			c-0.1-0.4-0.1-0.8,0.1-1.2C432.5,263.2,432.7,263.9,432.6,264.1z M431.7,261.4c-0.1,0.8-0.5,1.4-0.7,2.1c-0.7-0.4-1.3-0.8-2.1-1.1
			c0.2-0.8,1.5-1.2,2.1-1.6C431.3,261,431.3,261.2,431.7,261.4z M429.2,259.9c0.1,0,0.2,0.1,0.2,0.1c-0.1,0.5-0.7,0.7-1,1
			c-0.4-0.1-0.4-0.4-0.7-0.6v-0.6C428.2,259.9,428.9,259.7,429.2,259.9z M421,272.6c-0.1-0.4-0.1-0.7-0.2-1.1
			c-0.2-0.5-0.7-0.8-0.9-1.3c-0.1-0.4-0.1-0.6-0.2-0.9c-0.1-0.3-0.5-0.4-0.6-0.8c-0.2-0.6,0.3-1,0.3-1.6h0.2c0-0.2,0-0.4,0.1-0.5
			c0.4-0.2,0.9-0.2,1.4-0.1c-0.2,1.2-0.2,3.6,0.3,4.3c0.5,0.7,1.4,0.4,2.2,0.2c0,0.2,0,0.3-0.2,0.4c0.1,0.6,0.5,0.3,0.7,0.7
			c0.3,0.4,0.7,2.2,0.8,2.9c0.1,0.5,0.1,1.1-0.1,1.3c-0.2,0.2-0.9-0.6-1.1-0.8c-0.2-0.2-0.5-0.2-0.7-0.4c-0.4-0.3-0.4-0.7-0.7-1.1
			c-0.1-0.2-0.8-0.5-1-0.7C421.2,272.9,421.8,272.7,421,272.6z M420.5,263.8c0.1,0,0.2,0.1,0.2,0.1c0.1,0.1,0,0.1,0.1,0.2
			c0,0.2,0,0.4-0.1,0.5c-0.3,0-0.2,0-0.3-0.2C420.4,264.2,420.5,264,420.5,263.8z M421.9,260.2c0,0.4-0.1,0.5-0.2,0.8h-0.4
			c0-0.3,0.1-0.6,0.2-0.7c0-0.1,0.1-0.1,0.1-0.2C421.8,260.2,421.8,260.2,421.9,260.2z M421.7,259.5c0-0.2,0-0.2,0.1-0.3
			c0.1-0.2,0.1-0.1,0.2-0.2h0.1c0,0.3-0.1,0.4-0.2,0.6H421.7z M421.6,262.5v0.2h-0.1L421.6,262.5L421.6,262.5z M422.5,267.9
			c0.4,0.2,0.3,1,0.7,1.3v0.2c-0.2,0-0.2,0.1-0.4,0h-0.2C422.6,268.9,422.5,268.4,422.5,267.9z M423.9,257.6c0.1,0.4,0.3,1,0.5,1.2
			v0.5c-0.4,0.1-0.4,0-0.9-0.1c0,0-0.1-0.1-0.1-0.1c0.1-0.5,0.1-1,0.2-1.6L423.9,257.6L423.9,257.6z M423.7,247
			c0.1-0.3,0.1-0.4,0.2-0.6c0.7,0.2,1.5,0.7,2.2,0.9v0.2c-0.4,0-0.7,0.1-0.9,0.2C424.4,247.8,424.1,247.3,423.7,247z M423.9,261v0.2
			c0.3,0.2,0.6,0.4,0.9,0.7c-0.3,0.2-1.1,0.1-1.4-0.2l-0.2-0.2c0-0.3,0-0.6,0.1-0.7C423.6,260.8,423.5,260.9,423.9,261z M424,267.8
			v0.2h-0.1L424,267.8L424,267.8z M425.1,270.3c-0.2-0.1-0.2-0.1-0.3-0.2c0-0.8,0.6-1.3,0.9-1.8c0.6,0.1,1,0.4,1.5,0.6v0.2
			C426.3,269.3,425.7,269.8,425.1,270.3z M426,255.8L426,255.8l0.1,0.2C426,256,426,256,426,255.8z M426.5,266.2L426.5,266.2
			l0.1,0.2C426.5,266.3,426.5,266.3,426.5,266.2z M425.8,250.9c-0.3-0.2-0.5,0-0.7-0.2c-0.2-0.3-0.3-0.6-0.5-0.8v-0.2
			c1.4,0.2,1.8,1.4,2.9,1.8c0.1,0.1,0.1,0.1,0.2,0.1c0.1,0.4,0.3,0.3,0.3,0.7C426.9,252.2,426.5,251.4,425.8,250.9z M427.2,248.7
			c0.6,0.3,0.8,0.9,1.2,1.4v0.2c-0.8-0.2-0.9-1.1-1.7-1.2V249C426.8,248.9,427.1,248.8,427.2,248.7z M427,244.8
			c0.6,0,0.7,0.2,1.1,0.4v0.1c-0.4,0-0.6-0.2-1-0.2C427.1,244.9,427.1,244.9,427,244.8z M428.2,257.1L428.2,257.1
			c-0.5,0.1-0.5,0-0.7-0.3C427.8,256.9,428,257,428.2,257.1z M427.4,258.9c0.2,0,0.3,0.1,0.7,0.1c0,0,0.1,0.1,0.1,0.1v0.2
			c-0.3,0-0.6-0.1-0.8-0.1C427.4,259,427.4,259,427.4,258.9z M427.7,264.9c0.2,0.1,0.2,0.1,0.3,0.2v0.2h-0.2
			c-0.1-0.1-0.1-0.1-0.2-0.2L427.7,264.9L427.7,264.9z M423.4,241.2c0.3-0.2,0.3-0.5,0.6-0.8c0-0.5-0.1-0.8-0.4-1v-0.2
			c1.2,0.5,2.1,0.4,3.4,0.8c0.6,0.2,1.2,0.8,1.9,0.9v0.3c-0.5,0.3-0.9,0.8-1.4,1c-0.1,0-0.3,0-0.6,0c0,0.2,0,0.2,0.1,0.2
			c-0.1,0.3,0,0.1-0.2,0.2c-0.4,0.2-2.1-0.2-2.7,0.2c-0.5-0.1-0.7-0.5-1.1-0.7c-0.7-0.4-1.6-0.5-2.2-1h-0.1v-0.1
			C421.5,241.1,422.8,241.6,423.4,241.2z M421.8,245.2c-0.2-0.1-0.1,0.1-0.2-0.1C421.7,245.1,421.9,245,421.8,245.2z M419.4,238.8
			c0.4,0,0.9-0.1,1.3-0.1c0.2,0.1,0.1,0.3,0.5,0.3v0.2c-0.5-0.1-1.2-0.1-1.6-0.4L419.4,238.8L419.4,238.8L419.4,238.8z M420.3,240.8
			v0.2c-0.2,0-0.2,0-0.3-0.1h-0.2C419.9,240.9,420,240.8,420.3,240.8z M419.6,247.6c0.2-0.1,0.3-0.1,0.4-0.2
			c0.2,0.1,0.3,0.1,0.5,0.2c0.1,0.7-0.1,1.2,0.4,1.5v0.2c-0.5,0.1-0.9,0-1.2,0.5h-0.2c-0.1-0.2-0.1-0.3-0.4-0.4
			C419.3,248.6,419.6,248.5,419.6,247.6z M419.1,251.2h0.3c0.2,0.4,0.6,0.6,0.8,0.9c0.3,0.4,0.6,0.9,0.9,1.2c0.3,0.4,0.8,0.6,1.2,1
			c0.3,0.4,0.5,0.9,0.9,1.2v0.1c-0.4-0.1-0.4-0.1-0.7-0.1c-0.1-0.3-0.2-0.8-0.3-1.2c-0.6-0.1-2.1,0-2.6-0.3
			c-0.2-0.1-0.3-0.3-0.5-0.4C419,252.9,418.9,251.7,419.1,251.2z M417.8,262.9c-0.5,0-0.9,0.1-1-0.3c-0.2-0.5,0.5-0.8,0.7-1.1
			c0.5,0,0.7,0.1,1.2,0.2c0.1,0.1,0,0.1,0.1,0.2C418.8,262.9,418.3,262.6,417.8,262.9z M417.9,265c-0.1,0.1,0,0.1-0.1,0.2
			c0,0.3,0,0.3-0.2,0.4c0,0-0.1,0.1-0.1,0.1c-0.2-0.3-0.3-0.5-0.4-0.9C417.4,264.8,417.7,264.9,417.9,265z M407.7,270.3L407.7,270.3
			c-0.2,0.1-0.2,0.1-0.3,0.1c-0.1,0.8-1.4,2.5-2.1,2.7c-0.1,0.1,0,0-0.2,0.1c0,0-0.1-0.1-0.1-0.1c0.1-2,1.2-5,2.1-6.1
			c0.3-0.3,0.9-0.4,1.2-0.7c0.6,0.3,0.5,0.9,0.9,1.2c-0.2,0.7-0.8,1.4-1.2,2.1h-0.5C407.7,269.9,407.7,269.9,407.7,270.3z
			 M401.2,268.1c0-0.3,0.1-0.6,0.1-0.9c0.2-0.6,0.5-1.4,0.8-2h0.5c0,0.1,0.1,0.1,0.1,0.2c0.1,0.1-0.3,0.9-0.4,1.2
			c-0.5,1.1-1.4,2-1.6,3.3h-0.2C400.6,269.2,401,268.7,401.2,268.1z M400.8,263.9c-0.6,0-1.2,0.2-1.6-0.2c0.1-0.5,0.9-1,1.2-1.5
			c0.2,0,0.4,0,0.5-0.1h0.5C401.3,262.8,401,263.3,400.8,263.9z M402.4,264.1c0-0.6,0.3-1.4,0.4-1.6c0.1-0.2,0.1-0.2,0.2-0.4
			c0.6,0,0.6,0,1.1,0.1c-0.2,0.7-0.5,1.3-0.8,1.9C402.9,264.1,402.9,264.1,402.4,264.1z M407.8,251v0.2c-0.5-0.1-0.5-0.4-0.9-0.6
			c0.2-0.6,1.5-1.5,0.8-2.5v-0.1c0.4,0.2,0.8,0.7,1,1.2c0.1,0.1,0.1,0.1,0.1,0.2c-0.3,0-0.4,0-0.8,0
			C407.5,249.9,407.2,250.4,407.8,251z M407.5,263.8c0,0.3-0.1,0.4-0.2,0.6c-0.5,0-0.5,0-1.1,0c0.1-0.7,0.4-0.7,0.7-1.1
			C407.4,263.4,407.3,263.6,407.5,263.8z M407.1,247.6h0.2c0.1,0.1,0.2,0.3,0.3,0.4C407.5,247.8,407.3,247.7,407.1,247.6z
			 M408.3,243.1c0,0-0.5-0.2-0.7-0.3c-0.4-0.4-1.9-1.5-2.5-1.5c0.1-0.2,0.1-0.2,0.2-0.3c0.5,0.1,1.3,0.1,1.7-0.2
			c0.8,0.2,0.9,1.3,1.3,1.9C408.4,242.9,408.4,243,408.3,243.1z M404.1,259.1C404.2,259.1,404.2,259,404.1,259.1
			c0.1-0.8,1.2-1.1,1.9-1.2c0,0.4-0.1,0.6-0.2,0.8c0,0.1-0.1,0.2-0.1,0.2c-0.4-0.1-0.7-0.2-1,0.1H404.1z M404.5,260.7
			c-0.1,0.1-0.2,0.1-0.3,0H404.5z M405.5,248.8c-0.1,0.5-0.5,0.9-1,1c-0.2,0.2-1.1-0.5-1.4-0.6c0-0.3,0-0.5,0.2-0.7
			c0.2-0.2,0.4-0.2,0.6-0.3C404.4,248.4,405,248.7,405.5,248.8z M403.4,255h0.2C403.5,255,403.5,255,403.4,255
			c-0.1,0.5-0.4,0.4-0.7,0.6h-0.2v-0.1C402.8,255.3,403.2,255.2,403.4,255z M405.2,265.4c0.2,0,0.4,0,0.6-0.1c0.2,0.1,0.3,0,0.5,0.1
			h0.2c0,1.4-2.3,2.2-3.1,3h-0.2C403.7,267.3,404.6,266.4,405.2,265.4z M408.8,262.7L408.8,262.7L408.8,262.7
			c-0.1-0.2-0.1-0.4-0.2-0.6c0.2-0.1,0.4-0.2,0.7-0.2C409.2,262.4,409,262.5,408.8,262.7z M408,257.9c0.1-0.3,0.2-0.3,0.2-0.6
			c0.6,0.1,0.8,0.5,1.3,0.7c0,0.2,0,0.4-0.1,0.5C409,258.3,408.6,258,408,257.9z M409.2,249.8c0.5,0.3,0.6,0.8,1.1,1.2v0.1
			C409.8,250.9,409.3,250.2,409.2,249.8z M410,263.5L410,263.5c0.4-0.8,1.1-0.9,1.7-1.5h0.1C411.7,262.6,410.5,263.1,410,263.5z
			 M410.2,265.4v0.2h-0.2c0-0.1-0.1-0.2-0.2-0.3c0.1-0.3,0.1-0.2,0.3-0.4C410.4,265.1,410.4,265.2,410.2,265.4z M410.6,247.5
			c0.2,0.1,0.2,0.1,0.3,0.2C410.8,247.6,410.8,247.6,410.6,247.5z M413.6,264.4c0.2,0.3,0.3,1,0.5,1.3c0,0.2,0,0.2-0.1,0.2
			c-0.6,0.3-1.4-0.1-2.2-0.2c0-0.4,0.2-0.7,0.4-0.9C412.4,264.5,413.2,264.6,413.6,264.4z M413.4,256.9c0.1-0.6,0.6-0.7,0.9-1.2
			c0.2,0.1,0.2,0.3,0.4,0.4c0,0.2,0,0.2-0.1,0.2c-0.2,0.5-0.7,0.5-1,0.8C413.4,257.1,413.5,257,413.4,256.9z M411.1,266.9
			c0.5,0,0.8,0.1,1.2,0.1c0.2,0.2,0.3,0.3,0.4,0.6c0.3-0.1,0.3-0.2,0.4-0.2c0.3,0,0.6,0.1,0.8,0.1c0.1,0,0.1-0.1,0.2-0.2
			c0.5,0.9,0.7,1.7,0.7,3.1c-0.3,0.3-0.5,0.6-0.8,0.8c-2-0.2-2.1-2.5-3-3.8C411,267.1,411,267.1,411.1,266.9z M414,253.4
			c-0.1,0-0.2-0.1-0.4-0.2c-0.2-0.3-0.4-0.6-0.7-0.7c0.3-0.3,0.9-0.1,1.4-0.1c0.2,0.2,0.5,0.4,0.7,0.6v0.2
			C414.8,253.2,414.1,253.4,414,253.4z M415.3,259C415.3,259,415.3,259,415.3,259c0.2,0.3,0.2,0.5,0.2,0.8c-0.2,0-0.2,0-0.2-0.1
			c-0.1,0-0.2-0.1-0.2-0.1C414.9,259.2,415,259.2,415.3,259z M415.3,250.8c-0.1-0.1-0.1-0.1-0.2-0.2c0.3-0.5,0.7-0.2,1.2-0.5h0.2
			v0.2C416.1,250.5,415.7,250.6,415.3,250.8z M416.8,267.3c0.2,0.1,0.2,0.1,0.3,0.2c0,0.3-0.2,0.7-0.3,1v0.1c-0.2-0.3-0.2-1-0.3-1.3
			C416.7,267.3,416.7,267.3,416.8,267.3z M416.8,258.6v-0.2c0.1,0,0.2,0.1,0.2,0.1v0.1H416.8z M418.2,259.7h0.2
			c0.1,0.1,0.1,0.1,0.2,0.2c-0.1,0.2-0.3,0.3-0.5,0.2C417.9,259.9,418.1,259.9,418.2,259.7z M418.6,260.7h0.4
			C418.8,260.7,418.7,260.8,418.6,260.7z M418.5,238.8l0.3,0.1c-0.1,0.1,0,0.1-0.1,0.2c0,0-0.1,0.1-0.1,0.1V239h-0.2L418.5,238.8
			L418.5,238.8z M417.4,256c0.4,0.1,0.5,0.1,0.8,0.2c0.1,0.4,0.2,0.8,0.3,1.2c-0.1,0.1,0,0-0.1,0.2c-0.4,0-0.5-0.1-0.8,0
			c-0.2-0.3-0.3-0.8-0.5-1C417.2,256.2,417.2,256.3,417.4,256z M417.1,247.9c-0.3,0.9-2.9,2.3-3.3,0.9c-0.2-0.3-0.1-0.7,0-1
			C414.8,248,416.2,247.9,417.1,247.9z M413.2,242.6c-0.5-0.1-1.6-1.3-1.8-1.7h-0.1v-0.2c0.3,0,0.5,0,0.7-0.2
			c0.8,0.1,1.2,0.7,1.9,0.5c0.3,0.2,0.6,0.6,1,0.7c0.6,0.3,1.2,0.3,1.5,0.9C415.3,242.3,413.9,242.8,413.2,242.6z M406.2,234
			c0.7,0.2,1.4,0.7,2.1,1.1h0.4c0.1,0,0.1,0.3,0.2,0.3h0.4c0.4,0.2,0.9,0.5,1.2,0.7h0.6c0.5,0.2,0.9,0.7,1.4,0.8
			c0.8,0.3,1.4,0.2,2.1,0.4c0.5,0.1,0.9,0.5,1.5,0.5c-0.1,0.1-0.4,0-0.6,0.1c-0.2,0.1-3.4,0.8-3.9,0.7c-0.5-0.2-0.8-0.7-1.5-0.7
			c-0.1-0.6-1.3-1-1.8-1.3c-0.1-0.1-0.8-0.9-0.8-1c0-0.1-0.1-0.3-0.1-0.4c-0.2-0.2-0.7-0.2-0.9-0.4c-0.2-0.2-0.2-0.4-0.3-0.5
			L406.2,234L406.2,234z M399.9,234.9c-0.1-0.1-0.2-0.1-0.3-0.2c-0.3-0.4-0.5-1.3-0.3-2c0.2-0.8,0.8-1.2,1.2-1.7
			c0.2,0,0.2,0,0.2-0.1c1.4,0.1,1.9,1.5,2.6,2.5c0.2,0.3,0.5,0.4,0.7,0.7c0.6,0.6,0.7,1.5,1.2,2.2c0.2,0.3,0.6,0.5,0.7,0.8
			c0.3,0.5,0.3,1.1,0.6,1.6c-0.1,0.1,0,0.1-0.1,0.2c0,0-3,0.1-3.9,0.1c-0.7-0.7-1.1-1.7-1.6-2.6c-0.1-0.2-0.5-0.3-0.6-0.5
			C400.1,235.5,400.2,235.2,399.9,234.9z M400.5,254.5c0.3,0,0.6,0,0.8-0.2c0.4,0.1,0.8,0.1,1.2,0.2c-0.2,0.4-1,0.5-1.3,0.7
			c0,0.1-0.1,0.2-0.1,0.2c-0.2,0.1-0.6-0.2-0.9,0h-0.4C400.1,255.1,400.4,254.8,400.5,254.5z M399.2,257.2c0,0,1.2-0.3,1.2-0.3
			c0.2,0.1,0.3,0.2,0.6,0.1h0.4c-0.2,0.4-2.4,1.2-2.9,1.4c0,0.2,0,0.2,0.1,0.3v0.1c-0.5-0.2-0.6,0-1.1,0c0.1-0.6,0.5-0.9,1.1-1.1
			c0-0.3-0.1-0.4-0.1-0.5C398.7,256.9,399.1,256.9,399.2,257.2z M394,259.6c-0.2,0-0.3,0-0.4,0.1c-0.3-0.1-0.3-0.1-0.3-0.3
			c-0.2,0-0.2,0-0.3,0.1h-0.2c0.2-0.2,0.6-0.6,0.8-0.7h0.3c0.1-0.1,0.1-0.4,0.2-0.5c0.2-0.2,0.6-0.2,0.9-0.4
			c0.1-0.2,0.3-0.4,0.4-0.6c0.3-0.2,0.7-0.2,1-0.4c0.1,0.1,0,0,0,0.1C396.1,258.1,394.7,258.6,394,259.6z M396.2,264.8
			c-0.2,0.5-0.6,0.6-0.9,1c-0.3,0.5-0.5,1-0.9,1.4c-0.4,0.4-1,0.8-1.5,1.2c-0.3,0.3-0.5,0.8-0.7,1.2c-0.2,0.2-0.6,0.3-0.7,0.5
			c-0.5,0.6-1,1.3-1.5,1.9v0.1h-0.1c0.1-0.8,0.7-1.3,1.1-1.8c0.3-0.5,0.3-0.9,0.6-1.4c0.8-1.3,1.6-2.6,2.4-4c0.2,0,0.4,0,0.5-0.1
			C395,264.6,395.4,264.7,396.2,264.8z M395.8,252.1c0.1-0.2,0.1-0.4,0.2-0.6c0.5,0.1,0.8,0.4,1.3,0.6c-0.1,0.4-0.4,0.5-0.8,0.6
			C396.2,252.4,396,252.2,395.8,252.1z M396.4,263.5c0.7-0.3,1-0.4,1.4-1.1h0.2c-0.3,0.4-0.6,0.7-0.8,1.2
			C397,263.6,396.7,263.6,396.4,263.5L396.4,263.5L396.4,263.5z M398.1,242.7L398.1,242.7c-0.2,0.2-0.2,0.2-0.3,0.3
			c-0.3-0.2-0.9-0.9-1.1-1.2C397.3,242.1,397.6,242.5,398.1,242.7z M398.1,246.1c-0.1,0.4-0.4,0.6-0.6,1c-0.9,0-2-0.2-2.4-0.2v-0.4
			c-0.6-0.3-0.9-0.7-1.4-1v-0.3C394.7,245.3,397.5,245.5,398.1,246.1z M393.6,236c-0.1-0.1-0.1-0.1-0.1-0.2c0.4,0.2,0.9,0.5,1.3,0.7
			C394.6,236.6,393.8,236.3,393.6,236z M393.4,250.4c0.1,0,0.4,0,0.4,0c0.4,0.1,0.8,0.5,1.2,0.7l-0.2,0.2v0.1
			c-0.5-0.2-0.8-0.7-1.3-0.8V250.4z M392.3,251.7c0.6,0.3,1,0.9,1.6,1.1v0.1c-0.2,0.1-0.4,0.3-0.6,0.6c-0.4,0-1,0-1.2,0.1H392
			C391.9,252.8,392,252.3,392.3,251.7z M390,244.4c0.8,0.1,1.2,1.1,1.8,1.6c0,0.2,0,0.4-0.1,0.5v0.2c-0.8-0.1-1.2-0.5-1.8-0.7
			c0-0.1-0.1-0.3-0.1-0.4c-0.2,0-0.2,0-0.2,0.1h-0.1c-0.1-0.3-0.2-0.5-0.2-1C389.6,244.5,389.8,244.5,390,244.4z M390.9,261h0.5
			l0.2,0.2c-0.3,0.5-0.9,0.6-1.3,1h-0.1l0.3-0.7c0.1-0.1,0.3,0,0.3-0.1C391,261.3,390.9,261.1,390.9,261z M389.5,251.7
			c0.2-0.2,0.6-0.3,1-0.3c0,0.8-0.4,1.2-0.4,2.1c-0.4-0.1-0.6-0.4-0.9-0.5C389.1,252.5,389.2,252,389.5,251.7z M387.9,249.5h0.2
			c-0.1,0.6-0.5,0.6-0.7,0.9h-0.2c0-0.1-0.1-0.1-0.1-0.2l-0.1-0.1C387.2,250,387.7,249.8,387.9,249.5z M387,261.4
			c-0.1,0.7-0.7,0.6-1.1,1.1h-0.2C386,262,386.6,261.8,387,261.4L387,261.4z M384.2,254.3h0.3c0,0,0.1,0.1,0.1,0.1
			c-0.1,0.1-0.3,0.1-0.3,0.2C384.1,254.5,384.1,254.6,384.2,254.3z M383.9,251.3L383.9,251.3c0.1-0.4,0.7-0.4,1.2-0.4
			c0,0.3,0,0.6-0.1,0.7C384.8,251.7,384.1,251.4,383.9,251.3z M384.9,263.9c0.5,0,0.6,0.1,0.9,0.2c-0.3,0.2-0.7,0.1-0.9,0.3h-0.5
			C384.5,264.1,384.7,264.1,384.9,263.9z M385.7,245.6h-0.7v-0.1c0.1-0.1,0.1,0,0.2-0.1h0.5V245.6z M378.6,236
			c0.2-0.1,0.4-0.1,0.6-0.2c2.6,0.6,4.8,2.8,6.5,4.4v0.1c-1.4,0.1-3-0.2-4.3-0.7c-0.2,0-0.5-0.1-0.7-0.1c-0.1,0-0.1-0.3-0.2-0.3
			c-0.4-0.4-0.8-0.8-1.2-1.2c-0.1-0.1-0.3-0.1-0.4-0.2c-0.2-0.2-0.2-0.8-0.3-1C378.5,236.4,378.5,236.1,378.6,236z M380.1,261.3
			c-0.2-0.4-0.6-0.4-0.8-0.7c-0.1-0.1-0.1,0-0.2-0.1c0.6-0.3,2.8-1.1,3-1.6c0.3,0.1,0.5,0.2,0.9,0.2c-0.1,0.1,0,0.1-0.1,0.2
			C382.9,259.6,380.5,261.1,380.1,261.3z M382.1,269.7L382.1,269.7c-0.4,0.4-1,0.8-1.3,1.2c-0.1,0.1-0.2,0.3-0.2,0.4
			c-0.6,0.5-1.2,0.8-1.7,1.2c-0.2,0.2-0.3,0.5-0.5,0.7H378c-0.1,0.1-0.1,0.3-0.2,0.4c-0.4,0.3-0.9,0.4-1.3,0.7
			c-0.3,0.2-0.6,0.6-0.9,0.8c-1,0.7-2.3,0.8-3,1.7h-0.1c0.3-0.5,1.8-2,2.2-2.3c0.1-0.1,0.2,0,0.3-0.1v-0.2c0.1,0,0.2-0.1,0.2-0.1
			c0.1-0.1,0.1-0.4,0.2-0.5c0.2-0.2,0.6-0.3,0.7-0.6c0.1-0.2,0.1-0.5,0.2-0.6c0.2-0.2,0.7-0.2,0.9-0.4c0.2-0.2,0.3-0.7,0.6-0.8
			c0.3,0,0.5-0.1,0.8-0.1c0.6-0.2,2.6-1,2.9-1.5C381.7,269.7,381.9,269.7,382.1,269.7z M381.1,248.8c-0.3-0.3-0.7-0.5-1-0.9
			c0.7,0.1,1.4,0.3,1.9,0.5C381.8,248.6,381.4,248.7,381.1,248.8z M382.7,256.1c0.1,0.1,0.1,0,0.2,0.1c-0.3,0.2-0.8,0.3-1,0.6
			c-0.4,0-0.5,0-0.7-0.2h-0.1v-0.1C381.6,256.4,382.4,256.4,382.7,256.1z M380.8,243c1.1,0.1,1.6,0.6,2.4,1.1v0.1
			C382.4,244.1,381.3,243.5,380.8,243z M378.1,243.2c0.9,0.1,1.9,0.6,2.3,1.2c-0.8-0.3-2.1-0.3-2.6-0.9c0,0-0.1-0.1-0.1-0.1
			C377.8,243.3,377.9,243.3,378.1,243.2z M376.7,241.5c0.2,0.1,0.4,0.1,0.5,0.2h0.1c-0.1,0.2-0.3,0.2-0.5,0.4h-0.1V241.5z
			 M376.1,247.2c0.1-0.1,0.2-0.3,0.3-0.4c0.6,0.2,1.2,1.7,1.7,2.1v0.1c-0.9,0-1.7-0.2-2.1-0.8C375.9,247.9,376.1,247.4,376.1,247.2z
			 M375.4,262.5c0.2-0.6,1.3-0.8,1.8-1.2c0.2,0,0.2,0,0.2,0.1c0.2,0.1,0.2,0,0.2,0.2c0,0,0.1,0.1,0.1,0.1c-0.4,0.3-0.9,0.7-1.3,1
			c-0.3,0.2-0.7,0.1-1,0.3h-0.3C375.3,262.8,375.3,262.6,375.4,262.5z M375,241.1c0.2,0.3,0.1,1.1,0,1.2v0.1
			C374.8,242.1,374.9,241.6,375,241.1z M375.9,266.2c0.4-0.3,0.8-0.4,1.2-0.7c0.1-0.1,0.2-0.2,0.2-0.3c0.3-0.1,0.3,0,0.5-0.2h0.2
			c0.1,0.1,0.1,0.1,0.2,0.2c-0.5,1.4-1.8,2.3-2.9,3.1c-0.1,0.1-0.1,0.3-0.2,0.3c-0.2,0.1-0.4,0.1-0.6,0.2h-0.2
			C374.8,268.2,375.4,266.5,375.9,266.2z M374.6,270c0.1,0.1,0.1,0,0.2,0.1c-0.3,0.2-0.8,0.6-0.9,0.9h-0.2
			C373.9,270.5,374.3,270.5,374.6,270z M373.9,267.5L373.9,267.5c-0.6,1.3-0.7,2.7-2.4,2.9c0.1-0.3,1-2,1.2-2.1
			C373.1,267.9,373.7,267.8,373.9,267.5z M373.4,255.5c0,0.2,0,0.2-0.1,0.2v0.2c-0.2-0.1-0.4-0.2-0.6-0.3h-0.2
			C372.8,255.3,373,255.4,373.4,255.5z M371.9,255.1c0.2,0.1,0.1,0.2,0.5,0.2c-0.5,0.3-1.6,0.1-2,0.5c-0.4,0-0.4-0.1-0.7-0.2
			c0.3-0.2,0.6-0.3,0.9-0.5C371,255.2,371.6,255,371.9,255.1z M369.6,247.6c0.1,0,0.2,0.1,0.4,0.1c-0.1,0.1-0.2,0.1-0.4,0.1V247.6z
			 M367.6,249.5c0.2,0,0.4,0.1,0.7,0.1c0,0.1,0.1,0.2,0.1,0.2c0,0,0.1,0.1,0.1,0.1h-0.1c-0.2,0.1-0.4-0.2-0.9-0.2
			C367.5,249.6,367.5,249.7,367.6,249.5z M367,271.1C367.1,271.2,367.1,271.1,367,271.1c-0.1,0.3-0.1,0.3-0.2,0.4h-0.1
			C366.8,271.3,366.9,271.3,367,271.1z M367.2,275.3c0.1,0,0.1,0.1,0.3,0.1v-0.2c0.4,0,0.5-0.2,0.6-0.6h0.3v-0.4
			c0.7-0.5,1-1.4,1.7-1.8c0.6-0.4,1.7-0.5,2.1-1h0.1c-0.1,0.2-0.3,0.2-0.4,0.4c-0.4,0.6-0.4,1.3-0.7,1.9c-0.3,0.5-1.1,0.9-1.6,1.3
			c-0.1,0.2-0.3,0.4-0.4,0.7h-0.3c-0.2,0.1-0.4,0.4-0.6,0.5c-0.2,0.1-0.5,0-0.7,0.2c-0.1,0.2-0.2,0.4-0.3,0.6
			c-0.3,0.2-0.8,0.3-1,0.4c-0.3,0.3-0.3,0.6-0.9,0.8c-0.1,0.1-0.3,0-0.5-0.1c-0.1-0.1,0,0-0.1-0.2c0.3-0.3,1.1-1.2,1.2-1.6
			c0.1,0,0.3,0.1,0.4,0.1C366.6,275.7,367.1,275.8,367.2,275.3z M364.7,262.6c-0.1,0-0.3,0-0.4-0.1c-0.2-0.1-0.1,0-0.1-0.2h0.9v0.1
			C364.9,262.5,364.9,262.6,364.7,262.6z M366.3,272.3c0.1-0.4,0.2-0.5,0.3-0.7c0.1,0.2-0.1,0.4-0.2,0.7
			C366.4,272.3,366.4,272.3,366.3,272.3L366.3,272.3z M365,259.7c0.7,0.1,0.9,0.2,1.6,0.2c-0.7,0.5-1.8-0.1-2.6,0.4h-0.4v-0.1
			C364,260.1,364.6,260,365,259.7z M364.1,256h0.3c-0.1,0.1,0,0.1-0.1,0.2c-0.2,0.3-0.2-0.1-0.6,0.1c0,0-0.9,0.8-0.9,0.8
			c-0.3-0.1-0.2-0.1-0.5-0.2v0.4l-0.2,0.2h-0.2C362,257,363.2,255.4,364.1,256z M363.6,281.4c0.3-0.2,0.7-0.2,0.9-0.5
			c0.5,0.2,1,1.1,1.8,0.6h0.5c-0.2,0.4-0.5,0.7-0.7,1c-0.2,0.3-0.1,0.5-0.2,0.7c-0.1,0.1-0.4,0.3-0.5,0.4c-0.1,0.2-0.1,0.5-0.2,0.7
			c-0.2,0.1-0.3,0.3-0.5,0.4c-0.2,0.3-0.3,0.7-0.5,1.1c-0.5,0.9-1.4,1.6-2.1,2.4c-0.2,0.2-0.2,0.5-0.3,0.7c-0.6,0.7-1.2,1.4-1.8,2.1
			c-0.6-0.8,0.1-1.5-0.1-2.2c-0.6-2,1.5-4,1.6-6.1C362.4,282.3,363,281.9,363.6,281.4z M359.6,262.7v-0.2c0.7,0.2,1.7,0.7,2.1,1.3
			C361,263.5,360.4,262.9,359.6,262.7z M358.2,256.4c0.1-0.1,0.1-0.1,0.2-0.2c1-0.1,2-0.2,3-0.2c-0.1,0.6-0.5,0.8-0.7,1.2
			C359.9,257,359.1,256.7,358.2,256.4L358.2,256.4L358.2,256.4z M357.6,257.7c0.6,0.1,1,0.3,1.4,0.5c-0.3,0.2-0.9,0.1-1.2,0.2
			c-0.2,0-0.4,0-0.5-0.1C357.4,258,357.5,258,357.6,257.7z M359,263.9v0.2c-0.2,0-0.2,0-0.2-0.1c-0.2-0.1-0.1,0-0.1-0.2L359,263.9
			C358.9,263.8,358.9,263.8,359,263.9z M357.1,262.9c0.2,0.1,0.2,0.1,0.2,0.3c0.1,0.1,0,0,0,0.1c-0.1,0.3-0.3,0.3-0.5,0.5
			c-0.6,0-1.1-0.1-1.4-0.4c-0.1-0.1-0.1-0.1-0.1-0.2c-0.2,0-0.2,0-0.2-0.1c0,0-0.1-0.1-0.1-0.1C355.7,262.8,356.4,262.4,357.1,262.9
			z M356.9,304.2v0.2h-0.1L356.9,304.2L356.9,304.2z M356.5,278.2L356.5,278.2c-0.2-0.1-0.1,0.1,0-0.2
			C356.5,278.1,356.6,278.1,356.5,278.2z M354.7,260.1h-0.2c0.1-0.1,0.4-0.1,0.5-0.2c0.3,0.1,0.8,0.3,1.2,0.3
			C355.8,260.4,355,260.4,354.7,260.1z M350.7,258H350c-0.3-0.1-0.3-0.3-0.7-0.3v-0.1c0.7-0.3,1.5-0.7,2.1-0.9
			c0.7-0.2,1.3,0,1.7-0.5c0.5,0,1.1-0.1,1.4,0.1c0.5,0.2,0.9,0.7,1.5,0.7c-0.1,0.5-0.5,0.8-0.5,1.2
			C354.2,258.8,352.1,258.3,350.7,258z M353,260.7v0.2c-0.3,0-0.3,0-0.4-0.2H353z M351.1,263.9L351.1,263.9c0.1-0.2,0.5-0.2,0.7-0.3
			c1.3,0,2,1.1,3,1.6v0.2C353.8,265.2,351.5,264.3,351.1,263.9z M351.7,281.7L351.7,281.7c0.1-0.4,0.4-0.6,0.6-1
			c0.1,0,0.2,0.1,0.2,0.1C352.4,281.4,352,281.4,351.7,281.7z M348.2,270h-0.6V270c1-0.2,1.2-0.9,2.3-0.9c0.1-0.3,0.2-0.5,0.2-0.8
			h0.9c0.3-0.1,0.7-0.4,1-0.6c0.4-0.2,1-0.2,1.4-0.5c0.2,0,0.4,0.1,0.5,0.2c0.6,0,0.7,0.1,1,0.3c-0.1,0.1-0.3,0.2-0.3,0.2
			c-0.2,0.4,0,1.1-0.3,1.3l-1.2,0.2C352.2,269.8,349.1,270.6,348.2,270z M353.5,279.6c-0.2-0.1-0.3-0.1-0.6-0.2v-0.1
			c0.3-0.1,0.5-0.2,0.7-0.4l0.2,0.1C353.7,279.2,353.6,279.3,353.5,279.6z M353.5,273.4c0.2,0.1,0.1,0,0.2,0.2
			C353.7,273.5,353.6,273.5,353.5,273.4z M354,273.7h0.2C354.1,273.8,354.2,273.8,354,273.7z M354.5,274c-0.2-0.1-0.1,0-0.2-0.2h0.2
			V274z M355.3,272.3c-0.4-0.1-1.6-0.2-1.8-0.3h-0.2v-0.1c0.4,0,0.8-0.1,1,0c0.3-0.1,0.2,0,0.3-0.2c0.3,0.1,0.5,0.2,0.7,0h0.2
			C355.5,272,355.4,272.1,355.3,272.3z M367,353c-0.2-0.3-0.2-0.6-0.4-0.9c-0.3-0.5-1-1-1.4-1.4c-0.2-0.2-0.2-0.5-0.3-0.7
			c-0.3-0.5-1-0.9-1.3-1.4c-0.5-0.8-0.9-1.5-1.5-2.3c-0.2-0.3-0.9-0.7-1.1-1v-0.6c-0.3-0.9-0.9-1.7-1.2-2.7
			c-0.2-0.6-0.2-1.2-0.3-1.6c-0.1-0.5,0.3-0.9,0.2-1.2c0-0.1-0.3-0.4-0.3-0.5c-0.1-0.5-0.1-1.4-0.2-2.1c0-0.5-0.1-1-0.1-1.5
			c-0.1,0-0.2-0.1-0.2-0.1c-0.2-0.2-0.2-0.8-0.2-1.1c0-0.2,0.1-0.4,0.1-0.7c0-0.5-0.1-1.3-0.2-1.7v-1.6c-0.3-1-0.3-2.4-0.5-3.5
			c-0.1-0.4,0.2-1,0.2-1.2c-0.1-0.5-0.3-1.1-0.5-1.6c0.1-0.3,0-1,0-1.2c0-0.4,0.1-0.8,0.1-1.2c-0.2-0.8-0.3-1.9-0.5-2.7v-1
			c-0.1-0.3-0.3-1.1-0.3-1.3c0-0.5,0.2-0.8-0.1-1.2c0-1.3-0.8-0.9-1.7-1.3c-0.3-0.1-2-1.1-2.1-1.3c0-0.2-0.1-0.4-0.1-0.7l-0.5-0.5
			v-0.7c-0.4-1.7,0-4.5,1.2-5.3c0.3-0.2,1.4-0.3,1.7-0.4v-0.7c-0.2-0.2-0.4-0.4-0.6-0.7c-4.7-1.1-5.3,7.6-3.2,10.3
			c0.1,0.2,1.8,1.3,2,1.4h0.7c0.4,0.2,0.7,0.7,0.8,1.2c-1,0.1-3.1-0.2-3.8-0.7c-0.7-0.5-1.2-1.3-1.9-1.8c0-0.2,0.1-0.5,0.1-0.7
			c-0.1-0.1-0.4-0.2-0.5-0.3c-0.2-0.3-0.4-0.9-0.4-1.1v-1c-0.2-0.7-0.3-3.7,0-4.2l0.4-0.4c-0.1-0.3-0.1-0.5-0.2-0.8
			c0.3-1.4,0.9-2.7,1.6-3.8c0.5,0,0.9-0.3,1.3-0.3c0.3,0,0.3,0.3,0.7,0.2c0,0,0.4-0.3,0.5-0.2c1,0,1.7,0.3,2.6,0.5l0.2,1
			c-0.1,0.4-0.3,1-0.2,1.6c0.1,0.5,0.2,1.5,0.2,1.9c0,0.3-0.2,0.2-0.2,0.5c0.3,1.6,0.4,2.9,0.5,4.4c0.2,0.1,0.4,0.3,0.5,0.3
			c0.3,0.1,0.5-0.2,0.7,0.1c1-0.2,0.9-2.1,1.2-3.2c0.1-0.6,0-1.2,0.2-2c0.1-0.2,0.4-1.2,0.3-1.2c0-0.1-0.2-0.1-0.2-0.2
			c-0.3-0.5,0.2-1.7,0-2.1c-0.7-1.8-0.6-3.8-0.6-5.9c0.2,0.3,0,0.5,0.1,0.9c0.1,0.3,0.4,0.9,0.5,1.2v0.7c0.7,2.5,0.9,5.5,1.9,7.8
			c0.3,0.8,0,1.3,0.5,2.1c0.2,0.2,0.3,0.3,0.7,0.4c0.3,0.2,1-0.2,1.1-0.6c0.2-0.3-0.1-1.4-0.2-1.8v-1.1c-0.1-0.4-0.2-1.3-0.3-1.6
			c-0.4-1.2-0.2-2.4-0.6-3.6c-0.6-2.3-1.5-5.1-1.4-7.8c0.9-0.9,1.5-2,2.2-3c0.2-0.3,0.5-0.5,0.7-0.8h0.3c0.1-1.3,1.2-1.9,1.7-2.7
			c0.3-0.4,0.4-0.9,0.7-1.3l0.6-0.6c0-0.2,0.1-0.3,0.1-0.5c0.1,0,0.2-0.1,0.2-0.1c0.1-0.2,0.1-0.3,0.2-0.5c0.1-0.2,0.5-0.4,0.6-0.7
			c0.2-0.5,0.3-1.1,0.6-1.5c0.2-0.1,0.3-0.3,0.5-0.4c0.1-0.3,0.2-0.5,0.2-0.8c0.5-0.5,1.8-0.8,2.5-1.2c0.2-0.1,0.4-0.4,0.6-0.5
			c0.2,0,0.4-0.1,0.6-0.1c0.2-0.1,0.5-0.5,0.7-0.6c0.3-0.2,0.6-0.1,0.8-0.2c0.5-0.3,1.1-0.7,1.6-1.1l0.5-0.5h0.3
			c0.3-0.2,0.5-0.6,0.8-0.7c0.5-0.3,0.9-0.4,1.3-0.7c0.2-0.1,0.2-0.4,0.4-0.6c0.1,0,0.3-0.1,0.4-0.1c0.3-0.2,1.6-1.3,1.8-1.6h0.2
			v-0.2c0.8-0.4,1.2-1,1.6-1.6c0.2-0.1,0.4-0.2,0.6-0.3c0.2-0.2,0.2-0.4,0.3-0.6c0.6-0.7,1.3-1.1,1.7-2.1c0,0,0.1-0.1,0.1-0.1h0.1
			c0,0.8-0.2,1.5,0.2,2.1c0.3,0,0.5,0.1,0.7,0c0.7-0.2,0.7-1.1,1-1.7l0.3-0.3v-0.6c0.1-0.2,0.5-0.4,0.6-0.7c0.2-0.5,0.2-0.9,0.4-1.3
			c0.6-1.1,1.9-0.9,3.1-0.9c-0.1,1-1.4,2.8-1.9,3.5c-0.2,0.3-0.1,0.6-0.2,0.9c-0.2,0.1-0.4,0.3-0.6,0.4c0,0.2-0.1,0.3-0.1,0.5
			c-0.1,0-0.2,0.1-0.2,0.1c-0.2,0.2-0.1,0.5-0.2,0.7c-0.1,0.1-0.4,0.3-0.5,0.4c-0.2,0.4-0.2,0.9-0.4,1.2c-0.3,0.4-0.7,0.9-1,1.4
			c-0.1,0.2,0,0.5-0.1,0.7c0,0.1-0.3,0.2-0.3,0.2c-0.1,0.2,0,0.4-0.2,0.6c-0.1,0-0.2,0.1-0.2,0.1c-0.3,0.5-0.2,1-0.7,1.4v0.8
			l0.6,0.6c1.1,0,1.4-0.9,2-1.5c0.7-0.8,1.3-1.5,1.9-2.4c0.3-0.4,0.7-0.7,1-1.1h0.2c0-0.6,1.3-2,1.8-2.1c0.1-1,1.4-1.5,2-2.1
			c0.2-0.2-0.1-0.4,0-0.6c0.3-0.2,0.6-0.5,0.9-0.7c0.7-1,1.6-1.8,2.2-2.8c0.8-0.1,1.6,0.1,2.5,0.1c-0.3,1.7-1.1,3.5-1.7,4.9
			c0,0.4-0.1,0.7-0.1,1.1c-0.2,0.6-0.6,2.1-1,2.6c0,0.9,0.3,0.9,0.7,1.3h0.7c0.4-0.2,1.9-2.4,2.2-2.8c0.3-0.4,0.3-0.9,0.7-1.2
			c0.9-0.6,2.5-1.4,3-2.1h0.1c-0.3,1.8-2.1,4-0.7,5.9c0.5,0,0.8,0.3,1.3,0.2c0.2,0,2-1.5,2.1-1.6v-0.6c0.1-0.2,0.4-0.3,0.5-0.4
			c0.2-0.3-0.1-0.5,0.2-0.8c0.5-0.8,1.5-1.6,1.7-2.6h0.1c0.6,1.1,1.3,2.1,2,3.1c0.2,0.3,0.7,0.4,1,0.7c0.4,0,1.2,0.1,1.4,0
			c0.2-0.1,0.2-0.3,0.6-0.3c0,0.5-0.1,1.3,0.2,1.6c0.2,0.3,0.7,0.1,1,0.3h0.6c0.2-0.1,0.1-0.5,0.2-0.7c0.1-0.1,0.2-0.1,0.3-0.2
			c0.1-0.1,0-0.5,0.1-0.7c0.3-0.7,0.9-1.5,1.1-2.3c0.7,0.4,1.4,2.4,1.9,3.1c0.3,0.4,0.7,0.5,1.1,0.8c0.1,0,0.6,1.1,0.7,1.2
			c0.2,0.2,0.5,0.4,0.7,0.6c0.3,0.4,1.7,2,2.5,1.6c0.6,0,0.4-0.2,0.7-0.4c1.3-1.1,0.2-2.7,0.1-4h-0.2c-0.2-0.4,0-1.2-0.2-1.6
			c-0.1-0.2-0.3-0.2-0.3-0.4c0.5-0.4,1.1-0.9,1.6-1.2c0.3-0.1,0.3,0,0.6-0.2h0.5c0.2,0.1,0.2,0.6,0.3,0.7c0.5,0.7,1.1,1.4,1.6,2.1
			c0.9,0,0.9-0.3,1.4-0.7c0,0,0.1-0.1,0.1-0.1c0.3,0.4,1,0.9,1.4,1.2c0,0.6-0.3,0.7-0.3,1.3c-1.2,0-3.2,0.5-3.9,0.1
			c-0.5,0-0.9,0-1.2,0.2c0,0.7,0.5,1.2,1.2,1c0,0,0.3-0.2,0.3-0.2c0,0,0.3,0.2,0.3,0.2c0.1,0,0.2-0.2,0.3-0.1v0.2
			c0.2,0.1,2.1-0.1,2.8-0.1c0,0.4-0.2,1.6-0.3,1.8c-0.1,0.2-0.1,0.2-0.2,0.3c-1.4-0.2-1.8-1.5-3.2-1.6v-0.3h-0.1
			c-0.1,0.2-0.1,0.3-0.2,0.6h0.2c0.3,0.6,0.6,0.8,0.6,1.4c0.7-0.1,1.8,0.9,2.4,1.2c0,0.6-0.5,2-0.4,2.3c0,0.2,0.2,0.3,0.2,0.6
			c0.3,0,0.7,0.2,0.8,0.2c0.3-0.1,0.4-0.1,0.6-0.2c0.2-0.4,0.2-1.4,0.2-2c1.4,0.1,2.5,1.1,3.6,1.6c-0.1,1.6-1.8,3.9-2.6,5.2
			c-0.4,0.7-0.5,1.6-1,2.1c0,0.6,0.3,0.6,0.6,0.9c0.1-0.1,0.1,0,0.2-0.1c1.1-0.1,1.1-1.2,1.6-2c0.2-0.2,0.4-0.4,0.6-0.6
			c0-0.3,0.1-0.5,0.1-0.8c0,0,0.4-0.7,0.5-0.7c0.2-0.2,0.4-0.4,0.6-0.6c0.5-0.9,0.6-1.9,1.4-2.5c0.1-0.1,0,0,0.2-0.1
			c0.1,0.1,0.2,0.3,0.2,0.4c0.1,0,0,0.1,0.2-0.1c0.9,0.2,1.3,1,2,1.3v0.3c-0.5-0.2-1.2-0.8-1.5-1.2c-0.2,0-0.2,0.1-0.3,0
			c-0.3,0-0.4,0.1-0.6,0.2c0,0.8,0.7,2.1,1.2,2.8c0.2,0.4,0.5,0.4,0.6,1h0.2c0.2,0.3,0.7,0.9,0.5,1.2v0.7c-0.5-0.2-1.6-0.8-2.1-0.4
			c-0.1,0.1-0.1,0.1-0.2,0.3c-0.2,0.5,0.4,0.9,0.7,1.2c0.4,0.6,0.6,1.1,1,1.6c0.2,0.3,0.5,0.4,0.7,0.8c0.3,0.6-0.4,3-0.1,3.5
			c0,0.3,0,0.3-0.2,0.4c-0.1,1.8-0.1,4.2-0.5,5.9c-0.1,0.5,0,1-0.1,1.3c0.2,0.1,0.6,0.2,0.7,0.2c1-0.2,0.5-0.5,0.7-1.1
			c0.1-0.2,0.3-0.4,0.4-0.7c0.1-0.4,0.1-0.9,0.2-1.3c0.2-0.6,0.6-1.5,0.7-2c0.1-0.3-0.4-0.5-0.2-0.9c0.1,0,0.2-0.1,0.2-0.1
			c0.1-0.1,0.4-0.7,0.4-0.7c0-0.2-0.1-0.4-0.1-0.6c0.1-0.6,0.4-1.1,0.7-1.5c0.1,0.2,0,0.6,0.2,1.1c0.2,0.8,0.8,2.2,0.4,3.4
			c-0.3,0.9-0.7,1.8-1.2,2.6c-0.1,0.1-0.3,0.2-0.4,0.3c-0.3,0.6-0.4,1.2-0.8,1.7c-0.3,0.4-0.8,0.8-1,1.2c0,0.2-0.1,0.4-0.1,0.6
			l-0.9,0.9c-0.4,0.6-0.6,1.3-1.1,1.9c0,0.2,0.1,0.4,0.1,0.6c0,0,0.1,0.1,0.1,0.1c0.3,0,0.6-0.1,0.8-0.1c0.4-0.8,1.1-1.3,1.7-1.9
			c0.2-0.2,0.4-0.5,0.6-0.7v-0.1h0.2c-0.1,0.5-0.9,3-1.2,3.3c0,0.4,0.1,0.5,0.2,0.7c0.3,0,0.6,0.1,0.8,0.1c0.2-0.2,0.5-0.3,0.7-0.5
			c0.5-0.8,0.6-2.3,1.2-3v-0.1h0.2c-0.2,1-0.1,2-0.3,3c-0.1,0.5,0.1,1.3,0.1,1.6c0,0.3-0.3,0.8-0.4,1.2c-0.2,0.9,0.3,1.6,0,2.6
			c0,0.1-0.2,0.4-0.2,0.5c-0.2,0.6,0,1.5-0.1,2v1.5c-0.1,0.2-0.2,0.6-0.2,0.8c-0.1,0.6,0.2,1.3,0,2c-0.1,0.3-0.3,1.1-0.3,1.6
			c-0.1,0.4,0.2,1.2,0.1,1.7c0,0.1-0.2,0.4-0.2,0.6c0,0.2,0.2,0.6,0.1,0.9c-0.2,0.8-0.3,1.6-0.5,2.5v3c-0.2,0.8-0.2,2.1-0.4,2.7v1.2
			c-0.6,2.3-0.6,4.7-1.2,6.9c-0.2,0.7-0.1,1.2-0.3,1.8c-0.4,1-1,1.9-1.6,2.7c-0.4,0.6-0.6,1.4-1.2,1.9c-0.1,0.1-0.3,0-0.3,0.1
			c-0.2,0.2-0.2,0.6-0.4,0.8c-0.1,0.2-0.4,0.2-0.6,0.3c-0.3,0.3-0.3,0.8-0.7,1.1l-0.7,0.2c-0.4,0.3-0.6,0.8-0.9,1.2
			c-0.3,0.3-0.6,0.5-0.9,0.8c-0.1,0.1-0.1,0.3-0.2,0.3c-0.1,0-0.2-0.2-0.3-0.1c-0.5,0.3-0.8,0.9-1.2,1.3c-0.2,0.2-0.6,0.2-0.7,0.4
			c-1.1,1.1-2.1,2.2-3.4,3c-0.2,0.3-0.5,0.5-0.7,0.8c-0.6,0.4-1.1,0.6-1.6,1c-0.2,0.2-0.3,0.4-0.5,0.6c-0.2,0.1-0.3,0.1-0.5,0.2
			c0,0.1-0.1,0.3-0.1,0.4c-0.2,0.2-0.4,0.3-0.7,0.5c-0.1,0.1-0.1,0.4-0.2,0.5c-0.8,0.8-1.9,1.2-2.9,1.8c-0.8,0.5-1.5,1.3-2.2,1.9
			c-0.2,0-0.3,0.1-0.5,0.1c-0.5,0.3-1,0.9-1.6,1.2h-0.4c-0.5,0.2-1.1,1-1.6,1.2c-1,0.5-1.7,1.2-2.7,1.6c-0.5,0.2-0.9,0.1-1.4,0.2
			c-0.1,0-0.2,0.2-0.3,0.2h-0.8c-0.2,0.1-0.4,0.3-0.6,0.3c-0.2,0-0.4-0.1-0.6-0.1c-1.1,0.4-2.9,0.7-4.1,0.6c-0.1,0-0.7,0.2-0.8,0.2
			c-0.3-0.1-0.7-0.5-1-0.6c-0.2,0-0.5,0.1-0.7,0.1l-0.2-0.2c-0.6-0.2-0.7,0.1-1.2,0c-1.5-0.4-2.5-0.8-3.8-1.3h-0.5
			c-0.3-0.1-0.6-0.5-0.9-0.7c-0.3-0.1-0.6,0-0.8,0c-0.5-0.3-1.5-0.9-2.1-1.2c-0.4-0.1-0.6-0.1-0.7-0.2c-0.3-0.1-0.4-0.3-0.4-0.6
			c-0.2,0.1-0.2,0.1-0.3,0.1c-0.4,0-1.9-1-2.2-1.2c0-0.1-0.1-0.2-0.1-0.2h-0.4c-0.1-0.1-0.1-0.2-0.2-0.3c-0.3-0.1-0.5-0.1-0.8-0.2
			c-0.3-0.1-0.6-0.4-0.9-0.6c-0.4-0.2-0.9-0.1-1.2-0.2c-0.7-0.3-1.5-0.9-2.2-1.2c-0.2-0.1-0.5-0.1-0.7-0.2c0-0.1-0.1-0.2-0.1-0.2
			c-0.2-0.2-0.6-0.3-0.8-0.5v-0.2c-0.3-0.2-0.6-0.2-0.9-0.3c-0.2-0.1-0.5-0.5-0.7-0.6c-0.2-0.1-0.4,0-0.6-0.2v-0.2h-0.2
			c-0.1-0.1-0.2-0.4-0.3-0.5c-0.2,0-0.3-0.1-0.5-0.1c-0.3-0.2-0.5-0.6-0.7-0.7c-0.2,0-0.3-0.1-0.5-0.1c-0.1-0.1-1.1-0.8-1.2-0.9
			c-0.1-0.2-0.1-0.3-0.2-0.5c-0.2,0-0.3-0.1-0.5-0.1c-0.4-0.3-0.8-0.9-1.2-1.2c-0.5-0.3-0.7-0.4-1.1-0.7l-0.2,0.1
			c-0.1-0.1-0.2-0.4-0.3-0.5c-0.6-0.4-0.8-0.7-1.2-1.2h-0.1c-0.3,0-0.9-1-1.2-1.3L367,353z M433,390.1c-0.4-1.6-0.5-3.9-0.4-5.5
			c0.6,0.2,0.9,1.1,1.2,1.6c0.3,0.5,0.8,1.1,1,1.6c0.6,1.7-0.3,4.4-0.9,5.5h-0.2c-0.1-0.4-0.2-1-0.5-1.4c-0.1-0.1-0.2-0.2-0.3-0.2
			C432.8,391.4,433.1,390.6,433,390.1z M357.1,386.7c0.8-2,3.6-3.5,5.6-4.4c0.2-0.1,0.3-0.4,0.4-0.5c0.9-0.7,2.3-1.5,3.7-1.6
			c0,0.7-0.3,1.7-0.5,2.4c0,0.4,0.1,0.7,0.1,1.1c-0.2,1-0.2,1.9-0.5,2.9c-0.1,0.4-0.4,0.7-0.5,1.2v0.6c-0.2,0.7-0.6,1.5-0.7,2.2
			c-0.1,0.4,0.2,0.6,0,1c-0.2,0.4-0.6,1-0.7,1.5c0,0.3,0.1,0.6,0.1,0.9c-0.2,0.6-0.7,0.6-0.7,1.6c-0.9-0.1-1.3-0.6-1.9-0.9
			C359,393.6,355.6,390.2,357.1,386.7z M343.2,398.2c-0.1,0.2,0,0.6-0.1,0.7c-0.2,0.4-1,1-1.2,1.4c-0.4-0.1-0.7-0.3-0.9-0.5
			c-0.1-0.1,0.3-0.8,0.5-1c0.2-0.2,0.6-0.3,0.8-0.5c0.6-0.5,1.1-1.3,1.6-1.9c0.3-0.3,0.4-0.8,0.7-1.2c0.2-0.3,0.7-0.4,1-0.7
			c0.3-0.3,0.4-0.8,0.7-1c0.8-0.6,1.6-1.2,2.3-1.8c0.9-0.8,1.5-2,2.5-2.7c0.6-0.4,1.4-0.8,2.1-1.1c0.7-0.3,1.3-0.3,1.8-0.7
			c0.1,0.1,0.1,0.6-0.1,0.8c-0.3,0.7-1,0.3-1.6,0.7c-0.2,0.2-0.3,0.4-0.5,0.6c-1,0.6-2.5,1-3.3,1.8c-0.3,0.3-0.3,0.8-0.6,1.1
			c-0.2,0.1-0.5,0.1-0.7,0.2c-0.2,0.1-0.4,0.6-0.6,0.7c-0.3,0.3-0.7,0.3-1.1,0.6c-0.6,0.4-0.8,1.3-1.2,1.9c-0.1,0.2-0.4,0.3-0.6,0.4
			c-0.3,0.3-0.5,0.8-0.8,1.2C343.9,397.5,343.4,397.8,343.2,398.2z M347.7,401.5c-0.1,0.2-0.1,0.3-0.2,0.5c-0.1,0.1-0.3,0.2-0.4,0.2
			c-0.3,0.3-0.5,0.7-0.8,1c-0.7-0.1-1-0.6-1.5-0.9c0.3-1.6,1.9-2.8,2.7-3.9c0.3-0.4,0.4-0.8,0.7-1.2c0.2-0.2,0.6-0.4,0.7-0.7
			c0.2-0.3,0.3-0.7,0.6-0.9c0.4-0.4,1.2-0.6,1.6-1.1c0-0.1,0.1-0.3,0.1-0.4h0.1c0.1-0.2,1.1-1,1.3-1.2c0.3-0.2,0.7-0.2,1-0.4
			c0.3-0.2,0.6-0.6,0.9-0.7c0.3-0.2,0.7-0.2,1-0.4h0.2c0.1,0.2,0.2,0.4,0.4,0.5c-0.3,0.7-1,1-1.6,1.4c-0.1,0.1-0.1,0.3-0.2,0.4
			c-0.2,0-0.3,0.1-0.5,0.1c-0.2,0.1-1.5,1.1-1.6,1.2c-0.2,0.2-0.1,0.5-0.2,0.7c-0.2,0.1-0.5,0.3-0.7,0.4c-0.3,0.4-0.4,0.9-0.7,1.4
			c-0.2,0.3-0.6,0.4-0.8,0.6c-0.1,0.1-0.8,1-0.8,1l-0.2,0.7C348.5,400.4,348,401,347.7,401.5z M352.7,403.3
			c-0.7,0.9-1.2,2.6-2.1,3.2v0.1c-0.6-0.2-1.3-0.7-1.7-1.2h-0.1c0.3-0.7,1.2-1.4,1.6-2.1c0-0.2,0.1-0.3,0.1-0.5
			c0.1-0.1,0.2-0.2,0.3-0.2c0.2-0.3,0.2-0.6,0.3-0.8c0.1-0.1,0.3-0.1,0.3-0.2c0.2-0.2,0-0.6,0.2-0.8c0.1-0.2,0.5-0.2,0.6-0.3v-0.2
			c0.3-0.2,0.5-0.4,0.8-0.7c0.1-0.2,0.2-0.4,0.2-0.7c0.1-0.1,0.4-0.1,0.5-0.2c0.1-0.2,0.2-0.4,0.2-0.7c0.2-0.2,1-0.7,1.2-1
			c0.2-0.2,0.2-0.7,0.4-0.8c0.1,0,0.2,0.1,0.2,0.1c0.1-0.1,0.1-0.3,0.2-0.3c0.2-0.2,0.6-0.2,0.8-0.4c0.1-0.1,0.2-0.3,0.2-0.4
			c0.4-0.3,0.7-0.1,1.1-0.5c0.5,0.3,0.8,0.8,1.2,1.1c-0.1,1-1.8,1.6-2.3,2.3c-0.3,0.4-0.8,0.7-1,1c-0.1,0.2-0.1,0.4-0.3,0.6
			c-0.3,0.3-0.9,0.5-1.1,0.9c0,0.1-0.1,0.3-0.1,0.4c-0.4,0.6-1.1,1-1.4,1.6c0,0.2-0.1,0.3-0.1,0.5
			C353.1,403.1,352.8,403.1,352.7,403.3z M355.5,411.1L355.5,411.1c-0.8-0.3-1.6-1.6-2.2-1.9c0.1-1.4,1.5-2.9,2.1-3.9
			c0.9-1.3,1.7-2.4,2.6-3.6c0.5-0.7,1.4-1.3,2.1-1.9c0.1-0.1,0.1-0.3,0.2-0.4c0.9-0.7,2-1.2,2.8-2.1c0.2,0,0.2,0,0.2,0.1
			c0.6,0,0.7,0.1,1.1,0.2c-0.3,1-1.2,1.5-1.7,2.2c-0.2,0.3-0.2,0.8-0.5,1.1c-0.1,0.1-0.3,0-0.4,0.2c-0.6,0.8-0.8,1.9-1.4,2.7
			c-0.4,0.6-1.1,1.1-1.5,1.6c-0.3,0.4-0.4,0.9-0.7,1.3c-0.2,0.2-0.4,0.4-0.6,0.6C357.2,408.3,356.3,410.6,355.5,411.1z M362.6,411.8
			c-0.1,0.2-0.4,0.4-0.5,0.7c-0.4,0.8-0.5,2-0.9,2.6c0,0.1-0.1,0.2-0.1,0.2c-1.2-0.2-1.9-1.2-2.8-1.8c0.1-0.6,0.6-0.8,0.8-1.2
			c0.3-0.4,0.3-1.1,0.7-1.6c0.2-0.2,0.4-0.4,0.6-0.6c0.4-0.6,0.5-1.3,0.9-2c0.3-0.5,0.9-0.9,1.2-1.4c0.2-0.4,0.4-0.8,0.7-1.2
			c0.2-0.2,0.6-0.4,0.7-0.7c0.5-0.8,0.8-1.7,1.4-2.5c0.5-0.6,1.3-1.2,1.7-1.8c0.1-0.2,0.2-0.4,0.2-0.7c0.3-0.3,0.7-0.4,0.9-0.9h0.2
			c-0.1,0.7-0.7,1.2-1,1.7c-0.3,0.5-0.3,0.9-0.6,1.4c-0.3,0.6-0.7,1.2-1,1.7c-0.7,1.3-1,2.6-1.6,4c-0.3,0.7-0.9,1.6-1.2,2.3
			C362.8,410.7,362.8,411.4,362.6,411.8z M369.5,411.2c-0.1,0.3-0.4,0.6-0.6,0.8c-0.3,0.7-0.3,1.4-0.7,2.1c-0.1,0.2-0.3,0.5-0.4,0.7
			v0.6c-0.4,1.1-1.1,2.1-1.1,3.6c-1.1-0.3-2-1.1-2.9-1.6c0.1-0.4,0.1-0.4,0.5-0.4c0.3-1.3,0.9-2.4,1.3-3.5c0.3-0.7,0.3-1.5,0.6-2.1
			c0.1-0.1,0.2-0.1,0.2-0.2c0.3-0.5,0.4-1.1,0.7-1.7c0.2-0.3,0.5-0.8,0.7-1.2c0.4-1,0.7-1.9,1.2-2.9c0.2-0.5,0.7-1,0.9-1.6
			c0.1-0.3,0.1-0.7,0.2-1c0.2-0.3,0.6-0.5,0.8-0.8c0.5-0.7,0.8-1.3,1.2-2.1c0.4,0.2,1,0.3,1.4,0.5c-0.2,0.6-0.6,1-0.8,1.5
			c-0.1,0.4-0.2,0.7-0.2,1.1c-0.3,0.7-0.9,1.5-1.2,2.2c-0.1,0.2-0.2,1.6-0.2,1.6c-0.1,0.1-0.2,0.1-0.3,0.2v0.6c-0.3,0.9-1,2-1.3,2.9
			C369.4,410.8,369.7,410.8,369.5,411.2z M376.1,408.5c-0.4,1.4-0.5,2.6-0.8,3.8c0,0.4,0.1,0.7,0.1,1.1c0,0.2-0.3,0.4-0.3,0.6
			c-0.2,0.5,0,1-0.1,1.3c-0.1,0.5-0.4,1.1-0.5,1.6c-0.4,1.1-0.2,3.8-0.7,4.6c0,0.1-0.1,0.2-0.1,0.2c-0.8,0-3.3-0.8-3.8-1.2
			c-0.1-0.3,0.3-0.6,0.4-1v-0.8c0.3-1,0.8-2.4,1.2-3.4c0.3-0.7,0.4-1.4,0.7-2.1c0.8-1.8,1.6-3.9,2.3-5.8c0.4-1,0.5-1.9,1-2.8
			c0.5-1.1,1.3-1.9,1.9-3c0.3,0,0.8,0.1,1,0.2h0.2c-0.1,1.3-0.7,1.8-1.1,2.8c-0.3,0.7-0.3,1.4-0.6,2.1
			C376.6,407.3,376.3,407.9,376.1,408.5z M382.6,404.3c-0.2,0.7,0,1.2-0.2,1.8c-0.1,0.2-0.3,0.5-0.4,0.8c-0.1,0.2,0.1,0.4,0.1,0.5
			c-0.3,1.1-0.6,2.4-0.8,3.5c-0.1,0.5,0.1,1,0,1.4c-0.2,1.3-0.2,2-0.4,3.3c-0.1,0.5,0.2,1.3,0.1,1.8c-0.4,1.8-0.5,3.7-0.7,5.5
			c0,0-0.1,0.1-0.1,0.1c-1.1-0.1-1.7-0.4-2.9-0.5c0,0-0.1-0.1-0.1-0.1c0.1-3,0.9-6,1.6-8.6c0.2-0.6,0.1-1.3,0.2-1.7v-1
			c0-0.1,0.3-0.3,0.3-0.4c0.1-0.4,0.1-0.9,0.2-1.3c0.4-1,1-2.3,1.4-3.4c0.2-0.4,0.1-0.7,0.2-1.1c0.3-0.6,0.8-1.3,0.9-2
			c0.3,0,0.4,0.1,0.5,0c0.3,0.1,0.3,0.1,0.5,0.2C382.9,403.6,382.7,404,382.6,404.3z M387.9,405.4v1c-0.1,0.6-0.3,1.7-0.4,2.2
			c0,0.6-0.1,1.2-0.1,1.7c-0.2,0.9-0.3,2-0.5,3c-0.2,1,0.4,2.3,0.3,3.1c-0.2,2.6,0.3,5.3,0.6,7.6c-1,0-2.9,0.1-3.5-0.3
			c-0.4,0-0.5,0-0.7-0.2c0-1.7,0.3-4,0.7-5.3c0.2-0.8-0.2-1.4,0-2.3c0.3-1.5,0.3-4.7,0.7-6.3c0.2-0.8,0.3-1.5,0.6-2.3v-0.6
			c0.2-0.7,0.6-1.6,0.6-2.5c0,0,0.1-0.1,0.1-0.1c0.8,0.1,1.2,0.5,1.9,0.7C388.1,405.1,387.9,405.2,387.9,405.4z M394.6,426.2
			c-0.5-0.2-0.9-0.7-1.2-0.8c-0.8-0.3-1.5,0.4-2.1-0.2c-0.2-0.3,0.2-0.7,0.1-1.2c-0.1-0.4-0.3-0.9-0.4-1.2c-0.1-0.3-0.1-1.6-0.1-1.9
			c0,0,0.1-0.2,0.1-0.4l-0.2-0.2c0-1.2,0.1-2.3,0.1-3.5c-0.8-3,0.4-5.9,0.4-9.4c0.7,0.3,0.6,1.1,0.8,1.8c0.2,0.4,0.5,1.2,0.7,1.6
			c0.2,0.6,0,1.1,0.2,1.8c0.6,2.6,0.2,5.5,1,7.9v1.1c0.2,0.8,0.4,2.9,0.8,3.5L394.6,426.2L394.6,426.2z M409.9,420.1
			c0,1.3-0.2,2.1-0.4,3c0,0.5,0.1,0.9,0.1,1.4c-0.1,0.5-0.6,1.2-0.2,1.7c-0.4,0.9-3.4,1.8-4.2,2.7c-0.2,0-0.2,0-0.3-0.1
			c0.1-0.8,0.5-1.4,0.7-2.1c0-0.3,0.1-0.6,0.1-0.8c0.1-0.4,0.4-1,0.5-1.4c0.4-1.4,0.2-2.8,0.6-4.3c0.5-2,0.9-4.1,0.6-6.3
			c0-0.2,0.2-0.8,0.2-1.1c-0.1-0.2,0.1-0.8,0-1.2c-0.2-0.8-0.2-1.7-0.4-2.3c-0.2-0.5,0.3-1.3-0.1-1.8c0-0.2,0-0.2,0.1-0.3
			c0.5,0,0.9-0.1,1.4-0.1c0.1,0.6,0.4,1.2,0.5,1.8c0.4,1.6,0.2,3.2,0.6,4.8v1.6C410,417,410,418.5,409.9,420.1z M416.7,423.7
			c-0.1,0.1-0.2-0.1-0.4,0c-0.3,0.1-0.7,0.5-1,0.6c-0.7,0.3-1.8,0.4-2.3,0.8h-0.2c0.1-0.4,0.4-0.8,0.5-1.2c0.2-0.9-0.2-1.4,0-2.2
			c0.2-0.7-0.1-0.8,0-1.4c0.3-1.3,0.2-3.8-0.1-5.2V414c-0.2-0.9-0.2-2.1-0.4-3c-0.2-1,0.1-2.8-0.6-3.6c0-0.2,0-0.2,0.1-0.2
			c0.3-0.2,1.1-0.1,1.5-0.3h0.7c0.3,1.4,0.6,2.9,1,4.4c0,0.5,0.1,1.1,0.1,1.6c0.4,1.8,0.4,3.7,0.7,5.3c0.2,1,0.4,4-0.1,4.4
			c0,0.7,0.4,0.5,0.6,1h0.1C416.8,423.7,416.8,423.6,416.7,423.7z M417,405c-0.6,0-1.2,0.1-1.8,0.1c-2.5,0.6-5.3,0.8-8.4,0.8
			c-0.2-0.2-0.4-0.4-0.6-0.7c-0.4,0-0.5,0.1-0.7,0.2c0,0.2-0.1,0.3-0.1,0.5c-0.3,0-0.6-0.2-0.8,0c-0.4,0-0.4,0.1-0.7,0.2
			c-0.1,0.2-0.1,0.5,0,0.7c0.1,0.2,0.2,0.3,0.3,0.5c0.5,0,0.9,0,1.5,0.2c0.1,1.6,0.3,4,0.5,5.3c-0.1,0.3-0.1,0.7-0.2,1
			c0.4,1.6-0.3,4.9-0.7,6.4c-0.3,1.3-0.1,2.7-0.5,3.9c-0.7,2-1.2,4.3-2.1,6.3c-0.4,0.9-0.3,1.7-0.6,2.6c-0.2,0.5-1.3,2.9-1.6,3.2
			v0.2h-0.1c-0.1-0.8-0.2-1.5-0.2-2.3c-0.1-0.2-0.5-0.4-0.7-0.6c-0.2-0.3-0.2-0.7-0.4-1c-0.3-0.5-0.8-0.9-1.2-1.4
			c-0.4-0.6-0.8-1.4-1-2.2c0-0.3-0.1-0.7-0.1-1c-0.2-0.4-0.5-0.7-0.7-1.2c-0.2-0.7-0.2-1.7-0.3-2.2c-0.3-1.2-0.5-2.7-0.8-4
			c-0.2-1-0.1-2.1-0.3-3v-1.5c-0.2-0.7-0.1-1.8-0.3-2.6c-0.3-1,0.1-2-0.2-3c-0.3-1.2-0.7-2.5-1.2-3.5c-0.1-0.2-0.1-0.5-0.2-0.7
			c-0.7-1.3-1.9-1.8-3.1-2.6c-0.1-0.1-0.2-0.2-0.2-0.3c-0.3,0-0.6-0.1-0.9-0.1c-0.3-0.1-0.7-0.5-1-0.7c-0.4-0.2-0.9-0.2-1.3-0.3
			c-0.7-0.2-1.6-0.6-2.2-0.9c-0.7-0.3-1.9-0.1-2.8-0.3c-0.6-0.2-1.4-0.5-2.1-0.7c-0.5-0.2-1.3-0.1-1.7-0.3c-0.1-0.1-0.1-0.3-0.2-0.3
			c-0.8-0.3-1.4-0.1-2.2-0.4c-0.2-0.1-0.6-0.4-0.9-0.5c-0.8-0.3-1.6-0.4-2.3-0.6h-0.6c-0.1-0.1-0.1-0.2-0.2-0.2
			c-0.4-0.2-0.7,0-1.1-0.2c-0.2-0.1-0.4-0.3-0.6-0.3c-0.5-0.2-0.9-0.1-1.4-0.2c-1-0.4-2.1-1-3.4-1.2c0.1-1.6,1.3-2.8,1.6-4.1
			c0.3-0.9,0.1-1.7,0.4-2.6c0.3-1.1,0.8-2.2,1.1-3.4v-1.3c0.1-0.3,0.3-0.8,0.3-1.1c0.1-0.3-0.1-1.3,0-1.6l0.3-0.3v-1.9
			c0.1-0.4,0.3-0.7,0.2-1.2c0-0.1-0.1-0.3-0.1-0.5c0.4-1.8,0.1-4.6-0.2-6.6c-0.1-0.5,0.3-1.3,0.2-1.8c0-0.6-0.2-1.3-0.1-1.9
			c0.1-0.6-0.1-1.2-0.2-1.6c-0.1-0.6,0.2-1.2,0-2c-0.4-1.4-0.3-2.7-0.3-4.1c0-0.7-0.5-2.6-0.2-3v-0.3c0.6,0.2,1.3,1.5,1.8,2
			c0.4,0.4,1,0.4,1.4,0.8c0.1,0.1,0,0.3,0.2,0.4h0.4c0,0.1,0.1,0.2,0.1,0.2c0.2,0.1,0.4,0.1,0.7,0.2c0.2,0.1,0.3,0.4,0.5,0.7
			c0.3,0.3,0.7,0.6,1.1,0.8c0,0.1,0.1,0.2,0.1,0.2c0.4,0.3,0.9,0.4,1.3,0.7c0.8,0.6,1.7,1.3,2.5,1.9c0.2,0.1,0.4,0.1,0.6,0.2
			c0.2,0.1,0.5,0.7,0.6,0.7h0.7c0.2,0.1,0.2,0.6,0.4,0.7c0.1,0,0.3-0.1,0.4-0.1c0.3,0.1,0.6,0.6,0.9,0.7c0.3,0.2,0.7,0,1,0.2
			c0.2,0.1,0.5,0.5,0.7,0.6c0.3,0,0.5,0.1,0.8,0.1c0.5,0.2,1.2,0.6,1.6,0.8c0.3,0.1,0.9,0.1,1.2,0.2c0.1,0.1,0.2,0.3,0.2,0.4
			c0.2,0.1,1.1,0.8,1.2,0.8c0.2,0.1,0.3-0.1,0.3-0.1c0.3,0.2,0.5,0.7,0.8,0.8c0.1,0,1,0.3,1.1,0.3c0.1,0,0.3-0.1,0.4-0.1
			c0,0.1,0.1,0.2,0.1,0.2c0.3,0.2,0.6,0.1,0.9,0.2c0.3,0.1,0.8,0.5,1.2,0.6h0.6c0.5,0.2,1,0.7,1.5,0.9c0.3,0.1,0.3-0.1,0.6,0
			c0.1,0,0.2,0.3,0.2,0.3c0.1,0,0.3-0.1,0.4-0.1c0.2,0.1,0.5,0.3,0.7,0.4c0.5,0.2,1.2,0.3,1.6,0.5c0.6,0.2,1.4,0,1.9,0.2
			c0.3,0.1,0.6,0.4,0.9,0.5c0.4,0.1,1,0.2,1.3,0.2c0.1,0,1.7,0,1.8,0c0.2-0.1,0.5-0.3,0.7-0.3c0.3,0,0.2,0.2,0.4,0.2
			c0.2,0,0.8-0.3,1-0.3l2-0.2c0.2-0.1,1.5-0.5,1.6-0.5c1.9,0.3,4.4-2.2,5.8-3c1-0.6,2-0.9,2.9-1.6c1-0.7,1.8-1.5,2.8-2.2
			c0.5-0.4,1.3-0.5,1.8-0.9c0.1-0.2,0.2-0.3,0.3-0.5c0.3-0.2,0.6-0.3,0.7-0.6v-0.3c0,0,1-0.6,1.1-0.7c0.1-0.1,0.1-0.3,0.2-0.4
			c0.2-0.2,0.5-0.2,0.7-0.4c0.2-0.1,0.3-0.5,0.5-0.7c0.2-0.1,0.4-0.3,0.7-0.2c0,0,0.1,0.1,0.1,0.1c0.2-0.1,0.6-0.9,0.8-1.1
			c0.3-0.3,0.7-0.4,1-0.6c0.3-0.2,0.8-1.1,1-1.2c0.3-0.2,0.2,0.1,0.5-0.2h0.1c-0.1,3.7-0.8,6.6-0.4,10.2c0.2,1.6-0.2,3.1-0.1,4.2
			c0.2,1.2,0.1,2.8-0.1,3.8c0,0.2,0.2,0.8,0.2,0.9c-0.1,0.5-0.1,1.1,0.2,1.3c-0.1,0.1-0.1,0.1-0.2,0.1c-0.2,1.5,0,3.4,0.2,4.3
			c0,0.5-0.1,1-0.1,1.5c0.4,1.6,0.1,2.9,0.4,4.3c0.2,0.9-0.2,3,0.2,3.6c0.1,0.3,0.5,0.3,1,0.2c0.1,0.3,0.1,1.1,0.3,1.4
			c-0.1,1-0.8,1.6-1.3,2.2c-1,1.3-2.1,2.2-3.6,3c-0.4,0.2-0.7,0.6-1,0.8c-1.2,0.9-2.4,1.5-3.8,2.2l-0.4,0.4c-0.3,0.2-0.5,0-0.9,0.2
			c-0.5,0.2-1.1,0.5-1.6,0.7c-0.2,0-0.4-0.1-0.6-0.1C418.7,404.6,417.7,404.8,417,405z M419.9,422.1c0-2.4-0.2-5.2-0.7-7.3v-1.6
			c-0.2-0.8-0.3-1.7-0.5-2.5c-0.3-1.1-0.3-3.2-0.8-4c0-0.2,0-0.2,0.1-0.3c0.4-0.3,1-0.2,1.3-0.4c1,0,1.3,1.9,1.6,2.8
			c0.2,0.5,0.4,1.4,0.5,2c0,0.7,0.1,1.3,0.1,2c0.4,1.7,0.7,3.7,1.2,5.6c0.2,0.9-0.5,1.5-0.2,2.2c0.1,0.3,0.3,0.2,0.3,0.7
			C421.7,421.4,421,422.1,419.9,422.1z M430.1,418.5c-1,0.8-2.6,0.9-3.5,1.6c-0.3,0-0.4,0-0.6-0.1c0.2-2.1-0.5-4.5-1-6.3v-1.6
			c-0.6-2.4-0.5-5.4-2.4-6.7c0.3-0.5,2.3-1.2,2.8-1.7c0.8,0.6,0.7,2,1.1,3c0.7,2.3,1.6,4.9,2.5,7.1v0.7c0.4,1.4,0.1,3.1,1.2,3.9
			V418.5z M433,416.9h-0.2c-0.2-1-0.1-1.7-0.4-2.7c-0.2-0.5-0.6-1.1-0.7-1.6c-0.1-0.2,0.1-0.6-0.1-1c-0.7-1.9-1.2-3.3-1.8-5.1v-0.6
			c-0.2-0.7-0.6-1.6-0.9-2.3l-0.2-1c-0.1-0.2-0.5-0.3-0.7-0.4h-0.1c0.2-0.6,1.8-1,2.2-1.6c0.7,0.3,1.3,2.6,1.6,3.4
			c0.9,2.2,1.8,4.4,2.7,6.6c0.4,1.1,1.2,2.3,0.8,3.5c0.3,0.4,0.4,0.7,0.9,0.9C436.1,415.5,433.5,416.4,433,416.9z M438.7,414
			L438.7,414c-0.1-0.3,0.2-0.5,0.2-0.7c-0.1-0.3-0.3-0.5-0.4-0.7c-0.2-0.5-0.1-1-0.3-1.6c-0.1-0.2-0.4-0.4-0.5-0.7
			c-0.2-0.4-0.1-0.7-0.3-1.1c0-0.1-0.3-0.1-0.3-0.2v-0.7c-0.1-0.2-0.3-0.4-0.4-0.6c-0.1-0.2-0.1-0.5-0.2-0.7
			c-0.6-1.3-1.1-2.8-1.7-4.2c-0.1-0.2-0.4-0.4-0.5-0.7c-0.6-1.2-0.8-2.7-2-3.2c0-0.2-0.1-0.1,0-0.2c0.1-0.5,1.3-2.1,1.6-2.3l0.1-0.1
			c0.5,0.8,1.2,1.5,1.6,2.3c0.7,1.3,1,2.6,1.7,4c0.5,0.9,1.4,2.4,1.6,3.4c0.2,0,0.2,0,0.3-0.1h0.2c-0.1,0.2,0,0.1-0.3,0.2
			c0.1,0.7,0.6,1.2,0.9,1.7c0.7,1.4,1,2.8,2.4,3.5C442.2,412.1,439.5,413.4,438.7,414z M446.9,408.1c-0.2-0.1-0.1,0-0.2-0.2
			c-1,0.3-1.3,1.4-2.3,1.9c-0.2-0.4-0.4-0.7-0.7-1.1c0-0.2-0.1-0.4-0.1-0.6c-0.3-0.7-0.8-1.8-1.2-2.4c-0.1-0.1-0.3-0.1-0.3-0.2
			c0-0.1-0.1-0.3-0.1-0.4c-0.4-0.6-0.8-1.5-1.2-2.1c-0.1-0.2-0.1-0.4-0.2-0.6c-0.1-0.1-0.3-0.1-0.3-0.2c0-0.2-0.1-0.4-0.1-0.7
			c-0.2-0.5-0.5-1.1-0.7-1.6c-0.3-0.5-0.6-1.1-0.9-1.6l-0.2-0.7c-0.2-0.1-0.3-0.3-0.5-0.4c-0.3-0.5-0.3-1-0.7-1.4
			c-0.6-0.7-1.2-1.2-1.9-1.7c-0.2-0.4,0.5-1.2,0.7-1.6c0.9,0.3,2.8,2.8,3.5,3.7c1.6,2.3,3.3,4.7,4.9,7.1c0.5,0.7,0.9,1.5,1.2,2.2
			l0.2,0.7c0.4,0.5,1.1,0.8,1.3,1.5h0.1L446.9,408.1z M449.2,405.7c-0.7-0.1-0.6-1-1-1.6c-0.1-0.2-0.4-0.4-0.6-0.7
			c-0.2-0.3-0.1-0.7-0.3-1c-0.3-0.5-0.8-1-1.2-1.5c-0.1-0.2-0.2-0.4-0.2-0.7c-0.7-1-1.5-2.1-2.2-3c-0.4-0.3-0.7-0.7-1.1-1
			c-0.1-0.3,0-0.5-0.2-0.7c-0.1-0.1-0.3-0.2-0.4-0.3c-0.9-1.4-1.9-2.6-3.2-3.6c-0.1-0.2-0.3-0.4-0.4-0.6c-0.5-0.4-1.3-0.4-1.8-0.7
			c-0.2-0.5,0.2-1.7,0-2.2c-0.3-0.9-1.8-2.9-1.8-3.5c0.7,0.3,1.3,1.3,1.8,1.8c1.4,1.5,2.9,2.7,4,4.4c0.7,1.2,1.9,2,2.7,3
			c1.8,2.4,3.7,4.7,5.7,6.9c0.2,0.3,0.2,0.7,0.3,1c0.3,0.6,1,1.5,1.5,1.9C450.7,404.6,449.7,405.1,449.2,405.7z M452.9,401.2
			c-0.7-0.1-0.7-0.5-1-1.1c-0.4-0.7-1-1.4-1.5-2.1c-0.1,0-0.2-0.1-0.2-0.1c-0.2-0.2-0.1-0.5-0.2-0.7c-1.4-2.1-3.3-3.8-4.9-5.8
			c-0.2-0.2-0.5-0.3-0.7-0.5c-0.9-1.1-1.5-2.5-2.6-3.5v-0.1c0.6,0.2,0.9,0.7,1.3,1c0.6,0.4,1.1,0.8,1.7,1.2c0.3,0.3,0.6,0.6,0.8,0.9
			c1.9,1.4,4,2.7,5.4,4.6c0.4,0.5,1,0.7,1.3,1.4h0.3v0.4c0.4,0.3,0.8,0.8,1,1.2c0.1,0.3,0,0.5,0.2,0.7
			C454,400,453.4,400.6,452.9,401.2z M370.3,287.6c0,0,0.6,0.1,0.8,0c0.1-0.1,0.1-0.3,0.2-0.4c0.2-0.1,0.4-0.1,0.6-0.2
			c0.3-0.2,0.5-0.5,0.7-0.7c0.1-0.1,0.4-0.1,0.5-0.2c0.1-0.1,0-0.4,0.1-0.5c-0.1-0.5-0.4-0.6-0.8-0.7c-0.2,0.2-2.1,0.9-2.4,1
			c-0.3,0.1-0.9-0.1-1.1-0.1c-0.6-0.1-1.1,0.4-1.4,0.7c0,0.9,0.3,0.9,0.6,1.3C369.1,288,369.8,288.2,370.3,287.6z M426.8,290.2
			c0.3,0.1,0.6,0.3,0.7,0.5c0.4,0,0.8,0,1-0.1c0-0.7-0.2-1.6-0.6-2.1c-0.2-0.2-0.5-0.2-0.7-0.5c-0.4,0-0.9-0.2-1.2,0
			c-0.3,0-0.4,0.1-0.6,0.2c0,0.4,0.1,0.5,0.2,0.9h-0.2v0.3c0.7,0,0.9,0.2,1.3,0.5L426.8,290.2L426.8,290.2z M411,294.3
			c0.4,0.9,1.4,1.1,2.3,1.3c-0.1,0.7-0.7,0.8-1,1.2c-0.5,0.7-1.3,2.1-1.5,3c-0.1,0.3,0.1,0.2,0.2,0.3c0.1,0.4-0.2,0.3-0.2,0.7
			c0.1,0.3,0.4,1.6,0.6,1.9c0.1,0.1,0.4,0.3,0.5,0.4c0.2,0.4,0.2,0.9,0.4,1.2c0.6,1.1,1.8,2.1,2.9,2.7c0.7,0.4,1.5,0,2.4,0.2
			c0.7,0.2,3.2-0.4,3.9-0.8c0.1-0.1,0.1-0.3,0.2-0.4c0.1-0.2,0.4-0.2,0.6-0.3c0.1-0.2,0.3-0.4,0.4-0.6c0.1,0,0.3-0.1,0.4-0.1
			c0.1-0.1,0.4-0.5,0.5-0.6c0.2-0.3,0-0.6,0.2-0.9c0.1-0.2,0.4-0.5,0.5-0.8c0-0.2-0.1-0.4-0.1-0.6c0.1-0.3,0.4-1.6,0.3-1.9
			c-0.3-0.6-0.6-1.3-0.7-2.1c0.6,0,0.9,0.3,1.2,0.7c0.3-0.3,0.8,0.2,1,0.3v0.2c0.7,0,1.1,0,1.6,0.3c0.1,0.1,0.2,0.2,0.2,0.3
			c0.4,0.2,0.7,0.1,1,0.2c0.3,0.2,0.3,0.5,0.5,0.5c0.6,0,0.8,0.5,1.4,0.1c0.4-0.2,0.4-1,0.1-1.3c-0.7-0.9-2.1-1.5-3.2-2.1
			c-0.6-0.3-1.1-0.4-1.6-0.7c-0.1-0.1-0.1-0.2-0.2-0.2h-0.5c-0.1-0.1-0.3-0.4-0.4-0.5c-0.3-0.2-0.6,0-1-0.2
			c-0.1-0.1-0.1-0.2-0.2-0.2c-0.4-0.2-0.7,0-1.2-0.2c-0.1,0-0.6-0.3-0.7-0.3c-0.2-0.1-0.7,0.2-1.1,0.1c-0.2-0.1-0.4-0.4-0.6-0.4
			c-0.3-0.1-1.4,0.1-1.6,0c0-0.1-0.1-0.2-0.1-0.2c-0.2-0.1-1,0.1-1.2,0v-0.2c-0.4-0.2-1.7,0-2.3-0.2c-0.1,0-0.3-0.3-0.4-0.3
			c-0.3-0.1-0.4,0.1-0.7,0c-0.4-0.1-1.3-0.6-1.6-0.8c-0.4-0.3-1.2-1.8-1.2-2.6c0-0.9,0.3-1.3-0.2-2.1c-0.3,0-0.6,0.1-0.7,0.2
			c-0.7,0.3-0.3,1.1-0.9,1.6c0.1,1.6,0.7,3.1,1.2,4.1C410.7,294.5,410.7,294.4,411,294.3z M414.6,296.5v-0.2
			c0.9,0.1,2.5,0.2,3.4,0.7c-0.2,0.5-0.9,0.7-1.2,1.2c-0.4,0.6-0.5,1.4-0.7,2.2c-0.1,0.7,0.4,1.2,0.6,1.6c0.9,1.4,2.1,2.4,4,1.7
			c0.3-0.1,0.5,0,0.7-0.2h0.2c-0.5,1.3-3.4,2.3-4.7,1.7c-0.3,0-0.6-0.1-0.8-0.1c-0.1-0.1-0.1-0.2-0.2-0.3c-0.2,0-0.4-0.1-0.6-0.1
			c-0.2-0.1-0.9-0.8-1.1-1c-0.2-0.4-0.2-0.8-0.4-1.2c-0.2-0.4-0.7-0.8-0.8-1.3C412.3,299.6,413.8,297.1,414.6,296.5z M369.2,291.9
			c0,0.4,0.2,0.6,0.5,0.8c0.7,0.3,1.3-0.3,1.9-0.5c1.7-0.6,2.9-1.4,4.2-2.4c0-0.3,0-0.6-0.1-0.7c-0.5-0.1-1.1,0-1.6-0.1
			c-0.6,1-3.7,1.7-4.8,2.1C369.3,291.4,369.1,291.8,369.2,291.9z M420.2,291.7c0.6,0.4,1.4,1.1,2.1,1.2c0.3,0.1,0.5-0.1,0.9,0
			c0.3,0.1,0.7,0.4,1.1,0.5c0.2,0.1,0.4-0.1,0.7,0c0.1,0,0.6,0.3,0.7,0.3c0.1,0,0.2-0.1,0.2-0.1c0.3,0.1,0.4,0.4,0.7,0.5
			c0.5,0.3,1.1,0.3,1.6,0.5c0.4,0.2,0.8,0.5,1.2,0.7c0,0.2,0,0.3-0.1,0.4c0.1,0.3,0.3,0.3,0.5,0.5c0.3-0.1,0.3-0.1,0.5-0.2
			c0.3,0.3,0.6,0.5,0.8,0.8c0.4-0.1,0.4-0.2,0.8-0.2c0-1.3-0.7-0.9-1.1-1.6v-0.4c-0.2,0-0.3-0.1-0.5-0.1c-0.2-0.2-0.5-0.7-0.7-0.9
			c-0.1-0.1-0.1,0-0.3,0.1c-0.5-0.6-1.5-0.8-2.1-1.1c-0.1,0-0.6,0-0.8-0.2c-0.1-0.1-0.1-0.2-0.2-0.3c-0.4-0.2-1.2-0.1-1.4-0.2
			c-0.1,0-0.2-0.3-0.2-0.3h-0.5c-0.3-0.1-0.5-0.2-0.7-0.3c0,0-0.6,0.1-0.7,0.1c-0.1-0.1-0.2-0.3-0.4-0.4c-0.3-0.1-0.6-0.1-0.8-0.2
			c-0.2-0.1-0.4-0.4-0.6-0.5l-0.7-0.2c-0.4-0.3-1.3-1.4-2.1-0.8c-0.1,0-0.2,0.1-0.2,0.1C418.1,290.7,419.3,291.1,420.2,291.7z
			 M369.3,297.4c0.2,0,0.4,0.1,0.5,0.2c1,0.3,2.4-0.2,3-0.6c0.1,0.1,0.7,0,0.9-0.2h0.2c-0.7,2.7-0.2,4.9,1.1,6.7
			c0.1,0.2,0,0.4,0.1,0.7h0.1c0.2,0.2,0.7,1,0.9,1.2c0.2,0.2,0.5,0.2,0.7,0.3c0.3,0.2,0.5,0.6,0.8,0.7c0.2,0.1,1.5,0.5,1.6,0.5
			c0.1,0,0.3-0.1,0.4-0.1c0.2,0,0.6,0.3,0.7,0.3c0,0,1.7-0.1,1.8-0.2c1.4-0.5,3.3-1.2,4.2-2.2c0.7-0.8,1.5-2.5,1.8-3.7
			c0-0.2,0.2-1.5,0.2-1.5c0-0.1-0.1-0.4-0.1-0.7l0.2-1.2c-0.2-1-1.4-3.2-2.1-3.7v-0.2c1.1-0.1,3.1-1.7,3.6-2.4
			c0.1-0.2,0.2-0.4,0.2-0.7c0-0.6,0-0.9-0.2-1.2c-0.5,0-0.7-0.1-1,0.2c-0.3,0.2-0.4,0.7-0.7,0.9h-0.5c-0.1,0.1-0.1,0.4-0.2,0.5
			l-0.8,0.1c0,0.1-0.1,0.2-0.1,0.2c-0.1,0-0.5,0.2-0.5,0.2c-0.3,0-0.6-0.1-0.9-0.1c-0.5,0.1-1.1,0.4-1.6,0.4
			c-0.4,0.1-0.9-0.3-1.3-0.2c-0.1,0-0.5,0.2-0.7,0.2c-0.3,0-1.1-0.3-1.3-0.2c0,0-0.1,0.2-0.2,0.2c-0.4,0.2-0.6,0-1,0.2
			c-0.5,0.2-1.2,0.6-1.6,0.8h-0.5c-0.2,0.1-0.8,0.7-1,0.7c-0.2,0-0.4,0.1-0.6,0.1l-0.4,0.4c-0.4,0-0.7,0.1-1.1,0.1
			c-1.1,0.6-3,1.2-4.1,1c-0.7-0.1-1.9,0.2-2.3,0.1c-0.1-0.1-0.2-0.2-0.2-0.3c-0.2-0.1-0.3,0.2-0.4,0.2c-0.3,0.1-0.8-0.2-1-0.2
			c-0.2-0.3-0.6-1-0.3-1.5c0.1-0.7,0.9-1.4,1.5-1.6c0-0.2,0-0.2-0.1-0.3c0-0.3-0.1-0.4-0.2-0.6c-3.1,0.4-3.8,3.5-2,5.8
			c0.2,0.2,0.4,0.2,0.7,0.3v0.2c0.5,0.3,1.2,0,1.9,0.1l1.5,0.2C369,297.6,369.3,297.4,369.3,297.4z M375.9,296.3
			c0.3-0.1,0.7-0.3,1-0.5c0.1-0.1,0.2-0.4,0.3-0.4c0.3-0.2,0.5,0,0.8-0.2c0.1-0.1,0.2-0.2,0.2-0.3c0.5-0.3,1.2-0.4,1.6-0.7
			c0.2-0.1,1.2,0.1,1.6-0.2c0.6,0.2,0.8,0.7,1.3,1c0.2,0.1,0.7-0.1,0.9,0c0,0.1,0.1,0.2,0.1,0.2c0.3,0.2,0.9,0.2,1.2,0.4
			c0.3,0.3,0.6,0.7,0.9,1.1v0.1c-0.5-0.1-0.8-0.3-1.1-0.4c-0.5-0.2-1.1,0.2-1.3,0.3c-0.8,0.3-1.3,0.2-2,0.7c-0.5,0.3-0.7,1-1.2,1.4
			c0,1.2-0.2,2.2,0.3,3c0.4,0.6,1.1,0.9,1.3,1.6c0.8,0,1.6,0.4,2.1,0.2h0.1c-0.1,0.1,0,0.1-0.1,0.2c-1.4,1-4.1,1.4-5.9,0.4
			c-0.4-0.2-0.8-0.9-1.2-1.2v-0.2h-0.2c-0.2-0.7-0.7-1.4-0.9-2.1c-0.2-0.6-0.3-1.3-0.4-1.9C375,297.6,376.1,297.2,375.9,296.3z
			 M393.3,328.1c0.2,0.1,0.1,0,0.2,0.2c0.3,0,0.7,0.1,1,0.1v0.3c0.3,0,0.4,0,0.6,0.1v0.3c0.5,0,1,0.2,1.5,0.5v0.2
			c0.1,0,0.4-0.2,0.4-0.2c0,0.1,0.1,0.2,0.1,0.2c0.1,0,0.2-0.1,0.3-0.1c0,0.1,0.1,0.2,0.1,0.2c0.4,0.2,1.6,0.2,2.1,0.4
			c1-0.3,2.5,0.2,3.5,0c3-0.5,4.8-0.1,6.8-2.4c0-0.3,0-0.5-0.2-0.7c-0.1-0.1-1.7-0.2-2.1,0c-0.8,0.3-1.7,1.2-3,1
			c-0.3,0-0.5,0-0.7,0.1c-0.2,0-0.4-0.1-0.7-0.1c-0.6,0-1.3,0.1-1.8,0.2c-0.3,0-0.6-0.1-0.9-0.1c-0.1,0-0.7,0.2-0.8,0.2
			c-0.6-0.1-1-0.4-1.4-0.6c-0.5-0.2-0.8,0-1.4-0.2c-0.4-0.2-0.9-0.6-1.4-0.8c-0.4-0.2-0.7-0.2-1.2-0.3c-0.5-0.2-1-1-1.7-0.5
			c-0.4,0.4-0.2,1.2-0.2,1.7C392.9,328,393.1,328.2,393.3,328.1z M389.9,347.4c-0.1,0-0.9,0-1.2-0.1c-0.9-0.3-1.5-0.5-2.7-0.5
			c-0.3,0.4-0.9,0.7-1.3,0.9c-0.1,0.2-0.2,0.3-0.1,0.5c0.1,1.2,1.3,1.1,1.6,1.9c0.6-0.2,0.8-0.1,1.3-0.2c0.2,0.1,0.5,0.1,0.7,0.2
			c0.5-0.2,1.5-0.3,2.1-0.6h0.7c0.1,0,0.1-0.2,0.2-0.2h1c0.2-0.1,0.6-0.3,0.8-0.4c0.2-0.1,0.3,0.1,0.3,0.1c0.1-0.2,0.3-0.3,0.4-0.5
			c0.6-0.5,1.2-0.9,1.8-1.3c0.2-0.2,0.3-0.4,0.5-0.6c0.7-0.5,1.5-0.9,2.2-1.4c0.1-0.1,0.2-0.3,0.2-0.4c0.3-0.2,0.9-0.1,1.2-0.3
			c0.1-0.1,0.1-0.3,0.2-0.4c0.2-0.2,0.6-0.1,0.8-0.2c0.2-0.1,0.6-0.4,0.7-0.6V343c0.1,0,0.2,0.1,0.3,0.1c0.1-0.1,0.2-0.2,0.2-0.3
			c0.2-0.1,0.5-0.1,0.7-0.2c0.1-0.1,0.2-0.3,0.2-0.4c0.1,0,0.2,0.1,0.3,0.1c0.2-0.1,0.4-0.3,0.6-0.4c0.2,0,0.5-0.1,0.7-0.1
			c0.2-0.1,0.6-0.3,0.8-0.4h0.4c0.2-0.1,0.3-0.3,0.5-0.4c0.6-0.2,1-0.1,1.5-0.2c0.4-0.1,1-0.3,1.5-0.2c0.4,0.1,0.7,0.2,1,0.2
			c0.2,0,0.6-0.1,0.7-0.1c0.2,0.1,0.6,0.4,0.8,0.5c0.3,0.1,0.7,0.1,1,0.2c0.4,0.3,0.9,0.6,1.5,0.7c0.1,0.9,1,1.2,1.5,1.2
			c0.2,0,0.2,0,0.2-0.1h0.1c-0.1-0.2,0-0.1-0.2-0.2c0-0.2,0.1-1.4,0.2-1.5c-0.3-1.6-3.9-2.6-5.5-3c-0.4-0.1-0.7,0.3-1.1,0.2
			c-1.4-0.3-3.4,0.4-4.9,1c-0.1,0-0.2-0.1-0.2-0.1c-0.2,0.1-0.3,0.3-0.5,0.4c-0.3,0.2-0.6,0-0.9,0.2c-0.8,0.4-1.7,0.8-2.5,1.3
			c-0.2,0.1-0.4,0.5-0.6,0.7c-0.6,0.4-1.3,0.5-2,0.9c-0.4,0.2-0.7,0.7-1.1,0.9c-0.6,0.4-1.5,0.7-2,1.2c-0.3,0.3-0.6,0.9-0.9,1.2
			c-0.6,0.5-0.5-0.2-0.9,0.6c-0.6,0.1-2.4,1-2.9,0.8C390.1,347.7,390,347.5,389.9,347.4z M404.1,358.3c-0.6,0-1.2,0.2-2,0.3
			c-0.4,0.1-0.5-0.2-0.7-0.2c-0.2,0-0.8,0.2-1.2,0.2c-0.1,0-0.3-0.2-0.3-0.2c-0.3-0.1-0.9,0-1.2-0.1c-0.2,0.1-0.4,0.3-0.6,0.4
			c-0.1,0.4,0,0.6,0.2,1c0.4,0.3,1.1,0.5,1.6,0.7c0.1-0.1,0.1-0.2,0.2-0.2c0.3-0.2,1.2,0.1,1.6,0c0.8-0.2,1.8-1.1,2.6-0.9
			c0-0.2,0.1-0.1,0-0.2C404.3,358.6,404.2,358.6,404.1,358.3z M404.1,387.3c-0.1,0.7-0.9,0.7-1.5,1c-0.9,0.5-2.3,1.5-3.8,1.1
			c-0.3-0.1-0.6-0.3-0.8-0.4c-0.8-0.3-1-0.2-1.4-0.7h-1c-0.1,0.3-0.3,0.8-0.1,1.2c0.2,0.4,1.2,0.6,1.6,0.8c3.1,1.9,6.3-0.5,8.6-2
			c0-0.3,0-0.5,0-0.6C405.4,387.3,404.8,387.3,404.1,387.3z M403.1,445.8c-0.3,0.2-0.7,0.3-1,0.5c-0.8,0.5-1.1,1.5-1.4,2.6
			c-0.1,0.3-0.2,1.4,0,1.7c0,0.7,0.4,0.6,0.7,1c0.3,0.5,0.7,1.1,1.2,1.4c1.2,0.7,4.1,0.3,4.8-0.7c0.3-0.4,0.3-0.8,0.5-1.3
			C409.3,447.6,406.6,445.7,403.1,445.8z M405.7,451.7c-0.7,0.1-1.3,0.1-2.1,0.1c-0.4-0.4-0.8-1-1.2-1.3c0-1.6-0.3-2.1,0.7-3.1
			c1.6,0,2.4,0.4,3.4,0.9C406.8,450.2,406.7,450.4,405.7,451.7z"/>
	</g>
</g>
<ellipse class="st1" cx="374" cy="154.4" rx="16.4" ry="9"/>
<ellipse class="st1" cx="387" cy="144.5" rx="13" ry="11.4"/>
<ellipse class="st1" cx="405.6" cy="158.8" rx="16.8" ry="13.8"/>
<ellipse class="st1" cx="395.2" cy="171.2" rx="15.2" ry="11.8"/>
<ellipse class="st1" cx="383.2" cy="163.2" rx="10.8" ry="10.2"/>
<ellipse class="st1" cx="430" cy="156.5" rx="14.4" ry="8.2"/>
<ellipse class="st1" cx="417.6" cy="171.6" rx="11.2" ry="5.8"/>
<ellipse class="st1" cx="422.4" cy="163.8" rx="6" ry="4.4"/>
<ellipse class="st1" cx="400.2" cy="189.6" rx="6.6" ry="3.8"/>
<ellipse class="st1" cx="399.8" cy="201.2" rx="4.6" ry="1.8"/>
<ellipse class="st1" cx="400.2" cy="211.2" rx="3.8" ry="2.2"/>
<ellipse class="st1" cx="400.4" cy="220.4" rx="2" ry="1.4"/>
</svg>
