<?xml version="1.0" encoding="utf-8"?>
<!-- Generator: Adobe Illustrator 21.0.0, SVG Export Plug-In . SVG Version: 6.00 Build 0)  -->
<svg version="1.1" id="Calque_1" xmlns="http://www.w3.org/2000/svg" xmlns:xlink="http://www.w3.org/1999/xlink" x="0px" y="0px"
	 viewBox="0 0 841.9 595.3" style="enable-background:new 0 0 841.9 595.3;" xml:space="preserve">
<style type="text/css">
	.st0{fill:none;stroke:#DADADA;stroke-width:10;stroke-miterlimit:10;}
	.st1{fill:#1D1D1B;}
</style>
<path class="st0" d="M327.5,396.6c0,0,14,7.3,23.3,11.2c10.9,4.6,29.8,14.7,39.3,4.8c9.5-9.8,27.2-46.7,33.3-56.4
	c6.1-9.7,56.4-103.9,58.4-111.3"/>
<g>
	<g>
		<path class="st1" d="M476.8,235.8c-0.1-0.5-0.1-1-0.2-1.5c-0.4-0.8-1.3-1.1-1.9-1.8c-0.2-0.2-0.2-0.6-0.3-0.9c0-0.1-0.9-1.2-1-1.3
			c-0.1,0-0.2-0.1-0.3-0.1c-0.2-0.1-0.4-0.4-0.5-0.5c-0.2-0.2-0.1-0.5-0.3-0.7c-0.2-0.3-0.7-0.3-0.9-0.6c-0.2-0.3-0.6-1.2-0.8-1.4
			c-0.1-0.1-0.4-0.1-0.5-0.2c-1.1-0.7-2.2-1.5-3.3-2.2c-0.4-0.2-0.9-0.2-1.3-0.5c-0.3-0.2-0.6-0.6-0.9-0.8h-0.3l-0.5-0.5
			c-0.6-0.3-1.3-0.5-1.8-0.8h-0.4c-0.3-0.2-0.6-0.5-1-0.5c0-0.2-0.1-0.3-0.1-0.5c-0.9-0.2-1.5-0.7-2.2-1c-0.6-0.3-1.2-0.2-1.6-0.6
			c-0.2-0.2-0.3-0.5-0.5-0.6c-0.5-0.2-1.2-0.2-1.7-0.5c-0.2-0.1-1.8-1.1-1.9-1.2c-0.1-0.2,0-0.3-0.2-0.5c-0.3-0.2-1.2-0.2-1.6-0.3
			c-0.8-0.3-1.5-1.1-2.3-1.4c-0.5-0.2-1.1-0.1-1.7-0.3c-0.3-0.1-0.6-0.4-0.9-0.5c-0.5-0.2-1-0.2-1.5-0.4c-0.4-0.2-0.6-0.5-0.9-0.7
			c-0.5-0.2-1.1-0.2-1.6-0.4c-0.7-0.3-1.4-1-2.1-1.3c-0.4-0.2-0.8-0.1-1.2-0.3c-0.5-0.2-1.1-0.7-1.6-0.9c-0.4-0.2-0.8-0.1-1.2-0.3
			c-0.3-0.1-0.6-0.4-0.9-0.5h-0.5c-0.4-0.1-0.7-0.5-1-0.6c-0.5-0.2-0.9,0-1.3-0.2c-0.3-0.1-0.5-0.5-0.8-0.5
			c-0.6-0.2-1.7,0.3-2.2,0.2c-1.1-0.2-2.4-0.8-3.6-0.5c-0.5,0.1-1.4,0.2-1.9,0.5c-0.4,0.2-0.8,0.7-1.2,0.9c-0.2,0.1-0.4,0.1-0.6,0.2
			c-0.7,0.4-1.3,1.1-1.9,1.6c-0.3,0.3-0.7,0.4-1.1,0.6c-0.3,0.2-0.5,0.7-0.8,0.9c-0.1,0.1-0.3,0.1-0.4,0.2c-0.3,0.3-0.6,0.7-0.9,1
			c-0.1,0.1-0.2,0.1-0.3,0.2c-0.5,0.6-0.8,1.4-1.2,2c-0.4,0.4-0.8,0.8-1.2,1.2c-0.2,0.3-0.3,0.6-0.5,0.9c-0.1,0.1-0.3,0.2-0.4,0.2
			c-0.4,0.5-0.4,1.2-0.9,1.6c-0.3,0.3-0.8,0.5-1,0.9c-0.3,0.5-0.2,1.1-0.5,1.6c-0.1,0.2-0.4,0.2-0.5,0.4c-0.1,0.3-0.2,0.6-0.3,0.9
			c-0.5,0.7-1.1,1.4-1.6,2.2c-0.1,0.3-0.2,0.6-0.3,0.9c-0.1,0.2-0.5,0.4-0.6,0.6c-0.2,0.3-0.1,0.7-0.3,1c-0.2,0.2-0.6,0.4-0.8,0.6
			c-0.2,0.3-0.1,0.6-0.3,0.9c-0.1,0.2-0.3,0.4-0.4,0.5c0,0.2-0.1,0.5-0.1,0.7c-0.1,0.3-0.4,0.6-0.5,0.9c-0.2,0.3-0.1,0.6-0.3,0.9
			c-0.3,0.5-0.8,1.1-1.1,1.6c-0.1,0.3-0.2,0.7-0.3,1c-0.6,0.8-1.3,1.8-1.4,3.1c-0.1,0-0.3,0.1-0.4,0.1c-0.1,0.6-0.7,1.2-1,1.7
			c-0.1,0.3-0.2,0.6-0.2,0.9c-0.1,0.2-0.4,0.2-0.5,0.4c-0.1,0.3-0.1,0.5-0.2,0.8c-0.1,0.3-0.6,0.6-0.7,0.9c-0.2,0.4-0.1,0.7-0.3,1
			c-0.2,0.3-0.7,0.6-0.9,0.9c-0.1,0.3-0.2,0.6-0.3,0.9c-0.1,0.1-0.3,0.2-0.4,0.3c-0.4,0.7-0.6,1.5-1,2.1c-0.2,0.1-0.3,0.3-0.5,0.4
			c-0.1,0.2-0.3,0.4-0.4,0.5c0,0.2-0.1,0.3-0.1,0.5c-0.1,0.2-0.4,0.3-0.5,0.5c-0.2,0.3-0.1,0.6-0.2,1.1c0,0.2-0.2,0.3-0.3,0.5
			c-0.3,0.6-0.3,1-0.5,1.6c-0.3,0.8-1.5,2.2-1.6,3c-0.2,0-0.1-0.1-0.2,0c-0.2,0.2-0.3,0.4-0.3,0.8c-0.7,0.1-0.6,0.8-0.9,1.5
			c-0.2,0.6-0.6,1-0.8,1.5c-0.2,0.4-0.1,0.7-0.3,1.1c-0.1,0.3-0.5,0.3-0.7,0.5c-0.2,0.3-0.2,0.7-0.4,1l-0.7,0.7
			c-0.1,0.2,0,0.4-0.2,0.6c-0.1,0.1-0.4,0.2-0.5,0.3c-0.3,0.5-0.2,1.1-0.6,1.5c-0.2,0.2-0.6,0.2-0.8,0.5c-0.2,0.3-0.2,0.8-0.4,1.2
			c-0.1,0.1-0.2,0.1-0.3,0.2v0.2c-0.1,0.1-0.2,0.1-0.3,0.2c-0.1,0.2,0.1,0.3,0.1,0.4c-0.1,0.2-0.3,0.3-0.4,0.6c-0.2,0-0.3,0-0.4-0.1
			c0,0.2,0,0.2,0.1,0.3c0,0.9-0.4,0.8-0.8,1.3c-0.2,0.4-0.2,0.8-0.4,1.2c-0.1,0.2-0.5,0.4-0.5,0.5c-0.3,0.4-0.1,0.9-0.7,1
			c0.1,0.3,0,0.2-0.1,0.4c0.1,0.1,0.1,0.2,0.2,0.4c-0.7,0.2-0.2,0.5-0.3,0.7c-0.1,0.2-0.5,0.3-0.6,0.6v0.5c0,0-0.4,0.3-0.4,0.3
			c-0.3,0.4-0.3,1.1-0.6,1.4c-0.2,0.2-0.5,0.2-0.6,0.4c-0.1,0.2-0.1,0.5-0.2,0.7c-0.1,0.2-0.3,0.1-0.4,0.2c-0.1,0.1,0,0.6,0,0.6
			h-0.2c-0.2,0.2,0,0.5-0.1,0.6c-0.1,0.4-0.9,1.8-0.6,2.2c-0.2,0.4-1,0.8-1.3,1.2c-0.1,0.2-0.2,0.4-0.2,0.6
			c-0.1,0.1-0.3,0.2-0.4,0.3c0,0.2-0.1,0.4-0.1,0.5c-0.1,0.2-0.6,0.5-0.7,0.6c-0.2,0.3-0.5,1-0.6,1.4v0.5c-0.2,0.3-0.5,0.7-0.6,1
			c-0.1,0.3,0,0.6-0.1,0.8c-0.1,0.3-0.8,0.6-0.9,0.9c0,0.2,0.1,0.3,0.1,0.5c-0.1,0.1-0.3,0.3-0.4,0.4v0.5c-0.2,0.5-1,1.5-0.9,2
			c-0.1,0-0.2,0.1-0.5,0.1c0.1,0.3,0.1,0.7-0.1,0.9c-0.1,0.1-0.1,0-0.2,0.1c-0.1,0.8-0.8,1.2-1.1,1.8c-0.2,0.3,0.1,0.5,0,0.8
			c0,0.1-0.3,0.1-0.3,0.2c-0.4,0.6-0.6,1-0.8,1.7h-0.2c-0.5,1.1-0.9,1.7-1.5,2.6c-0.1,0.2,0,0.5-0.2,0.8c-0.1,0.1-0.3,0.3-0.4,0.4
			v0.5c-0.2,0.3-0.6,0.6-0.8,0.9v0.4c-0.5,0.8-1.7,2-1.7,3h-0.2c-0.1,0.3-0.4,0.5-0.5,0.8v0.4c-0.1,0.2-0.4,0.3-0.5,0.5v0.4
			c-0.2,0.3-0.7,0.7-0.9,1.1v0.5c-0.1,0.1-0.4,0.3-0.5,0.5v0.3c-0.1,0.2-0.5,0.3-0.6,0.5c-0.2,0.3-0.1,0.5-0.2,0.9
			c-0.1,0.2-0.5,0.5-0.5,0.7c-0.1,0.2,0.2,0.3,0,0.5c-0.1,0.2-0.5,0.2-0.6,0.4c0.3,0.4-1,1.5-1.2,1.9c-0.2,0.3-0.1,0.6-0.2,0.9
			c-0.1,0.2-0.4,0.4-0.5,0.6c0,0.2-0.1,0.3-0.1,0.5c-0.2,0.3-0.7,0.6-0.9,0.9c-0.2,0.5-0.1,0.6-0.4,1c-0.5,0.6-1.3,1.1-1.3,2.1
			c-0.8,0.2-1,1.5-1.4,2.1c-0.1,0.1-0.3,0.2-0.4,0.3c0,0.2-0.1,0.4-0.1,0.5c-0.1,0-0.2,0.1-0.2,0.1c0,0.1-0.1,0.3-0.1,0.4
			c-0.1,0.1-0.3,0.2-0.4,0.3c-0.1,0.3-0.2,0.5-0.2,0.8c-0.3,0.4-0.8,0.8-1,1.2v0.5c0,0.1-0.3,0.1-0.4,0.2v0.3
			c-0.3,0.5-1.1,1.5-0.9,2.1h-0.4c0,0.6-0.4,0.8-0.6,1.2c-0.2,0.4-0.2,0.8-0.4,1.1c-0.4,0.5-1.1,0.9-1.4,1.5
			c-0.2,0.4-0.3,0.8-0.5,1.2c0,0.1,0.1,0.2,0.1,0.2c-0.1,0.1-0.3,0.1-0.4,0.2c0,0.1,0.1,0.2,0.1,0.2c-0.3,0.5-0.8,0.3-0.8,1.2
			c-0.2,0.1-0.6,0.1-0.8,0h-0.4c0.1,0.2,0.5,0.3,0.9,0.3c-0.3,0.7-0.9,1.5-1.3,2.3c0,0.2-0.1,0.4-0.1,0.6c-0.1,0.1-0.3,0.1-0.4,0.2
			c-0.2,0.2-0.2,0.4-0.3,0.6c-0.2,0.3-0.7,0.6-0.9,1c-0.1,0.2,0.1,0.5-0.1,0.9l-0.5,0.5c-0.1,0.2-0.1,0.5-0.2,0.7
			c-0.1,0.2-0.3,0.3-0.4,0.5c-0.3,0.7-0.3,1.2-0.6,1.9c-0.2,0.4-0.6,0.8-0.8,1.2c-0.3,0.5-0.2,0.7-0.4,1.2c-0.4,0.9-1.2,2.1-1.2,3.1
			c0,0.4-0.5,0.6-0.6,0.9c-0.1,0.2-0.3,1.5-0.2,1.8c-0.6,0.3-0.2,0.1-0.5,0.6c-0.1,0.1-0.3,0.2-0.4,0.2c-0.1,0.2,0,0.6-0.2,0.8
			c-0.1,0.1-0.3,0-0.3,0.1c-0.1,0.2,0.1,0.2,0.1,0.3c0,0.5-0.3,0.8-0.7,0.9c0,0.3,0,0.3,0.2,0.4c0,0.5,0,0.4-0.3,0.4
			c-0.1,0.2,0.1,0.5,0,0.6c0,0.1-0.3,0.1-0.4,0.2c-0.2,0.3-0.9,1.9-0.8,2.2c0,0.2-0.1,0.2-0.2,0.4h-0.2c0,0.4-0.1,0.6,0.1,0.8
			c-0.2,0.4-0.6,0.7-0.8,1.1c0,0.2-0.1,0.4-0.1,0.5c-0.1,0.1-0.2,0.1-0.2,0.2c0,0.1,0.1,0.1,0.1,0.3c-0.1,0.2-0.4,0.5-0.5,0.7v0.5
			c-0.1,0-0.2,0.1-0.2,0.1c-0.1,0.3-0.1,0.8-0.3,1c-0.1,0.1-0.3,0.1-0.4,0.2v0.3c-0.1,0.2-0.5,0.4-0.5,0.7c0,0.1,0.2,0.1,0.1,0.3
			c-0.1,0.1-0.3,0.2-0.4,0.3c0,0.1,0.1,0.3,0.1,0.4l-0.5,0.5c-0.1,0.2-0.2,0.8-0.4,1.2c-0.2,0.4-0.8,0.9-1,1.3
			c-0.2,0.4-0.2,0.8-0.3,1.2v0.7c-0.7,1.8-2.5,3.4-2.1,5.7c0.1,0.3-0.1,0.4-0.2,0.5c-0.1,0.3,0.1,0.8,0.1,1.1c0,0.2-0.4,0.8-0.3,1.2
			c0,0.2,0.2,0.3,0.2,0.6c0,0.1-0.2,0.5-0.1,0.7c0.1,0.1,0.2,0.1,0.2,0.2c0.1,0.2,0,0.4,0.1,0.5c0,0.4,0.1,0.4,0.2,0.6h0.2
			c0.2,1.3,1,2.9,1.8,3.7c0.1,0.1,0.1,0,0.2,0.1c0,0.6,2,2.2,2.6,2.4v0.3c0.6,0.1,0.8,0.6,1.2,0.8c0.2,0.1,0.3-0.1,0.5,0
			c0.1,0.1,0.2,0.3,0.3,0.4c0.4,0.3,1.5,0.8,2.1,0.9v0.2c0.6,0.3,1,0.6,1.6,0.9c0.5,0.1,1,0.2,1.5,0.2c0.1,0,0.3,0.2,0.3,0.2
			c0.1,0,0.5-0.1,0.7,0.1l0.3,0.4c0.1,0.1,0.9-0.1,1.2,0.1c0.2,0.1,0.3,0.3,0.4,0.3c0.2,0.1,0.5,0,0.7,0.2l0.3,0.3
			c0.2,0,0.3-0.1,0.5-0.1c0.3,0.1,0.6,0.4,0.9,0.5c0.3,0.1,0.7,0.1,1,0.2c0.1,0.1,0.1,0.4,0.2,0.5c0.2,0,0.4,0.1,0.6,0.1
			c0.2,0.1,0.5,0.4,0.8,0.5c0.2,0.1,0.5,0,0.6,0.1c0,0.1,0.1,0.2,0.1,0.2c0.3,0.2,0.6,0.1,0.9,0.2c0.3,0.1,0.6,0.4,0.9,0.5
			c0.3,0.1,0.5,0.1,0.8,0.2c0.1,0.1,0.2,0.3,0.5,0.4c0.1,0,0.2-0.1,0.3-0.1c0.8,0.2,1.8,1.2,2.6,1.3c0,0.1-0.1,0.1-0.1,0.3
			c1.4-0.1,1.5,0.7,2.4,1.1c0.5,0.2,1,0.2,1.4,0.5c0.1,0.1,0.1,0.3,0.2,0.4h0.3c0.4,0.2,0.9,0.5,1.2,0.7c0.2,0.1,0.5,0.1,0.7,0.2
			c0.5,0.3,1.3,0.6,1.8,1c0.2,0,0.3,0.1,0.5,0.1c0.2,0.1,0.2,0.4,0.5,0.5h0.5c0.4,0.2,0.8,0.5,1.2,0.7c0.3,0,0.6,0.1,0.9,0.1
			c0.4,0.2,0.3,0.5,1,0.5v0.2c1-0.1,0.9,0.2,1.6,0.5c0.3,0.1,0.5-0.1,0.7,0.1c0.1,0,0,0,0,0.1c0.4,0.7,1.6,0.5,2.3,0.9l0.5,0.5
			c0.4,0.2,1.1,0.2,1.4,0.3c0.1,0,0.3,0.3,0.5,0.3c0.2,0,0.4-0.1,0.6-0.1c0.2,0,0.6,0.3,0.8,0.3c0.2,0,0.4-0.1,0.5-0.1
			c0.1,0,0.1,0.3,0.2,0.3c0.3,0.1,0.7,0,0.9,0c0.1,0.1,0.1,0.1,0.2,0.2c0.2,0,0.3-0.1,0.5-0.1c0,0,0.1,0.2,0.2,0.2
			c0.3,0,0.6-0.1,0.9-0.1c0.3,0.1,0.7,0.4,0.9,0.6c0.2,0.1,0.1,0.1,0.1,0.5c0.4-0.1,0.6-0.4,1.2-0.4c0.1-0.7,0.6-0.7,1.2-0.9
			c0.9-0.4,2.5-1.9,3.5-2v-0.2c0.2,0.1,0.6,0.1,0.6,0.2c0.4-0.1,0.4-0.2,0.5-0.5c0.1,0.1,0,0.1,0.1,0.2h0.2c0-0.3,0-0.4-0.2-0.5
			c0.1-0.3,0.6-0.8,0.9-0.9h0.4c0.1-0.1,0.2-0.3,0.2-0.4c0.2-0.1,0.4-0.1,0.5-0.2c0.1-0.2,0-0.4,0.2-0.5c0.2-0.2,0.5-0.2,0.7-0.5
			c0.2-0.2,0-0.5,0.2-0.8c0.1-0.4,0.6-0.5,0.8-0.8c0.1-0.3,0-0.5,0.2-0.8c0.1-0.1,0.4-0.2,0.5-0.3c0.2-0.3,0.1-0.6,0.3-0.9
			c0.2-0.3,0.8-0.3,1-0.6c0-0.1,0.1-0.3,0.1-0.4c0.2-0.3,0.6-0.6,0.8-0.9c0-0.1,0.1-0.3,0.1-0.4c0.1-0.1,0.2-0.1,0.3-0.2
			c0.1-0.2,0.1-0.3,0.2-0.5c0.3-0.3,0.7-0.3,1-0.5c0.5-0.5,0.5-1.6,1-2.1v-0.1c0.2,0,0.1,0,0.2,0.1c0.4-0.2,1.4-2.1,1.6-2.6
			c0.2,0.2,0.3,0.4,0.5,0.6h0.2c0-0.3-0.3-0.5-0.2-0.9c0.2-1.2,1.5-2,1.6-3.4c0.8-0.1,0.7-1.1,1.1-1.6c0.2-0.2,0.4-0.4,0.6-0.6
			c0-0.2,0.1-0.4,0.1-0.5c0.1-0.1,0.4-0.3,0.5-0.4l0.1-0.8c0.1-0.1,0.3-0.2,0.4-0.2v-0.5c0.1-0.3,0.5-0.5,0.6-0.8
			c0.4-0.7,0.6-1.2,1-1.9c-0.1-0.3,0.8-2.1,1-2.4c0.3,0,0.8,0,0.9-0.1h0.1c-0.1-0.1-0.3-0.2-0.5-0.2c0.1-0.6,0.5-0.9,0.7-1.3
			c0-0.3,0.1-0.5,0.1-0.8c0.1-0.1,0.3-0.3,0.4-0.5v-0.5c0.1-0.1,0.3-0.1,0.4-0.2c0.2-0.3,0-0.6,0.1-0.9c0.1-0.3,0.4-0.4,0.5-0.6
			c0.2-0.3,0-0.7,0.1-0.9c0.2-0.1,0.4-0.3,0.5-0.4c0.3-0.3,0.3-0.8,0.6-1.2c0.1-0.1,0.4-0.2,0.5-0.4c0.6-1.2,1.1-2.4,1.6-3.5
			c0.2,0.1,0.2,0.1,0.2,0.3c0.1,0,0.1,0,0.2-0.1c0-0.1,0-0.3-0.1-0.4c0.1-0.5,0.5-0.6,0.7-0.9c0-0.1-0.1-0.2-0.1-0.2
			c0.1-0.3,0.4-0.7,0.5-1c0-0.1-0.1-0.2-0.1-0.3c0.1-0.1,0.3-0.1,0.4-0.2c0.2-0.3,0-0.5,0.2-0.8l0.5-0.5c0.1-0.3,0.2-0.5,0.2-0.8
			c0.2-0.3,0.7-0.4,0.9-0.7c0.1-0.2,0-0.5,0.1-0.7c0-0.1,0.3-0.1,0.3-0.2c0.1-0.3,0-0.5,0.1-0.7c0.1-0.1,0.2-0.2,0.3-0.2v-0.5
			c0.1-0.1,0.2-0.1,0.3-0.2c0-0.1,0.1-0.3,0.1-0.4c0.1-0.1,0.2-0.1,0.2-0.2c0.2-0.3,0.1-0.6,0.2-0.9c0.3-0.6,0.9-1,1.2-1.6
			c0.7-1,1.1-2.1,2.1-2.8v-0.2c-0.3,0.1-0.5,0.3-0.6,0.5h-0.1c0.1-0.4,0.4-0.5,0.6-0.9c0-0.2,0.1-0.3,0.1-0.5
			c0.2-0.1,0.3-0.3,0.5-0.4c0-0.1,0.1-0.2,0.1-0.3c0.1-0.1,0.4-0.2,0.5-0.3c0.3-0.4,0.1-0.6,0.3-1c0.2-0.3,0.8-0.8,1-1.2V352
			c0.1,0,0.2-0.1,0.2-0.1c-0.1-0.1-0.1-0.2,0-0.4c0-0.1,0.3-0.1,0.3-0.2c0.1-0.1,0.2-0.7,0.3-0.9c0.3-0.5,0.9-0.9,1.2-1.4
			c0.2-0.5,0.2-0.9,0.5-1.3c0.2-0.3,0.5-0.6,0.7-0.9c0.1-0.1,0.1-0.8,0.1-0.8c0.2-0.3,0.4-0.1,0.5-0.6c0.3,0.1,0.5,0.2,0.6,0.4h0.2
			c-0.1-0.3-0.3-0.4-0.5-0.6c0.1-0.5,0.6-1,0.9-1.5v-0.3c0.1-0.1,0.4-0.2,0.5-0.4c0.1-0.4,0.3-0.7,0.4-1.1h0.4
			c0.1-1.1,1-1.9,1.5-2.7c0.3-0.4,0.3-0.8,0.5-1.2c0.1-0.2,0.6-0.4,0.7-0.6c0.4-0.6-0.1-1.3,0.2-1.8c0.1-0.2,0.8-0.9,0.9-1.1V334
			c0.1-0.3,0.5-0.4,0.6-0.6c0-0.2,0.1-0.4,0.1-0.5c0.2-0.1,0.3-0.2,0.5-0.3c0-0.3,0.1-0.5,0.1-0.8c0.3-0.7,0.9-1.4,1.2-2.1
			c0.5-1.2,1-3,1.8-4c0.1-0.1,0.2,0,0.3-0.1c0-0.1-0.1-0.1-0.1-0.4c0.1-0.4,0.5-0.7,0.7-1c0.2-0.3,0.1-0.7,0.3-1
			c0.2-0.4,0.6-0.7,0.9-1.1l0.7-2.1c0.1-0.1,0.2,0,0.3-0.1l0.2-0.7h0.2c0-0.2,0.1-0.5,0.1-0.7c0.1-0.2,0.8-0.6,0.9-0.8
			c0-0.2,0.1-0.5,0.1-0.7c0.1-0.1,0.5-0.4,0.6-0.5c0.2-0.3,0.2-0.7,0.3-0.8c0.2-0.3,0.4-0.1,0.5-0.2c0.2-0.3,0.1-1.2,0.5-1.6
			c0.1-0.1,0.3-0.1,0.4-0.2c0-0.1,0.1-0.3,0.1-0.4c0.1-0.2,0.4-0.4,0.5-0.6c0.2-0.4,0.2-0.9,0.5-1.2c0.2-0.3,0.6-0.7,0.7-1
			c0-0.2,0.1-0.4,0.1-0.6c0.1-0.1,0.3-0.3,0.4-0.5c0.1-0.3-0.1-0.3,0-0.5c0.1-0.3,0.2-0.8,0.4-1.1l0.2-0.2c0.1-0.2-0.1-0.4-0.1-0.5
			c0.1-0.3,0.7-0.4,0.9-0.7c0.2-0.3,0.3-0.8,0.5-1.1c0.1-0.1,0.2,0,0.3-0.1c0-0.1,0.1-0.3,0.1-0.4c0.1-0.2,0.4-0.5,0.5-0.7
			c0.2-0.4,0.2-0.8,0.5-1.2c0.1-0.1,0.3-0.1,0.4-0.2c0.1-0.2,0-0.3-0.2-0.5c0.5-0.3,0.8-0.8,1.1-1.4c0.1-0.3,0.1-0.5,0.2-0.8
			c0.1-0.1,0.3,0,0.4-0.2c0.2-0.3,0.1-0.7,0.2-1c0.2-0.4,0.7-0.8,1-1.2c0.3-0.4,0.3-0.9,0.5-1.3c0.1-0.2,0.5-0.2,0.7-0.4
			c0.1-0.3,0.2-0.6,0.2-0.9c0.4-0.6,0.9-1.3,1.2-1.9c0.2-0.6,0.3-1.3,0.6-1.8c0.4-0.7,1.2-1.3,1.6-2.2c0.2-0.4,0.1-0.7,0.2-1
			c0.1-0.1,0.3-0.3,0.4-0.4c0.1-0.4,0-0.7,0.2-1c0.1-0.1,0.2-0.2,0.3-0.2c0.2-0.3,0.1-0.6,0.2-0.9c0.2-0.5,0.9-1.2,1.2-1.7
			c0.1-0.3,0.2-0.7,0.3-1c0.3-0.3,0.6-0.5,0.9-0.8c0.1-0.3,0-0.6,0.2-0.9c0.4-0.7,1.2-1.6,1.5-2.3v-0.5c0.1-0.1,0.2-0.2,0.3-0.2
			l0.2-0.7c0.1,0,0.2-0.1,0.3-0.1c0.1-0.1,0.5-0.5,0.5-0.7c0.1-0.3,0.1-0.6,0.2-0.9c0.2-0.2,0.4-0.3,0.5-0.5
			c0.2-0.3,0.1-0.6,0.3-0.9c0.1-0.2,0.4-0.5,0.5-0.7c0.2-0.4,0.2-0.9,0.5-1.2c0.3-0.4,0.5-0.9,0.9-1.3c0.1-0.1,0.3-0.2,0.4-0.3v-0.5
			l0.2-0.2c0.2-0.6,0.1-1,0.3-1.6c0.1-0.2,0.3-0.4,0.4-0.5c0.2-0.7,0.2-1.1,0.5-1.6c0.2-0.3,0.5-0.9,0.8-1.1
			c0.3-0.2,0.5-0.2,0.7-0.4c0.2-0.3,0.1-0.5,0.2-0.9c0.1-0.2,0.4-0.4,0.5-0.5c0.2-0.4,0.2-0.9,0.4-1.3c0.1-0.2,0.4-0.7,0.5-0.9v-0.9
			c0.2-0.3,0.8-0.6,0.9-0.9c0.2-0.4,0.2-0.9,0.4-1.3l0.5-0.5c0.3-0.5,0.1-1,0.4-1.5c0.1-0.2,0.4-0.4,0.5-0.6
			c0.2-0.3,0.2-0.8,0.5-1.2c0.1-0.2,0.4-0.4,0.5-0.6c0.4-0.8,0.4-1.6,0.9-2.3c0.1-0.1,0.3-0.2,0.4-0.3c0.4-0.7,0.5-1.5,0.9-2.3
			c0.2-0.5,0.7-1.1,0.9-1.6c0.4-0.7,0.2-1.4,0.5-2.2c0.2-0.6,0.8-1.6,0.9-2.2c0-0.3-0.1-0.7-0.1-1
			C477.5,240.3,477.4,237.7,476.8,235.8z M335.4,360.2L335.4,360.2l0.1,0.3h-0.2C335.3,360.4,335.4,360.4,335.4,360.2z M474.3,238
			c0.2,1.1-0.1,0.9-0.4,1.8v0.7c-0.1,0.3-0.2,0.8-0.3,1c-0.2,0.5-0.3,1-0.4,1.6c0,0.2,0.1,0.5,0.1,0.7c-0.1,0.5-0.6,1-0.8,1.5
			c-0.4,0.9-0.7,1.7-1.2,2.5c-0.4,0.6-0.3,1.5-0.8,2c-0.5,0.6-0.9,1.6-1.2,2.4c-0.1,0.3-0.1,0.6-0.2,0.9c-0.1,0.2-0.4,0.5-0.5,0.7
			c-0.1,0.4,0,0.6-0.2,0.9c-0.1,0.1-0.3,0.2-0.4,0.3c-0.2,0.3-0.1,0.6-0.3,0.9c-0.2,0.3-0.6,0.7-0.8,1c-0.4,0.8-0.6,1.6-1.1,2.3
			c-0.1,0.1-0.3,0.3-0.4,0.4c-0.4,0.8-0.5,1.5-0.9,2.3c-0.2,0.5-0.7,0.9-1,1.4c-0.2,0.4-0.3,0.8-0.5,1.2c-0.1,0.2-0.4,0.4-0.5,0.6
			c0,0.2-0.1,0.4-0.1,0.5c-0.1,0.3-0.5,0.6-0.6,0.9c-0.1,0.2,0,0.5,0,0.5c-0.3,0.6-1,1.1-1.3,1.7c-0.2,0.4-0.1,0.7-0.3,1.1
			c-0.2,0.5-0.7,1-0.9,1.6v0.6c-0.1,0.3-0.5,0.5-0.6,0.8c-0.3,0.5-0.3,1-0.5,1.5c-0.1,0.1-0.2,0.2-0.3,0.2v0.4
			c-0.1,0.2-0.3,0.3-0.4,0.5c0,0.2-0.1,0.4-0.1,0.5c-0.2,0.5-0.7,1-1,1.5l-0.2,0.7c-0.2,0.2-0.5,0.4-0.7,0.7c-0.2,0.3,0,0.7-0.2,1
			c-0.2,0.5-0.8,1-1.1,1.5c-0.1,0.2,0.1,0.3,0,0.5c-0.1,0.2-0.4,0.3-0.5,0.5c-0.3,0.4-0.4,1.3-0.7,1.8c-0.2,0.3-0.6,0.4-0.7,0.8
			c-0.2,0.4-0.1,0.8-0.3,1.2c-0.3,0.5-0.9,0.9-1.2,1.4c-0.2,0.3-0.2,0.7-0.4,1.1c-0.3,0.6-0.8,1.3-1.2,1.9c-0.1,0.3-0.1,0.6-0.2,0.9
			c-0.6,0.8-1.5,1.6-2.3,2.2v0.2c0.3-0.1,0.7-0.4,0.9-0.7h0.2c-0.1,0.2-0.3,0.4-0.5,0.5c-0.1,0.2,0,0.4-0.2,0.5
			c-0.2,0.3-0.6,0.5-0.8,0.8c-0.2,0.4-0.2,0.8-0.4,1.2c-0.7,1.3-1.6,2.5-2.3,3.7c-0.1,0.2-0.1,0.3-0.2,0.5c-0.2,0.3-0.6,0.7-0.8,1
			c-0.2,0.3-0.1,0.8-0.3,1c-1,1.1-1.9,2.4-2.6,3.8c-0.2,0.3-0.3,1.2-0.5,1.5c-0.1,0-0.2,0.1-0.2,0.1c-0.1,0.2-0.5,0.7-0.5,0.9v0.4
			c-0.1,0.3-0.5,0.8-0.6,1.1c-0.2,0.5,0,0.8-0.2,1.2c-0.1,0.1-0.2,0.2-0.3,0.2c-0.3,0.4-0.3,1.2-0.4,1.5l-0.7,1.2
			c-0.1,0.3,0,0.5-0.2,0.9c-0.1,0.2-0.4,0.4-0.5,0.5c-0.3,0.5-0.2,1-0.4,1.6c-0.3,0.7-0.8,1.3-1.2,1.8c-0.2,0.3,0,0.5-0.2,0.9
			l-0.5,0.5c-0.3,0.5-0.4,1.1-0.7,1.6c-0.2,0.1-0.3,0.3-0.5,0.4c-0.2,0.4-0.2,0.7-0.5,1.2c-0.2,0.3-0.6,0.7-0.8,1.1
			c-0.4,1-0.5,1.8-1.1,2.6c-0.5,0.7-0.5,1.7-1.6,1.9c0.1,0.2,0.2,0.1,0.3,0.2c0.1,0.1-0.2,0.6-0.3,0.8c-0.5,0.5-1.2,2.1-1.2,3h-0.2
			c0.2,1.1-0.9,1.6-1.2,2.5c-0.2,0-0.5,0-0.6,0.1h-0.2v0.2c0.1,0,0.1,0.1,0.3,0.1c-0.1,0.6-0.4,0.7-0.5,1.1
			c-0.2,0.3-0.1,0.6-0.2,0.9c-0.1,0.2-0.4,0.4-0.5,0.6c0,0.1-0.1,0.3-0.1,0.4c-0.1,0.2-0.5,0.3-0.6,0.5c-0.2,0.3-0.1,0.6-0.2,0.9
			c-0.2,0.4-0.6,0.5-0.6,1.1c-0.2-0.1-0.1,0-0.2-0.2c-0.1,0.1-0.5,1.1-0.6,1.2H422v0.4c-0.1,0.1-0.3,0.1-0.4,0.2
			c-0.5,0.6-0.8,1.3-1.2,1.9l-0.5,0.5c-0.1,0.4-0.2,0.7-0.3,1.1c-0.7,1.3-1.3,2.3-2,3.6c-0.1,0.3-0.1,0.5-0.2,0.8
			c-0.2,0.3-0.7,0.8-0.9,1.2c-0.1,0.3-0.2,0.6-0.3,0.9c-0.1,0.1-0.2,0.2-0.3,0.2c-0.3,0.6-0.4,1.2-0.8,1.8l-0.5,0.5
			c-0.1,0.2-0.1,0.5-0.2,0.7c-0.1,0.1-0.3,0.2-0.4,0.3c-0.4,0.6-0.5,1.4-0.9,2c-0.1,0.1-0.3,0.2-0.4,0.3c0,0.2-0.1,0.3-0.1,0.5
			c-0.1,0-0.2,0.1-0.2,0.1c-0.3,0.4-0.5,1-0.8,1.4c-0.2,0.2-0.4,0.3-0.5,0.5c-0.1,0.2,0,0.4-0.2,0.6c-0.2,0.3-0.6,0.6-0.8,0.9v0.5
			c-0.1,0.1-0.2,0.2-0.3,0.2c-0.1,0.2,0,0.3-0.2,0.5c-0.2,0.4-0.6,0.8-0.8,1.2c-0.2,0.4,0,0.7-0.2,1.2c-0.2,0.3-0.6,0.5-0.7,0.8v0.4
			c-0.2,0.4-0.7,0.9-0.9,1.3c0,0.1,0.1,0.2,0.1,0.2c0,0.1-0.3,0.1-0.3,0.2c-0.1,0.3-0.2,0.5-0.2,0.8c-0.1,0.1-0.2,0.2-0.3,0.2
			c-0.1,0.2,0,0.4-0.2,0.6c-0.1,0.1-0.2,0.2-0.3,0.2c-0.1,0.2,0,0.5,0,0.6c-0.3,0.7-0.9,1-1,1.8h-0.1l-0.3-0.6h-0.2
			c0.1,0.3,0.4,0.8,0.3,1c-0.5,1.6-1.4,3.5-2.3,5c-0.1,0.2-0.3,0.6-0.1,0.9h-0.3c-0.3,0.2-0.4,1.2-0.6,1.6c-0.1,0.1-0.3,0.1-0.4,0.2
			c0,0.1,0.1,0.3,0.1,0.4c-0.1,0.2-0.4,0.4-0.5,0.6v0.4h-0.2c-0.2,0.2-0.2,0.4-0.4,0.6c-0.1,0-0.2,0.1-0.2,0.1
			c-0.1,0.1,0,0.4-0.1,0.6c-0.1,0.2-0.5,0.3-0.6,0.5c-0.7,1-1.3,2.2-1.9,3.2c0,0.1,0.1,0.2,0.1,0.2c-0.1,0-0.2,0.1-0.2,0.1
			c-0.3,0.4-1.1,2.4-1,2.8c-0.1,0.2-0.2,0-0.2,0.3c-0.3,0-0.4,0.2-0.7,0.2c-0.2,0.9-0.5,0.7-0.9,1.3c0,0.2-0.1,0.3-0.1,0.5
			c-0.1,0.2-0.5,0.4-0.7,0.6h-0.5c0,0.2,0.1,0.2,0.2,0.4c-0.3,0.2-1.3,1.7-1.5,2.1c-0.1,0.1,0.1,0.4,0.1,0.4
			c-0.1,0.1-0.6,0.4-0.7,0.5l-0.2,1.2l-0.9,0.9c-0.3,0.5-0.3,1-0.5,1.4c-0.3,0.5-1.2,1.3-1.3,1.9c-0.9,0.2-1.5,2-1.9,2.7
			c-0.5,0.7-1.5,0.9-2,1.7h-0.5c0-0.1,0.1-0.3,0.1-0.4h-0.2c0,0.3,0,0.3-0.2,0.5c0,0.6-0.2,0.5-0.4,0.9c-0.3-0.3-0.3-1.1-0.2-1.6
			h-0.2c-0.2,0.5,0.2,1.7,0,2.1c-0.1,0.3-0.2-0.1-0.2,0.4c-0.7,0-1.1,0.5-1.6,0.8c-0.5-0.4-1.7,0.9-1.9,1h-0.7
			c-0.1,0.1-0.1,0.2-0.2,0.2c-0.2,0.1-0.4-0.1-0.5-0.2c-0.3-0.1-0.3,0.2-0.5,0.2c-0.6-0.1-1.7-0.4-2.3-0.7c-0.7-0.3-1.5,0.1-2.2-0.2
			c-0.4-0.2-1-0.7-1.4-0.7c-0.2-0.1-0.1,0-0.2-0.2c-1.6-0.2-2.4-0.8-3.6-1.5c-0.2,0-0.4-0.1-0.6-0.1c-0.6-0.3-1.6-0.6-2.2-0.9
			c-0.2,0-0.4-0.1-0.6-0.1c-0.7-0.4-1.2-1.1-2.3-1.1v-0.3c-0.9-0.1-1.2-0.7-1.9-0.9c-0.2,0-0.4-0.1-0.6-0.1c-0.3-0.2-0.7-0.5-1-0.7
			c-0.3-0.2-0.6-0.1-0.9-0.3c-0.1-0.2-0.3-0.3-0.4-0.5c-0.4-0.2-0.8,0-1.2-0.2c-0.1-0.1-0.2-0.3-0.2-0.4c-0.3-0.2-0.6-0.1-0.9-0.3
			c-0.1,0,0,0,0-0.1c-0.2-0.4-1.1-0.5-1.6-0.7c-0.5-0.2-1.2-0.8-1.8-0.9c-0.2,0-0.4,0.1-0.6,0.1c-0.1,0-0.1-0.3-0.2-0.4
			c-0.1-0.1-1.5-0.6-1.6-0.6c0-0.1,0.1-0.2,0.1-0.2c-1.1,0.1-1.6-0.5-2.5-0.9c0.1-0.3,0-0.2,0.2-0.3v-0.2c-0.3,0-0.5,0.3-0.7,0.2
			c-0.8-0.1-1.1-0.7-2.1-0.7c0-0.2,0-0.2-0.1-0.3c-0.3-0.1-1.1-0.2-1.6-0.2v-0.3c-0.7,0-0.8-0.3-1.4-0.5c-0.8-0.3-1.8-0.5-2.6-0.8
			c-0.3-0.1-0.6,0-0.9-0.2c-0.1-0.1-0.1-0.3-0.2-0.4c-0.3-0.2-0.5-0.1-0.8-0.3c-0.1-0.1-0.2-0.2-0.2-0.3c-0.2,0-0.4-0.1-0.5-0.1
			c-0.3-0.2-0.7-0.6-1.1-0.7h-0.4c-0.1-0.1-0.3-0.3-0.4-0.4c-0.2-0.1-0.5-0.1-0.7-0.2c-0.1-0.1-0.2-0.3-0.3-0.4
			c-0.3-0.2-0.6-0.2-0.9-0.4c0.1-0.1-0.3-0.6-0.5-0.7h-0.4c-0.1-0.2-0.1-0.4-0.2-0.5c-0.1-0.1-0.4-0.1-0.5-0.2
			c-0.2-0.1-0.5-0.5-0.6-0.7c-0.2-0.3-0.3-0.7-0.5-1.1c-0.8-1.2-1.3-2.7-1.4-4c0-0.4-0.1-1.6,0.1-1.9c0.1-0.1,0.2-0.2,0.3-0.2v-0.5
			c0.2-0.6,0.6-1.3,0.8-1.9c0.1-0.5,0-0.9,0.1-1.2c0.1-0.3,0.4-0.6,0.5-0.9c0.2-0.5-0.1-0.7,0-1.1c0.1-0.3,0.4-0.6,0.5-0.9
			c0-0.3,0.1-0.6,0.1-0.9c0.2-0.4,0.5-0.6,0.7-0.9c0.2-0.3,0.1-0.5,0.3-0.8c0.1-0.2,0.5-0.4,0.5-0.6c0.1-0.2-0.1-0.6,0.1-0.9
			c0-0.1,0.3-0.1,0.3-0.2c0.2-0.3,0.3-0.6,0.4-1c0.2,0,0.4-0.1,0.7-0.1c-0.1-0.2-0.1-0.2-0.4-0.3c0.2-0.6,0.7-0.9,0.9-1.5
			c0.2-0.4,0.1-0.9,0.3-1.2c0.3-0.5,0.8-1.3,1-1.9c0.1-0.3,0.1-0.6,0.3-0.9h0.2c0-0.2,0.1-0.3,0.1-0.5h0.2c0-0.2-0.1-0.4-0.1-0.6
			c0.1-0.2,0.4-0.4,0.5-0.5c0.2-0.4,0.1-0.9,0.3-1.3c0.1-0.1,0.3-0.2,0.4-0.3c0.2-0.4,0.1-0.7,0.3-1.1c0.2-0.4,0.7-0.9,0.9-1.3
			c0-0.3,0.1-0.6,0.1-0.9c0.1-0.2,0.5-0.4,0.5-0.7c0-0.1-0.1-0.3-0.1-0.4c0.1-0.1,0.4-0.1,0.5-0.3c0.2-0.5,0.1-1,0.3-1.6
			c0.2-0.5,0.7-1.2,0.9-1.7c0.2-0.4,0.1-0.8,0.3-1.2c0.1-0.1,0.2-0.1,0.3-0.2c0.1-0.2,0-0.5,0-0.6c0.1-0.2,0.6-0.9,0.8-1.2
			c0-0.1,0.1,0-0.1-0.2v-0.2h0.3c0.1-0.7,0.4-0.8,0.5-1.2c0.1-0.2-0.2-0.4-0.1-0.6c0.1-0.1,0.3-0.3,0.4-0.4c0.1-0.2-0.1-0.3,0-0.5
			l0.5-0.5c0-0.2-0.1-0.3-0.1-0.5c0.1-0.2,0.9-1.6,1-1.8c0.1-0.1,0.2,0,0.3,0.2h0.2c-0.1-0.3-0.2-0.4-0.3-0.6
			c0.5-0.2,0.5-0.9,0.9-1.5c0.2-0.3,0.6-0.6,0.8-0.9c0.2-0.3,0.2-0.7,0.4-1.1c0.1-0.1,0.3-0.2,0.4-0.3c0-0.1-0.1-0.2-0.1-0.2
			c0.2-0.4,0.6-0.8,0.8-1.2v-0.4c0.1-0.3,0.4-0.4,0.5-0.6v-0.3c0.2-0.3,0.7-0.7,0.9-1c0.2-0.3,0.1-0.6,0.3-0.9
			c0.2-0.3,0.6-0.7,0.8-1c0-0.2,0.1-0.4,0.1-0.5c0.2-0.2,0.4-0.4,0.6-0.6c0.1-0.2,0-0.4,0.2-0.6c0.1-0.1,0.2-0.1,0.3-0.2
			c0-0.2,0.1-0.3,0.1-0.5c0.1-0.1,0.3-0.1,0.4-0.2c0.2-0.2,0.1-0.4,0.2-0.6c0.1,0,0.2-0.1,0.2-0.1v-0.3c0.2-0.1,0.3-0.3,0.5-0.4
			c0.1-0.2,0-0.4,0.2-0.6l0.5-0.5c0.3-0.6,0.7-1.6,1.1-2.1c0.1-0.1,0.3-0.1,0.3-0.2c0.3-0.4,0.3-1,0.5-1.5c0.1-0.3,0.6-0.6,0.8-0.8
			c0,0,0.1-0.6,0.2-0.7c0.4-0.4,0.9-0.9,1.2-1.4c0.2-0.2,0.1-0.6,0.3-0.9c0.2-0.2,0.5-0.2,0.6-0.5c0.3-0.4,0.3-1.1,0.5-1.6
			c0.2-0.1,0.4-0.3,0.5-0.4c0.2-0.3,0.2-0.6,0.4-0.9c0.2-0.3,0.5-0.5,0.7-0.7c0.3-0.3,0.6-1.1,0.9-1.5V316c0.2-0.3,0.6-0.7,0.7-1.1
			c0-0.2,0.1-0.3,0.1-0.5c0.1-0.1,0.3-0.2,0.4-0.3c0-0.1-0.2-0.2-0.1-0.3c0.1-0.1,0.2-0.2,0.3-0.2c0-0.2,0.1-0.5,0.1-0.7
			c0.1-0.2,0.6-0.3,0.7-0.5c0,0,0-0.5,0.2-0.7c0.3-0.5,0.7-1.1,1.1-1.6c0.2-0.3,1.1-2.1,1.1-2.2c0.1-0.4,0.4-0.3,0.6-0.5
			c-0.2-0.2,0.7-1,0.9-1.2c0.1-0.3-0.1-0.4,0-0.5c0.1-0.1,0.2-0.1,0.2-0.2c0.2-0.4,0.2-0.7,0.4-1.1c0.1-0.1,0.3-0.2,0.4-0.3
			c0.2-0.3,0.1-0.6,0.3-1c0.2-0.3,0.6-0.7,0.8-1.1c0.2-0.5,0.2-0.9,0.5-1.5c0.5-1,1.4-1.6,1.5-2.9c0.2,0,0.1,0,0.2-0.1
			c0.4-0.2,1.4-2,1.4-2.6c0.2,0,0.6-0.4,0.5-0.6c-0.1-0.6,1.4-2.7,1.5-3.6c0.7-0.2,1.2-2.9,1.6-3.6c0.2-0.1,0.3-0.3,0.5-0.4
			c0.1-0.2,0.2-0.6,0.3-0.8c0.1-0.1,0.5-0.5,0.6-0.6v-0.5c0.1-0.2,0.4-0.7,0.6-0.8c0.2,0,0.4-0.1,0.5-0.1c0.2-0.1,1-2.1,1-2.4
			c0-0.1-0.1-0.3-0.1-0.4c0.2-0.3,0.5-0.5,0.5-1l0.2,0.2h0.2c-0.1-0.2-0.1-0.3-0.2-0.4c0-0.5,0.8-1.9,1.1-2.3
			c0.1-0.1,0.4-0.2,0.5-0.4c0.1-0.3,0.1-0.5,0.2-0.7l0.5-0.5c0.1-0.2,0-0.4,0.2-0.6c0.2-0.4,0.6-0.8,0.9-1.2c0-0.1-0.2-0.4-0.1-0.6
			c0.1-0.3,0.5-0.5,0.6-0.7l0.2-0.7c0.2-0.3,0.5-0.5,0.6-0.9v-0.3c0.1-0.1,0.2,0,0.3-0.1c0,0,1-1.9,1-1.9c0.1-0.3-0.2-0.4,0-0.7
			c0.1,0,0.2-0.1,0.2-0.1c0.2-0.3,0.2-0.6,0.4-0.9c0.1-0.2,0.4-0.2,0.5-0.4h0.2c0.1-0.7,1.4-2.3,1.8-2.9c0.5-0.7,0.2-1.5,1.1-1.9
			v-0.2c0.4-0.1,0.7-0.7,0.8-1v-0.4c0.1,0,0.2-0.1,0.2-0.1c0.1-0.1,0-0.3,0.1-0.4h0.2c0-0.2,0.1-0.5,0.1-0.7c0-0.1,0.3-0.4,0.4-0.5
			c0-0.2-0.1-0.3-0.1-0.5c0.2-0.1,0.3-0.2,0.5-0.3c0-0.1,0.1-0.3,0.1-0.4c0.2-0.3,0.5-0.7,0.7-1v-0.3c0.2-0.2,0.4-0.4,0.6-0.5
			c0-0.2,0.1-0.3,0.1-0.5c0.2-0.4,0.6-1,0.8-1.5c0-0.2,0.1-0.5,0.1-0.7c0.1-0.1,0.2-0.2,0.3-0.2c0.1-0.3,0.2-0.7,0.2-1
			c0.2-0.4,0.6-1,0.8-1.5v-0.5l0.5-0.5h0.3c0.1-1.4,1.7-2.4,1.9-3.7c0.7-0.2,0.5-0.9,0.9-1.5c0.1-0.1,0.2-0.2,0.3-0.2
			c0.2-0.3,0.1-0.5,0.3-0.9c0-0.1,0.3-0.2,0.3-0.2c0.2-0.4,0.3-0.9,0.5-1.3c0.2-0.3,0.5-0.7,0.7-1c0.1-0.2,0.1-0.4,0.2-0.6
			c0.1-0.1,0.2-0.1,0.3-0.2c0.1-0.2,0.1-0.3,0.2-0.5c0.1-0.2,0.4-0.3,0.5-0.5c0.1-0.3,0.2-0.6,0.3-0.9c0.1,0,0.2-0.1,0.2-0.1v-0.5
			c0.3-0.6,0.5-1.5,0.9-2.2c0.2-0.3,0.5-0.9,0.7-1.1c0.1-0.1,0.3,0,0.4-0.2V234c0.1-0.1,0.3-0.3,0.4-0.4c0.2-0.2,0.1-0.5,0.2-0.8
			c0.2-0.3,0.6-0.8,0.7-1.2c0.2-0.4-0.1-0.7,0.1-1.1l0.8-1.1c0.1-0.1,0.3,0,0.4-0.2c0.2-0.3,0.5-1,0.7-1.4c0-0.2,0.1-0.4,0.1-0.5
			c0.1-0.1,0.4-0.2,0.5-0.3c0.2-0.3,0.1-0.7,0.3-1c0.1-0.2,0.5-0.4,0.7-0.6c0.3-0.4,0.3-0.8,0.5-1.2l0.5-0.5c0.1-0.3,0.2-0.7,0.2-1
			c0.3-0.6,1-1.1,1.3-1.7c0.2-0.4,0.5-1.2,0.7-1.5c0.1,0,0.2-0.1,0.2-0.1c0.4-0.4,0.6-0.9,0.9-1.4c0.1,0,0.2-0.1,0.2-0.1
			c0.1-0.2,0.1-0.4,0.2-0.6c0.2-0.3,0.7-0.4,0.9-0.7c0.1-0.2,0.1-0.3,0.2-0.5c0.3-0.4,0.8-0.6,1-1c0.7-0.9,1.3-1.7,2.2-2.4h0.2
			c0.4-0.3,0.8-1,1.2-1.3c0.5-0.4,1.2-0.6,1.7-1c0.3-0.2,0.5-0.6,0.9-0.8c0.6-0.3,1.2-0.3,1.7-0.7c1.9,0,1.8,0,2.8,0.9
			c0.9-0.1,1.9-0.7,2.9-0.4c0.3,0.1,0.7,0.5,1,0.6c0.3,0.1,0.5,0.1,0.8,0.2c0.1,0.1,0.2,0.2,0.2,0.3c0.3,0.1,0.6,0,0.9,0.2
			c0.1,0.1,0.2,0.2,0.2,0.3h0.4c0.3,0.1,0.6,0.4,0.9,0.5c0.4,0.1,0.9,0.2,1.3,0.3c0.3,0.2,0.6,0.4,1.2,0.5v0.2
			c0.4,0.1,0.5,0.3,0.8,0.4c0.7,0.3,1.4,0.3,2,0.7c0.1,0.1,0.2,0.3,0.3,0.4c0.7,0.5,1.7,0.5,2.5,0.9c0.7,0.3,1.5,1,2.3,1.2
			c0.7,0.2,1.1,0,1.7,0.2c0.6,0.3,1.2,0.9,1.8,1.2c0.2,0.1,0.5,0,0.5,0c0.4,0.2,1.1,0.6,1.6,0.9h0.3c0,0,0.3,0.4,0.3,0.4
			c0.4,0.3,0.9,0.4,1.4,0.6c0.2,0.1,0.4,0.4,0.5,0.5c0.4,0.3,1,0.3,1.5,0.5c0.3,0.2,0.5,0.5,0.8,0.7c0.5,0.3,1.3,0.3,1.7,0.6
			c0.1,0.1,0.2,0.4,0.3,0.5c0.5,0.3,1.1,0.5,1.6,0.8c0.3,0.1,0.5,0.5,0.7,0.6c0.4,0.2,1,0.3,1.4,0.5c1.5,0.8,3,1.4,4.5,2.2
			c0.4,0.2,0.7,0.6,1,0.8c0.2,0.1,0.5,0.1,0.8,0.2c0.1,0,0.1,0.3,0.2,0.3c0.2,0.1,0.4,0.1,0.6,0.2c0.4,0.3,0.6,0.9,0.9,1.2
			c0.2,0.1,0.5,0.3,0.7,0.4c0.6,0.6,1,1.4,1.6,2.1c0.3,0.5,1,0.8,1.2,1.3c0.2,0.3,0.1,0.6,0.3,0.9c0.2,0.2,0.4,0.3,0.5,0.5
			c0.1,0.2,0.3,0.6,0.3,0.8C474.9,236.1,474.2,237,474.3,238z M344.2,364c0,0.1,0.1,0.2,0.1,0.2c0.3,0.1,0.4-0.4,0.9,0
			c0.7,0,1.1-0.5,1.4-0.9h0.2c0.1-0.5,0.3-1.3,0.4-1.7c-0.2-0.2-0.2-0.3-0.3-0.5c-0.4-0.5-1.1-0.6-1.8-0.9c-0.3-0.1-0.7-0.5-1.1-0.2
			c-0.7,0-1,0.4-1.5,0.8c-0.1,0.6-0.4,1.9-0.1,2.3c0.1,0.3,0.9,0.9,1.2,1C343.8,364.2,344.1,364,344.2,364z M344.4,361.2
			c0.5,0.1,0.4,0.3,0.7,0.5c0.2,0.1,0.6,0,0.7,0.1c0,0.1,0,0.1,0.1,0.2c0,0.4-0.8,0.8-1.2,0.9c-0.2-0.2-0.4-0.3-0.6-0.5
			c-0.1-0.2-0.1-0.6-0.2-0.8C344,361.4,344.1,361.4,344.4,361.2z M348.4,379.4c-0.1-0.3-0.4-0.6-0.5-0.9c-0.5-0.2-0.7-0.4-1.2-0.5
			c0.1-0.2,0.3-0.3,0.5-0.4v-0.2c-0.3,0.1-0.6,0.3-0.9,0.4h-0.9v0.2c-0.1-0.1-0.2-0.1-0.5-0.2c-0.3,0.3-1.5,1.4-1.6,1.7
			c-0.1,0.2,0.2,0.3,0.2,0.4c-0.1,0.2-0.4,0.4-0.4,0.8c0,0.3,0.3,0.5,0.3,0.9h0.2v0.2c0.5,0.1,0.6,0.4,0.9,0.5
			c0.1,0.1,0.7-0.1,0.9-0.1c0.1,0,0.3,0.3,0.5,0.3c0.2,0.1,0.2-0.1,0.3-0.2c0.2,0,0.3,0.1,0.5,0.1c0.6-0.3,1.5-0.7,1.7-1.4
			c0.2-0.4-0.1-0.4-0.2-0.6C348.3,380.1,348.4,379.7,348.4,379.4z M346.7,380.8c-0.4,0.2-0.9-0.2-1.4-0.1c-0.1-0.1-0.2-0.2-0.3-0.2
			c0-0.7,0.2-0.9,0.4-1.2c0.5-0.1,0.8,0,1.3,0.1c0.1,0.3,0.3,0.8,0.5,1.1C347.1,380.7,347,380.7,346.7,380.8z M359.3,338.1
			c0.5-0.2,1,0.1,1.2-0.3c0-0.1,0.1-0.3,0.1-0.4c0.1-0.2,0.4-0.5,0.5-0.7c0-0.1-0.1-0.4-0.2-0.5c0.1-0.5,0.2-0.8,0.5-1.1V335
			c-0.3,0.1-0.5,0.3-0.6,0.5c-0.2-0.3-0.3-0.8-0.5-1.1c-0.4-0.4-2-0.6-2.6-0.8c-0.1,0.1-0.2,0.2-0.2,0.3c-0.3-0.1-0.2-0.1-0.4-0.2
			c-0.3,0.3-0.7,0.9-0.9,1.3c-0.2,0.3,0.1,0.6,0,0.9c-0.1,0.3-0.3,0.3-0.3,0.7c0.1,0,0.1,0,0.1,0.1c0,0.2,0,0.4,0.2,0.5
			c0.3,0.3,0.8,0.2,0.9,0.2C357.5,337.9,358.6,338.3,359.3,338.1z M358.8,335.6c0-0.3,0-0.2,0.2-0.3v-0.1l0.3,0.3
			c-0.1,0.2-0.2,0.2-0.4,0.3h-0.1v0.2c0.1,0,0.2-0.1,0.5-0.1c0,0.2,0,0.2-0.1,0.2c-0.1,0.3-0.2,0.3-0.5,0.5h-0.1
			C358.6,336.2,358.6,335.9,358.8,335.6z M358,335c0.2,0.1,0.4,0.2,0.5,0.3c-0.1,0.4-0.2,0.7-0.2,1.1c-0.4,0-0.6,0-0.8-0.2
			C357.3,335.9,357.8,335.3,358,335z M361.4,354.3c0.3-0.1,1.2-2,1.1-2.5c-0.1-0.5-0.5-0.9-0.6-1.5c-0.3-0.1-0.3-0.2-0.5-0.3h-0.1
			c-0.2,0-0.4,0.1-0.6,0.1c-0.1-0.1,0-0.2-0.2-0.2c-0.1,0-0.3,0.2-0.4,0.2c-0.4-0.1-0.9-0.2-1.3-0.2c-0.6,0.1-1.3,0.5-1.7,0.9
			c-0.1,0.1-0.5,1.2-0.4,1.5c0.1,1.3,2.3,2,3.6,2.3C360.7,354.6,361.3,354.2,361.4,354.3z M358.4,352.2c0-0.2,0-0.2-0.1-0.2
			c0.1-0.3,0.4-0.4,0.5-0.6c0.5,0,1.2-0.1,1.5,0.2c0.5,0,0.4,0.1,0.7,0.3c0,0.2,0,0.2-0.1,0.2c0,0.6-0.2,0.5-0.5,0.8
			c-0.5,0-1-0.1-1.4-0.1C358.9,352.5,358.7,352.3,358.4,352.2z M359.9,371.3c1.2,0.8,2.1,0.6,3.3,0.1c0.1-0.2,0.3-0.4,0.3-0.5
			c0-0.3-0.1-0.5-0.1-0.8c0.1,0,0.2-0.1,0.2-0.1c0.6-1.1-0.3-2-0.7-2.6h-1.2c-0.1-0.1-0.3-0.3-0.5-0.3c-0.2,0-0.9,0.2-1.3,0.2
			c-0.8,0.8-1.1,0.7-1.3,1.9c0.3,0.3,0.2,0.5,0.3,0.9c0,0.1,0.4,0.7,0.5,0.9C359.4,371.1,359.7,371.1,359.9,371.3z M360.9,368.3
			c0.1-0.1,0,0,0.2-0.1c0.2,0.2,0.3,0.1,0.3,0.5c0.2,0,0.2,0,0.2,0.1c0.3,0,0.3,0.1,0.5,0.2c0,0.3,0,0.8-0.2,1.2
			c-0.2,0-0.3,0.1-0.4,0.2c-0.8-0.1-0.8-0.6-1.4-0.8c0-0.2-0.1-0.4-0.1-0.5C360.3,368.8,360.6,368.4,360.9,368.3z M365.8,386.1
			c0-0.1-0.1-0.2-0.1-0.2c-0.8-0.3-4-1.1-4.9-0.7c-0.1,0.1-0.2,0.3-0.3,0.4c-1.2,0.5-1.7,0.7-1.6,2.4c0.1,0.2,0.1,0.4,0.2,0.5
			c0.3,0.3,1.5,0.8,1.9,1h0.5c0.4,0.2,0.9,0.8,1.5,0.4c0.8,0,1.6-1.9,1.3-2.3c0-1-0.4-1.5-1-1.9v-0.1
			C364.3,385.7,365,386,365.8,386.1z M362.8,388.1c-0.1,0.1-0.2,0.1-0.2,0.2c-0.4,0-0.4-0.2-0.6-0.2c-0.5-0.2-0.5,0.2-0.9,0
			c0,0-0.1-0.1-0.1-0.1c0.2-0.1,0.5-0.1,0.7-0.2v-0.2c-0.3,0.1-0.9,0.1-1.2,0c0-0.3,0.1-0.4,0-0.5c0.1-0.3,1.1-0.7,1.5-0.5
			c0.4,0,0.7,0.4,0.9,0.7C363,387.5,362.9,387.8,362.8,388.1z M445.2,285l-0.5-0.7c-0.3-0.2-0.6-0.1-0.9-0.2
			c-0.4-0.2-0.8-0.4-1.2-0.5c0-0.1-0.1-0.1-0.1-0.3c-0.5-0.1-0.6-0.4-1-0.5c-0.5-0.2-1-0.2-1.5-0.5c-0.1-0.1-0.2-0.3-0.2-0.4
			c-0.2,0-0.5-0.1-0.7-0.1c-0.1-0.1-0.2-0.3-0.3-0.4c-0.2,0-0.4-0.1-0.5-0.1c-0.1-0.1-0.1-0.2-0.2-0.3c-0.4-0.3-1-0.6-1.5-0.8
			c0-0.1-0.1-0.3-0.1-0.5c-1.1,0.2-1.5-0.8-2.3-1.2c-0.3-0.1-0.5-0.1-0.8-0.2c-0.5-0.3-1-0.8-1.6-1.1c-0.3-0.1-0.5,0-0.8-0.2
			c-0.2-0.1-0.5-0.4-0.8-0.5c-0.4-0.2-1.1-0.1-1.4-0.2c-0.1,0-0.3-0.3-0.5-0.3c-0.9-0.3-1.9-0.2-2.5-0.9h-0.1c0-0.2,0-0.1,0.1-0.2
			c-0.2-0.4-0.9,0-1.3-0.3c0-0.1-0.1-0.2-0.1-0.2c-0.3-0.3-0.7-0.2-1.1-0.5c-0.1-0.1-0.2-0.2-0.2-0.3c-0.3-0.2-0.6-0.1-1-0.2
			c-0.3-0.1-0.7-0.5-0.9-0.7c-0.5-0.3-1.1-0.4-1.7-0.7c-0.8-0.4-1.6-1.1-2.4-1.4c-0.5-0.2-0.9-0.2-1.3-0.4c-0.2-0.1-0.3-0.3-0.5-0.4
			h-0.6c0-0.1-0.1-0.2-0.1-0.2c-0.4-0.3-0.9-0.1-1.4-0.2c-0.3-0.1-0.8-0.4-1.1-0.5c-0.5-0.2-0.9-0.2-1.3-0.4
			c-0.2-0.1-0.3-0.4-0.5-0.5c-0.5-0.3-1.1-0.4-1.6-0.8c-0.1-0.1-0.2-0.2-0.2-0.3c-0.1,0-0.2,0.1-0.3,0.1c-0.5-0.2-1-0.7-1.5-0.9
			c-0.3-0.1-1.1-0.3-1.3-0.5c0-0.1-0.1-0.2-0.1-0.3c-0.2,0-0.4-0.1-0.5-0.1c-0.2-0.1-0.5-0.4-0.8-0.5c-0.6-0.2-1-0.2-1.6-0.4
			c-0.6-0.3-1.3-0.7-1.9-1c-0.6-0.3-1.2-0.4-1.7-0.7c-0.6-0.4-1.2-0.9-2.3-0.9c-0.4,0.4-1,0.8-1.3,1.2c-0.2,0.4-0.5,0.9-0.7,1.2v0.4
			c-0.1,0.1-0.3,0.1-0.4,0.2c-0.1,0.2-0.3,0.8-0.4,1c-0.2,0.3-0.7,0.7-0.9,1c-0.5,0.7-0.5,1.2-0.9,2c-0.2,0.1-0.3,0.3-0.5,0.4
			c-0.1,0.2-0.1,0.5-0.1,0.5c-0.1,0.1-0.4,0.3-0.5,0.5c0,0.2-0.1,0.4-0.1,0.6c-0.3,0.6-0.9,1.2-1.2,1.8c-0.5,0.8-0.6,1.6-1.1,2.3
			c-0.5,0.8-1.1,1.7-1.7,2.4c-0.1,0.2,0,0.4-0.2,0.6c-0.2,0.3-0.6,0.5-0.8,0.7c-0.2,0.2-0.1,0.5-0.2,0.8c-0.1,0.1-0.3,0.3-0.4,0.4
			c-0.1,0.1,0.1,0.3,0.1,0.3c0,0-0.2,0.1-0.2,0.2v0.3c-0.1,0.1-0.2,0.1-0.3,0.2c-0.1,0.3,0,0.6-0.2,0.9c-0.2,0.2-0.5,0.3-0.6,0.5
			c-0.6,0.9-0.9,1.8-1.5,2.7c-0.2,0.1-0.3,0.3-0.5,0.4c-0.1,0.2,0,0.5-0.2,0.6c-0.1,0.1-0.4,0.1-0.5,0.2c-0.2,0.3-0.1,0.6-0.2,0.9
			c-0.1,0.1-0.2,0.1-0.2,0.2c-0.2,0.4-0.2,0.6-0.5,1.1c-0.1,0.1-0.3,0.3-0.4,0.4c-0.3,0.6-0.4,1.3-0.8,1.9c-0.3,0.6-0.9,1.3-1.2,1.9
			c-0.2,0.4-0.1,0.6-0.3,0.9c-0.1,0.2-0.8,0.8-0.9,1.1c-0.1,0.2,0,0.5-0.2,0.7c-0.1,0.1-0.3,0.2-0.4,0.2c-0.2,0.3-0.1,0.5-0.3,0.8
			c-0.1,0-0.2,0.1-0.2,0.1c-0.2,0.2,0,0.5-0.2,0.8l-0.5,0.5c-0.3,0.4-0.4,0.9-0.7,1.4c-0.1,0.1-0.2,0.2-0.3,0.2
			c-0.1,0.2-0.1,0.5-0.2,0.6c-0.2,0.4-0.6,0.9-0.8,1.3c-0.1,0.2-0.1,0.9-0.1,0.9c-0.1,0-0.2,0.1-0.2,0.1c0,0.2-0.1,0.4-0.1,0.6
			c-0.2,0.3-0.6,0.7-0.8,1.1v0.3c-0.1,0.1-0.3,0.4-0.4,0.5c-0.1,0.3-0.1,0.6-0.2,0.9c-0.3,0.6-1.1,1.1-1,1.9c-0.1,0-0.1,0.1-0.3,0.1
			c0.1,0.2,0,0.1,0.2,0.2v0.1c-0.2-0.1-0.3-0.1-0.4-0.3h-0.2c0,0.3,0.3,0.5,0.2,0.8c-0.1,0.3-0.4,0.5-0.5,0.8
			c-0.1,0.3-0.1,0.6-0.2,0.9c-0.1,0.1-0.3,0.2-0.4,0.3c-0.2,0.3-0.2,0.8-0.4,1.1l-0.5,0.5c-0.1,0.2,0,0.4-0.2,0.6
			c-0.1,0.1-0.2,0.2-0.3,0.2c0,0.2-0.1,0.4-0.1,0.5c-0.2,0.4-0.8,0.8-0.7,1.4c-0.2,0.2-0.5,0.3-0.6,0.5c0,0.1,0.1,0.2,0.1,0.2
			c-0.4,0.5-0.2,0.5-0.5,1.1c-0.2,0.3-0.7,0.6-0.9,1.1c-0.2,0.5-0.3,0.9-0.5,1.4c-0.1,0.2-0.4,0.5-0.5,0.8c0,0.1,0.1,0.2,0.1,0.2
			c-0.1,0-0.2,0.1-0.2,0.1c-0.2,0.2-0.2,0.5-0.3,0.8l-0.3,0.3c-0.3,0.7-0.4,1.4-0.8,2c-0.5,1-1.1,1.3-1.2,2.5
			c0.2,0.2,0.4,0.6,0.6,0.8c0.2,0.1,0.3,0,0.4,0.2c0.2,0.2,0.1,0.5,0.3,0.6c0.4,0.2,0.7,0.2,1.2,0.4c0.4,0.2,0.8,0.6,1.1,0.8
			c0.4,0.1,0.9,0.2,1.3,0.3c0.1,0.1,0.1,0.2,0.2,0.2h0.5c0.1,0.1,0.1,0.2,0.2,0.3c0.3,0.2,0.7,0.5,1,0.7h0.3
			c0.1,0.1,0.1,0.3,0.2,0.4c0.3,0,0.5,0.1,0.8,0.1c0,0.1,0.1,0.2,0.1,0.2c0.3,0.2,0.7,0.1,1,0.3c0,0.1,0.1,0.2,0.1,0.2
			c0.4,0.3,0.9,0.2,1.3,0.4c0.1,0.1,0.3,0.3,0.4,0.3c0.2,0.1,0.8,0.1,0.9,0.2c0.1,0.1,0.2,0.4,0.3,0.5c0.6,0.4,1.4,0.5,2,0.9
			c0.1,0.1,0.3,0.3,0.4,0.4c0.5,0.3,1.1,0.4,1.6,0.7c0,0.1,0.1,0.2,0.1,0.2c0.2,0,0.4-0.1,0.6-0.1c0.2,0.1,0.4,0.4,0.6,0.5h0.5
			c0.1,0.1,0.4,0.3,0.5,0.4h0.3l0.3,0.3c0.4,0.2,0.7,0.2,1.2,0.4c0.5,0.2,1,0.7,1.5,1c0.4,0.3,0.8,0.1,1.2,0.2
			c0.1,0.1,0.2,0.3,0.3,0.4c0.2,0,0.4,0.1,0.5,0.1c0.4,0.2,0.9,0.5,1.2,0.7c0.2,0,0.4,0.1,0.5,0.1c0.2,0.1,0.6,0.4,0.9,0.5
			c0.1,0,0.2-0.1,0.3-0.1c0.2,0.2,0.4,0.4,0.6,0.6c0.1,0,0.2-0.1,0.2-0.1c0.5,0.2,0.9,0.7,1.3,1c0.2,0,0.3,0.1,0.5,0.1
			c0.2,0.1,0.3,0.4,0.5,0.5c0.6,0.2,0.9,0.1,1.5,0.3c0.2,0.1,1.2,0.5,1.5,0.6c0.1,0.1,0.2,0.2,0.2,0.3c0.1,0,0.2-0.1,0.3-0.1
			c0.1,0,0.4,0.1,0.5,0.2c0.2,0.1,0.3,0.3,0.5,0.4h0.5c0.2,0.1,0.2,0.5,0.4,0.5c0.1,0,0.3-0.1,0.4-0.1c0.3,0.1,0.9,0.3,1.2,0.5
			c0.3,0.1,0.7,0.5,1,0.6h0.5c0.1,0.1,0.2,0.3,0.3,0.4l0.7,0.2c0.1,0.1,0.2,0.3,0.3,0.4c0.2,0.1,0.5,0.1,0.6,0.2
			c0.1,0.2,0,0.2-0.2,0.3v0.2c0.3-0.1,0.3-0.1,0.5-0.3c0.4,0.2,0.9,0.2,1.2,0.4c0.6,0.3,1.1,0.8,1.6,1.2c0.3,0.2,0.7,0.1,1,0.3
			c0.4,0.2,0.7,0.7,1.1,0.9c0.2,0.1,0.5,0.1,0.7,0.2c0.3,0.2,0.7,0.6,1,0.8c0.3,0.1,1.7,0.3,1.9,0.2c0.2-0.1,0.5-0.4,0.9-0.2
			c1,0,1-1.2,1.4-1.9c0-0.1,0.5-0.5,0.5-0.5c0-0.1-0.1-0.3-0.1-0.4c0.2-0.7,0.8-1.4,1.1-2c0.2-0.5,0.3-0.9,0.5-1.3
			c0.3-0.4,0.8-0.9,1-1.3c0.2-0.4,0.2-0.8,0.4-1.2c0.4-0.6,0.9-1.3,1.3-1.9c0.2-0.3,0.2-0.7,0.4-1.1c0.2-0.4,0.8-0.8,1-1.2
			c0.3-0.5,0.3-1,0.6-1.6c0.1-0.2,0.4-0.4,0.5-0.6v-0.4c0.2-0.3,0.6-0.7,0.8-1c0.1-0.2,0.1-0.4,0.2-0.6c0.1-0.3,0.4-0.6,0.5-0.9
			c0.1-0.2-0.1-0.5,0.1-0.6c0.1-0.2,0.4-0.2,0.5-0.4c0.2-0.3,0.3-0.9,0.5-1.2c0.1-0.1,0.4-0.2,0.5-0.3v-0.4l0.3-0.3
			c0.1-0.2,0.1-0.4,0.2-0.5c0.2-0.3,0.6-0.6,0.8-1v-0.5c0.1-0.3,0.6-0.7,0.8-1c0-0.2,0.1-0.4,0.1-0.6c0.1-0.1,0.3-0.2,0.4-0.3v-0.5
			c0.1-0.2,0.4-0.5,0.5-0.7v-0.5c0.1,0,0.2-0.1,0.3-0.1c0.3-0.3,0.6-1.1,0.5-1.5c0.4-0.7,0.9-1.5,1.3-2.3c0.1-0.3,0-0.5,0.1-0.6
			c0.1-0.2,0.4-0.2,0.5-0.3c0.1-0.2,0-0.4,0.1-0.6c0.1-0.2,0.4-0.3,0.5-0.5c0.3-0.5,0.4-1,0.7-1.5c0.1,0.1,0.2,0.1,0.2,0.2h0.2
			c-0.1-0.2-0.2-0.3-0.4-0.5c0.1-0.2,0.5-0.3,0.5-0.5c0.1-0.2-0.1-0.3,0-0.5c0.2-0.3,0.6-0.7,0.7-1c0.1-0.3,0-0.7,0.2-1
			c0.2-0.3,0.6-0.6,0.8-1c0.1-0.2,0-0.4,0.1-0.6c0.3-0.5,1-1,1.2-1.6c0-0.2,0.1-0.4,0.1-0.6c0.2-0.5,0.7-1.1,0.9-1.6
			c0.2-0.3,0.1-0.5,0.2-0.9l0.5-0.5c0.1-0.3,0.2-0.6,0.3-0.9c0.3-0.5,0.8-1.1,1-1.6c0.2-0.5,0.2-0.9,0.5-1.2
			c0.1-0.1,0.3-0.1,0.3-0.2c0.5-0.7,0.5-1.6,0.9-2.3c0.1-0.2,0.4-0.4,0.5-0.6V298c0.1-0.2,0.5-0.2,0.6-0.4c0.2-0.2,0.1-0.8,0.2-1
			c0.1-0.1,0.3-0.1,0.4-0.2v-0.5c0.2-0.2,0.4-0.3,0.5-0.5c0-0.2,0.1-0.4,0.1-0.5c0.1-0.3,0.5-0.7,0.6-1c0.2-0.4,0.1-0.6,0.2-1
			c0.3-0.3,0.6-0.6,0.9-0.9c0-0.2,0.1-0.4,0.1-0.5c0.2-0.5,0.7-1.2,0.9-1.7l0.2-0.7l0.8-0.8c0.5-0.8,0.6-1.6,1.2-2.3
			c0-0.3-0.1-0.5-0.2-0.7C445.6,285,445.5,285.1,445.2,285z M443.6,286.7v0.5c-0.1,0.1-0.2,0.1-0.3,0.2c-0.2,0.2-0.5,0.7-0.6,0.9
			c0,0.2-0.1,0.4-0.1,0.5l-0.5,0.5c-0.2,0.3-0.1,0.6-0.2,1c-0.4,0.9-1.1,1.7-1.6,2.6c-0.1,0.2,0,0.4-0.1,0.6c-0.2,0.6-0.8,1.3-1,1.9
			v0.5c-0.2,0.3-0.7,0.6-0.9,0.9c-0.7,1.1-1.2,2.3-1.9,3.3c-0.3,0.5-0.2,1.3-0.6,1.8c-0.1,0.1-0.3,0.1-0.4,0.2v0.4
			c-0.1,0.2-0.4,0.4-0.5,0.5c-0.1,0.1-0.1,0.6-0.3,0.9c-0.2,0.4-0.7,0.9-0.9,1.2v0.5c-0.1,0.1-0.3,0.3-0.4,0.5
			c-0.2,0.4-0.2,0.9-0.4,1.2c-0.3,0.5-0.8,0.9-1.1,1.4c-0.2,0.3-0.2,0.7-0.4,1c-0.3,0.4-0.7,0.9-0.9,1.3c-0.1,0.3,0,0.8-0.2,1.1
			c-0.2,0.3-0.6,0.6-0.7,0.9c-0.2,0.4-0.2,0.8-0.4,1.2c-0.1,0.2-0.4,0.4-0.5,0.6v0.4c-0.1,0.1-0.3,0.2-0.4,0.3
			c0,0.2-0.1,0.3-0.1,0.5c-0.2,0.4-0.7,0.9-0.9,1.4c0,0.2-0.1,0.5-0.2,0.7c-0.2,0.3-0.5,0.6-0.6,0.9v0.5c-0.2,0.4-0.7,0.7-0.9,1.1
			c0,0.1,0.1,0.2,0.1,0.2c-0.1,0.2-0.4,0.5-0.5,0.6c-0.3,0.5-0.3,1.2-0.6,1.7c-0.1,0.2-0.6,0.5-0.7,0.8c0,0.1,0.1,0.2,0.1,0.3
			c-0.2,0.4-0.5,0.9-0.7,1.2v0.4l-0.5,0.5c0,0.2-0.1,0.3-0.1,0.5c-0.1,0.2-0.5,0.4-0.6,0.6c0,0.2-0.1,0.4-0.1,0.5
			c-0.3,0.5-1,1-1.2,1.6c-0.1,0.4,0,0.7-0.2,1c-0.5,0.8-1.2,1.5-1.7,2.3c0,0.2-0.1,0.4-0.1,0.6c-0.2,0.5-0.6,0.9-0.9,1.4
			c-0.2,0.4-0.2,0.8-0.4,1.2c-0.1,0-0.2,0.1-0.2,0.1c-0.4,0.4-0.5,1.2-0.9,1.6c-0.2,0.1-0.3,0.3-0.5,0.4v0.3
			c-0.2,0.4-0.5,0.9-0.8,1.2c-0.2,0.4-0.2,0.8-0.5,1.2c-0.6,1.1-1.5,2.2-2.1,3.3c-0.2,0.3-0.1,0.5-0.3,0.9c-0.1,0.2-0.4,0.4-0.5,0.6
			v0.4c-0.2,0.3-0.6,0.5-0.7,0.9c-0.2,0.5,0,0.9-0.5,1.1c-0.3,0.1-0.5-0.3-0.7-0.4c-0.3,0-0.6-0.1-0.9-0.1c-0.3-0.1-0.7-0.5-0.9-0.6
			c-0.4-0.2-0.8-0.5-1.2-0.6h-0.4c-0.1-0.1,0-0.2-0.1-0.3c-0.1,0-0.3-0.1-0.4-0.1c-0.1-0.1-0.3-0.3-0.4-0.4
			c-0.4-0.1-0.8-0.3-1.2-0.4c-0.7-0.5-1.6-1.2-2.6-1.3c0-0.1,0-0.1,0.1-0.2v-0.2c-0.2,0.1-0.2,0.1-0.3,0.3c-0.5-0.2-0.8-0.7-1.2-0.9
			c-0.1,0-0.2,0.1-0.3,0.1c-0.1-0.1-0.3-0.3-0.4-0.4c-0.2,0-0.4-0.1-0.6-0.1c-0.1-0.1-0.3-0.3-0.5-0.4c-0.4-0.1-0.9-0.1-1.2-0.3
			c0-0.1-0.1-0.2-0.1-0.2c-0.2,0-0.4-0.1-0.6-0.1c-0.1,0-0.1-0.3-0.2-0.3h-0.4c-0.4-0.2-1-0.4-1.5-0.7c-0.1-0.1,0-0.1-0.1-0.2
			c-0.5,0-0.6-0.3-0.9-0.4c-0.2-0.1-0.2,0.1-0.3,0.1c-0.2,0-0.9-0.4-1.2-0.5c-0.2,0-0.3,0.1-0.5,0.1l-0.5-0.5
			c-0.3-0.2-0.8-0.2-1.1-0.5c-0.6-0.4-1.3-1.1-2.2-1.2v-0.2c-0.9-0.1-1.8-0.7-2.6-1h-0.5c-0.2-0.1-0.5-0.4-0.7-0.5
			c-0.3-0.1-0.6-0.1-0.9-0.2c-0.1-0.1-0.1-0.2-0.2-0.3c-0.4-0.1-0.8-0.3-1.2-0.4c-0.7-0.4-1.4-1.1-2.3-1.2c0.1-0.1,0-0.1,0.2-0.2
			v-0.2c-0.7,0.1-1.2,0.1-1.6-0.4c-0.2-0.1-0.1,0-0.1-0.2c0,0-0.1-0.1-0.1-0.1h-0.8v-0.2c-0.9,0-2.5-1.1-3.1-1.5
			c-0.2-0.1-0.5-0.1-0.7-0.2c-0.5-0.2-1.1-0.7-1.7-0.9h-0.4c-0.1,0-0.1-0.3-0.2-0.3c-0.4-0.2-1-0.4-1.4-0.6
			c-0.4-0.2-0.9-0.2-1.2-0.4c-0.6-0.4-1.1-0.9-1.9-1.1v-0.2c-0.9,0-1.6-0.5-2.2-0.9c0,0-1.4-0.4-1.6-0.5c-0.2-0.4,0.3-0.7,0.5-1
			c0-0.1-0.1-0.2-0.1-0.2c0-0.2,0.4-0.3,0.5-0.5v-0.4c0.2-0.6,0.6-1.2,0.9-1.7c0.2-0.3,0.1-0.6,0.3-0.9c0.1,0,0.2-0.1,0.2-0.1
			c0.4-0.6,0.5-1.5,0.9-2.1c0.1-0.1,0.2-0.2,0.3-0.2v-0.4c0.1-0.1,0.3-0.2,0.4-0.2c0,0,0.1-0.7,0.1-0.7c0-0.1,0.2-0.1,0.3-0.2
			c0.3-0.4,0.4-1,0.6-1.4l0.5-0.5c0.3-0.5,0.3-1,0.6-1.6c0.1-0.1,0.3-0.2,0.4-0.3c0.2-0.3,0.3-0.8,0.3-1.2c0.7-0.2,0.7-1.2,1-1.7
			c0.4-0.7,1-1.6,1.3-2.3c0-0.2,0.1-0.4,0.1-0.5c0.2-0.4,0.7-0.8,0.9-1.2c0.1-0.3,0.1-0.7,0.2-1c0.1-0.2,0.3-0.2,0.3-0.6h0.2
			c0.1-0.4,0.3-0.5,0.4-0.8c0-0.1-0.1-0.3-0.1-0.4c0.1,0,0.2-0.1,0.2-0.1c0-0.2,0.1-0.3,0.1-0.5c0.1-0.1,0.2-0.2,0.3-0.2
			c0-0.1-0.1-0.2-0.1-0.2c0.1-0.1,0.3-0.3,0.4-0.5c0-0.3,0.1-0.5,0.1-0.8c0,0,0.3-0.1,0.3-0.2c0.1-0.2-0.1-0.3,0-0.5
			c0.1,0,0.2-0.1,0.2-0.1c0-0.1-0.2-0.2-0.1-0.3c0.1,0,0.2-0.1,0.2-0.1c0.3-0.4,0.5-0.9,0.8-1.2c0.2-0.3,0-0.5,0.2-0.9
			c0.3-0.6,1.6-2.7,2.1-2.9c-0.1-0.2-0.2-0.2-0.3-0.4c0.5-0.2,1-1,1.2-1.5c0-0.2,0.1-0.3,0.1-0.5c0.3-0.4,0.9-0.9,1.1-1.4
			c0-0.1-0.1-0.2-0.1-0.3l0.5-0.5c0.1-0.1,0.4-1,0.5-1c0-0.2-0.1-0.3-0.1-0.5c0.1-0.1,0.3-0.2,0.4-0.3c0.1-0.3,0.1-0.5,0.2-0.8
			c0.1-0.3,0.3-0.3,0.4-0.6c0.4-0.1,0.4-0.5,0.7-0.7c0-0.3-0.1-0.2-0.2-0.5c0.1,0.1,0.1,0.1,0.3,0.2c0.1-0.5,0.6-0.9,0.9-1.2
			c0.2-0.2,0.1-0.5,0.2-0.8c0.2-0.4,0.7-0.8,1-1.2c0.2-0.3,0.2-0.7,0.3-0.9c0.2-0.3,0.7-0.7,0.9-1c0.1-0.3-0.1-0.7,0.1-1
			c0.1-0.2,0.4-0.3,0.5-0.5c0.2-0.3,0.2-0.8,0.3-0.9c0.2-0.2,0.7-0.3,0.9-0.5c0.1-0.2,0-0.4,0.2-0.6c0.1-0.1,0.3-0.2,0.4-0.3
			c0.1-0.1,0-0.5,0-0.5c0.1-0.1,0.3-0.1,0.3-0.2c0.3-0.4,0.5-1,0.6-1.5h0.2c0.1-0.5,0.3-0.7,0.5-1c0.1-0.2,0-0.4,0.2-0.7
			c0.1-0.3,0.5-0.5,0.6-0.7c0-0.1,0.1-0.3,0.1-0.4l0.5-0.5c0.1-0.2,0.3-0.5,0.3-0.6v-0.5c0.1-0.3,0.6-0.5,0.7-0.8v-0.5
			c0.1-0.3,0.6-0.6,0.8-0.9c0.1-0.2-0.1-0.2-0.1-0.3c0.1-0.3,0.6-0.5,0.8-0.9V267c0.1-0.1,0.3-0.2,0.4-0.2c0.3-0.4,0.4-0.8,0.6-1.2
			c0.1-0.1,0.2-0.2,0.3-0.2c0.1-0.2,0.1-0.7,0.1-0.7c0.1,0,0.2-0.1,0.2-0.1c0.2-0.2,0.4-0.7,0.7-0.9c0.3-0.2,0.2,0,0.4-0.2
			c0.4,0.1,2.1,0.8,2.5,1.1c0.1,0,0.1,0.3,0.2,0.3c0.2,0,0.4,0.1,0.6,0.1c0.4,0.2,0.8,0.5,1.2,0.7c0.5,0.2,0.9,0.2,1.5,0.4
			c0.5,0.2,1.2,0.8,1.7,0.8c0.1,0.2,0,0.3,0,0.5l0.1,0.1c0.2-0.1,0.2-0.2,0.2-0.4c1.1,0.4,2.4,1.3,3.3,1.9c0.4,0.2,0.9,0.2,1.2,0.5
			c0,0.1,0.1,0,0,0.2c0.1,0.1,0.5,0.3,0.6,0.4h0.4c1.1,0.7,2.5,1.1,3.8,1.6c0.4,0.1,0.7,0,1,0.2c0.4,0.2,1,0.7,1.3,0.9
			c0.3,0.1,0.7,0.1,1,0.3c0.1,0.1,0.2,0.3,0.3,0.4c0.6,0.4,1.4,0.5,2,0.9c0.2,0.1,0.3,0.4,0.5,0.5c0.9,0.4,2.5,0.8,3,1.5
			c0.1-0.1,0.2-0.1,0.2-0.2c0.3,0.3,0.7,0.8,1.2,0.9c0.3,0.1,1.3,0.2,1.6,0.3c0.1,0.1,0.1,0.3,0.2,0.4c0.3,0.2,1.2,0.1,1.4,0.2
			c0.1,0,0.4,0.3,0.5,0.3h0.9c0.5,0.2,1.1,0.6,1.6,0.9c0.2,0,0.3,0.1,0.5,0.1c0.4,0.2,0.8,0.6,1.2,0.9c0.2,0,0.3,0.1,0.5,0.1
			c0,0.1,0.1,0.2,0.1,0.2l0.7,0.2c0.3,0.2,0.5,0.7,0.9,0.9c0.2,0.1,0.4,0,0.6,0.2c0.1,0.1,0.2,0.2,0.2,0.3h0.3
			c0.1,0,0.2,0.3,0.2,0.3c0.2,0,0.3,0.1,0.5,0.1c0.3,0.3,0.6,0.6,0.9,0.9c0.5,0.3,1.1,0.3,1.7,0.6c0,0,0.8,0.6,0.9,0.6
			c0,0.1,0.1,0.2,0.1,0.2c0.3,0.1,0.5,0.1,0.8,0.2c0.8,0.4,1.5,1.1,2.6,1.3C443.9,286.3,443.7,286.3,443.6,286.7z M368,321.8
			c-0.1-0.1-0.4,0-0.5,0.1c-0.4,0.1-0.5,0.6-0.5,1c0.1,0.1,0,0.1,0.1,0.2c0.2,0.1,0.3,0.2,0.5,0.3c0.7,0,0.8-0.2,1.2-0.6
			C368.6,322.3,368.4,322,368,321.8z M371.4,317.9c0.5-0.3,0.2-1.1-0.1-1.4c-0.5,0-0.7,0.1-1.1,0.2c0,0.1-0.1,0.4-0.2,0.5
			c-0.1,0.1-0.4,0.1-0.5,0.2c-0.2,0.1-0.1,0-0.2,0.2c0.5-0.1,1.1,0.3,1.4,0.6C371.2,318.1,371.3,318.1,371.4,317.9z M370.9,299.6
			c-0.2,0-0.4,0-0.5,0.1h-0.2v0.2c0.2,0,0.5-0.1,0.7-0.1L370.9,299.6L370.9,299.6z M371,325.2c-0.8,0.4-0.2,1.4-0.1,1.9
			c0.5-0.1,1-0.1,1.5-0.2v-0.2c0.1,0.1,0.1,0.1,0.2,0.2c0,0,0.1-0.1,0.1-0.1c0.2-0.2-0.5-1.4-0.6-1.6
			C371.8,325,371.4,324.9,371,325.2z M374.5,344.8c0.1,0,0.3,0.3,0.4,0.3c0.4,0.1,0.5-0.3,0.9-0.1c0.8-0.1,1.4-1.6,1.6-2.4
			c-0.3-0.3-0.3-0.8-0.6-1c-0.1-0.1-0.3,0.1-0.5,0c-0.2-0.1-0.3-0.3-0.7-0.4c0-0.2-0.1-0.3-0.2-0.5c-0.2-0.3-0.5-0.3-0.7-0.5
			c-1.5,0.2-1.5,0.8-2.5,1.2c-0.4,1.7,0.3,2.3,1.2,3.4C373.6,344.8,374.3,344.7,374.5,344.8z M373.5,342.9v-0.8
			c0.2-0.1,0.2-0.2,0.3-0.4c0.4,0.1,0.2,0.2,0.4,0.4h0.3c0.1,0.1,0.2,0.3,0.3,0.4c0.2,0.1,0.6,0.2,0.8,0.3c0,0.2,0,0.2-0.1,0.3
			c-0.1,0.2-0.1,0.2-0.2,0.3c-0.7,0-0.9,0-1.4,0.1C373.8,343.2,373.7,343,373.5,342.9z M373.6,310.1c-0.2,0-0.3,0.1-0.5,0.2
			c0.1,0.4,0.2,0.3-0.1,0.5c0,0.4,0.2,0.7,0.3,0.9c0.2,0,0.9,0,1.1-0.1h0.2c0.2-0.7,0.2-0.5,0.1-1.2
			C374.2,310.4,373.9,310.2,373.6,310.1z M375.5,361.9c0.8,0,1.2-0.1,1.4,0.5c0.2-0.1,0.2-0.2,0.1-0.4c0.2-0.2,0.6-0.3,0.8-0.5
			c0.1-0.2,0.1-0.4,0.2-0.5c0.3-0.3,0.6-0.3,0.8-0.8c0.3-0.4,0-0.7-0.2-1v-0.7c-0.1-0.3-0.8-1-1-1.2c-0.2-0.1-0.5,0-0.8-0.1
			c-0.6-0.2-1.5-0.3-1.9,0.2c-0.1,0.2,0,0.3-0.2,0.5c-0.2,0.2-0.6,0.3-0.7,0.5c-0.1,0.2,0,0.4-0.2,0.6c-0.1,0.1-0.3,0.2-0.4,0.3
			c0,0.1,0,0.7-0.1,1c0.2,0.2,0.1,0.3,0.2,0.5C374.1,361.5,375.1,361.3,375.5,361.9z M375.7,358.4c0.1-0.1,0.1,0,0.3,0.1
			c0-0.1,0.1-0.2,0.1-0.4c0.3,0.1,0.3,0.2,0.7,0.2v0.2h0.2c0.1,0.4,0.4,0.8,0.2,1.2c-0.1,0.5-0.6,0.3-0.8,0.8
			c-0.3,0-0.5-0.2-0.6-0.2c-0.3-0.1-0.5,0.1-0.8,0.2C375.1,359.8,375.3,358.8,375.7,358.4z M378.6,376.6c0.2-0.3-0.1-1.5-0.2-2.2
			c-0.3,0-0.4,0-0.5-0.2c-0.1-0.1-0.1-0.4-0.1-0.8c-2-0.1-3.4,0.8-3.7,2.6c-0.1,0.4,0.2,0.6,0.2,0.9c1,0.4,1.7,1,3.2,0.9
			C377.9,377.5,378.2,377,378.6,376.6z M376.8,376.3c-0.2,0-0.4,0-0.5-0.1c-0.6,0-0.5-0.3-0.5-0.9c0.3-0.1,0.5-0.2,0.6-0.4
			c0.2,0.1,0.2,0.1,0.3,0.2v0.2c-0.2,0.1-0.4,0.2-0.5,0.3c-0.1,0.1,0,0.1-0.1,0.2c0.4,0,0.6-0.2,0.9-0.3c0,0,0.1,0.1,0.1,0.1
			C377.1,376,377,376,376.8,376.3z M377.4,304.2c-0.7,0-1,0-1.3,0.4c-0.4-0.1-0.9-0.4-1.1-0.7c-0.2,0-0.3,0.1-0.4,0.2
			c0.7,0.4,1.3,0.8,1.6,1.6c0.7,0.1,1.1,0,1.6-0.3C377.8,304.6,377.7,304.6,377.4,304.2z M379.4,392.8c-0.1-0.3-1.9-1.1-2.4-1.2
			c-0.6,0.5-1.5,0.9-1.8,1.7c-0.2,0.2-0.2,0.6-0.2,1c0.1,0.1,0.1,0.2,0.2,0.3c0.1,1.2,1.7,1.1,2.2,1.9c0.9-0.1,1.1-0.7,1.9-0.9
			c0-0.2,0.1-0.4,0.2-0.5c0-0.5,0.1-0.6,0.4-0.7c0-0.4-0.1-0.6-0.3-0.8L379.4,392.8L379.4,392.8L379.4,392.8z M377.7,394.7
			c-0.4-0.1-0.7-0.4-1.1-0.5l0.2-0.7c0.2,0,0.2-0.1,0.3-0.2c0.4,0,0.5,0.2,0.8,0.4c0,0.1,0,0.1,0.1,0.2
			C378,394.4,377.9,394.4,377.7,394.7z M378.6,329c0.2-0.4,0.1-0.4-0.2-0.8c-0.3,0-0.7,0-0.8,0c-0.2,0-0.3,0-0.5,0.1
			c-0.1,0.3-0.2,0.6-0.2,1c0.1,0.2,0.3,0.5,0.4,0.7c0.2,0,0.5-0.1,0.7-0.1c0.2-0.4,0.3-0.3,0.8-0.5c0-0.1,0-0.1,0.1-0.2
			C378.8,329,378.9,329,378.6,329z M380.6,300c0.5,0,0.6-0.1,0.9-0.3c0-0.5-0.4-1.9-1.2-1.2c-0.3,0.1-0.6,0.5-0.7,0.8
			c0.4,0.1,0.5,0.2,0.8,0.6C380.5,300,380.5,300,380.6,300z M382.5,330.8c-0.3,0.1-0.3,0.2-0.5,0.5c-0.2,0.1-1.5-0.3-1.8-0.5
			c-0.2,0.1-0.1,0-0.2,0.2c0.5,0.3,1.3,0.3,1.9,0.5c0.2,0.2,0.4,0.5,0.5,0.7c0.2,0.1,0.3,0.1,0.5,0.2c0.5-0.1,0.6-0.3,1-0.5
			c0-0.7-0.3-0.9-0.5-1.3C382.9,330.6,382.7,330.6,382.5,330.8z M380.9,280.6L380.9,280.6c-0.2,0-0.1-0.1-0.2,0.2
			c0.1,0.1,0.1,0.1,0.3,0.2C381,280.8,381,280.7,380.9,280.6z M382.7,292.6c0,0.4,0.1,1,0,1.2c0.1,0.3,0.1,0.3,0.3,0.5
			c0.4,0,0.7-0.1,0.9-0.3c0.2-0.1,0.2-0.4,0.4-0.5c0-0.4-0.1-0.5-0.2-0.8C383.5,292.5,383.2,292.5,382.7,292.6z M387.3,287.4
			c-0.2-0.1-0.4-0.3-0.6-0.2c-0.8,0-0.8,0.4-0.9,1.1c0.1,0.1,0,0.1,0.1,0.2c0.2,0.1,0.3,0.2,0.5,0.3c0.3,0,0.4-0.2,0.6-0.1
			c0.3,0,0.3-0.1,0.5-0.2C387.4,288.1,387.4,287.9,387.3,287.4z M387.7,333.5c-0.1,0.2-0.2,0.5-0.2,0.7c0.2,0.2,0.4,0.5,0.5,0.8
			c0.5,0,0.8-0.4,1.1-0.2c0.2-0.1,0.2-0.1,0.3-0.2c-0.1-0.5-0.3-0.8-0.4-1.2C388.5,333.2,388,333.2,387.7,333.5z M389.2,352.1
			c0.1,0.1,0.3,0.3,0.4,0.3c0.5,0.2,0.6-0.3,0.9,0.2c0.9,0,1.2-0.3,1.6-0.9h0.2c0-0.5,0.2-0.7,0.2-1.2c-0.1-0.3-0.1-0.6-0.2-0.9
			c0,0,0.2-0.1,0.2-0.2c-0.6-0.2-1.1-0.6-1.6-1c-0.4,0-0.5,0-0.7,0.2c-0.1-0.1-0.1-0.1-0.2-0.2c-0.6,0-0.8,0.2-1.3,0.3
			c-0.1,0.3-0.1,0.4,0,0.7c-0.2,0.1-0.4,0.2-0.5,0.2C388,351.2,387.9,351.5,389.2,352.1z M390.1,349.8c0.1,0,0.4,0.3,0.7,0.5
			c0,0.5-0.3,0.6-0.6,0.8c-0.1-0.2-0.3-0.3-0.5-0.4C389.8,350.3,389.9,349.9,390.1,349.8z M390.3,364.2c-0.4,0.2-0.1,0.4-0.4,0.7
			c-0.2,0.2-0.5,0.2-0.7,0.4c-0.1,0.2-0.1,0.3-0.2,0.5c-0.1,0.2-0.4,0.3-0.5,0.5c-0.3,0.5,0.3,1.1,0.5,1.5c-0.3,0.1-0.6,0.1-0.8,0.3
			c0.2,0.1,0.9-0.2,1.1-0.2c0.1,0.2,0.3,0.4,0.4,0.5c0.3,0.2,1.3,0.1,1.7,0.4c1.2,0,1.3-0.6,2-1.1c0-0.6,0.4-1.5,0.1-1.8
			C393.5,364.5,391.3,363.6,390.3,364.2z M391.9,367.3c-0.3,0-0.9,0.1-1.2-0.1c-0.2-0.1-0.2-0.4-0.6-0.5v-0.2
			c0.3-0.2,0.5-0.5,0.6-0.9h0.3v-0.2c0.3,0,0.4,0,0.5,0.2c0.4,0.2,0.4,0.5,0.9,0.7C392.4,366.7,392.1,366.9,391.9,367.3z
			 M391.2,380.1c-0.5,0.3-0.3,0.2-0.9,0.2c-0.2,0-0.3,0.1-0.5,0.1c-0.1,0-0.4-0.1-0.5-0.1c-0.2,0.1-0.5,0.3-0.7,0.5
			c-0.1,0.6-0.2,1.4-0.2,1.9c0.2,0.2,0.1,0.4,0.3,0.6c0.3,0.4,0.8,0.5,1.1,0.9c0.7,0.1,1.5,0.5,2,0.1c0.5-0.4,0.5-1.2,1-1.6
			c0-1-0.1-1.3-0.5-1.9C391.9,380.6,391.4,380.6,391.2,380.1z M391,382.5v0.2h-0.5c0-0.1,0.1-0.1,0.1-0.3h-0.5
			c-0.1-0.1,0-0.1-0.2-0.2c0-0.3,0.1-0.3,0.2-0.5c0.5,0.1,0.8,0.1,1.2,0.2c0,0.2,0.1,0.4,0.1,0.5L391,382.5L391,382.5z M390.5,281.9
			c-0.6,0-0.7,0.2-0.8,0.6c0.2,0.2,0.4,0.5,0.5,0.7c0.3,0,0.7,0.2,0.9,0c0.2-0.1,0.3-0.2,0.5-0.3c-0.1-0.3-0.3-0.8,0-1.2v-0.2
			l-0.3,0.3C391,281.9,390.6,281.7,390.5,281.9z M394.6,276.9c-0.1-0.2-0.3-0.4-0.4-0.5c-0.2,0-0.1,0.2-0.3,0.2
			c-0.1,0-0.2-0.4-0.5-0.2c-0.2,0.1-0.3,0.3-0.5,0.4c0,0.2-0.1,0.5-0.1,0.7c0.2,0.2,0.4,0.4,0.6,0.5
			C394.2,277.9,394.6,277.7,394.6,276.9z M394.8,337.1c0.1-0.1,0,0,0.1-0.2c-0.2-0.2-0.3-0.4-0.4-0.6c-0.2-0.1-0.8-0.2-1,0
			c-0.3,0.1-0.3,0.3-0.5,0.5c0,0.3,0,0.3,0,0.6c0.2,0.2,0.3,0.4,0.5,0.5c0.4,0,0.7-0.1,0.8,0.1c0.3-0.1,0.2-0.2,0.5-0.3
			c0-0.1,0.1-0.3,0.1-0.4h-0.3v-0.1C394.7,337.2,394.7,337.2,394.8,337.1z M396.5,271.4c-0.2,0.2-0.5,0.4-0.7,0.5
			c0,0.3-0.1,0.5-0.1,0.8c0.4,0.1,0.6,0.3,0.9,0.5c0.3,0,0.4,0,0.5-0.2c0.3-0.1,0.5-0.8,0.5-1C397.5,271.6,397,271.4,396.5,271.4z
			 M399.5,269.1c-0.2-0.6-0.6-1.1-0.9-1.6c-0.4,0-0.5,0-0.8,0.2c-0.1,0.3-0.2,0.6-0.2,0.9c0.3,0.2,0.6,0.4,0.9,0.7
			C398.8,269,399.1,269,399.5,269.1z M399.2,338.4L399.2,338.4c0.1-0.1,0.3-0.1,0.4-0.2V338c-0.8,0-1.3,0.2-1.5,0.9
			c-0.1,0.3,0.2,0.7,0.4,1c0.5,0,0.7,0,1.1-0.2l0.3-0.3c0-0.5-0.2-0.6-0.2-1L399.2,338.4L399.2,338.4z M401.2,354.7
			c0.1,0,0.1,0.1,0.3,0.1v-0.2c0,0-0.1-0.1-0.1-0.1C401.1,354.6,401.3,354.5,401.2,354.7z M405.1,354.7c-0.4-0.2-2.4-0.1-2.8,0.4
			c-0.3-0.1-0.5-0.3-0.8-0.4v0.2c0.2,0.1,0.4,0.3,0.5,0.4c-0.2,0.5-0.5,1.3-0.2,1.8v0.3c0.1,0.1,0.3,0.1,0.4,0.2
			c0.1,0.1,0.1,0.2,0.2,0.3c0.3,0.2,0.6,0.5,0.9,0.7v0.1c0.5,0.3,1,0.3,1.4,0.6c0.4,0,0.9-0.4,0.8-0.7h0.4c0.1-0.1,0.5-0.4,0.5-0.5
			C407.1,356.9,406,354.9,405.1,354.7z M405.1,357.4h-0.3v0.2c-0.6-0.1-1-0.6-1.6-0.8c0-0.1-0.1-0.2-0.1-0.2
			c0.1-0.1,0.2-0.3,0.3-0.4c0.3,0,0.7,0.1,0.9,0c0.6,0.1,0.6,0.4,0.9,0.8C405.2,357.2,405.2,357.2,405.1,357.4z M401.9,254.5
			c0.1,0.1,0.4,0.2,0.5,0.4c1,0.1,2,0.2,2.8-0.2c0-0.1,0.1-0.2,0.1-0.2c0.2-0.1,0.3,0,0.5-0.2c0.2-0.3,0.2-0.6,0.4-0.9
			c0.1-0.3,0.3-0.8,0-1.2c-0.2-0.7-0.7-0.9-1.2-1.3c-1,0.2-2.6,0.7-2.9,1.6c-0.2,0.4-0.3,1.1-0.2,1.7
			C401.9,254.1,401.8,254.3,401.9,254.5z M403.4,252.8c0.1-0.4,0.4-0.4,0.7-0.6c0.2,0.1,0.2,0.1,0.4,0.2c0,0.6-0.2,0.6-0.4,0.9
			c-0.3,0-0.5-0.1-0.8-0.1C403.3,253.1,403.3,252.9,403.4,252.8z M403.7,271.5c0.1-0.1,0.3-0.3,0.4-0.4c-0.1-0.4-0.2-0.5-0.2-0.9
			c-0.2-0.1-0.4-0.2-0.5-0.4c-0.6,0-0.7,0.2-1,0.5c0,0.2-0.1,0.4-0.1,0.6c0.2,0.2,0.6,0.5,0.8,0.7
			C403.4,271.6,403.6,271.6,403.7,271.5z M404.3,341.1c-0.1-0.1-0.1,0-0.2-0.1c-0.4,0.1-0.6,0.4-0.9,0.6c0,0.2-0.1,0.3-0.1,0.5
			c0.8,0.6,0.5,0.7,1.5,0.2c0-0.1,0.1-0.2,0.2-0.3C404.7,341.5,404.6,341.3,404.3,341.1z M408.5,273.7c-0.1,0.2-0.2,0.3-0.4,0.4v0.2
			c0.2-0.1,0.6-0.2,0.8-0.3c0.2-0.1,0.3-0.5,0.5-0.6c0-0.3,0.2-0.7,0-0.9c-0.2-0.6-1.1-0.3-1.6-0.1c0,0.3-0.1,0.5-0.1,0.8
			C407.9,273.3,408,273.6,408.5,273.7z M408.7,342.9c-0.4,0-0.4,0.1-0.7,0.3c0,0.2-0.1,0.3-0.1,0.5c0.2,0.2,0.3,0.6,0.6,0.7
			c0.1,0.1,0,0.1,0.2,0c0.3,0,0.6,0,0.9-0.1c0-0.2,0.1-0.4,0.2-0.5c0-0.4-0.2-0.6-0.3-0.9C409.1,342.9,408.8,343,408.7,342.9z
			 M409.5,269.4v-0.2h-0.4v0.2l0.1,0.1C409.4,269.5,409.4,269.5,409.5,269.4z M412.6,339.4c0-0.3-0.3-0.6-0.4-0.9
			c-0.5-0.1-0.9-0.2-1.2,0.1c-0.1,0.1-0.2,0.1-0.2,0.2v0.6c0.2,0.2,0.4,0.5,0.6,0.7c0.1,0,0.1,0,0.2-0.1c0.5,0.1,0.9,0.6,1.1,0.9
			c0.1,0.1,0.1,0,0.2,0.1h0.1c-0.1-0.4-0.5-0.5-0.5-0.8C412.3,339.9,412.6,339.5,412.6,339.4z M413.8,231.3c0.1,0.1,0.1,0.2,0.2,0.2
			c0.6,0.2,2.2-0.9,2.4-1.2c0.2-0.3,0.1-0.6,0.2-1.1c0.3-1.4-0.7-1.7-1.5-2.3c-1.5,0.1-2,1.1-2.9,1.7c0,0.6-0.1,0.9-0.2,1.3
			c0.1,0.1,0.1,0.5,0.2,0.6C412.5,231.4,413.1,231,413.8,231.3z M413.6,229.4c0.4-0.3,0.5-0.8,1.1-0.9c0.1-0.1,0.2,0,0.5,0.1
			l0.1,0.1c0,0.2,0,0.4-0.1,0.5c-0.1,0.6-1,0.8-1.6,0.6V229.4z M413,335.7c0.2,0.1,0.5,0.6,0.7,0.8c0.4,0,0.4,0,0.7-0.2
			c0-0.2,0-0.4,0.2-0.5c0-0.6-0.1-0.7-0.3-1C413.5,334.7,413.2,335.1,413,335.7z M413.7,276.6c0.2,0,0.4,0.1,0.5,0.1
			c0.5,0,0.6,0,0.8-0.4c0.1-0.2,0.1-0.9-0.1-1.1c-0.1-0.2-0.3-0.3-0.5-0.2c-0.5,0-0.5,0.1-0.9,0.2c-0.1,0.2-0.1,0.3-0.2,0.5
			c0.1,0.1,0.1,0.4,0.2,0.5C413.6,276.4,413.6,276.5,413.7,276.6z M414.4,244.7c-0.1,0.2-0.2,0.5-0.2,0.9c0.2,0.3,0.1,0.7,0.3,1
			c0.1,0.2,0.4,0.3,0.5,0.6c1.3,0.3,2.7,0.2,3.4-0.6c0.2-0.2,0.2-0.6,0.3-0.9c0.1-0.1,0.2-0.2,0.3-0.2c0-0.1-0.1-0.3-0.1-0.4
			c0.1-0.4,0.3-1,0.1-1.6c0,0-0.2-0.2-0.2-0.2c0-0.1,0.1-0.3,0.2-0.4v-0.2c-0.2,0.1-0.2,0.1-0.4,0.2l-0.5-0.5
			C416.9,242.4,414.8,243.5,414.4,244.7z M416.9,244c0.2,0,0.4,0,0.5-0.1c0.1,0.1,0.1,0.1,0.2,0.3c0.2,0.4-0.3,1.1-0.4,1.6
			c-0.5,0.1-0.8,0-1.4,0l-0.1-0.1c0-0.2,0-0.3-0.1-0.4C416,244.6,416.5,244.5,416.9,244z M415.4,330.1c-0.5,0-0.7,0.1-0.9,0.4
			c-0.1,0.1,0,0.1-0.1,0.2c0.2,0.2,0.4,0.7,0.5,0.9c0.8,0.3,1-0.1,1.4-0.6c-0.1-0.5-0.2-0.7-0.4-1C415.7,330,415.6,330,415.4,330.1z
			 M418,257.2c-1,0.1-1,0.8-1.7,1.2c-0.1,0.6-0.2,1-0.2,1.7c0.2,0.2,0.1,0.6,0.3,0.9c0.2,0.8,0.9,0.6,1.6,0.8c0.1,0,0.4,0.2,0.5,0.2
			c0.4,0.1,0.4-0.2,0.5-0.2c0.3-0.1,0.6-0.1,0.9-0.2c0.3-0.3,0.6-0.6,0.9-0.9c0.2-0.3,0.3-0.7,0.5-1c0-0.8-1.1-2.1-1.7-2.2
			C419,257.2,418.6,257.9,418,257.2z M419.3,259.4c-0.1,0.6-0.6,0.7-1,1c-0.6,0-0.6-0.2-0.9-0.3c0.1-0.3,0.3-0.6,0.4-0.9
			c0.5-0.1,0.9-0.1,1.4,0C419.2,259.2,419.3,259.3,419.3,259.4z M417.9,324v0.7c0.2,0.2,0.4,0.4,0.5,0.6c0.3,0,0.6-0.1,0.8-0.2
			c0.1,0,0.1-0.1,0.2-0.1c0-0.5,0.2-0.8-0.2-1.2C418.8,323.4,418.3,323.7,417.9,324z M420.3,278.1c-0.2-0.1-0.1-0.1-0.1-0.3
			c-0.3,0.1-0.6,0.4-0.8,0.5c-0.1,0.2-0.2,0.4-0.2,0.7c0.1,0.1,0.1,0.2,0.2,0.2c0.3,0.7,1,0.3,1.5,0.1c0-0.5-0.1-0.5-0.2-1
			C420.7,278.3,420.4,278.2,420.3,278.1z M422.7,318.6c-0.2,0-0.5,0-0.6,0.1c-0.6,0.2-0.1,0.4-0.4,0.8c-0.2,0.2-0.4,0.1-0.5,0.4
			c0.2,0,0.2-0.1,0.3-0.2c0.3,0.1,0.4,0.3,0.5,0.5c0.3,0,0.7,0.2,0.9-0.1c0.4-0.1,0.4-0.6,0.5-1C423,318.9,422.9,318.8,422.7,318.6z
			 M426.1,281.7c0-0.6,0-0.9-0.5-1c-0.1-0.1-0.4-0.1-0.8-0.1c-0.2,0.2-0.4,0.3-0.6,0.5v0.3c0.2,0.2,0.3,0.5,0.5,0.7
			c0.1,0.1,0.2,0.1,0.2,0.2c0.5,0,0.6-0.1,0.9-0.2C426,281.9,426,281.8,426.1,281.7z M425.1,312.2c0,0.4,0,0.8-0.1,1
			c0.2,0.1,0.6,0.2,0.8,0.4c0.5,0,0.6-0.2,0.9-0.4C426.7,311.9,426,312,425.1,312.2z M426.7,224.4c1.6,0,1.8-0.1,2.9-0.8h0.2
			c0.2-0.2,0.3-0.6,0.5-0.9c0-1.5-1.1-3.3-2.7-2.1c-1.7-0.1-1.6,0.7-2,1.8c0.1,0.2,0.1,0.7,0.2,0.9
			C425.9,224.1,426.3,224,426.7,224.4z M427.2,222.3c0.2-0.1,0.4-0.4,0.5-0.6c0.5,0,0.6,0.1,0.9,0.3c0,0.2,0,0.4-0.1,0.5
			c-0.1,0.3-0.5,0.3-0.8,0.5c-0.4,0-0.4-0.1-0.6-0.3L427.2,222.3L427.2,222.3z M428.6,235.1c-0.6,0.2-1.3,1.1-1.3,1.9
			c0.2,0.3,0.1,0.8,0.3,1c0,0.8,0.4,0.6,0.7,1.1c1.7,0,3.2,0,3.9-1.2c0.2-0.3,0-1.1-0.1-1.8c-0.4-0.4-0.9-0.9-1.5-1.1h-0.9
			C429.5,235,429,234.8,428.6,235.1z M430.1,236.5c0.2,0,0.4,0,0.5,0.1c0,0.1,0,0.1,0.1,0.2c0,0.7-0.6,1.3-1.2,0.9
			c-0.6,0-0.5-0.3-0.8-0.6c0.1-0.2,0.2-0.3,0.3-0.5C429.4,236.5,429.8,236.3,430.1,236.5z M427.7,305.4c-0.1,0.1-0.1,0.1-0.2,0.2
			c1,0.6,0.3,1,0.9,1.9c0.3,0,0.6,0,0.7,0.1c0.6,0,1.2,0.7,1.3,1.2h0.2c-0.3-1-1-1.6-1.3-2.6C428.5,305.9,428.2,305.7,427.7,305.4z
			 M429.6,251.7c-0.2,0.5-0.3,1.5-0.5,2c0.1,0.2,0,0.5,0.2,0.7c0.2,0.3,0.6,0.4,0.7,0.8c0.8-0.1,1.8,0.3,2.5-0.2
			c0.8,0,0.6-0.4,1.2-0.6c0.1-0.4,0-1.1,0.2-1.4c0-1.2-0.9-1.3-1.4-2C430.7,250.9,430.7,251.2,429.6,251.7z M431.9,253.7
			c-0.3,0-0.8,0-0.9,0.1h-0.2c-0.1-0.2-0.1-0.6,0-0.9c0.3-0.5,0.9-0.1,1.5-0.1C432.3,253.4,432.1,253.4,431.9,253.7z M431.9,284.9
			c-0.1-0.9-0.3-1-0.9-1.4c-0.3,0.1-0.5,0.3-0.7,0.4c-0.1,0.3-0.2,0.5-0.2,0.9c0.2,0.2,0.4,0.5,0.5,0.7
			C431.3,285.4,431.5,285.1,431.9,284.9z M432.3,300.7c-0.4,0-0.5-0.1-0.7-0.2l-0.3,0.3c-0.3,0-0.3,0-0.4-0.2h-0.2v0.5
			c0.1,0.2,0.3,0.6,0.3,0.9c0.3,0.1,0.5,0.1,0.7,0.2c0.3,0,0.5,0,0.6-0.2c0.2-0.3,0.2-0.6,0.2-1
			C432.4,300.9,432.3,300.8,432.3,300.7z M433.1,264.5c-1.1,0-2.4,1.2-2.4,2.4c0.2,0.2,0.2,0.8,0.4,1c0.1,0.3,0.2,0.2,0.5,0.4
			c0.1,0.2,0.3,0.3,0.4,0.5c0.7,0.5,1.5,0.1,2.3-0.1c0.2,0,0.5,0.1,0.8-0.1c0.6-0.2,0.5-1,1-1.3c-0.1-0.2,0-0.1-0.3-0.2
			c0-0.3,0.2-0.7,0.1-1.2c-0.2-0.5-0.8-1.9-1.6-1.8c-0.3,0-0.6,0.3-0.9,0.5C433.4,264.7,433.2,264.6,433.1,264.5z M434.2,265.6
			c0.1,0,0.1,0,0.2,0.1c0.1,0.2-0.1,0.7,0.1,1c0,0.2,0,0.3-0.1,0.4c-0.2,0.2-1.3,0.3-1.6,0.2c-0.3-0.1-0.2-0.2-0.4-0.4v-0.2
			c0.2-0.1,0.3-0.3,0.4-0.5C433.5,266.2,434,266.1,434.2,265.6z M435.4,286.7c0.3-0.1,0.3-0.2,0.4-0.4c0.1-0.2,0-0.6-0.1-1
			c-0.1-0.1-0.3-0.1-0.4-0.2c-0.2,0-0.4,0-0.5,0.1c-0.3,0.1-0.5,0.4-0.6,0.7c0.1,0.1,0,0.4,0.1,0.6
			C434.3,286.8,435.1,287,435.4,286.7z M434.8,293.7c-0.3,0.1-0.2,0.4-0.5,0.6c0,0.5,0.1,0.6,0.2,0.9c0.7,0.1,0.8-0.1,1.4-0.2
			c0-0.2,0-0.3,0.1-0.4c0-0.5-0.3-0.6-0.5-0.9C435.3,293.6,435.1,293.5,434.8,293.7z M437.9,288.9c-0.5,0-0.5,0.2-0.9,0.5v0.3
			c0.1,0.1,0.1,0.3,0.2,0.5c0.1,0.2,0.1,0.2,0.2,0.3c0.2,0,0.2,0,0.3,0.1c1.3,0,0.8-0.2,1.2-0.9
			C438.9,288.9,438.4,289.2,437.9,288.9z M441.5,230.6c0.7,0,1.2,0.2,1.9,0c0.3-0.1,0.6-0.3,1-0.3c0.1-0.4,0.4-0.8,0.6-1
			c0-1.2-0.5-1.3-0.9-1.9c-0.5,0-0.7-0.2-0.9-0.2c-0.4-0.1-1.1,0.2-1.5,0c-1,0-1.1,1.5-1.1,2.6L441.5,230.6z M442.1,228.5
			c0.2-0.1,0.4-0.2,0.5-0.3c0.5,0,0.5,0.1,0.7,0.2c0,0.4-0.1,0.4-0.3,0.7c-0.2,0-0.3,0.1-0.4,0.2c-0.3,0-0.4-0.1-0.5-0.2V228.5z
			 M444.3,241.9c-0.3-0.1-0.6-0.2-0.9-0.2c-0.9,0.1-1.1,0.9-1.8,1.1c-0.1,0.6-0.3,1.1-0.3,1.8c0.3,0.3,0.3,0.7,0.5,1.1
			c0.1,0.2,0.4,0.3,0.5,0.5c1.6,0.2,2.1,0,3.3-0.5c0.2-0.6,0.7-1.3,0.2-1.9c-0.2-0.5-0.9-0.7-1.2-1.1
			C444.6,242.4,444.5,242,444.3,241.9z M443.5,245c-0.2-0.1-0.4-0.3-0.5-0.4c0-0.2,0-0.2,0.1-0.3c0-0.4,0.1-0.4,0.2-0.7
			c0.5,0.1,0.8,0.4,1.3,0.5c0,0.2,0.1,0.4,0.1,0.7C444.2,244.8,443.8,244.9,443.5,245z M446,257.1h-1.6c-0.1,0.1-0.2,0.2-0.2,0.3
			c-0.5,0.2-0.5-0.1-0.9,0.3c-0.1,0.2,0,0.6-0.1,0.9l-0.3,0.3c-0.1,0.3-0.1,1.1-0.2,1.4c0.7,0.7,1.1,1.4,2.3,1.3
			c0.6,0,0.8,0.2,1.4,0c0.4-0.1,0.7,0,0.9-0.3c0.6-0.8,0.3-1.8,0.5-2.9c-0.6-0.4-1-1.1-1.6-1.3c0,0,0-0.1-0.2-0.1
			C446.1,257,446.1,257,446,257.1z M446.6,259c0,0.3,0,0.8-0.1,1c-0.3,0.5-0.9,0.1-1.2,0.1c-0.2,0.1-0.3,0.1-0.5,0.2
			c-0.1-0.1-0.2-0.3-0.3-0.4v-0.3c0.5-0.3,0.7-0.6,1-0.9c0.1-0.1,0.2-0.1,0.2-0.2C446.1,258.5,446.3,258.8,446.6,259z M449.3,272
			c-0.1-0.2-0.3-0.4-0.5-0.6c-1.1-0.3-2.3-0.3-3.3,0.2c-0.5,0.3-0.8,0.9-1.2,1.2c0,0.9-0.3,1.4,0.1,2.2c0.1,0.3,0.4,0.4,0.5,0.7
			c0.5,0,0.4,0.1,0.8,0.2c0.5-0.1,1-0.2,1.6-0.2h0.7c0.6-0.2,0.9-0.8,1.5-0.8c0.1-0.5,0.1-1,0.2-1.5c0-0.1-0.3-0.4-0.3-0.6V272z
			 M447.9,273.7c-0.2,0.3-1.2,0.8-1.6,0.5c-0.4-0.1-0.3-0.1-0.5-0.3c0.3-0.9,0.9-0.9,1.6-1.3c0.2,0.1,0.3,0.2,0.5,0.3
			C448,273.2,448.1,273.4,447.9,273.7z M459.4,239c0.8-1-0.3-2.6-0.4-3.6c-0.8,0-1.2-0.1-1.5-0.5c-2,0-2.4,1.5-2.3,3.3
			c0.2,0.3,0.4,0.7,0.7,0.9C456.7,239.5,458.8,239.5,459.4,239z M456.6,237.5c0-0.5,0.2-0.6,0.3-0.9c0.7,0.1,0.7,0.5,1.1,0.9
			C458,238.7,456.9,237.9,456.6,237.5z M461.6,250.8c-0.3-0.2-0.6-0.4-0.9-0.7c-0.9,0-1.1,0-1.6,0.4c-0.1,0.1-0.1,0.2-0.2,0.2
			c-0.3,0.1-0.6,0-0.9,0.2c-0.4,0.2-0.6,0.9-0.6,1.4c0.1,0.2,0,0.6,0.1,0.9c0.1,0.3,0.6,0.6,0.8,0.9c0.8,0,2.5,0.5,3,0.2
			c1.1,0,1-1.5,0.9-2.5C462.1,251.4,461.9,251,461.6,250.8z M460.8,252.4v0.3c-0.5,0.1-1.6,0.1-1.9,0.1c0.3-0.6,0.8-0.9,1.2-1.3
			c0.2,0,0.2,0,0.3,0.1c0.3,0.1,0.3,0.3,0.5,0.5C460.9,252.2,460.9,252.3,460.8,252.4z"/>
	</g>
</g>
</svg>
