<?xml version="1.0" encoding="utf-8"?>
<!-- Generator: Adobe Illustrator 21.0.0, SVG Export Plug-In . SVG Version: 6.00 Build 0)  -->
<svg version="1.1" id="Calque_1" xmlns="http://www.w3.org/2000/svg" xmlns:xlink="http://www.w3.org/1999/xlink" x="0px" y="0px"
	 viewBox="0 0 841 595" style="enable-background:new 0 0 841 595;" xml:space="preserve">
<style type="text/css">
	.st0{fill:#1D1D1B;}
	.st1{fill:#DADADA;}
	.st2{fill:none;stroke:#1D1D1B;stroke-width:0.5;stroke-miterlimit:10;}
</style>
<g>
	<g>
		<path class="st0" d="M386.6,365.1c0-0.2-0.1-0.5-0.2-0.6h-0.1v-0.2c-0.1-0.1-0.3-0.4-0.4-0.5c-0.4-0.3-1.7-0.4-1.9-0.4
			c-0.8,0-1.8-0.1-2.2,0.1c-0.2-0.1-0.3-0.2-0.5-0.3c0.1-0.7,0.5-1.3,0.6-1.9c0-0.2,0-0.5-0.1-0.7c0-0.6,0.2-1.1-0.3-1.3
			c-0.2-0.3-2.6-0.7-2.8-0.6c0-0.1,0-0.1-0.1-0.2c-0.2,0-0.1,0-0.1,0.1c-0.3,0-0.5-0.1-0.8-0.2c-0.1,0-0.2,0-0.3,0.1
			c0,0,0-0.1-0.1-0.1c-0.1,0-0.2,0-0.4,0.1h-0.1v-0.1h-0.2c0,0,0-0.1-0.1-0.1c-0.5,0.2-1.2-0.1-1.5-0.1c-0.1,0-0.5,0-0.6,0
			c0,0,0,0.2-0.1,0.1V358h-0.2c0,0,0-0.1,0.1-0.1c-0.2-0.1-0.7-0.1-0.9-0.4c-0.2,0.1-0.1,0-0.1,0.2c-0.1,0-1-0.1-1.2-0.2h-0.4
			c0.1,0.1,0,0,0.1,0.1c-0.1,0.1-0.2,0.1-0.4,0.2v-0.2c-0.2,0.1-0.1,0-0.2,0.1c-0.2,0-0.2,0-0.3-0.1H371c-0.1,0,0.1-0.1,0.1-0.1
			c-0.1-0.5-0.4-0.3-0.6-0.7c-0.1,0-0.1,0.1-0.2,0.1c0-0.1,0-0.1-0.1-0.2c-0.3,0-0.9-0.1-1-0.1h-0.1c0,0,0-0.1,0.1-0.1
			c-0.1-0.1-1-0.1-1-0.1c0,0-0.1-0.2-0.2-0.2c-0.4-0.2-0.7,0-1.1-0.2c-0.2-0.1-0.5-0.2-0.7-0.3c-0.1,0-0.2,0.1-0.3,0.1l-0.2-0.2
			c-0.2,0.1-1.1-0.3-1.2-0.3c-0.1,0-0.2,0.1-0.4,0c-0.1-0.1-0.3-0.2-0.4-0.3c-0.1,0-0.4,0.1-0.5,0.1c-0.1-0.1-0.2-0.3-0.3-0.4
			c-0.2-0.1-0.4-0.1-0.6-0.2c-1.3-1.3-2.2-3.2-3.2-4.8c-0.1-0.2-0.1-0.4-0.2-0.7c-0.1-0.1-0.2-0.2-0.3-0.3c-1.5-2.8-2.8-5.7-4.3-8.4
			V340c-0.3-0.7-0.9-1.4-1.2-2.1c-0.5-1.1-0.8-2.1-1.5-2.9c0.1-1.1,1-2.1,1.5-2.9c0.2-0.3,0-0.8,0.1-1c0.2-0.7,0.8-1.7,0.9-2.5
			c0.7-0.1,1.6,0.5,2.3,0.2c0.4-0.1,0.9-0.5,1.3-0.7c0.4-1.9,0.8-3.5,1.3-5.3v-0.9c0.1-0.4,0.3-0.6,0.4-1c0-0.5,0-1,0.1-1.5
			c0-0.3,0.3-1,0.4-1.4c0.1-0.4,0-1.4,0.1-1.8c0.1-0.9,0.5-1.9,0.4-3c0-0.2,0.1-0.6,0.2-0.8v-2.1c-0.1-0.3-0.1-0.9-0.2-1.2
			c0-0.1,0-0.2,0.1-0.3c-0.3-1.6-0.7-3.5-1.4-4.7c-0.4-0.7-1.1-1.3-1.8-1.8c-0.5-0.3-0.9-0.8-1.3-1.2c-0.4-0.3-0.8-0.5-1.2-0.7
			c-0.4-0.3-0.8-0.7-1.3-1c-0.4-0.3-0.8-0.3-1.2-0.6c0-0.1,0-0.1-0.1-0.2c-0.3-0.2-0.5-0.2-0.8-0.4c-0.3-0.2-0.5-0.4-0.8-0.6
			c-0.2-0.1-0.4-0.1-0.7-0.2c-0.2-0.1-0.4-0.3-0.6-0.4c-0.2-0.1-0.3-0.1-0.6-0.2c-0.1-0.1-0.3-0.3-0.4-0.4c-0.5-0.3-1-0.4-1.5-0.7
			c-0.6-0.3-1.3-0.9-2-1.2c-0.5-0.3-1.2-0.4-1.7-0.7c-1.2-0.7-2.5-1.6-3.8-2.2c0,0-0.2,0.1-0.3,0c-1.1-0.6-2.3-1.1-3.4-1.8
			c-0.8-0.4-1.5-0.8-2.3-1.3c-0.3-0.2-0.5-0.5-1-0.6v-0.2c-0.4,0.1-0.7-0.4-1.1-0.5c-0.8-0.3-1.8-0.5-2.8-0.5c0,0,0,0-0.1-0.1
			c0.1-0.4,0.2-0.6,0.4-0.9c0.4-1,0.7-1.9,1.3-2.8l0.5-0.5c0.2-0.4,0.1-0.8,0.3-1.1c0.6-0.9,1.2-2.2,1.5-3.3c0-0.1,0-0.2-0.1-0.3
			c0-0.1,0.2-0.2,0.2-0.2c0.1-0.3,0-0.7,0.2-1c0.2-0.3,0.6-1,0.8-1.5c0.3-0.7,0.4-1.5,0.7-2.2c0.5-1,1.6-2.4,1.4-3.5
			c0.5-0.7,0.3-1.7,0.6-2.7c0.1-0.2,0.3-0.5,0.3-0.7c0-0.2,0-0.8,0.1-1c0,0-0.1-0.1-0.1-0.2c0-0.2,0.1-0.4,0.1-0.5
			c0-0.2,0-0.4-0.1-0.6c0.2-0.6,0.3-1,0.2-1.6c-0.1-0.3,0-0.7,0.1-0.9c0-0.4-0.1-0.8-0.2-1.2v-1.2c-0.2-0.7-0.2-1.7-0.4-2.4
			c-0.3-0.8-0.8-1.7-1.2-2.4c-0.3-0.5-0.5-1.1-1-1.3v-0.2c0.5-0.1,1.7-0.2,2.1,0.2c0.5-0.1,0.6-0.3,0.9-0.6
			c-0.1-0.4-0.2-0.5-0.3-0.9c-0.7,0-1,0.1-1.8-0.1c-0.1,0-0.3-0.1-0.5-0.1c-0.2,0.1-1.1,0.3-1.4,0.2c-0.5-0.2-0.9-0.7-1.3-1
			c0.1-0.8,1.1-0.8,1.6-1.1c0.2-0.2,0.2-0.6,0.4-0.7c-0.2-0.5-0.5-0.6-0.8-0.9c-0.3,0.1-0.3,0.3-0.5,0.4c-0.5,0.3-1,0.8-1.7,0.9
			c0,0.2,0,0.1,0,0.3c-0.4,0.1-0.7,0.1-1-0.1h-0.1v-0.2c0.4-0.1,0.3-0.5,0.6-0.6c0.2,0,0.3,0,0.5-0.1c0.2-0.1,0.2-0.4,0.4-0.6
			c0-0.2-0.1-0.5-0.2-0.6c-0.1-0.1-0.3-0.2-0.4-0.3c-0.9,0-1.7,1.1-2.3,1.6c-0.1,0-0.1,0-0.2,0v0.2c-0.6-0.3-1.4-0.1-2-0.3
			c-0.1,0-0.3,0.1-0.4,0.1c-0.2,0-0.1-0.1-0.2-0.1c-0.4-0.1-0.4,0.2-0.7-0.1c-0.2,0.1-0.1,0-0.1,0.2c-0.1-0.1,0,0-0.1-0.1
			c-0.3-0.1-0.6-0.1-0.8-0.2c-0.2,0.1-0.2,0-0.2,0.2c0-0.1,0-0.1-0.1-0.2c-1,0.2-2.4,0.2-3.4,0.8c-0.3,0.2-0.6-0.1-0.7,0.4
			c0-0.1,0,0-0.1-0.1c-0.3,0.1-0.3,0.4-0.8,0.4v0.2c-0.2,0-1,0.5-1.1,0.7v0.2c-0.1,0.1-0.2-0.1-0.4,0.1c-0.1,0.1-0.1,0.3-0.2,0.4
			c-0.1,0.1-0.4,0.2-0.5,0.4c-0.1,0.1,0,0.2-0.1,0.3c-0.2,0.2-0.4,0.2-0.5,0.4c-0.1,0.1-0.1,0.4-0.2,0.5c-0.1,0.1-0.4,0.2-0.5,0.3
			c-0.1,0.1-0.1,0.3-0.2,0.4h-0.2c-0.2,0.1-0.2,0.4-0.2,0.4c-0.1,0.1-0.4,0.2-0.5,0.4c-0.4,0.4-0.6,0.8-0.9,1.3
			c-0.1,0.2-0.5,0.3-0.6,0.6c0,0.1,0,0.2-0.1,0.2c0,0-0.4,0.2-0.4,0.2c0,0.1,0,0.2,0.1,0.2c-0.2,0.3-0.6,0.5-0.8,0.8
			c-0.1,0.2-0.1,0.4-0.2,0.7c-0.1,0.1-0.2,0.1-0.3,0.3c-0.6-0.2-1.3-0.3-1.8-0.4c-0.3-0.1-0.5,0.1-0.9,0c-1.1-0.4-1.9-0.4-2.8-0.3
			c-0.6,0.1-1.4-0.2-1.9-0.1c-0.1,0-0.2,0.2-0.2,0.2c-0.2,0.1-0.6,0-0.7,0.1c-0.2,0.1,0,0.2-0.6,0.3v0.2h-0.2v0.2
			c-0.4,0-0.3,0.2-0.7,0.2c0,0.3-0.8,1.4-1.2,1.5c0,2,1.4,2.8,2.6,3.5c0.6,0.3,1.1,0.9,1.8,1.2c0.7,0.3,2.8,0.7,3.1,1.2
			c0.3,0.5-0.3,1.1-0.5,1.7c-0.5-0.2-1-0.1-1.5-0.3c-0.7-0.2-2.1-1.1-2.8-0.7c-0.3,0-0.2,0.1-0.4,0.2c0,1.4,0.4,2.4,0.7,3.5
			c0.2,0.5,0.1,1.3,0.3,1.7c0,0,0.3,0.2,0.3,0.2c0.2,0.4,0.2,0.9,0.4,1.3c0.1,0.3,0.4,0.6,0.6,0.9c0.1,0.3,0.1,0.6,0.3,0.9
			c0.1,0.2,0.3,0.4,0.4,0.6c0.3,0.7,0.3,1.4,0.6,2c0,0.1,0.3,0.2,0.3,0.3c0.1,0.2,0.1,0.4,0.2,0.6c0.2,0.3,0.5,0.7,0.7,1
			c0.2,0.2,0.1,0.5,0.2,0.7c0.2,0.1,0.3,0.3,0.5,0.4c0.1,0.2,0.1,0.4,0.2,0.6c0.1,0.1,0.2,0.1,0.2,0.2c0.5,0.7,1,1.6,1.7,2.2
			c-0.1,0.3-0.3,0.2-0.4,0.4c-0.2,0.4-0.2,1.2-0.4,1.5c0,0.1-0.4,0.3-0.5,0.4c-0.1,0.1-0.1,0.9-0.1,0.9c-0.1,0.1-0.3,0.1-0.4,0.3
			c0,0.3,0.1,0.6,0.1,0.9c-0.1,0.1-0.3,0.5-0.4,0.6h-0.1c-0.4,0.4-0.6,1-0.9,1.4c-0.1,0.2-0.4,0.3-0.6,0.4c0,0,0,0.4-0.1,0.5
			c-0.3,0.5-0.9,0.9-1.2,1.3c-0.2,0.3-0.4,0.8-0.7,1c-0.5,0.4-1.1,0.6-1.7,1c-0.3,0.2-0.5,0.6-0.8,0.8c-0.3,0.2-0.5,0.2-0.8,0.4
			c-0.3,0.2-0.5,0.5-0.8,0.7c-0.3,0.3-0.8,0.3-1.1,0.6c-0.2,0.1-0.3,0.4-0.4,0.5c-0.4,0.4-1,0.4-1.5,0.7c-0.2,0.2-0.5,0.5-0.7,0.7
			h-0.3c-0.1,0.1-0.8,0.3-1,0.5c-0.5,0.3-1.2,1-2,1v0.2c-0.7,0.1-2,0.9-2.7,0.7c0,0,0,0-0.1,0.1c-0.2-0.9,0-2,0.2-2.9
			c0-0.2-0.1-0.6,0-0.8c0.2-0.8,0.6-1.9,0.9-2.8c0-0.1-0.1-0.4,0-0.6c0.1-0.2,0.3-0.4,0.4-0.6c0.3-0.8,0.3-1.9,1.2-2.1
			c0.1-0.4,0.3-0.5,0.1-1c0.1,0,0.2-0.1,0.3-0.1h0.1c-0.2-0.1,0.2-0.8,0.2-0.8c0.3-0.5,1-0.7,1.5-1.1c0.1-0.1,0.2-0.4,0.4-0.4
			c0.8-0.4,1.5-0.2,2.3-0.4c0.2,0,0.4,0.1,0.5,0.1c0.4-0.1,1.1-0.3,1.4-0.5c0.1-0.1,0.2-0.3,0.3-0.4c0.3-0.2,0.4-0.2,0.6-0.6
			c0.1-0.1,0.1-0.8,0.1-0.9c0-1.7-2.5-1.5-3.4-1.5c-0.6,0.1-0.7-0.1-1.3-0.2c0.1-0.5,0.4-0.8,0.6-1.2c0.5-1,1.3-2.7,0.9-3.8
			c-0.1-0.2,0-0.3-0.1-0.4c-0.2-0.3-1.7-1.2-2.1-0.8c-0.3-0.1-0.4-0.5-0.7-0.7c-0.2-0.1-0.6-0.3-0.9-0.4c-0.4-0.1-0.8,0.4-1.2,0.1
			c-0.2,0.2-0.4,0.5-0.7,0.7h-0.4c0,0,0,0.1,0.1,0.1c-0.6-0.1-0.4-0.7-0.8-1c-1-0.7-1.7-0.2-2.6,0.1c-0.3-0.3-0.5-1-1-1.2
			c-0.1,0-0.9-0.2-1-0.2c-0.2,0-0.4,0.2-0.6,0.1c-0.9,0-1.3,1.2-1.7,1.8c-1.2,1.9-2.5,6.1-0.3,7.6c-0.1,0.4-0.1,0.8-0.2,1.2
			l-0.2,0.2c-0.1,0.2,0.1,0.4-0.1,0.7c-0.1,0.2-0.3,0.6-0.4,0.8c-0.3,0.6-0.1,1.2-0.7,1.5c-0.2,0.1-0.8-0.4-1-0.5
			c-0.3,0-0.5,0-0.8-0.1c-0.2,1.3-0.8,2.4-1.2,3.3c0,0.2,0,0.4-0.1,0.7c-0.1,0.2-0.3,0.4-0.3,0.6c-0.1,0.3,0,0.8-0.2,1.2
			c-0.1,0.3-0.4,0.7-0.5,1c-0.1,0.2,0,0.5,0,0.6c-0.1,0.1-0.3,0.4-0.4,0.6v0.4c-0.2,0.5-0.3,0.9-0.4,1.4c0,0.1,0.1,0.3,0.1,0.3
			c-0.1,0.2-0.3,0.7-0.4,1c0,0.2,0,0.5-0.1,0.7c-0.1,0.3-0.2,1-0.4,1.3H276c-0.1,0.1,0.1,0.5,0,0.7c-0.1,0.2-0.2,0.4-0.2,0.5v0.6
			c-0.1,0.1-0.5,1.5-0.5,1.6c0.1,0,0.1,0.1,0.2,0.1l-0.2,1.7c0.1,0.4,0.2,1.1,0.3,1.5c0,0.1,0,0.2-0.1,0.3c0,0.1,0.3,0.5,0.3,0.6
			c0.1,0.2,0,0.8,0.1,1c0.2,0.4,0.6,0.8,0.8,1.2c0.2,0.3,0.1,0.7,0.4,0.9c0.1,0.1,0.3,0.1,0.4,0.2c0.1,0.1,0.1,0.2,0.2,0.3
			c0.1,0.1,0.3,0.2,0.4,0.2c0.1,0.1,0.1,0.2,0.1,0.2c0.1,0.1,0.3,0,0.4,0.1c0,0.1,0,0.1,0.1,0.2c0.1,0,0.2,0,0.4,0.1
			c0.1,0,0.1,0.2,0.1,0.2c0.3,0.2,0.6,0.3,1,0.5c0.2,0.1,0.6,0.5,0.9,0.6c0.1,0,0.2-0.1,0.3-0.1c0.8,0.2,2.1,0.4,3,0.2
			c0.3-0.1,0.9-0.2,1.1-0.2c3.1,0,6.3-2.2,8.7-3.4c0.2,0,0.4,0,0.7-0.1c0.5-0.1,0.9-0.5,1.3-0.7c0.3-0.1,0.7,0,1-0.2
			c0.1-0.1,0.2-0.3,0.4-0.3c0.3-0.1,0.5,0,0.9-0.2c0.3-0.1,0.6-0.4,0.9-0.5c0.3-0.1,0.5,0,0.8-0.2c0.1,0,0.1-0.2,0.2-0.2
			c0.1,0,0.2,0,0.4-0.1c0.2-0.1,0.4-0.3,0.6-0.4c0.2-0.1,0.4,0,0.7-0.1c0.9-0.3,1.7-0.8,2.3-1.2c0.3-0.2,0.9-0.3,1.2-0.5
			c0.2-0.1,0.1,0,0.1-0.2c0.8,0.1,1.2-0.5,1.7-0.8c0.2,0,0.4,0,0.6-0.1c0-0.1,0-0.1,0.1-0.2c0.4-0.3,0.5-0.4,1.1-0.4v-0.2h0.2
			c0.1,0.4,0.2,0.9,0.3,1.3c0,0.3-0.1,0.7,0.1,1c0.1,0.3,0.3,0.7,0.4,1c0.1,0.3-0.1,0.5,0,0.9c0.4,1.4,0.7,2.7,1.2,4
			c0,0.2,0,0.4,0.1,0.6c0,0.1,0.2,0.5,0.2,0.6c0,0.2-0.1,0.3-0.1,0.5c0.1,0.3,0.4,0.7,0.5,0.9v0.4c0.1,0.2,0.3,0.5,0.4,0.7
			c0,0.2,0,0.4,0.1,0.6c0.1,0.3,0.5,0.8,0.6,1.1c0,0.1,0,0.2-0.1,0.2c0,0.3,0.2,0.5,0.5,0.6c-0.3,0.6,0.2,1.3,0.4,1.8
			c0.3,0.8,0.2,1.3,0.6,2.1c0.2,0.5,0.7,1.1,0.9,1.7h0.1c0,0-0.1,0.1-0.1,0.1c0.1,0,0.1,0,0.2,0.1c0,0.5,0.2,0.6,0.4,0.9
			c0.5,1.2,1,2.1,1.6,3.1c0.1,0.1,0.4,0.3,0.4,0.4c0.2,0.4,0.2,0.8,0.4,1.2c0.4,0.7,1.1,1.4,1.5,2.1c0,0.2,0.1,0.4,0.1,0.6
			c0.1,0.1,0.2,0.2,0.2,0.2c0.1,0.2,0,0.4,0.1,0.6c0.1,0,0.1,0,0.2,0.1c0,0.1,0,0.2,0.1,0.4c0.1,0.2,0.3,0.6,0.4,0.8
			c0.2,0,0.3,0.2,0.6,0.1c0.1,0,0.4-0.1,0.6-0.1c0.7,0.2,1.3,0.6,2,0.7v0.1c-1.7,1.6-3,3.5-4.8,5.1c-0.2,0.1-0.2,0.5-0.4,0.6
			c-0.1,0.1-0.3,0.1-0.4,0.2c-0.1,0.1,0,0.2-0.1,0.4c-0.2,0.2-0.5,0.4-0.7,0.6c-0.2,0.2-0.3,0.5-0.5,0.7v0.2
			c-0.4,0.1-0.3,0.6-0.7,0.7v0.2c-0.4,0.1-0.5,0.5-0.7,0.8c-0.7,0.6-1.5,1.4-2.1,2.2v0.2c-0.1,0.1-0.3,0.1-0.4,0.2
			c-0.6,0.8-1.3,1.3-2,2c-0.1,0.1-0.2,0.3-0.3,0.5c-0.2,0.2-0.5,0.4-0.7,0.7c-0.3,0.3-0.4,0.8-0.7,1.1c-0.6,0.6-1.2,1.3-1.7,2
			c-0.2,0-0.4,0-0.7,0.1c-0.4,0.9-0.2,2-0.4,3.1c-0.1,0.3-0.2,1.2-0.2,1.4c0,0.1,0.1,0.9,0.1,1.1c-0.2,1,0.1,1.9-0.1,3.1
			c-0.1,0.7-0.1,1.4,0,2.2c0.1,0.3-0.1,0.5-0.1,0.8c0.1,0.4,0.1,0.7,0.1,1.1c0,0.1-0.1,0.2-0.1,0.3c0,0,0.1,0,0.1,0.1
			c0,0.1,0,0.3-0.1,0.4c0.1,0.4,0,1.2,0.1,1.5v0.6h0.1c0,0.1-0.1,0.4-0.1,0.4c-0.1,0.6,0,2,0.1,2.5c0,0.2-0.1,0.7-0.1,0.9
			c0,0.2-0.1,0.5-0.1,0.8c0.1,0.5,0.3,1.1,0.2,1.5c0,0.3-0.2,0.9-0.1,1.3c0.1,0.3,0.2,0.9,0.2,1.3c0,0.6-0.2,1.3,0,1.9
			c0.2,0.9,2.4,1.7,3.1,2.3c0,0,0,0.1-0.1,0.1c-1,0.3-2.6,0.3-3.9,0.7c-0.3,0-0.6,0.1-0.9,0.1c-0.7,0.3-1.6,0.6-2.3,0.9
			c-0.4,0.2-0.6,0.1-0.9,0.2c-0.4,0.2-0.8,0.5-1.4,0.6c0,0,0,0,0.1,0.1c-0.2,0.3-0.9,0.5-1.2,0.7c0,0,0,0-0.1,0.1h0.1v0.1
			c-0.1,0-0.1,0-0.3-0.1v0.2c-0.6,0.1-1.6,1.1-1.9,1.5c-0.2,0.3-0.2,0.8-0.2,1c0,2,3.4,0.9,4.5,1.1h0.9c0.4,0.1,0.9,0,1.3,0v0.1h1.5
			c1,0.2,3.5,0,4.6-0.3c0.5-0.1,1.4,0,1.9-0.1c1.1-0.1,2.3-0.2,3.3-0.4c1.3-0.3,2-0.3,3.1-0.7c0.4-0.2,0.9,0,1.2-0.1
			c0.5,0.4,0.8,1.2,1.5,1.5c0.6,0.2,1.2-0.1,1.8,0c0.2,0,0.6-0.2,1-0.1c0.7,0.1,2.4-0.1,3-0.2c0.6-0.1,1.9,0,2.3-0.3
			c0.5-0.3,0.4-0.7,0.6-1.5c0-0.1,0.1-0.3,0.1-0.6c0-0.1-0.1-0.1-0.1-0.3c0-0.3-0.3-2.7-0.6-3.1c0-0.5,0-0.7,0.2-0.9
			c1.1,0,2.7-0.5,3-1.3c0.3-0.7-1.5-3.1-1.3-3.5c-0.1-0.2,0-0.1-0.2-0.1c0.1-0.3-0.1-0.4-0.2-0.7c0.3-0.5-0.3-1.3-0.4-1.5V376
			c-0.1-0.2-0.5-0.5-0.4-0.8c0-0.1-0.5-2.7-0.6-2.7c0-0.1-0.2-0.1-0.2-0.2c0.1-0.4-0.3-0.8-0.2-1.3c0.1-0.4-0.3-2.7-0.6-3.2
			c0.1-0.4-0.1-1.5-0.3-1.8c0-0.1,0.1-0.4,0-0.6c-0.4-1.4-0.6-3.2-0.3-4.4c0.1-0.4-0.1-0.9-0.2-1.1c0,0,0.2-1,0.2-1.1
			c0.1-0.5,0.5-0.5,0.9-0.7c0.4-0.2,0.8-0.5,1.2-0.8c0.1,0,0.1,0.1,0.2,0c0.1-0.1,0.1-0.3,0.2-0.3c0.2-0.1,0.4-0.1,0.6-0.2
			c0.7-0.5,1.4-1.2,2.1-1.7c0.7-0.4,1.4-0.6,2.1-1c0.3-0.2,0.5-0.5,0.7-0.7c0.3-0.2,0.5-0.2,0.8-0.4c0.1-0.1,0.2-0.3,0.3-0.4
			c0.3-0.2,0.6-0.3,0.9-0.6c0-0.1,0-0.1,0.1-0.2c0.2-0.2,0.5-0.1,0.7-0.3c0.4,0.1,0.5,0.5,0.7,0.9c0,0,0.9,1.1,1,1.3
			c0.2,0.4,0.2,0.9,0.6,0.9c-0.2,0.5,0.6,1.3,0.9,1.7c0.4,0.9,0.9,1.7,1.5,2.4c0,0,0,0.3,0.1,0.4c0.1,0.1,0.4,0.3,0.4,0.4
			c0.3,0.5,0.5,1.2,0.9,1.7c0,0,0.6,1.3,0.8,1.5c0.4,0.7,0.9,1.4,1.5,2c-0.2,0.2,0.2,0.5,0.3,0.7c-0.2,0.4,0.6,1,0.8,1.3
			c0.2,0.2,0.8,1.5,1,1.4c0.5-0.1,1.3,0.5,1.8,0.7c1.8,0.6,3,1.2,4.7,1.8c0.1,0,0.2-0.1,0.2-0.1v0.2c0,0,0.9,0.2,1.2,0.3
			c0.2,0.1,0.4,0.4,0.6,0.4c0.4,0.2,0.7,0.1,1.1,0.2c0.8,0.3,2,0.7,3.1,1.2h0.4c0.2,0.1,0.5,0.3,0.7,0.4c0.2,0,1.1,0.1,1.4,0.2
			c0.5,0.2,1.2,0.6,1.7,0.8c0.2,0.1,0.6,0,0.7,0.1c0.2,0.1,0.4,0.3,0.7,0.4h0.4c0.1,0,0.4,0.2,0.5,0.2c0.2,0.1,0.2-0.1,0.5,0
			c1.3,0.6,2.3,0.7,3.6,1.2c0.4,0.2,0.9-0.1,1.4,0.1c0.2,0.1,0.3,0.3,0.6,0.4c-0.1,0.2,0,0.6-0.2,0.9c-0.1,0.2-0.2,0.1-0.2,0.4h-0.2
			c0,0.8-0.6,1.1-1.1,1.5c-0.2,0.2-0.3,0.5-0.5,0.7c-0.1,0.1-1,0.6-1.1,0.6h-0.4c-0.1,0.1-0.2,0.2-0.2,0.2c-0.1,0-0.1,0-0.2-0.1
			c-0.3,0.1-1.5,0.6-1.7,0.5c-0.4,0-1.4,0.5-1.7,0.4c-0.2,0-0.6,0.3-0.8,0.4c0,0-0.2-0.1-0.4,0c-0.1,0-0.1,0.2-0.1,0.2
			c0,0-0.1-0.1-0.2-0.1c-0.1,0-0.4,0.2-0.6,0.2c0,0,0-0.1-0.1-0.1c-0.1,0-1.4,0.8-1.5,0.8c0,0.1,0,0.1-0.1,0.2
			c-0.2,0-0.2,0.1-0.4,0.1c0,0.4,0,1-0.1,1.2c0.1,0.2,0,0.1,0.2,0.1c0.2,1.2,3.1,1.8,4.2,1.4c0.2,0,0.5,0.1,0.7,0.1
			c0.1,0,1.9-0.6,1.9-0.6c0.2,0,0.6-0.1,0.9-0.2c0.6,0.2,2.5-0.6,3.2-0.9c0.9-0.3,2.6-0.7,3.8-1.3c0.3-0.2,0.7-0.6,1-0.8
			c0.2-0.1,0.4-0.2,0.6-0.3c0.1-0.2,0.2-0.4,0.3-0.6c1.4-1.2,2.6-2.8,3.4-4.3c0.1-0.2,0.1-0.4,0.2-0.6c0.4-0.7,0.7-1.4,1-2.2
			c0.2-0.3,0-1,0.2-1.3c0.2-0.4,0.9-0.1,1.2-0.6c0.1-0.1,0.2-0.7,0.3-0.9c0.5-0.9,0.8-1.8,1.1-2.8v-0.6c0.1-0.5,0.1-0.8,0.2-1.3
			C386.4,366.7,386.8,365.4,386.6,365.1z M371.5,357.7L371.5,357.7l0.1,0.1h-0.1V357.7z M351.3,331.8v0.3c0,0.1-0.3,0.3-0.3,0.4
			c-0.1,0.1,0.1,0.2,0,0.4c-0.3,0.6-0.7,1.3-1,1.8c-0.2,0.3-0.2,0.6-0.4,0.9c-0.1,0.2-0.4,0.4-0.6,0.6c-0.2,0.3-0.2,0.5-0.4,0.7
			c-0.4,0.5-1,0.9-1.5,1.3c-0.5,0.5-2.5,1.9-3.4,1.3c-0.2-0.1-0.2-0.1-0.3-0.2c0-0.2,0-0.3-0.1-0.4c1.9-1.2,4.1-1.8,4.6-4.3
			c-0.1-0.1-0.2-0.3-0.4-0.4c-0.2,0-0.4,0-0.5,0.1c-0.5,0.2-0.6,1.1-0.9,1.5c-1,1.3-4.4,3.2-6.1,2.1c0-0.1-0.1-0.2-0.1-0.3
			c0.1-0.7,1.2-0.6,1.8-0.9c0.7-0.3,1.5-0.8,2.1-1.2c0.1-0.1,0.3-0.1,0.4-0.2c0.3-0.3,0.6-0.7,0.9-1c0.1-0.1,0.3-0.2,0.4-0.3
			c0.2-0.4,0.4-0.7,0.7-1c0-0.4-0.1-0.5-0.2-0.7c-1.4,0-1.6,1.6-2.4,2.1h-0.2c-0.1,0.1-0.4,0.4-0.6,0.6c-1,0.6-3.4,1.5-4.6,0.9
			c-0.2-0.1-0.3-0.3-0.5-0.4c0-0.2,0-0.6,0.1-0.7c0.2-0.6,2.2-1.1,2.9-1.3h0.5c0.6-0.3,1.6-1.1,2-1.7c0-0.1,0-0.3,0.1-0.4
			c0.1-0.3,0.6-1.1,0.4-1.6c-0.1-0.1-0.1-0.1-0.2-0.2c-0.8,0-0.8,0.7-1.5,0.9c-0.3,0.1-0.8-0.1-1,0c-0.1,0-0.3,0.3-0.4,0.3
			c-0.2,0.1-1.6-0.1-1.7-0.1c-0.4-0.1-0.8,0-1.2-0.2c-1,0-1.1-0.7-1.7-1.1c0-0.2,0.1-0.3,0.1-0.4c0.9-1.5,3.4-1,4.9-0.4
			c0.2,0,1,0.1,1.3,0.1c0.2,0,0.5-0.1,0.7-0.1c0.2,0,0,0.2,0.2,0.1c0.3,0,1.3-0.1,1.5-0.3c0.1-0.1,0.1-0.2,0.2-0.3
			c0.6-0.4,1.3-0.9,1.6-1.7c0.1,0,0.1,0,0.2-0.1c0.5,0.3,1.1,0.4,1.5,0.6c0.1,0.1,0.2,0.2,0.2,0.2c0.1,0,0.2,0,0.2-0.1
			c0.2,0.1,0.7,0.4,1,0.6c0.3,0.1,0.6,0,0.8,0c0.2,0,0.5,0.2,0.7,0.2c0.3,0.1,0.3-0.1,0.6,0c0.2,0,0.2,0,0.4,0.1
			C352.5,329.7,351.8,330.7,351.3,331.8z M345,327.6C345.1,327.6,345.1,327.6,345,327.6c0.1,0,0.1,0,0.1,0.1
			C345.2,327.7,344.9,327.7,345,327.6z M346.8,310c-0.1,0.2,0.3,0.8,0.4,1c0.1,0.3-0.1,0.5,0,0.7c0.4,1.4,0.1,3.1,0.2,4.3
			c0,0.9-0.4,2.8-0.1,3.3c-0.1,0-0.1,0-0.2,0.1c-0.2-1.2-1.1-2.5-1.5-3.5c0-0.2,0-0.4-0.1-0.6c-0.2-0.6-0.5-1.2-0.7-1.8
			c-0.2-0.4-0.5-0.8-0.7-1.2c-0.2-0.6-0.3-1-0.6-1.5c-0.1-0.3-0.4-0.5-0.6-0.8c-0.1-0.3-0.1-0.5-0.2-0.7c-0.2-0.5-0.7-1.1-0.9-1.6
			c-0.2-0.5-0.2-0.8-0.4-1.3c-0.1-0.3-0.3-0.5-0.3-0.9c0.5,0.1,0.9,0.7,1.3,0.5c0,0,0.1,0.3,0.3,0.4c0.2,0.1,0.3,0,0.4,0.1
			c0.5,0.3,0.9,0.8,1.3,1.2h0.2c0,0.1,0,0.2,0.1,0.2c0.4,0.5,1.1,1,1.6,1.3c0,0.3,0.1,0.3-0.1,0.4
			C346.5,309.9,346.7,309.9,346.8,310z M356.2,322.1L356.2,322.1l-0.1-0.1h0.1V322.1z M309.2,281.1c-0.2-0.3-0.6-0.7-0.7-1
			c0-0.1,0-0.2-0.1-0.4c-0.2-0.4-0.6-0.7-0.9-1c-0.9-1.3-1.3-3-2-4.5c-0.3-0.6-0.7-1.1-1-1.7c-0.1-0.3-0.1-0.6-0.2-0.9
			c-0.2-0.4-0.6-1.3-0.6-1.7c-0.2-0.5-0.5-1.1-0.5-1.8c0.5,0,0.7,0.2,1.1,0.4c0.6,0.2,1.4,0.2,2,0.4c0.3,0.1,0.6,0.4,0.9,0.5
			c1.4,0.5,2.4,0.5,3.9,0.9c1,0.3,2.3,0.9,3.4,0.4c0.2-0.4,0-0.6-0.1-1c-0.3-0.2-0.6-0.3-0.9-0.4c-0.3-0.1-0.5,0.1-0.8,0.1
			c-0.4-0.1-1-0.3-1.5-0.5h-0.6c-0.5-0.1-1-0.3-1.4-0.5c-0.4-0.2-1-0.1-1.3-0.4h-0.1c0-0.1,0-0.3,0.1-0.5c0.1-0.4,0.5-0.8,0.7-1.2
			c0.3,0,0.9,0.2,1.2,0c0.4,0,0.5-0.3,0.7-0.4v-0.5c-0.1-0.1-0.2-0.4-0.4-0.5c-0.3-0.2-0.9-0.3-1.2-0.4c-0.3,0-0.7,0-1-0.1
			c-0.3-0.1-0.7-0.3-1-0.4c-0.4-0.1-1.1-0.1-1.3-0.2v-0.1c-0.1,0-0.3,0-0.4-0.1c-0.1-0.1-0.2-0.3-0.3-0.3c-0.2,0-0.3,0-0.5-0.1
			c0-0.1-0.1-0.1-0.1-0.2c-0.1-0.1-0.3,0.1-0.5-0.1c-0.3-0.2-0.7-0.6-1.1-0.7v-0.2l-0.1,0.1c-0.3-0.1-0.9-0.6-1-0.9h-0.2v-0.2
			c-0.1,0.2-0.3-0.3-0.4-0.4c0-0.6,0.7-1.2,1.2-1.4c0.1,0,0.3,0,0.4-0.1c0-0.1,0.1-0.2,0.1-0.2c0.2-0.1,0.4,0,0.6-0.1v-0.1
			c0.2-0.1,0.7,0.1,1,0.1c1.5-0.2,2.9,0.1,4.2,0.5c0.4,0.1,0.9-0.1,1.2,0c0.4,0.1,0.6,0.5,1,0.6c0.3,0.1,0.4,0,0.6,0.1
			c0.3,0,0.3-0.1,0.6-0.1c0.1-0.4,0.1-0.8-0.2-1c0.1-0.7,0.7-1.1,1.1-1.6c0.3-0.4,0.5-0.9,0.9-1.2c0.1-0.1,0.3-0.2,0.4-0.4
			c0.1-0.2,0.2-0.4,0.4-0.6c0.3-0.3,0.7-0.5,1-0.9c0.2-0.2,0.3-0.5,0.6-0.7c0.5-0.4,1.3-1,1.5-1.6h0.2c0.1-0.3,1.7-1.5,2.1-1.6V250
			c0.6-0.2,1.3-0.4,1.8-0.6c0.3,0,0.7,0,1,0.1c1.3-0.3,2.6,0,3.8,0c0,0.2,0.1,0.2,0.2,0.4c-0.2,0.1-0.2,0.1-0.2,0.2H326
			c-0.1,0.5-0.5,1.1-0.8,1.4c0,0.6,0.3,0.6,0.6,0.9c0.1-0.1,0.4-0.1,0.5-0.2c0.1-0.2,0.1-0.5,0.2-0.7c0.3-0.5,0.9-0.9,1.2-1.4h0.2
			c0,0.8,0.2,0.9-0.4,1.6c0,0.2,0.1,0.4,0.2,0.6c0.2,0.1,0.4,0.1,0.4,0.1c0.3-0.1,0.6-0.4,0.7-0.7c0.2,0,0.2,0,0.3-0.1
			c0.2,0.3,0.5,0.5,0.7,0.7c-0.1,0.1-0.4,0.4-0.5,0.6c0,0.3,0.1,0.4,0.1,0.6c0.1,0.1,0.2,0.1,0.2,0.2c0.4,0,0.7-0.1,0.9-0.3
			c0.9,0,0.9,0.6,1.3,1c0,0.7-0.9,1.3-1.5,1.4c-0.1,0.3-0.1,0.5-0.1,0.8c0.8,0.4,1.5-0.2,2.4-0.1c0.1,0.9,0.1,2,0.3,2.9
			c0,0.1,0,0-0.1,0.1c-0.1-0.1,0,0-0.1-0.1c-0.1,0.1-0.1,0.1-0.1,0.1v0.1c-0.5-0.2-1.6-0.4-1.9,0.2c-0.1,0.1,0,0.2-0.1,0.4
			c0.2,0.2,0.4,0.5,0.7,0.6c0.1,0,0.3-0.1,0.5-0.1c0.2,0.1,0.4,0.3,0.6,0.1c0.3,0,0.3,0.1,0.5,0.2c-0.1,0.4,0,1.5-0.2,1.8
			c0,0.3-0.1,0.3-0.2,0.5c-0.6,0-0.7-0.1-1.2,0c-0.3,0.1-0.5,0.3-0.8,0.3c0,0.2,0,0.4,0,0.6c0.2,0.1,0.3,0.2,0.4,0.3
			c0.5,0,0.9,0.3,1.2,0c0.1,0,0.2,0,0.2,0.1c0,0.8-0.4,1.4-0.6,2.1c-0.3,0-1.1-0.1-1.3-0.1c-0.2,0.1-0.2,0.2-0.4,0.1
			c-0.1,0.2-0.3,0.5-0.2,0.7c0,0.3,0.1,0.3,0.2,0.5c0.5,0.1,0.8,0.2,1.2,0.1c0.1,0.1,0.1,0.1,0.2,0.1c-0.2,0.8-0.4,1.7-0.7,2.5
			c-0.4-0.1-1-0.2-1.2-0.4c-0.5,0-0.5,0.2-0.9,0.4c0,0.2,0,0.2,0,0.4l0.6,0.6c0.1,0,0.2,0,0.4-0.1c0.2,0.1,0.5,0.3,0.7,0.3
			c0,0.3-0.3,1.6-0.5,1.8c-0.1,0.1-0.1,0-0.2,0.1c-0.1-0.1,0,0,0-0.2c-0.3,0-0.3,0.2-0.6,0.2l-0.6-0.1c0,0-0.1-0.2-0.1-0.2
			c-0.2-0.1-0.2,0.2-0.3,0.2c-0.1,0-0.2,0-0.2-0.1c-0.3,0.1-0.3,0.6-0.2,1c0.3,0.1,1.3,0.3,1.6,0.4c0.1,0,0.1,0.1,0.2,0.1
			c-0.2,0.3-0.4,0.7-0.4,1.1c-0.5,0-1.2-0.1-1.7-0.2c-0.6,0.8-0.5,0.3-0.2,1.2c0.5,0.1,0.9,0.2,1.4,0.2c0,0.7-0.4,1.6-1,1.8
			c-0.3,0.1-1.1-0.5-1.6-0.1c-0.1,0.1-0.1,0.1-0.2,0.2c0,0.2,0,0.3,0.1,0.4c0.1,0.6,1,0.7,1.6,0.9c-0.2,0.7-0.6,1.2-1,1.7
			c-0.2,0-0.2,0-0.3,0.1c-0.2-0.1-0.3-0.2-0.5-0.3c0,0,0,0-0.1-0.1v0.1c-0.6,0-0.6,0.2-1,0.4c0,1.1,1.1,0.9,1.2,1.3h-0.2v0.2h0.2
			c-0.1,0.2-0.3,0.3-0.3,0.6c-0.2,0-0.5,0-0.7-0.1c-0.4,0.1-0.4,0.4-0.7,0.6c-0.3,0.2-0.7,0.1-1,0.4c0,0-0.1,0.1-0.1,0.2
			c0.2,0.7,1.2,0.7,1.8,0.6c0,0,0,0,0.1,0.1c-0.2,1.1-0.9,0.9-1.2,1.7c-1.5,0.6-3,0.6-4.6,0.7c-0.2,0-0.6,0.2-0.7,0.2
			c-0.2,0.1-2.1,0-2.2-0.1c-0.6-0.1-1.2-0.3-1.9-0.3c0-0.3,0.1-0.4,0.2-0.6c-0.1,0-0.2,0-0.3-0.1c-0.1-0.3-0.4-0.4-0.1-0.7
			c-0.1-0.2-0.3-0.1-0.6-0.2v-0.1c-0.1-0.1-0.4-0.3-0.5-0.4c0-0.1,0-0.2-0.1-0.2c-0.2-0.3-0.7-0.5-0.9-0.8c-0.3-0.3-0.4-0.8-0.7-1.1
			c-0.1-0.1-0.3-0.2-0.4-0.3c-0.4-0.4-0.6-1.1-0.9-1.6C310.1,282,309.5,281.6,309.2,281.1z M312.4,287.3c0.3,0.3,0.3,0.6,0.7,0.7
			v0.2c-0.4,0-2.4-0.6-2.6-0.9c-0.2-0.2-0.2-0.5-0.3-0.8c-0.3-0.5-0.6-1.4-0.2-1.8v-0.1c0.3,0.2,0.6,0.9,0.7,1.2
			c0.1,0.3,1,0.9,1.3,1.2c0,0.1,0,0.1-0.1,0.2C312.1,287.3,312.3,287.2,312.4,287.3z M294,282c0.1,0,0.1,0,0.2-0.1v-0.4
			c0.1-0.2,0.2-0.5,0.3-0.7c0.1-0.4,0-0.7,0.1-0.9c0.2-0.4,0.5-0.6,0.6-1.1c0.2,0,0.2,0,0.2,0.1c0.2,0,0.3,0,0.4,0.1
			c0,0.4-0.1,1.3-0.3,1.5c-0.1,0.2-0.2,0.1-0.3,0.2c-0.2,0.2-0.1,0.7-0.2,0.9c-0.3,0.5-0.8,0.9-1,1.3c-0.2,0.1-0.2,0.1-0.5,0.2
			C293.7,282.8,293.8,282.3,294,282z M291.1,279.7c0,0,0-0.1,0.1-0.1h0.2c0-0.2,0-0.3-0.1-0.5c0.1-0.1,0.2-0.1,0.4-0.1
			c0-0.2,0-0.2-0.1-0.3c0.2-0.4,0.8-0.6,1.2-1c0.2,0,0.4,0,0.5,0.1c0.2,0.3-0.1,1.9-0.2,2.4H293c0,0.6-0.3,1-0.5,1.4
			c-0.1,0.2,0,0.6-0.1,0.6c-0.1,0.2-0.4,0.2-0.5,0.5c0,0.1,0,0.1-0.1,0.2h-0.2v0.2h-0.2v0.2c-0.3,0.1-0.6,0.3-0.9,0.5l-0.2-0.2
			C290.4,282.9,290.7,280.3,291.1,279.7z M287.4,280.6c0.1-0.3-0.1-0.4,0.1-0.7c0.1-0.2,0.3-0.4,0.4-0.6c0-0.1-0.1-0.1-0.1-0.2
			c0.1-0.1,0.3-0.9,0.4-1c0.1-0.1,0.3-0.1,0.4-0.2c0,0,0.2-0.3,0.3-0.4c0.2,0,0.2,0,0.3-0.1h0.2c0.3,1.5-0.2,3.9-0.9,4.9
			c-0.3,0.4-1,0.6-1.2,1.1h-0.1c-0.1-0.1-0.1-0.1-0.2-0.2c0.1-0.2-0.1-0.4-0.1-0.7C287,281.8,287.2,281.2,287.4,280.6z M284.8,277.1
			c0.3-0.1,0.6-0.3,1-0.2c0-0.1,0.1-0.3,0.1-0.5c0.1,0,0.1,0,0.1-0.1c0.1,0,0.2,0,0.2,0.1c0.2,1.2-0.1,1.8-0.3,2.8
			c-0.1,0.3,0.1,0.7,0,0.9c-0.3,1.1-0.5,1.8-1.3,2.3c0,0-0.7,0-0.9,0.1v0.2h-0.1C282.8,280.6,284.2,278.4,284.8,277.1z M283.3,288.9
			v-0.4c0.1-0.4,0.3-0.6,0.2-1.2c0.1-0.3,0.4-0.6,0.5-1c0.2-0.6,0.2-1.7,0.6-2.1c0.2-0.2,0.6-0.2,0.8-0.5c0.4,0.1,0.5,0.5,0.9,0.7
			c1,0.6,2.2,0,2.8-0.6c0.3,0.2,0.4,0.9,0.8,1.2c0.3,0.2,1.7,0,1.7,0c0.1,0,0.3-0.4,0.6-0.5c0.3-0.1,0.5,0.3,0.7,0.4
			c0.5,0.2,1.2-0.1,1.5-0.1c0.5,0,1.1-0.3,1.7-0.1c0.3,0.1,0.6,0.2,1.1,0.2c0.7,0,1.4-0.1,1.8,0.2h0.1c-0.1,0.5-0.3,0.5-0.6,0.8
			c-2.3,0-3.7,0.6-5,1.5c-0.2,0.2-0.4,0.4-0.6,0.6c-0.4,0.3-1,0.8-1.2,1.3h-0.3c0,0.2,0.1,0.4,0,0.6c0,0.1,0,0.1-0.1,0.1
			c-0.4,0.3-2,0.1-2.9,0.1c-1.7,0-3.9,0-5.3-0.8C283.1,289,283.2,289.1,283.3,288.9z M306.3,304.7c-0.2-0.1-0.6,0.3-0.8,0.4
			c-0.6,0.4-1.2,0.5-1.8,0.8c-0.2,0.1-0.3,0.3-0.5,0.4c-0.1,0-0.3,0-0.4,0.1c-0.3,0.1-0.6,0.4-0.9,0.5c-0.4,0.1-0.6,0-1,0.2
			c-0.7,0.3-1.4,0.8-2.1,1.1c-0.4,0.2-0.8,0.1-1.2,0.2c-0.4,0.2-0.9,0.5-1.3,0.7c-0.3,0.1-0.6,0.1-0.9,0.2c-0.1,0.1-0.2,0.2-0.3,0.3
			h-0.4c-0.4,0.1-0.9,0.3-1.4,0.5c-0.5,0.2-1,0.6-1.5,0.9c-0.1,0.1-0.6,0.2-0.7,0.2c-0.1,0-0.2-0.1-0.2-0.1
			c-0.2,0.1-0.3,0.3-0.5,0.4c-0.9,0.5-1.8,0.8-2.8,1.2c-0.8,0.3-1.7,0.2-2.6,0.4h-0.7c-0.4,0.1-1.9,0.2-2.5,0
			c-0.6-0.2-1.1-0.6-1.6-0.9c-0.1,0-0.2,0-0.4-0.1c0-0.1,0-0.1-0.1-0.2c-0.2-0.1-0.4-0.1-0.6-0.2c-0.1-0.1-0.2-0.3-0.3-0.4
			c-0.3-0.2-0.7-0.4-0.9-0.7v-0.2c-0.2-0.3-0.4-0.7-0.6-1c-0.2-0.3-0.3-1.1-0.4-1.5c0-0.2,0-0.5-0.1-0.7c-0.1-0.3-0.3-1.5-0.2-2.1
			c0-0.1,0.2-0.9,0.2-1c0-0.3-0.1-0.8-0.1-0.8h0.1c0.1-0.1,0.2-0.7,0.2-0.8c0-0.1-0.1-0.1-0.1-0.2c0.1,0,0.1,0,0.2-0.1
			c0-0.2,0-0.4,0.1-0.7c0.2-0.7,0.5-1.5,0.7-2c0.1-0.2,0-0.4,0-0.5c0.1-0.4,0.2-0.9,0.3-1.3c0-0.1,0-0.1-0.1-0.2
			c0.2-0.5,0.4-1.4,0.7-2v-0.4c0.1-0.3,0.2-0.6,0.3-0.9c0-0.1,0-0.1-0.1-0.2c0.6-1.5,1.1-3.2,1.7-4.5c0.3,0,0.4,0.4,0.5,0.6
			c0.1,0,0.2,0,0.4,0.1v0.1c0.5,0.2,0.8-0.2,1.2-0.1c0.4,0.1,0.8,0.4,1.2,0.6c0.9,0.3,3.5,0.5,4.5,0.2c0.4,0.2,1.5,0.2,2.1,0.1
			c0,0,0,0,0.1,0.1c0,0.5-0.5,1.5-0.7,2c-0.2,0.5-0.1,0.9-0.2,1.3c0,0.1-0.2,0.4-0.2,0.4v0.3c0,0-0.1,0-0.1,0.1
			c-0.1,0.2,0,0.3,0,0.4c0,0-0.2,0.1-0.2,0.1c-0.1,0.1,0.2,0.2,0.1,0.3c-0.2,0.8-0.3,2.3-0.6,3.4c-0.1,0.4-0.1,3.2-0.1,3.3
			c0.1,0.2-0.1,0.4,0.1,0.6c0.1,0.3,0.3,0.2,0.5,0.4c0.2,0,0.3,0,0.4,0c0.2-0.1,0.2-0.1,0.4-0.2c0.1-0.5,0.3-0.8,0-1
			c0-0.2,0-0.2,0.1-0.3c0.5-0.4,1.9-0.3,2.6-0.7c0.3-0.1,0.8-0.3,1-0.6c0-0.1,0-0.1,0.1-0.2c0.2,0,0.3,0,0.5-0.1
			c0,0,0.1-0.2,0.1-0.2c0.5-0.3,1-0.4,1.5-0.7c0.1-0.1,0.2-0.3,0.3-0.3c0.3-0.2,0.7-0.2,1-0.4c0.2-0.1,0.5-0.3,0.7-0.5
			c0-0.1,0-0.1,0.1-0.2c0.1,0,0.2,0,0.4-0.1c0.3-0.2,0.6-0.4,0.8-0.7h0.2v-0.2c0.7-0.1,1.1-0.5,1.5-0.9c0.2-0.1,0.4-0.1,0.6-0.2
			c0.2-0.1,0.3-0.4,0.4-0.6c0.2-0.1,0.2,0,0.4-0.1c0.1-0.1,0.2-0.3,0.4-0.4c0.2-0.1,0.4-0.2,0.6-0.3v-0.1c0.2-0.2,0.6-0.2,0.9-0.3
			c0.4-0.2,0.7-0.6,1-0.9c0.7-0.6,1-2,2.2-2c-0.2-0.5,0.1-0.6,0.2-1c0,0,0.1,0,0.1-0.1c0.2,0.5-0.1,0.8,0,1.3c0.3,1.5,0,2.5,0.3,4.1
			c0,0.2-0.1,0.4-0.1,0.4c0.1,0.4,0.1,0.9,0.2,1.2c0.1,0.4-0.1,0.5,0,0.9c0.3,1.3,0.6,2.8,0.7,4.3
			C307.7,303.3,307,304.2,306.3,304.7z M323.7,335c-0.2-0.1-0.4-0.2-0.6-0.3c-0.3-0.1-0.5,0-0.7-0.2c-0.1-0.1-0.2-0.2-0.3-0.4
			c-0.2,0-0.4,0.1-0.7,0.1c-0.7-1.2-1.4-2.4-2-3.7c-0.1-0.2-0.5-0.4-0.6-0.6c0-0.1,0-0.3-0.1-0.4c-0.1-0.3-0.4-0.5-0.6-0.7
			c-0.1-0.1,0-0.3,0-0.3c-0.3-0.5-0.8-1-1-1.5c-0.2-0.4-0.2-0.6-0.4-1c-0.1-0.1-0.3-0.4-0.4-0.6c0-0.1,0-0.3-0.1-0.4
			c-0.2-0.4-0.6-1-0.8-1.4v-0.3c-0.1-0.3-0.4-0.6-0.5-0.9V322c-0.1,0-0.1,0-0.2-0.1l-0.2-0.9c-0.1-0.3-0.3-0.5-0.4-0.9
			c0-0.1,0-0.2,0.1-0.2c0-0.1-0.2-0.3-0.2-0.4c0-0.1,0-0.1,0.1-0.2c-0.1,0-0.1-0.1-0.2-0.1c-0.2-0.5-0.1-0.7-0.2-1.2
			c-0.2-0.5-0.5-1.1-0.7-1.6c-0.1-0.2,0-0.5,0-0.6c-0.2-0.5-0.5-1.1-0.7-1.7v-0.6l-0.2-0.2v-0.4c-0.6-1.7-1-3.7-1.5-5.4
			c-0.1-0.2,0-1-0.1-1.2c-0.3-1-0.4-2.7-0.8-3.7c-0.2-0.5-0.1-1.2-0.2-1.6c-0.3-1.1-0.5-2.5-0.7-4c-0.1-0.7,0-1.9-0.1-2.5
			c-0.2-1,0-2-0.1-2.9c-0.2-1.1,0.6-4.2,0.2-4.6v-0.1h0.1c0.1,0.2,0.1,0.3,0.1,0.5h0.2c0,0,0.9,1.2,1,1.3c0.2,0.1,2.2,0.8,2.5,0.7
			c0.2,0,0.8,0.2,1.2,0.2c0.8-0.1,2.4,0.3,3.5,0.4c0.3,0,0.8-0.1,1-0.1c0.2,0,0.4,0,0.6,0.1c0,0,0.3-0.1,0.3-0.1
			c0.8,0.1,1.8-0.1,2.5-0.2c0.1,0,0.2,0,0.4,0.1c0.4-0.1,1-0.3,1.3-0.4c0.4-0.1,0.7,0.1,1.1-0.1l0.2-0.2c0.2,0,0.4,0,0.6,0.1
			c0.5-0.1,1.1-0.4,1.6-0.6c0.3-0.1,0.4,0.2,0.7,0c0.1,0,0.2,0,0.2,0.1c0,0.1,0.1,0.2,0.1,0.3c0,0.4-0.6,0.9-0.9,1h-0.5
			c-0.1,0-0.1,0.2-0.1,0.3c-0.1,0.1-0.3,0.2-0.4,0.2c0,0.2,0,0.1,0,0.2c0,0.3,0.1,0.3,0.2,0.5c0.1,0,0.2,0.1,0.2,0.1
			c0.9-0.3,1.6-0.8,2.1-1.4c0.1,0,0.1,0,0.2-0.1c0-0.3,0-0.4,0-0.7c0.8,0,1.6,0.6,2.2,0.7l-0.1,0.1c0,0,0,0,0.1,0.1
			c-0.2,0.3-0.5,0.4-0.8,0.6c-0.2,0.1-0.6,1.3-0.9,1.6c0,0.2,0,0.3,0.1,0.4c0.2,0.2,0.5,0.1,0.7,0.3c0.2-0.2,0.2-0.5,0.4-0.8
			c0.2-0.2,0.5-0.4,0.7-0.6c0.3-0.3,0.6-0.8,0.7-1.3c0.6,0.1,1.1,0.6,1.5,0.9c0.1,0.1,0.3,0,0.5,0.1c0.2,0.2,0.3,0.4,0.7,0.5
			c-0.1,0.4-1.3,1.7-1,2.1c0.1,0.2,0.2,0.2,0.3,0.4c0.9,0,1.3-1.2,1.7-1.9c0.4,0,1.7,0.6,1.8,0.9c0,0.1,0,0,0.1,0.1
			c-0.5,0.5-0.8,1.2-1.2,1.7c0.1,0.4,0.2,0.3,0.4,0.6c0.1,0,0.2,0,0.4,0.1c0.6-0.6,1.1-1.2,1.5-2c0.7,0.1,1.3,0.7,2,1v0.1
			c-0.2,0.1-0.5,0.4-0.6,0.6c-0.1,0.3,0.1,0.7-0.1,0.9c-0.2,0.3-0.7,0.5-0.6,0.9c0,0.3,0.3,0.3,0.5,0.5c0.2,0,0.2,0,0.3-0.1
			c0.6-0.3,1.1-1.7,1.5-2.3c0.1,0,0.1,0,0.2-0.1c0.3,0.4,0.9,0.4,1.3,0.7c0.5,0.3,1,0.7,1.5,1c-0.1,0.1-0.3,0.2-0.4,0.3
			c0,0,0.1,0.1,0.1,0.2c-0.1,0-0.2,0.1-0.4,0.1c-0.1,0.1,0.2,0.1,0,0.2c0,0-0.1,0-0.1-0.1c0,0.5-0.4,0.6-0.4,1.3
			c0.2,0.1,0.4,0.2,0.5,0.3c0.1,0,0.2,0,0.2-0.1c0.2-0.1,1.3-1.5,1.4-1.8c0.8,0.1,1.4,0.7,2,1c-0.2,0.2-1.1,1.7-0.8,2
			c0,0-0.1,0.1-0.1,0.1h-0.1c0.1,0.1,0.4,0.2,0.5,0.3c0.7-0.2,1.1-1.3,1.4-1.9c0.7,0.1,1.1,0.7,1.8,0.9c0,0.1,0,0.1,0.1,0.1
			c-0.1,0.6-0.7,1.2-1.1,1.7c0,0.3,0,0.4,0.2,0.6c0.2,0.1,0.7,0.1,0.9-0.1c0.5-0.3,0.5-1.1,1-1.4c0.1,0,0,0,0.1-0.1
			c0.6,0.6,1.5,1.1,2.1,1.5c-0.1,0.2-1.3,1.5-1.4,1.5c0,0.4,0,0.5,0.2,0.7c0.1,0.1,0.2,0.1,0.4,0.1c0.4-0.4,1.3-1,1.6-1.6
			c0.8,0,1.1,0.9,1.5,1.3c-0.2,0.3-0.6,0.4-0.9,0.6c-0.5,0.3-0.7,0.8-1.1,1.2c0,0.2,0,0.3,0.1,0.4c0.8,0.1,1.8-0.5,2.3-1.1
			c0.6,0.2,0.7,1.7,1,2.2c0,1.2-0.6,0.6-1.4,0.9c-0.2,0.1-0.5,0.2-0.7,0.3c0,0.5,0.2,0.5,0.4,0.8c0.4,0,0.7,0.1,0.9-0.1
			c0.3,0,0.7-0.1,0.9,0.1c0.2,0.3-0.1,0.5,0,0.9c0.1,0.6,0,1.3-0.1,2c-0.3,0-1.4-0.1-1.5-0.1c-0.3,0-0.3,0.1-0.5,0.2
			c0,0.5,0.2,0.5,0.4,0.9c0.4,0,1.1,0,1.6,0.1l0.1,0.1c0,1-0.2,1.7-0.2,2.7c0,0,0,0-0.1,0.1c-0.8,0-1.3-0.2-1.9,0
			c0,0.1-0.1,0.3-0.1,0.4c0.5,0.5,1,0.6,1.8,0.7l0.1,0.1c0,0.9-0.3,1.4-0.4,2.3c-0.7,0-1.2-0.1-1.8-0.1c-0.1,0.1-0.2,0.2-0.4,0.2
			c0,0.3,0.1,0.4,0.1,0.6c0.6,0.1,1.1,0.2,1.8,0.2c-0.1,0.8-0.2,1.3-0.3,2.1c-0.4,0-1,0.1-1.3,0c-0.2-0.1-0.4-0.3-0.6-0.2
			c-0.4,0-0.4,0.1-0.6,0.3c0,0.2,0,0.3,0.1,0.4c0.2,0.4,1.1,0.6,1.7,0.5c0.3-0.1,0.4-0.3,0.7-0.4c-0.1,0.7-0.3,1.2-0.4,1.8
			c-0.7,0-1.2,0.2-1.9,0.1c-0.1,0-0.2,0-0.3,0.1c-1-0.2-2.1-0.5-3-0.9c-0.2,0-0.4,0-0.6-0.1c-0.3-0.1-0.7-0.3-1-0.4
			c-0.7-1.5-0.2-2.5,0.1-4.1c0-0.1-0.1-0.2-0.1-0.3c0.2-0.9,0.1-1.4,0.2-2.5c0-0.1-0.1-0.3-0.1-0.6c0.2-0.8,0.5-3.1,0.3-4.1
			c-0.2-0.9,0.1-1.8-0.2-2.5c-0.2-0.4-0.8-0.7-0.9-1v-0.4c-0.2-0.3-0.9-0.8-1.2-1c-0.5-0.4-0.9-1.1-1.5-1.4
			c-1.4-0.9-2.8-1.8-4.3-2.6c-0.3-0.2-0.7-0.1-1-0.3c-1-0.5-2.2-1-3.3-1.3c-0.3-0.1-0.9,0-1.2-0.1l-0.2-0.2
			c-0.4-0.2-0.9,0.1-1.3-0.1l-0.2-0.2c-0.2-0.1-0.4-0.1-0.7-0.1c-0.7-0.2-1.4,0-1.8-0.4c-0.9,0-0.6,0.2-1,0.6
			c0.1,0.4,0.4,0.4,0.6,0.7c1.2,0,2,0.4,3,0.6c0.1,0,0.3-0.1,0.4-0.1c1,0.2,2.7,0.4,3.4,0.9c0.1,0.1,0.6,0.9,0.6,1c0,0,0,0,0.1,0.1
			h-0.1v0.3c-0.5,0.1-1,0-1.3-0.1c-0.2,0.2-0.6,0.5-0.9,0.6c0.1,0.2,0.1,0.4,0.2,0.6c0.5,0.4,1.6,0,2.4-0.1c0,0.4,0.2,1,0.4,1.3
			c-0.1,0.4-0.5,0.5-0.9,0.6c-0.1,0-0.2,0-0.3-0.1c0,0-0.1,0.2-0.1,0.2c-0.1,0-0.1,0-0.2-0.1c-0.2,0.1-0.4,0.4-0.7,0.6
			c0,0.2,0,0.3-0.1,0.4c0.1,0.2,0.3,0.2,0.4,0.4c0.8,0,0.9-0.5,1.5-0.4c0.1-0.2,0.2-0.3,0.3-0.4c0.1,0,0.2,0,0.2,0.1
			c0.7,0.4,0.5,1.6,1.2,2.2c-0.1,0.5-0.3,0.2-0.6,0.4c-0.5,0.3-1,0.2-1.3,0.7c-0.1,0.1,0,0.1-0.1,0.2c0.1,0.1,0.1,0.2,0.2,0.3
			c0.3,0,0.5,0.2,0.9,0.1c0.3-0.1,1-0.5,1.2-0.8c0.5,0.1,1,1.7,1.1,2c-0.3,0.1-0.3,0.2-0.4,0.4c-0.3,0.2-0.8,0.2-1.1,0.4
			c-0.1,0.1-0.1,0.2-0.2,0.3c0.1,0.1,0.3,0.3,0.3,0.5c0.2,0,0.5,0,0.6,0.1c0.4,0,0.8-0.3,1-0.6c0.7,0,0.6,1,0.9,1.3
			c0,0.9-1.2,0.9-1.5,1c-0.1,0-0.1,0-0.2,0.1c0,0.4,0,0.5,0.1,0.8c0.6,0,1.1,0,1.5-0.2c0.2-0.1,0.2-0.3,0.6-0.3
			c0.1,0.6,0.4,1.4,0.6,2c0.1,0.3,0,0.8,0,1H344c-0.2,0.1-0.7-0.1-0.8-0.2c-0.2,0.1-0.2,0.2-0.4,0.3h-0.4c-0.2,0.1-0.2,0.3-0.6,0.4
			c0.1,0.3,0.3,0.4,0.4,0.7c0.4,0,0.5,0,0.8-0.1c0,0.1,0.1,0.2,0.1,0.2h0.1v-0.2c0.3,0,0.7-0.1,0.9,0.1c0.1,0,0.1,0,0.1,0.1
			c0.2,0.2,0.1,0.6,0.2,0.8c-0.2,0.5-1.2,0.7-1.6,1c-0.1,0.1-0.1,0.3-0.1,0.4c0.1,0.1,0.1,0.1,0.1,0.3c0.8,0.2,1-0.3,2-0.6
			c0.3,0.7,0.3,2.2,0.2,2.8c-0.2,0-0.7,0-0.9-0.1c-0.3,0-0.4,0-0.6,0.1c-0.1,0.1,0,0-0.1,0c0,0,0,0-0.1,0.1c0.1,0.3,0.3,0.4,0.4,0.7
			c0.1,0,0.7,0.3,1,0.1c0.2,0,0.3,0,0.4,0.1c-0.4,1-1.5,0.5-2.5,0.7c-0.6,0.1-1.3-0.2-1.8-0.3c-0.1,0-0.1,0-0.2,0.1
			c0,0,0-0.1-0.1-0.1c-0.2,0-0.4,0-0.6-0.1c0,0,0-0.1-0.1-0.1c-0.1,0-0.2,0.1-0.3,0.1c-0.2,0-0.5-0.3-0.8-0.3
			c-0.5-0.1-1,0.1-1.3,0.2c-0.2,0.1-0.5,0-0.7,0.1c-0.6,0.4-2.2,1.3-1.5,2.5c0.1,0.4,0.3,0.4,0.5,0.6c0.1,0.1,0.2,0.3,0.2,0.4
			c0.8,0.6,2.3,0.9,3.2,0.9c0.7,0,1.8,0.2,2.3-0.1c0.1,0,0.2,0,0.2,0.1c-0.1,0.9-1.3,0.8-2,1.1c-1.5,0.7-3,0.6-3.2,2.8h-0.2
			c-0.1,0-0.4,0.1-0.5,0.1c-0.2,0-0.8-0.2-1.1-0.1c0,0,0,0.2-0.1,0.1c-0.1-0.1-1-0.2-1.3-0.1c-1.6,0.3-3.1,0.2-4.5-0.1
			c-0.3-0.1-0.5,0.2-0.7,0.1c-0.5-0.1-1.4-0.2-1.9-0.4h-0.7c-0.5-0.1-1.2-0.3-1.7-0.4L323.7,335L323.7,335z M355.9,304.9v0.1
			c-0.2,0-0.1,0-0.1-0.1H355.9z M336.6,346.1c-0.3,0.1-0.4,0.2-0.7,0.3c0.1,0.7,0.8,1.1,1.3,1.3c-0.2,0.4-0.7,0.4-0.8,1
			c-0.6-0.1-0.8,0.7-1.6,0.5c-0.5-0.1-1.4-0.7-1.5-0.7h-0.5c0,0.1,0,0.1-0.1,0.1c0.1,0.7,0.9,1.2,1.5,1.4c0,0,0,0-0.1,0.1
			c-0.2,0.9-2.2,1.6-2.8,2.3c-0.6-0.1-1.5-0.4-1.9-0.7c-0.1,0-0.1,0-0.2,0.1c0,0-0.1,0.1-0.1,0.2c0.2,0.5,0.6,0.6,0.9,1
			c0.1,0.1,0.1,0.2,0.1,0.2c-0.2,0.5-0.8,0.7-1.2,1.2h-0.2v0.2c-1,0-1.4-0.1-2.1-0.7c-0.1-0.1-0.5-0.2-0.6-0.1
			c-0.1,0.1-0.2,0.2-0.2,0.4c0.6,0.6,0.7,0.8,1.5,1.2c-0.1,0.3-0.6,0.7-0.9,0.8c-0.4,0.3-0.9-0.1-1.1-0.2c-0.2-0.1-0.4,0-0.4-0.1
			c-0.4-0.2-0.6-0.5-1.3-0.5c0,0,0,0-0.1,0.1c0,0.2,0,0.4,0.1,0.6c0.2,0.6,1.1,0.4,1.3,0.9h0.1c-0.1,0.3-0.2,0.3-0.5,0.4
			c-1.4,0.8-1.8-0.6-2.9-0.2c0-0.1-0.1,0.1-0.2,0.1c0.2,0.5,0.8,0.9,1.3,1.1c0.3,0.1,0.6,0,0.7,0.1c0.5,0.2,0.2,0.4,0.3,0.9
			c0.1,0.2,0.2,0.6,0.3,0.9c-0.4,0.2-0.9,0.4-1.4,0.6c-0.4,0.1-0.6-0.1-0.9,0.1c-0.2,0.1-0.2,0.1-0.3,0.2c0.1,0.3,0.2,0.4,0.3,0.6
			c0.8,0,1.7,0,2.1-0.4c0.3,0,0.3,0.1,0.5,0.2c0,0.3-0.1,1.2,0.1,1.5c0,0.9-1.9,1.2-2.7,1.2c0,1.1,2,0.7,2.5,0.3
			c0.1,0,0.2,0,0.2,0.1c0.3,0.4,0.5,2.2,0.4,2.3c-0.4,0.7-1.7,0-2.3,0.5c-0.3,0-0.2,0.1-0.4,0.2c0,0.1,0,0.2,0.1,0.3
			c0.6,0.1,1.7,0.6,2.4,0.1c0.2,0,0.3,0,0.4,0.1c0.1,0.4,0.1,1.4,0.4,1.7c0,1.4-1.5,0.6-2.3,1.2c-0.2,0.1-0.2,0.2-0.2,0.5
			c0.2,0,0.3,0.2,0.4,0.2c0.3,0.1,0.8-0.2,1-0.2c0.2,0,0.4,0,0.6,0.1c0.3-0.1,0.3-0.2,0.7-0.2c0.1,0.6,0.3,1.2,0.3,1.7
			c-0.7,0.2-1.6,0.4-2.2,0.4c-0.1,0.1-0.1,0.2-0.2,0.2c0.2,0.8,1.9,0.5,2.4,0.1c0.4,0.1,0.8,1.7,0.7,1.8c0,0.5-1.3,0.7-1.4,0.7
			c-0.3,0-0.4,0.1-0.6,0.1c0,0.2,0,0.3-0.1,0.4c0.2,0.5,1.8,0.4,2.2,0c0.3,0.1,0.2,0.4,0.5,0.4c0,0.1,0.2,1.2,0.3,1.3
			c-0.1,0.8-1.7,1-2.3,1.1v0.4c0,0,0.1,0.1,0.1,0.1c0.3,0.1,1.7,0.2,1.9-0.2c0.6,0,0.4,0.4,0.6,0.7c-0.1,0.5-0.8,0.9-1.2,0.9
			c-0.1,0-0.2-0.1-0.4-0.1c-0.1,0.1-0.2,0.2-0.3,0.4c0,0.2,0.1,0.2,0.2,0.4c0.5,0.1,1.3,0.1,1.8-0.3c0.2,0.1,0.2,0.1,0.4,0.2
			c0,0.5-0.6,0.6-1,0.8c-0.1,0-0.1-0.1-0.2-0.1v0.1c-0.2,0.1-0.5,0-0.7,0.2c0,0-0.1,0.2-0.2,0.2c-0.4,0.3-1.3,0.1-1.7,0.4
			c0,0.1,0,0.1-0.1,0.2c-0.3,0.2-1,0-1.3,0.1c-0.2,0-0.5,0.1-0.9,0.1c-0.2,0-0.3,0-0.5-0.1c-0.3,0.1-0.6,0.2-0.9,0.2
			c-0.2,0,0-0.2-0.2-0.1c-0.8,0.1-2.1,0.2-3,0c-0.7-0.2-1,0.2-1.5,0.1c-0.8-0.2-1.5-0.2-2-0.5c-0.3-0.2-0.6,0-1-0.1
			c-1.1-0.4-2.2-0.6-3.2-1c-0.5-0.2-1-0.7-1.5-0.7c0,0,0,0,0.1-0.1c-0.1-0.2-0.2-0.1-0.4-0.2c-0.2-0.1-0.8-0.9-0.9-1
			c-0.2-0.5-0.1-1.6-0.1-2c0-0.2-0.1-0.4-0.1-0.4c0-0.1,0.1-0.4,0.1-0.5c-0.2-0.9-0.2-1.6-0.1-2.2c0.1-0.4-0.1-0.5,0.1-0.7
			c0,0-0.1-0.8-0.1-0.9c0.2-0.4,0.1-2.4,0.1-2.8c0-0.3,0-0.6,0.1-0.9c0-0.2-0.1-0.7-0.1-0.9c0-0.1,0.1-0.5,0.1-0.7
			c-0.2-0.7-0.1-1.4-0.1-2.2c0-0.3,0.1-0.5,0.1-0.7l-0.1-0.2c0,0,0.3-0.8,0.2-1.2c-0.2-0.9-0.1-3.1,0.1-4c0.1-0.6,0-1.4,0.1-1.8
			c0.1-0.3,0.1-0.8,0.2-1.3c0-0.2-0.1-0.5,0.1-0.9c0.1-0.3,0.5-0.5,0.7-0.7c0.4-0.6,0.6-1.3,1-1.8c0.2-0.2,0.4-0.5,0.7-0.7
			c0.1,0,0.2-0.1,0.2-0.1c0.2-0.2,0.2-0.6,0.4-0.8c0.4-0.5,1.1-1.4,1.7-1.7v-0.2c0.4-0.1,0.7-0.5,0.9-0.9h0.2
			c0.1-0.3,1.4-2.1,1.7-2.3c0.2-0.1,0.4-0.2,0.5-0.3c0.3-0.3,0.6-0.7,0.9-1v-0.2c0.1-0.1,0.3-0.1,0.4-0.2c0.2-0.3,0.4-0.7,0.6-1
			c0.2-0.2,0.4-0.4,0.6-0.6c0.1-0.2,0.1-0.3,0.2-0.5c0.2-0.2,0.6-0.4,0.7-0.6c0.3-0.4,0.7-1,1.2-1.4V341c0.5-0.1,0.8-0.8,1.2-1.2
			c0.1,0,0.2-0.1,0.2-0.1c0.7-0.8,1.4-1.5,2.1-2.3c0.4-0.4,0.5-1,1-1.1c0.2-0.1,0.5,0.1,0.8,0.1c0.5,0,1.5,0,2,0.1
			c0.1,0,0.4,0.2,0.6,0.2c0.5,0,1.8,0,2.4,0.1c0.1,0,0.3,0.1,0.4,0.1c0.7-0.1,2-0.1,2.8,0c0.3,0,0.5-0.1,0.9-0.1
			c0.9,0,1.7,0,2.6-0.1c0.6,0.2,0.9,0.4,1.7,0.5v0.7c0.5,0.5,0.8,1.1,1.6,1.3c0.7,0.2,1.2-0.2,1.7,0.1c0.2,0.2,0.2,0.3,0.3,0.6
			c0,0,0.1,0,0.1-0.1c0.4,0.4,0.6,0.8,1.3,0.9v0.3c-0.2,0.2-0.2,0.3-0.5,0.4c-0.7,0.5-2-0.4-2.1-1c-0.5,0-0.5,0.2-0.8,0.4
			c0,1,1.3,1.5,2,1.8c-0.1,0.4-0.4,0.8-0.7,1c-0.2,0.1-0.3,0.1-0.6,0.2c-0.9,0.3-1,0.1-1.8-0.4c-0.1,0-0.3,0-0.4,0
			c-0.2,0.1-0.4,0.4-0.2,0.7c0.2,0.6,1.1,0.4,1.4,0.9c0,0.1,0,0.3,0.1,0.4c-0.4,0.2-1.5,0.9-1.5,1.2
			C338,346.9,337.2,346.8,336.6,346.1z M379.6,362.9h-0.1c0,0.6-0.1,1.7-0.4,2.1l-0.1,1.1c-0.1,0-0.1,0.1-0.2,0.1
			c0,0.1,0.1,0.3,0.1,0.4c-0.1,0.2-0.2,0.3-0.2,0.6c-0.1,0.3,0.1,0.7,0,0.9c0,0.1-0.2,0.1-0.2,0.3c0.1,0.7-0.6,1.3-0.9,1.8
			c0,0.2,0,0.4-0.1,0.6c-0.1,0.2-0.3,0.4-0.4,0.6c-0.1,0.2-0.2,0.6-0.2,0.7c-0.2,0.4-0.7,0.9-1,1.2c-0.4,0.6-0.6,1.1-1.2,1.5v0.2
			c-0.4,0.1-0.6,0.5-1,0.6c-0.6,0.1-2.3-0.2-2.8-0.5c-0.3,0.1-1.5-0.4-1.8-0.5c-0.3,0-0.5,0-0.8-0.1c-0.2-0.1-0.5-0.3-0.7-0.4
			c-0.1,0-0.2,0.1-0.2,0.1c0-0.1,0-0.1-0.1-0.2c-0.2-0.1-0.5-0.1-0.7-0.1c-0.1,0-0.3-0.2-0.4-0.2c-0.1,0-0.3,0.1-0.4,0.1
			c-0.3-0.1-0.3-0.3-0.8-0.3c0.1,0,0,0,0.1-0.1c-0.1-0.1-1-0.2-1.2-0.6c-0.3,0-0.1,0-0.2-0.1c-0.2-0.1-0.6-0.1-0.8-0.1
			c-0.1,0-0.3-0.2-0.3-0.2c-0.1,0-0.3,0.1-0.6,0c-0.4-0.1-0.7-0.1-1.1-0.3c-0.3-0.1-1-0.6-1.3-0.4c0,0,0,0-0.1-0.1h0.1
			c-0.1-0.2-0.6-0.1-0.9-0.2c-0.2-0.1-0.4-0.3-0.6-0.4c-0.2-0.1-0.9-0.1-1-0.1c-0.2-0.2-0.5-0.4-0.9-0.6c-0.1,0-0.3,0-0.4-0.1
			c-1.6-1-4.1-1.2-5.8-2.4c-0.1,0.1-1.3-0.5-1.5-0.6c-0.4-0.3-0.5-0.8-0.9-1.1c-0.5-0.5-1.4-1.5-1.5-2.3h-0.2c0-0.1,0-0.1,0.1-0.2
			c-0.4-0.1-0.2-0.4-0.3-0.5c-0.1-0.1-0.3-0.2-0.4-0.2c0-0.1,0-0.1,0.1-0.2c-0.2-0.4-0.7-0.7-0.9-1.1c-0.1-0.2-0.1-0.5-0.2-0.7
			c-0.1-0.1-0.3-0.2-0.3-0.4v-0.3c0-0.1-0.3-0.2-0.3-0.2c0-0.1,0-0.1,0.1-0.2c0-0.1-0.2-0.2-0.2-0.2c-0.2-0.3-0.1-0.4-0.2-0.6
			c-0.1-0.1-0.2-0.3-0.2-0.4c-0.1,0-0.2-0.1-0.2-0.1c0-0.1,0-0.2-0.1-0.4c-0.1-0.2-0.4-0.3-0.6-0.5v-0.2h-0.1
			c-0.1-0.1,0-0.3-0.1-0.4c0,0-0.3-0.2-0.3-0.2c0,0,0-0.1,0.1-0.1c-0.1-0.2-0.3-0.4-0.4-0.6h-0.1v-0.2c-0.3-0.4-1.1-1.5-1-2
			c-0.1-0.1-0.3-0.2-0.4-0.3c-0.2-0.2-0.2-0.6-0.4-0.8c-0.1-0.1-0.2-0.1-0.3-0.2c-0.3-0.4-0.3-0.7-0.6-1c0-0.6,0.6-0.7,1-1
			c0.1-0.1,0.2-0.4,0.4-0.5c0.2-0.2,0.6-0.2,0.7-0.4c0.1-0.1,0.2-0.3,0.3-0.4c0.1,0,0.2,0,0.3-0.1c0.1-0.1,0.2-0.4,0.4-0.5
			c0.1-0.1,0.3,0,0.4-0.1c0.2-0.1,0.3-0.4,0.5-0.6h0.2c0.1-0.1,0.1-0.2,0.2-0.3c0.2-0.2,0.4-0.3,0.6-0.5c0,0,0-0.1-0.1-0.1
			c0.2-0.2,0.5-0.3,0.6-0.4c0.6-0.7,1.2-1.5,1.8-2.3c0.2-0.2,0.5-0.4,0.7-0.6c0.4-0.6,0.7-1.2,1.1-1.7c0.6-0.8,1.5-1.6,2-2.5
			c0.4,0.1,0.4,0.4,0.6,0.6c0,0.9-0.7,2-1.2,2.6c0,0.2,0,0.3,0.1,0.4c0.1,0.1,0.1,0.1,0.2,0.2c0.8,0,1-1.3,1.5-1.8c0,0,0,0,0.1-0.1
			v0.1c0.4,0.1,0.4,0.6,0.7,1c0.1,0.1,0.2,0.1,0.3,0.2c0.1,0.3-0.3,0.4-0.6,0.4c-0.1,0.3,0,0.8-0.2,1.1c-0.1,0.1-0.5,0.4-0.5,0.4
			v0.4c-0.1,0.2-0.3,0.3-0.4,0.5c-0.1,0.2-0.1,0.4-0.1,0.6c0.1,0.1,0.1,0,0.2,0.2c0.2,0,0.4,0,0.5-0.1c0.3-0.1,0.2-0.4,0.4-0.7
			c0.3-0.4,1-1.3,1.1-1.7c0.6,0.2,1.2,1.9,1.6,2.4c0,0.7-0.5,0.7-0.9,1c-0.3,0.4-0.3,1-0.9,1.2c0.1,0.1,0.1,0.3,0.2,0.4
			c1.2,0,1.2-1.4,2.1-1.6c0.3,0.4,0.8,1.3,0.9,1.7c0,0.7-0.5,0.6-0.7,1c-0.1,0.1,0,0.3-0.1,0.4c-0.2,0.2-0.5,0.2-0.6,0.6h-0.1
			c0.1,0,0,0,0.1,0.1c-0.1,0,0,0-0.1,0.1c0.1,0.1,0.2,0.2,0.2,0.2c1-0.1,1.1-0.8,1.8-1.2c0,0,0,0,0.1-0.1c0.2,0.4,0.6,1.2,0.9,1.4
			c-0.4,0.6-1.1,1.1-1.7,1.6c0,0.1,0,0.4,0.1,0.6c0.1,0.1,0.2,0.1,0.3,0.2c0.2-0.1,0.3-0.1,0.5-0.2v-0.2c0.4-0.1,0.9-0.7,1-1
			c0.6,0.1,0.9,1.3,1.3,1.7c0,0.2,0,0.3,0,0.4c-0.1,0.2-0.9,1.2-1,1.2v0.2h-0.2c0,0.2,0,0.3-0.1,0.4c0,0.2,0,0.1,0.1,0.1
			c0,0,0,0-0.1,0.1v0.1c0.3,0,0.1,0,0.4,0.1c0.4-0.5,0.9-1,1.4-1.4c0,0,0,0,0.1-0.1c0.1,0.1,0.3,0.2,0.4,0.3c0.3,0.3,0.2,0.8,0.6,1
			c0,0.7-0.5,0.9-0.4,1.3h-0.2c-0.1,0.4-0.4,0.5-0.4,1c0.2,0,0.1,0,0.2,0.1c0.2-0.1,0.1-0.1,0.4-0.2c0.2-0.8,0.9-1.2,1.2-1.8
			c0.8,0.1,1.8,0.4,2.5,0.7c-0.1,0.5-0.3,0.5-0.5,0.7c-0.1,0.1-0.1,0.5-0.1,0.6H363c-0.1,0.2-0.2,0.3-0.3,0.6
			c-0.2,0.1,0,0.3,0.1,0.4c0.8-0.2,1.2-1.5,2-1.8c0.3-0.2,1.1,0.2,1.3,0.4c0.2,0.4-0.7,1.1-0.4,1.6v0.3c0.1,0,0.1,0,0.1,0.1
			c0.9-0.1,0.9-1.9,1.8-1.7c0.2,0,0.4,0.2,0.6,0.3c0.3,0.1,0.5,0.1,0.6,0.4c0.1,0-0.4,1.1-0.6,1.2c0,0.3,0,0.3,0.1,0.5
			c0.2,0.1,0.3,0.1,0.6,0.1c0.1-0.6,0.6-1,0.8-1.5c0.7,0,1,0.3,1.7,0.5c-0.1,0.3,0,0.9-0.3,1.3c0,0.2,0,0.3,0.1,0.4
			c0.2,0,0.2,0,0.3-0.1c0.4-0.1,0.7-0.8,0.7-1.2c0.4-0.1,1.3-0.1,1.6,0.1c0.4,0.1,0.3,0.3,0.6,0.4c-0.2,0.7-0.5,1.2-0.7,1.8
			c-0.1,0.2,0.1,0.4,0.1,0.5c0.4,0,0.5,0,0.8-0.2c0.3-0.7,0.4-1.9,0.9-2.1c0.1-0.1,0.6,0.1,0.7,0.2c0.1,0.1,0.2,0.2,0.2,0.2
			c0,0.1-0.1,1.7-0.1,1.7c0,0.1,0,0.2,0.1,0.2c0.1,0,0.1,0,0.1,0.1c0.7-0.1,0.4-1.3,0.9-1.8c0.1-0.1,1.8-0.1,1.9,0
			C379.8,361.8,379.5,362.6,379.6,362.9C379.6,363,379.6,362.9,379.6,362.9z M318.2,253.4c0.5,0.3,0.9-0.1,1.3,0.2
			c0.2,0.1,0.7,0.7,0.9,0.9c0.6,0,1.1-0.6,1-1.1c0.1-0.1-0.1-0.2-0.2-0.2c0-0.1,0-0.1,0.1-0.2c-0.1,0-0.1,0-0.2-0.1
			c0-0.3-0.1-0.2-0.1-0.4h-0.2c0-0.4-0.1-0.4-0.1-0.9c0,0,0,0-0.1-0.1c-0.2,0-0.6,0.1-0.7,0.2c-0.2-0.1-0.1,0-0.1-0.2
			c-0.1,0.1-0.4,0.3-0.4,0.1h-0.1c0,0.1,0,0.2-0.1,0.2c-0.2,0.1-0.5,0-0.6,0.1c-0.1,0-0.3,0.3-0.4,0.4c0,0.1,0,0.1-0.1,0.2h-0.2
			c0,0.1,0,0.1,0.1,0.1C317.8,253.1,317.9,253.3,318.2,253.4z M319.2,251.8c-0.1,0-0.1,0-0.1-0.1
			C319.2,251.8,319.2,251.8,319.2,251.8z M316,258.2c0.3,0.1,0.6,0.3,0.9,0c0.7,0,1.2-1,1.5-1.4c0.1-0.2,0-0.5,0.1-0.7
			c-0.2-0.5-0.5-0.6-0.9-0.9c-0.1-0.1-0.2,0-0.4,0.1c-0.1-0.1-0.1-0.1-0.2-0.2c0,0.2,0,0.1,0.1,0.2c-0.5,0.2-1.3,1.6-1.1,2.4
			C315.9,257.9,316,258,316,258.2z M322.3,270.9c0.3,0.2,0.7,0,1.1,0.1c1.3,0.3,3-0.4,3.6-1.2h0.2c0.1-0.4,0.2-0.8,0.4-1.1
			c0.1-0.2,0.4-0.3,0.4-0.5c0-0.2-0.1-0.6-0.1-0.7c0.2-1.2,0-2.5-0.8-3.2c-0.3-0.2-0.7-0.5-1-0.7c-0.5-0.2-1.1-0.1-1.4-0.5
			c-0.5,0-0.7,0-0.9,0.4c-0.1,0.1,0,0.4,0.1,0.6c0.4,0.4,1,0.5,1.5,0.7c0.5,0.2,0.7,0.8,1.1,1c0,2.2-0.5,3.5-2,3.9
			c-0.9,0.2-2.3-0.6-2.8,0.2c-0.1,0.1-0.1,0.4,0.1,0.6C321.9,270.7,322.1,270.8,322.3,270.9z M286.1,278.2h-0.1
			C286,278.2,286,278.2,286.1,278.2L286.1,278.2z M325.9,284c0-0.1,0,0,0.1-0.1c-0.1,0-0.1,0-0.2-0.1v0.3
			C325.9,284.1,325.8,284.2,325.9,284z M325.6,284.4c0-0.1,0-0.1,0.1-0.1c-0.1,0-0.1,0-0.2-0.1C325.5,284.3,325.5,284.2,325.6,284.4
			C325.5,284.3,325.6,284.4,325.6,284.4z"/>
	</g>
</g>
<g>
	<g>
		<path class="st1" d="M339,346.6c0-0.3,1.2-1,1.5-1.2c0-0.1,0-0.3-0.1-0.4c-0.3-0.5-1.2-0.3-1.4-0.9c-0.2-0.3,0-0.6,0.2-0.7
			c0.1,0,0.3,0,0.4,0c0.8,0.5,0.9,0.7,1.8,0.4c0.2-0.1,0.4-0.1,0.6-0.2c0.3-0.2,0.6-0.6,0.7-1c-0.7-0.3-2-0.8-2-1.8
			c0.3-0.2,0.3-0.4,0.8-0.4c0.1,0.6,1.4,1.5,2.1,1c0.3-0.1,0.3-0.3,0.5-0.4v-0.3c-0.7,0-1-0.5-1.3-0.9c0,0-0.1,0-0.1,0.1
			c-0.1-0.3-0.1-0.4-0.3-0.6c-0.4-0.3-0.9,0.1-1.7-0.1c-0.8-0.2-1.1-0.8-1.6-1.3v-0.7c-0.8-0.1-1-0.3-1.7-0.5c-0.9,0-1.7,0-2.6,0.1
			c-0.4-0.1-0.6,0.1-0.9,0.1c-0.8-0.1-2-0.1-2.8,0c-0.2,0-0.3-0.1-0.4-0.1c-0.7-0.1-2-0.2-2.4-0.1c-0.2,0-0.5-0.1-0.6-0.2
			c-0.5-0.2-1.6-0.2-2-0.1c-0.3,0-0.6-0.2-0.8-0.1c-0.6,0.1-0.7,0.7-1,1.1c-0.7,0.7-1.5,1.5-2.1,2.3c-0.1,0-0.2,0.1-0.2,0.1
			c-0.3,0.4-0.6,1.1-1.2,1.2v0.2c-0.6,0.4-0.9,1-1.2,1.4c-0.2,0.2-0.6,0.4-0.7,0.6c-0.1,0.2-0.1,0.3-0.2,0.5
			c-0.2,0.2-0.4,0.4-0.6,0.6c-0.2,0.3-0.4,0.7-0.6,1c-0.1,0.1-0.3,0.1-0.4,0.2v0.2c-0.2,0.3-0.6,0.8-0.9,1c-0.1,0.1-0.3,0.2-0.5,0.3
			c-0.2,0.2-1.6,2-1.7,2.3h-0.2c-0.2,0.3-0.5,0.8-0.9,0.9v0.2c-0.5,0.3-1.3,1.2-1.7,1.7c-0.2,0.2-0.2,0.6-0.4,0.8
			c-0.1,0-0.2,0.1-0.2,0.1c-0.2,0.3-0.4,0.5-0.7,0.7c-0.5,0.5-0.6,1.2-1,1.8c-0.2,0.3-0.6,0.4-0.7,0.7c-0.1,0.3,0,0.7-0.1,0.9
			c-0.1,0.5-0.2,1-0.2,1.3c-0.1,0.4,0.1,1.2-0.1,1.8c-0.2,0.9-0.3,3.1-0.1,4c0.1,0.4-0.1,1.1-0.2,1.2l0.1,0.2c0,0.3-0.1,0.4-0.1,0.7
			c0.1,0.8,0,1.5,0.1,2.2c0.1,0.2,0,0.6-0.1,0.7c0,0.2,0.1,0.8,0.1,0.9c0,0.3,0,0.6-0.1,0.9c0.1,0.4,0.1,2.4-0.1,2.8
			c0,0,0.1,0.8,0.1,0.9c-0.2,0.2,0,0.4-0.1,0.7c-0.1,0.6-0.1,1.3,0.1,2.2c0,0.1-0.1,0.4-0.1,0.5c0,0,0.1,0.3,0.1,0.4
			c0,0.3-0.1,1.5,0.1,2c0.1,0.2,0.8,0.9,0.9,1c0.2,0.1,0.3,0,0.4,0.2c0,0,0,0-0.1,0.1c0.5,0,1,0.5,1.5,0.7c1.1,0.4,2.1,0.6,3.2,1
			c0.3,0.1,0.6,0,1,0.1c0.5,0.2,1.2,0.3,2,0.5c0.5,0.1,0.8-0.3,1.5-0.1c0.9,0.2,2.2,0.1,3,0c0.2,0,0,0.1,0.2,0.1
			c0.3,0,0.6-0.1,0.9-0.2c0.2,0,0.3,0,0.5,0.1c0.3,0,0.6-0.1,0.9-0.1c0.3-0.1,1,0.1,1.3-0.1c0-0.1,0-0.1,0.1-0.2
			c0.5-0.2,1.3-0.1,1.7-0.4c0,0,0.1-0.2,0.2-0.2c0.2-0.1,0.5-0.1,0.7-0.2v-0.1c0.1-0.1,0.2,0,0.2,0.1c0.4-0.2,0.9-0.3,1-0.8
			c-0.2-0.1-0.1-0.2-0.4-0.2c-0.5,0.4-1.3,0.4-1.8,0.3c-0.1-0.1-0.1-0.1-0.2-0.4c0.1-0.1,0.2-0.2,0.3-0.4c0.1-0.1,0.3,0.1,0.4,0.1
			c0.4,0,1.1-0.4,1.2-0.9c-0.2-0.4-0.1-0.7-0.6-0.7c-0.2,0.3-1.6,0.3-1.9,0.2c0,0-0.1-0.1-0.1-0.1v-0.4c0.6-0.1,2.2-0.3,2.3-1.1
			c-0.1-0.2-0.3-1.3-0.3-1.3c-0.2,0-0.2-0.3-0.5-0.4c-0.4,0.4-2,0.5-2.2,0c0-0.1,0-0.2,0.1-0.4c0.2-0.1,0.3-0.1,0.6-0.1
			c0.1,0,1.4-0.1,1.4-0.7c0.1-0.1-0.3-1.8-0.7-1.8c-0.5,0.4-2.2,0.7-2.4-0.1c0.1-0.1,0.1-0.1,0.2-0.2c0.6,0,1.5-0.3,2.2-0.4
			c0-0.5-0.2-1.1-0.3-1.7c-0.4,0-0.4,0.1-0.7,0.2c-0.2,0-0.4,0-0.6-0.1c-0.2,0.1-0.7,0.3-1,0.2c-0.2,0-0.2-0.2-0.4-0.2
			c0-0.3,0.1-0.4,0.2-0.5c0.8-0.6,2.3,0.2,2.3-1.2c-0.3-0.3-0.3-1.3-0.4-1.7c-0.1,0-0.2-0.1-0.4-0.1c-0.7,0.5-1.8,0.1-2.4-0.1
			c0-0.1,0-0.2-0.1-0.3c0.2-0.1,0.1-0.1,0.4-0.2c0.6-0.5,1.9,0.2,2.3-0.5c0.1-0.1-0.1-1.9-0.4-2.3c-0.1,0-0.1,0-0.2-0.1
			c-0.5,0.4-2.5,0.8-2.5-0.3c0.8,0,2.7-0.2,2.7-1.2c-0.2-0.3-0.1-1.1-0.1-1.5c-0.2-0.1-0.2-0.2-0.5-0.2c-0.4,0.4-1.3,0.4-2.1,0.4
			c-0.1-0.2-0.2-0.3-0.3-0.6c0.1-0.1,0.1-0.1,0.3-0.2c0.3-0.2,0.5,0,0.9-0.1c0.5-0.1,1-0.3,1.4-0.6c-0.1-0.3-0.2-0.7-0.3-0.9
			c-0.1-0.5,0.2-0.7-0.3-0.9c-0.1-0.1-0.4,0-0.7-0.1c-0.5-0.2-1.1-0.6-1.3-1.1c0.1,0,0.1-0.2,0.2-0.1c1.1-0.3,1.5,1,2.9,0.2
			c0.3-0.2,0.4-0.1,0.5-0.4H325c-0.3-0.5-1.1-0.3-1.3-0.9c-0.1-0.1-0.1-0.3-0.1-0.6c0,0,0,0,0.1-0.1c0.6-0.1,0.8,0.2,1.3,0.5
			c0.1,0,0.2,0,0.4,0.1c0.2,0.1,0.7,0.5,1.1,0.2c0.3-0.1,0.8-0.5,0.9-0.8c-0.9-0.4-1-0.6-1.5-1.2c0-0.2,0-0.3,0.2-0.4
			c0.2-0.1,0.5-0.1,0.6,0.1c0.7,0.6,1.1,0.7,2.1,0.7v-0.2h0.2c0.3-0.4,1-0.6,1.2-1.2c0-0.1,0-0.1-0.1-0.2c-0.3-0.3-0.8-0.4-0.9-1
			c0,0,0.1-0.1,0.1-0.2c0.1,0,0.1,0,0.2-0.1c0.4,0.3,1.3,0.7,1.9,0.7c0.6-0.7,2.6-1.4,2.8-2.3c0,0,0,0,0.1-0.1
			c-0.6-0.2-1.4-0.7-1.5-1.4c0-0.1,0,0,0.1-0.1h0.5c0.1-0.1,1.1,0.6,1.5,0.7c0.8,0.2,1-0.6,1.6-0.5c0.1-0.5,0.6-0.6,0.8-1
			c-0.5-0.2-1.3-0.6-1.3-1.3c0.3-0.1,0.4-0.2,0.7-0.3C337.2,346.8,338,346.9,339,346.6z M379.2,361.5c-0.1-0.1-1.8-0.1-1.9,0
			c-0.4,0.5-0.1,1.7-0.9,1.8c-0.1,0,0,0-0.1-0.1c0-0.1,0-0.1-0.1-0.2c0,0,0.2-1.6,0.1-1.7c-0.1-0.1-0.2-0.2-0.2-0.2
			c-0.1-0.1-0.6-0.3-0.7-0.2c-0.5,0.3-0.7,1.4-0.9,2.1c-0.3,0.2-0.4,0.2-0.8,0.2c0-0.1-0.1-0.3-0.1-0.5c0.2-0.5,0.6-1.1,0.7-1.8
			c-0.3-0.1-0.2-0.3-0.6-0.4c-0.3-0.2-1.2-0.2-1.6-0.1c-0.1,0.4-0.4,1.1-0.7,1.2c-0.1,0.1-0.2,0.1-0.3,0.1c0-0.1-0.1-0.2-0.1-0.4
			c0.3-0.4,0.2-1,0.3-1.3c-0.7-0.2-1-0.5-1.7-0.5c-0.2,0.6-0.7,0.9-0.8,1.5c-0.3,0-0.3,0-0.6-0.1c-0.1-0.2-0.1-0.2-0.1-0.5
			c0.1-0.1,0.6-1.2,0.6-1.2c-0.1-0.3-0.3-0.3-0.6-0.4c-0.2-0.1-0.4-0.3-0.6-0.3c-0.9-0.2-1,1.6-1.8,1.7c-0.1,0,0,0-0.1-0.1v-0.3
			c-0.3-0.5,0.7-1.2,0.4-1.6c-0.2-0.3-1-0.6-1.3-0.4c-0.8,0.3-1.1,1.7-2,1.8c-0.1-0.1-0.3-0.4-0.1-0.4c0.1-0.2,0.2-0.4,0.3-0.6h0.1
			c0,0,0-0.4,0.1-0.6c0.2-0.3,0.4-0.3,0.5-0.7c-0.7-0.3-1.7-0.7-2.5-0.7c-0.4,0.6-1.1,1-1.2,1.8c-0.2,0-0.2,0.1-0.4,0.2
			c-0.1-0.1,0-0.1-0.2-0.1c0-0.6,0.3-0.6,0.4-1h0.2c-0.1-0.5,0.4-0.7,0.4-1.3c-0.4-0.2-0.3-0.7-0.6-1c-0.1-0.1-0.3-0.2-0.4-0.3
			c0,0,0,0-0.1,0.1c-0.5,0.4-1,0.9-1.4,1.4c-0.3-0.1-0.1-0.1-0.4-0.1v-0.1c0,0,0,0,0.1-0.1c-0.2,0-0.1,0-0.1-0.1
			c0.1-0.1,0.1-0.2,0.1-0.4h0.2v-0.2c0.1-0.1,1-1.1,1-1.2c0-0.1,0-0.2,0-0.4c-0.4-0.4-0.7-1.6-1.3-1.7c-0.2,0.3-0.7,1-1,1v0.2
			c-0.2,0.1-0.3,0.1-0.5,0.2c-0.1-0.1-0.2-0.1-0.3-0.2c0-0.2-0.1-0.5-0.1-0.6c0.5-0.5,1.3-1,1.7-1.6c-0.2-0.2-0.6-1-0.9-1.4
			c0,0,0,0-0.1,0.1c-0.7,0.3-0.8,1.1-1.8,1.2c-0.1-0.1-0.2-0.2-0.2-0.2c0.1,0,0.1,0,0.1-0.1c-0.1,0-0.1,0-0.1-0.1h0.1
			c0.1-0.4,0.3-0.3,0.6-0.6c0.1-0.1,0-0.2,0.1-0.4c0.3-0.5,0.7-0.3,0.7-1c0-0.4-0.6-1.2-0.9-1.7c-0.9,0.2-0.9,1.6-2.1,1.6
			c-0.1-0.1-0.1-0.2-0.2-0.4c0.6-0.2,0.5-0.9,0.9-1.2c0.3-0.4,0.8-0.4,0.9-1c-0.4-0.5-1-2.2-1.6-2.4c-0.1,0.5-0.8,1.3-1.1,1.7
			c-0.2,0.3-0.1,0.5-0.4,0.7c-0.1,0.1-0.3,0.1-0.5,0.1c-0.1-0.1-0.1-0.1-0.2-0.2c0.1-0.2,0-0.4,0.1-0.6c0.1-0.1,0.3-0.3,0.4-0.5
			v-0.4c0-0.1,0.4-0.3,0.5-0.4c0.2-0.3,0.2-0.8,0.2-1.1c0.2,0,0.7-0.2,0.6-0.4c-0.1-0.1-0.2-0.1-0.3-0.2c-0.3-0.3-0.2-0.8-0.7-1
			v-0.1c0,0,0,0-0.1,0.1c-0.5,0.5-0.6,1.7-1.5,1.8c-0.1-0.1-0.1,0-0.2-0.2c-0.1-0.1-0.1-0.2-0.1-0.4c0.4-0.5,1.1-1.7,1.2-2.6
			c-0.2-0.2-0.3-0.5-0.6-0.6c-0.5,0.9-1.3,1.7-2,2.5c-0.4,0.5-0.7,1.1-1.1,1.7c-0.2,0.2-0.5,0.4-0.7,0.6c-0.6,0.8-1.1,1.5-1.8,2.3
			c-0.2,0.2-0.4,0.3-0.6,0.4c0,0,0,0.1,0.1,0.1c-0.2,0.2-0.5,0.3-0.6,0.5c-0.1,0.1-0.1,0.2-0.2,0.3H343c-0.2,0.1-0.3,0.4-0.5,0.6
			c-0.1,0.1-0.3,0-0.4,0.1c-0.1,0.1-0.2,0.4-0.4,0.5c-0.1,0-0.2,0-0.3,0.1c-0.1,0.1-0.2,0.3-0.3,0.4c-0.2,0.2-0.5,0.2-0.7,0.4
			c-0.1,0.1-0.2,0.4-0.4,0.5c-0.4,0.3-1,0.3-1,1c0.4,0.3,0.3,0.6,0.6,1c0.1,0.1,0.2,0.1,0.3,0.2c0.2,0.2,0.2,0.5,0.4,0.8
			c0.1,0.1,0.3,0.2,0.4,0.3c-0.1,0.5,0.8,1.6,1,2v0.2h0.1c0.1,0.2,0.3,0.4,0.4,0.6c0,0,0,0.1-0.1,0.1c0,0,0.3,0.2,0.3,0.2
			c0.1,0.2,0,0.3,0.1,0.4h0.1v0.2c0.1,0.2,0.4,0.3,0.6,0.5c0,0.1,0,0.2,0.1,0.4c0.1,0,0.2,0.1,0.2,0.1c0.1,0.1,0.2,0.3,0.2,0.4
			c0.1,0.2,0,0.3,0.2,0.6c0,0,0.2,0.2,0.2,0.2c0,0.1,0,0.1-0.1,0.2c0.1,0.1,0.3,0.1,0.3,0.2v0.3c0,0.1,0.2,0.3,0.3,0.4
			c0.1,0.2,0.1,0.5,0.2,0.7c0.2,0.4,0.7,0.7,0.9,1.1c0,0.1,0,0.1-0.1,0.2c0.1,0.1,0.3,0.2,0.4,0.2c0.1,0.1-0.1,0.4,0.3,0.5
			c0,0.1,0,0.2-0.1,0.2h0.2c0.1,0.8,0.9,1.7,1.5,2.3c0.3,0.3,0.5,0.8,0.9,1.1c0.2,0.1,1.4,0.7,1.5,0.6c1.6,1.3,4.2,1.5,5.8,2.4
			c0.1,0,0.3,0,0.4,0.1c0.3,0.1,0.6,0.4,0.9,0.6c0,0,0.8,0,1,0.1c0.1,0.1,0.4,0.3,0.6,0.4c0.2,0.1,0.7,0,0.9,0.2h-0.1
			c0,0,0,0,0.1,0.1c0.3-0.1,1,0.3,1.3,0.4c0.4,0.2,0.7,0.2,1.1,0.3c0.2,0.1,0.5,0,0.6,0c0.1,0,0.3,0.2,0.3,0.2
			c0.2,0.1,0.6,0,0.8,0.1c0.1,0.1,0,0.1,0.2,0.1c0.2,0.3,1.2,0.5,1.2,0.6c-0.1,0-0.1,0-0.1,0.1c0.5,0,0.5,0.2,0.8,0.3
			c0.1,0,0.3-0.1,0.4-0.1c0.1,0,0.3,0.2,0.4,0.2c0.1,0,0.5,0,0.7,0.1c0,0.1,0,0.1,0.1,0.2c0,0,0.1-0.2,0.2-0.1
			c0.2,0.1,0.5,0.3,0.7,0.4c0.3,0,0.5,0,0.8,0.1c0.3,0.1,1.6,0.6,1.8,0.5c0.4,0.3,2.1,0.6,2.8,0.5c0.5-0.1,0.6-0.5,1-0.6v-0.2
			c0.5-0.4,0.7-0.9,1.2-1.5c0.3-0.4,0.8-0.8,1-1.2c0,0,0.1-0.5,0.2-0.7c0.1-0.2,0.3-0.4,0.4-0.6c0-0.2,0-0.4,0.1-0.6
			c0.3-0.5,0.9-1.1,0.9-1.8c0-0.2,0.1-0.2,0.2-0.3c0.1-0.2-0.1-0.6,0-0.9c0.1-0.3,0.2-0.4,0.2-0.6c0-0.1-0.1-0.3-0.1-0.4
			c0.1,0,0.1-0.1,0.2-0.1l0.1-1.1c0.3-0.4,0.4-1.4,0.4-2.1h0.1c0,0,0,0,0.1,0.1C379.5,362.6,379.8,361.8,379.2,361.5z"/>
	</g>
</g>
<g>
	<g>
		<path class="st0" d="M497.6,365.1c0-0.2-0.1-0.5-0.2-0.6h-0.1v-0.2c-0.1-0.1-0.3-0.4-0.4-0.5c-0.4-0.3-1.7-0.4-1.9-0.4
			c-0.8,0-1.8-0.1-2.2,0.1c-0.2-0.1-0.3-0.2-0.5-0.3c0.1-0.7,0.5-1.3,0.6-1.9c0-0.2,0-0.5-0.1-0.7c0-0.6,0.2-1.1-0.3-1.3
			c-0.2-0.3-2.6-0.7-2.8-0.6c0-0.1,0-0.1-0.1-0.2c-0.2,0-0.1,0-0.1,0.1c-0.3,0-0.5-0.1-0.8-0.2c-0.1,0-0.2,0-0.3,0.1
			c0,0,0-0.1-0.1-0.1c-0.1,0-0.2,0-0.4,0.1h-0.1v-0.1h-0.2c0,0,0-0.1-0.1-0.1c-0.5,0.2-1.2-0.1-1.5-0.1c-0.1,0-0.5,0-0.6,0
			c0,0,0,0.2-0.1,0.1V358h-0.2c0,0,0-0.1,0.1-0.1c-0.2-0.1-0.7-0.1-0.9-0.4c-0.2,0.1-0.1,0-0.1,0.2c-0.1,0-1-0.1-1.2-0.2h-0.4
			c0.1,0.1,0,0,0.1,0.1c-0.1,0.1-0.2,0.1-0.4,0.2v-0.2c-0.2,0.1-0.1,0-0.2,0.1c-0.2,0-0.2,0-0.3-0.1H482c-0.1,0,0.1-0.1,0.1-0.1
			c-0.1-0.5-0.4-0.3-0.6-0.7c-0.1,0-0.1,0.1-0.2,0.1c0-0.1,0-0.1-0.1-0.2c-0.3,0-0.9-0.1-1-0.1h-0.1c0,0,0-0.1,0.1-0.1
			c-0.1-0.1-1-0.1-1-0.1c0,0-0.1-0.2-0.2-0.2c-0.4-0.2-0.7,0-1.1-0.2c-0.2-0.1-0.5-0.2-0.7-0.3c-0.1,0-0.2,0.1-0.3,0.1l-0.2-0.2
			c-0.2,0.1-1.1-0.3-1.2-0.3c-0.1,0-0.2,0.1-0.4,0c-0.1-0.1-0.3-0.2-0.4-0.3c-0.1,0-0.4,0.1-0.5,0.1c-0.1-0.1-0.2-0.3-0.3-0.4
			c-0.2-0.1-0.4-0.1-0.6-0.2c-1.3-1.3-2.2-3.2-3.2-4.8c-0.1-0.2-0.1-0.4-0.2-0.7c-0.1-0.1-0.2-0.2-0.3-0.3c-1.5-2.8-2.8-5.7-4.3-8.4
			V340c-0.3-0.7-0.9-1.4-1.2-2.1c-0.5-1.1-0.8-2.1-1.5-2.9c0.1-1.1,1-2.1,1.5-2.9c0.2-0.3,0-0.8,0.1-1c0.2-0.7,0.8-1.7,0.9-2.5
			c0.7-0.1,1.6,0.5,2.3,0.2c0.4-0.1,0.9-0.5,1.3-0.7c0.4-1.9,0.8-3.5,1.3-5.3v-0.9c0.1-0.4,0.3-0.6,0.4-1c0-0.5,0-1,0.1-1.5
			c0-0.3,0.3-1,0.4-1.4c0.1-0.4,0-1.4,0.1-1.8c0.1-0.9,0.5-1.9,0.4-3c0-0.2,0.1-0.6,0.2-0.8v-2.1c-0.1-0.3-0.1-0.9-0.2-1.2
			c0-0.1,0-0.2,0.1-0.3c-0.3-1.6-0.7-3.5-1.4-4.7c-0.4-0.7-1.1-1.3-1.8-1.8c-0.5-0.3-0.9-0.8-1.3-1.2c-0.4-0.3-0.8-0.5-1.2-0.7
			c-0.4-0.3-0.8-0.7-1.3-1c-0.4-0.3-0.8-0.3-1.2-0.6c0-0.1,0-0.1-0.1-0.2c-0.3-0.2-0.5-0.2-0.8-0.4c-0.3-0.2-0.5-0.4-0.8-0.6
			c-0.2-0.1-0.4-0.1-0.7-0.2c-0.2-0.1-0.4-0.3-0.6-0.4c-0.2-0.1-0.3-0.1-0.6-0.2c-0.1-0.1-0.3-0.3-0.4-0.4c-0.5-0.3-1-0.4-1.5-0.7
			c-0.6-0.3-1.3-0.9-2-1.2c-0.5-0.3-1.2-0.4-1.7-0.7c-1.2-0.7-2.5-1.6-3.8-2.2c0,0-0.2,0.1-0.3,0c-1.1-0.6-2.3-1.1-3.4-1.8
			c-0.8-0.4-1.5-0.8-2.3-1.3c-0.3-0.2-0.5-0.5-1-0.6v-0.2c-0.4,0.1-0.7-0.4-1.1-0.5c-0.8-0.3-1.8-0.5-2.8-0.5c0,0,0,0-0.1-0.1
			c0.1-0.4,0.2-0.6,0.4-0.9c0.4-1,0.7-1.9,1.3-2.8l0.5-0.5c0.2-0.4,0.1-0.8,0.3-1.1c0.6-0.9,1.2-2.2,1.5-3.3c0-0.1,0-0.2-0.1-0.3
			c0-0.1,0.2-0.2,0.2-0.2c0.1-0.3,0-0.7,0.2-1c0.2-0.3,0.6-1,0.8-1.5c0.3-0.7,0.4-1.5,0.7-2.2c0.5-1,1.6-2.4,1.4-3.5
			c0.5-0.7,0.3-1.7,0.6-2.7c0.1-0.2,0.3-0.5,0.3-0.7c0-0.2,0-0.8,0.1-1c0,0-0.1-0.1-0.1-0.2c0-0.2,0.1-0.4,0.1-0.5
			c0-0.2,0-0.4-0.1-0.6c0.2-0.6,0.3-1,0.2-1.6c-0.1-0.3,0-0.7,0.1-0.9c0-0.4-0.1-0.8-0.2-1.2v-1.2c-0.2-0.7-0.2-1.7-0.4-2.4
			c-0.3-0.8-0.8-1.7-1.2-2.4c-0.3-0.5-0.5-1.1-1-1.3v-0.2c0.5-0.1,1.7-0.2,2.1,0.2c0.5-0.1,0.6-0.3,0.9-0.6
			c-0.1-0.4-0.2-0.5-0.3-0.9c-0.7,0-1,0.1-1.8-0.1c-0.1,0-0.3-0.1-0.5-0.1c-0.2,0.1-1.1,0.3-1.4,0.2c-0.5-0.2-0.9-0.7-1.3-1
			c0.1-0.8,1.1-0.8,1.6-1.1c0.2-0.2,0.2-0.6,0.4-0.7c-0.2-0.5-0.5-0.6-0.8-0.9c-0.3,0.1-0.3,0.3-0.5,0.4c-0.5,0.3-1,0.8-1.7,0.9
			c0,0.2,0,0.1,0,0.3c-0.4,0.1-0.7,0.1-1-0.1h-0.1v-0.2c0.4-0.1,0.3-0.5,0.6-0.6c0.2,0,0.3,0,0.5-0.1c0.2-0.1,0.2-0.4,0.4-0.6
			c0-0.2-0.1-0.5-0.2-0.6c-0.1-0.1-0.3-0.2-0.4-0.3c-0.9,0-1.7,1.1-2.3,1.6c-0.1,0-0.1,0-0.2,0v0.2c-0.6-0.3-1.4-0.1-2-0.3
			c-0.1,0-0.3,0.1-0.4,0.1c-0.2,0-0.1-0.1-0.2-0.1c-0.4-0.1-0.4,0.2-0.7-0.1c-0.2,0.1-0.1,0-0.1,0.2c-0.1-0.1,0,0-0.1-0.1
			c-0.3-0.1-0.6-0.1-0.8-0.2c-0.2,0.1-0.2,0-0.2,0.2c0-0.1,0-0.1-0.1-0.2c-1,0.2-2.4,0.2-3.4,0.8c-0.3,0.2-0.6-0.1-0.7,0.4
			c0-0.1,0,0-0.1-0.1c-0.3,0.1-0.3,0.4-0.8,0.4v0.2c-0.2,0-1,0.5-1.1,0.7v0.2c-0.1,0.1-0.2-0.1-0.4,0.1c-0.1,0.1-0.1,0.3-0.2,0.4
			c-0.1,0.1-0.4,0.2-0.5,0.4c-0.1,0.1,0,0.2-0.1,0.3c-0.2,0.2-0.4,0.2-0.5,0.4c-0.1,0.1-0.1,0.4-0.2,0.5c-0.1,0.1-0.4,0.2-0.5,0.3
			c-0.1,0.1-0.1,0.3-0.2,0.4h-0.2c-0.2,0.1-0.2,0.4-0.2,0.4c-0.1,0.1-0.4,0.2-0.5,0.4c-0.4,0.4-0.6,0.8-0.9,1.3
			c-0.1,0.2-0.5,0.3-0.6,0.6c0,0.1,0,0.2-0.1,0.2c0,0-0.4,0.2-0.4,0.2c0,0.1,0,0.2,0.1,0.2c-0.2,0.3-0.6,0.5-0.8,0.8
			c-0.1,0.2-0.1,0.4-0.2,0.7c-0.1,0.1-0.2,0.1-0.3,0.3c-0.6-0.2-1.3-0.3-1.8-0.4c-0.3-0.1-0.5,0.1-0.9,0c-1.1-0.4-1.9-0.4-2.8-0.3
			c-0.6,0.1-1.4-0.2-1.9-0.1c-0.1,0-0.2,0.2-0.2,0.2c-0.2,0.1-0.6,0-0.7,0.1c-0.2,0.1,0,0.2-0.6,0.3v0.2h-0.2v0.2
			c-0.4,0-0.3,0.2-0.7,0.2c0,0.3-0.8,1.4-1.2,1.5c0,2,1.4,2.8,2.6,3.5c0.6,0.3,1.1,0.9,1.8,1.2c0.7,0.3,2.8,0.7,3.1,1.2
			c0.3,0.5-0.3,1.1-0.5,1.7c-0.5-0.2-1-0.1-1.5-0.3c-0.7-0.2-2.1-1.1-2.8-0.7c-0.3,0-0.3,0.1-0.4,0.2c0,1.4,0.4,2.4,0.7,3.5
			c0.2,0.5,0.1,1.3,0.3,1.7c0,0,0.3,0.2,0.3,0.2c0.2,0.4,0.2,0.9,0.4,1.3c0.1,0.3,0.4,0.6,0.6,0.9c0.1,0.3,0.1,0.6,0.3,0.9
			c0.1,0.2,0.3,0.4,0.4,0.6c0.3,0.7,0.3,1.4,0.6,2c0,0.1,0.3,0.2,0.3,0.3c0.1,0.2,0.1,0.4,0.2,0.6c0.2,0.3,0.5,0.7,0.7,1
			c0.2,0.2,0.1,0.5,0.2,0.7c0.2,0.1,0.3,0.3,0.5,0.4c0.1,0.2,0.1,0.4,0.2,0.6c0.1,0.1,0.2,0.1,0.2,0.2c0.5,0.7,1,1.6,1.7,2.2
			c-0.1,0.3-0.3,0.2-0.4,0.4c-0.2,0.4-0.2,1.2-0.4,1.5c0,0.1-0.4,0.3-0.5,0.4c-0.1,0.1-0.1,0.9-0.1,0.9c-0.1,0.1-0.3,0.1-0.4,0.3
			c0,0.3,0.1,0.6,0.1,0.9c-0.1,0.1-0.3,0.5-0.4,0.6h-0.1c-0.4,0.4-0.6,1-0.9,1.4c-0.1,0.2-0.4,0.3-0.6,0.4c0,0,0,0.4-0.1,0.5
			c-0.3,0.5-0.9,0.9-1.2,1.3c-0.2,0.3-0.4,0.8-0.7,1c-0.5,0.4-1.1,0.6-1.7,1c-0.3,0.2-0.5,0.6-0.8,0.8c-0.3,0.2-0.5,0.2-0.8,0.4
			c-0.3,0.2-0.5,0.5-0.8,0.7c-0.3,0.3-0.8,0.3-1.1,0.6c-0.2,0.1-0.3,0.4-0.4,0.5c-0.4,0.4-1,0.4-1.5,0.7c-0.2,0.2-0.5,0.5-0.7,0.7
			h-0.3c-0.1,0.1-0.8,0.3-1,0.5c-0.5,0.3-1.2,1-2,1v0.2c-0.7,0.1-2,0.9-2.7,0.7c0,0,0,0-0.1,0.1c-0.2-0.9,0-2,0.2-2.9
			c0-0.2-0.1-0.6,0-0.8c0.2-0.8,0.6-1.9,0.9-2.8c0-0.1-0.1-0.4,0-0.6c0.1-0.2,0.3-0.4,0.4-0.6c0.3-0.8,0.3-1.9,1.2-2.1
			c0.1-0.4,0.3-0.5,0.1-1c0.1,0,0.2-0.1,0.3-0.1h0.1c-0.2-0.1,0.2-0.8,0.2-0.8c0.3-0.5,1-0.7,1.5-1.1c0.1-0.1,0.2-0.4,0.4-0.4
			c0.8-0.4,1.5-0.2,2.3-0.4c0.2,0,0.4,0.1,0.5,0.1c0.4-0.1,1.1-0.3,1.4-0.5c0.1-0.1,0.2-0.3,0.3-0.4c0.3-0.2,0.4-0.2,0.6-0.6
			c0.1-0.1,0.1-0.8,0.1-0.9c0-1.7-2.5-1.5-3.4-1.5c-0.6,0.1-0.7-0.1-1.3-0.2c0.1-0.5,0.4-0.8,0.6-1.2c0.5-1,1.3-2.7,0.9-3.8
			c-0.1-0.2,0-0.3-0.1-0.4c-0.2-0.3-1.7-1.2-2.1-0.8c-0.3-0.1-0.4-0.5-0.7-0.7c-0.2-0.1-0.6-0.3-0.9-0.4c-0.4-0.1-0.8,0.4-1.2,0.1
			c-0.2,0.2-0.4,0.5-0.7,0.7h-0.4c0,0,0,0.1,0.1,0.1c-0.6-0.1-0.4-0.7-0.8-1c-1-0.7-1.7-0.2-2.6,0.1c-0.3-0.3-0.5-1-1-1.2
			c-0.1,0-0.9-0.2-1-0.2c-0.2,0-0.4,0.2-0.6,0.1c-0.9,0-1.3,1.2-1.7,1.8c-1.2,1.9-2.5,6.1-0.3,7.6c-0.1,0.4-0.1,0.8-0.2,1.2
			l-0.2,0.2c-0.1,0.2,0.1,0.4-0.1,0.7c-0.1,0.2-0.3,0.6-0.4,0.8c-0.3,0.6-0.1,1.2-0.7,1.5c-0.2,0.1-0.8-0.4-1-0.5
			c-0.3,0-0.5,0-0.8-0.1c-0.2,1.3-0.8,2.4-1.2,3.3c0,0.2,0,0.4-0.1,0.7c-0.1,0.2-0.3,0.4-0.3,0.6c-0.1,0.3,0,0.8-0.2,1.2
			c-0.1,0.3-0.4,0.7-0.5,1c-0.1,0.2,0,0.5,0,0.6c-0.1,0.1-0.3,0.4-0.4,0.6v0.4c-0.2,0.5-0.3,0.9-0.4,1.4c0,0.1,0.1,0.3,0.1,0.3
			c-0.1,0.2-0.3,0.7-0.4,1c0,0.2,0,0.5-0.1,0.7c-0.1,0.3-0.2,1-0.4,1.3H387c-0.1,0.1,0.1,0.5,0,0.7c-0.1,0.2-0.2,0.4-0.2,0.5v0.6
			c-0.1,0.1-0.5,1.5-0.5,1.6c0.1,0,0.1,0.1,0.2,0.1l-0.2,1.7c0.1,0.4,0.2,1.1,0.3,1.5c0,0.1,0,0.2-0.1,0.3c0,0.1,0.3,0.5,0.3,0.6
			c0.1,0.2,0,0.8,0.1,1c0.2,0.4,0.6,0.8,0.8,1.2c0.2,0.3,0.1,0.7,0.4,0.9c0.1,0.1,0.3,0.1,0.4,0.2c0.1,0.1,0.1,0.2,0.2,0.3
			c0.1,0.1,0.3,0.2,0.4,0.2c0,0.1,0.1,0.2,0.1,0.2c0.1,0.1,0.3,0,0.4,0.1c0,0.1,0,0.1,0.1,0.2c0.1,0,0.2,0,0.4,0.1
			c0,0,0.1,0.2,0.1,0.2c0.3,0.2,0.6,0.3,1,0.5c0.2,0.1,0.6,0.5,0.9,0.6c0.1,0,0.2-0.1,0.3-0.1c0.8,0.2,2.1,0.4,3,0.2
			c0.3-0.1,0.9-0.2,1.1-0.2c3.1,0,6.3-2.2,8.7-3.4c0.2,0,0.4,0,0.7-0.1c0.5-0.1,0.9-0.5,1.3-0.7c0.3-0.1,0.7,0,1-0.2
			c0.1-0.1,0.2-0.3,0.4-0.3c0.3-0.1,0.5,0,0.9-0.2c0.3-0.1,0.6-0.4,0.9-0.5c0.3-0.1,0.5,0,0.8-0.2c0.1,0,0.1-0.2,0.2-0.2
			c0.1,0,0.2,0,0.4-0.1c0.2-0.1,0.4-0.3,0.6-0.4c0.2-0.1,0.4,0,0.7-0.1c0.9-0.3,1.7-0.8,2.3-1.2c0.3-0.2,0.9-0.3,1.2-0.5
			c0.2-0.1,0.1,0,0.1-0.2c0.8,0.1,1.2-0.5,1.7-0.8c0.2,0,0.4,0,0.6-0.1c0-0.1,0-0.1,0.1-0.2c0.4-0.3,0.5-0.4,1.1-0.4v-0.2h0.2
			c0.1,0.4,0.2,0.9,0.3,1.3c0,0.3-0.1,0.7,0.1,1c0.1,0.3,0.3,0.7,0.4,1c0.1,0.3-0.1,0.5,0,0.9c0.4,1.4,0.7,2.7,1.2,4
			c0,0.2,0,0.4,0.1,0.6c0,0.1,0.2,0.5,0.2,0.6c0,0.2-0.1,0.3-0.1,0.5c0.1,0.3,0.4,0.7,0.5,0.9v0.4c0.1,0.2,0.3,0.5,0.4,0.7
			c0,0.2,0,0.4,0.1,0.6c0.1,0.3,0.5,0.8,0.6,1.1c0,0.1,0,0.2-0.1,0.2c0,0.3,0.2,0.5,0.5,0.6c-0.3,0.6,0.2,1.3,0.4,1.8
			c0.3,0.8,0.2,1.3,0.6,2.1c0.2,0.5,0.7,1.1,0.9,1.7h0.1c0,0-0.1,0.1-0.1,0.1c0.1,0,0.1,0,0.2,0.1c0,0.5,0.2,0.6,0.4,0.9
			c0.5,1.2,1,2.1,1.6,3.1c0.1,0.1,0.4,0.3,0.4,0.4c0.2,0.4,0.2,0.8,0.4,1.2c0.4,0.7,1.1,1.4,1.5,2.1c0,0.2,0.1,0.4,0.1,0.6
			c0.1,0.1,0.2,0.2,0.2,0.2c0.1,0.2,0,0.4,0.1,0.6c0.1,0,0.1,0,0.2,0.1c0,0.1,0,0.2,0.1,0.4c0.1,0.2,0.3,0.6,0.4,0.8
			c0.2,0,0.3,0.2,0.6,0.1c0.1,0,0.4-0.1,0.6-0.1c0.7,0.2,1.3,0.6,2,0.7v0.1c-1.7,1.6-3,3.5-4.8,5.1c-0.2,0.1-0.2,0.5-0.4,0.6
			c-0.1,0.1-0.3,0.1-0.4,0.2c-0.1,0.1,0,0.2-0.1,0.4c-0.2,0.2-0.5,0.4-0.7,0.6c-0.2,0.2-0.3,0.5-0.5,0.7v0.2
			c-0.4,0.1-0.3,0.6-0.7,0.7v0.2c-0.4,0.1-0.5,0.5-0.7,0.8c-0.7,0.6-1.5,1.4-2.1,2.2v0.2c-0.1,0.1-0.3,0.1-0.4,0.2
			c-0.6,0.8-1.3,1.3-2,2c-0.1,0.1-0.2,0.3-0.3,0.5c-0.2,0.2-0.5,0.4-0.7,0.7c-0.3,0.3-0.4,0.8-0.7,1.1c-0.6,0.6-1.2,1.3-1.7,2
			c-0.2,0-0.4,0-0.7,0.1c-0.4,0.9-0.2,2-0.4,3.1c-0.1,0.3-0.2,1.2-0.2,1.4c0,0.1,0.1,0.9,0.1,1.1c-0.2,1,0.1,1.9-0.1,3.1
			c-0.1,0.7-0.1,1.4,0,2.2c0.1,0.3-0.1,0.5-0.1,0.8c0.1,0.4,0.1,0.7,0.1,1.1c0,0.1-0.1,0.2-0.1,0.3c0,0,0.1,0,0.1,0.1
			c0,0.1,0,0.3-0.1,0.4c0.1,0.4,0,1.2,0.1,1.5v0.6h0.1c0,0.1-0.1,0.4-0.1,0.4c-0.1,0.6,0,2,0.1,2.5c0,0.2-0.1,0.7-0.1,0.9
			c0,0.2-0.1,0.5-0.1,0.8c0.1,0.5,0.3,1.1,0.2,1.5c0,0.3-0.2,0.9-0.1,1.3c0.1,0.3,0.2,0.9,0.2,1.3c0,0.6-0.2,1.3,0,1.9
			c0.2,0.9,2.3,1.7,3.1,2.3c0,0,0,0.1-0.1,0.1c-1,0.3-2.6,0.3-3.9,0.7c-0.3,0-0.6,0.1-0.9,0.1c-0.7,0.3-1.6,0.6-2.3,0.9
			c-0.4,0.2-0.6,0.1-0.9,0.2c-0.4,0.2-0.8,0.5-1.4,0.6c0,0,0,0,0.1,0.1c-0.2,0.3-0.9,0.5-1.2,0.7c0,0,0,0-0.1,0.1h0.1v0.1
			c-0.1,0-0.1,0-0.3-0.1v0.2c-0.6,0.1-1.6,1.1-1.9,1.5c-0.2,0.3-0.2,0.8-0.2,1c0,2,3.4,0.9,4.5,1.1h0.9c0.4,0.1,0.9,0,1.3,0v0.1h1.5
			c1,0.2,3.5,0,4.6-0.3c0.5-0.1,1.4,0,1.9-0.1c1.1-0.1,2.3-0.2,3.3-0.4c1.3-0.3,2-0.3,3.1-0.7c0.4-0.2,0.9,0,1.2-0.1
			c0.5,0.4,0.8,1.2,1.5,1.5c0.6,0.2,1.2-0.1,1.8,0c0.2,0,0.6-0.2,1-0.1c0.7,0.1,2.4-0.1,3-0.2c0.6-0.1,1.9,0,2.3-0.3
			c0.5-0.3,0.4-0.7,0.6-1.5c0-0.1,0.1-0.3,0.1-0.6c0-0.1-0.1-0.1-0.1-0.3c0-0.3-0.3-2.7-0.6-3.1c0-0.5,0-0.7,0.2-0.9
			c1.1,0,2.7-0.5,3-1.3c0.3-0.7-1.5-3.1-1.3-3.5c-0.1-0.2,0-0.1-0.2-0.1c0.1-0.3-0.1-0.4-0.2-0.7c0.3-0.5-0.3-1.3-0.4-1.5V376
			c-0.1-0.2-0.5-0.5-0.4-0.8c0-0.1-0.5-2.7-0.6-2.7c0-0.1-0.2-0.1-0.2-0.2c0.1-0.4-0.3-0.8-0.2-1.3c0.1-0.4-0.3-2.7-0.6-3.2
			c0.1-0.4-0.1-1.5-0.3-1.8c0-0.1,0.1-0.4,0-0.6c-0.4-1.4-0.6-3.2-0.3-4.4c0.1-0.4-0.1-0.9-0.2-1.1c0,0,0.2-1,0.2-1.1
			c0.1-0.5,0.5-0.5,0.9-0.7c0.4-0.2,0.8-0.5,1.2-0.8c0.1,0,0.1,0.1,0.2,0c0.1-0.1,0.1-0.3,0.2-0.3c0.2-0.1,0.4-0.1,0.6-0.2
			c0.7-0.5,1.4-1.2,2.1-1.7c0.7-0.4,1.4-0.6,2.1-1c0.3-0.2,0.5-0.5,0.7-0.7c0.3-0.2,0.5-0.2,0.8-0.4c0.1-0.1,0.2-0.3,0.3-0.4
			c0.3-0.2,0.6-0.3,0.9-0.6c0-0.1,0-0.1,0.1-0.2c0.2-0.2,0.5-0.1,0.7-0.3c0.4,0.1,0.5,0.5,0.7,0.9c0,0,0.9,1.1,1,1.3
			c0.2,0.4,0.2,0.9,0.6,0.9c-0.2,0.5,0.6,1.3,0.9,1.7c0.4,0.9,0.9,1.7,1.5,2.4c0,0,0,0.3,0.1,0.4c0.1,0.1,0.4,0.3,0.4,0.4
			c0.3,0.5,0.5,1.2,0.9,1.7c0,0,0.6,1.3,0.8,1.5c0.4,0.7,0.9,1.4,1.5,2c-0.2,0.2,0.2,0.5,0.3,0.7c-0.2,0.4,0.6,1,0.8,1.3
			c0.2,0.2,0.8,1.5,1,1.4c0.5-0.1,1.3,0.5,1.8,0.7c1.8,0.6,3,1.2,4.7,1.8c0.1,0,0.2-0.1,0.2-0.1v0.2c0,0,0.9,0.2,1.2,0.3
			c0.2,0.1,0.4,0.4,0.6,0.4c0.4,0.2,0.7,0.1,1.1,0.2c0.8,0.3,2,0.7,3.1,1.2h0.4c0.2,0.1,0.5,0.3,0.7,0.4c0.2,0,1.1,0.1,1.4,0.2
			c0.5,0.2,1.2,0.6,1.7,0.8c0.2,0.1,0.6,0,0.7,0.1c0.2,0.1,0.4,0.3,0.7,0.4h0.4c0.1,0,0.4,0.2,0.5,0.2c0.2,0.1,0.2-0.1,0.5,0
			c1.3,0.6,2.3,0.7,3.6,1.2c0.4,0.2,0.9-0.1,1.4,0.1c0.2,0.1,0.3,0.3,0.6,0.4c-0.1,0.2,0,0.6-0.2,0.9c-0.1,0.2-0.2,0.1-0.2,0.4h-0.2
			c0,0.8-0.6,1.1-1.1,1.5c-0.2,0.2-0.3,0.5-0.5,0.7c-0.1,0.1-1,0.6-1.1,0.6h-0.4c-0.1,0.1-0.2,0.2-0.2,0.2c-0.1,0-0.1,0-0.2-0.1
			c-0.3,0.1-1.5,0.6-1.7,0.5c-0.4,0-1.4,0.5-1.7,0.4c-0.2,0-0.6,0.3-0.8,0.4c0,0-0.2-0.1-0.4,0c-0.1,0-0.1,0.2-0.1,0.2
			c0,0-0.1-0.1-0.2-0.1c-0.1,0-0.4,0.2-0.6,0.2c0,0,0-0.1-0.1-0.1c-0.1,0-1.4,0.8-1.5,0.8c0,0.1,0,0.1-0.1,0.2
			c-0.2,0-0.2,0.1-0.4,0.1c0,0.4,0,1-0.1,1.2c0.1,0.2,0,0.1,0.2,0.1c0.2,1.2,3.1,1.8,4.2,1.4c0.2,0,0.5,0.1,0.7,0.1
			c0.1,0,1.9-0.6,1.9-0.6c0.2,0,0.6-0.1,0.9-0.2c0.6,0.2,2.5-0.6,3.2-0.9c0.9-0.3,2.6-0.7,3.8-1.3c0.3-0.2,0.7-0.6,1-0.8
			c0.2-0.1,0.4-0.2,0.6-0.3c0.1-0.2,0.2-0.4,0.3-0.6c1.4-1.2,2.6-2.8,3.4-4.3c0.1-0.2,0.1-0.4,0.2-0.6c0.4-0.7,0.7-1.4,1-2.2
			c0.2-0.3,0-1,0.2-1.3c0.2-0.4,0.9-0.1,1.2-0.6c0.1-0.1,0.2-0.7,0.3-0.9c0.5-0.9,0.8-1.8,1.1-2.8v-0.6c0.1-0.5,0.1-0.8,0.2-1.3
			C497.4,366.7,497.8,365.4,497.6,365.1z M482.5,357.7L482.5,357.7l0.1,0.1h-0.1V357.7z M462.3,331.8v0.3c0,0.1-0.3,0.3-0.3,0.4
			c-0.1,0.1,0.1,0.2,0,0.4c-0.3,0.6-0.7,1.3-1,1.8c-0.2,0.3-0.2,0.6-0.4,0.9c-0.1,0.2-0.4,0.4-0.6,0.6c-0.2,0.3-0.2,0.5-0.4,0.7
			c-0.4,0.5-1,0.9-1.5,1.3c-0.5,0.5-2.5,1.9-3.4,1.3c-0.2-0.1-0.2-0.1-0.3-0.2c0-0.2,0-0.3-0.1-0.4c1.9-1.2,4.1-1.8,4.6-4.3
			c-0.1-0.1-0.2-0.3-0.4-0.4c-0.2,0-0.4,0-0.5,0.1c-0.5,0.2-0.6,1.1-0.9,1.5c-1,1.3-4.4,3.2-6.1,2.1c0-0.1-0.1-0.2-0.1-0.3
			c0.1-0.7,1.2-0.6,1.8-0.9c0.7-0.3,1.5-0.8,2.1-1.2c0.1-0.1,0.3-0.1,0.4-0.2c0.3-0.3,0.6-0.7,0.9-1c0.1-0.1,0.3-0.2,0.4-0.3
			c0.2-0.4,0.4-0.7,0.7-1c0-0.4-0.1-0.5-0.2-0.7c-1.4,0-1.6,1.6-2.4,2.1h-0.2c-0.1,0.1-0.4,0.4-0.6,0.6c-1,0.6-3.4,1.5-4.6,0.9
			c-0.2-0.1-0.3-0.3-0.5-0.4c0-0.2,0-0.6,0.1-0.7c0.2-0.6,2.2-1.1,2.9-1.3h0.5c0.6-0.3,1.6-1.1,2-1.7c0-0.1,0-0.3,0.1-0.4
			c0.1-0.3,0.6-1.1,0.4-1.6c-0.1-0.1-0.1-0.1-0.2-0.2c-0.8,0-0.8,0.7-1.5,0.9c-0.3,0.1-0.8-0.1-1,0c-0.1,0-0.3,0.3-0.4,0.3
			c-0.2,0.1-1.6-0.1-1.7-0.1c-0.4-0.1-0.8,0-1.2-0.2c-1,0-1.1-0.7-1.7-1.1c0-0.2,0.1-0.3,0.1-0.4c0.9-1.5,3.4-1,4.9-0.4
			c0.2,0,1,0.1,1.3,0.1c0.2,0,0.5-0.1,0.7-0.1c0.2,0,0,0.2,0.2,0.1c0.3,0,1.3-0.1,1.5-0.3c0.1-0.1,0.1-0.2,0.2-0.3
			c0.6-0.4,1.3-0.9,1.6-1.7c0.1,0,0.1,0,0.2-0.1c0.5,0.3,1.1,0.4,1.5,0.6c0.1,0.1,0.2,0.2,0.2,0.2c0.1,0,0.2,0,0.2-0.1
			c0.2,0.1,0.7,0.4,1,0.6c0.3,0.1,0.6,0,0.8,0c0.2,0,0.5,0.2,0.7,0.2c0.3,0.1,0.3-0.1,0.6,0c0.2,0,0.2,0,0.4,0.1
			C463.5,329.7,462.7,330.7,462.3,331.8z M456,327.6C456.1,327.6,456.1,327.6,456,327.6c0.1,0,0.1,0,0.1,0.1
			C456.2,327.7,455.9,327.7,456,327.6z M457.8,310c-0.1,0.2,0.3,0.8,0.4,1c0.1,0.3-0.1,0.5,0,0.7c0.4,1.4,0.1,3.1,0.2,4.3
			c0,0.9-0.4,2.8-0.1,3.3c-0.1,0-0.1,0-0.2,0.1c-0.2-1.2-1.1-2.5-1.5-3.5c0-0.2,0-0.4-0.1-0.6c-0.2-0.6-0.5-1.2-0.7-1.8
			c-0.2-0.4-0.5-0.8-0.7-1.2c-0.2-0.6-0.3-1-0.6-1.5c-0.1-0.3-0.4-0.5-0.6-0.8c-0.1-0.3-0.1-0.5-0.2-0.7c-0.2-0.5-0.7-1.1-0.9-1.6
			c-0.2-0.5-0.2-0.8-0.4-1.3c-0.1-0.3-0.3-0.5-0.3-0.9c0.5,0.1,0.9,0.7,1.3,0.5c0,0,0.1,0.3,0.3,0.4c0.2,0.1,0.3,0,0.4,0.1
			c0.5,0.3,0.9,0.8,1.3,1.2h0.2c0,0.1,0,0.2,0.1,0.2c0.4,0.5,1.1,1,1.6,1.3c0,0.3,0.1,0.3-0.1,0.4
			C457.5,309.9,457.7,309.9,457.8,310z M467.2,322.1L467.2,322.1l-0.1-0.1h0.1V322.1z M420.2,281.1c-0.2-0.3-0.6-0.7-0.7-1
			c0-0.1,0-0.2-0.1-0.4c-0.2-0.4-0.6-0.7-0.9-1c-0.9-1.3-1.3-3-2-4.5c-0.3-0.6-0.7-1.1-1-1.7c-0.1-0.3-0.1-0.6-0.2-0.9
			c-0.2-0.4-0.6-1.3-0.6-1.7c-0.2-0.5-0.5-1.1-0.5-1.8c0.5,0,0.7,0.2,1.1,0.4c0.6,0.2,1.4,0.2,2,0.4c0.3,0.1,0.6,0.4,0.9,0.5
			c1.4,0.5,2.4,0.5,3.9,0.9c1,0.3,2.3,0.9,3.4,0.4c0.2-0.4,0-0.6-0.1-1c-0.3-0.2-0.6-0.3-0.9-0.4c-0.3-0.1-0.5,0.1-0.8,0.1
			c-0.4-0.1-1-0.3-1.5-0.5h-0.6c-0.5-0.1-1-0.3-1.4-0.5c-0.4-0.2-1-0.1-1.3-0.4h-0.1c0-0.1,0-0.3,0.1-0.5c0.1-0.4,0.5-0.8,0.7-1.2
			c0.3,0,0.9,0.2,1.2,0c0.4,0,0.5-0.3,0.7-0.4v-0.5c-0.1-0.1-0.2-0.4-0.4-0.5c-0.3-0.2-0.9-0.3-1.2-0.4c-0.3,0-0.7,0-1-0.1
			c-0.3-0.1-0.7-0.3-1-0.4c-0.4-0.1-1.1-0.1-1.3-0.2v-0.1c-0.1,0-0.3,0-0.4-0.1c-0.1-0.1-0.2-0.3-0.3-0.3c-0.2,0-0.3,0-0.5-0.1
			c0-0.1-0.1-0.1-0.1-0.2c-0.1-0.1-0.3,0.1-0.5-0.1c-0.3-0.2-0.7-0.6-1.1-0.7v-0.2l-0.1,0.1c-0.3-0.1-0.9-0.6-1-0.9h-0.2v-0.2
			c-0.1,0.2-0.3-0.3-0.4-0.4c0-0.6,0.7-1.2,1.2-1.4c0.1,0,0.3,0,0.4-0.1c0-0.1,0.1-0.2,0.1-0.2c0.2-0.1,0.4,0,0.6-0.1v-0.1
			c0.2-0.1,0.7,0.1,1,0.1c1.5-0.2,2.9,0.1,4.2,0.5c0.4,0.1,0.9-0.1,1.2,0c0.4,0.1,0.6,0.5,1,0.6c0.3,0.1,0.4,0,0.6,0.1
			c0.3,0,0.3-0.1,0.6-0.1c0.1-0.4,0.1-0.8-0.2-1c0.1-0.7,0.7-1.1,1.1-1.6c0.3-0.4,0.5-0.9,0.9-1.2c0.1-0.1,0.3-0.2,0.4-0.4
			c0.1-0.2,0.2-0.4,0.4-0.6c0.3-0.3,0.7-0.5,1-0.9c0.2-0.2,0.3-0.5,0.6-0.7c0.5-0.4,1.3-1,1.5-1.6h0.2c0.1-0.3,1.7-1.5,2.1-1.6V250
			c0.6-0.2,1.3-0.4,1.8-0.6c0.3,0,0.7,0,1,0.1c1.3-0.3,2.6,0,3.8,0c0,0.2,0.1,0.2,0.2,0.4c-0.2,0.1-0.2,0.1-0.2,0.2h-0.2
			c-0.1,0.5-0.5,1.1-0.8,1.4c0,0.6,0.3,0.6,0.6,0.9c0.1-0.1,0.4-0.1,0.5-0.2c0.1-0.2,0.1-0.5,0.2-0.7c0.3-0.5,0.9-0.9,1.2-1.4h0.2
			c0,0.8,0.2,0.9-0.4,1.6c0,0.2,0.1,0.4,0.2,0.6c0.2,0.1,0.4,0.1,0.4,0.1c0.3-0.1,0.6-0.4,0.7-0.7c0.2,0,0.2,0,0.3-0.1
			c0.2,0.3,0.5,0.5,0.7,0.7c-0.1,0.1-0.4,0.4-0.5,0.6c0,0.3,0.1,0.4,0.1,0.6c0.1,0.1,0.2,0.1,0.2,0.2c0.4,0,0.7-0.1,0.9-0.3
			c0.9,0,0.9,0.6,1.3,1c0,0.7-0.9,1.3-1.5,1.4c-0.1,0.3-0.1,0.5-0.1,0.8c0.8,0.4,1.5-0.2,2.4-0.1c0.1,0.9,0.1,2,0.3,2.9
			c0,0.1,0,0-0.1,0.1c-0.1-0.1,0,0-0.1-0.1c-0.1,0.1-0.1,0.1-0.1,0.1v0.1c-0.5-0.2-1.6-0.4-1.9,0.2c-0.1,0.1,0,0.2-0.1,0.4
			c0.2,0.2,0.4,0.5,0.7,0.6c0.1,0,0.3-0.1,0.5-0.1c0.2,0.1,0.4,0.3,0.6,0.1c0.3,0,0.3,0.1,0.5,0.2c-0.1,0.4,0,1.5-0.2,1.8
			c0,0.3-0.1,0.3-0.2,0.5c-0.6,0-0.7-0.1-1.2,0c-0.3,0.1-0.5,0.3-0.8,0.3c0,0.2,0,0.4,0,0.6c0.2,0.1,0.3,0.2,0.4,0.3
			c0.5,0,0.9,0.3,1.2,0c0.1,0,0.2,0,0.2,0.1c0,0.8-0.4,1.4-0.6,2.1c-0.3,0-1.1-0.1-1.3-0.1c-0.2,0.1-0.2,0.2-0.4,0.1
			c-0.1,0.2-0.3,0.5-0.2,0.7c0,0.3,0.1,0.3,0.2,0.5c0.5,0.1,0.8,0.2,1.2,0.1c0.1,0.1,0.1,0.1,0.2,0.1c-0.2,0.8-0.4,1.7-0.7,2.5
			c-0.4-0.1-1-0.2-1.2-0.4c-0.5,0-0.5,0.2-0.9,0.4c0,0.2,0,0.2,0,0.4l0.6,0.6c0.1,0,0.2,0,0.4-0.1c0.2,0.1,0.5,0.3,0.7,0.3
			c0,0.3-0.3,1.6-0.5,1.8c-0.1,0.1-0.1,0-0.2,0.1c-0.1-0.1,0,0,0-0.2c-0.3,0-0.3,0.2-0.6,0.2l-0.6-0.1c0,0-0.1-0.2-0.1-0.2
			c-0.2-0.1-0.2,0.2-0.3,0.2c-0.1,0-0.2,0-0.2-0.1c-0.3,0.1-0.3,0.6-0.2,1c0.3,0.1,1.3,0.3,1.6,0.4c0.1,0,0.1,0.1,0.2,0.1
			c-0.2,0.3-0.4,0.7-0.4,1.1c-0.5,0-1.2-0.1-1.7-0.2c-0.6,0.8-0.5,0.3-0.2,1.2c0.5,0.1,0.9,0.2,1.4,0.2c0,0.7-0.4,1.6-1,1.8
			c-0.3,0.1-1.1-0.5-1.6-0.1c-0.1,0.1-0.1,0.1-0.2,0.2c0,0.2,0,0.3,0.1,0.4c0.1,0.6,1,0.7,1.6,0.9c-0.2,0.7-0.6,1.2-1,1.7
			c-0.2,0-0.2,0-0.3,0.1c-0.2-0.1-0.3-0.2-0.5-0.3c0,0,0,0-0.1-0.1v0.1c-0.6,0-0.6,0.2-1,0.4c0,1.1,1.1,0.9,1.2,1.3h-0.2v0.2h0.2
			c-0.1,0.2-0.3,0.3-0.3,0.6c-0.2,0-0.5,0-0.7-0.1c-0.4,0.1-0.4,0.4-0.7,0.6c-0.3,0.2-0.7,0.1-1,0.4c0,0-0.1,0.1-0.1,0.2
			c0.2,0.7,1.2,0.7,1.8,0.6c0,0,0,0,0.1,0.1c-0.2,1.1-0.9,0.9-1.2,1.7c-1.5,0.6-3,0.6-4.6,0.7c-0.2,0-0.6,0.2-0.7,0.2
			c-0.2,0.1-2.1,0-2.2-0.1c-0.6-0.1-1.2-0.3-1.9-0.3c0-0.3,0.1-0.4,0.2-0.6c-0.1,0-0.2,0-0.3-0.1c-0.1-0.3-0.4-0.4-0.1-0.7
			c-0.1-0.2-0.3-0.1-0.6-0.2v-0.1c-0.1-0.1-0.4-0.3-0.5-0.4c0-0.1,0-0.2-0.1-0.2c-0.2-0.3-0.7-0.5-0.9-0.8c-0.3-0.3-0.4-0.8-0.7-1.1
			c-0.1-0.1-0.3-0.2-0.4-0.3c-0.4-0.4-0.6-1.1-0.9-1.6C421.1,282,420.5,281.6,420.2,281.1z M423.4,287.3c0.3,0.3,0.3,0.6,0.7,0.7
			v0.2c-0.4,0-2.4-0.6-2.6-0.9c-0.2-0.2-0.2-0.5-0.3-0.8c-0.3-0.5-0.6-1.4-0.2-1.8v-0.1c0.3,0.2,0.6,0.9,0.7,1.2
			c0.1,0.3,1,0.9,1.3,1.2c0,0.1,0,0.1-0.1,0.2C423.1,287.3,423.3,287.2,423.4,287.3z M405,282c0.1,0,0.1,0,0.2-0.1v-0.4
			c0.1-0.2,0.2-0.5,0.3-0.7c0.1-0.4,0-0.7,0.1-0.9c0.2-0.4,0.5-0.6,0.6-1.1c0.2,0,0.2,0,0.2,0.1c0.2,0,0.3,0,0.4,0.1
			c0,0.4-0.1,1.3-0.3,1.5c-0.1,0.2-0.2,0.1-0.3,0.2c-0.2,0.2-0.1,0.7-0.2,0.9c-0.3,0.5-0.8,0.9-1,1.3c-0.2,0.1-0.2,0.1-0.5,0.2
			C404.6,282.8,404.8,282.3,405,282z M402.1,279.7c0,0,0-0.1,0.1-0.1h0.2c0-0.2,0-0.3-0.1-0.5c0.1-0.1,0.2-0.1,0.4-0.1
			c0-0.2,0-0.2-0.1-0.3c0.2-0.4,0.8-0.6,1.2-1c0.2,0,0.4,0,0.5,0.1c0.2,0.3-0.1,1.9-0.2,2.4H404c0,0.6-0.3,1-0.5,1.4
			c-0.1,0.2,0,0.6-0.1,0.6c-0.1,0.2-0.4,0.2-0.5,0.5c0,0.1,0,0.1-0.1,0.2h-0.2v0.2h-0.2v0.2c-0.3,0.1-0.6,0.3-0.9,0.5l-0.2-0.2
			C401.4,282.9,401.7,280.3,402.1,279.7z M398.3,280.6c0.1-0.3-0.1-0.4,0.1-0.7c0.1-0.2,0.3-0.4,0.4-0.6c0-0.1-0.1-0.1-0.1-0.2
			c0.1-0.1,0.3-0.9,0.4-1c0.1-0.1,0.3-0.1,0.4-0.2c0,0,0.2-0.3,0.3-0.4c0.2,0,0.2,0,0.3-0.1h0.2c0.3,1.5-0.2,3.9-0.9,4.9
			c-0.3,0.4-1,0.6-1.2,1.1h-0.1c-0.1-0.1-0.1-0.1-0.2-0.2c0-0.2-0.1-0.4-0.1-0.7C398,281.8,398.2,281.2,398.3,280.6z M395.8,277.1
			c0.3-0.1,0.6-0.3,1-0.2c0-0.1,0.1-0.3,0.1-0.5c0.1,0,0.1,0,0.1-0.1c0.1,0,0.2,0,0.2,0.1c0.2,1.2-0.1,1.8-0.3,2.8
			c-0.1,0.3,0.1,0.7,0,0.9c-0.3,1.1-0.5,1.8-1.3,2.3c0,0-0.7,0-0.9,0.1v0.2h-0.1C393.8,280.6,395.2,278.4,395.8,277.1z M394.2,288.9
			v-0.4c0.1-0.4,0.3-0.6,0.2-1.2c0.1-0.3,0.4-0.6,0.5-1c0.2-0.6,0.2-1.7,0.6-2.1c0.2-0.2,0.6-0.2,0.8-0.5c0.4,0.1,0.5,0.5,0.9,0.7
			c1,0.6,2.2,0,2.8-0.6c0.3,0.2,0.4,0.9,0.8,1.2c0.3,0.2,1.7,0,1.7,0c0.1,0,0.3-0.4,0.6-0.5c0.3-0.1,0.5,0.3,0.7,0.4
			c0.5,0.2,1.2-0.1,1.5-0.1c0.5,0,1.1-0.3,1.7-0.1c0.3,0.1,0.6,0.2,1.1,0.2c0.7,0,1.4-0.1,1.8,0.2h0.1c-0.1,0.5-0.3,0.5-0.6,0.8
			c-2.3,0-3.7,0.6-5,1.5c-0.2,0.2-0.4,0.4-0.6,0.6c-0.4,0.3-1,0.8-1.2,1.3h-0.3c0,0.2,0.1,0.4,0,0.6c0,0.1,0,0.1-0.1,0.1
			c-0.4,0.3-2,0.1-2.9,0.1c-1.7,0-3.9,0-5.3-0.8C394.1,289,394.2,289.1,394.2,288.9z M417.2,304.7c-0.2-0.1-0.6,0.3-0.8,0.4
			c-0.6,0.4-1.2,0.5-1.8,0.8c-0.2,0.1-0.3,0.3-0.5,0.4c-0.1,0-0.3,0-0.4,0.1c-0.3,0.1-0.6,0.4-0.9,0.5c-0.4,0.1-0.6,0-1,0.2
			c-0.7,0.3-1.4,0.8-2.1,1.1c-0.4,0.2-0.8,0.1-1.2,0.2c-0.4,0.2-0.9,0.5-1.3,0.7c-0.3,0.1-0.6,0.1-0.9,0.2c-0.1,0.1-0.2,0.2-0.3,0.3
			h-0.4c-0.4,0.1-0.9,0.3-1.4,0.5c-0.5,0.2-1,0.6-1.5,0.9c-0.1,0.1-0.6,0.2-0.7,0.2c-0.1,0-0.2-0.1-0.2-0.1
			c-0.2,0.1-0.3,0.3-0.5,0.4c-0.9,0.5-1.8,0.8-2.8,1.2c-0.8,0.3-1.7,0.2-2.6,0.4h-0.7c-0.4,0.1-1.9,0.2-2.5,0
			c-0.6-0.2-1.1-0.6-1.6-0.9c-0.1,0-0.2,0-0.4-0.1c0-0.1,0-0.1-0.1-0.2c-0.2-0.1-0.4-0.1-0.6-0.2c-0.1-0.1-0.2-0.3-0.3-0.4
			c-0.3-0.2-0.7-0.4-0.9-0.7v-0.2c-0.2-0.3-0.4-0.7-0.6-1c-0.2-0.3-0.3-1.1-0.4-1.5c0-0.2,0-0.5-0.1-0.7c-0.1-0.3-0.3-1.5-0.2-2.1
			c0-0.1,0.2-0.9,0.2-1c0-0.3-0.1-0.8-0.1-0.8h0.1c0.1-0.1,0.2-0.7,0.2-0.8c0-0.1-0.1-0.1-0.1-0.2c0.1,0,0.1,0,0.2-0.1
			c0-0.2,0-0.4,0.1-0.7c0.2-0.7,0.5-1.5,0.7-2c0.1-0.2,0-0.4,0-0.5c0.1-0.4,0.2-0.9,0.3-1.3c0-0.1,0-0.1-0.1-0.2
			c0.2-0.5,0.4-1.4,0.7-2v-0.4c0.1-0.3,0.2-0.6,0.3-0.9c0-0.1,0-0.1-0.1-0.2c0.6-1.5,1.1-3.2,1.7-4.5c0.3,0,0.4,0.4,0.5,0.6
			c0.1,0,0.2,0,0.4,0.1v0.1c0.5,0.2,0.8-0.2,1.2-0.1c0.4,0.1,0.8,0.4,1.2,0.6c0.9,0.3,3.5,0.5,4.5,0.2c0.4,0.2,1.5,0.2,2.1,0.1
			c0,0,0,0,0.1,0.1c0,0.5-0.5,1.5-0.7,2c-0.2,0.5-0.1,0.9-0.2,1.3c0,0.1-0.2,0.4-0.2,0.4v0.3c0,0-0.1,0-0.1,0.1
			c-0.1,0.2,0,0.3,0,0.4c0,0-0.2,0.1-0.2,0.1c-0.1,0.1,0.2,0.2,0.1,0.3c-0.2,0.8-0.3,2.3-0.6,3.4c-0.1,0.4-0.1,3.2-0.1,3.3
			c0.1,0.2-0.1,0.4,0.1,0.6c0.1,0.3,0.3,0.2,0.5,0.4c0.2,0,0.3,0,0.4,0c0.2-0.1,0.2-0.1,0.4-0.2c0.1-0.5,0.3-0.8,0-1
			c0-0.2,0-0.2,0.1-0.3c0.5-0.4,1.9-0.3,2.6-0.7c0.3-0.1,0.8-0.3,1-0.6c0-0.1,0-0.1,0.1-0.2c0.2,0,0.3,0,0.5-0.1
			c0,0,0.1-0.2,0.1-0.2c0.5-0.3,1-0.4,1.5-0.7c0.1-0.1,0.2-0.3,0.3-0.3c0.3-0.2,0.7-0.2,1-0.4c0.2-0.1,0.5-0.3,0.7-0.5
			c0-0.1,0-0.1,0.1-0.2c0.1,0,0.2,0,0.4-0.1c0.3-0.2,0.6-0.4,0.8-0.7h0.2v-0.2c0.7-0.1,1.1-0.5,1.5-0.9c0.2-0.1,0.4-0.1,0.6-0.2
			c0.2-0.1,0.3-0.4,0.4-0.6c0.2-0.1,0.2,0,0.4-0.1c0.1-0.1,0.2-0.3,0.4-0.4c0.2-0.1,0.4-0.2,0.6-0.3v-0.1c0.2-0.2,0.6-0.2,0.9-0.3
			c0.4-0.2,0.7-0.6,1-0.9c0.7-0.6,1-2,2.2-2c-0.2-0.5,0.1-0.6,0.2-1c0,0,0.1,0,0.1-0.1c0.2,0.5-0.1,0.8,0,1.3c0.3,1.5,0,2.5,0.3,4.1
			c0,0.2-0.1,0.4-0.1,0.4c0.1,0.4,0.1,0.9,0.2,1.2c0.1,0.4-0.1,0.5,0,0.9c0.3,1.3,0.6,2.8,0.7,4.3
			C418.7,303.3,418,304.2,417.2,304.7z M434.7,335c-0.2-0.1-0.4-0.2-0.6-0.3c-0.3-0.1-0.5,0-0.7-0.2c-0.1-0.1-0.2-0.2-0.3-0.4
			c-0.2,0-0.4,0.1-0.7,0.1c-0.7-1.2-1.4-2.4-2-3.7c-0.1-0.2-0.5-0.4-0.6-0.6c0-0.1,0-0.3-0.1-0.4c-0.1-0.3-0.4-0.5-0.6-0.7
			c-0.1-0.1,0-0.3,0-0.3c-0.3-0.5-0.8-1-1-1.5c-0.2-0.4-0.2-0.6-0.4-1c-0.1-0.1-0.3-0.4-0.4-0.6c0-0.1,0-0.3-0.1-0.4
			c-0.2-0.4-0.6-1-0.8-1.4v-0.3c-0.1-0.3-0.4-0.6-0.5-0.9V322c-0.1,0-0.1,0-0.2-0.1l-0.2-0.9c-0.1-0.3-0.3-0.5-0.4-0.9
			c0-0.1,0-0.2,0.1-0.2c0-0.1-0.2-0.3-0.2-0.4c0-0.1,0-0.1,0.1-0.2c-0.1,0-0.1-0.1-0.2-0.1c-0.2-0.5-0.1-0.7-0.2-1.2
			c-0.2-0.5-0.5-1.1-0.7-1.6c-0.1-0.2,0-0.5,0-0.6c-0.2-0.5-0.5-1.1-0.7-1.7v-0.6l-0.2-0.2v-0.4c-0.6-1.7-1-3.7-1.5-5.4
			c-0.1-0.2,0-1-0.1-1.2c-0.3-1-0.4-2.7-0.8-3.7c-0.2-0.5-0.1-1.2-0.2-1.6c-0.3-1.1-0.5-2.5-0.7-4c-0.1-0.7,0-1.9-0.1-2.5
			c-0.2-1,0-2-0.1-2.9c-0.2-1.1,0.6-4.2,0.2-4.6v-0.1h0.1c0.1,0.2,0.1,0.3,0.1,0.5h0.2c0,0,0.9,1.2,1,1.3c0.2,0.1,2.2,0.8,2.5,0.7
			c0.2,0,0.8,0.2,1.2,0.2c0.8-0.1,2.4,0.3,3.5,0.4c0.3,0,0.8-0.1,1-0.1c0.2,0,0.4,0,0.6,0.1c0,0,0.3-0.1,0.3-0.1
			c0.8,0.1,1.8-0.1,2.5-0.2c0.1,0,0.2,0,0.4,0.1c0.4-0.1,1-0.3,1.3-0.4c0.4-0.1,0.7,0.1,1.1-0.1l0.2-0.2c0.2,0,0.4,0,0.6,0.1
			c0.5-0.1,1.1-0.4,1.6-0.6c0.3-0.1,0.4,0.2,0.7,0c0.1,0,0.2,0,0.2,0.1c0,0.1,0.1,0.2,0.1,0.3c0,0.4-0.6,0.9-0.9,1h-0.5
			c-0.1,0-0.1,0.2-0.1,0.3c-0.1,0.1-0.3,0.2-0.4,0.2c0,0.2,0,0.1,0,0.2c0,0.3,0.1,0.3,0.2,0.5c0.1,0,0.2,0.1,0.2,0.1
			c0.9-0.3,1.6-0.8,2.1-1.4c0.1,0,0.1,0,0.2-0.1c0-0.3,0-0.4,0-0.7c0.8,0,1.6,0.6,2.2,0.7l-0.1,0.1c0,0,0,0,0.1,0.1
			c-0.2,0.3-0.5,0.4-0.8,0.6c-0.2,0.1-0.6,1.3-0.9,1.6c0,0.2,0,0.3,0.1,0.4c0.2,0.2,0.5,0.1,0.7,0.3c0.2-0.2,0.2-0.5,0.4-0.8
			c0.2-0.2,0.5-0.4,0.7-0.6c0.3-0.3,0.6-0.8,0.7-1.3c0.6,0.1,1.1,0.6,1.5,0.9c0.1,0.1,0.3,0,0.5,0.1c0.2,0.2,0.3,0.4,0.7,0.5
			c-0.1,0.4-1.3,1.7-1,2.1c0.1,0.2,0.2,0.2,0.3,0.4c0.9,0,1.3-1.2,1.7-1.9c0.4,0,1.7,0.6,1.8,0.9c0,0.1,0,0,0.1,0.1
			c-0.5,0.5-0.8,1.2-1.2,1.7c0.1,0.4,0.2,0.3,0.4,0.6c0.1,0,0.2,0,0.4,0.1c0.6-0.6,1.1-1.2,1.5-2c0.7,0.1,1.3,0.7,2,1v0.1
			c-0.2,0.1-0.5,0.4-0.6,0.6c-0.1,0.3,0.1,0.7-0.1,0.9c-0.2,0.3-0.7,0.5-0.6,0.9c0,0.3,0.3,0.3,0.5,0.5c0.2,0,0.2,0,0.3-0.1
			c0.6-0.3,1.1-1.7,1.5-2.3c0.1,0,0.1,0,0.2-0.1c0.3,0.4,0.9,0.4,1.3,0.7c0.5,0.3,1,0.7,1.5,1c-0.1,0.1-0.3,0.2-0.4,0.3
			c0,0,0.1,0.1,0.1,0.2c-0.1,0-0.2,0.1-0.4,0.1c-0.1,0.1,0.2,0.1,0,0.2c0,0-0.1,0-0.1-0.1c0,0.5-0.4,0.6-0.4,1.3
			c0.2,0.1,0.4,0.2,0.5,0.3c0.1,0,0.2,0,0.2-0.1c0.2-0.1,1.3-1.5,1.4-1.8c0.8,0.1,1.4,0.7,2,1c-0.2,0.2-1.1,1.7-0.8,2
			c0,0-0.1,0.1-0.1,0.1h-0.1c0.1,0.1,0.4,0.2,0.5,0.3c0.7-0.2,1.1-1.3,1.4-1.9c0.7,0.1,1.1,0.7,1.8,0.9c0,0.1,0,0.1,0.1,0.1
			c-0.1,0.6-0.7,1.2-1.1,1.7c0,0.3,0,0.4,0.2,0.6c0.2,0.1,0.7,0.1,0.9-0.1c0.5-0.3,0.5-1.1,1-1.4c0.1,0,0,0,0.1-0.1
			c0.6,0.6,1.5,1.1,2.1,1.5c-0.1,0.2-1.3,1.5-1.4,1.5c0,0.4,0,0.5,0.2,0.7c0.1,0.1,0.2,0.1,0.4,0.1c0.4-0.4,1.3-1,1.6-1.6
			c0.8,0,1.1,0.9,1.5,1.3c-0.2,0.3-0.6,0.4-0.9,0.6c-0.5,0.3-0.7,0.8-1.1,1.2c0,0.2,0,0.3,0.1,0.4c0.8,0.1,1.8-0.5,2.3-1.1
			c0.6,0.2,0.7,1.7,1,2.2c0,1.2-0.6,0.6-1.4,0.9c-0.2,0.1-0.5,0.2-0.7,0.3c0,0.5,0.2,0.5,0.4,0.8c0.4,0,0.7,0.1,0.9-0.1
			c0.3,0,0.7-0.1,0.9,0.1c0.2,0.3-0.1,0.5,0,0.9c0.1,0.6,0,1.3-0.1,2c-0.3,0-1.4-0.1-1.5-0.1c-0.3,0-0.3,0.1-0.5,0.2
			c0,0.5,0.2,0.5,0.4,0.9c0.4,0,1.1,0,1.6,0.1l0.1,0.1c0,1-0.2,1.7-0.2,2.7c0,0,0,0-0.1,0.1c-0.8,0-1.3-0.2-1.9,0
			c0,0.1-0.1,0.3-0.1,0.4c0.5,0.5,1,0.6,1.8,0.7l0.1,0.1c0,0.9-0.3,1.4-0.4,2.3c-0.7,0-1.2-0.1-1.8-0.1c-0.1,0.1-0.2,0.2-0.4,0.2
			c0,0.3,0.1,0.4,0.1,0.6c0.6,0.1,1.1,0.2,1.8,0.2c-0.1,0.8-0.2,1.3-0.3,2.1c-0.4,0-1,0.1-1.3,0c-0.2-0.1-0.4-0.3-0.6-0.2
			c-0.4,0-0.4,0.1-0.6,0.3c0,0.2,0,0.3,0.1,0.4c0.2,0.4,1.1,0.6,1.7,0.5c0.3-0.1,0.4-0.3,0.7-0.4c-0.1,0.7-0.3,1.2-0.4,1.8
			c-0.7,0-1.2,0.2-1.9,0.1c-0.1,0-0.2,0-0.3,0.1c-1-0.2-2.1-0.5-3-0.9c-0.2,0-0.4,0-0.6-0.1c-0.3-0.1-0.7-0.3-1-0.4
			c-0.7-1.5-0.2-2.5,0.1-4.1c0-0.1-0.1-0.2-0.1-0.3c0.2-0.9,0.1-1.4,0.2-2.5c0-0.1-0.1-0.3-0.1-0.6c0.2-0.8,0.5-3.1,0.3-4.1
			c-0.2-0.9,0.1-1.8-0.2-2.5c-0.2-0.4-0.8-0.7-0.9-1v-0.4c-0.2-0.3-0.9-0.8-1.2-1c-0.5-0.4-0.9-1.1-1.5-1.4
			c-1.4-0.9-2.8-1.8-4.3-2.6c-0.3-0.2-0.7-0.1-1-0.3c-1-0.5-2.2-1-3.3-1.3c-0.3-0.1-0.9,0-1.2-0.1l-0.2-0.2
			c-0.4-0.2-0.9,0.1-1.3-0.1l-0.2-0.2c-0.2-0.1-0.4-0.1-0.7-0.1c-0.7-0.2-1.4,0-1.8-0.4c-0.9,0-0.6,0.2-1,0.6
			c0.1,0.4,0.4,0.4,0.6,0.7c1.2,0,2,0.4,3,0.6c0.1,0,0.3-0.1,0.4-0.1c1,0.2,2.7,0.4,3.4,0.9c0.1,0.1,0.6,0.9,0.6,1c0,0,0,0,0.1,0.1
			h-0.1v0.3c-0.5,0.1-1,0-1.3-0.1c-0.2,0.2-0.6,0.5-0.9,0.6c0.1,0.2,0.1,0.4,0.2,0.6c0.5,0.4,1.6,0,2.4-0.1c0,0.4,0.2,1,0.4,1.3
			c-0.1,0.4-0.5,0.5-0.9,0.6c-0.1,0-0.2,0-0.3-0.1c0,0-0.1,0.2-0.1,0.2c-0.1,0-0.1,0-0.2-0.1c-0.2,0.1-0.4,0.4-0.7,0.6
			c0,0.2,0,0.3-0.1,0.4c0.1,0.2,0.3,0.2,0.4,0.4c0.8,0,0.9-0.5,1.5-0.4c0.1-0.2,0.2-0.3,0.3-0.4c0.1,0,0.2,0,0.2,0.1
			c0.7,0.4,0.5,1.6,1.2,2.2c-0.1,0.5-0.3,0.2-0.6,0.4c-0.5,0.3-1,0.2-1.3,0.7c-0.1,0.1,0,0.1-0.1,0.2c0.1,0.1,0.1,0.2,0.2,0.3
			c0.3,0,0.5,0.2,0.9,0.1c0.3-0.1,1-0.5,1.2-0.8c0.5,0.1,1,1.7,1.1,2c-0.3,0.1-0.3,0.2-0.4,0.4c-0.3,0.2-0.8,0.2-1.1,0.4
			c-0.1,0.1-0.1,0.2-0.2,0.3c0.1,0.1,0.3,0.3,0.3,0.5c0.2,0,0.5,0,0.6,0.1c0.4,0,0.8-0.3,1-0.6c0.7,0,0.6,1,0.9,1.3
			c0,0.9-1.2,0.9-1.5,1c-0.1,0-0.1,0-0.2,0.1c0,0.4,0,0.5,0.1,0.8c0.6,0,1.1,0,1.5-0.2c0.2-0.1,0.2-0.3,0.6-0.3
			c0.1,0.6,0.4,1.4,0.6,2c0.1,0.3,0,0.8,0,1H455c-0.2,0.1-0.7-0.1-0.8-0.2c-0.2,0.1-0.2,0.2-0.4,0.3h-0.4c-0.2,0.1-0.2,0.3-0.6,0.4
			c0.1,0.3,0.3,0.4,0.4,0.7c0.4,0,0.5,0,0.8-0.1c0,0.1,0.1,0.2,0.1,0.2h0.1v-0.2c0.3,0,0.7-0.1,0.9,0.1c0.1,0,0.1,0,0.1,0.1
			c0.2,0.2,0.1,0.6,0.2,0.8c-0.2,0.5-1.2,0.7-1.6,1c-0.1,0.1-0.1,0.3-0.1,0.4c0.1,0.1,0.1,0.1,0.1,0.3c0.8,0.2,1-0.3,2-0.6
			c0.3,0.7,0.3,2.2,0.2,2.8c-0.2,0-0.7,0-0.9-0.1c-0.3,0-0.4,0-0.6,0.1c-0.1,0.1,0,0-0.1,0c0,0,0,0-0.1,0.1c0.1,0.3,0.3,0.4,0.4,0.7
			c0.1,0,0.7,0.3,1,0.1c0.2,0,0.3,0,0.4,0.1c-0.4,1-1.5,0.5-2.5,0.7c-0.6,0.1-1.3-0.2-1.8-0.3c-0.1,0-0.1,0-0.2,0.1
			c0,0,0-0.1-0.1-0.1c-0.2,0-0.4,0-0.6-0.1c0,0,0-0.1-0.1-0.1c-0.1,0-0.2,0.1-0.3,0.1c-0.2,0-0.5-0.3-0.8-0.3
			c-0.5-0.1-1,0.1-1.3,0.2c-0.2,0.1-0.5,0-0.7,0.1c-0.6,0.4-2.2,1.3-1.5,2.5c0.1,0.4,0.3,0.4,0.5,0.6c0.1,0.1,0.2,0.3,0.2,0.4
			c0.8,0.6,2.3,0.9,3.2,0.9c0.7,0,1.8,0.2,2.3-0.1c0.1,0,0.2,0,0.2,0.1c-0.1,0.9-1.3,0.8-2,1.1c-1.5,0.7-3,0.6-3.2,2.8h-0.2
			c-0.1,0-0.4,0.1-0.5,0.1c-0.2,0-0.8-0.2-1.1-0.1c0,0,0,0.2-0.1,0.1c-0.1-0.1-1-0.2-1.3-0.1c-1.6,0.3-3.1,0.2-4.5-0.1
			c-0.3-0.1-0.5,0.2-0.7,0.1c-0.5-0.1-1.4-0.2-1.9-0.4h-0.7c-0.5-0.1-1.2-0.3-1.7-0.4L434.7,335L434.7,335z M466.9,304.9v0.1
			c-0.2,0-0.1,0-0.1-0.1H466.9z M447.6,346.1c-0.3,0.1-0.4,0.2-0.7,0.3c0.1,0.7,0.8,1.1,1.3,1.3c-0.2,0.4-0.7,0.4-0.8,1
			c-0.6-0.1-0.8,0.7-1.6,0.5c-0.5-0.1-1.4-0.7-1.5-0.7h-0.5c0,0.1,0,0.1-0.1,0.1c0.1,0.7,0.9,1.2,1.5,1.4c0,0,0,0-0.1,0.1
			c-0.2,0.9-2.2,1.6-2.8,2.3c-0.6-0.1-1.5-0.4-1.9-0.7c-0.1,0-0.1,0-0.2,0.1c0,0-0.1,0.1-0.1,0.2c0.2,0.5,0.6,0.6,0.9,1
			c0.1,0.1,0.1,0.2,0.1,0.2c-0.2,0.5-0.8,0.7-1.2,1.2h-0.2v0.2c-1,0-1.4-0.1-2.1-0.7c-0.1-0.1-0.5-0.2-0.6-0.1
			c-0.1,0.1-0.2,0.2-0.2,0.4c0.6,0.6,0.7,0.8,1.5,1.2c-0.1,0.3-0.6,0.7-0.9,0.8c-0.4,0.3-0.9-0.1-1.1-0.2c-0.2-0.1-0.4,0-0.4-0.1
			c-0.4-0.2-0.6-0.5-1.3-0.5c0,0,0,0-0.1,0.1c0,0.2,0,0.4,0.1,0.6c0.2,0.6,1.1,0.4,1.3,0.9h0.1c-0.1,0.3-0.2,0.3-0.5,0.4
			c-1.4,0.8-1.8-0.6-2.9-0.2c0-0.1-0.1,0.1-0.2,0.1c0.2,0.5,0.8,0.9,1.3,1.1c0.3,0.1,0.6,0,0.7,0.1c0.5,0.2,0.2,0.4,0.3,0.9
			c0.1,0.2,0.2,0.6,0.3,0.9c-0.4,0.2-0.9,0.4-1.4,0.6c-0.4,0.1-0.6-0.1-0.9,0.1c-0.2,0.1-0.2,0.1-0.3,0.2c0.1,0.3,0.2,0.4,0.3,0.6
			c0.8,0,1.7,0,2.1-0.4c0.3,0,0.3,0.1,0.5,0.2c0,0.3-0.1,1.2,0.1,1.5c0,0.9-1.9,1.2-2.7,1.2c0,1.1,2,0.7,2.5,0.3
			c0.1,0,0.2,0,0.2,0.1c0.3,0.4,0.5,2.2,0.4,2.3c-0.4,0.7-1.7,0-2.3,0.5c-0.3,0-0.2,0.1-0.4,0.2c0,0.1,0,0.2,0.1,0.3
			c0.6,0.1,1.7,0.6,2.4,0.1c0.2,0,0.3,0,0.4,0.1c0.1,0.4,0.1,1.4,0.4,1.7c0,1.4-1.5,0.6-2.3,1.2c-0.2,0.1-0.2,0.2-0.2,0.5
			c0.2,0,0.3,0.2,0.4,0.2c0.3,0.1,0.8-0.2,1-0.2c0.2,0,0.4,0,0.6,0.1c0.3-0.1,0.3-0.2,0.7-0.2c0.1,0.6,0.3,1.2,0.3,1.7
			c-0.7,0.2-1.6,0.4-2.2,0.4c-0.1,0.1-0.1,0.2-0.2,0.2c0.2,0.8,1.9,0.5,2.4,0.1c0.4,0.1,0.8,1.7,0.7,1.8c0,0.5-1.3,0.7-1.4,0.7
			c-0.3,0-0.4,0.1-0.6,0.1c0,0.2,0,0.3-0.1,0.4c0.2,0.5,1.8,0.4,2.2,0c0.3,0.1,0.2,0.4,0.5,0.4c0,0.1,0.2,1.2,0.3,1.3
			c-0.1,0.8-1.7,1-2.3,1.1v0.4c0,0,0.1,0.1,0.1,0.1c0.3,0.1,1.7,0.2,1.9-0.2c0.6,0,0.4,0.4,0.6,0.7c-0.1,0.5-0.8,0.9-1.2,0.9
			c-0.1,0-0.2-0.1-0.4-0.1c-0.1,0.1-0.2,0.2-0.3,0.4c0,0.2,0.1,0.2,0.2,0.4c0.5,0.1,1.3,0.1,1.8-0.3c0.2,0.1,0.2,0.1,0.4,0.2
			c0,0.5-0.6,0.6-1,0.8c-0.1,0-0.1-0.1-0.2-0.1v0.1c-0.2,0.1-0.5,0-0.7,0.2c0,0-0.1,0.2-0.2,0.2c-0.4,0.3-1.3,0.1-1.7,0.4
			c0,0.1,0,0.1-0.1,0.2c-0.3,0.2-1,0-1.3,0.1c-0.2,0-0.5,0.1-0.9,0.1c-0.2,0-0.3,0-0.5-0.1c-0.3,0.1-0.6,0.2-0.9,0.2
			c-0.2,0,0-0.2-0.2-0.1c-0.8,0.1-2.1,0.2-3,0c-0.7-0.2-1,0.2-1.5,0.1c-0.8-0.2-1.5-0.2-2-0.5c-0.3-0.2-0.6,0-1-0.1
			c-1.1-0.4-2.2-0.6-3.2-1c-0.5-0.2-1-0.7-1.5-0.7c0,0,0,0,0.1-0.1c-0.1-0.2-0.2-0.1-0.4-0.2c-0.2-0.1-0.8-0.9-0.9-1
			c-0.2-0.5-0.1-1.6-0.1-2c0-0.2-0.1-0.4-0.1-0.4c0-0.1,0.1-0.4,0.1-0.5c-0.2-0.9-0.2-1.6-0.1-2.2c0.1-0.4-0.1-0.5,0.1-0.7
			c0,0-0.1-0.8-0.1-0.9c0.2-0.4,0.1-2.4,0.1-2.8c0-0.3,0-0.6,0.1-0.9c0-0.2-0.1-0.7-0.1-0.9c0-0.1,0.1-0.5,0.1-0.7
			c-0.2-0.7-0.1-1.4-0.1-2.2c0-0.3,0.1-0.5,0.1-0.7l-0.1-0.2c0,0,0.3-0.8,0.2-1.2c-0.2-0.9-0.1-3.1,0.1-4c0.1-0.6,0-1.4,0.1-1.8
			c0.1-0.3,0.1-0.8,0.2-1.3c0-0.2-0.1-0.5,0.1-0.9c0.1-0.3,0.5-0.5,0.7-0.7c0.4-0.6,0.6-1.3,1-1.8c0.2-0.2,0.4-0.5,0.7-0.7
			c0.1,0,0.2-0.1,0.2-0.1c0.2-0.2,0.2-0.6,0.4-0.8c0.4-0.5,1.1-1.4,1.7-1.7v-0.2c0.4-0.1,0.7-0.5,0.9-0.9h0.2
			c0.1-0.3,1.4-2.1,1.7-2.3c0.2-0.1,0.4-0.2,0.5-0.3c0.3-0.3,0.6-0.7,0.9-1v-0.2c0.1-0.1,0.3-0.1,0.4-0.2c0.2-0.3,0.4-0.7,0.6-1
			c0.2-0.2,0.4-0.4,0.6-0.6c0.1-0.2,0.1-0.3,0.2-0.5c0.2-0.2,0.6-0.4,0.7-0.6c0.3-0.4,0.7-1,1.2-1.4V341c0.5-0.1,0.8-0.8,1.2-1.2
			c0.1,0,0.2-0.1,0.2-0.1c0.7-0.8,1.4-1.5,2.1-2.3c0.4-0.4,0.5-1,1-1.1c0.2-0.1,0.5,0.1,0.8,0.1c0.5,0,1.5,0,2,0.1
			c0.1,0,0.4,0.2,0.6,0.2c0.5,0,1.8,0,2.4,0.1c0.1,0,0.3,0.1,0.4,0.1c0.7-0.1,2-0.1,2.8,0c0.3,0,0.5-0.1,0.9-0.1
			c0.9,0,1.7,0,2.6-0.1c0.6,0.2,0.9,0.4,1.7,0.5v0.7c0.5,0.5,0.8,1.1,1.6,1.3c0.7,0.2,1.2-0.2,1.7,0.1c0.2,0.2,0.2,0.3,0.3,0.6
			c0,0,0.1,0,0.1-0.1c0.4,0.4,0.6,0.8,1.3,0.9v0.3c-0.2,0.2-0.2,0.3-0.5,0.4c-0.7,0.5-2-0.4-2.1-1c-0.5,0-0.5,0.2-0.8,0.4
			c0,1,1.3,1.5,2,1.8c-0.1,0.4-0.4,0.8-0.7,1c-0.2,0.1-0.3,0.1-0.6,0.2c-0.9,0.3-1,0.1-1.8-0.4c-0.1,0-0.3,0-0.4,0
			c-0.2,0.1-0.4,0.4-0.2,0.7c0.2,0.6,1.1,0.4,1.4,0.9c0,0.1,0,0.3,0.1,0.4c-0.4,0.2-1.5,0.9-1.5,1.2
			C449,346.9,448.1,346.8,447.6,346.1z M490.6,362.9h-0.1c0,0.6-0.1,1.7-0.4,2.1l-0.1,1.1c-0.1,0-0.1,0.1-0.2,0.1
			c0,0.1,0.1,0.3,0.1,0.4c-0.1,0.2-0.2,0.3-0.2,0.6c-0.1,0.3,0.1,0.7,0,0.9c0,0.1-0.2,0.1-0.2,0.3c0.1,0.7-0.6,1.3-0.9,1.8
			c0,0.2,0,0.4-0.1,0.6c-0.1,0.2-0.3,0.4-0.4,0.6c-0.1,0.2-0.2,0.6-0.2,0.7c-0.2,0.4-0.7,0.9-1,1.2c-0.4,0.6-0.6,1.1-1.2,1.5v0.2
			c-0.4,0.1-0.6,0.5-1,0.6c-0.6,0.1-2.3-0.2-2.8-0.5c-0.3,0.1-1.5-0.4-1.8-0.5c-0.3,0-0.5,0-0.8-0.1c-0.2-0.1-0.5-0.3-0.7-0.4
			c-0.1,0-0.2,0.1-0.2,0.1c0-0.1,0-0.1-0.1-0.2c-0.2-0.1-0.5-0.1-0.7-0.1c-0.1,0-0.3-0.2-0.4-0.2c-0.1,0-0.3,0.1-0.4,0.1
			c-0.3-0.1-0.3-0.3-0.8-0.3c0.1,0,0,0,0.1-0.1c-0.1-0.1-1-0.2-1.2-0.6c-0.3,0-0.1,0-0.2-0.1c-0.2-0.1-0.6-0.1-0.8-0.1
			c-0.1,0-0.3-0.2-0.3-0.2c-0.1,0-0.3,0.1-0.6,0c-0.4-0.1-0.7-0.1-1.1-0.3c-0.3-0.1-1-0.6-1.3-0.4c0,0,0,0-0.1-0.1h0.1
			c-0.1-0.2-0.6-0.1-0.9-0.2c-0.2-0.1-0.4-0.3-0.6-0.4c-0.2-0.1-0.9-0.1-1-0.1c-0.2-0.2-0.5-0.4-0.9-0.6c-0.1,0-0.3,0-0.4-0.1
			c-1.6-1-4.1-1.2-5.8-2.4c-0.1,0.1-1.3-0.5-1.5-0.6c-0.4-0.3-0.5-0.8-0.9-1.1c-0.5-0.5-1.4-1.5-1.5-2.3h-0.2c0-0.1,0-0.1,0.1-0.2
			c-0.4-0.1-0.2-0.4-0.3-0.5c-0.1-0.1-0.3-0.2-0.4-0.2c0-0.1,0-0.1,0.1-0.2c-0.2-0.4-0.7-0.7-0.9-1.1c-0.1-0.2-0.1-0.5-0.2-0.7
			c-0.1-0.1-0.3-0.2-0.3-0.4v-0.3c0-0.1-0.3-0.2-0.3-0.2c0-0.1,0-0.1,0.1-0.2c0-0.1-0.2-0.2-0.2-0.2c-0.2-0.3-0.1-0.4-0.2-0.6
			c-0.1-0.1-0.2-0.3-0.2-0.4c-0.1,0-0.2-0.1-0.2-0.1c0-0.1,0-0.2-0.1-0.4c-0.1-0.2-0.4-0.3-0.6-0.5v-0.2h-0.1
			c-0.1-0.1,0-0.3-0.1-0.4c0,0-0.3-0.2-0.3-0.2c0,0,0-0.1,0.1-0.1c-0.1-0.2-0.3-0.4-0.4-0.6h-0.1v-0.2c-0.3-0.4-1.1-1.5-1-2
			c-0.1-0.1-0.3-0.2-0.4-0.3c-0.2-0.2-0.2-0.6-0.4-0.8c-0.1-0.1-0.2-0.1-0.3-0.2c-0.3-0.4-0.3-0.7-0.6-1c0-0.6,0.6-0.7,1-1
			c0.1-0.1,0.2-0.4,0.4-0.5c0.2-0.2,0.6-0.2,0.7-0.4c0.1-0.1,0.2-0.3,0.3-0.4c0.1,0,0.2,0,0.3-0.1c0.1-0.1,0.2-0.4,0.4-0.5
			c0.1-0.1,0.3,0,0.4-0.1c0.2-0.1,0.3-0.4,0.5-0.6h0.2c0.1-0.1,0.1-0.2,0.2-0.3c0.2-0.2,0.4-0.3,0.6-0.5c0,0,0-0.1-0.1-0.1
			c0.2-0.2,0.5-0.3,0.6-0.4c0.6-0.7,1.2-1.5,1.8-2.3c0.2-0.2,0.5-0.4,0.7-0.6c0.4-0.6,0.7-1.2,1.1-1.7c0.6-0.8,1.5-1.6,2-2.5
			c0.4,0.1,0.4,0.4,0.6,0.6c0,0.9-0.7,2-1.2,2.6c0,0.2,0,0.3,0.1,0.4c0.1,0.1,0.1,0.1,0.2,0.2c0.8,0,1-1.3,1.5-1.8c0,0,0,0,0.1-0.1
			v0.1c0.4,0.1,0.4,0.6,0.7,1c0.1,0.1,0.2,0.1,0.3,0.2c0.1,0.3-0.3,0.4-0.6,0.4c-0.1,0.3,0,0.8-0.2,1.1c-0.1,0.1-0.5,0.4-0.5,0.4
			v0.4c-0.1,0.2-0.3,0.3-0.4,0.5c-0.1,0.2-0.1,0.4-0.1,0.6c0.1,0.1,0.1,0,0.2,0.2c0.2,0,0.4,0,0.5-0.1c0.3-0.1,0.2-0.4,0.4-0.7
			c0.3-0.4,1-1.3,1.1-1.7c0.6,0.2,1.2,1.9,1.6,2.4c0,0.7-0.5,0.7-0.9,1c-0.3,0.4-0.3,1-0.9,1.2c0.1,0.1,0.1,0.3,0.2,0.4
			c1.2,0,1.2-1.4,2.1-1.6c0.3,0.4,0.8,1.3,0.9,1.7c0,0.7-0.5,0.6-0.7,1c-0.1,0.1,0,0.3-0.1,0.4c-0.2,0.2-0.5,0.2-0.6,0.6h-0.1
			c0.1,0,0,0,0.1,0.1c-0.1,0,0,0-0.1,0.1c0.1,0.1,0.2,0.2,0.2,0.2c1-0.1,1.1-0.8,1.8-1.2c0,0,0,0,0.1-0.1c0.2,0.4,0.6,1.2,0.9,1.4
			c-0.4,0.6-1.1,1.1-1.7,1.6c0,0.1,0,0.4,0.1,0.6c0.1,0.1,0.2,0.1,0.3,0.2c0.2-0.1,0.3-0.1,0.5-0.2v-0.2c0.4-0.1,0.9-0.7,1-1
			c0.6,0.1,0.9,1.3,1.3,1.7c0,0.2,0,0.3,0,0.4c-0.1,0.2-0.9,1.2-1,1.2v0.2h-0.2c0,0.2,0,0.3-0.1,0.4c0,0.2,0,0.1,0.1,0.1
			c0,0,0,0-0.1,0.1v0.1c0.3,0,0.1,0,0.4,0.1c0.4-0.5,0.9-1,1.4-1.4c0,0,0,0,0.1-0.1c0.1,0.1,0.3,0.2,0.4,0.3c0.3,0.3,0.2,0.8,0.6,1
			c0,0.7-0.5,0.9-0.4,1.3h-0.2c-0.1,0.4-0.4,0.5-0.4,1c0.2,0,0.1,0,0.2,0.1c0.2-0.1,0.1-0.1,0.4-0.2c0.2-0.8,0.9-1.2,1.2-1.8
			c0.8,0.1,1.8,0.4,2.5,0.7c-0.1,0.5-0.3,0.5-0.5,0.7c-0.1,0.1-0.1,0.5-0.1,0.6h-0.1c-0.1,0.2-0.2,0.3-0.3,0.6
			c-0.2,0.1,0,0.3,0.1,0.4c0.8-0.2,1.2-1.5,2-1.8c0.3-0.2,1.1,0.2,1.3,0.4c0.2,0.4-0.7,1.1-0.4,1.6v0.3c0.1,0,0.1,0,0.1,0.1
			c0.9-0.1,0.9-1.9,1.8-1.7c0.2,0,0.4,0.2,0.6,0.3c0.3,0.1,0.5,0.1,0.6,0.4c0.1,0-0.4,1.1-0.6,1.2c0,0.3,0,0.3,0.1,0.5
			c0.2,0.1,0.3,0.1,0.6,0.1c0.1-0.6,0.6-1,0.8-1.5c0.7,0,1,0.3,1.7,0.5c-0.1,0.3,0,0.9-0.3,1.3c0,0.2,0,0.3,0.1,0.4
			c0.2,0,0.2,0,0.3-0.1c0.4-0.1,0.7-0.8,0.7-1.2c0.4-0.1,1.3-0.1,1.6,0.1c0.4,0.1,0.3,0.3,0.6,0.4c-0.2,0.7-0.5,1.2-0.7,1.8
			c-0.1,0.2,0.1,0.4,0.1,0.5c0.4,0,0.5,0,0.8-0.2c0.3-0.7,0.4-1.9,0.9-2.1c0.1-0.1,0.6,0.1,0.7,0.2c0.1,0.1,0.2,0.2,0.2,0.2
			c0,0.1-0.1,1.7-0.1,1.7c0,0.1,0,0.2,0.1,0.2c0.1,0,0.1,0,0.1,0.1c0.7-0.1,0.4-1.3,0.9-1.8c0.1-0.1,1.8-0.1,1.9,0
			C490.8,361.8,490.5,362.6,490.6,362.9C490.6,363,490.6,362.9,490.6,362.9z M429.2,253.4c0.5,0.3,0.9-0.1,1.3,0.2
			c0.2,0.1,0.7,0.7,0.9,0.9c0.6,0,1.1-0.6,1-1.1c0.1-0.1-0.1-0.2-0.2-0.2c0-0.1,0-0.1,0.1-0.2c-0.1,0-0.1,0-0.2-0.1
			c0-0.3-0.1-0.2-0.1-0.4h-0.2c0-0.4-0.1-0.4-0.1-0.9c0,0,0,0-0.1-0.1c-0.2,0-0.6,0.1-0.7,0.2c-0.2-0.1-0.1,0-0.1-0.2
			c-0.1,0.1-0.4,0.3-0.4,0.1h-0.1c0,0.1,0,0.2-0.1,0.2c-0.2,0.1-0.5,0-0.6,0.1c-0.1,0-0.3,0.3-0.4,0.4c0,0.1,0,0.1-0.1,0.2h-0.2
			c0,0.1,0,0.1,0.1,0.1C428.8,253.1,428.9,253.3,429.2,253.4z M430.2,251.8c-0.1,0-0.1,0-0.1-0.1
			C430.2,251.8,430.2,251.8,430.2,251.8z M427,258.2c0.3,0.1,0.6,0.3,0.9,0c0.7,0,1.2-1,1.5-1.4c0.1-0.2,0-0.5,0.1-0.7
			c-0.2-0.5-0.5-0.6-0.9-0.9c-0.1-0.1-0.2,0-0.4,0.1c-0.1-0.1-0.1-0.1-0.2-0.2c0,0.2,0,0.1,0.1,0.2c-0.5,0.2-1.3,1.6-1.1,2.4
			C426.8,257.9,427,258,427,258.2z M433.3,270.9c0.3,0.2,0.7,0,1.1,0.1c1.3,0.3,3-0.4,3.6-1.2h0.2c0.1-0.4,0.2-0.8,0.4-1.1
			c0.1-0.2,0.4-0.3,0.4-0.5c0-0.2-0.1-0.6-0.1-0.7c0.2-1.2,0-2.5-0.8-3.2c-0.3-0.2-0.7-0.5-1-0.7c-0.5-0.2-1.1-0.1-1.4-0.5
			c-0.5,0-0.7,0-0.9,0.4c-0.1,0.1,0,0.4,0.1,0.6c0.4,0.4,1,0.5,1.5,0.7c0.5,0.2,0.7,0.8,1.1,1c0,2.2-0.5,3.5-2,3.9
			c-0.9,0.2-2.3-0.6-2.8,0.2c-0.1,0.1-0.1,0.4,0.1,0.6C432.9,270.7,433.1,270.8,433.3,270.9z M397.1,278.2h-0.1
			C397,278.2,396.9,278.2,397.1,278.2L397.1,278.2z M436.9,284c0-0.1,0,0,0.1-0.1c-0.1,0-0.1,0-0.2-0.1v0.3
			C436.9,284.1,436.8,284.2,436.9,284z M436.6,284.4c0-0.1,0-0.1,0.1-0.1c-0.1,0-0.1,0-0.2-0.1C436.5,284.3,436.5,284.2,436.6,284.4
			C436.5,284.3,436.6,284.4,436.6,284.4z"/>
	</g>
</g>
<g>
	<g>
		<path class="st1" d="M468.3,309.8c-0.2-0.1-0.6-0.1-0.9-0.1c-0.2,0.2-0.5,0.1-0.9,0.1c-0.2-0.3-0.4-0.3-0.4-0.8
			c0.2-0.1,0.5-0.3,0.7-0.3c0.8-0.3,1.4,0.3,1.4-0.9c-0.3-0.5-0.4-2-1-2.2c-0.6,0.6-1.5,1.2-2.3,1.1c0-0.1-0.1-0.2-0.1-0.4
			c0.4-0.4,0.6-0.8,1.1-1.2c0.3-0.2,0.7-0.3,0.9-0.6c-0.4-0.4-0.8-1.3-1.5-1.3c-0.3,0.6-1.2,1.1-1.6,1.6c-0.2,0-0.3,0-0.4-0.1
			c-0.2-0.2-0.2-0.3-0.2-0.7c0.2-0.1,1.3-1.3,1.4-1.5c-0.7-0.5-1.6-0.9-2.1-1.5c-0.1,0-0.1,0-0.1,0.1c-0.4,0.3-0.5,1.1-1,1.4
			c-0.2,0.2-0.7,0.2-0.9,0.1c-0.1-0.1-0.2-0.3-0.2-0.6c0.4-0.4,1-1,1.1-1.7c0-0.1,0,0-0.1-0.1c-0.7-0.2-1-0.8-1.8-0.9
			c-0.3,0.6-0.7,1.7-1.4,1.9c-0.1-0.1-0.4-0.2-0.5-0.3h0.1c0,0,0.1-0.1,0.1-0.1c-0.3-0.3,0.6-1.8,0.8-2c-0.5-0.4-1.2-0.9-2-1
			c-0.1,0.3-1.2,1.7-1.4,1.8c-0.1,0-0.1,0-0.2,0.1c-0.1-0.1-0.3-0.2-0.5-0.3c-0.1-0.6,0.4-0.8,0.4-1.3c0,0,0.1,0,0.1,0.1
			c0.2-0.1-0.1-0.1,0-0.2c0.1,0,0.2-0.1,0.4-0.1c0.1-0.1-0.1-0.2-0.1-0.2c0.1-0.1,0.3-0.2,0.4-0.3c-0.5-0.3-1-0.7-1.5-1
			c-0.4-0.2-1-0.3-1.3-0.7c-0.1,0-0.1,0-0.2,0.1c-0.4,0.6-0.9,2-1.5,2.3c-0.1,0.1-0.2,0.1-0.3,0.1c-0.1-0.2-0.4-0.2-0.5-0.5
			c-0.1-0.4,0.4-0.6,0.6-0.9c0.1-0.2-0.1-0.6,0.1-0.9c0.1-0.2,0.4-0.4,0.6-0.6v-0.1c-0.6-0.3-1.2-0.9-2-1c-0.4,0.7-1,1.4-1.5,2
			c-0.1,0-0.2,0-0.4-0.1c-0.2-0.2-0.3-0.2-0.4-0.6c0.4-0.5,0.7-1.3,1.2-1.7c0-0.1,0-0.1-0.1-0.1c-0.1-0.3-1.4-0.9-1.8-0.9
			c-0.3,0.7-0.7,1.9-1.7,1.9c-0.1-0.1-0.2-0.2-0.3-0.4c-0.3-0.5,0.9-1.7,1-2.1c-0.4-0.1-0.4-0.3-0.7-0.5c-0.2-0.1-0.3,0-0.5-0.1
			c-0.5-0.3-1-0.8-1.5-0.9c-0.2,0.5-0.4,1-0.7,1.3c-0.2,0.2-0.5,0.3-0.7,0.6c-0.2,0.2-0.2,0.6-0.4,0.8c-0.3-0.2-0.5-0.1-0.7-0.3
			c-0.1-0.1-0.1-0.2-0.1-0.4c0.3-0.3,0.7-1.5,0.9-1.6c0.3-0.3,0.6-0.4,0.8-0.6c-0.1-0.1-0.1-0.1-0.1-0.1c0,0,0.1-0.1,0.1-0.1
			c-0.6-0.1-1.4-0.7-2.2-0.7c0,0.3,0,0.4,0,0.7c-0.1,0-0.1,0-0.2,0.1c-0.6,0.6-1.2,1.1-2.1,1.4c-0.1,0-0.2-0.1-0.2-0.1
			c-0.1-0.2-0.2-0.2-0.2-0.5c0-0.1,0,0,0-0.2c0.1-0.1,0.3-0.2,0.4-0.2c0.1-0.1,0.1-0.3,0.1-0.3h0.5c0.3-0.1,0.9-0.6,0.9-1
			c-0.1-0.1-0.1-0.2-0.1-0.3c-0.1,0-0.1,0-0.2-0.1c-0.3,0.2-0.5-0.1-0.7,0c-0.5,0.1-1.1,0.4-1.6,0.6c-0.2,0-0.4,0-0.6-0.1l-0.2,0.2
			c-0.4,0.1-0.7,0-1.1,0.1c-0.3,0.1-0.9,0.3-1.3,0.4c-0.1,0-0.2,0-0.4-0.1c-0.7,0.2-1.7,0.4-2.5,0.2c0,0-0.3,0.1-0.3,0.1
			c-0.2,0-0.4,0-0.6-0.1c-0.2,0.1-0.7,0.2-1,0.1c-1.2-0.1-2.8-0.5-3.5-0.4c-0.4,0.1-1-0.2-1.2-0.2c-0.3,0.1-2.3-0.6-2.5-0.7
			c-0.1-0.1-1-1.3-1-1.3h-0.2c0.1-0.2,0-0.3-0.1-0.5h-0.1v0.1c0.4,0.4-0.4,3.5-0.2,4.6c0.1,0.8-0.1,1.9,0.1,2.9
			c0.1,0.6,0,1.8,0.1,2.5c0.2,1.5,0.4,2.9,0.7,4c0.1,0.4,0,1.1,0.2,1.6c0.4,1,0.5,2.7,0.8,3.7c0.1,0.2,0,1,0.1,1.2
			c0.6,1.8,1,3.8,1.5,5.4v0.4l0.2,0.2v0.6c0.2,0.5,0.5,1.1,0.7,1.7c0,0.1-0.1,0.4,0,0.6c0.2,0.5,0.5,1.1,0.7,1.6
			c0.2,0.5,0,0.7,0.2,1.2c0.1,0,0.1,0.1,0.2,0.1c0,0.1,0,0.1-0.1,0.2c0,0.1,0.2,0.3,0.2,0.4c0,0.1,0,0.2-0.1,0.2
			c0.1,0.4,0.3,0.6,0.4,0.9l0.2,0.9c0.1,0,0.1,0,0.2,0.1v0.4c0.1,0.3,0.4,0.6,0.5,0.9v0.3c0.2,0.5,0.6,1,0.8,1.4
			c0,0.1,0,0.3,0.1,0.4c0.1,0.2,0.3,0.4,0.4,0.6c0.2,0.4,0.2,0.7,0.4,1c0.3,0.5,0.8,1,1,1.5c0,0-0.1,0.2,0,0.3
			c0.1,0.2,0.4,0.5,0.6,0.7c0,0.1,0,0.3,0.1,0.4c0.1,0.2,0.5,0.4,0.6,0.6c0.7,1.3,1.3,2.5,2,3.7c0.2,0,0.4-0.1,0.7-0.1
			c0.1,0.1,0.2,0.2,0.3,0.4c0.2,0.1,0.5,0.1,0.7,0.2c0.2,0.1,0.5,0.2,0.6,0.3h0.5c0.5,0.1,1.1,0.3,1.7,0.4h0.7
			c0.5,0.1,1.4,0.3,1.9,0.4c0.1,0,0.4-0.2,0.7-0.1c1.3,0.3,2.8,0.4,4.5,0.1c0.3,0,1.2,0,1.3,0.1c0.1,0.1,0.1-0.1,0.1-0.1
			c0.3-0.1,0.9,0,1.1,0.1c0.1,0,0.4-0.1,0.5-0.1h0.2c0.2-2.1,1.8-2,3.2-2.8c0.7-0.3,1.8-0.2,2-1.1c-0.1,0-0.1,0-0.2-0.1
			c-0.4,0.3-1.5,0.1-2.3,0.1c-0.9,0.1-2.4-0.3-3.2-0.9c-0.1-0.1-0.2-0.3-0.2-0.4c-0.2-0.2-0.4-0.2-0.5-0.6c-0.8-1.2,0.8-2.1,1.5-2.5
			c0.2-0.1,0.5,0,0.7-0.1c0.3-0.1,0.8-0.3,1.3-0.2c0.2,0,0.6,0.3,0.8,0.3c0.1,0,0.2-0.1,0.3-0.1c0,0,0,0.1,0.1,0.1
			c0.2,0,0.4,0,0.6,0.1c0,0,0,0.1,0.1,0.1c0.1,0,0.1,0,0.2-0.1c0.5,0.1,1.2,0.4,1.8,0.3c1-0.2,2.1,0.3,2.5-0.7
			c-0.1,0-0.2-0.1-0.4-0.1c-0.3,0.2-1-0.1-1-0.1c-0.1-0.2-0.3-0.4-0.4-0.7c0,0,0,0,0.1-0.1c0.1,0,0.1,0.1,0.1,0
			c0.2-0.1,0.3-0.1,0.6-0.1c0.2,0.1,0.7,0.1,0.9,0.1c0.1-0.6,0.1-2.1-0.2-2.8c-0.9,0.2-1.1,0.7-2,0.6c0-0.2-0.1-0.2-0.1-0.3
			c0-0.1,0-0.2,0.1-0.4c0.4-0.3,1.4-0.5,1.6-1c-0.1-0.2,0-0.6-0.2-0.8c-0.1,0,0,0-0.1-0.1c-0.2-0.1-0.6-0.1-0.9-0.1v0.2h-0.1
			c0-0.1-0.1-0.2-0.1-0.2c-0.3,0.1-0.4,0.1-0.8,0.1c-0.1-0.3-0.3-0.4-0.4-0.7c0.3,0,0.3-0.3,0.6-0.4h0.4c0.2-0.1,0.2-0.2,0.4-0.3
			c0.1,0.2,0.6,0.3,0.8,0.2h0.1c0-0.1,0.1-0.7,0-1c-0.2-0.5-0.5-1.4-0.6-2c-0.4,0-0.3,0.2-0.6,0.3c-0.5,0.3-0.9,0.3-1.5,0.2
			c-0.1-0.3-0.1-0.3-0.1-0.8c0.1,0,0.1,0,0.2-0.1c0.3-0.2,1.5-0.1,1.5-1c-0.3-0.4-0.2-1.3-0.9-1.3c-0.2,0.3-0.6,0.6-1,0.6
			c-0.1,0-0.4-0.1-0.6-0.1c0-0.2-0.2-0.4-0.3-0.5c0-0.1,0.1-0.2,0.2-0.3c0.3-0.3,0.8-0.2,1.1-0.4c0.2-0.1,0.1-0.2,0.4-0.4
			c-0.1-0.3-0.6-2-1.1-2c-0.2,0.3-0.9,0.7-1.2,0.8c-0.3,0.1-0.6-0.1-0.9-0.1c0-0.2-0.1-0.2-0.2-0.3c0-0.2,0-0.2,0.1-0.2
			c0.4-0.5,0.8-0.4,1.3-0.7c0.3-0.2,0.6,0,0.6-0.4c-0.6-0.6-0.5-1.8-1.2-2.2c-0.1,0-0.1,0-0.2-0.1c-0.1,0.2-0.2,0.2-0.3,0.4
			c-0.6-0.1-0.7,0.3-1.5,0.4c-0.1-0.1-0.3-0.2-0.4-0.4c0.1-0.1,0.1-0.2,0.1-0.4c0.2-0.1,0.4-0.4,0.7-0.6c0.1,0,0.1,0,0.2,0.1
			c0,0,0.1-0.2,0.1-0.2c0.1,0,0.2,0,0.3,0.1c0.3,0,0.8-0.2,0.9-0.6c-0.2-0.3-0.4-0.9-0.4-1.3c-0.8,0-2,0.4-2.4,0.1
			c-0.1-0.1-0.2-0.4-0.2-0.6c0.2-0.1,0.7-0.4,0.9-0.6c0.3,0.1,0.8,0.2,1.3,0.1v-0.3h0.1c0,0,0,0-0.1-0.1c0-0.1-0.5-0.9-0.6-1
			c-0.7-0.5-2.4-0.6-3.4-0.9c-0.2,0-0.4,0.1-0.4,0.1c-1-0.2-1.8-0.5-3-0.6c-0.2-0.3-0.5-0.3-0.6-0.7c0.4-0.4,0-0.6,1-0.6
			c0.4,0.3,1.1,0.2,1.8,0.4c0.2,0.1,0.5,0,0.7,0.1l0.2,0.2c0.4,0.2,1,0,1.3,0.1l0.2,0.2c0.2,0.1,0.8-0.1,1.2,0.1
			c1.1,0.4,2.3,0.9,3.3,1.3c0.4,0.2,0.7,0.1,1,0.3c1.4,0.8,2.8,1.8,4.3,2.6c0.6,0.3,0.9,1,1.5,1.4c0.3,0.2,1.1,0.7,1.2,1v0.4
			c0.2,0.3,0.7,0.6,0.9,1c0.3,0.7,0,1.6,0.2,2.5c0.2,1-0.1,3.3-0.3,4.1c-0.1,0.2,0.1,0.4,0.1,0.6c-0.1,1.1,0,1.7-0.2,2.5
			c0,0.1,0.1,0.2,0.1,0.3c-0.3,1.6-0.8,2.6-0.1,4.1c0.4,0,0.7,0.3,1,0.4c0.2,0,0.4,0,0.6,0.1c0.9,0.3,2,0.6,3,0.9
			c0.1,0,0.2,0,0.3-0.1c0.7,0.1,1.2,0,1.9-0.1c0.1-0.6,0.4-1.1,0.4-1.8c-0.3,0.1-0.5,0.3-0.7,0.4c-0.5,0.1-1.5,0-1.7-0.5
			c-0.1-0.1-0.1-0.2-0.1-0.4c0.2-0.2,0.2-0.3,0.6-0.3c0.2-0.1,0.4,0.2,0.6,0.2c0.3,0.1,1,0,1.3,0c0.1-0.7,0.3-1.3,0.3-2.1
			c-0.7,0-1.2,0-1.8-0.2c-0.1-0.2-0.1-0.3-0.1-0.6c0.2-0.1,0.3-0.1,0.4-0.2c0.6,0,1.1,0.1,1.8,0.1c0-0.8,0.4-1.4,0.4-2.3l-0.1-0.1
			c-0.7-0.1-1.3-0.2-1.8-0.7c0.1-0.1,0.1-0.3,0.1-0.4c0.6-0.2,1.1,0,1.9,0c0,0,0,0,0.1-0.1c0-1,0.2-1.7,0.2-2.7l-0.1-0.1
			c-0.5,0-1.2,0-1.6-0.1c-0.2-0.3-0.4-0.3-0.4-0.9c0.2-0.1,0.2-0.2,0.5-0.2c0.1-0.1,1.2,0,1.5,0.1c0.2-0.7,0.2-1.4,0.1-2
			C468.2,310.3,468.5,310.1,468.3,309.8z M419,297.9c-0.1-0.3-0.1-0.9-0.2-1.2c0-0.1,0.1-0.3,0.1-0.4c-0.3-1.6,0-2.6-0.3-4.1
			c-0.1-0.4,0.2-0.8,0-1.3l-0.1,0.1c-0.2,0.4-0.4,0.6-0.2,1c-1.2,0.1-1.5,1.4-2.2,2c-0.3,0.3-0.7,0.6-1,0.9
			c-0.2,0.1-0.6,0.2-0.9,0.3v0.1c-0.2,0.2-0.4,0.2-0.6,0.3c-0.1,0.1-0.2,0.3-0.4,0.4c-0.1,0.1-0.2-0.1-0.4,0.1
			c-0.2,0.1-0.3,0.4-0.4,0.6c-0.2,0.1-0.4,0.1-0.6,0.2c-0.5,0.3-0.8,0.8-1.5,0.9v0.2H410c-0.2,0.3-0.5,0.6-0.8,0.7
			c-0.1,0-0.2,0-0.4,0.1c0,0.1,0,0.1-0.1,0.2c-0.2,0.1-0.5,0.4-0.7,0.5c-0.3,0.2-0.7,0.2-1,0.4c-0.1,0.1-0.2,0.2-0.3,0.3
			c-0.5,0.3-1,0.4-1.5,0.7c-0.1,0-0.1,0.2-0.1,0.2c-0.2,0-0.3,0-0.5,0.1c0,0.1,0,0.1-0.1,0.2c-0.3,0.2-0.7,0.4-1,0.6
			c-0.7,0.3-2.1,0.3-2.6,0.7c-0.1,0.1-0.1,0.2-0.1,0.3c0.3,0.3,0.1,0.6,0,1c-0.1,0.1-0.2,0.2-0.4,0.2c0,0-0.2,0-0.4,0
			c-0.2-0.2-0.4-0.2-0.5-0.4c-0.1-0.2,0-0.5-0.1-0.6c0-0.1,0-2.9,0.1-3.3c0.3-1.1,0.4-2.5,0.6-3.4c0-0.1-0.2-0.2-0.1-0.3
			c0,0,0.2-0.1,0.2-0.1c0-0.1-0.1-0.2,0-0.4l0.1-0.1v-0.3c0-0.1,0.2-0.4,0.2-0.4c0.2-0.4,0-0.8,0.2-1.3c0.2-0.5,0.7-1.5,0.7-2
			c0,0,0,0-0.1-0.1c-0.6,0.1-1.7,0.1-2.1-0.1c-1,0.2-3.6,0.1-4.5-0.2c-0.4-0.1-0.9-0.4-1.2-0.6c-0.4-0.1-0.7,0.3-1.2,0.1v-0.1
			c-0.1,0-0.2,0-0.4-0.1c-0.1-0.3-0.2-0.6-0.5-0.6c-0.6,1.3-1.1,3-1.7,4.5c0,0.1,0,0.1,0.1,0.2c-0.1,0.3-0.2,0.6-0.3,0.9v0.4
			c-0.3,0.6-0.5,1.6-0.7,2c0,0.1,0,0.1,0.1,0.2c-0.1,0.4-0.2,0.9-0.3,1.3c0,0.1,0.1,0.3,0,0.5c-0.2,0.5-0.4,1.4-0.7,2
			c0,0.2,0,0.4-0.1,0.7c-0.1,0-0.1,0-0.2,0.1c-0.1,0.1,0.1,0.2,0.1,0.2c0,0-0.1,0.7-0.2,0.8h-0.1c0,0,0.1,0.5,0.1,0.8
			c0,0.1-0.2,1-0.2,1c-0.1,0.5,0,1.7,0.2,2.1c0,0.2,0,0.5,0.1,0.7c0.1,0.4,0.2,1.1,0.4,1.5c0.2,0.3,0.4,0.7,0.6,1v0.2
			c0.2,0.2,0.7,0.5,0.9,0.7c0.1,0.1,0.2,0.3,0.3,0.4c0.2,0.1,0.4,0.1,0.6,0.2c0,0.1,0,0.1,0.1,0.2c0.1,0,0.2,0,0.4,0.1
			c0.5,0.3,1,0.7,1.6,0.9c0.6,0.2,2.1,0.1,2.5,0h0.7c0.8-0.2,1.8-0.1,2.6-0.4c0.9-0.4,1.8-0.7,2.8-1.2c0.2-0.1,0.3-0.4,0.5-0.4
			c0.1,0,0.1,0.1,0.2,0.1c0.1,0,0.6-0.2,0.7-0.2c0.5-0.2,1-0.6,1.5-0.9c0.5-0.2,1-0.4,1.4-0.5h0.4c0.1-0.1,0.2-0.2,0.3-0.3
			c0.3-0.1,0.6-0.1,0.9-0.2c0.4-0.2,0.9-0.5,1.3-0.7c0.4-0.2,0.7-0.1,1.2-0.2c0.7-0.3,1.4-0.8,2.1-1.1c0.4-0.2,0.6-0.1,1-0.2
			c0.3-0.1,0.6-0.4,0.9-0.5c0.1,0,0.3,0,0.4-0.1c0.2-0.1,0.3-0.3,0.5-0.4c0.6-0.3,1.3-0.4,1.8-0.8c0.2-0.1,0.6-0.5,0.8-0.4
			c0.7-0.6,1.5-1.5,2.4-1.6c-0.1-1.5-0.4-3.1-0.7-4.3C418.9,298.4,419,298.3,419,297.9z"/>
	</g>
</g>
<path class="st2" d="M484.5,338.2c0,0,17.6,3.2,32.6-13.6"/>
<path class="st2" d="M505.3,340.6c0,0,21,1.6,34.8-8.8"/>
<path class="st2" d="M518.4,333c0.6-0.2,21.8-9.2,30.2-29.4"/>
</svg>
