<?xml version="1.0" encoding="utf-8"?>
<!-- Generator: Adobe Illustrator 21.0.0, SVG Export Plug-In . SVG Version: 6.00 Build 0)  -->
<svg version="1.1" id="Calque_1" xmlns="http://www.w3.org/2000/svg" xmlns:xlink="http://www.w3.org/1999/xlink" x="0px" y="0px"
	 viewBox="0 0 841.9 595.3" style="enable-background:new 0 0 841.9 595.3;" xml:space="preserve">
<style type="text/css">
	.st0{fill:#1D1D1B;}
	.st1{fill:#DADADA;}
</style>
<g>
	<g>
		<path class="st0" d="M545.3,327.1c-1.2-1.7-4.7-1.9-6.6-2.6c-5.2-2.1-10.6-3.9-15.8-6c-5.6-2.1-11-6.6-16.1-9.5
			c-9.3-5.1-23-13.5-29-22.2c-1.5-2.1-0.7-7.3-0.6-10.5c-0.7-3.6-1.5-7.3-2.1-11c-4.9-12.4-11.8-25.2-16.5-37.4
			c-1.9-4.7-2.8-9.7-4.4-14.7c-1.6-4.9-1.5-11.6-1.3-15.2c0.3-4.9-1-8.3-0.3-12.3c1.5-8.2,1-19.1-2.8-27.3
			c-2.5-5.2-6.8-8.5-11.2-11.4c-1.8-1.1-3.5-2.2-5.3-3.4c-3-0.2-6.1-0.4-9.1-0.6c-7.7,4.2-13.3,7.3-15.6,16.4
			c-2.8,10.9,1.3,26,3.8,36.7c4.6,19.4-0.8,39.7-10.6,47.9c-13.8-4.6-32.3-4.9-46.4-2.6c-6.3,1-13.5,2.6-15.5,7.3
			c-1.4,3.3-2,9.7,0.1,14.4c1.2,2.9,3.8,6.5,2.2,10.2c-3.2,7.1-15.9,5.5-16.6,15.8c-0.6,7.2,11.6,15.9,13.4,22.6
			c1.5,5.4-5.9,11.9-5.2,16.1c0.7,4,2.5,7.5,4.8,10.5c1.1,1.5,3.4,2.5,4.2,4.4c0.6,1.3,0.2,2.9,0.2,4.1c-0.1,4.4,1,14.9,3.7,18.1
			c1.3,1.6,6.9,5.9,9.2,5.7c0.8-0.1,0.8,0.9,1.6,1.3c0.8,0.6,2-0.4,2.3-0.2c2,0.7,3.8,1.4,5.8,2.1c7.3,1.5,16.4,2.2,24.4,1.5
			c1.8,0,3.5,0.1,5.4,0.1c2.9-0.7,5.7-1.3,8.6-2c2-0.2,4.3,1.4,7.2,0.7c2.9-0.6,16.1-4,16.5-3.9c25.8,7.1,50.3,19.9,69.3,36.4
			c0.4-0.1,0.8-0.1,1.2-0.2c0.1-0.4,0.2-0.7,0.4-1c-1.7-2.5-9.7-6.9-12.5-9.1c-4.7-3.7-9.8-6.3-15-9.3c-7.5-4.4-14.7-8.5-23.2-11.5
			c-4.9-1.7-10-5.1-15.6-6c-0.1-0.1-0.1-0.2-0.2-0.4c12.5-2.6,24-10.7,26.9-21.9c0.9-3.5,0.8-9.9,1.3-13.7c0.1-1.1-1.2-3.1-1.1-4.9
			c0.3-4.3,0.7-7.9,1.2-11.9c0.1-0.1,0.2-0.1,0.3-0.2c6.2,8.9,14.6,16.1,22.9,22.3c4,2.8,7.9,5.7,11.9,8.5c0.5,0,0.8,0,1.3,0
			c0.1-0.2,0.3-0.5,0.4-0.7c-0.7-2.4-9.4-6.6-11.7-8.3c-6.8-5.6-13.8-11.1-19.8-17.7c-1.4-2.1-2.9-4.3-4.3-6.3
			c-0.1-2.1,1.2-3.6,1.9-5.1c1.1-2.8,2.2-5.6,3.4-8.3c1.9-3.5,5.1-7.4,5.4-12.2c1.6,0.5,12.1,11.9,14.7,13.9c4,3.3,8.5,5.5,12.9,8.3
			c9.7,6.3,17.4,11.3,29.2,14.9c3.2,1,13,5.5,15.6,4.8c0.6-0.7,1.1-1.2,1.7-1.9C545.6,327.9,545.5,327.5,545.3,327.1z M382.4,372.8
			c-1.4-0.2-2.9-0.5-4.3-0.7c-3.7,0.2-8.9-0.2-12.1-1c-3.8-1-6.4-2.8-9.5-4.5c-2.5-1.3-5.8-0.7-7.8-3.2c-3.5-4.2-2-9.1-3-13.8
			c-0.3-0.7-0.5-1.3-0.7-2.1c0.2-1,0.7-4,0.1-5.4c-1.8-3.9-10-8.9-9.1-15.1c0.6-4.2,6.5-10.4,5.2-15.8c-1.8-7.7-11.1-12.9-13.3-21.2
			c-1.9-7.4,13.3-10.3,15.8-15c3.7-7.4-5.8-16.2-1.9-25c3-6.6,15.4-5.7,22.9-7.8c2.7-0.1,5.3-0.3,8-0.4c21-0.2,40.9,5.9,52.7,19.1
			c3.2,3.5,8.4,9.7,7,16.9c-0.7,3.4-3.3,8.7-6.2,9.9c-1.7,0.7-12.4-3.9-14.9-4.9c-7.7-3-17.5-3.8-25.8-5.7c-2.8-0.4-5.6-0.7-8.3-1.1
			c-2.1-1.6-4.2-3.3-6.3-4.9c-0.4-0.1-0.7-0.1-1.1-0.2c0,0.1-0.1,0.1-0.1,0.2c0.6,1.4,1.5,2.5,2.7,3c0.3,0.4,0.7,0.7,0.9,1
			c-1.7-0.3-3.4-0.7-5-0.9c-0.2,0.4-0.5,0.8-0.7,1.2c4.9,3.4,13.1,2.3,19.2,3.8c7.7,1.9,15,2.4,22,4.7c4,1.5,7.9,3,11.9,4.5
			c2.1,0.7,5.2,1.1,6.8,2.6c2.3,2.3,9.6,10.5,9.1,14.8c-0.4,3.7-1.2,7.8-3.5,10.4c-2.4,2.8-8.3,3.1-13,2
			c-10.1-2.3-19.6-3.5-28.8-5.8c-4.8-0.6-9.5-1-14.3-1.6c-1.2,0-2.4-0.1-3.6-0.1c-1.6-0.7-2.7-2.8-4.9-3.2c-0.1,0-0.1,0-0.2,0
			c-0.2,0.6-0.2,0.9,0.1,1.7c0.3,0.2,0.5,0.5,0.7,0.7c-0.7,0-1.4,0-2.1,0c-0.2,0.1-0.3,0.1-0.5,0.2c0,0.5,0,0.9,0,1.4
			c4.3,2.6,10.2,0.7,15.7,1.7c10.5,1.9,22.4,3.6,31.7,6.2c1.4,0.2,2.8,0.3,4.2,0.5c2.7,0.6,8.2,4.3,8.6,7.7
			c1.2,13.4-8.1,13.9-18.1,15.1c-2.6,0.1-5.2,0.2-7.8,0.3c-1.8-0.2-3.6-0.4-5.4-0.7c-4.9,0.4-8.9,0.7-13.3,0.1
			c-5.8-0.7-11.6,0.7-17.3-0.4c-0.2,0.1-0.4,0.2-0.6,0.4c0,0.5,0,0.9,0,1.4c0.9,0.6,1.5,0.7,2.6,0.7c-0.7,0.8-1.6,1.6-2.3,2.4
			c0,0.3,0.1,0.6,0.1,0.8c0.1,0.1,0.2,0.1,0.4,0.2c1.7-0.4,2.5-1.9,3.9-2.4c0.7-0.3,2.4-0.4,3.1-0.7c2.6-1.3,10.4,0.1,12.8,0.2
			c3.8-0.2,7.7-0.3,11.5-0.5c4.1,0.7,11,1.4,15.8,0.4c1.9,1.3,5.3,3.1,6.5,5.2c4.3,7.7-5.4,16.2-9.3,18.4
			C400.7,372.8,392.9,371.8,382.4,372.8z M430.6,290.6c-0.3,0-0.6,0-0.7,0c-0.1-0.2-0.2-0.4-0.2-0.5c0.3,0.1,0.6,0.1,0.8,0.2
			C430.4,290.4,430.5,290.5,430.6,290.6z M431,320.2c-0.2,0.5-0.4,0.9-0.7,1.4c-0.5,0-0.8,0-1.3,0c-0.1-0.1-0.1-0.1-0.2-0.2
			c0-0.3-0.1-0.6-0.1-0.8c0.5-0.1,1-0.3,1.5-0.4C430.6,320.2,430.8,320.2,431,320.2z M471.1,284.4c-2,10-7.5,17.3-10.9,26.2
			c-0.6,0.8-1,1.6-1.6,2.4c-2.9,9.2-0.3,23.1-2.3,33c-0.7,3.1-2.7,4.9-3.9,7.3c-5.4,9.9-15.4,10.8-25.7,14.5
			c-5.2,1.9-12,3.7-18.1,3.9c0-0.1,0-0.1,0-0.2c6.8-5,17.8-12,10.4-24.5c0.8,0,1.2-0.1,1.5-0.7c0.2-0.4,0.6-2.1,0.4-3.4
			c0.1,0.4,0.2,0.7,0.3,1.2c1.9,0.4,1.5,0.8,3,1.5c0.2-0.4,0.3-0.7,0.5-1.2c0.8-0.1,0.9,0.1,1.7,0.5c0.2-0.1,0.3-0.1,0.5-0.2
			c0.3-0.6,0.4-0.6,0.3-1.5c0-0.1,0-0.1,0-0.2c-1-0.6-2.2,0.7-2.6,0.7c-2,0-1.1-0.7-2.5-1.1c0.9-1.1,2.8,0.6,3.6-0.8
			c-0.1-0.7-0.2-1.2-0.3-1.9c0.8-1,1.8-2.1,2.6-3.1c1-2.1,1.3-4.9,1.6-7.5c0.3-2.2-1.2-3.6-0.9-6.1c0.6,0.1,1.1,0.2,1.6,0.3
			c1.2-0.5,2-1.6,3.4-2.1c0.1-4,1.5-4.1,4-5.4c-0.1,0.9,0.3,1,0.8,1.7c0.3,0,0.7,0,0.9,0c0-0.5,0-0.9,0-1.4c-0.4-0.2-0.7-0.4-1-0.5
			c-0.7,0-0.9-0.9-1.5-1.7c1.9-4.9,2.7-12-1.8-16.7c0-0.9,0.1-0.8,0.5-1.4c-0.7-0.7-2-0.7-2.6-1.7c-0.1-0.1-0.3-0.2-0.4-0.4
			c0.1,0,0.2,0,0.3,0c0.7-0.8,1.1,0.4,2.1,0.2c0.1,0,0.2,0,0.3,0c0-0.4-0.1-0.7-0.1-1c-0.3-0.3-0.5-0.6-0.7-0.8
			c-0.3,0.2-0.6,0.5-0.8,0.7c-0.3-0.5-0.7-1-1-1.5c0.4-0.4,0.7-0.7,1.1-1c-0.6-2.1-0.6-3.3-0.6-5.4c0-0.1,0-0.1,0-0.2
			c-0.7-0.4-0.9-0.6-1.8-0.3c0.1-1.4,0.9-1.9,1.2-3.1c0.2-0.1,0.3-0.2,0.5-0.4c0.1,0,0.1,0,0.2,0c-0.2,0.5-0.3,0.9-0.5,1.4
			c0.5,0.6,0.6,0.7,1.4,0.8c0.8-0.7,0.6-1.1,0.8-2.2c-0.3-1.1-0.5-1.1-1.6-1.2c0.2-2.5,0.6-5.1,0.3-7.9c0.6,0.3,0.7,0.5,1.7,0.5
			c0.2-0.6,0.3-0.8,0-1.5c-0.7-0.1-1,0-1.7,0.2c-0.1,0-0.1,0-0.2,0c-3.5-9.1-8.8-16.1-16.1-20.2c-2.3-1.3-12-5.4-13.1-7.2
			c3.5-2,9.8-14.7,10.1-19.9c0.2-0.1,0.3-0.2,0.5-0.4c0.2,2.9,1.6,15.4,3.5,17.3c0.2-0.1,0.3-0.1,0.5-0.2c0.6-4.2-1.5-9.5-1.8-14.4
			c-0.2-4-0.4-8-0.6-12c0.1,0,0.2,0,0.3,0c2.6,9.6,7,18.7,10.7,26.6c0.2,0.1,0.5,0.2,0.7,0.4c0.1-0.1,0.2-0.1,0.3-0.2
			c0.1-3.2-2.8-7-4.1-9.8c-2.2-4.9-3.6-10.6-5.4-15.4c-2.7-7.1-2.7-13.8-4.7-20.9c-1.6-5.5-3.8-12.5-3.7-17.1
			c0.1-8.6-1.7-16.1,1.1-22c2.6-5.5,7.5-7.2,12.4-10.6c6.6-0.1,10,2,14.2,5.1c14.5,10.6,10.7,32.5,10.1,50.2
			c-0.3,7.1,2.9,13.9,2.5,21.5c-0.4,8.3-0.6,17.5-1.9,25.3c0,0.2,0,0.4,0.1,0.5c0.3,0,0.6,0,0.7,0c1.9-3.8,3.5-16.7,2.5-22.2
			c0-0.2,0.1-0.4,0.1-0.5c2.1,2.1,3.6,8.8,5.1,11.8C462.6,247.4,473.7,271.6,471.1,284.4z M431.8,233.8c-0.4-0.2-0.7-0.5-1-0.7
			c0,0.1-0.1,0.2-0.1,0.4c-0.3,0.3-0.6,0.8-0.2,1.4c0,0.1,0,0.2,0,0.4c0.3,0,0.6,0,0.7,0C431.5,234.8,431.6,234.3,431.8,233.8z
			 M423.4,245.1c-0.2,0.1-0.4,0.2-0.6,0.4c0,0.3,0,0.6-0.1,0.8c0.2,0.3,0.4,0.6,0.6,0.8c0.2,0.1,0.4,0.1,0.5,0.2
			c0.6-0.6,0.8-0.9,0.4-2.1C424,245.2,423.7,245.1,423.4,245.1z M413.5,275.7c-1.2-9.7,0.7-13,2.5-19.9c-0.2-0.1-0.5-0.2-0.7-0.4
			c-3,5.2-4.7,11.4-3.2,19.7C412.7,275.4,413.2,275.6,413.5,275.7z M429.8,258.3c-0.2,0.1-0.4,0.1-0.7,0.2c0,0.4,0.1,0.7,0.1,1
			c0.6,0.7,0.7,0.5,1.6,0.3c0-0.2,0.1-0.4,0.1-0.5C430.6,258.7,430.5,258.6,429.8,258.3z M439.7,260.2c0.2-0.4,0.3-0.8,0.5-1.2
			c-0.6-0.2-1.1-0.5-1.7-0.7C438.3,259.2,438.5,260.1,439.7,260.2z M420.6,279.5c1.2-6.2,3.3-9.9,0-17.5c-0.3-0.1-0.6-0.2-0.8-0.4
			c-0.2,0.3-0.4,0.6-0.6,0.8c3,5.6,1.6,12.3,0.2,16.8C420.1,279.7,420,279.6,420.6,279.5z M439.6,271.8c0.3-0.7,0.5-1,0.4-2.1
			c-0.2-0.1-0.4-0.2-0.6-0.4c-0.3-0.1-0.7-0.1-0.9-0.2c-0.1,0.3-0.3,0.6-0.4,0.8c0,0.1,0,0.1,0,0.2c0.1,0.7,0.3,1.2,0.4,1.9
			C438.9,272.1,439.2,272,439.6,271.8z M436.4,275.1c-0.1,0.2-0.3,0.5-0.4,0.7c0,0.3,0.1,0.6,0.1,0.8c0.4,0.1,0.7,0.1,1.1,0.2
			c0.1-0.2,0.3-0.4,0.4-0.5c0-0.2,0.1-0.4,0.1-0.5C437.2,275.2,437.3,275.2,436.4,275.1z M436.5,279.5c0.1-0.3,0.3-0.6,0.4-0.8
			c-0.1-0.2-0.2-0.4-0.2-0.5c-0.7-0.1-1.5-0.2-2.2-0.3c0.2,0.4,0.3,0.7,0.5,1C435.4,279.3,435.5,279.5,436.5,279.5z M437.3,283.8
			c-0.3,0.4-0.6,0.7-0.8,1c0.1,0.2,0.3,0.5,0.4,0.7c0.3,0.1,0.6,0.2,0.8,0.4c0.2-0.1,0.3-0.1,0.5-0.2c0.1-0.4,0.1-0.7,0.2-1.2
			C438,284,437.9,284,437.3,283.8z M436.3,287c-0.5-0.7-0.9-1.3-1.4-2.1c-0.3,0-0.7,0-0.9,0c-0.1,0.2-0.3,0.4-0.4,0.5
			c0.3,1,0.7,1.5,1.5,1.9c0.4,0.3,0.4,0.4,0.8,0.2C436,287.3,436.1,287.1,436.3,287z M441.4,288.3c-0.1,0.1-0.2,0.1-0.3,0.2
			c0,0.2-0.1,0.5-0.1,0.7c0.2,0.2,0.4,0.5,0.6,0.7c1.1-0.1,1.2-0.2,1.5-1c-0.1-0.1-0.1-0.2-0.2-0.4
			C442.3,288.4,441.8,288.4,441.4,288.3z M434.4,290.4c0.3,0,0.7,0,0.9,0c0-0.5,0.1-1,0.1-1.5c-0.7-0.1-1.3-0.2-2-0.3
			C433.8,289.1,434.1,289.8,434.4,290.4z M412.8,312.9c0-2.8-1.3-5.6-0.9-9c0.3-3.5,1.8-6.8,1.8-10c-0.3-0.1-0.6-0.1-0.8-0.2
			c-2.4,4.2-3.5,14-1.1,19C412.1,313,412.1,313.1,412.8,312.9z M437.2,294.4c-0.1,0.3-0.3,0.6-0.4,0.8c0,0.1,0,0.1,0,0.2
			c0.2,0.2,0.4,0.4,0.6,0.5c0.4-0.1,0.7-0.1,1.1-0.2c0.1,0,0.2,0,0.3,0c-0.2-0.4-0.3-0.7-0.5-1C438,294.6,437.6,294.5,437.2,294.4z
			 M422.2,310.9c1.1-4.8,2.1-8.7,0.9-15.4c-0.5-0.2-0.8-0.4-1.3-0.5c0.3,2.1,0.5,4,0.7,6.1c-0.4,3.3-0.7,6.4-1.1,9.7
			c0.1,0.1,0.2,0.1,0.4,0.2C421.9,310.9,422.1,310.9,422.2,310.9z M442.9,314.9c0.3,0.2,0.5,0.5,0.7,0.7c0.3-0.5,0.6-0.9,0.7-1.4
			c0-0.3-0.1-0.6-0.1-0.8c-0.5-0.1-0.8-0.1-1.3-0.2C442.8,313.7,442.8,314.3,442.9,314.9z M436.3,320.8c-0.2,0.1-0.4,0.2-0.6,0.4
			c-0.2,0.1-0.3,0.2-0.5,0.4c0.2,0.7,0.1,0.5,0.5,0.8c0.4,0.3,0.5,0.3,0.9,0C437.5,321.9,437.2,321.2,436.3,320.8z M407.8,339.2
			c0.2-0.1,0.3-0.1,0.5-0.2c1.4-1.1,0-4.7,0.3-6.6c0.5-2.8,2.1-6.2,1.8-9.3c-0.3-0.1-0.6-0.1-0.8-0.2c-1.7,2.5-3.4,11.8-2.3,14.9
			C407.2,338.7,407.4,338.7,407.8,339.2z M416,324.5c-1.5,4.2-1.1,8.4-2.7,12.2c0,0.2,0,0.4,0.1,0.5
			C416.3,337.1,418.7,324.8,416,324.5z M429.6,326.3c0.4,0.1,0.7,0.2,1.1,0.4c0.1-0.1,0.2-0.1,0.3-0.2c0-0.5,0.1-1,0.1-1.5
			c-0.5-0.2-0.8-0.4-1.3-0.5C429.8,325.1,429.7,325.7,429.6,326.3z M433.6,328.1c0-0.2-0.1-0.5-0.1-0.7c-0.5-0.1-0.8-0.1-1.3-0.2
			c-0.2,0.2-0.4,0.4-0.6,0.6c0.1,0.2,0.2,0.4,0.2,0.5c0.1,0.2,0.3,0.4,0.4,0.5c0.3,0,0.7,0,0.9,0
			C433.3,328.6,433.5,328.4,433.6,328.1z M461.7,330.5c-0.1,0.4-0.1,0.7-0.2,1.2c6.9,3.7,13,8.3,19.4,12.5c2.9,2,7.2,3.5,9.3,6.3
			c0.6-0.1,1-0.1,1.6-0.2c0-0.5,0-0.9,0-1.4c-5.8-5-13.5-8.3-20.1-12.9C468.9,334.2,465.7,330.5,461.7,330.5z M430.2,333.1
			c0.1,0.2,0.2,0.5,0.3,0.7c0,0.1,0,0.2,0,0.4c0.3,0,0.7,0,0.9,0c0.2-0.2,0.4-0.4,0.6-0.6c0-0.3-0.1-0.6-0.1-0.8
			c-0.4-0.2-0.7-0.4-1.2-0.5C430.4,332.5,430.3,332.8,430.2,333.1z M434.2,335.4c-0.3,0.5-0.2,0.2-0.2,0.7c-0.1,0.1-0.2,0.1-0.3,0.2
			c0.4,0.3,0.7,0.6,1,0.8c0.7-0.1,0.7,0,0.8-0.6c0.3-0.5,0.1-0.3-0.1-1C435.1,335.5,434.6,335.5,434.2,335.4z M429.8,337.8
			c-0.2,0-0.3,0-0.5,0c-0.2,0.1-0.4,0.2-0.6,0.4c-0.1,0.4,0.1,0.1-0.1,0.4c0.3,0.5,0.6,0.9,0.8,1.3c0.7,0,1-0.1,1.4-0.6
			c0.3-0.4,0.1,0,0.1-0.5C431,338.5,430.2,338.1,429.8,337.8z M425.5,347.5c0.2,0.1,0.4,0.1,0.5,0.2c0.3,0,0.7,0,0.9,0
			c-0.1-0.7-0.2-1.2-0.3-1.9c-0.6-0.1-1-0.1-1.6-0.2C425.1,346.5,425.2,346.7,425.5,347.5z M423,346.4c-0.6-0.1-1.1-0.2-1.6-0.3
			c0,0.5,0,0.9,0,1.4C421.8,347.6,423.9,347.7,423,346.4z M404.4,348.9c-3.5,4-6.5,10.6-5.2,17.6c0.1,0.1,0.1,0.2,0.2,0.4
			c0.4,0,0.7,0,1.1,0c0.2-4.4-0.2-7.9,1.6-11.4c0.9-1.8,3.1-3.9,2.8-6.6C404.7,348.9,404.5,348.9,404.4,348.9z M421.3,350.6
			c0.2,0.2,0.4,0.4,0.6,0.5c1.1-0.1,1.4-0.5,2.1-0.8c0-0.1,0-0.1,0-0.2c-0.4-0.3-1-0.6-2.2-0.5C421.4,350.1,421.4,349.9,421.3,350.6
			z M425.9,352.8c0,0.4,0.1,0.7,0.1,1c0.2,0.1,0.5,0.1,0.7,0.2c0.3-0.3,0.6-0.6,0.8-0.8c0-0.2-0.1-0.5-0.1-0.7
			c-0.5-0.1-0.8-0.1-1.3-0.2C426,352.5,426,352.6,425.9,352.8z M409.4,353c-0.2-0.1-0.5-0.2-0.7-0.4c-0.8,1.2-0.4,3.8-0.7,5.4
			c-0.8,2.2-1.8,4.4-2.6,6.6C407,366.8,410.9,357.2,409.4,353z M348.9,368.8c0.1,0.2,0.3,0.4,0.4,0.5c0.1,0,0.1,0,0.2,0
			C349.1,368.7,349.6,369.1,348.9,368.8z"/>
	</g>
</g>
<ellipse class="st1" cx="402.8" cy="391" rx="55.5" ry="7"/>
</svg>
