<?xml version="1.0" encoding="utf-8"?>
<!-- Generator: Adobe Illustrator 21.0.0, SVG Export Plug-In . SVG Version: 6.00 Build 0)  -->
<svg version="1.1" id="Calque_1" xmlns="http://www.w3.org/2000/svg" xmlns:xlink="http://www.w3.org/1999/xlink" x="0px" y="0px"
	 viewBox="0 0 841.9 595.3" style="enable-background:new 0 0 841.9 595.3;" xml:space="preserve">
<style type="text/css">
	.st0{fill:#DADADA;}
	.st1{fill:#FFFFFF;}
	.st2{fill:#1D1D1B;}
</style>
<circle class="st0" cx="412.5" cy="278.5" r="62.6"/>
<circle class="st1" cx="407.3" cy="304.3" r="62.6"/>
<g>
	<g>
		<path class="st2" d="M542.5,340c1.7,0.1,2.4-1.8,5.5-0.6c0.7,0.3,7.2,0.2,7.2,0.1c0.2,0.1,0.4,0.2,0.6,0.4
			c0.3,0.2,3.7,0.8,4.5,0.5c0.5-0.3,0.5-0.4,0.6-1c-1.8-3.5-11.7-4.9-16.1-6.1c-1.4-0.4-1.8-1.9-3.4-2.2c-3.4-0.9-6.3,0-9.9-0.4
			c-1.7-0.2-3.4-0.4-5.1-0.6c-3.9,0.2-8.6,0.4-12.5-0.2c-1.2,0-2.3-0.1-3.5-0.1c-6.9-3.3-14-6.3-20.4-10c-6.6-3.9-11.9-9-17-14.4
			c-0.9-0.9-1.8-1.8-2.8-2.8c-0.4-0.7-0.8-1.3-1.1-2c-0.4-0.3-0.9-0.2-1.1-0.8c-0.2-2.5-0.4-4.9-0.6-7.4c-0.7-3.7-1.6-7.1-2.5-10.9
			c-3.4-13.9-13.7-27.4-24.5-34c-5-3.1-9.6-4.2-16.2-5.6c-7.6-1.7-17.7-2.1-23.9-1c-5.2,0.9-9.7,1.3-14.1,3c-4.9,2-10,5.1-14,8.1
			c-1.1,0.9-2,2.3-3.1,3.1c-2,1.5-4.2,2.9-5.9,4.8c-2.5,2.7-4.7,5.7-7.4,8.2c-1.5,1.5-3.3,3-4.6,4.6c-4.3,5.2-8.8,11.2-14.4,15.1
			c-2.2,1.5-3.9,4.1-6.1,5.6c-2.1,0.8-4.2,1.7-6.2,2.5c-2.6,1.2-4.9,3.2-7.6,4.2c-4.6,1.8-10.8,2.2-15.8,2.5
			c-0.1,0.5-0.2,0.9-0.4,1.4c-1.9,0-3.5,0.3-4.9,0.6c-4.2,0.2-8.5,0.4-12.8,0.6c-5.6,0.8-13.7,4.3-18.5,6.5
			c-0.2,1.2-0.6,1.7-0.1,2.9c-3.2,0.7-7.7,2.5-10.2,4.1c-1,0.6-1.8,1.6-3,2c-0.3,0.5-0.5,0.6-0.5,1.5c0,0.1,0.1,0.2,0.1,0.2
			c0.8,0.3,2.5-0.2,3.1,0c3.9,1.3,15.3-2.3,18.9-3.2c1.3-0.2,2.7-0.3,4-0.5c0.6,0.4,0.8,0.6,1.1,1.4c-4.6,5.3-11.2,3.8-17.6,6.5
			c-1.8,0.8-2.6,2.3-4.1,3.4c-0.8,0.1-1.7,0.2-2.5,0.4c-0.7,0.5-1.5,0.9-2.2,1.4c-2.7,1.3-7.4,2.3-8.9,4.9c0,0.4,0,0.8,0,1.1
			c0.6,1,8.6,0.2,10.2-0.2c6.2-1.9,16.8-6.4,23.6-3.4c0,0.2,0.1,0.4,0.1,0.6c-3.4,3.8-9.6,3.7-15.1,5.4c-0.6,0.2-2,0.8-2.2,1.4
			c0,0.3,0.1,0.6,0.1,0.9c-0.5,0.5-4.7,1.1-5.6,1.5c-4.9,2.2-9.3,4.7-13.4,7.4c0,0.4,0,0.8,0,1.1c2.7,2.1,7.9-1.2,9.4-0.6
			c3.6-0.7,7.4-2.3,10.8-3.1c1.8-0.5,3.5,0.6,5.2-0.2c4.2-2,8.6-4.4,13-5.1c0.9,0.5,1.5,1.1,1.9,2.1c-1.7,4.9-8.1,6.7-12.5,9
			c-1.2,0.6-4.1,2.5-3,4.1c-0.4,0.8-4.7,3.1-5.6,3.8c-3.4,2.3-7.3,5.3-9.8,8.5c0,0.3,0.1,0.6,0.1,0.9c1.6,0.8,5.8-0.5,7.6-1.4
			c4-1.8,8.7-3.5,12.5-5.8c1,0,2.1,0,3.1,0c1.5-1,3.1-2,4.6-3c1.4-0.8,7.4-4.8,9-3c0.6,0.9-0.2,1.8-0.5,2.4c-2.4,4-4.1,4.5-8.4,6.2
			c-0.1,0-0.2,0-0.2,0c0.1,0.2,0.2,0.5,0.2,0.8c-0.9,0.3-1.8,0.6-2.6,0.9c-0.2,0.6,0,1,0.2,1.5c-0.8,0.5-1.7,1.1-2.5,1.6
			c0,0.3-0.1,0.6-0.1,0.9c-1,0.5-2.1,0.9-3.1,1.4c-0.5,0.8-1,1.6-1.5,2.4c-1.1,0.8-2.2,0.4-2.6,1.9c-0.4,1.4,0.8,2.4,1,3.4
			c0.2,1.1-0.1,2.1-0.2,3.1c-1.4,0.9-2.1-1.7-3.1-2c-1.7-0.5-3,0.9-5,0.9c-0.3-1-0.2-2.9-0.8-3.6c-0.7-1.2-3.2-0.9-3.8,0.2
			c-0.2,0-0.4,0-0.6,0c-0.3-1-0.8-2.6-1.8-3c-1.9-1.5-6.5,1.6-7.6,2.1c-0.4,0.6-0.9,2.1-0.8,2.8c-1.1,0.9-4.5,0.1-6.4,1.2
			c-0.9,0.6-1.5,7.9-1.5,9.5c-1.3,0.7-3.9,0.5-4.6,1.8c-1.8,3.1,0.9,9,2.9,10.5c0.9,0.7,2.1,0.5,2.8,1.4c0.1,0,0.2,0,0.2,0
			c-0.6,0.9-1.6,1.5-2.6,2c-0.2,0-0.3-0.1-0.5-0.1c0.1-0.5,0.2-0.9,0.2-1.4c-0.4,0.1-0.8,0.2-1.1,0.4c-0.2,0.3-0.3,0.6-0.5,0.9
			c0.1,0.3,0.2,0.7,0.2,1c0.8,0.6,2.1,0.8,3.2,0.4c0.9,0.9,1.5,1.3,3.1,1.2c1.4-1.1,2.6-2.8,2.5-5.4c-1.3-1.9-3-1.6-5-2.8
			c-0.3-0.2-2.7-5-2.8-5.5c0-0.1,0.1-0.2,0.1-0.2c1.4-0.3,2.8-0.6,4.1-0.9c0.9-1.3,2.6-3.7,2.1-6.1c-0.2-1.2-0.8-1.9-0.9-3.5v-0.1
			c1.7-1.1,4.8-0.5,6.5-0.4c0.8-0.8,1.5-2.3,1.8-3.6c1.1-0.5,2.2-0.9,3.2-1.4c0.6,0.6,0.9,2.1,1.1,3c1.4,0.8,2.6,0.2,3.9-0.2
			c0.4,1.2,0.8,2.4,1.2,3.6c0.5,0.3,1,0.6,1.5,0.9c1.2-0.1,2.2-1,2.8-1.8c0.9,0.1,4.3,1.9,5,2.5c-0.5,0.6-1.2,0.9-1.8,1.5
			c-0.2,1.3,0.2,2.4,0.5,3.5c0.9,0.7,1.8,1,3,1.1h0.1c0.6-0.9,0.1-1.8,0.6-3.1c0.6-0.4,1.3-0.8,1.9-1.1c0.6-0.9,1.2-1.8,1.8-2.8
			c0-1.6-0.9-2.3-2.1-2.6c0-2,0-4,0-6c0.8-0.3,2.1,0.2,3.1,0c0.4-0.6,0.6-1.4,0.8-2.2l0.1-0.1l6,1.5c0.6,0.3,0.4,0.9,1.2,1.1
			c4.5-3.4,4.8,0.9,9-0.6c0.9-0.3,2.8-2,3.1-2.9c0-0.5,0-1.1,0-1.6c0.5,0,0.9,0,1.4,0c2.6-0.7,7.6-1.1,6.1-4.9
			c0.1-0.1,0.2-0.2,0.2-0.4c0.3,0.9,0.3,1.4,1.4,1.2c0.5,0.1,0.6-0.1,1-0.4c0-0.5-0.1-1.1-0.1-1.6c0.8,0.1,1.7,0.2,2.5,0.2
			c0.4-0.3,0.5-0.7,0.8-1.1c-0.3-0.8-0.4-1.2-1.2-1.5v-0.1c0.2-0.3,0.1-0.3,0.4-0.5c0.2-0.2,0.5-0.5,0.8-0.8c-0.1,0.7,0,1.2-0.2,1.5
			c0.4,0.5,0.6,0.5,1.1,0.8c1.2-0.1,1.1-0.6,1.1-1.5c-0.3-0.3-0.7-0.7-1-1c0-0.1-0.1-0.2-0.1-0.2c0.6-0.4,1.3-0.8,1.9-1.1
			c-0.1,0.5-0.2,1-0.2,1.5c0.2,0.2,0.5,0.4,0.8,0.6c1.6,0.1,1.3-1.4,0.6-2.4c-0.4,0-0.8,0.1-1.1,0.1c0.2-0.5,0.5-1.1,0.8-1.6
			c0.1-0.3,0.9-0.1,1.5-0.1c0.1-0.1,0.2-0.2,0.2-0.2c0-1.2-0.1-2.1-1.4-2.4c0-0.2,0-0.3,0-0.5c0.5,0.1,1,0.2,1.5,0.2
			c0.2-0.2,0.5-0.5,0.8-0.8c-0.1-0.4-0.2-0.8-0.4-1.2c1.6-0.2,1.5,0.6,2.9,0.9c1.7-1.5,6.5-1.2,5-5.9c-0.3-1.1-1.1-1.8-1.4-3.1
			c1.5-2.1,4.9-2.4,6-4c1.6-2.4,0-4.9,0-7.5c0.7-0.3,1.7-0.6,2.5-0.1c0.6,0.6,0.3,1.5,1,2.1c0.2,0.2,0.4,0.3,0.8,0.4
			c0.4-0.3,0.4-0.4,0.5-1c0.5,0.1,0.4,0,0.6,0.2c0.8,0.6,0.3,1.8,1.2,2.4c0.3,0,0.6,0.1,0.9,0.1c0.3-0.6,0.3-0.8,0.2-1.6
			c0.6,0.6,0.6,1.3,1.4,1.8c0.2,0,0.3,0.1,0.5,0.1c0.2-0.3,0.5-0.6,0.8-0.9c0.2,0,0.3,0,0.5,0c0.3,0.5,0.7,1.1,1,1.6
			c1.1,0.4,1.1-0.6,1.9-0.9v-0.1c-0.4-0.5-0.8-1-1.1-1.5c0-0.1,0.1-0.2,0.1-0.4c0.3,0.5,0.7,0.9,1,1.4c0.3,0,0.7,0,1,0
			c0-0.4,0.1-0.8,0.1-1.2c0.5,0.6,0.7,1.1,1.4,1.5c0.7-0.1,0.6,0,0.9-0.5c0.4-0.1,2.4,0.3,3.1,0.2c0.5,0.7-0.3,1.8,0.6,2.6
			c0.4,0.4,0.8,0.4,1.5,0.2c0.1-0.3,0.2-0.6,0.4-0.9c-0.6-1.6-1.3-1.7-1.2-3.8c0.6,0,1.2,0.1,1.8,0.1c0.1-0.4,0.2-0.4,0.1-0.8
			c0.5,0,0.9,0,1.4,0c0.2,0.3,0.5,0.6,0.8,0.9c-0.2-0.2-0.5-0.3-0.8-0.5c-0.2-0.2-0.5-0.2-0.9,0c-0.2,0.2-0.5,0.5-0.8,0.8
			c-0.1,0.4-0.2,0.8-0.2,1.2c0.1,0.2,0.2,0.5,0.4,0.8c0.5,0.2,0.9,0.4,1.5,0.2c0.6,0.1,0.7-0.3,1.1-0.8c1.1,1,1.9,2.3,3,3.4
			c0.5,0,0.4,0,0.9-0.2c1,1,2.5,3,4,3.5c0.1,0.1,0.2,0.2,0.2,0.2c0.7-0.3,0.7-0.5,1.1-1c-0.1-0.4-0.2-0.8-0.4-1.1v-0.1
			c0.4,0,0.8,0,1.1,0c0.5,1.9-0.3,2.9,0,4.4c0.3,0.7,0.7,1.3,1,2c0,0.1-0.1,0.2-0.1,0.2c-0.5,0.3-0.6,0.3-1.4,0.2
			c-0.1,0.6-0.2,1.2-0.4,1.8c0.3,0.3,0.7,0.6,1,0.9c-1.2,8.3,3.1,10.2,10.8,11.6c0.3-0.2,0.7-0.3,1-0.5c0.1-0.4,0.2-0.8,0.2-1.1
			c-1.4-3-4-2.4-7.1-3.6c-0.7-0.5-1.4-1.1-2.1-1.6c0.1-3-0.1-6.3,2.1-7.6c0.7-0.4,4.2-0.1,5,0.2c0.4,0.5,0.4,1.5,0.8,2.1
			c0.5,0.2,0.7,0.3,1.1,0c0.1,0,0.2-0.1,0.4-0.1c-0.1-0.8-0.2-1.6-0.2-2.4c0-0.1,0.1-0.2,0.1-0.4c0.1,0,0.2-0.1,0.4-0.1
			c0.6,3.6,0.1,3.5,2.9,5.8c0.7,0.5,0.4,1.1,1.4,1.5c0.1-0.1,0.2-0.2,0.4-0.4c0.3-0.7,0.1-1.3-0.1-2c0.6,0.2,0.5,0.1,1.1,0
			c0.5,1,0.8,2.4,1.2,3.5c0.3,0,0.7,0,1,0c0.4-0.3,0.4-0.5,0.4-1.2c1,0,1.9,0.1,2.9,0.1c0.3,0.5,0.7,0.9,1,1.4c0.2,0,0.5,0,0.8,0
			c0.3-0.6,0.5-1.5,0.4-2.2c1.3,0.6,1.3,2.7,2.2,3.8c2.2,2.4,7.3,1.6,7.9,5.8c1,0,1.3,0,1.6-0.6c0.4,0.3,0.4,0.6,0.5,1.1
			c0.4,0.1,0.8,0.2,1.1,0.2c0.2,0,0.3-0.1,0.5-0.1c0.1-0.7-0.1-1.5,0.4-2c0-0.1,0-0.2,0-0.2c0.1,0.3,0.2,0.7,0.4,1
			c0.2,0.1,0.4,0.2,0.6,0.2c0.7-0.3,1.2-0.5,1.2-1.5h0.1c0.3,0.7,1.1,0.7,1.4,1.2c0.4,0.8,0.1,1.2,0.6,1.9c0.2,0,0.5-0.1,0.8-0.1
			c0.4-0.7,0.3-1.4-0.1-2.1c0.3-0.7,0.1-0.6,1.1-0.6c0-0.2,0.1-0.5,0.1-0.8c0.2-0.1,0.3-0.2,0.5-0.4c0.2,0.1,0.3,0.2,0.5,0.4
			c0,0.8-0.3,1.5-0.1,2.6c1.3,0.1,1.8-0.4,3.5-0.4c0.1-0.3,0.2-0.7,0.2-1c0.4,0.3,0.4,0.9,0.5,1.6c0.2,0.1,0.3,0.2,0.5,0.4
			c1.4-0.1,2.1-0.9,2.4-2.1c-0.2-0.2-0.4-0.4-0.6-0.6c0.5,0,1,0.1,1.5,0.1c0.3,1.1-0.6,2-0.6,3.2c0.2,0.2,0.5,0.4,0.8,0.6
			c0.2,0,0.5-0.1,0.8-0.1c0.6-0.4,1.1-2.3,0.9-3.1c0.8-0.2,1.9-0.1,2.2-1.1c0.1,0,0.2-0.1,0.2-0.1c-0.3,0.9-0.6,1.6,0.2,2.1
			c0.2,0,0.5,0.1,0.8,0.1c0.3-0.3,0.7-0.6,1-0.9c-0.2-0.6-0.3-0.9-0.6-1.4c0.6,0.1,0.9,0.1,1.2-0.4c0.4-0.4,0.2-1.2,0-1.8V363
			c0.1,0,0.2,0.1,0.4,0.1c0.3,1.2-0.1,1.7,0.1,2.8c0.1,0.1,2.6,2.2,3,2.4c0.1,0.5,0.2,0.9,0.2,1.4c0.1,0.1,0.2,0.2,0.2,0.4
			c0.9,0,1.1-0.1,1.4-0.8c1.5,0.6,3.1,1.2,4.6,1.8c0.1,0,0.2,0.1,0.2,0.1c-1.1,1.1-3,0.8-4.4,1.6c-3.8,2.4-1.5,6.7,1.6,8.1
			c-0.1,1.3-0.6,2.4-0.4,3.5c0.7,0.5,1.3,0.9,2.4,1c0.6-0.4,1.5-0.8,1.9-1.5c2.4-2.8-2.7-6.3-4.5-7.1c0-0.1,0-0.2,0-0.2
			c1.2-1.2,4-0.9,5.2-2c3.1-2.7,1.2-6.4-2.5-7.1c-0.1-0.9,0-1.4-0.8-1.9c-0.9,0.1-0.9,0.4-1,1.2h-0.1c-0.1,0-0.2-0.1-0.2-0.1
			c0.1-0.3,0.2-0.7,0.2-1c0.2-0.2,0.3-0.3,0.5-0.5c0.9,0.2,1.8,0.4,2.8,0.6c0,0.5,0,1.1,0,1.6c0.2,0.2,0.4,0.3,0.6,0.5
			c0.2,0,0.4-0.1,0.6-0.1c0.2-0.2,0.3-0.5,0.5-0.8c0-0.5-0.1-0.9-0.4-1.1c0.2-0.5,0.3-0.5,0.8-0.8c0.2-0.1,0.3-0.2,0.5-0.2
			c0.1,1.5,1,1.1,1.9,0.9c0-2.2-1.4-2.9-0.4-5.2c0-0.1,0-0.2,0-0.2c1.1,0.8-0.3,2.4,1.8,2.9c0.2-0.2,0.5-0.3,0.8-0.5
			c0.1-0.6,0.1-1.2-0.1-1.8c1.9,0.1,1.7,1.1,2.6,2.1c0.3,0.2,0.4,0.2,1,0.2c0.1-0.2,0.2-0.3,0.2-0.5c0.4-0.5,0.2-1.2,0-1.8
			c0.7-0.9,2.5-2.3,3.9-2.5c-0.2,0.5-0.3,1.1-0.5,1.6c0.3,0.4,0.7,0.6,1.2,0.4c0.4-0.2,0.4-0.3,0.6-0.8c0-0.2-0.1-0.5-0.1-0.8
			c-0.3-0.5-0.4-0.6-1.1-0.6c0.9-0.2,1.8-0.3,2.8-0.5c0,0.1,0.1,0.2,0.1,0.2c-0.5,1.5-0.6,4.3,1.4,3.6c0.2-1.2,0.5-3.4,0.2-4.2
			c0.2-0.2,0.3-0.3,0.5-0.5c0.2,0.9,0.6,0.9,0.6,2.2c0.5,0.3,0.6,0.3,1.1,0.2c-0.4,0.7-0.8,1.7-1.2,2.6c0.2,0.1,0.6,0.3,0.9,0.4
			c0.4-0.1,0.8-0.2,1.1-0.4c0-0.3,0.1-0.7,0.1-1c0.4,0,0.8,0.1,1.2,0.1c0.3-0.5,0.5-0.6,0.6-1.4c0.2,0,0.5,0.1,0.8,0.1
			c-0.2,0.6-0.3,1.4-0.1,2.1c0.2,0.1,0.5,0.2,0.8,0.2c0.2,0,0.3,0,0.5,0c0.3-0.9,0.5-1.9,1.2-2.4c-0.1,0.4-0.2,0.8-0.2,1.2
			c0.2,0.2,0.3,0.3,0.5,0.5c0.7,0,0.8-0.1,1.2-0.4c0.1,0.3,0.2,0.6,0.4,0.9c0.2-0.1,0.5-0.2,0.8-0.4c0,0.4-0.1,0.8-0.1,1.1
			c0.2,0.2,0.3,0.3,0.5,0.5c0.8-0.1,0.8-0.3,1.4-0.5c0.2,0.2,0.3,0.4,0.5,0.6c1-0.4,1.1-1.1,2-1.4c-0.1,1.1-0.1,1.8-0.1,3.4
			c0.4,0.1,0.8,0.2,1.1,0.2c0.2-0.3,0.4-0.7,0.6-1c-0.2-0.4-0.3-0.8-0.5-1.2c0.4-0.1,0.8-0.2,1.2-0.4c0.3-0.6,0.7-2.1,0.9-2.8
			c0.8-0.4,2.2-0.6,3.4-0.6c0.8,0.7,0.9,1.4,1.2,2.4c2.1,0.3,3.3,0.9,5,2.1c2.1,0.7,4.6-1.2,7.5-0.9c-0.2,1-0.2,1.5,1,1.5
			c0.2-0.2,0.3-0.5,0.5-0.8c0.1,0,0.2-0.1,0.2-0.1c0.5,0.5,1,0.9,1.5,1.4c0,0.2,0.1,0.3,0.1,0.5c-0.3,0.1-0.7,0.2-1,0.4
			c0,0.6,0.1,1.2,0.1,1.8c0.1,0,0.2,0.1,0.4,0.1c0.8-0.4,0.7-0.7,1.2-1.4c1.6,0.6,2.8,1,4.6,0.4l0.1,0.1c-0.1,0.6-0.2,1.3-0.4,1.9
			c0.6,0.4,1.1,0.5,1.8,0.1c0,1,0.5,2.7,1.1,3.1c0.8-0.5,1-0.7,1.1-1.5c0.2,0,0.4,0,0.6,0c0.2,1-0.2,1.5,0.9,2
			c0.5-0.3,0.7-0.3,0.9-1c0.1,0.1,0.2,0.2,0.2,0.2c-0.2,0.4-0.4,0.8-0.6,1.1c-0.9,0.5-0.5,0.3-1.2-0.4c-0.2,0.2-0.5,0.4-0.8,0.6
			c-0.2,1.4,0,2.1-0.2,3.4c0.3,0.2,0.7,0.4,1,0.6c-0.8,0.6-1.2,1.1-1.1,2.5c0.2,0.2,0.5,0.4,0.8,0.6c0,0.2,0,0.5,0,0.8
			c-0.1,0-0.2,0.1-0.2,0.1c-0.4-0.7-0.7-0.7-1.6-0.5c-0.2-0.7-0.3-1.5-0.5-2.2c0.4-0.5,0.6-0.9,0.9-1.5c-0.1-0.2-0.2-0.5-0.2-0.8
			c-0.1-0.1-0.2-0.2-0.2-0.2c-0.3,0.1-0.7,0.2-1,0.2c-0.4,0.8-1.2,3.4-0.9,4.1c0.2,0.6,0.8,0.4,0.5,1.5c0.5,1,1.6,1.3,3,1.2
			c0,0.1,0.1,0.2,0.1,0.2c-0.5,0.9-0.8,2,0.2,2.5c0.9-0.3,0.9-0.8,1.6-0.6c1.3-0.7,1.1-2.2,2.5-2.9c0.3,0.3,0.7,0.7,1,1
			c-0.1,0.5-0.2,1-0.2,1.5c0.2,0,0.4,0.1,0.6,0.1c0.2,0,0.5,0,0.8,0c0.1-0.2,0.2-0.5,0.4-0.8c-0.3-1.1-0.6-2.2-0.9-3.2
			c0.2-0.2,0.5-0.3,0.8-0.5c1.5,2.2,0.1,3.3,3.6,4c-0.1,0.6-0.4,1.1-0.2,1.6c0.2,0.4,0.3,0.4,0.8,0.6c0.2,0,0.4,0,0.6,0
			c0.1-0.2,0.2-0.4,0.4-0.6c-0.1-0.5-0.2-1-0.2-1.5c0.7,0,1.5-0.1,2.2-0.1c0.8,0.7,1.7,2,1.9,3.2c-0.4,0.3-0.5,0.6-0.5,1.4
			c0.2,0.2,0.3,0.4,0.5,0.6c0.9-0.1,1.1-0.4,1.4-1c0.7,1,1,2.5,2,3.2c0,0.9,0,1.7-0.4,2.2c-0.4,0.6-2.9,3-3.6,3.2c0,0.4,0,0.8,0,1.1
			l-0.1,0.1c-0.1,0-0.2,0-0.4,0c-0.3-0.3-0.7-0.7-1-1c-0.2-0.8,0.8-1.5-0.1-2.2c0.5-0.6,1.6-1.2,2.2-1.8c0-0.9-0.2-0.9-0.6-1.4
			c-2,0.3-2.1,1.6-4.4,1.9c-0.2,0.4-0.3,0.5-0.4,1.2c1.6,2.1,4.6,6.6,8.1,4.4c0.2-0.1,0.4-0.2,0.6-0.4c-0.1-0.6-0.2-1.2-0.2-1.8
			c1.8-1,3.3-3.8,3.2-6.5c-0.6-0.6-1.3-1.3-1.9-1.9c0.8-1.1,4-2,5.6-1.2c2.3,1.7-1.4,4.4-0.8,5.8c0.4,0.9,1.4,0,1.9,0.1
			c0.5,0.3,1,0.7,1.5,1c1.5,0.5,2.6-1.1,3.6-1.6c0.1,0,0.2,0,0.4,0c0.9,4,7.4,7.2,11.2,7.6c0.6,1.8,0.5,4.5,1.5,5.6
			c1.5,1.8,3.2,1.9,3.8,4.6c-1.8,1-4.4-1.3-7.4-0.5c-0.4,0.6-0.6,1-0.6,2c0.6,0.8,1.6,1.1,1.8,2.1c0.3,0,0.6,0.1,0.9,0.1
			c0.4-0.3,0.8-0.7,1.1-1c1.9-0.9,4.8,2.1,5.9-0.5c0.8-0.4,0.4-0.8,0.6-1.4c1.6-3.9-2.1-5-3.9-7c-1.8-2-0.3-6-1.6-7.9
			c-0.9-1.2-5.9-2-7.6-2.6c-2-0.7-3.9-3.6-5-5.2c-1.3,0.1-2.7,0.2-4,0.4c-1.2-9-11.8-10.8-14.6-18.1v-0.1c4.4,1.5,5.8,3.7,8.9,5
			c3.4,1.4,7.4,2.3,10.2,4.3c0.5,0.4,2.3,1.4,3,1.8c2,1.3,6,2.4,8.9,1.9c0.1-0.2,0.2-0.4,0.4-0.6c-2.6-7.8-15.7-13.9-21.4-20
			c0-0.2-0.1-0.4-0.1-0.6c3.8-0.1,5.4,1.1,8.2,2.5c1,0.5,2.7,1.1,3.9,1.5c1.5,0.5,2.5,0.8,3.6,1.4c1.9,1.1,4.7,1.3,6.4,2
			c2.6,1.1,8.1,2.1,8.6-1.6c-0.3-3.2-4.1-4.2-6.5-5.4c-3-1.6-6.1-3.2-9.1-4.8c-2.4-0.8-4.8-1.7-7.1-2.5c-1.4-0.7-2.6-1.9-3.9-2.6
			c0-0.2,0-0.3,0-0.5v-0.1c2.3-1.4,10.6,1.8,13.2,2.1c2.6,0.4,3.2-1.4,4.6-1.1c3.7,1,7.4,1.3,11,2.4c1,0.3,1.7,0,3-0.2
			c1.2-2.6-3.5-5.1-5-6.1c-1.6-1-5.2-2.7-7-3.2c-0.8,0-1.6,0-2.4,0c-1-0.4-1.6-1.5-2.9-1.9c-4.9-1.4-9.7-1.3-12.8-4.5
			c0-0.2,0.1-0.5,0.1-0.8C534.4,338.2,538.2,339.8,542.5,340z M246.4,336.4v-0.1c3.2-1.3,6.4-2.8,9.8-4.4c0.9,0.1,1.2,1.3,1.5,2
			C254.3,335.5,250.9,335.7,246.4,336.4z M278.8,374.7c-0.3,0-0.7,0-1,0c-1.4,0.1-1.9-0.4-2.2-1.2c-0.1-0.2-0.2-0.3-0.2-0.5
			c0.4-0.4,0.8-0.8,1.2-1.1c0.2,0,0.3,0,0.5,0C277.7,372.8,278.3,373.7,278.8,374.7C278.8,374.6,278.8,374.6,278.8,374.7z
			 M540.9,337.8c0,0.1-0.1,0.2-0.1,0.4c-0.1,0-0.2-0.1-0.4-0.1c0-0.1,0.1-0.2,0.1-0.4c0.1,0,0.2,0,0.4,0
			C540.9,337.7,540.9,337.7,540.9,337.8z M542.4,338.3l-0.1-0.1c0.1-0.2,0.2-0.3,0.2-0.5c0.1,0,0.2,0.1,0.2,0.1
			C542.7,337.9,542.5,338.1,542.4,338.3z M544.7,335c2.9,0.2,11.5,1.8,13.2,3.5c0.1,0.1,0.2,0.2,0.2,0.2c-1,0.7-11.3-1.1-13.5-1.4
			C544.7,336.6,544.7,335.8,544.7,335z M538.3,332.8v-0.1c0.1,0,0.2-0.1,0.2-0.1c0.1,0.1,0.2,0.2,0.4,0.2v0.1c-0.2,0-0.4,0-0.6,0
			C538.3,332.9,538.3,332.8,538.3,332.8z M507.3,329.8c-0.2,0.1-0.4,0.2-0.6,0.2c-0.3-0.2-0.5-0.2-0.8-0.5
			C506.4,329.6,506.8,329.7,507.3,329.8z M507.3,334.9c0.1,0.2,0.2,0.3,0.4,0.5v0.1c-0.4,0-0.8,0-1.2,0c-0.2-0.4-0.4-0.8-0.6-1.1
			C506.3,334.6,506.8,334.7,507.3,334.9z M495.5,357.3c1.3,0.1,2.5,0.2,2.9,1.4c-1-0.2-2-0.5-3-0.8c-0.1-0.2-0.2-0.3-0.2-0.5
			C495.3,357.4,495.4,357.3,495.5,357.3z M491.7,343c1.4,0.1,2.3,0.6,3.6,0.5c0.1,0.2,0.2,0.4,0.2,0.6
			C494.1,344.1,492.2,343.9,491.7,343z M497.9,344.2c0-0.1-0.1-0.2-0.1-0.2C498,344.1,497.9,344,497.9,344.2z M498,345.9
			c0.1,0.4,0.2,0.8,0.2,1.2c-0.8-0.3-1.7-0.7-2.5-1c0-0.2-0.1-0.3-0.1-0.5C496.4,345.7,497.2,345.8,498,345.9z M496.9,354
			c0.2,0.1,0.3,0.2,0.5,0.4c0,0.1,0.1,0.2,0.1,0.4c-0.3,0-0.6-0.1-0.9-0.1c-0.1,0-0.2-0.1-0.2-0.1
			C496.6,354.4,496.7,354.2,496.9,354z M496.7,349c0.2,0,0.4,0,0.6,0C496.9,349.4,497,349.3,496.7,349z M496.5,339.9
			c0.1-0.2,0.2-0.5,0.2-0.8c1.1,0.4,2.2,0.8,3.2,1.2C498.9,340.2,497.7,340.1,496.5,339.9z M499,335.7c-0.1-0.2-0.2-0.3-0.2-0.5
			c1.2,0.3,2.3,0.7,3.5,1c0.3,0.3,0.2,0.1,0.2,0.6C501.1,336.8,499.6,336.5,499,335.7z M501.4,342.2c-0.1,0.2-0.2,0.3-0.2,0.5h-0.1
			c0-0.2,0-0.3,0-0.5C501.2,342.2,501.3,342.2,501.4,342.2z M498.8,348.7c-0.1,0-0.2,0-0.2,0c0.1-0.1,0.2-0.2,0.4-0.4
			c1.6,0.5,3.2,0.6,3.8,2.5v0.1c-0.1,0-0.2,0.1-0.2,0.1C501.3,350.7,499.7,349.4,498.8,348.7z M500.4,354.9c-0.2,0.4-0.2,0.3-1,0.2
			c-0.3-0.8-0.5-1.2-0.9-1.8C499.2,353.9,499.8,354.4,500.4,354.9z M499.5,345.3c0-0.5,0.1-1,0.1-1.5c0.9,0.1,1.8,0.2,2.6,0.4
			c0.2,0.4,0.3,0.8,0.5,1.1c0.1,0.1,0.2,0.2,0.2,0.4C501.2,345.4,501.2,344.9,499.5,345.3z M502.7,339.3c-0.3-0.3-0.2-0.1-0.2-0.6
			c1.5,0.4,2,1.6,3.9,1.8c-0.4,0.6-1.1,0.8-2,0.9C504.4,340,503.4,340,502.7,339.3z M503.8,335.9c0-0.2,0-0.3,0-0.5
			c0.4,0.2,0.5,0.2,0.8,0.5v0.1c-0.2,0-0.3,0-0.5,0C503.9,336,503.9,335.9,503.8,335.9z M503,330.8c0,0.4,0,0.8,0,1.2
			c0.7,0.2,1.5,0.3,2.2,0.5c0,0.1,0,0.2,0,0.4c-1.4-0.2-2.3-0.7-3.2-1.4c0-0.2-0.1-0.5-0.1-0.8C502.3,330.8,502.7,330.8,503,330.8z
			 M499.7,331.4c-0.4-0.2-0.8-0.3-1.2-0.5c0-0.3,0-0.6,0-0.9C499.1,330.4,499.3,330.7,499.7,331.4z M497,329.4
			c0-0.1-0.1-0.2-0.1-0.2c0.1-0.1,0.2-0.2,0.4-0.2c0.3,0.2,0.6,0.4,0.9,0.6c0.1,0.1,0.2,0.2,0.2,0.4
			C497.9,329.7,497.5,329.6,497,329.4z M498.3,326.5c-1.5-0.6-3.7-1.6-4.5-2.9C495.2,324.1,497.5,325.5,498.3,326.5z M494.8,328v0.1
			c-1.2-0.1-2.1-0.6-2.5-1.5C493.3,326.9,494.2,327.4,494.8,328z M496.5,331.4c-0.2,0.3-0.2,0.4-0.2,1c-0.2,0.1-0.4,0.2-0.6,0.4
			c-0.8-0.2-0.8-0.5-1.4-0.8c0.2-0.7,0.3-0.4,0.2-1.2c-0.8-0.2-1.9-0.1-2.4-0.8C493.8,330.3,495.7,330.3,496.5,331.4z M486.9,321.9
			c0.2,0.2,0.4,0.4,0.6,0.6c0,0.1-0.1,0.2-0.1,0.2c-0.2-0.1-0.4-0.2-0.6-0.2c-0.1,0-0.2,0-0.2,0c0-0.1-0.1-0.2-0.1-0.2
			C486.6,322.2,486.7,322,486.9,321.9z M484.8,320.3c0.4,0.2,0.8,0.4,1.1,0.6c0,0.1,0.1,0.2,0.1,0.2c-0.2,0-0.3,0-0.5,0
			c-0.2-0.2-0.5-0.4-0.8-0.6C484.8,320.4,484.8,320.4,484.8,320.3z M482.3,317.7c-1.3-0.5-3.2-2.1-3.9-3.2
			C479.8,315.2,481.3,316.4,482.3,317.7z M480.4,324.7c-0.7-0.1-1.3-0.2-2-0.2c-0.1-0.3-0.2-0.6-0.2-0.9c0.7,0.3,1.4,0.6,2.1,0.9
			C480.3,324.5,480.4,324.6,480.4,324.7z M475.8,310.7c0.7,0.6,1.5,1.3,2.2,1.9c0,0.2,0.1,0.3,0.1,0.5c-0.1,0.2-0.2,0.4-0.4,0.6
			h-0.1c-0.7-0.8-1.4-1.6-2.1-2.4C475.6,311.1,475.7,310.9,475.8,310.7z M471.3,305.9c-0.8-0.4-1.6-1.2-1.9-2.1
			C470,304.5,470.7,305.2,471.3,305.9z M471.3,307.9c-0.1,0.1-0.2,0.2-0.4,0.2c0-0.2-0.1-0.4-0.1-0.6c0.1,0,0.2,0,0.2,0
			C471.1,307.7,471.2,307.8,471.3,307.9z M467.2,302.4c-2.6,2.1-4.7-1.4-5.8-3.4c1.9,0.4,3.5,1,5,1.9
			C466.9,301.2,467,301.8,467.2,302.4z M465.8,297.4c0.1,0,0.2,0,0.4,0c0.1,0.7,0.2,1.4,0.2,2.1
			C465.7,299.2,465.6,298.2,465.8,297.4z M464.8,288c0.2,1.3-0.6,3.2-0.1,5c0.3,1,0.6,1.6,0.6,3c-0.2-1-0.4-2-0.6-3
			c-1.2-4.2-1.8-7.6-2-12.2C463.7,282.3,464.5,285.9,464.8,288z M461.9,283.5c0.1,0.5,0.2,1.1,0.4,1.6c0,0.2,0,0.3,0,0.5
			c-0.5-0.2-1.1-0.4-1.6-0.6c-0.6-1.5-1.2-3-1.8-4.5c0.3-0.4,0.6-0.8,0.9-1.1c-0.2-1-0.3-2.1-0.5-3.1c0.2,0,0.5,0,0.8,0
			c0.2,2.4,0.5,4.8,0.8,7.1C461.2,283.4,461.5,283.5,461.9,283.5z M460.4,274.8h-0.1c-0.4-0.4-0.4-0.5-0.4-1
			c0.2,0.2,0.3,0.3,0.5,0.5C460.4,274.4,460.4,274.6,460.4,274.8z M459.9,272.9c0,0.2,0,0.3,0,0.5c-1.3-1.1-3.9-6.5-4.5-8.6
			C457.2,266.3,458.8,270.6,459.9,272.9z M454.5,266.5c0.7,2,1.8,3.2,2.2,5.4c-0.6-0.5-0.9-1-1.4-1.6c-0.4-0.3-3.4-1.5-4.2-1.8
			c-0.1-0.4-0.2-0.8-0.4-1.2v-0.1c0.5,0.4,1.1,0.8,1.6,1.2c0.2,0,0.5,0,0.8,0c0-0.3,0.1-0.6,0.1-0.9c-0.5-0.5-0.9-0.9-1.4-1.4
			c0.1-0.2,0.2-0.4,0.2-0.6C453.3,265.8,453.3,266.8,454.5,266.5z M451.3,259.5c1.2,1.3,2,3.2,2.5,5.1
			C452.3,264,451.1,261.3,451.3,259.5z M450,260.9c-0.4-0.1-0.8-0.2-1.1-0.2c0,0.1-0.1,0.2-0.1,0.4c1,1.6,2.2,2.4,2.5,4.5v0.1
			c-0.1,0-0.2,0.1-0.2,0.1c-1.1-1.1-2.5-1.4-3.1-2.9c-0.2-0.2-0.3-0.3-0.5-0.5c0.2,0,0.4,0,0.6,0c1-1.1-0.1-3.7-0.6-5.1
			C448.6,258,449.5,259.4,450,260.9z M447.5,255.4c-1.2-0.8-2.4-1.9-4.2-1.8c0.6,1,1.3,2,1.9,3c-2.3-0.8-3.2-3-3.9-5.1
			C443.6,252.5,446.1,253.6,447.5,255.4z M447.2,260.7c-1.9-0.5-2.8-1.1-3.4-3c1.1,0.1,1.5,0.7,2.6,0.6
			C446.7,259.1,447,259.6,447.2,260.7z M441.2,254.7c-1-0.5-3.3-1.3-3.6-2.4C438.9,252.8,440.4,253.5,441.2,254.7z M435.9,248.5
			c0.8,0.9,2.6,1.7,3,2.9c-1.1-0.7-2.6-1-3.2-2.1C435.7,249,435.8,248.8,435.9,248.5z M430.9,245.9c-1.1-0.5-2.3-0.9-3.1-1.6
			C429,244.4,430.3,245.2,430.9,245.9z M418.4,242.3c0.2,0,0.5,0,0.8,0h0.1c0.1,0.1,0.2,0.2,0.4,0.4c0,0.1-0.1,0.2-0.1,0.2
			c-0.4-0.1-0.8-0.2-1.1-0.2C418.4,242.5,418.4,242.4,418.4,242.3z M416.4,244.2c0.2,0,0.3-0.1,0.5-0.1c1.1,0,2.2,0.1,3.2,0.1
			c-0.6,0.5-2.8,0.8-3.5,0.1c-0.1,0-0.2,0-0.2,0C416.4,244.2,416.4,244.2,416.4,244.2z M407,241.7c0.4,0,0.8,0,1.2,0
			c0,0.1,0.1,0.2,0.1,0.2c-0.3,0.5-0.1,0.5-0.8,0.6c-0.2-0.2-0.5-0.4-0.8-0.6c-0.1,0-0.2-0.1-0.2-0.1
			C406.8,241.7,406.9,241.7,407,241.7z M404.5,242.8c0.1,0,0.2,0,0.4,0c-0.2,0.1-0.4,0.2-0.6,0.4C404.4,243,404.4,242.9,404.5,242.8
			z M394.9,244.3c0.1,0,0.2,0,0.2,0c-1,0.5-2,1-3,1.5c-0.2,0-0.3-0.1-0.5-0.1C392.7,245.2,393.8,244.7,394.9,244.3z M383.3,249.2
			c1.7-0.7,4-1.1,5.8-2c0.2,0.1,0.3,0.2,0.5,0.2c-0.5,0.4-0.7,0.2-0.9,1.1c-1.7,0.5-3.5,0.7-5.4,0.9
			C383.3,249.3,383.3,249.2,383.3,249.2z M381,249c-0.1,0.3-0.5,0.7-0.4,1.4c-0.1,0.1-0.2,0.2-0.4,0.2c-0.3-0.1-0.7-0.2-1-0.4
			C379.7,249.5,380.3,249.4,381,249z M376.9,251.3c0.3,0.2-0.4,0.4-0.6,0.5C376.5,251.6,376.7,251.4,376.9,251.3z M377.2,254
			c-0.7,0.3-1.4,0.6-2.1,0.9c0.4-0.4,0.8-0.8,1.2-1.2C376.6,253.8,376.9,253.9,377.2,254z M376.9,255.8c-0.2,0.1-0.3,0.2-0.5,0.4
			c-0.2,0-0.3,0-0.5,0c0.2-0.1,0.4-0.2,0.6-0.4C376.7,255.8,376.8,255.8,376.9,255.8z M375.3,252.3c0.2-0.1,0.4-0.2,0.6-0.4
			c0.1,0,0.2,0,0.2,0c-0.3,0.2-0.6,0.3-0.9,0.5C375.3,252.4,375.3,252.3,375.3,252.3z M374.9,252.5c0.1,0,0.2,0,0.2,0
			c-0.2,0.2-0.5,0.3-0.8,0.5C374.6,252.9,374.7,252.7,374.9,252.5z M374,253c0.1,0,0.2,0,0.2,0c-0.2,0.2-0.3,0.3-0.5,0.5
			C373.9,253.4,373.9,253.2,374,253z M373.4,253.5c0.1,0,0.2,0,0.2,0c-0.2,0.2-0.5,0.4-0.8,0.6C373.1,253.9,373.2,253.7,373.4,253.5
			z M368.2,258.2c0.9,1.1-3.3,3.7-4.2,4.1C365.1,260.6,366.7,259.6,368.2,258.2z M365.2,263.2c0.1,0,0.2,0,0.4,0
			c-0.7,1-1.5,1.6-2.8,2.1h-0.1C363.2,264.1,364.3,263.9,365.2,263.2z M357.9,268.5c-1,1.1-1.9,2.3-2.9,3.4
			C355.6,270.5,356.9,269.5,357.9,268.5z M359.8,270.9c0.1,0,0.2,0,0.2,0c-1.4,1.2-1.7,2.5-4,3C357,272.3,358.1,271.8,359.8,270.9z
			 M350.9,280.7c0.1,0,0.2,0,0.4,0c0.1,0,0.2,0.1,0.2,0.1c-0.2,0.4-0.4,0.8-0.6,1.2c0.1,0.2,0.2,0.3,0.4,0.5
			c0.7-0.1,0.9-0.4,1.4-0.8c-0.5,0.7-0.9,1.4-1.4,2.1c-0.1,0.1-0.2,0.2-0.4,0.2c-0.2-0.5-0.2-0.5-0.5-0.8c-0.7,0.4-1.4,0.8-2.1,1.1
			c-0.1-0.6-0.1-0.6-0.6-0.9C348.2,282.3,350.1,281.9,350.9,280.7z M347.7,281.4c0-0.1,0.1-0.2,0.1-0.2h0.1
			C347.8,281.2,347.7,281.3,347.7,281.4z M351.9,280.3c0.2-0.2,0.4-0.5,0.6-0.8c-0.1-0.7,0.1-0.5-0.5-0.8c0.8-1.5,1.9-2,3.2-3
			c0.1,0,0.2,0,0.4,0C355.3,277.1,353.1,279.7,351.9,280.3z M354.3,272.5c0.1,0.3,0.2,0.7,0.2,1c-1.4,1.5-6,4.8-5.8,7
			c-0.2,0.1-0.4,0.2-0.6,0.4c-0.3-0.4-0.2-0.4-0.8-0.5C349.1,277.4,352.5,275.4,354.3,272.5z M344.9,284.5c0.2,0.1,0.4,0.2,0.6,0.2
			c-0.5,0.7-1.3,1.5-2.1,1.9c-0.3,0.3-0.6,0.6-0.9,0.9c0-0.1-0.1-0.2-0.1-0.4C343.2,286.3,344.1,285.4,344.9,284.5z M335.2,294.2
			h0.1c-0.1,0.1-0.2,0.2-0.2,0.2C335.1,294.3,335.1,294.2,335.2,294.2z M333,296.5c0,0.1,0.1,0.2,0.1,0.4c-0.1,0.2-0.2,0.4-0.2,0.6
			c-0.3-0.3-0.4-0.7-0.4-1C332.7,296.5,332.9,296.5,333,296.5z M326.3,300.4c1.1-1,3.2-1.3,4.6-2c0.5,0.2-3.7,2.3-4.6,2.6
			C326.3,300.8,326.3,300.6,326.3,300.4z M329,308.3c-2.5,1-5.3,2.2-7.1,2.4c0-0.3,0.1-0.6,0.1-0.9c1.4-0.9,3.9-2.2,5.8-2.2
			c0.4-0.6,0.4-0.8,0.1-1.5c1.4-0.8,10.2-5.1,10.6-4.9c0,0.1,0,0.2,0,0.2c-3.6,1.8-6.9,4.4-10.6,6C327.3,308.5,328,308.6,329,308.3z
			 M311.7,329.8h-0.1c0-0.2,0-0.3,0-0.5c1.1-0.5,2.1-1.8,3.2-2.5c0.1,0,0.2,0,0.2,0C314.3,328.1,313.1,329.2,311.7,329.8z
			 M314.3,334.3c-0.3,0-0.7-0.1-1-0.1c0.2-0.2,0.3-0.4,0.5-0.6C314.2,333.8,314.1,333.7,314.3,334.3z M315,332.3
			c0.1,0.1,0.2,0.2,0.4,0.2c0,0.1-0.1,0.2-0.1,0.4c-0.1,0-0.2,0.1-0.2,0.1C315,332.8,315,332.5,315,332.3z M313.3,323.3
			c0.6-1.2,2.2-1.1,3.4-1.6c0.1,0,0.2,0.1,0.2,0.1C316.2,322.7,314.5,322.9,313.3,323.3z M319.3,328.4c0.1,0,0.2,0,0.2,0
			c-1,1-2.5,1.4-3.1,2.8c-0.1,0.1-0.2,0.2-0.4,0.2c-0.2-0.5-0.3-0.5-0.6-0.9C316.7,329.8,318,329.1,319.3,328.4z M318.4,319.5
			c-2.4,0.7-4.8,1.4-7.1,2.1h-0.1c0-0.1-0.1-0.2-0.1-0.2c2.9-0.8,5.5-2.1,9.1-2.1c0.2-0.3,0.3-0.6,0.5-0.9c-0.2-0.2-0.5-0.5-0.8-0.8
			c0.9-0.4,1.8-0.8,2.8-1.1c0.9,0.2,1.7,0.4,2.4,0.6c-2,0.2-3.1,1.7-4.6,2.4C319.7,319.5,319.1,319.5,318.4,319.5z M311.2,315h-0.1
			v-0.1c1-1.6,5.9-2.8,8.4-2.9c0,0.3,0.1,0.7,0.1,1C317.2,313.6,313.6,314.1,311.2,315z M319.5,315.2c-2.6,0.4-4.7,2-7,2.8
			c-0.1-0.2-0.2-0.5-0.4-0.8c-0.1-0.1-0.2-0.2-0.4-0.4c2.2-0.8,4.8-0.7,7.2-1.8C319.2,315.1,319.4,315.1,319.5,315.2z M322.3,313.7
			c-0.5-0.3-1-0.5-1.8-0.2c1-1.3,3.5-1.2,5.1-2c0.2,0,0.3,0.1,0.5,0.1C324.9,312.2,323.6,312.9,322.3,313.7z M321.4,307
			c1.3-0.5,2.6-1,3.9-1.5c-0.1,0.2-0.2,0.3-0.2,0.5c-0.8,1-1.7,1.1-2.9,1.6c-0.2-0.2-0.3-0.4-0.5-0.6C321.6,307,321.5,307,321.4,307
			z M327.2,304.5c0-0.2-0.1-0.5-0.1-0.8v-0.1c1.3-0.2,3.2-0.9,4.1-1.6c0.1,0,0.2,0,0.2,0C330.6,303,328.6,304.3,327.2,304.5z
			 M325.3,298.5c0.3,0.2,0.1,0,0.2,0.5c-0.2,0.1-0.4,0.2-0.6,0.2C325,299,325.2,298.8,325.3,298.5z M325.5,301.3c0.1,0,0.2,0,0.2,0
			c-0.8,0.7-1.2,0.5-1.6,1.8c-2,0.5-3.5,1-5.5,1.1c0-0.1-0.1-0.2-0.1-0.4v-0.1C320.6,302.8,323.3,302.3,325.5,301.3z M319.2,306
			c-0.2,0-0.3-0.1-0.5-0.1c0-0.1,0.1-0.2,0.1-0.2C318.9,305.8,319,305.9,319.2,306z M318.4,301.7c0,0.1,0.1,0.2,0.1,0.2
			c-0.1,0-0.2,0-0.2,0C318.3,301.8,318.4,301.7,318.4,301.7z M318.4,305.8c-0.5,0.1-1.1,0.2-1.6,0.2c0-0.1,0.1-0.2,0.1-0.2
			C317.4,305.8,317.9,305.8,318.4,305.8z M315.3,302.5c0.5-0.1,1.1-0.2,1.6-0.4c0.3,0,0.6,0,0.9,0v0.1c-1,0.3-1.2,0.4-2.5,0.4
			C315.3,302.6,315.3,302.6,315.3,302.5z M318.8,308.5c0.5,0,1.1,0,1.6,0c-0.2,0.5-0.4,0.6-0.8,0.9c-1.3-0.2-3.4,0-5.2,0.2
			C315.9,309.3,317.3,308.9,318.8,308.5z M311.8,305.5c-0.4,0-0.8,0.1-1.1,0.1c-0.1-0.1-0.2-0.2-0.2-0.2
			C310.9,305.4,311.3,305.5,311.8,305.5z M310.5,324.8c0.5,0.2,0.5,0.3,0.6,0.9c0.9,0.4,1.3,0,2.1-0.2c-0.8,1-2.2,1-4,0.9
			C309.6,325.5,310.1,325.3,310.5,324.8z M310.2,321.7c-0.3,0-0.7,0-1,0c-0.1-0.2-0.1,0,0-0.2c0.2-0.4,0.2-0.3,0.5-0.6
			C309.9,321.1,310,321.4,310.2,321.7C310.2,321.6,310.2,321.6,310.2,321.7z M308.7,316.9c-0.1,0-0.2,0-0.2,0c0-0.1,0-0.2,0-0.2
			c0.4-0.2,0.5-0.2,0.8-0.5c0.3,0.2,0.6,0.4,0.9,0.6C309.6,316.8,309.1,316.9,308.7,316.9z M307,312.7c0.8-0.4,1.6-0.8,2.4-1.1
			c0.1,0.1,0.2,0.2,0.2,0.2C310.2,312.6,308.4,312.9,307,312.7L307,312.7z M266.4,318.7c-1.1,1.3-8.6,2.3-11.4,2.2v-0.1
			c1.6-0.7,3.5-1.9,5-2.6c2-0.7,3.9-1.3,5.9-2c0.1,0,0.2,0,0.4,0c0.1,0,0.2,0.1,0.2,0.1C266.7,317,266.8,318.1,266.4,318.7z
			 M267.8,314.5c-0.1,0-0.2,0-0.2,0c-0.2-0.3-0.5-0.6-0.8-0.9c0.4,0,0.8,0.1,1.1,0.1C267.9,314,267.8,314.3,267.8,314.5z M269,317.7
			c-0.1-0.4-0.2-0.8-0.2-1.1c0.2,0,0.5,0,0.8,0c0.2,0.5,0.4,1,0.6,1.5C269.8,317.8,269.7,317.7,269,317.7z M260.3,330
			c0-0.2,0-0.3,0-0.5c0.1,0,0.2,0,0.2,0c0,0.1,0.1,0.2,0.1,0.2c-0.1,0.1-0.2,0.2-0.2,0.2C260.4,330,260.3,330,260.3,330z M244,351.2
			v-0.1c2.9-1.3,5.5-3.1,8.5-4.4c2.3-0.8,4.7-1.7,7-2.5c0.6,0.6,0.9,1.5,1.2,2.2C255.5,348.2,250.2,350.5,244,351.2z M253.5,369.7
			c0.8-1.3,2.2-1.6,3.4-2.5c3.1-2.4,5.8-4.8,9.2-7c0.9,0.3,2.4,1.6,2.9,2.4c0.1,0,0.2,0.1,0.2,0.1
			C263.9,364.2,259.8,368.7,253.5,369.7z M271.7,359.8c-0.1,0.2-0.2,0.5-0.2,0.8c0,0.1,0,0.2,0,0.2c-0.2,0.1-0.5,0.2-0.8,0.4
			c-0.2-0.1-0.3-0.2-0.5-0.4c0-0.1-0.1-0.2-0.1-0.4c0.8-0.1,0.8-0.2,1.1-0.8c0.2,0,0.3,0,0.5,0C271.7,359.7,271.7,359.7,271.7,359.8
			z M280.9,373.8h-0.1c-0.2-0.5-0.4-0.9-0.6-1.4c0.4,0.2,0.8,0.4,1.2,0.6C281.1,373.4,281.1,373.2,280.9,373.8z M288.5,376.2
			c-0.5,0-1-0.1-1.5-0.1V376c0.6-0.2,1.3-0.4,1.9-0.6c0.1,0,0.2,0,0.4,0C289,375.6,288.8,375.9,288.5,376.2z M315.5,352.2
			c0,0.1-0.1,0.2-0.1,0.2c-2.5,0-4.8,1.2-7.1,0.6c-1.5,1.1-2.4,5.9-3.1,8.5c-1,0.1-1.9,0.2-2.9,0.4c-0.1,0.7,0,1.2,0.2,1.8
			c-0.9,2-3.9,1.5-5,3.5c0,1,0.1,2,0.1,3c-2.1,0.5-5.1,1.2-7,1.9c-0.5-1-1.9-0.8-3.1-1c-0.6,0.4-0.9,1.2-0.1,1.8
			c0.7,0.3,1.1,0,1.4-0.5c0.3,0.5,0.2,0.5,0.8,0.8c-0.5,0.6-2,0.9-2.9,1c0.2-0.5,0-2.5-0.5-3c-0.1-0.1-0.2-0.2-0.2-0.2
			c-0.4,0-0.8,0-1.1,0c0,1,0.1,2.5,0.8,3.1v0.1c-0.6,0.1-1.2,0.2-1.8,0.4c-0.2,0-0.5,0-0.8,0c0-0.2,0-0.5,0-0.8
			c0.7-0.4,0.7,0,1.8-0.2c0-0.5,0-0.9,0-1.4c-0.4-0.3-0.5-0.5-1-0.4c-0.5-0.1-0.5-0.1-0.8,0.4c-0.5-0.4-0.6-0.9-1.5-1
			c0.1-0.3,0.2-0.7,0.2-1c-0.3-0.3-0.6-0.5-1.1-0.6c0-0.1-0.1-0.2-0.1-0.4c0.5-0.2,0.9-0.5,1.4-0.8c0.1,0.4,0.2,0.8,0.4,1.1
			c0.6,0.1,1.3,0.2,1.9,0.2c0.3,0.3,0.2,0.2,0.2,0.8c0.6,0.2,1,0.1,1.4-0.2c0.4-0.3,0.7-0.7,0.9-1.2c-0.3-0.2-0.7-0.4-1-0.6
			c-0.7,0.1-0.9,0.2-1.2,0.6c-0.5-0.4-0.9-0.8-1.4-1.2v-0.1c1.1-0.7,2.2-1.5,3.2-2.2c1.1-1.2,2.5-3.7,2.9-5.5
			c-1.2-3.8-2.2-3.9-6.8-2.8c0.2-0.5,0.5-0.9,0.8-1.4c-0.3-0.3-0.6-0.6-0.9-0.9c-0.3,0-0.6-0.1-0.9-0.1c0,1-0.1,1,0.1,1.6
			c-0.9,1.1-1.8,2-3,2.9c-0.8-0.4-3.6-0.7-3.9,0.6c-0.2,0.6,0.2,0.7,0.5,1.1c-0.4,0.5-1.1,0.9-1.9,1c-0.2-0.2-0.5-0.3-0.8-0.5
			c0-0.1-0.1-0.2-0.1-0.2c0.9,0,1-0.4,1-0.9c0-0.1,0.1-0.2,0.1-0.2c-0.4-0.5-0.8-0.8-1.5-0.6c-0.1-0.5-0.2-0.9-0.2-1.4
			c-0.5,0-1.1-0.1-1.6-0.1c-0.2,0.8-0.8,1.3-1.2,1.8c-0.7-0.6-1.2-1-1.6-1.9c0.1-0.2,0.2-0.3,0.4-0.5c0.5-0.1,0.9-0.2,1.4-0.4
			c0.2,0.2,0.3,0.4,0.5,0.6c0.3,0,0.6-0.1,0.9-0.1c0.4-0.2,0.2,0,0.4-0.5c0.2-0.6-0.1-0.9-0.8-1c1.6-1.4,4.1-1.5,6-2.8
			s3.5-2.4,4.9-3.9c0.6-0.7,2.5-2.4,2-4c-2.1-6.9-9.6-2.3-13.6-0.6c-0.6-0.5-0.8-1.1-1.9-0.8c-0.2,0.6-0.3,0.9,0,1.5
			c-0.4,0.2-0.8,0.4-1.2,0.6c-0.3-0.6-1.7-1-2.4-1.4c-0.8,0.1-0.8,0.2-1.2,0.6c-0.3-0.9-0.7-1.8-1-2.8c5.9-2,14.3-2.1,17.2-7.2
			c-0.1-4.8-9-4.2-12.5-3.2c-0.5-0.5-0.5-0.7-1.5-0.8c-1.1,1-1.2,1-2.9,1.5c-0.4-0.6-0.5-0.6-1.1-1c-0.1,0-0.2-0.1-0.2-0.1v-0.1
			c1.2,0.3,1.6,0.7,2.9,0.6c0.1-0.2,0.2-0.4,0.2-0.6c-0.3-0.7-0.5-0.8-1-1.2c-0.1,0-0.2,0-0.2,0c0.7,0,1.3-0.1,2-0.1
			c0-0.4,0-0.8,0-1.1c-0.5-0.2-0.9-0.4-1.4-0.6v-0.1c0.7-0.2,1.5-0.4,2.2-0.6c0.1,0.7,0,0.8,0.6,1.2c0.3,0,0.6-0.1,0.9-0.1
			c0.4-0.4,0.2-0.9,0.1-1.4c4.2-0.8,9.7-1.8,12.1-4.7c3.3-4-0.7-5.9-4.8-5.6c0-0.2,0-0.5,0-0.8c-0.3-0.2-0.6-0.3-0.9-0.5
			c-0.4,0-0.8,0.1-1.1,0.1c-0.1,0.4-0.2,0.8-0.2,1.1c-0.6-0.3-1.9-1.8-2.2-2.4c-0.3-0.2,0.1-0.3,0.1-1c-0.4-0.4-0.3-0.5-1-0.6
			c0-0.2-0.1-0.5-0.1-0.8c1-0.3,2.1-0.6,3.1-0.9c-0.3,0.5-0.4,0.7-0.5,1.2c0.3,0.2,0.7,0.3,1,0.5c0.3-0.1,0.6-0.2,0.9-0.4
			c0-0.4-0.1-0.8-0.1-1.1c-0.3,0-0.7-0.1-1-0.1c0-0.1-0.1-0.2-0.1-0.2c6.2-3.3,15.2-5,23-4.6c3.9,0.2,8-2.5,10.8,0
			c-1,0.2-1.9,0.4-2.9,0.6c-0.1,0.3-0.2,0.6-0.4,0.9c0.1,0.5,0.2,1,0.2,1.5c0.9,0.6,2.7,0.8,4.1,0.8v0.1c-1.3,0.8-2.7,1.7-4,2.5
			c0,0.4,0,0.8,0,1.2c0.6,0.9,3.1,0.4,4.1,0.4c0,0.2,0.1,0.3,0.1,0.5c-0.8,0.6-1.7,1.3-2.5,1.9c-0.2,0.5-0.2,0.7-0.1,1.4
			c1.2,0.7,2.4,0.4,4.1,0.4c0,0.1,0.1,0.2,0.1,0.2c-0.8,0.7-2,1.4-2.5,2.4c0,0.5,0,0.9,0,1.4c0.4,0.6,1.4,0.7,2.5,0.6l0.1,0.1v0.1
			c-1.1,0.7-2,1.7-2.2,3.2c0.7,1.3,2,0.6,3,1.2c0.3,0.2,0.1,0,0.2,0.4c-1,0.6-1.4,1.4-1.4,2.8c1.1,0.6,2.4-0.1,3.6,0.6
			c0.1,0,0.2,0,0.2,0c-0.6,1.3-3.3,2.7-1.4,4.2c1,0.2,2.1,0.2,3.1-0.1c0.1,0,0.2,0.1,0.2,0.1c-0.6,1.1-1.2,2.3-0.5,3.6
			c0.7,0.3,1.7,0.4,2.4,0.4c-0.4,1.1-0.6,3.1,0.8,3.5c-0.6,0.7-1.3,1.4-1.9,2.1C314.9,346.4,315.9,350.3,315.5,352.2z M317.2,337.8
			c-0.4,0.2-0.8,0.3-1.2,0.5c-0.1,0-0.2-0.1-0.4-0.1c0.6-1,1.3-1.9,2-2.8h0.1C317.5,336.2,317.3,337,317.2,337.8z M317.7,335.3
			c0.1-0.5,0.1-0.6-0.1-1c0.8-0.5,1.5-1,2.2-1.6C320,332.8,318,335,317.7,335.3z M319.5,340.9c-0.4,0-0.8,0.1-1.2,0.1l-0.1-0.1
			c0.2-0.7,0.4-1.3,0.6-2c0.3,0.4,0.3,0.6,0.8,0.9C319.5,340.2,319.5,340.5,319.5,340.9z M319,337.7h-0.1c0.3-2.1,2.9-4.1,4.4-5.1
			c0.1,0,0.2,0,0.2,0C322.2,333.8,319.5,335.7,319,337.7z M321.4,325.3c0.7-0.4,1.4-0.8,2.1-1.1c0.2,0,0.4,0,0.6,0
			c0.1,0,0.2,0.1,0.2,0.1c-0.9,0.3-1.8,0.7-2.6,1C321.7,325.3,321.5,325.3,321.4,325.3z M322.9,329c-0.2,0-0.3,0-0.5,0
			c0.3-0.9,1.9-1.5,2.6-1.5c1-0.5,0.7-1.3,0.8-2.2c2.4-1.6,5.3-2.2,8.2-3.5c0.1,0,0.2,0,0.2,0c-1.5,1.6-4.8,2.2-6.9,3.1
			c-0.1,0.1-0.2,0.2-0.4,0.2c0.1,1.1,0.5,1.1,1.4,1c-0.7,0.2-1.4,0.5-2.1,0.8C325.2,327.6,324,328.3,322.9,329z M332.8,324.4
			c-0.2,0.1-0.4,0.2-0.6,0.4c0.1-0.1,0.2-0.2,0.4-0.4C332.6,324.4,332.7,324.4,332.8,324.4z M332,324.8c-0.3,0.2-0.6,0.3-0.9,0.5
			c0.2-0.2,0.4-0.3,0.6-0.5C331.9,324.8,331.9,324.8,332,324.8z M330.2,325.7c-0.1,0.1-0.2,0.2-0.2,0.2c0-0.1,0.1-0.2,0.1-0.2
			S330.1,325.7,330.2,325.7z M325.5,331.8v-0.1c1-0.4,1.9-0.8,2.9-1.1c0.2,0,0.4,0,0.6,0C328.1,331.5,327.2,331.8,325.5,331.8z
			 M334,332.8c-0.6,0.3-0.8,0.6-0.8,1.5c-0.7,0-1.5-0.1-2.2-0.1c1.1-1.7,3.3-1.6,4.6-2.8c0.3,0,0.7,0,1,0
			C336.2,332.5,335.2,332.4,334,332.8z M341.7,329.3c-0.8,0.9-2.6,1.2-3.9,1.6c0.2-0.5,0.2-0.7,0-1.2c1.1-0.4,2.3-0.8,3.4-1.2
			c0.2,0,0.3,0,0.5,0C341.7,328.7,341.7,329,341.7,329.3z M342,332.3c0.7-0.3,1.5-0.7,2.2-1c0.2,0,0.3,0,0.5,0
			c-0.4,0.7-1.6,1.5-2.4,1.8C342.3,332.8,342.2,332.5,342,332.3z M344.5,330c0-0.1,0-0.2,0-0.2c0.2-0.1,0.5-0.2,0.8-0.4
			c0.9,0.2,1.1,0.6,2.1,0.4c-0.7,0.4-1.4,0.8-2.1,1.2C345.1,330.4,345.4,330.3,344.5,330z M343.7,335.7c-0.3-0.1-0.6-0.2-0.9-0.4
			c0.7-2,3.7-2.9,5.4-4C348.1,331.5,344.2,335.5,343.7,335.7z M347.3,334.5c0.6-0.9,1.5-1.4,2.4-2.1
			C349.7,332.4,347.8,334.4,347.3,334.5z M348.4,331.3c0-0.1,0.1-0.2,0.1-0.2C348.5,331.2,348.6,331.1,348.4,331.3z M349.8,329v-0.1
			c1.3-0.4,2.6-0.8,3.9-1.2c0.4,0.1-2.4,1.7-2.8,1.9C350.6,329.1,350.5,329.1,349.8,329z M351,334c-0.1-0.1-0.2-0.2-0.2-0.2
			c0.1-0.1,0.2-0.2,0.4-0.4c0.1,0,0.2,0,0.2,0C351.3,333.9,351.4,333.8,351,334z M354.4,341.8c0,0.1,0,0.2,0,0.2h-0.1
			c-0.5-0.5-1.1-0.8-1.5-1.4c0.4,0.1,0.8,0.2,1.1,0.4c0.1,0,0.2-0.1,0.2-0.1c0-0.2,0.1-0.4,0.1-0.6c0.2,0,0.3,0.1,0.5,0.1
			C354.7,340.9,354.5,341.3,354.4,341.8z M355.5,336.2c0-0.1,0.1-0.2,0.1-0.2h0.1C355.7,336,355.6,336.1,355.5,336.2z M358.5,344.8
			c-0.2,0-0.4,0-0.6,0c-1.3-1.1,0-1.3,0.2-2.8c0.4,0.5,0.3,2,0.4,2.6C358.5,344.7,358.5,344.7,358.5,344.8z M358.4,341.8
			c-0.1-0.5-0.2-0.9-0.4-1.4c0.2-0.4,0.5-0.8,0.8-1.1c0.1,0,0.2,0,0.2,0C358.9,339.8,358.4,340.4,358.4,341.8z M360.8,341.2
			c0,0.1-0.1,0.2-0.1,0.2c-0.1-0.2-0.2-0.5-0.2-0.8c0.1,0,0.2,0,0.4,0C360.9,341.1,361,340.8,360.8,341.2z M362.4,344.4
			c0-0.1,0-0.2,0-0.4c0.1,0.1,0.2,0.2,0.2,0.2C362.6,344.3,362.5,344.4,362.4,344.4z M363,349.8c0-0.8,0.1-1.6,0.1-2.4
			c0.1,0,0.2,0,0.4,0c0.5,0.3,0.6,0.7,0.8,1.4C363.9,349.1,363.4,349.4,363,349.8z M364.9,341c0-0.1-0.1-0.2-0.1-0.4
			c0.3,0.2,0.1,0,0.2,0.4H364.9z M365,340.3c-0.1,0.1-0.2,0.2-0.2,0.2c-0.5-0.7-1-1.5-1.5-2.2c0.9-0.6,1.8-1.2,2.6-1.8h0.1
			c-0.6,0.8-1.2,1.6-1.8,2.4C364.5,339.6,364.7,339.8,365,340.3z M366.4,348.7c0-0.2-0.1-0.3-0.1-0.5c0.3,0.2,0.1,0,0.2,0.5H366.4z
			 M366.7,346.7c-0.1-0.5-0.2-1-0.4-1.5c0.2,0,0.5,0.1,0.8,0.1C367,345.6,367,346.3,366.7,346.7z M369.4,346.7c0-0.1,0-0.2,0-0.4
			c0.1,0.1,0.2,0.2,0.2,0.4C369.6,346.7,369.5,346.7,369.4,346.7z M376.8,356c-0.1,0-0.2,0-0.2,0c-0.2-0.9-0.5-1.5-1.4-1.8
			c0.2-0.1,0.3-0.2,0.5-0.4c0.1,0,0.2,0,0.4,0c0.2,0.1,0.3,0.2,0.5,0.4c0.1,0.5,0.2,0.9,0.2,1.4C376.8,355.8,376.8,355.9,376.8,356z
			 M377.9,348.2c1.2-0.5,2-1.3,2.9-2.1c0.2,0.1-0.8,4.2-0.8,5.8C379.3,350.6,378.6,349.4,377.9,348.2z M387.3,353.5
			c-0.1-0.4,0-0.2,0.2-0.8h0.1C387.5,353,387.4,353.3,387.3,353.5z M398,363c-0.1,0-0.2-0.1-0.2-0.1c0.2-0.7,0.4-1.3,0.6-2
			c0.2,0.4,0.4,0.8,0.6,1.1C398.7,362.4,398.4,362.7,398,363z M398.5,360.3c-0.5-0.1-0.9-0.2-1.4-0.2c0.4-2.4,1.5-4.9,2.4-6.9
			C400.6,355.6,398.4,357.8,398.5,360.3z M402,364.3c-0.1,0-0.2,0.1-0.2,0.1h-0.1c0-0.2,0.1-0.3,0.1-0.5c0.1,0.1,0.2,0.2,0.2,0.2
			C402,364.2,402,364.2,402,364.3z M401.7,354.5c-1.7-1.4,0.1-4.3,0.9-5.5c0.4,0.5,0,3.9-0.1,5.4
			C402.2,354.4,401.9,354.5,401.7,354.5z M402.5,357c0,0.1,0,0.2,0,0.2h-0.1c0-0.3,0.1-0.7,0.1-1c0.1,0,0.2,0,0.2,0
			C402.7,356.8,402.7,356.8,402.5,357z M404,358.9c-0.2,0-0.5,0.1-0.8,0.1c0.1-0.3,0.2-0.6,0.4-0.9c0.4,0.2,0,0.3,0.4,0.6
			C404,358.8,404,358.9,404,358.9z M404.3,364.2c0.2,0,0.4,0.1,0.6,0.1c0,0.2,0.1,0.4,0.1,0.6C404.8,364.7,404.5,364.4,404.3,364.2z
			 M409.8,365.4c-0.5-0.1-0.3-0.3-0.4-0.5c0.2,0,0.4,0,0.6,0c-0.1,0.1-0.2,0.2-0.4,0.2C409.7,365.2,409.7,365.3,409.8,365.4z
			 M419.2,359.7c-0.2-0.3-0.3-0.7-0.5-1c0.1-0.7,0.2-1.4,0.2-2.1c0.1,1,0.2,2.1,0.4,3.1C419.2,359.7,419.2,359.7,419.2,359.7z
			 M419.9,365c0.2-0.6,0.3-0.7,0.8-1h0.1c0,0.3,0.1,0.7,0.1,1C420.6,365,420.2,365,419.9,365z M421,359.3c-0.1,0-0.2,0-0.4,0
			c0-0.4,0-0.8,0-1.2c0.4,0.2,0.8,0.3,1.2,0.5c0,0.1,0.1,0.2,0.1,0.2C421.7,358.9,421.4,359.1,421,359.3z M428.9,360.7
			c0-0.1,0.1-0.2,0.1-0.2h0.1C429.1,360.5,429,360.6,428.9,360.7z M431.3,360.3c-0.4,0-0.8,0-1.1,0c0-0.5-0.1-0.9-0.1-1.4
			c0.4,0.4,0.8,0.8,1.2,1.2C431.3,360.2,431.3,360.2,431.3,360.3z M438.8,355.4c-0.8-0.6-1.2-2.2-1.2-3.5c0.6,1.1,1.3,2.2,1.9,3.2
			C439.2,355.4,439.2,355.3,438.8,355.4z M444.7,355.7c-0.1,0-0.2,0.1-0.4,0.1c0-0.3-0.1-0.6-0.1-0.9c0.2,0,0.3,0.1,0.5,0.1
			c0,0.1,0.1,0.2,0.1,0.2C444.7,355.4,444.7,355.5,444.7,355.7z M455.4,358.3c-0.1-0.4-0.2-0.8-0.4-1.1c0.4-0.2,0.8-0.3,1.1-0.5
			c0.1,0,0.2,0,0.2,0c0,0.6,0.1,1.3,0.1,1.9C456.2,358.4,455.8,358.4,455.4,358.3z M456.4,354.7c0-0.1-0.1-0.2-0.1-0.2
			c0.1,0,0.2,0,0.2,0S456.4,354.6,456.4,354.7z M459.4,357.7c-0.2,0-0.3,0.1-0.5,0.1c0-0.1,0-0.2,0-0.4c0.2,0,0.3,0.1,0.5,0.1
			C459.4,357.6,459.4,357.6,459.4,357.7z M466,360.7c-0.3-0.1-0.5-0.3-0.8-0.8c-0.2,0-0.5,0-0.8,0c-0.1,0.2-0.2,0.3-0.2,0.5
			s-0.1,0.4-0.1,0.6c-0.2,0-0.5,0-0.8,0l-0.1-0.1c0-0.1,0-0.2,0-0.2c0.6-0.5,0.9-0.5,1.2-1.2c0.5,0.1,1.1,0.2,1.6,0.4
			C466.1,360.1,466.1,360.4,466,360.7z M463.4,352c1.8,0.7,1.8,2.4,2.8,3.9C464.4,355.3,463.8,354.1,463.4,352z M468.8,360.7
			c-0.1,0-0.2,0.1-0.2,0.1c-0.3,0.3-0.2,0.2-0.8,0.2c0-0.3-0.1-0.7-0.1-1c0.4,0,0.8-0.1,1.1-0.1
			C468.8,360.2,468.8,360.4,468.8,360.7z M475.9,356.8c-0.9-0.3-1.8-0.6-2.8-0.9c-3.6-0.2-6.4-0.6-6.8-5.2c-0.1-0.1-0.2-0.2-0.2-0.2
			c-0.6,0.2-0.8,0-1.1,0.8c-1.7-0.5-2.3-2.9-3.6-3.9c-0.2,0-0.5-0.1-0.8-0.1c-0.2,0.4-0.2,0.5-0.1,1c-2.1-0.8-1.8-3.9-3.8-4.8h-0.1
			c-0.9,1.9,1.9,5.1,3,6.1v0.1c-1.2,0.1-2.3,0.2-3.5,0.4c-2.2-1.3-2.1-5-4.2-6.1c-0.2,0-0.3-0.1-0.5-0.1c-1,1.1,2.2,6.2,3.1,7
			c-0.4,0.3-1.5,0.4-2,0.8c-1-1.4-1.7-3.1-2.8-4.6c-0.1,0-0.2,0.1-0.4,0.1c-0.1,0.1-0.2,0.2-0.4,0.2c-0.3,2,1.2,4.6,2.8,5.1
			c0,0.1,0.1,0.2,0.1,0.2v0.1c-0.7,0.1-1.5,0.3-2,0.5c-1.4-1.5-2.3-2.4-3.1-4.6c-0.2,0-0.3-0.1-0.5-0.1c-0.2,0.3-0.4,0.7-0.6,1
			c0.9,2.5,0.9,2.4,2.8,4.1c-0.6,0.3-1.1,0.3-1.5,0.9c-0.2,0-0.4-0.1-0.6-0.1c-1.2-0.7-1.3-2.8-2-4c-0.1,0-0.2,0-0.4,0
			c-0.1,0.1-0.2,0.2-0.2,0.4c0,0.7,0,1.3,0,2h-0.1c-0.4-1.6-0.8-3.2-1.2-4.8c-0.2-0.1-0.3-0.2-0.5-0.4c-0.3,0.2-0.3,0.1-0.5,0.4
			c-0.9,1.3,1.7,7.1,2,8.6c-0.1,0-0.2,0.1-0.2,0.1c-0.6-0.3-1.3-0.6-1.9-0.9c-2.3-1.6-1.3-7.4-4.8-7.2c-0.4,2.1-0.2,4.9,0.8,6.9v0.1
			c-0.3,0.1-0.6,0.2-0.9,0.2c-1.2-1.3-0.5-4.4-2.9-4.2c-1,1.7,0,5.7,1.6,6.1c-0.1,0.5-0.2,0.9-0.2,1.4c-0.1,0-0.2,0.1-0.2,0.1
			c-1-1.4-2-2.2-2.2-4.4c0.2-0.5,0.3-0.9,0.5-1.4c-1.4-3.9-2.3-8.2-3.9-12c-0.5-1.2,0-3.4-1-4.1c-1,1-0.6,3.3-0.1,4.6
			c0.6,1.8,1.7,4.1,2,6.2c0.1,0.9-0.6,1.4-0.4,2.5c0.4,1.8,1.1,2.8,1.2,4.6h-0.1c-0.4-1.4-0.8-2.8-1.1-4.1c-0.3,0-0.6-0.1-0.9-0.1
			c-0.1,0.1-0.2,0.2-0.2,0.4c-0.3,0.7,0,1.9,0.2,2.5c-0.2,0.8-0.4,0.7-0.8,1.2c-0.6,2.6-0.3,5.7-0.6,8.6c-1.5-0.9,0.5-9.4,0.5-11.6
			c0-0.1-0.1-0.2-0.1-0.2c-0.2,0-0.3-0.1-0.5-0.1c-1.5,1.4-1.7,3.6-1.6,6.1c-0.1,0-0.2,0.1-0.2,0.1c-1.2-1.6-1.1-4.3-0.1-6.6
			c-0.3-0.7-0.5-0.9-1.2-0.5c0-1.4,0-2.8,0-4.2c-0.4-0.2-0.4-0.3-1.1-0.4c-1.3,2.8,0.1,8.3,0.1,11.4c-0.1,0-0.2,0.1-0.2,0.1
			c-1-1.6-1.5-4.3-2.5-5.9c-0.1,0-0.2,0-0.4,0c-0.4,0.5-0.7,0.7-0.8,1.6c-1.6-0.3-1,2.2-1.6,3.5c0,0.1-0.1,0.2-0.1,0.2
			c-0.3-2.7-0.5-4.9-0.5-7.9c-0.1,0-0.2-0.1-0.2-0.1c-0.2,0-0.4,0-0.6,0c-0.8,1.3,0,3-0.6,4.5c-0.4,0.9-1.1,1.5-1.1,3
			c-0.5-1.5,0.8-2.6,0.2-3.6c-0.2-0.2-0.1-0.1-0.8-0.1c-1.2,1.6-1.2,3.6-1,5.8c0.1,0.1,0.2,0.2,0.2,0.2c0.2,0,0.4,0,0.6,0
			c0.2-0.3,0.3-0.6,0.5-0.9c0.5,1,0.5,1.9,1.4,2.5c0.2,0,0.4-0.1,0.6-0.1c0.2-0.8-0.1-1.6-0.4-2.4c0-0.3,0-0.7,0-1
			c0.7,0.3,0.7,0.6,1.5,0.5c0.3,1.4,0.2,1.5,0.6,2.8c0.2,0.2,0.4,0.4,0.6,0.6c-0.2,0.2-0.4,0.3-0.6,0.5c-2-1-4.7-1.2-6.4-2
			c-0.2-1-0.3-2.1-0.5-3.1c-0.7-0.2-0.7-0.2-1.2,0.1c0.2-2,0.3-4,0.5-6c-0.1-0.1-0.2-0.2-0.2-0.4c-0.2,0-0.5,0-0.8,0
			c-1.1,2.1-1.5,8.1,0.1,9.5c-0.1,0-0.2,0.1-0.2,0.1c-0.6,0.3-1.6,0.1-2-0.1c-0.3-0.2-0.7-0.5-1-0.8c0.6-2.1,2.3-6.3,1.5-9.2
			c-0.3,0-0.6,0-0.9,0c-0.6,1.2-0.5,6.5-2.2,6c-2.4-2.4,2.2-9.8,3.1-12c-0.1-0.2-0.2-0.5-0.4-0.8c-0.1,0-0.2,0-0.4,0
			c-1.1,1.2-2.3,3.4-2.9,5.1c-0.2,0.1-0.3,0.2-0.5,0.4c0.1-1.2-0.6-1.1-1.5-1.5c-0.2,0-0.5,0.1-0.8,0.1c-0.8,3.2-3.2,4.7-4,7.5
			c-0.3,1.2-0.1,3.2-1.4,3.8c0-1.3,1-3,0.6-4.1c-0.3-0.4-0.1-0.3-0.6-0.4c-0.8,0.7-1,2-1.9,2.8c0.3,0.5,0.4,1.4,0.4,2
			c0,0.1,0.1,0.2,0.1,0.4c-1.7-0.1-2.5-0.6-3.9-0.2c-0.1-0.2-0.2-0.3-0.4-0.5c1.1-1.1,2.7-6.5,3.1-8c-0.1-0.2-0.2-0.4-0.4-0.6
			c-0.2,0-0.4,0-0.6,0c-1.3,1.6-2.9,4.9-2.6,7.4h-0.1c-0.4-0.6-0.8-1.2-1.1-1.8c1.1-2.5,2.3-4.9,3.4-7.2c-0.4-0.5-0.8-0.7-1.1-1.4
			c-3.1,0.6-3.7,5.1-6.2,6.5c-0.1-0.5-0.2-0.9-0.4-1.4c1.9-2.1,3.8-4.2,5.6-6.2c0-0.2,0.1-0.4,0.1-0.6c-0.4-0.1-0.8-0.2-1.1-0.4
			c-2,2.2-5.7,4.5-6.2,8c0.3,0.3,0.7,0.7,1,1c0,0.2,0,0.3,0,0.5c-1,0.2-1.8-0.1-2.2-0.9c-0.2-0.2-0.4-0.4-0.6-0.6
			c0.5-0.1,1-0.2,1.5-0.4c-0.3-2.6,1.3-5.3,3.6-7.2c0-0.2-0.1-0.4-0.1-0.6c-0.4-0.2-0.4-0.3-0.9-0.2c0.8-2.7,2.8-4.2,3.9-6.8
			c-0.2-0.3-0.3-0.6-0.5-0.9c-0.1,0-0.2,0-0.2,0c-1.1,0.9-1.3,2.5-2.2,3.6c-1.7,2-3.6,3.7-5.9,5.1c0.7-0.9,1.4-1.8,2.1-2.6
			c0-0.3,0-0.6,0-0.9c-0.3-0.1-0.6-0.2-0.9-0.2c-1.6,1.1-3.7,3.2-3.6,5.9c-0.9-0.1-1.8-0.2-2.8-0.2c1-3.3,5.1-6.6,7.6-8.5
			c-0.5-3-8.2,5.3-8.5,6.9c-0.1,0-0.2,0.1-0.2,0.1c-0.2-1.1-0.9-1.7-1.4-2.5c0-0.2,0-0.3,0-0.5c0.5-0.1,0.9-0.2,1.4-0.4
			c0,0.2,0,0.5,0,0.8c0.3,0.4,0.2,0.3,0.9,0.4c1.6-2,3.5-4.9,6.1-5.8c0-0.2,0-0.5,0-0.8c-0.1-0.1-0.2-0.2-0.2-0.4
			c-1.6,0-2.1,0.8-3,1.5c-0.1-0.2-0.2-0.5-0.4-0.8c1.7-1.5,3.5-2.6,5.1-4.1c0-0.2,0-0.3,0-0.5c-0.1-0.1-0.2-0.2-0.2-0.2
			c-0.7,0-6.3,4-7.4,4.8c0.1,0.6,0.1,0.5,0.4,0.9c-1.3,1.1-2.6,2.3-3.9,3.4c0,0.1,0,0.2,0,0.2c-0.1-0.1-0.2-0.2-0.4-0.4
			c-0.1,0-0.2,0-0.2,0c1-0.7,2-1.5,3-2.2c0.1-0.4,0.2-0.8,0.2-1.2c-1.9,0.1-5.1,2.1-5.8,3.8c-0.5,0-1,0.1-1.5,0.1
			c0.8-2.7,3.9-2.9,5-5c0-0.2,0.1-0.5,0.1-0.8c-1,0-1.4,0.2-2,0.5c0.5-0.6,1-1.2,1.5-1.8c0-0.2-0.1-0.5-0.1-0.8
			c0-0.1-0.1-0.2-0.1-0.2c-1.9,0.4-2.7,2.1-4.2,3c1-0.9,2.1-1.8,3.1-2.6c-1-2.7-7.8,1.1-9,2c-0.3-0.1-0.7-0.2-1-0.4
			c1.3-1,2.6-1.9,3.9-2.9c0-0.2,0-0.5,0-0.8c-2-0.8-4.7,2.4-6.5,3.1c0.9-1.2,3.7-2.2,3.6-3.9c-2.4,0-5.3,2.3-5.9,4.1
			c-0.7-0.2-1.5-0.5-2.2-0.8v-0.1c0.4-0.2,0.7,0.4,1.4,0c1.8-0.9,3.4-3.2,6-4c0.2-0.3,0.2-0.4,0.2-1c-0.6-0.2-1.4-0.1-1.9,0.1
			c0-0.4,0.1-0.8,0.1-1.2c-2.1,0.2-2.4,1.5-4.5,1.8c1.1-1,2.2-1.9,3.2-2.9c0-0.4-0.1-0.8-0.1-1.2c-1-0.1-3.2-0.3-4,0.1
			c-0.8,0.5-3.5,2.1-4.8,1.8c-0.1,0-0.2,0-0.2,0c0-0.1-0.1-0.2-0.1-0.2c1.4-0.5,2.8-0.9,4.2-1.4c0.4-0.3,0-0.6,0.8-0.9
			c-1-0.8-11.9,1.7-13.5,2.2c-0.2-0.5-0.1-0.4-0.6-0.6v-0.1c0.9-0.3,1.8-0.6,2.6-0.9c0.1,0,0.9,0.4,1.4,0.2c2.9-1,5.9-2.3,8.8-3.6
			c1-0.5,1.3-1.6,2.1-2.1c0.7-0.5,1.7-0.8,2.4-1.1c0-0.3-0.1-0.6-0.1-0.9c-2.7,0.4-4.8,2.2-6.8,3.4c-1.3,0.5-2.6,1.1-3.9,1.6
			c0-0.4,0-0.8,0-1.2c-1.8,0.3-3,1.5-4.4,2.1c-2.2,1-4.5,1.1-6.8,2.1c-2.4,1.1-4.6,2.5-7.6,3.2h-0.1c0-0.1-0.1-0.2-0.1-0.2
			c0-0.2,0-0.3,0-0.5c6.3-2,12.3-5.1,17.8-8.4c2-1.2,4.1-1.7,5.2-3.8c0-0.1-0.1-0.2-0.1-0.2c-0.4,0.2-0.8,0.3-1.2,0.5
			c0.5-0.6,1.7-1.2,2.5-1.4c0-0.3,0-0.7,0-1c-3.9,0.5-5.6,2.4-9.6,2.4c0,0.3-0.1,0.6-0.1,0.9c0.2,0.2,0.4,0.3,0.6,0.5
			c1.7,0.3,3.9-0.5,5.1-1c-1.4,1.9-5.7,3.6-8,4.5c0.5-0.7,1.7-1.3,2.6-1.6c0.1-0.1,0.2-0.2,0.2-0.4s0-0.5,0-0.8
			c-1.2-0.2-2.6,0-4.1,0.2c0.5-0.2,1-0.5,1.5-0.8c0-0.2,0-0.5,0-0.8c0-0.1,0-0.2,0-0.4c-3.6,0.1-6.9,2.3-9.8,3.5
			c-1.2,0.3-2.4,0.6-3.6,0.9c-1.5,0.5-3,1.6-4.6,1.6v-0.1c1.1-0.3,0.4-0.7,1-1.2l3.6-2c3.9-2,8.2-2.8,12.1-4.5
			c0.8-0.4,0.9-1.1,1.5-1.6c1.7-1.4,4.5-2.6,6.6-3.4c0-0.3,0-0.7,0-1c-0.1,0-0.2-0.1-0.2-0.1c-2.3,0.3-4.3,1.8-6.1,2.8
			c-0.5,0.6-0.9,1.2-1.4,1.8c-1.7,0.9-2.8-0.1-4.4,0.5c-1.9,0.9-3.8,1.8-5.8,2.8c-0.4-0.4-0.3-0.6-1-0.8c2.7-0.9,5.3-1.8,8-2.6
			c0.2-0.8,0.3-1-0.5-1c0.9-1,2.4-1.3,3.2-2.4c0.1,0,0.2,0,0.2,0c0-0.3,0-0.7,0-1c-2.1,0.3-3.7,1.7-5.4,2.5c-2.1,1-4,1-6.1,1.6
			c0.5-0.5,1.1-0.9,2-1c0.1-0.2,0.2-0.5,0.4-0.8c-0.2-0.3-0.4-0.6-0.6-0.9c-0.1,0-0.2-0.1-0.2-0.1c1.1-0.4,2.3-0.8,3.4-1.2
			c-0.3,0.3-0.7,0.7-1,1c0,0.2,0,0.3,0,0.5c2.5,0.4,6.2-1.9,8.2-2.9c1.6,2.1,5.2-1.4,6.8-2c0.3-0.5,0.3-0.4,0.2-1.2
			c-1.5,0.2-4.2,2.3-4.6,1.2c-2.9,0.2-4.9,1.4-7.1,2.4c0.3-0.3,0.6-0.6,0.9-0.9c0-0.2-0.1-0.5-0.1-0.8c-1,0-2.5,0.4-4.1,1
			c1.5-0.6,3.3-1.7,3.6-1.8c1.3-0.7,5.8-3,6.4-4.1c0.1-0.5,0.2-1,0.2-1.5l3-2.9c0-0.1-0.1-0.2-0.1-0.4c-0.3-0.4-0.2-0.4-0.9-0.5
			c1.2-1.5,3.1-1.7,4-3.5c-0.1-0.2-0.2-0.3-0.2-0.5c-1,0.5-1.9,0.9-2.9,1.4c1.4-1.6,6.6-5.3,8.8-5.9c0.1-0.8,0-0.7-0.4-1.2
			c-2.1,0.4-9.6,5.7-11.2,7.4c0,0.7,0.1,0.8,0.5,1.1c-0.9,0.5-1.8,1-2.8,1.5c0.1,0.8,0.2,0.7,0.6,1.1c1.3-0.1,2-0.7,3-1
			c-2.5,2.5-5.9,2.9-9.1,4.2c0.2-0.4,0.4-0.5,0.2-1c0-0.1,0-0.2,0-0.2c-0.1,0-0.2,0-0.3,0c-0.8,0.1-1.3,0.4-1.9,0.7
			c0.7-0.7,1.3-0.7,1.9-0.7c0.1,0,0.2,0,0.3,0l0,0c0.3,0,0.5-0.1,0.9-0.3c2-1.6,4-3.2,6-4.8c0.3-0.3,0.2-0.3,0.1-0.9
			c-1.7,0.3-2.5,1.1-3.6,1.9l-0.1-0.1c0.3-0.4,0.6-0.8,0.9-1.1c0.2,0,0.5,0,0.8,0c0-0.2,0-0.5,0-0.8c0.5-0.7,1.1-1.3,1.6-2
			c0.5,0.2,1.1,0.4,1.6,0.6c1.4-2.7,2.9-1.5,4.4-3c1.6-1.7,3.5-3.9,5.5-5.1c0.1-0.1,0.2-0.2,0.2-0.2c0,0.2,0.1,0.5,0.1,0.8
			c0.3,0.2,0.4,0.2,1,0.2c1.4-1.8,2.4-4.1,4.2-5.4c1-0.7,2-1.5,3-2.2c0.4,0,0.8,0,1.1,0c2-1.9,3.9-3.8,5.9-5.6
			c1.5-1.2,3.6-2.3,4.5-4.1c-0.2-0.2-0.2-0.2-0.6-0.2c-3.7,2.3-6.1,5.5-9.4,8.2c-1.6,1.3-4.3,2.3-6.2,3.8c2.4-5.2,9-10.1,14.1-12.9
			c0-0.1-0.1-0.2-0.1-0.4c0-0.1,0-0.2,0-0.2c-3.3,0.3-6.5,1.9-9.2,3.2c0.8-1.5,8.7-5.4,10.9-5.9c0.1-0.1,0.2-0.2,0.2-0.4
			c-0.7-0.4-1.7-0.3-2.5,0.1c-0.2,0-0.3,0-0.5,0c1.1-3.7,5.4-4.3,9.1-5.6c2.8-1,6-5.1,9.4-5.9c0.1-0.2,0.2-0.3,0.2-0.5
			c-0.9-0.7-7.4,2.2-8.8,2.6c2-2.3,6.2-3.3,9.5-4.2c1-0.2,2-0.3,3-0.5c0.7-0.4,1.4-1.5,2.2-2c1.9-1.1,4.3-2.3,6.4-2.9
			c0.6,0,1.3-0.1,1.9-0.1c0.5-0.4,0.2-0.6,0.2-1.1c1.1-0.1,2.2-0.2,3.2-0.2c0.1,0,0.2,0.1,0.2,0.1v0.1c-0.5,0.3-0.9,0.6-1.4,0.9
			c0,0.9,0.1,0.9,0.8,1.1c-0.4,0.5-0.6,0.5-0.8,1.2c0,0.1,0.1,0.2,0.1,0.2c1.5-0.5,3-1,4.5-1.5c1.3,0,2.6-0.1,3.9-0.1
			c-0.1-0.2-0.2-0.5-0.4-0.8c-2.5,0-5.1,0.1-6.6,0.6c1.4-1.4,4.1-0.9,6-1.4c0.5,0.1,0.4,0,0.9-0.1c-0.1-1.6,2.4-1.1,3.6-0.9
			c0,0.1,0.1,0.2,0.1,0.2c-0.6,0.5-1.1,0.7-0.9,1.8c-0.5,0.1-1,0.2-1.5,0.2c-0.1,0.3-0.2,0.6-0.2,0.9c0.9,0.2,1.6-0.2,2.5-0.2
			c0,0.2,0.1,0.5,0.1,0.8c1.4,0.2,3.1-0.4,4.4-0.6c2.9-0.6,5.3-0.5,8.1,0c-1.8,1.3-5.4,0.9-8,1.6c-0.5-0.1-0.8,0.2-0.9,0.9
			c0.2,0,0.4,0.1,0.6,0.1c0,0.2,0,0.3,0,0.5c-1.5,0.1-2.9,0.2-4.4,0.4c-0.1,0.2-0.2,0.4-0.2,0.6c0.9,0.6,11.2-0.5,13.4-0.5V249
			c-0.8-0.8-2.2-0.6-3.1-1.2c-0.1,0-0.2-0.1-0.2-0.1c0.9-0.2,1.8-0.3,2.8-0.5c1,0.7,2.7,2.6,3,3.9c-2.7,0.4-5.4,0.8-8.1,1.2
			c-1-0.2-2-0.4-3-0.6c-1.7,0.2-3.5,0.3-5.2,0.5c0,0.3-0.1,0.7-0.1,1c1.3,0.3,2.7-0.2,3.9-0.4c1.8-0.3,2.8,0.7,4.1,0.5
			c3.1-0.5,6.3-0.9,9.4-1.4c0.9,1,1.3,2.7,3.4,2.5c0-0.3,0.1-0.6,0.1-0.9c0-0.1-0.1-0.2-0.1-0.2c-0.5-0.2-0.6-0.2-1.1,0
			c-0.3-0.4-0.6-0.8-0.9-1.1c0-0.1,0.1-0.2,0.1-0.4c0.3-0.3,0.1-0.2,0.6-0.2c0-0.2-0.1-0.3-0.1-0.5c-0.4,0-0.8-0.1-1.2-0.1
			c-0.4-1.6-2.1-2.2-2.5-3.9c1.2-0.2,2.1,0.5,3.2,0.8c0.1,0.1,0.2,0.2,0.2,0.4c-0.2,0.8-0.5,0.5-0.8,1.2c0,0.1,0.1,0.2,0.1,0.4
			c2.5,1.1,3.8,1.9,5,4.8c1.4,0.2,3.8,0.8,4.8,2.1c0.3,0.3,0.5,0.7,0.5,1.4c-1.9-0.7-2.7-2.4-4.9-2.4c0,0.3-0.1,0.6-0.1,0.9
			c0.4,0.2,0.8,0.4,1.2,0.6c0.5,0.7,0.3,0.4,0.2,1.5c2.6,0.3,7.2,3.1,7.9,5.4c-1.3-0.5-3.1-0.1-4.8-0.6c-0.4-0.4-0.8-0.8-1.2-1.1
			c-1-0.7-3.6-0.3-4.5-0.1c0,0.2-0.1,0.5-0.1,0.8c1.2,0.4,2.9,0.2,4.5,0.2c0.1,0.4,0.2,0.8,0.2,1.1c3.5,0.4,9.5,0.7,9,4.9
			c1.5,0.8,4.4,1.6,5.1,3.1c0.8,1.8,0.7,4.1,1.9,5.5c0.8-0.5-0.1-4,0-5.5h0.1c0.5,2.5,0.9,5,1.4,7.5c-0.9,0.9-0.4,2.1,0.2,3.9
			c-0.2,0-0.4,0.1-0.6,0.1c-0.1,0.3-0.2,0.6-0.2,0.9c1,1.3,1.5,1.5,1.9,3.6c0.1,0.1,0.2,0.2,0.2,0.2c0.5-0.1,0.3,0,0.5-0.2
			c0.3-0.3,0.3-0.9,0.2-1.6c0.1,0,0.2-0.1,0.2-0.1c0.6,0.3,0.8,0.3,1.5,0.2c0.1,0.2,0.2,0.3,0.2,0.5c-1.2,1.5,0.4,6.2,1.1,8.1
			c-1.2-0.6-2.4-1.3-3.6-1.9c-0.2,0.3-0.3,0.6-0.2,1.2c1.4,0.9,3.4,1.5,4.5,2.8c0,0.3,0.1,0.7,0.1,1c-1.8-0.6-3.3-0.8-4.2-2.1
			c-0.2,0-0.4,0.1-0.6,0.1c-0.1,0-0.2,0-0.2,0c0.1,3,1.9,6.3,3.8,7.6c1.3-0.6,3.1,0.3,4.6,0.6c0.3,0.8,0.7,1.6,1,2.4
			c0,0.2,0,0.3,0,0.5c-1.8-0.4-3.1-1.3-4.6-1.9c-0.3,0.3-0.3,0.3-0.4,0.9c1.4,0.7,2.8,1.5,4.1,2.2c-0.2,0-0.3,0-0.5,0
			c0,0.3-0.1,0.6-0.1,0.9c1.7,1.1,2.8,1.5,3.8,3.5c0.2,0,0.3,0.1,0.5,0.1h0.1c0.4-0.8,0.2-1.5,0.1-2.8c0.7,0.3,1.3,0.6,2,0.9
			c2.3,1.7,3.3,4.8,6,6.1c-1,0.5-3-1.7-3.4-2.8c-1.6-0.3-2.6-0.8-4.2-1c0,0.3-0.1,0.6-0.1,0.9c0.7,0.4,1.5,0.8,2.2,1.2
			c0.6,1,0.6,2.1,0.5,3.1c1.3,1.3,2.7,1.3,3.9,3c-3.2-1.3-6.5-2.7-9.8-4c-0.5-0.4-0.4-0.9-1.1-1.2c-0.2,0.2-0.3,0.3-0.5,0.5
			c-0.6,2.4,4,7.1,6.6,7.2l0.1-0.1c-0.4-1.6-3.2-2.5-4.1-4.4c2.1,0.8,4.2,1.7,6.2,2.5c0.5,0.9,0.9,1.8,1.4,2.7
			c1.7,1.4,3.4,0.1,5.6,0.9c1.7,0.9,3.4,1.8,5.1,2.6c0.9,0.3,1.3-0.4,1.6-0.5c0.6,0.1,1.2,0.2,1.8,0.4c0,0.4,0.1,0.8,0.1,1.1
			c-1.1-0.2-2.2-0.3-3.2-0.5c-1.3-0.5-2.8-1.8-4.2-1.8c-0.1,0-0.2-0.1-0.4-0.1c0,0.1-0.1,0.2-0.1,0.4c0.1,0.7,0.3,0.6,0.5,1.2
			c-3.2-0.5-5.2-1.3-7-2.9c-0.1,0.1-0.2,0.2-0.4,0.2c0.4,1,0.6,1.9,1.5,2.5c2.1,1.4,9.8,4,9.4,6.5c0.5,0.2,1,0.3,1.5,0.5
			c0.1,0,0.2-0.1,0.4-0.1c0.1-0.9-0.1-1.2-0.6-1.8c0.4-0.1,0.8-0.2,1.1-0.4c0.1-0.5,0.1-0.4-0.4-0.6c0-0.1-0.1-0.2-0.1-0.2
			c0.9-0.2,1.7,0.4,2.1-0.8c1.3,1.2,1.9,2.4,4,2.9c0,0.1,0.1,0.2,0.1,0.2c-0.1,0.1-0.2,0.2-0.2,0.2c-2-0.1-2.5-1.1-4.5-1.1
			c-0.1,0.1-0.2,0.2-0.2,0.2c0,0.1,0,0.2,0,0.4c1.1,1.2,2.7,2,4.8,2c0,0.1,0.1,0.2,0.1,0.2c-0.4,0.2-0.8,0.5-1.1,0.8
			c-3.2-1.6-12.5-2.2-14.2-5.1v-0.1c1.5,0.3,3.6,2,5,1.5c0.1-0.1,0.2-0.2,0.4-0.2c-1.5-2-6.6-3.1-8.6-4.6c-0.1,0.1-0.2,0.2-0.4,0.2
			s-0.2,0.2-0.4,0.2c0.3,4.2,8,7.2,11.5,7.9c0,0.4,0.1,0.8,0.1,1.2c0.6,1.1,2.8,2.3,4.4,2.4c-0.6,0.3-1.9,0-2.6,0.5
			c-0.5-0.5-1.1-0.9-1.6-1.4c-2.3-0.9-4.1-0.5-5.4-2.2c2.2,0.1,2,0.1,3.9-0.4c-0.2-0.4-5.4-1.9-6.1-2.1c-0.2,0-0.5,0-0.8,0
			c-0.3,0.9-0.8,0.4-1.8,0.2c0,0.2-0.1,0.5-0.1,0.8c1.1,1,3.1,1.4,4.7,1.4v0.1c-0.7,0.2-0.7,0.4-1.1,0.9c-1.2-0.5-3.3-1.3-4.5-0.8
			c-0.2,0.2-0.3,0.3-0.5,0.5c0.5,1,2,1,3.2,1.1c1.9,3,1.8,2.1,5.2,3.5c0.6,0.5,1.2,0.9,1.8,1.4c0.2,0.5-0.1,0.5,0,1.1
			c0,0.1-0.1,0.2-0.1,0.2c-0.5-0.4-1.1-0.8-1.6-1.1c-0.7-0.3-1,0.1-1.6,0.2c-1.9-1.6-2.7-4.4-6-4.8c-0.1,0.2-0.2,0.5-0.4,0.8
			c1.2,1.3,2.8,2.2,4.6,2.9c-0.2,0.5-0.2,0.8-0.1,1.5c-2.7-0.2-6.2-2.5-7.4-4.4c-0.2,0-0.5,0-0.8,0c-0.1,0.7-0.2,1.4-0.2,2.1
			c1.3,0.7,3.2,1.8,3.9,3.1c0.8,0,0.9-0.1,1.1-0.6c0.7,0.3,0.5,1.1,0.9,1.9c-3-0.9-5.7-3.2-8.4-4.2c-1.9-0.8-1.7,0.1-3.5-1.2
			c-0.2,0-0.5,0-0.8,0c-0.1,0.8,0,1.2,0.5,1.8c-0.7,0.9-0.5,1.6-0.5,2.9c1.1,1.5,2.3,2.3,3.2,4.1c-0.3,0.3-0.8,0.3-1.5,0.2
			c-0.2,0.3-0.5,0.7-0.8,1l-0.1,0.1c0.1,2,5.2,4.4,6.1,2.6c0.8,0.3,1.6,0.6,2.4,0.9c0,0.1,0.1,0.2,0.1,0.4
			C475.9,356.5,475.9,356.7,475.9,356.8z M373.4,340.9c0.7-0.7,1.5-1.3,2.2-2c0.3,0.1-1.4,1.7-1.9,2
			C373.7,340.9,373.5,340.9,373.4,340.9z M334.5,321.9c0.1-0.1,0.2-0.2,0.2-0.4c0.1,0,0.2,0,0.2,0
			C334.9,321.7,334.7,321.8,334.5,321.9z M330.8,309.7v-0.1c0.1,0,0.2-0.1,0.2-0.1c0.1,0,0.2,0,0.2,0
			C331.1,309.5,330.9,309.6,330.8,309.7z M342.2,294.8c0.1-0.2,0.2-0.3,0.4-0.5h0.1C342.5,294.4,342.3,294.6,342.2,294.8z
			 M490.7,331.7c-0.2,0-0.5,0-0.8,0c-0.1,0-0.2-0.1-0.2-0.1c0-0.1,0.1-0.2,0.1-0.2C490.1,331.4,490.4,331.5,490.7,331.7z
			 M493.3,340.2c-1.2-0.4-2.3-0.8-3.5-1.2c-0.1-0.1-0.2-0.2-0.2-0.4c0.2-0.1,0.4-0.2,0.6-0.4c1.3,0.1,1.5,0.6,2.4,1
			C492.8,339.5,493,339.8,493.3,340.2z M486,348c0.1,0.1,0.2,0.2,0.4,0.2c0.3,0.4,0.1,1.2,0.5,1.8c-0.3-0.1-0.7-0.2-1-0.4
			C486.1,349.1,486.1,349,486,348z M486.9,343v0.1c-0.6-0.5-1.3-1-1.9-1.5C486.1,341.8,486.5,342.3,486.9,343z M484.5,341.4v0.1
			c-0.9,0.6-2.4-0.2-2.5-1C482.9,340.8,483.7,341.1,484.5,341.4z M485.4,349.5c-0.2,0.1-0.5,0.2-0.8,0.4c0-0.2,0-0.4,0-0.6
			C484.9,349.4,485.2,349.4,485.4,349.5z M475.4,350.5c-2.4-0.3-3.4-1.2-5.2-2c0-0.1-0.1-0.2-0.1-0.2c1.7,0.1,2.8,1.5,4.1,1
			c0.1,0,0.2,0,0.2,0c0-0.2-0.1-0.3-0.1-0.5c-0.6-0.9-2.5-1.7-3.4-3.1c1.5,0.7,2.9,1.4,4.4,2.1c-0.2,0.4-0.3,0.8-0.5,1.1
			c1,0.5,2,1.1,3,1.6c2.7,1.8,4.8,4.1,8.6,4.8v0.1c-0.3,0.2-4.3-0.6-4.6-0.9c-0.3-0.4-0.7-0.8-1-1.2
			C478.6,352.3,476.2,352.5,475.4,350.5z M478.7,354.2c-0.4-0.2-0.1,0-0.4-0.2C478.4,354,478.5,354.1,478.7,354.2z M472.2,354.3
			c-1.4-0.2-2.8-0.8-3.5-1.6c1.6,0.2,2.3,0.7,3.4,1.2C472.1,354,472.1,354.2,472.2,354.3z M480.2,350.7c1,0.2,1.7,0.8,2.1,1.6v0.1
			C481.6,351.8,480.9,351.2,480.2,350.7z M480.2,348.7c1.1,0.2,2.4,0.6,2.6,1.8C482,350.1,480.5,349.4,480.2,348.7z M480.2,346.7
			c1.3,0.3,3.2,0.7,3.6,1.9C482.7,348.2,480.7,347.6,480.2,346.7z M469.9,348.2c-0.3-0.2-0.3-0.1-0.5-0.4
			C469.9,348,469.7,347.8,469.9,348.2z M473,351.9c1.2,0.5,2.3,0.9,3.5,1.4c0.1,0.5,0.2,1,0.4,1.5C475.3,354.2,474.2,353,473,351.9z
			 M478.4,359.2c0.7,0.1,1,0.1,1.2,0.8C479.1,359.7,478.7,359.6,478.4,359.2z M477.9,356.9c-0.1,0-0.2,0-0.2,0
			c0.2-0.1,0.4-0.2,0.6-0.4c0-0.2,0.1-0.5,0.1-0.8c2,0.3,4.1,0.9,5.7,1.6c0.2-0.2,0.4-0.5,0.6-0.8c0.6,0.2,1.2,0.3,1.8,0.5
			c0.1,0.1,0.2,0.2,0.2,0.4C483.9,357.7,478.9,358,477.9,356.9z M481.8,359.4c-0.1,0-0.2-0.1-0.2-0.1c0.2-0.2,0.6-0.2,0.9-0.4
			c1.8,0.1,3.7,0.2,5.5,0.2C487.2,359.8,482.3,360.1,481.8,359.4z M483.4,351c2.1,0.3,4.2,0.7,5.2,2
			C487.3,352.4,484.6,352.2,483.4,351z M488.4,346.2c0-0.1-0.1-0.2-0.1-0.2c0.5-0.1,0.9-0.2,1.4-0.2c0.2-0.5,0.3-0.9,0.5-1.4
			c0.2,0,0.3,0.1,0.5,0.1c0,0.4,0,0.8,0,1.2c0.7,1,2.3,1.1,3,2.1c-1-0.3-1.9,0-2.9-0.4C489.9,347.1,489.4,346.4,488.4,346.2z
			 M492.2,350.3c-0.4,0.1-0.3,0.1-0.6-0.1C491.7,350.2,491.9,350.2,492.2,350.3z M491.5,353c-0.2,0.3,0,0.1-0.4,0.2
			c0-0.1,0.1-0.2,0.1-0.2C491.4,353,491.4,353,491.5,353z M490.8,350c-0.4,0.1-0.5,0.1-0.8-0.1C490.3,349.9,490.5,350,490.8,350z
			 M489.5,349.8c0.4,0.2,0.1,0,0.4,0.2C489.8,349.9,489.7,349.9,489.5,349.8z M490,351.4c0.4,0,0.8,0.1,1.1,0.1
			C490.8,351.7,490.3,351.7,490,351.4z M490.8,360.4c0.5,0.6,1,1.3,1.5,1.9C491.5,361.9,491,361.3,490.8,360.4z M492.3,353.3
			c0-0.1-0.1-0.2-0.1-0.2C492.4,353.2,492.2,353.2,492.3,353.3z M492.5,353.4c0.2,0.1,0.3,0.2,0.5,0.2c0.4,0.4,0.8,0.8,1.1,1.2
			c-0.5-0.2-1-0.5-1.5-0.8C492.6,353.9,492.6,353.7,492.5,353.4z M495.7,363.7c-0.5-0.7-0.9-1.4-1.4-2.1c0.7,0.7,1.3,1.3,2,2
			C496.1,363.6,495.9,363.6,495.7,363.7z M497.8,369.2c0.3-0.8,0.1-0.9,0.1-1.6c0.3,0.2,0.7,0.4,1,0.6
			C498.5,368.5,498.2,368.8,497.8,369.2z M519.9,380c0.2,0,0.4,0,0.6,0c1.8,1.6,2.9,3.2,4.8,4.8c0,0.1,0.1,0.2,0.1,0.4
			c-2.6,0-4.2,0.3-6,0.9c-1.2-0.6-2.1-1.4-2.4-3C518.6,382.7,519.6,381.5,519.9,380z M516.2,381.8c0-0.3,0.1-0.7,0.1-1
			c0,0.1,0.1,0.2,0.1,0.2c0.4,0.2,0.3,0.2,0.8,0.1c0.1,0,0.2,0.1,0.2,0.1C517.1,381.6,516.8,381.7,516.2,381.8z M517.7,380.9
			c0-0.1,0.1-0.2,0.1-0.2c0,0.1,0.1,0.2,0.1,0.2C517.8,380.9,517.7,380.9,517.7,380.9z M535.3,375.3c0.2-0.1,0.4-0.2,0.6-0.2
			c3.1,1.8,7.1,4.8,8.4,8.4c-4.7-0.3-7.1-4.4-11.4-4.9C533.4,377.1,534.9,376.9,535.3,375.3z M553.9,368.5c0,0.2,0,0.3,0,0.5
			c-0.3,0.3-0.6,0.7-0.9,1c-3.9,0.7-8.1-1.6-11.6-2.6c0.5-1.5,1.7-2.5,1.9-4.6C546.6,363.1,551.6,366.7,553.9,368.5z M546.1,349
			c0.2-0.4,0.3-0.3,0.6-0.5c4.7,0.3,9.9,2.4,11.8,5.7v0.1c-1.1-0.3-5.8-1.2-12.5-2.4c-0.1,0-0.2-0.1-0.4-0.1
			C545.7,350.9,546,350,546.1,349z M543.3,353.7c-0.3,0.1-0.6,0.2-0.9,0.2c-0.1-0.1-0.2-0.2-0.2-0.2c0.5-0.7,1.5-1.7,1.4-2.5
			c0.1-0.1,0.2-0.2,0.4-0.2c0.1,0,0.2,0,0.4,0C544,352,543.7,352.8,543.3,353.7z M529,341.9c2.5,2.1,5.4,3.2,8.9,4.4
			c2.9,1,4.1,0.2,6.2,1.9v0.1c-0.1,1.4-1,1-1.1,2.5c-0.5,0.1-1.1,0.2-1.6,0.4c0,0.7,0,1.5,0,2.2c-0.5-0.2-1.1-0.3-1.6-0.5
			c-0.2-0.5-0.2-0.5-0.1-1.1c-0.2-0.2-0.3-0.3-0.5-0.5c-0.1,0-0.2,0.1-0.4,0.1c-0.4,0.3-0.5,0.5-0.6,1c-3.6-0.3-10.8-3.5-11.5,1.6
			c0.6,0.6,1.2,0.8,1.1,1.9c2.7,1.5,7.6,3.2,10.2,4.2v0.1c-0.2,0.3-0.5,0.6-0.8,0.9c0.3,0.5,0.1,0.5,0.8,0.6
			c0.2-0.1,0.3-0.2,0.5-0.2c0-0.3,0.1-0.7,0.1-1c0.1,0,0.2,0.1,0.4,0.1s0.3,0,0.5,0c-0.1,1.1-0.5,1.9-0.2,2.8c0.2,0,0.4,0,0.6,0
			c0.5-0.3,0.8-1.3,1-1.9c0.1,0,0.2-0.1,0.2-0.1c0.3,0.5,0.4,0.9,0.4,1.8c-0.5,0.3-0.9,0.7-1.4,1c0.1,0.8,0.3,0.7,0.5,1.2
			c-0.1,0.2-0.2,0.3-0.4,0.5c-0.2,0-0.4,0-0.6,0c0-0.4,0-0.8,0-1.2c-0.5-0.2-0.6-0.2-1.2-0.1c-0.1,0.5-0.1,0.7,0.1,1.1
			c-1.1,0.7-3.7-1-4.8-1.5c-3.4-1.5-7-3.6-10.9-2.1c-0.2,0.2-0.3,0.4-0.5,0.6c0.2,2.4,10,10.4,11.6,10.6c0.1,0.3,0.2,0.7,0.2,1
			c-0.3,0.3-0.2,0.4-0.8,0.5c-0.3-0.5-1.3-0.6-2-0.6h-0.1c0,0.3-0.1,0.6-0.1,0.9c0.4,0.3,0.4,0.3,1.1,0.4c0.1,0.3,0.2,0.7,0.4,1
			c-0.2,0.1-0.4,0.2-0.6,0.2c-0.2-0.5-0.2-0.5-0.8-0.6l-0.1,0.1c0.2,0.2,0.5,0.5,0.8,0.8c-0.9,0.7-1.4,0.3-2.2,0
			c0-0.1-0.1-0.2-0.1-0.2c0.4-0.6,0.7-1,1.1-1.5c-0.4-0.9-1.6-1.2-2.8-1c0.2,0.3,0.5,0.7,0.8,1c0,0.2-0.1,0.5-0.1,0.8
			c-0.1,0.1-0.2,0.2-0.2,0.2c-3.5-1.7-13.7-7.9-15.4-5.6c-0.6,1.4,0.7,2.3,0.8,3.5c-0.6-0.1-0.7,0-1.2,0.1c0,0.4,0,0.8,0,1.1
			c0.1,0.1,0.2,0.2,0.2,0.2c0.3,0,0.7-0.1,1-0.1c0-0.4,0-0.8,0-1.1c1.8,1.3,3.4,3,5,4.5c-0.2,0.5-0.3,1-0.5,1.5h-0.1
			c-0.1-0.6-0.2-1.2-0.4-1.8c-0.4-0.2-0.8-0.5-1.2-0.8h-0.1c-0.5,0.9,0.1,1.6,0,2.8c-0.3,0-0.7-0.1-1-0.1c-0.6,0.3-0.7,0.4-0.6,1.4
			c-0.1,0-0.2,0.1-0.2,0.1c-0.8-1,0.1-1.5,0.2-2.6c-0.4-0.2-0.4-0.2-0.8-0.1c-0.5,0.8-0.9,1.7-1.4,2.5c-1.8-0.9-2-2.2-3.1-3.6
			c-0.6-0.3-1.2-0.7-1.8-1c-2.1,0.2-2.8,1.5-4.1,2.4h-0.1c0.3-3.1,1.8-6.1,2.5-9.1c-0.6-1.1-2.2-2.1-3.6-2.4
			c-0.7-3.1-1.2-4.6-5.2-4.6c-0.7-1.1-1.5-2.2-2.2-3.2c-0.2-0.2-0.5-0.5-0.8-0.8v-0.1c1.9,0.3,7.4,2.5,7.8,0.6c-1-1-2-2.1-3-3.1
			v-0.1c1.1,0.3,2.5,0.4,3.5,0.1c0.3-0.4,0.4-0.5,0.4-1.2c-0.6-0.8-1.3-1.6-1.9-2.4c-0.1-0.1-0.2-0.2-0.2-0.2c1.3-0.5,2.8-0.1,3.6-1
			c0.3-2-1.1-2.7-1.5-4.4c0.7-0.1,1.3-0.2,2-0.2c0.2-0.3,0.3-0.6,0.5-0.9c-0.1-1.3-0.9-1.9-1.5-2.8c1.3-1.3,3.2-1.3,4.4-2.8
			c-0.2-1.7-1.3-1.9-1.9-3.4c1.4-0.4,3.3-0.5,3.9-1.8c0.5-1.8-2-1.3-2.1-3.1c0.9-0.7,2.1-0.7,2.9-1.2c2.5,0,3.3,0.3,5.5,0.6
			c1.7,0,3.5-0.1,5.2-0.1c3.9-0.4,7.6,0,12,0.5c0.1,0.6,0.3,1,0.5,1.4c0.2,0,0.4-0.1,0.6-0.1c0.4-0.4,0.4-0.6,0.4-1.1
			c0.5,0,1.1,0,1.6,0c0,0.4-0.1,0.8-0.1,1.1c-0.8,0.2-1.5,0.7-2,1.2c0,0.2-0.1,0.3-0.1,0.5c0.2,0.1,0.3,0.2,0.5,0.4
			c0.9,0,1.5-0.5,1.9-1.1c0.1-0.4,0-0.5-0.1-0.9c0.4,0,0.8,0,1.1,0c0.1,0.2,0.2,0.5,0.4,0.8c1.2,0,1.8-0.7,2.2-1.5
			c0.4,0,0.8,0,1.1,0c0,0.1,0.1,0.2,0.1,0.4c0.1,0,0.2,0.1,0.2,0.1c-0.7,0.2-1.4,0.3-2.1,0.5c-0.3,0.4-0.2,0.8,0,1.2
			c-0.4-0.2-0.7-0.4-1.1,0c-0.3,0.5-0.2,0.6,0,1.1c0.2,0,0.4,0,0.6,0c0.3,0.1,2.6-1.7,2.6-2.5h0.1c0.1,0,0.2,0.1,0.4,0.1
			c0.2,0.6,0.4,1.1,0.4,2c-0.9,0.4-1.4,0.2-2.2,0c-0.6,0.7-1.4,1-1.8,1.9c-0.5-0.1-1-0.2-1.5-0.2c-0.1,0-0.2,0-0.2,0
			c0.2-0.4,0.3-0.8,0.5-1.1c-0.3-0.3-0.4-0.4-1.1-0.4h-0.1c-0.4,0.6-0.3,0.8-0.1,1.5c-2.5,0-5.3,0.1-6.8,1.2
			C528.6,339.4,528.9,340.6,529,341.9z M393,249.3c1.5-0.5,3-1.1,4.5-1.6c1.2-0.1,2.3-0.2,3.5-0.4c0.1,0,0.2,0,0.2,0
			c0-0.2-0.1-0.5-0.1-0.8c-1,0-2-0.1-3-0.1c-1.9,0.5-3.8,1.1-5.6,1.6c-0.4,0.2-0.4,0.2-0.5,0.8C392.3,249,392.4,249.4,393,249.3z
			 M410.5,248.2c0-0.2-0.1-0.3-0.1-0.5c-1-0.3-2.2-0.5-3.2-0.6c-1.4,0.9-3.6,1.4-4.9,1.9c0,0.1-0.1,0.2-0.1,0.4s0,0.3,0,0.5
			c1.8,0.2,4.6-1.6,8.2-1.5C410.4,248.2,410.5,248.2,410.5,248.2z M396.3,253.4c-1.5,0.7-2.8,0.9-4,1.8c0.1,0.4,0.2,0.8,0.2,1.1
			c0.2,0.1,0.4,0.2,0.6,0.2c0.1,0,0.2,0.1,0.4,0.1c1.5-2,3.2-1.7,5.6-2.9c0.1,0,0.2,0,0.2,0v-0.1
			C398.9,253.2,397.2,253.4,396.3,253.4z M432.4,258.9c0.2-0.2,0.2-0.2,0.2-0.6c-0.8-1-1.9-1.3-3.5-1.2c0,0.3-0.1,0.7-0.1,1
			c0,0.1,0.1,0.2,0.1,0.2C430.5,258.5,431.3,258.5,432.4,258.9z M384.2,258.9c0.1-0.1,0.2-0.2,0.4-0.2c0-0.2-0.1-0.3-0.1-0.5
			c-0.3-0.4-0.1-0.3-0.8-0.4c-2.3,0.9-4.7,1.8-7,2.6c0,0.3-0.1,0.6-0.1,0.9C379.1,262,381.5,259.2,384.2,258.9z M450.7,271.9
			c-0.3-0.3-0.2-0.2-0.8-0.2c-0.2,2,2.1,4.6,3.1,6c0.2,0,0.3,0,0.5,0C453.5,275.8,451.8,273,450.7,271.9z M364.2,282.4
			c0.5,0.1,5.6-4.5,6.6-5.2c0-0.2,0-0.5,0-0.8c-0.2-0.1-0.5-0.2-0.8-0.2c-1.2,1.1-5.4,4.7-6.6,5.2c0.1,0.3,0.2,0.7,0.2,1
			C363.8,282.4,364,282.4,364.2,282.4z M455.5,280c0.3,0,0.6,0,0.9,0c0-0.3,0.1-0.6,0.1-0.9c-1-0.7-1.5-1.4-3-1.5
			C453.7,279.5,454.9,278.9,455.5,280z M390.5,286.5c0.8,0.8,1.2,1.1,2.5,1.1c0.5-0.4,0.9-0.8,1.4-1.1c0-0.3,0-0.6,0-0.9
			c1.3,0.1,3.4,2,3.5-0.4c-2.7-3.7-8.6,0-11.9,0.8c-0.2,0.4-0.3,0.4-0.4,1.1c0.1,0.1,0.2,0.2,0.4,0.4
			C387.5,287.6,388.7,286.6,390.5,286.5z M454.3,284.8c-0.5,1.9,0.5,5.5,1.2,7.5c1.4-0.6-0.2-5.7-0.4-7.1
			C454.7,284.8,454.8,284.9,454.3,284.8z M356,287.3c0-0.2-0.1-0.3-0.1-0.5c-0.2-0.4-0.3-0.4-0.9-0.5c-1.6,1.9-3.5,3.8-5.5,5.2
			c0,0.3,0.1,0.6,0.1,0.9C352.1,292.4,354.3,288.6,356,287.3z M405.2,288.9c-1.6,0.7-2.9,2.2-4.4,2.9c0,0.2,0,0.5,0,0.8
			c0.1,0,0.2,0.1,0.4,0.1c1.6-0.2,5.1-2.5,6.5-3c2.1-0.7,5.9-0.5,7.5,0.5c0.3,0.5,0.6,0.9,0.9,1.4c0.8,0.2,1.6,0.4,2.4,0.6
			c3.2,1.4,4.8,3.1,6.4,6.1h0.1c0.2,0,0.4,0,0.6,0c1-5.5-5-6.5-8.9-7.9c-0.5-0.5-0.9-0.9-1.4-1.4c-1.3-0.8-3-0.9-4.9-1.2
			C408.7,288.2,406.9,288.5,405.2,288.9z M434.5,294.9c0.9,1.5,1.4,1.5,3.6,1.4c1,1.1,2.2,3.1,3.4,3.9c0.2-0.2,0.3-0.5,0.5-0.8
			c0-0.5,0.1-1.1,0.1-1.6c-1.7-2-4.9-6.2-7.8-6.8c-0.1,0.1-0.2,0.2-0.4,0.2C433.8,293,435.1,293,434.5,294.9z M364.2,294.5
			c3.5,0.4,8.3-0.8,11.9-1.5c4.1-0.8,8.2-0.3,12.6-0.1c0.1-0.2,0.2-0.5,0.2-0.8c-1.3-0.6-3.5-1-5.8-1c-6.3,0.9-12.6,1.8-18.9,2.8
			C364.2,294.1,364.2,294.3,364.2,294.5z M389,295.7c-4.9,1.4-9.8,3.4-14.4,5.4c-1.8,0.8-6.1,1.5-6.9,3.2c2.3-0.5,4-1.6,6-2.4
			c7.9-2.9,17.3-7.1,27.6-6.9v-0.1c-0.9-0.7-2.1-0.9-3.8-0.9C394.8,294.6,391.9,295.1,389,295.7z M402.7,295.2
			c0-0.1-0.1-0.2-0.1-0.4c-0.3,0-0.7-0.1-1-0.1c0.1,0.1,0.2,0.2,0.2,0.4c0.1,0,0.2,0.1,0.4,0.1C402.3,295.2,402.5,295.2,402.7,295.2
			z M400.9,297.2c-0.2,0.6,0.2,1,0.6,1.2c1.3-0.1,3.2-1.6,4.9-1c0.1,0,0.2,0,0.2,0c-0.3,0.7-0.4,0.5-0.4,1.5c1.6,1.7,4.5,2,6.4,0.1
			c0-0.1,0.1-0.2,0.1-0.4c-0.1-0.1-0.2-0.2-0.2-0.4c-0.4-0.1-0.1,0-0.5,0.1c-1.7-1.9-2.6-3.2-6.9-3.1
			C403.9,295.9,401.7,295.8,400.9,297.2z M416,298.3c-0.4,0.1-0.8,0.2-1.2,0.2c-0.2,0.4-0.5,0.8-0.8,1.1c0,0.5-0.1,1-0.1,1.5
			c0.7,0.7,1.6,1.1,2.2,1.9c1.4,0,2.5-0.4,3.1-1.5c1.4,0.1,1.7,1.2,2.2,2.1c0.6,0,1.1-0.1,1.6-0.4
			C423.8,300.1,419.1,298.2,416,298.3z M459.7,301.5c0-0.2-0.1-0.5-0.1-0.8c-1-0.6-1.7-1.5-3.1-1.6c-0.1,0.1-0.2,0.2-0.4,0.4
			c0,0.2,0,0.4,0,0.6c1,0.6,2,1.5,3.4,1.6C459.5,301.7,459.6,301.6,459.7,301.5z M356.8,300.7c-2,1.1-3.9,2.2-5.9,3.2
			c-0.1,0.1-0.2,0.2-0.2,0.4c0,0.2,0,0.3,0,0.5c1.3,0.2,6.4-2.3,6.9-3.2C358,300.8,357.2,300.8,356.8,300.7z M409.5,318.4
			c0.3-0.3,0.7-0.7,1-1c0-0.4,0-0.8,0-1.1c-0.5,0-0.9,0-1.4,0c0.5-0.5,1-1.1,1.5-1.6c0.2-0.6,0.2-2.5-0.2-2.9c0.8-0.4,1.3-0.9,1.1-2
			c3.6-0.1,6.6-0.4,8.8-2.5c0-0.2-0.1-0.4-0.1-0.6c-1.7-0.2-4.1,1.2-5.2,1.6c-1.4-0.1-2.8-0.2-4.1-0.2c-3.8-0.6-7.2-1.4-8.5-4.4
			c-0.1-0.1-0.2-0.2-0.4-0.4c1.2-0.3,2.5-0.6,3.8-0.9c0.1,0,0.2,0,0.2,0c0-0.1,0-0.2,0-0.4v-0.1c-0.6-0.1-1.3-0.2-1.9-0.2
			c-1.2,0.5-2.4,0-3.6,0.4c-2.4,0.7-8.6,2.6-10.1,4v0.1c3.4-0.9,6.8-1.8,10.1-2.6c1.3,2.6,3.3,5,6.8,5.5c0.9,2.2-2.9,5.1-3.4,6.9
			c-0.5-0.2-0.8-0.3-1.2,0c-0.1,0-0.2,0-0.2,0c-0.1,1.4,0.3,2,1.2,2.4c0.3,0.1,1.8-0.6,2.2-0.8c0.8-0.5,1.1-1.7,1.8-2.2
			c0.1,0.3,0.2,0.7,0.2,1c0.3,0.4,0.6,0.3,1,0.5C408.4,317.6,408.5,318.3,409.5,318.4z M410.4,309.7c-0.4,0.3-0.8,0.6-1.1,0.9
			c0-0.3-0.1-0.7-0.1-1C409.6,309.6,410,309.6,410.4,309.7z M408.2,314.4c0,0.1-0.1,0.2-0.1,0.2c-0.2-0.6,0-1.3-0.2-1.9
			c0.3-0.2,0.7-0.3,1-0.5c0.2,0,0.4,0,0.6,0C409,312.9,408.6,313.8,408.2,314.4z M440.3,308.5c-1.3-4.1-12.3-5-17.6-4.8
			c0,0.2,0.1,0.4,0.1,0.6c0.8,1.1,4.3,0.4,5.8,0.6c4.5,0.8,7.5,1.7,11.2,3.5C439.9,308.5,440.1,308.5,440.3,308.5z M464.4,315
			c0.1,0,0.2-0.1,0.2-0.1c0.2-1.6-1.3-5.3-3-5.5c-0.3,1.5,1.5,4.5,2.2,5.6C464.1,315,464.2,315,464.4,315z M397.8,311.7
			c0-0.2,0-0.5,0-0.8c-1.9-0.4-4.4-0.4-6.5-0.8c-2.7,1.1-12-0.1-13.5,2C381,311.2,394.3,310.5,397.8,311.7z M417,311
			c0,0.2-0.1,0.5-0.1,0.8c2.3-0.6,9.4,1.9,11.1,0.1C426.7,310.8,419.5,311,417,311z M398.9,311.7c-0.3-0.2-0.6-0.3-0.9-0.5
			c0.1,0.5,0,0.3,0.2,0.5c0.1,0.1,0.2,0.2,0.2,0.2C398.5,311.9,398.6,311.8,398.9,311.7L398.9,311.7z M445.9,315.5
			c-0.8-1-4.8-3.5-6.4-3c-0.2,0.2-0.2,0.2-0.4,0.5c1.3,1.2,4.7,3,6.8,3.1C445.9,315.9,445.9,315.7,445.9,315.5z M360.7,313.2
			c-0.9,0.4-1.8,0.8-2.6,1.1c-0.1,0.3-0.2,0.7-0.2,1c0.1,0.1,0.2,0.2,0.4,0.4c1.4-0.5,2.8-0.9,4.1-1.4c0-0.2-0.1-0.5-0.1-0.8
			C361.7,313.3,361.5,313.1,360.7,313.2z M335.5,316.3c-0.4,0.2-0.5,0.6-0.4,1c0.9,0.8,10.7-2.9,11.1-3.6v-0.1
			c-0.6,0-1.3-0.1-1.9-0.1C341.4,314.7,338.3,315.3,335.5,316.3z M277.2,313.7c-0.1,0.1-0.2,0.2-0.2,0.4s0,0.4,0,0.6
			c0.4,0.2,0.4,0.3,1.1,0.4c0.2-0.2,0.3-0.5,0.5-0.8c-0.1-0.1-0.2-0.2-0.4-0.4C277.9,313.7,277.7,313.7,277.2,313.7z M272.5,313.8
			c-0.2,0.2-0.5,0.4-0.8,0.6c0,0.2,0,0.4,0,0.6c0.2,0.1,0.3,0.2,0.5,0.2c0.4,0.1,0.8,0.2,1.2,0.2c0.1,0,0.2-0.1,0.2-0.1
			c0.1-0.2,0.2-0.5,0.2-0.8c-0.2-0.2-0.5-0.5-0.8-0.8C273,313.9,272.8,313.8,272.5,313.8z M283.7,314.4c-0.3-0.1-0.7-0.2-1-0.4
			c-0.2,0.2-0.4,0.4-0.6,0.6c0,0.2,0,0.3,0,0.5c0.1,0.1,0.2,0.2,0.4,0.2c0.1,0.1,0.2,0.2,0.2,0.2c0.3-0.1,0.4-0.1,0.6-0.4
			C283.7,314.9,283.6,314.8,283.7,314.4z M401.4,315.7c-0.2,0-0.3,0.1-0.5,0.1c-0.5,1-0.3,2.3-0.1,3.4c0.4,0,0.8,0.1,1.2,0.1
			c0.2-0.1,0.3-0.2,0.5-0.4c-0.3-0.9-0.5-1.6-0.5-3C401.8,315.8,401.6,315.7,401.4,315.7z M424.4,317c4.1,0.4,7.6,1,10.8,3
			c0.1,0,0.2-0.1,0.2-0.1c-1.4-4.5-13.3-4.4-18.8-3.9c0,0.2,0,0.4,0,0.6C418.6,317.8,421.6,316.8,424.4,317z M399.4,319
			c0.2,0.1,0.3,0.2,0.5,0.2c0.2-0.2,0.4-0.3,0.6-0.5c-0.2-0.8-0.5-1.6-0.8-2.4c-0.3-0.5-0.6-0.4-1.1-0.5
			C398.1,316.8,398.3,318.5,399.4,319z M421.8,325.9c-0.5-0.2-0.8-0.2-1.4,0c0-0.3,0-0.7,0-1c-0.4-0.3-0.5-0.4-1.2-0.4h-0.1
			c-0.2,0.5-0.5,0.9-0.8,1.4c0.3,0.5,0.1,0.6,0.8,0.9c-0.6,0.4-1.4,0.1-2.2,0.1c-0.6,1-0.9,1.3-1.9,1.6c-0.5-0.4-0.5-0.9-1.1-1.2
			c-1.1-0.3-3.3,1.2-4.5,1.6c-0.6-0.5-1.2-1.1-1.8-1.6c-0.8-0.5-2.9,1.4-3,2.5c-0.5,0.1-0.6,0-1.1-0.1c-0.2-1.4-0.8-1.9-1.1-3.2
			c-0.5-0.3-0.8-0.3-1.4-0.2c-0.1,0.3-0.2,0.6-0.4,0.9c-0.1,0-0.2,0.1-0.2,0.1c-0.1,0-0.2-0.1-0.2-0.1c0-1.3,0.4-2.6-0.6-3.4
			c-0.7-0.1-0.9-0.1-1.4,0.2c-0.2-0.9-0.4-1.8-0.6-2.8c-0.7-0.5-1.8-0.9-2.6-1.1c0-0.1-0.1-0.2-0.1-0.2c0.3-0.2,0.2-0.1,0.4-0.5
			c0.4,0.2,0.8,0.4,1.2,0.6c0.7-0.5,3.8-1.4,1.1-3.2c-0.5-0.4-0.8-0.1-1.2,0.2c-0.6-0.4-0.7-0.4-1.4-0.6c-0.3,0.8-0.2,1.4,0.1,2.1
			c-0.6-0.3-0.9-1.1-1.1-1.8c-0.3-0.2-0.4-0.2-1-0.2c-0.8,1.5,0.7,2.7,1.5,3.8c-1.7,2.8,2,7.2,3.6,8.6c6.5,5.8,18.6,2.9,24-1.9
			C421.9,326.6,421.8,326.2,421.8,325.9z M395.2,318.5c0,0.2,0,0.3,0,0.5c-0.1-0.2-0.2-0.3-0.4-0.5
			C394.9,318.5,395,318.5,395.2,318.5z M397.3,325.4c-0.5-0.3-0.7-0.4-0.9-1c-0.2-0.3-0.2-0.2-0.1-0.6c0.4,0.7,0.5,1,1.1,1.5
			L397.3,325.4z M408,330c-0.6,0.1-1.3,0.2-1.9,0.2c0-0.1-0.1-0.2-0.1-0.2c0.2-0.2,0.5-0.4,0.8-0.6c0.4,0.2,0.8,0.3,1.2,0.5
			C408,329.9,408,330,408,330z M412.5,329.5h-0.1c0.2-0.2,0.3-0.4,0.5-0.6c0,0.2,0.1,0.3,0.1,0.5
			C412.9,329.4,412.7,329.5,412.5,329.5z M453.7,316.9c-0.2,0-0.3,0.1-0.5,0.1c-0.3,1.5,2.1,3.7,3.5,3.4c0.1,0,0.2,0,0.2,0
			C456.7,319.2,454.7,317.3,453.7,316.9z M392.9,319.9c-0.6-0.9-1.9-2-2.9-2.5c-0.6,1.2,0.6,2.4,1.5,3c0.4,0,0.8,0.1,1.2,0.1
			C392.8,320.3,392.9,320.1,392.9,319.9z M412.2,321.7c1.3-0.2,1.5-1.2,1.5-2.5c-0.8-0.4-1.2-1.1-2.2-1.2c-0.6,0.7-1.4,1-1.9,1.8
			c0,0.3,0.1,0.7,0.1,1C411.2,320.6,411.5,320.7,412.2,321.7z M414.5,322.7c0.6-0.4,1-0.8,1.2-1.5c0-0.2,0-0.4,0-0.6
			c-0.3-0.5-0.7-0.6-1.4-0.8c-0.3,0.5-1.2,1.7-0.5,2.4C414.1,322.5,414.1,322.5,414.5,322.7z M416.5,323.8c0.4-0.5,0.8-0.9,1.1-1.4
			c0-0.2,0-0.3,0-0.5c-0.1,0-0.2,0-0.2,0c-0.4-0.1-0.8-0.2-1.2-0.2c-0.2,0.1-0.5,0.2-0.8,0.4C415.3,323.2,415.4,323.7,416.5,323.8z
			 M436.2,328.3c0.1-0.1,0.2-0.2,0.2-0.4c-2.2-2.1-5.2-3.4-8.5-4.4c-1-0.3-2.4,0.1-3.5-0.2c-0.9-0.3-1.3-0.9-2.2-1
			c0,0.1,0,0.2,0,0.2c-0.3,0.3-0.2,0.3-0.2,0.9c1.2,1.4,4.2,1.1,6.2,1.6c3,0.7,5.2,1.8,7.4,3.2C435.7,328.3,435.9,328.3,436.2,328.3
			z M417.8,325.2c0.4-0.4,0.8-0.8,1.2-1.1c-0.1-0.6-0.2-0.8-0.6-1.1c-0.2,0-0.5,0.1-0.8,0.1c-0.2,0.3-0.4,0.7-0.6,1
			c0,0.3,0.1,0.6,0.1,0.9C417.4,325,417.6,325.1,417.8,325.2z M372.8,324.4c-0.6-0.6-1.5-0.9-2.6-0.9c-2.7,1.2-5.3,1-7.4,2.4
			c0,0.1,0,0.2,0,0.4v0.1c0.2,0.1,8.4-1.2,9.9-1.6C372.7,324.7,372.7,324.5,372.8,324.4z M459,326.3c0,0.2,0,0.4,0,0.6
			c2.7,1.4,4.6,3.4,7.1,4.9c0.2,0,0.3,0,0.5,0c0-0.1,0.1-0.2,0.1-0.4c-1.1-2.1-5.1-5.3-7.5-5.5C459.2,326,459.1,326.2,459,326.3z
			 M476.4,332c0.1,0,0.2,0,0.2,0c0-0.2,0.1-0.4,0.1-0.6c-2.6-1.2-3.8-3.3-6-5c-0.2,0-0.3,0.1-0.5,0.1c-0.1,0.1-0.2,0.2-0.2,0.4
			C470.6,328.3,474.3,332.8,476.4,332z M373.2,326.7c-1,0.8-2.2,1.6-3.4,1.9c0.1,0.1,0.2,0.2,0.4,0.4c-0.7,0.5-1.3,0.9-2,1.4
			c0,0.1,0,0.2,0,0.4v0.1c0.2,0.1,0.5,0.2,0.8,0.4c0.9-0.4,5-3.2,5.6-3.9C374.2,326.7,374.1,326.6,373.2,326.7z M274,327.2
			c-0.7,0.8-0.6,1.6,0.6,1.9c0.1,0,0.2-0.1,0.4-0.1c0.2-0.4,0.3-0.4,0.4-1.1c-0.2-0.2-0.4-0.3-0.6-0.5
			C274.5,327.2,274.3,327.2,274,327.2z M420.4,328.4c0.1,0.2,0.2,0.4,0.2,0.6c0.2,0.2,0.3,0.3,0.5,0.5c0.6-0.3,1-0.5,1.2-1.1
			c0-0.3,0-0.6,0-0.9c-0.2,0-0.4-0.1-0.6-0.1C421.3,327.7,420.9,328.1,420.4,328.4z M271.5,329c-0.2,0.3-0.5,0.7-0.8,1
			c0.2,0.4,0.3,0.8,0.5,1.2c0.2,0,0.5-0.1,0.8-0.1c0.4-0.2,0.4-0.3,0.6-0.8c-0.2-0.4-0.3-0.8-0.5-1.2
			C271.9,329.1,271.7,329.1,271.5,329z M267.9,329.7c-0.3,0-0.7-0.1-1-0.1c-0.3,0.2-1,0.3-1.2,0.5c-0.3,0.4-0.2,0.7,0.1,1.1
			c0.4,0.6,1.3,0.3,2.2,0.2c0.2-0.1,0.3-0.2,0.5-0.4C268.6,330.2,268.6,329.9,267.9,329.7z M530.7,334c0.4-0.3,0.4-0.4,0.5-1
			c0-0.1-0.1-0.2-0.1-0.2c-0.2,0-0.5-0.1-0.8-0.1c-0.1,0.1-0.2,0.2-0.4,0.4c0,0.2,0.1,0.4,0.1,0.6C530.3,334,530.1,333.9,530.7,334z
			 M463.5,337.4c0.2,0,0.3,0,0.5,0c0.1-0.4,0.2-0.8,0.2-1.1c-1-1.5-2.5-3.3-4.9-3.4C459.8,334.5,462.4,336.4,463.5,337.4z
			 M454.9,334c-0.3,0-0.6-0.1-0.9-0.1c-0.2,1.1,1.1,4.1,1.9,4.9c0.2,0.3,0,0.1,0.4,0.2c0.2-0.2,0.3-0.3,0.5-0.5
			C456.2,337.4,456.2,334.9,454.9,334z M532.3,336.7c0.1-0.1,0.2-0.2,0.4-0.2c0-0.1,0.1-0.2,0.1-0.4c-0.2-0.3-0.1-0.3-0.4-0.5
			c-0.2-0.1-0.4-0.2-0.6-0.2c-0.1,0.1-0.2,0.2-0.4,0.4c0,0.2,0.1,0.5,0.1,0.8C531.8,336.5,532,336.6,532.3,336.7z M443.5,337
			c-0.1,0.1-0.2,0.2-0.4,0.2c0.2,3.2,2.2,5.5,3.5,7.8c0.2,0,0.4,0,0.6,0c0.3-1.3-2.3-5.6-2.9-7.5C444.1,337.4,443.8,337.2,443.5,337
			z M475.5,341.5c0.5-0.2,0.4-0.1,0.6-0.6c-0.9-1.7-4.4-3.7-6.8-3.9c-0.2,0.4-0.2,0.5-0.1,0.9C469.9,338.7,474.4,341.1,475.5,341.5z
			 M420.9,337.7c-0.5,0.7-0.6,2.1-1,2.9c0.3,1,0.9,1.2,1.1,2.4c0.2,0.1,0.5,0.2,0.8,0.4h0.1c0.4-1.4-0.2-3.8-0.5-5.4
			C421.2,337.8,421.1,337.7,420.9,337.7z M395.3,339.8c-0.3-0.5-0.3-0.6-0.9-0.8c-1.2,1.4-1.6,3.6-2.8,5c0,0.2,0.1,0.4,0.1,0.6
			c0,0.1,0.1,0.2,0.1,0.4C393.9,344.5,394.4,341.5,395.3,339.8z M435.9,339.3c-0.1,0.1-0.2,0.2-0.4,0.4c0.2,1.8,1.4,7.1,2.2,8.5
			c0.2,0,0.4,0,0.6,0c0.6-2-1.1-8.1-2.1-8.9C436.2,339.3,436,339.3,435.9,339.3z M397,347.8c-0.8,0.8-1.6,1.6-2.4,2.4
			c0,0.4,0,0.8,0,1.2c-0.3,0.2-0.7,0.3-1,0.5c-1.3,0.9-1.8,3.9-1.5,6c0.6,0.4,0.5,0.5,1.4,0.4c0.1-1.4-0.3-2.7,0.5-4.2
			c0.2-0.5,1-0.4,1.2-0.8c0.4-0.6,2.4-5,2.4-5.2c1.5-2.2,3.7-4.1,3.8-7.8c-0.2-0.1-0.4-0.2-0.6-0.4C398.7,342,398.7,345.4,397,347.8
			z M270.4,341.7c-0.4,0.3-0.5,0.2-0.8,0.8c0,0.3-0.1,0.6-0.1,0.9c0.1,0,0.2,0.1,0.2,0.1c0.3,0,0.7-0.1,1-0.1
			c0.2-0.2,0.3-0.3,0.5-0.5c0-0.2-0.1-0.5-0.1-0.8C270.9,341.9,270.7,341.8,270.4,341.7z M416.9,342c-1,2.5-3.1,5.5-3.2,8.2
			c1.7,0.9,3.6-5.8,4-7.5C417.4,342.4,417.3,342.2,416.9,342z M262.5,342.4c-0.2,0.2-0.3,0.3-0.5,0.5c0,0.3,0.1,0.6,0.1,0.9
			c1.6,0.4,3.2,0.1,4.5,0.2c0.2-0.1,0.4-0.2,0.6-0.4c0-0.2,0.1-0.3,0.1-0.5c-0.1-0.2-0.2-0.4-0.4-0.6
			C265.6,342.3,264.5,342.6,262.5,342.4z M339.2,342.5c-0.2,0-0.5-0.1-0.8-0.1c-0.1,0-0.2,0.1-0.4,0.1c-0.1,0.5-0.2,1.1-0.4,1.6
			c0.4,0.5,0.5,1.1,1.1,1.4c0.2,0,0.3,0.1,0.5,0.1h0.1c0.3-0.6,0.6-1.2,0.4-2C339.6,343.3,339.4,342.9,339.2,342.5z M350.7,345.3
			c0.2-1-0.1-2-0.9-2.6c-0.2,0-0.5-0.1-0.8-0.1c-0.1,0.2-0.2,0.3-0.4,0.5c0,0.1-0.1,0.2-0.1,0.4c0,1.1,0.2,1.7,1,2
			C349.9,345.7,350.1,345.5,350.7,345.3z M462.4,344c-0.4,0.1-0.8,0.2-1.1,0.4c-0.7-0.5-1.6-1.5-2.6-1.6c-0.1,0.1-0.2,0.2-0.4,0.2
			c0,1.1,7.1,7,8.2,7.2c0.3-0.3,0.3-0.3,0.4-0.9c-1-0.9-1.9-1.8-2.9-2.8C463.4,345.8,463.1,344.8,462.4,344z M329.7,343.2
			c-0.2,0-0.3,0.1-0.5,0.1c0,0.1-0.1,0.2-0.1,0.2c0.2,0.9,0.3,1.6,0.6,2.2c0.2,0.1,0.5,0.2,0.8,0.2c0.2-0.2,0.3-0.3,0.5-0.5
			c0-0.6-0.1-1.3-0.1-1.9C330.4,343.5,330,343.3,329.7,343.2z M327.2,346.8c-0.1-0.5-0.2-1.1-0.4-1.6c-0.4-0.3-0.6-0.4-1.4-0.4
			c0,0.6-0.1,1.2-0.1,1.8c0.4,0.4,0.4,0.7,1,0.9c0.1,0,0.2,0,0.4,0C326.9,347.2,327,347,327.2,346.8z M344.3,347.5
			c0.2-1.2-0.2-1.7-0.6-2.5c-0.3,0-0.6-0.1-0.9-0.1c-0.5,0.9-0.3,1.6,0,2.5c0.4,0.2,0.8,0.3,1.1,0.5
			C344,347.8,344.2,347.7,344.3,347.5z M419.7,350.8c0.2,0.2,0.4,0.3,0.6,0.5c0.1-0.1,0.2-0.2,0.4-0.2c0.1-1.8,0.2-3.7,0.4-5.5
			c-0.3-0.1-0.7-0.2-1-0.4C419.4,346.3,419.6,348.8,419.7,350.8z M336,348.3c-0.2-1-0.5-1.8-1-2.5c-0.2,0-0.5,0-0.8,0
			c-0.4,1-0.3,2.1,0.5,2.8c0.3,0,0.7-0.1,1-0.1C335.9,348.4,335.9,348.3,336,348.3z M355.7,348.8c0.3-0.7-0.1-1.8-0.5-2.2
			c-0.3-0.5-0.7-0.7-1.5-0.8c-0.4,0.8-0.6,1.7-0.2,2.9c0.2,0.5,0.3,0.6,0.9,0.8C354.8,349.6,355.4,349.2,355.7,348.8z M535.8,346.5
			c-0.3-0.1-0.6-0.2-0.9-0.2c-0.1,0.3-0.2,0.6-0.4,0.9c0.2,0.2,0.3,0.3,0.5,0.5C535.6,347.4,535.7,347.4,535.8,346.5z M531.7,347.5
			c0.3,0,0.7-0.1,1-0.1c0-0.2,0.1-0.3,0.1-0.5c-0.1-0.1-0.2-0.2-0.4-0.4c-0.2,0-0.4-0.1-0.6-0.1c-0.2,0.3-0.3,0.4-0.1,0.9
			C531.7,347.4,531.7,347.4,531.7,347.5z M349.7,346.5c-0.2,0.3-0.3,0.6-0.5,0.9c0,0.3,0,0.7,0,1c0.4,0.3,0.8,0.7,1.1,1
			c0.2,0,0.3,0,0.5,0c0.1-0.2,0.2-0.3,0.2-0.5c0.4-0.6-0.2-1.7-0.5-2.2C350.2,346.6,349.9,346.6,349.7,346.5z M539.9,348.7
			c0-0.1-0.1-0.2-0.1-0.2c0.5-0.2,0.8-0.3,1.2-0.6c0-0.1-0.1-0.2-0.1-0.4c-0.3-0.4-0.4-0.5-1.1-0.5c-0.2,1.2-0.2,2-1.2,2.4
			c0.2,0.4,0.4,0.8,0.6,1.2C540,350.4,541.4,348.8,539.9,348.7z M346.9,348c-0.3-0.3-0.6-0.7-0.9-1c-0.2,0-0.5,0-0.8,0
			c-0.3,0.9-0.2,1.6,0.1,2.4c0.3,0.2,0.6,0.3,0.9,0.5C346.9,349.4,346.8,348.7,346.9,348z M412,347.3c-0.8,1.2-1.8,4.7-1.4,6.1
			c0.2,0,0.5,0.1,0.8,0.1c1-1.6,1.1-3.5,1.8-5.6C412.8,347.5,412.8,347.4,412,347.3z M543.4,348.9c0-0.3,0-0.7,0-1
			c-0.3,0-0.7-0.1-1-0.1c-0.1,0.1-0.2,0.2-0.2,0.4c0,0.2,0,0.5,0,0.8c0.2,0.1,0.5,0.2,0.8,0.2C543.1,349.1,543.2,349,543.4,348.9z
			 M323,350.5c0.1-0.1,0.2-0.2,0.2-0.2c0.1-0.8,0.1-1.8-0.8-2.2c-0.2,0-0.5-0.1-0.8-0.1c-0.4,1.1,0,1.7,0.4,2.5
			C322.4,350.4,322.7,350.5,323,350.5z M357.9,349.9c-0.2,0-0.5,0.1-0.8,0.1c-0.2,0.4-0.3,1-0.2,1.8c0.3,0.2,0.6,0.3,0.9,0.5
			c0.5,0,1,0.1,1.5,0.1c0.3-1-0.2-1.7-0.5-2.4C358.5,350,358.2,349.9,357.9,349.9z M535,350.4c0.2,0.3,0.1,0.3,0.4,0.5
			c0.2,0.2,0.2,0.2,0.6,0.2c0.1-0.3,0.2-0.6,0.4-0.9c-0.3-0.3-0.3-0.3-1-0.4C535.3,350.1,535.2,350.2,535,350.4z M354.9,350.4
			c-0.1,0.2-0.2,0.4-0.4,0.6l-0.1,0.1c0,1.2,0.3,1.3,0.6,2c0.3,0,0.6-0.1,0.9-0.1c0.3-0.6,0.3-1.5-0.1-2
			C355.5,350.7,355.3,350.6,354.9,350.4z M336.5,350.8c-0.2,0-0.4-0.1-0.6-0.1c-0.7,1.3-0.1,2.3,0.9,3c0.1-0.1,0.2-0.2,0.2-0.2
			c0.4-0.3,0.6-0.8,0.9-1.1C337.4,351.8,337.1,351.1,336.5,350.8z M345.9,351.9c-0.4-0.2-0.8-0.4-1.2-0.6c-0.1,0-0.2,0.1-0.2,0.1
			c-0.4,0.8-0.5,2,0.4,2.4c0.4-0.1,0.8-0.2,1.2-0.2c0.5,0.2,0.6,0.9,1.5,0.5c0.4-0.2,0.3-0.3,0.5-0.8c-0.3-0.7-0.4-1.2-0.9-1.6
			C346.6,351.5,346.2,351.5,345.9,351.9z M345.7,352.3c0-0.1,0.1-0.2,0.1-0.2C345.7,352.2,345.9,352.1,345.7,352.3z M282.5,352
			c-0.2,0.2-0.3,0.3-0.5,0.5c0.1,0.3,0.2,0.6,0.2,0.9c0.1,0.1,0.2,0.2,0.2,0.4c0.6,0,0.7,0,1.1-0.4c0.3-0.2,0.1,0,0.2-0.4
			c-0.2-0.2-0.4-0.5-0.6-0.8C283,352.1,283,352.1,282.5,352z M366.4,355c0.2,0.4,0.2,0.3,0.6,0.5c1-0.6,0.7-1.3,0.4-2.4
			c-0.3-0.1-0.7-0.2-1-0.4C366,353.4,365.8,354.4,366.4,355z M278.4,352.9c-0.2,0.5-0.2,0.5-0.1,1.2c0.4,0.1,0.8,0.2,1.2,0.2h0.1
			c0.3-0.4,0.5-0.6,0.2-1.1C279.6,352.8,279.2,352.9,278.4,352.9z M326.8,353.2c-0.1,0.4-0.2,0.8-0.2,1.1c0.1,1.2,0.8,1.8,1.9,1.6
			c0.1,0,0.2-0.1,0.2-0.1c0-0.4,0.1-0.8,0.1-1.1c-0.2-0.4-0.4-0.8-0.6-1.2C327.7,353.3,327.2,353.2,326.8,353.2z M273.7,355.2
			c-0.1,0-0.2,0.1-0.2,0.1c-0.2,0.4-0.1,0.4-0.1,1.1c0.4,0.2,0.8,0.3,1.1,0.5c0.2-0.1,0.4-0.2,0.6-0.4c0-0.2-0.1-0.4-0.1-0.6
			C274.6,355.4,274.3,355.3,273.7,355.2z M276.3,356.4c-0.1,0.7,0.1,1.3,0.8,1.6c0.2,0,0.3,0.1,0.5,0.1h0.1c0.2-0.3,0.2-0.4,0.2-1
			c-0.2-0.2-0.4-0.4-0.6-0.6C276.9,356.5,276.6,356.4,276.3,356.4z M354,357c-0.3,0.7-0.2,1.6-0.1,2.2c0.3,0.2,0.6,0.3,0.9,0.5
			c0.2,0,0.5,0.1,0.8,0.1c0.2-0.2,0.3-0.4,0.5-0.6C355.9,358,355.5,357,354,357z M273.2,357.2c-0.1,0.1-0.2,0.2-0.4,0.4
			c-0.2,0.4-0.1,0.4,0,1c0.2,0.1,0.4,0.2,0.6,0.4c0.5-0.1,0.9-0.2,1.4-0.4c0-0.2-0.1-0.3-0.1-0.5C274.4,357.4,274,357.2,273.2,357.2
			z M369.8,357.7c-0.3,0-0.6-0.1-0.9-0.1c-0.3,0.8-0.2,1.7,0,2.5c0.4,0.3,0.8,0.6,1.4,0.4c0.1,0,0.2-0.1,0.4-0.1
			C370.9,359,370.6,358.2,369.8,357.7z M317.9,360.2c0.2-0.3,0.5-0.6,0.8-0.9c0-0.3,0-0.7,0-1c-0.2-0.2-0.3-0.4-0.5-0.6
			c-0.2,0-0.5,0-0.8,0c-0.2,0.5-0.3,0.9-0.5,1.4c0.2,0.3,0.4,0.7,0.6,1C317.7,360.1,317.8,360.1,317.9,360.2z M371.7,357.7
			c-0.1,0-0.2,0.1-0.4,0.1c-0.3,1.4,0,2.4,1.6,2.4C373,358.7,372.7,358,371.7,357.7z M341.4,358.9c-0.2,0.4-0.4,0.8-0.6,1.1
			c0.1,1,0.4,1.4,1.1,1.6c0.4,0.3,0.2,0.2,0.8,0.1c0.1-0.2,0.2-0.3,0.2-0.5c0-0.4,0-0.8,0-1.2C342.5,359.5,342.2,359.1,341.4,358.9z
			 M530.9,360.7c0.2-0.2,0.4-0.3,0.6-0.5c0-0.1,0-0.2,0-0.2c-0.2-0.2-0.5-0.5-0.8-0.8c-0.5,0.5-0.6,0.6-0.5,1.4
			C530.5,360.6,530.7,360.6,530.9,360.7z M534.2,360.2c0-0.2,0-0.3,0-0.5c-0.3,0-0.7-0.1-1-0.1c-0.1,0.2-0.2,0.3-0.2,0.5
			s0,0.5,0,0.8c0.2,0,0.3,0.1,0.5,0.1C533.7,360.7,533.9,360.4,534.2,360.2z M322.8,359.7c-0.6,0.6-0.7,1.1-0.8,2.1
			c0.2,0.2,0.5,0.5,0.8,0.8c0.4-0.1,0.8-0.2,1.2-0.4c0.4-0.9,0-1.5-0.4-2.2C323.4,359.8,323.1,359.7,322.8,359.7z M383.8,359.8
			c-0.1,0.1-0.2,0.2-0.4,0.4c0.2,1-0.1,1.8,0.8,2.4c0.3,0,0.6-0.1,0.9-0.1c0.1-0.5,0.2-0.9,0.2-1.4
			C384.9,360.3,384.7,360,383.8,359.8z M536.8,361c0-0.1,0-0.2,0-0.2c-0.2,0-0.5,0-0.8,0c-0.1,0.1-0.2,0.2-0.4,0.4
			c0,0.3,0.1,0.6,0.1,0.9C536.7,362,536.9,361.7,536.8,361z M472.7,363.2c0.7,1.3,2,0.4,1.9-1.1V362c-0.4-0.3-0.4-0.4-1.1-0.5
			C473,361.9,472.8,362.3,472.7,363.2z M379.4,361.9c-0.1,0.5-0.2,0.9-0.4,1.4c0.4,0.6,0.6,1,1.2,1.4c0.9-0.6,0.4-1.9,0-2.6
			C380,362,379.7,361.9,379.4,361.9z M460.4,362.2c-0.3,0.6-0.5,1.1-0.5,2.1c0.5,0.4,0.5,0.3,1.4,0.2c0.3-0.9,0.5-1.2,0.2-2.1
			C461.2,362.3,460.8,362.2,460.4,362.2z M533.4,363.2c0.3,0,0.6,0.1,0.9,0.1c0.1-0.2,0.2-0.3,0.4-0.5c0-0.2,0-0.3,0-0.5
			c-0.3,0-0.7-0.1-1-0.1C533.5,362.5,533.4,362.6,533.4,363.2z M536,364.5c0.1,0.2,0.2,0.3,0.4,0.5c0.2,0,0.3,0,0.5,0
			c0.2-0.3,0.5-0.6,0.8-0.9c0-0.2,0-0.5,0-0.8c-0.3-0.2-0.3-0.3-0.9-0.4C536.5,363.5,536.3,364,536,364.5z M440.5,363.2
			c-0.1,0.1-0.2,0.2-0.2,0.4c-0.1,0.4-0.2,0.8-0.4,1.1c0.4,0.7,0.5,0.9,1.5,0.9c0.5-0.5,0.6-0.6,0.6-1.6c-0.2-0.2-0.5-0.4-0.8-0.6
			C441,363.2,440.8,363.2,440.5,363.2z M390.8,364.7c-0.5-0.5-0.6-0.9-1.4-1.1c-0.3,0.5-0.6,1.1-0.4,1.9c0.1,0.2,0.2,0.4,0.2,0.6
			c0.3,0.2,0.6,0.3,0.9,0.5c0.2-0.1,0.3-0.2,0.5-0.2C390.8,365.6,390.8,365.5,390.8,364.7z M446.3,363.8c-0.3,0.6-0.5,1-0.5,2
			c0.2,0.1,0.3,0.2,0.5,0.2c0.6,0.5,1.2-0.4,1.4-1.1c-0.1-0.2-0.2-0.4-0.2-0.6C447.1,363.8,447,363.8,446.3,363.8z M482.9,364.4
			c-0.1,0-0.2,0.1-0.2,0.1c-0.2,0.6-0.4,1.2-0.6,1.8c0.2,0.2,0.4,0.4,0.6,0.6c0.3,0,0.6,0,0.9,0c0.3-0.4,0.4-0.8,0.5-1.5
			c-0.2-0.3-0.5-0.7-0.8-1C483.2,364.4,483,364.4,482.9,364.4z M458.3,364.8c-0.4,0.3-0.5,0.5-0.6,1c-0.2-0.2-0.2-0.2-0.2-0.6
			c-0.3-0.1-0.7-0.2-1-0.4c-0.3,0.4-0.4,0.9-0.6,1.5c0.4,0.9,0.9,0.8,1.6,0.2c0.3,0.5,0.2,0.7,0.8,1c0.5-0.2,0.8-0.4,1.1-0.9
			c0-0.4,0.1-0.8,0.1-1.1c-0.2-0.2-0.4-0.4-0.6-0.6C458.6,364.9,458.4,364.8,458.3,364.8z M478.3,365.2c-0.2,0.1-0.3,0.2-0.5,0.2
			c-0.1,0.5-0.2,1.1-0.4,1.6c0.4,0.3,0.5,0.5,1.2,0.5C479.5,366.8,479.4,365.5,478.3,365.2z M486.5,366c0-0.1-0.1-0.2-0.1-0.4
			c-0.2,0-0.5,0-0.8,0c-0.2,0.5-0.3,1.1-0.5,1.6v0.1c0.2,0.2,0.4,0.3,0.6,0.5c0.5-0.4,1-0.8,0.9-1.5
			C486.6,366.1,486.8,366.3,486.5,366z M450.2,366c-0.2,0-0.5,0-0.8,0c-0.1,0.2-0.2,0.3-0.4,0.5c-0.1,0.8,0,0.7,0.2,1.5
			c0.2,0,0.4,0.1,0.6,0.1c0.2-0.2,0.3-0.4,0.5-0.6c0-0.4-0.1-0.8-0.1-1.2C450.2,366.2,450.2,366.1,450.2,366z M288.7,366.3
			c-0.1,0.2-0.2,0.3-0.4,0.5c0,0.2-0.1,0.3-0.1,0.5c0.2,0.2,0.3,0.3,0.5,0.5c0.3,0,0.6,0,0.9,0c0.1,0,0.2-0.1,0.4-0.1
			c0-0.2,0.1-0.4,0.1-0.6C289.6,366.5,289.7,366.3,288.7,366.3z M423.8,367.3c-0.2-0.2-0.4-0.5-0.6-0.8c-0.2,0-0.5,0-0.8,0
			c-0.3,0.5-0.5,1-0.5,1.9c-0.5-0.4-0.6-0.6-1.5-0.6c-0.3,0.6-0.5,1-0.5,2c0.5,0.2,0.9,0.5,1.4,0.8c0.2-0.2,0.9-1.9,0.9-1.9
			C423,367.9,423.3,368.5,423.8,367.3z M463.7,367.7c-0.2-0.2-0.4-0.4-0.6-0.6c-0.1,0-0.2,0-0.4,0c-0.1,0-0.2,0.1-0.2,0.1
			c-0.3,0.5-0.5,1.1-0.5,2C463.1,369.8,463.7,369,463.7,367.7z M395.4,367.3c-0.2,0.2-0.5,0.5-0.8,0.8c0.2,0.6,0.4,1.2,0.6,1.8
			c0.3,0,0.7,0.1,1,0.1c0.2-0.5,0.2-1.1,0.6-1.4C396.6,367.9,396,367.5,395.4,367.3z M383.3,367.4c-0.1,0.3-0.2,0.7-0.4,1
			c0.1,1,0.5,1.2,1,1.8c0.2,0,0.3-0.1,0.5-0.1c0.1-0.1,0.2-0.2,0.4-0.2c0.1-0.8-0.2-1.5-0.5-2.2
			C383.9,367.5,383.6,367.4,383.3,367.4z M445.3,367.9c-0.4-0.3-0.4-0.4-1.1-0.5c-0.2,0.5-0.4,1-0.6,1.5c0,0.1,0.1,0.2,0.1,0.4
			c0.2,0.2,0.4,0.3,0.6,0.5C445.4,369.7,445.5,369,445.3,367.9z M344.2,368c-0.1,0.1-0.2,0.2-0.4,0.2c-0.1,1.5,0.1,2,1,2.5
			c0.3,0,0.7,0,1,0c0.4-0.6,0.5-1.5,0-2.1C345.4,368.1,345.1,368,344.2,368z M456.5,368.2c-0.3,0-0.7-0.1-1-0.1
			c-0.3,0.5-0.4,1.2-0.6,1.9C456.3,370.9,457.1,369.6,456.5,368.2z M403,368.3c-0.2,0-0.5-0.1-0.8-0.1c-0.3,0.6-0.3,1-0.2,1.9
			c0.2,0.1,0.4,0.2,0.6,0.2c0.2-0.1,0.4-0.2,0.6-0.2C403.7,369.4,403.8,368.6,403,368.3z M471.4,368.2c-0.4,0.5-0.6,1.1-0.6,2
			c0.2,0.1,0.3,0.2,0.5,0.4c0.2,0,0.3,0,0.5,0c0.2-0.4,0.4-0.8,0.6-1.2c0.1-0.4,0-0.5-0.1-0.9C472,368.3,471.7,368.2,471.4,368.2z
			 M524,369.4c0.2-0.2,0.2-0.2,0.2-0.6c-0.3-0.1-0.7-0.2-1-0.4c-0.2,0.3-0.3,0.6-0.5,0.9C523.2,369.8,523.6,370.2,524,369.4z
			 M405.9,368.7c-0.5,0.9-0.5,1.6-0.1,2.5c0.3,0.2,0.6,0.3,0.9,0.5c0.5-0.4,0.6-0.8,0.8-1.6c-0.4-0.5-0.8-0.9-1.1-1.4
			C406.2,368.7,406,368.7,405.9,368.7z M437.9,368.9c-0.2,0-0.4-0.1-0.6-0.1c-0.1,0.1-0.2,0.2-0.4,0.4c0,0.5-0.1,0.9-0.1,1.4
			c0,0.1,0.1,0.2,0.1,0.2c0.4,0.2,0.4,0.3,1.1,0.4c0.2-0.3,0.4-0.7,0.6-1c-0.1-0.3-0.2-0.7-0.2-1C438.2,369.1,438.1,369,437.9,368.9
			z M305,371.8h0.1c0.7-0.5,0.8-0.5,0.8-1.8c-0.4-0.4-0.4-0.6-1.4-0.6c-0.1,0.1-0.2,0.2-0.4,0.4c0,0.4-0.1,0.8-0.1,1.1
			C304.4,371.3,304.6,371.5,305,371.8z M410.2,369.7c-0.3,0.6-0.4,1.2-0.2,2c0,0.1,0.1,0.2,0.1,0.2c0.3,0,0.6,0.1,0.9,0.1
			c0.2-0.2,0.5-0.5,0.8-0.8C411.6,370.2,411.4,369.7,410.2,369.7z M422.7,369.7c-0.4,0.4-0.8,0.8-1.2,1.1c0.1,0.4,0.2,0.8,0.4,1.2
			c0.1,0.1,0.2,0.2,0.2,0.2c0.4,0,0.8-0.1,1.2-0.1c0.5-0.6,0.9-1.6,0.1-2.2C423.1,369.7,423.2,369.7,422.7,369.7z M446.9,369.9
			c-0.2,0-0.5-0.1-0.8-0.1c-0.2,0.2-0.3,0.5-0.5,0.8c-0.4,0.5-0.2,0.5,0,1.2c0.2,0.1,0.5,0.2,0.8,0.4c0.3-0.2,0.6-0.5,0.9-0.8
			c-0.1-0.4-0.2-0.8-0.2-1.1C447,370.2,446.9,370,446.9,369.9z M528.2,373.7c0.1-0.3,0.5-2.6,0.6-3.1v-0.1c-0.3-0.1-0.6-0.2-0.9-0.2
			c-0.1,0-0.2,0.1-0.2,0.1c-0.4,0.7-0.4,1.2-0.9,1.9c0.1,0.5,0.2,0.9,0.4,1.4C527.5,373.6,527.8,373.6,528.2,373.7z M417.5,370.9
			c-0.2-0.4-0.3-0.4-0.8-0.6c-0.2,0.1-0.3,0.2-0.5,0.2c-0.1,0.2-0.2,0.5-0.2,0.8c0,1.3,0.5,1.4,1.6,1.2
			C417.8,371.9,417.8,371.4,417.5,370.9z M317.5,370.4c-0.2,0.1-0.5,0.2-0.8,0.2c-0.1,0.6-0.2,1.3-0.2,1.9c0,0.1,0.1,0.2,0.1,0.2
			c0.4,0.3,0.7,0.4,1.4,0.5c0.4-0.5,0.5-0.7,0.8-1.4C318.4,371.2,318.2,370.8,317.5,370.4z M522.4,372.7c0.6,0,0.5,0,1-0.2
			c0.1-0.3,0.2-0.7,0.2-1c-0.4-0.1-0.8-0.2-1.1-0.4c-0.1,0.5-0.2,0.9-0.2,1.4C522.3,372.5,522.4,372.6,522.4,372.7z M494.8,373.9
			c1.1,0,1-0.4,1.4-1c0-0.4-0.1-0.8-0.1-1.1c-0.2-0.1-0.4-0.2-0.6-0.2c-0.8,0.6-1,1.1-0.9,2.2C494.6,373.8,494.7,373.9,494.8,373.9z
			 M529.8,373.3L529.8,373.3c0.3-0.2,0.4-0.4,0.6-0.6c0-0.2,0-0.4,0-0.6c-0.3,0-0.7-0.1-1-0.1c-0.1,0.1-0.2,0.2-0.4,0.4
			C529.1,373,529.2,373.1,529.8,373.3z M525.3,374.2c0.7-0.6,0.4-0.9,0.1-1.6c-0.3-0.1-0.6-0.2-0.9-0.4c-0.1,0.3-0.2,0.6-0.4,0.9
			C524.4,373.7,524.5,374,525.3,374.2z M489,372.5c-0.3,0-0.6-0.1-0.9-0.1c-0.5,0.6-0.8,0.8-0.8,2c0.2,0.1,0.5,0.2,0.8,0.4
			c0.8-0.1,0.8-0.4,1.1-0.9c0-0.3-0.1-0.7-0.1-1C489.1,372.8,489.1,372.7,489,372.5z M375.7,372.9c-0.2,1-0.1,1.8,0.5,2.2
			c0.4,0.3,0.7,0.2,1.1,0.1c0-0.7,0-1.4,0-2.1c-0.4-0.2-0.8-0.3-1.1-0.5C376,372.7,375.8,372.8,375.7,372.9z M509.4,373.7
			c0,0.2,0,0.4,0,0.6c0.2,0.1,0.3,0.2,0.5,0.4c0.2,0,0.5-0.1,0.8-0.1c0-0.4,0-0.8,0-1.2c-0.3,0-0.7,0-1,0
			C509.6,373.4,509.5,373.5,509.4,373.7z M327,373.4c-0.3,0.6-0.6,1-0.6,2c0.2,0.2,0.4,0.3,0.6,0.5c0.4-0.1,0.8-0.2,1.2-0.4
			c0-0.4,0-0.8,0-1.1c-0.1-0.3-0.2-0.6-0.4-0.9C327.6,373.5,327.3,373.4,327,373.4z M462.2,374c0,0.5-0.1,1-0.1,1.5
			c0.1,0.1,0.2,0.2,0.2,0.4c0.2,0,0.5,0,0.8,0c0.4-0.6,0.5-1,0.8-1.9c-0.4-0.3-0.5-0.5-1.1-0.6C462.5,373.6,462.3,373.8,462.2,374z
			 M445.7,375.2c-0.7,0.5-0.6,0.8-0.8,1.6c0.1,0.2,0.2,0.4,0.4,0.6c0.2,0,0.4-0.1,0.6-0.1c0.5-0.3,0.7-0.6,0.8-1.4
			c0-0.1-0.1-0.2-0.1-0.2C446.2,375.5,445.9,375.3,445.7,375.2z M296.8,375.3c-1,0.6-1,0.8-0.9,2.1c0.2,0.2,0.4,0.3,0.6,0.5
			c0.5,0.4,1.2,0,1.6-0.4C297.8,376.4,297.7,375.9,296.8,375.3z M417.4,376c-0.6,1.2-0.4,2.5,1.1,2.2c0.1-0.2,0.2-0.5,0.2-0.8
			c-0.1-0.4-0.2-0.8-0.2-1.2C418.2,376.2,417.8,376.1,417.4,376z M413.8,376.2c-0.1,0.1-0.2,0.2-0.2,0.4c-0.3,0.4-0.2,1-0.2,1.5
			c0,0.1,0.1,0.2,0.1,0.2c0.4,0.1,0.8,0.2,1.2,0.2c0.2-0.2,0.3-0.3,0.5-0.5C415.1,376.8,414.8,376.5,413.8,376.2z M425.9,376.5
			c-0.3,0-0.6-0.1-0.9-0.1c-0.2,0.2-0.3,0.4-0.5,0.6c-0.1,1.2,0.3,1.5,1.4,1.2c0.2-0.4,0.4-0.9,0.1-1.4
			C426,376.8,425.9,376.7,425.9,376.5z M455.9,376.5c-0.2,0.3-0.3,0.7-0.5,1c0,1,0.2,0.9,0.6,1.4c0.2,0,0.3-0.1,0.5-0.1
			c0.6-0.3,0.8-0.7,0.8-1.6C456.8,376.7,456.8,376.5,455.9,376.5z M511.3,377.8c0.2,1.6,3.4,0.5,4.6,0.1c-0.1-0.3-0.2-0.6-0.4-0.9
			c-0.7-0.1-1.3-0.2-2-0.2c-0.2,0.3-0.3,0.6-0.5,0.9c-0.5-0.1-0.9-0.2-1.4-0.2C511.5,377.5,511.4,377.7,511.3,377.8z M480.4,377.8
			c-0.2,0.4-0.3,0.8-0.5,1.2c0,0.3,0,0.6,0,0.9C481.7,380.4,482.2,377.8,480.4,377.8z M391.9,378.2c-0.2,0-0.5,0-0.8,0
			c-0.2,0.4-0.3,0.8-0.5,1.1c0.2,0.4,0.4,0.8,0.6,1.2c0.2,0.1,0.3,0.2,0.5,0.2s0.4,0,0.6,0c0.1-0.7,0.3-1.1,0.1-1.8
			C392.3,378.7,392.1,378.4,391.9,378.2z M291.8,381.2c0.3,0,0.6,0.1,0.9,0.1c0.1-0.2,0.2-0.4,0.4-0.6c0.2-0.2,0.2-0.8,0.2-1.4
			c-0.5-0.1-0.9-0.2-1.4-0.4C291.3,379.7,291.5,380.2,291.8,381.2z M284.8,379.8c-0.3,0.4-1.2,1.4-0.4,2.1c0.2,0.1,0.4,0.2,0.6,0.4
			c0.3,0,0.6-0.1,0.9-0.1c0.3-0.8,0.2-1.4-0.1-2.1C285.4,379.9,285.1,379.9,284.8,379.8z M316.4,380.4c-0.2,0.2-0.4,0.3-0.6,0.5
			c0,0.6,0,1.3,0,1.9c0.5,0,0.9,0.1,1.4,0.1C317.8,382.1,317.9,380.7,316.4,380.4z M400.3,380.4c-0.2,0.1-0.3,0.2-0.5,0.2
			c-0.1,0.2-0.2,0.5-0.2,0.8c0.1,1.1,0.5,1.1,1,1.8c0.2,0,0.4-0.1,0.6-0.1c0.2-0.7,0.3-1.2,0-1.9
			C400.9,380.7,400.7,380.6,400.3,380.4z M492.8,381.2c-0.2-0.2-0.3-0.4-0.5-0.6c-0.1,0-0.2,0-0.4,0c-0.3,0.5-0.5,0.9-0.6,1.6
			c0,0.1,0.1,0.2,0.1,0.4c0.4,0.2,0.8,0.3,1.4,0.1C492.9,382,493.1,381.7,492.8,381.2z M304.5,381.2c-0.1,0.2-0.2,0.3-0.4,0.5
			c-0.1,0.6-0.2,0.9,0.1,1.4c0.3,0.4,0.4,0.5,1,0.6c0.2-0.2,0.5-0.5,0.8-0.8c0-0.3,0-0.7,0-1c-0.2-0.2-0.5-0.4-0.8-0.6
			C305,381.2,304.8,381.2,304.5,381.2z M495.3,383.9c-0.2,0-0.5,0-0.8,0c-0.4,0.6-0.5,1-0.5,2c0,0.1,0.1,0.2,0.1,0.2
			c0.3,0,0.7-0.1,1-0.1c0.3-0.5,0.4-1,0.6-1.8C495.6,384.2,495.4,384,495.3,383.9z M497.5,383.9c-0.3,0.5-0.4,0.9-0.4,1.8
			c0,0.1,0.1,0.2,0.1,0.2c0.4,0.2,0.4,0.2,1.1,0.1c0.3-0.6,0.4-1.2,0.1-2C498.2,384,497.9,383.9,497.5,383.9z M422.2,385.5
			c-0.2,0.2-0.4,0.5-0.6,0.8c0,0.3,0.1,0.7,0.1,1c0.2,0.4,0.4,0.5,0.9,0.6c0.2-0.2,0.4-0.5,0.6-0.8
			C423.6,386.2,423,385.6,422.2,385.5z M508.3,386.8c-0.2-0.4-0.2-0.5-0.5-0.8s-0.4-0.3-1-0.2c-0.3,0.5-0.6,0.6-1.2,0.8
			c0,0.5-0.1,1-0.1,1.5c0.6,0.8,1.2,0.5,2.2,0.2C507.9,387.8,508.1,387.3,508.3,386.8z M502.2,386.7c-0.2,0.4-0.4,0.8-0.6,1.1
			c0,0.2,0.1,0.4,0.1,0.6c0.2,0.2,0.4,0.4,0.6,0.6c0.3-0.1,0.6-0.2,0.9-0.2c0.1-0.7,0.1-1.3-0.1-1.9
			C502.7,386.8,502.4,386.7,502.2,386.7z M432.5,387.2c-0.1,0.2-0.2,0.4-0.4,0.6c0,0.4,0,0.8,0,1.2c0.1,0.1,0.2,0.2,0.2,0.2
			c0.2,0,0.4-0.1,0.6-0.1c0.5-0.3,0.6-0.5,0.6-1.2c-0.2-0.2-0.5-0.5-0.8-0.8C432.8,387.2,432.7,387.2,432.5,387.2z M287.3,387.9
			c0.1,0.4,0.1,1,0.4,1.2c0.2,0.1,0.5,0.2,0.8,0.4c0.2-0.2,0.4-0.4,0.6-0.6c0-0.4,0-0.8,0-1.1c-0.5-0.3-0.6-0.5-1.5-0.5
			C287.4,387.5,287.4,387.7,287.3,387.9z M508.9,387.8c-0.1,0.2-0.2,0.3-0.2,0.5c0,0.4,0,0.8,0,1.2c0.1,0.1,0.2,0.2,0.2,0.2
			c0.3-0.2,0.6-0.4,0.9-0.6c0.2-0.5,0-0.8-0.1-1.2C509.4,387.9,509.2,387.8,508.9,387.8z M496.3,388.2c-0.4,0.6-0.9,1.3-0.5,2.1
			c0,0.1,0,0.2,0,0.2c0.4,0,0.8,0,1.2,0c0.3-0.6,0.2-1.3,0-2.1C496.8,388.3,496.5,388.2,496.3,388.2z M299.4,389.7
			c-0.3,0.7-0.2,1.4,0,2.2c0.3,0.1,0.6,0.2,0.9,0.2c0.2-0.2,0.5-0.4,0.8-0.6c0.1-0.6,0-0.8-0.1-1.4
			C300.4,389.8,300.3,389.7,299.4,389.7z M523.4,389.7c-0.2,0.3-0.4,0.7-0.6,1c0,0.3,0,0.7,0,1c0.2,0.1,0.3,0.2,0.5,0.2
			c0.3,0,0.6,0,0.9,0c0.2-0.4,0.4-0.7,0.4-1.5c-0.2-0.2-0.5-0.5-0.8-0.8C523.7,389.7,523.5,389.7,523.4,389.7z M412.7,389.9
			c-0.1,0-0.2,0.1-0.2,0.1c-0.3,0.5-0.4,1-0.4,1.9c0.4,0.2,0.7,0.3,1.1,0.1c0.4-0.2,0.4-0.3,0.6-0.8c0-0.3-0.1-0.6-0.1-0.9
			C413.3,390.2,413,390.1,412.7,389.9z M504.8,392.3c0,0.6,0,1.3,0,1.9c0.3,0,0.7,0.1,1,0.1c0.1-0.1,0.2-0.2,0.2-0.4
			c0-0.5,0.1-0.9,0.1-1.4c-0.3-0.2-0.7-0.3-1-0.5C505,392.1,504.9,392.2,504.8,392.3z M500.7,392.7c-0.3-0.1-0.7-0.2-1-0.4
			c-0.2,0.5-0.4,1.1-0.6,1.6c0.3,0.5,0.5,0.6,1.1,0.8h0.1c0.4-0.5,0.6-0.9,0.4-1.8C500.7,392.8,500.7,392.7,500.7,392.7z
			 M493.5,393.9c-0.2,0.1-0.3,0.2-0.5,0.2c-0.1,0.5-0.2,1-0.2,1.5c0,0.1,0.1,0.2,0.1,0.2c0.4,0,0.8,0.1,1.1,0.1
			c0.2-0.3,0.4-0.7,0.6-1C494.6,394.1,494.5,393.9,493.5,393.9z M527.8,396c-0.1,0.1-0.2,0.2-0.4,0.2c-0.1,0.5-0.2,1.1-0.4,1.6
			c0.4,0.2,0.4,0.3,1.1,0.4C528.9,397.6,528.8,396.3,527.8,396z M533.2,396.8c-0.1,0.1-0.2,0.2-0.4,0.2c-0.1,0.2-0.2,0.5-0.2,0.8
			s0.1,0.6,0.1,0.9c0.2,0,0.5,0,0.8,0c0.7-0.3,0.6-0.9,0.5-1.8C533.7,396.9,533.4,396.8,533.2,396.8z M522.3,397.3
			c-0.3,0.5-0.5,0.8-0.5,1.6c0.1,0.1,0.2,0.2,0.4,0.2s0.5,0.1,0.8,0.1c0.3-0.4,0.6-1,0.2-1.6C522.9,397.3,522.9,397.3,522.3,397.3z
			 M508,397.5c-0.2,0.3-0.4,0.7-0.6,1c0.1,0.7,0.2,0.7,0.5,1.1c0.2,0,0.5-0.1,0.8-0.1c0.1-0.1,0.2-0.2,0.2-0.4c0-0.7,0-1.1-0.4-1.4
			C508.4,397.7,508.2,397.6,508,397.5z M534.9,400c0.1,0.8,0.4,1,1,0.9c0.1,0,0.2-0.1,0.4-0.1c0.1-0.5,0.2-0.9,0.2-1.4
			c-0.2-0.2-0.5-0.3-0.8-0.5C535.5,399.3,535.2,399.7,534.9,400z M514.7,404.7c-0.2,0.5-0.4,1.1-0.6,1.6c0.1,0.1,0.2,0.2,0.4,0.4
			c0.7,0.5,1.3-0.2,1.4-1.1c-0.2-0.3-0.5-0.6-0.8-0.9C514.9,404.7,514.8,404.7,514.7,404.7z M531.5,406.2c-0.2,0.4-0.5,0.8-0.8,1.2
			c0.1,0.6,0.1,0.5,0.4,0.9c0.6-0.1,0.7-0.1,1-0.5c0.3-0.5,0.3-0.5,0.2-1.2C532.1,406.4,531.8,406.3,531.5,406.2z M273.4,414.8
			c0,0.2,0,0.5,0,0.8c0.2,0,0.3,0.1,0.5,0.1h0.1c0.1-0.6,0.2-1.2,0.4-1.8c-0.1,0-0.2,0-0.2,0C273.9,414.2,273.7,414.5,273.4,414.8z"
			/>
	</g>
</g>
</svg>
