<?xml version="1.0" encoding="utf-8"?>
<!-- Generator: Adobe Illustrator 21.0.0, SVG Export Plug-In . SVG Version: 6.00 Build 0)  -->
<svg version="1.1" id="Calque_1" xmlns="http://www.w3.org/2000/svg" xmlns:xlink="http://www.w3.org/1999/xlink" x="0px" y="0px"
	 viewBox="0 0 841.9 595.3" style="enable-background:new 0 0 841.9 595.3;" xml:space="preserve">
<style type="text/css">
	.st0{fill:#DADADA;}
	.st1{fill:none;stroke:#CBBBA0;stroke-width:15;stroke-miterlimit:10;}
	.st2{fill:#FFFFFF;}
	.st3{fill:#1D1D1B;}
</style>
<ellipse class="st0" cx="405.7" cy="404.1" rx="92.7" ry="23.8"/>
<path class="st1" d="M372.3,273.9"/>
<path class="st2" d="M482.7,376.1c0,10.2-35.6,13.7-78.3,13.7s-76.6-3.5-76.6-13.7c0-10.2,34.7-18.5,77.5-18.5
	S482.7,365.8,482.7,376.1z"/>
<g>
	<g>
		<path class="st3" d="M511.8,243.9c0.5,0.1,1.2,0.3,1.6,0.6h0.3l-0.1-0.1c-0.3-0.4-1.4-1-1.8-1.1c0-0.7,0.1-1.5,0.1-2.2
			c0-0.1-0.2-0.1-0.2-0.4c0.1-0.4,0.5-0.7,0.5-1c0-0.3-0.2-0.3-0.3-0.5c-0.1-0.7,0.3-1.4,0-2.1c0.2-0.2,0.4-0.3,0.5-0.6H512
			l-0.1-0.1c0.1-1-0.1-1.9-0.3-2.7c0-0.5,0.1-1,0.1-1.5c-0.7-2-1.9-4-3.5-5.2c-0.6-0.4-0.8-1.1-1.5-1.5c0-0.2-0.1-0.3-0.1-0.5
			c-1.4-0.1-2-1.5-2.9-2.1c-0.5-0.3-1,0.1-1.5-0.1c-0.6-0.2-1-0.9-1.5-1.3c-0.4-0.3-0.9-0.2-1.3-0.5v-0.2c-0.2-0.1-0.4-0.1-0.5-0.2
			v-0.2h-0.5c-0.2-0.1-0.3-0.4-0.5-0.5h-0.4c0-0.1-0.1-0.2-0.1-0.3c-0.3-0.2-0.6,0-0.8-0.2c-0.1-0.2-0.2-0.3-0.3-0.5
			c-0.3-0.2-0.5-0.1-0.8-0.3c-0.2-0.1-0.3-0.4-0.5-0.5c-0.3-0.2-0.6-0.1-0.7-0.2c-0.9-0.4-1.9-1-2.7-1.6c-0.3-0.2-1.1-0.2-1.3-0.4
			c-0.6-0.4-1.2-0.9-1.9-1.3c-0.5-0.2-1.7-0.4-2.1-0.6c-0.2-0.1-0.3-0.5-0.5-0.6c-0.3-0.1-0.6,0-0.8-0.1H485v-0.3
			c-1.3,0-3-1.3-4.1-1.6c-0.3-0.1-0.7,0-0.7,0c-0.1-0.1-0.3-0.4-0.5-0.5c-0.2,0.1-0.9-0.3-1.2-0.4c-0.3,0-0.5-0.1-0.8-0.1
			c-0.3-0.1-0.5-0.5-0.7-0.5c-0.4-0.1-0.9-0.1-1.3-0.2c-0.1-0.1-0.3-0.3-0.5-0.4h-0.6v-0.2c-0.3-0.1-0.8,0.1-1.1,0
			c-0.4-0.1-1.1-0.6-1.5-0.7h-0.5c-0.2-0.1-0.2-0.3-0.5-0.4c0.2-0.7,0.9-0.9,1.3-1.4c0.7-1,1.3-1.8,1.8-3c0.2,0,0.2,0,0.4,0.1v0.4
			h0.3c-0.1-0.6-0.3-1.2,0-1.5c0.2-0.3,0.4-0.1,0.6-0.4c0-0.1-0.1-0.2-0.1-0.3c0.1-0.1,0.3-0.1,0.4-0.2c0-0.2,0.1-0.4,0.1-0.5
			c0.2-0.2,0.6-0.4,0.7-0.7c0.2-0.5,0-1,0.3-1.4c0.2-0.3,0.6-0.4,0.7-0.6c0.2-0.5,0.1-1,0.4-1.6c0.1-0.2,0.4-0.3,0.5-0.5
			c0.4-0.5,0.4-1.3,0.7-1.9c0.3-0.7,0.9-1.5,1.3-2.2c0.4-0.7,0.5-1.6,1-2.3c0.1-0.2,0.1-0.1,0.3-0.3c0.1,0.1,0.1,0.2,0.2,0.3h0.2
			c-0.3-1.3,0.2-1.3,0.6-2.4c0.2-0.5,0.1-0.8,0.3-1.2c0.1-0.1,0.2-0.1,0.3-0.2c0.1-0.4-0.1-1.8-0.2-2.2c-0.7-0.1-0.4-0.5-0.8-0.7
			c-0.2-0.1-0.5,0.1-0.6,0.1c-0.4-0.2-0.6-0.8-0.9-1c-0.3,0-0.5-0.1-0.8-0.1c0-0.1-0.1-0.2-0.1-0.3c-0.1-0.1-0.7-0.5-0.8-0.5
			c-0.1,0-0.4,0.1-0.5,0c0,0-0.3-0.4-0.4-0.5c-0.4-0.3-1-0.4-1.4-0.4c-0.3-0.2-0.6-0.6-1-0.7c-0.3,0-0.5-0.1-0.8-0.1
			c-0.1-0.1-0.1-0.2-0.2-0.3h-0.6c-0.6-0.2-1.4-0.6-2-0.9c-0.4-0.1-0.8-0.2-1.2-0.3c-0.5-0.2-0.9-0.7-1.3-0.9
			c-0.6-0.4-1.2-0.4-1.9-0.6c-0.2-0.1-0.8-0.4-0.9-0.3h-1.4c-0.5,0.2-1,1.8-1.3,2.4c-0.3,0.8-1,1.7-1.5,2.4
			c-0.4,0.6-0.5,1.4-0.8,2.1c-0.5,0.9-1.7,2.2-2.3,3.3c-0.2,0.4-0.2,0.8-0.5,1.2c-0.1,0.2-0.4,0.4-0.5,0.5v0.4
			c-0.4,0.6-1,1.3-1.5,1.9c-0.2,0.3-0.1,0.6-0.4,1c-0.5,0.8-1.1,1.5-1.6,2.3v0.4c-0.1,0.1-0.3,0.2-0.4,0.3c-0.2,0.3-0.2,0.6-0.5,0.9
			c-0.1,0.1-0.2,0.1-0.4,0.2c-0.6,0.8-0.5,1.6-1.1,2.4c0,0.1-0.3,0.1-0.4,0.2c-0.2,0.2-0.1,0.5-0.3,0.7c-0.6,0.9-1.2,1.9-1.7,2.7
			c0,0.1,0.1,0.2,0.1,0.3c-0.4,0.7-1.1,1.4-1.5,2.2c-0.5,0.1-1.4,0-2.3,0v-0.3c-1.1,0.2-3.4-0.2-4.4-0.5h-1.5
			c-0.3-0.1-1.2-0.3-1.6-0.3c-0.1,0-0.4,0.2-0.6,0.1c-0.2-0.1-0.6-0.2-0.9-0.3c-0.3,0-0.2,0.1-0.3,0.2c-0.4,0.2-0.8-0.2-1.2-0.2
			c-0.1,0-0.4,0.3-0.5,0.3c-0.2,0-0.3-0.2-0.4-0.2c-0.5-0.1-1.5,0-1.9-0.1c-0.4,0-0.7,0.3-0.9,0.3c-0.3,0-0.1-0.1-0.2-0.2
			c-0.3-0.1-0.7,0-0.9,0c-0.5-0.1-2.1,0.4-2.4,0.3c-0.5-0.2-0.9,0.1-1.6-0.2l-0.4-0.4c-0.7,0.3-1.8,0.4-2.8,0.5
			c-0.4,0.1-0.7-0.1-1.1-0.1c-1.1-0.1-2.5,0-3.5,0.2c-0.3,0-0.6-0.1-0.8-0.1c-2.1,0.3-4.8,0.3-7,0.8c-1,0.2-1.7-0.2-2.6,0
			c-2.1,0.5-4.7,0.1-6.6,0.7c-0.9,0-1.8,0.1-2.7,0.1c-1.3,0.3-2.7,0.3-4.1,0.6h-1.2c-1,0.2-2.3,0.4-3.5,0.6c-0.7,0-1.4,0.1-2.1,0.1
			c-0.4,0.1-0.7,0.4-1.2,0.5c-0.5,0.1-0.9-0.2-1.6,0.1c-0.3,0.1-0.9,0.5-1.2,0.5c-1.6,0-3.8,0.1-5,0.7c-0.6,0-1.2-0.1-1.8-0.1
			c-1.1,0.2-2.6,0.3-3.7,0.5c-0.2,0-0.4-0.1-0.6-0.1c-0.5,0.1-0.8,0.3-1.2,0.5c-1.1-0.3-2.3,0.3-3.3,0.3c-0.3,0-0.7-0.1-1.2,0
			c-0.5,0.1-0.7,0.5-1.3,0.5c-0.4,0-1.1-0.2-1.6-0.1c0,0-0.3,0.2-0.4,0.2c-0.1,0-0.5-0.3-0.6-0.3c-0.2,0.1-0.4,0.1-0.6,0.2
			c0,0-0.3-0.2-0.5-0.1c-1.6,0.5-3.2,0.7-4.6,1.2c-0.7,0.1-1.3,0.1-2,0.2c-2.4,0.8-4.9,1.1-7,1.7c-0.7,0.2-1.8,0-2.3,0.1
			c-0.3,0.1-0.7,0.5-1,0.5c-0.9,0-2.4,0-3,0.3c-0.6,0.1-1.2,0.1-1.8,0.2c-0.7,0.4-1.8,0.9-2.7,1.1c-0.1,0-0.3-0.1-0.5-0.1
			c-0.2,0.1-0.7,0.3-0.9,0.4h-0.5c-1.1,0.5-2.6,0.9-3.8,1.3c-0.4,0-0.8,0.1-1.2,0.1c0,0.1-0.1,0.2-0.1,0.3c-0.4,0.2-1,0-1.4,0.3
			c-0.1,0.1-0.1,0.3-0.2,0.4c-0.4,0.2-1,0.1-1.4,0.3c-0.1,0.1-0.2,0.3-0.3,0.4c-0.2,0-0.4,0.1-0.6,0.1c-0.1,0.1-0.3,0.3-0.5,0.4
			c-0.3,0.1-0.7,0.1-1,0.2c-0.1,0.1-0.2,0.2-0.3,0.4c-0.2,0-0.4,0.1-0.5,0.1c-0.1,0.1-0.2,0.2-0.3,0.4c-0.2,0.1-0.4,0.1-0.6,0.2
			c-0.1,0.2-0.2,0.3-0.4,0.5h-0.4c-0.2,0.1-0.4,0.5-0.6,0.6c-0.2,0-0.4,0.1-0.5,0.1c-0.4,0.3-1.1,0.7-1.6,0.9
			c-0.3,0.1-0.6,0.1-0.9,0.2c-0.2,0.1-0.4,0.4-0.6,0.5c-0.3,0.1-0.7,0.2-1,0.4c0,0.1-0.1,0.2-0.1,0.3c-0.2,0-0.4,0.1-0.6,0.1
			c-0.2,0.2-0.3,0.3-0.5,0.5c-0.4,0.2-0.8,0.1-1.1,0.4c-0.4,0.3-0.5,0.8-0.8,1.2c-0.2,0.2-0.5,0.3-0.6,0.5c-0.1,0.2-0.1,0.3-0.3,0.5
			v0.1c-0.2,0.1-0.3,0-0.5,0.1c-0.1,0.2-0.1,0.4-0.2,0.5c-0.2,0.3-1.4,1.2-1.6,1.3v0.3c-0.5,0.1-0.2,0.1-0.5,0.5
			c-0.1,0.2-0.5,0.6-0.5,0.9c-0.1,0.5,0.3,1,0,1.6c-0.4,1-0.6,1.8-0.9,2.7v1.3c-0.1,0.6-0.1,1.2-0.2,1.7c-0.2,1.4,0,4.9-0.1,6.2
			c0.1,0.4,0.1,0.8,0.2,1.2c-0.4,2.6-0.7,6.3,0.2,8.6c-0.2,1,0,2.2,0.2,3c0.1,0.5-0.4,1.1-0.2,1.8c0.2,0.8,0.6,1.8,0.7,2.4
			c0.1,0.3-0.1,0.6,0,1c0.1,0.5,0.4,1.1,0.5,1.6v1.1c0.2,0.8,0.2,1.6,0.7,2.1c0.6,0.4,2,0.5,2.6,0.9v0.2c0.2,0.1,0.4,0.1,0.5,0.2
			c0,0.1,0.1,0.2,0.1,0.3c0.2,0.1,0.5,0.2,0.7,0.3c0,0.1,0.1,0.2,0.1,0.3c0.1,0,0.2-0.1,0.3-0.1c0.6,0.2,1.3,0.7,1.8,1
			c0,0.5-0.3,0.9-0.4,1.4c-0.1,0.6,0.4,1.1,0.2,1.8l-0.3,0.3c-0.3,0.8,0.2,2.8,0.3,3.3c0,0.2-0.2,0.3-0.2,0.4
			c-0.1,0.5,0.1,1.3,0.1,1.6c0,0.3-0.1,0.5-0.2,0.6c0,0,0,2.7,0,2.7c0.3,1-0.1,1.7,0.2,2.9c0.1,0.6,0.2,2.5,0,3.6
			c-0.1,0.6,0.2,1,0.2,1.5c0,0.2-0.1,0.9-0.2,1.1c-0.2,0.9,0.4,1.6,0.4,2.5c0,0.8,0,1.5,0,2.5c0,0.2-0.1,0.6-0.1,0.6
			c0.1,0.5,0.3,1.2,0.3,1.9c0,1.3,0,3.3,0.3,4.7c-0.1,0.7-0.1,1.5-0.2,2.2c0.6,3.2,0.3,6.3,1.1,9.5c0,0.6-0.1,1.2-0.1,1.8
			c0.4,1.7,0.2,3.4,0.7,4.9v2.1c0.2,1,0.2,2,0.5,2.9v1.5c0.1,0.2,0.2,0.6,0.2,0.7c0,0.6-0.2,1.6,0,2.4c0.5,1.8,0.6,5.8,1.1,7.8
			c0,0.5-0.1,1.1-0.1,1.6c0.2,1,0.2,2.4,0.4,3.3c0,0.5-0.1,1.1-0.1,1.6l0.3,0.3c0.1,0.2,0.3,1.5,0.3,1.7c0,0.1-0.2,0.4-0.1,0.6
			c0.2,0.5,0.4,1.4,0.5,1.7c0.1,0.5-0.2,1,0,1.6c0.2,0.7,0.5,1.6,0.6,2.4v1.2c0.3,1,0.3,2.3,0.5,3.3v0.9c1.5,5.6,1.3,12,3.3,17.3
			c-0.4,1.6,0.6,3.2,0.9,4.6c0,0.2-0.1,0.4-0.1,0.6c0.2,0.7,0.4,1.5,0.8,1.9v0.1h0.7c0.1,0.2,0.1,0.4,0.2,0.6
			c0.2,0.2,0.6,0.1,0.9,0.3c0.1,0.2,0.2,0.3,0.3,0.5c0.1,0.1,0.9,0.4,1,0.5h0.6c0.4,0.2,1,0.6,1.4,0.7h0.6c0.2,0.1,0.5,0.4,0.7,0.5
			c0.3,0.1,0.6-0.2,0.8-0.1c0.2,0.1,0.5,0.4,0.7,0.5c1.3,0.4,2.7,0.4,3.8,0.8h1.7c0.5,0.2,1.2,0.4,1.7,0.3c0.1,0,0.5-0.2,0.7-0.1
			c0.1,0,0.4,0.3,0.5,0.4c0.2,0.1,0.8-0.3,1.1-0.3c1-0.1,2.1,0,2.9-0.1c0.3,0,0.7,0.1,1,0.1c0.2,0,1-0.2,1.3-0.2
			c0.6,0.1,1.9,0.2,2.5,0.4c0.4,0.1,1.1-0.1,1.4-0.1c1.3,0.2,3.1,0.6,4.4,0.5v0.3c3.6,0.3,7.2,0.4,10.2,0.9c0.8,0.1,3.1,0.2,3.4,0
			c0.5,0,1.1,0.3,1.6,0.2c0.5-0.1,1-0.1,1.5,0c0.2,0.1,0.5-0.1,0.6-0.1c0.9,0,1.9,0.1,2.8,0.1c2,0.4,4.1-0.1,6.1,0.3
			c0.7,0,1.4-0.1,2.1-0.1c0.8,0.2,1.3,0,2.3,0c1.9,0,3.3,0.1,5.3,0.1c0.5,0,0.6-0.2,0.8-0.3c0,0,2.4,0.3,2.6,0.4
			c1.4-0.1,2.8-0.1,4.2-0.2c0.9,0.2,2.4-0.2,3.2-0.1c1.5,0.2,3.2,0.3,5.2-0.1c0.5,0.1,1.1,0.1,1.6,0.2c0.9-0.2,2.1-0.3,2.9-0.2v-0.3
			c1-0.4,3,0.4,4.8,0.1c0.7-0.1,2.2-0.2,3.1,0.1c0.4,0.1,1.1-0.1,1.5-0.1c0.6,0.1,1.9,0.3,2.6,0.2c0.4-0.1,1.6-0.3,2.1-0.3
			c0.2,0,0.3,0.3,0.7,0.2c0.1,0,0.5-0.2,0.7-0.2c0.4,0.1,0.7,0.1,1.1,0.2c0.1,0,0.3-0.3,0.4-0.3c0.5,0,1,0.1,1.5,0.1
			c0.7-0.2,2.3,0,2.9,0c0.3,0,0.6-0.1,0.8-0.2c0.4-0.1,1.5,0,2,0.1c0.7,0.1,1.5-0.1,2.1-0.1c0.8,0,1.8-0.4,2.2-0.1
			c0.2-0.1,0.1,0,0.2-0.4c1.2,0.7,3.1,0.1,4-0.1c1.1-0.2,2.1,0.1,2.7-0.2c0.2,0,0.4,0,0.5,0.1c0.2,0.2,0.2,0.4,0.2,0.8h0.3
			c0-0.7,0.1-0.8,0.3-1.2c0.4,0.1,1-0.3,1.5-0.2c1.9,0.3,3.4,0,4.9-0.5c0.7-0.2,1.9-0.1,2.5-0.5c0.3,0.1,0.3,0.1,0.4,0.4
			c0.4-0.1,0.3-0.4,0.6-0.5c0,0,1.7-0.2,1.7-0.2c0.1,0,0.6,0.2,0.9,0.1l0.3-0.3h0.7c0.2-0.1,0.5-0.4,0.7-0.5
			c0.7-0.1,0.5,0.2,1.3-0.2h0.8c1.3-0.5,2.8-1.2,4.3-1.3v0.3c0.7-0.1,0.7-0.6,1.1-0.8c0.6-0.3,1.4,0.1,1.9-0.4
			c0.2-0.2,0.3-1.4,0.5-1.8c0.3-0.5,1.4-0.9,1.8-1.6c0-0.2-0.1-0.4-0.1-0.6c0.1-0.1,0.5-0.1,0.5-0.3c0-0.3,0.1-0.7,0.1-1
			c0-0.1,0.3-0.4,0.4-0.5c0.1-0.3,0.1-0.6,0.2-0.9h0.2v-0.6c0.2-0.2,0.4-0.4,0.6-0.5c0.1-0.2,0.2-1.2,0.2-1.6c0.1,0,0.4-0.1,0.5-0.2
			c0.1-0.1,0-0.1-0.1-0.3c0.1-0.8,0.8-1,1.1-1.6c0.1-0.3,0.1-0.5,0.2-0.8c0.1-0.1,0.3-0.1,0.5-0.2v-0.4h-0.5c0-0.3,0.1-0.6,0.2-0.7
			c0-0.1,0.1-0.2,0.1-0.3c0.3,0,0.3,0,0.5,0.2c0.3-0.1,0.2,0,0.4-0.2c0,0,0.1-0.1,0.1-0.1h-0.1c-0.1-0.2-0.5-0.3-0.8-0.4
			c0.1-0.7,0.5-1.3,0.6-1.9c0-0.4-0.1-0.8-0.1-1.2c0.2-0.8,0.6-1.9,0.8-2.7v-0.7c0-0.1,0.3-0.2,0.4-0.3c0-0.2-0.1-0.3-0.1-0.5
			c0.1,0,0.2-0.1,0.3-0.1l0.2-2.7c0-0.3-0.2-0.7-0.2-0.8c0.1,0,0.2-0.1,0.3-0.1c0.3-0.6-0.2-1.2,0-1.6c0.1-0.1,0.2-0.1,0.3-0.2
			c0.1-0.3-0.2-0.6,0-1l0.4-0.4c0.1-0.2-0.2-0.4-0.1-0.7c0.1-0.4,0.3-1.1,0.5-1.6c0.2-0.6-0.2-1.2,0.1-1.6c0.1,0,0.2-0.1,0.3-0.1v-1
			c0.2-0.7,0.9-1.5,1-2.2c0.1-0.5-0.6-0.9,0.4-1c-0.1-0.3-0.1-0.2-0.4-0.4c0-0.9,0.4-1.5,0.6-2.4v-0.9c0-0.1,0.2-0.3,0.3-0.5
			c0.1-0.2-0.1-0.6-0.1-0.6c0.1,0,0.1-0.1,0.2-0.1c0-0.3-0.1-0.5-0.1-0.8c0,0,0.1-0.3,0.1-0.4h0.2c0.2-0.5,0-1,0.2-1.6
			c0.1-0.4,0.4-0.7,0.5-1.2c0.3-1,0.1-2,0.5-2.6c0-0.5,0.1-0.4,0.3-0.6c0.1-0.1-0.2-0.4-0.2-0.6c0-0.3,0.2-0.7,0.3-0.8
			c0.1-0.2-0.1-0.3-0.1-0.4c0.2-0.6,0.8-1.4,0.9-2.1c0-0.2-0.1-0.3-0.1-0.5c0.1-0.5,0.5-1.4,0.6-2.1c0.2-0.6,0.4-1.9,0.2-2.2
			c0.1-0.2,0.1-0.1,0.3-0.3c0.3-0.4,0.1-0.7,0.3-1.3c0.1-0.4,0.5-1.1,0.6-1.6c0-0.5,0.1-1,0.1-1.6c0.1-0.1,0.2-0.2,0.4-0.3
			c0.1-0.7,0.1-1.4,0.2-2.1c0.1-0.1,0.2-0.2,0.4-0.3c0.2-0.5,0-1.7,0.1-2c0-0.1,0.3-0.5,0.4-0.5c0.3-0.6,0.4-1.6,0.5-2.1v-1
			c0.2-0.9,0-1.9,0.1-2.5c0.1-0.4,0.3-1,0.4-1.5c0-0.2-0.1-0.3-0.1-0.5c0.1-0.4,0.4-0.8,0.5-1.3h-0.3c0.1-0.2,0.2-0.4,0.3-0.5v-1.3
			c0,0,0.3-0.2,0.3-0.2c0.2-0.5-0.3-1.4-0.1-1.9c0.1-0.3,0.2-0.1,0.2-0.5c0.2-0.2,0.4-0.3,0.5-0.5c0,0,0.1-0.1,0.1-0.1
			c-0.1,0-0.2-0.1-0.4-0.1c0-0.8,0.2-1.2,0.3-1.7c-0.1-0.3-0.1-0.5-0.2-0.8c0-0.2,0.4-0.3,0.5-0.5c0.1-0.3-0.2-0.2-0.2-0.3v-0.1
			c0-0.2,0.2-0.2,0.2-0.3c0-0.5-0.1-1-0.1-1.5c0.1,0,0.1-0.1,0.2-0.1c0.1-0.5-0.2-0.8-0.1-1.3c0.2-0.7,0.5-1.8,0.7-2.4
			c-0.2-0.7,0.4-3.9,0.6-4.7c0.3-1.1,0.2-2.3,0.5-3.2c0-0.2-0.1-0.4-0.1-0.5c0.5-1.9,0.7-4,1.1-5.9c0.1-0.5-0.1-1.1,0-1.6
			c0.1-0.4,0.3-1.1,0.4-1.5c-0.1-0.3-0.1-0.5-0.2-0.8c0-0.9,0.2-1.6,0.3-2.2c0.1-0.6,0-1.6,0.4-2c0.1-0.1,0.6,0.1,0.7,0.3h0.1
			c-0.1-0.5-0.6-0.7-0.7-1.1c-0.2-0.5,0.1-0.7-0.2-1c0.4-0.7,0.9-0.4,1.6-0.5c0.8-0.1,2.1-0.5,3-0.7c0.1,0,0.2,0.1,0.4,0.1
			c0.7-0.2,0.9-1.3,1.6-1.7c0-0.8-0.1-0.9-0.6-1.2c0-0.2,0-0.2,0.1-0.4c0.3,0.1,0.3,0.2,0.5,0.5h0.3c-0.1-0.3-0.3-0.5-0.5-0.6
			c0-1.2,0.4-2.6,0.7-3.8c0.2-0.7-0.2-1.1,0-1.6c0.7-2.3,0.8-5.1,1.5-7.6c0.2-0.8-0.1-1.5,0-2.3c0.1-0.7,0.3-1,0.4-1.6
			c0-0.3-0.1-0.4-0.1-0.6c0.1-0.3,0.5-0.5,0.8-0.6v-0.2c-0.3,0.1-0.5,0.2-0.7,0.4h-0.1c0-0.7,0.1-1,0.1-1.6c0-0.2-0.1-0.4-0.1-0.5
			c0.1-0.3,0.4-0.7,0.5-1c0.1-0.3-0.1-0.4,0-0.5L511.8,243.9L511.8,243.9z M475.1,211.9c0.3,0,0.5,0.1,0.8,0.1
			c0.1,0.1,0.3,0.3,0.5,0.4c0.5,0.2,1.3,0,1.6,0.1c0.1,0.1,0.4,0.4,0.6,0.5c0.7,0.2,1.1,0.1,1.7,0.4c0.2,0.1,0.4,0.4,0.5,0.5
			c0.3,0,0.5,0.1,0.8,0.1c0.1,0.1,0.2,0.2,0.3,0.4c0.3,0.2,0.6,0,1,0.3c0.2,0.1,0.5,0.5,0.7,0.6c0.2,0,0.5,0.1,0.7,0.1
			c0.4,0.1,0.8,0.4,1.2,0.5h0.5c0.1,0.1,0.3,0.5,0.5,0.5c1.1,0.6,2.4,0.7,3.5,1.4c0.3,0.2,0.8,0.7,1.1,0.8c0.3,0.1,0.6,0.1,0.9,0.2
			c0.2,0.2,0.4,0.4,0.5,0.6c0.3,0.2,0.9,0.1,1.2,0.3c0.7,0.5,1.5,1.1,2.3,1.6c0.9,0.5,1.9,0.9,2.7,1.4c0.4,0.2,0.7,0.1,1.1,0.4
			c0.5,0.3,0.9,1.1,1.5,1.5c0.6,0.4,1.8,0.8,1.6,1.6c0.3-0.1,0.5-0.1,0.8,0.1c0.1,0.1,0.1,0.3,0.2,0.5c0.2,0.2,0.6,0.3,0.8,0.5
			c0.1,0.1,1,1.3,1,1.5c0.1,0.4,0.3,1.4,0.2,1.6c0,1.2-1.7,1.4-2.5,1.8c-0.3,0.1-0.5,0.5-0.8,0.6c-0.5,0.2-0.9,0.2-1.5,0.5
			c-0.2,0.1-0.3,0.3-0.5,0.5c-0.7,0.4-1.4,0.3-2.3,0.5c-0.3,0.1-0.6,0.4-0.8,0.5c-0.3,0.2-0.6,0-0.8,0.1c-0.3,0.1-0.7,0.6-1,0.7
			c-0.5,0.2-1,0.2-1.4,0.5c-0.3-0.1-0.5-1.4-0.8-1.7c-0.1-0.2-0.3-0.1-0.5-0.2c-1-0.6-2-1.1-2.4-2.3c-0.5-0.1-0.9-0.4-1.3-0.3
			c-0.4,0.1-0.6,0.5-1.3,0.5v-0.4c-0.4,0.1-0.4,0.4-0.8,0.3c-0.6-0.1-1.8-1.6-2.3-1.9h-0.3c-0.1-0.1-0.1-0.3-0.2-0.4
			c-0.2-0.1-0.5,0-0.7-0.1c-0.1,0-0.4-0.3-0.5-0.4c-0.3-0.1-0.8,0.1-1.2-0.1c-0.3-0.1-0.3-0.5-0.6-0.6c-0.5,0-1-0.1-1.6-0.1
			c-1.6-0.5-2.9-0.2-4.5-0.5c-0.4-0.1-1.8,0.3-2,0.3c-0.4-0.1-0.8-0.3-1.4-0.4c0.1-0.5,0.4-0.8,0.6-1v-0.1c-0.4,0.1-0.8,0.6-1,1
			c-1.5-0.2-1.6-1.4-2.7-2c0-2.4,1.7-2.1,2.6-3.4h0.4c0.2-1,1.7-1.7,2.1-2.4c0.2-0.3,0.1-0.5,0.3-0.7c0.4-0.4,1.1-1.1,0.6-1.8
			c-0.4-0.8-1.2-0.5-1.8-0.9c-0.3-0.2-0.4-0.6-0.6-0.8c-0.2-0.1-1.1-0.2-1.6-0.4c-0.1-0.1-0.1-0.2-0.2-0.3c-0.3,0-0.7,0.1-1,0.1
			c0,0-0.5,0-0.5,0l-0.4-0.4c-0.4-0.1-1.6,0.1-2,0.2v-0.1c-0.1-0.2,0-0.2,0-0.5h0.4c0.4-0.7,1.4-2.5,2.1-2.5
			c-0.1-0.1-0.1-0.3-0.2-0.4c0.1-0.3,0.2-0.1,0.3-0.2c0-0.1-0.1-0.2-0.1-0.4c0.2-0.3,0.5-0.1,0.5-0.7
			C471.7,210.7,473.5,211.3,475.1,211.9z M492.2,235.3c0.4,0.2,0.7,0.6,0.9,1c-0.3,0.1-0.6,0-0.9,0
			C492.2,236,492.3,235.6,492.2,235.3z M488.7,235.1c-0.1,0.1-0.1,0.2-0.2,0.3c-0.1,0-0.1-0.1-0.2-0.1c0-0.1,0.1-0.1,0.1-0.2
			L488.7,235.1L488.7,235.1z M488.5,233.5c0.3,0,0.3-0.1,0.5,0c0.1,0.1,0,0.4,0.2,0.6c-0.1,0.3-0.1,0.3-0.2,0.5
			C488.7,234.3,488.5,233.9,488.5,233.5z M488.4,236.6c0.1-0.2,0.2-0.3,0.3-0.5c0.4,0.2,0.9,0.3,1.2-0.1c0.3,0,0.3,0.1,0.5,0.2
			c-0.1,0.4-0.1,0.7-0.2,1.1c-0.6,0-1.6,0.2-2,0.5H488c0.2-0.4,0.2-0.7,0.2-1.2L488.4,236.6L488.4,236.6z M490.4,234.5v-0.4
			c0.3,0.2,0.5,0.3,0.7,0.6h0.1v0.2h-0.8C490.4,234.6,490.4,234.6,490.4,234.5z M487.8,237.7v0.2h-0.2
			C487.6,237.8,487.7,237.8,487.8,237.7L487.8,237.7z M483.5,237.4c-0.6,0.1-0.9,0.3-0.9,0.9c-0.1-0.1-0.1-0.1-0.2-0.2
			c-0.5,0.1-0.8,0.7-0.8,1.3c-0.7,0.2-2.3,0.2-2.9,0.7c-0.4,0-0.3,0.1-0.4-0.2c-0.5,0-0.9-0.1-1-0.1c-0.5,0.1-0.5,0.6-0.9,0.8
			c-0.3,0.1-1,0.3-1.1,0.4c-0.4,0.1-0.9-0.2-1.4,0c-0.2,0.1-0.6,0.4-0.9,0.5c-0.2,0-0.4-0.1-0.6-0.1c-0.4,0.1-1.1,0.3-1.5,0.4h-0.9
			c-0.2,0.1-0.8,0.4-1.1,0.5c-0.3,0.1-0.5-0.2-0.8,0c-0.2-0.2-0.3-0.6-0.5-0.8c-0.3,0-0.5,0-0.6,0.2c-0.5,0.2-0.1,0.6-0.4,0.9
			c-0.5,0.4-2.1,0.3-2.8,0.5c-0.1-0.3-0.2-0.5-0.4-0.7c-0.6-0.3-1.1,0-1.6,0c-0.1,0.3-0.2,0.7-0.5,0.9c-0.5,0.4-1-0.1-1.6,0.3h-0.2
			c0.2-0.3,0.2-0.5,0.3-0.7c0.1-0.2,0.7-0.7,0.9-0.8c0-0.2,0-0.3-0.1-0.4c0-0.3-0.1-0.3-0.2-0.6c-0.8,0.1-0.8,0.5-1.2,1
			c-0.2,0.1-0.1,0.1-0.3-0.1c-0.3,0.2,0.1,0.3-0.4,0.6c0.1,0.6,0.3,0.6,0.6,0.9h0.1c-0.5,0.4-1.5,0.3-2.1,0.3c0-0.2,0-0.2-0.1-0.3
			c-0.1-0.3-0.2-0.4-0.5-0.5c-0.1-0.1,0,0-0.2-0.1c-0.4,0.4-0.5,0.5-0.5,1.1c-0.6,0.2-1.3,0.3-1.7,0.5c-0.2,0.1-0.5-0.1-0.5-0.1
			c-0.4,0.2-0.8,0.4-1.5,0.5v0.3c-0.4-0.1-1.7-0.1-2.1,0.2h-0.4v-0.1c0.2-0.1,0.3-0.1,0.6-0.1c0.1-0.4,0.3-0.8,0.1-1.1
			c-0.2-0.4-0.4-0.3-0.7-0.5c-0.4,0.2-0.8,1.2-0.2,1.4v0.5c-0.5-0.2-0.6-0.5-1.2-0.7c-0.2,0.4-0.3,0.7-0.5,1c-0.4,0-0.7,0.1-1.1,0.1
			c0-0.3,0-0.7-0.1-0.9c0-0.1-0.1-0.2-0.1-0.3c-0.3,0-0.5,0.1-0.8,0.1c-0.1,0.4-0.1,0.7-0.2,1.1c-0.1,0-0.2,0.1-0.3,0.1
			c-0.2-0.5,0-0.9-0.3-1.4c-0.7-0.9-1.7,0.3-2.2,0.5l-0.8,0.3c-0.2,0.2-0.1,0.5-0.4,0.7c0,0-1,0.2-1.4,0h-0.2
			c0.1-0.6,0.3-0.9,0.5-1.4c0.1-0.2,0.1-0.1-0.1-0.3c0.1-0.4,0.1-0.3,0.4-0.5c0-0.3,0-0.7-0.1-0.8c-0.1-0.3-0.1-0.2-0.3-0.5
			c-1.1,0-0.6,0.6-0.9,1.1c-0.2,0.1-0.3,0.2-0.5,0.4c0,0.5,0.1,0.9,0.1,1.4c-0.1,0.3-0.4,0.3-0.1,0.7v0.3c-1-0.4-2.5,0.1-3.4,0.1
			c0-0.5-0.1-0.6,0.1-0.9c0.1-0.1,0.1-0.2,0.2-0.3c0.3,0.2,0.2,0.4,0.4,0.7c0.4,0,0.5,0,0.7-0.2c0.6,0,1,0,1.4-0.2
			c0-0.4,0-0.5-0.2-0.7c-0.1-0.4-0.5-0.4-0.7-0.6c-0.6,0-0.9,0.3-1.2,0.6c-0.3-0.1-0.3-0.5-0.4-0.8c-0.2,0-0.4,0-0.5-0.1
			c-0.6,0-0.6,0.2-1,0.4c-0.2,0.7-0.2,1.1-0.2,2.1c-1.1,0.1-2.9,0.1-4.4,0c-0.1-0.7-0.6-0.5-1.1-0.5c0,0.2-0.1,0.4-0.1,0.5
			c-1.1,0.1-2.1,0.3-3.1,0.3c0-0.7-0.2-0.9-0.4-1.3c-0.5,0-0.6,0.1-0.9,0.2c-0.1,0.3-0.1,1-0.2,1.2c-0.6,0.3-4.9-0.2-5.2,0.1
			c-0.3-0.1-0.5-0.6-0.6-0.9c-0.6,0-0.7,0.1-1.1,0.4c0,0.6,0,0.5,0.1,1c-0.8,0-1.5,0-2.1,0c0.1-0.4,0.3-0.3,0.5-0.7
			c0.1-0.2-0.4-0.8-0.6-0.9c0.1-0.2,0.1-0.2,0.3-0.4c0-0.9-0.3-0.9-0.7-1.3c-0.3,0-0.4,0.1-0.6,0.2c-0.1,0.3-0.2,0.8,0,1
			c0,0.4,0.1,0.4,0.2,0.6c0.3-0.1,0.5-0.1,0.8-0.2c-0.1,0.3-0.4,0.5-0.7,0.6c0,0.4,0,0.5,0.3,0.8v0.2c-1.4,0-2.3,0-3.6,0
			c0.1-0.3,0.4-0.6,0.6-0.8c-0.1-0.3-0.1-0.9-0.2-1.1c-0.2-0.3-0.6-0.5-0.8-0.8c-0.7,0.1-0.9-0.1-1.5-0.1c-0.1,0.2-0.1,0.3-0.3,0.4
			c0,0.2,0,0.2,0.1,0.3v0.2c-0.5,0-1,0-1.3-0.2c-0.1-0.1,0.1-0.2,0.2-0.4c0-0.6-0.3-0.9-0.7-1l-1.8-0.1c-0.2,0.1-0.1,0-0.2,0.1
			c-0.1,0.1-0.2,0.3-0.3,0.5c0,1.8,2.3,0.9,3.7,1.3c0.3,0.1,0.3,0.3,0.5,0.5c0.3,0.2,0.5,0.1,0.6,0.2c0.3,0.2,0.1,0.4,0.4,0.7
			c0.1,0.1,0.4,0.2,0.5,0.4l-0.1,0.1c-0.2,0-0.4,0-0.5-0.1c-0.8-0.1-0.5-0.5-0.9-0.9c-0.1-0.1-0.4-0.2-0.5-0.3
			c-0.8,0-0.7,0.3-1.1,0.6c-0.2-0.4-0.4-0.7-0.5-1c-0.2-0.1-0.1,0-0.2-0.1c-0.9,0-1.1,0.5-1,1.1c-0.2-0.1-0.1,0-0.2-0.1h-0.3
			c0,0.3-0.1,0.1,0.1,0.4c0,0.2,0,0.2-0.1,0.3c-0.7,0.5-2.2,0.3-3.1,0.3c0.2-0.6,0.8-0.6,1-1.2h0.1c0.2,0.2,0.4,0.5,0.5,0.7
			c0.6,0,0.6-0.2,1-0.4c0.1-1.7-1.2-0.8-1.6-2c-0.4,0-0.8-0.2-1.1,0c-0.6,0.2-0.3,0.7-0.5,1.2v0.2c-0.4-0.2-0.6-0.7-0.9-1.1
			c-0.2-0.3-0.6-0.3-0.8-0.5h-0.1v-0.2c1.5,0.1,2.3-0.2,3.4-0.8c0-0.6-0.3-0.8-0.5-1.2c-0.2,0-0.3,0-0.4-0.1c-0.5,0-1.3,0.6-1.5,1
			c-0.2-0.1-0.6-0.2-0.8-0.4c-0.9,0.2-0.5,1.1-0.5,1.7h-0.4c0,0.4-0.2,0.7,0,0.9c0.1,0.6,0.3,0.5,0.5,0.8c0.3,0,0.4,0,0.5-0.2h0.2
			v0.2c-0.4,0.3-1,0.4-1.4,0.5c-0.1,0.1-0.2,0.5-0.3,0.6l-0.1,0.1c-0.1-0.3-0.2-0.6-0.3-0.9c-0.2-0.1-0.1,0-0.2-0.1
			c-0.6,0.1-0.7,0.5-0.9,0.9c-0.4,0-1.4-0.1-1.7,0.1h-0.5v-0.1c0.2-0.1,0.3-0.1,0.4-0.4c0.1-0.2,0-0.5-0.1-0.8c-0.5,0-0.8,0-1.1-0.2
			c-0.2,0.3-0.3,0.8,0,1.2v0.2c-1.2-0.1-3.2-0.4-4.4-0.2c-0.2-0.3-0.3-0.8-0.5-1.2h-0.4c-0.1,0.6-0.1,0.1-0.5,0.4
			c-0.8,0.4-0.7,0.4-1.8,0.5c-0.1,0-0.2,0.1-0.4,0.1V247c-0.3-0.2-0.9,0-1.2,0c-0.2-0.3-0.4-0.7-0.5-1c-0.3,0-0.6,0-0.8-0.1
			c-0.1,0.1,0,0-0.2,0.1c-0.1,0.3-0.1,0.6-0.2,0.8c-1.4,0-2.2-0.2-3.1-0.4c-0.2,0-0.8,0.1-1.1-0.1c-0.1-0.1-0.3-0.4-0.4-0.6
			c-0.5,0-1.4,0.3-1.7,0.2c-0.2,0-0.4-0.3-0.6-0.3c-0.9,0.1-1.3,0.4-2.2,0.1c-0.1-0.2-0.1-0.5-0.3-0.7c0.1-0.1,0.3-0.2,0.4-0.3h0.1
			c-0.1,0.4,0,0.4,0.1,0.8c0.7,0.1,0.9,0.1,1.5-0.2v-0.5h0.6v-0.2c-0.5-0.1-1.4-0.7-1.8-0.4c-0.4-0.1-0.7-0.6-0.9-0.9h-0.3v0.3
			c-0.8,0.1-1,1.3-0.7,2l-0.1,0.1c-0.3,0-0.6,0-0.6,0c-0.3-0.2-0.5-0.8-0.6-1.1c-0.4,0-0.8,0-0.9,0.1c-0.4,0.2-0.2,0.4-0.3,0.5v0.2
			c-0.2,0-0.3,0-0.4-0.1c-0.1-0.2,0.5-1.1,0.6-1.6c-0.3-0.3-0.3-0.5-0.7-0.6c-0.5,0.5-2,1.4-2.3,1.9c-0.4,0-1.1-0.1-1.4-0.3
			c-0.2-0.1-0.1,0-0.2-0.1c0.1-0.1,0.2-0.1,0.5-0.1c0.1-0.4,0.2-0.5,0.1-0.9c0.2,0.1,0.3,0.1,0.5,0.3c0.6-0.1,0.6-0.4,1-0.6
			c-0.1-0.6-0.3-0.6-0.4-1.2c0.6,0,0.7,0,0.7,0.5c0.3,0.1,1.1,0.2,1.2,0.3c0.2-0.1,0.2-0.1,0.4-0.2c-0.1-0.8-0.7-2-1.3-2.3v-0.3
			c-0.8-0.1-1.1,0.3-1.7,0.2c-0.1,0.2-0.4,0.3-0.5,0.5c0,0.3-0.1,0.3,0,0.4c0,0.5,0.1,0.8,0.5,0.9v0.2c-0.4,0.2-0.8,0-1.1,0.2
			c-0.6-0.2-0.9-0.6-1.4-0.9c0.1-0.2,0-0.1,0.2-0.3c0-0.7-0.2-0.7-0.4-1.2c-0.5,0-0.6,0.1-0.9,0.3c-0.2-0.5-0.4-0.6-0.7-0.9
			c-0.3,0-0.3-0.1-0.4,0c-0.2,0.1-0.2,0.2-0.4,0.4c0,1,0.2,1,0.3,2c0.4,0.2,1,0.3,1.4,0.5c0,0.2,0,0.2-0.1,0.3
			c-0.2,0.1-1,0.3-1.2,0.4c-0.1,0.2-0.1,0.4,0,0.6v0.2c-0.5,0-2-0.3-2.3-0.5h-0.2c0.2-0.3,0.4,0,0.7-0.2c0,0,0.2-0.3,0.4-0.4
			c0-0.7-0.3-0.9-0.6-1.5c-0.8,0-1.3,0-1.7-0.3v-0.5h-0.3c0.1-0.2,0-0.1,0.1-0.2c-0.1-0.6-0.4-0.5-0.8-0.7c-0.3,0-0.3,0.1-0.5,0.2
			c-0.1,0.2-0.1,0.4-0.3,0.5c0,0.8,0.3,0.5,0.5,0.9c0,0.2,0.1,0.4,0.1,0.6c0.2,0.2,0.7,0.3,0.9,0.5c0.1,0.1,0,0.1,0.1,0.3
			c-0.1,0.3-0.1,0.3-0.2,0.5c-1-0.1-1.3-0.6-1.8-1.1c-0.5,0-0.6,0-0.7,0.4c-0.2,0-0.2,0-0.3-0.1c-0.3-0.1-0.5-0.6-0.5-0.7
			c0-0.6-0.1-0.9-0.5-1.1c-0.2-0.1-0.3-0.1-0.4,0c-0.4,0.1-0.5,0.4-0.7,0.5c0.1,0.3,0.1,0.6,0.3,0.8v0.3c-0.8-0.2-1.2-0.5-1.6-1
			c-0.8,0.1-1.2,0.6-2,0.1c-0.3,0-0.3,0-0.5-0.2c-0.1-0.1,0-0.3-0.1-0.5c-0.2-0.4-0.6-0.5-1-0.8c-0.9,0-1.3,0.2-1.4,0.9
			c-0.5-0.1-1-0.1-1.5-0.2c0.2-0.1,0.5-0.1,0.6,0c0.3-0.1,0.4-0.3,0.6-0.5c-0.1-0.2,0-0.1-0.1-0.2c0-0.4-0.1-0.4-0.3-0.6
			c-0.3,0-0.5-0.1-0.7-0.2c-0.2,0.2-0.2,0.1-0.3,0.5c-0.2-0.1-0.2-0.3-0.4-0.5c-0.2-0.2-0.6-0.2-0.8-0.4c-0.2,0.1-0.7,0.8-0.4,1.2
			v0.2c-1.2-0.1-2.2-0.8-3.2-1.1c-0.3,0-0.7-0.1-1-0.1c-0.6-0.2-1.4-0.7-2-0.9c-0.5-0.2-1.1-0.1-1.5-0.3l-0.1-0.1
			c0.3-0.2,0.8-0.4,1.1-0.5c-0.1-0.3-0.2-0.2-0.3-0.4c-0.1-0.3,0.2-0.4,0-0.6v-0.4c0.3,0.1,0.4,0.3,0.8,0.3
			c-0.1,0.3-0.1,0.3-0.3,0.5c0.1,0.5,0.4,0.6,0.6,0.9c0.1,0,0.2,0.1,0.3,0.1c0.1-0.1,0.5-0.2,0.5-0.4v-0.5c0-0.1,0.3-0.1,0.4-0.2
			c0.1-0.1,0-0.4,0.1-0.5c-0.1-0.5-0.4-0.7-0.7-0.9c-0.1-1,0.2-1.4,0.6-2c0-0.6-0.2-0.6-0.5-1h-0.5c0-0.2,0-0.3-0.1-0.4
			c-0.1-0.3-0.3-0.3-0.6-0.5c-0.1,0.2-0.2,0.3-0.4,0.5H336c0.1-0.1,0.1-0.3,0.2-0.4c0.1-0.2,0.2-0.2,0.3-0.4c0.9,0,1.9,0.2,3,0.2
			c0,0.8-0.2,1.7,0.3,2.1c0.1,0.1,0.3,0.2,0.5,0.3c0.5,0,0.5-0.1,0.7-0.3c0.1-0.7,0.1-1.7-0.4-2c0-0.2,0-0.2,0.1-0.3
			c0.2-0.1,0.6,0,0.9-0.1c0.1-0.1,0.3-0.4,0.4-0.5c0.1-0.1,0.8,0.1,1.1,0c0.3-0.1,0.9-0.4,1.2-0.6h0.4l-0.4,0.4
			c0,0.5,0.1,0.6,0.3,0.9c0.3,0,0.8,0,1-0.1c0.3-0.1,0.2,0,0.3-0.3c0.2-0.4-0.4-1-0.9-1v-0.1c0.6-0.2,0.9-0.6,1.3-0.9
			c0.2-0.1,1.8,0,2.1,0.2h0.2v0.4c-0.2,0-0.2,0-0.3-0.1c-0.5,0.1-0.7,0.2-1,0.5c0,0.6,0.1,0.6,0.4,0.9c0.9,0.1,2.8,0.6,3.2,0.2h0.2
			c0-0.5,0-0.5-0.4-0.6c-0.2-0.1-0.4,0.1-0.5,0c-0.2-0.1-0.1-0.1-0.1-0.5c-0.4-0.1-0.6-0.1-0.9-0.3h-0.2c0.1-0.2,0-0.1,0.1-0.2
			c0.4-0.3,2.5,0.2,3,0.4c1.6,0.4,3.2,0.4,4.2-0.3c0.3-0.2,0.5-0.7,0.8-0.9c0.5-0.4,0.9-0.6,1.1-1.3c0.8-0.1,1.4-0.4,2-0.6
			c0.8-0.2,1.3,0,1.9-0.4c0.4,0.2,0.3,0.4,0.7,0.3c0,0.1,0.1,0.2,0.1,0.3c-0.3,0.2-0.4,0.4-0.6,0.5c0,0.4,0,0.3,0,0.6
			c0.1,0.1,0.1,0.1,0.2,0.2c0.7,0.1,1.1-0.3,1.6,0.1c0.4-0.1,0.5-0.3,0.8-0.5c0-0.2,0-0.3,0.1-0.4c-0.1-0.4-0.8-1.2-1.2-1.5v-0.3
			c0.5-0.1,1.6-0.6,1.9-0.4c0.1,0,0.2,0.1,0.3,0.1c-0.1,0.5-0.3,1.3,0.1,1.6c-0.1,0.1-0.4,0.1-0.6,0.2c-0.1,0.1-0.2,0.3-0.4,0.5
			c0,0.5,0.1,0.6,0.3,0.9c0.6,0,0.8-0.2,1.3-0.4c0.1-0.7,0.1-1.1,0.5-1.6v-0.1c0.3,0.2,0.3,0.5,0.5,0.7c0.2,0.1,0.5,0.2,0.6,0.3
			c0.4,0,0.5-0.1,0.7-0.3c-0.1-1.1-0.7-1.4-1.3-1.9h-0.1v-0.1c0.5,0,1.1-0.3,1.6,0h0.5c-0.1,0.4-0.2,0.8-0.3,1.2
			c0.3,0.2,0.3,0.3,0.8,0.4c-0.1,0.2-0.1,0.4-0.3,0.6c0,0.5,0.1,0.5,0.3,0.8c0.3-0.1,0.5-0.1,0.8-0.2c0.1-0.2,0-0.1,0.1-0.2
			c0-0.5,0-0.8-0.4-0.9c0.2-0.5,0.5-0.5,0.5-1.2c0.7,0,1.2,0.1,1.8,0.2c0.2,0,0.5-0.1,0.7-0.1c0.1,0,0.2,0.3,0.5,0.2
			c1.4-0.3,3.1-0.8,4.2-1.6h0.2c0,0.2,0,0.3-0.1,0.4c0,0.6,0.3,0.7,0.5,1.1c0.6-0.1,0.5-0.4,0.8-0.7c0-0.4-0.1-0.6-0.4-0.8
			c0.5-0.4,1.8-0.3,2.6-0.3c-0.1,0.5-0.3,0.7-0.1,1.2c0,0.1,0.3,0.3,0.3,0.4c0.1,0.3,0,0.7,0.1,1.1c0.1,0.1,0.3,0.1,0.4,0.2
			c0.7,0,1-0.2,1.2-0.6h0.3c0-0.2,0-0.2-0.1-0.3c0-0.4-0.1-0.4-0.3-0.6c-0.1,0-0.3-0.1-0.5-0.1c0-0.4,0-0.6-0.3-0.7v-0.3
			c2,0.4,3.4,0.7,4.9,1.1c0,0.4,0.1,0.7,0.2,1c0.3,0.1,0.7,0.2,1.3,0.2c0-0.4,0.1-0.5,0-0.7V225c0.8,0.2,2.9,0.1,3.5,0.5
			c-0.1,0.3-1,1.1-1.5,1.3c-0.1,0.2,0,0.1-0.1,0.2c0,1,0.5,0.8,1,1.3c0.4-0.1,0.5-0.2,0.7-0.4v-0.9c0.4,0,0.4,0,0.7,0
			c0.1-0.2,0.1-0.2,0.3-0.3c0-0.7-0.2-1.1-0.8-1.2v-0.1c0.6-0.3,1.3-0.4,1.6-1h0.4c0,0.2,0.1,0.4,0.1,0.6c0.1,0.1,0.3,0.3,0.4,0.5
			c0.3,0,0.4-0.1,0.6,0c0.2-0.3,0.4-0.4,0.5-0.7c0.5,0.2,0.5,0.9,0.7,1.3c-0.2,0.1-0.5,0-0.7,0.3c-0.1,0-1.1-0.7-1.2-0.8
			c-0.4,0.1-0.4,0.2-0.6,0.4c0,0.5-0.2,0.6,0.2,0.8c-0.2,0.2-0.7,0.3-1,0.4c-0.1,0.5-0.5,1.7-0.3,2.1v0.3c0.2,0.1,0.1,0,0.2,0.1
			c0.5-0.1,0.7-0.3,1.1-0.5c0.1-0.2,0.1-0.4,0.1-0.7l0.1-0.1c0.4,0.1,0.9,0.4,1.3,0.1c0.2-0.1,0.2-0.3,0.4-0.5
			c0.4-0.3,1-0.2,1.4-0.5h0.1c-0.1,0.3-0.2,0.6,0,0.8c0,0.6-0.3,0.6-0.5,1c-0.1,0.1-0.2,1.1,0.1,1.5c0.1,0.2,0,0.1,0.2,0.2
			c0.1,0.1,0,0.1,0.2,0c0.6,0,1.6-1.6,1-2.1c0.1-0.4,0.5-0.7,0.8-1c0-0.2,0-0.3-0.1-0.4c-0.3-0.2-0.5-0.2-0.8-0.2
			c0.1-0.4,0.1-0.7,0-1.1c0.3-0.2,0.4-0.4,0.6-0.6c0.2,0.5,0.2,0.8,0.5,1.2c0.3,0.1,0.4,0.2,0.7,0.2c0.1,0,0.2-0.2,0.4-0.2
			c0.1,0,0.2,0.3,0.4,0.4c0.3,0.1,0.3-0.1,0.5,0h0.1c-0.1,0.2-0.4,0.6-0.5,0.7c0,0.6,0.3,0.6,0.5,0.9c0.9,0,2-1.1,2.3-2
			c0.1,0.1,0.2,0.4,0.4,0.5c0.6,0.3,0.3-0.3,0.6,0.4c0.2,0.1,0.1,0,0.2,0.1c0.5,0,0.8-0.2,0.9-0.6c0.1-0.2,0-0.3-0.2-0.6
			c0.2-0.1,0.8-0.1,0.9-0.2c0.4,0.1,0.5,0.6,0.6,0.9c0.4,0,0.8,0,1-0.1c0.1-0.5,0.1-0.6-0.1-1.1c1-1,2.3-1.4,3.8-1.9l0.1,0.1
			c0,0.3-0.1,0.4-0.2,0.5c0.1,0.5,0.3,0.4,0.5,0.6c0.5,0,0.6-0.2,0.9-0.4c0.1-0.2,0-0.1,0.1-0.2c-0.1-0.4-0.2-0.5-0.5-0.6
			c0.2-0.9,1.9-1.3,2.7-1.6c0.4-0.1,1-0.2,1.2,0.1c0.3-0.1,0.9-0.5,1.2-0.3h0.4c-0.1,0.2-0.3,0.1-0.5,0.3c-0.1,0.1,0,0-0.1,0.2
			c0.2,0.1,0.4,0.1,0.6,0.1c0.1,0.3,0.2,0.5,0.4,0.7c0.6,0,0.8-0.1,1.1-0.3c0-0.4,0.1-0.5-0.1-0.7v-0.2c0.5,0.1,1,0.3,1.4,0.6
			c0.1,0.1-0.1,0.1-0.2,0.4c0.1,0.1,0.2,0.1,0.4,0.1c-0.1,0.4,0,0.5,0,1c-0.6,0-0.6,0-1.3,0c-0.2,0.2-0.4,0.3-0.5,0.5
			c0,0.3-0.1,0.3,0,0.4c0,0.3,0.1,0.3,0.2,0.5c0.4,0.1,0.9,0.2,1.1,0.5c0.6,0,0.8,0,0.9-0.5c0.2,0,0.2,0,0.3,0.1
			c0.6,0,0.7-0.1,1.1-0.3c0-0.3,0.1-1.2-0.2-1.6v-0.2c0.3,0.1,0.4,0.2,0.8,0.2c0,0.2,0.1,0.5,0.2,0.6c0.2,0.5,1.6,0.5,1.9,0.4
			c0.3,0,0.3-0.1,0.6-0.2c0-0.3,0-0.7-0.1-0.8c0.2-0.4,1.1-0.4,1.7-0.4c0,0.4,0,0.3,0.1,0.6c-0.1,0.1-0.2,0.1-0.4,0.1
			c0,0.3,0,0.7-0.1,0.9c0.1,0.2,0.3,0.3,0.5,0.5c0.4,0,0.6-0.1,1.2-0.1c0-0.7,0-0.9-0.2-1.5c0.1-0.1,0.1-0.2,0.2-0.4
			c0.3,0.1,0.3,0.3,0.5,0.6c0.2,0.1,0.3,0.1,0.4,0.1c0.4,0,0.4-0.1,0.6-0.2c0-0.7,0-1,0-1.5c1.7,0.1,2.4,0.7,4,0.6
			c-0.1,0.2-0.1,0.2-0.3,0.4c0,0.6,0.4,0.7,0.6,1.1c0.4,0,0.5-0.1,0.8-0.3c0-0.4,0.1-0.5-0.1-0.7c-0.1-0.3-0.2-0.4-0.6-0.5v-0.2
			c0.3,0,0.5,0,0.7,0.1c0.1,0.3,0.1,0.3,0.2,0.6c0.3,0,0.8-0.1,1-0.1c0.1,0,0.4,0.3,0.5,0.3c0.5,0.1,0.5-0.4,0.8-0.2
			c0.4,0,0.4,0,0.5,0.2c0.1,0.1,0,0.5,0.1,0.7c-0.4,0.2-0.5,0.4-0.7,0.6c0,0.8,0.2,1,0.9,1.1c-0.4,1,1.3,4.4,0.7,5.3
			c-0.2,0.3-0.3,0.1-0.5,0.2c-0.4,0.3-0.4,0.7-0.6,1.1c0.1,0.4,0.4,0.4,0.6,0.7c0.2-0.1,0.4-0.1,0.5-0.3h0.3
			c-0.1,0.7,0.7,1.3,0.5,1.7c0,0.5-0.2,0.6-0.5,0.8c0.1,0.4,0.2,0.8-0.1,1.3c0.1,0.2,0.2,0.3,0.3,0.6c1.8,0,3.4-0.5,4.9-1.1
			c0.7-0.3,1.3,0,1.7-0.4c0.2,0.2,0.4,0.6,0.6,0.8c0.6,0,0.8-0.1,1-0.6c0.1-0.1,0-0.2,0.1-0.4c-0.2-0.1-0.3-0.2-0.5-0.3
			c0.1-0.2,2.7-1.8,2.9-1.8c0.1,0.1,0.1,0.1,0.2,0.2c0.5,0.1,0.9-0.4,1.1-0.3c0.5,0,0.5-0.2,0.8-0.4c0-0.2,0-0.3-0.1-0.4
			c0.1-0.3,0.2-0.4,0.5-0.5c0.1-0.1,0.1,0,0.3,0.1c1.1-0.1,0.7-1,1.5-1.3c0.8-0.4,1.7-0.6,2.3-1.1c0.1-0.2,0.1-0.3,0.2-0.5
			c0.3-0.2,1-0.2,1.3-0.5c0.1-0.2,0.2-0.3,0.3-0.5c0.8-0.5,1.7-0.7,2.4-1.4c0.2,0,0.2,0,0.3,0.1c0.3,0.2,0.6,1.4,0.6,1.7
			c0.2,0,0.4,0.1,0.6,0.1c0.2-0.2,0.4-0.4,0.7-0.5c-0.1-0.7-0.2-1.1-0.5-1.6c0.2-0.2,0.4-0.4,0.5-0.7c0.2,0.1,0.7,0.4,0.9,0.5h0.5
			c0-0.3,0.1-0.3-0.1-0.5c0-0.5,0-0.6-0.4-0.7c0-0.2,0.1-0.4,0.1-0.5c0.5,0.1,0.9,0.1,1.1,0.5h0.1c-0.1,0.2-0.3,0.3-0.5,0.5
			c0,0.3,0,0.5,0,0.5c0,0.2,0,0.3,0.1,0.5c0.2,0.1,0.1,0,0.2,0.1c0.6,0,0.9-0.1,1.1-0.5c0.4,0.1,0.6,0.4,0.7,0.7
			c0.1,0.1,0,0,0.1,0.2c-0.4,0.3-1.6,0.9-2,0.6h-0.2c0.1,0.2,0.2,0.6,0.3,0.8c0.2,0.3,0.6,0.3,0.8,0.6c0,0-0.1,0.3-0.3,0.5
			c-0.2,0.1-0.2-0.1-0.4,0c-0.2,0.2-0.3,0.3-0.5,0.5c0,0.2,0,0.3-0.1,0.4c0.1,0.3,0.3,0.4,0.5,0.6c0.8,0,0.9-0.2,1.4-0.5
			c0-0.2,0-0.3,0.1-0.4c0-0.5-0.1-0.7-0.5-0.8c0.1-0.4,0.4-0.4,0.6-0.6c0-0.2,0-0.1,0-0.5c0.1,0.1,0.1,0.2,0.2,0.3
			c0.4,0.3,1.4,0.4,2,0.4c0-0.6-0.2-0.5-0.3-1c1,0.1,2,0.4,3,0.5c-0.1,0.2-0.1,0.5-0.1,0.8c-0.2,0-0.4,0.1-0.6,0.1
			c-0.1,0.2-0.2,0.3-0.3,0.5c-0.1,0.1-0.1,0.3-0.1,0.5c0.4,0,0.4,0.1,0.5,0.4c0.4,0,0.5-0.1,0.8-0.2c0.1-0.3,0.2-0.4,0.2-0.8
			c0.4,0,0.4-0.1,0.5,0.2c1.1-0.1,1.5-1.1,1.7-1.8h0.4c-0.6,0.1,0.9,1.3,1,1.6c0.2,0.1,0.1,0,0.2,0.1c0.8,0,1-0.1,1.2-0.6
			c0.2-0.2,0.1-0.6-0.1-0.7v-0.1c0.9,0.1,0.6,1.5,1.2,1.9c-0.1,0.2-0.1,0.2-0.3,0.4c0.1,0.3,0.3,0.6,0.5,0.9c1.5,0,0.9-0.6,1.6-0.8
			c0.2-0.1,0.8,0,1,0c0-0.3-0.1-0.6,0.1-0.8V231c0.3,0.1,0.6,0.2,0.8,0.4c0.1,0.1,0.1,0.1,0.1,0.3c-0.2,0-0.2,0-0.3,0.1
			c-0.2,0.1-0.3,0.2-0.5,0.3c0,0.5,0.1,0.9-0.3,1.2c0.2,0.2,3.3,1.4,4.1,1.6c-0.1,1-0.7,1.1-1.1,1.7c-0.3,0.5-0.3,1.1-0.6,1.6
			c-0.2,0.5-1.1,0.7-1.8,0.7c0-0.3,0-0.3,0.2-0.5C484,237.8,483.7,237.7,483.5,237.4z M401.2,247.4v0.3c-0.3,0-0.3,0-0.7,0
			c0.1-0.2,0.2-0.3,0.3-0.5C401.1,247.3,401,247.3,401.2,247.4z M366.7,242.3c0.1-0.1,0,0,0.2-0.1
			C366.9,242.2,366.9,242.6,366.7,242.3L366.7,242.3z M365.3,244.7v0.2c-0.8-0.2-1.6-0.5-2.5-0.5c0.3-0.2,0.9,0.1,1.3-0.1
			C364.6,244.2,364.9,244.4,365.3,244.7L365.3,244.7L365.3,244.7z M344.4,240.1L344.4,240.1c-0.2,0.1-0.3,0.1-0.5,0
			c0.1-0.1,0.1-0.1,0.2-0.2h0.2C344.4,240.1,344.3,240,344.4,240.1z M334.7,234.9c-0.6-0.2-1.4,0.1-1.8-0.1c0-0.2,0.1-0.1,0.4-0.3
			c0.7-0.4,0.6,0.1,1.3-0.1c0.3-0.1,0.3-0.5,0.5-0.6c0.3,0,0.7,0.1,1,0.1c0-0.2,0-0.2,0.1-0.3v-0.1c0.1,0,0.1,0.1,0.2,0.1l0.1-0.1
			c0,0.3-0.1,0.4,0,0.5c0,0.7-0.3,0.7-0.7,0.9c-0.1,0-0.1,0-0.2-0.2c-0.3,0.1-0.3,0.1-0.4,0.6C335,235.2,334.8,235,334.7,234.9z
			 M335,237.1v0.2c-0.8-0.3-1.5-0.5-2.2-0.8c0.6-0.4,1.3,0.1,1.8-0.5C335,236.2,334.8,236.7,335,237.1z M334.7,233.1
			c0.1-0.1,0.2-0.1,0.3-0.2C334.8,233.2,334.9,233.1,334.7,233.1z M335.2,232.5c0.1-0.3,0.2-0.3,0.4-0.5h0.1c0,0.2-0.1,0.4-0.1,0.5
			H335.2z M336.5,233.1c0-0.1,0.1-0.2,0.1-0.4h0.3c-0.1,0.2-0.1,0.2-0.2,0.4H336.5z M396.4,223.8c0.1-0.3,0.3-0.4,0.4-0.7
			c0.6,0,1.1,0.1,1.6,0.1v0.1c-0.8,0-1.7-0.2-1.8,0.5L396.4,223.8L396.4,223.8z M400,224.9L400,224.9c-0.3-0.1-0.6-0.2-0.9-0.5
			c-0.1-0.2-0.2-0.7-0.3-0.9c-0.1,0-0.2-0.1-0.3-0.1v-0.2c0.2,0.1,0.1,0,0.2,0.1c0.6,0,0.9,0,1.2,0.4
			C399.9,223.9,399.6,224.6,400,224.9z M403,224.9c0.4,0.1,0.3,0.1,0.7,0.1c0.1,0.2,0.2,0.3,0.3,0.5c-0.1,0.4-0.2,0.3-0.4,0.6h-0.1
			c-0.2-0.3-0.5-0.4-0.7-0.6C402.7,225.4,402.9,225.2,403,224.9z M404.3,225.9v-0.3c0.2,0.1,0.4,0.2,0.6,0.3
			c0.1,0.1,0.1,0.3,0.2,0.4v0.1c-0.4-0.1-0.3-0.1-0.7-0.2C404.4,226,404.4,226,404.3,225.9z M423.5,223c0-0.1,0.1-0.1,0.1-0.2
			c0.2,0.1,0.1,0,0.2,0.1c0.1,0.1,0.1,0.2,0.2,0.3v0.4C423.6,223.4,423.7,223.1,423.5,223z M424.9,222.2c0.1-0.2,0.1-0.2,0.3-0.4
			c0.3-0.3,1.3-0.1,1.8-0.5c0.6,0.1,0.3,0.4,0.6,0.7v0.1c-0.5,0-0.8-0.2-0.9-0.3c-0.4,0.1-0.5,0.2-0.6,0.6c-0.3,0-0.5-0.1-1-0.1
			C425,222.4,425,222.3,424.9,222.2z M430.4,223.1L430.4,223.1c-1-0.4-1.1-1.3-1.8-1.8c0.3-0.2,0.5,0,0.6-0.1
			c0.5,0.1,0.9,0.4,1.1,0.7C430.4,222.1,430.2,222.8,430.4,223.1z M436.2,223.4L436.2,223.4l0.2-0.1v0.1H436.2z M468.6,224.9v-0.4
			c0.2-0.1,0.1,0,0.2-0.1h0.2c0,0.2-0.1,0.4-0.1,0.5C468.8,225,468.7,224.9,468.6,224.9z M475.2,229.7c0.1-0.2,0-0.1,0.1-0.2
			C475.2,229.6,475.2,229.6,475.2,229.7z M481.8,230.6v-0.3c0.2,0.1,0.1,0.1,0.3,0.2C482,230.6,482,230.5,481.8,230.6z M485.6,232.8
			v-0.2c0.5,0.1,0.7,0.3,1.1,0.5v0.1c-0.1,0.1-0.2,0.2-0.3,0.4C485.9,233.4,485.9,233,485.6,232.8z M439.8,205.8
			c0.4,0,0.7-0.1,1.1-0.1c0.2,0.1,0.3,0.2,0.6,0.2c0.3,0,0.5-0.1,0.7-0.1c0.9,0.1,1.8,0.5,2.7,0.5c0.9-0.1,2.1,0.5,2.8,0
			c0.3,0.1,0.4,0.3,0.7,0.4c-0.1,0.7-0.4,0.8-0.6,1.3c-0.5,1.1-0.9,2.2-1.5,3.3c-0.3,0.5-0.7,1-0.9,1.6h-0.2c-0.3-0.3-0.6-0.8-0.8-1
			c-0.1-0.1-0.4-0.1-0.5-0.2c-0.3-0.4-0.4-1-0.7-1.4c-0.2-0.2-0.6-0.3-0.7-0.6c0-0.2-0.1-0.4-0.1-0.5c-0.1-0.1-0.2-0.2-0.4-0.3
			c0-0.2-0.1-0.4-0.1-0.6c-0.1-0.2-0.4-0.2-0.5-0.4c-0.1-0.2-0.1-0.5-0.2-0.7c-0.3-0.6-1-1-1.5-1.1L439.8,205.8L439.8,205.8z
			 M439.7,207.5c0.9,0.6,1,1.8,1.6,2.7c0.1,0.2,0.7,0.6,0.8,0.7c0,0.2,0.1,0.4,0.1,0.6c0.2,0.3,0.8,0.4,1,0.7c0,0.2,0.1,0.4,0.1,0.5
			c0.2,0.3,1,1.1,1.1,1.4c0,0.1-0.1,0.2-0.1,0.3c0,0.2,0.3,0.4,0.4,0.5c0.3-0.1,0.8-0.2,0.9-0.3c0.7-0.3,0.8-1.4,1.2-2
			c0.2-0.2,0.3-0.3,0.5-0.5c1.2-2.2,2-4.5,3.3-6.6c0.8-1.3,1.6-2.8,2.4-4.1c0.2-0.2,0.1-0.6,0.3-0.8c0.1-0.1,0.3-0.1,0.4-0.2
			c0.5-0.8,0.7-1.6,1.2-2.5c0.4-0.7,1.2-1.3,1.6-2c1.1-2,2-3.8,3.2-5.8c0.2-0.4,0.7-0.9,1-1.3c0.5-0.7,0.8-1.9,1.3-2.6
			c1.1-1.4,1.8-3.1,2.7-4.8c0.1-0.1,0.2-0.2,0.4-0.3c0.3-0.4,1-1.6,1.2-2c0.6,0.2,1.5-0.1,2,0.2c0.4,0.2,0.9,0.7,1.4,0.9
			c0.2,0,0.5,0.1,0.7,0.1c0.3,0.2,0.7,0.6,1.1,0.7c0.4,0,0.9,0.1,1.3,0.1c0.7,0.4,1.6,0.9,2.4,1.2c0.2,0,0.5,0.1,0.7,0.1
			c1.4,0.6,2.5,1.7,3.9,2.3c0,1.1-0.8,2.1-1.3,2.9c-0.1,0.2-0.1,0.5-0.1,0.5c-0.2,0.2-0.3,0.3-0.5,0.5c-0.6,1.1-0.9,2.2-1.4,3.4
			c-0.1,0.4-0.5,0.5-0.5,1c-0.2,0-0.3,0.1-0.5,0.1c0,0.2,0.1,0.5,0.1,0.7c-0.1,0.2-0.4,0.4-0.5,0.6c-0.3,0.5-0.4,1.2-0.7,1.7
			c-0.1,0.2-0.4,0.3-0.5,0.5c-0.2,0.4-0.1,0.7-0.4,1c-0.1,0.2-0.4,0.3-0.6,0.5c-0.3,0.5-0.3,1-0.6,1.6c-0.1,0.2-0.4,0.3-0.5,0.5
			c-0.2,0.2-0.1,0.7-0.1,0.7l-0.6,0.5c-0.5,0.7-0.6,1.5-1.1,2.2c-0.2,0.2-0.5,0.5-0.7,0.7c-0.3,0.5-0.3,1-0.6,1.6
			c-0.2,0.3-0.6,0.5-0.8,0.7c-0.3,0.4-0.4,1-0.7,1.4c-0.2,0.1-0.3,0.2-0.5,0.3c-0.1,0.2-0.1,0.4-0.3,0.5c-0.2,0.2-0.5,0.1-0.6,0.4
			c-0.3,0.4-0.4,0.8-0.7,1.2c-0.1,0-0.2,0.1-0.3,0.1c-0.3,0.5-0.4,1.1-0.8,1.6c-0.3,0.2-0.5,0.2-0.8,0.2c0.1,0.3,0,0.3,0.3,0.4
			c-0.2,0.6-0.9,1.1-1.2,1.6c-0.1,0.2,0,0.4-0.2,0.6c-0.3,0.4-1.1,0.9-0.8,1.5c0,2.1,0.1,1.5,1,2.5c0.8-0.1,1.9-0.7,2.7-0.6
			c0.6,0,1.3,0.1,2-0.1c0.3-0.1,1-0.6,1.4-0.6c0.8,0,1.3,0.4,2.2,0.4l0.1,0.1c-0.1,0.5-0.6,0.5-0.9,0.8c-0.5,0.7-3.4,2.9-4.3,3
			c-0.1,0.4-1.3,0.8-1.8,1.1c-0.8,0.5-1.5,1.4-2.3,1.9c-0.4,0.3-0.9,0.4-1.3,0.6c-0.2,0.2-0.3,0.4-0.5,0.6c-0.2,0.1-0.4,0.1-0.5,0.2
			c-0.4,0.3-0.7,0.7-1.2,1v0.3c-0.4,0.1-2.1,1.2-2.3,1.6c-0.2,0.1-0.1,0.1-0.1,0.2c-0.2,0.3-0.4,0.1-0.8,0.4
			c-0.2,0.2-0.3,0.4-0.5,0.6l-1.1,0.6c-0.3,0-0.6,0.1-0.9,0.1c-0.3,0.1-0.8,0.5-1.1,0.7c-0.1,0.2-0.2,0.3-0.3,0.5
			c-0.4,0.2-0.9,0.2-1.2,0.5v0.3c0,0-0.6,0.4-0.6,0.4c-0.4,0.2-0.5-0.1-0.8,0c-0.4,0.1-0.7,0.6-1.1,0.7h-0.5
			c-0.3,0.1-0.8,0.6-1.1,0.7c-0.4,0.2-0.8,0.2-1.1,0.5h-0.2c-0.1-0.6-0.2-1.4-0.4-1.9c-0.1-0.3-0.5-0.8-0.5-1.1
			c0-0.2,0.2-0.2,0.2-0.3c0.1-0.4-0.1-0.7-0.2-0.9c0.1-0.3,0.1-0.5,0.2-0.8c-0.1-0.7-0.4-2.1-0.7-2.8c0,0,0-2.7-0.2-3.1
			c-0.1-0.3-0.5-0.7-0.4-1.3c0.1-0.4-0.1-0.4-0.2-0.6c-0.1-0.3,0.2-1,0-1.5c-0.1-0.2-0.4-0.5-0.4-0.8c0.1-1-0.2-2.7-0.5-3.8
			c0-0.3,0.1-0.6,0.1-0.9c-0.1-0.3-0.5-0.8-0.5-1c0-0.2,0.1-0.4,0.1-0.6c-0.1-0.3-0.4-0.5-0.5-0.8c-0.1-0.4,0.1-0.7,0-1
			c0-0.1-0.2-0.4-0.3-0.6c-0.3-1.1,0.1-2.7-0.1-3.8L439.7,207.5z M360.3,212.8L360.3,212.8l0.1,0.2H360
			C360.1,212.9,360.2,212.9,360.3,212.8z M314.9,229.9v-0.2h0.4c0.1-0.7,1.2-1.1,1.6-1.6c0.3-0.3,0.9-1.1,0.9-1.4
			c0.2-0.1,0.4,0,0.5-0.2c0.1-0.1,0.1-0.3,0.2-0.5c0.2-0.1,0.4-0.1,0.6-0.2c0.1-0.1,0.2-0.3,0.3-0.4c0.3-0.2,0.8-0.2,1.2-0.4
			c0.6-0.3,0.6-0.8,1.5-0.8c0-0.2,0-0.2,0.1-0.3c0.1-0.1,0.2,0,0.5,0v-0.3c0.4-0.2,0.5-0.2,0.9-0.2c0-0.2,0-0.2-0.1-0.3
			c0.2-0.4,0.4-0.1,0.8-0.3c0.2-0.1,0.4-0.5,0.5-0.5c0.6-0.3,1.3-0.1,1.8-0.5c0.1-0.2,0.1-0.1,0-0.3c0.8-0.6,2.7-1.6,3.8-1.5
			c-0.1-0.2,0-0.1-0.1-0.2c0.2-0.2,0.6-0.5,0.8-0.5c0.2,0,0.4,0.1,0.5,0.1c0.1,0,0.1-0.3,0.2-0.4c0.2-0.1,0.1,0.1,0.1,0.2h0.5v-0.3
			c0.8-0.1,1.3-0.5,2.3-0.5v-0.3c0.3,0,2-0.3,2.1-0.4c0.1-0.1,0.2-0.2,0.3-0.4c0.4-0.2,0.7,0,1.1-0.2v-0.2c0.2-0.1,0.5,0.2,0.8,0.1
			c0.2-0.1,0.3-0.3,0.5-0.4h0.6v-0.2c0,0,0.2,0.2,0.4,0.2v-0.3c0.1,0,0.9-0.1,0.9-0.1c0-0.1,0.1-0.2,0.1-0.3h1.1l0.3-0.3
			c0.2,0,0.4,0.1,0.6,0.1c0-0.1,0.1-0.2,0.1-0.3c0.3,0.2,0.4-0.1,0.6-0.2c0.3,0,0.7,0.1,1,0.1c0.1,0,0.2-0.3,0.2-0.3h1
			c0.4-0.1,1.3-0.3,1.6-0.5c0.4-0.1,1.2,0.1,1.4,0c0.3-0.1,0.6-0.3,1.1-0.3c0.2,0,0.8,0.2,1.1,0v-0.2c0.2,0,0.5,0.1,0.7,0.1v-0.2
			c0.1,0.1,1.3-0.3,1.5-0.4c0.4-0.1,0.5,0.2,0.7,0.2c0.4-0.1,1-0.6,1.4-0.7h0.8c0.9-0.2,1.5-0.4,2.3-0.6c0.4-0.1,0.8,0.2,1.3,0.1
			c0.2-0.1,0.6-0.3,0.8-0.4v-0.1c0.1,0,1,0.3,1.2,0.2c0.2-0.1,0.2-0.5,0.6-0.6c0.5-0.1,0.9,0.2,1.3,0h0.2V212c0.3,0,0.6,0.3,0.9,0.2
			c0,0,0.1-0.3,0.2-0.3c0.3-0.1,1.1,0.2,1.3,0.3c0.1-0.1,0.1-0.1,0.1-0.3c0.4,0.1,3.2-0.1,3.3-0.2h0.5v-0.2
			c-0.1-0.1-0.2-0.1-0.4-0.1c0.4-0.2,1,0.2,1.5,0.1c0.9-0.2,2-0.5,2.7-0.7c0.2,0,0.5,0.1,0.7,0.1c0.7-0.1,1.6-0.1,2.1-0.4
			c0.4,0.1,1.4,0.4,1.7-0.2c0.1,0.1,0.1,0.1,0.1,0.3c0.4-0.1,0.8-0.5,1.2-0.5c0.4-0.1,1,0.3,1.4,0.1c0.4-0.2,1.7-0.5,2.2-0.4
			c0,0,0.3,0.2,0.4,0.2c0.8-0.2,1.5-0.4,2.3-0.6c0.2,0,0.4,0.1,0.5,0.1c0-0.1,0.1-0.2,0.1-0.3c0.3-0.1,0.2,0.3,0.6,0.2
			c0.5-0.1,1.1-0.6,1.7-0.7c0.5-0.1,1,0.2,1.3,0.1c0.9-0.2,2.2-0.5,3-0.6c0.4-0.1,1.3,0.3,1.6,0.2c0,0,0.3-0.3,0.4-0.4
			c0.1,0,0.1,0.2,0.1,0.2c0.2,0,1.4-0.4,1.6-0.5c0.7-0.2,1.3,0.1,1.6,0c0,0,0.2-0.3,0.2-0.3c0.5-0.2,1,0.4,1.3,0.4
			c0.2-0.2,1.3-0.5,1.6-0.5c0.1,0,0.3,0.2,0.5,0.1c0,0,0.1-0.3,0.2-0.3c0.1,0,0.1,0.2,0.1,0.2c0,0,1.6-0.1,1.7-0.2
			c0.6-0.2,1.7-0.5,2.5-0.6c0.4-0.1,1,0.1,1.4,0.2c0.5,0.1,1-0.1,1.6-0.1h0.9c1-0.5,3.5-0.4,4.6-0.6c0.3,0,0.6,0.1,0.9,0.1
			c0.1,0,0.4-0.3,0.5-0.4c0.5-0.2,0.6,0.3,1.3,0.2c0.5-0.1,1.8-0.4,2.5-0.3c0.5,0.1,1.8,0.3,2.4,0.2l0.3-0.2c0.3,0,0.6,0.1,0.9,0.1
			v-0.2c0.2,0,0.4-0.1,0.5-0.1c0.6,0.1,1.6,0.3,2.2,0.2c0.3-0.1,0.5-0.1,0.8-0.2c0.5,0.1,2.1,0.3,2.5,0.3c0.5-0.1,1.1,0.1,1.6,0
			c1-0.2,1.8,0,2.6-0.1c1.3-0.2,3.1-0.1,4.4,0.1c-0.4,0.2-0.8,0-1.2,0.3c-0.1,0.2,0,0.4-0.1,0.6c-0.1,0.4-0.3,0.7-0.4,1
			c-0.1,0.3,0.1,0.6,0.1,0.8c-0.4,3.2,0.9,6.7,1.4,9.2c0.3,1.6,0,3.1,0.5,4.3h-0.1c-0.5,0.4-2.5-0.5-3.3-0.2c-2.7,1-4.9-1.2-7-2
			c-1.2-0.4-3.6,0.5-4.3,0.9c-0.6,0.3-1.4,0.4-1.7,1c-1.2-0.1-2.4-0.6-3.4-0.9c-0.6-0.2-0.9,0.3-1.3,0.4c-0.3-0.1-0.7-0.1-1-0.2
			c-0.1,0.1-0.1,0.2-0.2,0.3c-0.2,0.1-0.9,0.1-1.1,0.2c-0.6,0-1.2,0.1-1.7,0.1c-0.2,0.2-0.4,0.4-0.5,0.6c-0.2,0-0.4,0.1-0.5,0.1
			c-0.1,0.1-0.3,0.4-0.5,0.5c-0.4,0.2-1,0-1.2,0.1l-0.5,0.6c-0.4-0.2-1.2,0.1-1.6,0.1c0,0.2-0.1,0.4-0.1,0.6c-0.7,0-2.4,0.9-2.8,0.8
			c-2.1-0.3-4.2-1.9-6.3-2.7c-0.9-0.3-3.3-0.3-3.8-0.6c-0.7,0.1-1.3,0.7-1.8,1c-0.1,0.3-0.1,0.5-0.2,0.8c-0.9,0-1.7,0.6-2.4,0.6
			c-0.7,0-1.5-0.2-2.2-0.4c-0.3-0.1-1,0.2-1.3,0.1c-0.1-0.1-0.2-0.4-0.4-0.5c-0.5-0.2-1.2,0-1.6-0.1c-0.5-0.1-1.3-0.4-1.8-0.5
			c-0.5-0.1-0.8,0-1.1-0.1c-0.3-0.1-0.9-0.5-1.3-0.5c-0.2,0-0.3,0.3-0.5,0.2c-0.1-0.1-0.1-0.1-0.2-0.2c-1.3,0.3-2.7,0.1-3.8,0.5
			c-0.8,0.3-1.4,0.9-2.1,1.2c-0.3,0-0.7,0.1-1,0.1c-1.1,0.3-2,0.2-2.9,0.2c-0.6,0-1-0.4-1.5-0.6c-0.7-0.2-1.1,0.2-1.6,0
			c-0.2-0.1-0.4-0.3-0.8-0.2c-0.2,0-0.8-0.1-1.3,0c-0.4,0.1-0.7,0.3-1,0.4c-0.7,0.2-1.1-0.2-1.6,0c-1.3,0.5-2.9,1-4.2,1.4
			c-0.5,0.2-1.1-0.1-1.5,0c-0.9,0.2-2.3,1.7-2.7,2.4h-0.3v0.3c-0.3,0.1-0.7,0.5-1,0.5l-2.7-0.2c-0.3-0.1-0.8-0.5-1.2-0.5
			c-0.3,0-0.5,0.1-0.8,0.1c-0.1-0.1-0.1-0.1-0.2-0.2c-0.5-0.1-1.1,0.1-1.5,0c-0.1,0-0.3-0.3-0.4-0.3c-0.6-0.2-1.2,0.3-1.7,0
			c-1.2,0.1-1.6,1-2.4,1.4c-0.4,0.1-0.7,0.1-1.1,0.2c-0.4,0.2-1,0.6-1.4,0.7c-0.2,0-0.5-0.1-0.7-0.1c-0.5,0.2-1.2,0.4-1.7,0.5v-0.1
			c-0.1-0.2,0-0.1,0.1-0.3c-1-0.3-2.1,0.1-3-0.1c-0.2,0.2-0.6,0.3-0.8,0.6c-0.1,0.2-0.2,0.9-0.2,0.9c-0.1,0.1-0.4,0.1-0.5,0.2
			c-0.1,0.2-0.5,0.5-0.6,0.6c-0.1,0.2,0.1,0.6-0.1,0.7c-0.1,0.1-0.4,0.1-0.5,0.2c-0.1,0.1-0.1,0.1-0.1,0.3c-0.9,0.1-1.3,0.9-2.1,1.2
			c0,0.5,0.1,0.9,0.3,1.2c0,0.3-0.1,0.3-0.2,0.5c-1.4,0-2.7-0.9-3.8-1.4c-0.6-0.2-1.2-0.1-1.9-0.4c-1-0.3-2.3-0.9-3.3-1.3
			c-0.6-0.2-1.5-0.1-2.1-0.4c-0.4-0.2-0.8-0.6-1.2-0.7c-1.1-0.5-2.2-0.5-2.8-1.4c-0.6,0-0.7,0.1-1,0.3l-0.1-0.1
			C314.8,230.2,314.8,230.1,314.9,229.9z M482.8,359.1C482.8,359.2,482.8,359.2,482.8,359.1c-0.2,0-0.2,0-0.3-0.1v-0.2
			c0.2,0,0.3-0.1,0.5-0.1C483,359.1,483,359,482.8,359.1z M493.1,322.8v-0.3h0.1c0.1,0.1,0.1,0.1,0.2,0.2
			C493.3,322.8,493.3,322.8,493.1,322.8z M498.7,272.2c-0.7,0.2-1,0.3-1.5,0.3c-0.1,0-0.2,0-0.2,0.1c0,0-0.1,0.1-0.1,0.1v0.4
			c-0.6,0.1-1.1,0.8-1.6,1c-1.1,0.4-2.2-0.1-3,0.5l-0.3,0.3c0,0.3,0,0.5,0.1,0.6c0.8,0.2,1.4,0.2,2.3,0c0.3,0,0.7-0.1,1-0.1v0.2
			c0.5-0.1,1-0.5,1.4-0.7c0.2,0.1,0.8,0,1-0.2c0.3-0.1,0.3-0.3,0.5-0.5V274h0.3c0,0.5-0.1,2.7-0.3,3v0.2c-0.2-0.1-0.3-0.3-0.5-0.5
			c-0.1-0.1,0,0-0.2-0.1c-0.7,0.7-2.1,1.2-3,1.6c-0.5,0.2-0.8-0.1-1.2,0.3c-0.5,0-1,0-1.3,0.2c0,0.4-0.2,0.7-0.1,0.9
			c0.3,0.6,0.6,0.1,1.1,0.2c1.1,0.2,2.1-0.5,3.1-0.8c0.4,0,0.7-0.1,1.1-0.1c0.2-0.2,0.5-0.5,0.7-0.7h0.2c0,0.7-0.3,1.5-0.4,1.9
			c0,0.2,0.1,0.6,0.1,0.7c0,0.3,0,0.6-0.1,0.7c-0.3,0.2-0.8,0.1-1.2,0.3c-0.7,0.3-1.9,0.7-2.5,0.9c-0.5,0.2-0.9-0.3-1.3-0.2
			c-0.4,0.1-0.4,0.3-0.6,0.6c0,0.2,0,0.3,0.1,0.4c0.1,0.4,0.5,0.6,0.7,0.9c0.4-0.1,1.1,0.2,1.6,0c0.4-0.2,2.2-0.9,2.4-0.8
			c0.4-0.1,0.3-0.1,0.4-0.5h0.2c0,0.9-0.3,2.7-0.5,3c-0.3,0.1-0.8-0.2-1.3-0.1c-0.2,0.1-0.5,0.2-0.7,0.3c0,0.1-0.1,0.2-0.1,0.3h-1.3
			c-0.6,0.2-1.5,0.2-1.8,0.5c-0.2,0.3-0.1,0.4-0.1,0.7h0.3c-0.1,0.2,0,0.1-0.2,0.2c0.1,0.2,0.1,0.2,0.2,0.4c0.4,0,1-0.1,1.5-0.3
			c0.1,0.1,0.1,0.1,0.2,0.2c0.3,0,0.2-0.1,0.4-0.2c0.2-0.1,0.5,0.1,0.6,0.1c0.7-0.1,1.3-0.6,2.1-0.6c0,1.4-0.4,2.1-0.5,3.4
			c-0.5-0.1-0.7-0.3-1.1,0l-0.4,0.4c-0.2,0-0.4-0.1-0.6-0.1c-0.4,0.1-1.5,0.7-2,0.4c-0.3,0-0.7,0-0.9,0.1c-0.1,0.3-0.3,0.7-0.2,0.9
			c0.5,1.3,4,0.1,4.8,0c0,1-0.4,3.9-0.7,4.4v0.2c-0.2-0.1-0.5-0.5-0.7-0.6c-1.2,0.2-3.1,0.4-4,0.9v0.4c0.2,0,0.2,0,0.3,0.1
			c0,0.1,0.1,0-0.1,0.2c0.1,0.2,0.2,0.3,0.3,0.5c0.7,0.1,3.3,0,3.9-0.5c0.1,0,0.2,0.1,0.3,0.1c-0.1,1.1-0.4,1.9-0.7,2.9
			c-0.2,0.5,0.1,0.9-0.2,1.3c-0.2,0.3-0.6-0.1-1,0c-0.2,0-0.3,0.3-0.5,0.4H492c-0.7,0.2-1.5,0.5-2.4,0.5c-0.2,0.5-0.4,0.7-0.4,1.3
			c0.4,0.1,0.5,0.2,0.6,0.5c1-0.2,3.6-0.8,3.8-1.4c0.3,0.5-0.5,2.9-0.6,3.9c-0.9,0.2-3.2,1-3.8,0.5c-0.2,0.2-0.1,0.1-0.1,0.3
			c-0.2,0.1-0.3,0-0.4,0.1c-0.3,0.1-0.3,0.2-0.5,0.4c0,0.4,0.1,0.6,0.2,0.8c0.2,0.1,0.4,0.2,0.5,0.5c0.9,0,2,0.1,2.5-0.5
			c0.3,0,0.6,0,0.8,0.1c0,1-0.1,2-0.5,2.6c-0.2,0.1-0.6,0.1-0.7,0.1c-0.4,0.1-2.7,1.1-2.9,1.4c-0.2,0.2-0.3,0.7-0.2,0.9
			c0.1,0.4,0.3,0.3,0.5,0.6c0.5,0,2.4-0.7,2.7-0.9c0.2,0,0.2,0,0.3,0.1c0,0-0.1,1.8-0.2,2.1c-0.4,1.4-0.4,2.9-0.8,4.1
			c-0.2,0.6-0.1,1.2-0.3,1.5c-0.2,0.1-1.3-0.7-1.4-1h-0.3c0.2,0.5,0.8,0.9,1.2,1.2c-0.6,1.3-2.9,0.7-4.1,1.3
			c-0.1,0.1-0.1,0.3-0.2,0.4c0,0.6,0.1,0.7,0.3,1.1c2,0,2.6-0.2,4.1-0.9c0,0,0.1,0.1,0.1,0.1c0,1.3-0.5,2.2-0.8,3.2
			c-1.3,0.3-2.5,0.7-3.5,1.4c0,0.5,0.1,0.5,0.3,0.7c0.7,0.1,2.1,0.2,2.7-0.2c0.2,0,0.2,0,0.3,0.1c0.1,0.1-0.2,1.6-0.4,1.9
			c-0.1,0.1-0.4-0.2-0.6-0.2c-0.2,0-0.9-0.2-1.2-0.1c-0.5,0.1-1.3,0.5-1.7,0.2c-0.4,0.1-0.4,0.3-0.6,0.5c0,0.9,0.4,0.6,0.6,1.2
			c0.9,0,2.7-0.2,3-0.5c0.3,0.1,0.2,0,0.4,0.2c0.3,0.6-0.7,2.4-0.5,2.7c-0.1,0.3-0.1,0.2-0.2,0.5c-1.1,0-1.5,0.3-2.7,0l-0.8,0.8
			c0.2,1.4,2.1,1.1,3.2,1.1c0,1.3-0.5,2.2-0.7,3.1c-0.2,0.6,0.1,0.9-0.3,1.3c-0.1,0.1-0.9-0.4-1.3-0.3c-0.4,0.1-2.1,0.8-2.3,1
			c0,0-0.1,0.1-0.1,0.1h0.1c0,0.5,0,0.7,0.2,1c1.4,0,2-0.2,2.7,0.5h0.4c0,0,0,0,0,0c-0.2-0.2-0.4-0.4-0.6-0.5v-0.2
			c0.2-0.1,0.1,0,0.2-0.1h0.5c0,0.2-0.1,0.5-0.1,0.8c0,0,0,0,0,0h0c-0.1,1.1-0.4,2.7-0.8,3.1c0,0-0.1,0.1-0.1,0.1v-0.1
			c-0.3-0.1-0.3-0.4-0.5-0.6c-1-0.2-2.4-0.2-2.9,0.6c-0.1,0.1,0,0.1-0.1,0.3v0.7c0.4,0.1,1.6,0.3,2-0.1c0.1,0.1,0.1,0.4,0.3,0.5
			c0.3,0.2,0.6,0.1,0.8,0.5c0.2,0.3-0.4,1.5-0.3,1.9c-0.7-0.4-3.3,0.4-4.1,0.7c0,0.4,0,0.6,0.2,0.8c0.1,0.2,0.1,0.2,0.4,0.3
			c0.7,0.4,2.4-0.1,2.9-0.5h0.1c-0.2,0.9-0.3,1.8-0.4,2.7c-2.2,0-2.8-0.1-4.3,0.9c0,0.5,0.1,0.7,0.2,1.1c0.3-0.1,0.6,0.2,1.2,0.1
			c0.2-0.1,0.3-0.3,0.5-0.4c0.5-0.2,0.9,0.1,1.2-0.2c0.6,0,0.7,0.1,1,0.3c0,1.8-2.4,2.5-3.8,2.9c-0.2-0.1-0.8-0.1-0.9-0.1
			c-0.3,0.1-0.4,0.3-0.6,0.5c0,0.2,0.1,0.7,0.2,0.9v0.2c1.3,0.3,3.5-0.1,4.1-0.5h0.1c-0.1,0.8-0.7,3.3-0.4,3.6
			c-0.5,0.4-1.1-0.2-1.4-0.1c0,0.1-0.1,0.2-0.1,0.3c-0.1,0.1-0.4,0.2-0.5,0.2c-0.2,0-0.4-0.1-0.6-0.1c-0.1,0-0.4,0.3-0.5,0.3
			c-0.4,0.1-0.3-0.2-0.5-0.2c-0.4,0.1-1.1,0.4-1.5,0.5c0,0.6,0.2,0.9,0.4,1.1c0.1,0.2,0.1,0.2,0.4,0.3c0.5,0.2,3.2-0.2,3.7-0.5h0.1
			c0,0.7-0.2,2.1-0.6,2.6c-0.1,0.3-2.1,0.6-2.7,0.7c-0.3,0.1-1-0.2-1.4,0c-0.5,0-0.5,0.2-0.8,0.5c0,0.5,0.1,0.8,0.4,1.1
			c0.4,0.4,1.3,0.2,2.2,0.2c0,0.2,0,0.3-0.1,0.5v0.1c0.1,0,1.6-0.9,1.7-1h0.1c-0.1,0.7-0.3,1.3-0.5,1.9c0,0.1,0.1,0.2,0.1,0.4
			c-0.1,0.4-0.4,0.6-0.5,1.1c-2-0.6-3.2,0.1-5.2,0.3c-0.1,0.2-0.1,0.3-0.3,0.5c0,0.5,0,0.6,0.2,0.9c0.6,1.1,4.6-0.5,4.8-0.5h0.2
			c-0.3,0.7-0.3,1.5-0.5,2.2c0,0.1-0.3,0.4-0.4,0.5c0,0.3-0.1,0.7-0.1,1c-0.2,0.4-0.6,0.9-0.7,1.4c-1.1,0-2-0.1-2.7-0.5
			c-0.4-0.2-0.7,0.1-0.9,0c-0.8,0-0.9,0.2-1.4,0.5c0,0.6,0.1,0.8,0.4,1.1c0.2,0.1,0.4,0,0.6,0.1c0.4,0.1,0.9,0.3,1.4,0.2
			c0.1,0.1,0.4,0.3,0.5,0.4c0.4,0.1,0.8,0,1.1,0.2c0,0,0.1,0.1,0.1,0.1c-0.5,0.2-0.6,0.6-0.8,1c-1.3,0.3-2.4,0.6-3.5,1
			c-0.4,0.1-0.9,0.2-1.3,0.3c-0.2,0.1-0.5,0.4-0.6,0.5c-0.3,0-0.7-0.1-1-0.1c-0.2,0.1-0.6,0.4-0.8,0.5c-0.2,0-0.4-0.1-0.6-0.1
			c-2.6,0.7-5.9,1.1-9.1,1.7c-0.2,0-0.4-0.1-0.6-0.1c-0.4,0.1-1.1,0.3-1.5,0.4c-0.5,0.1-1-0.1-1.4,0c-0.3,0.1-1.2,0.3-1.6,0.3
			c-0.3,0-0.9-0.2-1.4-0.1c-1.1,0.3-2.9,0.6-4,0.6c-1.3,0-3,0-4.4,0.3c-0.8,0.2-1.6-0.3-2.4-0.2c-3.4,0.6-7,0-10.2,0.5
			c-1.3,0.2-2.7-0.3-3.8-0.1c-0.3,0-0.7-0.1-1-0.1c-1.1,0-2.6,0.2-3.3,0.1c-0.1,0-0.6-0.2-0.7-0.2c-1.8,0.3-4.3,0.1-6.1,0.5
			c-0.5,0-1-0.1-1.5-0.1c-0.6,0.1-1.4-0.1-1.6,0c-1.3,0.4-3.7,0.2-5.3,0.1c-0.3,0-0.8,0.2-1.1,0.3c-0.6,0.1-0.8-0.3-1.5-0.2
			c-0.5,0.1-1.8,0.3-2.4,0.2c-0.7-0.1-2-0.2-2.7-0.2c-0.3,0-0.6,0.1-0.9,0.1c0,0-0.5-0.2-0.5-0.2c-1.1,0-2.8,0.4-4,0.1
			c-0.6-0.1-1.5-0.1-2.1,0c-0.5,0-1-0.1-1.6-0.1c-1.4,0.3-4.6,0.1-5.9-0.2c-1-0.2-1.8,0.2-2.6,0.1c-2.4-0.4-5,0.1-7.4-0.2
			c-0.1-0.3-0.1-0.2-0.2-0.5c-0.3,0.1-0.3,0.3-0.5,0.4c-0.6,0.3-3.9-0.1-4.4-0.3c-0.6-0.2-1,0.2-1.4-0.4c-2.8,0.3-5.4-0.1-7.9-0.6
			c-0.8-0.2-1.9,0-2.8-0.2c-1.1-0.2-3.9,0.2-4.3-0.5c-0.4,0.1-0.4,0.3-0.7,0.4c-0.5,0.1-1.3-0.2-2.1-0.1c-1.1,0.2-3,0.2-4.2-0.1
			c-0.3,0-0.7,0.1-1,0.1c-0.9,0-1.6-0.2-2.1-0.3c-0.4-0.1-1,0.2-1.6,0c-0.8-0.3-1.9-0.4-2.7-0.7c-0.1,0-0.3-0.2-0.4-0.3
			c-0.3-0.1-0.6,0-0.7,0c-0.2-0.1-0.4-0.3-0.5-0.4c-0.6-0.2-1.2-0.1-1.7-0.3c-0.4-0.1-0.9-0.5-1.2-0.6c-0.2-0.1-0.5,0-0.7-0.1
			c-0.3-0.2-0.7-0.6-1-0.7c-0.3-0.1-0.8,0-1-0.2c-0.4-0.5-0.6-1.3-0.7-2v-0.8c-0.2-0.6-0.7-1.4-0.8-2c0-0.3,0.1-0.7,0.1-1
			c-0.2-1-0.8-1.8-0.9-2.7c0-0.2,0.2-0.4,0.1-0.7c-0.1-0.2-0.4-0.7-0.3-1.1c0.1-0.1,0.3,0,0.3-0.3c-0.9-1.1-0.9-3.3-1.3-5.1
			c-0.1-0.4-0.4-1.2-0.5-1.8c0-0.1,0.2-0.3,0.2-0.4c0.1-0.5-0.2-1.1-0.3-1.5c0-0.2,0.1-0.4,0.1-0.6c-0.3-1.6-0.6-3.4-1-5
			c-0.2-0.7,0.1-1.2-0.2-1.8c0-0.1-0.3-0.3-0.3-0.4c-0.1-0.4,0.2-1.1,0.1-1.6c-0.2-0.7-0.2-1.7-0.5-2.5c-0.1-0.2-0.3-0.7-0.4-0.9
			c0-0.3,0.2-0.9,0.1-1.4c-0.1-0.3-0.3-0.8-0.4-1.1c0-0.2,0.1-0.4,0.1-0.5c0-0.1-0.3-0.3-0.3-0.4c-0.2-0.6-0.2-1.2-0.3-1.5
			c0-0.8-0.1-1.6-0.1-2.4c-0.2-0.8-0.3-1.6-0.3-2.4c0-0.3,0.1-0.6,0.1-0.9c-0.3-1.9-0.3-4.5-0.8-6.4c-0.1-0.3,0.1-0.5,0.1-0.7
			c0-0.3-0.2-0.9-0.2-1.2c0,0,0.1-0.3,0.1-0.5c0-0.1-0.2-0.4-0.3-0.5v-2.2c-0.1-0.1-0.1-0.1-0.2-0.2c-0.1-0.3,0.2-1.2,0.1-1.6
			c-0.3-1-0.4-2.3-0.7-3.4c-0.2-0.6-0.1-1.5-0.2-1.9c-0.2-0.7,0.1-1.6,0-2.1c-0.6-3.2-0.5-7.9-1.3-11.6c-0.1-0.7,0.1-2.4,0-3.1
			c-0.1-0.3-0.2-0.7-0.2-1.2v-1.8c-0.1-0.5-0.3-1.1-0.3-1.6c0-0.3,0.2-1,0.1-1.5c-0.1-0.3-0.3-1.1-0.3-1.6c0.1-0.9,0-1.9,0-2.7v-1.2
			c-0.2-0.6,0.1-0.9,0-1.4c-0.1-0.7-0.4-2.1-0.3-2.9c0-0.2,0.1-0.9,0.1-1.3c-0.2-1.1,0.1-3.1-0.1-4.9c0-0.5,0.1-1.2,0.1-1.6
			c-0.2-1.8-0.2-3.1,0-4.8c0-0.4-0.1-1-0.1-1.6c0-0.6,0.1-1.1,0.2-1.6c0.1-0.3-0.1-0.8-0.2-1.1c-0.2-0.7,0.1-1.3,0.2-1.8
			c1.4,0.3,2.8,0.6,4,1.1h0.7c0.1,0.1,0.1,0.2,0.2,0.3c0.3,0.1,0.4,0.1,0.7,0.2c0.2,0.1,0.5,0.4,0.7,0.5c0.9,0.4,2.4,0.4,3.7,0.7
			c0.5,0.1,1,0.5,1.5,0.6c3.1,0.9,6.7,1.1,9.4,2.3c0.5-0.2,1.1,0.3,1.6,0.2c0.5-0.1,1.7,0.4,2.3,0.5c0.5,0.2,1,0,1.4,0.1
			c0.7,0.2,1.7,0.5,2.4,0.7c1,0.3,2.4,0.4,3.2,0.5c0.3,0,0.6-0.1,0.9-0.1c3.1,0.7,8.2,0.9,11.6,1.7c0.2,0.1,0.5-0.1,0.6-0.1
			c0.9,0.1,1.5,0.2,2.7,0.2h1.6c1.1,0.3,2.3,0,3.5,0.3c0.1,0,0.2,0.1,0.4,0.2c0.6,0.2,1.3-0.2,2.1,0c0.4,0.1,1.4,0.3,1.9,0.3
			c0.3,0,1-0.1,1.3-0.1c2.4,0.4,4.1,0.2,6.4,0.5c0.8,0.1,1.5-0.2,2.4-0.1c0.2,0,0.5,0.2,0.8,0.1c0.3-0.1,0.9-0.2,1.4-0.1
			c0.6,0.1,1.5-0.1,2.2,0c0.1,0,0.3,0.2,0.5,0.2c0.3,0,1.1-0.2,1.4-0.2c2.3,0.3,5.2,0.2,7.3,0.5c0.6,0.1,1.4-0.2,1.8-0.1
			c0.3,0,0.9,0.2,1.2,0.2c0,0,0.4-0.2,0.5-0.2c0.1,0,0.4,0.3,0.5,0.3c1.3,0.2,3.1-0.3,4.5,0c1,0.3,2.6-0.1,3.8,0.2
			c0.9,0.2,2.5,0,3.4-0.2c0.2,0,0.6,0.2,1,0.1c0.9-0.2,2.4-0.2,3.2-0.4c0.2,0,0.4,0.2,0.5,0.2c0.7,0,1.9,0.1,2.5,0
			c3.4-0.5,7.4,0,9.7,0c1,0,2.5-0.1,3.3-0.3c0.5-0.1,1,0,1.3,0.1c0.5,0.1,2.5-0.1,3.2-0.1c0.7,0,1.2-0.2,2,0
			c0.6,0.1,1.1-0.3,1.6-0.2c2.4,0.4,4.3-0.4,6.3-0.2v-0.3c0.5,0.1,0.9,0,1.4-0.1c0.4-0.1,1.2,0.2,1.6,0.1c0.2,0,0.3-0.3,0.6-0.2
			c0.1,0,0.3,0.3,0.5,0.2c0.1-0.1,0.1-0.2,0.2-0.3c0.3-0.1,0.7,0.1,0.9,0.1c0.1,0,0.5-0.2,0.5-0.3c0.4-0.1,0.6,0.2,0.8,0.2
			c0.1,0,0.5-0.3,0.5-0.3c0.2,0,0.3,0.1,0.5,0.1c0.7-0.1,1.4-0.1,2.1-0.2c0.2-0.1,0.4-0.3,0.5-0.4c0.5-0.1,1.4,0.2,2.1,0
			c1.7-0.5,3.8-0.4,5.6-1c0.6,0.1,0.9,0,1.3-0.2c1.3,0.4,3.7-0.3,4.6-0.7c0.2,0,0.4,0.1,0.6,0.1c0-0.1,0.1-0.2,0.1-0.3
			c0.2,0,0.4,0.1,0.5,0.1c0.6-0.1,1.5-0.4,2-0.5c0.6,0.1,2.3-0.1,2.7-0.5c0.2,0,0.2,0,0.3,0.1c0.1,0.2,0,0.2,0,0.4
			c0,0,0.1,0.1,0.1,0.1c0.3-0.2,0.2-0.6,0.5-0.8c0.5-0.3,2.1-0.3,2.7-0.5c0.5-0.1,1.1-0.5,1.6-0.7h0.6c0.2-0.2,0.3-0.3,0.5-0.5
			c0.4,0,0.7-0.1,1.1-0.1c1.2-0.4,2.8-0.7,4.1-1.2c0.9-0.3,2.6-0.4,3.7-0.7c0,0,0-0.1,0.1-0.1c0.1,0,0.1,0,0.2,0
			c0.4-0.1,0.7-0.3,0.8-0.5h0.6L498.7,272.2L498.7,272.2z M380.7,280.1h-0.2c0.1-0.2,0-0.1,0.1-0.2L380.7,280.1
			C380.7,280,380.7,280.1,380.7,280.1z M506.7,237.6c-0.3-0.1-0.3-0.1-0.4-0.4c-1.8,0.4-3.6,1.1-5,2.1c0.1,0.2,0,0.1,0.1,0.2
			c0,0.5,0.1,0.5,0.3,0.7c1.3-0.2,2.5-0.9,3.7-1.3c0.5-0.1,0.9,0,1.3-0.3h0.1c0,0.8,0,2.1-0.1,2.8c-1.7,0.4-2.7,1-4.1,1.6
			c0-0.2,0-0.4,0-0.7h-0.2c-0.2,0.5-0.4,0.9-0.8,1.2c0,0.7,0.1,0.7,0.5,1c0.6,0,0.9-0.3,1.3-0.5c1,0.3,1.6-0.5,2.3-0.7
			c0.3-0.1,0.7-0.1,1-0.2c0.2,0.5,0.2,1.9-0.2,2.5v0.2c-1.4-0.7-2.8,0.3-3.9,0.6c-0.3,0.1-0.5,0-0.7,0.1c-0.3,0.2-0.6,0.6-0.7,0.9
			c-0.1,0,0.1,0.3,0.1,0.6c1.5,0,4.8-1,5.2-1.6h0.2c0,1,0.2,2.5-0.4,3.1v0.2c-0.3-0.1-0.4-0.3-0.5-0.6c-0.5,0.1-1,0.2-1.5,0.3
			c-0.1,0.1-0.4,0.3-0.6,0.4h-0.9c-0.3,0.1-0.7,0.6-1.1,0.4c-0.5,0.1-0.4,0.2-0.7,0.4c0,0.3,0.1,0.6,0.1,0.9
			c1.3,0.3,1.7,0.1,2.7-0.4c0.2,0.1,0.7,0.2,0.9,0c0-0.1,0.1-0.2,0.1-0.3h0.9c0.1,0,0.3-0.2,0.5-0.3l0.1,0.1c0,0.7-0.2,0.7-0.3,1
			c-0.1,0.4,0.2,1.1,0.1,1.4c0,0.5-0.1,0.6-0.2,0.9c-1.6-0.4-2.2,0.4-3.5,0.6c-0.5,0.1-1.4-0.1-2,0.3H500c-0.1,0.2,0,0.1-0.1,0.2
			c0,0.6,0.1,0.7,0.3,1.1c1,0,2.2,0.1,2.9-0.3c0.1-0.1,0.1-0.2,0.2-0.3h1.1c0.4-0.1,0.8-0.2,1.1-0.4c-0.2,0.7,0.1,1.6-0.2,2.4
			c-0.1,0.3-0.4,0.6-0.5,1c-0.2-0.1-0.5-0.2-0.6-0.5c-1.4,0.1-2.5,1-3.6,1.4c-0.5,0.2-0.9-0.1-1.3,0.2c-0.2,0.1-0.3,0.2-0.4,0.5
			c-0.1,0.2,0,0.4,0.1,0.7c0.3,0.1,0.6,0.2,0.8,0.5c0.4-0.1,0.4-0.3,0.6-0.5h0.9c0.5-0.2,1-0.7,1.5-0.8c0.9-0.3,1.1,0.3,1.7-0.8h0.1
			c0,0.4,0.1,1.3,0.1,1.6c-0.1,0.6-0.3,1-0.3,1.6c-2.1-0.3-3.5,1-5.8,0.9c0,0.2,0,0.3-0.1,0.4l-0.1,0.1v-0.1h-0.3
			c-0.1,0.5,0.1,0.5,0.2,1c1.5,0.3,2.8-0.1,3.9-0.5c0.6-0.2,1.1,0,1.5-0.5c0.2,0,0.3,0,0.4,0.1c0.2,0.1-0.6,1.7-0.4,2.1v0.2
			c-0.2-0.1-0.5-0.3-0.6-0.5c-0.9,0-2,0.2-2.7,0.5c-0.1,0-0.2,0.3-0.3,0.4c-0.2,0-0.4-0.1-0.5-0.1c-0.1,0.1-0.1,0.2-0.2,0.3
			c-0.5,0.2-0.9,0-1.3,0.3c-0.3,0.1-0.3,0.1-0.4,0.5c-0.1,0.2,0,0.4,0,0.7l0.1,0.1c1.5,0.3,3-0.7,4.2-1.1c0.7-0.2,0.9,0.2,1.4-0.4
			c0.1,0,0.1,0.1,0.2,0.1c-0.1,0.4-0.2,0.7-0.3,1.1c-0.8,0.3-1.5,0.8-2.2,1c-0.4,0.2-0.7,0-1.1,0.2c-0.4,0.2-0.9,0.8-1.4,0.9
			c-0.4,0.1-1,0.1-1.5,0.4c-0.1,0.1-0.2,0.3-0.4,0.4c-0.8,0.3-1.7,0.4-2.3,0.5h-0.7l-0.3,0.3c-0.7,0.3-1.8,0.2-2.7,0.5l-0.3,0.3
			c-0.6,0.2-1.5,0-2.3,0.3c-0.9,0.3-2.1,0.8-2.9,1.1c-0.5,0.2-0.9,0.1-1.4,0.3c-0.5,0.2-0.7,0.6-1.6,0.5v-0.4
			c-0.4,0.1-0.4,0.4-0.5,0.6c-2.3,0.1-4.3,0.8-6.5,1.1c-0.5,0.1-1.5,0.6-2,0.3h-0.5c0.1,0.2,0.1,0.2,0.2,0.4c-0.9,0.3-1.6,0-2.6,0.1
			c-1.1,0.1-2.6,0.5-3.6,0.7c-1.3,0.4-2.4-0.1-3.8,0.3c-2.4,0.6-4.6,0.6-6.6,1.1c-0.2,0.1-0.4-0.1-0.5-0.1c-0.6,0-2.1,0-2.6,0.1
			c-1.2,0.3-2.8,0.5-4.3,0.6c-0.4,0-1.1-0.4-1.7-0.2c-0.1,0-0.7,0.3-0.9,0.3c-0.4,0-1-0.3-1.5-0.2c-1,0.2-3.3,0.1-4.2,0
			c-0.7-0.1-2.4,0.2-2.9,0.3c-0.2,0-0.5-0.1-0.7-0.1c-0.7,0-1.9,0.2-2.7,0c-0.5,0.4-3.4,0.2-3.8,0.1c-1.4-0.2-5.5-0.1-6.2,0.2
			c-0.3,0.1-1.5-0.2-1.8-0.2c-0.3,0-1.4,0.1-1.6,0.2c-0.7,0-1.4-0.1-2.1-0.1c-3.1,0.6-6.8,0.5-9.6,0.1c-1-0.1-3,0.2-3.9,0
			c-0.9,0-1.8-0.1-2.7-0.1c-0.1,0-0.4,0.2-0.6,0.1c-1.4-0.4-2.8,0-4.6-0.4c-1-0.2-2.5-0.3-3.5-0.2c-0.2,0-0.5-0.1-0.7-0.1
			c-1.2,0.2-2.4,0.3-3.7,0c-0.4-0.1-0.9,0-1.1,0.1c-0.6,0.1-1-0.2-1.4-0.2c-0.6,0.1-2.1,0.2-2.7,0c-0.9-0.3-1.4,0.5-2.1-0.4
			c-0.2,0.2-0.1,0-0.1,0.3c0,0-0.1,0.1-0.1,0.1c-1.4,0-3.1-0.2-4.5-0.4c-1-0.1-2.7,0-3.7-0.3c-0.8-0.2-1.9,0.3-2.4,0.2
			c0,0-0.3-0.3-0.4-0.3c-0.3,0-0.5,0.1-0.8,0.1c0-0.1-0.1-0.1-0.1-0.2c-0.2,0-0.5,0.1-0.7,0.1c0,0-0.4-0.3-0.5-0.3
			c-0.5-0.1-1.1,0.1-1.7,0h-2.9c-0.1,0-0.3-0.3-0.4-0.3c-0.4-0.1-1.4,0.2-2.1,0c-0.6-0.1-1.3-0.3-1.9-0.5c-0.5-0.1-1.2,0.1-1.5,0
			c-1.7-0.5-3.5-0.6-5.3-1c-0.7-0.2-1.4,0-1.7,0c-0.4,0-1.3-0.4-1.7-0.5c-0.8-0.2-1.2,0-2-0.2c-0.7-0.2-1.6-0.5-2.2-0.7
			c-0.9-0.3-1.9,0-2.7-0.3c-1.4-0.5-3.4-1-4.6-1.4c-0.4,0-0.7-0.1-1.1-0.1c-1.1-0.3-2.4-0.5-3.6-0.9h-0.7c-0.4-0.1-0.8-0.5-1.3-0.6
			c-1.2-0.4-2.2-0.3-3.3-0.6c-1.3-0.4-2.7-1-3.9-1.5h-0.6c-0.7-0.2-1.3-0.3-2-0.5c-0.5-0.1-1-0.5-1.5-0.6c-0.5-0.2-0.9,0-1.3-0.3
			c-0.6-0.3-1.3-0.8-1.8-1.2c-0.3-0.1-0.7-0.2-1-0.4c-0.1-0.2-0.2-0.3-0.3-0.5c-0.4-0.3-0.9-0.3-1.3-0.5c-0.2-0.1-0.2-0.4-0.5-0.6
			c-0.1-1.1-0.4-1.8-0.6-2.7v-1c0-0.1-0.2-0.3-0.3-0.4c0.2-0.5-0.4-1.8-0.6-2.2c0.1-0.6,0.1-1.2,0.2-1.7c0-0.1-0.3-0.6-0.3-0.8
			c0-0.2,0.3-0.5,0.2-0.9c-0.1-0.2-0.4-0.6-0.4-0.9c0,0,0.2-1.7,0-2.1c0,0-0.3-0.1-0.3-0.2c0-0.2,0.2-0.3,0.2-0.4
			c0.1-0.4-0.1-1.1-0.2-1.6c0-0.3,0.1-0.7,0.1-1c-0.2-1,0-3,0.2-4.3c0.2-1.1-0.5-2.2-0.3-3.2c0.2-0.8,0-1.7,0.1-2.4
			c0.4-2.5,0.2-4.9,1-6.9c0.5-0.1,1.2-0.1,1.6-0.5c0.5,0.1,1,0.5,1.5,0.6c1,0.4,2,0.8,2.9,1.1c0.6,0.1,1.2,0.2,1.8,0.3
			c0.8,0.3,1.8,0.8,2.7,1.1c0.5,0.2,0.9,0,1.4,0.2c0.4,0.1,0.8,0.6,1.2,0.7c0.8,0.3,1.4,0.4,2.3,0.6c0.4,0.1,0.8,0.5,1.1,0.6
			c1,0.4,2,0.4,2.9,0.8c0.6,0.2,1.2,0.7,1.7,0.9c0.4,0.2,1.4,0.2,1.6,0.4c0.2,0.1,0.4,0.4,0.6,0.5c0.5,0.2,1,0,1.6,0.2
			c7.3,2.8,16.4,3.7,24.2,5.9c0.5,0,1,0.1,1.5,0.1c2.7,1.2,7.5,1.1,9.5,1.5c0.3,0,0.7-0.1,1-0.1c0.6,0,1.5,0.1,2.1,0.3h1.7
			c0.1,0,0.3,0.4,0.4,0.5c0.2-0.1,0.1,0,0.2-0.3c1.9,0.7,4.1,0.3,6.7,0.8c0.5,0.1,1.1-0.2,1.3-0.2c1.7,0.4,4.1,0.2,5.9,0.6
			c0.4,0.1,0.7-0.1,1-0.1c0.6,0,1.6,0.1,2.4,0.3c0.4,0.1,1-0.1,1.3-0.1c0.4-0.1,0.9,0.1,1.3,0.2c0.5,0.1,1.4,0,1.8-0.1
			c0.7-0.2,1.6,0,2.2,0.1c0.5,0.1,1.2-0.2,1.6-0.3c0.6-0.1,1.8,0.2,2.5,0.1c0.9-0.2,1.8-0.1,2.6-0.2c0.2,0,0.4,0.1,0.6,0.1
			c0.4-0.1,1.1-0.2,1.6-0.1c0.4,0.1,2.3,0.3,2.9-0.1c1.7,0.6,5.4,0,6.8-0.2c1.3-0.2,2,0.1,2.8-0.1c0.4,0,0.7,0.1,1.1,0.1
			c0.1-0.1,0.1-0.2,0.2-0.3c0.5,0,0.9,0.1,1.4,0.1c1,0,1.3-0.4,2.1-0.2c0.5-0.1,1-0.2,1.6-0.3c0.8,0.1,1.7,0.2,2.4,0.1
			c0.2,0,0.4,0.1,0.6,0.1c0.4-0.1,0.9-0.1,1.3-0.1c0.5-0.1,0.9-0.1,1.4-0.2c0.6,0.1,1.4,0,2.3-0.2c0.2,0,0.5,0.1,0.7,0.1
			c1.3-0.3,2.6-0.3,3.8-0.6c0.2-0.1,0.5,0.1,0.5,0.1c0.3,0,0.8-0.3,1.1-0.2c0.5,0.1,1.9,0.3,2.6,0.1c0.4-0.1,1.3,0,1.9-0.3
			c0-0.1,0.1-0.1,0.1-0.2c0.2,0,0.4,0.1,0.6,0.1l0.3-0.3c0.4-0.1,0.9,0.2,1.5,0c1.9-0.5,3.9-0.9,6.1-1.5c0.4,0,0.7,0.1,1.1,0.1
			l0.3-0.3c0.4-0.1,1,0.2,1.6,0c0.3-0.1,0.9-0.4,1.2-0.5c0.4-0.1,0.7,0.3,1.1,0.2c4.4-1,9.7-1.5,14.4-2.9h0.7c1.6-0.6,3.6-0.8,5-1.4
			c0.9-0.1,1.8-0.2,2.7-0.4c0.9-0.4,2.1-0.7,3-1c0.9-0.3,2-0.2,2.7-0.5c1.1-0.5,3-0.9,4.3-1.5c0.7-0.3,1.5-1,2.2-1.3
			c0.6-0.2,1.9-0.2,2.7-0.6l0.4-0.4c0.8-0.4,1.7-0.5,2.5-0.9c0.3-0.2,0.7-0.7,1-0.8c0.7-0.3,1.2-0.4,1.7-0.9c0.2,0.1,0.1,0,0.2,0.1
			l0.1,0.1h-0.1v1c-0.2,0.3-1.1,0.6-1.6,0.7c-1.1,0.4-3.7,1.1-4.2,2c-0.1,0.2,0.1,0.7,0.3,0.9c1.7-0.3,3.4-0.8,4.5-1.7
			c0.3,0,0.4,0.3,0.6,0.2c0.3-0.1,0-0.3,0.8-0.4C506.7,236.3,506.7,236.6,506.7,237.6z M337.4,237.4l-0.3,0.3v0.3
			c0.5,0,0.8-0.1,1.1-0.3c0-0.1,0.1-0.1,0.1-0.2l-0.1-0.1C337.9,237.4,337.7,237.4,337.4,237.4z M339.6,233.8
			c-0.8,0-0.8,0.2-1.2,0.5v0.3h-0.3l0.1,0.1c0.1,1,1.3,0.6,1.7,1.2c0.4-0.2,1.2-0.3,1.7-0.6C341.7,233.6,340.4,234.4,339.6,233.8z
			 M340.4,237.2c-0.3,0-0.3,0.1-0.6,0.2c-0.1,0.4-0.2,0.6-0.3,1.1c0.4,0.2,0.8,0.4,1.1,0.6c0.2,0,0.2,0,0.3-0.1
			c0.2-0.1,0.2-0.2,0.5-0.4c-0.1-0.4,0-0.8-0.3-1.2C341,237.2,340.6,237,340.4,237.2z M342.6,234.2c0.3-0.1,0.3-0.3,0.5-0.5
			c0-0.5-0.1-0.5-0.3-0.7c-0.9,0-1,0.2-1.2,0.9c0.2,0.1,0.5,0.2,0.6,0.4C342.4,234.3,342.5,234.3,342.6,234.2z M342.7,236.6
			c-0.4,0.1-0.5,0.2-0.7,0.4c0,0.2-0.1,0.4-0.1,0.5c0.1,0.1,0.2,0.3,0.3,0.5c0.6,0,0.8-0.1,1.2-0.3c0.1-0.2,0.1-0.3,0-0.5
			C343.2,236.8,342.9,236.8,342.7,236.6z M344,232.7c0.1,0,0.2-0.1,0.3-0.1c0.1-0.3,0.1-0.6,0-0.7c-0.1-0.4-0.2-0.5-0.5-0.6
			c-0.1-0.1,0,0-0.2-0.1c-0.2,0.3-0.4,0.5-0.5,0.9c0.1,0.1,0.3,0.4,0.4,0.6C343.6,232.6,343.9,232.6,344,232.7z M344.6,236
			c0.1-0.2,0.1-0.2,0.3-0.4c0-0.6-0.2-0.9-0.6-1c0.2-0.2,0.3-0.3,0.5-0.5c0-0.6-0.2-0.7-0.6-0.8c-0.2-0.1-0.1-0.1-0.3,0.1
			c-0.1,0.2-0.1,0.2-0.1,0.5h-0.3c0.3,0.7-0.1,1.1,0.1,2C344,236.1,344,236.1,344.6,236z M343.7,236.7c-0.1,0.4-0.1,0.9-0.2,1.3
			c0.1,0.1,0.1,0.1,0.2,0.2c0.7,0,0.8-0.1,1.2-0.4c0.1-0.2,0-0.1,0.1-0.2c0-0.7-0.2-0.6-0.5-1C344.2,236.6,343.9,236.7,343.7,236.7z
			 M347.5,234.1c0.5-0.3,0-0.8,0.1-1.2c0.1-0.4,0.8-0.9,0.4-1.6c0-0.3-0.1-0.3-0.2-0.5c-0.7,0.1-0.5,0.4-1.1,0.5
			c0.1,0.7-0.3,1.7-0.4,2.3c0.2,0.2,0.2,0.1,0.2,0.5C346.8,234,347.2,234.3,347.5,234.1z M347.7,237.7c-0.1-0.2,0.1-0.3,0.3-0.5
			c-0.1-0.6-0.4-0.7-0.7-1c-0.6,0.1-0.7,0.6-0.7,1.1c0.3,0.1,0.4,0.2,0.5,0.4c0.1,0.3-0.2,0.8-0.1,1.1c0,0.3,0.1,0.3,0.2,0.5
			c1.3,0,0.9-0.2,1.6-0.7v-0.2C348.4,238.3,347.8,238,347.7,237.7z M349.6,239.5c-0.6,0-0.7,0.4-0.8,0.8c0.1,0.1,0.1,0.2,0.2,0.3
			l0.3,0.3c0.6,0,0.7-0.1,1.1-0.3c-0.1-0.4-0.3-0.8-0.5-1.2C349.7,239.5,349.7,239.5,349.6,239.5z M350.6,233.5
			c0.2-0.5-0.7-0.4-1.1-0.6c-0.3,0.4-0.3,0.7-0.5,1.1C349.6,234.3,350.4,234.1,350.6,233.5z M349.4,235.5c0,0.3,0,0.2,0,0.6
			c0.1,0.1,0.1,0.2,0.2,0.3c0.1,0.3,0.1,0.2,0.2,0.5c0.4-0.1,0.8-0.2,1-0.5c0.1-0.1,0.1-0.2,0.1-0.5c-0.2-0.2-0.3-0.3-0.4-0.6
			C350,235.4,349.9,235.5,349.4,235.5z M351.1,232.4c0.1-0.1,0.1-0.3,0.2-0.4c-0.1-0.3-0.3-0.3-0.5-0.5c-0.9,0-1.2,0.3-1.2,1
			C350.2,232.8,350.5,232.7,351.1,232.4z M352.7,235.7L352.7,235.7c-0.2-0.2-0.6-0.3-0.8-0.5c-0.4,0.1-0.5,0.2-0.7,0.4
			c-0.1,0.1-0.1,0.1-0.1,0.3c0.1,0.1,0.1,0.1,0.1,0.3c0.2,0.1,0.3,0.2,0.5,0.3C352.2,236.3,352.5,236.1,352.7,235.7z M353.2,231.3
			c0-0.2,0-0.3,0.1-0.4c-0.1-0.4-0.4-0.4-0.6-0.6c-0.2,0-0.4,0-0.5,0.1c-0.3,0.1-0.3,0.3-0.6,0.5v0.4c0.1,0.1,0.2,0.2,0.3,0.4
			C352.5,231.6,352.8,231.5,353.2,231.3z M352.7,238.9c-0.2,0-0.4,0-0.5,0.1c-0.2,0.1-0.2,0.2-0.5,0.3v0.7c0.1,0.1,0,0,0.1,0.2
			c0.3,0,0.8,0.2,1.1,0c0.3-0.1,0.4-0.2,0.5-0.6l0.1-0.1h-0.1C353.2,239.2,352.9,239.1,352.7,238.9z M354.6,232.7h-0.9
			c-0.1,0.3-0.1,0.6-0.2,0.9c0.4,0.3,1.1,0.3,1.6-0.1c0.1-0.1,0.1-0.3,0.2-0.5c-0.1-0.1,0,0-0.1-0.2
			C354.9,232.8,354.9,232.9,354.6,232.7z M355.5,229.9c-0.1,0.1-0.1,0.2-0.2,0.4c0.1,0.2,0.3,0.5,0.4,0.7c0.3,0,0.2,0,0.5,0
			c0.2-0.3,0.6-0.5,0.8-0.7C356.6,229.7,355.8,230.2,355.5,229.9z M356.7,232.3c0.4,0,0.5,0,0.7-0.2c0.2-0.1,0.2-0.2,0.4-0.3
			c-0.1-0.4-0.2-0.5-0.4-0.7c-0.3,0-0.5,0-0.6-0.1c-0.1,0.2-0.2,0.2-0.3,0.5c-0.1,0.1-0.1,0.4-0.1,0.6
			C356.6,232.2,356.5,232.2,356.7,232.3z M357.7,234.1c0-0.1-0.1-0.1-0.1-0.2c-0.4,0-0.5,0-0.7,0.2c-0.2,0.3-0.3,0.6-0.3,1.1
			c0.6,0.1,0.6-0.1,1.2-0.2C357.8,234.5,357.9,234.3,357.7,234.1z M357.2,235.3c0,0.3-0.1,0.3,0,0.4c0.1,0.3,0.2,0.4,0.5,0.5
			c0.1,0.1,0,0.1,0.2,0c0.4,0,0.4-0.1,0.6-0.2c0-0.2,0.1-0.4,0.1-0.6l-0.4-0.4C357.7,235,357.7,235.2,357.2,235.3z M360.7,227.6
			c0.1-0.2,0-0.1,0.2-0.2c-0.1-0.3-0.3-0.7-0.5-0.9c-0.1-0.1-0.3-0.1-0.6,0.1c-0.3,0.1-0.3,0.3-0.5,0.5c0,0.5,0.2,0.6,0.3,0.9
			c-0.1,0.1,0,0-0.1,0.2c-0.4-0.1-0.5-0.3-0.9-0.4c-0.2,0.2-0.5,0.3-0.8,0.5v0.5c0.5,0.3,0.8,0.5,1.5,0.4c0-0.2,0.1-0.4,0.1-0.6
			l0.1-0.1c0.2,0.1,0.5,0.2,0.6,0.3c0.8,0,0.6-0.4,1.1-0.6C361,227.7,361,227.7,360.7,227.6z M359.1,229.3c-0.4,0.1-0.4,0.3-0.6,0.6
			v0.6c0.1,0.1,0.3,0.2,0.4,0.3c0.6,0,0.7-0.1,1-0.4c0-0.2,0-0.3-0.1-0.5C359.6,229.6,359.3,229.5,359.1,229.3z M361.5,235.1
			c-0.1,0.4-0.1,0.6-0.1,0.9c0.3,0.2,0.5,0.3,1,0.3c0-0.7-0.3-0.7-0.5-1.2H361.5z M365.1,229.6c-0.2-0.7-0.8-0.3-1.1-0.7
			c-0.1-0.1-0.1-0.5-0.1-0.5c-0.4,0-0.7,0-0.9,0.1v0.5c-0.5,0-0.5,0.1-0.7,0.3c-0.1,0.3-0.2,0.8,0,1c0,0.3,0,0.5,0.1,0.6
			c0.3-0.2,0.5-0.6,0.9-0.7c0.6-0.1,0.9,0.4,1.4,0C364.8,229.9,364.9,229.7,365.1,229.6z M365.8,232.6c0-0.4,0-0.6-0.2-0.8
			c-0.1-0.2-0.2-0.2-0.3-0.4c-0.5,0-0.6,0.1-0.9,0.2c0,0.2-0.1,0.4-0.1,0.7c0.1,0.1,0.2,0.3,0.3,0.5
			C365.1,232.8,365.5,232.8,365.8,232.6z M365,234.9c-0.3,0.1-0.2,0.1-0.5,0.3v0.5c0.2,0.1,0.4,0.2,0.6,0.4c0.4,0,0.6-0.1,0.8-0.2
			c0-0.6-0.3-0.6-0.5-1C365.1,234.8,365.1,234.8,365,234.9z M365.6,229.7c-0.3,0.1-0.4,0.5-0.5,0.8c0.1,0.1,0.2,0.2,0.3,0.4
			c0.2,0.1,0.1,0,0.2,0.1c0.5,0,0.6-0.1,0.8-0.4C366.6,230.3,366.2,229.3,365.6,229.7z M368.4,229.7c-0.3,0-0.3,0.1-0.4,0
			c-0.5,0-0.5,0-0.6,0.4c-0.1,0.1-0.1,0.4-0.1,0.6c0.1,0.1,0.1,0.2,0.2,0.3c0.2,0.1,0.3,0.1,0.5,0h0.6c0-0.3,0.2-0.6,0-0.9
			C368.5,229.8,368.5,229.8,368.4,229.7z M368.5,228.9c0.1-0.1,0-0.6-0.1-0.8c-0.2-0.1-0.2-0.1-0.4-0.2c-0.5,0-0.6,0.2-0.7,0.6
			c0.1,0.1,0.1,0.4,0.2,0.5C367.9,229.2,368.2,229.2,368.5,228.9z M372.7,240.3c-0.7,0.1-0.6,0.4-1,0.7c0.1,0.4,0.2,0.5,0.4,0.8
			c-0.4,0.2-0.7,0.3-1.1,0.5c-0.1,0.3-0.1,0.6-0.2,0.9c0.2,0.1,0.7,0.5,0.9,0.8c0.6-0.1,0.6-0.6,0.9-1c0-0.4-0.1-0.6-0.3-0.8
			c0-0.2,0-0.3,0.1-0.4c0.1-0.1,0.6,0,0.8-0.2c0.2-0.1,0.3-0.2,0.5-0.4c0-0.2,0-0.3,0.1-0.5C373.7,240.6,373,240.2,372.7,240.3z
			 M372.1,229.1c0.6-0.1,0.5-0.3,0.7-0.5c0-0.2-0.1-0.4-0.1-0.5c-0.2-0.1-0.3-0.1-0.4-0.3c-0.3,0-0.7,0-0.9,0.1v0.6
			C371.8,228.8,371.7,228.8,372.1,229.1z M372,232.2c0.1,0.1,0.1,0.1,0.1,0.3c0.2,0,0.3,0.1,0.5,0.2c0.6,0,0.8-0.1,1.1-0.6
			c0.1-0.1,0,0,0.1-0.2c-0.3-0.2-0.6-0.4-0.8-0.6C372.2,231.3,372.1,231.8,372,232.2z M373.6,226.8c0.2-0.3-0.2-0.8-0.4-1.1
			c-0.2,0-0.2,0-0.3,0.1c-0.5,0-0.6,0-0.7,0.3c0.2,0.2,0.3,0.8,0.4,1C373,227.1,373.3,227.1,373.6,226.8z M375.3,226.2
			c-0.1-0.3-0.4-0.4-0.6-0.6c-0.2,0-0.3,0.1-0.5,0.1c-0.1,0.4-0.3,0.4-0.2,0.6c0.1,0.5,0.2,0.4,0.5,0.7c0.1,0,0.2,0.1,0.3,0.1
			c0.1-0.1,0.3-0.2,0.5-0.4C375.4,226.6,375.4,226.4,375.3,226.2z M375,234.3c0,0.4,0,0.7-0.1,0.9c0.5,0.2,1,0.2,1.6,0.1
			c0-0.3,0.1-0.4,0.2-0.6C376.2,234.5,375.6,234.4,375,234.3z M377,232.9c-0.1-0.2,0-0.5-0.2-0.6V232h-0.2c0,0.3,0.1,0.6,0.2,0.8
			c-0.4,0.1-0.7,0.2-1,0.4v0.4c0.3,0.2,0.4,0.4,0.5,0.7C377.7,234.4,377.2,233.5,377,232.9z M376.8,243.1c-0.1,0.3-0.1,0.8-0.1,1.3
			c0.5,0.1,0.9,0.3,1.3,0h0.2c0-0.3,0-0.4,0-0.8C377.7,243.1,377.6,242.9,376.8,243.1z M379.3,228c0.1,0.5,0.4,0.7,0.8,0.8
			c0.2-0.2,0.6-0.5,0.8-0.6c-0.2-1.3-1.5-1.7-2.1-2.7c-0.5,0-0.7,0.1-0.7,0.5c-0.5-0.1-0.7-0.3-0.9-0.6h-0.4c-0.1,0.5-0.2,1.3,0,1.7
			c0.2,0.2,0.5,0.3,0.7,0.4c0.1-0.1,0.2-0.2,0.5-0.3c0.1-0.2,0.1-0.3,0-0.5v-0.3h0.1c0.4,0.5,0.7,0.6,0.7,1.5
			C379,228,379.2,228,379.3,228z M379.9,240.7c-0.4,0-1.1-0.3-1.3-0.2c-0.4,0.2-0.4,0.8-0.3,1.1c0.1,0.2,0.1,0.1,0.3,0.3
			c0.7,0,0.8-0.1,1.2-0.4C379.8,241.3,379.9,241,379.9,240.7z M379.6,230.9c0-0.8-0.3-1-0.7-1.4c-0.3,0.1-0.4,0.2-0.6,0.3v0.9
			c0.3,0.3,0.4,0.4,0.9,0.6C379.3,231.1,379.5,231,379.6,230.9z M380.4,243.7c-0.3,0-0.5,0-0.6,0.1c-0.2,0.2-0.3,0.6-0.4,1
			c0.2,0.2,0.4,0.3,0.5,0.5c0.4-0.1,0.6-0.2,0.8-0.3c0.1-0.2,0.2-0.5,0.3-0.7C380.8,244,380.7,243.9,380.4,243.7L380.4,243.7
			L380.4,243.7z M381,236.4c-0.2,0-0.4-0.1-0.6-0.1c-0.2,0.2-0.3,0.3-0.5,0.5c0,0.5,0,0.5,0,0.9c0.5,0.3,0.7,0.2,1.2-0.1
			c0-0.4,0.1-0.7,0-0.9C381.1,236.6,381,236.5,381,236.4z M381.7,230.4c-0.6,0.1-0.6,0.4-0.6,0.9c0.1,0.1,0.1,0.4,0.2,0.5
			c0.2,0,0.4,0,0.6-0.1h0.2c0.1-0.4,0.1-0.6,0.2-1C382,230.7,381.8,230.5,381.7,230.4z M383.2,243.4c-0.2,0-0.4,0.1-0.6,0.1
			c-0.2,0.3-0.3,0.5-0.4,1c0.2,0.2,0.2,0.3,0.5,0.5c0.2,0.1,0.8-0.2,1-0.3c0.1-0.4,0.1-0.6-0.1-0.9L383.2,243.4z M383.3,244.1
			c0.1-0.2,0-0.1,0.1-0.2C383.3,244.1,383.4,244,383.3,244.1z M383.8,229.2c-0.6,0-0.5,0.2-0.8,0.5c-0.1,0.1-0.1,0-0.4-0.1
			c-0.1,0.3-0.2,0.4-0.2,0.8c0.1,0.1,0.1,0.2,0.2,0.3c0.2,0,0.4,0.1,0.5,0.2c1,0,0.7-0.6,1.2-1C384.3,229.4,384.1,229.5,383.8,229.2
			z M385,227.8c-0.1-0.3-0.2-0.4-0.6-0.5c-0.2,0-0.6,0.3-1.1,0.4c0,0.3,0,0.2,0,0.5c0.6,0.8,0.5,0.7,1.6,0.6
			C385,228.4,385.2,228.1,385,227.8z M386.4,232.8c-0.1-0.4-0.3-0.6-0.7-0.7c-0.4-0.2-0.9,0.6-1,0.7c0.3,0.2,0.6,0.5,0.8,0.7
			C386.2,233.5,386.1,233.2,386.4,232.8z M386.1,242.9c0-0.6-0.2-0.4-0.2-1.1c-0.5-0.1-0.7,0.1-1.1,0.3c0,0.3-0.1,0.6-0.1,0.8
			c0.3,0.1,0.6,0.2,0.9,0.3C385.8,243.1,386,243,386.1,242.9z M385.1,245.5c0.2,0.2,0.4,0.3,0.6,0.5c0.5,0,0.4-0.2,0.7-0.4
			c0-0.7-0.1-0.8-0.4-1.2C385.3,244.4,385.1,244.7,385.1,245.5z M386.6,229.3c-0.1-0.6-0.3-0.6-0.5-1c-0.6,0-0.6,0.1-0.8,0.5
			c-0.1,0.1-0.1,0.4-0.1,0.8c0.1,0,0.4,0.1,0.5,0.2C386,229.7,386.2,229.5,386.6,229.3z M386.1,226.1c0.1,0,0.2-0.1,0.3-0.1
			c0-0.5-0.1-0.7-0.2-1c-0.2-0.1-0.1,0-0.2-0.1c-0.7,0-0.8,0.1-0.9,0.6C385.4,225.8,385.7,226.3,386.1,226.1z M386.6,236.5
			c-0.3,0.1-0.2,0.1-0.5,0.2c0,0.2-0.1,0.5-0.1,0.7c0.1,0.1,0.1,0.1,0.1,0.3c0.2,0,0.3,0.1,0.5,0.2c0.4-0.1,0.4-0.2,0.6-0.4
			c0-0.6-0.2-0.6-0.3-1C386.7,236.5,386.7,236.5,386.6,236.5z M386.4,227.4c0.1,0.5,0.2,0.5,0.5,0.8c0.3,0,0.5,0,0.6-0.1
			c0.1,0,0.2-0.1,0.3-0.1c0-0.6-0.4-1.1-0.9-1.3c-0.1-0.1-0.2-0.1-0.5-0.1C386.4,226.9,386.4,227.4,386.4,227.4z M387.3,241.8
			c-0.1,0.2-0.1,0.5-0.1,0.8c-0.2,0-0.4,0.1-0.5,0.1c0,0.2-0.1,0.4-0.1,0.6c0.2,0.2,0.3,0.5,0.5,0.6c1.1-0.1,0.5-0.6,0.8-0.9
			c0.2-0.3,0.5,0,0.7-0.3c0.1-0.2-0.2-0.9-0.4-1.2C387.7,241.7,387.7,241.8,387.3,241.8z M389.9,243.8c-0.2-0.2-0.3-0.3-0.6-0.4
			l-0.4,0.4c-0.1,0.3-0.1,0.6-0.2,0.8c0.2,0.1,0.2,0.2,0.5,0.3c0.2,0.1,0.3,0,0.5-0.1l0.4-0.4C390,244.2,390,244,389.9,243.8z
			 M390.2,230.7c-0.1,0.5-0.3,0.6-0.2,1.3c0.2,0.1,0.2,0.1,0.4,0.3c0.4,0,0.5,0,0.6-0.2c0.3-0.1,0.3-0.3,0.5-0.5
			c-0.1-0.4-0.4-0.6-0.7-0.8c0-0.2,0-0.3,0.1-0.5c0.3,0,0.7,0,0.8,0.1c0.1,0.1,0.1,0.4,0.1,0.6l0.1,0.1c0.7,0,1-0.1,1.2-0.6
			c-0.2-0.1-0.3-0.4-0.5-0.5h-0.5c-0.2-0.1-0.1-0.5-0.3-0.6c-0.4-0.3-1.1-0.1-1.4-0.2v-0.2c-0.1-0.1-0.3-0.1-0.4-0.1
			c-0.1,0.2-0.4,0.3-0.6,0.5c0,0.5,0,0.5,0,1C389.8,230.4,389.9,230.6,390.2,230.7z M390.8,225.5c-0.4,0.1-0.5,0.2-0.7,0.4
			c0,0.5,0.1,0.8,0.3,1.1v0.1h-0.5c-0.1,0.3-0.1,0.4-0.3,0.5c0,1,0.6,0.7,0.9,0.8c0.1-0.1,0.2-0.2,0.5-0.3c0-0.4,0-0.6-0.1-0.8
			c0.3-0.1,0.5-0.3,0.8-0.5C391.6,226,391.2,226,390.8,225.5z M391.9,246.6c0-0.5-0.1-0.4-0.3-0.7c-0.8,0.1-0.9,0.4-1.6,0.5
			c0.1,0.6,0.4,0.7,0.6,1c0.4-0.1,0.9-0.1,1.3,0v-0.1h0.1c-0.1-0.2-0.1-0.1-0.2-0.3C391.7,246.9,391.8,246.7,391.9,246.6z
			 M391.5,234.2c-0.9,0-1.2,0.4-1.2,1.2c0.1,0.1,0.1,0.2,0.2,0.3c0.5,0,0.7,0,1.3,0c0.1-0.1,0.3-0.3,0.5-0.4c0.1-0.2,0-0.1,0.1-0.2
			C392.3,234.5,391.9,234.6,391.5,234.2z M391.8,240.7c-0.2,0.2-0.3,0.3-0.4,0.6c0.2,0.2,0.5,0.5,0.7,0.7c0.2,0,0.4-0.1,0.5-0.1
			l0.1-0.1c0-0.9-0.1-0.9-0.5-1.4C392.1,240.6,391.9,240.6,391.8,240.7z M392.4,237.5c0,0.2-0.1,0.4-0.1,0.6
			c0.3,0.1,1.1,0.5,1.4,0.5c0.3-0.1,0.3-0.1,0.5-0.2c0-0.5-0.1-0.7-0.3-1.1c-0.3-0.1-0.7-0.1-1.1-0.1
			C392.7,237.4,392.6,237.5,392.4,237.5z M394.4,243.3c-0.8,0.1-0.7,0.6-1.1,1v0.5c0.1,0.1,0.1,0.2,0.2,0.3c0.3,0.1,1,0.4,1.4,0.2
			c0.1,0,0.2-0.1,0.3-0.1c0-0.3,0-0.5,0-0.6C395.1,244,394.7,243.7,394.4,243.3z M395.9,231.6c0.1-0.2,0.1-0.1-0.1-0.3
			c0.1-0.2,0.4-0.5,0.5-0.6c0-0.3,0.1-0.6-0.1-0.8c-0.1-0.2-0.1-0.2-0.2-0.4c-0.2,0.1-0.1,0-0.2,0.1c-0.6,0-0.6,0.3-1,0.6
			c0,0.4-0.1,0.8-0.1,1.2c0.1,0.1,0.2,0.2,0.3,0.5C395.5,231.8,395.7,231.8,395.9,231.6z M396.6,242.2c0-0.3,0-0.5-0.1-0.6
			c-0.1-0.3-0.3-0.4-0.5-0.6c-0.2-0.1-0.6,0.2-0.8,0.4c-0.1,0.2-0.2,0.8-0.2,1.1C395.6,242.7,396.1,242.4,396.6,242.2z M396.6,245.9
			h-0.4v-0.3c-0.2,0-0.4-0.1-0.5-0.1l-0.3,0.3c0,0.4-0.1,0.5,0,0.7v0.5c0.2,0.1,0.1,0,0.2,0.1c0.8,0,0.7-0.1,1.1-0.5
			C396.7,246.3,396.7,246.3,396.6,245.9L396.6,245.9z M396.8,243.2c-0.1,0.3-0.2,0.7-0.3,0.9c0.4,0.3,0.7,0.7,1.1,1
			c0.2,0,0.3,0,0.5-0.1c0.1,0,0.2-0.1,0.3-0.1c0-1,0-1.3-0.4-1.9C397.6,243.1,397.2,243.1,396.8,243.2z M397.7,233.3
			c-0.1-0.1-0.2,0-0.5,0c-0.1,0.2-0.2,0.5-0.3,0.6c0.2,0.2,0.2,0.1,0.1,0.4c0,0.2,0,0.2,0.1,0.4c0.2,0.1,0.5,0.1,0.7,0.2
			c0.2-0.2,0.4-0.3,0.6-0.5C398.5,233.8,398.2,233.5,397.7,233.3z M400.4,239.3c-0.2,0.2-0.4,0.3-0.6,0.4c-0.1,0.2,0,0.4-0.1,0.7
			c0.2,0.1,0.3,0.4,0.5,0.5c0.3,0,0.6,0,0.8,0.1c0.2-0.5,0.1-1.3-0.4-1.6C400.5,239.3,400.6,239.3,400.4,239.3z M401.7,234.3
			c-0.3,0-0.6,0-0.6,0c-0.3,0.1-0.4,0.4-0.5,0.8c0.4,0.3,1,0.4,1.2,0.9c0.3,0,0.8,0,1-0.3l0.1-0.1h-0.1
			C402.7,234.8,402.1,234.9,401.7,234.3z M403.1,230c-0.1-0.2,0-0.1-0.1-0.2c-0.1-0.5-0.2-0.5-0.5-0.8c-0.8-0.1-1.3,0.4-1.6,1.1
			c0.4,0.2,0.9,0.4,1.5,0.4C402.7,230.3,402.9,230.2,403.1,230z M404.3,234c-0.1-0.5-0.3-0.8-0.7-0.9c-0.1-0.1-0.3,0-0.5-0.1
			c-0.7,0-0.9,0.1-1.1,0.5c0.5,0.3,0.9,0.7,1.6,0.9C403.8,234.3,404.1,234.1,404.3,234z M404.4,242.2c0-0.6-0.3-0.7-0.5-1.1
			c-0.2-0.1-0.1,0-0.2-0.1c-0.2,0-0.3,0-0.5,0.1c-0.1,0.6-0.5,1.3-0.3,2c0.1,0.3,0.3,0.5,0.5,0.8c0.3,0.1,0.5,0,0.8,0
			c0.1-0.4,0.2-0.5,0.3-0.7c-0.1-0.1-0.2-0.2-0.4-0.3C404.2,242.5,404.2,242.4,404.4,242.2z M403.7,229.6c-0.1,0.1-0.1,0.5-0.2,0.7
			c0.2,0.1,0.5,0.3,0.6,0.5c0.2,0,0.3,0,0.5-0.1c0.1,0,0.2-0.1,0.3-0.1c0-0.7-0.1-0.9-0.4-1.3C404,229.3,403.9,229.3,403.7,229.6z
			 M406.2,229.8c-0.1-0.3,0-0.2-0.3-0.3c-0.1-0.1,0,0-0.2-0.1c-0.4,0.4-0.6,0.5-0.8,1.1c0.1,0.1,0.2,0.3,0.3,0.5
			c0.3,0,0.6,0,0.7-0.1h0.5C406.5,230.4,406.5,230,406.2,229.8z M406.4,241.8c-0.1,0,0,0.6-0.2,0.7c0,0.4,0.1,0.4,0.2,0.6
			c0.5-0.1,0.7-0.2,1-0.5c0.1-0.4,0-0.5,0-1C407.1,241.7,406.6,241.7,406.4,241.8z M408.9,228.4c-0.1,0-0.2,0.1-0.3,0.1
			c0,0.2-0.1,0.4-0.1,0.6c0.1,0.1,0.1,0.1,0.1,0.3c0.2,0.1,0.3,0.2,0.5,0.3c0.5,0,0.5-0.1,0.8-0.3c0-0.3,0-0.5,0.1-0.6
			c0-0.2,0-0.2-0.1-0.4C409.6,228.3,409.2,228.2,408.9,228.4z M410.5,227.6c0.3,0.1,0.3,0.1,0.4,0.1c0.2,0,0.2,0,0.3-0.1
			c0.1-0.1-0.1-0.5-0.1-0.9c-0.2-0.1-0.3-0.2-0.5-0.3c-0.4,0.1-0.4,0.1-0.6,0.3v0.5c0.2,0.1,0.3,0.5,0.4,0.7
			C410.5,227.8,410.4,227.9,410.5,227.6z M412.4,244.2L412.4,244.2c0-0.3-0.4-0.6-0.6-0.7c0.1-0.2,0.1-0.1,0.2-0.4
			c-0.1-0.1-0.2-0.4-0.4-0.5c-0.2-0.1-0.2,0-0.4-0.2c-0.3,0-0.5,0-0.6,0.1c-0.3,0.4-0.3,0.8-0.3,1.4c0.3,0.1,0.4,0.1,0.5,0.4
			c0.2-0.1,0.7-0.3,0.8-0.5C411.9,243.8,412.2,244,412.4,244.2z M411.6,227.8c-0.5,0-1,0.6-0.9,1l0.6,0.6c0.2,0,0.2,0,0.3-0.1
			c0.4-0.1,0.6-0.3,0.7-0.6c0.1-0.1-0.1-0.4-0.2-0.6C411.9,228.1,411.8,228,411.6,227.8z M420.6,226.5c0.1-0.2,0-0.1,0.1-0.2
			c0-0.6-0.3-0.7-0.6-1.1c-0.3,0-0.4,0.1-0.5,0.2c-0.3,0.1-0.3,0.1-0.3,0.6c-0.3-0.1-0.3-0.3-0.5-0.6c-0.4-0.3-1.1,0.2-1.6-0.3
			c-0.3,0.1-0.3,0.4-0.5,0.5c-0.3,0.1-0.6-0.1-0.8,0.1c-0.1,0.2-0.2,0.4-0.4,0.6c-0.5,0.2-0.6-0.1-0.9,0.4c-0.5,0-1-0.4-1.3-0.3
			c-0.1-0.2-0.3-0.8-0.5-1.2c-0.4-0.1-1-0.1-1.6-0.1c-0.1,0.1-0.2,0.2-0.4,0.3c0,0.4,0,0.8,0.1,1c0.5,0.1,1.3,0.6,1.6,0.4
			c0.3,0.2,0,0.4,0.2,0.8l0.6,0.6h0.4c0.1,0.4,0.3,1.1,0.5,1.4c0.5-0.1,0.7-0.4,1.1-0.5c0.1-0.3,0.2-0.6,0.1-0.8
			c0.2-0.9,1.3-0.7,1.6-1.5c0.6,0,0.8,0.1,1,0.5l0.1,0.1c-0.3,0.1-0.5,0.1-0.5,0.5c-0.3-0.2-0.4-0.1-0.8,0c0,0.1-0.1,0.4-0.2,0.5
			c0.1,0.5,0.4,0.6,0.5,1.1c0.2,0,0.4,0.1,0.5,0.1c0.3-0.4,0.7-0.8,1.1-1.1c0-0.4,0-0.7-0.2-0.9c0.2-0.2,0.4-0.3,0.5-0.5
			c0.1-0.1,0.1-0.1,0.1-0.3h0.8C420.4,226.6,420.5,226.5,420.6,226.5z M411.6,232.2c-0.1,0.1-0.3,0.3-0.5,0.4c0,0.6,0,0.8,0.1,1.4
			l0.1,0.1c0.3,0,0.5,0,0.7-0.1c0.4-0.2,0.4-0.7,0.6-1c-0.1-0.3-0.3-0.3-0.4-0.7H411.6z M412.5,244.9c-0.6,0-0.8,0.2-0.9,0.7
			c0.5,0.4,0.9,1,1.3,1.6l0.1,0.1v-0.1c0.7,0,0.6-0.2,1-0.5C413.9,245.7,413,245.5,412.5,244.9z M414.2,231.4
			c0.3,0.2,0.5,0.5,0.6,0.7c0.3,0,0.4,0,0.6-0.1c0.1-0.2,0-0.1,0.1-0.2c0-0.5-0.1-0.7-0.2-1C414.8,230.9,414.4,231,414.2,231.4z
			 M416.8,223.8L416.8,223.8c0.1,1.1,0.2,0.6,0.8,0.9c0.1,0.1,0.2,0.2,0.3,0.4c0.4,0.2,0.7,0,1.2-0.1c0-0.1,0.1-0.2,0.1-0.3
			c0.1-0.3-0.3-0.7-0.4-1.1c-0.5-0.1-1.1-0.1-1.5-0.4c-0.2,0.1-0.3,0.2-0.5,0.4L416.8,223.8l-0.6-0.6c-0.2,0-0.3,0-0.5,0.1
			c-0.3,0.1-0.4,0.4-0.5,0.7c0.2,0.3,0.5,0.5,0.6,0.7C416.5,224.5,416.7,224.5,416.8,223.8z M417.5,243.3c-0.9,0-1.1,0.3-1.3,1
			c0.2,0.2,0.4,0.3,0.6,0.5c0.2,0,0.3,0,0.5-0.1c0.3-0.1,0.2-0.4,0.6-0.5c0-0.3-0.1-0.4-0.2-0.6L417.5,243.3z M419.2,234.7
			c0-0.2,0-0.2-0.1-0.3c-0.1-0.3-0.3-0.3-0.5-0.6c-0.2,0-0.3,0-0.5-0.1c-0.1,0.1-0.1,0.1-0.3,0.2v0.8c0.1,0.1,0.2,0.2,0.3,0.4
			C418.9,235.2,418.9,235,419.2,234.7z M419.1,244.5c-0.5,0-0.4,0.1-0.7,0.4v0.8c0.1,0.1,0.1,0.2,0.2,0.3c0.4,0,0.8,0,1-0.2
			c0.1-0.1,0.1-0.2,0.2-0.3c0-0.5-0.1-0.6-0.3-0.9C419.2,244.6,419.2,244.6,419.1,244.5z M420.9,230.7c0.5,0,0.8-0.4,0.5-0.8
			c-0.1-0.4-0.4-0.4-0.6-0.6c-0.2,0-0.3,0-0.4,0.1h-0.2c-0.1,0.3-0.1,0.6-0.1,1c0.2,0.1,0.2,0.1,0.3,0.4
			C420.6,230.7,420.8,230.7,420.9,230.7z M421.5,241.7c-0.4,0-0.8,0-1,0.1c-0.1,0.3-0.2,0.5-0.2,0.9c0.2,0.1,0.4,0.2,0.5,0.5h0.8
			c0-0.2,0.1-0.4,0.2-0.5C421.9,242.2,421.7,242,421.5,241.7z M422.8,244.9c-1,0-0.9,0.2-1,0.8c0.2,0.2,0.4,0.5,0.6,0.7
			c0.6,0,0.8-0.1,1.2-0.4C423.6,245.2,423.2,245.3,422.8,244.9z M423.8,228.4c-0.3-0.2-0.5-0.3-0.6-0.6c-0.4,0-0.3,0-0.6,0
			c-0.1,0.3-0.2,0.5-0.4,0.8c0.2,0.2,0.3,0.5,0.5,0.7C423.5,229.3,423.7,229.1,423.8,228.4z M423.6,234.3c-0.3,0-0.5,0-0.7,0.1v0.5
			c0.1,0.1,0.1,0.6,0.2,0.7c0.2,0.3,0.4,0,0.5,0.3c0.3-0.1,0.3-0.2,0.5-0.4c0-0.2,0-0.3-0.1-0.4
			C424.1,234.6,423.9,234.6,423.6,234.3z M426.2,229.8c-0.3-0.4-0.7-0.1-1-0.3c-0.2,0.1-0.1,0.1-0.4,0.2c0,0.3-0.1,0.5-0.1,0.8
			c0.2,0.2,0.4,0.3,0.6,0.5c0.5-0.1,0.6-0.3,1-0.5C426.4,230.1,426.3,229.9,426.2,229.8z M426.3,245.1c0,0.3,0,0.3-0.2,0.5
			c0,0.9,0.6,1.3,1.3,0.9c0.2-0.4,0.4-0.5,0.4-1.1C427.1,245.3,427.2,245,426.3,245.1z M426.2,242.7c0,0.8,0.3,0.7,0.6,1
			c0.2,0,0.4,0,0.5-0.1h0.2c0-0.5-0.1-0.9-0.1-1.4c-0.3,0-0.3-0.1-0.4,0c-0.3,0-0.6,0-0.8,0.1C426.2,242.6,426.3,242.6,426.2,242.7z
			 M428,226.2c0.1,0,0.2-0.1,0.3-0.1c0-0.6,0.1-1-0.1-1.3c-0.1-0.1-0.2-0.1-0.3-0.2c-0.5,0.2-0.9,0.7-1,1.3
			C427.2,226.1,427.6,226.4,428,226.2z M427.5,229.6c0.2,0.1,0.3,0.1,0.4,0.4c0.6,0,0.6-0.1,1-0.3c0-0.2,0.1-0.4,0.1-0.6
			c-0.2-0.2-0.3-0.3-0.4-0.5c-0.6,0-0.7,0.1-1,0.3C427.5,229,427.5,229.3,427.5,229.6z M427.8,233.6v0.5c0.2,0.1,0.6,0.3,0.9,0.1
			c0.5-0.2,0.3-0.6,0.5-1l-0.1-0.1C428.3,233.1,428.1,233.3,427.8,233.6z M430.9,227c-0.1-0.1-0.3-0.1-0.4-0.2
			c-0.6,0.1-0.7,0.5-0.9,1c0.2,0.1,0.3,0.3,0.4,0.6c0.5,0,0.8-0.1,1.2-0.4C431.1,227.5,431,227.3,430.9,227z M431,243.4
			c-0.1-0.1,0,0-0.2-0.1c-0.1,0.2,0,0.1,0,0.3c-0.2,0-0.2,0-0.3-0.1c-0.3,0.1-0.4,0.1-0.5,0.5c-0.1,0.1-0.1,0.2-0.1,0.4
			c0.2,0.1,0.3,0.2,0.5,0.4c0.6,0,0.7-0.2,1-0.5C431.5,243.7,431.4,243.5,431,243.4z M431.8,245.1c-0.1-0.1-0.5-0.1-0.7-0.1
			c-0.1,0.2-0.1,0.3-0.3,0.4c0.1,0.7,0.4,0.6,0.6,1c0.2,0,0.5-0.1,0.7-0.1c0.1-0.3,0.3-0.5,0.1-0.7
			C432.1,245.4,432,245.2,431.8,245.1z M432.4,231.9c-0.2-0.1-0.1,0-0.2-0.1c-1-0.1-1.2,0.3-1.3,1c0.2,0.3,0.5,0.7,0.7,1
			c0.2-0.1,0.1,0,0.2-0.1c0.4-0.1,1-1.1,0.6-1.6C432.5,232,432.5,232,432.4,231.9z M432.2,229.6c-0.5,0.1-0.6,0.2-1,0.4
			c0,0.3,0.1,0.6,0.1,0.8c0.5,0,1,0.2,1.2,0.5c0.4,0,0.4-0.1,0.6-0.2C433.2,230.1,432.7,230,432.2,229.6z M433.4,227.2
			c-0.3-0.2-0.9-0.8-1.3-0.6c0.3,0.3,1.2,0.6,1.4,1c0,0.1-0.1,0.5,0,0.7c0.2,0.3,0.6,0.5,0.7,0.9c0.3,0.1,0.7,0.2,0.9,0
			c0.3-0.1,0.2-0.1,0.5-0.3C435.2,227.6,434.5,227.8,433.4,227.2z M434.8,226.2c0.4,0,0.5-0.1,0.7-0.2c0-0.3,0-0.5,0-0.6
			c-0.1-0.7-0.2-0.4-0.6-0.6c-0.7-0.4-0.2-1.2-1.7-1l-0.1,0.1c0,0.4-0.1,0.8-0.1,1.2c0.2,0.2,0.5,0.5,0.7,0.7
			C434.3,226.1,434.5,225.4,434.8,226.2z M436.4,239.5c-0.7,0-0.6,0.3-1,0.5v0.5l0.5,0.5c0.7,0,0.7-0.2,1-0.5c0-0.4-0.1-0.6-0.3-0.8
			C436.7,239.7,436.5,239.6,436.4,239.5z M437.3,232.4c-0.1-0.1,0-0.1-0.2,0c-0.4,0.1-0.3,0.2-0.6,0.3c0,0.4,0.1,0.7,0.1,1.1
			c0.6,0,0.6-0.1,1.1-0.2l0.1-0.1C437.8,232.9,437.7,232.6,437.3,232.4z M438.6,231.3c0-0.2-0.1-0.5-0.1-0.7
			c-0.2-0.1-0.4-0.2-0.6-0.4c-0.7,0.1-0.6,0.5-0.7,1.1c0.2,0.1,0.4,0.2,0.5,0.5c0.4,0,0.5,0,0.7-0.2L438.6,231.3z M438.5,227.5
			c0.1-0.4-0.1-1,0.2-1.4c-0.1-0.4-0.1-0.4-0.3-0.6c-0.1-0.1-0.3-0.1-0.4-0.2c-0.4,0-0.4,0.1-0.6,0.2c0,0.9,0.1,1.3-0.2,2.3
			C437.8,227.8,438,227.6,438.5,227.5z M440.3,237.3c-0.1-0.1,0,0-0.3,0c-0.2-0.5-0.3-1-0.5-1.4c-0.4,0-0.5-0.1-0.8,0.1
			c-0.3,0.2-0.3,0.6-0.3,1.1c0.7,0.3,0.8,0.6,1,1.1c0.3,0,0.7,0,1-0.2C440.4,237.7,440.5,237.5,440.3,237.3z M438.6,233
			c0.1,0.1,0.1,0.2,0.2,0.3c0.4,0,1-0.1,1.1-0.3v-0.6h0.1c0-0.1,0.1-0.1,0.1-0.2H440V232c-0.3,0-0.3-0.1-0.5,0
			c-0.6,0-0.6,0.1-0.9,0.4L438.6,233L438.6,233z M439.2,229.2c0.2,0,0.3,0,0.5,0.1c0.5,0,0.5-0.1,0.8-0.3c0-0.3,0-0.5,0-0.5
			c0-0.2,0-0.3-0.1-0.5c-0.2,0-0.4-0.1-0.5-0.2c-0.4,0-0.5,0.1-0.7,0.2c-0.1,0.3-0.2,0.5-0.2,0.9C439.1,229,439.1,229,439.2,229.2z
			 M441.4,239.6c-0.1-0.5-0.3-0.7-0.5-1c-0.3,0-0.7,0-0.9,0.1c-0.2,0.2-0.3,0.9-0.3,1.2c0.3,0.1,0.4,0.2,0.5,0.5
			c0.2,0,0.2,0,0.3-0.1C441.1,240.2,441.1,239.9,441.4,239.6z M441,243.9v0.7c0.7,0.3,0.9,0.5,1.6,0.1c0-0.5,0-0.8-0.2-1.1
			C441.7,243.7,441.4,243.7,441,243.9z M444.2,242.4c0,0.2-0.1,0.4-0.1,0.6c0.1,0.2,0.2,0.6,0.3,0.7c0.7,0,0.8-0.1,1.2-0.4
			c-0.1-0.6-0.3-0.7-0.5-1.1C444.8,242.3,444.5,242.3,444.2,242.4z M445.7,215.2V215h-0.2c-0.1,0.2-0.2,0.3-0.3,0.6
			C445.5,215.5,445.5,215.4,445.7,215.2z M447.4,242.7c-0.1,0.3-0.2,0.5-0.2,1c0.2,0.1,0.4,0.2,0.5,0.1c0.5,0,0.4-0.1,0.7-0.3
			c-0.1-0.5-0.2-0.6-0.5-0.9C447.8,242.6,447.6,242.6,447.4,242.7z M447.9,238.2c-0.4,0.5-0.4,0.6-0.6,1.2c0.1,0.1,0.2,0.2,0.3,0.4
			c0.8,0,0.9-0.2,1.4-0.5c0-0.5-0.2-0.5-0.2-1C448.2,238.4,448.4,238.3,447.9,238.2z M452.6,239.8c0-0.3,0-0.6-0.2-0.7
			c-0.2-0.2-0.5-0.2-0.5-0.2c-0.4,0.1-0.3,0.2-0.6,0.3v0.7c0.2,0.1,0.4,0.3,0.6,0.4v0.1C452.3,240.2,452.4,240,452.6,239.8z
			 M452.1,243.6c0.2,0.2,0.2,0.5,0.3,0.8l0.1,0.1c0.4-0.1,0.5-0.2,0.8-0.3c0-0.8-0.1-0.8-0.5-1.2
			C452.5,243.1,452.3,243.3,452.1,243.6z M455.2,242.6c-0.1-0.2-0.5-0.1-0.6-0.2c-0.2-0.1-0.5-0.6-0.6-0.8c-0.4,0-0.5,0-0.7,0.2
			c-0.3,0.2-0.2,0.4-0.3,0.6c0.2,0.2,0.2,0.6,0.5,0.7c0.3,0.3,0.8,0.3,1.1,0.6c0.4,0,0.7,0,0.9-0.1c0-0.4,0-0.5-0.2-0.6L455.2,242.6
			L455.2,242.6z M456.3,234.1c0,0.6,0.2,1,0.5,1.3c0.1,0.1,0.3,0.2,0.5,0.3c0.3,0,0.6,0,0.7-0.1c0.4-0.5-0.2-0.9-0.3-1.5
			C457.1,234.3,457,234.2,456.3,234.1z M461.5,231.9c0.4-0.2,0.8-0.3,1.2-0.5c0-0.6-0.1-0.5-0.4-0.8h-0.1c0.2-0.1,0.5-0.1,0.8-0.3
			c0-0.3-0.1-0.4,0-0.6c-0.1-0.4-0.3-0.5-0.4-0.8c-0.2,0-0.2,0-0.3-0.1c-0.3,0.1-0.6,0.3-0.8,0.6c-0.1,0.1,0.1,0.7,0.2,0.9l-0.6,0.6
			c-0.1,0.1-0.5-0.1-0.6,0c-0.1,0.3-0.2,0.5-0.1,0.6c0,0.3,0,0.5,0.1,0.7c0.5,0,0.6-0.1,1-0.2L461.5,231.9L461.5,231.9z
			 M462.2,240.6c-0.2-0.1-0.1,0-0.2-0.1c-0.5,0-0.6,0.2-0.8,0.5c0.2,0.2,0.3,0.6,0.5,0.8c0.5,0,0.6-0.2,0.9-0.4
			C462.5,240.8,462.3,241.1,462.2,240.6z M462.9,237.4c-0.5,0.1-0.6,0.5-0.6,1c0.8,0.9,0.6,0.7,1.7,0.6c0-0.3-0.1-0.7-0.3-0.9
			C463.5,237.8,463.1,237.7,462.9,237.4z M464.5,240.7c0,0.2-0.1,0.5-0.1,0.7c0.1,0.1,0.2,0.3,0.3,0.5c0.8-0.1,0.9-0.5,1.4-0.8
			c0-0.5-0.2-0.5-0.4-0.8C465,240.3,464.9,240.5,464.5,240.7z M469.2,240c-0.5,0-0.5,0.1-0.8,0.3c0,0.4,0.1,0.7,0,0.8
			c0,0.2,0,0.3,0.1,0.5c0.4,0.1,0.7,0.1,1.1,0c0-0.5,0.1-0.6-0.1-0.9C469.4,240.2,469.4,240.3,469.2,240z M471.7,236.7
			c-0.5,0-0.7,0.2-0.6,0.6c-0.3-0.1-0.4-0.3-0.6-0.1c-0.2,0.1-0.1,0.1-0.4,0.2c0,0.4-0.1,0.7-0.1,1.1c1.3,0,1.2-0.6,2.6-0.5
			c0.1-0.2,0.1-0.3,0.3-0.4C472.8,237,472.2,236.4,471.7,236.7z M470.6,240.6c0.2,0.1,0.3,0.2,0.4,0.5c0.6,0.1,0.8-0.3,1.2-0.6
			c-0.1-0.4-0.2-0.5-0.2-0.9C471.2,239.8,470.8,239.9,470.6,240.6z M472.3,234.1c0-0.6-0.2-1.3-0.9-1.1c-0.2,0.1-0.6,0.6-0.8,0.7
			v0.5c0.3,0.2,0.6,0.4,1.1,0.5C471.9,234.5,472.1,234.3,472.3,234.1z M473.2,235.1c-0.1,0.2,0,0.1-0.1,0.2v0.6
			c0.2,0.1,0.1,0,0.2,0.1c0.3,0,0.4,0,0.5-0.1c0-0.2-0.1-0.5-0.1-0.7L473.2,235.1L473.2,235.1z M474.1,205.7c0.2-0.1,0.1,0,0.2-0.1
			h0.1v-0.3h-0.2C474.2,205.4,474.2,205.6,474.1,205.7z M476.1,236.1c-0.2-0.1-0.7,0.3-1,0.5v0.3c0.1,0.1,0.2,0.2,0.3,0.4
			c0.2,0,0.4,0.1,0.5,0.2c0.5,0,0.6-0.2,0.9-0.4C476.8,236.4,476.5,236.2,476.1,236.1z M478.8,235.6c0-0.8-0.2-0.8-0.4-1.3
			c-0.2,0-0.4-0.1-0.6-0.1c-0.3,0.3-0.6,0.3-0.7,0.7c0.2,0.3,0.2,0.6,0.6,0.7c-0.1,0.2-0.1,0.2-0.4,0.3c0.1,0.4,0.3,0.6,0.4,0.9
			c0.2,0,0.3,0.1,0.5,0.2C478.9,236.7,478.2,236.1,478.8,235.6z M479.2,233.1c0.2-0.6-0.6-1.2-1-0.9c-0.3,0.2-0.5,0.5-0.5,1
			c0.3,0.2,0.5,0.4,0.9,0.5L479.2,233.1z M477.9,238.1c-0.2,0.4,0.3,0.8,0.5,1c0.5,0,0.7-0.2,1.1-0.4c0-0.2-0.1-0.5-0.1-0.7
			C478.9,237.9,478.3,237.7,477.9,238.1z M478.4,181.6v-0.2h-0.3c0,0.1-0.1,0.2-0.1,0.3C478.2,181.7,478.2,181.7,478.4,181.6
			L478.4,181.6L478.4,181.6z M480.4,235.7c0,0.2-0.1,0.3-0.1,0.5c0.2,0.2,0.4,0.4,0.5,0.6c0.3,0,0.3-0.1,0.5,0
			c0.3-0.1,0.3-0.2,0.5-0.4c0-0.5-0.2-0.7-0.4-1.1C480.9,235.4,480.8,235.6,480.4,235.7z M484.5,236.4c0.2,0.1,0.3,0,0.5-0.1
			c0.4-0.2,0.6-0.7,0.8-1c-0.1-0.3-0.1-0.3-0.2-0.6c-0.3,0-0.6-0.1-0.9-0.1c-0.2,0.2-0.3,0.2-0.4,0.5c-0.2-0.1-0.3-0.5-0.5-0.6
			c-0.3-0.2-0.8-0.2-1-0.5c-0.5,0-0.5,0.2-0.8,0.4c0,0.2-0.1,0.4-0.1,0.7c0.3,0.3,0.7,0.7,1.1,0.8c0.2,0.1,0.3,0,0.5,0.1
			c0.3-0.1,0.4-0.2,0.6-0.4C484.2,236.1,484,236.3,484.5,236.4z M482,191.4h0.2v-0.3C482,191.3,482.1,191.1,482,191.4z M486.3,318.6
			c0,0.3,0,0.5,0.1,0.6c0.1,0.3,0.2,0.3,0.4,0.5c1.5,0,3,0.1,4.1-0.5c0-0.2,0-0.2-0.1-0.3c0-1-0.3-0.8-0.8-1.2
			c-0.7,0.1-0.5,0.3-1.2,0.4v-0.3h-0.1c-0.1,0.1-0.1,0.2-0.2,0.4C487.6,318.1,487.1,318.2,486.3,318.6z"/>
	</g>
</g>
</svg>
