<?xml version="1.0" encoding="utf-8"?>
<!-- Generator: Adobe Illustrator 21.0.0, SVG Export Plug-In . SVG Version: 6.00 Build 0)  -->
<svg version="1.1" id="Calque_1" xmlns="http://www.w3.org/2000/svg" xmlns:xlink="http://www.w3.org/1999/xlink" x="0px" y="0px"
	 viewBox="0 0 841.9 595.3" style="enable-background:new 0 0 841.9 595.3;" xml:space="preserve">
<style type="text/css">
	.st0{fill:#DADADA;}
</style>
<ellipse class="st0" cx="334.5" cy="410.6" rx="67" ry="4.4"/>
<g>
	<g>
		<path d="M563.9,226.7c-0.3-1-1.5-0.8-2.3-1.3c-0.6-0.3-1.3-1-1.9-1.3c-0.9-0.4-1.7-0.3-2.6-0.7c-0.7-0.3-1.4-1-2-1.3
			c-0.4-0.2-1,0-1.4-0.3c-0.1-0.1-0.2-0.5-0.3-0.6c-0.6-0.2-1.2-0.4-1.7-0.6c-0.6-0.3-1.2-0.9-1.7-1.2c-0.3,0-0.6-0.1-0.9-0.1v-0.4
			c-0.3,0-0.6-0.1-0.9-0.1c0-0.1-0.1-0.3-0.1-0.4c-0.3-0.2-1.1-0.5-1.3-0.6c-0.5-0.1-1-0.2-1.4-0.3c-0.6-0.3-1.4-0.9-2-1.2
			c-1-0.5-1.9-0.4-2.9-0.9c-0.2-0.1-0.3-0.5-0.4-0.6c-1.1-0.7-2.8-1-4.1-1.6c-0.4-0.2-1-0.8-1.4-1h-0.9c-2.8-0.9-6.2-1.9-8.8-3.2
			c-1.3-0.6-2.6-0.3-3.8-0.7c-0.3-0.1-0.8-0.6-1.2-0.7l-4.1-0.4c-0.3,0.1-0.6,0.7-0.9,0.7c-0.3,0-0.7-0.1-1-0.1
			c-0.2,0.1-1,0.4-1.2,0.6c-0.4,0.3-0.4,0.8-0.9,1.2c0.2,0.5,0.1,0.4,0.7,0.4v0.1c-0.3,0.2-0.4,0.7-0.7,0.9
			c-0.4,0.3-0.9,0.1-1.2,0.4h-0.1l-0.4,1.3c-0.5,0.8-1.5,1.6-2,2.5c-0.2,0.4-0.1,0.7-0.3,1.2c-0.2,0.4-0.8,0.8-1,1.2
			c-0.4,0.7-0.4,1.4-0.9,2.2c-0.5,0.8-1.6,1.2-1.4,2.3c-0.2,0.1-0.2,0.1-0.6,0.1v0.7c-1.3,1-1.6,2.4-2.5,3.8
			c-0.4,0.5-1.6,0.4-2.6,0.1c-0.6-0.2-1.5-0.6-2-0.7c-0.6-0.2-4.6-0.2-5.1-0.1c-0.5,0.1-2.4-0.6-3.8-0.1c-0.7,0.2-3.3,0.9-4.2,0.7
			c-0.9-0.2-2.6-0.5-3.9-0.1c-0.5,0.1-1.3,0.6-1.7,0.7c-0.9-0.2-1.5-0.1-2.5,0c-0.3,0-0.6-0.1-0.9-0.1c-1.6,0.4-4.1,0.9-5.8,1.2
			c-0.3-0.1-0.7-0.2-1-0.3c-0.9,0.2-1.9,0.9-2.9,0.7c-2.2-0.4-4.4,0.1-6.4,0.3c-0.4,0-1.1-0.3-1.3-0.3c-0.5,0-1.2,0.5-1.7,0.1
			c-0.7,0-0.7,0-0.9-0.6h-0.4v0.6c-0.8-0.1-1.6-0.3-2.2-0.4c-0.5-0.1-1,0.2-1.3,0.3c-0.1,0-2-0.2-2.3-0.3c-2.6-0.8-5.2-1.8-7.4-3
			c-0.3-0.2-0.4-0.8-0.7-1c-0.3-0.2-0.7-0.1-1-0.3c-0.2-0.2-0.3-0.7-0.6-0.9c-0.3-0.2-0.7-0.2-0.9-0.4c0-0.2-0.1-0.4-0.1-0.6
			c-0.3-0.3-0.9-0.5-1.2-0.9c-0.5-0.7-1-1.6-2-1.7c-0.3-1.6-1.7-1.9-1.7-3.6c2.6-0.3,5.2-1.8,7.4-2.6c0.6-0.1,1.2-0.2,1.7-0.3
			c0.6-0.3,1.6-0.9,2.2-1.2h0.9c0.6-0.2,1.2-0.9,1.7-1.2c1.7-1,3.3-1.6,4.8-2.7c0.1-0.2,0.2-0.4,0.3-0.6c0.4-0.3,0.9-0.1,1.3-0.4
			c0.9-0.7,1.2-1.8,1.9-2.7c0.4-0.6,1.2-1.2,1.6-1.9c0.6-1.2,0-2.2,0.3-3.6c0.1-0.3,0.1-4.7-0.1-5.2c-0.1-0.2-0.7-0.4-0.9-0.7
			c-0.1-0.6-0.2-1.2-0.3-1.7c-0.1-0.2-1.6-2.1-1.7-2.2c-0.3,0-0.6-0.1-0.9-0.1c-0.3-0.2-0.5-0.7-0.7-0.9c-0.5-0.3-1.2-0.1-1.7-0.4
			c-0.4-0.2-1.2-0.7-1.7-0.9c-1.7-0.5-5.8,0.2-7.4,0.9c-0.2,0.2-0.5,0.5-0.7,0.7c-4.6,2.6-7,3.8-9,9.1c-0.3,0.8-1.1,1.8-1.4,2.6
			c-0.4,1-0.5,2.4-0.7,3.3c0,0.3,0.1,0.6,0.1,0.9c-0.2,0.2-0.4,0.4-0.6,0.6c-0.2,0.6,0.1,0.9,0,1.4c-0.4,1.5-0.7,2.9-0.4,4.2v1.7
			c0.1,0.2,0.5,0.6,0.6,0.9c0.2,0.8-0.4,1.1,0.3,1.6v0.1c-1,0.2-1.7,0.6-2.5,0.9c-1.9,0.6-3.8,0.1-5.6,0.6
			c-8.5,2.4-17.9,5.2-24,10.4c-0.4,0.4-1.1,0.4-1.6,0.7c-0.3,0.4-0.7,0.8-1,1.2c-0.4,0.2-1,0-1.2,0.1c-0.1,0.1,0,0.5-0.1,0.6
			c-1.4,1.2-2.5,2.7-3.8,4.1c-2,2.1-4.8,4.2-6.4,6.7h-0.7v0.9c-0.4,0.3-0.5,0.7-1.2,0.9c-1,0.6-4.8-1.1-5.9-1.4H373
			c-3.8-0.4-8.3-0.7-12.2-1.6c-0.3,0-0.7,0.1-1,0.1c-1.5-0.3-3.6-0.3-4.9-0.7c-0.9-0.3-4.1,0.3-5.1-0.3c-1,0-0.9,0.2-1.3,0.7
			c0,0-0.1,0.1-0.1,0.1c-0.3-0.8-0.9-1-1.2-1.7h-0.9v0.4c-0.4,0.2-0.3,0.6-0.6,0.9c-0.5,0.5-1.3,0.6-1.9,1c-0.6,0.5-0.9,1.5-1.4,2
			c-1.9,1.6-4,3-5.8,4.8c-0.5,0.5-0.7,1.5-1.3,1.9c-1.5,1.1-2.9,2-4.3,3.2c-0.1,0.1-1.9,1.7-1.9,1.7v0.6c-0.4,0.6-1.3,0.6-1.9,1
			c-1.2,0.8-1.8,2.3-3.6,2.5v0.4c-2.6,0.7-5.2,3.5-7.1,5.1c-0.1,0.2-0.3,0.5-0.4,0.7c-0.5,0.1-1,0.3-1.4,0.4
			c-1.1,1.1-1.9,2.2-2.9,3.5c-0.9,1.2-2.7,1.7-3.3,3.2c-0.2,0-0.5-0.1-0.7-0.1c0,0.9-0.2,0.5-0.4,1.3c-0.5,0-1,0.1-1.4,0.1
			c0,1.6,0.4,1.3,0.7,2.5c0.5,0.6-1.1,2.4-1.3,3.2c-0.3,1.1,0,2-0.4,3c-0.2,0.5-0.7,1.4-0.9,2c-0.1,1.2-0.2,2.3-0.3,3.5
			c-0.2,0.6-1.3,2.5-1.2,3.3c0.1,0.8-0.8,3.1-1.2,4.1c-0.6,1.4-0.5,3.1-1,4.6c-0.2,0.4-0.6,1.4-0.7,1.9c-0.1,0.3,0.2,0.9,0.1,1.2
			c-0.1,0.1-0.3,0.2-0.4,0.3c-0.7,1.3-0.5,2.8-0.9,4.1c-0.1,0.3-0.5,0.7-0.6,0.9c-0.3,0.9,0,1.7-0.3,2.5c-0.3,0.7-0.4,1.8-0.7,2.6
			l-0.4,0.4c-0.1,0.3,0.2,0.7,0.1,0.9c-0.1,0.2-0.5,0.8-0.6,1c-0.5,1.3-0.4,2.4-0.9,3.8c-0.4,1.2-1.3,2.7-1.7,3.9
			c0,0.3-0.1,0.7-0.1,1c-0.1,0.1-0.4,0.4-0.4,0.6v1c-0.2,0.2-0.5,0.5-0.7,0.7c-0.2,1.4-0.5,2.7-0.7,4.1c-0.7,1.7-1.6,3.9-2.3,5.6
			v0.7c-0.2,0.5-0.7,1.3-0.9,1.7v0.9c-0.3,0.7-1,1.7-1.3,2.5c-0.2,0.6-0.6,2.5-0.6,3c0,0.1,0.1,0.2,0.1,0.3c-0.1,0-0.3,0.1-0.4,0.1
			c-0.5,0.8-0.2,1.7-0.6,2.6c-0.1,0.3-0.6,0.9-0.7,1.2c-0.4,0.9-1,3.9-0.6,4.2c-0.2,0.4-0.4,0.2-0.6,0.4c-0.8,1-1.4,3.6-1.9,5.1
			c-0.3,0.9-0.6,1.8-0.9,2.5c-0.1,0.3,0.2,0.8,0.1,0.9c-0.4,0.8-1,1.6-1.3,2.6c0.1,0.3,0.2,0.6,0,1c-0.2,0.6-0.9,1.1-1.2,1.7
			c-0.4,0.9-0.3,1.9-0.7,2.7c-0.3,0.5-0.8,1.4-1,2c-0.4,1.1-0.3,2.1-0.7,3.2c-0.2,0.5-0.8,1.1-1,1.6v1c-0.2,0.6-0.8,1.5-1,2
			c-0.6,1.4-0.5,3-1.2,4.3c-1.2,2.6-2.3,5.1-3.5,7.8c-0.2,0.5-1.1,0.9-1.2,1.4c0,0.3,0.6,1.2,0.7,1.4c0.8-0.1,1.3,0.4,2.3,0.1
			c2.3-0.5,5.6-0.2,7.4,0.1c0.6,0,1.2-0.1,1.7-0.1c0.9,0.3,1.9,0.4,2.7,0.6h2.2c2.2,0.7,5,0.5,7.1,1h2.7c6,1.4,15.9,1.2,22.6,2.7
			c1.3,0.3,3.1-0.1,4.1,0.1c3.1,0.7,6.8,0.3,9.4,0.9c2.2,0,4.3,0.1,6.5,0.1c2,0.5,4.3,0.7,6.4,1c0.3,0,0.8-0.3,1.3-0.1
			c7.4,1.9,14.7,2.2,21.6,4.1c0.9,0.3,2.3-0.1,3.2,0.3c3.4,1.3,8.8,1.6,12.3,2.9c0.9,0.1,1.7,0.2,2.6,0.3c2.3,0.7,5.6,1.1,7.4,1.9
			c1.9,0.9,6.7,0.2,8.1,1c0.1,0.2,0.1,0.5,0.1,0.9c0.5,0.2,1.1,0.5,1.6,0.9c1.7-0.1,1.6-1.4,2.6-2.2c1.6-1.2,2.7-2.6,3.6-4.5
			c0.5-1,0.9-2.8,1.6-3.5h0.6c0.1-0.2-0.1-0.3-0.1-0.3c0.1-0.7,0.5-1,0.7-1.4c0-0.2-0.1-0.4-0.1-0.6c0.2-0.3,0.9-0.3,1.2-0.6
			c0-0.2,0.1-0.4,0.1-0.6c0.2,0,0.4-0.1,0.6-0.1c0.3-0.3,0.6-0.7,0.9-1h0.6c0.4-0.4,0.3-1,0.9-1.3c0.9-0.4,1.6-0.1,2.5-0.4
			c0.2-0.2,0.4-0.4,0.6-0.6c0.2,0,0.5,0.1,0.7,0.1c2.2-0.5,3.2,0.2,4.3-1.4c0.2-0.3,0.7-0.6,0.9-1c0.5-1.5-0.1-3.2,0.1-4.5
			c0.6-3.4,0.1-5.8,0.7-9.1c-0.1-1.5-0.2-3.1-0.3-4.6c0-0.2,0.4-4.3,0.1-5.1c-0.1,0-0.2-0.1-0.3-0.1v-2c-0.1-0.1-0.2-0.2-0.3-0.3
			c0.2-0.6,0.7-3,0.6-3.8c-0.1-0.8-0.4-1.3-0.3-2c0.1-0.4-0.4-3-0.3-3.2c0.5-0.9,0-2.1,0.1-3c0.6-3.4,0.2-8.2-0.1-11.4
			c-0.1-0.9,0.4-2.3,0.6-3c0.2-1-0.7-1.9-0.4-2.9c0.1,0,0.2-0.1,0.3-0.1c0,0,0-3.7,0-3.9c0-0.3-0.4-0.4-0.3-0.7
			c0.2-0.9,0.7-3.2,0.4-4.5l-0.3-0.4c-0.2-1.7,0.8-4,0.1-5.1c0.5-1.3,1.1-4.1,0.7-5.8c-0.1-0.2-0.4-3-0.4-3c0-0.1,0.4-0.6,0.4-0.7
			c0.2-0.8-0.3-1.4,0-2c0,0,0.4-0.2,0.4-0.3c0-0.2-0.3-1.7-0.3-1.7c0.4-1.3,0.4-3.6,0.7-4.9c0.2-0.9-0.4-1.8-0.3-2.5
			c0.2-1,0.7-2.6,1-3.5c-0.1-0.3,0-3.8,0.1-4.3c0.5-1.6,0.5-3.6,0.1-4.8c-0.1-0.5,0.1-0.8,0.1-1.2c0-0.8-0.3-1-0.4-1.4
			c-0.2-0.7,0.4-1.5,0-2.3c-0.1-0.2-0.5-0.5-0.6-0.7c-0.6-1.4-0.8-2.6-1.4-3.9c-0.2-0.2-0.5-0.5-0.7-0.7c0-0.2,0.1-0.4,0.1-0.6
			c-0.1-0.3-0.6-0.7-0.7-1v-0.7c-0.6-1-1.6-2.1-2-3.2c-0.3-0.7-0.1-1.1-0.4-1.7c-0.7-1.3-1.7-2.7-2.3-4.1c-0.2-0.5-0.1-0.9-0.3-1.3
			c-0.5-1-1.6-1.7-2-2.6c-0.7-1.7-1.3-3.4-2.3-4.9c-0.4-0.6-1.2-1.1-1.6-1.7c-0.6-0.9-0.6-2.2-2-2.3l0.3-0.3c-0.2-1.4-1.4-2.5-2-3.5
			c-0.4-0.6-0.3-1.5-0.6-2.3c-0.5-1.2-0.9-1.9-1.4-2.9c-0.4,0-0.9,0.1-1.3,0.1c0,0.3-0.1,0.4-0.1,0.6c0,0-0.1,0.1-0.1,0.1
			c-0.3-0.4-0.4-0.8-0.7-1.2c-0.8-0.5-2.3,0-3.2-0.1c-0.8-0.2-4.8-1.4-5.5-1h-0.3c0.1-0.2,0-0.1,0.1-0.3v-0.4
			c-0.2,0.1-0.8,0.5-0.9,0.4c-0.2-0.1-1.3-0.6-1.4-0.6c-0.1,0-1.2,0.3-1.3,0.3c-0.4-0.1-1.4-0.7-2-0.7c-0.5,0-0.3,0.4-0.7,0.3
			c-0.7-0.1-1.6-0.6-2.3-0.4c-0.8-0.2-1.9-0.6-2.9-0.3v-0.1c0,0-0.1-0.1-0.1-0.1c0.8-0.4,0.9-1.2,1.4-1.7c1.8-1.8,3.5-4,5.5-5.5
			v-0.4c1.7-0.4,3.6-4,5.8-4.8v-0.6c1.1-0.2,4.3-2.4,5.2-3.2c0.1-0.2,0.2-0.1,0-0.3c0.9-0.6,2.1-0.7,3.2-1.2c0.3-0.2,0.7-0.7,1-0.9
			c0.6-0.1,1.2-0.2,1.7-0.3c0.4-0.2,0.9-0.7,1.3-0.9c1.2-0.4,1.9-0.4,3-0.9c0.3-0.1,0.7-0.6,1-0.7c0.8-0.4,1.5-0.1,2.3-0.4
			c1.5-0.5,3.7-1.1,5.2-1.6c1-0.3,2-0.4,2.9-0.6c0.4,0,0.9,0.1,1.3,0.1c1.6-0.4,2.6-0.8,4.1-1.3c0.5-0.2,0.4,0.3,0.9-0.1
			c1,0.2,1.4,1.7,1.9,2.5c0.4,0.4,0.9,0.8,1.3,1.2c0.8,1.3,1.6,2.1,2.5,3.3c0.5,0.7,1.2,0.8,1.9,1.3c0.2,0.1,0.2,0.6,0.4,0.7
			c0.2,0.2,0.5,0.1,0.7,0.3c0,0.1,0.1,0.3,0.1,0.4c0.4,0.3,0.9,0.2,1.3,0.4c0.9,0.5,1.8,1.4,2.7,2c0.9,0.6,2,0.5,3.2,0.9
			c0.4,0.1,0.9,0.6,1.3,0.7c0.9,0.3,1.2-0.2,2,0c1.8,0.4,4.5,0.3,6.1,0.7c0.3,0.1,0.5-0.1,0.6-0.1c0.7-0.1,2.5,0,2.7,0.1
			c0.4,0,1.2-0.5,1.7-0.4c3.2,0.4,8,0,11.3-0.9c0.6-0.1,1.1,0.2,1.9,0c1.1-0.3,2.9-0.6,4.3-0.7c0.2,0,0.6,0.3,1,0.1
			c0.4-0.1,1.1-0.5,1.6-0.6c0.3,0,0.7,0.1,1,0.1c0.6,0,1.2-0.1,1.7-0.1c0.7,0.1,2,0.2,2.6,0.1c0.6-0.1,1.8-0.6,2.5-0.7
			c1.1-0.3,2,0.4,2.9,0.3c2.9-0.3,5.9,0.5,8.5,0.9c-0.3,0.8-0.8,1.2-1.2,1.9c0,0.3-0.1,0.7-0.1,1c-0.3,0.6-1.2,1.4-1.4,2
			c0,0.2,0.1,0.4,0.1,0.6c-0.2,0.2-0.5,0.4-0.7,0.6v0.7c-0.1,0.2-0.7,0.5-0.9,0.9c-0.6,1.4-0.4,2.2-1,3.8c-0.3,0.8-1.1,1.8-1.4,2.5
			c-0.3,0.6,0,1.2-0.3,2c-0.3,0.8-1.2,2.5-1.9,3c0.1,0.4,0.1,0.6,0.3,0.9c0.6,0.8,1.9,0.9,2.7,1.4c1.4,0.8,2.8,1.8,4.3,2.5
			c0.7,0.3,1.4,0.1,2.2,0.4c1.1,0.5,2.9,1.9,4.3,1.4c2.4,1.2,5.5,2.4,8.2,3.2c0.3,0.1,1.3,0.1,1.6,0c0.2,0.1,0.6,0.5,0.9,0.6h1
			c1.8,0.7,3.6,1.6,5.2,2.3c0.5,0.2,0.7-0.2,1.2,0v0.3c0.7,0.3,1.4-0.1,2.3,0.3c0.4,0.2,1,0.7,1.4,0.9c0.6,0.1,1.2,0.2,1.7,0.3
			c1.1,0.4,2.6,1,3.6,1.4c0.7,0.3,1.1,0,1.9,0.3c0.4,0.2,0.9,0.7,1.4,0.9c1.1,0.3,2.6,0.1,3.6,0.6c0.1,0.2,0.3,0.4,0.4,0.6
			c0.8,0.5,1.8,0.5,2.5,1c3.1-0.1,3-1.6,4.2-3.5c0.2-0.3,0.8-0.6,1-0.9c0-0.2,0.1-0.5,0.1-0.7c0.2-0.1,0.5-0.3,0.7-0.4
			c0.4-0.6,0.4-1.2,0.7-1.7c1.2-1.9,2.6-3.7,3.8-5.6c0.5-0.8,0.5-1.7,1-2.5c2.8-4.7,5.2-10,8-14.8c1.4-2.4,2.7-4.9,2.6-8.2
			C564.1,228.2,564.4,227.3,563.9,226.7z M349.1,239.1c3.5,0,6.1,0.6,8.8,1.2c0.4,0.1,1.7-0.4,2.7-0.1c2.4,0.6,5.1,0.7,6.8,1.3
			c0.4,0.2,1.3-0.3,2-0.1c0.9,0.2,2,0.5,2.9,0.6c0.6,0.1,0.4-0.4,1-0.3c0.7,0.2,1.7,0.7,2.3,0.9c1.5,0.5,3.2,0.1,4.3,0.9
			c0,0,0.1,0.1,0.1,0.1h-0.1c-0.4,1.1-1.4,1.7-2,2.5c-0.1,0.4-0.3,0.8-0.4,1.2c-0.3,0.3-0.7,0.6-1,0.9c-0.3,0.4-0.3,0.9-0.6,1.3
			c-0.5,0.8-1.4,1.5-1.9,2.3c-0.6,0.9-1.4,2.7-2.2,2.9c0.1,0.6,0.2,0.5,0.3,1c-0.3,0-0.6,0.1-0.9,0.1c-0.3,1-1.2,1.5-1.7,2.6
			c-2.2-0.1-4.7-0.7-6.7-1.2c-0.5-0.1-1.2,0.2-1.4,0.1c-0.7-0.1-2.6-0.8-3-0.3h-0.1c-0.2-0.1-0.6-0.4-1-0.6c-0.2-1.1-0.4-2.3-1-3.3
			c-0.2-0.3-0.7-0.7-0.9-1v-0.6c-0.2-0.4-0.7-1.1-0.9-1.4c-0.4-0.8-0.5-2.3-1-3.3c-0.4-0.8-1.5-1.4-2-2.2c-1-1.6-1.4-3.6-2.5-5.1
			V239.1z M381.4,274.6c-0.3,0.2-0.7,0.3-0.9,0.6c-0.3,0.4-0.4,0.9-0.7,1.2c-0.4,0.1-0.8,0.3-1.2,0.4c-0.5,0.4-0.4,0.9-0.7,1.3
			c-0.4,0.5-1.3,0.8-1.7,1.3c-0.2,0.3-0.2,0.8-0.4,1.2c-0.2,0.3-1.2,0.6-1.4,0.9c0,0.2-0.1,0.4-0.1,0.6c-0.8,0.7-1.5,1.4-2.3,2
			c-0.3,0.4-0.4,0.9-0.7,1.3c-0.3,0.4-0.6,0.3-1,0.6c-0.3,0.2-0.1,0.5-0.3,0.9c-0.2,0.2-0.8,0.3-1,0.6h-0.1
			c-0.5-2.4-1.1-2.3-0.7-4.9h-0.4c-0.1,0.4-0.1,0.5-0.3,0.7c0,0-0.1,0.1-0.1,0.1c-0.5-1.5-1.8-2.8-2.3-4.2c-0.5-1.4-0.2-2.5-1.2-3.3
			c0.4-0.2-0.2-1.9-0.4-2.6c-0.4-1.1-0.7-2.3-1.2-3.5c-0.1-0.4-0.8-1-0.9-1.3c0-0.5,0.1-1,0.1-1.4c-0.1-0.5-0.4-1.7-0.7-2.2v-0.1
			c5.6,1.2,11,1.9,16.2,3.5c1.1,0.3,2.6,0.1,3.3,0.3c1.1,0.2,2,0.6,3.2,0.9c0.5,0.1,1,0,1.3,0.1h0.3c0,0.9-0.2,1.8-0.7,2.2
			c-0.3,0.2-0.7,0.2-0.9,0.4c-0.5,0.7-0.7,1.5-1.3,2c-0.2,0-0.5,0.1-0.7,0.1C381.3,274.3,381.3,274.4,381.4,274.6z M382.5,266.5
			c-0.4,0-0.8,0.1-1.2,0.1c-1,0-1.3-0.3-1.9-0.4h-2.2c-0.7-0.2-1.7-0.8-2.3-1h-1.4c-0.8-0.2-2.1-0.5-2.7-0.7c-1.3-0.4-2.6,0-3.9-0.4
			c-0.8-0.3-2.4-0.9-3.2-1.2c-0.4-0.1-1.2,0.1-1.7,0c-0.5-0.1-1.2-0.5-1.6-0.6c-0.2,0-0.5,0.1-0.7,0.1c-0.2-0.2-0.5-0.5-0.7-0.7
			c-0.5-0.2-0.7,0.3-0.9,0.3c0,0-2-0.2-2.2-0.3c-2.4-0.7-5.3-1-7.7-1.6H347c-0.3-0.1-0.9-0.6-1.3-0.7c-1.1-0.3-2.2,0.6-3.3,0H342
			c0.1-1.3,0.7-1.8,1.2-2.7h0.7c-0.1-0.3,0-0.3-0.1-0.4v-0.3c1.2,0.6,2.5,0.4,3.9,0.9c0,0,0.4,0.1,0.4,0.1v0.3c0.5,0.2,1-0.2,1.6,0
			c1.1,0.3,3.2,0.5,4.6,0.9c0.9,0.2,1.6-0.2,2.6,0.1c0.1,0,0.5,0.4,0.6,0.4c0.4,0.1,0.5-0.1,0.7-0.1c0.6,0,2.5,0.1,3.2,0.3
			c1.9,0.5,4.5,0.5,6.2,1c3.8,1.2,7,1.6,10.8,2.6c0.9,0.2,1.5,0,2.3,0.3c0.1,0,0.6,0.4,0.7,0.4c0.6,0.1,1-0.2,1.7,0
			c1.1,0.3,2.4,1.1,3.5,1.4c1.1,0.4,2.1,0,3.3,0.3c0.2,0.1,0.9,0.4,1,0.4c0.3,0.1,0.5-0.2,0.6-0.1c0,0.1,0.1,0.3,0.1,0.4
			c0.6,0,1.3,0.1,1.9,0.1c1.7,0.5,3.4,0.7,4.8,1.4c0.1,0.2,0,0.1,0.1,0.3c-0.1,0.5-0.1,0.4-0.3,0.7h-0.6v0.7c-0.2,0-0.4,0.1-0.6,0.1
			c0,0-1.3-0.2-1.7-0.3c-1.1-0.2-2.1,0.3-2.9,0.1c-2-0.4-3.9-1-6.4-1.4C385.1,267.3,383.9,266.8,382.5,266.5z M312.8,268.8
			c0.7-0.5,0.9-1.3,1.4-2c0.5-0.8,1.8-1.5,2.6-2v-0.4c1.8-0.2,4-3.2,5.4-4.2c0.4-0.3,0.7-0.2,1.2-0.4c0.3-0.2,0.4-0.8,0.7-1
			c0.3,0,0.6-0.1,0.9-0.1c0.8-0.5,1.7-1.3,2.5-1.7h0.6c1-0.6,2-2.3,2.9-3c0.2-0.2,0.7-0.2,0.9-0.4c0-0.2,0.1-0.5,0.1-0.7
			c0.2-0.3,0.6-0.2,0.9-0.6h0.6c0.3-1.4,2-2.2,3-2.9c1.2-0.8,2-2.3,3-3.2c1.6-1.3,3.6-2.6,4.8-4.3h0.4c0-0.3-0.1-0.4-0.1-0.6
			c0.4-0.2,0.7-0.3,0.9-0.7h0.3c0,0.2,0.1,0.5,0.1,0.7c0.7,0.1,0.6,0.2,1,0.4c0,0,0.1-0.1,0.1-0.1c0-0.9-0.3-1.2-1.2-1.3
			c0,0,0.1-0.1,0.1-0.1c0.2-0.2,0.4-0.4,0.6-0.6h0.4c0,0,2.4,4.7,2.5,4.8v1.3c0.3,0.6,1.3,1.3,1.7,1.7v0.4c0.1,0.1,0.6,0.2,0.6,0.3
			c0.1,0.3-0.3,0.7-0.1,1.2c0.4,1.1,1.3,2,1.7,3c0.2,0.6,0.1,1.2,0.4,1.6c0.3,0.3,0.8,0.6,1,1c0.3,0.5,0.1,0.9,0.4,1.3v0.1
			c-3.8-0.2-9-1.9-12.9-1.4c-0.6,1.2-1.8,1.9-2.5,3c-0.3,0.5,0,0.7-0.3,1.2c0.1,2.5,2.7,2.6,4.6,2.7c1.8,0.2,4.6,0.8,6.5,1.3
			c0.9,0.2,1.7-0.1,2.3,0c0.5,0.1,1.3,0.5,1.7,0.6c1.3,0.3,2.2,0,3,0.7c0.3,0.4,0.1,0.9,0.3,1.2c0.3,0.2,0.4,0.1,0.7,0
			c0,0,0.1,0.1,0.1,0.1c-0.6,1.7,1.3,5.6,1.9,7.2c0.4,1.2,0.3,2.3,1,3v0.6c-3.1-1.4-6.9-0.4-10.8-1.3c-0.9-0.2-1.1,0.2-1.9,0
			c-2.2-0.6-4.6-0.9-7.1-1.2c-0.6-0.1-1.4,0.2-2.2,0c-0.8-0.2-1.6-0.4-2.5-0.7c-0.5,0-1,0.1-1.4,0.1c-7.2-1.3-15.3-1.4-22.6-2.2
			c-0.4,0-0.7,0.4-0.9,0.4c-0.6,0-1.7-0.2-2.3-0.3C310.8,270.1,311.8,269.5,312.8,268.8z M395.1,406.8h-0.3v-0.3
			c0.1,0,0.2,0.1,0.3,0.1V406.8z M405.1,405.9c-0.2,0.5-0.7,0.5-1,0.9c-0.4,0-0.8,0-1-0.1c-0.1-0.2-0.1-0.1-0.1-0.4
			c0.9,0,1.6-0.3,1.9-0.4h0.4C405.2,405.8,405.2,405.9,405.1,405.9z M403.1,404.8c0,0,0.1-0.1,0.1-0.1v-0.3h0.7v0.6
			C403.4,404.8,403.5,404.7,403.1,404.8z M407.4,401.7c-1-0.4-1.9-0.8-2.9-1c-0.2,0.3-0.3,0.7-0.6,0.9c0.1,1.1,0.8,0.9,1.2,1.6
			c0.5-0.1,0.6-0.2,0.9-0.4c0.2,0.3,0.3,0.5,0.6,0.7c-0.2,0.3-0.5,0.7-0.7,1c-0.1,0.2,0,0.1-0.1,0.3c-0.2-0.3-0.3-0.5-0.4-0.9
			c-0.5,0.1-0.7,0.2-1,0.4h-0.1c0.1-0.3,0.2-0.4,0.4-0.6c-0.1-0.8-0.4-1-1-1.2c0.1-0.5-0.2-1.1,0-1.9c0.1-0.5,0.4-1,0.4-1.6
			c0.5-0.2,0.7-0.3,1-0.7c0.2,0.4-0.3,0.7,0,1.2c0.4,0.6,0.7-0.1,0.6,1c0.5,0.3,1.2,0.8,1.6,0.7h0.3V401.7z M425.2,295.3
			c-0.1,2.4-0.9,4.1-1.3,5.6c-0.3,1.2,0.5,1.6,0.3,2.5l-0.4,0.4c-0.2,0.9,0.4,2.2,0.1,3.5c-0.3,1.1-0.5,2.2-0.6,3
			c0,0.1-0.3,4.5-0.1,4.9c0.2,0.6,0.7,1.8,0.4,2.7c-0.4,1.5-1.2,4.4-0.6,5.6c-0.7,0.9-0.5,4.4-0.3,5.4c0.2,1.1-0.1,2.9-0.3,3.9
			c-0.2,1.2,0.4,5.9,0.6,6.2c0,0.3-0.5,1.3-0.6,1.6c-0.4,1.1-0.1,6.1,0,6.9c0.2,1.3-0.5,3,0.1,4.1c-0.3,0.4-0.8,0.1-1.2,0.4
			c-0.1,0.4-0.3,0.8-0.4,1.2c0.2,0.4,0.3,0.3,0.6,0.6c0.5-0.1,0.5-0.1,0.9-0.3c0.1,0.4-0.2,1.4,0,2c0.1,0.1,0.2,0.2,0.3,0.3
			c-0.2,0.6-0.7,3-0.3,4.1h0.3c-0.1,0.4-0.2,0.9-0.3,1.3c0.5,2.7,0,5.7,0.3,8.2h-0.4c0.6,1.5,1,6.1,0,7.5c0.2,0.4,0,0.3,0.6,0.4
			c0,0.4,0,0.6-0.1,0.9v1.3c-0.4-0.1-0.7-0.3-1-0.6c-0.4,0-0.7,0.1-1,0.1c0,0.9,0.1,1.1,0.4,1.6c0.5,0,1-0.1,1.2-0.1h0.4
			c-0.2,1.3,0.2,3.4-0.4,4.5c-0.2,0.3-0.4,0.4-0.7,0.6c0,0.7,0,0.4-0.1,1.2h0.6c0,0,0.1,0.1,0.1,0.1c0.1,0.5,0.2,2.2-0.1,2.7
			c0,1.4-0.4,1.6-0.9,2.3c-0.4,0-0.8,0-1-0.1c-0.2-0.1-0.6-0.7-0.9-1.2l-1.3,0.4c0,0.7-0.2,0.5,0.1,0.9c-0.5,0.9-1.8,0.3-2.9,0.7
			c-1.3,0.4-2.4,1.9-3.5,2.6c-0.1-0.6-0.2-1-0.6-1.6c-0.2-0.1-0.1,0-0.3-0.1c-1,0.1-0.8,0.9-1.3,1.4c0,0.9,0.2,1.1,0.7,1.4
			c-0.2,0.5-0.5,1.1-0.7,1.6c-0.3,0.3-0.8,0.2-1,0.6c-0.3,0.4-0.1,0.7-0.4,1c0,0-0.7-0.1-1.3-0.1c-0.2-0.5-0.3-0.9-0.7-1.2
			c0.2-0.1,0.7-0.2,0.9-0.3c0.1-0.2,0-0.1,0.1-0.3c-0.1-0.5-0.1-0.4-0.3-0.7c-0.6,0.1-0.6,0.1-0.9,0.4h-0.1c0.3-0.5,0.7-1.2,1.2-1.6
			c0-0.3-0.1-0.4-0.1-0.6c-0.4,0-0.7,0-0.9,0.1c-0.5-0.2,0-0.1-0.3-0.4v-0.1c-0.5,0.2-0.8,0.6-1,1c0.2,0.2,0.7,0.9,0.6,1
			c-0.1,0.3-0.2,0.3-0.3,0.6c-0.2,0-0.5-0.1-0.7-0.1c0.5-1.5,0.1-3.4,0.9-4.5c0-1,0.4-1.1,1-1.4c0-0.9-0.1-1.1-0.6-1.4
			c0-2.1,1-4,1.2-6.2c0.4,0,0.8-0.1,1-0.3c0.1-0.2,0.1-0.1,0.1-0.4h-0.4c0,0-0.1-0.1-0.1-0.1c0-0.6-0.2-0.9,0-1.2v-0.3
			c0.5,0.3,1.2,0.4,1.6-0.1h0.1c-0.1,0.6,0,0.6,0,1.3c0.7-0.2,2.6-1.2,2.9-0.7c1.4,0,1.5-0.2,2.2-0.7c-0.1-1.6-1.5-0.8-2.2-0.6
			c-0.4,0.1-0.5-0.3-0.9,0c-0.3-0.1-0.2-0.1-0.4-0.3c0.2-0.4,0.4-0.4,0.9-0.4c0-0.1,0.1-0.3,0.1-0.4c0,0-0.1-0.1-0.1-0.1
			c-0.6,0.1-0.6,0.3-1.3,0.3c0,0-0.1,0.1-0.1,0.1c0.1,0.7,0.2,0.5,0.1,1.3c-0.4,0-0.5,0.1-0.7,0.1c-0.4-0.6-0.9-1.1-1.7-1.3
			c-0.1-1,0.2-3.3,0.9-4.1c0.3,0,0.4,0.1,0.6,0.6c0.6-0.1,0.7-0.3,1.2-0.6c0-0.3-0.1-0.7-0.1-1c-0.7-0.3-0.8-0.5-1.6-0.4
			c0.2-0.3,0.3-0.4,0.3-1c0.3-0.1,0.3,0,0.4-0.1c0.1,0,0.3-0.1,0.4-0.1c0-0.9-0.5-1.1-0.6-1.6c-0.2-0.7,0.4-2.4,0.4-3.3
			c0.5,0.1,0.4,0,0.6,0.3c0.5,0,0.9,0,1.2-0.1c0-0.9-0.4-1.3-0.7-1.9h-0.7c-0.1-1.6,0.2-2.2,0.4-3.6c0.2,0.2,0.2,0.1,0.3,0.4
			c0.8,0,1-0.2,1.4-0.4c0-0.6,0-0.5,0-1c-0.5-0.2-0.9-0.4-1.3,0h-0.3c0.3-2.8,1.1-6,1.9-8.5c0.6-2.1,0.6-4.3,1.3-6.1v-1.3
			c0.2-0.8,0.3-1.8,0.6-2.7c1.1-3.5,1.6-7.3,2.6-10.7c0.5-1.8,0.8-4.2,1.2-5.9c0-0.2-0.1-0.4-0.1-0.6c0.4-1.1,1-3,1.3-4.2
			c0-0.3-0.1-0.6-0.1-0.9c0.3-1.4,0.6-3.4,1-4.8v-1.3c0.2-0.8,0.6-2,0.9-2.9c0.1-0.8,0.2-1.5,0.3-2.3c0.2-0.8,0.8-1.9,1-2.6
			c0.2-0.9,0.1-2.3,0.6-3.5c0.7-1.9,2.2-5.9,2.2-8.2L425.2,295.3L425.2,295.3z M407.3,380.9v-0.3h0.4v0.1c0,0-0.1,0.1-0.1,0.1H407.3
			z M423.6,292.5c0.3,1.1-1,3.2-0.9,4.5c0.6,0.3-0.5,0.7-0.3,1.6c0.1,0.5-0.6,1.4-0.9,2.3v1c-0.7,1.7-1.3,4.2-1.9,5.9
			c-0.4,1.1-0.1,1.9-0.3,2.7c-0.1,0.4-0.5,0.9-0.6,1.2c-0.3,0.8,0,1.4-0.1,1.9c-0.2,0.8-0.5,1.8-0.7,2.6c-0.1,1-0.2,1.9-0.3,2.9
			c-2.1,7-2.9,15.6-4.9,22.1c-0.5,1.6-0.3,3.5-0.7,4.8c-0.8,2.6-1.3,5.8-2,8.1c-0.3,0.8,0.2,2.2,0,2.6c-0.2,0.2-0.4,0.4-0.6,0.6
			c-0.7,1.8-0.3,4.1-1.3,5.6c0,1.3-0.3,1.2-0.9,1.7c-0.1,0.1-0.1,0.6-0.1,1.2c0.6,0.1,0.5,0,0.7,0.4c0.5,0.5-0.5,0.7-0.3,1.4
			c0.4,1.3-0.8,8.9-2.3,9.8c0.1,1.3,0.8,2.2,0,3.3v0.9c-0.4-0.2-0.5-0.6-0.7-1h-0.9c0.2,0.4-0.1,0.1,0.3,0.3
			c-0.2,0.4-0.1,0.2-0.6,0.3c0,0.8,0.2,0.8,0.3,1.4c0.7-0.1,0.8-0.4,1.2-0.7v-0.1h0.1c-0.2,2.7-0.9,5.6-1.7,7.8
			c-0.2,0.5,0,1.4,0,1.6c-0.4,1.6-0.5,2.8-0.9,4.2c-0.1,0.4,0.2,0.5,0,0.9c-0.2,0.1-0.1,0.2-0.3,0h-1.2c-0.1,0.7,0.1,1,0,1.4
			c0.4,0.1,0.8,0,1,0.1c0.1,0.1,0,1-0.1,1.4c-0.5,1.6-0.1,5.5-1,6.7c0,1-0.2,0.9-0.6,1.4c-0.3-0.1-0.3,0-0.4-0.1h-0.3
			c0-0.7-0.4-2-0.3-2.3l0.4-0.4c0.1-0.8-0.6-0.3-0.1-0.9c0-0.3-0.1-0.4-0.1-0.6c-0.3,0-0.4,0-0.6,0.1c-0.1,0-0.3,0.1-0.4,0.1
			c0.1,0.5,0,0.4,0.3,0.6c-0.1,0.7-0.2,0.6-0.7,0.9c0,0.7-0.4,1.2-0.4,2.2h-1c-0.1-0.3,0-0.3-0.1-0.4c-0.2-0.4,0-0.3-0.6-0.4
			c0.1-0.4,0.3-0.7,0.1-1c-0.2-0.4-0.2-0.3-0.7-0.3c0.1-0.4,0.4-0.5,0.1-0.9c-0.2-0.4-0.4-0.4-0.7-0.7c-0.4,0-0.6,0.1-0.9,0.1
			c-0.1,0.4-0.2,0.9-0.3,1.3c0.4,0.3,0.5,0.3,0.9,0.3c0,0.8,0.1,0.8,0.6,1v0.3c-0.2-0.1-0.2-0.4-0.6-0.3c-0.4,0.1-1.5,0.8-2.5,0.4
			c-0.6-0.3-0.8-0.7-1.9-0.7v-0.4c0,0-0.1-0.1-0.1-0.1c-0.7,0-1.3,0.3-1.7,0.3c-0.6,0-1.3-0.5-1.7-0.6H385c-1.9-0.6-4.4-1.1-6.4-1.3
			c-1.2-0.1-2.2-0.8-3.8-0.9c0.6-0.5,1.3-0.7,1.6-1.4c0.1-0.1,0.1,0,0.1-0.3h-0.1c-0.4-0.2-1.2-0.4-1.6,0.1c-0.8-0.3-0.7-1-1.3-1.3
			v-0.1c-0.4,0.2-0.2,0-0.3,0.4c-0.2-0.1-0.3-0.2-0.4-0.3h-0.6c-0.1,0.3-0.1,0.5-0.3,0.7c0.1,0.5,0.1,0.5,0.3,0.9
			c0.8,0.1,1.4-0.2,1.9,0.1c0.2,0.1,0.1,0,0.3,0.1c-0.3,0.1-0.3,0.2-0.6,0h-0.3v0.6c-2.3,0-5.2-1-7.5-1.4c-0.2,0-0.4,0.1-0.6,0.1
			c-0.1,0-0.7-0.4-0.9-0.4c-0.4,0-1.2,0.2-1.9,0c-0.1,0-0.5-0.4-0.7-0.4c-1.2-0.1-2.4-0.2-3.6-0.3c-0.2-0.1-0.9-0.5-1.2-0.6
			c-0.6-0.1-1.6,0.1-2.5-0.1c-4.1-1.3-7.9-1-12.4-2.2c-1-0.3-2.3,0.2-3,0c-0.3-0.1-1.2-0.6-1.7-0.6c-1.5,0-4.8,0.2-6.8-0.3h-2.6
			c-0.4-0.1-1.6-0.4-2-0.4c-0.7-0.1-2.3,0.3-3,0.1c-6.1-1.3-13.5-1.3-19.1-2.5c-0.6,0-1.2,0.1-1.7,0.1c-0.8-0.3-2.5-0.4-3.5-0.6
			c-0.3,0-0.6,0.1-0.9,0.1c-4-0.7-8.3-0.6-12-1.4c-1.8-0.4-6.7,0-8-0.7h-6.8c-0.2-1.6,2.8-6.3,3.5-8.2c2.7-7.5,4.7-15,7.7-22.1
			c0.3-0.7,0.1-1.4,0.4-2.2c1.6-3.9,2.8-8.6,4.3-12.6v-1c0.2-0.6,0.8-1.5,1-2.2v-1c3.4-8.4,6.3-17.9,9.4-26.6
			c0.3-0.8,0.4-1.5,0.6-2.2v-1.2c0.9-2.3,1.6-5.3,2.5-7.8c0-0.6,0.1-1.2,0.1-1.7c1.3-4.2,2.5-9,3.8-13.3c0.5-1.7,0.5-3.3,1.2-4.6
			c0-0.7,0.1-1.4,0.1-2.2c0.7-2.2,2.2-6.2,2.2-8.8c0,0,0.1-0.1,0.1-0.1c1.4,0,2.3,0.2,3.5,0.4c0.5,0.1,0.5-0.2,0.7-0.3h4.3
			c1.8,0.5,4.3,0.5,6.1,0.9c0.8,0.2,1.8-0.2,2.3-0.1c1.1,0.2,2.8,0.3,4.2,0.6c0.7,0.1,1.4-0.2,1.9-0.1c2.4,0.3,5.3,0.9,7.2,1.4
			c0.3,0.1,0.8-0.1,0.9-0.1c0.3,0,0.7,0.2,0.9,0.3c0.7,0.2,1.3-0.4,2-0.1c0.1,0,0.8,0.4,1,0.4h2c0.4,0.1,1.1,0.5,1.4,0.6
			c1.2,0,2.4,0.1,3.6,0.1c2.6,0.6,7.1,0.5,9.7,1.2c0.8,0.2,1.1,0.1,1.4-0.3c1.6,0.2,1.3,1.9,1.9,3c1,1.9,2.2,3.6,3.2,5.6
			c0.6,1.2,0.4,3.1,1,4.5c1,0.4,1.1-0.1,2-0.3c0.2-1.4,1.2-1.7,1.9-2.6c1.1-1.6,3-3.8,4.5-4.9v-0.7c3.1-0.1,6.8,0.6,9.7,1.2
			c0.3,0,0.6-0.1,0.9-0.1c0.4,0.1,0.7,0.3,1,0.3c0.1,0,0.3-0.3,0.4-0.3c0.1,0,0.8,0.4,1,0.4c0.4,0,0.9-0.1,1.3-0.1
			c1.2,0.3,2,0.3,3,0.6c1.3,0.4,2.4,0,3.5,0.1c2.4,0.4,5,0.5,7.2,1.2c0.3,0,0.6-0.1,0.9-0.1c1.1,0.2,3,0.3,4.1,0.6h2.6
			c2.1,0.5,5.2,0,7.7,0.6c0.4,0.1,2.1,0.7,2.3,0.7h0.3V287c0,0,2.9,0.3,3.2,0.4h0.3C424.9,289.4,424.2,290.9,423.6,292.5z
			 M406.3,248.1c0.4,0.6,0.4,1.3,0.7,2c0.1,0.2,0.6,0.5,0.7,0.7c0,0.4,0.1,0.8,0.1,1.2l0.9,0.9c0.3,0.5,0.1,1,0.4,1.4
			c1.6,2.4,3.4,4.8,4.8,7.4c0.5,0.9,0.7,2.5,1.3,3.2c0.4,0.5,1.3,0.9,1.6,1.4c0.4,0.7,0.1,1.4,0.4,2.2c0.2,0.2,0.5,0.4,0.7,0.6
			c0.3,0.5,0.1,1.1,0.4,1.7c0.2,0.1,0.4,0.3,0.6,0.4c0,0.4,0.1,0.8,0.1,1.2c0.3,0.6,0.9,1.5,1.3,2c0.1,0.1-0.3,0.3-0.1,0.6
			c0,0,0.7,0.5,0.7,0.6c0.4,0.7,0.4,1.6,0.9,2.2c0.2,0.1,0.4,0.2,0.6,0.3c0.5,0.9,0.2,1.9,0.7,2.7c0.2,0.4,0.8,1,1,1.4
			c0.4,1-0.2,1.2,0.7,1.9c-1.1,1.9-8-0.1-10,0.1c-0.3,0-1.3,0.3-2,0c0-0.1-0.1-0.3-0.1-0.4h-0.4c-1.8,0.7-7.3,0-9.3-0.6
			c-1.1-0.3-2.2,0.2-3,0c-0.2,0-0.8-0.4-1-0.4c-0.5,0-1.1,0.1-1.6,0.1c-1.1-0.3-2.4-0.3-3.6-0.6h-3.3c-1.7-0.4-6.2-1.2-7.5-1
			c-1,0.2-1.6-0.7-2.3-0.3c-0.7,0.1-0.6,0.1-0.9,0.6c-0.6-0.1-1.3-0.4-1.7-0.7h-0.3v-0.1c0.7-0.5,1-1.5,1.3-1.7
			c0.2,0,0.5-0.1,0.7-0.1c0.5-0.5,1-1.3,1.6-1.7h0.4c0.7-0.5,1.1-1.4,1.9-1.9c0-0.4-0.1-0.6-0.1-0.9c0.2,0,0.5,0.1,0.7,0.1
			c1-1.1,2.8-3.2,2.7-4.8c1.6,0.4,3,0.7,4.3,1c0.7,0.2,2.4-0.1,3,0c0.7,0.2,3.4,0.7,4.3,0.4c0.5-0.2,1.1-0.7,1.6-1
			c0.2-0.6,0.8-2.7,0.1-3.3c-0.1-1.3-1.1-1.6-1.7-2.3c-2.4-0.1-4.3-1.1-6.7-1.2v-0.3c1.6-1.5,3-2.9,4.3-4.6c0.4-0.5,1.1-0.8,1.6-1.3
			c1.6-1.6,3-3.1,4.2-5.1C403.1,250.7,405.2,249.9,406.3,248.1z M397.4,245.9c1.8,0.7,4.9,0.2,6.2,1h0.6v0.1
			c-0.3,0.2-0.3,0.6-0.6,0.9c-0.3,0.3-0.8,0.3-1.2,0.6c-0.9,0.7-1.6,2.2-2.3,3.2c-0.2,0.1-0.5,0.3-0.7,0.4c-0.5,0.6-0.6,1.4-1.2,2
			c-0.3,0.1-0.6,0.2-0.9,0.3l-1.3,1.7c-0.3,0.2-0.5,0-0.7,0.3c-0.3,0.4-0.9,1.7-1.2,2c-0.5,0.6-1.3,0.8-1.9,1.3
			c-0.7,0.6-1.1,1.5-1.6,2.3c-0.3,0.3-0.7,0.6-1,0.9c-0.6-0.1-2.1-0.2-2.7-0.4c-0.6-0.2-1.3-0.8-1.9-1c-0.9-0.1-1.8-0.2-2.7-0.3
			c-0.3-0.1-0.7-0.5-1-0.6c-0.8-0.3-1.4,0-2-0.1c-0.4-0.1-1.3-0.5-1.9-0.7c-1.9-0.6-4.6-0.2-5.6-1.2c-0.3-0.2,1.5-2.9,2.2-3.8
			c1.3-1.7,2.6-3.4,4.1-4.9c0-0.2,0.1-0.4,0.1-0.6c0.5-0.7,1.5-1.5,1.9-2.3c0.3-0.5,0.1-0.9,0.4-1.3c0.2-0.1,0.5-0.3,0.7-0.4
			c0.6-0.6,1.1-1.3,1.6-1.9C387.4,244,393.6,244.5,397.4,245.9z M431.7,213.4c-0.2-0.7-0.5-1.7-0.7-2.3c-0.3-1,0-2.3,0.1-2.9
			c0-0.3-0.1-0.7-0.1-1c0-0.2,0.4-0.8,0.4-1c0.3-0.8,0.1-1.7,0.1-2.2c0.1-0.5,0.7-1.5,0.9-2v-1.3c0.1-0.4,0.4-1.4,0.6-1.9
			c0.3-0.6,1.1-1.1,1.3-1.7c0.2-0.6,0-1,0.3-1.6c0.4-1,2.9-3.1,3.9-3.2c0.5-0.5,1.7-2,2.3-2.3c0.5-0.3,1.1,0,1.6-0.3
			c0.5-0.3,1.2-0.8,1.9-1c1.1-0.4,1.9,0,2.7-0.6c1.6,0.7,5.4,1.4,6.2,2.6c0.5,0.7,0.5,1.4,0.9,2.3c0.2,0.5,0.8,0.9,1,1.3
			c0.4,0.8,0,3.4,0,3.6c-0.4,1.7,0.2,3-0.6,4.2c-1.6,2.4-4.2,4.1-6.7,5.6c-0.7,0.4-1.5,0.5-2.2,1c-0.1,0.2-0.2,0.4-0.3,0.6
			c-0.8,0.5-1.8,0.3-2.7,0.7c-0.4,0.2-0.8,0.7-1.2,0.9c-0.3-0.2-0.6-0.2-1,0c-2.5,1-5.5,2.3-8.4,2.7
			C432,213.5,431.9,213.5,431.7,213.4z M559.7,235.5c-0.3,0.6-0.3,1.3-0.6,1.9c-0.6,1.2-1.6,2.5-2.3,3.6c-0.5,0.8-0.4,1.5-0.9,2.5
			c-0.3,0.6-1.1,1.3-1.4,1.9c-0.3,0.5-0.2,0.9-0.4,1.4c-0.3,0.6-1,1.2-1.3,1.7c-0.1,0.5-0.2,1.1-0.3,1.6c-0.1,0.2-0.6,0.2-0.7,0.4
			c-0.3,0.4-0.2,0.8-0.4,1.3c-0.5,1-1.4,2-2,2.9l-0.4,1.3c-0.3,0.3-0.7,0.6-1,0.9l-0.4,1.3c-0.1,0.2-0.4,0.1-0.6,0.3
			c-0.5,0.6-0.6,1.4-1,2c-0.3,0.2-0.6,0.5-0.9,0.7c-0.2,0.5-0.4,1.1-0.6,1.6c-0.4,0.6-0.9,1.2-1.3,1.7c-1.8-0.1-3.5-0.9-5.1-1.4
			c-0.6,0-1.2-0.1-1.7-0.1c-2-0.6-4.2-1.5-6.1-2.3c-1.5-0.7-4.2-0.7-6.1-1.4l-0.6-0.6c-0.6-0.1-1.2-0.2-1.7-0.3
			c-2.2-1-4.9-1.7-7.1-2.5h-0.9c-0.8-0.3-2-0.8-2.9-1h-1c-1-0.3-2-1.1-3-1.4c-3.5-1-7.3-2.1-10-3.9c-1.2-0.8-2-0.2-3-1.6
			c-0.2-0.2,1.4-4,1.7-4.6c0.6-1.2,1.2-2.6,1.6-3.9c0.4-1.1,0.2-1.8,0.6-2.7c0.2-0.5,0.9-0.8,1.2-1.3c0.6-1.2,0.9-2.4,1.6-3.5
			c0.4-0.6,1.1-1.3,1.3-2.2c1.1,0.4,3.1,0.5,3.6,1.4c0.4,0.9-0.9,2.4-1.3,3c-0.5,0.8-0.7,1.6-1.2,2.5c-0.2,0.2-0.4,0.4-0.6,0.6
			c-0.3,0.7-0.1,1.2-0.4,1.9c-0.3,0.6-1.1,1-1.3,1.7c-0.3,1,0.4,2.2,0.7,2.7c1.1,0.4,1.9,0.7,3.2,0.6c2.1-2.2,3.1-4.6,4.6-7.5
			c0.9-1.7,2.4-3.2,3.3-4.8c0.6-1.1,1.3-2,1.7-3c0.3-0.7,0.2-1.4,0.6-2c0.3-0.5,1.1-1.1,1.4-1.6c0-0.3,0.1-0.7,0.1-1
			c0.4-0.7,1.3-1.3,1.7-2c0.7-1.2,1.3-2.8,2.3-3.6c0-1.4-0.7-2-1.2-2.9c-0.3-0.1-0.7-0.1-0.9-0.3c-0.8,0.1-3.5,1.4-3.9,1.9
			c-0.6,0.7-0.7,1.7-1.2,2.5c-0.6,0.9-1.2,2.1-1.9,3c-0.4,0.5-1.1,1-1.4,1.6c-0.1,0.4-0.2,0.8-0.3,1.2c-0.3,0.4-0.9,0.6-1.2,1
			c-0.5,0.8-0.7,1.8-1.3,2.5c-0.1,0.2,0,0.1-0.1,0.3c-0.7-1.4-2.5-1-3.8-1.7c-0.4-0.4,1.9-3.6,2.3-4.2c0.8-1.2,1.4-3,2.3-4.2
			c0.1,0,0.3-0.1,0.4-0.1c0.2-0.3,0.6-0.9,0.7-1.2c0.9-1.7,1.3-3.4,2.5-4.9c0.4-0.5,0.7-0.1,1.3-0.4c0.2-0.1,0.1-0.5,0.3-0.7
			c0.1-0.2,0.6-0.2,0.7-0.3c0.4-0.3,0.2-1.2,0.6-1.4h1c0.3-0.1,0.3-0.5,0.6-0.7c0.4-0.3,1-0.4,1.4-0.6c0.3,0.6,0.5,0.5,1.2,0.6v0.4
			c2.7-0.5,8.7,2.4,11.3,3.3c1.8,0.7,3.4,0.8,5.1,1.6c0.2,0.1,0.5,0.5,0.7,0.6c0.4,0,0.8,0.1,1.2,0.1c0.2,0.2,0.5,0.5,0.7,0.7
			c0.3,0.2,0.7,0,1.2,0.1c0.5,0.2,1.6,1.2,2.2,1.4c0.7,0.1,1.4,0.2,2.2,0.3c0.1,0.2,0.3,0.4,0.4,0.6c1.2,0.8,2.7,1,4.1,1.7
			c0.7,0.4,1.5,1.2,2.3,1.6c0.5,0.2,0.9,0,1.4,0.3c2.5,1.2,5.2,2.7,7.5,4.2c0.9,0.5,2,0.5,2.9,1c0.3,0.2,0.3,0.8,0.6,1
			C562,231.9,561.1,233.2,559.7,235.5z M514.9,220c0,0,2-1.6,2-1.6c0.5-0.2,0.6,0.1,0.9-0.3h0.3c-0.5,1.5-1.2,1.4-1.9,2.3
			c-0.4,0.6-0.6,1.3-1,1.9c-0.2,0.1-0.4,0.3-0.6,0.4v0.7c-0.5,1.3-1.7,2.7-2.5,3.9c-0.3,0.5-0.1,1-0.4,1.6c-0.6,1.3-2.3,2.4-2.6,4.1
			c-1.2,0.3-1.3,1.8-1.7,2.9c-0.9,2.1-2.7,3.7-3.6,5.6h-0.3l-0.1-0.1c0.1-1.2,0.8-1.7,1.2-2.6c0.1-0.5,0.2-1,0.3-1.4
			c0.5-1.3,1.6-2.6,2.3-3.8l0.4-1.3c0.5-0.8,1.4-1.6,1.9-2.5c0.5-0.9,0.6-1.8,1.2-2.7c0.4-0.4,0.8-0.8,1.2-1.2
			c1.1-1.6,1.7-3.4,2.7-5.1c0.1-0.1,0.5-0.2,0.6-0.3C515,220.4,514.9,220.2,514.9,220z M347.7,242.2v-0.4c-0.2-0.1-0.1,0-0.3-0.1
			h-0.3c0.1,0.3,0,0.3,0.1,0.4C347.4,242.1,347.4,242.1,347.7,242.2z M325.1,312.8c-0.4,0.9,0.2,0.5,0,1c-0.1,0.3-0.6,0.1-0.3,0.4
			v0.6c0.4,0.1,0.5,0.2,0.9,0c0.7-0.3,0.6-0.9,1-1.4v-0.3C325.5,313.3,326.2,313,325.1,312.8z M400.8,328.5v-0.4
			c-0.4-0.2-0.6-0.4-1.2-0.6c-0.1,0.1-0.2,0.2-0.3,0.3c-0.2,0.2-0.3,0.5-0.4,0.7v0.3c0.3,0.1,0.9,0.1,1,0.1
			C400.5,328.8,400.3,328.7,400.8,328.5z M352.6,339.5v-0.7c-0.5-0.1-0.8-0.2-1.2-0.3c-0.1,0.3-0.2,0.2-0.3,0.6H351
			c0.2,0.4,0.3,0.3,0.4,0.7C352.1,339.8,352.2,339.7,352.6,339.5z M393.8,341.1c-0.2-0.7-0.7-1.3-1.3-1.6c-0.3,0.3-0.5,0.3-0.7,0.7
			c-0.1,0.1-0.1,0-0.1,0.3c0.4,0.3,0.8,0.7,1.2,1C393.3,341.5,393.4,341.3,393.8,341.1z M419.3,342c0.4-0.4,0.8-0.8,1.2-1.2
			c0.1-0.1,0.1,0,0.1-0.3c-0.5-0.3-0.6-0.6-1.3-0.7c-0.3,0.4-0.5,0.8-1.2,0.9c0.1,0.4,0.2,0.5,0.3,1
			C418.9,341.8,418.9,341.9,419.3,342z M408.3,340.4v-0.1c-0.4,0.1-0.3,0.2-0.7,0.3c0,0.7,0,0.6,0,1.2c0.6,0,0.9,0,1.2,0.3h0.1
			c0.1-0.2,0-0.1,0.1-0.3C408.9,341,408.7,340.7,408.3,340.4z M373.6,343h0.3v-0.7c-0.8-0.2-0.8-0.3-1.6-0.3c0,0.1-0.1,0.3-0.1,0.4
			c-0.1,0.3,0,0.3,0,0.7C372.6,343.2,373.1,343.3,373.6,343z M404.4,342.6c-0.2,0.7-0.3,1.4-0.3,2.3c1.2,0,1.1-0.5,1.7-1
			c-0.1-0.8-0.3-1.1-0.6-1.6C404.8,342.3,404.7,342.4,404.4,342.6z M391.9,346.5v-0.3c-0.4-0.2-0.4-0.3-0.7-0.1
			c-0.3-0.1-0.3-0.1-0.3-0.1c-0.2-0.4,0-0.2-0.4-0.3c0,0.3,0,0.4,0.1,0.6c-0.2,0.1-0.2,0.1-0.6,0.1c0.1,0.2,0.3,0.5,0.4,0.7
			C391.5,347,391.4,346.8,391.9,346.5z M370.7,348.6c0.4-0.5,0.1-0.9-0.1-1.4c-0.3,0-0.6-0.1-0.9-0.1c-0.2,0.5-0.3,0.6-0.9,0.9
			c0.1,0.7,0.4,0.9,1,1C370.1,349,370.4,348.9,370.7,348.6z M415.4,348.8c0.1-0.2,0.1-0.4-0.1-0.7c-0.2-0.1-0.2,0-0.4,0.1h-0.6
			c0.2-0.4-0.1-0.1,0.3-0.3c-0.1-0.5,0.1-0.2-0.3-0.4c-0.2,0.3-0.4,0.6-0.6,0.9c0.1,0.3,0,0.3,0.1,0.4
			C414.1,349.4,414.9,349.2,415.4,348.8z M419.6,350.7c-0.1-0.7-0.3-0.7-0.6-1.2c-0.8,0.1-1.1,0.6-1.2,1.4c0.5,0,1.1-0.1,1.6-0.1
			C419.5,350.8,419.5,350.7,419.6,350.7z M384.7,352.4h0.6c-0.2-0.7-0.5-1.2-0.9-1.7H384c-0.1,0.2-0.3,0.7-0.4,0.9
			c0.1,0.5,0.1,0.4,0.3,0.7C384.2,352.3,384.5,352.3,384.7,352.4z M406.7,351.4c-0.2,0.2-0.4,0.3-0.6,0.4c0,0-0.1,0.1-0.1,0.1h0.1
			c0,0.4,0.1,0.5,0.1,0.7c0.8,0,1.2-0.1,1.7-0.3c-0.1-0.6-0.2-0.6-0.4-1H406.7z M399.5,353.7c-0.1-0.6-0.3-0.8-0.6-1.2h-0.6
			c-0.5,1.1,0.1,0.6,0.1,1.6C399,354,399,353.9,399.5,353.7z M414.2,355c0.9,0.1,1.3-0.2,2-0.6c-0.1-0.5-0.3-0.7-0.4-1
			c-1,0.1-1.1,0.5-1.7,0.9C414.1,354.5,414.2,354.8,414.2,355z M333.5,354.7v0.6h0.4v0.6c0.5,0.1,0.5,0.1,0.9,0.3
			c0.3-0.3,0.7-0.5,1.2-0.7c0-0.4,0.1-0.8,0.1-1.2c-0.4,0-0.7,0-0.9-0.1C334.2,354.1,334.1,354.3,333.5,354.7z M412.5,355.7
			c0.3-0.1,0.3,0,0.4-0.1h0.3c-0.1-0.7-0.3-0.6-0.4-1.2h-0.6c0,0.4,0,0.7,0.1,0.9C412.4,355.4,412.4,355.6,412.5,355.7z
			 M385.3,355.3c0.5-0.1,0.5-0.1,0.9-0.3c-0.1-0.5,0.1-0.2-0.3-0.4c-0.2,0.2-0.4,0.3-0.6,0.4V355.3z M385.4,356.3
			c0.3,0,0.6,0.1,0.9,0.1c0.1-0.5,0-0.4,0.4-0.6v-0.3c-0.4,0-0.9,0.1-1.3,0.1V356.3z M379.2,357c0-0.6,0-0.4,0-1
			c-0.5-0.1-1-0.2-1.4-0.3c-0.1,0.4-0.2,0.9-0.4,1.2c0.1,0.6,0.2,0.6,0.3,1C378.7,357.8,378.5,357.3,379.2,357z M305.4,356.3
			c-0.1,0.3-0.2,0.4-0.4,0.6c0,0.6,0,0.9,0.3,1.2v0.1c0.6-0.2,0.9-0.6,1.4-0.9C306.6,356.6,306,356.5,305.4,356.3z M414.8,356.7
			c-0.1,0.1-0.1,0.6-0.1,1c0.5,0,0.5,0,0.7,0.3c0.7-0.1,0.7-0.5,1.2-0.9c-0.1-0.3,0-0.3-0.1-0.4c-0.2-0.2-0.7-0.3-1-0.4
			C415.2,356.5,415,356.6,414.8,356.7z M396,358.6c0.4,0.2,0.7-0.1,1-0.3c0-0.8-0.2-0.7-0.6-1.2h-0.6c-0.2,0.2-0.4,0.5-0.6,0.7
			C395.4,358.5,395.4,358.5,396,358.6z M416.1,359.5h0.7c-0.1,0.3,0,0.3-0.1,0.4v0.3c2.3-0.4,0.6-1.2,1.4-2.2v-0.3
			c-0.4,0.1-0.4,0.1-0.6,0.4c-0.5-0.1-0.6-0.2-0.9-0.4c-0.5,0.1-0.4,0.2-0.7,0.4C416,358.6,416,359.1,416.1,359.5z M373.6,358.6
			c-0.2,0.5,0.2,1,0.6,1.3c0.8,0,1-0.1,1.3-0.6c0,0,0.1-0.1,0.1-0.1c-0.7-0.5-0.8-0.8-1.9-1C373.7,358.3,373.6,358.5,373.6,358.6z
			 M391.7,359.9c-0.1-1-0.4-0.8-0.7-1.4c-0.7,0.1-0.6,0.4-1,0.7c0,0.4,0.1,0.5,0.1,0.7C390.7,360,391,360,391.7,359.9z M381.1,358.9
			h-0.3c-0.2,0.3-0.5,0.4-0.9,0.1h-0.1v0.6c0.4-0.1,0.6-0.1,1,0.1h0.3V358.9z M402.9,361.5c0.1-0.5-0.1-0.9,0.1-1.3
			c-0.1-0.7-0.5-0.6-1.2-0.7c-0.1,0.1-0.3,0.2-0.4,0.3c0.1,0.5,0.1,0.5,0.4,0.7c-0.1,0.3-0.3,0.5-0.6,0.7v0.3
			C402.1,361.6,402.3,361.6,402.9,361.5z M420.4,362.1c0-1-1.2-2.4-2.3-1.6c-0.5,0.3-0.1,0.4-0.4,0.7c0,0.4,0.1,0.5,0.1,0.7
			C419,362.2,419.3,362.1,420.4,362.1z M357.1,362.1c-0.1,0.1,0,0.1-0.3,0.1v0.3h0.6C357.2,362.2,357.3,362.3,357.1,362.1z
			 M357.4,362.5c-0.3,0.4-0.6,0.4-1.2,0.6c0.2,0.5,0.3,0.4,0.6,0.7c0.8,0,1-0.1,1.3-0.6c0,0,0.1-0.1,0.1-0.1h-0.1
			C357.9,362.7,357.9,362.6,357.4,362.5z M420.1,364.4c0.1,0,0.3-0.1,0.4-0.1c-0.1-0.5-0.2-1.1-0.3-1.6c-1,0-1,0.3-1.6,0.7
			c0.2,0.5,0.5,0.7,0.7,1.2C419.8,364.5,420,364.5,420.1,364.4z M351.6,364.1c0.1,0.1,0.1,0,0.1,0.3c0.2,0.1,0.1,0,0.3,0.1
			c0.8,0,1.1-0.2,1.3-0.7c0.1-0.1,0.1,0,0.1-0.3c-0.5-0.2-1-0.3-1.4-0.4C351.9,363.4,351.7,363.8,351.6,364.1z M386.3,363.5
			c-0.7,0-0.8-0.2-1.3-0.4c-0.2,0.2-0.5,0.4-0.9,0.6c0.1,0.5,0.2,0.6,0.3,1c0.2,0.1,0.1,0,0.3,0.1c0.5,0,1,0,1.3-0.1
			C386.2,364.3,386.3,364.1,386.3,363.5z M398.2,364h0.1v-0.3h-1.2c-0.1,0.3-0.2,0.2-0.3,0.6C397.4,364.2,397.7,364.2,398.2,364z
			 M413.5,364.7h0.3c-0.3,0.4-0.5,0.3-0.6,0.9c0.6,0,1.1-0.1,1.4-0.3h0.1c-0.2-0.4-0.2-0.3-0.7-0.3c0.2-0.4,0.3-0.5,0.3-1.2
			c-0.4,0-0.8,0.1-1,0.3c-0.1,0-0.3,0.1-0.4,0.1C413.1,364.9,413.1,364.8,413.5,364.7z M390.1,367.2c0.2,0.1,1.1,0,1.3-0.1
			c0.3-0.1,0.2-0.1,0.4-0.3c-0.1-0.8-0.6-1-1.2-1.3c-0.3,0.3-0.9,0.8-1.3,1C389.4,367,389.5,367.1,390.1,367.2z M401.5,367.7h-0.7
			c-0.1,0.2-0.3,0.7-0.4,0.9c0.1,0.6,0.3,0.6,0.7,0.9c0,0,0.1,0.1,0.1,0.1c0.1-0.2,0.2-0.3,0.3-0.4c0,0,0.1-0.1,0.1-0.1v0.1h0.3
			c0-0.5-0.1-0.6,0-0.9C401.8,368,401.7,368,401.5,367.7z M414.5,368.6c-0.2-0.1-0.1-0.1-0.4-0.1c-0.2,0.2-0.4,0.4-0.6,0.6
			c0,0-0.1,0.1-0.1,0.1c0.3,0.3,0.4,0.4,0.4,0.9c0.2,0.1,0.1,0,0.3,0.1c0.4,0,0.6-0.1,0.9-0.1C414.9,369.3,414.9,369.1,414.5,368.6z
			 M415.5,372.7c0.8-0.3,1-0.5,2-0.4c0.1-0.4,0.2-0.6,0.1-0.7c0-0.8-0.1-1-0.6-1.3c0.1-0.5,0-0.4,0.3-0.6c-0.2-0.6-0.7-0.8-1.4-0.9
			c-0.2,0.2-0.4,0.3-0.6,0.4c0.1,0.3,0,0.3,0.1,0.4c-0.1,0.7-0.4,0.9-1,1v0.9C414.8,371.8,415.3,372.3,415.5,372.7z M399.3,370.3
			c0-0.4-0.1-0.8-0.1-1.2c0,0-0.1-0.1-0.1-0.1c-0.3,0-0.7-0.1-1-0.1c-0.3,0.3-0.6,0.4-1,0.6v0.3c0.4,0.3,0.8,0.7,1.2,1
			C398.8,370.7,398.9,370.6,399.3,370.3z M404.1,369c-0.1-0.1-0.3-0.1-0.9-0.1c-0.2,0.4-0.6,0.6-0.3,1.2c0.3,0.2,0.8,0.4,1.2,0.1
			c0.1,0,0.3-0.1,0.4-0.1C404.5,369.4,404.5,369.3,404.1,369z M367.6,369.2v0.4c0,0-0.1,0.1-0.1,0.1h-0.6c0.1,0.7,0.3,0.6,0.6,1
			c1.7,0.1,1.8-0.7,1.2-1.7C368.3,369.1,368,369.1,367.6,369.2z M413.2,370.9c-0.1-0.5-0.2-1-0.4-1.3l-0.4-0.4
			c-0.6,0.1-1,0.6-1.2,1.2c-0.1,0.1-0.1,0-0.1,0.3c0.2,0.2,0.4,0.5,0.6,0.7C412.3,371.2,412.5,371,413.2,370.9z M412.8,370.2
			c-0.2-0.1-0.1,0-0.3-0.1C412.7,370.1,412.6,370.1,412.8,370.2z M419.9,369.5h-0.4c0.2,0.6,0.4,0.8,0.6,1.3h0.4
			c0,0.3,0.1,0.7,0.1,1c0.4,0.1,0.5,0.1,0.9-0.1h0.3c-0.1-0.7-0.1-0.5-0.4-0.9H421c0.1-0.1,0.5-0.2,0.6-0.3h0.1v-0.3
			C420.7,370,420.5,370.2,419.9,369.5z M372.4,371.9c1.1-0.1,1-0.8,1.7-1.2v-0.4c-0.7,0-1.4-0.1-1.7-0.4c-0.8,0.1-0.7,0.4-1.2,0.7
			c0,0.8,0.3,0.8,0.6,1.3C372.3,371.9,372.2,371.8,372.4,371.9z M382.4,371.6c0.5-0.1,0.4-0.2,0.7-0.4c0-0.8-0.4-1.1-1-1.3
			c-0.2,0.3-0.4,0.5-0.9,0.6c0,0.3,0.1,0.6,0.1,0.9C381.8,371.5,382.2,371.7,382.4,371.6z M403.1,372.7c-0.4-0.1-0.7-0.1-1.2-0.1
			c-0.2,0.3-0.7,0.8-0.6,1.3c0.1,0.4,0.5,0.2,0.3,0.7c0.1,0.5,0.1,0.4,0.3,0.7c0.2,0.1,0.1,0,0.3,0.1c0.5,0,1,0,1.3-0.1
			c-0.1-0.7-0.2-0.6-0.4-1C403.1,373.8,403.5,373.6,403.1,372.7z M419.6,373.4c0.1,0.5,0.2,1,0.3,1.4c0.1,0,0.3,0.1,0.4,0.1
			c0.2-0.2,0.5-0.4,0.7-0.6l-0.4-1.3C420,373.2,420.1,373.3,419.6,373.4z M360.7,373.7v-0.4c-0.5,0.1-0.4,0.1-0.7,0.3v0.3
			c0.3-0.1,0.3,0,0.4-0.1H360.7z M390.1,373.8c0.4,0,0.5,0,0.7-0.1h0.3v-0.4h-1V373.8z M320.2,373.5c-0.3,0-0.6,0.1-0.9,0.1
			c0.1,0.4,0.2,0.5,0.4,0.7c0.3,0.2,1,0.4,1.3,0.1c0.1,0,0.3-0.1,0.4-0.1v-0.9C320.6,373.6,320.7,374.1,320.2,373.5z M361.6,373.8
			c-0.7,0-1,0.2-1.6,0.3v0.4c0.6,0,1.2,0,1.6-0.1V373.8z M385,376c0-0.2,0.1-0.5,0.1-0.7c-0.5-0.3-0.7-0.9-1.2-1.2
			c-0.3-0.1-0.4,0-0.9,0.1c0,0.5,0,0.8,0,0.9C383.2,376.2,384.1,376.1,385,376z M390.9,374.1c-0.2,0.3-0.1,0.2-0.6,0.3v0.3
			c0.5,0,0.6-0.1,0.9-0.3h0.1C391.1,374,391.4,374.2,390.9,374.1z M346.2,374.8c-0.2-0.1-0.1-0.1-0.4-0.1c0.1,0.3,0,0.3,0.1,0.4
			c-0.1,0.3,0,0.3-0.1,0.4c-0.1,0.1-0.6,0.2-0.9,0.4c-0.1,0-0.3,0.1-0.4,0.1c0.4,0.7,1.3,0.4,2,0.3c0-0.5-0.1-1.1-0.1-1.6H346.2z
			 M414.9,376.6c0.1-0.3,0-0.3-0.3-0.6c0.2-0.3,0.3-0.2,0.4-0.6c0.1-0.1,0.1,0,0.1-0.3c-1.1-0.5-2.9,0.3-3.6-0.4
			c-1.6,0.1-1.2,1.8-0.9,3h-0.4c0.1,0.7,0,0.8,0,1.6c0.7-0.2,1.6-0.7,2.2-1c-0.1-0.4-0.7-1.7-0.9-1.9v-0.3c0.6,0.2,0.7,0.8,1.2,1.2
			c0.1,0.1,1.4,0,1.6-0.1C414.8,377,414.8,377,414.9,376.6z M400.8,375.5c-0.6-0.5-0.5-0.6-1.6-0.6c-0.2,0.2-0.6,0.2-0.7,0.4
			c-0.4,0.5,0.3,0.3-0.4,0.7c0,0.1,0.1,0.3,0.1,0.4c0.9,0,1.8,0.1,2.2-0.4c0.2,0.2,0.3,0.5,0.4,0.7c0.4,0,0.5,0,0.7,0.1
			c0.5-0.1,0.5-0.1,0.7-0.4h0.1c-0.2-0.7-0.5-0.9-0.7-1.4C401.1,375.2,401,375.2,400.8,375.5z M401.1,375.8c0,0,0.1-0.1,0.1-0.1
			c0.1,0.1,0.1,0,0.1,0.3C401.3,376,400.8,375.9,401.1,375.8z M393.7,375.7c0.1,0.7,0.2,0.8,0.7,1c0.2,0.1,1.2-0.1,1.4-0.4
			c0.1-0.1,0.1,0,0.1-0.3c-0.3-0.2-0.5-0.5-0.6-0.9h-0.9c-0.2,0.3-0.2,0.2-0.7,0.3C393.7,375.6,393.8,375.5,393.7,375.7z
			 M418.8,376.1l0.4-0.4v-0.3c-0.2-0.1-0.1,0-0.3-0.1c-0.3,0-0.4,0.1-0.6,0.1c-0.1,0.5,0,0.5,0,1.2H418c0,0-0.1,0.1-0.1,0.1
			c0.1,0.1,0.2,0.3,0.3,0.4c0.5-0.1,0.9-0.1,1.2-0.4h0.1C419.3,376.3,419.3,376.3,418.8,376.1z M373.3,377.1c0-0.6-0.1-0.9-0.4-1.3
			c-0.2-0.1-0.4,0.1-0.7,0.3c0,0.3,0.1,0.7,0.1,1H373.3z M390.6,378.3h0.1c0.4,0.1,0.4-0.2,1.2-0.3v-0.4c0,0-0.1-0.1-0.1-0.1
			c-0.7,0-0.6,0.1-1,0.4C390.7,378,390.7,378.1,390.6,378.3z M419.6,378.6c0.1-0.1-0.1-0.6-0.1-1.2h-1c-0.3,0.3-0.5,0.3-0.6,0.9
			c-0.4-0.1-0.4-0.1-0.6-0.4c-0.5,0.1-0.4,0.2-0.7,0.4c0,0.3,0,0.4,0.1,0.6c0.2,0.1,1.9,0.3,1.9,0.3
			C419.3,379.1,419.4,379.1,419.6,378.6z M386.2,378.3h-0.7v0.4c-0.2,0.1-0.4,0.2-0.6,0.3c-0.4-0.2-0.2,0-0.3-0.4
			c-0.2,0.1-0.2,0.1-0.6,0.1c-0.1,0.2-0.2,0.3-0.3,0.4c0,0.3,0,0.4,0.1,0.6v0.3c1.2,0.3,1.1-0.2,2.2,0l0.4-0.4c0-0.5-0.1-0.5,0-0.9
			C386.2,378.5,386.3,378.6,386.2,378.3z M399.9,379.7c-0.1-0.7-0.3-0.9-0.9-1c-0.2-0.1-0.2-0.1-0.6-0.1c0.1,0.7,0.2,0.7,0.1,1.4
			C399.3,380,399.5,379.9,399.9,379.7z M418.8,382.5c0-0.4-0.1-0.8-0.3-1c-0.2-0.4-0.3-0.4-0.9-0.4c0.1-0.5,0.4-0.7,0.1-1.2v-0.3
			c-0.6,0.1-1.1,0.2-1.6,0v0.1c-0.3,0.4,0,1.6-0.1,2.2c0.1,0.1,0.3,0.2,0.4,0.3C417,382.5,418,382.6,418.8,382.5z M417.8,381.5
			c0.1,0,0.2,0.1,0.3,0.1v0.1h-0.3V381.5z M363.3,382.2h0.1c-0.2-0.4-0.5-0.9-0.7-1.3h-0.6c-0.2,0.3-0.4,0.5-0.6,0.7
			C361.7,382.5,362.7,382.8,363.3,382.2z M396.6,381c-0.5,0-1,0.1-1.4,0.1c0,0-0.1,0.1-0.1,0.1v1.2h0.4c-0.1,0.1-0.2,0.2-0.3,0.3
			c0,0.1,0.1,0.3,0.1,0.4c0.4,0,0.9-0.1,1.3-0.1v-0.4c-0.1,0-0.3,0.1-0.4,0.1c0-0.5,0.1-1.2,0.4-1.4V381z M378.9,382.1h-0.3
			c0-0.5,0-0.2,0-0.6h-0.6c-0.1,0.1-0.3,0.2-0.4,0.3c-0.1,1.5,1.2,1.6,2,0.9h0.1c0.1-0.3-0.1-0.2-0.1-0.3c0-0.4-0.1-0.6-0.1-0.9
			C378.7,381.5,378.9,381.6,378.9,382.1z M398.6,383.4h0.4c-0.2,0.5-0.4,1.3,0,1.9c0.1,0.5-0.1,0.2,0.3,0.4c0.3,0.2,1,0,1.2-0.4
			c0.1-0.2,0.1-0.5,0.1-0.9c-0.2-0.1-0.4-0.3-0.6-0.4c-0.1-0.1,0-0.3-0.1-0.6c0.1-1,0-1.4-0.7-1.6c-0.1-0.1,0-0.1-0.3-0.1
			c-0.1,0.1-0.3,0.2-0.4,0.3C398.5,382.4,398.5,382.9,398.6,383.4z M399.5,383.4v0.4c-0.1-0.2-0.1-0.1-0.1-0.4H399.5z M414.5,383.9
			c0,0.1,0.1,0.3,0.1,0.4c0.4,0.1,0.8,0.2,1.2,0.3c0.2-0.2,0.4-0.3,0.6-0.4c-0.1-0.3,0-0.3-0.1-0.4c0-0.1-0.1-0.3-0.1-0.4
			c-0.5,0.1-0.4-0.1-0.6,0.3c-0.2-0.3-0.1-0.4-0.4-0.6C414.9,383.3,414.7,383.7,414.5,383.9z M393.8,384.5v-0.4
			c-0.2-0.1-0.4-0.2-0.6-0.3c-0.1-0.2-0.1-0.1-0.1-0.4c-0.8,0-0.8,0.2-1.3,0.4v0.9c0.4,0.1,0.6,0.3,1,0.3
			C393.1,384.9,393.4,384.6,393.8,384.5z M310.5,383.9c-0.5,0.1-0.5,0.1-0.9,0.3c0,0.4,0.1,0.8,0.1,1.2h0.7c0.3-0.2,0.6-0.5,0.9-0.7
			c0-0.4-0.1-0.5-0.1-0.7C310.8,383.9,310.8,383.8,310.5,383.9z M373.7,383.8c-0.2,0.3-0.3,0.4-0.7,0.6c0.1,1,0.6,1,1,1.6h0.3
			c0.2-0.4,0.1-0.5,0.6-0.7c-0.1-0.7-0.5-0.8-0.7-1.4H373.7z M385.6,384.7c0-0.3,0-0.4-0.1-0.6c-0.4-0.3-0.8-0.3-1.4-0.3
			c0,0.5-0.1,0.6-0.3,0.9c0,0.1,0.1,0.3,0.1,0.4c0.4,0,0.7,0,0.9-0.1C385.2,384.9,385.2,384.8,385.6,384.7z M419,384.4
			c0-0.1-0.1-0.3-0.1-0.4c-0.7,0.1-0.9,0.2-1.7,0.3c0,0.3,0,0.4,0.1,0.6c0.1,0.8,0.4,0.6,0.7,1c0.5-0.1,1-0.3,1.2-0.7
			C419.3,384.8,419.2,384.6,419,384.4z M412.5,385.5c0.2,0.3,0.3,0.2,0.6,0.4c0.6-0.2,0.7-0.6,0.9-1.2c-0.2-0.1-0.3-0.1-0.7-0.1
			C413,384.9,412.7,385.2,412.5,385.5z M409.2,386.4c0.1-0.3,0.2-0.5,0.3-0.7c-0.2-0.2-0.5-0.5-0.7-0.7H408c0.1,0.7-0.4,1.3,0.4,1.7
			c-0.1,0.1-0.3,0.2-0.4,0.3c0.1,0.5,0.1,0.5,0.3,0.9c1,0,1.3-0.2,1.9-0.4C410,386.6,409.7,386.6,409.2,386.4z M350.7,386.1
			c-0.3,0.6-0.2,0.8-0.1,1.6c0.9,0,1.4,0.1,1.6-0.6c0.2-0.3,0.3-0.8,0.3-1.2c-0.6-0.1-0.6-0.2-1-0.3
			C351.2,385.9,351,386,350.7,386.1z M401.9,387c0.2-0.3-0.2-0.7-0.4-1c-0.2,0-0.5-0.1-0.7-0.1c0.1,0.2,0,0.1,0.1,0.3
			c-0.3,0.2-0.7,0.4-1,0.6C400,388.1,401.5,387.8,401.9,387z M419.4,385.8c-0.2,0.4-0.5,0.4-0.3,0.9v1c0.4-0.1,0.4-0.2,0.7,0h0.4
			c0.1-0.2,0-0.1,0.1-0.3C420.5,386.3,420.2,386.1,419.4,385.8z M412.5,387.4c0.3,0.1,0.3-0.1,0.9-0.1c-0.1-0.5-0.1-0.3-0.3-0.7
			h-0.4v-0.4H412c-0.1,0.5-0.2,0.6,0,0.9C412.2,387.4,412.1,387.2,412.5,387.4z M418.6,387.4c-0.2-0.1-0.4-0.2-0.6-0.3
			c-0.5,0.1-0.3,0.1-0.6,0.3c0,0-0.1,0.1-0.1,0.1c-0.2-0.3-0.5-0.7-0.9-0.9c-0.2-0.1-0.2-0.1-0.6-0.1c-0.2,1-0.7,1.4-1,2.2
			c-0.1,0.1,0,0.8,0.1,1c0.5,0.4,1.1,0,1.6,0.3h0.3c-0.1-0.3,0-0.3-0.1-0.4c0.4-0.7,1.3-0.6,1.9-1c0.1-0.2,0.1-0.1,0.1-0.4h-0.4
			C418.4,387.9,418.5,387.7,418.6,387.4z M416.8,387.8c0,0-0.1,0.1-0.1,0.1v-0.3c0.2,0.1,0.1,0,0.3,0.1H416.8z M395.1,388.3
			c0-0.3,0.1-0.4,0.1-0.6c-0.2-0.2-0.4-0.5-0.6-0.7h-1.2c-0.1,0.3-0.1,0.7-0.3,0.9v0.6c0.2,0.1,0.1,0,0.3,0.1
			C394.3,388.6,394.7,388.5,395.1,388.3z M397.6,387.6c-0.3,0-0.4,0-0.6,0.1c-0.3,0.3-0.3,0.6-0.1,1c-0.8,0-0.8,0.1-1.2,0.4
			c0.1,0.6,0.1,0.6,0.6,0.7v0.6c0.4,0,0.9-0.1,1.3-0.1c0.1-0.3,0.2-0.4,0.4-0.6c-0.1-0.5-0.1-0.4-0.3-0.7c0.2-0.1,0.5-0.3,0.7-0.4
			c0-0.4,0-0.5-0.1-0.7C398.2,387.7,397.7,387.7,397.6,387.6z M407.4,390.6h0.3c0-0.4-0.3-1.6-0.3-1.6c0.1-0.2,0.3,0.1,0.4-0.7
			c-0.3,0.1-0.3,0-0.4,0.1c-0.6-0.1-0.6-0.1-0.7-0.6h-0.3c-0.1,0.2-0.2,0.4-0.3,0.6c0,0.7,0,0.8,0.4,1c-0.2,0.4-0.3,0.3-0.4,0.7
			c0.1,0.1,0.2,0.2,0.3,0.3C406.7,390.7,407.1,390.8,407.4,390.6z M390.1,389.6c0.5,0.1,0.8,0.2,1.2,0c0.4,0,0.7,0,1-0.1
			c-0.1-0.3,0-0.3-0.1-0.4c-0.1-0.5-0.1-0.5-0.3-0.9c-1,0.1-0.3,0.1-1.2,0c-0.1,0.1-0.3,0.2-0.4,0.3c-0.1,0-0.3,0.1-0.4,0.1
			C389.9,388.9,390,389.2,390.1,389.6z M411.8,389.3c0,0.3,0.1,0.6,0.1,0.9c0.3,0,0.4,0,0.6,0.1c0.8-0.1,0.8-0.5,1.3-0.9
			c-0.1-0.5-0.1-0.5-0.3-0.9C412.8,388.7,412.3,389,411.8,389.3z M367.6,389c-0.4,0-0.8-0.1-1.2-0.1c-0.1,0.1-0.3,0.2-0.4,0.3
			c0,0.4,0,0.9,0.1,1.2c0,0.1,0.1,0.3,0.1,0.4c0.8-0.1,1.1-0.5,1.9-0.6C368.1,389.6,367.9,389.4,367.6,389z M378.2,389.1
			c-0.2-0.1-0.3-0.2-0.4-0.3c-0.4,0.1-0.6,0.1-0.9,0.3c-0.1,0.1-0.3,0.2-0.4,0.3v0.4c0.7,0,1.2-0.1,1.6-0.4
			C378.2,389.3,378.1,389.4,378.2,389.1z M409.4,389.9c0.4,0.8,0.5,0.3,0.7,1.3c0.8,0,0.9-0.1,1.3-0.4v-0.4H411
			c0.2-0.3,0.2-0.2,0.4-0.4c0.1-0.1,0.1,0,0.1-0.3c-0.2-0.2-0.5-0.5-0.7-0.7C409.9,388.9,409.9,389.3,409.4,389.9z M355.9,390
			c-0.3-0.2-0.1-0.1,0.1-0.3v-0.4c-0.4,0-0.2-0.1-0.4,0c-0.5,0.1-0.4-0.1-0.6,0.3h-0.1c0.2,0.4,0,0.3,0.6,0.4
			c-0.1,0.1,0,0.1-0.3,0.1c0,0.3,0.1,0.4,0.1,0.6c0.4,0,0.8-0.1,1.2-0.1v-0.1c0.1-0.2,0.1-0.1,0.1-0.4
			C356.2,390.1,356.2,390.1,355.9,390z M329,389.4h-0.3c-0.2,0.2,0.2,0.5,0.1,0.6c-0.2,0.1-0.4,0.3-0.6,0.4c0.2,0.3,0.2,0.3,0.3,0.7
			c0.8,0,1.1-0.2,1.3-0.9c0.1-0.2-0.1-0.4-0.1-1C329.4,389.3,329.2,389.3,329,389.4z M420.6,390.7c0.5-0.1,0.4-0.1,0.7-0.3
			c0-0.3-0.1-0.7-0.1-1c0,0-0.1-0.1-0.1-0.1c-0.3,0-0.4,0.1-0.6,0.1C420.8,390.6,420.7,389.5,420.6,390.7z M382.5,390.4
			c-0.4-0.1-0.2,0.1-0.3-0.3h-0.4c0,0.6,0,0.9,0.3,1.2c0.1,0.1,0,0,0.1,0c0.7-0.1,0.6-0.2,1-0.4v-0.4
			C382.9,390.4,382.8,390.3,382.5,390.4z M388.8,392.2c0.4,0,0.5-0.1,0.7-0.1c0.1-0.3,0.1-0.5,0.3-0.7V391c-0.6-0.1-0.9-0.3-1.6-0.3
			c-0.2,0.2-0.4,0.3-0.6,0.4c0.2,0.4,0.3,0.5,0.3,1C388.3,392.3,388.4,392.4,388.8,392.2z M415.4,391.2c-0.2-0.1-0.5-0.3-0.7-0.4
			c-0.1,0.1,0,0.1-0.3,0.1c0.1,0.5,0.2,0.7-0.1,1c0,0.1,0.1,0.3,0.1,0.4c0.4-0.1,0.6-0.1,0.9-0.3h0.1c-0.1-0.3-0.1-0.2-0.3-0.4
			C414.9,391.5,415.2,391.4,415.4,391.2z M406.7,392.6v0.3c0.4,0,0.7,0,0.9-0.1c0.5-0.1,0.5-0.1,0.9-0.3c0-0.3,0.1-0.6,0.1-0.9
			c-0.6-0.3-0.7-0.6-1.6-0.6C406.8,391.4,406.4,392.2,406.7,392.6z M371,391.2c-0.1,0.4-0.1,0.4-0.4,0.6v0.3
			c0.4-0.2,0.6-0.3,1.2-0.3c-0.1-0.3-0.2-0.3-0.3-0.6H371z M410,391.5c-0.1,0.2-0.2,0.7-0.3,0.9c0.2,0.6,0.5,0.6,0.9,1h0.9
			c0.2-1.1,0.1-0.7,0-1.9C410.9,391.3,410.6,391.4,410,391.5z M398.2,392.5h0.6v0.6c0.5,0,0.5,0.1,0.7-0.3c0.1-0.3-0.1-0.4-0.1-1
			c0,0-0.1-0.1-0.1-0.1c-0.4,0-0.6,0.1-0.9,0.1C398.3,392,398.2,392.2,398.2,392.5z M367.5,392.6v-0.7c-0.6,0-0.7,0.1-1,0.3
			c0.2,0.7,0.3,0.5,0.3,1.2c0.2,0.1,0.1,0,0.3,0.1c0.7,0,0.7-0.2,1.2-0.4C368,392.7,367.8,392.7,367.5,392.6z M382,392.5
			c-0.1,0.6,0.2,0.3,0.6,0.7h0.3c-0.1-0.3,0-0.3-0.1-0.4v-0.3H382z M372.3,393v0.6h0.4V393c0.2,0.1,0.1,0,0.3,0.1h0.4
			c0-0.2-0.1-0.4-0.1-0.6C372.6,392.7,372.7,392.8,372.3,393z M401.6,392.6h-0.9c-0.2,0.5-0.3,0.3,0,0.7c-0.3,0.1-0.3,0.2-0.6,0.3
			c0.2,0.3,0.3,0.4,0.6,0.6c0,0,0.1,0.1,0.1,0.1v-0.1c0.9,0,0.9-0.2,1.4-0.6C402.2,393,401.9,393,401.6,392.6z M376.9,393.5
			c0.3-0.1,0.3,0,0.4-0.1h0.1c-0.2-0.4,0-0.2-0.4-0.3C377,393.2,376.9,393.3,376.9,393.5z M363,393.2c-0.2,0.1-0.1,0.1-0.4,0.1
			c-0.1,0.5,0,0.7-0.3,1c0.1,0.5,0.1,0.4,0.3,0.7c0.3,0,0.6,0.1,0.9,0.1c0.1-0.1,0.3-0.2,0.4-0.3c0-0.8,0-1.2-0.4-1.6
			C363.3,393.2,363.3,393.2,363,393.2z M399,393.2c-0.7,0.2-0.2,0.1-1,0c-0.4,0.8-0.2,0.7,0.3,1.3c0.6-0.1,0.7-0.2,1.2-0.3
			c-0.1-0.3,0-0.3-0.1-0.4C399.2,393.4,399.2,393.4,399,393.2z M395.1,396.2v-0.1c0.8-0.1,0.8-0.4,1-0.9c0.3,0,0.4,0,0.6,0.1
			c0.3-0.1,0.2-0.2,0.6-0.3c0-1.1-0.4-1.6-1.6-1.6c-0.9,0.6-1,0.7-1.4,1.9c0.2,0.2,0.5,0.5,0.7,0.7
			C395,396.1,395.1,396.2,395.1,396.2z M378.1,394.1c-0.2-0.2-0.4-0.2-0.7-0.3c-0.3-0.1-0.3,0-0.7,0.1c0.1,0.5,0.1,0.4,0.3,0.7
			c0.3,0,0.7-0.1,1-0.1C378,394.2,377.9,394.2,378.1,394.1z M349.3,393.9c-0.2,0.3-0.3,0.8-0.6,1c0.1,0.4,0.2,0.4,0.4,0.7
			c0.3,0,0.4,0,0.6-0.1c0.4-0.2,0.4-0.3,0.7-0.6c-0.1-0.4-0.3-0.5-0.4-1H349.3z M392.7,394.5v-0.4c0,0-0.1-0.1-0.1-0.1
			c-0.4,0-0.6,0.1-0.9,0.1c0,0.1,0.1,0.3,0.1,0.4H392.7z M393,395.2c-0.1-0.5,0.1-0.2-0.3-0.4c-0.2,0.2-0.4,0.3-0.6,0.4
			c0,0,0.1,0.1,0.1,0.1c0.2,0.1,0.1,0,0.6,0C392.9,395.3,392.9,395.3,393,395.2z M390.8,396.1h0.1c-0.2-0.5-0.7-0.6-1-1h-0.7
			c-0.3,0.3-0.9,0.2-1.3,0.4c-0.1,0-0.3,0.1-0.4,0.1v1.2C388.5,397,390.3,396.8,390.8,396.1z M370.1,396.5c-0.2,0.6,0.1,0.8-0.3,1.2
			c0.1,0.2,0,0.1,0.1,0.3c0.3,0.2,0.6,0.3,0.9,0.1c0.1,0,0.3-0.1,0.4-0.1c-0.1-0.8-0.4-0.9-0.7-1.4H370.1z M393.8,398.8
			c0.1-0.3,0-0.3,0.1-0.4c0.6-0.4,1.6,0.4,2.5-0.3h0.3c0-0.4,0-0.8-0.1-1c-0.3-0.4-0.7-0.2-1.2-0.6c-0.5,0.2-0.7,0.6-0.9,1.2
			c-0.3-0.1-0.6-0.2-0.9-0.3c-0.4,1-1.1,1.7-1.2,2.9c0.5,0,0.6,0.1,0.9,0c0.5-0.1,0.2,0.1,0.4-0.3c0.1-0.3,0-0.3-0.3-0.6v-0.1
			c0.5,0,1,0.1,1.4,0.1c-0.1-0.5-0.1-0.4-0.3-0.7C394.4,398.7,394.1,398.8,393.8,398.8z M368.7,396.8c-0.2-0.1-0.6-0.1-0.7,0
			c-0.1,0-0.3,0.1-0.4,0.1c0,0.4,0,0.8,0.1,1v0.1c0.3-0.3,0.2-0.6,0.6-0.9c0.3-0.1,0.3,0,0.7,0C368.8,396.8,369,397,368.7,396.8z
			 M362,397.2c-0.6-0.1-0.7-0.3-1.2-0.4c-0.3,0.4-0.6,0.5-0.7,1.2c0.7,0.6,0.9,0.3,1.9,0.4l0.9-0.9c0-0.4-0.1-0.5-0.1-0.7
			C362.2,396.9,362.2,396.9,362,397.2z M398.7,397.8c-0.1-0.3-0.2-0.6-0.3-0.9c-0.8,0-0.6,0.2-1,0.6c0.3,0.9,0.9,1.2,1.7,1.3
			c-0.1,0.3-0.1,0.2-0.3,0.4c0,0.1,0.1,0.3,0.1,0.4h0.6c0.1-0.9,0.2-1,0.1-1.9C399.2,397.8,399.2,397.8,398.7,397.8z M380.2,397.7
			c-0.8,0-0.7,0.1-1.2,0.4v0.4h0.4c-0.1,0.2-0.2,0.3-0.3,0.4c-0.5,0.2-0.4-0.4-0.9,0h-0.6c0.3-0.4,0.5-0.3,0.6-0.9
			c-0.6,0.1-0.6,0.2-1,0.3c0,0.4,0,0.5-0.1,0.7c0.2,0.5,0.5,0.6,0.7,1c1-0.3,1.5-0.8,2.7-0.9c0-0.6,0.2-0.6-0.1-1
			C380.4,397.9,380.4,397.9,380.2,397.7z M368.2,398c-0.1,0.1-0.2,0.3-0.3,0.4c0.2,0.3,0.4,0,0.6-0.1h0.1
			C368.4,397.9,368.7,398.1,368.2,398z M388.2,399.1c0.2,0.4,0.3,0.8,0.7,1c0.2,0.1,0.1,0.2,0.3,0c0.7-0.1,0.6-0.2,1-0.4
			c0-0.9-0.3-1.1-0.6-1.6H389C388.8,398.4,388.5,398.9,388.2,399.1z M388.3,400.1c-0.1-0.3-0.1-0.7-0.3-0.9
			c-0.4-0.3-0.9-0.3-1.6-0.3c-0.3,0.8-0.3,1.1-1,1.4c0.2,0.4,0.5,0.8,0.7,1.2c0.3,0,0.4,0,0.6,0.1c0.6-0.1,1.2-0.8,0.9-1.3
			C387.8,400.1,387.8,400.2,388.3,400.1z M395.6,399.3c-0.1,0.3-0.1,0.4-0.3,0.6c0,0.4,0,0.8,0.1,1c0.2,0.1,0.1,0.2,0.3,0
			c0.7-0.1,0.6-0.2,1-0.4c-0.1-0.7-0.4-0.6-0.4-1.3C395.9,399.2,395.8,399.2,395.6,399.3z M382.8,400.6c-0.6-0.4-0.7-0.9-1.6-1
			c-0.3,0.6-0.2,0.9-0.3,1.6c0.2,0.1,0.1,0,0.3,0.1c0.9,0,1.1-0.1,1.6-0.4V400.6z M384.9,400.6V400c-0.5,0.1-0.5,0.2-0.9,0.4
			c-0.1,0.5-0.1,0.8,0.4,1.2c0.3,0.2,0.7-0.2,1.2-0.3C385.4,400.8,385.3,400.8,384.9,400.6z M398,401.4c-0.2-0.2-0.3-0.9-0.4-1.2
			h-0.7c0,0.5,0,0.6,0.3,0.9c-0.5,0.4-0.9,0.1-1.4,0.4c-0.2,0.2-0.4,0.4-0.6,0.6c0,0.5-0.1,1,0.3,1.3c0.4,0.4,2.9-0.5,3.8-0.6
			c0,0,0.1-0.1,0.1-0.1C399.3,400.9,398.4,401.9,398,401.4z M388.2,402c-0.1,0.2-0.1,0.1-0.1,0.4h0.4v-0.1c0.1-0.2,0.1-0.1,0.1-0.4
			h-0.4V402z M382.5,402.2c-0.2,0.3-0.4,0.6-0.6,0.9c0.1,0.3,0,0.3,0.1,0.4v0.1c0.6-0.2,0.6-0.5,1.2-0.7c-0.1-0.5-0.1-0.4-0.3-0.7
			H382.5z M391.5,402.6c-1.1,0-1.2,0.4-1.9,0.7c-0.2-0.2-0.4-0.5-0.6-0.7c-0.5,0-0.7,0.1-1,0.3c0,0.2-0.1,0.5-0.1,0.7
			c1.2,0,0.9,0.4,1.2,1h0.6v-0.4c0,0,0.1-0.1,0.1-0.1h0.7c-0.2,0.2-0.4,0.4-0.6,0.6c0,0.1,0.1,0.2,0.1,0.3c0.2,0.1,0.1,0,0.3,0.1
			c1.1-0.1,0.8-0.7,1.6-1c-0.1-0.3,0-0.3-0.1-0.4C391.8,403,391.7,402.9,391.5,402.6z"/>
	</g>
</g>
</svg>
