<?xml version="1.0" encoding="utf-8"?>
<!-- Generator: Adobe Illustrator 21.0.0, SVG Export Plug-In . SVG Version: 6.00 Build 0)  -->
<svg version="1.1" id="Calque_1" xmlns="http://www.w3.org/2000/svg" xmlns:xlink="http://www.w3.org/1999/xlink" x="0px" y="0px"
	 viewBox="0 0 841 595" style="enable-background:new 0 0 841 595;" xml:space="preserve">
<style type="text/css">
	.st0{fill:#DADADA;}
</style>
<ellipse class="st0" cx="408.7" cy="391.9" rx="109.3" ry="22.9"/>
<g>
	<path d="M349.5,357.1c8.6,3.4,28.1,9.1,49.4,9.1c38.4,0,50.7-16.2,50.4-28.8c-0.3-20.8-28.4-29.7-57.6-29.7h-16.8v-15.1h16.8
		c21.9,0,49.7-7.5,49.7-25.1c0-11.9-11.3-22.4-39.1-22.4c-17.8,0-35,5.3-44.6,9.8l-8.2-14.6c12-5.7,34.6-11.4,58.6-11.4
		c43.9,0,63.7,17.4,63.7,35.4c0,15.5-14.1,28.6-41.1,35.2v0.5c27.4,3.4,49.4,17.1,49.7,37.9c0,23.8-28.1,44.6-81.2,44.6
		c-25,0-47-5.3-57.9-10.1L349.5,357.1z"/>
</g>
</svg>
