<?xml version="1.0" encoding="utf-8"?>
<!-- Generator: Adobe Illustrator 21.0.0, SVG Export Plug-In . SVG Version: 6.00 Build 0)  -->
<svg version="1.1" id="Calque_1" xmlns="http://www.w3.org/2000/svg" xmlns:xlink="http://www.w3.org/1999/xlink" x="0px" y="0px"
	 viewBox="0 0 841.9 595.3" style="enable-background:new 0 0 841.9 595.3;" xml:space="preserve">
<style type="text/css">
	.st0{fill:#1D1D1B;}
	.st1{fill:#DADADA;}
</style>
<g>
	<g>
		<path class="st0" d="M532.7,264.9c-0.2-1.7-1.1-5.5-1-6.9c0.2-3.2-2.6-10.6-3.8-13.6c-3.9-9.8-10.3-19.6-18.2-25.4
			c-3.3-2.5-6.5-5.6-12.4-5.5c-1.8,1-3.8,0.4-5.6,1.9c-3.7,2.8-5,11.3-3.7,17.2c0.2,1.2,0.5,2.5,0.9,3.7c-13,14.8-32,25-51.2,33.4
			c-4.6,2-17.1,8.9-20.7,3.9c0-0.2-0.1-0.4-0.1-0.6c1.2-1.5,3.7-1.5,3.3-4.1c-0.1,0-0.2,0-0.2,0c-2.8-2.5-8.9,2.3-8.1,6
			c0.5,2.3,2.3,2.6,3.9,3.8c-2.4,1.1-4.9,2-7.3,3.1c-0.8-1.7-1.6-3.6-2.4-5.3c-1.4-0.8-2.3,0.2-3.4,0.6c-0.9-2-1.8-4.1-2.7-6.3
			c0.8-0.3,1.5-0.6,2.3-1c0.3-0.6,0.2-1.2,0.1-2l-0.1-0.1c-2.9,1.1-5.7,2.2-8.6,3.2c-0.1,0.4-0.2,0.9-0.2,1.3c1.2,0.4,2.3,0,3.2-0.5
			c1.7,0.2,2.8,4.7,3.4,6.3c-4.2,0.9-2.3,5.2-0.6,7.4c-0.5,0.2-1.2,0.5-1.7,0.9c-1.3-1.2-1.9-3.8-3-5.2c-1.4,0.1-2.3,0.8-3.3,1.2
			c-0.3-2.7-1.5-4.2-2.2-6.6c0.6-0.3,1.4-0.8,2-1.1c0.1-0.3,0.2-0.6,0.2-1c-0.4-0.3-0.9-0.6-1.2-1c-2.2,0.8-6,1.4-7.5,3
			c-0.2,0.3-0.2,0.4-0.2,1.1c1.3,0.8,2.6-0.9,3.4-0.5c1.3,0.5,2.3,5.7,2.7,7.1c-0.8,0.3-1.4,0.6-2.2,1c-0.3,2.3,0.9,3.8,1.5,5.6
			c0,0.1-0.1,0.2-0.1,0.2c-0.5,0.2-1,0.3-1.5,0.5c-0.8-2.3-0.8-3.9-2.7-5.3c-0.9,0.4-2.7,1.4-3.4,1.2c-0.8-2-1.5-4.1-2.3-6
			c0.4-2,2.8,0,2.3-3.4c-0.2-0.1-0.4-0.2-0.6-0.2c-0.9-0.2-8,2.7-8.4,3.4c0,0.1,0,0.3,0,0.4c0.2,0.2,0.5,0.4,0.9,0.6
			c0.9,0.2,1.8-0.5,2.8-0.6c0.9,2.4,1.8,4.6,2.7,7c-3.8,2.6-1.3,2.9-0.4,6.6c-2.5,0.5-4.9,1.9-7,2.7c-9.9,3.7-18.9,7.7-28.1,11.9
			c-2.6,0.9-5.2,1.7-7.8,2.6c-6.7,2.7-12.9,5-19.6,7.7c-1.1,0.6-2.3,1.3-3.3,1.9c-3.3,1.2-6.1,1.9-9.5,3.2c-1.3,0.5-3.2,1.6-4.9,1.7
			c-0.5-0.1-1.1-0.3-1.6-0.4c-2.3,1-4.6,1.9-6.9,2.8c-0.8,0.1-1.1-0.6-1.5-0.9c-1.6-0.6-3.8,0.2-5.2,0.5c-0.9-0.2-1-0.8-1.6-1.1
			c-1.7-0.5-4.7,1.7-6.4,2.4c-1.6,5.7,5.3,18.1,8.4,20.5c2.8,0.5,4.2-1.6,6.7-2c0.9-1.3-0.1-1.7-0.4-3.2c3.3-0.6,2.9-3,4.5-4.2
			c0.8-0.2,1.4-0.4,2.2-0.6c1.7-1,3.1-2.4,5.2-3.1c0.2-0.8,0.1-1.1,0.1-2c6.8-2,13.2-5.5,19.9-8.1c3.1-1.2,6.8-3.3,9.9-4.1
			c-1.7,2.8-3.6,6.3-4.1,9.8c-0.6,4.3,1.4,8.5,2.6,11.2c3.6,8.1,10.2,14.6,19.5,17.5c2.5,0.8,5.8,3.7,9.6,2.7
			c8.6-2.2,15.1-5.9,22.5-8.8c3-1.1,6-2.2,9.1-3.2c3.2-1.3,6.3-2.8,10.1-3.7c0.4,1.6,1.4,2.5,1.9,3.9c1,0.2,1.9,0.5,3,0.9
			c2.6-0.5,7.8-2.2,9.1-4.2c-0.1-0.8-0.3-1.5-0.4-2.3c1.5,0.8,2.6,1.6,3.8,2.7c1-0.4,0.8-1.3,1.5-1.7c0.8-0.4,3.7-1.4,4.4-1.6
			c1.6-2.7-1.4-6.5-2.4-8.6c0.4-0.2,0.9-0.4,1.3-0.6c1.1,3,2.5,6.4,5,8.1c3.1-0.4,6.4-2.3,9.1-3.3c0.1-0.3,0.2-0.8,0.2-1.1
			c-0.9-1-1.4-2.3-2.2-3.3c1.3-1.1,11.2-4.5,13.4-4.7c0.2,1.1,0.5,2.2,0.9,3.2c-1.3,0.5-2.7,1.1-4.1,1.6c0,0.2,0.1,0.5,0.1,0.9
			c0,0.1,0.1,0.2,0.1,0.2c2.9,0,5.3-1.9,7.7-2.7c5.9-1.8,11.9-4.3,17.5-5.9c0-0.5,0-1,0-1.5c-3.2-0.9-6.8,4-10.7,3
			c-0.3-1.2-0.5-2.4-1.1-3.2c4-1.8,8-3.6,12-5.4c1.6-1.1,2.6-2.5,4.2-3.7c0.8,0.8,0.9,1.5,1.9,2c1.1-0.1,2.8-0.8,3.2-1.5
			c0.4-0.6,0.5-1.9,0.1-2.7c-0.8-1.8-3-2.2-4.7-1.2c-0.2-0.6-0.5-1.4-0.9-2c0.8-1,1.6-1.9,2.4-3c0.1-0.1,0.2-0.2,0.4-0.2
			c1.1,1.1,1.3,2.3,3.1,2.6c1.1-0.4,1.9-1,2.4-2c0.8-1.8-1-3.1-1.7-4.1c3.2-5.2,3.7-19.3,0.6-25.2c-1.6-3.3-4.9-5.1-7-7.8
			c3.3-2.9,20.4-5.7,25.4-5.4c2.4,0.1,4.9,0.3,7.3,0.4c0.9,1.3,1.8,2.6,2.7,3.9c3.7,5.1,10.9,14.9,19,8.4
			C531.5,278.1,533.2,270,532.7,264.9z M475.8,316.4c0.4,0,0.9,0.1,1.2,0.1c0.2,0.4,0.3,0.9,0.5,1.2c-0.3,0.6-0.3,0.9-1.2,1
			c-0.2,0-0.3,0.1-0.5,0.1c-0.2-0.3-0.3-0.6-0.5-1C475.2,317.2,475.5,317,475.8,316.4z M413.6,274.3c0-3,1.7-3.2,3.7-4.3h0.1
			c-0.2,0.9-1.9,1.6-2.4,3c0.6,2,1.7,3.8,4.2,4.1c0,0.1,0,0.2,0,0.2C416.7,277.4,414.4,276.2,413.6,274.3z M399,280.5
			c1.2-0.9,2.7-1.2,4.2-1.9c1.5,0.8,1,3.2,2.8,3.8c-0.5,1.1-3.8,1.8-4.9,2.3C400.1,284.3,399.5,281.7,399,280.5z M391.7,283.8
			c1.6,0.6,1.3,2.8,3,3.3c0,0.1,0.1,0.2,0.1,0.2c-1.2,1-3.4,1.7-5.3,2c0.1-1.2-0.9-2.7-1.5-3.7C389,284.8,390.5,284.6,391.7,283.8z
			 M382,288.1c0.8,0.3,1.9,2.7,2.2,3.4c-1,1-3.2,1.5-4.9,1.7c-1-0.6-1.4-1.4-1.9-2.6C377.6,289.2,380.8,288.8,382,288.1z
			 M283.4,348.1c-3.2-1.7-8.1-11.7-8.1-16.7c1.1-1.3,2.5-1.8,3.9-2.8c1.1,1,1.3,4,1.9,5.4c0.9,2.2,1.3,4.5,2.3,6.7
			c0.9,1.9,2.6,3.4,3.3,5.6C285.5,346.9,284.5,347.6,283.4,348.1z M292.5,338.9c-0.3-0.8-0.6-1.4-1-2.2h-0.1
			c-0.4,0.1-0.9,0.2-1.2,0.2c0.3,3.3,0.6,4.6-2.3,5.9c-2.9-1.2-5-9.3-6-12.7c1.2-0.3,2.8-1,4.1-0.6c1.6,0.6,1.9,2.7,3.4,3.1
			c0.1-0.8-0.1-1.1-0.2-1.9c0.9-1.1,4.2-2.5,5.9-2.6c0.3,2.7,2,5.2,3.2,7.3C297.4,337,294.2,338.2,292.5,338.9z M402.3,350.4
			c-1-1.4-1.6-3.3-1.9-5.2c1.9-0.8,3.9-1.6,5.8-2.4c1.1,0.8,1.6,3.4,2.2,4.7C407.3,349,404.4,350.2,402.3,350.4z M409.7,341.6
			c0.2-0.2,0.4-0.3,0.6-0.5c0.6,0.3,1.4,2.8,1.6,3.7C411.1,343.9,410.2,342.5,409.7,341.6z M420.1,343.3c-1.8,0.8-3.7,1.5-5.5,2.3
			c-0.9-1.6-1.4-3.4-2.3-5.2c1.3-1.4,4.2-1.6,5.6-2.4c1.1,1.1,1.6,3.3,2.2,4.9C420.1,343.1,420.1,343.2,420.1,343.3z M425.7,341.4
			c-1-1.4-2.2-3.7-2.4-5.5c2-0.6,4.4-1.5,6-2.7c1.1,1.1,1.7,4.2,1.9,5.9C429.3,339.8,427.5,340.7,425.7,341.4z M449.7,334.4
			c-0.2-0.1-0.5-0.3-0.9-0.4c-0.1-0.9-0.3-1.8-0.4-2.7c2.5-1.1,5.1-2.2,7.5-3.2c0.8,0.8,1.1,2.3,1.1,3.7
			C454.8,332.6,452.4,334,449.7,334.4z M465,322.4c-6.1,2.8-12.8,5.9-19,8.4c-4.6,1.8-9.6,3-13.9,4.7c-0.4-0.9-0.9-1.8-1.2-2.7
			c1.6-1.5,9.7-3.9,12.4-4.9c1.9-0.9,3.9-1.8,5.8-2.7c5.9-2.5,11.7-3.9,17-7c2-1.2,4-2.7,6.3-3.8C475.2,318.1,467,321.5,465,322.4z
			 M480.1,310.3c-0.2,0.2-0.5,0.4-0.9,0.6c-0.4-0.3-0.9-0.8-1.2-1.1c0-0.3-0.1-0.8-0.1-1.1c0.2-0.2,0.5-0.3,0.9-0.5
			c0.4,0.2,0.9,0.3,1.2,0.5C480,309.3,480,309.8,480.1,310.3z M529.1,276.9c-0.6,1.5-2.3,2.8-3.8,3.4c-1.2,0.5-2.9,1.4-4.9,0.9
			c-4.1-1.3-9.8-8.5-11.9-12.1c3,0.1,6,0.8,8.5,1.9c0.5-0.2,0.4-0.1,0.6-0.6c-10-4.5-23.7-4.1-35.5-1.3c-4.1,1.3-8.3,2.6-12.4,3.9
			c-0.9-0.3-1.7-0.6-2.6-1c-2.4-0.3-4.9-0.6-7.3-1c-1.1,0.2-2,0.4-3.1,0.6c-4.4,0.5-8.7,0.6-13.2,1.9c-11,2.9-20.3,7.1-30.4,10.6
			c-2,1-4.1,1.9-6.3,3c-2.9,0.9-5.8,1.7-8.7,2.6c-0.2,0.4-0.3,0.4-0.4,1.2c0.2,0.1,0.5,0.3,0.9,0.4c2.2-0.9,5.1-1.3,7.5-2.3
			c7.7-3.1,15.8-7,23.8-9.9c4.4-1.3,8.9-2.7,13.4-4.1c3.2-0.6,6.6-1.4,9.8-2c1.9-0.3,4,0,5.3-0.2c1.5-0.3,2.6,0.5,3.8,0.6
			c1.4,0,2.8,0.1,4.2,0.1c6.5,1.5,11,10,12.9,16.4c1.3,4.2-1.6,11.3-2.6,13.9c-1,2.7-1.4,4.5-3,6.5c-7.9,9.4-28.3,14.8-41,19.6
			c-5.3,2-10.3,4.7-15.3,6.7c-2.3,1-4.7,1.2-7,2.3c-3.4,1.6-7,3.3-10.6,5c-5.9,2.2-11.9,4.2-17.8,6.4c-8.8,3.4-17.8,8.2-28.2,9.9
			c-1.2-0.2-2.4-0.3-3.4-0.5c-6.6-1.1-7.1-2-11.3-5.4c-9.7-7.8-15.5-20.7-6.4-32.4c1.9-0.9,4-1.7,5.9-2.6l0.1,0.1
			c-1.6,2.4-4.1,4.2-4.7,7.5c-1.9,10.6,5.2,21.7,12.8,25.9c1.9,1.1,4,0.9,6.4,1.6c1.5,0.4,3.7,1.2,5.5,1c2.6-0.3,5.1-1.2,7.3-2.2
			c1.9-0.9,4.7-0.5,6.7-1.2c5.4-1.9,9.9-5,15.1-6.9c3-1.2,6.3-2.4,9.1-3.4c2.2-0.9,4.4-0.5,6.3-1.7c0.9-0.5,0.9-1.5,1.1-2.4
			c4.9-0.8,8.9-2.8,12.9-4.3c8.6-3.3,16.7-7.3,25.4-10.3c7.1-2.5,13-5,19.2-8.1c2.6-1.3,5.4-2.3,7.3-4.2c0.6-0.9,1.3-1.7,1.9-2.6
			c-0.1-0.4-0.2-0.9-0.2-1.3c0.5-0.8,1.1-1.4,1.6-2.2c3.2-7.7-2.2-22.4-7.1-25.2c-4.6-2.6-12.3-1.5-17.2,0c-1.5-0.5-7.4,1.3-9.1,1.7
			c-7.9,2.3-15.4,4.6-22.6,7.7c-8.4,3.4-18.3,5.4-26.7,8.9c-1.4,0.4-2.9,0.9-4.3,1.2c-13.9,7.4-30.9,12.9-46.6,18.9
			c-13.3,5-26.2,11.5-39.7,16c-0.8-1.4-1.5-2.9-2.3-4.3c0.1-0.4,0.2-0.9,0.4-1.3c6.3-1.4,12.3-4.6,17.9-7.1
			c8.2-3.6,16.1-5.7,24.4-9.1c7.9-3.1,15.8-7.7,23.7-10.7c20.6-7.9,40.7-15.4,59.9-24.3c2.3-0.8,4.5-1.4,6.7-2.2
			c10-4.1,20.6-9.1,29.6-14.4c11.6-6.9,22.9-13.7,31-24.1c2.7-3.4,5.6-7,5.5-13c-0.3-0.2-0.4-0.2-1.1-0.2c-0.5,1.1-0.2,3.1-0.6,4.4
			c-1,2.6-3.1,4.6-4.1,7.1c-0.1,0.1-0.3,0.2-0.4,0.2h-0.1c-0.9-6.4-0.9-13.5,2.6-17.7c0.9-0.6,1.8-1.3,2.7-1.9
			c8.3,0,12.2,5.5,16,10.2c4.6,5.9,11.1,13,14,20.4c1.4,3.4,2.3,7.3,3.2,10.8C529.1,260,530.6,273.1,529.1,276.9z M390.3,305.4
			c1.8,4.1,3.6,8.2,5.4,12.3c0.8,1.8,1.4,5.9,2.7,6.7c-0.4,1.5-1.7,2.7-2.2,3.9c-0.8,2,1.2,5.6,2,7.3c-0.6,0.3-1.3,0.6-1.9,1
			c-1.2-2.7-2.5-5.5-3.7-8.2c-2.2-4.6-4.1-10-5.9-14.4c-1.4-3.2-4.6-8.3-5-12c1.8-0.8,3.6-1.5,5.4-2.3c0.1,0,0.2,0,0.4,0
			C387.5,301.5,389.4,303.9,390.3,305.4z M464.1,307.5c-2.3-0.4-5.7,1-7.5,1.5c-5.6,1.5-14.2,4.1-18.8,6.9c-2.2,1.3-9.6,5.5-12,5.8
			c-0.2-0.4-0.4-0.9-0.6-1.2c2.3-2.4,7.1-3.4,10.3-4.7c6.4-2.6,12.8-6,19.5-8.2c2.8-1,5.7-1.4,8.5-2.6c2.5,0.1,4.3,0.5,5.4,2
			c-0.2,0.8-0.4,1.4-0.6,2.2C466.7,308.7,465.9,307.8,464.1,307.5z M466.6,309.9c-0.4,1.7-7.5,4.5-9.6,5.4c-2.8,1.3-5.6,2.7-8.4,4.1
			c-2.5,1.1-4.4,1.1-6.9,2c-4.3,1.7-9.2,3.7-13.4,5.5c-0.9-1-1.7-1.7-1.9-3.3c6.1-3,12.2-6.8,18.9-9.3c3.2-1.2,6.3-2.5,9.2-3.3
			c2.4-0.5,4.9-1.1,7.3-1.6c1.8,0,3.2,0.2,4.5,0.4C466.5,309.6,466.5,309.8,466.6,309.9z M433.4,311.9c-0.8-0.4-1.2-1.8-1.3-2.8
			c-0.5-4.4,1.9-3.6,4.9-5c3.4,0.5,4.6,2.7,3.9,6.3C438.8,311.1,436.1,313.5,433.4,311.9z M464.8,303.3c-3.6-0.4-7.1,2-9.7,3
			c-4.3,1.6-8.5,3.1-12.8,4.5c0.1-2,0.4-3.4-0.2-5.2c-1.4-3.1-7.2-4-10.2-1.6c-2.2,1.7-1.6,7.4,0.2,9.1c0.9,0.3,1.7,0.8,2.6,1.1
			c-2.9,2-7.5,2.2-10.1,4.4c-1.1-2.9-2.2-5.9-3.2-8.8c-2.7-6.3-5.6-12.1-8.6-17.9c1.6-2,7.5-3,10.2-4.2c6.6-2.8,14.4-4.6,21-6.6
			c3.1-0.5,6.3-1.2,9.5-1.7c1.6-0.1,3.1-0.3,4.7-0.4c1.8,0.3,4.2,0.2,5.6,1.1c5,2.9,6.1,9.2,7.4,15.6c0.1,1.4,0.2,2.9,0.4,4.3
			c-0.4,1.8-1.3,4-1.7,5.6C468.3,304.8,467,303.5,464.8,303.3z M413.8,301c1.8,3.8,4,7.9,5.5,12c1.9,5.2,3.2,10.8,6,15.1
			c-1.6,0.6-3.1,1.3-4.7,1.9c-1.7-6-4.9-11.6-7.4-16.8c-3.1-6.4-5.9-12.9-8.7-19.3c1.6-0.3,3.3-0.8,5-1.1
			C411,293.6,412.8,299.2,413.8,301z M406.9,301.8c1.6,3.8,3.2,7.7,4.9,11.4c1.4,2.8,2.9,5.6,4.3,8.4c0.3,1.5,0.6,3,1,4.4
			c0.5,1.6,1.7,2.6,2,4.7c-0.6,0.2-1.3,0.3-1.9,0.5c-0.1-0.1-0.3-0.3-0.4-0.4c-0.4-0.5,0.2-0.9-0.1-1.7c-0.5-1.4-1.9-2.9-2.4-4.2
			c-0.6-1.7-1.4-3.6-2-5.3c-3.9-8.2-7.5-16.8-11.3-24.9c0.2-0.1,0.5-0.3,0.9-0.4c0.6,0.2,0.9,0.4,1.6,0.2
			C404.4,297,405.7,299.4,406.9,301.8z M404.2,308.2c3.6,8.3,5.7,17.2,10.7,24.1c-0.9,0.3-1.8,0.8-2.7,1.1c0.5-1,0.6-2.4-0.2-3.1
			c-1.3-1.2-3.8,0.1-4.5,0.6c-1.1-1-1.4-3.4-2-4.4c1.2-1.3,3.6-1.1,4.1-3.2c0.3-1.1-1.1-1.7-1.7-2.3c-1.2-0.1-2.5,0.4-3.7,0.9
			c-1.3-1.3-1.2-4.2-2-6.3c-2-5-4.5-9.6-6.5-15.2c-0.4-1.1-0.9-2.3-1.3-3.3c1.2-0.4,2.4-0.9,3.4-1.2c0.2,0,0.4,0,0.6,0
			C399.4,300.5,402.5,304.2,404.2,308.2z M388.1,322.8c1.3,1.2,2.3,4.4,2.8,6.3c-0.5,0.2-1.2,0.5-1.7,0.9h-0.1
			C389.7,326.4,388.6,325.7,388.1,322.8z M391.2,330.5c0.2,0,0.3,0,0.5,0c0,0.1,0.1,0.2,0.1,0.2c-0.3,1.6-6.3,2.9-7.8,3.8
			c-6.5,3.3-19.2,6.5-21.8,13.6c0.1,0.2,0.2,0.5,0.4,0.9c7.7,1.4,22.3-5.5,28.6-8.4c1.8-0.9,7.9-2.5,8.6-3.7
			c0.8,0.1,1.6,0.2,2.4,0.4c0.1,0.1,0.2,0.2,0.2,0.2c0,0.1,0,0.2,0,0.4c-3.3,1.9-7.3,1.8-10.8,3.4c-3.4,1.5-6.8,3-10.2,4.4
			c-5.6,2.7-12.3,6.6-20,4.4c-2.7-4.4,2.2-7,4.4-8.5c4.4-2.8,10.3-5.2,15.2-7.3C384.6,333.1,388.1,332.5,391.2,330.5z M391.9,333
			c1.6,0.1,2.4,2.8,2.6,4.2c-3.8,1.6-7.5,3.2-11.3,4.9c-2.9,1.2-6.5,1.9-8.6,3.3c-2.2,1.4-5.8,1-8.5,1.6c-0.6,0-0.8-0.1-1.1-0.2
			c1.7-3.6,7.3-4.7,11-6.4c2.9-1.2,5.9-3.4,9.1-4.5C387.2,335.1,390.5,334.5,391.9,333z M400.3,335c-3.1-1.9-1.3-5.9-1-9.1
			c1.9-1.1,5.1-1.8,6.9-3.1c0.3,0,0.6,0.1,1,0.1c0,0.1,0.1,0.2,0.1,0.2c-2.9,2.3-7.1,2.3-6.7,7.1c0.1,1.3,0.5,2.6,1.3,3.1
			c3.1,1.9,6-1.2,8.5-1.6C409.8,333.4,401.9,336.5,400.3,335z M405.5,331.9c-0.6,0.1-1.3,0.2-1.9,0.2c-0.3-0.3-0.8-0.6-1.1-1
			c-0.2-1-0.4-1.7-0.1-2.7c0.4-0.4,0.9-0.9,1.2-1.2C404.5,327.8,405.4,330.8,405.5,331.9z M395.2,304.6c2,5.7,6.6,11.2,6.9,18.1
			c-0.3,0.2-0.8,0.4-1.1,0.6c-0.1,0-0.3,0-0.4,0c0.2-2.2-1.3-4-1.9-5.8c-1.5-4.4-3.1-8.5-5.2-12.5c-1.1-1.8-2-3.8-3.1-5.6
			c-0.2-0.2-0.3-0.3-0.5-0.5c0.8-0.3,1.5-0.8,2.3-1.1C394,298.8,394.4,302.5,395.2,304.6z M387.4,319.9c-0.3,0.3-0.6,0.8-1,1.1
			c-1.1,2.9,2.5,4.9,1,7.8c-0.6,1.3-2.3,1.7-4.1,1.5c-1.8-2.6-4.9-5.4-8.5-3.8c0,0.3-0.1,0.6-0.1,1c0.1,0,0.2,0,0.2,0
			c0.9,0.4,3,0.1,4.2,0.9c1.7,1.1,2.3,2.9,4.3,3.9c-1.3,0.5-2.6,1-3.9,1.5c-5.2,2.8-15.6,5.5-19,9.6c-2,2.5-2.6,8.3,1.1,9.3
			c0,0.2,0,0.3,0,0.5c-4.5,0.1-11.7,0-15-2.6c-8.8-7-15.6-21.1-5.6-31.4c1.8-1.8,7.5-3.1,10.6-4.3c2-0.8,4.5-1.8,6.5-2.8
			c1.1-0.2,2.2-0.4,3.2-0.6c1.6-1,3.2-1.9,4.9-2.8c4.6-1.9,10-2.9,13.9-5.6c0.1,0,0.2,0,0.4,0C382.6,308.5,385,314.2,387.4,319.9z"
			/>
	</g>
</g>
<ellipse transform="matrix(0.9597 -0.2812 0.2812 0.9597 -86.769 133.8062)" class="st1" cx="422.9" cy="369.3" rx="125.2" ry="6.5"/>
</svg>
