<?xml version="1.0" encoding="utf-8"?>
<!-- Generator: Adobe Illustrator 21.0.0, SVG Export Plug-In . SVG Version: 6.00 Build 0)  -->
<svg version="1.1" id="Calque_1" xmlns="http://www.w3.org/2000/svg" xmlns:xlink="http://www.w3.org/1999/xlink" x="0px" y="0px"
	 viewBox="0 0 841.9 595.3" style="enable-background:new 0 0 841.9 595.3;" xml:space="preserve">
<style type="text/css">
	.st0{fill:#DADADA;}
</style>
<ellipse class="st0" cx="400.7" cy="433.3" rx="100.3" ry="8.2"/>
<g>
	<g>
		<path d="M507.9,220.8c-0.2-1.4,0.2-2.6-0.3-3.9c-0.6-1.5-4-5.4-3.9-6.6c0.6-6-4.7-8.6-7.8-11.6c-1.8-1.9-3.7-3.9-5.5-5.8
			c-5.1-4.5-11.8-8.5-18.7-11.1c-1.6-0.3-3.1-0.6-4.7-0.9c-1.9-0.6-7.8-1.9-10.1-1.4c-8.7,2-17.6,4.1-24.8,8.1
			c-8.6,4.7-16.1,10.8-23.8,16.4c-2.1,1.5-3.9,3.7-6,5.3c-6.9,5.2-12.9,10.7-19.1,16.5c-0.1,0.3-0.2,0.6-0.3,0.9
			c-1.5,1.5-3,3.1-4.5,4.6c-2.1,3.2-4.4,6.2-6.7,9.3c-3,4.2-6.2,8.2-9.1,12.6c-0.6,0.8-1.3,1.7-1.9,2.5c-0.8,2.4-1.6,5.3-2.7,7.6
			c-0.4,2-0.8,3.9-1.2,5.9c-0.5,1.3-1.3,3.2-1.4,4.9c-0.3-0.1-0.6-0.2-0.9-0.3c-2.1,4.7-1.5,12.5,0.3,17.6c1.2,3.3,3.3,5.7,5.2,8.2
			c5.1,6.7,11.5,12.4,18.2,17.5c3,2.2,6,4.3,9,6.6c1.1,0.8,2.9,1.6,3.3,2.8c2.1,0.5,3.5,2.3,5.1,3.3c4.9,3.2,9,6.5,13.8,9.7
			c2,1.4,3.5,3.7,5.9,4.6c0,0.1,0.1,0.1,0.1,0.2c-0.2,0.1-0.4,0.3-0.6,0.4c0,0.3,0,0.6,0,0.9c2.4,2.3,3.6,6.8,5.7,9.2
			c3.6,4.2,7,9,11.7,12.1c3.6,2.3,8.2,3.6,12.6,5c1.9,0.3,3.9,0.6,5.8,0.9c0.1-0.2,0.3-0.3,0.4-0.5c1.5,0.6,8.9,9.7,9.8,11.9
			c-0.1,0.5-0.3,0.5-0.5,0.8c0.1,1,0.4,1,0.8,1.6c-0.3,0.9-0.5,1.8-0.8,2.7c0,0-3.2,2.4-3.3,2.4c-1.4,0.6-3.4,0.2-4.5,1.5
			c-1.2-0.3-1.9-1.3-3.6-0.9c-0.6,0.4-1.3,0.7-1.9,1.1c-0.1,0-0.3-0.1-0.4-0.1c-0.9-0.1-1.1-0.4-1.9-0.6c-0.7,0-1.4,0-2.1,0
			c-0.1,0-0.2,0.1-0.3,0.1c-0.5-0.5-1-1.1-1.5-1.6c-0.8-0.4-1.6-0.7-2.8-0.7c-0.3,0.1-0.7,0.1-1,0.2c-1.5-0.4-2.4-1.7-4-2.1
			c-1.4-0.4-2.1,0.5-3.1,0.5c-1-1-1.8-1.8-3.3-2.2c-0.8,0-1.5,0-2.3,0c-2.2-0.8-3.5-3.2-6.6-2.2c-2.3-2.4-4.7-5.3-9.2-3.6
			c-1.9-2.1-4.6-2.8-8.1-2.1c-2.5-1.6-4.9-1.7-7.8-1.3c-0.6-2.5-6.7-3.5-9-2.3c-3-1.1-4.7-2.4-8.3-0.9c-2.1-1.9-5.8-2.4-8.3-0.5
			c-1.4-0.9-5-3-6.7-0.7c-1.5-0.1-3-1.7-4.5-1.2c-0.9,0.3-1.8,1.5-2.5,1.7c-0.1,0-3.4-1.7-5.3-1.2c-0.5,0.4-1.1,0.9-1.6,1.3
			c-1-0.1-1.9-0.1-2.9-0.2c-1.5,0.1-5.8,1-6.8,1.6c-0.3-0.2-0.5-0.4-0.8-0.6c-0.5-0.1-7.9,2.1-9.3,2.6c-6.4,2.6-11.3,5.4-16.8,8.6
			c-1.6,0.8-3.3,1.6-4.9,2.4c-1.9,1.3-10.3,6.1-6.2,8.9c0.5,0.4,11.2,0.6,12.8,0.2c1-0.3,3.1-0.7,4.4-0.6c0.7,0,1.4,0,2.1,0
			c0.3,0.1,0.3,0.5,0.8,0.5c0.7-0.3,1.4-0.6,2.1-0.9c3.4,0,7-0.3,10.3-0.9c2.3,0.1,4.5,0.3,6.8,0.4c0.9-0.3,2.6-0.7,3.8-0.5
			c0.9,0.1,1.7,0.3,2.6,0.4c3.2-0.5,7-0.5,10.1,0.5c1.4,0,2.9,0.1,4.3,0.1c1.2,0.6,2.8,0.6,4.1,0.9c1,0.1,2.1,0.1,3.1,0.2
			c2.9,1.1,11.4,2.4,13,4.4c2.8-0.4,5.6,0.9,7.9,1.9c0.3,0,0.7-0.1,1-0.1c1.1,0.3,2.5,0.8,3.9,1.2c4.3,1.2,8.4,3,12.7,4.5
			c9.1,3.1,18.3,6.3,27.5,8.9c5.7,1.6,11.4,1.7,17,2.2c2.7,0.3,6.3-0.2,9.1,0.2c1.7,0,3.5,0,5.2,0c4.6-1.2,8.5-2.1,12.7-3.6
			c3.2-1.2,6.3-1.8,9-3.3c1.4-0.8,2.8-2.1,4.2-2.9c1.6-0.9,3.1-1,4.5-2c1-1.1,2.1-2.3,3.1-3.4c3.3-3.4,4-8.4,0.9-12.2
			c1.7-3.2-1.6-11.2-2.8-13.7c-0.7-0.8-1.4-1.6-2.1-2.4c-0.7-1,0.4-2,0-3.4c-0.7-2.3-2.6-5.7-5-6.5c-0.4-0.7,0-1.4-0.3-2.4
			c-0.7-2.7-2.9-4.9-5.9-5.4c-0.2-0.4,0-1.1-0.1-1.5c-0.6-1.8-2.1-4.3-3.7-5.1c-1-0.2-2-0.5-3-0.7c-0.7-0.4,0.1-2.6,0.3-3.3
			c-0.8-0.6-1.3-4.8-1.8-5.7c-2.6-5.1-3.8-9.6-7.2-14c-3.6-4.8-9.2-9.4-15.5-11.4c-2.5-0.5-5.1-0.9-7.6-1.4
			c-1.3,0.1-2.6,0.3-3.9,0.4c-0.6-0.2-1.5-0.9-2.1-1.2c-0.7-0.2-1.4-0.4-2.1-0.6c-1.1-0.7-1.5-2.2-2.7-2.9c-0.9-0.5-2.6-0.4-3.6-1.1
			c-0.3-0.4-0.5-0.8-0.8-1.2c-1-0.7-2.1-1.4-3.1-2.1c-0.6-0.1-1.2-0.3-1.8-0.4c-0.2-0.4-0.5-0.9-0.7-1.3c-1-1.3-3.3-2.9-5.4-3
			c-1.2-2.9-3.4-5.6-7.4-5.6c-0.8-2.9-1.7-5.1-4.1-6.3c-1.1-0.4-2.1-0.7-3.2-1.1c-0.6-0.4-0.7-1.4-1.1-1.9c-1.3-1.8-3.3-2.8-5.8-3.5
			c-0.5-2.2-0.8-3.8-2.9-4.4c-0.4-1.7-0.8-3.2-2.6-3.7c-0.1-1.6,0.3-4.7,1-5.6c0.7-0.8,1.3-0.9,1.4-2.5c0.2,0,0.3-0.1,0.5-0.1
			c1-0.5,1.5-2.1,1.4-3.6c2.1-0.6,2.8-2.6,2.5-5.3c2.3-0.3,4.3-1.6,4.4-4.4c2.8-1,6.4-2.9,4.7-7c1.1-0.9,2.9-1.2,3.8-2.3
			c0.4-0.5,1.3-2.7,1.6-2.9c1.8-1.1,2.8-1.5,3.3-3.9c2.1-1,3.9-1.3,4.7-3.6c0.1-0.7,0.2-1.3,0.3-2c0.9-1.4,5.5,0.6,5.5-4.7
			c1.7-0.9,5-1.3,5.1-3.9c1.2-0.5,2.4-0.6,3.1-1.8c0.3-0.5,0.2-0.9,0.6-1.2c0.8-0.6,2.4-0.6,3.3-1.1c0.9-0.6,0.7-1.7,1.4-2.2
			c0.5-0.4,1.1-0.1,1.7-0.4c0.3-0.6,0.7-1.1,1-1.7c0.6-0.2,1.3-0.4,1.9-0.6c0.6-0.5,1.1-1,1.7-1.5c0.8,0,1.6-0.1,2.4-0.1
			c1-0.4,2.7-1.4,3.3-2.6c0.8-0.4,1.6,0.3,2.6,0c0.9-0.3,1.6-1,2.5-1.3c1.4-0.5,5.8,2.5,6.9,2.8c1,0,1.9,0,2.9,0
			c0.8,0.2,1,0.9,1.6,1.3c0.7,0.1,1.5,0.3,2.2,0.4c1,1.1,2,2.2,3,3.3c1.9,4.3-4.9,12.8-6.9,15.1c-2.2,2.5-4,5.2-6.2,7.7
			c-3,3.4-6.3,6.7-8.6,10.8c-0.5,1-0.5,2.1-1,3.1c-0.6,0.8-1.1,1.6-1.7,2.4c-1.1,2.7-1.8,5.1-2.9,7.9c-1.1,2.9-5.3,10.8-3.7,13.6
			c0.9,1.4,5-0.3,6.4-0.6c1.8-0.4,3.3-0.4,4.6-1.4c0.7-0.7,1.4-1.4,2.1-2.1c0.9,0,1.8-0.1,2.7-0.1c2.1-0.5,3.1-2,3.8-3.9
			c2.7-1,5.4-1.4,6.4-4.1c3.6,0.2,6.6-0.3,7.4-3.4c0.5-0.2,1.3-0.1,1.7-0.2c2.2-0.5,4.1-2.7,4.8-4.8c4.3-2.1,4.8-1.3,6.4-6.1
			c1.5-0.5,3.5-1,4.4-2.3c0.6-1.2,1.1-2.5,1.7-3.7c1.2-0.9,2.9-1.1,3.8-2.3c0.6-0.7,0.4-2.1,1-2.9c0.8-1,2.8-1.2,3.7-2.2
			c1.8-1.9,1.9-6.1,1.8-9.5C505.8,226.7,508.7,225.5,507.9,220.8z M301.5,395.3L301.5,395.3c0.4-0.4,0.9-0.7,1.3-1
			c0.1,0,0.1,0.1,0.2,0.1c0,0.4,0.1,0.7,0.1,1.1C302.6,395.5,302,395.4,301.5,395.3z M319.2,384.8h0.1c0,0.1,0.1,0.2,0.1,0.3
			c-0.1,0-0.1,0.1-0.2,0.1C319.2,385.1,319.2,385,319.2,384.8z M308.1,395.3c-0.7,0-1.3,0.1-2,0.1c-0.3-0.2-0.6-0.4-0.9-0.6
			c-0.1-0.6-0.1-1.1-0.2-1.7c0.6-0.4,1.3-0.8,1.9-1.2c0.3,0.4,0.1,0.9,0.2,1.2c0.2,0.4,0.8,0.8,1,1.2
			C308.1,394.7,308.1,395,308.1,395.3z M313.1,394.9c-0.5,0.1-1.1,0.3-1.6,0.4c-0.5-1.8-2-2.6-2.3-4.4c0.7,0.2,0.6,0.3,1.5,0.3
			c0.3-0.5,0.5-0.9,0.5-1.7c0.7,0.4,1.3,4.4,1.9,5.3C313.1,394.9,313.1,394.9,313.1,394.9z M316.3,394.5c-0.3-0.8-0.7-0.9-0.8-1.7
			c-0.2,0-0.4,0-0.6,0c-0.7-1.3-1.3-2.8-1.3-4.6c0.5-0.4,1-0.7,1.5-1.1h0.1c0.1,0.1,1.4,6.4,1.6,7.4
			C316.6,394.5,316.5,394.5,316.3,394.5z M320.9,394.5c-0.2,0-0.4,0.1-0.6,0.1c-2.2-1.6-2.1-4-2.8-7.1c0.5-0.6,1-0.3,1.6-1
			c0.3,0.5-0.1,1,0.1,2c0.4,1.9,0.8,4.2,1.7,5.7C320.9,394.3,320.9,394.4,320.9,394.5z M322.5,382.8c0.1,0,0.3,0,0.4,0
			c-0.2,2-0.1,7.2,0.9,9.1c0.4,0.8,0.8,1.4,1.1,2.4C321,393.4,320.6,385.7,322.5,382.8z M328.4,393.7c-0.1,0-0.3,0.1-0.4,0.1
			c-0.1-0.1-0.2-0.2-0.3-0.3c-0.2-0.2-0.1-0.3,0-0.8c-2.2-0.6-3.5-8.5-2.4-10.3c0.3-0.5,0.8-0.5,1.2-0.9c0.1,0,0.3,0,0.4,0
			C326.7,386.8,326.8,389.5,328.4,393.7L328.4,393.7z M332.3,393.7c-0.2,0-0.4-0.1-0.6-0.1c-0.4-1-1.1-1.3-1.6-2.1
			c-1.2-1.8-1.4-4.5-1.4-7.1c0.3-0.2,0.7-0.4,1-0.6c0.2-1.3-0.1-2-0.4-3c0.4-0.2,0.8-0.4,1.2-0.6c0.5,0.2,0.7,1.4,0.5,2.3
			c-0.9,3.6,0.8,8.3,1.6,11.1C332.5,393.7,332.4,393.7,332.3,393.7z M337.9,393.7c-0.3,0.4-1.7,0.1-2.5,0c-0.4-2.4-2.3-4-2.3-7.1
			c0.9,0.2,1.2-0.3,1.8-0.7c-0.2-1.7-0.9-1.9-2-2.6c0.1-0.6,0.1-1.1,0.2-1.7c0.5-0.9,0.9-0.7,0.7-2.1c0.7-0.3,1.4-0.7,2.4-0.7
			c-0.3,5.3,0,10.5,1.9,14.9C338,393.7,338,393.7,337.9,393.7z M340.5,393.3c-1.9-3.2-2.8-7.7-2.3-11.9c0.9,0.3,1.1,0.1,2.1-0.1
			c0-1.6-0.4-1.8-0.9-2.9c-0.1,0-0.1-0.1-0.2-0.1c0.7,0,1.4,0.1,2.1,0.1l0.1,0.1c-1.2,5.9-0.1,10,1.3,15.1
			C341.7,393.7,341.3,393.6,340.5,393.3z M345.4,393.2c-0.6-0.4-0.6-1.2-0.9-1.8c-1.2-2.3-1.6-5.2-1.3-8.1c-0.1-0.8-0.1-1.5-0.2-2.3
			c0.2-1,0.7-1.7,0.7-3.2c0.3-0.1,0.5-0.2,0.8-0.3c0.4,0.1,0.9,0.3,1.3,0.4c0,0.1,0.1,0.2,0.1,0.3c-0.5,0.1-0.5,0.2-0.9,0.4
			c-0.1,1.4,0.3,1.8,0.6,2.7c0,0.7,0,1.5,0,2.2c0.1,2.2-0.2,4.5,0.5,6.7c-0.2,0.1-0.3,0.2-0.5,0.3c0.2,1.2,1.2,2.3,1.3,3.2
			C346.6,393.5,345.8,393.5,345.4,393.2z M353.6,394c-0.8,0.1-2.9,0.1-3.7-0.5c-2.6-1.6-3.4-14.9-0.6-17.1c0.2,0.1,0.4,0.2,0.6,0.3
			c-0.5,0.5-0.8,1-0.7,1.6c-0.2,0.5,0.3,1.1,0.7,1.4c0.7,0.2,1,0.1,1.7,0c0.1-0.2,0.2-0.5,0.3-0.7c0.3-0.8-0.3-1.6-0.6-2.1
			c0.3,0.3,0.7,0.5,1,0.8c0.7,5.9-0.9,10.1,1.3,15.7C353.6,393.6,353.6,393.8,353.6,394z M356.4,394.3c-0.4-1-0.9-2-1.3-3
			c-0.2-1.3-0.5-2.5-0.7-3.8c-0.7-3.3-0.3-8,0.5-10.2c0.8,0.5,0.9,0.8,2.1,0.7c0.2-0.6,0.5-1,0.9-1.4c0.2,0.1,0.4,0.3,0.6,0.4
			c0,2.2-0.6,3.6-1.2,5.3c0.1,1.4,0.1,2.8,0.2,4.2c0.6,2.9,0.3,5.4,1.1,8.1C357.6,394.6,357.2,394.5,356.4,394.3z M363.5,254.7
			c1.9,1.7,3.6,3.7,5.8,5.1c1.9,1.2,4.1,1.8,6,3.1c2.2,1.5,5.2,3.2,7.9,3.9v0.1c-0.3,0.2-0.5,0.4-0.8,0.6c0,0.3,0.1,0.6,0.1,0.9
			c0.1,0.2,0.3,0.3,0.4,0.5c0.7-0.1,1,0,1.8-0.1c0.2-0.3,0.2-0.8,0.2-1.4c1.4,0.4,2.2,0.5,3.7,0.3c-0.4,0.6-1.3,0.7-2.3,0.7
			c-0.4,0.5-0.4,0.7-0.1,1.4c-3.4-0.1-7.5-0.7-10.7-1.9c-1.3-0.6-2.6-1.3-3.9-1.9c-1.9-0.7-3.7-0.9-5.3-1.8
			c-1.9-1.1-3.4-2.9-5.3-3.9C361.2,258.2,362.6,256.3,363.5,254.7z M388.1,279.3c0,0.1,0,0.2,0,0.3c-0.1-0.1-0.1-0.1-0.2-0.2
			l0.1-0.1H388.1z M386.6,278.2c-0.1,0.1-0.1,0.3-0.2,0.4c-0.1,0.1-0.2,0.1-0.3,0.2c-0.2-0.2-0.4-0.3-0.6-0.5c0.2-0.3,0.4-0.7,0.6-1
			C386.3,277.8,386.2,278,386.6,278.2z M360.5,262c1.9,1.4,3.8,3.4,6,4.3c1.4,0.6,3.5,0.7,4.7,1.3c4,2,9.1,4.5,14.5,4l0.1,0.1
			c-0.1,0.2-0.2,0.3-0.3,0.5c-5.7,1.2-15.2,2.9-22,1.5c-2-0.4-4-1.6-5.7-2.2C357.7,270.6,359.9,263,360.5,262z M357.3,273.4
			c1.8,0.6,3.5,1.3,5.3,1.9c4.2,1.1,11.5,0.9,16.2,0.1c1-0.2,1.5,0.6,2.7,0.4c0.1-0.3,0.2-0.6,0.3-0.9c1.4-0.5,3.2-0.6,4.5-0.6
			c0,0.3-0.1,0.6-0.1,0.9c-5.2,2.2-10.5,4-16.6,5.1c-1.6,0.2-3.1,0.5-4.7,0.7c-3-0.3-6-1.1-8.7-1.2
			C355.9,278,356.9,274.9,357.3,273.4z M354.6,281.1c8.3,2.6,18.5,1.5,25.9-1.8c0.9-0.3,1.7-0.5,2.6-0.8c0.2,0.1,0.4,0.1,0.6,0.2
			c0.1,0.6,0.1,1,0.5,1.5c-0.9,1.2-2.4,1.8-3.6,2.6c-4.9,3.4-10.3,5.7-17.2,7c-2.9,0.5-4.6-0.7-7.5-0.2
			C355.2,286.8,354.6,284.6,354.6,281.1z M356.6,291.4c2.5,0.1,5.3,0.5,7.4,0.2c8.3-1.2,15.1-5.1,20.7-9.4c1.1-0.9,2.3-1.2,3.2-2.3
			c0.7,0.1,0.9,0.4,0.8,1c0.1,0.6-0.4,0.6-0.9,0.7c-0.1,0.2-0.3,0.5-0.4,0.7c0.1,0.8,0.4,0.9,0.6,1.5c-0.4,0.3-0.8,1-1,1.5
			c-1-0.5-2.1-1.5-2.7,0c0,0.2-0.1,0.4-0.1,0.6c0.5,0.4,0.7,0.7,1.5,0.8v0.1c-3.9,5.3-8,8.8-14.3,11.8c-2.7,1.3-6.1,0.4-9.6,1
			C360.4,296.9,357.2,294.8,356.6,291.4z M442.8,397.2c0.1-0.2,0.2-0.4,0.3-0.6c1.5,0,2.5,0.5,3.3,1.3c-0.1,0.5-0.2,0.9-0.3,1.4
			c-0.1,0-0.1,0.1-0.2,0.1c-0.3-1.6-1.7-3.2-3.1-1.9C442.8,397.4,442.8,397.3,442.8,397.2z M435.4,395.7c0.1,0.2,0.2,0.3,0.3,0.5
			c-0.1,0.2-0.1,0.3-0.2,0.5c-0.1,0-0.2,0-0.3,0C435.3,396.4,435.3,396.1,435.4,395.7z M413.1,385.3c0.8,0,0.9,0.2,1.4,0.5
			c0,0.1,0,0.2,0,0.3c-0.5,0.5-0.9,0.9-1.7,1.1C413.1,386.6,413.1,386.2,413.1,385.3z M389.3,379.3c0.1,0.1,0.2,0.2,0.3,0.3
			c0,0.1,0,0.2,0,0.3c-0.1,0.1-0.3,0.3-0.4,0.4c-0.1-0.4-0.3-0.7-0.4-1.1C389,379.3,389.1,379.3,389.3,379.3z M368.5,377.4
			c0.2-0.2,0.5-0.4,0.7-0.6c0,0-0.5,1.4-0.4,1.9C368.6,378.4,368.5,378,368.5,377.4z M364.2,395.5c-0.8,0.1-2.2-0.1-2.8-0.4
			c-0.5-0.6,0-1.2-0.3-1.9c-2.2-5.2-2.4-12.6,0.5-16.9c0.4,0,0.8-0.1,1.2-0.1c0.8,0.2,1.5,0.3,1.8,0.9c0.5,1.3-1.1,5.8-1.4,7.4
			C362.5,388,363.1,392.9,364.2,395.5z M370.4,396.8c-0.9,0.3-2.6-0.6-3.4-0.7c-1.9-2.3-2.4-10.4-1.5-13.8c0.4-1,0.7-2,1.1-3
			c0.3,0.2,0.7,0.3,1,0.5c0.5-0.2,0.8-0.4,1-0.9c0.1,0,0.1-0.1,0.2-0.1c0.1,0.6,0.4,0.5,0.7,0.9c0.2,0,0.5-0.1,0.7-0.1
			c0.1-0.1,0.3-0.3,0.4-0.4c0.8-0.9-0.4-2.1-0.3-2.7c1,0.2,1.8,0.3,2.6,0.9c-0.9,1.9-1.8,3.9-2.7,5.8c0,0.1,0,0.2,0,0.3
			c-0.1-0.3-0.3-0.7-0.4-1c-0.2-0.1-0.5-0.3-0.7-0.4c-0.3,0.2-0.6,0.3-0.9,0.5c-0.2,1.1-0.1,1.4,0.3,2.3c0.5,0.2,0.8,0.2,1.3,0
			c0.9,3.3-0.8,6.9,0.3,9.8c0,0.7-0.1,0.7-0.4,1C369.9,396.1,370.2,396.3,370.4,396.8L370.4,396.8z M378.7,385.7
			c-0.3,1-0.3,2.1-0.5,2.8c-0.3,0.9-1.3,1.1-1.5,1.9c-0.4,1.5,1,1.9,1.3,2.9c0.4,1.5,0.6,4.2,0.6,5.9c-1.4,0.2-4.2-0.9-5.6-1.5
			c0.1-0.4,0.1-0.3,0.4-0.5c-0.4-0.8-0.8-1.7-1.2-2.5c-0.9-3.6-0.9-8.1,0.1-11.4c0.4-0.9,0.8-1.8,1.2-2.7c0.4-0.2,1.1-0.1,1.8-0.2
			c0.3-0.4,0.5-0.9,0.3-1.5c0.3-0.4,0.6-0.6,1.1-0.7c-0.2,0.2-0.4,0.3-0.6,0.5c0,2.2,0.8,2.5,1.2,4.1c0.4,0.3,0.4,0.4,1,0.4
			c0.2-0.1,0.3-0.2,0.5-0.3c0.2-0.5,0.3-1,0.5-1.5c-0.6-0.9-1.3-1.7-1.5-3.1c-0.3,0-0.5-0.1-0.8-0.1c-0.3-0.4-0.1,0,0-0.5
			c0.9,0.2,2.4,0.4,2.9,0.4c0,0.8,0.8,1.8,0.7,2.1C380,382.1,379.3,383.9,378.7,385.7z M386.1,392.1c0,0.8,0.1,1.7,0.1,2.5
			c-0.4,2.1-0.2,4.5,0.5,6.8v0.1c-0.9,0.2-2.3-0.6-3.2-0.8c-0.6-0.1-1.2-0.3-1.8-0.4c-1.1-0.9-2.2-9.7-1.7-11.6
			c0.7-2.4,1.5-4.7,2.2-7.1c0.1-0.1,0.2-0.1,0.3-0.2c0.3,0.5,0.6,0.9,1.3,0.7c0.2,0.2,0.7-0.6,0.9-0.8c0-0.7-0.1-1.5-0.5-1.8
			c0.1-0.2,0.1-0.2,0.3-0.4c0.2-0.1,0.5-0.2,0.7-0.3c0.6,0,1.1,0.1,1.7,0.1c-0.3,0.7-0.5,1.9,0.3,2.4c0.2,0.2,0.4,0.2,0.7,0.3
			c0.2-0.2,0.5-0.3,0.7-0.5h0.1c0.3,2-1,3.7-1.6,5.2C387.4,387,386.3,391.1,386.1,392.1z M389.6,402.6c-1-3.2-1.7-6.8-1.3-10.9
			c0.7-0.2,1.2-0.2,1.4-0.9c0.3-0.4,0.1-1.1,0.2-1.6c-0.3-0.3-0.7-0.7-1-1c0.2-2.2,1.1-4.5,2.1-6.2c0-0.1,0-0.1,0-0.2
			c0.8,1,1,2,2.7,2.1c0.2-0.1,0.3-0.2,0.5-0.3c0.1-0.8,0.1-1.6,0.2-2.4c1,0,1.5,0.2,2.2,0.3c-1,1.6,0.3,2.5-0.1,3.6
			c-1.7,4.7-3.6,12.7-1.9,18.6C394,404.5,390.8,402.9,389.6,402.6z M397.6,405.2c-1.4-1.5-0.9-4.3-1.3-6.8
			c-0.6-3.5,0.7-12.3,3.4-13.8c0.2,0.3,0.4,0.6,0.6,0.9c0.2,0.1,0.4,0.1,0.6,0.2c0.2-0.1,0.3-0.2,0.5-0.3c0.6-0.9,0.5-1.7,0-2.7
			c0.2-0.1,0.5-0.3,0.7-0.4c0.5,0.1,1,0.2,1.5,0.3c0.3,0.4,0.5,0.9,0.6,1.4c0.7,0.4,1.1,0.2,1.8-0.1c-2.3,5.5-2.7,8.9-3.5,15.2
			c-0.2,1.6,0,6.8,0.6,7.4c0,0.2,0.1,0.4,0.1,0.6C401.3,406.5,399.5,405.9,397.6,405.2z M408.9,393.2c0,1.4,0.3,1.6,1.1,2.2
			c-0.9,2.3-1.9,11.3-0.8,13.1c-0.5,0.7-3.1-0.5-4-0.8c0.7-3.2-2-8.7-0.3-12.4c0-0.1,0-0.1,0-0.2c0.3,0.1,0.5,0.2,0.8,0.3
			c0.3-0.1,0.6-0.1,0.9-0.2c0.4-0.7,0.4-1.6,0-2.6c-0.5-0.2-0.7-0.1-1.3-0.1c0.3-1.7,1.2-6.2,2.4-7.2c0.7-0.3,1.4-0.5,2.1-0.8
			c0.5,0.1,1,0.1,1.5,0.2c0,0.1,0.1,0.1,0.1,0.2c-0.4,0.3-0.5,1.1-0.5,1.7c-0.8-0.2-1,0.3-1.4,0.3c-0.2-0.1-0.3-0.3-0.5-0.4
			c-1.6-0.5-1.6,1.5-1.6,2.3c0.2,0.2,0.3,0.3,0.5,0.5c0.3,0.2,2.6,0.2,3.1,0.1c0.3-1,0.3-1.6,0-2.6c0.5,0.6,0.4,1,1.4,0.9v0.1
			c-0.5,1.7-1.3,2.7-1.6,4.4C409.9,392,409.3,392.5,408.9,393.2z M419,394.6c-0.6,3.2-2.5,8-1.9,11.9c0.3,1.7,0.6,3.5,0.6,5.1
			c0,0.1,0.1,0.2,0.1,0.3c-1.2-0.2-5.6-1.8-6.3-2.3c0.2-0.4,0.5-0.9,0.7-1.3c-0.3-0.2-0.5-0.3-0.8-0.5c-0.2-1.7-0.3-3.5-0.5-5.2
			c0.4-1.7,0-3,0.5-5c0.6-2.1,0.8-3.9,1.6-5.9c0.4-1,1.3-2,1.9-3c0.5,0.2,0.8,0.3,1.3,0.2c0,0.1,0.1,0.2,0.1,0.3c0,0.1,0,0.2,0,0.3
			c-0.2-0.1-0.3-0.2-0.5-0.3c-0.2,0.1-0.5,0.2-0.7,0.3c-0.4,0.6-0.5,0.9-0.5,2c0,0.1,0.1,0.1,0.1,0.2c1.6,1.2,2.3-0.2,2-1.7
			c0.4,0.1,0.8,0.2,1.2,0.3c0.3-0.2,0.6-0.3,0.9-0.5c0.2-0.6,0.1-0.9,0.1-1.6c1,0.2,1.9,0.5,2.4,1.2v0.1c-0.3,0.2-2.4,2.7-2.5,2.9
			C418.3,393.5,419.2,393.7,419,394.6z M425.3,414.1c-1.7-0.5-3.4-0.9-5.1-1.4c0.2-0.9,0.4-0.9,0.4-2c-3.4-3.3,0.4-14.1,1-17.8
			c0.3,0.1,0.6,0.3,0.9,0.4c0.3-0.3,0.6-0.7,0.9-1c0.1-0.1,0.2-0.1,0.3-0.2c0.2,0.3,0.3,0.5,0.5,0.8c-0.2,0.5-0.3,0.9-0.3,1.7
			c0.1,0.2,0.2,0.3,0.3,0.5c0.4,0.2,0.8,0.2,1.3,0.1c0.4-0.7,0-2.8,0-2.8c0.3-0.6,0.5-0.8,0.4-1.7c0.4,0.2,0.7,0.3,1.1,0.5
			c0.4,3.1-1.6,5.5-2.1,8.4c-0.7,4-0.7,9.7,0.5,14.1C425.4,413.9,425.3,414,425.3,414.1z M433.5,416.4c-2.3-0.1-3.7-1.3-5.9-1.4
			c-0.1-0.1-0.1-0.1-0.2-0.2c0.2-0.7,0.3-1.4,0.5-2.1c-0.2-1-0.7-1.4-0.9-2.4c-0.6-2.5-0.6-5.9-0.3-8.9c0.4-0.1,0.8-0.2,1.2-0.3
			c0.7-1.1,0.4-2.3-0.3-3.3c0-0.1,0.1-0.2,0.1-0.3c0.2,0.1,0.5,0.3,0.7,0.4c0.3-0.1,0.6-0.1,0.9-0.2c0.2-0.5,0.5-0.9,0.7-1.4
			c-0.4-0.6-0.5-1.3-1.2-1.7c0-0.1,0-0.1,0-0.2c1-0.3,2.5-1.4,3.1-2.1c0.2,0.1,0.5,0.1,0.7,0.2c0.1,0.9-0.2,1.8,0.8,2.2
			c0,2.1-1,3.6-1.4,5.3c-1.1,4.4,0.1,12.6,1.5,16.1C433.5,416.2,433.5,416.3,433.5,416.4z M435.8,416.9c-0.1-0.4-0.1-0.9-0.2-1.3
			c0.2-0.2,0.5-0.5,0.7-0.7c-0.2-0.8-1.2-0.9-1.5-1.7c-0.8-2-1.7-9.5-0.8-11.5c0.4-0.5,0.9-1,1.3-1.5c-0.3-0.4-0.6-0.5-0.8-1
			c0.1-0.2,0.1-0.3,0.2-0.5c0.4,0.2,0.5,0.5,1.1,0.6c0.3,0.1,0.4,0,0.6-0.2c0.9-0.4,1.3-3.9,1.3-4.9c1,0.3,1.3,0.3,1.8,1
			c-1.9,5.7-1.9,17.1,0.7,22.3C438.8,417.6,437.3,417.1,435.8,416.9z M449.7,418.4c-2.3,0-4.5-0.2-7.1-0.4c0.4-1.9-1.9-4.5-2.2-6.9
			c-0.5-4,0.3-7.4,0.5-11.7c1.2,1.4,1.4,0.4,2.5,0.9c0.9,0.5,0.9,1.2,2.2,0.4c0.7,0.9,0.5,2.6,0.5,4.2H446c-0.2-0.5-0.3-0.9-0.5-1.4
			c-0.1,0-0.2-0.1-0.3-0.1c-0.9,0.1-1,0.5-1.6,0.8c-0.1,1.1,0.3,1.3,0.7,2.2c0.1,0,0.1,0.1,0.2,0.1c0.9-0.3,0.9-0.6,1.5-1.1
			c0.1,0,0.1,0.1,0.2,0.1c-0.3,4.9,2.1,9,3.5,12.8C449.7,418.4,449.7,418.4,449.7,418.4z M452.9,418.4c-0.5-0.3-1.3-1.3-1-1.7
			c-0.3-0.6-1.1-0.9-1.5-1.5c-1.2-1.9-3.2-11-2.5-13.3c0.2-0.3,0.4-0.5,0.6-0.8c-0.2-0.7-0.3-1.4-0.5-2.1c0.3-0.9,0.7-1.9,1-2.8
			c0.4,0,0.9,0.1,1.3,0.1c0,0.1,0.1,0.1,0.1,0.2c-0.2,0.4-1.1,1.2-1.5,1.9c0,0.7,0.3,1.1,0.8,1.3c0.4,0.2,0.8,0,1.2-0.1
			c0.3-0.4,0.4-0.6,0.3-1.1c0.2,0,0.3-0.1,0.5-0.1c-0.1,1.7-1.4,2-1,3.5c0.3,0.8,0.8,0.6,1.4,1.1c0.6,1.7,1.1,3.5,1.7,5.2
			c0.7,1.5,1.5,3,2.2,4.5c1.1,1.6,3.2,3.7,3.6,5.8C457.8,418.7,454.3,419,452.9,418.4z M462.8,418.4c-1.2-1-2-2.5-2.9-3.9
			c-3.1-4.9-7.4-10.4-6-18.3c0.6-0.2,1.3-0.5,1.9-0.7c0.3,0.1-0.4,1.1-0.4,1.5c-0.2,1.1,3.5,2.9,4.1,3.8c1.5,2.5,3.1,5.1,4.6,7.6
			c1,1.1,1.9,2.2,2.9,3.3c1,1.7,2.1,3.3,3.6,4.5c0,0.1,0.1,0.2,0.1,0.3C468.2,417.1,465.6,417.7,462.8,418.4z M473.1,415.9
			c-0.9-1-1.5-2.1-2.7-2.8c0.3-3.7-1-1.1-2.4-2.8c-2.2-2.5-3.8-5.1-5.4-8.2c-0.3-0.4-0.6-0.7-0.9-1.1c-0.1-0.5,0.3-1,0.3-1.7
			c-1.6-1.1-2.8-2.5-2.8-5.3c0.3-0.2,0.6-0.4,0.9-0.6c2.2,1.2,3.5,3.9,5.6,5.3c3.3,2.2,6.5,4.7,9.8,6.8c3.4,1.7,6.7,3.3,10.1,5
			C481.9,413,477.7,414.5,473.1,415.9z M494.7,398.6c-0.7-0.2-1-0.4-2-0.4c-0.3,0.4-0.6,0.7-0.7,1.4c0.1,0.2,0.1,0.3,0.2,0.5
			c0.5,0.3,0.8,0.4,1.7,0.4v0.1c-0.7,2.2-1.9,5.5-3.9,6.6c-0.4,0-0.8,0.1-1.2,0.1c-0.7,0.2-1.3,0.7-1.8,1.1
			c-7.3-2.8-14.4-6.3-19.2-11.3c-1.1-1.2-3.3-1.3-4.1-3.1c0,0,0-1.9-0.1-2.1c4,1.7,9.9,3.1,15.1,3.5c0,0.1,0,0.1,0,0.2
			c-0.6,0.3-0.7,0.8-0.6,1.6c1.1,0.8,2.6,0.2,4-0.1c0.3-0.5,0.2-0.8,0.3-1.4c2.4-0.2,4.4,0.2,6.7-0.1c-0.2,0.8,0,1.1,0.4,1.8
			c0.6,0.1,1.2,0.2,1.8,0c0.4-0.2,0.5-0.3,0.6-0.7c-0.1-0.4-0.1-0.9-0.2-1.3c0.7-0.1,1.5-0.2,2.2-0.3c0.2,0.1,0.3,0.2,0.5,0.3
			C494.7,396.1,494.9,397.7,494.7,398.6z M479.3,395.4c0.2,0,0.3,0,0.5,0c-0.1,0.1-0.3,0.1-0.4,0.2
			C479.4,395.6,479.3,395.5,479.3,395.4z M489.6,379.7c0.6,0.3,1.1,0.6,1.4,1.3c0.4,0.9-2.4,2-2.4,3.7v0.1c0.4,0.3,1,0.4,1.5,0.6
			c0.8-0.4,1.7-1,2-1.9c0.8,0.3,1.3,2.3,1.4,3.3c-1.1,0.1-1.6,0.8-1.8,1.8c-0.8-0.2-2-0.6-2.5,0.2c-0.8,1.3,0.5,1.9,1.8,1.8
			c0.3-0.3,0.5-0.5,0.7-0.9c0.9,0.4,1.5,0.5,2.3,0c0.3,1,0.2,1.7,0.1,2.5c-6,2.5-18.1,1.6-24.7-0.5c-2.4-0.8-5.2-1-6-3.3
			c0.1-0.3,0.2-0.7,0.3-1c0-0.1,0.1-0.1,0.1-0.2c5.8,1.3,15.7-1.4,19.7-3.8c1.1-0.7,3.1-1,3.7-2.2c0.6,0.1,0.9,0.2,1.5,0.1
			C489.4,381,489.3,380.4,489.6,379.7z M485.5,370c-0.2,0.6-0.4,0.8-0.4,1.6c0.4,0.4,0.7,0.7,1.3,0.9c0.4-0.1,0.7-0.3,1.1-0.4
			c0.6,0.5,1,1.3,1.3,2.1c-0.8,0.4-0.9,0.4-1.4,1c0,0.7,0.2,1,0.7,1.2c-0.1,2.1-2.4,3.3-4,4.3c-0.9,0.6-1.8,1.3-2.7,1.9
			c-1.9,1-11,3.1-13.5,2.8c-1.3-0.2-3.4,0.3-4.7-0.4c-0.6-1.3-1.3-2.7-1.9-4c6.4-0.8,8.9-1.5,13.6-4c1.6-0.9,4-1.1,4.9-2.7
			c0.2-0.1,0.5-0.3,0.7-0.4c0.3,0.6,1.1,1.4,2.1,1c0.2-0.2,0.5-0.3,0.7-0.5c-0.1-0.5-0.1-1.1-0.2-1.6c-0.5-0.2-0.7-0.3-1.2-0.2
			c0.5-1.9,1.9-1.9,3.4-2.6C485.4,370,485.4,370,485.5,370z M478,364c1.4-0.2,1.2-0.2,2.6,0.1c0.4-0.2,0.8-0.4,1.2-0.6
			c0.5-0.2,0.9,0.3,1.1,0.9c-1.9-0.1-2.7,1-3.5,2.2c0,1,0.5,1.3,1.1,1.6c0.3,0,0.7,0,1,0c0.7-0.6,1.8-1.5,1.9-2.7h0.1
			c0.3,1.4-3.6,6.9-4.8,6.7c-0.6,1.6-2.4,1.8-3.9,2.7c-4,2.3-9.5,4.9-15.6,4c-0.5-1-1.4-2.3-2.3-3c0-0.1,0-0.3,0-0.4
			c7.9-0.6,13.3-5.7,17.5-10.2c0.8-0.8,1.8-1.1,2.3-2.2C477.1,363.5,477.4,363.7,478,364z M474.2,357.2c0-0.3,0-0.5,0-0.8
			c0.6,0.1,1.1,0.1,1.7,0.2c0.1,0.1,0.2,0.1,0.3,0.2c-0.2,0.5-0.4,0.5-1,0.6c-0.2,0.3-0.3,0.7-0.5,1c0,1.3,1.1,1.1,1.9,1.6
			c-0.3,0.6-0.7,1.1-1,1.7c-0.9,0.2-1.6,0.1-2.2,0.4c-0.1,0.5,0.1,1.4-0.1,2c-0.4,0.9-1.9,1.6-2.7,2.2c-0.5,0.5-1,1.1-1.5,1.6
			c-2.6,1.9-4.6,3.2-8,4.4c-1.7,0.6-4.1,1.8-6.4,1.2c-0.7-0.3-1-1-1.4-1.6c5.9-1.5,9.4-6.6,13.8-9.7c1.8-1.2,3.8-2.4,4.4-4.7
			C472.9,357.7,473.1,358,474.2,357.2z M439.9,320.7c0.6-0.1,1.1-0.1,1.7-0.2c0.3,0,0.6,0,0.9,0c0.5,0.5,0.8,0.8,1.6,1.1
			c0.6-0.2,1-0.4,1.4-0.9c0.1,0,0.3,0,0.4,0c-0.1,0.4-0.2,0.9-0.3,1.3c0.4,0.7,0.8,1,1.6,1.4c0.4-0.1,0.7-0.1,1.1-0.2
			c0.6-0.9,0.3-1.5-0.4-2.1V321c0.8,0,1.7,0.1,2.1,0.5c-0.4,0.5-0.4,0.7-0.4,1.4c0.2,0.1,0.3,0.3,0.5,0.4c0.4,0.4,1.1,0.6,1.6,0.2
			c0.4-0.2,0.6-0.6,0.7-1.1c1,0.1,2.3,0.9,2.7,1.6c0.2,0.3,0,1,0,1.6c0.3,0.2,0.7,0.5,1,0.7c0.9-0.1,0.9-0.3,1.6-0.5
			c0.1,0,0.1,0.1,0.2,0.1c0.1,0.2,0.3,0.3,0.4,0.5c-0.8,0.3-1.2,0.3-1.2,1.4c0.2,0.2,0.4,0.3,0.6,0.5c0.4,0,0.7,0.1,1.1,0.1
			c0.3-0.2,0.4-0.3,0.5-0.7c0.1-0.1,0.2-0.1,0.3-0.2c0.4,0.4,0.9,0.9,1.3,1.3c-0.8,0.6-2.4,1.3-3,2.1c-0.1,0-0.1,0-0.2,0
			c0.2,0.9,0.6,1.2,1.3,1.6c1-0.1,1.3-0.5,2-0.8c0.7,0.3,1.2,0.2,2.1,0.2c0.1,0.2,0.2,0.5,0.3,0.7c0.2,0.3-0.2,1.1-0.2,1.8
			c-0.8-0.1-1.6-0.2-2.4-0.3c-0.4,0.3-0.6,0.5-0.9,0.9c0,0.4,0,0.6,0.2,0.8c0.2,0.3,0.7,0.5,1.1,0.7c0.6-0.1,1.3-0.3,1.9-0.5
			c0.5-0.2,0.5-0.5,0.7-1.1c0.3-0.1,0.7-0.1,1-0.2c0.4,0.9,0.9,1.9,1.3,2.8c-0.6-0.1-1.2,0.1-1.8,0.2c-0.2,0.7-0.3,0.7-0.1,1.4
			c1,0.6,2.4,0.6,3.3,1.3c0,0.1,0.1,0.2,0.1,0.3v0.1c-0.5,0-0.9,0-1.4,0c-0.2,0.4-0.3,0.7-0.5,1.1c-0.3-0.3-0.5-0.4-1-0.6
			c-0.9,0-1.3,0.2-1.6,0.8c0,0.2-0.1,0.5-0.1,0.7c0.4,0.5,1,0.9,1.9,0.7c0.6-0.3,0.6-0.8,1.1-1.2c0.8,0.5,1.3,0.4,2-0.1
			c0.8,0.7,1.1,2.1,1.4,3.2c-1.1,0.5-1.8,0.8-2.4,1.7c0.1,1.1,0.7,1.5,1.9,1.5c0.3-0.4,0.7-0.7,1-1.1c0.7,1.1,0.6,2.9,1,4.3
			c-0.4,0.4-0.7,0.5-0.8,1.2c0.3,0.6,0.6,0.8,1,1.3c-0.9,1.6-1.6,4.5-3.7,4.5c-1.2,2.6-4.1,4-6.3,5.7c-2.1,1.6-4,4-6.5,5.1
			c-4.8,2.1-9.1,0-13.4-1.1c-10.1-2.6-15.7-9.9-20.7-17.6c-1-1.6-2.4-3-3.2-4.9v-0.1c0.7,0.4,1.3,0.7,2,1.1c0.1,0,0.2-0.1,0.3-0.1
			c0.2-0.5,0-0.9-0.1-1.6C427.9,343.2,440,331.3,439.9,320.7z M461,331.5h-0.1c-0.1,0-0.2-0.1-0.3-0.1c0.1-0.1,0.1-0.2,0.2-0.3
			C460.9,331.3,460.9,331.4,461,331.5z M433.3,321.7c0.4,0.1,1,0.3,1.5,0.1c0.1,0,0.3-0.1,0.4-0.1c-0.1-0.5-0.1-0.9-0.2-1.4
			c-0.4-0.2-0.8-0.4-1.2-0.6c0.1-0.5,0.2-0.7,0.2-1.5c0.4,0.1,0.6,0.1,0.9-0.1c1.5,0,2.8,0.9,3.1,2.1c0.1,0.1,0.1,0.1,0.2,0.2
			c-0.7,0.4-1.1,0.3-1.4,1.1c0,0.2-0.1,0.4-0.1,0.6c0.4,0.4,0.5,0.6,1.2,0.7c0.6,2.3-2.2,6.7-3.2,7.9c-0.8,1.2-1.6,2.4-2.4,3.6
			c-0.7,0.5-1.3,1.1-2,1.6c-2.2,1.8-3.8,3.7-6.3,5.3c-0.9,0.5-4.4,2.8-5.5,2.8s-1.5-0.8-2.3-1.2c0-0.1-0.1-0.3-0.1-0.4
			C424,339.5,431.4,330.4,433.3,321.7z M427.1,318c-0.5-1.3,0.9-2.5,1.2-3.7c0.5,0.3,0.6,0.9,1.3,1.2c0.8,0,0.9-0.2,1.4-0.5
			c0.1,0.5,1.1,3.2,0.9,3.9c-0.5,2.1-1.1,4.3-1.6,6.4c-1.9,4.8-5.2,8.1-8.8,11.2c-1.8,1.6-4,3.7-6.8,4.3c-1.7,0.3-3.8-2.8-5.4-3.3
			c-0.1-0.1-0.1-0.2-0.2-0.3c6.9-2.8,11.4-6.6,14.9-12.7c0.8-1.4,2-2.5,2.2-4.5c0.4-0.1,1.2-0.1,1.5-0.3c0.3-0.2,0.2,0,0.3-0.4
			c0-0.4,0-0.8,0-1.2C427.7,318.1,427.4,318.1,427.1,318z M421.1,310.6c0.1,0,0.2,0,0.3,0c-0.1,0.1-0.3,0.3-0.4,0.4
			C421,310.9,421.1,310.8,421.1,310.6z M421.2,316.2c0.1-0.1,0.3-0.3,0.4-0.4c0.3-0.3,0.4-0.4,0.4-1c-0.2-0.2-0.4-0.5-0.6-0.7
			c-0.7-0.1-1.1-0.1-1.6,0.3c0.1-1,0.5-2,1-2.8c0-0.1,0.1-0.1,0.1-0.2c0.4,0.8,0.4,0.9,1.2,1.3c0.2,0,0.3,0,0.5,0
			c0.2-0.2,0.3-0.4,0.5-0.6c0-0.2,0-0.5,0-0.7c-0.3-0.6-0.7-0.8-1.5-0.8v-0.1c0.3-0.1,0.6-0.1,0.9-0.2c0.9,0.1,1.6,0.5,2.2,0.9
			c2,1.5,0.1,7.3-0.5,9.3c-1.4,4.6-6.7,10.3-10.5,12.7c-2,0.9-4.1,1.8-6.1,2.7c-2-0.3-2.8-2.5-4.6-3.2c-0.1-0.1-0.2-0.3-0.3-0.4
			c3.1-2,8.9-4,10.9-6.8c1.3-1.8,2.2-3.7,3.4-5.7c0.8-1.4,2-3,2.4-4.8h0.1C420.1,315.5,420.3,316,421.2,316.2z M414.7,305.6
			c0.6,0.2,1,0.4,1.9,0.4v0.1c-0.6,0.2-0.7,0.4-1,0.9c0,0.2,0,0.3,0,0.5c0.5,0.3,0.9,0.6,1.4,0.9c0.3-0.3,0.6-0.6,0.9-0.9
			c0.3-0.4,0-0.7-0.3-1.1c0.6,0.1,1.6,0.5,1.8,1.1c0.4,1.1-0.7,1.9-0.9,2.5c0.1,0.5,0.2,1.1,0.3,1.6c-0.9,2.1-1.8,4.3-2.7,6.4
			c-2.8,5.4-5.4,7.5-10.5,10.6c-1,0.6-3.5,2.6-5.4,2c-1.7-1.1-3.3-2.1-5-3.2c0-0.1-0.1-0.1-0.1-0.2c0.8-0.7,2.3-0.5,3.4-0.9
			c1.2-0.6,2.3-1.2,3.5-1.8c4.3-2.7,9.1-7.4,11-12.5c0.2-1.1,0.4-2.1,0.6-3.2C414,308,414.7,306.8,414.7,305.6z M408.1,303.2
			c0.1-0.1,0.3-0.3,0.4-0.4c0-1.1-0.4-1.1-0.8-1.7c0.1-0.4,0.2-0.7,0.3-1.1c0.6,0.2,1.1,0.4,1.7,0.6c-0.3,0.5-0.4,0.6-0.3,1.3
			c0.4,0.2,0.7,0.4,1.1,0.6c0.5-0.1,0.9-0.3,1.4-0.4c0.4,0.2,0.7,0.5,1.1,0.7c-0.1,0.8-0.3,1.5-0.4,2.3c-0.7,0.1-0.8,0.4-1.2,0.7
			c0,0.3,0,0.6,0,0.9c0.3,0.2,0.5,0.5,0.8,0.7c-0.6,6.7-7.4,13.9-12.8,16.3c-1,0.4-5.1,2.2-6.6,1.8c-2.5-0.7-4.1-3.5-6.5-4.5
			c0-0.1-0.1-0.1-0.1-0.2c7.9-1.1,19.1-10.3,20.6-17.4C407.4,303.4,407.8,303.4,408.1,303.2z M401.2,293.8c0.3,0.2,0.5,0.3,0.8,0.5
			c0.1,0.1,0.2,0.3,0.3,0.4c-0.4,0.2-0.5,0.3-1,0C401.1,294.5,401.1,294.3,401.2,293.8z M404.2,296.2c0.1,0,0.1,0,0.2,0
			c-0.4,0.6-0.8,0.5-0.8,1.6c0.6,0.8,1.3,1.8,2.2,2.4c-1.6,8.3-12.2,18.7-21.5,19.2c-1.9-1.4-3.8-2.8-5.7-4.2c0-0.1-0.1-0.1-0.1-0.2
			v-0.1c10.3-2.1,17.7-9.8,21.5-18.5C401.4,296.6,403.2,297,404.2,296.2z M394.7,288.6c1.6,0.4,2.3,1.2,3.5,2.1
			c-0.2,0.5-0.5,0.9-0.7,1.4c0.2,1.1,0.9,0.8,1.6,1.3c-0.9,2.5-1.9,5.9-3.4,7.9c-2.3,3-5.5,6.1-8.7,8.1c-1.4,0.6-2.7,1.2-4.1,1.8
			c-1.4,0.8-4.4,2.5-6.4,2.1c-1.3-0.3-5-3.6-5.8-4.7c4.7-0.2,8-2.7,11.3-4.7c0.6-0.4,1.5-0.5,1.9-0.8c2.4-2.1,4.7-4.6,6.6-7.2
			C392.1,293.8,394.1,291.8,394.7,288.6z M389.8,286c0.6,0.3,0.8,0.3,1.7,0.3c0.4-0.8,0.2-1-0.3-1.6c-0.7-0.2-0.9-0.3-1.4,0
			c0.1-0.4,0.3-0.6,0.6-0.8c0-0.3-0.1-0.6-0.1-0.9c0.3,0.1,2.2,2.7,2.3,3c0.1,0.1,0.1,0.1,0.2,0.2c-0.3,0.3-0.7,0.7-1,1
			c0.1,0.6,0.2,0.9,0.8,1c-0.5,4.1-6.5,11-9.5,13c-1.9,1.3-3.8,2.1-5.9,3.2c-1.7,0.9-6.4,3.6-9,2c-1.6-1.7-3.2-3.4-4.8-5.1v-0.1
			c1.4,0.3,3.6,0,4.5-0.2c9.6-2.1,13.5-5.9,18.6-12.5C387.4,287.3,388.8,287.1,389.8,286z M389.7,265.8c-2.4,1-5.6-0.6-7.5-1.4
			c-4.8-1.9-9.6-4.2-13.5-7.1c-1.2-0.9-3.1-3.6-4.2-4c1.1-1.6,2.1-3.3,3.2-4.9c1.1,0.4,2.9,3.7,4,4.6c1.2,0.8,2.3,1.5,3.5,2.3
			c2.7,2.4,5.9,5,9.7,6.3c-0.5,0.2-0.7,0.2-1,0.7c-0.3,0.8,0.6,1.3,1.4,1.4c0.3-0.2,0.6-0.3,0.9-0.5c-0.1-0.6-0.2-0.7-0.4-1.1
			c0.6,0.3,1.2,0.5,1.8,0.8c0.8,0.9,0.9,2,2.1,2.4C389.7,265.5,389.7,265.7,389.7,265.8z M391.6,262c-1,0.2-1.5-0.2-2.3-0.4v-0.1
			c0.3-0.3,0.6-0.5,1-0.5c0-0.1,0.1-0.1,0.1-0.2c-0.1-0.4-0.2-0.7-0.3-1.1c-0.6-0.2-1.1-0.2-1.8-0.1c-0.1,0.2-0.3,0.3-0.4,0.5
			c0.2,0.5,0.4,0.7,0.6,1.1c-3-1.2-6.3-2.5-8.9-4.3c-1.6-1.3-3.1-2.6-4.7-3.9c-2.1-1.4-5.2-3.6-5.9-6.3c1-1.2,2-2.5,3-3.7
			c0.8,1.2,1.6,2.5,2.4,3.7c3.1,3.9,12.8,11.9,18.6,12.8C392.5,260.4,392.1,261.2,391.6,262z M390.2,256.5
			c-4.2-2.3-16.2-9.9-16.9-15.5c1-1.4,2-2.7,3-4.1c0.7,0.7,0.9,1.9,1.4,2.9c1.9,2.4,3.9,4.8,5.8,7.2c2.2,1.8,4.4,3.6,7,4.9
			c1.2,0.6,2.8,0.7,3.7,1.6c0.2,0.2,0.2,0.4,0.2,0.9c0.5,0.4,0.8,0.5,1.8,0.5C395.7,256.9,392,257.5,390.2,256.5z M398.2,252.3
			c-1.7,0.6-5-1.3-6.3-2c-1.4-0.7-2.7-1.1-3.9-1.9c-3.4-2.2-9.8-8.6-10.1-13.6c1.5-1.6,2.9-3.2,4.2-5c0.7,0.4,1.4,3.9,2,4.8
			c2.7,4,6.2,7.6,10,10.5c-0.2,0.5-0.5,0.7-0.3,1.3c0.2,0.4,0.6,0.6,1.1,0.8c1-0.1,1-0.5,2-0.5c0,0.1,0.1,0.1,0.1,0.2
			c-0.6,1.5,0.5,0.9,1.4,1.5c0.8,0.5,0.6,1.3,2,1.1C399.8,250.8,398.7,251,398.2,252.3z M401.3,248.1c0,0.1-0.1,0.2-0.1,0.3h-0.1
			H401c0-0.1,0-0.3,0-0.4C401.1,248,401.2,248,401.3,248.1L401.3,248.1z M403.9,245c-0.8,0.6-1.9,0.2-2.4,1.2c-6.1-0.2-12-7-15-11.2
			c-0.8-1-3.4-4.8-2.7-7c0.5-1.4,2-2.2,2.9-3.3c1,0.3,4.2,5,5,6.1c2.6,3.4,8,9,12,10.3c-0.2,0.4-0.9,0.6-1.3,0.8
			c0,0.2,0.1,0.5,0.1,0.7c0.5,0.3,1.2,0.6,1.8,0.2c0.4-0.2,0.3-0.5,0.2-0.9c0.3-0.3,0.9-0.2,1.7-0.2c0,0.1,0.1,0.1,0.1,0.2
			C405.5,243,404.7,244,403.9,245z M407.6,240.4c-0.4-0.3-0.7-0.7-1.1-1c-0.6-0.2-1,0.3-1.6,0.2c-0.4-0.1-0.7-0.3-1.1-0.4
			c0.1-0.7,0-1.1-0.3-1.7c-0.9-0.2-1.4,0-1.9,0.4c-4.3-2.6-11-10.1-13.4-14.6c0.9-1.3,2.5-2.1,3.4-3.4c0.2,0,0.3,0,0.5,0
			c2.3,5.1,5.6,7.9,9.6,11.5c0.5,0.5,1.8,1.4,2.1,2c0.2,0.4,0.3,0.9,0.5,1.3c0.5,0.2,1.1,0.3,1.6,0.5c1.2,0.9,2.5,1.9,3.7,2.8
			C409.4,239.2,408.2,239.5,407.6,240.4z M413.7,234.3c-0.1-0.6-0.2-0.9-0.7-1.1c-0.6-0.3-1.1-0.1-1.6,0c0,0.3-0.1,0.7-0.1,1
			c0.6,0.4,1.1,0.6,1.9,0.5c0,0.1,0.1,0.1,0.1,0.2c-0.9,0.6-1.3,1.3-2.6,1.5c-0.2-0.2-0.4-0.3-0.6-0.5c0.6-0.8,0.3-1.5-0.6-1.9
			c-0.7,0.1-0.8,0.2-1.3,0.4c-0.8,0.5-3.2-2.4-4-3c-4.4-3.5-8.2-6.9-10.7-12.4c0.2-2.3,3.1-2.9,4.1-4.6c0.1,0,0.1,0.1,0.2,0.1
			c0.9,0.3,3,5.7,3.8,7c1.9,3.1,9.7,10.5,13.4,11.5C414.8,233.6,414.2,234.1,413.7,234.3z M419.2,229.2c-0.7,0.8-3.1,1.5-3.3,2
			c-2.5-0.3-4.3-2.1-5.8-3.5c-3.3-3-10.4-8.8-10.6-14.4c1.2-1.2,4.4-2.6,5.1-4.2c0.4,0.3,1.5,5.3,2.2,6.5c2.6,4.4,5.9,8.6,10.2,11.3
			C418.1,227.6,417.8,228.7,419.2,229.2L419.2,229.2z M422.3,226c-0.3-0.3-0.6-0.6-0.9-0.9c-0.6-0.3-1.2,0-1.5,0.4
			c0,1,0.6,1.4,1.7,1.3c0,0.1,0,0.2,0,0.3c-5.6-0.5-11.5-8.6-13.9-13c-0.4-0.8-1.3-5.6-1.5-5.8c0.4-1.4,2.4-2.3,3.4-3.2
			c0.9,0.8,1.4,2.6,2,3.6c0.7,1.1,2,2.1,2.8,3.1c2.7,3.5,6.3,10.2,10.7,11.6c0,0.1,0.1,0.1,0.1,0.2
			C424.6,224.4,423.4,225.8,422.3,226z M426.6,222.2c-5.3-3.2-7.7-6.6-11.3-11.3c-1.7-2.2-3.2-3.5-4.1-6.7c0.8-1.6,2.8-2.6,4.1-3.6
			c0.7,0.3,0.3,0.9,1.1,1.1c-1,1.2,1.4,4,2.1,5c1.4,2.1,2.2,4.4,3.8,6.3c1.3,1.5,3.3,2.8,4.3,4.6c-0.6,0.1-0.7,0.2-1.1,0.5
			c0,0.1,0,0.2,0,0.3c0.6,0.8,1.4,0.7,1.8,1.7c0.5,0.3,1.2,0.5,2,0.3C428.7,221.3,427.7,222,426.6,222.2z M427.4,219
			c0-0.3,0-0.7,0-1c0.3,0.2,0.5,0.5,0.8,0.7C427.9,218.8,427.7,218.9,427.4,219z M433.2,217.5c-2.5,1.8-4.3,0.2-5.3-2.6
			c-0.6-0.1-1.1,0.2-1.7,0c-1.9-0.6-6.3-8.1-7.5-10.2c-0.6-1-2.1-3.6-1.6-5.3s3.1-2.2,4.2-3.4c0.3,0,0.5,0,0.8,0
			c1,3.9,1.9,7.1,3.9,9.7c0.2,0.3,0.7,2.5,1.2,3.1c1.1,1.4,5,4.6,4.9,6.3c0.7,0.5,1.2,0.7,2.4,0.6l0.1,0.1
			C434.4,216.9,433.9,217,433.2,217.5z M436.3,215.2c-0.1,0-0.3,0-0.4,0c-0.2-1.5-5.1-4.1-6.2-5.6c-2.1-2.9-4-6.6-5.4-10
			c-0.3-1.5-0.7-2.9-1-4.4c1.5-2.3,5.5-3.1,6.5-4.7c0.2,0,0.4,0.1,0.6,0.1c0.7,1.5-0.5,6.4,0.1,8.6c0.4,1.3,1.2,4.3,1.8,5.4
			c1,1.8,2.5,3.8,3.2,5.8c-0.4,0.1-0.8,0.1-1.2,0.2c0,0.2-0.1,0.4-0.1,0.6c0.2,0.2,0.3,0.4,0.5,0.6c0.9,0,1.2-0.1,1.7-0.4
			c0.8,0.7,0.9,1.7,1.4,2.7C437.4,214.7,436.7,214.8,436.3,215.2z M440.1,212.7c-1.3-0.4-2.5-2.7-3.3-3.7c-3-3.8-6.2-10.3-4.9-16.4
			c0.2-0.9-0.1-2.5,0.6-3.4c1.6-2,5.4-2.2,7.2-3.5c0.2,0.1,0.4,0.2,0.6,0.3c0,0-2.5,7-1.9,8.5c0.8,2,0.3,4,0.8,6.5
			c0.8,3.6,1.8,6.3,2.8,9.8C442.4,212.1,440.7,212.4,440.1,212.7z M448.1,208.7c-0.5,0.2-1,0.3-1.5,0.5c-0.2-0.4-0.5-0.7-0.7-1.1
			c-0.5,0-0.9-0.1-1.4-0.1h-0.1c-0.1,0.2-0.3,0.5-0.4,0.7c0.2,0.5,0.4,0.8,0.9,1c-0.2,0.6-0.5,0.6-1.1,0.7c-0.1-1.2-1.1-1.1-1.4-2
			c-0.4-1.1-0.5-2.2-0.8-3.1c-1.9-6.8-2.8-13.7,0.9-18.9c0.1-0.5,0.1-0.9,0.2-1.4c1.4-1.9,4-0.6,5.4-2c1.2,1.1-1.1,3.5-1.2,4.8
			c-0.3,3.2-1.4,7.9-0.4,11.4c0.3,1-0.5,2.4-0.3,3.1C447.7,204.5,448.3,205.9,448.1,208.7z M455.2,201.8c-0.1,1.4-0.3,2.8-0.4,4.2
			c-0.2,0.4-1.1,1.2-1.5,1.5c-0.4,0.4-2.5,0.4-3.1,0.4c-2.4-4.1-4-14.5-2-19.5c0.9-2.2,2-3.9,2.8-6.4c2.2-0.2,4.6-1.4,7-1.2
			c0-0.1,0-0.2,0-0.3c0.4,0.2,6.8,0.9,6.8,0.9c0.1,0,0.1,0.1,0.2,0.1c0,0.2,0.1,0.5,0.1,0.7c-1.1,0.9-2.2,1.9-3.3,2.8
			c-1.8,2.5-3.9,6-4.9,9.1C456.1,196.6,456.2,199,455.2,201.8z M459.8,206.6c-0.1,0.3-0.1,0.6-0.2,0.9c-0.5,0.7-1.6,0.3-2.3,0.1
			c-2.8-5.5,2.2-17.5,5.3-21.3c1.3-1.7,3.6-2.3,4.7-4.2c2.7,0.6,6.8,1.1,8.8,3.6c-2.1,1.5-4.3,3.1-6.4,4.6c-2.7,2.8-4.3,6.3-6.2,10
			c-0.8,1.5-2.1,3-2.7,4.7c-0.7,0.1-1.3-0.1-1.7,0.5C459.2,206.1,459.4,206.4,459.8,206.6z M464.5,209.5c-0.4-0.5-0.3-1-0.8-1.4
			c-0.8-0.6-1.5,0.1-2.3,0.2c-0.1-0.1-0.1-0.1-0.2-0.2c0.2-2.4,1.8-4,2.7-5.7c2.3-4.5,4.6-10.1,8.5-12.8c1.1-0.7,2-1.5,3-2.2
			c0.7-0.5,2.3-0.3,2.9-0.8c2.4,0.3,5.1,2.1,6.4,3.8c-0.4,1-7.9,5-9.3,6c-2.5,1.8-5.4,4.9-7,7.6
			C467.4,205.8,466.1,208.3,464.5,209.5z M468.8,209.8c0.3,0.5,0.6,0.6,1.4,0.6c-0.2,0.5-0.5,0.9-0.7,1.4c-0.2,0.1-0.5,0.2-0.7,0.3
			c-0.6-0.6-1.6-1.5-2.5-1.8c0.2-2.3,2.9-4.5,4-6.1c1.7-2.4,3.5-5.2,5.9-6.8c1.1-0.8,2.9-1.2,3.9-2.1c0.6-0.5,1.3-1.3,2-1.7
			c1.6-0.6,3.2-1.1,4.8-1.7c2.6,1.2,4.1,4.3,6.2,5.4c0.1,0.6,0.3,0.8-0.2,1.1s-5.4,0.9-6.5,1.4c-3.6,1.6-7.1,3.8-10.4,5.8
			c-0.4-0.3-0.8-0.5-1.2-0.8c-0.3-0.2-0.4-0.2-0.8,0c-0.1,0.1-0.2,0.2-0.3,0.3c0.1,0.6,0.3,1,0.7,1.6c-1.3,1.1-2.6,2.3-3.9,3.4
			c-0.2-0.4-0.3-0.8-0.5-1.2c-0.4,0-0.7,0-1.1,0c-0.1,0.1-0.2,0.1-0.3,0.2C468.7,209.4,468.7,209.6,468.8,209.8z M471.2,212.2
			c1.7-4.8,10.4-7.9,14.6-10.8c0.2,0.3,0.4,0,0.6-0.1c1.7-0.6,2.8-0.7,4.5-1.1c0.1-0.1,0.1-0.1,0.2-0.2c3,0,6.4,1.1,6.8,4.4
			c-0.6,0.3-0.7,0.4-0.7,1.1c0.2,0.2,0.5,0.4,0.7,0.6c-0.1,0.7-0.2,0.7-0.5,1.1c0.1,0.8,0.4,0.9,0.7,1.4c0.8-0.1,0.9-0.3,1.5-0.5
			l0.1,0.1c0.4,0.3,0.4,0.5,0.5,1c-1,0.4-2.7-0.4-3.6-0.5c-2-0.3-5.3-0.4-7.6,0.1c-4.3,1-9,2.2-12.5,4.4c-1.2,0.7-2.3,1.9-3.7,2.5
			C471.8,214.9,471.7,213.3,471.2,212.2z M498.6,211c0.5,0.1,0.6,0.2,1.1,0.2c0.1,0.1,0.1,0.1,0.2,0.2c0,0.1,0,0.3,0,0.4
			c-0.4-0.1-0.7-0.3-1.1-0.4C498.5,211.2,498.7,211.4,498.6,211z M442.4,277.4c-0.1,0-0.2,0-0.3,0c0.1-0.1,0.1-0.3,0.2-0.4h0.1
			C442.4,277.2,442.4,277.3,442.4,277.4z M447.4,274.5c-0.2-0.3-0.3-0.7-0.5-1c-0.5-0.1-1.1-0.1-1.6-0.2c-0.1,0.1-0.2,0.1-0.3,0.2
			c-0.2,0.5-0.3,0.8-0.1,1.2c-0.7,0.4-1.5,0.8-2.2,1.2c0.9-2.8,1.6-5.3,2.4-7.8c0.6,0.9,1.2,1.9,1.8,2.8c0.8,1,2.4,1.5,3.2,2.5
			C449.3,273.9,448.6,274.4,447.4,274.5z M453.6,271.2c-0.6-0.4-0.9-0.9-1.5-1.2s-0.8-0.1-1.5,0c-0.1,0.3-0.3,0.7-0.4,1
			c-2.1-0.3-3.7-2.9-4.4-4.7c0.6-1.2,1.6-3.4,1.5-4.7c0.2-0.1,0.3-0.2,0.5-0.3c1.1,1,2.3,3.2,3.3,4.4c0.6,0.7,1.7,0.8,2.2,1.6
			c-0.2,0.2-0.4,0.3-0.6,0.5c0,0.4-0.1,0.7-0.1,1.1c0.1,0,0.1,0,0.2,0c0.6,0.5,2,0.6,2.4-0.2c0.9,0,1,0.2,1.6,0.4
			c0.1,0.2,0.1,0.3,0.2,0.5C456.3,270.7,455.1,270.9,453.6,271.2z M459.3,266.7c-1.1-0.2-1.2,0.9-2.4,0.6c-3.5-1-6.9-4.5-8.1-8
			c-0.4-1,1.9-4.5,2.2-5c0.8,0.4,1.1,1.4,1.6,2.1c1.5,1.9,3.2,3.7,5,5.1c0,0.1,0,0.3,0,0.4c-0.2,0.1-0.5,0.3-0.7,0.4
			c0,0.2,0,0.5,0,0.7c0.2,0.2,0.3,0.3,0.5,0.5c1.2,0.3,1.4-0.2,2.4-0.4c0.4,0.3,0.7,0.6,1.1,0.9c-0.4,0.1-0.7,0.2-1.1,0.3
			c-0.1,0.3-0.3,0.6-0.4,0.9c0.6,0.7,1.5,1,2.5,0.5c0-0.1,0.1-0.2,0.1-0.3c0-0.7-0.1-0.7-0.4-1.1c0.6,0.2,1.1,0.5,1.7,0.7
			c0,0.1,0.1,0.3,0.1,0.4C462.4,266.7,460.8,267,459.3,266.7z M452,252.4c0.3-1.8,1.9-3.4,2.8-4.8c0.1,0,0.3,0,0.4,0
			c1.2,2.8,11,12.3,14.2,13c-0.2,0.4-0.4,0.9-0.2,1.4c0.2,0.2,0.1,0.1,0.5,0.2c0.1,0.1,0.2,0.3,0.3,0.4
			C462.8,266.3,454.4,257.6,452,252.4z M476.6,257.8c-0.2-0.8-0.7-0.8-1.3-1.2c-1.2,0-1.6,0.5-1.6,1.6c0.6,0.2,1.1,0.5,1.7,0.7
			c-0.4,0.3-0.8,0.6-1.2,0.9c-0.1-0.4,0-0.7-0.5-1c-0.6-0.8-2.2-0.6-2.4,0.4c-4.2-0.6-13.5-9.2-15.1-12.8c0.2-1.6,1.7-2.1,2.3-3.3
			c6.2,0.2,16.3,9.3,19.1,13.4C477.5,257.4,477.2,257.6,476.6,257.8z M481.7,253h-0.1c0-0.2,0.1-0.4,0.1-0.6
			c0.1,0.1,0.2,0.2,0.3,0.3C481.9,252.8,481.8,252.9,481.7,253z M481.6,251.8c-0.6,0-1.2-0.1-1.8-0.1c-0.1,0.1-0.2,0.2-0.3,0.3
			c-0.1,0.8,0,1.5,0,2.7c-0.4,0-0.7-0.1-1.1-0.1l-0.1-0.1c0.1-0.4,0.1-0.9,0.2-1.3c-0.9-0.6-1.8-0.4-2.6-1.1
			c-3.8-3.4-7.9-7.1-12.8-9.4c-0.9-0.3-1.8-0.5-2.7-0.8c-0.1,0-0.1,0-0.2,0c0.1-1.7,2.2-3.8,3.6-4.3c1,0.7,2.3,0.4,3.5,0.9
			c1,0.4,2.5,1.1,3.5,1.5c0.2,0.1,0.6-0.2,0.6-0.2c1,0.8,3.2,1,4.5,1.9c3,2.2,6.5,5.4,8.1,8.9C482.9,251.1,482.1,250.3,481.6,251.8z
			 M487,247.5c-0.1,0.1-0.2,0.1-0.3,0.2c-0.9-1-1.6-0.8-3-0.6c-2.6-2.5-4.5-5.4-8-7c-1.7-0.8-3.6-0.9-5.5-1.8
			c-1.5-0.7-3.1-1.6-5.3-1.7c-0.1-0.1-0.2-0.2-0.3-0.3c0.9-1.4,2.4-2.6,3-4.1c0.6-0.3,0.9-0.2,1.7-0.5c5.6,0,10.9,3.8,14.5,6.5
			c1.4,1.1,3.6,3.2,2.9,4.8c0.7,1.2,1.1,0.7,2.4,1.1c0.1,0,0.1,0,0.2,0C489.1,246.2,487.2,245.5,487,247.5z M490.3,243.4
			c0.1-0.2,0.2-0.4,0.3-0.6c-2.1-1.2-3.7-3.8-5.4-5.5c-2.8-2.7-6.9-4.7-11.2-5.9c-1.2-0.3-2.8-1.2-4-1c-0.1,0-0.3-0.1-0.4-0.1
			c0.6-1.6,1.9-2.7,2.3-4.5c0.6-0.4,1.3-0.2,2.1-0.5c2.4,0.9,5.5,0.4,7.8,1.9c3.9,2.6,8,6.1,10.4,10.2c-0.4,0.3-0.6,0.4-0.8,0.9
			c0.1,0.3,0.2,0.4,0.4,0.6c0.3,0.5,1.3,0.6,1.6,0c0.2,0,0.3,0,0.5,0c0,0.2,0.1,0.3,0.1,0.5C492.6,240.8,492.2,242.4,490.3,243.4z
			 M499.7,229.2c-0.6,0.1-1.3,0.2-1.9,0.3c-0.1,0.3-0.1,0.6-0.2,0.9c0.5,0.3,1,0.7,1.5,1c-0.1,1.1-0.8,2.7-1.5,3.4
			c-0.2,0.2,0,0.1-0.3,0.1c-0.7,0.1-1.1-1.1-1.7-1.5c-0.4,0.1-0.8,0.1-1.2,0.2c-0.2,0.4-0.5,1-0.1,1.4c0.4,0.6,1.3,0.4,1.8,0.9
			c0.1,0.3,0.2,0.6,0.3,0.9c-0.4,0.6-0.9,0.9-1.4,1.1c-0.7-1.6-2-2.3-2.9-3.5c-3.9-5.2-10.5-10.3-19-10.4c0-0.1-0.1-0.1-0.1-0.2
			c0.2-0.6,0.3-1.2,0.5-1.8c0.5-0.8,4.7-2.2,6-2c0-0.1,0-0.2,0-0.3c1.2,0.3,4.9,0.3,5.7,0c1.2,1.1,4.1,1.1,5.8,1.7
			c1.9,0.7,7.1,3.2,8.2,4.7c0.2,0.8,0.5,1.5,0.7,2.3C499.8,228.7,499.8,229,499.7,229.2z M502.1,221.9c-0.4-0.2-0.9-0.4-1.3-0.6
			c-1.1,0.1-1.7,1.6-1.9,2.5c-1.3-0.4-2.4-1.4-3.5-2.1c-1.8-1.1-7.2-2.6-9.4-3.1c-2.4-0.5-6.1-0.5-8,0c-1.4,0.4-2.6,1.3-4.2,1.4
			c-0.1-0.9-0.1-1.8-0.2-2.7c2.5-1,0.8-0.6,2.1-1.9c1.1-0.7,2.2-1.3,3.3-2c1.2-0.4,2.3-0.7,3.5-1.1c5.1-2,7.8-2.7,13.5-2.1
			c0.4,0.4,0.7,0.8,1.1,1.2c0.6,1.9-1.6,1.7,0.8,3.2c0.3-0.1,0.6-0.1,0.9-0.2c0.1-0.4,0.3-0.8,0.4-1.2c0.6,0.1,1.2,0.2,1.8,0.3
			c0.3,0.2,0.4,0.4,0.4,0.9c-0.6,0.7-1.1,0.7-1.2,1.8c-0.3,0.1-0.7,0.1-1,0.2c-0.2,0.3-0.3,0.3-0.4,0.9c0.7,0.9,2,1.3,3.4,1.3
			c0.2,0.4,0.2,0.4,0.2,1C502.9,220.1,502.3,221.4,502.1,221.9z M458,201.4c-0.1,0.1-0.2,0.1-0.3,0.2c-0.1,0.2-0.1,0.3-0.2,0.5
			c0.2,0.3,0.5,0.6,0.7,0.9c0.2,0,0.4-0.1,0.6-0.1C459.9,203.2,459.4,201.5,458,201.4z M494.7,202.9c-0.1-0.1-0.2-0.1-0.3-0.2
			c0,0.1,0,0.2,0,0.3c0.1,0,0.2,0,0.3,0C494.7,203,494.7,203,494.7,202.9z M451.8,204.5c0.1,0.3,0.2,0.7,0.3,1
			c0.5,0.1,1,0.1,1.5,0.2c0.1-0.3,0.1-0.7,0.2-1c-0.6-0.3-0.8-0.5-1.7-0.5C452,204.3,451.9,204.4,451.8,204.5z M493.6,205.6
			c0.3-0.1,0.7-0.1,1-0.2c0.1,0,0.1-0.1,0.2-0.1c0-0.1,0.1-0.3,0.1-0.4c0-0.1-0.1-0.1-0.1-0.2c-0.4-0.3-0.7-0.5-1.4-0.5
			c-0.1,0.1-0.2,0.1-0.3,0.2c0.1,0.2,0.1,0.5,0.2,0.7C493.4,205.3,493.5,205.5,493.6,205.6z M465.2,205.2c-0.1,0.1-0.3,0.1-0.4,0.2
			c0.1,0.6,0.3,0.7,0.5,1.1c0.3,0.1,0.3,0,0.5,0.2c0.4,0,0.4,0,0.6-0.2c0.1-0.2,0.1-0.3,0.2-0.5c-0.1-0.2-0.2-0.3-0.3-0.5
			C465.9,205.4,465.6,205.3,465.2,205.2z M439,208.1c-0.2,0-0.5-0.1-0.7-0.1c-0.2,0.3-0.3,0.3-0.4,0.7c0.1,0.2,0.1,0.3,0.2,0.5
			c0.6,0.2,0.9,0.2,1.6,0.1c0-0.2,0.1-0.3,0.1-0.5C439.5,208.5,439.5,208.3,439,208.1z M476.9,211.9c0.3,0,0.5-0.1,0.8-0.1
			c0.1-0.3,0.2-0.6,0.3-0.9c-0.2-0.3-0.3-0.5-0.5-0.8c-0.2,0-0.4,0-0.6,0c-0.2,0.1-0.3,0.2-0.5,0.3c-0.1,0.1-0.2,0.1-0.3,0.2
			c0,0.2,0.1,0.4,0.1,0.6C476.4,211.5,476.7,211.7,476.9,211.9z M493.2,212c-0.2,0.1-0.3,0.3-0.5,0.4c0,0.4,0,0.6,0.2,0.8
			c0.1,0.1,0.1,0.1,0.2,0.2c0.8,0.4,1.7,0.2,1.9-0.6c-0.1-0.2-0.2-0.3-0.3-0.5C494.2,212.2,493.9,212,493.2,212z M497.8,218.6
			c-0.3,0.4-0.6,0.5-0.7,1.2c-0.5,0.1-1,0.1-1.5,0.2c-0.1,0.1-0.1,0.3-0.2,0.4c0,0.3-0.1,0.6-0.1,0.9c0.3,0.1,0.3,0.1,0.5,0.3
			c0.6,0.1,1,0,1.5-0.1c0.3-0.4,0.4-0.7,0.1-1.2c0.6-0.1,1.2-0.1,1.8-0.2c0.1-0.1,0.3-0.3,0.4-0.4c0-0.2,0-0.4,0-0.6
			C499.1,218.8,498.8,218.6,497.8,218.6z M420,221.7c0,0.2,0,0.3,0,0.5c-0.2,0.9,1.6,1,2.1,0.5c0-0.2,0-0.4,0-0.6
			c-0.5-0.4-0.7-0.7-1.7-0.7C420.3,221.5,420.1,221.6,420,221.7z M493.7,223.7c-0.5-0.2-0.9-0.4-1.6-0.4c-0.1,0.1-0.2,0.2-0.3,0.3
			c0,0.2,0,0.5,0,0.7c0.3,0.2,0.5,0.4,0.8,0.6C493.6,225.4,493.9,224.5,493.7,223.7z M497.5,226.7c-0.2,0.1-0.4,0.1-0.6,0.2
			c-0.6,0.4-0.2,1,0,1.5c0.4,0,0.9,0.1,1.3,0.1c0.1,0,0.1,0,0.2,0c0.3-0.4,0.4-0.7,0.3-1.4C498.3,227,497.9,226.9,497.5,226.7z
			 M414.1,228.3c0,0.2,0.1,0.4,0.1,0.6c0.5,0.3,0.9,0.6,1.8,0.6h0.1c0.2-0.4,0.4-0.7,0.6-1.1c-0.7-0.4-1-0.6-2-0.6
			C414.5,228,414.3,228.2,414.1,228.3z M493.2,228.7c-0.7,1.2,0.4,1.7,1.6,1.6c0.2-0.3,0.3-0.5,0.3-1.1c-0.4-0.4-0.7-0.6-1.4-0.7
			C493.5,228.6,493.4,228.7,493.2,228.7z M409.5,233.6c0.3-0.1,0.5-0.1,0.8-0.2c0.5-0.7,0.4-1.3-0.3-1.8c-0.3,0-0.6-0.1-0.9-0.1
			c-0.3,0.2-0.5,0.4-0.8,0.6C408.6,232.8,408.9,233.1,409.5,233.6z M488.6,236.5c-0.1,0.3-0.2,0.5-0.3,0.8c0.5,0.8,2.1,1.4,2.6,0.3
			c0-0.2,0.1-0.5,0.1-0.7c-0.5-0.2-0.9-0.5-1.4-0.7C489.3,236.3,488.9,236.4,488.6,236.5z M397,238.9c-0.2,0.2-0.3,0.4-0.5,0.6
			c0,0.2,0,0.3,0,0.5c0.3,0.2,0.5,0.3,0.8,0.5c0.3,0,0.7,0,1,0c0.1,0,0.2-0.1,0.3-0.1c0-0.3-0.1-0.7-0.1-1
			C398.1,239.1,397.8,238.9,397,238.9z M484.9,240.8c-0.2-0.2-0.8-0.2-1.3-0.2c-0.2,0.1-0.3,0.2-0.5,0.3c-0.3,0.2-0.3,0.3-0.4,0.6
			c0.5,1.2,1.5,1.2,2.6,0.7C485.4,241.6,485.3,241.2,484.9,240.8z M401.7,243.2c-0.2,0-0.3,0.1-0.5,0.1c-0.3,0.4-0.4,0.4-0.4,1v0.1
			c0.6,0.4,1,0.6,2,0.6c0.3-0.2,0.3-0.2,0.4-0.6c0.1-0.3-0.2-0.6-0.3-1C402.5,243.4,402.1,243.3,401.7,243.2z M485,244.5
			c-0.1,0-0.1,0.1-0.2,0.1c-0.2,0.3-0.4,0.6-0.2,1.1c0.2,0.4,0.6,0.5,1,0.7c0.3,0,0.5-0.1,0.8-0.1c0.2-0.3,0.3-0.6,0.5-0.9
			C486.6,244.7,486.1,244.5,485,244.5z M478.1,246.4c-0.2,0.3-0.2,0.6-0.1,1c0.5,0.3,0.9,0.5,1.7,0.5c0.2-0.2,0.3-0.4,0.5-0.6
			c0.3-0.8-0.6-1.3-1.4-1.3C478.6,246.2,478.3,246.3,478.1,246.4z M393.9,247.7c-0.5-0.4-0.6-0.7-1.5-0.7c-0.1,0-0.3,0.1-0.4,0.1
			c-0.1,0.2-0.3,0.3-0.4,0.5c0.1,0.4,0.3,0.8,0.4,1.2c0.7,0.2,1.1,0.1,1.8,0C394,248.4,394,248.2,393.9,247.7z M477.3,249.3
			c0.1,0.9,0.9,0.9,1.7,1.1c0.2-0.1,0.5-0.2,0.7-0.3c0.2-0.3,0.3-0.5,0.3-1.1c-0.4-0.4-0.9-0.6-1.5-0.7
			C478,248.7,477.7,248.9,477.3,249.3z M395.1,248.7c-0.5,0.4-1.2,0.7-1.4,1.5c0,0.1,0.1,0.3,0.1,0.4c0.3,0.1,0.5,0.3,0.8,0.4
			c1.2,0,1.2-0.6,2.1-0.8c0-0.2,0.1-0.3,0.1-0.5c-0.1-0.2-0.1-0.3-0.2-0.5C396.2,248.9,395.9,248.7,395.1,248.7z M466,249.1
			c-0.2,0.1-0.3,0.3-0.5,0.4c0.1,0.3,0.1,0.6,0.2,0.9c0.4,0.2,0.7,0.3,1.1,0.5c0.2-0.1,0.3-0.2,0.5-0.3c0-0.3,0.1-0.7,0.1-1
			c0-0.1-0.1-0.1-0.1-0.2C466.9,249.3,466.4,249.2,466,249.1z M388.6,251.5c-0.3,0.1-0.6,0.2-0.9,0.3c-0.2,0.2-0.3,0.3-0.5,0.5
			c0.1,0.2,0.1,0.5,0.2,0.7c0.4,0.3,0.9,0.4,1.5,0.5c0.2-0.2,0.5-0.3,0.7-0.5C389.6,252.2,389.2,251.7,388.6,251.5z M470.3,252.6
			c-0.6,0.4-0.8,0.3-0.8,1.3c0,0.1,0.1,0.1,0.1,0.2c0.6,0.2,0.9,0.4,1.8,0.4c0.3-0.3,0.5-0.7,0.8-1v-0.1
			C471.8,252.9,471.3,252.6,470.3,252.6z M390.9,254.8c-0.3,0.4-0.4,0.4-0.5,1c0.3,0.2,0.6,0.5,0.9,0.7c0.4,0,0.8,0,1.2,0
			c0.2-0.3,0.3-0.6,0.1-1C392.3,254.9,391.9,254.8,390.9,254.8z M468.3,256.5c0.1,0.3,0.2,0.7,0.3,1c0.2,0.1,0.5,0.2,0.7,0.3
			c0.6,0,0.8,0,1-0.4c0-0.4,0-0.7,0-1.1c-0.4-0.1-0.9-0.3-1.3-0.4C468.8,256.1,468.5,256.3,468.3,256.5z M461.5,257.5
			c-0.3,0.1-0.5,0.2-0.8,0.3c0,0.3-0.1,0.7-0.1,1c0.5,0.7,1.1,1.1,2.1,1.2c0.1-0.2,0.3-0.3,0.4-0.5c0.3-0.3,0.3-0.9,0.2-1.4
			C462.8,257.8,462.3,257.6,461.5,257.5z M467.2,260.4c-0.3,0-0.7,0-1,0c-1,0.6-0.8,1.2,0.3,1.7c0.3,0,0.6-0.1,0.9-0.1
			c0.2-0.3,0.5-0.5,0.3-1C467.5,260.8,467.4,260.6,467.2,260.4z M379.6,282.6c0-0.2,0.1-0.5,0.1-0.7c-0.5-0.3-0.8-0.6-1.6-0.6
			c-0.2,0.2-0.3,0.4-0.5,0.6c0,0.2-0.1,0.5-0.1,0.7c0.5,0.2,1,0.4,1.5,0.6C379.2,283,379.4,282.8,379.6,282.6z M388.2,290.1
			c0.1,0.9,0.7,1.2,1.6,1.3c0.2-0.1,0.5-0.3,0.7-0.4c0.2-0.7,0-1.1-0.3-1.6c-0.5,0-0.9,0-1.4,0C388.6,289.7,388.4,289.9,388.2,290.1
			z M395.8,293.7c0.3-0.1,0.5-0.3,0.8-0.4c0.1-1.3-0.4-1.3-1.3-1.6c-0.2,0.1-0.4,0.3-0.6,0.4c-0.1,0.3-0.1,0.6-0.2,0.9
			C394.9,293.5,395.2,293.6,395.8,293.7z M395,297.3c0,0.1-0.1,0.2-0.1,0.3c0.3,0.3,0.7,0.5,1,0.8c0.6,0,0.8-0.1,1.2-0.3
			c0.3-1.2-0.4-1.4-1.2-1.8C395.5,296.7,395.2,296.8,395,297.3z M405.3,301.1c0-0.1,0-0.1,0-0.2c-0.4-0.6-0.9-1-1.9-1
			c-0.1,0-0.1,0.1-0.2,0.1c-0.3,0.4-0.6,0.5-0.6,1.3c0.4,0.2,0.7,0.4,1.1,0.6C404.7,301.9,404.7,301.5,405.3,301.1z M401.2,302
			c0.1-0.3,0.1-0.6,0.2-0.9c-0.4-0.5-0.7-0.7-1.5-0.9c-0.2,0.2-0.4,0.5-0.6,0.7c0,0.3-0.1,0.5-0.1,0.8c0.3,0.2,0.5,0.3,0.8,0.5
			C400.4,302.2,400.8,302.1,401.2,302z M409.9,310.3c0.5-1-0.2-1.8-1.4-1.9c-0.2,0.2-0.4,0.5-0.6,0.7c0,0.3,0,0.5,0,0.8
			c0.4,0.3,0.7,0.6,1.4,0.7C409.5,310.5,409.7,310.4,409.9,310.3z M416,312.5c0.2-0.2,0.4-0.5,0.6-0.7c-0.1-0.3-0.1-0.5-0.2-0.8
			c-0.3-0.6-0.9-0.6-1.5-0.7c-0.1,0-0.3,0.1-0.4,0.1c-0.3,0.5-0.5,0.8-0.3,1.6C414.7,312.4,415.1,312.6,416,312.5z M443.6,325.3
			c0.6,0.3,1.1-0.2,1.5-0.4c0.3-1,0-1.8-1.4-1.8c-0.2,0-0.3,0.1-0.5,0.1C442.6,324,442.4,324.9,443.6,325.3z M452.1,325.5
			c0.3-0.3,0.1-0.7,0.1-1.3c-0.5-0.2-0.8-0.4-1.7-0.4c-0.2,0.2-0.5,0.4-0.7,0.6c0,0.3,0,0.6,0,0.9c0.3,0.2,0.7,0.4,1,0.6
			C451.5,325.9,451.8,325.8,452.1,325.5z M449.1,327.4c0.4-0.6,0.6-1,0.3-1.8c-0.4-0.3-1.1-0.4-1.8-0.4c-0.4,0.3-0.7,0.6-1.3,0.7
			v0.1C447.1,326.9,447.5,327.6,449.1,327.4z M442,327.8c0.5,0.2,1.1-0.2,1.3-0.7c0-0.3,0.1-0.6,0.1-0.9c-0.4-0.4-1.1-0.5-1.7-0.7
			c-0.2,0-0.4,0.1-0.6,0.1c-0.1,0.2-0.3,0.5-0.4,0.7c0,0.2,0.1,0.4,0.1,0.6C441,327.4,441.4,327.7,442,327.8z M453.6,328.7
			c0.9-0.3,1.6-0.4,2.4-0.5c0.3-0.5,0.3-0.7,0.2-1.4c-0.8-0.5-2.2-0.4-3.3-0.4c-0.2,0.2-0.5,0.5-0.7,0.7
			C452.3,328.1,452.9,328.4,453.6,328.7z M434.3,329.1C434.3,329.1,434.4,329.1,434.3,329.1c0.3-0.4,0.4-0.8,0.6-1.2
			c-0.1-0.2-0.2-0.4-0.3-0.6c-0.5-0.3-0.7-0.5-1.5-0.5c-0.2,0.5-0.4,0.8-0.4,1.6c0,0.1,0.1,0.1,0.1,0.2
			C433.2,328.9,433.7,329,434.3,329.1z M455.7,329.5c-0.7-0.1-1.4-0.3-2.1-0.4c-0.4,0.3-0.4,0.7-0.4,1.5
			C454.3,331.9,455.8,331.6,455.7,329.5z M455,333.6c-0.5-0.2-1.1-0.4-1.6-0.6c-0.2,0.1-0.3,0.2-0.5,0.3c-0.1,0.3-0.2,0.6-0.2,1.1
			c0.7,0.8,1.3,1.1,2.4,0.5C455.2,334.4,455.1,334.1,455,333.6z M447.8,334.6c0.2,0.4,0.8,0.5,1.1,0.9c0.4-0.1,0.9-0.2,1.3-0.3
			c0.1-0.1,0.1-0.3,0.2-0.4c0-0.4,0-0.7,0-1.1c-0.5-0.3-1.1-0.5-1.9-0.5C448.2,333.7,448,333.9,447.8,334.6z M459.5,339.7
			c0.2-0.2,0.4-0.5,0.6-0.7c0-0.3,0.1-0.5,0.1-0.8c-0.1-0.2-0.3-0.3-0.4-0.5c-0.5-0.1-1.1-0.1-1.6-0.2c-0.1,0.3-0.3,0.5-0.4,0.8
			c0,0.9,0.5,0.9,0.6,1.4C458.8,339.7,459.1,339.7,459.5,339.7z M444.1,339.3c0.6,0.3,0.8,0.7,1.7,0.8c0.2-0.2,0.4-0.5,0.6-0.7
			c0.3-0.7-0.4-1.5-1-1.6c-0.3,0.1-0.7,0.2-1,0.3C444.3,338.5,444.2,338.9,444.1,339.3z M454.9,339c-0.2,0.2-0.5,0.5-0.7,0.7
			c-0.7,1.5,1.9,2,2.5,0.8c-0.1-0.3-0.2-0.6-0.3-0.9C456.1,339.2,455.6,339.1,454.9,339z M462,346.1c0.3-0.2,0.4-0.2,0.6-0.5
			c0.3-0.3,0.2-0.6,0-1.2c-0.5-0.3-0.8-0.4-1.6-0.4c-0.1,0-0.1,0.1-0.2,0.1c-0.2,0.4-0.3,0.7-0.5,1.1
			C460.7,345.7,461.2,346,462,346.1z M459,348.6c-0.4,0.4-0.8,0.8-0.4,1.4c0.3,0.5,1,0.9,1.6,0.7c0.3-0.3,0.6-0.5,0.9-0.8
			c-0.1-0.3-0.2-0.4-0.1-0.8C460.5,348.7,460.1,348.6,459,348.6z M467.8,351c0.4,0.1,0.8,0.1,1.2,0.2c0.3-0.4,0.5-0.5,0.6-1.1
			c-0.1-0.3-0.3-0.5-0.4-0.8c-0.5-0.2-0.7-0.3-1.5-0.3c-0.2,0.2-0.4,0.4-0.6,0.6c0,0.3,0.1,0.5,0.1,0.8
			C467.4,350.6,467.6,350.8,467.8,351z M427.8,352.4C427.8,352.4,427.9,352.4,427.8,352.4c0.2-0.1,0.3-0.2,0.4-0.3
			c-0.2-0.1-0.4-0.2-0.6-0.3C427.7,352,427.7,352.2,427.8,352.4z M467.6,354.8c0.4,0.2,0.9,0.2,1.2,0c0.2-0.2,0.4-0.4,0.6-0.6
			c-0.1-0.3-0.2-0.3-0.2-0.8c-0.5-0.1-1-0.1-1.5-0.2c-0.3,0.1-0.5,0.1-0.8,0.2C467,354,467.2,354.6,467.6,354.8z M464.1,355.9
			c0.9,0.3,1.4,0.2,1.8-0.5c0-0.2-0.1-0.4-0.1-0.6c-0.2-0.5-0.6-0.7-1.3-0.8c-0.2,0-0.4,0.1-0.6,0.1c-0.1,0.2-0.3,0.5-0.4,0.7
			C463.6,355.5,463.7,355.6,464.1,355.9z M463.9,361.4c0.4-0.3,0.7-0.4,1.1-0.7c0-0.4,0-0.7,0-1.1c0-0.1-0.1-0.1-0.1-0.2
			c-0.6-0.1-1.1-0.3-1.7-0.4C461.8,359.9,462.4,361.1,463.9,361.4z M472.4,361.6c0.1,0,0.1-0.1,0.2-0.1c0.3-0.4,0.5-0.5,0.5-1.4
			c0-0.1-0.1-0.1-0.1-0.2c-0.6-0.3-1-0.5-2-0.5c-0.2,0.2-0.3,0.4-0.5,0.6c0,0.5,0.1,1,0.1,1.5C471.3,361.7,471.6,361.7,472.4,361.6z
			 M478.1,370.6c0.9-0.1,0.9-0.4,1.4-0.7c0-0.4,0.1-0.7,0.1-1.1c-0.5-0.4-1-0.5-1.9-0.5c-0.4,0.4-0.7,0.8-1.1,1.2
			C476.8,370.1,477.6,370.4,478.1,370.6z M486.1,374.6c0.1-0.1,0.2-0.2,0.3-0.3c0-0.4-0.1-0.7-0.1-1.1c-0.5-0.3-0.9-0.4-1.6-0.6
			c-0.5,0.4-0.9,0.6-0.9,1.5c0.2,0.2,0.4,0.4,0.6,0.6C485,374.7,485.5,374.7,486.1,374.6z M483.1,377.7c2,2.3,1.4,1.3,3.5,0.3
			c0-0.1,0.1-0.1,0.1-0.2c-0.7-0.4-1.5-0.9-2.5-0.9C483.8,377.2,483.5,377.5,483.1,377.7z M364,378.4c-0.2-0.4-0.3-0.7-0.7-1
			c-0.2-0.2-0.5-0.2-1-0.2c-0.3,0.8-0.8,1.3-0.6,2.2c0.2,0.2,0.5,0.5,0.7,0.7c0.4,0.2,0.6,0,1-0.1C363.6,379.5,363.8,379,364,378.4z
			 M349.4,379.8c-0.2,0.1-0.5,0.3-0.7,0.4c-0.1,0.5-0.3,1.1-0.1,1.7c0.3,0.9,1.4,1.1,1.8,0.1C351,381.5,350.5,379.9,349.4,379.8z
			 M385.6,382.8c-0.4-0.3-0.5-0.4-1.3-0.4c-0.3,0.6-0.8,1.1-0.6,1.7c0.1,0.3,0.2,0.7,0.3,1c0.5,0.3,0.6,0.3,1.3,0.3
			c0.5-0.7,0.6-1.3,0.3-2.4C385.6,383,385.6,382.9,385.6,382.8z M487.1,385.3c0-0.4,0-0.7,0-1.1c-0.2-0.2-0.5-0.4-0.7-0.6
			c-0.2,0-0.4-0.1-0.6-0.1c-0.7,0.5-1,0.7-1.4,1.6c0.2,0.7,0.3,0.8,0.9,1.1C486.3,386.2,486.7,385.9,487.1,385.3z M391.1,384.2
			c-0.2,0.3-0.4,0.5-0.6,0.8c-0.1,0.5-0.1,1-0.2,1.5c0.7,0.7,1.4,1.1,1.8,2.2c0.2,0.1,0.5,0.1,0.7,0.2c0.4-0.3,0.6-0.3,0.8-0.9
			C394.4,386.9,392,384.2,391.1,384.2z M403.3,387.9c0.3-0.9,0.4-1.3,0.1-2.5c-0.2-0.1-0.5-0.3-0.7-0.4c-0.4,0.2-0.6,0.2-0.9,0.6
			c-0.3,0.3-0.3,1.2-0.3,1.8c0.1,0.2,0.3,0.4,0.4,0.6c0.4,0,0.7,0.1,1.1,0.1C403.1,388.1,403.2,388,403.3,387.9z M485.7,389.7
			c-0.2,0.3-0.5,0.5-0.7,0.8c-0.2,0.2-0.1,0.5-0.1,1.1c0.5,0.3,1.1,0.4,1.9,0.4c0.2-0.3,0.5-0.5,0.7-0.8c0-0.7-0.1-0.9-0.4-1.3
			C486.6,389.9,486.2,389.8,485.7,389.7z M432.4,395.8c0.2-0.8,0.1-1.7,0-2.2c-0.2-0.1-0.5-0.1-0.7-0.2c-0.3,0.1-0.6,0.3-0.9,0.4
			c-0.1,0.5-0.1,1-0.2,1.5c0.1,0.2,0.2,0.4,0.3,0.6c0.3,0.2,0.4,0.3,1,0.3C432.1,396.1,432.2,396,432.4,395.8z M489.9,402
			c0.1-0.4,0.1-0.9,0.2-1.3c-0.4-0.3-0.7-0.3-1.2-0.4c-0.3,0-0.5,0.1-0.8,0.1c-0.3,0.7-0.5,0.9-0.3,1.8c0.3,0.2,0.8,0.3,1.3,0.4
			C489.4,402.4,489.6,402.2,489.9,402z M482.2,400.6c-0.4,0-0.9-0.1-1.3-0.1c-0.2,0.1-0.5,0.3-0.7,0.4c-0.1,0.1-0.1,0.1-0.2,0.2
			c0,0.7,0,1.2,0.4,1.5c0.5,0.4,1.4,0.3,2,0.1c0.1-0.4,0.3-0.9,0.4-1.3C482.4,401.2,482.3,401.2,482.2,400.6z M442.1,400.8
			c-0.3,0.4-0.7,0.9-1,1.3c0.4,0.6,0.1,2.2,1.6,1.8C444,403.4,444.1,400.8,442.1,400.8z M489.7,403.4c-0.1,0.1-0.3,0.2-0.4,0.3
			c-0.1,0.4-0.2,0.7-0.3,1.1c0.3,0.4,0.3,0.5,0.8,0.7c0.5,0.4,1.4-0.2,1.7-0.6C491.3,403.8,491.4,403.3,489.7,403.4z M485.6,403.5
			c-0.2,0.4-0.3,0.7-0.5,1.1c-0.4,0.1-0.8,0.1-1.2,0.2c-0.8,1.2-0.2,2.1,1.3,2c0.3-0.3,0.6-0.6,0.9-0.9c0-0.5,0.5-0.3,0.8-0.6
			c0.2-0.3,0.3-0.7,0.5-1c-0.1-0.2-0.2-0.4-0.3-0.6C486.6,403.7,486.1,403.6,485.6,403.5z M457.3,403.8c-0.1,0-0.3,0.1-0.4,0.1
			c-0.2,0.2-0.3,0.4-0.5,0.6c0.2,0.5,0.3,0.9,0.5,1.4c0.6,0.2,1.1,0.3,1.7,0.5c0.3-0.2,0.5-0.3,0.8-0.5c0.2-1.1-0.1-1.2-0.5-2.1
			C458.4,403.8,457.8,403.8,457.3,403.8z M473.9,407.1c-0.3,0.1-0.6,0.1-0.9,0.2c-0.2,0.5-0.4,0.8-0.2,1.4c0.3,0.7,1.2,0.9,2,1.1
			c0.4-0.3,0.6-0.6,0.8-1.1c0-0.3-0.1-0.6-0.1-0.9C475,407.5,474.7,407.3,473.9,407.1z"/>
	</g>
</g>
</svg>
