<?xml version="1.0" encoding="utf-8"?>
<!-- Generator: Adobe Illustrator 19.2.1, SVG Export Plug-In . SVG Version: 6.00 Build 0)  -->
<svg version="1.1" id="Calque_1" xmlns="http://www.w3.org/2000/svg" xmlns:xlink="http://www.w3.org/1999/xlink" x="0px" y="0px"
	 viewBox="0 0 841.9 595.3" style="enable-background:new 0 0 841.9 595.3;" xml:space="preserve">
<style type="text/css">
	.st0{fill:#DADADA;}
</style>
<ellipse class="st0" cx="410.7" cy="383.3" rx="100.3" ry="8.2"/>
<g>
	<g>
		<path d="M517.9,170.8c-0.2-1.4,0.2-2.6-0.3-3.9c-0.6-1.5-4-5.4-3.9-6.6c0.6-6-4.7-8.6-7.8-11.6c-1.8-1.9-3.7-3.9-5.5-5.8
			c-5.1-4.5-11.8-8.5-18.7-11.1c-1.6-0.3-3.1-0.6-4.7-0.9c-1.9-0.6-7.8-1.9-10.1-1.4c-8.7,2-17.6,4.1-24.8,8.1
			c-8.6,4.7-16.1,10.8-23.8,16.4c-2.1,1.5-3.9,3.7-6,5.3c-6.9,5.2-12.9,10.7-19.1,16.5c-0.1,0.3-0.2,0.6-0.3,0.9
			c-1.5,1.5-3,3.1-4.5,4.6c-2.1,3.2-4.4,6.2-6.7,9.3c-3,4.2-6.2,8.2-9.1,12.6c-0.6,0.8-1.3,1.7-1.9,2.5c-0.8,2.4-1.6,5.3-2.7,7.6
			c-0.4,2-0.8,3.9-1.2,5.9c-0.5,1.3-1.3,3.2-1.4,4.9c-0.3-0.1-0.6-0.2-0.9-0.3c-2.1,4.7-1.5,12.5,0.3,17.6c1.2,3.3,3.3,5.7,5.2,8.2
			c5.1,6.7,11.5,12.4,18.2,17.5c3,2.2,6,4.3,9,6.6c1.1,0.8,2.9,1.6,3.3,2.8c2.1,0.5,3.5,2.3,5.1,3.3c4.9,3.2,9,6.5,13.8,9.7
			c2,1.4,3.5,3.7,5.9,4.6c0,0.1,0.1,0.1,0.1,0.2c-0.2,0.1-0.4,0.3-0.6,0.4c0,0.3,0,0.6,0,0.9c2.4,2.3,3.6,6.8,5.7,9.2
			c3.6,4.2,7,9,11.7,12.1c3.6,2.3,8.2,3.6,12.6,5c1.9,0.3,3.9,0.6,5.8,0.9c0.1-0.2,0.3-0.3,0.4-0.5c1.5,0.6,8.9,9.7,9.8,11.9
			c-0.1,0.5-0.3,0.5-0.5,0.8c0.1,1,0.4,1,0.8,1.6c-0.3,0.9-0.5,1.8-0.8,2.7c0,0-3.2,2.4-3.3,2.4c-1.4,0.6-3.4,0.2-4.5,1.5
			c-1.2-0.3-1.9-1.3-3.6-0.9c-0.6,0.4-1.3,0.7-1.9,1.1c-0.1,0-0.3-0.1-0.4-0.1c-0.9-0.1-1.1-0.4-1.9-0.6c-0.7,0-1.4,0-2.1,0
			c-0.1,0-0.2,0.1-0.3,0.1c-0.5-0.5-1-1.1-1.5-1.6c-0.8-0.4-1.6-0.7-2.8-0.7c-0.3,0.1-0.7,0.1-1,0.2c-1.5-0.4-2.4-1.7-4-2.1
			c-1.4-0.4-2.1,0.5-3.1,0.5c-1-1-1.8-1.8-3.3-2.2c-0.8,0-1.5,0-2.3,0c-2.2-0.8-3.5-3.2-6.6-2.2c-2.3-2.4-4.7-5.3-9.2-3.6
			c-1.9-2.1-4.6-2.8-8.1-2.1c-2.5-1.6-4.9-1.7-7.8-1.3c-0.6-2.5-6.7-3.5-9-2.3c-3-1.1-4.7-2.4-8.3-0.9c-2.1-1.9-5.8-2.4-8.3-0.5
			c-1.4-0.9-5-3-6.7-0.7c-1.5-0.1-3-1.7-4.5-1.2c-0.9,0.3-1.8,1.5-2.5,1.7c-0.1,0-3.4-1.7-5.3-1.2c-0.5,0.4-1.1,0.9-1.6,1.3
			c-1-0.1-1.9-0.1-2.9-0.2c-1.5,0.1-5.8,1-6.8,1.6c-0.3-0.2-0.5-0.4-0.8-0.6c-0.5-0.1-7.9,2.1-9.3,2.6c-6.4,2.6-11.3,5.4-16.8,8.6
			c-1.6,0.8-3.3,1.6-4.9,2.4c-1.9,1.3-10.3,6.1-6.2,8.9c0.5,0.4,11.2,0.6,12.8,0.2c1-0.3,3.1-0.7,4.4-0.6c0.7,0,1.4,0,2.1,0
			c0.3,0.1,0.3,0.5,0.8,0.5c0.7-0.3,1.4-0.6,2.1-0.9c3.4,0,7-0.3,10.3-0.9c2.3,0.1,4.5,0.3,6.8,0.4c0.9-0.3,2.6-0.7,3.8-0.5
			c0.9,0.1,1.7,0.3,2.6,0.4c3.2-0.5,7-0.5,10.1,0.5c1.4,0,2.9,0.1,4.3,0.1c1.2,0.6,2.8,0.6,4.1,0.9c1,0.1,2.1,0.1,3.1,0.2
			c2.9,1.1,11.4,2.4,13,4.4c2.8-0.4,5.6,0.9,7.9,1.9c0.3,0,0.7-0.1,1-0.1c1.1,0.3,2.5,0.8,3.9,1.2c4.3,1.2,8.4,3,12.7,4.5
			c9.1,3.1,18.3,6.3,27.5,8.9c5.7,1.6,11.4,1.7,17,2.2c2.7,0.3,6.3-0.2,9.1,0.2c1.7,0,3.5,0,5.2,0c4.6-1.2,8.5-2.1,12.7-3.6
			c3.2-1.2,6.3-1.8,9-3.3c1.4-0.8,2.8-2.1,4.2-2.9c1.6-0.9,3.1-1,4.5-2c1-1.1,2.1-2.3,3.1-3.4c3.3-3.4,4-8.4,0.9-12.2
			c1.7-3.2-1.6-11.2-2.8-13.7c-0.7-0.8-1.4-1.6-2.1-2.4c-0.7-1,0.4-2,0-3.4c-0.7-2.3-2.6-5.7-5-6.5c-0.4-0.7,0-1.4-0.3-2.4
			c-0.7-2.7-2.9-4.9-5.9-5.4c-0.2-0.4,0-1.1-0.1-1.5c-0.6-1.8-2.1-4.3-3.7-5.1c-1-0.2-2-0.5-3-0.7c-0.7-0.4,0.1-2.6,0.3-3.3
			c-0.8-0.6-1.3-4.8-1.8-5.7c-2.6-5.1-3.8-9.6-7.2-14c-3.6-4.8-9.2-9.4-15.5-11.4c-2.5-0.5-5.1-0.9-7.6-1.4
			c-1.3,0.1-2.6,0.3-3.9,0.4c-0.6-0.2-1.5-0.9-2.1-1.2c-0.7-0.2-1.4-0.4-2.1-0.6c-1.1-0.7-1.5-2.2-2.7-2.9c-0.9-0.5-2.6-0.4-3.6-1.1
			c-0.3-0.4-0.5-0.8-0.8-1.2c-1-0.7-2.1-1.4-3.1-2.1c-0.6-0.1-1.2-0.3-1.8-0.4c-0.2-0.4-0.5-0.9-0.7-1.3c-1-1.3-3.3-2.9-5.4-3
			c-1.2-2.9-3.4-5.6-7.4-5.6c-0.8-2.9-1.7-5.1-4.1-6.3c-1.1-0.4-2.1-0.7-3.2-1.1c-0.6-0.4-0.7-1.4-1.1-1.9c-1.3-1.8-3.3-2.8-5.8-3.5
			c-0.5-2.2-0.8-3.8-2.9-4.4c-0.4-1.7-0.8-3.2-2.6-3.7c-0.1-1.6,0.3-4.7,1-5.6c0.7-0.8,1.3-0.9,1.4-2.5c0.2,0,0.3-0.1,0.5-0.1
			c1-0.5,1.5-2.1,1.4-3.6c2.1-0.6,2.8-2.6,2.5-5.3c2.3-0.3,4.3-1.6,4.4-4.4c2.8-1,6.4-2.9,4.7-7c1.1-0.9,2.9-1.2,3.8-2.3
			c0.4-0.5,1.3-2.7,1.6-2.9c1.8-1.1,2.8-1.5,3.3-3.9c2.1-1,3.9-1.3,4.7-3.6c0.1-0.7,0.2-1.3,0.3-2c0.9-1.4,5.5,0.6,5.5-4.7
			c1.7-0.9,5-1.3,5.1-3.9c1.2-0.5,2.4-0.6,3.1-1.8c0.3-0.5,0.2-0.9,0.6-1.2c0.8-0.6,2.4-0.6,3.3-1.1c0.9-0.6,0.7-1.7,1.4-2.2
			c0.5-0.4,1.1-0.1,1.7-0.4c0.3-0.6,0.7-1.1,1-1.7c0.6-0.2,1.3-0.4,1.9-0.6c0.6-0.5,1.1-1,1.7-1.5c0.8,0,1.6-0.1,2.4-0.1
			c1-0.4,2.7-1.4,3.3-2.6c0.8-0.4,1.6,0.3,2.6,0c0.9-0.3,1.6-1,2.5-1.3c1.4-0.5,5.8,2.5,6.9,2.8c1,0,1.9,0,2.9,0
			c0.8,0.2,1,0.9,1.6,1.3c0.7,0.1,1.5,0.3,2.2,0.4c1,1.1,2,2.2,3,3.3c1.9,4.3-4.9,12.8-6.9,15.1c-2.2,2.5-4,5.2-6.2,7.7
			c-3,3.4-6.3,6.7-8.6,10.8c-0.5,1-0.5,2.1-1,3.1c-0.6,0.8-1.1,1.6-1.7,2.4c-1.1,2.7-1.8,5.1-2.9,7.9c-1.1,2.9-5.3,10.8-3.7,13.6
			c0.9,1.4,5-0.3,6.4-0.6c1.8-0.4,3.3-0.4,4.6-1.4c0.7-0.7,1.4-1.4,2.1-2.1c0.9,0,1.8-0.1,2.7-0.1c2.1-0.5,3.1-2,3.8-3.9
			c2.7-1,5.4-1.4,6.4-4.1c3.6,0.2,6.6-0.3,7.4-3.4c0.5-0.2,1.3-0.1,1.7-0.2c2.2-0.5,4.1-2.7,4.8-4.8c4.3-2.1,4.8-1.3,6.4-6.1
			c1.5-0.5,3.5-1,4.4-2.3c0.6-1.2,1.1-2.5,1.7-3.7c1.2-0.9,2.9-1.1,3.8-2.3c0.6-0.7,0.4-2.1,1-2.9c0.8-1,2.8-1.2,3.7-2.2
			c1.8-1.9,1.9-6.1,1.8-9.5C515.8,176.7,518.7,175.5,517.9,170.8z M311.5,345.3L311.5,345.3c0.4-0.4,0.9-0.7,1.3-1
			c0.1,0,0.1,0.1,0.2,0.1c0,0.4,0.1,0.7,0.1,1.1C312.6,345.5,312,345.4,311.5,345.3z M329.2,334.8h0.1c0,0.1,0.1,0.2,0.1,0.3
			c-0.1,0-0.1,0.1-0.2,0.1C329.2,335.1,329.2,335,329.2,334.8z M318.1,345.3c-0.7,0-1.3,0.1-2,0.1c-0.3-0.2-0.6-0.4-0.9-0.6
			c-0.1-0.6-0.1-1.1-0.2-1.7c0.6-0.4,1.3-0.8,1.9-1.2c0.3,0.4,0.1,0.9,0.2,1.2c0.2,0.4,0.8,0.8,1,1.2
			C318.1,344.7,318.1,345,318.1,345.3z M323.1,344.9c-0.5,0.1-1.1,0.3-1.6,0.4c-0.5-1.8-2-2.6-2.3-4.4c0.7,0.2,0.6,0.3,1.5,0.3
			c0.3-0.5,0.5-0.9,0.5-1.7c0.7,0.4,1.3,4.4,1.9,5.3C323.1,344.9,323.1,344.9,323.1,344.9z M326.3,344.5c-0.3-0.8-0.7-0.9-0.8-1.7
			c-0.2,0-0.4,0-0.6,0c-0.7-1.3-1.3-2.8-1.3-4.6c0.5-0.4,1-0.7,1.5-1.1h0.1c0.1,0.1,1.4,6.4,1.6,7.4
			C326.6,344.5,326.5,344.5,326.3,344.5z M330.9,344.5c-0.2,0-0.4,0.1-0.6,0.1c-2.2-1.6-2.1-4-2.8-7.1c0.5-0.6,1-0.3,1.6-1
			c0.3,0.5-0.1,1,0.1,2c0.4,1.9,0.8,4.2,1.7,5.7C330.9,344.3,330.9,344.4,330.9,344.5z M332.5,332.8c0.1,0,0.3,0,0.4,0
			c-0.2,2-0.1,7.2,0.9,9.1c0.4,0.8,0.8,1.4,1.1,2.4C331,343.4,330.6,335.7,332.5,332.8z M338.4,343.7c-0.1,0-0.3,0.1-0.4,0.1
			c-0.1-0.1-0.2-0.2-0.3-0.3c-0.2-0.2-0.1-0.3,0-0.8c-2.2-0.6-3.5-8.5-2.4-10.3c0.3-0.5,0.8-0.5,1.2-0.9c0.1,0,0.3,0,0.4,0
			C336.7,336.8,336.8,339.5,338.4,343.7C338.4,343.7,338.4,343.7,338.4,343.7z M342.3,343.7c-0.2,0-0.4-0.1-0.6-0.1
			c-0.4-1-1.1-1.3-1.6-2.1c-1.2-1.8-1.4-4.5-1.4-7.1c0.3-0.2,0.7-0.4,1-0.6c0.2-1.3-0.1-2-0.4-3c0.4-0.2,0.8-0.4,1.2-0.6
			c0.5,0.2,0.7,1.4,0.5,2.3c-0.9,3.6,0.8,8.3,1.6,11.1C342.5,343.7,342.4,343.7,342.3,343.7z M347.9,343.7c-0.3,0.4-1.7,0.1-2.5,0
			c-0.4-2.4-2.3-4-2.3-7.1c0.9,0.2,1.2-0.3,1.8-0.7c-0.2-1.7-0.9-1.9-2-2.6c0.1-0.6,0.1-1.1,0.2-1.7c0.5-0.9,0.9-0.7,0.7-2.1
			c0.7-0.3,1.4-0.7,2.4-0.7c-0.3,5.3,0,10.5,1.9,14.9C348,343.7,348,343.7,347.9,343.7z M350.5,343.3c-1.9-3.2-2.8-7.7-2.3-11.9
			c0.9,0.3,1.1,0.1,2.1-0.1c0-1.6-0.4-1.8-0.9-2.9c-0.1,0-0.1-0.1-0.2-0.1c0.7,0,1.4,0.1,2.1,0.1l0.1,0.1c-1.2,5.9-0.1,10,1.3,15.1
			C351.7,343.7,351.3,343.6,350.5,343.3z M355.4,343.2c-0.6-0.4-0.6-1.2-0.9-1.8c-1.2-2.3-1.6-5.2-1.3-8.1c-0.1-0.8-0.1-1.5-0.2-2.3
			c0.2-1,0.7-1.7,0.7-3.2c0.3-0.1,0.5-0.2,0.8-0.3c0.4,0.1,0.9,0.3,1.3,0.4c0,0.1,0.1,0.2,0.1,0.3c-0.5,0.1-0.5,0.2-0.9,0.4
			c-0.1,1.4,0.3,1.8,0.6,2.7c0,0.7,0,1.5,0,2.2c0.1,2.2-0.2,4.5,0.5,6.7c-0.2,0.1-0.3,0.2-0.5,0.3c0.2,1.2,1.2,2.3,1.3,3.2
			C356.6,343.5,355.8,343.5,355.4,343.2z M363.6,344c-0.8,0.1-2.9,0.1-3.7-0.5c-2.6-1.6-3.4-14.9-0.6-17.1c0.2,0.1,0.4,0.2,0.6,0.3
			c-0.5,0.5-0.8,1-0.7,1.6c-0.2,0.5,0.3,1.1,0.7,1.4c0.7,0.2,1,0.1,1.7,0c0.1-0.2,0.2-0.5,0.3-0.7c0.3-0.8-0.3-1.6-0.6-2.1
			c0.3,0.3,0.7,0.5,1,0.8c0.7,5.9-0.9,10.1,1.3,15.7C363.6,343.6,363.6,343.8,363.6,344z M366.4,344.3c-0.4-1-0.9-2-1.3-3
			c-0.2-1.3-0.5-2.5-0.7-3.8c-0.7-3.3-0.3-8,0.5-10.2c0.8,0.5,0.9,0.8,2.1,0.7c0.2-0.6,0.5-1,0.9-1.4c0.2,0.1,0.4,0.3,0.6,0.4
			c0,2.2-0.6,3.6-1.2,5.3c0.1,1.4,0.1,2.8,0.2,4.2c0.6,2.9,0.3,5.4,1.1,8.1C367.6,344.6,367.2,344.5,366.4,344.3z M373.5,204.7
			c1.9,1.7,3.6,3.7,5.8,5.1c1.9,1.2,4.1,1.8,6,3.1c2.2,1.5,5.2,3.2,7.9,3.9v0.1c-0.3,0.2-0.5,0.4-0.8,0.6c0,0.3,0.1,0.6,0.1,0.9
			c0.1,0.2,0.3,0.3,0.4,0.5c0.7-0.1,1,0,1.8-0.1c0.2-0.3,0.2-0.8,0.2-1.4c1.4,0.4,2.2,0.5,3.7,0.3c-0.4,0.6-1.3,0.7-2.3,0.7
			c-0.4,0.5-0.4,0.7-0.1,1.4c-3.4-0.1-7.5-0.7-10.7-1.9c-1.3-0.6-2.6-1.3-3.9-1.9c-1.9-0.7-3.7-0.9-5.3-1.8
			c-1.9-1.1-3.4-2.9-5.3-3.9C371.2,208.2,372.6,206.3,373.5,204.7z M398.1,229.3c0,0.1,0,0.2,0,0.3c-0.1-0.1-0.1-0.1-0.2-0.2
			l0.1-0.1H398.1z M396.6,228.2c-0.1,0.1-0.1,0.3-0.2,0.4c-0.1,0.1-0.2,0.1-0.3,0.2c-0.2-0.2-0.4-0.3-0.6-0.5c0.2-0.3,0.4-0.7,0.6-1
			C396.3,227.8,396.2,228,396.6,228.2z M370.5,212c1.9,1.4,3.8,3.4,6,4.3c1.4,0.6,3.5,0.7,4.7,1.3c4,2,9.1,4.5,14.5,4l0.1,0.1
			c-0.1,0.2-0.2,0.3-0.3,0.5c-5.7,1.2-15.2,2.9-22,1.5c-2-0.4-4-1.6-5.7-2.2C367.7,220.6,369.9,213,370.5,212z M367.3,223.4
			c1.8,0.6,3.5,1.3,5.3,1.9c4.2,1.1,11.5,0.9,16.2,0.1c1-0.2,1.5,0.6,2.7,0.4c0.1-0.3,0.2-0.6,0.3-0.9c1.4-0.5,3.2-0.6,4.5-0.6
			c0,0.3-0.1,0.6-0.1,0.9c-5.2,2.2-10.5,4-16.6,5.1c-1.6,0.2-3.1,0.5-4.7,0.7c-3-0.3-6-1.1-8.7-1.2
			C365.9,228,366.9,224.9,367.3,223.4z M364.6,231.1c8.3,2.6,18.5,1.5,25.9-1.8c0.9-0.3,1.7-0.5,2.6-0.8c0.2,0.1,0.4,0.1,0.6,0.2
			c0.1,0.6,0.1,1,0.5,1.5c-0.9,1.2-2.4,1.8-3.6,2.6c-4.9,3.4-10.3,5.7-17.2,7c-2.9,0.5-4.6-0.7-7.5-0.2
			C365.2,236.8,364.6,234.6,364.6,231.1z M366.6,241.4c2.5,0.1,5.3,0.5,7.4,0.2c8.3-1.2,15.1-5.1,20.7-9.4c1.1-0.9,2.3-1.2,3.2-2.3
			c0.7,0.1,0.9,0.4,0.8,1c0.1,0.6-0.4,0.6-0.9,0.7c-0.1,0.2-0.3,0.5-0.4,0.7c0.1,0.8,0.4,0.9,0.6,1.5c-0.4,0.3-0.8,1-1,1.5
			c-1-0.5-2.1-1.5-2.7,0c0,0.2-0.1,0.4-0.1,0.6c0.5,0.4,0.7,0.7,1.5,0.8v0.1c-3.9,5.3-8,8.8-14.3,11.8c-2.7,1.3-6.1,0.4-9.6,1
			C370.4,246.9,367.2,244.8,366.6,241.4z M452.8,347.2c0.1-0.2,0.2-0.4,0.3-0.6c1.5,0,2.5,0.5,3.3,1.3c-0.1,0.5-0.2,0.9-0.3,1.4
			c-0.1,0-0.1,0.1-0.2,0.1c-0.3-1.6-1.7-3.2-3.1-1.9C452.8,347.4,452.8,347.3,452.8,347.2z M445.4,345.7c0.1,0.2,0.2,0.3,0.3,0.5
			c-0.1,0.2-0.1,0.3-0.2,0.5c-0.1,0-0.2,0-0.3,0C445.3,346.4,445.3,346.1,445.4,345.7z M423.1,335.3c0.8,0,0.9,0.2,1.4,0.5
			c0,0.1,0,0.2,0,0.3c-0.5,0.5-0.9,0.9-1.7,1.1C423.1,336.6,423.1,336.2,423.1,335.3z M399.3,329.3c0.1,0.1,0.2,0.2,0.3,0.3
			c0,0.1,0,0.2,0,0.3c-0.1,0.1-0.3,0.3-0.4,0.4c-0.1-0.4-0.3-0.7-0.4-1.1C399,329.3,399.1,329.3,399.3,329.3z M378.5,327.4
			c0.2-0.2,0.5-0.4,0.7-0.6c0,0-0.5,1.4-0.4,1.9C378.6,328.4,378.5,328,378.5,327.4z M374.2,345.5c-0.8,0.1-2.2-0.1-2.8-0.4
			c-0.5-0.6,0-1.2-0.3-1.9c-2.2-5.2-2.4-12.6,0.5-16.9c0.4,0,0.8-0.1,1.2-0.1c0.8,0.2,1.5,0.3,1.8,0.9c0.5,1.3-1.1,5.8-1.4,7.4
			C372.5,338,373.1,342.9,374.2,345.5z M380.4,346.8c-0.9,0.3-2.6-0.6-3.4-0.7c-1.9-2.3-2.4-10.4-1.5-13.8c0.4-1,0.7-2,1.1-3
			c0.3,0.2,0.7,0.3,1,0.5c0.5-0.2,0.8-0.4,1-0.9c0.1,0,0.1-0.1,0.2-0.1c0.1,0.6,0.4,0.5,0.7,0.9c0.2,0,0.5-0.1,0.7-0.1
			c0.1-0.1,0.3-0.3,0.4-0.4c0.8-0.9-0.4-2.1-0.3-2.7c1,0.2,1.8,0.3,2.6,0.9c-0.9,1.9-1.8,3.9-2.7,5.8c0,0.1,0,0.2,0,0.3
			c-0.1-0.3-0.3-0.7-0.4-1c-0.2-0.1-0.5-0.3-0.7-0.4c-0.3,0.2-0.6,0.3-0.9,0.5c-0.2,1.1-0.1,1.4,0.3,2.3c0.5,0.2,0.8,0.2,1.3,0
			c0.9,3.3-0.8,6.9,0.3,9.8c0,0.7-0.1,0.7-0.4,1C379.9,346.1,380.2,346.3,380.4,346.8L380.4,346.8z M388.7,335.7
			c-0.3,1-0.3,2.1-0.5,2.8c-0.3,0.9-1.3,1.1-1.5,1.9c-0.4,1.5,1,1.9,1.3,2.9c0.4,1.5,0.6,4.2,0.6,5.9c-1.4,0.2-4.2-0.9-5.6-1.5
			c0.1-0.4,0.1-0.3,0.4-0.5c-0.4-0.8-0.8-1.7-1.2-2.5c-0.9-3.6-0.9-8.1,0.1-11.4c0.4-0.9,0.8-1.8,1.2-2.7c0.4-0.2,1.1-0.1,1.8-0.2
			c0.3-0.4,0.5-0.9,0.3-1.5c0.3-0.4,0.6-0.6,1.1-0.7c-0.2,0.2-0.4,0.3-0.6,0.5c0,2.2,0.8,2.5,1.2,4.1c0.4,0.3,0.4,0.4,1,0.4
			c0.2-0.1,0.3-0.2,0.5-0.3c0.2-0.5,0.3-1,0.5-1.5c-0.6-0.9-1.3-1.7-1.5-3.1c-0.3,0-0.5-0.1-0.8-0.1c-0.3-0.4-0.1,0,0-0.5
			c0.9,0.2,2.4,0.4,2.9,0.4c0,0.8,0.8,1.8,0.7,2.1C390,332.1,389.3,333.9,388.7,335.7z M396.1,342.1c0,0.8,0.1,1.7,0.1,2.5
			c-0.4,2.1-0.2,4.5,0.5,6.8v0.1c-0.9,0.2-2.3-0.6-3.2-0.8c-0.6-0.1-1.2-0.3-1.8-0.4c-1.1-0.9-2.2-9.7-1.7-11.6
			c0.7-2.4,1.5-4.7,2.2-7.1c0.1-0.1,0.2-0.1,0.3-0.2c0.3,0.5,0.6,0.9,1.3,0.7c0.2,0.2,0.7-0.6,0.9-0.8c0-0.7-0.1-1.5-0.5-1.8
			c0.1-0.2,0.1-0.2,0.3-0.4c0.2-0.1,0.5-0.2,0.7-0.3c0.6,0,1.1,0.1,1.7,0.1c-0.3,0.7-0.5,1.9,0.3,2.4c0.2,0.2,0.4,0.2,0.7,0.3
			c0.2-0.2,0.5-0.3,0.7-0.5h0.1c0.3,2-1,3.7-1.6,5.2C397.4,337,396.3,341.1,396.1,342.1z M399.6,352.6c-1-3.2-1.7-6.8-1.3-10.9
			c0.7-0.2,1.2-0.2,1.4-0.9c0.3-0.4,0.1-1.1,0.2-1.6c-0.3-0.3-0.7-0.7-1-1c0.2-2.2,1.1-4.5,2.1-6.2c0-0.1,0-0.1,0-0.2
			c0.8,1,1,2,2.7,2.1c0.2-0.1,0.3-0.2,0.5-0.3c0.1-0.8,0.1-1.6,0.2-2.4c1,0,1.5,0.2,2.2,0.3c-1,1.6,0.3,2.5-0.1,3.6
			c-1.7,4.7-3.6,12.7-1.9,18.6C404,354.5,400.8,352.9,399.6,352.6z M407.6,355.2c-1.4-1.5-0.9-4.3-1.3-6.8
			c-0.6-3.5,0.7-12.3,3.4-13.8c0.2,0.3,0.4,0.6,0.6,0.9c0.2,0.1,0.4,0.1,0.6,0.2c0.2-0.1,0.3-0.2,0.5-0.3c0.6-0.9,0.5-1.7,0-2.7
			c0.2-0.1,0.5-0.3,0.7-0.4c0.5,0.1,1,0.2,1.5,0.3c0.3,0.4,0.5,0.9,0.6,1.4c0.7,0.4,1.1,0.2,1.8-0.1c-2.3,5.5-2.7,8.9-3.5,15.2
			c-0.2,1.6,0,6.8,0.6,7.4c0,0.2,0.1,0.4,0.1,0.6C411.3,356.5,409.5,355.9,407.6,355.2z M418.9,343.2c0,1.4,0.3,1.6,1.1,2.2
			c-0.9,2.3-1.9,11.3-0.8,13.1c-0.5,0.7-3.1-0.5-4-0.8c0.7-3.2-2-8.7-0.3-12.4c0-0.1,0-0.1,0-0.2c0.3,0.1,0.5,0.2,0.8,0.3
			c0.3-0.1,0.6-0.1,0.9-0.2c0.4-0.7,0.4-1.6,0-2.6c-0.5-0.2-0.7-0.1-1.3-0.1c0.3-1.7,1.2-6.2,2.4-7.2c0.7-0.3,1.4-0.5,2.1-0.8
			c0.5,0.1,1,0.1,1.5,0.2c0,0.1,0.1,0.1,0.1,0.2c-0.4,0.3-0.5,1.1-0.5,1.7c-0.8-0.2-1,0.3-1.4,0.3c-0.2-0.1-0.3-0.3-0.5-0.4
			c-1.6-0.5-1.6,1.5-1.6,2.3c0.2,0.2,0.3,0.3,0.5,0.5c0.3,0.2,2.6,0.2,3.1,0.1c0.3-1,0.3-1.6,0-2.6c0.5,0.6,0.4,1,1.4,0.9v0.1
			c-0.5,1.7-1.3,2.7-1.6,4.4C419.9,342,419.3,342.5,418.9,343.2z M429,344.6c-0.6,3.2-2.5,8-1.9,11.9c0.3,1.7,0.6,3.5,0.6,5.1
			c0,0.1,0.1,0.2,0.1,0.3c-1.2-0.2-5.6-1.8-6.3-2.3c0.2-0.4,0.5-0.9,0.7-1.3c-0.3-0.2-0.5-0.3-0.8-0.5c-0.2-1.7-0.3-3.5-0.5-5.2
			c0.4-1.7,0-3,0.5-5c0.6-2.1,0.8-3.9,1.6-5.9c0.4-1,1.3-2,1.9-3c0.5,0.2,0.8,0.3,1.3,0.2c0,0.1,0.1,0.2,0.1,0.3c0,0.1,0,0.2,0,0.3
			c-0.2-0.1-0.3-0.2-0.5-0.3c-0.2,0.1-0.5,0.2-0.7,0.3c-0.4,0.6-0.5,0.9-0.5,2c0,0.1,0.1,0.1,0.1,0.2c1.6,1.2,2.3-0.2,2-1.7
			c0.4,0.1,0.8,0.2,1.2,0.3c0.3-0.2,0.6-0.3,0.9-0.5c0.2-0.6,0.1-0.9,0.1-1.6c1,0.2,1.9,0.5,2.4,1.2v0.1c-0.3,0.2-2.4,2.7-2.5,2.9
			C428.3,343.5,429.2,343.7,429,344.6z M435.3,364.1c-1.7-0.5-3.4-0.9-5.1-1.4c0.2-0.9,0.4-0.9,0.4-2c-3.4-3.3,0.4-14.1,1-17.8
			c0.3,0.1,0.6,0.3,0.9,0.4c0.3-0.3,0.6-0.7,0.9-1c0.1-0.1,0.2-0.1,0.3-0.2c0.2,0.3,0.3,0.5,0.5,0.8c-0.2,0.5-0.3,0.9-0.3,1.7
			c0.1,0.2,0.2,0.3,0.3,0.5c0.4,0.2,0.8,0.2,1.3,0.1c0.4-0.7,0-2.8,0-2.8c0.3-0.6,0.5-0.8,0.4-1.7c0.4,0.2,0.7,0.3,1.1,0.5
			c0.4,3.1-1.6,5.5-2.1,8.4c-0.7,4-0.7,9.7,0.5,14.1C435.4,363.9,435.3,364,435.3,364.1z M443.5,366.4c-2.3-0.1-3.7-1.3-5.9-1.4
			c-0.1-0.1-0.1-0.1-0.2-0.2c0.2-0.7,0.3-1.4,0.5-2.1c-0.2-1-0.7-1.4-0.9-2.4c-0.6-2.5-0.6-5.9-0.3-8.9c0.4-0.1,0.8-0.2,1.2-0.3
			c0.7-1.1,0.4-2.3-0.3-3.3c0-0.1,0.1-0.2,0.1-0.3c0.2,0.1,0.5,0.3,0.7,0.4c0.3-0.1,0.6-0.1,0.9-0.2c0.2-0.5,0.5-0.9,0.7-1.4
			c-0.4-0.6-0.5-1.3-1.2-1.7c0-0.1,0-0.1,0-0.2c1-0.3,2.5-1.4,3.1-2.1c0.2,0.1,0.5,0.1,0.7,0.2c0.1,0.9-0.2,1.8,0.8,2.2
			c0,2.1-1,3.6-1.4,5.3c-1.1,4.4,0.1,12.6,1.5,16.1C443.5,366.2,443.5,366.3,443.5,366.4z M445.8,366.9c-0.1-0.4-0.1-0.9-0.2-1.3
			c0.2-0.2,0.5-0.5,0.7-0.7c-0.2-0.8-1.2-0.9-1.5-1.7c-0.8-2-1.7-9.5-0.8-11.5c0.4-0.5,0.9-1,1.3-1.5c-0.3-0.4-0.6-0.5-0.8-1
			c0.1-0.2,0.1-0.3,0.2-0.5c0.4,0.2,0.5,0.5,1.1,0.6c0.3,0.1,0.4,0,0.6-0.2c0.9-0.4,1.3-3.9,1.3-4.9c1,0.3,1.3,0.3,1.8,1
			c-1.9,5.7-1.9,17.1,0.7,22.3C448.8,367.6,447.3,367.1,445.8,366.9z M459.7,368.4c-2.3,0-4.5-0.2-7.1-0.4c0.4-1.9-1.9-4.5-2.2-6.9
			c-0.5-4,0.3-7.4,0.5-11.7c1.2,1.4,1.4,0.4,2.5,0.9c0.9,0.5,0.9,1.2,2.2,0.4c0.7,0.9,0.5,2.6,0.5,4.2H456c-0.2-0.5-0.3-0.9-0.5-1.4
			c-0.1,0-0.2-0.1-0.3-0.1c-0.9,0.1-1,0.5-1.6,0.8c-0.1,1.1,0.3,1.3,0.7,2.2c0.1,0,0.1,0.1,0.2,0.1c0.9-0.3,0.9-0.6,1.5-1.1
			c0.1,0,0.1,0.1,0.2,0.1c-0.3,4.9,2.1,9,3.5,12.8C459.7,368.4,459.7,368.4,459.7,368.4z M462.9,368.4c-0.5-0.3-1.3-1.3-1-1.7
			c-0.3-0.6-1.1-0.9-1.5-1.5c-1.2-1.9-3.2-11-2.5-13.3c0.2-0.3,0.4-0.5,0.6-0.8c-0.2-0.7-0.3-1.4-0.5-2.1c0.3-0.9,0.7-1.9,1-2.8
			c0.4,0,0.9,0.1,1.3,0.1c0,0.1,0.1,0.1,0.1,0.2c-0.2,0.4-1.1,1.2-1.5,1.9c0,0.7,0.3,1.1,0.8,1.3c0.4,0.2,0.8,0,1.2-0.1
			c0.3-0.4,0.4-0.6,0.3-1.1c0.2,0,0.3-0.1,0.5-0.1c-0.1,1.7-1.4,2-1,3.5c0.3,0.8,0.8,0.6,1.4,1.1c0.6,1.7,1.1,3.5,1.7,5.2
			c0.7,1.5,1.5,3,2.2,4.5c1.1,1.6,3.2,3.7,3.6,5.8C467.8,368.7,464.3,369,462.9,368.4z M472.8,368.4c-1.2-1-2-2.5-2.9-3.9
			c-3.1-4.9-7.4-10.4-6-18.3c0.6-0.2,1.3-0.5,1.9-0.7c0.3,0.1-0.4,1.1-0.4,1.5c-0.2,1.1,3.5,2.9,4.1,3.8c1.5,2.5,3.1,5.1,4.6,7.6
			c1,1.1,1.9,2.2,2.9,3.3c1,1.7,2.1,3.3,3.6,4.5c0,0.1,0.1,0.2,0.1,0.3C478.2,367.1,475.6,367.7,472.8,368.4z M483.1,365.9
			c-0.9-1-1.5-2.1-2.7-2.8c0.3-3.7-1-1.1-2.4-2.8c-2.2-2.5-3.8-5.1-5.4-8.2c-0.3-0.4-0.6-0.7-0.9-1.1c-0.1-0.5,0.3-1,0.3-1.7
			c-1.6-1.1-2.8-2.5-2.8-5.3c0.3-0.2,0.6-0.4,0.9-0.6c2.2,1.2,3.5,3.9,5.6,5.3c3.3,2.2,6.5,4.7,9.8,6.8c3.4,1.7,6.7,3.3,10.1,5
			C491.9,363,487.7,364.5,483.1,365.9z M504.7,348.6c-0.7-0.2-1-0.4-2-0.4c-0.3,0.4-0.6,0.7-0.7,1.4c0.1,0.2,0.1,0.3,0.2,0.5
			c0.5,0.3,0.8,0.4,1.7,0.4v0.1c-0.7,2.2-1.9,5.5-3.9,6.6c-0.4,0-0.8,0.1-1.2,0.1c-0.7,0.2-1.3,0.7-1.8,1.1
			c-7.3-2.8-14.4-6.3-19.2-11.3c-1.1-1.2-3.3-1.3-4.1-3.1c0,0,0-1.9-0.1-2.1c4,1.7,9.9,3.1,15.1,3.5c0,0.1,0,0.1,0,0.2
			c-0.6,0.3-0.7,0.8-0.6,1.6c1.1,0.8,2.6,0.2,4-0.1c0.3-0.5,0.2-0.8,0.3-1.4c2.4-0.2,4.4,0.2,6.7-0.1c-0.2,0.8,0,1.1,0.4,1.8
			c0.6,0.1,1.2,0.2,1.8,0c0.4-0.2,0.5-0.3,0.6-0.7c-0.1-0.4-0.1-0.9-0.2-1.3c0.7-0.1,1.5-0.2,2.2-0.3c0.2,0.1,0.3,0.2,0.5,0.3
			C504.7,346.1,504.9,347.7,504.7,348.6z M489.3,345.4c0.2,0,0.3,0,0.5,0c-0.1,0.1-0.3,0.1-0.4,0.2
			C489.4,345.6,489.3,345.5,489.3,345.4z M499.6,329.7c0.6,0.3,1.1,0.6,1.4,1.3c0.4,0.9-2.4,2-2.4,3.7v0.1c0.4,0.3,1,0.4,1.5,0.6
			c0.8-0.4,1.7-1,2-1.9c0.8,0.3,1.3,2.3,1.4,3.3c-1.1,0.1-1.6,0.8-1.8,1.8c-0.8-0.2-2-0.6-2.5,0.2c-0.8,1.3,0.5,1.9,1.8,1.8
			c0.3-0.3,0.5-0.5,0.7-0.9c0.9,0.4,1.5,0.5,2.3,0c0.3,1,0.2,1.7,0.1,2.5c-6,2.5-18.1,1.6-24.7-0.5c-2.4-0.8-5.2-1-6-3.3
			c0.1-0.3,0.2-0.7,0.3-1c0-0.1,0.1-0.1,0.1-0.2c5.8,1.3,15.7-1.4,19.7-3.8c1.1-0.7,3.1-1,3.7-2.2c0.6,0.1,0.9,0.2,1.5,0.1
			C499.4,331,499.3,330.4,499.6,329.7z M495.5,320c-0.2,0.6-0.4,0.8-0.4,1.6c0.4,0.4,0.7,0.7,1.3,0.9c0.4-0.1,0.7-0.3,1.1-0.4
			c0.6,0.5,1,1.3,1.3,2.1c-0.8,0.4-0.9,0.4-1.4,1c0,0.7,0.2,1,0.7,1.2c-0.1,2.1-2.4,3.3-4,4.3c-0.9,0.6-1.8,1.3-2.7,1.9
			c-1.9,1-11,3.1-13.5,2.8c-1.3-0.2-3.4,0.3-4.7-0.4c-0.6-1.3-1.3-2.7-1.9-4c6.4-0.8,8.9-1.5,13.6-4c1.6-0.9,4-1.1,4.9-2.7
			c0.2-0.1,0.5-0.3,0.7-0.4c0.3,0.6,1.1,1.4,2.1,1c0.2-0.2,0.5-0.3,0.7-0.5c-0.1-0.5-0.1-1.1-0.2-1.6c-0.5-0.2-0.7-0.3-1.2-0.2
			c0.5-1.9,1.9-1.9,3.4-2.6C495.4,320,495.4,320,495.5,320z M488,314c1.4-0.2,1.2-0.2,2.6,0.1c0.4-0.2,0.8-0.4,1.2-0.6
			c0.5-0.2,0.9,0.3,1.1,0.9c-1.9-0.1-2.7,1-3.5,2.2c0,1,0.5,1.3,1.1,1.6c0.3,0,0.7,0,1,0c0.7-0.6,1.8-1.5,1.9-2.7h0.1
			c0.3,1.4-3.6,6.9-4.8,6.7c-0.6,1.6-2.4,1.8-3.9,2.7c-4,2.3-9.5,4.9-15.6,4c-0.5-1-1.4-2.3-2.3-3c0-0.1,0-0.3,0-0.4
			c7.9-0.6,13.3-5.7,17.5-10.2c0.8-0.8,1.8-1.1,2.3-2.2C487.1,313.5,487.4,313.7,488,314z M484.2,307.2c0-0.3,0-0.5,0-0.8
			c0.6,0.1,1.1,0.1,1.7,0.2c0.1,0.1,0.2,0.1,0.3,0.2c-0.2,0.5-0.4,0.5-1,0.6c-0.2,0.3-0.3,0.7-0.5,1c0,1.3,1.1,1.1,1.9,1.6
			c-0.3,0.6-0.7,1.1-1,1.7c-0.9,0.2-1.6,0.1-2.2,0.4c-0.1,0.5,0.1,1.4-0.1,2c-0.4,0.9-1.9,1.6-2.7,2.2c-0.5,0.5-1,1.1-1.5,1.6
			c-2.6,1.9-4.6,3.2-8,4.4c-1.7,0.6-4.1,1.8-6.4,1.2c-0.7-0.3-1-1-1.4-1.6c5.9-1.5,9.4-6.6,13.8-9.7c1.8-1.2,3.8-2.4,4.4-4.7
			C482.9,307.7,483.1,308,484.2,307.2z M449.9,270.7c0.6-0.1,1.1-0.1,1.7-0.2c0.3,0,0.6,0,0.9,0c0.5,0.5,0.8,0.8,1.6,1.1
			c0.6-0.2,1-0.4,1.4-0.9c0.1,0,0.3,0,0.4,0c-0.1,0.4-0.2,0.9-0.3,1.3c0.4,0.7,0.8,1,1.6,1.4c0.4-0.1,0.7-0.1,1.1-0.2
			c0.6-0.9,0.3-1.5-0.4-2.1V271c0.8,0,1.7,0.1,2.1,0.5c-0.4,0.5-0.4,0.7-0.4,1.4c0.2,0.1,0.3,0.3,0.5,0.4c0.4,0.4,1.1,0.6,1.6,0.2
			c0.4-0.2,0.6-0.6,0.7-1.1c1,0.1,2.3,0.9,2.7,1.6c0.2,0.3,0,1,0,1.6c0.3,0.2,0.7,0.5,1,0.7c0.9-0.1,0.9-0.3,1.6-0.5
			c0.1,0,0.1,0.1,0.2,0.1c0.1,0.2,0.3,0.3,0.4,0.5c-0.8,0.3-1.2,0.3-1.2,1.4c0.2,0.2,0.4,0.3,0.6,0.5c0.4,0,0.7,0.1,1.1,0.1
			c0.3-0.2,0.4-0.3,0.5-0.7c0.1-0.1,0.2-0.1,0.3-0.2c0.4,0.4,0.9,0.9,1.3,1.3c-0.8,0.6-2.4,1.3-3,2.1c-0.1,0-0.1,0-0.2,0
			c0.2,0.9,0.6,1.2,1.3,1.6c1-0.1,1.3-0.5,2-0.8c0.7,0.3,1.2,0.2,2.1,0.2c0.1,0.2,0.2,0.5,0.3,0.7c0.2,0.3-0.2,1.1-0.2,1.8
			c-0.8-0.1-1.6-0.2-2.4-0.3c-0.4,0.3-0.6,0.5-0.9,0.9c0,0.4,0,0.6,0.2,0.8c0.2,0.3,0.7,0.5,1.1,0.7c0.6-0.1,1.3-0.3,1.9-0.5
			c0.5-0.2,0.5-0.5,0.7-1.1c0.3-0.1,0.7-0.1,1-0.2c0.4,0.9,0.9,1.9,1.3,2.8c-0.6-0.1-1.2,0.1-1.8,0.2c-0.2,0.7-0.3,0.7-0.1,1.4
			c1,0.6,2.4,0.6,3.3,1.3c0,0.1,0.1,0.2,0.1,0.3v0.1c-0.5,0-0.9,0-1.4,0c-0.2,0.4-0.3,0.7-0.5,1.1c-0.3-0.3-0.5-0.4-1-0.6
			c-0.9,0-1.3,0.2-1.6,0.8c0,0.2-0.1,0.5-0.1,0.7c0.4,0.5,1,0.9,1.9,0.7c0.6-0.3,0.6-0.8,1.1-1.2c0.8,0.5,1.3,0.4,2-0.1
			c0.8,0.7,1.1,2.1,1.4,3.2c-1.1,0.5-1.8,0.8-2.4,1.7c0.1,1.1,0.7,1.5,1.9,1.5c0.3-0.4,0.7-0.7,1-1.1c0.7,1.1,0.6,2.9,1,4.3
			c-0.4,0.4-0.7,0.5-0.8,1.2c0.3,0.6,0.6,0.8,1,1.3c-0.9,1.6-1.6,4.5-3.7,4.5c-1.2,2.6-4.1,4-6.3,5.7c-2.1,1.6-4,4-6.5,5.1
			c-4.8,2.1-9.1,0-13.4-1.1c-10.1-2.6-15.7-9.9-20.7-17.6c-1-1.6-2.4-3-3.2-4.9v-0.1c0.7,0.4,1.3,0.7,2,1.1c0.1,0,0.2-0.1,0.3-0.1
			c0.2-0.5,0-0.9-0.1-1.6C437.9,293.2,450,281.3,449.9,270.7z M471,281.5h-0.1c-0.1,0-0.2-0.1-0.3-0.1c0.1-0.1,0.1-0.2,0.2-0.3
			C470.9,281.3,470.9,281.4,471,281.5z M443.3,271.7c0.4,0.1,1,0.3,1.5,0.1c0.1,0,0.3-0.1,0.4-0.1c-0.1-0.5-0.1-0.9-0.2-1.4
			c-0.4-0.2-0.8-0.4-1.2-0.6c0.1-0.5,0.2-0.7,0.2-1.5c0.4,0.1,0.6,0.1,0.9-0.1c1.5,0,2.8,0.9,3.1,2.1c0.1,0.1,0.1,0.1,0.2,0.2
			c-0.7,0.4-1.1,0.3-1.4,1.1c0,0.2-0.1,0.4-0.1,0.6c0.4,0.4,0.5,0.6,1.2,0.7c0.6,2.3-2.2,6.7-3.2,7.9c-0.8,1.2-1.6,2.4-2.4,3.6
			c-0.7,0.5-1.3,1.1-2,1.6c-2.2,1.8-3.8,3.7-6.3,5.3c-0.9,0.5-4.4,2.8-5.5,2.8s-1.5-0.8-2.3-1.2c0-0.1-0.1-0.3-0.1-0.4
			C434,289.5,441.4,280.4,443.3,271.7z M437.1,268c-0.5-1.3,0.9-2.5,1.2-3.7c0.5,0.3,0.6,0.9,1.3,1.2c0.8,0,0.9-0.2,1.4-0.5
			c0.1,0.5,1.1,3.2,0.9,3.9c-0.5,2.1-1.1,4.3-1.6,6.4c-1.9,4.8-5.2,8.1-8.8,11.2c-1.8,1.6-4,3.7-6.8,4.3c-1.7,0.3-3.8-2.8-5.4-3.3
			c-0.1-0.1-0.1-0.2-0.2-0.3c6.9-2.8,11.4-6.6,14.9-12.7c0.8-1.4,2-2.5,2.2-4.5c0.4-0.1,1.2-0.1,1.5-0.3c0.3-0.2,0.2,0,0.3-0.4
			c0-0.4,0-0.8,0-1.2C437.7,268.1,437.4,268.1,437.1,268z M431.1,260.6c0.1,0,0.2,0,0.3,0c-0.1,0.1-0.3,0.3-0.4,0.4
			C431,260.9,431.1,260.8,431.1,260.6z M431.2,266.2c0.1-0.1,0.3-0.3,0.4-0.4c0.3-0.3,0.4-0.4,0.4-1c-0.2-0.2-0.4-0.5-0.6-0.7
			c-0.7-0.1-1.1-0.1-1.6,0.3c0.1-1,0.5-2,1-2.8c0-0.1,0.1-0.1,0.1-0.2c0.4,0.8,0.4,0.9,1.2,1.3c0.2,0,0.3,0,0.5,0
			c0.2-0.2,0.3-0.4,0.5-0.6c0-0.2,0-0.5,0-0.7c-0.3-0.6-0.7-0.8-1.5-0.8v-0.1c0.3-0.1,0.6-0.1,0.9-0.2c0.9,0.1,1.6,0.5,2.2,0.9
			c2,1.5,0.1,7.3-0.5,9.3c-1.4,4.6-6.7,10.3-10.5,12.7c-2,0.9-4.1,1.8-6.1,2.7c-2-0.3-2.8-2.5-4.6-3.2c-0.1-0.1-0.2-0.3-0.3-0.4
			c3.1-2,8.9-4,10.9-6.8c1.3-1.8,2.2-3.7,3.4-5.7c0.8-1.4,2-3,2.4-4.8h0.1C430.1,265.5,430.3,266,431.2,266.2z M424.7,255.6
			c0.6,0.2,1,0.4,1.9,0.4v0.1c-0.6,0.2-0.7,0.4-1,0.9c0,0.2,0,0.3,0,0.5c0.5,0.3,0.9,0.6,1.4,0.9c0.3-0.3,0.6-0.6,0.9-0.9
			c0.3-0.4,0-0.7-0.3-1.1c0.6,0.1,1.6,0.5,1.8,1.1c0.4,1.1-0.7,1.9-0.9,2.5c0.1,0.5,0.2,1.1,0.3,1.6c-0.9,2.1-1.8,4.3-2.7,6.4
			c-2.8,5.4-5.4,7.5-10.5,10.6c-1,0.6-3.5,2.6-5.4,2c-1.7-1.1-3.3-2.1-5-3.2c0-0.1-0.1-0.1-0.1-0.2c0.8-0.7,2.3-0.5,3.4-0.9
			c1.2-0.6,2.3-1.2,3.5-1.8c4.3-2.7,9.1-7.4,11-12.5c0.2-1.1,0.4-2.1,0.6-3.2C424,258,424.7,256.8,424.7,255.6z M418.1,253.2
			c0.1-0.1,0.3-0.3,0.4-0.4c0-1.1-0.4-1.1-0.8-1.7c0.1-0.4,0.2-0.7,0.3-1.1c0.6,0.2,1.1,0.4,1.7,0.6c-0.3,0.5-0.4,0.6-0.3,1.3
			c0.4,0.2,0.7,0.4,1.1,0.6c0.5-0.1,0.9-0.3,1.4-0.4c0.4,0.2,0.7,0.5,1.1,0.7c-0.1,0.8-0.3,1.5-0.4,2.3c-0.7,0.1-0.8,0.4-1.2,0.7
			c0,0.3,0,0.6,0,0.9c0.3,0.2,0.5,0.5,0.8,0.7c-0.6,6.7-7.4,13.9-12.8,16.3c-1,0.4-5.1,2.2-6.6,1.8c-2.5-0.7-4.1-3.5-6.5-4.5
			c0-0.1-0.1-0.1-0.1-0.2c7.9-1.1,19.1-10.3,20.6-17.4C417.4,253.4,417.8,253.4,418.1,253.2z M411.2,243.8c0.3,0.2,0.5,0.3,0.8,0.5
			c0.1,0.1,0.2,0.3,0.3,0.4c-0.4,0.2-0.5,0.3-1,0C411.1,244.5,411.1,244.3,411.2,243.8z M414.2,246.2c0.1,0,0.1,0,0.2,0
			c-0.4,0.6-0.8,0.5-0.8,1.6c0.6,0.8,1.3,1.8,2.2,2.4c-1.6,8.3-12.2,18.7-21.5,19.2c-1.9-1.4-3.8-2.8-5.7-4.2c0-0.1-0.1-0.1-0.1-0.2
			v-0.1c10.3-2.1,17.7-9.8,21.5-18.5C411.4,246.6,413.2,247,414.2,246.2z M404.7,238.6c1.6,0.4,2.3,1.2,3.5,2.1
			c-0.2,0.5-0.5,0.9-0.7,1.4c0.2,1.1,0.9,0.8,1.6,1.3c-0.9,2.5-1.9,5.9-3.4,7.9c-2.3,3-5.5,6.1-8.7,8.1c-1.4,0.6-2.7,1.2-4.1,1.8
			c-1.4,0.8-4.4,2.5-6.4,2.1c-1.3-0.3-5-3.6-5.8-4.7c4.7-0.2,8-2.7,11.3-4.7c0.6-0.4,1.5-0.5,1.9-0.8c2.4-2.1,4.7-4.6,6.6-7.2
			C402.1,243.8,404.1,241.8,404.7,238.6z M399.8,236c0.6,0.3,0.8,0.3,1.7,0.3c0.4-0.8,0.2-1-0.3-1.6c-0.7-0.2-0.9-0.3-1.4,0
			c0.1-0.4,0.3-0.6,0.6-0.8c0-0.3-0.1-0.6-0.1-0.9c0.3,0.1,2.2,2.7,2.3,3c0.1,0.1,0.1,0.1,0.2,0.2c-0.3,0.3-0.7,0.7-1,1
			c0.1,0.6,0.2,0.9,0.8,1c-0.5,4.1-6.5,11-9.5,13c-1.9,1.3-3.8,2.1-5.9,3.2c-1.7,0.9-6.4,3.6-9,2c-1.6-1.7-3.2-3.4-4.8-5.1v-0.1
			c1.4,0.3,3.6,0,4.5-0.2c9.6-2.1,13.5-5.9,18.6-12.5C397.4,237.3,398.8,237.1,399.8,236z M399.7,215.8c-2.4,1-5.6-0.6-7.5-1.4
			c-4.8-1.9-9.6-4.2-13.5-7.1c-1.2-0.9-3.1-3.6-4.2-4c1.1-1.6,2.1-3.3,3.2-4.9c1.1,0.4,2.9,3.7,4,4.6c1.2,0.8,2.3,1.5,3.5,2.3
			c2.7,2.4,5.9,5,9.7,6.3c-0.5,0.2-0.7,0.2-1,0.7c-0.3,0.8,0.6,1.3,1.4,1.4c0.3-0.2,0.6-0.3,0.9-0.5c-0.1-0.6-0.2-0.7-0.4-1.1
			c0.6,0.3,1.2,0.5,1.8,0.8c0.8,0.9,0.9,2,2.1,2.4C399.7,215.5,399.7,215.7,399.7,215.8z M401.6,212c-1,0.2-1.5-0.2-2.3-0.4v-0.1
			c0.3-0.3,0.6-0.5,1-0.5c0-0.1,0.1-0.1,0.1-0.2c-0.1-0.4-0.2-0.7-0.3-1.1c-0.6-0.2-1.1-0.2-1.8-0.1c-0.1,0.2-0.3,0.3-0.4,0.5
			c0.2,0.5,0.4,0.7,0.6,1.1c-3-1.2-6.3-2.5-8.9-4.3c-1.6-1.3-3.1-2.6-4.7-3.9c-2.1-1.4-5.2-3.6-5.9-6.3c1-1.2,2-2.5,3-3.7
			c0.8,1.2,1.6,2.5,2.4,3.7c3.1,3.9,12.8,11.9,18.6,12.8C402.5,210.4,402.1,211.2,401.6,212z M400.2,206.5
			c-4.2-2.3-16.2-9.9-16.9-15.5c1-1.4,2-2.7,3-4.1c0.7,0.7,0.9,1.9,1.4,2.9c1.9,2.4,3.9,4.8,5.8,7.2c2.2,1.8,4.4,3.6,7,4.9
			c1.2,0.6,2.8,0.7,3.7,1.6c0.2,0.2,0.2,0.4,0.2,0.9c0.5,0.4,0.8,0.5,1.8,0.5C405.7,206.9,402,207.5,400.2,206.5z M408.2,202.3
			c-1.7,0.6-5-1.3-6.3-2c-1.4-0.7-2.7-1.1-3.9-1.9c-3.4-2.2-9.8-8.6-10.1-13.6c1.5-1.6,2.9-3.2,4.2-5c0.7,0.4,1.4,3.9,2,4.8
			c2.7,4,6.2,7.6,10,10.5c-0.2,0.5-0.5,0.7-0.3,1.3c0.2,0.4,0.6,0.6,1.1,0.8c1-0.1,1-0.5,2-0.5c0,0.1,0.1,0.1,0.1,0.2
			c-0.6,1.5,0.5,0.9,1.4,1.5c0.8,0.5,0.6,1.3,2,1.1C409.8,200.8,408.7,201,408.2,202.3z M411.3,198.1c0,0.1-0.1,0.2-0.1,0.3h-0.1
			H411c0-0.1,0-0.3,0-0.4C411.1,198,411.2,198,411.3,198.1C411.3,198.1,411.3,198.1,411.3,198.1z M413.9,195
			c-0.8,0.6-1.9,0.2-2.4,1.2c-6.1-0.2-12-7-15-11.2c-0.8-1-3.4-4.8-2.7-7c0.5-1.4,2-2.2,2.9-3.3c1,0.3,4.2,5,5,6.1
			c2.6,3.4,8,9,12,10.3c-0.2,0.4-0.9,0.6-1.3,0.8c0,0.2,0.1,0.5,0.1,0.7c0.5,0.3,1.2,0.6,1.8,0.2c0.4-0.2,0.3-0.5,0.2-0.9
			c0.3-0.3,0.9-0.2,1.7-0.2c0,0.1,0.1,0.1,0.1,0.2C415.5,193,414.7,194,413.9,195z M417.6,190.4c-0.4-0.3-0.7-0.7-1.1-1
			c-0.6-0.2-1,0.3-1.6,0.2c-0.4-0.1-0.7-0.3-1.1-0.4c0.1-0.7,0-1.1-0.3-1.7c-0.9-0.2-1.4,0-1.9,0.4c-4.3-2.6-11-10.1-13.4-14.6
			c0.9-1.3,2.5-2.1,3.4-3.4c0.2,0,0.3,0,0.5,0c2.3,5.1,5.6,7.9,9.6,11.5c0.5,0.5,1.8,1.4,2.1,2c0.2,0.4,0.3,0.9,0.5,1.3
			c0.5,0.2,1.1,0.3,1.6,0.5c1.2,0.9,2.5,1.9,3.7,2.8C419.4,189.2,418.2,189.5,417.6,190.4z M423.7,184.3c-0.1-0.6-0.2-0.9-0.7-1.1
			c-0.6-0.3-1.1-0.1-1.6,0c0,0.3-0.1,0.7-0.1,1c0.6,0.4,1.1,0.6,1.9,0.5c0,0.1,0.1,0.1,0.1,0.2c-0.9,0.6-1.3,1.3-2.6,1.5
			c-0.2-0.2-0.4-0.3-0.6-0.5c0.6-0.8,0.3-1.5-0.6-1.9c-0.7,0.1-0.8,0.2-1.3,0.4c-0.8,0.5-3.2-2.4-4-3c-4.4-3.5-8.2-6.9-10.7-12.4
			c0.2-2.3,3.1-2.9,4.1-4.6c0.1,0,0.1,0.1,0.2,0.1c0.9,0.3,3,5.7,3.8,7c1.9,3.1,9.7,10.5,13.4,11.5
			C424.8,183.6,424.2,184.1,423.7,184.3z M429.2,179.2c-0.7,0.8-3.1,1.5-3.3,2c-2.5-0.3-4.3-2.1-5.8-3.5c-3.3-3-10.4-8.8-10.6-14.4
			c1.2-1.2,4.4-2.6,5.1-4.2c0.4,0.3,1.5,5.3,2.2,6.5c2.6,4.4,5.9,8.6,10.2,11.3C428.1,177.6,427.8,178.7,429.2,179.2L429.2,179.2z
			 M432.3,176c-0.3-0.3-0.6-0.6-0.9-0.9c-0.6-0.3-1.2,0-1.5,0.4c0,1,0.6,1.4,1.7,1.3c0,0.1,0,0.2,0,0.3c-5.6-0.5-11.5-8.6-13.9-13
			c-0.4-0.8-1.3-5.6-1.5-5.8c0.4-1.4,2.4-2.3,3.4-3.2c0.9,0.8,1.4,2.6,2,3.6c0.7,1.1,2,2.1,2.8,3.1c2.7,3.5,6.3,10.2,10.7,11.6
			c0,0.1,0.1,0.1,0.1,0.2C434.6,174.4,433.4,175.8,432.3,176z M436.6,172.2c-5.3-3.2-7.7-6.6-11.3-11.3c-1.7-2.2-3.2-3.5-4.1-6.7
			c0.8-1.6,2.8-2.6,4.1-3.6c0.7,0.3,0.3,0.9,1.1,1.1c-1,1.2,1.4,4,2.1,5c1.4,2.1,2.2,4.4,3.8,6.3c1.3,1.5,3.3,2.8,4.3,4.6
			c-0.6,0.1-0.7,0.2-1.1,0.5c0,0.1,0,0.2,0,0.3c0.6,0.8,1.4,0.7,1.8,1.7c0.5,0.3,1.2,0.5,2,0.3C438.7,171.3,437.7,172,436.6,172.2z
			 M437.4,169c0-0.3,0-0.7,0-1c0.3,0.2,0.5,0.5,0.8,0.7C437.9,168.8,437.7,168.9,437.4,169z M443.2,167.5c-2.5,1.8-4.3,0.2-5.3-2.6
			c-0.6-0.1-1.1,0.2-1.7,0c-1.9-0.6-6.3-8.1-7.5-10.2c-0.6-1-2.1-3.6-1.6-5.3s3.1-2.2,4.2-3.4c0.3,0,0.5,0,0.8,0
			c1,3.9,1.9,7.1,3.9,9.7c0.2,0.3,0.7,2.5,1.2,3.1c1.1,1.4,5,4.6,4.9,6.3c0.7,0.5,1.2,0.7,2.4,0.6l0.1,0.1
			C444.4,166.9,443.9,167,443.2,167.5z M446.3,165.2c-0.1,0-0.3,0-0.4,0c-0.2-1.5-5.1-4.1-6.2-5.6c-2.1-2.9-4-6.6-5.4-10
			c-0.3-1.5-0.7-2.9-1-4.4c1.5-2.3,5.5-3.1,6.5-4.7c0.2,0,0.4,0.1,0.6,0.1c0.7,1.5-0.5,6.4,0.1,8.6c0.4,1.3,1.2,4.3,1.8,5.4
			c1,1.8,2.5,3.8,3.2,5.8c-0.4,0.1-0.8,0.1-1.2,0.2c0,0.2-0.1,0.4-0.1,0.6c0.2,0.2,0.3,0.4,0.5,0.6c0.9,0,1.2-0.1,1.7-0.4
			c0.8,0.7,0.9,1.7,1.4,2.7C447.4,164.7,446.7,164.8,446.3,165.2z M450.1,162.7c-1.3-0.4-2.5-2.7-3.3-3.7c-3-3.8-6.2-10.3-4.9-16.4
			c0.2-0.9-0.1-2.5,0.6-3.4c1.6-2,5.4-2.2,7.2-3.5c0.2,0.1,0.4,0.2,0.6,0.3c0,0-2.5,7-1.9,8.5c0.8,2,0.3,4,0.8,6.5
			c0.8,3.6,1.8,6.3,2.8,9.8C452.4,162.1,450.7,162.4,450.1,162.7z M458.1,158.7c-0.5,0.2-1,0.3-1.5,0.5c-0.2-0.4-0.5-0.7-0.7-1.1
			c-0.5,0-0.9-0.1-1.4-0.1h-0.1c-0.1,0.2-0.3,0.5-0.4,0.7c0.2,0.5,0.4,0.8,0.9,1c-0.2,0.6-0.5,0.6-1.1,0.7c-0.1-1.2-1.1-1.1-1.4-2
			c-0.4-1.1-0.5-2.2-0.8-3.1c-1.9-6.8-2.8-13.7,0.9-18.9c0.1-0.5,0.1-0.9,0.2-1.4c1.4-1.9,4-0.6,5.4-2c1.2,1.1-1.1,3.5-1.2,4.8
			c-0.3,3.2-1.4,7.9-0.4,11.4c0.3,1-0.5,2.4-0.3,3.1C457.7,154.5,458.3,155.9,458.1,158.7z M465.2,151.8c-0.1,1.4-0.3,2.8-0.4,4.2
			c-0.2,0.4-1.1,1.2-1.5,1.5c-0.4,0.4-2.5,0.4-3.1,0.4c-2.4-4.1-4-14.5-2-19.5c0.9-2.2,2-3.9,2.8-6.4c2.2-0.2,4.6-1.4,7-1.2
			c0-0.1,0-0.2,0-0.3c0.4,0.2,6.8,0.9,6.8,0.9c0.1,0,0.1,0.1,0.2,0.1c0,0.2,0.1,0.5,0.1,0.7c-1.1,0.9-2.2,1.9-3.3,2.8
			c-1.8,2.5-3.9,6-4.9,9.1C466.1,146.6,466.2,149,465.2,151.8z M469.8,156.6c-0.1,0.3-0.1,0.6-0.2,0.9c-0.5,0.7-1.6,0.3-2.3,0.1
			c-2.8-5.5,2.2-17.5,5.3-21.3c1.3-1.7,3.6-2.3,4.7-4.2c2.7,0.6,6.8,1.1,8.8,3.6c-2.1,1.5-4.3,3.1-6.4,4.6c-2.7,2.8-4.3,6.3-6.2,10
			c-0.8,1.5-2.1,3-2.7,4.7c-0.7,0.1-1.3-0.1-1.7,0.5C469.2,156.1,469.4,156.4,469.8,156.6z M474.5,159.5c-0.4-0.5-0.3-1-0.8-1.4
			c-0.8-0.6-1.5,0.1-2.3,0.2c-0.1-0.1-0.1-0.1-0.2-0.2c0.2-2.4,1.8-4,2.7-5.7c2.3-4.5,4.6-10.1,8.5-12.8c1.1-0.7,2-1.5,3-2.2
			c0.7-0.5,2.3-0.3,2.9-0.8c2.4,0.3,5.1,2.1,6.4,3.8c-0.4,1-7.9,5-9.3,6c-2.5,1.8-5.4,4.9-7,7.6
			C477.4,155.8,476.1,158.3,474.5,159.5z M478.8,159.8c0.3,0.5,0.6,0.6,1.4,0.6c-0.2,0.5-0.5,0.9-0.7,1.4c-0.2,0.1-0.5,0.2-0.7,0.3
			c-0.6-0.6-1.6-1.5-2.5-1.8c0.2-2.3,2.9-4.5,4-6.1c1.7-2.4,3.5-5.2,5.9-6.8c1.1-0.8,2.9-1.2,3.9-2.1c0.6-0.5,1.3-1.3,2-1.7
			c1.6-0.6,3.2-1.1,4.8-1.7c2.6,1.2,4.1,4.3,6.2,5.4c0.1,0.6,0.3,0.8-0.2,1.1s-5.4,0.9-6.5,1.4c-3.6,1.6-7.1,3.8-10.4,5.8
			c-0.4-0.3-0.8-0.5-1.2-0.8c-0.3-0.2-0.4-0.2-0.8,0c-0.1,0.1-0.2,0.2-0.3,0.3c0.1,0.6,0.3,1,0.7,1.6c-1.3,1.1-2.6,2.3-3.9,3.4
			c-0.2-0.4-0.3-0.8-0.5-1.2c-0.4,0-0.7,0-1.1,0c-0.1,0.1-0.2,0.1-0.3,0.2C478.7,159.4,478.7,159.6,478.8,159.8z M481.2,162.2
			c1.7-4.8,10.4-7.9,14.6-10.8c0.2,0.3,0.4,0,0.6-0.1c1.7-0.6,2.8-0.7,4.5-1.1c0.1-0.1,0.1-0.1,0.2-0.2c3,0,6.4,1.1,6.8,4.4
			c-0.6,0.3-0.7,0.4-0.7,1.1c0.2,0.2,0.5,0.4,0.7,0.6c-0.1,0.7-0.2,0.7-0.5,1.1c0.1,0.8,0.4,0.9,0.7,1.4c0.8-0.1,0.9-0.3,1.5-0.5
			l0.1,0.1c0.4,0.3,0.4,0.5,0.5,1c-1,0.4-2.7-0.4-3.6-0.5c-2-0.3-5.3-0.4-7.6,0.1c-4.3,1-9,2.2-12.5,4.4c-1.2,0.7-2.3,1.9-3.7,2.5
			C481.8,164.9,481.7,163.3,481.2,162.2z M508.6,161c0.5,0.1,0.6,0.2,1.1,0.2c0.1,0.1,0.1,0.1,0.2,0.2c0,0.1,0,0.3,0,0.4
			c-0.4-0.1-0.7-0.3-1.1-0.4C508.5,161.2,508.7,161.4,508.6,161z M452.4,227.4c-0.1,0-0.2,0-0.3,0c0.1-0.1,0.1-0.3,0.2-0.4h0.1
			C452.4,227.2,452.4,227.3,452.4,227.4z M457.4,224.5c-0.2-0.3-0.3-0.7-0.5-1c-0.5-0.1-1.1-0.1-1.6-0.2c-0.1,0.1-0.2,0.1-0.3,0.2
			c-0.2,0.5-0.3,0.8-0.1,1.2c-0.7,0.4-1.5,0.8-2.2,1.2c0.9-2.8,1.6-5.3,2.4-7.8c0.6,0.9,1.2,1.9,1.8,2.8c0.8,1,2.4,1.5,3.2,2.5
			C459.3,223.9,458.6,224.4,457.4,224.5z M463.6,221.2c-0.6-0.4-0.9-0.9-1.5-1.2s-0.8-0.1-1.5,0c-0.1,0.3-0.3,0.7-0.4,1
			c-2.1-0.3-3.7-2.9-4.4-4.7c0.6-1.2,1.6-3.4,1.5-4.7c0.2-0.1,0.3-0.2,0.5-0.3c1.1,1,2.3,3.2,3.3,4.4c0.6,0.7,1.7,0.8,2.2,1.6
			c-0.2,0.2-0.4,0.3-0.6,0.5c0,0.4-0.1,0.7-0.1,1.1c0.1,0,0.1,0,0.2,0c0.6,0.5,2,0.6,2.4-0.2c0.9,0,1,0.2,1.6,0.4
			c0.1,0.2,0.1,0.3,0.2,0.5C466.3,220.7,465.1,220.9,463.6,221.2z M469.3,216.7c-1.1-0.2-1.2,0.9-2.4,0.6c-3.5-1-6.9-4.5-8.1-8
			c-0.4-1,1.9-4.5,2.2-5c0.8,0.4,1.1,1.4,1.6,2.1c1.5,1.9,3.2,3.7,5,5.1c0,0.1,0,0.3,0,0.4c-0.2,0.1-0.5,0.3-0.7,0.4
			c0,0.2,0,0.5,0,0.7c0.2,0.2,0.3,0.3,0.5,0.5c1.2,0.3,1.4-0.2,2.4-0.4c0.4,0.3,0.7,0.6,1.1,0.9c-0.4,0.1-0.7,0.2-1.1,0.3
			c-0.1,0.3-0.3,0.6-0.4,0.9c0.6,0.7,1.5,1,2.5,0.5c0-0.1,0.1-0.2,0.1-0.3c0-0.7-0.1-0.7-0.4-1.1c0.6,0.2,1.1,0.5,1.7,0.7
			c0,0.1,0.1,0.3,0.1,0.4C472.4,216.7,470.8,217,469.3,216.7z M462,202.4c0.3-1.8,1.9-3.4,2.8-4.8c0.1,0,0.3,0,0.4,0
			c1.2,2.8,11,12.3,14.2,13c-0.2,0.4-0.4,0.9-0.2,1.4c0.2,0.2,0.1,0.1,0.5,0.2c0.1,0.1,0.2,0.3,0.3,0.4
			C472.8,216.3,464.4,207.6,462,202.4z M486.6,207.8c-0.2-0.8-0.7-0.8-1.3-1.2c-1.2,0-1.6,0.5-1.6,1.6c0.6,0.2,1.1,0.5,1.7,0.7
			c-0.4,0.3-0.8,0.6-1.2,0.9c-0.1-0.4,0-0.7-0.5-1c-0.6-0.8-2.2-0.6-2.4,0.4c-4.2-0.6-13.5-9.2-15.1-12.8c0.2-1.6,1.7-2.1,2.3-3.3
			c6.2,0.2,16.3,9.3,19.1,13.4C487.5,207.4,487.2,207.6,486.6,207.8z M491.7,203h-0.1c0-0.2,0.1-0.4,0.1-0.6
			c0.1,0.1,0.2,0.2,0.3,0.3C491.9,202.8,491.8,202.9,491.7,203z M491.6,201.8c-0.6,0-1.2-0.1-1.8-0.1c-0.1,0.1-0.2,0.2-0.3,0.3
			c-0.1,0.8,0,1.5,0,2.7c-0.4,0-0.7-0.1-1.1-0.1l-0.1-0.1c0.1-0.4,0.1-0.9,0.2-1.3c-0.9-0.6-1.8-0.4-2.6-1.1
			c-3.8-3.4-7.9-7.1-12.8-9.4c-0.9-0.3-1.8-0.5-2.7-0.8c-0.1,0-0.1,0-0.2,0c0.1-1.7,2.2-3.8,3.6-4.3c1,0.7,2.3,0.4,3.5,0.9
			c1,0.4,2.5,1.1,3.5,1.5c0.2,0.1,0.6-0.2,0.6-0.2c1,0.8,3.2,1,4.5,1.9c3,2.2,6.5,5.4,8.1,8.9C492.9,201.1,492.1,200.3,491.6,201.8z
			 M497,197.5c-0.1,0.1-0.2,0.1-0.3,0.2c-0.9-1-1.6-0.8-3-0.6c-2.6-2.5-4.5-5.4-8-7c-1.7-0.8-3.6-0.9-5.5-1.8
			c-1.5-0.7-3.1-1.6-5.3-1.7c-0.1-0.1-0.2-0.2-0.3-0.3c0.9-1.4,2.4-2.6,3-4.1c0.6-0.3,0.9-0.2,1.7-0.5c5.6,0,10.9,3.8,14.5,6.5
			c1.4,1.1,3.6,3.2,2.9,4.8c0.7,1.2,1.1,0.7,2.4,1.1c0.1,0,0.1,0,0.2,0C499.1,196.2,497.2,195.5,497,197.5z M500.3,193.4
			c0.1-0.2,0.2-0.4,0.3-0.6c-2.1-1.2-3.7-3.8-5.4-5.5c-2.8-2.7-6.9-4.7-11.2-5.9c-1.2-0.3-2.8-1.2-4-1c-0.1,0-0.3-0.1-0.4-0.1
			c0.6-1.6,1.9-2.7,2.3-4.5c0.6-0.4,1.3-0.2,2.1-0.5c2.4,0.9,5.5,0.4,7.8,1.9c3.9,2.6,8,6.1,10.4,10.2c-0.4,0.3-0.6,0.4-0.8,0.9
			c0.1,0.3,0.2,0.4,0.4,0.6c0.3,0.5,1.3,0.6,1.6,0c0.2,0,0.3,0,0.5,0c0,0.2,0.1,0.3,0.1,0.5C502.6,190.8,502.2,192.4,500.3,193.4z
			 M509.7,179.2c-0.6,0.1-1.3,0.2-1.9,0.3c-0.1,0.3-0.1,0.6-0.2,0.9c0.5,0.3,1,0.7,1.5,1c-0.1,1.1-0.8,2.7-1.5,3.4
			c-0.2,0.2,0,0.1-0.3,0.1c-0.7,0.1-1.1-1.1-1.7-1.5c-0.4,0.1-0.8,0.1-1.2,0.2c-0.2,0.4-0.5,1-0.1,1.4c0.4,0.6,1.3,0.4,1.8,0.9
			c0.1,0.3,0.2,0.6,0.3,0.9c-0.4,0.6-0.9,0.9-1.4,1.1c-0.7-1.6-2-2.3-2.9-3.5c-3.9-5.2-10.5-10.3-19-10.4c0-0.1-0.1-0.1-0.1-0.2
			c0.2-0.6,0.3-1.2,0.5-1.8c0.5-0.8,4.7-2.2,6-2c0-0.1,0-0.2,0-0.3c1.2,0.3,4.9,0.3,5.7,0c1.2,1.1,4.1,1.1,5.8,1.7
			c1.9,0.7,7.1,3.2,8.2,4.7c0.2,0.8,0.5,1.5,0.7,2.3C509.8,178.7,509.8,179,509.7,179.2z M512.1,171.9c-0.4-0.2-0.9-0.4-1.3-0.6
			c-1.1,0.1-1.7,1.6-1.9,2.5c-1.3-0.4-2.4-1.4-3.5-2.1c-1.8-1.1-7.2-2.6-9.4-3.1c-2.4-0.5-6.1-0.5-8,0c-1.4,0.4-2.6,1.3-4.2,1.4
			c-0.1-0.9-0.1-1.8-0.2-2.7c2.5-1,0.8-0.6,2.1-1.9c1.1-0.7,2.2-1.3,3.3-2c1.2-0.4,2.3-0.7,3.5-1.1c5.1-2,7.8-2.7,13.5-2.1
			c0.4,0.4,0.7,0.8,1.1,1.2c0.6,1.9-1.6,1.7,0.8,3.2c0.3-0.1,0.6-0.1,0.9-0.2c0.1-0.4,0.3-0.8,0.4-1.2c0.6,0.1,1.2,0.2,1.8,0.3
			c0.3,0.2,0.4,0.4,0.4,0.9c-0.6,0.7-1.1,0.7-1.2,1.8c-0.3,0.1-0.7,0.1-1,0.2c-0.2,0.3-0.3,0.3-0.4,0.9c0.7,0.9,2,1.3,3.4,1.3
			c0.2,0.4,0.2,0.4,0.2,1C512.9,170.1,512.3,171.4,512.1,171.9z M468,151.4c-0.1,0.1-0.2,0.1-0.3,0.2c-0.1,0.2-0.1,0.3-0.2,0.5
			c0.2,0.3,0.5,0.6,0.7,0.9c0.2,0,0.4-0.1,0.6-0.1C469.9,153.2,469.4,151.5,468,151.4z M504.7,152.9c-0.1-0.1-0.2-0.1-0.3-0.2
			c0,0.1,0,0.2,0,0.3c0.1,0,0.2,0,0.3,0C504.7,153,504.7,153,504.7,152.9z M461.8,154.5c0.1,0.3,0.2,0.7,0.3,1
			c0.5,0.1,1,0.1,1.5,0.2c0.1-0.3,0.1-0.7,0.2-1c-0.6-0.3-0.8-0.5-1.7-0.5C462,154.3,461.9,154.4,461.8,154.5z M503.6,155.6
			c0.3-0.1,0.7-0.1,1-0.2c0.1,0,0.1-0.1,0.2-0.1c0-0.1,0.1-0.3,0.1-0.4c0-0.1-0.1-0.1-0.1-0.2c-0.4-0.3-0.7-0.5-1.4-0.5
			c-0.1,0.1-0.2,0.1-0.3,0.2c0.1,0.2,0.1,0.5,0.2,0.7C503.4,155.3,503.5,155.5,503.6,155.6z M475.2,155.2c-0.1,0.1-0.3,0.1-0.4,0.2
			c0.1,0.6,0.3,0.7,0.5,1.1c0.3,0.1,0.3,0,0.5,0.2c0.4,0,0.4,0,0.6-0.2c0.1-0.2,0.1-0.3,0.2-0.5c-0.1-0.2-0.2-0.3-0.3-0.5
			C475.9,155.4,475.6,155.3,475.2,155.2z M449,158.1c-0.2,0-0.5-0.1-0.7-0.1c-0.2,0.3-0.3,0.3-0.4,0.7c0.1,0.2,0.1,0.3,0.2,0.5
			c0.6,0.2,0.9,0.2,1.6,0.1c0-0.2,0.1-0.3,0.1-0.5C449.5,158.5,449.5,158.3,449,158.1z M486.9,161.9c0.3,0,0.5-0.1,0.8-0.1
			c0.1-0.3,0.2-0.6,0.3-0.9c-0.2-0.3-0.3-0.5-0.5-0.8c-0.2,0-0.4,0-0.6,0c-0.2,0.1-0.3,0.2-0.5,0.3c-0.1,0.1-0.2,0.1-0.3,0.2
			c0,0.2,0.1,0.4,0.1,0.6C486.4,161.5,486.7,161.7,486.9,161.9z M503.2,162c-0.2,0.1-0.3,0.3-0.5,0.4c0,0.4,0,0.6,0.2,0.8
			c0.1,0.1,0.1,0.1,0.2,0.2c0.8,0.4,1.7,0.2,1.9-0.6c-0.1-0.2-0.2-0.3-0.3-0.5C504.2,162.2,503.9,162,503.2,162z M507.8,168.6
			c-0.3,0.4-0.6,0.5-0.7,1.2c-0.5,0.1-1,0.1-1.5,0.2c-0.1,0.1-0.1,0.3-0.2,0.4c0,0.3-0.1,0.6-0.1,0.9c0.3,0.1,0.3,0.1,0.5,0.3
			c0.6,0.1,1,0,1.5-0.1c0.3-0.4,0.4-0.7,0.1-1.2c0.6-0.1,1.2-0.1,1.8-0.2c0.1-0.1,0.3-0.3,0.4-0.4c0-0.2,0-0.4,0-0.6
			C509.1,168.8,508.8,168.6,507.8,168.6z M430,171.7c0,0.2,0,0.3,0,0.5c-0.2,0.9,1.6,1,2.1,0.5c0-0.2,0-0.4,0-0.6
			c-0.5-0.4-0.7-0.7-1.7-0.7C430.3,171.5,430.1,171.6,430,171.7z M503.7,173.7c-0.5-0.2-0.9-0.4-1.6-0.4c-0.1,0.1-0.2,0.2-0.3,0.3
			c0,0.2,0,0.5,0,0.7c0.3,0.2,0.5,0.4,0.8,0.6C503.6,175.4,503.9,174.5,503.7,173.7z M507.5,176.7c-0.2,0.1-0.4,0.1-0.6,0.2
			c-0.6,0.4-0.2,1,0,1.5c0.4,0,0.9,0.1,1.3,0.1c0.1,0,0.1,0,0.2,0c0.3-0.4,0.4-0.7,0.3-1.4C508.3,177,507.9,176.9,507.5,176.7z
			 M424.1,178.3c0,0.2,0.1,0.4,0.1,0.6c0.5,0.3,0.9,0.6,1.8,0.6h0.1c0.2-0.4,0.4-0.7,0.6-1.1c-0.7-0.4-1-0.6-2-0.6
			C424.5,178,424.3,178.2,424.1,178.3z M503.2,178.7c-0.7,1.2,0.4,1.7,1.6,1.6c0.2-0.3,0.3-0.5,0.3-1.1c-0.4-0.4-0.7-0.6-1.4-0.7
			C503.5,178.6,503.4,178.7,503.2,178.7z M419.5,183.6c0.3-0.1,0.5-0.1,0.8-0.2c0.5-0.7,0.4-1.3-0.3-1.8c-0.3,0-0.6-0.1-0.9-0.1
			c-0.3,0.2-0.5,0.4-0.8,0.6C418.6,182.8,418.9,183.1,419.5,183.6z M498.6,186.5c-0.1,0.3-0.2,0.5-0.3,0.8c0.5,0.8,2.1,1.4,2.6,0.3
			c0-0.2,0.1-0.5,0.1-0.7c-0.5-0.2-0.9-0.5-1.4-0.7C499.3,186.3,498.9,186.4,498.6,186.5z M407,188.9c-0.2,0.2-0.3,0.4-0.5,0.6
			c0,0.2,0,0.3,0,0.5c0.3,0.2,0.5,0.3,0.8,0.5c0.3,0,0.7,0,1,0c0.1,0,0.2-0.1,0.3-0.1c0-0.3-0.1-0.7-0.1-1
			C408.1,189.1,407.8,188.9,407,188.9z M494.9,190.8c-0.2-0.2-0.8-0.2-1.3-0.2c-0.2,0.1-0.3,0.2-0.5,0.3c-0.3,0.2-0.3,0.3-0.4,0.6
			c0.5,1.2,1.5,1.2,2.6,0.7C495.4,191.6,495.3,191.2,494.9,190.8z M411.7,193.2c-0.2,0-0.3,0.1-0.5,0.1c-0.3,0.4-0.4,0.4-0.4,1v0.1
			c0.6,0.4,1,0.6,2,0.6c0.3-0.2,0.3-0.2,0.4-0.6c0.1-0.3-0.2-0.6-0.3-1C412.5,193.4,412.1,193.3,411.7,193.2z M495,194.5
			c-0.1,0-0.1,0.1-0.2,0.1c-0.2,0.3-0.4,0.6-0.2,1.1c0.2,0.4,0.6,0.5,1,0.7c0.3,0,0.5-0.1,0.8-0.1c0.2-0.3,0.3-0.6,0.5-0.9
			C496.6,194.7,496.1,194.5,495,194.5z M488.1,196.4c-0.2,0.3-0.2,0.6-0.1,1c0.5,0.3,0.9,0.5,1.7,0.5c0.2-0.2,0.3-0.4,0.5-0.6
			c0.3-0.8-0.6-1.3-1.4-1.3C488.6,196.2,488.3,196.3,488.1,196.4z M403.9,197.7c-0.5-0.4-0.6-0.7-1.5-0.7c-0.1,0-0.3,0.1-0.4,0.1
			c-0.1,0.2-0.3,0.3-0.4,0.5c0.1,0.4,0.3,0.8,0.4,1.2c0.7,0.2,1.1,0.1,1.8,0C404,198.4,404,198.2,403.9,197.7z M487.3,199.3
			c0.1,0.9,0.9,0.9,1.7,1.1c0.2-0.1,0.5-0.2,0.7-0.3c0.2-0.3,0.3-0.5,0.3-1.1c-0.4-0.4-0.9-0.6-1.5-0.7
			C488,198.7,487.7,198.9,487.3,199.3z M405.1,198.7c-0.5,0.4-1.2,0.7-1.4,1.5c0,0.1,0.1,0.3,0.1,0.4c0.3,0.1,0.5,0.3,0.8,0.4
			c1.2,0,1.2-0.6,2.1-0.8c0-0.2,0.1-0.3,0.1-0.5c-0.1-0.2-0.1-0.3-0.2-0.5C406.2,198.9,405.9,198.7,405.1,198.7z M476,199.1
			c-0.2,0.1-0.3,0.3-0.5,0.4c0.1,0.3,0.1,0.6,0.2,0.9c0.4,0.2,0.7,0.3,1.1,0.5c0.2-0.1,0.3-0.2,0.5-0.3c0-0.3,0.1-0.7,0.1-1
			c0-0.1-0.1-0.1-0.1-0.2C476.9,199.3,476.4,199.2,476,199.1z M398.6,201.5c-0.3,0.1-0.6,0.2-0.9,0.3c-0.2,0.2-0.3,0.3-0.5,0.5
			c0.1,0.2,0.1,0.5,0.2,0.7c0.4,0.3,0.9,0.4,1.5,0.5c0.2-0.2,0.5-0.3,0.7-0.5C399.6,202.2,399.2,201.7,398.6,201.5z M480.3,202.6
			c-0.6,0.4-0.8,0.3-0.8,1.3c0,0.1,0.1,0.1,0.1,0.2c0.6,0.2,0.9,0.4,1.8,0.4c0.3-0.3,0.5-0.7,0.8-1v-0.1
			C481.8,202.9,481.3,202.6,480.3,202.6z M400.9,204.8c-0.3,0.4-0.4,0.4-0.5,1c0.3,0.2,0.6,0.5,0.9,0.7c0.4,0,0.8,0,1.2,0
			c0.2-0.3,0.3-0.6,0.1-1C402.3,204.9,401.9,204.8,400.9,204.8z M478.3,206.5c0.1,0.3,0.2,0.7,0.3,1c0.2,0.1,0.5,0.2,0.7,0.3
			c0.6,0,0.8,0,1-0.4c0-0.4,0-0.7,0-1.1c-0.4-0.1-0.9-0.3-1.3-0.4C478.8,206.1,478.5,206.3,478.3,206.5z M471.5,207.5
			c-0.3,0.1-0.5,0.2-0.8,0.3c0,0.3-0.1,0.7-0.1,1c0.5,0.7,1.1,1.1,2.1,1.2c0.1-0.2,0.3-0.3,0.4-0.5c0.3-0.3,0.3-0.9,0.2-1.4
			C472.8,207.8,472.3,207.6,471.5,207.5z M477.2,210.4c-0.3,0-0.7,0-1,0c-1,0.6-0.8,1.2,0.3,1.7c0.3,0,0.6-0.1,0.9-0.1
			c0.2-0.3,0.5-0.5,0.3-1C477.5,210.8,477.4,210.6,477.2,210.4z M389.6,232.6c0-0.2,0.1-0.5,0.1-0.7c-0.5-0.3-0.8-0.6-1.6-0.6
			c-0.2,0.2-0.3,0.4-0.5,0.6c0,0.2-0.1,0.5-0.1,0.7c0.5,0.2,1,0.4,1.5,0.6C389.2,233,389.4,232.8,389.6,232.6z M398.2,240.1
			c0.1,0.9,0.7,1.2,1.6,1.3c0.2-0.1,0.5-0.3,0.7-0.4c0.2-0.7,0-1.1-0.3-1.6c-0.5,0-0.9,0-1.4,0C398.6,239.7,398.4,239.9,398.2,240.1
			z M405.8,243.7c0.3-0.1,0.5-0.3,0.8-0.4c0.1-1.3-0.4-1.3-1.3-1.6c-0.2,0.1-0.4,0.3-0.6,0.4c-0.1,0.3-0.1,0.6-0.2,0.9
			C404.9,243.5,405.2,243.6,405.8,243.7z M405,247.3c0,0.1-0.1,0.2-0.1,0.3c0.3,0.3,0.7,0.5,1,0.8c0.6,0,0.8-0.1,1.2-0.3
			c0.3-1.2-0.4-1.4-1.2-1.8C405.5,246.7,405.2,246.8,405,247.3z M415.3,251.1c0-0.1,0-0.1,0-0.2c-0.4-0.6-0.9-1-1.9-1
			c-0.1,0-0.1,0.1-0.2,0.1c-0.3,0.4-0.6,0.5-0.6,1.3c0.4,0.2,0.7,0.4,1.1,0.6C414.7,251.9,414.7,251.5,415.3,251.1z M411.2,252
			c0.1-0.3,0.1-0.6,0.2-0.9c-0.4-0.5-0.7-0.7-1.5-0.9c-0.2,0.2-0.4,0.5-0.6,0.7c0,0.3-0.1,0.5-0.1,0.8c0.3,0.2,0.5,0.3,0.8,0.5
			C410.4,252.2,410.8,252.1,411.2,252z M419.9,260.3c0.5-1-0.2-1.8-1.4-1.9c-0.2,0.2-0.4,0.5-0.6,0.7c0,0.3,0,0.5,0,0.8
			c0.4,0.3,0.7,0.6,1.4,0.7C419.5,260.5,419.7,260.4,419.9,260.3z M426,262.5c0.2-0.2,0.4-0.5,0.6-0.7c-0.1-0.3-0.1-0.5-0.2-0.8
			c-0.3-0.6-0.9-0.6-1.5-0.7c-0.1,0-0.3,0.1-0.4,0.1c-0.3,0.5-0.5,0.8-0.3,1.6C424.7,262.4,425.1,262.6,426,262.5z M453.6,275.3
			c0.6,0.3,1.1-0.2,1.5-0.4c0.3-1,0-1.8-1.4-1.8c-0.2,0-0.3,0.1-0.5,0.1C452.6,274,452.4,274.9,453.6,275.3z M462.1,275.5
			c0.3-0.3,0.1-0.7,0.1-1.3c-0.5-0.2-0.8-0.4-1.7-0.4c-0.2,0.2-0.5,0.4-0.7,0.6c0,0.3,0,0.6,0,0.9c0.3,0.2,0.7,0.4,1,0.6
			C461.5,275.9,461.8,275.8,462.1,275.5z M459.1,277.4c0.4-0.6,0.6-1,0.3-1.8c-0.4-0.3-1.1-0.4-1.8-0.4c-0.4,0.3-0.7,0.6-1.3,0.7
			v0.1C457.1,276.9,457.5,277.6,459.1,277.4z M452,277.8c0.5,0.2,1.1-0.2,1.3-0.7c0-0.3,0.1-0.6,0.1-0.9c-0.4-0.4-1.1-0.5-1.7-0.7
			c-0.2,0-0.4,0.1-0.6,0.1c-0.1,0.2-0.3,0.5-0.4,0.7c0,0.2,0.1,0.4,0.1,0.6C451,277.4,451.4,277.7,452,277.8z M463.6,278.7
			c0.9-0.3,1.6-0.4,2.4-0.5c0.3-0.5,0.3-0.7,0.2-1.4c-0.8-0.5-2.2-0.4-3.3-0.4c-0.2,0.2-0.5,0.5-0.7,0.7
			C462.3,278.1,462.9,278.4,463.6,278.7z M444.3,279.1C444.3,279.1,444.4,279.1,444.3,279.1c0.3-0.4,0.4-0.8,0.6-1.2
			c-0.1-0.2-0.2-0.4-0.3-0.6c-0.5-0.3-0.7-0.5-1.5-0.5c-0.2,0.5-0.4,0.8-0.4,1.6c0,0.1,0.1,0.1,0.1,0.2
			C443.2,278.9,443.7,279,444.3,279.1z M465.7,279.5c-0.7-0.1-1.4-0.3-2.1-0.4c-0.4,0.3-0.4,0.7-0.4,1.5
			C464.3,281.9,465.8,281.6,465.7,279.5z M465,283.6c-0.5-0.2-1.1-0.4-1.6-0.6c-0.2,0.1-0.3,0.2-0.5,0.3c-0.1,0.3-0.2,0.6-0.2,1.1
			c0.7,0.8,1.3,1.1,2.4,0.5C465.2,284.4,465.1,284.1,465,283.6z M457.8,284.6c0.2,0.4,0.8,0.5,1.1,0.9c0.4-0.1,0.9-0.2,1.3-0.3
			c0.1-0.1,0.1-0.3,0.2-0.4c0-0.4,0-0.7,0-1.1c-0.5-0.3-1.1-0.5-1.9-0.5C458.2,283.7,458,283.9,457.8,284.6z M469.5,289.7
			c0.2-0.2,0.4-0.5,0.6-0.7c0-0.3,0.1-0.5,0.1-0.8c-0.1-0.2-0.3-0.3-0.4-0.5c-0.5-0.1-1.1-0.1-1.6-0.2c-0.1,0.3-0.3,0.5-0.4,0.8
			c0,0.9,0.5,0.9,0.6,1.4C468.8,289.7,469.1,289.7,469.5,289.7z M454.1,289.3c0.6,0.3,0.8,0.7,1.7,0.8c0.2-0.2,0.4-0.5,0.6-0.7
			c0.3-0.7-0.4-1.5-1-1.6c-0.3,0.1-0.7,0.2-1,0.3C454.3,288.5,454.2,288.9,454.1,289.3z M464.9,289c-0.2,0.2-0.5,0.5-0.7,0.7
			c-0.7,1.5,1.9,2,2.5,0.8c-0.1-0.3-0.2-0.6-0.3-0.9C466.1,289.2,465.6,289.1,464.9,289z M472,296.1c0.3-0.2,0.4-0.2,0.6-0.5
			c0.3-0.3,0.2-0.6,0-1.2c-0.5-0.3-0.8-0.4-1.6-0.4c-0.1,0-0.1,0.1-0.2,0.1c-0.2,0.4-0.3,0.7-0.5,1.1
			C470.7,295.7,471.2,296,472,296.1z M469,298.6c-0.4,0.4-0.8,0.8-0.4,1.4c0.3,0.5,1,0.9,1.6,0.7c0.3-0.3,0.6-0.5,0.9-0.8
			c-0.1-0.3-0.2-0.4-0.1-0.8C470.5,298.7,470.1,298.6,469,298.6z M477.8,301c0.4,0.1,0.8,0.1,1.2,0.2c0.3-0.4,0.5-0.5,0.6-1.1
			c-0.1-0.3-0.3-0.5-0.4-0.8c-0.5-0.2-0.7-0.3-1.5-0.3c-0.2,0.2-0.4,0.4-0.6,0.6c0,0.3,0.1,0.5,0.1,0.8
			C477.4,300.6,477.6,300.8,477.8,301z M437.8,302.4C437.8,302.4,437.9,302.4,437.8,302.4c0.2-0.1,0.3-0.2,0.4-0.3
			c-0.2-0.1-0.4-0.2-0.6-0.3C437.7,302,437.7,302.2,437.8,302.4z M477.6,304.8c0.4,0.2,0.9,0.2,1.2,0c0.2-0.2,0.4-0.4,0.6-0.6
			c-0.1-0.3-0.2-0.3-0.2-0.8c-0.5-0.1-1-0.1-1.5-0.2c-0.3,0.1-0.5,0.1-0.8,0.2C477,304,477.2,304.6,477.6,304.8z M474.1,305.9
			c0.9,0.3,1.4,0.2,1.8-0.5c0-0.2-0.1-0.4-0.1-0.6c-0.2-0.5-0.6-0.7-1.3-0.8c-0.2,0-0.4,0.1-0.6,0.1c-0.1,0.2-0.3,0.5-0.4,0.7
			C473.6,305.5,473.7,305.6,474.1,305.9z M473.9,311.4c0.4-0.3,0.7-0.4,1.1-0.7c0-0.4,0-0.7,0-1.1c0-0.1-0.1-0.1-0.1-0.2
			c-0.6-0.1-1.1-0.3-1.7-0.4C471.8,309.9,472.4,311.1,473.9,311.4z M482.4,311.6c0.1,0,0.1-0.1,0.2-0.1c0.3-0.4,0.5-0.5,0.5-1.4
			c0-0.1-0.1-0.1-0.1-0.2c-0.6-0.3-1-0.5-2-0.5c-0.2,0.2-0.3,0.4-0.5,0.6c0,0.5,0.1,1,0.1,1.5C481.3,311.7,481.6,311.7,482.4,311.6z
			 M488.1,320.6c0.9-0.1,0.9-0.4,1.4-0.7c0-0.4,0.1-0.7,0.1-1.1c-0.5-0.4-1-0.5-1.9-0.5c-0.4,0.4-0.7,0.8-1.1,1.2
			C486.8,320.1,487.6,320.4,488.1,320.6z M496.1,324.6c0.1-0.1,0.2-0.2,0.3-0.3c0-0.4-0.1-0.7-0.1-1.1c-0.5-0.3-0.9-0.4-1.6-0.6
			c-0.5,0.4-0.9,0.6-0.9,1.5c0.2,0.2,0.4,0.4,0.6,0.6C495,324.7,495.5,324.7,496.1,324.6z M493.1,327.7c2,2.3,1.4,1.3,3.5,0.3
			c0-0.1,0.1-0.1,0.1-0.2c-0.7-0.4-1.5-0.9-2.5-0.9C493.8,327.2,493.5,327.5,493.1,327.7z M374,328.4c-0.2-0.4-0.3-0.7-0.7-1
			c-0.2-0.2-0.5-0.2-1-0.2c-0.3,0.8-0.8,1.3-0.6,2.2c0.2,0.2,0.5,0.5,0.7,0.7c0.4,0.2,0.6,0,1-0.1C373.6,329.5,373.8,329,374,328.4z
			 M359.4,329.8c-0.2,0.1-0.5,0.3-0.7,0.4c-0.1,0.5-0.3,1.1-0.1,1.7c0.3,0.9,1.4,1.1,1.8,0.1C361,331.5,360.5,329.9,359.4,329.8z
			 M395.6,332.8c-0.4-0.3-0.5-0.4-1.3-0.4c-0.3,0.6-0.8,1.1-0.6,1.7c0.1,0.3,0.2,0.7,0.3,1c0.5,0.3,0.6,0.3,1.3,0.3
			c0.5-0.7,0.6-1.3,0.3-2.4C395.6,333,395.6,332.9,395.6,332.8z M497.1,335.3c0-0.4,0-0.7,0-1.1c-0.2-0.2-0.5-0.4-0.7-0.6
			c-0.2,0-0.4-0.1-0.6-0.1c-0.7,0.5-1,0.7-1.4,1.6c0.2,0.7,0.3,0.8,0.9,1.1C496.3,336.2,496.7,335.9,497.1,335.3z M401.1,334.2
			c-0.2,0.3-0.4,0.5-0.6,0.8c-0.1,0.5-0.1,1-0.2,1.5c0.7,0.7,1.4,1.1,1.8,2.2c0.2,0.1,0.5,0.1,0.7,0.2c0.4-0.3,0.6-0.3,0.8-0.9
			C404.4,336.9,402,334.2,401.1,334.2z M413.3,337.9c0.3-0.9,0.4-1.3,0.1-2.5c-0.2-0.1-0.5-0.3-0.7-0.4c-0.4,0.2-0.6,0.2-0.9,0.6
			c-0.3,0.3-0.3,1.2-0.3,1.8c0.1,0.2,0.3,0.4,0.4,0.6c0.4,0,0.7,0.1,1.1,0.1C413.1,338.1,413.2,338,413.3,337.9z M495.7,339.7
			c-0.2,0.3-0.5,0.5-0.7,0.8c-0.2,0.2-0.1,0.5-0.1,1.1c0.5,0.3,1.1,0.4,1.9,0.4c0.2-0.3,0.5-0.5,0.7-0.8c0-0.7-0.1-0.9-0.4-1.3
			C496.6,339.9,496.2,339.8,495.7,339.7z M442.4,345.8c0.2-0.8,0.1-1.7,0-2.2c-0.2-0.1-0.5-0.1-0.7-0.2c-0.3,0.1-0.6,0.3-0.9,0.4
			c-0.1,0.5-0.1,1-0.2,1.5c0.1,0.2,0.2,0.4,0.3,0.6c0.3,0.2,0.4,0.3,1,0.3C442.1,346.1,442.2,346,442.4,345.8z M499.9,352
			c0.1-0.4,0.1-0.9,0.2-1.3c-0.4-0.3-0.7-0.3-1.2-0.4c-0.3,0-0.5,0.1-0.8,0.1c-0.3,0.7-0.5,0.9-0.3,1.8c0.3,0.2,0.8,0.3,1.3,0.4
			C499.4,352.4,499.6,352.2,499.9,352z M492.2,350.6c-0.4,0-0.9-0.1-1.3-0.1c-0.2,0.1-0.5,0.3-0.7,0.4c-0.1,0.1-0.1,0.1-0.2,0.2
			c0,0.7,0,1.2,0.4,1.5c0.5,0.4,1.4,0.3,2,0.1c0.1-0.4,0.3-0.9,0.4-1.3C492.4,351.2,492.3,351.2,492.2,350.6z M452.1,350.8
			c-0.3,0.4-0.7,0.9-1,1.3c0.4,0.6,0.1,2.2,1.6,1.8C454,353.4,454.1,350.8,452.1,350.8z M499.7,353.4c-0.1,0.1-0.3,0.2-0.4,0.3
			c-0.1,0.4-0.2,0.7-0.3,1.1c0.3,0.4,0.3,0.5,0.8,0.7c0.5,0.4,1.4-0.2,1.7-0.6C501.3,353.8,501.4,353.3,499.7,353.4z M495.6,353.5
			c-0.2,0.4-0.3,0.7-0.5,1.1c-0.4,0.1-0.8,0.1-1.2,0.2c-0.8,1.2-0.2,2.1,1.3,2c0.3-0.3,0.6-0.6,0.9-0.9c0-0.5,0.5-0.3,0.8-0.6
			c0.2-0.3,0.3-0.7,0.5-1c-0.1-0.2-0.2-0.4-0.3-0.6C496.6,353.7,496.1,353.6,495.6,353.5z M467.3,353.8c-0.1,0-0.3,0.1-0.4,0.1
			c-0.2,0.2-0.3,0.4-0.5,0.6c0.2,0.5,0.3,0.9,0.5,1.4c0.6,0.2,1.1,0.3,1.7,0.5c0.3-0.2,0.5-0.3,0.8-0.5c0.2-1.1-0.1-1.2-0.5-2.1
			C468.4,353.8,467.8,353.8,467.3,353.8z M483.9,357.1c-0.3,0.1-0.6,0.1-0.9,0.2c-0.2,0.5-0.4,0.8-0.2,1.4c0.3,0.7,1.2,0.9,2,1.1
			c0.4-0.3,0.6-0.6,0.8-1.1c0-0.3-0.1-0.6-0.1-0.9C485,357.5,484.7,357.3,483.9,357.1z"/>
	</g>
</g>
</svg>
