<?xml version="1.0" encoding="utf-8"?>
<!-- Generator: Adobe Illustrator 21.0.0, SVG Export Plug-In . SVG Version: 6.00 Build 0)  -->
<svg version="1.1" id="Calque_1" xmlns="http://www.w3.org/2000/svg" xmlns:xlink="http://www.w3.org/1999/xlink" x="0px" y="0px"
	 viewBox="0 0 841.9 595.3" style="enable-background:new 0 0 841.9 595.3;" xml:space="preserve">
<style type="text/css">
	.st0{fill:#DADADA;}
	.st1{fill:#1D1D1B;}
</style>
<ellipse class="st0" cx="335.9" cy="416" rx="55.2" ry="7"/>
<g>
	<g>
		<path class="st1" d="M500.2,288.5c-1.7-0.7-4.8-2.8-6.8-2.1c-2.3-2.8-5.6-3.6-8.7-5.6c-3-1.9-6.5-4.2-10-5.4
			c-2.8-1-11.2-3.2-12.5-5.1c-1.5-3.4-2.9-6.7-4.4-10.1c-0.7-1.3-2.3-3.1-2.5-4.6c0.3-2,0.7-4.1,1-6c0.6-3.8-1.4-15.4-3-16.9
			c-0.3-0.2-0.6-0.2-0.9,0.2c-0.6,1.5,0.9,4.1,1.4,5.4c1,3.5,1.4,8.9,0.8,12.1c-0.5,0-0.8,0-1.3,0c0,0.3-0.1,0.7-0.1,1
			c0.3,0.2,0.5,0.5,1.2,0.5c-0.5,2.7-1.6,4.3-2.2,6.7c-0.3-0.1-0.5-0.3-0.8-0.6c-0.3,0.1-0.7,0.1-1,0.2c-0.2,0.2-0.3,0.5-0.6,0.7
			c0.2,0.5,0.2,0.6,0.8,0.7c0.1,0.1,0.1,0.2,0.2,0.3c0,0.2,0,0.3,0,0.6h-0.1c-0.7-0.5-1.3-1-2-1.5c0-0.1-0.1-0.2-0.1-0.3
			c0.7-0.1,0.8-0.3,1-0.9c0-0.2,0-0.5,0-0.7c-1.3-0.1-1.7-0.1-2.4,0.5c-1.2-1.2-2.4-2.3-3.2-3.8c0.8,0.1,1.2-0.3,1.7-0.8
			c-0.3-0.5-0.7-0.6-1.2-0.8c-0.8,0.1-0.8,0.2-1.2,0.6c-0.2-0.3-0.3-0.8-0.6-1.2c0.7-0.6,1.2-0.6,1.4-1.7c-0.2,0-0.5-0.1-0.7-0.1
			c0.2-0.7,1-0.9,1.5-1.4c0-0.3-0.1-0.7-0.1-1c-0.1-0.1-0.3-0.1-0.5-0.2c-1-0.6-1.9,1.6-2.9,2c-0.1-0.2-0.1-0.5-0.2-0.7
			c0.2-0.2,0.6-0.6,0.8-0.8c-0.1-0.5-0.2-0.9-0.3-1.4c-0.3,0.1-0.8,0.1-1.2,0.2c-0.1-0.7,0.6-2.1,0.9-2.9c-0.6-0.6-1.2-0.7-1.4-1.6
			c-0.6,0.1-0.9,0.2-1.5,0.1c-0.2-0.6-0.5-1.3-0.7-1.9c0.1,0,0.2,0,0.3,0c0.5,0.3,0.8,0.6,1.3,0.9c0.7-0.2,0.9-0.2,1.2-0.9
			c0.8,0.5,1,1.4,2,1.9c0.2,0,0.3,0,0.6,0c0.8-1,0.6-2.1-0.7-2.5c-0.6,0.1-1.3,0.1-1.9,0.2c-1.5-0.6-2.3-2.2-3.4-3.2
			c0.1-0.9,0.5-0.8,0.3-1.4c0.3-0.2,0.7,0,1.5,0c0,0.1,0.1,0.1,0.1,0.2c-0.6,0.3-0.9,0.6-1.3,1.3c0.2,0.2,0.3,0.5,0.6,0.7
			c0.7,0.2,0.9-0.2,1.5-0.2c0.5,0.2,1,0.5,1.5,0.7c0.1-0.1,0.3-0.1,0.5-0.2c0.6-0.9,0.1-1.7-0.5-2.4c0.2-0.7,0.6-1.5,0.8-2.2
			c-0.1-0.1,0.9-0.6,1.2-0.7c0-0.2,0-0.6,0-0.8c-0.9-0.7-3.1-0.9-3.6,0.7c-0.5,0.1-0.9,0.1-1.4,0.2c0.3-0.9,0.1-1.4-0.5-2
			c0.2-0.5,0.6-0.8,0.8-1.3c-0.5-0.7-0.8-1.3-1.3-2c-1.3-0.8-3.2,2.8-3.6,3.8c-6.5-0.8-14.4-11.8-16.3-17.3c0.2-0.1,0.3-0.1,0.6-0.2
			c-0.6-2.3,1.5-7.4,2.8-9.4c0.9-1.4,2.8-3.4,2.9-5.1c0.2,0,0.3,0,0.6,0c1.5,2.1,5.4,3.1,8.1,3.2c-0.7,3-0.7,8.3,2,10
			c2.1-0.6,4.4-2.5,4.3-5.2c-0.2-0.1-0.6-0.3-0.8-0.5c-0.2-0.1-0.3,0-0.7,0.1c-1.3,0.8-1,2.8-2.5,3.4c-0.5-1.7-0.8-3.4-1.3-5.1
			c0-1.5,0.7-1.3,1-2.3c1.5-5,2.5-2.4,5.2-4.2c-0.2,0.8-0.7,1.2-1,1.7c0.2,0.3,0.5,0.6,0.7,0.9c1-0.1,1.5-0.6,2.2-1
			c0.5,0.5,1,1.4,1.5,2.1c0.5-0.1,1-0.2,1.5-0.3c0.5-0.3,0.2-0.9,0.6-1.5c0.3-0.7,1.2-0.3,1.7-0.8c0.1-0.5,0.3-1,0.5-1.5
			c0.5-0.2,0.9-0.3,1.4-0.6c0.2-0.5,0.3-0.8,0.6-1.3c0.6-0.7,1.7,0,2.3-1c0.6-1.2-0.3-3.1-1.4-3.7c0.5-0.6,0.8-1.2,1.3-1.7
			c0.7-2.7-2.7-4.3-4.8-4.4c-0.1-1.3-0.7-1.4-1-2.3c-1.4-0.3-3.2-0.5-4.6-0.5c0.9-2.2,0.2-3.2-0.7-4.8c3.4-4.4,15.8,0,19.2,0.9
			c2.2,0.6,4.5,1.2,5.7,2.8c1.6,2.2,1,5.8,0.9,9c-0.1,5.4-1.5,10.1-3.1,14.4c-0.3,0.8-1,1.6-1.3,2.7c-1,0-2,0-3,0
			c-3.2-1.7-8.7-2.9-10.7-6.3c-0.2,0.1-0.6,0.1-0.8,0.2c-0.5,0.2-0.5,0.5-0.5,1.2c1.6,2,8.8,7.1,12.7,7c-0.7,2.2-4.9,11.6-6.1,12.3
			c-1,0.6-5.4-1.2-5.9-2.3c-0.2-0.7,0.2-1.7,0.5-2.4c-0.1-0.5,0-0.2-0.2-0.5c-0.2-0.1-0.3-0.2-0.6-0.3c-0.7,0.5-1.3,1.2-1.5,2
			c-3.7-0.8-6.7,0.9-8.7,3.5c-0.5,0.7-0.5,1.4-1.2,1.9c0.1,0.3,0.3,0.8,0.5,1.2c0.1,0,0.2,0.1,0.3,0.1c2.2-0.6,2.4-3.9,4.2-5.2
			c1.4-1,2.9-0.3,4.3-0.6c0.9,1,1.2,2.3,2.5,3.2c2.1,1.4,5.8,2.8,8,0.7c0.3-1.2,0.8-2.3,1.2-3.5c1.7-3.4,3.4-7.6,5.4-10.8
			c0-0.7-0.1-0.8-0.3-1.3c0.7,0.2,0.8,0.3,1.7,0.3c2.4-3.5,4.6-14.5,4.2-19.9c-0.2-2.9,1.4-5.2-0.6-7.6c-2.5-3.2-7.6-3.7-12.4-4.9
			c-1.9-0.5-3.6-1.6-5.1-2.1c-1.5-0.2-3-0.3-4.5-0.6c-1.6-0.6-3.4-1.6-5.7-0.9c-2.1,0.7-2.9,3.6-5.1,4.3c-0.6,0-1.2-0.1-1.7-0.1
			c-1.4,0.2-1.9,0.9-2.7,1.7c-1.7-0.1-4.2-2.1-5.8-1.6c-0.8,0.2-0.9,1-1.5,1.4c-0.9,0.5-3.2,0.1-4.2,0c-2.4-0.3-6.5-0.6-7.3,1.3
			c-0.6,1.4,1.5,5.8,2.1,6.6c-0.3,1-0.8,2-1.2,3c-0.5,2.7,2.1,3.9,3.1,5.6c-0.8,1.7-1.3,4.2-0.1,5.9c0.3,0.6,1.3,0.7,1.5,1.4
			c0.3,1.4-0.9,2.1-1,3.2c-2.4-0.3-3.2,2-4.3,3.4c-2.7,3.4-5.6,6.3-5.4,12.3c-1.7,1-3.4,2.1-5.1,3.1c-1.7,1.7-3.5,3.5-5.2,5.2
			c-0.2,0.3-0.3,0.8-0.6,1.2c-1.6,0.5-3.4,0.9-5,1.4c-4.6,1.4-10,2.4-14.7,3.5c-5.3,1.2-10,2.2-14.8,3.4c-3.2,0.8-7.4,0.8-9.5,2.8
			c-8.5,8.3-6.7,22.9-7.4,36.3c-0.3,6,2.1,11.6,4.8,16c0.3,0.5-1.6,4.3-2,5.1c-1.2,2.3-4.3,11.5-3.6,14.5c0.9,3.8,3.4,6.8,6.1,8.8
			c0.8,0.6,1.7,0.9,2,2.1c0,2.4,0.1,4.9,0.1,7.3c0.1,0.6,0.2,1.2,0.3,1.7c-0.2,1.3-0.2,5.2,0.5,7.1c0.3,5.1,0.7,10.1,1,15.2
			c-0.2,2.7-0.5,5.4-0.7,8.1c0.1,1.7,0.2,3.5,0.3,5.2c-0.6,1.9-0.8,4.6-0.2,6.7c-2.3,2.1-4.3,4.4-6.4,6.7c-1.2,1-2.3,2.2-3.5,3.2
			c-1.4,1.7-2.2,3.2-3.8,4.3c-3.1,2-7.8-1.2-7.5,3.9c-1.4,0-2.1,0.8-2.4,1.9c-0.7,3,3.4,5,1.2,8.3c-0.1,0-0.1,0.1-0.1,0
			c-0.6,0.3,0.1,0.6-0.3,1.3c-1.6,2.4,0.7,2.5,0.6,3.8c0.6,0.5,1.4,0.9,2.2,1.2c0.2,0.7,0.3,1,0.3,1.5c0.1,0,0.3,0,0.5,0
			c-0.1-0.3-0.2-0.8-0.3-1.2c1.6,2.1,8.1,4.1,10.9,2.7c0.3,0.8,1.7,2.3,2.5,2.3c0,0.3,0,0.8,0,1.2c0.5-0.2,0.2,0,0.3-0.5
			c0.9,0.1,1.6,0.6,1.9,1.4c0.2-0.1,0.5-0.2,0.7-0.3c0.2,0.2,0.1,0.1,0.2,0.6c1.2-0.1,3.5-0.7,3.6,0.7c1.5-0.6,11.1,1.3,11.4,2.1
			c-0.2,0.2-0.1,0.1-0.2,0.6c-0.2,0-0.3-0.1-0.6-0.1l-0.1,0.1c0,0.1,0,0.1,0,0.2v0.1c0.5,0.2,0.3-0.1,0.6,0.3
			c0.6-0.2,0.9-1.2,0.7-1.4c0.8-0.3,0.6,0.1,1.3,0.3c-0.1,0-0.2,0.1-0.3,0.1c0,0.1,0,0.2,0,0.3c0.9,0,0.2-0.3,1.2-0.5
			c-0.1,0-0.2,0.1-0.3,0.1c0,0.1,0,0.2,0,0.3c4.5-0.7,12.5,1.7,16,1c0.9-0.2,3.5,0.9,4.6,0.3c0.5-0.2,0.9-0.9,1.4-1.3
			c0.5-0.1,0.9-0.1,1.4-0.2c0.6-0.5,0.8-1.4,1.5-1.7c-0.3-1.6-0.1-2.9-1.4-3.8c-1.2-0.9-5.6-0.7-7-0.6c-0.6-0.2-6.3-1.3-7.6-1
			c-1-0.6-3.2-1.2-4.8-1.2c-0.9-1.5-1.9-2.9-2.8-4.4c1.4-0.1,2.9-1.6,3.4-3.1c0-0.5,0.1-1,0.1-1.5c0.5-0.6,1.6-0.7,2.3-1.4
			c1.6-1.6,1.4-4.4,0.6-6.5c1.5-0.8,3.2-2.4,3.8-4.2c0.2-0.8,0.3-1.6,0.6-2.4c0.8-0.6,1.5-1.3,2.3-1.9c1.7-2,3.6-5.1,5.7-7.3
			c1.2-1.3,3.1-2.4,3.9-3.7c0.8-1.3,1-2.7,1.9-3.8c1.2-1.5,2.5-2.5,3.5-4.3c-0.3-2.3-0.7-4.8-1-7.1c-0.3-3.2,0.7-4.5,0-7.1V353
			c0.2,0,0.5,0,0.7,0c3.4,5.1,8,10.1,12.5,14.5c2,2,4.4,3.4,6.3,5.6c0,0.1,0,0.2,0,0.3c0.5,1.3-0.1,2.5,0.1,4.3c0.2,2,0,7-1.2,8.9
			c-1.9,3.2-4.9,6.8-6.3,10c-0.6,0.5-0.1,1.7,0.2,2.4c-1.3,0.8-2,1.7-1.2,3.4c-0.7,0.3-1.3,0.7-1.9,1.2c-0.3,2.2,0,3-2.1,4.3
			c0,0.5,0.1,0.8,0.1,1.3c1.3,0.9,3.2,1.5,4.5,2.4c0.5,0.3-0.6,5.9-0.3,7.3c4.9,2.4,12.6,0.1,18.4,1c0.8-0.8,1.6-1.5,2-2.4
			c1,0.6,1.4,1.7,2.5,2.2c3.4,1.5,8,0,11.1,0.2c4.5,0.3,12.6-1,17.8-1.4c3.2-0.2,8.1-0.5,9.2-2.8c1-2.5-2.7-3.6-4.2-3.4
			c-4.4,0.7-10.2-0.1-13.6-0.5c-2.2-0.2-4.3-0.3-6.5-0.6c-1.2-0.5-0.9-1.7-1.6-2.5c-0.9-1-2.1-1.5-3.2-2.2c0.6-1.2,2.3-2.8,1.5-4.4
			c-0.2-0.5-0.7-0.8-0.8-1.3c-0.1-1,1.2-2.9,0.8-3.7c-0.6-1-1.3-2.7-0.9-4.3c0-0.1,0.6-5.3,0.6-5.4c0.8-1.2,0.3-2.5,0.8-3.8
			c1.7-4.6,2.8-11.8,1.6-17.4c0-0.9,0.1-1.7,0.1-2.7c-1-4.1-3.9-7.6-5.7-11.5c-5.6-12.1-13.9-22.6-21.6-32.7
			c5.4-7.2,9.9-15.4,14.3-23.6c2.5-4.8,6.6-11.4,8-16.9c0.1,0,0.1-0.1,0.2-0.1c2.2,2.8,4.3,10,6.7,11.8c3.4,2.5,8.3,2.2,12.4,3.9
			c3.6,1.5,7.6,3.1,11.2,4.1c3.2,0.8,6.3,1.2,9.2,2.1c2.1,0.7,9.3,2,10.9,0.9c0.5-0.3,0.7-0.9,0.8-1.5c0.3,0.1,0.7,0.1,1,0.2
			c0.1,0.2,0.1,0.5,0.2,0.7c-4.3,2.3-7.5,8-8.8,13.2c-0.1,1.5-0.2,3.1-0.3,4.6c-0.7,3.7-1.6,7.9,0.2,11c1.9,0.5,4.8,0.5,6.4-0.3
			c2.1-9.2,0.6-19.4,8.7-23.1c0.1,0,0.3,0,0.5,0c0.2,1.5,0,4.5,0.9,5.2c2.2,2.1,4.6-1,6.1-1.5h0.1c0.7,1.2,0.8,3.4,2,3.7
			c0.1,1.6-1.2,2.4-0.7,4.6c1.9,10-1.7,23.4-1.2,35c0.2,3.9-1.3,9.5-0.5,12.4c-0.1,2-0.3,4.1-0.5,6c-0.8,4.9-1.3,14.3-0.7,17.7
			c0.1,0.3-0.5,2.4-0.6,3.5c-0.6,7.3-2.1,14.7-0.7,22.1c1.7,1.2,6,0.6,7.9-0.5c1.2-2.4,0-6.6,0.6-9.6c1.5-7.5,1-15.2,1.4-24.2
			c0-4.2,0.1-8.2,0.1-12.4c0.1-4.2,0.1-8.5,0.2-12.6c-0.1-1.7-0.2-3.5-0.3-5.2c0.7-6.4,0.9-14.5,1.9-21c0.1-4.8,0.3-9.4,0.5-14.1
			c0.9-4.9,3.5-8.1,3.8-13.4C517.2,295.6,505.2,290.3,500.2,288.5z M440.2,233.2c-0.1,0.7,0,0.9,0.3,1.4c0,0.1-0.1,0.1-0.1,0.2
			c-0.2,0-0.6,0.1-0.8,0.1c0-0.3,0-0.7,0-1C439.6,233.4,439.7,233.3,440.2,233.2z M487.2,284.8c1.5-0.7,4.1,2,4.8,3.1
			c-1.7-0.6-3.4-1.9-5.3-2.4C486.8,284.9,486.8,284.9,487.2,284.8z M491.6,290.7c-0.1,0.1-0.1,0.2-0.2,0.3c-2.4-0.8-4.9-1.6-7.3-2.4
			c0.2-0.5,0.5-0.9,0.7-1.4C487.7,287.2,490.2,288.6,491.6,290.7z M437.9,232.8c-0.1,0.5-0.2,0.8-0.3,1.3c-0.1-0.1-0.2-0.2-0.3-0.3
			C437.2,233.2,437.3,233.1,437.9,232.8z M435.1,234.6c0.6,0.7,1.2,3.2,0.7,4.2c-0.7,0-1.3-0.1-2-0.1c-0.1-0.1-0.1-0.1-0.2-0.2
			C434.2,237.1,434.6,235.8,435.1,234.6z M429.5,237.4c1.6-1,0.8-3,1.6-5c0-0.1,0-0.1,0-0.2c0.8,0.2,1.5,0.6,2.3,0.8
			c0.1,1.2-0.8,3.4-2,3.5c0.1,0.8,0.1,0.9-0.2,1.4c-0.6-0.1-1.2-0.1-1.7-0.2C429.5,237.5,429.5,237.4,429.5,237.4z M428.5,230.5
			c2,0.6-0.5,5.6-0.9,6.4c-0.6-0.2-1-0.6-1.6-0.8c-0.2-0.2,1.5-5.2,1.9-5.6C428.1,230.2,428.1,230.4,428.5,230.5z M424.3,227
			c0.6,0.6,1.2,1.2,1.7,1.7c-0.1,2.4-1.7,4.4-2.4,6.3c-0.6-0.2-1.3-0.3-1.9-0.6c0-0.1-0.1-0.1-0.1-0.2c0.9-2,1.7-4.9,2.4-7.1
			C424.2,227,424.3,227,424.3,227z M422.8,225.3c-1,2.5-2,5-3,7.5c-0.3-0.2-0.8-0.5-1.2-0.7c-1.3-2.9,1.6-6.3,2.3-8.7
			C421.9,223.7,422.2,224.6,422.8,225.3z M418.4,219.7c0.1,0,0.1,0,0.2,0c0.5,0.8,0.8,1.5,1.3,2.3c-0.1,0.9-1.6,2.3-2,3.1
			c-0.5,1.5-0.9,3.1-1.4,4.6c-0.1,0-0.2,0-0.3,0h-0.1C414.1,227,416.7,222.2,418.4,219.7z M421.6,197.1c-0.3,0-0.8,0-1.2,0
			c0-0.1-0.1-0.1-0.1-0.2c0.3-0.2,0.7-0.6,1-0.8c0.1,0,0.3,0,0.5,0c0,0.1,0,0.1,0,0.2c0.1,0.1,0.2,0.2,0.3,0.3
			C422.1,196.8,421.9,196.9,421.6,197.1z M432.3,198.9c0-0.1-0.1-0.1-0.1-0.2c0.1,0,0.1,0,0.2,0
			C432.4,198.6,432.4,198.8,432.3,198.9z M417.1,179.8c0.7-0.2,2.2-0.7,3-0.8c1.6-0.3,3.4,0.7,4.2,0.2c0.5-0.3,0.6-0.7,0.7-1.4
			c2.4-0.6,4.8,2.2,6.7,2.5c0.5-0.7,0.2-1,0.1-2.1c0.2-0.2,0.5-0.6,0.7-0.8c0.2,0,0.5,0,0.7,0c0.1,1.9,0.7,1.7,0.5,3.2
			c0,0.1,0.1,0.1,0.1,0.2c2.2,1.4,3.6-2.3,5.8-1.6c1.4,0.9-0.7,3.6-1.3,3.9c0.1,0.3,0.1,0.8,0.2,1.2c1.4,0.7,3.5-0.6,5.6-0.2
			c0.1,0,0.1,0.1,0.2,0.1c0,0.2,0,0.3,0,0.6c-0.2,0-0.3,0-0.6,0c-0.2,0.3-0.5,0.8-0.7,1.2c0.7,1.3,4.8,0.8,6.4,2.1v0.1
			c0,0.2,0,0.6,0,0.8c-0.7,0.1-1.7-0.1-2.7,0.2c-0.1,0-0.2,0.1-0.3,0.1c0,0.3,0,0.6,0,0.9c-0.5,0.6,2.8,2.3,3.1,2.9
			c0,0.1,0.1,0.3,0.1,0.5c-0.8-0.2-1.6-0.2-2.5-0.1c-0.5,0.6-0.6,1.2-0.8,1.9c-0.5,0.2-0.9,0.6-1.4,0.8c-0.5,0.6-1,1.6-1.5,2.2
			c-1.4-0.5-1.4-0.9-3.1-0.6c-2-2.7-3.4-0.7-5.7,0c0-0.3,0-0.7,0-1c0.8-0.2,1.7-1.3,2.3-1.9c0-0.2-0.1-0.5-0.1-0.7
			c-0.2-0.3-0.3-0.3-0.7-0.6c-1,0.1-1.2,0.8-2.1,1.2c-0.2,0-0.3,0-0.6,0c0-0.2,0.1-0.5,0.1-0.7c-0.6-0.1-1.3-0.1-1.9-0.2
			c-0.2,0.1-0.3,0.2-0.6,0.3c-0.3,0.5-0.2,0.6-0.1,1.4c1,0.1,1.6,0.3,2,1c-0.1,0.2-0.3,0.3-0.5,0.6c-0.7,0-1.5-0.7-2.3-0.7
			c0-0.1-0.1-0.1-0.1-0.2c0.1-0.6-0.1-0.5,0.5-0.6c-0.1-0.5-0.3-0.9-0.5-1.4c-0.3,0-0.7,0-1,0c-0.7,0.9-1,2.7-0.8,3.8
			c-0.2,0.1-0.5,0.2-0.7,0.3c-0.2-0.1-0.3-0.2-0.6-0.3c0-0.1-0.1-0.1-0.1-0.2c0.5-0.3,0.8-0.9,0.9-1.6c-1-1.2-1-2.1-0.8-3.7
			c-0.3-0.1-0.6-0.2-0.9-0.3c-0.3,0.2-0.8,0.3-1.2,0.6c-0.2,1.5,0.8,2.9-0.1,3.9c-0.6-0.2-0.9-0.3-1.7-0.3c0.5-0.9,0.5-1.2,0-2.1
			c-1.6,0-2.3,0.5-3.5,0.9c-0.1-0.5,0.1-0.8,0.3-1.3c0.9-0.3,2.4-0.3,3.5-0.8c0.2-0.6,0.2-0.8,0-1.4c0.3-0.3,0.8-0.8,1.2-1.2
			c-0.1-0.3-0.1-0.6-0.2-0.9c-0.5,0-0.9,0-1.4,0c-0.2,0.5-0.3,0.8-0.8,1.2c0,0.5,0,0.1,0.2,0.6c-2.2,0.2-3.2-0.3-4.6-1.2
			c-0.1-0.6-0.1-1.2,0.2-1.6c0.7-0.6,2.3-0.1,3-0.7c0.9-0.6,1.5-1.7,1.5-3c-0.3,0-0.6-0.1-0.9-0.1c-0.3,0.3-0.8,0.8-1.2,1.2
			c-0.8,0-1.5,0-2.3,0c-0.2-0.7-0.3-1.5-0.6-2.2c0.5-1.2,1.7-0.9,2.4-1.7c0-0.6,0-0.6-0.2-1c-0.7-0.2-1.4-0.1-2-0.2
			c-0.3-0.2-0.3-0.3-0.6-0.7C417.1,180,417.1,179.9,417.1,179.8z M416,214.6h0.1c0.5,1,0.9,2.1,1.4,3.1c-1.7,2.8-3,5.2-4.1,8.8
			c-0.5-0.5-0.8-1-1.3-1.5c0.6-2,1.2-4.9,2-7C414.8,217,415.4,215.8,416,214.6z M414.3,212.2c0.2,0,0.3,0.1,0.6,0.1
			c0.1,0,0.1,0,0.2,0c-0.1,1.9-2.2,3.7-3,5.2c-0.6,1-0.9,3.2-1.2,4.9C409.4,218.6,412.6,214.4,414.3,212.2z M348.5,265.9
			c1.7,0.2,3,0.6,3.8-0.8c0-0.2,0-0.3,0-0.6c-0.3-0.2-3-0.8-3.7-0.9c0-1,0-2.1,0-3.1c1,0.1,2.1,0.2,3.1,0.3c0.2-0.3,0.6-0.6,0.8-0.9
			c-0.7-1-2.5-1-3.6-1.5c-0.2-1.2,0-2.2-0.1-3.2c0.1-0.1,0.2-0.1,0.3-0.2c0.6,0.6,1.3,1,1.9,1.6c0.9,0.5,1.7,0,2.4-0.3
			c0.1-0.2,0.1-0.3,0.2-0.6c-1.3-0.7-2.9-1.9-4.5-1.7c0.3-1.2,0.6-2.2,0.9-3.4c1.5,0.3,2.4,1.5,4.2,1.2c0.1-0.1,0.1-0.2,0.2-0.3
			c-0.2-1.3-2.2-2.4-3.6-2.5v-0.1c0.3-0.9,0.8-1.7,0.8-2.7c0.1,0,0.3-0.1,0.5-0.1c0.9,0.9,1.9,1.7,2.8,2.7c0.1,0,0.3,0,0.5,0
			c0.6-1.3-0.8-3.6-1.7-4.2c0.5-0.7,2.7-1,3.5-1.4c1.7,0.1,1.2,2.3,1.4,3.4c0.2,0.3,0.7,0.7,1,0.9c0.2,0,0.5,0,0.7,0
			c0.1-0.1,0.3-0.3,0.5-0.5c-0.1-1.6-0.6-3-0.8-4.4c0.9-0.1,1.9-0.3,2.8-0.5c0.3,1.2,0.7,2.3,1,3.5c0.2,0.1,0.5,0.1,0.7,0.2
			c0.1-0.1,0.3-0.3,0.5-0.5c0.5-0.7,0.1-3.1,0-3.6c0.9-0.2,1.7-0.5,2.7-0.7c0.2,0.8,0.3,3.6,1.4,4.2c0.2,0.2,0.5,0.1,1,0.1
			c-0.2-1.9,0.3-3.1-0.1-4.8c0.9-0.2,2.1-0.8,3-0.7c0.2,0,0.5-0.1,0.7-0.1c-0.2,1.3,0.1,2.1,0.5,3.1c0.2,0.1,0.6,0.1,0.8,0.2
			c1.2-0.8,0.7-2.1,0.6-3.7c0.1-0.1,0.2-0.1,0.3-0.2c0.5-0.5,1.9-0.5,2.9-0.7h0.1c0.2,0.8,0.3,1.9,0.1,2.5c0.3,0.3,0.5,0.7,1.2,0.8
			c0.1,0,0.2-0.1,0.3-0.1c0.5-0.7,0.9-3,0.6-3.8c1.3-0.3,2.4-0.6,3.7-0.9c0.2,0.8,0.3,1.7,0.6,2.5c0.2,0.1,0.3,0.3,0.6,0.5
			c0.2,0,0.5-0.1,0.7-0.1c0.9-3.5-0.7-3.1,3.5-4.4c0.5,0.3,0.5,1.6,0.1,2.3c0.5,0.1,0.3,0.1,0.6,0.6c0.3,0.2,0.3,0.3,1,0.5h0.1
			c0.6-0.9,0.7-2.5,0.6-3.9c1-0.2,2.1-0.3,3.1-0.6c0.5,0.5,0.7,2.4,0.8,3.1c0.3,0.1,0.7,0.1,1,0.2c0.6-0.9,0.5-2.3,0.7-3.6
			c1-0.1,2.2-0.1,3.2-0.2c-0.3,1.2-0.2,1.4,0,2.9c0.3,0.1,0.6,0.3,0.9,0.5c0.2-0.1,0.5-0.1,0.7-0.2c0.1-0.9,0.3-1.7,0.5-2.7
			c3,1,6.8,3,7.8,6.3c0,1.2,0,2.2,0,3.4c0.6,2.7-0.9,5.7-2.2,7.1c-4.3,4.8-18.4,9.3-26.3,9.3c-4.4,0-7.6,2-10.7,0.8
			c-1.9,1.4-0.3,3.5-0.9,6.4c-0.7,3.6-1.6,8.2-2.9,11.9c-0.7,2.1-2,4.6-2.1,7c-4.1,2-10.1-0.2-13.6-2.3c-1-0.7-2.2-0.6-2.7-1.9
			c0-0.3-0.1-0.6-0.1-0.9c1.6,0.1,2,0.3,3.5,0c0.2-0.3,0.3-0.6,0.6-0.9c0-0.1-0.1-0.2-0.1-0.3c-1.2-0.7-2.5,0.1-3.9-0.7
			c-0.5-0.2-0.5-1.3-0.5-2.2c1.3,0.2,2.3,0.3,3.7,0.2c0.2-0.3,0.5-0.7,0.7-1c-0.1-0.1-0.3-0.3-0.5-0.5c-1.6-0.3-2.8-0.3-4.1-0.8
			c-0.5-0.9-0.7-2.4-0.7-3.7c1.2,0.6,2.1,0.3,3.4,0.6c0.2-0.5,0.5-0.8,0.8-1.4c0-0.1,0-0.3,0-0.5c-0.2-0.1-0.5-0.3-0.7-0.5
			c-1.2,0.3-2-0.1-3.4,0.2C348.2,268.8,348.4,266.6,348.5,265.9z M411.7,312c0.5,0.1,0.8,0.2,1.3,0.3c0.2,0.2,0.1,0,0.2,0.3
			c-1.3,2.1-2.8,3.1-3.6,5.3c0.1,0.2,0.3,0.5,0.5,0.7c-0.8-0.1-1.6-0.2-2-0.8c0.5-0.8,1-1.7,1.5-2.5c0.3-0.1,0.3-0.1,1-0.1v-0.1
			C410,313.8,411.1,312.9,411.7,312z M406.6,317.9c-0.9-0.2-2-0.5-2.9-0.7c1.2-2,2.9-3.7,3.5-6.1c0.8,0.1,1.4,0.5,2.2,0.2
			C410,311.9,406.6,315.8,406.6,317.9z M401.8,316.9c-0.8-0.2-1.6-0.3-2.4-0.6c1.2-2,2.2-4.1,3.4-6c0.7-0.3,1.4-0.1,2.4,0.1
			C405.5,311.5,402.5,315.5,401.8,316.9z M398,315.9c-0.7-0.2-1.5-0.5-2.2-0.7c-1.4-0.6,2.7-5.1,3-6.5c0.9-0.1,1.4,0.2,2.2,0.3
			c0.1,0.1,0.1,0.2,0.2,0.3C400.1,311.5,398.5,313.1,398,315.9z M393.2,314.4c-0.7-0.1-1.4-0.3-2.1-0.5c0-0.1-0.1-0.2-0.1-0.3
			c1.2-2.1,3.1-3.9,3.8-6.3c0.8-0.3,1.3,0.2,2.2,0.3C396.8,310.6,393.9,311.5,393.2,314.4z M389,313c-0.2-0.1-0.5-0.2-0.7-0.3
			c0.5-2.5,2.3-4.8,3-7.4c0.7,0.3,1.4,0.6,2.1,0.9C392.8,308.6,390.3,310.9,389,313z M386.3,311.9c-0.8-0.3-1.6-0.6-2.4-0.9
			c0-0.1-0.1-0.1-0.1-0.2c1.5-1.5,2.2-5.3,4.2-7c0.6,0.2,1,0.3,1.6,0.6C389.5,306.7,387.1,309.3,386.3,311.9z M381.9,309.7
			c-0.6-0.3-1-0.6-1.6-0.9c1.3-1.3,2.9-4.6,3.5-6.5c0.7-0.2,1,0.2,1.9,0.5C386.2,304.1,382.6,308.2,381.9,309.7z M378.5,307.6
			c-0.2,0-0.3,0-0.6,0c-0.1-0.1-0.3-0.3-0.5-0.5c-0.6-0.7,2.7-6.5,3.2-7.3c0.5,0.2,0.9,0.5,1.4,0.7
			C382.7,301.7,379.1,306.8,378.5,307.6z M376.6,302.6c-0.3,1-0.6,2.1-0.9,3.1c-0.7-0.5-1.4-0.8-2.1-1.3c-0.1-0.1-0.1-0.2-0.2-0.3
			c1.4-2.5,2.2-3.9,4.1-6.5c0.6,0.2,1,0.6,1.6,0.8C378.8,300.3,377.3,301.1,376.6,302.6z M371.8,302.8c-0.7-0.2-0.9-0.6-1.4-1
			c0.9-2.5,1.3-5.1,3-7.1c0.7,0.5,1.4,0.8,2.1,1.3c0.1,0.1,0.2,0.3,0.3,0.5C373.7,298.2,372.7,300.7,371.8,302.8z M368.8,299.9
			c-0.6-0.2-0.9-0.7-1.3-1.3c0.9-1.6,1.7-4.3,2.4-6.1c0.9,0.1,1,0.5,1.7,0.7C371.3,295.5,369.5,297.4,368.8,299.9z M366.1,297.1
			L366.1,297.1c-0.5-0.6-0.9-3.4-1-4.1c0.6-0.7,1.5-2.7,1.9-3.7c0.6,0.6,1.2,1.2,1.7,1.7C367.6,293,367.1,295.1,366.1,297.1z
			 M364.9,289.4c-0.6,0.9-1.2,2.2-1.9,3.1c-0.1,0.2-0.3,0.2-0.6,0.3c-0.2-0.3,1-3.4,1.4-4.1c0.2,0.1,0.5,0.1,0.7,0.2
			C364.6,289.2,364.7,289.3,364.9,289.4z M360.4,292.9c-0.2,0-0.5,0-0.7,0c-0.5-1.2,0.3-2.3-0.1-3.7c0-0.1,0.1-0.3,0.1-0.5
			c0.8,0,1.5,0.1,2,0.5c-0.2,0.7-0.1,1-1,1.2C360.9,291.2,360.7,291.7,360.4,292.9z M355,287.4v-0.1c0.9,0.3,2,0.7,2.9,1
			c0,0.9-0.6,1.9-0.5,2.5c0.1,0.5,0.6,1.4,0.5,2.1c-0.5-0.1-0.8-0.1-1.3-0.2c-0.1,0-0.1,0-0.2,0C356.7,291.4,355.7,289.2,355,287.4z
			 M354.4,291.8c-1.9-1.2-3-4.5-3.9-6.7c1,0.2,1.6,0.7,2.4,1C353.3,288.2,353.7,290,354.4,291.8z M351.3,301.9
			c-1.2-1.6,2.3-5.8,2.7-7.8c0.9-0.1,1.6,0.3,2.4,0.6c2.3,0,4.5,0.1,6.8,0.1c1,4.6-0.3,11.4-2.5,15.1c-0.8,1.3-1.7,2.5-2.5,3.8
			c-0.7,0.3-1.6,0.2-2.3,0.6c-2.4-3,0.5-7.1,1.5-9.5c0.9-2.3,1.4-5.6,1-8.3c-2.3,0.1-1.5,3.6-2,5.3c-1.7,5.4-5.2,8.5-1.6,14.6
			c-0.2,0.7-0.5,1.5-0.7,2.2C347.8,318.2,346.8,304.9,351.3,301.9z M339.2,402.4c-0.1-0.2-0.1,0,0-0.2
			C339.2,402.1,339.2,402.3,339.2,402.4z M414.9,321.8c3.6,3.4,6,9,9,13.3c5.9,8.3,11.6,17.7,15.8,27.2c0.3,0.9,0.7,5.1,0.8,6.3
			c0.8,6.1-1.7,13.7-3,19c-0.8,3.6,0,7.9,0.1,11c-0.2,0.9-0.5,2-0.7,2.9c0.1,0.7,1.2,1,0.8,2.1c-0.6,0.7-1.2,1.3-1.7,2
			c-0.9,2.2,2.4,3.6,3.7,4.2c0,0.1,0.1,0.2,0.1,0.3c-1.7,1.2-6.6,0-9.5,0.5c-2.2,0.3-5.8,0.1-7.3-0.3c-1.7,0.8-10.7-0.3-12.6-0.9
			c0.8,0,1.6,0,2.4,0c0.3-0.3,0.8-0.7,1.2-1c0-0.1,0-0.3,0-0.5c-0.1-0.2-0.2-0.3-0.3-0.6c-1.2-0.2-2.4-0.5-3.6-0.7
			c0-0.1-0.1-0.3-0.1-0.5c1.4-0.2,4.9,0.6,5.6-0.8c-0.1-1.3-2.2-2.1-3.1-2.3v-0.1c1.3-1.2,4.3,0.6,5.4-0.5c0.5-0.1,0.6-0.3,0.6-0.9
			c-0.1-1.9-3.4-1.4-4.6-1.9c-0.7-0.5-1.4-0.8-2.1-1.3c0.1-0.2,0.1-0.3,0.2-0.6c0.3-0.3,3.5,0.1,4.4-0.1c0.1-0.3,0.2-0.6,0.3-0.9
			c-0.7-0.8-2-0.9-3.1-1.4c0.8-0.9,1.5-1.7,2.3-2.7c0.8,0.3,2.4,0.2,3,0.2c0.1-0.1,0.3-0.2,0.5-0.3c0-0.7-0.1-0.8-0.3-1.3
			c-0.6-0.2-1.3-0.3-1.9-0.6c-0.1-0.6-0.1-0.3,0-0.9c0.3-0.5,0.6-1,0.9-1.5c1.3,0,2.9,0.6,3.2-0.2c0-0.3,0.1-0.7,0.1-1
			c-1-0.5-1.6-0.6-2.7-1c0-1.2,0.1-2.2,0.1-3.4c1.3,0,1.9,0.2,2.5-0.3c0.3-0.2,0.3-0.2,0.5-0.6c0-0.1,0.1-0.2,0.1-0.3
			c-0.7-0.6-1.6-0.9-2.8-1c0.2-0.9,0.3-1.9,0.6-2.8c1,0,2.2,0,3.2,0c0.3-0.5,0.7-0.7,0.3-1.4c-0.6-0.9-1.5-0.5-2.5-0.7
			c-1.2,0.2-1-1.4-1-2.5c1.2-0.5,2.2-0.9,3.4-1.4c0-0.2,0.1-0.6,0.1-0.8c-0.1-0.1-0.1-0.3-0.2-0.5c-1.4-0.2-2.3,0.8-3.7,0.5
			c-0.3,0.1-1.3-0.7-1.6-1.3c0.5-0.6,2-1.4,1.6-2.7c-1.6-0.3-2.3,0.2-3.7,0.8c-0.5-0.3-0.8-0.8-1.3-1.2c0-0.1,0-0.2,0-0.3
			c1-1,1.7-1.6,2.7-2.8c0-0.2-0.1-0.5-0.1-0.7c-1.5-0.3-3.2,0.7-3.9,1.9h-0.1c-0.7-0.5-0.9-0.8-1.3-1.6c0.6-0.5,1.2-1,1.7-1.5
			l0.1-0.1c0-0.6,0-0.7-0.2-0.9c-1-0.8-3,0.3-3.5,1c-0.3-0.3-0.8-0.8-1.2-1.2c0-0.3,0-0.1-0.1-0.5c0.6-0.8,2.3-1.7,2.5-3.2v-0.1
			c-0.5-0.2-0.8-0.2-1.4-0.3c-1.2,0.7-1.9,1.9-3.4,2.2c-0.3-0.5-0.8-0.9-1.2-1.4c0.9-1,2.1-2,2.2-3.5c-0.1-0.1-0.3-0.1-0.5-0.2
			c-1.9,0.1-2.4,1.6-3.8,2c-0.1-0.7-1-1.5-1.6-2.2c0.8-0.6,1.5-1.3,2.3-1.9c0-0.3,0-0.6,0-0.9c-0.1-0.1-0.2-0.1-0.3-0.2
			c-1.9-0.3-2.1,0.8-3.6,1.3c-0.5-0.5-0.8-0.8-1.3-1.3c0.2-2.4,2.3-0.9,2.1-3.6c-1.3-0.3-3,0.7-3.5,1.6c-0.8-0.2-1.3-0.7-1.4-1.6
			c0-0.1,0.6-0.6,1.5-0.6c0.3-0.7,0.6-1.5,0.9-2.2c-0.2-0.2-0.5-0.3-0.7-0.6c-0.8,0.5-1.5,0.8-2.3,1.3c-0.2-5.1-0.5-10.1-0.7-15.2
			c-0.2-0.1-0.3-0.1-0.6-0.2c-0.2,0.1-0.5,0.2-0.7,0.3c-0.2,6.1,0.2,12.2,0,18.4c-0.1,3.4-0.7,7.5-0.2,9.5c0.8,3.1-1,8.3,0.8,9.4
			c-0.6,1.7-2,2.7-2.9,4.1c-0.7,1.3-1.4,2.7-2.1,3.9c-1.4,1.3-2.8,2.7-4.2,3.9c-1.9,2.1-3.4,4.3-5.2,6.7c-0.9,0.7-1.9,1.5-2.8,2.2
			c-0.7,0.9-0.3,3.1-1.5,4.4c-0.9,1-3,1.4-3.4,3c-0.2,0.8,0.6,2.3,1.2,2.8c-0.9,2.4-2.1,2.8-4.2,4.1c0.5,3.2-0.6,3.5-3.8,4.2
			c-0.2,0.5-0.3,0.9-0.5,1.6c0.8,0.5,2.1,2.8,2.3,3.8v0.1c-0.3,0.1-0.8,0.1-1.2,0.2c-1.4,0-2.4-0.6-3.4-1c-0.3-0.2-2.4,0.1-3.1-0.1
			c-1.3-0.5-2.8-1-3.5-1.3c-0.8-0.1-1.7-0.3-2.5-0.5c-2-1-5.3-2.7-7.4-2.7c-0.9-0.8-4.5-2.8-5.8-3.1c0.1-0.1,0.2-0.1,0.3-0.2
			c-0.8-0.3-2.2-0.7-3-1.7c-0.2-0.3-0.2-0.9-0.5-1.2v-0.1v-0.1c1.3,0.1,2,0.7,2.8,0.7c0.3-0.3-0.1-0.2,0.5-0.3
			c0.1-0.8,0.2-2.1-0.7-2.4c-0.1-0.8-0.1-1.4,0.3-1.9c0-0.1,0.1-0.1,0.1-0.2c0.3,1,1.5,1.6,2.5,1.9c0.2-0.1,0.3-0.1,0.6-0.2
			c0.1-0.1,0.1-0.2,0.2-0.3c-0.1-1.5-0.8-2-1.4-2.9c0.1-0.7,0.3-0.6,0.8-1c0.9,0.6,1.5,0.8,2.5,1.2c0.6-0.3,0.8-0.6,1-1.4
			c-0.6-0.8-1-1.2-1.4-2.1c0.3-0.8,0.8-1.6,1.7-1.9c0.5,0.7,1.2,1.2,2,1.5c0.3-0.1,0.7-0.2,1-0.3c0-0.1,0.1-0.1,0.1-0.2
			c0-1.3-0.5-2.1-1.6-2.7c0.2-0.7,0.8-0.8,1-1.5c0.8,0.5,2.2,1.2,2.2,1.5c0.3,0,0.7,0,1,0c0.5-0.7,0.5-1,0.6-1.7
			c-0.6-0.8-1.3-1.2-1.7-2.1c0.5-0.5,1-0.8,1.5-1.3c0.7,0.5,1.4,0.8,2.1,1.3c0.3-0.1,0.8-0.1,1.2-0.2c0.1-0.3,0.5-0.6,0.2-0.9
			c-0.1-0.7-1.3-1.6-1.9-2.2v-0.1c0.5-0.5,0.8-1,1.3-1.5c0-0.1,0.1-0.1,0.1-0.2c0.3,0.2,0.6,0.6,0.9,0.8c0.6,0.5,1.6,0.2,2.2,0.2
			c0.3-0.2,0.3-0.5,0.5-1c-0.7-0.9-2.1-1.2-2.7-2.2c-0.5-0.6,0-2.1,0-2.8c1.3-0.2,2.1,0.1,3.6-0.1c0.1-0.2,0.1-0.6,0.2-0.8
			c-0.3-0.5-0.7-0.8-1-1.3c-0.7,0-1.3,0-2,0c-0.5-0.7-0.5-1.3-0.3-2.4c0.1,0,0.1-0.1,0.2-0.1c1.2,0.5,2.4,0.7,3.1-0.3
			c0.1-0.3,0.2-0.6,0.3-0.9c-0.2-0.2-0.5-0.3-0.7-0.6c-0.8,0-1.5,0.3-2.3,0c-0.9-0.7,0-2,0.2-3c0.9-0.1,1.7-0.1,2.5-0.3
			c0.1-0.3,0.3-0.7,0.5-1v-0.1c-0.7-0.5-1.5-0.5-2.5-0.7c-0.1-0.9-0.2-2.4,0-3.9c1.6,0.6,2.7,0.3,3.5-0.7c-0.5-0.8-2.5-1.4-3.7-1.4
			c-0.1-1-0.1-2.2-0.2-3.2c0.9-0.1,2-0.1,2.9-0.2c0.1-0.1,0.2-0.3,0.3-0.5c0-0.2,0-0.5,0-0.7c-0.8-0.5-2.5-0.9-3.4-0.7
			c-0.1,0-0.3-0.1-0.5-0.1c0-0.2-0.1-0.3-0.1-0.6c0-0.3-0.1-0.7-0.1-1c0.6,0.1,1,0.2,1.6,0.3c0.7-0.2,1.4-0.8,2-1.3
			c-0.7-1.2-2.3-0.7-3.6-1.2c0-1-0.1-2.2-0.1-3.2c0.9,0.1,1.7,0.3,2.4,0.5c0.3-0.5,0.9-0.9,0.3-1.4c-0.5-0.8-2-0.9-2.8-1.4
			c-0.5-0.3-0.2-1.9-0.2-2.3c1.2,0,1.7-0.1,2.7-0.2c0.1-0.2,0.3-0.5,0.5-0.7c0-0.2,0-0.3,0-0.6c-0.7-0.3-2.5-0.3-3.4-0.7
			c-0.5-0.8-0.2-1.9-0.5-2.7c0-0.2,0-0.5,0-0.7c1,0.1,2,0.3,2.8-0.1c0.1-0.2,0.2-0.6,0.3-0.8c-0.5-0.6-2.3-0.9-3.2-1
			c-0.3-0.6-0.6-2.4-0.3-3c0-0.1,0-0.1,0-0.2c1.5,0.2,2.4,0.5,3.8-0.1c0-0.3,0-0.6,0-0.9c-0.7-0.3-1.3,0.1-2.1-0.2
			c-0.7-0.3-0.9-0.8-1.9-1c0.1-1.2,0.1-2.3,0.2-3.5c2,0.2,3.7,1.3,5.2-0.1c0-0.1,0-0.3,0-0.5c-1.9-0.5-3.2-1-4.8-1.5
			c0-1.3,0.5-1.7,0.9-2.5c1.5,0.6,2.3,1.9,4.4,1.5c0.1-0.1,0.2-0.1,0.3-0.2c0-0.2,0-0.5,0-0.7c-0.9-0.5-1.7-0.9-2.7-1.4
			c0.3-0.7,0.8-1.3,1.2-2c1.4,0.2,2.1,1,3.7,0.6c0.1-0.1,0.2-0.3,0.3-0.5c0-0.3,0-0.6,0-0.9c-0.7-0.5-1.6-0.2-2.5-0.9
			c0.2-0.5,0.6-1,0.8-1.5c0.2-0.2,2.2-0.3,2.8-0.5c0.1-0.3,0.2-0.3,0.2-0.9c-0.5-0.3-1.2-0.3-1.9-0.6c-0.1,0-0.2-0.1-0.3-0.1
			c0.2-0.8,0.5-1.5,0.7-2.3c0.6,0.3,1.6,0.9,2.3,0.3c0.5-0.2,0.3-0.7,0.5-0.9c-0.1-0.1-0.2-0.2-0.3-0.3c-0.2-0.3-1.3-0.6-1.7-0.7
			c0.2-1.6,0.5-3.1,0.7-4.8c0.1-0.1,0.2-0.1,0.3-0.2c1.7,1.9,3.6,3.8,5.3,5.7c4.4,3.2,9.6,7.2,14.9,9c5.1,1.9,9.9,3,15.4,4.5
			c2.3,0.6,4.5,1.2,6.8,1.7c0.8,0,1.7,0,2.5,0c0.2,0.2,0.5,0.6,0.7,0.8c0.7,0.3,0.9-0.3,1.6-0.1C414,321.4,413.8,322.1,414.9,321.8z
			 M412.8,318.7c-0.6,0-1,0-1.6,0v-0.1c1.3-1.3,3.2-3.8,3.8-5.7c0.7-0.3,1.4-0.3,2.1-0.6c0.1,0,0.1,0.1,0.2,0.1
			C416.4,314.8,414.5,316.9,412.8,318.7z M477.5,298.5c0,0.1,0,0.1,0,0.2c-1.6-0.2-2.9-0.7-4.3-1.3c-1.4-0.2-2.9-0.3-4.3-0.6
			c-4.2-1.4-8.5-2.9-12.6-4.3c-2.2-0.8-6.1-0.8-7.5-2.7c-3.2-4.3-5.2-9.4-7.4-14.1c-0.7-1.6-1-3.5-2.2-4.6c0.5-1.5,1-2.9,1.5-4.4
			c0.8-3.7,0.7-7.5,0.8-11.7l-0.1-0.1c-1.3,0.3-1.4,2.3-1.7,3.9c-0.8,3.7-0.5,7.5-1.9,11.7c-1.2,3.6-2.3,7.3-3.5,10.9
			c-1.2,2.2-2.2,4.3-3.4,6.5c-0.8,1.9-1,3.4-2,5c-3.1,5.6-7,11.1-10,17c-1.5,0.1-3,0.2-4.5,0.3c-6.3-1.2-11.9-2.2-17.2-4.5
			c-1.9-0.9-3.7-2-5.6-2.9c-2.3-0.9-4.8-1.4-6.7-2.7c-2.4-1.7-4.9-3.5-7.3-5.2c-2.7-1.6-8.7-5.1-9.7-8c0.3-1.7,0.8-3.6,1.2-5.3
			c1.3-4.2,2.7-8.8,3.6-13.2c0.2-1.6,0.5-3.4,0.7-5c1.6-0.5,3.2-0.9,4.9-1.4c2.2-0.1,4.3-0.1,6.5-0.2c3.5-0.7,7-1.3,10.4-2
			c3.2-1,5.9-2.7,8.7-3.8c1.5-0.6,3-0.6,4.3-1.5c3.5-2.4,5.9-7.1,5-13.1c-0.3-2-0.2-2.9-1.2-4.1c-1.5-2-5.8-5-8.3-5.8
			c-1.5-0.5-3,0.2-4.3-0.1c-0.1,0-0.2-0.1-0.3-0.1c0.6-0.9,2.1-2.1,3.1-2.7c0.5,0.6,1.2,1.4,2,1.6c0.2,0,0.6-0.1,0.8-0.1
			c0.1-0.1,0.2-0.1,0.3-0.2c-0.1-0.9-0.8-1.7-1.4-2.2c0-0.2,0-0.3,0-0.6c0.5-0.2,0.8-0.6,1.3-0.8c0.3,1.2,0.8,2.3,2,2.7
			c0.2-0.2,0.3-0.3,0.6-0.6c0.5-1.2-0.6-2.3-0.9-3.4c0.5-0.6,1-1,1.9-1.3c1.5,1.2,2.8,3.6,3.8,5.2c1.4,1.4,2.7,2.8,4.1,4.2
			c2.8,2.4,6.3,3.5,9.9,5.2c2.1,1,6.6,2.9,9.4,1.6c0.9,0.9,0.6,3,1.4,4.1c2.2,2.9,3.2,6.6,5.1,10c1.3,2.3,3.8,4.3,5.6,5.8
			c1.3,1,3.6,4.4,5.1,3.9c0.1,0,0.1,0.1,0.2,0.1c0.2-0.8-0.3-1.4-0.2-2c0.2-1.3,1-2.4,1-4.2c0.1,0,0.1-0.1,0.2-0.1
			c2.4,3,3.9,7.5,5.7,11.2c0.3,0.9,0.6,1.7,0.9,2.7c1.5,2.1,10.2,4.3,13.3,5.4c1.4,0.6,2.8,1.6,3.9,2.3c1.2,0.5,2.3,0.9,3.5,1.4
			c1.2,0.8,2.4,2,3.8,2.5c0,0.1,0.1,0.1,0.1,0.2c-2.2,3-4.5,5.3-6.1,8.9C478.8,294.5,478.2,296.5,477.5,298.5z M480,299
			c0.1-0.8,0.1-0.9,0.1-1.9c2.9,0,4.8,1.7,7,1.5C486.6,301.4,481.8,299.6,480,299z M487.6,296.7c-2.2-0.9-4.9-0.5-6.6-1.4
			c-0.1-0.1-0.2-0.1-0.3-0.2c0-0.2,0.1-0.5,0.1-0.7c2.7-1.4,5,0.8,7,1.6c0.3,0.5,0.3,0.3,0.3,0.9
			C487.9,296.8,487.8,296.7,487.6,296.7z M489.3,294.3c-0.7-0.2-0.8-0.6-1.3-0.8c-2-0.6-4.1-1.2-6-1.7c0.2-0.6,0.6-1,0.8-1.6
			c0.1,0,0.1-0.1,0.2-0.1c0.5,0.6,5.8,2.3,6.6,2.5c0.1,0.2,0.2,0.5,0.3,0.7C489.8,293.6,489.5,293.9,489.3,294.3z M491.3,299.8
			c-0.5-0.5-1-1.2-1.5-1.6c-0.3-0.3,1.6-4.5,2.4-4.8c0.7,0.7,1.4,1.4,2.1,2.1c0.3,0.9,0.6,1.7,0.9,2.7
			C494.3,299,492.4,299.1,491.3,299.8z M509.1,314.9c-2.5-0.7,2-5.7,1.4-8.6c-0.7-3.2-3.7-7-7.2-6.6c-0.2-1-0.7-3.6-2.3-3
			c-0.6,0.1-0.9,0.3-0.8,1.2c0.6,2.8,4.5,9.2,0.7,11.7c-0.8,0.5-1.2,0.9-2.3,0.6c-0.3-4.4-0.8-16.9-5.8-17.8c1-0.9,3-2,3.5-3.4
			c3.4,0.1,16.6,8,17.7,10.1C516.4,303.5,512.4,312.7,509.1,314.9z M451.7,256.2c0-0.5,0-0.8,0-1.3c-0.3-0.1-0.7-0.1-1-0.2
			c-0.1,0-0.3,0.1-0.5,0.1c0,0.3,0,0.8,0,1.2c0.3,0.1,0.6,0.3,0.9,0.5C451.3,256.4,451.5,256.2,451.7,256.2z M445.6,255.5
			c0.7,0.5,1.6,0.9,2.8,0.9c0.2-0.3,0.3-0.3,0.5-1c-0.7-0.3-1.5-0.7-2.2-1c-0.3,0.1-0.6,0.1-0.9,0.2c-0.1,0.2-0.1,0.3-0.2,0.6
			C445.6,255.3,445.6,255.4,445.6,255.5z M452.8,254.7c0.2-0.5,0.5-0.8,0.7-1.3c0-0.1,0-0.3,0-0.5c-0.5-0.1-0.9-0.1-1.4-0.2
			C451.4,253.5,451.4,254.6,452.8,254.7z M450,252.4v-0.1c0-0.1-0.1-0.1-0.1-0.2c-0.6-0.1-1.2-0.1-1.7-0.2c-0.1,0-0.1,0.1-0.2,0.1
			c0,0.3-0.1,0.7-0.1,1c0.3,0.2,0.6,0.3,0.9,0.6C449.2,253.1,449.7,252.9,450,252.4z M452.6,251.7c0.1-0.1,0.1-0.1,0.2-0.2
			c-0.1-0.1-0.1-0.3-0.2-0.5c-0.3-0.2-0.8-0.3-1.3-0.1c-0.1,0-0.1,0-0.2,0c0,0.5,0.1,0.9,0.1,1.4c0.2,0,0.6,0.1,0.8,0.1
			C452.2,252.2,452.5,252,452.6,251.7z M444.3,251.6c0.3,0.2,0.6,0.3,1.3,0.3c0.2-0.2,0.5-0.3,0.7-0.6c0-0.2,0-0.3,0-0.6
			c-0.9-0.7-1.4-0.6-2.2,0.1C444.2,251.1,444.3,251.4,444.3,251.6z M446.6,249.2c0.1,0.3,0.2,0.6,0.3,0.9c0.1,0,0.3,0,0.5,0
			c0.2-0.1,0.5-0.2,0.7-0.3c0.1-0.1,0.2-0.1,0.3-0.2c0-0.1,0-0.2,0-0.3c-0.1-0.2-0.1-0.6-0.2-0.8C447.1,248.2,447,248.5,446.6,249.2
			z M453.9,247.1c-0.1-0.3-0.1-0.6-0.2-0.9c-0.5-0.2-1.5-0.5-2.2-0.6c-0.2,0.1-0.5,0.2-0.7,0.3c0.1,0.3,0.1,0.8,0.2,1.2
			c0.7,0.2,1.4,0.5,2.1,0.7c0.1-0.1,0.3-0.1,0.5-0.2C453.6,247.3,453.7,247.2,453.9,247.1z M449.8,244.8c-0.3,0.1-0.6,0.3-0.9,0.5
			c0,0.2-0.1,0.3-0.1,0.6c0.1,0.1,0.1,0.2,0.2,0.3c0.3,0.1,0.8,0.1,1.2,0.2C450.4,245.6,450.4,245.2,449.8,244.8z M444.5,243.6
			c-0.2-0.1-0.5-0.2-0.7-0.3c-0.8,0-1.2,0.8-2.4,1c-0.1,0.1-0.1,0.2-0.2,0.3c0,0.7,0.1,0.8,0.5,1.3c0.3-0.1,0.8-0.1,1.2-0.2
			c0.2-0.5,0.2-0.6,0.1-1.2c0.5,0.2,0.7,0.5,1.6,0.5C444.5,244.5,444.5,244.1,444.5,243.6z M445.7,241.1l-0.1,0.1
			c0,0.6,0.1,0.6,0.2,0.9c0.3,0.1,0.7,0.1,1,0.2c0.7-0.5,0.5-0.6,0.7-1.4v-0.1c-0.6,0-1-0.1-1.6-0.1
			C446,240.8,445.9,240.9,445.7,241.1z M450.3,238.3c-0.1,0-0.2,0.1-0.3,0.1c0,0.3,0.1,0.6,0.1,0.9c0.3,0.1,0.7,0.2,1,0.3
			c0.1-0.2,0.3-0.3,0.5-0.6c0-0.2-0.1-0.5-0.1-0.7C451,238,450.7,237.9,450.3,238.3z M446.4,239c-0.1-0.1-0.1-0.1-0.2-0.2
			c0.1-0.6,0.1-0.8,0.6-1c-0.3-0.1-0.6-0.3-0.9-0.5c-1,0.2-1.2,0.3-1.6,1.2c0.1,0.1,0.2,0.1,0.3,0.2C445,239,445.6,239,446.4,239z
			 M444.9,236.3c0.6-0.5,0.8-0.6,0.8-1.6c-1-0.6-1.9-0.6-2.3,0.6C444,235.6,444.5,236,444.9,236.3z M452.2,224.5
			c-0.3-0.2-0.6-0.3-0.9-0.6c-0.1,0-0.2,0.1-0.3,0.1c-0.3,0.7-0.5,2-0.5,3c-2.8-1.6-3.7-1.5-5,1.4c0.2,0.3,0.3,0.6,0.6,0.9
			c1.6-0.2,1-1.4,2.2-1.9c0,0.1-0.1,0.3-0.1,0.5c0.5,0.6,0.5,0.9,1.5,0.9c-0.5,1.2-1.4,1.6-1.7,2.8c0.3,0.2,0.7,0.3,1,0.6
			C451.3,231,452.7,227.3,452.2,224.5z M441.1,230.2c0.3-0.2,0.7-0.3,1-0.6c0-0.7-0.1-0.6-0.3-1.2c-0.1-0.1-0.3-0.1-0.5-0.2
			c-0.3,0.1-0.8,0.2-1.2,0.3c-0.1,0.5-0.1,0.3-0.1,0.9C440.4,229.7,440.8,229.9,441.1,230.2z M445,228.4c0.3-1.2,0.6-2.2,0.9-3.4
			c0-0.1-0.1-0.1-0.1-0.2c-0.3-0.1-0.7-0.2-1-0.3c-0.3,0.5-0.7,1.2-1.3,1.4c0,0.7-0.1,1.3-0.1,2c0.3,0.2,0.7,0.5,1,0.7
			C444.7,228.4,444.9,228.4,445,228.4z M443.4,223.8c-0.9-1.3-2.3,1.3-2.4,2.1c0.1,0.2,0.2,0.5,0.3,0.7c0.3,0,0.8,0.1,1.2,0.1
			C442.8,225.8,444,225,443.4,223.8z M440.4,222.2c-1,0.8-1.7,2-2.1,3.1c0.3,0.3,0.5,0.5,1,0.6c0.8-0.9,1.5-1.9,2.3-2.8
			C441.5,222.4,441.3,222.2,440.4,222.2z M456.4,211.2c0.2,0,0.3-0.1,0.6-0.1c0.1-0.1,0.2-0.2,0.3-0.3c-0.1-0.9-0.5-1.3-1-1.7
			c-0.5-0.6-1.7-0.2-2.4-0.6c-1-0.6-5.1-4.2-6.1-4.1c-0.2,0-0.6,0-0.8,0C446.7,206.5,454,210.9,456.4,211.2z M438.8,194.1
			c0,0.2-0.1,0.3-0.1,0.6c1.2,0.8,2,2,3.7,2.1c0.1-0.1,0.2-0.3,0.3-0.5c0-0.3,0-0.8,0-1.2c-1.5-0.3-2.1-1-3.2-1.6
			C439.3,193.7,439,193.9,438.8,194.1z M444,193.8c0.2-0.1,0.6-0.2,0.8-0.3c0-0.3,0.1-0.6,0.1-0.9c-0.2-0.1-0.3-0.2-0.6-0.3
			c-0.2,0-0.6-0.1-0.8-0.1c-0.1,0.2-0.3,0.5-0.5,0.7c0.1,0.2,0.1,0.3,0.2,0.6C443.5,193.4,443.8,193.5,444,193.8z M429.9,193.7
			c0.2,0,0.5,0.1,0.7,0.1c0.3-0.3,0.8-0.7,1.2-1c0.1-0.3,0.1-0.7-0.1-0.9c-0.2-0.3-0.3-0.3-1-0.3c-0.3,0.2-0.8,0.5-1.2,0.7
			c-0.1,0.2-0.1,0.3-0.2,0.6C429.3,193.3,429.4,193.4,429.9,193.7z M433.5,193c0.1-0.2,0.2-0.3,0.3-0.6c0-0.2,0-0.6,0-0.8
			c-0.5,0-0.9,0-1.4,0c-0.1,0.2-0.3,0.3-0.5,0.6C432.4,192.6,432.4,193,433.5,193z M434.3,190.8c0.1,0.5,0.2,0.9,0.3,1.4
			c0.2,0.1,0.6,0.2,0.8,0.3c0.5-0.5,1-1.2,0.3-1.9c0-0.1,0-0.1,0-0.2C435.3,190.5,434.8,190.7,434.3,190.8z M439.5,191.2
			c0.2-0.2,0.3-0.3,0.6-0.6c0-0.2,0.1-0.3,0.1-0.6c0-0.1-0.1-0.2-0.1-0.3c-0.6-0.3-0.9-0.3-1.7-0.2c-0.2,0.8,0,1.2,0.3,1.7
			C439,191.2,439.3,191.2,439.5,191.2z M430.6,189.1c0.2-0.2,0.5-0.5,0.7-0.7c0-0.2-0.1-0.6-0.1-0.8c-0.6-0.3-0.8-0.3-1.6-0.2
			c-0.1,0.2-0.1,0.6-0.2,0.8C429.6,188.7,429.7,189,430.6,189.1z M434.4,188.3c0.2,0,0.3,0.1,0.6,0.1c0.1-0.1,0.1-0.3,0.2-0.5
			c0-0.2,0.1-0.5,0.1-0.7v-0.1c-0.5-0.3-0.7-0.3-1.4-0.2C433.7,187.4,433.7,188,434.4,188.3z M425.1,186.7c-0.1-0.1-0.2-0.2-0.3-0.3
			c-0.9-0.3-1.4,0.5-2,0.8c0,0.2-0.1,0.5-0.1,0.7v0.1c0.5,0.3,0.6,0.5,1.4,0.5C424.4,187.9,424.8,187.3,425.1,186.7z M425.5,182.7
			c0.3-0.6,0.7-0.7,0.7-1.7c-0.8-0.3-1.4-0.1-2.1,0.1c-0.1,0.5,0.1,0.9,0.3,1.4C424.8,182.4,425.1,182.5,425.5,182.7z"/>
	</g>
</g>
</svg>
