<?xml version="1.0" encoding="utf-8"?>
<!-- Generator: Adobe Illustrator 21.0.0, SVG Export Plug-In . SVG Version: 6.00 Build 0)  -->
<svg version="1.1" id="Calque_1" xmlns="http://www.w3.org/2000/svg" xmlns:xlink="http://www.w3.org/1999/xlink" x="0px" y="0px"
	 viewBox="0 0 841.9 595.3" style="enable-background:new 0 0 841.9 595.3;" xml:space="preserve">
<style type="text/css">
	.st0{fill:#DADADA;}
	.st1{fill:#1D1D1B;}
</style>
<g>
	<g>
		<path class="st0" d="M564.7,235c-0.4-0.9-9.5,0.3-11.2,0.8c-4,1-9.2,1.2-13.3,2c-2.4,0.2-4.8,0.4-7.2,0.6c-3-0.9-6.3-1.8-9.3-2.6
			c-0.3-1.2,0.7-6.5,1.1-7.4c0.1-0.2,0.3-0.4,0.4-0.6c4.3,0,8.2,1.9,12.6,2.9c2.3,0.5,5,0,7.7,0.8c0.3-0.1,0.6-0.3,0.9-0.4
			c0-0.4,0-0.9,0-1.3c-1.8-2-5.2-2.8-7.7-4.1c-7-3.4-14.9-6.7-24.7-6.7c-1.9,0.1-3.9,0.3-5.8,0.4c-3.7,0.5-10.2,4.3-11.7,7
			c-4.1-0.1-11.3-3.9-15-1.6c-1.5,1,2.3,7.6,2.9,9c0,0.1,0,0.3,0,0.4c-3.9-0.4-8.7,0-12.5-1.2c-9.7-2.9-19-8.2-29.2-2.8
			c-1.5,0.8-6.5,2.3-7.3,3.4c-0.1,0.1-0.1,0.1-0.2,0.2c0.8,1.1,3,0.5,4.5,0.4c0,0.1,0,0.1,0,0.2c-1,0.3-3.1,0.5-3.2,1.7
			c2,1.2,5.5,0.8,7.5,0.9c2.3,0.1,7.4,0.4,10-0.3c3.4-0.9,9-1.4,13.1-0.6c4.5,0.8,10,1,14.9,2.1c0.9,0.1,1.7,0.2,2.6,0.3
			c3.6,1.6,7.6,3,11.2,4.2c1,0.3,3.6,1.2,4.1,0.8c1.3,1,8.5,2.4,10.6,2.4c1.7,3.1,5.4,2.8,8.6,4.2c1.1,0.4,2.3,0.3,3.7,1
			c1.3,0.6,3,1.8,4.4,2.5c1.4,0.2,2.7,0.4,4.1,0.5c0.4-0.2,0.5-0.4,0.8-0.9c0-1-0.4-1.1-0.9-1.6c1.2-0.9,2.8-0.6,3.9-1.3
			c-0.1-0.2-0.1-0.4-0.2-0.6c-0.1-0.2-0.2-0.4-0.3-0.5c-2.6-0.2-5,0.8-7.9,0.1c-1.1-0.5-2.2-0.9-3.3-1.4c-1.1-0.2-1.8,0-2.6-0.4
			c-0.1,0-0.1-0.1-0.2-0.1v-0.1c3,0,5.9,0,8.9,0c1.5-0.2,2.9-0.4,4.4-0.6c2.5-0.6,4.8-0.9,6.8-1.4c1.6-0.4,3-1.1,4.5-1.7
			c0.8-0.1,1.6-0.3,2.5-0.4c2.4-1.2,5.1-2.9,7.6-3.7c2.1-0.7,6.5-1.5,8.2-2.9C563.4,236.2,565,236,564.7,235z M370.7,270.7
			c1.7,0,2.9-1.2,5-1.5h0.1c0.2,0.6,0.1,1.1,0.4,1.7c1.2,0.1,3.1-0.2,4.1-0.3c1.9,0.9,3.6-0.1,5.8,0.5c2.3,0.7,5.3,0.9,7.1,1.5
			c1.3-0.1,2.6-0.2,3.9-0.3c3.5-0.6,8.3-0.6,11.9,0.1c4.1,0.8,7.6,2.7,11.2,3.9c9.2,3,19.4,4.9,29.3,4.6c3.4,4.3,13.7,7.2,20.4,8.6
			c3,0.1,6,0.2,9,0.3c3.1,0.7,6.6,4.8,9,4.8c0.4-0.4,0.8-0.8,1.2-1.2c0-1.5-0.6-1.4-0.6-2.7c0.9-0.2,1.4,0.3,2.3,0.4
			c0.2-0.1,0.4-0.3,0.6-0.4c0-0.3,0-0.6,0-1c-0.9-1.2-2-1.3-2.4-3.1v-0.1c1.1-0.6,2.1-1.1,3.4-1.4c0.1-0.2,0.1-0.4,0.2-0.6
			c-0.6-1.2-4.8-1.2-6.3-0.6c-1.3,0.8-2.5,1.5-3.8,2.3c-4.4,1.3-12.1-3.9-16.3-4.4c-0.1-0.1-0.1-0.2-0.2-0.3
			c3.2-0.9,6.8,0.8,9.9,0.4c7-0.7,18.5,0.2,25.7-2c2-0.6,8.6-1.9,9.6-3.2c0.2-0.2,0.4-0.4,0.5-0.5c-0.1-0.4-0.2-0.7-0.3-1.1
			c-2.3-0.4-4.3,0.3-6.9-0.1c-4.7-0.8-9.7-0.6-14.1-2c-3.6-1.4-7.2-2.8-10.7-4.2c-3.4-1.8-7-4.5-11.3-5.2c-0.9-1.9,3.4-3.8,4.4-4.8
			c1.9-2,5.4-7.1,7.8-8.1c3.1,0.1,6.2,0.3,9.3,0.4c0.5-1,0.9-2.2,1.1-3.3c0-0.1-0.1-0.2-0.1-0.3c-2.2-1.3-8.2-1-11.3-1.6
			c-3.4-0.7-5.4-1.7-8.5-2.4c-5-1.1-9.4-0.9-14-1.2c-1.1,0.8-2,0.1-3.5,0.6c-2.1,0.7-4.4,1.8-6.2,3c-4.3,2.9-8,6.8-12.1,10
			c-1.4,1.1-2.9,2.9-4.7,3.7c-1.9,0.8-4.2,0.9-5.9,1.3c-4.3,0.9-8.8,2.4-13.3,3.5c-2.4,0.6-6.3,0-8.3-1.1c-0.5-0.4-1-0.9-1.5-1.3
			c-2.2-0.6-4.4-1.2-6.7-1.8c-2.4-0.5-5.1,0.4-7.2,0.8c-6.8,1.1-13.6,4.2-17.5,8.6c0,0.3,0.1,0.6,0.1,0.9
			C370.4,270.5,370.6,270.6,370.7,270.7z M505.3,276.8c0,0.1,0.1,0.1,0.1,0.2c-0.1,0-0.1,0-0.2,0
			C505.2,276.9,505.3,276.9,505.3,276.8z M485.9,279.7h0.1c0,0.1,0.1,0.2,0.1,0.3c-0.2,0-0.4,0-0.5,0c0-0.1-0.1-0.1-0.1-0.2
			C485.6,279.8,485.7,279.7,485.9,279.7z M373.8,360c-2.6-1.9-5.2-3.9-7.7-5.8c-0.9-0.4-1.9-0.9-2.8-1.3c-1.4-0.9-2.4-2.5-3.7-3.4
			c-1.9-1.5-9.1-7-9.8-9c2.1,0.1,5.3,0.6,7.2-0.1c2.3,0.7,6.8,1.8,9.2,0.3c0-0.3,0.1-0.5,0.1-0.8c-1.8-3.4-13-8.9-9-14.8
			c1.3-1.5,2.6-2.9,4-4.4c-0.1-0.4-0.1-0.8-0.2-1.2c-0.1,0-0.1-0.1-0.2-0.1c-2.3,0-3.8-0.2-5.9,0.3c-3.7,1-8.4,5.6-13.2,2.5
			c-2-1.3-3.6-7.1-4.2-10c0.1-1.1,0.1-2.3,0.2-3.4c-0.1-1.4-0.1-2.8-0.2-4.2c-0.7-1.9-0.4-3.7-0.8-5.6c-0.8-2.5-1.5-4.9-2.3-7.4
			c-2.8-7-6.3-13.6-10.5-19.4c-2.3-2.8-4.7-5.6-7-8.4c-4.3-5.7-8.7-10.8-13.9-15.7c-0.5,0-0.9,0.1-1.4,0.1
			c-3.8,2.7,0.8,14.8,1.9,19.2c0.6,4.4,1.2,8.7,1.8,13.1c3.6,9.3,6.6,17.4,11.9,25.1c2.4,3.5,9,11.8,7.3,16.9
			c-2.9,0.6-5.9,0.8-8.7-0.2c-2.7-1-6.1-3.2-9.7-2.8c-4.7,0.6-8.3,3.9-11.1,6.5c-0.9,0.9-7.9,5.4-5.5,7.2c2.1,1.4,8.2-3.9,13-3
			c6,1.2,9.4,5.2,14.4,7.4c2,0.8,4,1.6,6,2.5c1,0,2,0.1,3,0.1c1.2,0.2,3.7,1.1,5.2,1.7c8.9,3.6,12.1,12.8,18.8,18.6
			c3.3,2.4,6.6,4.7,9.9,7.1c1.1,0.9,1.5,2.2,2.7,3c2.3,1.6,5.6,2.2,7.6,3.7c3.2,2.3,7.8,4,11.7,5.2c1.4,0.4,3.7,1.6,5.2,1.2
			c0.2-0.1,0.4-0.2,0.6-0.3c0.4-1.9-5.2-8.6-6.5-10.3C378.9,366.8,376.7,362.7,373.8,360z M348.4,328.2h0.1c0,0.1,0.1,0.1,0.1,0.2
			C348.6,328.3,348.5,328.3,348.4,328.2z M516.9,328.8c-2.4-0.6-4.8-1.9-7.1-2.7c-4.9-1.6-8.6-3-12.9-5c-2.7-1.3-5.3-1.7-7.9-3
			c-5.9-2.8-11.5-5.6-17.3-8.4c-6.2-3-12.9-4.1-19.4-6.4c-1.8-0.3-3.6-0.6-5.4-0.9c-3.2-0.8-9.8-2.3-14-1.6c-1.5,0.2-3,0.4-4.5,0.5
			c-1.6,0.5-3.1,1-4.7,1.5c-1.4-0.1-3.1-1.4-4.2-1.9c-3.4-1.7-7.3-2.9-11.2-4c-2.7-0.8-7.8,1.7-9.4,2.5c-1.7,0.8-2.3,3.1-4.2,3.9
			c-1.5,0.3-3,0.5-4.5,0.8c-2,0.8-7,5.8-7.2,8.1c0.2,0.4,0.2,0.6,0.6,0.9c1.2,0.5,2.2-0.9,3-1.4c2.4-1.4,5.3-2.8,7.9-3.3
			c1.7-0.3,2.8,1.1,3.8,1.6c3.5,1.8,6.5,4.2,10,5.7c1.3,0.6,3.7,0.6,4.4,1.8c-5.2,13.7-6.8,32.1-2.1,45.7c0.3,1.8,0.5,3.6,0.8,5.4
			c0.9,3.5,1.7,7.9,3.1,11.4c1.6,3.9,4.3,6.7,7,9.4c1.1,0,1.5-0.3,2.4-0.4c0.2-0.9-0.2-3.4,0.4-4.3c1.6,0.4,4-0.2,5.5-0.1
			c0.6-1,1.2-2.1,1.8-3.1c0.1-0.9,0.2-1.7,0.3-2.6h0.1c4.6,1,6.1-1,6.7-5.7c0.1,0,0.2-0.1,0.3-0.1c4.7,1,8.5,0.1,8.4-5.5
			c4.9,0.3,7.7-1.1,6.9-6.1c4.4-0.3,7-1.3,6.9-6.5c1.3,0.1,2.6,0.3,3.9,0.4c3.9-1.1,3.4-5.9,2.9-9.3c6.1,0.5,7.1-3.7,4.9-8.5
			c1.2,0.1,2.4,0.2,3.7,0.3c3.4-0.6,4-4,3.2-7.2c2.2,1.1,10.2,6.7,11.2,8.6c1.6,3,1.8,6.8,3.8,9.4c0.5,0.1,0.6,0.2,1.1,0.1
			c0.8-0.7,1.1-1.8,1.8-2.5c1.2,0.1,1.5,0.4,2.4-0.2c0.3-1.6-0.6-2.7,1.3-3.4c0.8,0.3,1.6,0.5,2.5,0.4c0.5-1.4-0.4-2.1-0.9-3.4
			c1.4-1.1,5-0.6,4.9-2.6c-1.3-1.6-4.8-2.6-6.9-3.3c0-0.1,0.1-0.1,0.1-0.2c6.1,0.1,17.6,1.3,21.2-3.3c-0.1-0.3-0.2-0.6-0.3-1
			C520.1,329.1,518.5,329,516.9,328.8z M499.7,333.6c-0.3-0.2-0.3,0-0.3-0.2l0.1-0.1c0.1,0.1,0.2,0.2,0.3,0.3
			C499.8,333.6,499.7,333.6,499.7,333.6z"/>
	</g>
</g>
<g>
	<g>
		<path class="st1" d="M556.7,235c-0.4-0.9-9.5,0.3-11.2,0.8c-4,1-9.2,1.2-13.3,2c-2.4,0.2-4.8,0.4-7.2,0.6c-3-0.9-6.3-1.8-9.3-2.6
			c-0.3-1.2,0.7-6.5,1.1-7.4c0.1-0.2,0.3-0.4,0.4-0.6c4.3,0,8.2,1.9,12.6,2.9c2.3,0.5,5,0,7.7,0.8c0.3-0.1,0.6-0.3,0.9-0.4
			c0-0.4,0-0.9,0-1.3c-1.8-2-5.2-2.8-7.7-4.1c-7-3.4-14.9-6.7-24.7-6.7c-1.9,0.1-3.9,0.3-5.8,0.4c-3.7,0.5-10.2,4.3-11.7,7
			c-4.1-0.1-11.3-3.9-15-1.6c-1.5,1,2.3,7.6,2.9,9c0,0.1,0,0.3,0,0.4c-3.9-0.4-8.7,0-12.5-1.2c-9.7-2.9-19-8.2-29.2-2.8
			c-1.5,0.8-6.5,2.3-7.3,3.4c-0.1,0.1-0.1,0.1-0.2,0.2c0.8,1.1,3,0.5,4.5,0.4c0,0.1,0,0.1,0,0.2c-1,0.3-3.1,0.5-3.2,1.7
			c2,1.2,5.5,0.8,7.5,0.9c2.3,0.1,7.4,0.4,10-0.3c3.4-0.9,9-1.4,13.1-0.6c4.5,0.8,10,1,14.9,2.1c0.9,0.1,1.7,0.2,2.6,0.3
			c3.6,1.6,7.6,3,11.2,4.2c1,0.3,3.6,1.2,4.1,0.8c1.3,1,8.5,2.4,10.6,2.4c1.7,3.1,5.4,2.8,8.6,4.2c1.1,0.4,2.3,0.3,3.7,1
			c1.3,0.6,3,1.8,4.4,2.5c1.4,0.2,2.7,0.4,4.1,0.5c0.4-0.2,0.5-0.4,0.8-0.9c0-1-0.4-1.1-0.9-1.6c1.2-0.9,2.8-0.6,3.9-1.3
			c-0.1-0.2-0.1-0.4-0.2-0.6c-0.1-0.2-0.2-0.4-0.3-0.5c-2.6-0.2-5,0.8-7.9,0.1c-1.1-0.5-2.2-0.9-3.3-1.4c-1.1-0.2-1.8,0-2.6-0.4
			c-0.1,0-0.1-0.1-0.2-0.1v-0.1c3,0,5.9,0,8.9,0c1.5-0.2,2.9-0.4,4.4-0.6c2.5-0.6,4.8-0.9,6.8-1.4c1.6-0.4,3-1.1,4.5-1.7
			c0.8-0.1,1.6-0.3,2.5-0.4c2.4-1.2,5.1-2.9,7.6-3.7c2.1-0.7,6.5-1.5,8.2-2.9C555.4,236.2,557,236,556.7,235z M362.6,270.7
			c1.7,0,2.9-1.2,5-1.5h0.1c0.2,0.6,0.1,1.1,0.4,1.7c1.2,0.1,3.1-0.2,4.1-0.3c1.9,0.9,3.6-0.1,5.8,0.5c2.3,0.7,5.3,0.9,7.1,1.5
			c1.3-0.1,2.6-0.2,3.9-0.3c3.5-0.6,8.3-0.6,11.9,0.1c4.1,0.8,7.6,2.7,11.2,3.9c9.2,3,19.4,4.9,29.3,4.6c3.4,4.3,13.7,7.2,20.4,8.6
			c3,0.1,6,0.2,9,0.3c3.1,0.7,6.6,4.8,9,4.8c0.4-0.4,0.8-0.8,1.2-1.2c0-1.5-0.6-1.4-0.6-2.7c0.9-0.2,1.4,0.3,2.3,0.4
			c0.2-0.1,0.4-0.3,0.6-0.4c0-0.3,0-0.6,0-1c-0.9-1.2-2-1.3-2.4-3.1v-0.1c1.1-0.6,2.1-1.1,3.4-1.4c0.1-0.2,0.1-0.4,0.2-0.6
			c-0.6-1.2-4.8-1.2-6.3-0.6c-1.3,0.8-2.5,1.5-3.8,2.3c-4.4,1.3-12.1-3.9-16.3-4.4c-0.1-0.1-0.1-0.2-0.2-0.3
			c3.2-0.9,6.8,0.8,9.9,0.4c7-0.7,18.5,0.2,25.7-2c2-0.6,8.6-1.9,9.6-3.2c0.2-0.2,0.4-0.4,0.5-0.5c-0.1-0.4-0.2-0.7-0.3-1.1
			c-2.3-0.4-4.3,0.3-6.9-0.1c-4.7-0.8-9.7-0.6-14.1-2c-3.6-1.4-7.2-2.8-10.7-4.2c-3.4-1.8-7-4.5-11.3-5.2c-0.9-1.9,3.4-3.8,4.4-4.8
			c1.9-2,5.4-7.1,7.8-8.1c3.1,0.1,6.2,0.3,9.3,0.4c0.5-1,0.9-2.2,1.1-3.3c0-0.1-0.1-0.2-0.1-0.3c-2.2-1.3-8.2-1-11.3-1.6
			c-3.4-0.7-5.4-1.7-8.5-2.4c-5-1.1-9.4-0.9-14-1.2c-1.1,0.8-2,0.1-3.5,0.6c-2.1,0.7-4.4,1.8-6.2,3c-4.3,2.9-8,6.8-12.1,10
			c-1.4,1.1-2.9,2.9-4.7,3.7c-1.9,0.8-4.2,0.9-5.9,1.3c-4.3,0.9-8.8,2.4-13.3,3.5c-2.4,0.6-6.3,0-8.3-1.1c-0.5-0.4-1-0.9-1.5-1.3
			c-2.2-0.6-4.4-1.2-6.7-1.8c-2.4-0.5-5.1,0.4-7.2,0.8c-6.8,1.1-13.6,4.2-17.5,8.6c0,0.3,0.1,0.6,0.1,0.9
			C362.4,270.5,362.5,270.6,362.6,270.7z M497.3,276.8c0,0.1,0.1,0.1,0.1,0.2c-0.1,0-0.1,0-0.2,0
			C497.2,276.9,497.2,276.9,497.3,276.8z M477.8,279.7h0.1c0,0.1,0.1,0.2,0.1,0.3c-0.2,0-0.4,0-0.5,0c0-0.1-0.1-0.1-0.1-0.2
			C477.6,279.8,477.7,279.7,477.8,279.7z M365.7,360c-2.6-1.9-5.2-3.9-7.7-5.8c-0.9-0.4-1.9-0.9-2.8-1.3c-1.4-0.9-2.4-2.5-3.7-3.4
			c-1.9-1.5-9.1-7-9.8-9c2.1,0.1,5.3,0.6,7.2-0.1c2.3,0.7,6.8,1.8,9.2,0.3c0-0.3,0.1-0.5,0.1-0.8c-1.8-3.4-13-8.9-9-14.8
			c1.3-1.5,2.6-2.9,4-4.4c-0.1-0.4-0.1-0.8-0.2-1.2c-0.1,0-0.1-0.1-0.2-0.1c-2.3,0-3.8-0.2-5.9,0.3c-3.7,1-8.4,5.6-13.2,2.5
			c-2-1.3-3.6-7.1-4.2-10c0.1-1.1,0.1-2.3,0.2-3.4c-0.1-1.4-0.1-2.8-0.2-4.2c-0.7-1.9-0.4-3.7-0.8-5.6c-0.8-2.5-1.5-4.9-2.3-7.4
			c-2.8-7-6.3-13.6-10.5-19.4c-2.3-2.8-4.7-5.6-7-8.4c-4.3-5.7-8.7-10.8-13.9-15.7c-0.5,0-0.9,0.1-1.4,0.1
			c-3.8,2.7,0.8,14.8,1.9,19.2c0.6,4.4,1.2,8.7,1.8,13.1c3.6,9.3,6.6,17.4,11.9,25.1c2.4,3.5,9,11.8,7.3,16.9
			c-2.9,0.6-5.9,0.8-8.7-0.2c-2.7-1-6.1-3.2-9.7-2.8c-4.7,0.6-8.3,3.9-11.1,6.5c-0.9,0.9-7.9,5.4-5.5,7.2c2.1,1.4,8.2-3.9,13-3
			c6,1.2,9.4,5.2,14.4,7.4c2,0.8,4,1.6,6,2.5c1,0,2,0.1,3,0.1c1.2,0.2,3.7,1.1,5.2,1.7c8.9,3.6,12.1,12.8,18.8,18.6
			c3.3,2.4,6.6,4.7,9.9,7.1c1.1,0.9,1.5,2.2,2.7,3c2.3,1.6,5.6,2.2,7.6,3.7c3.2,2.3,7.8,4,11.7,5.2c1.4,0.4,3.7,1.6,5.2,1.2
			c0.2-0.1,0.4-0.2,0.6-0.3c0.4-1.9-5.2-8.6-6.5-10.3C370.9,366.8,368.7,362.7,365.7,360z M340.4,328.2h0.1c0,0.1,0.1,0.1,0.1,0.2
			C340.5,328.3,340.5,328.3,340.4,328.2z M508.9,328.8c-2.4-0.6-4.8-1.9-7.1-2.7c-4.9-1.6-8.6-3-12.9-5c-2.7-1.3-5.3-1.7-7.9-3
			c-5.9-2.8-11.5-5.6-17.3-8.4c-6.2-3-12.9-4.1-19.4-6.4c-1.8-0.3-3.6-0.6-5.4-0.9c-3.2-0.8-9.8-2.3-14-1.6c-1.5,0.2-3,0.4-4.5,0.5
			c-1.6,0.5-3.1,1-4.7,1.5c-1.4-0.1-3.1-1.4-4.2-1.9c-3.4-1.7-7.3-2.9-11.2-4c-2.7-0.8-7.8,1.7-9.4,2.5c-1.7,0.8-2.3,3.1-4.2,3.9
			c-1.5,0.3-3,0.5-4.5,0.8c-2,0.8-7,5.8-7.2,8.1c0.2,0.4,0.2,0.6,0.6,0.9c1.2,0.5,2.2-0.9,3-1.4c2.4-1.4,5.3-2.8,7.9-3.3
			c1.7-0.3,2.8,1.1,3.8,1.6c3.5,1.8,6.5,4.2,10,5.7c1.3,0.6,3.7,0.6,4.4,1.8c-5.2,13.7-6.8,32.1-2.1,45.7c0.3,1.8,0.5,3.6,0.8,5.4
			c0.9,3.5,1.7,7.9,3.1,11.4c1.6,3.9,4.3,6.7,7,9.4c1.1,0,1.5-0.3,2.4-0.4c0.2-0.9-0.2-3.4,0.4-4.3c1.6,0.4,4-0.2,5.5-0.1
			c0.6-1,1.2-2.1,1.8-3.1c0.1-0.9,0.2-1.7,0.3-2.6h0.1c4.6,1,6.1-1,6.7-5.7c0.1,0,0.2-0.1,0.3-0.1c4.7,1,8.5,0.1,8.4-5.5
			c4.9,0.3,7.7-1.1,6.9-6.1c4.4-0.3,7-1.3,6.9-6.5c1.3,0.1,2.6,0.3,3.9,0.4c3.9-1.1,3.4-5.9,2.9-9.3c6.1,0.5,7.1-3.7,4.9-8.5
			c1.2,0.1,2.4,0.2,3.7,0.3c3.4-0.6,4-4,3.2-7.2c2.2,1.1,10.2,6.7,11.2,8.6c1.6,3,1.8,6.8,3.8,9.4c0.5,0.1,0.6,0.2,1.1,0.1
			c0.8-0.7,1.1-1.8,1.8-2.5c1.2,0.1,1.5,0.4,2.4-0.2c0.3-1.6-0.6-2.7,1.3-3.4c0.8,0.3,1.6,0.5,2.5,0.4c0.5-1.4-0.4-2.1-0.9-3.4
			c1.4-1.1,5-0.6,4.9-2.6c-1.3-1.6-4.8-2.6-6.9-3.3c0-0.1,0.1-0.1,0.1-0.2c6.1,0.1,17.6,1.3,21.2-3.3c-0.1-0.3-0.2-0.6-0.3-1
			C512.1,329.1,510.5,329,508.9,328.8z M491.7,333.6c-0.3-0.2-0.3,0-0.3-0.2l0.1-0.1c0.1,0.1,0.2,0.2,0.3,0.3
			C491.8,333.6,491.7,333.6,491.7,333.6z"/>
	</g>
</g>
</svg>
