<?xml version="1.0" encoding="utf-8"?>
<!-- Generator: Adobe Illustrator 21.0.0, SVG Export Plug-In . SVG Version: 6.00 Build 0)  -->
<svg version="1.1" id="Calque_1" xmlns="http://www.w3.org/2000/svg" xmlns:xlink="http://www.w3.org/1999/xlink" x="0px" y="0px"
	 viewBox="0 0 841 595" style="enable-background:new 0 0 841 595;" xml:space="preserve">
<style type="text/css">
	.st0{fill:#DADADA;}
	.st1{fill:#1D1D1B;}
</style>
<g>
	<g>
		<path class="st0" d="M302.9,268.1c1.2-0.1,2,0.1,3.4,0c1.2,0,3.2,0.2,3.9-0.4c-1.4-0.6-2.9-1-4.2-1.7c0,0-0.6,0.2-0.9,0.1
			l-1.6-0.4c-0.3,0.2-1.4,0.4-2.3,0.3c0,0-0.3-0.2-0.5-0.1c0,0.1-0.1,0.2-0.1,0.4c-0.4,0-0.7,0-1.1,0l0,0.4l-0.4,0
			c-0.1,0.3-0.2,0.3-0.4,0.6c0.9,0.2,2,0.7,2.9,0.9C302.1,268.4,302.6,268.1,302.9,268.1z M479.5,312.6c-0.3-0.5-0.1-1-0.4-1.5
			c-0.3-0.3-0.7-0.6-1-0.8c-0.1-0.2-0.2-0.5-0.3-0.7c-0.2-0.2-1.6-1.1-1.8-1.2c-0.2,0-0.4,0.1-0.6,0.1c-0.4-0.1-0.9-0.6-1.6-0.2
			c0,0.1-0.1,0.3-0.1,0.4c-0.2,0.1-2.2-0.1-2.7,0.2c-1,0.5-1.4,1.6-2,2.5c-0.5,0.7-1.4,1.2-1.8,2c-0.5,1.2-0.2,2.5-0.5,3.3
			c0,1.1,0.1,2.3,0.1,3.4c-0.4,1.8-0.9,3.3-0.8,5.3c-0.4,0.4-0.8,0.8-1.2,1.3c-2.7,0.2-7.4,0.5-8.2-1.6c0.2-0.5,0.6-2.4,0.3-3.5
			c0-0.1-0.3-0.4-0.3-0.5c-0.1-1.2,0.1-2.9-0.1-4.4c-0.1-0.5,0.1-1,0.1-1.4c-0.1-0.4-0.4-1-0.3-1.7c0.3-1.8,0.3-4.8-0.1-6.4
			c-0.2-0.9,0-2.5,0.1-3.1c-0.1-0.8-0.1-1.6-0.2-2.5c0-0.3,0.2-0.8,0.1-1.2c0-0.2-0.3-0.9-0.3-1.1c0-0.2,0.1-0.5,0.1-0.7
			c-0.2-0.5-0.6-1.3-0.8-1.9c0-0.5,0-1.1,0.1-1.6c-0.1-0.5-0.5-1.1-0.7-1.7c-0.4-1.4,0-2.2-0.5-3.7c-0.4-1.4-1.4-2.6-2-3.9
			c-0.3-0.6-0.3-1.2-0.7-1.7c-1.8-2.2-3.9-3.6-6.4-5c-1.1-0.6-2-1.6-3.1-2.1c-0.8-0.4-1.9-0.4-2.7-0.8c-1.4-0.5-2.7-1.4-4.2-1.8
			c-1.7-0.5-3.3-0.4-4.8-0.7c-2-0.4-3.7-1.5-5.6-2c-0.4,0-0.7,0-1.1,0c-1.1-0.2-2.6-0.2-3.5-0.5c-0.5,0-1.1,0-1.6,0
			c-1.3-0.3-3.3-0.5-4.5-0.7c-0.7,0-1.5,0-2.2,0.1c-0.2-0.1-0.8-0.4-1.1-0.5c-1.1-0.2-3.5,0.4-5.3,0c-1.4-0.3-3.8-0.2-5,0
			c-0.4,0.1-1.5-0.4-2-0.2c-1.5,0.5-3.1,0.6-4.7,0.9c-0.6,0.1-1.3-0.3-2.2-0.1c-0.3,0.1-0.5,0.2-1,0.3l0,0.4c0,0-0.1-0.1-0.1-0.1
			c-0.4,0.1-0.7-0.2-1.1-0.3c-0.1,0-2.7,0.2-2.9,0.3c-1.2,0.5-2.6,0.8-3.9,1.4c-0.4,0.2-0.9,0.6-1.3,0.8l-0.7,0l-0.5,0.5
			c-0.8,0.5-1.7,0.6-2.6,1.1c-0.5,0.3-1.2,0.8-1.7,1c-0.4,0.2-0.8,0.1-1,0.2c-0.8,0.3-1.7,1-2.4,1.4c-0.3,0.1-0.7,0.1-1,0.2
			c0,0.1-0.1,0.2-0.1,0.4c-0.2,0-0.4,0-0.6,0c-0.1,0.2-0.2,0.4-0.4,0.6c-0.8,0.6-1.5,1.2-2.3,1.8c-0.6,0.5-1.3,0.6-1.9,1
			c-0.5,0.3-0.4,0.7-0.6,1c-0.2,0.1-0.5,0.2-0.7,0.3c-0.3,0.3-0.6,0.7-1,1l-0.4,0c-0.4,0.3-0.6,0.9-0.9,1.3
			c-0.3,0.2-0.6,0.3-0.8,0.5c-0.4,0.6-0.5,1.2-0.9,1.8c-0.2,0.2-0.8,0.4-1,0.6c0,0.2,0,0.4,0,0.6c-0.1,0.1-0.3,0.5-0.5,0.8
			c-0.1,0.2-0.6,0.3-0.7,0.5c0,0.3,0,0.6,0,0.9c-0.2,0.5-0.8,1.1-1.1,1.5c0,0.2,0,0.4,0,0.6c-0.4,1-0.8,2.4-1.3,3.4l0,1.1
			c-0.1,0.4-0.5,1-0.6,1.4c0,0.3,0.1,0.6,0.1,0.9c-0.1,0.2-0.4,0.7-0.5,1c0,0.5-0.1,1-0.1,1.5c-0.1,0.2-0.5,0.7-0.6,0.9
			c-0.2,0.7,0.2,1.4,0.1,1.8c-0.1,0.5-0.6,0.9-0.7,1.4c0,0.4,0,0.8,0,1.2c-0.1,0.3-0.3,1.1-0.3,1.4c0,0.2,0.1,0.5,0.1,0.7
			c-0.1,0.4-0.4,1.3-0.3,1.7c0,0.3,0.4,1,0.3,1.5c0,0.1-0.4,0.4-0.4,0.4c-0.1,0.4,0.4,3.7,0.5,4c0.1,0.6-0.3,1-0.2,1.5
			c0.1,0.4,0.5,0.6,0.6,0.8c0.1,0.3-0.1,0.6-0.1,0.7c0,0.2,0.5,0.8,0.5,1c0.2,0.6-0.2,1.6-0.3,2c-0.2,0.6,0.2,1.5,0.1,1.8
			c-0.2,0.5-0.3,1.6-0.4,2.2c-1.2,0.8-3.1,0.9-4.7,0.6c-1.4-0.2-2.7,0.3-3-1c-1-1.1,0.2-3.5-0.3-5c-0.7-2.5-0.5-5.6-2.8-6.4
			c-1.1-0.4-2-0.2-3.5-0.4c-0.2,0-3,0.4-3.4,0.6c-1.6,0.5-2,2.1-3,2.4c0,1.3-0.4,2.4-0.5,3.7c0.1,0,0.2,0,0.4,0
			c0,0.8,0.3,0.7,0.4,1.3l0.4,0c0.9,3,5.6,3,8.8,3.2c0,1.4-0.8,1.5-1.2,2.4c-0.3,0.7,0,1.1-0.1,1.6c0,0.3-0.3,0.9-0.5,1.2
			c0.4,0.1,0.2-0.1,0.4,0.2c-0.5,0.8,0.6,3,0.9,4.3c2.1-0.1,4.3,0,6.2,0.3c0.3,0,0.7-0.1,1-0.2c0.6,0.1,2,0.1,2.6,0.2
			c0.2,0,0.5-0.1,0.7-0.1c0.2,0,0.7,0.3,0.9,0.3c0.1,0,2-0.4,2.3-0.4c1.5-0.3,3.4,0,5.2,0c0.1,0.3,0,0.2,0.1,0.4
			c0.3-0.4,1.9-0.2,2.6-0.2c0.1-0.1,1.8-0.3,2.6-0.1c1.1,0.2,2.9-0.4,4.3,0c0.6,0.2,1.8,0.3,2.8,0.2c1.3-0.1,2.9-0.2,3.7,0.4
			c1.5-0.9,3.9-0.1,5.4-0.4c1.7-0.3,5.7-0.2,7.6,0c0.5,0.1,1.7-0.3,2.6-0.2c1.9,0.3,3.7,0.2,5.4,0.1c0,0,0.1-0.1,0.1-0.1
			c-0.3-0.8-0.5-1.2-0.6-2.2c0.6-0.4,0.6-0.8,1.6-0.9c0.5,0.5,2,2.8,1.7,3.6c0.6,1,1.7,2.6,1.8,3.9l0.4,0c1.3,2.1,3.3,4.5,5.6,5.6
			c0.6,0.3,1.7,1,2.7,0.7c0.4-0.1,0.7-0.6,1.1-0.8c1.1-0.5,1.8-0.7,2.3-1.8c1-2.1-0.4-5-1.2-7c-0.1-0.4-0.2-0.8-0.3-1.2l-0.4-0.4
			c0-0.3,0-0.6,0-0.9c-0.6-0.9-1.3-1.2-1.6-2.7c0.3-0.2,0.4-0.5,0.7-0.6c0.2-0.2,0.7-0.1,1.1-0.2c2.6-0.1,2.2,3.4,3.4,4.8
			c0.8-0.8,2.1-0.3,3.4-0.5c0.6-0.1,2.5-0.1,3.6,0.1c0.9,0,1.7-0.1,2.6-0.1c1.9,0,3.4-0.1,5.4,0.2c2.5,0.4,5.5-0.4,8.1,0.1l3-0.1
			c1.5,0.4,4.7,0.3,6.9,0.2c0.5,0,1.1,0.2,1.6,0.3c1.3,0.3,4.2-0.1,5.3-0.3c1.1-0.2,3,0,4.3-0.3c1-0.2,1.8,0.3,2.6,0.2
			c2.4-0.4,6.1-0.3,8.9-0.4c0-0.1,0-0.2,0-0.2c0.1-0.3-0.1-1.9,0-2.8c0.2-1,0-1.9,0-3.1c0-2-0.2-3.6-0.3-6.3
			c-0.6-0.3-0.7-0.8-1.1-1.2c-1.2-0.9-2-0.8-2.1-3c0.7-0.8,0.9-1.6,2.2-1.9l0.8,0.7c1.4,1.9,0.5,2.4,3.3,3.1
			c0.2-0.2,0.3-0.3,0.5-0.5c0.5,0.1,0.7,0.3,1.4,0.3c1-1,2.3-1.9,2.9-3.3c0-0.4,0.1-0.7,0.1-1.1c0.1-0.2,0.4-0.5,0.5-0.8
			c0,0-0.5-2.3-0.6-2.4C480,313.1,479.6,312.8,479.5,312.6z M385,311.5c-0.2,0-0.6,0.2-0.9,0c-1.4,0.2-1.2,1.3-2.7,1.4
			c-0.8,2.1-1.1,4.7,1,6c0,0.1,0,0.2,0,0.2c-0.9,0.2-1.3-0.2-1.9-0.3c-0.2,0-0.4,0.1-0.6,0.1c-0.4,0-0.9-0.3-1.2-0.5
			c-1.2-0.7-2.4-3.3-2.9-4.8c-0.2-0.8,0.5-2.6,0.6-3.2l0-1.1c0.4-0.8,1.3-1.5,1.9-2.2c2-0.1,5.7,0.7,6.9,1.5
			c0.7,0.5,0.6,1.6,1.3,2.1c0,0.5,0,1.1,0,1.6C386.3,312,385.8,311.5,385,311.5z M426.3,312.7c-0.7,0.4-1.6,2.7-0.9,3.7
			c0,1,0.4,1.5,1,1.8c0,0.1-0.1,0.2-0.1,0.4c-2.1,0.1-3.7-0.7-4.4-2.2c0-0.4,0-0.8,0-1.2c-0.5-1.6-0.5-2.4,0-3.9
			c0.1-0.5,0.1-0.9,0.2-1.4c0.3-0.6,1.9-1.7,2.4-1.9c0.4-0.2,0.8-0.1,1.1-0.3c1.2,0,2.8,0.3,3.6,0.9c0.1,0.1-0.1,0.6,0,1
			c0.2,0.5,0.7,0.8,0.9,1.2c0.3,0.5,0.3,1.1,0.7,1.6c0,0.2,0,0.4,0,0.6C429.4,312.2,428,311.2,426.3,312.7z M502.1,274.4
			c1.4,0.4,4.5,0.5,6.9,0.5c0,0,0.1-0.1,0.1-0.1c0-0.5,0.1-0.9-0.2-1.4c-0.4-0.6-5.2-0.8-6.3-0.8c-0.2,0.3-0.6,0.3-1.1,0.3
			c-0.6,0.7-2.3,0.5-2.8,1.3c0.2,0,0.4,0,0.6,0C500.1,274.6,501.1,274.1,502.1,274.4z M279.2,285.3c0.8-0.5,2.5-0.4,3.5-0.7
			c1.5-0.4,2.9-1.1,4.4-1.6c0.9-0.3,3.2-0.3,3.6-0.6c0,0,0.1,0,0.1,0c-0.1-0.1,0,0-0.3-0.1c-1.1-0.9-6.4-0.9-8-0.9
			c-0.6,0.4-2.3,0.7-2.6,0.7c-0.3,0-0.6-0.1-0.9-0.1c-1,0.3-3.6,1.4-3.9,2.3c-0.1,0.2-0.1,0.5-0.1,0.9
			C276.1,285.5,277.8,285.4,279.2,285.3z M313.1,292.5c-0.8,0.1-2.1-0.4-2.9-0.7c-0.3-0.1-1.5,0.1-1.8,0.1c-1.4-0.2-3.1-0.3-4.6-0.4
			c0,0.1,0,0.2,0,0.2c-2.2,0.1-2.9,1-4.1,2c0,0.3,0.1,0.6,0.1,0.9c2.8,1.6,6.7,0,9.4-1.2c1.1-0.5,3.2-0.3,3.9-0.9
			C313.2,292.6,313.2,292.6,313.1,292.5z M530.8,289.2c-0.6-0.2-1-0.9-1.6-1.2c-1.9-0.9-3.9-0.8-6.2-0.9c0,0.5,0.8,0.5,1.4,0.8
			c1.4,0.9,2.2,2.9,4.4,2.9c0.3-0.3,0.9-0.3,1.2-0.5c0.3-0.3,0.6-0.6,0.8-0.9C530.9,289.4,530.8,289.3,530.8,289.2z M507.3,300.3
			c0.1-0.1,0.1-0.2,0.1-0.5c-2.6-1.2-5.6-0.5-8.9-0.7c-0.3,0.3-0.8,0.4-1.2,0.5c0,0,0,0.1,0,0.1c1.6,0.2,2.8,0.9,3.9,1.6
			c0.6,0.4,1.6,1.4,3,0.9c0.5-0.2,0.9-0.8,1.4-1C506.3,300.9,507,300.9,507.3,300.3z M304.9,325.4c-0.4,0-0.8-0.1-1.2-0.1
			c-0.4-0.1-0.5-0.4-1.1-0.5c-0.7,0.5-1.9,0.5-2.4,1.2c-0.1,0.2-0.1,0.5-0.2,0.6c-0.1,0-0.2,0.1-0.4,0.1c-0.3,0.5-0.4,2-0.4,2.6
			c-0.2,0.1,0.3,1.8,0.2,2.5c-0.3,2.4,0.6,6.6,1.5,8.2c0.1,0.5,0.1,1,0.2,1.5c0,0.1,0.4,0.2,0.4,0.2c0.3,0.4-0.3,0.3,0.1,0.5
			c0.7,1.5,4,1.7,4.9,0.2c0.4-0.6,1.7-3.3,1.8-3.9c0.5-2.7,0.5-9-0.8-11.1C307.1,326.9,305.6,325.7,304.9,325.4z M282.9,333.5
			c-0.2-0.8,0.1-2.2-0.5-2.9c-0.1-0.2-0.6-0.3-0.8-0.5c0-0.1-0.1-0.2-0.1-0.4c-0.1,0-0.2,0-0.4,0c-0.5-0.3-0.7-1-1.1-1.3
			c0-0.3,0-0.6,0-0.9c-0.8,0-1.1-0.4-1.6-0.6c-0.5,0-1-0.1-1.5-0.1c-0.9-0.2-1.3-0.6-2.6-0.5c-0.6,0.6-1.6,0.7-1.9,1.7
			c-0.8,1.2,0,2.9-0.2,4.3c-0.2,1.3-0.1,2.8,0.2,3.6c0.2,0.4,0,1.2-0.1,1.6c-0.1,0.7,0.2,1.6,0.3,2.1c0.2,1.2,0,2.5,0.4,3.3
			c0,0.1,0.3,0.5,0.4,0.6c0,0.3,0,0.7,0,1c0.2,0.5,0.6,0.7,0.8,1.4c0.6,0.1,0.8,0.4,1.3,0.6c1.2,0.3,4.7-0.3,5.3-0.9
			c0.3-0.3,0.2-0.8,0.5-1.1c0.2-0.2,0.6-0.2,0.7-0.4c0.3-0.5,0.8-2.3,0.7-2.6C283.6,338.8,283.5,336,282.9,333.5z M319,328.2
			c-0.2-0.4-1-2.4-1.3-2.5c-2.6-1.6-7.2,0.4-7,3.2c0.2,0.3-0.1,0.5,0,1c0.3,0.9,0.3,2.3,0.6,2.9c0,1.4,0,2.8,0,4.2
			c0.5,2,1.2,2.8,2,4.5l0.4,0c0,0.2,0.1,0.4,0.1,0.6c0.6,0.1,0.9,0.6,1,1.2c1.7,0.2,1.5-0.2,3.1-0.6c2.1-4.1,3.2-9.1,1.2-13.7
			L319,328.2z M296,334.6l-0.4,0c0.1-1.5,0-3.1-0.8-4.4c-0.2-0.1-0.3-0.2-0.5-0.4c0-0.2,0.1-0.3,0.1-0.5c0-0.2-0.3-1.1-0.4-1.3
			c-0.1-0.2-0.5-0.3-0.8-0.5c-1.8-1.7-3.4-1.5-5.7-0.4c-0.1,1-0.8,1.7-1,2.6c-0.1,0.3,0.3,0.6,0.2,1c-0.2,0.6-0.2,1.6-0.1,2.2
			c0,0.2,0.1,1.1,0,1.4c-0.1,0-0.2,0-0.2,0c-0.1,0.4,0.3,1.1,0.2,1.7c0,0.1-0.2,0.5-0.1,0.7c0.3,0.8,0.8,2.7,1.2,3.8
			c0,0.3,0,0.7,0,1c0.2,0.6,0.8,1.3,1,1.8c0.2,0.3,0,0.8,0.3,1.1c0.2,0.3,0.7,0.3,1.1,0.7c0.8,0,1,0,1.8-0.1
			c0.4-0.5,1.3-0.9,1.6-1.4c0.2-0.4,0-0.6,0.2-1c0.3-0.3,0.6-0.7,1-1c0.2-0.5-0.3-1,0-1.6c0.1-0.2,0.5-0.7,0.6-1c0-0.8,0-1.6,0-2.3
			c0.2-0.8,0.4-1.3,0.8-1.9C295.9,334.6,296.1,334.9,296,334.6z M503.6,334.4c0-0.5,0-1.1,0.1-1.6c-0.2-0.8-0.2-3-0.6-3.4
			c-0.8-1.3-3.5-3-5.6-2.9c-0.3,0.2-0.9,0.1-1.3,0.3c-0.8,0.4-1.6,1.6-2,2.3c-2,3.2-0.9,10.7,0.7,13.9c0.5,0.9,2.7,2.6,3.9,2.8
			c0.9,0.2,3-1.4,3.3-1.9c0.2-0.3,0.1-0.6,0.2-0.9c0.4-0.7,1.2-1.8,1.4-2.6c0.1-0.4-0.2-0.9-0.2-1.4c0-0.2,0.3-0.5,0.4-0.6
			c0.2-0.9-0.3-1.7-0.3-2.2C503.3,335.5,503.6,334.9,503.6,334.4z M524.9,326.6c-0.8,0-1.3-0.1-2.2-0.1c-0.5,0.5-1.1,0.4-1.8,0.8
			c-0.7,0.4-2.9,3.6-2.9,4.6c-0.4,1,0.8,3.1,0.4,4.7c-1.1,4.2-0.7,5.6,1.4,8.7c1.2-0.1,3-0.1,4.3-0.8c0.3-0.1,1.6-1.5,1.8-1.8
			c0.2-0.3,0-0.6,0.2-0.9c1.7-2.6,1.8-5.2,1.3-8.4c0-0.2,0.3-0.7,0.3-0.9c0.2-1.2-0.9-4.4-1.4-5C525.8,327.3,525.3,327,524.9,326.6z
			 M514.4,338.4c0-0.2,0.2-0.5,0.1-0.9c-0.1-0.5-0.4-2-0.3-2.6c0.1-0.9,0.5-4.5,0.3-4.9c-0.2-0.4-0.6-0.8-0.9-1.1
			c-0.2-0.3-0.2-0.8-0.5-1c-1.1-0.8-3-0.3-4.4-0.2c-0.2,0.9-0.8,1.2-1.6,1.5c0,0.2,0,0.3,0,0.5c-0.2,0-0.4,0-0.6,0
			c0,0.1-0.1,0.2-0.1,0.4c-0.6,1,0.6,3.5,0.4,4.9c-0.4,2.7-0.6,8,1.7,9.6c0.3,0.2,1.6,1.4,2.4,1c0-0.1,0.1-0.3,0.1-0.4
			c0.6-0.2,1.1-0.4,1.7-0.5c0.4-0.5,2.1-3.6,2-4.5C514.5,339.8,514.3,339.2,514.4,338.4z M539.1,333.3c-0.9-1.4-1.9-5.1-3.3-5.7
			c-0.4-0.3-0.9-0.4-1.5-0.4c-0.6,0.5-1.3,0.4-2.1,0.8c-0.5,0.2-0.9,1-1.3,1.4c-0.2,0.2-0.6,0-0.7,0.3l0,1.1c0.6,0.8,0,3.2,0,4.7
			c0,0.4,0.4,1.5,0.2,2.6c-0.1,0.8-0.6,2.4-0.4,3c0.6,2.3,2.8,4.5,5.3,3.9c0.7-1.1,1.2-2.7,1.6-4.1l0-0.7c0.7-1.9,0.9-2.7,0.8-5.1
			c0.2-0.1,0.2-0.4,0.4-0.5c0.2-0.2,0.7-0.1,0.9-0.3C539.1,334,539.1,333.7,539.1,333.3z M373.3,423.5c0,0.1,0,0.2,0,0.2
			c0.1,0,0.2,0,0.2,0c0-0.1,0-0.2,0-0.2C373.5,423.5,373.4,423.5,373.3,423.5z"/>
	</g>
</g>
<g>
	<g>
		<path class="st1" d="M621.8,333.2c-0.5-1.8-2.9-0.6-4.7-1c-2.8-0.6-5.8,0.3-7.9-0.1l-4.1,0.1c-0.8,0.2-2.9,0-3.6-0.1l-2.1,0.1
			c-0.3-0.1-1-0.2-1.5-0.1c-1.4,0.4-3.1-0.1-5,0c-2.3,0.1-4.6,0.4-6.8,0c-0.8-0.2-2.1,0.1-2.7,0.2c-0.2,0-5.1,0.1-5.4,0
			c-0.1-0.1-0.2-0.2-0.3-0.2c-0.5,0.1-1,0.1-1.5,0.2c-1.3,0-3.3,0-3.9,0c-0.3,0-1,0.3-1.5,0.2c-1.5-0.3-3.5-0.1-5.3-0.1l-2,0.1
			c-1.2-0.2-4.1-0.2-5.7,0.2l-6,0.2c-0.2,0-0.7-0.2-1.1-0.1c-0.7,0.2-2.2,0.2-3.3,0.5c-0.4,0-0.8-0.1-1.2-0.1
			c-1.4,0.4-2.7,0.5-4.3,0.6c-0.1-1.4-0.7-2-1.1-2.9c-0.9-2.3-2.2-5.3-4.5-6.1c-2.5-0.9-6,1.7-7,2.9c-0.7-0.3-0.9-1.4-1.5-1.8l0-0.5
			c-0.6-0.1-0.7-0.5-1.1-0.7c-0.9-0.4-1.3-0.1-2.2-0.5c-0.7,0.3-1.9,0-2.9,0.5c-1.9,0.9-3.4,2-4.4,3.7c-1.1-0.2-2.1-2.2-3.2-2.9
			c-2.8-1.6-7.1,0.3-8.2,2.2l-0.5,0c-0.2-1.5-1.7-1.4-2.8-2c-2.7-1.6-5-1.9-7.6-0.1c-0.3,0.2-0.8,0.2-1.1,0.5
			c-0.2,0.2-0.2,0.6-0.5,0.8c-0.4,0.3-1,0.7-1.3,1.1c-0.2,0.3,0,0.6-0.1,0.9c-0.1,0.4-0.7,0.9-0.8,1.3c0,0.3-0.1,0.7-0.1,1
			c-0.1,0.2-0.4,0.6-0.5,0.8c-0.3,1.1,0.4,2.7-0.1,3.6c0,0.1-0.1,0.2-0.1,0.4c-3.7-0.2-7.1,0.1-10.2,0.3c-0.9,0.1-2.3-0.6-3.1,0
			c-0.4-0.1-0.4-0.1-0.7-0.2c-0.1-0.4-0.5-1-0.5-1.3c-0.1-0.5,0.5-0.8,0.3-1.4c0-0.1-0.5-0.7-0.5-0.8c-0.1-0.5,0-2,0-2.6
			c0.1-0.4-0.2-0.8-0.3-1.1c-0.2-0.7,0.1-1.5,0.2-2c0.1-0.8-0.4-1.7-0.1-2.2c0.3-0.6,0.8-0.1,1.2-0.3c0.1-0.1,0.2-0.3,0.2-0.4
			c0.5-0.1,1.1-0.1,1.6-0.2c0.3-0.1,1.5-0.8,1.8-1c1.2-0.8,3-5,3.5-6.8c0.3-1-0.5-2.4-0.7-3.1c-0.9-2.3-3.5-6.8-6.1-6.6
			c-0.7,0.1-2.3-1.3-3.6-0.3l-0.2,0c0-0.8-0.2-1.6-0.3-2.1c-0.3-1,0.2-1.8,0-2.7c-0.1-0.4-0.4-0.8-0.3-1.5c0.2-1.1,0.4-2.2,0.5-3.1
			c0.1-1-0.4-2,0.3-2.7c-0.1-0.2-0.3-0.1-0.4-0.2c0,0-0.1-3.2-0.1-3.2c0.3-1.5,0.4-3,0.5-4.8c-0.1-0.6-0.2-1.2-0.3-1.8
			c0.4-2.3,0.2-5.3-0.1-7.9c-0.1-0.8,0.2-2,0.1-3.2c-0.2-3.7,0-7.3-0.2-10.5c-0.1-1.2-0.3-3.1,0.1-3.7c0-1.4-1.3-1.4-2.4-1.3
			c-0.4,0.5-0.7,1.4-1.2,1.9c-0.4,0.4-0.7,0.2-1.1,0.9l-0.4,0c0-0.3,0-0.5,0.1-0.6c-0.1-0.6-0.2-0.6-0.9-0.6
			c0.1-0.3,0.1-0.4,0.2-0.6c-0.1-0.8-0.9-1.2-1.8-0.8c-0.6,0.3-1.5,2.5-1.7,3.1c-0.3,0.1-0.6,0.1-0.7,0.3c-1-0.4-0.5-1.3-0.9-2.3
			c-0.2-0.4-0.7-0.6-0.9-1c-0.4-0.8-0.3-1.4-0.7-2.1c-0.5-0.1-0.9,0-1.4-0.1c-1.4,1.6-2.7,4.2-5,5c-0.1,0.1,0,0-0.2,0.1
			c-0.2-0.3-0.6-0.7-0.8-1.1l0-0.9c-0.2-0.3-0.6-0.5-0.8-1c-0.1-0.3,0.3-0.4,0.2-0.6c-0.3-0.8-1.2-1.4-1.5-2.2
			c-0.9-0.2-1.6,0.3-2,0.4c-0.6,0.4-0.7,2.2-1.1,2.9c-0.3,0.6-1.1,0.7-1.4,1.3c-0.2-0.1-0.1,0-0.3-0.1c-0.8-0.2-2.3-4.1-1.7-4.7
			c-0.4-0.6-1.3-0.7-1.9-1c-1.3,0.2-1,1-1.7,1.8c-0.4,0.4-1.9,1.5-2,1.8c-0.3,0.5,0.3,1.2,0.2,1.5c-0.1,0.2-0.6,0.3-0.7,0.5
			c-0.1,0.3,0.3,0.5,0,0.9c-0.2,0.3-0.9,0.4-1.2,0.7c-1.1-0.3-1.3-1.5-1.8-2.4c-0.3-0.6-1.2-1-1.5-1.6c-0.2-0.4-0.2-1-0.4-1.2
			c-0.4-0.4-1.1-0.5-1.5-0.8c-1.7,0.3-0.9,0.7-1.6,1.3c-0.3,0.3-0.8,0.2-1.1,0.5c0,0.2-0.1,0.3-0.1,0.5c-0.7,1.1-2.1,2-3.5,2.2
			c-0.5-0.9-1.5-1.4-2-2.2c-0.4-0.5,0-1.2-0.2-2.1c-0.2-0.7-0.5-1.3-0.8-1.8c-0.7,0-1.2-0.2-1.6,0.2c-0.7,0.3-1.4,1.7-1.8,2.3
			c-0.1,0.2-0.4,0.2-0.6,0.4c-0.3,0.2-0.4,0.6-0.6,0.9c-0.4,0.5-1.1,0.9-1.6,1.4c-1.6-0.1-3.2-3.8-4.1-5c-3.5-0.1-3.7,2.9-6.5,3.7
			c-0.2-0.2-1.7-1-1.8-1.1l0-0.5c-0.3-0.6-1.1-2-1.8-2.2c-1.2-0.3-1.8,0.7-2.2,1.2c-0.5,0.6-1.3,1-1.8,1.5c-0.1,0.2-0.1,0.5-0.2,0.6
			c-0.3,0.1-0.7,0.1-1,0.2c-0.1,0.1-0.2,0.4-0.4,0.5c-1,0.3-1.7-1-2-1.5c-0.4-0.6-0.9-0.7-1-1.7c-1-0.2-0.9-0.3-2-0.1
			c-0.1,0.6-0.2,0.4-0.3,0.9c-0.3-0.2-0.1,0.1-0.3-0.2c-0.6,0.3-0.6,0.8-1.1,1.1c-0.5,0.4-1,0.6-1.4,1l-0.2,0.5
			c-0.4,0.4-1,0.6-1.4,1c-0.4,0-0.8,0-1-0.1c-1.5-0.5-1-3.1-2.5-3.7l0-0.1c-0.7,0-1.1,0.1-1.6,0.3l0,0.4l-0.6,0
			c-0.6,0.7-1.5,1.3-2,2l-0.4,0l0,0.4l-0.1,0.1l-0.5,0l0,0.4c-0.5,0.1-0.5,0.2-0.7,0.6c-0.5,0-0.5,0-0.9,0c-0.6-1.4-1.5-2.7-1.8-4.7
			c-0.5-0.2-1-0.5-1.4-0.8c-1.5,0-2.7,1.8-3.2,2.8c-0.3,0-0.4,0-0.6-0.1c-0.1,0.3-0.1,1.2-0.3,1.5c-0.8,1.1-2.2,1.7-3.1,2.7
			c-0.4,0-0.7,0-0.9-0.1c-0.2-0.2-0.5-0.8-0.4-1.2c0.1-0.4-0.6-3.5-0.4-3.8c-0.2-0.4-0.6-0.7-1-0.8c-0.6-0.3-0.9,0.5-1.5,0.7
			c-0.4,0.1-0.9-0.2-1.2-0.1c-1.6,0.4-2.9,1.3-3.6,2.5c-0.9-0.3-1.6-2.4-2.2-3.1c-0.4-0.3-0.8-0.5-1.3-0.8l-1.2,0
			c-1.6,1.8-2.3,4.2-3.6,6.3c-0.4,0.6-1.1,0.8-1.6,1.3c-0.7-0.3-1.2-2.1-1.4-2.8c-0.2-0.6,0.1-1,0-1.4c-0.1-0.7-0.6-0.9-0.9-1.3
			c-0.5,0.1-0.4,0.2-0.6-0.1c-0.7,0.1-0.9,0.4-1.3,0.7c0,0.7-0.1,0.8-0.2,1.2c0.2,0.7,0.2,2.4-0.1,3.5c-0.1,0.4-0.6,0.7-0.8,1
			c0.1,0.1,0.5,4,0.5,4c-0.1,0.2-0.4,0.4-0.3,0.9c0.3,2,0,8.6-1,11.1l0,1.6l-0.5,0.5c-0.1,0.3,0.2,0.7,0.1,0.9
			c-0.1,1-0.4,2.1-0.6,3.1c-0.4,1.7,0.5,3.9,0.3,5.3c-0.1,0.9-0.1,1.9,0,2.6c0,0.2,0.2,0.3,0.1,0.6c-0.3,1.8,0,4.3-0.4,6.3
			c0,1.1,0,2.1,0,3.2c-0.3,1.2-0.2,2.4-0.1,3.8c0,0.3,0.2,1,0.2,1.1c-0.3,1.8-0.1,2.8-0.4,4.1c-0.2,1,0.6,1.8,0,2.8
			c-0.4,0.8-1.7,0.3-2.8,0.6c-1.7,0.4-3.1,0.9-4.3,1.9c-0.2,0.2-0.2,0.5-0.3,0.8c-0.4,0.3-0.7,0.6-1.1,0.9c-0.7,1.2-0.8,2.8-0.7,4.3
			c0,0.3-0.2,1.2-0.1,1.7c0.3,1,3.1,4.4,4,4.9c0.5,0.3,1.5,0.7,2,0.8c0.6,0.1,1.5-0.2,2.2,0.2l0.2,0c-0.2,1.3,0.6,5.8-0.1,7.1
			c-0.5,0.3-3.3,0.1-4.2-0.1c-0.4-0.1-2.5,0.3-3.3,0.2c-1.4-0.2-3.2-0.3-4.4-0.5c-1-0.2-2.3,0.3-3-0.2l-1.1,0
			c-0.4-1.6-0.4-3.6-0.9-5.4c-0.2-0.7,0.1-1,0-1.5c-0.2-0.6-0.9-0.9-1.1-1.3c-0.1-0.1,0.2-0.9,0-1.2c0,0-0.3-0.2-0.4-0.2l0-0.5
			c-0.2-0.1-0.3-0.2-0.5-0.2l0-0.6c-0.1-0.2-0.6-0.2-0.8-0.3c-0.2-0.2-0.3-0.5-0.5-0.7l-0.5,0c-0.2-0.1-0.5-0.6-0.8-0.7
			c-1.6-0.7-4.3,0.3-5.1,0.9c-0.4,0.2-0.8,0.3-1.1,0.5c-0.2,0.2-0.3,0.4-0.5,0.6c-0.5,0.3-1,0.1-1.3,0.5c-1.1-0.2-1.5-1.2-2.5-1.4
			l0-0.4c-1.3-0.1-2.6-0.8-3.6-1.2c-1.7-0.8-4.1,1.9-4.7,2.5l0,0.4c-0.7,0.1-1.2,0.9-1.4,1.5l-0.1,0c-0.3-0.5-0.8-0.8-0.9-1.6
			c-0.3,0-0.3,0.1-0.5,0.1c-0.1-0.2-0.1-0.4-0.1-0.7c-1.3-0.2-5.5-2.1-6.8-1.3c-1.7,0.1-3,1.9-3.3,3.3c-0.4,0-0.7,0-0.9-0.1l-0.6,0
			c0.1-0.2,0.1-0.2,0.1-0.5c-1-0.1-0.7-1.1-1.4-1.4c-1-0.6-2.4-0.2-3.2-0.3c-1-0.1-4.6-1.3-6.2-0.8c-1.5,0.5-2.9,1.8-3.5,3.2
			c-0.3,0.6,0.2,1.2,0.1,1.7c-0.2,1-0.4,1.6-0.4,2.5c0,1.2,0.5,3.6,0.1,4.4l0,0.2c-0.9,0.1-1.9,0.5-2.7,0.3
			c-0.3-0.1-1.4-0.4-1.9-0.3c-0.4,0.1-1.8,0.5-2.3,0.3c-0.2-0.1,0-0.3-0.4-0.2c-0.2,0-0.3,0.1-0.4,0.1l0,0.1
			c-0.4,0.2-3.4-0.2-3.8-0.3c-0.1,0-3.5,0.3-3.7,0.2c0-0.1-0.1-0.2-0.1-0.4c-0.6-0.2-1.8,0.1-2.2,0.2c-0.1,0-4.1,0.1-4.1,0.1
			c-0.7-0.1-1.6-0.3-2.6,0c0,0-0.1,0.1-0.1,0.1l0-0.2c-0.8-0.3-1.6,0.1-2.1,0.1c-0.8,0-2.2-0.1-2.8-0.2c-0.7,0-1.4,0.3-2.1,0.2
			c-0.9-0.1-2.4,0.3-3.2,0.1c-2.9-0.6-4.7,0.4-7.3,0c-1-0.2-1.7,0.5-2.7,0.3c-0.2,0-0.8-0.3-1-0.3c-0.4,0.1-0.7,0.1-1.1,0.2
			c-1.1,0.1-2.2,0-3.1-0.1c-0.7-0.1-1.5,0.2-2.1,0.2c-0.8-0.1-3.2,0.4-3.7,0.2c-0.3-0.1-0.9-0.5-1.3-0.6c-1.1-0.3-1.5,0.2-2.1-0.2
			c-0.8,0-0.8,0.2-1.3,0.4c0,0.3-0.1,0.7-0.2,0.9c0.1,0.5,0.3,0.8,0.5,1.2c1,0.2,2.3,0.5,3.3,0.6c0.5,0.1,0.8-0.4,1.5-0.3
			c0.8,0.1,1.7,0.3,2.5,0.3l0-0.4c0.3,0.2,0.1,0,0.3,0.4c0.5-0.2,4-0.5,5-0.3c0.5,0.1,1.3,0.4,2,0.2c0.6-0.2,2.1-0.6,3.2-0.3
			c0.5,0.1,1.5,0.4,2.2,0.2c1.2-0.4,4.1-0.3,5.4,0c1,0.2,2.5-0.2,3.1-0.3c0.2-0.1,0.7,0.1,1.1,0.1c1.7-0.2,2.6,0.1,4.1,0.1
			c-0.1,1.7,0.5,1.8,1.3,2.8c0.5-0.1,1-0.1,1.5-0.2c0,0,0.1-0.1,0.1-0.1c0-1.2-0.4-1.5-0.6-2.4c1.2-0.4,3.1-0.3,3.7-0.2
			c0.6,0.1,1.6-0.1,2.1,0.2c0.2,0.3-0.2,0.8,0.2,1.2c-0.2,0.3-0.3,0.5-0.6,0.6c0,0.9-0.1,2.2,0.3,2.7c0.2,0.6,0.9,0.7,1.7,0.7
			c0.1-0.5,0.3-0.7,0.1-1.1c-0.1-1.8,0.2-1.2,1-2c0.7,0.1,0.7,0.4,1.4,0.5c0.1,0.7,0.1,1.5,0.6,2.2c0.3,0.4,0.8,0.5,1.1,0.8
			c1,0,1.4-0.3,1.8-0.9l1.6,0c-0.1,0.3,0,0.2-0.2,0.4c0.1,1.2,1.2,2.2,2.2,2.5c0,1.1-0.2,1.9,0.2,2.8c0.1,0.3,0.5,0.4,0.6,0.7
			c1,0,1.3-0.1,2.1-0.3l0-1.4c0.5,0.4,0.5,0.9,1.3,1.1c0.4,0.3,1,0,1.5,0c0.3-0.3,0.6-0.5,0.7-1l2.6,1.5c0.4,0.5-0.2,0.7,0.7,1.3
			c-0.4,0.5-0.8,0.7-0.9,1.5c-0.3,0.7,1.2,1.7,1.7,2.2c1.1,0,1-0.3,1.4-0.9c-0.1-1.1-0.6-1.7-1.2-2.3c0-0.2,0.7-0.6,1.1-0.8l0-0.6
			c1.6,0.2,1.3,1.8,3.7,1.2c0.2,0.5,0.4,0.5,0.5,1c0.2,0.3-0.1,1.8,0,2.5l-0.7,0c-0.3,0.2-0.6,0.4-0.8,0.6c0,1.1,0.3,1.3,0.4,2.3
			c0.5,0.1,1.2,0.6,1.6,0.3c0.7-0.2,0.8-1,0.8-1.6c0.4-0.2,0.8-0.5,1.2-0.7c0-0.9-0.4-2.3-0.2-2.8c0.2-0.4,0.6-0.5,1.1-0.5
			c0.1-0.4,0.4-0.9,0.5-1.1c0-1.1-0.3-1.6-0.9-1.9c0.1-0.8,0.6-0.6,1.1-1c0.3,0,0.3,0,0.5,0.1c0.1,0.1-0.1,0.8,0,1.2
			c0.2,0.4,0.8,0.8,1,1.2c0.1,0.3-0.1,0.5,0.1,0.9l0,0.1c0.2,0.2,1.3,0.6,1.6,0.8c1.5,0,1.3-0.7,1.9-1.4c0.3,0.1,0.6,0.9,1,1.2
			c0.7,0.6,1.1-0.2,2,0.2c0.1,0.2,0.3,0.3,0.4,0.5c0.5,0.3,2.9,0.3,3.3,0c1.1-0.5,0.5-2.3,1.4-3.2c0.3-0.2,0.4,0.1,0.9-0.1
			c0.4-0.2,0.2-0.6,0.8-0.8c0,0.5-0.3,0.8-0.2,1.2c0.1,0.6,0.9,1.6,1.5,1.8c0.4,0.2,0.8,0,1.4,0c0,0.3,0,0.3,0.1,0.5
			c-0.2,0.2-0.5,0.4-0.7,0.6c0.1,1,0.3,1.5,0.8,2.2c1.3,0,1.4-0.5,1.4-1.6c0.5-0.1,0.9-0.3,1.3-0.4c-0.1-1-0.5-1.8-0.6-2.7l-0.4,0
			c-0.1-0.7-0.3-0.8-0.5-1.3c-0.8,0-1.2,0-1.3,0.7l-0.1,0c-0.1-0.3-0.1-0.2-0.3-0.4c0.2-0.4,0.9-0.4,1.2-0.8c0.6,0,0.7,0.2,1,0.5
			c0.6,0,1-0.2,1.3-0.5c0.4-0.5,0.3-1,0.2-1.6c0,0,0.1-0.1,0.1-0.1c0.4,0,0.8,0.1,1.2,0.1c0.1,0.6,0.3,0.7,0.4,1
			c0,0.6,0,1.2-0.1,1.8c0.2,0.5,0.9,1,1.2,1.4c0.2,0.4,0,0.7,0.3,1c0.3,0.4,1,0.5,1.4,0.9c0.3,0.3-0.5,4,0.1,4.8l0.8,0.7
			c0.3,0,0.5,0,0.6,0.1c0.6-0.1,0.6-0.3,1-0.5c0-0.7,0.1-0.9,0-1.4c0.2-0.1,0.4-0.3,0.6-0.4c-0.1-0.9-0.2-2.6-0.7-3.2
			c-0.2-0.3-0.9-0.5-1-0.8c0-0.4,0.1-0.7,0.1-1.1c-0.5-1.6-0.1-2.1,0.3-3.5c1,0.4,0.9,1.7,2.2,2c0,0.4-0.1,0.5-0.2,0.7
			c0.1,1.2,1.5,2.6,2.8,1.8c0-0.1,0.1-0.3,0.1-0.4c0.3-0.2,0.6-0.4,0.8-0.5c0.1-0.7,0.4-1.9-0.1-2.5l0-0.2c0.5,0.4,1,1.1,1.6,1.3
			c0.4-0.1,0.8-0.2,1.2-0.3c0.3,0.1,0.5,0.5,1.1,0.3c0.2-0.1,0.8-0.6,1-0.6c0.4,0,0.6,0.5,1,0.6c0.5,0.1,0.9-0.3,1.5-0.3
			c0-0.5,0.1-2.6,0.2-2.7l0-0.1c0.9,0.3,0.1,0.8,0.5,1.5c0.1,0.1,0.4,0.1,0.5,0.2c0.5,0.6,0.7,0.9,1.3,1.3c0.4-0.1,0.7-0.2,1.1-0.3
			c0.4-0.8,0.4-1.3,0.3-2.3c-0.6-0.5-0.8-1-1.6-0.9c0-1.3-0.1-1.3-0.4-2.3c0.2-0.2,0.3-0.3,0.6-0.5c0.3-0.2,1,0.7,1.3,1.1
			c0.3-0.1,0.8-0.1,1-0.3c0.5,0,0.6,0,0.9-0.3c0.3-0.7-0.4-2.1-0.6-2.9c0-0.1,0.3-0.5,0.4-0.6c-0.1-0.5-0.1-1-0.2-1.5
			c0.5-0.1,0.9-0.3,1.2-0.4c0.4-0.1,1.8,0.3,2.2,0.4c0.9,0.2,1.7-0.3,2.2,0.1c0.3,0.2,0,0.8,0.3,1.5c0.3,0.6,1.2,1.2,1.4,1.6
			c-0.1,0.4-0.1,0.7-0.2,1.1c0.2,0.7,0.9,1.6,1.5,1.8c0.2,0.1,0.5,0,1,0c0.3-0.3,0.6-0.5,0.8-0.8c-0.1-1-0.5-1.9-1.1-2.4
			c-0.2,0-0.3-0.1-0.5-0.1c-0.3-0.4,0-0.7,0.2-0.9c0-0.6-0.3-1.2-0.7-1.5l0-0.2c1.4,0,2.3,0.1,3.6,0.3c0.6,0.1,1.7-0.1,2.3-0.2
			c1.1-0.2,2.3,0.2,3.1,0.3c0.8,0.1,2-0.4,2.9-0.2c1.6,0.3,4,0.1,5.3,0.2c0.9-0.1,1.7-0.3,2.6-0.4c2.3,0.4,5.8,0,7,0.1
			c1.5-0.1,3-0.2,4.5-0.3c3.5,0.7,6.6-0.3,10.7,0.5c1.7,0.3,4.5-0.2,5.2-0.4c0.2,0,0.5,0.1,0.7,0.1c1.6,0,2.5,0,3.8,0.1
			c1.5,0.2,3.1-0.3,4.8,0c1.4,0.2,4.7-0.5,5.7,0.1c2,0,1.6,2.2,2.6,3.2c0.2,0.2,0.6,0.1,0.7,0.3c0.5,0.7,0.7,1.5,1.2,2.2
			c0.4,0.5,1.2,0.7,1.6,1.2c0.2,0.2,0.2,0.6,0.4,0.9c0.6,0.7,1.4,1.1,2.3,1.5c0.1,0.2,0.3,0.3,0.4,0.5l0.9,0c0.6,0.2,1.3,0.8,2,0.9
			c1.2,0.2,2-0.5,2.8-0.9c1.5-0.8,3.4-1.3,4.1-2.8c0-0.3,0.1-0.7,0.1-1c0.3-0.9,1.1-2.1,0.6-3.7c-0.2-0.8-0.5-1.4-0.7-2.1
			c0.1-0.1,0,0,0.1-0.3c1.8-0.2,4.8-0.6,6.4,0.2c0,0,2.5-0.7,3.3-0.6c3.4,0.6,7.7,0,10.9,0.5c0.7,0.1,1.8-0.1,2.3-0.2
			c0.8,0,1.6,0,2.3,0c0.2,0,0.5-0.2,0.9-0.1c3.2,0.7,7.4,0.1,9.2,0.5c0.8-0.1,1.6-0.1,2.3-0.2c1.3,0.3,2,0.2,3.1-0.1
			c0.6,0.1,1.2,0.1,1.7,0.2c0.5-0.1,1.7-0.7,2.6-0.4c0.4,0.1,1.1,0.3,1.4,0.3c0.8,0.1,2.6-0.5,3.2-0.2l1,0c-0.2,0.6-0.2,1-0.1,1.7
			c0.3,0.3,0.7,0.5,1,0.8c1,0,1.5-0.1,1.7-0.8c0.2-0.4-0.4-1.3-0.4-1.7c0.7,0,2.2,0.2,2.8-0.2c0.4,0,0.7,0,0.9,0.1
			c0.3,0.6-0.1,1.4,0.6,2c-0.3,0.2-0.6,0.1-0.7,0.1c-0.2,0.2-0.5,0.4-0.7,0.6c-0.1,0.6,0,1.1,0.1,1.8c0.5,0.5,1.1,0.9,1.6,1.3
			c1.1-0.1,0.8-0.5,1.4-0.9c-0.1-0.8-0.1-1.7-0.8-2.2c0.2-0.3,1.1-0.5,1.5-0.7c0.1-0.5,0.1-0.9-0.3-1.2l0-1c0.4,0.1,0.9,0.1,1.5,0.1
			c0.1,0.4,0.2,0.6,0,0.9c-0.1,0.7-0.4,0.9-0.8,1.3c0,0.9,0.2,1.5,0.6,2c0.3,0.3,0.8,0.3,1.1,0.6c0.6,0,0.8-0.1,1.1-0.3
			c1-0.6,2.1,1.2,2.5,1.4c0.4,0.2,0.5-0.1,0.7,0c0.3,0.1,0.2,0.3,0.9,0.3c0.1-1.1,0.6-1.9-0.3-2.6l0-0.2c0,0,0.6,0.2,0.7,0.1
			c0.2-0.1,0.4-0.4,0.6-0.5c0.1-0.7,0.1-0.9,0.1-1.6l0.1,0c0.6,1.1,1.9,1.4,2.7,2.4c-0.8-0.2-1.1,0.3-1.6,0.7c0,0.3-0.1,0.4,0,0.6
			c0.1,1.2-0.5,1.3-1.2,1.8c-0.2,0.9-0.3,1.7,0.3,2.3c0.3,0.6,0.8,0.5,1.3,0.9c0.7,0,0.8-0.2,1.2-0.4c0.1-0.3,0.1-1.4,0.3-1.7
			c0.2-0.5,0.7-0.5,0.9-1.1c1.1,0.6,0.5,1.9,2.6,1.4c0.6,1.2,1.1,1,1.8,1.8c1.1-0.1,1.1-0.6,1.9-0.9c0.1,0.1,0,0,0.3,0.1
			c0,0.4,0,0.7,0.2,1l0,0.1c-0.3-0.1-0.6-0.2-0.7-0.2c-1.8,0-1.2,0.9-1.9,1.5c0.2,0.8,0.7,1.3,1,1.8c0.3,0.5,0.2,1.2,0.5,1.6
			c0.3,0.6,0.9,0.6,1.4,1.1c1.7-0.1,1.4-2.7,0.5-3.5l0-1c0.3,0.1,0.4,0.2,0.7,0.2c0.2,0.9,1.1,0.9,1.6,1.4c0.7,0,0.9-0.2,1.2-0.5
			c0.1,0.2-0.1,1,0,1.5c0.2,0.7,0.8,0.9,1.2,1.4c0.4,0,0.7,0,0.9,0.1c1.4-0.3,0.3-1.2,0.8-2l0.6-0.5c0-0.6-0.1-1.1,0.2-1.4
			c0.6-0.3,1.2,0.6,1.6,0.9c0,0.7-0.3,0.9-0.5,1.4c-0.1,0.5,0.1,0.9,0,1.2c0.6,0.5,1.1,1,1.6,1.5c0.3,0,0.6,0,0.7-0.1
			c0.5-0.2,0.5-0.5,0.8-0.8c0-0.9-0.1-1.5-0.3-2c0-0.6,0.1-0.6,0.2-1c0.4,0.2,0.6,0.5,1,0.6c-0.1,0.6-0.4,1.7,0.1,2.2
			c0.3,0.8,1,0.8,1.5,1.3c1.1-0.1,0.9-0.6,1.3-1.1l0-0.1c0.7,0.2,1.3,1.2,1.8,1.7c0.4,0,0.7,0,0.9-0.1c0.7-0.1,0.8-0.5,1.2-0.8
			c0-0.5,0.1-0.9-0.2-1.2l0-0.4h0.1c0.3,0.9,1.4,1.3,2.6,1.3c-0.1,0.4,0,1.5,0.3,1.8c0.3,0.6,1.1,0.7,1.6,1.1
			c0.6-0.1,0.8-0.4,1.3-0.5c0.2,0.2,0.4,0.3,0.6,0.5c0.7-0.1,0.9-0.3,1.5-0.4l0.1-0.1c0-1.4-0.2-2.4-1.1-3.2c-0.2-0.2-0.3,0-0.5-0.4
			l-0.1,0l0-0.2c0.9,0.1,1.2,0.7,1.8,1.2c0.1,0.1,0.2,0.6,0.3,0.7c0,1,1.9,2.1,2.8,1.4c0.4-0.1,0.3-0.2,0.6-0.4
			c0-1.1-0.1-1.9-0.7-2.7c0.2-0.1,0.3-0.2,0.6-0.3c0.2-0.2,1.2,0.6,2,0.4c0.4-0.1,0.6-0.4,0.8-0.5c0.8,0.4,1.2,0.2,2.1,0.1l0.3-1.1
			l0-0.2c0.4,0.2,0.9,0.5,1.3,0.8c1.3,0,1.1-0.4,1.8-0.8c0-1-0.3-1.4-0.4-2.1c-0.6-0.3-1.4-1.1-2.2-0.4l-0.2,0
			c0.2-0.4,0.3-0.7,0.3-1.2l0.1-0.1c0.4-0.1,0.8-0.1,1.2-0.2c0.8,0.1,1.9,1,2.5,0.2l0.1,0c-0.6,1.3-0.3,1.8,0.2,2.9
			c0.3,0.6,0.3,1.1,0.7,1.5c0.1,0.1,0.1,0.1,0.4,0.1c0.1,0.4,0.1,0.4,0.3,0.6c1,0,1.1-0.4,1.7-0.8c0.1-0.3,0.1-0.7,0.2-1
			c-0.3-0.3-0.4-0.4-0.4-0.7l-0.1-0.1c0.5,0.1,0.9,0.4,1.3,0.7c1.3,0,1.2-0.4,1.8-0.9c0.1-1.8-0.1-1.3-0.9-2.8
			c-0.5-0.1-0.9-0.1-1.4-0.2c-0.2,0.2-0.4,0.4-0.7,0.5c0,0.6-0.1,1.3-0.3,1.7l0,0.1l-0.1,0l0-0.6l-0.4,0c-0.1-0.6-0.4-0.6-0.6-1.1
			c-0.5,0-0.9,0-1.2,0.2c0-0.1-0.1-0.2-0.1-0.4c0.4-0.1,0.8,0,1.1-0.2c1.4-0.4,0.8-1.2,1.3-2.1c0.3-0.2,0.6,0.3,0.9,0.2
			c0.9-0.2,2.9-0.3,4-0.5c0.1-0.3,0.3-0.4,0.3-0.7c0.9-1.4-0.7-3.1-1.4-3.8l0-0.2c0.6,0.2,0.4,0.5,0.8,0.8c0.4,0.3,0.9,0.3,1.3,0.6
			c1.5,0,2.2-1.9,1.3-2.9c0.2-0.4,0.7-0.6,1.1-0.8c0.2-0.6,0.2-2.1,0.4-2.5c0.2-0.1,0.6,0,0.9-0.1l0.4,0c-0.2,1-0.6,2.3,0.3,2.9
			c-0.1,0.5-0.4,0.6-0.5,1c0.1,0.5,0.1,1.1,0.2,1.6c-0.4,0-0.7,0.1-1.1,0.2c-0.2,0.2-0.5,0.4-0.7,0.5c0,0.3,0,0.2-0.1,0.4
			c0,1.6,0.4,1.8,0.9,2.7c0.4,0.1,0.9,0.3,1.2,0.1c0.8-0.3,1.2-1.9,0.5-2.6l0-0.1c1,0.1,1.2-0.2,1.9-0.7c0-0.5,0-1.7-0.1-1.8
			c-0.1-0.2-0.6-0.2-0.4-0.7l0.5-0.5c0.4-0.9-0.3-2.3-0.7-2.7l0-0.2c1.6,0,3.4,0.2,4.7-0.1c0.6-0.1,2.9-0.6,3.4-0.5
			c1.2,0.2,3.5,0.3,4.3,0.4c0.3,0,1-0.3,1.2-0.3c1.2,0,2.2-0.1,3.5,0.1c0.7,0.1,1.2-0.3,1.6-0.3c0.3,0,1,0.2,1.4,0.3
			c0.2,0,0.5-0.1,0.7-0.1c1,0,1.6-0.1,2.5,0c0.9,0.2,2.1,0.1,2.8-0.1c1.6-0.4,3.8,0,5.2,0.2c1.5,0.3,3-0.5,4.2-0.4
			c3.9,0.4,9.3-0.4,13.1,0.3c1.1,0.2,2.6-0.5,3.9-0.2c2.4,0.5,5.8,0.3,8,0.4c1.5,0,5-0.6,6.4,0.2c1.4,0,1.6-0.3,2.4-0.6
			C621.8,334.4,622.2,333.7,621.8,333.2z M257.6,340.6c-0.4,0-0.5,0-0.7-0.2c-0.1-0.1,0.1-0.2,0.2-0.5l0.4,0c0,0.2,0.1,0.3,0.1,0.5
			c0,0,0.1,0.1,0.1,0.1C257.7,340.5,257.6,340.5,257.6,340.6z M260,338.4c0.2,0.1,0.3,0.1,0.4,0.2
			C260.1,338.5,260.2,338.6,260,338.4z M267.8,345.2c-0.5,0-1.1,0.1-1.4-0.1c-0.1-0.1-0.2-0.3-0.3-0.5l0.4-0.4
			c0.7,0,0.7,0.3,1.2,0.5L267.8,345.2z M278.7,349.5c-0.3,0.2-0.3,0.4-0.7,0.5c-0.1-0.1,0,0-0.2-0.1c0-0.3,0-0.3,0.1-0.5l0.9,0
			L278.7,349.5z M282.5,341.5c0.1,0.3-0.4,2.2-0.7,2.6c-0.1,0.2-0.6,0.2-0.7,0.4c-0.2,0.3-0.2,0.8-0.5,1.1c-0.5,0.6-4.1,1.2-5.3,0.9
			c-0.5-0.1-0.6-0.5-1.3-0.6c-0.1-0.7-0.6-1-0.8-1.4l0-1c0-0.1-0.4-0.5-0.4-0.6c-0.3-0.8-0.1-2.2-0.4-3.3c-0.1-0.5-0.4-1.4-0.3-2.1
			c0-0.4,0.2-1.2,0.1-1.6c-0.3-0.8-0.5-2.3-0.2-3.6c0.3-1.4-0.5-3.1,0.2-4.3c0.3-1,1.3-1,1.9-1.7c1.3,0,1.7,0.3,2.6,0.5
			c0.5,0,1,0.1,1.5,0.1c0.5,0.2,0.8,0.5,1.6,0.6l0,0.9c0.4,0.3,0.7,1,1.1,1.3l0.4,0c0,0.1,0.1,0.2,0.1,0.4c0.2,0.2,0.6,0.3,0.8,0.5
			c0.5,0.8,0.3,2.1,0.5,2.9C283.5,336,283.6,338.8,282.5,341.5z M289.2,349.3c-0.8,0.1-1.2,0.3-1.3,1l-0.2,0
			c-0.5-0.6-0.9-1.3-1.4-1.8l0.4-0.4c1,0,2,0.3,2.5-0.2l0.2,0C289.1,348.5,289.2,348.8,289.2,349.3z M295.4,336.7c0,0.8,0,1.6,0,2.3
			c-0.1,0.3-0.5,0.8-0.6,1c-0.2,0.6,0.2,1.1,0,1.6c-0.3,0.3-0.6,0.7-1,1c-0.2,0.4,0,0.6-0.2,1c-0.3,0.5-1.2,0.9-1.6,1.4
			c-0.8,0-1.1,0.1-1.8,0.1c-0.4-0.4-0.9-0.4-1.1-0.7c-0.3-0.3-0.1-0.8-0.3-1.1c-0.3-0.5-0.8-1.2-1-1.8l0-1c-0.4-1-0.9-3-1.2-3.8
			c-0.1-0.3,0.1-0.6,0.1-0.7c0.1-0.6-0.3-1.3-0.2-1.7l0.2,0c0.1-0.2,0-1.1,0-1.4c-0.1-0.6-0.1-1.6,0.1-2.2c0.1-0.4-0.2-0.7-0.2-1
			c0.2-0.9,0.9-1.6,1-2.6c2.2-1.1,3.8-1.3,5.7,0.4c0.2,0.2,0.6,0.2,0.8,0.5c0.1,0.2,0.4,1.2,0.4,1.3c0,0.2-0.1,0.3-0.1,0.5
			c0.2,0.1,0.3,0.2,0.5,0.4c0.7,1.3,0.9,2.9,0.8,4.4l0.4,0c0.2,0.3-0.1,0.1,0.3,0.2C295.8,335.4,295.6,335.9,295.4,336.7z
			 M298.6,348.1c0.2,0.1,0.1,0,0.3,0.1C298.6,348.2,298.7,348.2,298.6,348.1z M298.8,342.5c-0.4,0-0.6-0.1-0.9,0l-0.1,0
			c0.1-0.4,0.1-0.4,0.2-0.6c0.3-0.1,0.2,0,0.4-0.1c0.2,0.1,0.2,0.3,0.4,0.5L298.8,342.5z M300.7,345.5l-0.2,0l0-0.2l0.2,0
			L300.7,345.5z M306.4,342.5c-0.9,1.5-4.3,1.3-4.9-0.2c-0.5-0.2,0.1-0.1-0.1-0.5c0,0-0.3-0.1-0.4-0.2c-0.1-0.5-0.1-1-0.2-1.5
			c-0.9-1.6-1.8-5.8-1.5-8.2c0.1-0.6-0.4-2.3-0.2-2.5c0-0.6,0.1-2.1,0.4-2.6c0.1,0,0.2-0.1,0.4-0.1c0.1-0.2,0.1-0.5,0.2-0.6
			c0.5-0.6,1.7-0.7,2.4-1.2c0.7,0,0.7,0.3,1.1,0.5c0.4,0,0.8,0.1,1.2,0.1c0.7,0.3,2.1,1.5,2.5,2.1c1.3,2.1,1.3,8.4,0.8,11.1
			C308.2,339.2,306.8,341.9,306.4,342.5z M309.9,346.2c-0.3,0-1.2-0.9-1.6-1.3l-0.1,0c0.1-0.3,0.1-0.3,0.2-0.5c0.3,0,0.2,0,0.4,0.1
			c0.6,0.2,0.8,0.8,1.3,1.2C310,346,310,346,309.9,346.2z M312.8,345.5l-0.2,0c0.1-0.4,0.2-0.3,0.2-0.7c0.1,0.1,0.3,0.2,0.4,0.2
			C313,345.3,313,345.3,312.8,345.5z M320.2,346.1c0,0-1.1-0.6-1.6-0.7l0-0.1c0.3-0.2,0.8-0.4,1-0.8l0.4,0c0.1,0.3,0.1,0.2,0.3,0.4
			c0,0.3,0,0.4,0.1,0.5C320.3,345.7,320.3,345.9,320.2,346.1z M317.9,342.6c-1.5,0.4-1.3,0.8-3.1,0.6c-0.1-0.6-0.4-1.1-1-1.2
			c0-0.2-0.1-0.4-0.1-0.6l-0.4,0c-0.8-1.7-1.5-2.5-2-4.5c0-1.4,0-2.8,0-4.2c-0.3-0.6-0.3-2-0.6-2.9c-0.1-0.5,0.2-0.7,0-1
			c-0.1-2.7,4.5-4.8,7-3.2c0.3,0.2,1.2,2.1,1.3,2.5l0,0.7C321.1,333.5,320,338.5,317.9,342.6z M323.1,338.6l-0.5,0
			c0-0.1,0.1-0.2,0.1-0.4l0.4,0c0,0,0.1,0.1,0.1,0.1C323.1,338.5,323.1,338.6,323.1,338.6z M373.3,256.1l0.2,0l0,0.2l-0.2,0
			L373.3,256.1z M472.1,318l-0.8-0.7c-1.3,0.3-1.4,1.1-2.2,1.9c0,2.2,0.9,2.1,2.1,3c0.5,0.4,0.6,0.9,1.1,1.2
			c0.1,2.6,0.3,4.2,0.3,6.3c0,1.2,0.2,2,0,3.1c-0.2,0.9,0.1,2.6,0,2.8l0,0.2c-2.8,0.1-6.4,0-8.9,0.4c-0.8,0.2-1.6-0.4-2.6-0.2
			c-1.3,0.3-3.2,0.1-4.3,0.3c-1.1,0.2-4,0.6-5.3,0.3c-0.5-0.1-1.2-0.3-1.6-0.3c-2.2,0.1-5.4,0.3-6.9-0.2l-3,0.1
			c-2.7-0.5-5.6,0.3-8.1-0.1c-2-0.3-3.5-0.2-5.4-0.2l-2.6,0.1c-1.1-0.2-3-0.2-3.6-0.1c-1.3,0.1-2.7-0.3-3.4,0.5
			c-1.2-1.5-0.7-4.9-3.4-4.8c-0.4,0-0.9,0-1.1,0.2c-0.3,0.2-0.5,0.4-0.7,0.6c0.2,1.5,1,1.7,1.6,2.7l0,0.9l0.4,0.4
			c0.1,0.4,0.2,0.8,0.3,1.2c0.8,2,2.2,4.9,1.2,7c-0.5,1.1-1.2,1.3-2.3,1.8c-0.4,0.2-0.7,0.6-1.1,0.8c-1,0.3-2.2-0.4-2.7-0.7
			c-2.3-1.1-4.3-3.5-5.6-5.6l-0.4,0c-0.1-1.3-1.3-2.9-1.8-3.9c0.3-0.8-1.2-3.1-1.7-3.6c-1,0.1-1,0.5-1.6,0.9c0,1,0.3,1.4,0.6,2.2
			c0,0-0.1,0.1-0.1,0.1c-1.7,0.1-3.6,0.2-5.4-0.1c-0.8-0.1-2.1,0.3-2.6,0.2c-2-0.2-6-0.3-7.6,0c-1.5,0.3-4-0.5-5.4,0.4
			c-0.8-0.6-2.4-0.5-3.7-0.4c-1,0.1-2.2,0-2.8-0.2c-1.4-0.4-3.2,0.3-4.3,0c-0.8-0.2-2.5,0-2.6,0.1c-0.7,0-2.3-0.2-2.6,0.2
			c-0.1-0.1-0.1-0.1-0.1-0.4c-1.8,0.1-3.6-0.3-5.2,0c-0.3,0.1-2.2,0.5-2.3,0.4c-0.2,0-0.7-0.3-0.9-0.3c-0.2,0-0.5,0.1-0.7,0.1
			c-0.6-0.1-2-0.1-2.6-0.2c-0.3,0-0.7,0.1-1,0.2c-1.9-0.3-4.1-0.4-6.2-0.3c-0.3-1.2-1.4-3.5-0.9-4.3c-0.2-0.3,0-0.1-0.4-0.2
			c0.1-0.3,0.4-0.9,0.5-1.2c0.1-0.5-0.2-0.9,0.1-1.6c0.4-0.9,1.2-1,1.2-2.4c-3.2-0.1-8-0.2-8.8-3.2l-0.4,0c-0.1-0.6-0.4-0.6-0.4-1.3
			l-0.4,0c0.1-1.3,0.5-2.4,0.5-3.7c1-0.3,1.4-1.9,3-2.4c0.5-0.2,3.2-0.6,3.4-0.6c1.4,0.2,2.3,0,3.5,0.4c2.3,0.8,2.1,3.9,2.8,6.4
			c0.4,1.6-0.7,3.9,0.3,5c0.3,1.3,1.6,0.8,3,1c1.6,0.2,3.5,0.2,4.7-0.6c0.1-0.6,0.3-1.7,0.4-2.2c0.1-0.3-0.2-1.2-0.1-1.8
			c0.1-0.4,0.5-1.4,0.3-2c-0.1-0.2-0.5-0.8-0.5-1c0-0.1,0.2-0.5,0.1-0.7c-0.1-0.2-0.6-0.5-0.6-0.8c-0.1-0.5,0.3-0.9,0.2-1.5
			c-0.1-0.4-0.6-3.7-0.5-4c0,0,0.3-0.3,0.4-0.4c0.1-0.4-0.2-1.1-0.3-1.5c-0.1-0.4,0.2-1.3,0.3-1.7c0-0.2-0.1-0.5-0.1-0.7
			c0-0.3,0.3-1,0.3-1.4l0-1.2c0.1-0.4,0.6-0.9,0.7-1.4c0.1-0.5-0.3-1.2-0.1-1.8c0.1-0.2,0.5-0.7,0.6-0.9c0-0.5,0.1-1,0.1-1.5
			c0.1-0.3,0.4-0.8,0.5-1c-0.1-0.3-0.1-0.6-0.1-0.9c0.1-0.4,0.5-1,0.6-1.4l0-1.1c0.4-1,0.9-2.4,1.3-3.4l0-0.6c0.2-0.4,0.9-1,1.1-1.5
			l0-0.9c0.1-0.2,0.6-0.3,0.7-0.5c0.1-0.2,0.4-0.6,0.5-0.8l0-0.6c0.1-0.2,0.8-0.4,1-0.6c0.4-0.5,0.5-1.2,0.9-1.8
			c0.3-0.2,0.6-0.3,0.8-0.5c0.4-0.3,0.6-0.9,0.9-1.3l0.4,0l1-1c0.2-0.1,0.5-0.2,0.7-0.3c0.2-0.3,0.1-0.7,0.6-1
			c0.7-0.4,1.3-0.6,1.9-1c0.8-0.5,1.4-1.2,2.3-1.8c0.1-0.2,0.2-0.4,0.4-0.6l0.6,0c0-0.1,0.1-0.2,0.1-0.4c0.3-0.1,0.7-0.1,1-0.2
			c0.7-0.4,1.6-1.1,2.4-1.4c0.2-0.1,0.6,0,1-0.2c0.5-0.2,1.2-0.8,1.7-1c0.9-0.5,1.7-0.5,2.6-1.1l0.5-0.5l0.7,0
			c0.4-0.2,0.9-0.6,1.3-0.8c1.3-0.6,2.7-0.9,3.9-1.4c0.3-0.1,2.8-0.4,2.9-0.3c0.5,0.1,0.7,0.4,1.1,0.3c0,0,0.1,0.1,0.1,0.1l0-0.4
			c0.5,0,0.7-0.2,1-0.3c0.9-0.3,1.7,0.2,2.2,0.1c1.6-0.3,3.1-0.4,4.7-0.9c0.5-0.2,1.5,0.3,2,0.2c1.3-0.2,3.6-0.3,5,0
			c1.8,0.4,4.1-0.2,5.3,0c0.3,0,0.9,0.4,1.1,0.5l2.2-0.1c1.1,0.2,3.1,0.5,4.5,0.7l1.6,0c0.9,0.3,2.3,0.3,3.5,0.5l1.1,0
			c1.9,0.5,3.7,1.7,5.6,2c1.6,0.3,3.1,0.2,4.8,0.7c1.5,0.5,2.9,1.3,4.2,1.8c0.8,0.3,1.9,0.4,2.7,0.8c1.1,0.6,2.1,1.5,3.1,2.1
			c2.5,1.4,4.7,2.8,6.4,5c0.4,0.5,0.4,1.1,0.7,1.7c0.6,1.2,1.5,2.5,2,3.9c0.4,1.4,0.1,2.3,0.5,3.7c0.2,0.6,0.6,1.2,0.7,1.7
			c0,0.5,0,1.1-0.1,1.6c0.2,0.6,0.6,1.4,0.8,1.9c0,0.2-0.1,0.5-0.1,0.7c0,0.2,0.2,0.9,0.3,1.1c0.1,0.4-0.1,1-0.1,1.2
			c0.1,0.8,0.1,1.6,0.2,2.5c-0.1,0.6-0.4,2.1-0.1,3.1c0.4,1.6,0.4,4.6,0.1,6.4c-0.1,0.7,0.2,1.3,0.3,1.7c0.1,0.3-0.2,0.9-0.1,1.4
			c0.3,1.6,0.1,3.2,0.1,4.4c0,0.1,0.2,0.4,0.3,0.5c0.3,1,0,3-0.3,3.5c0.8,2.1,5.5,1.8,8.2,1.6l1.2-1.3c-0.1-2,0.5-3.5,0.8-5.3
			l-0.1-3.4c0.3-0.9,0-2.2,0.5-3.3c0.4-0.8,1.3-1.3,1.8-2c0.6-1,1-2,2-2.5c0.5-0.3,2.5-0.1,2.7-0.2c0-0.1,0.1-0.2,0.1-0.4
			c0.7-0.4,1.2,0.1,1.6,0.2c0.2,0,0.4-0.1,0.6-0.1c0.1,0,1.6,1,1.8,1.2c0.1,0.2,0.2,0.5,0.3,0.7c0.3,0.3,0.7,0.6,1,0.8
			c0.3,0.5,0.2,1,0.4,1.5c0.1,0.2,0.5,0.5,0.6,0.7c0,0.1,0.6,2.4,0.6,2.4c0,0.3-0.4,0.6-0.5,0.8c0,0.4-0.1,0.7-0.1,1.1
			c-0.6,1.4-1.8,2.3-2.9,3.3c-0.6,0-0.9-0.2-1.4-0.3l-0.5,0.5C472.6,320.4,473.5,319.9,472.1,318z M482.2,340.5
			c-0.2-0.6-0.8-1.3-1.3-1.7l0-0.1c0.5,0,1.1,0,1.4-0.2c0.1,0,0.2,0.1,0.3,0.1c-0.1,0.6-0.2,1-0.2,1.9L482.2,340.5z M483.1,341.7
			l-0.5,0c0-0.3-0.1-0.7-0.2-1c0.3,0.3,0.4,0.6,0.6,0.8L483.1,341.7z M485.7,339.5c-0.1,0.1,0,0-0.2,0.1c-0.2-0.4-0.4-0.6-0.8-0.8
			c0.1-0.3,0.1-0.2,0.2-0.4c0.4,0,0.3,0.1,0.5,0l0.9,0C486.1,338.7,486,339.2,485.7,339.5z M491.5,342.9c0-0.1,0.1-0.2,0.1-0.4
			c0.1,0.1,0.1,0.1,0.1,0.4L491.5,342.9z M501.4,348.4c-0.4,0.1-0.2-0.1-0.4,0.3l-0.4,0c0-0.2-0.1-0.4-0.1-0.6c0.4,0,0.5-0.1,0.6,0
			l0.2,0L501.4,348.4z M503.4,336.1c0,0.6,0.6,1.3,0.3,2.2c0,0.2-0.3,0.5-0.4,0.6c-0.1,0.5,0.3,0.9,0.2,1.4c-0.2,0.8-1,1.9-1.4,2.6
			c-0.2,0.3-0.1,0.6-0.2,0.9c-0.3,0.5-2.3,2.1-3.3,1.9c-1.2-0.2-3.4-1.9-3.9-2.8c-1.6-3.2-2.7-10.6-0.7-13.9c0.4-0.7,1.2-1.9,2-2.3
			c0.4-0.2,1-0.1,1.3-0.3c2.1-0.1,4.8,1.6,5.6,2.9c0.4,0.4,0.4,2.7,0.6,3.4c0,0.5,0,1.1-0.1,1.6
			C503.6,334.9,503.3,335.5,503.4,336.1z M504.6,344.6c0,0-0.5,0-0.3-0.1l0.1-0.1c0.2,0.1,0.1,0,0.3,0.1L504.6,344.6z M508.5,348.4
			l0.4,0C508.7,348.5,508.8,348.5,508.5,348.4z M511.9,351.9c-0.1-0.1-0.1-0.1-0.1-0.4l0.1,0L511.9,351.9z M514.5,337.5
			c0.1,0.4-0.1,0.7-0.1,0.9c-0.1,0.9,0.1,1.4,0.2,1.8c0.2,0.9-1.5,4-2,4.5c-0.6,0.2-1.1,0.4-1.7,0.5c0,0.1-0.1,0.3-0.1,0.4
			c-0.8,0.4-2-0.8-2.4-1c-2.2-1.6-2.1-6.8-1.7-9.6c0.2-1.4-1-3.9-0.4-4.9c0-0.1,0.1-0.3,0.1-0.4l0.6,0l0-0.5
			c0.7-0.4,1.3-0.7,1.6-1.5c1.4-0.1,3.3-0.5,4.4,0.2c0.3,0.2,0.3,0.7,0.5,1c0.3,0.3,0.7,0.7,0.9,1.1c0.2,0.5-0.3,4-0.3,4.9
			C514.1,335.5,514.4,337,514.5,337.5z M516.7,348.9c0,0-0.5,0-0.3-0.1l0.1-0.1c0.2,0.1,0.1,0,0.3,0.1L516.7,348.9z M519.4,351.8
			l-0.1,0l0-0.2l0.1,0L519.4,351.8z M520.9,348.8l0,0.2c-0.2-0.2-0.2-0.4-0.4-0.6l0-0.1l0.5,0C521,348.6,521,348.6,520.9,348.8z
			 M526.7,348.7c-0.6-0.3-0.7-1.2-1.3-1.6c0.2-0.5,0.5-0.4,0.7-0.9c0.5,0.5,0.9,1.3,1.8,1.4C527.6,348.1,526.9,348.2,526.7,348.7z
			 M527.6,332.7c0,0.2-0.4,0.7-0.3,0.9c0.4,3.2,0.4,5.8-1.3,8.4c-0.2,0.3,0,0.6-0.2,0.9c-0.2,0.3-1.5,1.6-1.8,1.8
			c-1.3,0.7-3.1,0.6-4.3,0.8c-2.1-3.1-2.5-4.5-1.4-8.7c0.4-1.5-0.8-3.6-0.4-4.7c0-1.1,2.2-4.2,2.9-4.6c0.7-0.4,1.3-0.3,1.8-0.8
			c1,0,1.4,0.1,2.2,0.1c0.5,0.4,0.9,0.7,1.4,1.1C526.7,328.3,527.9,331.5,527.6,332.7z M533.5,350.1l0,0.1l-0.1,0
			c0-0.1,0.1-0.3,0.1-0.4l0.1,0C533.6,350.1,533.5,350,533.5,350.1z M539,334.2c-0.2,0.1-0.7,0.1-0.9,0.3c-0.2,0.1-0.1,0.4-0.4,0.5
			c0.1,2.4-0.1,3.2-0.8,5.1l0,0.7c-0.4,1.4-0.9,3-1.6,4.1c-2.5,0.6-4.6-1.6-5.3-3.9c-0.2-0.6,0.3-2.2,0.4-3c0.2-1.1-0.2-2.2-0.2-2.6
			c-0.1-1.5,0.6-3.9,0-4.7l0-1.1c0.1-0.2,0.5-0.1,0.7-0.3c0.4-0.3,0.8-1.1,1.3-1.4c0.8-0.4,1.5-0.3,2.1-0.8c0.6,0,1.1,0.2,1.5,0.4
			c1.4,0.6,2.4,4.3,3.3,5.7C539.1,333.7,539.1,334,539,334.2z M541.9,337c0.2,0.1,0.1,0,0.3,0.1C542,337.1,542.1,337.1,541.9,337z
			 M546.3,337.9c-0.3,0-0.2,0-0.4-0.1c-0.3-0.3-0.5-0.9-0.5-1.5l0.6,0c0,0.6,0,1.1,0.3,1.5L546.3,337.9z M297.7,269
			c2.3,1.6,6.7,1.3,9.6,0.9c0.8-0.1,1.9,0.4,2.6,0.3c1.1-0.2,4.4,0.6,4.8,0.3c0.8,0,1,0.5,1.3,1.1c0.5-0.1,0.4-0.3,0.9-0.4l0-0.4
			c0.2,0.1,0.2,0.1,0.5,0.1c-0.1-1-0.5-0.8-0.9-1.3c-0.2-0.2-0.1-0.5-0.3-0.7c-0.4-0.6-1.9-0.9-2.6-1.3c-0.5-0.2-0.6-0.7-1-1
			c0,0-1.8-0.3-2.2-0.5c-1.7-1.1-4.2-1.3-6.8-1.9c-2-0.5-6.5,0.9-6.9,2.3C296.2,267.5,297.1,268.5,297.7,269z M299.2,266.7l0.4,0
			l0-0.4l1.1,0c0-0.1,0.1-0.2,0.1-0.4c0.2-0.1,0.5,0.1,0.5,0.1c0.9,0.1,2-0.1,2.3-0.3l1.6,0.4c0.2,0.1,0.8-0.2,0.9-0.1
			c1.3,0.7,2.8,1.1,4.2,1.7c-0.8,0.5-2.7,0.3-3.9,0.4c-1.5,0-2.2-0.1-3.4,0c-0.2,0-0.8,0.3-1.2,0.2c-0.9-0.2-2-0.7-2.9-0.9
			C298.9,267,299,267,299.2,266.7z M489,277.4c2.5-0.1,4.5-1.5,6.6-1.2c0.9,0.1,2.3,0.2,3.2,0.4c0.3,0,0.7-0.1,1-0.2l0,0.2
			c0.2,0.1,0.5,0.2,0.6,0.2c1.1,0,2.3,0,3.4,0c2.3,0.6,4,0.6,6.8,0.5c0.3-0.2,0.6-0.4,0.8-0.6c0.2-0.9,0.4-2.1,0.3-2.7
			c-0.2-1.8-1.1-3.1-2.6-3.5c-1.2-0.3-1.9,0.3-2.8,0.1c-0.8-0.2-1.9-0.4-2.8-0.4c-0.3,0.2-0.9,0-1.4,0.2c-0.7,0.3-1.6,0.7-2.2,1.1
			c-0.1-0.1-0.5-0.2-0.7-0.1c-1.8,0.8-3.7,1.8-5.5,2.5c-0.7,0.2-1.4,0.4-2.1,0.6c-0.3,0.2-0.5,0.6-0.8,0.8c-0.4,0.1-0.8,0.1-1.2,0.2
			c-0.4,0.2-0.8,0.6-1.1,0.8c0.1,0.2,0,0.1,0.1,0.2C488.8,276.9,488.9,277,489,277.4z M501.5,272.9c0.5,0,0.9,0,1.1-0.3
			c1.1,0,5.9,0.2,6.3,0.8c0.3,0.4,0.2,0.9,0.2,1.4c0,0-0.1,0.1-0.1,0.1c-2.4,0-5.5-0.2-6.9-0.5c-1-0.2-2,0.3-2.7-0.2l-0.6,0
			C499.2,273.4,500.9,273.6,501.5,272.9z M277.4,287.9c1,0.1,2.7-0.4,3.3-0.6c0.2-0.1,0.6,0.2,1,0.1c0.2-0.1,1-0.5,1.2-0.5
			c0.2,0,0.5,0.1,0.7,0.1c1.3-0.4,2.6-1.2,4.1-1.7c0.8-0.3,2.9,0.1,3.7-0.1c0.6-0.2,2.4-1.1,2.9-1.4c0-0.3,0-0.3,0.1-0.5
			c-0.1-0.7-0.9-1.6-1.3-1.9c-0.4-0.1-0.7-0.1-1.1-0.2c-1.1-0.4-2.1-1-3.4-1.3c-1.7-0.4-3-0.1-4.3-0.2c-0.8-0.1-1.3,0.2-1.8,0.1
			c-0.7,0.5-3.1,0.4-3.8,0.6c-1.9,0.4-5.4,2.3-5.9,3.9c-0.1,0.2-0.1,0.9-0.2,1.1c0.2,1.1,0.9,1.6,1.4,2.3
			C275.2,287.5,276.4,287.7,277.4,287.9z M275.2,284.4c0.3-0.9,2.8-2.1,3.9-2.3c0.3,0,0.6,0.1,0.9,0.1c0.2,0,2-0.3,2.6-0.7
			c1.7,0,6.9,0,8,0.9c0.2,0.1,0.1,0,0.3,0.1l-0.1,0c-0.4,0.3-2.7,0.3-3.6,0.6c-1.5,0.5-2.9,1.2-4.4,1.6c-1.1,0.3-2.7,0.2-3.5,0.7
			c-1.4,0-3,0.1-4.1-0.1C275.1,284.9,275.1,284.5,275.2,284.4z M313.2,290.4l-1.4,0c-0.3-0.1-0.9-0.3-1.1-0.3
			c-0.2,0-0.4,0.1-0.6,0.1c-0.3-0.1-1.1-0.5-1.5-0.6c-1.2-0.1-3,0.3-4.3,0c-0.8,0.6-2.6,0.3-3.5,0.7c-0.9,0.5-2.2,1.4-2.8,2.3
			c-0.3,0.5-0.2,1.1-0.6,1.5c0.2,0.5,0.4,1.3,0.8,1.8c0.9,1.2,4,1.8,6.1,1.3c1.5-0.4,3.7-1.1,5.6-1.7c0.5-0.2,0.8,0.1,1.1,0
			c0.2-0.1,0.9-0.4,1.2-0.4c0.6,0,1.9,0.4,2.3,0.3c0.4-0.1,1-0.7,1.7-0.4l0.5,0.5c0.7,0.1,1.4,0.2,2.1,0.3c0.2-0.1-0.1-0.4,0.5-0.3
			c0.8-0.2,1.1-0.9,1.7-1.4c-0.1-0.3,0-0.2-0.1-0.4c-0.4-0.7-1.4-0.3-1.9-0.6c-0.5-0.2-0.3-0.8-0.8-1.1c-0.5-0.7-2.1-0.7-3-1
			C314.7,291,313.7,290.6,313.2,290.4z M309.3,293.5c-2.7,1.2-6.7,2.7-9.4,1.2c-0.1-0.3-0.1-0.6-0.1-0.9c1.2-1,1.9-1.9,4.1-2l0-0.2
			c1.5,0.1,3.2,0.2,4.6,0.4c0.4,0.1,1.5-0.2,1.8-0.1c0.8,0.2,2,0.8,2.9,0.7c0,0,0.1,0.1,0.1,0.1C312.5,293.2,310.5,293,309.3,293.5z
			 M373.6,292.9c1.2-1.1,3.7-1.3,5.2-1.8c0.7-0.2,2.8-0.5,3.6,0c1.8,0.8,2.4,4.4,4,4.9c0.2,0.1,0.4,0,0.6,0.1c0.5-0.1,0.6-0.3,1-0.5
			c0.1-0.3,0.2-0.7,0.3-0.9c0-1.4-0.7-2.1-1.6-2.7c-0.2-0.1-0.4,0.1-0.5-0.1c-0.1-0.3-0.1-0.6-0.1-0.9c-1.1-1.4-2.1-2.4-4.1-2.8
			c-0.6-0.1-1.7,0.2-2.5,0c-0.3,0.2-0.8,0.1-1.2,0.3c-0.2,0.1-0.7,0.4-1,0.5c-0.7,0.1-1.3,0.2-2,0.3c-0.6,0.2-1.4,0.9-1.9,1.2
			c-0.4,0.2-0.8,0-1.1,0.3c-0.3,0.2-0.4,0.6-0.6,0.9c-0.2,0.2-0.4,0.2-0.6,0.4c-0.3,0.3-1.3,1.6-1.4,2c-0.2,0.4,0,0.7-0.2,1
			c0.1,0.9,0.3,0.7,0.8,1.1c0.3,0,0.5,0,0.6-0.1C371.6,295.7,372.8,293.5,373.6,292.9z M515.6,287.2c0.8,0.1,3,1.3,3.7,1.7
			c0.8,0.4,1.7,0.2,2.5,0.7c0,0.1,0.1,0.2,0.1,0.4c0.2,0,0.5,0.1,0.7,0.1c0.9,0.4,1.5,1.5,2.3,2c0.5,0.3,1,0.3,1.4,0.7
			c0,0.1-0.1,0.2-0.1,0.3c0.1,0.1,0.2,0.2,0.3,0.2c1.5,0,2.4,0.4,3.7-0.1c1.1-0.4,1.9-1.4,3-1.9c0.2-0.4,0.3-0.9,0.6-1.2
			c0-0.8-0.3-1.9-0.7-2.2c-0.2-0.1-0.5-0.1-0.7-0.2c-0.2-0.2-0.3-0.7-0.5-1c-2.1-1.8-7.9-1.6-10.7-2c-1,0-2,0-3,0
			c-0.3,0.2-1,0-1.5,0.2c-1,0.3-2.4,0.8-3.2,1.3c0,0.2-0.1,0.5-0.1,0.7c0.1,0.1,0.3,0.3,0.4,0.5
			C514.4,287.4,515.2,287.2,515.6,287.2z M529.2,288.1c0.6,0.3,1,1,1.6,1.2l0,0.2l-0.8,0.9c-0.4,0.3-0.9,0.3-1.2,0.5
			c-2.2-0.1-3-2.1-4.4-2.9c-0.6-0.3-1.3-0.3-1.4-0.8C525.3,287.2,527.3,287.2,529.2,288.1z M421.9,290.5c0.2,0,0.5,0.1,0.7,0.1
			c0.2-0.1,0.6-0.4,1.1-0.3c1.1,0.3,2.6,0.5,3.4,1.3c0,0.2,0.1,0.3,0.1,0.5c0.4,0.4,1,0.5,1.4,0.8c1.3,1.2,0.9,2.8,3.4,1.5
			c0.6-1.7-0.7-2.5-1.5-3.4c-2-2.3-4.8-3.2-8.7-3.2c-0.8,0.8-3,1.3-4.2,2.1c-0.3,0.2-0.5,0.8-0.8,1c-1.3,0.9-2.3,1.8-3.2,2.9
			c0.4,1.7,1.8,1.5,3,0.6c0.3-0.2,0.2-0.7,0.5-0.9c0.8-0.7,2.8-2.2,3.7-2.7C421,290.8,421.7,290.6,421.9,290.5z M504.7,296.6
			l-2.8,0.1c-0.5-0.1-1.1-0.2-1.9-0.2c-0.7,0.5-1.7,0.3-2.4,0.4c-0.6,0.1-3.8,1.1-4.1,1.4l-1.1,0c-0.4,0.2-0.2,0.7-0.5,1
			c-0.3,0.5-1.8,0.6-1.1,1.8c0.6,0.9,4.9,0.6,6.3,1c0.8,0.3,1.6,1.1,2.3,1.5c0.9,0.6,1.8,0.6,2.9,1c0.4,0.1,0.7,0.6,1.3,0.6
			c1,0.1,3.3-1.7,4.1-2.1c0.7-0.4,1.7-0.5,2.1-1c0.4-0.6,0.3-1.3,0.8-1.7c-0.1-1.8-2-3.2-3.4-3.6
			C506.1,296.5,505.5,296.7,504.7,296.6z M507.3,300.3c-0.3,0.6-1,0.6-1.7,0.9c-0.5,0.2-1,0.8-1.4,1c-1.4,0.5-2.4-0.5-3-0.9
			c-1.1-0.8-2.3-1.4-3.9-1.6l0-0.1c0.4-0.2,0.9-0.2,1.2-0.5c3.3,0.2,6.3-0.5,8.9,0.7C507.4,300.1,507.4,300.2,507.3,300.3z
			 M388.4,309.8c-0.3-0.5-0.2-1.1-0.5-1.6c-0.2-0.3-0.6-0.3-1-0.5l-1.3-1.2c-1-0.6-2-0.4-3.2-0.8c-1.3-0.4-2.3-0.8-4.2-0.7
			c-0.2,0.1-0.7,0-1,0.2c-0.2,0.1-0.1,0.4-0.2,0.5c-0.2,0.2-0.4,0.1-0.6,0.3c-0.7,0.6-1.9,2.4-2.4,3.3c-0.1,0.3-0.8,4.9-0.6,5.3
			c0.1,0.2,0.6,0.7,0.6,0.8c0.1,0.3-0.2,0.6,0,1c0.2,0.1,0.3,0.2,0.5,0.4c0.7,1.1,1.2,2.8,2.1,3.6c1.7,1.6,7.4,1.9,9.7,0.6
			c0,0,2.4-2.3,2.4-2.3c0.9-1.6,2.1-6.3,0.9-7.9C389.2,310.4,388.8,310.1,388.4,309.8z M386.8,312.4c-0.5-0.4-1-0.9-1.8-0.9
			c-0.2,0-0.6,0.2-0.9,0c-1.4,0.2-1.2,1.3-2.7,1.4c-0.8,2.1-1.1,4.8,1,6l0,0.2c-0.9,0.2-1.3-0.2-1.9-0.3c-0.2,0-0.4,0.1-0.6,0.1
			c-0.4,0-0.9-0.3-1.2-0.5c-1.2-0.7-2.4-3.3-2.9-4.8c-0.2-0.8,0.5-2.6,0.6-3.2l0-1.1c0.4-0.8,1.3-1.5,1.9-2.2c2-0.1,5.7,0.7,6.9,1.5
			c0.7,0.5,0.6,1.6,1.3,2.1L386.8,312.4z M433.4,316.8c0.2-0.7,0.8-4.3,1.1-4.6c-0.4-0.3-1-0.8-1.3-1.2l0-1
			c-0.1-0.1-0.5-0.2-0.5-0.2c0-0.3,0.1-0.6,0.1-0.9c-0.2-0.5-0.8-0.8-0.8-1.3c-0.8-0.3-1.7-1.1-2.5-1.4l-0.7,0
			c-0.5-0.2-1.4-0.5-2-0.7c-0.9-0.2-1,0.2-1.6-0.1c-0.5,0.3-1.1,0.2-1.7,0.4c-0.3,0.1-0.5,0.5-0.7,0.6l-0.5,0
			c-0.9,0.4-1.4,1.2-2,1.9c-0.1,0-0.2,0.1-0.4,0.1l-0.7,1.5c0,0.1,0.3,0.6,0.1,0.9c-1.6,3.7,0.7,9.1,3.6,10.1
			c0.8,0.3,1.6-0.1,2.2,0.1C428.6,322.1,432.6,319.2,433.4,316.8z M430.9,312.9c-1.5-0.7-2.9-1.7-4.6-0.2c-0.7,0.4-1.6,2.7-0.9,3.7
			c0,1,0.4,1.5,1,1.8c0,0.1-0.1,0.2-0.1,0.4c-2.1,0.1-3.7-0.7-4.4-2.2l0-1.2c-0.5-1.6-0.5-2.4,0-3.9c0.1-0.5,0.1-0.9,0.2-1.4
			c0.3-0.6,1.9-1.7,2.4-1.9c0.4-0.2,0.8-0.1,1.1-0.3c1.2,0,2.8,0.3,3.6,0.9c0.1,0.1-0.1,0.6,0,1c0.2,0.5,0.7,0.8,0.9,1.2
			c0.3,0.5,0.3,1.1,0.7,1.6L430.9,312.9z M443.5,315l0.3-1.1c-0.4-0.5-0.4-0.9-1.1-1.1c-0.2-0.1-0.4-0.1-0.7-0.1
			c-0.3,0.3-0.8,0.7-1.1,0.9c0.1,1.2,0.5,1.4,1,1.9C442.6,315.4,443,315.2,443.5,315z M477,315.2c-0.1-0.4-0.1-0.4-0.3-0.6l-0.4,0
			c-0.2-1.5-2-1.3-3.5-1.1c-0.2,0.3-0.6,0.7-1,0.9c0.4,1.3,1.6,1.5,1.9,2.6c0.4,0,0.8,0,1-0.2C476.1,316.7,476.2,315.7,477,315.2z
			 M360.4,320.7c0.2,0.2,1.1-0.4,1.6-0.5c0.1-0.5,0.2-0.5,0.2-1.1c-0.3-0.3-0.7-0.7-1-1.1c-1.1,0.1-1.5,0.6-2.1,1
			C359.3,320,359.7,320.4,360.4,320.7z M340.8,318.8c-0.2,0.2-0.3,0.2-0.7,0.3c-0.1,0.3-0.2,0.4-0.5,0.6c0,0.4,0.1,1-0.1,1.2
			c0.4,0.7,1.7,1.1,2.7,1c0.2-0.3,0.6-0.5,1-0.6C343.2,319.3,342.7,318.6,340.8,318.8z M407.1,318.6c-0.1,0.1-0.2,0.2-0.4,0.3
			c-0.1,0.5-0.3,1-0.4,1.5c0.7,0.8,1.1,0.4,2,0.9c0.6-0.2,0.5-0.8,0.9-1.1c-0.1-0.6-0.3-1-0.5-1.5
			C408.3,318.6,407.7,318.5,407.1,318.6z M370.9,323.5l-1.4,0c-0.3,0.3-0.4,0.5-0.7,0.9c0.1,0.9,0.6,1.4,1.3,1.6
			c0,0,0.1,0.1,0.1,0.1l0-0.1c0.8,0,1.2-0.5,1.3-1.1c0.1-0.2,0.1-0.1,0-0.2C371.4,323.8,371.2,323.9,370.9,323.5z M442.7,322
			c-0.2,0.2-0.4,0.3-0.6,0.4l0,1.4c0.3,0.3,0.7,0.6,0.9,1c1.5,0,1.3-0.7,2.1-1.3c-0.2-0.5-0.5-0.7-0.7-1.2
			C443.9,322.1,443.5,322,442.7,322z M394.5,323.7c-0.1,0.1-0.3,0-0.5,0.1c-0.2,0.3-0.4,0.6-0.6,0.9c0,0.5,0.1,0.8,0.3,1.1
			c0.3,0.2,0.6,0.3,0.9,0.5c1-0.1,1.4-0.6,1.6-1.4c0.1-0.3-0.3-0.8-0.5-1.1C395.2,323.8,394.9,323.8,394.5,323.7z M361.7,325.5
			c-0.2-0.2-0.6-0.2-1-0.2c-0.3,0.4-0.6,0.7-0.9,1.1c0.1,0.6,0.2,0.6,0.3,1.2c0.5,0.2,0.9,0.3,1.6,0.3c0.3-0.4,0.5-0.6,1-0.8
			C362.6,326.2,362.4,325.7,361.7,325.5z M421.1,324.2c-0.5-0.2-0.5-0.4-1-0.6c-0.1-0.1-0.2-0.1-0.5-0.1c-0.1,0.1-0.2,0.1-0.5,0.1
			c-0.3,0.3-0.5,0.7-0.8,1c0.1,1,0.5,1,0.9,1.6c1,0,1.3-0.3,2-0.6C421.2,325.1,421,324.7,421.1,324.2z M385.4,326.6
			c0-0.4-0.1-0.5,0-0.7c0-0.7-0.1-0.6-0.4-1c-0.6,0-0.5,0-1,0c-0.1,0.1-0.5,0.2-0.6,0.3c-0.4,0.2-0.3,0.3-0.6,0.5
			c0,1.3,0.6,1.4,1.3,1.9C384.6,327.4,384.9,326.9,385.4,326.6z M434.8,323.7l-0.5,0c-0.2,0.4-0.2,0.1-0.1,0.6
			c-1.5,0.1-1.2,0.4-2.2,1.2c0.3,1.1,0.7,1.1,1.4,1.7c0.8-0.1,0.9-0.3,1.3-0.7c0.1-0.8,0.2-1.4,0.5-2.1
			C435,324.3,434.9,324.1,434.8,323.7z M450.7,325c-0.3-0.2-1-0.2-1.5-0.2c-0.1,0.4-0.4,0.9-0.8,1c0,0.5-0.1,0.1,0.3,0.5
			c-0.3,0.2-0.1,0.5-0.1,0.9c0.7-0.1,0.8,0.3,1.2,0.3c1.4,0,1.8-0.4,1.9-1.5C451.3,325.5,451.3,325.1,450.7,325z M405.2,327.6
			c-0.2,0.4-0.3,1.1-0.6,1.4c0,0.1,0.1,0.2,0.1,0.4l0.5,0c0,0.3,0,0.3-0.1,0.5l0,0.2c0.5,0.1,0.7,0,1.4,0c0.4-0.4,0.8-1.1,1.2-1.4
			c-0.1-0.4-0.3-0.8-0.5-1.2C406.4,327.3,405.9,327.5,405.2,327.6z M367.1,329.6c-0.4,0.3-1,0.5-1.5,0.7c0,0.4,0,1,0.2,1.2
			c0.2,0.5,0.5,0.7,1.1,0.8c0.1,0.1,0.6,0.1,0.9-0.1c0.3-0.2,0.4-0.6,0.6-0.9c-0.1-0.6-0.4-0.8-0.5-1.5
			C367.6,329.8,367.4,329.7,367.1,329.6z M422.9,329.6c-0.1,0.4-0.1,1-0.1,1.6c1.4,0.2,2.4,1.2,2.8-0.9c0.1-0.1,0,0,0.1-0.3
			l-0.9-0.8C423.8,329.2,423.6,329.2,422.9,329.6z M385.9,330.7c-0.2-0.1-0.7-0.2-1-0.2c-0.4,0.3-0.7,0.6-1.1,0.9
			c0,0.3,0,0.5-0.1,0.6c0.2,0.6,1.2,1.6,1.9,1.1c0.8-0.1,0.9-0.6,1.3-1c-0.1-0.4-0.2-0.6-0.4-0.9
			C386.3,330.8,386.2,330.8,385.9,330.7z M446.5,329.4c-0.3,0.3-0.8,1-0.4,1.5c0.1,0.8,0.5,0.8,1,1.2c0.9-0.1,1.1-0.4,1.6-0.8
			c0.1-0.3,0.1-0.6,0.1-1.1c-0.2-0.2-0.3-0.4-0.5-0.6C447.8,329.3,447.2,329.4,446.5,329.4z M331.8,340c-0.6-0.1-1.1-0.3-1.7-0.3
			c-0.2,0.3-0.5,0.6-0.7,0.9c0.2,1.5,0.7,1.9,1.7,2.5c1.4,0,1.8-0.3,1.9-1.4C332.6,341.3,332,340.5,331.8,340z M260,346.3
			c-0.5,0-0.4,0-0.9,0c-0.3,0.3-0.5,0.8-0.8,1c0.3,1.3,1,1.2,2,1.8c0.4-0.1,0.4-0.1,0.6-0.3c0-0.4,0-1,0-1.1
			C260.8,347,260.3,346.8,260,346.3z M249.4,347.2c0,0.5-0.3,1-0.2,1.4c0.2,0.9,1,1.4,1.3,2.3c0.5,0.1,0.7,0,1.2,0
			c0.1-1.7-0.7-2.9-1.5-3.9C249.8,347,249.8,347.1,249.4,347.2z M328.6,347.7c2,0,0.9-0.4,1.8-0.9c-0.1-1.3-0.7-1.4-1.3-2.1
			c-0.4,0-0.7-0.1-1.1-0.1c-0.3,0.4-0.6,0.4-0.7,0.9C327,346.3,328.2,347.3,328.6,347.7z M344.9,347.9c-0.5-0.1-0.7-0.2-1.4-0.2
			c-0.1,0.1-0.1,0.1-0.4,0.1c-0.2,0.4-0.5,0.8-0.3,1.1c0,1.3,0.7,1.1,1.3,1.8c0.4-0.1,0.7-0.2,1.1-0.3c0.3-0.6,0.3-0.9,0.2-1.7
			C345.2,348.6,345,348.3,344.9,347.9z M318.1,353c0.7,0,1-0.2,1.2-0.7c0.7,0.1,1.5,1,2,1.4c0.7-0.1,0.9-0.5,1.3-0.8
			c0-1.7-0.7-1.9-1.6-2.7l-0.9,0c-0.2,0.2-0.4,0.4-0.6,0.6c-0.4,0.2-1-0.6-1.1-1.1l-1.2,0c-0.2,0.4-0.8,1-0.4,1.5
			C316.9,352.3,317.6,352.5,318.1,353z M479.4,345.2c-0.2,0.1-0.5,0.3-0.7,0.4c-0.1,0.9,0,1.2,0.1,2.1c0.4,0.4,1.1,0.7,1.4,1.2
			c1.1,0,1.1-0.4,1.6-0.9c0-1.6-0.5-1.7-1.1-2.6C480.2,345.4,480,345.2,479.4,345.2z M254.8,352.9c-0.3,0.6-0.4,1.3,0.1,1.8
			c0.3,0.3,0.7,0.4,1,0.7c0.7,0,0.6-0.1,1-0.4c0-1.2-0.3-1.3-0.7-2.2L254.8,352.9z M265,353.1l-0.4,0c-0.4,0.6-0.9,1.9-0.3,2.7
			c0.2,0.9,1.9,1.8,2.5,2.5c0.4,0,0.9,0,1.1-0.2l0.2,0C268.3,354.4,266.7,355.1,265,353.1z M331.2,353.8l-0.4-0.4
			c-0.1-0.3-0.1-0.7-0.2-1c-0.2-0.4-0.8-0.7-1-1.1l-0.6,0c-0.2,0.2-0.4,0.4-0.6,0.5c0.1,0.5,0.1,1.9-0.3,2.3c0.3,1.9,1.7,1.6,3,1.6
			c0-0.1,0.1-0.2,0.1-0.4c0.1-0.3-0.1-0.4-0.1-0.7C331,354.5,331.3,354.2,331.2,353.8z M285.3,353.6c-0.2,0.2-0.2,0.2-0.5,0.3
			c-0.1,0.4-0.2,0.8-0.1,1c0.1,1.3,0.7,1.2,1.4,1.8c0.8-0.1,0.7-0.3,1.1-0.6c-0.1-1-0.6-1.5-0.9-2.4L285.3,353.6z M337.5,352
			c-0.2,0.2-0.5,0.4-0.7,0.5c0.1,1.1,0.4,1.2,0.7,2.1c0.4,0.1,0.6,0.3,1,0.1l0.6,0c0.1-0.4,0.2-0.9,0-1.2
			C339,352.3,338.5,352,337.5,352z M490.3,347.4c-0.2,0.2-0.6,0.4-0.8,0.5c0,0.9-0.1,1.8,0.4,2.4c0.2,0.3,0.6,0.5,1,0.7
			c0.1,0.1,0.2,0.1,0.5,0.1c0.3-0.3,0.7-0.4,0.8-0.9c0.6-0.8-0.1-1.7-0.3-2.6C491.4,347.6,490.9,347.4,490.3,347.4z M557.8,345.5
			c-0.5,0.5-1.4,1.5-0.8,2.4c0.1,1,0.6,0.7,1.1,1.2c1.1,0,1.3-0.5,1.8-1c-0.1-1.5-0.7-1.7-1.3-2.5L557.8,345.5z M290.2,354.2l-0.6,0
			c-0.2,0.4-0.4,1-0.7,1.3c0.4,1.3-0.1,2.3,1.2,2.7c0.4,0.1,1,0.1,1.3-0.2l0.2,0c-0.3-1.1-0.2-2.5-0.8-3.3
			C290.6,354.5,290.3,354.4,290.2,354.2z M548.6,350.5c0.1-0.1,0.5-1.2,0-1.5c0-1.4-1.1-1.6-1.9-1.8c-0.3,0.3-0.6,0.7-1,0.9
			c0,0.7,0,1.5,0.3,1.8C546.4,350.9,547.9,351.3,548.6,350.5z M302.8,360c0-2.1-0.4-3.5-2.1-3.8c-0.2,0.4-0.5,0.6-0.7,1
			c-0.7,1.1,0.3,2.7,0.7,3.2c0.5,0,0.9,0.1,1.1,0C302.4,360.3,302.4,360.2,302.8,360z M477.2,350.7c-0.2,0.2-0.5,0.3-0.7,0.4
			c-0.1,0.2-0.1,0.4-0.2,0.5c0.1,1.1,0.6,1.5,1.1,2.2c0.7,0,1.2,0.1,1.7-0.2c0.1-0.2,0.1-0.4,0.2-0.5c0-1.4-0.6-1.5-1.1-2.3
			C477.9,350.8,477.7,350.7,477.2,350.7z M488.2,350.6c-0.1,0.3-0.2,0.4-0.5,0.6c0,1,0.2,2.2,0.8,2.6c0.3,0.2,0.4,0,0.6,0.2
			c1.3,0,1.3-0.6,1.8-1.3c-0.3-1.1-1-1.5-1.5-2.2L488.2,350.6z M323.5,358.6c-0.2-0.8-0.6-1.2-0.9-1.8c-0.5-0.2-0.9-0.3-1.6-0.3
			c-0.2,0.3-0.4,0.8-0.7,1.1c0.1,0.5,0.4,0.6,0.5,1c0.5,1.1-0.3,2,0.3,2.8c0.5,1,1.3,0.7,2.4,0.5c0,0,0.1-0.1,0.1-0.1
			C323.6,360.6,323,359,323.5,358.6z M314.6,359.2l-0.4,0l0-0.4c0,0-0.1-0.1-0.1-0.1c-0.5,0.1-0.6,0.2-1,0.3
			c-0.1,0.8-0.4,2.7,0.1,3.3c0.5,0.7,1.6,0.5,2.3,0.3c0,0,0.1-0.1,0.1-0.1c-0.1-0.6-0.1-2-0.4-2.4
			C315,359.7,314.8,359.6,314.6,359.2z M538.8,356.2c1-1.1,0.7-2,0-3.3c-0.5-0.1-1-0.1-1.5-0.2c-0.2,0.3-0.5,0.8-0.8,1
			c0.1,0.7,0.2,1.1,0.3,1.8c0.4,0.2,0.6,0.5,1,0.6C538.1,356.3,538.4,356.2,538.8,356.2z M549.1,352.9c-0.2,0.2-0.5,0.2-0.7,0.4
			c-0.3,0.2-0.3,0.3-0.6,0.5c0,0.8,0,1.6,0.4,2c0.5,1.2,1.6,0.7,2.5,0.3c0.3-1.6-0.5-2.3-1.2-3.2L549.1,352.9z M500.2,355.7
			c-0.1,0.1-0.3,0.2-0.5,0.4c-0.4,0.4-0.4,1.1-0.3,2c0.3,0.3,0.8,0.7,1,1.1c1-0.1,1.3-0.4,1.9-0.8c0.1-0.3,0.1-0.4,0.2-0.6
			c-0.1-1-0.7-1-1-1.8C501,355.8,500.7,355.7,500.2,355.7z M267.7,363.9c-0.4-0.1-0.8-0.2-1-0.5c-0.4,0.1-0.4,0.2-0.7,0.3
			c-0.1,0.9-0.6,2.1,0.2,2.9c0.4,0.6,1.1,0.7,2.1,0.7c0.1-0.8,0.1-2-0.1-2.5C268,364.5,267.8,364.5,267.7,363.9z M302.1,362.3
			c-0.5,0.8-0.6,2.3,0.1,3.2c0.3,0.3,0.6,0.3,1,0.6c0.6-0.1,0.7-0.3,1.2-0.4c-0.3-1.5-0.4-2.2-1.1-3.3
			C302.9,362.4,302.5,362.3,302.1,362.3z M534.5,355.6c-0.2-0.2-0.6-0.2-1-0.2c-0.3,0.3-0.6,0.4-0.8,0.8c-0.1,0.1-0.1,0.9-0.1,1.5
			c0.3,0.3,0.6,0.7,0.8,1c0.6,0,0.7,0.1,1.1,0.2c0.2-0.2,0.5-0.3,0.9-0.4c0.2-0.6,0.3-1.7-0.2-2.3
			C534.9,355.8,534.9,355.7,534.5,355.6z M507.3,357.3c-0.2,0.2-0.4,0.4-0.6,0.5c-0.1,0.4-0.4,0.9-0.1,1.4c0.1,0.8,0.5,1.4,1.2,1.6
			c0.7,0.4,1.5-0.3,1.8-0.7c0-1.2-0.3-1.9-0.9-2.4C508.4,357.4,508,357.3,507.3,357.3z M529.6,356.7c-0.3,0.3-0.7,0.5-1.1,0.6
			c-0.1,0.2-0.1,0.4-0.2,0.5c0.1,1.3,1.1,1.8,1.8,2.5c0.6,0,0.9,0,1.2-0.3c0.3-0.3,0.3-0.7,0.6-1c-0.1-1.1-0.5-1.6-0.9-2.3
			C530.5,356.8,530.1,356.8,529.6,356.7z M489.2,358.2c-0.3,0.3-0.8,0.5-1.1,0.8c0,1.7,1,3.3,2.3,2.1c0.7-0.9,0-1.8-0.2-2.7
			C489.8,358.4,489.5,358.3,489.2,358.2z M515.5,357.8c-0.5-0.1-0.7-0.2-1.4-0.2c-0.2,0.3-0.5,0.5-0.8,0.6c0,0.6,0,0.8-0.1,1.1
			c0.2,1.3,1.2,1.6,2,2.3c0.4-0.1,0.5-0.1,0.7-0.4c0.1-0.1,0.8-1.4,0.4-1.9C516.3,358.5,515.8,358.4,515.5,357.8z M289.3,366.3
			c-0.1,0.1-0.2,0.2-0.4,0.3c-0.3,0.9-0.4,2.1,0.2,2.9c0.2,0.3,0.6,0.4,0.9,0.7c0.6-0.1,0.5-0.2,1-0.4c-0.2-1.4-0.3-2.3-1.1-3.5
			L289.3,366.3z M499.7,360.6l-0.7,0c-0.1,0.1-0.3,0.2-0.4,0.3c-0.4,0.2-0.3,0.3-0.6,0.5c0,1-0.2,1.7,0.3,2.2
			c0.4,0.5,0.9,0.4,1.4,0.7c0.5-0.1,0.7-0.2,1.1-0.4c0.1-0.5,0.3-1.1,0.1-1.5C500.7,361.5,500.1,361.2,499.7,360.6z M540.2,359.9
			c-0.4,0-0.8-0.1-1.2-0.1c-0.7,1.1-0.7,1.2-0.5,2.6c0.5,0.4,0.9,0.7,1.4,1.1c1.1-0.1,1.1-0.7,1.7-1.2c-0.1-0.6-0.2-1.1-0.3-1.7
			C540.8,360.4,540.4,360.2,540.2,359.9z M334.3,367.1c-0.8,1.5-0.8,2.2,0.1,3.8c0.4,0.1,0.9,0.4,1.4,0.1l0.4,0
			c0.3-1.8-0.3-2.7-1-3.9L334.3,367.1z M507.6,362.5c-0.3-0.2-0.9-0.2-1.5-0.2l-0.6,0.6c0,0.8,0,1.5,0.4,2.1
			c0.2,0.6,0.8,0.6,1.1,0.9c0.5,0,0.8,0,1.1-0.3c0.4-0.3,0.7-1,1.1-1.4c0.1-0.1,0-0.3-0.1-0.5C509.1,363.7,507.7,362.5,507.6,362.5z
			 M320.3,369.8c-1.5,0-1.9,0.3-2.7,0.8c0,0.5,0.1,1.6,0.3,2c0.1,0.5,0.1,0.5,0.3,0.9c1.4,0,1.9,0.5,3.2,0.3c0-1.2,0.2-2.3-0.3-3.2
			C320.9,370.2,320.5,370.1,320.3,369.8z M522.7,366.7l-0.9,0c-0.1,0.1-0.3,0.2-0.4,0.3c-0.5,0.2-0.4,0.6-0.7,1
			c0.1,1.3,0.6,1.5,1.2,2.2c0.4,0,0.8,0,1-0.2c0.5-0.1,0.4-0.3,0.7-0.5c0-0.7,0.1-1.5-0.3-2.1C523.1,367.1,522.9,367,522.7,366.7z"
			/>
	</g>
</g>
</svg>
